<svg xmlns="http://www.w3.org/2000/svg" width="300" height="300" viewBox="0 0 300 300" version="1.1">
	<path d="M 115.500 69.469 C 108.306 70.995, 103.040 72.833, 101 74.531 C 98.651 76.486, 83.215 84, 81.548 84 C 80.725 84, 76.951 85.600, 73.161 87.554 C 65.348 91.586, 62.494 95.426, 65.617 97.709 C 67.978 99.436, 73.062 99.345, 75.653 97.530 C 76.807 96.722, 79.945 95.325, 82.626 94.426 C 85.307 93.527, 88.210 92.163, 89.079 91.396 C 89.947 90.628, 91.268 90, 92.014 90 C 92.761 90, 94.300 89.143, 95.436 88.096 C 96.571 87.049, 101.775 84.774, 107 83.039 C 112.225 81.305, 117.345 79.421, 118.378 78.854 C 119.510 78.233, 122.898 78.088, 126.902 78.490 C 132.657 79.068, 133.776 78.905, 135.250 77.276 C 136.862 75.495, 136.819 75.199, 134.440 71.697 C 132.062 68.197, 131.649 68.005, 126.714 68.098 C 123.846 68.152, 118.800 68.769, 115.500 69.469 M 110.173 120.808 C 106.172 122.344, 103.845 124.487, 92.882 136.728 C 89.212 140.825, 87.090 144.732, 83.770 153.500 C 77.268 170.670, 76.784 177.863, 81.042 194 C 82.010 197.669, 89.919 206.970, 93.716 208.905 C 95.030 209.574, 97.678 209.769, 100.216 209.383 C 103.888 208.825, 105.571 207.628, 112 201.001 C 121.467 191.242, 127 184.324, 127 182.246 C 127 181.357, 128.012 179.558, 129.250 178.248 C 130.488 176.939, 131.971 173.987, 132.547 171.688 C 133.233 168.948, 134.225 167.388, 135.427 167.156 C 137.693 166.720, 139.090 168.795, 138.394 171.566 C 138.089 172.783, 138.522 174.188, 139.436 174.947 C 140.296 175.661, 141 176.871, 141 177.636 C 141 178.401, 141.412 179.809, 141.917 180.764 C 142.421 181.719, 143.375 183.963, 144.038 185.750 C 144.701 187.537, 145.638 189, 146.121 189 C 146.605 189, 147 189.915, 147 191.033 C 147 193.843, 151.750 202.967, 153.578 203.668 C 155.153 204.273, 158.534 201.739, 160.128 198.761 C 161.107 196.932, 159.959 193.816, 157.342 191.199 C 156.604 190.461, 156 187.817, 156 185.322 C 156 181.749, 155.500 180.395, 153.641 178.932 C 152.019 177.656, 151.082 175.616, 150.641 172.398 C 150.288 169.824, 149.157 165.869, 148.128 163.609 C 144.983 156.706, 143.840 152.148, 144.118 147.626 C 144.430 142.559, 141.692 138.279, 137.405 137.133 C 135.292 136.568, 134.381 135.374, 133.171 131.581 C 132.323 128.924, 130.063 125.006, 128.150 122.875 C 124.949 119.308, 124.267 119.006, 119.586 119.074 C 116.789 119.114, 112.553 119.895, 110.173 120.808 M 114.276 130.092 C 109.097 132.656, 102 139.579, 102 142.068 C 102 143.076, 101.402 144.260, 100.672 144.700 C 98.147 146.220, 93.579 156.720, 92.493 163.500 C 92.140 165.700, 91.226 168.473, 90.461 169.662 C 88.806 172.233, 88.681 179.566, 90.173 186.500 C 91.471 192.530, 95.291 198, 98.205 198 C 100.138 198, 112 187.525, 112 185.818 C 112 185.426, 114.700 180.819, 118 175.581 C 121.300 170.343, 124 165.171, 124 164.088 C 124 163.004, 124.450 161.840, 125 161.500 C 125.550 161.160, 126 160.078, 126 159.096 C 126 158.114, 126.906 156.490, 128.014 155.487 C 129.611 154.042, 129.896 152.924, 129.393 150.082 C 129.043 148.112, 128.362 146.072, 127.879 145.550 C 127.395 145.028, 127 142.720, 127 140.422 C 127 137.929, 126.395 135.743, 125.500 135 C 124.675 134.315, 124 133.167, 124 132.449 C 124 130.821, 121.259 128, 119.679 128.001 C 119.030 128.001, 116.599 128.942, 114.276 130.092" stroke="none" fill="black" fill-rule="evenodd"/>
</svg>