<svg xmlns="http://www.w3.org/2000/svg" width="300" height="300" viewBox="0 0 300 300" version="1.1">
	<path d="M 149.500 131.197 C 136.208 132.930, 134.417 133.020, 113.297 133.001 C 93.653 132.984, 91.797 133.138, 88.047 135.092 C 85.081 136.638, 84 137.824, 84 139.530 C 84 144.097, 89.325 146.723, 92.015 143.482 C 93.070 142.210, 95.319 142.062, 105.887 142.565 C 118.117 143.148, 132.363 143.331, 148.173 143.108 C 154.882 143.014, 156.233 142.675, 158.923 140.411 C 160.685 138.929, 162 136.858, 162 135.566 C 162 133.288, 159.123 129.880, 157.421 130.142 C 156.915 130.220, 153.350 130.695, 149.500 131.197 M 93.942 159.948 C 86.997 162.055, 84.916 165.804, 88.759 169.282 C 90.238 170.620, 91.665 170.729, 97.734 169.967 C 102.236 169.402, 108.440 169.435, 114.226 170.055 C 134.203 172.196, 139.739 172.602, 146 172.385 C 149.575 172.261, 154.621 172.123, 157.214 172.080 C 161.500 172.007, 162.158 171.661, 164.464 168.268 C 165.859 166.215, 167 164.184, 167 163.753 C 167 163.323, 165.537 162.079, 163.750 160.989 C 160.289 158.879, 154.531 158.332, 153.491 160.014 C 153.147 160.572, 150.533 161.022, 147.682 161.015 C 144.832 161.008, 138.450 161.168, 133.500 161.372 C 128.007 161.598, 122.301 161.208, 118.856 160.371 C 112.838 158.909, 98.185 158.661, 93.942 159.948" stroke="none" fill="black" fill-rule="evenodd"/>
</svg>