<svg xmlns="http://www.w3.org/2000/svg" width="300" height="300" viewBox="0 0 300 300" version="1.1">
	<path d="M 113.079 53.405 C 111.823 54.918, 111.302 76.641, 112.309 85.500 C 112.622 88.250, 113.195 93.537, 113.583 97.250 C 114.231 103.441, 114.481 104, 116.609 104 C 120.935 104, 121.309 101.427, 120.527 77.080 C 120.117 64.313, 119.357 53.957, 118.779 53.250 C 117.415 51.585, 114.524 51.664, 113.079 53.405 M 152.467 54.054 C 151.332 55.891, 150.414 82.372, 151.071 94.306 C 151.573 103.408, 151.993 105.437, 153.733 107.177 C 156.115 109.559, 158 108.881, 158 105.641 C 158 104.408, 158.400 102.972, 158.888 102.450 C 159.401 101.902, 159.415 98.117, 158.921 93.500 C 158.092 85.749, 157.981 79.840, 158.333 62 L 158.500 53.500 155.844 53.193 C 154.384 53.024, 152.864 53.411, 152.467 54.054" stroke="none" fill="black" fill-rule="evenodd"/>
</svg>