<svg xmlns="http://www.w3.org/2000/svg" width="300" height="300" viewBox="0 0 300 300" version="1.1">
	<path d="M 100.836 67.255 C 97.317 70.221, 96.562 73.228, 98.334 77.224 C 99.132 79.026, 100.020 81.222, 100.306 82.105 C 100.822 83.699, 107.493 85.431, 109.156 84.403 C 110.347 83.667, 110.210 73.248, 109 72.500 C 108.450 72.160, 108 70.874, 108 69.641 C 108 67.272, 106.307 64.997, 104.550 65.005 C 103.972 65.008, 102.301 66.020, 100.836 67.255 M 123.277 69.345 C 119.505 73.490, 118.666 75.992, 119.932 79.320 C 121.155 82.537, 126.385 85.371, 129.608 84.562 C 132.092 83.939, 132.601 82.089, 132.146 75.330 C 132.029 73.586, 132.398 71.872, 132.967 71.521 C 134.785 70.397, 134.077 68.356, 131.453 67.161 C 127.629 65.418, 126.600 65.693, 123.277 69.345 M 137.139 112.352 C 135.288 114.322, 135.038 115.389, 135.603 118.918 C 136.271 123.097, 135.263 128.096, 132.404 134.784 C 131.632 136.590, 131 138.959, 131 140.047 C 131 141.136, 130.585 142.809, 130.078 143.764 C 129.572 144.719, 127.586 148.899, 125.667 153.054 C 123.747 157.209, 121.462 161.202, 120.588 161.927 C 119.715 162.652, 119 163.784, 119 164.444 C 119 166.463, 110.159 175, 108.068 175 C 106.298 175, 101 169.421, 101 167.557 C 101 166.767, 98.489 160.746, 96.916 157.764 C 96.412 156.809, 96 148.357, 96 138.982 C 96 124.505, 95.766 121.848, 94.449 121.342 C 93.550 120.997, 91.844 121.738, 90.391 123.103 L 87.883 125.458 88.192 143.979 C 88.471 160.762, 88.711 162.941, 90.750 167.195 C 91.987 169.777, 93 172.590, 93 173.445 C 93 174.300, 93.850 175.787, 94.890 176.750 C 95.929 177.713, 98.291 179.914, 100.140 181.642 C 102.806 184.135, 104.533 184.851, 108.500 185.111 C 111.250 185.291, 114.442 184.912, 115.593 184.268 C 120.665 181.432, 131.974 162.677, 135.051 152 C 137.832 142.350, 139.424 144.007, 141.294 158.500 C 142.125 164.943, 142.358 170.198, 141.857 171.184 C 140.633 173.591, 140.798 179.757, 142.108 180.567 C 142.821 181.007, 142.967 182.719, 142.517 185.376 C 142.133 187.644, 141.227 193.775, 140.504 199 C 139.153 208.765, 136.430 216.399, 133.286 219.237 C 132.304 220.124, 128.870 222.232, 125.655 223.921 C 120.792 226.477, 119.112 226.885, 115.655 226.350 C 110.055 225.482, 102.608 221.504, 101.016 218.530 C 98.389 213.621, 95 214.229, 95 219.609 C 95 225.059, 97.432 228.609, 103.124 231.468 C 107.539 233.686, 109.797 234.088, 119.376 234.361 C 129.661 234.654, 130.763 234.501, 133.982 232.339 C 135.897 231.052, 137.990 230, 138.633 230 C 139.874 230, 144 223.663, 144 221.757 C 144 221.137, 144.838 219.700, 145.862 218.564 C 148.607 215.522, 150.029 208.299, 151.088 192.023 C 152.364 172.431, 151.241 155.828, 146.957 130.940 C 146.431 127.882, 146 122.664, 146 119.345 C 146 110.567, 141.874 107.312, 137.139 112.352 M 91 119 C 91 119.550, 91.450 120, 92 120 C 92.550 120, 93 119.550, 93 119 C 93 118.450, 92.550 118, 92 118 C 91.450 118, 91 118.450, 91 119" stroke="none" fill="black" fill-rule="evenodd"/>
</svg>