<svg xmlns="http://www.w3.org/2000/svg" width="300" height="300" viewBox="0 0 300 300" version="1.1">
	<path d="M 152.101 80.094 C 145.663 83.059, 142.661 83.164, 141.624 80.462 C 140.779 78.261, 136.253 78.660, 134.975 81.047 C 134.372 82.173, 133.926 86.111, 133.983 89.797 C 134.255 107.279, 133.092 143.234, 132.052 149.473 C 131.413 153.308, 130.898 159.158, 130.906 162.473 C 130.937 174.220, 130.003 188.126, 129.065 189.878 C 128.543 190.855, 127.824 195.219, 127.469 199.577 C 127.114 203.935, 125.743 211.043, 124.423 215.373 C 123.104 219.704, 122.268 224.221, 122.567 225.412 C 122.866 226.604, 122.606 228.905, 121.990 230.527 C 121.009 233.108, 121.140 233.695, 123.045 235.238 C 128.103 239.334, 133 236.186, 133 228.838 C 133 226.360, 133.295 224.039, 133.655 223.679 C 134.015 223.319, 134.477 219.081, 134.681 214.262 C 134.885 209.443, 135.443 204.333, 135.920 202.906 C 136.397 201.479, 137.617 194.391, 138.630 187.156 C 139.644 179.920, 140.754 174, 141.097 174 C 141.440 174, 143.345 172.898, 145.330 171.551 C 147.314 170.204, 150.559 168.798, 152.541 168.426 C 154.522 168.055, 157.454 166.647, 159.057 165.299 C 160.659 163.950, 163.498 162.425, 165.365 161.910 C 167.232 161.394, 170.451 159.629, 172.517 157.986 C 174.757 156.207, 177.458 155, 179.203 155 C 180.814 155, 182.909 154.584, 183.860 154.075 C 185.885 152.991, 199.605 152.272, 200.534 153.200 C 200.883 153.549, 201.414 155.665, 201.714 157.903 C 202.164 161.257, 201.798 162.576, 199.630 165.419 C 198.183 167.315, 197 169.267, 197 169.756 C 197 172.580, 190.524 183.174, 186.364 187.156 C 183.689 189.717, 179.700 193.959, 177.500 196.582 C 175.300 199.206, 169.102 205.758, 163.727 211.143 C 156.463 218.421, 152.903 221.248, 149.856 222.161 C 146.171 223.265, 145.619 223.199, 144.379 221.503 C 143.620 220.466, 143 218.997, 143 218.239 C 143 217.382, 142.150 216.982, 140.750 217.180 C 138.730 217.467, 138.519 218.011, 138.683 222.495 C 138.837 226.693, 139.358 227.931, 141.949 230.245 C 144.482 232.509, 145.964 232.999, 150.266 232.997 C 154.978 232.995, 155.699 232.693, 157.500 229.977 C 158.600 228.318, 161.335 226.067, 163.579 224.974 C 169.242 222.216, 198 191.738, 198 188.495 C 198 188.093, 199.350 186.226, 201 184.347 C 202.650 182.468, 204 180.062, 204 179 C 204 177.938, 205.350 175.532, 207 173.653 C 208.935 171.449, 210 169.150, 210 167.177 C 210 165.495, 210.416 163.861, 210.925 163.546 C 211.434 163.232, 211.834 160.127, 211.814 156.646 C 211.780 150.864, 211.488 150.010, 208.429 146.768 C 201.689 139.624, 190.112 139.431, 172.193 146.161 C 166.450 148.319, 161.489 149.822, 161.169 149.502 C 160.361 148.695, 163.865 142.174, 167.256 138.172 C 169.980 134.957, 176 123.347, 176 121.308 C 176 120.759, 176.933 119.465, 178.074 118.433 C 179.483 117.158, 179.995 115.753, 179.669 114.051 C 179.404 112.663, 180.040 109.882, 181.095 107.813 C 183.424 103.250, 183.662 92.785, 181.550 87.872 C 180.753 86.017, 178.526 82.813, 176.601 80.750 C 173.157 77.059, 172.986 77.001, 165.801 77.074 C 159.935 77.134, 157.242 77.727, 152.101 80.094 M 163.651 88.136 C 162.634 88.727, 160.572 88.964, 159.069 88.664 C 157.343 88.319, 155.212 88.801, 153.283 89.974 C 151.604 90.995, 149.172 91.981, 147.878 92.165 C 144.876 92.593, 144.207 95.912, 143.478 114 C 143.179 121.425, 142.504 132.675, 141.978 139 C 141.451 145.325, 141.016 151.063, 141.010 151.750 C 140.990 154.247, 144.616 152.919, 146.474 149.750 C 147.521 147.963, 150.279 144.475, 152.602 142 C 159.462 134.689, 168 121.433, 168 118.092 C 168 117.076, 168.675 115.685, 169.500 115 C 170.325 114.315, 171 112.550, 171 111.078 C 171 109.605, 171.563 107.838, 172.250 107.150 C 173.023 106.377, 173.500 103.099, 173.500 98.558 C 173.500 92.742, 173.104 90.777, 171.595 89.108 C 169.521 86.813, 166.552 86.450, 163.651 88.136" stroke="none" fill="black" fill-rule="evenodd"/>
</svg>