<svg xmlns="http://www.w3.org/2000/svg" width="300" height="300" viewBox="0 0 300 300" version="1.1">
	<path d="M 130.755 76.975 C 129.245 77.442, 126.320 79.139, 124.255 80.746 C 122.190 82.353, 119.736 83.944, 118.802 84.282 C 114.557 85.819, 111.742 99.080, 115.187 101.315 C 116.568 102.212, 117.926 101.511, 122.687 97.443 C 130.374 90.874, 132.679 89.815, 138.472 90.187 C 142.694 90.458, 143.562 90.899, 145.012 93.504 C 147.735 98.395, 148.113 105.677, 145.999 112.500 C 144.976 115.800, 143.557 120.525, 142.845 123 C 141.323 128.287, 137.823 133.806, 129.730 143.681 C 124.531 150.025, 123.182 151.068, 118.172 152.624 C 111.501 154.696, 106.351 159.612, 105.369 164.847 C 104.528 169.330, 105.813 171.276, 110.380 172.434 C 113.939 173.337, 114.242 173.194, 119.282 168.240 C 122.152 165.420, 125.625 162.613, 127 162.004 C 128.375 161.395, 130.671 160.252, 132.103 159.464 C 136.590 156.996, 149.074 155.619, 154.638 156.978 C 157.312 157.632, 161.075 158.406, 163 158.698 C 164.925 158.990, 167.287 159.922, 168.250 160.769 C 170.691 162.919, 170.562 170.934, 168 176.236 C 166.900 178.513, 166 180.766, 166 181.243 C 166 183.190, 157.500 194.438, 152.722 198.814 C 149.907 201.391, 146.456 204.633, 145.052 206.018 C 141.226 209.793, 135.358 213.648, 125.109 219.121 C 120.932 221.352, 118.399 222, 113.859 222 C 108.366 222, 108 222.148, 108 224.364 C 108 228.207, 112.322 231.652, 118.106 232.420 C 122.873 233.052, 123.583 232.842, 129.347 229.101 C 132.731 226.904, 138.360 223.725, 141.856 222.037 C 146.556 219.767, 150.659 216.479, 157.606 209.418 C 162.773 204.167, 167 199.413, 167 198.853 C 167 198.294, 168.575 195.915, 170.500 193.565 C 172.425 191.216, 174 188.926, 174 188.476 C 174 188.026, 174.628 186.947, 175.397 186.079 C 176.165 185.210, 177.781 180.948, 178.989 176.608 C 181.686 166.911, 181.148 161.920, 176.693 155.336 C 173.816 151.086, 172.929 150.490, 167.741 149.330 C 164.574 148.622, 160.600 147.328, 158.911 146.454 C 156.863 145.395, 153.781 144.949, 149.670 145.117 C 142.593 145.406, 141.449 144.036, 144.770 139.256 C 146.676 136.513, 150.748 128.766, 152.790 124 C 155.306 118.125, 155.981 113.847, 156.112 102.943 C 156.263 90.378, 155.064 86.131, 150.740 83.907 C 149.508 83.274, 147.375 81.738, 146 80.494 C 144.625 79.250, 142.150 77.997, 140.500 77.710 C 138.850 77.422, 136.600 76.948, 135.500 76.657 C 134.400 76.365, 132.265 76.509, 130.755 76.975" stroke="none" fill="black" fill-rule="evenodd"/>
</svg>