<svg xmlns="http://www.w3.org/2000/svg" width="300" height="300" viewBox="0 0 300 300" version="1.1">
	<path d="M 108.672 92.057 C 107.461 93.787, 107.319 99.323, 107.779 126.807 C 108.405 164.171, 108.435 186.154, 107.884 203.837 C 107.511 215.818, 107.568 216.230, 109.861 218.087 C 112.825 220.489, 115.222 220.517, 117.340 218.176 C 118.565 216.824, 119.216 213.146, 119.866 203.926 C 120.626 193.139, 121.152 190.635, 123.853 184.941 C 125.564 181.334, 128.097 177.318, 129.482 176.017 C 130.867 174.716, 132 172.900, 132 171.981 C 132 170.176, 135.001 167, 136.706 167 C 137.283 167, 138.315 166.325, 139 165.500 C 140.791 163.342, 143 163.654, 143 166.066 C 143 167.202, 143.537 169.114, 144.193 170.316 C 145.261 172.272, 147.091 180.937, 146.978 183.500 C 145.949 206.738, 146.132 213.141, 147.946 217.374 C 149.078 220.016, 151.079 222.524, 152.920 223.612 C 154.614 224.612, 156 225.784, 156 226.216 C 156 226.647, 157.288 227, 158.861 227 C 162.408 227, 171.365 219.114, 170.842 216.452 C 170.167 213.019, 167.348 212.367, 163.973 214.862 C 162.262 216.127, 160.264 216.932, 159.533 216.651 C 157.725 215.957, 156.999 208.799, 156.621 187.935 C 156.378 174.553, 155.871 168.956, 154.493 164.435 C 152.514 157.946, 149.637 154, 146.885 154 C 145.913 154, 144.815 153.510, 144.444 152.910 C 142.072 149.071, 127.486 158.764, 122.769 167.315 C 121.500 169.617, 119.795 171.500, 118.980 171.500 C 117.700 171.500, 117.531 167.252, 117.729 140 C 117.855 122.675, 117.977 105.517, 118 101.870 C 118.057 92.849, 116.877 90, 113.081 90 C 111.220 90, 109.576 90.767, 108.672 92.057" stroke="none" fill="black" fill-rule="evenodd"/>
</svg>