<svg xmlns="http://www.w3.org/2000/svg" width="300" height="300" viewBox="0 0 300 300" version="1.1">
	<path d="M 160.805 113.725 C 152.914 114.556, 140.395 130.847, 138.501 142.750 C 138.084 145.365, 137.294 147, 136.447 147 C 134.673 147, 133 143.853, 133 140.516 C 133 134.772, 127.226 126.806, 118.943 121.121 C 113.434 117.341, 112.501 117.032, 107.631 117.379 C 104.712 117.587, 101.238 118.313, 99.912 118.994 C 96.137 120.930, 90.552 127.418, 88.568 132.172 C 87.574 134.552, 86.366 137.400, 85.883 138.500 C 85.400 139.600, 84.891 141.625, 84.752 143 C 84.517 145.333, 84.800 145.500, 88.986 145.500 C 92.689 145.500, 93.534 145.150, 93.825 143.500 C 94.498 139.675, 99.282 130.924, 101.768 128.968 C 105.109 126.340, 109.056 126.488, 114.925 129.462 C 118.819 131.435, 120.301 132.963, 122.392 137.158 C 123.826 140.037, 125 142.964, 125 143.661 C 125 144.359, 125.627 146.858, 126.394 149.215 C 127.160 151.572, 128.074 155.851, 128.425 158.724 L 129.062 163.947 125.409 165.474 C 123.400 166.313, 120.658 167, 119.316 167 C 116.358 167, 107.560 169.559, 103.669 171.551 C 102.112 172.348, 100.169 173, 99.352 173 C 93.859 173, 84.375 187.725, 85.259 194.882 C 85.504 196.872, 85.309 199.575, 84.824 200.890 C 84.189 202.612, 84.370 203.752, 85.472 204.969 C 86.312 205.897, 87 207.416, 87 208.342 C 87 209.269, 87.520 211.034, 88.155 212.264 C 88.791 213.494, 89.607 215.175, 89.969 216 C 91.213 218.832, 100.150 222.282, 107.500 222.767 C 116.683 223.373, 123.704 221.272, 129.938 216.052 C 133.880 212.751, 134.830 211.303, 135.287 207.898 C 135.592 205.621, 136.252 203.348, 136.754 202.846 C 138.414 201.186, 141 203.097, 141 205.985 C 141 207.508, 141.675 209.315, 142.500 210 C 143.325 210.685, 144 212.292, 144 213.572 C 144 218.452, 155.941 224.847, 168.271 226.570 L 177.043 227.795 186.771 224.065 C 192.122 222.014, 198.250 219.135, 200.390 217.668 C 202.529 216.200, 204.564 215, 204.912 215 C 205.987 215, 223.452 194.885, 224.292 192.679 C 224.727 191.535, 227.571 186.900, 230.611 182.378 C 234.981 175.877, 236.072 173.480, 235.819 170.929 C 235.364 166.329, 233.047 165.195, 227.834 167.022 C 224.190 168.298, 223.402 169.114, 222.057 173 C 219.278 181.029, 211.124 192.884, 201.597 202.748 C 196.847 207.666, 193.972 209.658, 188.092 212.105 C 179.428 215.712, 166.800 217.152, 162.207 215.057 C 153.533 211.100, 152.507 210.254, 151.899 206.552 C 151.568 204.540, 150.419 201.680, 149.344 200.197 C 143.343 191.911, 139.982 177.919, 143.327 175.144 C 144.172 174.442, 147.783 173.455, 151.350 172.950 C 154.918 172.445, 159.112 171.480, 160.669 170.806 C 166.552 168.261, 179.737 158.811, 185.843 152.762 C 191.135 147.521, 192.582 145.319, 194.568 139.489 C 197.968 129.506, 197.717 126.479, 193.002 120.648 C 188.702 115.328, 174.527 112.281, 160.805 113.725 M 165.838 124.160 C 160.933 125.495, 154.970 130.821, 152.413 136.151 C 148.587 144.123, 145.978 152.763, 145.664 158.500 C 145.504 161.431, 145.606 161.499, 150.121 161.445 C 159.210 161.338, 172.725 152.462, 181.426 140.886 C 185.994 134.810, 186.900 131.551, 185.008 128.014 C 183.223 124.680, 172.126 122.449, 165.838 124.160 M 125.746 176.587 C 125.423 176.910, 122.263 177.533, 118.722 177.972 C 111.599 178.856, 106.976 180.727, 102.594 184.499 C 100.996 185.874, 99.345 187, 98.925 187 C 98.505 187, 97.402 189.284, 96.475 192.076 C 93.903 199.819, 95.092 206.995, 99.601 210.955 C 103.462 214.345, 106.025 214.630, 115 212.671 C 122.408 211.053, 123.404 210.308, 125.911 204.500 C 127.099 201.750, 128.504 198.719, 129.035 197.764 C 129.566 196.809, 130 191.794, 130 186.621 C 130 178.965, 129.705 177.101, 128.418 176.607 C 126.479 175.863, 126.470 175.863, 125.746 176.587" stroke="none" fill="black" fill-rule="evenodd"/>
</svg>