<svg xmlns="http://www.w3.org/2000/svg" width="300" height="300" viewBox="0 0 300 300" version="1.1">
	<path d="M 89.241 65.986 C 88.558 67.079, 88 68.737, 88 69.671 C 88 71.384, 90.905 78.388, 93.528 83 C 95.799 86.994, 98.591 93.176, 100.075 97.500 C 100.830 99.700, 102.472 102.772, 103.724 104.327 C 104.976 105.881, 106 107.914, 106 108.845 C 106 109.775, 107.082 112.127, 108.404 114.073 C 109.726 116.018, 111.915 119.835, 113.269 122.555 C 114.623 125.275, 117.366 130.570, 119.365 134.323 C 121.364 138.075, 123 141.590, 123 142.134 C 123 142.678, 124.523 146.358, 126.385 150.312 C 128.247 154.265, 131.021 161.065, 132.549 165.422 C 134.078 169.780, 136.830 176.429, 138.664 180.199 C 140.499 183.969, 142 187.497, 142 188.040 C 142 188.583, 142.390 189.809, 142.867 190.764 C 148.663 202.374, 152 210.025, 152 211.704 C 152 212.832, 152.675 214.315, 153.500 215 C 154.325 215.685, 155 217.333, 155 218.662 C 155 219.992, 155.900 222.844, 157 225 C 158.100 227.156, 159 230.262, 159 231.901 C 159 233.541, 159.457 235.164, 160.015 235.509 C 160.573 235.854, 161.698 237.568, 162.513 239.318 C 163.329 241.068, 164.864 243.850, 165.925 245.500 C 166.986 247.150, 167.887 249.091, 167.927 249.813 C 167.967 250.535, 169.087 253.460, 170.415 256.313 C 171.743 259.166, 173.796 263.612, 174.977 266.194 C 177.798 272.361, 180.733 276, 182.885 276 C 183.843 276, 185.861 274.711, 187.370 273.135 L 190.115 270.271 187.178 265.885 C 184.598 262.034, 182.522 257.948, 178.979 249.753 C 178.443 248.514, 177.626 246.825, 177.164 246 C 171.776 236.389, 168.577 229.284, 167.032 223.500 C 166.297 220.750, 165.127 217.825, 164.433 217 C 163.738 216.175, 162.859 213.829, 162.480 211.786 C 162.101 209.743, 161.163 207.550, 160.395 206.913 C 159.628 206.276, 159 204.904, 159 203.864 C 159 202.824, 158.577 201.191, 158.060 200.236 C 155.163 194.882, 150.422 184.591, 147.826 178.020 C 146.192 173.884, 143.762 168.531, 142.427 166.124 C 141.092 163.717, 140 160.706, 140 159.433 C 140 158.160, 139.550 156.840, 139 156.500 C 138.450 156.160, 138 154.736, 138 153.335 C 138 151.935, 136.875 149.452, 135.500 147.818 C 134.125 146.184, 133 144.082, 133 143.148 C 133 142.213, 130.750 137.016, 128 131.599 C 125.250 126.182, 123 120.984, 123 120.049 C 123 119.114, 121.875 117.292, 120.500 116 C 119.125 114.708, 118 113.110, 118 112.447 C 118 111.785, 115.914 107.476, 113.365 102.872 C 107.428 92.149, 102 80.254, 102 77.967 C 102 74.755, 96.706 65.839, 94.242 64.902 C 90.971 63.658, 90.651 63.728, 89.241 65.986" stroke="none" fill="black" fill-rule="evenodd"/>
</svg>