<svg xmlns="http://www.w3.org/2000/svg" width="300" height="300" viewBox="0 0 300 300" version="1.1">
	<path d="M 176.500 79.706 C 173.200 79.886, 169.600 80.439, 168.500 80.934 C 164.104 82.914, 159.494 84, 155.487 84 C 153.169 84, 148.849 84.504, 145.886 85.120 C 142.924 85.736, 137.715 86.159, 134.311 86.058 C 130.908 85.958, 125.283 86.535, 121.811 87.341 C 100.361 92.321, 96.120 93.463, 92.701 95.181 C 90.612 96.231, 88.541 98.066, 88.100 99.258 C 86.108 104.644, 90.259 107.242, 97.440 105.102 C 99.673 104.437, 103.975 103.275, 107 102.521 C 110.025 101.766, 114.975 100.484, 118 99.672 C 121.025 98.859, 126.582 97.974, 130.350 97.705 L 137.200 97.214 136.622 109.357 C 135.345 136.182, 134.944 140.436, 133.480 142.671 C 132.666 143.913, 131.997 146.633, 131.994 148.715 C 131.989 152.569, 130.622 158.891, 129.015 162.500 C 128.525 163.600, 127.914 166.075, 127.658 168 C 127.402 169.925, 126.439 175.100, 125.518 179.500 C 124.597 183.900, 123.466 190.200, 123.003 193.500 C 122.541 196.800, 121.661 201.075, 121.049 203 C 120.437 204.925, 119.886 209.100, 119.826 212.279 C 119.765 215.457, 119.330 218.296, 118.858 218.588 C 118.386 218.879, 118 221.629, 118 224.699 C 118 228.841, 118.451 230.622, 119.750 231.608 C 124.736 235.393, 127.866 231.830, 128.339 221.832 C 128.535 217.691, 128.973 213.853, 129.312 213.305 C 129.651 212.756, 130.171 209.650, 130.468 206.404 C 131.241 197.939, 135.877 174.480, 139.538 160.500 C 142.768 148.166, 143.107 146.226, 144.076 134.500 C 145.437 118.026, 145.408 118.258, 146.250 117.416 C 146.662 117.004, 147 112.761, 147 107.988 C 147 97.954, 148.200 96, 154.364 96 C 156.402 96, 159.095 95.329, 160.347 94.508 C 162.251 93.261, 164.255 93.177, 172.562 93.995 L 182.500 94.975 185.250 91.775 C 188.513 87.979, 188.803 83.803, 186 81 C 184.900 79.900, 183.662 79.085, 183.250 79.189 C 182.838 79.293, 179.800 79.526, 176.500 79.706" stroke="none" fill="black" fill-rule="evenodd"/>
</svg>