<svg xmlns="http://www.w3.org/2000/svg" width="300" height="300" viewBox="0 0 300 300" version="1.1">
	<path d="M 124.147 19.750 C 122.227 23.390, 115.676 35.582, 114.611 37.500 C 114 38.600, 110.912 42.983, 107.750 47.240 C 104.588 51.498, 102 55.410, 102 55.934 C 102 56.458, 100.726 57.640, 99.168 58.560 C 94.711 61.193, 93.561 63.681, 95.463 66.583 C 97.623 69.881, 100.496 69.616, 104.500 65.750 C 106.350 63.962, 108.591 61.825, 109.478 61 C 112.423 58.263, 120.287 46.872, 123.533 40.641 C 125.293 37.263, 127.360 34.375, 128.127 34.223 C 128.894 34.070, 131.206 36.320, 133.266 39.223 C 135.326 42.125, 138.135 46.075, 139.508 48 C 140.882 49.925, 142.274 52.259, 142.603 53.187 C 142.931 54.115, 144.508 55.330, 146.106 55.887 C 147.704 56.444, 149.478 57.935, 150.049 59.200 C 153.471 66.789, 155.530 68.509, 159.421 67.030 C 160.839 66.491, 162 65.881, 162 65.674 C 162 64.014, 159.232 57.922, 157.334 55.406 C 156.050 53.704, 155 51.651, 155 50.844 C 155 50.037, 153.718 48.429, 152.152 47.270 C 150.585 46.112, 147.568 42.540, 145.445 39.332 C 143.323 36.125, 140.555 32.680, 139.294 31.677 C 138.032 30.675, 137 29.202, 137 28.405 C 137 26.230, 129.017 18, 126.908 18 C 125.897 18, 124.655 18.788, 124.147 19.750 M 136.500 96.180 C 131.550 96.654, 122.707 97.196, 116.848 97.384 C 107.802 97.673, 105.728 98.057, 103.098 99.930 C 99.415 102.552, 99.356 102.932, 102.161 105.943 C 104.128 108.054, 104.923 108.213, 110.990 107.704 C 115.263 107.346, 118.523 107.577, 120.067 108.346 L 122.477 109.548 122.139 128.302 C 121.900 141.586, 122.142 147.467, 122.970 148.464 C 123.817 149.485, 123.845 150.422, 123.069 151.871 C 122.379 153.161, 122.326 154.727, 122.921 156.291 C 123.427 157.623, 123.890 166.266, 123.949 175.497 C 124.008 184.729, 124.305 192.684, 124.608 193.176 C 125.455 194.546, 125.946 204.563, 126.236 226.389 L 126.500 246.278 115.169 246.389 C 105.182 246.487, 103.670 246.730, 102.419 248.441 C 98.483 253.825, 101.563 255.693, 114.539 255.793 C 124.147 255.867, 125.370 256.083, 126.669 257.938 C 128.402 260.412, 130.246 260.540, 133.494 258.412 C 137.006 256.111, 151.567 255.750, 155.274 257.872 C 158.642 259.799, 160.569 258.859, 163.312 253.950 L 165.201 250.568 162.045 247.749 C 158.978 245.009, 158.613 244.938, 148.986 245.206 C 143.019 245.372, 138.663 245.063, 138.030 244.430 C 137.029 243.429, 135.091 222.210, 134.338 204 C 133.297 178.859, 133.105 172.802, 132.745 154 C 132.529 142.725, 132.751 132.690, 133.238 131.701 C 133.768 130.624, 133.717 128.617, 133.112 126.701 C 132.356 124.306, 132.539 121.360, 133.842 115 L 135.583 106.500 142.541 105.761 C 153.640 104.581, 154 104.422, 154 100.681 C 154 94.717, 153.392 94.560, 136.500 96.180" stroke="none" fill="black" fill-rule="evenodd"/>
</svg>