<svg xmlns="http://www.w3.org/2000/svg" width="300" height="300" viewBox="0 0 300 300" version="1.1">
	<path d="M 119.500 85.889 C 106.720 89.135, 98.237 91, 96.246 91 C 95.164 91, 92.724 92.056, 90.823 93.346 C 88.921 94.636, 86.249 95.972, 84.884 96.314 C 83.520 96.657, 80.754 98.189, 78.738 99.718 C 74.395 103.014, 73.821 106.824, 77.195 109.967 C 79.791 112.386, 80.246 112.280, 92.693 106.367 C 99.739 103.020, 103.052 102, 106.884 102 C 109.633 102, 112.179 101.519, 112.542 100.932 C 112.905 100.344, 113.850 100.112, 114.641 100.416 C 115.432 100.719, 116.849 100.557, 117.790 100.055 C 124.345 96.560, 129.289 94.936, 132.757 95.141 C 136.138 95.340, 137.234 94.832, 140.526 91.541 L 144.358 87.708 142.068 85.854 C 139.075 83.430, 129.117 83.445, 119.500 85.889 M 107.310 136.250 C 105.496 138.253, 101.591 145.919, 98.014 154.500 C 95.260 161.107, 94.778 163.042, 92.036 178.500 C 91.451 181.800, 90.575 185.400, 90.091 186.500 C 89.278 188.345, 87.760 195.225, 86.560 202.500 C 86.288 204.150, 85.328 208.875, 84.427 213 C 83.525 217.125, 82.571 222.975, 82.306 226 C 82.041 229.025, 81.414 231.928, 80.912 232.450 C 80.410 232.973, 80 234.570, 80 236 C 80 237.430, 79.444 239.156, 78.765 239.835 C 77.460 241.140, 75.843 254.826, 75.628 266.386 C 75.525 271.946, 75.837 273.485, 77.250 274.381 C 79.491 275.801, 81.995 274.346, 83.862 270.537 C 84.612 269.009, 85.641 262.551, 86.150 256.187 C 86.658 249.823, 87.558 244.033, 88.149 243.321 C 88.740 242.609, 88.979 241.008, 88.679 239.763 C 88.380 238.518, 88.801 235.700, 89.615 233.500 C 91.244 229.099, 92.126 224.700, 94.525 209.019 C 95.407 203.255, 96.662 198.199, 97.314 197.785 C 97.966 197.370, 99.850 197.021, 101.500 197.009 C 103.150 196.997, 105.780 196.143, 107.344 195.112 C 108.908 194.080, 111.008 193.451, 112.011 193.713 C 113.013 193.975, 116.488 193.247, 119.733 192.095 C 126.017 189.864, 132.481 189.351, 133.502 191.003 C 133.843 191.554, 134.510 194.142, 134.986 196.753 C 135.461 199.364, 136.508 204.425, 137.313 208 C 138.117 211.575, 139.262 217.425, 139.857 221 C 140.451 224.575, 141.645 230.425, 142.510 234 C 143.375 237.575, 144.322 242.525, 144.614 245 C 144.907 247.475, 145.542 250.400, 146.025 251.500 C 146.508 252.600, 147.156 255.975, 147.465 259 C 147.773 262.025, 148.358 267.779, 148.764 271.787 C 149.508 279.128, 150.580 280.952, 154.172 280.985 C 155.180 280.994, 156.271 279.707, 156.916 277.750 C 158.357 273.379, 157.468 254.555, 155.581 249.500 C 154.760 247.300, 154.068 244.509, 154.044 243.299 C 154.020 242.088, 153.278 238.488, 152.397 235.299 C 149.699 225.542, 147.035 212.673, 147.017 209.309 C 147.008 207.554, 146.626 205.887, 146.169 205.604 C 145.712 205.322, 144.777 201.808, 144.092 197.795 C 143.407 193.783, 142.396 188.700, 141.844 186.500 C 141.293 184.300, 140.461 180.700, 139.996 178.500 C 137.973 168.926, 134.781 160.206, 130.845 153.500 C 129.877 151.850, 128.318 148.994, 127.382 147.154 C 125.196 142.855, 114.587 134, 111.622 134 C 110.372 134, 108.431 135.012, 107.310 136.250 M 109.071 152.250 C 107.483 155.688, 105.437 161.650, 104.525 165.500 C 103.612 169.350, 102.445 174.127, 101.933 176.116 C 101.420 178.105, 101 181.200, 101 182.995 L 101 186.258 106.980 185.582 C 110.269 185.210, 114.901 184.047, 117.273 182.998 C 119.644 181.948, 123.490 180.785, 125.818 180.413 C 129.136 179.883, 129.938 179.380, 129.529 178.091 C 129.241 177.185, 128.341 173.982, 127.528 170.972 C 126.715 167.963, 125.732 164.375, 125.343 163 C 124.955 161.625, 123.143 158.421, 121.318 155.881 C 119.493 153.340, 118 150.822, 118 150.286 C 118 148.972, 114.637 146, 113.150 146 C 112.494 146, 110.658 148.813, 109.071 152.250" stroke="none" fill="black" fill-rule="evenodd"/>
</svg>