<svg xmlns="http://www.w3.org/2000/svg" width="300" height="300" viewBox="0 0 300 300" version="1.1">
	<path d="M 88.388 62.953 C 78.529 70.441, 73 75.426, 72.390 77.376 C 72.025 78.544, 70.360 81.494, 68.690 83.931 C 65.747 88.227, 65.652 88.724, 65.577 100.115 C 65.500 111.850, 65.505 111.873, 68.500 115.026 C 70.150 116.762, 73.197 119.056, 75.272 120.123 C 82.259 123.717, 93.658 120.436, 104.139 111.816 C 106.690 109.717, 109.193 108, 109.702 108 C 111.185 108, 115.772 102.684, 116.164 100.511 C 116.743 97.302, 119.696 97.512, 121.442 100.888 C 122.299 102.545, 123 104.781, 123 105.856 C 123 111.671, 131.577 121.382, 134.882 119.308 C 137.355 117.756, 138.661 113.231, 137.222 111.197 C 134.228 106.966, 132 101.837, 132 99.175 C 132 97.577, 131.213 95.193, 130.250 93.878 C 127.454 90.056, 126.306 87.670, 125.502 84.008 C 124.286 78.474, 112.215 63.033, 109.054 62.968 C 108.199 62.951, 106.626 62.276, 105.559 61.468 C 104.382 60.578, 101.385 60, 97.946 60 C 93.209 60, 91.635 60.486, 88.388 62.953 M 91.832 73.258 C 85.876 76.665, 83.448 78.870, 78.241 85.601 C 75.241 89.479, 75.053 90.231, 74.786 99.439 C 74.509 109.005, 74.554 109.219, 77.290 111.573 C 79.424 113.408, 80.477 113.733, 81.788 112.961 C 82.730 112.406, 85.787 111.175, 88.583 110.226 C 94.422 108.243, 97.524 105.053, 110.448 87.741 C 115.218 81.352, 115.099 78.442, 109.891 74.117 C 104.045 69.262, 99.220 69.033, 91.832 73.258 M 111 136.164 C 109.075 136.654, 102.775 137.059, 97 137.064 C 85.364 137.074, 76.173 138.778, 74.640 141.209 C 73.917 142.356, 74.124 143.541, 75.386 145.467 L 77.135 148.136 93.318 147.607 C 102.218 147.317, 111.750 146.942, 114.500 146.775 C 117.250 146.607, 122.200 146.829, 125.500 147.268 C 132.486 148.196, 134.783 147.790, 137.916 145.073 L 140.201 143.091 138.034 140.048 C 136.842 138.374, 134.885 136.807, 133.684 136.566 C 128.819 135.587, 114.277 135.330, 111 136.164" stroke="none" fill="black" fill-rule="evenodd"/>
</svg>