<svg xmlns="http://www.w3.org/2000/svg" width="300" height="300" viewBox="0 0 300 300" version="1.1">
	<path d="M 181.174 76.314 C 179.727 77.855, 178.985 79.944, 178.956 82.564 C 178.932 84.729, 178.464 88.525, 177.915 91 C 177.367 93.475, 176.090 99.775, 175.079 105 C 172.694 117.324, 167.417 136.135, 163.439 146.500 C 162.173 149.800, 160.846 154.075, 160.492 156 C 160.137 157.925, 159.237 161.300, 158.492 163.500 C 157.746 165.700, 156.336 170.190, 155.359 173.479 C 154.382 176.767, 151.764 183.067, 149.541 187.479 C 145.568 195.366, 142.857 197.592, 142.212 193.500 C 142.039 192.400, 141.489 190.600, 140.990 189.500 C 140.491 188.400, 139.861 184.800, 139.588 181.500 C 139.316 178.200, 138.675 172.575, 138.163 169 C 137.651 165.425, 136.718 158.500, 136.090 153.612 C 135.461 148.723, 134.725 144.364, 134.454 143.926 C 133.716 142.731, 131.793 128.940, 131.885 125.500 C 131.930 123.850, 131.302 118.365, 130.491 113.311 C 129.680 108.257, 129.288 103.414, 129.620 102.548 C 129.952 101.683, 129.767 100.418, 129.210 99.737 C 128.652 99.057, 127.684 96.588, 127.059 94.250 C 126.156 90.870, 125.470 90.001, 123.711 90.006 C 120.845 90.015, 117.878 95.074, 118.569 98.778 C 118.848 100.275, 119.490 105.100, 119.995 109.500 C 121.572 123.241, 123.865 138.973, 124.423 139.875 C 124.716 140.350, 125.634 146.850, 126.462 154.321 C 127.290 161.791, 128.414 169.837, 128.960 172.201 C 129.505 174.566, 129.962 178.667, 129.976 181.316 C 129.989 183.964, 130.431 186.937, 130.958 187.921 C 131.484 188.905, 132.400 192.813, 132.993 196.605 C 134.466 206.029, 137.600 213.333, 141.045 215.367 C 143.541 216.842, 144.001 216.856, 145.354 215.503 C 146.187 214.670, 147.154 213.091, 147.502 211.994 C 147.850 210.897, 148.554 210, 149.067 210 C 149.580 210, 150 209.188, 150 208.196 C 150 207.203, 151.342 204.275, 152.983 201.688 C 154.623 199.101, 156.247 195.863, 156.591 194.492 C 156.935 193.122, 157.566 192, 157.992 192 C 158.418 192, 159.006 191.213, 159.299 190.250 C 159.592 189.287, 160.769 186.031, 161.916 183.014 C 163.062 179.997, 164 176.728, 164 175.751 C 164 174.773, 164.450 173.079, 165 171.986 C 165.550 170.894, 166.450 169.106, 167 168.014 C 167.550 166.921, 168.019 165.009, 168.042 163.764 C 168.066 162.519, 169.222 158.350, 170.612 154.500 C 173.129 147.527, 176.365 136.105, 177.979 128.500 C 178.446 126.300, 179.750 121.800, 180.876 118.500 C 182.003 115.200, 183.686 108.900, 184.616 104.500 C 185.546 100.100, 186.688 96.072, 187.154 95.550 C 187.619 95.027, 188 92.467, 188 89.859 C 188 87.251, 188.450 84.840, 189 84.500 C 190.958 83.290, 190.125 77.201, 187.777 75.557 C 184.793 73.466, 183.736 73.587, 181.174 76.314" stroke="none" fill="black" fill-rule="evenodd"/>
</svg>