<svg xmlns="http://www.w3.org/2000/svg" width="300" height="300" viewBox="0 0 300 300" version="1.1">
	<path d="M 129.750 111.131 C 125.081 114.944, 124.969 117.608, 129.298 121.804 C 132.057 124.478, 133.363 125, 137.298 125 C 139.884 125, 142.037 124.662, 142.083 124.250 C 142.322 122.104, 142.912 119.257, 143.530 117.268 C 144.082 115.491, 143.727 114.847, 141.787 114.109 C 140.446 113.599, 138.586 112.016, 137.652 110.591 C 135.489 107.290, 134.357 107.367, 129.750 111.131 M 132.750 150.572 C 131.238 151.393, 130 152.434, 130 152.886 C 130 153.338, 128.875 154.922, 127.500 156.405 C 126.125 157.889, 125 159.685, 125 160.397 C 125 161.108, 124.033 162.547, 122.852 163.595 C 121.002 165.236, 116.596 170.874, 107.297 183.500 C 101.067 191.959, 98.475 200.806, 98.655 213 C 98.789 222.072, 99.136 224.071, 101.206 227.699 C 103.714 232.094, 109.074 237.163, 117.504 243.112 C 121.935 246.239, 123.193 246.635, 128.504 246.571 L 134.500 246.500 134.500 241 L 134.500 235.500 127.500 235.458 C 119.104 235.409, 116.260 234.054, 111.904 228.032 C 109.145 224.219, 108.603 222.495, 108.204 216.272 C 107.740 209.039, 108.527 205.468, 112.594 196.349 C 113.367 194.616, 114 192.656, 114 191.993 C 114 191.331, 115.144 189.374, 116.542 187.644 C 117.941 185.915, 120.078 183.251, 121.292 181.725 C 122.507 180.199, 125.975 176.053, 129 172.512 C 141.765 157.570, 142.747 155.489, 138.948 151.445 C 136.284 148.609, 136.351 148.618, 132.750 150.572" stroke="none" fill="black" fill-rule="evenodd"/>
</svg>