<svg xmlns="http://www.w3.org/2000/svg" width="300" height="300" viewBox="0 0 300 300" version="1.1">
	<path d="M 121.968 76.286 C 117.068 80.569, 115.053 88.175, 114.757 103.500 C 114.462 118.757, 115.495 134.294, 117.315 142 C 118.159 145.575, 119.074 151.068, 119.348 154.206 C 119.622 157.345, 120.637 163.165, 121.603 167.140 L 123.360 174.368 118.430 183.846 C 113.501 193.323, 111.062 197.394, 103.772 208.320 C 99.524 214.687, 97.889 222.055, 99.893 225.800 C 102.539 230.744, 115.738 233.171, 122.182 229.898 C 124.207 228.870, 126.146 227.572, 126.491 227.014 C 126.836 226.456, 127.913 226, 128.885 226 C 129.856 226, 131.708 224.875, 133 223.500 C 134.292 222.125, 135.872 221, 136.511 221 C 137.150 221, 138.497 224.607, 139.504 229.016 C 140.511 233.425, 141.934 237.531, 142.667 238.139 C 143.400 238.747, 144 240.114, 144 241.176 C 144 242.238, 146.137 246.281, 148.750 250.161 C 151.363 254.040, 154.329 258.516, 155.342 260.107 C 157.587 263.633, 160.416 263.820, 162.538 260.583 C 164.837 257.074, 163.069 251.633, 157.519 245.130 C 155.033 242.219, 153 239.259, 153 238.553 C 153 237.847, 152.185 236.197, 151.189 234.885 C 149.245 232.325, 147.513 227.071, 146.075 219.374 C 144.968 213.444, 146.545 210.002, 154.035 202 C 159.767 195.876, 161.416 193.145, 162.489 188 C 162.891 186.075, 164.295 183.068, 165.610 181.317 C 166.924 179.566, 168 177.427, 168 176.563 C 168 175.699, 168.900 173.314, 170 171.261 C 172.628 166.359, 172.871 153.014, 170.379 150.521 C 167.607 147.750, 165.651 149.031, 165.407 153.777 C 165.181 158.164, 159.485 174.065, 155.332 181.899 C 154.049 184.318, 152.997 186.793, 152.993 187.399 C 152.978 189.616, 143.832 200, 141.894 200 C 139.642 200, 138.858 198.245, 136.026 186.867 C 133.435 176.454, 133.476 175.052, 136.500 170.595 C 137.875 168.569, 139 166.047, 139 164.991 C 139 163.935, 139.900 162.589, 141 162 C 142.272 161.320, 143 159.906, 143 158.120 C 143 156.574, 143.847 154.543, 144.883 153.606 C 146.636 152.020, 147.592 149.824, 151.024 139.500 C 153.268 132.751, 154.188 126.899, 154.528 117.213 C 154.842 108.281, 154.719 107.650, 151.297 100.713 C 149.340 96.746, 146.673 92.228, 145.369 90.673 C 144.066 89.119, 143 87.294, 143 86.619 C 143 83.746, 130.272 73.974, 126.610 74.036 C 125.450 74.056, 123.360 75.068, 121.968 76.286 M 127.817 85.750 C 125.377 88.612, 123.646 98.795, 123.687 110.056 C 123.752 127.990, 128.302 161, 130.710 161 C 131.419 161, 132 160.349, 132 159.553 C 132 158.757, 133.125 155.990, 134.500 153.404 C 135.875 150.818, 137 148.336, 137 147.889 C 137 147.442, 138.551 143.797, 140.448 139.788 C 144.160 131.940, 145.980 123.218, 145.992 113.217 C 145.998 108.414, 145.381 105.704, 143.373 101.717 C 141.928 98.848, 140.128 96.140, 139.373 95.700 C 138.618 95.260, 138 94.407, 138 93.803 C 138 92.461, 131.172 84, 130.088 84 C 129.660 84, 128.638 84.787, 127.817 85.750 M 122.514 196.106 C 120.493 200.072, 117.442 205.057, 115.732 207.183 C 110.824 213.291, 107.822 222.334, 110.377 223.315 C 114.604 224.936, 128.725 217.401, 132.632 211.440 C 134.253 208.965, 134.224 208.648, 131.979 204.176 C 130.688 201.604, 129.377 197.286, 129.066 194.579 C 128.755 191.873, 127.980 189.487, 127.344 189.277 C 126.709 189.068, 124.535 192.141, 122.514 196.106" stroke="none" fill="black" fill-rule="evenodd"/>
</svg>