<svg xmlns="http://www.w3.org/2000/svg" width="300" height="300" viewBox="0 0 300 300" version="1.1">
	<path d="M 111.654 66.680 C 111.280 67.053, 103.893 67.523, 95.237 67.723 C 67.528 68.364, 59.963 69.135, 57.982 71.522 C 57.220 72.439, 57.451 73.730, 58.807 76.147 C 60.603 79.348, 60.955 79.502, 66.594 79.551 C 69.842 79.579, 78.326 79.196, 85.446 78.701 C 94.494 78.072, 99.508 78.135, 102.100 78.912 C 104.643 79.674, 106.637 79.708, 108.444 79.021 C 110.253 78.334, 113.224 78.388, 117.926 79.194 C 124.002 80.236, 124.964 80.178, 126.459 78.684 C 127.385 77.758, 128.584 77, 129.122 77 C 130.404 77, 133.238 70.194, 132.473 68.956 C 132.148 68.430, 131.035 68, 130 68 C 128.965 68, 127.840 67.550, 127.500 67 C 126.814 65.890, 112.729 65.605, 111.654 66.680" stroke="none" fill="black" fill-rule="evenodd"/>
</svg>