<svg xmlns="http://www.w3.org/2000/svg" width="300" height="300" viewBox="0 0 300 300" version="1.1">
	<path d="M 149.558 91.250 C 148.543 94.589, 147.810 97.975, 147.013 103 C 146.534 106.025, 145.417 111.650, 144.531 115.500 C 143.093 121.750, 141.080 133.494, 139.338 145.790 C 139.004 148.150, 139.319 153.519, 140.038 157.723 C 141.231 164.699, 141.750 165.785, 145.989 170.182 C 148.816 173.115, 151.506 175, 152.866 175 C 154.094 175, 156.388 175.667, 157.964 176.481 C 159.539 177.296, 163.381 178.262, 166.502 178.629 C 174.706 179.593, 174.712 181.122, 166.542 188.711 C 154.735 199.679, 145.614 205.188, 138 205.950 C 132.545 206.496, 132.498 206.529, 132.202 210.039 C 131.930 213.280, 132.253 213.764, 136.047 215.789 C 140.443 218.136, 144.479 218.653, 145.500 217 C 145.840 216.450, 146.910 216, 147.879 216 C 148.848 216, 151.480 214.425, 153.729 212.500 C 155.978 210.575, 158.430 209, 159.177 209 C 160.749 209, 167.929 203.241, 176.391 195.192 C 181.561 190.275, 187.045 181.605, 186.950 178.500 C 186.933 177.950, 185.610 175.970, 184.011 174.099 C 181.050 170.637, 178.740 169.865, 167 168.411 C 164.525 168.105, 161.600 167.446, 160.500 166.948 C 159.400 166.449, 157.286 165.602, 155.802 165.065 C 152.161 163.748, 149.304 159.353, 150.658 157.152 C 151.369 155.995, 151.284 154.600, 150.373 152.500 C 147.369 145.571, 152.220 118.486, 156.895 116.094 C 157.778 115.642, 160.975 115.027, 164 114.728 C 167.025 114.428, 171.525 113.178, 174 111.949 C 181.883 108.037, 182.453 107.886, 190.045 107.684 C 197.417 107.488, 197.504 107.455, 197.823 104.678 C 198.366 99.947, 195.954 97.597, 189.101 96.182 C 185.719 95.483, 182.400 95.255, 181.726 95.675 C 180 96.749, 168.308 100.902, 163.350 102.203 C 157.436 103.754, 155.624 102.816, 156.413 98.613 C 157.332 93.711, 155.643 90, 152.493 90 C 151.087 90, 149.766 90.563, 149.558 91.250" stroke="none" fill="black" fill-rule="evenodd"/>
</svg>