<svg xmlns="http://www.w3.org/2000/svg" width="300" height="300" viewBox="0 0 300 300" version="1.1">
	<path d="M 107.871 86.250 C 104.714 88.862, 102.659 93.653, 101.357 101.440 C 100.077 109.092, 97.952 117.505, 95.912 123 C 95.401 124.375, 94.346 128.425, 93.567 132 C 89.113 152.440, 88.140 157.197, 87.020 164 C 86.341 168.125, 85.144 173.975, 84.359 177 C 83.098 181.856, 82.185 184.476, 78.956 192.500 C 78.513 193.600, 77.941 195.625, 77.684 197 C 77.427 198.375, 76.494 203.100, 75.609 207.500 C 74.724 211.900, 74 217.097, 74 219.050 C 74 224.203, 72.650 225, 63.922 225 C 58.319 225, 55.909 225.405, 55 226.500 C 53.007 228.902, 55.887 232.096, 61.779 234.016 C 66.163 235.445, 68.583 235.552, 78.210 234.743 C 90.886 233.678, 96 231.607, 96 227.541 C 96 224.218, 93.822 222.900, 88.861 223.219 L 84.500 223.500 84.201 216.599 C 84.032 212.697, 84.358 209.242, 84.951 208.649 C 85.528 208.072, 86 206.547, 86 205.260 C 86 203.973, 86.845 201.251, 87.878 199.210 C 88.911 197.170, 90.088 193.925, 90.493 192 C 90.899 190.075, 91.578 188.050, 92.003 187.500 C 92.428 186.950, 93.019 184.700, 93.316 182.500 C 93.614 180.300, 94.561 175.350, 95.422 171.500 C 96.282 167.650, 97.430 161.575, 97.973 158 C 98.517 154.425, 99.423 149.475, 99.987 147 C 101.397 140.809, 102.891 133.534, 104.092 127 C 104.649 123.975, 105.531 121.072, 106.052 120.550 C 106.573 120.027, 107 118.085, 107 116.234 C 107 112.144, 108.547 109, 110.560 109 C 112.422 109, 113.990 112.981, 114.033 117.815 C 114.071 122.190, 116.355 129.050, 120.777 138.079 C 122.550 141.697, 124 145.665, 124 146.895 C 124 148.125, 124.529 150.114, 125.175 151.316 C 125.821 152.517, 126.677 155.075, 127.077 157 C 128.415 163.442, 130.042 167.446, 138.866 186 C 140.043 188.475, 141.004 191.121, 141.003 191.879 C 141.001 192.637, 142.125 196.377, 143.500 200.189 C 144.875 204, 146 208.191, 146 209.501 C 146 210.810, 146.396 212.127, 146.881 212.426 C 147.365 212.726, 148.064 214.215, 148.434 215.735 C 149.650 220.727, 151.101 227.444, 151.648 230.606 L 152.185 233.711 145.402 234.256 C 140.452 234.653, 138.262 235.289, 137.296 236.610 C 135.644 238.869, 135.974 239.892, 139.116 242.237 C 141.372 243.922, 154.622 246.274, 160.500 246.033 C 161.600 245.988, 166.903 245.950, 172.284 245.947 C 181.576 245.943, 182.123 245.825, 183.137 243.598 C 185.450 238.521, 180.835 235, 171.869 235 C 166.296 235, 163 233.681, 163 231.451 C 163 230.638, 162.570 229.191, 162.044 228.236 C 160.384 225.223, 156 211.259, 156 208.986 C 156 207.789, 155.371 205.614, 154.602 204.154 C 153.834 202.694, 152.655 199.475, 151.983 197 C 151.310 194.525, 150.139 190.803, 149.380 188.730 C 148.621 186.656, 148 183.870, 148 182.539 C 148 181.207, 147.551 179.840, 147.002 179.501 C 146.002 178.883, 142.678 172.005, 139.753 164.500 C 138.895 162.300, 137.250 158.167, 136.097 155.315 C 134.944 152.463, 134.001 148.863, 134.003 147.315 C 134.004 145.767, 133.039 142.475, 131.858 140 C 130.677 137.525, 129.166 134.150, 128.500 132.500 C 127.834 130.850, 126.561 127.820, 125.669 125.768 C 124.778 123.715, 124.285 121.422, 124.573 120.671 C 124.861 119.921, 124.406 117.326, 123.563 114.904 C 122.719 112.482, 122.023 109.289, 122.015 107.809 C 122.007 106.329, 121.550 104.840, 121 104.500 C 120.450 104.160, 120 102.870, 120 101.632 C 120 100.395, 119.339 98.509, 118.532 97.441 C 117.724 96.374, 117.049 94.738, 117.032 93.807 C 116.979 91.011, 112.926 85, 111.092 85 C 110.152 85, 108.702 85.563, 107.871 86.250" stroke="none" fill="black" fill-rule="evenodd"/>
</svg>