<svg xmlns="http://www.w3.org/2000/svg" width="300" height="300" viewBox="0 0 300 300" version="1.1">
	<path d="M 127.082 123.368 C 125.937 125.220, 125 127.031, 125 127.392 C 125 128.754, 112.126 146.496, 105.773 153.891 C 103.698 156.306, 102 158.838, 102 159.518 C 102 160.199, 101.313 161.325, 100.473 162.022 C 98.920 163.311, 93 171.689, 93 172.598 C 93 172.872, 91.425 175.558, 89.500 178.567 C 87.575 181.577, 86 184.285, 86 184.586 C 86 184.887, 87.145 186.635, 88.545 188.470 C 90.535 191.079, 92.005 191.912, 95.295 192.293 C 97.608 192.560, 101.300 193.318, 103.500 193.976 C 105.700 194.634, 108.400 195.125, 109.500 195.068 C 121.623 194.436, 158.240 195.058, 159.856 195.923 C 164.778 198.557, 170.206 196.011, 171.612 190.409 C 172.156 188.243, 171.729 187.339, 169.250 185.399 C 167.586 184.096, 165.920 181.817, 165.547 180.333 C 165.175 178.849, 163.774 176.332, 162.435 174.740 C 161.096 173.149, 160 171.427, 160 170.915 C 160 170.402, 157.614 167.387, 154.697 164.215 C 151.781 161.042, 148.367 156.324, 147.111 153.729 C 145.855 151.134, 144.415 148.756, 143.911 148.445 C 143.408 148.134, 143.275 146.133, 143.616 144 C 144.084 141.071, 143.671 138.951, 141.928 135.352 C 140.659 132.730, 139.593 128.897, 139.560 126.835 C 139.489 122.394, 137.029 120.079, 132.332 120.032 C 129.796 120.006, 128.747 120.673, 127.082 123.368 M 124.966 147.250 C 122.791 149.588, 120.724 152.381, 120.372 153.458 C 120.021 154.535, 116.868 158.936, 113.366 163.238 C 109.865 167.540, 107 171.643, 107 172.356 C 107 173.068, 105.855 174.727, 104.455 176.043 C 102.762 177.632, 102.008 179.283, 102.205 180.967 L 102.500 183.500 127.750 183.500 C 151.151 183.500, 153 183.372, 153 181.746 C 153 179.187, 149.957 173.920, 145.185 168.221 C 142.883 165.472, 141 162.877, 141 162.456 C 141 162.034, 139.875 160.214, 138.500 158.411 C 137.125 156.608, 135.990 154.766, 135.978 154.317 C 135.966 153.868, 135.076 152.375, 134 151 C 132.924 149.625, 132.034 147.262, 132.022 145.750 C 131.990 141.758, 129.603 142.266, 124.966 147.250" stroke="none" fill="black" fill-rule="evenodd"/>
</svg>