<svg xmlns="http://www.w3.org/2000/svg" width="300" height="300" viewBox="0 0 300 300" version="1.1">
	<path d="M 122.835 124.250 C 119.868 128.264, 118 132.455, 118 135.100 C 118 136.203, 116.875 138.762, 115.500 140.785 C 114.125 142.809, 113 145.246, 113 146.202 C 113 147.157, 112.100 149.542, 111 151.500 C 109.900 153.458, 109 155.747, 109 156.585 C 109 157.424, 108.147 159.998, 107.105 162.305 C 103.173 171.009, 97.970 196.501, 98.064 206.600 C 98.145 215.316, 100.006 224.244, 102.260 226.735 C 103.217 227.793, 104 229.152, 104 229.756 C 104 231.001, 110.955 237, 112.399 237 C 112.918 237, 114.137 237.719, 115.109 238.598 C 116.580 239.930, 117.455 240.005, 120.357 239.047 C 122.273 238.415, 124.381 237.246, 125.042 236.449 C 125.704 235.652, 127.044 235, 128.021 235 C 134.594 235, 151 221.183, 151 215.648 C 151 214.890, 151.900 213.126, 153 211.727 C 155.559 208.473, 155.537 205.796, 152.932 203.438 C 151.060 201.744, 150.618 201.706, 148.280 203.033 C 146.860 203.840, 145.220 205.400, 144.636 206.500 C 142.258 210.980, 137.452 217.996, 136.761 217.998 C 136.355 217.999, 133.380 220.010, 130.150 222.466 C 120.172 230.054, 113.458 229.312, 109.280 220.158 C 106.820 214.768, 106.781 194.004, 109.226 191.303 C 110.320 190.094, 111.074 187.304, 111.285 183.688 C 111.469 180.550, 112.154 177.446, 112.809 176.791 C 113.464 176.136, 114 174.678, 114.001 173.550 C 114.001 171.181, 117.708 160.957, 119.076 159.550 C 119.584 159.027, 120 157.665, 120 156.523 C 120 155.380, 120.579 153.557, 121.287 152.473 C 122.682 150.333, 126.143 141.708, 127.965 135.830 C 128.591 133.811, 129.754 131.619, 130.551 130.958 C 132.563 129.288, 132.377 124.007, 130.250 122.392 C 127.445 120.263, 125.404 120.775, 122.835 124.250" stroke="none" fill="black" fill-rule="evenodd"/>
</svg>