<svg xmlns="http://www.w3.org/2000/svg" width="300" height="300" viewBox="0 0 300 300" version="1.1">
	<path d="M 103.608 31.057 L 98 37.114 98 46.462 C 98 54.230, 98.381 56.531, 100.250 60.067 C 103.611 66.424, 109.097 70.008, 115.400 69.965 C 118.205 69.945, 121.625 69.286, 123 68.500 C 124.375 67.714, 125.838 67.055, 126.250 67.035 C 127.631 66.970, 127.019 70.740, 125.434 72.055 C 124.573 72.770, 123.172 74.737, 122.320 76.427 C 121.469 78.117, 119.720 80.434, 118.434 81.576 C 115.378 84.287, 107.509 95.006, 104.265 100.873 C 102.859 103.418, 98.909 109.775, 95.488 115 C 92.068 120.225, 87.772 127.200, 85.941 130.500 C 84.111 133.800, 81.126 138.268, 79.307 140.430 C 76.949 143.232, 75.989 145.385, 75.961 147.930 C 75.930 150.835, 75.331 151.873, 72.743 153.500 C 63.656 159.216, 66.172 183.138, 77.212 196 C 77.921 196.825, 82.100 199.252, 86.500 201.394 C 90.900 203.535, 95.293 205.680, 96.262 206.159 C 97.231 206.639, 100.156 207.747, 102.762 208.620 C 105.368 209.494, 108.175 210.792, 109 211.506 C 109.825 212.219, 112.456 213.381, 114.847 214.089 C 118.036 215.032, 120.101 216.562, 122.597 219.831 C 124.469 222.282, 126 224.843, 126 225.521 C 126 226.200, 126.675 227.315, 127.500 228 C 128.403 228.750, 129 230.938, 129 233.500 C 129 236.062, 128.403 238.250, 127.500 239 C 126.675 239.685, 126 240.856, 126 241.602 C 126 242.349, 124.121 243.918, 121.825 245.089 C 118.319 246.878, 116.678 247.109, 111.575 246.533 C 104.847 245.774, 93.079 241.049, 88.612 237.313 C 85.485 234.697, 81.699 234.562, 81.225 237.051 C 80.791 239.333, 88.052 246.491, 93.642 249.289 C 102.196 253.572, 114.852 257.283, 119.004 256.726 C 123.070 256.181, 129.912 251.565, 134 246.610 C 136.263 243.867, 136.500 242.714, 136.500 234.444 C 136.500 229.122, 136.026 224.721, 135.365 223.904 C 134.741 223.132, 133.922 221.054, 133.544 219.286 C 133.138 217.386, 131.459 214.933, 129.436 213.286 C 127.555 211.754, 124.550 209.250, 122.758 207.723 C 120.966 206.195, 117.700 204.467, 115.500 203.881 C 113.300 203.296, 108.656 201.508, 105.180 199.909 C 101.704 198.309, 98.512 197, 98.085 197 C 97.659 197, 96.490 196.094, 95.488 194.987 C 94.486 193.879, 91.643 191.967, 89.171 190.737 C 83.867 188.098, 81.009 183.923, 81.004 178.809 C 81.002 176.779, 80.550 174.840, 80 174.500 C 79.450 174.160, 79 171.235, 79 168 C 79 164.765, 79.450 161.840, 80 161.500 C 80.550 161.160, 81 159.784, 81 158.441 C 81 157.098, 81.420 156, 81.933 156 C 82.446 156, 83.151 155.100, 83.500 154 C 83.909 152.713, 85.013 152, 86.599 152 C 88.081 152, 89.270 151.303, 89.582 150.250 C 89.868 149.287, 90.754 147.226, 91.551 145.669 C 92.348 144.112, 93 141.551, 93 139.978 C 93 138.405, 93.403 136.869, 93.896 136.564 C 94.389 136.259, 95.785 134.095, 96.998 131.755 C 98.211 129.415, 100.019 126.730, 101.017 125.790 C 102.015 124.849, 104.264 121.249, 106.016 117.790 C 107.767 114.330, 112.080 107.623, 115.600 102.885 C 119.120 98.147, 122 93.731, 122 93.073 C 122 92.415, 125.825 88.043, 130.500 83.357 C 135.175 78.671, 139 73.999, 139 72.973 C 139 71.939, 140.198 70.529, 141.694 69.805 C 145.340 68.039, 163 43.825, 163 40.591 C 163 37.832, 159.966 36, 155.397 36 C 152.348 36, 150.754 36.476, 150.359 37.506 C 150.042 38.334, 148.055 39.287, 145.945 39.625 C 143.063 40.086, 142.032 40.759, 141.804 42.329 C 141.583 43.846, 140.278 44.773, 137.047 45.705 C 134.598 46.412, 130.998 48.524, 129.047 50.398 C 120.436 58.669, 114.423 60.782, 109.905 57.124 C 107.887 55.490, 107.590 54.362, 107.599 48.374 C 107.610 41.339, 110.256 33, 112.477 33 C 113.077 33, 114.323 31.723, 115.246 30.161 C 117.242 26.781, 116.090 25, 111.908 25 C 109.898 25, 107.793 26.536, 103.608 31.057" stroke="none" fill="black" fill-rule="evenodd"/>
</svg>