<svg xmlns="http://www.w3.org/2000/svg" width="300" height="300" viewBox="0 0 300 300" version="1.1">
	<path d="M 153.209 83.702 C 151.662 84.780, 146.468 85.697, 137.209 86.527 C 129.669 87.203, 123.167 87.562, 122.760 87.326 C 122.354 87.089, 119.629 87.337, 116.705 87.877 C 112.749 88.609, 106.163 88.374, 90.945 86.958 C 70.488 85.056, 57.890 85.213, 56.097 87.393 C 54.857 88.901, 54.400 95.221, 55.413 96.860 C 55.997 97.805, 57.291 97.984, 59.868 97.478 C 65.270 96.418, 80.258 96.179, 82.134 97.124 C 83.496 97.809, 83.801 99.994, 83.964 110.223 C 84.541 146.291, 84.031 182.460, 82.870 187.884 C 82.250 190.779, 82.337 196.453, 83.126 204.588 C 84.506 218.816, 83.996 220.465, 78.532 219.440 C 76.001 218.965, 74.687 219.393, 72.171 221.510 C 68.501 224.598, 68.249 226.011, 70.935 228.442 C 72.382 229.751, 74.213 230.116, 78.185 229.889 C 81.935 229.675, 84.531 230.138, 87 231.461 C 90.724 233.456, 90.997 233.498, 106.662 234.516 C 116.111 235.130, 116.970 235.030, 118.912 233.088 C 121.459 230.541, 121.551 228.808, 119.250 226.727 C 116.911 224.612, 108.345 221.766, 106.208 222.394 C 105.269 222.670, 102.250 222.308, 99.500 221.590 L 94.500 220.285 93.918 214.320 C 93.598 211.039, 93.004 207.815, 92.597 207.157 C 91.791 205.853, 91.810 198.664, 92.643 190 C 93.356 182.584, 93.934 160.184, 94.269 127 C 94.421 111.875, 94.908 98.924, 95.351 98.219 C 95.895 97.354, 97.283 97.150, 99.629 97.590 C 106.175 98.818, 136.280 98.575, 140.909 97.256 C 143.334 96.565, 147.031 96, 149.124 96 C 154.761 96, 155.687 98.417, 153.075 106.303 C 151.615 110.710, 151.256 113.366, 151.833 115.500 C 152.279 117.150, 152.957 118.422, 153.339 118.326 C 153.721 118.230, 155.386 117.855, 157.038 117.492 C 159.264 117.003, 160.447 115.880, 161.597 113.166 C 165.896 103.024, 167.645 93.669, 166.207 88.500 C 165.656 86.519, 164.206 84.922, 161.937 83.798 C 157.678 81.689, 156.121 81.672, 153.209 83.702" stroke="none" fill="black" fill-rule="evenodd"/>
</svg>