<svg xmlns="http://www.w3.org/2000/svg" width="300" height="300" viewBox="0 0 300 300" version="1.1">
	<path d="M 166.244 90.523 C 162.921 92.878, 161 97.290, 161 102.568 C 161 106.229, 161.593 107.917, 163.750 110.392 C 165.262 112.127, 167.184 114.593, 168.020 115.871 C 169.146 117.590, 170.786 118.334, 174.331 118.734 C 178.744 119.231, 179.394 119.011, 182.561 115.941 C 185.618 112.978, 186 112.026, 186 107.369 C 186 104.488, 185.550 100.947, 185 99.501 C 183.779 96.288, 178.578 91.740, 175.080 90.826 C 173.661 90.455, 171.600 89.876, 170.500 89.538 C 169.358 89.188, 167.532 89.610, 166.244 90.523 M 170.011 100.487 C 167.540 103.465, 171.895 110.419, 175.021 108.487 C 176.557 107.537, 176.166 102.309, 174.429 100.571 C 172.472 98.615, 171.579 98.598, 170.011 100.487 M 90.917 134.410 C 86.211 139.102, 82.363 142.642, 70.250 153.424 C 63.513 159.421, 58 164.859, 58 165.509 C 58 166.158, 57.100 167.505, 56 168.500 C 52.841 171.359, 53.388 174, 57.139 174 C 60.283 174, 67.903 168.285, 77.042 159.071 C 83.589 152.471, 96.064 144, 99.237 144 C 101.501 144, 101.526 144.021, 116.750 158.550 C 122.388 163.930, 127 168.899, 127 169.593 C 127 170.287, 128.012 171.675, 129.250 172.677 C 130.488 173.680, 132.078 175.625, 132.785 177 C 134.401 180.143, 139.629 185.662, 148.886 194 C 163.607 207.258, 172.281 216.511, 174.569 221.399 C 177.740 228.171, 181.024 229.833, 184.455 226.402 C 188.715 222.142, 181.168 209.041, 168.671 199 C 158.720 191.004, 147 180.016, 147 178.683 C 147 178.138, 144.863 175.366, 142.250 172.523 C 139.637 169.679, 134.800 164.295, 131.500 160.558 C 123.873 151.921, 111.525 139.778, 107.041 136.504 C 103.698 134.063, 98.183 132.017, 94.917 132.006 C 94.046 132.003, 92.246 133.084, 90.917 134.410" stroke="none" fill="black" fill-rule="evenodd"/>
</svg>