<svg xmlns="http://www.w3.org/2000/svg" width="300" height="300" viewBox="0 0 300 300" version="1.1">
	<path d="M 166.984 90.857 C 165.068 91.878, 162.994 93.706, 162.376 94.920 C 161.758 96.134, 160.015 98.419, 158.502 99.998 C 154.203 104.485, 155.484 108.665, 163.098 115.001 C 172.184 122.563, 175.616 121.620, 182.414 109.689 C 186.042 103.322, 185.367 98.521, 180.057 92.939 C 175.758 88.420, 172.524 87.905, 166.984 90.857 M 166.447 102.059 C 163.854 104.924, 165.587 107.500, 170.109 107.500 C 173.065 107.500, 173.541 107.147, 173.816 104.750 C 174.069 102.557, 173.601 101.799, 171.501 101 C 168.190 99.741, 168.627 99.650, 166.447 102.059 M 93.500 136.685 C 91.850 137.568, 90.275 138.564, 90 138.897 C 89.725 139.230, 88.150 140.108, 86.500 140.848 C 80.135 143.701, 68.770 150.945, 67.542 152.932 C 67.169 153.536, 65.268 154.697, 63.317 155.512 C 61.367 156.327, 58.232 158.345, 56.351 159.997 C 54.470 161.649, 52.502 163, 51.979 163 C 51.456 163, 49.841 164.794, 48.390 166.986 C 45.871 170.793, 45.826 171.086, 47.399 173.486 C 48.305 174.869, 49.383 176, 49.795 176 C 50.206 176, 53.233 174.213, 56.521 172.028 C 59.810 169.844, 63.116 168.044, 63.868 168.028 C 64.620 168.013, 66.774 166.650, 68.653 165 C 70.532 163.350, 72.645 162, 73.348 162 C 74.051 162, 75.919 160.650, 77.500 159 C 79.081 157.350, 81.128 156, 82.050 156 C 82.971 156, 85.424 154.650, 87.500 153 C 89.576 151.350, 92.190 150, 93.309 150 C 94.427 150, 96.192 149.231, 97.230 148.292 C 99.547 146.195, 101.805 147.294, 104.009 151.592 C 105.573 154.641, 113.645 163, 115.026 163 C 115.458 163, 117.192 165.137, 118.879 167.750 C 120.567 170.363, 122.319 172.950, 122.774 173.500 C 123.228 174.050, 124.478 176.075, 125.550 178 C 126.623 179.925, 129.863 184.164, 132.750 187.420 C 135.637 190.677, 138 193.767, 138 194.288 C 138 196.589, 152.502 211.931, 157.512 214.931 C 159.706 216.244, 162.669 218.390, 164.097 219.700 C 167.817 223.111, 171.967 223.186, 173.864 219.876 C 175.293 217.384, 175.203 217.044, 172.063 213.080 C 170.245 210.785, 166.450 207.423, 163.629 205.610 C 158.916 202.581, 156.028 199.677, 147.372 189.263 C 142.296 183.157, 136.664 175.519, 132 168.418 C 128.708 163.406, 118.202 151.055, 110.590 143.250 C 101.825 134.262, 99.615 133.413, 93.500 136.685" stroke="none" fill="black" fill-rule="evenodd"/>
</svg>