<svg xmlns="http://www.w3.org/2000/svg" width="300" height="300" viewBox="0 0 300 300" version="1.1">
	<path d="M 100.974 79.532 C 99.542 81.256, 100.921 87.424, 103.680 91.634 C 104.501 92.887, 104.920 94.320, 104.612 94.818 C 104.304 95.317, 98.835 96.046, 92.460 96.439 C 77.783 97.343, 68.602 99.150, 68.200 101.214 C 68.032 102.079, 69.701 104.078, 72.008 105.774 C 75.288 108.187, 76.857 108.706, 79.807 108.357 C 92.742 106.823, 107.582 106.310, 108.570 107.361 C 110.915 109.858, 116.823 136.646, 115.325 137.991 C 114.508 138.724, 104.753 140.515, 85.568 143.454 C 73.477 145.306, 68 148.280, 68 152.995 C 68 157.049, 71.475 157.887, 77.224 155.219 C 80.985 153.474, 91.511 151.373, 100.500 150.574 C 102.150 150.427, 106.097 149.714, 109.270 148.990 C 114.598 147.774, 115.144 147.814, 116.392 149.521 C 118.068 151.814, 119.200 163.733, 119.238 179.500 C 119.269 192.711, 118.462 199.411, 116.672 200.784 C 115.975 201.319, 112.152 201.269, 107.239 200.660 C 91.366 198.695, 73.461 204.482, 66.250 213.907 C 63.340 217.711, 63 218.846, 63 224.763 L 63 231.371 69.115 237.029 C 72.684 240.332, 77.159 243.379, 79.865 244.349 C 85.750 246.458, 93.320 246.524, 95.016 244.481 C 95.921 243.390, 97.247 243.143, 99.717 243.607 C 102.725 244.171, 103.619 243.808, 106.829 240.720 C 108.848 238.777, 111.370 237.032, 112.433 236.843 C 114.992 236.387, 121.996 226.196, 121.998 222.924 C 122.002 217.718, 129.185 214.086, 132.921 217.400 C 133.790 218.171, 137.298 219.970, 140.719 221.400 C 144.139 222.829, 148.540 224.899, 150.499 226 C 152.458 227.100, 154.644 228, 155.356 228 C 156.069 228, 157.742 229.168, 159.076 230.595 C 162.254 233.997, 166.230 236.008, 169.700 235.968 C 172.633 235.935, 176 233.974, 176 232.299 C 176 230.589, 167.270 222, 165.532 222 C 164.616 222, 162.434 220.910, 160.683 219.578 C 158.932 218.246, 156.150 216.836, 154.500 216.445 C 152.850 216.055, 149.025 214.397, 146 212.762 C 142.975 211.127, 137.800 208.778, 134.500 207.543 L 128.500 205.296 128.145 183.898 C 127.950 172.129, 127.725 159.350, 127.645 155.500 L 127.500 148.500 136 148.626 C 140.675 148.695, 148.100 149.230, 152.500 149.815 L 160.500 150.878 163.500 147.885 C 166.424 144.968, 166.451 144.855, 164.546 143.437 C 160.740 140.602, 155.325 139.616, 140.500 139.061 L 125.500 138.500 125.341 135.355 C 125.254 133.624, 124.691 131.292, 124.091 130.170 C 123.491 129.049, 123 126.543, 123 124.601 C 123 122.659, 122.297 119.001, 121.439 116.471 C 118.911 109.025, 119.564 107.631, 126 106.732 C 129.025 106.309, 137.195 106.235, 144.155 106.567 C 155.138 107.091, 157.159 106.942, 159.455 105.437 C 161.714 103.958, 162.057 103.104, 161.800 99.602 L 161.500 95.500 152.500 95 C 147.550 94.725, 138.758 95.025, 132.963 95.667 C 119.455 97.163, 115.850 96.496, 114.458 92.240 C 113.885 90.488, 112.423 87.711, 111.208 86.068 C 109.994 84.425, 109 82.478, 109 81.740 C 109 78.225, 103.349 76.670, 100.974 79.532 M 96.500 211.579 C 95.400 211.821, 92.025 212.492, 89 213.069 C 81.137 214.569, 77.942 216.003, 74.250 219.689 C 70.421 223.511, 70.180 226.166, 73.250 230.696 C 75.380 233.840, 83.536 238, 87.569 238 C 90.185 238, 100.920 234.044, 103.201 232.239 C 110.980 226.086, 117.456 214.611, 114.250 212.662 C 113.091 211.958, 98.750 211.083, 96.500 211.579" stroke="none" fill="black" fill-rule="evenodd"/>
</svg>