<svg xmlns="http://www.w3.org/2000/svg" width="300" height="300" viewBox="0 0 300 300" version="1.1">
	<path d="M 91.314 135.364 C 88.116 138.315, 83.025 142.938, 80 145.638 C 76.975 148.338, 71.250 153.803, 67.277 157.781 C 60.908 164.159, 60.161 165.293, 60.951 167.371 C 62.254 170.799, 64.643 171.270, 69.345 169.029 C 73.245 167.169, 77.309 163.907, 92.875 150.139 C 97.108 146.394, 100.021 144.560, 101.546 144.677 C 107.127 145.109, 132.774 169.229, 137.655 178.635 C 138.360 179.996, 139.867 182.321, 141.002 183.804 C 142.138 185.287, 145.713 190.100, 148.948 194.500 C 152.183 198.900, 157.686 205.305, 161.177 208.734 L 167.524 214.968 170.762 212.999 C 174.372 210.803, 175.134 206.995, 172.405 204.789 C 167.014 200.432, 152.082 183.040, 149.620 178.250 C 148.701 176.463, 147.501 175, 146.954 175 C 146.407 175, 143.961 171.910, 141.518 168.133 C 133.801 156.205, 104.306 130, 98.596 130 C 97.788 130, 94.511 132.414, 91.314 135.364" stroke="none" fill="black" fill-rule="evenodd"/>
</svg>