<svg xmlns="http://www.w3.org/2000/svg" width="300" height="300" viewBox="0 0 300 300" version="1.1">
	<path d="M 176.689 106.114 C 174.460 107.411, 175.209 112.401, 178.108 115.564 C 179.149 116.700, 180 118.181, 180 118.855 C 180 119.529, 180.835 121.300, 181.857 122.790 C 182.878 124.281, 184.463 126.737, 185.380 128.250 C 187.314 131.442, 190.479 131.842, 191.956 129.082 C 193.257 126.652, 192.248 121.107, 190.030 118.500 C 189.095 117.400, 187.571 114.838, 186.645 112.807 C 185.138 109.504, 180.730 104.951, 179.115 105.030 C 178.777 105.047, 177.685 105.535, 176.689 106.114 M 198.200 106.200 C 196.048 108.352, 196.924 111.665, 201.357 118.138 C 206.367 125.452, 208.734 126.413, 211.251 122.152 C 212.774 119.574, 212.802 119.081, 211.489 117.991 C 210.670 117.311, 210 116.348, 210 115.851 C 210 115.354, 208.537 113.344, 206.750 111.385 C 204.963 109.425, 203.140 107.187, 202.700 106.411 C 201.721 104.684, 199.806 104.594, 198.200 106.200 M 73.718 123.950 C 68.338 126.588, 63.163 129.427, 62.218 130.257 C 61.273 131.087, 54.650 133.657, 47.500 135.968 C 37.477 139.207, 32.439 140.278, 25.500 140.645 C 15.993 141.147, 12 142.692, 12 145.868 C 12 146.870, 12.832 148.443, 13.848 149.363 C 15.487 150.846, 16.955 150.925, 26.806 150.061 C 33.887 149.439, 40.588 148.163, 45.283 146.543 C 49.335 145.144, 53.534 144, 54.614 144 C 57.572 144, 66.715 140.568, 68.811 138.671 C 72.932 134.942, 76.322 137.748, 73.677 142.698 C 68.619 152.162, 65.992 169.221, 65.855 193.500 C 65.696 221.540, 68.562 228.681, 82.743 235.586 C 87.773 238.035, 88.302 238.093, 95.743 237.012 C 105.901 235.536, 109.586 234.312, 114.417 230.813 C 120.601 226.333, 128 219.229, 128 217.771 C 128 217.048, 129.285 214.891, 130.855 212.978 C 135.475 207.351, 139.800 196.789, 141.698 186.500 C 142.002 184.850, 142.605 183.050, 143.036 182.500 C 144.088 181.160, 147 166.865, 147 163.042 C 147 161.010, 147.496 160, 148.494 160 C 150.328 160, 156 167.625, 156 170.091 C 156 171.076, 156.449 172.159, 156.997 172.498 C 157.545 172.837, 158.953 175.345, 160.127 178.073 C 162.318 183.167, 170.313 191, 173.321 191 C 174.673 191, 179 186.146, 179 184.629 C 179 184.320, 177.425 182.492, 175.500 180.567 C 173.575 178.642, 172 176.207, 172 175.156 C 172 174.105, 171.304 172.667, 170.453 171.961 C 169.602 171.255, 167.815 168.370, 166.481 165.551 C 165.147 162.732, 162.468 158.571, 160.528 156.304 C 158.588 154.037, 156.990 151.354, 156.978 150.341 C 156.966 149.328, 156.066 146.538, 154.978 144.141 C 153.890 141.743, 153 138.784, 153 137.565 C 153 133.027, 145.790 129.107, 143.225 132.250 C 142.664 132.938, 141.961 137.325, 141.662 142 C 141.364 146.675, 140.622 152.975, 140.014 156 C 139.406 159.025, 138.554 163.975, 138.120 167 C 137.281 172.855, 132.852 185.435, 128.883 193.236 C 128.397 194.191, 128 195.789, 128 196.788 C 128 199.031, 120.878 210.333, 116.638 214.819 C 109.510 222.360, 107.753 223.670, 102.256 225.541 C 99.090 226.618, 94.159 227.500, 91.298 227.500 C 86.611 227.500, 85.706 227.119, 82.146 223.642 C 79.973 221.521, 77.959 218.596, 77.670 217.142 C 77.381 215.689, 76.622 212.345, 75.983 209.710 C 75.140 206.236, 75.122 204.558, 75.915 203.602 C 76.560 202.826, 77.027 197.605, 77.052 190.892 C 77.112 174.754, 77.983 161.661, 79.070 160.550 C 79.582 160.028, 80 158.841, 80 157.914 C 80 156.987, 80.672 154.940, 81.494 153.364 C 82.315 151.789, 82.990 149.072, 82.994 147.327 C 82.998 145.247, 84.206 142.573, 86.500 139.568 C 88.425 137.046, 90 133.888, 90 132.550 C 90 131.213, 90.450 129.840, 91 129.500 C 92.721 128.436, 92.092 123.092, 90 121 C 87.125 118.125, 84.696 118.565, 73.718 123.950" stroke="none" fill="black" fill-rule="evenodd"/>
</svg>