<svg xmlns="http://www.w3.org/2000/svg" width="300" height="300" viewBox="0 0 300 300" version="1.1">
	<path d="M 90.750 62.579 C 90.338 62.994, 90 63.961, 90 64.729 C 90 65.496, 88.904 68.458, 87.565 71.312 C 86.226 74.165, 84.817 77.776, 84.435 79.335 C 83.764 82.074, 83.566 82.154, 78.620 81.699 C 75.804 81.440, 71.412 80.701, 68.861 80.056 C 62.764 78.517, 57.626 79.752, 57.173 82.864 C 56.698 86.131, 58.746 88, 62.801 88 C 64.758 88, 67.740 88.411, 69.429 88.914 C 71.118 89.417, 73.846 90.214, 75.490 90.685 C 79.090 91.716, 79.707 93.995, 77.704 98.872 C 75.732 103.677, 75.152 105.935, 69.977 129 C 69.298 132.025, 68.332 135.019, 67.830 135.653 C 67.218 136.424, 62.519 136.788, 53.606 136.752 C 46.286 136.723, 39.779 137.018, 39.148 137.409 C 37.416 138.479, 37.765 140.765, 40 143 C 41.643 144.643, 43.382 145.010, 49.750 145.058 C 54.012 145.089, 59.300 145.438, 61.500 145.833 C 65.416 146.535, 65.496 146.633, 65.324 150.525 C 65.228 152.711, 64.642 156.975, 64.022 160 C 63.402 163.025, 62.644 172.152, 62.338 180.281 C 61.846 193.334, 62.040 196.133, 64 204.222 C 65.707 211.267, 67.106 214.550, 70.061 218.441 C 76.416 226.811, 77.329 227.708, 81.710 229.897 C 87.599 232.839, 101.125 232.897, 105.500 230 C 107.150 228.907, 109.417 228.010, 110.539 228.007 C 111.660 228.003, 114.360 227.050, 116.539 225.889 C 118.717 224.728, 121.711 223.134, 123.190 222.346 C 130.640 218.379, 147.557 199.467, 148.680 193.850 C 148.998 192.259, 149.650 190.716, 150.129 190.420 C 150.608 190.124, 151 189.146, 151 188.246 C 151 187.346, 152.112 185.448, 153.472 184.029 C 155.435 181.980, 156.080 179.989, 156.603 174.364 C 157.273 167.156, 156.644 165.432, 153.752 166.542 C 151.834 167.278, 148 174.607, 148 177.536 C 148 182.361, 123.475 212.804, 117.857 214.953 C 116.011 215.659, 112.694 217.036, 110.486 218.012 C 103.861 220.943, 93.174 223.255, 89.466 222.560 C 87.592 222.208, 84.742 220.812, 83.132 219.458 C 79.443 216.354, 74 207.952, 74 205.362 C 74 204.283, 73.597 202.973, 73.105 202.450 C 70.787 199.990, 70.461 179.353, 72.552 167.500 C 73.328 163.100, 73.971 158.087, 73.982 156.361 C 73.992 154.634, 74.852 152.169, 75.894 150.883 L 77.788 148.544 83.144 150.695 C 86.650 152.103, 89.651 152.657, 91.831 152.298 C 93.664 151.996, 96.139 152.220, 97.331 152.797 C 100.796 154.470, 113.540 155.167, 116.448 153.842 C 120.921 151.804, 119.313 148.834, 113.004 147.482 C 111.081 147.070, 108.156 146.147, 106.504 145.430 C 104.852 144.714, 99.900 143.371, 95.500 142.445 C 81.083 139.411, 79.940 139.012, 79.087 136.707 C 78.642 135.503, 78.695 133.164, 79.206 131.509 C 80.443 127.497, 84.073 111.391, 84.730 107 C 85.018 105.075, 86.024 102.375, 86.964 101 C 87.905 99.625, 88.959 97.713, 89.306 96.750 C 90.045 94.702, 92.250 94.508, 95.316 96.220 C 98.643 98.079, 104.263 99.968, 106.516 99.985 C 107.624 99.993, 110.099 100.895, 112.016 101.989 C 122.084 107.737, 123.120 108.145, 124.576 106.937 C 126.812 105.081, 126.266 102.651, 122.821 99.128 C 117.189 93.368, 105.539 87.290, 96.707 85.505 C 93.241 84.804, 92.241 82.496, 94.379 80.134 C 95.270 79.149, 96 77.650, 96 76.805 C 96 75.959, 96.969 72.936, 98.153 70.086 C 99.573 66.670, 99.969 64.569, 99.317 63.917 C 98.005 62.605, 91.702 61.621, 90.750 62.579" stroke="none" fill="black" fill-rule="evenodd"/>
</svg>