<svg xmlns="http://www.w3.org/2000/svg" width="300" height="300" viewBox="0 0 300 300" version="1.1">
	<path d="M 171.511 51.983 C 170.725 53.254, 171.957 59.856, 173.113 60.570 C 173.601 60.871, 174 61.889, 174 62.831 C 174 63.773, 175.286 66.109, 176.859 68.022 C 178.431 69.935, 180.061 72.625, 180.481 74 C 181.556 77.518, 182.941 79, 185.154 79 C 187.308 79, 187.601 78.370, 188.467 71.878 C 189.013 67.791, 188.848 67.193, 187.042 66.721 C 185.919 66.428, 184.992 65.358, 184.982 64.344 C 184.961 62.235, 179.898 54.401, 177.264 52.402 C 175.170 50.813, 172.360 50.608, 171.511 51.983 M 149.029 53.465 C 146.913 56.015, 148.814 62.282, 153.814 69.239 C 156.391 72.825, 158.973 76.559, 159.551 77.538 C 160.352 78.892, 161.275 79.148, 163.424 78.608 C 166.017 77.958, 166.198 77.611, 165.665 74.326 C 165.346 72.360, 164.391 69.985, 163.543 69.047 C 162.694 68.110, 162 66.421, 162 65.294 C 162 64.167, 161.325 62.685, 160.500 62 C 159.675 61.315, 159 59.950, 159 58.966 C 159 57.013, 153.636 52, 151.546 52 C 150.830 52, 149.698 52.659, 149.029 53.465 M 83.128 68.345 C 81 70.910, 80.793 75.870, 82.469 84.143 C 83.806 90.741, 84.136 97.766, 84.071 118.179 C 84.026 132.326, 83.627 144.935, 83.186 146.200 C 82.745 147.465, 82.262 154.350, 82.112 161.500 C 81.962 168.650, 81.426 174.928, 80.920 175.450 C 80.414 175.973, 80 180.615, 80 185.766 C 80 190.917, 79.533 196.004, 78.963 197.070 C 78.392 198.136, 77.695 203.322, 77.415 208.594 C 76.862 218.984, 77.536 221, 81.566 221 C 85.398 221, 87 217.462, 87 209 C 87 204.311, 87.511 200.697, 88.346 199.473 C 89.279 198.106, 89.740 193.561, 89.847 184.683 C 89.932 177.634, 90.451 171.026, 91.001 169.999 C 91.550 168.972, 92 162.953, 92 156.625 C 92 150.296, 92.391 144.877, 92.868 144.581 C 93.346 144.286, 93.759 141.500, 93.787 138.389 C 93.820 134.773, 94.375 132.197, 95.326 131.245 C 96.644 129.927, 97.209 130.057, 100.252 132.378 C 102.142 133.820, 104.321 135.003, 105.094 135.007 C 105.867 135.010, 107.850 135.907, 109.500 137 C 111.150 138.093, 113.218 138.990, 114.095 138.993 C 114.972 138.997, 116.505 139.901, 117.501 141.002 C 119.498 143.208, 131.111 149, 133.538 149 C 134.381 149, 136.142 149.702, 137.452 150.560 C 139.451 151.870, 140.170 151.911, 141.928 150.813 C 144.400 149.269, 145.304 146.956, 144.379 144.545 C 144.013 143.590, 139.840 140.986, 135.106 138.759 C 130.373 136.531, 124.700 133.553, 122.500 132.142 C 120.300 130.731, 116.700 128.738, 114.500 127.713 C 103.642 122.657, 95.959 118.370, 95.315 117.010 C 94.561 115.415, 93.356 100.848, 92.460 82.500 C 92.165 76.450, 91.415 70.487, 90.793 69.250 C 89.506 66.689, 84.949 66.151, 83.128 68.345" stroke="none" fill="black" fill-rule="evenodd"/>
</svg>