<svg xmlns="http://www.w3.org/2000/svg" width="300" height="300" viewBox="0 0 300 300" version="1.1">
	<path d="M 165.500 87.701 C 163.850 87.922, 159.125 88.786, 155 89.621 C 150.647 90.502, 139.736 91.325, 129 91.582 C 118.825 91.826, 103.444 92.475, 94.820 93.024 C 86.196 93.573, 75.366 93.732, 70.753 93.378 C 58.590 92.443, 55.113 95.060, 60.098 101.397 L 62.195 104.064 79.348 103.514 C 88.781 103.211, 101 102.746, 106.500 102.480 C 112 102.214, 122.203 101.786, 129.173 101.530 C 136.143 101.273, 144.828 100.587, 148.474 100.004 C 152.120 99.422, 155.556 99.225, 156.110 99.568 C 157.393 100.361, 156.306 105.719, 154.196 109 C 152.428 111.751, 146.254 124.212, 143.545 130.500 C 142.597 132.700, 141.186 135.694, 140.410 137.154 C 139.635 138.614, 138.990 140.414, 138.978 141.154 C 138.966 141.894, 138.076 143.625, 137 145 C 135.924 146.375, 135.034 148.268, 135.022 149.206 C 135.010 150.144, 133.575 153.294, 131.834 156.206 C 130.093 159.118, 127.349 164.184, 125.738 167.465 C 124.126 170.745, 121.163 175.606, 119.154 178.266 C 113.902 185.218, 92.582 208.794, 88.266 212.423 C 81.328 218.256, 74.927 225.380, 75.223 226.938 C 75.387 227.797, 76.543 228.646, 77.792 228.824 C 80.494 229.209, 88.003 225.759, 90.523 222.975 C 91.506 221.889, 92.803 220.999, 93.405 220.998 C 94.007 220.996, 98.775 215.992, 104 209.876 C 109.225 203.761, 115.437 197.163, 117.805 195.214 C 120.172 193.264, 123.253 189.719, 124.650 187.335 C 126.047 184.951, 127.546 183, 127.981 183 C 128.416 183, 129.559 181.313, 130.521 179.250 C 131.482 177.188, 133.554 173.572, 135.124 171.215 C 136.695 168.858, 138.250 165.854, 138.580 164.537 C 138.910 163.221, 139.804 161.906, 140.566 161.613 C 141.327 161.321, 142.462 159.052, 143.086 156.571 C 143.711 154.090, 144.847 151.542, 145.611 150.908 C 146.375 150.274, 147 149.336, 147 148.823 C 147 147.704, 150.665 139.118, 152.047 137 C 153.702 134.463, 157 126.902, 157 125.645 C 157 124.991, 158.284 122.891, 159.854 120.978 C 163.053 117.081, 166 111.743, 166 109.847 C 166 109.159, 167.324 107.224, 168.943 105.548 C 170.562 103.871, 172.434 100.442, 173.103 97.926 C 174.233 93.682, 174.151 93.124, 171.972 90.176 C 170.681 88.429, 169.371 87.067, 169.062 87.150 C 168.753 87.232, 167.150 87.480, 165.500 87.701" stroke="none" fill="black" fill-rule="evenodd"/>
</svg>