<svg xmlns="http://www.w3.org/2000/svg" width="300" height="300" viewBox="0 0 300 300" version="1.1">
	<path d="M 70.305 80.170 C 69.714 80.901, 68.934 82.891, 68.571 84.591 C 67.622 89.034, 69.664 90.246, 78.789 90.654 C 83.030 90.843, 87.730 91.500, 89.233 92.114 C 90.737 92.727, 93.506 92.940, 95.387 92.587 C 97.268 92.234, 100.674 92.244, 102.955 92.609 C 106.394 93.159, 107.052 93.621, 106.802 95.311 C 106.636 96.432, 105.364 98.058, 103.975 98.924 C 100.071 101.361, 81.190 119.589, 65.460 136.107 C 61.588 140.173, 55.338 145.973, 51.571 148.996 C 42.454 156.314, 41.408 157.954, 43.398 161.803 C 45.412 165.696, 47.442 166.343, 51.313 164.323 C 53.066 163.408, 58.100 162.345, 62.500 161.960 C 66.900 161.575, 71.850 160.673, 73.500 159.955 C 75.150 159.237, 77.478 158.533, 78.672 158.391 C 79.867 158.248, 82.152 157.456, 83.749 156.630 C 85.653 155.645, 91.365 154.883, 100.327 154.418 C 112.639 153.780, 114 153.873, 114 155.355 C 114 156.260, 113.498 157, 112.885 157 C 111.294 157, 96.431 171.648, 92.592 177 C 90.817 179.475, 88.734 183.525, 87.965 186 C 87.195 188.475, 85.991 191.625, 85.289 193 C 84.563 194.422, 84.010 199.033, 84.006 203.690 C 84.001 210.846, 84.379 212.611, 87 217.663 C 88.650 220.843, 90 223.958, 90 224.585 C 90 225.732, 95.645 233.346, 99.664 237.618 C 100.854 238.883, 103.104 240.220, 104.664 240.588 C 106.224 240.956, 108.625 242.290, 110 243.552 C 113.288 246.569, 120.137 249.232, 123.564 248.825 C 128.877 248.194, 129.367 243.078, 124.362 240.500 C 123.294 239.950, 120.149 238.037, 117.372 236.250 C 114.596 234.463, 111.827 233, 111.219 233 C 110.611 233, 109.447 232.048, 108.632 230.885 C 107.817 229.721, 105.774 227.933, 104.092 226.910 C 101.278 225.198, 100.330 223.613, 95.384 212.349 C 94.623 210.616, 94 207.981, 94 206.493 C 94 201.935, 96.807 192.644, 99.980 186.696 C 103.106 180.839, 112.109 171.311, 116.806 168.889 C 118.288 168.125, 120.161 166.872, 120.968 166.104 C 122.891 164.274, 130.030 161.050, 132.220 161.022 C 133.167 161.010, 136.400 159.875, 139.406 158.500 C 142.412 157.125, 146.460 156, 148.401 156 C 152.136 156, 154 154.032, 154 150.089 C 154 145.374, 146.586 143.590, 121.930 142.372 C 107.948 141.681, 81.111 144.225, 76.381 146.689 C 74.665 147.583, 72.501 148.023, 71.573 147.666 C 70.078 147.093, 70.191 146.617, 72.561 143.509 C 74.033 141.579, 75.557 140, 75.947 140 C 76.338 140, 83.147 133.654, 91.078 125.897 C 108.414 108.945, 109.798 107.709, 113 106.323 C 114.375 105.727, 119.438 101.546, 124.250 97.030 C 131.333 90.384, 133 88.270, 133 85.933 C 133 81.381, 129.119 79.353, 123.169 80.796 C 114.779 82.830, 83.573 82.012, 73.939 79.506 C 72.305 79.080, 70.990 79.321, 70.305 80.170" stroke="none" fill="black" fill-rule="evenodd"/>
</svg>