<svg xmlns="http://www.w3.org/2000/svg" width="300" height="300" viewBox="0 0 300 300" version="1.1">
	<path d="M 153.240 62.544 C 152.027 63.394, 150.004 66.206, 148.743 68.794 C 144.648 77.199, 137.758 89.416, 135.092 93 C 133.660 94.925, 130.294 101, 127.612 106.500 C 124.930 112, 122.120 117.694, 121.368 119.154 C 120.616 120.614, 120 122.697, 120 123.782 C 120 124.867, 119.325 126.315, 118.500 127 C 117.675 127.685, 116.997 128.752, 116.994 129.372 C 116.982 131.494, 101.301 161.832, 98.178 165.775 C 92.549 172.883, 92.446 174.293, 97.057 181.084 C 99.286 184.366, 102.011 187.602, 103.112 188.276 C 105.081 189.480, 113.487 201.434, 114.722 204.787 C 115.069 205.729, 116.398 207.892, 117.676 209.594 C 118.954 211.296, 120.008 213.321, 120.019 214.094 C 120.045 216.077, 126.336 228.263, 129.421 232.307 C 130.839 234.167, 132 236.256, 132 236.949 C 132 237.643, 133.350 240.210, 135 242.655 C 136.650 245.100, 138 247.759, 138 248.564 C 138 249.369, 138.393 250.809, 138.873 251.764 C 142.603 259.183, 146 267.082, 146 268.338 C 146 270.337, 150.816 276, 152.516 276 C 155.976 276, 159.861 266.268, 157.086 264.553 C 155.917 263.831, 147 245.668, 147 244.010 C 147 243.323, 145.425 240.169, 143.500 237 C 141.575 233.831, 140 230.491, 140 229.576 C 140 228.662, 138.200 225.478, 136 222.500 C 133.800 219.522, 132 216.573, 132 215.947 C 132 215.321, 131.213 213.612, 130.250 212.150 C 127.065 207.311, 125.994 205.516, 125.387 204 C 124.737 202.378, 122.747 198.274, 120.295 193.500 C 119.448 191.850, 117.336 188.925, 115.603 187 C 108.807 179.450, 107.704 177.147, 108.335 171.818 C 108.725 168.526, 109.881 165.664, 111.818 163.195 C 113.413 161.163, 115.024 157.827, 115.398 155.782 C 115.772 153.737, 116.736 151.407, 117.539 150.604 C 118.343 149.800, 119 148.619, 119 147.979 C 119 147.339, 119.900 145.671, 121 144.273 C 122.100 142.874, 123 141.113, 123 140.358 C 123 139.182, 126.334 131.896, 129.112 127 C 130.751 124.111, 134.719 115.441, 137.423 108.836 C 138.924 105.171, 141.017 101.389, 142.076 100.431 C 143.134 99.474, 144 98.140, 144 97.467 C 144 96.795, 144.745 95.627, 145.655 94.872 C 146.565 94.118, 147.929 92.018, 148.687 90.206 C 149.444 88.395, 150.712 86.664, 151.505 86.360 C 152.298 86.056, 154.049 83.476, 155.396 80.628 C 156.744 77.780, 158.740 74.641, 159.832 73.652 C 160.924 72.664, 162.362 70.541, 163.028 68.934 C 165.529 62.895, 158.909 58.574, 153.240 62.544" stroke="none" fill="black" fill-rule="evenodd"/>
</svg>