<svg xmlns="http://www.w3.org/2000/svg" width="300" height="300" viewBox="0 0 300 300" version="1.1">
	<path d="M 41.505 151.984 C 40.542 155.017, 41.886 161.909, 44.284 166.239 C 45.424 168.295, 46.106 170.227, 45.801 170.532 C 45.496 170.837, 40.921 172.613, 35.634 174.478 C 30.347 176.343, 25.567 178.150, 25.011 178.493 C 22.165 180.252, 25.677 186.013, 29.579 185.987 C 31.830 185.972, 43.548 182.467, 46.619 180.891 C 50.942 178.670, 52.298 180.002, 54.372 188.506 C 55.444 192.903, 57.094 198.300, 58.039 200.500 C 58.983 202.700, 60.076 206.416, 60.467 208.759 C 60.859 211.101, 62.038 215.369, 63.089 218.244 C 64.140 221.119, 65 224.337, 65 225.395 C 65 226.452, 66.524 230.508, 68.386 234.409 C 70.248 238.309, 72.269 242.750, 72.877 244.278 C 74.197 247.594, 76.468 248.687, 78.513 246.989 C 80.136 245.642, 80.557 239.462, 79.087 238.554 C 78.585 238.243, 77.861 236.079, 77.478 233.745 C 77.095 231.410, 76.243 228.825, 75.583 228 C 74.924 227.175, 73.552 222.900, 72.536 218.500 C 71.519 214.100, 70.152 209.150, 69.497 207.500 C 67.068 201.374, 65.999 197.266, 65.968 193.929 C 65.951 192.043, 65.276 189.626, 64.468 188.559 C 63.661 187.491, 63 185.798, 63 184.795 C 63 183.793, 62.438 182.050, 61.750 180.921 C 59.602 177.396, 63.404 175.366, 73.711 174.532 C 78.545 174.141, 84.380 173.001, 86.679 171.999 C 90.173 170.474, 91.149 170.389, 92.639 171.478 C 94.219 172.633, 94.268 173.106, 93.071 175.640 C 92.328 177.213, 91.363 180.075, 90.927 182 C 89.023 190.393, 88.088 193.250, 86.730 194.823 C 84.648 197.237, 82.815 203.215, 83.842 204.242 C 85.294 205.694, 89.671 203.998, 92.412 200.922 C 93.835 199.325, 95 197.633, 95 197.164 C 95 196.694, 95.900 195.495, 97 194.500 C 98.100 193.505, 99 191.957, 99 191.060 C 99 190.164, 99.957 186.746, 101.128 183.465 C 102.298 180.184, 103.434 175.508, 103.652 173.073 C 103.870 170.638, 104.554 168.038, 105.171 167.294 C 106.033 166.256, 105.742 165.354, 103.919 163.413 C 101.611 160.957, 101.288 160.905, 92.522 161.564 C 87.560 161.937, 81.700 162.890, 79.500 163.682 C 77.300 164.473, 72.575 165.550, 69 166.075 C 65.425 166.599, 60.887 167.287, 58.915 167.604 L 55.329 168.180 50.915 159.340 C 47.633 152.769, 45.944 150.421, 44.336 150.192 C 42.854 149.981, 41.962 150.546, 41.505 151.984" stroke="none" fill="black" fill-rule="evenodd"/>
</svg>