<svg xmlns="http://www.w3.org/2000/svg" width="300" height="300" viewBox="0 0 300 300" version="1.1">
	<path d="M 124.750 74.080 C 122.831 75.198, 122.275 81.434, 124 82.500 C 124.550 82.840, 125 83.746, 125 84.515 C 125 85.283, 126.127 87.572, 127.505 89.602 C 130.334 93.771, 136.499 106.286, 140.509 116 C 141.984 119.575, 144.049 123.429, 145.096 124.564 C 146.143 125.700, 147 127.361, 147 128.255 C 147 129.150, 147.450 130.160, 148 130.500 C 148.550 130.840, 149.001 131.879, 149.002 132.809 C 149.004 133.739, 150.365 136.075, 152.027 138 C 153.689 139.925, 155.303 142.625, 155.613 144 C 155.923 145.375, 157.772 149.731, 159.723 153.680 L 163.269 160.861 161.044 167.680 C 159.820 171.431, 158.184 175.774, 157.409 177.331 C 156.634 178.888, 156 180.617, 156 181.173 C 156 181.729, 155.100 183.329, 154 184.727 C 152.900 186.126, 152 188.010, 152 188.914 C 152 190.706, 147.029 202.964, 145.416 205.147 C 144.299 206.660, 143.223 208.999, 140 216.924 C 138.787 219.907, 137.166 222.977, 136.397 223.746 C 135.629 224.514, 135 225.786, 135 226.571 C 135 227.357, 134.580 228, 134.067 228 C 133.554 228, 132.851 229.012, 132.505 230.250 C 131.097 235.273, 124.102 249.670, 122.370 251.108 C 120.194 252.914, 120.740 257.407, 123.445 259.948 C 127.304 263.574, 130.439 262.157, 133.889 255.226 C 135.456 252.077, 138.596 245.900, 140.865 241.500 C 143.135 237.100, 144.993 232.511, 144.996 231.302 C 144.998 230.092, 146.070 227.948, 147.378 226.537 C 148.686 225.126, 150.008 222.709, 150.317 221.166 C 150.626 219.622, 152.461 215.957, 154.395 213.020 C 156.329 210.083, 158.211 206.317, 158.577 204.651 C 158.942 202.986, 160.762 198.331, 162.621 194.307 C 164.479 190.284, 166 186.128, 166 185.072 C 166 184.017, 167.125 181.816, 168.500 180.182 C 169.875 178.548, 171 176.708, 171 176.092 C 171 175.477, 171.450 174.079, 172 172.986 C 172.550 171.894, 173.421 170.152, 173.937 169.115 C 174.452 168.079, 174.637 166.329, 174.349 165.228 C 174.061 164.127, 174.315 162.923, 174.913 162.554 C 176.745 161.421, 176.143 159.068, 172.772 154.180 C 168.988 148.695, 166 143.060, 166 141.411 C 166 140.770, 165.392 139.740, 164.649 139.124 C 163.906 138.507, 161.363 134.289, 158.997 129.751 C 156.632 125.213, 153.706 119.925, 152.495 118 C 151.283 116.075, 149.965 113.375, 149.564 112 C 147.847 106.103, 139.580 89.612, 136.416 85.774 C 135.181 84.275, 133.872 81.693, 133.508 80.036 C 133.144 78.380, 131.695 76.119, 130.288 75.012 C 127.378 72.723, 127.147 72.684, 124.750 74.080" stroke="none" fill="black" fill-rule="evenodd"/>
</svg>