<svg xmlns="http://www.w3.org/2000/svg" width="300" height="300" viewBox="0 0 300 300" version="1.1">
	<path d="M 112.667 94.667 C 110.583 96.750, 113.594 103, 116.681 103 C 117.244 103, 120.228 105.687, 123.311 108.970 C 129.377 115.432, 133.520 117.376, 135.488 114.686 C 137.060 112.536, 136.161 106.985, 134.125 106.271 C 133.231 105.958, 129.953 103.523, 126.840 100.860 C 119.963 94.978, 114.669 92.665, 112.667 94.667 M 136.667 94.667 C 135.285 96.048, 136.102 98.613, 139 102 C 140.647 103.925, 141.996 106.016, 141.998 106.646 C 142.002 108.965, 149.096 114.126, 151.841 113.807 C 155.687 113.360, 155.684 110.523, 151.831 106.080 C 149.999 103.968, 147.233 100.385, 145.685 98.120 C 143.529 94.963, 142.223 94, 140.102 94 C 138.579 94, 137.033 94.300, 136.667 94.667 M 70.618 126.525 C 69.779 127.363, 67.397 130.120, 65.323 132.650 C 63.250 135.181, 58.731 139.034, 55.281 141.213 C 51.831 143.391, 48.219 146.147, 47.253 147.337 C 46.288 148.527, 42.184 152.181, 38.133 155.459 C 34.081 158.736, 30.312 162.416, 29.756 163.635 C 28.444 166.516, 29.587 171, 31.635 171 C 34.353 171, 46.372 162.374, 53.532 155.284 C 57.284 151.569, 61.378 147.998, 62.629 147.349 C 63.880 146.699, 65.488 145.687, 66.202 145.099 C 74.326 138.407, 74.017 138.548, 76.849 140.261 C 78.307 141.144, 79.950 142.684, 80.500 143.683 C 81.050 144.682, 82.963 147.376, 84.750 149.668 C 86.537 151.961, 88 154.113, 88 154.451 C 88 155.590, 97.368 169.475, 100.177 172.500 C 113.103 186.416, 121.658 194.301, 135.221 204.798 C 143.407 211.134, 147.994 211.845, 150.419 207.156 C 151.816 204.455, 151.754 204.200, 149.195 202.082 C 147.713 200.855, 145.026 198.985, 143.225 197.925 C 141.424 196.866, 139.523 194.874, 139 193.500 C 138.397 191.915, 137.271 191, 135.922 191 C 132.874 191, 114.290 174.315, 107.703 165.663 C 103.434 160.056, 96 149.059, 96 148.352 C 96 147.452, 85.683 134.973, 82.480 132 C 80.999 130.625, 79.397 128.488, 78.919 127.250 C 77.881 124.563, 73.006 124.137, 70.618 126.525" stroke="none" fill="black" fill-rule="evenodd"/>
</svg>