<svg xmlns="http://www.w3.org/2000/svg" width="300" height="300" viewBox="0 0 300 300" version="1.1">
	<path d="M 196.116 58.631 C 194.121 60.029, 193.876 60.824, 194.412 64.175 C 194.756 66.327, 195.434 68.855, 195.919 69.794 C 197.585 73.019, 202.006 84.501, 202.003 85.595 C 201.998 87.418, 205.730 90.199, 207.676 89.823 C 210.562 89.265, 210.412 79.477, 207.455 75.500 C 206.229 73.850, 204.982 70.925, 204.684 69 C 203.633 62.201, 202.751 59.486, 201.193 58.250 C 199.179 56.652, 198.913 56.672, 196.116 58.631 M 171.713 61.621 C 170.456 62.877, 170.945 67.204, 173.047 73.433 C 174.173 76.770, 175.466 80.190, 175.920 81.033 C 176.374 81.876, 177.051 84.126, 177.423 86.033 C 179.708 97.723, 181.243 100.016, 187.740 101.443 C 192.139 102.409, 193.156 101.526, 191.438 98.233 C 190.654 96.730, 190.010 93.581, 190.006 91.236 C 190.003 88.891, 189.605 86.191, 189.122 85.236 C 187.189 81.413, 185 75.868, 185 74.795 C 185 74.169, 184.288 72.870, 183.417 71.909 C 182.547 70.947, 180.796 68.211, 179.527 65.830 C 177.312 61.676, 173.637 59.696, 171.713 61.621 M 98.360 72.505 C 97.507 74.727, 98.486 79.753, 101.047 86.293 C 102.659 90.411, 103.005 92.395, 102.243 93.157 C 101.654 93.746, 97.421 95.046, 92.836 96.047 C 74.796 99.982, 74.686 100.038, 75.177 105.022 C 75.650 109.822, 77.772 110.700, 84.017 108.683 C 86.884 107.758, 90.605 107, 92.286 107 C 93.967 107, 96.053 106.365, 96.921 105.589 C 97.790 104.813, 100.602 103.867, 103.172 103.487 C 107.653 102.825, 107.908 102.921, 109.422 105.849 C 110.290 107.527, 111 109.739, 111 110.763 C 111 111.788, 112.125 114.958, 113.500 117.808 C 114.875 120.658, 116 123.449, 116 124.009 C 116 124.569, 116.521 125.861, 117.158 126.881 C 118.921 129.704, 117.649 131.489, 112.854 132.923 C 110.459 133.639, 106.377 135.300, 103.783 136.613 C 101.189 137.926, 98.392 139, 97.568 139 C 96.744 139, 93.917 139.706, 91.285 140.569 C 78.048 144.908, 74.837 148.069, 79.080 152.585 C 81.841 155.524, 84.890 155.661, 88.273 153 C 89.671 151.900, 91.538 151, 92.421 151 C 93.305 151, 94.809 150.616, 95.764 150.147 C 100.798 147.674, 105.180 145.818, 111.421 143.515 C 115.228 142.110, 118.935 140.469, 119.658 139.869 C 121.705 138.170, 123.944 139.617, 125.640 143.736 C 126.493 145.806, 127.790 148.850, 128.522 150.500 C 129.255 152.150, 130.151 155.410, 130.514 157.745 C 130.877 160.079, 131.585 162.243, 132.087 162.554 C 132.589 162.864, 133 163.998, 133 165.073 C 133 166.148, 133.377 167.809, 133.838 168.764 C 134.299 169.719, 135.874 172.982, 137.338 176.016 C 138.802 179.050, 140 182.087, 140 182.766 C 140 183.445, 140.620 184, 141.378 184 C 146.474 184, 146.559 172.980, 141.558 160.573 C 139.738 156.061, 138.250 151.168, 138.250 149.700 C 138.250 148.232, 137.408 145.786, 136.379 144.265 C 135.349 142.744, 133.930 140.179, 133.224 138.565 C 131.047 133.585, 131.516 133.370, 152.922 129.557 C 157.554 128.732, 161.751 127.649, 162.250 127.150 C 162.748 126.652, 163.009 124.961, 162.828 123.394 C 162.540 120.895, 161.947 120.435, 158 119.650 C 149.820 118.024, 144.188 118.895, 135.199 123.175 C 131.734 124.825, 128.359 125.958, 127.699 125.692 C 127.040 125.427, 125.684 123.025, 124.687 120.355 C 123.691 117.685, 122.028 113.700, 120.992 111.500 C 118.770 106.779, 117.839 100.878, 119.015 98.975 C 119.475 98.231, 122.360 97.257, 125.426 96.811 C 128.492 96.365, 133.533 95.632, 136.630 95.183 C 139.988 94.696, 142.756 93.687, 143.490 92.683 C 144.167 91.757, 145.605 91, 146.686 91 C 147.767 91, 149.711 89.872, 151.006 88.493 L 153.361 85.987 150.494 82.993 C 148.345 80.750, 146.720 80, 144.013 80 C 142.026 80, 139.935 80.465, 139.366 81.034 C 138.797 81.603, 136.120 82.468, 133.416 82.957 C 130.712 83.445, 125.350 85.005, 121.500 86.423 C 113.752 89.277, 112.015 89.160, 111.968 85.781 C 111.951 84.527, 111.276 82.626, 110.468 81.559 C 109.661 80.491, 109 78.611, 109 77.381 C 109 72.924, 99.814 68.714, 98.360 72.505 M 79.666 219.167 C 78.750 219.680, 78 220.498, 78 220.986 C 78 223.358, 101.636 245, 104.226 245 C 105.053 245, 106.805 245.845, 108.118 246.879 C 111.456 249.504, 125.180 253.173, 132.270 253.336 C 137.439 253.455, 138.452 253.160, 140.177 251.030 C 142.030 248.741, 142.047 248.508, 140.443 247.334 C 139.501 246.646, 136.653 245.783, 134.115 245.418 C 131.577 245.053, 127.929 244.112, 126.008 243.327 C 124.088 242.542, 120.542 241.458, 118.127 240.916 C 115.162 240.252, 111.350 237.997, 106.379 233.966 C 102.331 230.685, 98.771 228, 98.467 228 C 98.163 228, 95.507 226.182, 92.565 223.961 C 86.531 219.406, 82.149 217.777, 79.666 219.167" stroke="none" fill="black" fill-rule="evenodd"/>
</svg>