<svg xmlns="http://www.w3.org/2000/svg" width="300" height="300" viewBox="0 0 300 300" version="1.1">
	<path d="M 152.304 104.096 C 150.325 106.075, 135.748 107.960, 122.278 107.980 C 112.591 107.995, 106.443 108.568, 99.278 110.125 C 86.134 112.983, 84.478 114.569, 89.449 119.540 C 91.444 121.535, 92.350 121.817, 94.333 121.063 C 96.854 120.105, 117.771 118.195, 133.500 117.487 C 138.450 117.264, 144.398 116.792, 146.718 116.439 C 150.829 115.812, 150.937 115.868, 151 118.648 C 151.035 120.217, 151.225 126, 151.421 131.500 C 151.617 137, 151.516 141.935, 151.196 142.467 C 150.875 142.999, 150.478 146.979, 150.313 151.311 C 150.149 155.642, 149.564 161.957, 149.014 165.343 C 148.465 168.729, 148.012 173.906, 148.008 176.846 C 148.003 179.786, 147.303 184.590, 146.451 187.522 C 144.995 192.529, 144.708 192.851, 141.701 192.848 C 139.940 192.846, 134.900 193.356, 130.500 193.982 C 126.100 194.607, 120.250 195.297, 117.500 195.516 C 114.750 195.735, 110.925 196.194, 109 196.537 C 107.075 196.880, 101.963 197.799, 97.640 198.580 C 93.316 199.361, 85.053 200, 79.276 200 C 70.330 200, 68.196 200.324, 64.886 202.184 C 62.749 203.385, 61 205.107, 61 206.010 C 61 208.421, 65.563 212.390, 67.176 211.383 C 67.904 210.928, 75.700 210.262, 84.500 209.902 C 93.300 209.543, 104.100 208.541, 108.500 207.675 C 112.900 206.810, 120.100 205.841, 124.500 205.521 C 128.900 205.201, 137 204.267, 142.500 203.446 C 148 202.624, 154.376 201.772, 156.670 201.553 C 158.963 201.333, 165.263 200.623, 170.670 199.975 C 176.750 199.247, 185.077 199.057, 192.500 199.477 C 206.648 200.279, 209.544 199.558, 210.203 195.070 C 210.946 190.007, 208.530 188.730, 197.753 188.491 C 192.664 188.378, 182.425 188.747, 175 189.309 C 167.575 189.872, 160.150 190.370, 158.500 190.416 L 155.500 190.500 155.862 182.500 C 156.062 178.100, 156.512 174.050, 156.862 173.500 C 157.213 172.950, 157.539 170.925, 157.586 169 C 157.633 167.075, 158.197 162.350, 158.838 158.500 C 161.465 142.737, 162.037 136.800, 162.334 122.183 C 162.645 106.939, 162.635 106.858, 160.188 104.933 C 157.460 102.788, 153.982 102.418, 152.304 104.096" stroke="none" fill="black" fill-rule="evenodd"/>
</svg>