<svg xmlns="http://www.w3.org/2000/svg" width="300" height="300" viewBox="0 0 300 300" version="1.1">
	<path d="M 118.500 92.360 C 117.218 94.317, 117.033 97.353, 117.420 110.145 C 117.676 118.629, 117.455 128.255, 116.929 131.535 C 116.403 134.816, 115.535 141.527, 115 146.450 C 114.454 151.480, 113.428 156.001, 112.656 156.772 C 111.902 157.527, 108.062 158.643, 104.123 159.253 C 95.467 160.593, 94.217 159.902, 95.926 154.726 C 96.553 152.823, 97.229 143.445, 97.427 133.884 C 97.625 124.323, 98.082 114.925, 98.441 113 C 99.596 106.823, 93.140 99.876, 90.309 104.250 C 89.864 104.938, 89.213 114.275, 88.861 125 C 88.510 135.725, 87.696 146.975, 87.053 150 C 84.003 164.333, 84.515 166.860, 90.897 168.966 C 94.077 170.016, 96.110 170.053, 100.625 169.146 C 103.765 168.516, 107.994 168, 110.023 168 L 113.713 168 114.241 183.719 C 114.532 192.364, 114.580 199.930, 114.349 200.532 C 114.070 201.260, 108.823 201.624, 98.715 201.617 C 75.954 201.601, 61.246 204.589, 59.315 209.622 C 58.233 212.442, 60.723 216, 63.779 216 C 65.330 216, 67.087 215.513, 67.681 214.919 C 68.276 214.324, 71.403 213.670, 74.631 213.466 C 77.859 213.261, 82.750 212.610, 85.500 212.018 C 91.878 210.646, 154.922 211.352, 157.677 212.827 C 159.582 213.847, 174.917 215.445, 180.380 215.193 C 184.458 215.005, 188 212.405, 188 209.599 C 188 205.975, 185.973 205.049, 178.436 205.233 C 174.621 205.326, 168.575 204.830, 165 204.130 C 161.425 203.431, 150.867 202.553, 141.539 202.180 L 124.578 201.500 123.865 198.005 C 122.645 192.023, 122.398 167.206, 123.547 166.055 C 124.123 165.478, 128.398 164.799, 133.047 164.545 C 145.235 163.881, 148.909 162.928, 154.279 159.037 L 159.059 155.574 158.346 151.037 C 157.955 148.542, 157.716 145.713, 157.817 144.750 C 157.918 143.787, 158.048 141.988, 158.106 140.750 C 158.165 139.512, 158.586 132.194, 159.043 124.486 C 160.023 107.930, 159.497 102.337, 156.825 100.907 C 153.965 99.376, 150.775 100.716, 151.541 103.128 C 151.884 104.210, 151.693 108.111, 151.117 111.797 C 150.541 115.484, 149.845 123.675, 149.571 130 C 148.785 148.150, 148.211 150.926, 145.112 151.597 C 143.675 151.908, 141.375 152.535, 140 152.989 C 138.625 153.444, 134.645 154.378, 131.156 155.065 C 125.822 156.114, 124.674 156.090, 123.947 154.914 C 123.053 153.468, 123.446 146.306, 125.038 135 C 125.935 128.626, 126.381 113.990, 126.075 100.896 C 125.957 95.820, 125.459 93.796, 123.922 92.146 C 121.371 89.408, 120.409 89.446, 118.500 92.360" stroke="none" fill="black" fill-rule="evenodd"/>
</svg>