<svg xmlns="http://www.w3.org/2000/svg" width="300" height="300" viewBox="0 0 300 300" version="1.1">
	<path d="M 148.740 46.085 C 146.821 47.203, 144 53.150, 144 56.078 C 144 57.087, 142.650 60.202, 141 63 C 139.350 65.798, 138 68.752, 138 69.564 C 138 70.376, 136.977 72.718, 135.726 74.770 C 134.475 76.821, 132.835 80.300, 132.080 82.500 C 131.326 84.700, 129.649 88.067, 128.354 89.982 C 127.059 91.897, 126 94.205, 126 95.110 C 126 96.015, 125.346 97.298, 124.547 97.961 C 123.362 98.944, 120 108.145, 120 110.404 C 120 110.732, 121.047 111, 122.326 111 C 124.585 111, 128.999 107.321, 129.001 105.436 C 129.002 104.921, 130.715 102.025, 132.808 99 C 137.048 92.871, 139.859 87.709, 142.610 81 C 143.625 78.525, 145.170 75.970, 146.043 75.323 C 147.651 74.130, 149.483 70.320, 152.536 61.822 C 153.460 59.250, 154.957 56.325, 155.862 55.322 C 157.775 53.204, 157.495 49.258, 155.254 46.750 C 153.498 44.786, 151.349 44.566, 148.740 46.085 M 80.230 73.250 C 79.672 73.938, 78.954 79, 78.636 84.500 C 78.023 95.080, 74.274 111.736, 70.970 118.562 C 69.887 120.800, 69 123.299, 69 124.116 C 69 124.932, 68.630 126.028, 68.177 126.550 C 67.724 127.073, 66.495 130.200, 65.446 133.500 C 64.396 136.800, 62.591 141.300, 61.435 143.500 C 60.278 145.700, 58.285 150.200, 57.005 153.500 C 55.726 156.800, 54.129 160.175, 53.458 161 C 52.786 161.825, 51.898 163.625, 51.484 165 C 51.069 166.375, 50.116 168.388, 49.365 169.473 C 47.482 172.194, 47.691 175.046, 49.990 178 C 51.922 180.483, 51.957 180.488, 55.120 178.709 C 58.293 176.925, 58.315 176.928, 61.152 179.646 C 62.719 181.147, 64 183.221, 64 184.257 C 64 186.929, 69.605 194.740, 72.087 195.528 C 74.700 196.357, 79 192.596, 79 189.481 C 79 188.287, 78.063 186.462, 76.917 185.425 C 75.772 184.389, 74.195 182.181, 73.414 180.520 C 71.087 175.575, 66.408 169.695, 64.129 168.852 C 62.958 168.419, 62 167.453, 62 166.705 C 62 165.013, 66.434 153.703, 68.941 149 C 69.967 147.075, 71.480 143.250, 72.302 140.500 C 73.125 137.750, 74.743 133.325, 75.899 130.667 C 77.055 128.009, 78 124.802, 78 123.540 C 78 122.277, 78.619 120.731, 79.375 120.103 C 80.838 118.890, 82.112 114.531, 84.083 104 C 84.752 100.425, 85.665 97.024, 86.112 96.443 C 86.559 95.862, 87.564 91.137, 88.347 85.943 C 89.571 77.820, 89.573 76.186, 88.362 74.250 C 86.794 71.744, 81.938 71.147, 80.230 73.250 M 150.872 81.654 C 149.793 82.955, 149.500 88.434, 149.500 107.292 C 149.500 127.602, 149.270 131.393, 148 132.044 C 138.043 137.149, 129.057 139.414, 113.104 140.839 C 105.448 141.523, 103.027 143.023, 104.286 146.302 C 105.431 149.287, 118.736 151.282, 122.843 149.084 C 123.784 148.581, 128.048 147.683, 132.318 147.089 C 136.589 146.495, 141.302 145.395, 142.791 144.645 C 144.281 143.894, 146.707 142.992, 148.182 142.638 C 151.911 141.745, 151.976 142.058, 152.090 161.500 C 152.100 163.150, 152.296 167.200, 152.525 170.500 C 152.755 173.800, 153.201 181.225, 153.516 187 C 153.831 192.775, 154.481 202.428, 154.960 208.450 C 155.438 214.473, 155.611 224.823, 155.344 231.450 C 155.077 238.078, 154.771 246.425, 154.665 250 C 154.558 253.575, 154.196 256.950, 153.860 257.500 C 153.524 258.050, 153.173 263.450, 153.080 269.500 C 152.905 280.822, 152.485 289.689, 151.812 296.250 L 151.428 300 156.042 300 L 160.656 300 160.856 291.859 C 160.966 287.381, 161.236 283.427, 161.455 283.072 C 161.675 282.717, 162.158 274.343, 162.528 264.463 C 162.898 254.583, 163.373 242.675, 163.583 238 C 164.391 219.995, 164.407 217.246, 163.752 209 C 163.381 204.325, 162.798 191.275, 162.456 180 C 162.114 168.725, 161.451 156.937, 160.981 153.804 C 160.170 148.384, 160.479 139.652, 161.543 137.930 C 162.189 136.886, 167.979 134, 169.429 134 C 170.463 134, 176.085 130.546, 188.585 122.230 C 197.201 116.499, 201.563 107.963, 197.800 104.200 C 195.973 102.373, 194.625 102.720, 190.388 106.107 C 188.249 107.816, 185.479 109.608, 184.232 110.089 C 182.985 110.570, 181.558 112.033, 181.061 113.339 C 179.703 116.910, 165.174 127, 161.389 127 C 159.798 127, 159.111 120.785, 158.518 101 C 158.225 91.231, 157.542 83.582, 156.843 82.250 C 155.450 79.597, 152.799 79.332, 150.872 81.654" stroke="none" fill="black" fill-rule="evenodd"/>
</svg>