<svg xmlns="http://www.w3.org/2000/svg" width="300" height="300" viewBox="0 0 300 300" version="1.1">
	<path d="M 122.097 69.903 C 120.495 71.505, 120.197 73.283, 120.213 81.153 L 120.231 90.500 114.116 102.962 C 110.752 109.816, 108 115.989, 108 116.681 C 108 117.373, 107.100 119.542, 106 121.500 C 104.900 123.458, 104 125.504, 104 126.046 C 104 126.587, 102.630 129.386, 100.955 132.265 C 96.394 140.106, 95.704 141.219, 93.253 144.683 C 92.014 146.434, 91 148.246, 91 148.709 C 91 149.173, 88.975 152.806, 86.500 156.783 C 84.025 160.760, 82 164.303, 82 164.656 C 82 165.009, 78.249 170.518, 73.664 176.899 C 69.079 183.280, 63.283 191.694, 60.783 195.597 C 58.283 199.501, 54.871 203.667, 53.201 204.857 C 51.426 206.121, 48.675 210.032, 46.582 214.269 C 41.324 224.911, 41.783 226.108, 49.200 221.091 C 54.208 217.702, 56.809 214.951, 59.928 209.737 C 61.166 207.668, 62.926 205.573, 63.839 205.082 C 64.753 204.592, 66.772 201.672, 68.326 198.595 C 69.880 195.518, 71.554 193, 72.045 193 C 72.537 193, 74.524 190.637, 76.461 187.750 C 78.398 184.863, 81.562 180.475, 83.492 178 C 85.421 175.525, 87.305 172.825, 87.677 172 C 88.048 171.175, 89.415 169.086, 90.714 167.357 C 92.012 165.628, 95.040 160.467, 97.441 155.889 C 99.843 151.310, 102.308 147.397, 102.920 147.193 C 103.531 146.990, 105.330 148.213, 106.917 149.911 C 108.504 151.610, 110.492 153, 111.334 153 C 112.176 153, 113.119 153.787, 113.430 154.750 C 113.741 155.713, 115.234 157.282, 116.747 158.238 C 119.250 159.818, 126.309 165.172, 129.963 168.263 C 131.684 169.717, 133.273 170.701, 138.864 173.770 C 141.139 175.019, 143 176.460, 143 176.972 C 143 177.485, 144.916 179.222, 147.258 180.833 C 149.600 182.445, 155.787 188.090, 161.008 193.378 C 166.229 198.666, 171.264 203.242, 172.199 203.548 C 173.133 203.853, 174.158 204.923, 174.477 205.927 C 175.180 208.141, 186.168 213.258, 189.273 212.817 C 191.087 212.559, 191.441 211.956, 191.184 209.569 C 190.854 206.517, 186.736 201.942, 179.470 196.558 C 177.287 194.940, 174.575 192.690, 173.444 191.558 C 163.531 181.636, 152.345 172.521, 138 162.678 C 128.828 156.384, 125.636 154.007, 122.500 151.132 C 115.449 144.669, 111.974 142.742, 108.414 143.320 C 106.536 143.625, 105.015 143.565, 105.033 143.187 C 105.051 142.809, 106.401 140.250, 108.033 137.500 C 109.665 134.750, 111.682 131.150, 112.515 129.500 C 113.348 127.850, 114.431 125.825, 114.921 125 C 116.696 122.015, 121 111.214, 121 109.747 C 121 108.921, 121.675 107.685, 122.500 107 C 123.325 106.315, 124 105.346, 124 104.845 C 124 104.345, 124.748 102.263, 125.662 100.218 C 128.768 93.269, 129.970 89.506, 129.985 86.684 C 129.993 85.136, 130.485 82.963, 131.077 81.856 C 131.892 80.333, 131.771 79.037, 130.577 76.521 C 129.710 74.693, 129 72.773, 129 72.254 C 129 71.211, 125.733 68, 124.671 68 C 124.302 68, 123.144 68.856, 122.097 69.903" stroke="none" fill="black" fill-rule="evenodd"/>
</svg>