<svg xmlns="http://www.w3.org/2000/svg" width="300" height="300" viewBox="0 0 300 300" version="1.1">
	<path d="M 101.441 28.422 C 99.858 29.582, 99.537 30.913, 99.701 35.629 C 99.931 42.252, 98.928 44, 94.897 44 C 91.656 44, 79.891 48.469, 75.750 51.274 C 71.997 53.816, 71.871 59.058, 75.516 61.009 C 77.679 62.166, 78.526 62.120, 81.550 60.678 C 83.485 59.755, 85.672 59, 86.411 59 C 87.150 59, 88.337 58.299, 89.048 57.442 C 90.818 55.310, 96.288 53.140, 100.774 52.790 C 104.969 52.463, 104.291 50.713, 107.132 69.211 C 108.310 76.877, 108.301 76.941, 105.637 80.211 C 99.184 88.130, 97.680 90.910, 98.994 92.493 C 100.723 94.576, 103.349 94.377, 105.500 92 C 106.495 90.900, 108.365 90, 109.655 90 C 111.705 90, 112 90.480, 112 93.812 C 112 96.876, 111.420 98.053, 109.040 99.812 C 105.463 102.457, 104.508 102.524, 102.797 100.250 C 102.073 99.287, 98.924 96.137, 95.800 93.250 C 90.950 88.767, 89.544 88, 86.182 88 C 81.576 88, 79.726 89.753, 80.178 93.690 C 80.439 95.967, 81.541 97.027, 85.987 99.279 C 89.005 100.807, 93.132 103.676, 95.158 105.655 C 98.422 108.842, 99.245 109.177, 102.367 108.591 C 105.287 108.043, 106.080 108.280, 106.984 109.971 C 108.005 111.878, 108.267 111.913, 110.989 110.506 C 112.590 109.678, 114.148 109, 114.450 109 C 115.271 109, 115.084 116.343, 114.235 117.501 C 112.911 119.304, 90.592 129.908, 86.701 130.582 C 79.998 131.744, 78.380 135.005, 82.265 139.522 C 84.088 141.641, 85.066 142.022, 87.265 141.470 C 88.769 141.092, 90 140.438, 90 140.017 C 90 139.595, 91.320 138.986, 92.933 138.663 C 94.546 138.341, 100.834 135.608, 106.906 132.591 C 118.619 126.770, 119.628 126.762, 119.166 132.486 C 119.032 134.144, 119.393 137.937, 119.967 140.915 C 120.857 145.532, 120.766 146.601, 119.350 148.165 C 118.437 149.174, 117.291 150, 116.803 150 C 116.316 150, 113.123 151.301, 109.708 152.892 C 106.294 154.483, 101.700 156.536, 99.500 157.455 C 94.004 159.750, 75.288 163.889, 65 165.085 C 54.081 166.353, 54 166.389, 54 169.933 C 54 176.576, 61.915 176.597, 88 170.027 C 89.925 169.542, 94.650 168.438, 98.500 167.574 C 102.350 166.710, 106.719 165.102, 108.210 164.001 C 109.700 162.901, 111.552 162, 112.325 162 C 113.098 162, 114.874 161.100, 116.273 160 C 118.348 158.368, 122.750 157.236, 123.082 158.250 C 123.127 158.387, 123.391 162.651, 123.668 167.725 L 124.173 176.950 120.836 178.428 C 119.001 179.241, 112.379 181.940, 106.120 184.427 C 91.249 190.333, 81.431 197.488, 80.481 203.112 C 79.685 207.821, 80.355 209, 83.827 209 C 86.462 209, 91.533 206.116, 97.371 201.296 C 98.950 199.992, 101.650 198.263, 103.371 197.452 C 105.092 196.642, 109.875 194.195, 114 192.015 C 124.856 186.277, 125.458 186.428, 126.919 195.250 C 128.391 204.132, 129.765 218.046, 130.549 232 C 131.198 243.533, 128.825 271.575, 127.051 273.349 C 126.473 273.927, 126 275.850, 126 277.623 C 126 281.850, 121.879 286.744, 117.652 287.537 C 115.204 287.997, 112.531 287.280, 106.581 284.569 C 98.170 280.736, 94.367 277.293, 77.232 258 C 68.017 247.625, 62.491 243.718, 57.704 244.196 C 53.199 244.645, 53.361 246.419, 58.247 250.163 C 63.508 254.193, 73.378 264.951, 80.614 274.539 C 85.482 280.991, 97.831 293, 99.598 293 C 100.007 293, 103.238 294.411, 106.777 296.135 C 110.316 297.859, 115.205 299.494, 117.642 299.769 C 121.899 300.249, 122.248 300.078, 126.605 295.384 C 132.359 289.183, 135.659 283.585, 136.557 278.500 C 136.945 276.300, 137.693 273.668, 138.219 272.652 C 139.897 269.410, 139.364 208.970, 137.560 197.905 C 135.879 187.590, 136.529 182.850, 139.820 181.441 C 140.744 181.045, 144.875 180.152, 149 179.458 C 164.592 176.832, 169.227 174.641, 167.687 170.627 C 166.537 167.631, 162.463 166.527, 157.996 168.001 C 155.793 168.729, 153.728 169.061, 153.407 168.740 C 153.086 168.419, 153.918 166.209, 155.254 163.829 C 156.591 161.448, 158.969 154.851, 160.537 149.168 L 163.390 138.836 168.174 136.412 C 177.039 131.920, 183.994 129.748, 187.343 130.428 C 189.757 130.918, 192.082 130.295, 197.218 127.784 C 200.913 125.978, 204.185 123.874, 204.491 123.109 C 204.796 122.344, 204.350 120.657, 203.500 119.359 C 201.755 116.697, 197.430 116.278, 190.500 118.099 C 188.300 118.678, 184.700 119.508, 182.500 119.944 C 178.215 120.795, 170.673 124.089, 167.653 126.431 C 165.413 128.167, 163 127.435, 163 125.020 C 163 122.409, 159.342 114.608, 157.286 112.834 C 151.300 107.669, 139.607 106.319, 132.739 110 C 128.291 112.384, 125.428 112.557, 124.634 110.488 C 123.486 107.498, 126.077 104.267, 130.843 102.746 C 134.832 101.472, 135.558 100.818, 136.142 97.962 C 136.603 95.705, 136.331 93.908, 135.285 92.313 C 133.867 90.148, 133.931 89.693, 136.145 86.236 C 137.461 84.181, 139.144 81.150, 139.885 79.500 C 140.627 77.850, 141.631 75.719, 142.117 74.764 C 143.876 71.305, 143.111 67.233, 140.284 65.008 C 136.418 61.968, 129.337 63.046, 122.746 67.678 C 116.171 72.300, 115.407 71.493, 114.747 59.240 C 114.203 49.142, 114.781 47, 118.053 47 C 119.048 47, 123.605 45.838, 128.181 44.418 C 132.756 42.998, 138.250 41.331, 140.390 40.712 C 146.170 39.041, 153 34.196, 153 31.766 C 153 27.255, 146.852 25.632, 142.210 28.917 C 140.719 29.971, 136.350 31.799, 132.500 32.979 C 128.650 34.159, 122.711 36.037, 119.302 37.153 C 112.443 39.399, 111 39.088, 111 35.364 C 111 32.963, 106.201 27, 104.268 27 C 103.781 27, 102.509 27.640, 101.441 28.422 M 124.250 77.566 C 120.167 80.013, 120 80.307, 120 85.057 C 120 88.353, 120.417 89.995, 121.250 89.985 C 123.232 89.960, 124.291 88.853, 127.753 83.184 C 132.944 74.685, 131.886 72.989, 124.250 77.566 M 140.500 117.961 C 139.400 118.416, 136.581 119.360, 134.236 120.059 C 131.890 120.758, 129.475 121.928, 128.868 122.659 C 127.821 123.921, 128.349 136.812, 129.630 141.250 C 130.304 143.586, 133.518 143.461, 137.598 140.939 C 139.432 139.806, 143.760 137.435, 147.216 135.670 L 153.500 132.461 153.163 127.981 C 152.779 122.870, 151 120.445, 146.148 118.417 C 144.282 117.638, 142.698 117.030, 142.628 117.068 C 142.558 117.105, 141.600 117.507, 140.500 117.961 M 144.921 146.923 C 142.490 148.530, 139.296 150.146, 137.824 150.513 C 133.132 151.682, 131.690 154.249, 132.209 160.504 C 132.463 163.565, 133.162 166.562, 133.762 167.162 C 135.400 168.800, 139.944 167.272, 142.923 164.082 C 147.028 159.688, 152.758 147.035, 151.537 145.060 C 150.567 143.490, 149.779 143.711, 144.921 146.923" stroke="none" fill="black" fill-rule="evenodd"/>
</svg>