<svg xmlns="http://www.w3.org/2000/svg" width="300" height="300" viewBox="0 0 300 300" version="1.1">
	<path d="M 118 47.728 C 117.175 48.041, 115.193 49.385, 113.596 50.714 C 109.598 54.040, 98.718 59.309, 91.500 61.414 C 88.200 62.377, 84.150 63.772, 82.500 64.514 C 80.850 65.256, 76.350 66.816, 72.500 67.981 C 61.484 71.312, 55.775 74.836, 54.721 78.954 C 53.208 84.866, 56.713 85.903, 64.619 81.881 C 68.067 80.126, 70.463 81.145, 70.799 84.509 C 71.131 87.834, 73.594 96.365, 75.150 99.581 C 76.866 103.128, 74.883 153.853, 72.450 168.622 L 71.771 172.745 64.943 173.872 C 61.187 174.493, 56.401 175.011, 54.307 175.024 C 46.683 175.071, 24.826 181.895, 19.165 185.996 C 14.526 189.356, 13.912 191.912, 17 195 C 19.649 197.649, 22.764 197.524, 27.072 194.597 C 29.018 193.275, 33.005 191.482, 35.933 190.613 C 38.861 189.743, 41.795 188.585, 42.453 188.039 C 43.111 187.493, 46.990 186.764, 51.074 186.419 C 55.158 186.074, 60.975 185.191, 64 184.457 C 67.025 183.723, 74.450 182.823, 80.500 182.458 C 86.550 182.092, 93.525 181.360, 96 180.831 C 103.331 179.264, 172.951 178.111, 178.909 179.458 C 181.817 180.115, 182.586 179.881, 184.137 177.864 C 185.971 175.480, 186.687 168.543, 185.195 167.620 C 184.752 167.347, 171.139 167.536, 154.945 168.041 C 109.868 169.446, 100.079 169.896, 92.621 170.906 C 88.837 171.419, 85.156 171.613, 84.440 171.338 C 82.793 170.706, 82.701 159.893, 84.207 144 C 84.807 137.675, 85.402 130.312, 85.529 127.639 C 85.778 122.410, 87.849 119.619, 93.589 116.776 C 97.423 114.877, 107.833 112.499, 108.666 113.333 C 109.026 113.693, 108.851 116.353, 108.276 119.244 C 107.702 122.135, 107.151 129.225, 107.053 135 C 106.955 140.775, 106.273 148.200, 105.537 151.500 C 103.846 159.079, 104.028 162.382, 106.157 162.792 C 108.784 163.298, 112.522 157.170, 114.263 149.500 C 116.694 138.796, 118.676 113.276, 117.191 111.791 C 115.326 109.926, 115.785 108.271, 118.345 107.628 C 122.047 106.699, 132 96.591, 132 93.761 C 132 91.570, 128.391 87, 126.660 87 C 126.269 87, 123.047 89.700, 119.500 93 C 115.953 96.300, 112.379 99, 111.559 99 C 110.739 99, 108.590 99.623, 106.784 100.385 C 90.161 107.397, 87.812 108.212, 86.885 107.285 C 86.337 106.737, 85.246 102.607, 84.460 98.108 C 83.675 93.610, 82.637 89.157, 82.153 88.214 C 81.670 87.271, 80.987 84.620, 80.637 82.323 C 80.078 78.662, 80.308 77.903, 82.491 76.186 C 83.861 75.108, 86.674 73.910, 88.741 73.523 C 90.809 73.137, 92.950 72.471, 93.500 72.043 C 94.050 71.615, 97.364 70.288, 100.865 69.094 C 104.366 67.900, 109.033 65.928, 111.235 64.711 C 113.437 63.495, 117.024 61.535, 119.205 60.355 C 123.902 57.815, 129 53.138, 129 51.370 C 129 48.298, 122.320 46.087, 118 47.728 M 152 173 C 152 173.550, 152.900 174, 154 174 C 155.100 174, 156 173.550, 156 173 C 156 172.450, 155.100 172, 154 172 C 152.900 172, 152 172.450, 152 173 M 67.557 199.223 C 66.701 200.445, 66 202.064, 66 202.821 C 66 204.322, 48.103 240.633, 44.964 245.500 C 41.673 250.604, 40.757 253.365, 41.814 255 C 44.157 258.626, 51.133 253.933, 54.479 246.480 C 55.225 244.819, 56.772 242.611, 57.917 241.575 C 59.063 240.538, 60 239.056, 60 238.280 C 60 236.412, 68.216 220.894, 71.450 216.655 C 72.852 214.816, 74 212.621, 74 211.778 C 74 210.935, 74.675 209.685, 75.500 209 C 77.314 207.495, 77.524 199.924, 75.800 198.200 C 73.811 196.211, 69.272 196.774, 67.557 199.223" stroke="none" fill="black" fill-rule="evenodd"/>
</svg>