<svg xmlns="http://www.w3.org/2000/svg" width="300" height="300" viewBox="0 0 300 300" version="1.1">
	<path d="M 144 82.500 C 143.315 83.325, 142.330 84, 141.811 84 C 141.291 84, 139.434 85.073, 137.683 86.384 C 135.932 87.695, 133.375 89.101, 132 89.507 C 130.625 89.914, 126.706 91.541, 123.292 93.123 C 119.877 94.705, 116.473 96, 115.726 96 C 114.980 96, 110.499 98.025, 105.770 100.500 C 101.040 102.975, 96.412 105, 95.486 105 C 94.560 105, 92.384 105.618, 90.651 106.374 C 88.918 107.129, 84.575 108.490, 81 109.398 C 77.425 110.305, 71.889 112.001, 68.697 113.166 C 63.182 115.179, 62.909 115.437, 63.197 118.392 C 63.484 121.335, 63.712 121.491, 67.500 121.324 C 73.966 121.040, 81.264 119.497, 84.700 117.686 C 88.030 115.932, 92.695 115.498, 94.612 116.765 C 95.698 117.483, 96.013 118.692, 98.062 130 C 99.082 135.630, 99.316 180.904, 98.390 193.500 C 97.904 200.104, 97.860 203.589, 98.132 213.793 C 98.195 216.154, 98.076 218.257, 97.867 218.467 C 97.658 218.676, 90.740 219.330, 82.493 219.920 C 74.247 220.511, 64.575 221.250, 61 221.562 C 57.425 221.875, 52.925 222.239, 51 222.372 C 43.035 222.923, 38.409 228.284, 41.766 233.076 C 42.988 234.821, 43.880 235.077, 46.873 234.542 C 48.868 234.186, 52.975 233.764, 56 233.605 C 59.025 233.446, 65.775 232.799, 71 232.166 C 87.636 230.152, 121.293 227.844, 132 227.982 C 135.575 228.029, 140.975 227.355, 144 226.486 C 151.928 224.208, 158.467 223.844, 213 222.643 L 219.500 222.500 219.178 219 C 219.001 217.075, 217.857 214.479, 216.636 213.231 L 214.417 210.962 188.917 212.002 C 174.892 212.574, 161.860 213.276, 159.958 213.562 C 153.575 214.520, 134.669 216.002, 134.244 215.577 C 134.013 215.346, 134.714 213.884, 135.803 212.329 C 137.333 210.142, 138.055 206.462, 138.987 196.113 C 139.650 188.750, 140.088 179.300, 139.962 175.113 C 139.835 170.926, 139.804 164.125, 139.893 160 L 140.053 152.500 145.277 149.205 C 148.149 147.393, 151.775 145.642, 153.334 145.314 C 156.877 144.567, 160.025 138.856, 158.360 136.196 C 156.907 133.875, 152.509 133.531, 148.516 135.426 C 146.691 136.291, 144.765 137, 144.237 137 C 142.981 137, 132.668 141.894, 122 147.552 C 110.239 153.790, 109.649 153.584, 108.893 143 C 108.559 138.325, 107.727 132.106, 107.045 129.179 C 106.362 126.253, 106.092 122.322, 106.445 120.443 C 106.815 118.470, 106.589 116.100, 105.910 114.831 C 104.906 112.955, 105.062 112.368, 106.978 110.817 C 108.212 109.818, 110.005 109, 110.962 109 C 111.919 109, 114.682 107.949, 117.101 106.663 C 119.520 105.378, 123.419 104.070, 125.763 103.757 C 128.108 103.443, 134.852 100.782, 140.750 97.843 C 151.282 92.595, 151.485 92.429, 152.136 88.500 C 152.622 85.567, 152.385 84.033, 151.245 82.750 C 149.338 80.604, 145.678 80.478, 144 82.500 M 129 156.652 C 128.175 156.924, 126.600 157.509, 125.500 157.953 C 124.400 158.397, 121.475 159.578, 119 160.576 C 109.169 164.543, 109.485 163.928, 108.136 181.699 C 107.477 190.389, 107.064 202, 107.218 207.500 L 107.500 217.500 116.500 217.195 C 121.450 217.028, 125.917 216.476, 126.426 215.969 C 128.576 213.830, 131.705 188.555, 132.334 168.250 C 132.719 155.822, 132.616 155.461, 129 156.652" stroke="none" fill="black" fill-rule="evenodd"/>
</svg>