<svg xmlns="http://www.w3.org/2000/svg" width="300" height="300" viewBox="0 0 300 300" version="1.1">
	<path d="M 80.109 31.816 C 71.229 45.335, 59.862 61.652, 55.482 67.169 C 48.920 75.435, 33.311 88.473, 23.209 94.126 C 17.174 97.504, 14.915 100.988, 17.074 103.589 C 18.172 104.912, 19.629 105.130, 24.441 104.694 C 29.439 104.241, 31.296 104.554, 35.564 106.574 C 38.382 107.907, 41.503 109.898, 42.499 110.999 C 44.731 113.465, 47.191 113.556, 49.261 111.250 C 52.091 108.098, 50.347 104.197, 44.413 100.401 C 41.488 98.530, 38.624 97, 38.048 97 C 37.472 97, 37 96.100, 37 95 C 37 93.900, 37.598 93, 38.330 93 C 39.061 93, 41.934 90.750, 44.713 88 C 47.492 85.250, 50.463 83, 51.315 83 C 52.167 83, 53.832 84.360, 55.015 86.021 C 57.305 89.238, 62.683 92, 66.654 92 C 70.317 92, 70.436 94.261, 67.062 99.744 C 65.378 102.482, 64 105.207, 64 105.802 C 64 108.178, 66.228 107.988, 70.259 105.267 C 72.592 103.693, 75.287 102.103, 76.250 101.734 C 77.213 101.365, 78 100.406, 78 99.603 C 78 98.800, 78.710 97.433, 79.577 96.566 C 81.059 95.084, 84.867 88.683, 88.721 81.196 C 90.782 77.193, 89.651 74.661, 85.585 74.177 C 82.511 73.812, 78 76.343, 78 78.434 C 78 79.198, 76.633 80.973, 74.962 82.379 C 71.513 85.280, 67.511 85.106, 62.846 81.852 C 61.386 80.833, 59.473 80, 58.596 80 C 55.186 80, 56.216 78.386, 68.356 64.702 C 71.185 61.513, 73.725 58.363, 74 57.702 C 75.643 53.753, 86.558 38.739, 89.104 36.926 C 90.773 35.737, 92.588 33.584, 93.136 32.142 C 94.004 29.859, 93.768 29.225, 91.317 27.264 C 86.804 23.653, 84.987 24.391, 80.109 31.816 M 126.736 53.750 C 124.511 58.119, 122.277 75.228, 122.067 89.500 C 121.995 94.450, 121.467 103.225, 120.895 109 C 120.322 114.775, 119.430 123.775, 118.913 129 C 117.466 143.595, 117.093 147.277, 115.316 164.500 C 114.408 173.300, 113.628 187.990, 113.582 197.145 C 113.510 211.667, 113.723 214.037, 115.250 215.724 C 116.212 216.787, 117 218.303, 117 219.092 C 117 221.247, 126.897 228.546, 132.312 230.385 C 137.688 232.210, 143.527 232.390, 153 231.022 C 156.575 230.506, 164.349 229.625, 170.276 229.065 C 177.970 228.337, 183.119 227.225, 188.276 225.177 C 192.249 223.599, 196.979 222.021, 198.787 221.672 C 206.514 220.176, 214.008 210.431, 212.537 203.791 C 212.136 201.981, 211.632 197.350, 211.417 193.500 C 211.202 189.650, 210.503 185.150, 209.863 183.500 C 209.223 181.850, 208.162 179.150, 207.504 177.500 C 204.846 170.836, 204.162 167.121, 204.106 159.051 C 204.055 151.863, 203.736 150.296, 201.966 148.551 C 199.911 146.526, 199.866 146.525, 198.442 148.441 C 196.500 151.055, 196.500 171.060, 198.442 180.500 C 199.234 184.350, 200.196 191.896, 200.579 197.268 C 201.193 205.867, 201.062 207.274, 199.483 209.018 C 198.497 210.108, 196.842 211, 195.805 211 C 194.769 211, 192.111 211.923, 189.900 213.051 C 183.491 216.320, 174.067 218.858, 166.500 219.351 C 162.650 219.602, 155.299 220.356, 150.165 221.026 C 143.213 221.933, 140.202 221.958, 138.368 221.122 C 137.014 220.505, 135.222 220, 134.386 220 C 130.967 220, 126.195 214.981, 125.041 210.172 C 122.967 201.524, 123.398 176.799, 125.974 156.638 C 126.527 152.314, 126.760 148.421, 126.493 147.988 C 126.071 147.306, 126.973 138.366, 131.031 103 C 131.505 98.875, 131.916 89.477, 131.946 82.115 C 131.976 74.754, 132.524 65.889, 133.164 62.415 C 134.091 57.382, 134.066 55.785, 133.041 54.550 C 131.720 52.957, 127.418 52.412, 126.736 53.750 M 57.500 119.718 C 51.876 119.981, 50.156 120.456, 48.750 122.133 C 46.441 124.888, 46.538 127.538, 49.038 130.038 C 50.668 131.668, 51.819 131.944, 54.788 131.417 C 56.830 131.054, 58.928 130.362, 59.450 129.879 C 60.955 128.486, 65.008 128.857, 65.617 130.443 C 65.921 131.237, 64.107 135.076, 61.585 138.974 C 59.063 142.873, 57 146.443, 57 146.909 C 57 147.374, 56.374 148.275, 55.609 148.910 C 53.522 150.641, 52.686 158.205, 54.204 161.613 C 54.912 163.201, 56.955 165.903, 58.745 167.618 C 60.535 169.333, 62 171.229, 62 171.831 C 62 172.757, 57.101 176.345, 48.476 181.735 C 45.005 183.904, 39.814 186, 37.913 186 C 36.899 186, 34.591 187.244, 32.785 188.764 C 30.978 190.285, 27.475 192.603, 25 193.917 C 18.596 197.315, 18 197.918, 18 201 C 18 204.191, 18.633 204.799, 25.858 208.545 C 28.942 210.143, 35.944 215.863, 42.358 222.021 C 48.486 227.906, 54.519 233.041, 55.765 233.433 C 60.465 234.909, 67.440 228.163, 73.745 216.042 C 76.963 209.855, 78.691 193.411, 77.122 183.909 C 76.508 180.191, 76.247 176.519, 76.543 175.749 C 76.838 174.980, 79.424 173.084, 82.290 171.536 C 85.155 169.989, 89.300 167.266, 91.500 165.486 C 93.700 163.706, 96.850 161.555, 98.500 160.707 C 100.150 159.859, 103.926 156.979, 106.892 154.307 L 112.283 149.448 110.616 146.224 C 108.645 142.412, 104.909 141.864, 102.672 145.057 C 101.291 147.030, 88.449 156, 87.007 156 C 86.624 156, 85.490 156.906, 84.487 158.014 C 82.847 159.826, 72.707 167, 71.786 167 C 71.580 167, 69.718 164.779, 67.648 162.066 C 64.402 157.809, 63.975 156.653, 64.538 153.650 C 64.897 151.736, 66.260 149.165, 67.566 147.938 C 68.873 146.710, 70.460 144.085, 71.094 142.103 C 71.728 140.121, 73.061 137.600, 74.057 136.500 C 76.387 133.926, 78 129.633, 78 126.007 C 78 121.910, 73.913 118.944, 68.615 119.196 C 66.352 119.304, 61.350 119.539, 57.500 119.718 M 58 187.029 C 53.875 189.761, 49.775 191.996, 48.890 191.998 C 48.004 191.999, 45.668 193.463, 43.698 195.250 C 41.728 197.037, 38.965 199.309, 37.558 200.297 C 34.402 202.513, 34.293 204.562, 37.250 206.101 C 38.487 206.745, 42.700 210.586, 46.611 214.636 C 55.694 224.043, 57.307 224.209, 62.354 216.255 C 64.359 213.096, 66 209.776, 66 208.877 C 66 207.979, 66.675 205.629, 67.500 203.654 C 69.724 198.331, 69.007 183.121, 66.496 182.364 C 65.948 182.198, 62.125 184.298, 58 187.029" stroke="none" fill="black" fill-rule="evenodd"/>
</svg>