<svg xmlns="http://www.w3.org/2000/svg" width="300" height="300" viewBox="0 0 300 300" version="1.1">
	<path d="M 137.500 90.639 C 133.100 91.402, 127.430 92.495, 124.901 93.067 C 122.371 93.639, 114.046 94.732, 106.401 95.494 C 86.602 97.469, 81.956 99.207, 80.615 105.136 C 79.623 109.526, 81.846 110.444, 89.214 108.682 C 92.671 107.856, 100 106.661, 105.500 106.026 C 111 105.392, 117.938 104.451, 120.917 103.936 C 130.604 102.262, 130.835 102.554, 124.960 109.040 C 118.878 115.754, 93.207 153.765, 90.236 160.456 C 89.514 162.081, 87.816 164.864, 86.462 166.639 C 85.108 168.414, 84 170.624, 84 171.549 C 84 172.474, 81.975 176.277, 79.500 180 C 77.025 183.723, 75 187.256, 75 187.851 C 75 188.445, 74.263 190.635, 73.361 192.716 C 72.460 194.797, 71.391 197.400, 70.986 198.500 C 70.581 199.600, 69.743 201.759, 69.125 203.297 C 68.506 204.835, 68 208.968, 68 212.480 C 68 218.790, 68.051 218.907, 72.250 222.288 C 78.854 227.607, 80.741 228.122, 104 230.955 C 113.535 232.116, 126.297 231.598, 130.856 229.865 C 132.194 229.356, 135.812 228.712, 138.895 228.435 C 147.290 227.679, 157.082 226.026, 158.895 225.059 C 159.778 224.588, 163.200 223.876, 166.500 223.478 C 169.800 223.079, 172.950 222.426, 173.500 222.026 C 174.050 221.625, 177.686 220.789, 181.579 220.168 C 195.014 218.023, 205.139 211.179, 203.067 205.644 C 202.626 204.465, 201.939 200.350, 201.542 196.500 C 201.144 192.650, 200.224 188.150, 199.497 186.500 C 198.770 184.850, 197.875 181.700, 197.507 179.500 C 196.678 174.541, 193.528 171, 189.948 171 C 185.413 171, 184.667 173.075, 187.372 178.163 C 188.769 180.791, 190.002 185.266, 190.373 189.061 C 190.720 192.603, 191.266 197.551, 191.587 200.057 C 192.509 207.253, 195.124 206.240, 154.500 214.424 C 122.530 220.865, 108.392 221.800, 92.500 218.526 C 78.438 215.628, 74.994 210.820, 80.303 201.500 C 81.556 199.300, 83.621 194.930, 84.891 191.789 C 86.161 188.648, 87.830 185.556, 88.600 184.917 C 89.370 184.278, 90 183.199, 90 182.519 C 90 180.742, 102.824 158.150, 106.176 154.022 C 107.729 152.109, 109 150.178, 109 149.729 C 109 149.281, 110.912 146.407, 113.250 143.343 C 115.588 140.279, 118.625 136.083, 120 134.020 C 126.188 124.732, 127.985 122.280, 131.003 119 C 132.774 117.075, 135.358 113.813, 136.745 111.750 C 138.131 109.688, 140.009 108, 140.918 108 C 141.826 108, 144.129 106.114, 146.035 103.809 C 147.941 101.505, 150.560 98.636, 151.855 97.434 C 154.105 95.347, 154.136 95.138, 152.558 92.729 C 151.158 90.593, 147.778 88.742, 146 89.139 C 145.725 89.200, 141.900 89.875, 137.500 90.639" stroke="none" fill="black" fill-rule="evenodd"/>
</svg>