<svg xmlns="http://www.w3.org/2000/svg" width="300" height="300" viewBox="0 0 300 300" version="1.1">
	<path d="M 123.500 55.579 C 120.750 56.843, 116.605 57.905, 114.289 57.939 C 111.653 57.977, 109.409 58.666, 108.289 59.782 C 107.305 60.761, 104.925 62.099, 103 62.753 C 95.906 65.166, 76.280 70.208, 69 71.488 C 61.155 72.867, 56.468 74.367, 54.249 76.208 C 53.186 77.091, 53.356 77.750, 55.141 79.650 C 57.721 82.396, 63.212 82.809, 67.509 80.579 C 69.015 79.798, 74.017 78.845, 78.624 78.461 C 83.231 78.077, 87 77.465, 87 77.100 C 87 76.053, 95.559 73.800, 98.141 74.168 C 99.943 74.425, 100.603 75.303, 101.044 78.034 C 101.358 79.978, 101.970 82.142, 102.403 82.844 C 103.741 85.008, 103.035 133.072, 101.510 143.620 C 101.014 147.052, 101.138 148.967, 101.885 149.429 C 104.214 150.868, 102.668 152.070, 91.433 157.554 C 79.867 163.199, 77.041 163.822, 80.541 159.955 C 82.183 158.140, 82.407 156.080, 82.441 142.489 C 82.469 131.517, 82.123 126.723, 81.240 125.840 C 80.558 125.158, 79.998 123.902, 79.995 123.050 C 79.992 122.198, 78.948 120.198, 77.675 118.607 C 75.636 116.059, 75.019 115.827, 72.501 116.666 C 68.123 118.126, 67.132 120.444, 69.707 123.205 C 72.376 126.068, 75.424 140.848, 74.047 144.249 C 73.043 146.727, 70.427 156.005, 69.573 160.117 C 69.273 161.556, 67.531 164.931, 65.700 167.617 C 63.869 170.303, 62.052 173.036, 61.663 173.690 C 60.735 175.253, 66.676 182, 68.981 182 C 69.957 182, 71.366 181.264, 72.113 180.364 C 73.974 178.121, 80.638 174, 82.403 174 C 83.197 174, 85.119 172.988, 86.673 171.750 C 91.183 168.160, 95.602 166, 98.436 166 C 99.920 166, 101.330 165.305, 101.676 164.403 C 102.013 163.524, 104.136 161.947, 106.394 160.897 C 108.652 159.848, 111.850 158.106, 113.500 157.027 C 117.345 154.511, 122.680 152.094, 125.942 151.390 C 127.349 151.086, 129.625 150.460, 131 150 C 132.375 149.539, 136.753 148.928, 140.730 148.641 L 147.959 148.120 149.944 152.607 C 152.293 157.916, 154.388 168.563, 153.399 170.163 C 153.016 170.783, 152.761 174.937, 152.832 179.395 C 153.053 193.295, 150.723 208.730, 147.006 218 C 145.793 221.025, 144.577 224.625, 144.304 226 C 144.030 227.375, 142.554 231.200, 141.023 234.500 C 139.493 237.800, 137.925 241.625, 137.541 243 C 135.200 251.363, 127.323 262.549, 122.295 264.650 C 118.278 266.329, 113.444 266.366, 107.264 264.767 C 100.330 262.973, 89.955 252.222, 84.250 240.918 C 81.912 236.286, 79.993 231.823, 79.985 230.998 C 79.959 228.331, 73.514 221.589, 71.668 222.297 C 69.808 223.011, 69.285 229.440, 71 230.500 C 71.550 230.840, 72 232.836, 72 234.937 C 72 237.270, 72.644 239.289, 73.655 240.128 C 74.565 240.882, 75.922 242.850, 76.670 244.500 C 80.392 252.710, 95.189 269.890, 98.610 269.973 C 99.221 269.988, 101.465 271.183, 103.596 272.630 C 107.120 275.021, 108.404 275.271, 117.765 275.380 L 128.059 275.500 133.032 270.259 C 135.768 267.376, 139.642 261.976, 141.642 258.259 C 143.642 254.542, 145.888 250.375, 146.633 249 C 147.378 247.625, 147.993 245.375, 148 244 C 148.007 242.625, 148.908 240.150, 150.001 238.500 C 151.094 236.850, 152.672 233.160, 153.507 230.301 C 154.343 227.441, 155.470 224.827, 156.013 224.492 C 156.556 224.156, 157 221.875, 157 219.421 C 157 216.340, 157.804 213.687, 159.599 210.843 C 161.959 207.105, 162.191 205.823, 162.129 196.904 C 162.090 191.502, 162.383 186.881, 162.780 186.636 C 163.176 186.391, 163.639 180.129, 163.808 172.721 C 164.111 159.479, 164.064 159.140, 161.058 152.778 C 159.376 149.219, 158 145.876, 158 145.349 C 158 144.823, 156.430 142.871, 154.511 141.011 C 151.531 138.122, 150.182 137.572, 145.261 137.238 C 138.132 136.755, 123.640 140.020, 117.362 143.525 C 114.889 144.906, 112.505 145.812, 112.063 145.539 C 111.165 144.984, 111.495 128.357, 112.567 120.208 C 113.152 115.756, 113.710 114.684, 116.082 113.458 C 117.632 112.656, 120.203 112, 121.795 112 C 123.420 112, 125.484 111.123, 126.500 110 C 127.495 108.900, 128.904 108, 129.631 108 C 130.357 108, 132.371 107.137, 134.106 106.081 C 135.842 105.026, 137.883 104.402, 138.643 104.693 C 140.476 105.397, 143.229 103.039, 142.572 101.328 C 142.287 100.585, 142.567 98.849, 143.195 97.471 C 144.159 95.356, 144.038 94.737, 142.418 93.490 C 138.630 90.576, 136.314 90.655, 132.308 93.838 C 130.214 95.503, 126.475 97.638, 124 98.584 C 121.525 99.530, 118.489 101.213, 117.254 102.323 C 116.019 103.433, 114.845 104.152, 114.646 103.921 C 113.645 102.757, 111.044 84.673, 111.574 82.563 C 111.951 81.061, 111.516 78.990, 110.443 77.173 C 108.645 74.129, 108.997 71.191, 111.227 70.641 C 111.927 70.468, 115.425 69.389, 119 68.243 C 122.575 67.097, 127.174 65.851, 129.219 65.474 C 133.306 64.721, 138 60.719, 138 57.986 C 138 53.558, 130.576 52.325, 123.500 55.579" stroke="none" fill="black" fill-rule="evenodd"/>
</svg>