<svg xmlns="http://www.w3.org/2000/svg" width="300" height="300" viewBox="0 0 300 300" version="1.1">
	<path d="M 123.929 42.659 C 119.064 49.812, 106.882 64.099, 100.917 69.647 C 98.047 72.316, 95.204 74.981, 94.599 75.569 C 92.338 77.769, 80.354 86.077, 76.500 88.116 C 71.266 90.886, 69 92.940, 69 94.915 C 69 96.594, 72.888 101.278, 75.491 102.735 C 77 103.579, 81 113.566, 81 116.489 C 81 117.335, 81.390 118.809, 81.866 119.764 C 83.543 123.126, 85.256 128.538, 85.740 132 C 86.009 133.925, 86.773 136.175, 87.437 137 C 88.101 137.825, 89.200 140.525, 89.878 143 C 93.173 155.022, 93.399 155.488, 96.086 155.801 C 99.854 156.239, 101.285 153.904, 100.697 148.279 C 100.112 142.679, 97.825 133.492, 96.749 132.416 C 96.337 132.004, 96 130.799, 96 129.738 C 96 128.677, 95.380 126.614, 94.622 125.154 C 90.743 117.684, 90.563 117.007, 92.065 115.542 C 93.671 113.977, 117.421 108, 122.034 108 C 125.575 108, 125.725 109.087, 123.102 115.741 C 121.311 120.285, 119.378 131.602, 119.177 138.717 C 119.077 142.256, 116.794 147.372, 113.898 150.548 C 112.871 151.675, 111.743 154.037, 111.390 155.798 C 110.798 158.760, 110.950 159, 113.415 159 C 117.139 159, 123.334 155.635, 124.755 152.841 C 127.565 147.316, 129.140 140.949, 129.664 133 C 129.972 128.325, 130.849 123.503, 131.612 122.285 C 132.375 121.067, 133 119.435, 133 118.658 C 133 117.881, 133.706 116.659, 134.568 115.943 C 135.639 115.054, 136.036 113.358, 135.818 110.593 C 135.532 106.948, 135.798 106.401, 138.500 105.091 C 140.150 104.291, 143.608 103.666, 146.185 103.702 C 149.833 103.753, 151.348 103.258, 153.030 101.468 C 154.989 99.383, 155.063 98.904, 153.824 96.334 C 152.579 93.750, 152.019 93.512, 147.479 93.637 C 144.741 93.712, 137.775 94.517, 132 95.424 C 126.225 96.332, 118.160 97.514, 114.077 98.050 C 106.263 99.076, 100.055 100.723, 93.633 103.470 C 89.978 105.034, 89.675 105.025, 88.125 103.312 C 86.763 101.806, 84 96.651, 84 95.615 C 84 95.455, 87.713 92.482, 92.250 89.009 C 101.021 82.295, 104.862 78.970, 111.416 72.417 C 113.662 70.171, 116.257 67.920, 117.183 67.415 C 118.108 66.910, 119.908 65.049, 121.183 63.280 C 122.457 61.512, 126.313 56.649, 129.750 52.473 C 133.542 47.867, 136 43.945, 136 42.500 C 136 39.689, 135.622 39.395, 130.853 38.500 C 127.364 37.846, 127.091 38.009, 123.929 42.659 M 193.668 153.489 C 192.111 154.302, 187.161 155.640, 182.668 156.463 C 174.061 158.040, 144.954 161.017, 139 160.929 C 132.549 160.834, 97.621 163.863, 86.500 165.482 C 74.969 167.160, 65.220 168.482, 53.500 169.955 C 40.881 171.542, 36 173.752, 36 177.880 C 36 182.115, 38.792 184.151, 43.045 183.018 C 51.792 180.687, 60.180 179, 63.021 179 C 64.732 179, 67.028 178.520, 68.124 177.934 C 69.220 177.347, 72.003 176.703, 74.308 176.502 C 76.614 176.301, 83.450 175.590, 89.500 174.923 C 95.550 174.256, 103.425 173.550, 107 173.354 C 119.176 172.686, 137.491 171.228, 141 170.646 C 142.925 170.327, 150.125 169.813, 157 169.505 C 163.875 169.196, 172.425 168.480, 176 167.914 C 179.575 167.347, 184.525 166.675, 187 166.419 C 189.475 166.163, 193.525 164.952, 196 163.727 C 201.200 161.154, 202.313 157.820, 199.179 154.207 C 196.913 151.594, 197.224 151.635, 193.668 153.489 M 143.667 192.667 C 141.111 195.222, 145.083 205, 148.676 205 C 150.870 205, 160.075 213.552, 162.801 218.123 C 164.073 220.255, 165.474 222, 165.915 222 C 166.803 222, 173.245 231.450, 174.314 234.320 C 174.754 235.502, 175.781 236.028, 177.246 235.820 C 179.237 235.537, 179.535 234.844, 179.796 229.868 C 180.010 225.810, 179.660 223.803, 178.546 222.689 C 177.696 221.839, 177 220.854, 177 220.502 C 177 217.458, 159.032 197.819, 152.734 193.979 C 149.542 192.033, 144.963 191.370, 143.667 192.667" stroke="none" fill="black" fill-rule="evenodd"/>
</svg>