<svg xmlns="http://www.w3.org/2000/svg" width="300" height="300" viewBox="0 0 300 300" version="1.1">
	<path d="M 138.013 76.756 C 134.445 81.565, 131.026 86.625, 130.416 88 C 129.806 89.376, 128.563 91.118, 127.653 91.873 C 126.744 92.627, 126 93.671, 126 94.192 C 126 94.713, 124.650 97.102, 123 99.500 C 121.350 101.898, 120 104.363, 120 104.978 C 120 105.593, 118.844 107.167, 117.431 108.476 C 115.474 110.290, 114.938 111.645, 115.181 114.170 C 115.833 120.948, 121.230 118.490, 125.689 109.383 C 127.078 106.545, 129.312 103.636, 130.652 102.918 C 132.904 101.713, 133.769 100.292, 136.838 92.750 C 137.454 91.237, 138.397 90, 138.934 90 C 140.721 90, 150.571 79.551, 151.934 76.211 C 153.171 73.177, 153.096 72.731, 150.963 70.461 C 147.016 66.259, 145.114 67.184, 138.013 76.756 M 76.581 71.317 C 75.271 72.275, 74.385 75.336, 73.326 82.567 C 72.396 88.916, 70.849 94.665, 69.038 98.500 C 67.479 101.800, 65.739 106.300, 65.171 108.500 C 64.603 110.700, 62.728 116.325, 61.005 121 C 59.281 125.675, 57.513 130.625, 57.076 132 C 56.639 133.375, 54.712 138.325, 52.793 143 C 50.874 147.675, 48.500 153.750, 47.517 156.500 C 42.232 171.293, 41.230 173.849, 39.206 177.710 C 34.209 187.247, 39.251 197.073, 45 189 C 46.670 186.654, 47.892 186, 50.603 186 C 54.737 186, 59 188.535, 59 190.993 C 59 191.962, 59.672 194.364, 60.493 196.330 C 61.592 198.960, 61.724 200.596, 60.992 202.522 C 59.689 205.948, 60.594 209.270, 63.597 212.091 L 66.025 214.372 68.762 212.335 C 71.102 210.594, 71.583 209.368, 72.071 203.899 C 72.384 200.380, 72.991 196.724, 73.418 195.775 C 74.206 194.024, 71.464 188.567, 67.782 184.561 C 66.802 183.495, 65.984 182.145, 65.964 181.561 C 65.890 179.430, 58.717 175, 55.339 175 C 52.201 175, 52 174.793, 52 171.559 C 52 169.666, 52.398 167.872, 52.885 167.571 C 53.371 167.271, 54.067 164.882, 54.430 162.262 C 55.158 157.021, 58.604 147.353, 60.583 145 C 61.276 144.175, 62.154 142.258, 62.533 140.741 C 62.912 139.223, 63.622 137.734, 64.111 137.432 C 64.600 137.129, 65 135.984, 65 134.886 C 65 132.970, 67.618 126.252, 70.412 121 C 71.144 119.625, 72.289 116.700, 72.958 114.500 C 73.627 112.300, 75.035 108.592, 76.087 106.261 C 77.139 103.929, 78 101.297, 78 100.412 C 78 98.904, 79.985 93.737, 82.101 89.737 C 82.614 88.767, 83.316 85.266, 83.662 81.956 C 84.008 78.646, 84.710 75.679, 85.221 75.363 C 86.491 74.578, 82.049 70, 80.017 70 C 79.118 70, 77.572 70.593, 76.581 71.317 M 142.665 92.389 C 141.439 94.259, 141.313 95.549, 142.081 98.331 C 142.727 100.670, 142.719 104.017, 142.058 108.122 C 141.477 111.727, 141.424 114.811, 141.933 115.430 C 142.982 116.708, 143.723 139.032, 142.766 140.573 C 142.400 141.164, 140.165 142.266, 137.800 143.022 C 135.435 143.778, 131.028 145.712, 128.006 147.318 C 124.984 148.925, 120.484 150.818, 118.006 151.525 C 103.336 155.708, 98.703 159.459, 100.940 165.342 C 102.292 168.898, 104.296 169.551, 108.258 167.729 C 116.914 163.747, 118.819 162.939, 122.979 161.489 C 125.443 160.630, 128.956 159.043, 130.787 157.963 C 132.617 156.884, 134.557 156, 135.098 156 C 135.638 156, 137.370 155.047, 138.945 153.882 C 140.521 152.717, 142.283 152.057, 142.861 152.414 C 144.029 153.136, 143.644 166.613, 141.879 186.819 C 141.287 193.594, 141.088 200.657, 141.437 202.515 C 142.243 206.812, 141.451 207.241, 128.500 209.517 C 113.712 212.117, 106.604 217.617, 111.873 222.385 C 113.372 223.742, 114.286 223.917, 115.755 223.131 C 116.812 222.565, 118.537 222.323, 119.588 222.593 C 120.640 222.863, 124.158 222.165, 127.407 221.042 C 130.655 219.919, 134.341 219, 135.598 219 C 136.854 219, 138.111 218.629, 138.392 218.175 C 138.673 217.721, 142.412 217.308, 146.701 217.256 C 150.990 217.205, 158.403 216.889, 163.174 216.554 C 168.449 216.183, 172.085 216.328, 172.453 216.924 C 172.788 217.466, 176.002 217.744, 179.638 217.546 C 184.024 217.307, 188.509 217.823, 193.096 219.094 C 196.879 220.142, 201.252 221, 202.813 221 C 206.301 221, 209.738 217.562, 210.610 213.202 L 211.250 210 203.575 210 C 198.415 210, 194.861 209.462, 192.726 208.358 C 190.205 207.055, 185.738 206.644, 171.026 206.365 C 150.356 205.972, 149.543 205.698, 151.750 199.852 C 152.527 197.792, 152.617 196.243, 152.001 195.501 C 151.475 194.867, 150.961 192.358, 150.860 189.924 C 150.602 183.722, 152.001 154.920, 152.677 152.500 C 153.424 149.831, 155.988 147, 157.660 147 C 158.402 147, 161.370 145.853, 164.255 144.451 C 167.140 143.049, 172.791 141.265, 176.813 140.487 C 181.658 139.550, 185.132 138.226, 187.108 136.563 C 188.749 135.182, 191.890 133.568, 194.090 132.976 C 196.770 132.254, 198.464 131.076, 199.226 129.404 C 200.215 127.233, 200.026 126.572, 197.774 124.320 L 195.186 121.732 189.343 123.983 C 186.129 125.222, 182.719 126.632, 181.764 127.117 C 180.809 127.603, 179.221 128, 178.236 128 C 177.251 128, 175.400 128.732, 174.122 129.627 C 170.985 131.825, 154.694 136.984, 153.733 136.084 C 153.311 135.689, 152.708 130.221, 152.393 123.933 C 151.510 106.283, 151.413 104.928, 150.546 98.214 C 149.969 93.754, 149.210 91.648, 147.932 90.964 C 145.248 89.527, 144.387 89.760, 142.665 92.389" stroke="none" fill="black" fill-rule="evenodd"/>
</svg>