<svg xmlns="http://www.w3.org/2000/svg" width="300" height="300" viewBox="0 0 300 300" version="1.1">
	<path d="M 82.311 74.250 C 81.072 75.907, 79.390 83.269, 77.456 95.500 C 76.587 101, 75.495 106.400, 75.031 107.500 C 74.567 108.600, 73.437 112.425, 72.521 116 C 71.604 119.575, 69.939 124.975, 68.820 128 C 67.701 131.025, 65.980 136.200, 64.994 139.500 C 63.145 145.690, 59.599 154.955, 54.086 168 C 47.910 182.613, 46.590 187.595, 47.994 190.987 C 48.717 192.730, 50.243 194.274, 51.574 194.608 C 52.850 194.928, 54.523 196.160, 55.290 197.345 C 56.762 199.618, 58.325 208.331, 58.218 213.665 C 58.147 217.165, 60.152 219.508, 64.050 220.480 C 67.430 221.323, 69.851 217.459, 68.050 214.094 C 67.416 212.908, 66.992 208.986, 67.109 205.377 C 67.227 201.715, 66.865 198.526, 66.289 198.158 C 65.721 197.796, 64.248 195.250, 63.016 192.500 C 61.784 189.750, 60.163 186.803, 59.415 185.951 C 58.255 184.631, 58.433 183.372, 60.616 177.451 C 62.025 173.628, 64.233 167.575, 65.521 164 C 66.810 160.425, 69.155 154.350, 70.734 150.500 C 72.312 146.650, 74.406 140.575, 75.387 137 C 76.367 133.425, 78.010 128.700, 79.038 126.500 C 80.065 124.300, 81.193 120.703, 81.544 118.508 C 81.895 116.312, 82.473 114.062, 82.830 113.508 C 83.766 112.052, 87.960 92.753, 89.187 84.255 C 90.199 77.244, 90.157 76.946, 87.867 75.038 C 85.098 72.732, 83.604 72.520, 82.311 74.250 M 144.884 83.208 C 143.529 84.293, 143.405 85.542, 144.108 91 C 144.569 94.575, 145.243 100.425, 145.605 104 C 145.967 107.575, 146.656 111.262, 147.136 112.193 C 147.672 113.233, 147.557 114.879, 146.836 116.460 C 145.428 119.552, 137.534 125, 134.463 125 C 133.257 125, 131.126 125.900, 129.727 127 C 128.329 128.100, 126.738 129, 126.192 129 C 124.482 129, 115.015 133.677, 112.960 135.536 C 110.447 137.810, 110.529 138.835, 113.514 142.489 L 115.956 145.478 119.728 143.531 C 121.803 142.460, 124.694 140.777, 126.154 139.792 C 127.614 138.806, 129.372 138, 130.060 138 C 130.748 138, 132.708 136.934, 134.416 135.632 C 137.854 133.010, 143.503 131.388, 144.362 132.776 C 144.666 133.268, 144.506 135.207, 144.008 137.085 C 143.509 138.963, 141.876 145.225, 140.379 151 C 138.882 156.775, 137.284 162.287, 136.829 163.250 C 136.373 164.213, 135.550 165.894, 135 166.986 C 134.450 168.079, 134 169.714, 134 170.620 C 134 173.882, 131.684 179.907, 130.213 180.472 C 129.387 180.789, 127.988 180.397, 127.105 179.602 C 126.222 178.807, 124.258 177.846, 122.741 177.467 C 121.223 177.088, 119.734 176.378, 119.432 175.889 C 119.129 175.400, 118.190 175, 117.345 175 C 116.500 175, 114.502 174.070, 112.905 172.932 C 108.818 170.022, 106 171.090, 106 175.551 C 106 178.604, 106.503 179.234, 110.750 181.492 C 113.362 182.881, 116.175 184.409, 117 184.888 C 117.825 185.366, 120.188 186.480, 122.250 187.362 C 126.692 189.264, 126.964 191.050, 123.750 197.197 C 122.513 199.564, 120.411 204.200, 119.080 207.500 C 117.749 210.800, 115.611 215.067, 114.330 216.982 C 113.048 218.897, 112 220.765, 112 221.132 C 112 224.589, 96.116 242.097, 89.500 245.933 C 85.214 248.417, 85.482 251.414, 90.024 251.797 C 91.962 251.960, 94.887 251.493, 96.524 250.758 C 101.329 248.600, 107 244.877, 107 243.879 C 107 243.371, 108.740 241.053, 110.866 238.728 C 112.993 236.402, 115.421 233.149, 116.264 231.498 C 117.106 229.846, 118.741 227.639, 119.898 226.593 C 121.054 225.546, 122 224.170, 122 223.535 C 122 222.900, 124.250 217.934, 127 212.500 C 129.750 207.066, 132 201.665, 132 200.499 C 132 198.330, 135.335 194, 137.004 194 C 137.514 194, 139.409 195.291, 141.215 196.868 C 143.022 198.445, 146.750 200.932, 149.500 202.395 C 152.250 203.857, 157.200 207.340, 160.500 210.134 C 163.800 212.929, 168.075 215.885, 170 216.703 C 171.925 217.522, 174.400 218.997, 175.500 219.981 C 176.600 220.965, 178.625 222.110, 180 222.526 C 182.812 223.375, 186.003 225.627, 192.827 231.573 C 195.397 233.813, 199.105 236.611, 201.066 237.791 C 203.027 238.970, 205.502 240.899, 206.566 242.076 C 207.630 243.253, 210.525 245.294, 213 246.611 C 215.475 247.928, 218.683 249.952, 220.130 251.108 C 221.893 252.518, 223.457 252.990, 224.874 252.540 C 227.559 251.688, 230 249.268, 230 247.459 C 230 246.171, 218.259 237.384, 212.129 234.085 C 210.683 233.307, 207.080 230.832, 204.122 228.585 C 201.163 226.338, 197.331 223.547, 195.604 222.383 C 193.878 221.218, 191.855 219.530, 191.110 218.633 C 190.365 217.735, 189.337 217, 188.825 217 C 188.314 217, 183.984 214.413, 179.203 211.250 C 174.422 208.088, 169.765 205.050, 168.854 204.500 C 167.942 203.950, 164.114 201.125, 160.348 198.222 C 156.582 195.320, 151.925 192.508, 150 191.975 C 148.075 191.441, 144.756 189.521, 142.625 187.708 L 138.749 184.412 140.752 180.456 C 141.854 178.280, 143.070 175.043, 143.455 173.261 C 143.839 171.480, 144.569 169.766, 145.077 169.452 C 145.585 169.139, 146 167.951, 146 166.812 C 146 165.674, 147.157 161.088, 148.571 156.621 C 152.742 143.446, 152.955 142.632, 153.586 137.453 C 153.918 134.729, 154.791 131.148, 155.526 129.495 C 156.809 126.607, 170.460 113.445, 178.250 107.584 C 180.482 105.905, 182.014 103.900, 182.035 102.631 C 182.055 101.459, 182.714 99.375, 183.500 98 C 185.574 94.372, 185.399 89.284, 183.159 88.085 C 181.754 87.333, 180.450 87.689, 177.659 89.586 C 175.646 90.953, 174 92.559, 174 93.154 C 174 93.749, 172.650 95.774, 171 97.653 C 169.350 99.532, 168 101.418, 168 101.844 C 168 102.782, 157.028 112.366, 156.535 111.858 C 156.343 111.661, 155.914 107.690, 155.580 103.034 C 155.246 98.378, 154.568 93.203, 154.073 91.534 C 153.577 89.865, 152.787 87.150, 152.317 85.500 C 151.356 82.124, 147.660 80.984, 144.884 83.208" stroke="none" fill="black" fill-rule="evenodd"/>
</svg>