<svg xmlns="http://www.w3.org/2000/svg" width="300" height="300" viewBox="0 0 300 300" version="1.1">
	<path d="M 133.872 74.657 C 132.826 75.920, 132.500 80.420, 132.500 93.602 C 132.500 106.098, 132.153 111.239, 131.250 112.146 C 130.563 112.836, 130 114.605, 130 116.079 C 130 119.042, 130.212 118.926, 115.767 123.915 C 102.175 128.610, 99.130 131.497, 102.440 136.549 C 104.078 139.048, 106.841 139.739, 108.550 138.076 C 110.112 136.556, 123.176 130, 124.642 130 C 126.371 130, 126.319 131.817, 124.500 135 C 123.714 136.375, 123.039 139.075, 123 141 C 122.961 142.925, 122.286 145.625, 121.500 147 C 120.714 148.375, 120.055 150.819, 120.035 152.432 C 120.016 154.044, 118.925 158.544, 117.611 162.432 C 116.297 166.319, 113.968 173.550, 112.435 178.500 C 109.757 187.146, 109.220 188.577, 107 192.986 C 106.450 194.079, 106 195.654, 106 196.486 C 106 197.319, 105.550 198, 105 198 C 104.450 198, 104 198.618, 104 199.373 C 104 201.354, 100.381 209.243, 98.171 212.078 C 97.132 213.410, 95.496 216.033, 94.535 217.906 C 93.574 219.779, 92.373 221.804, 91.867 222.406 C 91.361 223.008, 89.575 225.625, 87.898 228.222 C 84.761 233.079, 84.769 235, 87.924 235 C 90.138 235, 95 231.310, 95 229.630 C 95 228.957, 96.800 226.648, 99 224.500 C 101.200 222.352, 103 220.080, 103 219.452 C 103 218.824, 103.848 217.542, 104.885 216.604 C 105.922 215.666, 107.018 213.683, 107.320 212.199 C 107.622 210.714, 109.208 207.475, 110.844 205 C 112.479 202.525, 114.321 198.606, 114.936 196.292 C 115.551 193.978, 116.492 191.814, 117.027 191.483 C 117.562 191.153, 118 189.614, 118 188.063 C 118 186.513, 118.601 184.746, 119.335 184.137 C 120.070 183.527, 121.222 181.110, 121.897 178.764 C 122.571 176.419, 123.594 173.150, 124.170 171.500 C 124.746 169.850, 125.956 165.694, 126.858 162.264 C 129.197 153.380, 130.529 153.282, 140.009 161.294 C 148.664 168.608, 151.780 171.034, 157.548 174.949 C 163.343 178.882, 177.964 192.248, 178.046 193.688 C 178.072 194.135, 179.954 195.850, 182.228 197.500 C 184.503 199.150, 188.870 203.188, 191.932 206.473 C 194.994 209.757, 200.240 215.157, 203.590 218.473 C 212.281 227.074, 223.465 239.827, 225.601 243.571 C 227.864 247.536, 236 245.819, 236 241.376 C 236 240.104, 230.267 233.424, 218.897 221.449 C 217.304 219.771, 216 217.913, 216 217.320 C 216 216.728, 214.650 215.683, 213 215 C 211.350 214.317, 210 213.449, 210 213.072 C 210 211.751, 180.502 181.791, 174.532 177.049 C 171.215 174.413, 166.355 170.174, 163.732 167.629 C 161.110 165.083, 158.465 163, 157.854 163 C 157.242 163, 154.999 161.425, 152.868 159.500 C 150.738 157.575, 148.390 156, 147.652 156 C 146.914 156, 145.453 155.045, 144.405 153.878 C 143.357 152.710, 140.137 150.418, 137.250 148.782 C 133.345 146.571, 132 145.231, 132 143.551 C 132 141.098, 136.463 128.118, 137.724 126.906 C 138.151 126.495, 141.036 125.276, 144.136 124.196 C 150.605 121.941, 159.277 115.842, 166.259 108.636 C 171.066 103.675, 171.085 103.628, 170.793 97.577 C 170.515 91.805, 170.365 91.484, 167.802 91.189 C 165.521 90.925, 164.779 91.512, 163.008 94.984 C 161.856 97.242, 159.326 100.847, 157.385 102.995 C 153.522 107.271, 143.205 114.538, 142.292 113.626 C 141.978 113.311, 141.568 106.854, 141.381 99.277 C 140.943 81.555, 140.611 77.992, 139.138 75.250 C 137.707 72.585, 135.769 72.367, 133.872 74.657 M 176.017 77.480 C 175.016 78.686, 175.270 79.532, 177.394 82.057 C 178.827 83.760, 180 85.530, 180 85.989 C 180 87.544, 191.656 98.677, 193.898 99.263 C 196.583 99.965, 197.614 98.016, 196.077 95.144 C 195.485 94.037, 194.999 92.314, 194.999 91.316 C 194.998 90.317, 193.198 87.475, 191 85 C 188.802 82.525, 187.002 80.162, 187.001 79.750 C 187.001 79.338, 186.380 79, 185.622 79 C 184.865 79, 183.685 78.325, 183 77.500 C 181.406 75.579, 177.603 75.568, 176.017 77.480 M 71.983 82.521 C 71.277 83.371, 70.569 87.581, 70.375 92.071 C 70.038 99.909, 67.457 109.440, 62.883 119.739 C 61.847 122.071, 61 124.276, 61 124.639 C 61 125.003, 59.904 127.596, 58.565 130.400 C 57.225 133.205, 55.203 138.576, 54.071 142.335 C 52.939 146.094, 51.334 150.369, 50.504 151.835 C 49.675 153.301, 47.666 158.645, 46.040 163.711 C 44.415 168.777, 42.166 174.824, 41.042 177.149 C 39.919 179.473, 39 182.615, 39 184.129 C 39 185.643, 38.550 187.160, 38 187.500 C 37.450 187.840, 37 189.881, 37 192.036 C 37 198.733, 42.657 200.733, 46.955 195.555 C 48.871 193.245, 50.361 193.644, 52.961 197.161 C 54.446 199.169, 55.517 202.361, 55.899 205.911 L 56.500 211.500 60.185 211.806 C 65.067 212.213, 66.437 209.771, 65.627 202.110 C 64.294 189.496, 64.179 189.225, 58.535 185.479 C 55.652 183.566, 52.552 182, 51.646 182 C 49.171 182, 49.353 175.402, 51.847 174.750 C 53.268 174.379, 53.851 172.914, 54.381 168.384 C 54.781 164.960, 56.308 160.113, 58.034 156.791 C 59.665 153.651, 61 150.183, 61 149.085 C 61 147.987, 62.125 145.431, 63.500 143.405 C 64.875 141.379, 66 139.151, 66 138.455 C 66 137.759, 66.967 135.234, 68.148 132.845 C 71.420 126.230, 72.664 123.048, 74.540 116.500 C 75.485 113.200, 76.639 109.493, 77.103 108.262 C 77.567 107.031, 77.699 105.379, 77.396 104.590 C 77.094 103.801, 77.415 102.109, 78.110 100.828 C 80.042 97.269, 80.127 84.895, 78.235 82.750 C 76.333 80.596, 73.662 80.498, 71.983 82.521" stroke="none" fill="black" fill-rule="evenodd"/>
</svg>