<svg xmlns="http://www.w3.org/2000/svg" width="300" height="300" viewBox="0 0 300 300" version="1.1">
	<path d="M 153.500 59.891 C 151.300 60.268, 147.708 61.797, 145.518 63.288 C 143.328 64.780, 141.066 66, 140.491 66 C 139.916 66, 137.658 67.785, 135.473 69.967 C 133.288 72.149, 130.728 73.949, 129.785 73.967 C 127.967 74.002, 126 71.187, 126 68.552 C 126 67.683, 124.537 65.629, 122.750 63.988 C 115.779 57.589, 110.613 63.379, 116.903 70.543 C 118.577 72.449, 120.663 76.474, 121.539 79.486 C 122.415 82.498, 123.500 85.191, 123.950 85.469 C 124.401 85.748, 125.088 88.102, 125.478 90.702 C 125.868 93.302, 126.820 96.332, 127.593 97.437 C 128.367 98.541, 129 101.525, 129 104.068 C 129 111.148, 133.399 114.374, 136.532 109.591 C 138.312 106.875, 138.308 106.986, 137.081 94 L 136.183 84.500 140.841 80.160 C 146.455 74.930, 152.889 71, 155.838 71 C 160.315 71, 157.805 80.252, 147.739 100.854 C 146.569 103.249, 144.574 105.888, 143.306 106.719 C 142.038 107.550, 140.994 108.966, 140.987 109.865 C 140.980 110.764, 138.505 113.666, 135.487 116.313 C 129.582 121.492, 128.607 124.430, 131.829 127.345 C 134.100 129.401, 137.884 129.463, 141.636 127.506 C 143.211 126.685, 145.556 126.010, 146.846 126.006 C 150.461 125.997, 159.697 123.071, 160.976 121.529 C 162.964 119.133, 161.128 112.978, 157.872 111.126 C 154.488 109.202, 154.298 107.708, 157 104.273 C 158.100 102.874, 159 100.914, 159 99.915 C 159 98.917, 160.271 96.165, 161.824 93.800 C 168.100 84.245, 169.652 70.242, 165.269 62.709 C 163.234 59.210, 160.832 58.635, 153.500 59.891 M 68.540 66.347 C 67.185 67.338, 66.503 69.650, 65.959 75.097 C 64.951 85.194, 61.216 99.170, 56.199 111.625 C 55.119 114.306, 53.698 118.525, 53.041 121 C 51.903 125.289, 49.521 131.168, 46.423 137.331 C 45.640 138.888, 45 140.668, 45 141.287 C 45 142.617, 38.984 156.191, 34.934 164 C 26.191 180.855, 26.670 179.538, 28.152 182.639 C 30.276 187.085, 32.844 186.678, 38.781 180.956 C 41.727 178.117, 44.791 176.006, 45.710 176.183 C 48.258 176.674, 50.701 187.264, 51.666 202 C 52.044 207.779, 52.637 210.016, 54.253 211.750 C 57.087 214.792, 58.648 214.581, 60.552 210.899 C 63.337 205.514, 62.741 183.307, 59.687 178.646 C 58.759 177.229, 58 174.960, 58 173.603 C 58 170.917, 54.257 167.683, 49.044 165.866 C 46.041 164.819, 45.051 162.704, 47 161.500 C 47.550 161.160, 48 159.885, 48 158.666 C 48 157.446, 49.336 153.761, 50.969 150.475 C 52.601 147.189, 53.951 143.650, 53.969 142.611 C 53.986 141.571, 55.350 138.527, 57 135.846 C 58.650 133.164, 60 129.936, 60 128.673 C 60 127.409, 60.900 124.513, 62 122.236 C 63.100 119.959, 64 117.040, 64 115.748 C 64 114.457, 64.358 112.972, 64.795 112.450 C 65.232 111.927, 66.403 108.800, 67.398 105.500 C 68.393 102.200, 70.028 97.475, 71.032 95 C 73.657 88.526, 74.677 82.494, 74.508 74.446 C 74.310 64.994, 72.938 63.131, 68.540 66.347 M 169.569 156.889 C 169.266 157.378, 169.443 159.966, 169.961 162.639 C 170.570 165.784, 170.525 171.736, 169.833 179.500 C 167.914 201.037, 169.811 210.854, 176.722 215.151 C 180.301 217.376, 181.398 217.500, 197.500 217.500 C 211.318 217.500, 214.716 217.777, 215.654 218.979 C 216.649 220.254, 217.063 220.150, 218.654 218.226 C 219.901 216.719, 222.448 215.633, 226.500 214.882 C 236.375 213.050, 241.464 210.371, 242.968 206.211 C 244.167 202.897, 244.096 202.497, 242.021 200.816 C 239.338 198.643, 238.087 198.556, 235.473 200.363 C 233.439 201.767, 231.467 202.257, 219.500 204.326 C 215.650 204.992, 211.600 206.034, 210.500 206.643 C 207.847 208.111, 188.453 208.964, 184.232 207.798 C 182.055 207.197, 180.567 205.992, 179.928 204.311 C 179.374 202.853, 179.070 193.022, 179.226 181.581 C 179.469 163.676, 179.302 161.117, 177.727 158.710 C 176.469 156.788, 175.106 156, 173.036 156 C 171.431 156, 169.871 156.400, 169.569 156.889 M 136.667 157.667 C 135.477 158.856, 135.961 164.024, 137.550 167.096 C 139.794 171.436, 140.961 186.521, 139.300 189.722 C 138.562 191.145, 138 195.563, 138 199.940 C 138 206.830, 138.261 207.897, 140.449 209.952 C 143.380 212.706, 146 212.062, 146 208.589 C 146 207.228, 146.936 204.528, 148.080 202.589 C 150.175 199.037, 150.739 191.579, 149.673 181.500 C 147.923 164.950, 147.363 162.647, 144.138 158.750 C 142.719 157.035, 137.984 156.349, 136.667 157.667 M 101.602 166.203 C 99.558 167.347, 99.569 169.412, 101.635 172.566 C 102.968 174.601, 103.142 176.487, 102.576 182.781 C 102.194 187.026, 101.458 190.928, 100.940 191.450 C 100.423 191.973, 100 195.405, 100 199.078 C 100 203.858, 99.564 206.117, 98.467 207.028 C 97.623 207.728, 97.113 208.795, 97.332 209.400 C 97.551 210.005, 97.382 211.181, 96.956 212.014 C 96.527 212.852, 96.789 214.972, 97.543 216.764 C 98.534 219.121, 99.548 220, 101.277 220 C 104.979 220, 107.409 216.264, 110.058 206.500 C 112.091 199.009, 112.500 195.202, 112.500 183.799 C 112.500 174.364, 112.121 169.719, 111.282 168.881 C 109.244 166.845, 103.363 165.218, 101.602 166.203" stroke="none" fill="black" fill-rule="evenodd"/>
</svg>