<svg xmlns="http://www.w3.org/2000/svg" width="300" height="300" viewBox="0 0 300 300" version="1.1">
	<path d="M 157.667 59.667 C 157.300 60.033, 157 63.138, 157 66.566 L 157 72.798 152.897 74.936 C 147.903 77.540, 146.880 76.903, 145.007 70.024 C 143.353 63.951, 140.687 61.072, 138.191 62.662 C 136.421 63.790, 136.288 66.702, 137.567 76.274 C 138.311 81.840, 137.062 84, 133.100 84 C 130.198 84, 126 86.478, 126 88.190 C 126 89.364, 131.013 93.997, 132.285 93.999 C 132.717 93.999, 134.207 93.256, 135.595 92.346 C 139.848 89.559, 140.829 91.765, 141.111 104.746 C 141.340 115.289, 141.211 116.147, 139.048 118.448 C 137.467 120.132, 136.926 121.608, 137.327 123.143 C 138.015 125.772, 134.473 133.335, 129.717 139.394 C 127.948 141.649, 125.825 144.362, 125 145.423 C 124.175 146.485, 119.900 151.138, 115.500 155.765 C 106.302 165.436, 105.453 167.041, 107.468 170.938 C 109.766 175.382, 115.502 175.715, 118.914 171.604 C 119.646 170.722, 120.653 170, 121.151 170 C 121.649 170, 125.438 168.396, 129.570 166.435 C 139.111 161.907, 140.573 162.126, 140.275 168.037 C 140.151 170.492, 139.581 174.750, 139.008 177.500 C 137.354 185.432, 136.183 207.302, 137.332 208.801 C 137.880 209.516, 139.487 209.966, 140.903 209.801 C 143.023 209.553, 143.619 208.795, 144.286 205.500 C 144.732 203.300, 145.512 199.475, 146.019 197 C 147.937 187.654, 149.976 173.188, 150.569 164.720 L 151.185 155.940 156.059 153.470 C 158.740 152.112, 161.635 151, 162.492 151 C 165.222 151, 166.086 155.923, 167.047 176.958 C 167.564 188.256, 168.455 203.509, 169.028 210.854 C 169.601 218.199, 170.002 237.014, 169.919 252.666 C 169.769 281.047, 169.775 281.131, 172.059 283.562 C 174.834 286.516, 176.138 286.610, 178.477 284.025 C 180.434 281.863, 180.427 281.236, 178.064 244.500 C 177.462 235.150, 176.744 214.225, 176.467 198 C 176.190 181.775, 175.859 163.130, 175.732 156.567 L 175.500 144.635 180.283 143.413 C 182.913 142.740, 185.655 141.701, 186.376 141.103 C 188.385 139.436, 207.786 137.386, 209.102 138.702 C 210.529 140.129, 210.545 155.113, 209.122 157.772 C 208.505 158.925, 208 161.222, 208 162.875 C 208 164.529, 207.601 166.129, 207.113 166.430 C 206.626 166.731, 205.922 168.670, 205.549 170.739 C 204.423 176.982, 201.147 182.638, 196.409 186.521 L 191.920 190.199 187.003 185.600 C 179.801 178.863, 178.139 179.708, 181.955 188.167 C 185.821 196.738, 188.977 198.747, 195.856 197.015 C 202.838 195.258, 207.421 192.270, 209.427 188.169 C 210.414 186.151, 211.622 183.719, 212.111 182.764 C 212.600 181.809, 213 179.761, 213 178.214 C 213 176.666, 213.446 174.954, 213.991 174.409 C 214.536 173.864, 215.462 171.186, 216.049 168.459 C 216.636 165.731, 217.591 161.475, 218.173 159 C 218.755 156.525, 219.436 150.533, 219.688 145.685 C 220.223 135.382, 219.277 133.202, 212.853 129.925 C 207.892 127.394, 204.457 127.587, 187.550 131.344 C 180.977 132.804, 175.301 133.662, 174.936 133.250 C 171.736 129.632, 171.860 118.925, 175.165 113.500 C 176.170 111.850, 176.994 109.726, 176.996 108.781 C 176.998 107.835, 177.856 105.360, 178.901 103.281 C 182.632 95.862, 183.971 92.413, 185.567 86.115 L 187.185 79.730 184.752 77.298 C 182.999 75.544, 179.971 74.388, 173.910 73.158 L 165.500 71.451 165.190 65.997 C 165.019 62.998, 164.344 60.203, 163.690 59.787 C 162.210 58.846, 158.560 58.773, 157.667 59.667 M 91.905 83.282 C 90.891 84.056, 90.066 86.867, 89.638 91 C 88.582 101.201, 87.939 105.342, 87.078 107.500 C 86.639 108.600, 85.497 112.200, 84.540 115.500 C 83.584 118.800, 82.396 122.281, 81.900 123.236 C 81.405 124.191, 81 125.922, 81 127.082 C 81 128.242, 80.371 130.386, 79.602 131.846 C 78.834 133.306, 77.662 136.525, 76.999 139 C 76.335 141.475, 74.713 146.200, 73.393 149.500 C 72.074 152.800, 70.996 156.069, 70.997 156.764 C 71 158.041, 70.613 158.951, 67.643 164.654 C 66.739 166.389, 66 168.950, 66 170.345 C 66 171.740, 65.550 173.160, 65 173.500 C 64.450 173.840, 64 174.872, 64 175.793 C 64 176.714, 62.795 179.950, 61.323 182.984 C 59.850 186.018, 58.228 189.625, 57.717 191 C 57.207 192.375, 56.088 194.969, 55.230 196.763 C 54.372 198.558, 53.632 201.933, 53.585 204.263 C 53.508 208.128, 53.718 208.500, 55.975 208.500 C 57.898 208.500, 59.237 207.244, 61.975 202.872 C 73.009 185.254, 75.109 183.465, 78.562 188.735 C 80.681 191.969, 81.794 196.715, 82.889 207.191 C 84.002 217.842, 87.805 222.795, 91.800 218.800 C 93.242 217.358, 93.422 204.022, 92.060 199.571 C 91.543 197.882, 90.596 194.015, 89.955 190.979 C 88.305 183.159, 82.179 177, 76.050 177 C 74.330 177, 74 176.365, 74 173.059 C 74 170.891, 74.450 168.840, 75 168.500 C 75.550 168.160, 76 167.060, 76 166.055 C 76 165.051, 76.672 162.940, 77.494 161.364 C 78.315 159.789, 78.990 157.739, 78.994 156.809 C 78.997 155.879, 79.398 154.872, 79.885 154.571 C 80.371 154.271, 81.004 152.781, 81.291 151.262 C 81.577 149.743, 83.147 144.675, 84.779 140 C 86.411 135.325, 88.536 128.800, 89.501 125.500 C 90.467 122.200, 91.649 119.072, 92.129 118.550 C 92.608 118.027, 93 116.655, 93 115.500 C 93 114.345, 93.424 112.973, 93.943 112.450 C 95.102 111.282, 96.638 105.238, 98.693 93.758 C 99.952 86.730, 100.013 84.721, 99.007 83.508 C 97.510 81.704, 94.112 81.596, 91.905 83.282 M 169.697 82.750 C 169.465 83.162, 169.492 86.313, 169.758 89.750 C 170.349 97.402, 172.051 97.934, 174.953 91.373 C 177.610 85.368, 177.535 84.154, 174.435 82.975 C 171.355 81.804, 170.257 81.752, 169.697 82.750 M 153.119 84.711 L 149.738 86.377 150.369 93.839 C 150.716 97.944, 151 103.709, 151 106.651 C 151 111.655, 151.157 112, 153.441 112 C 154.784 112, 156.177 111.522, 156.538 110.938 C 156.899 110.354, 158.276 109.466, 159.597 108.963 C 162.385 107.903, 162.446 107.206, 160.866 94.568 C 159.825 86.242, 158.764 82.963, 157.128 83.023 C 156.782 83.035, 154.979 83.795, 153.119 84.711 M 157.018 125.752 C 153.723 127.406, 153.479 127.888, 152.460 134.751 C 151.253 142.879, 151.880 145.241, 154.722 143.260 C 155.700 142.579, 158.188 141.107, 160.250 139.990 C 163.708 138.118, 163.992 137.630, 163.900 133.730 C 163.780 128.606, 162.787 124.762, 161.472 124.326 C 160.938 124.148, 158.933 124.790, 157.018 125.752 M 139.283 140.207 C 138.715 140.918, 137.461 143.075, 136.497 145 C 135.533 146.925, 133.227 149.770, 131.372 151.323 C 129.517 152.875, 128 154.563, 128 155.073 C 128 156.947, 131.007 155.901, 136.929 151.968 C 141.951 148.633, 143.026 147.422, 143.150 144.968 C 143.233 143.335, 143.345 141.444, 143.400 140.764 C 143.539 139.043, 140.537 138.637, 139.283 140.207" stroke="none" fill="black" fill-rule="evenodd"/>
</svg>