<svg xmlns="http://www.w3.org/2000/svg" width="300" height="300" viewBox="0 0 300 300" version="1.1">
	<path d="M 149.977 39.560 C 148.687 42.953, 150.003 54.489, 152.935 65.500 C 154.773 72.401, 155.138 77.211, 155.591 100.500 C 156.275 135.671, 156.340 220.641, 155.683 221.704 C 155.403 222.158, 154.869 229.647, 154.498 238.347 C 154.126 247.046, 153.477 257.615, 153.055 261.832 C 152.633 266.049, 152.672 270.258, 153.144 271.184 C 153.615 272.111, 154 274.608, 154 276.734 C 154 280.920, 155.383 283, 158.165 283 C 161.450 283, 162.116 279.303, 162.545 258.699 C 162.776 247.590, 163.326 230.850, 163.766 221.500 C 164.488 206.155, 164.806 204.062, 167.033 200 C 169.840 194.879, 170.952 193.820, 172.806 194.501 C 174.042 194.955, 184.137 188.205, 185.486 186.022 C 185.834 185.460, 187.404 185, 188.976 185 C 190.548 185, 193.797 184.159, 196.195 183.131 C 199.331 181.786, 202.876 181.276, 208.809 181.314 C 217.730 181.372, 219.349 180.620, 220.510 175.882 C 221.009 173.842, 220.611 172.839, 218.706 171.340 C 213.806 167.487, 195.130 169.946, 185 175.779 C 183.075 176.888, 180.375 178.121, 179 178.519 C 177.625 178.918, 174.624 180.764, 172.332 182.622 C 165.494 188.164, 165.210 187.797, 165.456 173.750 C 165.573 167.012, 165.263 160.300, 164.766 158.833 C 163.235 154.315, 164.877 152.119, 182.229 135.490 C 185.379 132.471, 188.337 130, 188.801 130 C 189.266 130, 190.659 127.971, 191.897 125.491 C 193.854 121.574, 193.998 120.524, 192.997 117.491 C 192.363 115.571, 191.423 114, 190.908 114 C 190.392 114, 189.079 112.537, 187.989 110.750 C 186.131 107.703, 186.007 107.650, 186.004 109.902 C 186 112.216, 184.842 114.011, 175 126.962 C 172.525 130.218, 169.771 133.913, 168.881 135.172 C 167.449 137.196, 167.062 137.297, 165.545 136.038 C 164.193 134.916, 163.957 133.646, 164.429 130.057 C 165.353 123.032, 165.360 121.972, 164.523 114.834 C 163.347 104.811, 163.895 103.645, 170.422 102.276 C 173.443 101.642, 177.171 100.260, 178.707 99.205 C 180.243 98.150, 182.742 96.534, 184.259 95.614 C 187.548 93.621, 190.193 88.100, 188.743 86.255 C 188.204 85.571, 187.983 84.172, 188.251 83.147 C 188.916 80.605, 187.296 78, 185.049 78 C 184.030 78, 182.359 79.323, 181.335 80.940 C 178.195 85.899, 166.822 93.233, 165.052 91.440 C 164.541 90.923, 163.903 86.225, 163.634 81 C 163.022 69.142, 161.574 58.941, 160.116 56.216 C 159.502 55.069, 159 52.392, 159 50.266 C 159 48.140, 158.502 45.902, 157.893 45.293 C 157.284 44.684, 156.479 42.681, 156.106 40.843 C 155.196 36.369, 151.486 35.593, 149.977 39.560 M 111.606 49.882 C 109.920 51.746, 110.014 54.553, 111.930 59.500 C 114.589 66.362, 119.960 96.373, 118.747 97.586 C 118.431 97.903, 117.217 97.651, 116.051 97.027 C 114.155 96.013, 112.982 96.759, 104.965 104.086 C 100.034 108.593, 96 112.472, 96 112.706 C 96 112.940, 96.517 114.114, 97.150 115.316 C 99.973 120.679, 103.525 120.228, 111.456 113.500 C 115.022 110.475, 118.403 108, 118.970 108 C 119.536 108, 120.070 109.237, 120.157 110.750 C 120.243 112.263, 120.470 114.850, 120.662 116.500 C 121.372 122.592, 120.933 143.046, 120.043 145.387 C 119.537 146.717, 118.622 148.116, 118.008 148.495 C 117.395 148.874, 115.783 151.694, 114.427 154.762 C 113.070 157.830, 111.069 160.964, 109.980 161.727 C 108.891 162.489, 108 163.800, 108 164.639 C 108 167.441, 81.852 194.871, 76.414 197.775 C 75.100 198.477, 73.348 200.361, 72.520 201.962 C 69.988 206.858, 72.631 210.023, 77.107 207.453 C 78.423 206.698, 80.625 205.499, 82 204.790 C 85.025 203.229, 91 197.450, 91 196.084 C 91 195.544, 92.575 193.900, 94.500 192.432 C 96.425 190.964, 98.018 189.254, 98.041 188.631 C 98.099 187.016, 103.090 181.496, 105.750 180.106 C 107.081 179.410, 108 177.999, 108 176.652 C 108 175.399, 109.350 173.081, 111 171.500 C 112.650 169.919, 114 168.255, 114 167.802 C 114 166.261, 118.217 158, 119.003 158 C 120.881 158, 120.834 159.460, 118.171 184 C 115.665 207.095, 111.220 218, 104.311 218 C 100.932 218, 101.435 220.685, 105.250 223.011 C 109.841 225.810, 111.044 225.550, 115.766 220.738 C 119.483 216.951, 120.221 215.366, 122.401 206.488 C 125.265 194.828, 126.721 186.769, 128.090 175 C 129.762 160.635, 130.815 139.885, 130.274 132 C 129.991 127.875, 129.636 119.325, 129.486 113 C 128.998 92.509, 126.241 74.789, 121.162 59.500 C 120.614 57.850, 119.902 55.294, 119.581 53.820 C 118.926 50.814, 116.510 48, 114.584 48 C 113.883 48, 112.543 48.847, 111.606 49.882 M 72.621 59.866 C 71.621 60.971, 70.547 64.740, 69.984 69.116 C 68.511 80.585, 65.458 92.525, 62.602 97.988 C 61.171 100.724, 60 103.861, 60 104.957 C 60 106.054, 59.109 108.416, 58.020 110.207 C 56.932 111.997, 55.310 115.946, 54.417 118.981 C 53.523 122.016, 51.981 126.750, 50.990 129.500 C 49.999 132.250, 48.436 136.975, 47.519 140 C 46.601 143.025, 44.758 147.835, 43.425 150.688 C 42.091 153.542, 41 156.343, 41 156.913 C 41 157.483, 39.712 160.774, 38.137 164.225 C 36.562 167.676, 34.931 171.625, 34.512 173 C 34.093 174.375, 32.146 178.766, 30.186 182.758 L 26.621 190.016 28.660 192.758 C 31.251 196.244, 35.447 196.902, 36.968 194.060 C 38.464 191.265, 42.140 191.456, 44.978 194.477 C 47.965 197.656, 50.270 208.927, 48.798 213.151 C 47.534 216.776, 49.120 219, 52.967 219 C 57.487 219, 59.090 216.158, 59.482 207.449 C 59.674 203.188, 59.464 198.982, 59.015 198.101 C 58.567 197.220, 56.996 193.503, 55.526 189.841 C 52.830 183.126, 52.050 182.417, 45.250 180.500 C 42.578 179.746, 42.454 178.350, 44.611 173.284 C 50.395 159.695, 51 158.069, 51 156.102 C 51 155.110, 52.125 152.182, 53.500 149.596 C 54.875 147.010, 56 144.118, 56 143.170 C 56 142.221, 56.594 140.557, 57.321 139.473 C 59.662 135.976, 63.197 124.862, 62.643 122.741 C 62.324 121.524, 62.900 119.671, 64.052 118.207 C 65.123 116.845, 66 114.946, 66 113.988 C 66 113.029, 66.648 111.707, 67.439 111.051 C 68.230 110.394, 69.842 106.743, 71.019 102.938 C 72.197 99.132, 73.575 95.763, 74.080 95.450 C 74.586 95.138, 75 93.874, 75 92.641 C 75 91.408, 75.553 89.847, 76.230 89.170 C 76.906 88.494, 77.783 85.141, 78.179 81.720 C 78.575 78.299, 79.420 72.155, 80.058 68.066 C 81.116 61.277, 81.060 60.517, 79.417 59.316 C 76.915 57.486, 74.606 57.673, 72.621 59.866 M 109 122.499 C 108.450 123.946, 108 125.724, 108 126.451 C 108 128.473, 105.776 132.222, 102.894 135.057 C 101.465 136.463, 100.116 138.047, 99.898 138.576 C 99.679 139.105, 97.169 141.486, 94.319 143.867 C 91.470 146.248, 88.886 148.855, 88.576 149.661 C 87.583 152.250, 90.786 157, 93.526 157 C 94.887 157, 96 156.551, 96 156.003 C 96 154.211, 102.950 147.263, 106.011 145.996 C 107.655 145.315, 109 144.207, 109 143.534 C 109 142.861, 110.124 141.004, 111.499 139.406 C 112.873 137.807, 113.998 135.577, 113.999 134.450 C 113.999 133.322, 114.477 131.923, 115.060 131.340 C 115.644 130.756, 115.981 128.079, 115.810 125.390 C 115.525 120.889, 115.281 120.475, 112.750 120.184 C 110.557 119.931, 109.799 120.399, 109 122.499" stroke="none" fill="black" fill-rule="evenodd"/>
</svg>