<svg xmlns="http://www.w3.org/2000/svg" width="300" height="300" viewBox="0 0 300 300" version="1.1">
	<path d="M 136.472 51.031 C 134.761 52.922, 134.715 53.867, 135.803 64.781 C 136.445 71.226, 137.249 79.479, 137.588 83.121 L 138.205 89.742 134.741 92.384 C 130.126 95.904, 118.466 101.518, 111.661 103.496 C 104.358 105.619, 103.354 106.913, 105.270 111.737 C 107.108 116.363, 109.430 116.876, 114.120 113.693 C 116.059 112.378, 118.738 111.031, 120.073 110.700 C 128.496 108.614, 132.209 107.152, 134.022 105.207 C 136.796 102.230, 138.834 102.429, 139.578 105.750 C 139.917 107.263, 140.598 110.075, 141.091 112 C 142.409 117.139, 142.195 123.593, 140.665 124.863 C 139.930 125.473, 138.762 127.890, 138.068 130.236 C 137.374 132.581, 136.399 135.175, 135.901 136 C 135.403 136.825, 134.562 138.501, 134.032 139.723 C 133.503 140.946, 131.479 144.259, 129.535 147.086 C 127.591 149.912, 126 152.655, 126 153.182 C 126 153.709, 124.650 156.102, 123 158.500 C 121.350 160.898, 120 163.239, 120 163.702 C 120 164.165, 118.718 166.109, 117.152 168.022 C 115.585 169.935, 113.481 173.300, 112.475 175.500 C 108.981 183.143, 97.601 201.228, 93.216 206.105 C 90.790 208.803, 87.742 211.278, 86.443 211.604 C 85.145 211.930, 83.516 212.879, 82.823 213.713 C 81.779 214.971, 81.983 215.567, 84.021 217.218 C 85.924 218.759, 87.466 219.095, 90.878 218.710 C 94.768 218.272, 95.932 217.483, 100.890 211.921 C 105.939 206.258, 109.876 200.120, 113.027 193 C 113.635 191.625, 114.949 189.600, 115.947 188.500 C 116.945 187.400, 118.355 184.813, 119.081 182.750 C 119.808 180.688, 120.721 179, 121.111 179 C 122.161 179, 136.529 157.108, 138.340 152.750 C 139.446 150.087, 140.512 149, 142.017 149 C 144.001 149, 144.121 149.461, 143.912 156.250 C 143.789 160.238, 144.223 165.403, 144.877 167.729 C 146.518 173.567, 146.977 244.158, 145.377 244.701 C 144.760 244.910, 144.015 244.166, 143.722 243.046 C 143.082 240.597, 140.280 239.320, 138.798 240.802 C 136.273 243.327, 142.326 257.327, 146.403 258.395 C 149.022 259.080, 153.714 256.477, 154.538 253.880 C 155.809 249.876, 156.533 205.206, 155.403 200.500 C 155.139 199.400, 154.809 189.387, 154.670 178.250 C 154.388 155.626, 154.389 155.622, 161 160.500 C 162.864 161.875, 165.175 163, 166.135 163 C 167.096 163, 168.160 163.450, 168.500 164 C 168.840 164.550, 170.216 165, 171.559 165 C 172.902 165, 174 165.406, 174 165.901 C 174 167.957, 184.588 173.137, 191.405 174.416 C 193.231 174.759, 195.485 175.879, 196.414 176.905 C 197.342 177.931, 199.359 179.022, 200.894 179.329 C 202.430 179.636, 207.058 181.488, 211.179 183.444 C 215.548 185.518, 220.205 187, 222.352 187 C 225.561 187, 226.242 186.560, 227.672 183.562 C 229.173 180.415, 229.177 179.919, 227.723 177.701 C 226.184 175.351, 222.380 174, 217.305 174 C 214.516 174, 202.851 169.529, 192.393 164.451 C 188.485 162.553, 184.962 161, 184.565 161 C 184.168 161, 180.569 159.425, 176.567 157.500 C 172.565 155.575, 168.611 154, 167.780 154 C 166.949 154, 165.197 153.165, 163.885 152.145 C 162.573 151.125, 159.818 149.980, 157.762 149.602 C 155.644 149.212, 153.586 148.094, 153.012 147.023 C 152.455 145.983, 152 140.242, 152 134.266 C 152 127.611, 151.568 122.968, 150.886 122.286 C 150.167 121.567, 149.816 116.575, 149.898 108.235 L 150.025 95.299 153.867 91.261 C 155.979 89.040, 159.760 86.315, 162.268 85.205 C 167.591 82.851, 169.234 80.339, 168.808 75.208 C 168.526 71.815, 168.218 71.473, 165.188 71.182 C 162.263 70.901, 161.185 71.585, 155.974 77.027 C 152.728 80.417, 149.516 83.005, 148.836 82.779 C 148.133 82.544, 147.052 78.731, 146.329 73.933 C 145.629 69.295, 144.628 62.647, 144.103 59.161 C 143.256 53.535, 140.979 49, 139 49 C 138.620 49, 137.483 49.914, 136.472 51.031 M 71.006 77.492 C 70.414 78.206, 70.051 79.174, 70.199 79.645 C 70.683 81.179, 67.906 92.277, 64.355 103 C 62.443 108.775, 60.642 114.625, 60.353 116 C 60.064 117.375, 58.490 121.388, 56.856 124.917 C 55.221 128.447, 53.626 132.619, 53.312 134.188 C 52.998 135.758, 52.350 137.284, 51.871 137.580 C 51.392 137.876, 51 139.149, 51 140.410 C 51 141.671, 49.875 144.818, 48.500 147.404 C 47.125 149.990, 46 152.882, 46 153.830 C 46 154.779, 45.400 156.443, 44.666 157.527 C 43.932 158.612, 42.728 161.750, 41.991 164.500 C 41.254 167.250, 40.031 170.470, 39.272 171.655 C 38.290 173.192, 38.141 174.771, 38.755 177.155 C 39.855 181.429, 43.866 182.215, 48.204 179.007 C 50.588 177.245, 51.392 177.080, 52.625 178.104 C 55.488 180.480, 57.351 185.520, 57.425 191.096 C 57.538 199.540, 60.297 201.914, 65.365 197.927 C 67.495 196.252, 68 195.015, 68 191.476 C 68 183.202, 65.535 176.482, 60.969 172.311 C 58.674 170.215, 55.969 168.105, 54.957 167.623 C 52.413 166.411, 51.861 164.458, 53.151 161.238 C 53.755 159.732, 54.597 157.600, 55.021 156.500 C 55.446 155.400, 56.762 152.115, 57.946 149.200 C 59.130 146.286, 62.605 136.386, 65.668 127.200 C 68.732 118.015, 72.022 108.700, 72.980 106.500 C 75.409 100.921, 77.430 90.600, 77.468 83.577 C 77.498 77.972, 77.354 77.615, 74.791 76.925 C 73.009 76.444, 71.715 76.638, 71.006 77.492" stroke="none" fill="black" fill-rule="evenodd"/>
</svg>