<svg xmlns="http://www.w3.org/2000/svg" width="300" height="300" viewBox="0 0 300 300" version="1.1">
	<path d="M 125.257 55.250 C 124.714 55.938, 124.006 62.965, 123.685 70.866 C 123.032 86.897, 122.470 88.314, 116.312 89.469 C 114.355 89.836, 112.022 90.530, 111.127 91.010 C 110.232 91.490, 106.870 92.659, 103.655 93.608 C 95.016 96.158, 92.681 99.591, 96.955 103.460 C 99.303 105.585, 102.767 105.209, 111.689 101.864 C 115.092 100.588, 118.171 99.838, 118.530 100.197 C 119.257 100.924, 117.557 106.969, 115.400 111.331 C 114.630 112.888, 114 115.106, 114 116.260 C 114 118.180, 112.869 122.394, 110.985 127.500 C 110.578 128.600, 109.025 133.550, 107.533 138.500 C 106.041 143.450, 104.186 148.978, 103.410 150.784 C 102.635 152.590, 102 154.863, 102 155.834 C 102 156.805, 101.624 158.027, 101.164 158.550 C 100.704 159.072, 99.117 163.550, 97.639 168.500 C 96.160 173.450, 93.836 179.591, 92.475 182.147 C 91.114 184.703, 90 187.747, 90 188.911 C 90 190.075, 89.592 191.809, 89.092 192.764 C 87.960 194.930, 85 204.812, 85 206.427 C 85 207.086, 84.153 209.396, 83.117 211.562 C 82.082 213.728, 80.923 217.075, 80.542 219 C 80.160 220.925, 78.983 224.408, 77.924 226.739 C 75.598 231.863, 75.472 235.317, 77.546 237.038 C 78.827 238.101, 79.543 237.985, 81.719 236.361 C 83.163 235.282, 84.653 233.747, 85.029 232.950 C 86.613 229.588, 90 218.340, 90 216.441 C 90 215.309, 90.661 213.509, 91.468 212.441 C 92.276 211.374, 92.951 209.353, 92.968 207.950 C 92.986 206.548, 93.395 204.973, 93.879 204.450 C 94.362 203.928, 95.731 200.298, 96.920 196.384 C 98.110 192.470, 99.725 188.420, 100.510 187.384 C 101.294 186.348, 101.951 184.349, 101.968 182.941 C 101.986 181.534, 102.661 179.509, 103.468 178.441 C 104.276 177.374, 104.951 175.574, 104.968 174.441 C 104.986 173.309, 105.661 171.509, 106.468 170.441 C 107.276 169.374, 107.951 167.353, 107.968 165.950 C 107.986 164.548, 108.372 162.973, 108.826 162.450 C 109.280 161.928, 110.137 159.700, 110.729 157.500 C 112.931 149.321, 115.304 141.859, 118.044 134.500 C 120.867 126.919, 122 123.170, 122 121.417 C 122 120.307, 122.385 118.972, 122.855 118.450 C 124.026 117.150, 127 107.587, 127 105.121 C 127 104.019, 127.395 102.874, 127.877 102.576 C 128.359 102.278, 129.244 100.089, 129.842 97.712 C 130.789 93.951, 131.553 93.080, 135.715 91.010 C 138.347 89.702, 142.921 87.088, 145.879 85.202 C 148.838 83.316, 153.248 80.893, 155.680 79.817 C 161.970 77.035, 163.996 70.687, 160.121 65.901 L 158.242 63.580 154.753 66.540 C 146.113 73.870, 134.649 82, 132.955 82 C 132.265 82, 131.917 79.695, 132.010 75.750 C 132.347 61.474, 132.008 57.151, 130.429 55.571 C 128.535 53.678, 126.595 53.557, 125.257 55.250 M 60.646 63.250 C 58.140 68.873, 57 73.174, 57 77 C 57 79.036, 56.552 82.006, 56.006 83.601 C 55.102 86.235, 53.790 93.260, 52.335 103.256 C 52.035 105.322, 51.386 107.261, 50.894 107.565 C 50.402 107.869, 50 109.355, 50 110.868 C 50 112.380, 49.339 114.491, 48.532 115.559 C 47.724 116.626, 47.049 118.593, 47.032 119.929 C 46.994 122.783, 45.312 128.404, 43.373 132.154 C 42.618 133.614, 42 135.662, 42 136.704 C 42 137.747, 41.631 139.028, 41.180 139.550 C 40.729 140.073, 39.330 143.875, 38.071 148 C 36.812 152.125, 34.931 157.349, 33.891 159.610 C 32.851 161.870, 32 164.937, 32 166.425 C 32 167.914, 31.536 169.998, 30.970 171.056 C 29.395 173.999, 29.464 180.044, 31.085 181.099 C 31.863 181.606, 34.135 181.761, 36.133 181.442 C 39.337 180.932, 40.017 181.215, 41.883 183.836 C 43.048 185.471, 44 187.427, 44 188.182 C 44 188.937, 44.630 190.454, 45.400 191.554 C 46.170 192.653, 47.032 196.240, 47.317 199.526 C 48.097 208.548, 49.046 211.954, 51.083 213.045 C 54.257 214.743, 55.822 210.734, 55.394 202 C 55.192 197.875, 55.032 193.150, 55.039 191.500 C 55.053 188.299, 53.461 181.966, 51.700 178.217 C 50.985 176.697, 49.158 175.565, 46.228 174.827 C 43.809 174.218, 41.575 173.056, 41.263 172.244 C 40.565 170.423, 42.677 158.585, 44.430 154.503 C 47.359 147.679, 48.073 145.637, 49.047 141.291 C 49.609 138.783, 51.178 134.385, 52.534 131.519 C 53.890 128.652, 55 124.957, 55 123.307 C 55 121.657, 55.722 118.859, 56.605 117.090 C 59.238 111.813, 61.968 100.267, 65.023 81.500 C 66.097 74.900, 67.261 68.247, 67.611 66.715 C 68.056 64.766, 67.713 63.340, 66.468 61.965 C 63.934 59.164, 62.306 59.524, 60.646 63.250 M 155.653 127 C 153.774 128.650, 151.534 130, 150.677 130 C 149.820 130, 148.841 130.449, 148.502 130.997 C 147.643 132.387, 137.338 137, 135.093 137 C 134.076 137, 132.685 137.675, 132 138.500 C 131.315 139.325, 130.014 140, 129.109 140 C 127.217 140, 117 149.699, 117 151.495 C 117 153.133, 120.313 156, 122.206 156 C 123.058 156, 124.288 155.357, 124.940 154.572 C 125.592 153.787, 128.429 151.939, 131.245 150.467 C 134.061 148.994, 137.628 146.856, 139.170 145.716 C 140.713 144.575, 142.256 143.922, 142.598 144.265 C 143.233 144.900, 144.161 172.826, 144.043 187.777 C 143.983 195.481, 143.749 196.379, 140.668 200.760 C 138.269 204.171, 136.414 205.691, 133.929 206.283 C 130.659 207.061, 125.263 208.544, 116.500 211.070 C 110.290 212.860, 108 214.679, 108 217.823 C 108 219.350, 108.540 221.140, 109.200 221.800 C 110.793 223.393, 116.432 223.325, 120.349 221.665 C 125.464 219.497, 130.044 218.004, 137.883 215.949 C 141.944 214.885, 146.625 213.336, 148.287 212.507 C 149.948 211.678, 152.476 210.986, 153.904 210.968 C 155.332 210.951, 157.374 210.276, 158.441 209.468 C 159.509 208.661, 161.395 208, 162.632 208 C 163.870 208, 165.127 207.603, 165.427 207.118 C 165.727 206.633, 168.972 205.915, 172.638 205.522 C 176.303 205.130, 181.597 204.146, 184.401 203.336 C 187.206 202.526, 191.525 201.473, 194 200.996 C 210.137 197.888, 212.512 196.439, 210.921 190.676 C 210.346 188.593, 209.169 186.619, 208.306 186.287 C 205.873 185.353, 193.735 188.040, 191.500 190.007 C 190.400 190.976, 186.575 192.222, 183 192.778 C 175.760 193.902, 165.893 196.245, 158.866 198.508 C 156.317 199.329, 153.842 200, 153.366 200 C 152.890 200.001, 152.660 194.075, 152.855 186.833 C 153.056 179.371, 152.752 172.112, 152.154 170.082 C 151.573 168.112, 150.883 161.451, 150.620 155.280 L 150.142 144.059 157.066 139.456 C 164.514 134.505, 167 131.757, 167 128.477 C 167 123.247, 160.841 122.445, 155.653 127" stroke="none" fill="black" fill-rule="evenodd"/>
</svg>