<svg xmlns="http://www.w3.org/2000/svg" width="300" height="300" viewBox="0 0 300 300" version="1.1">
	<path d="M 124.928 24.258 C 124.181 25.898, 124.313 28.104, 125.410 32.315 C 126.880 37.959, 126.854 38.254, 124.463 43.307 C 123.112 46.163, 120.596 50.383, 118.871 52.685 C 115.804 56.780, 115.516 60.011, 118.219 59.990 C 119.894 59.976, 129.995 50.345, 130.017 48.739 C 130.027 48.057, 131.138 46.454, 132.486 45.175 C 135.796 42.036, 136.761 36.558, 134.636 32.962 C 133.736 31.438, 133 29.049, 133 27.652 C 133 25.119, 129.830 22, 127.256 22 C 126.542 22, 125.494 23.016, 124.928 24.258 M 156.564 48.896 C 156.259 49.389, 154.095 50.791, 151.755 52.011 C 149.415 53.230, 145.925 55.462, 144 56.969 C 142.075 58.477, 139.375 60.299, 138 61.018 C 136.625 61.736, 133.925 63.552, 132 65.051 C 127.609 68.472, 101.115 77.009, 92.625 77.739 C 89.256 78.029, 85.899 78.743, 85.164 79.327 C 83.686 80.500, 84.253 85.395, 86.128 87.655 C 87.361 89.140, 95.562 89.518, 96.420 88.129 C 96.716 87.650, 99.151 87.048, 101.831 86.790 C 104.511 86.533, 108.712 85.350, 111.167 84.161 C 113.623 82.972, 116.241 82, 116.987 82 C 117.733 82, 119.199 81.225, 120.245 80.279 C 122.178 78.529, 129.770 76.124, 133.615 76.044 C 134.778 76.020, 136.984 75.014, 138.516 73.809 C 140.049 72.603, 143.880 70.398, 147.031 68.908 C 150.181 67.418, 153.047 65.733, 153.400 65.163 C 153.752 64.593, 156.469 62.977, 159.438 61.572 C 163.883 59.470, 164.961 58.452, 165.541 55.813 C 166.136 53.106, 165.829 52.249, 163.567 50.304 C 160.829 47.949, 157.556 47.291, 156.564 48.896 M 63.038 58.750 C 61.011 61.195, 60.104 63.209, 60.431 64.539 C 60.707 65.660, 60.272 67.849, 59.466 69.403 C 58.660 70.957, 57.990 73.190, 57.978 74.364 C 57.966 75.539, 57.044 78.511, 55.929 80.969 C 54.814 83.427, 53.663 87.477, 53.371 89.969 C 53.080 92.461, 52.494 95.400, 52.070 96.500 C 50.746 99.936, 48.921 105.306, 47.341 110.422 C 46.504 113.130, 45.147 116.373, 44.324 117.629 C 43.501 118.884, 43.130 120.402, 43.500 121 C 43.870 121.598, 43.459 123.177, 42.586 124.509 C 41.714 125.840, 41 128.044, 41 129.406 C 41 130.768, 40.550 132.160, 40 132.500 C 39.450 132.840, 39 134.160, 39 135.435 C 39 136.709, 37.875 140.295, 36.500 143.404 C 35.125 146.513, 34 149.800, 34 150.708 C 34 152.301, 33.425 154.356, 30.279 164 C 27.928 171.209, 23.690 182.413, 22.903 183.500 C 22.505 184.050, 21.863 186.189, 21.477 188.254 C 20.662 192.617, 22.881 197, 25.904 197 C 27.738 197, 33 191.126, 33 189.080 C 33 188.501, 34.237 186.224, 35.750 184.021 C 38.593 179.880, 42.376 177.976, 44.180 179.780 C 45.671 181.271, 48.815 195.517, 48.276 198.338 C 47.647 201.625, 51.537 209, 53.898 209 C 56.890 209, 58.154 206.497, 58.548 199.790 C 59.187 188.890, 58.962 185.616, 57.460 183.956 C 56.657 183.068, 56 181.584, 56 180.658 C 56 176.327, 50.733 170.275, 45.812 168.949 C 43.605 168.355, 41.292 166.849, 40.329 165.380 C 38.776 163.009, 38.776 162.650, 40.332 160.015 C 41.249 158.462, 42 156.017, 42 154.582 C 42 153.147, 42.437 151.191, 42.971 150.236 C 43.504 149.281, 45.142 145, 46.610 140.723 C 48.078 136.446, 49.666 132.706, 50.139 132.414 C 50.613 132.121, 51 130.711, 51 129.279 C 51 126.508, 53.434 117.472, 55.520 112.500 C 56.212 110.850, 57.443 107.923, 58.256 105.996 C 59.068 104.069, 60.053 101.036, 60.443 99.257 C 60.834 97.478, 61.569 95.766, 62.077 95.452 C 62.585 95.139, 63 93.045, 63 90.801 C 63 88.556, 63.961 84.645, 65.136 82.110 C 69.385 72.939, 70.001 70.845, 70.527 63.775 C 70.811 59.966, 70.481 58.085, 69.303 56.782 C 67.076 54.321, 66.578 54.478, 63.038 58.750 M 158.018 83.478 C 156.586 85.204, 156.564 87.023, 157.861 96.500 C 158.387 100.350, 159.070 106.240, 159.377 109.589 L 159.936 115.678 155.608 117.839 C 153.228 119.027, 151.015 120, 150.691 120 C 150.366 120, 147.516 121.557, 144.357 123.460 C 135.946 128.527, 133.813 133.597, 138.314 137.826 C 139.587 139.022, 140.974 140, 141.396 140 C 141.818 140, 144.039 138.500, 146.332 136.667 C 151.790 132.304, 157.358 129, 159.255 129 C 161.532 129, 161.901 132.606, 162.986 165.500 C 164.619 214.972, 163.570 274.830, 161.027 277.373 C 160.252 278.148, 158.833 277.187, 156.016 273.977 C 153.854 271.515, 152.066 269.092, 152.043 268.594 C 152.019 268.096, 150.972 266.296, 149.716 264.594 C 148.460 262.892, 146.895 260.262, 146.238 258.750 C 145.020 255.947, 142.658 255.127, 141.446 257.087 C 141.077 257.685, 141.275 258.675, 141.887 259.287 C 142.499 259.899, 143 261.340, 143 262.489 C 143 263.637, 143.900 266.342, 145 268.500 C 146.100 270.658, 147 273.022, 147 273.754 C 147 275.792, 156.115 285.124, 159.500 286.552 C 163.139 288.088, 167.977 287.331, 168.673 285.118 C 168.953 284.228, 169.558 282.600, 170.017 281.500 C 171.536 277.866, 172.694 219.185, 172.110 175.500 C 172.065 172.200, 172.023 167.025, 172.016 164 C 172.009 160.975, 171.825 154.225, 171.607 149 C 170.436 120.868, 170.462 120.306, 172.986 119.504 C 174.078 119.158, 176.216 117.639, 177.736 116.129 C 180.699 113.186, 184.903 110.582, 189.106 109.086 C 191.102 108.376, 191.861 107.262, 192.345 104.329 C 193.328 98.384, 193.129 96.272, 191.429 94.571 C 189.202 92.345, 188.554 92.540, 184.188 96.750 C 175.667 104.965, 170.861 109, 169.597 109 C 168.677 109, 167.731 105.548, 166.513 97.750 C 164.272 83.408, 161.685 79.060, 158.018 83.478 M 98.968 94.534 C 97.121 96.500, 96.410 98.739, 95.794 104.534 C 93.588 125.275, 92.639 130.698, 86.572 157.250 C 85.255 163.011, 82.872 170.615, 80.852 175.500 C 80.397 176.600, 79.388 180.016, 78.609 183.091 C 77.830 186.167, 76.282 190.892, 75.170 193.591 C 74.058 196.291, 72.872 200.750, 72.535 203.500 C 72.013 207.761, 70.327 212.240, 65.862 221.236 C 65.388 222.191, 65 223.931, 65 225.101 C 65 226.272, 63.929 229.315, 62.620 231.865 C 61.311 234.414, 59.631 238.525, 58.886 241 C 58.141 243.475, 56.062 247.949, 54.266 250.941 C 50.557 257.121, 50.198 259.965, 52.829 262.345 C 54.729 264.064, 56.986 264.552, 57.019 263.250 C 57.030 262.837, 58.556 260.761, 60.411 258.636 C 64.200 254.295, 64.969 252.821, 67.523 245 C 68.510 241.975, 69.922 238.612, 70.659 237.527 C 71.397 236.443, 72.014 233.968, 72.032 232.027 C 72.049 230.087, 72.713 227.642, 73.506 226.594 C 74.300 225.545, 75.678 222.170, 76.569 219.094 C 77.460 216.017, 78.698 212.881, 79.321 212.124 C 80.358 210.864, 85.442 193.358, 86.713 186.671 C 87.313 183.512, 89.541 182.141, 91.267 183.867 C 91.890 184.490, 93.799 185, 95.509 185 C 97.219 185, 99.360 185.562, 100.268 186.250 C 102.004 187.565, 103.979 197.312, 103.992 204.628 C 104 209.021, 105.758 211.391, 108.595 210.833 C 110.473 210.463, 111.186 209.296, 112.979 203.651 C 113.868 200.850, 113.902 199.502, 113.101 198.701 C 112.495 198.095, 112 196.631, 112 195.447 C 112 191.704, 107.162 179.779, 104.529 177.031 C 103.138 175.579, 102 173.866, 102 173.226 C 102 171.633, 105.771 164.960, 108.098 162.436 C 109.144 161.300, 110 159.425, 110 158.269 C 110 157.113, 110.338 156.017, 110.750 155.833 C 112.920 154.869, 118.980 138.759, 119.716 132 C 119.986 129.525, 120.805 126.823, 121.536 125.995 C 123.518 123.753, 124.542 114.358, 123.006 112.507 C 121.492 110.683, 116.421 110.513, 115.341 112.250 C 114.913 112.938, 114.472 115.976, 114.360 119.002 C 114.171 124.142, 110.851 135.310, 108.877 137.450 C 108.394 137.972, 107.996 139.322, 107.991 140.450 C 107.980 143.139, 97.864 163.212, 96.249 163.750 C 94.686 164.271, 94.521 156.764, 96.033 153.938 C 96.602 152.876, 97.541 149.418, 98.121 146.254 C 98.701 143.089, 99.879 139.715, 100.738 138.755 C 101.875 137.486, 102.266 135.085, 102.171 129.959 C 102.100 126.082, 102.680 121.054, 103.462 118.786 C 104.243 116.518, 104.639 113.443, 104.340 111.952 C 104.042 110.462, 104.294 108.936, 104.899 108.562 C 105.511 108.184, 106 105.091, 106 101.596 C 106 96.776, 105.573 94.924, 104.171 93.655 C 101.823 91.529, 101.785 91.536, 98.968 94.534 M 131.575 173.520 C 129.885 174.799, 129.809 175.275, 130.958 177.422 C 131.678 178.768, 133.504 180.380, 135.016 181.007 C 136.528 181.633, 139.027 183.463, 140.570 185.073 C 142.112 186.683, 143.793 188, 144.305 188 C 144.817 188, 146.803 189.375, 148.717 191.057 C 152.684 194.539, 156.330 194.689, 156.801 191.389 C 157.137 189.036, 151.697 182.763, 143.518 176.074 C 138.239 171.756, 134.861 171.034, 131.575 173.520" stroke="none" fill="black" fill-rule="evenodd"/>
</svg>