<svg xmlns="http://www.w3.org/2000/svg" width="300" height="300" viewBox="0 0 300 300" version="1.1">
	<path d="M 161.457 45.564 C 157.635 48.075, 154.146 50.775, 153.704 51.564 C 153.262 52.354, 152.123 53, 151.173 53 C 150.223 53, 148.468 53.684, 147.274 54.521 C 146.080 55.357, 143.167 56.457, 140.802 56.966 C 125.489 60.258, 123.311 61.589, 124.485 66.934 C 125.453 71.340, 128.747 71.865, 134.977 68.607 C 137.727 67.170, 141.618 66, 143.653 66 C 148.230 66, 158.378 62.013, 165.666 57.351 C 172.832 52.766, 175 50.519, 175 47.674 C 175 45.387, 171.312 41, 169.389 41 C 168.848 41, 165.279 43.054, 161.457 45.564 M 67.498 66.004 C 67.157 66.556, 66.494 70.043, 66.025 73.754 C 65.095 81.115, 63.481 88.091, 62.085 90.784 C 61.595 91.728, 60.643 94.525, 59.968 97 C 59.293 99.475, 58.053 103.068, 57.212 104.985 C 56.371 106.901, 55.344 109.826, 54.930 111.485 C 53.700 116.403, 51.939 121.186, 49.394 126.516 C 48.077 129.275, 46.996 131.975, 46.991 132.516 C 46.986 133.057, 45.875 135.750, 44.522 138.500 C 43.169 141.250, 42.048 144.177, 42.031 145.005 C 42.014 145.833, 39.759 151.008, 37.021 156.505 C 29.520 171.564, 30.613 175.156, 41.564 171.433 L 46.840 169.640 50.300 172.280 C 52.532 173.982, 53.987 176.089, 54.397 178.210 C 55.251 182.625, 55.252 182.759, 54.458 188.563 C 53.799 193.382, 53.917 193.752, 56.915 196.275 C 60.025 198.892, 60.107 198.903, 63.505 197.212 C 66.702 195.622, 66.900 195.251, 66.287 192 C 65.924 190.075, 65.700 187.713, 65.789 186.750 C 66.124 183.155, 66.091 182.397, 65.408 178 C 65.005 175.408, 63.499 171.955, 61.855 169.856 C 60.285 167.852, 59 165.743, 59 165.169 C 59 164.595, 56.413 162.800, 53.250 161.181 C 48.942 158.976, 47.580 157.769, 47.821 156.369 C 47.997 155.341, 48.259 153.600, 48.403 152.500 C 48.760 149.773, 51.737 143.280, 52.985 142.509 C 53.543 142.164, 54 139.939, 54 137.563 C 54 134.945, 54.590 132.755, 55.500 132 C 56.325 131.315, 57 129.712, 57 128.437 C 57 127.161, 57.421 125.858, 57.935 125.540 C 59.421 124.621, 64 113.992, 64 111.460 C 64 110.196, 64.631 107.888, 65.402 106.331 C 68.960 99.143, 70.531 94.726, 73.162 84.500 C 74.719 78.450, 75.994 72.520, 75.996 71.323 C 76.002 67.657, 69.133 63.358, 67.498 66.004 M 157.668 76.814 C 156.204 78.432, 156.136 80.139, 157.039 92.564 C 157.596 100.229, 158.475 107.625, 158.991 109 C 159.508 110.375, 160.093 119.629, 160.292 129.565 C 160.491 139.501, 160.989 148.173, 161.398 148.835 C 162.310 150.311, 160.320 208.599, 159.002 219 C 158.479 223.125, 157.309 233.700, 156.401 242.500 C 155.493 251.300, 154.332 259.304, 153.820 260.288 C 153.308 261.271, 153.170 262.961, 153.514 264.043 C 154.336 266.634, 151.453 267.771, 148.618 265.973 C 147.453 265.235, 142.900 262.860, 138.500 260.695 C 130.319 256.670, 121.073 251.064, 117.500 247.963 C 114.787 245.607, 103.441 241.617, 101.536 242.348 C 99.075 243.292, 99.749 244.867, 103.250 246.349 C 105.038 247.105, 107.357 248.686, 108.405 249.862 C 109.453 251.038, 110.673 252, 111.117 252 C 111.561 252, 115.783 254.700, 120.500 258 C 125.217 261.300, 129.432 264, 129.867 264 C 130.998 264, 140.042 269.927, 143 272.607 C 148.897 277.951, 155.413 277.947, 159.494 272.597 C 161.472 270.003, 162.265 267.081, 163.474 257.929 C 164.304 251.643, 164.987 244.617, 164.992 242.315 C 164.996 240.013, 165.459 236.923, 166.020 235.448 C 168.527 228.854, 170.393 155.926, 168.833 125.500 C 168.136 111.887, 166.176 92.565, 165.233 90 C 164.929 89.175, 164.544 86.031, 164.376 83.013 C 164.166 79.230, 163.535 77.133, 162.345 76.263 C 160.079 74.606, 159.617 74.661, 157.668 76.814 M 125 113.939 C 119.855 114.982, 114.101 118.226, 107.266 123.938 C 103.933 126.722, 100.795 129, 100.291 129 C 99.787 129, 98.081 127.650, 96.500 126 C 93.476 122.844, 90.649 122.154, 89.334 124.250 C 88.323 125.862, 88.846 129.089, 90.428 131 C 91.112 131.825, 92.260 134.075, 92.981 136 C 93.701 137.925, 95.616 141.212, 97.236 143.304 C 99.044 145.640, 100.439 148.908, 100.848 151.770 C 101.395 155.594, 102.046 156.707, 104.472 157.966 C 106.098 158.810, 108.082 160.105, 108.880 160.844 C 111.704 163.460, 124.602 160.594, 127.903 156.617 C 128.594 155.784, 130.707 154.592, 132.597 153.968 C 135.987 152.849, 139 148.865, 139 145.503 C 139 144.625, 137.653 143.140, 136.006 142.203 C 132.475 140.194, 132.367 139.475, 135 135.500 C 136.479 133.267, 136.989 130.804, 136.993 125.869 C 137 119.727, 136.764 119.007, 133.810 116.119 C 132.056 114.403, 130.143 113.052, 129.560 113.115 C 128.977 113.178, 126.925 113.549, 125 113.939 M 122.130 127.076 C 120.826 127.597, 118.404 129.165, 116.746 130.560 C 115.089 131.955, 111.944 134.008, 109.757 135.124 C 106.047 137.017, 105.829 137.365, 106.502 140.326 C 106.899 142.072, 107.513 145.038, 107.866 146.918 C 108.219 148.798, 109.059 150.520, 109.734 150.745 C 111.132 151.211, 117.379 144.871, 119.581 140.750 C 120.390 139.238, 121.387 138, 121.797 138 C 123.197 138, 127.317 129.269, 126.689 127.631 C 125.983 125.793, 125.485 125.733, 122.130 127.076" stroke="none" fill="black" fill-rule="evenodd"/>
</svg>