<svg xmlns="http://www.w3.org/2000/svg" width="300" height="300" viewBox="0 0 300 300" version="1.1">
	<path d="M 129.750 54.080 C 127.608 55.328, 127.456 59.898, 129.468 62.559 C 130.363 63.742, 130.949 66.806, 130.968 70.406 C 130.994 75.194, 130.527 76.931, 128.500 79.589 C 125.859 83.051, 125.337 85.472, 127.009 86.506 C 129.137 87.821, 132.114 85.656, 136.214 79.811 C 139.928 74.515, 140.502 72.980, 140.722 67.750 C 140.980 61.606, 140.986 61.622, 134.945 54.250 C 133.720 52.754, 132.117 52.702, 129.750 54.080 M 164.249 75.032 C 163.011 75.529, 161.318 75.675, 160.486 75.356 C 158.691 74.667, 156.100 76.610, 155.013 79.459 C 154.098 81.859, 136.216 91.253, 128.078 93.610 C 125.095 94.473, 121.720 95.780, 120.578 96.514 C 119.435 97.248, 115.890 98.520, 112.699 99.342 C 101.866 102.133, 99.608 105.334, 104.898 110.403 C 107.902 113.280, 109.613 113.144, 113.172 109.745 C 115.232 107.777, 119.869 105.980, 120.452 106.923 C 121.094 107.961, 119.292 113.356, 116.828 117.780 C 115.822 119.585, 115.001 122.060, 115.003 123.280 C 115.009 128.350, 99.422 160.099, 91.532 171.086 C 89.721 173.608, 87.930 176.646, 87.552 177.836 C 87.174 179.026, 86.446 180, 85.933 180 C 85.420 180, 85 180.508, 85 181.129 C 85 181.750, 81.997 186.363, 78.327 191.379 C 71.486 200.730, 70.044 204.901, 72.727 207.584 C 74.958 209.815, 77.358 209.263, 80.700 205.750 C 84.212 202.059, 89.408 193.729, 90.525 190 C 90.937 188.625, 92.337 186.228, 93.637 184.673 C 94.937 183.119, 96 181.159, 96 180.318 C 96 179.477, 97.125 177.452, 98.500 175.818 C 99.875 174.184, 101 172.261, 101 171.546 C 101 170.830, 101.673 169.686, 102.497 169.003 C 103.320 168.320, 105.386 165.002, 107.088 161.630 C 108.790 158.259, 111.042 154.571, 112.091 153.436 C 113.141 152.300, 114 150.813, 114 150.131 C 114 148.397, 117.796 140.244, 118.929 139.544 C 119.444 139.226, 120.418 136.386, 121.095 133.233 C 121.771 130.080, 122.927 126.790, 123.662 125.921 C 124.398 125.053, 125 123.900, 125 123.359 C 125 122.818, 125.900 120.513, 127 118.236 C 128.100 115.959, 129 113.133, 129 111.955 C 129 110.654, 128.215 109.607, 127 109.290 C 124.315 108.588, 124.461 106.155, 127.252 105.094 C 129.651 104.182, 150.480 94.507, 153 93.135 C 153.825 92.685, 157.063 90.896, 160.196 89.159 C 163.329 87.421, 166.521 86, 167.291 86 C 169.266 86, 172 82.717, 172 80.346 C 172 79.247, 170.958 77.370, 169.686 76.174 C 167.099 73.744, 167.331 73.793, 164.249 75.032 M 75.101 82.378 C 74.426 83.192, 73.220 88.207, 72.422 93.523 C 71.623 98.839, 70.526 104.016, 69.985 105.028 C 69.443 106.040, 69 107.804, 69 108.948 C 69 110.091, 68.606 111.809, 68.124 112.764 C 67.643 113.719, 66.478 117.200, 65.535 120.500 C 64.592 123.800, 63.249 127.850, 62.549 129.500 C 61.850 131.150, 60.814 134.300, 60.247 136.500 C 59.680 138.700, 58.240 142.975, 57.046 146 C 55.852 149.025, 54.173 153.750, 53.313 156.500 C 52.454 159.250, 50.232 164.608, 48.376 168.407 C 46.519 172.207, 45 176.153, 45 177.177 C 45 178.202, 43.875 180.822, 42.500 183 C 37.971 190.174, 39.947 195.602, 46.799 194.812 C 48.969 194.561, 49.567 193.911, 49.840 191.503 C 50.150 188.771, 51.426 187.055, 53.177 187.015 C 54.687 186.981, 57 193.600, 57 197.954 C 57 200.509, 57.418 203.027, 57.929 203.550 C 58.439 204.072, 59.002 206.040, 59.179 207.923 C 59.438 210.682, 60.062 211.532, 62.396 212.305 C 64.882 213.128, 65.558 212.927, 67.168 210.882 C 68.547 209.132, 68.858 207.704, 68.343 205.500 C 67.657 202.572, 67.328 198.609, 67.096 190.500 C 67.003 187.231, 66.071 185.435, 61.991 180.669 C 56.686 174.471, 56.050 172.050, 58.494 167.364 C 59.315 165.789, 59.990 163.773, 59.994 162.885 C 59.997 161.997, 60.837 160.197, 61.860 158.885 C 62.883 157.573, 63.965 155.150, 64.265 153.500 C 65.534 146.508, 68.033 139.594, 70.077 137.418 C 71.864 135.515, 72.153 134.360, 71.641 131.159 C 71.185 128.302, 71.420 126.896, 72.507 125.994 C 73.328 125.313, 74 123.642, 74 122.282 C 74 120.922, 74.874 118.581, 75.942 117.081 C 77.010 115.581, 78.176 111.912, 78.534 108.927 C 78.891 105.942, 80.042 101.592, 81.092 99.261 C 82.996 95.031, 83.417 88.732, 82.111 84 C 81.299 81.059, 77.018 80.068, 75.101 82.378 M 171.610 122.750 C 169.507 126.766, 158.094 140.396, 149.841 148.748 C 139.920 158.791, 134.684 162, 128.221 162 C 125.415 162, 122.869 162.402, 122.566 162.894 C 122.262 163.385, 122.691 165.410, 123.520 167.394 C 124.664 170.131, 125.612 171, 127.454 171 C 128.790 171, 130.139 171.415, 130.452 171.923 C 130.766 172.431, 132.335 173.134, 133.939 173.487 C 137.756 174.325, 152.936 181.721, 155.500 183.991 C 158.048 186.247, 170.936 195, 171.710 195 C 172.420 195, 179.219 200.530, 183.982 204.982 C 185.897 206.772, 188.278 208.537, 189.273 208.905 C 191.368 209.680, 198.365 214.897, 204.347 220.143 C 209.856 224.975, 224.817 235, 226.518 235 C 228.055 235, 229.491 231.468, 229.161 228.500 C 228.550 223.012, 227.871 222.037, 223.242 219.996 C 217.119 217.298, 211.330 213.418, 203.475 206.750 C 201.694 205.238, 199.803 204, 199.273 204 C 198.743 204, 197.529 203.137, 196.574 202.081 C 194.393 199.671, 176.494 186, 175.519 186 C 175.123 186, 171.434 183.294, 167.322 179.986 C 163.211 176.678, 158.586 173.320, 157.044 172.523 C 155.503 171.726, 153.977 170.382, 153.653 169.537 C 153.328 168.692, 152.036 167.994, 150.781 167.986 C 146.522 167.961, 144 166.807, 144 164.883 C 144 163.657, 144.709 163, 146.031 163 C 147.149 163, 148.322 162.325, 148.638 161.500 C 148.955 160.675, 150.115 160, 151.215 160 C 153.144 160, 161.967 151.467, 161.989 149.580 C 162.001 148.547, 172.279 138.733, 175.750 136.440 C 176.988 135.623, 178.003 134.402, 178.006 133.727 C 178.010 133.052, 178.648 131.282, 179.424 129.794 C 181.767 125.304, 179.589 120, 175.403 120 C 173.854 120, 172.560 120.938, 171.610 122.750 M 110.362 162.500 C 110.045 163.325, 110.011 164.587, 110.286 165.304 C 110.562 166.021, 110.148 174.683, 109.367 184.554 C 108.038 201.363, 107.899 203.858, 108.006 209 C 108.029 210.100, 107.962 212.990, 107.857 215.421 C 107.640 220.451, 110.025 225, 112.878 225 C 113.886 225, 117.813 221.599, 121.605 217.441 C 125.397 213.284, 130.187 208.073, 132.249 205.860 C 139.740 197.824, 143.221 193.019, 142.643 191.511 C 141.798 189.311, 138.148 189.661, 134.594 192.284 C 132.892 193.540, 130.262 195.105, 128.750 195.762 C 127.237 196.420, 126 197.605, 126 198.397 C 126 199.855, 120.195 204, 118.153 204 C 117.380 204, 117.226 201.492, 117.644 195.750 C 119.016 176.920, 118.208 163.518, 115.595 161.765 C 113.750 160.527, 110.969 160.918, 110.362 162.500" stroke="none" fill="black" fill-rule="evenodd"/>
</svg>