<svg xmlns="http://www.w3.org/2000/svg" width="300" height="300" viewBox="0 0 300 300" version="1.1">
	<path d="M 127.309 52.250 C 126.864 52.938, 126.495 55.677, 126.489 58.339 C 126.475 64.383, 125.692 65, 112.814 69.108 C 107.396 70.837, 102.720 72.644, 102.423 73.125 C 102.125 73.606, 101.069 74, 100.076 74 C 97.266 74, 93 77.881, 93 80.438 C 93 82.877, 96.479 88, 98.136 88 C 99.841 88, 111.822 81.920, 113.063 80.424 C 113.713 79.641, 115.108 79, 116.162 79 C 117.217 79, 119.844 78.100, 122 77 C 128.446 73.711, 128.512 73.791, 129.741 86.250 C 130.988 98.896, 129.262 134.138, 127.299 136.101 C 126.685 136.715, 126.445 138.898, 126.745 141.134 C 127.036 143.306, 126.568 147.877, 125.704 151.291 C 124.841 154.706, 123.391 161.100, 122.483 165.500 C 120.715 174.064, 117.398 186.226, 115.937 189.500 C 115.446 190.600, 113.911 193.300, 112.525 195.500 C 111.139 197.700, 108.415 202.650, 106.472 206.500 C 102.330 214.708, 89.930 229.990, 86.108 231.597 C 84.647 232.211, 82.929 233.860, 82.291 235.261 C 81.322 237.387, 81.422 238.072, 82.894 239.404 C 85.546 241.804, 89.234 241.338, 93.807 238.025 C 98.447 234.664, 105.649 226.007, 107.556 221.500 C 108.254 219.850, 109.990 217.490, 111.413 216.257 C 112.836 215.023, 114 213.040, 114 211.851 C 114 210.662, 115.125 208.214, 116.500 206.411 C 117.875 204.608, 119 202.461, 119 201.638 C 119 200.816, 119.580 199.548, 120.288 198.821 C 121.723 197.349, 124.388 191.829, 125.511 188 C 125.915 186.625, 126.657 184.983, 127.162 184.350 C 128.455 182.728, 135.960 183.880, 138.885 186.149 C 140.197 187.167, 141.997 188.014, 142.885 188.032 C 143.773 188.049, 145.374 188.724, 146.441 189.532 C 147.509 190.339, 149.309 191.003, 150.441 191.006 C 151.574 191.010, 153.647 191.611, 155.049 192.343 C 156.451 193.074, 159.151 193.935, 161.049 194.256 C 164.680 194.869, 171.454 197.813, 176.500 200.973 C 178.150 202.005, 181.075 203.401, 183 204.075 C 184.925 204.748, 188.065 206.582, 189.978 208.149 C 191.891 209.717, 193.994 211, 194.651 211 C 195.309 211, 197.910 212.575, 200.432 214.500 C 202.954 216.425, 205.296 218, 205.637 218 C 205.979 218, 208.001 219.575, 210.132 221.500 C 212.262 223.425, 214.624 225, 215.380 225 C 216.137 225, 217.270 225.621, 217.900 226.379 C 218.530 227.138, 220.272 228.018, 221.772 228.334 C 223.273 228.650, 225.807 230.054, 227.406 231.454 C 231.090 234.682, 231.614 234.647, 233.474 231.050 C 235.641 226.860, 235.376 225.094, 232.414 223.967 C 230.991 223.426, 228.049 221.187, 225.875 218.992 C 223.701 216.796, 221.137 215, 220.178 215 C 218.486 215, 210.092 210.153, 205 206.237 C 199.125 201.719, 172.572 189.230, 160 185.072 C 154.775 183.344, 149.719 181.496, 148.764 180.965 C 147.809 180.434, 146.549 180, 145.965 180 C 145.381 180, 143.041 179.100, 140.764 178 C 138.487 176.900, 135.864 176, 134.935 176 C 131.823 176, 130.754 173.431, 131.514 167.780 C 131.904 164.876, 132.573 162.050, 132.999 161.500 C 133.799 160.469, 134.010 159.124, 135.902 143 C 136.515 137.775, 137.443 131.025, 137.963 128 C 138.741 123.482, 140.267 101.663, 140.202 96 C 140.130 89.687, 139.020 75.842, 138.522 75.036 C 137.774 73.826, 139.738 69.937, 141.913 68.321 C 142.786 67.672, 144.890 66.878, 146.589 66.556 C 150.504 65.813, 152.704 62.184, 151.079 59.148 C 149.130 55.506, 146.609 54.817, 141.534 56.540 C 136.789 58.151, 135 57.866, 135 55.498 C 135 53.972, 131.258 51, 129.337 51 C 128.666 51, 127.754 51.563, 127.309 52.250 M 58.035 61.481 C 55.149 63.026, 54.165 65.189, 54.070 70.201 C 53.956 76.217, 50.176 89.288, 45.628 99.398 C 44.365 102.204, 42.777 106.750, 42.099 109.500 C 41.421 112.250, 40.248 115.850, 39.492 117.500 C 36.753 123.476, 33 133.691, 33 135.169 C 33 137.331, 27.631 152.533, 26.298 154.146 C 25.682 154.891, 24.846 157.300, 24.439 159.500 C 24.031 161.700, 23.090 164.436, 22.346 165.579 C 21.602 166.723, 20.276 170.098, 19.399 173.079 C 18.523 176.061, 17.246 179.175, 16.563 180 C 15.880 180.825, 14.278 184.133, 13.003 187.352 C 11.234 191.818, 10.905 193.830, 11.613 195.852 C 13.630 201.611, 20.733 198.249, 22.865 190.526 C 24.542 184.452, 29.166 182.327, 33.739 185.529 C 36.771 187.654, 38.066 192.761, 38.676 205 C 39.215 215.813, 40.132 218.272, 44.094 219.530 C 45.101 219.849, 46.841 219.620, 47.962 219.020 C 49.791 218.042, 50 216.964, 50 208.524 C 50 203.332, 49.552 198.841, 49 198.500 C 48.450 198.160, 47.986 196.671, 47.968 195.191 C 47.951 193.711, 47.276 191.626, 46.468 190.559 C 45.661 189.491, 45 187.344, 45 185.787 C 45 182.831, 37.917 174, 35.547 174 C 34.888 174, 33.296 172.880, 32.010 171.510 C 29.815 169.174, 29.774 168.908, 31.336 167.182 C 32.251 166.170, 33 164.584, 33 163.658 C 33 162.731, 33.420 161.191, 33.934 160.236 C 35.462 157.394, 42 136.254, 42 134.154 C 42 133.087, 42.675 131.955, 43.500 131.638 C 44.325 131.322, 45 130.458, 45 129.719 C 45 128.980, 45.849 126.604, 46.886 124.438 C 47.923 122.272, 49.090 118.138, 49.479 115.251 C 49.869 112.364, 50.561 109.771, 51.017 109.489 C 51.474 109.207, 52.620 106.619, 53.566 103.738 C 54.511 100.857, 56.345 96.278, 57.642 93.563 C 58.939 90.847, 60 87.219, 60 85.501 C 60 83.782, 60.900 80.513, 62 78.236 C 64.667 72.717, 64.806 62.502, 62.234 61.125 C 61.045 60.489, 59.672 60.605, 58.035 61.481 M 151.257 95.250 C 150.145 96.656, 149.724 98.346, 146.957 112.500 C 145.882 118, 144.552 123.805, 144.001 125.399 C 143.451 126.994, 143 129.716, 143 131.449 C 143 133.182, 142.499 135.101, 141.887 135.713 C 140.624 136.976, 143.615 141.914, 145.677 141.969 C 147.433 142.015, 151 137.048, 151 134.556 C 151 133.361, 151.628 131.524, 152.395 130.475 C 153.658 128.747, 154.245 128.678, 158.645 129.741 C 161.315 130.386, 167.550 131.046, 172.500 131.207 L 181.500 131.500 181.811 128.805 C 182.240 125.088, 176.479 121.385, 168.845 120.471 C 165.734 120.098, 161.895 119.006, 160.312 118.044 C 157.693 116.451, 157.421 115.754, 157.268 110.256 C 157.134 105.403, 157.483 103.873, 159.050 102.454 C 161.528 100.212, 161.515 98.515, 159 96 C 156.750 93.750, 152.749 93.362, 151.257 95.250 M 98.256 103.250 C 97.713 103.938, 97.015 108.017, 96.706 112.315 C 96.397 116.614, 95.496 121.120, 94.703 122.330 C 93.911 123.540, 92.925 126.098, 92.514 128.015 C 92.102 129.932, 90.918 133.272, 89.883 135.438 C 88.847 137.604, 88 140.390, 88 141.629 C 88 142.868, 87.550 144.160, 86.999 144.500 C 86.449 144.840, 85.494 147.125, 84.876 149.577 C 84.259 152.029, 82.216 156.048, 80.337 158.509 C 77.504 162.219, 77.104 163.327, 77.996 164.992 C 78.734 166.371, 80.089 167, 82.323 167 C 84.948 167, 86.293 166.143, 89.288 162.560 C 91.330 160.117, 93 157.764, 93 157.331 C 93 156.897, 94.154 153.522, 95.565 149.830 L 98.130 143.117 104.058 143.378 C 108.639 143.579, 110.543 144.162, 112.438 145.941 C 114.273 147.666, 115.549 148.079, 117.516 147.585 C 119.862 146.996, 120.074 146.583, 119.496 143.713 C 118.673 139.622, 111.747 133.231, 107.214 132.380 C 103.580 131.699, 102.040 129.560, 103.867 127.733 C 104.490 127.110, 105 123.792, 105 120.359 C 105 116.926, 105.407 113.866, 105.905 113.559 C 107.006 112.878, 106.117 104.990, 104.743 103.250 C 104.199 102.563, 102.740 102, 101.500 102 C 100.260 102, 98.800 102.563, 98.256 103.250" stroke="none" fill="black" fill-rule="evenodd"/>
</svg>