<svg xmlns="http://www.w3.org/2000/svg" width="300" height="300" viewBox="0 0 300 300" version="1.1">
	<path d="M 137.500 58.624 C 134.750 60.016, 130.921 62.948, 128.992 65.139 C 125.035 69.633, 123.369 69.587, 120.605 64.909 C 118.110 60.685, 114.231 59.325, 111.752 61.803 C 109.899 63.657, 109.899 63.760, 111.766 67.097 C 112.814 68.969, 114.887 72.685, 116.374 75.355 C 118.997 80.066, 121.345 88.284, 122.973 98.455 C 123.535 101.963, 123.350 104.590, 122.343 107.446 C 121.240 110.570, 121.179 111.966, 122.069 113.630 C 124.481 118.136, 130.567 118.636, 133.914 114.604 C 134.646 113.722, 136.513 113, 138.063 113 C 139.614 113, 141.188 112.504, 141.563 111.898 C 141.938 111.292, 143.695 110.190, 145.468 109.449 C 150.573 107.316, 156 101.994, 156 99.121 C 156 97.740, 154.798 95.355, 153.329 93.822 C 150.815 91.197, 150.756 90.927, 152.329 89.188 C 153.248 88.173, 154 86.617, 154 85.730 C 154 84.844, 154.450 83.840, 155 83.500 C 155.550 83.160, 156 81.420, 156 79.632 C 156 77.845, 156.661 75.509, 157.468 74.441 C 160.988 69.788, 158.051 59.755, 152.490 57.431 C 147.583 55.381, 143.221 55.728, 137.500 58.624 M 141.517 67.973 C 141.186 68.508, 139.135 69.425, 136.958 70.011 C 134.201 70.754, 133 71.625, 133 72.884 C 133 73.877, 132.064 75.538, 130.919 76.573 C 129.214 78.116, 128.928 79.275, 129.339 82.978 C 130.544 93.862, 133.853 100.225, 135.719 95.250 C 136.080 94.287, 137.897 91.323, 139.756 88.663 C 147.573 77.479, 149.995 71.137, 147.429 68.572 C 145.671 66.814, 142.436 66.486, 141.517 67.973 M 70.200 73.200 C 69.540 73.860, 68.984 76.448, 68.965 78.950 C 68.945 81.453, 68.286 84.625, 67.500 86 C 66.714 87.375, 66.055 89.711, 66.035 91.191 C 66.016 92.671, 65.550 94.160, 65 94.500 C 64.450 94.840, 64 95.978, 64 97.028 C 64 98.860, 59.928 112.344, 58.119 116.500 C 55.867 121.676, 55 124.218, 55 125.646 C 55 126.499, 54.367 128.616, 53.593 130.349 C 52.819 132.082, 51.422 136.200, 50.489 139.500 C 48.557 146.334, 45.498 155.088, 43.502 159.500 C 42.755 161.150, 41.617 164.300, 40.973 166.500 C 40.330 168.700, 38.984 172.100, 37.983 174.056 C 36.982 176.012, 35.851 179.280, 35.468 181.317 C 35.086 183.355, 33.924 186.687, 32.887 188.722 C 31.849 190.758, 31 192.980, 31 193.660 C 31 194.340, 29.898 196.086, 28.551 197.540 L 26.101 200.183 28.301 203.587 C 29.510 205.459, 31.320 207.259, 32.322 207.586 C 34.528 208.306, 38 205.426, 38 202.875 C 38 201.877, 38.900 199.458, 40 197.500 C 41.100 195.542, 42 192.851, 42 191.521 C 42 190.191, 43.128 187.886, 44.506 186.399 C 45.884 184.912, 47.978 181.760, 49.159 179.396 C 52.507 172.693, 56.090 172.644, 57.434 179.282 C 58.522 184.661, 59.995 200.180, 59.941 205.705 C 59.896 210.294, 60.303 211.359, 63.381 214.705 C 65.712 217.239, 67.206 218.168, 67.876 217.500 C 68.429 216.950, 69.154 212.900, 69.488 208.500 C 69.821 204.100, 70.580 198.858, 71.174 196.850 C 72.058 193.862, 71.959 192.780, 70.627 190.878 C 69.682 189.529, 69 186.576, 69 183.837 C 69 181.241, 68.550 178.840, 68 178.500 C 67.450 178.160, 67 177.055, 67 176.044 C 67 175.032, 65.087 171.917, 62.750 169.121 C 59.549 165.291, 57.821 164.031, 55.750 164.018 C 53.907 164.006, 53 163.474, 53 162.405 C 53 161.001, 60.840 135.768, 62.914 130.500 C 63.347 129.400, 64.248 126.925, 64.917 125 C 65.586 123.075, 67.673 117.225, 69.556 112 C 71.438 106.775, 72.983 101.722, 72.989 100.771 C 72.995 99.820, 74.125 95.691, 75.500 91.595 C 78.709 82.036, 78.762 77.064, 75.686 74.174 C 73.049 71.698, 71.906 71.494, 70.200 73.200 M 134.489 120.018 C 133.935 120.914, 135.184 132.014, 136.626 139 C 138.209 146.676, 138.560 195.840, 137.042 197.358 C 136.346 198.054, 134.820 197.799, 132.260 196.560 C 130.192 195.560, 125.451 194.513, 121.725 194.234 C 117.999 193.956, 114.740 193.388, 114.483 192.972 C 114.051 192.273, 116.332 184.457, 117.977 181 C 118.370 180.175, 118.414 175.766, 118.076 171.202 C 117.475 163.082, 116.532 161.057, 113.332 161.015 C 109.788 160.969, 109 162.252, 109 168.066 C 109 177.378, 106.884 189.113, 104.342 193.893 C 103.054 196.316, 102 198.764, 102 199.334 C 102 199.904, 100.425 203.413, 98.500 207.133 C 96.575 210.853, 95 214.376, 95 214.962 C 95 217.327, 85.771 234.289, 83.009 237 C 82.729 237.275, 80.061 240.425, 77.079 244 C 74.098 247.575, 71.065 250.997, 70.339 251.603 C 69.261 252.504, 69.338 252.984, 70.759 254.219 C 71.717 255.051, 73.766 256.032, 75.312 256.400 C 79.136 257.310, 85.027 252.603, 88.008 246.255 C 89.237 243.640, 92.212 238.907, 94.621 235.739 C 97.029 232.570, 99 229.490, 99 228.893 C 99 228.297, 99.922 226.513, 101.050 224.930 C 102.177 223.347, 103.007 221.477, 102.893 220.776 C 102.606 218.998, 109.564 204.388, 111.170 203.395 C 113.266 202.100, 126.162 202.999, 130 204.707 C 131.925 205.564, 135.330 207.105, 137.566 208.133 C 139.802 209.160, 142.207 210, 142.911 210 C 143.615 210, 145.386 210.661, 146.846 211.469 C 152.140 214.399, 184.965 230, 185.836 230 C 186.328 230, 187.823 230.860, 189.159 231.910 C 190.495 232.961, 194.493 235.241, 198.044 236.977 C 208.285 241.982, 210.355 243.157, 212.768 245.335 C 214.015 246.461, 215.946 247.521, 217.057 247.691 C 218.169 247.861, 220.748 248.922, 222.789 250.049 C 228.794 253.365, 231.265 254.639, 235.500 256.605 C 237.700 257.627, 241.075 259.636, 243 261.071 C 247.585 264.488, 253.674 266.245, 256.217 264.884 C 259.773 262.981, 256.497 254.836, 251.618 253.449 C 250.453 253.118, 247.025 251.586, 244 250.044 C 240.975 248.502, 236.700 246.674, 234.500 245.982 C 232.300 245.289, 229.306 243.885, 227.846 242.861 C 226.386 241.838, 224.489 241, 223.630 241 C 222.772 241, 220.532 239.650, 218.653 238 C 216.774 236.350, 214.819 235, 214.309 235 C 213.799 235, 210.767 233.425, 207.570 231.500 C 204.373 229.575, 201.192 228, 200.501 228 C 199.810 228, 198.652 227.285, 197.927 226.412 C 197.202 225.538, 192.729 222.875, 187.986 220.493 C 183.244 218.111, 176.920 214.706, 173.932 212.926 C 170.944 211.145, 163.550 207.984, 157.500 205.900 L 146.500 202.111 146.787 193.806 C 147.324 178.269, 147.310 175.504, 146.632 162 C 145.409 137.667, 143.266 123.409, 140.402 120.545 C 138.645 118.788, 135.427 118.501, 134.489 120.018 M 173.200 122.200 C 172.540 122.860, 172 123.877, 172 124.460 C 172 125.042, 169.324 128.440, 166.053 132.010 C 159.778 138.858, 150.767 152.965, 150.446 156.442 C 150.342 157.574, 149.927 159.917, 149.523 161.649 C 148.910 164.285, 149.118 164.903, 150.803 165.437 C 152.362 165.932, 154.017 164.809, 158.157 160.446 C 161.096 157.350, 163.911 153.626, 164.413 152.171 C 164.914 150.716, 168.104 146.138, 171.501 141.999 C 180.608 130.901, 181.718 127.898, 178.443 123.223 C 176.705 120.741, 174.993 120.407, 173.200 122.200" stroke="none" fill="black" fill-rule="evenodd"/>
</svg>