<svg xmlns="http://www.w3.org/2000/svg" width="300" height="300" viewBox="0 0 300 300" version="1.1">
	<path d="M 118.763 14.250 C 117.401 16.038, 115.946 18.625, 115.528 20 C 114.793 22.414, 109.628 33.934, 107.904 37 C 105.827 40.696, 102.912 47.573, 101.817 51.363 C 101.159 53.638, 99.838 56.534, 98.880 57.797 C 97.922 59.060, 96.835 61.535, 96.465 63.297 C 96.095 65.059, 94.542 69.200, 93.013 72.500 C 91.485 75.800, 89.454 80.300, 88.500 82.500 C 87.547 84.700, 85.061 90.100, 82.977 94.500 C 80.892 98.900, 77.308 107, 75.013 112.500 C 68.081 129.114, 61.795 142.328, 59.315 145.500 C 58.025 147.150, 56.607 148.957, 56.164 149.516 C 55.722 150.074, 54.845 152.007, 54.216 153.810 C 53.588 155.613, 52.044 158.522, 50.787 160.273 C 49.529 162.025, 48.050 164.199, 47.500 165.103 C 46.950 166.008, 44.787 169.328, 42.694 172.481 C 38.373 178.990, 37.992 183.285, 41.689 183.811 C 43.175 184.023, 45.100 182.858, 47.689 180.183 C 51.480 176.263, 58 166.583, 58 164.874 C 58 164.381, 60.250 160.388, 63 156 C 65.750 151.612, 68.002 147.679, 68.004 147.261 C 68.007 146.842, 69.355 144.475, 71.001 142 C 72.646 139.525, 74.712 135.025, 75.591 132 C 76.470 128.975, 77.708 125.869, 78.343 125.098 C 78.978 124.327, 79.948 122.444, 80.499 120.914 C 81.049 119.384, 83.721 113.265, 86.435 107.316 C 93.621 91.566, 98.807 80.253, 101.708 74 C 103.111 70.975, 104.703 67.375, 105.246 66 C 105.789 64.625, 106.631 62.719, 107.117 61.764 C 107.603 60.809, 108 59.357, 108 58.538 C 108 57.719, 108.906 55.575, 110.012 53.774 C 111.119 51.973, 112.511 48.700, 113.105 46.500 C 113.700 44.300, 114.781 41.825, 115.509 41 C 116.237 40.175, 117.615 37.475, 118.571 35 C 119.528 32.525, 120.842 29.825, 121.492 29 C 122.712 27.452, 127 14.390, 127 12.222 C 127 11.542, 125.722 11, 124.119 11 C 122.042 11, 120.546 11.908, 118.763 14.250 M 119.250 39.662 C 116.513 40.767, 118.318 44.074, 124.750 49.737 C 136.794 60.340, 144.921 67, 145.814 67 C 146.295 67, 149.260 69.250, 152.403 72 C 155.545 74.750, 158.543 77, 159.065 77 C 159.586 77, 160.991 78.125, 162.187 79.500 C 163.382 80.875, 164.676 82, 165.061 82 C 166.441 82, 190.932 98.778, 193.934 101.780 C 197.486 105.333, 197.616 106.149, 195.259 110.138 C 193.735 112.719, 193.704 113.202, 195.009 114.027 C 197.203 115.414, 200.283 115.204, 203.846 113.427 C 206.654 112.026, 207 111.380, 207 107.541 C 207 105.169, 206.373 102.020, 205.607 100.543 C 203.709 96.885, 194.425 89.111, 189.363 86.941 C 187.084 85.965, 184.916 84.673, 184.544 84.071 C 183.866 82.973, 174.683 76.754, 170 74.220 C 168.625 73.476, 166.600 72.053, 165.500 71.059 C 164.400 70.064, 162.375 68.669, 161 67.960 C 158.070 66.448, 150.946 60.632, 142.983 53.250 C 139.868 50.362, 136.627 48, 135.782 48 C 134.937 48, 133.627 47.248, 132.872 46.329 C 131.136 44.215, 122.954 38.974, 121.554 39.079 C 120.974 39.122, 119.938 39.385, 119.250 39.662 M 129.299 82.624 C 127.538 83.492, 125.418 85.240, 124.587 86.507 C 123.606 88.005, 121.644 89.053, 118.981 89.503 C 116.728 89.884, 113.682 91.230, 112.213 92.494 C 109.873 94.506, 109.666 95.147, 110.545 97.646 C 111.480 100.302, 111.930 100.505, 117.025 100.568 C 123.541 100.648, 129.021 97.933, 134.435 91.940 C 138.545 87.391, 138.921 84.759, 135.777 82.557 C 133.087 80.672, 133.261 80.670, 129.299 82.624 M 128.092 122.254 C 122.733 125.787, 113.968 130.727, 108.404 133.351 C 101.746 136.490, 100.921 138.647, 104.988 142.281 L 108.104 145.065 106.502 152.782 C 105.621 157.027, 104.532 162.525, 104.082 165 C 103.113 170.332, 98.165 185.092, 96.891 186.450 C 96.401 186.972, 96 188.666, 96 190.214 C 96 191.761, 95.616 193.809, 95.147 194.764 C 93.290 198.544, 91.017 203.759, 88.940 209 C 87.741 212.025, 86.140 215.918, 85.380 217.651 C 84.621 219.384, 84 221.495, 84 222.342 C 84 223.189, 83.550 224.160, 83 224.500 C 82.450 224.840, 82 225.788, 82 226.607 C 82 227.426, 81.132 229.894, 80.070 232.091 C 79.009 234.288, 77.849 237.411, 77.493 239.031 C 77.137 240.652, 76.431 242.234, 75.923 242.548 C 75.415 242.861, 75 244.126, 75 245.359 C 75 246.592, 74.615 248.027, 74.145 248.550 C 73.674 249.072, 72.532 251.975, 71.606 255 C 70.680 258.025, 69.443 261.625, 68.856 263 C 68.269 264.375, 67.206 266.850, 66.493 268.500 C 65.780 270.150, 64.628 273.750, 63.933 276.500 C 63.238 279.250, 61.492 283.075, 60.053 285 C 57.694 288.157, 56.530 290.839, 54.520 297.750 C 53.909 299.850, 54.169 300, 58.433 300 C 62.234 300, 63 299.685, 63 298.122 C 63 297.090, 63.736 295.634, 64.637 294.887 C 66.705 293.170, 69.582 286.500, 71.414 279.171 C 73.162 272.183, 75.828 264.819, 77.070 263.550 C 77.582 263.027, 78 261.367, 78 259.859 C 78 258.351, 78.450 256.840, 79 256.500 C 79.550 256.160, 80 254.967, 80 253.849 C 80 252.730, 80.900 250.671, 82 249.273 C 83.100 247.874, 84 245.721, 84 244.488 C 84 243.254, 84.628 241.724, 85.395 241.087 C 86.163 240.450, 87.097 238.257, 87.471 236.214 C 88.064 232.974, 90.184 227.549, 93.119 221.764 C 93.604 220.809, 94 219.441, 94 218.725 C 94 218.009, 94.900 215.658, 96 213.500 C 97.100 211.342, 98 208.920, 98 208.117 C 98 207.314, 98.603 205.947, 99.340 205.079 C 100.746 203.421, 103.472 196.460, 106.544 186.680 C 108.183 181.464, 108.951 180.480, 113.936 177.210 C 116.996 175.203, 121.300 171.852, 123.500 169.763 C 125.700 167.675, 128.625 165.732, 130 165.446 C 135.949 164.209, 137.594 163.243, 140.706 159.163 C 142.519 156.787, 144.253 153.641, 144.561 152.171 C 144.869 150.702, 145.544 148.719, 146.060 147.764 C 147.223 145.615, 147.289 138.578, 146.169 136.236 C 145.712 135.281, 144.587 133.001, 143.669 131.169 C 142.751 129.337, 142 127.381, 142 126.823 C 142 126.265, 141.069 124.502, 139.932 122.904 C 137.348 119.276, 132.974 119.036, 128.092 122.254 M 129.500 133.657 C 127.850 134.562, 124.256 136.471, 121.514 137.901 C 116.660 140.431, 114.831 143.231, 116.767 145.167 C 117.676 146.076, 126.153 141.179, 127.533 138.947 C 127.855 138.426, 128.891 138, 129.837 138 C 130.782 138, 132.577 137.284, 133.825 136.410 C 135.626 135.149, 135.853 134.528, 134.925 133.410 C 133.454 131.637, 133.159 131.651, 129.500 133.657 M 128.127 150.077 C 125.369 151.181, 118.273 156.597, 115.783 159.499 C 113.986 161.594, 113.400 165, 114.836 165 C 115.296 165, 119.346 161.778, 123.836 157.841 C 133.255 149.581, 134.361 147.581, 128.127 150.077 M 149.500 191.685 C 148.400 191.934, 145.568 193.018, 143.207 194.094 C 140.847 195.170, 137.022 196.798, 134.707 197.713 C 126.404 200.994, 121.286 204.828, 119.607 209.025 C 117.760 213.641, 116.590 213.929, 113.450 210.540 C 109.293 206.055, 102.480 206.294, 103.680 210.882 C 103.940 211.877, 108.393 216.914, 113.576 222.076 C 118.759 227.237, 123 232.050, 123 232.771 C 123 233.491, 122.033 235.389, 120.851 236.988 C 118.772 239.800, 118.759 239.984, 120.462 242.582 C 122.187 245.215, 122.354 245.252, 128.861 244.423 C 136.278 243.478, 159.288 243.232, 168.500 244 L 174.500 244.500 174.800 239.312 C 175.135 233.515, 173.978 232.288, 168.500 232.632 C 151.757 233.683, 147.788 233.611, 147.265 232.249 C 146.934 231.387, 149.339 228.193, 153.400 224.100 C 160.107 217.342, 167.039 205.821, 166.964 201.557 C 166.909 198.417, 162.638 193.863, 158.346 192.369 C 154.412 191, 153.006 190.891, 149.500 191.685 M 150.515 200.250 C 148.873 201.762, 146.901 203, 146.133 203 C 145.365 203, 143.333 203.862, 141.618 204.916 C 139.903 205.970, 136.808 207.146, 134.739 207.529 C 132.670 207.913, 130.731 208.626, 130.430 209.113 C 130.129 209.601, 129.279 210, 128.541 210 C 127.803 210, 125.565 211.635, 123.567 213.633 L 119.934 217.266 122.156 218.822 C 125.938 221.471, 128.118 224.037, 129.601 227.588 C 130.385 229.464, 131.305 231, 131.645 231 C 135.142 231, 152.151 213.415, 155.519 206.320 C 156.908 203.391, 156.887 202.871, 155.270 200.307 L 153.500 197.500 150.515 200.250" stroke="none" fill="black" fill-rule="evenodd"/>
</svg>