<svg xmlns="http://www.w3.org/2000/svg" width="300" height="300" viewBox="0 0 300 300" version="1.1">
	<path d="M 143.850 29.709 C 139.649 34.133, 136.353 36.260, 122.500 43.484 C 115.350 47.213, 108.487 51.183, 107.250 52.306 C 102.045 57.031, 106.639 64.432, 112.424 60.642 C 120.880 55.101, 124.158 64.664, 124.031 94.500 C 123.917 120.982, 122.938 139.601, 121.395 144.599 C 119.119 151.974, 119.705 154.424, 123.844 154.820 C 128.546 155.271, 130.696 152.951, 131.390 146.678 C 131.705 143.830, 132.156 139.700, 132.392 137.500 C 132.629 135.300, 132.373 132.957, 131.825 132.294 C 131.271 131.624, 131.196 130.512, 131.655 129.794 C 132.110 129.082, 132.486 126.714, 132.491 124.531 C 132.499 120.815, 132.875 120.306, 138.390 116.531 C 141.629 114.314, 144.656 111.478, 145.116 110.228 C 145.576 108.978, 146.637 107.693, 147.475 107.371 C 148.312 107.050, 151.296 103.898, 154.105 100.368 C 158.687 94.609, 159.146 93.591, 158.561 90.474 C 158.118 88.113, 157.363 87.004, 156.205 87.014 C 152.670 87.042, 150.045 88.283, 149.431 90.216 C 148.612 92.797, 136.188 105, 134.379 105 C 133.339 105, 133 103.290, 133 98.047 L 133 91.094 137.371 89.160 C 139.775 88.097, 142.052 86.726, 142.430 86.113 C 142.808 85.501, 143.952 85, 144.970 85 C 145.989 85, 149.348 82.534, 152.435 79.520 C 157.343 74.729, 157.965 73.692, 157.386 71.270 C 157.022 69.747, 156.249 67.899, 155.668 67.164 C 154.215 65.326, 149.460 66.411, 145.400 69.508 C 143.603 70.879, 141.723 72, 141.222 72 C 140.721 72, 139.004 73.124, 137.406 74.499 C 135.807 75.873, 134.218 76.998, 133.872 76.999 C 132.258 77.002, 131.154 73.990, 130.758 68.500 C 130.520 65.200, 129.739 61.130, 129.021 59.457 C 127.744 56.474, 127.832 56.298, 133.424 50.707 C 137.797 46.333, 139.823 45, 142.092 45 C 144.003 45, 146.198 43.933, 148.277 41.994 C 150.050 40.341, 152.365 38.378, 153.421 37.632 C 155.091 36.454, 155.222 35.701, 154.421 31.888 C 153.563 27.802, 153.260 27.480, 150 27.209 C 147.248 26.980, 145.933 27.514, 143.850 29.709 M 71.283 60.250 C 70.703 61.487, 69.762 64.300, 69.192 66.500 C 68.622 68.700, 67.446 72.914, 66.578 75.865 C 65.710 78.815, 65 81.881, 65 82.677 C 65 83.473, 63.919 86.458, 62.597 89.312 C 61.276 92.165, 59.185 97.326, 57.952 100.781 C 56.719 104.235, 55.325 107.299, 54.855 107.590 C 54.385 107.880, 54 109.190, 54 110.500 C 54 111.810, 52.200 116.760, 50 121.500 C 47.800 126.240, 46 130.502, 46 130.971 C 46 131.439, 44.425 135.503, 42.500 140 C 40.575 144.497, 39 148.910, 39 149.805 C 39 152.502, 35.299 162.428, 31.379 170.243 C 27.718 177.541, 28.543 186, 32.917 186 C 33.932 186, 36.080 184.652, 37.690 183.005 C 39.691 180.959, 42.181 179.719, 45.556 179.088 C 51.415 177.994, 52.098 178.415, 55.515 185.217 C 58.410 190.981, 58.894 200.234, 56.468 203.441 C 54.426 206.141, 54.613 207.386, 57.589 210.923 C 60.326 214.176, 63.051 214.849, 64.827 212.709 C 65.416 211.999, 66.162 207.205, 66.485 202.055 C 66.808 196.905, 67.280 192.356, 67.534 191.945 C 67.788 191.534, 67.102 188.303, 66.009 184.766 C 64.259 179.099, 63.296 177.720, 57.913 173.167 C 53.266 169.237, 51.018 168, 48.524 168 C 43.578 168, 42.782 166.336, 44.662 159.936 C 45.541 156.946, 47.326 151.883, 48.630 148.684 C 49.933 145.485, 51 142.278, 51 141.557 C 51 140.835, 51.595 139.751, 52.323 139.147 C 53.051 138.543, 54.707 134.775, 56.003 130.774 C 57.299 126.774, 58.729 123.073, 59.180 122.550 C 59.631 122.028, 60 120.620, 60 119.422 C 60 118.225, 60.675 116.685, 61.500 116 C 62.325 115.315, 63 114.052, 63 113.193 C 63 112.334, 63.908 109.755, 65.019 107.461 C 66.129 105.167, 67.654 101.088, 68.407 98.395 C 69.161 95.703, 70.727 91.031, 71.889 88.014 C 73.050 84.997, 74 81.713, 74 80.716 C 74 79.719, 74.900 77.041, 76 74.764 C 77.100 72.487, 78 69.835, 78 68.871 C 78 67.907, 78.396 66.873, 78.881 66.574 C 80.289 65.703, 80.920 60.618, 79.789 59.250 C 77.980 57.063, 72.474 57.710, 71.283 60.250 M 155.445 134.616 C 153.275 136.604, 149.588 139.606, 147.250 141.285 C 144.912 142.965, 143 144.825, 143 145.420 C 142.999 147.284, 128.717 158.986, 118.096 165.825 C 110.729 170.569, 106.986 172.489, 98.174 176.044 C 90.429 179.169, 86.161 179.692, 82.851 177.920 C 78.162 175.411, 74.864 183.757, 79.048 187.544 C 83.767 191.814, 104.677 187.899, 110 181.749 C 113.156 178.102, 116.500 178.781, 115.622 182.891 C 114.189 189.594, 111.838 218.988, 111.678 232.202 C 111.522 245.066, 111.721 247.126, 113.266 248.682 C 114.732 250.159, 115.367 250.252, 117.003 249.230 C 118.086 248.554, 120.088 248, 121.451 248 C 122.906 248, 124.372 247.174, 125 246 C 125.589 244.900, 127.025 244, 128.191 244 C 129.357 244, 131.704 242.940, 133.406 241.644 C 135.108 240.349, 138.525 238.259, 141 237 C 147.734 233.575, 152 230.002, 152 227.788 C 152 226.696, 152.841 225.593, 153.879 225.321 C 155.982 224.772, 161.296 214.767, 160.811 212.271 C 160.321 209.745, 158.261 209.661, 156.298 212.087 C 146.589 224.083, 128.686 237, 121.770 237 C 119.556 237, 119.569 241.082, 121.640 195.500 C 121.915 189.450, 122.277 183.262, 122.445 181.750 C 122.613 180.238, 122.806 177.956, 122.875 176.679 C 122.960 175.104, 125.076 172.696, 129.463 169.179 C 133.018 166.331, 136.309 164, 136.776 164 C 137.244 164, 138.919 162.650, 140.500 161 C 142.081 159.350, 144.157 158, 145.115 158 C 146.072 158, 147.684 156.946, 148.696 155.659 C 149.709 154.371, 151.475 152.816, 152.621 152.203 C 153.766 151.590, 157.470 148.448, 160.852 145.220 C 165.690 140.601, 167 138.717, 167 136.376 C 167 129.957, 161.451 129.112, 155.445 134.616 M 180.588 157.211 C 179.564 157.784, 174.851 162.162, 170.113 166.941 C 165.376 171.721, 159.290 177.401, 156.590 179.565 C 151.712 183.474, 151.621 183.500, 142.893 183.500 C 133.375 183.500, 131.377 184.384, 132.330 188.177 C 133.665 193.495, 135.096 194.249, 144.586 194.636 C 155.703 195.088, 157.136 195.274, 159 196.501 C 162.273 198.658, 165.310 200, 166.914 200 C 167.841 200, 169.027 200.424, 169.550 200.943 C 171.469 202.849, 185.334 210, 187.109 210 C 188.116 210, 189.938 211.350, 191.158 213 C 192.378 214.650, 194.079 216.016, 194.938 216.036 C 195.797 216.056, 198.850 218.229, 201.723 220.865 C 204.595 223.501, 208.983 226.705, 211.473 227.986 C 213.963 229.267, 216 230.694, 216 231.157 C 216 231.621, 217.119 232, 218.487 232 C 220.051 232, 222.184 233.311, 224.237 235.535 C 226.363 237.838, 228.730 239.265, 231.030 239.630 C 234.074 240.113, 234.747 239.841, 235.917 237.656 C 237.106 235.433, 237.041 234.767, 235.387 232.235 C 232.482 227.791, 225.508 222, 223.062 222 C 220.823 222, 217.324 219.711, 208.593 212.534 C 203.910 208.685, 200.593 206.669, 191.382 202.077 C 189.117 200.947, 186.700 199.343, 186.010 198.512 C 185.320 197.680, 183.720 197, 182.454 197 C 181.189 197, 178.816 195.875, 177.182 194.500 C 175.548 193.125, 173.246 192, 172.065 192 C 169.225 192, 164 188.068, 164 185.931 C 164 184.999, 165.463 183.098, 167.250 181.705 C 170.166 179.434, 172.795 177.149, 179.641 170.941 C 180.818 169.874, 182.196 169, 182.703 169 C 183.209 169, 184.658 167.601, 185.923 165.891 C 187.805 163.344, 188.029 162.360, 187.160 160.452 C 185.709 157.267, 182.933 155.898, 180.588 157.211" stroke="none" fill="black" fill-rule="evenodd"/>
</svg>