<svg xmlns="http://www.w3.org/2000/svg" width="300" height="300" viewBox="0 0 300 300" version="1.1">
	<path d="M 150.740 36.750 C 149.876 37.712, 148.847 40.237, 148.453 42.360 C 148.059 44.483, 146.718 48.083, 145.473 50.360 C 144.228 52.637, 142.887 55.574, 142.494 56.886 C 142.101 58.199, 140.253 61.271, 138.389 63.713 C 134.993 68.162, 134.128 71.343, 136 72.500 C 137.786 73.604, 137.070 74.795, 133.250 77.073 C 117.806 86.280, 108.510 93.355, 106.970 97.074 C 106.288 98.718, 105.968 100.301, 106.258 100.591 C 107.467 101.800, 118.812 97.506, 122.668 94.380 C 128.944 89.291, 130 89.732, 130 97.441 C 130 100.984, 129.550 104.160, 129 104.500 C 128.450 104.840, 128 106.456, 128 108.090 C 128 112.997, 125.396 112.830, 120.799 107.628 C 118.550 105.083, 115.945 103, 115.010 103 C 113.319 103, 110 105.944, 110 107.444 C 110 107.877, 112.700 110.792, 116 113.922 C 123.265 120.814, 123.745 123.432, 118.477 127.450 C 114.047 130.829, 111.778 130.458, 110.910 126.213 C 110.541 124.413, 109.153 121.940, 107.824 120.720 C 106.496 119.499, 104.130 116.588, 102.568 114.250 C 101.006 111.912, 99.370 110, 98.931 110 C 98.493 110, 97.827 109.031, 97.451 107.847 C 97.075 106.662, 94.990 103.850, 92.817 101.597 C 90.643 99.343, 88.142 96.713, 87.258 95.750 C 85.314 93.634, 81.683 93.472, 80.060 95.428 C 79.130 96.548, 79.265 97.546, 80.687 100.054 C 81.684 101.813, 83.061 104.265, 83.746 105.504 C 84.432 106.743, 86.472 108.886, 88.281 110.265 C 90.089 111.644, 92.655 114.886, 93.984 117.468 C 95.312 120.051, 98.847 124.401, 101.839 127.136 C 106.973 131.828, 107.206 132.246, 105.976 134.546 C 104.964 136.437, 104.930 137.552, 105.827 139.520 C 107.556 143.315, 109.690 143.577, 115.365 140.690 C 118.189 139.253, 122.643 137.783, 125.262 137.424 C 127.882 137.064, 130.271 136.371, 130.571 135.885 C 130.872 135.398, 132.554 134.986, 134.309 134.968 C 136.064 134.951, 138.348 134.294, 139.385 133.509 C 140.422 132.724, 143.347 131.782, 145.885 131.415 C 148.423 131.048, 150.950 130.416, 151.500 130.010 C 152.050 129.604, 155.776 128.982, 159.779 128.627 C 163.783 128.271, 167.945 127.427, 169.029 126.750 C 171.257 125.358, 171.663 121.073, 169.750 119.130 C 168.747 118.112, 169.043 117.390, 171.250 115.478 C 172.762 114.168, 174 112.598, 174 111.990 C 174 111.381, 176.025 109.040, 178.500 106.788 C 180.975 104.535, 183 102.010, 183 101.175 C 183 100.340, 183.651 98.938, 184.447 98.058 C 185.243 97.179, 186.403 92.418, 187.026 87.480 C 188.406 76.521, 187.260 72.111, 181.911 67.802 C 178.988 65.448, 177.038 64.805, 171.411 64.340 C 164.408 63.761, 159.206 64.932, 148.642 69.463 C 146.520 70.373, 144.565 70.898, 144.297 70.630 C 143.263 69.597, 145.253 63.935, 146.973 63.015 C 149.041 61.908, 154 53.891, 154 51.654 C 154 50.835, 155.161 47.853, 156.580 45.028 C 159.007 40.196, 159.065 39.748, 157.557 37.446 C 155.674 34.573, 152.943 34.294, 150.740 36.750 M 122 43.500 C 120.967 46.216, 121.327 47.356, 125.775 55.473 C 128.102 59.720, 129.069 60.561, 132.401 61.239 C 134.546 61.675, 136.564 61.769, 136.885 61.449 C 137.205 61.128, 136.462 59.119, 135.234 56.985 C 134.005 54.850, 133 52.390, 133 51.517 C 133 48.144, 127.087 41.072, 124.225 41.022 C 123.524 41.010, 122.523 42.125, 122 43.500 M 67.027 59.250 C 66.516 60.487, 65.587 65.100, 64.963 69.500 C 63.063 82.905, 62.838 83.890, 61.395 85.087 C 60.628 85.724, 60 87.321, 60 88.636 C 60 89.951, 59.572 91.809, 59.048 92.764 C 57.117 96.288, 55.130 101.597, 54.469 105 C 54.095 106.925, 53.214 109.850, 52.510 111.500 C 51.807 113.150, 50.470 117.200, 49.539 120.500 C 48.609 123.800, 47.485 127.400, 47.043 128.500 C 46.601 129.600, 45.461 132.525, 44.510 135 C 43.559 137.475, 42.381 140.534, 41.891 141.797 C 41.401 143.060, 41 145.171, 41 146.488 C 41 147.805, 40.550 149.160, 40 149.500 C 39.450 149.840, 39 151.035, 39 152.155 C 39 153.275, 38.380 155.386, 37.622 156.846 C 35.580 160.779, 34.362 163.978, 32.996 169 C 32.323 171.475, 30.958 175.300, 29.962 177.500 C 27.270 183.448, 25.862 191.292, 27.321 192.220 C 29.942 193.887, 32.841 192.939, 34.878 189.750 C 42.388 177.992, 43.835 176.835, 47.033 180.033 C 48.650 181.650, 48.900 182.810, 48.374 186.260 C 48.018 188.592, 47.322 191.016, 46.827 191.646 C 46.333 192.276, 46.056 197.439, 46.214 203.119 C 46.487 212.974, 46.613 213.502, 48.973 214.676 C 51.050 215.710, 51.746 215.635, 53.325 214.206 C 56.318 211.497, 58.025 207.377, 57.421 204.321 C 57.114 202.769, 57.261 199.700, 57.747 197.500 C 59.464 189.724, 56.704 174.451, 52.834 170.311 C 50.917 168.261, 49.829 167.904, 46.750 168.312 C 44.688 168.586, 43 168.567, 43 168.271 C 43 166.857, 45.434 159.389, 46.169 158.550 C 46.626 158.027, 47.015 156.677, 47.034 155.550 C 47.053 154.422, 47.937 151.700, 49 149.500 C 50.063 147.300, 50.947 144.953, 50.966 144.284 C 50.998 143.135, 53.193 137.578, 55.122 133.764 C 55.605 132.809, 56 130.981, 56 129.701 C 56 128.422, 56.900 125.513, 58 123.236 C 59.100 120.959, 60 118.593, 60 117.976 C 60 117.360, 61.069 114.976, 62.376 112.678 C 63.683 110.380, 65.287 106.250, 65.941 103.500 C 66.595 100.750, 67.766 97.519, 68.542 96.320 C 69.319 95.122, 70.234 92.197, 70.576 89.820 C 70.918 87.444, 72.032 83.025, 73.051 80 C 74.070 76.975, 75.452 71.470, 76.122 67.766 C 77.230 61.637, 77.176 60.852, 75.515 59.016 C 72.976 56.211, 68.229 56.341, 67.027 59.250 M 161.649 75.472 C 161.380 76.175, 158.671 77.061, 155.630 77.441 C 152.185 77.871, 148.857 79.052, 146.800 80.575 C 144.985 81.919, 142.275 83.558, 140.777 84.218 C 137.214 85.788, 136.648 87.532, 138.688 90.647 C 140.248 93.028, 140.237 93.657, 138.510 100.594 C 137.495 104.667, 136.946 108.280, 137.290 108.623 C 138.655 109.989, 140.691 107.967, 143.284 102.673 C 144.781 99.616, 146.454 96.837, 147.003 96.498 C 147.551 96.159, 148 95.097, 148 94.137 C 148 93.178, 149.165 90.054, 150.589 87.196 C 152.579 83.203, 153.709 82, 155.467 82 C 158.794 82, 160.300 84.323, 159.495 88.209 C 158.589 92.584, 154.472 101.364, 152.597 102.919 C 151.774 103.603, 150.104 106.263, 148.887 108.831 C 147.670 111.399, 145.848 114.305, 144.837 115.289 C 143.827 116.273, 143 117.510, 143 118.039 C 143 119.875, 152.114 119.065, 155.864 116.897 C 164.278 112.029, 177.048 93.137, 178.316 83.680 C 178.733 80.569, 178.393 79.043, 176.839 77.068 C 175.080 74.832, 174 74.480, 168.479 74.347 C 164.138 74.242, 161.985 74.596, 161.649 75.472 M 145.099 151.920 C 141.605 154.714, 138.398 157, 137.974 157 C 137.550 157, 134.976 159.181, 132.254 161.846 C 128.436 165.584, 127.153 167.641, 126.641 170.846 C 126.275 173.131, 125.584 175, 125.105 175 C 124.028 175, 123.039 171.491, 122.992 167.500 C 122.972 165.850, 122.088 162.588, 121.027 160.250 C 119.484 156.851, 118.583 156, 116.524 156 C 112.715 156, 111.556 159.860, 113.074 167.493 C 114.016 172.233, 114 176.310, 113.002 186.513 C 112.303 193.656, 111.801 202.280, 111.887 205.677 C 111.974 209.075, 111.643 212.103, 111.153 212.405 C 110.149 213.026, 110.447 227.552, 111.519 230.250 C 111.901 231.213, 111.982 232.603, 111.700 233.341 C 111.050 235.033, 111.813 236.109, 115.181 238.251 C 116.817 239.291, 117.987 241.038, 118.181 242.728 C 118.480 245.328, 118.779 245.490, 123 245.338 C 129.179 245.114, 133.896 244.024, 137.543 241.976 C 139.236 241.025, 142.963 239.745, 145.825 239.131 C 148.687 238.517, 152.652 237.337, 154.636 236.508 C 159.689 234.396, 160.253 234.570, 159.499 238.003 C 158.178 244.021, 165.530 251.295, 169.557 247.952 C 170.627 247.065, 170.892 245.786, 170.438 243.716 C 170.040 241.904, 170.229 240.476, 170.925 240.046 C 171.694 239.571, 172.022 235.138, 171.935 226.421 C 171.678 200.841, 171.834 195.905, 172.942 194.569 C 174.157 193.106, 173.637 186.984, 171.762 180.666 C 170.892 177.735, 170.910 176.374, 171.835 174.893 C 172.704 173.500, 172.751 172.403, 171.999 170.997 C 171.423 169.921, 171.209 168.014, 171.524 166.759 C 172.352 163.460, 169.737 157.987, 164.800 152.689 C 161.277 148.908, 159.682 147.962, 155.977 147.457 C 151.666 146.870, 151.155 147.080, 145.099 151.920 M 151.148 159.344 C 149.305 160.530, 146.426 162.738, 144.750 164.250 C 143.074 165.762, 140.919 167, 139.959 167 C 139 167, 136.509 169.238, 134.423 171.973 C 131.421 175.909, 130.181 176.833, 128.475 176.404 C 125.597 175.682, 123.472 179.023, 122.690 185.500 C 122.357 188.250, 121.665 192.474, 121.152 194.887 C 120.638 197.300, 120.587 200.560, 121.038 202.131 C 121.488 203.702, 121.607 207.404, 121.303 210.357 C 120.945 213.822, 121.148 215.973, 121.874 216.422 C 123.463 217.404, 123.272 221.656, 121.518 224.333 C 120.416 226.014, 120.236 227.740, 120.818 231.048 L 121.601 235.500 125.918 235.299 C 128.292 235.189, 130.969 234.456, 131.867 233.672 C 132.765 232.888, 135.075 231.751, 137 231.145 C 138.925 230.539, 143.200 229.170, 146.500 228.101 C 149.800 227.033, 154.410 225.859, 156.745 225.492 C 159.079 225.126, 161.320 224.303, 161.724 223.663 C 162.128 223.023, 162.366 210.617, 162.252 196.094 C 162.038 168.701, 161.355 163.673, 157.176 158.750 C 155.383 156.638, 155.352 156.641, 151.148 159.344 M 142.203 180.018 C 131.797 186.362, 122.614 195.713, 123.718 198.840 C 124.654 201.492, 127.175 204, 128.905 204 C 129.783 204, 132.359 202.313, 134.631 200.250 C 140.584 194.845, 144.685 192, 146.525 192 C 151.263 192, 154.128 186.097, 152.047 180.623 C 150.803 177.352, 146.963 177.116, 142.203 180.018" stroke="none" fill="black" fill-rule="evenodd"/>
</svg>