<svg xmlns="http://www.w3.org/2000/svg" width="300" height="300" viewBox="0 0 300 300" version="1.1">
	<path d="M 140.322 25.250 C 139.815 25.938, 138.354 28.750, 137.075 31.500 C 135.797 34.250, 133.907 38.136, 132.876 40.136 C 131.844 42.136, 131 44.324, 131 44.997 C 131 45.671, 128.815 49.885, 126.143 54.361 C 120.836 63.256, 118 68.788, 118 70.246 C 118 70.762, 117.100 72.329, 116 73.727 C 114.900 75.126, 114 76.932, 114 77.741 C 114 78.550, 112.608 80.970, 110.906 83.118 C 109.205 85.267, 105.942 90.537, 103.656 94.831 C 98.365 104.771, 89.902 117.762, 86.597 121.019 L 84.041 123.538 86.006 126.769 C 88.989 131.674, 91.904 131.125, 96.735 124.750 C 100.428 119.877, 102.986 115.645, 104.443 112 C 104.772 111.175, 106.343 108.250, 107.934 105.500 C 109.524 102.750, 111.470 99.150, 112.258 97.500 C 113.046 95.850, 114.435 93.882, 115.345 93.128 C 116.255 92.373, 117 91.342, 117 90.837 C 117 89.974, 117.590 89, 122.657 81.500 C 123.772 79.850, 125.218 76.879, 125.871 74.897 C 126.524 72.915, 128.170 70.249, 129.529 68.973 C 130.888 67.696, 132 65.856, 132 64.885 C 132 63.913, 132.411 62.864, 132.913 62.553 C 133.911 61.937, 138 53.882, 138 52.534 C 138 51.217, 143.157 41.021, 144.127 40.422 C 144.607 40.125, 145 38.818, 145 37.518 C 145 36.217, 146.120 33.823, 147.488 32.196 L 149.976 29.240 147.916 26.620 C 145.730 23.841, 141.876 23.146, 140.322 25.250 M 139.200 58.200 C 138.540 58.860, 138 60.345, 138 61.500 C 138 64.433, 139.876 65.994, 143.450 66.035 C 145.127 66.055, 147.625 66.714, 149 67.500 C 150.375 68.286, 152.779 68.945, 154.342 68.965 C 155.906 68.984, 158.329 69.900, 159.727 71 C 161.126 72.100, 163.600 73, 165.225 73 C 167.281 73, 169.784 74.370, 173.448 77.500 C 176.881 80.432, 179.660 82, 181.428 82 C 182.919 82, 186.102 83.350, 188.500 85 C 190.898 86.650, 193.766 88, 194.873 88 C 197.424 88, 200 84.383, 200 80.801 C 200 77.590, 197.778 75.876, 190.500 73.475 C 187.750 72.568, 183.165 70.740, 180.312 69.413 C 177.458 68.086, 174.636 67, 174.040 67 C 173.445 67, 171.271 65.884, 169.210 64.520 C 165.595 62.128, 147.549 57, 142.745 57 C 141.455 57, 139.860 57.540, 139.200 58.200 M 71.258 69.202 C 70.671 69.916, 69.971 73.200, 69.703 76.500 C 69.435 79.800, 68.736 84.300, 68.148 86.500 C 67.561 88.700, 66.127 94.090, 64.962 98.478 C 63.797 102.866, 62.206 107.591, 61.427 108.978 C 60.648 110.365, 58.632 116.675, 56.948 123 C 55.264 129.325, 53.236 135.497, 52.443 136.715 C 51.649 137.933, 51 139.830, 51 140.931 C 51 142.032, 50.379 144.410, 49.619 146.216 C 47.329 151.661, 43.909 162.132, 42.339 168.500 C 41.525 171.800, 40.037 176.300, 39.032 178.500 C 30.705 196.718, 30.655 197.282, 37.252 198.520 C 40.556 199.139, 41 198.988, 41 197.246 C 41 192.754, 48.419 187.633, 50.365 190.782 C 50.631 191.213, 50.960 194.925, 51.097 199.032 C 51.233 203.140, 51.744 207.310, 52.233 208.299 C 52.776 209.397, 52.703 211.371, 52.045 213.363 C 51.189 215.959, 51.294 217.281, 52.557 219.814 C 54.413 223.534, 54.038 223.427, 58.216 221.431 L 61.500 219.862 61.433 206.681 C 61.349 190.210, 59.225 183.430, 52.898 179.436 C 49.497 177.289, 49.052 176.593, 49.568 174.229 C 50.164 171.494, 51.518 167.244, 52.986 163.500 C 54.662 159.226, 60.029 141.431, 60.015 140.195 C 60.007 139.478, 61.350 135.718, 63 131.840 C 64.650 127.963, 66 123.886, 66 122.781 C 66 121.676, 66.839 119.136, 67.864 117.136 C 70.246 112.487, 71.641 107.785, 72.502 101.500 C 72.879 98.750, 73.566 96.039, 74.029 95.475 C 77.264 91.538, 79.527 77.157, 77.724 72 C 76.416 68.259, 73.183 66.860, 71.258 69.202 M 131.456 85.367 C 129.500 88.159, 129.619 89.656, 132.068 93.096 C 134.512 96.528, 135.843 96.676, 140.226 94.004 C 142.027 92.906, 144.287 92.006, 145.250 92.004 C 147.325 91.999, 147.690 87.798, 145.750 86.243 C 145.063 85.692, 141.893 84.802, 138.706 84.265 C 133.376 83.367, 132.795 83.455, 131.456 85.367 M 151.458 93.560 C 149.235 94.858, 143.749 99.763, 139.268 104.460 C 133.395 110.616, 130.439 113, 128.682 113 C 127.342 113, 125.761 113.583, 125.169 114.296 C 124.578 115.009, 123.387 121.646, 122.523 129.046 C 121.063 141.556, 119.685 148.011, 115.490 162 C 114.583 165.025, 113.457 169.075, 112.987 171 C 111.402 177.497, 110.182 181.477, 108.086 186.986 C 106.939 190.003, 105.995 193.378, 105.988 194.486 C 105.981 195.594, 104.856 198.458, 103.488 200.852 C 102.120 203.246, 101 205.839, 101 206.616 C 101 208.041, 100.695 208.792, 97.669 214.831 C 96.751 216.663, 96 219.101, 96 220.248 C 96 221.395, 94.425 225.199, 92.500 228.701 C 90.575 232.203, 89 235.734, 89 236.548 C 89 237.362, 88.609 238.809, 88.130 239.764 C 85.677 244.661, 83 251.197, 83 252.292 C 83 252.972, 82.125 255.163, 81.055 257.159 C 79.156 260.701, 79.155 260.830, 80.976 262.479 C 82.729 264.065, 83.062 264.065, 86.413 262.474 C 89.256 261.125, 90.197 259.938, 91.038 256.640 C 91.619 254.363, 92.698 251.150, 93.436 249.500 C 94.173 247.850, 95.338 244.700, 96.024 242.500 C 96.710 240.300, 98.117 237.297, 99.150 235.826 C 100.183 234.355, 102.646 228.505, 104.624 222.826 C 106.602 217.147, 108.614 212.079, 109.095 211.565 C 110.379 210.193, 118.463 214.532, 120.547 217.712 C 121.510 219.182, 123.487 221.536, 124.940 222.943 C 126.392 224.349, 128.157 227.197, 128.862 229.270 C 130.062 232.798, 129.979 233.236, 127.572 236.097 C 124.540 239.700, 124.533 239.757, 126.610 243.920 C 128.501 247.710, 130.439 248.710, 132.531 246.974 C 135.812 244.252, 151.075 242.121, 167.800 242.051 C 183.047 241.988, 186 240.872, 186 235.174 C 186 233.098, 185.460 230.860, 184.800 230.200 C 183.382 228.782, 179.797 228.619, 178.450 229.912 C 177.304 231.013, 151.165 232.076, 150.530 231.048 C 150.284 230.650, 151.864 228.586, 154.041 226.460 C 156.219 224.334, 158 222.258, 158 221.847 C 158 220.826, 163.873 212.196, 165.072 211.455 C 166.998 210.265, 170.776 201.383, 171.442 196.479 C 172.492 188.756, 171.155 186.398, 165.328 185.695 C 161.503 185.233, 159.937 185.516, 157.790 187.056 C 156.300 188.125, 154.263 189, 153.263 189 C 151.499 189, 142.679 193.222, 136.422 197.062 C 132.918 199.212, 131 202.745, 131 207.047 C 131 210.775, 133.684 211.030, 136.898 207.608 C 138.134 206.292, 141.250 204.434, 143.823 203.479 C 146.395 202.523, 149.871 200.450, 151.548 198.871 C 153.224 197.292, 155.600 196, 156.829 196 C 162.852 196, 159.635 202.961, 145.159 221.252 C 138.256 229.973, 136.643 230.009, 134.203 221.500 C 133.573 219.300, 131.699 215.858, 130.039 213.851 C 126.178 209.183, 118.371 204, 115.201 204 C 112.871 204, 112.779 203.781, 113.423 199.750 C 113.797 197.412, 114.529 195.072, 115.051 194.550 C 115.573 194.027, 116 192.263, 116 190.629 C 116 188.995, 116.767 186.810, 117.704 185.774 C 118.642 184.738, 119.429 182.678, 119.454 181.196 C 119.489 179.123, 120.058 178.421, 121.914 178.159 C 125.825 177.606, 131.694 173.354, 132.394 170.566 C 132.863 168.698, 133.694 168, 135.453 168 C 137.195 168, 139.906 165.771, 145.184 160.001 C 149.208 155.601, 153.175 151.991, 154 151.978 C 157.584 151.924, 162 146.209, 162 141.625 C 162 140.246, 162.450 138.840, 163 138.500 C 163.550 138.160, 164.003 137.121, 164.006 136.191 C 164.010 135.261, 164.630 133.317, 165.384 131.871 C 167.334 128.133, 166.979 100.476, 164.939 97.167 C 163.770 95.272, 156.901 90.717, 155.790 91.100 C 155.630 91.155, 153.681 92.262, 151.458 93.560 M 152.326 104.703 C 151.130 104.932, 149.382 106.330, 148.441 107.810 C 146.261 111.238, 139.199 118.189, 136.539 119.523 C 135.418 120.086, 134.361 121.740, 134.191 123.200 C 134.020 124.659, 133.233 126.392, 132.441 127.049 C 131.648 127.707, 131 128.865, 131 129.622 C 131 132.273, 134.033 130.961, 138.797 126.250 C 144.740 120.372, 150.263 117, 153.947 117 C 158.455 117, 159.591 114.773, 157.885 109.278 C 156.381 104.435, 155.880 104.023, 152.326 104.703 M 150.500 130 C 149.505 131.100, 147.935 132, 147.012 132 C 146.090 132, 143.885 133.804, 142.113 136.009 C 140.341 138.215, 137.432 140.628, 135.650 141.373 C 131.758 142.999, 129.050 146.845, 128.285 151.831 C 127.976 153.849, 127.394 155.950, 126.992 156.500 C 125.591 158.416, 124.849 165, 126.034 165 C 127.097 165, 148.013 144.225, 152.095 139.115 C 153.143 137.803, 154 135.666, 154 134.365 C 154 133.064, 154.450 132, 155 132 C 155.550 132, 156 131.100, 156 130 C 156 128.723, 155.333 128, 154.155 128 C 153.140 128, 151.495 128.900, 150.500 130" stroke="none" fill="black" fill-rule="evenodd"/>
</svg>