<svg xmlns="http://www.w3.org/2000/svg" width="300" height="300" viewBox="0 0 300 300" version="1.1">
	<path d="M 136.731 35.250 C 134.012 37.308, 130.339 42.950, 125.176 53 C 120.354 62.388, 118.329 65.941, 114.576 71.599 C 113.518 73.195, 111.077 76.944, 109.152 79.931 C 107.227 82.919, 103.481 87.761, 100.826 90.692 C 98.172 93.623, 96 96.681, 96 97.488 C 96 99.868, 100.312 102.088, 103.642 101.422 C 105.540 101.042, 107.011 101.310, 107.717 102.164 C 110.167 105.124, 112.999 114.743, 112.999 120.101 C 113 127.438, 114.598 132, 117.167 132 C 120.201 132, 119.081 136.029, 115.500 137.999 C 113.495 139.101, 112.392 140.565, 112.175 142.413 C 111.850 145.179, 114.261 148.959, 116.405 149.043 C 117.007 149.067, 122.900 146.308, 129.500 142.913 L 141.500 136.740 146.794 139.870 C 149.706 141.592, 153.334 143, 154.857 143 C 158.370 143, 162.099 139.113, 164.930 132.500 C 166.107 129.750, 167.504 126.719, 168.035 125.764 C 168.566 124.809, 169 121.765, 169 119 C 169 116.235, 169.431 113.191, 169.958 112.236 C 172.396 107.818, 175.398 92.891, 175.635 84 C 176.113 66.130, 173.536 60.280, 163.496 56.445 C 159.174 54.795, 158.890 54.811, 153.275 57.028 C 146.882 59.552, 140.369 64.050, 128.801 73.926 C 123.031 78.852, 120.299 82.067, 117.901 86.750 C 114.556 93.284, 113.614 93.901, 110.484 91.612 C 108.643 90.266, 108.665 90.108, 111.230 86.362 C 112.683 84.238, 115.308 80.925, 117.062 79 C 118.816 77.075, 121.258 73.918, 122.489 71.985 C 123.721 70.052, 125.464 67.860, 126.364 67.113 C 127.264 66.366, 128 64.491, 128 62.945 C 128 61.144, 128.630 59.935, 129.755 59.578 C 130.720 59.271, 133.044 56.091, 134.918 52.510 C 136.793 48.930, 138.907 46, 139.616 46 C 140.326 46, 141.654 44.425, 142.567 42.499 C 144.108 39.254, 144.109 38.816, 142.591 36.499 C 140.771 33.721, 139.195 33.385, 136.731 35.250 M 154.998 66.432 C 150.313 68.160, 144.631 72.096, 141.568 75.737 C 139.345 78.378, 139.194 79.053, 140.214 81.755 C 141.169 84.285, 141.068 85.247, 139.616 87.464 C 137.494 90.703, 138.250 96, 140.835 96 C 142.721 96, 147 86.168, 147 81.833 C 147 80.410, 147.696 78.667, 148.546 77.962 C 149.829 76.897, 150.554 77.026, 152.796 78.718 C 154.972 80.360, 155.433 81.414, 155.155 84.113 C 154.965 85.958, 154.237 88.600, 153.537 89.984 C 152.837 91.368, 151.671 94.857, 150.946 97.738 C 149.675 102.790, 149.715 103.067, 152.064 105.572 C 154.096 107.737, 154.468 109.067, 154.308 113.584 C 154.174 117.335, 154.497 119, 155.358 119 C 157.292 119, 159 116.824, 159 114.359 C 159 113.126, 159.400 111.871, 159.890 111.568 C 160.379 111.266, 161.007 109.552, 161.286 107.759 C 161.564 105.967, 162.800 100.675, 164.032 96 C 165.549 90.244, 166.292 84.471, 166.333 78.118 C 166.388 69.489, 166.208 68.587, 164.086 66.868 C 161.427 64.715, 159.858 64.640, 154.998 66.432 M 65.607 67.582 C 65.273 68.452, 65 72.250, 65 76.023 C 65 79.795, 64.550 83.160, 64 83.500 C 63.450 83.840, 63 85.246, 63 86.625 C 63 88.003, 62.538 89.995, 61.972 91.051 C 61.407 92.107, 60.536 94.890, 60.037 97.236 C 59.537 99.581, 58.621 103.300, 58 105.500 C 57.380 107.700, 56.255 111.975, 55.500 115 C 54.745 118.025, 53.615 122.300, 52.989 124.500 C 52.362 126.700, 51.505 130.410, 51.084 132.745 C 50.663 135.080, 49.550 137.840, 48.611 138.878 C 47.472 140.135, 47.113 141.601, 47.532 143.273 C 47.886 144.681, 47.688 146.075, 47.081 146.450 C 46.486 146.817, 46 148.645, 46 150.512 C 46 153.735, 45.530 155.301, 42.359 162.651 C 41.612 164.384, 41 166.720, 41 167.842 C 41 170.227, 36.204 184.060, 34.895 185.450 C 34.403 185.973, 34 187.190, 34 188.156 C 34 189.121, 32.875 191.569, 31.500 193.595 C 28.740 197.662, 28.350 200.218, 30.250 201.789 C 32.176 203.382, 36.945 202.013, 38.676 199.372 C 40.629 196.391, 41.144 196.409, 44.923 199.589 C 47.134 201.449, 48 203.046, 48 205.260 C 48 206.955, 48.676 209.090, 49.503 210.004 C 50.497 211.102, 51.090 214.178, 51.253 219.082 C 51.494 226.319, 51.566 226.508, 54.189 226.811 C 58.316 227.287, 61.376 223.706, 60.653 219.247 C 60.338 217.306, 60.548 214.845, 61.120 213.776 C 61.912 212.295, 61.764 211.397, 60.495 209.994 C 59.580 208.983, 58.573 206.235, 58.258 203.888 C 57.819 200.613, 56.755 198.735, 53.680 195.811 C 51.477 193.715, 49.367 192, 48.992 192 C 48.617 192, 47.496 191.101, 46.501 190.001 C 44.768 188.086, 44.765 187.700, 46.424 180.751 C 47.376 176.763, 48.683 171.025, 49.328 168 C 49.972 164.975, 50.859 161.946, 51.297 161.269 C 52.878 158.828, 56 148.627, 56 145.902 C 56 144.371, 56.386 142.880, 56.857 142.588 C 57.329 142.297, 58.296 139.233, 59.008 135.779 C 59.719 132.326, 60.909 128.285, 61.651 126.800 C 62.393 125.314, 63 122.711, 63 121.014 C 63 119.318, 63.632 116.933, 64.404 115.715 C 65.176 114.497, 66.123 111.475, 66.507 109 C 66.892 106.525, 67.804 103.150, 68.533 101.500 C 70.984 95.957, 74.295 80.553, 74.314 74.608 C 74.329 70.007, 73.927 68.419, 72.476 67.358 C 69.967 65.524, 66.352 65.642, 65.607 67.582 M 123.417 89.972 C 121.813 91.607, 119.739 92.957, 118.809 92.972 C 116.408 93.012, 115.586 94.834, 116.837 97.345 C 119.522 102.737, 121.001 107.532, 121.007 110.872 C 121.010 112.867, 121.883 115.819, 122.945 117.431 C 124.190 119.319, 124.686 121.322, 124.338 123.059 C 123.600 126.749, 125.527 130, 128.452 130 C 131.243 130, 131.910 128.663, 131.256 124.377 C 130.993 122.651, 131.276 120.947, 131.890 120.568 C 133.569 119.530, 133.224 118.292, 131.102 117.737 C 130.058 117.464, 128.438 116.073, 127.503 114.645 C 126.006 112.360, 125.955 111.455, 127.078 107.074 C 128.122 103, 128.113 101.371, 127.027 98.081 C 125.775 94.287, 125.830 93.958, 128.017 92.187 C 129.504 90.983, 130.106 89.719, 129.698 88.656 C 128.757 86.202, 126.692 86.635, 123.417 89.972 M 134.607 110.582 C 133.756 112.800, 133.821 113, 135.393 113 C 136.555 113, 138 111.015, 138 109.418 C 138 108.237, 135.129 109.221, 134.607 110.582 M 150.057 157.893 C 147.793 162.123, 155.995 178.108, 160.792 178.815 C 164.722 179.394, 172.830 187.823, 176.511 195.157 C 180.297 202.703, 180.865 207.426, 178.528 211.945 C 177.182 214.548, 176.477 214.837, 170.278 215.322 C 155.513 216.479, 153.622 215.951, 145.178 208.310 C 140.896 204.434, 139.455 201.413, 134.482 185.888 C 132.744 180.462, 129.497 176, 127.286 176 C 125.946 176, 125.795 177.199, 126.245 184.250 C 126.873 194.079, 129.320 203.075, 132.035 205.532 C 133.116 206.510, 134 207.723, 134 208.228 C 134 208.733, 136.492 211.967, 139.538 215.415 C 144.615 221.162, 145.636 221.830, 151.788 223.428 C 161.781 226.025, 167.380 226.882, 168.500 225.986 C 169.050 225.547, 171.643 224.868, 174.262 224.478 C 176.882 224.088, 179.271 223.371, 179.571 222.885 C 179.872 222.398, 181.104 221.998, 182.309 221.995 C 183.514 221.992, 185.757 220.980, 187.292 219.745 L 190.085 217.500 188.685 210.849 C 187.916 207.191, 186.373 202.691, 185.257 200.849 C 184.141 199.007, 182.908 196.445, 182.517 195.156 C 181.578 192.061, 176.836 185.112, 173.591 182.076 C 172.166 180.742, 171 179.238, 171 178.733 C 171 178.228, 173.590 175.201, 176.756 172.005 C 181.662 167.054, 183.218 166.090, 187.293 165.479 C 192.139 164.752, 192.878 164.979, 204.154 170.662 C 205.614 171.398, 207.435 172, 208.201 172 C 208.966 172, 212.047 173.563, 215.046 175.474 C 218.046 177.385, 221.255 178.960, 222.177 178.974 C 223.100 178.988, 224.740 180.125, 225.821 181.500 C 226.903 182.875, 228.441 184, 229.239 184 C 230.909 184, 234 187.112, 234 188.794 C 234 190.279, 236.596 191.574, 241.263 192.416 C 245.504 193.182, 246.400 192.104, 246.400 186.238 C 246.400 183.576, 245.470 182.124, 241.450 178.506 C 238.727 176.056, 234.838 173.526, 232.806 172.884 C 230.775 172.242, 227.462 170.356, 225.444 168.693 C 220.379 164.518, 206.178 159.866, 199.063 160.052 C 196.004 160.132, 192.267 159.876, 190.759 159.484 C 189.251 159.091, 185.936 159.082, 183.391 159.464 C 179.490 160.049, 177.963 161.009, 173.661 165.579 C 170.622 168.807, 167.707 171, 166.453 171 C 163.413 171, 160.015 166.899, 159.322 162.393 C 158.992 160.252, 158.280 157.938, 157.739 157.250 C 156.205 155.300, 151.222 155.718, 150.057 157.893 M 93.302 173.250 C 92.783 173.938, 91.799 178.550, 91.115 183.500 C 90.170 190.342, 88.928 194.386, 85.936 200.366 C 83.771 204.692, 82 208.661, 82 209.187 C 82 209.712, 79.862 213.080, 77.250 216.670 C 67.646 229.871, 65.537 236.344, 70.437 237.574 C 73.276 238.286, 80 233.574, 80 230.872 C 80 229.977, 80.658 228.699, 81.461 228.032 C 82.265 227.365, 83.224 225.848, 83.592 224.660 C 83.961 223.472, 85.103 221.306, 86.131 219.846 C 87.159 218.386, 88 216.557, 88 215.783 C 88 215.008, 89.308 213.121, 90.908 211.588 C 94.535 208.114, 99.380 197.560, 98.642 194.740 C 98.314 193.485, 98.709 192.202, 99.633 191.527 C 100.719 190.732, 101.254 188.256, 101.457 183.074 C 101.695 176.997, 101.424 175.424, 99.872 173.872 C 97.719 171.719, 94.674 171.431, 93.302 173.250" stroke="none" fill="black" fill-rule="evenodd"/>
</svg>