<svg xmlns="http://www.w3.org/2000/svg" width="300" height="300" viewBox="0 0 300 300" version="1.1">
	<path d="M 132.449 28.468 C 131.652 30.375, 131 32.425, 131 33.022 C 131 37.154, 118.140 54.500, 115.076 54.500 C 113.521 54.500, 111.137 45.996, 111.011 40 C 110.957 37.450, 110.243 35.994, 108.381 34.637 C 104.637 31.909, 103.616 33.592, 104.416 41.176 C 105.234 48.929, 105.234 47.959, 104.412 67.732 C 103.780 82.926, 103.883 84.417, 106.021 91.065 C 107.997 97.212, 108.856 98.526, 112.402 100.834 C 116.291 103.364, 117.138 103.499, 129 103.486 C 149.169 103.464, 163.193 99.327, 166.464 92.435 C 168.876 87.352, 168.581 68.628, 165.979 61.674 C 163.794 55.832, 160.548 52.049, 159.031 53.574 C 158.468 54.139, 158.851 58.326, 160.014 64.327 C 161.062 69.731, 161.669 75.581, 161.363 77.327 C 160.603 81.662, 158.457 86.277, 156.297 88.226 C 153.647 90.617, 139.749 94.014, 129.847 94.691 C 122.129 95.219, 120.818 95.051, 117.711 93.131 C 114.564 91.186, 114.166 90.423, 113.592 85.239 C 113.242 82.082, 112.701 77.380, 112.390 74.790 C 111.829 70.129, 111.879 70.029, 117.093 65.290 C 129.800 53.741, 136.836 44.721, 136.958 39.821 C 136.981 38.898, 137.594 37.548, 138.319 36.821 C 140.529 34.608, 140.987 30.875, 139.421 27.847 C 137.341 23.824, 134.275 24.097, 132.449 28.468 M 81.595 36.168 C 80.497 37.735, 80 40.666, 80 45.568 C 80 51.136, 79.610 53.043, 78.213 54.307 C 75.126 57.101, 69.604 58.862, 61.677 59.580 C 51.822 60.473, 50.228 62.027, 54.891 66.194 C 57.539 68.560, 58.751 69.018, 60.857 68.450 C 62.311 68.058, 65.075 67.390, 67 66.966 C 68.925 66.543, 71.896 65.628, 73.603 64.934 C 78.570 62.914, 80.006 64.107, 79.964 70.219 C 79.915 77.487, 77.458 87.282, 75.378 88.500 C 73.543 89.575, 54.745 102.028, 54.130 102.577 C 53.070 103.522, 55.267 107.805, 57.396 108.944 C 59.650 110.151, 60.433 109.869, 67.173 105.424 C 83.897 94.394, 94.657 82, 87.508 82 C 85.676 82, 84.654 78.521, 85.830 76.288 C 87.406 73.294, 87.993 61.199, 87.227 47.511 C 86.615 36.581, 86.238 34.472, 84.845 34.206 C 83.935 34.032, 82.473 34.915, 81.595 36.168 M 108 109.417 C 106.075 110.172, 102.101 111.712, 99.168 112.839 C 90.723 116.084, 85.128 120.749, 82.406 126.815 C 80.485 131.097, 78.294 130.670, 75.643 125.500 C 74.515 123.300, 72.896 120.952, 72.046 120.282 C 70.239 118.858, 67.346 118.631, 66.591 119.853 C 66.066 120.702, 67.481 125.921, 69.134 129.236 C 69.610 130.191, 70 131.909, 70 133.052 C 70 134.196, 70.430 135.935, 70.956 136.917 C 71.833 138.557, 74.292 152.919, 75.335 162.500 C 75.892 167.619, 77.868 172.639, 80.944 176.750 C 83.565 180.252, 86.029 180.875, 87.978 178.526 C 88.651 177.716, 90.763 176.760, 92.672 176.402 C 94.581 176.044, 97.440 174.659, 99.025 173.326 C 101.758 171.026, 102.061 170.980, 104.890 172.443 C 108.339 174.227, 110.077 173.775, 115.250 169.750 C 117.697 167.846, 119 166.013, 119 164.475 C 119 163.179, 119.450 161.840, 120 161.500 C 120.550 161.160, 121 159.797, 121 158.471 C 121 157.146, 121.811 154.585, 122.803 152.780 C 123.795 150.976, 125.405 147.250, 126.381 144.500 C 127.357 141.750, 128.683 138.419, 129.328 137.097 C 129.988 135.744, 130.456 130.754, 130.400 125.676 C 130.303 116.900, 130.217 116.583, 127.189 113.878 C 124.373 111.361, 121.346 110.145, 114 108.577 C 112.625 108.284, 109.925 108.662, 108 109.417 M 106.132 119.540 C 102.493 121.120, 95.252 126.136, 87.861 132.196 C 85.310 134.288, 82.497 136, 81.611 136 C 79.187 136, 79.458 144.982, 82.043 150.298 C 83.166 152.609, 84.353 156.412, 84.679 158.750 C 85.207 162.532, 85.560 162.995, 87.886 162.952 C 92.461 162.868, 97.466 159.790, 97.806 156.851 C 97.975 155.397, 98.987 153.416, 100.056 152.449 C 104.133 148.760, 101.130 146.100, 95.279 148.216 C 92.180 149.337, 91.668 149.266, 90.408 147.543 C 87.228 143.194, 89.777 139.051, 96.646 137.407 C 100.978 136.370, 102 135.118, 102 130.842 C 102 126.721, 104.381 122, 106.460 122 C 108.712 122, 111 125.614, 111 129.170 L 111 132.682 116.250 132.457 C 119.138 132.334, 121.838 132.180, 122.250 132.116 C 122.662 132.052, 123 129.502, 123 126.449 C 123 121.060, 122.899 120.856, 119.532 119.449 C 115.171 117.627, 110.466 117.659, 106.132 119.540 M 113.385 142.216 C 109.315 145.341, 109.032 145.925, 109.015 151.250 C 108.998 156.630, 110.406 157.386, 113.674 153.750 C 115.796 151.389, 119 144.007, 119 141.480 C 119 139.356, 116.719 139.655, 113.385 142.216 M 110.427 177.331 C 110.146 178.063, 109.597 181.502, 109.208 184.974 C 108.756 189.007, 107.958 191.566, 107 192.060 C 97.670 196.870, 93.999 196.981, 92.489 192.500 C 91.933 190.850, 90.968 188.629, 90.346 187.565 C 89.250 185.692, 89.126 185.688, 86.481 187.420 C 83.904 189.109, 83.785 189.515, 84.383 194.605 C 84.934 199.290, 84.791 200, 83.294 200 C 82.346 200, 77.954 201.765, 73.535 203.922 C 65.246 207.968, 58.726 210.566, 53.490 211.909 C 51.834 212.334, 47.010 214.328, 42.768 216.341 C 38.527 218.353, 34.153 220, 33.048 220 C 30.663 220, 29.162 224.459, 30.724 226.905 C 32.223 229.251, 43.713 228.257, 47 225.496 C 47.825 224.804, 49.625 223.926, 51 223.545 C 53.989 222.719, 65.784 218.172, 68.236 216.900 C 69.191 216.405, 70.881 216, 71.991 216 C 73.101 216, 76.342 214.875, 79.192 213.500 C 82.042 212.125, 84.708 211, 85.116 211 C 87.250 211, 89 214.520, 89.004 218.821 C 89.006 221.771, 89.764 224.742, 91.056 226.860 C 92.183 228.708, 92.968 230.860, 92.802 231.642 C 92.636 232.424, 87.325 235.350, 81 238.143 C 68.335 243.736, 57.852 248.532, 54 250.495 C 52.625 251.196, 49.925 252.101, 48 252.507 C 46.075 252.912, 42.830 254.089, 40.790 255.122 C 38.749 256.155, 36.187 257, 35.097 257 C 33.073 257, 30 260.436, 30 262.699 C 30 263.389, 31.123 264.690, 32.496 265.589 C 35.646 267.654, 40.438 266.871, 45.444 263.474 C 47.449 262.113, 50.088 261, 51.309 261 C 52.530 261, 55.098 260.170, 57.015 259.156 C 58.932 258.141, 62.075 257.009, 64 256.638 C 65.925 256.268, 69.750 254.859, 72.500 253.507 C 82.630 248.528, 90.614 245.146, 94.965 243.992 C 97.420 243.340, 100.529 241.943, 101.872 240.886 C 103.251 239.801, 105.097 239.213, 106.113 239.536 C 107.816 240.076, 114.131 238.760, 118.500 236.953 C 123.228 234.998, 137.691 232.542, 151.500 231.349 C 156.154 230.947, 158.117 230.247, 160.250 228.228 C 161.762 226.797, 163 225.061, 163 224.370 C 163 222.402, 158.866 220, 155.477 220 C 153.785 220, 151.883 219.483, 151.251 218.851 C 150.386 217.986, 149.491 218.103, 147.628 219.324 C 146.267 220.216, 139.832 221.872, 133.327 223.005 C 126.822 224.139, 117.961 226.199, 113.635 227.585 C 105.317 230.249, 103.641 230.159, 106.328 227.191 C 107.234 226.189, 108.258 223.959, 108.603 222.235 C 108.948 220.512, 110.062 218.349, 111.079 217.429 C 112.277 216.344, 113.165 213.666, 113.599 209.825 C 114.174 204.747, 114.717 203.556, 117.385 201.532 C 119.098 200.232, 122.300 198.845, 124.500 198.451 C 126.700 198.056, 129.790 197.079, 131.367 196.280 C 132.943 195.482, 137.668 194.626, 141.867 194.379 C 151.715 193.800, 160.026 192.074, 162.299 190.136 C 163.469 189.137, 163.993 187.537, 163.799 185.551 L 163.500 182.500 155 181.830 C 148.067 181.283, 145.763 181.481, 142.500 182.901 C 140.300 183.858, 134.494 185.620, 129.597 186.816 C 119.305 189.330, 117.451 188.767, 118.323 183.396 C 118.720 180.949, 118.318 179.708, 116.606 178.100 C 114.069 175.716, 111.184 175.357, 110.427 177.331 M 100.250 205.491 C 97.114 206.854, 97 207.109, 97 212.761 C 97 216.028, 97.583 219.414, 98.318 220.420 C 99.552 222.108, 99.741 222.116, 101.318 220.539 C 102.243 219.614, 103.007 218.102, 103.015 217.179 C 103.023 216.255, 103.679 213.700, 104.471 211.500 C 107.194 203.941, 106.404 202.816, 100.250 205.491 M 73.332 271.199 C 72.784 271.915, 71.737 274.075, 71.006 276 C 69.481 280.013, 61.859 289.528, 55.184 295.750 L 50.625 300 57.063 299.994 C 63.118 299.987, 63.775 299.751, 68.137 296.012 C 70.687 293.826, 73.081 290.792, 73.456 289.269 C 73.831 287.746, 75.418 285.150, 76.983 283.500 C 79.171 281.192, 79.905 279.346, 80.164 275.500 C 80.496 270.561, 80.462 270.496, 77.415 270.199 C 75.718 270.033, 73.881 270.483, 73.332 271.199 M 134.750 272.080 C 132.290 273.513, 132.567 275.216, 135.750 278.230 C 137.603 279.985, 140.131 281.056, 143.500 281.514 C 146.250 281.888, 150.525 283.135, 153 284.285 C 157.113 286.196, 171.028 294.685, 173.563 296.830 C 176.431 299.257, 179.518 299.998, 186.684 299.981 L 194.500 299.962 190.346 297.231 C 188.061 295.729, 184.101 293.038, 181.545 291.250 C 178.990 289.462, 176.666 288, 176.380 288 C 176.094 288, 173.979 286.738, 171.680 285.196 C 165.464 281.025, 155.525 276.455, 146.390 273.565 C 137.281 270.684, 137.171 270.670, 134.750 272.080" stroke="none" fill="black" fill-rule="evenodd"/>
</svg>