<svg xmlns="http://www.w3.org/2000/svg" width="300" height="300" viewBox="0 0 300 300" version="1.1">
	<path d="M 106.168 55.298 C 105.153 56.521, 104.541 64.100, 105.102 68.500 C 105.242 69.600, 105.276 72.599, 105.178 75.164 C 105.008 79.621, 104.777 79.966, 99.985 82.914 C 97.227 84.611, 94.559 86, 94.057 86 C 93.555 86, 92.854 83.412, 92.500 80.250 C 92.146 77.088, 91.385 72.025, 90.809 69 C 90.233 65.975, 89.670 62.123, 89.557 60.440 C 89.279 56.277, 88.317 55, 85.460 55 C 82.071 55, 81.695 57.459, 82.931 71.551 C 84.489 89.309, 84.372 91.576, 81.770 94 C 80.543 95.142, 78.406 96.353, 77.020 96.689 C 75.634 97.026, 73.022 98.583, 71.215 100.150 C 69.409 101.718, 67.485 103, 66.940 103 C 65.725 103, 64 98.672, 64 95.622 C 64 92.544, 58.871 87.729, 56.543 88.622 C 55.015 89.208, 54.851 90.104, 55.394 94.903 C 55.990 100.173, 58.706 115.344, 61.052 126.500 C 61.630 129.250, 62.362 136.450, 62.678 142.500 C 63.055 149.697, 63.834 154.710, 64.932 157 C 65.957 159.138, 66.589 162.836, 66.555 166.500 C 66.503 172.140, 66.350 172.517, 64 172.785 C 62.625 172.942, 59.700 173.682, 57.500 174.430 C 55.300 175.177, 48.775 177.230, 43 178.991 C 20.892 185.733, 14.573 188.994, 15.193 193.342 C 15.574 196.020, 21.294 196.917, 23.844 194.700 C 24.755 193.907, 27.891 192.956, 30.814 192.586 C 33.737 192.217, 38.560 190.802, 41.533 189.442 C 44.505 188.083, 49.088 186.690, 51.718 186.347 C 54.348 186.004, 56.950 185.396, 57.500 184.996 C 58.050 184.596, 59.625 184.016, 61 183.706 C 62.375 183.397, 66.425 182.395, 70 181.479 C 73.575 180.564, 78.525 179.711, 81 179.585 C 83.475 179.458, 87.525 178.980, 90 178.523 C 92.475 178.065, 95.850 177.559, 97.500 177.398 C 99.150 177.237, 102.750 176.611, 105.500 176.008 C 108.250 175.404, 114.100 174.521, 118.500 174.047 C 122.900 173.572, 128.750 172.673, 131.500 172.048 C 140.130 170.087, 154.993 168.830, 168.964 168.879 C 178.473 168.913, 182.653 168.571, 183.198 167.714 C 185.634 163.880, 181.652 158, 176.620 158 C 175.107 158, 172.969 157.519, 171.870 156.931 C 170.561 156.230, 169.463 156.198, 168.686 156.838 C 168.034 157.376, 164.350 158.058, 160.500 158.354 C 156.650 158.650, 152.150 159.095, 150.500 159.343 C 147.341 159.818, 139.387 160.764, 132.250 161.515 C 128.545 161.904, 128 161.711, 128 160.004 C 128 158.927, 129.103 157.323, 130.451 156.440 C 132.181 155.307, 133.095 153.551, 133.556 150.477 C 133.915 148.081, 135.062 145.349, 136.104 144.405 C 137.147 143.462, 138 141.705, 138 140.500 C 138 139.295, 138.900 137.495, 140 136.500 C 141.430 135.206, 142.012 133.381, 142.044 130.095 C 142.068 127.568, 142.566 123.475, 143.152 121 C 144.573 114.994, 144.522 104.968, 143.035 98.095 C 142.370 95.018, 141.612 91.410, 141.350 90.078 C 140.893 87.747, 135.917 82.425, 131.272 79.298 C 130.047 78.474, 125.772 77.507, 121.772 77.149 L 114.500 76.500 113.845 67.183 C 113.368 60.403, 112.713 57.341, 111.440 55.933 C 109.402 53.682, 107.681 53.475, 106.168 55.298 M 116.725 87.609 C 115.866 88.467, 115.965 98.222, 116.875 102.500 C 117.692 106.343, 120.385 106.786, 126.369 104.060 C 128.856 102.927, 131.338 102, 131.886 102 C 133.761 102, 133.891 100.363, 132.368 95.941 C 130.350 90.086, 129.640 89.363, 125.235 88.682 C 123.181 88.364, 120.589 87.830, 119.475 87.494 C 118.361 87.159, 117.123 87.210, 116.725 87.609 M 101.383 93.331 C 99.798 94.665, 97.600 95.931, 96.500 96.144 C 94.642 96.503, 94.494 97.363, 94.412 108.265 C 94.363 114.719, 94.588 119.997, 94.912 119.993 C 95.235 119.990, 96.850 119.071, 98.500 117.951 C 100.150 116.831, 102.908 115.304, 104.629 114.559 C 108.291 112.972, 108.789 110.676, 108.004 99.009 C 107.426 90.421, 106.146 89.323, 101.383 93.331 M 78.888 104.941 C 76.926 106.558, 74.142 108.177, 72.701 108.539 C 68.003 109.718, 67.554 111.168, 68.962 120.629 L 70.234 129.179 73.867 128.512 C 75.865 128.145, 77.927 127.429, 78.450 126.922 C 78.972 126.415, 80.183 126, 81.141 126 C 82.099 126, 83.231 125.438, 83.658 124.750 C 84.848 122.833, 84.683 102.001, 83.478 102 C 82.916 102, 80.850 103.323, 78.888 104.941 M 130.232 112 C 129.466 113.227, 127.900 114, 126.180 114 C 122.514 114, 119.045 117.320, 118.825 121.039 C 118.729 122.668, 118.501 125.237, 118.319 126.750 C 118.137 128.262, 117.810 131.975, 117.593 135 C 116.956 143.847, 115.921 148.155, 113.025 154 C 112.616 154.825, 111.431 155.500, 110.391 155.500 C 108.662 155.500, 108.500 154.642, 108.501 145.500 C 108.502 140, 108.727 133.250, 109.001 130.500 C 109.461 125.888, 109.324 125.475, 107.230 125.178 C 105.884 124.987, 103.716 125.902, 101.903 127.428 C 100.222 128.843, 98.195 130, 97.399 130 C 95.002 130, 94 134.571, 94 145.506 C 94 151.213, 93.607 156.125, 93.126 156.422 C 92.646 156.719, 92.346 159.108, 92.461 161.731 L 92.670 166.500 96.585 166.350 C 108.142 165.908, 109.602 165.244, 117.288 156.938 C 122.833 150.946, 125.103 147.567, 127.110 142.322 C 130.932 132.332, 132 128.684, 132 125.617 C 132 124.109, 132.725 120.659, 133.611 117.949 C 135.286 112.830, 134.987 110, 132.772 110 C 132.062 110, 130.919 110.900, 130.232 112 M 77.560 137.131 C 73.947 139.974, 72.713 143.437, 73.911 147.371 C 74.436 149.092, 75.618 154.887, 76.538 160.250 C 78.230 170.105, 79.161 171.476, 82.641 169.235 C 83.985 168.369, 84.936 138.213, 83.681 136.250 C 82.522 134.438, 80.640 134.709, 77.560 137.131 M 79.825 203.038 C 78.904 203.576, 76.040 208.295, 73.462 213.526 C 69.269 222.030, 66.155 226.305, 56.725 236.500 C 54.605 238.792, 54.015 240.326, 54.225 243 C 54.472 246.147, 54.826 246.531, 57.740 246.813 C 60.602 247.089, 61.736 246.335, 67.456 240.357 C 71.018 236.634, 74.208 232.331, 74.545 230.794 C 74.883 229.257, 75.505 228, 75.928 228 C 76.740 228, 79.421 222.212, 80.560 218 C 80.932 216.625, 81.801 214.825, 82.492 214 C 84.415 211.701, 85.319 205.089, 83.937 203.424 C 82.560 201.764, 82.084 201.720, 79.825 203.038 M 128.347 208.537 C 127.534 210.657, 130.684 213.925, 135.709 216.174 C 138.023 217.209, 140.192 218.501, 140.527 219.044 C 140.862 219.586, 142.568 220.715, 144.318 221.551 C 160.694 229.379, 168.971 235.663, 183.250 251.107 C 186.934 255.092, 191.725 252.373, 190.633 246.916 C 189.890 243.202, 187.225 239.492, 180.250 232.463 C 177.363 229.553, 175 226.737, 175 226.205 C 175 225.673, 173.072 224.752, 170.717 224.159 C 168.361 223.566, 159.326 219.462, 150.641 215.040 C 134.884 207.019, 129.530 205.457, 128.347 208.537" stroke="none" fill="black" fill-rule="evenodd"/>
</svg>