<svg xmlns="http://www.w3.org/2000/svg" width="300" height="300" viewBox="0 0 300 300" version="1.1">
	<path d="M 113.776 49.750 C 111.711 52.105, 109.372 56.835, 107.400 62.644 C 105.732 67.556, 101.685 77.128, 99.962 80.236 C 99.433 81.191, 99 82.383, 99 82.885 C 99 83.387, 95.625 89.499, 91.500 96.467 C 87.375 103.436, 84 109.556, 84 110.069 C 84 110.581, 83.550 111, 83 111 C 81.066 111, 78 115.028, 78 117.570 C 78 118.983, 76.650 122.102, 75 124.500 C 73.350 126.898, 72 129.176, 72 129.561 C 72 129.946, 70.425 132.453, 68.500 135.133 C 66.575 137.812, 65 140.384, 65 140.847 C 65 141.311, 64.048 142.547, 62.885 143.595 C 61.722 144.643, 60.361 146.400, 59.860 147.500 C 58.876 149.661, 57.095 152.159, 49.750 161.687 C 47.138 165.076, 45 168.299, 45 168.851 C 45 170.451, 48.277 170.756, 51.031 169.411 C 54.368 167.782, 62.336 159.206, 64.507 154.907 C 65.454 153.033, 67.277 150.375, 68.560 149 C 69.842 147.625, 72.381 143.800, 74.203 140.500 C 78.980 131.844, 85.378 122.024, 86.248 122.011 C 86.659 122.005, 88.684 123.610, 90.748 125.578 C 92.811 127.546, 95.737 129.807, 97.250 130.603 C 98.762 131.400, 100 132.701, 100 133.495 C 100 135.736, 95.794 143.265, 93.297 145.494 C 92.061 146.597, 89.801 149.832, 88.275 152.682 C 85.703 157.485, 78.079 169.012, 67.892 183.500 C 65.571 186.800, 60.545 193.216, 56.721 197.759 C 50.792 204.803, 49.960 206.246, 51.061 207.573 C 51.920 208.609, 53.191 208.918, 54.865 208.498 C 57.200 207.912, 62.858 204.460, 64 202.924 C 64.275 202.554, 65.916 200.508, 67.647 198.376 C 75.807 188.325, 78.485 184.707, 85.689 174 C 89.945 167.675, 93.718 162.275, 94.073 162 C 94.427 161.725, 95.814 159.475, 97.154 157 C 98.494 154.525, 101.729 149.238, 104.344 145.250 C 110.291 136.178, 112.126 135.913, 121.668 142.750 C 123.396 143.988, 125.189 145.001, 125.654 145.002 C 128.055 145.008, 139.630 152.254, 150.858 160.779 C 168.433 174.125, 186.039 188.282, 188.924 191.389 C 190.258 192.825, 191.920 194, 192.618 194 C 194.574 194, 196.936 189.998, 196.175 187.972 C 194.867 184.489, 182.742 172.995, 174.375 167.305 C 167.492 162.625, 158.241 155.813, 150.534 149.750 C 146.514 146.588, 142.554 144, 141.735 144 C 140.915 144, 139.651 143.284, 138.925 142.410 C 138.199 141.535, 132.519 138.393, 126.302 135.427 C 120.086 132.461, 115 129.440, 115 128.713 C 115 127.985, 116.930 124.649, 119.289 121.299 C 123.517 115.295, 126.190 110.353, 129.455 102.500 C 130.370 100.300, 131.992 96.770, 133.059 94.655 C 135.561 89.699, 135.536 82.971, 132.997 77.994 C 129.782 71.693, 124.275 70.175, 118.500 74 C 115.565 75.944, 112 76.669, 112 75.322 C 112 74.422, 117.738 58.326, 119.445 54.437 C 121.768 49.144, 117.443 45.567, 113.776 49.750 M 112.500 86.234 C 104.219 91.149, 102.838 92.372, 100.342 97 C 99.304 98.925, 96.457 103.837, 94.015 107.915 C 89.916 114.762, 89.714 115.413, 91.370 116.415 C 92.357 117.012, 95.417 118.962, 98.170 120.750 C 100.922 122.537, 103.925 124, 104.841 124 C 105.930 124, 108.790 119.922, 113.081 112.250 C 122.228 95.898, 124.958 89.591, 124.985 84.750 C 124.998 82.403, 124.597 82.006, 122.250 82.040 C 120.737 82.062, 116.350 83.949, 112.500 86.234 M 112.250 185.662 C 111.563 185.940, 111 187.424, 111 188.961 C 111 192.372, 112.345 193.531, 117.351 194.434 C 119.469 194.816, 122.690 195.838, 124.510 196.706 C 128.575 198.644, 131 197.859, 131 194.604 C 131 191.437, 127.163 188.423, 120.681 186.498 C 115.418 184.935, 114.322 184.826, 112.250 185.662 M 137.699 220.399 C 133.415 224.951, 124.203 232.279, 117.854 236.185 C 113.925 238.602, 111.103 239.502, 106.092 239.933 C 100.426 240.420, 99.459 240.789, 99.206 242.555 C 99.044 243.686, 99.810 245.423, 100.907 246.416 C 103.992 249.207, 114.366 247.065, 123.848 241.678 C 131.585 237.282, 142 227.233, 142 224.164 C 142 223.194, 142.510 221.890, 143.133 221.267 C 144.421 219.979, 143.616 217, 141.980 217 C 141.385 217, 139.458 218.529, 137.699 220.399" stroke="none" fill="black" fill-rule="evenodd"/>
</svg>