<svg xmlns="http://www.w3.org/2000/svg" width="300" height="300" viewBox="0 0 300 300" version="1.1">
	<path d="M 111.703 34.750 C 110.181 36.263, 107.488 39.263, 105.718 41.417 C 102.525 45.303, 97.359 48.200, 91.399 49.445 C 88.778 49.993, 87.505 49.467, 83.178 46.047 C 77.288 41.391, 76.240 41.145, 75.506 44.250 C 74.075 50.300, 78.554 55.728, 85.777 56.697 C 88.177 57.019, 90.129 57.894, 90.479 58.806 C 91.194 60.668, 86.947 64.433, 82.357 66.007 C 79.083 67.129, 74 73.379, 74 76.281 C 74 77.201, 75.170 78.721, 76.601 79.658 C 78.754 81.069, 79.726 81.165, 82.247 80.213 C 83.923 79.580, 85.618 79.264, 86.015 79.509 C 87.085 80.171, 88.050 87.227, 88.615 98.521 C 89.100 108.216, 89.035 108.619, 86.623 110.884 C 85.252 112.172, 82.639 113.529, 80.815 113.899 C 78.179 114.433, 77.436 115.117, 77.188 117.236 C 76.818 120.406, 78.531 124, 80.413 124 C 81.152 124, 82.444 122.988, 83.285 121.750 C 84.543 119.898, 85.140 119.700, 86.657 120.628 C 88.241 121.598, 88.468 122.914, 88.269 130.003 C 88.142 134.539, 87.543 138.846, 86.938 139.575 C 85.097 141.793, 69.473 148.804, 57.017 153.002 C 40.903 158.432, 37.294 161.004, 39.094 165.772 C 40.286 168.929, 42.780 169.612, 45.876 167.630 C 50.233 164.839, 60.197 160.435, 66.531 158.501 C 69.814 157.498, 73.210 156.075, 74.079 155.339 C 74.947 154.602, 76.722 154, 78.024 154 C 79.326 154, 81.616 152.826, 83.114 151.391 C 86.645 148.008, 88.028 148.999, 87.882 154.809 C 87.632 164.709, 87.450 164.952, 77.500 168.661 C 72.550 170.506, 66.700 172.299, 64.500 172.644 C 57.789 173.699, 55.996 176.876, 60.045 180.540 C 61.859 182.182, 62.593 182.256, 66.559 181.195 C 69.017 180.538, 72.316 180, 73.888 180 C 75.461 180, 78.863 178.818, 81.447 177.373 C 87.211 174.152, 88.218 174.898, 87.807 182.084 L 87.500 187.453 83.397 188.149 C 80.278 188.679, 77.993 190.123, 73.872 194.173 C 70.890 197.103, 67.615 200.850, 66.594 202.500 C 64.123 206.494, 60.753 210.125, 46.500 224.147 C 34.317 236.133, 27.908 240.500, 22.500 240.500 C 20.129 240.500, 19.432 240.983, 19.173 242.805 C 18.670 246.357, 20.723 248, 25.665 248 C 30.847 248, 36.687 244.099, 46.469 234.100 C 49.751 230.745, 52.901 228.007, 53.469 228.017 C 54.805 228.038, 78 203.881, 78 202.467 C 78 200.700, 84.739 194.721, 85.914 195.447 C 87.280 196.291, 87.392 218.839, 86.047 222.376 C 85.246 224.484, 84.510 230.386, 83.786 240.500 C 83.400 245.905, 84.072 248.076, 86.470 249.168 C 90.236 250.884, 91.671 248.968, 92.424 241.223 C 94.234 222.616, 94.383 220.181, 95.547 190.176 L 96.297 170.852 98.898 169.193 C 100.329 168.281, 102.088 166.739, 102.807 165.767 C 103.525 164.795, 104.579 164, 105.149 164 C 105.719 164, 107.329 163.100, 108.727 162 C 113.101 158.560, 113.939 159.296, 114.133 166.750 C 114.998 199.989, 113.961 238.170, 112.007 244.977 C 111.458 246.889, 111.227 249.139, 111.492 249.977 C 111.758 250.815, 110.943 252.794, 109.681 254.376 C 107.434 257.194, 107.325 257.219, 104.294 255.652 C 101.575 254.246, 101.053 254.231, 99.977 255.528 C 98.967 256.745, 99.431 257.631, 102.626 260.583 C 106.008 263.708, 106.986 264.099, 110.328 263.666 C 115.420 263.006, 117.635 260.794, 118.298 255.708 C 118.938 250.803, 121.028 240.173, 121.780 238 C 122.065 237.175, 122.456 230.425, 122.648 223 C 123.086 206.039, 123.315 205, 126.615 205 C 128.032 205, 130.386 205.623, 131.846 206.384 C 134.527 207.782, 139.002 209.772, 144.500 212.011 C 146.150 212.683, 148.281 213.631, 149.236 214.117 C 150.191 214.603, 151.766 215.003, 152.736 215.006 C 153.706 215.010, 155.789 215.685, 157.364 216.506 C 158.940 217.328, 160.868 218, 161.649 218 C 162.431 218, 164.067 218.621, 165.285 219.380 C 166.503 220.140, 169.732 221.044, 172.461 221.390 C 177.241 221.997, 188.439 225.472, 190.500 226.988 C 191.050 227.393, 192.850 228.029, 194.500 228.402 C 198.017 229.197, 209.275 233.562, 213.302 235.692 C 217.343 237.830, 219 236.785, 219 232.099 C 219 227.508, 216.511 225.256, 209 223.053 C 199.514 220.271, 192.132 217.925, 182 214.475 C 176.225 212.509, 169.776 210.526, 167.670 210.069 C 165.563 209.613, 163.335 208.735, 162.720 208.120 C 162.104 207.504, 160.367 207, 158.859 207 C 157.351 207, 155.868 206.595, 155.562 206.100 C 155.256 205.606, 152.642 204.677, 149.753 204.037 C 146.864 203.397, 141.800 201.813, 138.500 200.518 C 135.200 199.223, 130.858 197.889, 128.850 197.555 C 126.843 197.221, 124.761 196.396, 124.223 195.724 C 123.686 195.051, 123.197 188.013, 123.137 180.083 C 123.078 172.154, 122.753 164.797, 122.416 163.735 C 122.078 162.672, 122.101 159.815, 122.465 157.386 C 123.047 153.503, 123.782 152.485, 128.550 148.963 C 134.707 144.414, 136.224 141.010, 133.455 137.950 C 132.001 136.344, 131.883 135.568, 132.816 133.740 C 133.444 132.508, 134.386 130.318, 134.908 128.873 C 135.647 126.827, 137.587 125.542, 143.678 123.064 C 151.620 119.833, 160.479 115.497, 162.750 113.728 C 164.418 112.430, 164.347 106.533, 162.646 105.122 C 160.913 103.683, 152.433 104.774, 150.888 106.634 C 150.265 107.385, 149.197 108, 148.515 108 C 147.833 108, 145.555 109.367, 143.453 111.038 C 141.350 112.708, 138.971 113.946, 138.166 113.788 C 137.361 113.629, 135.901 111.025, 134.922 108 C 132.842 101.573, 126.250 95.007, 121.872 95.003 C 120.427 95.001, 118.717 94.364, 118.071 93.586 C 117.426 92.808, 116.628 87.407, 116.298 81.583 C 115.899 74.546, 115.246 70.619, 114.349 69.875 C 111.155 67.224, 113.472 65, 119.427 65 C 123.304 65, 126 62.419, 126 58.706 C 126 53.867, 120.163 52.603, 113.500 56 C 111.342 57.100, 108.772 58, 107.789 58 C 105.350 58, 105.461 54.359, 107.940 53.032 C 110.234 51.804, 121 39.328, 121 37.898 C 121 36.712, 116.431 32, 115.281 32 C 114.835 32, 113.225 33.237, 111.703 34.750 M 106 70.179 C 104.625 70.758, 101.475 71.790, 99 72.473 C 96.008 73.298, 94.627 74.181, 94.878 75.107 C 95.266 76.535, 95.495 78.884, 96.767 94.489 C 97.350 101.633, 97.835 103.542, 99.131 103.790 C 100.855 104.118, 108.012 99.721, 109.200 97.604 C 109.585 96.918, 109.455 93.239, 108.911 89.428 C 108.008 83.096, 108.156 79.474, 109.633 71.750 C 110.204 68.765, 109.787 68.585, 106 70.179 M 119.354 107.519 C 119.034 108.355, 119.083 111.955, 119.465 115.519 C 120.193 122.319, 121.025 123.127, 125.066 120.965 C 127.770 119.518, 127.845 110.074, 125.171 107.655 C 122.885 105.586, 120.121 105.521, 119.354 107.519 M 101.069 112.557 L 97 116.233 97 125.057 C 97 129.950, 97.452 134.162, 98.015 134.509 C 98.939 135.080, 105.011 131.805, 110.120 127.980 C 112.006 126.568, 112.091 125.857, 111.325 117.980 C 110.526 109.766, 110.416 109.490, 107.819 109.190 C 105.871 108.965, 104.026 109.885, 101.069 112.557 M 121.098 135.149 C 119.746 139.028, 119.745 139, 121.140 139 C 122.677 139, 124.929 135.911, 124.968 133.750 C 125.022 130.807, 122.264 131.804, 121.098 135.149 M 107.042 139.450 C 106.380 140.247, 103.906 141.835, 101.545 142.978 C 97.907 144.740, 97.159 145.623, 96.637 148.778 C 95.757 154.104, 95.859 159, 96.851 159 C 98.094 159, 106.534 154.404, 110.009 151.835 C 112.578 149.936, 113 148.974, 113 145.012 C 113 138.766, 109.962 135.930, 107.042 139.450" stroke="none" fill="black" fill-rule="evenodd"/>
</svg>