<svg xmlns="http://www.w3.org/2000/svg" width="300" height="300" viewBox="0 0 300 300" version="1.1">
	<path d="M 124.769 70.750 C 123.922 71.713, 123.008 74.075, 122.738 76 C 121.623 83.937, 118.468 92.368, 110.763 108 C 106.290 117.075, 101.139 126.841, 99.315 129.702 C 97.492 132.563, 96 135.511, 96 136.252 C 96 136.993, 95.597 138.028, 95.105 138.550 C 94.613 139.073, 93.922 140.875, 93.569 142.555 C 92.860 145.926, 95.449 150, 98.299 150 C 100.263 150, 104 144.865, 104 142.167 C 104 138.033, 109.501 135.186, 110.604 138.750 C 110.902 139.713, 111.486 141.175, 111.901 142 C 112.524 143.240, 112.636 199.589, 112.061 223 C 111.819 232.884, 113.977 251.035, 115.709 253.678 C 117.728 256.761, 118.658 256.610, 120.958 252.829 C 122.339 250.558, 122.619 249.156, 121.943 247.894 C 120.434 245.073, 120.845 241.148, 122.750 240.198 C 123.713 239.718, 127.200 238.752, 130.500 238.051 C 133.800 237.351, 136.998 236.376, 137.607 235.885 C 138.989 234.771, 147.653 232.819, 151 232.868 C 152.375 232.888, 155.750 232.278, 158.500 231.511 C 164.493 229.842, 174.099 229.143, 199.704 228.515 C 211.671 228.221, 219.137 228.412, 219.514 229.022 C 220.393 230.445, 223.573 230.219, 224.883 228.641 C 225.599 227.778, 229.158 227.085, 234.616 226.744 C 244.231 226.145, 247.518 224.437, 245.231 221.231 C 244.551 220.279, 243.552 218.474, 243.011 217.221 C 241.934 214.726, 240.928 214.716, 220.500 216.997 C 216.100 217.489, 203.050 217.935, 191.500 217.988 C 179.950 218.042, 168.925 218.552, 167 219.122 C 161.999 220.603, 155.374 219.930, 155.939 218 C 156.181 217.175, 156.658 212.900, 157 208.500 C 157.342 204.100, 157.791 200.050, 157.999 199.500 C 158.206 198.950, 158.020 196.548, 157.585 194.162 C 156.867 190.223, 157.057 189.546, 159.647 186.805 C 161.216 185.145, 164.781 182.487, 167.570 180.900 C 175.364 176.461, 180.148 170.005, 181.478 162.129 C 182.118 158.345, 181.995 158, 180.006 158 C 177.591 158, 170.885 163.153, 164.388 170 C 158.902 175.781, 157.931 174.870, 158.706 164.673 L 159.300 156.846 165.947 150.173 C 169.603 146.503, 174.035 142.224, 175.797 140.665 C 181.322 135.775, 179.598 130, 172.612 130 C 170.951 130, 168.583 131.532, 165.657 134.500 C 163.182 137.010, 160.287 139, 159.110 139 C 157.121 139, 157 138.489, 157 130.059 C 157 125.141, 156.550 120.840, 156 120.500 C 155.450 120.160, 155 118.814, 155 117.509 C 155 115.263, 157.982 112.411, 163.486 109.397 C 164.594 108.790, 168.200 106.814, 171.500 105.007 C 174.800 103.199, 178.287 101.038, 179.250 100.205 C 181.891 97.919, 181.464 93.510, 178.365 91.073 C 174.901 88.348, 172.858 88.458, 169.976 91.525 C 168.672 92.914, 165.590 95.176, 163.129 96.552 C 157.142 99.898, 155.550 98.410, 159.616 93.268 C 163.241 88.684, 163.737 84.207, 161.005 80.734 C 159.902 79.332, 159 77.333, 159 76.292 C 159 75.252, 158.460 73.860, 157.800 73.200 C 156.019 71.419, 150.264 71.705, 149.188 73.628 C 148.235 75.332, 149.565 82.716, 151.138 84.450 C 151.612 84.972, 152 87.983, 152 91.141 C 152 94.299, 152.450 97.160, 153 97.500 C 154.866 98.653, 153.999 101.493, 151.244 103.251 C 149.735 104.214, 146.925 106.014, 145 107.251 C 143.075 108.488, 138.575 110.450, 135 111.610 C 129.424 113.420, 128.456 114.087, 128.189 116.302 C 128.018 117.723, 128.632 120.036, 129.554 121.442 C 131.732 124.766, 137.496 124.971, 141.444 121.865 C 143.887 119.944, 144.313 119.884, 145.696 121.268 C 146.874 122.446, 147.222 125.046, 147.182 132.384 C 147.153 137.652, 147.551 142.222, 148.065 142.540 C 151.311 144.546, 145.896 156, 141.702 156 C 140.713 156, 138.879 157.106, 137.626 158.459 C 136.372 159.811, 134.132 161.379, 132.648 161.944 C 129.320 163.209, 128.617 164.863, 129.934 168.328 C 130.820 170.658, 131.507 171, 135.291 171 C 138.995 171, 140.087 170.487, 142.732 167.499 C 147.520 162.090, 148.798 163.419, 148.810 173.819 C 148.820 182.341, 147.588 186, 144.708 186 C 144.168 186, 140.600 188.059, 136.779 190.576 C 129.588 195.314, 123.377 197.229, 122.069 195.111 C 121.248 193.784, 121.565 169.516, 122.592 154.992 C 123.193 146.499, 123.049 145.128, 121.240 142.153 C 119.769 139.736, 119.356 137.764, 119.732 134.960 C 120.179 131.629, 119.830 130.676, 117.202 128.048 L 114.153 124.999 117.576 117.099 C 119.459 112.754, 121 108.724, 121 108.144 C 121 107.564, 122.125 105.431, 123.500 103.405 C 124.875 101.379, 126 99.193, 126 98.548 C 126 97.903, 126.900 95.513, 128 93.236 C 129.100 90.959, 130 88.455, 130 87.671 C 130 86.887, 130.675 85.685, 131.500 85 C 133.610 83.249, 133.557 72.700, 131.429 70.571 C 129.363 68.506, 126.681 68.578, 124.769 70.750 M 48.188 127.960 C 45.561 131.513, 45.544 131.850, 47.845 134.840 C 49.322 136.761, 51.040 137.337, 57.425 138.053 C 65.141 138.919, 68 140.112, 68 142.467 C 68 144.410, 71.774 147.301, 73.463 146.653 C 75.216 145.980, 75.654 138.522, 74 137.500 C 73.450 137.160, 73 135.795, 73 134.467 C 73 132.012, 68.888 129, 65.536 129 C 64.676 129, 63.191 128.605, 62.236 128.123 C 59.694 126.838, 53.590 125, 51.867 125 C 51.047 125, 49.391 126.332, 48.188 127.960 M 77.300 173.393 C 76.230 175.256, 70.118 182.653, 66.968 185.899 C 63.986 188.970, 58 197.501, 57.999 198.680 C 57.999 199.131, 55.925 201.634, 53.389 204.241 C 49.672 208.065, 48.317 208.867, 46.390 208.383 C 44.299 207.858, 44 208.131, 44 210.563 C 44 212.092, 43.310 214.105, 42.467 215.037 C 40.676 217.016, 41.455 224.854, 43.522 225.647 C 45.299 226.329, 54 222.031, 54 220.471 C 54 219.751, 55.575 217.677, 57.500 215.861 C 59.425 214.045, 61 211.713, 61 210.677 C 61 209.641, 63.087 206.478, 65.637 203.647 C 68.187 200.816, 71.054 196.700, 72.007 194.500 C 72.961 192.300, 74.699 189.643, 75.870 188.595 C 77.111 187.485, 78 185.486, 78 183.805 C 78 182.217, 78.961 179.620, 80.135 178.032 C 82.374 175.003, 82.099 172, 79.581 172 C 78.766 172, 77.740 172.627, 77.300 173.393 M 143.653 199 C 141.774 200.650, 139.438 202, 138.462 202 C 137.487 202, 135.214 203.125, 133.411 204.500 C 131.355 206.069, 128.827 207, 126.626 207 C 124.697 207, 122.897 207.357, 122.628 207.793 C 122.358 208.230, 122.140 211.042, 122.143 214.043 C 122.157 228.678, 122.195 229.001, 123.876 228.981 C 126.200 228.953, 144.955 222.445, 146.147 221.253 C 146.697 220.703, 147.286 218.734, 147.457 216.877 C 149.619 193.425, 149.679 193.709, 143.653 199" stroke="none" fill="black" fill-rule="evenodd"/>
</svg>