<svg xmlns="http://www.w3.org/2000/svg" width="300" height="300" viewBox="0 0 300 300" version="1.1">
	<path d="M 125.500 65.433 C 114.898 67.886, 101.167 76.012, 98.481 81.422 C 96.621 85.169, 93.404 84.576, 90.302 79.913 C 86.410 74.062, 86.211 73.717, 85.622 71.797 C 85.334 70.860, 83.347 68.935, 81.206 67.518 C 77.120 64.814, 73.998 64.960, 74.002 67.857 C 74.005 69.950, 79.597 80.665, 82.521 84.178 C 83.747 85.651, 87.082 91.583, 89.931 97.361 C 94.985 107.607, 95.093 108.007, 94.304 113.655 C 93.504 119.382, 93.447 119.463, 88.998 121.099 C 83.145 123.252, 82.352 126.690, 86.953 129.967 C 89.644 131.883, 90.442 132.009, 93.490 131.003 C 97.754 129.596, 99 130.272, 99 133.994 C 99 137.610, 96.343 150.388, 95.102 152.737 C 93.513 155.747, 89 166.024, 89 166.633 C 89 166.951, 87.875 168.548, 86.500 170.182 C 85.125 171.816, 84 173.694, 84 174.354 C 84 175.772, 78.383 186.836, 76.565 189 C 75.871 189.825, 74.993 191.175, 74.613 192 C 71.759 198.193, 63.341 207.824, 59.001 209.863 C 53.427 212.482, 53.778 217.975, 59.614 219.439 C 61.815 219.992, 63.184 218.992, 70.073 211.800 C 74.433 207.248, 78 203.035, 78 202.437 C 78 201.838, 79.125 200.292, 80.500 199 C 81.875 197.708, 83 196.050, 83 195.315 C 83 194.581, 84.463 191.838, 86.250 189.221 C 90.995 182.273, 93 178.437, 93 176.308 C 93 175.272, 94.332 172.866, 95.959 170.962 C 97.587 169.058, 98.937 166.745, 98.959 165.821 C 98.982 164.898, 99.563 163.548, 100.250 162.821 C 102.193 160.767, 103.719 155.405, 105.558 144.167 C 106.941 135.715, 107.020 133.405, 105.991 131.484 C 104.272 128.271, 105.234 126.403, 108.995 125.651 C 110.737 125.303, 113.311 124.114, 114.716 123.009 C 119.836 118.981, 123.656 121.801, 122.595 128.825 C 122.141 131.830, 120.809 152.258, 120.693 158 C 120.580 163.567, 123.324 185.043, 124.462 187.500 C 125.226 189.150, 126.555 192.132, 127.415 194.128 C 129.118 198.081, 131.845 200.277, 136.500 201.442 C 141.140 202.604, 157.317 202.222, 160.579 200.873 C 162.186 200.209, 166.875 199.311, 171 198.877 C 175.125 198.444, 180.975 197.617, 184 197.039 C 187.025 196.461, 193.657 195.773, 198.737 195.511 C 203.818 195.248, 208.768 194.575, 209.737 194.017 C 210.707 193.458, 212.737 192.562, 214.250 192.025 C 215.986 191.409, 217 190.325, 217 189.084 C 217 188.003, 217.450 186.840, 218 186.500 C 219.300 185.697, 219.305 168.705, 218.007 167.407 C 217.460 166.860, 216.766 160.358, 216.464 152.957 C 215.673 133.582, 211.472 121, 205.794 121 C 203.109 121, 202.513 123.608, 204.504 126.647 C 206.950 130.380, 209.899 154.244, 209.966 170.849 C 209.999 178.848, 209.875 179.315, 207.012 181.989 C 204.236 184.582, 203.225 184.831, 192.762 185.498 C 182.496 186.153, 173.131 187.532, 161 190.175 C 158.525 190.714, 152.718 191.351, 148.096 191.591 C 138.935 192.067, 135 190.698, 135 187.036 C 135 185.981, 134.611 184.877, 134.135 184.583 C 132.579 183.622, 130.958 172.496, 130.901 162.396 C 130.871 156.953, 130.816 150.475, 130.779 148 C 130.743 145.525, 130.818 137.560, 130.947 130.299 L 131.181 117.099 134.591 114.499 C 136.466 113.068, 138 111.091, 138 110.104 C 138 108.179, 135.590 105.691, 132.750 104.683 C 130.110 103.747, 130.635 101.529, 134.250 98.342 C 138.175 94.881, 142 84.530, 142 77.368 C 142 73.108, 141.514 71.968, 138.116 68.250 C 133.996 63.743, 133.389 63.608, 125.500 65.433 M 121.690 77.061 C 119.045 78.135, 112.633 82.033, 107.440 85.724 C 97.360 92.889, 96.481 94.409, 99.750 99.027 C 101.887 102.047, 103.965 107.745, 103.985 110.643 C 104.007 113.817, 106.964 114.503, 108.852 111.772 C 109.717 110.523, 111.762 108.375, 113.396 107 C 122.950 98.962, 127.067 94.466, 127.980 91.073 C 128.519 89.074, 129.629 86.552, 130.448 85.469 C 131.267 84.386, 131.951 81.588, 131.968 79.250 C 131.998 75.260, 131.832 75.003, 129.250 75.055 C 127.737 75.085, 124.336 75.988, 121.690 77.061" stroke="none" fill="black" fill-rule="evenodd"/>
</svg>