<svg xmlns="http://www.w3.org/2000/svg" width="300" height="300" viewBox="0 0 300 300" version="1.1">
	<path d="M 115.519 19.068 C 112.780 19.526, 108.055 20.775, 105.019 21.844 C 101.984 22.913, 98.150 24.094, 96.500 24.468 C 94.850 24.843, 88.400 27.664, 82.167 30.737 C 73.915 34.805, 69.996 37.367, 67.750 40.162 C 63.940 44.902, 61.716 45.028, 59.625 40.622 C 57.852 36.887, 54.134 34, 51.094 34 C 47.865 34, 47.881 35.415, 51.181 41.615 C 52.903 44.852, 56.306 51.325, 58.742 56 C 63.672 65.461, 65.291 67.556, 66.904 66.559 C 68.506 65.569, 68.243 57.703, 66.532 55.441 C 63.014 50.790, 65.998 47.473, 81 39.353 C 91.207 33.828, 98.235 31.472, 113.331 28.514 C 128.327 25.576, 130.114 25.490, 134.050 27.526 C 137.527 29.324, 137.692 30.707, 135 35.500 C 133.900 37.458, 133 39.517, 133 40.076 C 133 40.634, 130.750 44.425, 128 48.500 C 125.250 52.575, 123 56.578, 123 57.396 C 123 60.359, 125.245 60.155, 128.619 56.885 C 132.810 52.823, 142 39.706, 142 37.787 C 142 37.024, 142.446 35.954, 142.990 35.410 C 143.535 34.865, 144.272 32.292, 144.629 29.691 C 145.373 24.265, 143.793 21.694, 138.282 19.362 C 134.766 17.874, 123.531 17.729, 115.519 19.068 M 110.500 75.323 C 109.400 76.089, 106.700 77.034, 104.500 77.422 C 102.300 77.810, 98.700 79.060, 96.500 80.200 C 94.300 81.339, 89.158 84.010, 85.074 86.136 C 80.990 88.261, 76.672 90, 75.479 90 C 72.128 90, 69.576 93.339, 70.955 95.917 C 71.569 97.063, 72.932 98, 73.986 98 C 77.564 98, 86.486 95.787, 90 94.028 C 91.925 93.065, 96.116 91.456, 99.313 90.454 C 102.511 89.452, 105.564 87.815, 106.098 86.816 C 106.658 85.771, 108.223 84.980, 109.785 84.952 C 113.190 84.892, 118.971 82.060, 120.404 79.750 C 122.972 75.611, 115.123 72.103, 110.500 75.323 M 97.280 96.250 C 96.142 97.487, 94.365 100.075, 93.331 102 C 90.960 106.414, 88.369 110.373, 84.402 115.640 C 82.688 117.917, 80.334 121.744, 79.172 124.144 C 78.010 126.545, 73.559 132.557, 69.280 137.504 C 65.001 142.452, 60.161 148.300, 58.524 150.500 C 56.888 152.700, 52.275 157.847, 48.274 161.938 C 42.804 167.531, 41 170.058, 41 172.129 C 41 173.643, 40.550 175.160, 40 175.500 C 38.510 176.421, 38.792 180.582, 40.436 181.947 C 42.368 183.550, 45.516 181.836, 47.428 178.139 C 48.809 175.469, 58.102 164.363, 63.475 158.962 C 64.864 157.567, 66 155.706, 66 154.827 C 66 153.949, 67.125 152.493, 68.500 151.592 C 69.875 150.691, 71 149.060, 71 147.967 C 71 146.874, 71.940 145.197, 73.089 144.240 C 74.238 143.283, 76.570 140.475, 78.273 138 C 82 132.581, 82.724 132.035, 86.201 132.015 C 93.893 131.972, 104.837 136.709, 110.750 142.640 C 113.775 145.675, 115.155 150, 113.099 150 C 111.998 150, 108 156.606, 108 158.425 C 108 160.140, 98.237 178.818, 93.587 186 C 92.340 187.925, 90.545 190.765, 89.597 192.311 C 87.055 196.458, 83.600 195.699, 83.199 190.906 C 82.956 188.006, 83.584 186.490, 86.449 183.061 C 88.402 180.723, 90 178.257, 90 177.580 C 90 176.903, 91.170 175.258, 92.599 173.924 C 94.028 172.591, 96.290 169.475, 97.626 167 C 98.961 164.525, 100.908 161.150, 101.954 159.500 C 102.999 157.850, 103.887 155.694, 103.927 154.710 C 103.967 153.725, 104.967 151.611, 106.149 150.012 C 108.172 147.277, 108.203 146.958, 106.676 144.628 C 104.445 141.224, 101.328 140.394, 98.928 142.565 C 97.868 143.525, 97 144.940, 97 145.710 C 97 147.800, 93.311 155.497, 91.648 156.877 C 90.849 157.540, 89.904 159.246, 89.547 160.668 C 89.190 162.090, 87.459 165.207, 85.699 167.596 C 83.940 169.985, 81.227 173.978, 79.672 176.470 C 78.116 178.961, 76.172 181, 75.352 181 C 74.532 181, 71.854 179.619, 69.401 177.932 C 66.949 176.245, 64.168 175.012, 63.221 175.192 C 61.218 175.574, 60.331 179.731, 61.915 181.315 C 62.512 181.912, 63 183.158, 63 184.085 C 63 185.012, 64.125 186.507, 65.500 187.408 C 68.659 189.478, 68.631 190.288, 65.250 194.816 C 55.738 207.556, 51.802 211.989, 37.741 225.806 C 33.102 230.364, 33.068 233.361, 37.649 233.806 C 41.975 234.226, 47.824 231.593, 48.910 228.736 C 49.404 227.438, 51.538 224.866, 53.654 223.020 C 55.769 221.173, 58.225 217.826, 59.112 215.581 C 60.066 213.165, 61.800 210.968, 63.362 210.195 C 64.813 209.478, 66 208.256, 66 207.481 C 66 206.705, 66.922 205.577, 68.048 204.974 C 69.174 204.372, 70.517 202.769, 71.033 201.414 C 72.394 197.833, 74.950 197.220, 77.156 199.944 C 80.072 203.545, 79.502 208.190, 75.500 213.432 C 73.575 215.954, 72 218.230, 72 218.489 C 72 218.749, 70.312 221.514, 68.250 224.634 C 66.188 227.755, 63.487 232.110, 62.249 234.312 C 61.012 236.515, 58.266 240.608, 56.148 243.408 C 54.030 246.209, 49.874 252.213, 46.911 256.750 C 43.948 261.288, 40.926 265, 40.196 265 C 39.336 265, 38.979 265.971, 39.184 267.750 C 39.443 270.008, 40.053 270.554, 42.592 270.802 C 45.124 271.049, 46.165 270.472, 48.342 267.618 C 49.804 265.702, 51 263.679, 51 263.123 C 51 262.568, 52.379 261.300, 54.065 260.307 C 56.822 258.682, 59.197 255.613, 65.500 245.528 C 66.600 243.768, 68.737 240.463, 70.250 238.184 C 71.763 235.905, 73 233.161, 73 232.087 C 73 230.068, 76.216 228.397, 77.991 229.494 C 78.546 229.837, 79 230.901, 79 231.859 C 79 232.817, 79.384 234.027, 79.853 234.550 C 80.321 235.072, 81.283 237.750, 81.989 240.500 C 83.110 244.868, 88.258 253.722, 93.752 260.730 C 94.713 261.957, 96.925 263.243, 98.668 263.589 C 101.455 264.142, 102.358 263.694, 106.189 259.859 C 108.583 257.461, 111.386 253.700, 112.417 251.500 C 113.449 249.300, 115.577 245.619, 117.147 243.320 C 118.716 241.021, 120 238.542, 120 237.812 C 120 237.082, 121.044 234.463, 122.319 231.992 C 123.595 229.521, 125.133 225.700, 125.736 223.500 C 126.340 221.300, 128.271 214.889, 130.028 209.254 C 132.774 200.450, 133.234 197.454, 133.295 187.974 C 133.388 173.798, 133.977 173.180, 142 178.837 C 145.246 181.127, 148.647 183, 149.557 183 C 150.467 183, 152.097 184.125, 153.179 185.500 C 154.260 186.875, 155.732 188, 156.450 188 C 157.168 188, 158.308 188.666, 158.983 189.479 C 159.658 190.293, 161.401 191.569, 162.855 192.316 C 171.130 196.563, 174.371 199.084, 182.750 207.789 C 187.838 213.075, 192 217.872, 192 218.450 C 192.001 219.027, 194.251 221.437, 197 223.805 C 199.750 226.173, 202.018 228.873, 202.041 229.805 C 202.063 230.737, 203.370 233.007, 204.946 234.849 C 207.708 238.078, 207.935 238.153, 211.282 236.943 C 214.483 235.785, 218 231.684, 218 229.109 C 218 228.514, 216.486 227.394, 214.635 226.621 C 212.557 225.752, 211.040 224.295, 210.667 222.808 C 210.304 221.362, 208.652 219.727, 206.531 218.716 C 204.309 217.657, 203 216.324, 203 215.122 C 203 213.254, 201.687 211.741, 192.841 203.414 C 186.811 197.737, 174.553 187.940, 170.169 185.292 C 168.159 184.077, 164.402 181.265, 161.821 179.042 C 159.240 176.819, 156.513 175, 155.760 175 C 153.854 175, 145.157 169.429, 141.250 165.705 C 136.901 161.560, 136.967 158.097, 141.500 152.565 C 143.425 150.216, 145 147.539, 145 146.616 C 145 145.694, 146.525 143.600, 148.389 141.963 C 150.253 140.327, 152.482 137.503, 153.343 135.689 C 154.204 133.874, 156.279 130.665, 157.954 128.557 C 161.579 123.997, 161.978 119.594, 158.917 117.955 C 157.243 117.060, 156.434 117.200, 154.802 118.670 C 153.685 119.677, 152.373 121.400, 151.888 122.500 C 150.475 125.700, 149.015 127.757, 139.633 139.762 C 132.730 148.595, 130.302 151.041, 128.674 150.804 C 127.467 150.629, 126.353 149.538, 126.041 148.226 C 125.257 144.930, 115.138 134.987, 108.226 130.721 C 104.029 128.130, 100.596 126.852, 96.552 126.377 C 89.804 125.584, 88.700 124.001, 92.236 120.190 C 95.425 116.753, 101 106.452, 101 103.997 C 101 102.964, 101.396 101.873, 101.881 101.574 C 103.276 100.711, 103.808 96.208, 102.651 95.051 C 101.046 93.446, 99.551 93.780, 97.280 96.250 M 228 115.941 C 228 117.009, 228.399 118.129, 228.887 118.430 C 230.105 119.183, 232.325 116.335, 231.527 115.044 C 230.432 113.273, 228 113.891, 228 115.941 M 116.713 161.621 C 116.321 162.013, 116 163.321, 116 164.527 C 116 165.734, 114.858 168.404, 113.462 170.461 C 112.066 172.518, 109.363 177.193, 107.455 180.850 C 103.283 188.846, 101.370 192.121, 97.534 197.833 C 94.915 201.733, 94.742 202.477, 95.796 205.272 C 96.776 207.867, 96.699 208.675, 95.329 210.189 C 94.428 211.185, 92.433 212, 90.896 212 C 85.036 212, 79.520 221.697, 83.500 225 C 84.325 225.685, 85.010 226.977, 85.022 227.872 C 85.034 228.768, 85.924 230.625, 87 232 C 88.106 233.414, 88.965 236.076, 88.978 238.128 C 88.990 240.123, 89.636 242.283, 90.414 242.928 C 91.191 243.574, 92.769 246.104, 93.919 248.551 C 96.411 253.853, 99.415 254.544, 101.310 250.250 C 101.977 248.738, 103.643 245.700, 105.012 243.500 C 106.380 241.300, 108.694 237.025, 110.152 234 C 111.611 230.975, 113.810 226.475, 115.039 224 C 116.268 221.525, 117.687 217.700, 118.191 215.500 C 120.642 204.821, 121.227 201.785, 122.626 192.500 C 123.631 185.834, 123.892 180.166, 123.410 175.500 C 123.012 171.650, 122.641 166.925, 122.587 165 C 122.503 162.032, 122.103 161.455, 119.956 161.204 C 118.564 161.041, 117.104 161.229, 116.713 161.621" stroke="none" fill="black" fill-rule="evenodd"/>
</svg>