<svg xmlns="http://www.w3.org/2000/svg" width="300" height="300" viewBox="0 0 300 300" version="1.1">
	<path d="M 134.751 12.250 C 134.038 13.488, 132.978 15.381, 132.395 16.458 C 131.812 17.535, 129.797 18.807, 127.918 19.286 C 126.038 19.765, 124.073 20.571, 123.550 21.078 C 123.027 21.585, 121.821 22, 120.868 22 C 119.916 22, 118.127 23.418, 116.893 25.151 L 114.649 28.301 117.449 30.710 C 119.234 32.245, 120.838 32.864, 121.875 32.418 C 127.959 29.795, 132.577 31.464, 131.630 35.943 C 131.333 37.349, 130.681 40.525, 130.182 43 C 128.863 49.538, 127.368 52.732, 125.048 53.974 C 122.289 55.451, 122.261 61.261, 125 64 C 127.504 66.504, 128.544 66.504, 131.727 64 C 133.126 62.900, 134.902 62, 135.675 62 C 136.448 62, 138.300 61.142, 139.790 60.093 C 141.281 59.045, 144.169 57.903, 146.209 57.556 C 148.757 57.122, 150.585 55.987, 152.052 53.927 C 154.048 51.123, 154.091 50.690, 152.711 47.215 C 150.875 42.593, 148.280 42.052, 144.244 45.449 C 140.421 48.665, 138.533 48.783, 139.437 45.750 C 139.806 44.513, 140.568 40.575, 141.132 37 C 142.825 26.258, 143.118 25.671, 147.400 24.470 C 153.993 22.620, 157.117 16.345, 152.794 13.635 C 151.557 12.859, 150.091 12.927, 147.452 13.881 C 144.024 15.121, 143.658 15.047, 141.103 12.598 C 137.777 9.413, 136.427 9.338, 134.751 12.250 M 67.462 48.681 C 66.180 49.963, 65.913 51.447, 66.336 54.931 C 66.903 59.596, 65.500 70.108, 63.892 73.236 C 63.402 74.191, 63 75.682, 63 76.549 C 63 78.463, 60.213 87.831, 58.928 90.236 C 58.418 91.191, 58 93.119, 58 94.520 C 58 95.920, 56.956 99.189, 55.680 101.783 C 54.405 104.377, 52.783 108.525, 52.078 111 C 51.372 113.475, 50.166 116.694, 49.398 118.154 C 48.629 119.614, 48 121.773, 48 122.953 C 48 124.132, 47.065 126.987, 45.922 129.298 C 44.779 131.609, 43.181 135.975, 42.370 139 C 41.560 142.025, 40.470 144.928, 39.948 145.450 C 39.427 145.973, 39 147.408, 39 148.641 C 39 149.874, 38.608 151.124, 38.129 151.420 C 37.650 151.716, 36.985 153.327, 36.650 154.999 C 36.316 156.672, 34.943 160.394, 33.599 163.270 C 32.255 166.147, 29.939 171.096, 28.451 174.269 C 26.964 177.443, 25.353 180.282, 24.873 180.578 C 22.903 181.796, 24.114 185.708, 27.157 187.958 C 30.947 190.760, 32.044 190.282, 36.998 183.669 C 40.810 178.581, 42.579 178.029, 46.055 180.844 C 48.015 182.431, 48.373 183.776, 48.627 190.504 C 48.789 194.804, 49.389 198.789, 49.961 199.361 C 50.532 199.932, 51 201.582, 51 203.026 C 51 205.915, 54.678 210, 57.279 210 C 58.187 210, 59.395 209.130, 59.965 208.066 C 61.291 205.587, 61.320 191.316, 60 190.500 C 59.450 190.160, 59 187.726, 59 185.091 C 59 181.352, 58.340 179.388, 55.991 176.146 C 53.477 172.676, 46.399 167.170, 42.500 165.651 C 41.872 165.406, 41.966 164.473, 42.750 163.144 C 43.438 161.980, 44 160.494, 44 159.842 C 44 159.191, 44.594 157.947, 45.321 157.079 C 46.047 156.210, 47.425 152.057, 48.383 147.849 C 49.414 143.316, 50.914 139.483, 52.062 138.444 C 53.128 137.479, 54 135.854, 54 134.831 C 54 133.809, 54.412 132.191, 54.915 131.236 C 55.419 130.281, 56.811 126.125, 58.009 122 C 59.207 117.875, 61.045 112.670, 62.094 110.434 C 63.142 108.198, 64 106.056, 64 105.673 C 64 105.291, 64.850 103.071, 65.888 100.739 C 66.927 98.408, 68.747 93.125, 69.932 89 C 71.117 84.875, 72.553 80.150, 73.123 78.500 C 76.622 68.373, 78.654 56.254, 77.113 54.713 C 76.501 54.101, 76 52.655, 76 51.500 C 76 47.146, 70.735 45.407, 67.462 48.681 M 165.891 61.332 C 163.906 61.974, 161.656 63.007, 160.891 63.628 C 160.126 64.248, 158.375 65.094, 157 65.509 C 155.625 65.923, 153.306 67.103, 151.846 68.131 C 150.386 69.159, 148.619 70, 147.921 70 C 147.222 70, 141.216 72.676, 134.575 75.947 C 127.934 79.218, 119.125 82.856, 115 84.032 C 110.875 85.208, 105.685 86.807, 103.467 87.585 C 101.248 88.363, 98.311 89, 96.939 89 C 92.861 89, 90 91.659, 90 95.448 C 90 100.006, 92.731 100.536, 102.649 97.902 C 106.967 96.755, 111.723 95.584, 113.218 95.300 C 114.713 95.015, 116.455 94.156, 117.090 93.391 C 117.725 92.626, 119.019 92, 119.966 92 C 122.801 92, 133.303 88.109, 136.210 85.983 C 137.700 84.892, 139.557 84, 140.337 84 C 141.117 84, 142.268 83.382, 142.895 82.627 C 143.521 81.872, 146.839 80.469, 150.267 79.510 C 153.695 78.551, 157.694 76.919, 159.154 75.883 C 165.519 71.368, 167.743 75.036, 162.512 81.420 C 158.334 86.519, 158.264 89.026, 162.270 90.097 C 164.446 90.679, 165.678 90.301, 168.020 88.330 C 169.659 86.951, 171 85.201, 171 84.441 C 171 83.681, 172.325 82.080, 173.945 80.882 C 176.381 79.082, 176.791 78.203, 176.312 75.808 C 175.939 73.947, 176.390 71.690, 177.573 69.495 C 179.002 66.841, 179.195 65.454, 178.438 63.289 C 177.608 60.915, 176.870 60.475, 173.481 60.332 C 171.292 60.239, 167.876 60.689, 165.891 61.332 M 136 100.029 C 131.875 102.153, 127.825 103.934, 127 103.986 C 126.175 104.039, 122.575 105.113, 119 106.373 C 113.353 108.364, 112.458 109.023, 112.178 111.393 C 111.632 116.011, 113.533 117.190, 120.934 116.824 L 127.500 116.500 127.797 121.596 C 128.081 126.468, 127.928 126.815, 124.297 129.513 C 118.234 134.019, 116.076 137.085, 116.036 141.250 C 116.007 144.293, 116.362 145, 117.918 145 C 118.973 145, 120.480 145.247, 121.266 145.549 C 122.053 145.851, 123.777 144.958, 125.098 143.566 C 126.419 142.174, 127.915 141.027, 128.421 141.017 C 128.928 141.008, 130.112 140.303, 131.053 139.452 C 131.994 138.601, 135.140 137.704, 138.044 137.460 C 147.289 136.683, 149.458 132.352, 143.500 126.566 C 140.669 123.817, 140 122.415, 140 119.233 C 140 113.273, 141.703 109.574, 146.055 106.076 C 150.107 102.820, 151.126 99.526, 148.800 97.200 C 146.876 95.276, 143.992 95.914, 136 100.029 M 201.500 137.074 C 199.300 137.533, 194.800 138.320, 191.500 138.823 C 183.769 140.002, 162.530 145.589, 158 147.636 C 156.075 148.506, 153.150 149.883, 151.500 150.696 C 149.850 151.509, 145.841 153.039, 142.592 154.096 C 139.342 155.153, 136.192 156.412, 135.592 156.894 C 134.541 157.738, 127.874 160.554, 119.500 163.693 C 117.300 164.517, 113.575 166.048, 111.223 167.096 C 108.871 168.143, 105.890 169, 104.598 169 C 103.306 169, 99.830 170.051, 96.874 171.336 C 93.918 172.622, 89.250 174.270, 86.500 174.999 C 83.750 175.728, 80.306 177.152, 78.846 178.162 C 77.386 179.173, 75.333 180, 74.284 180 C 69.085 180, 66.041 187.918, 69.898 191.408 C 71.702 193.040, 72.052 192.992, 76.907 190.454 C 79.717 188.984, 82.243 187.415, 82.520 186.968 C 82.797 186.520, 84.480 185.847, 86.261 185.471 C 88.043 185.096, 90.850 184.220, 92.500 183.524 C 94.150 182.828, 97.525 181.672, 100 180.954 C 102.475 180.236, 105.400 179.188, 106.500 178.626 C 109.079 177.309, 120.580 173.164, 124.633 172.092 C 126.356 171.636, 129.281 170.487, 131.133 169.538 C 132.985 168.589, 136.750 167.001, 139.500 166.009 C 152.604 161.280, 162.032 157.281, 163.758 155.719 C 167.680 152.169, 167.881 152.748, 168.345 168.911 L 168.500 174.321 163.500 176.979 C 160.750 178.441, 156.475 180.701, 154 182.001 C 147.500 185.415, 140 191.880, 140 194.070 C 140 195.106, 141.089 196.668, 142.420 197.540 C 144.705 199.037, 145.084 198.969, 149.170 196.338 C 155.760 192.096, 158.040 191, 160.270 191 C 161.393 191, 163.786 189.875, 165.589 188.500 C 167.392 187.125, 169.338 186, 169.914 186 C 171.456 186, 172.326 190.530, 171.693 195.255 C 171.388 197.529, 171.579 200.213, 172.117 201.219 C 173.763 204.294, 173.248 245.140, 171.238 271 C 170.581 279.455, 170.280 280.529, 168.500 280.766 C 166.256 281.064, 162 275.378, 162 272.082 C 162 269.524, 156.461 265.445, 155.374 267.203 C 152.995 271.054, 157.906 283.693, 164.040 289.505 C 165.779 291.152, 167.595 293.512, 168.076 294.750 C 168.704 296.366, 169.769 297, 171.853 297 C 175.404 297, 177.434 294.741, 177.593 290.613 C 177.659 288.901, 178.413 284.350, 179.269 280.500 C 180.672 274.189, 181.393 260.118, 182.241 222.500 C 182.353 217.550, 182.112 206.398, 181.706 197.717 L 180.967 181.935 183.630 179.467 C 185.094 178.110, 186.846 177, 187.524 177 C 188.201 177, 189.315 176.325, 190 175.500 C 190.790 174.548, 192.997 174, 196.038 174 C 200.413 174, 201.101 173.660, 203.912 170.112 C 206.889 166.352, 206.943 166.108, 205.538 162.745 C 203.550 157.986, 198.800 156.899, 195.067 160.349 C 191.541 163.608, 181.684 168.200, 179.783 167.470 C 178.926 167.141, 177.954 165.522, 177.624 163.871 C 177.294 162.221, 175.669 159.515, 174.012 157.858 C 170.403 154.249, 170.220 153, 173.300 153 C 174.565 153, 176.098 152.502, 176.708 151.892 C 177.317 151.283, 182.919 150.340, 189.158 149.796 C 195.396 149.253, 202.008 148.670, 203.852 148.502 C 207.846 148.137, 208.750 147.358, 209.923 143.270 C 210.572 141.005, 210.418 139.614, 209.348 138.087 C 207.777 135.843, 207.547 135.813, 201.500 137.074 M 119.500 189 C 119.160 189.550, 117.896 190.020, 116.691 190.045 C 113.420 190.113, 105.989 197.881, 105.721 201.513 C 105.507 204.408, 105.631 204.497, 109.762 204.413 C 112.793 204.351, 114.757 203.638, 116.557 201.946 C 118.510 200.112, 119.467 199.805, 120.735 200.605 C 123.620 202.424, 123.189 203.558, 117.225 209.845 C 111.535 215.844, 108 217.601, 108 214.433 C 108 212.356, 98.354 201.418, 94.290 198.886 C 91.748 197.302, 90.656 197.114, 89.040 197.978 C 85.764 199.732, 86.456 203.775, 90.750 207.975 C 98.897 215.944, 101 219.232, 101 224 C 101 229.302, 102.502 230.986, 106.899 230.613 C 110.779 230.284, 115.753 227.204, 119.521 222.797 C 132.582 207.522, 133 206.829, 133 200.460 C 133 194, 128.413 188, 123.475 188 C 121.629 188, 119.840 188.450, 119.500 189 M 136.200 211.200 C 132.972 214.428, 135.984 219.920, 141 219.953 C 143.129 219.966, 146.830 221.469, 156.236 226.138 C 158.521 227.272, 162.733 227.241, 163.448 226.084 C 164.272 224.751, 162.211 219.868, 159.683 217.164 C 154.416 211.528, 139.627 207.773, 136.200 211.200" stroke="none" fill="black" fill-rule="evenodd"/>
</svg>