<svg xmlns="http://www.w3.org/2000/svg" width="300" height="300" viewBox="0 0 300 300" version="1.1">
	<path d="M 125.500 16.027 C 123.850 16.480, 119.800 17.387, 116.500 18.044 C 111.424 19.055, 101.595 22.928, 96 26.124 C 92.160 28.317, 81.593 33, 80.484 33 C 79.803 33, 78.685 33.675, 78 34.500 C 77.315 35.325, 76.066 36, 75.224 36 C 73.859 36, 64.129 41.190, 59.886 44.181 C 57.369 45.954, 55 44.460, 55 41.099 C 55 37.144, 49.805 33.087, 47.349 35.125 C 44.589 37.416, 47.465 54.315, 50.985 56.491 C 51.543 56.836, 52 59.319, 52 62.008 C 52 66.419, 52.342 67.159, 55.490 69.560 C 60.195 73.149, 62.446 72.289, 61.562 67.240 C 59.461 55.237, 59.349 55.759, 64.807 52.222 C 67.945 50.189, 71.042 49, 73.203 49 C 75.670 49, 77.397 48.195, 79.389 46.116 C 81.090 44.341, 83.630 42.995, 85.992 42.617 C 88.104 42.279, 89.983 41.650, 90.166 41.219 C 90.662 40.054, 97.900 36, 99.484 36 C 100.238 36, 103.925 34.369, 107.677 32.376 C 114.678 28.656, 119.241 27.210, 126.842 26.303 C 131.903 25.698, 132.849 26.396, 134.022 31.599 C 134.969 35.795, 133.998 38.002, 127.276 46.934 C 124.393 50.764, 124.132 51.561, 125.359 52.788 C 128.561 55.989, 135.744 52.132, 140.953 44.414 C 143.630 40.448, 144 39.048, 144 32.891 C 144 26.518, 143.713 25.525, 140.833 21.941 C 139.091 19.774, 137.121 18, 136.455 18 C 135.789 18, 134.685 17.325, 134 16.500 C 132.651 14.875, 130.198 14.738, 125.500 16.027 M 89.810 60.250 C 88.868 60.999, 87.975 63.898, 87.583 67.480 C 87.223 70.769, 86.270 74.466, 85.464 75.695 C 84.659 76.924, 84 78.870, 84 80.019 C 84 81.168, 82.650 84.534, 81 87.500 C 79.350 90.466, 78 93.575, 78 94.410 C 78 95.246, 76.794 98.083, 75.320 100.715 C 73.845 103.347, 72.157 106.400, 71.568 107.500 C 69.692 111.005, 64.225 118.568, 62.584 119.930 C 61.713 120.653, 61 122.178, 61 123.318 C 61 124.458, 59.806 126.636, 58.348 128.159 C 56.132 130.471, 55.905 131.181, 56.970 132.464 C 57.671 133.309, 59.112 134, 60.172 134 C 62.583 134, 68 131.259, 68 130.039 C 68 129.539, 70.475 126.741, 73.500 123.821 C 76.525 120.901, 79 117.785, 79 116.896 C 79 116.007, 80.013 113.754, 81.250 111.890 C 82.487 110.025, 84.092 106.700, 84.816 104.500 C 85.540 102.300, 86.543 99.600, 87.045 98.500 C 87.548 97.400, 88.415 95.242, 88.972 93.703 C 89.887 91.181, 90.319 90.969, 93.388 91.545 C 95.259 91.896, 97.624 91.755, 98.645 91.232 C 99.665 90.710, 101.963 90.005, 103.750 89.666 L 107 89.050 107 93.681 C 107 97.079, 106.335 99.183, 104.500 101.589 C 103.125 103.392, 102 105.415, 102 106.085 C 102 107.304, 98.376 112.531, 92.250 120.148 C 90.463 122.371, 89 124.562, 89 125.018 C 89 125.474, 87.819 127.250, 86.376 128.966 C 84.932 130.681, 83.920 132.227, 84.126 132.400 C 84.332 132.574, 86.170 132.508, 88.212 132.253 C 90.697 131.943, 92.899 130.750, 94.872 128.645 C 102.001 121.039, 110 111.737, 110 111.052 C 110 110.642, 110.843 109.334, 111.872 108.147 C 114.809 104.761, 118.812 92.138, 119.173 85.128 L 119.500 78.757 115 77.388 C 110.880 76.134, 110.035 76.200, 105 78.167 C 101.975 79.348, 98.521 81.191, 97.324 82.262 C 94.266 84.999, 92.606 83.663, 94.504 79.993 C 95.327 78.401, 96 75.081, 96 72.615 C 96 70.148, 96.418 67.030, 96.929 65.686 C 98.714 60.993, 93.696 57.161, 89.810 60.250 M 133.875 117.458 C 133.623 117.711, 130.960 118.580, 127.958 119.391 C 122.043 120.989, 108.597 126.848, 89.195 136.281 C 78.015 141.717, 71 146.650, 71 149.077 C 71 149.585, 69.875 150, 68.500 150 C 67.125 150, 66 149.594, 66 149.099 C 66 147.995, 59.392 144, 57.565 144 C 56.839 144, 55.685 144.675, 55.001 145.499 C 53.153 147.726, 55.313 152.113, 60.184 156.028 C 62.400 157.809, 64.865 160.825, 65.661 162.731 C 67.095 166.163, 70.903 170.340, 74.216 172.114 C 75.573 172.842, 76.257 172.404, 77.490 170.019 C 78.908 167.278, 78.903 166.782, 77.438 164.546 C 76.552 163.194, 76.093 161.659, 76.417 161.134 C 77.302 159.702, 75.980 157, 74.393 157 C 73.627 157, 73.035 156.213, 73.079 155.250 C 73.134 154.029, 77.289 151.447, 86.829 146.705 C 94.348 142.967, 101.036 139.930, 101.691 139.955 C 104.154 140.048, 104.023 142.170, 101.178 148.243 C 99.566 151.684, 97.960 155.729, 97.609 157.232 C 97.208 158.949, 95.770 160.570, 93.736 161.598 C 88.782 164.101, 80.191 170.774, 78.959 173.077 C 77.562 175.687, 80.093 180, 83.023 180 C 85.467 180, 85.555 181.974, 83.250 185.115 C 82.288 186.427, 80.663 189.300, 79.640 191.500 C 78.617 193.700, 77.382 196.175, 76.896 197 C 74.326 201.363, 67.451 214.770, 66.898 216.500 C 66.545 217.600, 65.074 221.059, 63.629 224.186 C 62.183 227.313, 61 230.286, 61 230.792 C 61 231.298, 59.386 233.826, 57.413 236.410 C 55.348 239.115, 54.072 241.745, 54.404 242.611 C 54.722 243.439, 54.086 245.872, 52.991 248.018 C 51.896 250.164, 51 252.477, 51 253.156 C 51 253.836, 49.849 256.053, 48.442 258.083 C 46.296 261.180, 46.024 262.316, 46.750 265.137 C 47.437 267.808, 48.188 268.567, 50.396 268.825 C 53.750 269.217, 57 266.580, 57 263.467 C 57 262.245, 57.675 260.685, 58.500 260 C 59.325 259.315, 60 258.092, 60 257.282 C 60 256.472, 60.841 254.614, 61.869 253.154 C 62.897 251.694, 64.936 246.900, 66.401 242.500 C 67.865 238.100, 69.724 233.306, 70.532 231.846 C 71.339 230.386, 72 228.275, 72 227.155 C 72 226.035, 72.450 224.840, 73 224.500 C 73.550 224.160, 74 223.073, 74 222.085 C 74 221.096, 75.491 218.310, 77.313 215.894 C 79.135 213.477, 81.663 208.912, 82.929 205.750 C 84.196 202.588, 85.527 200, 85.887 200 C 86.247 200, 87.657 197.863, 89.021 195.250 C 90.384 192.637, 92.734 188.865, 94.242 186.866 C 95.750 184.867, 98.701 179.917, 100.799 175.866 C 104.086 169.517, 105.019 168.455, 107.556 168.173 C 109.175 167.993, 110.928 167.431, 111.450 166.923 C 112.687 165.722, 116 165.729, 116 166.933 C 116 167.446, 115.056 168.165, 113.902 168.531 C 112.167 169.082, 111.941 169.655, 112.597 171.848 C 113.034 173.307, 113.469 185.750, 113.566 199.500 C 113.738 223.951, 114.381 232.499, 116.131 233.581 C 116.609 233.876, 117.002 235.104, 117.005 236.309 C 117.012 239.807, 122.695 244.927, 130.649 248.601 C 137.592 251.808, 138.624 252, 148.898 252 C 154.888 252, 164.223 251.552, 169.644 251.003 C 175.065 250.455, 184 249.848, 189.500 249.654 C 195 249.460, 200.252 248.974, 201.172 248.574 C 202.091 248.173, 203.749 248.331, 204.856 248.923 C 207.264 250.211, 214.660 250.358, 215.418 249.133 C 215.713 248.656, 219.342 248.049, 223.483 247.783 C 231.116 247.293, 235 245.447, 235 242.310 C 235 241.551, 235.714 239.840, 236.586 238.509 C 237.459 237.177, 237.870 235.598, 237.500 235 C 237.130 234.402, 237.255 233.370, 237.777 232.706 C 239.255 230.828, 239.923 219.044, 238.865 213.500 C 238.340 210.750, 237.672 207.150, 237.382 205.500 C 237.091 203.850, 236.234 201.150, 235.479 199.500 C 234.724 197.850, 232.960 193.948, 231.561 190.829 C 230.161 187.710, 227.827 184.222, 226.373 183.079 C 221.921 179.577, 217.021 180.899, 221.024 184.521 C 222.111 185.505, 223 186.902, 223 187.625 C 223 188.348, 223.896 190.534, 224.990 192.483 C 226.085 194.432, 227.273 197.933, 227.629 200.263 C 227.986 202.593, 228.812 205.625, 229.464 207 C 230.116 208.375, 230.740 211.013, 230.849 212.861 C 230.959 214.710, 231.489 217.045, 232.027 218.051 C 232.698 219.305, 232.551 221.627, 231.558 225.439 C 229.467 233.468, 227.929 236.113, 224.123 238.226 C 221.030 239.944, 217.333 240.150, 180.033 240.681 C 135.643 241.313, 135.195 241.270, 128.700 235.737 C 123.147 231.007, 122.044 223.589, 122.942 197 C 123.262 187.522, 122.194 174.613, 120.543 168 C 120.069 166.101, 120.649 164.659, 122.957 162 C 124.628 160.075, 125.996 157.907, 125.998 157.183 C 125.999 156.458, 127.584 154.208, 129.521 152.183 C 131.457 150.157, 134.249 147.230, 135.725 145.678 C 138.707 142.542, 143.928 131.635, 143.972 128.450 C 143.987 127.323, 144.517 125.883, 145.150 125.250 C 146.776 123.624, 140.046 117, 136.767 117 C 135.428 117, 134.127 117.206, 133.875 117.458 M 128.559 128.532 C 127.491 129.339, 125.086 130, 123.213 130 C 120.195 130, 114.218 132.537, 113.870 133.966 C 113.798 134.260, 113.662 136.525, 113.568 139 C 113.474 141.475, 112.568 146.098, 111.555 149.273 C 109.588 155.433, 109.781 156.524, 112.675 155.599 C 116.595 154.345, 128.982 140.766, 132.397 133.978 C 135.309 128.189, 133.119 125.082, 128.559 128.532 M 153.027 189.467 C 151.465 191.349, 154.416 199.639, 157.257 201.350 C 158.307 201.983, 160.032 204.175, 161.089 206.222 C 163.552 210.989, 168.818 217, 170.532 217 C 172.625 217, 175 214.079, 175 211.505 C 175 210.212, 173.875 207.816, 172.500 206.182 C 171.125 204.548, 170 202.478, 170 201.581 C 170 200.684, 168.875 199.523, 167.500 199 C 166.125 198.477, 164.984 197.476, 164.964 196.775 C 164.886 194.011, 158.189 188, 155.188 188 C 154.669 188, 153.697 188.660, 153.027 189.467" stroke="none" fill="black" fill-rule="evenodd"/>
</svg>