<svg xmlns="http://www.w3.org/2000/svg" width="300" height="300" viewBox="0 0 300 300" version="1.1">
	<path d="M 188.750 35.080 C 186.743 36.249, 186.493 42.738, 188.100 52 C 188.624 55.025, 189.311 63.125, 189.625 70 C 189.940 76.875, 190.542 82.950, 190.964 83.500 C 191.386 84.050, 192.038 89.449, 192.413 95.498 C 192.788 101.546, 193.524 106.924, 194.048 107.448 C 194.571 107.971, 195 110.920, 195 114 C 195 117.080, 195.408 120.027, 195.907 120.550 C 197.060 121.758, 199.057 151.960, 199.425 173.775 C 199.831 197.781, 198.293 250.530, 196.999 257 C 196.394 260.025, 195.642 263.850, 195.328 265.500 C 195.014 267.150, 194.183 269.175, 193.481 270 C 192.780 270.825, 192.041 272.400, 191.840 273.500 C 191.576 274.938, 190.684 275.500, 188.667 275.500 C 186.158 275.500, 185.575 274.812, 183.153 269 C 181.105 264.082, 179.905 262.422, 178.223 262.180 C 176.373 261.915, 176.003 262.334, 176.015 264.680 C 176.031 267.574, 178.091 274.425, 179.315 275.648 C 179.692 276.025, 180 277.318, 180 278.521 C 180 279.724, 181.144 281.943, 182.543 283.452 C 184.577 285.646, 185.627 286.060, 187.793 285.520 C 189.282 285.148, 191.210 284.204, 192.079 283.422 C 192.947 282.640, 194.404 282, 195.317 282 C 197.772 282, 200.946 278.967, 202.615 275.025 C 203.938 271.898, 204.637 265.760, 205.415 250.419 C 205.557 247.624, 205.967 244.862, 206.326 244.281 C 207.873 241.779, 208.696 178.970, 207.516 153.500 C 207.160 145.800, 206.740 136.350, 206.583 132.500 C 206.426 128.650, 205.796 122.575, 205.182 119 C 204.569 115.425, 203.824 108.527, 203.527 103.672 C 203.230 98.816, 202.591 94.091, 202.108 93.172 C 201.060 91.178, 199.912 81.654, 199.798 74 C 199.752 70.975, 199.391 68.050, 198.994 67.500 C 198.598 66.950, 197.996 61.775, 197.657 56 C 196.659 39.019, 196.111 36.372, 193.331 35.105 C 190.483 33.807, 190.931 33.810, 188.750 35.080 M 108.322 64.478 C 103.751 69.049, 104.162 71.500, 109.502 71.500 C 112.911 71.500, 113.652 71.913, 114.883 74.500 C 115.668 76.150, 116.691 77.650, 117.155 77.833 C 117.620 78.017, 118 79.003, 118 80.024 C 118 81.046, 118.450 82.160, 119 82.500 C 119.550 82.840, 120 84.576, 120 86.359 C 120 88.142, 120.563 90.161, 121.250 90.847 C 121.938 91.534, 122.795 95.786, 123.155 100.297 C 123.515 104.809, 124.137 112.550, 124.536 117.500 C 124.936 122.450, 125.622 127.199, 126.061 128.054 C 126.501 128.909, 126.554 130.043, 126.180 130.576 C 124.958 132.316, 104.023 142.132, 102.949 141.468 C 102.227 141.023, 102.244 140.412, 103 139.499 C 104.097 138.178, 103.616 105.355, 102.320 93 C 101.520 85.384, 101.565 80.892, 102.466 78.250 C 103.020 76.626, 102.846 76, 101.841 76 C 101.075 76, 99.560 74.088, 98.474 71.750 C 96.242 66.945, 91.629 64.392, 89.956 67.036 C 88.559 69.246, 88.818 75.604, 90.357 76.882 C 91.163 77.550, 92.020 81.359, 92.466 86.254 C 92.879 90.789, 93.410 96.525, 93.647 99 C 93.884 101.475, 94.227 111.055, 94.410 120.288 C 94.593 129.521, 94.979 137.312, 95.268 137.601 C 96.040 138.374, 94.883 146.305, 93.797 147.685 C 93.051 148.632, 85.591 153, 84.719 153 C 84.599 153, 84.429 151.988, 84.343 150.750 C 84.257 149.512, 83.714 145.125, 83.136 141 C 82.558 136.875, 81.869 129.450, 81.606 124.500 C 81.342 119.550, 80.828 111.225, 80.463 106 C 80.098 100.775, 79.732 94.850, 79.650 92.833 C 79.567 90.816, 79.162 88.828, 78.750 88.416 C 78.338 88.004, 78 85.564, 78 82.994 C 78 78.966, 77.651 78.162, 75.472 77.169 C 74.081 76.536, 72.683 75.338, 72.365 74.509 C 72.047 73.679, 70.991 73, 70.019 73 C 67.539 73, 60.230 77.284, 55.568 81.470 C 51.339 85.267, 50.002 85.643, 47.119 83.842 C 42.089 80.701, 39.843 87.292, 42.359 97.806 C 43.730 103.537, 44.087 108.478, 44.013 120.750 C 44.006 121.987, 44.061 123.787, 44.135 124.750 C 44.209 125.713, 43.477 137.525, 42.508 151 C 41.231 168.746, 40.352 175.952, 39.317 177.140 C 38.531 178.042, 34.280 180.967, 29.869 183.640 C 25.458 186.313, 19.971 189.654, 17.676 191.065 C 12.625 194.170, 12.147 195.850, 15.437 198.941 C 17.636 201.007, 18.157 201.123, 19.708 199.897 C 26.773 194.310, 34.195 189.861, 35.570 190.389 C 36.628 190.794, 36.821 192.101, 36.356 195.713 C 36.018 198.346, 35.349 200.928, 34.870 201.450 C 34.392 201.973, 34 203.560, 34 204.977 C 34 206.395, 33.383 208.443, 32.629 209.527 C 31.875 210.612, 31.180 213.300, 31.085 215.500 C 30.990 217.700, 30.819 221.064, 30.706 222.975 C 30.461 227.101, 32.691 228.088, 36.549 225.560 C 38.492 224.287, 39 223.102, 39 219.845 C 39 217.585, 39.834 214.333, 40.854 212.618 C 41.874 210.903, 43.281 205.450, 43.981 200.500 C 45.917 186.808, 46.940 184.403, 52.510 180.443 C 55.173 178.549, 57.948 177, 58.676 177 C 59.404 177, 60 176.609, 60 176.131 C 60 175.276, 71.544 169.650, 73.500 169.551 C 74.050 169.523, 74.832 173.100, 75.239 177.500 C 76.284 188.817, 76.285 188.907, 75.523 195 C 74.618 202.236, 74.617 202.405, 75.415 210.250 C 76.051 216.509, 75.959 217, 74.151 217 C 71.921 217, 68 210.355, 68 206.576 C 68 204.225, 65.643 202.484, 63.910 203.556 C 63.409 203.865, 63 206.468, 63 209.340 C 63 214.344, 63.221 214.773, 68.330 219.659 C 71.261 222.463, 74.669 225.078, 75.903 225.469 C 78.683 226.351, 83.778 224.353, 84.384 222.142 C 84.632 221.239, 84.811 207.923, 84.783 192.551 L 84.732 164.602 88.616 161.316 C 92.462 158.062, 94.460 157.299, 95.333 158.750 C 95.833 159.580, 94.335 197.018, 93.423 206.500 C 92.104 220.214, 93.048 222.807, 98.889 221.524 C 100.600 221.149, 102.028 220.539, 102.063 220.171 C 102.098 219.802, 102.294 213.650, 102.499 206.500 C 102.704 199.350, 103.179 184.377, 103.553 173.228 L 104.234 152.955 108.022 149.713 C 110.106 147.929, 113.541 145.861, 115.655 145.115 C 117.770 144.370, 120.472 142.874, 121.661 141.790 C 122.849 140.706, 124.649 139.977, 125.661 140.170 C 128.353 140.684, 128.646 144.699, 130.435 205.726 C 130.665 213.550, 131.096 220.347, 131.394 220.829 C 132.059 221.904, 130.507 236.371, 129.563 237.899 C 127.475 241.276, 119.103 237.132, 115.164 230.771 C 114.050 228.972, 111.808 226.717, 110.183 225.761 C 107.644 224.267, 107.061 224.222, 106.047 225.444 C 105.113 226.569, 105.298 227.298, 106.933 228.933 C 108.070 230.070, 109 231.454, 109 232.009 C 109 232.563, 110.237 234.456, 111.750 236.215 C 120.458 246.339, 124.415 249, 130.759 249 C 136.461 249, 137.882 247.442, 138.432 240.588 C 138.693 237.336, 139.345 234.405, 139.881 234.074 C 140.803 233.504, 139.906 207.906, 138.420 192.342 C 138.092 188.906, 138.273 185.358, 138.831 184.316 C 139.424 183.207, 139.474 181.811, 138.953 180.880 C 138.470 180.018, 138.014 169.791, 137.939 158.154 C 137.864 146.517, 137.397 136.745, 136.901 136.439 C 135.492 135.568, 135.843 132.375, 137.500 131 C 139.434 129.395, 139.415 127.024, 137.455 125.591 C 135.276 123.997, 132.483 110.057, 133.891 107.802 C 134.703 106.503, 134.481 104.954, 132.982 101.459 C 131.892 98.915, 130.997 94.959, 130.994 92.667 C 130.990 90.375, 130.315 87.211, 129.494 85.636 C 128.672 84.060, 128 81.499, 128 79.945 C 128 78.390, 127.585 76.861, 127.077 76.548 C 126.569 76.234, 125.867 74.671, 125.516 73.075 C 125.166 71.479, 123.271 68.109, 121.306 65.587 C 116.719 59.699, 113.386 59.414, 108.322 64.478 M 62.694 87.532 C 61.151 88.889, 59.298 90, 58.577 90 C 56.316 90, 51.802 97.814, 52.625 100.304 C 53.449 102.797, 53.216 135.841, 52.365 137.218 C 52.060 137.712, 51.422 144.277, 50.948 151.808 C 50.474 159.339, 49.790 166.738, 49.427 168.250 C 48.877 170.541, 49.095 171, 50.733 171 C 51.815 171, 54.529 169.675, 56.765 168.056 C 59 166.436, 64.079 163.474, 68.052 161.474 L 75.274 157.837 74.446 149.668 C 73.991 145.176, 73.700 139.363, 73.800 136.750 C 73.901 134.137, 73.545 132, 73.010 132 C 72.445 132, 72.274 130.221, 72.600 127.750 C 73.285 122.572, 70.361 98.140, 68.837 96.303 C 68.209 95.547, 67.996 93.411, 68.338 91.305 C 68.879 87.971, 67.813 84.947, 66.128 85.032 C 65.782 85.049, 64.237 86.174, 62.694 87.532 M 159.657 90.676 C 158.595 91.738, 160.118 104.191, 161.690 107.303 C 162.765 109.430, 163.098 114.609, 163.073 128.803 C 163.054 139.086, 162.801 149.975, 162.511 153 C 162.220 156.025, 162.004 159.625, 162.030 161 C 162.176 168.628, 162.580 172.904, 163.218 173.546 C 164.474 174.811, 170.006 171.832, 170.502 169.623 C 172.556 160.468, 174.293 130.299, 172.819 129.388 C 172.432 129.149, 172.131 126.826, 172.150 124.226 C 172.238 112.495, 168.652 95.720, 165.208 91.750 C 163.670 89.977, 160.893 89.440, 159.657 90.676" stroke="none" fill="black" fill-rule="evenodd"/>
</svg>