<svg xmlns="http://www.w3.org/2000/svg" width="300" height="300" viewBox="0 0 300 300" version="1.1">
	<path d="M 165.730 23.250 C 163.289 25.097, 161.806 33.106, 162.955 38.234 C 163.481 40.580, 164.625 49.925, 165.496 59 C 166.368 68.075, 167.300 77.300, 167.567 79.500 C 167.834 81.700, 168.195 85.750, 168.369 88.500 C 168.543 91.250, 168.965 94.175, 169.306 95 C 170.374 97.578, 172.908 120.947, 173.481 133.500 C 173.783 140.100, 174.310 150, 174.654 155.500 C 174.997 161, 175.328 184.400, 175.389 207.500 C 175.489 245.506, 175.334 249.868, 173.750 253.372 C 172.787 255.502, 172 258.001, 172 258.926 C 172 261.190, 166.141 266.596, 162.851 267.367 C 160.800 267.847, 159.286 267.254, 156.152 264.744 C 153.925 262.960, 152.080 260.764, 152.052 259.865 C 152.023 258.966, 150.875 257.493, 149.500 256.592 C 148.125 255.691, 147 254.119, 147 253.099 C 147 250.340, 144.224 248.369, 142.166 249.668 C 140.171 250.927, 140.430 256.658, 142.591 259.079 C 143.366 259.947, 144 261.013, 144 261.447 C 144 261.881, 145.238 263.688, 146.750 265.464 C 148.262 267.239, 149.959 269.484, 150.519 270.453 C 151.232 271.685, 154.033 272.645, 159.840 273.648 L 168.142 275.082 171.606 272.041 C 173.511 270.368, 175.471 269, 175.962 269 C 177.014 269, 179.593 264.123, 181.514 258.500 C 183.281 253.328, 184.935 232.161, 184.523 220 C 184.345 214.775, 183.901 196.775, 183.536 180 C 182.524 133.581, 182.062 122.039, 180.952 115.500 C 180.393 112.200, 179.761 106.800, 179.549 103.500 C 178.766 91.323, 175.872 66.423, 174.957 64 C 174.438 62.625, 173.831 56.917, 173.607 51.317 C 173.383 45.716, 172.830 40.541, 172.378 39.817 C 171.926 39.092, 171.623 35.800, 171.705 32.500 C 171.798 28.729, 171.315 25.664, 170.404 24.250 C 168.739 21.667, 168.025 21.514, 165.730 23.250 M 79.238 63.546 C 78.024 64.396, 73.311 66.251, 68.765 67.669 C 59.500 70.557, 58 71.449, 58 74.066 C 58 76.768, 61.891 79, 66.600 79 C 68.885 79, 71.202 79.563, 71.747 80.250 C 73.289 82.193, 75.371 89.129, 75.573 93 C 75.674 94.925, 76.106 98.704, 76.534 101.398 C 77.290 106.156, 77.211 106.385, 73.749 109.398 C 66.855 115.401, 51.053 127, 49.771 127 C 49.293 127, 46.235 128.772, 42.974 130.938 C 39.713 133.104, 34.321 135.869, 30.992 137.083 C 27.663 138.297, 24.701 139.675, 24.410 140.145 C 24.120 140.615, 22.628 141, 21.096 141 C 19.564 141, 17.517 141.876, 16.549 142.946 C 14.862 144.810, 14.879 145.021, 16.962 147.946 C 19.349 151.299, 22.317 151.831, 25.441 149.468 C 26.509 148.661, 28.361 148, 29.556 148 C 30.752 148, 32.874 147.100, 34.273 146 C 35.671 144.900, 37.775 144, 38.948 144 C 43.406 144, 60.790 132.947, 69.224 124.750 C 75.355 118.791, 77.489 118.500, 76.557 123.750 C 75.540 129.481, 70.569 138.839, 64.487 146.472 C 61.469 150.258, 59 153.684, 59 154.084 C 59 154.484, 57.538 156.601, 55.750 158.789 C 53.962 160.976, 51.600 164.039, 50.500 165.594 C 46.229 171.631, 36.911 181.883, 27.985 190.365 C 20.352 197.618, 18.842 199.527, 19.680 200.865 C 20.980 202.940, 24.670 203.519, 26.566 201.945 C 27.367 201.280, 29.336 200.008, 30.941 199.118 C 32.546 198.228, 38.591 192.385, 44.373 186.134 C 50.156 179.882, 55.819 174.115, 56.957 173.318 C 58.095 172.520, 59.985 169.985, 61.156 167.684 C 62.328 165.383, 65.157 161.250, 67.443 158.500 C 69.730 155.750, 72.137 152.250, 72.792 150.722 C 74.186 147.469, 76.843 146.128, 78.044 148.071 C 78.889 149.439, 78.683 195.303, 77.772 208.615 C 77.222 216.641, 76.677 218, 74.008 218 C 71.832 218, 70.934 215.705, 70.097 208 C 69.600 203.418, 69.151 202.450, 67.412 202.202 C 63.873 201.696, 62.592 204.322, 63.880 209.439 C 64.496 211.885, 65 215.034, 65 216.438 C 65 219.856, 73.865 229, 77.178 229 C 80.381 229, 84 226.328, 84 223.964 C 84 222.906, 84.646 220.344, 85.436 218.270 C 86.321 215.947, 87.037 209.294, 87.303 200.933 C 87.540 193.471, 88.191 186.496, 88.750 185.433 C 89.411 184.175, 89.451 181.235, 88.865 177.018 C 87.771 169.144, 88.141 167.982, 91.719 168.064 C 95.568 168.153, 105.082 170.318, 107.500 171.656 C 108.600 172.264, 113.068 172.703, 117.428 172.631 C 125.315 172.501, 125.361 172.485, 126.143 169.560 C 127.165 165.736, 125.673 164, 121.367 164 C 119.503 164, 115.959 163.051, 113.491 161.891 C 110.916 160.680, 108.045 160.022, 106.752 160.345 C 105.514 160.654, 102.700 160.440, 100.500 159.868 C 98.300 159.296, 94.700 158.530, 92.500 158.164 L 88.500 157.500 88.358 151.500 C 88.280 148.200, 88.089 141.900, 87.935 137.500 C 87.781 133.100, 87.995 128.466, 88.410 127.202 C 88.827 125.935, 88.721 124.365, 88.174 123.702 C 87.628 123.041, 87.424 120.369, 87.719 117.765 C 88.181 113.693, 88.857 112.539, 92.547 109.515 C 94.906 107.582, 97.542 106, 98.403 106 C 99.265 106, 102.114 104.687, 104.735 103.082 C 107.356 101.477, 111.149 99.859, 113.163 99.487 C 115.178 99.114, 117.786 97.916, 118.958 96.824 C 121.068 94.858, 121.071 94.807, 119.208 91.669 C 117.562 88.898, 116.846 88.530, 113.513 88.737 C 108.778 89.032, 95.594 95.312, 91.291 99.322 C 88.510 101.914, 87.864 102.132, 86.445 100.955 C 85.263 99.973, 84.960 98.613, 85.355 96.048 C 85.987 91.936, 83.992 81.556, 81.921 78.189 C 80.347 75.630, 80.608 75.296, 86.925 71.797 C 91.385 69.326, 91.200 65.399, 86.532 63.449 C 82.217 61.646, 81.945 61.650, 79.238 63.546 M 136.793 89.360 C 135.398 90.420, 135.172 91.831, 135.556 97.079 C 135.815 100.610, 136.532 105.975, 137.150 109 C 137.769 112.025, 138.398 116.075, 138.548 118 C 139.788 133.880, 139.885 138.623, 139.130 146.500 C 138.174 156.471, 138.826 158, 144.035 158 C 146.560 158, 146.765 157.603, 148.308 149.750 C 150.937 136.364, 151.219 129.289, 149.454 121 C 148.575 116.875, 147.598 112.150, 147.282 110.500 C 146.966 108.850, 146.139 106.600, 145.443 105.500 C 144.706 104.335, 144.300 101.218, 144.470 98.033 C 144.912 89.739, 141.447 85.824, 136.793 89.360" stroke="none" fill="black" fill-rule="evenodd"/>
</svg>