<svg xmlns="http://www.w3.org/2000/svg" width="300" height="300" viewBox="0 0 300 300" version="1.1">
	<path d="M 168.464 92.394 C 165.695 93.067, 162.959 93.907, 162.385 94.262 C 161.811 94.617, 158.305 95.392, 154.593 95.985 C 150.882 96.578, 145.968 97.763, 143.673 98.618 C 141.378 99.474, 136.395 100.929, 132.600 101.851 C 124.135 103.909, 122.525 105.795, 126.033 109.550 C 128.229 111.900, 128.995 112.119, 133 111.544 C 142.200 110.222, 141.519 109.817, 141.337 116.500 C 141.016 128.269, 138.217 140.314, 133.552 150 C 132.890 151.375, 131.776 154.525, 131.077 157 C 130.377 159.475, 129.399 162.281, 128.903 163.236 C 128.406 164.191, 128 165.804, 128 166.820 C 128 167.836, 127.722 168.944, 127.383 169.284 C 126.453 170.214, 120.036 186.312, 120.017 187.764 C 120.008 188.459, 119.588 189.809, 119.084 190.764 C 117.947 192.919, 115.702 198.376, 114.049 203 C 112.172 208.253, 110.966 211.197, 109.407 214.331 C 108.633 215.888, 108 217.785, 108 218.546 C 108 219.306, 106.951 221.858, 105.669 224.215 C 104.388 226.572, 102.724 230.075, 101.973 232 C 100.076 236.861, 95.176 244.957, 92.117 248.286 C 90.087 250.495, 89.779 251.428, 90.630 252.786 C 91.976 254.933, 95.250 255.472, 98.002 253.999 C 101.656 252.044, 113.817 232.437, 113.937 228.309 C 113.971 227.104, 114.450 225.840, 115 225.500 C 115.550 225.160, 116 223.810, 116 222.500 C 116 221.190, 116.383 219.881, 116.852 219.592 C 117.320 219.302, 118.488 216.913, 119.447 214.283 C 120.405 211.652, 122.225 207.250, 123.491 204.500 C 124.756 201.750, 126.358 197.700, 127.050 195.500 C 127.743 193.300, 129.182 189.503, 130.248 187.062 C 131.314 184.622, 132.445 181.022, 132.760 179.062 C 133.076 177.103, 134.384 173.520, 135.667 171.101 C 136.950 168.682, 138 165.896, 138 164.910 C 138 163.924, 138.450 162.840, 139 162.500 C 139.550 162.160, 140 160.874, 140 159.641 C 140 158.408, 140.395 156.972, 140.877 156.450 C 141.359 155.927, 142.739 152.599, 143.944 149.053 C 145.148 145.507, 147.236 141.584, 148.582 140.336 C 150.756 138.321, 151.012 137.308, 150.868 131.284 C 150.779 127.553, 151.063 120.526, 151.499 115.670 C 152.219 107.647, 152.509 106.757, 154.666 105.937 C 158.296 104.557, 168.862 102.254, 175 101.505 C 182.471 100.594, 184.411 102.641, 185.892 113 C 187.436 123.800, 187.396 128.325, 185.576 149 C 183.430 173.376, 182.479 180.917, 181.123 184.315 C 180.505 185.863, 180 189.324, 180 192.006 C 180 194.688, 179.550 197.160, 179 197.500 C 178.450 197.840, 178 199.640, 178 201.500 C 178 203.360, 177.550 205.160, 177 205.500 C 176.450 205.840, 176 207.355, 176 208.868 C 176 210.380, 175.339 212.491, 174.532 213.559 C 173.724 214.626, 173.049 216.711, 173.032 218.191 C 173.014 219.671, 172.550 221.160, 172 221.500 C 171.450 221.840, 171 222.966, 171 224.002 C 171 226.106, 167.216 233, 166.060 233 C 164.052 233, 157.254 224.776, 156.032 220.868 C 154.203 215.021, 151.157 210, 149.437 210 C 147.794 210, 146.471 214.336, 147.572 216.116 C 147.990 216.792, 148.672 218.956, 149.088 220.923 C 151.807 233.794, 157.495 239.900, 167.422 240.606 C 172.350 240.957, 173.057 240.743, 174.959 238.325 C 177.756 234.770, 181 227.308, 181 224.432 C 181 223.159, 181.450 221.840, 182 221.500 C 182.550 221.160, 183 219.461, 183 217.724 C 183 215.988, 183.620 212.752, 184.378 210.533 C 186.437 204.504, 188 197.351, 188 193.954 C 188 192.294, 188.609 189.479, 189.352 187.699 C 190.096 185.919, 191.242 178.396, 191.899 170.981 C 192.555 163.567, 193.581 154.125, 194.178 150 C 194.775 145.875, 195.230 135.075, 195.189 126 C 195.124 111.467, 194.870 108.999, 193.058 105.298 C 191.926 102.987, 191 100.703, 191 100.223 C 191 98.210, 186.009 94.920, 180.084 93.027 C 176.594 91.912, 173.686 91.038, 173.620 91.085 C 173.554 91.132, 171.234 91.721, 168.464 92.394 M 65.760 123.250 C 65.511 123.938, 65.724 128.468, 66.234 133.319 C 66.744 138.169, 66.951 142.686, 66.693 143.357 C 66.219 144.593, 57.669 147.442, 44 150.919 C 33.379 153.620, 25.677 156.468, 25.211 157.866 C 24.992 158.525, 25.568 160.218, 26.492 161.629 C 27.931 163.824, 28.701 164.116, 31.836 163.659 C 33.851 163.365, 37.975 162.822, 41 162.452 C 44.025 162.082, 49.200 160.515, 52.500 158.969 C 58.990 155.930, 64.853 154.597, 66.589 155.767 C 67.354 156.281, 67.403 158.885, 66.753 164.500 C 66.244 168.900, 65.727 174.416, 65.605 176.758 C 65.483 179.101, 64.847 181.553, 64.192 182.208 C 63.536 182.864, 63.004 184.772, 63.008 186.450 C 63.013 188.127, 62.228 192.578, 61.263 196.341 L 59.510 203.182 62.311 205.591 C 65.098 207.989, 69.389 208.797, 70.426 207.120 C 70.725 206.636, 73.300 205.478, 76.148 204.546 C 78.996 203.615, 82.758 201.761, 84.508 200.426 C 86.257 199.092, 88.137 198, 88.684 198 C 90.464 198, 102.255 186.266, 101.812 184.936 C 100.789 181.866, 98.246 181.575, 94.841 184.140 C 89.167 188.411, 74.731 196.097, 73.073 195.730 C 72.208 195.538, 71.667 194.733, 71.871 193.941 C 72.877 190.034, 74.232 178.319, 74.871 168 C 75.263 161.675, 76.117 155.262, 76.768 153.748 C 77.927 151.055, 83.194 148.094, 93.420 144.389 C 98.463 142.562, 105.822 137.907, 106.512 136.108 C 106.807 135.339, 106.277 133.859, 105.335 132.817 C 103.234 130.496, 99.358 131.117, 93.714 134.680 C 89.383 137.414, 77.143 141.476, 76.169 140.502 C 75.818 140.152, 74.949 137.308, 74.238 134.182 C 72.010 124.396, 71.730 123.519, 70.601 122.765 C 68.875 121.613, 66.259 121.875, 65.760 123.250" stroke="none" fill="black" fill-rule="evenodd"/>
</svg>