<svg xmlns="http://www.w3.org/2000/svg" width="300" height="300" viewBox="0 0 300 300" version="1.1">
	<path d="M 128.124 95.128 C 124.067 96.146, 119.385 97.659, 117.720 98.490 C 116.055 99.320, 113.674 100, 112.429 100 C 111.184 100, 108.216 100.826, 105.833 101.835 C 103.450 102.845, 97.779 104.507, 93.230 105.528 C 88.265 106.644, 84.275 108.144, 83.244 109.283 C 81.617 111.081, 81.628 111.255, 83.454 112.590 C 86.614 114.901, 93.810 114.212, 104.976 110.530 C 123.308 104.486, 134.030 101.986, 141.595 101.993 C 148.993 102, 152 103.525, 152 107.270 C 152 108.156, 152.450 109.160, 153 109.500 C 153.550 109.840, 154 111.412, 154 112.994 C 154 114.576, 154.479 117.129, 155.064 118.669 C 156.227 121.726, 156.517 184.728, 155.435 199.184 C 153.803 220.995, 152.095 233.201, 150.185 236.699 C 147.335 241.919, 141.041 243.551, 137.278 240.045 C 136.124 238.969, 132.627 234.698, 129.507 230.553 C 126.387 226.407, 123.372 222.730, 122.806 222.380 C 120.976 221.249, 120.071 224.298, 121.447 226.955 C 122.172 228.355, 124.024 231.975, 125.562 235 C 132.646 248.933, 133.171 249.328, 143.659 248.639 C 147.596 248.380, 151.755 247.666, 152.900 247.053 C 155.175 245.836, 159 238.745, 159 235.746 C 159 234.714, 159.546 232.886, 160.212 231.684 C 161.626 229.136, 162.655 216.888, 163.963 187 C 164.481 175.175, 165.207 161.074, 165.575 155.664 C 166.017 149.188, 165.870 145.089, 165.145 143.664 C 164.540 142.474, 163.846 136.550, 163.603 130.500 C 162.787 110.139, 160.124 98.816, 155.253 94.984 C 153.098 93.289, 151.343 92.996, 144.098 93.124 C 139.369 93.208, 132.181 94.109, 128.124 95.128 M 115.496 153.250 C 109.928 158.887, 102.926 166.243, 99.936 169.595 C 95.066 175.055, 79.669 189.679, 72.301 195.843 C 70.760 197.131, 66.918 199.606, 63.762 201.343 C 60.606 203.079, 58.018 204.962, 58.012 205.527 C 58.005 206.093, 58.701 207.555, 59.557 208.777 C 61.445 211.474, 65.554 211.694, 69.027 209.285 C 73.053 206.493, 73.247 206.336, 79.512 200.806 C 82.819 197.888, 87.134 194.416, 89.102 193.090 C 91.070 191.765, 93.675 189.228, 94.892 187.453 C 96.108 185.678, 100.900 180.462, 105.541 175.863 C 110.182 171.263, 113.984 166.963, 113.990 166.308 C 113.995 165.652, 116.692 162.052, 119.983 158.308 C 123.273 154.563, 125.973 151.121, 125.983 150.658 C 125.992 150.194, 126.894 148.679, 127.986 147.290 C 129.079 145.901, 129.727 144.368, 129.427 143.882 C 128.035 141.629, 124.876 143.753, 115.496 153.250" stroke="none" fill="black" fill-rule="evenodd"/>
</svg>