<svg xmlns="http://www.w3.org/2000/svg" width="300" height="300" viewBox="0 0 300 300" version="1.1">
	<path d="M 145.655 54.829 C 144.483 56.124, 143.994 58.531, 143.978 63.079 C 143.955 69.662, 141.843 92.012, 140.063 104.500 C 139.514 108.350, 139.051 112.280, 139.033 113.233 C 138.996 115.166, 131.917 119.138, 125.364 120.902 C 120.925 122.097, 116.565 125.076, 115.016 127.971 C 113.765 130.307, 117.235 135, 120.213 135 C 122.424 135, 131.278 131, 131.833 129.750 C 132.505 128.238, 135 129.054, 135 130.785 C 135 131.767, 133.887 135.929, 132.526 140.035 C 131.165 144.141, 130.040 148.455, 130.026 149.623 C 130.012 150.790, 129.097 153.787, 127.993 156.282 C 126.890 158.777, 125.702 162.897, 125.354 165.437 C 125.005 167.977, 124.334 170.294, 123.860 170.586 C 123.387 170.879, 123 172.009, 123 173.099 C 123 174.188, 122.122 176.801, 121.048 178.905 C 119.975 181.010, 118.562 184.929, 117.910 187.616 C 117.257 190.302, 114.812 196.550, 112.476 201.500 C 110.139 206.450, 107.680 212.225, 107.009 214.332 C 106.339 216.440, 104.718 220.040, 103.407 222.332 C 102.097 224.625, 101.019 227.050, 101.012 227.723 C 100.995 229.456, 91.836 244.251, 89.868 245.726 C 88.968 246.400, 87.937 248.524, 87.576 250.446 C 87.215 252.368, 85.813 255.257, 84.460 256.865 C 80.005 262.160, 81.912 270.384, 86.886 267.326 C 89.331 265.823, 98.956 252.728, 98.980 250.872 C 98.991 249.977, 99.646 248.709, 100.436 248.053 C 101.225 247.398, 102.186 245.430, 102.570 243.681 C 102.954 241.931, 104.558 238.935, 106.134 237.022 C 107.710 235.109, 109 232.930, 109 232.180 C 109 231.429, 109.900 229.671, 111 228.273 C 112.100 226.874, 113 224.941, 113 223.977 C 113 222.069, 117.062 212.537, 122.579 201.500 C 124.503 197.650, 126.477 192.475, 126.964 190 C 127.875 185.376, 131.255 174.935, 133.649 169.349 C 134.392 167.616, 135 165.305, 135 164.213 C 135 163.122, 135.672 160.940, 136.494 159.364 C 137.315 157.789, 137.990 155.734, 137.994 154.797 C 137.997 153.860, 138.407 152.060, 138.905 150.797 C 139.402 149.534, 140.360 145.800, 141.034 142.500 C 141.707 139.200, 143.100 135.281, 144.129 133.790 C 145.158 132.300, 146 130.634, 146 130.088 C 146 127.147, 148.529 124.156, 151.853 123.167 C 160.642 120.552, 166 121.237, 166 124.976 C 166 126.024, 166.450 127.160, 167 127.500 C 167.550 127.840, 168 129.239, 168 130.609 C 168 131.979, 168.693 134.440, 169.540 136.078 C 171.223 139.332, 171.353 153.005, 169.734 156.332 C 169.243 157.339, 168.653 162.064, 168.421 166.832 C 167.825 179.087, 161.864 198.284, 153.153 216 C 150.714 220.959, 150.102 221.529, 146.924 221.798 C 143.673 222.074, 143.132 221.697, 139.950 216.946 C 136.515 211.817, 135.774 210.580, 134.143 207.250 C 133.138 205.198, 130.207 204.393, 128.813 205.787 C 128.180 206.420, 128.568 208.272, 129.919 211.069 C 131.064 213.438, 132 215.993, 132 216.746 C 132 221.448, 147.021 233.714, 151.425 232.608 C 154.692 231.788, 161.723 223.594, 162.515 219.683 C 163.080 216.895, 167.416 206.539, 169.972 201.873 C 170.462 200.978, 171.170 198.611, 171.545 196.612 C 171.920 194.613, 172.626 192.731, 173.113 192.430 C 173.601 192.129, 174 190.169, 174 188.076 C 174 185.784, 174.796 183.258, 176 181.727 C 177.351 180.010, 178.016 177.613, 178.049 174.342 C 178.076 171.679, 178.638 164.550, 179.299 158.500 C 181.801 135.583, 178.441 121.557, 168.581 113.763 C 163.985 110.130, 163.164 109.834, 159.026 110.320 C 156.537 110.613, 153.419 111.180, 152.098 111.582 L 149.697 112.313 150.346 101.906 C 150.704 96.183, 151.439 87.450, 151.981 82.500 C 152.523 77.550, 153.261 69.632, 153.622 64.904 C 154.252 56.647, 154.185 56.243, 151.916 54.654 C 148.895 52.538, 147.698 52.571, 145.655 54.829 M 85.694 101.532 C 84.151 102.889, 82.308 104, 81.599 104 C 80.890 104, 79.495 104.900, 78.500 106 C 77.505 107.100, 76.140 108, 75.467 108 C 74.795 108, 73.685 108.675, 73 109.500 C 72.315 110.325, 70.550 111, 69.078 111 C 67.605 111, 65.841 111.563, 65.158 112.250 C 64.474 112.938, 61.122 114.437, 57.708 115.582 C 49.904 118.199, 47.636 121.270, 50.397 125.484 C 51.881 127.749, 52.700 128.111, 55.338 127.670 C 61.688 126.611, 64.550 125.664, 66.885 123.851 C 70.145 121.320, 72.856 121.485, 73.424 124.250 C 73.679 125.487, 74.172 131.405, 74.520 137.401 C 74.869 143.396, 75.576 150.821, 76.092 153.901 C 76.607 156.980, 76.736 161.939, 76.378 164.920 C 75.845 169.357, 75.019 171.109, 71.824 174.575 C 69.677 176.904, 66.476 179.553, 64.710 180.462 C 62.945 181.371, 60.150 183.104, 58.500 184.314 C 40.901 197.219, 40.971 197.141, 43.690 200.796 C 46.365 204.394, 49.054 204.636, 51.961 201.542 C 53.274 200.144, 54.833 198.994, 55.424 198.986 C 56.016 198.978, 60.056 195.828, 64.401 191.986 C 68.747 188.144, 72.963 185, 73.769 185 C 75.134 185, 79.812 181.591, 84.500 177.180 C 85.600 176.145, 87.445 174.801, 88.600 174.194 C 91.081 172.890, 100 160.051, 100 157.784 C 100 156.554, 98.116 155, 96.623 155 C 96.506 155, 93.976 157.250, 91 160 C 88.024 162.750, 85.280 165, 84.902 165 C 83.574 165, 83.018 161.836, 84.017 159.968 C 84.629 158.825, 84.710 156.390, 84.223 153.791 C 83.781 151.431, 83.536 146.125, 83.680 142 C 83.824 137.875, 83.937 132.598, 83.932 130.274 C 83.927 127.949, 84.640 124.953, 85.516 123.616 C 86.572 122.005, 86.753 120.966, 86.054 120.534 C 85.474 120.175, 85 119.540, 85 119.123 C 85 117.735, 91.409 110, 92.559 110 C 93.181 110, 94.471 109.137, 95.425 108.083 C 97.280 106.033, 96.700 103.842, 93.435 100.578 C 91.232 98.375, 88.964 98.655, 85.694 101.532" stroke="none" fill="black" fill-rule="evenodd"/>
</svg>