<svg xmlns="http://www.w3.org/2000/svg" width="300" height="300" viewBox="0 0 300 300" version="1.1">
	<path d="M 84.360 54.438 C 79.542 58.983, 75.516 60.673, 73.499 58.999 C 72.675 58.315, 72 56.965, 72 56 C 72 53.576, 69.565 51.782, 66.805 52.173 C 65.122 52.412, 64.413 53.258, 64.178 55.310 C 64.001 56.856, 64.346 58.712, 64.945 59.434 C 67.121 62.056, 64.940 63.813, 57.436 65.482 C 49.332 67.285, 48 67.021, 48 63.615 C 48 62.369, 46.888 60.304, 45.529 59.028 C 42.217 55.916, 40.205 57.588, 39.802 63.789 C 39.443 69.292, 38.510 69.739, 27 69.916 C 17.267 70.065, 16.061 70.783, 18.149 75.189 L 19.718 78.500 31.109 78.500 L 42.500 78.500 42.611 82 C 42.672 83.925, 43.200 87.469, 43.783 89.875 C 44.538 92.990, 44.531 94.936, 43.757 96.633 C 42.398 99.616, 44.361 103.802, 47.488 104.586 C 48.654 104.879, 52.166 104.162, 55.291 102.992 C 58.417 101.823, 61.409 101.135, 61.941 101.464 C 62.473 101.792, 64.095 101.763, 65.545 101.399 C 67.594 100.885, 68.075 100.265, 67.697 98.619 C 65.725 90.016, 65.680 90.435, 69.010 86.642 C 71.037 84.333, 71.983 82.399, 71.589 81.371 C 71.246 80.477, 71.491 79.114, 72.133 78.340 C 72.775 77.567, 73.345 75.492, 73.400 73.730 C 73.474 71.345, 74.010 70.445, 75.500 70.204 C 81.649 69.210, 96 59.972, 96 57.009 C 96 55.499, 91.025 51, 89.356 51 C 88.613 51, 86.365 52.547, 84.360 54.438 M 139.854 60.189 C 139.150 61.460, 138.237 65.200, 137.826 68.500 C 137.416 71.800, 136.659 76.975, 136.144 80 C 134.154 91.701, 132.038 107.662, 132.020 111.114 C 132.001 114.504, 131.705 114.838, 127.250 116.505 C 124.638 117.482, 121.879 118.780, 121.120 119.391 C 120.360 120.001, 117.210 121.878, 114.120 123.561 C 109.821 125.903, 108.500 127.161, 108.500 128.912 C 108.500 130.909, 109.075 131.245, 112.992 131.537 C 116.146 131.772, 118.032 131.376, 119.323 130.208 C 120.334 129.293, 122.813 127.776, 124.831 126.838 C 128.462 125.149, 128.503 125.154, 128.798 127.375 C 128.962 128.608, 128.590 131.616, 127.971 134.059 C 127.353 136.501, 126.435 141.101, 125.933 144.281 C 125.431 147.460, 124.340 151.375, 123.510 152.981 C 122.679 154.587, 122 156.868, 122 158.049 C 122 159.231, 121.363 161.616, 120.584 163.349 C 119.805 165.082, 118.922 167.850, 118.621 169.500 C 117.133 177.657, 116.615 179.655, 115.512 181.500 C 114.854 182.600, 113.741 185.525, 113.038 188 C 112.335 190.475, 111.179 193.850, 110.468 195.500 C 109.757 197.150, 108.628 200.525, 107.960 203 C 107.292 205.475, 105.678 210.435, 104.373 214.021 C 103.068 217.608, 102 221.011, 102 221.583 C 102 222.156, 101.153 224.396, 100.117 226.562 C 99.082 228.728, 97.931 232.075, 97.559 234 C 97.188 235.925, 96.482 238.400, 95.990 239.500 C 95.499 240.600, 93.874 245.036, 92.380 249.358 C 90.886 253.680, 88.615 258.762, 87.332 260.652 C 86.049 262.542, 85 264.342, 85 264.651 C 85 264.961, 83.620 268.105, 81.934 271.637 C 78.281 279.292, 78.349 282.367, 82.181 282.810 C 84.470 283.074, 85.347 282.340, 88.181 277.784 C 90.006 274.849, 92.447 270.435, 93.604 267.974 C 94.762 265.513, 96.675 261.475, 97.857 259 C 99.039 256.525, 100.004 253.759, 100.003 252.853 C 100.001 251.947, 101.310 248.566, 102.910 245.340 C 104.511 242.114, 106.131 237.680, 106.510 235.487 C 106.890 233.294, 108.468 229.003, 110.017 225.950 C 111.567 222.898, 113.131 218.623, 113.495 216.450 C 114.346 211.359, 117.069 203.053, 118.715 200.527 C 119.422 199.443, 120 197.390, 120 195.967 C 120 194.544, 121.125 190.509, 122.500 187 C 123.875 183.491, 125.002 179.694, 125.004 178.560 C 125.007 177.427, 126.181 173.350, 127.615 169.500 C 129.999 163.095, 133.689 150.521, 136.125 140.500 C 136.660 138.300, 137.284 134.387, 137.512 131.806 C 137.740 129.224, 138.581 125.544, 139.382 123.629 C 140.679 120.525, 141.361 120.071, 145.668 119.444 C 148.326 119.057, 151.715 118.124, 153.200 117.370 C 154.686 116.617, 158.121 116, 160.834 116 C 165.314 116, 166.097 116.365, 169.354 119.970 L 172.940 123.940 172.487 139.862 C 172.237 148.619, 171.631 156.845, 171.141 158.142 C 170.650 159.439, 169.942 162.975, 169.568 166 C 169.194 169.025, 168.487 172.400, 167.996 173.500 C 167.506 174.600, 166.361 178.989, 165.451 183.254 C 164.542 187.518, 163.393 191.257, 162.899 191.563 C 162.404 191.868, 162 193.190, 162 194.500 C 162 195.810, 161.550 197.160, 161 197.500 C 160.450 197.840, 160 198.924, 160 199.910 C 160 200.896, 158.950 203.682, 157.667 206.101 C 156.383 208.520, 155.045 211.655, 154.694 213.067 C 154.342 214.478, 152.903 216.249, 151.497 217.001 C 149.234 218.213, 148.433 218.123, 144.514 216.219 C 141.744 214.873, 139.451 212.839, 138.390 210.784 C 136.534 207.191, 131.200 202.041, 129.309 202.016 C 127.102 201.986, 126.815 204.070, 128.664 206.703 C 129.674 208.142, 131.534 211.160, 132.798 213.409 C 135.463 218.154, 140.859 224, 142.574 224 C 143.223 224, 144.267 224.617, 144.892 225.370 C 146.350 227.127, 153.579 228.111, 156.596 226.963 C 159.084 226.017, 161.804 221.261, 164.007 214 C 164.758 211.525, 166.150 208.360, 167.100 206.966 C 168.051 205.573, 169.143 202.755, 169.527 200.705 C 169.912 198.655, 170.626 196.731, 171.113 196.430 C 171.601 196.129, 172.003 194.671, 172.006 193.191 C 172.010 191.711, 172.685 189.211, 173.506 187.636 C 174.328 186.060, 175 183.944, 175 182.933 C 175 181.921, 175.403 180.060, 175.896 178.797 C 176.799 176.480, 177.532 173.866, 180.601 162 C 182.882 153.180, 182.866 124.345, 180.577 119.522 C 177.916 113.914, 170.843 108.249, 165.502 107.448 C 159.296 106.517, 151.004 107.430, 147.041 109.479 C 144.553 110.765, 143.544 110.866, 142.428 109.940 C 140.503 108.343, 140.582 100.146, 142.560 96.181 C 143.470 94.356, 144.228 89.817, 144.380 85.277 C 144.523 81, 145.156 76.272, 145.787 74.771 C 147.204 71.402, 147.385 66.610, 146.272 62 C 145.218 57.639, 141.803 56.675, 139.854 60.189 M 57 74.732 C 52.152 75.623, 51.440 77.511, 53.503 84.009 C 53.850 85.104, 54.689 86, 55.367 86 C 57.018 86, 59 83.931, 59 82.208 C 59 81.442, 59.900 79.671, 61 78.273 C 64.295 74.084, 63.647 73.510, 57 74.732 M 56.178 110.285 C 55.552 111.040, 54.687 113.357, 54.255 115.434 C 53.558 118.791, 52.931 119.417, 48.624 121.051 C 45.959 122.063, 43.005 123.591, 42.060 124.446 C 41.115 125.300, 39.728 126, 38.976 126 C 38.224 126, 36.334 127.222, 34.774 128.716 L 31.939 131.433 25.193 129.136 C 21.483 127.873, 16.885 126.988, 14.974 127.170 C 11.962 127.456, 11.455 127.892, 11.164 130.451 C 10.744 134.146, 13.051 136, 18.069 136 C 20.096 136, 22.298 136.655, 22.962 137.455 C 25.850 140.934, 33.017 144.115, 37.274 143.806 L 41.500 143.500 41.500 139.010 C 41.500 134.775, 41.696 134.456, 44.950 133.395 C 46.848 132.776, 48.839 131.288, 49.374 130.088 C 50.004 128.676, 51.073 128.011, 52.404 128.203 C 54.018 128.436, 54.635 129.545, 55.270 133.350 C 56.096 138.299, 55.130 141, 52.533 141 C 51.860 141, 50.495 141.900, 49.500 143 C 48.505 144.100, 46.713 145, 45.519 145 C 42.839 145, 39 148.921, 39 151.659 C 39 152.776, 39.902 154.506, 41.004 155.504 C 42.674 157.015, 43.432 157.124, 45.551 156.159 C 46.950 155.521, 48.940 155, 49.974 155 C 51.009 155, 52.740 153.875, 53.821 152.500 C 56.442 149.169, 56.980 149.347, 56.333 153.334 C 56.036 155.168, 56.274 159.767, 56.864 163.554 C 57.851 169.894, 57.777 170.608, 55.933 172.571 C 54.832 173.744, 52.034 175.327, 49.715 176.091 C 47.397 176.854, 43.942 178.271, 42.039 179.239 C 40.135 180.208, 38.009 181, 37.315 181 C 36.621 181, 34.129 181.868, 31.777 182.928 C 26.961 185.099, 16.695 188.129, 7 190.240 C 1.280 191.486, 0.500 191.934, 0.500 193.970 C 0.500 195.278, 1.587 197.089, 3 198.136 C 5.133 199.716, 6.087 199.829, 9.500 198.909 C 11.700 198.316, 15.300 197.391, 17.500 196.854 C 19.700 196.316, 22.850 195.410, 24.500 194.840 C 26.150 194.270, 29.075 193.434, 31 192.981 C 39.804 190.913, 44.974 189.079, 47.713 187.054 C 49.852 185.472, 51.771 184.949, 54.590 185.180 L 58.500 185.500 58.235 197 C 58.089 203.325, 58.010 209.400, 58.059 210.500 C 58.515 220.779, 58.457 234.218, 57.955 234.528 C 57.612 234.740, 57.259 239.418, 57.170 244.924 C 57.023 254.095, 57.182 255.027, 59.068 256.037 C 63.011 258.147, 63.992 256.040, 65.597 242 C 65.880 239.525, 66.292 235.925, 66.513 234 C 66.733 232.075, 66.923 219.168, 66.934 205.318 L 66.954 180.137 70.621 177.340 C 74.323 174.516, 80.132 172.043, 83.128 172.015 C 84.023 172.007, 85.276 171.372, 85.913 170.605 C 86.549 169.838, 88.517 168.986, 90.285 168.711 C 94.700 168.024, 100.551 165.710, 102.707 163.797 C 103.693 162.922, 105.346 162.048, 106.380 161.853 C 108.532 161.449, 109.527 155.363, 107.785 153.250 C 106.158 151.275, 101.415 151.790, 98.327 154.276 C 96.772 155.528, 93.700 157.159, 91.500 157.899 C 89.300 158.640, 86.825 159.781, 86 160.435 C 85.175 161.090, 82.475 162.441, 80 163.438 C 77.525 164.436, 74.046 165.968, 72.268 166.844 C 67.822 169.034, 67.016 167.840, 66.844 158.809 C 66.723 152.440, 67.055 150.732, 68.920 148.113 C 70.140 146.398, 71.986 144.543, 73.022 143.988 C 74.057 143.434, 76.064 140.672, 77.481 137.850 C 78.899 135.028, 81.187 131.378, 82.566 129.740 C 83.944 128.101, 85.743 125.464, 86.562 123.880 C 87.885 121.321, 87.881 120.670, 86.523 118.045 C 84.433 114.003, 78.578 112.988, 64.559 114.238 C 62.149 114.453, 61.509 114.050, 61.015 112.005 C 60.325 109.148, 57.852 108.269, 56.178 110.285 M 71 122.500 C 70.315 123.325, 69 124, 68.078 124 C 65.596 124, 64 126.035, 64 129.200 C 64 133.244, 66.794 132.820, 71.431 128.071 C 73.886 125.557, 75.051 123.575, 74.665 122.571 C 73.907 120.594, 72.602 120.569, 71 122.500" stroke="none" fill="black" fill-rule="evenodd"/>
</svg>