<svg xmlns="http://www.w3.org/2000/svg" width="300" height="300" viewBox="0 0 300 300" version="1.1">
	<path d="M 76.499 56.644 C 74.155 58.988, 75.362 62.598, 80.065 67.300 C 82.229 69.464, 84 71.867, 84 72.639 C 84 73.411, 85.129 74.557, 86.510 75.186 C 88.667 76.169, 89.369 76.002, 91.510 73.991 C 93.474 72.145, 94 70.665, 94 66.981 C 94 62.501, 91.987 59, 89.412 59 C 88.900 59, 87.919 58.100, 87.232 57 C 85.644 54.458, 78.909 54.234, 76.499 56.644 M 158.320 90.046 C 156.021 90.500, 149.496 93.309, 143.820 96.288 C 138.144 99.268, 129.787 103.178, 125.250 104.979 C 116.823 108.323, 116.274 108.961, 117.975 113.435 C 118.765 115.513, 119.614 116, 122.444 116 C 124.366 116, 127.706 115.079, 129.867 113.952 C 132.028 112.826, 135.079 111.813, 136.648 111.702 L 139.500 111.500 139.296 121.500 C 139.184 127, 138.418 134.875, 137.594 139 C 136.771 143.125, 135.610 148.975, 135.014 152 C 134.418 155.025, 133.530 158.400, 133.041 159.500 C 132.551 160.600, 131.932 162.625, 131.665 164 C 130.657 169.183, 122.256 191.788, 118.700 198.884 C 116.665 202.946, 115 206.905, 115 207.683 C 115 208.460, 114.100 210.959, 113 213.236 C 111.900 215.513, 111 217.985, 111 218.730 C 111 220.263, 106.705 229.136, 100.946 239.500 C 98.807 243.350, 96.778 247.175, 96.438 248 C 96.097 248.825, 95.357 250.625, 94.793 252 C 94.228 253.375, 93.369 255.281, 92.883 256.236 C 91.570 258.819, 91.812 261.599, 93.469 262.975 C 94.643 263.948, 95.687 263.822, 98.650 262.347 C 100.692 261.331, 102.667 259.825, 103.039 259 C 103.411 258.175, 104.455 256.081, 105.358 254.346 C 106.261 252.611, 107 250.274, 107 249.152 C 107 248.031, 107.960 246.441, 109.134 245.619 C 110.307 244.797, 111.344 243.309, 111.439 242.312 C 111.618 240.425, 112.922 237.175, 116.116 230.655 C 117.152 228.541, 118.004 226.291, 118.009 225.655 C 118.014 225.020, 119.125 222.250, 120.478 219.500 C 121.831 216.750, 122.952 213.993, 122.969 213.372 C 122.986 212.752, 123.675 211.685, 124.500 211 C 125.325 210.315, 126 208.895, 126 207.844 C 126 206.793, 127.054 203.811, 128.342 201.217 C 129.630 198.623, 131.288 194.272, 132.028 191.548 C 132.768 188.825, 134.414 184.639, 135.686 182.245 C 136.959 179.852, 138 176.604, 138 175.028 C 138 173.452, 138.647 170.888, 139.438 169.331 C 141.631 165.011, 145 153.694, 145 150.644 C 145 149.151, 145.648 146.933, 146.439 145.715 C 149.109 141.607, 150.610 117.690, 148.830 107.638 C 148.648 106.615, 149.175 105.421, 150 104.985 C 154.336 102.697, 164.867 98, 165.661 98 C 167.117 98, 174.290 107.054, 176.334 111.472 C 177.359 113.687, 178.674 116.503, 179.257 117.730 C 181.529 122.511, 179.605 172.023, 177.070 174 C 176.717 174.275, 175.922 176.750, 175.302 179.500 C 173.281 188.469, 171.920 193.362, 170.584 196.458 C 169.862 198.131, 168.441 201.525, 167.425 204 C 166.410 206.475, 164.601 209.850, 163.405 211.500 C 162.210 213.150, 160.943 215.453, 160.591 216.618 C 159.481 220.280, 156.532 222.161, 152.439 221.816 C 149.180 221.542, 148.239 220.836, 145.352 216.500 C 141.056 210.046, 137.983 207, 135.771 207 C 133.330 207, 133.521 208.140, 137.158 215.291 C 141.091 223.023, 145.272 227.590, 150.695 230.077 C 157.410 233.155, 160.133 232.665, 164.873 227.522 C 167.143 225.060, 169.008 222.472, 169.018 221.772 C 169.028 221.073, 170.378 218.520, 172.018 216.100 C 173.658 213.679, 175 210.922, 175 209.972 C 175 209.022, 175.675 207.685, 176.500 207 C 177.325 206.315, 178 204.701, 178 203.413 C 178 200.892, 180.449 192.601, 182.032 189.764 C 182.564 188.809, 183 187.211, 183 186.214 C 183 185.216, 183.547 183.853, 184.215 183.185 C 185.383 182.017, 187.019 172.375, 186.992 166.817 C 186.984 165.341, 187.629 162.191, 188.423 159.817 C 189.218 157.443, 189.846 153.700, 189.820 151.500 C 189.794 149.300, 189.859 141.815, 189.966 134.868 C 190.108 125.564, 189.743 121.009, 188.580 117.583 C 187.711 115.024, 187 111.571, 187 109.910 C 187 107.075, 180.550 96.076, 177.943 94.465 C 177.357 94.102, 176.466 92.724, 175.963 91.403 C 175.125 89.200, 174.528 89.009, 168.775 89.110 C 165.324 89.170, 160.619 89.591, 158.320 90.046 M 82.272 98.302 C 81.671 99.622, 78.326 102.645, 74.839 105.018 C 71.353 107.392, 66.876 110.691, 64.891 112.350 C 60.572 115.960, 52.617 118.937, 44.765 119.881 C 38.471 120.638, 37.557 121.229, 36.639 125.136 C 35.976 127.954, 38.057 130.701, 39.962 129.523 C 40.539 129.167, 42.608 129.452, 44.559 130.157 C 47.758 131.314, 48.536 131.212, 52.484 129.118 C 54.891 127.841, 57.289 127.061, 57.813 127.384 C 58.336 127.708, 59.830 127.191, 61.132 126.236 C 62.435 125.281, 65.300 123.618, 67.500 122.540 C 69.700 121.462, 72.438 119.476, 73.584 118.128 C 76.227 115.021, 78.432 116.092, 77.632 120.092 C 77.318 121.660, 75.923 124.746, 74.531 126.951 C 73.139 129.156, 72 131.368, 72 131.866 C 72 133.176, 69.963 136.829, 66.249 142.180 C 64.462 144.754, 63 147.147, 63 147.497 C 63 147.847, 61.875 149.608, 60.500 151.411 C 59.125 153.214, 58 155.261, 58 155.961 C 58 156.660, 55.300 160.278, 52 164 C 48.700 167.722, 46 171.042, 46 171.377 C 46 171.711, 41.512 176.546, 36.027 182.120 C 30.542 187.694, 25.769 193.153, 25.420 194.251 C 24.969 195.674, 25.659 197.121, 27.823 199.285 C 31.944 203.406, 32.162 203.267, 46.153 187.623 C 49.366 184.031, 49.785 183.847, 51.857 185.123 C 53.472 186.118, 54.035 187.332, 53.885 189.500 C 53.771 191.150, 54.178 194.300, 54.788 196.500 C 55.399 198.700, 56.461 203.988, 57.148 208.250 L 58.398 216 61.664 216 C 65.605 216, 67.325 213.447, 66.560 208.736 C 66.270 206.956, 65.811 201.630, 65.540 196.900 C 65.056 188.466, 65.095 188.278, 67.570 187.150 C 73.413 184.488, 85.869 186.611, 87.371 190.525 C 87.682 191.336, 89.052 192, 90.414 192 C 92.130 192, 93.296 192.845, 94.209 194.750 C 95.321 197.070, 96.151 197.500, 99.513 197.500 C 103.483 197.500, 103.503 197.480, 104.100 193 C 104.653 188.862, 104.442 188.260, 101.474 185.500 C 97.025 181.364, 96.301 180.885, 89.636 177.662 C 86.410 176.102, 82.939 175.044, 81.923 175.310 C 79.178 176.028, 77.754 173.778, 78.954 170.622 C 79.502 169.180, 80.592 168, 81.376 168 C 82.161 168, 83.739 166.537, 84.884 164.750 C 89.927 156.878, 93.892 152.431, 97.558 150.534 C 100.529 148.997, 101.580 147.797, 101.825 145.659 C 102.186 142.509, 99.666 139, 97.042 139 C 96.136 139, 92.405 142.262, 88.751 146.250 C 85.097 150.238, 79.845 155.975, 77.080 159 C 74.316 162.025, 72.042 164.788, 72.027 165.140 C 71.988 166.067, 61.095 177.003, 60.229 176.985 C 59.828 176.976, 58.854 176.560, 58.064 176.061 C 56.833 175.282, 56.883 174.587, 58.414 171.190 C 59.397 169.010, 61.506 166.263, 63.101 165.084 C 64.695 163.905, 66 162.272, 66 161.456 C 66 160.640, 66.423 159.191, 66.940 158.236 C 67.456 157.281, 68.152 155.215, 68.485 153.644 C 68.835 151.998, 69.905 150.576, 71.014 150.286 C 72.928 149.786, 78 142.256, 78 139.916 C 78 139.241, 79.121 137.219, 80.491 135.423 C 83.903 130.950, 89.802 119.256, 90.519 115.546 C 90.842 113.871, 91.830 110.805, 92.713 108.733 C 94.360 104.869, 94.342 104.749, 91.033 98 C 90.628 97.175, 88.738 96.365, 86.832 96.201 C 83.990 95.955, 83.169 96.334, 82.272 98.302" stroke="none" fill="black" fill-rule="evenodd"/>
</svg>