<svg xmlns="http://www.w3.org/2000/svg" width="300" height="300" viewBox="0 0 300 300" version="1.1">
	<path d="M 129.200 41.200 C 128.539 41.861, 127.986 45.119, 127.969 48.450 C 127.930 56.161, 126.353 68.390, 125.098 70.712 C 124.567 71.695, 123.555 74.638, 122.848 77.250 C 121.409 82.572, 119.440 83.380, 117.975 79.250 C 117.438 77.737, 116.549 75.719, 116 74.764 C 115.450 73.809, 115 71.874, 115 70.464 C 115 66.771, 112.254 62, 110.129 62 C 108.137 62, 105 64.961, 105 66.842 C 105 67.494, 105.406 68.809, 105.903 69.764 C 106.399 70.719, 107.381 73.442, 108.084 75.816 C 108.788 78.189, 111.082 82.083, 113.182 84.469 C 115.282 86.855, 117 89.205, 117 89.692 C 117 90.850, 113.935 96.833, 111.734 99.973 C 109.430 103.258, 109.544 106.278, 112.059 108.553 C 114.668 110.914, 116.555 109.855, 119.997 104.099 C 123.765 97.797, 129.394 95.471, 133.452 98.539 C 135.857 100.358, 144.608 99.518, 147.250 97.216 C 149.483 95.269, 149.491 90.640, 147.269 86.878 C 145.401 83.716, 145.928 83.761, 132.750 85.641 C 128.322 86.273, 128.029 85.283, 131 79.739 C 132.100 77.686, 133 74.746, 133 73.204 C 133 69.702, 134.638 68, 138.009 68 C 139.444 68, 141.491 67.339, 142.559 66.532 C 143.626 65.724, 145.244 65.049, 146.153 65.032 C 147.708 65.002, 155 55.262, 155 53.215 C 155 51.319, 150.804 47, 148.963 47 C 146.891 47, 145 49.767, 145 52.799 C 145 55.167, 141.339 60, 139.546 60 C 138.622 60, 138.022 57.430, 137.510 51.281 C 136.987 45.004, 136.324 42.213, 135.142 41.313 C 133.044 39.717, 130.727 39.673, 129.200 41.200 M 68.250 43.031 C 65.618 44.089, 65.286 47.533, 67.352 52.349 C 70.357 59.356, 72.481 69.945, 71.593 73.487 C 71.042 75.679, 70.422 75.998, 66.731 75.985 C 61.423 75.965, 60.873 75.569, 58.092 69.750 C 56.303 66.008, 55.306 65, 53.389 65 C 51.799 65, 50.582 65.823, 49.874 67.378 C 48.390 70.633, 51.018 76.003, 56.310 80.533 C 59.608 83.356, 61.181 84, 64.785 84 L 69.210 84 68.740 87.750 C 68.270 91.499, 66.800 96.053, 63.093 105.250 C 62.594 106.487, 61.469 109.421, 60.593 111.769 C 59.717 114.117, 57.876 117.821, 56.500 119.999 C 55.125 122.178, 54 124.228, 54 124.556 C 54 125.603, 45.145 136.702, 41.145 140.670 C 39.020 142.776, 37.055 145.744, 36.777 147.265 C 36.356 149.568, 36.682 150.133, 38.726 150.646 C 40.077 150.985, 42.918 150.742, 45.040 150.106 C 48.924 148.942, 51.582 146.088, 55.378 139.004 C 56.410 137.077, 58.435 134.075, 59.878 132.333 C 61.320 130.591, 63.323 127.984, 64.329 126.540 C 65.746 124.505, 66.646 124.080, 68.329 124.647 C 69.523 125.050, 73.650 125.428, 77.500 125.487 C 83.361 125.577, 85.029 125.213, 87.750 123.246 C 94.378 118.458, 91.119 115.215, 79.182 114.722 C 72.993 114.466, 72.475 114.270, 72.159 112.058 C 71.971 110.744, 72.760 107.993, 73.911 105.945 C 75.062 103.896, 76.057 100.933, 76.121 99.360 C 76.185 97.787, 76.573 95.600, 76.984 94.500 C 80.459 85.196, 82.073 69.872, 80.113 64.797 C 79.625 63.534, 78.664 60.025, 77.978 57 C 76.666 51.219, 72.483 41.955, 71.233 42.063 C 70.830 42.098, 69.487 42.534, 68.250 43.031 M 98.245 43.155 C 97.560 43.840, 97 45.236, 97 46.259 C 97 47.281, 95.456 49.778, 93.569 51.809 C 86.212 59.725, 83.804 63.046, 84.363 64.503 C 84.993 66.147, 89.535 66.561, 90.464 65.059 C 90.784 64.541, 93.064 63.110, 95.531 61.877 C 97.998 60.645, 101.025 58.071, 102.258 56.157 C 103.491 54.242, 105.160 51.655, 105.967 50.406 C 108.211 46.933, 106.363 42.589, 102.477 42.205 C 100.834 42.043, 98.930 42.470, 98.245 43.155 M 146.500 120.856 C 144.300 121.875, 140.025 123.273, 137 123.961 C 131.749 125.156, 112.241 134.624, 108.921 137.590 C 108.053 138.365, 106.779 139, 106.090 139 C 105.400 139, 102.149 140.575, 98.865 142.500 C 95.580 144.425, 91.847 146, 90.569 146 C 89.291 146, 87.712 146.643, 87.060 147.428 C 85.969 148.742, 83.781 150.009, 71 156.730 C 68.525 158.031, 65.825 159.525, 65 160.049 C 64.175 160.573, 61.475 161.896, 59 162.989 C 56.525 164.081, 53.825 165.416, 53 165.955 C 50.432 167.633, 38.443 172, 36.404 172 C 35.337 172, 32.843 170.898, 30.861 169.551 C 28.879 168.205, 26.070 166.805, 24.619 166.441 C 23.168 166.076, 21.750 165.404, 21.467 164.947 C 21.185 164.490, 18.938 163.813, 16.475 163.444 C 8.869 162.303, 4.247 167.198, 8.928 171.435 C 10.182 172.570, 11.598 172.945, 12.977 172.507 C 16.091 171.519, 24.765 174.863, 30.381 179.217 C 35.848 183.455, 37.299 183.707, 42.716 181.361 C 50.316 178.070, 51.383 177.450, 54.089 174.750 C 56.192 172.653, 57.811 172, 60.912 172 C 64.165 172, 66.129 171.128, 70.739 167.635 C 73.907 165.235, 77.625 162.949, 79 162.556 C 82.189 161.644, 88.057 159.187, 90 157.950 C 90.825 157.425, 92.418 156.593, 93.541 156.102 C 94.664 155.610, 96.181 154.486, 96.914 153.604 C 97.646 152.722, 99.066 152, 100.069 152 C 101.072 152, 104.521 150.460, 107.732 148.578 C 110.944 146.695, 115.581 144.371, 118.036 143.412 C 120.491 142.453, 123.694 140.843, 125.154 139.834 C 126.614 138.825, 128.308 138, 128.918 138 C 129.528 138, 130.809 137.616, 131.764 137.147 C 138.944 133.620, 141.335 132.654, 144.685 131.922 C 146.783 131.464, 149.737 130.792, 151.248 130.429 C 153.913 129.788, 153.977 129.870, 153.361 133.134 C 153.011 134.985, 152.112 137.210, 151.363 138.079 C 150.613 138.947, 150 140.147, 150 140.745 C 150 141.344, 148.780 142.722, 147.288 143.809 C 144.954 145.509, 144.762 146.008, 145.910 147.392 C 147.831 149.707, 151.712 149.406, 153.088 146.836 C 154.937 143.380, 163.250 136, 165.293 136 C 166.838 136, 167.048 135.494, 166.513 133.059 C 166.155 131.429, 166.384 129.152, 167.026 127.952 C 168.034 126.068, 167.756 125.344, 164.896 122.393 C 161.935 119.337, 161.055 119, 156.054 119.001 C 152.752 119.001, 148.878 119.753, 146.500 120.856 M 105.962 155.545 C 105.055 156.638, 104.732 160.517, 104.858 168.795 C 105.045 181.117, 104.248 184.342, 100.504 186.402 C 99.407 187.006, 97.382 188.193, 96.004 189.040 C 94.627 189.887, 90.800 191.602, 87.500 192.850 C 84.200 194.099, 80.107 195.802, 78.404 196.635 C 76.350 197.639, 74.109 197.923, 71.741 197.479 C 68.778 196.923, 67.988 197.154, 67.086 198.839 C 65.465 201.867, 65.762 204.427, 68.073 207.365 C 70.408 210.335, 72.957 210.677, 76.846 208.544 C 78.306 207.743, 82.425 205.906, 86 204.460 C 89.575 203.015, 93.720 201.328, 95.212 200.711 C 98.913 199.181, 99.674 200.363, 97.679 204.546 C 96.756 206.483, 96 209.092, 96 210.343 C 96 211.594, 95.339 213.491, 94.532 214.559 C 93.724 215.626, 93.049 217.519, 93.032 218.764 C 93.014 220.009, 92.572 221.809, 92.048 222.764 C 89.901 226.681, 84.553 240.875, 81.893 249.714 C 81.361 251.481, 80.493 253.196, 79.963 253.523 C 79.433 253.850, 79 254.735, 79 255.489 C 79 256.243, 77.650 259.777, 76 263.342 C 74.350 266.907, 73 270.148, 73 270.545 C 73 270.942, 71.425 274.357, 69.500 278.135 C 67.575 281.912, 66 285.509, 66 286.127 C 66 286.746, 64.650 289.909, 63 293.156 C 61.350 296.403, 60 299.271, 60 299.530 C 60 299.788, 62.255 300, 65.011 300 L 70.023 300 73.011 293.475 C 74.655 289.886, 76 286.496, 76 285.942 C 76 284.927, 79.499 278.069, 82.858 272.500 C 83.853 270.850, 84.948 267.757, 85.291 265.626 C 85.634 263.495, 86.563 261.020, 87.355 260.126 C 88.739 258.564, 92.403 249.011, 95.650 238.500 C 96.500 235.750, 97.826 232.306, 98.597 230.846 C 99.369 229.386, 100 227.275, 100 226.155 C 100 225.035, 100.450 223.840, 101 223.500 C 101.550 223.160, 102 221.820, 102 220.522 C 102 219.224, 102.633 216.888, 103.407 215.331 C 104.182 213.774, 105.241 211.375, 105.761 210 C 106.281 208.625, 108.461 203.900, 110.604 199.500 C 114.270 191.972, 114.706 191.481, 118 191.172 C 121.751 190.820, 125 188.561, 125 186.305 C 125 185.542, 124.066 183.656, 122.925 182.113 C 121.421 180.078, 120.215 179.427, 118.542 179.747 C 115.175 180.391, 114.532 178.507, 114.833 168.888 C 115.086 160.843, 114.930 160.070, 112.463 157.138 C 109.527 153.650, 107.872 153.244, 105.962 155.545 M 129.257 177.100 C 127.459 177.766, 127.246 178.464, 127.705 182.186 C 127.998 184.559, 128.972 187.269, 129.869 188.209 C 131.406 189.821, 131.750 189.806, 135.859 187.959 C 141.542 185.405, 142.615 185.481, 145.548 188.646 C 149.451 192.857, 148.897 205.236, 144.400 214.331 C 143.630 215.888, 143 217.999, 143 219.022 C 143 220.045, 142.550 221.160, 142 221.500 C 141.450 221.840, 141 222.747, 141 223.515 C 141 224.283, 139.732 227.069, 138.183 229.706 C 136.633 232.343, 133.657 237.650, 131.569 241.500 C 121.921 259.287, 118.124 262.975, 113.221 259.318 C 111.724 258.201, 110.364 256.436, 110.198 255.394 C 110.033 254.352, 109.508 252.600, 109.032 251.500 C 108.557 250.400, 107.573 248.045, 106.847 246.266 C 105.439 242.819, 103.475 241.423, 102.424 243.123 C 102.072 243.693, 102.090 247.020, 102.465 250.518 C 102.961 255.148, 103.968 258.118, 106.166 261.437 C 109.153 265.946, 113.770 270, 115.918 270 C 116.528 270, 117.900 270.545, 118.968 271.212 C 120.625 272.247, 121.463 271.975, 124.704 269.354 C 126.792 267.665, 128.663 265.453, 128.863 264.438 C 129.062 263.422, 130.916 260.546, 132.982 258.046 C 136.411 253.896, 145 238.034, 145 235.851 C 145 235.347, 146.974 230.969, 149.386 226.122 C 151.798 221.274, 154.099 215.327, 154.499 212.904 C 154.899 210.482, 155.934 207.286, 156.798 205.803 C 158.075 203.610, 158.147 202.619, 157.185 200.506 C 156.533 199.076, 156 195.382, 156 192.297 C 156 185.617, 153.058 180.951, 147.190 178.326 C 143.234 176.555, 132.680 175.834, 129.257 177.100" stroke="none" fill="black" fill-rule="evenodd"/>
</svg>