<svg xmlns="http://www.w3.org/2000/svg" width="300" height="300" viewBox="0 0 300 300" version="1.1">
	<path d="M 107.557 5.223 C 106.701 6.445, 106 8.176, 106 9.069 C 106 12.133, 102.835 17.034, 99.865 18.570 C 98.231 19.415, 96.018 20.982, 94.947 22.053 C 92.132 24.868, 89.167 24.531, 87.871 21.250 C 87.274 19.738, 86.383 17.719, 85.892 16.764 C 85.402 15.809, 85 13.986, 85 12.714 C 85 7.661, 78.710 6.003, 76.964 10.595 C 76.001 13.128, 76.452 16.065, 79.147 24.798 C 80.196 28.200, 79.083 30.956, 76.628 31.038 C 73.954 31.127, 64.489 36.647, 64.176 38.299 C 63.263 43.110, 70.019 47.092, 73 43.500 C 76.006 39.878, 80.288 43.042, 79.309 48.162 C 78.926 50.169, 79.274 50.952, 80.761 51.424 C 81.838 51.766, 83.452 51.764, 84.348 51.420 C 86.030 50.774, 88.582 43.806, 88.237 40.800 C 88.012 38.844, 95.880 32, 98.353 32 C 100.155 32, 100.655 35.477, 99 36.500 C 98.450 36.840, 98 38.223, 98 39.573 C 98 40.923, 97.598 42.809, 97.106 43.764 C 95.275 47.320, 94.215 56.377, 95.340 58.847 C 96.265 60.877, 96.080 61.517, 94.103 63.117 C 92.825 64.153, 91.186 65, 90.462 65 C 89.738 65, 88.192 66.212, 87.026 67.694 C 85.861 69.175, 83.109 71.927, 80.910 73.809 C 77.052 77.112, 76.844 77.169, 74.956 75.460 C 73.880 74.487, 73 73.145, 73 72.480 C 73 71.814, 72.067 70.084, 70.927 68.635 C 68.281 65.270, 64.357 65.122, 62.895 68.332 C 61.818 70.695, 62.680 73.631, 66.320 80 C 68.968 84.633, 72 91.181, 72 92.266 C 72 92.858, 72.582 94.053, 73.293 94.921 C 74.004 95.790, 75.159 98.300, 75.859 100.500 C 76.559 102.700, 77.512 105.400, 77.975 106.500 C 78.439 107.600, 79.070 109.287, 79.378 110.250 C 80.099 112.506, 84.722 112.562, 87.172 110.345 C 89.316 108.404, 99.958 104.624, 100.828 105.494 C 101.156 105.823, 100.879 106.964, 100.212 108.032 C 99.545 109.099, 98.995 110.766, 98.988 111.736 C 98.981 112.706, 97.856 115.458, 96.488 117.852 C 95.120 120.246, 94 123.025, 94 124.029 C 94 126.917, 87.469 131.566, 74.500 137.912 C 54.467 147.713, 43.235 153, 42.448 153 C 42.037 153, 38.055 154.301, 33.600 155.892 C 23.775 159.399, 19.665 160.612, 14.758 161.449 C 11.862 161.943, 10.874 162.652, 10.390 164.584 C 9.621 167.646, 12.313 171, 15.540 171 C 19.008 171, 28.365 167.838, 29.699 166.216 C 30.472 165.275, 31.782 164.979, 33.388 165.382 C 34.757 165.726, 36.149 165.568, 36.481 165.031 C 36.813 164.494, 38.978 163.567, 41.292 162.970 C 43.606 162.374, 48.200 160.615, 51.500 159.061 C 54.800 157.507, 59.269 155.673, 61.432 154.987 C 63.594 154.301, 66.246 152.917, 67.324 151.913 C 68.402 150.909, 71.295 149.142, 73.752 147.987 C 81.906 144.154, 80.855 147.008, 69.271 160.158 C 61.235 169.281, 34.903 201.134, 26.069 212.418 C 23.632 215.531, 19.695 219.870, 17.319 222.060 C 14.944 224.250, 13 226.281, 13 226.574 C 13 227.333, 2.221 240.745, 1.009 241.495 C -0.345 242.331, -0.309 254, 1.048 254 C 2.505 254, 12 244.367, 12 242.888 C 12 242.224, 14.362 239.135, 17.250 236.023 C 29.644 222.666, 31.562 220.400, 32.702 217.772 C 33.363 216.247, 34.361 215, 34.920 215 C 35.479 215, 36.513 213.920, 37.218 212.600 C 37.923 211.280, 40.624 208.452, 43.221 206.315 C 45.817 204.179, 49.409 200.197, 51.203 197.466 C 52.997 194.735, 55.500 191.669, 56.764 190.653 C 59.059 188.808, 65.026 180.084, 66.289 176.726 C 66.656 175.750, 67.800 174.625, 68.832 174.226 C 70.784 173.471, 77.920 165.643, 80.790 161.109 C 81.698 159.674, 84.142 156.446, 86.221 153.936 C 88.299 151.425, 90 149.032, 90 148.617 C 90 147.141, 102.551 134.753, 105.500 133.318 C 107.150 132.515, 110.975 130.518, 114 128.880 C 117.025 127.242, 122.200 125.003, 125.500 123.906 C 131.688 121.847, 136 118.231, 136 115.099 C 136 114.115, 136.900 112.495, 138 111.500 C 139.100 110.505, 140 109.310, 140 108.845 C 140 107.647, 131.608 107.792, 130.388 109.012 C 129.832 109.568, 127.829 110.853, 125.938 111.867 C 116.265 117.051, 112.412 119.252, 111.550 120.083 C 111.028 120.588, 109.513 121, 108.183 121 C 106.054 121, 105.845 120.674, 106.428 118.250 C 108.546 109.446, 108.856 107.189, 108.349 104.278 C 107.894 101.664, 108.415 100.248, 111.108 96.778 C 112.934 94.425, 115.457 91.509, 116.714 90.298 C 117.971 89.087, 119 87.556, 119 86.897 C 119 86.238, 120.237 83.179, 121.749 80.100 C 125.547 72.364, 125.488 64.396, 121.585 57.736 C 118.400 52.300, 116.641 51.898, 108.104 54.656 C 102.922 56.329, 100.646 55.954, 102.817 53.783 C 103.467 53.133, 104 51.874, 104 50.987 C 104 50.100, 105.125 47.042, 106.500 44.192 C 107.875 41.342, 109 37.909, 109 36.564 C 109 35.219, 109.450 33.840, 110 33.500 C 110.550 33.160, 111 31.526, 111 29.869 C 111 26.067, 115.648 18.002, 117.845 17.993 C 120.491 17.982, 124.190 11.695, 123.820 7.836 C 123.515 4.658, 123.326 4.513, 119.830 4.783 C 117.811 4.939, 115.872 4.602, 115.521 4.033 C 114.335 2.115, 109.196 2.882, 107.557 5.223 M 106.676 67.372 C 105.783 68.734, 104.029 70.161, 102.777 70.542 C 101.524 70.924, 99.825 71.812, 99 72.516 C 98.175 73.219, 95.642 74.414, 93.372 75.170 C 89.252 76.544, 81 83.098, 81 84.997 C 81 86.451, 83.092 86.226, 84.921 84.575 C 86.910 82.781, 103.631 76, 106.067 76 C 107.065 76, 108.160 76.450, 108.500 77 C 108.840 77.550, 109.991 78, 111.059 78 C 112.668 78, 113.029 77.230, 113.167 73.500 C 113.258 71.025, 113.371 68.213, 113.417 67.250 C 113.556 64.321, 108.617 64.410, 106.676 67.372 M 99 89.500 C 97.625 90.286, 95.791 90.945, 94.924 90.965 C 94.058 90.984, 92.292 92.125, 91 93.500 C 89.708 94.875, 87.830 96, 86.826 96 C 85.822 96, 85 96.675, 85 97.500 C 85 99.819, 87.466 99.293, 92.488 95.903 C 95.012 94.200, 98.297 92.480, 99.788 92.081 C 101.280 91.682, 102.645 90.601, 102.823 89.678 C 103.214 87.652, 102.307 87.610, 99 89.500 M 101.354 142.732 C 100.174 142.941, 98.394 144.012, 97.399 145.112 C 95.968 146.693, 95.824 147.489, 96.714 148.913 C 97.510 150.188, 97.580 153.605, 96.955 160.607 C 96.469 166.048, 96.049 173.425, 96.021 177 C 95.947 186.501, 94.780 188.230, 86 191.834 C 84.625 192.398, 80.575 194.173, 77 195.777 C 73.425 197.382, 68.398 199.462, 65.829 200.400 C 60.135 202.479, 58.580 204.190, 59.404 207.472 C 60.110 210.286, 64.440 211.960, 66.273 210.127 C 66.893 209.507, 69.083 209, 71.141 209 C 73.199 209, 75.166 208.540, 75.514 207.978 C 76.101 207.028, 87.294 201, 88.471 201 C 89.307 201, 89.087 204.851, 88.143 206.764 C 87.671 207.719, 86.546 209.919, 85.643 211.654 C 84.739 213.389, 84 215.426, 84 216.181 C 84 216.935, 81.975 221.554, 79.500 226.445 C 77.025 231.336, 75 235.900, 75 236.588 C 75 237.275, 74.387 239.112, 73.637 240.669 C 70.022 248.178, 67.091 254.956, 65.495 259.500 C 64.529 262.250, 62.939 265.850, 61.961 267.500 C 60.983 269.150, 59.286 273.251, 58.191 276.612 C 57.095 279.974, 55.029 284.578, 53.599 286.843 C 52.170 289.107, 51 291.364, 51 291.858 C 51 292.351, 50.375 293.274, 49.611 293.908 C 48.847 294.542, 48.009 296.172, 47.749 297.531 C 47.291 299.929, 47.445 300, 53.139 300 C 58.969 300, 59 299.984, 59 297.035 C 59 295.094, 59.690 293.701, 61 293 C 62.100 292.411, 63 291.022, 63 289.912 C 63 288.802, 64.125 286.238, 65.500 284.215 C 66.875 282.191, 68 279.570, 68 278.390 C 68 277.210, 68.653 275.703, 69.451 275.041 C 70.249 274.378, 71.217 271.736, 71.602 269.168 C 71.987 266.601, 72.843 264.050, 73.504 263.500 C 75.045 262.217, 83.620 242.522, 84.491 238.261 C 84.856 236.480, 85.569 234.766, 86.077 234.452 C 86.585 234.139, 87 233.254, 87 232.485 C 87 231.717, 88.125 229.431, 89.500 227.405 C 90.875 225.379, 92 222.933, 92 221.970 C 92 221.007, 93.575 217.033, 95.500 213.137 C 97.425 209.242, 99 205.648, 99 205.150 C 99 204.652, 99.675 203.685, 100.500 203 C 101.325 202.315, 102 200.771, 102 199.569 C 102 195.523, 104.272 193.906, 112.043 192.425 C 125.520 189.854, 130.790 190.760, 133.563 196.123 C 134.794 198.502, 135.057 200.646, 134.583 204.416 C 134.231 207.212, 133.802 210.850, 133.630 212.500 C 132.586 222.495, 130.135 231.718, 127.324 236.230 C 126.046 238.282, 125 240.341, 125 240.806 C 125 241.271, 123.875 242.708, 122.500 244 C 121.125 245.292, 120 247.082, 120 247.978 C 120 250.180, 113.863 256, 111.540 256 C 108.008 256, 100.879 250.954, 99.396 247.405 C 97.816 243.624, 96.876 243.240, 94.933 245.581 C 93.903 246.821, 93.877 247.573, 94.810 249.068 C 95.465 250.116, 96 252.051, 96 253.368 C 96 256.245, 100.600 260.012, 108.564 263.658 C 115.976 267.051, 117.902 266.397, 123.471 258.593 C 125.979 255.078, 128.587 251.984, 129.266 251.717 C 129.945 251.450, 131.581 248.478, 132.902 245.112 C 134.223 241.747, 135.911 238.489, 136.652 237.874 C 137.393 237.259, 138 236.149, 138 235.408 C 138 234.667, 138.827 232.585, 139.837 230.780 C 140.872 228.932, 141.975 224.225, 142.363 220 C 142.742 215.875, 143.570 209.677, 144.203 206.227 C 145.081 201.441, 145.075 199.675, 144.177 198.777 C 143.530 198.130, 143 196.796, 143 195.813 C 143 193.275, 137.880 186.185, 135.500 185.428 C 134.400 185.079, 131.585 183.859, 129.246 182.717 C 125.254 180.769, 124.431 180.716, 115.941 181.846 C 110.964 182.509, 106.547 182.838, 106.126 182.578 C 105.328 182.085, 105.515 174.358, 106.604 162.692 C 107.183 156.501, 107.033 155.664, 104.950 153.446 C 103.690 152.105, 102.931 150.735, 103.264 150.403 C 104.348 149.319, 118.432 152.108, 121 153.916 C 122.375 154.883, 125.497 155.992, 127.939 156.379 C 130.380 156.767, 133.980 157.935, 135.939 158.975 C 137.897 160.015, 141.300 161.403, 143.500 162.060 C 145.700 162.716, 148.175 163.758, 149 164.376 C 152.316 166.860, 155.116 168, 157.902 168 C 159.860 168, 161.769 168.994, 163.662 171 C 165.219 172.650, 167.029 174, 167.684 174 C 168.338 174, 171.721 175.950, 175.202 178.333 C 178.683 180.716, 182.748 182.971, 184.236 183.345 C 185.725 183.718, 187.421 184.918, 188.006 186.012 C 189.333 188.490, 191.196 188.546, 193.345 186.171 C 195.729 183.537, 195.440 178.745, 192.750 176.321 C 191.512 175.207, 186.900 172.541, 182.500 170.397 C 178.100 168.254, 172.975 165.488, 171.110 164.250 C 169.246 163.012, 166.771 161.998, 165.610 161.996 C 164.450 161.994, 161.925 161.031, 160 159.855 C 156.687 157.832, 150.365 155.224, 138.061 150.803 C 135.069 149.728, 131.706 148.207, 130.588 147.424 C 129.470 146.641, 127.585 146, 126.400 146 C 125.214 146, 122.727 145.384, 120.872 144.631 C 117.430 143.235, 105.228 142.047, 101.354 142.732" stroke="none" fill="black" fill-rule="evenodd"/>
</svg>