<svg xmlns="http://www.w3.org/2000/svg" width="300" height="300" viewBox="0 0 300 300" version="1.1">
	<path d="M 97.918 2.866 C 95.622 4.725, 95.585 4.960, 96.929 9.148 C 97.697 11.542, 98.501 19.170, 98.716 26.100 L 99.107 38.700 96.459 40.435 C 92.337 43.136, 86.772 41.160, 84.941 36.345 C 84.373 34.851, 82.934 33.891, 80.610 33.455 C 76.315 32.649, 75 33.392, 75 36.625 C 75 40.284, 76.635 42.762, 80.280 44.629 C 82.051 45.537, 83.807 46.755, 84.182 47.338 C 84.556 47.920, 87.776 48.582, 91.336 48.809 C 97.402 49.195, 97.841 49.387, 98.314 51.860 C 99.017 55.538, 96.197 60, 93.171 60 C 91.852 60, 89.136 60.845, 87.136 61.878 C 85.136 62.911, 82.259 64.252, 80.742 64.860 C 76.827 66.428, 74.261 72.082, 75.866 75.604 C 76.993 78.079, 77.392 78.218, 81.687 77.629 C 84.223 77.282, 86.863 76.529, 87.552 75.957 C 88.242 75.384, 90.200 74.516, 91.903 74.028 C 94.897 73.169, 95.002 73.245, 95.048 76.320 C 95.124 81.379, 98.068 86.289, 102.250 88.332 C 104.313 89.340, 106 90.509, 106 90.929 C 106 91.349, 104.425 93.315, 102.500 95.297 C 100.575 97.279, 99 99.220, 99 99.610 C 99 100, 96.525 102.914, 93.500 106.085 C 87.921 111.934, 87.225 113.833, 88.975 118.435 C 90.483 122.401, 95.026 121.869, 102.780 116.818 C 110.825 111.576, 112.500 112.141, 112.500 120.094 L 112.500 125.470 107.500 127.880 C 99.897 131.543, 93.261 133.841, 88.134 134.584 C 85.585 134.953, 82.713 135.664, 81.750 136.163 C 79.204 137.483, 79.607 140.513, 82.589 142.467 C 86.570 145.075, 97.551 143.110, 104.301 138.582 C 106.427 137.156, 107.382 136.982, 108.263 137.863 C 109.762 139.362, 109.473 146.725, 107.839 148.695 C 107.145 149.530, 106.099 151.178, 105.514 152.357 C 104.929 153.535, 103.336 154.626, 101.975 154.781 C 99.697 155.039, 89.422 157.182, 74.500 160.511 C 71.200 161.247, 64.900 162.646, 60.500 163.619 C 56.100 164.592, 52.050 165.699, 51.500 166.079 C 50.950 166.458, 48.925 167.095, 47 167.492 C 40.873 168.759, 36.950 174.135, 40.250 176.743 C 42.463 178.493, 47.411 178.912, 49.002 177.485 C 50.403 176.230, 66.601 171.527, 73.615 170.340 L 76.729 169.813 77.606 180.156 C 78.088 185.845, 78.416 191.625, 78.335 193 C 77.773 202.460, 76.759 210.581, 75.950 212.093 C 75.428 213.069, 75 215.503, 75 217.500 C 75 219.497, 74.445 222.114, 73.767 223.316 C 73.088 224.517, 72.490 226.400, 72.438 227.500 C 72.385 228.600, 72.265 231.159, 72.171 233.187 C 72.010 236.661, 71.496 237.204, 63.250 242.607 C 58.438 245.760, 54.273 248.673, 53.996 249.082 C 53.220 250.223, 41.048 257.662, 36 260.081 C 33.525 261.267, 30.855 262.551, 30.067 262.935 C 27.468 264.202, 26.498 266.690, 27.930 268.416 C 29.788 270.654, 34.259 270.417, 35.768 268 C 36.455 266.900, 37.495 266, 38.078 266 C 38.662 266, 41.102 264.650, 43.500 263 C 45.898 261.350, 48.301 260, 48.840 260 C 49.379 260, 52.098 258.200, 54.881 256 C 57.664 253.800, 60.249 252, 60.626 252 C 61.003 252, 62.758 250.897, 64.526 249.548 C 66.866 247.763, 68.856 247.140, 71.836 247.259 C 75.525 247.406, 76.359 246.956, 80.256 242.711 C 82.635 240.120, 84.943 238, 85.386 238 C 85.829 238, 87.386 237.156, 88.846 236.124 C 90.306 235.093, 92.929 233.939, 94.676 233.561 C 96.473 233.172, 98.594 231.742, 99.559 230.270 C 101.177 227.801, 101.170 227.598, 99.441 226.333 C 96.936 224.501, 95.250 224.658, 92.273 227 C 90.874 228.100, 89.110 229, 88.352 229 C 87.593 229, 86.090 229.551, 85.011 230.225 C 81.716 232.283, 80.998 230.211, 82.414 222.727 C 83.858 215.094, 86.216 211.836, 92.500 208.789 C 94.700 207.722, 97.625 206.215, 99 205.439 C 103.464 202.922, 105.729 203.557, 106.184 207.454 C 106.852 213.174, 104.331 243.621, 101.098 268.886 C 99.862 278.548, 100.800 281.242, 105.249 280.813 C 108.040 280.544, 108.680 279.949, 109.770 276.609 C 110.469 274.469, 111.116 269.181, 111.208 264.859 C 111.370 257.252, 111.453 257, 113.801 257 C 117.485 257, 123.793 253.016, 125.981 249.308 C 127.054 247.488, 128.343 246, 128.845 246 C 130.126 246, 137.325 236.437, 140.345 230.724 C 143.784 224.218, 153.004 212.786, 154.381 213.321 C 154.997 213.560, 158.597 215.836, 162.382 218.378 C 166.168 220.920, 169.609 223, 170.030 223 C 170.995 223, 183.077 230.319, 188.003 233.887 C 190.042 235.364, 193.688 238.467, 196.105 240.782 C 206.195 250.447, 213.198 256.706, 217.609 260 C 220.186 261.925, 228.146 269.275, 235.297 276.332 C 249.696 290.541, 252.614 292.074, 254.311 286.318 C 255.189 283.342, 254.889 282.729, 249.664 276.818 C 246.592 273.343, 241.084 268.025, 237.426 265 C 225.683 255.291, 214.610 245.793, 210.500 241.903 C 206.873 238.470, 202.348 234.635, 192.596 226.730 C 190.716 225.206, 187.093 222.731, 184.544 221.230 C 181.994 219.728, 178.435 217.600, 176.634 216.500 C 174.833 215.400, 170.986 213.150, 168.084 211.500 C 158.125 205.836, 158.299 206.130, 161.528 200.432 C 163.065 197.720, 164.975 194.229, 165.772 192.676 C 166.568 191.123, 167.825 189.621, 168.564 189.337 C 169.303 189.053, 170.864 186.724, 172.031 184.161 C 173.199 181.597, 174.733 178.375, 175.440 177 C 176.148 175.624, 176.513 172.807, 176.252 170.736 C 175.991 168.666, 176.262 166.389, 176.854 165.676 C 178.290 163.946, 173.537 157.173, 170.322 156.366 C 169.045 156.045, 168 155.443, 168 155.028 C 168 153.959, 176.418 152.934, 179.737 153.597 C 183.435 154.337, 187.533 150.261, 186.646 146.727 C 185.410 141.803, 183.209 141.703, 160.500 145.544 C 125.677 151.433, 119.835 152.239, 118.907 151.286 C 118.486 150.854, 117.837 149.267, 117.465 147.759 C 116.964 145.730, 117.205 144.859, 118.394 144.402 C 119.334 144.042, 120 142.637, 120 141.015 C 120 134.357, 127.051 126, 132.669 126 C 133.803 126, 135.939 125.050, 137.415 123.888 C 139.746 122.055, 140.061 121.164, 139.800 117.138 C 139.541 113.132, 139.179 112.455, 137.144 112.167 C 135.775 111.973, 132.709 113.125, 129.827 114.917 C 123.902 118.600, 123.409 118.657, 122.630 115.750 C 120.443 107.588, 124.162 103.822, 134 104.239 C 139.128 104.456, 140.397 104.175, 141.580 102.559 C 143.712 99.644, 143.306 97.167, 140.265 94.552 C 137.835 92.461, 136.713 92.235, 130.181 92.521 C 125.827 92.711, 122.153 93.407, 121.166 94.228 C 119.046 95.991, 113.883 98.217, 113.290 97.623 C 112.433 96.767, 114.934 93.483, 121 87.500 C 124.345 84.200, 127.341 80.375, 127.656 79 C 127.972 77.625, 129.356 74.826, 130.731 72.779 C 132.518 70.120, 133.049 68.330, 132.591 66.507 C 132.108 64.582, 132.386 63.821, 133.725 63.405 C 134.701 63.102, 136.281 62.437, 137.236 61.927 C 138.191 61.417, 140.441 60.998, 142.236 60.996 C 146.962 60.991, 152 57.639, 152 54.500 C 152 52.719, 151.038 51.384, 148.750 49.989 C 144.914 47.650, 142.224 47.516, 139.559 49.532 C 138.491 50.339, 136.004 51, 134.031 51 C 132.059 51, 129.545 51.630, 128.446 52.400 C 126.443 53.803, 115 55.729, 115 54.663 C 115 53.668, 122.367 46.835, 126.210 44.266 C 128.251 42.903, 131.832 39.247, 134.167 36.143 C 136.503 33.039, 139.460 29.668, 140.740 28.651 C 143.407 26.532, 148 17.994, 148 15.156 C 148 14.105, 147.331 12.690, 146.513 12.011 C 143.444 9.464, 140.612 11.781, 133.116 22.974 C 129.055 29.038, 125.369 34, 124.925 34 C 123.302 34, 122.863 31.870, 124.164 30.300 C 125.118 29.148, 125.475 25.442, 125.414 17.333 C 125.335 6.886, 125.142 5.780, 123.002 3.502 C 121.330 1.723, 120.328 1.313, 119.442 2.048 C 117.585 3.589, 116.872 9.075, 118.018 13.007 C 119.045 16.533, 117.600 30.307, 115.973 32.500 C 115.565 33.050, 114.918 34.962, 114.536 36.750 C 113.983 39.338, 114.163 40, 115.421 40 C 116.289 40, 117 40.393, 117 40.874 C 117 42.517, 110.362 49, 108.679 49 C 106.528 49, 106.517 46.191, 108.659 43.825 C 110.017 42.323, 110.109 41.534, 109.164 39.460 C 108.530 38.068, 107.485 30.307, 106.844 22.214 C 105.347 3.347, 103.165 -1.384, 97.918 2.866 M 109.041 68.451 C 108.378 69.249, 105.826 70.204, 103.368 70.572 C 97.925 71.388, 97.893 72.984, 103.232 77.302 L 106.964 80.320 111.081 78.464 C 115.407 76.513, 120 71.462, 120 68.656 C 120 67.341, 118.995 67, 115.122 67 C 112.080 67, 109.792 67.546, 109.041 68.451 M 154.772 156.047 C 151.071 156.478, 146.545 157.325, 144.713 157.930 C 142.881 158.534, 139.834 158.986, 137.941 158.933 C 132.141 158.772, 119.988 159.888, 118.709 160.700 C 118.044 161.122, 114.800 161.770, 111.500 162.140 C 99.035 163.538, 91.374 164.940, 87.617 166.513 L 83.734 168.138 84.310 173.711 C 84.626 176.777, 85.323 179.723, 85.858 180.258 C 86.915 181.315, 95.482 178.604, 97.838 176.467 C 98.931 175.475, 98.942 174.879, 97.898 173.208 C 96.171 170.443, 98.188 168, 102.199 168 C 105.587 168, 111 172.737, 111 175.701 C 111 176.720, 111.618 178.443, 112.372 179.527 C 113.703 181.441, 115.462 202.871, 115.242 214.500 C 115.086 222.808, 114.010 240.287, 113.442 243.750 C 113.149 245.537, 113.198 247, 113.550 247 C 115.267 247, 119.907 243.427, 121.339 241.004 C 122.224 239.505, 124.524 236.529, 126.451 234.389 C 128.377 232.250, 129.964 230.166, 129.977 229.758 C 129.990 229.349, 130.879 227.999, 131.953 226.758 C 133.027 225.516, 136.209 220.675, 139.024 216 C 144.673 206.616, 144.660 205.626, 138.850 202.832 C 136.942 201.914, 134.790 200.452, 134.068 199.582 C 133.346 198.712, 132.214 198, 131.552 198 C 129.697 198, 125.997 193.603, 126.028 191.436 C 126.055 189.506, 135.258 179.445, 146.551 168.997 C 152.690 163.318, 161.793 157, 163.838 157 C 164.477 157, 165 156.550, 165 156 C 165 154.903, 164.572 154.905, 154.772 156.047 M 153.429 173.993 C 148.518 178.440, 142.868 182.942, 140.873 183.997 C 136.925 186.085, 135.405 188.578, 136.947 190.436 C 137.486 191.086, 140.461 193.362, 143.557 195.495 C 150.427 200.226, 151.959 199.584, 156.738 189.967 C 157.157 189.124, 158.303 187.324, 159.284 185.967 C 164.661 178.530, 166.041 175.606, 166.264 171.185 C 166.638 163.768, 164.112 164.321, 153.429 173.993 M 99 184.500 C 97.417 187.061, 96.121 188.009, 94.168 188.033 C 90.415 188.080, 87.003 191.227, 86.985 194.660 C 86.976 196.222, 86.568 198.134, 86.077 198.909 C 84.924 200.731, 85.806 203, 87.666 203 C 88.464 203, 90.778 201.713, 92.809 200.140 C 94.839 198.567, 98.525 195.966, 101 194.359 C 106.083 191.060, 107.231 187.527, 104.550 183.435 C 102.423 180.190, 101.562 180.355, 99 184.500" stroke="none" fill="black" fill-rule="evenodd"/>
</svg>