<svg xmlns="http://www.w3.org/2000/svg" width="300" height="300" viewBox="0 0 300 300" version="1.1">
	<path d="M 161.204 47.282 C 159.853 48.721, 155.927 50.538, 151.237 51.896 C 146.982 53.129, 142.150 54.603, 140.500 55.173 C 136.455 56.571, 125.812 58.610, 112.500 60.538 C 106.450 61.414, 99.925 62.742, 98 63.488 C 96.075 64.235, 89.550 65.362, 83.500 65.992 C 66.988 67.714, 62 69.728, 62 74.676 C 62 78.247, 65.993 79.721, 71.314 78.116 C 73.616 77.422, 77.525 76.479, 80 76.021 C 82.475 75.564, 85.431 74.890, 86.570 74.525 C 90.382 73.302, 90.812 75.494, 89.997 92 C 89.577 100.525, 89.009 108.175, 88.736 109 C 87.011 114.216, 82.284 131.795, 80.938 138 C 80.520 139.925, 79.073 144.425, 77.722 148 C 76.371 151.575, 74.461 156.750, 73.478 159.500 C 70.586 167.589, 63.961 184.009, 60.868 190.753 C 59.291 194.192, 58 197.456, 58 198.006 C 58 198.557, 57.100 200.686, 56 202.739 C 54.900 204.791, 54 207.202, 54 208.096 C 54 208.990, 52.890 211.357, 51.533 213.357 C 50.176 215.357, 47.858 219.582, 46.383 222.746 C 44.908 225.911, 42.224 231.650, 40.419 235.500 C 38.615 239.350, 36.872 243.450, 36.546 244.611 C 35.800 247.270, 39.064 251.573, 41.204 250.752 C 42.950 250.082, 50 236.715, 50 234.075 C 50 233.104, 50.900 231.495, 52 230.500 C 53.100 229.505, 54 227.592, 54 226.249 C 54 224.907, 54.847 222.614, 55.883 221.154 C 58.844 216.981, 62 211.060, 62 209.681 C 62 208.989, 62.894 206.670, 63.986 204.528 C 65.078 202.386, 66.856 198.076, 67.938 194.951 C 69.019 191.826, 70.563 187.746, 71.369 185.884 C 72.174 184.023, 73.496 180.925, 74.307 179 C 76.392 174.049, 80.978 163.781, 81.901 162 C 82.328 161.175, 83.460 157.800, 84.416 154.500 C 85.373 151.200, 87.069 146.475, 88.187 144 C 89.305 141.525, 90.631 136.600, 91.133 133.056 C 91.636 129.512, 93.184 123.460, 94.574 119.606 C 95.964 115.753, 97.290 109.878, 97.521 106.550 C 99.258 81.482, 99.932 76.623, 101.957 74.598 C 103.075 73.481, 105.004 72.517, 106.245 72.456 C 107.485 72.395, 110.750 71.828, 113.500 71.196 C 116.250 70.563, 122.640 69.611, 127.699 69.079 C 132.759 68.547, 137.949 67.424, 139.233 66.583 C 140.517 65.741, 144.478 64.635, 148.034 64.125 C 156.091 62.968, 164.670 59.645, 168.158 56.329 C 170.676 53.936, 170.753 53.583, 169.620 49.651 C 168.141 44.521, 164.707 43.554, 161.204 47.282 M 132 89.580 C 127.325 91.980, 122.883 94.856, 122.128 95.972 C 120.270 98.719, 117.574 98.524, 115.592 95.500 C 113.706 92.621, 112.726 92.417, 110.671 94.472 C 108.832 96.311, 109.795 101.314, 112.978 106.465 C 114.197 108.437, 114.945 110.701, 114.640 111.495 C 114.335 112.290, 114.934 114.866, 115.971 117.220 C 117.007 119.574, 118.079 124.525, 118.352 128.223 C 118.625 131.921, 119.148 135.430, 119.513 136.021 C 119.925 136.688, 121.805 136.852, 124.470 136.452 C 127.176 136.047, 129.014 136.214, 129.441 136.904 C 130.442 138.524, 136.560 138.235, 138 136.500 C 138.685 135.675, 140.106 135, 141.158 135 C 143.407 135, 148 132.191, 148 130.814 C 148 130.289, 149.800 127.724, 152 125.115 C 154.200 122.506, 156 119.457, 156 118.339 C 156 116.143, 158.599 110.366, 159.968 109.520 C 161.233 108.738, 159.982 101.030, 157.865 96.562 C 156.839 94.396, 156 92.074, 156 91.401 C 156 90.728, 154.615 89.013, 152.923 87.589 C 148.207 83.620, 142.566 84.157, 132 89.580 M 139.500 98.014 C 137.505 99.344, 135.599 99.823, 133.813 99.442 C 131.597 98.969, 130.412 99.603, 127.063 103.055 C 122.772 107.476, 121.885 111.093, 124.286 114.377 C 125.485 116.017, 126.102 115.856, 133.362 112.009 C 139.574 108.718, 141.997 107.945, 145.326 108.191 L 149.500 108.500 149.806 104.288 C 150.386 96.292, 146.045 93.649, 139.500 98.014 M 138.033 119.550 C 136.676 120.885, 133.751 122.581, 131.533 123.317 C 128.690 124.261, 127.406 125.299, 127.180 126.833 C 126.728 129.906, 128.953 130.383, 134.806 128.469 C 138.679 127.202, 140.463 125.898, 142.465 122.874 C 143.900 120.705, 144.806 118.496, 144.478 117.965 C 143.458 116.314, 140.608 117.015, 138.033 119.550 M 131.298 147.108 C 129.209 148.176, 125.813 149.505, 123.750 150.063 C 119.099 151.321, 118.770 153.988, 122.904 156.932 C 126.574 159.545, 129.624 159.570, 131 157 C 131.589 155.900, 132.505 155, 133.035 155 C 134.256 155, 134.309 159.691, 133.096 160.441 C 132.598 160.748, 130.697 164.037, 128.870 167.750 C 127.044 171.462, 124.321 175.625, 122.820 177 C 120.913 178.747, 119.898 180.894, 119.450 184.127 C 118.884 188.217, 119.079 188.942, 121.127 190.377 C 122.402 191.270, 124.655 192, 126.133 192 C 129.088 192, 137 196.703, 137 198.459 C 137 199.067, 134.863 200.187, 132.250 200.950 C 129.637 201.712, 126.825 202.669, 126 203.076 C 123.167 204.472, 109.499 209.833, 107.500 210.332 C 106.400 210.607, 103.025 211.812, 100 213.010 C 96.975 214.208, 92.025 215.744, 89 216.423 C 81.612 218.081, 79 219.844, 79 223.172 C 79 226.122, 81.197 227.980, 89.284 231.872 C 91.915 233.138, 94.834 235.373, 95.770 236.837 C 96.707 238.302, 97.953 239.950, 98.540 240.500 C 99.128 241.050, 102.866 245.181, 106.847 249.680 C 114.641 258.487, 121.078 263, 125.848 263 C 130.274 263, 139.456 253.389, 144.250 243.739 C 146.313 239.587, 148.005 235.135, 148.012 233.845 C 148.019 232.555, 149.068 229.675, 150.343 227.445 C 152.244 224.122, 152.640 222.048, 152.537 215.945 C 152.400 207.778, 153.673 205, 157.550 205 C 160.614 205, 173.153 201.088, 175 199.555 C 176.291 198.484, 183.269 196.689, 200.500 192.996 C 202.700 192.524, 207.552 192.163, 211.283 192.194 C 216.440 192.237, 218.538 191.823, 220.033 190.470 C 222.588 188.158, 222.532 184.948, 219.888 182.110 C 218.017 180.101, 217.190 179.923, 212.638 180.547 C 209.812 180.935, 205.475 181.884, 203 182.658 C 200.525 183.431, 194.675 184.928, 190 185.985 C 182.332 187.718, 171.499 190.423, 156 194.476 L 150.500 195.914 146 191.034 C 142.746 187.505, 140.510 185.990, 137.924 185.564 C 135.957 185.240, 133.515 184.366, 132.497 183.621 C 130.831 182.403, 130.780 181.931, 131.988 178.884 C 132.725 177.023, 134.605 174.288, 136.164 172.806 C 137.724 171.325, 139 169.430, 139 168.595 C 139 167.761, 139.845 166.273, 140.877 165.289 C 143.353 162.929, 144.702 151.316, 142.799 148.746 C 140.479 145.614, 135.585 144.917, 131.298 147.108 M 135.942 210.948 C 134.534 211.375, 132.410 212.245, 131.221 212.882 C 130.032 213.518, 124.154 215.314, 118.159 216.872 C 112.165 218.430, 106.201 220.446, 104.907 221.352 C 103.614 222.259, 101.128 223, 99.384 223 C 93.908 223, 94.562 225.395, 102.175 233.217 C 106.072 237.223, 111.115 242.975, 113.381 246 C 118.353 252.639, 119.849 253.927, 122.639 253.968 C 126.047 254.019, 128.508 251.155, 133.826 240.951 C 138.873 231.266, 143.864 214.693, 142.669 211.581 C 142.020 209.889, 140.045 209.703, 135.942 210.948" stroke="none" fill="black" fill-rule="evenodd"/>
</svg>