<svg xmlns="http://www.w3.org/2000/svg" width="300" height="300" viewBox="0 0 300 300" version="1.1">
	<path d="M 154.500 15.523 C 152.300 17.420, 148.925 19.271, 147 19.637 C 145.075 20.003, 142.087 21.374, 140.361 22.685 C 138.635 23.996, 134.135 26.135, 130.361 27.440 C 126.587 28.745, 121.700 30.510, 119.500 31.362 C 117.300 32.215, 114.588 32.932, 113.473 32.956 C 112.357 32.980, 110.557 33.606, 109.473 34.347 C 108.388 35.087, 101.200 36.926, 93.500 38.434 C 85.800 39.941, 76.486 41.810, 72.803 42.587 C 69.119 43.364, 65.017 44, 63.686 44 C 62.355 44, 59.015 44.936, 56.264 46.079 C 51.403 48.099, 51.264 48.272, 51.365 52.158 C 51.467 56.048, 51.553 56.143, 54.485 55.598 C 56.143 55.289, 59.975 54.767, 63 54.436 C 66.025 54.105, 69.980 53.085, 71.788 52.169 C 74.423 50.835, 75.234 50.761, 75.876 51.799 C 78.150 55.479, 73.154 103.885, 69.902 109.674 C 68.856 111.537, 68 114.020, 68 115.193 C 68 116.365, 67.283 119.839, 66.407 122.912 C 65.531 125.985, 64.321 130.300, 63.718 132.500 C 63.114 134.700, 62.031 137.388, 61.310 138.473 C 60.590 139.557, 60 141.443, 60 142.663 C 60 143.884, 59.550 145.160, 59 145.500 C 58.450 145.840, 58 147.190, 58 148.500 C 58 149.810, 57.550 151.160, 57 151.500 C 56.450 151.840, 56 153.126, 56 154.359 C 56 155.592, 55.624 157.028, 55.165 157.550 C 54.706 158.072, 53.508 160.750, 52.502 163.500 C 51.496 166.250, 49.622 170.179, 48.337 172.230 C 47.051 174.282, 46 176.560, 46 177.292 C 46 178.025, 45.100 180.487, 44 182.764 C 42.900 185.041, 42 187.574, 42 188.393 C 42 189.212, 41.600 190.129, 41.111 190.432 C 40.622 190.734, 39.914 192.207, 39.538 193.706 C 39.162 195.204, 37.987 198.334, 36.927 200.660 C 35.867 202.987, 35 205.168, 35 205.508 C 35 205.848, 33.705 208.910, 32.123 212.313 C 30.541 215.716, 28.667 220.075, 27.958 222 C 27.250 223.925, 26.070 226.210, 25.335 227.079 C 24.601 227.947, 23.996 229.522, 23.991 230.579 C 23.980 232.657, 18.690 242.456, 17.021 243.487 C 15.510 244.421, 15.783 248.575, 17.445 249.954 C 19.837 251.940, 23.357 250.769, 24.995 247.442 C 25.823 245.760, 27.737 242.793, 29.250 240.848 C 30.762 238.903, 32.007 236.454, 32.015 235.406 C 32.031 233.339, 33.907 227.702, 35.645 224.500 C 36.241 223.400, 36.530 221.944, 36.286 221.265 C 36.043 220.585, 36.767 218.732, 37.895 217.147 C 39.024 215.562, 41.249 211.025, 42.840 207.066 C 44.430 203.107, 46.242 199.358, 46.866 198.734 C 47.490 198.110, 48 196.684, 48 195.564 C 48 194.445, 49.163 191.047, 50.583 188.014 C 56.749 174.853, 57.889 172.203, 59.623 167 C 60.632 163.975, 62.479 159.613, 63.728 157.308 C 64.978 155.002, 66 152.225, 66 151.137 C 66 150.049, 67.561 145.457, 69.469 140.933 C 71.377 136.410, 72.701 132.325, 72.411 131.856 C 72.121 131.387, 72.585 130.003, 73.442 128.779 C 74.299 127.556, 75 125.320, 75 123.811 C 75 122.302, 75.640 119.590, 76.423 117.784 C 79.017 111.797, 82.281 99.957, 82.651 95.194 C 82.852 92.612, 83.228 88.700, 83.487 86.500 C 83.746 84.300, 84.080 75.345, 84.229 66.601 C 84.533 48.793, 84.337 49.217, 92.315 49.070 C 94.413 49.032, 98.238 48.161, 100.815 47.136 C 105.268 45.365, 111.522 43.515, 117 42.350 C 118.375 42.057, 120.850 41.218, 122.500 40.486 C 124.150 39.753, 126.850 38.860, 128.500 38.499 C 130.150 38.139, 132.400 37.473, 133.500 37.020 C 139.032 34.739, 146.828 31.997, 149.500 31.394 C 153.347 30.525, 160.705 26.403, 164.300 23.102 C 167.344 20.306, 167.333 17.152, 164.267 13.750 C 161.915 11.140, 158.963 11.676, 154.500 15.523 M 129.530 51.594 C 128.481 53.195, 128.063 55.114, 128.437 56.605 C 129.423 60.532, 120.488 71.250, 116.651 70.744 C 114.598 70.473, 111.936 64.483, 111.570 59.310 C 111.169 53.653, 106.297 50.708, 104.107 54.800 C 103.168 56.555, 103.947 66.255, 105.513 72.290 C 106.353 75.527, 103.903 79, 100.779 79 C 97.785 79, 95.154 80.801, 93.512 83.976 C 92.092 86.723, 92.145 87.057, 94.424 89.697 C 96.824 92.477, 96.869 92.485, 99.827 90.750 C 101.467 89.787, 103.302 89, 103.904 89 C 105.704 89, 105.156 93.216, 102.771 97.718 C 100.338 102.312, 100.716 103.321, 105.271 104.395 C 109.503 105.393, 113 101.441, 113 95.660 C 113 86.084, 122.308 74.095, 124.466 80.893 C 124.796 81.933, 124.114 86.096, 122.949 90.143 C 121.784 94.189, 120.444 99.075, 119.971 101 C 119.498 102.925, 118.355 104.950, 117.431 105.500 C 116.507 106.050, 114.013 107.922, 111.888 109.661 C 109.763 111.399, 106.692 113.411, 105.063 114.132 C 103.025 115.034, 101.593 116.776, 100.469 119.721 C 99.570 122.075, 98.197 124, 97.417 124 C 96.638 124, 96 123.568, 96 123.039 C 96 121.478, 91.769 118, 89.870 118 C 87.667 118, 86.888 119.246, 86.783 122.937 C 86.690 126.200, 89.182 132.077, 91.461 133.967 C 93.565 135.714, 96 140.878, 96 143.595 C 96 144.853, 96.450 146.160, 97 146.500 C 97.550 146.840, 98 147.931, 98 148.924 C 98 149.918, 98.831 151.803, 99.848 153.115 C 100.864 154.427, 102.025 156.847, 102.428 158.494 C 103.912 164.559, 107.168 165.692, 110.871 161.434 C 114.162 157.648, 115.458 158.797, 115.797 165.798 C 116.234 174.826, 114.672 179.694, 111.085 180.481 C 109.503 180.829, 107.416 181.988, 106.449 183.057 C 105.481 184.126, 104.180 185, 103.557 185 C 102.934 185, 100.866 186.332, 98.962 187.959 C 94.894 191.437, 92 191.882, 92 189.030 C 92 187.165, 89.407 181.859, 86.379 177.527 C 85.621 176.443, 85 174.600, 85 173.432 C 85 169.472, 79.188 166.268, 77.363 169.222 C 76.195 171.111, 77.007 178.315, 78.586 180.079 C 79.364 180.947, 80 182.550, 80 183.641 C 80 184.732, 80.900 187.487, 82 189.764 C 83.100 192.041, 84 195.049, 84 196.450 C 84 199.110, 82.930 199.925, 68.837 207.997 C 61.750 212.057, 59.513 215.440, 62.481 217.610 C 65.378 219.728, 67.938 219.292, 69 216.500 C 69.523 215.125, 70.740 214, 71.706 214 C 74.105 214, 84 209.828, 84 208.816 C 84 208.367, 85.125 208, 86.500 208 C 88.402 208, 89 208.521, 89 210.179 C 89 211.377, 89.425 213.740, 89.944 215.429 C 92.372 223.321, 93.276 232.633, 91.993 236.520 C 90.812 240.101, 90.882 240.486, 93.032 242.227 C 96.403 244.956, 99.575 244.221, 99.219 240.793 C 99.064 239.303, 99.627 236.436, 100.469 234.420 C 102.367 229.878, 102.435 225.160, 100.633 223.079 C 99.790 222.105, 99.033 217.755, 98.658 211.725 C 97.999 201.133, 97.772 201.758, 104.243 196.331 C 110.351 191.208, 114.143 191.096, 112.128 196.098 C 108.443 205.248, 106.787 215.229, 108.496 217.994 C 109.644 219.851, 116.409 218.994, 120.500 216.474 C 122.700 215.119, 125.274 214.008, 126.220 214.005 C 127.166 214.002, 128.938 212.650, 130.158 211 C 131.378 209.350, 133.251 208, 134.320 208 C 135.389 208, 137.749 206.425, 139.565 204.500 C 144.343 199.434, 146.998 200.026, 148.562 206.506 C 148.959 208.153, 150.095 211.121, 151.087 213.102 C 152.079 215.084, 152.637 217.674, 152.327 218.858 C 151.184 223.229, 154.737 224.830, 160.362 222.478 C 162.037 221.778, 162.151 222.043, 161.495 225.100 C 161.094 226.970, 159.868 230.300, 158.771 232.500 C 156.935 236.184, 155.763 240.074, 154.321 247.278 C 153.449 251.633, 150.680 252.507, 145.579 250.038 C 141.037 247.840, 138.730 245.697, 137.658 242.683 C 136.717 240.038, 131.604 240.773, 131.199 243.612 C 130.610 247.732, 142.197 257.806, 151.269 261.063 C 154.837 262.343, 155.172 262.283, 157.524 259.930 C 159.911 257.543, 163.990 248.161, 164.009 245.014 C 164.014 244.181, 165.125 241.250, 166.478 238.500 C 167.831 235.750, 168.952 232.064, 168.969 230.309 C 168.986 228.554, 169.450 226.840, 170 226.500 C 170.550 226.160, 171 225.064, 171 224.063 C 171 223.063, 171.648 221.707, 172.440 221.050 C 173.232 220.392, 175.112 216.625, 176.618 212.677 C 178.124 208.730, 180.626 204.129, 182.178 202.452 C 183.730 200.776, 185 198.500, 185 197.394 C 185 196.287, 185.661 194.509, 186.468 193.441 C 187.276 192.374, 187.951 190.542, 187.968 189.372 C 187.986 188.202, 188.675 185.629, 189.500 183.654 C 192.782 175.799, 190.952 170.127, 183.476 164.983 C 176.637 160.278, 159.803 157.878, 155.500 160.994 C 154.950 161.393, 153.038 161.996, 151.250 162.334 C 149.463 162.673, 146.088 163.790, 143.750 164.817 C 141.413 165.844, 137.925 167.292, 136 168.035 C 134.075 168.778, 130.970 170.229, 129.100 171.260 C 126.365 172.768, 125.538 172.877, 124.866 171.817 C 123.759 170.072, 123.792 169.246, 125 168.500 C 125.550 168.160, 126 165.060, 126 161.610 C 126 155.943, 126.241 155.209, 128.501 154 C 130.562 152.897, 141 139.977, 141 138.529 C 141 138.293, 142.350 136.100, 144 133.655 C 145.669 131.182, 147 127.887, 147 126.227 C 147 124.587, 147.626 122.725, 148.391 122.090 C 149.156 121.455, 150.029 119.713, 150.331 118.218 C 150.632 116.723, 151.190 114.230, 151.570 112.678 C 153.206 105.996, 147.602 102, 136.596 102 C 132.418 102, 129 101.745, 129 101.434 C 129 101.123, 129.509 99.918, 130.131 98.755 C 131.838 95.565, 134.152 84.980, 134.051 80.821 C 134.002 78.797, 134.427 76.854, 134.996 76.502 C 135.565 76.151, 136.664 74.346, 137.439 72.492 C 138.223 70.616, 140.543 68.044, 142.674 66.690 C 148.113 63.234, 150.333 60.422, 150.333 56.987 C 150.333 52.984, 149.492 52.376, 145.855 53.748 C 143.139 54.774, 142.152 54.568, 137.253 51.953 C 134.209 50.329, 131.609 49, 131.474 49 C 131.340 49, 130.465 50.167, 129.530 51.594 M 131.559 110.504 C 130.491 111.327, 128.873 112, 127.964 112 C 125.838 112, 122.603 115.548, 123.461 116.937 C 124.352 118.378, 127.320 118.280, 128.841 116.759 C 129.524 116.076, 132.652 115.288, 135.791 115.009 C 141.078 114.538, 141.500 114.315, 141.500 112 C 141.500 109.791, 141.035 109.471, 137.500 109.254 C 135.136 109.109, 132.706 109.620, 131.559 110.504 M 108.872 122.962 C 101.476 127.860, 100.685 129.115, 101.973 133.901 C 103.254 138.656, 105.982 139.563, 106.032 135.250 C 106.072 131.799, 107.633 129.723, 112.039 127.262 C 114.444 125.918, 115.500 124.617, 115.500 122.997 C 115.500 119.601, 113.957 119.593, 108.872 122.962 M 130.500 128.989 C 127.685 130.842, 125.422 136.256, 126.639 138.225 C 127.539 139.682, 131.062 139.003, 131.702 137.250 C 132.053 136.287, 133.402 134.212, 134.700 132.638 C 136.540 130.407, 136.805 129.470, 135.907 128.388 C 134.418 126.594, 134.079 126.632, 130.500 128.989 M 113.028 138.467 C 112.328 139.310, 110.740 140, 109.500 140 C 105.750 140, 104.677 142.272, 106.727 145.873 C 108.880 149.655, 111.789 149.917, 114.897 146.609 C 116.494 144.909, 117.050 143.271, 116.822 140.936 C 116.457 137.215, 114.905 136.204, 113.028 138.467 M 151.500 171.318 C 148.200 172.451, 142.273 174.868, 138.328 176.689 C 134.384 178.510, 130.732 180, 130.213 180 C 126.316 180, 119.913 189.985, 122.111 192.634 C 122.957 193.653, 122.867 194.553, 121.749 196.260 C 119.336 199.943, 118.579 204.901, 120.327 205.572 C 123.647 206.846, 140 193.284, 140 189.256 C 140 188.150, 140.675 186.685, 141.500 186 C 142.325 185.315, 143 184, 143 183.078 C 143 180.786, 144.971 179, 147.500 179 C 150.225 179, 152 180.830, 152 183.640 C 152 184.872, 153.350 188.482, 155 191.663 C 156.650 194.843, 158 198.443, 158 199.663 C 158 200.884, 158.450 202.160, 159 202.500 C 159.550 202.840, 160 204.190, 160 205.500 C 160 206.810, 160.500 208.191, 161.110 208.568 C 161.758 208.969, 161.994 210.650, 161.676 212.609 C 160.762 218.244, 164.915 218.299, 166.991 212.678 C 167.637 210.930, 168.558 208.825, 169.039 208 C 170.854 204.886, 175 195.720, 175 194.823 C 175 194.309, 176.271 191.326, 177.825 188.194 C 183.728 176.297, 182.747 172.257, 173.490 170.333 C 165.178 168.605, 158.532 168.902, 151.500 171.318" stroke="none" fill="black" fill-rule="evenodd"/>
</svg>