<svg xmlns="http://www.w3.org/2000/svg" width="300" height="300" viewBox="0 0 300 300" version="1.1">
	<path d="M 83.543 42.953 C 82.532 44.070, 81.973 45.788, 82.261 46.891 C 83.308 50.892, 78.106 67.726, 71.567 81.500 C 69.217 86.450, 66.500 92.300, 65.530 94.500 C 61.646 103.309, 50.609 125.123, 49.776 125.639 C 49.287 125.941, 47.766 128.508, 46.396 131.344 C 45.026 134.180, 42.993 137.950, 41.877 139.723 C 39.483 143.525, 40.065 145, 43.960 145 C 46.183 145, 47.912 143.719, 51.901 139.114 C 54.705 135.877, 57 132.782, 57 132.237 C 57 131.691, 57.601 130.746, 58.335 130.137 C 59.070 129.527, 60.298 127.110, 61.065 124.764 C 61.832 122.419, 63.476 118.700, 64.717 116.500 C 65.959 114.300, 67.479 111.375, 68.094 110 C 68.710 108.625, 69.618 106.825, 70.113 106 C 71.029 104.472, 73.402 99.505, 75.368 95 C 75.968 93.625, 77.481 91.108, 78.730 89.406 C 79.978 87.704, 81 85.143, 81 83.715 C 81 82.287, 81.450 80.840, 82 80.500 C 82.550 80.160, 83 79.071, 83 78.081 C 83 77.090, 84.038 74.750, 85.306 72.881 C 89.520 66.671, 93.187 45.694, 90.500 43.166 C 88.267 41.065, 85.333 40.975, 83.543 42.953 M 124 59.489 C 110.917 61.730, 87 76.021, 87 81.598 C 87 82.954, 87.679 84.323, 88.508 84.641 C 90.249 85.310, 96.133 82.750, 97.985 80.518 C 98.678 79.683, 99.804 79, 100.488 79 C 101.171 79, 102.803 78.167, 104.115 77.148 C 105.427 76.130, 108.975 74.369, 112 73.234 C 115.025 72.100, 119.525 70.243, 122 69.108 C 128.889 65.948, 135.713 66.285, 140.897 70.040 C 143.205 71.712, 145.330 73.850, 145.620 74.790 C 145.909 75.731, 146.566 77.286, 147.080 78.248 C 148.412 80.740, 148.347 102.976, 146.987 109.776 C 146.358 112.924, 145.203 118.005, 144.421 121.066 C 143.640 124.127, 143 128.038, 143 129.757 C 143 131.476, 142.600 133.129, 142.110 133.432 C 141.621 133.734, 140.992 135.448, 140.713 137.241 C 139.264 146.529, 131.544 172.065, 128.844 176.500 C 126.569 180.236, 126.310 180.848, 125.568 184.237 C 125.238 185.743, 123.826 187.723, 122.429 188.638 C 119.982 190.241, 119.738 190.195, 115.695 187.355 C 113.388 185.735, 109.800 181.842, 107.723 178.704 C 102.053 170.144, 97.915 171.498, 101.940 180.597 C 104.997 187.508, 110.491 193.708, 116.058 196.529 C 121.390 199.231, 124.002 199.598, 125.716 197.884 C 126.330 197.270, 127.822 196.258, 129.033 195.634 C 131.769 194.224, 135.218 188.084, 136.972 181.500 C 137.705 178.750, 138.831 175.825, 139.474 175 C 141.155 172.846, 144.233 161.796, 148.653 142.049 C 149.447 138.502, 150.712 134.227, 151.464 132.549 C 152.216 130.872, 153.136 127.250, 153.509 124.500 C 153.882 121.750, 154.555 119.050, 155.004 118.500 C 155.886 117.421, 156.673 109.101, 157.595 91.123 C 158.205 79.220, 158.286 79.618, 153.183 69.500 C 151.043 65.257, 145.118 60.148, 141 58.993 C 136.643 57.771, 133.500 57.863, 124 59.489 M 88.500 116.685 C 87.400 116.934, 84.558 118.023, 82.185 119.105 C 78.769 120.662, 77.936 121.525, 78.185 123.252 C 78.358 124.452, 79.707 126.108, 81.182 126.933 C 83.606 128.290, 84.045 128.269, 85.760 126.717 C 88.480 124.255, 99 124.496, 99 127.019 C 99 128.981, 90.587 142.158, 87.696 144.725 C 85.938 146.285, 83.240 149.235, 81.699 151.281 C 78.500 155.528, 75.047 156.277, 74.918 152.750 C 74.873 151.512, 74.713 146.583, 74.563 141.796 C 74.284 132.899, 72.522 128, 69.599 128 C 66.697 128, 66.070 130.742, 66.106 143.291 C 66.126 150.259, 65.807 156.504, 65.397 157.167 C 64.987 157.831, 64.516 162.263, 64.352 167.016 C 64.188 171.770, 63.451 180.123, 62.716 185.579 C 61.074 197.753, 61.138 219.538, 62.819 221.219 C 63.469 221.869, 64 223.620, 64 225.111 C 64 230.995, 75.206 235.926, 85.557 234.598 C 88.276 234.249, 96.575 233.310, 104 232.511 C 111.425 231.712, 121.100 230.610, 125.500 230.062 C 133.974 229.006, 162.780 226.236, 167 226.071 C 168.375 226.018, 171.521 225.950, 173.990 225.920 C 180.024 225.847, 184.858 223.447, 185.649 220.131 C 185.994 218.684, 186.603 217.050, 187.003 216.500 C 187.403 215.950, 187.978 213.553, 188.280 211.172 C 188.583 208.792, 189.523 206.079, 190.370 205.144 C 191.216 204.208, 191.894 202.556, 191.876 201.471 C 191.858 200.387, 191.917 194.689, 192.008 188.810 C 192.187 177.198, 191.097 172.423, 187.144 167.500 C 182.714 161.983, 178.253 159.921, 175.086 161.926 C 173.959 162.639, 174.514 163.777, 177.824 167.538 C 180.108 170.132, 182.429 173.885, 182.983 175.877 C 185.379 184.505, 183.299 201.479, 178.680 210.986 C 177.034 214.373, 175.764 215.644, 173.500 216.169 C 170.720 216.815, 152.720 218.381, 135 219.519 C 130.875 219.784, 118.275 221.113, 107 222.473 C 79.847 225.746, 78.074 225.731, 74.682 222.190 C 72.031 219.423, 71.982 219.129, 71.469 202.691 C 71.040 188.944, 71.217 185.481, 72.474 183.050 C 73.313 181.427, 74 178.314, 74 176.131 C 74 170.746, 74.821 169.001, 77.357 168.996 C 80.565 168.991, 85.269 165.756, 91.980 158.939 C 95.848 155.011, 98 151.997, 98 150.509 C 98 149.235, 99.575 145.406, 101.500 142 C 103.425 138.594, 105 134.826, 105 133.626 C 105 132.427, 105.657 130.507, 106.460 129.361 C 108.814 126, 107.366 120.195, 103.602 117.899 C 100.630 116.086, 93.627 115.524, 88.500 116.685" stroke="none" fill="black" fill-rule="evenodd"/>
</svg>