<svg xmlns="http://www.w3.org/2000/svg" width="300" height="300" viewBox="0 0 300 300" version="1.1">
	<path d="M 67.578 35.750 C 66.138 37.181, 64 43.258, 64 45.922 C 64 47.395, 63.604 49.028, 63.121 49.550 C 62.637 50.073, 61.725 52.118, 61.094 54.095 C 60.458 56.088, 58.956 58.143, 57.724 58.705 C 50.292 62.097, 38.758 65.932, 34.244 66.513 C 27.184 67.421, 24.512 69.586, 25.910 73.262 C 26.893 75.848, 27.303 76, 33.275 76 C 36.754 76, 40.062 75.538, 40.627 74.973 C 41.191 74.409, 43.981 73.671, 46.827 73.334 C 52.990 72.604, 53.448 73.746, 49.500 80 C 48.125 82.178, 47 84.313, 47 84.743 C 47 85.174, 45.425 87.865, 43.500 90.724 C 41.575 93.582, 40 96.368, 40 96.915 C 40 97.461, 37.750 101.819, 35 106.598 C 32.250 111.377, 29.982 115.785, 29.959 116.393 C 29.937 117.002, 28.587 119.058, 26.959 120.962 C 25.332 122.866, 24 124.797, 24 125.253 C 24 125.708, 23.150 127.300, 22.112 128.790 C 21.074 130.281, 18.532 134.200, 16.463 137.500 C 10.602 146.850, 4.998 154.899, 2.386 157.718 C 0.436 159.821, 0 161.362, 0 166.146 C 0 170.184, 0.390 172, 1.259 172 C 3.091 172, 8.342 165.712, 14.619 156 C 17.640 151.325, 21.437 146.288, 23.056 144.806 C 24.675 143.325, 26 141.257, 26 140.211 C 26 139.166, 26.874 137.519, 27.943 136.551 C 29.012 135.584, 30.160 133.550, 30.493 132.031 C 30.827 130.513, 32.090 128.213, 33.300 126.921 C 35.687 124.372, 36.961 122.393, 39.687 117 C 40.660 115.075, 42.478 112.228, 43.728 110.673 C 44.978 109.119, 46 107.215, 46 106.443 C 46 105.671, 47.575 102.577, 49.500 99.567 C 51.425 96.558, 53 93.460, 53 92.683 C 53 91.906, 53.788 90.191, 54.750 88.873 C 57.463 85.158, 58.914 82.721, 60.032 80 C 61.529 76.356, 61.821 75.805, 64 72.500 C 65.088 70.850, 66.276 68.825, 66.641 68 C 67.882 65.192, 70.305 63, 72.169 63 C 74.098 63, 77.282 61.473, 80.181 59.157 C 81.105 58.419, 83.322 57.069, 85.106 56.157 C 89.340 53.994, 90.846 51.568, 89.393 49.250 C 87.789 46.692, 84.700 46.602, 80.042 48.978 C 77.781 50.132, 75.497 50.807, 74.966 50.479 C 74.435 50.151, 74 47.074, 74 43.641 C 74 40.120, 73.477 36.877, 72.800 36.200 C 71.451 34.851, 68.720 34.615, 67.578 35.750 M 131.611 36.820 C 131.333 37.271, 130.625 42.558, 130.038 48.570 C 129.451 54.581, 128.351 61.075, 127.593 63 C 126.835 64.925, 125.673 68.525, 125.011 71 C 124.349 73.475, 123.176 76.978, 122.404 78.784 C 121.632 80.590, 121 82.892, 121 83.899 C 121 84.906, 120.100 86.874, 119 88.273 C 117.850 89.734, 117 92.330, 117 94.377 C 117 96.336, 116.064 99.734, 114.920 101.929 C 113.776 104.124, 113.099 106.736, 113.415 107.733 C 113.732 108.731, 113.093 111.222, 111.995 113.270 C 109.296 118.305, 109.464 119.359, 113.189 120.765 C 115.880 121.781, 116.660 121.713, 118.189 120.329 C 119.185 119.428, 120 117.739, 120 116.577 C 120 115.415, 121.056 112.897, 122.348 110.982 C 123.639 109.067, 124.524 107.005, 124.314 106.400 C 124.105 105.795, 124.623 104.728, 125.467 104.028 C 126.434 103.225, 127 101.072, 127 98.193 C 127 95.684, 127.837 91.802, 128.861 89.566 C 129.884 87.330, 131.537 82.666, 132.534 79.202 C 133.530 75.738, 134.718 72.674, 135.173 72.393 C 135.628 72.112, 136 70.588, 136 69.006 C 136 67.424, 136.423 65.018, 136.939 63.659 C 138.934 58.412, 140.161 45.019, 138.976 41.428 C 137.579 37.196, 133.108 34.398, 131.611 36.820 M 171.500 55.261 C 169.300 55.841, 166.024 57.145, 164.220 58.158 C 162.415 59.171, 160.165 60.002, 159.220 60.005 C 158.274 60.008, 154.893 62.126, 151.708 64.712 C 147.563 68.075, 145.998 69.995, 146.208 71.457 C 146.569 73.983, 151.403 74.802, 153.838 72.749 C 156.729 70.313, 172.152 64.837, 177.429 64.372 C 183.122 63.872, 184.418 64.592, 187.800 70.131 C 192.515 77.856, 193.827 91.647, 192.070 115 C 191.428 123.525, 190.508 132.075, 190.025 134 C 189.543 135.925, 188.398 142.675, 187.481 149 C 185.945 159.600, 181.909 174.282, 179.953 176.385 C 178.968 177.445, 171.704 174.699, 168.198 171.941 C 165.896 170.130, 160 169.201, 160 170.649 C 160 171.464, 164.749 176.002, 172.505 182.598 C 179.619 188.648, 184.543 190.006, 187.929 186.851 C 189.594 185.300, 189.931 184.147, 189.456 181.617 C 189.023 179.310, 189.303 177.993, 190.424 177.063 C 191.291 176.344, 192 174.798, 192 173.627 C 192 171.005, 194.321 160.224, 196.333 153.500 C 197.156 150.750, 197.869 147.150, 197.917 145.500 C 198.141 137.776, 199.162 128.309, 199.966 126.500 C 200.810 124.602, 201.883 112.371, 202.161 101.500 C 202.231 98.750, 201.940 92, 201.513 86.500 C 200.778 77.005, 199.852 73.819, 194.778 63.302 C 191.142 55.765, 181.812 52.542, 171.500 55.261 M 62.482 93.906 C 61.372 94.378, 59.842 95.927, 59.081 97.348 C 56.781 101.646, 58.808 102.929, 67.527 102.697 C 72.080 102.575, 75.346 102.948, 76.070 103.672 C 76.716 104.316, 77.798 104.631, 78.476 104.371 C 79.154 104.111, 82.137 104.820, 85.105 105.948 C 88.072 107.076, 91.434 107.999, 92.576 107.999 C 94.693 108, 99 111.795, 99 113.659 C 99 115.165, 102.405 118, 104.214 118 C 105.070 118, 106.538 116.828, 107.477 115.395 C 109.494 112.317, 108.883 107.093, 106.230 104.739 C 103.619 102.421, 97.145 99, 95.371 99 C 94.508 99, 92.384 98.352, 90.651 97.560 C 88.918 96.769, 83.675 95.628, 79 95.026 C 74.325 94.424, 69.150 93.732, 67.500 93.489 C 65.850 93.246, 63.592 93.434, 62.482 93.906 M 139.344 113.094 C 129.660 114.714, 125.480 118.678, 125.814 125.925 C 126.738 145.979, 126.365 162.697, 124.349 191.500 C 123.339 205.944, 123.886 220.078, 125.600 223.776 C 127.734 228.379, 133.634 234, 136.333 234 C 137.580 234, 139.061 234.461, 139.624 235.024 C 142.179 237.579, 165.967 238.233, 174 235.969 C 176.475 235.271, 180.975 234.595, 184 234.467 C 187.025 234.339, 195.350 233.781, 202.500 233.227 C 209.650 232.673, 219.325 232.347, 224 232.503 C 232.302 232.780, 232.586 232.712, 236.193 229.587 L 239.885 226.387 240.050 214.944 C 240.173 206.352, 239.813 202.573, 238.607 199.782 C 237.723 197.737, 237 195.069, 237 193.853 C 237 191.807, 235.805 187.342, 233.961 182.500 C 233.543 181.400, 232.438 177.800, 231.507 174.500 C 229.053 165.800, 224.597 157, 222.645 157 C 220.069 157, 219.216 159.045, 220.216 162.827 C 220.749 164.847, 221.431 168.073, 221.731 169.996 C 222.031 171.919, 222.824 174.394, 223.493 175.496 C 224.163 176.598, 225.252 180.200, 225.914 183.500 C 226.576 186.800, 227.547 190.625, 228.072 192 C 228.596 193.375, 229.453 197.425, 229.976 201 C 230.499 204.575, 231.214 208.931, 231.566 210.680 C 231.988 212.777, 231.595 215.246, 230.411 217.930 C 228.883 221.392, 228.159 222.006, 225.558 222.037 C 215.786 222.157, 172.742 226.312, 169.011 227.497 C 165.286 228.679, 145.993 228.238, 142.658 226.894 C 138.895 225.377, 135.232 221.730, 133.845 218.117 C 132.935 215.748, 133.494 184.628, 134.475 183.040 C 134.678 182.712, 135.342 178.631, 135.951 173.972 C 137.700 160.598, 137.866 160.116, 141.333 158.374 C 145.552 156.254, 153 148.988, 153 146.992 C 153 146.116, 152.508 144.908, 151.907 144.307 C 150.650 143.050, 152.336 139.063, 154.721 137.658 C 156.805 136.431, 160 128.388, 160 124.367 C 160 120.686, 158.079 116.140, 155.682 114.151 C 153.750 112.548, 145.720 112.028, 139.344 113.094 M 61.532 117.975 C 57.997 120.784, 52.488 122.982, 48.950 122.994 C 44.785 123.009, 43.840 127.562, 47.323 130.833 C 49.441 132.823, 50.124 132.928, 55.073 132.026 C 58.058 131.481, 63.109 129.810, 66.298 128.311 C 71.603 125.818, 72.071 125.338, 71.798 122.662 C 71.608 120.794, 70.381 118.878, 68.402 117.357 L 65.303 114.978 61.532 117.975 M 135.223 123.557 C 132.585 125.404, 132.293 129.545, 134.570 132.796 C 135.640 134.325, 136.038 136.701, 135.820 140.269 C 135.530 145.012, 135.705 145.529, 137.698 145.813 C 139.365 146.050, 140.399 145.205, 141.984 142.313 C 143.132 140.216, 145.370 136.700, 146.957 134.500 C 150.112 130.127, 151.337 125.210, 149.760 123.250 C 148.295 121.428, 137.950 121.646, 135.223 123.557 M 50.096 141.044 C 47.124 143.220, 43.852 145, 42.826 145 C 40.295 145, 33 149.706, 33 151.338 C 33 153.508, 37.513 157.124, 39.345 156.421 C 40.255 156.072, 41 155.384, 41 154.893 C 41 154.402, 41.675 154, 42.500 154 C 44.131 154, 44.633 158.873, 43.174 160.550 C 42.720 161.072, 41.776 163.525, 41.076 166 C 40.377 168.475, 39.456 171.190, 39.030 172.033 C 36.798 176.444, 36.917 179.618, 39.414 182.313 C 40.784 183.791, 42.577 185, 43.399 185 C 44.221 185, 47.867 182.750, 51.500 180 C 55.133 177.250, 58.715 175, 59.458 175 C 60.202 175, 62.639 174.025, 64.872 172.832 C 68.679 170.800, 69.286 170.749, 74.563 172.015 C 82.420 173.900, 83.552 175.891, 83.314 187.403 C 83.212 192.347, 82.602 197.542, 81.959 198.946 C 79.139 205.105, 78.064 207.748, 76.853 211.500 C 76.143 213.700, 73.698 218.425, 71.419 222 C 67.267 228.516, 64.439 233.492, 60.260 241.635 C 58.786 244.507, 57.359 246, 56.089 246 C 53.914 246, 42.827 234.237, 40.554 229.518 C 39.755 227.858, 37.053 224.379, 34.550 221.786 C 32.048 219.194, 30 216.660, 30 216.155 C 30 215.650, 27.863 214.530, 25.250 213.667 C 21.193 212.325, 20.295 212.299, 19.097 213.487 C 17.895 214.678, 18.703 216.038, 24.731 222.969 C 28.602 227.419, 34.158 234.643, 37.078 239.024 C 39.997 243.404, 43.187 247.242, 44.167 247.553 C 45.147 247.864, 46.890 249.442, 48.042 251.059 C 49.194 252.677, 50.639 254, 51.254 254 C 51.868 254, 53.376 254.944, 54.604 256.097 C 58.099 259.381, 62.035 257.970, 65.864 252.061 C 67.589 249.399, 69 246.574, 69 245.785 C 69 244.995, 70.155 243.263, 71.567 241.937 C 74.116 239.543, 81 226.263, 81 223.741 C 81 223.017, 82.332 220.866, 83.959 218.962 C 85.587 217.058, 86.951 214.600, 86.991 213.500 C 87.031 212.400, 87.724 210.626, 88.532 209.559 C 89.339 208.491, 90 206.679, 90 205.531 C 90 204.384, 90.676 202.480, 91.502 201.300 C 92.506 199.867, 92.953 197.055, 92.849 192.828 C 92.763 189.347, 93.018 185.060, 93.415 183.299 C 94.439 178.761, 91.069 171.709, 85.246 166.209 L 80.528 161.752 71.514 162.267 C 64.281 162.680, 61.532 163.307, 57.601 165.442 C 54.248 167.263, 52.378 167.778, 51.675 167.075 C 50.971 166.371, 51.176 165.463, 52.324 164.195 C 53.263 163.157, 54 160.699, 54 158.606 C 54 154.155, 55.192 151.608, 59.309 147.258 C 62.371 144.022, 62.374 144.008, 60.705 140.508 C 58.565 136.020, 56.842 136.107, 50.096 141.044" stroke="none" fill="black" fill-rule="evenodd"/>
</svg>