<svg xmlns="http://www.w3.org/2000/svg" width="300" height="300" viewBox="0 0 300 300" version="1.1">
	<path d="M 83.020 37.960 C 81.909 40.138, 81 42.996, 81 44.311 C 81 45.626, 80.606 48.006, 80.125 49.601 C 79.643 51.195, 78.707 54.975, 78.045 58 C 76.877 63.337, 72.912 74.437, 70.723 78.500 C 70.130 79.600, 68.974 81.850, 68.154 83.500 C 67.334 85.150, 66.297 87.175, 65.850 88 C 65.403 88.825, 63.858 91.975, 62.418 95 C 60.978 98.025, 58.494 103.207, 56.900 106.516 C 55.305 109.826, 54 112.867, 54 113.275 C 54 113.683, 52.650 115.881, 51 118.159 C 49.350 120.436, 47.996 123.020, 47.990 123.900 C 47.985 124.780, 46.410 127.476, 44.490 129.891 C 42.571 132.306, 41 134.716, 41 135.246 C 41 135.777, 39.987 137.506, 38.750 139.089 C 31.025 148.970, 31.447 148.122, 33.508 149.629 C 34.539 150.383, 35.937 151, 36.614 151 C 39.048 151, 43.945 145.809, 46.392 140.637 C 47.763 137.738, 50.036 134.502, 51.443 133.446 C 52.849 132.390, 54 131.141, 54 130.670 C 54 130.200, 54.900 128.671, 56 127.273 C 57.100 125.874, 58 123.966, 58 123.032 C 58 120.839, 65.309 106.966, 69.643 100.934 C 71.489 98.364, 73 95.837, 73 95.318 C 73 94.799, 74.126 92.040, 75.502 89.187 C 77.334 85.391, 78.565 84, 80.095 84 C 81.244 84, 83.329 83.100, 84.727 82 C 86.126 80.900, 88.222 79.997, 89.385 79.993 C 90.548 79.990, 92.850 79.093, 94.500 78 C 96.150 76.907, 98.519 76.010, 99.764 76.007 C 101.009 76.003, 102.809 75.565, 103.764 75.032 C 104.719 74.500, 110.225 73.364, 116 72.507 C 121.775 71.651, 128.750 70.499, 131.500 69.949 C 142.902 67.666, 145.331 67.670, 148.250 69.974 C 149.762 71.168, 151 72.832, 151 73.671 C 151 75.133, 153.061 80.427, 155.162 84.361 C 155.724 85.413, 156.156 94.777, 156.156 105.901 C 156.155 122.478, 155.828 126.895, 154.078 133.927 C 152.935 138.518, 152 143.765, 152 145.586 C 152 153.712, 146.369 190.920, 144.907 192.450 C 144.408 192.973, 144 195.341, 144 197.714 C 144 200.086, 143.594 202.809, 143.097 203.764 C 142.601 204.719, 141.642 208.650, 140.967 212.500 C 140.292 216.350, 139.400 219.950, 138.985 220.500 C 138.570 221.050, 137.930 223.075, 137.562 225 C 137.194 226.925, 136.301 230.075, 135.578 232 C 133.391 237.818, 132 242.555, 132 244.181 C 132 246.500, 125.919 257.817, 124.349 258.420 C 121.097 259.667, 112.404 252.839, 105.675 243.750 C 102.841 239.923, 100.340 238.952, 99.429 241.325 C 98.593 243.503, 102.583 251.222, 106.755 255.500 C 117.285 266.295, 123.162 269.890, 128.569 268.843 C 130.185 268.530, 133.092 264.732, 134.573 261 C 134.901 260.175, 136.455 256.800, 138.026 253.500 C 139.598 250.200, 141.170 246.150, 141.520 244.500 C 141.869 242.850, 142.536 240.600, 143.001 239.500 C 143.467 238.400, 144.597 234.800, 145.514 231.500 C 146.431 228.200, 147.554 224.546, 148.010 223.380 C 148.466 222.214, 149.157 219.064, 149.545 216.380 C 149.934 213.696, 150.599 211.050, 151.023 210.500 C 151.447 209.950, 152.026 207.250, 152.310 204.500 C 152.594 201.750, 153.543 196.125, 154.419 192 C 155.296 187.875, 156.295 181.800, 156.640 178.500 C 156.985 175.200, 157.649 171.758, 158.114 170.852 C 158.580 169.946, 159.021 165.896, 159.095 161.852 C 159.168 157.808, 159.584 154.050, 160.019 153.500 C 162.173 150.775, 165.471 120.253, 165.423 103.500 C 165.378 87.754, 164.502 81.251, 161.586 75 C 160.174 71.975, 159.015 69.026, 159.010 68.446 C 158.993 66.683, 152.719 61.190, 149 59.683 C 147.075 58.903, 143.700 58.369, 141.500 58.497 C 134.264 58.918, 124.528 60.261, 122.973 61.054 C 122.133 61.481, 117.898 62.325, 113.561 62.928 C 109.223 63.532, 105.185 64.411, 104.587 64.882 C 103.989 65.353, 101.025 66.302, 98 66.991 C 94.975 67.680, 91.097 69.089, 89.382 70.122 C 87.667 71.155, 85.746 72, 85.113 72 C 83.608 72, 84.607 68.038, 87.472 62.646 C 89.148 59.493, 89.839 55.959, 90.360 47.890 C 91.138 35.840, 90.748 34, 87.413 34 C 85.656 34, 84.517 35.027, 83.020 37.960 M 104.500 93.010 C 101.750 93.993, 96.575 95.575, 93 96.525 C 89.425 97.476, 84.592 99.097, 82.261 100.127 C 79.929 101.157, 77.593 102, 77.070 102 C 74.626 102, 75.077 104.484, 78.084 107.586 C 81.764 111.383, 83.182 111.675, 87.364 109.494 C 88.940 108.672, 91.501 108, 93.055 108 C 94.610 108, 96.160 107.550, 96.500 107 C 96.840 106.450, 99.026 106, 101.359 106 C 103.692 106, 106.055 105.545, 106.612 104.988 C 107.168 104.432, 109.620 102.970, 112.062 101.738 C 115.866 99.820, 116.471 99.095, 116.300 96.662 C 115.883 90.760, 113.158 89.916, 104.500 93.010 M 100.139 119.033 C 98.841 120.115, 96.816 121.002, 95.639 121.004 C 94.463 121.007, 91.475 122.355, 89 124 C 84.358 127.086, 81.576 127.740, 80.500 126 C 79.595 124.535, 75.427 124.780, 74.103 126.376 C 72.583 128.208, 73.357 135.672, 75.496 139.810 C 76.437 141.631, 77.413 145.006, 77.665 147.310 C 78.441 154.394, 78.953 155.905, 80.939 156.968 C 83.546 158.363, 85.783 157.319, 87.563 153.879 C 88.381 152.295, 89.627 151, 90.330 151 C 93.367 151, 100.893 145.018, 102.502 141.324 C 103.418 139.221, 104.580 136.719, 105.084 135.764 C 105.588 134.809, 106 133.364, 106 132.554 C 106 131.744, 107.133 130.030, 108.519 128.745 L 111.037 126.410 108.019 123.518 C 106.358 121.927, 105 119.810, 105 118.813 C 105 116.471, 103.112 116.557, 100.139 119.033 M 93.027 131.949 C 92.453 133.021, 90.750 134.490, 89.242 135.213 C 85.974 136.779, 85.346 140.701, 88.450 140.160 C 92.021 139.538, 98 133.460, 98 130.453 C 98 129.071, 93.908 130.302, 93.027 131.949 M 105.500 163.968 C 100 164.961, 93.475 166.714, 91 167.865 C 88.525 169.015, 85.600 169.970, 84.500 169.987 C 83.400 170.004, 80.250 171.125, 77.500 172.478 C 74.750 173.831, 72.178 174.952, 71.785 174.969 C 70.090 175.043, 61.948 180.909, 59.497 183.822 C 56.177 187.767, 54.712 187.809, 52.027 184.038 C 49.602 180.632, 43.913 178.997, 41.489 181.009 C 39.265 182.855, 39.639 184.059, 43.968 189 C 52.328 198.542, 55.136 202.431, 55.698 205.242 C 56.044 206.968, 57.165 208.493, 58.448 208.980 C 60.462 209.746, 62.465 214.144, 63.237 219.492 C 63.395 220.588, 64.756 222.075, 66.262 222.797 C 68.290 223.769, 69 224.842, 69 226.932 C 69 231.348, 71.287 232.641, 76.327 231.076 C 78.622 230.363, 82.975 229.627, 86 229.441 C 89.025 229.255, 92.737 228.866, 94.250 228.576 C 96.245 228.195, 97 228.455, 97 229.525 C 97 230.399, 96.059 231, 94.691 231 C 93.421 231, 91.509 231.669, 90.441 232.487 C 88.542 233.943, 88.554 234.018, 91 235.965 C 94.149 238.472, 93.844 238.482, 105.556 235.511 C 112.725 233.692, 116.149 232.278, 118.268 230.261 C 123.139 225.625, 128 218.371, 128 215.738 C 128 214.367, 128.703 212.662, 129.562 211.949 C 131.600 210.257, 136.957 198.770, 137.090 195.806 C 137.517 186.284, 137.179 177.886, 136.234 174.500 C 135.006 170.101, 129.842 165.022, 126.538 164.965 C 125.417 164.945, 123.375 164.286, 122 163.500 C 118.879 161.716, 117.812 161.746, 105.500 163.968 M 102.403 174.507 C 100.730 177.061, 101.460 187.307, 103.432 188.943 C 104.533 189.857, 109.743 188.613, 112.660 186.739 C 114.530 185.537, 117.002 187.036, 116.978 189.357 C 116.966 190.536, 116.079 193.432, 115.008 195.793 C 113.327 199.496, 112.685 200.045, 110.327 199.793 C 108.052 199.549, 107.442 200.001, 106.680 202.500 C 106.177 204.150, 105.368 206.281, 104.882 207.236 C 103.404 210.146, 103.870 215.181, 105.750 216.608 C 111.953 221.317, 118.954 215.182, 124.925 199.806 C 129.053 189.175, 129.071 189.072, 127.921 182.469 C 126.377 173.603, 124.231 172.196, 112.338 172.251 C 104.705 172.286, 103.711 172.511, 102.403 174.507 M 83.500 179.069 C 81.850 180.126, 78.925 181.272, 77 181.615 C 73.441 182.250, 64.103 187.344, 62.765 189.381 C 61.168 191.814, 62.163 196.041, 65.500 201 C 67.425 203.861, 69 207.226, 69 208.478 C 69 209.730, 69.675 211.315, 70.500 212 C 72.313 213.505, 72.430 216.338, 70.788 218.968 C 70.121 220.036, 69.784 221.117, 70.038 221.372 C 70.575 221.909, 85.310 220.187, 88.986 219.158 C 90.909 218.619, 91.613 217.593, 92.096 214.627 C 92.439 212.517, 93.298 210.434, 94.005 209.997 C 95.755 208.915, 94.488 205.995, 92.281 206.022 C 91.302 206.034, 89.375 206.924, 88 208 C 86.625 209.076, 84.543 209.966, 83.372 209.978 C 82.202 209.990, 80.685 210.675, 80 211.500 C 78.347 213.491, 76.666 213.393, 74.671 211.189 C 73.273 209.644, 73.213 208.889, 74.266 206.067 C 75.316 203.250, 76.895 202.086, 84.839 198.267 L 94.178 193.778 93.562 188.639 C 93.222 185.813, 92.925 182.037, 92.901 180.250 C 92.861 177.258, 92.605 177.006, 89.679 177.073 C 87.931 177.113, 85.150 178.011, 83.500 179.069" stroke="none" fill="black" fill-rule="evenodd"/>
</svg>