<svg xmlns="http://www.w3.org/2000/svg" width="300" height="300" viewBox="0 0 300 300" version="1.1">
	<path d="M 136 40.550 C 133.525 41.259, 130.289 41.875, 128.809 41.920 C 127.329 41.964, 125.840 42.450, 125.500 43 C 125.160 43.550, 123.965 44, 122.845 44 C 121.725 44, 119.614 44.640, 118.154 45.423 C 115.113 47.054, 98.066 52.867, 87 56.047 C 82.875 57.233, 78.600 58.595, 77.500 59.075 C 76.400 59.554, 68.525 61.119, 60 62.552 C 46.699 64.788, 42.833 65.064, 32.752 64.491 C 22.781 63.926, 20.917 64.053, 20.425 65.334 C 19.533 67.660, 21.637 70.676, 24.720 71.489 C 26.249 71.892, 31.100 72.509, 35.500 72.861 C 43.252 73.480, 43.495 73.577, 43.344 76 C 42.809 84.565, 42.940 115.800, 43.518 117.250 C 43.901 118.213, 43.899 119.788, 43.514 120.750 C 43.129 121.713, 42.617 129.925, 42.375 139 C 42.134 148.075, 41.749 159.775, 41.521 165 C 41.293 170.225, 40.799 181.475, 40.423 190 C 39.787 204.417, 39.871 205.610, 41.620 207.081 C 44.275 209.313, 51.985 212, 55.734 212 C 57.476 212, 61.061 212.463, 63.701 213.028 C 66.976 213.730, 74.059 213.735, 86 213.045 C 113.062 211.480, 118.659 211.034, 125.318 209.913 C 128.718 209.341, 132.818 208.890, 134.429 208.910 C 136.040 208.931, 137.924 208.478, 138.614 207.905 C 139.305 207.332, 144.142 206.751, 149.363 206.614 C 154.583 206.477, 159.450 205.875, 160.177 205.275 C 161.523 204.166, 171.453 201.882, 176 201.635 C 177.375 201.561, 179.439 200.600, 180.588 199.500 C 181.736 198.400, 183.495 197.027, 184.496 196.449 C 185.861 195.661, 186.149 194.730, 185.647 192.728 C 184.656 188.782, 181.886 187.680, 177.296 189.409 C 175.208 190.195, 169.675 192.275, 165 194.031 C 158.598 196.435, 153.784 197.455, 145.500 198.160 C 139.450 198.676, 132.025 199.693, 129 200.420 C 125.975 201.148, 120.061 201.770, 115.858 201.804 C 111.655 201.837, 106.480 202.300, 104.358 202.832 C 95.849 204.967, 53.336 203.736, 50.884 201.284 C 49.701 200.101, 48.577 176.494, 49.623 174.801 C 50.375 173.585, 50.982 159.848, 50.718 150 C 50.638 146.975, 50.681 142.025, 50.814 139 C 51.377 126.227, 51.248 99.776, 50.576 90.500 C 50.178 85, 49.773 78.944, 49.676 77.042 L 49.500 73.583 57 72.347 C 61.125 71.666, 65.991 70.324, 67.812 69.364 C 69.634 68.404, 73.173 67.591, 75.676 67.559 L 80.227 67.500 80.460 72 C 80.589 74.475, 81.043 78.802, 81.470 81.615 C 82.366 87.514, 82.106 87.812, 74.607 89.501 C 68.875 90.792, 66.882 92.948, 69.029 95.535 C 70.184 96.926, 71.503 97.128, 76.221 96.635 L 82 96.031 82.148 100.265 C 82.229 102.594, 82.342 105.392, 82.398 106.481 C 82.454 107.571, 83.203 108.600, 84.062 108.768 C 86.620 109.269, 89.302 105.300, 90.517 99.213 C 91.382 94.881, 92.122 93.415, 93.579 93.150 C 94.635 92.958, 96.488 91.890, 97.695 90.778 C 99.272 89.324, 100.620 88.939, 102.487 89.407 C 105.760 90.229, 106.438 91.984, 105.319 96.738 C 104.629 99.669, 103.888 100.576, 101.966 100.846 C 98.181 101.377, 97.508 102.357, 94.912 111.113 C 93.585 115.588, 92.050 119.382, 91.500 119.543 C 90.950 119.704, 87.800 120.588, 84.500 121.508 C 81.200 122.428, 77.473 123.588, 76.217 124.084 C 74.962 124.581, 70.738 125.654, 66.830 126.468 C 55.639 128.802, 52.691 131.691, 57.051 136.051 C 59.235 138.235, 62.091 137.997, 65.079 135.382 C 65.947 134.622, 68.422 133.984, 70.579 133.965 C 72.735 133.945, 75.625 133.286, 77 132.500 C 78.375 131.714, 81.464 131.055, 83.863 131.035 C 88.089 131.001, 88.211 131.087, 87.709 133.750 C 86.575 139.769, 84.046 147.248, 81.099 153.297 C 79.395 156.795, 78 160.461, 78 161.443 C 78 162.425, 77.041 165.089, 75.869 167.364 C 74.697 169.639, 73.122 172.694, 72.369 174.154 C 71.616 175.614, 71 177.372, 71 178.060 C 71 178.748, 69.875 180.786, 68.500 182.589 C 67.125 184.392, 66 186.343, 66 186.926 C 66 187.508, 64.650 189.187, 63 190.658 C 59.820 193.491, 59.230 195.830, 61.200 197.800 C 64.284 200.884, 72 197.579, 72 193.174 C 72 192.170, 73.125 190.292, 74.500 189 C 75.875 187.708, 77 186.181, 77 185.606 C 77 185.030, 78.012 182.417, 79.250 179.798 C 82.283 173.378, 84.660 173.406, 89.441 179.920 C 91.428 182.626, 92.929 185.431, 92.777 186.152 C 92.624 186.873, 94.272 188.336, 96.437 189.403 C 100.011 191.164, 101.017 191.233, 107.368 190.144 C 111.215 189.484, 114.843 188.591, 115.431 188.159 C 116.728 187.205, 137.503 187.386, 144.614 188.412 C 148.861 189.025, 149.834 188.874, 150.353 187.523 C 151.732 183.928, 145.044 178, 139.609 178 C 136.402 178, 135.396 176.330, 137.311 174.187 C 138.140 173.259, 139.984 170.295, 141.409 167.601 C 150.280 150.829, 136.729 144.021, 108 150.818 C 103.325 151.924, 98.150 153.540, 96.500 154.408 C 93.277 156.105, 90 156.503, 90 155.197 C 90 154.755, 91.382 152.514, 93.072 150.217 C 94.761 147.920, 95.909 145.661, 95.622 145.198 C 94.808 143.881, 97.778 130.988, 99.500 128.359 C 100.486 126.855, 102.035 125.988, 103.773 125.968 C 105.273 125.951, 107.374 125.276, 108.441 124.468 C 109.509 123.661, 111.785 123, 113.500 123 C 115.215 123, 117.491 122.339, 118.559 121.532 C 119.626 120.724, 121.406 120.049, 122.514 120.032 C 125.634 119.983, 135.069 116.274, 137.403 114.179 C 138.557 113.145, 140.258 112.031, 141.185 111.705 C 144.097 110.681, 145.242 107.385, 143.344 105.487 C 141.529 103.672, 136.192 104.109, 132.500 106.376 C 131.400 107.051, 128.475 108.212, 126 108.955 C 123.525 109.698, 118.903 111.428, 115.729 112.799 C 112.555 114.170, 109.662 114.995, 109.300 114.633 C 108.938 114.271, 109.448 112.293, 110.433 110.237 C 112.555 105.811, 114.514 95.578, 114.875 87.039 C 114.944 85.411, 115.563 83.618, 116.250 83.055 C 122.377 78.033, 124.437 76.718, 127.495 75.874 C 129.433 75.339, 131.777 73.744, 132.704 72.329 C 134.303 69.889, 134.291 69.686, 132.473 68.357 C 131.419 67.586, 130.040 67.155, 129.407 67.397 C 128.774 67.640, 126.193 68.148, 123.672 68.527 C 119.867 69.097, 118.632 68.856, 116.409 67.107 C 114.936 65.948, 113.149 65, 112.438 65 C 110.240 65, 107 70.098, 107 73.557 C 107 76.584, 106.513 77.087, 100.840 79.922 C 97.452 81.615, 93.965 82.997, 93.090 82.994 C 91.014 82.985, 88 77.628, 88 73.945 C 88 71.741, 87.285 70.681, 85 69.500 C 81.265 67.569, 81.182 66.217, 84.750 65.436 C 86.263 65.105, 89.525 64.202, 92 63.431 C 94.475 62.659, 101.675 60.439, 108 58.497 C 114.325 56.555, 120.175 54.665, 121 54.298 C 121.825 53.931, 123.951 53.553, 125.723 53.459 C 127.496 53.366, 129.627 52.724, 130.459 52.034 C 131.306 51.331, 135.607 50.620, 140.236 50.417 C 152.676 49.871, 156.039 46.948, 150.545 41.455 C 147.757 38.666, 143.503 38.401, 136 40.550 M 116.942 157.551 C 115.599 158.280, 112.700 159.174, 110.500 159.536 C 102.512 160.851, 97.308 163.092, 95.003 166.210 C 92.784 169.211, 92.773 169.348, 94.510 172.390 C 97.927 178.373, 101.117 182, 102.961 182 C 103.983 182, 109.023 180.628, 114.160 178.952 C 121.195 176.656, 124.446 174.990, 127.332 172.202 C 133.416 166.326, 135.657 160.556, 132.750 158.255 C 130.612 156.563, 119.659 156.075, 116.942 157.551" stroke="none" fill="black" fill-rule="evenodd"/>
</svg>