<svg xmlns="http://www.w3.org/2000/svg" width="300" height="300" viewBox="0 0 300 300" version="1.1">
	<path d="M 106.194 56.838 C 105.201 57.484, 105.053 59.580, 105.576 65.594 C 105.955 69.942, 106.691 74.039, 107.211 74.697 C 108.159 75.896, 107.691 130, 106.637 141 C 106.348 144.025, 105.858 151.675, 105.550 158 C 104.249 184.690, 103.917 189.872, 103.051 197 C 102.550 201.125, 101.899 208.369, 101.603 213.099 C 101.307 217.828, 100.601 222.920, 100.033 224.414 C 99.465 225.908, 99 229.812, 99 233.090 C 99 238.521, 99.221 239.133, 101.491 239.997 C 102.862 240.518, 104.572 240.718, 105.293 240.441 C 106.784 239.869, 109 228.357, 109 221.181 C 109 218.552, 109.444 215.956, 109.987 215.413 C 110.530 214.870, 111.233 210.167, 111.550 204.963 C 111.866 199.758, 112.884 183.575, 113.812 169 L 115.500 142.500 123.500 142.722 C 142.372 143.245, 148.721 143.729, 152.289 144.918 C 154.911 145.792, 156.460 145.863, 157.319 145.150 C 158.002 144.583, 161.022 143.980, 164.030 143.810 C 168.628 143.549, 169.540 143.181, 169.750 141.500 C 169.887 140.400, 169.212 138.520, 168.250 137.323 C 166.640 135.320, 165.261 135.089, 151 134.432 C 142.475 134.039, 131.225 133.668, 126 133.609 L 116.500 133.500 116.742 123.500 C 117.657 85.651, 116.433 63.404, 113.197 59.052 C 111.180 56.339, 108.341 55.441, 106.194 56.838" stroke="none" fill="black" fill-rule="evenodd"/>
</svg>