<svg xmlns="http://www.w3.org/2000/svg" width="300" height="300" viewBox="0 0 300 300" version="1.1">
	<path d="M 55.832 55.249 C 56.120 68.455, 55.873 71.573, 53.992 78.500 C 52.798 82.900, 51.385 88.300, 50.853 90.500 C 50.321 92.700, 49.461 94.927, 48.943 95.450 C 48.424 95.972, 48 97.421, 48 98.670 C 48 99.918, 47.100 102.542, 46 104.500 C 41.846 111.896, 45.004 114.785, 50.646 108.750 C 53.207 106.011, 58 97.346, 58 95.456 C 58 93.530, 62.280 86, 63.375 86 C 64.103 86, 66.679 84.658, 69.100 83.018 C 74.813 79.147, 76.334 79.075, 74.810 82.750 C 74.183 84.263, 73.588 89.338, 73.488 94.030 C 73.316 102.098, 72.016 107, 70.047 107 C 69.562 107, 65.641 109.106, 61.333 111.681 C 38.724 125.191, 26.124 130.918, 17.259 131.713 C 13.827 132.020, 10.527 132.864, 9.927 133.588 C 8.428 135.394, 9.736 138.967, 12.234 139.891 C 16.744 141.559, 44.246 133.719, 50.204 129.067 C 51.467 128.082, 54.525 126.259, 57 125.018 C 59.475 123.776, 63.675 121.214, 66.332 119.323 C 74.482 113.525, 74.459 113.479, 74.771 136.891 C 74.959 151.034, 74.577 160.589, 73.521 168.163 C 72.685 174.161, 72 181.302, 72 184.032 L 72 188.995 66.772 191.517 C 60.445 194.569, 58.806 194.218, 59.652 189.990 C 59.991 188.293, 59.680 180.624, 58.960 172.949 C 57.928 161.949, 57.272 158.651, 55.863 157.376 C 54.856 156.464, 53.347 156.037, 52.410 156.396 C 50.942 156.960, 50.821 158.307, 51.390 167.768 C 51.746 173.670, 52.304 180.711, 52.632 183.413 C 52.959 186.115, 52.651 191.697, 51.946 195.817 C 50.691 203.151, 50.712 203.349, 52.943 205.155 C 55.912 207.559, 57.516 207.482, 61.346 204.750 C 66.546 201.041, 73.017 198.488, 82 196.603 C 86.675 195.622, 93.875 194, 98 192.999 C 102.125 191.998, 107.126 190.905, 109.113 190.570 C 113.734 189.791, 116.863 186.581, 115.331 184.191 C 114.079 182.239, 112.725 182.253, 100.500 184.348 C 95.550 185.196, 89.025 186.028, 86 186.195 L 80.500 186.500 80.714 182.500 C 80.832 180.300, 81.206 172.877, 81.546 166.004 C 82.171 153.370, 82.865 151, 85.942 151 C 87.950 151, 95.987 144.364, 96.029 142.672 C 96.045 142.027, 98.295 139.118, 101.029 136.208 C 103.763 133.297, 106 130.216, 106 129.362 C 106 126.899, 102.043 122, 100.054 122 C 97.780 122, 90.461 131.365, 88.653 136.587 C 87.585 139.674, 86.792 140.500, 84.899 140.500 C 82.832 140.500, 82.543 140.085, 82.808 137.500 C 82.977 135.850, 83.258 129.173, 83.432 122.662 C 83.656 114.273, 84.149 110.433, 85.124 109.486 C 86.393 108.253, 93.511 105.450, 101.981 102.848 C 106.942 101.324, 114 96.217, 114 94.152 C 114 89.503, 109.572 88.868, 102.419 92.492 C 96.827 95.326, 84.129 99.463, 83.366 98.700 C 83.088 98.421, 82.600 94.756, 82.283 90.553 C 81.784 83.958, 81.362 82.643, 79.200 80.942 C 77.822 79.859, 76.876 78.826, 77.097 78.648 C 77.319 78.469, 80.425 76.587, 84 74.465 C 95.376 67.713, 97.035 65.380, 92.552 62.442 C 90.198 60.900, 89.775 61.023, 81.482 65.669 C 76.740 68.326, 71.264 71.316, 69.314 72.312 C 65.246 74.392, 62.447 73.880, 63.464 71.242 C 66.071 64.480, 66.382 61.024, 64.699 57.496 C 63.765 55.536, 63 51.798, 63 49.189 C 63 43.701, 60.863 40, 57.693 39.999 C 55.517 39.998, 55.503 40.116, 55.832 55.249 M 152.164 71.504 C 149.229 72.870, 144.104 76.059, 140.775 78.591 C 135.926 82.279, 134.170 83.084, 131.948 82.640 C 127.724 81.795, 126.991 83.487, 128.103 91.520 C 131.585 116.687, 134.443 199.556, 131.934 202.580 C 130.999 203.706, 130.964 204.964, 131.789 207.782 C 133.811 214.692, 134.741 229.385, 134.900 256.933 C 135.005 275.081, 135.429 284.812, 136.152 285.683 C 137.462 287.262, 140.624 287.417, 141.533 285.947 C 142.247 284.792, 142.160 164.486, 141.438 154 C 139.906 131.750, 137.725 97.004, 137.689 94.283 C 137.645 90.902, 139.518 88.880, 146.938 84.302 C 159.061 76.822, 161.546 76.490, 164.161 82 C 168.861 91.908, 169.363 95.515, 169.172 118 C 169.040 133.551, 168.604 138.779, 166.130 154.500 C 165.260 160.023, 162.230 160.434, 158.339 155.558 C 155.341 151.801, 153.296 151.066, 152.392 153.422 C 151.712 155.193, 153.439 158.630, 156.872 162.339 C 162.111 168, 168.268 169.571, 171.447 166.058 C 175.711 161.347, 179.165 112.272, 176.589 93 C 175.271 83.141, 170.763 74.871, 164.646 71.090 C 160.320 68.416, 158.679 68.471, 152.164 71.504" stroke="none" fill="black" fill-rule="evenodd"/>
</svg>