<svg xmlns="http://www.w3.org/2000/svg" width="300" height="300" viewBox="0 0 300 300" version="1.1">
	<path d="M 82.750 33.087 C 80.689 36.708, 80.596 38.241, 82.173 42.602 C 83.474 46.200, 82.044 59.450, 79.412 68.188 C 78.635 70.766, 78 74.233, 78 75.891 C 78 77.549, 77.487 80.165, 76.859 81.703 C 74.035 88.630, 72.965 90.772, 70.564 94.310 C 69.154 96.388, 68 98.550, 68 99.113 C 68 99.676, 65.983 102.069, 63.519 104.430 C 59.185 108.583, 59.099 108.780, 60.912 110.420 C 62.625 111.971, 63.100 111.985, 66.441 110.589 C 70.966 108.699, 79 100.820, 79 98.273 C 79 97.237, 80.125 94.864, 81.500 93 C 82.875 91.136, 84 88.600, 84 87.365 C 84 86.129, 84.450 84.840, 85 84.500 C 85.550 84.160, 86 82.614, 86 81.063 C 86 77.188, 88.398 75.255, 90.544 77.401 C 92.667 79.524, 93.687 79.420, 99 76.539 C 101.475 75.197, 104.922 73.338, 106.659 72.407 C 111.809 69.651, 113.085 70.890, 112.349 77.932 C 111.995 81.324, 112.204 85.798, 112.830 88.218 C 113.440 90.573, 114.168 98.679, 114.448 106.231 C 114.935 119.387, 114.865 120.048, 112.776 121.994 C 111.577 123.111, 108.099 124.732, 105.048 125.596 C 101.997 126.461, 97.250 128.249, 94.500 129.571 C 82.594 135.294, 69.605 140.098, 52 145.288 C 44.468 147.508, 34.692 148.983, 27.450 148.992 C 20.965 149.001, 19 150.078, 19 153.627 C 19 156.527, 24.353 159.416, 27.051 157.973 C 28.282 157.314, 29.687 157.356, 31.323 158.101 C 33.188 158.951, 35.019 158.859, 39.130 157.709 C 42.084 156.882, 47.650 155.663, 51.500 155.001 C 55.350 154.338, 60.634 152.717, 63.243 151.398 C 65.851 150.079, 68.692 149, 69.556 149 C 71.075 149, 87.330 142.725, 95.500 138.985 C 101.256 136.350, 111.040 132.852, 114.297 132.264 L 117.094 131.759 116.603 174.130 C 116.334 197.433, 115.685 219.650, 115.163 223.500 C 114.641 227.350, 114.159 234.691, 114.092 239.814 C 113.969 249.262, 113.448 254.571, 109.418 287.500 C 109.081 290.250, 108.400 292.927, 107.903 293.450 C 107.406 293.972, 107 295.660, 107 297.200 C 107 299.883, 107.203 300, 111.871 300 L 116.742 300 117.400 295.041 C 117.762 292.314, 118.397 289.873, 118.811 289.617 C 119.225 289.361, 119.671 285.440, 119.803 280.903 C 119.935 276.366, 120.514 272.086, 121.091 271.391 C 121.826 270.505, 121.794 269.484, 120.986 267.973 C 120.165 266.440, 120.130 265.052, 120.865 263.159 C 121.433 261.697, 122.138 254.650, 122.430 247.500 C 123.103 231.079, 123.061 231.637, 124.129 224.500 C 125.901 212.649, 126.753 153.569, 125.380 137.732 C 124.742 130.371, 126.378 126, 129.773 125.999 C 131.893 125.999, 142.143 122.195, 143.450 120.924 C 143.972 120.416, 146.161 120, 148.314 120 C 150.466 120, 153.864 119.159, 155.864 118.132 C 160.079 115.966, 167.611 114.033, 172.264 113.924 C 177.162 113.809, 182.164 111.662, 184.347 108.737 C 186.190 106.268, 186.208 105.967, 184.653 103.592 C 181.653 99.015, 179.530 98.595, 173.713 101.429 C 170.846 102.826, 167.028 104.259, 165.229 104.613 C 163.430 104.968, 161.716 105.650, 161.420 106.129 C 161.124 106.608, 159.942 107, 158.794 107 C 156.690 107, 147.188 110.061, 141.349 112.619 C 139.616 113.379, 137.714 114, 137.123 114 C 136.532 114, 134.575 114.898, 132.774 115.996 C 130.973 117.094, 128.262 117.994, 126.750 117.996 C 124.051 118, 123.999 117.884, 123.923 111.750 C 123.881 108.313, 123.685 104.150, 123.489 102.500 C 122.054 90.447, 120.978 78.936, 121.001 75.884 C 121.017 73.846, 120.368 71.720, 119.514 71.012 C 118.681 70.321, 118 68.910, 118 67.878 C 118 66.465, 118.731 66, 120.950 66 C 122.573 66, 125.899 64.651, 128.345 63 C 130.790 61.350, 133.456 60, 134.270 60 C 137.055 60, 150.716 53.182, 151.376 51.463 C 151.738 50.519, 151.501 49.104, 150.849 48.319 C 148.321 45.272, 146.361 45.025, 140.650 47.032 C 137.570 48.114, 134.546 49, 133.929 49 C 133.313 49, 131.614 49.841, 130.154 50.869 C 128.694 51.897, 126.375 53.058, 125 53.449 C 123.625 53.841, 120.592 55.025, 118.261 56.081 C 115.929 57.136, 113.549 58, 112.970 58 C 112.392 58, 108.674 59.744, 104.709 61.875 C 100.744 64.007, 96.037 66.067, 94.250 66.455 L 91 67.159 91 61.566 C 91 58.490, 91.531 55.123, 92.180 54.084 C 93.105 52.603, 92.980 50.067, 91.602 42.356 C 90.636 36.946, 89.375 31.952, 88.800 31.259 C 87.031 29.127, 84.583 29.867, 82.750 33.087" stroke="none" fill="black" fill-rule="evenodd"/>
</svg>