<svg xmlns="http://www.w3.org/2000/svg" width="300" height="300" viewBox="0 0 300 300" version="1.1">
	<path d="M 101.200 19.200 C 99.650 20.750, 99.650 26.250, 101.200 27.800 C 101.860 28.460, 103.217 29, 104.216 29 C 105.304 29, 106.695 30.391, 107.686 32.467 C 109.319 35.891, 109.299 35.999, 106.161 41.048 C 104.412 43.861, 103.238 46.575, 103.550 47.081 C 104.566 48.725, 108.956 48.051, 110.750 45.976 C 111.713 44.862, 113.443 42.950, 114.594 41.726 C 118.541 37.532, 118.482 34.434, 114.336 28.187 C 112.276 25.084, 109.702 21.522, 108.615 20.272 C 106.460 17.794, 103.093 17.307, 101.200 19.200 M 134.601 42 C 133.006 43.019, 129.554 44.149, 126.931 44.510 C 124.176 44.888, 121.427 45.976, 120.425 47.083 C 119.471 48.137, 117.929 49, 116.999 49 C 116.068 49, 114.001 49.647, 112.404 50.438 C 109.910 51.672, 104.282 53.367, 90.500 57.032 C 88.850 57.471, 84.350 58.816, 80.500 60.020 C 76.650 61.224, 71.475 62.433, 69 62.707 C 61.567 63.531, 58.526 68.451, 62.966 72.469 C 65.091 74.392, 66.075 74.202, 87 67.836 C 90.575 66.748, 97.775 64.728, 103 63.346 C 108.225 61.965, 112.928 60.422, 113.450 59.917 C 113.973 59.413, 115.349 59, 116.509 59 C 117.669 59, 119.491 58.339, 120.559 57.532 C 121.626 56.724, 123.681 56.049, 125.124 56.032 C 126.568 56.014, 129.662 55.325, 132 54.500 C 134.338 53.675, 137.455 53, 138.926 53 C 142.588 53, 144 51.281, 144 46.826 C 144 43.658, 143.526 42.806, 141.050 41.526 C 137.586 39.735, 138.216 39.688, 134.601 42 M 133.259 76.648 C 132.576 76.930, 131.383 78.587, 130.607 80.330 C 125.879 90.950, 123.646 95.559, 123.015 96 C 121.798 96.850, 117 104.895, 117 106.086 C 117 106.705, 115.852 108.115, 114.448 109.220 C 112.336 110.881, 111.948 111.926, 112.198 115.286 C 112.364 117.518, 113.041 119.522, 113.702 119.740 C 115.099 120.199, 126 109.965, 126 108.193 C 126 106.234, 129.776 106.842, 131.322 109.049 C 132.425 110.624, 133.382 110.942, 135.451 110.423 C 137.632 109.875, 138.772 110.356, 141.450 112.952 C 143.919 115.344, 145.484 116.073, 147.628 115.828 C 150.136 115.542, 150.538 115.039, 150.804 111.861 C 151.076 108.601, 150.633 107.833, 146.550 104.488 C 143.254 101.787, 140.742 100.613, 137.474 100.244 C 131.906 99.617, 131.138 98.546, 134.040 95.458 C 135.277 94.141, 137.137 90.551, 138.174 87.480 C 139.778 82.729, 139.867 81.495, 138.772 79.210 C 137.491 76.537, 135.625 75.670, 133.259 76.648 M 84.871 87.250 C 84.039 87.938, 81.880 91.875, 80.072 96 C 75.557 106.301, 72.276 113.068, 68.125 120.640 C 66.209 124.136, 56.734 135.535, 54.558 136.962 L 52.009 138.634 54.937 141.440 L 57.866 144.246 61.183 142.185 C 64.888 139.883, 72 132.481, 72 130.926 C 72 129.280, 75.733 122.466, 77.387 121.094 C 78.660 120.038, 80.185 120.430, 86.382 123.411 C 94.456 127.295, 98.959 127.898, 101.429 125.429 C 105.005 121.852, 102.240 117.979, 95.033 116.471 C 93.126 116.072, 90.651 115.283, 89.533 114.717 C 88.415 114.152, 86.825 113.360, 86 112.957 C 83.063 111.523, 84.267 106.454, 89.874 96.654 C 92.158 92.661, 92.018 90.161, 89.363 87.506 C 87.532 85.675, 86.824 85.635, 84.871 87.250 M 103.200 133.200 C 102.452 133.948, 102 137.651, 102 143.031 C 102 152.745, 102.300 152.351, 92.500 155.512 C 89.750 156.399, 86.600 157.702, 85.500 158.408 C 84.400 159.114, 82.375 159.939, 81 160.241 C 79.625 160.543, 73.232 162.638, 66.792 164.895 C 60.353 167.153, 54.571 169, 53.944 169 C 53.316 169, 51.384 169.631, 49.651 170.401 C 43.654 173.067, 31.354 177, 29.010 177 C 27.716 177, 25.947 177.604, 25.079 178.341 C 23.638 179.566, 18.103 181.419, 7.500 184.227 C 1.908 185.708, -0.160 187.754, 0.201 191.449 C 0.495 194.452, 0.587 194.499, 6 194.448 C 12.010 194.390, 30.550 189.537, 33.079 187.360 C 33.947 186.612, 35.522 185.998, 36.579 185.996 C 37.635 185.994, 39.850 185.200, 41.500 184.232 C 43.150 183.264, 47.200 181.649, 50.500 180.643 C 53.800 179.637, 58.525 177.903, 61 176.790 C 65.721 174.668, 79.751 170.009, 81.488 169.987 C 82.045 169.980, 85.003 168.705, 88.061 167.154 C 93.009 164.644, 102.979 161.428, 103.405 162.205 C 106.080 167.070, 107.826 183.102, 108.120 205.500 C 108.233 214.085, 108.305 272.138, 108.222 287.250 L 108.152 300 112.448 300 L 116.745 300 116.802 241.750 C 116.834 209.712, 116.494 181.925, 116.046 180 C 114.103 171.642, 112.705 158.895, 113.630 157.970 C 114.159 157.441, 117.190 156.527, 120.364 155.941 C 123.538 155.354, 128.909 153.988, 132.299 152.905 C 135.689 151.821, 141.846 150.687, 145.981 150.383 C 150.117 150.080, 154.175 149.558, 155 149.224 C 155.825 148.890, 157.850 148.551, 159.500 148.470 C 169.260 147.992, 197.907 143.876, 199.750 142.688 C 201.846 141.337, 201.156 138.524, 197.983 135.484 C 195.021 132.646, 194.882 132.618, 190.233 133.920 C 179.905 136.812, 175.893 137.463, 153.500 139.882 C 144.993 140.801, 136.428 142.545, 124.500 145.786 C 119.550 147.131, 114.375 148.292, 113 148.366 C 110.587 148.495, 110.490 148.259, 110.200 141.542 C 110.034 137.715, 109.417 134.002, 108.827 133.292 C 107.482 131.671, 104.773 131.627, 103.200 133.200" stroke="none" fill="black" fill-rule="evenodd"/>
</svg>