<svg xmlns="http://www.w3.org/2000/svg" width="300" height="300" viewBox="0 0 300 300" version="1.1">
	<path d="M 116.185 33.665 C 114.041 34.553, 112.652 39.025, 112.058 46.954 L 111.500 54.408 105.500 55.837 C 102.200 56.623, 98.150 57.889, 96.500 58.649 C 94.850 59.409, 89.900 60.680, 85.500 61.473 C 72.488 63.820, 70.539 64.441, 70.168 66.364 C 69.650 69.057, 72.708 71.775, 77.090 72.515 C 80.003 73.007, 82.724 72.545, 87.751 70.706 C 98.277 66.853, 101.390 66, 104.936 66 L 108.230 66 107.524 71.653 C 107.136 74.762, 106.467 78.249, 106.038 79.403 C 105.610 80.556, 104.481 84.200, 103.530 87.500 C 102.579 90.800, 101.396 94.281, 100.900 95.236 C 100.405 96.191, 100 97.863, 100 98.951 C 100 100.039, 98.875 102.944, 97.500 105.407 C 96.125 107.870, 95 110.633, 95 111.548 C 95 112.463, 93.875 114.548, 92.500 116.182 C 89.951 119.212, 89.258 122.423, 90.930 123.457 C 92.338 124.327, 100.292 115.349, 102.020 110.939 C 102.857 108.805, 104.094 106.506, 104.770 105.830 C 105.447 105.153, 106 103.890, 106 103.023 C 106 102.155, 106.618 100.557, 107.372 99.473 C 108.127 98.388, 109.056 96.069, 109.437 94.319 C 109.817 92.570, 110.770 90.606, 111.555 89.955 C 112.427 89.231, 112.753 87.863, 112.394 86.432 C 112.068 85.133, 112.516 82.671, 113.403 80.893 C 114.282 79.133, 115 76.888, 115 75.905 C 115 74.922, 115.390 73.877, 115.867 73.582 C 116.344 73.287, 116.969 70.971, 117.254 68.436 C 117.540 65.901, 118.202 63.398, 118.726 62.874 C 119.249 62.351, 123.755 61.104, 128.739 60.105 C 138.791 58.088, 144.301 55.253, 146.524 50.953 C 148.396 47.333, 148.388 45.567, 146.493 43.994 C 145.256 42.968, 144.304 43.195, 141.186 45.258 C 137.967 47.388, 124.151 52, 120.989 52 C 119.462 52, 119.811 49.294, 121.893 44.984 C 123.561 41.532, 123.633 40.615, 122.493 37.283 C 121.226 33.581, 119.198 32.418, 116.185 33.665 M 153 109.701 C 149.167 110.358, 137.745 114.217, 135.500 115.614 C 134.400 116.298, 129.900 118.272, 125.500 120 C 121.100 121.728, 116.600 123.718, 115.500 124.422 C 112.551 126.310, 95.819 132.999, 94.035 133.004 C 93.191 133.006, 91.027 133.906, 89.226 135.004 C 87.425 136.102, 85.344 137, 84.600 137 C 83.857 137, 80.830 138.057, 77.874 139.349 C 74.918 140.642, 67.325 142.944, 61 144.466 C 54.675 145.988, 48.226 147.855, 46.669 148.616 C 42.494 150.657, 41.410 150.360, 39.169 146.562 C 36.984 142.858, 31.698 139.518, 29.410 140.396 C 27.373 141.178, 27.672 146.437, 30.015 151.029 C 31.674 154.282, 31.815 155.324, 30.809 156.934 C 29.798 158.554, 29.907 159.240, 31.449 160.944 C 32.473 162.075, 34.150 163, 35.176 163 C 36.288 163, 37.473 164.112, 38.106 165.750 C 38.690 167.262, 39.806 169.774, 40.584 171.331 C 41.363 172.888, 42.014 174.913, 42.032 175.831 C 42.049 176.749, 42.724 178.374, 43.532 179.441 C 44.339 180.509, 45 182.366, 45 183.569 C 45 184.771, 45.625 186.274, 46.389 186.908 C 47.153 187.542, 48.274 190.033, 48.881 192.443 C 49.488 194.854, 51.563 199.854, 53.492 203.555 C 55.426 207.264, 57 211.759, 57 213.571 C 57 219.384, 61.913 221.963, 65.480 218.023 C 66.767 216.601, 67.114 215.089, 66.717 212.641 C 65.991 208.172, 67.350 207, 73.258 207 C 76.578 207, 79.532 206.209, 82.593 204.500 C 85.056 203.125, 87.736 202, 88.549 202 C 89.362 202, 90.809 201.586, 91.764 201.080 C 92.719 200.575, 96.299 199.175, 99.719 197.970 C 103.140 196.765, 106.457 195.154, 107.092 194.390 C 108.543 192.641, 111.421 192.597, 112.836 194.302 C 113.511 195.116, 113.751 198.960, 113.474 204.552 C 113.231 209.474, 112.776 219.800, 112.463 227.500 C 112.151 235.200, 111.663 242.175, 111.380 243 C 110.863 244.507, 109.114 269.855, 108.539 284.158 C 108.370 288.370, 107.957 292.261, 107.620 292.805 C 107.284 293.349, 107.288 295.191, 107.629 296.897 C 108.210 299.800, 108.532 300, 112.625 300 L 117 300 117.200 294.250 C 117.310 291.087, 117.427 287.150, 117.461 285.500 C 117.495 283.850, 117.834 282.015, 118.214 281.423 C 118.594 280.830, 119.201 271.605, 119.563 260.923 C 119.924 250.240, 120.422 241.162, 120.669 240.750 C 121.524 239.322, 124.224 240.010, 127.030 242.372 C 129.572 244.510, 130.570 244.700, 137.174 244.296 C 141.204 244.050, 145.976 243.098, 147.780 242.181 C 150.768 240.661, 165 226.043, 165 224.493 C 165 224.132, 166.575 221.915, 168.500 219.565 C 170.425 217.216, 172 214.779, 172 214.150 C 172 213.521, 173.596 211.239, 175.547 209.080 C 179.397 204.818, 183.989 196.519, 183.996 193.809 C 183.998 192.879, 184.450 191.840, 185 191.500 C 185.550 191.160, 186 189.931, 186 188.770 C 186 187.608, 186.668 185.919, 187.485 185.016 C 189.330 182.978, 194 170.288, 194 167.313 C 194 166.106, 194.478 164.823, 195.062 164.462 C 197.069 163.221, 198.226 158.483, 198.691 149.599 C 199.172 140.405, 198.613 137.816, 193.811 127 C 191.865 122.616, 186.436 116, 184.784 116 C 184.331 116, 182.189 114.882, 180.025 113.516 C 177.158 111.706, 173.703 110.758, 167.295 110.024 C 158.260 108.989, 157.282 108.967, 153 109.701 M 149 120.002 C 148.175 120.483, 144.575 121.937, 141 123.232 C 135.030 125.394, 134.475 125.843, 134.190 128.744 C 133.987 130.820, 133.215 132.114, 131.939 132.519 C 130.871 132.858, 129.477 134.117, 128.840 135.318 C 128.204 136.518, 126.854 138.088, 125.841 138.807 C 124.829 139.525, 124 140.740, 124 141.507 C 124 142.273, 121.975 144.593, 119.500 146.662 C 117.025 148.731, 115 150.765, 115 151.183 C 115 151.600, 113.562 153.982, 111.804 156.475 C 109.615 159.581, 108.933 161.333, 109.637 162.037 C 111.050 163.450, 113.697 162.268, 114.302 159.955 C 114.888 157.712, 119.808 155.148, 120.822 156.557 C 123.098 159.722, 124.884 160.182, 127.927 158.384 C 130.898 156.629, 130.987 156.639, 133.520 159.019 C 136.999 162.287, 136.632 166.946, 132.750 168.798 C 129.807 170.201, 128.996 173, 131.532 173 C 132.375 173, 134.688 172.321, 136.673 171.492 C 138.658 170.663, 142.619 169.710, 145.475 169.374 C 150.294 168.808, 150.825 168.962, 152.834 171.517 C 155.591 175.021, 155.555 176.130, 152.594 178.911 C 150.609 180.776, 149.825 180.976, 148.105 180.056 C 146.504 179.199, 145.496 179.271, 143.760 180.364 C 142.517 181.147, 138.936 182.090, 135.802 182.460 C 129.459 183.207, 125.555 185.654, 124.593 189.484 C 124.246 190.868, 123.633 192, 123.231 192 C 122.829 192, 122.648 195.487, 122.830 199.750 C 123.220 208.931, 123.178 211.263, 122.454 220.500 L 121.906 227.500 125.741 231.644 C 130.229 236.495, 136.002 238.625, 139.462 236.708 C 142.073 235.261, 162 213.906, 162 212.555 C 162 212.035, 163.063 210.460, 164.362 209.055 C 166.770 206.451, 174 193.573, 174 191.888 C 174 191.378, 175.125 189.178, 176.500 187 C 177.875 184.822, 179 182.354, 179 181.515 C 179 180.676, 180.125 177.658, 181.500 174.808 C 182.875 171.958, 184 168.611, 184 167.372 C 184 166.132, 184.400 164.871, 184.890 164.568 C 187.423 163.002, 188.217 142.967, 186.090 134.270 C 184.761 128.841, 181.177 124.694, 175.091 121.547 C 171.769 119.829, 151.365 118.621, 149 120.002 M 116.500 132.190 C 115.400 132.812, 113.228 134.373, 111.673 135.660 C 110.119 136.947, 108.067 138, 107.114 138 C 106.162 138, 104.526 138.626, 103.479 139.392 C 101.862 140.574, 101.776 141.025, 102.910 142.392 C 105.341 145.320, 110.218 144.393, 114.179 140.250 C 117.438 136.841, 120 133.018, 120 131.566 C 120 130.708, 118.720 130.936, 116.500 132.190 M 86.504 145.737 C 85.407 146.014, 83.434 147.087, 82.120 148.121 C 80.805 149.154, 78.243 150, 76.425 150 C 74.607 150, 70.518 151.350, 67.337 153 C 62.927 155.288, 60.226 156, 55.952 156 C 51.260 156, 49.965 156.409, 47.988 158.513 C 46.166 160.452, 45.898 161.298, 46.813 162.213 C 47.466 162.866, 48 164.441, 48 165.714 C 48 166.986, 48.444 168.809, 48.986 169.764 C 50.880 173.098, 55 183.260, 55 184.598 C 55 185.339, 56.145 187.871, 57.544 190.223 C 58.943 192.575, 60.340 195.268, 60.649 196.206 C 61.130 197.668, 62.349 197.859, 69.151 197.541 C 73.518 197.336, 77.633 196.741, 78.296 196.218 C 78.958 195.694, 82.650 194.233, 86.500 192.970 C 93.660 190.622, 109.470 182.899, 111.791 180.616 C 113.563 178.873, 111.691 173.984, 109.275 174.044 C 106.131 174.122, 98.045 176.555, 96.804 177.796 C 94.798 179.802, 92.249 179.159, 90.068 176.096 C 88.931 174.498, 88 172.667, 88 172.026 C 88 170.283, 93.243 163.120, 98.423 157.786 C 100.940 155.194, 103 152.657, 103 152.150 C 103 151.642, 101.036 150.933, 98.636 150.573 C 95.906 150.163, 93.407 148.998, 91.962 147.459 C 90.691 146.107, 89.392 145.052, 89.076 145.116 C 88.759 145.180, 87.602 145.459, 86.504 145.737" stroke="none" fill="black" fill-rule="evenodd"/>
</svg>