<svg xmlns="http://www.w3.org/2000/svg" width="300" height="300" viewBox="0 0 300 300" version="1.1">
	<path d="M 155.583 34.865 C 155.257 35.394, 153.138 36.139, 150.874 36.521 C 148.611 36.904, 144.266 38.319, 141.217 39.667 C 135.277 42.294, 120.196 46.330, 108 48.557 C 103.875 49.310, 97.350 50.649, 93.500 51.533 C 89.650 52.418, 83.350 53.563, 79.500 54.079 C 75.650 54.595, 66.200 55.958, 58.500 57.109 C 50.800 58.260, 42.475 59.503, 40 59.870 C 36.230 60.431, 35.444 60.932, 35.155 62.964 C 34.631 66.650, 37.431 68.139, 43.452 67.375 C 46.228 67.022, 48.950 66.433, 49.500 66.066 C 50.730 65.245, 64 64.739, 64 65.513 C 64 65.820, 63.333 67.089, 62.517 68.333 C 61.386 70.059, 60.894 75.443, 60.442 91.048 C 60.115 102.297, 59.643 114.425, 59.393 118 C 58.269 134.026, 57.983 138.616, 56.992 156.500 C 56.413 166.950, 55.518 180.675, 55.003 187 C 54.488 193.325, 53.795 203.041, 53.464 208.592 L 52.862 218.684 57.181 223.247 C 63.688 230.123, 68.799 231.828, 86.083 232.890 C 94.104 233.383, 101.754 233.639, 103.083 233.460 C 104.412 233.280, 109.550 232.583, 114.500 231.911 C 119.450 231.240, 124.258 230.310, 125.185 229.845 C 126.151 229.360, 128.014 229.435, 129.556 230.021 C 131.442 230.739, 132.640 230.713, 133.576 229.937 C 134.309 229.328, 137.742 228.239, 141.205 227.517 C 146.541 226.403, 148.377 226.425, 153.258 227.661 C 156.425 228.464, 160.700 228.980, 162.758 228.810 C 165.879 228.551, 166.783 227.934, 168.204 225.087 C 169.837 221.814, 174.769 219.056, 179.062 219.015 C 184.075 218.967, 193.467 211.685, 192.832 208.339 C 192.297 205.521, 184.835 205.269, 181.082 207.942 C 179.492 209.074, 177.443 210, 176.528 210 C 174.747 210, 174.948 208.465, 177.512 202.500 C 178.221 200.850, 179.046 198.600, 179.345 197.500 C 179.644 196.400, 180.842 192.800, 182.008 189.500 C 183.173 186.200, 184.581 181.025, 185.136 178 C 186.429 170.951, 186.330 145.930, 185.004 144.604 C 184.452 144.052, 183.992 142.902, 183.983 142.050 C 183.961 139.994, 177.201 133.407, 173.777 132.105 C 172.284 131.538, 168.235 131.223, 164.781 131.407 C 158.539 131.739, 155.402 132.825, 141.500 139.468 C 137.650 141.307, 130.675 144.476, 126 146.509 C 121.325 148.542, 115.700 151.029, 113.500 152.035 C 111.300 153.041, 106.921 154.824, 103.769 155.997 C 100.617 157.170, 97.778 158.550, 97.460 159.065 C 97.142 159.579, 95.731 160, 94.324 160 C 92.179 160, 91.854 159.638, 92.308 157.750 C 94.451 148.830, 96.002 141.195, 96.015 139.500 C 96.046 135.459, 97.266 134.811, 102.307 136.160 C 106.565 137.299, 107.132 137.230, 109.223 135.328 C 111.466 133.286, 113.299 132.670, 121.799 131.097 C 124.163 130.660, 126.616 129.784, 127.249 129.151 C 127.882 128.518, 130.049 128, 132.065 128 C 135.910 128, 141 124.891, 141 122.542 C 141 120.953, 137.479 118.557, 133.820 117.657 C 131.333 117.044, 131.207 116.764, 132.067 113.749 C 132.577 111.962, 134.120 109.675, 135.497 108.667 C 137.133 107.468, 138 105.865, 138 104.039 C 138 102.502, 138.702 100.663, 139.559 99.951 C 141.514 98.328, 140.611 91.119, 138.218 89.250 C 135.962 87.488, 129.765 87.698, 125.831 89.669 C 119.661 92.761, 119.033 93, 117.073 93 C 115.998 93, 114.871 93.400, 114.568 93.889 C 114.266 94.378, 112.804 95.083, 111.319 95.456 C 109.834 95.829, 106.952 97.454, 104.916 99.067 C 99.032 103.727, 98.418 103.224, 98.462 93.785 L 98.500 85.569 103 85.324 C 115.208 84.661, 122.227 82.670, 127.246 78.447 C 129.324 76.698, 130.848 76.175, 132.590 76.612 C 135.879 77.437, 138 75.447, 138 71.533 C 138 68.207, 135.484 64.982, 132.921 65.022 C 132.140 65.034, 130.375 65.924, 129 67 C 127.625 68.076, 125.410 68.966, 124.079 68.978 C 122.747 68.990, 120.947 69.630, 120.079 70.400 C 117.433 72.746, 105.033 76.080, 95.085 77.121 C 83.374 78.346, 81.784 79.110, 82.192 83.316 C 82.454 86.027, 82.946 86.550, 85.500 86.838 C 87.150 87.025, 88.962 87.559, 89.527 88.026 C 90.637 88.943, 90.641 96.127, 89.544 116.500 C 88.918 128.140, 88.384 133.071, 86.314 146.325 C 85.904 148.948, 84.818 150.814, 82.858 152.263 C 79.926 154.431, 79.127 157.342, 81.126 158.578 C 82.776 159.597, 81.437 171.636, 78.409 183 C 77.017 188.225, 75.526 193.861, 75.096 195.524 C 74.665 197.186, 73.792 199.519, 73.156 200.708 C 72.520 201.896, 72 203.654, 72 204.615 C 72 205.575, 71.020 208.529, 69.822 211.180 C 68.119 214.948, 67.132 216, 65.301 216 C 62.967 216, 62.960 215.962, 63.071 203.750 C 63.132 197.012, 63.611 189.511, 64.134 187.081 C 64.656 184.650, 65.262 175.875, 65.480 167.581 C 66.364 133.917, 66.619 128.425, 67.356 127.233 C 67.779 126.548, 68.020 122.953, 67.891 119.244 C 67.761 115.535, 67.958 107.438, 68.328 101.250 C 70.149 70.774, 70.144 68.180, 68.262 67.119 C 66.921 66.362, 66.778 65.844, 67.663 64.949 C 69.126 63.471, 77.800 61.802, 80.147 62.547 C 81.115 62.854, 84.230 62.415, 87.069 61.572 C 89.908 60.729, 97.242 59.554, 103.365 58.961 C 109.489 58.368, 116.300 57.249, 118.500 56.475 C 120.700 55.700, 124.525 54.765, 127 54.397 C 129.475 54.028, 131.950 53.381, 132.500 52.957 C 133.050 52.534, 135.750 51.863, 138.500 51.466 C 141.250 51.069, 144.389 50.282, 145.476 49.716 C 147.597 48.612, 151.318 47.566, 159.909 45.657 C 163.799 44.792, 165.893 43.684, 167.366 41.712 C 169.398 38.990, 169.399 38.955, 167.457 37.094 C 165.270 34.999, 156.516 33.355, 155.583 34.865 M 121 100.500 C 119.136 101.875, 116.404 103, 114.928 103 C 113.452 103, 111.663 103.701, 110.952 104.558 C 109.086 106.806, 103.468 108.935, 101.063 108.306 C 99.916 108.006, 98.944 108.263, 98.875 108.883 C 98.806 109.498, 98.571 111.237, 98.351 112.750 C 97.151 121.030, 96.918 130, 97.904 130 C 98.491 130, 102.015 128.395, 105.736 126.434 C 112.777 122.722, 122.541 114.049, 123.637 110.533 C 123.985 109.415, 125.559 107.022, 127.135 105.215 C 130.515 101.340, 130.653 100.420, 128.066 99.035 C 125.343 97.578, 124.811 97.688, 121 100.500 M 158 140.500 C 157.315 141.325, 155.989 142, 155.052 142 C 154.115 142, 152.292 143.125, 151 144.500 C 149.708 145.875, 148.055 147, 147.326 147 C 145.424 147, 145.690 148.290, 148 150.268 C 149.164 151.265, 150 153.218, 150 154.941 C 150 159.603, 152.373 160.183, 160.076 157.405 C 167.810 154.615, 170.279 154.426, 171.996 156.495 C 173.877 158.761, 171.056 162.331, 166.090 163.970 C 163.825 164.718, 161.473 165.930, 160.863 166.665 C 160.254 167.399, 158.446 168, 156.846 168 C 155.246 168, 153.726 168.563, 153.467 169.250 C 153.209 169.938, 152.750 175, 152.447 180.500 C 151.436 198.891, 150.419 206.623, 148.890 207.568 C 146.245 209.202, 149.256 216.012, 152.610 215.985 C 156.557 215.953, 166 211.700, 166 209.954 C 166 209.417, 166.838 207.071, 167.861 204.739 C 168.885 202.408, 170.863 196.675, 172.256 192 C 177.551 174.231, 178.165 170.714, 177.682 160.894 C 177.065 148.342, 176.331 145.561, 172.698 142.009 C 170.076 139.446, 168.852 139, 164.433 139 C 161.041 139, 158.814 139.519, 158 140.500 M 135 150.727 C 133.625 150.978, 131.825 151.762, 131 152.471 C 130.175 153.179, 128.037 154.500, 126.250 155.405 C 123.870 156.611, 123 157.731, 123 159.588 C 123 163.122, 126.020 172, 127.222 172 C 129.133 172, 140.634 166.062, 142.310 164.210 C 143.690 162.685, 143.844 161.488, 143.144 157.741 C 142.326 153.362, 140.094 149.842, 138.321 150.136 C 137.870 150.211, 136.375 150.477, 135 150.727 M 107.140 163.351 C 105.925 164.645, 103.124 166.299, 100.915 167.028 C 98.707 167.757, 96.685 168.701, 96.422 169.125 C 95.759 170.199, 97.927 183.313, 98.936 184.330 C 101.457 186.870, 118.019 177.620, 117.976 173.697 C 117.933 169.842, 115.930 162.576, 114.694 161.790 C 112.445 160.360, 109.348 161, 107.140 163.351 M 135.371 177.311 C 133.649 178.515, 131.479 179.950, 130.547 180.500 C 128.317 181.817, 127.126 193.241, 128.985 195.482 C 129.994 196.697, 129.995 197.301, 128.994 198.507 C 127.993 199.713, 128 200.927, 129.028 204.601 C 130.548 210.030, 129.610 211.179, 124 210.761 C 121.114 210.546, 120.439 210.062, 120.154 208 C 119.964 206.625, 119.344 204.934, 118.776 204.243 C 118.062 203.374, 118.117 201.654, 118.955 198.662 C 119.621 196.284, 120.016 193.024, 119.833 191.419 C 119.565 189.073, 118.956 188.438, 116.729 188.182 C 115.172 188.003, 112.491 188.770, 110.611 189.932 C 108.770 191.069, 106.080 192, 104.632 192 C 102.062 192, 102 192.152, 102 198.435 C 102 201.974, 102.462 206.085, 103.027 207.570 C 104.243 210.770, 102.064 215, 99.200 215 C 96.984 215, 91 209.610, 91 207.613 C 91 206.788, 92.005 205.410, 93.232 204.550 C 95.432 203.009, 95.441 202.918, 93.803 198.243 C 92.889 195.634, 91.859 191.700, 91.513 189.500 C 90.358 182.149, 89.970 181, 88.641 181 C 87.069 181, 85 185.179, 85 188.356 C 85 189.600, 84.339 191.491, 83.532 192.559 C 82.724 193.626, 82.049 195.686, 82.032 197.136 C 82.014 198.585, 81.328 201.060, 80.506 202.636 C 79.685 204.211, 79.010 206.364, 79.006 207.419 C 79.003 208.475, 77.669 211.697, 76.041 214.581 C 71.674 222.319, 71.648 222.306, 94.500 223.418 C 99.360 223.654, 107.799 223.024, 116 221.811 C 123.425 220.714, 132.313 219.496, 135.752 219.106 C 143.779 218.194, 144.922 217.103, 142.060 213.084 C 140.857 211.395, 140.145 209.574, 140.478 209.036 C 140.810 208.499, 140.406 206.753, 139.581 205.156 C 137.950 202.002, 138.332 201, 141.167 201 C 142.396 201, 143.006 200.259, 143.017 198.750 C 143.027 197.512, 143.139 191.775, 143.267 186 L 143.500 175.500 141 175.311 C 139.625 175.207, 137.092 176.107, 135.371 177.311" stroke="none" fill="black" fill-rule="evenodd"/>
</svg>