<svg xmlns="http://www.w3.org/2000/svg" width="300" height="300" viewBox="0 0 300 300" version="1.1">
	<path d="M 80 62.408 C 73.742 64.740, 69.394 66, 67.601 66 C 65.108 66, 58.015 73.480, 56.889 77.294 C 56.369 79.057, 56.234 83.315, 56.589 86.756 C 56.965 90.404, 56.824 93.531, 56.249 94.256 C 55.708 94.940, 54.957 100.143, 54.582 105.818 C 54.206 111.492, 53.472 117.259, 52.950 118.633 C 52.427 120.006, 52 123.582, 52 126.579 C 52 129.575, 51.610 132.809, 51.134 133.764 C 49.522 136.996, 47.752 142.484, 47.264 145.759 C 46.997 147.552, 46.379 149.266, 45.890 149.568 C 45.400 149.871, 45 151.035, 45 152.155 C 45 153.275, 44.261 155.611, 43.357 157.346 C 40.249 163.315, 40 163.980, 40 166.331 C 40 167.629, 39.145 169.464, 38.099 170.410 C 37.053 171.357, 35.898 173.732, 35.531 175.688 C 34.850 179.318, 34.587 180.008, 31.669 185.831 C 30.751 187.663, 30 189.765, 30 190.501 C 30 191.681, 27.704 196.695, 20.913 210.345 C 19.861 212.459, 19 214.986, 19 215.960 C 19 216.933, 18.102 218.872, 17.004 220.268 C 15.906 221.664, 13.385 226.271, 11.402 230.505 C 9.419 234.739, 6.043 239.957, 3.898 242.102 C -1.051 247.051, -1.354 250.544, 3.082 251.518 C 5.521 252.054, 6.687 251.705, 8.673 249.847 C 11.591 247.117, 17 239.358, 17 237.902 C 17 236.719, 18.694 233.329, 26.878 218.136 C 30.245 211.885, 33 206.203, 33 205.508 C 33 204.813, 33.646 203.709, 34.436 203.053 C 35.225 202.398, 36.182 200.448, 36.561 198.721 C 36.941 196.993, 38.066 193.987, 39.062 192.040 C 40.057 190.093, 41.190 186.738, 41.578 184.585 C 41.967 182.431, 43.379 179.056, 44.717 177.085 C 46.055 175.113, 47.399 172.253, 47.704 170.729 C 48.009 169.205, 48.650 167.716, 49.129 167.420 C 49.608 167.124, 50 165.832, 50 164.548 C 50 163.264, 50.649 161.965, 51.442 161.661 C 53.659 160.810, 60.130 162.124, 63.780 164.165 C 65.585 165.174, 67.731 166, 68.550 166 C 69.369 166, 71.876 167.159, 74.119 168.575 C 81.784 173.414, 86.884 176, 88.761 176 C 89.793 176, 92.406 177.575, 94.568 179.499 C 96.731 181.424, 98.950 183.018, 99.500 183.042 C 100.050 183.066, 103.650 185.092, 107.500 187.546 C 111.350 190, 115.476 192.430, 116.668 192.948 C 117.861 193.465, 120.933 195.488, 123.495 197.444 C 126.057 199.400, 128.831 201, 129.659 201 C 130.487 201, 134.655 203.700, 138.921 207 C 143.187 210.300, 147.130 213, 147.683 213 C 148.237 213, 149.505 213.900, 150.500 215 C 151.495 216.100, 152.668 217, 153.105 217 C 154.572 217, 164.323 224.462, 167.923 228.338 C 169.883 230.449, 172.947 232.787, 174.733 233.533 C 179.127 235.369, 185.706 240.767, 186.295 243.019 C 186.582 244.118, 188.429 245.348, 190.907 246.090 C 193.787 246.953, 195.670 248.348, 197.119 250.692 C 198.262 252.542, 200.779 254.717, 202.713 255.525 C 204.646 256.332, 207.768 258.345, 209.649 259.997 C 213.669 263.527, 214.876 263.672, 218.233 261.032 C 221.958 258.101, 220.844 254.877, 214.434 250.038 C 211.492 247.817, 208.788 246, 208.425 246 C 208.061 246, 206.245 244.762, 204.388 243.250 C 202.531 241.737, 199.485 239.263, 197.619 237.750 C 195.753 236.238, 193.813 235, 193.308 235 C 192.804 235, 190.770 233.537, 188.789 231.750 C 186.808 229.963, 184.533 228.050, 183.734 227.500 C 182.935 226.950, 180.980 225.618, 179.390 224.541 C 175.784 222.097, 166.232 214.851, 159.233 209.250 C 156.312 206.912, 153.511 205, 153.009 205 C 152.507 205, 149.199 202.975, 145.659 200.500 C 142.118 198.025, 138.858 196, 138.414 196 C 136.926 196, 130 190.741, 130 189.611 C 130 187.953, 135.570 183, 137.435 183 C 138.323 183, 139.515 181.762, 140.083 180.250 C 140.651 178.738, 142.821 175.700, 144.904 173.500 C 150.413 167.683, 153 162.836, 153 158.332 C 153 153.865, 151.622 152, 148.320 152 C 146.654 152, 145.472 153.115, 143.927 156.143 C 141.110 161.665, 135.051 170.288, 133.234 171.363 C 131.287 172.514, 129.109 174.935, 125.558 179.892 C 122.437 184.250, 120.090 185.019, 117.914 182.396 C 117.181 181.514, 115.664 180.394, 114.541 179.908 C 113.418 179.423, 109.800 177.465, 106.500 175.558 C 103.200 173.651, 98.475 171.074, 96 169.830 C 93.525 168.587, 90.154 166.654, 88.509 165.535 C 86.864 164.416, 80.339 160.877, 74.009 157.670 C 64.226 152.715, 61.947 151.928, 58.810 152.423 C 54.016 153.178, 53.222 151.713, 56.389 147.950 C 57.781 146.295, 59.193 143.267, 59.526 141.221 C 59.859 139.174, 60.439 136.748, 60.816 135.828 C 61.758 133.525, 79.112 120.440, 82.276 119.645 C 86.514 118.582, 91 113.356, 91 109.482 C 91 107.632, 90.550 105.840, 90 105.500 C 87.577 104.002, 89.369 100.489, 95.683 94.359 C 102.113 88.116, 102.378 87.666, 102.690 82.483 C 102.868 79.520, 103.458 75.926, 104.001 74.497 C 105.311 71.053, 102.112 64.626, 98.040 62.521 C 94.456 60.667, 84.831 60.607, 80 62.408 M 78.314 74.372 C 74.912 75.542, 71.800 76.838, 71.398 77.250 C 70.996 77.662, 69.703 78, 68.524 78 C 66.477 78, 66.375 78.476, 66.230 88.750 C 66.147 94.662, 65.790 101.906, 65.436 104.847 C 65.083 107.788, 65.196 110.596, 65.688 111.088 C 66.800 112.200, 71 109.406, 71 107.553 C 71 106.819, 75.275 102.185, 80.500 97.256 C 87.487 90.664, 90 87.643, 90 85.837 C 90 84.487, 90.661 82.509, 91.468 81.441 C 94.103 77.958, 93.371 75.182, 89.378 73.513 C 85.165 71.753, 86.149 71.677, 78.314 74.372 M 131.457 76.136 C 130.992 77.602, 131.968 80.659, 134.569 85.886 C 136.653 90.074, 138.953 94.694, 139.679 96.154 C 140.406 97.614, 141.008 100.539, 141.018 102.654 C 141.029 104.769, 141.702 110.259, 142.514 114.853 C 143.326 119.447, 143.721 123.642, 143.391 124.177 C 143.061 124.711, 143.821 126.245, 145.080 127.585 L 147.370 130.023 144.185 133.309 C 140.315 137.302, 140.136 140.204, 143.619 142.486 C 146.640 144.466, 150.726 143.998, 154.834 141.202 C 158.427 138.757, 167.280 136.683, 170.813 137.459 C 172.788 137.893, 174.080 137.608, 174.963 136.544 C 175.668 135.695, 177.321 135, 178.637 135 C 180.263 135, 181.664 133.959, 183.011 131.750 C 185.511 127.649, 185.528 125.353, 183.066 124.035 C 180.531 122.679, 174.692 122.708, 173.315 124.085 C 172.719 124.681, 171.166 125.019, 169.865 124.835 C 166.501 124.359, 167.274 120.551, 171.553 116.515 C 173.410 114.763, 175.784 111.337, 176.828 108.901 C 177.872 106.465, 179.463 103.860, 180.363 103.113 C 181.264 102.366, 182 100.737, 182 99.492 C 182 98.247, 182.672 95.940, 183.494 94.364 C 185.620 90.287, 185.354 85.125, 182.750 79.963 C 179.822 74.157, 176.839 73.060, 170.916 75.610 C 158.930 80.771, 158.345 81.290, 154.420 90.242 C 150.931 98.201, 155.744 99.257, 164.505 92.454 C 171.380 87.115, 174.624 86.799, 174.281 91.501 C 174.026 94.990, 172.468 98.360, 169.275 102.327 C 168.024 103.881, 167 105.616, 167 106.182 C 167 106.748, 165.875 108.548, 164.500 110.182 C 163.125 111.816, 162 113.729, 162 114.433 C 162 116.790, 154.972 125, 152.954 125 C 150.730 125, 150.423 122.897, 152.225 120.011 C 153.192 118.464, 153.192 117.792, 152.225 116.825 C 151.515 116.115, 151 112.925, 151 109.238 C 151 102.226, 149.126 95.008, 145.422 87.757 C 144.090 85.149, 143 82.134, 143 81.058 C 143 78.706, 137.148 74, 134.223 74 C 132.969 74, 131.864 74.853, 131.457 76.136 M 178.342 167.551 C 177.702 169.218, 181.542 174, 183.521 174 C 187.860 174, 200.402 183.231, 212.285 195.172 C 219.212 202.133, 221.669 204, 223.904 204 C 226.393 204, 226.811 203.553, 227.334 200.332 C 227.853 197.133, 227.486 196.173, 224.464 192.829 C 222.559 190.720, 220.981 188.433, 220.957 187.747 C 220.907 186.273, 211.744 179, 209.937 179 C 209.250 179, 207.296 177.981, 205.594 176.736 C 201.966 174.082, 191.040 168.743, 185.929 167.128 C 181.082 165.597, 179.049 165.710, 178.342 167.551" stroke="none" fill="black" fill-rule="evenodd"/>
</svg>