<svg xmlns="http://www.w3.org/2000/svg" width="300" height="300" viewBox="0 0 300 300" version="1.1">
	<path d="M 150.500 59 C 150.160 59.550, 148.723 60, 147.307 60 C 141.905 60, 137.123 62.263, 133.803 66.392 L 130.500 70.499 130.191 90.968 C 130.021 102.226, 129.480 111.922, 128.988 112.514 C 128.497 113.107, 127.859 115.993, 127.571 118.928 C 126.901 125.770, 125.064 135.925, 124.031 138.500 C 123.589 139.600, 122.680 142.525, 122.010 145 C 121.340 147.475, 120.318 150.625, 119.739 152 C 119.160 153.375, 118.353 156.525, 117.945 159 C 117.269 163.107, 111.303 181.986, 108.781 188 C 108.204 189.375, 107.403 191.400, 107 192.500 C 105.088 197.722, 98.998 211.316, 95.353 218.500 C 94.795 219.600, 93.676 221.850, 92.866 223.500 C 92.057 225.150, 90.478 228.300, 89.358 230.500 C 88.239 232.700, 86.525 236.300, 85.550 238.500 C 84.576 240.700, 83.378 243.281, 82.889 244.236 C 81.652 246.652, 81.689 246.750, 84.546 248.622 C 87.049 250.262, 87.153 250.224, 90.662 246.395 C 92.626 244.253, 94.933 240.250, 95.788 237.500 C 96.643 234.750, 97.867 231.825, 98.507 231 C 99.147 230.175, 100.273 227.925, 101.010 226 C 101.747 224.075, 103.171 221.306, 104.175 219.846 C 105.179 218.386, 106 216.803, 106 216.328 C 106 215.853, 107.125 213.809, 108.500 211.785 C 109.875 209.762, 111 207.237, 111 206.174 C 111 204.432, 112.085 201.687, 117.992 188.486 C 118.980 186.279, 120.576 181.329, 121.539 177.486 C 122.501 173.644, 124.166 168.475, 125.238 166 C 128.556 158.340, 133.745 137.626, 134.402 129.420 C 134.538 127.726, 135.403 125.263, 136.324 123.947 C 137.246 122.631, 138 120.725, 138 119.711 C 138 116.755, 142.865 111.189, 146.061 110.487 C 149.734 109.680, 155 103.427, 155 99.873 C 155 98.296, 156.662 95.007, 159.053 91.850 C 161.282 88.908, 163.365 85.253, 163.682 83.729 C 163.999 82.205, 164.650 80.716, 165.129 80.420 C 165.608 80.124, 166.003 79.121, 166.006 78.191 C 166.010 77.261, 166.685 75.211, 167.506 73.636 C 168.328 72.060, 169 69.905, 169 68.846 C 169 65.517, 165.213 59.290, 162.795 58.642 C 159.161 57.669, 151.179 57.901, 150.500 59 M 149 68.974 C 148.175 69.521, 145.604 69.976, 143.287 69.985 L 139.074 70 139.182 76.361 C 139.242 79.859, 138.979 83.225, 138.599 83.840 C 138.219 84.455, 138.357 85.799, 138.907 86.826 C 139.593 88.108, 139.558 89.042, 138.796 89.804 C 137.981 90.619, 138.023 91.323, 138.954 92.445 C 139.652 93.286, 139.947 94.696, 139.609 95.578 C 138.335 98.897, 140.327 99.040, 143.154 95.831 C 147.505 90.892, 153 82.326, 153 80.481 C 153 79.593, 154.162 77.343, 155.582 75.481 C 159.022 70.971, 158.496 68.576, 153.992 68.239 C 152.071 68.095, 149.825 68.426, 149 68.974 M 49.862 117.018 C 46.192 119.161, 46.483 122.590, 51.642 138 C 52.471 140.475, 53.623 144.525, 54.202 147 C 54.781 149.475, 55.873 152.388, 56.628 153.473 C 57.581 154.842, 58 158.690, 58 166.068 C 58 177.801, 59 180, 64.336 180 C 67.608 180, 79.442 168.601, 82.742 162.271 C 86.050 155.925, 87.380 153.650, 88.875 151.783 C 89.632 150.838, 90.029 149.219, 89.759 148.185 C 89.488 147.151, 89.866 145.223, 90.598 143.902 C 91.330 142.581, 91.945 140.256, 91.965 138.736 C 91.984 137.216, 92.530 135.124, 93.178 134.087 C 94.185 132.474, 93.732 131.458, 90.039 127.046 L 85.722 121.891 80.111 122.575 C 73.845 123.340, 65.578 127.050, 64.629 129.524 C 64.266 130.470, 63.146 131.008, 61.926 130.820 C 59.851 130.501, 56.909 124.921, 55.562 118.750 C 54.935 115.876, 52.884 115.253, 49.862 117.018 M 69.500 136.975 C 67.850 138.008, 65.479 138.887, 64.231 138.927 C 62.267 138.990, 62.053 139.370, 62.639 141.750 C 63.012 143.262, 64.002 145.558, 64.839 146.851 C 65.688 148.161, 66.393 151.569, 66.431 154.551 C 66.503 160.140, 67.863 162.650, 70.309 161.712 C 72.429 160.898, 81.145 142.871, 81.336 138.903 C 81.498 135.540, 81.448 135.498, 77 135.298 C 74.038 135.165, 71.475 135.738, 69.500 136.975 M 154.666 139.127 C 153.287 139.929, 153 140.852, 153.511 142.847 C 154.767 147.759, 154.079 172.924, 152.449 181.619 C 151.576 186.280, 151.146 191.387, 151.493 192.968 C 151.840 194.549, 151.466 198.060, 150.661 200.770 C 149.528 204.584, 149.435 206.693, 150.247 210.099 C 151.342 214.692, 153.862 221.140, 154.898 222 C 155.229 222.275, 155.996 223.395, 156.602 224.488 C 157.207 225.582, 159.887 228.013, 162.557 229.891 C 167.288 233.219, 167.750 233.326, 180.842 234.127 C 188.229 234.579, 194.666 234.707, 195.146 234.410 C 195.625 234.113, 200.626 233.675, 206.259 233.435 C 211.892 233.195, 217.731 232.497, 219.236 231.884 C 220.741 231.271, 223.357 230.972, 225.051 231.221 C 227.760 231.618, 228.481 231.162, 231.065 227.406 C 232.679 225.060, 234 222.440, 234 221.584 C 234 219.884, 235.683 212.090, 236.978 207.793 C 237.744 205.252, 236.382 199.048, 234.685 197.352 C 234.308 196.975, 234 194.993, 234 192.948 C 234 190.902, 233.328 187.940, 232.506 186.364 C 231.685 184.789, 231.010 182.501, 231.006 181.281 C 231.003 180.060, 230.058 177.254, 228.907 175.046 C 227.756 172.837, 226.569 169.206, 226.270 166.977 C 225.946 164.564, 225.019 162.545, 223.978 161.988 C 223.017 161.474, 221.945 159.916, 221.596 158.526 C 220.878 155.665, 218.869 155.248, 216.950 157.560 C 215.869 158.863, 216.169 160.387, 218.774 166.810 C 222.041 174.869, 224.101 182.269, 226.708 195.323 C 228.072 202.154, 228.095 203.987, 226.885 209.781 C 225.638 215.757, 225.103 216.688, 221.500 219.156 C 217.761 221.718, 216.383 221.977, 200.380 223.132 C 178.712 224.695, 170.389 223.589, 165.268 218.468 C 163.470 216.670, 162 214.345, 162 213.300 C 162 212.255, 161.493 210.893, 160.873 210.273 C 160.137 209.537, 160.042 208.167, 160.598 206.323 C 161.066 204.770, 161.518 201.250, 161.602 198.500 C 161.793 192.230, 163.735 183.140, 165.453 180.468 C 166.172 179.350, 168.628 176.425, 170.910 173.968 C 173.193 171.511, 175.705 168.317, 176.493 166.871 C 177.281 165.425, 178.618 163.977, 179.463 163.653 C 180.308 163.328, 181 162.406, 181 161.604 C 181 160.802, 182.658 158.779, 184.684 157.109 C 188.017 154.361, 188.407 153.519, 188.789 148.246 C 189.109 143.821, 188.837 142.110, 187.660 141.133 C 185.543 139.376, 181.939 140.074, 180.602 142.500 C 179.996 143.600, 178.037 146.585, 176.250 149.134 C 174.463 151.683, 173 154.233, 173 154.801 C 173 155.369, 172.617 155.983, 172.149 156.167 C 171.682 156.350, 170.101 158.412, 168.637 160.750 C 164.036 168.096, 162.923 166.611, 162.827 152.993 C 162.768 144.628, 162.432 142.547, 160.805 140.480 C 158.676 137.772, 157.458 137.504, 154.666 139.127" stroke="none" fill="black" fill-rule="evenodd"/>
</svg>