<svg xmlns="http://www.w3.org/2000/svg" width="300" height="300" viewBox="0 0 300 300" version="1.1">
	<path d="M 113.607 21.582 C 112.224 25.185, 113.069 27.815, 116.433 30.381 C 118.322 31.822, 120.209 33, 120.629 33 C 121.048 33, 122.653 34.209, 124.195 35.687 C 127.589 38.938, 127.939 43.873, 125.062 47.913 C 123.951 49.473, 122.991 52.730, 122.812 55.548 C 122.528 60.016, 122.228 60.549, 119.500 61.422 C 117.850 61.950, 112.900 64.071, 108.500 66.135 C 103.247 68.599, 97.255 70.444, 91.048 71.509 C 85.849 72.402, 81.289 73.321, 80.913 73.554 C 79.656 74.331, 79.322 80.058, 80.444 81.593 C 82.906 84.959, 94.730 85.488, 99.610 82.451 C 100.771 81.728, 104.253 80.401, 107.348 79.501 C 110.444 78.601, 113.319 77.306, 113.738 76.624 C 114.599 75.221, 118.165 73.205, 132.500 66.012 C 138 63.252, 143.175 60.618, 144 60.159 C 144.825 59.700, 147.718 58.239, 150.429 56.912 C 156.912 53.740, 159.730 49.983, 158.425 46.252 C 157.029 42.259, 153.160 42.154, 146.471 45.929 C 143.479 47.618, 140.400 49, 139.630 49 C 138.860 49, 137.493 50.125, 136.592 51.500 C 135.691 52.875, 134.514 54, 133.977 54 C 132.630 54, 132.749 51.651, 134.168 50.232 C 137.074 47.326, 137.835 42.146, 136.327 35.533 C 135.059 29.976, 134.295 28.663, 130.529 25.578 C 128.144 23.623, 124.995 21.568, 123.531 21.012 C 119.441 19.457, 114.309 19.751, 113.607 21.582 M 140 91.595 C 132.763 94.007, 124.799 98.148, 120.570 101.700 C 118.409 103.515, 116.233 105, 115.735 105 C 115.237 105, 113.435 106.575, 111.731 108.500 C 107.821 112.916, 105.729 112.916, 102.999 108.498 C 101.679 106.362, 99.794 104.787, 98.167 104.459 C 96.700 104.163, 94.197 103.247, 92.604 102.423 C 89.902 101.026, 89.550 101.074, 87.354 103.137 C 83.985 106.302, 84.210 110.540, 87.847 112.421 C 89.413 113.230, 91.637 113.646, 92.790 113.345 C 94.305 112.948, 95.999 113.865, 98.898 116.648 C 101.104 118.767, 104.087 121.529, 105.527 122.788 C 108.079 125.017, 108.130 125.296, 107.541 133.788 C 107.208 138.579, 106.828 145.200, 106.695 148.500 C 106.562 151.800, 106.021 155.175, 105.492 156 C 104.963 156.825, 103.505 159.525, 102.252 162 C 94.714 176.883, 88.207 186.545, 78.680 197 C 74.921 201.125, 71.113 205.730, 70.217 207.234 C 69.321 208.737, 67.078 210.684, 65.234 211.559 C 63.389 212.435, 61.611 213.905, 61.284 214.826 C 60.627 216.671, 52.409 225.597, 44.250 233.326 C 38.640 238.640, 38.082 240.244, 40.596 243.834 C 42.655 246.773, 47.952 246.513, 49.496 243.398 C 50.069 242.241, 52.779 239.363, 55.519 237.002 C 58.258 234.641, 60.802 231.930, 61.172 230.978 C 61.542 230.026, 63.229 228.261, 64.922 227.056 C 66.615 225.850, 68 224.444, 68 223.931 C 68 223.418, 70.475 220.582, 73.500 217.629 C 76.525 214.676, 79 211.713, 79 211.045 C 79 210.377, 82.576 206.156, 86.947 201.665 C 94.315 194.095, 103 182.975, 103 181.111 C 103 180.670, 103.889 179.506, 104.974 178.523 C 106.060 177.540, 107.230 175.783, 107.575 174.618 C 107.919 173.453, 109.324 170.837, 110.698 168.805 C 112.500 166.139, 113.266 163.539, 113.446 159.473 C 113.698 153.786, 115.644 150, 118.316 150 C 119.050 150, 120.708 148.875, 122 147.500 C 123.292 146.125, 124.755 145, 125.251 145 C 125.748 145, 127.568 143.586, 129.297 141.857 C 131.025 140.129, 133.812 138.141, 135.490 137.440 C 140.404 135.386, 142.293 132.738, 140.948 129.786 C 139.770 127.200, 139.496 127.769, 148.186 114.790 C 149.184 113.300, 150 111.414, 150 110.600 C 150 109.785, 150.405 108.868, 150.900 108.562 C 151.394 108.256, 152.328 105.800, 152.975 103.103 C 154.077 98.510, 153.988 97.941, 151.563 94.100 C 148.665 89.509, 147.207 89.193, 140 91.595 M 135.950 104.553 C 134.631 105.957, 132.618 107.644, 131.475 108.303 C 125.670 111.649, 122.492 113.708, 119.980 115.750 C 118.457 116.987, 116.678 118, 116.026 118 C 115.197 118, 115.074 118.976, 115.615 121.250 C 116.040 123.037, 116.293 126.156, 116.175 128.179 C 116.058 130.203, 116.443 132.156, 117.031 132.519 C 120.480 134.650, 131.205 124.607, 137.562 113.294 C 139.480 109.881, 141.488 106.817, 142.024 106.485 C 142.561 106.153, 143 105.009, 143 103.941 C 143 101.090, 138.867 101.448, 135.950 104.553 M 168.721 155.202 C 167.346 156.466, 161.364 163.350, 155.429 170.500 C 149.494 177.650, 142.415 185.637, 139.698 188.250 C 135.132 192.640, 134.369 193.002, 129.629 193.032 C 123.259 193.071, 120.663 194.855, 120.784 199.109 C 120.909 203.511, 122.041 204.272, 128.891 204.561 C 132.182 204.699, 136.252 205.530, 137.937 206.406 C 139.622 207.283, 142.463 208.758, 144.250 209.684 C 146.037 210.611, 151.100 214.328, 155.500 217.945 C 159.900 221.562, 165.410 225.813, 167.743 227.392 C 170.077 228.971, 177.277 235.142, 183.743 241.105 C 190.210 247.068, 195.900 251.959, 196.388 251.974 C 196.877 251.988, 199.223 253.688, 201.603 255.750 C 203.983 257.813, 207.520 260.782, 209.465 262.348 C 211.409 263.915, 213 265.776, 213 266.483 C 213 267.191, 214.091 268.485, 215.424 269.358 C 216.757 270.232, 218.125 271.818, 218.463 272.884 C 220.153 278.209, 230.781 280.113, 234.228 275.708 C 235.178 274.494, 235.966 272.798, 235.978 271.941 C 236.003 270.138, 228.751 263.672, 218 255.913 C 213.875 252.936, 210.345 250.148, 210.156 249.717 C 209.966 249.286, 206.591 246.725, 202.656 244.026 C 198.720 241.327, 192.575 236.380, 189 233.032 C 178.284 222.997, 163.999 210.546, 162.469 209.908 C 159.347 208.604, 147 198.299, 147 196.996 C 147 195.288, 152.503 189.741, 155.192 188.738 C 156.122 188.391, 157.693 186.846, 158.682 185.304 C 159.671 183.762, 163.184 179.205, 166.490 175.178 C 169.795 171.151, 173.537 166.582, 174.804 165.025 C 176.702 162.692, 176.959 161.621, 176.265 158.943 C 175.802 157.155, 174.478 155.065, 173.323 154.298 C 171.450 153.055, 170.952 153.153, 168.721 155.202 M 90.309 206.250 C 89.864 206.938, 89.431 214.475, 89.346 223 C 89.262 231.525, 88.729 240.267, 88.162 242.426 C 86.990 246.890, 88.402 250.767, 92.156 253.397 C 94.192 254.823, 94.620 254.667, 99.193 250.838 C 101.871 248.596, 105.498 245.240, 107.251 243.381 C 109.005 241.521, 111.003 240, 111.690 240 C 112.378 240, 113.888 238.718, 115.046 237.151 C 116.205 235.584, 119.143 233.044, 121.576 231.506 C 124.009 229.968, 126 228.292, 126 227.781 C 126 227.270, 128.475 224.257, 131.500 221.085 C 134.525 217.914, 137 214.558, 137 213.628 C 137 210.487, 134.077 210.702, 130.046 214.140 C 124.728 218.674, 120.983 221.440, 118.083 222.972 C 116.019 224.063, 111.952 227.144, 102.584 234.716 C 99.155 237.487, 98.115 234.343, 98.735 223.086 C 99.108 216.313, 98.924 213.071, 98.137 212.585 C 97.512 212.198, 97 210.874, 97 209.641 C 97 205.660, 92.249 203.252, 90.309 206.250" stroke="none" fill="black" fill-rule="evenodd"/>
</svg>