<svg xmlns="http://www.w3.org/2000/svg" width="300" height="300" viewBox="0 0 300 300" version="1.1">
	<path d="M 115.245 65.155 C 113.548 66.852, 113.663 67.625, 116.107 70.931 C 119.770 75.885, 120.263 96.320, 117.026 109 C 114.885 117.384, 114.823 118.640, 116.361 122.323 C 117.391 124.787, 118.545 126, 119.860 126 C 122.404 126, 135 114.131, 135 111.734 C 135 110.599, 136.271 109.367, 138.330 108.507 C 140.161 107.742, 142.241 106.415, 142.952 105.558 C 143.663 104.701, 144.842 104, 145.572 104 C 146.301 104, 148.100 102.425, 149.568 100.500 C 151.060 98.543, 153.125 97, 154.250 97 C 156.010 97, 156.198 97.486, 155.744 100.872 C 155.092 105.733, 149.502 117.594, 147.500 118.362 C 146.675 118.678, 146 119.636, 146 120.490 C 146 121.344, 144.823 123.822, 143.384 125.997 C 140.641 130.141, 140.752 133.693, 143.590 132.604 C 144.456 132.272, 146.071 132, 147.181 132 C 149.711 132, 155 126.455, 155 123.802 C 155 122.710, 155.924 120.620, 157.054 119.158 C 165.008 108.862, 164.947 108.978, 163.752 106.356 C 162.888 104.460, 162.901 103.387, 163.806 101.939 C 164.463 100.888, 165 97.387, 165 94.160 C 165 89.317, 164.571 87.830, 162.548 85.646 C 159.225 82.061, 157.127 82.304, 150.877 87 C 147.949 89.200, 145.092 91.005, 144.527 91.011 C 143.962 91.016, 139.960 94.391, 135.633 98.511 C 131.306 102.630, 127.355 106, 126.852 106 C 125.308 106, 124.787 103.267, 125.925 101.139 C 128.748 95.865, 127.504 75.010, 123.918 67.500 C 122.338 64.189, 117.515 62.885, 115.245 65.155 M 45.667 127.667 C 44.401 128.932, 45.006 133.849, 47 138.500 C 48.100 141.066, 49 144.051, 49 145.133 C 49 146.214, 49.670 148.395, 50.489 149.979 C 51.308 151.562, 52.152 155.364, 52.365 158.427 C 52.799 164.681, 54.188 167, 57.500 167 C 60.227 167, 61.241 165.766, 62.934 160.389 C 64.042 156.870, 64.007 155.934, 62.688 153.889 C 61.841 152.575, 60.856 149.902, 60.500 147.949 C 59.873 144.512, 60.008 144.313, 64.733 141.742 C 67.417 140.281, 71.551 138.776, 73.919 138.397 L 78.225 137.708 77.518 142.104 C 76.530 148.253, 72.413 156.091, 66.228 163.599 C 62.697 167.886, 60.238 170, 58.783 170 C 56.325 170, 51 174.641, 51 176.783 C 51 177.558, 51.772 179.498, 52.716 181.096 C 55.084 185.106, 59.111 185.058, 62.011 180.985 C 65.203 176.501, 68.974 174.801, 81.190 172.334 C 82.669 172.035, 84.617 170.976, 85.518 169.980 C 87.037 168.301, 87.033 167.981, 85.463 165.585 C 84.532 164.163, 82.922 163, 81.885 163 C 79.857 163, 79.303 160.549, 81.083 159.449 C 82.675 158.465, 85.737 150.852, 86.979 144.790 C 89.108 134.398, 88.820 132.681, 84.529 130.149 C 77.531 126.020, 70.789 126.619, 60.754 132.259 L 56.976 134.382 53.196 130.691 C 49.603 127.183, 47.140 126.193, 45.667 127.667 M 123.655 149.829 C 121.508 152.201, 121.569 153.731, 124 158.500 C 125.100 160.658, 126 163.779, 126 165.437 C 126 169.914, 119.128 187.646, 114.754 194.452 C 100.136 217.205, 88.487 232.393, 84.745 233.581 C 82.313 234.353, 68.998 247.569, 69.008 249.202 C 69.016 250.602, 73.421 253.006, 75.949 252.990 C 78.172 252.977, 91 243.115, 91 241.420 C 91 240.639, 91.401 240, 91.891 240 C 92.382 240, 93.499 238.211, 94.374 236.023 C 95.476 233.270, 96.748 231.850, 98.510 231.408 C 101.212 230.730, 106.660 224.648, 109.401 219.250 C 110.309 217.463, 111.490 216, 112.026 216 C 112.562 216, 113 215.574, 113 215.053 C 113 213.956, 122.880 200.647, 124.025 200.201 C 124.447 200.037, 126.301 200.823, 128.146 201.948 C 129.991 203.072, 132.724 203.994, 134.220 203.996 C 135.715 203.998, 138.614 204.941, 140.662 206.091 C 145.165 208.620, 157.079 213, 159.456 213 C 160.398 213, 165.040 215.025, 169.770 217.500 C 174.499 219.975, 178.784 222, 179.290 222 C 179.797 222, 181.548 223.125, 183.182 224.500 C 184.816 225.875, 187.189 227, 188.454 227 C 189.720 227, 191.296 227.652, 191.958 228.449 C 192.619 229.246, 194.811 230.436, 196.830 231.094 C 198.848 231.752, 201.573 233.125, 202.885 234.145 C 204.197 235.165, 206.024 236, 206.947 236 C 207.869 236, 209.571 237.281, 210.728 238.846 C 211.886 240.412, 214.558 242.496, 216.666 243.478 C 218.775 244.459, 222.300 246.712, 224.500 248.483 C 226.700 250.254, 230.195 252.313, 232.266 253.058 C 235.768 254.318, 236.185 254.259, 238.228 252.216 L 240.425 250.020 236.462 245.940 C 232.899 242.272, 221.633 234, 220.200 234 C 219.886 234, 218.700 233.158, 217.564 232.129 C 215.751 230.486, 208.248 226.228, 197 220.458 C 195.075 219.471, 192.825 218.286, 192 217.826 C 191.175 217.366, 188.475 216.036, 186 214.871 C 172.029 208.292, 167.050 206.147, 163 204.959 C 160.525 204.234, 158.050 203.341, 157.500 202.975 C 156.950 202.609, 154.250 201.739, 151.500 201.041 C 148.750 200.342, 143.274 198.697, 139.332 197.385 C 135.390 196.073, 131.002 195, 129.582 195 C 126.810 195, 126.125 192.636, 127.913 189.236 C 129.222 186.748, 133.498 177.076, 134.996 173.215 C 137.802 165.989, 134.338 153.417, 128.485 149.582 C 125.499 147.625, 125.656 147.617, 123.655 149.829" stroke="none" fill="black" fill-rule="evenodd"/>
</svg>