<svg xmlns="http://www.w3.org/2000/svg" width="300" height="300" viewBox="0 0 300 300" version="1.1">
	<path d="M 202.738 70.250 C 201.866 72.544, 203.802 75.724, 209.714 81.710 C 212.937 84.974, 217.300 89.749, 219.408 92.322 C 223.725 97.591, 227 98.513, 227 94.460 C 227 90.369, 223.666 85.030, 215.942 76.750 C 210.313 70.716, 208.103 69, 205.963 69 C 204.451 69, 203 69.563, 202.738 70.250 M 154.962 81.071 C 154.164 82.562, 154.154 84.004, 154.927 86.220 C 155.517 87.913, 156 92.444, 156 96.289 C 156 102.939, 155.839 103.424, 152.694 106.233 C 149.290 109.272, 143.809 112.471, 126.518 121.508 C 117.566 126.186, 116.467 127.063, 115.865 130.005 C 115.320 132.672, 115.644 133.735, 117.604 135.695 C 119.971 138.062, 120.067 138.073, 123.007 136.337 C 124.653 135.364, 126 134.216, 126 133.784 C 126 133.353, 126.615 133, 127.368 133 C 128.120 133, 132.454 130.525, 137 127.500 C 148.879 119.594, 151.301 120.125, 146.504 129.581 C 145.131 132.286, 144.006 135.331, 144.004 136.346 C 144.002 137.361, 143.184 139.386, 142.187 140.846 C 141.190 142.306, 139.122 146.425, 137.591 150 C 132.366 162.201, 122.594 181.492, 119.294 186.119 C 117.482 188.660, 116 191.177, 116 191.713 C 116 193.407, 98.341 219.368, 95.101 222.437 C 91.659 225.697, 91.204 227.481, 93.582 228.393 C 98.892 230.431, 105.260 226.669, 108.040 219.852 C 108.792 218.009, 109.902 216.050, 110.508 215.500 C 112.625 213.577, 120 203.306, 120 202.280 C 120 201.711, 120.675 200.685, 121.500 200 C 122.325 199.315, 123.003 198.023, 123.007 197.128 C 123.010 196.232, 125.244 192.575, 127.970 189 C 130.697 185.425, 132.944 181.682, 132.964 180.683 C 132.984 179.684, 134.053 177.434, 135.340 175.683 C 136.627 173.932, 138.281 170.925, 139.015 169 C 139.749 167.075, 141.171 164.306, 142.175 162.846 C 143.179 161.386, 144 159.283, 144 158.172 C 144 155.509, 148.696 150, 150.966 150 C 151.950 150, 153.343 150.708, 154.061 151.573 C 154.779 152.438, 156.971 154.030, 158.933 155.110 C 160.895 156.191, 164.125 158.070, 166.110 159.287 C 171.610 162.658, 188 175.190, 188 176.025 C 188 176.430, 191.916 180.528, 196.702 185.131 C 207.772 195.777, 209.322 197.369, 216 204.941 C 219.025 208.372, 222.963 212.561, 224.750 214.250 C 226.537 215.939, 228 217.884, 228 218.571 C 228 219.259, 230.332 222.104, 233.181 224.895 C 236.031 227.686, 239.310 231.849, 240.467 234.148 C 243.304 239.783, 245.289 240.953, 247.941 238.553 C 250.632 236.118, 250.662 230.909, 248 228.500 C 246.900 227.505, 246 226.086, 246 225.348 C 246 224.611, 241.162 219.027, 235.250 212.940 C 229.338 206.853, 224.313 201.339, 224.084 200.687 C 223.855 200.034, 221.710 197.597, 219.317 195.271 C 216.924 192.945, 214.535 189.908, 214.008 188.521 C 213.481 187.134, 212.405 186, 211.617 186 C 210.830 186, 208.231 183.838, 205.843 181.195 C 196.191 170.515, 172.509 151.750, 162.071 146.510 C 153.340 142.127, 153.008 141.499, 155.464 134 C 156.275 131.525, 157.195 127.827, 157.508 125.782 C 157.822 123.737, 158.626 121.487, 159.295 120.782 C 159.964 120.077, 161.714 117.025, 163.184 114 C 166.293 107.601, 167.023 107.072, 177 104.001 C 183.102 102.122, 185.387 100.802, 189.261 96.917 C 193.626 92.540, 193.927 91.933, 192.876 89.626 C 191.397 86.381, 189.149 85.555, 187.027 87.476 C 186.100 88.314, 185.025 89, 184.637 89 C 184.248 89, 180.362 91.025, 176 93.500 C 171.638 95.975, 167.604 98, 167.035 98 C 166.466 98, 165.997 96.987, 165.992 95.750 C 165.980 92.234, 162.228 80.761, 160.792 79.850 C 158.540 78.421, 156.107 78.931, 154.962 81.071 M 72.500 129.299 C 63.594 133.957, 58.831 138.669, 59.202 142.455 C 59.439 144.879, 60.021 145.561, 62.052 145.797 C 63.642 145.983, 65.303 145.323, 66.457 144.047 C 67.476 142.921, 69.083 142, 70.028 142 C 70.973 142, 73.861 141.064, 76.446 139.921 C 79.031 138.778, 81.788 138.088, 82.573 138.390 C 84.557 139.151, 84.355 143.312, 82.144 147.220 C 77.332 155.726, 70.856 165.875, 69.547 166.961 C 67.103 168.990, 64.636 167.742, 63.680 163.993 C 61.813 156.669, 58.475 149.300, 54.623 144 C 52.424 140.975, 50.260 138.350, 49.813 138.167 C 49.366 137.983, 49 137.041, 49 136.072 C 49 131.746, 41.985 129.291, 40.035 132.934 C 38.379 136.029, 38.785 137.382, 42.468 141.048 C 44.376 142.947, 45.951 145, 45.968 145.610 C 45.986 146.221, 47.125 148.379, 48.500 150.405 C 49.875 152.431, 51 154.689, 51 155.422 C 51 156.155, 51.675 157.315, 52.500 158 C 53.325 158.685, 54 160.112, 54 161.171 C 54 162.230, 54.900 164.959, 56 167.236 C 57.143 169.602, 58 173.422, 58 176.153 C 58 179.852, 58.436 181.163, 59.934 181.965 C 62.755 183.474, 69.313 183.230, 71.559 181.532 C 72.626 180.724, 74.247 180.049, 75.160 180.032 C 78.025 179.977, 89.145 174.238, 90.707 172.008 C 92.047 170.095, 92.020 169.680, 90.445 167.939 C 89.480 166.872, 87.635 166, 86.345 166 C 83.120 166, 83.343 163.617, 87 159 C 88.650 156.917, 90 154.291, 90 153.165 C 90 152.039, 90.450 150.840, 91 150.500 C 91.550 150.160, 92 148.874, 92 147.641 C 92 146.408, 92.462 144.938, 93.027 144.373 C 93.591 143.809, 94.328 141.029, 94.663 138.197 C 95.203 133.639, 94.964 132.642, 92.586 129.523 C 90.047 126.195, 89.584 126.004, 84.199 126.081 C 79.858 126.142, 77.071 126.909, 72.500 129.299" stroke="none" fill="black" fill-rule="evenodd"/>
</svg>