<svg xmlns="http://www.w3.org/2000/svg" width="300" height="300" viewBox="0 0 300 300" version="1.1">
	<path d="M 109.989 29.513 C 109.299 30.345, 108.593 32.708, 108.422 34.763 C 107.927 40.707, 106.298 46.150, 103.563 51 C 102.168 53.475, 100.838 55.950, 100.609 56.500 C 100.380 57.050, 99.919 58.175, 99.585 59 C 99.251 59.825, 98.195 61.666, 97.239 63.090 C 96.283 64.515, 94.175 67.665, 92.555 70.090 C 90.935 72.516, 88.049 77.650, 86.141 81.500 C 84.233 85.350, 81.471 89.625, 80.002 91 C 76.855 93.947, 75.003 97.159, 74.993 99.684 C 74.987 101.445, 68.296 112.775, 64.088 118.149 C 62.948 119.607, 61.701 121.632, 61.318 122.649 C 60.935 123.667, 59.132 126.841, 57.311 129.702 C 52.285 137.599, 53.172 142.178, 59.424 140.608 C 61.243 140.152, 63.229 137.418, 67.418 129.609 C 70.484 123.893, 73.669 118.957, 74.496 118.640 C 75.323 118.322, 76 117.529, 76 116.876 C 76 116.223, 77.022 114.296, 78.270 112.594 C 79.519 110.892, 81.157 108.286, 81.911 106.803 C 83.741 103.200, 85.867 102.548, 88.405 104.809 C 89.557 105.835, 92.525 107.690, 95 108.930 C 100.366 111.619, 104 114.799, 104 116.806 C 104 118.914, 100.330 124.678, 94.963 131 C 92.395 134.025, 89.713 137.605, 89.001 138.957 C 88.290 140.308, 82.262 147.437, 75.604 154.799 C 68.947 162.161, 61.541 170.505, 59.146 173.342 C 56.751 176.179, 53.376 179.887, 51.646 181.581 C 45.425 187.674, 41.683 193.083, 42.868 194.268 C 43.684 195.084, 44.923 194.930, 47.524 193.690 C 49.473 192.760, 51.941 192, 53.008 192 C 54.114 192, 55.561 190.816, 56.371 189.249 C 57.154 187.735, 61.437 182.898, 65.890 178.499 C 70.343 174.099, 73.989 170.236, 73.993 169.914 C 73.997 169.592, 76.588 166.634, 79.750 163.340 C 82.912 160.046, 87.075 155.217, 89 152.609 C 90.925 150, 95.895 143.734, 100.045 138.683 C 104.195 133.632, 108.861 127.813, 110.414 125.750 C 111.967 123.688, 113.994 122, 114.919 122 C 115.843 122, 119.383 124.025, 122.784 126.500 C 126.186 128.975, 129.231 131, 129.551 131 C 130.157 131, 135.582 135.236, 141.863 140.614 C 143.863 142.326, 146.920 144.453, 148.655 145.340 C 150.391 146.228, 152.416 147.533, 153.155 148.241 C 156.023 150.988, 162.649 155.802, 165.728 157.377 C 170.118 159.623, 180 167.084, 180 168.153 C 180 168.629, 182.262 170.411, 185.027 172.112 C 187.792 173.813, 190.704 176.460, 191.497 177.994 C 192.290 179.528, 194.281 181.251, 195.922 181.823 C 202.602 184.151, 207.182 175.089, 201.250 171.281 C 198.241 169.349, 197.894 169.101, 193.500 165.726 C 191.850 164.459, 189.262 162.887, 187.750 162.233 C 186.238 161.578, 185 160.597, 185 160.052 C 185 159.228, 179.778 155.365, 172.084 150.498 C 165.711 146.465, 156.701 140.019, 152.500 136.486 C 147.391 132.189, 128.999 119.301, 122.552 115.500 C 120.244 114.139, 121.609 110.729, 126.915 104.599 C 129.162 102.002, 131 99.315, 131 98.626 C 131 97.166, 134.762 89.635, 139.055 82.500 C 142.456 76.849, 142.168 77.536, 144.504 69.500 C 145.464 66.200, 146.631 62.738, 147.097 61.807 C 148.144 59.718, 145.982 54.198, 143.093 51.584 C 141.324 49.984, 139.985 49.795, 133.966 50.300 C 126.700 50.909, 123.836 52.170, 116.519 57.985 C 111.618 61.880, 109.541 61.971, 110.470 58.250 C 110.847 56.737, 111.796 54.790, 112.578 53.921 C 113.360 53.053, 114 51.422, 114 50.297 C 114 49.172, 115.081 46.283, 116.401 43.876 C 120.208 36.938, 120.621 33.290, 117.923 30.418 C 115.345 27.674, 111.847 27.275, 109.989 29.513 M 129.885 60.787 C 128.573 61.769, 124.668 64.026, 121.206 65.802 C 117.744 67.578, 113.533 70.602, 111.847 72.521 C 109.187 75.551, 108.254 75.978, 104.780 75.756 C 101.690 75.558, 100.519 75.946, 99.639 77.459 C 99.013 78.537, 97.031 81.634, 95.236 84.342 C 90.113 92.070, 90.036 93.680, 94.609 97.594 C 96.749 99.426, 99.120 100.942, 99.879 100.962 C 100.637 100.983, 103.001 102.575, 105.132 104.500 C 110.399 109.258, 112.316 109.031, 115.679 103.250 C 117.199 100.638, 119.374 97.114, 120.512 95.420 C 124.633 89.283, 136 64.419, 136 61.541 C 136 60.811, 135.288 59.941, 134.418 59.607 C 132.345 58.812, 132.615 58.742, 129.885 60.787 M 130 169.489 C 122.542 170.940, 112.372 174.416, 110.070 176.301 C 109.206 177.008, 107.375 178.178, 106 178.901 C 104.625 179.624, 102.180 181.786, 100.567 183.705 C 98.278 186.428, 97.862 187.558, 98.674 188.847 C 100.313 191.450, 102.970 191.398, 105.849 188.707 C 109.224 185.552, 114.265 183, 117.122 183 C 118.343 183, 120.053 182.385, 120.921 181.633 C 121.790 180.882, 125.943 179.991, 130.151 179.655 C 136.587 179.139, 137.899 179.294, 138.411 180.628 C 139.628 183.800, 135.173 195.201, 129.325 203.878 C 126.013 208.793, 111.109 224, 109.605 224 C 108.939 224, 107.590 221.637, 106.607 218.750 C 104.607 212.879, 102.589 208.196, 99.821 203 C 98.796 201.075, 96.781 197.025, 95.344 194 C 90.118 182.997, 89.454 181.857, 86.767 179.280 C 84.107 176.728, 83.981 176.707, 82.017 178.484 C 80.908 179.488, 80 180.984, 80 181.808 C 80 184.332, 89.813 204.620, 93.026 208.741 C 93.988 209.974, 95.088 212.653, 95.471 214.695 C 95.854 216.736, 97.029 220.097, 98.083 222.164 C 99.138 224.230, 100 227.952, 100 230.434 C 100 234.360, 100.363 235.136, 102.781 236.387 C 104.810 237.436, 106.064 237.544, 107.419 236.785 C 109.811 235.446, 128.449 236.297, 130.295 237.830 C 131.326 238.685, 133.607 238.596, 139.491 237.470 C 144.117 236.585, 149.266 236.232, 152.085 236.606 C 156.304 237.165, 157.144 236.947, 159.386 234.705 C 162.125 231.966, 163.561 227.904, 162.639 225.502 C 161.872 223.502, 158.135 223.604, 152.833 225.770 C 149.726 227.039, 146.379 227.464, 141 227.272 C 132.125 226.957, 126.169 226.082, 125.497 224.996 C 124.574 223.502, 127.862 217.483, 131.502 214 C 135.902 209.791, 141 202.482, 141 200.383 C 141 199.549, 142.072 197.434, 143.382 195.683 C 147.814 189.761, 148.917 186.575, 148.568 180.716 C 148.161 173.893, 145.392 169.528, 140.899 168.630 C 139.167 168.283, 137.469 168.050, 137.125 168.112 C 136.781 168.174, 133.575 168.793, 130 169.489" stroke="none" fill="black" fill-rule="evenodd"/>
</svg>