<svg xmlns="http://www.w3.org/2000/svg" width="300" height="300" viewBox="0 0 300 300" version="1.1">
	<path d="M 100.714 52.620 C 99.608 53.726, 99.871 58.891, 101.156 61.292 C 103.893 66.405, 105.054 76.538, 103.231 79.403 C 102.847 80.006, 102.451 82.597, 102.350 85.159 C 102.250 87.722, 101.725 90.647, 101.185 91.659 C 100.645 92.672, 99.909 96.200, 99.550 99.500 C 98.447 109.647, 96.706 119.064, 95.832 119.604 C 95.374 119.887, 95 121.246, 95 122.625 C 95 124.003, 94.608 125.889, 94.128 126.816 C 93.648 127.742, 92.951 130.600, 92.579 133.167 C 91.992 137.217, 92.155 137.914, 93.810 138.440 C 94.860 138.773, 96.422 138.775, 97.281 138.446 C 99.569 137.568, 104.776 126.293, 105.568 120.500 C 105.944 117.750, 106.620 115.035, 107.070 114.466 C 108.232 112.995, 110.317 101.365, 110.416 95.801 C 110.518 90.102, 112.136 87.979, 115.011 89.775 C 118.236 91.789, 120.625 91.191, 123.799 87.576 C 125.453 85.693, 128.087 83.424, 129.653 82.535 C 131.219 81.645, 135.150 79.418, 138.389 77.586 C 141.628 75.753, 144.670 73.554, 145.149 72.698 C 145.681 71.748, 148.147 70.876, 151.480 70.459 C 154.483 70.084, 157.459 69.152, 158.093 68.389 C 159.817 66.311, 167.333 66.605, 169.345 68.829 C 170.255 69.835, 171 71.209, 171 71.884 C 171 72.558, 171.897 75.080, 172.994 77.488 C 174.091 79.896, 174.754 82.478, 174.466 83.227 C 174.179 83.976, 174.572 86.369, 175.339 88.545 C 178.101 96.372, 176.063 155.191, 172.917 158.450 C 172.413 158.973, 172 161.379, 172 163.799 C 172 166.218, 171.363 169.616, 170.584 171.349 C 169.805 173.082, 168.907 176.075, 168.588 178 C 168.269 179.925, 167.722 183.181, 167.374 185.235 C 167.026 187.290, 166.089 189.511, 165.294 190.171 C 163.146 191.954, 157.951 188.803, 154.152 183.413 C 149.774 177.202, 144.497 177.400, 147.184 183.675 C 151.331 193.359, 160.578 201, 168.151 201 C 171.416 201, 172.208 200.583, 173.025 198.435 C 173.561 197.024, 174 194.829, 174 193.557 C 174 192.285, 174.675 190.685, 175.500 190 C 176.325 189.315, 177 187.251, 177 185.413 C 177 182.098, 179.102 174.515, 181.183 170.317 C 181.779 169.117, 182.002 167.447, 181.679 166.606 C 181.356 165.765, 181.544 162.472, 182.096 159.289 C 184.945 142.856, 186.111 128.960, 186.484 107 C 186.765 90.452, 183.644 75.156, 177.629 63.598 C 172.712 54.151, 163.239 53.817, 145.863 62.480 C 135.202 67.795, 127.430 72.936, 119.109 80.178 C 116.694 82.280, 114.390 84, 113.988 84 C 113.586 84, 113.212 78.991, 113.157 72.868 C 113.087 65.020, 112.633 61.090, 111.621 59.545 C 110.832 58.339, 110.031 56.261, 109.843 54.927 C 109.553 52.877, 108.874 52.454, 105.464 52.203 C 103.244 52.040, 101.106 52.227, 100.714 52.620 M 130.793 122.454 C 127.118 124.404, 122.836 126, 121.278 126 C 117.756 126, 114 128.527, 114 130.896 C 114 134.754, 126.262 136.606, 130.793 133.432 C 132.024 132.570, 134.036 132.008, 135.265 132.182 C 140.064 132.864, 137.728 141.422, 129.037 155 C 127.453 157.475, 126.122 160.218, 126.079 161.095 C 125.992 162.850, 122.936 166, 121.319 166 C 120.747 166, 120.023 162.145, 119.676 157.250 C 118.960 147.157, 117.102 141.144, 114.080 139.137 C 112.209 137.895, 111.717 137.946, 109.917 139.575 C 108.545 140.817, 108.085 142.089, 108.514 143.461 C 109.955 148.072, 110.811 163.961, 109.997 171 C 109.521 175.125, 108.620 183.225, 107.996 189 C 107.372 194.775, 106.191 204.525, 105.371 210.666 C 103.471 224.912, 104.230 233.265, 107.625 235.490 C 108.931 236.346, 110.014 237.598, 110.031 238.273 C 110.132 242.201, 121.139 244.932, 138.500 245.334 C 142.900 245.437, 148.750 245.156, 151.500 244.711 C 154.250 244.267, 161.412 243.692, 167.416 243.436 C 173.420 243.179, 178.915 242.486, 179.625 241.896 C 180.344 241.299, 182.228 241.111, 183.870 241.471 C 185.493 241.828, 190.574 241.588, 195.161 240.939 C 199.747 240.289, 207.515 239.803, 212.423 239.858 C 217.330 239.913, 221.830 239.558, 222.423 239.069 C 223.015 238.580, 225.525 237.935, 228 237.635 C 236.107 236.653, 239.452 235.127, 244.151 230.266 C 249.566 224.665, 250.743 219.626, 248.534 211.500 C 247.786 208.750, 246.913 205.306, 246.592 203.846 C 246.272 202.387, 244.208 198.912, 242.005 196.126 C 239.802 193.339, 238 190.554, 238 189.937 C 238 189.320, 237.100 187.671, 236 186.273 C 234.900 184.874, 233.999 183.003, 233.998 182.115 C 233.997 181.227, 231.608 177.831, 228.689 174.570 C 224.836 170.264, 222.918 168.817, 221.690 169.289 C 220.152 169.879, 220.230 170.463, 222.539 175.685 C 223.937 178.846, 225.660 182.122, 226.369 182.966 C 227.647 184.489, 228.582 186.039, 236.342 199.500 C 239.980 205.809, 240.384 207.195, 240.439 213.543 C 240.535 224.664, 238.673 226.306, 223 228.917 C 219.425 229.513, 214.250 230.063, 211.500 230.140 C 208.750 230.217, 201.325 230.873, 195 231.598 C 180.059 233.311, 152.234 235.261, 151.259 234.665 C 150.842 234.409, 147.446 234.518, 143.714 234.906 C 135.248 235.786, 122.662 234.504, 119.097 232.398 C 116.095 230.625, 113.697 226.050, 113.698 222.098 C 113.699 219.426, 115.482 205.120, 117.138 194.500 C 117.653 191.200, 118.327 186.597, 118.636 184.270 C 119.088 180.871, 119.840 179.644, 122.467 178.020 C 124.265 176.909, 126.894 176, 128.309 176 C 129.724 176, 131.160 175.550, 131.500 175 C 131.840 174.450, 132.835 174, 133.712 174 C 136.035 174, 147.363 168.472, 148.944 166.568 C 150.014 165.279, 150.050 164.404, 149.118 162.359 C 147.998 159.902, 147.677 159.810, 142.471 160.460 C 136.184 161.246, 135.883 160.735, 139.500 155.405 C 140.875 153.379, 142 150.960, 142 150.030 C 142 149.100, 143.123 146.125, 144.496 143.419 C 145.869 140.714, 146.994 137.739, 146.996 136.809 C 146.998 135.879, 147.450 134.840, 148 134.500 C 149.390 133.641, 149.254 128.654, 147.801 127.201 C 147.141 126.541, 146.129 124.539, 145.551 122.751 C 143.994 117.935, 139.479 117.844, 130.793 122.454 M 27.278 121.250 C 24.713 124.565, 25.702 130.648, 29.513 135 C 30.235 135.825, 31.685 139.058, 32.735 142.183 C 33.786 145.309, 35.128 148.459, 35.719 149.183 C 36.310 149.908, 37.316 152.525, 37.954 155 C 38.593 157.475, 39.826 161.828, 40.694 164.673 C 41.562 167.519, 41.979 170.613, 41.619 171.550 C 40.129 175.432, 44.877 177.204, 49.846 174.620 C 51.306 173.861, 56.775 172.444, 62 171.472 C 75.850 168.895, 76.682 168.506, 77.484 164.234 C 78.323 159.759, 76.205 157.591, 72.405 159.036 C 69.627 160.092, 67 159.346, 67 157.500 C 67 156.793, 67.675 155.955, 68.500 155.638 C 69.325 155.322, 70 153.840, 70 152.346 C 70 150.852, 70.949 148.618, 72.110 147.383 C 73.949 145.425, 74.215 143.946, 74.190 135.835 C 74.161 126.713, 74.100 126.479, 71.064 123.766 C 67.375 120.469, 63.602 120.223, 55.412 122.745 C 51.042 124.091, 48.765 125.580, 45.466 129.250 C 41.048 134.163, 38 134.806, 38 130.823 C 38 129.744, 36.628 126.867, 34.952 124.430 C 31.901 119.996, 29.135 118.849, 27.278 121.250 M 54.143 134.054 C 51.078 135.923, 46.595 140.453, 44.767 143.528 C 44.364 144.206, 44.734 146.164, 45.589 147.878 C 46.444 149.592, 47.400 153.471, 47.712 156.498 C 48.143 160.670, 48.669 161.994, 49.890 161.973 C 52.106 161.937, 60.306 150.239, 59.531 148.219 C 59.153 147.236, 59.856 145.853, 61.385 144.568 C 63.182 143.059, 64.029 141.081, 64.518 137.250 L 65.188 132 61.344 132.004 C 59.230 132.006, 55.989 132.928, 54.143 134.054" stroke="none" fill="black" fill-rule="evenodd"/>
</svg>