<svg xmlns="http://www.w3.org/2000/svg" width="300" height="300" viewBox="0 0 300 300" version="1.1">
	<path d="M 123.321 59.605 C 122.982 60.488, 123.221 63.448, 123.853 66.182 C 124.484 68.916, 125 73.541, 125 76.461 C 125 81, 124.643 82.004, 122.535 83.385 C 121.180 84.273, 119.589 85, 119 85 C 118.412 85, 114.571 86.444, 110.466 88.210 C 101.991 91.854, 100.606 93.887, 104.080 97.585 C 106.602 100.269, 110.501 100.714, 113.527 98.663 C 116.136 96.896, 125.868 93.800, 126.870 94.420 C 128.083 95.169, 129.898 104.708, 130.324 112.572 C 130.683 119.189, 130.525 119.848, 127.868 122.822 C 126.306 124.570, 124.634 126, 124.152 126 C 123.669 126, 121.526 127.345, 119.388 128.988 C 108.207 137.582, 106.276 138.890, 100.267 141.944 C 96.959 143.625, 93.366 145, 92.281 145 C 88.012 145, 85.682 150.669, 88.097 155.182 C 89.057 156.975, 89.808 157.151, 94.088 156.583 C 99.185 155.907, 102.906 153.548, 120.208 140.024 C 124.997 136.281, 128.872 134, 130.442 134 C 132.936 134, 132.962 134.082, 132.402 140.250 C 131.813 146.729, 125.326 161.961, 120.330 168.594 C 119.049 170.296, 118 172.002, 118 172.385 C 118 172.768, 117.179 174.300, 116.175 175.790 C 110.147 184.738, 108.070 188.183, 105.122 194.117 C 103.315 197.756, 100.635 202.112, 99.168 203.795 C 97.701 205.479, 95.375 208.504, 94 210.517 C 88.399 218.719, 77.315 231, 75.515 231 C 73.835 231, 71 234.324, 71 236.294 C 71 238.470, 74.059 240, 78.411 240 C 81.120 240, 82.354 239.390, 83.652 237.409 C 84.586 235.984, 86.409 234.415, 87.705 233.922 C 89.104 233.390, 90.807 231.284, 91.902 228.730 C 92.915 226.366, 95.489 222.906, 97.622 221.040 C 101.051 218.041, 106.390 211.003, 108.328 206.930 C 108.702 206.144, 110.365 203.250, 112.022 200.500 C 113.680 197.750, 115.305 194.713, 115.635 193.750 C 115.964 192.787, 116.600 192, 117.049 192 C 117.498 192, 118.143 191.126, 118.482 190.057 C 118.821 188.988, 121.102 185.534, 123.549 182.382 C 125.997 179.230, 128 175.694, 128 174.525 C 128 171.927, 129.788 170, 132.200 170 C 134.114 170, 134.677 172.463, 133 173.500 C 131.462 174.451, 131.814 177.600, 133.625 179.104 C 135.091 180.320, 135.202 184.290, 134.755 219.476 C 134.333 252.653, 134.006 259.220, 132.570 263.307 C 130.615 268.875, 131.509 273.251, 135.339 276.849 C 137.342 278.731, 137.946 278.840, 140.302 277.746 C 142.456 276.745, 142.988 275.810, 143.005 273 C 143.169 244.725, 144.253 186.399, 144.626 185.795 C 145.465 184.439, 150.255 184.920, 152.046 186.542 C 152.983 187.389, 157.062 189.021, 161.112 190.167 C 165.161 191.313, 170.048 193.094, 171.972 194.125 C 173.896 195.156, 176.228 196, 177.154 196 C 178.080 196, 180.112 196.645, 181.669 197.434 C 192.230 202.785, 198.116 204.864, 204 205.323 C 205.375 205.430, 209.207 206.901, 212.516 208.592 C 222.189 213.534, 228 214.109, 228 210.122 C 228 207.683, 222.262 202.078, 219.117 201.445 C 217.678 201.155, 214.700 200.063, 212.500 199.019 C 210.300 197.975, 206.925 196.671, 205 196.123 C 203.075 195.574, 197.675 193.721, 193 192.004 C 188.325 190.288, 183.344 188.515, 181.932 188.064 C 180.519 187.613, 178.494 186.754, 177.432 186.155 C 174.683 184.605, 152.088 176.881, 148.500 176.264 C 143.342 175.378, 142.864 174.407, 142.988 165.075 C 143.050 160.359, 142.814 153.125, 142.463 149 C 142.112 144.875, 141.669 139.250, 141.478 136.500 C 141.288 133.750, 140.842 130.144, 140.487 128.486 C 139.913 125.800, 140.489 124.791, 145.776 119.236 C 149.039 115.806, 152.459 113, 153.376 113 C 154.293 113, 155.546 111.895, 156.162 110.544 C 157.126 108.428, 164.334 104, 166.815 104 C 168.378 104, 172 99.380, 172 97.386 C 172 91.352, 165.625 91.517, 157.922 97.750 C 142.638 110.116, 140.909 111.309, 139.831 110.231 C 138.194 108.594, 137.454 91.363, 138.943 89.568 C 139.613 88.761, 142.131 87.147, 144.537 85.982 C 149.028 83.808, 155 77.919, 155 75.665 C 155 71.390, 148.596 70.876, 141.618 74.590 C 135.575 77.807, 134.649 77.108, 132.886 68 C 132.194 64.425, 130.967 60.712, 130.159 59.750 C 128.319 57.558, 124.141 57.470, 123.321 59.605 M 61.500 117.201 C 53.407 119.910, 49.684 121.855, 45.995 125.302 C 43.466 127.666, 42.948 128.859, 43.196 131.750 C 43.617 136.665, 46.175 138.124, 49.270 135.217 C 50.567 133.997, 52.171 133, 52.834 133 C 53.497 133, 55.718 131.972, 57.770 130.715 C 67.744 124.604, 70 124.927, 70 132.467 C 70 136.422, 69.382 138.632, 67.500 141.405 C 66.125 143.431, 65 145.709, 65 146.468 C 65 147.226, 63.875 149.184, 62.500 150.818 C 61.125 152.452, 60 154.202, 60 154.707 C 60 156.510, 54.120 161.260, 52.607 160.680 C 50.788 159.981, 47.451 152.940, 46.479 147.750 C 46.093 145.688, 45.377 144, 44.889 144 C 44.400 144, 44 143.368, 44 142.595 C 44 141.272, 40.117 133.087, 38.974 132 C 38.685 131.725, 36.941 129.564, 35.098 127.197 C 31.229 122.227, 28.443 121.933, 26.033 126.241 C 24.773 128.495, 24.727 129.295, 25.779 130.741 C 26.482 131.709, 27.832 133.794, 28.779 135.376 C 29.725 136.958, 31.489 139.469, 32.697 140.957 C 36.327 145.427, 40.883 160.193, 40.965 167.750 C 41.005 171.454, 43.673 174.629, 47.566 175.606 C 50.136 176.251, 58.196 173.110, 59.536 170.941 C 59.856 170.424, 61.653 170, 63.528 170 C 67.987 170, 74.459 166.568, 77.164 162.769 L 79.316 159.747 76.908 157.896 C 75.584 156.878, 74.105 156.034, 73.622 156.022 C 72.195 155.986, 73.949 147.697, 75.845 145.511 C 82.056 138.354, 82.080 121.330, 75.886 116.919 C 72.558 114.549, 69.227 114.614, 61.500 117.201" stroke="none" fill="black" fill-rule="evenodd"/>
</svg>