<svg xmlns="http://www.w3.org/2000/svg" width="300" height="300" viewBox="0 0 300 300" version="1.1">
	<path d="M 117.561 17.348 C 116.180 18.729, 115.078 21.416, 114.669 24.396 C 114.306 27.045, 112.909 31.302, 111.564 33.856 C 110.219 36.410, 107.040 42.775, 104.500 48 C 98.592 60.151, 82.567 90.262, 80.018 94 C 79.455 94.825, 78.516 96.625, 77.931 98 C 77.346 99.375, 76.048 101.400, 75.047 102.500 C 74.046 103.600, 72.016 106.975, 70.536 110 C 69.056 113.025, 66.538 117.750, 64.940 120.500 C 63.343 123.250, 61.390 126.859, 60.601 128.520 C 59.811 130.181, 58.163 132.431, 56.937 133.520 C 55.712 134.609, 53.880 137.353, 52.866 139.618 C 51.853 141.883, 50.343 144.300, 49.512 144.990 C 48.680 145.680, 48 146.849, 48 147.588 C 48 148.326, 46.757 150.409, 45.237 152.215 C 43.718 154.022, 40.791 158.011, 38.732 161.080 C 36.674 164.149, 33.867 167.715, 32.495 169.005 C 31.123 170.294, 30 171.875, 30 172.519 C 30 173.163, 29.100 174.505, 28 175.500 C 26.900 176.495, 26 177.760, 26 178.311 C 26 178.861, 24.844 180.827, 23.431 182.679 C 20.592 186.401, 20.561 188.716, 23.327 190.393 C 24.851 191.317, 25.607 190.962, 27.899 188.250 C 29.410 186.463, 31.315 185, 32.133 185 C 32.951 185, 35.618 181.977, 38.060 178.282 C 40.502 174.587, 44.188 169.609, 46.250 167.221 C 48.313 164.832, 50 162.300, 50 161.594 C 50 160.888, 50.949 159.453, 52.109 158.405 C 53.269 157.357, 55.591 153.688, 57.268 150.250 C 58.946 146.813, 60.637 144, 61.026 144 C 62.013 144, 71.411 129.228, 75.199 121.722 C 76.926 118.300, 79.491 113.700, 80.899 111.500 C 82.308 109.300, 85.082 104.350, 87.064 100.500 C 93.014 88.944, 94.084 87.066, 95.063 86.461 C 95.578 86.142, 96 84.839, 96 83.563 C 96 82.288, 96.697 80.666, 97.550 79.959 C 98.402 79.252, 99.954 76.795, 101 74.500 C 104.034 67.839, 105.075 67.443, 110.291 70.964 C 112.766 72.634, 115.232 74, 115.773 74 C 116.313 74, 117.322 74.683, 118.015 75.518 C 118.708 76.354, 120.676 77.640, 122.388 78.378 C 130.634 81.931, 136.022 84.831, 138.500 87.049 C 139.600 88.034, 142.525 89.631, 145 90.597 C 147.475 91.564, 151.975 94.231, 155 96.524 C 158.025 98.817, 161.447 101.193, 162.604 101.804 C 164.563 102.838, 170.134 107.077, 176 111.999 C 177.375 113.152, 179.456 114.637, 180.624 115.298 C 186.723 118.749, 193.998 124.129, 194.936 125.881 C 195.521 126.974, 196 128.746, 196 129.819 C 196 130.892, 197.109 132.497, 198.465 133.385 C 201.115 135.121, 204 135.526, 204 134.161 C 204 133.699, 205.069 132.834, 206.375 132.239 C 207.937 131.527, 208.908 130.080, 209.211 128.013 C 209.634 125.133, 209.036 124.319, 202.086 118.316 C 197.914 114.711, 193.150 111.147, 191.500 110.395 C 189.850 109.642, 187.150 107.898, 185.500 106.518 C 183.850 105.139, 181.970 104.008, 181.321 104.005 C 180.673 104.002, 178.515 102.465, 176.527 100.590 C 174.538 98.714, 172.368 96.917, 171.705 96.596 C 169.850 95.698, 166.853 93.752, 163.004 90.945 C 158.184 87.431, 145.992 80.407, 143.230 79.554 C 141.981 79.168, 138.940 77.311, 136.471 75.426 C 134.003 73.542, 131.390 72, 130.666 72 C 129.941 72, 128.292 70.875, 127 69.500 C 125.708 68.125, 124.012 67, 123.230 67 C 122.448 67, 120.614 66.164, 119.154 65.143 C 117.694 64.121, 115.150 62.846, 113.500 62.310 C 109.588 61.038, 109.326 59.082, 112.450 54.479 C 113.852 52.412, 115 50.178, 115 49.515 C 115 48.852, 115.860 47.532, 116.910 46.581 C 117.991 45.603, 119.542 41.737, 120.482 37.676 C 121.396 33.729, 122.770 28.925, 123.537 27 C 124.303 25.075, 125.058 21.964, 125.215 20.087 C 125.466 17.081, 125.160 16.582, 122.646 15.896 C 120.375 15.276, 119.336 15.573, 117.561 17.348 M 119 107.756 C 110.753 113.385, 104.071 117.332, 98.500 119.867 C 90.382 123.560, 90.500 123.446, 90.500 127.609 C 90.500 131.334, 90.649 131.513, 94.006 131.796 C 96.337 131.993, 99.018 131.243, 102.006 129.558 C 104.478 128.165, 107.625 126.534, 109 125.933 C 110.375 125.332, 113.757 123.752, 116.516 122.420 C 119.275 121.089, 121.975 119.993, 122.516 119.983 C 124.286 119.954, 132 111.213, 132 109.237 C 132 106.837, 128.976 104, 126.421 104.001 C 125.365 104.002, 122.025 105.692, 119 107.756 M 158.402 128.364 C 155.477 129.993, 147.850 135.690, 141.691 140.845 C 138.836 143.235, 135.825 145.494, 135 145.865 C 129.955 148.132, 120 155.465, 120 156.915 C 120 157.846, 121.203 161.021, 122.672 163.970 C 124.731 168.101, 125.517 171.560, 126.096 179.025 C 126.509 184.356, 127.230 191.144, 127.698 194.109 C 128.565 199.601, 128.511 214.867, 127.596 223 C 127.317 225.475, 126.637 232.675, 126.084 239 C 125.530 245.325, 124.666 254.550, 124.162 259.500 C 123.658 264.450, 123.454 268.857, 123.709 269.294 C 123.964 269.730, 123.724 270.630, 123.177 271.294 C 122.629 271.957, 121.855 278.688, 121.456 286.250 L 120.730 300 125.365 300 C 129.460 300, 130.018 299.738, 130.151 297.750 C 130.234 296.512, 130.403 294.150, 130.527 292.500 C 130.651 290.850, 131.066 284.155, 131.450 277.622 C 131.833 271.089, 132.521 264.760, 132.978 263.557 C 133.436 262.353, 133.848 258.023, 133.895 253.934 C 133.941 249.845, 134.417 244.985, 134.953 243.134 C 136.621 237.368, 138.404 197.182, 137.117 194.357 C 136.503 193.009, 136 189.201, 136 185.894 C 136 177.711, 134.101 166.084, 132.321 163.367 C 131.283 161.783, 131.142 160.606, 131.837 159.317 C 133.321 156.564, 137.201 153.318, 140 152.489 C 141.375 152.082, 144.750 149.865, 147.500 147.562 C 155.115 141.185, 157.170 140, 160.607 140 C 165.585 140, 167.413 143.638, 166.588 151.903 C 166.226 155.531, 165.605 161.743, 165.208 165.707 C 164.811 169.671, 163.927 173.473, 163.243 174.157 C 162.559 174.841, 162 176.858, 162 178.641 C 162 180.424, 161.550 182.160, 161 182.500 C 160.450 182.840, 159.978 184.554, 159.952 186.309 C 159.884 190.820, 156.913 196.439, 154.406 196.798 C 152.804 197.028, 151.446 195.699, 148.530 191.048 C 144.865 185.202, 142.475 183.600, 141.440 186.295 C 140.548 188.620, 143.893 196.092, 148.180 201.351 C 153.759 208.193, 155.986 209.951, 159.113 209.978 C 161.336 209.997, 162.193 209.050, 164.863 203.627 C 166.648 200.001, 168 195.676, 168 193.592 C 168 191.578, 168.682 188.889, 169.515 187.617 C 170.349 186.345, 171.180 183.547, 171.362 181.400 C 171.544 179.252, 172.488 175.958, 173.459 174.079 C 174.741 171.601, 175.060 169.452, 174.621 166.251 C 174.252 163.561, 174.485 160.991, 175.217 159.669 C 175.878 158.476, 176.546 154.800, 176.702 151.500 C 177.113 142.831, 174.790 135.877, 169.603 130.250 C 166.391 126.765, 162.462 126.103, 158.402 128.364 M 89.461 166.983 C 83.610 170.395, 80.520 173.450, 78.176 178.140 C 77.254 179.985, 75.813 181.622, 74.972 181.778 C 74.132 181.933, 71.071 179.773, 68.169 176.976 C 63.319 172.301, 62.554 171.915, 58.696 172.195 C 54.926 172.469, 54.467 172.785, 54.177 175.315 C 53.782 178.763, 56.386 183, 58.901 183 C 60.875 183, 73 195.394, 73 197.412 C 73 199.687, 79.480 204.758, 83.236 205.423 C 87.247 206.134, 91 204.779, 91 202.620 C 91 201.900, 92.037 200.104, 93.305 198.628 C 98.409 192.689, 101.981 185.455, 102.499 180.008 C 102.783 177.025, 103.462 174.138, 104.008 173.592 C 107.113 170.487, 102.647 163.983, 97.436 164.022 C 95.821 164.034, 92.233 165.366, 89.461 166.983 M 83.542 182.677 C 80.494 185.799, 78 188.870, 78 189.502 C 78 190.134, 79.133 191.716, 80.518 193.017 L 83.035 195.382 86.003 191.941 C 90.033 187.267, 93.407 180.504, 92.669 178.580 C 91.600 175.795, 89.217 176.864, 83.542 182.677" stroke="none" fill="black" fill-rule="evenodd"/>
</svg>