<svg xmlns="http://www.w3.org/2000/svg" width="300" height="300" viewBox="0 0 300 300" version="1.1">
	<path d="M 152.669 23.046 C 149.639 25.429, 149.241 28.504, 151.622 31.135 C 152.515 32.121, 153.634 35.010, 154.109 37.555 C 155.067 42.680, 154.358 44.782, 150.158 49.284 C 147.946 51.655, 147.742 52.357, 148.781 54.020 C 151.523 58.412, 148.793 61.052, 140 62.510 C 137.525 62.920, 134.427 64.098, 133.115 65.128 C 131.803 66.158, 129.511 67, 128.020 67 C 125.132 67, 122 69.681, 122 72.154 C 122 72.978, 123.106 74.690, 124.458 75.960 C 126.511 77.889, 127.581 78.163, 130.964 77.622 C 136.783 76.691, 149.270 71.559, 158.203 66.426 C 162.440 63.992, 166.522 62, 167.273 62 C 168.025 62, 170.480 60.425, 172.729 58.500 C 174.978 56.575, 177.239 55, 177.754 55 C 178.269 55, 179.547 54.052, 180.595 52.893 C 181.643 51.734, 184.188 50.110, 186.250 49.284 C 188.313 48.459, 190.052 47.269, 190.115 46.641 C 190.382 43.992, 189.723 41.398, 188.407 39.921 C 187.633 39.053, 187 37.815, 187 37.171 C 187 36.527, 186.707 36, 186.350 36 C 184.953 36, 175.020 41.272, 173.920 42.597 C 173.279 43.369, 172.161 44, 171.434 44 C 170.708 44, 169.525 44.796, 168.807 45.769 C 166.799 48.488, 159 54.307, 159 53.087 C 159 52.492, 160.350 49.148, 162 45.656 C 166.146 36.881, 165.985 32.808, 161.245 26.575 C 159.185 23.867, 157.014 21.492, 156.419 21.298 C 155.825 21.105, 154.137 21.891, 152.669 23.046 M 171.653 86.288 C 166.868 88.036, 163.871 90.294, 155.162 98.712 C 149.309 104.370, 144.126 109, 143.645 109 C 143.163 109, 141.354 107.455, 139.625 105.566 C 135.965 101.571, 132.403 100, 127.006 100 C 120.565 100, 118.184 104.298, 121.674 109.625 C 123.041 111.712, 123.887 112.073, 126.285 111.593 C 128.840 111.082, 129.791 111.622, 133.600 115.753 C 136.008 118.364, 137.983 121.486, 137.989 122.691 C 137.995 123.896, 138.450 125.160, 139 125.500 C 139.550 125.840, 140 127.366, 140 128.892 C 140 130.418, 140.338 132.006, 140.750 132.420 C 141.162 132.834, 141.500 134.582, 141.500 136.303 C 141.500 138.819, 142.043 139.625, 144.272 140.417 C 146.576 141.235, 147.407 141.037, 149.201 139.243 C 151.038 137.406, 151.190 136.713, 150.222 134.587 C 149.182 132.306, 149.358 125.274, 150.607 119.154 C 151.137 116.558, 154.846 112.802, 162.682 106.924 C 166.388 104.145, 167.954 102.249, 168.182 100.269 C 168.467 97.786, 168.939 97.468, 172.750 97.193 L 177 96.885 177 100.768 C 177 103.617, 176.334 105.277, 174.500 107 C 173.125 108.292, 172 110.175, 172 111.184 C 172 112.388, 170.379 113.790, 167.289 115.260 C 163.560 117.033, 162.448 118.143, 161.949 120.587 C 161.090 124.797, 160.212 126, 158 126 C 155.615 126, 155.349 126.472, 154.486 132.238 C 153.891 136.210, 154.055 137.084, 155.500 137.638 C 156.449 138.003, 158.477 137.559, 160.016 136.650 C 161.552 135.742, 163.516 135, 164.381 135 C 165.246 135, 166.741 133.762, 167.704 132.250 C 169.921 128.765, 170.961 128.034, 173.730 128.015 C 175.270 128.005, 176.587 126.841, 177.990 124.250 C 179.107 122.188, 180.537 119.600, 181.168 118.500 C 186.364 109.442, 187 107.204, 187 97.989 C 187 91.109, 186.623 88.768, 185.250 87.114 C 182.747 84.099, 178.372 83.834, 171.653 86.288 M 84.576 116.877 C 84.278 117.359, 82.058 118.252, 79.643 118.860 C 75.110 120.001, 64.806 126.285, 64.101 128.338 C 63.881 128.977, 62.869 130.573, 61.851 131.885 C 59.438 134.994, 59.502 138.240, 62.022 140.520 C 63.996 142.306, 64.121 142.277, 67.272 139.288 C 70.432 136.290, 83.530 129, 85.756 129 C 87.588 129, 88.265 130.976, 86.968 132.538 C 86.306 133.336, 85.999 134.890, 86.287 135.991 C 87.262 139.719, 81.159 153.610, 75.833 159.785 C 74.275 161.591, 73 163.759, 73 164.602 C 73 166.656, 68.088 173, 66.498 173 C 65.096 173, 64.035 169.928, 64.014 165.809 C 64.006 164.329, 63.550 162.840, 63 162.500 C 62.450 162.160, 62 160.585, 62 159 C 62 157.415, 61.550 155.840, 61 155.500 C 60.450 155.160, 60 153.870, 60 152.632 C 60 151.395, 59.339 149.509, 58.532 148.441 C 57.724 147.374, 57.039 145.600, 57.010 144.500 C 56.980 143.400, 56.076 141.375, 55 140 C 53.924 138.625, 53.034 136.487, 53.022 135.248 C 52.987 131.636, 46.782 120.915, 44.128 119.881 C 41.295 118.777, 40.202 119.539, 37.586 124.438 C 35.702 127.969, 35.702 128.056, 37.586 130.261 C 40.529 133.703, 42 136.738, 42 139.364 C 42 140.679, 42.675 142.315, 43.500 143 C 44.325 143.685, 45.010 144.752, 45.022 145.372 C 45.034 145.993, 45.924 147.625, 47 149 C 48.076 150.375, 48.980 152.400, 49.010 153.500 C 49.039 154.600, 49.724 156.374, 50.532 157.441 C 51.339 158.509, 52 160.395, 52 161.632 C 52 162.870, 52.450 164.160, 53 164.500 C 53.550 164.840, 54 166.415, 54 168 C 54 169.585, 54.391 171.124, 54.869 171.419 C 55.346 171.714, 56.060 175.228, 56.454 179.228 C 56.848 183.228, 57.637 187.063, 58.208 187.750 C 60.735 190.796, 69.242 187.738, 81.500 179.375 C 84.800 177.123, 88.625 174.934, 90 174.509 C 93.701 173.367, 98 170.074, 98 168.382 C 98 167.567, 97.313 165.573, 96.474 163.950 C 95.323 161.724, 94.245 161, 92.081 161 C 86.905 161, 87.036 156.738, 92.337 152.689 C 94.404 151.110, 95.919 148.752, 96.708 145.886 C 98.470 139.487, 98.657 126.071, 97.031 122.756 C 94.825 118.261, 86.229 114.203, 84.576 116.877 M 172.677 149.656 C 172.316 150.017, 168.753 151.665, 164.760 153.318 C 159.525 155.485, 155.620 156.381, 150.759 156.531 C 143.200 156.765, 141 157.990, 141 161.967 C 141 164.847, 143.181 167.377, 146.500 168.349 C 148.371 168.896, 155.982 167.974, 162.250 166.440 C 164.803 165.815, 165 165.989, 165 168.866 C 165 170.706, 163.434 174.524, 161.143 178.267 C 159.021 181.733, 156.666 186.354, 155.909 188.535 C 155.152 190.716, 153.627 193.773, 152.519 195.330 L 150.506 198.160 153.140 202.830 C 154.980 206.090, 156.337 207.424, 157.638 207.249 C 160.626 206.846, 170.278 210.212, 173 212.607 C 174.375 213.816, 176.397 214.967, 177.492 215.165 C 178.588 215.363, 180.109 216.869, 180.872 218.512 C 181.635 220.156, 183.008 222.400, 183.925 223.500 C 186.305 226.357, 188.245 232.654, 187.484 235.052 C 187.127 236.176, 187.296 237.652, 187.861 238.332 C 188.838 239.510, 188.545 241.534, 186.169 250 C 185.562 252.163, 180.546 261.948, 177.500 266.912 C 172.263 275.445, 162.273 285.523, 158.299 286.283 C 154.323 287.043, 152.960 286.013, 145.710 276.766 C 142.146 272.220, 138.053 267.409, 136.615 266.076 C 135.177 264.742, 134 263.142, 134 262.520 C 134 261.898, 131.597 258.475, 128.659 254.914 C 123.951 249.206, 118.658 244.403, 107.977 236.146 C 105.857 234.507, 105.109 233.233, 105.514 231.956 C 105.901 230.735, 105.414 229.757, 104.057 229.031 C 101.489 227.656, 96.452 230.001, 95.495 233.016 C 94.537 236.034, 98.002 241.217, 102.361 243.287 C 108.708 246.301, 122.239 258.649, 125.015 263.961 C 129.336 272.228, 149.559 294.122, 154.669 296.064 C 156.233 296.659, 159.543 296.838, 162.205 296.472 C 166.343 295.903, 167.629 295.086, 172.226 290.111 C 179.659 282.066, 191.945 264.759, 191.982 262.280 C 191.992 261.610, 192.900 259.458, 194 257.500 C 195.100 255.542, 196 253.302, 196 252.522 C 196 251.743, 197.125 248.990, 198.500 246.404 C 201.075 241.561, 201.759 236.587, 200 235.500 C 199.450 235.160, 199 232.011, 199 228.502 C 199 222.482, 198.768 221.850, 194.902 217.311 C 184.985 205.669, 176.429 199.246, 168.510 197.501 C 163.450 196.385, 163.432 195.523, 168.278 186.500 C 172.179 179.236, 174.892 173.313, 175.388 170.980 C 175.682 169.594, 177.242 166.444, 178.854 163.980 C 180.466 161.516, 182.082 158.089, 182.446 156.365 C 183.002 153.733, 182.678 152.891, 180.419 151.115 C 177.798 149.053, 173.996 148.337, 172.677 149.656" stroke="none" fill="black" fill-rule="evenodd"/>
</svg>