<svg xmlns="http://www.w3.org/2000/svg" width="300" height="300" viewBox="0 0 300 300" version="1.1">
	<path d="M 174 60.644 C 171.525 61.496, 169.072 62.599, 168.550 63.096 C 168.028 63.593, 166.903 63.999, 166.050 63.997 C 165.197 63.996, 162.475 64.974, 160 66.170 C 157.525 67.367, 154.600 68.678, 153.500 69.083 C 152.400 69.487, 150.600 70.145, 149.500 70.544 C 148.400 70.942, 145.700 71.631, 143.500 72.074 C 135.836 73.617, 128.564 76.007, 127.110 77.462 C 125.947 78.625, 125.878 79.437, 126.777 81.409 C 128.176 84.481, 133.870 85.810, 138.484 84.142 C 140.221 83.514, 142.386 83, 143.294 83 C 144.203 83, 146.936 82.034, 149.367 80.852 C 154.992 78.120, 157.408 78.798, 155.926 82.693 C 154.758 85.768, 155.208 90.713, 158.002 105.500 C 159.042 111, 160.202 118.331, 160.580 121.792 C 161.178 127.264, 161.022 128.272, 159.384 129.531 C 156.766 131.543, 147.656 135.903, 140.500 138.568 C 126.356 143.835, 123.082 144.936, 115.500 146.971 C 103.979 150.064, 103 150.572, 103 153.456 C 103 157.061, 107.228 159.673, 110.588 158.142 C 111.966 157.514, 114.368 157, 115.925 157 C 118.717 157, 122.436 155.729, 130.739 151.936 C 133.071 150.871, 135.667 150, 136.509 150 C 137.351 150, 140.808 148.875, 144.192 147.500 C 147.576 146.125, 150.960 145, 151.713 145 C 152.465 145, 154.357 144.056, 155.917 142.903 C 157.477 141.750, 159.597 140.968, 160.627 141.167 C 162.213 141.472, 162.518 142.523, 162.620 148.014 C 162.685 151.581, 163.007 155.175, 163.334 156 C 164.869 159.866, 162.571 224.529, 160.862 225.586 C 160.388 225.878, 159.999 227.554, 159.999 229.309 C 159.998 232.798, 157.666 245.453, 156.510 248.250 C 154.512 253.080, 146.393 247.920, 135.144 234.670 C 122.992 220.356, 111.072 210.013, 106.719 210.004 C 103.256 209.996, 103.999 212.660, 108.964 218.048 C 111.727 221.047, 113.990 223.838, 113.994 224.250 C 113.997 224.662, 114.621 225, 115.380 225 C 116.777 225, 124.452 233.226, 131.839 242.640 C 134.106 245.529, 138.230 249.129, 141.253 250.859 C 144.212 252.552, 147.404 254.789, 148.346 255.830 C 149.288 256.871, 151.909 258.557, 154.169 259.576 L 158.278 261.429 161.072 258.083 C 163.115 255.636, 164.179 252.825, 165.033 247.618 C 165.676 243.703, 166.596 239.375, 167.079 238 C 169.390 231.419, 171.136 204.637, 171.506 170.071 C 171.879 135.313, 172.142 133.480, 176.933 132.330 C 180.200 131.546, 187.440 127.912, 192.143 124.697 C 194.146 123.327, 197.127 121.911, 198.767 121.551 C 205.121 120.156, 209.264 111.159, 205.480 106.977 C 204.495 105.890, 203.300 105, 202.823 105 C 202.346 105, 200.003 106.800, 197.616 109 C 195.229 111.200, 192.602 113, 191.778 113 C 190.953 113, 188.615 114.129, 186.581 115.509 C 184.548 116.890, 181.049 119.027, 178.806 120.259 C 176.564 121.492, 173.795 123.039, 172.653 123.697 C 169.370 125.592, 168.331 123.708, 167.711 114.744 C 167.398 110.210, 166.702 105.150, 166.164 103.500 C 164.206 97.487, 162.018 86.780, 162.566 85.893 C 163.534 84.327, 161.987 81.131, 159.949 80.484 C 158.877 80.144, 158 79.499, 158 79.051 C 158 78.149, 165.198 75.425, 171.704 73.866 C 176.384 72.743, 187 67.306, 187 66.031 C 187 64.606, 181.257 58.998, 179.849 59.048 C 179.107 59.074, 176.475 59.792, 174 60.644 M 39.279 117.647 C 38.192 119.987, 38.432 120.953, 41.453 126.389 C 43.321 129.750, 46.052 136.325, 47.524 141 C 50.223 149.580, 51.502 153.062, 53.117 156.236 C 53.603 157.191, 54 159.464, 54 161.286 C 54 168.237, 58.646 168.755, 69.381 163 C 73.484 160.800, 77.543 159, 78.401 159 C 80.301 159, 84 152.057, 84 148.490 C 84 145.483, 86.358 140.459, 89.259 137.285 C 91.045 135.330, 91.202 134.271, 90.590 128.285 C 89.743 119.999, 87.355 117.535, 79.171 116.506 C 72.668 115.689, 62.343 118.859, 57.153 123.267 C 53.432 126.427, 51.263 126.494, 49.610 123.500 C 44.898 114.969, 41.433 113.006, 39.279 117.647 M 72.500 126.932 C 70.850 127.355, 67.758 128.443, 65.628 129.351 C 63.498 130.258, 60.922 131, 59.904 131 C 58.872 131, 57.389 132.282, 56.556 133.891 C 55.167 136.578, 55.235 137.125, 57.526 141.641 C 58.882 144.313, 59.994 147.201, 59.996 148.059 C 59.998 148.916, 60.598 150.436, 61.329 151.435 C 64.129 155.264, 73 149.277, 73 143.558 C 73 142.710, 73.912 141.451, 75.028 140.758 C 77.653 139.129, 81.240 131.717, 80.824 128.782 C 80.463 126.241, 77.642 125.614, 72.500 126.932" stroke="none" fill="black" fill-rule="evenodd"/>
</svg>