<svg xmlns="http://www.w3.org/2000/svg" width="300" height="300" viewBox="0 0 300 300" version="1.1">
	<path d="M 122.750 24.080 C 120.242 25.541, 120.593 28.503, 123.500 30.408 C 125.268 31.566, 126 32.945, 126 35.115 C 126 36.803, 126.900 39.329, 128 40.727 C 129.100 42.126, 130.007 44.672, 130.015 46.385 C 130.030 49.475, 131.727 55.266, 133.372 57.839 C 134.419 59.476, 136.972 68.876, 136.988 71.152 C 136.995 72.061, 135.762 73.292, 134.250 73.888 C 132.738 74.484, 130.600 75.499, 129.500 76.143 C 120.761 81.265, 112.996 85, 111.088 85 C 110.004 85, 108.840 85.450, 108.500 86 C 108.160 86.550, 107.156 87, 106.270 87 C 105.383 87, 103.942 87.648, 103.067 88.439 C 100.610 90.663, 83.177 96.191, 80.900 95.468 C 79.736 95.099, 77.834 95.534, 76.342 96.512 C 74.712 97.580, 69.914 98.563, 63.141 99.218 C 55.305 99.975, 52.002 100.719, 50.611 102.040 C 48.390 104.149, 49.077 106.946, 52.005 107.712 C 53.102 107.999, 54 108.678, 54 109.223 C 54 110.199, 64.778 109.766, 73.633 108.434 C 76.380 108.021, 78.016 108.216, 78.511 109.018 C 79.547 110.694, 81.267 123.587, 81.162 128.885 C 81.025 135.761, 75.651 160.352, 73.826 162.450 C 73.372 162.973, 73 164.383, 73 165.585 C 73 168.716, 70.160 177.692, 67.381 183.342 C 66.072 186.006, 65 189.241, 65 190.533 C 65 191.825, 64.550 193.160, 64 193.500 C 63.450 193.840, 63 195.130, 63 196.368 C 63 197.605, 62.339 199.491, 61.532 200.559 C 60.724 201.626, 60.049 203.224, 60.032 204.109 C 59.998 205.804, 54.560 218.286, 50.436 226.135 C 49.096 228.685, 48 231.497, 48 232.385 C 48 233.273, 47.550 234, 47 234 C 46.450 234, 46 234.977, 46 236.171 C 46 237.365, 45.240 239.182, 44.311 240.208 C 43.383 241.235, 41.465 244.645, 40.050 247.787 C 37.150 254.226, 32.215 262.833, 30.284 264.821 C 29.578 265.548, 29 266.984, 29 268.012 C 29 269.041, 28.580 270.141, 28.067 270.459 C 26.250 271.582, 21.707 281.795, 22.318 283.385 C 24.082 287.982, 31.146 283.283, 34.924 275 C 37.068 270.301, 39.420 266.060, 42.436 261.458 C 46.207 255.702, 54 239.947, 54 238.079 C 54 237, 54.435 235.849, 54.967 235.521 C 56.063 234.843, 61 225.332, 61 223.898 C 61 223.382, 62.125 221.178, 63.500 219 C 64.875 216.822, 66 214.237, 66 213.255 C 66 210.951, 71.817 199, 72.938 199 C 74.232 199, 80 205.878, 80 207.420 C 80 208.163, 80.637 209.999, 81.416 211.501 C 82.342 213.286, 82.660 216.006, 82.337 219.365 C 81.857 224.338, 81.952 224.573, 85.340 226.823 C 88.270 228.770, 89.584 229.035, 93.431 228.458 C 95.957 228.079, 99.031 226.988, 100.262 226.032 C 101.493 225.077, 104.123 223.533, 106.108 222.601 C 108.092 221.670, 112.482 218.678, 115.863 215.954 C 119.244 213.229, 122.396 211, 122.867 211 C 123.338 211, 125.809 209.313, 128.358 207.250 C 134.362 202.392, 134.735 198.561, 129.589 194.636 C 127.475 193.023, 125.514 190.223, 124.429 187.267 C 123.467 184.645, 121.991 181.938, 121.149 181.250 C 119.539 179.936, 111.678 179.661, 108.829 180.820 C 107.910 181.194, 103.048 185.438, 98.024 190.250 C 93.001 195.063, 88.099 199, 87.131 199 C 86.101 199, 84.673 197.537, 83.691 195.477 C 82.767 193.540, 80.945 191.549, 79.642 191.054 C 75.281 189.396, 75.420 187.691, 81.072 173.500 C 83.806 166.635, 84.576 165.988, 88.228 167.488 C 89.422 167.978, 90.857 167.297, 92.868 165.286 C 96.468 161.686, 100.492 159, 102.284 159 C 103.030 159, 104.588 157.909, 105.748 156.575 C 107.109 155.009, 108.546 154.330, 109.801 154.658 C 111.196 155.023, 112.395 154.224, 114.045 151.833 C 117.269 147.162, 121.106 144.078, 123.750 144.036 C 124.987 144.016, 126 143.513, 126 142.918 C 126 142.323, 127.615 139.866, 129.588 137.457 L 133.177 133.078 129.838 131.043 C 125.467 128.378, 124.630 128.459, 121.301 131.867 C 119.760 133.443, 113.325 137.786, 107 141.516 C 100.675 145.246, 94.228 149.356, 92.673 150.649 C 89.589 153.214, 86.987 153.721, 87.022 151.750 C 87.034 151.063, 87.901 148.612, 88.948 146.306 C 91.642 140.371, 91.839 121.984, 89.282 115 C 88.980 114.175, 88.626 111.618, 88.496 109.318 C 88.227 104.561, 87.536 105.014, 101.943 100.494 C 106.586 99.038, 112.661 96.577, 115.443 95.026 C 121.796 91.484, 125.676 89.462, 129.500 87.703 C 131.150 86.944, 134.592 85.137, 137.148 83.686 C 142.573 80.609, 143.418 81.109, 144.444 88 C 145.091 92.350, 145.668 94.098, 148.571 100.500 C 149.319 102.150, 150.209 104.850, 150.549 106.500 C 150.888 108.150, 151.798 111.525, 152.571 114 C 153.344 116.475, 155.145 122.325, 156.574 127 C 158.002 131.675, 159.520 136.400, 159.946 137.500 C 160.371 138.600, 161.506 142.200, 162.466 145.500 C 163.427 148.800, 164.615 152.534, 165.106 153.797 C 165.598 155.060, 166 157.171, 166 158.488 C 166 159.805, 166.374 161.113, 166.831 161.395 C 167.288 161.678, 168.240 164.517, 168.947 167.704 C 169.655 170.892, 170.850 174.704, 171.604 176.175 C 172.841 178.591, 172.718 179.368, 170.336 184.175 C 168.885 187.104, 167.385 190.175, 167.002 191 C 164.131 197.189, 157.657 209.094, 156.913 209.554 C 156.411 209.864, 156 210.850, 156 211.745 C 156 212.639, 155.073 214.358, 153.939 215.565 C 151.604 218.051, 148.699 222.846, 146.405 228 C 141.908 238.109, 140.382 240.574, 129.442 255.402 C 120.478 267.553, 116.415 272.555, 111.913 276.986 C 109.391 279.469, 105.145 284.200, 102.479 287.500 C 99.813 290.800, 97.264 293.650, 96.816 293.833 C 96.367 294.017, 96 295.479, 96 297.083 C 96 299.900, 96.165 300, 100.792 300 C 105.127 300, 105.970 299.595, 109.636 295.750 C 111.865 293.413, 114.749 289.925, 116.045 288 C 118.548 284.282, 121.321 280.820, 130.980 269.353 C 134.291 265.422, 137 261.779, 137 261.258 C 137 260.737, 137.883 259.511, 138.962 258.535 C 140.041 257.558, 141.880 254.901, 143.049 252.630 C 144.218 250.358, 146.432 247.150, 147.969 245.500 C 149.505 243.850, 151.323 240.700, 152.008 238.500 C 152.693 236.300, 153.803 233.825, 154.474 233 C 155.146 232.175, 155.992 230.825, 156.355 230 C 156.717 229.175, 158.145 226.700, 159.528 224.500 C 160.911 222.300, 162.291 219.825, 162.595 219 C 162.899 218.175, 163.795 216.375, 164.586 215 C 165.377 213.625, 168.121 208.338, 170.685 203.250 C 175.293 194.102, 178 191.610, 178 196.514 C 178 197.896, 178.408 199.809, 178.907 200.764 C 180.821 204.426, 185.968 217.637, 186.596 220.500 C 186.958 222.150, 188.250 225.525, 189.466 228 C 190.682 230.475, 192.831 234.975, 194.240 238 C 200.131 250.645, 201.054 252.571, 201.906 254 C 202.398 254.825, 203.822 257.750, 205.071 260.500 C 208.919 268.970, 211.258 273.375, 213.566 276.500 C 214.784 278.150, 216.092 280.966, 216.472 282.758 C 216.852 284.550, 217.965 286.446, 218.946 286.971 C 219.926 287.496, 221.964 290.450, 223.474 293.536 C 224.984 296.622, 226.789 299.366, 227.487 299.633 C 228.184 299.901, 230.857 299.980, 233.427 299.810 L 238.100 299.500 233.550 292.726 C 231.047 289.001, 229 285.430, 229 284.791 C 229 284.152, 228.122 282.694, 227.049 281.552 C 225.975 280.409, 223.670 276.780, 221.926 273.487 C 214.505 259.475, 203.312 237.347, 202.710 235.500 C 202.351 234.400, 201.647 232.825, 201.145 232 C 199.833 229.845, 198.419 226.161, 196.924 221 C 196.207 218.525, 195.031 215.612, 194.310 214.527 C 193.590 213.443, 193 211.810, 193 210.900 C 193 209.990, 192.357 208.711, 191.570 208.058 C 189.487 206.330, 186 195.292, 186 190.428 C 186 187.930, 185.396 185.744, 184.500 185 C 182.609 183.431, 182.623 180.082, 184.532 177.559 C 185.339 176.491, 186 174.386, 186 172.880 C 186 171.375, 186.688 169.455, 187.529 168.614 C 188.370 167.773, 190.186 164.087, 191.565 160.423 C 192.944 156.759, 195.406 150.908, 197.036 147.422 C 198.666 143.936, 200 140.445, 200 139.664 C 200 138.884, 200.658 137.699, 201.461 137.032 C 202.265 136.365, 203.202 134.848, 203.544 133.660 C 203.886 132.472, 205.217 129.250, 206.502 126.500 C 215.449 107.359, 215.169 108.228, 213.460 104.922 C 212.497 103.061, 211.247 101.998, 210.247 102.191 C 207.644 102.692, 200.447 112.895, 198.419 118.959 C 197.399 122.007, 195.796 125.850, 194.856 127.500 C 193.916 129.150, 192.838 132.192, 192.460 134.261 C 192.082 136.330, 191.374 138.269, 190.887 138.570 C 190.399 138.871, 190 139.844, 190 140.730 C 190 141.617, 189.342 143.070, 188.537 143.959 C 187.733 144.848, 185.582 150.058, 183.759 155.538 C 181.107 163.507, 180.063 165.500, 178.539 165.500 C 176.961 165.500, 176.428 164.298, 175.437 158.500 C 174.269 151.665, 171.370 141.499, 170.019 139.500 C 169.647 138.950, 168.108 134.450, 166.598 129.500 C 165.088 124.550, 163.436 119.719, 162.926 118.764 C 162.417 117.809, 162 116.216, 162 115.225 C 162 113.202, 158.689 103.355, 157.664 102.330 C 157.299 101.965, 157 100.253, 157 98.524 C 157 96.796, 156.339 94.509, 155.532 93.441 C 154.724 92.374, 154.049 90.352, 154.032 88.950 C 154.014 87.547, 153.517 85.917, 152.927 85.327 C 152.337 84.737, 152 82.743, 152.177 80.895 C 152.441 78.149, 153.047 77.374, 155.500 76.645 C 157.150 76.155, 160.349 74.909, 162.610 73.877 C 164.870 72.845, 167.937 72, 169.425 72 C 173.327 72, 175.543 70.517, 177.040 66.904 C 178.214 64.069, 178.155 63.587, 176.486 62.366 C 175.458 61.615, 173.956 61, 173.147 61 C 171.277 61, 161.068 63.925, 158.728 65.131 C 157.754 65.633, 154.947 66.320, 152.492 66.656 C 147.145 67.389, 145 66.007, 145 61.828 C 145 60.218, 144.373 57.686, 143.607 56.200 C 142.841 54.715, 141.613 50.913, 140.879 47.750 C 140.146 44.587, 139.218 42, 138.818 42 C 138.418 42, 137.794 40.420, 137.432 38.489 C 137.070 36.558, 136.374 34.731, 135.887 34.430 C 135.399 34.129, 135 33.186, 135 32.335 C 135 31.484, 133.612 29.036, 131.916 26.894 C 128.762 22.912, 126.138 22.106, 122.750 24.080 M 176.500 24.195 C 173.750 25.754, 173.129 26.913, 173.434 29.919 C 173.599 31.542, 174.657 32.973, 176.282 33.773 C 179.920 35.564, 185 42.301, 185 45.335 C 185 46.736, 185.450 48.160, 186 48.500 C 186.550 48.840, 187 49.986, 187 51.048 C 187 53.501, 189.958 57, 192.031 57 C 192.904 57, 194.491 56.355, 195.559 55.567 C 197.115 54.419, 197.252 53.883, 196.250 52.867 C 195.563 52.170, 195 49.822, 195 47.650 C 195 42.372, 190.831 34.112, 185.070 27.976 C 180.078 22.659, 179.589 22.443, 176.500 24.195 M 103.108 201.510 C 99.042 205.055, 94.880 208.221, 93.858 208.545 C 91.599 209.262, 91.498 210.339, 93.531 212.026 C 94.796 213.076, 95.998 212.822, 100.462 210.564 C 108.034 206.733, 112.889 202.157, 113.225 198.536 C 113.668 193.759, 111.147 194.501, 103.108 201.510 M 245.539 276.937 C 244.656 278.366, 245.130 294.989, 246.133 297.750 C 246.735 299.407, 247.747 300, 249.975 300 C 253.312 300, 253.684 298.844, 252.046 293.571 C 251.521 291.882, 250.560 287.692, 249.911 284.261 C 248.739 278.060, 246.826 274.855, 245.539 276.937" stroke="none" fill="black" fill-rule="evenodd"/>
</svg>