<svg xmlns="http://www.w3.org/2000/svg" width="300" height="300" viewBox="0 0 300 300" version="1.1">
	<path d="M 96.510 58.344 C 94.874 60.842, 94.947 64.684, 96.906 79.237 C 97.479 83.492, 97.698 87.623, 97.393 88.417 C 96.829 89.887, 83.990 99.367, 79.157 101.883 C 74.568 104.271, 73 106.199, 73 109.455 C 73 113.038, 74.528 115, 77.319 115 C 79.125 115, 90.893 108.495, 92.020 106.874 C 92.307 106.462, 93.712 105.680, 95.143 105.136 C 99.145 103.614, 99.998 105.330, 100.020 114.950 C 100.031 119.652, 100.462 126.425, 100.979 130 C 101.495 133.575, 102.151 141.774, 102.436 148.221 L 102.954 159.941 84.727 178.391 C 70.073 193.225, 65.275 197.458, 60.250 199.985 C 54.473 202.890, 54 203.379, 54 206.442 C 54 209.937, 55.089 211.323, 58.709 212.432 C 61.314 213.230, 71.321 206.077, 79.542 197.541 C 82.315 194.661, 85.065 192.124, 85.653 191.903 C 87.056 191.374, 94.543 182.648, 97.744 177.811 C 101.909 171.516, 102.671 172.657, 102.876 185.500 C 103.322 213.357, 102.028 239.130, 99.901 244.750 C 99.049 247, 95.663 247.779, 93.444 246.235 C 92.352 245.475, 84.021 231.336, 83.973 230.162 C 83.958 229.798, 82.633 227.925, 81.028 226 C 78.259 222.678, 78.022 222.588, 76.361 224.230 C 74.708 225.864, 74.705 226.158, 76.305 229.514 C 77.237 231.469, 78 233.649, 78 234.360 C 78 235.070, 79.125 236.708, 80.500 238 C 81.875 239.292, 83 241.197, 83 242.234 C 83 245.139, 89.600 253.113, 94.137 255.690 C 99.291 258.618, 103.072 258.637, 105.698 255.750 C 109.825 251.214, 110.787 241.920, 111.468 200 C 112.078 162.488, 112.619 159.192, 119.448 151.374 C 122.614 147.750, 123.882 145.314, 124.395 141.873 C 124.977 137.978, 124.806 137.139, 123.313 136.567 C 121.422 135.841, 116.792 140.389, 114.983 144.750 C 114.470 145.988, 113.606 147, 113.063 147 C 111.598 147, 110.134 140.314, 110.109 133.500 C 110.096 130.200, 109.797 123.900, 109.443 119.500 C 109.089 115.100, 108.822 110.375, 108.850 109 C 108.877 107.625, 108.913 104.349, 108.930 101.721 C 108.963 96.674, 110.331 93, 112.177 93 C 112.786 93, 115.644 90.985, 118.527 88.521 C 122.428 85.188, 123.942 83.122, 124.444 80.445 C 125.878 72.804, 121.070 71.988, 113.370 78.567 C 108.134 83.040, 105.353 83.584, 106.303 79.948 C 106.566 78.943, 106.147 75.098, 105.373 71.403 C 104.599 67.709, 104.235 63.835, 104.565 62.794 C 105.358 60.297, 102.470 56, 100 56 C 98.925 56, 97.355 57.055, 96.510 58.344 M 163.250 65.662 C 162.563 65.940, 162.001 67.817, 162.003 69.833 C 162.005 72.765, 162.588 73.890, 164.909 75.445 C 168.658 77.957, 170.688 86.196, 168.425 89.715 C 167.641 90.933, 167 92.627, 167 93.478 C 167 94.330, 166.480 96.034, 165.844 97.264 C 163.227 102.325, 163.165 102.737, 164.782 104.353 C 166.285 105.856, 166.260 106.095, 164.455 107.482 C 161.182 109.997, 148.285 116, 146.155 116 C 143.535 116, 138 120.693, 138 122.915 C 138 125.031, 142.039 129, 144.192 129 C 145.052 129, 146.305 128.337, 146.978 127.526 C 147.651 126.716, 149.843 125.777, 151.850 125.439 C 157.524 124.485, 158.502 124.113, 160.692 122.072 C 161.817 121.024, 164.934 118.998, 167.619 117.569 C 180.853 110.524, 185.710 107.659, 188 105.543 C 189.375 104.273, 192.207 102.634, 194.294 101.900 C 199.657 100.015, 202 97.510, 202 93.661 C 202 89.913, 200.488 87.994, 197.550 88.014 C 194.507 88.035, 181.786 95.272, 177.534 99.401 C 175.496 101.380, 173.417 103, 172.914 103 C 171.067 103, 172.081 99.189, 175 95.159 C 178.401 90.463, 178.996 84.430, 176.615 78.784 C 175.853 76.978, 174.835 74.164, 174.352 72.531 C 173.869 70.898, 171.950 68.535, 170.089 67.281 C 166.693 64.992, 165.569 64.726, 163.250 65.662 M 44 123.921 C 39.044 124.899, 31.056 129.682, 27.323 133.905 L 24.145 137.500 19.288 132.750 C 13.937 127.516, 12.355 127.082, 8.881 129.895 C 5.736 132.442, 7.012 135.703, 12.901 140.165 C 15.926 142.458, 18.537 145.844, 21.257 151 C 23.433 155.125, 25.874 159.248, 26.681 160.161 C 28.613 162.347, 27.467 170.533, 24.866 173.134 C 21.719 176.281, 22.906 180.292, 27.750 182.872 C 29.402 183.752, 30.541 183.781, 32.035 182.981 C 35.226 181.274, 40.263 177.705, 43 175.214 C 50.341 168.531, 53.538 166, 54.640 166 C 55.939 166, 60 160.861, 60 159.217 C 60 157.767, 54.316 155.684, 52.007 156.288 C 49.631 156.909, 49.563 156.635, 51.372 153.715 C 52.593 151.745, 54.194 147.184, 57.089 137.429 C 58.621 132.266, 58.227 127.023, 56.250 126.275 C 55.288 125.910, 53.905 125.024, 53.179 124.306 C 51.766 122.910, 49.585 122.818, 44 123.921 M 189.278 128.250 C 187.332 130.765, 186.833 133.677, 186.921 142 C 187.062 155.423, 185.398 169.903, 183.468 172.035 C 182.553 173.046, 182.102 174.357, 182.467 174.947 C 182.832 175.537, 182.232 177.928, 181.134 180.260 C 180.035 182.592, 178.878 185.625, 178.563 187 C 178.247 188.375, 176.851 190.780, 175.461 192.345 C 173.315 194.760, 172.696 194.992, 171.363 193.886 C 170.252 192.965, 169.939 191.495, 170.291 188.866 C 170.584 186.683, 170.214 184.039, 169.395 182.460 C 168.628 180.981, 168 178.479, 168 176.900 C 168 175.321, 167.568 172.110, 167.039 169.764 C 165.681 163.738, 164.025 154.126, 163.627 149.968 C 163.441 148.026, 162.666 145.438, 161.904 144.218 C 160.258 141.582, 156.487 141.290, 155.552 143.726 C 154.730 145.868, 155.625 155.037, 158.102 169.849 C 159.146 176.092, 160 183.602, 160 186.540 C 160 189.478, 160.450 192.160, 161 192.500 C 161.550 192.840, 162 195.382, 162 198.149 C 162 202.128, 161.530 203.582, 159.750 205.106 C 156.007 208.312, 151.046 210, 145.367 210 C 142.008 210, 138.381 210.765, 135.739 212.032 C 129.001 215.261, 127.720 216.530, 128.528 219.177 C 130.150 224.495, 135.245 226.820, 138 223.500 C 138.821 222.511, 141.055 222, 144.557 222 C 147.479 222, 151.137 221.500, 152.685 220.889 C 154.233 220.278, 157.525 219.647, 160 219.487 C 173.887 218.590, 178.790 218.030, 181.372 217.049 C 183.167 216.366, 184.666 216.307, 185.372 216.891 C 185.992 217.405, 188.300 217.523, 190.500 217.153 C 192.700 216.783, 203.950 216.569, 215.500 216.676 C 231.604 216.826, 237.199 216.549, 239.500 215.488 C 241.150 214.727, 243.625 213.875, 245 213.595 C 246.375 213.316, 248.400 212.418, 249.500 211.600 L 251.500 210.113 249.500 206.306 C 247.164 201.860, 244.365 201.059, 240.355 203.688 C 237.879 205.311, 234.297 205.552, 206.045 206 C 188.695 206.275, 174.320 206.395, 174.100 206.267 C 173.880 206.138, 176.465 203.213, 179.844 199.767 C 183.223 196.320, 185.991 192.860, 185.994 192.079 C 185.997 191.297, 186.598 189.947, 187.328 189.079 C 188.912 187.196, 191.777 178.322, 192.650 172.595 C 192.993 170.343, 193.709 167.655, 194.241 166.622 C 196.954 161.351, 196.701 131.754, 193.914 128.396 C 192.477 126.664, 190.552 126.604, 189.278 128.250 M 41.472 135.959 C 40.388 137.037, 37.475 138.985, 35 140.289 C 30.136 142.852, 28.986 145.182, 31.278 147.824 C 32.077 148.746, 33.030 150.757, 33.395 152.293 C 33.761 153.829, 34.727 155.342, 35.543 155.655 C 37.767 156.508, 40.227 153.966, 39.723 151.332 C 39.413 149.710, 39.997 148.577, 41.727 147.444 C 44.233 145.801, 47.939 138.869, 47.978 135.750 C 48.008 133.336, 43.983 133.465, 41.472 135.959" stroke="none" fill="black" fill-rule="evenodd"/>
</svg>