<svg xmlns="http://www.w3.org/2000/svg" width="300" height="300" viewBox="0 0 300 300" version="1.1">
	<path d="M 129.211 32.806 C 127.513 34.112, 126.867 35.717, 126.711 39.016 L 126.500 43.465 131.750 45.905 C 137.527 48.590, 137.970 49.742, 135.500 55.654 C 132.976 61.696, 133.400 62.958, 137.750 62.352 C 143.105 61.606, 150 54.052, 150 48.931 C 150 41.950, 146.926 38.383, 136.071 32.772 C 131.915 30.624, 132.047 30.623, 129.211 32.806 M 159.832 53.908 C 158.915 55.540, 156.383 57.784, 154.206 58.895 C 152.028 60.006, 150.004 61.547, 149.708 62.319 C 149.084 63.945, 136.663 71, 134.425 71 C 133.597 71, 131.700 71.887, 130.210 72.970 C 127.037 75.277, 117.150 78, 111.945 78 C 109.693 78, 107.680 78.696, 106.655 79.829 C 104.546 82.160, 104.518 87.355, 106.606 89.088 C 108.710 90.834, 117.788 90.449, 123.285 88.379 C 125.603 87.506, 129.527 86.045, 132.005 85.133 C 134.482 84.220, 138.858 82.029, 141.728 80.263 C 144.598 78.497, 148.041 76.777, 149.378 76.441 C 150.716 76.105, 152.831 74.744, 154.079 73.415 C 155.328 72.087, 156.890 71, 157.552 71 C 158.214 71, 159.315 70.325, 160 69.500 C 160.685 68.675, 162.308 68, 163.608 68 C 165.249 68, 166.764 66.803, 168.562 64.086 C 170.831 60.657, 171.046 59.636, 170.299 55.836 C 169.479 51.661, 169.299 51.490, 165.473 51.220 C 161.975 50.974, 161.301 51.295, 159.832 53.908 M 149.922 99.750 C 148.788 102.779, 136.206 116, 134.457 116 C 132.235 116, 125 123.157, 125 125.355 C 125 127.813, 127.581 132, 129.096 132 C 129.637 132, 132.418 130.425, 135.276 128.500 C 138.135 126.575, 141.040 125, 141.732 125 C 143.448 125, 154.668 115.859, 158.176 111.603 C 160.770 108.456, 160.911 107.895, 159.762 105.324 C 158.362 102.192, 153.484 97, 151.941 97 C 151.396 97, 150.487 98.237, 149.922 99.750 M 60.537 119.940 C 60.177 120.523, 59.088 121, 58.118 121 C 55.034 121, 44 126.890, 44 128.536 C 44 129.389, 42.916 131.256, 41.592 132.684 L 39.184 135.281 37.086 131.169 C 34.327 125.761, 29.590 121, 26.968 121 C 19.976 121, 19.020 126.836, 24.775 134.390 C 26.824 137.080, 28.950 140.012, 29.500 140.906 C 30.050 141.800, 31.738 144.142, 33.250 146.110 C 34.763 148.078, 36 150.350, 36 151.157 C 36 151.965, 37.350 153.919, 39 155.500 C 40.650 157.081, 42 159.163, 42 160.128 C 42 161.093, 42.450 162.160, 43 162.500 C 43.550 162.840, 44 164.393, 44 165.952 C 44 167.549, 44.655 169.037, 45.500 169.362 C 47.431 170.103, 47.406 173.371, 45.428 178.549 C 43.248 184.258, 44.540 189.373, 48.272 189.813 C 51.176 190.155, 59.470 185.824, 60.362 183.500 C 60.661 182.721, 63.407 181.356, 66.464 180.467 C 69.522 179.579, 73.416 177.679, 75.119 176.246 C 76.822 174.814, 79.595 172.935, 81.283 172.071 C 84.498 170.424, 85.033 169.655, 86.845 164.077 C 87.678 161.514, 87.663 160.298, 86.786 159.242 C 85.103 157.215, 77.435 158.566, 73.473 161.589 C 66.737 166.726, 66.126 163.526, 72.378 155.865 C 74.786 152.914, 77.094 149.375, 77.507 148 C 77.920 146.625, 79.254 143.699, 80.471 141.497 C 83.988 135.138, 84.406 130.840, 81.964 126.155 C 80.812 123.945, 79.336 121.712, 78.685 121.194 C 76.863 119.746, 61.321 118.672, 60.537 119.940 M 60.561 132.142 C 59.034 132.550, 57.046 133.508, 56.143 134.269 C 55.239 135.031, 51.688 136.478, 48.250 137.485 C 41.741 139.392, 41.015 140.315, 43.468 143.559 C 44.276 144.626, 44.951 146.181, 44.968 147.013 C 44.986 147.846, 46.575 150.865, 48.500 153.724 C 50.425 156.582, 52 160.101, 52 161.544 C 52 165.302, 54.036 164.203, 57 158.846 C 58.375 156.361, 60.706 152.907, 62.181 151.169 C 63.655 149.432, 65.168 146.996, 65.543 145.755 C 65.918 144.515, 67.340 142.307, 68.704 140.850 C 70.172 139.280, 71.248 136.863, 71.342 134.923 C 71.495 131.749, 71.372 131.643, 67.418 131.523 C 65.174 131.455, 62.088 131.734, 60.561 132.142 M 156.400 135.833 C 154.255 137.392, 151.882 139.417, 151.128 140.333 C 150.373 141.250, 149.238 142, 148.605 142 C 147.973 142, 145.891 143.283, 143.978 144.850 C 142.065 146.418, 137.350 149.357, 133.500 151.381 C 123.399 156.692, 122.076 159.084, 126.313 164.378 C 128.904 167.616, 130.524 167.491, 136.241 163.611 C 138.107 162.345, 140.768 161.024, 142.154 160.676 C 143.540 160.328, 146.354 158.459, 148.408 156.522 C 150.462 154.585, 152.720 153, 153.426 153 C 155.163 153, 165 142.496, 165 140.641 C 165 138.957, 161.810 133.016, 160.900 133.006 C 160.570 133.003, 158.545 134.275, 156.400 135.833 M 164.500 189.195 C 152.678 194.004, 142.685 199.390, 136 204.556 C 133.525 206.469, 130.021 208.980, 128.213 210.137 C 126.406 211.294, 124.257 213.537, 123.438 215.120 C 121.830 218.229, 119.587 218.779, 117.079 216.678 C 116.210 215.950, 113.475 214.745, 111 214 C 108.525 213.254, 105.214 212.013, 103.642 211.241 C 99.896 209.401, 96.172 210.418, 94.957 213.613 C 93.519 217.396, 96.719 221.382, 102.495 222.999 C 105.001 223.700, 107.291 224.663, 107.585 225.137 C 107.878 225.612, 109.196 226, 110.514 226 C 111.831 226, 114.167 227.170, 115.705 228.601 C 126.956 239.070, 129 241.438, 129 244.007 C 129 245.483, 129.865 247.473, 130.923 248.431 C 132.373 249.743, 132.711 251.006, 132.296 253.566 C 131.192 260.365, 137.928 264.869, 143.170 260.837 C 144.550 259.775, 147.334 259.006, 150 258.949 C 152.475 258.897, 156.975 258.426, 160 257.903 C 163.025 257.379, 168.650 256.695, 172.500 256.382 C 176.350 256.069, 181.300 255.144, 183.500 254.327 C 185.700 253.509, 189.740 252.387, 192.478 251.834 C 198.404 250.635, 200.611 249.584, 204.169 246.268 C 206.402 244.187, 206.750 243.185, 206.294 240.140 C 205.329 233.689, 204.197 233.376, 195.874 237.259 C 184.001 242.799, 181.407 243.833, 177.601 244.547 C 172.456 245.512, 172.815 242.994, 178.750 236.479 C 189.214 224.991, 195.430 214.510, 196.332 206.829 C 196.909 201.920, 196.677 200.883, 194.093 196.808 C 192.508 194.308, 189.658 191.078, 187.761 189.631 C 184.721 187.313, 183.431 187.010, 176.906 187.081 C 171.923 187.135, 167.864 187.827, 164.500 189.195 M 170 198.634 C 163.565 201.097, 146.566 209.999, 142.500 213.035 C 139.750 215.088, 136.600 217.068, 135.500 217.435 C 134.400 217.802, 132.447 219.436, 131.161 221.067 L 128.821 224.032 131.661 227.373 C 136.819 233.443, 137.539 234.472, 138.850 237.636 C 139.894 240.158, 139.907 241.580, 138.914 244.893 C 138.235 247.159, 137.943 249.277, 138.266 249.599 C 139.322 250.655, 149.605 247.094, 151.479 245.023 C 152.486 243.910, 154.085 243, 155.033 243 C 155.980 243, 157.315 242.325, 158 241.500 C 158.685 240.675, 159.765 240, 160.401 240 C 161.928 240, 174 227.791, 174 226.246 C 174 225.586, 175.130 224.306, 176.512 223.400 C 177.893 222.495, 179.312 220.572, 179.664 219.127 C 180.017 217.682, 181.136 215.427, 182.152 214.115 C 184.345 211.285, 184.733 201.853, 182.725 200.187 C 181.205 198.925, 172.131 197.818, 170 198.634" stroke="none" fill="black" fill-rule="evenodd"/>
</svg>