<svg xmlns="http://www.w3.org/2000/svg" width="300" height="300" viewBox="0 0 300 300" version="1.1">
	<path d="M 130.655 19.829 C 129.745 20.835, 129 23.078, 129 24.815 C 129 27.390, 129.737 28.459, 133 30.619 C 135.679 32.392, 137 34.002, 137 35.495 C 137 36.722, 138.350 39.424, 140 41.500 C 141.676 43.609, 143 46.478, 143 48 C 143 51.135, 139.126 56.382, 133.086 61.428 C 129.694 64.262, 128.334 64.817, 125.948 64.340 C 123.424 63.835, 123 64.056, 123 65.875 C 123 69.373, 121.016 68.342, 114.815 61.620 C 110.232 56.653, 107.907 54.954, 104.313 53.948 C 99.934 52.721, 99.603 52.772, 97.849 54.938 C 93.959 59.742, 96.451 64.140, 103.906 65.631 C 107.414 66.333, 110.974 70.775, 111.014 74.500 C 111.025 75.600, 112.152 77.560, 113.517 78.855 C 115.221 80.471, 116 82.287, 116 84.640 C 116 88.720, 118.540 93, 120.960 93 C 123.173 93, 125.139 90.664, 127.761 84.919 C 129.925 80.177, 142.765 66, 144.895 66 C 145.560 66, 146.570 64.662, 147.140 63.027 C 147.721 61.362, 149.789 59.063, 151.838 57.802 C 153.852 56.564, 157.393 53.813, 159.706 51.689 C 162.019 49.565, 164.381 48.118, 164.956 48.473 C 165.530 48.828, 166 51.280, 166 53.922 C 166 57.753, 165.393 59.489, 163 62.500 C 161.185 64.783, 160 67.450, 160 69.249 C 160 72.143, 160.100 72.204, 163.750 71.522 C 168.568 70.622, 169.354 69.915, 172.967 63.245 C 175.565 58.448, 176.001 56.514, 176.233 48.768 C 176.493 40.065, 176.425 39.763, 173.694 37.413 C 169.719 33.994, 165.910 34.318, 160.371 38.547 C 155.185 42.505, 152.863 42.655, 152.021 39.087 C 151.709 37.766, 150.655 36.405, 149.679 36.063 C 148.703 35.720, 147.363 34.481, 146.702 33.308 C 143.042 26.816, 138.211 20.643, 135.821 19.408 C 132.430 17.654, 132.638 17.637, 130.655 19.829 M 157.405 87.130 C 156.357 88.301, 153.697 90.038, 151.492 90.990 C 149.288 91.942, 146.138 93.821, 144.492 95.166 C 139.924 98.899, 121.401 111, 120.256 111 C 119.700 111, 118.730 111.621, 118.100 112.379 C 117.470 113.138, 115.526 114.045, 113.780 114.394 C 108.091 115.532, 106 117.591, 106 122.054 C 106 124.737, 106.508 126.258, 107.536 126.652 C 109.379 127.359, 123.420 122.404, 125.013 120.484 C 125.631 119.740, 128.018 118.150, 130.318 116.951 C 132.618 115.753, 136.075 113.538, 138 112.029 C 139.925 110.521, 143.300 108.488, 145.500 107.511 C 156.214 102.754, 158.210 101.547, 162.927 96.977 C 168.338 91.734, 169.101 89.307, 166.171 86.655 C 163.646 84.369, 159.682 84.584, 157.405 87.130 M 28.993 121.508 C 26.699 123.950, 26.681 124.107, 28.302 127.508 C 29.218 129.428, 30.452 131, 31.043 131 C 31.635 131, 34.117 132.670, 36.560 134.712 C 39.617 137.267, 41 139.194, 41 140.897 C 41 142.258, 41.897 144.326, 42.994 145.494 C 45.912 148.599, 47.231 156.717, 45.298 159.668 C 43.919 161.772, 43.971 162.286, 45.894 165.544 C 47.052 167.508, 48 169.933, 48 170.935 C 48 171.936, 48.661 173.304, 49.470 173.975 C 51.885 175.979, 62.431 172.808, 66.707 168.791 C 75.310 160.711, 79.399 153.642, 78.436 148.512 C 78.071 146.563, 78.263 144.955, 78.910 144.556 C 79.510 144.185, 80 142.703, 80 141.262 C 80 139.821, 80.539 137.153, 81.197 135.333 C 82.241 132.444, 82.137 131.672, 80.379 129.262 C 79.271 127.743, 78.072 125.712, 77.713 124.749 C 76.410 121.246, 70.878 119.654, 63.363 120.619 L 56.500 121.500 54.361 125.958 C 53.185 128.410, 52.461 131.039, 52.754 131.801 C 53.284 133.182, 53.619 133.168, 63.764 131.360 C 70.239 130.206, 72.219 136.123, 67.162 141.517 C 65.606 143.177, 63.999 145.877, 63.589 147.517 C 62.737 150.931, 60.286 154, 58.412 154 C 56.891 154, 55.678 150.613, 55.790 146.675 C 55.834 145.117, 55.004 142.415, 53.944 140.671 C 52.884 138.927, 51.700 136.825, 51.313 136 C 49.782 132.736, 39.991 121.708, 37.459 120.394 C 33.615 118.400, 31.672 118.656, 28.993 121.508 M 148.500 136 C 147.505 137.100, 146.038 138, 145.240 138 C 144.443 138, 141.790 139.350, 139.345 141 C 136.900 142.650, 134.571 144, 134.169 144 C 132.527 144, 123.019 154.077, 122.424 156.447 C 121.482 160.202, 119.622 159.597, 114.903 154 C 110.767 149.095, 108.467 148.116, 104.582 149.607 C 101.744 150.696, 102.801 154.801, 107 159 C 109.200 161.200, 111 163.624, 111 164.386 C 111 165.148, 111.672 167.060, 112.494 168.636 C 113.315 170.211, 113.990 172.668, 113.994 174.095 C 113.997 175.522, 114.900 177.505, 116 178.500 C 117.100 179.495, 118.014 181.478, 118.032 182.905 C 118.049 184.332, 118.728 186.378, 119.539 187.451 C 120.487 188.705, 120.805 190.521, 120.429 192.529 C 119.922 195.227, 120.346 196.097, 123.530 198.892 C 126.024 201.082, 127.749 201.898, 128.859 201.412 C 129.762 201.017, 133.650 200.574, 137.500 200.429 C 153.451 199.825, 158.631 196.293, 165.993 181 C 167.184 178.525, 168.574 175.825, 169.082 175 C 169.590 174.175, 170.447 172.476, 170.987 171.224 C 171.528 169.973, 172.816 168.041, 173.850 166.931 C 176.029 164.591, 177.217 155.862, 176.283 149.045 C 175.609 144.128, 173.100 140.896, 166.610 136.584 C 161.474 133.172, 151.355 132.845, 148.500 136 M 148.594 147.501 C 141.038 151.519, 129.925 159.031, 129.360 160.504 C 129.074 161.250, 127.532 162.316, 125.933 162.873 C 123.309 163.788, 123.087 164.207, 123.646 167.193 C 124.483 171.670, 125.571 172.662, 127.726 170.915 C 128.702 170.125, 131.075 168.635, 133 167.606 C 134.925 166.576, 137.015 165.098, 137.644 164.321 C 138.273 163.544, 140.523 162.630, 142.644 162.288 C 144.765 161.947, 148.437 160.589, 150.804 159.271 C 155.858 156.458, 159.113 156.619, 160.487 159.750 C 161.945 163.074, 164.631 162.593, 165.375 158.875 C 166.428 153.612, 166.100 151.820, 163.449 148.344 C 161.345 145.586, 160.232 145, 157.098 145 C 154.965 145, 151.235 146.097, 148.594 147.501 M 156.033 168.971 C 154.755 170.079, 152.211 171.400, 150.380 171.906 C 148.548 172.411, 145.125 174.102, 142.774 175.663 C 140.424 177.223, 137.265 179.137, 135.757 179.915 C 132.107 181.798, 129.444 185.844, 130.897 187.297 C 132.025 188.425, 135.250 187.118, 141.500 182.999 C 143.150 181.912, 145.175 180.751, 146 180.420 C 146.825 180.089, 148.470 179.356, 149.655 178.791 C 150.840 178.226, 152.300 178.068, 152.900 178.438 C 154.393 179.361, 158.656 174.565, 159.311 171.225 C 160.052 167.453, 158.786 166.583, 156.033 168.971 M 242.870 214.463 C 242.564 214.769, 226.486 215.218, 207.139 215.462 C 187.793 215.705, 171.512 216.183, 170.961 216.524 C 170.410 216.865, 166.705 217.287, 162.729 217.462 C 155.369 217.787, 128.988 220.243, 114.500 221.953 C 104.194 223.170, 99.766 224.040, 98.407 225.118 C 97.805 225.595, 94.655 226.381, 91.407 226.864 C 84.989 227.819, 69.607 231.478, 64 233.383 C 60.721 234.498, 60.480 234.877, 60.191 239.397 L 59.881 244.221 63.691 243.735 C 65.786 243.467, 72.900 241.789, 79.500 240.004 C 95.376 235.712, 110.669 232.011, 115 231.414 C 116.925 231.149, 119.400 230.687, 120.500 230.387 C 121.600 230.087, 128.800 229.460, 136.500 228.994 C 144.200 228.527, 154.325 227.613, 159 226.962 C 163.675 226.310, 178.075 225.618, 191 225.423 C 203.925 225.228, 215.400 225.015, 216.500 224.949 C 220.817 224.692, 239.631 227.144, 241.829 228.250 C 243.678 229.181, 244.687 229.121, 246.730 227.961 C 250.848 225.622, 251.462 223.865, 249.895 218.909 C 248.780 215.386, 247.990 214.441, 245.963 214.204 C 244.567 214.041, 243.175 214.158, 242.870 214.463" stroke="none" fill="black" fill-rule="evenodd"/>
</svg>