<svg xmlns="http://www.w3.org/2000/svg" width="300" height="300" viewBox="0 0 300 300" version="1.1">
	<path d="M 94.890 52.110 C 93.133 53.867, 92.896 54.913, 93.476 58.360 C 95.320 69.322, 95.645 73.629, 94.880 76.922 C 94.422 78.890, 94.037 84.197, 94.024 88.715 C 94.003 95.920, 94.246 97.061, 96 98 C 98.793 99.495, 101.787 97.691, 102.184 94.274 C 102.376 92.618, 103.417 91.092, 104.834 90.389 C 106.118 89.752, 107.670 88.730, 108.284 88.116 C 110.857 85.543, 111.836 87.078, 112.515 94.750 C 112.892 99.013, 113.440 104.300, 113.734 106.500 C 115.327 118.443, 115.190 122.489, 113.102 125.143 C 111.976 126.575, 109.355 128.540, 107.277 129.511 C 103.360 131.340, 96.735 135.531, 79.237 147.247 C 69.422 153.818, 68.782 154.090, 64.588 153.461 C 60.304 152.818, 60.186 152.875, 59.522 155.902 C 58.758 159.377, 56.465 159.980, 54.392 157.250 C 52.826 155.187, 52.589 151.372, 53.973 150.517 C 56.630 148.875, 58.266 142.815, 57.648 136.905 C 56.870 129.466, 55.987 127.780, 51.469 125.114 C 47.051 122.507, 44.402 122.461, 38.833 124.890 C 33.782 127.094, 30.251 130.208, 28.963 133.596 C 27.581 137.231, 25.275 136.522, 20.229 130.910 C 16.181 126.407, 15.308 125.888, 12.672 126.416 C 8.739 127.202, 7 128.751, 7 131.467 C 7 134.001, 9.866 137, 12.288 137 C 14.557 137, 18.507 141.511, 20.517 146.398 C 21.446 148.654, 22.609 151.281, 23.103 152.236 C 23.596 153.191, 24 154.706, 24 155.602 C 24 156.498, 24.758 159.366, 25.684 161.974 C 27.331 166.611, 27.320 166.778, 25.184 169.493 C 23.983 171.020, 23 173.077, 23 174.063 C 23 179.213, 30.825 180.701, 35.818 176.500 C 37.452 175.125, 39.316 174, 39.961 174 C 40.606 174, 42.608 172.875, 44.411 171.500 C 46.214 170.125, 48.527 169, 49.552 169 C 50.577 169, 53.088 167.367, 55.132 165.371 L 58.848 161.743 62.506 164.004 L 66.165 166.265 71.332 164.002 C 74.175 162.757, 77.437 161.311, 78.583 160.790 C 79.729 160.268, 83.554 157.643, 87.083 154.957 C 90.612 152.271, 94.063 150.056, 94.750 150.036 C 95.438 150.016, 96 149.594, 96 149.099 C 96 148.082, 102.544 144, 104.175 144 C 104.759 144, 106.774 142.650, 108.653 141 C 110.532 139.350, 112.699 138, 113.467 138 C 115.026 138, 116.461 141.445, 115.530 142.952 C 114.879 144.005, 114.485 149.236, 113.490 170 C 113.135 177.425, 112.465 185.075, 112.002 187 C 111.539 188.925, 110.847 192.975, 110.465 196 C 110.082 199.025, 109.381 202.240, 108.906 203.145 C 108.329 204.243, 108.533 205.198, 109.521 206.017 C 110.334 206.693, 111 207.865, 111 208.622 C 111 210.906, 115.798 210.248, 117.365 207.750 C 119.606 204.176, 121.365 189.373, 121.162 175.785 C 121.067 169.353, 122.451 167.603, 125.072 170.841 C 126.034 172.028, 127.247 173, 127.767 173 C 128.752 173, 139.915 160.053, 143.621 154.613 C 144.788 152.901, 146.701 150.643, 147.871 149.595 C 149.420 148.209, 150 146.514, 150 143.371 C 150 139.604, 149.625 138.857, 147.064 137.533 C 144.456 136.184, 143.961 136.182, 142.630 137.513 C 141.805 138.338, 140.816 140.022, 140.431 141.256 C 140.046 142.490, 139.447 143.725, 139.101 144 C 136.901 145.749, 129.935 155.157, 128.364 158.500 C 127.330 160.700, 125.813 162.500, 124.992 162.500 C 123.757 162.500, 123.527 160.753, 123.658 152.356 C 123.745 146.776, 124.339 141.235, 124.978 140.042 C 125.864 138.386, 125.857 137.532, 124.948 136.437 C 122.951 134.031, 125.526 129.592, 130.310 127.194 C 132.615 126.039, 135.273 124.185, 136.217 123.074 C 137.161 121.963, 140.426 119.648, 143.471 117.929 C 146.517 116.210, 149.907 113.662, 151.005 112.267 C 154.338 108.029, 153.131 103, 148.781 103 C 145.835 103, 135.839 108.779, 131.265 113.127 C 124.595 119.466, 123.503 118.517, 123.485 106.358 C 123.476 100.796, 122.954 95.178, 122.323 93.873 C 121.693 92.568, 120.695 88.876, 120.106 85.670 C 119.052 79.934, 119.086 79.776, 122.185 75.920 C 123.917 73.764, 125.665 72, 126.069 72 C 127.829 72, 131.270 64.228, 131.344 60.085 C 131.447 54.299, 129.169 52.553, 125.730 55.783 C 124.433 57.003, 122.163 58, 120.686 58 C 118.708 58, 118 58.504, 118 59.911 C 118 60.962, 116.537 63.045, 114.750 64.540 C 112.963 66.035, 111.257 68.212, 110.961 69.379 C 110.576 70.890, 109.498 71.590, 107.211 71.813 C 103.756 72.151, 103.843 72.344, 103.476 63.500 C 103.290 59.029, 101.874 52.669, 100.747 51.250 C 99.296 49.422, 97.283 49.717, 94.890 52.110 M 183.531 74.386 L 168.631 88.773 171.378 92.037 C 173.720 94.820, 174.028 95.875, 173.469 99.185 C 173.081 101.481, 173.253 103.599, 173.888 104.366 C 174.480 105.079, 175.179 108.101, 175.442 111.081 C 175.704 114.061, 176.560 124.222, 177.345 133.660 C 178.129 143.098, 179.008 151.204, 179.299 151.674 C 179.589 152.144, 179.951 157.472, 180.103 163.515 C 180.255 169.557, 180.720 175.765, 181.137 177.312 C 182.250 181.436, 182.335 202.035, 181.359 231 C 180.887 245.025, 180.548 259.425, 180.607 263 C 180.667 266.575, 180.825 276.363, 180.960 284.750 L 181.205 300 185.531 300 L 189.857 300 190.112 260.250 C 190.613 182.327, 190.483 169.083, 189.204 167.804 C 188.542 167.142, 188 164.890, 188 162.800 C 188 158.187, 190.482 157.553, 192.110 161.750 C 192.696 163.262, 193.781 165.625, 194.521 167 C 195.260 168.375, 196.737 171.300, 197.803 173.500 C 201.853 181.863, 210.528 186.389, 214.370 182.143 C 217.257 178.954, 219.796 166.682, 220.505 152.500 C 220.698 148.650, 221.277 144.375, 221.793 143 C 222.309 141.625, 222.423 139.642, 222.047 138.593 C 221.671 137.544, 221.528 130.305, 221.729 122.506 C 221.991 112.337, 221.657 106.229, 220.548 100.913 C 219.698 96.836, 219.001 92.044, 219.001 90.264 C 219 88.485, 218.557 85.110, 218.016 82.764 C 217.475 80.419, 216.775 77.198, 216.461 75.606 C 215.622 71.354, 204.415 60, 201.057 60 C 199.036 60, 195.006 63.308, 183.531 74.386 M 199.496 73.365 C 197.382 76.593, 181.878 89.989, 180.250 89.995 C 178.547 90.002, 178.669 90.630, 180.989 93.790 C 183.808 97.630, 186.271 115.135, 184.415 118.137 C 184.150 118.567, 184.364 119.724, 184.892 120.709 C 186 122.779, 188.067 142.899, 188.003 151 C 187.963 156.116, 188.051 156.326, 189.259 154 C 192.048 148.636, 194.434 150.995, 202.721 167.309 C 204.641 171.087, 205.624 172.051, 207.308 171.809 C 210.062 171.412, 210.514 168.671, 211.564 146 C 212.685 121.779, 212.337 106.090, 210.523 99.090 C 209.685 95.857, 209 91.109, 209 88.540 C 209 85.971, 208.523 82.977, 207.940 81.888 C 207.357 80.798, 206.559 78.015, 206.166 75.703 C 205.285 70.519, 202.094 69.400, 199.496 73.365 M 35.215 137.910 C 30.493 140.224, 29.996 140.766, 30.543 143 C 30.880 144.375, 31.796 146.210, 32.578 147.079 C 33.360 147.947, 34.006 150.647, 34.014 153.079 C 34.030 158.262, 34.891 162, 36.069 162 C 37.200 162, 43 153.475, 43 151.812 C 43 151.082, 44.125 148.371, 45.500 145.788 C 46.875 143.205, 48 139.721, 48 138.046 C 48 135.164, 47.798 135.009, 44.250 135.160 C 42.188 135.248, 38.122 136.485, 35.215 137.910 M 82.975 178.565 C 82.439 179.976, 82 184.723, 82 189.115 C 82 193.857, 81.448 198.196, 80.640 199.800 C 79.892 201.285, 79 204.750, 78.658 207.500 C 77.231 218.988, 75.907 226.410, 75.105 227.422 C 72.657 230.513, 72.387 240.043, 74.700 241.755 C 76.713 243.245, 78.488 242.813, 86.670 238.842 C 90.064 237.195, 93.664 235.985, 94.670 236.154 C 95.677 236.323, 98.633 235.458, 101.239 234.231 C 103.846 233.004, 106.378 232, 106.867 232 C 107.355 232, 108.315 231.325, 109 230.500 C 109.685 229.675, 111.092 229, 112.127 229 C 113.163 229, 116.342 227.875, 119.192 226.500 C 122.042 225.125, 126.129 224, 128.274 224 C 131.042 224, 133.429 223.098, 136.503 220.890 C 140.473 218.040, 140.833 217.417, 140.833 213.420 C 140.833 209.225, 140.700 209.034, 137.321 208.400 C 134.766 207.921, 132.675 208.303, 129.654 209.801 C 127.369 210.934, 124.150 212.178, 122.500 212.565 C 120.850 212.952, 118.825 213.799, 118 214.447 C 116.231 215.836, 110.119 218.384, 104.500 220.074 C 102.300 220.736, 99.375 222.031, 98 222.952 C 94.533 225.275, 87.466 227.393, 85.588 226.672 C 84.358 226.200, 84.148 225.061, 84.594 221.287 C 84.904 218.654, 85.557 215.600, 86.044 214.500 C 87.155 211.990, 89.106 194.874, 89.386 185.177 C 89.561 179.116, 89.299 177.695, 87.864 176.927 C 85.111 175.454, 84.019 175.820, 82.975 178.565" stroke="none" fill="black" fill-rule="evenodd"/>
</svg>