<svg xmlns="http://www.w3.org/2000/svg" width="300" height="300" viewBox="0 0 300 300" version="1.1">
	<path d="M 155.368 31.493 C 148.055 33.083, 141.296 37.092, 139.947 40.639 C 139.283 42.386, 138.473 43.012, 137.404 42.602 C 136.542 42.271, 135.648 42, 135.418 42 C 135.188 42, 135 41.409, 135 40.687 C 135 38.318, 129.384 33.809, 126.878 34.166 C 123.299 34.677, 122.032 39.318, 124.675 42.235 C 126.893 44.685, 129.444 55.680, 128.416 58.359 C 128.066 59.271, 128.278 60, 128.893 60 C 129.502 60, 130 61.605, 130 63.566 C 130 65.527, 130.378 67.889, 130.841 68.816 C 131.304 69.742, 131.403 73.575, 131.061 77.334 C 130.487 83.652, 130.623 84.350, 132.857 86.584 C 135.949 89.676, 136.519 89.629, 140.723 85.938 C 143.934 83.119, 151.504 79.144, 156.618 77.592 C 157.783 77.238, 159.540 76.060, 160.523 74.974 C 162.188 73.134, 162.197 72.876, 160.655 71.171 C 158.356 68.630, 158.588 65.426, 161.344 61.683 C 168.090 52.523, 170.254 38.975, 165.940 32.916 C 163.608 29.641, 163.778 29.664, 155.368 31.493 M 151.451 44.250 C 149.900 45.487, 146.604 47.625, 144.125 49 C 139.054 51.813, 137.416 55.476, 138.988 60.490 C 139.506 62.146, 140.180 64.737, 140.484 66.250 C 140.839 68.011, 141.677 69, 142.816 69 C 143.794 69, 145.599 67.763, 146.827 66.250 C 152.710 59.006, 155.098 55.455, 155.681 53.084 C 156.030 51.663, 156.952 49.518, 157.729 48.317 C 158.809 46.649, 158.881 45.646, 158.036 44.067 C 156.614 41.410, 154.951 41.456, 151.451 44.250 M 182.499 85.939 C 178.821 87.432, 172 94.873, 172 97.392 C 172 99.857, 174.476 101.657, 175.527 99.956 C 175.852 99.430, 176.936 99, 177.937 99 C 178.937 99, 180.315 98.325, 181 97.500 C 182.627 95.540, 186.408 95.581, 188.064 97.578 C 189.162 98.900, 188.996 99.910, 187.038 103.828 C 185.754 106.397, 184.320 109.281, 183.852 110.236 C 183.383 111.191, 182.998 112.766, 182.995 113.736 C 182.988 116.271, 178.572 121.472, 177.166 120.602 C 176.524 120.206, 176 118.552, 176 116.927 C 176 115.302, 175.560 113.191, 175.023 112.236 C 174.486 111.281, 173.596 108.700, 173.047 106.500 C 171.678 101.023, 163.403 92, 159.749 92 C 154.565 92, 154.062 98.061, 158.885 102.405 C 160.048 103.453, 161 105.089, 161 106.041 C 161 106.993, 161.672 109.060, 162.494 110.636 C 163.315 112.211, 163.990 114.261, 163.994 115.191 C 163.997 116.121, 164.418 117.140, 164.928 117.456 C 165.439 117.771, 165.821 121.442, 165.778 125.613 C 165.693 133.839, 166.340 134.957, 171.203 134.985 C 172.690 134.993, 175.085 135.537, 176.527 136.194 C 178.559 137.120, 179.578 137.120, 181.061 136.194 C 182.112 135.537, 183.824 135, 184.864 135 C 185.904 135, 187.293 134.352, 187.951 133.559 C 188.608 132.767, 190.351 131.980, 191.823 131.809 C 193.763 131.585, 194.592 130.849, 194.835 129.135 C 195.019 127.834, 194.681 126.281, 194.085 125.685 C 192.722 124.322, 192.654 115.332, 194 114.500 C 194.550 114.160, 195 113.064, 195 112.063 C 195 111.063, 195.675 109.685, 196.500 109 C 197.573 108.110, 198 105.755, 198 100.731 C 198 94.158, 197.771 93.426, 194.433 89.353 C 190.735 84.840, 187.492 83.912, 182.499 85.939 M 128.697 101.007 C 122.744 102.096, 115.077 112.323, 115.022 119.250 C 115.004 121.529, 115.432 122, 117.521 122 C 119.157 122, 120.413 121.210, 121.098 119.750 C 122.021 117.781, 129.690 112, 131.380 112 C 131.721 112, 132 114.414, 132 117.365 C 132 121.216, 131.436 123.448, 130 125.273 C 128.900 126.671, 128 128.286, 128 128.861 C 128 132.794, 120.763 139.208, 118.148 137.592 C 117.010 136.888, 114 131.210, 114 129.767 C 114 127.648, 104.973 120.046, 99.462 117.525 C 92.500 114.341, 90.652 114.909, 90.188 120.376 C 89.903 123.733, 90.173 124.175, 93.317 125.488 C 98.609 127.699, 108 136.734, 108 139.614 C 108 140.941, 108.522 142.863, 109.160 143.885 C 110.097 145.385, 109.929 146.295, 108.281 148.621 C 106.277 151.451, 106.274 151.558, 108.103 154.950 C 111.455 161.167, 112.391 160.974, 121.948 152.098 C 126.840 147.553, 134.091 142.814, 137.658 141.829 C 142.015 140.626, 142.849 138.533, 140.127 135.635 C 137.342 132.671, 137.444 130.247, 140.587 124.623 C 143.781 118.909, 143.376 113.816, 139.029 105 C 137.618 102.140, 132.762 100.263, 128.697 101.007 M 56.407 131.878 C 53.606 132.834, 49.077 135.502, 46.343 137.808 C 43.608 140.114, 40.517 142, 39.473 142 C 38.430 142, 35.651 140.111, 33.299 137.803 C 29.507 134.081, 28.722 133.713, 26.365 134.553 C 24.903 135.074, 23.211 136.322, 22.604 137.327 C 21.668 138.875, 22.225 139.815, 26.259 143.497 C 29.409 146.373, 31.240 148.967, 31.674 151.171 C 32.035 153.002, 33.363 156.075, 34.626 158 C 35.889 159.925, 37.449 163.975, 38.093 167 C 38.737 170.025, 40.104 173.573, 41.132 174.885 C 43.595 178.029, 43.501 178.868, 40.309 182.200 C 38.016 184.592, 37.759 185.416, 38.577 187.755 C 39.367 190.014, 40.220 190.556, 43.400 190.818 C 45.525 190.993, 47.744 190.656, 48.332 190.068 C 48.919 189.481, 49.965 189, 50.656 189 C 51.346 189, 53.569 187.875, 55.595 186.500 C 57.888 184.944, 60.681 184, 62.992 184 C 67.936 184, 73.500 180.272, 73.500 176.960 C 73.500 174.731, 73.050 174.471, 68.697 174.193 C 65.748 174.005, 63.687 173.349, 63.360 172.495 C 62.866 171.209, 64.941 166.560, 67.597 163 C 68.213 162.175, 69.198 159.250, 69.785 156.500 C 70.373 153.750, 71.326 149.700, 71.903 147.500 C 73.815 140.212, 73.306 136.152, 70.077 132.923 C 66.684 129.530, 63.909 129.318, 56.407 131.878 M 152.757 131.387 C 151.260 132.523, 151.143 133.472, 151.924 138.105 C 152.425 141.072, 153.089 147.621, 153.400 152.657 L 153.965 161.815 146.608 167.450 C 142.561 170.550, 137.404 174.079, 135.147 175.293 C 132.890 176.507, 127.547 179.412, 123.273 181.750 C 118.999 184.088, 114.291 186, 112.810 186 C 111.330 186, 109.831 186.464, 109.480 187.032 C 107.954 189.501, 91.481 195.246, 88.352 194.401 C 83.521 193.095, 80.537 197.397, 83.035 202.066 C 84.307 204.443, 90.509 204.630, 96.500 202.471 C 98.700 201.679, 101.407 201.023, 102.515 201.015 C 103.623 201.007, 106.209 200.100, 108.261 199 C 110.314 197.900, 113.289 197, 114.874 197 C 116.459 197, 118.315 196.325, 119 195.500 C 119.685 194.675, 120.977 193.999, 121.872 193.999 C 122.768 193.998, 126.092 192.198, 129.261 189.999 C 132.429 187.799, 135.314 186, 135.673 186 C 136.806 186, 146.385 179.756, 149.214 177.173 C 151.466 175.116, 152.187 174.910, 153.454 175.962 C 154.478 176.811, 154.772 178.098, 154.349 179.864 C 153.533 183.266, 149.214 190.884, 146.516 193.680 C 145.360 194.879, 143.782 197.129, 143.010 198.680 C 142.238 200.231, 139.108 204.827, 136.054 208.894 C 132.999 212.960, 129.102 218.360, 127.394 220.894 C 125.686 223.427, 123.324 226.357, 122.144 227.405 C 120.965 228.453, 120 229.703, 120 230.184 C 120 231.154, 112.077 241.627, 105.165 249.792 C 102.701 252.703, 97.814 256.972, 94.304 259.279 C 89.520 262.425, 87.995 263.978, 88.212 265.487 C 89.047 271.320, 103.051 265.935, 110.580 256.886 C 112.588 254.474, 117.212 249.575, 120.856 246 C 124.501 242.425, 127.360 239.119, 127.209 238.652 C 126.811 237.421, 133.204 228.155, 137.666 223.497 C 145.028 215.812, 150 209.206, 150 207.111 C 150 204.786, 153.516 204.055, 154.143 206.250 C 154.416 207.204, 153.797 236.787, 153.072 257.500 C 153.033 258.600, 153.040 262.650, 153.086 266.500 C 153.133 270.350, 152.855 276.704, 152.469 280.619 C 151.990 285.482, 152.121 287.957, 152.884 288.428 C 153.498 288.808, 154 290.126, 154 291.359 C 154 294.344, 155.812 296, 159.078 296 C 162.646 296, 164.726 293.580, 162.973 291.468 C 161.943 290.227, 161.948 289.186, 163 286 C 164.030 282.880, 164.044 281.758, 163.069 280.583 C 162.156 279.483, 161.899 272.957, 162.071 255.300 C 162.200 242.210, 162.619 230.825, 163.003 230 C 163.388 229.175, 163.364 225.125, 162.950 221 C 162.139 212.909, 162.890 210.722, 165.778 212.763 C 169.166 215.158, 181.843 221, 183.654 221.001 C 184.669 221.002, 188.650 222.569, 192.500 224.484 C 196.350 226.399, 199.889 227.974, 200.365 227.983 C 200.841 227.992, 204.441 229.501, 208.365 231.335 C 212.289 233.169, 216.850 235.004, 218.500 235.412 C 220.150 235.821, 222.932 237.246, 224.683 238.578 C 226.434 239.910, 228.279 241, 228.783 241 C 230.597 241, 238 247.046, 238 248.528 C 238 249.992, 238.702 250.399, 245.776 253.041 C 247.578 253.714, 250.953 255.776, 253.276 257.623 C 255.599 259.469, 258.528 260.985, 259.785 260.990 C 262.485 261.002, 267.014 258.255, 266.967 256.635 C 266.884 253.803, 258.600 247, 255.235 247 C 254.159 247, 251.621 245.875, 249.595 244.500 C 247.569 243.125, 245.516 242, 245.032 242 C 244.549 242, 242.692 240.762, 240.905 239.250 C 231.690 231.448, 223.610 226.981, 213.256 223.964 C 209.822 222.963, 205.772 221.294, 204.256 220.254 C 202.740 219.214, 199.475 217.793, 197 217.096 C 194.525 216.399, 191.093 215.016, 189.373 214.021 C 187.654 213.027, 184.852 211.907, 183.148 211.532 C 178.834 210.585, 168.953 205.632, 166.250 203.061 C 164.412 201.314, 164 199.840, 164 195.020 C 164 191.774, 164.493 188.813, 165.096 188.441 C 166.184 187.768, 166.116 187.053, 164.063 177.581 C 163.169 173.454, 163.280 172.054, 164.749 168.896 C 165.712 166.825, 167.400 164.886, 168.500 164.587 C 169.600 164.288, 172.772 162.309, 175.548 160.190 C 178.324 158.071, 182.118 155.806, 183.979 155.157 C 193.478 151.846, 202 144.189, 202 138.965 C 202 136.205, 201.741 136, 198.250 136.004 C 196.188 136.006, 193.150 136.899, 191.500 137.989 C 187.150 140.863, 185.795 141.651, 183 142.933 C 179.348 144.607, 177.159 146.009, 170.793 150.750 C 163.424 156.237, 161.600 156.330, 162.471 151.171 C 163.421 145.549, 161.209 134.272, 158.697 131.932 C 156.278 129.679, 155.144 129.574, 152.757 131.387 M 56.500 145 C 54.839 146.734, 52.592 148, 51.178 148 C 49.831 148, 47.709 149.100, 46.463 150.446 C 44.327 152.751, 44.276 153.123, 45.587 156.929 C 46.353 159.149, 47.273 163.470, 47.632 166.529 C 48.327 172.442, 50.147 173.580, 52.381 169.500 C 52.983 168.400, 54.944 165.174, 56.738 162.331 C 58.532 159.487, 60 156.142, 60 154.896 C 60 153.651, 60.934 150.702, 62.076 148.343 C 65.357 141.565, 61.822 139.445, 56.500 145" stroke="none" fill="black" fill-rule="evenodd"/>
</svg>