<svg xmlns="http://www.w3.org/2000/svg" width="300" height="300" viewBox="0 0 300 300" version="1.1">
	<path d="M 156.011 44.487 C 154.293 46.557, 155.455 50.310, 159.099 54.460 C 163.719 59.721, 167.837 76.563, 165.159 79.241 C 163.644 80.756, 158.866 78.545, 156.462 75.217 C 153.583 71.231, 149.302 67, 148.148 67 C 146.553 67, 143.998 69.981, 144.017 71.821 C 144.026 72.745, 146.388 76.053, 149.267 79.174 C 154.046 84.356, 157.124 86.280, 160.888 86.441 C 163.846 86.567, 164.478 89.641, 162.703 95.272 C 161.767 98.244, 161 101.677, 161 102.900 C 161 106.674, 148.029 134.007, 144.301 138.087 C 140.350 142.413, 143.689 145.842, 149.057 142.970 C 150.836 142.017, 159 131.798, 159 130.523 C 159 130.213, 160.125 128.178, 161.500 126 C 162.875 123.822, 164 121.425, 164 120.674 C 164 119.922, 164.652 118.001, 165.448 116.404 C 167.106 113.080, 169.841 103.607, 171.051 97 C 171.504 94.525, 172.333 90.475, 172.894 88 C 173.454 85.525, 173.932 80.230, 173.956 76.234 L 174 68.968 176.817 69.183 C 181.278 69.523, 185.182 65.905, 189.266 57.645 C 194.284 47.497, 194.044 43, 188.485 43 C 186.419 43, 183 48.235, 183 51.400 C 183 53.738, 175.909 67, 174.658 67 C 173.996 67, 172.896 64.596, 172.213 61.657 C 170.496 54.275, 167.632 48.709, 163.956 45.617 C 160.452 42.668, 157.830 42.295, 156.011 44.487 M 109.448 53.415 C 107.561 54.794, 107.556 54.998, 109.265 61.665 C 110.463 66.341, 111.014 72.313, 111.008 80.574 C 111 92.642, 108.761 111.709, 106.956 115.081 C 106.430 116.064, 106 117.783, 106 118.900 C 106 120.018, 105.368 122.410, 104.596 124.216 C 103.824 126.022, 102.602 129.525, 101.882 132 C 101.161 134.475, 98.418 139.111, 95.786 142.302 C 93.153 145.493, 91 148.522, 91 149.033 C 91 150.571, 95.982 151.329, 98.511 150.177 C 101.257 148.926, 109 139.491, 109 137.397 C 109 136.614, 109.520 134.966, 110.155 133.736 C 110.791 132.506, 111.627 130.825, 112.013 130 C 112.399 129.175, 113.566 128.382, 114.607 128.238 C 120.857 127.373, 127.740 125.466, 129.250 124.180 C 131.217 122.505, 131.581 117.981, 129.884 116.284 C 129.200 115.600, 126.773 115.374, 123.604 115.701 C 116.771 116.407, 115.250 114.833, 116.878 108.743 C 118.458 102.832, 119.684 79.119, 118.907 69.500 C 118.225 61.044, 116.210 54.380, 113.894 52.913 C 112.028 51.732, 111.698 51.769, 109.448 53.415 M 130.057 56.432 C 128.136 58.745, 126.691 71.186, 128.229 72.163 C 131.602 74.304, 134.277 72.043, 136.492 65.176 C 138.199 59.887, 138.195 59.836, 135.931 57.426 C 133.325 54.652, 131.754 54.387, 130.057 56.432 M 87.743 71.590 C 85.406 73.928, 87.355 77.501, 95.372 85.572 C 103.165 93.417, 106.101 95.264, 107.412 93.142 C 108.943 90.665, 101.087 76.413, 96.553 73.443 C 93.861 71.679, 88.733 70.600, 87.743 71.590 M 176.861 110.937 C 174.962 112.496, 174.712 113.221, 175.584 114.648 C 176.713 116.495, 193.885 125.571, 201.892 128.553 C 204.426 129.497, 208.406 131.117, 210.735 132.153 C 214.254 133.718, 215.310 133.823, 216.985 132.777 C 222.002 129.644, 217.172 123.324, 206.899 119.577 C 199.546 116.896, 191.318 113.564, 185.390 110.869 C 180.277 108.544, 179.773 108.548, 176.861 110.937 M 52.226 127.040 C 47.464 128.952, 43 133.409, 43 136.250 C 43 140.367, 39.437 139.983, 37.636 135.672 C 35.798 131.273, 30.661 128.910, 28.227 131.344 C 26.945 132.626, 26.850 133.250, 27.793 134.193 C 28.457 134.857, 29 136.388, 29 137.595 C 29 138.802, 30.117 140.850, 31.483 142.145 C 32.848 143.440, 33.973 145.069, 33.983 145.764 C 34 147.044, 34.340 147.862, 37.331 153.831 C 38.249 155.663, 39 157.646, 39 158.237 C 39 158.828, 40.125 160.786, 41.500 162.589 C 42.875 164.392, 44 166.291, 44 166.811 C 44 167.330, 44.648 168.293, 45.441 168.951 C 47.080 170.311, 46.621 171.989, 43.251 176.960 C 40.202 181.455, 40.545 185.904, 44.092 187.885 C 46.527 189.245, 46.965 189.126, 51.328 185.916 C 53.883 184.037, 59.114 180.302, 62.953 177.616 C 68.087 174.024, 70.230 171.832, 71.057 169.328 C 72.412 165.221, 70.922 162.736, 67.382 163.200 C 66.123 163.365, 64.996 163.123, 64.878 162.661 C 64.760 162.200, 66.265 158.600, 68.221 154.661 C 75.243 140.524, 76.581 133.279, 73.008 128.737 C 70.966 126.141, 70.433 126.003, 62.677 126.063 C 58.180 126.098, 53.477 126.538, 52.226 127.040 M 194 136.045 C 186.071 136.855, 179.622 138.803, 175.180 141.729 C 169.562 145.430, 168.338 146.140, 162.500 149.087 C 156.978 151.875, 146.878 157.836, 144.500 159.711 C 143.950 160.145, 142.253 161.144, 140.729 161.930 C 139.205 162.717, 135.725 165.267, 132.994 167.598 C 130.264 169.928, 126.435 172.361, 124.486 173.005 C 120.413 174.349, 112.842 179.272, 105.868 185.110 C 103.216 187.330, 100.568 188.851, 99.983 188.489 C 99.398 188.128, 97.852 186.142, 96.549 184.078 C 93.274 178.890, 85.313 173.947, 79.830 173.697 C 75.667 173.508, 75.488 173.620, 75.197 176.611 C 74.929 179.362, 75.334 179.919, 78.697 181.429 C 80.789 182.367, 83.538 183.644, 84.806 184.267 C 86.920 185.304, 90.988 189.408, 96.743 196.310 C 97.977 197.789, 99.902 199, 101.020 199 C 102.139 199, 106.529 196.352, 110.777 193.115 C 115.025 189.879, 120.975 185.700, 124 183.828 C 137.343 175.574, 138.984 174.401, 139.560 172.696 C 139.895 171.704, 142.269 169.904, 144.835 168.696 C 147.401 167.488, 149.725 166.208, 150 165.852 C 150.825 164.782, 171.883 153.192, 181 148.789 C 187.917 145.449, 190.880 144.594, 196.910 144.200 C 205.711 143.626, 207 144.639, 207 152.134 C 207 158.343, 204.340 162.748, 197.450 167.950 C 194.452 170.213, 192 172.725, 192 173.532 C 192 174.411, 191.046 175, 189.622 175 C 186.769 175, 184.546 177.374, 185.375 179.535 C 185.836 180.736, 186.841 180.949, 189.737 180.460 C 196.123 179.383, 196.975 178.946, 197.606 176.433 C 197.984 174.930, 198.939 174, 200.106 174 C 202.375 174, 208.855 168.036, 212.601 162.500 C 214.896 159.108, 215.319 157.405, 215.381 151.291 C 215.448 144.622, 215.231 143.846, 212.477 140.918 C 209.724 137.991, 204.115 134.812, 202.282 135.140 C 201.852 135.217, 198.125 135.624, 194 136.045 M 50.500 140.529 C 48.300 141.321, 45.662 141.977, 44.639 141.985 C 43.032 141.998, 42.873 142.513, 43.473 145.750 C 43.856 147.813, 44.806 150.210, 45.585 151.079 C 46.363 151.947, 47 153.173, 47 153.802 C 47 155.890, 51.379 164, 52.507 164 C 53.859 164, 60 155.471, 60 153.593 C 60 152.852, 60.605 151.742, 61.346 151.128 C 63.424 149.403, 66.326 142.291, 65.659 140.554 C 64.883 138.532, 56.083 138.517, 50.500 140.529 M 150.872 176.654 C 150.033 177.667, 149.476 180.869, 149.438 184.904 C 149.403 188.532, 148.650 193.525, 147.763 196 C 143.941 206.670, 143.053 208.045, 138.716 210.010 C 134.255 212.030, 126.973 216.099, 120.440 220.221 C 118.273 221.589, 115.547 223.010, 114.382 223.379 C 109.388 224.963, 107.394 230.977, 111.095 233.295 C 112.288 234.042, 114.555 233.346, 120.095 230.528 C 124.168 228.457, 128.694 225.915, 130.154 224.881 C 134.006 222.152, 137 222.397, 137 225.441 C 137 226.784, 136.550 228.160, 136 228.500 C 135.450 228.840, 135 229.940, 135 230.945 C 135 231.949, 134.328 234.060, 133.506 235.636 C 132.685 237.211, 132.010 239.261, 132.006 240.191 C 132.003 241.121, 131.550 242.160, 131 242.500 C 130.450 242.840, 130 243.920, 130 244.901 C 130 246.886, 122.298 265.956, 120.893 267.450 C 120.402 267.973, 120 269.441, 120 270.714 C 120 271.986, 119.591 273.809, 119.090 274.764 C 116.930 278.886, 113 289.276, 113 290.866 C 113 291.820, 112.608 293.027, 112.129 293.550 C 111.650 294.072, 110.967 295.738, 110.610 297.250 C 109.976 299.938, 110.063 300, 114.458 300 C 118.747 300, 119.046 299.808, 120.977 295.812 C 122.089 293.509, 123 291.089, 123 290.435 C 123 289.780, 123.675 288.685, 124.500 288 C 125.325 287.315, 126 286.035, 126 285.156 C 126 281.216, 130.858 267.334, 135.620 257.668 C 136.929 255.010, 138 251.999, 138 250.977 C 138 249.955, 138.450 248.840, 139 248.500 C 139.550 248.160, 140 247.086, 140 246.113 C 140 244.077, 143.941 233.817, 147.539 226.486 C 148.893 223.728, 150.002 220.578, 150.005 219.486 C 150.014 215.869, 154.265 212.157, 161.500 209.449 C 165.350 208.008, 170.178 206.198, 172.228 205.427 C 176.950 203.651, 189.649 201.651, 191.556 202.383 C 193.301 203.053, 193.504 212.389, 191.907 218.500 C 191.331 220.700, 190.633 223.625, 190.355 225 C 190.077 226.375, 189.468 228.400, 189.001 229.500 C 188.535 230.600, 187.373 234.200, 186.420 237.500 C 185.466 240.800, 184.307 243.927, 183.843 244.450 C 183.379 244.972, 182.991 246.097, 182.981 246.950 C 182.945 249.855, 177.092 258, 175.040 258 C 173.963 258, 170.716 255.525, 167.822 252.500 C 162.598 247.038, 160.714 246.035, 159.469 248.050 C 158.663 249.354, 161.593 255.723, 164.404 258.777 C 167.623 262.274, 175.814 268, 177.598 268 C 181.281 268, 185.344 263.534, 189.143 255.312 C 191.264 250.720, 193 245.873, 193 244.541 C 193 243.208, 193.450 241.840, 194 241.500 C 194.550 241.160, 195 239.649, 195 238.141 C 195 236.633, 195.523 234.877, 196.162 234.238 C 196.801 233.599, 197.701 230.696, 198.162 227.788 C 198.623 224.879, 199.466 220.250, 200.035 217.500 C 202.480 205.691, 202.416 202.386, 199.651 197.668 C 196.867 192.918, 195.048 192.035, 187.993 192.014 C 182.984 191.998, 181.250 192.445, 169 196.899 C 157.227 201.180, 156.811 201.120, 157.535 195.250 C 159.334 180.656, 159.310 179.959, 156.923 177.418 C 154.253 174.576, 152.753 174.387, 150.872 176.654" stroke="none" fill="black" fill-rule="evenodd"/>
</svg>