<svg xmlns="http://www.w3.org/2000/svg" width="300" height="300" viewBox="0 0 300 300" version="1.1">
	<path d="M 128.187 24.275 C 127.605 24.976, 126.818 27.893, 126.438 30.758 C 126.058 33.622, 125.074 36.535, 124.251 37.233 C 123.428 37.930, 118.197 39.424, 112.627 40.552 L 102.500 42.605 102.500 47.052 C 102.500 51.485, 102.513 51.501, 106.320 51.815 C 108.421 51.988, 110.704 51.661, 111.394 51.088 C 112.083 50.516, 114.231 50.107, 116.167 50.180 C 118.102 50.253, 120.159 50.020, 120.738 49.662 C 121.317 49.304, 122.048 49.684, 122.364 50.506 C 122.920 51.956, 122.660 53.331, 121.042 57.500 C 119.050 62.634, 118.176 68.507, 119.218 69.762 C 120.568 71.390, 121.008 71.057, 111 75.980 C 106.325 78.280, 101.825 80.578, 101 81.087 C 100.175 81.596, 97.925 82.738, 96 83.626 C 83.109 89.569, 80.155 91.108, 79.026 92.469 C 76.886 95.047, 75.183 94.202, 73.120 89.537 C 70.973 84.685, 67.239 82.727, 64.487 85.011 C 62.594 86.582, 62.616 88.523, 64.612 95.701 C 65.499 98.891, 66.448 102.723, 66.721 104.218 C 66.994 105.713, 67.844 107.455, 68.609 108.090 C 69.374 108.725, 70 110.245, 70 111.467 C 70 114.153, 72.912 117, 75.660 117 C 78.569 117, 80.675 112.651, 79.171 109.750 C 78.530 108.513, 77.891 106.375, 77.752 105 C 77.542 102.921, 77.980 102.445, 80.351 102.174 C 81.919 101.994, 84.619 100.984, 86.351 99.928 C 88.083 98.872, 90.232 98.006, 91.128 98.004 C 92.023 98.002, 93.254 97.399, 93.863 96.665 C 94.473 95.930, 96.778 94.733, 98.986 94.005 C 101.194 93.276, 103 92.292, 103 91.819 C 103 91.345, 104.237 90.443, 105.750 89.816 C 110.408 87.882, 119.409 83.874, 121.200 82.936 C 123.985 81.478, 139.979 76.372, 147.500 74.541 C 151.350 73.604, 155.400 72.473, 156.500 72.028 C 167.230 67.684, 178.235 66.702, 179.965 69.934 C 182.564 74.791, 179.390 83.452, 172.479 90.363 C 170.015 92.827, 168 95.243, 168 95.734 C 168 96.224, 166.633 97.936, 164.962 99.537 C 160.752 103.570, 158.678 107.907, 160.124 109.650 C 161.931 111.826, 164.427 111.232, 169.109 107.510 C 171.524 105.590, 174.022 104.015, 174.661 104.010 C 175.802 104, 177.524 102.058, 183.500 94.041 C 185.150 91.827, 187.289 89.042, 188.254 87.851 C 191.060 84.386, 192.203 78.410, 191.434 71.228 C 190.865 65.916, 190.236 64.236, 188.116 62.367 C 182.744 57.632, 179.678 57.356, 162 60.019 C 154.584 61.137, 134.652 66.488, 128.617 68.982 C 125.931 70.092, 123.118 71, 122.367 71 C 119.933 71, 120.916 69.398, 124.250 67.930 C 126.690 66.857, 127.584 65.763, 127.836 63.546 C 128.021 61.921, 128.808 59.684, 129.586 58.574 C 130.364 57.463, 131 55.055, 131 53.221 C 131 50.840, 131.822 49.117, 133.875 47.194 C 135.456 45.712, 137.271 43.487, 137.910 42.250 C 138.620 40.874, 139.993 40, 141.446 40 C 143.620 40, 149 35.066, 149 33.072 C 149 31.138, 146.707 26, 145.844 26 C 145.315 26, 143.143 27.398, 141.018 29.106 C 137.133 32.228, 134.764 32.250, 135.067 29.161 C 135.562 24.123, 135.025 23, 132.122 23 C 130.540 23, 128.769 23.574, 128.187 24.275 M 131 99.595 C 128.525 100.906, 125.549 101.984, 124.388 101.990 C 123.226 101.995, 120.526 103.322, 118.388 104.937 C 110.086 111.208, 109.639 112.128, 112.947 116.139 C 114.859 118.458, 114.949 118.469, 118.028 116.750 C 119.752 115.787, 121.801 115, 122.581 115 C 124.910 115, 124.187 118.594, 121.623 119.762 C 120.316 120.358, 117.664 122.234, 115.730 123.932 C 111.875 127.317, 109.010 127.194, 108.985 123.643 C 108.967 121.107, 107.124 115.804, 104.657 111.191 C 103.143 108.359, 102.427 107.926, 99.694 108.191 C 96.893 108.462, 96.461 108.903, 96.185 111.776 C 95.984 113.866, 96.674 116.355, 98.091 118.647 C 100.402 122.386, 101.806 127.351, 102.707 134.965 C 102.998 137.421, 103.809 140.346, 104.509 141.465 C 105.210 142.584, 106.089 145.670, 106.464 148.322 C 107.483 155.548, 112.974 159.915, 113.820 154.172 C 114.233 151.363, 114.968 151.434, 117.462 154.523 C 119.386 156.905, 119.862 157.008, 125.946 156.360 C 131.454 155.774, 132.878 155.188, 135.730 152.337 C 137.565 150.502, 139.447 149, 139.911 149 C 140.375 149, 142.835 146.473, 145.378 143.385 C 148.731 139.311, 150 136.896, 150 134.585 C 150 132.833, 150.389 130.973, 150.864 130.450 C 154.091 126.899, 155.732 114.173, 153.530 109.761 C 152.689 108.073, 152 105.940, 152 105.021 C 152 103.033, 148.599 99.849, 144.703 98.191 C 140.593 96.441, 136.081 96.903, 131 99.595 M 136.521 109.976 C 133.928 112.842, 135.647 114.408, 140.114 113.250 C 142.494 112.633, 143.500 111.798, 143.500 110.436 C 143.500 107.629, 138.919 107.327, 136.521 109.976 M 42.500 121.147 C 35.090 123.589, 31.833 125.534, 29.894 128.672 C 28.754 130.516, 26.872 132.533, 25.711 133.155 C 23.931 134.108, 23.359 133.929, 22.051 132.014 C 19.284 127.964, 15.188 124, 13.768 124 C 11.325 124, 9.113 126.416, 8.802 129.422 C 8.554 131.823, 9.160 132.805, 12.199 134.922 C 17.868 138.872, 26 152.350, 26 157.795 C 26 160.649, 30.409 166, 32.760 166 C 33.393 166, 35.569 164.875, 37.595 163.500 C 39.621 162.125, 42.312 161, 43.574 161 C 50.012 161, 54 156.458, 54 149.126 C 54 146.426, 54.752 144.248, 56.349 142.327 C 58.028 140.306, 58.883 137.679, 59.348 133.117 C 59.994 126.765, 59.980 126.717, 56.427 123.367 C 52.600 119.757, 48.634 119.125, 42.500 121.147 M 137.646 124.452 C 135.978 125.998, 135 127.957, 135 129.752 C 135 131.319, 134.490 133.110, 133.867 133.733 C 132.329 135.271, 133.521 138, 135.731 138 C 136.718 138, 137.970 137.165, 138.513 136.144 C 139.056 135.123, 140.561 132.200, 141.858 129.647 C 145.491 122.500, 143.029 119.463, 137.646 124.452 M 42.688 131.968 C 40.178 132.453, 37.409 134.145, 34.580 136.922 C 30.404 141.020, 30.317 141.235, 31.474 144.601 C 33.398 150.198, 34.371 150.583, 38.457 147.362 C 42.586 144.108, 48 135.951, 48 132.985 C 48 131.893, 47.663 131.052, 47.250 131.115 C 46.837 131.178, 44.785 131.562, 42.688 131.968 M 121.455 132.859 C 122.340 135.646, 119.831 137.266, 116.557 136.021 C 115.079 135.460, 113.638 135, 113.355 135 C 112.541 135, 114.013 140.719, 115.695 144.090 C 116.997 146.700, 117.621 147.063, 119.863 146.509 C 123.732 145.555, 124.281 144.654, 124.798 138.426 C 125.139 134.306, 124.892 132.546, 123.883 131.906 C 121.683 130.513, 120.819 130.853, 121.455 132.859 M 167 153.581 C 163.975 154.878, 160.750 155.952, 159.833 155.969 C 158.916 155.986, 155.991 156.944, 153.333 158.097 C 150.675 159.251, 146.025 161.022, 143 162.033 C 139.975 163.044, 135.025 164.846, 132 166.036 C 128.975 167.226, 125.501 168.430, 124.281 168.711 C 123.060 168.992, 121.572 169.811, 120.974 170.531 C 120.377 171.251, 114.625 173.500, 108.194 175.528 C 101.762 177.557, 94.192 180.299, 91.370 181.623 C 88.549 182.947, 83.374 184.964, 79.870 186.107 C 68.837 189.705, 64.542 194.465, 68.829 198.345 C 71.451 200.718, 72.550 200.477, 81.851 195.483 C 86.443 193.017, 91.416 191, 92.901 191 C 94.385 191, 96.028 190.575, 96.550 190.055 C 97.073 189.536, 102.777 187.512, 109.226 185.559 C 115.676 183.606, 123.776 180.636, 127.226 178.960 C 130.677 177.284, 135.075 175.501, 137 174.998 C 147.768 172.183, 151.555 170.835, 153.423 169.150 C 154.565 168.120, 157.750 166.803, 160.500 166.223 C 163.250 165.643, 166.512 164.853, 167.750 164.467 C 171.878 163.182, 170.323 167.357, 164.160 174.105 C 160.948 177.622, 158.025 181.694, 157.665 183.154 C 157.019 185.771, 157.070 185.800, 161.255 185.242 C 166.947 184.483, 170.567 181.410, 180.058 169.281 C 186.742 160.739, 187.949 158.644, 187.413 156.508 C 187.060 155.103, 185.823 153.289, 184.663 152.477 C 181.580 150.317, 173.425 150.827, 167 153.581 M 129.066 184.420 C 127.586 186.203, 127.563 187.426, 128.798 198.500 C 129.351 203.450, 129.445 208.175, 129.008 209 C 128.572 209.825, 128.368 216.463, 128.555 223.750 C 128.845 235.040, 128.672 237, 127.388 237 C 126.559 237, 122.100 235.195, 117.478 232.990 C 112.857 230.784, 107.934 228.545, 106.538 228.014 C 103.438 226.836, 103.270 224.198, 106.067 220.642 C 108.477 217.579, 108.324 213.217, 105.750 211.606 C 103.111 209.953, 101.022 211.781, 97.250 219.043 C 95.434 222.539, 93.318 226.098, 92.549 226.950 C 91.780 227.803, 89.429 231.036, 87.325 234.136 C 73.747 254.140, 36.191 295.410, 30.878 296.165 C 29.581 296.349, 28.370 297.288, 28.187 298.250 C 27.893 299.791, 28.751 300, 35.377 300 C 40.823 300, 43.121 299.609, 43.700 298.584 C 44.140 297.805, 47.619 294.417, 51.431 291.055 C 55.243 287.693, 59.591 282.790, 61.093 280.160 C 62.596 277.530, 65.327 274.325, 67.162 273.038 C 70.605 270.625, 77.094 263.218, 85.075 252.591 C 87.591 249.241, 90.403 245.882, 91.325 245.128 C 92.246 244.373, 93 243.129, 93 242.363 C 93 240.480, 99.076 235.066, 101.230 235.029 C 102.182 235.013, 108.342 237.700, 114.919 241 C 121.496 244.300, 127.345 247, 127.916 247 C 128.488 247, 131.450 248.350, 134.500 250 C 137.550 251.650, 140.499 253, 141.053 253 C 142.182 253, 163.657 261.642, 166 263.039 C 170.799 265.901, 183.435 272, 184.564 272 C 185.296 272, 190.037 274.250, 195.098 277 C 200.159 279.750, 205.020 282.013, 205.900 282.028 C 206.780 282.043, 209.268 283.393, 211.428 285.028 C 213.589 286.663, 215.945 288, 216.664 288 C 217.383 288, 220.565 289.300, 223.735 290.889 C 242.200 300.144, 241.740 300, 252.906 300 L 263.279 300 259.524 297.452 C 257.459 296.051, 254.359 294.652, 252.635 294.344 C 250.121 293.895, 206.866 272.965, 193.641 265.798 C 191.913 264.862, 189.514 264.074, 188.309 264.048 C 187.104 264.022, 185.805 263.494, 185.423 262.876 C 185.041 262.257, 181.897 260.468, 178.438 258.899 C 174.978 257.330, 171.883 255.619, 171.560 255.096 C 171.236 254.574, 169.291 253.632, 167.236 253.003 C 165.181 252.375, 162.600 251.484, 161.500 251.024 C 160.400 250.565, 156.189 249.013, 152.142 247.575 C 148.096 246.138, 143.833 244.296, 142.670 243.481 C 141.507 242.667, 139.530 242, 138.277 242 C 136.064 242, 135.055 239.278, 136.670 237.664 C 137.038 237.295, 137.420 234.701, 137.519 231.899 C 137.708 226.519, 138.934 224.908, 142.190 225.760 C 143.594 226.127, 145.643 224.844, 149.329 221.290 C 152.173 218.549, 155.963 215.307, 157.750 214.085 C 159.815 212.674, 161 211.033, 161 209.587 C 161 207.086, 163.824 204, 166.113 204 C 167.881 204, 171 198.977, 171 196.131 C 171 193.934, 167.827 191.668, 165.477 192.187 C 164.697 192.359, 159.883 196.481, 154.780 201.347 C 149.676 206.213, 144.584 211.050, 143.465 212.097 C 142.345 213.144, 140.688 214, 139.782 214 C 138.146 214, 137.933 211.335, 137.918 190.769 C 137.917 188.855, 136.928 187.284, 134.614 185.519 C 130.762 182.581, 130.617 182.552, 129.066 184.420" stroke="none" fill="black" fill-rule="evenodd"/>
</svg>