<svg xmlns="http://www.w3.org/2000/svg" width="300" height="300" viewBox="0 0 300 300" version="1.1">
	<path d="M 122.485 16.658 C 121.353 17.790, 121.035 19.138, 121.482 20.908 C 121.843 22.334, 122.511 25.750, 122.967 28.500 C 123.423 31.250, 124.073 34.400, 124.411 35.500 C 125.422 38.789, 123.602 40.205, 117.870 40.588 C 109.120 41.172, 108 41.663, 108 44.912 C 108 46.493, 108.649 48.035, 109.442 48.339 C 111.321 49.060, 117.883 48.139, 120.748 46.752 C 123.962 45.197, 124.325 46.119, 123.004 52.482 C 122.360 55.584, 122.081 58.770, 122.385 59.561 C 123.100 61.423, 127.406 61.420, 128.953 59.557 C 130.681 57.474, 132.672 47.822, 133.400 38 C 133.951 30.553, 133.780 29.094, 132.015 26.226 C 130.907 24.425, 130 22.141, 130 21.150 C 130 19.489, 126.173 15, 124.757 15 C 124.419 15, 123.397 15.746, 122.485 16.658 M 151.040 17.960 C 149.943 19.057, 149.300 20.619, 149.612 21.431 C 149.923 22.243, 149.463 23.928, 148.589 25.176 C 147.715 26.424, 147 28.413, 147 29.595 C 147 32.210, 143.758 39.277, 140.440 43.898 C 136.474 49.421, 137.253 50.620, 142.750 47.456 C 145.363 45.953, 148.263 44.062, 149.196 43.255 C 152.259 40.605, 159 25.100, 159 20.705 C 159 19.795, 157.658 18.357, 156.017 17.509 C 153.236 16.071, 152.899 16.101, 151.040 17.960 M 165.500 53.520 C 162.200 54.263, 159.027 54.900, 158.449 54.936 C 157.871 54.971, 154.551 56.913, 151.071 59.250 C 147.591 61.587, 143.992 63.950, 143.073 64.500 C 142.154 65.050, 139.624 66.901, 137.451 68.613 C 135.278 70.325, 132.117 72.433, 130.427 73.297 C 128.737 74.161, 126.712 75.643, 125.927 76.590 C 124.367 78.471, 112.111 88.413, 110.500 89.103 C 107.662 90.319, 102 94.313, 102 95.099 C 102 95.594, 100.462 96, 98.582 96 C 95.767 96, 94.789 95.394, 93.043 92.570 C 90.072 87.762, 84.368 83, 81.580 83 C 80.287 83, 77.940 82.328, 76.364 81.506 C 70.138 78.259, 65.411 80.777, 65.882 87.089 C 66.026 89.024, 70.082 91, 73.908 91 C 75.455 91, 78.379 92.125, 80.405 93.500 C 82.431 94.875, 84.406 96.006, 84.794 96.013 C 85.182 96.020, 87.710 98.545, 90.411 101.624 L 95.322 107.224 100.352 106.740 C 104.379 106.353, 105.933 105.640, 108.149 103.159 C 109.671 101.456, 112.398 99.383, 114.208 98.553 C 116.019 97.724, 121.775 93.648, 127 89.497 C 144.070 75.934, 154.513 69.085, 161.338 66.977 C 164.870 65.886, 168.319 64.320, 169.003 63.497 C 170.782 61.353, 173.754 61.651, 174.516 64.049 C 175.223 66.279, 172.835 70.742, 170.442 71.661 C 169.649 71.965, 169 72.835, 169 73.594 C 169 74.354, 167.313 76.045, 165.250 77.353 C 158.637 81.546, 151.633 88.601, 152.316 90.380 C 152.981 92.113, 158.464 92.676, 159.432 91.111 C 159.734 90.622, 161.121 89.935, 162.515 89.586 C 166.425 88.604, 177.143 80.187, 182.750 73.694 C 185.218 70.836, 186 68.992, 186 66.030 C 186 59.479, 184.601 57.334, 178.514 54.549 C 175.449 53.147, 172.617 52.038, 172.220 52.084 C 171.824 52.130, 168.800 52.776, 165.500 53.520 M 135.649 97.109 C 129.429 101.229, 123.749 108.202, 124.173 111.196 C 124.699 114.905, 129.243 114.832, 132.604 111.060 C 135.585 107.714, 139 106.984, 139 109.692 C 139 111.692, 131.798 124.093, 129.555 125.954 C 127.144 127.955, 127.648 131.048, 131.316 136.753 C 132.284 138.258, 135.758 136.728, 137.753 133.918 C 138.442 132.947, 140.692 131.612, 142.753 130.950 C 144.814 130.288, 147.291 129.056, 148.258 128.211 C 149.850 126.820, 149.874 126.456, 148.508 124.373 C 146.454 121.237, 146.587 119.987, 149.612 113.965 C 152.116 108.979, 152.171 108.512, 150.962 102.632 C 150.268 99.260, 149.263 95.938, 148.728 95.250 C 146.913 92.918, 140.628 93.811, 135.649 97.109 M 58.746 106.948 C 57.231 107.433, 54.609 108.993, 52.919 110.415 C 51.229 111.837, 49.539 113, 49.163 113 C 48.786 113, 46.504 115.475, 44.090 118.500 C 41.676 121.525, 39.136 124, 38.444 124 C 37.753 124, 35.571 121.750, 33.595 119 C 30.453 114.626, 29.562 114, 26.480 114 C 23.723 114, 22.717 114.526, 21.853 116.422 C 20.876 118.567, 21.222 119.404, 24.875 123.737 C 27.144 126.427, 29 129.235, 29 129.976 C 29 130.718, 30.086 133.178, 31.414 135.443 C 32.741 137.708, 34.147 141.267, 34.538 143.352 C 35.822 150.198, 42.743 156, 49.623 156 C 51.102 156, 53.929 154.764, 55.906 153.254 C 59.854 150.238, 64.116 147.703, 68.061 146.025 C 70.662 144.919, 73 140.252, 73 136.165 C 73 134.960, 73.420 133.191, 73.934 132.236 C 77.087 126.372, 77.872 114.227, 75.250 111.875 C 74.287 111.012, 73.036 109.505, 72.469 108.527 C 71.273 106.462, 63.176 105.530, 58.746 106.948 M 108.571 112.571 C 106.124 115.019, 106.691 117.652, 110.597 121.975 C 114.496 126.291, 118 132.468, 118 135.024 C 118 137.381, 123.487 142.248, 125.651 141.811 C 127.754 141.386, 127.745 140.908, 125.431 129.500 C 123.105 118.039, 122.458 116.762, 117.432 113.726 C 112.232 110.586, 110.750 110.392, 108.571 112.571 M 54.500 121.078 C 51.200 123.318, 48.177 126.017, 47.782 127.075 C 47.387 128.134, 46.136 129, 45.001 129 C 41.001 129, 41.552 134.438, 46.243 141.250 C 48.672 144.778, 49.827 144.711, 54.796 140.750 C 60.686 136.055, 66.205 128.346, 67.075 123.598 C 68.507 115.779, 63.720 114.819, 54.500 121.078 M 141.672 146.873 C 135.334 155.483, 127.683 163.973, 126.250 163.987 C 125.524 163.995, 125 162.737, 125 160.986 C 125 159.329, 124.584 157.191, 124.076 156.236 C 123.567 155.281, 122.597 152.321, 121.920 149.658 C 120.540 144.233, 117.254 141.700, 114.172 143.685 C 112.313 144.882, 112.286 146.606, 114.032 152.500 C 114.684 154.700, 115.324 158.075, 115.455 160 C 116.194 170.880, 118.447 176.459, 122.764 178.100 C 126.225 179.416, 152.852 177.155, 155.844 175.291 C 157.238 174.422, 159.202 174.085, 160.690 174.458 C 165.428 175.647, 168.024 170.060, 164.250 166.797 C 160.162 163.261, 150.949 161.879, 148.079 164.371 C 146.288 165.925, 136 167.513, 136 166.234 C 136 164.827, 138.307 163, 140.085 163 C 141.012 163, 142.461 161.945, 143.306 160.656 C 144.150 159.367, 146.134 157.005, 147.715 155.406 C 149.295 153.808, 151.185 151.040, 151.913 149.256 C 153.060 146.448, 153.017 145.675, 151.596 143.506 C 148.975 139.507, 146.469 140.357, 141.672 146.873 M 144.908 190.783 C 133.769 197.374, 129.745 200.850, 123.535 209.250 C 119.567 214.618, 118.619 214.081, 119.429 206.923 C 120.161 200.458, 119.225 198, 116.033 198 C 113.620 198, 111 201.190, 111 204.129 C 111 205.488, 110.543 207.057, 109.984 207.616 C 109.426 208.174, 108.542 212.652, 108.021 217.566 C 107.499 222.480, 106.355 231.450, 105.478 237.500 C 104.601 243.550, 103.633 256.243, 103.327 265.707 C 102.816 281.511, 102.924 283.125, 104.660 285.508 C 106.316 287.781, 107.381 288.142, 113.263 288.427 C 119.354 288.722, 120.324 288.489, 123.738 285.904 C 125.807 284.337, 128.207 283.043, 129.072 283.028 C 129.936 283.013, 132.411 281.663, 134.572 280.028 C 136.732 278.393, 139.272 277.043, 140.215 277.028 C 141.159 277.013, 143.409 275.719, 145.215 274.154 C 149.116 270.774, 156.785 267.692, 160.121 268.164 C 162.204 268.458, 162.482 268.998, 162.354 272.500 C 162.274 274.700, 161.898 277.666, 161.518 279.092 C 160.209 284.003, 166.804 287.153, 170.223 283.250 C 172.166 281.032, 172.922 276.907, 173.569 265 C 173.852 259.775, 174.583 254.503, 175.193 253.284 C 176.005 251.660, 176.004 250.710, 175.187 249.726 C 174.574 248.987, 174.039 245.034, 173.998 240.941 C 173.909 232.116, 173.606 229.089, 172.583 226.798 C 172.165 225.862, 172.126 224.605, 172.497 224.004 C 172.869 223.404, 172.740 222.370, 172.212 221.706 C 171.683 221.043, 170.999 219.150, 170.690 217.500 C 169.204 209.549, 167.930 205.168, 166.051 201.539 C 164.923 199.360, 164 196.732, 164 195.699 C 164 194.666, 162.764 192.511, 161.253 190.910 C 157.539 186.975, 151.424 186.928, 144.908 190.783 M 148.354 200.381 C 146.074 200.997, 143.374 202.235, 142.354 203.132 C 141.334 204.029, 139.499 205.068, 138.276 205.441 C 137.053 205.813, 135.030 207.554, 133.781 209.309 C 130.510 213.905, 123.112 220.783, 119.920 222.196 C 117.620 223.214, 116.987 224.380, 115.980 229.454 C 113.458 242.157, 112.635 254.381, 112.964 274.250 C 113.086 281.623, 113.885 282.392, 118.115 279.201 C 119.427 278.212, 123.425 275.693, 127 273.605 C 130.575 271.516, 136.650 267.401, 140.500 264.460 C 146.604 259.797, 148.393 258.971, 154.484 258 C 163.604 256.546, 165.007 255.221, 164.974 248.095 C 164.928 238.028, 163.115 223.378, 160.985 215.867 C 159.837 211.815, 158.515 207.025, 158.047 205.222 C 157.068 201.444, 155.253 198.942, 153.628 199.131 C 153.007 199.202, 150.634 199.765, 148.354 200.381 M 148.667 222.815 C 147.716 223.867, 143.534 226.476, 139.374 228.613 C 128.062 234.427, 127.645 234.685, 124.999 237.501 C 122.702 239.947, 122.643 240.274, 124.059 242.797 C 126.083 246.401, 128.644 246.702, 131.849 243.710 C 133.380 242.280, 137.165 240.573, 140.807 239.670 C 144.402 238.778, 149.132 236.656, 151.807 234.734 C 156.308 231.502, 156.500 231.161, 156.500 226.432 C 156.500 221.666, 156.398 221.490, 153.449 221.201 C 151.429 221.004, 149.813 221.549, 148.667 222.815" stroke="none" fill="black" fill-rule="evenodd"/>
</svg>