<svg xmlns="http://www.w3.org/2000/svg" width="300" height="300" viewBox="0 0 300 300" version="1.1">
	<path d="M 126.973 34.668 C 125.613 35.586, 124.384 36.414, 124.243 36.509 C 124.102 36.603, 124.274 38.122, 124.627 39.884 C 125.056 42.029, 126.214 43.576, 128.134 44.569 C 130.747 45.921, 131 46.524, 131 51.403 C 131 54.941, 130.491 57.177, 129.500 58 C 127.542 59.625, 127.576 62.900, 129.560 63.661 C 134.521 65.565, 144.506 46.285, 140 43.500 C 139.450 43.160, 139 41.974, 139 40.864 C 139 38.333, 133.778 33, 131.299 33 C 130.280 33, 128.332 33.751, 126.973 34.668 M 152.829 53.582 C 151.403 54.329, 149.996 55.569, 149.700 56.339 C 147.929 60.954, 120.422 75, 113.154 75 C 111.474 75, 109.430 75.977, 108.060 77.437 C 105.895 79.741, 105.845 80.107, 107.135 84.187 C 108.495 88.485, 108.518 88.501, 113.750 88.802 L 119 89.105 119 93.499 C 119 96.267, 119.926 99.635, 121.500 102.596 C 122.875 105.182, 124 108.526, 124 110.026 C 124 111.527, 124.675 113.315, 125.500 114 C 126.325 114.685, 127 116.225, 127 117.422 C 127 120.068, 128.772 122, 131.197 122 C 133.955 122, 140.447 115.572, 142.524 110.785 C 143.547 108.428, 145.817 104.475, 147.569 102 C 149.321 99.525, 151.043 95.700, 151.395 93.500 C 153.008 83.409, 153.191 77.876, 152.006 75.013 C 150.822 72.155, 150.982 71.800, 155.885 66.435 C 161.420 60.379, 161.814 59.172, 159.440 55.549 C 157.365 52.381, 155.933 51.955, 152.829 53.582 M 139 78.500 C 138.315 79.325, 136.971 80, 136.012 80 C 135.054 80, 133.084 80.933, 131.635 82.073 C 129.196 83.991, 129 84.717, 129 91.850 C 129 100.489, 130.696 104.335, 134.272 103.807 C 138.082 103.244, 143 90.666, 143 81.486 C 143 76.747, 141.428 75.574, 139 78.500 M 162.185 106.042 C 157.612 108.237, 151.366 111.938, 148.304 114.266 C 145.243 116.595, 140.367 120.101, 137.470 122.058 C 134.572 124.015, 130.566 127.052, 128.566 128.808 C 126.566 130.564, 124.434 132, 123.828 132 C 122.495 132, 109.416 140.517, 108.518 141.970 C 108.168 142.537, 106.784 143, 105.441 143 C 103.557 143, 103 142.473, 103 140.689 C 103 137.656, 99.521 134, 96.635 134 C 95.378 134, 93.292 135.125, 92 136.500 C 90.708 137.875, 90.162 139, 90.787 139 C 93.751 139, 96.174 163.302, 95.274 184 C 94.951 191.425, 94.763 199.300, 94.856 201.500 C 94.949 203.700, 94.581 208.425, 94.039 212 C 90.668 234.199, 89.919 240.740, 89.513 251.500 C 89.264 258.100, 88.772 266.425, 88.419 270 C 87.388 280.442, 90.579 288.255, 94.533 284.972 C 95.772 283.944, 96.342 280.495, 97.476 267.170 C 97.772 263.689, 98.440 260.045, 98.961 259.074 C 99.572 257.932, 99.542 256.942, 98.876 256.276 C 97.541 254.941, 98.293 241.372, 100.387 229 C 101.272 223.775, 102.282 213.200, 102.633 205.500 C 102.983 197.800, 103.674 190.986, 104.169 190.357 C 104.663 189.728, 105.165 181.226, 105.284 171.465 C 105.462 156.842, 105.764 153.583, 107 152.960 C 107.825 152.544, 110.525 151.413, 113 150.447 C 115.475 149.481, 118.447 147.686, 119.604 146.459 C 120.762 145.232, 122.787 143.895, 124.104 143.488 C 125.422 143.081, 128.436 141.455, 130.802 139.873 C 142.553 132.018, 144.262 133.042, 138.781 144.655 C 138.222 145.840, 138.060 147.287, 138.421 147.872 C 138.782 148.456, 138.774 151.225, 138.402 154.024 C 137.765 158.828, 137.417 159.320, 132.195 162.806 C 129.152 164.838, 126.176 166.767, 125.581 167.092 C 124.986 167.418, 123.600 168.207, 122.500 168.845 C 121.400 169.483, 119.457 170.454, 118.182 171.004 C 116.907 171.553, 114.310 173.187, 112.412 174.635 C 109.282 177.022, 109.019 177.606, 109.596 180.884 C 110.676 187.016, 111.844 187.486, 118.593 184.503 C 121.842 183.066, 125.711 180.732, 127.190 179.316 C 128.914 177.665, 130.485 176.972, 131.562 177.386 C 133.670 178.195, 133.002 182.318, 129.599 189.500 C 128.296 192.250, 126.944 195.738, 126.596 197.250 C 126.247 198.763, 123.478 202.355, 120.442 205.232 C 113.961 211.374, 113.567 214.033, 118.973 215.132 C 120.883 215.521, 122.617 216.350, 122.825 216.975 C 123.222 218.167, 124.341 219.258, 127.240 221.284 C 128.445 222.126, 129.101 224.240, 129.373 228.156 C 129.815 234.518, 130.435 236, 132.655 236 C 133.500 236, 135.466 236.908, 137.025 238.018 C 139.217 239.578, 141.404 240.028, 146.679 240.002 C 150.431 239.983, 154.625 239.999, 156 240.037 C 160.116 240.149, 164.368 239.416, 166.622 238.206 C 167.954 237.491, 169.817 237.372, 171.622 237.888 C 173.205 238.339, 176.525 238.437, 179 238.104 C 183.470 237.504, 183.502 237.472, 183.808 233.247 C 184.082 229.448, 183.835 228.888, 181.493 227.997 C 180.050 227.449, 175.326 227, 170.994 227 C 166.662 227, 162.869 226.598, 162.566 226.106 C 161.814 224.890, 164.647 218.329, 167.591 214.469 C 171.024 209.969, 170.881 204.155, 167.242 200.259 C 164.877 197.727, 163.486 197.208, 157.492 196.620 C 151.700 196.051, 149.813 196.262, 146.500 197.848 C 139.685 201.111, 133.136 204, 132.555 204 C 130.928 204, 132.430 200.316, 135.537 196.686 C 137.482 194.413, 139.260 191.642, 139.487 190.527 C 139.714 189.412, 140.597 185.546, 141.450 181.936 C 142.302 178.326, 143 174.181, 143 172.725 C 143 169.666, 146.332 166.163, 149.980 165.386 C 154.097 164.510, 160.245 160.965, 164.250 157.158 C 167.663 153.915, 168 153.118, 168 148.297 C 168 143.815, 167.716 143, 166.155 143 C 165.140 143, 163.482 143.915, 162.471 145.032 C 159.850 147.928, 155.049 150.668, 151.147 151.494 L 147.793 152.204 148.325 147.352 C 148.618 144.683, 149.168 141.020, 149.548 139.211 C 150.064 136.752, 149.788 135.423, 148.456 133.951 C 146.885 132.216, 146.836 131.674, 148.047 129.413 C 148.802 128.001, 150.339 126.363, 151.460 125.774 C 152.582 125.185, 154.850 123.625, 156.500 122.308 C 165.479 115.138, 168.923 113.198, 173.890 112.515 C 178.748 111.847, 179.192 111.973, 181.279 114.607 C 184.782 119.028, 188.953 128.208, 188.978 131.550 C 188.990 133.227, 189.392 135.027, 189.871 135.550 C 192.306 138.205, 193.909 203.901, 191.944 220.500 C 191.489 224.350, 190.838 236.950, 190.499 248.500 C 189.881 269.515, 189.188 276.179, 186.655 285.453 C 184.871 291.987, 182.920 293.209, 179.453 289.967 C 176.456 287.163, 170 276.601, 170 274.502 C 170 271.936, 165.463 267.608, 163.544 268.345 C 162.423 268.775, 161.978 269.662, 162.331 270.762 C 166.686 284.327, 169.365 289.150, 176.246 295.811 C 180.406 299.837, 181.018 300.101, 185.517 299.811 L 190.334 299.500 193.693 293 C 197.554 285.527, 198.593 277.336, 199.464 247.500 C 200.138 224.378, 200.796 214.524, 202.109 207.876 C 202.862 204.062, 202.910 200.683, 202.256 197.376 C 201.235 192.204, 201.278 186.329, 202.391 179.065 C 203.303 173.111, 199.925 133.909, 197.991 128 C 197.541 126.625, 196.384 122.724, 195.421 119.330 C 194.010 114.361, 192.672 112.182, 188.540 108.129 C 183.668 103.350, 183.086 103.071, 176.955 102.574 C 170.954 102.087, 169.915 102.332, 162.185 106.042 M 31.750 136.080 C 29.073 137.639, 29.626 140.353, 34 147.121 C 36.200 150.525, 38 154.339, 38 155.596 C 38 156.853, 38.450 158.160, 39 158.500 C 39.550 158.840, 40 159.966, 40 161.002 C 40 162.038, 40.885 164.385, 41.966 166.218 C 43.309 168.494, 44.181 172.531, 44.716 178.953 L 45.500 188.356 50.311 190.328 L 55.122 192.300 57.811 190.128 C 59.290 188.934, 61.625 187.512, 63 186.968 C 64.375 186.423, 66.400 184.630, 67.500 182.983 C 68.600 181.336, 70.286 179.736, 71.248 179.428 C 72.209 179.119, 73.244 177.659, 73.547 176.183 C 74.566 171.227, 76.387 165.516, 77.590 163.500 C 78.302 162.307, 78.664 158.674, 78.486 154.500 C 78.323 150.650, 78.147 146.530, 78.095 145.345 C 77.939 141.802, 70.394 138.049, 62.822 137.750 C 57.205 137.528, 55.913 137.862, 51.235 140.750 C 48.339 142.537, 45.512 144, 44.951 144 C 44.391 144, 42.982 142.389, 41.820 140.420 C 40.658 138.450, 38.619 136.425, 37.289 135.920 C 34.321 134.791, 33.944 134.802, 31.750 136.080 M 58 149.500 C 57.315 150.325, 56.214 151, 55.552 151 C 53.591 151, 50 155.450, 50 157.880 C 50 159.118, 50.520 161.103, 51.156 162.291 C 51.791 163.479, 52.579 166.900, 52.906 169.895 C 53.570 175.978, 55.027 177.206, 57.702 173.938 C 58.691 172.730, 60.513 170.609, 61.750 169.225 C 62.987 167.840, 64 165.831, 64 164.758 C 64 163.686, 64.825 161.614, 65.832 160.154 C 67.367 157.931, 67.677 155.627, 67.081 150.848 C 67.003 150.219, 61.464 148, 59.973 148 C 59.573 148, 58.685 148.675, 58 149.500 M 152.579 208.873 C 152.243 209.416, 149.494 210.169, 146.469 210.547 C 141.934 211.114, 140.603 211.748, 138.883 214.164 C 137.160 216.585, 136.981 217.565, 137.858 219.797 C 138.442 221.284, 139.050 223.850, 139.210 225.500 C 139.603 229.565, 143.102 230.123, 145.660 226.530 C 146.672 225.107, 148.730 222.494, 150.234 220.722 C 151.738 218.950, 152.975 216.928, 152.984 216.229 C 152.993 215.529, 154.146 214.435, 155.546 213.797 C 157.283 213.006, 157.998 211.980, 157.796 210.569 C 157.482 208.376, 153.655 207.132, 152.579 208.873" stroke="none" fill="black" fill-rule="evenodd"/>
</svg>