<svg xmlns="http://www.w3.org/2000/svg" width="300" height="300" viewBox="0 0 300 300" version="1.1">
	<path d="M 140.144 27.327 C 137.544 30.459, 135.659 37.014, 135.365 43.940 C 135.169 48.556, 134.526 51.903, 133.669 52.760 C 132.909 53.519, 129.421 55.571, 125.917 57.320 C 118.026 61.258, 116.282 64.542, 119.986 68.485 C 122.864 71.548, 125.266 71.659, 129.131 68.907 C 131.491 67.226, 132.359 67.053, 133.535 68.029 C 135.296 69.490, 135.404 72.019, 133.853 75.423 C 133.002 77.291, 132.997 78.291, 133.832 79.297 C 134.561 80.176, 134.743 82.948, 134.349 87.170 C 133.810 92.941, 133.955 93.769, 135.616 94.406 C 137.027 94.948, 138.419 94.132, 141.232 91.117 C 144.398 87.722, 144.877 86.636, 144.355 84.027 C 143.916 81.829, 144.246 80.386, 145.508 78.992 C 146.771 77.596, 146.981 76.675, 146.243 75.769 C 145.060 74.315, 145.135 61.140, 146.338 59.235 C 146.777 58.539, 148.654 57.336, 150.509 56.561 C 153.182 55.444, 154.020 54.408, 154.554 51.565 C 155.495 46.550, 153.859 44.839, 148.883 45.635 C 145.099 46.240, 145 46.180, 145 43.261 C 145 41.614, 145.963 37.949, 147.140 35.117 C 149.203 30.154, 149.215 29.895, 147.485 27.984 C 145.427 25.709, 141.759 25.381, 140.144 27.327 M 158 78.675 C 155.264 79.687, 154 82.329, 154 87.036 C 154 92.431, 153.041 93.538, 145 97.425 C 138.896 100.375, 137.395 101.255, 131.653 105.250 C 127.109 108.411, 124.194 108.762, 123.348 106.250 C 123.024 105.287, 121.873 102.588, 120.790 100.250 C 119.129 96.664, 118.364 96, 115.889 96 C 111.653 96, 110.133 99.653, 112.389 104.407 C 113.305 106.337, 114.491 108.186, 115.027 108.517 C 115.562 108.847, 116 110.127, 116 111.360 C 116 113.042, 114.820 114.175, 111.273 115.898 C 108.673 117.161, 104.165 119.775, 101.256 121.706 C 96.755 124.693, 95.431 125.116, 92.369 124.541 C 89.444 123.993, 88.325 124.285, 86.386 126.108 C 80.333 131.794, 86.390 140.838, 93.764 137.126 C 94.719 136.645, 97.361 135.295, 99.636 134.126 C 101.911 132.957, 104.668 132, 105.764 132 C 106.859 132, 108.315 131.325, 109 130.500 C 109.685 129.675, 111.035 129, 112 129 C 112.965 129, 114.315 128.325, 115 127.500 C 116.943 125.159, 123.595 126.006, 126 128.901 C 126.275 129.233, 128.203 130.965, 130.285 132.752 C 133.515 135.524, 134.833 135.998, 139.285 135.985 C 144.788 135.969, 146.215 135.439, 147.334 133 C 147.712 132.175, 148.884 130.150, 149.938 128.500 C 150.992 126.850, 151.889 124.825, 151.932 124 C 152.017 122.360, 158.593 109.082, 160.079 107.550 C 160.585 107.027, 161 105.874, 161 104.987 C 161 102.271, 166.622 97.699, 170.222 97.487 C 172.025 97.380, 175.173 96.552, 177.218 95.647 C 179.263 94.741, 182.050 94, 183.412 94 C 184.774 94, 187.151 92.902, 188.694 91.561 C 192.643 88.127, 191.011 86.005, 182.563 83.589 C 176.236 81.780, 175.668 81.765, 173.014 83.333 C 168.724 85.867, 166.556 85.442, 164.930 81.750 C 163.522 78.549, 161.167 77.505, 158 78.675 M 142.230 109.250 C 141.672 109.938, 141.050 111.400, 140.848 112.500 C 140.574 113.994, 139.471 114.627, 136.490 115 C 133.323 115.397, 132.435 115.956, 132.185 117.713 C 131.768 120.644, 134.844 127, 136.679 127 C 139.669 127, 147 115.633, 147 110.998 C 147 110.017, 146.288 108.941, 145.418 108.607 C 143.349 107.813, 143.406 107.801, 142.230 109.250 M 67.500 119 C 67.160 119.550, 65.643 120, 64.128 120 C 62.109 120, 59.348 121.867, 53.778 127 C 49.600 130.850, 45.848 134, 45.442 134 C 45.035 134, 43.148 132.400, 41.248 130.444 C 37.156 126.230, 33.721 126.123, 30.754 130.116 C 28.938 132.559, 28.914 132.934, 30.390 135.787 C 31.259 137.467, 33.339 139.817, 35.013 141.009 C 39.124 143.937, 43 151.831, 43 157.278 C 43 160.241, 43.636 162.306, 45 163.770 C 47.535 166.490, 47.516 167.822, 44.906 170.600 C 42.070 173.619, 43.110 177.440, 46.533 176.581 C 49.182 175.916, 50.971 177.782, 48.907 179.057 C 48.165 179.516, 47.843 180.177, 48.192 180.526 C 48.541 180.874, 49.943 180.428, 51.307 179.534 C 53.833 177.879, 58.141 178.206, 60.737 180.250 C 63.095 182.106, 65.218 180.271, 64.500 177 C 63.976 174.615, 64.217 173.881, 65.670 173.427 C 66.677 173.113, 68.175 172.437, 69 171.925 C 69.825 171.414, 71.513 170.557, 72.750 170.022 C 75.489 168.838, 75.670 166.429, 73.122 165.065 C 69.313 163.027, 70.067 156, 74.095 156 C 75.835 156, 76.006 155.551, 75.432 152.489 C 74.992 150.144, 75.226 148.433, 76.137 147.337 C 77.115 146.160, 77.500 142.427, 77.500 134.135 C 77.500 123.024, 77.409 122.529, 75.166 121.403 C 73.882 120.759, 72.330 119.730, 71.716 119.116 C 70.330 117.730, 68.319 117.675, 67.500 119 M 150.400 135.945 C 147.123 136.728, 135.187 145.764, 135.069 147.551 C 134.903 150.075, 132.363 153.985, 130.886 153.992 C 129.719 153.998, 129.093 152.699, 128.629 149.307 C 127.997 144.702, 124.891 140, 122.481 140 C 121.837 140, 120.565 140.823, 119.655 141.829 C 117.752 143.932, 117.328 153.928, 119.068 155.668 C 120.312 156.912, 121.254 179.528, 120.758 196.250 C 120.656 199.688, 120.756 205.968, 120.980 210.207 C 121.310 216.443, 121.064 218.272, 119.694 219.786 C 117.762 221.920, 117.457 225.547, 119.123 226.576 C 119.851 227.026, 120.035 229.060, 119.644 232.359 C 119.083 237.097, 119.260 237.673, 122.217 240.724 C 125.905 244.529, 129.579 244.973, 132.770 242 C 133.950 240.900, 135.610 240, 136.458 240 C 139.313 240, 138.032 243.472, 132.500 250.733 C 129.475 254.704, 127 258.349, 127 258.834 C 127 260.089, 107.939 279.235, 98.721 287.240 C 87.079 297.349, 80.834 299.970, 76.892 296.402 C 74.864 294.567, 73.470 295.095, 72.714 297.984 C 72.205 299.934, 72.644 300, 86.102 300 L 100.017 300 106.259 294.283 C 109.691 291.138, 113.859 287.201, 115.520 285.533 C 117.180 283.865, 122.130 279.095, 126.520 274.933 C 134.960 266.930, 138 263.533, 138 262.104 C 138 261.623, 139.063 260.534, 140.361 259.683 C 141.660 258.832, 142.999 256.755, 143.336 255.068 C 144.045 251.527, 145.913 251.141, 148.500 254 C 149.495 255.100, 151.500 256, 152.955 256 C 154.410 256, 156.028 256.421, 156.550 256.936 C 158.430 258.788, 169.938 264, 172.194 264.022 C 173.462 264.035, 177.200 265.375, 180.500 267 C 183.800 268.625, 187.119 269.965, 187.876 269.978 C 191.439 270.036, 217.089 281.263, 224.946 286.204 C 227.391 287.742, 230.134 289, 231.041 289 C 231.948 289, 233.489 289.883, 234.466 290.962 C 235.443 292.042, 237.875 293.457, 239.871 294.107 C 241.867 294.758, 244.772 296.350, 246.327 297.645 C 248.810 299.714, 250.191 300, 257.699 300 C 265.182 300, 266.090 299.813, 265 298.500 C 264.315 297.675, 263.293 297, 262.727 297 C 262.162 297, 258.192 294.750, 253.905 292 C 249.618 289.250, 245.816 287, 245.457 287 C 245.097 287, 241.084 284.811, 236.539 282.136 C 231.994 279.461, 225.851 276.072, 222.888 274.605 C 219.924 273.138, 215.250 270.612, 212.500 268.992 C 209.750 267.372, 206.609 266.036, 205.519 266.023 C 203.397 265.998, 195.618 263.162, 187.500 259.454 C 184.750 258.198, 180.700 256.589, 178.500 255.878 C 176.300 255.168, 173.825 254.039, 173 253.371 C 172.175 252.703, 170.150 251.827, 168.500 251.424 C 166.850 251.022, 163.932 249.862, 162.015 248.847 C 160.098 247.831, 157.547 247, 156.347 247 C 151.848 247, 151.275 246.212, 151.769 240.701 C 152.107 236.918, 152.935 234.750, 154.804 232.750 C 157.368 230.006, 161.329 229.106, 162.500 231 C 163.849 233.182, 165.973 231.815, 166.967 228.124 C 167.825 224.935, 168.552 224.140, 171.069 223.636 C 173.821 223.086, 174.097 222.697, 173.814 219.762 C 173.573 217.259, 172.977 216.426, 171.250 216.180 C 168.653 215.812, 168.310 213.420, 170.506 210.994 C 171.729 209.642, 171.799 208.723, 170.881 206.089 C 170.045 203.690, 170.043 202.557, 170.876 201.724 C 171.494 201.106, 172 199.790, 172 198.800 C 172 197.578, 172.754 197, 174.345 197 C 177.590 197, 180.747 193.408, 179.391 191.258 C 178.827 190.365, 177.515 189.154, 176.475 188.567 C 172.463 186.303, 171.570 184.919, 172.824 182.909 C 174.604 180.061, 174.325 161.014, 172.468 158.559 C 171.661 157.491, 170.997 155.466, 170.993 154.059 C 170.984 150.464, 167.579 145.657, 159.527 137.874 C 156.441 134.891, 155.578 134.708, 150.400 135.945 M 57.522 139.392 C 55.266 141.483, 55.025 142.304, 55.604 145.928 C 56.012 148.478, 56.993 150.461, 58.154 151.083 C 60.743 152.468, 62.127 151.356, 61.404 148.473 C 60.997 146.854, 61.479 145.207, 62.878 143.428 C 64.475 141.398, 64.722 140.348, 63.943 138.893 C 62.585 136.357, 60.633 136.508, 57.522 139.392 M 147.216 150.750 C 146.112 151.713, 142.879 155.200, 140.031 158.500 C 137.183 161.800, 133.700 165.723, 132.292 167.218 C 129.979 169.673, 129.849 170.221, 130.951 172.881 L 132.171 175.826 136.157 174.041 C 141.974 171.437, 142.406 170.764, 140.909 166.624 C 139.281 162.123, 140.075 161.340, 144.945 162.640 C 148.012 163.458, 149.343 163.363, 151.287 162.183 C 154.456 160.260, 156.885 161.236, 158.307 165.002 C 158.929 166.651, 159.790 168, 160.219 168 C 160.649 168, 161 169.180, 161 170.622 C 161 172.685, 161.283 173.010, 162.324 172.146 C 164.237 170.558, 162.890 161.695, 160.177 158.026 C 158.980 156.406, 158 154.458, 158 153.695 C 158 149.559, 150.826 147.600, 147.216 150.750 M 156.046 176.615 C 153.866 178.449, 153.116 179.790, 153.534 181.106 C 154.371 183.746, 153.243 185.196, 151.189 184.121 C 148.744 182.840, 145.128 184.533, 144.006 187.484 C 143.090 189.893, 142.765 189.990, 137.614 189.384 L 132.186 188.747 131.492 195.229 C 130.340 205.987, 131.274 207.448, 136.935 203.746 C 138.824 202.511, 141.510 200.796, 142.905 199.935 C 144.299 199.074, 145.696 197.289, 146.007 195.969 C 146.416 194.237, 147.500 193.377, 149.893 192.888 C 153.122 192.228, 162.353 184.380, 161.508 183.012 C 161.285 182.651, 160.991 180.476, 160.856 178.178 C 160.720 175.880, 160.281 174, 159.881 174 C 159.481 174, 157.755 175.177, 156.046 176.615 M 131 178.500 C 131 179.325, 131.450 180, 132 180 C 132.550 180, 133 179.325, 133 178.500 C 133 177.675, 132.550 177, 132 177 C 131.450 177, 131 177.675, 131 178.500 M 154.021 207.560 C 152.658 208.902, 151.022 210, 150.386 210 C 149.750 210, 148.493 211.125, 147.592 212.500 C 146.691 213.875, 145.035 215, 143.911 215 C 141.055 215, 138 216.801, 138 218.485 C 138 219.264, 137.365 220.260, 136.588 220.700 C 135.811 221.140, 134.861 223.188, 134.477 225.250 C 133.883 228.432, 134.045 229, 135.544 229 C 136.516 229, 138.786 227.875, 140.589 226.500 C 142.392 225.125, 144.153 224, 144.504 224 C 144.854 224, 147.276 222.200, 149.885 220 C 152.494 217.800, 155.107 216, 155.692 216 C 158.008 216, 158.989 213.429, 157.490 211.289 C 156.217 209.471, 156.220 209.062, 157.518 207.985 C 158.333 207.308, 159 206.360, 159 205.878 C 159 204.261, 156.524 205.098, 154.021 207.560" stroke="none" fill="black" fill-rule="evenodd"/>
</svg>