<svg xmlns="http://www.w3.org/2000/svg" width="300" height="300" viewBox="0 0 300 300" version="1.1">
	<path d="M 116.024 49.472 C 113.035 53.073, 111.235 65.738, 113.079 70.190 C 114.292 73.120, 114.199 73.430, 111.433 75.643 C 109.820 76.934, 107.427 77.992, 106.115 77.995 C 100.907 78.006, 90.429 80.399, 89.250 81.847 C 87.605 83.868, 87.709 89.032, 89.440 91.316 C 90.695 92.972, 91.507 93.036, 98.629 92.045 C 102.926 91.448, 106.882 90.518, 107.421 89.979 C 108.771 88.629, 113.725 88.746, 114.592 90.149 C 116.377 93.037, 116.841 108.363, 115.299 113.500 C 114.639 115.700, 113.863 118.625, 113.575 120 C 113.287 121.375, 111.915 123.807, 110.526 125.406 C 108.071 128.229, 107.589 129.681, 107.938 133.194 C 108.056 134.373, 106.952 135.187, 104.303 135.873 C 97.321 137.683, 89.574 138.927, 81.577 139.524 C 69.984 140.388, 67.525 142.327, 72.314 146.826 C 74.327 148.716, 75.771 149, 83.380 149 C 88.193 149, 93.058 148.504, 94.191 147.898 C 95.735 147.072, 96.858 147.121, 98.679 148.096 C 100.734 149.196, 101.601 149.141, 104.304 147.738 C 106.062 146.826, 110.534 145.124, 114.243 143.956 C 117.952 142.787, 121.241 141.419, 121.552 140.915 C 121.863 140.412, 122.976 140, 124.025 140 C 126.244 140, 133 136.950, 133 135.948 C 133 135.573, 134.912 134.004, 137.250 132.462 C 139.588 130.920, 143.637 127.823, 146.250 125.579 C 150.489 121.938, 150.999 121.057, 151 117.372 C 151 114.974, 150.389 112.737, 149.541 112.034 C 147.232 110.118, 142.189 111.734, 140.542 114.918 C 138.216 119.416, 124.373 128.967, 122.161 127.600 C 121.017 126.893, 121.749 120.059, 123.130 118.550 C 123.609 118.028, 124 116.592, 124 115.359 C 124 114.126, 124.450 112.840, 125 112.500 C 125.550 112.160, 126 109.685, 126 107 C 126 104.315, 126.429 101.853, 126.954 101.528 C 128.033 100.862, 127.670 87.893, 126.521 86.034 C 126.110 85.370, 126.163 84.479, 126.637 84.056 C 127.738 83.074, 135.018 79.325, 137.030 78.704 C 137.872 78.444, 139.420 76.635, 140.471 74.683 C 142.055 71.743, 142.182 70.695, 141.213 68.567 C 139.777 65.416, 136.883 65.243, 131.739 68 C 129.686 69.100, 127.379 70, 126.611 70 C 123.894 70, 123.154 63.586, 125.073 56.677 C 125.934 53.576, 125.834 52.396, 124.544 50.427 C 122.718 47.639, 117.985 47.109, 116.024 49.472 M 112.372 165.313 C 110.217 168.641, 109.749 175.445, 111.416 179.192 C 112.790 182.278, 111.548 184.476, 107.185 186.678 C 104.811 187.875, 101.790 189.563, 100.470 190.428 C 99.150 191.292, 96.951 192, 95.582 192 C 94.214 192, 91.967 192.514, 90.589 193.142 C 88.681 194.011, 87.003 193.981, 83.554 193.015 C 79.248 191.810, 78.928 191.864, 77.046 194.124 C 74.452 197.237, 74.461 197.286, 78.276 201.331 C 81.319 204.557, 81.885 204.767, 86.223 204.278 C 89.727 203.883, 91.301 204.158, 92.521 205.379 C 94.024 206.881, 94.373 206.781, 97.088 204.066 C 98.705 202.449, 101.034 200.821, 102.264 200.448 C 103.494 200.075, 105.490 198.865, 106.699 197.759 C 107.975 196.592, 109.576 196.007, 110.512 196.366 C 111.899 196.899, 112.060 198.492, 111.662 207.743 C 111.096 220.905, 109.840 229.282, 108.123 231.352 C 107.410 232.210, 107.112 233.373, 107.460 233.936 C 107.808 234.498, 107.623 235.835, 107.050 236.907 C 105.920 239.019, 102.062 239.719, 87.500 240.457 C 82.982 240.686, 75.583 242.006, 70.500 243.490 C 65.550 244.935, 57 246.966, 51.500 248.003 C 27.160 252.592, 22.377 254.110, 19.094 258.291 C 17.839 259.888, 18.047 260.454, 21.016 263.517 C 23.689 266.274, 24.853 266.827, 26.923 266.322 C 28.340 265.975, 29.725 265.411, 30 265.067 C 30.759 264.118, 45.730 260.059, 52.377 259 C 55.609 258.485, 59.233 257.422, 60.430 256.638 C 63.042 254.927, 75.646 252.368, 86 251.447 C 90.125 251.080, 95.071 250.132, 96.991 249.340 C 98.911 248.549, 103.411 247.924, 106.991 247.952 C 114.482 248.011, 119.292 247.675, 126.902 246.561 C 133.626 245.577, 211.762 245.169, 214.500 246.104 C 215.600 246.480, 220.100 247.322, 224.500 247.976 C 228.900 248.630, 233.554 249.841, 234.842 250.666 C 236.760 251.895, 237.711 251.948, 240.093 250.961 C 242.667 249.895, 243.631 250.085, 248.445 252.606 L 253.887 255.455 256.426 253.069 C 259.964 249.746, 260.542 247.257, 258.342 244.826 C 254.384 240.452, 254.008 240.376, 219 236.899 C 200.317 235.044, 141.945 235.479, 122.750 237.618 C 119.588 237.970, 117 237.892, 117 237.445 C 117 236.997, 118.005 234.577, 119.233 232.066 C 120.758 228.949, 121.530 225.376, 121.667 220.808 C 121.777 217.127, 122.389 213.142, 123.026 211.951 C 123.865 210.385, 123.883 209.483, 123.093 208.693 C 121.610 207.210, 121.733 196.082, 123.265 193.077 C 124.518 190.619, 128.311 187.885, 133.184 185.928 C 138.668 183.726, 140.732 176.877, 136.944 173.449 C 135.251 171.917, 134.548 171.801, 132.958 172.794 C 131.896 173.457, 130.488 174, 129.828 174 C 129.169 174, 127.610 174.957, 126.365 176.127 C 125.020 177.390, 123.443 178, 122.478 177.630 C 121.136 177.115, 120.972 176.075, 121.528 171.625 C 122.360 164.965, 121.027 161.995, 117.215 162.012 C 115.251 162.021, 113.911 162.934, 112.372 165.313" stroke="none" fill="black" fill-rule="evenodd"/>
</svg>