<svg xmlns="http://www.w3.org/2000/svg" width="300" height="300" viewBox="0 0 300 300" version="1.1">
	<path d="M 146.132 50.500 C 144.001 52.425, 141.631 54, 140.865 54 C 140.099 54, 136.545 56.587, 132.967 59.750 C 129.389 62.913, 125.437 66.079, 124.186 66.786 C 122.935 67.494, 119.343 69.459, 116.205 71.153 C 105.083 77.159, 102.810 79.937, 106.507 83.006 C 107.713 84.007, 108.916 84.004, 112.535 82.990 C 115.022 82.294, 117.376 82.043, 117.766 82.432 C 118.155 82.822, 118.562 84.796, 118.671 86.820 C 119.097 94.788, 118.943 121.284, 118.466 122.056 C 118.187 122.506, 117.492 126.601, 116.921 131.155 C 116.350 135.710, 115.508 139.900, 115.049 140.468 C 114.244 141.464, 113.903 143.554, 112.436 156.500 C 112.061 159.800, 111.411 162.950, 110.991 163.500 C 110.570 164.050, 109.914 166.525, 109.533 169 C 108.850 173.431, 107.480 178.574, 105.937 182.500 C 105.504 183.600, 104.866 185.850, 104.519 187.500 C 104.171 189.150, 103.210 193.425, 102.382 197 C 101.554 200.575, 100.509 205.300, 100.059 207.500 C 99.609 209.700, 98.286 214.371, 97.120 217.880 C 95.954 221.389, 95 225.075, 95 226.071 C 95 227.067, 94.550 228.160, 94 228.500 C 93.450 228.840, 93 230.415, 93 232 C 93 233.585, 92.604 235.127, 92.120 235.426 C 90.831 236.222, 87.831 245.917, 88.525 247.041 C 88.851 247.568, 89.726 248, 90.470 248 C 92.082 248, 97 242.395, 97 240.558 C 97 239.850, 97.900 238.126, 99 236.727 C 100.100 235.329, 101 233.387, 101 232.413 C 101 230.399, 102.585 225.058, 104.620 220.216 C 105.379 218.410, 106 215.793, 106 214.401 C 106 213.010, 106.899 209.762, 107.998 207.185 C 109.098 204.608, 110.413 200.475, 110.922 198 C 111.432 195.525, 112.537 191.700, 113.380 189.500 C 114.223 187.300, 114.932 183.614, 114.956 181.309 C 114.980 179.004, 115.415 176.861, 115.923 176.548 C 116.431 176.234, 117.143 174.520, 117.505 172.739 C 118.393 168.373, 120.052 162.883, 121.123 160.764 C 121.605 159.809, 122 157.986, 122 156.714 C 122 154.544, 123.630 152, 125.020 152 C 126.146 152, 131.691 157.459, 132.891 159.750 C 133.621 161.143, 134.996 162, 136.500 162 C 137.837 162, 140.468 163.350, 142.347 165 C 144.226 166.650, 146.183 168, 146.695 168 C 147.207 168, 148.919 169.350, 150.500 171 C 152.081 172.650, 153.979 174, 154.718 174 C 157.561 174, 157.031 177.145, 153.250 182.710 C 146.320 192.911, 141 201.608, 141 202.736 C 141 203.340, 140.662 203.983, 140.250 204.167 C 139.838 204.350, 137.723 206.750, 135.550 209.500 C 130.793 215.522, 128.874 217.451, 123 222.116 C 116.781 227.054, 114.436 228.147, 111.593 227.434 C 110.247 227.096, 108.469 227.198, 107.644 227.660 C 106.388 228.363, 106.611 229.071, 109.010 232 C 111.308 234.806, 112.126 235.252, 113.138 234.250 C 113.832 233.562, 116.304 233, 118.631 233 C 121.271 233, 124.231 232.154, 126.506 230.750 C 131.511 227.661, 141.733 217.317, 146.026 211 C 147.334 209.075, 148.692 207.275, 149.044 207 C 151.249 205.280, 161.358 189.310, 163.128 184.750 C 163.745 183.162, 164.957 182, 165.999 182 C 168.188 182, 178.578 189.678, 183.692 195.074 C 185.738 197.233, 187.977 199, 188.667 199 C 189.357 199, 190.727 199.841, 191.711 200.869 C 194.402 203.679, 210.846 216, 211.906 216 C 212.414 216, 214.556 217.957, 216.665 220.349 C 218.774 222.741, 221.949 225.446, 223.720 226.360 C 225.492 227.273, 227.420 228.916, 228.006 230.010 C 228.591 231.105, 229.651 232, 230.361 232 C 231.071 232, 232.742 233.169, 234.076 234.599 C 235.409 236.028, 239.125 239.045, 242.333 241.302 C 245.818 243.754, 248.947 246.935, 250.104 249.203 C 251.169 251.292, 252.632 253, 253.354 253 C 254.076 253, 256.417 251.487, 258.557 249.637 L 262.447 246.274 259.746 242.192 C 258.260 239.947, 254.897 236.859, 252.272 235.330 C 249.648 233.800, 244.644 230.513, 241.154 228.024 C 237.663 225.536, 234.164 223.050, 233.377 222.500 C 232.591 221.950, 229.147 218.884, 225.724 215.686 C 222.301 212.488, 216.801 208.274, 213.503 206.322 C 210.204 204.370, 206.072 201.587, 204.321 200.136 C 202.569 198.686, 199.076 195.925, 196.558 194 C 194.040 192.075, 191.727 189.708, 191.419 188.739 C 191.111 187.771, 189.653 186.345, 188.179 185.571 C 186.706 184.797, 183.925 182.539, 182 180.553 C 180.075 178.567, 176.813 176.046, 174.750 174.951 C 170.425 172.654, 170.289 172.173, 173 168.727 C 174.100 167.329, 175 165.684, 175 165.072 C 175 164.461, 176.107 162.207, 177.460 160.064 C 180.234 155.669, 183.912 146.119, 184.692 141.285 C 184.977 139.517, 185.818 137.566, 186.560 136.950 C 187.554 136.125, 187.755 134.181, 187.323 129.556 C 186.933 125.378, 187.115 123.047, 187.868 122.581 C 189.341 121.671, 189.325 117.725, 187.842 116.242 C 186.977 115.377, 186.972 114.739, 187.820 113.717 C 188.708 112.647, 188.253 111.684, 185.728 109.294 C 183.952 107.613, 180.821 105.463, 178.770 104.515 C 175.548 103.026, 174.322 102.953, 169.770 103.983 C 162.795 105.561, 158.212 107.672, 154.215 111.145 C 152.409 112.715, 149.997 114, 148.857 114 C 147.080 114, 146.890 113.607, 147.532 111.250 C 147.944 109.737, 148.592 106.611, 148.974 104.303 C 149.355 101.995, 150.290 99.355, 151.052 98.437 C 152.852 96.268, 154.987 90.550, 155.897 85.459 C 156.295 83.236, 157.663 79.261, 158.939 76.626 C 160.732 72.921, 161.322 69.796, 161.540 62.850 C 161.814 54.107, 161.741 53.775, 158.807 50.433 C 154.772 45.837, 151.273 45.855, 146.132 50.500 M 147.500 61.128 C 146.400 61.715, 143.250 64.393, 140.500 67.078 C 137.750 69.764, 133.756 73.459, 131.625 75.289 L 127.750 78.618 129.250 85.196 C 130.469 90.540, 130.580 94.471, 129.840 106.138 C 129.338 114.037, 128.543 121.400, 128.071 122.500 C 126.837 125.380, 124.675 140.711, 125.280 142.289 C 125.562 143.021, 127.751 144.205, 130.146 144.919 C 132.541 145.633, 136.565 148.081, 139.089 150.358 C 146.021 156.615, 153.132 162, 154.464 162 C 155.117 162, 156.708 163.125, 158 164.500 C 159.292 165.875, 160.673 167, 161.070 167 C 161.466 167, 163.473 163.512, 165.528 159.250 C 167.584 154.988, 169.657 150.718, 170.134 149.763 C 171.996 146.032, 173.972 139.369, 173.985 136.770 C 173.993 135.269, 174.701 132.290, 175.557 130.150 C 176.491 127.814, 176.991 124.109, 176.807 120.880 C 176.504 115.570, 176.456 115.496, 173.123 115.177 C 171.265 115, 169.263 115.337, 168.673 115.927 C 168.083 116.517, 166.790 117, 165.800 117 C 164.810 117, 163.169 117.831, 162.154 118.846 C 161.139 119.861, 158.326 122.068, 155.904 123.750 C 153.482 125.431, 148.205 130.041, 144.178 133.994 C 140.150 137.947, 135.561 141.552, 133.978 142.006 C 131.252 142.788, 131.013 142.600, 129.419 138.427 C 128.011 134.741, 127.953 133.761, 129.064 132.423 C 130.607 130.563, 134 121.320, 134 118.976 C 134 118.095, 135.068 115.153, 136.373 112.437 C 137.678 109.722, 139.072 105.925, 139.471 104 C 139.870 102.075, 140.827 99.503, 141.598 98.285 C 142.369 97.067, 143 95.373, 143 94.522 C 143 93.670, 143.395 92.191, 143.878 91.236 C 146.143 86.757, 148 81.769, 148 80.166 C 148 79.195, 148.430 77.970, 148.956 77.444 C 150.221 76.179, 151.557 59.991, 150.394 60.030 C 149.902 60.047, 148.600 60.541, 147.500 61.128 M 56.160 91.840 C 54.623 93.377, 54.300 94.744, 54.670 98.151 C 55.196 103.007, 55.879 110.700, 56.253 116 C 56.477 119.178, 56.129 119.687, 52.473 121.536 C 50.257 122.656, 45.404 125.243, 41.688 127.286 C 37.972 129.329, 33.883 131, 32.602 131 C 29.304 131, 25 135.626, 25 139.171 L 25 142.069 30.250 141.455 C 36.675 140.703, 45.392 137.461, 49.740 134.204 C 51.522 132.870, 53.593 132.013, 54.342 132.301 C 57.177 133.389, 58.174 157.066, 55.532 160.559 C 54.724 161.626, 54.049 163.907, 54.032 165.626 C 53.979 170.781, 49.538 179.648, 46.645 180.374 C 45.275 180.718, 42.882 182.042, 41.327 183.317 C 39.772 184.592, 37.070 186.208, 35.322 186.909 C 30.715 188.756, 28.635 191.409, 29.401 194.460 C 29.919 196.524, 30.643 197, 33.267 197 C 37.650 197, 55.006 191.195, 57.564 188.873 C 58.700 187.843, 60.101 187, 60.677 187 C 61.253 187, 63.424 185.650, 65.500 184 C 67.576 182.350, 69.826 181, 70.500 181 C 71.174 181, 73.424 179.650, 75.500 178 C 77.576 176.350, 79.879 175, 80.617 175 C 82.147 175, 86 168.014, 86 165.240 C 86 160.452, 81.483 159.772, 76.785 163.853 C 72.612 167.478, 69.706 169, 66.957 169 C 65.087 169, 64.879 168.617, 65.471 166.261 C 65.849 164.754, 66.368 158.604, 66.624 152.593 C 66.880 146.582, 67.283 141.351, 67.520 140.967 C 67.757 140.584, 67.407 137.676, 66.742 134.506 L 65.533 128.743 69.517 125.297 C 71.707 123.403, 74.685 121.615, 76.132 121.325 C 77.580 121.034, 80.843 118.889, 83.382 116.558 C 86.877 113.349, 88 111.598, 88 109.359 C 88 104.048, 84.868 102.649, 80.210 105.878 C 71.195 112.127, 67.907 113.908, 67.539 112.740 C 67.127 111.430, 65.229 101.235, 64.144 94.500 C 63.596 91.097, 63.098 90.454, 60.811 90.189 C 59.145 89.997, 57.375 90.625, 56.160 91.840" stroke="none" fill="black" fill-rule="evenodd"/>
</svg>