<svg xmlns="http://www.w3.org/2000/svg" width="300" height="300" viewBox="0 0 300 300" version="1.1">
	<path d="M 142.348 92.535 C 142.024 93.379, 142.228 95.966, 142.801 98.285 C 143.374 100.603, 144.579 105.448, 145.479 109.052 C 146.899 114.741, 147.044 120.465, 146.578 152.552 C 146.283 172.873, 145.764 194, 145.426 199.500 C 144.712 211.099, 146.690 237.145, 148.368 238.235 C 151.015 239.953, 151.793 238.783, 152.344 232.250 C 152.658 228.537, 153.117 223.925, 153.364 222 C 153.611 220.075, 153.896 210.850, 153.997 201.500 C 154.234 179.714, 154.703 175.648, 156.873 176.575 C 160.316 178.046, 161.869 177.279, 169.563 170.307 C 173.928 166.350, 179.559 161.400, 182.076 159.307 C 198.080 145.992, 198.123 145.945, 197.802 142.104 C 197.214 135.088, 192.129 137.110, 177.740 150.081 C 176.772 150.953, 172.842 154.105, 169.007 157.084 C 165.172 160.063, 161.788 163.232, 161.488 164.128 C 160.497 167.085, 156.100 171.505, 155.173 170.475 C 154.681 169.928, 154.630 163.134, 155.058 154.992 C 155.726 142.270, 155.600 128.521, 154.657 111.500 C 154.505 108.750, 153.845 105.517, 153.190 104.316 C 152.536 103.114, 152 100.934, 152 99.470 C 152 95.630, 148.393 91, 145.401 91 C 144.046 91, 142.672 91.691, 142.348 92.535 M 64.025 117.470 C 62.797 118.949, 63.090 132.043, 64.568 141.800 C 65.052 144.994, 64.820 146.537, 63.665 147.800 C 62.336 149.253, 52.583 154.529, 44 158.438 C 40.714 159.935, 40.828 162.151, 44.274 163.803 C 46.537 164.887, 48.105 164.904, 52.774 163.891 C 55.923 163.208, 59.388 162.054, 60.473 161.325 C 65.335 158.059, 66.035 160.519, 66.127 181.178 C 66.162 189.055, 66.600 197.975, 67.101 201 L 68.011 206.500 63.255 210.763 C 60.640 213.108, 55.630 217.608, 52.122 220.763 C 48.614 223.918, 44.114 227.339, 42.122 228.365 C 34.335 232.376, 31.979 236.861, 35.829 240.345 C 38.289 242.571, 40.334 242.430, 44.770 239.727 C 46.821 238.477, 49.765 236.812, 51.311 236.026 C 54.171 234.572, 65.197 224.739, 77.133 213 C 80.768 209.425, 86.570 203.800, 90.026 200.500 C 98.156 192.737, 102.217 183.996, 97.691 184.001 C 96.286 184.003, 79.904 197.420, 78.717 199.542 C 77.455 201.797, 73 201.421, 73 199.059 C 73 197.991, 73.450 196.840, 74 196.500 C 74.619 196.118, 75 187.290, 75 173.341 L 75 150.800 78.294 147.650 C 80.106 145.917, 83.514 142.847, 85.868 140.827 C 89.329 137.857, 90.086 136.614, 89.824 134.327 C 89.316 129.895, 85.493 129.932, 81.391 134.410 C 77.026 139.174, 73.457 139.310, 72.420 134.750 C 72.013 132.963, 71.696 128.674, 71.715 125.219 C 71.744 119.951, 71.411 118.701, 69.652 117.469 C 67.003 115.613, 65.566 115.613, 64.025 117.470 M 118.667 167.667 C 117.415 168.918, 117.998 175.912, 120.086 184.711 C 122.597 195.292, 124.970 214.063, 124.926 223 C 124.891 230.315, 122.743 243.669, 121.389 244.988 C 120.900 245.465, 115.550 246.144, 109.500 246.497 C 103.450 246.850, 95.575 247.957, 92 248.957 C 88.425 249.957, 83.955 251.056, 82.066 251.399 C 78.755 252.001, 75 254.488, 75 256.078 C 75 257.811, 80.314 263, 82.089 263 C 83.140 263, 84 262.622, 84 262.161 C 84 260.702, 88.933 259.002, 93.297 258.956 C 95.609 258.932, 99.525 258.460, 102 257.905 C 104.475 257.351, 112.575 256.501, 120 256.016 C 127.425 255.531, 140.925 254.622, 150 253.995 C 159.075 253.368, 186.841 252.901, 211.702 252.956 L 256.905 253.057 260.181 250.130 C 263.115 247.508, 263.353 246.904, 262.458 244.351 C 261.328 241.123, 257.837 240.063, 255.286 242.173 C 254.013 243.227, 244.717 243.521, 210.092 243.604 C 186.116 243.662, 158.175 244.173, 148 244.740 C 137.825 245.307, 129.306 245.591, 129.070 245.372 C 128.833 245.153, 129.625 242.167, 130.830 238.737 C 132.699 233.415, 133.019 230.372, 133.010 217.993 C 133.005 210.015, 132.517 201.915, 131.928 199.993 C 131.338 198.072, 130.489 194.025, 130.042 191 C 129.595 187.975, 128.502 182.891, 127.614 179.701 C 126.726 176.512, 126 172.889, 126 171.651 C 126 170.413, 125.460 168.860, 124.800 168.200 C 123.506 166.906, 119.753 166.580, 118.667 167.667" stroke="none" fill="black" fill-rule="evenodd"/>
</svg>