<svg xmlns="http://www.w3.org/2000/svg" width="300" height="300" viewBox="0 0 300 300" version="1.1">
	<path d="M 163 67.724 C 162.175 68.036, 157.144 71.150, 151.821 74.645 C 146.498 78.140, 141.760 81, 141.294 81 C 140.827 81, 139.230 79.615, 137.745 77.922 C 134.888 74.667, 132.403 74.406, 130.657 77.179 C 129.864 78.438, 130.261 80.940, 132.244 87.179 C 135.704 98.066, 136.007 99.630, 136.944 111.474 C 137.878 123.266, 135.954 151.147, 132.771 171.948 L 131.479 180.395 122.989 182.971 C 102.991 189.038, 99.782 190.856, 101.943 194.894 C 104.281 199.262, 106.405 199.358, 116.559 195.554 C 121.777 193.599, 126.685 192, 127.464 192 C 129.574 192, 130.363 193.911, 129.258 196.345 C 128.721 197.530, 127.526 201.875, 126.604 206 C 124.424 215.752, 122.984 221.140, 122.061 223 C 121.652 223.825, 120.102 228.550, 118.616 233.500 C 117.131 238.450, 115.260 243.978, 114.458 245.784 C 113.656 247.590, 113 249.734, 113 250.547 C 113 251.361, 112.600 252.809, 112.111 253.764 C 108.127 261.544, 107.623 263.023, 108.615 264.015 C 109.193 264.593, 110.395 264.786, 111.286 264.444 C 114.650 263.153, 123 247.412, 123 242.360 C 123 240.998, 124.125 237.870, 125.500 235.407 C 126.875 232.944, 128 229.847, 128 228.524 C 128 227.201, 128.398 225.872, 128.885 225.571 C 129.371 225.271, 129.995 223.781, 130.270 222.262 C 130.809 219.294, 132.727 213.585, 134.134 210.764 C 134.610 209.809, 135 207.761, 135 206.214 C 135 204.666, 135.476 202.924, 136.058 202.342 C 136.639 201.761, 137.379 198.733, 137.700 195.613 C 138.022 192.494, 138.608 189.742, 139.003 189.498 C 139.397 189.255, 145.745 187.478, 153.110 185.550 C 160.474 183.621, 168.750 181.415, 171.500 180.647 C 174.250 179.878, 178.844 178.929, 181.709 178.537 C 188.079 177.665, 187.822 176.983, 188.485 196.500 C 189.309 220.775, 190.127 236.448, 190.649 238 C 190.927 238.825, 191.371 245.318, 191.635 252.430 C 192.137 265.975, 190.956 273.419, 188.132 274.503 C 186.322 275.197, 181.087 271.662, 174.171 265.075 C 169.277 260.412, 164.701 257.966, 163.368 259.299 C 162.215 260.452, 166.670 267.741, 171.464 272.547 C 177.045 278.141, 185.814 283, 190.328 283 C 192.412 283, 194.265 281.938, 196.716 279.340 L 200.168 275.679 199.947 255.590 C 199.825 244.540, 199.358 233.687, 198.908 231.472 C 198.459 229.257, 198.048 219.582, 197.996 209.972 C 197.944 200.362, 197.384 189.230, 196.753 185.233 C 195.180 175.282, 195.412 175.100, 211.952 173.246 C 223.647 171.935, 225.546 171.943, 229.722 173.318 C 237.545 175.893, 240.926 171.794, 235.290 166.568 C 230.998 162.588, 223.863 161.591, 210.032 163.038 C 203.577 163.713, 197.698 164.066, 196.968 163.823 C 196.113 163.538, 195.529 161.263, 195.330 157.440 C 195.160 154.173, 194.556 148.575, 193.989 145 C 193.422 141.425, 192.753 127.025, 192.502 113 C 192.026 86.380, 190.946 77.808, 187.605 74.116 C 184.061 70.200, 176.064 66.994, 170.054 67.079 C 166.999 67.122, 163.825 67.413, 163 67.724 M 162.500 79.792 C 160.300 81.421, 155.232 84.455, 151.238 86.535 L 143.977 90.318 144.581 96.909 C 144.914 100.534, 145.537 106.928, 145.967 111.118 C 146.397 115.309, 146.365 122.959, 145.897 128.118 C 145.428 133.278, 144.879 142.900, 144.676 149.500 C 144.473 156.100, 143.545 164.820, 142.613 168.877 C 141.682 172.934, 141.138 176.472, 141.405 176.738 C 141.977 177.310, 160.043 173.002, 161.500 171.946 C 162.050 171.548, 167.311 170.203, 173.191 168.957 C 179.070 167.711, 184.384 166.380, 185 166 C 185.824 165.491, 185.815 160.204, 184.967 145.905 C 184.335 135.232, 183.649 122.675, 183.443 118 C 182.037 86.001, 181.594 82.503, 178.527 79.194 C 177.861 78.476, 174.883 77.650, 171.908 77.360 C 167.052 76.885, 166.091 77.134, 162.500 79.792 M 154.667 112.667 C 152.956 114.377, 154.243 119.944, 157.526 125.034 C 159.465 128.040, 161.505 132.300, 162.060 134.500 C 163.732 141.134, 164.883 143.169, 166.761 142.811 C 168.158 142.545, 168.559 141.219, 168.802 136.073 C 168.968 132.549, 168.560 128.278, 167.894 126.583 C 164.851 118.829, 162.607 114.429, 161.117 113.295 C 159.357 111.955, 155.732 111.602, 154.667 112.667 M 68.713 121.621 C 68.321 122.013, 67.993 127.996, 67.985 134.917 C 67.976 141.838, 67.639 147.989, 67.235 148.587 C 66.131 150.219, 58.037 154.609, 53.500 156.037 C 48.447 157.626, 38.972 162.910, 38.372 164.472 C 37.468 166.830, 39.879 171, 42.147 171 C 44.380 171, 53.997 167.554, 61.815 163.951 C 64.189 162.857, 66.551 162.223, 67.065 162.540 C 68.491 163.421, 68.179 176.664, 66.586 182.934 C 64.570 190.867, 63 198.828, 63 201.120 C 63 202.202, 61.462 204.755, 59.581 206.794 C 57.701 208.832, 55.114 211.848, 53.831 213.496 C 52.549 215.144, 49.125 218.969, 46.223 221.996 C 41.721 226.692, 41.025 227.927, 41.479 230.405 C 42.561 236.302, 46.403 237.746, 50.295 233.720 C 53.855 230.037, 62.289 220.606, 65.072 217.196 C 67.085 214.729, 88.156 192.103, 93.592 186.570 C 96.866 183.239, 97.509 177.994, 94.643 178.004 C 93.063 178.009, 87.335 181.592, 82.264 185.747 C 76.408 190.546, 72.889 188.774, 76.181 182.684 C 77.420 180.393, 77.643 177.917, 77.864 163.996 L 78 155.493 85.750 148.586 C 93.791 141.420, 96.134 137.186, 93.341 134.868 C 92.247 133.960, 91.456 134.151, 89.721 135.740 C 88.499 136.859, 85.653 138.701, 83.396 139.833 C 78.636 142.221, 77.038 141.409, 76.936 136.550 C 76.900 134.873, 76.305 130.800, 75.613 127.500 C 74.517 122.281, 74.033 121.461, 71.889 121.204 C 70.534 121.041, 69.104 121.229, 68.713 121.621 M 30.200 148.200 C 28.492 149.908, 28.715 152.954, 30.601 153.677 C 32.472 154.395, 33.963 152.444, 33.985 149.250 C 34.001 146.808, 32.116 146.284, 30.200 148.200" stroke="none" fill="black" fill-rule="evenodd"/>
</svg>