<svg xmlns="http://www.w3.org/2000/svg" width="300" height="300" viewBox="0 0 300 300" version="1.1">
	<path d="M 169.500 16.036 C 165.100 17.047, 157.225 19.508, 152 21.505 C 146.775 23.502, 139.800 26.048, 136.500 27.162 C 133.200 28.275, 127.125 30.761, 123 32.685 C 105.564 40.816, 103.357 41.773, 100.500 42.445 C 95.407 43.643, 85.075 48.991, 84.011 50.980 C 82.459 53.880, 82.797 55.821, 85.067 57.036 C 86.661 57.889, 87.658 57.799, 89.421 56.644 C 90.679 55.820, 93.461 54.845, 95.604 54.478 C 101.392 53.486, 105.700 52.019, 113.672 48.324 C 117.616 46.496, 121.335 45, 121.935 45 C 122.536 45, 123.809 44.601, 124.764 44.114 C 125.719 43.627, 128.877 42.193, 131.782 40.928 C 134.687 39.663, 137.554 38.037, 138.154 37.314 C 138.754 36.591, 140.056 36, 141.047 36 C 142.038 36, 146.220 34.650, 150.341 33 C 154.462 31.350, 158.771 30, 159.917 30 C 161.062 30, 162 29.660, 162 29.244 C 162 28.082, 167.821 25.771, 168.966 26.479 C 169.523 26.823, 172.542 26.631, 175.675 26.052 C 180.678 25.127, 181.622 25.220, 183.435 26.809 C 184.571 27.804, 186.684 29.120, 188.130 29.733 C 190.832 30.878, 194 37.832, 194 42.619 C 194 43.864, 194.450 45.160, 195 45.500 C 195.550 45.840, 196 47.351, 196 48.859 C 196 50.367, 196.406 52.027, 196.903 52.550 C 197.400 53.072, 198.054 55.525, 198.357 58 C 198.661 60.475, 199.356 65.650, 199.903 69.500 C 200.450 73.350, 200.920 80.692, 200.949 85.816 C 200.977 90.939, 201.399 95.889, 201.887 96.816 C 202.375 97.742, 203.097 107.950, 203.492 119.500 C 203.887 131.050, 204.363 140.755, 204.551 141.067 C 204.739 141.379, 205.175 153.304, 205.520 167.567 C 205.866 181.830, 206.373 200.475, 206.646 209 C 207.672 240.958, 206.945 256.971, 204.369 259.108 C 203.616 259.733, 203 261.020, 203 261.967 C 203 262.915, 202.138 264.470, 201.085 265.423 C 199.266 267.069, 199.025 267.066, 196.335 265.372 C 194.776 264.391, 192.022 262.331, 190.215 260.794 C 188.409 259.257, 186.337 258, 185.611 258 C 184.886 258, 183.051 256.850, 181.535 255.445 C 178.337 252.481, 174.632 252.509, 174.234 255.500 C 174.054 256.859, 175.112 258.235, 177.535 259.792 C 179.496 261.053, 182.483 264.045, 184.172 266.442 C 186.269 269.417, 188.204 270.991, 190.272 271.404 C 191.938 271.738, 195.240 272.978, 197.609 274.162 C 204.169 277.438, 207.522 276.082, 211.623 268.498 C 216.344 259.767, 216.665 254.358, 215.481 203.500 C 214.612 166.164, 214.307 154.866, 213.547 132 C 213.227 122.375, 212.964 111.386, 212.964 107.580 C 212.964 103.775, 212.563 100.175, 212.073 99.580 C 211.235 98.562, 209.702 66.857, 210.076 58.250 C 210.166 56.172, 208.134 48.227, 206.882 45.764 C 206.397 44.809, 206 43.142, 206 42.061 C 206 40.979, 205.581 39.060, 205.069 37.797 C 204.557 36.534, 203.873 34.262, 203.550 32.748 C 203.226 31.234, 200.045 26.906, 196.482 23.128 C 190.917 17.229, 189.404 16.181, 185.752 15.694 C 183.413 15.382, 180.600 14.918, 179.500 14.663 C 178.400 14.407, 173.900 15.025, 169.500 16.036 M 147.989 40.250 C 146.899 42.038, 146.006 44.041, 146.004 44.703 C 145.997 47.018, 148.449 51.539, 152.209 56.139 C 154.294 58.690, 155.988 61.165, 155.974 61.639 C 155.960 62.112, 154.048 63.354, 151.724 64.397 C 149.401 65.440, 145.151 67.419, 142.280 68.794 C 137.977 70.856, 136.792 71.072, 135.530 70.025 C 134.689 69.327, 134 67.953, 134 66.972 C 134 64.143, 129.949 57.311, 127.492 55.995 C 125.801 55.091, 124.728 55.075, 123.125 55.933 C 120.432 57.374, 120.434 60.200, 123.133 65.775 C 124.306 68.198, 125.481 72.087, 125.743 74.416 L 126.221 78.650 120.860 81.224 C 114.682 84.191, 103.980 88, 101.822 88 C 99.628 88, 95.767 92.549, 96.168 94.661 C 97.026 99.176, 121.015 95.886, 127.079 90.423 C 129.722 88.041, 132 88.655, 132.004 91.750 C 132.006 93.263, 132.906 95.973, 134.004 97.774 C 135.102 99.575, 136 101.719, 136 102.538 C 136 103.357, 136.395 104.809, 136.878 105.764 C 139.009 109.979, 141 115.187, 141 116.547 C 141 117.361, 141.432 118.809, 141.960 119.764 C 142.839 121.355, 144.266 126.939, 145.720 134.482 C 146.036 136.123, 147.129 138.949, 148.148 140.763 C 151.301 146.378, 150.603 151.218, 145.500 159.106 C 143.025 162.932, 141 166.528, 141 167.098 C 141 167.667, 139.875 169.608, 138.500 171.411 C 137.125 173.214, 136 175.407, 136 176.285 C 136 177.163, 135.504 178.188, 134.898 178.563 C 134.292 178.938, 133.149 180.652, 132.357 182.372 C 131.566 184.092, 129.834 187.300, 128.508 189.500 C 127.182 191.700, 125.532 194.625, 124.843 196 C 123.742 198.195, 119.431 203.613, 107.937 217.243 C 103.979 221.937, 104.538 223.727, 109.960 223.727 C 113.442 223.727, 114.868 223.025, 119.085 219.234 C 121.834 216.762, 124.802 213.336, 125.680 211.620 C 126.559 209.904, 129.241 205.907, 131.640 202.737 C 134.039 199.568, 137.799 193.336, 139.995 188.889 C 142.191 184.442, 145.141 179.433, 146.549 177.759 C 147.958 176.085, 150.218 172.529, 151.572 169.857 C 152.926 167.186, 154.386 165, 154.817 165 C 156.299 165, 158 167.404, 158 169.500 C 158 170.655, 158.391 172.027, 158.869 172.550 C 159.822 173.593, 162.106 179.991, 164.026 187 C 164.704 189.475, 165.822 192.850, 166.509 194.500 C 167.197 196.150, 168.746 200.650, 169.952 204.500 C 171.158 208.350, 172.506 212.400, 172.948 213.500 C 173.389 214.600, 174.257 216.759, 174.875 218.297 C 177.896 225.811, 175.682 227.576, 158.500 231.351 C 147.946 233.669, 141.554 234.828, 130 236.516 C 124.225 237.360, 117.250 238.462, 114.500 238.966 C 111.750 239.469, 106.010 239.908, 101.743 239.940 C 92.415 240.012, 74.157 242.624, 72.318 244.151 C 70.525 245.639, 70.652 250.466, 72.525 252.021 C 73.763 253.049, 76.443 252.909, 86.775 251.277 C 93.774 250.171, 102.860 249.170, 106.968 249.052 C 111.075 248.934, 115.267 248.392, 116.285 247.848 C 117.302 247.303, 122.491 246.518, 127.817 246.104 C 133.143 245.689, 138.522 244.800, 139.771 244.128 C 141.020 243.457, 142.459 243.166, 142.969 243.481 C 144.163 244.219, 157.091 242.170, 158.471 241.024 C 159.048 240.545, 162.440 239.859, 166.010 239.498 C 169.974 239.098, 174.418 237.839, 177.428 236.262 L 182.356 233.682 185.428 237.341 C 188.868 241.439, 191.321 241.869, 195 239.020 C 197.135 237.367, 197.316 236.822, 196.244 235.292 C 194.437 232.715, 193.296 229.045, 190.940 218.232 C 190.309 215.335, 188.968 211.960, 187.961 210.732 C 186.154 208.529, 186.110 208.526, 184.673 210.462 C 183.434 212.131, 182.976 212.225, 181.608 211.090 C 180.724 210.356, 180 208.454, 180 206.864 C 180 205.274, 179.603 203.191, 179.117 202.236 C 176.797 197.677, 173.294 187.998, 171.972 182.500 C 170.699 177.203, 167.776 168.177, 163.471 156.255 L 160.854 149.011 162.833 144.755 C 168.555 132.448, 169.935 129.144, 170.928 125.366 C 171.525 123.093, 172.686 120.675, 173.507 119.994 C 174.328 119.313, 175 117.892, 175 116.838 C 175 115.783, 175.900 113.156, 177 111 C 178.100 108.844, 179 106.252, 179 105.240 C 179 104.228, 179.466 102.934, 180.035 102.365 C 180.965 101.435, 182.065 93.532, 182.382 85.500 C 182.487 82.836, 182.147 82.466, 179.349 82.194 C 176.366 81.904, 176.034 82.234, 173.137 88.366 C 171.453 91.929, 169.422 97.467, 168.622 100.672 C 165.890 111.626, 164.103 117.297, 163.051 118.349 C 162.473 118.927, 162 120.360, 162 121.533 C 162 122.707, 161.662 124.003, 161.250 124.415 C 160.838 124.827, 160.036 126.814, 159.468 128.832 C 158.756 131.363, 157.862 132.500, 156.585 132.500 C 155.064 132.500, 154.258 130.588, 152.072 121.788 C 150.608 115.897, 149.093 110.759, 148.705 110.372 C 148.317 109.984, 148 108.707, 148 107.533 C 148 106.360, 147.628 104.972, 147.174 104.450 C 146.720 103.927, 145.776 101.475, 145.078 99 C 144.379 96.525, 143.176 93.022, 142.404 91.216 C 140.165 85.979, 140.630 83.520, 144.404 80.641 C 146.276 79.213, 149.089 77.528, 150.654 76.898 C 159.705 73.250, 162 71.622, 162 68.845 C 162 67.544, 162.737 67, 164.500 67 C 166.618 67, 167 66.536, 167 63.965 C 167 60.656, 165.002 57.006, 160.884 52.792 C 159.429 51.303, 157.931 48.828, 157.556 47.292 C 156.772 44.083, 152.156 37, 150.849 37 C 150.366 37, 149.079 38.462, 147.989 40.250 M 63.790 51.058 C 61.252 52.537, 60.526 58.182, 62.362 62.153 C 64.417 66.595, 65.891 81.124, 64.984 88 C 64.585 91.025, 64.724 96.425, 65.293 100 C 66.335 106.550, 66.725 206.686, 65.746 216.500 C 65.471 219.250, 64.908 224.500, 64.494 228.166 C 63.460 237.324, 64.240 240, 67.946 240 C 72.292 240, 74.840 236.188, 74.816 229.720 C 74.805 226.849, 75.286 223.248, 75.885 221.719 C 76.912 219.097, 77.105 219.022, 79.247 220.426 C 81.785 222.089, 83.139 221.567, 84.885 218.250 C 85.537 217.012, 86.923 216, 87.964 216 C 89.738 216, 94.670 209.910, 96.266 205.750 C 96.635 204.787, 97.561 204, 98.324 204 C 99.086 204, 102.081 201.492, 104.980 198.428 C 107.878 195.363, 111.319 192.449, 112.625 191.952 C 113.944 191.451, 115 190.227, 115 189.199 C 115 188.181, 116.125 186.292, 117.500 185 C 118.875 183.708, 120 182.087, 120 181.398 C 120 180.709, 121.096 179.283, 122.437 178.229 C 127.670 174.112, 133.797 165.863, 134.203 162.388 C 134.697 158.153, 133.034 156.376, 130.064 157.966 C 128.929 158.573, 128 159.472, 128 159.963 C 128 160.453, 120.013 168.731, 110.250 178.358 C 100.487 187.985, 91.825 196.605, 91 197.513 C 84.042 205.174, 76.724 211.057, 75.577 209.911 C 74.305 208.638, 75.692 148.019, 77.026 146.617 C 78.239 145.342, 81 146.661, 81 148.517 C 81 149.385, 82.575 152.558, 84.500 155.567 C 86.425 158.577, 88 161.615, 88 162.319 C 88 163.024, 88.420 164.027, 88.933 164.550 C 89.446 165.072, 90.009 167.300, 90.183 169.500 C 90.464 173.050, 90.816 173.536, 93.310 173.822 C 94.856 173.999, 96.656 173.713, 97.310 173.185 C 97.965 172.658, 100.300 171.912, 102.500 171.528 C 108.496 170.482, 112.241 167.418, 119.472 157.644 C 126.005 148.812, 126.024 148.768, 126.482 141.005 L 126.941 133.222 122.306 129.611 C 117.154 125.597, 117.066 125.578, 110.262 127.037 C 106.325 127.882, 104.374 129.157, 99.763 133.899 C 94.679 139.127, 94.178 140.019, 94.866 142.612 C 96.066 147.135, 99.651 146.939, 105.209 142.048 C 107.738 139.821, 110.778 138, 111.965 138 C 113.969 138, 114.074 138.338, 113.434 142.750 C 112.559 148.783, 112.693 148.594, 107.709 150.836 C 105.394 151.877, 102.409 153.914, 101.076 155.364 C 99.742 156.814, 98.356 158, 97.994 158 C 96.884 158, 91 148.329, 91 146.505 C 91 143.306, 83.897 136.187, 78.946 134.423 C 76.489 133.547, 74.332 103.058, 75.203 81.500 C 75.315 78.750, 75.383 72.093, 75.356 66.706 C 75.308 56.978, 75.285 56.889, 71.958 53.456 C 68.489 49.877, 66.711 49.355, 63.790 51.058" stroke="none" fill="black" fill-rule="evenodd"/>
</svg>