<svg xmlns="http://www.w3.org/2000/svg" width="300" height="300" viewBox="0 0 300 300" version="1.1">
	<path d="M 148.683 8.064 C 146.033 9.140, 142.216 11.140, 140.200 12.510 C 138.185 13.879, 135.808 15, 134.918 15 C 134.028 15, 131.395 16.380, 129.068 18.066 C 126.740 19.752, 120.710 22.731, 115.667 24.686 C 110.625 26.640, 105.150 28.807, 103.500 29.501 C 101.850 30.194, 98.250 31.298, 95.500 31.952 C 92.750 32.606, 88.925 34, 87 35.048 C 85.075 36.097, 82.292 37.503, 80.815 38.172 C 77.676 39.595, 75.473 43.185, 76.344 45.455 C 77.339 48.046, 80.125 48.468, 83.418 46.528 C 85.113 45.530, 88.075 44.371, 90 43.954 C 94.853 42.903, 108.943 38.101, 112.154 36.403 C 113.614 35.631, 115.502 35, 116.349 35 C 118.008 35, 129.103 29.874, 137.980 25.005 C 140.994 23.352, 143.816 22, 144.252 22 C 144.687 22, 146.721 20.919, 148.771 19.597 C 155.153 15.485, 156.279 15.514, 160.679 19.914 C 162.856 22.092, 165.138 25.589, 165.749 27.687 C 166.361 29.784, 167.598 34.200, 168.498 37.500 C 169.399 40.800, 170.555 44.534, 171.068 45.797 C 171.580 47.060, 172 49.371, 172 50.933 C 172 52.494, 172.672 55.060, 173.494 56.636 C 175.230 59.964, 175.415 63.357, 174.004 65.993 C 173.339 67.236, 173.357 69.954, 174.058 74.177 C 175.045 80.117, 176.402 91.421, 177.640 104 C 179.115 119.001, 180.071 214.237, 178.829 222.500 C 178.250 226.350, 177.481 233.828, 177.120 239.119 C 176.404 249.603, 175.278 252.017, 171.128 251.971 C 168.644 251.943, 162 247.015, 162 245.201 C 162 244.746, 163.350 243.081, 165 241.500 C 169.077 237.594, 169.021 234.154, 164.867 233.323 C 163.007 232.951, 161.537 231.945, 161.250 230.848 C 160.527 228.082, 157.292 228.617, 155.797 231.750 C 154.244 235.006, 150.818 235.695, 144.323 234.060 C 140.978 233.218, 139.423 233.251, 137.724 234.204 C 136.501 234.889, 132.350 235.768, 128.500 236.158 C 122.270 236.789, 114.972 238.035, 94.500 241.963 C 88.645 243.086, 82.557 244.960, 76.500 247.503 C 74.850 248.196, 71.838 249.057, 69.806 249.416 C 67.405 249.841, 65.899 250.744, 65.501 251.997 C 63.869 257.140, 71.182 260.555, 77.291 257.502 C 79.056 256.620, 82.425 255.633, 84.777 255.309 C 87.130 254.986, 89.294 254.334, 89.586 253.860 C 89.879 253.387, 91.104 252.997, 92.309 252.994 C 93.514 252.990, 95.850 252.264, 97.500 251.380 C 99.150 250.495, 102.816 249.653, 105.648 249.508 C 108.479 249.363, 111.290 248.939, 111.894 248.565 C 113.090 247.826, 129.084 246.191, 143.665 245.318 C 152.719 244.776, 152.835 244.798, 153.165 247.131 C 153.391 248.720, 154.736 250.073, 157.282 251.269 C 159.362 252.246, 161.526 254.060, 162.091 255.300 C 162.826 256.914, 164.594 257.900, 168.309 258.769 C 171.364 259.484, 174.065 260.810, 174.872 261.992 C 175.627 263.096, 177.054 264, 178.045 264 C 179.708 264, 185.921 258.710, 186.062 257.173 C 186.096 256.803, 186.285 249.055, 186.481 239.956 C 186.677 230.856, 187.390 218.706, 188.065 212.956 C 188.961 205.319, 189.086 193.334, 188.530 168.500 C 188.111 149.800, 187.892 132.925, 188.044 131 C 188.438 126, 188.357 123.600, 187.117 103.500 C 186.507 93.600, 185.815 82.125, 185.581 78 C 185.018 68.073, 183.129 50.878, 182.030 45.668 C 180.790 39.793, 177.851 27.693, 177.374 26.500 C 177.154 25.950, 175.855 23.517, 174.487 21.093 C 173.119 18.669, 172 15.842, 172 14.811 C 172 13.781, 171.213 12.637, 170.250 12.269 C 169.287 11.902, 167.624 10.788, 166.554 9.793 C 164.498 7.884, 158.855 5.978, 155.500 6.060 C 154.400 6.087, 151.332 6.989, 148.683 8.064 M 54.998 38.506 C 54.453 39.938, 54.298 46.687, 54.636 54.256 C 54.961 61.540, 55.103 70.200, 54.952 73.500 C 54.801 76.800, 54.770 80.625, 54.883 82 C 55.751 92.534, 54.254 187.929, 53.102 195.500 C 52.600 198.800, 52.198 202.625, 52.209 204 C 52.249 208.985, 49.810 225.524, 48.868 226.658 C 48.242 227.414, 48.271 228.049, 48.951 228.470 C 49.528 228.826, 50 230.681, 50 232.591 C 50 234.501, 50.652 237.625, 51.449 239.532 C 52.707 242.544, 53.354 243, 56.366 243 L 59.833 243 59.217 231.750 C 58.300 215.014, 58.482 202.785, 59.830 190.500 C 60.494 184.450, 61.273 171.850, 61.562 162.500 C 61.851 153.150, 62.500 143.475, 63.005 141 C 64.777 132.308, 65.972 57.286, 64.515 46.091 C 63.628 39.266, 61.511 36, 57.975 36 C 56.734 36, 55.582 36.970, 54.998 38.506 M 114.751 45.250 C 110.657 49.237, 105.438 54.123, 103.154 56.107 C 100.153 58.713, 99 60.481, 99 62.479 C 99 64.824, 98.772 65.056, 97.500 64 C 96.675 63.315, 96 62.227, 96 61.581 C 96 60.064, 88.783 53, 87.234 53 C 86.583 53, 85.325 54.405, 84.437 56.121 C 82.337 60.182, 83.254 65.162, 86.972 69.900 C 88.526 71.880, 90.098 74.513, 90.466 75.750 C 90.834 76.987, 91.542 78, 92.039 78 C 92.537 78, 93.633 80.368, 94.474 83.262 C 95.923 88.246, 99.969 94, 102.025 94 C 102.545 94, 105.164 92.650, 107.846 91 C 111.194 88.940, 114.013 88, 116.845 88 C 119.936 88, 121.733 87.312, 124.023 85.250 C 126.654 82.881, 127.105 81.737, 127.277 77 C 127.387 73.975, 128.046 71.050, 128.740 70.500 C 131.207 68.547, 134 58.668, 134 51.898 L 134 45.268 129.336 41.634 C 126.771 39.635, 124.115 38, 123.434 38 C 122.753 38, 118.846 41.263, 114.751 45.250 M 119.879 53.820 C 118.987 54.194, 117.067 55.924, 115.611 57.665 C 114.156 59.406, 110.835 62.056, 108.232 63.554 C 100.122 68.222, 100.107 68.245, 101.874 74.001 C 102.717 76.751, 103.743 79, 104.154 79 C 105.744 79, 114.029 72.767, 115.849 70.202 C 118.937 65.850, 124 56.082, 124 54.477 C 124 52.919, 122.572 52.691, 119.879 53.820 M 123.500 96.733 C 119.171 97.817, 106.976 108.320, 104.699 112.926 C 103.165 116.030, 101.169 116.684, 100.408 114.333 C 98.785 109.320, 95.520 104, 94.065 104 C 93.174 104, 91.402 104.731, 90.127 105.624 C 87.686 107.333, 87.671 107.973, 89.871 116.518 C 91.270 121.949, 91.434 151.812, 90.113 160.500 C 87.542 177.412, 87.544 176.885, 90.040 179.542 C 92.840 182.523, 94.576 182.651, 96.232 180 C 97.930 177.281, 99.096 177.478, 102.193 181.007 C 104.541 183.683, 105.136 183.899, 107.589 182.966 C 114.856 180.203, 114.419 184.550, 106.181 196.949 C 100.432 205.604, 85.005 222, 82.612 222 C 81.896 222, 80.453 222.962, 79.405 224.138 C 78.357 225.314, 76.098 226.870, 74.384 227.595 C 72.501 228.393, 70.601 230.321, 69.582 232.468 C 67.883 236.048, 68.216 238.603, 70.219 237.364 C 70.814 236.997, 74.253 236.652, 77.862 236.598 L 84.425 236.500 87.278 232.250 C 88.848 229.912, 90.808 228, 91.634 228 C 93.315 228, 110.413 210.495, 113.187 205.934 C 114.731 203.395, 115.570 203, 119.426 203 C 121.877 203, 124.160 203.450, 124.500 204 C 124.840 204.550, 127.137 205, 129.604 205 C 133.057 205, 134.667 205.576, 136.591 207.500 C 138.037 208.947, 140.242 210, 141.823 210 C 143.326 210, 145.560 210.704, 146.788 211.564 C 148.016 212.424, 149.844 212.867, 150.849 212.548 C 152.803 211.928, 159.447 214.297, 160.491 215.985 C 160.836 216.543, 162.640 217, 164.500 217 C 166.360 217, 168.160 217.450, 168.500 218 C 169.433 219.510, 172.590 219.199, 174.037 217.456 C 174.984 216.315, 175.081 214.699, 174.409 211.273 C 173.516 206.718, 173.410 206.615, 168.500 205.503 C 165.750 204.881, 162.517 203.838, 161.316 203.186 C 160.114 202.534, 157.807 202, 156.188 202 C 154.569 202, 151.533 201.285, 149.442 200.411 C 147.350 199.537, 143.470 198.412, 140.820 197.911 C 138.169 197.410, 133.730 196.574, 130.955 196.053 C 123.571 194.667, 122 194.030, 122 192.419 C 122 190.954, 123.571 187.738, 125.625 185 C 126.244 184.175, 127.338 181.025, 128.058 178 C 128.777 174.975, 129.752 172.054, 130.224 171.508 C 131.638 169.876, 133.025 173.181, 132.388 176.665 C 131.908 179.291, 132.240 180.111, 134.344 181.490 C 136.750 183.066, 137.027 183.040, 139.843 180.958 C 142.042 179.332, 142.976 177.646, 143.458 174.431 C 144.541 167.210, 143.846 134.117, 142.590 133.074 C 141.971 132.561, 141.348 128.231, 141.189 123.325 C 140.948 115.935, 140.503 113.894, 138.451 110.771 C 137.103 108.721, 136 106.525, 136 105.892 C 136 104.385, 127.830 95.966, 126.515 96.116 C 125.957 96.180, 124.600 96.457, 123.500 96.733 M 122.500 110.727 C 121.400 110.999, 118.147 113.309, 115.271 115.861 C 112.395 118.412, 108.378 121.899, 106.343 123.609 C 103.089 126.344, 102.503 127.547, 101.474 133.609 C 100.760 137.811, 100.653 141.191, 101.198 142.271 C 101.690 143.245, 101.905 144.370, 101.675 144.771 C 101.446 145.172, 100.944 151.889, 100.561 159.698 L 99.865 173.896 103.682 173.320 C 109.565 172.432, 118.222 167.616, 119.267 164.649 C 119.432 164.181, 122.473 163.278, 126.025 162.643 L 132.483 161.487 133.335 156.137 C 133.901 152.580, 133.829 150.429, 133.120 149.720 C 132.040 148.640, 130.864 149.579, 120.694 159.656 C 118.343 161.986, 114.857 164.256, 112.759 164.823 C 109.269 165.766, 108.883 165.645, 107.009 163.013 C 105.904 161.461, 105 159.714, 105 159.130 C 105 156.994, 111.292 150.982, 114.352 150.195 C 116.330 149.686, 117.998 148.356, 118.841 146.617 C 120.550 143.089, 119.738 142.286, 116.566 144.365 C 113.350 146.472, 110.735 146.436, 108.161 144.250 C 105.573 142.053, 106.270 137.291, 109.381 135.911 C 114.252 133.749, 117.579 131.196, 118.805 128.679 C 119.621 127.003, 120.931 125.990, 122.305 125.973 C 123.512 125.958, 126.075 124.636, 128 123.035 C 130.806 120.701, 131.252 119.874, 130.250 118.862 C 129.563 118.168, 129 116.430, 129 115 C 129 112.275, 127.336 109.919, 125.550 110.116 C 124.972 110.180, 123.600 110.455, 122.500 110.727" stroke="none" fill="black" fill-rule="evenodd"/>
</svg>