<svg xmlns="http://www.w3.org/2000/svg" width="300" height="300" viewBox="0 0 300 300" version="1.1">
	<path d="M 133.250 3.220 C 132.012 3.817, 131 4.658, 131 5.088 C 131 6.923, 133.283 11.660, 135.105 13.605 C 136.839 15.457, 136.981 16.471, 136.288 22.058 L 135.500 28.406 131 30.109 C 128.525 31.046, 124.133 32.754, 121.239 33.906 C 118.346 35.058, 114.659 36, 113.046 36 C 107.438 36, 105.758 42.453, 110.383 46.228 C 112.966 48.336, 118.804 48.463, 121.441 46.468 C 122.509 45.661, 124.534 44.997, 125.941 44.994 C 127.349 44.990, 129.789 44.315, 131.364 43.494 C 132.940 42.672, 134.822 42, 135.546 42 C 136.271 42, 137.782 40.711, 138.904 39.135 C 140.391 37.047, 142.037 36.124, 144.983 35.729 C 147.766 35.356, 149.921 34.225, 151.913 32.094 C 153.502 30.392, 155.506 29, 156.366 29 C 157.227 29, 159.543 27.584, 161.514 25.854 C 164.780 22.986, 165.071 22.299, 164.799 18.104 C 164.506 13.587, 164.434 13.498, 161 13.405 C 158.663 13.341, 156.089 14.275, 153.252 16.215 C 148.850 19.227, 147 19.183, 147 16.067 C 147 13.486, 142.222 5.269, 139.689 3.495 C 137.224 1.768, 136.339 1.731, 133.250 3.220 M 162.798 52.578 C 160.762 54.048, 158.512 54.952, 157.798 54.586 C 157.084 54.221, 155.406 53.295, 154.069 52.529 C 151.974 51.327, 151.237 51.343, 148.723 52.643 C 146.720 53.679, 145.980 54.676, 146.360 55.826 C 146.664 56.747, 147.431 59.525, 148.064 62 C 148.697 64.475, 149.913 67.964, 150.766 69.753 C 152.022 72.385, 152.091 73.504, 151.130 75.615 C 150.199 77.657, 150.213 78.552, 151.195 79.735 C 151.885 80.567, 152.780 83.779, 153.183 86.874 C 154.486 96.874, 155.776 104.461, 156.460 106.136 C 156.947 107.333, 155.886 108.610, 152.513 110.886 C 145.724 115.468, 144.854 115.153, 145.341 108.286 C 145.831 101.389, 144.516 97, 141.961 97 C 138.982 97, 138.619 95.034, 141.109 92.384 C 143.194 90.164, 143.287 89.692, 142.025 87.708 C 137.622 80.781, 135.738 76.162, 135.775 72.385 C 135.811 68.719, 135.331 67.864, 131.379 64.561 C 127.739 61.519, 126.426 60.967, 124.056 61.488 C 120.397 62.291, 115.655 66.795, 113.011 71.979 C 111.882 74.191, 110.566 76, 110.085 76 C 109.605 76, 107.766 74.650, 106 73 C 103.926 71.063, 101.738 70, 99.823 70 C 96.694 70, 93.976 71.963, 94.036 74.179 C 94.088 76.082, 98.306 80.970, 101.097 82.361 C 102.409 83.015, 103.635 84.439, 103.821 85.525 C 104.007 86.611, 105.520 88.725, 107.184 90.223 C 110.271 93.001, 110.597 94.550, 109.456 101.020 C 108.628 105.713, 111.269 108.127, 117.930 108.767 C 122.784 109.234, 122.973 109.147, 127.690 104.254 C 132.358 99.412, 136.367 97.094, 137.277 98.709 C 137.523 99.144, 137.394 102.200, 136.991 105.500 C 136.589 108.800, 136.651 111.927, 137.130 112.450 C 137.608 112.972, 138 114.608, 138 116.085 C 138 118.934, 136.283 120.439, 128 124.848 C 125.525 126.166, 122.825 127.815, 122 128.514 C 121.175 129.213, 117.800 130.566, 114.500 131.520 C 111.200 132.475, 106.392 134.099, 103.815 135.128 C 101.238 136.158, 98.007 137, 96.636 137 C 93.958 137, 91 139.328, 91 141.437 C 91 142.148, 91.941 143.926, 93.090 145.388 C 95.022 147.844, 95.571 147.995, 100.340 147.390 C 104.962 146.803, 108.098 145.683, 114.500 142.332 C 120.857 139.005, 122.854 138.195, 126.150 137.603 C 128.157 137.242, 130.349 136.284, 131.022 135.474 C 131.695 134.663, 133.310 134, 134.611 134 C 136.412 134, 136.967 134.538, 136.933 136.250 C 136.909 137.488, 137.178 139.666, 137.531 141.091 C 138.110 143.432, 137.393 144.252, 130.097 149.591 C 125.656 152.841, 122.017 155.980, 122.011 156.566 C 121.998 157.814, 129.101 162, 131.231 162 C 132.034 162, 133.505 161.100, 134.500 160 C 136.733 157.533, 138.995 157.408, 139.014 159.750 C 139.021 160.713, 139.270 162.403, 139.567 163.506 C 140.940 168.616, 122.531 179.512, 108.262 182.036 C 103.984 182.792, 100.376 184.032, 99.439 185.067 C 97.993 186.665, 97.993 187.087, 99.445 189.895 C 101.471 193.811, 104.563 194.567, 110.419 192.579 C 112.977 191.711, 115.899 191, 116.913 191 C 117.926 191, 119.255 190.398, 119.866 189.662 C 121.034 188.254, 128.883 185.549, 129.630 186.297 C 130.015 186.681, 125.776 192.438, 121.620 197.174 C 120.812 198.095, 119.624 199.833, 118.980 201.037 C 118.336 202.240, 115.490 205.762, 112.655 208.862 C 109.820 211.963, 104.800 218.306, 101.500 222.957 C 98.200 227.609, 94.263 232.546, 92.750 233.930 C 91.237 235.313, 90 237.259, 90 238.254 C 90 239.249, 89.342 240.315, 88.538 240.624 C 87.734 240.932, 86.773 242.140, 86.402 243.308 C 86.032 244.476, 83.652 247.615, 81.114 250.285 C 76.638 254.993, 72 262.285, 72 264.612 C 72 266.177, 73.971 267.598, 77.216 268.373 C 79.730 268.973, 80.125 268.611, 82.538 263.510 C 83.972 260.480, 85.528 258, 85.996 258 C 87.944 258, 93.240 252.441, 94.651 248.915 C 95.486 246.827, 97.256 244.407, 98.585 243.536 C 99.913 242.666, 101 241.390, 101 240.700 C 101 238.392, 119.080 214.881, 120.500 215.342 C 121.761 215.752, 122.110 244.598, 120.938 251.500 C 118.973 263.068, 117.927 282.746, 119.136 285.399 C 121.108 289.728, 129 288.598, 129 283.987 C 129 283.100, 130.390 281.052, 132.089 279.437 C 133.788 277.822, 135.871 275.174, 136.717 273.553 C 137.563 271.932, 140.448 267.971, 143.128 264.751 C 145.807 261.531, 148 258.057, 148 257.032 C 148 256.007, 149.800 253.742, 152 252 C 154.200 250.258, 156 248.251, 156 247.542 C 156 246.832, 158.025 244.289, 160.500 241.891 C 163.553 238.932, 165 236.697, 165 234.939 C 165 233.484, 166.072 231.341, 167.447 230.050 C 168.792 228.786, 170.030 226.795, 170.197 225.626 C 170.699 222.105, 174.924 222.396, 179.518 226.266 C 183.238 229.400, 191.802 234, 193.916 234 C 194.432 234, 196.125 235.489, 197.677 237.309 C 201.104 241.327, 209.730 248.556, 213.816 250.834 C 218.927 253.684, 234 265.436, 234 266.570 C 234 267.163, 239.029 271.664, 245.176 276.574 C 258.706 287.379, 263 291.565, 263 293.949 C 263 296.140, 264.611 297.512, 268.182 298.364 C 271.088 299.057, 271.391 298.607, 272.460 292 C 272.994 288.698, 272.596 288.075, 265.440 281 C 250.706 266.434, 241.133 258.178, 233.554 253.500 C 231.772 252.400, 227.881 249.368, 224.907 246.763 C 221.933 244.157, 216.407 239.311, 212.628 235.993 C 208.848 232.676, 202.928 228.380, 199.473 226.448 C 196.018 224.515, 192.642 222.274, 191.973 221.467 C 191.303 220.660, 189.994 220, 189.065 220 C 187.227 220, 182 215.056, 182 213.318 C 182 212.728, 182.621 211.730, 183.379 211.100 C 184.138 210.470, 185.010 208.700, 185.317 207.167 C 185.657 205.464, 186.883 203.919, 188.465 203.198 C 189.890 202.549, 191.337 201.226, 191.680 200.259 C 192.023 199.291, 192.850 197.825, 193.517 197 C 195.668 194.339, 196.134 187.805, 194.315 185.796 C 191.837 183.057, 188.452 183.623, 182.195 187.823 C 171.749 194.834, 159.378 201, 155.757 201 C 153.045 201, 152.076 201.537, 151.161 203.547 C 150.522 204.948, 150 206.708, 150 207.458 C 150 209.510, 155.601 213.811, 159.795 214.980 C 161.833 215.548, 164.625 216.887, 166 217.956 C 168.222 219.684, 168.327 220.045, 166.943 221.200 C 166.086 221.915, 164.231 224.300, 162.821 226.500 C 158.742 232.862, 154.062 237.249, 151.945 236.696 C 150.426 236.299, 149.804 237.160, 148.580 241.354 C 147.413 245.355, 145.515 248.128, 140.053 253.814 C 136.189 257.836, 132.600 261.886, 132.076 262.814 C 131.346 264.108, 130.848 264.227, 129.937 263.324 C 129.114 262.510, 128.960 260.203, 129.437 255.824 C 130.310 247.797, 130.341 242.214, 129.590 228.500 C 128.960 217.008, 128.101 215, 123.809 215 C 120.223 215, 122.173 211.349, 131.521 200.564 C 136.735 194.549, 141 189.092, 141 188.436 C 141 187.781, 140.325 186.685, 139.500 186 C 136.814 183.771, 137.759 181.163, 141.996 179.116 C 144.194 178.054, 146.799 177.396, 147.785 177.654 C 148.803 177.920, 150.386 177.231, 151.444 176.062 C 152.470 174.928, 154.284 174, 155.475 174 C 156.666 174, 159.152 172.650, 161 171 C 162.848 169.350, 164.983 168, 165.745 168 C 166.506 168, 168.265 166.650, 169.653 165 C 171.042 163.350, 173.005 162, 174.016 162 C 175.976 162, 180 157.590, 180 155.442 C 180 152.803, 174.887 148, 172.078 148 C 168.563 148, 167.819 147.207, 169.096 144.820 C 169.831 143.447, 169.701 141.467, 168.637 137.836 C 167.820 135.049, 167.402 132.116, 167.708 131.318 C 168.015 130.520, 168.318 126.430, 168.383 122.230 C 168.488 115.391, 168.717 114.536, 170.578 114.046 C 171.721 113.746, 174.558 111.860, 176.884 109.856 C 180.839 106.448, 181.056 105.995, 180.243 102.858 C 179.033 98.189, 174.970 96.740, 171.700 99.812 C 170.419 101.015, 168.388 102, 167.186 102 C 164.229 102, 164.231 97.794, 167.190 95.038 C 168.395 93.915, 170.338 91.085, 171.509 88.749 C 172.681 86.412, 174.819 83.926, 176.260 83.224 C 179.492 81.651, 180.605 78.500, 178.995 75.490 C 177.954 73.546, 178.115 72.764, 180.106 70.071 C 182.057 67.431, 182.237 66.609, 181.217 64.975 C 180.547 63.904, 179.998 61.784, 179.996 60.264 C 179.991 56.540, 176.489 51, 174.140 51 C 173.100 51, 170.956 50.753, 169.375 50.452 C 167.259 50.049, 165.523 50.610, 162.798 52.578 M 166.462 62.062 C 166.101 62.646, 164.775 63.515, 163.514 63.995 C 158.748 65.807, 160.061 78, 165.023 78 C 166.499 78, 167 77.323, 167 75.329 C 167 73.860, 167.719 71.863, 168.598 70.891 C 169.798 69.566, 170.025 68.110, 169.511 65.062 C 168.834 61.057, 167.745 59.985, 166.462 62.062 M 119.846 79.288 C 116.713 82.042, 116.265 82.959, 116.705 85.718 C 117.287 89.370, 119.134 91.321, 121.548 90.833 C 124.698 90.196, 127.781 75.946, 124.750 76.038 C 124.063 76.058, 121.856 77.521, 119.846 79.288 M 51.782 95.750 C 49.600 98.249, 48.955 103.505, 49.911 111 C 50.864 118.467, 50.095 120.688, 46.221 121.657 C 44.725 122.032, 41.700 123.112, 39.500 124.058 C 37.300 125.004, 33.354 126.082, 30.731 126.453 C 23.267 127.510, 21.119 132.534, 26.295 136.830 C 27.338 137.696, 28.961 137.719, 32.600 136.922 C 35.295 136.332, 38.967 135.608, 40.759 135.314 C 42.552 135.020, 44.266 134.379, 44.568 133.890 C 44.871 133.400, 46.554 133.004, 48.309 133.008 C 53.048 133.019, 54 136.008, 54 150.878 C 54 169.844, 51.599 175.973, 42.390 180.512 C 33.781 184.754, 33 185.579, 33 190.422 C 33 195.570, 34.330 197, 39.116 197 C 42.137 197, 43.735 196.159, 47.664 192.500 C 50.321 190.025, 53.229 188, 54.125 188 C 55.022 188, 56.315 187.325, 57 186.500 C 57.685 185.675, 58.754 185, 59.377 185 C 60.428 185, 71.147 177.401, 78.798 171.232 C 82.721 168.068, 86.210 160.734, 85.796 156.519 C 85.545 153.957, 85.123 153.542, 83.010 153.781 C 81.640 153.935, 79.390 155.203, 78.010 156.598 C 73.362 161.294, 65.550 167, 63.768 167 C 62.376 167, 62 166.161, 62 163.059 C 62 160.891, 62.393 158.875, 62.874 158.578 C 63.844 157.978, 63.583 140.333, 62.487 132.461 C 61.700 126.806, 62.245 125.986, 68.027 124.126 C 76.981 121.247, 82.555 112.475, 77.771 108.792 C 74.470 106.252, 73.353 106.544, 69.039 111.080 C 63.733 116.657, 60.776 116.311, 59.813 110 C 59.435 107.525, 59.374 103.583, 59.678 101.241 C 60.306 96.390, 58.938 94, 55.533 94 C 54.310 94, 52.622 94.787, 51.782 95.750 M 150.370 124.576 C 148.051 125.730, 147.099 127.004, 146.695 129.494 C 145.969 133.967, 146.808 136.804, 149.070 137.522 C 153.380 138.890, 157.440 133.315, 156.822 126.877 C 156.445 122.943, 154.819 122.363, 150.370 124.576 M 150.045 152.182 C 147.479 154.937, 147.568 160.307, 150.189 160.803 C 152.988 161.333, 156.161 157.323, 155.809 153.699 C 155.422 149.715, 152.950 149.064, 150.045 152.182 M 173.394 206.417 C 172.566 208.574, 173.717 211.261, 175.251 210.750 C 175.938 210.521, 176.500 209.283, 176.500 208 C 176.500 205.259, 174.273 204.124, 173.394 206.417" stroke="none" fill="black" fill-rule="evenodd"/>
</svg>