<svg xmlns="http://www.w3.org/2000/svg" width="300" height="300" viewBox="0 0 300 300" version="1.1">
	<path d="M 153 18.952 C 149.975 21.681, 147.007 23.933, 146.405 23.957 C 145.803 23.981, 144.511 24.883, 143.534 25.962 C 142.557 27.042, 138.859 29.281, 135.315 30.940 C 131.772 32.598, 127.660 34.818, 126.177 35.874 C 124.695 36.930, 121.686 38.279, 119.491 38.872 C 117.296 39.465, 113.813 41.345, 111.750 43.048 C 108.798 45.486, 108 46.849, 108 49.450 C 108 54.569, 110.201 55.772, 115.849 53.740 C 119.496 52.429, 120.757 52.331, 121.704 53.284 C 122.541 54.128, 123.075 61.517, 123.449 77.458 C 123.745 90.085, 124.256 101.846, 124.583 103.593 C 124.936 105.471, 124.727 107.051, 124.072 107.455 C 123.380 107.883, 123.003 111.581, 123.066 117.320 C 123.222 131.505, 121.961 157.160, 120.944 160.500 C 119.592 164.941, 119.453 178.853, 120.748 180.148 C 121.547 180.947, 122.710 180.948, 124.992 180.153 C 126.721 179.550, 130.098 179.326, 132.496 179.654 C 136.448 180.196, 137.269 179.913, 141.281 176.626 C 143.715 174.632, 146.152 173, 146.698 173 C 147.244 173, 148.505 172.100, 149.500 171 C 150.495 169.900, 151.860 169, 152.533 169 C 153.205 169, 154.308 168.334, 154.983 167.521 C 156.247 165.997, 157.286 165.376, 167.500 160.037 C 170.800 158.312, 175.075 155.380, 177 153.521 C 180.107 150.520, 181.286 150.075, 187.500 149.561 C 197.972 148.695, 200.807 150.519, 205.371 161.058 C 206.991 164.799, 206.741 174.921, 204.910 179.737 C 204.410 181.053, 204 183.361, 204 184.865 C 204 186.369, 203.580 188.028, 203.067 188.550 C 202.554 189.073, 201.991 191.254, 201.817 193.399 C 201.618 195.849, 200.823 197.707, 199.679 198.399 C 198.152 199.322, 197.345 198.903, 194.679 195.803 C 192.931 193.770, 189.751 190.733, 187.612 189.053 C 181.539 184.283, 174.006 185.276, 176.021 190.582 C 176.834 192.725, 182.502 198, 183.990 198 C 184.450 198, 187.116 200.739, 189.913 204.087 C 195.302 210.537, 196.230 213.991, 193.532 217.559 C 192.724 218.626, 192.043 220.400, 192.017 221.500 C 191.952 224.254, 188.700 232.596, 183.050 244.500 C 182.006 246.700, 180.834 249.625, 180.445 251 C 179.338 254.911, 176.049 259, 174.008 259 C 172.987 259, 171.105 257.600, 169.826 255.889 C 163.036 246.807, 149.338 237.262, 146.774 239.826 C 145.064 241.536, 147.628 246.046, 151.318 247.820 C 152.829 248.546, 155.287 251.021, 156.782 253.320 C 158.277 255.619, 160.513 258.320, 161.750 259.323 C 162.988 260.325, 164 261.787, 164 262.573 C 164 263.358, 164.387 264, 164.859 264 C 165.332 264, 167.763 265.800, 170.263 268 C 172.762 270.200, 175.455 272, 176.246 272 C 177.989 272, 188 260.389, 188 258.368 C 188 257.110, 191.258 250.336, 193.949 246 C 196.865 241.300, 202.315 228.093, 202.400 225.516 C 202.476 223.230, 203.021 222.426, 204.651 222.193 C 206.787 221.889, 208.917 225.459, 214.678 239 C 215.496 240.925, 216.582 243.175, 217.090 244 C 217.597 244.825, 218.275 246.175, 218.595 247 C 218.915 247.825, 220.262 250.756, 221.588 253.514 C 222.915 256.272, 224 259.283, 224 260.205 C 224 261.127, 224.450 262.160, 225 262.500 C 225.550 262.840, 226 264.190, 226 265.500 C 226 266.810, 226.391 268.124, 226.869 268.419 C 227.346 268.714, 228.041 270.856, 228.413 273.178 C 228.784 275.501, 229.615 278.036, 230.260 278.813 C 231.018 279.727, 231.352 283.710, 231.207 290.112 L 230.982 300 238.026 300 L 245.069 300 244.401 294.750 C 244.034 291.863, 243.401 289.050, 242.993 288.500 C 242.586 287.950, 241.928 285.250, 241.533 282.500 C 241.137 279.750, 240.457 277.050, 240.022 276.500 C 239.587 275.950, 238.897 273.940, 238.488 272.033 C 238.080 270.126, 237.283 267.651, 236.717 266.533 C 234.329 261.816, 233.998 260.941, 233.968 259.264 C 233.951 258.294, 233.276 256.626, 232.468 255.559 C 231.661 254.491, 231 252.409, 231 250.931 C 231 249.454, 230.325 247.685, 229.500 247 C 228.675 246.315, 228 245.049, 228 244.186 C 228 241.117, 217.783 221.812, 213.190 216.202 C 209.259 211.402, 208.533 209.856, 208.602 206.426 C 208.688 202.131, 212.604 193.089, 214.732 192.273 C 215.466 191.991, 215.758 190.885, 215.436 189.603 C 215.134 188.399, 215.557 184.201, 216.376 180.274 C 217.687 173.983, 217.691 172.024, 216.405 163.817 C 214.501 151.670, 213.529 149.410, 207.830 143.873 C 202.152 138.356, 199.925 137.616, 189.738 137.860 C 181.829 138.048, 177.610 139.490, 170.521 144.426 C 168.882 145.567, 166.792 146.950, 165.875 147.500 C 164.958 148.050, 161.752 150.188, 158.751 152.250 C 155.749 154.313, 152.590 156, 151.730 156 C 150.870 156, 150.017 156.366, 149.833 156.813 C 149.310 158.088, 137.816 166.362, 134.647 167.745 C 131.318 169.198, 129.544 168.495, 130.620 166.149 C 131.036 165.242, 131.404 159.775, 131.438 154 C 131.495 144.268, 131.643 143.500, 133.455 143.500 C 134.715 143.500, 135.619 144.387, 135.999 145.995 C 136.804 149.407, 139.445 149.646, 142.508 146.583 C 143.913 145.178, 147.411 143.039, 150.281 141.829 C 153.151 140.619, 156.573 138.812, 157.885 137.814 C 159.197 136.816, 161.323 136, 162.611 136 C 165.083 136, 174.854 127.316, 176.894 123.307 C 179.265 118.646, 173.227 112.877, 169.095 115.855 C 168.218 116.487, 166.416 117.470, 165.092 118.038 C 163.767 118.606, 161.160 120.408, 159.298 122.043 C 157.437 123.678, 153.137 126.416, 149.744 128.129 C 146.351 129.842, 142.365 132.538, 140.886 134.122 C 137.869 137.352, 134.392 137.893, 133.631 135.250 C 132.697 132.005, 132.588 124.524, 133.422 121 C 134.357 117.052, 135.462 116.037, 138.849 116.015 C 140.141 116.007, 142.391 114.726, 143.849 113.168 C 145.307 111.611, 147.732 110.028, 149.237 109.652 C 150.743 109.276, 152.736 107.738, 153.667 106.234 C 155.972 102.512, 157.970 101, 160.584 101 C 161.795 101, 163.059 100.288, 163.393 99.418 C 164.510 96.507, 164.016 91.258, 162.507 90.006 C 160.441 88.291, 161.550 82.059, 165.132 75.249 C 168.470 68.904, 169.742 61.195, 168.100 57.264 C 167.465 55.744, 165.329 53.448, 163.352 52.162 L 159.759 49.823 153.416 53.043 C 149.927 54.814, 146.311 57.103, 145.381 58.131 C 144.451 59.159, 143.137 60, 142.460 60 C 141.784 60, 140.475 61.153, 139.552 62.561 C 137.417 65.820, 133.864 65.520, 132.891 62 C 132.510 60.625, 132.155 56.891, 132.100 53.702 C 132.013 48.649, 132.340 47.589, 134.646 45.452 C 136.369 43.855, 138.470 43, 140.671 43 C 143.253 43, 144.252 42.470, 144.910 40.750 C 146.125 37.572, 148.958 35.338, 152.809 34.519 C 157.636 33.492, 163 27.763, 163 23.633 C 163 21.818, 162.662 19.993, 162.250 19.576 C 161.838 19.160, 161.500 17.856, 161.500 16.678 C 161.500 13.040, 158.734 13.780, 153 18.952 M 147.613 70.358 C 145.475 71.536, 142.550 73.509, 141.113 74.742 C 139.676 75.975, 137.549 77.809, 136.387 78.818 C 133.693 81.155, 132.331 90.437, 134.109 94.339 C 135.053 96.411, 135.056 97.582, 134.123 99.629 C 132.679 102.799, 133.140 103.433, 136.312 102.636 C 137.836 102.254, 140.099 99.829, 142.490 96.016 C 144.564 92.707, 146.702 90, 147.239 90 C 147.783 90, 147.938 88.889, 147.588 87.496 C 146.973 85.046, 148.923 80.772, 151.691 78.500 C 153.180 77.279, 155 72.567, 155 69.935 C 155 67.449, 152.649 67.584, 147.613 70.358 M 62.211 112.975 C 59.995 114.823, 59.932 115.336, 60.211 129.107 L 60.500 143.331 57.690 144.269 C 56.145 144.785, 53.716 146.285, 52.294 147.603 C 50.872 148.921, 49.153 150, 48.475 150 C 47.797 150, 44.712 151.158, 41.621 152.573 C 36.466 154.933, 36 155.417, 36 158.413 C 36 164.492, 43.525 165.761, 51 160.941 C 56.809 157.196, 60.043 155.803, 61.569 156.388 C 62.242 156.646, 63.087 159.027, 63.446 161.679 C 64.227 167.452, 62.527 183.661, 60.938 185.575 C 60.318 186.322, 60.016 187.510, 60.267 188.216 C 61.001 190.278, 57.833 197.236, 55.055 199.668 C 53.650 200.898, 51.150 202.201, 49.500 202.563 C 42.551 204.090, 41.011 209.377, 45.944 214.777 C 47.563 216.550, 49.372 218, 49.964 218 C 51.521 218, 58.177 213.620, 60.405 211.130 C 61.453 209.958, 62.845 209, 63.500 209 C 64.155 209, 65.494 208.111, 66.477 207.026 C 67.460 205.940, 69.217 204.751, 70.382 204.384 C 71.547 204.018, 74.683 201.759, 77.352 199.365 C 80.020 196.971, 83.385 194.446, 84.828 193.754 C 88.653 191.920, 89.718 188.033, 87.612 183.596 C 86.674 181.618, 85.209 180, 84.357 180 C 83.504 180, 80.743 181.817, 78.220 184.038 C 75.697 186.259, 72.933 187.941, 72.078 187.776 C 69.902 187.357, 69.520 184.188, 71.396 182.115 C 72.527 180.866, 73.108 177.476, 73.472 170.013 C 73.750 164.312, 74.219 158.886, 74.514 157.956 C 74.809 157.025, 74.591 155.054, 74.029 153.576 C 72.714 150.118, 74.181 147.261, 80.937 140.123 C 86.298 134.458, 87.953 130.742, 86.295 128.095 C 84.253 124.835, 81.149 125.642, 76.661 130.599 C 70.894 136.969, 69.860 136.116, 70.487 125.505 C 70.954 117.606, 70.836 116.958, 68.402 114.066 C 65.394 110.492, 65.225 110.462, 62.211 112.975 M 143.200 192.200 C 140.458 194.942, 143.053 202, 146.803 202 C 147.433 202, 148.625 203.307, 149.451 204.905 C 150.277 206.503, 151.529 208.416, 152.232 209.155 C 152.936 209.895, 154.542 212.540, 155.801 215.032 C 158.557 220.489, 165.651 229, 167.443 229 C 168.151 229, 169.936 228.052, 171.410 226.892 C 173.937 224.904, 174.001 224.651, 172.545 222.428 C 171.695 221.131, 171 219.395, 171 218.570 C 171 217.745, 169.648 215.530, 167.995 213.648 C 166.343 211.765, 164.302 208.273, 163.460 205.887 C 161.286 199.724, 152.010 191, 147.632 191 C 145.854 191, 143.860 191.540, 143.200 192.200 M 113.172 206.097 C 112.026 207.932, 112.193 208.672, 114.515 212.022 C 115.975 214.128, 117.806 216.095, 118.584 216.394 C 119.363 216.693, 120 217.532, 120 218.260 C 120 218.987, 121.800 221.237, 124 223.260 C 126.200 225.283, 128 227.616, 128 228.446 C 128 231.021, 132.353 233.196, 135.279 232.084 C 139.555 230.458, 139.654 227.466, 135.580 222.957 C 133.611 220.777, 132 218.429, 132 217.738 C 132 217.047, 131.100 215.919, 130 215.232 C 128.900 214.545, 127.996 213.424, 127.991 212.742 C 127.987 212.059, 126.383 209.813, 124.428 207.750 C 120.216 203.306, 115.360 202.592, 113.172 206.097 M 81.578 225.266 C 79.421 226.495, 77.485 228.020, 77.276 228.656 C 76.704 230.397, 82.927 237, 85.140 237 C 86.203 237, 88.968 239.097, 91.286 241.661 C 93.604 244.224, 97.015 247.921, 98.866 249.876 L 102.232 253.432 104.116 251.105 C 106.611 248.024, 106.554 242.812, 104 240.500 C 102.900 239.505, 102 238.221, 102 237.649 C 102 236.267, 88.045 222.995, 86.615 223.016 C 86.002 223.025, 83.735 224.038, 81.578 225.266" stroke="none" fill="black" fill-rule="evenodd"/>
</svg>