<svg xmlns="http://www.w3.org/2000/svg" width="300" height="300" viewBox="0 0 300 300" version="1.1">
	<path d="M 112.039 27.189 C 109.002 30.448, 109.530 33.295, 114 37.765 C 117.390 41.154, 118 42.402, 118 45.941 C 118 52.210, 115.967 64.136, 114.368 67.241 C 113.592 68.749, 113.227 71.056, 113.556 72.368 C 114.060 74.374, 113.418 75.251, 109.527 77.877 C 106.982 79.595, 103.852 81, 102.572 81 C 101.292 81, 99.627 81.748, 98.872 82.662 C 96.740 85.243, 87.972 88.735, 81.632 89.527 C 76.498 90.168, 75.634 90.005, 73.484 87.985 C 71.287 85.921, 70.793 85.838, 67.789 87.024 C 63.571 88.691, 60 91.889, 60 94 C 60 94.908, 61.166 96.742, 62.591 98.076 C 64.991 100.322, 65.848 100.481, 74.252 100.241 C 83.329 99.982, 87.702 99.014, 98 94.984 C 101.025 93.800, 104.400 92.583, 105.500 92.280 C 106.600 91.977, 108.625 90.715, 110 89.476 C 111.375 88.238, 115.259 85.806, 118.630 84.073 C 122.002 82.340, 125.559 80.039, 126.535 78.961 C 127.511 77.882, 129.173 77, 130.229 77 C 131.284 77, 135.007 74.638, 138.501 71.750 C 141.996 68.862, 146.013 65.691, 147.427 64.703 C 150.541 62.529, 150.751 59.183, 147.961 56.189 C 145.248 53.277, 143.724 53.426, 139.653 57 C 137.774 58.650, 135.905 60, 135.500 60 C 135.095 60, 133.226 61.350, 131.347 63 C 129.468 64.650, 126.821 66, 125.465 66 C 122.425 66, 122.426 65.935, 125.500 61.405 C 130.719 53.714, 127.932 36.050, 120.191 27.750 C 117.094 24.430, 114.759 24.269, 112.039 27.189 M 101.073 98.635 C 99.410 100.748, 98.984 102.776, 98.918 108.885 C 98.873 113.073, 98.706 120.015, 98.547 124.311 C 98.278 131.583, 98.421 132.230, 100.627 133.675 C 102.347 134.802, 104.207 135.046, 107.410 134.566 C 111.391 133.969, 113.536 133.070, 123.088 127.993 C 124.648 127.163, 126.504 125.714, 127.212 124.771 C 128.475 123.090, 134.429 119.436, 140.629 116.537 C 148.802 112.716, 143.845 105.685, 134.243 107.479 C 132.185 107.864, 130.050 108.513, 129.500 108.922 C 128.950 109.330, 126.925 110.273, 125 111.017 C 123.075 111.761, 118.997 114.312, 115.938 116.685 C 112.879 119.058, 109.867 121, 109.245 121 C 108.087 121, 108.378 105.815, 109.572 103.883 C 109.886 103.376, 109.625 101.395, 108.994 99.480 C 107.554 95.118, 104.127 94.752, 101.073 98.635 M 110.243 143.029 C 108.714 144.814, 107.214 149.979, 104.005 164.500 C 103.519 166.700, 102.844 170.975, 102.504 174 C 101.707 181.098, 100.325 182.871, 95.421 183.087 C 93.264 183.182, 87.900 183.875, 83.500 184.628 C 79.100 185.380, 68.525 187.180, 60 188.627 C 51.475 190.074, 42.475 191.616, 40 192.054 C 37.525 192.492, 33.491 193.181, 31.035 193.586 C 24.338 194.689, 20 197.594, 20 200.976 C 20 202.505, 20.563 204.208, 21.250 204.762 C 23.146 206.290, 28.731 207.245, 29.403 206.156 C 30.992 203.586, 47.903 200.096, 67 198.399 C 70.025 198.131, 73.400 197.512, 74.500 197.025 C 78.378 195.308, 83.568 194.079, 89.750 193.414 L 96 192.742 96 197.812 C 96 200.600, 95.550 203.160, 95 203.500 C 94.450 203.840, 94 205.415, 94 207 C 94 208.585, 93.550 210.160, 93 210.500 C 92.450 210.840, 92 213.098, 92 215.519 C 92 220.897, 95.947 225.446, 99.795 224.502 C 102.356 223.874, 108 226.724, 108 228.646 C 108 229.314, 105.919 231.579, 103.375 233.680 C 100.831 235.781, 96.178 239.863, 93.035 242.750 C 89.891 245.637, 86.867 248, 86.315 248 C 85.762 248, 82.644 249.723, 79.385 251.829 C 72.097 256.540, 66.652 258.560, 57.250 260.040 C 53.263 260.667, 50 261.506, 50 261.903 C 50 262.301, 51.320 263.890, 52.933 265.436 C 55.379 267.779, 56.419 268.139, 59.183 267.598 C 61.008 267.242, 64.768 266.799, 67.539 266.615 C 70.310 266.431, 73.460 265.805, 74.539 265.224 C 75.618 264.643, 78.300 263.387, 80.500 262.433 C 82.700 261.479, 86.067 259.641, 87.982 258.349 C 89.897 257.057, 92.076 256, 92.824 256 C 95.318 256, 103.622 248.956, 116.691 235.754 L 122.882 229.500 127.825 231.250 C 130.544 232.213, 133.568 233, 134.546 233 C 136.901 233, 146.847 235.895, 150 237.498 C 151.375 238.197, 154.075 239.096, 156 239.496 C 157.925 239.896, 160.176 240.816, 161.002 241.542 C 161.828 242.267, 163.740 243.331, 165.252 243.906 C 166.920 244.540, 168 245.698, 168 246.853 C 168 247.899, 168.675 249.315, 169.500 250 C 170.325 250.685, 171 252.035, 171 253 C 171 253.965, 171.659 255.302, 172.465 255.971 C 173.643 256.949, 174.545 256.748, 177.078 254.944 C 179.981 252.877, 180.187 252.355, 179.725 248.253 C 179.325 244.705, 178.339 242.894, 174.862 239.319 C 172.463 236.853, 168.791 233.952, 166.701 232.872 C 164.612 231.793, 162.653 230.260, 162.348 229.466 C 161.675 227.711, 154.617 225.669, 152.047 226.485 C 151.023 226.810, 148.568 226.161, 146.566 225.037 C 144.571 223.917, 141.265 222.955, 139.220 222.900 C 133.936 222.759, 130.556 221.648, 130.228 219.946 C 130.073 219.140, 131.758 216.477, 133.973 214.030 C 136.188 211.583, 138 208.576, 138 207.349 C 138 206.122, 138.384 204.881, 138.852 204.591 C 139.321 204.302, 139.969 200.904, 140.293 197.041 C 141.186 186.388, 142.323 184.712, 149.513 183.453 C 152.806 182.876, 156.175 182.107, 157 181.744 C 157.825 181.382, 161.875 180.645, 166 180.108 C 170.125 179.571, 175.525 178.592, 178 177.933 C 180.475 177.274, 187.450 176.645, 193.500 176.535 C 208.854 176.257, 222.844 174.905, 223.863 173.600 C 224.336 172.995, 224.980 170.822, 225.295 168.771 C 225.783 165.592, 225.488 164.743, 223.299 163.021 C 220.615 160.909, 216.078 160.344, 214.450 161.919 C 213.484 162.853, 203.959 165.005, 198.500 165.522 C 185.226 166.779, 173.623 168.142, 169 168.986 C 161.541 170.348, 150.445 172.672, 145.105 173.990 C 141.158 174.965, 140.479 174.859, 138.452 172.955 C 135.452 170.136, 132.059 170.757, 130.005 174.500 C 128.268 177.663, 122.934 179.756, 116.189 179.920 L 112.877 180 113.530 175.250 C 113.889 172.637, 114.626 168.750, 115.168 166.610 C 115.709 164.471, 116.281 159.746, 116.438 156.110 C 116.595 152.475, 117.068 148.690, 117.488 147.699 C 118.018 146.453, 117.545 145.144, 115.952 143.449 C 113.158 140.475, 112.473 140.425, 110.243 143.029 M 118.710 188.469 C 114.425 189.135, 110.562 190.090, 110.124 190.590 C 109.687 191.091, 108.536 195.325, 107.568 200 C 106.600 204.675, 105.351 209.057, 104.792 209.737 C 103.176 211.706, 104.727 216, 107.054 216 C 108.163 216, 110.198 216.739, 111.576 217.642 C 113.583 218.957, 114.574 219.060, 116.552 218.158 C 119.749 216.702, 126.782 205.811, 127.549 201.130 C 127.876 199.134, 128.598 196.561, 129.154 195.412 C 130.555 192.517, 129.840 187.546, 128 187.388 C 127.175 187.317, 122.994 187.803, 118.710 188.469" stroke="none" fill="black" fill-rule="evenodd"/>
</svg>