<svg xmlns="http://www.w3.org/2000/svg" width="300" height="300" viewBox="0 0 300 300" version="1.1">
	<path d="M 120.637 47.506 C 118.530 49.613, 117.653 52.872, 118.810 54.298 C 122.605 58.977, 124.234 84.069, 121.564 96.720 C 120.726 100.691, 120.285 104.580, 120.585 105.361 C 120.885 106.142, 120.457 110.993, 119.635 116.141 C 118.813 121.288, 117.905 128.425, 117.617 132 C 117.328 135.575, 116.179 142.100, 115.062 146.500 C 113.945 150.900, 113.024 155.703, 113.015 157.173 C 113.007 158.644, 111.906 161.147, 110.569 162.736 C 108.375 165.343, 107.179 165.747, 98.319 166.870 C 89.119 168.036, 74.306 170.959, 67.500 172.950 C 65.850 173.433, 60.450 174.345, 55.500 174.978 C 50.550 175.611, 43.575 176.759, 40 177.530 C 36.425 178.301, 30.496 179.437, 26.824 180.056 C 22.521 180.780, 19.511 181.883, 18.357 183.158 C 16.719 184.968, 16.697 185.366, 18.098 187.818 C 19.479 190.237, 20.114 190.471, 24.565 190.208 C 27.279 190.047, 31.075 189.406, 33 188.783 C 34.925 188.161, 37.915 187.740, 39.644 187.850 C 41.373 187.959, 44.748 187.397, 47.144 186.601 C 49.540 185.806, 54.650 184.838, 58.500 184.452 C 62.350 184.065, 66.625 183.189, 68 182.506 C 69.375 181.822, 73.652 180.963, 77.504 180.595 C 81.357 180.228, 87.882 179.009, 92.004 177.886 C 96.127 176.763, 101.250 175.601, 103.388 175.304 C 107.184 174.776, 107.260 174.826, 106.609 177.420 C 105.695 181.062, 107.904 187.882, 110.426 189.208 C 111.567 189.807, 113.729 191.319, 115.231 192.568 C 116.732 193.816, 119.767 195.635, 121.973 196.608 C 127.097 198.869, 127.945 201.366, 124.769 204.844 C 123.435 206.305, 120.291 210.436, 117.782 214.025 C 112.798 221.154, 101.758 232.058, 94.869 236.656 C 92.466 238.260, 88.025 240.620, 85 241.900 C 81.975 243.180, 78.678 244.652, 77.674 245.170 C 76.669 245.688, 73.657 246.372, 70.980 246.689 C 66.034 247.275, 63.893 249.293, 65.991 251.391 C 67.547 252.947, 85.848 252.204, 89.404 250.440 C 91.001 249.648, 92.862 249, 93.539 249 C 98.212 249, 109.782 238.477, 124.326 221 C 132.246 211.482, 136.984 206.577, 138.113 206.723 C 139.059 206.846, 141.508 208.084, 143.556 209.473 C 145.604 210.863, 147.752 212, 148.329 212 C 150.561 212, 163.219 220.445, 163.977 222.440 C 164.417 223.596, 166.064 225.203, 167.638 226.010 C 171.540 228.010, 177.958 233.274, 177.991 234.500 C 178.034 236.112, 185.113 243.129, 186.297 242.734 C 186.892 242.536, 188.220 241.246, 189.250 239.867 C 190.877 237.688, 190.955 236.977, 189.850 234.430 C 188.072 230.333, 185.451 227.279, 177.647 220.207 C 171.032 214.212, 160.697 206.871, 154.302 203.625 C 152.543 202.733, 149.074 200.632, 146.593 198.958 L 142.082 195.914 144.037 192.707 C 145.113 190.943, 145.994 188.855, 145.996 188.066 C 146.002 185.789, 153.181 170.740, 156.121 166.841 C 157.610 164.865, 159.067 164.622, 174.121 163.830 C 183.129 163.357, 200.510 163.133, 212.744 163.333 C 237.011 163.730, 237.595 163.618, 240.506 157.989 C 241.328 156.400, 242 154.682, 242 154.171 C 242 152.608, 236.181 150.729, 233.258 151.348 C 230.559 151.919, 182.325 154.100, 166.500 154.366 L 158.500 154.500 158.431 148.778 C 158.381 144.731, 157.831 142.470, 156.549 141.054 C 153.847 138.068, 151.151 137.554, 148.897 139.593 C 147.277 141.059, 146.967 142.546, 147.108 148.162 C 147.292 155.445, 146.164 158, 142.764 158 C 141.669 158, 136.937 158.927, 132.248 160.061 C 127.559 161.195, 123.366 161.757, 122.931 161.311 C 121.919 160.274, 123.273 150.257, 125.473 142.500 C 127.336 135.931, 128.138 129.566, 130.513 102.500 C 132.572 79.028, 132.636 71.769, 130.897 58.593 C 129.685 49.415, 129.144 47.564, 127.479 46.914 C 124.362 45.696, 122.265 45.878, 120.637 47.506 M 133 168.912 C 130.525 169.266, 126.393 170.581, 123.817 171.835 C 117.852 174.737, 116.495 178.755, 120.153 182.688 C 121.444 184.076, 123.400 185.610, 124.500 186.097 C 125.600 186.584, 127.693 187.941, 129.150 189.112 C 130.608 190.283, 132.294 190.936, 132.897 190.563 C 133.501 190.190, 135.382 186.874, 137.077 183.193 C 138.772 179.512, 140.573 175.719, 141.080 174.764 C 141.586 173.809, 142 171.896, 142 170.514 C 142 167.772, 141.537 167.689, 133 168.912" stroke="none" fill="black" fill-rule="evenodd"/>
</svg>