<svg xmlns="http://www.w3.org/2000/svg" width="300" height="300" viewBox="0 0 300 300" version="1.1">
	<path d="M 148.590 70.451 C 147.314 73.141, 147.039 76.091, 147.344 83.832 C 147.559 89.293, 148.088 94.334, 148.521 95.033 C 148.953 95.733, 149.240 98.374, 149.159 100.902 C 149.077 103.431, 149.407 107.960, 149.891 110.968 C 150.374 113.975, 150.563 116.975, 150.310 117.633 C 150.058 118.292, 147.972 120.083, 145.675 121.613 C 139.676 125.610, 135.932 129.156, 134.896 131.823 C 133.717 134.858, 130.612 134.312, 130.165 130.990 C 129.981 129.620, 129.419 128.073, 128.915 127.550 C 128.412 127.028, 128 125.634, 128 124.454 C 128 121.897, 125.531 116.686, 123.534 115.028 C 122.751 114.378, 121.073 113.994, 119.805 114.173 C 117.801 114.458, 117.531 115.007, 117.735 118.380 C 117.864 120.513, 118.424 122.805, 118.978 123.473 C 119.532 124.141, 120.415 127.345, 120.940 130.593 C 121.465 133.842, 122.782 141.482, 123.867 147.570 C 125.558 157.061, 125.798 162.289, 125.547 184.220 L 125.255 209.799 122.627 213.244 C 117.365 220.144, 120.235 223.908, 129.264 221.950 C 132.144 221.325, 140.125 220.457, 147 220.020 C 153.875 219.584, 161.595 218.906, 164.155 218.514 C 167.162 218.054, 170.069 218.257, 172.369 219.089 C 175.307 220.151, 176.371 220.139, 178.459 219.022 C 180.537 217.910, 182.909 217.877, 191.705 218.838 C 204.285 220.211, 205.209 219.811, 204.332 213.370 C 203.783 209.341, 203.659 209.225, 199.245 208.620 C 196.757 208.279, 192.759 208, 190.360 208 L 186 208 186 202.559 C 186 199.566, 186.400 196.871, 186.890 196.568 C 187.891 195.950, 188.709 191.779, 189.858 181.444 C 190.289 177.564, 190.983 173.837, 191.399 173.163 C 192.577 171.258, 194.933 153.249, 194.968 145.886 C 194.986 142.249, 194.522 136.849, 193.937 133.886 C 193.353 130.924, 192.741 127.050, 192.579 125.278 C 192.234 121.520, 187.445 115.728, 181.370 111.723 C 176.794 108.706, 169.087 108.028, 163.098 110.116 C 161.338 110.729, 159.686 111.019, 159.427 110.761 C 159.169 110.502, 158.770 105.380, 158.543 99.379 C 158.315 93.378, 157.700 87.342, 157.177 85.966 C 156.601 84.450, 156.568 81.300, 157.094 77.981 C 157.646 74.495, 157.605 72.379, 156.981 72.167 C 156.442 71.983, 156 71.212, 156 70.452 C 156 69.100, 153.068 67, 151.180 67 C 150.656 67, 149.491 68.553, 148.590 70.451 M 66.454 69.688 C 65.109 71.034, 64.901 72.405, 65.429 76.438 C 67.175 89.781, 67.572 98.053, 66.751 104 C 66.258 107.575, 65.628 113.987, 65.351 118.250 C 65.074 122.513, 64.474 126, 64.016 126 C 63.559 126, 62.960 128.363, 62.685 131.250 C 61.993 138.514, 60.099 148.153, 58.954 150.236 C 58.429 151.191, 57.994 153.216, 57.986 154.736 C 57.956 160.855, 58.080 160.722, 39.500 174.602 C 36.200 177.068, 30.575 180.827, 27 182.957 C 23.425 185.087, 19.096 188.106, 17.381 189.665 C 14.074 192.670, 9.589 200.526, 10.416 201.865 C 10.687 202.303, 12.911 202.577, 15.359 202.475 C 19.720 202.294, 20.978 201.547, 30.959 193.213 C 35.940 189.055, 38.934 187, 40.011 187 C 40.683 187, 43.906 184.525, 47.173 181.500 C 50.441 178.475, 53.477 176, 53.921 176 C 54.365 176, 55.540 178.137, 56.532 180.750 C 57.525 183.363, 59.249 186.743, 60.365 188.262 C 62.172 190.722, 62.255 191.405, 61.130 194.516 C 57.479 204.614, 33.216 232.462, 23.232 238.015 C 18.414 240.694, 18.221 242.357, 22.676 242.802 C 26.462 243.181, 33.514 239.512, 40.541 233.510 C 43.444 231.029, 46.246 229, 46.769 229 C 48.356 229, 57.116 220.825, 57.989 218.530 C 59.098 215.613, 70.929 200, 72.030 200 C 74.582 200, 88.387 212.760, 102.275 227.956 C 104.352 230.228, 106.463 231.832, 106.968 231.520 C 107.472 231.208, 108.192 228.903, 108.568 226.397 C 109.211 222.110, 109.037 221.623, 105.625 218.128 C 103.631 216.086, 102 213.979, 102 213.445 C 102 212.911, 97.032 207.599, 90.960 201.641 C 84.889 195.683, 79.240 189.770, 78.408 188.501 C 76.777 186.011, 76.605 186.897, 82.091 169.500 C 83.131 166.200, 84.283 161.250, 84.651 158.500 C 85.018 155.750, 86.194 151.810, 87.264 149.743 C 89.340 145.733, 89.038 143, 86.518 143 C 85.668 143, 84.101 142.455, 83.035 141.790 C 81.666 140.935, 80.276 140.867, 78.299 141.558 C 75.960 142.376, 75.447 143.191, 75.176 146.518 C 74.840 150.648, 72.676 154, 70.345 154 C 68.711 154, 68.556 148.981, 70.037 143.993 C 70.608 142.072, 71.927 134.875, 72.970 128 C 74.012 121.125, 75.324 113.700, 75.885 111.500 C 77.415 105.500, 76.320 79.870, 74.314 74.701 C 71.558 67.601, 69.716 66.426, 66.454 69.688 M 164.250 119.973 L 160 121.902 160.051 128.701 C 160.113 136.906, 161.350 148.683, 162.243 149.576 C 163.006 150.339, 178.838 140.807, 182.603 137.317 C 184.549 135.513, 185.031 134.346, 184.510 132.701 C 184.127 131.491, 183.580 129.270, 183.295 127.766 C 183.011 126.262, 181.026 123.450, 178.886 121.516 C 174.334 117.404, 170.744 117.025, 164.250 119.973 M 143.500 135.274 C 141.300 137.038, 138.912 139.272, 138.193 140.240 C 137.475 141.208, 135.999 142, 134.913 142 C 133.126 142, 132.982 142.543, 133.384 147.750 C 134.120 157.284, 134.987 160, 137.296 160 C 138.422 160, 140.065 159.346, 140.948 158.547 C 141.830 157.749, 144.325 156.511, 146.491 155.797 C 149.854 154.690, 150.561 153.944, 151.327 150.695 C 151.821 148.602, 151.911 143.540, 151.527 139.445 C 150.711 130.732, 149.773 130.245, 143.500 135.274 M 180.500 151.719 C 179.400 151.987, 177.825 152.776, 177 153.473 C 175.591 154.662, 173.425 155.336, 166.693 156.682 C 162.361 157.549, 161.051 160.522, 161.032 169.537 C 161.016 176.685, 160.096 187.147, 158.350 200 C 157.077 209.376, 157.118 209.518, 161 209.333 C 170.765 208.868, 173.327 208.408, 174.020 207 C 176.274 202.416, 178 197.717, 178 196.166 C 178 195.195, 178.385 193.972, 178.856 193.450 C 179.327 192.927, 180.265 187.100, 180.939 180.500 C 181.613 173.900, 182.602 167.414, 183.135 166.087 C 183.669 164.760, 184.372 160.822, 184.697 157.337 C 185.322 150.644, 185.260 150.560, 180.500 151.719 M 68.452 163.646 C 66.384 165.878, 66 167.287, 66 172.646 C 66 178.159, 66.245 179, 67.848 179 C 70.060 179, 73 170.945, 73 164.885 C 73 160.326, 71.825 160.006, 68.452 163.646 M 147.517 164.973 C 147.186 165.509, 145.472 166.651, 143.708 167.511 C 141.943 168.372, 139.152 170.176, 137.505 171.521 L 134.511 173.965 134.505 190.828 C 134.501 203.655, 134.828 208.086, 135.872 209.345 C 137.509 211.319, 145.959 211.641, 147.800 209.800 C 148.460 209.140, 149 206.242, 149 203.359 C 149 200.476, 149.469 197.828, 150.041 197.474 C 150.614 197.120, 151.011 194.506, 150.924 191.665 C 150.751 186.066, 151.822 170.276, 152.512 168.250 C 153.595 165.068, 149.228 162.204, 147.517 164.973" stroke="none" fill="black" fill-rule="evenodd"/>
</svg>