<svg xmlns="http://www.w3.org/2000/svg" width="300" height="300" viewBox="0 0 300 300" version="1.1">
	<path d="M 135.297 20.562 C 134.309 21.972, 132.488 24.399, 131.250 25.957 C 130.012 27.514, 129 29.133, 129 29.553 C 129 30.314, 122.392 39.375, 119.838 42.118 C 117.919 44.178, 114 49.812, 114 50.511 C 114 50.837, 109.276 55.897, 103.503 61.755 C 97.729 67.613, 93.342 72.722, 93.753 73.109 C 94.164 73.495, 96.300 73.513, 98.500 73.147 C 101.300 72.682, 102.796 71.810, 103.487 70.241 C 104.030 69.009, 104.797 68, 105.192 68 C 105.587 68, 108.465 65.506, 111.588 62.457 C 117.623 56.565, 122.386 53.550, 124.424 54.332 C 125.108 54.595, 126.192 58.115, 126.834 62.155 C 127.476 66.195, 128.282 71, 128.626 72.834 C 129.182 75.797, 128.846 76.503, 125.608 79.171 C 122.374 81.838, 118.794 83.752, 101 92.330 C 98.525 93.524, 96.275 94.753, 96 95.062 C 95.725 95.372, 92.800 96.399, 89.500 97.345 C 86.200 98.291, 82.150 99.458, 80.500 99.938 C 73.432 101.993, 69.864 102.141, 67.333 100.482 C 65.003 98.956, 64.699 98.963, 62.915 100.577 C 60.137 103.091, 60.427 108.113, 63.517 111.016 C 66.950 114.241, 73.613 114.088, 81.186 110.611 C 84.313 109.175, 88.292 108, 90.028 108 C 91.841 108, 98.458 105.447, 105.581 102 C 112.399 98.700, 118.546 96, 119.242 96 C 119.937 96, 121.781 94.650, 123.338 93 C 128.751 87.265, 130.749 89.393, 131.364 101.549 C 131.613 106.472, 132.148 115.721, 132.552 122.102 C 133.082 130.451, 132.967 133.903, 132.142 134.412 C 131.444 134.844, 131.206 136.563, 131.533 138.810 C 132.228 143.591, 130.779 146.010, 128.278 144.244 C 125.156 142.038, 123.892 141.708, 122.788 142.812 C 121.335 144.265, 123.138 148.367, 127.457 153.435 C 130.801 157.359, 130.825 157.368, 135.655 156.435 C 140.263 155.546, 140.514 155.329, 140.789 152 C 140.947 150.075, 141.373 147.825, 141.736 147 C 142.602 145.026, 142.907 142.225, 143.370 132 C 143.581 127.325, 143.810 123.162, 143.877 122.750 C 144.097 121.406, 147.497 121.959, 150.027 123.750 C 153.808 126.426, 159 127.968, 164.282 127.985 C 166.912 127.993, 170.737 128.702, 172.782 129.560 C 175.162 130.558, 180.385 131.226, 187.295 131.415 C 197.270 131.688, 198.200 131.553, 199.545 129.633 C 200.345 128.490, 201 126.294, 201 124.753 C 201 120.930, 198.829 120.274, 183.891 119.584 C 177.076 119.270, 167.180 118.520, 161.899 117.918 C 155.077 117.140, 151.183 117.132, 148.444 117.888 C 143.927 119.135, 143.058 118.357, 142.980 113 C 142.952 111.075, 142.277 106.800, 141.480 103.500 C 140.683 100.200, 140.024 94.030, 140.016 89.789 C 140.002 83.133, 140.299 81.799, 142.189 80.039 C 143.392 78.918, 144.785 78, 145.283 78 C 148.143 78, 167.979 62.091, 167.995 59.785 C 168.008 57.929, 161.577 52, 159.551 52 C 157.185 52, 154.445 54.438, 153.853 57.071 C 153.309 59.491, 140.086 70.247, 138.434 69.613 C 137.407 69.219, 137 67.344, 137 63.012 C 137 58.864, 136.213 55.024, 134.500 50.808 C 131.497 43.417, 131.519 43.860, 134 41 C 135.100 39.732, 136.017 38.200, 136.038 37.597 C 136.059 36.994, 137.872 35.257, 140.067 33.739 C 146.016 29.623, 147.864 23.717, 144.399 19.888 C 141.903 17.130, 137.473 17.458, 135.297 20.562 M 111.968 114.919 C 110.214 118.724, 107.478 123.084, 105.889 124.606 C 104.300 126.129, 103 127.917, 103 128.581 C 103 130.285, 87.569 144, 85.653 144 C 84.782 144, 83.566 144.942, 82.950 146.094 C 82.244 147.412, 81.160 148.014, 80.025 147.717 C 74.725 146.331, 75.137 151.686, 80.590 155.056 C 83.695 156.975, 84.428 157.070, 87.289 155.927 C 91.880 154.091, 98.010 149.104, 99.056 146.352 C 99.592 144.944, 100.769 144, 101.990 144 C 103.171 144, 104.776 142.773, 105.802 141.085 C 106.777 139.481, 110.132 135.319, 113.257 131.835 C 116.381 128.351, 120.077 123.793, 121.469 121.706 C 125.945 114.996, 124.046 108, 117.750 108 C 115.516 108, 114.715 108.959, 111.968 114.919 M 131.466 162.766 C 128.673 164.747, 126 169.580, 126 172.648 C 126 174.507, 125.600 176.809, 125.112 177.764 C 124.623 178.719, 123.602 182.146, 122.843 185.379 L 121.462 191.259 114.481 193.197 C 110.642 194.263, 106.375 195.364, 105 195.643 C 103.625 195.922, 101.600 196.512, 100.500 196.954 C 98.170 197.889, 67.656 205.511, 57.681 207.650 C 53.931 208.454, 47.631 210.260, 43.681 211.663 C 39.731 213.066, 35.038 214.726, 33.250 215.352 C 29.067 216.816, 28.678 221.088, 32.500 223.592 C 34.777 225.084, 35.213 225.090, 37.390 223.664 C 38.704 222.803, 42.192 221.790, 45.140 221.413 C 48.088 221.036, 51.733 220.105, 53.239 219.344 C 54.746 218.583, 59.021 217.332, 62.739 216.566 C 74.218 214.199, 81.130 212.270, 82.290 211.110 C 82.900 210.500, 84.773 210.003, 86.450 210.008 C 88.127 210.012, 95.228 208.578, 102.229 206.820 C 109.230 205.063, 115.258 203.924, 115.623 204.290 C 115.989 204.656, 115.527 207.373, 114.598 210.329 C 112.168 218.052, 113.565 220.198, 126.250 228.229 C 127.763 229.187, 129 230.603, 129 231.375 C 129 232.147, 124.933 236.897, 119.963 241.929 C 109.916 252.101, 102.854 256.526, 91 260.079 C 82.266 262.697, 65.163 263.357, 60.667 261.250 C 59.200 260.563, 56.905 259.490, 55.567 258.867 C 54.230 258.244, 52.396 258.018, 51.494 258.364 C 49.057 259.299, 50.124 262.446, 53.010 262.838 C 54.380 263.023, 56.400 263.969, 57.500 264.938 C 60.929 267.962, 68.813 269.488, 80.653 269.420 C 89.669 269.369, 92.337 269.009, 94.576 267.542 C 96.145 266.514, 99.113 265.743, 101.423 265.763 C 105.610 265.801, 111.816 262.904, 117.327 258.341 C 118.881 257.053, 120.700 256, 121.369 256 C 123.376 256, 131.024 247.557, 131.858 244.420 C 132.367 242.508, 133.381 241.391, 134.797 241.183 C 135.986 241.009, 137.899 239.546, 139.048 237.933 C 141.502 234.486, 143.025 234.265, 145.500 237 C 146.495 238.100, 148.028 239.007, 148.905 239.015 C 151.476 239.039, 157.765 241.480, 159.707 243.207 C 160.693 244.084, 163.075 245.512, 165 246.380 C 166.925 247.249, 169.175 248.367, 170 248.864 C 170.825 249.361, 172.819 250.383, 174.431 251.134 C 176.043 251.885, 178.031 253.659, 178.849 255.075 C 179.667 256.491, 181.871 258.656, 183.748 259.887 C 186.961 261.993, 187.307 262.029, 189.633 260.505 C 191.867 259.041, 192.044 258.433, 191.465 254.192 C 190.643 248.168, 188.225 244.810, 183.925 243.722 C 180.814 242.934, 174 236.822, 174 234.818 C 174 234.368, 172.075 234, 169.722 234 C 166.890 234, 162.974 232.817, 158.140 230.500 C 154.124 228.575, 150.225 227, 149.478 227 C 147.179 227, 146.714 224.974, 148.548 222.947 C 149.540 221.850, 150.504 218.754, 150.785 215.760 C 151.056 212.867, 151.716 210.217, 152.252 209.871 C 152.787 209.526, 153.287 205.932, 153.363 201.886 L 153.500 194.529 157.500 192.436 C 162.400 189.873, 174.911 186, 178.291 186 C 179.655 186, 182.060 185.328, 183.636 184.506 C 185.211 183.685, 187.767 183.010, 189.316 183.006 C 190.864 183.003, 193.114 182.455, 194.316 181.788 C 195.660 181.042, 201.176 180.540, 208.663 180.483 C 216.318 180.425, 221.345 179.958, 222.229 179.225 C 223.264 178.366, 224.649 178.340, 227.502 179.128 C 231.891 180.340, 235.940 179.873, 244.527 177.163 C 249.764 175.510, 250.541 174.934, 250.831 172.490 C 251.074 170.441, 250.436 169.079, 248.425 167.351 C 245.213 164.591, 245.135 164.585, 238 166.500 C 234.975 167.312, 230.659 167.982, 228.409 167.988 C 226.159 167.995, 222.109 168.670, 219.409 169.489 C 216.709 170.308, 210.900 170.985, 206.500 170.993 C 197.905 171.009, 176.628 174.779, 166 178.168 C 159.190 180.340, 157.275 181.126, 152.748 183.604 C 150.287 184.952, 149.762 184.947, 147.776 183.555 C 144.498 181.260, 142.592 181.636, 139.680 185.151 C 137.483 187.802, 136.826 188.100, 135.535 187.029 C 133.528 185.364, 133.568 184.737, 136.197 176.663 L 138.422 169.825 136.461 166.230 C 134.385 162.425, 133.152 161.570, 131.466 162.766 M 134.212 199.124 C 124.795 203.785, 124.705 218.194, 134.086 219.241 C 137 219.566, 138.878 216.064, 140.654 207 C 142.845 195.811, 142.286 195.128, 134.212 199.124" stroke="none" fill="black" fill-rule="evenodd"/>
</svg>