<svg xmlns="http://www.w3.org/2000/svg" width="300" height="300" viewBox="0 0 300 300" version="1.1">
	<path d="M 113.623 24.250 C 112.703 25.704, 112.018 30.569, 111.688 38 C 111.118 50.797, 109.401 56.899, 105.862 58.704 C 100.152 61.616, 96.546 63.002, 94.596 63.035 C 93.443 63.055, 91.375 63.714, 90 64.500 C 88.625 65.286, 86.600 65.948, 85.500 65.971 C 84.400 65.994, 82.337 66.619, 80.916 67.361 C 79.495 68.102, 75.015 69.036, 70.960 69.435 C 60.968 70.420, 58 72.039, 58 76.507 C 58 79.424, 58.419 80.067, 60.691 80.637 C 62.171 81.009, 65.327 80.792, 67.705 80.156 C 70.083 79.520, 73.346 79, 74.955 79 C 76.565 79, 78.160 78.550, 78.500 78 C 78.840 77.450, 79.879 76.997, 80.809 76.994 C 81.739 76.990, 83.789 76.315, 85.364 75.494 C 86.940 74.672, 89.079 74, 90.118 74 C 91.157 74, 93.686 73.100, 95.739 72 C 99.514 69.976, 103.003 69.376, 102.996 70.750 C 102.994 71.162, 102.001 73.075, 100.788 75 C 97.916 79.560, 96.467 82.134, 92.342 90 C 88.931 96.503, 87.225 98.987, 79.225 109.098 C 75.420 113.906, 72.675 117.899, 63.136 132.500 C 61.698 134.700, 58.875 138.300, 56.861 140.500 C 51.875 145.947, 43.531 157.168, 40.658 162.290 C 34.459 173.343, 33.601 174.254, 26.750 177.067 C 23.709 178.315, 23.418 179.018, 25.200 180.800 C 27.023 182.623, 31.040 182.236, 33.395 180.010 C 34.553 178.915, 36.625 176.969, 38 175.685 C 41.058 172.829, 43.487 169.828, 44.943 167.106 C 45.547 165.977, 48.282 162.362, 51.021 159.071 C 53.759 155.780, 56.016 152.505, 56.036 151.794 C 56.098 149.560, 60.381 145.298, 63.250 144.616 C 65.306 144.127, 66 143.355, 66 141.558 C 66 140.107, 67.514 137.638, 69.821 135.327 C 71.922 133.222, 74.670 129.475, 75.926 127 C 77.183 124.525, 79.992 120.475, 82.168 118 C 88.135 111.214, 96 101.182, 96 100.358 C 96 99.957, 96.895 98.676, 97.989 97.512 C 99.083 96.347, 101.820 91.818, 104.071 87.447 C 106.322 83.076, 109.194 78.375, 110.453 77 C 111.712 75.625, 113.014 73.344, 113.345 71.930 C 114.238 68.122, 120.044 62.758, 125.605 60.603 C 128.297 59.560, 131.932 57.647, 133.683 56.353 C 135.434 55.059, 137.430 54, 138.119 54 C 138.808 54, 140.300 53.176, 141.436 52.170 C 142.571 51.163, 145.525 49.763, 148 49.057 C 152.389 47.806, 156.638 44.703, 164.243 37.195 C 168.486 33.006, 169.062 29.533, 166.117 25.897 C 164.468 23.860, 163.917 23.717, 161.666 24.743 C 160.252 25.386, 158.389 27.280, 157.525 28.951 C 156.631 30.680, 153.917 33.086, 151.227 34.534 C 148.627 35.934, 144.700 38.352, 142.500 39.908 C 132.898 46.699, 117.281 53.491, 119.625 49.857 C 120.106 49.111, 120.578 46.025, 120.674 43 C 120.769 39.975, 121.146 35.025, 121.511 32 C 122.086 27.229, 121.892 26.202, 120.048 24.250 C 118.879 23.012, 117.275 22, 116.484 22 C 115.693 22, 114.406 23.012, 113.623 24.250 M 122.750 76.080 C 120.163 77.587, 120.620 79.752, 123.880 81.438 C 125.464 82.257, 128.217 84.153, 129.997 85.651 C 131.778 87.149, 137.344 90.467, 142.367 93.024 C 147.390 95.581, 154.425 99.268, 158 101.218 C 172.062 108.887, 184.276 115, 185.537 115 C 187.428 115, 193.810 119.020, 197.047 122.250 C 200.229 125.426, 203.969 125.797, 206.345 123.171 C 211.072 117.948, 205.947 113.335, 189.500 108.008 C 185.650 106.762, 181.825 105.162, 181 104.454 C 180.175 103.745, 175.732 101.216, 171.126 98.833 C 158.213 92.152, 157.682 91.846, 154.755 89.417 C 153.246 88.164, 150.996 86.819, 149.755 86.428 C 148.515 86.038, 145.025 84.081, 142 82.079 C 137.015 78.781, 128.022 74.936, 125.500 75.025 C 124.950 75.045, 123.713 75.519, 122.750 76.080 M 129.500 109.066 C 125.091 112.084, 116.082 116, 113.550 116 C 110.274 116, 106.934 119.999, 107.680 123.027 C 109.135 128.936, 114.209 130.474, 119.812 126.705 C 121.840 125.341, 124.850 123.536, 126.500 122.694 C 128.150 121.853, 131.004 120.382, 132.841 119.425 C 134.679 118.468, 136.895 116.191, 137.766 114.365 C 139.242 111.270, 139.225 110.906, 137.520 109.022 C 135.209 106.468, 133.281 106.479, 129.500 109.066 M 157.327 128.283 C 154.243 130.772, 146.306 136, 145.609 136 C 145.370 136, 142.777 137.579, 139.846 139.509 C 136.916 141.439, 133.614 143.301, 132.509 143.646 C 131.404 143.991, 128.475 145.637, 126 147.303 C 121.952 150.028, 118.687 152.755, 108.277 162.105 C 106.504 163.697, 104.578 165, 103.996 165 C 103.414 165, 102.678 165.675, 102.362 166.500 C 102.045 167.325, 101.214 168, 100.515 168 C 99.817 168, 98.652 168.714, 97.928 169.586 C 95.753 172.208, 76.084 181.054, 73.667 180.498 C 72.141 180.147, 70.966 180.743, 69.692 182.514 C 67.935 184.959, 67.944 185.112, 70.010 188.015 C 71.180 189.657, 72.759 191, 73.520 191 C 74.281 191, 79.313 188.802, 84.702 186.115 C 90.091 183.429, 97.875 179.626, 102 177.664 C 106.304 175.618, 111.803 171.927, 114.905 169.004 C 118.723 165.404, 120.622 164.222, 121.373 164.973 C 121.958 165.558, 122.611 169.117, 122.823 172.881 L 123.210 179.725 118.369 183.612 C 113.198 187.765, 111.031 189.870, 92.743 208.514 C 69.828 231.876, 65.678 235.386, 61.874 234.625 C 56.857 233.621, 54.025 239.903, 57.909 243.418 C 59.668 245.009, 60.058 245.021, 62.859 243.573 C 64.532 242.708, 66.546 242, 67.335 242 C 68.124 242, 69.507 240.875, 70.408 239.500 C 71.309 238.125, 72.640 237, 73.367 237 C 74.093 237, 76.534 234.809, 78.792 232.131 C 81.050 229.453, 85.283 225.649, 88.199 223.677 C 93.323 220.213, 110.527 203.961, 118.292 195.250 C 122.456 190.579, 123.164 190.288, 124.997 192.496 C 126.586 194.411, 126.648 234.832, 125.069 239.993 C 124.481 241.915, 124 245.091, 124 247.052 C 124 251.080, 122.550 253.526, 119.116 255.292 C 117.731 256.003, 116.183 258.243, 115.348 260.743 C 114.013 264.737, 114.060 265.162, 116.153 267.993 C 117.927 270.392, 119.123 271, 122.071 271 C 125.568 271, 125.913 270.698, 128.527 265.356 C 131.223 259.844, 132.986 251.214, 133.329 241.839 C 133.423 239.275, 133.829 236.846, 134.232 236.440 C 134.634 236.035, 134.697 234.639, 134.370 233.339 C 134.044 232.038, 134.252 230.402, 134.832 229.702 C 135.413 229.003, 135.884 226.871, 135.879 224.965 C 135.836 207.443, 135.532 200.268, 134.576 194.250 C 133.752 189.062, 133.773 189, 136.312 189 C 137.726 189, 139.175 189.475, 139.534 190.055 C 140.221 191.167, 154.737 200.801, 159 202.975 C 160.375 203.676, 162.400 205.053, 163.500 206.035 C 166.082 208.339, 193.350 222, 195.368 222 C 195.739 222, 197.721 223.096, 199.771 224.435 C 201.822 225.774, 205.525 227.642, 208 228.587 C 210.475 229.531, 213.400 231.102, 214.500 232.078 C 215.600 233.054, 217.742 234.160, 219.259 234.537 C 220.777 234.913, 222.266 235.622, 222.568 236.111 C 222.871 236.600, 223.981 237, 225.036 237 C 226.091 237, 227.659 238.076, 228.521 239.392 C 230.302 242.110, 234.305 243.215, 237.699 241.924 C 239.576 241.211, 240 240.305, 240 237.012 C 240 233.154, 239.789 232.881, 235.250 230.893 C 230.497 228.810, 225.069 226.278, 210.991 219.575 C 206.861 217.609, 203.107 216, 202.649 216 C 202.190 216, 200.671 215.100, 199.273 214 C 197.874 212.900, 195.960 212, 195.019 212 C 193.246 212, 189.047 210.231, 183 206.937 C 181.075 205.889, 178.150 204.384, 176.500 203.594 C 174.850 202.803, 171.949 200.546, 170.054 198.578 C 168.158 196.610, 166.078 195, 165.430 195 C 164.427 195, 159.812 192.576, 154 188.995 C 149.397 186.160, 142.867 183.796, 138.245 183.292 C 133.225 182.745, 132.999 182.594, 133.203 179.918 C 133.320 178.378, 132.707 176.304, 131.841 175.309 C 130.788 174.100, 130.070 170.583, 129.678 164.708 C 129.114 156.258, 129.179 155.882, 131.337 155.062 C 132.572 154.593, 134.181 153.486, 134.914 152.604 C 135.646 151.722, 137.035 151, 138 151 C 138.965 151, 140.315 150.325, 141 149.500 C 141.685 148.675, 143.099 148, 144.144 148 C 145.188 148, 148.906 145.750, 152.405 143 C 156.806 139.542, 159.687 138, 161.748 138 C 164.536 138, 164.769 137.700, 165.365 133.354 C 166.375 125.987, 162.891 123.790, 157.327 128.283" stroke="none" fill="black" fill-rule="evenodd"/>
</svg>