<svg xmlns="http://www.w3.org/2000/svg" width="300" height="300" viewBox="0 0 300 300" version="1.1">
	<path d="M 75.396 71.750 C 75.098 72.713, 74.451 74.260, 73.957 75.188 C 73.414 76.211, 73.461 78.025, 74.078 79.794 C 75.499 83.870, 74.440 118.215, 72.529 130 C 71.682 135.225, 70.780 142.650, 70.523 146.500 C 70.267 150.350, 69.617 156.425, 69.079 160 C 68.541 163.575, 67.830 171.225, 67.500 177 C 66.605 192.634, 66.294 193.769, 62.126 196.556 C 60.132 197.890, 56.250 200.786, 53.500 202.991 C 47.831 207.536, 39.276 213.374, 33.800 216.433 C 28.692 219.287, 15.433 230.410, 13.351 233.588 C 12.085 235.520, 11.909 236.632, 12.676 237.851 C 14.296 240.423, 16.810 240.382, 20.297 237.727 C 22.059 236.386, 25.433 234.304, 27.795 233.101 C 30.157 231.898, 33.803 229.366, 35.897 227.474 C 37.991 225.582, 41.464 223.239, 43.614 222.267 C 45.765 221.295, 48.419 219.722, 49.512 218.770 C 50.606 217.819, 53.797 215.007, 56.604 212.520 C 61.662 208.041, 65 206.770, 65 209.326 C 65 211.249, 69.064 214.744, 72.209 215.524 C 75.677 216.385, 77.705 218.737, 76.442 220.434 C 75.924 221.131, 74.225 223.619, 72.667 225.963 C 69.399 230.877, 66.246 234.469, 56.500 244.381 C 48.555 252.461, 40.145 258.645, 31.750 262.579 C 26.013 265.267, 24.883 266.828, 27.253 268.795 C 29.091 270.320, 38.442 267.647, 42.132 264.542 C 43.794 263.144, 45.841 262, 46.682 262 C 47.523 262, 49.506 260.988, 51.089 259.750 C 58.641 253.846, 59.915 253, 61.253 253 C 62.870 253, 65.379 250.394, 66.322 247.735 C 66.667 246.764, 67.973 245.570, 69.224 245.082 C 71.883 244.044, 77.199 238.589, 79.048 235 C 81.304 230.623, 87.383 223, 88.619 223 C 89.274 223, 91.696 224.575, 94 226.500 C 96.304 228.425, 98.598 230, 99.097 230 C 101.144 230, 113.067 243.087, 113.643 245.966 C 113.972 247.610, 114.862 249.470, 115.621 250.100 C 117.826 251.930, 117.224 253.910, 114.250 254.606 C 112.737 254.960, 109.043 255.868, 106.040 256.625 C 103.037 257.381, 98.704 258, 96.412 258 C 93.928 258, 91.742 258.606, 91 259.500 C 90.315 260.325, 88.740 261, 87.500 261 C 86.259 261, 83.629 261.675, 81.654 262.500 C 79.680 263.325, 76.951 264, 75.591 264 C 72.688 264, 72.398 264.363, 71.508 269.104 C 70.997 271.827, 71.255 273.113, 72.579 274.436 C 74.674 276.531, 76.539 276.268, 88 272.259 C 97.327 268.996, 104.572 266.976, 116 264.451 C 120.125 263.540, 126.142 262, 129.372 261.030 C 133.948 259.655, 135.870 259.502, 138.087 260.339 C 140.506 261.252, 141.274 261.091, 143.216 259.267 C 145.117 257.482, 148.354 256.751, 162.500 254.916 C 183.893 252.141, 190.408 251.986, 217 253.626 C 242.329 255.188, 248.818 255.896, 249.616 257.187 C 249.940 257.712, 251.882 257.858, 253.931 257.512 C 256.668 257.049, 258.001 257.296, 258.951 258.441 C 260.420 260.211, 265.593 260.486, 269.498 259.001 C 273.486 257.485, 272.655 252.633, 267.728 248.658 C 264.165 245.783, 263.760 245.685, 260.429 246.889 C 257.950 247.786, 256.528 247.853, 255.640 247.116 C 254.945 246.540, 248.330 245.802, 240.938 245.478 C 233.547 245.153, 218.500 244.264, 207.500 243.502 C 196.500 242.741, 186.290 242.363, 184.811 242.664 L 182.123 243.210 182.687 237.742 C 183.053 234.195, 182.856 232.029, 182.126 231.578 C 180.744 230.724, 180.597 217.367, 181.959 216.525 C 182.499 216.192, 182.750 212.335, 182.534 207.716 C 182.322 203.197, 182.561 197.321, 183.066 194.659 C 183.645 191.602, 183.617 188.285, 182.990 185.659 C 182.444 183.371, 181.531 171.825, 180.960 160 C 179.594 131.720, 179.455 130.417, 175.880 112.500 C 175.331 109.750, 174.629 106.150, 174.319 104.500 C 174.010 102.850, 173.193 100.825, 172.505 100 C 171.816 99.175, 170.717 96.832, 170.063 94.792 C 168.723 90.619, 163.868 87, 159.609 87 C 156.333 87, 147.550 95.803, 145.931 100.710 C 143.972 106.644, 140.775 104.226, 140.509 96.609 C 140.287 90.267, 133.249 85.585, 129.938 89.575 C 128.861 90.872, 128.866 92.239, 129.967 97.325 C 130.702 100.721, 131.606 105.648, 131.976 108.274 C 132.345 110.899, 133.177 113.577, 133.824 114.224 C 134.471 114.871, 135 117.920, 135 121 C 135 124.080, 135.451 127.051, 136.001 127.601 C 138.320 129.920, 137.558 231.275, 135.199 234.346 C 134.712 234.981, 134.439 238.506, 134.592 242.181 C 134.891 249.322, 134.261 250.558, 130.021 251.152 C 127.773 251.467, 127.458 251.051, 126.653 246.696 C 126.035 243.359, 125.036 241.415, 123.382 240.331 C 122.072 239.472, 121 238.192, 121 237.486 C 121 235.514, 103.985 218, 102.069 218 C 99.871 218, 93.990 212.239, 94.035 210.131 C 94.055 209.234, 94.714 207.375, 95.500 206 C 96.286 204.625, 96.945 201.842, 96.965 199.815 C 96.984 197.788, 97.434 194.988, 97.965 193.593 C 98.495 192.198, 99.039 188.096, 99.172 184.478 C 99.316 180.596, 99.945 177.461, 100.708 176.828 C 101.418 176.238, 102 175.205, 102 174.533 C 102 173.860, 102.900 172.495, 104 171.500 C 105.100 170.505, 106 168.783, 106 167.674 C 106 166.565, 106.716 164.867, 107.590 163.900 C 109.568 161.715, 108.590 158, 106.036 158 C 105.030 158, 102.892 159.498, 101.284 161.330 C 96.993 166.217, 96.155 166.494, 93.430 163.934 C 91.267 161.903, 90.741 161.801, 88.530 162.984 C 85.407 164.655, 83.441 170.087, 84.943 172.894 C 85.811 174.515, 85.437 175.734, 82.934 179.443 C 81.077 182.194, 79.100 184, 77.944 184 C 76.202 184, 76.082 183.440, 76.606 177.750 C 76.922 174.313, 77.631 170.019, 78.182 168.209 C 78.732 166.399, 78.927 164.252, 78.615 163.439 C 78.009 161.861, 79.705 146.507, 80.762 144 C 81.109 143.175, 81.467 141.375, 81.555 140 C 81.644 138.625, 82.343 132.550, 83.108 126.500 C 85.007 111.495, 85.020 73.930, 83.128 71.652 C 81.266 69.412, 76.099 69.477, 75.396 71.750 M 156.264 103.750 C 154.667 105.813, 151.840 109.750, 149.981 112.500 L 146.602 117.500 146.745 129 C 146.824 135.325, 146.914 141.963, 146.944 143.750 C 147.007 147.438, 148.419 147.868, 151.436 145.118 C 154.574 142.257, 163.188 138, 165.839 138 C 168.051 138, 168.163 137.714, 167.690 133.250 C 167.413 130.637, 166.909 125.350, 166.571 121.500 C 165.640 110.916, 165.085 108.316, 163.474 106.978 C 162.663 106.305, 162 104.460, 162 102.878 C 162 98.869, 159.783 99.206, 156.264 103.750 M 156 157.099 C 152.425 159.882, 149.180 162.466, 148.788 162.841 C 148.397 163.216, 147.779 170.831, 147.416 179.762 C 146.831 194.152, 146.935 196, 148.331 196 C 151.309 196, 154.505 193.874, 157.442 189.940 C 159.060 187.773, 161.172 186, 162.135 186 C 163.098 186, 165.544 185.021, 167.571 183.826 L 171.257 181.651 170.729 169.576 C 169.885 150.269, 167.438 148.196, 156 157.099 M 80.876 193.206 C 79.027 195.568, 77.174 197.650, 76.757 197.833 C 75.210 198.514, 76.070 203.698, 78.089 205.865 C 81.431 209.453, 82.429 208.565, 85.458 199.313 C 88.645 189.577, 86.233 186.363, 80.876 193.206 M 162.360 202.752 C 154.384 207.193, 147.071 212.600, 146.527 214.458 C 145.135 219.213, 144.744 234.652, 145.957 236.920 C 146.845 238.579, 146.883 239.517, 146.093 240.307 C 144.819 241.581, 144.641 244.660, 145.800 245.376 C 146.239 245.648, 152.155 245.480, 158.945 245.004 C 172.623 244.044, 175.845 242.710, 172.768 239.281 C 171.442 237.802, 171.172 234.732, 171.181 221.185 C 171.191 207.036, 170.960 204.613, 169.441 202.935 C 167.288 200.556, 166.347 200.531, 162.360 202.752" stroke="none" fill="black" fill-rule="evenodd"/>
</svg>