<svg xmlns="http://www.w3.org/2000/svg" width="300" height="300" viewBox="0 0 300 300" version="1.1">
	<path d="M 70.810 2.750 C 70.706 4.263, 70.593 9.272, 70.560 13.883 C 70.493 23.276, 70.834 22.824, 61.858 25.409 C 54.364 27.567, 53.175 29.048, 55.322 33.548 C 56.827 36.705, 57.341 37, 61.329 37 C 64.420 37, 66.217 36.418, 67.500 35 C 70.926 31.214, 72 32.423, 72 40.067 C 72 46.847, 71.858 47.268, 68.503 50.432 C 63.269 55.369, 57.353 59, 54.544 59 C 52.949 59, 51.422 59.952, 50.321 61.633 C 48.625 64.221, 48.646 64.306, 51.548 66.656 C 53.982 68.626, 55.202 68.936, 58.500 68.417 C 60.700 68.071, 63.906 66.934, 65.624 65.890 C 70.002 63.231, 70.918 64.770, 70.266 73.687 C 69.768 80.491, 69.547 81.030, 66.100 83.799 C 64.098 85.408, 60.598 87.675, 58.322 88.836 C 56.046 89.997, 54.030 91.308, 53.842 91.749 C 53.049 93.610, 38.489 100, 35.043 100 C 33.039 100, 30.860 100.540, 30.200 101.200 C 28.378 103.022, 28.753 108.466, 30.829 110.345 C 33.220 112.509, 35.200 112.433, 39.739 110 C 41.791 108.900, 44.087 108, 44.840 108 C 45.594 108, 48.210 106.650, 50.655 105 C 53.100 103.350, 56.203 102, 57.550 102 C 58.898 102, 60 101.562, 60 101.026 C 60 100.031, 65.145 97, 66.834 97 C 68.495 97, 68.946 101.290, 67.775 105.952 C 67.146 108.453, 66.547 114.550, 66.444 119.500 C 66.341 124.450, 65.963 131.275, 65.604 134.666 C 65.013 140.250, 65.180 141.097, 67.369 143.642 C 69.581 146.214, 69.996 146.340, 72.264 145.126 C 74.414 143.976, 74.758 143.067, 74.869 138.254 C 74.940 135.204, 75.386 132.211, 75.861 131.604 C 77.326 129.731, 78.062 125.156, 77.004 124.502 C 75.047 123.293, 75.875 116.922, 78.237 115.009 C 80.279 113.355, 80.366 112.902, 79.237 109.778 C 77.805 105.818, 77.636 102.343, 78.838 101.600 C 79.299 101.315, 79.709 98.476, 79.748 95.291 C 79.833 88.494, 81.269 84.188, 83.735 83.345 C 84.706 83.013, 87.352 80.887, 89.616 78.621 C 93.378 74.855, 95.626 72.805, 107.376 62.424 C 109.507 60.541, 111.614 59, 112.058 59 C 114.055 59, 114.020 54.837, 112 51.999 C 108.877 47.615, 105.735 48.003, 101.939 53.243 C 100.249 55.576, 96.983 58.676, 94.683 60.132 C 92.382 61.587, 88.721 64.628, 86.547 66.889 C 82.102 71.512, 79.340 72.358, 80.473 68.750 C 80.861 67.513, 81.745 63.760, 82.438 60.411 C 83.520 55.175, 84.348 53.720, 88.348 50.033 C 93.326 45.445, 93.862 43.569, 91.501 39.002 C 90.106 36.304, 89.787 36.178, 86.894 37.187 C 84.439 38.043, 83.601 37.979, 82.908 36.885 C 80.548 33.158, 82.895 28.904, 88 27.659 C 89.375 27.323, 92.498 25.313, 94.940 23.193 L 99.381 19.337 97.392 15.918 C 94.703 11.297, 89.857 10.641, 86.831 14.487 C 85.521 16.154, 83.991 16.998, 82.635 16.804 C 80.804 16.543, 80.418 15.647, 79.927 10.500 C 79.051 1.334, 78.347 -0, 74.383 -0 C 71.405 -0, 70.977 0.329, 70.810 2.750 M 140 23 C 138.075 24.054, 135.457 24.935, 134.183 24.958 C 132.909 24.981, 130.392 26.125, 128.589 27.500 C 126.786 28.875, 124.870 30, 124.330 30 C 122.456 30, 119 34.643, 119 37.159 C 119 39.716, 121.697 43, 123.798 43 C 124.425 43, 128.046 40.989, 131.844 38.532 C 136.802 35.325, 139.966 33.985, 143.057 33.782 C 147.337 33.502, 147.369 33.525, 148.240 37.500 C 149.718 44.239, 147.827 76.321, 145.470 84.500 C 144.678 87.250, 143.911 91.040, 143.765 92.923 C 143.413 97.465, 141.570 97.856, 138.264 94.088 C 136.774 92.389, 134.705 91, 133.666 91 C 132.027 91, 131.869 91.495, 132.473 94.750 C 132.856 96.813, 133.746 99.175, 134.450 100 C 135.155 100.825, 136.024 102.625, 136.382 104 C 137.307 107.558, 143.608 114.364, 145.356 113.694 C 146.144 113.391, 147.936 111.640, 149.338 109.802 C 151.327 107.193, 152.125 104.490, 152.975 97.480 C 153.574 92.541, 154.707 86.475, 155.492 84 C 156.278 81.525, 156.888 76.457, 156.848 72.738 C 156.805 68.783, 157.282 65.366, 157.995 64.506 C 158.879 63.440, 159.100 58.841, 158.799 47.768 C 158.326 30.362, 157.232 26.543, 151.747 23.152 C 147.500 20.528, 144.585 20.490, 140 23 M 126.220 46.250 C 124.690 48.116, 123.277 54.587, 122.577 62.926 C 122.234 67.010, 121.464 70.941, 120.865 71.663 C 120.266 72.384, 119.984 73.543, 120.238 74.237 C 120.701 75.501, 119.855 82.387, 118.027 92.250 C 115.708 104.760, 115.699 104.947, 117.429 105.611 C 120.691 106.863, 126 99.694, 126 94.036 C 126 92.351, 126.397 90.191, 126.883 89.236 C 130.815 81.508, 132.452 73.918, 132.479 63.301 C 132.492 58.100, 132.957 54.644, 133.750 53.851 C 135.704 51.896, 135.220 48.268, 132.777 46.557 C 130.094 44.677, 127.605 44.560, 126.220 46.250 M 102.901 121.099 C 101.119 122.881, 100.908 123.899, 101.500 127.849 C 101.884 130.407, 102.603 133.258, 103.099 134.184 C 103.594 135.111, 104 140.848, 104 146.934 C 104 156.667, 103.759 158.241, 102 160 C 100.900 161.100, 99.520 162, 98.933 162 C 98.347 162, 96.434 163.066, 94.683 164.369 C 92.932 165.671, 90.150 167.057, 88.500 167.447 C 86.850 167.837, 84.825 168.738, 84 169.449 C 81.657 171.469, 72.060 174.689, 66 175.489 C 57.703 176.585, 55.097 179.838, 58.557 184.777 C 59.492 186.113, 61.160 187, 62.736 187 C 65.387 187, 66.636 186.665, 77.567 183.022 C 80.903 181.910, 84.573 181, 85.722 181 C 86.871 181, 89.696 179.425, 92 177.500 C 98.671 171.927, 100.247 173.177, 96.646 181.184 C 95.331 184.108, 93.653 188.525, 92.916 191 C 92.179 193.475, 89.829 199.067, 87.695 203.427 C 82.628 213.778, 78 223.900, 78 224.630 C 78 224.949, 76.650 227.210, 75 229.655 C 73.350 232.100, 72 234.668, 72 235.362 C 72 236.055, 71.213 237.512, 70.250 238.599 C 67.608 241.583, 60 252.790, 59.999 253.701 C 59.998 254.141, 57.727 256.728, 54.952 259.451 C 51.099 263.232, 49.976 265.006, 50.203 266.951 C 50.616 270.500, 54.982 270.926, 59.063 267.817 C 67.053 261.732, 69.732 258.842, 71.030 254.910 C 71.787 252.616, 73.665 249.002, 75.203 246.878 C 76.741 244.755, 78 242.811, 78 242.559 C 78 242.307, 79.350 240.100, 81 237.655 C 82.650 235.210, 84 232.643, 84 231.949 C 84 231.256, 85.101 229.245, 86.447 227.481 C 87.792 225.717, 89.201 222.974, 89.578 221.387 C 89.954 219.799, 91.064 217.600, 92.043 216.500 C 93.023 215.400, 95.017 211.800, 96.475 208.500 C 97.933 205.200, 99.772 201.226, 100.563 199.669 C 101.353 198.112, 102 195.782, 102 194.490 C 102 192.329, 104.288 189, 105.774 189 C 106.121 189, 107.776 190.326, 109.452 191.948 C 111.129 193.569, 115.562 196.490, 119.304 198.438 C 123.046 200.386, 127.546 203.038, 129.304 204.330 C 131.062 205.623, 133.974 207.262, 135.776 207.972 C 137.578 208.683, 139.956 210.534, 141.062 212.087 C 142.256 213.764, 143.654 214.686, 144.507 214.359 C 145.296 214.056, 147.140 214.752, 148.605 215.904 C 150.071 217.057, 151.672 218, 152.164 218 C 152.981 218, 158.854 222.213, 166.500 228.283 C 168.150 229.593, 171.075 231.528, 173 232.582 C 174.925 233.637, 178.742 236.412, 181.483 238.750 C 184.223 241.088, 186.935 243, 187.510 243 C 188.880 243, 199.269 250.799, 200.300 252.601 C 200.740 253.371, 201.726 254, 202.493 254 C 203.259 254, 206.804 256.475, 210.369 259.500 C 213.935 262.525, 217.240 265, 217.714 265 C 218.917 265, 231.325 276.987, 233.109 279.874 C 234.415 281.987, 235.039 282.169, 238.788 281.536 C 242.891 280.843, 243 280.724, 243 276.944 C 243 273.414, 242.518 272.707, 237.665 269.122 C 234.730 266.954, 231.205 263.844, 229.830 262.210 C 228.456 260.576, 226.469 258.965, 225.415 258.628 C 224.362 258.292, 221.393 256.100, 218.817 253.758 C 216.242 251.416, 211.491 248.012, 208.259 246.193 C 205.028 244.375, 200.160 241.120, 197.442 238.962 C 194.724 236.803, 191.600 234.630, 190.500 234.133 C 189.400 233.636, 187.601 232.232, 186.502 231.012 C 185.404 229.793, 183.154 228.097, 181.502 227.243 C 178.992 225.945, 171.770 220.770, 170 219 C 168.509 217.509, 157.077 209, 156.565 209 C 156.232 209, 154.178 207.875, 152 206.500 C 149.822 205.125, 147.458 204, 146.748 204 C 146.037 204, 143.891 202.752, 141.978 201.228 C 140.065 199.703, 136.700 197.835, 134.500 197.078 C 132.300 196.320, 127.575 193.783, 124 191.440 C 120.425 189.098, 115.250 185.991, 112.500 184.537 C 109.750 183.082, 107.525 181.579, 107.556 181.196 C 107.956 176.203, 113.799 165.340, 117.080 163.489 C 123.557 159.836, 131.312 156, 132.221 156 C 132.779 156, 134.774 154.650, 136.653 153 C 138.532 151.350, 141.066 149.982, 142.285 149.960 C 145.175 149.908, 154 141.772, 154 139.159 C 154 136.197, 151.203 133.807, 148.645 134.582 C 147.465 134.939, 143.222 137.204, 139.215 139.616 C 135.208 142.027, 131.452 144, 130.869 144 C 130.286 144, 128.391 145.012, 126.659 146.250 C 122.276 149.380, 117.262 152, 115.654 152 C 114.660 152, 114.137 149.552, 113.681 142.750 C 112.268 121.696, 108.956 115.044, 102.901 121.099" stroke="none" fill="black" fill-rule="evenodd"/>
</svg>