<svg xmlns="http://www.w3.org/2000/svg" width="300" height="300" viewBox="0 0 300 300" version="1.1">
	<path d="M 145.045 52.446 C 144.125 53.554, 144.109 55.362, 144.976 60.196 C 145.598 63.663, 146.254 68.300, 146.433 70.500 C 146.612 72.700, 147.312 77.624, 147.988 81.441 C 148.663 85.259, 148.980 90.659, 148.691 93.441 C 147.058 109.183, 145.635 117.798, 143.364 125.680 C 141.966 130.531, 140.750 136.281, 140.661 138.458 C 140.512 142.132, 140.738 142.484, 143.820 143.372 C 146.766 144.222, 147.418 144.029, 149.610 141.665 C 150.969 140.199, 152.575 139, 153.180 139 C 154.869 139, 166.754 128.225, 168.703 124.926 C 169.654 123.315, 171.226 121.746, 172.196 121.438 C 173.166 121.130, 175.041 119.064, 176.364 116.846 C 179.740 111.185, 188.667 106.014, 190.341 108.750 C 190.594 109.162, 191.105 111.975, 191.478 115 C 192.154 120.483, 192.141 120.520, 187.034 127 C 184.217 130.575, 180.694 134.844, 179.206 136.487 C 174.143 142.074, 171 146.272, 171 147.446 C 171 148.091, 171.645 149.491, 172.433 150.559 C 173.581 152.115, 174.117 152.252, 175.133 151.250 C 175.830 150.563, 177.224 150, 178.231 150 C 179.239 150, 180.339 149.213, 180.676 148.250 C 181.537 145.794, 187.136 140, 188.649 140 C 189.340 140, 191.319 138.242, 193.046 136.092 C 194.773 133.943, 197.045 131.960, 198.093 131.686 C 199.335 131.361, 200 130.305, 200 128.659 C 200 127.268, 200.514 124.863, 201.141 123.315 C 202.952 118.850, 202.874 111.877, 200.965 107.421 C 199.084 103.031, 191.700 96, 188.969 96 C 184.882 96, 176.786 101.880, 166.139 112.581 C 154.944 123.833, 151.112 126.387, 152.384 121.750 C 152.723 120.513, 153.287 117.700, 153.637 115.500 C 153.987 113.300, 154.693 110.966, 155.206 110.314 C 156.560 108.593, 157.094 77.643, 155.902 70 C 155.345 66.425, 154.631 61.475, 154.317 59 C 154.003 56.525, 153.058 53.712, 152.218 52.750 C 150.364 50.627, 146.684 50.471, 145.045 52.446 M 81.797 83.659 C 79.126 84.395, 78.757 87.403, 80.489 94.310 C 82.233 101.265, 82.030 114.466, 80.040 123.500 C 79.434 126.250, 79.151 129.400, 79.411 130.500 C 79.971 132.865, 77.671 144.446, 76.285 146.248 C 75.755 146.936, 75.293 149.212, 75.258 151.304 C 75.185 155.690, 71.150 162.500, 68.038 163.488 C 66.917 163.844, 66 164.485, 66 164.912 C 66 165.340, 63.104 167.816, 59.564 170.415 C 56.025 173.014, 52.567 175.816, 51.881 176.643 C 51.195 177.470, 48.846 179.058, 46.661 180.173 C 44.477 181.287, 40.397 184.019, 37.595 186.243 C 34.793 188.467, 31.150 190.896, 29.500 191.641 C 17.090 197.243, 12.463 202.171, 15.137 206.936 C 17.220 210.646, 19.300 210.571, 25.330 206.569 C 28.287 204.606, 31.153 203, 31.699 203 C 32.244 203, 33.505 202.100, 34.500 201 C 35.495 199.900, 37.003 199, 37.850 199 C 38.697 199, 40.624 197.818, 42.132 196.374 C 43.639 194.930, 45.737 193.242, 46.793 192.624 C 53.488 188.707, 58.140 185.109, 62.717 180.311 C 69.132 173.586, 72.323 174.316, 68.506 181.636 C 66.444 185.590, 66.523 194.359, 68.636 196.113 C 70.783 197.894, 75 204.608, 75 206.243 C 75 208.307, 68.692 217.091, 63.133 222.768 C 60.310 225.651, 58 228.583, 58 229.282 C 58 229.982, 56.650 231.739, 55 233.187 C 51.515 236.245, 51.082 239.574, 54.047 240.515 C 56.418 241.268, 63.074 236.279, 68.187 229.917 C 69.918 227.763, 71.946 226, 72.692 226 C 73.439 226, 74.508 224.988, 75.068 223.750 C 77.367 218.669, 83.985 210, 85.565 210 C 85.909 210, 87.561 211.012, 89.235 212.250 C 90.909 213.488, 94.437 216.075, 97.075 218 C 113.934 230.303, 114.097 230.564, 109 237 C 105.027 242.017, 104.901 246.632, 108.698 248.075 C 110.992 248.947, 112.002 248.676, 115.448 246.259 C 117.677 244.695, 119.642 242.439, 119.815 241.245 C 119.988 240.050, 121.338 237.778, 122.815 236.197 C 124.292 234.615, 127.271 231.111, 129.436 228.410 C 131.601 225.710, 136.916 219.982, 141.246 215.681 C 147.679 209.293, 149.063 207.378, 148.810 205.213 C 148.620 203.587, 147.474 201.990, 145.845 201.080 C 143.359 199.691, 142.929 199.777, 139.095 202.434 C 136.843 203.995, 135 205.662, 135 206.139 C 135 207.253, 120.995 224, 120.064 224 C 119.678 224, 115.691 220.512, 111.203 216.250 C 100.964 206.526, 97.681 204, 95.283 204 C 94.238 204, 92.545 203.388, 91.522 202.640 C 89.815 201.391, 89.770 200.878, 90.983 196.390 C 91.710 193.700, 93.023 190.665, 93.902 189.645 C 94.781 188.625, 95.584 186.825, 95.687 185.645 C 95.861 183.643, 98.982 171.290, 101.029 164.500 C 102.891 158.322, 99.225 144, 95.782 144 C 95.137 144, 93.339 145.217, 91.787 146.704 L 88.964 149.409 86.882 147.326 C 85.238 145.683, 85.018 144.834, 85.839 143.301 C 89.271 136.889, 91.807 98.302, 89.474 88 C 88.619 84.225, 88.056 83.475, 85.978 83.345 C 84.615 83.260, 82.734 83.401, 81.797 83.659 M 159.029 145.465 C 157.394 147.435, 158.558 154.229, 161.520 160 C 163.988 164.810, 164.542 167.416, 166.091 181.500 C 167.777 196.827, 168.090 202.836, 168.282 223.500 C 168.531 250.450, 166.284 261.561, 161.229 258.373 C 159.397 257.217, 152.816 247.214, 150.458 242 C 149.587 240.075, 148.257 237.143, 147.502 235.485 C 146.747 233.827, 145.649 231.206, 145.062 229.662 C 144.350 227.791, 143.411 226.970, 142.247 227.200 C 139.236 227.797, 140.599 238.244, 144.613 245.329 C 145.912 247.623, 147.524 250.625, 148.196 252 C 148.868 253.375, 150.786 256.117, 152.459 258.094 C 154.131 260.070, 157.439 264.233, 159.809 267.344 C 162.179 270.455, 164.891 273, 165.836 273 C 167.998 273, 171 269.576, 171 267.111 C 171 266.085, 171.675 264.685, 172.500 264 C 173.325 263.315, 174 261.937, 174 260.937 C 174 259.936, 174.479 258.822, 175.065 258.460 C 175.651 258.098, 176.036 256.609, 175.921 255.151 C 175.807 253.693, 175.965 251.825, 176.274 251 C 178.104 246.102, 178.741 232.281, 178.210 209 C 178.053 202.125, 177.978 195.825, 178.043 195 C 178.108 194.175, 177.471 189.485, 176.628 184.577 C 175.785 179.669, 175.300 175.323, 175.551 174.918 C 176.133 173.976, 173.321 162.573, 171.378 158 C 167.837 149.665, 163.819 144, 161.448 144 C 160.786 144, 159.698 144.659, 159.029 145.465 M 84.593 162.922 C 81.866 168.282, 80 173.300, 80 175.274 C 80 177.103, 79.517 179.083, 78.926 179.674 C 77.677 180.923, 77.242 190.964, 78.359 192.772 C 79.439 194.520, 82.674 194.293, 83.393 192.418 C 83.727 191.548, 84 189.848, 84 188.641 C 84 187.433, 84.590 185.557, 85.310 184.473 C 86.031 183.388, 87.156 180.588, 87.810 178.250 C 88.465 175.912, 89.556 172.097, 90.236 169.771 C 91.816 164.364, 91.882 154.823, 90.343 154.294 C 89.705 154.074, 87.129 157.940, 84.593 162.922 M 193.565 193.928 C 190.714 197.078, 193.313 203, 197.546 203 C 198.811 203, 201.119 204.047, 202.673 205.327 C 205.974 208.043, 211.847 210.452, 217.500 211.406 C 219.700 211.778, 222.850 212.689, 224.500 213.430 C 232.803 217.162, 235.331 218, 238.284 218.004 C 240.053 218.006, 243.075 218.974, 245 220.156 C 247.171 221.489, 250.398 222.372, 253.500 222.482 C 257.842 222.636, 258.672 223.011, 259.805 225.330 C 262.366 230.573, 268.205 227.305, 267.260 221.158 C 266.611 216.940, 262.980 214.611, 253.802 212.523 C 250.076 211.676, 244.659 210.136, 241.764 209.101 C 238.869 208.066, 233.125 206.206, 229 204.968 C 221.815 202.812, 217.232 200.999, 214 199.032 C 213.175 198.530, 211.342 197.879, 209.927 197.585 C 208.512 197.291, 205.679 195.914, 203.632 194.525 C 199.182 191.505, 195.932 191.312, 193.565 193.928" stroke="none" fill="black" fill-rule="evenodd"/>
</svg>