<svg xmlns="http://www.w3.org/2000/svg" width="300" height="300" viewBox="0 0 300 300" version="1.1">
	<path d="M 108.760 2.750 C 107.498 4.175, 107.348 5.892, 107.952 12 C 108.360 16.125, 108.593 19.632, 108.469 19.794 C 108.346 19.956, 103.127 20.437, 96.872 20.862 C 90.618 21.288, 84.517 22.168, 83.316 22.818 C 82.114 23.468, 80.202 24, 79.066 24 C 76.670 24, 76.199 27.591, 78.250 30.219 C 79.364 31.647, 81.051 31.704, 93.795 30.741 C 105.847 29.831, 108.307 29.885, 109.470 31.081 C 110.916 32.569, 111.517 38.566, 111.193 48.271 C 110.977 54.720, 111.864 53.974, 99.813 57.849 C 96.135 59.032, 92.310 60.010, 91.313 60.022 C 90.316 60.034, 87.588 60.912, 85.250 61.973 C 80.476 64.140, 79.625 67.158, 82.750 70.840 C 84.497 72.898, 84.517 72.898, 93.212 71.046 C 98.004 70.025, 103.248 68.247, 104.866 67.095 C 109.347 63.905, 110 64.371, 110 70.757 C 110 78.615, 108.592 82.897, 104.750 86.716 C 102.963 88.494, 100.691 90.881, 99.703 92.021 C 98.321 93.615, 96.818 94.066, 93.203 93.969 C 90.616 93.900, 86.250 94.441, 83.500 95.172 L 78.500 96.500 77.908 102.681 C 77.366 108.346, 76.867 109.391, 71.934 115.181 C 68.973 118.657, 62.834 125.325, 58.292 130 C 53.749 134.675, 49.312 139.531, 48.430 140.792 C 47.549 142.052, 45.103 144.173, 42.993 145.504 C 37.997 148.658, 37.110 151.424, 40.080 154.585 C 42.687 157.360, 45.552 157.636, 49.636 155.506 C 51.211 154.685, 53.218 154.010, 54.095 154.006 C 54.972 154.003, 56.505 153.100, 57.500 152 C 58.495 150.900, 59.902 150, 60.626 150 C 62.851 150, 72.419 145.422, 73.872 143.662 C 74.627 142.748, 75.887 142, 76.671 142 C 77.455 142, 80.667 140.313, 83.808 138.250 C 91.449 133.232, 94.861 131.528, 95.662 132.329 C 96.342 133.009, 93.821 142.108, 91.458 147.500 C 90.735 149.150, 89.568 152.300, 88.865 154.500 C 88.162 156.700, 87.057 159.175, 86.411 160 C 85.765 160.825, 84.908 162.625, 84.507 164 C 84.106 165.375, 83.176 167.850, 82.441 169.500 C 81.705 171.150, 80.146 175.399, 78.976 178.943 C 77.806 182.487, 75.713 187.437, 74.324 189.943 C 69.555 198.553, 64.687 206.503, 62.962 208.500 C 62.011 209.600, 60.471 212.009, 59.538 213.852 C 57.735 217.418, 49.187 226.326, 44.745 229.268 C 40.555 232.043, 42.158 234.335, 47.903 233.783 C 51.418 233.446, 53.272 232.574, 55.753 230.094 C 57.539 228.308, 59 226.483, 59 226.038 C 59 225.594, 60.125 224.493, 61.500 223.592 C 62.875 222.691, 64 221.095, 64 220.045 C 64 218.995, 65.349 217.176, 66.998 216.002 C 68.646 214.828, 70.288 212.660, 70.646 211.184 C 71.004 209.708, 73.030 206.304, 75.149 203.619 C 77.267 200.935, 79 198.368, 79 197.914 C 79 197.460, 80.171 195.381, 81.601 193.294 C 84.843 188.567, 88.209 181.041, 90.008 174.500 C 90.764 171.750, 92.137 168.150, 93.059 166.500 C 93.980 164.850, 95.300 161.371, 95.992 158.769 C 98.005 151.193, 98.998 151.136, 105.226 158.238 C 112.506 166.539, 120.028 176.071, 122.500 180.123 C 123.600 181.927, 124.987 184.203, 125.582 185.181 C 126.177 186.158, 131.352 191.962, 137.082 198.077 C 142.812 204.192, 148.370 210.614, 149.433 212.348 C 150.496 214.082, 153.247 217.750, 155.546 220.500 C 157.845 223.250, 160.575 226.850, 161.613 228.500 C 162.651 230.150, 166.768 234.928, 170.762 239.118 C 178.158 246.876, 183.949 254.563, 183.982 256.667 C 183.992 257.308, 184.364 257.983, 184.808 258.167 C 185.253 258.350, 187.115 260.750, 188.947 263.500 C 190.779 266.250, 192.778 268.954, 193.389 269.510 C 195.542 271.467, 203 280.868, 203 281.625 C 203 282.850, 208.262 288, 209.513 288 C 210.139 288, 211.690 286.894, 212.960 285.543 C 215.165 283.196, 215.198 282.938, 213.704 279.793 C 212.843 277.982, 210.703 275.150, 208.948 273.500 C 207.193 271.850, 205.249 269.344, 204.628 267.931 C 202.444 262.956, 192.425 249.727, 185.750 243.004 C 182.037 239.265, 179 235.569, 179 234.791 C 179 234.013, 177.645 232.374, 175.988 231.149 C 174.332 229.925, 171.900 227.217, 170.584 225.132 C 169.268 223.048, 166.461 219.263, 164.346 216.722 C 162.230 214.181, 158.700 209.766, 156.500 206.910 C 154.300 204.055, 150.250 199.345, 147.500 196.443 C 136.651 184.995, 130.192 176.881, 127.237 170.987 C 125.992 168.505, 120.030 161.446, 113.987 155.301 C 104.922 146.081, 103 143.601, 103 141.122 C 103 139.470, 103.392 137.876, 103.871 137.580 C 104.350 137.284, 104.993 135.783, 105.301 134.244 C 106.103 130.234, 109.752 126, 112.406 126 C 113.649 126, 114.987 125.679, 115.379 125.287 C 116.617 124.050, 125.404 121.002, 127.736 121.001 C 131.032 121, 139.084 119.014, 142.339 117.400 C 143.900 116.625, 145.655 116.287, 146.240 116.648 C 146.825 117.010, 147.872 116.528, 148.567 115.578 C 149.596 114.170, 151.840 113.780, 160.665 113.476 C 170.731 113.128, 171.757 113.271, 175.126 115.483 C 179.333 118.246, 180.129 121.088, 179.470 131 C 179.006 137.965, 178.881 138.375, 174.427 147.493 C 169.220 158.154, 151.474 172.928, 148.848 168.789 C 148.399 168.080, 148.021 166.375, 148.010 165 C 147.984 161.716, 143.798 156.480, 141.810 157.243 C 139.730 158.041, 138.773 167.168, 140.165 172.916 C 141.408 178.044, 143.947 181.328, 148.379 183.539 C 151.163 184.928, 151.598 184.868, 154.931 182.642 C 156.894 181.331, 161.003 177.837, 164.063 174.879 C 167.122 171.921, 171.322 167.938, 173.395 166.029 C 177.999 161.790, 182.238 155.987, 185.105 150 C 186.290 147.525, 187.661 144.703, 188.152 143.729 C 188.642 142.754, 189.328 136.357, 189.674 129.513 L 190.305 117.070 186.269 113.285 C 177.536 105.094, 176.167 104.509, 163.429 103.529 C 157.947 103.107, 155.026 103.430, 150.429 104.968 C 147.168 106.058, 143.539 106.962, 142.364 106.975 C 141.190 106.989, 138.940 107.672, 137.364 108.494 C 135.789 109.315, 133.698 109.990, 132.718 109.994 C 131.738 109.997, 129.263 110.715, 127.218 111.589 C 122.642 113.545, 113.651 115.985, 113.090 115.423 C 112.559 114.892, 115.087 106.800, 116.174 105.550 C 116.628 105.027, 117 103.860, 117 102.955 C 117 100.241, 120.190 98.257, 125.750 97.514 C 130.929 96.822, 131 96.766, 131 93.375 C 131 91.242, 130.431 89.719, 129.500 89.362 C 127.950 88.767, 127.410 85.423, 128.768 84.833 C 129.191 84.650, 130.984 81.535, 132.752 77.910 C 135.342 72.603, 136.019 69.878, 136.234 63.910 L 136.500 56.500 132.038 54.250 C 129.584 53.013, 126.434 51.993, 125.038 51.985 C 123.642 51.976, 121.825 51.540, 121 51.015 C 119.750 50.220, 119.713 49.717, 120.780 47.996 C 121.766 46.406, 121.805 45.078, 120.951 42.216 C 120.341 40.172, 119.990 36.700, 120.171 34.500 C 120.453 31.071, 120.857 30.464, 123 30.247 C 128.261 29.714, 136.593 27.649, 138.715 26.353 C 139.933 25.609, 141.761 25, 142.778 25 C 143.794 25, 145.835 23.738, 147.313 22.195 C 150.590 18.775, 150.879 14.106, 147.978 11.480 C 146.070 9.754, 145.774 9.744, 142.728 11.312 C 140.953 12.226, 138.375 13.865, 137 14.954 C 134.384 17.026, 119.670 20.532, 117.977 19.486 C 117.440 19.154, 117 16.091, 117 12.681 C 117 7.425, 116.612 6.062, 114.460 3.740 C 111.478 0.525, 110.831 0.412, 108.760 2.750 M 120.382 64.191 C 119.938 64.909, 119.491 67.138, 119.388 69.145 C 119.285 71.152, 118.900 73.740, 118.533 74.897 C 118.008 76.549, 118.288 77, 119.838 77 C 122.272 77, 127.270 68.913, 126.815 65.712 C 126.451 63.157, 121.714 62.036, 120.382 64.191 M 93.529 103.873 C 91.533 104.301, 89.893 105.675, 88.529 108.062 C 85.642 113.115, 74.819 126, 73.461 126 C 72.492 126, 71.623 127.275, 69.199 132.250 C 68.463 133.759, 71.643 132.931, 77.500 130.089 C 80.800 128.487, 86.980 125.730, 91.234 123.961 C 95.487 122.192, 99.458 120.153, 100.058 119.430 C 102.220 116.825, 105.003 105.709, 103.843 104.311 C 102.713 102.949, 98.646 102.777, 93.529 103.873" stroke="none" fill="black" fill-rule="evenodd"/>
</svg>