<svg xmlns="http://www.w3.org/2000/svg" width="300" height="300" viewBox="0 0 300 300" version="1.1">
	<path d="M 170.315 40.064 C 165.017 47.713, 158.756 55, 157.481 55 C 156.285 55, 153.622 52.149, 148.174 45.037 C 145.272 41.249, 141.684 41.026, 139.413 44.493 C 136.945 48.260, 138.366 51.610, 145.057 57.793 C 148.326 60.814, 151 63.737, 151 64.290 C 151 64.842, 149.523 67.140, 147.717 69.397 C 142.475 75.948, 134.997 89.703, 135.033 92.727 C 135.073 96.030, 138.470 100.487, 140.248 99.569 C 140.936 99.213, 142.624 98.280, 143.998 97.495 C 147.749 95.353, 148.766 97.211, 149.316 107.212 C 149.858 117.062, 149.950 116.896, 141.656 121 C 136.114 123.742, 134.337 125.829, 135.333 128.425 C 135.895 129.890, 136.927 130.030, 142.861 129.445 C 147.965 128.942, 149.942 129.097, 150.528 130.045 C 151.919 132.296, 151.397 147.040, 149.875 148.471 C 148.189 150.058, 138.448 153.709, 130.916 155.578 C 123.374 157.449, 118.025 159.771, 117.379 161.453 C 117.086 162.218, 117.372 163.827, 118.015 165.028 C 118.993 166.856, 119.700 167.093, 122.342 166.480 C 124.079 166.077, 127.750 165.410, 130.500 164.996 C 135.310 164.274, 140.581 162.689, 144.236 160.866 C 145.191 160.390, 147.104 160, 148.486 160 C 150.947 160, 151 160.157, 151 167.490 L 151 174.981 146.250 178.480 C 143.637 180.404, 139.590 182.923, 137.256 184.076 C 134.921 185.229, 132.757 186.584, 132.447 187.087 C 132.136 187.589, 131.078 188, 130.096 188 C 129.114 188, 127.495 188.900, 126.500 190 C 125.505 191.100, 123.480 192, 122 192 C 116.975 192, 113.806 198.755, 117.823 200.905 C 121.087 202.652, 128.499 201.484, 132.234 198.635 C 134.134 197.186, 136.154 196, 136.722 196 C 137.290 196, 138.337 195.299, 139.048 194.442 C 141.206 191.842, 149.063 187.661, 149.997 188.616 C 151.123 189.768, 149.310 251.866, 148.073 254.500 C 147.557 255.600, 146.685 259.875, 146.136 264 C 145.587 268.125, 144.837 272.698, 144.469 274.161 C 143.950 276.230, 144.252 277.065, 145.828 277.908 C 148.576 279.379, 150.765 278.355, 152.645 274.720 C 155.133 269.909, 156.117 261.860, 156.642 242.024 C 156.911 231.862, 157.542 223.051, 158.046 222.445 C 159.244 221.001, 158.940 207.875, 157.669 206.208 C 157.010 205.342, 157.067 204.533, 157.842 203.758 C 158.566 203.034, 159 198.822, 159 192.523 C 159 181.061, 159.909 178.900, 165.763 176.455 C 170.652 174.412, 176 170.230, 176 168.449 C 176 167.652, 176.872 167, 177.939 167 C 179.499 167, 179.997 167.927, 180.490 171.750 C 180.828 174.362, 181.531 179.425, 182.053 183 C 183.169 190.646, 182.593 249.177, 181.230 266.500 C 179.687 286.122, 177.048 291.041, 171.842 284 C 169.689 281.088, 165.765 279.954, 164.564 281.896 C 163.093 284.277, 173.781 296.405, 178.365 297.555 C 181.625 298.374, 186 295.784, 186 293.036 C 186 291.981, 186.359 290.896, 186.797 290.625 C 187.236 290.354, 187.706 286.885, 187.843 282.916 C 187.979 278.947, 188.491 274.951, 188.981 274.036 C 189.471 273.121, 190.191 266.204, 190.582 258.665 C 191.273 245.336, 191.351 244.976, 193.397 245.617 C 194.553 245.979, 196.573 247.113, 197.885 248.138 C 199.197 249.162, 201.279 250, 202.512 250 C 205.661 250, 219.145 252.922, 221.238 254.059 C 223.713 255.402, 240.867 261.035, 241.757 260.796 C 242.368 260.632, 252.526 265.193, 262.673 270.186 C 267.586 272.604, 272.428 268.538, 270.012 264.023 C 268.750 261.665, 262.218 258.468, 256.788 257.551 C 254.747 257.206, 250.697 255.874, 247.788 254.591 C 244.880 253.308, 240.925 251.931, 239 251.531 C 237.075 251.131, 234.481 250.158, 233.236 249.370 C 229.855 247.228, 219.238 244.088, 213 243.384 C 209.975 243.043, 206.503 242.142, 205.285 241.382 C 204.067 240.622, 202.148 240, 201.022 240 C 199.895 240, 197.966 239.480, 196.736 238.845 C 195.506 238.209, 193.914 237.422, 193.198 237.095 C 192.196 236.637, 191.801 230.742, 191.482 211.500 C 191.248 197.356, 190.405 181.506, 189.542 175 C 187.169 157.114, 186.274 159.295, 199.997 149.500 C 201.595 148.359, 203.037 146.211, 203.352 144.500 C 203.656 142.850, 204.193 140.102, 204.545 138.393 C 205.384 134.318, 202.680 133.012, 199.530 135.972 C 196.918 138.425, 196 138.529, 196 136.371 C 196 133.209, 209.249 119.267, 216.208 115.106 C 223.634 110.666, 226.602 104.861, 223.965 99.934 C 222.551 97.293, 220.831 97.504, 217.329 100.750 C 215.696 102.263, 213.042 104.585, 211.430 105.911 C 209.819 107.237, 206.811 109.825, 204.747 111.661 C 200.147 115.754, 199.179 115.811, 197.873 112.066 C 196.613 108.451, 193.649 106.433, 187.343 104.894 C 179.283 102.927, 178.682 102.389, 179.417 97.793 C 180.115 93.428, 178.905 91, 176.033 91 C 172.795 91, 171 94.313, 171 100.290 C 171 106.340, 168.985 109.464, 164.327 110.633 C 160.858 111.503, 160.285 110.537, 159.538 102.560 C 158.941 96.187, 159.107 94.722, 160.669 92.577 C 161.676 91.194, 162.993 90.049, 163.595 90.031 C 164.197 90.014, 165.489 89.117, 166.466 88.038 C 167.443 86.958, 169.733 85.583, 171.555 84.982 C 176.146 83.467, 182.358 76.460, 181.604 73.648 C 181.287 72.466, 181.021 70.938, 181.014 70.250 C 181.005 69.492, 179.629 69, 177.515 69 C 174.050 69, 166.581 72.852, 160.673 77.687 C 157.895 79.960, 154 80.816, 154 79.154 C 154 77.052, 157.296 72.060, 160.751 68.928 C 162.831 67.043, 167.332 62.125, 170.753 58 C 174.175 53.875, 177.655 49.712, 178.487 48.750 C 180.805 46.069, 180.367 41.276, 177.545 38.455 C 176.195 37.105, 174.650 36, 174.110 36 C 173.571 36, 171.863 37.829, 170.315 40.064 M 68.081 88.625 C 66.407 90.752, 66.149 92.030, 66.715 95.375 C 67.100 97.644, 67.412 101.975, 67.410 105 C 67.403 112.042, 65.019 129.208, 63.875 130.450 C 63.394 130.972, 62.989 132.997, 62.976 134.950 C 62.963 136.902, 62.496 140.300, 61.939 142.500 C 61.382 144.700, 60.518 148.750, 60.020 151.500 C 58.652 159.043, 58.003 161.852, 55.864 169.500 C 52.728 180.709, 49.566 190.150, 48.787 190.632 C 48.390 190.877, 48.322 192.358, 48.635 193.924 C 49.158 196.541, 48.551 197.261, 41.095 202.869 C 36.634 206.223, 31.219 209.868, 29.060 210.969 C 26.902 212.070, 24.871 213.399, 24.548 213.922 C 23.774 215.175, 18.069 218, 16.313 218 C 11.064 218, -0.938 228.112, 0.344 231.455 C 1.310 233.972, 6.734 234.351, 10.266 232.148 C 13.662 230.029, 20.431 226.601, 25.500 224.432 C 27.150 223.726, 30.181 222.422, 32.236 221.534 C 34.292 220.646, 36.445 219.037, 37.022 217.959 C 37.598 216.882, 38.728 216, 39.532 216 C 40.336 216, 42.779 214.388, 44.959 212.418 C 49.151 208.631, 51 208.631, 51 212.419 C 51 213.685, 52.607 216.424, 54.572 218.507 C 58.513 222.686, 58.607 225.619, 54.926 229.564 C 53.867 230.700, 53 231.971, 53 232.389 C 53 232.808, 51.033 236.154, 48.629 239.825 C 42.079 249.827, 31.286 261.854, 27.402 263.477 C 23.687 265.029, 22.489 269.019, 25.750 268.978 C 28.058 268.949, 35.564 265.514, 36.449 264.082 C 36.832 263.462, 39.588 261.151, 42.573 258.946 C 45.558 256.741, 48 254.324, 48 253.575 C 48 252.827, 48.625 251.974, 49.388 251.681 C 50.151 251.388, 53.263 247.853, 56.303 243.824 C 64.279 233.255, 66.817 231.108, 70.635 231.704 C 72.360 231.973, 75.896 233.950, 78.494 236.097 C 81.092 238.243, 83.757 240, 84.417 240 C 85.077 240, 86.940 241.803, 88.558 244.007 C 90.176 246.211, 92.513 248.284, 93.750 248.615 C 94.987 248.946, 96 249.628, 96 250.130 C 96 250.632, 97.112 251.549, 98.470 252.168 C 100.359 253.029, 101.301 252.995, 102.470 252.025 C 104.429 250.399, 104.447 245.616, 102.500 244 C 101.675 243.315, 101 242.248, 101 241.628 C 101 239.574, 81.159 224.717, 75.727 222.703 C 72.749 221.598, 72.660 219.216, 75.388 213.638 C 76.825 210.703, 78 207.648, 78 206.850 C 78 206.053, 78.372 204.973, 78.826 204.450 C 80.981 201.972, 82.776 190.691, 83.300 176.328 C 83.481 171.343, 80.971 168, 77.045 168 C 73.891 168, 72.015 169.641, 71.959 172.450 C 71.900 175.417, 64.119 183.810, 63.042 182.069 C 62.239 180.769, 63.081 176.296, 64.587 173.860 C 65.491 172.396, 66.862 166.411, 67.989 159 C 68.449 155.975, 69.305 151.700, 69.891 149.500 C 75.309 129.153, 78.565 99.792, 75.945 94.898 C 75.425 93.926, 75 92.272, 75 91.221 C 75 89.472, 72.169 86, 70.744 86 C 70.415 86, 69.216 87.181, 68.081 88.625 M 181.882 115.250 C 181.816 115.938, 181.885 116.950, 182.034 117.500 C 182.183 118.050, 182.574 120.263, 182.903 122.419 C 183.613 127.077, 185.128 127.872, 187.938 125.063 C 190.393 122.607, 190.583 119.278, 188.443 116.223 C 186.775 113.840, 182.081 113.145, 181.882 115.250 M 168 118.939 C 167.175 119.405, 165.330 120.244, 163.900 120.803 C 161.451 121.762, 161.262 122.336, 160.625 130.764 C 159.953 139.667, 160.368 143, 162.150 143 C 163.518 143, 174.053 135.052, 174.512 133.674 C 174.726 133.028, 174.361 129.354, 173.701 125.510 C 172.480 118.406, 171.317 117.065, 168 118.939 M 173 148 C 172.175 148.533, 170.643 148.976, 169.596 148.985 C 168.549 148.993, 166.016 150.816, 163.967 153.035 C 160.833 156.430, 160.170 157.939, 159.789 162.535 C 159.383 167.423, 159.539 168, 161.264 168 C 164.492 168, 175.488 157.582, 176.956 153.132 C 178.737 147.736, 176.965 145.438, 173 148 M 69.505 184.983 C 69.159 186.074, 66.860 188.982, 64.395 191.447 L 59.915 195.928 60.207 203.714 C 60.472 210.765, 60.699 211.528, 62.612 211.801 C 64.179 212.025, 65.145 211.213, 66.362 208.650 C 67.263 206.751, 67.998 204.591, 67.996 203.849 C 67.994 203.107, 69.184 198.831, 70.640 194.348 C 73.141 186.651, 73.288 183, 71.099 183 C 70.569 183, 69.852 183.892, 69.505 184.983 M 135.008 233.893 C 133.637 234.274, 132.062 235.476, 131.508 236.564 C 129.299 240.897, 120.666 251.187, 113.772 257.702 C 99.381 271.304, 97.906 272.423, 95.965 271.211 C 92.447 269.013, 90.006 269.742, 88.456 273.452 C 86.624 277.836, 87.901 281.632, 91.693 283.073 C 95.481 284.514, 98.586 283.498, 102.747 279.458 C 104.705 277.556, 106.852 276, 107.517 276 C 108.183 276, 109.975 274.200, 111.500 272 C 113.025 269.800, 114.774 268, 115.386 268 C 116.945 268, 123.654 261.442, 129 254.694 C 131.475 251.570, 133.822 249.011, 134.217 249.007 C 134.611 249.003, 136.523 247.410, 138.467 245.467 C 142.466 241.468, 143.119 237.323, 140.171 234.655 C 139.165 233.745, 138.153 233.045, 137.921 233.100 C 137.690 233.155, 136.379 233.511, 135.008 233.893" stroke="none" fill="black" fill-rule="evenodd"/>
</svg>