<svg xmlns="http://www.w3.org/2000/svg" width="300" height="300" viewBox="0 0 300 300" version="1.1">
	<path d="M 57.551 53.344 C 54.661 57.133, 54.418 58.661, 56.348 60.921 C 57.089 61.790, 58.371 66.100, 59.197 70.500 C 60.971 79.953, 60.785 94.066, 58.602 115.500 C 57.762 123.750, 56.846 134.325, 56.566 139 C 56.286 143.675, 55.611 149.750, 55.065 152.500 C 52.223 166.815, 53.217 165.262, 43.500 170.582 C 41.850 171.485, 39.150 173.442, 37.500 174.930 C 35.850 176.419, 29.486 180.969, 23.358 185.041 C 15.069 190.550, 11.486 193.605, 9.365 196.973 C 3.663 206.024, 3.748 205.748, 5.979 207.979 C 7.091 209.091, 8.835 210, 9.856 210 C 10.876 210, 14.814 206.826, 18.606 202.946 C 22.398 199.067, 27.525 194.821, 30 193.510 C 35.020 190.852, 45.425 181.455, 46.343 178.750 C 47.035 176.713, 49.336 176.449, 50.706 178.250 C 51.229 178.938, 51.741 183.198, 51.843 187.719 C 52.059 197.209, 54.544 203, 58.399 203 C 60.782 203, 63 204.710, 63 206.547 C 63 207.178, 60.525 211.392, 57.500 215.911 C 54.475 220.430, 52 224.559, 52 225.085 C 52 226.503, 46.909 234.196, 44.446 236.500 C 43.270 237.600, 39.685 241.324, 36.478 244.774 C 28.897 252.934, 29.781 254.299, 40.447 250.902 C 45.936 249.154, 47.991 248.036, 47.995 246.798 C 47.998 245.862, 49.603 243.540, 51.561 241.638 C 54.950 238.347, 62 227.719, 62 225.902 C 62 225.431, 63.098 224.327, 64.440 223.447 C 65.783 222.568, 67.020 220.915, 67.190 219.774 C 67.361 218.634, 68.712 216.799, 70.193 215.698 C 72.732 213.809, 73.030 213.789, 75.408 215.347 C 76.795 216.256, 79.001 217, 80.310 217 C 81.619 217, 83.505 217.900, 84.500 219 C 85.495 220.100, 86.960 221, 87.754 221 C 88.548 221, 91.066 222.929, 93.349 225.287 C 98.436 230.540, 102.329 232.430, 105.057 230.969 C 107.333 229.752, 107.351 229.589, 105.735 224.971 C 105.056 223.029, 102.587 219.715, 100.250 217.604 C 95.532 213.345, 94.842 210.140, 97.526 204.950 C 98.663 202.750, 99.763 202, 101.848 202 C 106.476 202, 113.757 199.019, 115.454 196.429 C 116.431 194.939, 118.004 194, 119.523 194 C 121.657 194, 122 194.456, 122 197.289 C 122 199.097, 121.143 202.258, 120.096 204.312 C 118.557 207.331, 118.397 208.591, 119.263 210.885 C 120.171 213.291, 119.979 214.221, 118 217 C 115.419 220.625, 114.976 225.061, 116.956 227.447 C 118.829 229.704, 120.502 229.376, 124.347 226 C 128.617 222.251, 129.562 222.252, 131.505 226.009 C 132.981 228.863, 139.475 232.736, 143 232.865 C 143.825 232.895, 145.698 233.208, 147.162 233.559 C 151.658 234.640, 153.090 231.018, 154.615 214.707 C 155.345 206.893, 156.253 199.375, 156.633 198 C 157.012 196.625, 157.462 192.350, 157.631 188.500 C 157.801 184.650, 158.195 179.025, 158.507 176 C 158.820 172.975, 159.313 165.325, 159.603 159 C 159.893 152.675, 160.440 141.200, 160.817 133.500 C 161.351 122.610, 161.201 118.873, 160.141 116.676 C 159.388 115.114, 159.037 112.566, 159.355 110.974 C 159.690 109.302, 159.319 106.922, 158.472 105.298 C 157.669 103.759, 157.010 101.860, 157.006 101.079 C 157.003 100.297, 156.283 98.866, 155.407 97.898 C 154.532 96.930, 153.069 94.691, 152.157 92.923 C 151.094 90.860, 149.131 89.174, 146.682 88.220 C 143.159 86.847, 142.281 86.901, 135.359 88.912 C 123.250 92.430, 114.520 100.424, 115.196 107.374 C 115.468 110.170, 115.878 110.532, 119.084 110.800 C 122.333 111.073, 122.930 110.700, 125.486 106.800 C 128.759 101.805, 130.217 100.739, 135 99.847 C 136.925 99.488, 139.468 98.884, 140.652 98.506 C 142.351 97.963, 143.130 98.416, 144.353 100.659 C 149.051 109.274, 149.805 112.806, 150.083 127.500 C 150.528 150.957, 150.437 151.722, 147.014 153.493 C 145.372 154.342, 143.761 156.104, 143.434 157.409 C 142.680 160.413, 137.513 165.435, 136.085 164.552 C 134.737 163.720, 135.586 155.925, 137.532 151.269 C 138.311 149.404, 140.536 146.024, 142.475 143.759 C 148.243 137.020, 147.292 134.590, 138.566 133.774 C 134.996 133.441, 134.050 130.770, 133.867 120.500 C 133.729 112.765, 132.899 111, 129.403 111 C 125.664 111, 123.703 115.873, 124.429 123.361 C 124.756 126.738, 125.213 132.522, 125.444 136.215 L 125.863 142.930 121.048 146.465 C 118.399 148.409, 115.811 150, 115.296 150 C 114.781 150, 112.479 151.610, 110.180 153.578 C 105.164 157.871, 104.539 161.813, 108.465 164.385 C 111.834 166.593, 112.625 166.453, 116.304 163.005 C 119.573 159.941, 122.376 159.182, 123.529 161.047 C 123.885 161.623, 124.177 165.336, 124.179 169.297 L 124.181 176.500 119.840 180.250 C 117.453 182.312, 113.925 184.743, 112 185.651 C 110.075 186.559, 106.933 188.359, 105.018 189.651 C 103.103 190.943, 100.081 192, 98.303 192 C 94.270 192, 93 194.131, 93 200.899 C 93 204.759, 92.572 206.159, 91.162 206.913 C 89.166 207.982, 85 207.299, 85 205.904 C 85 205.429, 83.200 204.122, 81 203 C 78.800 201.878, 77 200.363, 77 199.635 C 77 198.906, 77.938 195.653, 79.084 192.405 C 80.231 189.157, 81.408 185.257, 81.700 183.738 C 81.992 182.219, 82.629 180.729, 83.115 180.429 C 83.602 180.128, 84 177.974, 84 175.641 C 84 173.308, 84.388 170.973, 84.862 170.450 C 86.425 168.727, 87.539 161.624, 87.519 153.503 L 87.500 145.507 83.285 144.046 C 79.221 142.638, 78.977 142.673, 76.478 145.021 C 74.677 146.712, 74.072 148.073, 74.495 149.478 C 75.668 153.375, 76.040 164.857, 75.014 165.491 C 74.456 165.836, 74 167.615, 74 169.444 C 74 171.274, 73.351 174.960, 72.558 177.635 C 71.764 180.311, 70.541 184.637, 69.839 187.250 C 68.797 191.128, 68.151 192, 66.317 192 C 63.119 192, 61.985 189.128, 62.100 181.316 C 62.232 172.238, 63.055 169.576, 65.852 169.172 C 68.942 168.727, 69.350 167.082, 67.482 162.610 C 66.148 159.419, 66.015 156.297, 66.628 142.663 C 67.029 133.773, 67.389 124.475, 67.428 122 C 67.468 119.525, 67.786 117.050, 68.137 116.500 C 70.791 112.331, 71.036 70.497, 68.467 60.167 C 65.816 49.507, 62.201 47.247, 57.551 53.344 M 210.139 52.033 C 208.841 53.115, 206.976 54, 205.996 54 C 205.016 54, 203.978 54.616, 203.689 55.369 C 202.542 58.358, 184.716 68.506, 177 70.563 C 175.625 70.930, 173.498 72.147, 172.272 73.268 L 170.044 75.307 172.206 79.153 C 173.395 81.269, 174.801 83, 175.329 83 C 175.858 83, 179.565 81.425, 183.567 79.500 C 187.569 77.575, 191.612 76, 192.551 76 C 193.489 76, 196.001 74.425, 198.132 72.500 C 200.262 70.575, 202.653 69, 203.444 69 C 205.419 69, 206.383 70.832, 205.178 72.294 C 204.265 73.402, 202.423 81.109, 201.291 88.556 C 200.752 92.104, 201.615 92.959, 208.184 95.385 C 211.994 96.792, 213.859 96.932, 218.184 96.134 C 221.108 95.595, 223.865 95.507, 224.310 95.938 C 224.756 96.368, 224.981 98.907, 224.810 101.578 C 224.549 105.673, 224.070 106.676, 221.759 107.968 C 219.858 109.030, 218.599 109.193, 217.655 108.500 C 216.906 107.950, 214.090 105.812, 211.397 103.750 C 204.949 98.812, 202.390 98.165, 199.750 100.806 C 197.389 103.166, 196.950 111.030, 199.038 113.546 C 199.962 114.659, 199.993 116.039, 199.165 119.257 C 198.443 122.063, 198.112 139.583, 198.186 171 C 198.425 271.525, 197.816 288.234, 193.750 292.725 C 192.787 293.788, 192 295.860, 192 297.329 C 192 299.945, 192.131 300, 198.393 300 C 203.524 300, 204.917 299.659, 205.448 298.275 C 205.812 297.326, 206.098 288.889, 206.085 279.525 C 206.071 270.161, 206.506 258.450, 207.053 253.500 C 207.599 248.550, 208.255 230.775, 208.510 214 C 208.765 197.225, 209.252 176.300, 209.592 167.500 C 209.932 158.700, 210.362 144.750, 210.548 136.500 C 210.733 128.250, 210.911 120.938, 210.942 120.250 C 211.022 118.512, 212.437 118.681, 217.246 121.005 C 221.320 122.973, 222.686 122.947, 228.303 120.790 C 231.579 119.532, 235 113.509, 235 109 C 235 107.306, 235.898 104.161, 236.994 102.011 C 238.555 98.952, 238.773 97.532, 237.994 95.486 C 237.448 94.047, 237 91.704, 237 90.279 C 237 88.855, 235.852 86.184, 234.449 84.344 C 232.248 81.459, 231.304 81, 227.563 81 C 225.179 81, 221.940 81.672, 220.364 82.494 C 218.789 83.315, 216.660 83.990, 215.633 83.994 C 214.094 83.999, 213.889 83.518, 214.464 81.250 C 214.847 79.737, 215.400 76.700, 215.693 74.500 C 215.986 72.300, 216.566 70.050, 216.982 69.500 C 217.399 68.950, 218.330 65.466, 219.052 61.758 C 220.332 55.182, 220.306 54.955, 218.008 52.508 C 215.192 49.512, 213.303 49.398, 210.139 52.033 M 145.092 168.177 C 144.590 169.455, 142.595 172.155, 140.660 174.178 C 134.918 180.178, 133.857 182.399, 133.857 188.413 C 133.857 191.464, 134.147 194.430, 134.502 195.004 C 134.857 195.578, 134.469 197.949, 133.640 200.274 C 132.812 202.598, 131.856 206.914, 131.517 209.864 L 130.901 215.227 135.700 219.637 C 138.340 222.062, 141.175 223.919, 142 223.763 C 143.684 223.444, 144.739 216.872, 144.901 205.684 C 144.955 201.936, 145.470 197.991, 146.044 196.918 C 146.618 195.845, 147.493 189.687, 147.988 183.234 C 148.483 176.780, 149.026 170.389, 149.194 169.031 C 149.612 165.657, 146.351 164.978, 145.092 168.177" stroke="none" fill="black" fill-rule="evenodd"/>
</svg>