<svg xmlns="http://www.w3.org/2000/svg" width="300" height="300" viewBox="0 0 300 300" version="1.1">
	<path d="M 161.342 51 C 159.872 52.650, 158.181 54.033, 157.585 54.074 C 156.988 54.115, 153.800 56.120, 150.500 58.530 C 147.200 60.940, 142.272 64.110, 139.549 65.575 C 136.826 67.039, 133.313 69.187, 131.744 70.348 C 130.174 71.508, 127.048 73.142, 124.798 73.979 C 122.547 74.816, 119.829 76.677, 118.758 78.116 C 116.905 80.603, 116.892 80.890, 118.483 83.968 C 119.981 86.864, 120.490 87.137, 123.328 86.571 C 130.272 85.184, 130.437 85.240, 130.537 89 C 130.588 90.925, 131.215 97.149, 131.930 102.831 C 133.414 114.624, 132.778 149.824, 130.996 154.511 C 130.403 156.070, 130.159 157.973, 130.454 158.740 C 130.748 159.508, 130.355 163.368, 129.580 167.318 C 128.804 171.268, 127.875 176.300, 127.515 178.500 C 127.155 180.700, 126.197 184.488, 125.385 186.919 C 124.072 190.851, 124.078 191.506, 125.441 192.869 C 126.816 194.245, 127.279 194.106, 129.986 191.513 C 131.644 189.925, 133 187.845, 133 186.890 C 133 185.935, 134.190 183.739, 135.644 182.011 C 138.043 179.160, 138.270 178.171, 138.090 171.353 C 137.980 167.219, 138.325 163.311, 138.857 162.668 C 139.388 162.026, 139.975 160.166, 140.162 158.535 C 140.495 155.610, 140.585 155.569, 146.750 155.493 C 153.655 155.409, 154.041 155.877, 151.586 161.349 C 150.809 163.082, 149.428 167.988, 148.518 172.250 C 147.608 176.513, 146.496 180, 146.047 180 C 145.598 180, 144.490 181.130, 143.585 182.510 C 141.661 185.448, 142.727 188.461, 146.066 189.521 C 148.718 190.363, 158.330 186.623, 163.191 182.859 C 165.222 181.286, 167.176 180, 167.534 180 C 167.892 180, 169.329 179.100, 170.727 178 C 172.126 176.900, 174.059 176, 175.023 176 C 175.987 176, 179.065 174.425, 181.864 172.500 C 184.662 170.575, 187.335 169, 187.804 169 C 188.273 169, 190.708 167.642, 193.215 165.981 C 197.739 162.985, 197.795 162.975, 200.880 164.731 L 203.987 166.500 203.994 176.574 C 204 187.058, 201.640 205.935, 199.921 209.147 C 198.422 211.948, 195.417 211.421, 194.049 208.117 C 192.847 205.217, 187.392 200.757, 181.116 197.543 C 177.873 195.882, 177.625 195.889, 175.193 197.705 C 169.618 201.868, 169.639 206, 175.236 206 C 178.438 206, 186 210.160, 186 211.921 C 186 212.388, 188.062 215.275, 190.583 218.337 C 195.269 224.029, 195.416 224.754, 193.051 230.500 C 192.598 231.600, 191.687 234.525, 191.026 237 C 190.365 239.475, 189.003 243.300, 188 245.500 C 186.997 247.700, 185.619 251.398, 184.939 253.718 C 182.884 260.720, 175.548 267.314, 173.500 264 C 173.160 263.450, 172.113 263, 171.173 263 C 170.232 263, 166.772 260.542, 163.482 257.538 C 156.569 251.226, 154 250.527, 154 254.958 C 154 257.056, 155.109 259.018, 157.816 261.708 C 164.857 268.705, 171.485 274, 173.203 274 C 174.139 274, 176.064 274.528, 177.479 275.173 C 181.293 276.910, 186.835 274.076, 187.656 269.969 C 187.991 268.297, 189.105 266.479, 190.132 265.929 C 191.159 265.379, 192 264.403, 192 263.759 C 192 263.115, 193.559 259.418, 195.464 255.544 C 197.369 251.670, 199.718 245.688, 200.685 242.250 C 201.652 238.813, 202.988 236, 203.654 236 C 204.903 236, 207.690 239.624, 209.807 244 C 210.472 245.375, 213.052 249.650, 215.541 253.500 C 220.367 260.966, 228 275.744, 228 277.623 C 228 278.246, 228.675 279.315, 229.500 280 C 230.325 280.685, 231 282.513, 231 284.063 C 231 285.614, 231.372 287.112, 231.827 287.393 C 232.282 287.674, 233.478 290.626, 234.486 293.952 L 236.317 300 241.158 300 C 243.821 300, 246 299.731, 246 299.401 C 246 298.737, 243.347 292.476, 241.916 289.764 C 241.412 288.809, 241 287.340, 241 286.500 C 241 285.660, 240.595 284.191, 240.100 283.236 C 239.604 282.281, 238.389 278.800, 237.399 275.500 C 236.408 272.200, 234.606 268.123, 233.393 266.440 C 232.180 264.757, 230.096 261.157, 228.761 258.440 C 223.454 247.640, 214.606 233.578, 211.490 230.992 C 210.671 230.312, 210 229.190, 210 228.500 C 210 227.810, 209.350 226.706, 208.556 226.047 C 207.486 225.158, 207.260 223.510, 207.685 219.674 C 208 216.828, 208.650 214.073, 209.129 213.550 C 209.608 213.028, 210 210.467, 210 207.859 C 210 205.251, 210.450 202.840, 211 202.500 C 211.550 202.160, 212 199.974, 212 197.641 C 212 195.308, 212.445 192.955, 212.989 192.411 C 213.533 191.867, 214.167 186.772, 214.399 181.088 C 214.762 172.207, 214.553 170.315, 212.914 167.627 C 211.866 165.907, 211.006 163.686, 211.004 162.691 C 210.998 159.953, 205.150 153.248, 201.727 152.055 C 197.178 150.469, 195.191 150.752, 191.589 153.500 C 189.786 154.875, 188.007 156, 187.636 156 C 185.894 156, 169.098 164.666, 165.917 167.205 C 161.221 170.955, 159 170.182, 159 164.797 C 159 162.604, 159.646 159.614, 160.435 158.154 C 161.224 156.694, 162.639 153.352, 163.580 150.727 C 164.669 147.685, 167.390 143.793, 171.080 139.999 C 175.886 135.056, 176.988 133.260, 177.562 129.434 C 178.087 125.932, 177.886 124.457, 176.723 123.294 C 174.811 121.382, 173.575 122.129, 170.447 127.084 C 169.087 129.238, 167.531 131, 166.987 131 C 166.412 131, 166 127.305, 166 122.140 C 166 114.493, 166.321 112.806, 168.346 109.823 C 171.651 104.951, 172.249 101.801, 170.376 99.126 C 169.142 97.365, 168.197 97.017, 165.973 97.506 C 163.252 98.104, 163.115 97.950, 162.456 93.552 C 161.726 88.690, 158.778 84, 156.450 84 C 155.678 84, 154.294 85.149, 153.374 86.552 C 151.815 88.931, 151.813 89.509, 153.351 95.037 C 156.003 104.576, 155.611 108.021, 151.415 112.054 C 149.443 113.949, 147.166 116.766, 146.356 118.314 C 143.728 123.332, 142.543 121.014, 141.806 109.420 C 141.425 103.414, 140.650 96.025, 140.083 93 C 137.603 79.754, 137.570 80.563, 140.666 78.964 C 142.225 78.159, 144.095 76.938, 144.821 76.250 C 145.548 75.563, 146.988 75, 148.021 75 C 151.781 75, 168 62.825, 168 60.002 C 168 59.036, 168.675 57.685, 169.500 57 C 171.675 55.195, 171.408 50.289, 169.066 49.035 C 165.944 47.365, 164.182 47.813, 161.342 51 M 59.700 76.779 C 58.221 78.413, 58.220 78.966, 59.690 83.529 C 60.570 86.263, 61.613 89.181, 62.006 90.013 C 63.144 92.421, 63.131 119.712, 61.987 128.500 C 61.415 132.900, 60.701 139.425, 60.401 143 C 60.100 146.575, 59.458 150.400, 58.972 151.500 C 58.487 152.600, 57.882 155.975, 57.628 159 C 56.482 172.648, 51.780 191.929, 48.631 195.887 C 48.025 196.649, 45.722 198.101, 43.514 199.113 C 41.306 200.125, 36.350 202.757, 32.500 204.961 C 28.650 207.166, 23.996 209.723, 22.158 210.642 C 20.320 211.562, 16.432 214.494, 13.518 217.157 C 10.604 219.821, 7.735 222, 7.142 222 C 6.549 222, 5.425 223.219, 4.645 224.708 C 3.410 227.065, 3.421 227.713, 4.728 229.708 C 6.798 232.867, 9.186 232.587, 15 228.500 C 17.739 226.575, 20.234 225, 20.545 225 C 21.100 225, 35.074 216.397, 40 213.022 C 48.549 207.167, 53 207.180, 53 213.060 C 53 215.365, 53.600 216.278, 55.621 217.046 C 57.876 217.903, 58.157 218.463, 57.638 221.058 C 57.307 222.716, 55.574 225.969, 53.787 228.287 C 44.389 240.477, 39.655 246, 38.604 246 C 37.962 246, 34.628 248.755, 31.198 252.123 C 26.241 256.988, 25.194 258.529, 26.102 259.623 C 28.299 262.270, 31.654 261.108, 43.781 253.500 C 45.535 252.400, 47.404 250.260, 47.935 248.744 C 48.466 247.229, 50.024 245.561, 51.398 245.039 C 52.771 244.517, 54.704 242.832, 55.692 241.295 C 56.681 239.758, 58.861 237.150, 60.538 235.500 C 62.215 233.850, 64.510 231.196, 65.638 229.603 C 68.534 225.514, 70.800 226.406, 81.312 235.771 C 89.528 243.090, 91.536 245.828, 94.876 254.265 C 97.178 260.080, 106.010 260.088, 105.991 254.275 C 105.979 250.869, 101.563 243.025, 96.266 237 C 94.090 234.525, 91.774 231.488, 91.120 230.250 C 90.465 229.012, 89.343 228, 88.625 228 C 87.908 228, 85.963 226.537, 84.303 224.750 C 80.799 220.976, 74.838 216.045, 73.750 216.018 C 72.328 215.984, 73.004 212.624, 74.848 210.564 C 77.404 207.709, 80 200.642, 80 196.539 C 80 194.657, 80.450 192.840, 81 192.500 C 81.550 192.160, 82 188.859, 82 185.163 C 82 176.912, 80.342 174, 75.643 174 C 71.717 174, 70 175.527, 70 179.020 C 70 181.755, 66.100 186, 63.588 186 C 61.855 186, 62.385 180.837, 65.229 170 C 66.312 165.875, 67.300 161.150, 67.425 159.500 C 67.550 157.850, 68.205 155.471, 68.881 154.212 C 69.557 152.954, 69.812 150.983, 69.447 149.831 C 69.081 148.680, 69.259 145.210, 69.842 142.119 C 70.424 139.029, 71.411 131.550, 72.035 125.500 C 72.658 119.450, 73.627 113.543, 74.188 112.373 C 74.948 110.786, 74.814 109.642, 73.662 107.873 C 72.698 106.391, 71.918 102.119, 71.587 96.500 C 70.969 86.003, 70.349 83.230, 68.011 80.500 C 67.069 79.400, 66.020 77.713, 65.680 76.750 C 64.883 74.490, 61.758 74.505, 59.700 76.779 M 153.167 125.690 C 152.434 125.983, 150.980 128.213, 149.938 130.646 C 148.795 133.312, 146.844 135.751, 145.027 136.785 C 143.271 137.784, 142.004 139.335, 141.993 140.500 C 141.982 141.600, 141.701 143.512, 141.370 144.750 C 140.892 146.533, 141.181 147, 142.761 147 C 143.858 147, 145.315 146.325, 146 145.500 C 146.685 144.675, 147.830 144, 148.546 144 C 149.261 144, 151.231 142.835, 152.923 141.411 C 155.812 138.980, 156 138.401, 156 131.911 C 156 125.091, 155.795 124.641, 153.167 125.690 M 63.823 196.062 C 62.350 197.161, 60.858 199.371, 60.506 200.972 C 59.800 204.185, 61.349 208, 63.360 208 C 64.613 208, 70 197.619, 70 195.204 C 70 193.379, 66.827 193.819, 63.823 196.062 M 154.341 200.553 C 153.980 201.494, 154.205 203.099, 154.842 204.119 C 155.479 205.139, 156 206.477, 156 207.092 C 156 207.708, 157.125 209.548, 158.500 211.182 C 159.875 212.816, 161 214.984, 161 216 C 161 217.016, 162.125 219.184, 163.500 220.818 C 164.875 222.452, 166 224.500, 166 225.370 C 166 227.550, 169.342 232.851, 171.804 234.575 C 175.494 237.160, 177.115 235.434, 176.444 229.636 C 176.118 226.811, 175.475 223.600, 175.016 222.500 C 174.557 221.400, 173.911 219.825, 173.580 219 C 173.249 218.175, 172.116 216.150, 171.062 214.500 C 170.008 212.850, 169.094 210.825, 169.030 210 C 168.967 209.175, 167.246 206.634, 165.207 204.353 C 160.947 199.586, 155.450 197.664, 154.341 200.553 M 125.204 204.570 L 122.963 206.139 125.020 208.820 C 131.006 216.619, 135 222.589, 135 223.737 C 135 224.446, 135.395 225.809, 135.878 226.764 C 136.361 227.719, 137.473 230.176, 138.349 232.224 C 140.804 237.959, 147 238.787, 147 233.379 C 147 230.016, 139.602 213.718, 136.351 209.921 C 135.608 209.053, 135 207.841, 135 207.228 C 135 205.799, 131.028 203, 129 203 C 128.145 203, 126.437 203.706, 125.204 204.570 M 95.750 214.080 C 92.965 215.702, 93.676 218.240, 98.500 223.891 C 101.051 226.880, 103 230.177, 103 231.505 C 103 232.793, 104.125 235.184, 105.500 236.818 C 106.931 238.518, 108 241.051, 108 242.739 C 108 247.730, 112.562 250.375, 117.037 247.980 C 118.536 247.178, 118.813 246.271, 118.339 243.730 C 118.007 241.954, 117.345 240.072, 116.868 239.550 C 116.390 239.027, 116 237.592, 116 236.359 C 116 235.126, 115.550 233.840, 115 233.500 C 114.450 233.160, 114 231.621, 114 230.081 C 114 228.540, 112.875 225.621, 111.500 223.595 C 110.125 221.569, 109 219.017, 109 217.924 C 109 216.831, 108.213 215.694, 107.250 215.396 C 106.287 215.098, 104.719 214.437, 103.764 213.927 C 101.512 212.725, 97.960 212.793, 95.750 214.080" stroke="none" fill="black" fill-rule="evenodd"/>
</svg>