<svg xmlns="http://www.w3.org/2000/svg" width="300" height="300" viewBox="0 0 300 300" version="1.1">
	<path d="M 171 44.820 C 166.485 46.866, 159.712 52.242, 148 63.075 C 140.120 70.364, 134.361 74.969, 133.527 74.649 C 132.764 74.356, 131.837 72.099, 131.468 69.632 C 130.686 64.423, 126.276 59.678, 122.689 60.188 C 119.511 60.641, 119.355 65.517, 122.308 72.111 C 128.083 85.003, 128.839 87.469, 130.088 97.500 C 131.887 111.959, 132.258 119.723, 131.180 120.388 C 130.512 120.802, 130.424 122.052, 130.943 123.772 C 134.471 135.457, 134.406 134.505, 131.968 138.843 L 129.687 142.901 132.460 146.537 C 134.662 149.424, 135.672 150.028, 137.367 149.473 C 138.540 149.088, 141.300 148.569, 143.500 148.320 C 148.928 147.705, 159.729 143.208, 163.978 139.795 C 165.891 138.258, 168.219 137, 169.151 137 C 170.084 137, 172.202 135.859, 173.859 134.465 C 176.043 132.627, 177.549 132.100, 179.333 132.547 C 181.563 133.107, 182.072 132.572, 184.775 126.832 C 188.630 118.647, 189.774 114.233, 190.491 104.790 C 190.813 100.549, 191.572 95.659, 192.177 93.921 C 193.461 90.240, 192.564 73.513, 190.856 69.253 C 188.506 63.398, 188.124 62.318, 186.340 56.500 C 184.730 51.251, 183.892 50.093, 179.637 47.250 C 174.664 43.926, 173.620 43.633, 171 44.820 M 169.214 59.405 C 166.857 60.644, 164.244 62.635, 163.407 63.829 C 162.571 65.023, 161.028 66, 159.978 66 C 158.929 66, 157.542 66.987, 156.896 68.194 C 156.250 69.401, 152.669 73.563, 148.938 77.444 C 138.763 88.028, 137.667 89.639, 138.488 92.795 C 138.875 94.283, 139.544 101.350, 139.974 108.500 C 141.509 134.016, 142.480 138.181, 146.530 136.627 C 147.776 136.149, 147.864 135.615, 146.971 133.946 C 145.823 131.800, 146.559 119.464, 147.952 117.500 C 149.647 115.112, 154.048 99.881, 154.993 93.134 C 155.561 89.082, 156.272 85.370, 156.572 84.884 C 156.872 84.398, 158.431 84, 160.036 84 C 163.887 84, 166.960 88.233, 165.179 91.085 C 161.474 97.017, 167.037 103.260, 176.851 104.184 C 180.001 104.481, 180.290 104.240, 181.664 100.175 C 184.133 92.871, 182.205 68.065, 178.895 64.550 C 178.403 64.028, 178 62.860, 178 61.955 C 178 60.485, 174.990 56.884, 173.921 57.076 C 173.690 57.118, 171.571 58.165, 169.214 59.405 M 68.550 62.945 C 66.671 65.022, 66.665 64.776, 69.022 82.500 C 69.827 88.548, 69.979 96.583, 69.485 107 C 69.081 115.525, 68.655 124.975, 68.537 128 C 68.243 135.537, 66.346 146.213, 63.916 154 C 62.133 159.718, 61.212 161.042, 56.269 165 C 53.178 167.475, 47.466 172.201, 43.575 175.501 C 39.684 178.802, 34.700 182.838, 32.500 184.471 C 30.300 186.104, 27.600 188.289, 26.500 189.327 C 25.400 190.366, 22.788 192.313, 20.696 193.654 C 18.604 194.996, 13.766 199.164, 9.946 202.916 C 4.403 208.361, 3 210.347, 3 212.747 C 3 214.402, 3.705 216.340, 4.566 217.054 C 6.663 218.796, 10.537 216.508, 18.517 208.815 C 21.827 205.625, 25.652 202.239, 27.017 201.292 C 28.383 200.345, 30.372 198.767, 31.439 197.785 C 32.505 196.803, 33.739 196, 34.181 196 C 35.190 196, 39.527 192.361, 42.822 188.750 C 44.202 187.238, 45.772 186, 46.312 186 C 48.075 186, 55.894 178.994, 57.221 176.226 C 58.739 173.057, 62.749 171.607, 61.580 174.649 C 61.189 175.667, 60.612 180.135, 60.298 184.577 L 59.727 192.654 64.863 197.077 C 67.688 199.510, 69.999 201.840, 70 202.255 C 70.001 203.863, 57.323 221.836, 51.659 228.255 C 46.577 234.016, 39.634 239.451, 30.610 244.735 C 29.449 245.415, 27.503 245.977, 26.285 245.985 C 23.967 246.001, 21.470 249.334, 22.513 251.021 C 23.993 253.416, 37.443 250.328, 39.413 247.141 C 39.762 246.577, 42.073 245.812, 44.549 245.440 C 47.093 245.059, 49.587 244, 50.283 243.006 C 50.961 242.038, 53.537 239.577, 56.008 237.537 C 58.478 235.497, 61.181 232.629, 62.014 231.164 C 62.847 229.699, 64.422 227.450, 65.514 226.166 C 66.606 224.882, 68.254 222.939, 69.177 221.847 C 70.099 220.756, 72.738 216.744, 75.041 212.932 C 77.345 209.119, 79.515 206.007, 79.865 206.015 C 81.132 206.046, 83.206 207.774, 84.340 209.745 C 86.383 213.293, 93.941 222.874, 97.526 226.460 C 99.437 228.370, 101 230.376, 101 230.917 C 101 232.367, 106.998 241, 108.006 241 C 108.481 241, 110.024 240.561, 111.435 240.025 C 113.747 239.146, 114 238.522, 114 233.705 C 114 228.722, 113.712 228.084, 109.750 224.287 C 107.412 222.047, 103.700 218.091, 101.500 215.495 C 99.300 212.900, 94.215 207.478, 90.200 203.447 L 82.899 196.118 84.950 192.099 C 86.086 189.871, 87 186.142, 87 183.731 C 87 181.339, 87.661 178.509, 88.468 177.441 C 89.276 176.374, 89.951 174.289, 89.968 172.809 C 89.986 171.329, 90.435 169.849, 90.967 169.520 C 92.669 168.469, 90.852 162.599, 87.870 159.511 C 84.039 155.544, 81.784 156.848, 80.792 163.606 C 78.197 181.285, 75.292 192, 73.096 192 C 69.286 192, 69.347 170.371, 73.171 165.510 C 74.249 164.140, 74.807 162.497, 74.412 161.858 C 74.017 161.219, 74.412 160.172, 75.289 159.530 C 76.167 158.889, 77.542 156.455, 78.346 154.121 C 79.790 149.931, 79.777 149.866, 77.302 148.925 C 75.710 148.320, 74.999 147.445, 75.352 146.525 C 76.852 142.616, 78.321 121.396, 78.330 103.500 C 78.344 76.219, 78.226 74.160, 76.503 71.701 C 75.677 70.521, 75 68.375, 75 66.932 C 75 64.678, 72.413 61, 70.826 61 C 70.542 61, 69.518 61.875, 68.550 62.945 M 159.649 114.006 C 158.192 115.737, 156.997 118.131, 156.993 119.327 C 156.990 120.522, 156.093 122.850, 155 124.500 C 152.627 128.084, 152.439 130.847, 154.514 131.644 C 156.119 132.260, 165.318 126.420, 169.123 122.369 C 170.457 120.949, 172.493 120, 174.206 120 C 177.331 120, 178.984 117.584, 177.129 115.729 C 176.504 115.104, 173.857 114.020, 171.246 113.320 C 168.636 112.620, 165.554 111.780, 164.399 111.453 C 162.846 111.013, 161.606 111.680, 159.649 114.006 M 192.500 163.453 C 183.571 165.745, 171.292 172.306, 160.173 180.724 C 157.794 182.526, 155.442 184, 154.947 184 C 154.452 184, 151.139 185.912, 147.585 188.250 C 133.680 197.395, 126.152 202, 125.107 202 C 124.507 202, 122.881 200.727, 121.494 199.171 C 118.366 195.660, 110.460 191.609, 108.330 192.427 C 106.240 193.229, 107.212 200.075, 109.620 201.500 C 113.497 203.796, 117.835 208.188, 118.998 210.995 C 119.683 212.648, 120.638 214, 121.121 214 C 121.605 214, 122 214.482, 122 215.071 C 122 215.659, 123.689 218.247, 125.754 220.821 C 127.819 223.394, 130.005 226.400, 130.613 227.500 C 131.221 228.600, 132.569 229.500, 133.609 229.500 C 135.226 229.500, 135.476 228.800, 135.331 224.668 C 135.234 221.879, 134.494 219.098, 133.581 218.090 C 132.711 217.129, 132 215.418, 132 214.288 C 132 210.922, 143.098 202, 147.284 202 C 148.349 202, 148.953 205.585, 149.912 217.588 C 150.597 226.162, 150.863 233.474, 150.505 233.838 C 150.146 234.202, 147.073 235.021, 143.676 235.657 C 137.091 236.891, 121.431 240.915, 114 243.284 C 103.494 246.633, 92.002 249.887, 85 251.495 C 66.287 255.793, 63 257.390, 63 262.186 C 63 265.852, 65.122 266.687, 70.403 265.101 C 72.656 264.423, 76.300 263.521, 78.500 263.095 C 80.700 262.668, 84.300 261.503, 86.500 260.504 C 88.700 259.506, 92.525 258.580, 95 258.448 C 97.475 258.316, 101.427 257.244, 103.782 256.065 C 106.138 254.886, 108.480 254.179, 108.988 254.493 C 109.496 254.807, 111.562 254.374, 113.578 253.532 C 115.594 252.689, 118.224 252, 119.422 252 C 120.620 252, 122.028 251.628, 122.550 251.174 C 124.385 249.578, 143.872 245, 148.831 245 C 149.884 245, 152.715 244.160, 155.123 243.133 C 157.624 242.066, 164.643 240.740, 171.500 240.038 C 178.100 239.364, 184.737 238.350, 186.248 237.785 C 191.644 235.770, 244.345 234.816, 247.620 236.673 C 248.786 237.335, 251.261 237.879, 253.120 237.883 C 254.979 237.887, 259.650 238.330, 263.500 238.868 C 281.725 241.416, 280.911 241.390, 283.015 239.486 C 285.659 237.094, 285.518 234.835, 282.550 232.047 C 279.857 229.517, 274.258 228.702, 237 225.416 C 220.551 223.965, 217.415 223.945, 208.709 225.231 C 202.796 226.105, 198.691 226.309, 198.343 225.747 C 198.027 225.235, 199.395 223.474, 201.384 221.835 C 203.373 220.196, 205 218.224, 205 217.453 C 205 216.682, 206.287 215.386, 207.859 214.573 C 209.432 213.760, 211.273 211.756, 211.951 210.119 C 212.628 208.483, 214.042 206.367, 215.091 205.417 C 216.141 204.467, 217 202.725, 217 201.545 C 217 200.365, 217.534 198.866, 218.187 198.213 C 218.929 197.471, 219.364 193.691, 219.348 188.123 C 219.311 174.906, 216.017 169.168, 205.300 163.648 C 201.575 161.730, 199.346 161.696, 192.500 163.453 M 196.500 175.212 C 194.300 175.763, 190.770 177.065, 188.655 178.107 C 186.541 179.148, 184.179 180, 183.405 180 C 181.652 180, 181.679 182.352, 183.489 187.434 C 184.260 189.598, 184.636 191.781, 184.324 192.285 C 184.012 192.790, 183.375 196.609, 182.908 200.772 C 182.441 204.935, 181.596 208.804, 181.029 209.371 C 180.463 209.937, 180 211.186, 180 212.147 C 180 213.899, 175.979 222.115, 173.890 224.632 C 172.471 226.342, 173.456 229, 175.508 229 C 178.792 229, 185.128 224.774, 191.691 218.206 C 200.899 208.991, 202.303 207.202, 206.435 199.416 C 209.308 194.002, 210 191.602, 210 187.049 C 210 183.942, 209.498 180.898, 208.884 180.284 C 208.270 179.670, 207.248 178.118, 206.611 176.834 C 205.291 174.171, 202.467 173.718, 196.500 175.212 M 168.500 187.597 C 166.850 189.025, 163.843 191.043, 161.818 192.082 C 157.016 194.546, 156.625 195.334, 158.057 199.672 C 158.716 201.670, 159.311 209.161, 159.378 216.318 C 159.459 224.978, 159.877 229.457, 160.626 229.708 C 161.718 230.073, 166 223.868, 166 221.921 C 166 221.391, 167.078 219.279, 168.395 217.229 C 169.713 215.178, 171.347 211.700, 172.026 209.500 C 172.705 207.300, 173.652 205.004, 174.131 204.397 C 175.716 202.388, 176.423 188.214, 175.022 186.527 C 173.253 184.395, 171.955 184.609, 168.500 187.597" stroke="none" fill="black" fill-rule="evenodd"/>
</svg>