<svg xmlns="http://www.w3.org/2000/svg" width="300" height="300" viewBox="0 0 300 300" version="1.1">
	<path d="M 224 48 C 222.625 49.076, 221.011 49.966, 220.414 49.978 C 219.817 49.990, 217.320 51.565, 214.865 53.478 C 212.410 55.390, 207.660 57.831, 204.309 58.901 C 200.959 59.972, 197.381 61.277, 196.359 61.803 C 192.866 63.599, 184.505 65.993, 179.500 66.632 C 176.750 66.982, 173.713 67.953, 172.750 68.790 C 170.566 70.687, 170.490 74.779, 172.595 77.105 C 174.925 79.680, 187.125 78.667, 192 75.495 C 193.925 74.242, 197.268 72.908, 199.429 72.530 C 201.589 72.152, 205.302 70.978, 207.679 69.921 C 210.055 68.865, 214.020 67.100, 216.489 66 C 218.958 64.900, 221.813 64, 222.834 64 C 223.855 64, 225.505 63.100, 226.500 62 C 227.495 60.900, 229.339 60, 230.596 60 C 233.501 60, 234.273 58.710, 234.273 53.854 C 234.273 46.845, 229.184 43.945, 224 48 M 56.667 81.667 C 55.678 82.655, 55.858 97.497, 56.892 100.215 C 57.919 102.918, 55.738 126.360, 53.376 138 C 52.539 142.125, 51.398 148.200, 50.839 151.500 C 50.281 154.800, 49.451 157.891, 48.994 158.368 C 48.538 158.845, 48.405 160.719, 48.699 162.531 C 49.027 164.554, 48.609 167.077, 47.617 169.067 C 46.728 170.849, 46 173.758, 46 175.532 C 46 177.305, 45.325 180.371, 44.500 182.346 C 43.675 184.320, 43 187.012, 43 188.326 C 43 190.539, 38.028 194.796, 29.819 199.611 C 28.777 200.222, 26.929 201.622, 25.713 202.722 C 24.496 203.822, 20.575 206.367, 17 208.377 C 13.425 210.387, 9.825 212.473, 9 213.011 C 8.175 213.550, 5.813 214.716, 3.750 215.604 C 0.032 217.203, 0 217.267, 0 223.029 L 0 228.840 5.901 225.891 C 9.147 224.269, 12.352 222.280, 13.024 221.471 C 13.695 220.662, 14.777 220, 15.426 220 C 16.076 220, 18.134 218.425, 20 216.500 C 21.911 214.529, 24.382 213, 25.657 213 C 26.903 213, 28.727 212.209, 29.711 211.243 C 30.695 210.277, 32.546 208.602, 33.825 207.521 L 36.149 205.555 42.075 211.998 C 45.334 215.541, 48 218.968, 48 219.612 C 48 221.729, 24.917 244.984, 22.142 245.662 C 20.689 246.017, 17.932 247.138, 16.015 248.153 C 11.585 250.500, 10.870 250.472, 7.492 247.815 L 4.715 245.630 2.248 248.498 C -0.011 251.125, -0.079 251.469, 1.450 252.587 C 3.716 254.244, 16.663 254.107, 20.872 252.382 C 22.727 251.622, 25.680 251, 27.435 251 C 29.675 251, 31.482 250.106, 33.500 248 C 35.081 246.350, 36.925 245, 37.599 245 C 39.384 245, 52.239 232.100, 54.005 228.537 C 56.254 224.001, 59.140 224.127, 62.942 228.927 C 65.097 231.647, 67.396 233.299, 70.010 234.003 C 72.496 234.672, 75.103 236.470, 77.288 239.023 C 79.667 241.803, 81.490 243, 83.343 243 C 84.914 243, 87.523 244.341, 89.747 246.291 C 97.351 252.960, 101.017 252.882, 100.982 246.050 C 100.963 242.286, 99.812 241.061, 88.712 232.984 C 86.079 231.068, 81.739 227.813, 79.069 225.750 C 76.399 223.688, 73.934 222, 73.593 222 C 73.251 222, 71.409 220.988, 69.498 219.750 C 66.351 217.711, 66.024 217.059, 66.012 212.809 C 66.006 210.229, 66.450 207.840, 67 207.500 C 67.550 207.160, 68 205.844, 68 204.576 C 68 203.307, 68.955 201.056, 70.122 199.572 C 72.708 196.284, 76.364 177.060, 75.047 173.675 C 74.582 172.479, 72.790 170.163, 71.064 168.528 C 67.826 165.460, 65.548 165.633, 63.978 169.067 C 61.154 175.244, 60.195 176.534, 58.217 176.820 C 56.429 177.077, 56 176.651, 56 174.617 C 56 173.229, 56.392 171.060, 56.872 169.797 C 59.042 164.083, 59.939 160.020, 60.422 153.717 C 60.709 149.987, 61.631 144.909, 62.471 142.432 C 63.312 139.956, 64 136.172, 64 134.024 C 64 131.876, 64.450 129.840, 65 129.500 C 65.550 129.160, 66 125.624, 66 121.641 C 66 117.490, 66.494 113.906, 67.158 113.242 C 68.034 112.366, 67.999 111.703, 67.011 110.513 C 66.015 109.313, 65.968 108.366, 66.814 106.510 C 68.492 102.825, 67.224 83.866, 65.190 82.250 C 63.529 80.930, 57.796 80.537, 56.667 81.667 M 207.130 85.343 C 206.349 86.284, 206.284 88.828, 206.914 93.843 C 207.408 97.779, 207.577 101.902, 207.288 103.005 C 207 104.108, 207.244 105.589, 207.831 106.297 C 208.418 107.004, 209.383 113.639, 209.974 121.041 C 210.566 128.444, 211.323 135.625, 211.656 137 C 211.990 138.375, 212.410 141.525, 212.589 144 C 212.768 146.475, 213.373 153, 213.934 158.500 C 214.495 164, 215.416 173.450, 215.982 179.500 C 216.548 185.550, 217.326 191.175, 217.712 192 C 218.545 193.780, 218.815 202.407, 219.029 234.140 C 219.190 258.052, 217.059 283.721, 214.655 286.827 C 213.895 287.808, 212.050 287.983, 207.564 287.497 C 191.146 285.722, 180.092 278.630, 168.750 262.599 C 166.137 258.906, 164 255.011, 164 253.942 C 164 251.624, 162.166 251.486, 157.468 253.449 C 152.849 255.379, 152.859 258.502, 157.500 263 C 159.425 264.866, 161.013 267.092, 161.029 267.946 C 161.101 271.735, 175.580 283.664, 188.904 290.912 C 193.368 293.341, 194.460 293.733, 198.783 294.463 C 201.097 294.854, 203.243 295.585, 203.554 296.087 C 204.412 297.475, 212.217 297.179, 218.603 295.515 C 221.738 294.699, 224.490 293.843, 224.719 293.614 C 226.882 291.451, 229.372 220.580, 227.798 206 C 227.293 201.325, 226.854 196.600, 226.822 195.500 C 226.790 194.400, 226.303 189.675, 225.739 185 C 225.174 180.325, 224.532 174.700, 224.312 172.500 C 224.091 170.300, 223.687 166.475, 223.414 164 C 223.140 161.525, 222.667 153.876, 222.361 147.003 C 222.056 140.129, 221.311 133.604, 220.706 132.503 C 220.101 131.401, 219.537 127.125, 219.452 123 C 219.366 118.875, 219.040 114.825, 218.726 114 C 217.893 111.809, 216.898 105.402, 216.425 99.191 C 215.833 91.393, 214.219 86.188, 212.032 85.017 C 209.506 83.665, 208.465 83.734, 207.130 85.343 M 141 103.729 C 140.175 104.043, 136.503 107.205, 132.841 110.755 C 129.178 114.306, 124.903 118.003, 123.341 118.971 C 121.778 119.939, 119.490 121.916, 118.257 123.365 C 117.023 124.814, 114.998 126.010, 113.757 126.022 C 112.515 126.034, 110.375 126.924, 109 128 C 107.154 129.444, 104.910 129.961, 100.424 129.978 C 95.383 129.996, 93.978 130.394, 92.174 132.314 C 89.520 135.140, 89.391 138.139, 91.829 140.345 C 94.330 142.608, 97.432 142.428, 106.403 139.500 C 110.615 138.125, 114.948 137, 116.031 137 C 118.712 137, 118.520 138.852, 115.729 139.913 C 110.803 141.786, 110.081 146.900, 113.033 159 C 113.637 161.475, 114.081 164.175, 114.019 165 C 113.958 165.825, 113.498 173.925, 112.997 183 C 111.690 206.665, 111.372 209.847, 110.164 211.302 C 109.570 212.018, 109.342 213.592, 109.658 214.800 C 109.977 216.021, 109.551 218.036, 108.699 219.336 C 107.284 221.496, 107.333 221.871, 109.333 224.215 C 112.538 227.970, 114.371 228.174, 117.933 225.173 C 120.548 222.969, 121.177 221.623, 121.518 217.500 C 121.746 214.750, 122.412 210.025, 122.999 207 C 124.650 198.490, 125.196 191.960, 124.817 185.250 C 124.731 183.738, 125.157 178.906, 125.763 174.512 C 126.582 168.577, 126.569 165.419, 125.714 162.221 C 124.492 157.652, 124.429 157.835, 129.370 151.611 C 131.990 148.312, 132.132 147.734, 131.004 145.009 C 130.183 143.027, 130.006 140.109, 130.478 136.332 C 131.271 129.985, 133.491 126.616, 143.250 116.950 C 147.830 112.414, 149 110.614, 149 108.103 C 149 105.639, 148.440 104.737, 146.435 103.975 C 143.624 102.907, 143.210 102.888, 141 103.729 M 179 133 C 178.175 133.533, 176.583 133.976, 175.462 133.985 C 174.341 133.993, 171.866 135.332, 169.962 136.959 C 165.700 140.603, 164.333 140.693, 161.821 137.500 C 159.504 134.554, 155.976 134.264, 153.655 136.829 C 151.175 139.569, 151.627 141.845, 155.500 146.132 C 158.274 149.202, 159 150.837, 159 154.016 C 159 156.222, 159.552 158.911, 160.227 159.992 C 161.193 161.538, 161.195 162.644, 160.240 165.174 C 159.240 167.825, 159.288 168.790, 160.513 170.660 C 162.453 173.620, 162.472 173.562, 159.099 174.959 C 157.503 175.620, 155.210 177.212, 154.004 178.496 C 152.007 180.621, 151.934 181.086, 153.186 183.666 C 154.407 186.180, 155.067 186.488, 159.031 186.395 C 163.185 186.297, 164.714 185.636, 174.497 179.710 C 175.595 179.044, 177.917 177.375, 179.658 176 C 181.398 174.625, 184.325 172.473, 186.161 171.219 C 196.098 164.430, 198 162.841, 198 161.332 C 198 160.421, 196.817 157.657, 195.371 155.190 C 192.859 150.904, 192.815 150.583, 194.371 147.948 C 197.417 142.792, 195.957 136.588, 191.010 133.665 C 187.916 131.838, 181.361 131.474, 179 133 M 179 144.721 C 177.075 145.524, 174.037 147.289, 172.250 148.642 C 169.066 151.052, 169 151.262, 169 158.992 C 169 170.441, 169.456 170.360, 178.966 157.208 C 182.751 151.975, 184.907 145.432, 183.320 144 C 182.869 143.593, 180.925 143.917, 179 144.721 M 61.250 183.718 C 60.563 183.965, 60 184.833, 60 185.648 C 60 186.463, 58.763 188.171, 57.250 189.445 C 54.592 191.683, 52.779 196.286, 51.418 204.250 C 50.859 207.524, 51.026 208, 52.734 208 C 55.851 208, 58.068 204.633, 61.296 195 C 64.312 186.002, 64.298 182.625, 61.250 183.718" stroke="none" fill="black" fill-rule="evenodd"/>
</svg>