<svg xmlns="http://www.w3.org/2000/svg" width="300" height="300" viewBox="0 0 300 300" version="1.1">
	<path d="M 151.872 28.657 C 150.927 29.799, 150.500 33.199, 150.500 39.584 L 150.500 48.854 146.500 52.400 C 140.635 57.600, 139.697 56.975, 138.385 46.989 C 137.772 42.320, 137.164 38.500, 137.034 38.500 C 136.904 38.500, 136.639 36.742, 136.445 34.593 C 135.959 29.194, 135.363 28, 133.154 28 C 128.465 28, 127.560 34.333, 130.052 49.706 C 131.103 56.193, 131.972 61.590, 131.982 61.699 C 131.992 61.808, 129.412 62.681, 126.250 63.637 C 117.628 66.246, 114.714 71.291, 118.613 76.858 C 120.513 79.571, 124.115 79.144, 127.721 75.779 C 131.041 72.680, 133 74.803, 133 81.500 C 133 87.675, 132.033 88.748, 126.082 89.181 C 120.851 89.562, 119.108 91.578, 120.538 95.594 C 121.961 99.588, 124.293 100.705, 128.159 99.246 C 129.924 98.580, 131.599 98.265, 131.880 98.547 C 132.162 98.829, 132.477 104.180, 132.581 110.438 C 132.684 116.697, 133.073 122.309, 133.444 122.909 C 134.479 124.584, 133.596 125.380, 127.311 128.443 C 124.115 130, 117.675 133.193, 113 135.537 C 108.325 137.882, 102.697 140.334, 100.494 140.986 C 98.290 141.637, 95.605 142.816, 94.526 143.604 C 92.668 144.963, 92.650 145.206, 94.186 148.269 C 95.077 150.046, 96.061 152.287, 96.372 153.250 C 96.969 155.098, 99.949 155.601, 101.550 154.124 C 102.796 152.974, 111.050 148.384, 118.159 144.887 C 121.271 143.356, 124.101 141.645, 124.447 141.085 C 125.138 139.967, 134.621 135, 136.065 135 C 136.560 135, 139.951 133.172, 143.601 130.938 C 147.250 128.705, 150.865 127.118, 151.634 127.413 C 152.743 127.838, 152.955 130.150, 152.662 138.598 L 152.293 149.248 148.160 153.374 C 142.985 158.540, 137 165.898, 137 167.095 C 137 167.593, 136.325 168, 135.500 168 C 134.522 168, 134 167.021, 134 165.189 C 134 162.553, 130.907 158, 129.116 158 C 128.673 158, 127.453 158.947, 126.405 160.105 C 124.796 161.883, 124.463 164.018, 124.262 173.855 C 123.966 188.365, 123.960 185.398, 124.321 206 C 124.781 232.262, 125.508 230.104, 114.390 235.476 C 109.242 237.964, 104.460 239.975, 103.764 239.943 C 102.574 239.890, 95.726 231.398, 91.658 224.929 C 90.645 223.318, 89.215 222, 88.481 222 C 87.746 222, 86.325 220.982, 85.323 219.737 C 84.320 218.493, 80.912 215.257, 77.750 212.547 C 71.046 206.801, 70.545 204.416, 74.363 196.437 C 82.102 180.263, 83.473 167.504, 78.293 159.861 C 76.667 157.463, 75.050 154.713, 74.700 153.750 C 73.803 151.287, 72.580 151.552, 68.565 155.077 C 66.637 156.770, 64.651 157.902, 64.151 157.593 C 63.135 156.965, 63.683 148.996, 65.035 144.723 C 65.519 143.196, 66.658 134.871, 67.567 126.223 C 69.315 109.597, 69.080 87.145, 67.100 81.500 C 66.521 79.850, 65.796 76.838, 65.489 74.806 C 64.768 70.038, 61.505 68.659, 58.812 71.984 C 56.607 74.707, 56.530 78.098, 58.500 85.661 C 60.226 92.289, 60.439 110.501, 58.924 122 C 58.381 126.125, 57.668 132.650, 57.339 136.500 C 57.011 140.350, 56.320 144.315, 55.804 145.310 C 55.288 146.306, 54.475 150.131, 53.999 153.810 C 52.965 161.795, 51.605 168.212, 50.603 169.833 C 50.202 170.482, 46.640 173.105, 42.687 175.662 C 38.734 178.219, 33.025 181.913, 30 183.871 C 26.975 185.829, 24.275 187.695, 24 188.018 C 22.700 189.546, 16.015 194.076, 11.680 196.368 C 9.028 197.770, 5.316 200.272, 3.430 201.928 C 0.235 204.732, 0 205.353, 0 210.969 C 0 215.251, 0.377 217, 1.300 217 C 2.794 217, 14.689 207.644, 17.140 204.540 C 18.042 203.399, 20.849 201.431, 23.378 200.168 C 25.907 198.905, 28.544 197.073, 29.238 196.097 C 29.932 195.122, 31.682 194.031, 33.127 193.673 C 34.572 193.316, 36.489 191.903, 37.387 190.533 C 39.268 187.661, 44.581 184.625, 46.462 185.347 C 47.234 185.643, 47.781 187.726, 47.838 190.590 C 47.941 195.686, 49.817 200.581, 53.625 205.683 C 54.931 207.434, 56 209.587, 56 210.468 C 56 211.873, 53.503 216.596, 52.017 218 C 50.936 219.023, 45.432 226.532, 43.500 229.622 C 42.400 231.381, 37.675 236.100, 33 240.108 C 28.325 244.117, 24.347 247.767, 24.160 248.219 C 23.972 248.672, 22.510 249.719, 20.910 250.547 C 13.501 254.378, 21.095 255.302, 29.268 251.563 C 32.198 250.223, 36.149 247.508, 38.048 245.530 C 39.946 243.553, 42.870 241.267, 44.544 240.451 C 46.218 239.635, 48.437 237.512, 49.476 235.734 C 50.514 233.955, 53.306 230.774, 55.682 228.665 C 58.057 226.556, 60 224.399, 60 223.873 C 60 223.346, 60.450 222.372, 61 221.708 C 61.551 221.044, 62.847 219.392, 63.882 218.037 L 65.764 215.573 70.345 220.287 C 72.864 222.879, 75.461 225, 76.116 225 C 77.364 225, 89.090 236.848, 91.740 240.787 C 93.168 242.909, 93.112 243.252, 90.965 245.537 C 89.693 246.892, 88.124 248, 87.479 248 C 85.879 248, 79.892 250.954, 77.750 252.801 C 75.686 254.581, 75.531 257.799, 77.392 260.250 C 79.037 262.417, 81.344 262.496, 83.048 260.442 C 84.771 258.366, 90.586 256, 93.967 256 C 95.465 256, 97.505 255.100, 98.500 254 C 99.495 252.900, 101.520 252, 103 252 C 104.480 252, 106.505 251.100, 107.500 250 C 108.495 248.900, 110.060 248, 110.977 248 C 111.894 248, 114.411 246.663, 116.572 245.028 C 123.549 239.749, 123.944 240.238, 124.016 254.250 C 124.051 260.988, 124.298 268.075, 124.565 270 C 124.832 271.925, 125.377 277.100, 125.775 281.500 C 126.440 288.839, 126.690 289.527, 128.805 289.827 C 133.671 290.517, 133.923 289.358, 133.499 268.172 C 133.282 257.353, 133.366 245.897, 133.686 242.715 L 134.266 236.930 141.883 233.335 C 146.072 231.358, 152.491 228.223, 156.146 226.370 C 159.802 224.516, 163.490 223, 164.343 223 C 165.196 223, 167.896 221.936, 170.343 220.635 C 172.790 219.334, 175.912 217.988, 177.282 217.644 C 181.790 216.513, 182.231 218.392, 181.631 236.210 C 181.021 254.328, 179.433 278.233, 178.406 284.750 C 177.519 290.383, 175.057 290.383, 171.144 284.750 C 166.676 278.319, 161.413 273.627, 159.494 274.364 C 158.092 274.902, 158.472 276.110, 162.130 282.746 C 166.985 291.553, 167.680 292.369, 174.303 297.033 C 178.394 299.914, 179.392 300.236, 181.039 299.208 C 182.103 298.543, 183.654 298, 184.486 298 C 185.640 298, 186 296.787, 186 292.901 C 186 290.097, 186.726 286.272, 187.614 284.402 C 188.575 282.377, 189.018 279.687, 188.711 277.751 C 188.427 275.963, 188.842 269.131, 189.633 262.569 C 190.423 256.007, 191.026 248.357, 190.970 245.569 C 190.915 242.781, 191.012 234.777, 191.185 227.781 L 191.500 215.063 195 212.100 C 197.443 210.033, 199.182 209.302, 200.758 209.679 C 201.999 209.977, 204.667 209.437, 206.686 208.479 C 211.917 205.997, 220.597 204.083, 227 204 C 230.025 203.961, 233.625 203.286, 235 202.500 C 236.375 201.714, 238.682 201.055, 240.128 201.035 C 243.915 200.984, 245.363 198.756, 244.529 194.261 C 243.253 187.388, 238.307 184.794, 234.500 189 C 233.505 190.100, 231.725 191, 230.545 191 C 229.365 191, 227.946 191.454, 227.391 192.009 C 226.836 192.564, 222.133 194.121, 216.941 195.469 C 211.748 196.816, 204.575 198.833, 201 199.952 C 197.425 201.070, 193.721 201.988, 192.769 201.992 C 190.887 202.001, 189.404 197.996, 190.363 195.496 C 191.133 193.489, 189.182 178.209, 187.835 175.691 C 187.005 174.141, 187.123 173.511, 188.374 172.811 C 189.255 172.318, 190.462 171.005, 191.057 169.893 C 191.940 168.243, 191.655 167.237, 189.506 164.419 C 188.058 162.520, 185.980 158.949, 184.890 156.483 C 183.799 154.018, 182.509 152, 182.023 152 C 181.538 152, 180.127 149.971, 178.888 147.490 C 175.566 140.838, 173.876 139.691, 167.243 139.589 L 161.500 139.500 160.627 131.715 C 159.861 124.889, 159.973 123.687, 161.532 121.965 C 162.510 120.884, 163.806 120, 164.413 120 C 165.020 120, 167.629 118.875, 170.212 117.500 C 172.795 116.125, 175.535 115, 176.301 115 C 177.067 115, 178.732 114.100, 180 113 C 181.268 111.900, 182.918 111, 183.667 111 C 184.415 111, 185.809 110.583, 186.764 110.073 C 187.719 109.563, 189.287 108.902, 190.250 108.604 C 192.027 108.055, 192.571 104.651, 191.379 101.545 C 191.037 100.654, 189.441 99.245, 187.832 98.413 C 185.213 97.059, 184.581 97.063, 181.800 98.450 C 180.091 99.303, 178.121 100, 177.423 100 C 176.725 100, 174.759 101.394, 173.055 103.099 C 171.183 104.971, 169.354 105.966, 168.435 105.613 C 167.598 105.292, 165.142 106.148, 162.977 107.515 C 160.811 108.882, 158.655 110, 158.185 110 C 157.715 110, 157.533 106.287, 157.779 101.750 C 158.263 92.854, 160.946 85.591, 164.488 83.593 C 171.795 79.469, 173.988 77.731, 175.363 74.973 C 176.442 72.810, 176.627 71.333, 175.962 70.174 C 175.433 69.253, 174.557 67.251, 174.015 65.724 C 172.163 60.506, 167.804 61.228, 166.662 66.942 C 166.115 69.676, 162.667 72, 161.254 70.587 C 160.926 70.260, 161.185 67.709, 161.829 64.920 C 162.473 62.130, 163 58.673, 163 57.238 C 163 55.803, 163.840 53.700, 164.868 52.564 C 165.895 51.429, 167.486 49.316, 168.404 47.870 C 170.015 45.330, 169.980 45.130, 167.375 42.034 C 165.891 40.271, 163.625 38.428, 162.339 37.939 C 161.052 37.450, 159.998 36.251, 159.996 35.275 C 159.991 32.728, 156.281 27, 154.637 27 C 153.871 27, 152.627 27.746, 151.872 28.657 M 144.204 67.689 C 143.692 68.685, 143.013 72.763, 142.695 76.750 C 142.171 83.321, 142.288 84, 143.947 84 C 144.954 84, 146.751 83.212, 147.941 82.249 C 149.847 80.706, 150.067 79.670, 149.801 73.499 C 149.529 67.177, 149.289 66.470, 147.318 66.189 C 145.991 66, 144.770 66.588, 144.204 67.689 M 144.381 95.218 C 142.742 95.969, 142.243 97.131, 142.177 100.344 C 142.131 102.630, 141.805 107.088, 141.454 110.250 C 140.928 114.984, 141.081 116, 142.318 116 C 144.925 116, 148 108.012, 148 101.243 C 148 94.533, 147.542 93.771, 144.381 95.218 M 162.698 153.782 C 160.988 155.670, 160.472 159.875, 160.799 169.250 C 161.043 176.219, 162.620 176.743, 167.565 171.500 C 169.380 169.575, 171.780 168, 172.898 168 C 174.015 168, 175.398 167.124, 175.971 166.054 C 176.795 164.515, 176.488 163.334, 174.506 160.414 C 173.128 158.383, 172 156.125, 172 155.396 C 172 152.140, 165.244 150.968, 162.698 153.782 M 66.139 167.048 C 65.397 168.725, 63.750 171.332, 62.479 172.843 C 61.208 174.354, 59.875 177.369, 59.518 179.545 C 59.160 181.720, 58.367 185.620, 57.755 188.210 C 56.791 192.292, 56.897 193.393, 58.549 196.460 C 60.611 200.291, 62.730 201.038, 63.624 198.250 C 63.933 197.287, 65.529 193.380, 67.171 189.567 C 70.707 181.354, 72.629 165.455, 70.199 164.523 C 67.920 163.648, 67.539 163.886, 66.139 167.048 M 145.297 169.595 C 142.800 173.202, 140.924 175.174, 137.776 177.500 C 135.462 179.211, 134.973 180.476, 134.397 186.250 C 133.800 192.240, 133.918 193, 135.453 193 C 136.404 193, 139.022 191.425, 141.271 189.500 C 143.520 187.575, 145.876 186, 146.506 186 C 147.136 186, 148.630 184.958, 149.826 183.686 C 151.642 181.753, 152 180.187, 152 174.186 C 152 167.224, 151.923 167, 149.547 167 C 148.034 167, 146.405 167.995, 145.297 169.595 M 172 181 C 170.075 182.620, 168.022 183.958, 167.437 183.973 C 166.852 183.988, 165.152 185.275, 163.659 186.834 C 161.061 189.546, 160.975 189.967, 161.658 196.584 C 162.051 200.388, 162.281 205.464, 162.169 207.864 C 161.990 211.673, 162.189 212.139, 163.732 211.529 C 164.705 211.144, 166.973 210.582, 168.774 210.280 C 170.575 209.978, 172.289 209.341, 172.583 208.865 C 172.877 208.389, 174.372 208, 175.904 208 C 181.161 208, 181.825 205.923, 180.933 192.263 C 180.493 185.532, 179.852 179.570, 179.508 179.013 C 178.406 177.229, 175.596 177.973, 172 181 M 145.549 196.948 C 143.954 198.614, 141.940 200.202, 141.074 200.477 C 138.659 201.243, 134 209.687, 134 213.297 C 134 215.066, 133.553 218.072, 133.006 219.977 C 132.244 222.635, 132.335 223.764, 133.396 224.825 C 134.574 226.002, 136.022 225.474, 143.140 221.273 C 147.738 218.558, 152.757 216.023, 154.293 215.639 C 158.080 214.692, 158.588 212.714, 155.958 209.157 C 154.576 207.288, 153.520 203.999, 153.127 200.338 C 152.606 195.490, 152.157 194.451, 150.475 194.210 C 149.260 194.036, 147.292 195.130, 145.549 196.948" stroke="none" fill="black" fill-rule="evenodd"/>
</svg>