<svg xmlns="http://www.w3.org/2000/svg" width="300" height="300" viewBox="0 0 300 300" version="1.1">
	<path d="M 129.685 49.796 C 127.122 52.627, 128.498 58.836, 131.876 59.684 C 134.430 60.325, 141.833 67.654, 143.180 70.875 C 144.684 74.470, 143.601 76.233, 133.937 85.916 C 121.196 98.685, 120.692 98.747, 114.051 88.382 C 104.592 73.620, 95.575 70.282, 98.944 82.791 C 99.527 84.959, 101.074 87.805, 102.380 89.116 C 107.763 94.519, 112 100.317, 112 102.280 C 112 103.430, 112.964 105.397, 114.142 106.652 C 115.321 107.906, 117.551 112.770, 119.098 117.461 C 121.761 125.535, 121.859 126.458, 120.935 134.745 C 119.428 148.247, 116.007 158.993, 111.911 163.089 C 110.860 164.140, 110 165.675, 110 166.500 C 110 167.325, 109.649 168, 109.219 168 C 108.790 168, 107.880 169.238, 107.198 170.750 C 106.516 172.262, 104.668 175.855, 103.091 178.734 C 99.446 185.391, 98.588 188.798, 100.099 190.620 C 101.749 192.608, 100.316 193.678, 97.968 192.212 C 96.901 191.545, 95.153 191, 94.085 191 C 93.017 191, 91.415 190.272, 90.524 189.381 C 89.033 187.890, 88.453 187.890, 83.137 189.381 C 79.965 190.272, 77.030 191, 76.617 191 C 76.203 191, 75.942 187.512, 76.036 183.250 C 76.223 174.753, 75.686 168.919, 74.547 167.077 C 74.143 166.422, 74.104 164.722, 74.461 163.300 C 75.106 160.731, 75.078 160.718, 70.406 161.358 C 65.164 162.076, 63.212 163.312, 61.911 166.735 C 61.078 168.926, 58.428 170.762, 57.474 169.808 C 57.233 169.566, 58.613 164.774, 60.542 159.159 C 62.470 153.543, 64.228 146.823, 64.449 144.224 C 64.670 141.626, 65.359 138.168, 65.981 136.539 C 66.602 134.911, 66.852 132.548, 66.536 131.289 C 66.220 130.030, 66.474 125.962, 67.100 122.250 C 68.693 112.806, 68.809 109.441, 67.797 102 C 65.866 87.813, 63.669 78.727, 61.581 76.299 L 59.469 73.844 56.616 76.087 C 53.961 78.176, 53.805 78.683, 54.368 83.416 C 54.701 86.212, 55.790 90.750, 56.789 93.500 C 57.788 96.250, 58.702 101.425, 58.819 105 C 59.100 113.503, 56.398 141.387, 55.050 143.906 C 54.473 144.985, 54 147.025, 54 148.438 C 54 149.850, 52.636 155.393, 50.968 160.753 C 49.300 166.114, 47.190 172.899, 46.278 175.831 C 45.293 178.998, 43.581 181.962, 42.060 183.130 C 32.741 190.294, 17.718 200.594, 13.500 202.713 C 2.566 208.204, -0.972 213.342, 2.515 218.664 C 4.576 221.809, 7.047 221.604, 10.500 218 C 12.081 216.350, 13.874 215, 14.484 215 C 15.095 215, 17.352 213.200, 19.500 211 C 21.648 208.800, 24.031 207, 24.795 207 C 26.148 207, 27.658 205.965, 36.102 199.250 C 38.350 197.463, 40.557 196, 41.007 196 C 41.456 196, 42.123 197.769, 42.488 199.931 C 42.854 202.093, 44.693 206.030, 46.576 208.678 C 48.459 211.327, 50 213.857, 50 214.302 C 50 214.746, 48.242 217.673, 46.093 220.805 C 40.118 229.514, 22.311 246, 18.879 246 C 17.409 246, 11.964 251.631, 12.712 252.378 C 13.866 253.533, 21.540 253.010, 23.527 251.642 C 24.612 250.895, 27.228 249.967, 29.341 249.580 C 32.442 249.011, 35.051 247.011, 42.897 239.188 C 48.240 233.859, 53.878 227.813, 55.425 225.750 C 56.972 223.688, 58.781 222, 59.444 222 C 61.612 222, 65.046 226.569, 64.768 229.083 C 64.533 231.202, 64.857 231.462, 67.391 231.190 C 69.552 230.958, 71.154 231.716, 73.737 234.190 C 75.638 236.011, 77.599 238.400, 78.094 239.500 C 78.590 240.600, 79.559 242.314, 80.248 243.308 C 81.318 244.854, 81.137 245.388, 79 246.987 C 72.227 252.055, 72.441 251.789, 73.635 253.691 C 76.529 258.302, 96 250.230, 96 244.419 C 96 243.585, 97.304 242.689, 99.018 242.346 C 101.586 241.833, 108 235.635, 108 233.668 C 108 232.130, 120.232 217.173, 121.832 216.754 C 122.879 216.480, 123.973 215.003, 124.328 213.383 C 124.968 210.462, 130.970 203.420, 134.547 201.394 C 135.736 200.721, 136.733 198.765, 137.096 196.394 C 137.645 192.804, 140.632 184.512, 142.902 180.277 C 144.872 176.601, 145.290 174.260, 145.536 165.539 C 145.788 156.594, 145.782 156.570, 142.217 152.220 C 138.929 148.207, 138.325 147.888, 134.573 148.181 L 130.500 148.500 130.797 141.500 C 131.709 119.962, 131.680 119.589, 128.747 115.357 C 127.236 113.177, 126 110.872, 126 110.235 C 126 109.598, 128.764 106.472, 132.142 103.289 C 135.520 100.105, 139.907 95.750, 141.892 93.612 C 145.460 89.767, 152.669 85.678, 154.206 86.627 C 155.343 87.330, 155.188 91.766, 154 92.500 C 153.450 92.840, 153 94.036, 153 95.158 C 153 96.280, 152.287 98.701, 151.415 100.538 C 148.894 105.851, 149.746 107.500, 155.014 107.500 C 159.495 107.500, 159.500 107.496, 159.230 104.128 C 159.020 101.515, 159.752 99.788, 162.480 96.460 C 164.416 94.097, 166 91.151, 166 89.913 C 166 88.675, 167.291 85.375, 168.868 82.579 C 171.564 77.804, 171.684 77.110, 170.861 71.092 C 170.379 67.569, 169.483 64.082, 168.870 63.343 C 166.976 61.061, 161.794 61.833, 157.572 65.028 C 155.411 66.663, 153.101 68, 152.437 68 C 151.028 68, 148 63.697, 148 61.694 C 148 59.629, 135.466 48, 133.242 48 C 132.179 48, 130.579 48.808, 129.685 49.796 M 184.512 126.656 C 181.219 128.071, 177.446 130.078, 176.127 131.115 C 174.809 132.152, 173.228 132.997, 172.615 132.994 C 172.002 132.990, 168.012 136.662, 163.750 141.152 C 156.004 149.313, 156 149.320, 155.962 154.909 C 155.824 175.103, 154.858 197.467, 154.083 198.400 C 153.579 199.007, 153.017 207.378, 152.834 217.002 L 152.500 234.500 156.821 240.304 C 161.303 246.324, 161.882 246.702, 171 249.568 C 178.244 251.845, 209.397 252.351, 215.455 250.289 C 217.631 249.549, 219.954 249.152, 220.618 249.407 C 221.281 249.661, 224.614 249.025, 228.023 247.993 C 231.432 246.961, 236.759 245.810, 239.861 245.435 C 242.962 245.060, 245.950 244.399, 246.500 243.966 C 247.050 243.533, 249.258 242.850, 251.407 242.449 C 253.556 242.047, 256.323 241.195, 257.557 240.555 C 260.438 239.060, 265 233.650, 265 231.728 C 265 230.912, 265.675 229.685, 266.500 229 C 267.325 228.315, 268 226.979, 268 226.031 C 268 224.454, 269.712 220.130, 272.064 215.764 C 273.308 213.456, 273.263 206.280, 272 205.500 C 271.450 205.160, 271 203.221, 270.999 201.191 C 270.998 197.716, 268.275 188.942, 266.713 187.379 C 266.321 186.987, 266 185.482, 266 184.033 C 266 182.585, 265.624 180.972, 265.165 180.450 C 264.280 179.442, 262.437 174.325, 259.422 164.500 C 257.233 157.366, 256.351 156, 253.937 156 C 251.486 156, 250.688 157.548, 251.936 159.880 C 252.502 160.937, 253.139 163.904, 253.353 166.472 C 253.567 169.041, 254.250 171.650, 254.871 172.271 C 255.492 172.892, 256 174.408, 256 175.641 C 256 176.874, 256.398 178.128, 256.885 178.429 C 257.371 178.729, 257.989 180.219, 258.256 181.738 C 258.524 183.257, 259.467 187.200, 260.353 190.500 C 263.547 202.411, 264.078 209.878, 262.225 216.834 C 259.718 226.243, 255.879 230.210, 246.142 233.453 C 235.814 236.892, 224.870 238.782, 206 240.386 C 180.841 242.524, 169.886 240.746, 164.601 233.667 C 162.824 231.287, 162.601 229.540, 162.698 218.736 C 162.816 205.568, 163.583 195.484, 164.589 193.856 C 165.516 192.355, 165.702 156.934, 164.785 156.367 C 161.360 154.250, 170.585 144.844, 181.068 139.765 C 185.156 137.785, 189.382 136.015, 190.460 135.832 C 193.540 135.310, 195.407 140.286, 195.589 149.500 C 195.806 160.529, 191.921 179.704, 189.262 180.728 C 188.581 180.990, 185.716 179.547, 182.895 177.520 C 176.413 172.863, 174.705 173.934, 178.441 180.309 C 179.894 182.789, 181.740 185.070, 182.542 185.378 C 183.344 185.685, 184.014 186.739, 184.032 187.719 C 184.080 190.431, 188.603 195.004, 191.202 194.968 C 192.466 194.951, 194.278 194.345, 195.230 193.623 C 197.488 191.908, 200.950 184.223, 200.978 180.864 C 200.990 179.415, 201.672 176.940, 202.494 175.364 C 203.371 173.682, 203.990 169.806, 203.994 165.973 C 203.998 161.569, 204.530 158.689, 205.628 157.121 C 207.049 155.092, 207.088 154.270, 205.936 150.648 C 205.210 148.367, 204.577 144.700, 204.529 142.500 C 204.395 136.408, 200.281 127.197, 196.916 125.456 C 193.118 123.493, 191.510 123.648, 184.512 126.656 M 127.045 162.757 C 125.695 164.816, 122.762 168.750, 120.527 171.500 C 116.429 176.543, 115.263 178.611, 112.917 185 C 112.210 186.925, 110.583 190.075, 109.301 192 C 107.135 195.255, 107.091 195.588, 108.677 196.750 C 109.615 197.438, 111.166 198, 112.124 198 C 113.082 198, 114.151 198.900, 114.500 200 C 115.283 202.466, 117.835 202.618, 118.708 200.250 C 119.062 199.287, 120.856 196.723, 122.693 194.551 C 126.274 190.317, 132.745 177.526, 133.686 172.822 C 134.001 171.247, 134.664 169.708, 135.160 169.401 C 136.218 168.747, 135.186 162.063, 133.747 160.250 C 131.980 158.023, 129.554 158.931, 127.045 162.757 M 61.589 177.855 C 59.987 178.795, 58.187 180.445, 57.589 181.521 C 56.990 182.597, 55.712 184.555, 54.750 185.873 C 53.493 187.594, 53 190.170, 53 195.012 C 53 202.137, 54.249 204.478, 57.702 203.826 C 61.092 203.185, 68.553 175.751, 65.250 176.073 C 64.838 176.113, 63.190 176.915, 61.589 177.855 M 72.667 194.667 C 72.300 195.033, 72 196.184, 72 197.224 C 72 198.264, 70.875 201.130, 69.500 203.593 C 68.125 206.056, 67 208.877, 67 209.862 C 67 211.613, 81.203 225, 83.061 225 C 83.577 225, 84 225.685, 84 226.521 C 84 227.358, 85.185 229.833, 86.633 232.021 C 89.690 236.642, 93.211 237.359, 95.120 233.750 C 95.774 232.512, 98.099 229.475, 100.287 227 C 102.474 224.525, 104.883 221.150, 105.641 219.500 C 106.399 217.850, 107.976 215.298, 109.146 213.828 C 110.316 212.359, 111.029 210.559, 110.729 209.828 C 110.030 208.125, 99.067 202.628, 92.201 200.540 C 88.921 199.542, 85.573 199.177, 83.411 199.583 C 79.732 200.273, 76 198.139, 76 195.345 C 76 193.947, 73.829 193.505, 72.667 194.667" stroke="none" fill="black" fill-rule="evenodd"/>
</svg>