<svg xmlns="http://www.w3.org/2000/svg" width="300" height="300" viewBox="0 0 300 300" version="1.1">
	<path d="M 160.273 38.710 C 157.025 43.674, 153.471 46.958, 146.454 51.482 C 142.629 53.947, 138.887 56.488, 138.137 57.127 C 137.388 57.766, 134.688 59.372, 132.137 60.695 C 129.587 62.019, 125.250 64.431, 122.500 66.056 C 119.750 67.681, 116.057 69.757, 114.293 70.670 C 110.317 72.727, 109.091 76.963, 111.435 80.541 C 113.049 83.004, 117.305 83.933, 118.454 82.074 C 119.671 80.106, 131.153 73.121, 132.391 73.597 C 135.372 74.741, 136.278 87.728, 136.135 127.320 C 136.048 151.540, 135.612 166.857, 134.975 168.047 C 133.557 170.697, 136.220 177, 138.758 177 C 139.781 177, 141.491 177.661, 142.559 178.468 C 143.626 179.276, 146.143 179.951, 148.151 179.968 C 151.290 179.996, 152.097 179.501, 153.901 176.443 C 155.056 174.486, 156 172.392, 156 171.789 C 156 171.186, 157.688 169.010, 159.750 166.953 C 164.384 162.332, 168.995 156.564, 170.735 153.210 C 172.380 150.039, 173.823 136.868, 174.610 117.839 C 175.159 104.576, 175.016 102.596, 173.109 97.086 C 171.949 93.735, 170.210 89.533, 169.243 87.747 C 167.024 83.646, 160.755 77.374, 158.002 76.501 C 155.768 75.792, 153 77.434, 153 79.467 C 153 81.175, 149.679 84, 147.671 84 C 146.483 84, 146 83.138, 146 81.020 C 146 79.381, 145.289 76.264, 144.421 74.094 C 142.093 68.276, 142.790 65.880, 147.184 64.585 C 151.025 63.453, 164.947 52.336, 164.981 50.372 C 164.991 49.752, 165.675 48.685, 166.500 48 C 168.552 46.297, 168.375 43.128, 166.011 39.250 C 163.599 35.294, 162.571 35.197, 160.273 38.710 M 64.437 66.102 C 64.062 66.708, 64.080 72.206, 64.476 78.320 C 66.226 105.321, 64.403 146.906, 60.873 160.500 C 60.301 162.700, 59.616 166.075, 59.349 168 C 59.083 169.925, 58.108 172.985, 57.182 174.801 C 55.448 178.203, 46.994 186, 45.039 186 C 44.433 186, 43.678 186.675, 43.362 187.500 C 42.578 189.543, 13.260 210, 11.116 210 C 10.667 210, 8.436 211.350, 6.159 213 C 3.881 214.650, 1.563 216, 1.009 216 C 0.433 216, 0 218.808, 0 222.535 C 0 228.998, 0.025 229.057, 2.250 227.880 C 3.488 227.226, 6.799 224.735, 9.608 222.345 C 12.417 219.955, 15.524 218, 16.513 218 C 17.501 218, 20.022 216.200, 22.115 214 C 24.507 211.486, 26.818 210, 28.338 210 C 29.667 210, 31.360 209.272, 32.098 208.381 C 32.837 207.491, 36.605 204.623, 40.471 202.007 C 44.337 199.391, 48.357 196.294, 49.405 195.125 C 52.066 192.157, 53.356 192.472, 52.666 195.921 C 52.026 199.119, 54.602 203.775, 60.343 209.799 L 63.488 213.099 61.085 217.299 C 53.181 231.115, 38.288 249.454, 32.242 252.814 C 28.759 254.750, 29.738 257.434, 34.059 257.799 C 36.622 258.014, 38.115 257.530, 39.456 256.049 C 40.476 254.922, 41.803 253.989, 42.405 253.975 C 44.184 253.935, 55.490 242.768, 58.369 238.207 C 59.830 235.893, 61.479 234, 62.034 234 C 62.589 234, 63.582 232.762, 64.242 231.250 C 64.901 229.738, 66.354 227.541, 67.470 226.369 C 68.587 225.198, 70.296 223.077, 71.268 221.657 L 73.036 219.076 77.763 221.589 C 84.226 225.025, 93 234.063, 93 237.284 C 93 240.505, 95.367 241.379, 99.001 239.499 C 101.600 238.156, 101.819 237.652, 101.283 234.256 C 100.383 228.556, 89.852 215.336, 85.070 213.903 C 83.043 213.296, 80.358 212.024, 79.103 211.078 L 76.822 209.357 78.822 204.929 C 85.875 189.311, 89.594 167.831, 85.996 163.495 C 83.872 160.936, 79.248 160.660, 76.372 162.922 C 73.595 165.107, 71.467 165.565, 70.601 164.164 C 70.317 163.704, 70.970 155.717, 72.052 146.414 C 74.745 123.262, 75.313 89.609, 73.221 77.186 C 71.798 68.737, 71.394 67.738, 68.876 66.436 C 65.540 64.711, 65.307 64.693, 64.437 66.102 M 155.872 92.902 C 155.117 93.948, 152.870 96.760, 150.878 99.152 C 147.699 102.968, 147.171 104.388, 146.567 110.750 C 145.985 116.882, 146.114 118, 147.404 118 C 148.243 118, 149.411 117.100, 150 116 C 150.589 114.900, 151.678 114, 152.420 114 C 153.163 114, 154.462 112.944, 155.308 111.653 C 156.153 110.363, 158.251 108.724, 159.969 108.013 L 163.093 106.719 162.417 99.609 C 162.046 95.699, 161.548 92.162, 161.312 91.750 C 160.492 90.320, 157.237 91.009, 155.872 92.902 M 159.981 123.523 C 158.253 125.605, 153.306 128.168, 149.500 128.954 C 146.738 129.523, 146.476 129.947, 146.195 134.286 C 146.021 136.979, 146.321 139, 146.895 139 C 147.826 139, 149.674 137.806, 160.500 130.210 C 163.305 128.242, 164.500 126.675, 164.500 124.965 C 164.500 122.050, 161.894 121.218, 159.981 123.523 M 158.139 145.033 C 156.500 146.399, 154.284 147, 150.889 147 C 147.691 147, 145.970 147.432, 145.913 148.250 C 145.866 148.938, 145.697 152.200, 145.539 155.500 C 145.380 158.800, 144.918 162.963, 144.512 164.750 C 143.957 167.192, 144.112 167.996, 145.137 167.983 C 146.668 167.965, 155 159.698, 155 158.196 C 155 156.901, 156.998 153.173, 159.750 149.332 C 161.954 146.255, 162.737 142.967, 161.250 143.033 C 160.838 143.052, 159.438 143.952, 158.139 145.033 M 70.604 180.894 C 65.404 186.218, 62.599 194.614, 64.289 199.789 C 65.767 204.313, 69.436 205.510, 70.477 201.808 C 70.834 200.539, 71.507 198.600, 71.973 197.500 C 75.324 189.594, 77.308 177, 75.203 177 C 74.765 177, 72.695 178.752, 70.604 180.894 M 197.500 195.570 C 194.750 196.335, 191.544 196.970, 190.376 196.981 C 189.208 196.991, 186.088 198.210, 183.442 199.688 C 179.835 201.704, 177.491 202.313, 174.066 202.122 C 162.138 201.458, 161.750 201.490, 160.649 203.214 C 159.106 205.632, 162.661 210.208, 167.081 211.495 C 171.548 212.794, 180.511 221.661, 181.246 225.507 C 181.578 227.245, 181.193 229.659, 180.313 231.362 C 178.857 234.177, 178.642 234.245, 172.869 233.722 C 167.793 233.262, 166.108 232.548, 161.347 228.841 C 158.280 226.454, 154.727 223.928, 153.453 223.228 C 152.179 222.528, 150.237 220.503, 149.138 218.728 C 144.859 211.814, 137 206.688, 137 210.810 C 137 214.241, 139.807 219.626, 144.994 226.147 C 150.666 233.277, 154.017 235.947, 162 239.700 C 165.025 241.122, 168.294 242.972, 169.265 243.811 C 170.755 245.099, 171.819 245.154, 176.105 244.165 C 178.897 243.521, 181.616 243.263, 182.149 243.592 C 182.682 243.921, 184.930 242.935, 187.145 241.399 C 191.494 238.386, 191.436 238.716, 189.471 228 C 188.569 223.080, 185.547 216.815, 183.085 214.760 C 180.404 212.522, 180.449 211.203, 183.250 209.921 C 184.488 209.354, 187.075 208.037, 189 206.994 C 191.937 205.401, 194.703 205.088, 206.191 205.048 C 213.746 205.022, 220.143 205.423, 220.465 205.943 C 220.959 206.743, 227.828 210.760, 238 216.198 C 241.488 218.063, 245.773 220.888, 250.733 224.593 C 254.225 227.201, 255.535 227.638, 258.216 227.090 C 260.290 226.665, 262.014 225.443, 262.983 223.710 C 264.470 221.048, 264.412 220.918, 260 217.070 C 257.525 214.911, 254.538 212.892, 253.362 212.582 C 252.186 212.272, 248.431 210.439, 245.016 208.509 C 241.602 206.579, 238.255 205, 237.578 205 C 236.902 205, 235.298 203.882, 234.014 202.515 C 232.731 201.149, 230.065 199.737, 228.090 199.379 C 226.116 199.021, 222.377 197.664, 219.783 196.364 C 214.293 193.613, 205.642 193.305, 197.500 195.570 M 113.250 209.496 C 112.563 210.277, 112 211.805, 112 212.893 C 112 213.980, 111.550 216.054, 110.999 217.501 C 110.449 218.949, 109.338 223.303, 108.530 227.177 C 107.722 231.051, 106.646 234.734, 106.139 235.360 C 103.661 238.419, 97.926 250.610, 97.391 253.956 C 96.882 257.140, 97.145 257.988, 99.058 259.328 C 101.135 260.783, 101.560 260.782, 104.039 259.318 C 105.529 258.438, 107.712 255.643, 108.888 253.109 C 110.065 250.574, 112.342 246.250, 113.948 243.500 C 115.924 240.115, 116.889 237.067, 116.934 234.064 C 116.976 231.208, 117.666 228.894, 118.871 227.564 C 120.180 226.119, 120.912 223.330, 121.311 218.265 C 121.833 211.640, 121.699 210.902, 119.718 209.515 C 117.046 207.644, 114.886 207.637, 113.250 209.496" stroke="none" fill="black" fill-rule="evenodd"/>
</svg>