<svg xmlns="http://www.w3.org/2000/svg" width="300" height="300" viewBox="0 0 300 300" version="1.1">
	<path d="M 154.667 18.667 C 154.300 19.033, 154 20.053, 154 20.933 C 154 21.812, 150.856 28.825, 147.012 36.516 C 143.169 44.207, 140.019 51.261, 140.012 52.191 C 140.006 53.121, 139.562 54.153, 139.027 54.483 C 138.492 54.814, 137.568 56.889, 136.974 59.095 C 136.380 61.301, 135.018 63.982, 133.947 65.053 C 131.090 67.910, 131.458 70, 134.820 70 C 137.020 70, 137.953 69.303, 139.070 66.825 C 140.576 63.483, 143.438 61.105, 144.580 62.247 C 144.952 62.618, 144.523 65.162, 143.628 67.899 C 142.733 70.636, 142 73.494, 142 74.250 C 142 76.174, 138.389 83.442, 136.810 84.696 C 134.232 86.742, 124.081 92, 122.709 92 C 120.417 92, 118 95.443, 118 98.706 C 118 102.456, 119.708 103.995, 123.558 103.714 C 128.337 103.366, 127.749 106.571, 121.524 114.816 C 118.486 118.840, 116 122.726, 116 123.452 C 116 124.178, 114.200 127.468, 112 130.762 C 109.800 134.057, 108 137.103, 108 137.532 C 108 137.960, 106.762 139.927, 105.250 141.902 C 103.737 143.877, 101.447 147.036, 100.160 148.923 C 97.613 152.657, 92.857 156.800, 92.035 156 C 91.753 155.725, 91.667 152.984, 91.844 149.909 C 92.145 144.685, 91.958 144.143, 89.006 141.659 C 87.268 140.196, 85.468 139, 85.005 139 C 82.580 139, 80.728 140.640, 79.397 143.965 C 78.038 147.361, 73.142 151, 69.932 151 C 68.816 151, 69.724 141.560, 71.097 138.885 C 71.553 137.997, 72.124 133.338, 72.366 128.532 C 72.608 123.726, 73.300 119.300, 73.903 118.697 C 74.506 118.094, 75 116.367, 75 114.859 C 75 113.351, 75.470 111.827, 76.045 111.472 C 76.620 111.117, 77.059 108.728, 77.020 106.163 C 76.981 103.598, 77.407 98.125, 77.965 94 C 78.524 89.875, 79.184 79.300, 79.432 70.500 C 79.951 52.072, 79.166 48.201, 74.604 46.693 C 72.118 45.871, 71.444 46.073, 69.847 48.118 C 68.713 49.569, 68.225 51.282, 68.599 52.500 C 70.040 57.201, 70.038 78.566, 68.595 88.352 C 67.772 93.934, 66.597 103.225, 65.985 109 C 65.372 114.775, 64.466 120.400, 63.972 121.500 C 63.477 122.600, 62.896 126.650, 62.681 130.500 C 62.465 134.350, 61.501 140.650, 60.538 144.500 C 59.574 148.350, 58.455 153.712, 58.051 156.416 C 57.501 160.097, 56.586 161.938, 54.408 163.748 C 52.809 165.076, 50.375 167.157, 49 168.371 C 43.389 173.324, 34.298 180, 33.165 180 C 30.753 180, 23.034 188.216, 22.021 191.863 C 20.540 197.196, 20.704 197.730, 23.967 198.209 C 26.901 198.639, 33 195.760, 33 193.945 C 33 192.296, 52.243 178, 54.462 178 C 54.653 178, 54.573 179.763, 54.284 181.917 C 53.861 185.070, 54.368 186.900, 56.879 191.289 C 58.596 194.289, 59.989 197.814, 59.977 199.122 C 59.944 202.382, 52.067 211.297, 35.947 226.314 C 33.850 228.268, 30.983 230.621, 29.575 231.543 C 24.531 234.848, 29.908 236.344, 36.096 233.357 C 37.968 232.453, 40.400 230.930, 41.500 229.972 C 42.600 229.014, 44.485 227.932, 45.688 227.567 C 48.303 226.775, 54 220.537, 54 218.465 C 54 217.521, 55.014 217, 56.853 217 C 59.024 217, 60.929 215.685, 64.824 211.500 C 70.348 205.565, 72.637 204.836, 75.570 208.077 C 76.603 209.219, 79.896 211.312, 82.887 212.727 C 85.878 214.142, 90.035 216.844, 92.125 218.732 C 94.215 220.620, 96.351 221.901, 96.872 221.579 C 98.233 220.738, 101 221.993, 101 223.452 C 101 224.133, 101.895 225.500, 102.989 226.490 C 104.664 228.006, 106.054 228.189, 111.808 227.654 L 118.639 227.020 120.319 230.544 C 121.244 232.482, 122 235.080, 122 236.316 C 122 237.552, 122.629 240.991, 123.399 243.957 C 124.433 247.945, 124.519 249.962, 123.727 251.700 C 122.798 253.740, 123.101 254.509, 126.024 257.525 C 132.134 263.828, 135.557 261.542, 134.661 251.757 C 133.841 242.808, 132.393 234.969, 130.919 231.500 C 130.217 229.850, 129.609 225.688, 129.566 222.250 C 129.490 216.165, 129.556 216, 132.089 216 C 134.938 216, 138 213.270, 138 210.731 C 138 208.154, 156.522 190.689, 160.782 189.249 C 162.827 188.558, 165.582 186.764, 166.904 185.262 C 169.819 181.950, 171.738 180.763, 180.250 177.007 C 181.488 176.461, 183.175 175.593, 184 175.079 C 186.791 173.337, 195.853 171, 199.813 171 C 206.669 171, 209.684 172.030, 211.093 174.852 C 211.819 176.308, 213.015 178.232, 213.750 179.127 C 215.395 181.129, 216.594 199.565, 215.192 201.302 C 214.660 201.961, 213.969 204.300, 213.657 206.500 C 211.573 221.180, 207.098 242.014, 205.276 245.518 C 204.709 246.608, 203.711 249.300, 203.057 251.500 C 202.403 253.700, 201.504 256.400, 201.058 257.500 C 200.613 258.600, 199.753 260.738, 199.146 262.250 C 197.700 265.855, 195.071 265.806, 187.475 262.031 C 184.189 260.399, 180.965 259.049, 180.311 259.031 C 179.657 259.014, 177.042 257.200, 174.500 255 C 171.958 252.800, 169.442 251, 168.908 251 C 166.993 251, 166.813 254.066, 168.570 256.758 C 170.815 260.196, 180.935 270, 182.240 270 C 182.774 270, 184.584 271.155, 186.262 272.567 C 189.033 274.898, 189.942 275.095, 196.161 274.708 C 201.914 274.351, 203.387 273.874, 205.376 271.728 C 207.957 268.944, 210 263.978, 210 260.490 C 210 259.274, 211.125 256.621, 212.500 254.595 C 213.875 252.569, 215 250.058, 215 249.015 C 215 247.971, 215.464 246.831, 216.031 246.481 C 216.612 246.122, 216.797 244.432, 216.454 242.608 C 216.023 240.311, 216.305 238.992, 217.424 238.063 C 218.649 237.046, 219 234.713, 219 227.578 C 219 221.569, 219.432 217.968, 220.250 217.150 C 220.938 216.463, 221.554 214.010, 221.621 211.700 C 221.687 209.390, 222.448 205.424, 223.312 202.886 C 224.392 199.717, 224.700 196.494, 224.297 192.591 C 223.909 188.831, 224.146 186.095, 224.998 184.505 C 225.956 182.713, 226.014 181.386, 225.223 179.300 C 224.640 177.760, 223.867 175.150, 223.507 173.500 C 223.103 171.651, 220.532 168.295, 216.804 164.750 C 209.945 158.228, 209.347 158.108, 195.500 160.479 C 184.155 162.422, 181.826 163.060, 179 165.002 C 177.625 165.946, 174.700 167.534, 172.500 168.529 C 170.300 169.525, 166.700 171.741, 164.500 173.453 C 162.300 175.165, 159.344 177.067, 157.931 177.679 C 156.518 178.291, 153.298 180.527, 150.777 182.646 C 148.255 184.766, 145.300 187.175, 144.209 188 C 135.765 194.390, 130.436 201.025, 127.144 209.250 C 125.179 214.158, 123.296 212.822, 118.339 203 C 117.089 200.525, 114.751 196.925, 113.141 195 C 110.238 191.528, 110.199 191.515, 108.108 193.405 C 105.417 195.837, 105.472 199.432, 108.278 204.565 C 115.723 218.186, 116.072 219, 114.457 219 C 113.590 219, 110.817 217.425, 108.296 215.500 C 105.775 213.575, 103.172 212, 102.511 212 C 101.851 212, 98.629 210.267, 95.351 208.149 C 92.074 206.030, 88.238 203.668, 86.827 202.899 C 77.727 197.937, 76 196.900, 76 196.395 C 76 196.084, 78.025 191.960, 80.500 187.230 C 82.975 182.501, 85 178.090, 85 177.430 C 85 176.769, 85.672 174.940, 86.494 173.364 C 87.315 171.789, 87.990 169.698, 87.994 168.719 C 88.001 166.517, 90.734 165.334, 92.267 166.867 C 94.151 168.751, 96.857 168.147, 98.625 165.449 C 99.545 164.046, 101.468 162.286, 102.898 161.539 C 104.329 160.791, 106.377 158.452, 107.448 156.340 C 108.519 154.228, 110.136 151.600, 111.040 150.500 C 112.727 148.448, 118.937 137.909, 122.500 131.050 C 123.600 128.933, 125.287 126.333, 126.250 125.272 C 127.213 124.211, 128 122.885, 128 122.326 C 128 121.767, 128.900 120.495, 130 119.500 C 131.100 118.505, 132 117.141, 132 116.471 C 132 114.423, 137.125 105.693, 140.349 102.250 C 143.997 98.354, 145.963 98.228, 152.377 101.483 C 155.059 102.844, 158.884 104.232, 160.877 104.569 C 162.870 104.905, 166.750 106.235, 169.500 107.523 C 172.250 108.812, 176.750 110.157, 179.500 110.511 C 182.250 110.866, 185.447 111.763, 186.604 112.505 C 187.761 113.247, 190.461 114.153, 192.604 114.518 C 197.994 115.437, 206.486 119.916, 207.587 122.422 C 208.652 124.847, 214.464 125.950, 222.240 125.203 C 226.157 124.827, 227.381 124.258, 228.215 122.429 C 229.656 119.266, 228.650 117.254, 224.781 115.561 C 222.976 114.771, 218.461 112.747, 214.747 111.062 C 211.033 109.378, 207.377 108, 206.623 108 C 205.869 108, 199.907 106.200, 193.376 104 C 186.844 101.800, 180.750 100, 179.832 100 C 178.915 100, 175.924 98.875, 173.187 97.500 C 170.449 96.125, 167.600 94.993, 166.855 94.985 C 166.110 94.977, 163.700 94.339, 161.500 93.569 C 157.154 92.046, 152.417 92.483, 149.921 94.637 C 147.863 96.414, 145 96.386, 145 94.589 C 145 93.254, 150.387 88.032, 151.827 87.972 C 152.197 87.956, 154.525 86.107, 157 83.864 C 162.339 79.024, 166.927 76.014, 169 75.991 C 169.825 75.982, 172.412 74.199, 174.750 72.028 C 180.736 66.468, 180.600 61.176, 174.380 57.674 C 173.765 57.327, 171.965 58.193, 170.380 59.597 C 168.796 61.002, 166.375 62.883, 165 63.777 C 163.625 64.672, 160.792 66.717, 158.704 68.322 C 156.616 69.928, 154.671 71.004, 154.381 70.714 C 154.091 70.425, 154.335 68.458, 154.922 66.344 C 156.465 60.786, 156.245 55.582, 154.294 51.491 C 152.638 48.017, 152.656 47.779, 154.942 43.207 C 156.236 40.618, 157.682 37.825, 158.154 37 C 158.626 36.175, 159.267 34.825, 159.579 34 C 159.890 33.175, 160.556 31.825, 161.059 31 C 165.036 24.482, 165.121 24.134, 163.500 21 C 162.251 18.584, 161.305 18, 158.641 18 C 156.822 18, 155.033 18.300, 154.667 18.667 M 152.182 124.274 C 149.453 126.313, 146.864 129.524, 145.146 133 C 142.277 138.807, 138.898 140.499, 138.156 136.500 C 137.280 131.784, 132.732 130.428, 129.557 133.938 C 127.105 136.646, 128.286 142.738, 132.467 148.950 C 134.269 151.629, 136.059 155.503, 136.445 157.560 C 137.395 162.621, 142.361 168.622, 146.243 169.399 C 149.674 170.085, 152.234 168.383, 154.572 163.861 C 155.324 162.407, 157.303 160.741, 158.970 160.160 C 160.636 159.579, 162 158.475, 162 157.707 C 162 156.939, 162.900 155.495, 164 154.500 C 165.100 153.505, 166 151.730, 166 150.557 C 166 148.282, 169.227 138.440, 170.336 137.330 C 170.701 136.965, 171 135.836, 171 134.820 C 171 133.804, 171.552 132.090, 172.226 131.010 C 173.299 129.292, 172.961 128.545, 169.523 125.023 C 166.061 121.478, 165.053 121.003, 161.047 121.024 C 157.506 121.043, 155.544 121.762, 152.182 124.274 M 151.938 141.307 C 146.821 147.685, 145 150.860, 145 153.404 C 145 155.333, 145.514 156, 147 156 C 148.412 156, 149 155.333, 149 153.733 C 149 152.403, 150.888 149.494, 153.567 146.699 C 158.057 142.013, 159.005 138.733, 155.989 138.318 C 155.170 138.206, 153.347 139.550, 151.938 141.307 M 76.722 155.011 C 75.775 156.118, 75 157.320, 75 157.684 C 75 158.047, 72.821 160.855, 70.158 163.922 C 65.719 169.036, 65.260 170.052, 64.642 176.141 C 63.945 182.993, 65.107 188.464, 67.117 187.794 C 68.045 187.485, 71.352 181.733, 75.256 173.641 C 78.706 166.489, 81.298 153, 79.222 153 C 78.794 153, 77.669 153.905, 76.722 155.011 M 169.500 198.086 C 167.300 199.723, 164.375 201.805, 163 202.713 C 161.625 203.621, 159.252 205.502, 157.726 206.892 C 155.320 209.085, 154.577 209.279, 152.126 208.354 C 149.976 207.542, 148.666 207.619, 146.650 208.675 C 144.267 209.924, 144 210.625, 144 215.626 C 144 220.337, 144.304 221.267, 145.990 221.708 C 147.515 222.106, 147.841 222.785, 147.384 224.605 C 146.966 226.273, 147.277 227.169, 148.431 227.612 C 149.335 227.959, 150.710 229.763, 151.486 231.621 C 152.263 233.480, 153.596 235, 154.449 235 C 155.302 235, 156 235.398, 156 235.883 C 156 237.749, 160.390 237.858, 162.922 236.056 C 164.402 235.002, 168.509 233.853, 172.506 233.375 C 180.206 232.454, 180.331 232.455, 184.197 233.477 C 186.627 234.120, 187.050 233.816, 188.478 230.398 C 190.771 224.909, 190.211 223.980, 183.750 222.564 C 180.324 221.814, 180.304 220.612, 183.638 215.800 C 187.137 210.752, 187.529 203.085, 184.518 198.604 C 182.756 195.980, 181.743 195.470, 177.967 195.306 C 174.392 195.150, 172.701 195.705, 169.500 198.086 M 163.596 216.416 C 159.283 220.108, 159.188 223, 163.380 223 C 166.188 223, 171 217.900, 171 214.923 C 171 212.022, 168.031 212.621, 163.596 216.416" stroke="none" fill="black" fill-rule="evenodd"/>
</svg>