<svg xmlns="http://www.w3.org/2000/svg" width="300" height="300" viewBox="0 0 300 300" version="1.1">
	<path d="M 144.667 34.667 C 142.841 36.492, 144.187 41.465, 147.500 45.132 C 150.386 48.326, 151 49.780, 151 53.418 C 151 57.412, 150.561 58.216, 146.370 61.906 C 142.570 65.251, 141.956 66.242, 142.946 67.435 C 143.830 68.500, 145.430 68.736, 148.941 68.321 C 157.412 67.317, 156.661 71.244, 147.540 75.641 C 144.768 76.977, 140.925 78.951, 139 80.027 C 137.003 81.143, 134.373 81.793, 132.877 81.542 C 129.817 81.027, 126.626 83.963, 125.620 88.219 C 124.857 91.447, 127.608 93.738, 133.371 94.673 C 136.563 95.191, 137.062 94.968, 137.952 92.627 C 138.621 90.867, 139.701 89.993, 141.225 89.978 C 142.476 89.966, 144.625 89.076, 146 88 C 148.752 85.847, 152 85.369, 152 87.116 C 152 87.729, 151.347 90.317, 150.550 92.866 C 149.752 95.415, 148.584 99.525, 147.954 102 C 147.323 104.475, 146.236 107.852, 145.537 109.504 C 144.839 111.156, 143.925 114.081, 143.507 116.004 C 143.089 117.927, 141.454 121.140, 139.874 123.144 C 138.293 125.148, 137 127.448, 137 128.254 C 137 129.061, 135.841 131.428, 134.426 133.515 C 131.861 137.294, 131.858 137.321, 133.676 140.771 C 134.679 142.675, 136.570 144.945, 137.878 145.815 C 140.090 147.287, 140.522 147.244, 144.076 145.199 C 146.177 143.989, 148.145 143, 148.448 143 C 149.430 143, 149.032 147.862, 147.997 148.502 C 147.446 148.842, 146.035 151.227, 144.863 153.802 C 142.085 159.898, 128.330 176, 125.900 176 C 123.796 176, 121.484 179.905, 120.508 185.105 C 119.942 188.122, 120.333 189.279, 123.172 192.992 C 127.300 198.389, 128.706 198.902, 130.006 195.485 C 130.566 194.012, 131.919 192.573, 133.012 192.287 C 134.105 192.001, 135 190.951, 135 189.955 C 135 188.958, 135.675 187.468, 136.500 186.643 C 137.325 185.818, 138 184.730, 138 184.225 C 138 182.100, 141.737 176.086, 146.693 170.237 C 149.612 166.792, 152 163.529, 152 162.987 C 152 162.444, 152.675 162, 153.500 162 C 154.428 162, 155 161.059, 155 159.530 C 155 158.172, 155.970 155.360, 157.155 153.280 C 158.340 151.201, 160.593 147.086, 162.162 144.135 C 163.731 141.184, 166.410 137.008, 168.116 134.854 C 170.240 132.171, 171.041 130.263, 170.656 128.794 C 170.321 127.513, 170.683 126.218, 171.556 125.575 C 172.358 124.984, 173.718 121.800, 174.576 118.500 C 177.838 105.957, 178.255 104.433, 179.083 102 C 179.551 100.625, 180.062 97.277, 180.217 94.559 C 180.492 89.757, 180.409 89.592, 177.241 88.662 C 172.692 87.327, 170.569 89.543, 167.938 98.378 C 166.771 102.295, 165.402 106.546, 164.895 107.825 C 164.389 109.104, 164.207 110.525, 164.490 110.985 C 164.774 111.444, 164.105 113.922, 163.003 116.493 C 161.901 119.063, 161 122.013, 161 123.048 C 161 124.083, 160.130 125.395, 159.066 125.965 C 156.637 127.264, 150 127.325, 150 126.047 C 150 123.950, 155.154 111.763, 156.938 109.643 C 157.797 108.621, 158.558 106.371, 158.628 104.643 C 158.740 101.926, 160.091 97.335, 163.085 89.500 C 163.505 88.400, 164.086 86.375, 164.375 85 C 164.664 83.625, 165.540 80.250, 166.320 77.500 C 167.615 72.940, 168.001 72.500, 170.713 72.500 C 174.174 72.500, 177 70.492, 177 68.033 C 177 66.098, 180.009 63, 181.888 63 C 182.564 63, 182.840 62.550, 182.500 62 C 182.160 61.450, 181.031 61, 179.992 61 C 178.952 61, 176.904 59.429, 175.440 57.510 C 172.651 53.854, 171 53.720, 171 57.149 C 171 59.638, 167.259 62.922, 164.373 62.967 C 162.377 62.998, 162.243 62.495, 162.210 54.855 C 162.180 48.115, 161.813 46.261, 160.078 44.105 C 158.925 42.672, 157.519 40.412, 156.952 39.081 C 156.385 37.751, 155.152 36.078, 154.211 35.363 C 152.418 34.002, 145.814 33.519, 144.667 34.667 M 76.104 82.882 C 71.597 83.702, 70.357 85.824, 71.555 90.672 C 72.362 93.940, 72.939 94.542, 75.500 94.790 C 80.788 95.302, 83.812 97.083, 85.525 100.695 C 86.929 103.653, 87.005 104.858, 86.008 108.353 C 85.358 110.634, 84.495 114.525, 84.091 117 C 83.449 120.934, 80.910 127.255, 78.066 132 C 77.571 132.825, 76.410 135.300, 75.485 137.500 C 74.559 139.700, 72.947 143.201, 71.901 145.281 C 69.515 150.026, 69.513 152.323, 71.893 157.434 C 75.757 165.731, 75.691 165.992, 67.708 174.113 C 63.713 178.176, 56.177 185.431, 50.960 190.235 C 45.743 195.039, 40.369 200.994, 39.018 203.468 L 36.561 207.966 40.393 211.890 C 46.595 218.242, 56.750 222.579, 71.251 225.068 C 76.985 226.052, 78.500 225.991, 81.306 224.659 C 88.431 221.278, 93.423 214.060, 94.736 205.241 C 95.003 203.448, 95.621 201.734, 96.110 201.432 C 97.298 200.698, 97.203 188.521, 95.970 183.500 C 95.430 181.300, 94.573 176.381, 94.065 172.568 C 93.243 166.395, 93.353 165.367, 95.071 163.183 C 96.132 161.834, 97 159.457, 97 157.900 C 97 156.094, 97.723 154.683, 99 154 C 101.528 152.647, 101.502 152.139, 98.717 148.659 L 96.444 145.819 91.982 151.409 C 85.746 159.225, 82.876 158.816, 81.591 149.926 C 80.979 145.689, 81.146 145.187, 83.862 143.106 C 86.020 141.452, 86.969 139.695, 87.455 136.453 C 87.818 134.029, 88.540 131.785, 89.058 131.464 C 89.576 131.144, 90 129.614, 90 128.063 C 90 126.513, 90.621 124.730, 91.379 124.100 C 93.704 122.171, 94.582 117.316, 95.607 100.717 C 96.149 91.935, 96.148 91.933, 92.923 88.217 C 88.472 83.089, 83.546 81.527, 76.104 82.882 M 183.258 125.250 C 182.715 125.938, 182.017 128.975, 181.708 132 C 181.135 137.586, 178.869 145.938, 176.375 151.651 C 175.619 153.384, 175 155.252, 175 155.801 C 175 156.350, 173.425 159.139, 171.500 162 C 169.575 164.861, 168 167.782, 168 168.492 C 168 169.203, 166.619 171.520, 164.931 173.642 C 163.243 175.764, 158.726 182.225, 154.894 188 C 148.334 197.886, 144.052 203.803, 138.769 210.284 C 133.381 216.893, 115.244 234.328, 112.500 235.536 C 109.426 236.889, 106 240.280, 106 241.969 C 106 242.490, 103.947 244.119, 101.437 245.590 C 97.308 248.010, 96.619 248.135, 94.187 246.914 C 92.709 246.172, 91.163 245.400, 90.750 245.199 C 90.338 244.998, 90 246.398, 90 248.311 C 90 252.437, 94.580 258, 97.977 258 C 100.519 258, 110.550 250.648, 117 244.058 C 119.475 241.529, 127.912 233.397, 135.750 225.987 C 143.588 218.577, 150 211.981, 150 211.330 C 150 210.678, 151.290 209.100, 152.867 207.822 C 154.445 206.545, 156.555 204.150, 157.557 202.500 C 158.559 200.850, 160.888 197.600, 162.733 195.278 C 164.578 192.957, 166.944 189.132, 167.992 186.778 C 169.040 184.425, 170.820 181.934, 171.948 181.242 C 173.077 180.549, 174 179.390, 174 178.666 C 174 177.941, 175.102 176.314, 176.448 175.049 C 177.795 173.784, 179.174 171.486, 179.512 169.944 C 179.851 168.401, 180.775 166.602, 181.564 165.947 C 182.354 165.291, 183 164.330, 183 163.811 C 183 163.291, 184.066 161.434, 185.370 159.683 C 186.673 157.932, 188.022 154.627, 188.368 152.338 C 188.713 150.049, 189.896 146.074, 190.998 143.505 C 193.422 137.851, 193.641 129.359, 191.443 126.223 C 189.715 123.754, 184.891 123.181, 183.258 125.250 M 77.519 178.939 C 77.181 180.005, 74.563 183.310, 71.702 186.283 C 68.841 189.256, 64.851 193.671, 62.835 196.094 C 53.537 207.272, 52 209.241, 52 209.978 C 52 210.919, 55.574 211.967, 58.849 211.986 C 60.141 211.994, 62.674 212.700, 64.478 213.556 C 66.525 214.528, 69.741 214.998, 73.035 214.806 C 78.245 214.504, 78.346 214.436, 80.998 209.500 C 85.712 200.726, 86.696 183.195, 82.752 178.250 C 81.241 176.356, 78.213 176.754, 77.519 178.939 M 156.207 207.595 C 155.124 209.530, 155.783 213.575, 157.399 214.917 C 158.047 215.454, 161.703 216.393, 165.522 217.004 C 169.342 217.614, 173.309 218.875, 174.337 219.807 C 175.365 220.738, 178.297 222.013, 180.853 222.640 C 188.295 224.467, 195.211 227.288, 200.541 230.672 C 203.269 232.403, 207.180 234.272, 209.234 234.825 C 211.288 235.378, 214.161 236.768, 215.619 237.915 C 217.077 239.062, 218.712 240, 219.253 240 C 219.794 240, 221.774 241.350, 223.653 243 C 225.532 244.650, 227.692 246, 228.453 246 C 231.256 246, 240.796 251.656, 253.750 260.998 C 257.521 263.718, 258 264.511, 258 268.032 C 258 272.423, 258.136 272.543, 261.079 270.750 C 262.848 269.672, 263.386 269.812, 264.986 271.763 C 266.007 273.008, 267.029 274.583, 267.258 275.263 C 267.559 276.157, 268.966 275.857, 272.337 274.180 C 278.532 271.097, 278.681 268.033, 272.923 262.159 C 270.681 259.872, 268.448 258, 267.962 258 C 267.476 258, 266.231 257.090, 265.195 255.979 C 263.217 253.856, 253.611 247.800, 248.500 245.453 C 242.940 242.900, 234.813 238.172, 232.649 236.231 C 231.467 235.171, 228.475 233.531, 226 232.587 C 223.525 231.642, 219.925 229.848, 218 228.601 C 216.075 227.353, 212.250 225.491, 209.500 224.462 C 206.750 223.433, 202.472 221.409, 199.994 219.965 C 197.515 218.521, 194.140 217.011, 192.494 216.611 C 190.847 216.210, 187.700 215.055, 185.500 214.043 C 179.832 211.435, 169.346 208, 167.055 208 C 165.990 208, 164.840 207.550, 164.500 207 C 163.490 205.365, 157.202 205.817, 156.207 207.595" stroke="none" fill="black" fill-rule="evenodd"/>
</svg>