<svg xmlns="http://www.w3.org/2000/svg" width="300" height="300" viewBox="0 0 300 300" version="1.1">
	<path d="M 130 12.690 C 127.014 13.750, 120.329 18.648, 112 25.881 C 103.209 33.515, 99.759 36.044, 90.017 42 C 82.165 46.800, 80.512 48.134, 79.089 50.814 C 77.708 53.416, 78.752 55.440, 81.899 56.263 C 83.941 56.797, 88.967 54.662, 93.683 51.257 C 95.392 50.023, 97.849 48.898, 99.145 48.757 C 101.112 48.542, 101.459 48.912, 101.254 51 C 100.368 59.982, 99.790 63.743, 99.023 65.500 C 98.543 66.600, 97.925 68.625, 97.649 70 C 96.854 73.956, 94.901 81.312, 94.064 83.500 C 91.024 91.448, 89.041 98.067, 88.296 102.759 C 88.012 104.552, 87.379 106.266, 86.890 106.568 C 86.400 106.871, 86 108.130, 86 109.368 C 86 110.605, 85.339 112.491, 84.532 113.559 C 83.724 114.626, 83.049 116.486, 83.032 117.691 C 83.014 118.896, 82.550 120.160, 82 120.500 C 81.450 120.840, 81 121.955, 81 122.978 C 81 124.001, 80.364 126.112, 79.586 127.669 C 72.881 141.089, 72.450 144.746, 77.371 146.467 C 79.974 147.377, 80.513 147.148, 83.121 144.024 C 84.705 142.127, 86 139.636, 86 138.488 C 86 137.339, 86.452 135.948, 87.004 135.396 C 88.142 134.258, 91 123.918, 91 120.938 C 91 119.857, 91.384 118.191, 91.853 117.236 C 94.087 112.687, 95.869 108.105, 97 104 C 97.682 101.525, 98.821 98.150, 99.532 96.500 C 100.243 94.850, 101.361 91.475, 102.017 89 C 102.672 86.525, 103.611 83.466, 104.104 82.203 C 104.597 80.940, 105 78.604, 105 77.012 C 105 75.420, 105.408 73.866, 105.906 73.558 C 106.405 73.250, 107.135 70.654, 107.529 67.789 C 107.923 64.924, 108.614 61.887, 109.065 61.040 C 110.200 58.908, 113 45.357, 113 41.998 C 113 39.914, 114.159 38.305, 117.750 35.407 C 120.362 33.298, 123.795 30.094, 125.377 28.286 C 129.196 23.924, 131.392 23.909, 130.702 28.250 C 130.170 31.599, 128.928 36.259, 127.169 41.500 C 125.520 46.414, 124 53.827, 124 56.955 C 124 58.565, 123.550 60.160, 123 60.500 C 122.450 60.840, 122 64.451, 122 68.524 C 122 74.822, 122.289 76.084, 123.934 76.965 C 126.641 78.413, 129.261 78.255, 131.547 76.503 C 135.800 73.244, 142.162 68.188, 150.112 61.750 C 157.389 55.857, 158.970 55, 162.568 55 C 167.063 55, 170 57.224, 170 60.629 C 170 61.713, 170.372 63.028, 170.826 63.550 C 173.839 67.015, 176.367 85.172, 176.319 103 C 176.286 115.464, 174.564 128.770, 172.749 130.585 C 172.337 130.996, 172 132.530, 172 133.992 C 172 135.532, 170.953 137.635, 169.513 138.988 C 167.270 141.095, 166.657 141.215, 163.263 140.214 C 156.440 138.200, 149.335 137.649, 148.459 139.066 C 146.501 142.234, 161.932 150.033, 170.115 150.010 C 176.339 149.993, 182 143.356, 182 136.078 C 182 134.605, 182.406 132.973, 182.903 132.450 C 183.400 131.928, 184.034 129.475, 184.314 127 C 184.593 124.525, 185.290 120.475, 185.863 118 C 187.052 112.865, 184.777 76.393, 182.837 69.500 C 178.080 52.592, 175.938 49.143, 167.977 45.570 C 163.769 43.682, 161.035 43.025, 159.246 43.474 C 155.866 44.323, 143.424 52.935, 139.031 57.468 C 133.473 63.203, 130.981 61.832, 133.040 54.171 C 133.730 51.602, 134.679 49.072, 135.147 48.550 C 135.616 48.027, 135.996 46.677, 135.992 45.550 C 135.981 42.930, 138.975 30.046, 140.125 27.764 C 141.774 24.491, 141.163 15.457, 139.171 13.655 C 137.401 12.053, 133.078 11.598, 130 12.690 M 113.528 102.954 C 111.570 106.122, 116.265 112, 120.754 112 C 124.124 112, 124.422 114.156, 121.736 119.115 C 120.430 121.527, 118.791 125.525, 118.093 128 C 116.887 132.281, 116.381 133.585, 112.608 142.151 C 109.344 149.562, 111.460 155, 117.606 155 C 123.490 155, 128.128 161.018, 129.334 170.218 L 129.953 174.936 125.726 176.024 C 123.402 176.623, 120.150 177.519, 118.500 178.015 C 116.850 178.512, 111.225 179.643, 106 180.529 C 100.775 181.415, 93.359 183.009, 89.520 184.070 C 85.681 185.132, 81.638 186, 80.535 186 C 79.432 186, 73.287 187.648, 66.879 189.661 C 57.523 192.601, 54.417 194.071, 51.114 197.121 C 48.851 199.210, 47 201.327, 47 201.825 C 47 204.335, 51.785 208.065, 60.659 212.471 C 66.072 215.159, 71.850 218.357, 73.500 219.579 C 77.424 222.484, 83.749 226.024, 91 229.372 C 92.925 230.261, 97.425 232.851, 101 235.127 C 113.971 243.385, 116.974 244.894, 122.455 245.907 C 128.695 247.061, 132.717 246.107, 133.599 243.265 C 133.900 242.294, 134.563 240.719, 135.073 239.764 C 135.583 238.809, 136 236.761, 136 235.214 C 136 233.666, 136.504 231.896, 137.121 231.279 C 138.762 229.638, 140.070 218.543, 140.632 201.500 C 140.904 193.250, 141.438 186.183, 141.818 185.795 C 142.198 185.408, 146.332 184.391, 151.005 183.536 C 155.677 182.681, 162.200 181.471, 165.500 180.847 C 168.800 180.223, 177.350 179.413, 184.500 179.048 C 194.541 178.534, 198.126 177.972, 200.250 176.576 C 205.806 172.927, 202.353 164, 195.386 164 C 193.743 164, 191.927 164.473, 191.349 165.051 C 190.771 165.629, 183.819 166.967, 175.899 168.025 C 167.980 169.083, 157.477 170.880, 152.561 172.019 C 140.771 174.750, 139.726 174.546, 138.842 169.342 C 138.190 165.502, 137.164 163.040, 132.557 154.249 C 131.619 152.461, 128.861 149.831, 126.426 148.404 C 123.186 146.505, 122 145.181, 122 143.464 C 122 142.174, 122.415 140.861, 122.923 140.548 C 123.431 140.234, 124.160 138.550, 124.543 136.806 C 124.926 135.062, 125.994 132.255, 126.916 130.568 C 127.838 128.880, 129.220 125.475, 129.986 123 C 130.752 120.525, 131.969 117.612, 132.690 116.527 C 135.708 111.984, 132.657 105.341, 126.473 102.990 C 123.150 101.726, 114.302 101.702, 113.528 102.954 M 119.500 187.610 C 116.200 188.403, 107.650 190.183, 100.500 191.564 C 93.350 192.946, 85.475 194.761, 83 195.598 C 80.525 196.435, 75.802 197.788, 72.505 198.605 C 65.947 200.231, 61.996 202.364, 62.007 204.273 C 62.014 205.587, 67.925 210, 69.677 210 C 70.256 210, 71.845 210.877, 73.207 211.948 C 74.569 213.019, 82.842 217.567, 91.592 222.054 C 100.341 226.541, 108.175 230.788, 109 231.492 C 112.184 234.209, 121.188 238.075, 122.994 237.502 C 125.107 236.831, 128.489 230.267, 129.436 225 C 130.733 217.787, 132.136 194.396, 131.519 190.278 C 130.942 186.431, 130.607 186.008, 128.189 186.084 C 126.710 186.130, 122.800 186.817, 119.500 187.610" stroke="none" fill="black" fill-rule="evenodd"/>
</svg>