<svg xmlns="http://www.w3.org/2000/svg" width="300" height="300" viewBox="0 0 300 300" version="1.1">
	<path d="M 107.750 12.080 C 105.458 13.415, 105.351 20.397, 107.595 22.211 C 112.534 26.203, 113.732 27.925, 114.378 31.961 C 114.877 35.084, 114.709 36.556, 113.789 37.110 C 110.604 39.028, 99.474 47.892, 95.405 51.750 C 92.940 54.087, 90.347 56, 89.642 56 C 88.135 56, 85.026 52.586, 81.618 47.187 C 79.112 43.217, 70.607 37, 67.682 37 C 65.600 37, 64.421 41.452, 65.608 44.827 C 66.184 46.464, 67.584 47.654, 69.528 48.158 C 72.412 48.905, 81.902 59.146, 84.840 64.682 C 87.147 69.030, 91.513 68.531, 97 63.291 C 101.849 58.660, 107.592 54.195, 116 48.517 C 120.675 45.360, 124.911 41.918, 125.413 40.867 C 126.596 38.389, 130.916 37.254, 132.085 39.115 C 133.679 41.654, 130.337 48, 127.404 48 C 125.159 48, 124.625 50.252, 126.538 51.652 C 127.553 52.393, 130.018 53, 132.017 53 C 136.346 53, 138.524 50.904, 142.347 43.054 C 149.229 28.926, 142.280 18.735, 130.028 24.986 C 127.887 26.078, 125.854 27.428, 125.509 27.986 C 125.164 28.544, 124.009 29, 122.941 29 C 121.595 29, 121 28.310, 120.999 26.750 C 120.998 23.089, 117.420 14.759, 115.012 12.808 C 112.513 10.785, 110.346 10.568, 107.750 12.080 M 114.200 59.200 C 113.540 59.860, 113 61.183, 113 62.141 C 113 63.099, 112.550 64.160, 112 64.500 C 111.450 64.840, 111 66.386, 111 67.937 C 111 69.487, 110.325 71.315, 109.500 72 C 108.675 72.685, 108 74.090, 108 75.122 C 108 79.329, 92.231 90.685, 77.802 96.871 C 71.838 99.427, 70.389 101.918, 72.495 105.991 C 74.337 109.553, 76.718 109.793, 82.500 107 C 86.910 104.870, 89 104.520, 89 105.914 C 89 107.810, 77.537 124, 76.193 124 C 75.421 124, 73.452 122.875, 71.818 121.500 C 67.072 117.507, 61 118.311, 61 122.933 C 61 126.174, 64.706 130, 67.846 130 C 69.065 130, 70.311 130.648, 70.615 131.440 C 71.192 132.943, 62.205 145.865, 56.336 151.971 C 54.501 153.880, 53 156.152, 53 157.021 C 53 159.240, 55.016 161, 57.560 161 C 61.766 161, 83.679 137.246, 88.464 127.500 C 91.332 121.658, 96.085 114.761, 98.648 112.724 C 99.876 111.747, 101.196 109.947, 101.581 108.724 C 102.696 105.178, 113.061 90.089, 115.907 87.870 C 117.333 86.758, 121.875 83.680, 126 81.030 C 135.466 74.949, 137.427 72.839, 136.616 69.607 C 135.732 66.082, 132.611 65.442, 128.408 67.922 C 126.471 69.065, 123.959 70, 122.826 70 C 121.128 70, 120.857 69.526, 121.283 67.301 C 122.451 61.191, 117.673 55.727, 114.200 59.200 M 137.320 97.750 C 136.471 100.155, 132.899 104, 131.514 104 C 130.888 104, 128.379 103.021, 125.938 101.824 C 120.865 99.336, 114.415 99.157, 112.132 101.440 C 110.755 102.816, 110.886 103.272, 113.418 105.915 C 114.969 107.533, 117.872 109.242, 119.869 109.712 C 124.874 110.890, 124.906 113.215, 120.023 120.725 C 116.577 126.026, 115.026 127.409, 109.582 130.035 C 104.950 132.269, 103.018 133.792, 102.574 135.559 C 102.148 137.260, 101.266 138, 99.668 138 C 96.401 138, 92 142.938, 92 146.605 C 92 148.252, 91.504 150.096, 90.898 150.702 C 89.518 152.082, 91.635 156.806, 94.353 158.408 C 95.849 159.289, 96.427 159.117, 97.353 157.513 C 100.318 152.376, 113.275 142, 116.725 142 C 119.499 142, 121.209 144.333, 120.822 147.590 C 120.517 150.155, 120.188 150.315, 114.704 150.552 C 109.433 150.780, 108.470 151.197, 104.056 155.152 C 98.724 159.929, 97.693 163.507, 100.829 166.345 C 103.509 168.771, 105.326 168.405, 110 164.500 C 117.208 158.478, 118.924 160.767, 113.359 168.982 C 112.061 170.897, 111 173.152, 111 173.992 C 111 176.213, 106.087 181.164, 104.238 180.806 C 103.370 180.638, 101.654 178.596, 100.423 176.268 C 96.757 169.335, 93.819 164.720, 90.569 160.790 C 88.881 158.749, 86.568 155.868, 85.430 154.386 C 83.755 152.207, 82.848 151.821, 80.680 152.366 C 78.431 152.930, 78 153.585, 78 156.436 C 78 159.091, 79.234 161.329, 83.641 166.667 C 86.743 170.425, 90.627 176.349, 92.273 179.832 C 95.694 187.071, 95.381 187.939, 88.498 190.311 C 83.519 192.027, 82.481 195.917, 86.180 199 C 89.183 201.503, 90.973 201.473, 96.415 198.829 C 100.128 197.025, 101.147 196.877, 102.442 197.952 C 103.299 198.663, 104 200.150, 104 201.256 C 104 202.363, 104.418 204.895, 104.928 206.884 C 105.439 208.873, 106.363 217.515, 106.983 226.089 C 108.099 241.544, 107.367 252.552, 104.910 257.236 C 104.410 258.191, 104 259.584, 104 260.331 C 104 262.299, 100.683 265, 98.266 265 C 96.978 265, 94.125 262.661, 90.747 258.835 C 86.835 254.405, 84.836 252.849, 83.643 253.307 C 82.192 253.864, 82.372 254.575, 85.078 258.972 C 86.779 261.737, 88.553 264, 89.018 264 C 89.484 264, 90.117 264.788, 90.425 265.750 C 91.084 267.808, 98.299 272.551, 102.274 273.539 C 104.609 274.120, 105.583 273.662, 108.427 270.646 C 115.355 263.300, 117.564 249.152, 115.944 222.500 C 114.968 206.445, 113.736 199.069, 111.345 194.962 L 109.500 191.793 113 189.154 C 118.557 184.962, 126.003 176.909, 125.968 175.129 C 125.951 174.233, 125.276 172.626, 124.468 171.559 C 122.658 169.165, 122.603 167.142, 124.293 165.079 C 125.004 164.210, 126.187 161.700, 126.921 159.500 C 127.655 157.300, 129.111 153.701, 130.156 151.502 C 131.849 147.945, 131.919 146.964, 130.801 142.599 C 130.010 139.515, 128.903 137.526, 127.820 137.243 C 126.723 136.956, 126.110 135.830, 126.134 134.146 C 126.154 132.691, 125.892 130.375, 125.553 129 C 125.049 126.962, 125.788 125.623, 129.554 121.750 C 134.380 116.787, 136.286 116.095, 138.921 118.352 C 139.790 119.096, 144.100 121.178, 148.500 122.980 C 157.620 126.716, 164.695 130.364, 172.005 135.100 C 176.527 138.030, 177.009 138.680, 176.473 141.122 C 175.900 143.731, 176.088 143.891, 180.514 144.554 C 183.307 144.973, 186.120 144.811, 187.578 144.147 C 192.073 142.098, 189.970 135.587, 183.778 132.385 C 182.073 131.503, 179.513 129.689, 178.089 128.352 C 176.665 127.016, 168.300 122.298, 159.500 117.867 C 150.700 113.436, 143.338 109.655, 143.141 109.463 C 142.943 109.272, 143.731 107.782, 144.891 106.153 C 147.483 102.513, 147.572 99.827, 145.171 97.655 C 142.727 95.443, 138.114 95.499, 137.320 97.750 M 61.161 226.600 C 60.079 227.358, 58.428 230.571, 57.494 233.739 C 56.559 236.908, 55.417 240.625, 54.956 242 C 54.495 243.375, 53.568 247.093, 52.897 250.263 C 51.731 255.767, 51.781 256.138, 54.012 258.513 C 55.297 259.881, 56.913 261, 57.602 261 C 60.060 261, 63 255.861, 63 251.565 C 63 249.274, 63.412 246.973, 63.915 246.450 C 64.419 245.928, 64.981 244.375, 65.165 243 C 65.435 240.986, 66.143 240.438, 68.807 240.182 C 74.064 239.678, 74.366 234.966, 69.512 229.197 C 66.490 225.605, 63.783 224.763, 61.161 226.600 M 162.040 230.528 L 158.579 232.080 162.014 235.012 C 165.652 238.117, 166.245 238.377, 178 242.025 C 182.125 243.306, 188.719 245.848, 192.654 247.676 C 196.589 249.504, 200.271 251, 200.836 251 C 201.401 251, 202.825 252.350, 204 254 C 206.488 257.494, 210.386 258.016, 211.965 255.066 C 215.007 249.381, 210.425 244.765, 195.292 238.273 C 173.619 228.975, 168.277 227.731, 162.040 230.528" stroke="none" fill="black" fill-rule="evenodd"/>
</svg>