<svg xmlns="http://www.w3.org/2000/svg" width="300" height="300" viewBox="0 0 300 300" version="1.1">
	<path d="M 98.557 21.223 C 96.323 24.412, 96.574 25.668, 100.556 31.211 C 103.589 35.432, 103.920 36.400, 102.806 37.786 C 100.163 41.076, 96.402 45.304, 92.662 49.189 C 90.552 51.381, 88.196 54.680, 87.428 56.519 C 86.659 58.358, 85.614 60.120, 85.105 60.435 C 83.319 61.539, 81.115 59.802, 80.448 56.763 C 80.057 54.984, 77.383 51.236, 74.088 47.847 C 68.964 42.578, 67.993 42, 64.268 42 C 61.110 42, 59.995 42.441, 59.542 43.868 C 58.730 46.425, 60.585 50.927, 62.735 51.619 C 68.873 53.595, 70.070 54.619, 74.880 62.004 C 77.696 66.327, 80 70.725, 80 71.777 C 80 72.829, 80.911 74.514, 82.024 75.522 C 83.989 77.300, 84.126 77.296, 86.651 75.411 C 88.082 74.343, 89.983 71.662, 90.876 69.454 C 93.281 63.507, 95.653 60.381, 104.500 51.502 C 114.405 41.560, 119.521 37.602, 121.490 38.358 C 123.485 39.124, 123.406 42.505, 121.308 46.055 C 119.706 48.768, 119.714 49.026, 121.463 50.959 C 123.927 53.682, 127.587 53.560, 129.467 50.691 C 130.298 49.422, 131.443 45.937, 132.010 42.948 C 133.275 36.275, 132.144 32.847, 127.160 28.250 C 122.871 24.294, 119.261 24.068, 115.182 27.500 C 111.148 30.895, 109.305 30.689, 108.471 26.750 C 107.653 22.882, 104.353 19, 101.882 19 C 100.909 19, 99.413 20, 98.557 21.223 M 102.057 66.432 C 101.197 67.467, 101.037 69.835, 101.522 74.357 C 102.207 80.755, 102.181 80.847, 98.204 86.152 C 93.008 93.087, 89.812 98.887, 90.540 100.065 C 91.593 101.768, 95.168 101.036, 98.182 98.500 C 99.816 97.125, 101.794 96, 102.577 96 C 104.287 96, 104.531 101.069, 102.899 102.701 C 102.098 103.502, 102.138 104.741, 103.046 107.250 C 104.730 111.908, 103.710 115.192, 99.246 119.479 C 93.715 124.790, 81.483 132.168, 75.734 133.659 C 68.999 135.406, 66 137.499, 66 140.452 C 66 144.766, 68.626 146.277, 74.787 145.507 C 81.945 144.613, 87.149 142.716, 92.674 138.987 C 95.154 137.313, 98.155 135.844, 99.342 135.722 C 101.308 135.520, 101.527 136.033, 101.807 141.494 C 101.976 144.791, 101.650 149.333, 101.082 151.588 C 100.454 154.083, 100.391 156.878, 100.922 158.729 C 101.402 160.401, 101.486 163.278, 101.109 165.120 C 100.490 168.148, 99.948 168.584, 95.462 169.655 C 92.733 170.307, 87.800 171.744, 84.500 172.848 C 81.200 173.952, 76.250 175.601, 73.500 176.512 C 68.501 178.168, 50.021 182.502, 34 185.775 C 29.325 186.730, 24.938 187.873, 24.250 188.315 C 22.451 189.471, 22.711 192.422, 24.846 195.058 C 26.625 197.255, 26.906 197.292, 32.596 196.069 C 35.843 195.371, 43 193.998, 48.500 193.016 C 54 192.035, 60.525 190.469, 63 189.537 C 65.475 188.605, 70.237 187.440, 73.582 186.949 C 76.927 186.458, 80.977 185.371, 82.582 184.534 C 84.187 183.697, 86.458 183.010, 87.628 183.006 C 88.798 183.003, 91.347 182.335, 93.292 181.522 C 95.419 180.634, 99.435 180.122, 103.370 180.239 C 108.994 180.405, 110.258 180.107, 112.388 178.105 C 115.835 174.867, 126.687 173.918, 167 173.328 C 194.773 172.921, 199.755 172.622, 201.250 171.271 C 203.576 169.170, 203.457 166.851, 200.855 163.542 C 198.986 161.167, 198.244 160.901, 195.105 161.482 C 189.887 162.447, 181.957 162.898, 150 164.046 C 134.325 164.609, 120.207 165.166, 118.627 165.285 C 114.384 165.603, 113.041 162.936, 115.315 158.713 C 116.807 155.942, 116.906 154.912, 115.917 152.448 C 115.265 150.827, 114.537 143.425, 114.299 136 L 113.865 122.500 122.682 114.573 C 127.532 110.213, 132.076 105.843, 132.779 104.862 C 134.528 102.424, 133.281 98.085, 130.462 96.801 C 128.519 95.915, 127.326 96.373, 122.427 99.881 C 119.263 102.146, 116.119 104, 115.440 104 C 113.961 104, 111.484 88.192, 112.395 84.564 C 112.727 83.239, 114.125 80.817, 115.500 79.183 C 116.875 77.548, 118 75.342, 118 74.280 C 118 71.579, 113.879 68, 110.769 68 C 109.338 68, 108.017 67.609, 107.833 67.132 C 107.169 65.403, 103.300 64.934, 102.057 66.432 M 94 155 C 94 155.550, 94.675 156, 95.500 156 C 96.325 156, 97 155.550, 97 155 C 97 154.450, 96.325 154, 95.500 154 C 94.675 154, 94 154.450, 94 155 M 136 207.165 C 133.525 207.714, 126.775 209.679, 121 211.531 C 115.225 213.383, 108.564 215.207, 106.197 215.585 C 102.924 216.108, 101.280 217.078, 99.328 219.636 C 97.917 221.486, 96.356 223, 95.859 223 C 95.362 223, 92.979 221.178, 90.563 218.951 C 85.670 214.441, 79.488 212.565, 78.448 215.275 C 77.556 217.600, 81.214 223.891, 86.900 229.809 C 89.705 232.729, 92 235.541, 92 236.059 C 92 236.576, 92.686 237, 93.525 237 C 94.363 237, 95.495 238.012, 96.040 239.250 C 96.584 240.488, 97.890 242.850, 98.942 244.500 C 99.993 246.150, 100.887 248.302, 100.927 249.281 C 101.036 251.931, 103.747 252.491, 107.591 250.658 C 112.800 248.174, 112.346 244.330, 106 237.211 C 103.250 234.125, 101 230.873, 101 229.985 C 101 227.960, 106.940 224.671, 113.500 223.064 C 116.250 222.390, 122.670 220.710, 127.767 219.330 C 132.864 217.950, 139.164 216.749, 141.767 216.660 C 145.977 216.518, 146.535 216.750, 146.821 218.759 C 147.280 221.996, 139.566 233.120, 130.949 241.644 C 124.021 248.498, 123.378 248.882, 115.114 251.074 C 110.376 252.331, 105.487 254.006, 104.250 254.795 C 100.021 257.492, 102.423 265, 107.515 265 C 109.976 265, 121.310 262.348, 127.197 260.395 C 130.255 259.381, 135.141 258.880, 141.197 258.961 C 154.506 259.139, 159.067 258.154, 160.963 254.695 C 162.452 251.978, 162.399 251.800, 159.234 248.945 C 156.386 246.377, 155.203 246, 149.984 246 C 143.729 246, 142.275 244.677, 145.546 241.961 C 148.844 239.224, 154.366 228.315, 155.555 222.188 C 156.993 214.777, 156.026 211.035, 152.073 208.706 C 148.569 206.642, 141.436 205.958, 136 207.165" stroke="none" fill="black" fill-rule="evenodd"/>
</svg>