<svg xmlns="http://www.w3.org/2000/svg" width="300" height="300" viewBox="0 0 300 300" version="1.1">
	<path d="M 159.031 65.578 C 156.573 66.983, 152.298 69.087, 149.531 70.252 C 146.764 71.418, 143.228 73.413, 141.673 74.686 C 140.119 75.959, 138.232 77, 137.480 77 C 136.728 77, 135.465 77.926, 134.672 79.058 C 133.561 80.644, 132.354 81.045, 129.401 80.808 C 124.542 80.417, 123.787 82.719, 127.273 87.297 C 130.224 91.174, 131.275 99.706, 131.365 120.500 C 131.423 133.932, 131.103 138.804, 129.002 156.500 C 128.480 160.900, 127.576 172.150, 126.992 181.500 C 125.486 205.640, 125.270 207, 122.939 207 C 121.192 207, 120.995 206.233, 120.945 199.250 C 120.914 194.988, 119.975 186.775, 118.858 181 C 117.741 175.225, 116.602 167.140, 116.327 163.033 C 115.721 153.984, 113.453 150, 108.907 150 C 105.446 150, 104.273 152.189, 104.182 158.817 C 104.136 162.212, 103.096 164.734, 99.312 170.626 C 96.665 174.747, 93.440 179.916, 92.144 182.115 C 90.388 185.094, 89.243 186.034, 87.644 185.806 C 85.517 185.502, 85.495 185.241, 84.838 152.500 C 84.474 134.350, 83.697 117.700, 83.112 115.500 C 82.526 113.300, 82.037 109.417, 82.024 106.872 C 82.011 104.327, 81.319 100.614, 80.487 98.622 C 79.247 95.655, 78.455 95, 76.109 95 C 71.086 95, 70.526 96.915, 72.826 106.232 C 73.977 110.897, 75.140 119.947, 75.495 127 C 76.681 150.591, 77.395 171.514, 77.448 184.195 L 77.500 196.890 74.054 200.445 C 72.158 202.400, 70.262 204, 69.839 204 C 67.960 204, 66.998 199.314, 66.421 187.354 C 66.080 180.284, 65.177 172.700, 64.415 170.500 C 63.653 168.300, 63.023 165.745, 63.015 164.821 C 62.979 160.729, 56.596 158.372, 54.004 161.495 C 53.008 162.695, 53.058 163.439, 54.255 165.266 C 56.259 168.325, 56.933 173.450, 57.936 193.261 C 59.113 216.515, 60.167 217.790, 73.641 212.257 C 78.769 210.151, 82.011 207.839, 87.597 202.307 C 94.833 195.142, 102 185.287, 102 182.504 C 102 181.702, 103.152 180.291, 104.560 179.369 C 106.863 177.860, 107.274 177.846, 108.658 179.229 C 109.882 180.453, 109.962 181.203, 109.050 182.907 C 108.137 184.613, 108.218 185.361, 109.452 186.595 C 110.303 187.446, 111.068 189.123, 111.151 190.321 C 111.234 191.520, 111.410 194.635, 111.542 197.245 C 111.674 199.855, 112.134 202.780, 112.564 203.745 C 112.994 204.710, 113.381 211.575, 113.423 219 C 113.499 232.380, 113.521 232.503, 115.848 232.832 C 117.257 233.032, 119.142 232.276, 120.563 230.941 L 122.930 228.717 124.688 231.779 C 125.655 233.464, 127.939 235.554, 129.764 236.424 C 132.940 237.939, 133.403 237.882, 140.577 235.096 C 152.520 230.459, 165.034 220.069, 169.152 211.370 C 170.566 208.384, 171.023 205.616, 170.803 201.370 C 170.540 196.268, 170.238 195.500, 168.500 195.500 C 166.952 195.500, 166.426 196.276, 166.173 198.932 C 165.499 206.006, 154.480 217.522, 142.159 224.027 C 130.566 230.149, 130.268 228.405, 134.914 181.500 C 135.350 177.100, 136.008 172.375, 136.375 171 C 136.743 169.625, 137.489 163.100, 138.034 156.500 C 139.914 133.725, 140.638 128.141, 141.912 126.606 C 143.676 124.481, 157.622 116.571, 162.500 114.929 C 167.874 113.120, 169 112.171, 169 109.449 C 169 105.669, 166.236 103.707, 161.889 104.402 C 157.300 105.136, 156.059 103.671, 158.733 100.676 C 159.802 99.479, 161.698 96.793, 162.947 94.706 C 164.196 92.619, 166.785 89.250, 168.700 87.220 C 172.869 82.799, 176 76.650, 176 72.883 C 176 71.145, 174.768 68.836, 172.632 66.571 C 168.525 62.217, 165.321 61.983, 159.031 65.578 M 157.059 78.580 C 154.617 79.930, 151.882 81.702, 150.982 82.517 C 150.082 83.331, 146.751 84.519, 143.581 85.155 C 140.411 85.792, 137.581 86.928, 137.293 87.679 C 137.004 88.431, 137.496 91.941, 138.384 95.478 C 139.273 99.016, 140 103.479, 140 105.396 C 140 112.145, 143.046 110.731, 148.754 101.331 C 150.814 97.938, 155.151 91.669, 158.391 87.400 C 166.648 76.520, 166.196 73.527, 157.059 78.580 M 160.200 129.200 C 158.541 130.859, 158.707 136.915, 160.506 140.364 C 161.328 141.940, 162 144.276, 162 145.555 C 162 146.835, 162.450 148.160, 163 148.500 C 165.519 150.057, 163.161 153.630, 152.025 165.132 C 141.340 176.168, 140.048 177.882, 140.025 181.050 C 139.981 187.283, 144.299 189.019, 148.257 184.358 C 149.490 182.905, 152.238 180.093, 154.363 178.108 C 156.487 176.124, 159.547 172.588, 161.161 170.250 C 164.443 165.497, 167.976 164.469, 168.035 168.250 C 168.055 169.488, 168.714 171.625, 169.500 173 C 170.286 174.375, 170.945 176.512, 170.965 177.750 C 170.984 178.988, 171.450 180, 172 180 C 172.550 180, 173 180.926, 173 182.058 C 173 183.189, 174.125 186.130, 175.500 188.593 C 176.875 191.056, 178 194.117, 178 195.396 C 178 196.675, 179.125 199.379, 180.500 201.405 C 181.875 203.431, 183 205.717, 183 206.485 C 183 207.254, 183.449 208.159, 183.997 208.498 C 184.545 208.837, 186.158 211.660, 187.581 214.771 C 189.004 217.883, 191.143 221.793, 192.334 223.462 C 196.225 228.911, 206.511 247.389, 208.358 252.246 C 209.350 254.856, 210.719 257.331, 211.400 257.746 C 212.682 258.527, 219 267.417, 219 268.440 C 219 269.350, 230.427 283.212, 236.279 289.401 C 239.757 293.078, 242.373 295, 243.901 295 C 247.012 295, 253.840 291.081, 254.533 288.898 C 254.837 287.937, 256.120 285.629, 257.382 283.769 C 258.932 281.484, 259.701 278.850, 259.749 275.654 C 259.788 273.051, 260.342 270.293, 260.980 269.525 C 261.859 268.465, 261.858 267.603, 260.977 265.957 C 260.298 264.689, 260.047 261.856, 260.372 259.143 C 261.514 249.627, 261.638 245.894, 260.830 245.395 C 260.374 245.113, 259.993 243.446, 259.985 241.691 C 259.968 238.027, 258.422 233.258, 255.372 227.454 C 254.202 225.229, 252.909 221.422, 252.499 218.994 C 251.245 211.572, 240 200.354, 240 206.526 C 240 207.248, 240.633 209.112, 241.407 210.669 C 243.496 214.870, 244.390 217.343, 248.486 230.244 C 252.473 242.801, 252.598 245.094, 250.617 269.305 C 249.738 280.050, 244.199 285.389, 240.299 279.250 C 239.338 277.738, 237.846 275.825, 236.983 275 C 233.632 271.796, 225.938 261.672, 224.416 258.464 C 223.536 256.610, 222.182 254.566, 221.408 253.924 C 220.634 253.281, 220 252.146, 220 251.401 C 220 250.656, 218.920 249.339, 217.601 248.474 C 215.175 246.885, 207 233.787, 207 231.490 C 207 230.805, 206.276 229.644, 205.391 228.910 C 204.506 228.175, 202.463 224.858, 200.851 221.537 C 199.238 218.217, 196.250 212.293, 194.210 208.374 C 192.169 204.455, 189.873 199.730, 189.108 197.874 C 188.342 196.018, 186.712 192.250, 185.486 189.500 C 181.426 180.394, 178.039 171.107, 175.991 163.465 C 174.051 156.225, 174.040 155.820, 175.734 153.491 C 176.705 152.155, 177.832 151.049, 178.237 151.031 C 178.897 151.003, 180.897 148.247, 186.177 140.090 C 188.092 137.132, 188.509 132.433, 186.943 131.465 C 184.747 130.107, 181.337 132.252, 176.507 138.029 C 171.396 144.141, 169 145.448, 169 142.122 C 169 141.090, 168.325 139.685, 167.500 139 C 166.675 138.315, 166 136.267, 166 134.449 C 166 131.437, 163.937 128, 162.129 128 C 161.728 128, 160.860 128.540, 160.200 129.200" stroke="none" fill="black" fill-rule="evenodd"/>
</svg>