<svg xmlns="http://www.w3.org/2000/svg" width="300" height="300" viewBox="0 0 300 300" version="1.1">
	<path d="M 122.500 36.997 C 117.021 37.714, 102.871 41.924, 98.838 44.037 C 97.923 44.516, 93.597 46.287, 89.225 47.974 C 80.709 51.258, 78.647 52.908, 77.610 57.271 C 76.413 62.309, 80.123 65.967, 82.961 62.547 C 83.625 61.747, 86.696 60.358, 89.786 59.460 C 92.877 58.561, 96.500 56.965, 97.838 55.913 C 99.175 54.861, 101.244 54, 102.435 54 C 103.626 54, 105.027 53.628, 105.550 53.174 C 106.072 52.720, 108.525 51.768, 111 51.060 C 113.475 50.352, 116.400 49.400, 117.500 48.945 C 118.600 48.490, 122.537 47.958, 126.250 47.762 C 132.656 47.423, 133 47.518, 133 49.617 C 133 52.396, 119.673 69.027, 112.861 74.750 C 110.078 77.088, 106.756 79, 105.477 79 C 104.199 79, 101.881 80.054, 100.327 81.341 C 95.752 85.131, 93.211 85.309, 91.480 81.961 C 90.666 80.387, 90 77.459, 90 75.454 C 90 71.197, 86.710 66, 84.015 66 C 81.412 66, 81.255 67.012, 81.758 80.587 C 82.200 92.505, 82.169 92.714, 79.603 95.483 C 76.483 98.850, 76.257 102.786, 78.985 106.254 C 80.961 108.766, 80.962 108.806, 79.010 114.639 C 77.932 117.863, 77.038 121.536, 77.025 122.803 C 77.011 124.070, 75.875 126.762, 74.500 128.785 C 73.125 130.809, 72 133.526, 72 134.824 C 72 136.122, 71.100 138.329, 70 139.727 C 68.900 141.126, 68 143.542, 68 145.098 C 68 147.849, 65.763 154.361, 62.022 162.500 C 58.509 170.142, 57.150 173.516, 56.443 176.354 C 55.644 179.555, 40.556 209.667, 38.581 212 C 37.883 212.825, 36.171 215.750, 34.777 218.500 C 29.661 228.594, 28.178 231.010, 24.131 235.844 C 21.859 238.557, 20 241.208, 20 241.734 C 20 243.033, 23.130 245.741, 25.114 246.160 C 26.938 246.544, 34.880 237.367, 37.435 231.922 C 38.319 230.040, 40.150 226.700, 41.504 224.500 C 42.859 222.300, 43.975 219.557, 43.984 218.405 C 43.993 217.253, 44.788 215.593, 45.750 214.718 C 46.713 213.842, 48.337 211.410, 49.361 209.313 C 50.384 207.216, 51.550 204.825, 51.951 204 C 53.242 201.344, 57.620 193.663, 61.357 187.500 C 63.358 184.200, 64.996 180.592, 64.997 179.482 C 64.999 178.372, 66.055 175.897, 67.345 173.982 C 68.634 172.067, 70.016 169.150, 70.416 167.500 C 70.817 165.850, 72.417 161.800, 73.973 158.500 C 75.529 155.200, 77.051 151.731, 77.355 150.790 C 77.658 149.850, 79.840 147.738, 82.203 146.098 C 84.566 144.457, 87.696 142.189, 89.158 141.058 C 90.620 139.926, 92.817 139, 94.039 139 C 96.070 139, 96.199 139.324, 95.537 142.750 C 95.138 144.813, 94.611 147.850, 94.365 149.500 C 93.811 153.221, 91.860 160.159, 90.992 161.500 C 90.636 162.050, 89.552 164.750, 88.584 167.500 C 87.616 170.250, 85.739 174.679, 84.412 177.342 C 83.085 180.006, 82 182.988, 82 183.970 C 82 184.952, 81.325 186.315, 80.500 187 C 79.675 187.685, 79 188.723, 79 189.308 C 79 189.893, 78.147 191.300, 77.105 192.436 C 76.063 193.571, 74.259 196.300, 73.097 198.500 C 71.026 202.418, 70.871 202.500, 65.542 202.500 C 59.170 202.500, 57.269 203.765, 58.943 206.893 C 59.563 208.052, 60.706 209, 61.482 209 C 63.003 209, 71.887 213.493, 73.450 215.052 C 73.973 215.574, 75.291 216, 76.379 216 C 77.467 216, 79.867 216.546, 81.712 217.213 C 84.772 218.319, 85.007 218.691, 84.399 221.460 C 83.556 225.299, 77.509 232.391, 66.660 242.268 C 59.997 248.333, 57.514 250, 55.142 250 C 51.881 250, 50.177 251.577, 51.745 253.145 C 52.278 253.678, 55.142 254.357, 58.108 254.652 C 64.819 255.321, 69.893 252.739, 77.966 244.547 C 80.972 241.496, 83.906 239, 84.486 239 C 85.065 239, 87.331 236.673, 89.520 233.829 C 91.709 230.985, 95.264 226.689, 97.420 224.283 C 99.576 221.876, 102.501 217.734, 103.920 215.078 C 107.576 208.236, 114.847 197.665, 116.556 196.709 C 117.350 196.264, 118 195.109, 118 194.141 C 118 193.174, 118.661 191.509, 119.468 190.441 C 121.453 187.817, 121.474 175.379, 119.502 170.658 C 117.501 165.870, 114.955 164.691, 107.743 165.212 L 101.766 165.645 102.420 160.086 C 102.779 157.028, 103.507 154.093, 104.037 153.563 C 104.566 153.034, 105 150.185, 105 147.234 C 105 144.283, 105.492 140.950, 106.093 139.827 C 106.883 138.350, 106.883 137.483, 106.093 136.693 C 104.075 134.675, 104.971 133.334, 110.250 130.473 C 113.138 128.908, 117.841 126.137, 120.702 124.314 C 123.563 122.491, 126.174 121, 126.505 121 C 126.836 121, 128.762 119.875, 130.785 118.500 C 132.809 117.125, 135.400 116, 136.544 116 C 137.687 116, 139.515 115.169, 140.605 114.154 C 143.581 111.381, 150.139 107.948, 155.500 106.355 C 157.907 105.640, 158.561 104.835, 158.810 102.282 C 159.050 99.809, 158.361 98.274, 155.713 95.384 C 151.929 91.255, 151.727 91.276, 145 96.484 C 142.525 98.400, 138.307 101.136, 135.627 102.563 C 132.947 103.990, 128.672 106.589, 126.127 108.338 C 123.582 110.088, 120.150 112.129, 118.500 112.876 C 116.850 113.623, 114.600 114.723, 113.500 115.322 C 112.400 115.920, 108.125 118.152, 104 120.282 C 99.875 122.411, 94.808 125.105, 92.740 126.267 C 87.623 129.142, 86.224 127.758, 88.258 121.835 C 91.237 113.159, 92 110.310, 92 107.853 C 92 105.247, 94.725 102.168, 98.981 99.966 C 100.346 99.260, 102.291 97.629, 103.304 96.341 C 104.316 95.054, 105.986 94, 107.014 94 C 108.041 94, 109.140 93.583, 109.455 93.073 C 109.770 92.563, 111.709 91.612, 113.764 90.958 C 115.819 90.305, 119.600 87.739, 122.166 85.256 C 126.159 81.392, 126.768 80.290, 126.390 77.620 C 125.995 74.830, 126.845 73.565, 134.422 65.662 C 141.873 57.891, 143.042 56.171, 144.107 51.414 C 145.175 46.642, 145.105 45.609, 143.511 42.651 C 142.518 40.806, 140.911 38.801, 139.940 38.194 C 137.426 36.625, 129.505 36.081, 122.500 36.997 M 132.420 139.489 C 130.775 141.135, 130.105 142.715, 130.413 144.229 C 130.666 145.478, 131.144 148.482, 131.474 150.905 C 131.803 153.327, 132.394 155.802, 132.787 156.405 C 133.179 157.007, 133.564 160.425, 133.643 164 C 133.722 167.575, 134.110 174.567, 134.505 179.538 L 135.224 188.577 132.468 189.833 L 129.711 191.089 132.451 193.949 L 135.191 196.809 134.846 219.746 C 134.485 243.679, 134.836 246, 138.818 246 C 139.683 246, 141.633 247.190, 143.151 248.645 C 145.470 250.867, 146.931 251.326, 152.282 251.516 C 155.785 251.641, 159.620 252.262, 160.805 252.896 C 161.990 253.530, 163.981 253.801, 165.229 253.499 C 166.478 253.197, 176.817 252.583, 188.205 252.135 C 199.593 251.686, 209.493 250.856, 210.205 250.290 C 210.917 249.724, 213.242 248.947, 215.370 248.563 C 218.171 248.057, 220.337 246.660, 223.207 243.506 C 230.387 235.616, 231.309 232.938, 231.098 220.583 C 230.995 214.578, 230.701 209.325, 230.443 208.908 C 230.185 208.491, 230.504 206.987, 231.152 205.566 C 232.032 203.635, 232.044 202.417, 231.202 200.741 C 229.837 198.027, 227.318 183.167, 226.558 173.343 C 226.253 169.407, 225.133 163.782, 224.070 160.843 C 223.006 157.905, 221.897 154.375, 221.605 153 C 221.049 150.379, 217.551 147.542, 216.033 148.480 C 214.810 149.235, 215.973 159.899, 217.638 163.200 C 218.425 164.760, 219.018 169.194, 219.044 173.700 C 219.068 177.990, 219.539 183.525, 220.092 186 C 220.644 188.475, 221.261 197.898, 221.464 206.941 C 221.759 220.127, 221.522 224.184, 220.266 227.441 C 218.441 232.172, 214.683 236.561, 210.654 238.665 C 204.803 241.720, 155.392 242.444, 148.526 239.575 C 145.431 238.282, 144.978 237.637, 144.822 234.301 C 144.724 232.210, 144.730 229.600, 144.836 228.500 C 145.049 226.285, 145.994 207.449, 146.303 199.267 C 146.492 194.259, 146.768 193.772, 152.750 187.932 C 156.188 184.577, 159 181.419, 159 180.915 C 159 180.412, 159.603 180, 160.340 180 C 161.077 180, 162.281 178.088, 163.015 175.750 C 163.749 173.412, 165.191 170.551, 166.218 169.390 C 169.135 166.094, 174 156.140, 174 153.466 C 174 151.781, 173.070 150.571, 170.924 149.461 C 168.131 148.017, 167.628 148.014, 165.463 149.432 C 164.067 150.347, 162.607 152.747, 161.940 155.222 C 160.389 160.982, 155.371 170.719, 152.448 173.643 C 151.127 174.964, 149.570 176.934, 148.988 178.022 C 148.406 179.110, 147.071 180, 146.021 180 C 144.272 180, 144.139 179.313, 144.432 171.750 C 144.608 167.198, 144.301 162.936, 143.746 162.242 C 143.193 161.549, 142.995 159.421, 143.304 157.512 C 143.656 155.343, 143.288 152.881, 142.324 150.947 C 141.465 149.226, 141.019 146.656, 141.319 145.157 C 141.660 143.448, 141.244 141.700, 140.179 140.376 C 137.459 136.997, 135.174 136.735, 132.420 139.489 M 102.209 179.697 C 99.849 181.071, 97.165 183.388, 96.245 184.847 C 95.325 186.306, 92.679 189.646, 90.366 192.269 C 86.661 196.470, 82 204.316, 82 206.351 C 82 207.464, 91.191 211.141, 92.611 210.596 C 94.337 209.933, 101 199.897, 101 197.960 C 101 197.098, 102.522 194.917, 104.382 193.114 C 106.961 190.614, 107.915 188.699, 108.400 185.046 C 109.015 180.403, 108.461 176.895, 107.143 177.100 C 106.789 177.155, 104.569 178.324, 102.209 179.697" stroke="none" fill="black" fill-rule="evenodd"/>
</svg>