<svg xmlns="http://www.w3.org/2000/svg" width="300" height="300" viewBox="0 0 300 300" version="1.1">
	<path d="M 143.199 45.260 C 142.624 45.953, 141.834 49.440, 141.443 53.010 C 141.053 56.579, 140.118 60.715, 139.366 62.200 C 138.615 63.686, 138 65.829, 138 66.964 C 138 68.099, 137.592 69.809, 137.092 70.764 C 136.593 71.719, 134.922 76.408, 133.378 81.184 C 130.628 89.692, 130.609 89.911, 132.441 91.934 C 134.727 94.461, 136.827 94.567, 138.675 92.250 C 141.073 89.244, 146 78.742, 146 76.639 C 146 75.535, 146.958 72.653, 148.128 70.235 C 150.847 64.619, 153.234 51.306, 151.952 48.911 C 149.502 44.333, 145.391 42.619, 143.199 45.260 M 163.009 66.290 C 159.620 68.005, 159.363 70.536, 162.378 72.512 C 165.117 74.307, 176.669 77, 181.627 77 C 188.264 77, 188.350 71.013, 181.770 67.001 C 177.934 64.662, 167.043 64.249, 163.009 66.290 M 78.439 79.099 C 77.571 80.502, 78.905 96.171, 80.005 97.501 C 81.323 99.097, 82.040 113.132, 82.589 148.112 L 83.100 180.725 77.942 185.362 C 75.105 187.913, 72.437 190, 72.014 190 C 70.225 190, 69.188 187.075, 68.645 180.500 C 66.327 152.414, 66.184 151.476, 63.882 149.393 C 62.345 148.002, 61.492 147.834, 60.191 148.664 C 58.805 149.550, 58.523 151.256, 58.625 158.122 C 58.754 166.768, 60.460 186.831, 61.591 193 C 62.363 197.215, 66.567 202, 69.496 202 C 74.041 202, 91.519 189.616, 101.097 179.609 C 106.437 174.031, 109 173.055, 109 176.602 C 109 177.418, 106.975 180.251, 104.500 182.897 C 102.025 185.543, 100 188.378, 100 189.199 C 100 191.243, 103.232 194, 105.629 194 C 109.277 194, 110 195.983, 110 206 C 110 216.149, 110.707 218, 114.585 218 C 119.082 218, 120 214.437, 120 196.982 L 120 180.895 125.339 172.697 C 128.275 168.189, 132.005 162.025, 133.628 159 C 135.251 155.975, 138.167 151.025, 140.108 148 C 142.049 144.975, 144.251 140.925, 145.002 139 C 145.753 137.075, 147.410 134.426, 148.684 133.114 C 149.958 131.801, 151 129.883, 151 128.850 C 151 127.818, 151.400 126.191, 151.889 125.236 C 152.754 123.547, 154.062 120.625, 157.546 112.596 C 159.331 108.482, 162 96.971, 162 93.385 C 162 90.948, 158.421 85.993, 156.677 86.015 C 153.709 86.054, 152.603 88.135, 151.862 95.077 C 151.096 102.242, 148.661 112.108, 146.945 115 C 146.036 116.533, 143.719 121.308, 142.579 124 C 142.229 124.825, 140.191 128.650, 138.049 132.500 C 135.907 136.350, 132.807 142.002, 131.159 145.060 C 129.511 148.118, 127.520 151.153, 126.734 151.806 C 125.948 152.458, 124.475 155.004, 123.461 157.462 C 121.657 161.838, 119.729 163.568, 117.910 162.444 C 117.409 162.135, 117 159.202, 117 155.927 C 117 152.652, 116.603 149.191, 116.118 148.236 C 115.632 147.281, 114.834 145.151, 114.344 143.502 C 113.280 139.922, 108.520 137.176, 106.079 138.733 C 104.827 139.532, 104.572 141.188, 104.847 146.726 C 105.169 153.210, 104.927 154.205, 101.470 160.606 C 96.897 169.071, 94.724 171.492, 92.471 170.627 C 91.103 170.102, 90.893 169.161, 91.383 165.738 C 93.099 153.742, 91.492 119.858, 88.394 102.732 C 87.575 98.204, 86.545 91.785, 86.104 88.468 C 85.664 85.150, 84.769 81.437, 84.116 80.218 C 82.866 77.882, 79.590 77.237, 78.439 79.099 M 160.667 124.667 C 159.548 125.785, 159.924 131.524, 161.200 132.800 C 161.860 133.460, 164.125 134, 166.232 134 C 169.084 134, 171.783 135.131, 176.782 138.420 C 180.477 140.851, 187.958 144.508, 193.407 146.546 C 198.856 148.585, 204.771 151.112, 206.551 152.163 C 211.331 154.983, 219.786 159.470, 225.755 162.355 C 229.079 163.961, 231.357 165.809, 231.957 167.386 C 233.400 171.181, 236.583 172.504, 239.567 170.548 C 240.905 169.671, 242 168.471, 242 167.881 C 242 165.829, 238.821 161.486, 235.671 159.232 C 228.668 154.224, 222.047 150.041, 218.861 148.614 C 217.012 147.786, 214.375 146.428, 213 145.595 C 211.625 144.763, 207.125 142.688, 203 140.984 C 198.875 139.280, 193.244 136.787, 190.486 135.443 C 187.728 134.099, 185.131 133, 184.716 133 C 184.300 133, 182.282 131.943, 180.230 130.650 C 176.281 128.162, 165.403 124, 162.850 124 C 162.016 124, 161.033 124.300, 160.667 124.667 M 173.767 170.993 C 165.857 174.269, 161.241 177.732, 158.460 182.478 C 157.003 184.965, 155.409 187, 154.919 187 C 154.430 187, 152.658 184.284, 150.982 180.964 C 147.871 174.802, 144.573 172.182, 141.439 173.385 C 139.317 174.199, 140.054 180.119, 142.976 185.738 C 145.505 190.600, 150.078 202.711, 150.726 206.262 C 151.004 207.781, 151.629 209.271, 152.115 209.571 C 152.602 209.872, 153 210.998, 153 212.073 C 153 213.148, 153.411 214.809, 153.913 215.764 C 154.415 216.719, 156.062 220.167, 157.573 223.427 L 160.320 229.354 156.660 232.427 C 152.339 236.055, 152.033 238.743, 155.562 242.058 C 158.108 244.450, 158.144 244.454, 161.312 242.623 C 163.065 241.610, 166.965 240.134, 169.977 239.344 C 176.832 237.546, 196.963 235.986, 201.273 236.920 C 203.048 237.304, 208.464 237.550, 213.309 237.465 C 222.526 237.304, 225.928 235.861, 224.690 232.636 C 223.183 228.708, 219.668 227.907, 199.335 226.858 C 188.426 226.294, 179.111 225.459, 178.635 225.001 C 177.907 224.302, 181.994 217.632, 184.150 215.999 C 185.082 215.293, 192 205.164, 192 204.504 C 192 204.205, 193.037 202.282, 194.305 200.230 C 197.467 195.115, 199 189.335, 199 182.534 C 199 177.346, 198.676 176.476, 195.600 173.400 C 192.874 170.674, 191.412 170, 188.225 170 C 186.039 170, 182.956 169.782, 181.375 169.516 C 179.739 169.241, 176.461 169.877, 173.767 170.993 M 174.653 181.413 C 169.094 184.164, 164.194 188.482, 162.924 191.750 C 162.417 193.055, 161.199 194, 160.025 194 C 158.334 194, 158 194.651, 158 197.941 C 158 200.109, 158.450 202.160, 159 202.500 C 159.550 202.840, 160.003 204.104, 160.006 205.309 C 160.010 206.514, 160.685 208.789, 161.506 210.364 C 162.328 211.940, 163 213.783, 163 214.461 C 163 216.134, 165.981 222.003, 166.823 221.987 C 167.636 221.972, 177 211.412, 177 210.511 C 177 210.164, 178.575 207.817, 180.500 205.296 C 182.425 202.775, 184 200.318, 184 199.836 C 184 199.354, 185.119 197.187, 186.487 195.020 C 188.256 192.219, 189.051 189.406, 189.237 185.290 L 189.500 179.500 184.500 179.257 C 180.871 179.081, 178.171 179.672, 174.653 181.413" stroke="none" fill="black" fill-rule="evenodd"/>
</svg>