<svg xmlns="http://www.w3.org/2000/svg" width="300" height="300" viewBox="0 0 300 300" version="1.1">
	<path d="M 131.238 68.162 C 129.753 69.647, 129.599 78.815, 130.998 82.494 C 132.158 85.545, 134.073 104.870, 134.714 120 C 135.085 128.760, 134.862 131.055, 133.368 133.851 C 131.625 137.110, 131.446 137.184, 126.788 136.566 C 124.155 136.217, 122 136.318, 122 136.791 C 122 139.233, 131.452 145, 135.455 145 C 136.291 145, 138.146 143.146, 139.576 140.879 C 141.944 137.129, 142.223 135.578, 142.684 123.629 C 143.307 107.479, 140.787 80.463, 137.822 71.500 C 136.423 67.273, 133.572 65.828, 131.238 68.162 M 152.203 107.241 C 148.962 108.802, 149.772 111.851, 154 114.004 C 162.982 118.579, 170.622 122.001, 171.855 122 C 172.600 122, 175.449 123.125, 178.187 124.500 C 186.335 128.593, 189.596 127.268, 186.972 120.932 C 184.858 115.830, 176.913 111.265, 163.500 107.447 C 157.633 105.777, 155.331 105.735, 152.203 107.241 M 91.020 114.960 C 89.853 117.249, 89 120.878, 89 123.560 C 89 127.504, 89.510 128.710, 92.400 131.600 C 94.270 133.470, 96.675 135, 97.745 135 C 102.172 135, 104.816 128.042, 101.137 126.073 C 98.104 124.450, 96.453 119.391, 98.009 116.484 C 99.056 114.527, 99.060 113.777, 98.028 112.534 C 95.792 109.839, 93.170 110.747, 91.020 114.960 M 132.489 156.018 C 131.712 157.275, 132.438 165.223, 134.195 174.691 C 135.569 182.100, 135.597 182.055, 125.587 188.876 C 114.371 196.520, 102.237 202.702, 90.315 206.847 C 76.966 211.488, 77 211.468, 77 214.859 C 77 219.505, 80.459 221.293, 85.014 219 C 89.867 216.557, 90.758 216.214, 94.033 215.536 C 97.041 214.912, 114.715 207.062, 120.500 203.780 C 121.600 203.155, 123.718 201.940, 125.207 201.079 C 127.393 199.814, 128.157 199.757, 129.182 200.782 C 130.188 201.788, 130.197 202.455, 129.225 204.011 C 128.551 205.090, 128 206.440, 128 207.012 C 128 209.564, 114.825 235.046, 110.944 240.001 C 108.575 243.025, 106.380 245.725, 106.068 246 C 105.756 246.275, 103.328 249.088, 100.672 252.250 C 98.017 255.413, 94.794 258.264, 93.511 258.587 C 92.227 258.909, 90.009 260.484, 88.581 262.086 C 85.360 265.701, 84.457 265.726, 82.791 262.250 C 80.625 257.731, 77.938 258.678, 76.405 264.500 C 75.681 267.250, 75.068 269.574, 75.044 269.663 C 75.020 269.753, 76.826 271.170, 79.057 272.811 C 82.496 275.340, 83.744 275.710, 87.245 275.240 C 89.517 274.936, 92.338 274.187, 93.513 273.578 C 96.610 271.971, 101.596 265.924, 102.337 262.877 C 102.735 261.238, 104.094 259.790, 105.955 259.018 C 107.595 258.339, 110.638 255.700, 112.718 253.154 C 114.798 250.607, 117.175 247.812, 118 246.942 C 120.322 244.494, 128 233.202, 128 232.236 C 128 231.762, 129.126 229.040, 130.502 226.187 C 132.503 222.040, 133.494 221, 135.443 221 C 136.785 221, 138.121 221.387, 138.414 221.860 C 138.706 222.334, 141.050 223.009, 143.622 223.362 C 146.194 223.714, 148.794 224.392, 149.399 224.868 C 150.005 225.344, 153.176 226.721, 156.446 227.926 C 159.717 229.132, 163.542 230.741, 164.946 231.501 C 169.550 233.992, 192.924 245, 193.610 245 C 194.160 245, 205.379 250.569, 219.186 257.696 C 222.465 259.389, 232.227 269.381, 233.217 272.059 C 233.612 273.126, 234.547 274, 235.293 274 C 236.040 274, 237.708 275.125, 239 276.500 C 241.522 279.184, 244.859 279.741, 246.800 277.800 C 248.374 276.226, 248.301 271.450, 246.628 266.645 C 245.454 263.274, 244.634 262.569, 240.108 261.037 C 237.261 260.073, 233.934 258.364, 232.716 257.240 C 230.452 255.151, 225.415 252.291, 209.500 244.058 C 204.550 241.497, 199.375 238.692, 198 237.825 C 192.441 234.319, 168.994 222.577, 161.500 219.546 C 157.100 217.766, 150.350 215.714, 146.500 214.985 C 142.650 214.255, 139.087 213.300, 138.582 212.862 C 137.568 211.981, 139.798 201.243, 141.171 200.394 C 141.627 200.113, 142 198.311, 142 196.391 C 142 190.373, 144.281 187.736, 156.184 179.997 C 167.857 172.406, 171.442 169.248, 173.110 165.083 C 175.122 160.057, 169.062 159.566, 162.827 164.250 C 160.447 166.038, 156.788 168.401, 154.695 169.500 C 152.602 170.600, 149.936 172.512, 148.771 173.750 C 144.907 177.852, 143.572 176.763, 142.246 168.430 C 140.688 158.632, 139.212 155.584, 135.837 155.193 C 134.381 155.024, 132.874 155.395, 132.489 156.018" stroke="none" fill="black" fill-rule="evenodd"/>
</svg>