<svg xmlns="http://www.w3.org/2000/svg" width="300" height="300" viewBox="0 0 300 300" version="1.1">
	<path d="M 126 22.583 C 124.625 23.346, 122.064 23.977, 120.309 23.985 C 118.554 23.993, 116.840 24.450, 116.500 25 C 116.160 25.550, 114.761 26, 113.391 26 C 112.021 26, 109.567 26.690, 107.938 27.532 C 106.308 28.375, 101.427 29.338, 97.091 29.672 C 91.574 30.098, 87.602 31.064, 83.854 32.890 C 79.244 35.137, 78.457 35.940, 78.193 38.665 C 77.801 42.710, 79.851 43.455, 87.703 42.117 C 90.891 41.574, 96.425 40.825, 100 40.453 C 103.575 40.082, 107.009 39.367, 107.631 38.865 C 108.719 37.988, 119.091 35, 121.049 35 C 123.587 35, 120.860 39.397, 113.250 47.574 C 111.463 49.495, 110 51.726, 110 52.532 C 110 53.337, 107.047 56.835, 103.439 60.305 C 99.830 63.774, 96.342 67.677, 95.689 68.977 C 93.141 74.046, 92 72.529, 92 64.070 C 92 59.616, 91.480 54.966, 90.845 53.736 C 90.209 52.506, 89.373 50.825, 88.986 50 C 88.599 49.175, 86.981 48.500, 85.391 48.500 L 82.500 48.500 81.874 62.571 C 81.530 70.310, 80.966 77.510, 80.620 78.571 C 80.274 79.632, 78.405 81.525, 76.466 82.779 C 74.527 84.032, 72.200 86.610, 71.295 88.507 C 69.746 91.756, 69.756 92.073, 71.480 93.978 C 72.487 95.090, 73.907 96, 74.636 96 C 76.598 96, 77.414 100.659, 76.183 104.839 C 75.590 106.853, 74.336 111.650, 73.395 115.500 C 72.454 119.350, 71.305 122.928, 70.842 123.450 C 70.379 123.973, 70 125.666, 70 127.214 C 70 128.761, 69.587 130.809, 69.083 131.764 C 68.579 132.719, 67.423 136.200, 66.515 139.500 C 65.607 142.800, 64.445 146.534, 63.932 147.797 C 63.420 149.060, 63 150.897, 63 151.878 C 63 152.858, 61.877 155.875, 60.504 158.581 C 59.131 161.286, 58.006 164.457, 58.004 165.628 C 58.002 166.798, 57.325 168.315, 56.500 169 C 55.675 169.685, 55 170.870, 55 171.633 C 55 173.104, 51.956 180.486, 49.282 185.500 C 45.772 192.081, 41 201.866, 41 202.481 C 41 202.840, 39.937 204.566, 38.638 206.317 C 37.338 208.068, 34.583 212.650, 32.514 216.500 C 26.289 228.084, 19.887 237.150, 13.268 243.753 C 6.895 250.110, 6.194 251.625, 8.035 255.066 C 9.738 258.247, 13.380 257.363, 18.858 252.438 C 24.436 247.422, 34.552 234.461, 37.161 228.986 C 41.950 218.937, 44.243 214.307, 45.314 212.524 C 45.966 211.438, 47.928 208.221, 49.673 205.376 C 51.418 202.530, 54.070 197.569, 55.566 194.351 C 57.062 191.133, 58.859 187.825, 59.559 187 C 60.260 186.175, 60.983 184.150, 61.166 182.500 C 61.411 180.305, 62.088 179.416, 63.691 179.188 C 65.917 178.871, 70.873 181.458, 72.264 183.663 C 72.685 184.329, 75.052 185.884, 77.524 187.119 C 79.997 188.354, 82.760 190.182, 83.665 191.182 C 84.570 192.182, 86.253 193.014, 87.405 193.032 C 88.557 193.049, 90.374 193.724, 91.441 194.532 C 94.176 196.600, 95.753 196.359, 96.568 193.750 C 97.337 191.288, 106.714 180, 107.990 180 C 108.425 180, 109.001 181.688, 109.270 183.750 C 109.784 187.699, 109.163 189.100, 103.249 197.336 C 100.498 201.167, 100.149 202.261, 100.979 204.444 C 102.327 207.990, 106.217 209.678, 109.547 208.161 C 112.937 206.616, 113 206.638, 113 209.345 C 113 212.630, 110.150 214.846, 104.587 215.885 C 101.968 216.374, 99.325 217.275, 98.713 217.887 C 98.101 218.499, 96.755 219, 95.723 219 C 94.691 219, 89.718 220.968, 84.673 223.372 C 79.628 225.777, 73.700 228.239, 71.500 228.844 C 65.924 230.377, 60.633 235.053, 59.051 239.844 C 57.452 244.691, 58.086 246.733, 61.454 247.578 C 63.255 248.030, 64.650 247.622, 66.247 246.177 C 73.164 239.919, 76.014 238, 78.393 238 C 81.270 238, 90 234.246, 90 233.009 C 90 232.584, 91.998 231.734, 94.441 231.119 C 96.883 230.504, 99.160 229.551, 99.500 229.001 C 100.431 227.494, 104.986 227.799, 105.604 229.410 C 105.901 230.185, 105.437 232.188, 104.572 233.860 C 101.729 239.359, 103.307 246, 107.456 246 C 108.179 246, 109.502 247.118, 110.398 248.484 C 111.293 249.850, 113.112 251.241, 114.440 251.574 C 115.769 251.908, 117.084 252.776, 117.363 253.503 C 118.440 256.311, 95.899 274.996, 85.500 279.915 C 81.172 281.962, 74.517 283.908, 66.500 285.471 C 60.508 286.639, 59.181 286.631, 57.285 285.418 C 54.971 283.936, 49.830 283.503, 48.644 284.689 C 48.265 285.068, 49.859 287.318, 52.186 289.689 L 56.416 294 65.086 294 C 71.572 294, 74.069 293.622, 75 292.500 C 75.685 291.675, 77.485 291, 79 291 C 80.515 291, 82.352 290.281, 83.081 289.402 C 84.025 288.265, 85.396 287.965, 87.834 288.360 C 91.594 288.971, 95.382 287.445, 98.407 284.102 C 99.454 282.946, 101.335 282, 102.587 282 C 103.975 282, 105.697 280.829, 107 279 C 108.175 277.350, 109.825 276, 110.667 276 C 111.510 276, 115.947 272.175, 120.528 267.500 C 128.173 259.698, 129.180 259, 132.774 259 C 135.489 259, 137.274 259.647, 138.595 261.109 C 139.643 262.269, 143.156 264.560, 146.402 266.200 C 154.821 270.454, 163.093 279.341, 165.927 287.178 C 167.222 290.757, 173.036 293.586, 175.922 292.042 C 179.719 290.010, 178.289 282.880, 173.250 278.715 C 172.012 277.692, 171 276.020, 171 274.999 C 171 273.978, 170.429 272.548, 169.730 271.821 C 167.097 269.081, 162 261.559, 162 260.414 C 162 259.759, 160.415 258.925, 158.479 258.562 C 156.542 258.199, 153.480 256.604, 151.674 255.019 C 149.869 253.433, 147.291 251.853, 145.946 251.506 C 144.601 251.159, 142.401 249.974, 141.058 248.872 L 138.616 246.868 140.508 243.184 C 141.549 241.158, 143.098 238.666, 143.950 237.647 C 145.856 235.368, 148.173 226.886, 148.361 221.500 C 148.546 216.176, 149.475 215, 153.494 215 C 157.384 215, 169.171 212.646, 173.476 211.009 C 177.396 209.519, 183.343 208.892, 196.296 208.603 C 206.374 208.379, 207.261 208.194, 209.640 205.814 C 212.078 203.377, 212.121 203.135, 210.642 200.274 C 208.775 196.665, 204.105 194.529, 199.912 195.368 C 198.220 195.706, 195.936 195.501, 194.835 194.912 C 193.265 194.072, 192.406 194.228, 190.851 195.635 C 188.598 197.673, 173.820 201.043, 147.500 205.521 C 142 206.456, 135.390 207.847, 132.812 208.611 C 130.234 209.375, 127.646 210, 127.062 210 C 126.395 210, 126 206.805, 126 201.410 L 126 192.820 133 185.068 C 136.850 180.804, 140 176.864, 140 176.313 C 140 175.761, 140.949 174.453, 142.108 173.405 C 144.069 171.633, 146.244 168.061, 149.055 162 C 150.776 158.287, 151.238 157.556, 154.317 153.681 C 157.042 150.251, 157.079 150.051, 155.452 147.567 C 154.527 146.155, 153.216 145, 152.540 145 C 151.863 145, 150.495 144.100, 149.500 143 C 148.505 141.900, 147.139 141, 146.466 141 C 144.176 141, 133.918 146.179, 129.443 149.596 C 122.710 154.734, 119.695 153.965, 122.688 147.871 C 123.598 146.017, 124.625 144.275, 124.970 144 C 125.314 143.725, 126.863 141.308, 128.412 138.628 C 131.085 134.003, 131.171 133.476, 130.113 128.208 C 129.151 123.419, 129.225 122.408, 130.654 120.830 C 131.565 119.823, 132.860 119, 133.533 119 C 134.205 119, 135.315 118.325, 136 117.500 C 136.685 116.675, 138.005 116, 138.935 116 C 141.859 116, 148.832 112.105, 149.462 110.119 C 149.794 109.072, 150.839 107.935, 151.783 107.592 C 156.852 105.750, 158.513 103.993, 159.163 99.788 C 159.999 94.379, 157.715 90.642, 153.300 90.198 C 150.995 89.966, 149.911 90.487, 148.626 92.448 C 147.706 93.851, 146.283 95, 145.463 95 C 144.643 95, 142.698 96.425, 141.142 98.167 C 137.934 101.757, 135 101.537, 135 97.706 C 135 96.409, 133.903 94.318, 132.561 93.058 C 130.099 90.745, 127.203 90.605, 121.250 92.512 C 119.323 93.130, 119 92.873, 119 90.727 C 119 89.349, 118.127 87.159, 117.061 85.861 C 115.233 83.636, 114.962 83.587, 112.352 85.015 C 109.192 86.744, 108.241 89.340, 108.100 96.628 C 108.036 99.892, 107.448 102.213, 106.482 103.015 C 105.646 103.708, 104.245 105.789, 103.368 107.638 C 102.490 109.487, 101.200 111, 100.500 111 C 99.232 111, 96 105.264, 96 103.013 C 96 102.233, 94.548 101.943, 91.750 102.164 C 87.980 102.462, 87.464 102.245, 87.180 100.244 C 87.004 99.003, 87.566 96.572, 88.430 94.841 C 89.293 93.109, 90 91.119, 90 90.417 C 90 88.637, 98.110 83.349, 102.150 82.495 C 103.992 82.106, 107.674 80.710, 110.332 79.394 C 113.579 77.785, 116.889 77, 120.422 77 C 125.085 77, 125.810 76.712, 126.839 74.453 C 128.453 70.911, 128.308 69.661, 125.927 66.635 C 124.317 64.587, 122.979 64, 119.927 64 C 117.767 64, 116 63.702, 116 63.338 C 116 61.965, 121.374 53.576, 123.533 51.580 C 124.770 50.436, 129.232 45.290, 133.447 40.144 C 140.370 31.695, 141.049 30.484, 140.457 27.644 C 140.097 25.915, 138.834 23.723, 137.651 22.772 C 135.106 20.728, 129.508 20.637, 126 22.583 M 119 109.917 C 119 111.145, 119.646 112, 120.573 112 C 121.505 112, 122.015 111.320, 121.823 110.333 C 121.337 107.824, 119 107.480, 119 109.917 M 83.503 111.991 C 83.155 113.086, 83.172 114.469, 83.539 115.064 C 83.907 115.659, 83.402 119.253, 82.417 123.052 C 81.431 126.851, 80.935 130.269, 81.314 130.647 C 81.693 131.026, 83.015 130.873, 84.252 130.307 C 85.488 129.741, 88.188 128.547, 90.250 127.655 C 93.498 126.250, 93.997 125.595, 93.975 122.766 C 93.959 120.639, 92.735 117.843, 90.465 114.750 C 86.736 109.666, 84.519 108.788, 83.503 111.991 M 88 140.500 C 85.525 142.397, 82.682 143.961, 81.683 143.975 C 80.684 143.989, 78.322 145.178, 76.433 146.619 C 73.873 148.571, 73 149.997, 73 152.223 C 73 153.866, 71.875 157.449, 70.500 160.187 C 67.179 166.798, 67.306 168.347, 71.283 169.785 C 73.089 170.438, 77.371 173.233, 80.800 175.995 C 86.590 180.661, 87.318 180.973, 91.036 180.378 C 94.946 179.753, 98.117 176.788, 101.607 170.496 C 102.216 169.398, 103.566 168.339, 104.607 168.142 C 107.535 167.589, 108.879 166.097, 109.953 162.208 C 111.141 157.905, 109.958 156, 106.100 156 C 104.640 156, 102.388 155.260, 101.097 154.356 C 98.953 152.854, 98.793 152.172, 99.248 146.504 C 99.522 143.090, 99.331 139.555, 98.823 138.649 C 97.341 136.001, 92.871 136.765, 88 140.500 M 132.961 160.820 C 129.869 162.186, 123.824 167.570, 122.431 170.200 C 121.644 171.686, 121 174.723, 121 176.950 C 121 182.905, 123.382 182.168, 127.793 174.851 C 129.832 171.468, 132.963 167.026, 134.750 164.979 C 136.537 162.932, 138 160.975, 138 160.629 C 138 159.823, 134.958 159.938, 132.961 160.820 M 126.519 220.992 C 120.487 223.194, 119.044 225.175, 118.313 232.257 C 117.819 237.046, 118.027 237.947, 120.065 239.846 C 121.336 241.031, 123.348 242, 124.534 242 C 126.844 242, 130 239.157, 130 237.076 C 130 236.379, 130.916 234.522, 132.037 232.949 C 134.912 228.911, 136.313 224.383, 135.585 221.482 C 134.851 218.558, 133.402 218.480, 126.519 220.992" stroke="none" fill="black" fill-rule="evenodd"/>
</svg>