<svg xmlns="http://www.w3.org/2000/svg" width="300" height="300" viewBox="0 0 300 300" version="1.1">
	<path d="M 131 28.669 C 129.075 29.517, 123.418 32.188, 118.429 34.605 C 113.440 37.022, 108.753 39, 108.012 39 C 107.272 39, 103.765 40.595, 100.218 42.544 C 94.682 45.587, 93.173 45.998, 89.541 45.454 C 85.494 44.847, 85.151 45.005, 81.655 49.090 C 79.645 51.438, 78 53.846, 78 54.440 C 78 55.572, 81.270 59.280, 84.879 62.240 C 86.124 63.262, 87 65.140, 87 66.790 C 87 68.336, 87.540 70.140, 88.200 70.800 C 89.133 71.733, 89.133 72.267, 88.200 73.200 C 87.515 73.885, 86.994 77.209, 86.985 80.950 C 86.977 84.553, 86.321 89.300, 85.529 91.500 C 84.736 93.700, 84.068 97.161, 84.044 99.191 C 84.020 101.221, 83.613 103.121, 83.140 103.414 C 82.666 103.706, 82 105.984, 81.658 108.476 C 81.317 110.968, 80.129 114.787, 79.019 116.963 C 77.908 119.140, 76.995 121.951, 76.989 123.210 C 76.977 125.798, 74.426 134.704, 73.214 136.391 C 72.776 137.001, 71.834 139.300, 71.120 141.500 C 70.407 143.700, 67.572 150.225, 64.819 156 C 62.066 161.775, 58.432 169.425, 56.743 173 C 55.054 176.575, 52.396 181.140, 50.836 183.144 C 49.276 185.148, 48 187.317, 48 187.964 C 48 188.610, 46.650 191.102, 45 193.500 C 43.350 195.898, 42 198.160, 42 198.526 C 42 198.892, 41.153 200.386, 40.117 201.846 C 38.281 204.433, 36.340 207.708, 31.076 217.093 C 28.703 221.324, 26.047 225.111, 18.750 234.672 C 17.238 236.654, 16 239.028, 16 239.949 C 16 242.547, 19.798 246, 22.656 246 C 24.817 246, 25.141 245.646, 24.659 243.805 C 24.224 242.142, 25.027 240.713, 27.964 237.920 C 32.103 233.982, 36 226.990, 36 223.500 C 36 222.300, 37.304 220.412, 39 219.158 C 40.650 217.938, 42 216.237, 42 215.378 C 42 214.519, 42.900 212.671, 44 211.273 C 45.100 209.874, 46 207.969, 46 207.039 C 46 206.110, 47.125 204.292, 48.500 203 C 49.875 201.708, 51 200.315, 51 199.904 C 51 199.493, 53.025 196.137, 55.500 192.446 C 57.975 188.755, 60 185.120, 60 184.368 C 60 183.615, 60.792 182.208, 61.759 181.241 C 64.211 178.789, 68 172.191, 68 170.373 C 68 169.541, 69.338 166.916, 70.973 164.539 C 72.609 162.162, 74.928 157.580, 76.128 154.358 C 77.327 151.136, 78.861 147.600, 79.535 146.500 C 80.210 145.400, 81.052 143.251, 81.407 141.723 C 81.761 140.196, 83.165 136.513, 84.526 133.537 C 85.887 130.562, 87 126.412, 87.001 124.314 C 87.001 122.154, 88.302 117.751, 90.001 114.160 C 91.650 110.673, 93.003 107.298, 93.006 106.660 C 93.010 106.022, 93.668 104.243, 94.469 102.708 C 95.270 101.172, 96.222 98.334, 96.585 96.401 C 96.977 94.307, 98.205 92.256, 99.622 91.328 C 100.930 90.471, 102 89.147, 102 88.385 C 102 87.534, 103.082 87, 104.805 87 C 106.923 87, 110.108 84.778, 117.805 77.931 C 123.412 72.943, 128 68.313, 128 67.643 C 128 65.690, 131.752 58.874, 134.368 56.073 C 137.340 52.892, 140 47.739, 140 45.164 C 140 44.100, 140.672 41.940, 141.494 40.364 C 143.857 35.832, 143.422 31.477, 140.365 29.073 C 137.281 26.646, 135.744 26.580, 131 28.669 M 122.500 43.610 C 120.300 44.447, 117.600 45.408, 116.500 45.747 C 115.400 46.085, 113.905 46.955, 113.179 47.681 C 112.452 48.406, 111.102 49.001, 110.179 49.003 C 109.255 49.004, 106.537 50.698, 104.138 52.767 C 99.952 56.377, 99.728 56.858, 98.605 64.667 C 97.961 69.142, 97.599 73.298, 97.801 73.902 C 98.342 75.525, 101.561 75.234, 103.061 73.427 C 103.779 72.562, 105.971 71.025, 107.933 70.013 C 112.567 67.621, 119.707 60.475, 122.060 55.873 C 123.080 53.879, 124.609 51.980, 125.457 51.655 C 126.306 51.329, 127 50.175, 127 49.090 C 127 48.006, 127.450 46.840, 128 46.500 C 129.438 45.611, 129.235 41.992, 127.750 42.044 C 127.063 42.068, 124.700 42.773, 122.500 43.610 M 112.491 88.010 C 110.947 89.716, 110.861 90.372, 111.923 92.356 C 112.611 93.642, 113.273 96.450, 113.394 98.597 C 113.514 100.744, 114.150 103.483, 114.807 104.684 C 117.651 109.891, 115.514 112.939, 107.116 115.652 C 101.158 117.576, 96 121.813, 96 124.783 C 96 125.881, 97.602 127.985, 99.597 129.506 C 102.679 131.857, 104.139 132.250, 109.787 132.250 C 115.404 132.250, 116.647 131.919, 118.190 130.014 C 119.185 128.785, 120 126.703, 120 125.389 C 120 124.075, 120.921 122.079, 122.047 120.953 C 123.474 119.526, 124.183 117.330, 124.388 113.703 C 124.549 110.841, 125.038 107.682, 125.473 106.683 C 125.933 105.630, 125.812 104.412, 125.187 103.787 C 124.594 103.194, 124.354 101.479, 124.655 99.975 C 124.956 98.470, 124.707 96.937, 124.101 96.562 C 123.495 96.188, 123 94.359, 123 92.498 C 123 86.719, 116.263 83.842, 112.491 88.010 M 141.911 90.282 C 141.037 90.952, 140.070 92.625, 139.762 94 C 138.775 98.410, 136.822 103.335, 133.369 110.120 C 131.516 113.760, 130 117.482, 130 118.389 C 130 119.297, 128.875 121.822, 127.500 124 C 126.125 126.178, 125 128.821, 125 129.873 C 125 130.925, 124.351 132.035, 123.558 132.339 C 122.765 132.644, 121.328 134.096, 120.364 135.567 C 118.697 138.112, 118.696 138.305, 120.356 139.519 C 121.948 140.682, 121.684 141.178, 117.358 145.147 C 109.495 152.362, 108 154.188, 108 156.579 C 108 161.738, 114.283 160.484, 120.453 154.094 C 122.627 151.842, 125.073 150, 125.888 150 C 126.704 150, 128.300 149.173, 129.436 148.162 C 130.571 147.151, 133.027 145.719, 134.894 144.981 C 138.040 143.736, 138.420 143.801, 140.088 145.860 C 142.908 149.343, 146.148 158.919, 146.733 165.500 C 147.026 168.800, 147.597 171.950, 148.003 172.500 C 148.408 173.050, 149.045 176.313, 149.419 179.750 C 149.954 184.665, 149.811 186, 148.750 186 C 146.915 186, 145 183.951, 145 181.987 C 145 178.766, 139.629 174.980, 134.138 174.330 C 131.280 173.991, 128.703 173.329, 128.412 172.857 C 127.250 170.977, 120.916 171.993, 118.455 174.455 C 115.559 177.350, 115.337 179.995, 117.750 182.845 C 119.322 184.702, 120.007 184.814, 124.489 183.942 C 128.417 183.178, 130.544 183.319, 134.489 184.606 C 147.137 188.731, 146.829 189.298, 121.035 209.361 C 116.891 212.584, 112.500 215.606, 111.278 216.076 C 107.470 217.539, 106.959 224.280, 110.552 225.658 C 113.366 226.738, 119.975 223.770, 123.538 219.827 C 125.439 217.722, 127.250 216, 127.562 216 C 127.874 216, 129.265 214.650, 130.653 213 C 132.042 211.350, 133.647 210, 134.220 210 C 135.264 210, 143.044 202.118, 147.517 196.530 C 148.825 194.897, 150.256 193.923, 150.697 194.364 C 151.684 195.352, 151.304 249.384, 150.257 257 C 149.840 260.025, 148.996 262.500, 148.381 262.500 C 146.364 262.500, 140.887 257.655, 139.389 254.545 C 135.096 245.630, 130.448 239, 128.491 239 C 126.046 239, 125.881 240.847, 127.962 244.926 C 129.083 247.123, 130 249.619, 130 250.474 C 130 252.187, 131.645 255.421, 134.084 258.500 C 134.955 259.600, 136.821 262.525, 138.231 265 C 140.947 269.770, 148.811 275, 153.265 275 C 157.107 275, 158.910 269.971, 159.178 258.500 C 159.306 253, 159.747 248.030, 160.158 247.455 C 160.992 246.287, 160.367 191.591, 159.421 183 C 159.088 179.975, 158.407 177.072, 157.908 176.550 C 157.409 176.027, 157 172.591, 157 168.914 C 157 164.929, 156.397 161.072, 155.506 159.364 C 154.685 157.789, 154.010 154.668, 154.006 152.430 C 154.001 149.287, 153.246 147.464, 150.692 144.430 C 148.872 142.268, 146.360 138.812, 145.109 136.748 C 142.512 132.463, 139.428 131.306, 134.855 132.901 C 130.593 134.386, 130.242 133.690, 133.376 129.966 C 134.819 128.250, 136 126.206, 136 125.423 C 136 124.640, 136.399 124, 136.886 124 C 137.373 124, 138.520 122.313, 139.435 120.250 C 140.349 118.188, 141.525 115.719, 142.048 114.764 C 142.572 113.809, 143 111.896, 143 110.514 C 143 108.923, 143.562 108, 144.531 108 C 145.374 108, 146.342 107.213, 146.683 106.250 C 147.025 105.287, 147.849 103.825, 148.515 103 C 149.181 102.175, 149.998 100.055, 150.330 98.288 C 150.807 95.753, 150.396 94.435, 148.379 92.038 C 145.607 88.744, 144.359 88.405, 141.911 90.282 M 124 138 C 124 138.550, 124.450 139, 125 139 C 125.550 139, 126 138.550, 126 138 C 126 137.450, 125.550 137, 125 137 C 124.450 137, 124 137.450, 124 138 M 91.200 152.200 C 89.442 153.958, 89.729 156.826, 92.037 160.560 C 93.158 162.373, 94.687 166.782, 95.435 170.358 C 96.183 173.934, 97.138 177.414, 97.557 178.092 C 100.112 182.227, 98.222 203.178, 95.004 206.396 C 94.452 206.948, 93.985 209.222, 93.967 211.450 C 93.898 220.064, 87.002 234.795, 79.231 242.932 C 76.622 245.664, 76.630 248.750, 79.250 250.393 C 81.682 251.917, 83.304 250.727, 90.812 241.911 C 98.332 233.081, 100.635 228.451, 101.333 220.757 C 101.645 217.318, 102.660 213.881, 103.863 212.192 C 105.470 209.936, 106.120 206.449, 107.113 194.771 C 108.536 178.015, 107.391 168.116, 103.323 162.018 C 102.045 160.103, 101 158.102, 101 157.573 C 101 155.957, 95.730 151, 94.013 151 C 93.126 151, 91.860 151.540, 91.200 152.200" stroke="none" fill="black" fill-rule="evenodd"/>
</svg>