<svg xmlns="http://www.w3.org/2000/svg" width="300" height="300" viewBox="0 0 300 300" version="1.1">
	<path d="M 130.500 80.722 C 126.100 82.087, 120.561 83.599, 118.192 84.082 C 115.822 84.566, 112.447 85.583, 110.692 86.343 C 108.936 87.102, 104.575 88.274, 101 88.946 C 97.425 89.619, 92.925 90.991, 91 91.996 C 89.075 93.001, 86.713 94.074, 85.750 94.381 C 83.540 95.083, 83.444 99.294, 85.597 101.081 C 86.933 102.189, 88.204 102.116, 93.347 100.636 C 106.024 96.988, 132.739 90.566, 139.750 89.482 C 143.518 88.899, 144 89.045, 144 90.768 C 144 91.838, 142.425 94.775, 140.500 97.296 C 138.575 99.817, 137 102.156, 137 102.493 C 137 102.830, 135.875 104.762, 134.500 106.785 C 133.125 108.809, 132 111.059, 132 111.787 C 132 113.757, 124.979 123.707, 118.954 130.275 C 113.480 136.241, 107.652 140.521, 106.214 139.632 C 105.761 139.352, 105.538 133.729, 105.718 127.135 C 105.922 119.683, 105.659 114.907, 105.023 114.514 C 104.460 114.167, 104 112.134, 104 109.998 C 104 107.117, 103.426 105.711, 101.777 104.557 C 99.098 102.680, 96.344 102.541, 95.684 104.250 C 95.418 104.938, 95.443 115.625, 95.740 128 C 96.087 142.457, 95.864 153.717, 95.118 159.500 C 93.994 168.205, 93.469 171.088, 90.476 185 C 86.085 205.416, 85.108 225.954, 88.256 231.711 C 91.078 236.874, 96.999 239.531, 109.990 241.464 C 120.661 243.052, 134.748 243.036, 149.500 241.420 C 151.150 241.239, 158.904 240.652, 166.731 240.116 C 174.559 239.580, 181.353 238.900, 181.829 238.606 C 182.305 238.311, 186.476 237.811, 191.098 237.493 C 195.719 237.176, 202.650 236.220, 206.500 235.368 C 210.350 234.516, 215.999 233.457, 219.053 233.013 C 225.559 232.069, 230.967 228.726, 235.006 223.151 C 237.208 220.110, 238.054 217.496, 238.739 211.614 C 239.225 207.431, 239.265 203.445, 238.827 202.755 C 238.389 202.065, 238.024 200.127, 238.015 198.450 C 238.007 196.773, 237.588 194.973, 237.084 194.450 C 236.581 193.928, 235.954 190.800, 235.691 187.500 C 235.161 180.838, 233.394 171.573, 232.067 168.500 C 226.081 154.633, 223.689 151, 220.546 151 C 217.042 151, 216.781 152.176, 219.188 157.114 C 223.417 165.788, 228 187.946, 228 199.720 C 228 206.180, 226.317 213.348, 223.796 217.621 C 222.366 220.045, 221.079 220.860, 218.037 221.268 C 215.883 221.557, 212.694 222.505, 210.951 223.374 C 209.208 224.244, 204.119 225.408, 199.641 225.961 C 188.279 227.364, 169.895 229.228, 167.500 229.219 C 166.400 229.215, 160.550 229.855, 154.500 230.641 C 141.656 232.309, 116.506 232.619, 111.777 231.167 C 109.974 230.614, 106.399 229.878, 103.832 229.532 C 101.264 229.185, 98.767 228.362, 98.283 227.701 C 96.371 225.095, 95.069 217.246, 96.007 213.977 C 96.521 212.183, 96.752 210.408, 96.520 210.033 C 95.905 209.038, 98.612 189.584, 100.420 182 C 101.273 178.425, 101.977 173.414, 101.985 170.864 C 102.003 165.136, 103.637 161.865, 108.348 158.120 C 110.353 156.527, 114.061 152.924, 116.589 150.112 C 119.117 147.300, 121.931 144.986, 122.843 144.968 C 123.754 144.951, 125.272 144.350, 126.217 143.632 C 127.538 142.629, 129.205 142.559, 133.456 143.330 C 140.358 144.581, 144 143.265, 144 139.521 C 144 137, 140.914 133, 138.968 133 C 138.400 133, 136.342 132.334, 134.394 131.520 L 130.853 130.041 134.044 126.240 C 137.587 122.019, 141.183 116.302, 143.617 111.017 C 144.500 109.101, 146.113 106.401, 147.202 105.017 C 148.291 103.633, 149.828 101.150, 150.619 99.500 C 151.409 97.850, 153.602 94.072, 155.492 91.104 L 158.928 85.708 156.847 82.785 C 155.702 81.177, 153.664 79.442, 152.317 78.931 C 148.178 77.357, 138.891 78.120, 130.500 80.722" stroke="none" fill="black" fill-rule="evenodd"/>
</svg>