<svg xmlns="http://www.w3.org/2000/svg" width="300" height="300" viewBox="0 0 300 300" version="1.1">
	<path d="M 107 65.018 C 89.847 67.895, 88.716 68.165, 83.500 70.633 C 75.581 74.380, 73.740 76.209, 73.474 80.594 C 73.345 82.720, 73.458 85.031, 73.726 85.730 C 74.446 87.605, 78.144 87.234, 81 85 C 82.375 83.924, 84.400 83.020, 85.500 82.990 C 86.600 82.961, 88.374 82.276, 89.441 81.468 C 90.509 80.661, 92.309 79.993, 93.441 79.985 C 94.574 79.977, 97.520 79.268, 99.989 78.408 C 102.484 77.539, 105.776 77.105, 107.402 77.430 C 109.257 77.801, 111.212 77.436, 112.744 76.432 C 124.475 68.746, 114.076 97.500, 98.280 116.430 C 96.476 118.591, 95 120.849, 95 121.447 C 95 123.168, 86.100 132, 84.366 132 C 81.569 132, 76.089 135.145, 75.466 137.107 C 75.132 138.160, 73.540 139.704, 71.929 140.537 C 70.227 141.417, 69 142.859, 69 143.979 C 69 145.039, 68.490 147.025, 67.866 148.394 C 67.026 150.238, 67.022 152.032, 67.851 155.325 C 68.703 158.707, 68.646 162.720, 67.612 172.134 C 66.165 185.311, 66.154 185.499, 66.108 197 C 66.032 216.062, 66.378 218.680, 69.535 222.928 C 74.076 229.037, 68.845 228.730, 159.320 228.197 C 180.672 228.072, 198.468 228.171, 198.868 228.418 C 200.034 229.139, 201.407 227.828, 205.066 222.500 C 208.290 217.805, 208.499 217.004, 208.486 209.376 C 208.479 204.907, 207.979 200.182, 207.375 198.876 C 205.729 195.314, 204 189.577, 204 187.679 C 204 186.756, 203.550 186, 203 186 C 202.450 186, 201.990 185.438, 201.978 184.750 C 201.966 184.063, 200.483 180.575, 198.682 177 C 195.277 170.242, 192.533 168.448, 190.093 171.388 C 189.190 172.476, 189.147 173.405, 189.931 174.870 C 190.519 175.969, 191 177.598, 191 178.489 C 191 179.380, 191.953 182.202, 193.118 184.760 C 195.439 189.853, 197.103 204.428, 196.082 210.709 C 195.133 216.546, 193.782 216.837, 167.084 216.944 C 154.113 216.997, 129.966 217.274, 113.424 217.561 C 94.049 217.897, 82.390 217.719, 80.656 217.059 C 79.175 216.496, 77.525 214.881, 76.988 213.469 C 75.641 209.927, 75.615 191.022, 76.936 176 C 77.540 169.125, 78.314 159.576, 78.654 154.780 L 79.274 146.061 83.387 144.642 C 91.180 141.955, 104.508 138.074, 108 137.475 C 115.456 136.197, 117 135.084, 117 130.994 C 117 126.933, 114.079 124, 110.035 124 C 108.886 124, 108 123.342, 108 122.489 C 108 120.698, 118.261 103.858, 120.469 102.026 C 121.311 101.327, 122 99.979, 122 99.031 C 122 98.083, 122.674 95.957, 123.497 94.307 C 124.320 92.657, 125.432 88.995, 125.968 86.171 C 126.503 83.346, 127.890 79.175, 129.050 76.902 C 131.390 72.316, 131.135 69.712, 127.949 65.662 C 125.434 62.465, 122.714 62.382, 107 65.018" stroke="none" fill="black" fill-rule="evenodd"/>
</svg>