<svg xmlns="http://www.w3.org/2000/svg" width="300" height="300" viewBox="0 0 300 300" version="1.1">
	<path d="M 87.250 22.468 C 84.516 23.675, 84 24.435, 84 27.252 C 84 31.114, 85.491 33, 88.545 33 C 90.963 33, 94 35.881, 94 38.175 C 94 39.010, 93.283 41.129, 92.408 42.885 C 91.532 44.640, 91.065 46.726, 91.370 47.521 C 92.299 49.942, 98.116 48.202, 101.750 44.416 C 106.060 39.925, 106.192 34.929, 102.146 29.400 C 96.567 21.775, 92.795 20.020, 87.250 22.468 M 128 40.575 C 124.425 42.517, 120.503 44.756, 119.285 45.553 C 118.067 46.349, 116.573 47, 115.965 47 C 115.358 47, 112.979 48.291, 110.680 49.869 C 108.381 51.447, 102.900 54.600, 98.500 56.875 C 94.100 59.151, 89.825 61.415, 89 61.906 C 88.175 62.398, 85.475 63.723, 83 64.851 C 80.525 65.979, 73.100 69.361, 66.500 72.368 C 48.686 80.482, 41.557 83.150, 35.787 83.860 C 31.073 84.441, 30.416 84.841, 28.642 88.211 C 26.258 92.741, 27.519 95, 32.431 95 C 35.751 95, 47.497 91.013, 59.500 85.812 C 75.244 78.990, 112.157 60.161, 118.144 55.898 C 119.609 54.854, 121.287 54, 121.870 54 C 124.431 54, 138.630 47.017, 140.729 44.726 C 142.234 43.082, 142.204 42.750, 140.327 40.226 C 137.518 36.450, 135.490 36.507, 128 40.575 M 155 78.603 C 149.889 82.741, 143.893 87.127, 140.104 89.500 C 139.225 90.050, 136.964 91.793, 135.078 93.374 C 130.927 96.853, 111.828 106.099, 107.109 106.914 C 102.828 107.654, 101.246 109.966, 102.538 113.594 C 104.148 118.113, 106.453 118.839, 110.970 116.250 C 113.130 115.013, 115.707 113.995, 116.698 113.988 C 117.689 113.981, 120.396 112.892, 122.712 111.567 C 125.029 110.242, 127.912 108.845, 129.118 108.462 C 130.325 108.080, 133.991 105.794, 137.266 103.383 C 142.603 99.454, 146 97.971, 146 99.570 C 146 99.883, 144.716 102.021, 143.147 104.320 C 141.577 106.619, 139.606 110.075, 138.767 112 C 137.927 113.925, 136.061 118.101, 134.619 121.280 C 132.037 126.973, 132.013 127.239, 133.006 138.780 C 133.561 145.226, 134.490 155, 135.070 160.500 C 137.440 182.947, 137.798 194.604, 137.518 240.199 C 137.233 286.741, 137.175 287.981, 135.113 291.317 C 133.951 293.198, 133 295.920, 133 297.368 C 133 299.941, 133.146 300, 139.500 300 L 146 300 146.198 294.250 C 146.307 291.087, 146.488 286.475, 146.600 284 C 146.944 276.357, 146.963 212.160, 146.624 200 C 146.447 193.675, 145.947 184.190, 145.512 178.923 C 144.243 163.556, 146.264 156.121, 150.546 160.403 C 152.339 162.196, 155.561 162.519, 156.500 161 C 156.840 160.450, 157.931 160, 158.924 160 C 164.091 160, 172.788 147.929, 175.333 137.225 C 177.375 128.640, 176.485 123.592, 172.407 120.643 C 168.751 117.998, 155.466 118.211, 149.996 121.002 C 145.263 123.417, 144.093 122.249, 146.415 117.429 C 147.317 115.559, 148.830 112.399, 149.777 110.406 C 150.725 108.413, 153.188 104.850, 155.250 102.488 C 157.313 100.126, 159 97.530, 159 96.719 C 159 95.908, 159.675 94.685, 160.500 94 C 161.325 93.315, 162 92.345, 162 91.844 C 162 91.343, 163.575 89.358, 165.500 87.433 C 169.687 83.246, 170.095 79.377, 166.686 76.174 C 163.404 73.091, 161.255 73.538, 155 78.603 M 56.655 95.829 C 55.745 96.835, 55 97.964, 55 98.340 C 55 98.715, 54.155 100.929, 53.122 103.261 C 52.090 105.592, 50.474 112, 49.533 117.500 C 47.823 127.489, 46.796 131.966, 44.485 139.500 C 43.810 141.700, 42.711 145.975, 42.043 149 C 41.374 152.025, 39.741 156.875, 38.414 159.777 C 37.086 162.680, 36 165.445, 36 165.923 C 36 166.995, 30.959 178.959, 26.277 189 C 24.354 193.125, 21.958 198.581, 20.954 201.125 C 19.949 203.669, 18.146 207.944, 16.947 210.625 C 12.761 219.986, 12 221.807, 12 222.463 C 12 222.826, 10.476 226.358, 8.614 230.312 C 6.752 234.265, 4.490 239.168, 3.588 241.208 C 2.685 243.247, 1.509 245.186, 0.973 245.517 C 0.438 245.847, 0.012 250.029, 0.027 254.809 L 0.054 263.500 3.527 259.765 C 5.454 257.692, 7 254.979, 7 253.670 C 7 252.372, 7.830 250.559, 8.845 249.641 C 9.859 248.722, 11.281 246.178, 12.005 243.986 C 12.728 241.793, 13.588 240, 13.916 240 C 14.244 240, 15.105 238.537, 15.830 236.750 C 18.078 231.208, 24.187 216.701, 26.042 212.500 C 30.262 202.945, 32 198.691, 32 197.917 C 32 197.462, 33.125 195.431, 34.500 193.405 C 35.875 191.379, 37 188.925, 37 187.953 C 37 186.456, 39.286 181.139, 43.102 173.764 C 43.596 172.809, 44 171.176, 44 170.136 C 44 169.096, 44.675 167.685, 45.500 167 C 46.325 166.315, 47 164.892, 47 163.838 C 47 162.783, 47.900 160.156, 49 158 C 50.100 155.844, 51 153.104, 51 151.911 C 51 150.718, 52.094 146.313, 53.432 142.121 C 57.067 130.725, 58.724 124.261, 59.998 116.500 C 60.629 112.650, 61.527 108.600, 61.992 107.500 C 65.774 98.558, 61.883 90.051, 56.655 95.829 M 70.618 96.715 C 69.603 97.731, 69.919 105.832, 71 106.500 C 71.550 106.840, 72 110.876, 72 115.470 C 72 123.521, 71.892 123.913, 69.002 126.345 C 67.353 127.732, 63.938 131.886, 61.412 135.575 L 56.820 142.282 57.839 148.391 C 58.399 151.751, 59.535 157.425, 60.364 161 C 61.682 166.684, 61.697 168.881, 60.483 178.500 C 58.548 193.840, 56.726 201.947, 53.291 210.500 C 44.478 232.444, 44.958 243.224, 54.540 238.601 C 56.427 237.691, 59.604 236.170, 61.600 235.223 C 63.595 234.275, 66.355 232.037, 67.733 230.250 C 69.110 228.462, 70.849 227, 71.596 227 C 72.343 227, 73.691 225.875, 74.592 224.500 C 75.493 223.125, 76.575 222, 76.997 222 C 77.986 222, 85.269 214.722, 89.756 209.250 C 91.673 206.912, 93.839 205, 94.570 205 C 96.085 205, 99.864 209.837, 102.382 215 C 103.321 216.925, 104.936 219.850, 105.971 221.500 C 107.007 223.150, 107.887 225.255, 107.927 226.177 C 108.018 228.278, 112.640 232, 115.156 232 C 116.216 232, 117.560 230.864, 118.223 229.409 C 119.243 227.170, 119.037 226.166, 116.702 222.012 C 115.216 219.368, 114 216.286, 114 215.162 C 114 214.038, 113.551 212.841, 113.003 212.502 C 112.455 212.163, 110.843 209.342, 109.421 206.233 C 106.545 199.946, 97.542 190.425, 93.518 189.415 C 89.669 188.449, 86.496 191.154, 84.395 197.194 C 82.894 201.511, 80.640 204.410, 72.299 212.750 C 66.661 218.387, 61.588 223, 61.024 223 C 59.352 223, 59.840 219.718, 62.601 212.397 C 64.032 208.604, 65.495 202.578, 65.851 199.007 C 66.444 193.072, 66.719 192.470, 69.047 192.007 C 72.931 191.234, 79.350 185.434, 87.146 175.654 C 93.190 168.071, 94.490 165.714, 96.247 159.154 C 99.007 148.845, 99.709 132.013, 97.566 127.499 C 96.705 125.683, 96 123.726, 96 123.150 C 96 122.573, 94.553 120.749, 92.784 119.096 C 90.392 116.860, 88.214 115.921, 84.284 115.430 C 81.378 115.067, 79.016 114.484, 79.035 114.135 C 79.055 113.786, 79.714 112.375, 80.500 111 C 82.729 107.102, 82.382 101.695, 79.750 99.309 C 77.452 97.225, 71.732 95.601, 70.618 96.715 M 75.091 136.034 C 68.545 143.451, 68 144.414, 68 148.566 C 68 154.481, 69.890 155.174, 74.757 151.041 C 76.816 149.292, 80.750 146.430, 83.500 144.681 C 87.844 141.918, 88.540 141.016, 88.807 137.810 C 89.184 133.271, 86.637 128, 84.066 128 C 82.966 128, 79.231 131.343, 75.091 136.034 M 158.450 129.883 C 157.928 130.368, 154.627 131.478, 151.116 132.350 C 147.606 133.221, 144.459 134.208, 144.124 134.542 C 143.790 134.877, 145.289 138.506, 147.456 142.606 C 153.465 153.974, 156.459 153.804, 162.914 141.727 C 166.772 134.512, 166.914 131.298, 163.435 129.975 C 160.280 128.776, 159.654 128.764, 158.450 129.883 M 74.287 165.266 C 70.683 168.033, 70.069 169.042, 70.037 172.250 C 69.993 176.673, 71.563 177.113, 75.104 173.671 C 79.164 169.724, 83 164.329, 83 162.566 C 83 160.888, 77.952 162.453, 74.287 165.266" stroke="none" fill="black" fill-rule="evenodd"/>
</svg>