<svg xmlns="http://www.w3.org/2000/svg" width="300" height="300" viewBox="0 0 300 300" version="1.1">
	<path d="M 121.381 7.765 C 119.684 8.880, 114.396 19.271, 113.664 22.930 C 113.309 24.706, 112.379 27.586, 111.599 29.330 C 110.818 31.073, 109.775 33.818, 109.280 35.429 C 107.989 39.634, 105.614 40.865, 103.130 38.618 C 100.416 36.162, 93.749 34.765, 90.549 35.981 C 88.647 36.704, 88 37.668, 88 39.775 C 88 43.204, 89.621 45, 92.714 45 C 93.986 45, 95.809 45.417, 96.764 45.927 C 97.719 46.437, 99.287 47.098, 100.250 47.396 C 101.213 47.694, 102 48.805, 102 49.866 C 102 52.120, 91.848 65.461, 89.425 66.390 C 86.679 67.444, 89.718 70, 93.718 70 C 97.158 70, 103 66.777, 103 64.878 C 103 64.337, 104.237 62.342, 105.750 60.447 C 108.648 56.815, 111.922 55.996, 113.919 58.402 C 114.558 59.173, 116.155 60.073, 117.466 60.402 C 118.900 60.762, 120.783 62.690, 122.189 65.239 C 124.822 70.014, 127.244 70.994, 130.074 68.433 C 133.232 65.575, 132.583 60.852, 128.527 57.161 C 126.616 55.422, 124.704 53.982, 124.277 53.959 C 123.849 53.936, 121.542 52.147, 119.149 49.983 L 114.797 46.048 117.399 40.828 C 118.829 37.957, 120 34.886, 120 34.004 C 120 33.122, 120.372 31.973, 120.826 31.450 C 121.280 30.928, 122.252 28.475, 122.984 26 C 123.717 23.525, 124.852 20.600, 125.507 19.500 C 126.162 18.400, 127.005 15.848, 127.380 13.828 C 127.957 10.719, 127.716 9.915, 125.808 8.578 C 123.265 6.797, 122.945 6.738, 121.381 7.765 M 89.526 86.950 C 88.687 88.573, 88 90.643, 88 91.549 C 88 92.456, 87.378 94.616, 86.617 96.349 C 85.857 98.082, 84.679 101.075, 84 103 C 80.427 113.129, 81.939 111.994, 60 121.027 C 52.340 124.181, 45.795 125.838, 38.232 126.536 C 32.362 127.078, 30.482 126.890, 28.454 125.562 C 25.010 123.306, 20.934 125.235, 19.647 129.730 C 18.342 134.286, 19.938 135.737, 26.798 136.232 C 36.372 136.923, 57.044 132.955, 65 128.900 C 69.559 126.576, 74 125.516, 74 126.752 C 74 127.285, 72.987 129.266, 71.750 131.154 C 69.499 134.589, 68.422 136.712, 63.717 147 C 60.769 153.445, 51.843 171.507, 46.668 181.500 C 42.616 189.324, 38.654 198.219, 37.537 202 C 37.131 203.375, 35.669 206.857, 34.288 209.738 C 32.907 212.619, 32.038 215.657, 32.357 216.488 C 33.061 218.322, 36.063 218.459, 38.129 216.750 C 40.188 215.047, 43 210.382, 43 208.670 C 43 207.900, 43.900 206.126, 45 204.727 C 46.100 203.329, 47 201.298, 47 200.215 C 47 199.131, 47.675 197.685, 48.500 197 C 49.325 196.315, 50 194.712, 50 193.437 C 50 192.161, 50.462 190.832, 51.027 190.483 C 51.592 190.134, 53.857 186.263, 56.060 181.880 C 58.264 177.497, 60.729 173.658, 61.538 173.347 C 63.244 172.692, 78 179.430, 78 180.863 C 78 181.392, 80.138 184.456, 82.750 187.671 C 85.362 190.887, 87.980 194.383, 88.567 195.442 C 90.043 198.105, 92.420 199.437, 94.364 198.691 C 97.088 197.645, 96.552 189.413, 93.500 185.411 C 92.125 183.608, 91 181.830, 91 181.459 C 91 180.856, 99.974 171.044, 102.500 168.885 C 107.405 164.692, 110.106 163, 111.894 163 C 113.851 163, 114.003 163.549, 114.038 170.750 C 114.059 175.012, 114.321 185.925, 114.621 195 C 114.942 204.735, 114.665 217.035, 113.944 225 C 113.272 232.425, 112.561 242.550, 112.364 247.500 C 111.902 259.088, 110.112 286.829, 109.346 294.250 L 108.752 300 113.876 300 C 116.694 300, 119.036 299.887, 119.079 299.750 C 119.123 299.613, 119.574 289.825, 120.081 278 C 120.588 266.175, 121.438 251.550, 121.970 245.500 C 123.093 232.730, 123.683 222.328, 124.462 201.572 C 124.770 193.362, 125.264 186.403, 125.559 186.108 C 126.425 185.242, 129.403 187.505, 130.660 189.983 C 134.309 197.180, 140.773 195.151, 152.145 183.237 C 163.030 171.833, 166.468 163.731, 167.440 147.190 C 167.725 142.334, 167.464 141.574, 164.386 138.311 L 161.020 134.742 153.258 135.191 C 146.658 135.573, 143.947 136.350, 135.159 140.378 C 122.475 146.193, 120.693 146.148, 119.974 140 C 119.685 137.525, 119.036 134.840, 118.532 134.034 C 118.027 133.228, 117.364 131.061, 117.057 129.218 C 116.361 125.035, 111.952 121.894, 109.239 123.649 C 107.024 125.082, 107.174 133.967, 109.541 141.490 C 111.966 149.201, 111.306 151.928, 106.388 154.520 C 97.271 159.326, 91.076 165.864, 89.431 172.417 C 88.537 175.982, 85.807 175.720, 81.253 171.630 C 79.189 169.777, 74.912 167.083, 71.750 165.644 C 65.974 163.015, 64.799 161.241, 67.403 159.080 C 69.175 157.610, 74 147.830, 74 145.709 C 74 144.834, 74.348 143.903, 74.773 143.640 C 75.199 143.377, 77.561 139.243, 80.023 134.453 C 85.533 123.735, 91.328 118.236, 103.641 112.045 C 108.513 109.595, 114.449 106.323, 116.832 104.773 C 123.833 100.222, 128.142 98.305, 134.173 97.061 C 137.293 96.417, 140.368 95.261, 141.006 94.493 C 142.769 92.368, 141.788 89.665, 138.719 88.194 C 136.388 87.077, 135.494 87.106, 132.937 88.382 C 131.273 89.212, 127.879 90.195, 125.395 90.568 C 120.729 91.268, 102.898 100.869, 98.379 105.114 C 96.495 106.884, 95.711 107.111, 94.762 106.162 C 93.813 105.213, 93.816 104.525, 94.775 102.989 C 95.449 101.910, 96 99.923, 96 98.573 C 96 97.223, 96.391 95.876, 96.869 95.581 C 97.346 95.286, 98.035 93.184, 98.398 90.910 C 99.189 85.965, 97.911 84, 93.903 84 C 91.757 84, 90.674 84.730, 89.526 86.950 M 144.852 146.658 C 143.641 147.946, 142.261 149, 141.784 149 C 140.279 149, 127.579 155.151, 125.750 156.765 C 123.394 158.845, 123.244 170.291, 125.548 172.211 C 127.426 173.775, 128.057 174.456, 132.069 179.250 C 133.795 181.313, 135.768 183, 136.454 183 C 139.271 183, 146.368 176.493, 150.476 170.144 C 155.662 162.126, 158.808 151.137, 157.146 146.839 C 156.236 144.484, 155.597 144.187, 151.585 144.247 C 148.181 144.299, 146.504 144.899, 144.852 146.658" stroke="none" fill="black" fill-rule="evenodd"/>
</svg>