<svg xmlns="http://www.w3.org/2000/svg" width="300" height="300" viewBox="0 0 300 300" version="1.1">
	<path d="M 154 3.441 C 154 5.334, 154.450 7.160, 155 7.500 C 155.550 7.840, 156 8.991, 156 10.059 C 156 11.127, 155.550 12, 155 12 C 154.450 12, 154 12.906, 154 14.014 C 154 15.121, 153.438 16.964, 152.750 18.109 C 151.666 19.915, 151.799 20.394, 153.750 21.717 C 154.988 22.557, 156 23.587, 156 24.007 C 156 25.209, 146.512 28, 142.427 28 C 133.473 28, 131.438 38.638, 140.063 40.363 C 142.194 40.789, 144.610 40.220, 148.290 38.427 C 151.156 37.031, 155.750 35.051, 158.500 34.027 C 174.100 28.220, 177.134 26.973, 182.643 24.106 C 193.455 18.479, 195.982 13.368, 188.828 11.595 C 185.581 10.791, 184.755 11.021, 181.339 13.681 C 179.228 15.326, 173.387 18.320, 168.361 20.336 C 155.157 25.630, 154.199 25.324, 162 18.310 C 167.297 13.548, 167.983 11.166, 166.375 3.125 C 165.760 0.051, 165.655 0, 159.875 0 L 154 0 154 3.441 M 174.295 31.164 C 171.501 31.922, 170.489 33.252, 166.414 41.517 C 161.139 52.217, 159.008 53.575, 158.985 46.250 C 158.966 40.457, 157.984 38.721, 154.977 39.163 C 150.823 39.773, 148.320 51.463, 150.389 60.591 C 150.893 62.816, 150.657 64.040, 149.544 64.963 C 148.695 65.668, 148 66.852, 148 67.593 C 148 68.335, 145.983 71.092, 143.517 73.721 C 141.051 76.349, 139.026 78.979, 139.017 79.565 C 138.997 80.787, 132.716 84, 130.346 84 C 128.667 84, 121.589 88.102, 117.286 91.570 C 114.950 93.452, 114.801 93.999, 115.640 97.570 C 116.877 102.829, 120.249 103.314, 126.801 99.174 C 132.544 95.547, 139.910 92, 141.701 92 C 142.431 92, 143.809 91.603, 144.764 91.117 C 148.246 89.348, 157.578 86, 159.030 86 C 160.560 86, 175.624 79.709, 176.722 78.611 C 177.058 78.275, 178.377 78, 179.652 78 C 183.178 78, 191.014 75.975, 195.610 73.877 C 197.870 72.844, 201.470 71.984, 203.610 71.965 C 207.651 71.928, 209.396 71.163, 214.792 67.062 C 218.681 64.107, 218.726 63.577, 215.354 60.452 C 211.958 57.305, 210.260 57.366, 201.069 60.959 C 196.906 62.586, 188.565 65.357, 182.534 67.117 C 176.503 68.876, 168.974 71.369, 165.804 72.658 C 159.142 75.365, 156 75.635, 156 73.500 C 156 72.675, 156.830 72, 157.845 72 C 160.284 72, 162.621 69.237, 163.438 65.388 C 163.801 63.676, 165.201 61.316, 166.549 60.144 C 167.897 58.972, 169 57.413, 169 56.680 C 169 55.946, 171.025 53.141, 173.500 50.445 C 175.975 47.749, 178 44.836, 178 43.972 C 178 43.107, 178.404 41.972, 178.897 41.450 C 179.390 40.927, 180.099 38.621, 180.472 36.325 C 181.288 31.303, 179.447 29.765, 174.295 31.164 M 64.269 58.742 C 63.377 61.066, 63.514 64.838, 64.855 74.872 L 65.974 83.244 59.873 89.122 C 53.908 94.870, 51 96.355, 51 93.655 C 51 91.297, 47.335 88.832, 44.338 89.175 C 42.017 89.441, 41.559 89.921, 41.823 91.810 C 42.001 93.080, 41.687 94.672, 41.126 95.348 C 40.423 96.196, 40.888 102.157, 42.625 114.539 C 44.267 126.248, 44.955 134.706, 44.601 138.838 C 43.937 146.603, 45.521 154.740, 48.284 157.750 C 50.728 160.413, 51.753 160.533, 54.077 158.430 C 55.579 157.071, 55.747 155.433, 55.332 146.180 C 55.068 140.306, 54.528 131.552, 54.133 126.726 C 52.953 112.333, 53.604 109.737, 59.976 103.425 C 62.988 100.441, 65.967 98, 66.595 98 C 70.120 98, 72.411 209.870, 69.131 221.868 C 67.047 229.492, 71.730 235.715, 76.193 231.252 C 79.213 228.231, 80.026 218.178, 80.275 180.750 C 80.510 145.441, 80.890 142.751, 84.550 150.463 C 86.505 154.583, 89.429 155.827, 91.900 153.590 C 92.867 152.716, 94.176 152, 94.810 152 C 95.443 152, 96.171 150.988, 96.426 149.750 C 97.722 143.458, 100.855 102.227, 100.357 98 C 99.654 92.028, 97.699 83.932, 96.829 83.394 C 96.373 83.113, 96 82.049, 96 81.030 C 96 80.011, 94.568 77.973, 92.818 76.500 C 89.358 73.589, 85.212 73.593, 81.987 76.512 C 81.082 77.330, 79.680 78, 78.871 78 C 75.859 78, 75 75.635, 75 67.335 C 75 60.187, 74.739 58.930, 73.066 58.035 C 69.948 56.367, 65.029 56.762, 64.269 58.742 M 80.628 88.636 L 77.756 90.192 78.380 101.846 C 78.724 108.256, 79.278 119.575, 79.612 127 C 79.945 134.425, 80.571 140.879, 81.002 141.343 C 81.433 141.807, 82.912 141.448, 84.289 140.547 C 86.217 139.283, 87.062 137.472, 87.972 132.651 C 89.745 123.252, 89.822 96.469, 88.090 91.250 C 86.545 86.594, 85.241 86.137, 80.628 88.636 M 171 104.783 C 166.325 106.843, 161.006 109.336, 159.181 110.325 C 154.045 113.107, 142 125.407, 142 127.870 C 142 130.515, 138.408 130.822, 137.553 128.250 C 137.233 127.287, 134.985 124.250, 132.557 121.500 C 128.164 116.524, 128.130 116.507, 125.322 118.069 C 121.317 120.296, 121.723 125.722, 126.317 131.379 C 129.555 135.367, 135 145.759, 135 147.952 C 135 148.543, 135.450 149.921, 136 151.014 C 136.550 152.106, 137.450 153.894, 138 154.986 C 138.550 156.079, 139 158.132, 139 159.550 C 139 161.854, 139.344 162.094, 142.243 161.813 C 144.631 161.583, 145.832 160.775, 146.798 158.750 C 147.758 156.736, 148.844 156, 150.855 156 C 152.365 156, 154.140 155.460, 154.800 154.800 C 155.733 153.867, 156.273 153.873, 157.228 154.828 C 159.707 157.307, 157.635 158.943, 143 166.053 C 141.992 166.542, 141.577 168.007, 141.735 170.520 C 142.162 177.310, 145.313 178.638, 152.032 174.862 C 158.620 171.159, 159.998 173.440, 158.366 185.343 L 157.733 189.966 147.153 195.616 C 139.751 199.568, 135.360 201.304, 132.536 201.393 C 126.740 201.577, 125.689 202.528, 126.500 206.865 C 126.873 208.864, 127.644 211.063, 128.212 211.750 C 129.397 213.185, 134.139 213.425, 135.550 212.123 C 136.073 211.641, 138.837 210.488, 141.693 209.561 C 144.550 208.635, 147.928 207.117, 149.201 206.188 C 152.115 204.062, 155.771 202, 156.629 202 C 158.625 202, 154.198 223.760, 150.931 230 C 149.924 231.925, 148.894 234.216, 148.642 235.090 C 148.166 236.748, 140.302 237.773, 112.795 239.763 C 99.917 240.694, 97 242.022, 97 246.955 C 97 251.081, 98.260 251.630, 105.725 250.758 C 109.451 250.322, 118.575 249.554, 126 249.050 C 133.425 248.546, 142.650 247.606, 146.500 246.961 C 150.350 246.316, 155.750 245.677, 158.500 245.541 C 161.251 245.405, 164.525 244.968, 165.776 244.571 C 168.828 243.603, 174.266 243.223, 214 241.205 C 246.414 239.558, 254.382 239.668, 266.925 241.935 C 273.209 243.071, 280.004 244, 282.026 244 C 284.047 244, 287.056 244.472, 288.711 245.049 C 291.211 245.921, 292.335 245.735, 295.360 243.950 C 299.557 241.474, 299.949 239.240, 296.719 236.205 C 294.758 234.364, 292.823 233.977, 282.969 233.457 C 276.661 233.125, 268.189 232.211, 264.143 231.426 C 252.979 229.262, 244.039 229.445, 185.500 233.034 C 176.150 233.607, 166.589 234.335, 164.252 234.651 L 160.005 235.226 160.585 231.863 C 161.379 227.267, 163.982 217.854, 165.002 215.894 C 165.461 215.010, 166.157 210.510, 166.547 205.894 C 166.937 201.277, 167.673 196.695, 168.184 195.711 C 168.694 194.728, 173.510 191.022, 178.887 187.477 C 184.263 183.932, 189.482 180.124, 190.486 179.016 C 191.489 177.907, 193.275 177, 194.455 177 C 198.901 177, 200.539 171.642, 197.443 167.223 C 195.062 163.823, 192.327 164.513, 185.111 170.330 C 172.822 180.237, 168.997 182.604, 167.927 180.962 C 167.403 180.158, 167.222 178.600, 167.526 177.500 C 167.829 176.400, 168.346 173.925, 168.674 172 C 169.281 168.441, 171.536 165, 173.262 165 C 174.151 165, 182.324 159.060, 186.250 155.560 C 187.295 154.629, 188 152.570, 188 150.452 C 188 148.500, 188.962 145.013, 190.137 142.702 C 192.647 137.767, 193.911 130.953, 194.649 118.389 L 195.184 109.277 191.247 105.139 C 186.116 99.746, 182.578 99.684, 171 104.783 M 172.235 115.316 L 163.971 119.500 164.495 123.960 C 165.251 130.393, 166.219 130.774, 171.280 126.627 C 176.099 122.678, 178.086 122.193, 180 124.500 C 182.721 127.779, 184 126.244, 184 119.700 C 184 114.158, 182.869 110.849, 181.050 111.066 C 180.748 111.102, 176.781 113.014, 172.235 115.316 M 147.428 131.672 C 144.489 134.843, 143.750 137.331, 144.180 142.595 C 144.619 147.959, 147.205 147.763, 152.094 141.995 C 155.796 137.627, 155.879 137.361, 154.834 133.245 C 153.541 128.149, 151.161 127.644, 147.428 131.672 M 176.500 137.692 C 169.254 141.415, 165.522 147.120, 167.890 150.855 C 168.597 151.972, 169.211 151.908, 171.374 150.490 C 172.818 149.544, 174 148.020, 174 147.104 C 174 146.188, 175.285 144.953, 176.856 144.360 C 178.824 143.618, 179.889 142.383, 180.280 140.391 C 181.038 136.521, 180.093 135.846, 176.500 137.692" stroke="none" fill="black" fill-rule="evenodd"/>
</svg>