<svg xmlns="http://www.w3.org/2000/svg" width="300" height="300" viewBox="0 0 300 300" version="1.1">
	<path d="M 104.315 8.007 C 99.012 10.144, 99.357 15.883, 104.905 17.817 C 106.526 18.382, 108.640 20.047, 109.603 21.516 C 111.271 24.063, 111.270 24.342, 109.590 27.463 C 107.735 30.908, 107.740 35.093, 109.601 35.705 C 110.206 35.904, 113.082 33.832, 115.991 31.101 C 120.949 26.446, 121.249 25.893, 120.767 22.297 C 120.166 17.816, 116.055 11.336, 112.201 8.794 C 109.237 6.840, 107.615 6.678, 104.315 8.007 M 151.500 21.222 C 149.850 21.807, 147.306 23.121, 145.846 24.143 C 144.386 25.164, 142.586 26.002, 141.846 26.004 C 141.106 26.006, 138.925 26.968, 137 28.143 C 135.075 29.317, 130.575 31.825, 127 33.716 C 123.425 35.607, 119.600 37.968, 118.500 38.962 C 117.400 39.957, 115.417 41.099, 114.094 41.502 C 112.771 41.904, 107.773 44.583, 102.987 47.454 C 96.077 51.601, 72.108 63.179, 60.500 67.978 C 53.262 70.971, 46.761 73.120, 42 74.094 C 35.560 75.411, 32 78.244, 32 82.052 C 32 86.518, 34.204 87.518, 39.747 85.563 C 42.361 84.641, 46.122 83.474, 48.104 82.971 C 50.087 82.467, 54.041 80.845, 56.893 79.366 C 59.950 77.780, 62.423 77.050, 62.921 77.588 C 64.902 79.726, 59.038 119.260, 54.592 133.735 C 53.280 138.006, 51.446 144.200, 50.516 147.500 C 49.586 150.800, 47.708 156.650, 46.342 160.500 C 44.976 164.350, 43.499 169.200, 43.059 171.279 C 42.618 173.357, 41.525 175.867, 40.629 176.857 C 39.733 177.847, 39 179.453, 39 180.425 C 39 182.998, 36.261 192.356, 32.915 201.218 C 31.312 205.462, 30 210.048, 30 211.409 C 30 212.769, 29.618 214.118, 29.152 214.406 C 28.685 214.695, 27.075 218.659, 25.574 223.215 C 24.073 227.772, 22.255 232.850, 21.533 234.500 C 20.811 236.150, 18.988 240.425, 17.483 244 C 11.476 258.261, 8.780 262.793, 4.305 266.146 C 0.563 268.950, -0.009 269.832, 0.526 271.975 C 2.280 279.008, 7.414 279.896, 11.578 273.888 C 16.517 266.760, 27 246.217, 27 243.664 C 27 242.814, 27.415 241.861, 27.923 241.548 C 28.431 241.234, 29.162 239.520, 29.547 237.739 C 29.933 235.957, 31.018 232.700, 31.959 230.500 C 34.284 225.062, 35.913 220.419, 37.520 214.649 C 38.264 211.982, 39.576 209.021, 40.436 208.071 C 41.296 207.120, 42.015 205.478, 42.033 204.421 C 42.093 200.851, 45.843 191.502, 47.338 191.194 C 48.154 191.025, 49.649 192.075, 50.661 193.527 C 51.672 194.978, 53.683 197.591, 55.130 199.333 C 58.754 203.697, 61.685 209.117, 62.937 213.768 C 63.517 215.921, 64.907 218.511, 66.027 219.524 C 67.890 221.210, 68.197 221.231, 69.657 219.772 C 72.752 216.677, 71.916 210.893, 66.655 199 C 65.061 195.396, 61.212 190.543, 55.622 185.086 C 51.242 180.811, 50.797 179.976, 51.273 176.912 C 51.949 172.556, 55.811 159.498, 57.692 155.205 C 59.247 151.658, 61.313 144.511, 63.099 136.500 C 63.712 133.750, 64.616 131.072, 65.107 130.550 C 65.598 130.028, 66 128.693, 66 127.583 C 66 126.474, 66.635 123.752, 67.412 121.533 C 69.045 116.866, 71.680 97.054, 72.621 82.364 L 73.270 72.227 79.885 69.011 C 83.523 67.241, 87.625 65.186, 89 64.443 C 91.675 62.998, 103.190 57.004, 106.500 55.334 C 116.049 50.515, 126.511 44.754, 128 43.495 C 129.787 41.985, 139.895 36.577, 142.597 35.686 C 143.644 35.340, 145.175 34.639, 146 34.126 C 146.825 33.613, 149.525 32.621, 152 31.922 C 157.393 30.397, 161 27.433, 161 24.526 C 161 20.239, 157.603 19.058, 151.500 21.222 M 138.712 67.622 C 137.455 68.878, 137.949 73.007, 139.750 76.300 C 141.227 79, 141.482 82, 141.384 95.500 C 141.287 108.880, 140.856 113.219, 138.750 122 C 137.365 127.775, 135.507 133.850, 134.622 135.500 C 132.532 139.394, 132.585 140.314, 135.024 142.521 C 137.545 144.803, 137.972 144.392, 142.883 134.971 C 146.003 128.984, 147.314 127.416, 149.719 126.793 C 151.793 126.256, 153.973 124.199, 156.911 120.011 C 159.230 116.705, 161.665 114, 162.322 114 C 163.210 114, 163.514 119.325, 163.508 134.733 C 163.501 153.572, 163.342 155.497, 161.773 155.802 C 160.824 155.987, 158.993 155.094, 157.705 153.819 C 153.567 149.721, 152.129 148.818, 148.395 147.976 C 139.989 146.080, 136.715 152.236, 143.979 156.279 C 147.968 158.499, 149.789 159.879, 156.345 165.653 L 161.062 169.806 158.888 177.653 C 157.693 181.969, 156.502 186.743, 156.242 188.262 C 155.982 189.781, 155.371 191.271, 154.885 191.571 C 154.398 191.872, 154 193.126, 154 194.359 C 154 195.592, 153.624 197.027, 153.165 197.550 C 152.706 198.072, 151.519 200.750, 150.526 203.500 C 148.621 208.779, 143.818 219.149, 141.736 222.476 C 136.379 231.039, 132.524 236.108, 128.589 239.759 C 123.385 244.589, 122.903 246.543, 126.509 248.186 C 128.472 249.080, 129.608 249.021, 131.737 247.914 C 134.435 246.511, 145 236.108, 145 234.854 C 145 234.192, 151.168 224.507, 153.001 222.292 C 153.550 221.628, 154 220.417, 154 219.601 C 154 218.785, 154.450 217.840, 155 217.500 C 155.550 217.160, 156 215.799, 156 214.476 C 156 213.153, 157.057 210.142, 158.348 207.785 C 159.639 205.428, 161.498 201.025, 162.477 198 C 163.457 194.975, 164.845 190.925, 165.562 189 C 166.279 187.075, 167.142 183.813, 167.478 181.750 C 168.374 176.265, 171.240 176.738, 178.544 183.575 C 181.820 186.641, 185.898 190.245, 187.606 191.583 C 192.240 195.215, 222 225.095, 222 226.117 C 222 226.603, 222.701 227, 223.558 227 C 224.416 227, 227.003 229.123, 229.308 231.717 C 231.614 234.311, 240.911 243.821, 249.968 252.849 C 266.169 268.999, 266.478 269.242, 268.968 267.851 C 270.668 266.902, 271.600 265.423, 271.804 263.350 C 272.064 260.700, 271.234 259.431, 265.942 254.382 C 256.107 245, 249.208 238.124, 238.412 226.946 C 221.415 209.347, 202.114 191.064, 187.796 179 C 180.289 172.675, 173.610 166.528, 172.953 165.339 C 172.038 163.686, 172.028 162.043, 172.908 158.339 C 173.688 155.058, 173.908 145.383, 173.591 128.294 L 173.124 103.087 179.363 98.635 C 185.493 94.261, 193 86.827, 193 85.132 C 193 84.658, 192.067 83.084, 190.927 81.635 C 188.378 78.394, 184.760 78.225, 182.691 81.250 C 179.905 85.322, 176.577 88.507, 171 92.439 C 167.975 94.571, 162.750 98.720, 159.389 101.658 C 156.028 104.596, 152.991 107, 152.639 107 C 152.288 107, 151.957 100.362, 151.904 92.250 C 151.851 84.138, 151.287 75.250, 150.651 72.500 L 149.495 67.500 144.459 67.205 C 141.689 67.043, 139.103 67.230, 138.712 67.622 M 85.021 95.444 C 83.695 98.932, 83.727 101.327, 85.120 102.720 C 86.474 104.074, 88.050 110.696, 88.637 117.500 L 89.068 122.500 82.544 127.750 C 78.956 130.637, 75.411 133, 74.665 133 C 71.112 133, 68.410 139.713, 70.667 142.935 C 72.800 145.981, 74.646 145.504, 80.259 140.457 C 83.039 137.958, 86.030 136.049, 86.906 136.215 C 89.571 136.720, 89.249 141.224, 86.103 147.462 C 84.461 150.717, 83.330 153.725, 83.590 154.146 C 84.429 155.504, 88.409 153.365, 89.978 150.714 C 90.815 149.298, 94.700 144.396, 98.610 139.820 C 102.521 135.244, 106.532 129.700, 107.525 127.500 C 108.517 125.300, 110.125 122.600, 111.096 121.500 C 112.068 120.400, 113.592 117.250, 114.482 114.500 C 115.372 111.750, 116.572 108.547, 117.149 107.381 C 118.742 104.162, 117.811 101.727, 114.665 100.886 C 110.571 99.791, 109.198 100.667, 106.859 105.868 C 104.435 111.259, 102.239 114, 100.345 114 C 99.605 114, 99 113.127, 99 112.059 C 99 110.991, 98.606 109.875, 98.125 109.577 C 97.644 109.280, 97.043 106.527, 96.788 103.459 C 96.260 97.089, 94.248 94.400, 89.268 93.404 C 86.418 92.834, 85.924 93.071, 85.021 95.444 M 114.019 148.103 C 101.462 154.967, 79.676 170.533, 76.600 174.836 C 74.895 177.221, 72.005 180.911, 70.179 183.036 C 67.780 185.826, 66.947 187.678, 67.179 189.700 C 67.609 193.453, 70.991 193.506, 72.772 189.789 C 73.487 188.298, 75.932 185.823, 78.206 184.289 C 80.480 182.755, 83.630 180.198, 85.206 178.606 C 86.782 177.014, 89.405 174.989, 91.035 174.106 C 92.664 173.223, 99.106 169.012, 105.349 164.750 C 111.591 160.488, 117.223 157, 117.863 157 C 118.503 157, 119.884 156.465, 120.932 155.810 C 123.769 154.038, 126.099 156.388, 130.040 165 C 131.810 168.866, 132.347 181.573, 131.150 191.271 C 129.653 203.396, 127.789 208.900, 120.125 223.823 C 117.871 228.214, 112.771 233, 110.348 233 C 109.106 233, 106.431 231.875, 104.405 230.500 C 99.835 227.399, 97.949 227.361, 95.174 230.314 C 92.498 233.163, 92.440 234, 94.917 234 C 95.972 234, 99.854 236.475, 103.544 239.500 C 107.235 242.525, 111.078 245, 112.085 245 C 114.082 245, 126 234.282, 126 232.486 C 126 231.876, 126.895 230.416, 127.989 229.242 C 130.181 226.890, 135 216.605, 135 214.280 C 135 213.471, 135.629 211.614, 136.398 210.154 C 137.166 208.694, 138.291 205.588, 138.898 203.250 C 139.504 200.912, 140.534 197.164, 141.187 194.919 C 142.865 189.150, 142.547 172.669, 140.621 165.562 C 139.736 162.296, 137.788 157.858, 136.292 155.700 C 134.796 153.542, 133.097 150.823, 132.517 149.658 C 129.867 144.343, 122.091 143.689, 114.019 148.103 M 99.500 177.951 C 98.400 178.405, 95.362 181.044, 92.748 183.817 C 88.351 188.484, 87.769 188.794, 84.941 187.983 C 81.002 186.853, 79.133 187.620, 78.365 190.682 C 77.896 192.551, 78.463 193.909, 80.722 196.322 C 87.059 203.091, 88.911 209.169, 85.500 212 C 83.364 213.773, 83.572 220.302, 85.829 222.345 C 88.544 224.803, 89.611 224.478, 97.128 218.905 C 102.696 214.777, 104 213.294, 104 211.086 C 104 209.425, 104.977 207.511, 106.500 206.187 C 108.234 204.679, 109 202.990, 109 200.673 C 109 198.836, 109.322 197.012, 109.715 196.618 C 110.108 196.225, 110.944 194.012, 111.571 191.702 C 112.198 189.391, 113.052 186.707, 113.468 185.737 C 114.028 184.431, 113.239 183.072, 110.416 180.487 C 106.582 176.975, 103.567 176.275, 99.500 177.951 M 95.557 193.223 C 93.798 195.734, 93.453 201, 95.048 201 C 96.828 201, 100.935 195.624, 100.968 193.250 C 101.010 190.255, 97.647 190.238, 95.557 193.223" stroke="none" fill="black" fill-rule="evenodd"/>
</svg>