<svg xmlns="http://www.w3.org/2000/svg" width="300" height="300" viewBox="0 0 300 300" version="1.1">
	<path d="M 89.594 5.001 C 89.229 7.752, 89.334 10.789, 89.826 11.751 C 91.552 15.122, 91.969 21.554, 90.846 27.500 C 89.458 34.854, 88.421 36.323, 85.194 35.513 C 83.016 34.966, 82.809 35.155, 83.356 37.198 C 83.695 38.464, 83.979 39.831, 83.986 40.237 C 83.994 40.642, 85.616 41.648, 87.590 42.473 C 91.324 44.033, 95 43.193, 95 40.779 C 95 40.147, 95.848 38.700, 96.884 37.564 C 100.065 34.079, 102.595 12.104, 100 10.500 C 99.450 10.160, 99 8.124, 99 5.976 C 99 1.730, 97.175 -0, 92.695 0 C 90.525 0, 90.185 0.549, 89.594 5.001 M 119.200 9.200 C 118.540 9.860, 117.993 11.773, 117.985 13.450 C 117.964 17.738, 116.070 22.662, 111.994 29.026 C 110.066 32.037, 107.633 36.188, 106.587 38.250 C 105.541 40.312, 104.306 42, 103.843 42 C 103.379 42, 103 42.900, 103 44 C 103 45.100, 103.414 46, 103.920 46 C 105.187 46, 118 34.976, 118 33.886 C 118 33.402, 119.518 31.317, 121.373 29.253 C 124.955 25.267, 129 17.325, 129 14.277 C 129 9.356, 122.442 5.958, 119.200 9.200 M 67.750 28.080 C 63.412 30.607, 67.282 44.238, 73.022 46.651 C 76.991 48.320, 80.225 48.375, 81.800 46.800 C 83.901 44.699, 83.100 42.405, 79.751 40.930 C 76.087 39.318, 74.971 36.226, 77.409 34.443 C 79.513 32.905, 78.664 30.823, 75.064 28.697 C 71.790 26.763, 70.237 26.632, 67.750 28.080 M 135 49.611 C 133.075 50.528, 129.799 52.116, 127.719 53.139 C 125.640 54.163, 123.390 55.019, 122.719 55.042 C 122.049 55.066, 118.350 57.078, 114.500 59.513 C 110.650 61.949, 105.700 64.844, 103.500 65.946 C 98.726 68.338, 97.061 69.379, 90.500 74.073 C 87.750 76.040, 83.029 79.381, 80.009 81.497 C 76.989 83.612, 73.719 86.359, 72.743 87.600 C 71.766 88.841, 69.287 90.871, 67.234 92.111 C 65.180 93.350, 61.413 96.083, 58.861 98.182 C 52.732 103.227, 50.488 103.084, 44.232 97.250 C 33.604 87.339, 24.303 82.060, 17.405 82.022 C 12.036 81.993, 9.272 84.675, 11.087 88.154 C 11.760 89.444, 12.624 91.175, 13.007 92 C 13.389 92.825, 15.310 93.638, 17.275 93.806 C 19.240 93.974, 21.387 94.762, 22.046 95.556 C 22.706 96.350, 23.800 97, 24.479 97 C 25.157 97, 27.775 98.575, 30.296 100.500 C 32.817 102.425, 35.178 104, 35.543 104 C 35.908 104, 38.464 106.030, 41.224 108.511 C 43.983 110.992, 47.215 113.267, 48.406 113.566 C 51.322 114.298, 63.733 108.646, 67.369 104.931 C 68.946 103.319, 70.771 102, 71.422 102 C 72.074 102, 74.134 100.425, 76 98.500 C 77.866 96.575, 81.205 93.763, 83.420 92.250 C 85.636 90.738, 90.204 87.475, 93.572 85 C 96.940 82.525, 101.002 79.725, 102.598 78.779 C 106.060 76.725, 107.705 75.681, 115.219 70.767 C 123.322 65.468, 132.792 61.177, 138.972 60.005 C 146.195 58.636, 147.436 58.722, 149.971 60.775 C 152.133 62.526, 152.139 62.614, 150.433 67.025 C 147.497 74.620, 138.673 85.619, 125.583 98 C 122.967 100.475, 119.761 104.581, 118.459 107.125 C 116.153 111.632, 113.752 113.583, 111.910 112.444 C 111.409 112.135, 111 111.303, 111 110.596 C 111 108.479, 107.533 106, 104.572 106 C 100.121 106, 95.302 108.859, 88.308 115.650 C 84.711 119.142, 81.309 122, 80.748 122 C 80.188 122, 78.687 120.875, 77.412 119.500 C 74.998 116.894, 72.093 116.345, 69.128 117.931 C 65.960 119.627, 67.020 126.037, 71.292 131.028 C 73.331 133.411, 75 136.201, 75 137.230 C 75 138.258, 75.713 140.479, 76.585 142.164 C 77.601 144.129, 78.055 147.072, 77.851 150.365 C 77.676 153.189, 77.902 156.084, 78.355 156.798 C 79.433 158.500, 86.991 157.510, 92.739 154.914 C 95.071 153.861, 97.580 153, 98.315 153 C 100.696 153, 104 148.507, 104 145.268 C 104 143.562, 104.942 139.991, 106.094 137.333 C 107.246 134.675, 109.078 129.125, 110.164 125 C 112.275 116.986, 114.928 113.695, 120.262 112.470 C 121.781 112.121, 124.196 110.298, 125.630 108.418 C 127.064 106.538, 128.902 105, 129.714 105 C 131.909 105, 137 101.752, 137 100.352 C 137 99.682, 137.857 98.863, 138.905 98.530 C 141.498 97.707, 152.044 86.042, 154.458 81.326 C 155.535 79.221, 157.154 76.375, 158.056 75 C 160.217 71.705, 162.018 64.175, 161.928 58.807 C 161.866 55.126, 161.332 54.064, 158.255 51.500 C 155 48.788, 153.881 48.473, 146.578 48.222 C 140.642 48.017, 137.572 48.386, 135 49.611 M 96 122.940 C 94.075 123.959, 90.994 126.667, 89.153 128.958 C 86.018 132.860, 85.860 133.416, 86.653 137.730 C 87.119 140.263, 87.986 142.497, 88.581 142.695 C 91.970 143.821, 101 130.058, 101 123.765 C 101 120.536, 100.653 120.478, 96 122.940 M 148.500 164.960 C 141.059 166.926, 137.386 168.211, 127 172.480 C 118.589 175.937, 113.145 178.527, 109.876 180.626 C 105.860 183.204, 104.402 181.930, 103.027 174.643 C 101.909 168.719, 101.518 168.028, 98.733 167.057 C 93.772 165.327, 92 167.726, 92 176.169 C 92 179.941, 92.556 183.917, 93.235 185.005 C 94.295 186.702, 94.117 187.318, 91.985 189.336 C 90.618 190.631, 87.409 192.454, 84.853 193.388 C 82.297 194.322, 79.206 195.954, 77.984 197.014 C 76.762 198.073, 75.028 199.193, 74.131 199.501 C 71.832 200.291, 66.960 206.973, 66.305 210.236 C 65.715 213.174, 61.499 218, 59.523 218 C 58.861 218, 57.235 216.482, 55.910 214.626 C 50.796 207.465, 35.019 197.900, 27.578 197.450 C 20.940 197.048, 17.921 201.587, 21.463 206.644 C 22.558 208.207, 24.481 208.909, 29.093 209.431 C 34.097 209.997, 36.225 210.857, 40.380 213.991 C 47.142 219.092, 51.719 224.005, 54.429 229.073 C 56.868 233.632, 61.382 237.048, 62.884 235.470 C 63.406 234.921, 63.480 232.415, 63.053 229.694 C 62.438 225.767, 62.638 224.458, 64.150 222.536 C 65.168 221.243, 66 219.445, 66 218.541 C 66 217.593, 67.557 216.247, 69.682 215.360 C 71.707 214.514, 75.869 211.686, 78.932 209.077 C 86.683 202.472, 93.503 198.676, 94.752 200.270 C 95.569 201.312, 97.675 217.884, 98.530 230 C 98.666 231.925, 98.827 248.463, 98.889 266.750 L 99 300 103.500 300 L 108 300 108.170 290.750 C 108.755 258.890, 108.424 231.707, 107.308 220 C 105.218 198.075, 105.566 192, 108.913 192 C 109.847 192, 112.136 190.875, 114 189.500 C 115.864 188.125, 117.998 187, 118.744 187 C 119.489 187, 121.539 186.229, 123.300 185.287 C 126.900 183.359, 128.926 182.549, 141 178.209 C 157.890 172.138, 159.579 172.667, 158.783 183.787 C 158.517 187.505, 157.835 191.437, 157.266 192.524 C 156.698 193.611, 155.795 195.625, 155.260 197 C 152.435 204.253, 147.360 214.269, 145.790 215.690 C 144.805 216.581, 143.990 217.803, 143.979 218.405 C 143.967 219.007, 142.142 220.785, 139.923 222.355 C 136.378 224.864, 135.334 225.127, 131.326 224.526 C 128.755 224.141, 125.005 222.568, 122.732 220.921 C 118.896 218.142, 114 216.997, 114 218.878 C 114 219.361, 114.635 221.273, 115.411 223.128 C 117.846 228.946, 125.907 233.729, 134.725 234.588 C 140.248 235.125, 140.721 234.983, 145.564 231.325 C 150.506 227.593, 157 220.078, 157 218.091 C 157 217.545, 158.543 214.038, 160.428 210.299 C 169.396 192.512, 170.377 188.771, 169.330 176.351 C 168.742 169.379, 168.339 168.192, 165.728 165.750 C 162.194 162.444, 158.639 162.281, 148.500 164.960" stroke="none" fill="black" fill-rule="evenodd"/>
</svg>