<svg xmlns="http://www.w3.org/2000/svg" width="300" height="300" viewBox="0 0 300 300" version="1.1">
	<path d="M 97.618 3.290 C 96.347 4.220, 95.944 5.636, 96.177 8.363 C 96.481 11.928, 96.817 12.272, 102 14.328 C 109.042 17.122, 109.547 19.357, 104.579 25.735 C 100.668 30.754, 100.164 32.742, 102.567 33.664 C 104.827 34.531, 108.514 32.262, 114.635 26.238 C 119.367 21.581, 120 20.480, 120 16.914 C 120 13.351, 119.353 12.223, 114.565 7.435 C 109.472 2.342, 108.824 2, 104.256 2 C 101.576 2, 98.588 2.580, 97.618 3.290 M 153 33 C 149.425 34.619, 145.894 35.957, 145.154 35.972 C 144.414 35.987, 142.614 36.821, 141.154 37.825 C 137.438 40.381, 119.594 49, 118.019 49 C 117.304 49, 114.870 49.852, 112.610 50.894 C 97.699 57.764, 58.362 70.472, 45.758 72.489 C 41.625 73.150, 40.225 75.778, 41.436 80.601 C 42.023 82.942, 42.459 83.153, 45.794 82.714 C 49.865 82.178, 58.605 79.912, 66.745 77.283 C 73.410 75.131, 74.779 76.103, 72.892 81.651 C 72.172 83.768, 71.251 85.966, 70.846 86.536 C 70.441 87.106, 70.124 93.191, 70.142 100.058 C 70.171 111.774, 69.338 117.451, 65.964 128.500 C 61.708 142.444, 60.141 147.990, 59.608 151 C 59.268 152.925, 58.273 155.850, 57.397 157.500 C 56.522 159.150, 55.161 162.975, 54.374 166 C 53.587 169.025, 51.831 173.875, 50.471 176.777 C 49.112 179.680, 48 182.627, 48 183.327 C 48 184.027, 47.634 185.028, 47.186 185.550 C 46.738 186.072, 44.445 191.225, 42.090 197 C 39.734 202.775, 37.420 208.400, 36.945 209.500 C 36.471 210.600, 35.578 213.484, 34.960 215.910 C 34.342 218.335, 33.249 221.260, 32.530 222.410 C 31.811 223.559, 30.691 226.300, 30.042 228.500 C 29.392 230.700, 28.488 233.400, 28.032 234.500 C 27.577 235.600, 26.461 238.300, 25.554 240.500 C 24.646 242.700, 23.475 245.281, 22.952 246.236 C 21.363 249.135, 21.775 256.976, 23.551 257.658 C 25.680 258.475, 29.299 254.845, 30.916 250.272 C 31.650 248.197, 34.199 242.379, 36.583 237.342 C 38.966 232.306, 41.222 226.906, 41.596 225.342 C 41.970 223.779, 42.583 222.050, 42.958 221.500 C 43.333 220.950, 44.216 218.475, 44.921 216 C 46.315 211.105, 48.962 204.332, 52.541 196.500 C 56.919 186.918, 57.927 184.455, 60.322 177.500 C 61.647 173.650, 63.456 168.475, 64.341 166 C 65.903 161.635, 67.943 154.903, 71.463 142.500 C 72.400 139.200, 73.579 135.719, 74.083 134.764 C 74.587 133.809, 75 132.527, 75 131.915 C 75 131.303, 75.649 129.384, 76.442 127.651 C 77.235 125.918, 78.123 121.575, 78.415 118 C 79.205 108.314, 81.048 82.128, 81.289 77.157 C 81.498 72.847, 81.544 72.797, 87.420 70.407 C 90.676 69.083, 93.887 68, 94.556 68 C 95.224 68, 97.060 67.328, 98.636 66.506 C 100.211 65.685, 102.452 65.010, 103.615 65.006 C 104.778 65.003, 106.803 64.200, 108.115 63.223 C 109.427 62.245, 112.300 60.840, 114.500 60.100 C 116.700 59.360, 119.175 58.214, 120 57.555 C 120.825 56.895, 123.525 55.727, 126 54.960 C 128.475 54.192, 135.225 51.238, 141 48.395 C 146.775 45.552, 153.300 42.915, 155.500 42.534 C 163.291 41.189, 168.121 33.137, 162.435 30.975 C 159.344 29.800, 160.714 29.506, 153 33 M 138.384 60.527 C 132.569 63.859, 132.236 64.258, 131.639 68.620 C 130.942 73.701, 131.208 74.506, 134.092 76.049 C 135.764 76.944, 136.565 76.554, 139.221 73.555 C 145.190 66.813, 147.551 69.169, 149.965 84.278 C 152.028 97.198, 152.411 101.609, 152.195 110 C 151.965 118.953, 149.253 135.629, 147.681 137.750 C 146.152 139.814, 143.271 139.177, 139.615 135.966 C 135.843 132.655, 134.286 133.323, 134.878 138 C 135.320 141.492, 136.785 142.979, 141.974 145.203 C 147.722 147.667, 151.693 146.956, 155.728 142.740 C 158.400 139.948, 159.013 138.256, 160.164 130.500 C 162.337 115.862, 161.087 80.943, 158.045 71.291 C 157.561 69.756, 156.900 67.283, 156.575 65.795 C 155.920 62.797, 150.867 58.466, 147 57.589 C 145.241 57.190, 142.687 58.061, 138.384 60.527 M 94.834 82.474 C 92.267 84.357, 89.874 86.821, 89.516 87.949 C 89.158 89.077, 88.498 90, 88.049 90 C 87.600 90, 86.999 91.013, 86.713 92.250 C 86.427 93.487, 85.724 95.986, 85.151 97.802 C 83.723 102.332, 86.167 103.282, 89.836 99.624 C 91.301 98.163, 94.355 95.400, 96.621 93.484 C 103.564 87.615, 105.499 88.876, 106.239 99.750 C 106.653 105.821, 106.483 107, 105.195 107 C 104.349 107, 102.818 106.240, 101.793 105.312 C 100.159 103.834, 99.466 103.786, 96.214 104.924 C 94.171 105.639, 90.613 108.043, 88.306 110.266 C 84.680 113.759, 84.189 114.727, 84.683 117.404 C 84.997 119.107, 85.884 121.170, 86.652 121.989 C 87.883 123.301, 88.629 123.152, 92.922 120.739 C 95.602 119.233, 98.502 118, 99.367 118 C 100.232 118, 101.911 116.686, 103.098 115.081 C 105.355 112.028, 108.689 111.873, 107.443 114.879 C 107.074 115.771, 106.604 119.790, 106.399 123.812 C 106.177 128.165, 105.415 131.998, 104.513 133.284 C 102.527 136.121, 102.567 140.620, 104.586 141.395 C 106.937 142.297, 113.090 136.754, 114.677 132.306 C 116.330 127.674, 116.614 92.214, 115.011 90.611 C 114.455 90.055, 114 88.893, 114 88.028 C 114 87.163, 112.617 84.778, 110.927 82.728 C 106.709 77.611, 101.571 77.530, 94.834 82.474 M 135.882 89.755 C 127.824 95.126, 125 97.394, 125 98.493 C 125 103.139, 126.451 109, 127.601 109 C 128.332 109, 130.468 107.650, 132.347 106 C 134.226 104.350, 136.776 103, 138.014 103 C 139.298 103, 141.709 101.468, 143.630 99.431 C 146.532 96.353, 146.843 95.561, 145.881 93.681 C 144.635 91.245, 141.033 88.054, 139.500 88.028 C 138.950 88.018, 137.322 88.796, 135.882 89.755 M 132.893 113.750 C 124.713 122.233, 122 125.887, 122 128.423 C 122 131.286, 119.505 136.437, 115.839 141.144 C 114.277 143.148, 113 145.316, 113 145.961 C 113 146.606, 111.875 148.608, 110.500 150.411 C 109.125 152.214, 108 154.025, 108 154.435 C 108 154.846, 106.425 157.022, 104.500 159.271 C 102.575 161.520, 101 163.899, 101 164.558 C 101 165.216, 100.278 166.355, 99.395 167.087 C 98.512 167.820, 96.096 170.913, 94.026 173.960 C 89.849 180.108, 86.246 184.555, 81 190.036 C 79.075 192.047, 74.642 196.696, 71.149 200.366 C 64.312 207.548, 62.280 209, 59.066 209 C 56.122 209, 53 212.513, 53 215.826 C 53 218.992, 56.597 223, 59.439 223 C 60.435 223, 65.725 218.613, 71.196 213.250 C 76.667 207.888, 82.584 202.125, 84.344 200.445 C 86.104 198.765, 89.265 195.044, 91.369 192.178 C 93.474 189.311, 96.051 186.508, 97.098 185.948 C 98.144 185.388, 99 184.326, 99 183.587 C 99 182.849, 99.719 181.648, 100.599 180.918 C 101.478 180.188, 104.155 176.593, 106.547 172.928 C 108.939 169.263, 112.349 165.042, 114.125 163.549 C 117.190 160.969, 117.704 160.868, 124.346 161.535 C 128.193 161.921, 132.723 162.634, 134.413 163.119 C 136.104 163.603, 138.883 164, 140.590 164 C 142.296 164, 145.088 164.696, 146.794 165.547 C 148.500 166.398, 152.660 167.540, 156.039 168.084 C 163.472 169.281, 172.065 171.467, 174.623 172.811 C 178.774 174.992, 190.731 180, 191.789 180 C 192.411 180, 193.950 181.071, 195.210 182.380 C 196.790 184.022, 199.114 184.962, 202.703 185.408 C 207.545 186.011, 208.134 185.844, 211.203 182.993 L 214.500 179.930 211.475 177.388 C 208.581 174.955, 199.182 171.101, 195.975 171.033 C 195.137 171.015, 189.645 168.975, 183.772 166.500 C 177.899 164.025, 171.918 162, 170.481 162 C 169.044 162, 166.921 161.493, 165.762 160.873 C 162.776 159.275, 150.344 156.352, 142.851 155.486 C 139.358 155.083, 135.466 154.361, 134.202 153.883 C 132.062 153.073, 126.013 153.907, 121.520 155.631 C 119.931 156.240, 119.793 155.960, 120.428 153.414 C 120.828 151.811, 121.796 149.790, 122.578 148.921 C 123.360 148.053, 124 146.885, 124 146.326 C 124 145.767, 124.897 144.498, 125.994 143.506 C 127.090 142.513, 129.770 138.397, 131.949 134.357 C 134.128 130.318, 136.885 125.997, 138.075 124.756 C 140.770 121.948, 143.949 115.232, 143.978 112.285 C 143.998 110.292, 141.487 108, 139.284 108 C 138.819 108, 135.942 110.588, 132.893 113.750 M 92.333 127.715 C 77.165 144.433, 75.806 147.069, 79.812 152.016 C 82.487 155.320, 85.015 153.972, 90.684 146.219 C 97.382 137.058, 99 134.362, 99 132.364 C 99 131.425, 99.718 129.864, 100.595 128.895 C 102.758 126.505, 102.995 120.675, 100.948 120.251 C 100.038 120.063, 96.475 123.149, 92.333 127.715 M 121.557 171.223 C 120.701 172.445, 119.993 174.132, 119.985 174.973 C 119.937 179.860, 113.851 191.646, 107.966 198.249 C 105.234 201.313, 103 204.691, 103 205.755 C 103 206.819, 104.068 208.932, 105.374 210.452 C 108.514 214.106, 110.110 213.497, 118.407 205.480 C 122.096 201.916, 125.539 199, 126.057 199 C 128.006 199, 126.882 203.146, 123.500 208.433 C 121.575 211.442, 120 214.221, 120 214.608 C 120 214.995, 118.902 216.751, 117.559 218.511 C 114.732 222.218, 110.986 232.667, 111.031 236.718 C 111.052 238.540, 111.963 240.157, 113.671 241.402 C 116.222 243.262, 116.356 243.263, 119.746 241.437 C 121.653 240.411, 123.600 238.655, 124.072 237.535 C 125.490 234.178, 127.381 232.294, 131.035 230.601 C 132.941 229.718, 136.525 227.884, 139 226.525 C 145.456 222.982, 149.621 222.347, 152.040 224.536 C 154.878 227.105, 154.823 238.269, 151.951 242.500 C 150.831 244.150, 149.317 246.850, 148.586 248.500 C 147.855 250.150, 145.175 253.685, 142.629 256.355 C 140.083 259.025, 138 261.658, 138 262.205 C 138 262.753, 136.015 265.293, 133.589 267.850 C 122.467 279.575, 109.101 292.828, 105 296.196 L 100.500 299.892 108.403 299.946 L 116.305 300 131.268 284.750 C 139.497 276.363, 148.242 266.897, 150.700 263.715 C 155.967 256.899, 164 241.592, 164 238.372 C 164 237.132, 164.450 235.840, 165 235.500 C 165.550 235.160, 166 232.910, 166 230.500 C 166 228.090, 165.550 225.840, 165 225.500 C 164.450 225.160, 163.982 223.896, 163.959 222.691 C 163.895 219.226, 158.975 214.386, 153.715 212.613 C 151.083 211.726, 148.383 211.003, 147.715 211.008 C 146.088 211.018, 135.264 216.788, 130.103 220.396 C 127.824 221.989, 125.733 223.066, 125.455 222.789 C 124.402 221.736, 127.937 211.241, 131.395 205.154 C 133.378 201.664, 135 197.755, 135 196.469 C 135 191.961, 133.172 188.984, 130.017 188.353 C 126.430 187.636, 126.334 187.116, 129.131 183.560 C 130.303 182.070, 131.480 178.921, 131.746 176.562 C 132.159 172.901, 131.887 172.035, 129.892 170.637 C 126.648 168.365, 123.398 168.593, 121.557 171.223" stroke="none" fill="black" fill-rule="evenodd"/>
</svg>