<svg xmlns="http://www.w3.org/2000/svg" width="300" height="300" viewBox="0 0 300 300" version="1.1">
	<path d="M 111.654 53.235 C 111.019 53.639, 108.643 53.976, 106.372 53.985 C 104.007 53.993, 101.732 54.618, 101.044 55.447 C 100.383 56.243, 97.740 57.671, 95.171 58.620 C 92.602 59.568, 90.050 60.643, 89.500 61.009 C 87.730 62.185, 77.599 65.853, 74.354 66.493 C 72.623 66.834, 70.494 67.902, 69.621 68.866 C 68.160 70.480, 68.256 70.882, 70.836 73.973 C 73.919 77.665, 73.207 77.686, 84.500 73.564 C 88.350 72.159, 91.641 71.007, 91.812 71.004 C 92.400 70.996, 91.181 92.491, 90.253 98.500 C 89.743 101.800, 88.530 106.525, 87.557 109 C 86.584 111.475, 85.561 114.967, 85.284 116.759 C 85.006 118.552, 84.379 120.266, 83.890 120.568 C 83.400 120.871, 83 121.769, 83 122.564 C 83 123.359, 81.875 126.342, 80.500 129.192 C 79.125 132.042, 78 134.891, 78 135.522 C 78 136.153, 76.425 139.906, 74.500 143.861 C 72.575 147.817, 71 151.296, 71 151.593 C 71 151.890, 69.875 153.608, 68.500 155.411 C 67.125 157.214, 66 159.173, 66 159.764 C 66 160.356, 63.300 163.540, 60 166.840 C 56.700 170.140, 54 173.310, 54 173.885 C 54 175.637, 58.032 177.209, 60.765 176.523 C 63.591 175.814, 72 167.834, 72 165.862 C 72 165.184, 72.842 163.700, 73.871 162.564 C 74.901 161.429, 77.433 157.125, 79.499 153 C 81.566 148.875, 83.953 144.150, 84.804 142.500 C 85.656 140.850, 86.653 138.825, 87.020 138 C 87.387 137.175, 88.208 135.494, 88.844 134.264 C 89.480 133.034, 90 131.207, 90 130.205 C 90 129.202, 90.661 127.509, 91.468 126.441 C 92.276 125.374, 92.951 123.337, 92.968 121.917 C 92.986 120.496, 93.308 119.025, 93.685 118.648 C 94.558 117.775, 96.965 110.906, 96.985 109.230 C 96.993 108.532, 98.125 106.178, 99.500 104 C 100.875 101.822, 102 98.961, 102 97.642 C 102 96.323, 102.699 93.571, 103.553 91.526 C 104.692 88.803, 105.002 85.427, 104.713 78.898 C 104.497 73.997, 104.023 69.690, 103.660 69.327 C 103.297 68.964, 103 67.842, 103 66.833 C 103 65.395, 103.776 65, 106.596 65 C 108.573 65, 111.509 64.222, 113.120 63.270 C 116.200 61.451, 118.653 62.089, 120.028 65.067 C 120.392 65.855, 121.154 67.418, 121.722 68.540 C 123.557 72.166, 124.065 80.306, 122.966 88.500 C 122.376 92.900, 121.636 98.871, 121.321 101.768 C 121.007 104.666, 120.356 107.280, 119.875 107.577 C 119.394 107.875, 119 109.471, 119 111.125 C 119 112.778, 118.467 115.114, 117.815 116.316 C 117.163 117.517, 116.374 120.038, 116.061 121.918 C 115.749 123.798, 114.939 125.520, 114.262 125.746 C 112.873 126.209, 107 120.214, 107 118.334 C 107 117.663, 106.013 116.422, 104.806 115.577 C 102.823 114.187, 102.439 114.198, 100.793 115.688 C 96.011 120.015, 106.218 137, 113.601 137 C 116.335 137, 121.955 131.978, 124.231 127.500 C 128.201 119.688, 131.894 99.678, 132.698 81.624 C 133.215 70.013, 131.709 64.625, 125.773 56.846 C 123.307 53.615, 122.395 53.152, 117.896 52.846 C 115.097 52.656, 112.288 52.831, 111.654 53.235 M 70 103.958 C 61.702 106.768, 61.493 106.918, 61.199 110.254 C 60.684 116.116, 62.640 116.679, 72.444 113.489 C 81.611 110.507, 85.362 107.588, 84.832 103.848 C 84.353 100.461, 80.236 100.492, 70 103.958 M 162.177 177.459 C 159.249 178.167, 156.346 179.254, 155.727 179.873 C 155.107 180.493, 153.932 181, 153.114 181 C 152.297 181, 150.636 181.933, 149.421 183.074 C 148.207 184.215, 145.854 185.902, 144.191 186.824 C 142.529 187.746, 138.544 190.300, 135.335 192.500 C 129.818 196.282, 129.107 196.497, 122.288 196.439 C 117.324 196.397, 114.518 195.900, 113.288 194.845 C 110.768 192.684, 100.940 188, 98.926 188 C 96.533 188, 94.725 190.557, 95.466 192.893 C 95.813 193.987, 98.702 197.271, 101.886 200.191 C 105.070 203.111, 108.522 206.850, 109.558 208.500 C 110.594 210.150, 113.053 213.525, 115.023 216 C 116.993 218.475, 119.541 222.525, 120.685 225 C 125.497 235.412, 124.446 237.645, 115.190 236.678 C 108.220 235.949, 102.480 233.415, 94.500 227.544 C 91.200 225.116, 86.875 221.957, 84.888 220.524 C 82.901 219.091, 79.639 217.653, 77.638 217.329 C 74.273 216.783, 74 216.924, 74 219.219 C 74 221.008, 76.339 224.001, 82.381 229.942 C 89.250 236.696, 92.341 238.913, 99.509 242.229 C 106.757 245.582, 109.476 246.318, 115.378 246.525 C 125.470 246.879, 129.057 245.756, 132.826 241.067 C 136.074 237.025, 136.772 234.595, 135 233.500 C 134.450 233.160, 134 231.283, 134 229.329 C 134 226.487, 132.797 224.269, 128 218.259 C 124.700 214.125, 122 210.434, 122 210.057 C 122 208.900, 130.050 205, 132.436 205 C 133.672 205, 139.813 201.580, 146.083 197.401 C 159.566 188.413, 161.359 187.458, 166.123 186.725 C 168.695 186.329, 170.659 186.723, 172.897 188.084 C 174.630 189.138, 176.657 190, 177.402 190 C 178.146 190, 179.315 190.675, 180 191.500 C 180.685 192.325, 181.895 193, 182.690 193 C 184.025 193, 187.024 195.169, 195.480 202.250 C 199.815 205.880, 201.377 205.721, 203.932 201.390 C 205.701 198.392, 205.845 197.509, 204.781 196.180 C 202.371 193.171, 196.979 188.774, 193.239 186.767 C 183.581 181.588, 176.239 178.215, 173.500 177.702 C 171.850 177.393, 169.825 176.922, 169 176.656 C 168.175 176.389, 165.105 176.751, 162.177 177.459 M 41.174 197.290 C 40.585 198, 39.866 203.004, 39.576 208.412 C 39.135 216.628, 38.540 219.332, 35.956 224.872 C 34.256 228.517, 32.442 232.175, 31.926 233 C 31.410 233.825, 30.689 235.175, 30.325 236 C 28.630 239.841, 23.751 246, 22.404 246 C 20.234 246, 16 250.923, 16 253.446 C 16 258.081, 21.236 259.480, 26.239 256.181 C 29.623 253.949, 39.414 241.737, 41.617 237 C 42.512 235.075, 43.639 232.719, 44.122 231.764 C 44.605 230.809, 45 229.044, 45 227.842 C 45 226.641, 45.582 224.947, 46.293 224.079 C 50.506 218.936, 51.934 199.929, 48.309 197.250 C 46.117 195.630, 42.535 195.650, 41.174 197.290" stroke="none" fill="black" fill-rule="evenodd"/>
</svg>