<svg xmlns="http://www.w3.org/2000/svg" width="300" height="300" viewBox="0 0 300 300" version="1.1">
	<path d="M 111.250 26.652 C 109.765 27.264, 109.563 33.612, 111 34.500 C 111.550 34.840, 112 36.351, 112 37.859 C 112 39.367, 112.510 41.110, 113.133 41.733 C 115.013 43.613, 113.450 45.556, 108.557 47.425 C 102.682 49.669, 99.226 48.919, 98.466 45.235 C 96.318 34.833, 93.823 31, 89.200 31 C 83.980 31, 82.468 35.012, 85.866 39.846 C 86.892 41.306, 87.975 43.850, 88.273 45.500 C 88.570 47.150, 89.119 49.462, 89.494 50.638 C 90.064 52.428, 89.279 53.372, 84.678 56.425 C 78.728 60.375, 75.523 64.315, 76.401 66.603 C 77.423 69.267, 80.080 69.274, 84.941 66.628 C 89.915 63.922, 93.446 63.295, 94.462 64.938 C 94.781 65.454, 95.444 69.392, 95.937 73.688 C 96.430 77.985, 97.115 83.410, 97.461 85.744 C 98.078 89.914, 98.012 90.037, 93.611 92.827 C 91.149 94.389, 86.066 96.492, 82.317 97.500 C 78.568 98.509, 73.925 100.284, 72 101.445 C 70.075 102.606, 67.150 104.250, 65.500 105.098 C 63.151 106.305, 62.543 107.241, 62.700 109.408 C 62.963 113.041, 64.688 115, 67.622 115 C 70.600 115, 70.639 116.731, 67.750 120.712 C 66.513 122.418, 64.825 124.814, 64 126.037 C 63.175 127.260, 59.125 132.304, 55 137.246 C 50.875 142.188, 45.332 148.904, 42.681 152.171 C 40.031 155.438, 33.394 162.636, 27.931 168.168 C 22.469 173.699, 18 179.024, 18 180.002 C 18 180.979, 18.877 182.841, 19.948 184.139 L 21.896 186.500 26.198 184.107 C 28.564 182.791, 35.900 178.928, 42.500 175.522 C 49.100 172.117, 56.750 167.924, 59.500 166.205 C 62.250 164.485, 66.750 161.911, 69.500 160.484 C 72.250 159.057, 76.075 156.939, 78 155.778 C 79.925 154.617, 83.317 152.681, 85.538 151.475 C 87.759 150.268, 90.560 148.667, 91.763 147.916 C 95.912 145.325, 96.306 147.757, 93.656 159.598 C 92.314 165.594, 90.900 172.862, 90.514 175.749 C 90.128 178.636, 89.405 181.250, 88.906 181.558 C 88.408 181.866, 88 183.132, 88 184.372 C 88 185.611, 86.875 188.958, 85.500 191.808 C 84.125 194.658, 83 197.589, 83 198.321 C 83 199.053, 81.856 200.726, 80.458 202.039 C 76.893 205.389, 77.521 208.406, 81.870 208.822 C 84.455 209.070, 85.911 208.502, 88.120 206.385 C 89.704 204.868, 91 202.675, 91 201.513 C 91 200.351, 91.423 198.972, 91.941 198.450 C 93.734 196.639, 99 179.185, 99 175.053 C 99 172.769, 99.643 169.657, 100.429 168.137 C 101.215 166.617, 102.175 162.579, 102.561 159.164 C 102.947 155.749, 103.654 152.714, 104.132 152.419 C 104.609 152.123, 105.022 150.446, 105.048 148.691 C 105.130 143.240, 108.049 138.889, 114 135.350 C 119.954 131.808, 122.269 131.303, 123.628 133.250 C 124.107 133.938, 124.366 141.832, 124.202 150.793 C 123.904 167.048, 123.898 167.088, 121.452 168.018 C 117.979 169.339, 118.518 175.043, 122.851 182.818 C 124.058 184.984, 124.983 211.815, 125.391 256.482 L 125.500 268.464 122.882 269.723 C 118.932 271.623, 118.411 276.904, 121.560 283.119 C 122.921 285.804, 124.427 288, 124.908 288 C 125.390 288, 126.070 289.144, 126.421 290.543 C 127.253 293.855, 129.422 294.609, 132.437 292.633 L 134.858 291.047 134.659 244.542 C 134.450 195.636, 134.464 195.481, 138.728 197.868 C 139.584 198.347, 141.233 198.510, 142.392 198.232 C 144.651 197.688, 150.794 193.559, 152.593 191.374 C 153.195 190.644, 156.795 186.597, 160.593 182.382 C 164.392 178.166, 167.861 173.778, 168.303 172.629 C 168.744 171.481, 169.720 169.857, 170.472 169.021 C 172.800 166.430, 180 152.176, 180 150.157 C 180 149.105, 180.713 146.539, 181.584 144.454 C 182.455 142.369, 183.219 137.702, 183.283 134.082 C 183.458 124.063, 179.784 119.004, 169.808 115.530 C 164.679 113.743, 153.020 113.573, 144 115.154 C 132.884 117.103, 132.665 117.055, 131.814 112.500 C 131.403 110.300, 130.845 101.655, 130.572 93.290 C 130.038 76.855, 130.034 76.870, 135.795 69 C 143.659 58.256, 144.130 57.197, 142.968 52.882 C 141.473 47.327, 137.144 44.695, 130.792 45.478 C 126.651 45.988, 125.905 45.783, 124.602 43.779 C 123.787 42.525, 122.821 39.222, 122.456 36.438 C 122.091 33.654, 121.051 30.436, 120.146 29.287 C 118.479 27.171, 113.540 25.708, 111.250 26.652 M 107.643 57.701 L 103.786 59.299 104.368 65.400 C 105.403 76.257, 106.583 82.983, 107.636 84.036 C 108.949 85.349, 112 84.217, 112 82.416 C 112 81.663, 113.185 80.270, 114.633 79.321 C 117.259 77.600, 117.265 77.568, 116.600 68.110 C 115.718 55.560, 114.954 54.672, 107.643 57.701 M 125.667 56.667 C 125.300 57.033, 125 58.383, 125 59.667 C 125 62.324, 127.998 62.912, 129.895 60.627 C 132.133 57.929, 128.142 54.191, 125.667 56.667 M 112.898 100.754 C 108.986 104.403, 108.852 104.747, 108.090 113.114 C 107.658 117.847, 107.517 123.160, 107.775 124.920 C 108.318 128.618, 108.833 128.547, 116.222 123.759 L 121.141 120.572 120.446 109.536 C 120.064 103.466, 119.556 98.162, 119.317 97.750 C 118.473 96.294, 116.880 97.040, 112.898 100.754 M 90.002 110.900 C 86.089 111.422, 85.290 111.955, 83.852 115 C 82.942 116.925, 81.029 119.591, 79.599 120.924 C 78.170 122.258, 77 123.857, 77 124.479 C 77 125.101, 75.404 127.352, 73.453 129.482 C 71.502 131.612, 66.570 137.437, 62.494 142.427 C 58.417 147.417, 53.488 153.269, 51.541 155.432 C 46.467 161.065, 46.771 164.090, 52 160 C 53.375 158.924, 54.785 158.034, 55.134 158.022 C 56.401 157.978, 92.557 137.137, 94.619 135.263 C 96.414 133.631, 96.849 131.716, 97.462 122.723 C 98.189 112.044, 97.884 109.874, 95.691 110.150 C 95.036 110.233, 92.476 110.570, 90.002 110.900 M 141.660 125.442 C 133.402 126.938, 132.913 127.901, 133.550 141.422 C 133.838 147.515, 134.247 159.184, 134.459 167.354 C 134.817 181.101, 135.014 182.386, 137.097 184.604 C 141.080 188.842, 141.647 188.530, 152.701 176 C 154.884 173.525, 156.975 170.825, 157.346 170 C 157.718 169.175, 158.903 167.150, 159.981 165.500 C 161.058 163.850, 162.691 161.150, 163.609 159.500 C 164.528 157.850, 165.558 156.275, 165.899 156 C 166.794 155.278, 171.778 140.156, 172.539 135.855 C 173.900 128.154, 168.854 124.692, 156 124.507 C 151.325 124.440, 144.872 124.861, 141.660 125.442" stroke="none" fill="black" fill-rule="evenodd"/>
</svg>