<svg xmlns="http://www.w3.org/2000/svg" width="300" height="300" viewBox="0 0 300 300" version="1.1">
	<path d="M 184.062 30.265 C 180.999 31.816, 178.331 40.881, 180.012 44.022 C 181.319 46.464, 183.729 46.555, 186.267 44.259 C 188.107 42.593, 188.276 42.623, 190.153 44.940 C 191.684 46.831, 191.971 48.211, 191.462 51.225 C 190.108 59.241, 178.104 79, 174.588 79 C 170.475 79, 168.605 87.280, 167.443 110.645 C 166.628 127.021, 167.298 131.786, 170.531 132.597 C 173.621 133.373, 180.630 129.527, 188.892 122.523 C 195.898 116.583, 203.225 113.980, 207.098 116.052 C 209.978 117.594, 213.519 126.397, 214.845 135.314 C 216.464 146.204, 216.317 172.915, 214.589 181.500 C 212.102 193.860, 208.878 205.361, 206.407 210.688 C 205.083 213.542, 204 216.495, 204 217.251 C 204 219.856, 198.568 224, 195.152 224 C 190.902 224, 183.167 216.883, 179.612 209.700 C 178.196 206.840, 176.132 203.150, 175.025 201.500 C 173.919 199.850, 173.010 197.745, 173.007 196.823 C 173.003 195.900, 171.875 194.260, 170.500 193.179 C 169.125 192.097, 168 190.708, 168 190.093 C 168 189.061, 166.985 186.785, 164.838 183 C 164.370 182.175, 163.733 180.825, 163.421 180 C 162.074 176.428, 161.140 175.500, 158.891 175.500 C 156.760 175.500, 156.468 176, 156.202 180.088 C 155.993 183.294, 156.370 185.062, 157.452 185.960 C 158.303 186.667, 159 187.632, 159 188.105 C 159 188.578, 161.025 193.184, 163.500 198.341 C 165.975 203.497, 168 208.041, 168 208.438 C 168 208.836, 169.575 211.534, 171.500 214.434 C 173.425 217.334, 175 220.143, 175 220.676 C 175 221.209, 177.813 224.099, 181.250 227.098 C 193.636 237.906, 196.145 238.446, 204.393 232.083 C 207.477 229.704, 210 227.314, 210 226.773 C 210 226.233, 211.350 223.790, 213 221.345 C 214.650 218.900, 216 215.827, 216 214.515 C 216 213.203, 216.512 210.863, 217.137 209.315 C 218.229 206.610, 219.141 202.678, 220.918 193 C 221.373 190.525, 222.301 187.024, 222.981 185.219 C 223.661 183.415, 223.967 180.983, 223.662 179.816 C 223.357 178.649, 223.783 176.386, 224.610 174.788 C 225.868 172.355, 226.011 168.526, 225.491 151.283 C 225.102 138.386, 224.367 129.154, 223.526 126.592 C 222.787 124.341, 221.904 121.143, 221.563 119.484 C 220.248 113.078, 210.870 106, 203.699 106 C 197.510 106, 187.351 110.121, 182.433 114.626 C 179.009 117.761, 175.974 119.003, 176.020 117.250 C 176.030 116.838, 176.644 113.071, 177.383 108.880 C 178.298 103.687, 178.487 98.592, 177.976 92.880 C 177.187 84.059, 177.338 83, 179.385 83 C 180.081 83, 181.708 81.875, 183 80.500 C 184.292 79.125, 185.857 78, 186.478 78 C 187.726 78, 194 71.858, 194 70.636 C 194 70.213, 195.125 68.392, 196.500 66.589 C 197.875 64.786, 199 62.656, 199 61.856 C 199 61.055, 199.469 59.931, 200.043 59.357 C 200.617 58.783, 201.180 54.080, 201.293 48.907 C 201.476 40.584, 201.231 39.068, 199.168 35.749 C 195.110 29.223, 189.872 27.321, 184.062 30.265 M 141.450 32.948 C 140.928 33.469, 138.367 35.053, 135.761 36.468 C 124.274 42.702, 122.303 43.832, 118.965 46.099 C 117.020 47.420, 109.708 51.399, 102.715 54.942 C 91.084 60.834, 90 61.618, 90 64.127 C 90 67.952, 91.545 71.612, 93.473 72.351 C 95.453 73.111, 107.696 67.111, 110.498 64.008 C 112.306 62.004, 117.077 59, 118.450 59 C 119.228 59, 119.135 62.531, 118.336 63.330 C 117.070 64.596, 114 74.438, 114 77.230 C 114 78.774, 112.763 82.391, 111.250 85.268 C 108.098 91.265, 107.878 96.255, 109.809 118 C 110.420 124.875, 111.155 133.425, 111.443 137 C 111.741 140.693, 111.089 151.265, 109.932 161.483 C 108.555 173.655, 108.237 179.579, 108.949 179.816 C 109.527 180.009, 110 180.818, 110 181.615 C 110 182.411, 110.787 183.341, 111.750 183.680 C 112.713 184.020, 114.490 185.188, 115.699 186.275 C 117.118 187.551, 118.714 188.059, 120.199 187.708 C 123.383 186.954, 129.196 184.685, 131 183.492 C 131.825 182.946, 134.244 182.500, 136.376 182.500 C 139.207 182.500, 140.555 181.962, 141.376 180.504 C 141.994 179.407, 143.290 177.309, 144.255 175.843 C 145.787 173.517, 146.028 170.268, 146.160 150.245 C 146.242 137.631, 145.990 126.793, 145.599 126.160 C 145.208 125.527, 144.651 120.038, 144.363 113.963 C 144.050 107.381, 143.267 101.822, 142.425 100.208 C 141.648 98.719, 141.010 96.933, 141.006 96.239 C 140.994 93.689, 136.689 85.904, 134.704 84.841 C 133.578 84.239, 130.035 83.806, 126.829 83.878 C 120.674 84.017, 120.103 83.568, 122.468 80.441 C 123.276 79.374, 123.953 77.375, 123.974 76 C 123.995 74.625, 124.685 72.211, 125.506 70.636 C 126.328 69.060, 127 66.986, 127 66.026 C 127 65.067, 128.546 62.328, 130.435 59.941 C 132.979 56.725, 133.737 54.933, 133.356 53.029 C 132.924 50.868, 133.506 50.024, 137.011 47.729 C 139.304 46.228, 141.844 45, 142.655 45 C 145.243 45, 148.066 42.957, 149.048 40.374 C 150.962 35.340, 144.946 29.460, 141.450 32.948 M 65 53.738 C 63.075 53.968, 60.013 55.288, 58.195 56.671 C 55.361 58.827, 54.934 59.706, 55.195 62.843 L 55.500 66.500 61.197 66.531 C 64.331 66.548, 67.175 66.841, 67.517 67.183 C 68.974 68.640, 65.440 75.998, 60.949 80.857 C 49.006 93.779, 48.003 95.346, 47.965 101.139 C 47.945 104.087, 47.286 107.625, 46.500 109 C 45.714 110.375, 45.055 112.936, 45.035 114.691 C 45.016 116.446, 44.609 118.124, 44.131 118.419 C 43.653 118.714, 43.212 121.201, 43.150 123.944 C 43.062 127.840, 43.551 129.529, 45.383 131.659 L 47.729 134.386 53.114 129.834 C 59.259 124.640, 62.798 123.448, 67.483 124.995 C 69.993 125.823, 70.911 126.804, 71.383 129.164 C 72.270 133.599, 72.040 142.695, 70.893 148.500 C 70.350 151.250, 69.485 155.975, 68.970 159 C 66.478 173.640, 65.137 179.009, 62.475 185 C 58.592 193.741, 56.606 197.298, 55.381 197.706 C 54.260 198.080, 36.375 180.718, 25.881 169.068 C 19.267 161.727, 17 160.800, 17 165.437 C 17 169.356, 19.587 174.240, 25.521 181.524 C 34.350 192.362, 53.922 212, 55.894 212 C 58.822 212, 66 204.683, 66 201.698 C 66 200.263, 67.136 197.414, 68.525 195.368 C 69.914 193.321, 71.320 190.488, 71.649 189.073 C 71.978 187.658, 73.055 184.025, 74.042 181 C 75.951 175.149, 77.890 165.455, 78.141 160.500 C 78.225 158.850, 78.944 155.475, 79.738 153 C 80.533 150.525, 81.413 143.485, 81.695 137.356 C 82.188 126.650, 82.104 126.034, 79.559 121.691 C 78.102 119.204, 76.268 116.637, 75.483 115.986 C 73.093 114.002, 66.888 113.081, 62.068 113.993 C 59.556 114.468, 57.158 114.524, 56.739 114.118 C 56.320 113.711, 56.872 110.705, 57.964 107.439 C 59.057 104.173, 59.962 100.438, 59.975 99.140 C 59.990 97.720, 62.040 94.549, 65.124 91.174 C 67.942 88.091, 71.299 83.903, 72.583 81.868 C 73.868 79.833, 75.387 77.879, 75.959 77.525 C 76.532 77.171, 77 75.810, 77 74.500 C 77 73.190, 77.450 71.840, 78 71.500 C 78.550 71.160, 79 68.788, 79 66.229 C 79 62.108, 78.519 61.085, 74.792 57.288 C 72.477 54.930, 70.115 53.072, 69.542 53.160 C 68.969 53.248, 66.925 53.508, 65 53.738 M 125.413 97.750 C 125.124 98.713, 123.788 101.591, 122.444 104.147 C 120.187 108.439, 120 109.875, 120 122.897 C 120 130.945, 120.400 137, 120.932 137 C 121.444 137, 122.891 135.557, 124.147 133.794 C 126.985 129.808, 132.120 125.068, 133.643 125.029 C 135.433 124.983, 135.957 122.508, 135.391 116.781 C 134.756 110.361, 132.026 98.965, 130.712 97.250 C 129.308 95.416, 126.019 95.727, 125.413 97.750 M 130.780 142.132 C 128.347 144.864, 127.649 145.116, 124.164 144.528 L 120.268 143.869 119.564 154.685 C 118.239 175.039, 118.065 173.458, 121.676 173.808 C 125.616 174.190, 132.395 170.854, 134.639 167.428 C 135.905 165.496, 136.416 161.763, 136.760 151.941 C 137.183 139.828, 137.094 139.002, 135.356 139.039 C 134.335 139.060, 132.276 140.452, 130.780 142.132" stroke="none" fill="black" fill-rule="evenodd"/>
</svg>