<svg xmlns="http://www.w3.org/2000/svg" width="300" height="300" viewBox="0 0 300 300" version="1.1">
	<path d="M 149.164 41.878 C 148.233 42.467, 147.759 45.564, 147.602 52.071 L 147.377 61.417 141.939 64.111 C 138.947 65.593, 134.594 67.369, 132.264 68.058 C 126.549 69.748, 124.624 72.009, 125.500 76 C 125.879 77.725, 126.870 79.397, 127.703 79.716 C 129.652 80.464, 139.712 77.315, 143.154 74.879 C 147.702 71.660, 148.102 72.253, 147.441 81.250 C 147.108 85.787, 146.577 90.175, 146.261 91 C 145.946 91.825, 145.331 94.975, 144.895 98 C 142.968 111.378, 143.092 111.165, 134.610 115.612 C 128.903 118.604, 117.830 125.957, 116.765 127.461 C 115.481 129.276, 115.941 132.705, 117.771 134.965 L 119.541 137.152 125.021 135.009 C 128.034 133.830, 132.014 131.321, 133.864 129.433 C 135.714 127.545, 137.749 126, 138.386 126 C 139.023 126, 141.140 124.685, 143.089 123.078 C 148.261 118.815, 149.767 120.133, 148.025 127.395 C 146.941 131.914, 146.913 135.711, 147.873 147.726 C 148.523 155.852, 149.093 164.300, 149.140 166.500 C 149.406 178.858, 149.082 196.248, 148.493 201.246 C 147.912 206.173, 148.064 207.087, 149.561 207.662 C 150.799 208.137, 152.282 207.269, 154.654 204.681 C 157.821 201.225, 158 200.632, 158 193.596 C 158 186.217, 158.033 186.125, 162.563 180.832 C 165.073 177.899, 167.870 173.925, 168.778 172 C 170.250 168.883, 176.139 160.286, 184.876 148.500 C 186.507 146.300, 188.152 143.258, 188.532 141.741 C 188.911 140.223, 189.622 138.734, 190.111 138.432 C 191.562 137.535, 191.122 131.346, 189.513 130.011 C 187.483 128.326, 185.175 129.408, 183.955 132.618 C 183.090 134.894, 177.801 142.431, 175.968 144 C 174.535 145.227, 164.229 158.226, 161.686 162.014 C 160.139 164.320, 158.632 165.965, 158.338 165.672 C 157.834 165.167, 157.286 154.600, 156.642 133 C 156.484 127.666, 155.770 122.290, 155.015 120.740 C 153.793 118.232, 153.883 117.753, 156.009 115.490 C 157.296 114.121, 158.738 113, 159.215 113 C 159.691 113, 161.300 112.155, 162.790 111.122 C 170.446 105.815, 175.271 102.993, 176.800 102.927 C 179.039 102.831, 184.064 99.845, 185.309 97.873 C 186.839 95.446, 185.255 91.047, 182.469 89.988 C 180.400 89.202, 178.985 89.700, 173.842 93.024 C 170.458 95.211, 167.285 97, 166.790 97 C 166.295 97, 163.240 98.800, 160 101 C 151.869 106.522, 151.073 106.405, 153.110 99.993 C 154.606 95.284, 155.936 87.721, 156.496 80.741 C 156.750 77.574, 157.642 73.659, 158.479 72.041 C 159.315 70.423, 160 68.500, 160 67.767 C 160 67.035, 162.475 64.030, 165.500 61.090 C 171.457 55.300, 171.777 54.403, 169.474 49.950 C 167.524 46.179, 165.598 46.222, 162.039 50.118 C 158.538 53.952, 157 53.196, 157 47.641 C 157 45.308, 156.460 42.860, 155.800 42.200 C 154.412 40.812, 151.099 40.651, 149.164 41.878 M 69.571 56.571 C 67.735 58.407, 67.553 61.297, 69.092 64.172 C 70.806 67.375, 70.486 73.882, 68.239 81.500 C 67.104 85.350, 65.383 91.334, 64.415 94.798 C 63.446 98.262, 62.282 101.326, 61.827 101.607 C 61.372 101.888, 61 102.914, 61 103.887 C 61 105.646, 56.847 116.922, 54.979 120.236 C 54.440 121.191, 54 122.789, 54 123.786 C 54 124.784, 53.614 126.028, 53.142 126.550 C 52.670 127.073, 50.361 131.100, 48.011 135.500 C 45.660 139.900, 42.896 144.573, 41.868 145.885 C 39.558 148.833, 39.321 155.802, 41.502 156.639 C 42.328 156.956, 44.166 156.924, 45.586 156.568 C 47.625 156.056, 48.987 154.171, 52.068 147.595 C 54.214 143.016, 56.651 138.704, 57.485 138.013 C 58.318 137.321, 59 136.129, 59 135.364 C 59 134.599, 59.422 133.191, 59.938 132.236 C 62.226 128, 66 119.004, 66 117.784 C 66 117.048, 66.630 115.545, 67.400 114.446 C 68.170 113.346, 70.001 108.859, 71.468 104.473 C 72.934 100.088, 74.554 96.073, 75.067 95.550 C 75.580 95.028, 76 93.592, 76 92.359 C 76 91.126, 76.450 89.840, 77 89.500 C 77.550 89.160, 78 87.165, 78 85.067 C 78 82.968, 78.630 79.465, 79.401 77.281 C 80.172 75.097, 80.954 70.346, 81.141 66.724 C 81.441 60.884, 81.206 59.848, 79.065 57.570 C 76.307 54.633, 71.966 54.177, 69.571 56.571 M 73.324 128.203 C 72.161 129.466, 70.975 132.300, 70.689 134.500 C 69.997 139.805, 67.689 148.645, 66.749 149.584 C 66.337 149.996, 66 151.182, 66 152.220 C 66 153.257, 64.875 155.762, 63.500 157.785 C 62.125 159.809, 61 162.233, 61 163.173 C 61 164.113, 60.550 165.160, 60 165.500 C 59.450 165.840, 58.998 166.879, 58.996 167.809 C 58.994 168.739, 57.453 171.975, 55.573 175 C 53.692 178.025, 50.779 183.341, 49.099 186.814 C 47.420 190.286, 45.112 194.438, 43.972 196.039 C 42.333 198.341, 41.962 200.160, 42.199 204.725 L 42.500 210.500 49.708 210.557 C 59.026 210.630, 61.200 212.259, 60.342 218.522 C 59.835 222.223, 60.050 222.957, 61.942 223.969 C 63.800 224.963, 64.645 224.745, 67.564 222.519 C 70.288 220.442, 71 219.195, 71 216.508 C 71 214.644, 70.550 212.840, 70 212.500 C 69.450 212.160, 69 210.739, 69 209.341 C 69 205.691, 63.043 200, 59.222 200 C 55.239 200, 53.664 198.015, 54.954 194.622 C 55.502 193.180, 56.423 192, 57 192 C 57.577 192, 58.487 190.850, 59.021 189.445 C 60.603 185.285, 65.726 174.316, 72.073 161.500 C 76.110 153.350, 78.014 148.316, 78.008 145.809 C 78.004 143.779, 78.450 141.840, 79 141.500 C 79.550 141.160, 80 139.874, 80 138.641 C 80 137.408, 80.453 135.947, 81.008 135.392 C 81.562 134.838, 82.124 132.611, 82.258 130.442 C 82.494 126.600, 82.411 126.492, 78.969 126.203 C 76.319 125.980, 74.910 126.479, 73.324 128.203 M 112.370 170.169 C 111.903 170.901, 111.511 176.006, 111.498 181.514 C 111.479 190.061, 111.148 192.084, 109.238 195.322 C 108.007 197.408, 107 200.241, 107 201.619 C 107 204.039, 103.870 211.763, 99.956 219 C 98.915 220.925, 96.880 224.844, 95.434 227.708 C 93.988 230.573, 92.174 233.441, 91.403 234.081 C 90.631 234.721, 90 235.588, 90 236.007 C 90 238.901, 73.792 263.180, 62.750 276.828 C 60.688 279.378, 59 282.002, 59 282.660 C 59 284.204, 61.796 287.004, 63.321 286.988 C 65.127 286.968, 73 279.284, 73 277.540 C 73 276.693, 73.386 276, 73.858 276 C 74.330 276, 77.368 272.382, 80.608 267.959 C 83.849 263.536, 88.075 257.799, 89.999 255.209 C 91.924 252.619, 94.174 249.356, 94.999 247.959 C 95.825 246.561, 98.075 242.798, 100 239.597 C 106.448 228.876, 109.905 222.510, 109.953 221.269 C 110.027 219.346, 116.966 208.950, 118.592 208.326 C 119.394 208.019, 121.726 208.957, 123.775 210.412 C 131.852 216.147, 134.582 218.208, 136.564 220.065 C 137.700 221.129, 139.189 222, 139.873 222 C 141.103 222, 149.209 227.860, 149.812 229.185 C 149.983 229.562, 152.458 231.343, 155.312 233.142 C 158.165 234.941, 162.346 237.895, 164.603 239.707 C 166.860 241.518, 169.045 243, 169.459 243 C 169.873 243, 171.548 244.125, 173.182 245.500 C 174.816 246.875, 176.692 248, 177.350 248 C 178.007 248, 181.010 249.636, 184.023 251.636 C 189.550 255.305, 194.348 258.083, 203.500 262.917 C 206.250 264.370, 210.525 266.915, 213 268.573 C 215.475 270.230, 218.625 272.160, 220 272.860 C 224.434 275.119, 228.408 277.478, 232.482 280.271 C 234.672 281.772, 236.893 283, 237.416 283 C 237.940 283, 240.311 283.940, 242.684 285.089 C 246.841 287.101, 248.114 289.193, 245.984 290.510 C 244.656 291.330, 245.713 293, 247.559 293 C 248.352 293, 249.889 293.889, 250.975 294.975 C 255.668 299.668, 263.248 298.184, 263.772 292.469 C 264.136 288.496, 260.871 283.435, 257.379 282.559 C 255.833 282.171, 252.528 280.424, 250.034 278.677 C 243.627 274.188, 242.024 273.220, 237.500 271.106 C 235.300 270.078, 230.575 267.385, 227 265.121 C 223.425 262.857, 217.734 259.643, 214.353 257.979 C 210.972 256.314, 207.654 254.288, 206.980 253.476 C 206.306 252.664, 205.203 252, 204.528 252 C 203.852 252, 201.436 250.650, 199.159 249 C 196.881 247.350, 194.473 246, 193.808 246 C 193.143 246, 188.302 243.223, 183.050 239.829 C 177.797 236.435, 170.892 232.048, 167.705 230.079 C 164.517 228.111, 159.117 224.250, 155.705 221.500 C 152.292 218.750, 148.773 216.050, 147.885 215.500 C 141.734 211.692, 135.208 206.963, 133.595 205.146 C 132.547 203.966, 131.170 203, 130.534 203 C 129.898 203, 128.480 202.213, 127.384 201.250 C 126.288 200.287, 124.515 198.996, 123.445 198.381 C 121.668 197.358, 121.526 196.278, 121.796 185.881 C 122.050 176.128, 121.835 174.187, 120.296 172.311 C 118.033 169.552, 113.537 168.337, 112.370 170.169" stroke="none" fill="black" fill-rule="evenodd"/>
</svg>