<svg xmlns="http://www.w3.org/2000/svg" width="300" height="300" viewBox="0 0 300 300" version="1.1">
	<path d="M 118.327 2.363 C 116.772 3.663, 113.700 5.651, 111.500 6.781 C 109.300 7.911, 105.251 10.447, 102.503 12.418 C 99.755 14.388, 97.012 16, 96.408 16 C 94.425 16, 92.084 19.509, 92.357 22.072 C 93.089 28.933, 96.372 28.751, 107.180 21.249 C 111.274 18.407, 115 17.075, 115 18.453 C 115 19.729, 112.566 24, 111.839 24 C 110.606 24, 110.876 29.597, 112.467 37 C 113.788 43.142, 113.756 43.616, 111.893 45.606 C 108.988 48.710, 99.944 53, 96.307 53 C 92.043 53, 90 55.298, 90 60.093 C 90 63.339, 90.447 64.246, 92.509 65.186 C 94.260 65.984, 95.694 66.021, 97.259 65.311 C 104.802 61.885, 108.820 59.875, 111.210 58.334 C 112.700 57.372, 114.137 56.804, 114.403 57.070 C 114.670 57.336, 114.452 62.190, 113.918 67.855 C 113.198 75.513, 112.230 79.739, 110.148 84.328 C 107.052 91.147, 101.483 96.753, 96.894 97.671 C 93.698 98.310, 90 102.644, 90 105.749 C 90 106.817, 90.888 108.493, 91.973 109.475 C 94.673 111.919, 98.181 111.078, 110.740 104.976 C 116.371 102.239, 121.703 100, 122.588 100 C 123.474 100, 125.616 99.368, 127.349 98.596 C 129.082 97.824, 132.713 96.475, 135.417 95.600 C 138.122 94.724, 141.159 93.261, 142.167 92.349 C 144.548 90.194, 144.550 84.808, 142.171 82.655 C 139.620 80.346, 136.152 80.588, 130.452 83.474 C 127.765 84.835, 124.651 86.072, 123.533 86.224 C 121.230 86.537, 121.198 85.966, 122.989 76.500 C 123.613 73.200, 124.658 65.196, 125.312 58.714 C 126.498 46.951, 126.507 46.921, 130 44.249 C 131.925 42.775, 133.831 41.104, 134.235 40.535 C 135.554 38.677, 135.039 35.345, 133.171 33.655 C 130.898 31.598, 128.626 31.541, 127 33.500 C 126.315 34.325, 124.880 35, 123.810 35 C 122.024 35, 121.892 34.368, 122.183 27.250 L 122.500 19.500 119.750 19.184 C 118.237 19.010, 117 18.399, 117 17.827 C 117 16.224, 122.866 11.839, 129.105 8.778 C 131.551 7.578, 137 1.937, 137 0.606 C 137 0.273, 133.435 0, 129.077 0 C 122.211 0, 120.776 0.316, 118.327 2.363 M 185.500 118.869 C 175.914 122.710, 172.284 124.006, 166.803 125.543 C 164.220 126.267, 159.945 127.817, 157.303 128.987 C 149.818 132.302, 137.809 136.141, 136.498 135.638 C 135.846 135.387, 134.792 132.589, 134.155 129.419 C 132.417 120.761, 128.473 117.610, 124.655 121.829 C 122.796 123.883, 122.290 134.443, 124 135.500 C 126.354 136.955, 124.986 140.636, 121.466 142.315 C 119.522 143.242, 117.368 144, 116.678 144 C 115.987 144, 113.683 144.887, 111.557 145.971 C 109.431 147.055, 105.398 148.678, 102.596 149.577 C 99.793 150.477, 95.781 152.317, 93.680 153.667 C 88.250 157.155, 85.755 156.515, 84.743 151.374 C 83.657 145.856, 80.848 143.316, 77.238 144.585 C 72.614 146.211, 71.923 151.998, 75.392 160.048 C 75.911 161.254, 73.122 163.054, 62.779 168.188 C 46.651 176.195, 29.543 182.296, 16.500 184.692 C 12.424 185.441, 10 187.777, 10 190.955 C 10 195.652, 14.345 197.491, 19.245 194.869 C 20.407 194.247, 23.865 193.168, 26.929 192.472 C 33.069 191.077, 56.622 183.026, 59 181.510 C 59.825 180.983, 62.750 179.416, 65.500 178.026 C 68.250 176.637, 71.734 174.663, 73.242 173.640 C 74.751 172.617, 76.589 172.012, 77.328 172.295 C 79.466 173.116, 80.988 188.001, 80.109 199.500 C 79.688 205, 79.379 212.188, 79.422 215.474 C 79.495 221.038, 79.686 221.513, 82.210 222.403 C 84.073 223.059, 85.744 222.982, 87.558 222.155 L 90.197 220.953 89.868 193.824 C 89.586 170.651, 89.754 166.580, 91.019 165.913 C 96.675 162.930, 105.534 159, 106.601 159 C 107.305 159, 111.731 157.213, 116.436 155.030 C 121.141 152.846, 125.617 151.300, 126.383 151.594 C 127.149 151.887, 128.092 153.562, 128.478 155.314 C 129.708 160.894, 130.074 199.997, 129.028 214 C 128.473 221.425, 127.319 238.750, 126.465 252.500 C 125.610 266.250, 124.481 281.059, 123.955 285.409 C 123.430 289.759, 123 294.821, 123 296.659 C 123 299.943, 123.075 300, 127.421 300 C 131.444 300, 131.890 299.753, 132.388 297.250 C 132.899 294.683, 134.521 275.850, 135.511 261 C 135.749 257.425, 136.170 251.125, 136.446 247 C 136.722 242.875, 137.443 229.375, 138.047 217 C 138.652 204.625, 139.329 190.900, 139.552 186.500 C 139.775 182.100, 139.499 171.805, 138.940 163.622 C 137.786 146.742, 138.092 145.745, 144.815 144.534 C 146.842 144.169, 150.300 143.074, 152.500 142.101 C 159.413 139.042, 166.363 136.981, 172.029 136.311 C 175.038 135.955, 179.640 134.590, 182.256 133.277 C 184.871 131.963, 187.484 131.181, 188.063 131.539 C 191.818 133.859, 199.528 125.972, 198.306 121.060 C 197.663 118.476, 195.342 116.063, 193.500 116.064 C 192.950 116.064, 189.350 117.326, 185.500 118.869" stroke="none" fill="black" fill-rule="evenodd"/>
</svg>