<svg xmlns="http://www.w3.org/2000/svg" width="300" height="300" viewBox="0 0 300 300" version="1.1">
	<path d="M 123.500 41.640 C 119.650 42.452, 114.700 43.950, 112.500 44.967 C 110.300 45.985, 105.800 47.573, 102.500 48.497 C 99.200 49.421, 95.097 51.037, 93.382 52.088 C 91.667 53.140, 89.599 54, 88.787 54 C 86.698 54, 84 57.265, 84 59.794 C 84 63.386, 87.348 64.353, 91.704 62.019 C 93.776 60.908, 96.175 60, 97.035 60 C 97.896 60, 99.085 59.515, 99.678 58.922 C 100.271 58.329, 102.005 57.991, 103.532 58.172 C 106.046 58.469, 106.485 59.150, 108.197 65.421 C 109.766 71.170, 109.862 72.567, 108.761 73.668 C 108.031 74.397, 102.724 76.645, 96.967 78.663 C 91.210 80.681, 85.212 83.224, 83.637 84.315 C 81.005 86.137, 80.812 86.691, 81.243 91.178 C 81.501 93.863, 81.403 96.251, 81.024 96.485 C 80.646 96.719, 79.770 100.077, 79.079 103.947 C 78.359 107.978, 76.791 112.502, 75.411 114.537 C 74.085 116.490, 73 118.318, 73 118.598 C 73 118.877, 70.919 122.345, 68.377 126.303 C 65.834 130.261, 63.072 134.591, 62.239 135.925 C 61.406 137.258, 56.908 142.015, 52.243 146.494 C 44.183 154.235, 43.797 154.800, 44.475 157.887 C 45.278 161.543, 47.479 162.880, 49.886 161.175 C 50.774 160.546, 54.110 158.686, 57.300 157.042 C 60.489 155.398, 64.989 152.523, 67.300 150.652 C 71.764 147.038, 84.375 139.651, 88.095 138.470 C 89.320 138.081, 94.598 135.765, 99.822 133.324 C 105.046 130.883, 110.599 128.630, 112.160 128.318 L 115 127.750 115.232 134.125 C 115.360 137.631, 115.500 142.975, 115.544 146 C 115.588 149.025, 115.939 154.425, 116.325 158 C 117.042 164.640, 117.372 174.047, 118.551 221.500 C 119.249 249.592, 118.027 279.213, 116.014 282.974 C 114.591 285.633, 116.592 291.736, 119.154 292.549 C 121.381 293.256, 125.720 290.457, 126.575 287.762 C 127.417 285.111, 127.522 194.820, 126.705 176.685 C 126.136 164.057, 126.227 162.897, 127.772 163.195 C 128.701 163.374, 130.651 166.001, 132.105 169.033 C 133.558 172.065, 135.480 175.153, 136.374 175.895 C 137.268 176.638, 138 177.786, 138 178.448 C 138 180.339, 142.413 184, 144.692 184 C 145.827 184, 147.270 183.379, 147.900 182.621 C 148.530 181.862, 150.368 180.976, 151.985 180.653 C 156.305 179.789, 166.047 169.314, 174.622 156.313 C 178.680 150.160, 182.002 144.760, 182.004 144.313 C 182.006 143.866, 183.131 141.286, 184.504 138.581 C 185.877 135.875, 187.015 132.950, 187.033 132.081 C 187.072 130.178, 190.439 120.227, 191.353 119.314 C 192.825 117.841, 191.613 112.916, 188.089 106.050 C 184.817 99.674, 173.218 98.259, 159.393 102.551 C 154.502 104.069, 149.600 105.845, 148.500 106.498 C 147.400 107.150, 144.475 108.244, 142 108.928 C 139.525 109.612, 135.131 111.078, 132.236 112.187 C 129.340 113.296, 126.334 113.959, 125.556 113.660 C 124.137 113.115, 122.555 105.717, 122.848 101 C 123.838 85.100, 123.949 84.739, 129.805 78.309 C 131.982 75.919, 132.016 75.675, 130.417 73.908 C 128.464 71.750, 128.671 71.359, 135.689 63.970 C 141.124 58.248, 144 52.643, 144 47.774 C 144 44.556, 143.500 43.666, 140.750 41.989 C 136.963 39.680, 133.155 39.603, 123.500 41.640 M 121 52.306 C 118.648 53.109, 117.399 54.212, 117.191 55.673 C 116.721 58.968, 118.902 66, 120.393 66 C 122.454 66, 132 55.358, 132 53.060 C 132 51.336, 131.388 51.009, 128.250 51.056 C 126.188 51.087, 122.925 51.650, 121 52.306 M 103.500 89.720 C 88.655 94.325, 89.614 93.373, 88.525 104.603 C 87.844 111.634, 84.817 118.027, 76.810 129.348 C 73.423 134.136, 75.869 134.594, 84.136 130.722 C 88.186 128.825, 92.625 126.765, 94 126.144 C 95.375 125.523, 97.175 124.587, 98 124.065 C 98.825 123.543, 102.200 122.341, 105.500 121.394 C 114.405 118.838, 114.314 118.983, 113.619 108.536 C 112.645 93.899, 111.685 88.543, 110 88.345 C 109.175 88.248, 106.250 88.867, 103.500 89.720 M 159.500 112.273 C 156.200 113.311, 151.700 114.985, 149.500 115.993 C 144.542 118.263, 138.301 119.987, 135 119.996 C 133.625 120, 130.941 120.790, 129.036 121.752 C 125.943 123.312, 125.541 123.984, 125.295 128 C 124.709 137.549, 125.314 156.648, 126.232 157.566 C 126.547 157.881, 127.751 157.548, 128.906 156.827 C 131.616 155.134, 133.839 156.460, 136.392 161.291 C 139.405 166.993, 145.391 172.328, 147.886 171.536 C 150.402 170.738, 158.676 162.875, 162.130 158 C 166.083 152.422, 174 138.413, 174 136.997 C 174 136.479, 175.073 133.680, 176.384 130.777 C 180.555 121.547, 181.207 119.221, 180.513 116.058 C 180.141 114.367, 179.087 112.598, 178.169 112.128 C 174.596 110.296, 165.563 110.367, 159.500 112.273" stroke="none" fill="black" fill-rule="evenodd"/>
</svg>