<svg xmlns="http://www.w3.org/2000/svg" width="300" height="300" viewBox="0 0 300 300" version="1.1">
	<path d="M 123.216 36.270 C 122.043 37.519, 119.271 42.356, 117.056 47.020 C 112.137 57.379, 109.176 62.689, 106.238 66.425 C 105.007 67.990, 104 69.847, 104 70.552 C 104 71.257, 103.662 71.983, 103.250 72.167 C 101.227 73.066, 97 83.097, 97 87 C 97 90.587, 97.721 92.083, 101.750 96.864 C 109.325 105.851, 111.509 111.050, 111.451 119.955 C 111.424 124.105, 111.027 128.539, 110.569 129.809 C 109.888 131.698, 110.124 132.220, 111.868 132.676 C 113.041 132.982, 114 133.599, 114 134.045 C 114 135.913, 117.363 137.998, 120.321 137.964 C 122.482 137.940, 125.743 136.346, 130.500 132.988 C 134.350 130.270, 139.306 127.198, 141.514 126.160 C 147.026 123.569, 148.730 121.399, 147.190 118.932 C 145.380 116.034, 145.767 110.566, 147.981 107.751 C 149.659 105.618, 149.955 103.738, 149.910 95.488 C 149.881 90.129, 149.521 85.014, 149.110 84.122 C 144.841 74.861, 143.233 72.671, 139.653 71.243 C 136.101 69.826, 135.632 69.875, 131.305 72.100 C 125.842 74.910, 117.488 84.778, 116.292 89.832 C 115.330 93.903, 113.118 95.167, 112.317 92.105 C 112.014 90.947, 111.380 90, 110.906 90 C 110.433 90, 109.341 88.924, 108.479 87.609 C 106.713 84.913, 107.377 83.307, 114.892 72.078 C 116.946 69.010, 119.498 64.766, 120.563 62.646 C 124.370 55.073, 126.547 51.308, 129.750 46.757 C 133.105 41.991, 133.931 37.331, 131.800 35.200 C 129.872 33.272, 125.523 33.814, 123.216 36.270 M 57.012 42.485 C 56.101 43.584, 55.965 46.806, 56.490 54.854 C 57.101 64.201, 56.905 66.883, 55.101 73.843 C 53.945 78.300, 53 82.785, 53 83.808 C 53 85.966, 49.420 97.679, 47.978 100.236 C 47.440 101.191, 47 102.885, 47 104 C 47 105.115, 46.567 106.809, 46.038 107.764 C 45.508 108.719, 43.922 112.875, 42.512 117 C 41.102 121.125, 39.231 126.075, 38.355 128 C 34.348 136.806, 31.360 142.266, 29.750 143.724 C 28.788 144.596, 28 146.172, 28 147.226 C 28 148.280, 27.337 149.806, 26.527 150.616 C 25.716 151.426, 24.514 153.891, 23.854 156.094 C 22.768 159.716, 22.853 160.297, 24.736 162.180 C 28.182 165.627, 31.518 163.999, 34.887 157.226 C 36.453 154.077, 38.658 149.700, 39.785 147.500 C 44.471 138.359, 48 130.646, 48 129.547 C 48 128.903, 48.900 126.513, 50 124.236 C 51.100 121.959, 52.003 119.287, 52.006 118.298 C 52.010 117.309, 52.677 115.225, 53.490 113.667 C 54.303 112.109, 55.452 108.959, 56.044 106.667 C 56.635 104.375, 57.971 100.638, 59.012 98.363 C 60.052 96.088, 61.643 91.138, 62.547 87.363 C 63.450 83.588, 64.839 77.800, 65.633 74.500 C 66.427 71.200, 67.709 64.675, 68.481 60 C 69.253 55.325, 70.169 50.561, 70.516 49.414 C 70.952 47.974, 70.323 46.349, 68.485 44.164 C 66.358 41.637, 65.059 41, 62.034 41 C 59.902 41, 57.706 41.650, 57.012 42.485 M 131.396 86.627 C 118.013 98.768, 116.741 100.141, 117.856 101.256 C 118.485 101.885, 119 103.183, 119 104.141 C 119 105.099, 119.437 106.152, 119.971 106.482 C 121.065 107.158, 126.007 104.811, 130.500 101.479 C 132.150 100.256, 134.850 98.825, 136.500 98.300 C 139.149 97.456, 139.537 96.835, 139.817 92.981 C 140.177 88.016, 138.461 84, 135.977 84 C 135.050 84, 132.989 85.182, 131.396 86.627 M 131.134 114.338 C 130.524 115.074, 128.237 116.212, 126.054 116.866 C 123.870 117.520, 121.839 118.452, 121.539 118.937 C 120.575 120.497, 122.155 123, 124.104 123 C 126.364 123, 134 116.351, 134 114.384 C 134 112.626, 132.574 112.603, 131.134 114.338 M 62.775 116.856 C 61.261 118.655, 60.017 121.720, 59.608 124.659 C 59.237 127.322, 58.274 130.374, 57.467 131.441 C 56.660 132.509, 56 134.556, 56 135.991 C 56 137.426, 55.630 139.027, 55.177 139.550 C 54.724 140.072, 53.506 143.200, 52.471 146.500 C 51.436 149.800, 50.232 152.928, 49.795 153.450 C 49.358 153.973, 49 155.257, 49 156.304 C 49 157.952, 45.971 164.578, 40.226 175.500 C 39.357 177.150, 38.348 179.175, 37.981 180 C 34.482 187.882, 32.627 191.936, 31.423 194.331 C 30.640 195.888, 30 197.999, 30 199.022 C 30 200.045, 29.594 201.133, 29.098 201.439 C 26.818 202.849, 21 213.114, 21 215.728 C 21 220.310, 23.060 222.365, 26.823 221.539 C 28.570 221.155, 30 220.433, 30 219.934 C 30 218.911, 36.455 216, 38.722 216 C 41.138 216, 47 222.547, 47 225.245 C 47 227.653, 49.707 231, 51.654 231 C 53.833 231, 57.255 226.113, 56.696 223.801 C 54.741 215.720, 53.938 213.712, 51.488 210.777 C 47.800 206.359, 45.291 205.077, 40.250 205.035 C 37.913 205.016, 36 204.796, 36 204.547 C 36 203.584, 38.533 198.330, 40.715 194.770 C 41.972 192.718, 43 190.201, 43 189.175 C 43 188.149, 43.900 186.495, 45 185.500 C 46.100 184.505, 47 182.695, 47 181.480 C 47 180.264, 47.986 178.017, 49.190 176.485 C 52.586 172.169, 58.841 159.382, 59.587 155.233 C 59.956 153.180, 60.851 150.375, 61.575 149 C 63.428 145.480, 65.411 140.402, 67.433 134 C 68.388 130.975, 69.610 127.577, 70.148 126.448 C 70.686 125.320, 70.985 122.170, 70.813 119.448 C 70.528 114.951, 70.262 114.472, 67.884 114.196 C 65.988 113.977, 64.581 114.709, 62.775 116.856 M 141.500 137.602 C 138.200 140.641, 132.562 145.057, 128.970 147.416 C 125.379 149.774, 119.955 153.729, 116.918 156.203 C 113.880 158.677, 110.100 161.133, 108.519 161.660 C 104.307 163.064, 103.157 165.406, 105.034 168.752 C 105.878 170.255, 107.307 171.628, 108.210 171.802 C 110.326 172.209, 117.232 169.049, 124.075 164.543 C 127.042 162.589, 129.927 161.143, 130.485 161.330 C 131.105 161.537, 131.367 165.135, 131.158 170.585 C 130.695 182.649, 130.292 183.064, 107.707 194.697 C 103.685 196.769, 99.993 197.913, 97.219 197.947 C 92.242 198.009, 91.390 199.260, 92.662 204.637 C 93.933 210.012, 95.850 210.801, 102.202 208.562 C 109.095 206.131, 117.598 201.878, 123.420 197.949 C 129.583 193.790, 131.366 194.478, 130.690 200.757 C 130.409 203.366, 129.954 208.425, 129.679 212 C 129.188 218.386, 126.220 231.919, 124.159 237.167 C 123.284 239.397, 122.159 240.023, 117.306 240.978 C 114.113 241.607, 109.827 242.759, 107.782 243.540 C 105.738 244.320, 99.663 245.433, 94.282 246.013 C 70.413 248.589, 69.185 249.063, 70.742 255.103 C 71.800 259.204, 74.028 259.768, 82 257.954 C 85.025 257.265, 89.525 256.603, 92 256.482 C 94.475 256.362, 98.750 255.723, 101.500 255.064 C 107.851 253.541, 120.087 251.224, 126.279 250.372 C 128.908 250.010, 131.297 249.329, 131.588 248.857 C 131.880 248.386, 133.806 248, 135.870 248 C 137.933 248, 146.119 247.064, 154.061 245.920 C 169.435 243.706, 189.323 243.283, 224.057 244.429 C 240.461 244.971, 241.749 244.882, 243.683 243.081 C 246.098 240.831, 245.761 236.645, 243.009 234.721 C 241.703 233.807, 231.223 233.511, 201.382 233.542 C 168.326 233.577, 159.874 233.875, 152 235.288 C 146.775 236.225, 140.821 236.994, 138.769 236.996 L 135.038 237 135.658 232.250 C 135.998 229.637, 136.669 226.733, 137.149 225.796 C 137.629 224.859, 138.258 221.259, 138.548 217.796 C 138.838 214.333, 139.498 209.250, 140.014 206.500 C 140.531 203.750, 141.227 198.015, 141.561 193.757 L 142.169 186.013 147.556 180.757 C 150.518 177.865, 155.992 173.925, 159.721 172 C 167.610 167.927, 168.382 166.070, 164.242 161.117 L 161.415 157.734 157.957 159.475 C 156.056 160.432, 152.416 163.235, 149.868 165.704 C 142.971 172.387, 141.723 171.626, 141.256 160.456 L 140.878 151.413 148.189 146.415 C 156.393 140.807, 157.581 138.312, 153.908 134.402 C 150.571 130.850, 148.157 131.473, 141.500 137.602" stroke="none" fill="black" fill-rule="evenodd"/>
</svg>