<svg xmlns="http://www.w3.org/2000/svg" width="300" height="300" viewBox="0 0 300 300" version="1.1">
	<path d="M 60.632 4.181 C 57.919 14.157, 58.025 22.404, 61.032 35.500 C 61.538 37.700, 61.962 49.688, 61.976 62.140 L 62 84.780 56 90.082 C 52.700 92.998, 50 95.949, 50 96.641 C 50 98.438, 38.698 110.002, 36.956 109.987 C 35.232 109.972, 26.994 100.823, 24.687 96.361 C 22.127 91.411, 17.174 87.740, 14.097 88.512 C 10.092 89.517, 9 90.925, 9 95.083 C 9 98.886, 11.859 103, 14.501 103 C 16.027 103, 30.989 116.870, 31.042 118.333 C 31.065 118.975, 32.592 121.207, 34.435 123.293 L 37.787 127.087 39.643 124.652 C 40.665 123.312, 41.979 121.413, 42.564 120.430 C 43.980 118.052, 47.378 119.233, 46.558 121.819 C 46.238 122.824, 46.690 125.076, 47.562 126.824 C 50.416 132.545, 54.982 130.090, 55.015 122.816 C 55.024 120.992, 55.444 118.846, 55.949 118.048 C 56.455 117.249, 56.578 116.126, 56.224 115.553 C 55.037 113.633, 55.374 106.934, 56.713 105.823 C 57.699 105.005, 58.500 105.143, 59.847 106.362 C 60.843 107.263, 62.590 108, 63.730 108 C 65.039 108, 66.564 109.290, 67.867 111.500 C 70.735 116.359, 73.887 116.057, 75.913 110.730 C 77.077 107.666, 78.187 107.316, 79.960 109.452 C 81.490 111.295, 80.444 114.692, 77.932 116.036 C 75.117 117.543, 75.493 120, 78.540 120 C 81.469 120, 88.026 116.879, 89.939 114.573 C 90.657 113.708, 91.998 113, 92.919 113 C 94.698 113, 102 106.101, 102 104.420 C 102 103.872, 103.332 101.866, 104.959 99.962 C 107.304 97.219, 107.927 95.525, 107.959 91.809 C 107.982 89.229, 108.475 86.824, 109.056 86.465 C 110.785 85.397, 119.169 88.339, 120.600 90.517 C 122.667 93.663, 120.148 99.400, 113.371 106.980 C 105.351 115.951, 99.658 120.071, 94.201 120.855 C 87.970 121.751, 86.882 123.846, 90.312 128.343 C 93.423 132.421, 93.600 133.680, 91.406 136.104 C 89.519 138.189, 90.332 143.806, 92.649 144.696 C 94.296 145.327, 100.081 142.630, 104.327 139.250 C 107.239 136.932, 114 136.093, 114 138.050 C 114 138.627, 113.342 140.372, 112.537 141.928 C 111.073 144.759, 109.176 146, 106.310 146 C 105.470 146, 102.401 148.363, 99.488 151.250 C 96.576 154.137, 92.436 157.915, 90.289 159.645 C 86.863 162.405, 86.238 163.584, 85.192 169.260 C 84.536 172.819, 84 178.041, 84 180.865 C 84 183.689, 83.550 186, 83 186 C 82.450 186, 82 187.056, 82 188.346 C 82 191.141, 80.044 195.287, 74.712 203.793 C 71.519 208.886, 70.886 210.678, 71.389 213.197 C 73.120 221.851, 76.333 221.008, 89.380 208.480 C 99.496 198.765, 101.078 197.655, 111.929 192.654 C 123.552 187.298, 123.625 187.280, 130.050 188.137 C 135.272 188.834, 136.919 189.512, 138.699 191.701 C 141.747 195.449, 143.431 203.051, 143.306 212.500 C 143.145 224.597, 143.099 224.984, 140.910 232.500 C 139.788 236.350, 138.416 241.300, 137.860 243.500 C 137.304 245.700, 136.208 248.774, 135.425 250.331 C 134.641 251.888, 134 253.807, 134 254.595 C 134 255.382, 133.571 256.809, 133.047 257.764 C 130.397 262.596, 125 274.236, 125 275.122 C 125 275.678, 123.875 277.608, 122.500 279.411 C 121.125 281.214, 120 283.367, 120 284.197 C 120 286.261, 110.895 298, 109.294 298 C 105.166 298, 87 279.944, 87 275.840 C 87 274.893, 86.564 273.848, 86.030 273.519 C 85.497 273.189, 83.042 269.225, 80.576 264.710 C 74.855 254.239, 61.764 239.988, 57.872 239.995 C 52.583 240.005, 51.993 244.759, 56.855 248.199 C 59.537 250.097, 70 262.657, 70 263.979 C 70 264.599, 71.125 266.762, 72.500 268.785 C 73.875 270.809, 75 273.021, 75 273.701 C 75 275.832, 84.904 290.279, 89.773 295.250 L 94.425 300 108.700 300 L 122.975 300 125.276 296.250 C 127.408 292.776, 129.346 288.898, 133.395 280 C 134.271 278.075, 135.390 275.825, 135.882 275 C 136.374 274.175, 137.992 270.800, 139.478 267.500 C 140.963 264.200, 142.588 260.719, 143.089 259.764 C 143.590 258.809, 144 257.359, 144 256.542 C 144 255.725, 145.038 252.682, 146.306 249.779 C 147.574 246.875, 149.181 241.800, 149.876 238.500 C 150.572 235.200, 151.531 230.925, 152.008 229 C 154.012 220.909, 152.829 197.583, 150.056 190.500 C 148.063 185.412, 142.181 180.243, 136.266 178.383 C 131.603 176.916, 129.957 176.846, 124.344 177.881 C 115.117 179.581, 109.467 181.657, 101.942 186.115 C 94.272 190.659, 91.366 191.164, 92.542 187.750 C 92.968 186.512, 93.503 182.062, 93.731 177.859 C 94.137 170.380, 94.227 170.152, 98.014 167.109 C 100.142 165.399, 102.979 164, 104.319 164 C 105.659 164, 107.315 163.325, 108 162.500 C 108.685 161.675, 109.777 161, 110.426 161 C 112.049 161, 118 154.728, 118 153.017 C 118 152.253, 118.838 150.700, 119.862 149.564 C 122.356 146.800, 124.076 139.287, 123.326 134.437 C 122.404 128.471, 120.232 124.995, 116.434 123.408 C 114.545 122.619, 113 121.706, 113 121.379 C 113 121.052, 117.370 116.065, 122.711 110.298 L 132.421 99.812 136.461 100.456 C 138.682 100.811, 141.415 101.700, 142.532 102.431 C 143.650 103.162, 148.150 105.217, 152.532 106.996 C 168.452 113.460, 170 114.279, 170 116.244 C 170 120.483, 171.737 121.863, 176.745 121.603 C 186.504 121.095, 189.292 116.075, 182.250 111.690 C 178.314 109.238, 168.041 104.193, 161.860 101.676 C 159.859 100.861, 156.484 98.642, 154.360 96.745 C 152.237 94.848, 147.575 92.128, 144 90.700 C 137.513 88.109, 137.500 88.096, 137.703 84.302 C 138.014 78.458, 139.142 71.611, 139.976 70.500 C 141.508 68.460, 141.895 61.182, 141.061 50.074 C 140.074 36.929, 140.270 36.348, 147.173 31.901 C 154.221 27.361, 154.599 26.655, 152.490 21.977 C 151.362 19.476, 150.028 18, 148.894 18 C 147.046 18, 141.074 23.051, 130.786 33.317 C 126.619 37.475, 124.333 39.043, 122.769 38.817 C 119.827 38.391, 119.219 35.676, 119.100 22.424 C 119.005 11.913, 118.870 11.227, 116.455 8.958 C 108.875 1.837, 106.510 19.747, 111.564 46 C 111.934 47.925, 113.167 50.517, 114.303 51.761 C 115.991 53.608, 117.021 53.905, 119.934 53.387 C 121.895 53.038, 124.490 51.852, 125.699 50.750 C 129.274 47.494, 130.627 49.008, 131.298 57.014 C 131.714 61.972, 131.477 65.340, 130.537 67.853 C 129.787 69.859, 128.926 73.261, 128.623 75.414 C 127.828 81.069, 126.701 81.757, 122.260 79.296 C 120.192 78.151, 116.585 76.900, 114.244 76.518 C 111.904 76.135, 109.429 75.055, 108.744 74.116 C 108.060 73.178, 105.842 71.162, 103.816 69.637 L 100.133 66.864 89.416 70.413 C 83.521 72.365, 77.883 74.701, 76.887 75.603 C 73.627 78.553, 72 76.703, 72 70.045 C 72 64.135, 72.062 64.001, 75.433 62.592 C 78.664 61.242, 85.920 52.854, 85.975 50.404 C 85.989 49.801, 86.695 47.914, 87.545 46.211 C 88.394 44.508, 89.331 39.300, 89.627 34.637 C 90.120 26.861, 89.998 26.069, 88.148 25.079 C 82.599 22.110, 80 24.759, 80 33.385 C 80 40.117, 78.249 48.691, 76.251 51.740 C 74.204 54.863, 72.022 54.617, 71.904 51.250 C 71.850 49.737, 71.647 42.999, 71.452 36.275 C 71.257 29.551, 70.602 23.126, 69.998 21.996 C 69.393 20.866, 68.765 17.002, 68.601 13.409 C 68.292 6.608, 67.284 4.750, 63.245 3.538 C 61.760 3.093, 60.868 3.313, 60.632 4.181 M 31.667 52.667 C 31.300 53.033, 31 54.780, 31 56.548 C 31 62.800, 41.354 67.581, 45.345 63.171 C 47.885 60.365, 47.354 58.448, 43.106 55.084 C 39.396 52.145, 33.445 50.888, 31.667 52.667 M 86.118 82.500 C 76.508 85.973, 74.561 87.767, 74.190 93.490 C 73.806 99.410, 74.994 100.876, 78.608 98.942 C 81.156 97.578, 81.392 97.684, 84.905 101.763 C 86.912 104.093, 89.065 106, 89.688 106 C 91.904 106, 96 99.915, 96 96.623 C 96 94.850, 96.395 92.972, 96.878 92.450 C 98.263 90.952, 98.866 82.266, 97.669 81.069 C 96.136 79.536, 93.373 79.879, 86.118 82.500" stroke="none" fill="black" fill-rule="evenodd"/>
</svg>