<svg xmlns="http://www.w3.org/2000/svg" width="300" height="300" viewBox="0 0 300 300" version="1.1">
	<path d="M 139.418 16.969 C 136.224 18.261, 132.154 23.661, 131.418 27.583 C 130.885 30.428, 130.354 31.049, 128.666 30.804 C 126.999 30.562, 126.549 29.741, 126.449 26.757 C 126.323 23.023, 123.756 19, 121.500 19 C 120.845 19, 119.558 19.831, 118.639 20.846 C 117.076 22.574, 117.105 23.654, 119.096 37.596 C 120.965 50.685, 121.144 55.119, 120.571 74 C 119.728 101.762, 119.776 103.095, 121.695 105.215 C 123.653 107.379, 126.326 107.517, 127.968 105.539 C 128.635 104.735, 130.152 103.781, 131.340 103.418 C 132.528 103.055, 135.639 101.237, 138.252 99.379 C 143.019 95.990, 146.347 95.134, 147.500 97 C 148.715 98.965, 151.536 97.933, 153.667 94.743 C 158.834 87.009, 160.037 34.181, 155.245 25.414 C 153.290 21.837, 146.109 15.997, 143.747 16.063 C 142.511 16.098, 140.563 16.506, 139.418 16.969 M 135.719 35.817 C 131.631 41.192, 131.255 42.195, 130.768 49.004 C 130.187 57.118, 130.799 64, 132.102 64 C 132.564 64, 136.554 61.283, 140.971 57.962 C 149.284 51.710, 149.671 51.042, 149.183 43.780 C 149.083 42.284, 147.862 38.572, 146.471 35.530 C 143.158 28.287, 141.410 28.334, 135.719 35.817 M 56.962 59.921 C 53.884 62.518, 53.639 63.071, 54.750 64.907 C 57.591 69.602, 55.737 81.393, 49.939 95.500 C 49.486 96.600, 48.821 99.075, 48.460 101 C 48.099 102.925, 47.237 105.400, 46.544 106.500 C 45.852 107.600, 44.521 111.200, 43.587 114.500 C 42.653 117.800, 41.286 121.850, 40.548 123.500 C 39.811 125.150, 38.175 128.975, 36.913 132 C 35.650 135.025, 33.578 139.179, 32.308 141.230 C 31.039 143.282, 30 145.335, 30 145.792 C 30 146.250, 29.069 148.552, 27.931 150.907 C 25.949 155.009, 25.936 155.272, 27.629 157.142 C 30.580 160.403, 33.875 159.147, 37.954 153.208 C 39.953 150.298, 42.167 145.798, 42.875 143.208 C 43.583 140.619, 44.990 136.925, 46.002 135 C 47.946 131.303, 50.059 125.754, 52.669 117.500 C 54.772 110.847, 56.835 106.220, 58.027 105.483 C 58.562 105.153, 59.011 103.896, 59.025 102.691 C 59.053 100.133, 62.261 90.201, 64.148 86.828 C 66.043 83.441, 67.862 74.349, 67.936 67.896 C 67.989 63.281, 67.567 61.825, 65.548 59.646 C 62.433 56.286, 61.226 56.324, 56.962 59.921 M 140.500 71.491 C 137.750 73.919, 134.375 76.039, 133 76.202 C 130.764 76.469, 130.434 77.080, 129.871 82 C 129.525 85.025, 128.914 88.737, 128.513 90.250 C 127.479 94.148, 129.130 93.785, 135.826 88.641 C 138.947 86.244, 142.472 83.977, 143.660 83.603 C 146.959 82.564, 147.675 81.072, 148.394 73.750 C 148.988 67.691, 148.874 67.004, 147.278 67.038 C 146.300 67.060, 143.250 69.063, 140.500 71.491 M 154.238 109.352 C 151.344 110.601, 148.442 112.158, 147.788 112.812 C 147.135 113.465, 146.199 114, 145.709 114 C 145.219 114, 142.978 115.575, 140.729 117.500 C 138.480 119.425, 136.149 121, 135.548 121 C 134.947 121, 132.891 122.276, 130.978 123.836 C 125.627 128.199, 118.590 132, 115.862 132 C 112.429 132, 111 133.787, 111 138.078 C 111 143.486, 112.840 144.578, 119.458 143.097 C 122.421 142.434, 125.361 141.270, 125.991 140.511 C 126.621 139.752, 129.018 138.150, 131.318 136.951 C 133.618 135.753, 137.140 133.473, 139.144 131.886 C 141.148 130.299, 143.091 129, 143.461 129 C 143.831 129, 145.699 127.806, 147.613 126.346 C 149.867 124.626, 151.435 124.035, 152.065 124.665 C 152.600 125.200, 153.686 129.640, 154.477 134.531 L 155.917 143.424 152.708 146.207 C 150.944 147.738, 147.250 150.153, 144.500 151.574 C 141.750 152.995, 138.825 154.745, 138 155.462 C 137.175 156.180, 134.494 157.776, 132.042 159.010 C 129.591 160.243, 125.316 162.816, 122.542 164.727 C 112.730 171.489, 85.931 183, 80.001 183 C 76.836 183, 74.459 185.394, 73.762 189.286 C 72.909 194.054, 79.069 196.741, 83.592 193.573 C 84.713 192.788, 88.525 191.175, 92.065 189.989 C 98.625 187.790, 101.649 186.549, 110.500 182.424 C 113.250 181.143, 116.175 179.843, 117 179.536 C 117.825 179.229, 119.850 178.088, 121.500 177 C 123.150 175.912, 125.175 174.719, 126 174.348 C 126.825 173.978, 128.812 172.735, 130.416 171.587 C 132.019 170.439, 134.985 168.600, 137.006 167.500 C 139.027 166.400, 143.907 163.363, 147.850 160.750 C 156.944 154.726, 158 154.693, 158 160.435 C 158 162.874, 158.432 166.007, 158.961 167.397 C 159.489 168.787, 160.143 176.599, 160.414 184.757 C 160.684 192.915, 161.122 200.245, 161.386 201.045 C 161.650 201.845, 162.152 210.150, 162.502 219.500 C 162.851 228.850, 163.447 241.675, 163.826 248 C 164.205 254.325, 164.498 268.613, 164.478 279.750 L 164.441 300 168.585 300 L 172.729 300 173.434 287.628 C 173.822 280.824, 173.883 273.736, 173.569 271.878 C 173.256 270.020, 172.794 257.475, 172.543 244 C 172.291 230.525, 171.571 212.300, 170.943 203.500 C 170.314 194.700, 169.682 183.450, 169.538 178.500 C 169.393 173.550, 168.726 165, 168.055 159.501 L 166.835 149.501 170.130 146.751 C 171.942 145.238, 174.140 144, 175.015 144 C 175.890 144, 178.472 142.628, 180.753 140.950 C 186.293 136.876, 196.064 133, 200.793 133 C 203.748 133, 205.285 132.312, 207.505 129.995 L 210.383 126.991 207.019 123.520 C 204.358 120.775, 203.116 120.168, 201.077 120.619 C 195.558 121.841, 189.250 124.580, 183.595 128.210 C 180.347 130.294, 177.189 132, 176.577 132 C 175.965 132, 173.809 133.125, 171.785 134.500 C 166.157 138.324, 165.422 137.909, 163.609 129.877 C 161.312 119.707, 161.452 118.172, 164.750 117.365 C 167.940 116.584, 168.963 115.362, 168.985 112.307 C 169.003 109.650, 165.483 106.985, 162.027 107.040 C 160.637 107.062, 157.132 108.103, 154.238 109.352 M 58.174 131.314 C 56.978 132.587, 56 134.169, 56 134.828 C 56 135.488, 55.594 136.809, 55.098 137.764 C 54.601 138.719, 52.753 142.650, 50.989 146.500 C 49.226 150.350, 46.956 155.154, 45.946 157.177 C 44.935 159.199, 43.704 161.674, 43.210 162.677 C 42.716 163.679, 41.709 165.625, 40.972 167 C 40.234 168.375, 37.876 173.100, 35.732 177.500 C 33.588 181.900, 30.296 188.608, 28.417 192.407 C 26.538 196.207, 25 199.864, 25 200.535 C 25 201.206, 24.356 202.290, 23.569 202.943 C 21.797 204.413, 21.838 209.621, 23.633 211.111 C 24.364 211.717, 26.883 212.017, 29.231 211.776 C 33.247 211.363, 33.778 211.624, 38.194 216.169 C 40.775 218.826, 43.723 221, 44.744 221 C 52.093 221, 49.520 207.328, 41.042 201.329 C 38.842 199.773, 37.033 197.962, 37.021 197.305 C 36.999 196.066, 42.725 183.746, 45.761 178.500 C 51.706 168.229, 54.001 163.691, 54.007 162.196 C 54.010 161.263, 54.890 159.170, 55.961 157.545 C 59.266 152.531, 67 136.105, 67 134.099 C 67 132.565, 63.277 129, 61.674 129 C 60.945 129, 59.370 130.042, 58.174 131.314 M 108.357 212.577 C 107.082 214.523, 106.897 215.810, 107.602 217.827 C 108.374 220.036, 109.227 220.551, 112.518 220.793 C 114.708 220.955, 117.918 221.742, 119.651 222.543 C 121.384 223.345, 124.256 224, 126.033 224 C 127.810 224, 130.740 224.912, 132.544 226.027 L 135.825 228.055 138.662 225.604 L 141.500 223.154 138.767 220.290 C 137.258 218.709, 133.450 216.574, 130.267 215.524 C 127.095 214.478, 123.306 212.807, 121.846 211.811 C 120.238 210.714, 117.389 210, 114.619 210 C 110.808 210, 109.765 210.430, 108.357 212.577 M 134.336 289.567 C 133.713 291.191, 135.343 295.206, 137.862 298.250 C 138.961 299.578, 140.780 299.989, 145.405 299.955 C 151.377 299.912, 151.454 299.876, 149.222 298.205 C 147.968 297.267, 144.859 294.587, 142.312 292.250 C 137.388 287.731, 135.309 287.031, 134.336 289.567" stroke="none" fill="black" fill-rule="evenodd"/>
</svg>