<svg xmlns="http://www.w3.org/2000/svg" width="300" height="300" viewBox="0 0 300 300" version="1.1">
	<path d="M 100.655 36.263 C 99.045 38.214, 98.887 39.670, 99.419 47.660 L 100.028 56.820 96.264 59.100 C 94.194 60.354, 91.002 63.095, 89.172 65.190 C 87.342 67.286, 85.092 69.010, 84.172 69.023 C 83.252 69.035, 79.282 65.600, 75.349 61.389 C 69.066 54.663, 67.883 53.813, 65.599 54.386 C 63.555 54.899, 63 55.651, 63 57.912 C 63 59.544, 62.352 61.035, 61.500 61.362 C 58.320 62.582, 59.951 65.815, 65.495 69.283 C 71.656 73.137, 84.052 86.437, 86.588 91.915 C 87.501 93.887, 89.140 96.479, 90.229 97.676 C 92.276 99.925, 91.923 102, 89.492 102 C 87.295 102, 83 108.386, 83 111.653 C 83 113.284, 83.598 115.436, 84.330 116.437 C 85.807 118.457, 86.732 118.193, 98.733 112.330 C 106.089 108.735, 106.834 109.290, 105.885 117.654 C 104.499 129.882, 104.278 153, 105.547 153 C 107.538 153, 110 149.446, 110 146.572 C 110 145.049, 110.643 142.384, 111.429 140.651 C 112.216 138.918, 113.328 132.550, 113.901 126.500 C 115.562 108.964, 116.970 103.534, 120.751 100.080 C 123.610 97.469, 124 96.495, 124 91.975 C 124 87.693, 124.543 86.142, 127.262 82.668 C 133.467 74.738, 134.931 72.472, 138.027 66 C 139.738 62.425, 141.557 58.719, 142.069 57.764 C 142.581 56.809, 143 54.036, 143 51.602 C 143 47.889, 142.505 46.761, 139.923 44.589 C 136.065 41.342, 128.361 41.079, 123 44.009 C 116.988 47.296, 113.117 49, 111.663 49 C 110.263 49, 109.033 44.261, 109.011 38.785 C 108.992 34.086, 103.755 32.506, 100.655 36.263 M 120.500 56.315 L 114.500 59.612 113.878 66.056 C 113.041 74.724, 113.889 83, 115.615 83 C 116.351 83, 117.704 81.763, 118.620 80.250 C 119.537 78.737, 121.158 76.232, 122.223 74.682 C 126.664 68.221, 131.096 58.641, 130.805 56.132 C 130.370 52.374, 127.581 52.424, 120.500 56.315 M 95.500 71.847 C 88.720 78.282, 88.642 78.441, 90.416 82.192 C 91.277 84.011, 92.848 87.975, 93.907 91 C 95.482 95.501, 96.291 96.556, 98.356 96.811 C 99.933 97.005, 101.700 96.300, 103.067 94.933 C 105.160 92.840, 105.225 92.232, 104.541 81.136 C 104.148 74.752, 103.614 69.184, 103.354 68.764 C 102.305 67.067, 99.287 68.252, 95.500 71.847 M 175 161.727 C 174.175 161.995, 168.844 164.453, 163.153 167.189 C 157.462 169.925, 150.582 172.740, 147.865 173.445 C 143.023 174.701, 142.195 174.664, 123.500 172.350 C 120.394 171.966, 119.014 172.311, 117.325 173.896 C 113.865 177.145, 116.013 181.093, 124.292 186.698 C 133.485 192.922, 138 198.284, 138 202.980 C 138 209.631, 134.251 210.668, 125.717 206.378 C 122.848 204.936, 118.081 201.703, 115.125 199.194 C 110.672 195.414, 108.784 194.500, 104.125 193.867 C 96.001 192.764, 95.453 194.122, 101.666 199.960 C 104.507 202.630, 107.597 205.981, 108.531 207.407 C 109.466 208.833, 110.802 210, 111.500 210 C 112.198 210, 113.444 211.029, 114.269 212.288 C 115.200 213.709, 117.719 215.106, 120.920 215.978 C 123.753 216.750, 126.560 217.970, 127.158 218.690 C 131.033 223.359, 145.515 216.328, 148.625 208.269 C 150.649 203.022, 149.990 199.300, 146.016 193.523 C 141.775 187.360, 142.043 186.529, 148.750 185.052 C 151.912 184.356, 155.175 183.233, 156 182.558 C 156.825 181.882, 159.075 180.732, 161 180.003 C 162.925 179.273, 165.516 177.767, 166.758 176.657 C 169.831 173.907, 175.768 171.690, 180 171.712 C 185.913 171.743, 194.873 173.581, 196.734 175.145 C 197.705 175.962, 201.922 178.331, 206.106 180.411 C 210.289 182.491, 215.239 185.498, 217.106 187.094 C 218.972 188.690, 220.791 189.996, 221.146 189.998 C 221.502 189.999, 223.194 188.404, 224.907 186.453 C 228.704 182.129, 228.016 180.062, 221.717 176.869 C 219.397 175.693, 216.029 173.448, 214.232 171.880 C 212.434 170.312, 209.734 168.725, 208.232 168.354 C 206.729 167.984, 203.913 166.685, 201.973 165.469 C 200.034 164.252, 197.109 162.972, 195.473 162.623 C 191.431 161.762, 176.857 161.124, 175 161.727 M 49.515 176.250 C 49.283 176.938, 48.886 180.425, 48.635 184 C 48.052 192.262, 47.197 196.688, 45.416 200.651 C 44.637 202.384, 44 204.302, 44 204.912 C 44 209.003, 33.245 225.299, 28.489 228.416 C 27.267 229.216, 26.033 230.765, 25.747 231.858 C 25.094 234.358, 28.437 240, 30.572 240 C 31.453 240, 35.111 237.188, 38.702 233.750 C 44.130 228.554, 46.133 225.636, 50.577 216.448 C 56.261 204.695, 58.668 197.088, 59.674 187.700 C 60.272 182.116, 60.171 181.771, 56.952 178.450 C 53.557 174.948, 50.282 173.979, 49.515 176.250" stroke="none" fill="black" fill-rule="evenodd"/>
</svg>