<svg xmlns="http://www.w3.org/2000/svg" width="300" height="300" viewBox="0 0 300 300" version="1.1">
	<path d="M 131.773 45.750 C 128.680 49.272, 128.696 51.735, 131.921 69 C 132.383 71.475, 133.088 74.921, 133.487 76.657 C 134.419 80.712, 132.179 82.202, 122.500 83.962 C 118.650 84.662, 111 86.567, 105.500 88.195 C 100 89.823, 93.494 91.574, 91.041 92.086 C 84.949 93.359, 84.466 94.186, 87.677 97.845 C 90.957 101.583, 93.286 101.784, 101.802 99.063 C 105.137 97.998, 110.258 96.677, 113.183 96.129 C 116.107 95.580, 121.548 93.977, 125.273 92.565 C 132.754 89.732, 135.894 89.360, 136.392 91.250 C 136.573 91.938, 137.410 94.750, 138.252 97.500 C 139.094 100.250, 140.316 105.200, 140.966 108.500 C 142.262 115.074, 143.139 118.916, 145.072 126.500 C 145.773 129.250, 146.535 133.750, 146.765 136.500 C 146.996 139.250, 147.593 141.928, 148.092 142.450 C 148.591 142.973, 149 144.605, 149 146.078 C 149 147.551, 149.675 150.371, 150.500 152.346 C 151.325 154.320, 152 157.499, 152 159.409 C 152 161.319, 152.450 163.160, 153 163.500 C 153.550 163.840, 154 166.090, 154 168.500 C 154 170.910, 154.450 173.160, 155 173.500 C 155.550 173.840, 156.014 175.554, 156.032 177.309 C 156.049 179.064, 156.724 181.374, 157.532 182.441 C 158.339 183.509, 159 185.620, 159 187.132 C 159 188.645, 159.450 190.160, 160 190.500 C 160.550 190.840, 161 192.456, 161 194.091 C 161 195.726, 161.675 198.680, 162.500 200.654 C 163.325 202.629, 164 205.288, 164 206.563 C 164 207.838, 164.450 209.160, 165 209.500 C 165.550 209.840, 166.007 211.104, 166.015 212.309 C 166.030 214.478, 167.911 220.563, 169.167 222.508 C 169.525 223.062, 170.133 225.312, 170.518 227.508 C 171.499 233.099, 176.527 248.146, 179.117 253.236 C 179.603 254.191, 180 255.587, 180 256.337 C 180 257.088, 181.125 259.818, 182.500 262.404 C 183.875 264.990, 185 267.500, 185 267.981 C 185 270.342, 192.845 281.558, 198.263 286.943 C 203.797 292.442, 208.369 294.975, 212.795 294.994 C 215.191 295.005, 219 290.200, 219 287.168 C 219 285.560, 219.708 283.658, 220.572 282.940 C 224.412 279.753, 219.634 234.027, 214.730 227.025 L 213.137 224.751 212.472 228.299 C 212.106 230.251, 212.094 234.469, 212.446 237.674 C 213.667 248.784, 214.156 273.337, 213.199 275.426 C 212.677 276.567, 211.753 278.738, 211.146 280.250 C 209.663 283.948, 207.656 283.712, 203.411 279.341 C 198.197 273.972, 193.908 266.717, 189.613 256 C 187.518 250.775, 185.174 245.306, 184.402 243.846 C 183.631 242.386, 183 240.275, 183 239.155 C 183 238.035, 182.550 236.840, 182 236.500 C 181.450 236.160, 180.984 234.671, 180.965 233.191 C 180.945 231.711, 180.286 229.375, 179.500 228 C 178.714 226.625, 178.055 224.481, 178.035 223.236 C 178.016 221.991, 177.480 219.966, 176.844 218.736 C 174.298 213.812, 174 212.921, 174 210.236 C 174 208.701, 173.405 206.557, 172.678 205.473 C 171.950 204.388, 170.750 200.800, 170.011 197.500 C 169.271 194.200, 168.066 190.285, 167.333 188.800 C 166.600 187.314, 166 184.946, 166 183.536 C 166 182.126, 165.605 180.191, 165.123 179.236 C 163.466 175.956, 162 170.354, 162 167.301 C 162 165.620, 161.325 162.629, 160.500 160.654 C 159.675 158.680, 159 155.340, 159 153.232 C 159 151.124, 158.596 148.973, 158.102 148.450 C 157.609 147.928, 156.976 145.700, 156.696 143.500 C 155.113 131.075, 153.892 124.492, 153.003 123.603 C 152.451 123.051, 152 120.917, 152 118.859 C 152 116.801, 151.550 114.840, 151 114.500 C 150.450 114.160, 150 112.838, 150 111.563 C 150 110.288, 149.368 107.727, 148.597 105.872 C 147.019 102.080, 146.148 89.168, 147.341 87.250 C 147.768 86.563, 150.055 86, 152.423 86 C 156.306 86, 156.996 85.614, 159.459 82.059 C 162.492 77.683, 162.281 76.714, 157.787 74.390 C 154.873 72.883, 154.451 72.920, 150.196 75.045 C 146.910 76.686, 145.259 77.023, 144.095 76.291 C 142.081 75.024, 140.923 69.100, 140.324 57 C 139.836 47.150, 138.546 44, 135 44 C 134.070 44, 132.618 44.788, 131.773 45.750 M 172.750 49.080 C 169.077 51.219, 170.893 60.879, 175.949 66.102 C 176.802 66.983, 180.165 71.258, 183.422 75.602 C 190.836 85.489, 195.224 89.381, 197.974 88.508 C 200.708 87.641, 200.609 83.664, 197.754 79.654 C 194.579 75.195, 186 60.823, 186 59.963 C 186 59.568, 185.364 58.717, 184.586 58.072 C 183.809 57.426, 182.231 54.896, 181.081 52.449 C 178.897 47.804, 176.563 46.859, 172.750 49.080 M 104.250 91.220 C 102.305 92.158, 101.014 95, 102.532 95 C 104.206 95, 110 91.936, 110 91.051 C 110 89.724, 107.182 89.807, 104.250 91.220 M 108.450 126.865 C 107.927 127.341, 104.350 128.918, 100.500 130.368 C 96.650 131.819, 92.150 133.918, 90.500 135.034 C 88.850 136.150, 86.098 137.746, 84.385 138.581 C 82.672 139.416, 80.328 140.977, 79.177 142.050 C 78.026 143.122, 76.685 144, 76.197 144 C 74.360 144, 72 147.771, 72 150.706 C 72 157.260, 76.683 157.424, 84.594 151.149 C 89.168 147.521, 104.889 138.991, 109.574 137.595 C 110.715 137.255, 112.928 135.641, 114.493 134.007 C 116.998 131.393, 117.201 130.736, 116.191 128.519 C 115.359 126.693, 114.266 126, 112.221 126 C 110.670 126, 108.973 126.389, 108.450 126.865 M 94.282 149.250 C 91.240 152.562, 90.531 156.689, 89.366 177.846 C 88.700 189.961, 88.629 190.247, 85.594 193.168 C 83.892 194.805, 79.237 198.375, 75.250 201.102 C 68.642 205.622, 68 206.362, 68 209.463 C 68 214.479, 70.696 214.879, 77.757 210.912 C 85.936 206.315, 95.056 198.919, 97.697 194.741 C 98.139 194.042, 100.692 191.573, 103.371 189.253 C 110.482 183.095, 118 174.183, 118 171.910 C 118 170.825, 117.295 169.667, 116.433 169.336 C 114.376 168.547, 111.318 170.255, 105.191 175.614 C 99.248 180.813, 96.396 181.418, 97.486 177.250 C 98.725 172.509, 99.747 150.592, 98.815 148.750 C 97.649 146.445, 96.769 146.542, 94.282 149.250" stroke="none" fill="black" fill-rule="evenodd"/>
</svg>