<svg xmlns="http://www.w3.org/2000/svg" width="300" height="300" viewBox="0 0 300 300" version="1.1">
	<path d="M 134.609 39.250 C 133.674 40.713, 132.936 45.872, 132.499 54 C 132.130 60.875, 131.399 69.425, 130.876 73 C 130.352 76.575, 129.550 82.200, 129.093 85.500 C 128.636 88.800, 127.789 93.300, 127.210 95.500 C 126.631 97.700, 125.849 103.236, 125.470 107.802 C 124.902 114.667, 124.337 116.634, 122.213 119.158 C 118.386 123.707, 119.965 125.416, 128.090 125.523 C 135.437 125.619, 140 127.195, 140 129.637 C 140 132.140, 128.942 150.358, 124.303 155.498 C 123.311 156.597, 120.156 160.647, 117.290 164.498 C 110.609 173.478, 99.559 185.328, 94.756 188.663 C 91.859 190.675, 90.238 191.138, 87.592 190.709 C 85 190.288, 83.747 190.622, 82.421 192.087 C 80.746 193.939, 80.774 194.131, 83.086 196.606 C 85.242 198.914, 86.100 199.148, 91.106 198.792 C 96.093 198.437, 97.552 197.762, 104.296 192.686 C 108.466 189.547, 112.896 185.521, 114.139 183.740 C 115.382 181.958, 116.985 180.140, 117.700 179.700 C 118.415 179.260, 119.629 177.685, 120.398 176.200 C 121.570 173.936, 126.669 167.332, 134.838 157.500 C 135.752 156.400, 137.062 154.375, 137.749 153 C 138.436 151.625, 140.544 148.475, 142.433 146 C 144.322 143.525, 145.897 141.144, 145.934 140.710 C 145.970 140.275, 146.985 138.587, 148.188 136.960 C 150.657 133.620, 155.097 133.002, 158.441 135.532 C 159.509 136.339, 161.058 137, 161.883 137 C 163.726 137, 179.030 146.850, 180.729 149.129 C 183.092 152.299, 201.529 164, 204.161 164 C 205.588 164, 207.340 164.705, 208.055 165.566 C 208.770 166.427, 210.715 167.836, 212.378 168.696 C 214.041 169.556, 216.018 170.875, 216.771 171.628 C 219.420 174.277, 222.940 174.405, 225.555 171.948 C 230.140 167.641, 228.288 163.664, 220.500 161.093 C 211.982 158.282, 198.700 151.003, 194.173 146.666 C 192.643 145.200, 190.922 144, 190.350 144 C 189.778 144, 188.453 143.052, 187.405 141.894 C 186.357 140.735, 183.700 138.870, 181.500 137.749 C 179.300 136.628, 176.138 134.675, 174.474 133.408 C 172.810 132.141, 168.423 129.689, 164.724 127.958 C 157.181 124.428, 156.099 122.013, 160.389 118.283 C 162.786 116.200, 170.773 100.623, 172.877 93.929 C 173.495 91.965, 174 88.062, 174 85.256 C 174 80.906, 173.552 79.706, 170.961 77.115 C 167.287 73.440, 161.925 72.185, 158.184 74.124 C 154.488 76.039, 141.159 89.888, 137.833 95.269 C 135.370 99.255, 136.228 90.742, 139.221 81.500 C 139.755 79.850, 140.376 75.575, 140.600 72 C 140.824 68.425, 141.430 63.700, 141.947 61.500 C 143.555 54.647, 144.159 39.896, 142.893 38.371 C 141.067 36.170, 136.250 36.681, 134.609 39.250 M 157.750 87.080 C 156.787 87.641, 156 88.666, 156 89.358 C 156 90.963, 147.096 101.845, 140.179 108.693 C 137.253 111.591, 135.134 114.408, 135.471 114.952 C 136.224 116.172, 144.724 120, 146.678 120 C 147.461 120, 148.713 118.537, 149.461 116.750 C 150.208 114.963, 152.210 111.751, 153.910 109.612 C 155.609 107.474, 157 105.097, 157 104.329 C 157 103.562, 158.125 100.713, 159.500 98 C 162.170 92.731, 162.875 85.979, 160.750 86.030 C 160.063 86.047, 158.713 86.519, 157.750 87.080 M 62.126 89.348 C 60.797 90.949, 61.422 104.775, 62.992 108.500 C 66.111 115.900, 66.275 118.491, 66.687 166.962 C 66.968 199.993, 67.462 216.852, 68.176 217.712 C 69.545 219.362, 73.444 219.375, 74.805 217.735 C 75.418 216.997, 76.124 207.542, 76.500 195.033 C 76.855 183.243, 77.576 172.793, 78.102 171.810 C 78.627 170.828, 80.282 169.771, 81.779 169.462 C 88.838 168.004, 90.434 167.299, 92.278 164.829 C 93.667 162.969, 94.063 161.387, 93.601 159.547 C 92.997 157.139, 92.631 156.973, 89.221 157.555 C 87.174 157.904, 84.094 158.667, 82.376 159.250 C 76.145 161.365, 76.129 161.309, 76.191 138.223 C 76.228 124.567, 75.859 116.604, 75.124 115.232 C 74.506 114.077, 74 111.358, 74 109.191 C 74 107.024, 73.325 103.338, 72.500 101 C 71.675 98.662, 71 95.766, 71 94.565 C 71 89.935, 64.709 86.236, 62.126 89.348 M 35.393 136.418 C 35.094 137.199, 35.636 140.461, 36.599 143.668 C 38.657 150.522, 38.863 161.519, 36.999 165.002 C 33.378 171.769, 34.030 178, 38.361 178 C 40.590 178, 44.994 174.313, 45.006 172.436 C 45.010 171.921, 45.754 170.150, 46.661 168.500 C 50.018 162.391, 48.548 142.994, 44.351 138.005 C 41.608 134.746, 36.389 133.822, 35.393 136.418 M 160.833 177.964 C 153.024 180.419, 149.328 183.329, 146.454 189.288 C 143.751 194.891, 143.335 197.937, 145.250 198.118 C 148.111 198.390, 149.679 197.672, 153 194.575 C 158.456 189.486, 163.262 187.044, 168.188 186.858 C 170.662 186.764, 173.206 187.009, 173.843 187.403 C 175.795 188.610, 175.135 193.507, 172.346 198.496 C 169.955 202.775, 156.331 218.428, 153.435 220.225 C 151.586 221.372, 149.501 218.132, 146.532 209.500 C 144.525 203.666, 142.634 200.282, 139.544 197 C 137.214 194.525, 134.308 191.037, 133.086 189.250 C 131.139 186.403, 130.312 186, 126.410 186 C 122.563 186, 121.793 186.361, 120.749 188.652 C 119.598 191.177, 119.834 191.569, 125.715 196.902 C 131.985 202.588, 139 213.993, 139 218.502 C 139 219.656, 139.485 221.085, 140.078 221.678 C 140.671 222.271, 141.009 224.040, 140.828 225.610 C 140.577 227.796, 139.799 228.664, 137.500 229.324 C 127.432 232.212, 124.529 236.330, 129.360 240.869 C 131.512 242.890, 132.097 243.016, 134.156 241.896 C 137.360 240.152, 151.190 237.766, 158.500 237.696 C 166.212 237.621, 179.246 239.431, 185.003 241.375 C 187.476 242.210, 192.408 243.030, 195.962 243.197 C 202.156 243.487, 202.479 243.386, 203.774 240.734 C 206.529 235.092, 202.597 232.014, 192.601 231.985 C 189.795 231.977, 185.700 231.346, 183.500 230.583 C 181.300 229.819, 176.800 228.902, 173.500 228.545 C 163.801 227.494, 162.993 227.199, 163.064 224.731 C 163.103 223.350, 164.873 221.046, 167.707 218.685 C 176.423 211.426, 185 198.917, 185 193.467 C 185 192.175, 185.450 190.840, 186 190.500 C 189.119 188.572, 185.184 178.608, 180.685 177.040 C 176.302 175.512, 167.300 175.931, 160.833 177.964" stroke="none" fill="black" fill-rule="evenodd"/>
</svg>