<svg xmlns="http://www.w3.org/2000/svg" width="300" height="300" viewBox="0 0 300 300" version="1.1">
	<path d="M 113.945 3.257 C 114.349 5.049, 115.181 7.411, 115.793 8.507 C 117.403 11.391, 121 22.335, 121 24.352 C 121 25.297, 121.621 27.067, 122.381 28.285 C 123.141 29.503, 124.057 31.767, 124.417 33.317 L 125.072 36.133 120.650 35.470 C 115.878 34.755, 113.204 35.687, 109 39.530 C 105.862 42.398, 97.611 47, 95.604 47 C 93.273 47, 88.042 34.823, 87.927 29.128 C 87.887 27.133, 87.085 24.190, 86.145 22.589 C 80.472 12.926, 74.816 19.734, 78.484 31.809 C 79.434 34.939, 80.444 38.850, 80.728 40.500 C 81.012 42.150, 81.917 44.269, 82.740 45.210 C 84.595 47.328, 83.699 51.647, 81.248 52.411 C 80.286 52.710, 76.125 53.415, 72 53.977 C 65.063 54.922, 60.264 56.357, 54.042 59.348 C 51.137 60.745, 49.244 67.384, 51.110 69.633 C 52.588 71.413, 56.378 71.373, 59.924 69.539 C 61.478 68.736, 65.654 67.614, 69.205 67.047 C 72.756 66.480, 77.074 65.311, 78.800 64.450 C 80.526 63.589, 83.517 62.628, 85.446 62.315 C 88.615 61.801, 89.057 62.023, 90.037 64.623 C 90.634 66.205, 92.179 69.750, 93.471 72.500 C 94.763 75.250, 96.304 79.300, 96.895 81.500 C 99.090 89.658, 101.673 97.356, 105.954 108.500 C 110.176 119.487, 110.024 122.696, 105.007 128.492 C 102.811 131.030, 100.491 134.083, 99.852 135.277 C 97.565 139.549, 86.693 150.773, 71.059 165 C 58.646 176.295, 58.965 175.963, 57.916 178.720 C 55.554 184.934, 57.785 185.574, 64.346 180.566 C 66.820 178.677, 70.117 176.462, 71.673 175.643 C 73.228 174.824, 76.960 171.644, 79.966 168.577 C 82.972 165.510, 85.781 163, 86.208 163 C 87.382 163, 102.207 148.119, 106.090 143.043 C 107.966 140.592, 110.281 136.845, 111.235 134.717 C 113.116 130.524, 116.200 129.856, 116.808 133.511 C 117.547 137.960, 121.225 144.894, 129.147 156.779 C 130.716 159.133, 132 161.527, 132 162.099 C 132 162.671, 133.350 165.102, 135 167.500 C 136.650 169.898, 138.013 172.679, 138.028 173.680 C 138.043 174.681, 139.393 177.268, 141.028 179.428 C 142.663 181.589, 144.038 183.839, 144.085 184.428 C 144.131 185.018, 145.931 187.014, 148.083 188.865 C 151.958 192.196, 152.031 192.213, 155.361 190.633 C 160.784 188.060, 161.736 186.348, 159.709 182.815 C 158.625 180.927, 158 177.673, 158 173.919 C 158 170.664, 157.579 168, 157.063 168 C 156.548 168, 155.986 166.537, 155.813 164.750 C 155.551 162.034, 155.090 161.500, 153 161.500 C 150.685 161.500, 150.477 161.894, 150.195 166.815 C 149.997 170.276, 149.489 171.996, 148.739 171.746 C 147.404 171.301, 144.181 166.103, 144.073 164.221 C 144.033 163.518, 141.300 158.657, 138 153.419 C 134.700 148.181, 132 143.470, 132 142.950 C 132 142.430, 130.425 139.812, 128.500 137.133 C 126.575 134.453, 125 131.628, 125 130.853 C 125 130.079, 124.382 128.557, 123.628 127.473 C 120.969 123.650, 120.705 119.308, 122.886 115.270 C 124.006 113.196, 125.402 109.606, 125.988 107.292 C 126.575 104.978, 127.492 102.814, 128.027 102.483 C 128.562 102.153, 129 100.559, 129 98.941 C 129 97.323, 129.473 96, 130.051 96 C 131.661 96, 134 89.539, 134 85.091 C 134 82.906, 134.398 80.872, 134.885 80.571 C 135.371 80.271, 136.081 77.946, 136.462 75.405 C 136.843 72.864, 138.020 69.245, 139.077 67.362 C 142.374 61.492, 141.066 55, 136.586 55 C 134.873 55, 133.897 55.874, 132.957 58.250 C 132.249 60.037, 131.133 62.175, 130.475 63 C 128.577 65.381, 124 78.273, 124 81.237 C 124 82.719, 123.355 85.410, 122.567 87.216 C 121.779 89.022, 120.555 93.339, 119.847 96.810 C 117.947 106.133, 115.236 107.487, 112.987 100.236 C 112.349 98.181, 111 94.250, 109.989 91.500 C 108.978 88.750, 107.188 83.350, 106.012 79.500 C 104.836 75.650, 102.986 70.985, 101.902 69.133 C 100.817 67.282, 99.663 63.817, 99.336 61.435 C 98.768 57.289, 98.866 57.076, 101.621 56.468 C 106.086 55.483, 108.023 54.454, 113.319 50.250 C 114.878 49.012, 116.617 48, 117.183 48 C 121.269 48, 131.908 33.598, 130.539 29.919 C 130.249 29.139, 129.585 25.800, 129.064 22.500 C 128.543 19.200, 127.368 12.787, 126.453 8.250 L 124.789 0 119 0 L 113.211 0 113.945 3.257 M 58.619 100.750 C 55.126 104.343, 54.001 106.262, 54.001 108.628 C 54 112.917, 56.302 114.702, 60.022 113.298 C 61.596 112.704, 63.135 112.469, 63.442 112.775 C 65.785 115.119, 59.644 124.845, 56.567 123.664 C 55.705 123.333, 55 122.222, 55 121.195 C 55 119.193, 49.104 111.008, 45 107.314 C 41.487 104.152, 37.228 104.270, 35.975 107.565 C 34.210 112.207, 34.933 113.984, 41 119.921 C 46.215 125.024, 47 126.281, 47 129.528 C 47 135.988, 52.572 142.539, 56.241 140.393 C 56.933 139.988, 56.621 140.657, 55.548 141.881 C 52.188 145.708, 41.912 152, 39.021 152 C 37.508 152, 35.126 152.900, 33.727 154 C 32.329 155.100, 30.841 156, 30.421 156 C 28.883 156, 21 165.090, 21 166.863 C 21 169.027, 24.013 172, 26.207 172 C 27.741 172, 32.586 169.984, 36.563 167.690 C 37.698 167.036, 40.916 164.583, 43.713 162.241 C 46.510 159.898, 50.389 157.318, 52.331 156.506 C 54.274 155.694, 56.148 154.570, 56.496 154.007 C 56.843 153.445, 60.362 150.569, 64.314 147.618 C 71.977 141.895, 80.205 134.203, 86.142 127.210 C 91.189 121.266, 91.869 115.081, 87.481 115.015 C 86.921 115.007, 82.907 118.600, 78.562 123 C 74.217 127.400, 70.089 131, 69.390 131 C 67.111 131, 66.883 129.117, 68.918 127.082 C 73.744 122.256, 76.643 109.838, 74.539 103 C 73.260 98.841, 69.974 96, 66.444 96 C 63.933 96, 62.235 97.031, 58.619 100.750 M 32.452 203.077 C 32.018 203.780, 31.547 207.538, 31.407 211.428 C 31.085 220.359, 27.260 230.528, 22.565 234.939 C 21.154 236.264, 19.991 237.833, 19.981 238.424 C 19.970 239.016, 18.395 241.295, 16.481 243.489 C 12.827 247.677, 11.952 252.174, 14.035 256.066 C 16.343 260.377, 23.553 256.432, 27.334 248.789 C 28.442 246.550, 30.775 243.292, 32.518 241.548 C 34.262 239.805, 36.011 237.091, 36.406 235.518 C 36.801 233.945, 37.996 231.549, 39.062 230.194 C 40.128 228.839, 41 226.468, 41 224.924 C 41 223.381, 41.415 221.862, 41.922 221.548 C 43.178 220.772, 42.047 205.809, 40.616 204.272 C 38.850 202.375, 33.381 201.574, 32.452 203.077 M 99.115 203.361 C 97.384 205.447, 98.401 209.548, 101.288 212.115 C 102.504 213.198, 106.650 216.699, 110.500 219.896 C 115.547 224.088, 118.293 227.293, 120.344 231.389 C 123.541 237.777, 122.945 240, 118.033 240 C 115.537 240, 107.125 235.107, 101 230.091 C 99.625 228.966, 98.197 228.034, 97.827 228.022 C 97.457 228.010, 95.432 226.281, 93.327 224.179 C 88.336 219.197, 81.931 216, 76.938 216 C 72.375 216, 70.376 218.512, 73.534 220.279 C 74.547 220.846, 78.971 224.671, 83.364 228.780 C 90.951 235.875, 95.550 239.332, 107.275 246.750 C 111.669 249.530, 113.323 250, 118.719 250 C 122.189 250, 126.034 249.480, 127.264 248.845 C 128.494 248.209, 130.172 247.375, 130.992 246.990 C 133.178 245.967, 134.530 240.408, 133.246 237.720 C 132.663 236.499, 131.496 233.645, 130.653 231.379 C 129.809 229.112, 127.742 225.086, 126.060 222.433 C 124.377 219.779, 123 217.022, 123 216.304 C 123 214.887, 127.085 214.658, 148.500 214.874 C 166.667 215.058, 168.542 215.288, 171.873 217.750 C 175.227 220.227, 181.795 220.805, 183.800 218.800 C 184.460 218.140, 185 215.902, 185 213.826 C 185 210.718, 184.514 209.801, 182.250 208.636 C 176.072 205.456, 170.623 204.809, 143 203.976 C 127.325 203.503, 111.340 202.808, 107.477 202.432 C 101.666 201.866, 100.223 202.026, 99.115 203.361" stroke="none" fill="black" fill-rule="evenodd"/>
</svg>