<svg xmlns="http://www.w3.org/2000/svg" width="300" height="300" viewBox="0 0 300 300" version="1.1">
	<path d="M 154.331 7.250 C 152.628 9.580, 150.893 15.921, 150.540 21.104 C 150.345 23.972, 149.592 26.655, 148.844 27.143 C 148.105 27.626, 144.350 28.981, 140.500 30.155 C 130.695 33.145, 122.130 37.620, 120.855 40.419 C 120.047 42.192, 120.129 43.480, 121.187 45.637 C 122.819 48.964, 125.638 49.106, 129.892 46.077 C 132.983 43.876, 144.105 39.772, 144.880 40.546 C 145.166 40.833, 144.563 44.089, 143.539 47.784 C 142.514 51.478, 141.494 56.075, 141.271 58 C 141.048 59.925, 140.253 62.850, 139.504 64.500 C 135.493 73.345, 134 77.123, 134 78.430 C 134 79.229, 133.550 80.160, 133 80.500 C 132.450 80.840, 132 81.939, 132 82.943 C 132 85.567, 124.513 100.267, 118.845 108.769 C 116.180 112.767, 114 117.169, 114 118.551 C 114 121.520, 116.500 122.794, 119.119 121.158 C 121.733 119.526, 121.978 119.638, 123.150 123 C 124.346 126.431, 125.255 126.605, 130.628 124.438 C 138.291 121.345, 141.545 119.668, 144.253 117.415 C 147.572 114.653, 165.568 106, 167.993 106 C 168.942 106, 172.369 104.656, 175.609 103.013 C 178.849 101.370, 182.424 100.020, 183.554 100.013 C 185.923 99.998, 192 94.144, 192 91.877 C 192 91.036, 190.909 89.324, 189.576 88.072 C 187.382 86.010, 186.812 85.907, 183.551 86.983 C 181.570 87.637, 178.723 89.188, 177.225 90.430 C 174.564 92.634, 166.086 96, 163.193 96 C 162.009 96, 161.888 95.033, 162.531 90.750 C 162.965 87.862, 163.240 83.844, 163.141 81.821 C 163.043 79.797, 163.421 77.858, 163.981 77.512 C 164.541 77.165, 165 76.087, 165 75.115 C 165 72.962, 168.617 69.436, 173.143 67.176 C 175.798 65.851, 176.567 64.801, 176.820 62.156 C 177.134 58.886, 174.906 55, 172.718 55 C 169.963 55, 157.905 61.914, 153.773 65.862 C 148.622 70.784, 146.880 70.731, 148.853 65.712 C 149.548 63.945, 150.950 59.321, 151.969 55.436 C 152.989 51.551, 155.193 45.840, 156.868 42.744 C 158.542 39.649, 160.292 35.654, 160.755 33.867 C 161.331 31.641, 162.369 30.410, 164.048 29.957 C 165.397 29.593, 168.250 28.104, 170.390 26.647 C 172.529 25.191, 174.645 24, 175.092 24 C 175.538 24, 177.328 21.931, 179.068 19.401 C 181.900 15.285, 182.097 14.550, 180.947 12.401 C 179.052 8.860, 176.295 9.450, 170.824 14.568 C 164.096 20.861, 161.490 20.152, 163.399 12.547 C 164.549 7.963, 157.024 3.567, 154.331 7.250 M 59.414 65.486 C 58.486 69.186, 58.660 71.815, 60.312 79 C 63.014 90.754, 64.302 106.800, 63.521 119 C 63.117 125.325, 62.630 144.082, 62.439 160.682 C 62.249 177.283, 61.597 197.505, 60.991 205.622 C 59.984 219.107, 60.042 220.662, 61.659 223.665 C 63.818 227.675, 65.532 228.441, 68.184 226.584 C 70.058 225.271, 70.229 223.900, 70.525 207.834 C 70.700 198.300, 71.126 184.425, 71.471 177 C 72.180 161.722, 72.821 160.327, 79.560 159.385 C 88.884 158.081, 92.386 154.939, 89.080 150.843 C 87.595 149.002, 85.617 148.286, 79.845 147.500 L 72.500 146.500 72.408 116 C 72.279 73.106, 70.372 63, 62.408 63 C 60.718 63, 59.859 63.713, 59.414 65.486 M 140.736 87.017 C 138.681 91.427, 137 95.554, 137 96.188 C 137 96.823, 136.371 98.053, 135.602 98.921 C 132.891 101.981, 128.009 112, 129.229 112 C 131.269 112, 139.303 108.737, 143.207 106.322 C 147.463 103.690, 148.044 102.774, 150.965 94.103 C 153.735 85.882, 153.417 81.623, 150 81.165 C 148.625 80.981, 147.072 80.419, 146.550 79.915 C 144.926 78.351, 144.576 78.779, 140.736 87.017 M 168 124.761 C 166.625 125.673, 163.811 127.899, 161.747 129.709 C 159.683 131.519, 157.635 133, 157.196 133 C 156.757 133, 154.396 135.016, 151.949 137.480 C 149.502 139.944, 147.102 141.969, 146.615 141.980 C 146.128 141.991, 144.687 140.875, 143.412 139.500 C 137.143 132.735, 132.960 140.401, 135.910 153.250 C 138.475 164.427, 138.609 166.991, 137.286 179.605 C 136.543 186.697, 135.499 193.281, 134.967 194.236 C 134.435 195.191, 134.006 196.766, 134.013 197.736 C 134.028 199.796, 131.104 213.578, 130.033 216.500 C 128.022 221.983, 126.784 225.690, 126.360 227.500 C 125.003 233.286, 123.516 237.662, 122.451 239 C 121.794 239.825, 120.299 243.200, 119.128 246.500 C 117.141 252.100, 117.111 252.583, 118.690 253.750 C 121.186 255.594, 123.394 255.280, 125.719 252.750 C 128.765 249.436, 133.965 237.640, 135.475 230.623 C 137.776 219.924, 139.440 218.424, 141.625 225.075 C 143.575 231.009, 146.746 230.149, 152.966 222 C 154.855 219.525, 159.573 213.810, 163.450 209.300 C 167.328 204.789, 171.400 199.893, 172.500 198.418 C 177.561 191.633, 180.886 188.514, 181.943 189.557 C 183.178 190.775, 183.601 210.186, 182.543 217.016 C 182.158 219.499, 181.766 233.314, 181.672 247.716 C 181.544 267.137, 181.177 274.223, 180.250 275.150 C 179.563 275.838, 179 277.243, 179 278.273 C 179 283.848, 171.389 274.517, 166.542 263 C 165.501 260.525, 163.830 257.614, 162.828 256.532 C 161.149 254.716, 160.882 254.690, 159.386 256.185 C 157.890 257.681, 157.929 258.317, 159.882 264.363 C 161.047 267.968, 162 271.659, 162 272.564 C 162 277.514, 175.401 296, 178.990 296 C 179.840 296, 182.231 294.848, 184.302 293.441 C 187.760 291.091, 188.015 290.599, 187.421 287.430 C 187.065 285.531, 187.215 283.421, 187.756 282.739 C 190.098 279.784, 191.151 269.832, 191.599 246.410 C 192.540 197.136, 192.271 173.549, 190.735 170.573 C 189.715 168.597, 188.615 162.209, 187.022 149 C 185.510 136.467, 183.484 130.726, 178.641 125.250 C 176.263 122.560, 171.642 122.348, 168 124.761 M 34.768 125.272 C 32.807 126.820, 31.997 132.548, 33.182 136.488 C 34.192 139.847, 34.325 155.473, 33.393 161.215 C 33.061 163.258, 32.162 165.451, 31.395 166.087 C 30.607 166.741, 30 169.073, 30 171.448 C 30 174.651, 30.602 176.217, 32.527 178.026 L 35.055 180.400 37.681 177.774 C 41.207 174.248, 42.967 168.785, 42.985 161.309 C 42.993 157.904, 43.450 154.840, 44 154.500 C 45.286 153.705, 45.315 135.313, 44.032 134.520 C 43.499 134.191, 43.123 132.348, 43.195 130.424 C 43.268 128.501, 42.916 126.551, 42.413 126.093 C 40.677 124.506, 36.328 124.039, 34.768 125.272 M 161.428 144.172 C 148.161 154.960, 148.069 155.098, 148.032 164.281 C 147.996 173.118, 148.794 174.079, 154.180 171.684 C 158.627 169.707, 168.118 168, 174.667 168 C 177.600 168, 180 167.559, 180 167.020 C 180 166.481, 179.360 164.344, 178.578 162.270 C 177.796 160.197, 176.863 155.178, 176.505 151.119 C 176.146 147.059, 175.469 143.009, 175 142.119 C 174.530 141.228, 173.902 139.713, 173.604 138.750 C 172.689 135.791, 170.579 136.730, 161.428 144.172 M 179 179 C 179 179.550, 179.675 180, 180.500 180 C 181.325 180, 182 179.550, 182 179 C 182 178.450, 181.325 178, 180.500 178 C 179.675 178, 179 178.450, 179 179 M 162.500 182.390 C 160.850 183.024, 158.517 184.095, 157.316 184.771 C 154.650 186.271, 151.753 186.353, 150.367 184.967 C 148.626 183.226, 146.081 185.021, 145.573 188.347 C 143.555 201.555, 141.781 209.591, 140.037 213.418 C 138.917 215.878, 138 218.365, 138 218.945 C 138 220.388, 139.701 220.274, 140.925 218.750 C 145.733 212.766, 157.552 199.903, 164.900 192.659 C 170.444 187.193, 173.661 183.280, 173.327 182.409 C 172.679 180.720, 166.877 180.710, 162.500 182.390" stroke="none" fill="black" fill-rule="evenodd"/>
</svg>