<svg xmlns="http://www.w3.org/2000/svg" width="300" height="300" viewBox="0 0 300 300" version="1.1">
	<path d="M 150.506 15.750 C 149.090 17.262, 146.366 21.740, 144.453 25.699 C 142.539 29.659, 140.530 33.173, 139.987 33.508 C 139.444 33.844, 139 34.855, 139 35.755 C 139 37.526, 135.543 42.993, 130.150 49.751 C 127.349 53.261, 126.974 54.264, 128.001 55.501 C 130.018 57.931, 131.470 57.305, 137.434 51.435 C 143.156 45.805, 146.710 44.642, 146.287 48.538 C 145.852 52.549, 145.966 57.625, 146.583 61.800 C 147.344 66.938, 146.111 68.652, 138.566 72.948 C 126.195 79.992, 119.366 82.990, 115.684 82.995 C 110.721 83.001, 107.996 84.526, 108.015 87.285 C 108.034 90.046, 108.767 91.080, 112.303 93.331 C 115.040 95.074, 115.299 95.051, 123.303 92.351 C 130.231 90.015, 134.786 87.500, 146.582 79.500 C 147.619 78.797, 148.301 78.892, 148.881 79.820 C 149.794 81.283, 150.787 97.675, 150.612 108.410 C 150.486 116.211, 149.354 117.445, 145.688 113.779 C 143.744 111.835, 143.214 110.014, 142.730 103.611 C 142.093 95.185, 140.389 92, 136.519 92 C 134.531 92, 130 95.694, 130 97.316 C 130 97.693, 127.772 101.489, 125.050 105.751 C 114.458 122.331, 105.088 133, 101.120 133 C 95.712 133, 94.229 137.988, 98.457 141.959 C 100.362 143.749, 101.607 144.129, 104.003 143.649 C 108.077 142.835, 113.670 138.483, 116.592 133.854 C 119.259 129.629, 122.781 125.484, 131.713 116.057 C 136.994 110.485, 138.195 109.665, 139.713 110.601 C 140.696 111.206, 141.636 113.006, 141.802 114.601 C 142.273 119.132, 144.584 123.316, 148.014 125.852 C 153.861 130.175, 158.028 126.777, 159.361 116.601 C 160.219 110.051, 161.174 109.098, 166.289 109.681 C 175.593 110.743, 181.578 112.101, 185.656 114.075 C 189.418 115.896, 190.405 116.002, 193.721 114.934 C 195.799 114.265, 198.063 113.570, 198.750 113.390 C 200.644 112.894, 200.275 106.549, 198.250 104.788 C 197.183 103.861, 193.455 103.023, 188.700 102.642 C 184.410 102.298, 179.998 101.534, 178.896 100.944 C 177.793 100.354, 173.767 99.999, 169.950 100.154 C 160.314 100.548, 160.191 100.364, 159.490 84.496 L 158.915 71.500 165.941 64.500 C 172.045 58.418, 172.968 57.025, 172.983 53.872 C 173.001 49.928, 171.124 47.637, 168.316 48.178 C 167.337 48.366, 164.777 50.878, 162.628 53.760 C 157.178 61.066, 155.350 60.779, 154.461 52.479 C 153.895 47.193, 153.290 45.587, 151.269 43.997 C 148.215 41.595, 148.646 38.996, 153.328 31.574 C 160.003 20.993, 160.467 18.727, 156.686 15.174 C 153.758 12.424, 153.607 12.438, 150.506 15.750 M 55.486 74.028 C 53.725 77.433, 54.306 83.179, 56.605 85.087 C 57.404 85.750, 58 88.089, 58 90.563 C 58 92.939, 58.384 95.119, 58.853 95.409 C 59.322 95.699, 59.982 100.338, 60.321 105.718 C 60.659 111.098, 61.441 122.700, 62.059 131.500 C 62.706 140.715, 62.905 154.497, 62.527 164 C 61.289 195.200, 60.492 202.245, 57.941 204.554 C 55.856 206.441, 55.373 209.494, 57 210.500 C 57.550 210.840, 58 211.922, 58 212.904 C 58 215.201, 61.092 218, 63.629 218 C 66.665 218, 68 215.995, 68 211.436 C 68 209.147, 68.415 205.074, 68.923 202.386 C 69.430 199.699, 70.114 192.100, 70.443 185.500 C 71.376 166.763, 71.850 164, 74.127 164 C 77.371 164, 85.363 159.390, 87.750 156.142 C 90.750 152.061, 90.656 148.476, 87.495 146.405 C 85.058 144.808, 84.845 144.876, 79.530 148.977 C 76.527 151.294, 73.517 153.006, 72.843 152.781 C 71.960 152.487, 71.534 147.912, 71.322 136.436 C 70.735 104.708, 69.857 95.256, 65.938 78.500 C 64.474 72.236, 63.479 71, 59.903 71 C 57.740 71, 56.673 71.731, 55.486 74.028 M 28.415 132.482 C 28.072 133.848, 28.262 137.110, 28.836 139.732 C 31.796 153.254, 32.171 159.722, 30.194 163.169 C 28.806 165.590, 28.821 166.078, 30.355 168.419 C 32.632 171.894, 37.323 171.963, 39.556 168.556 C 41.611 165.418, 42.004 160.374, 40.922 151 C 38.960 133.998, 39.023 134.211, 35.315 132.024 C 30.805 129.362, 29.171 129.471, 28.415 132.482 M 139.200 135.200 C 137.746 136.654, 137.610 141.641, 139 142.500 C 140.322 143.317, 140.274 148.165, 138.908 151.685 C 138.307 153.233, 137.431 157.159, 136.961 160.410 C 135.581 169.953, 137.393 172.647, 152.318 183.245 C 160.361 188.955, 160.923 191.158, 154.750 192.778 C 134.849 198.001, 109.472 209.522, 103.634 215.983 C 101.636 218.195, 100 220.762, 100 221.687 C 100 225.164, 104.325 232.181, 107.870 234.454 C 111.842 237.002, 118.616 243.893, 121.472 248.292 C 122.470 249.828, 126.529 254.523, 130.493 258.725 L 137.701 266.366 140.892 265.045 C 144.863 263.400, 154.418 253.010, 157.486 247 C 158.750 244.525, 160.732 241.643, 161.892 240.595 C 163.051 239.547, 164 238.121, 164 237.426 C 164 236.731, 164.647 234.888, 165.439 233.331 C 168.557 227.195, 169.835 223.123, 171.504 214 C 172.459 208.775, 173.628 203.486, 174.100 202.248 C 175.818 197.744, 181.558 195.642, 202 192.029 C 205.575 191.397, 210.075 190.492, 212 190.018 C 213.925 189.544, 218.200 188.676, 221.500 188.089 C 224.800 187.503, 232.643 185.937, 238.928 184.611 C 245.213 183.285, 250.902 182.409, 251.569 182.665 C 253.229 183.302, 260 177.203, 260 175.071 C 260 174.124, 258.860 172.277, 257.466 170.968 C 255.136 168.779, 254.673 168.693, 251.716 169.901 C 249.947 170.623, 246.700 171.579, 244.500 172.025 C 242.300 172.471, 236.450 173.797, 231.500 174.972 C 226.550 176.147, 218.225 177.923, 213 178.918 C 207.775 179.913, 201.700 181.222, 199.500 181.826 C 194.080 183.315, 174.582 187, 172.124 187 C 171.036 187, 169.188 185.762, 168.018 184.250 C 164.064 179.139, 154.706 170, 153.425 170 C 152.726 170, 150.769 168.835, 149.077 167.411 C 145.387 164.307, 145.001 160.029, 148 155.500 C 149.157 153.753, 149.990 150.808, 149.993 148.450 C 149.997 146.222, 150.495 143.905, 151.099 143.301 C 152.803 141.597, 151.153 138.064, 147.661 135.935 C 144.046 133.731, 140.939 133.461, 139.200 135.200 M 157.450 202.862 C 156.928 203.336, 154.700 204.208, 152.500 204.801 C 135.509 209.375, 117.153 218.816, 113.619 224.798 C 112.957 225.920, 114.709 228.172, 120.697 233.895 C 125.073 238.078, 130.044 243.551, 131.743 246.058 C 133.441 248.564, 135.538 251.202, 136.403 251.919 C 138.873 253.970, 142.960 252.414, 144.162 248.965 C 144.731 247.334, 145.505 246, 145.882 246 C 146.260 246, 147.414 244.537, 148.448 242.750 C 149.481 240.963, 151.513 237.925, 152.963 236 C 155.270 232.937, 156.479 230.458, 160.033 221.500 C 161.383 218.099, 163.286 204.271, 162.565 203.104 C 161.752 201.790, 158.787 201.649, 157.450 202.862" stroke="none" fill="black" fill-rule="evenodd"/>
</svg>