<svg xmlns="http://www.w3.org/2000/svg" width="300" height="300" viewBox="0 0 300 300" version="1.1">
	<path d="M 88.473 56.378 C 84.551 59.118, 77.333 63.099, 69 67.119 C 47.424 77.528, 41.289 80.345, 38.500 81.121 C 36.850 81.580, 32.574 82.756, 28.997 83.734 C 25.421 84.712, 21.076 86.522, 19.343 87.756 C 17.609 88.990, 15.234 90, 14.064 90 C 11.366 90, 10.413 92.417, 11.860 95.592 C 13.979 100.243, 17.016 99.916, 32.849 93.336 C 37.442 91.427, 41.306 90.008, 41.436 90.183 C 41.567 90.357, 41.320 105.575, 40.887 124 C 40.175 154.300, 39.652 162.962, 37.435 181.161 L 36.746 186.822 20.934 202.348 C 12.238 210.887, 3.950 218.642, 2.516 219.582 C 0.146 221.134, -0.064 221.800, 0.204 226.895 C 0.455 231.638, 0.811 232.545, 2.520 232.789 C 4.665 233.097, 11.573 226.593, 23.007 213.500 C 29.573 205.982, 32.598 202.843, 49.284 186.234 C 55.215 180.330, 60.338 174.375, 60.668 173 C 60.998 171.625, 61.927 169.741, 62.732 168.813 C 64.283 167.025, 63.708 165, 61.649 165 C 60.971 165, 58.429 167.025, 56 169.500 C 53.169 172.385, 50.712 174, 49.156 174 C 46.843 174, 46.758 173.780, 47.364 169.360 C 47.714 166.809, 48 163.655, 48 162.352 C 48 160.522, 48.910 159.620, 52.004 158.382 C 54.206 157.501, 57.047 155.545, 58.317 154.036 C 61.468 150.290, 65.907 147.494, 66.943 148.601 C 67.406 149.096, 67.414 155.773, 66.962 163.440 C 66.510 171.107, 66.006 187.082, 65.843 198.940 C 65.408 230.606, 65.168 233.723, 63.121 234.258 C 60.468 234.952, 58.735 241.936, 60.181 246.108 C 61.914 251.108, 65.340 257.303, 66.599 257.710 C 67.203 257.906, 68.778 257.192, 70.099 256.124 C 72.346 254.307, 72.549 253.295, 73.257 240.341 C 73.674 232.729, 74.205 220.650, 74.438 213.500 C 74.671 206.350, 75.128 192.400, 75.454 182.500 C 76.423 153.063, 76.557 104.475, 75.709 89.942 C 74.842 75.096, 75.103 74.238, 81 72.500 C 82.375 72.095, 84.175 71.216, 85 70.546 C 85.825 69.877, 88.418 68.409, 90.762 67.284 C 93.106 66.159, 95.962 64.047, 97.108 62.590 C 99.064 60.103, 99.092 59.790, 97.573 57.471 C 95.732 54.661, 91.634 54.169, 88.473 56.378 M 57.517 82.527 C 51.914 85.425, 51.484 85.902, 50.730 90.060 C 50.287 92.502, 49.834 100.220, 49.723 107.211 C 49.475 122.852, 50.195 124.169, 55.932 118.567 C 59.807 114.782, 60.643 114.599, 65.296 116.511 C 66.983 117.204, 67.079 116.322, 66.887 102.004 C 66.711 88.956, 65.646 80.924, 63.935 79.735 C 63.696 79.569, 60.808 80.825, 57.517 82.527 M 193 118.873 C 187.274 122.240, 175.551 127.095, 170.648 128.132 C 165.665 129.185, 163.584 129.116, 156.622 127.669 C 152.125 126.735, 146.575 125.044, 144.288 123.912 C 136.828 120.221, 131.089 122.887, 134.011 128.685 C 134.791 130.233, 137.695 134.291, 140.465 137.703 C 148.873 148.060, 150.207 150.831, 152.646 163 C 153.395 166.735, 151.438 171, 148.975 171 C 144.962 171, 130.481 161.563, 129.291 158.174 C 127.768 153.832, 123.857 150, 120.949 150 C 118.096 150, 118 150.155, 118 154.772 C 118 158.643, 118.591 160.261, 121.130 163.342 C 122.852 165.430, 125.889 168.218, 127.880 169.535 C 129.871 170.853, 133.300 173.279, 135.500 174.926 C 140.317 178.533, 144.873 180.698, 149.453 181.557 C 152.536 182.135, 153.297 181.756, 157.517 177.535 C 162.084 172.968, 162.168 172.771, 161.690 167.687 C 160.578 155.860, 157.699 146.639, 153.769 142.321 C 150.179 138.378, 151.668 137.757, 165.042 137.624 C 172.264 137.552, 178.341 137.023, 179.500 136.364 C 180.600 135.739, 183.975 134.226, 187 133.002 C 190.025 131.778, 193.984 130.149, 195.798 129.381 C 198.788 128.117, 199.585 128.193, 204.298 130.190 C 210.029 132.619, 210.962 133.508, 210.985 136.563 C 210.993 137.698, 212.308 139.879, 213.906 141.410 C 216.846 144.227, 219.529 144.332, 222.750 141.755 C 224.501 140.354, 224.309 135.502, 222.442 133.952 C 221.586 133.241, 219.777 130.768, 218.422 128.457 C 216.500 125.177, 214.652 123.668, 210.007 121.584 C 203.650 118.731, 195.462 117.426, 193 118.873 M 61.632 129.018 C 59.742 130.678, 56.688 132.543, 54.847 133.163 C 49.614 134.925, 49 135.813, 49 141.622 C 49 148.619, 50.327 148.599, 57.370 141.500 C 60.371 138.475, 63.492 136, 64.306 136 C 66.134 136, 67 133.884, 67 129.418 C 67 125.218, 66.041 125.147, 61.632 129.018 M 88.200 136.200 C 86.536 137.864, 86.698 144.193, 88.494 147.636 C 90.408 151.306, 90.429 159.050, 88.532 161.559 C 87.724 162.626, 87.049 164.457, 87.032 165.628 C 87.014 166.798, 86.325 168.315, 85.500 169 C 83.563 170.608, 83.562 176.392, 85.499 177.999 C 87.244 179.447, 91.808 177.982, 94.348 175.159 C 96.157 173.148, 100 158.530, 100 153.660 C 100 147.944, 97.809 139.664, 95.657 137.250 C 93.465 134.791, 90.085 134.315, 88.200 136.200" stroke="none" fill="black" fill-rule="evenodd"/>
</svg>