<svg xmlns="http://www.w3.org/2000/svg" width="300" height="300" viewBox="0 0 300 300" version="1.1">
	<path d="M 91.250 8.662 C 90.563 8.940, 90 10.749, 90 12.684 C 90 15.507, 90.884 17.097, 94.482 20.747 C 100.133 26.479, 101.281 31.007, 97.975 34.527 C 96.094 36.528, 95.924 37.203, 96.976 38.471 C 98.673 40.515, 100.209 40.400, 104.430 37.909 C 108.368 35.585, 111.169 29.168, 109.287 26.782 C 108.731 26.077, 107.957 24.150, 107.567 22.500 C 106.657 18.646, 101.289 10.225, 98.941 8.969 C 97.043 7.953, 93.371 7.806, 91.250 8.662 M 134 19.800 C 133.175 20.078, 130.250 22.630, 127.500 25.472 C 124.750 28.314, 121.150 31.494, 119.500 32.538 C 117.850 33.583, 114.174 36.126, 111.332 38.190 C 95.893 49.400, 74.048 59.119, 54.531 63.461 C 46.695 65.204, 43 67.690, 43 71.220 C 43 72.233, 43.743 73.348, 44.651 73.696 C 46.935 74.573, 62.700 71.429, 68.860 68.870 C 75.978 65.911, 77.369 66.684, 76.485 73.106 C 76.100 75.910, 75.379 81.870, 74.883 86.352 C 73.966 94.636, 73.811 95.673, 72.165 104.500 C 71.096 110.233, 66.935 124.489, 63.898 132.821 C 62.759 135.945, 61.252 140.525, 60.548 143 C 59.844 145.475, 58.047 150.425, 56.555 154 C 55.064 157.575, 52.732 163.842, 51.374 167.926 C 50.016 172.010, 48.299 176.510, 47.558 177.926 C 46.816 179.342, 44.971 183.650, 43.458 187.500 C 39.065 198.671, 15.354 247.290, 12.003 251.996 C 8.946 256.288, 9.358 259.581, 13.115 260.890 C 16.839 262.189, 17.751 261.734, 19.654 257.628 C 20.452 255.908, 23.558 250, 26.556 244.500 C 29.555 239, 32.505 233.375, 33.112 232 C 33.719 230.625, 34.705 228.600, 35.303 227.500 C 40.619 217.731, 48.974 200.142, 48.986 198.697 C 48.994 197.705, 50.125 195.238, 51.500 193.215 C 52.875 191.191, 54 188.936, 54 188.203 C 54 187.013, 56.659 179.894, 59.118 174.500 C 59.620 173.400, 60.448 171.150, 60.959 169.500 C 64.487 158.103, 66.286 156.044, 72.742 156.015 C 74.889 156.005, 76.405 155.325, 77.232 154 C 77.919 152.900, 79.385 151.997, 80.491 151.994 C 81.596 151.990, 83.625 151.376, 85 150.629 C 86.375 149.882, 89.975 147.993, 93 146.432 C 96.025 144.871, 100.975 141.754, 104 139.506 C 107.025 137.258, 111.975 133.777, 115 131.770 C 118.025 129.763, 122.833 126.182, 125.685 123.811 C 131.167 119.252, 133.360 117.691, 144.382 110.494 C 152.019 105.508, 154 105.007, 154 108.062 C 154 110.778, 151.003 119.880, 149.880 120.574 C 149.396 120.873, 149 122.054, 149 123.198 C 149 124.342, 146.494 128.133, 143.430 131.622 C 140.367 135.111, 138.144 138.424, 138.489 138.983 C 139.568 140.728, 142.345 140.046, 146.500 137.016 C 148.700 135.412, 151.625 133.365, 153 132.467 C 155.892 130.580, 162 121.314, 162 118.815 C 162 117.882, 162.450 116.840, 163 116.500 C 163.550 116.160, 164 114.649, 164 113.141 C 164 111.633, 164.492 109.908, 165.093 109.307 C 166.764 107.636, 164.348 97.256, 161.994 95.997 C 158.872 94.326, 151.730 94.864, 147.485 97.090 C 141.492 100.233, 122.682 113.256, 111.500 122.004 C 101.554 129.786, 97.642 132.256, 84.729 138.907 C 77.155 142.808, 70.743 146, 70.479 146 C 69.522 146, 70.033 142.746, 71.398 140.154 C 72.166 138.694, 73.332 135.700, 73.989 133.500 C 74.646 131.300, 75.947 127.925, 76.880 126 C 78.390 122.888, 78.960 122.532, 82.024 122.786 C 84.377 122.981, 87.855 121.920, 92.985 119.441 C 97.118 117.445, 102.975 114.654, 106 113.239 C 109.025 111.825, 112.694 110.067, 114.154 109.334 C 115.614 108.600, 117.700 108, 118.790 108 C 122.197 108, 126.129 105.324, 128.580 101.336 C 131.337 96.850, 131.572 94.720, 129.500 93 C 127.177 91.072, 127.676 89.246, 131.909 84.179 C 134.059 81.606, 137.262 76.420, 139.026 72.655 C 141.719 66.911, 142.057 65.420, 141.130 63.385 C 139.251 59.261, 133.580 58.154, 126.320 60.494 C 124.421 61.106, 123.858 60.541, 121.947 56.098 C 119.544 50.511, 119.635 50.590, 117.093 51.950 C 115.818 52.632, 115.299 54.160, 115.251 57.374 C 115.152 63.874, 114.382 65.460, 110.675 66.801 C 105.823 68.555, 105.289 68.355, 104.568 64.512 C 103.847 60.668, 101.033 58.537, 97.962 59.512 C 96.235 60.060, 96 61.063, 96 67.889 L 96 75.643 91.250 78.759 C 88.638 80.473, 86.137 81.517, 85.693 81.080 C 84.539 79.944, 87.054 63.200, 88.567 61.944 C 89.262 61.367, 93.581 58.980, 98.165 56.639 C 108.054 51.589, 110.720 49.941, 118 44.382 C 121.025 42.072, 125.358 39.129, 127.629 37.841 C 133.002 34.794, 142 26.599, 142 24.752 C 142 22.006, 136.873 18.832, 134 19.800 M 107.428 80.470 C 105.178 83.904, 104.413 98, 106.476 98 C 108.368 98, 110.170 94.717, 111.692 88.500 C 113.561 80.863, 113.378 78, 111.023 78 C 109.936 78, 108.318 79.112, 107.428 80.470 M 88.855 94.288 C 83.001 99.597, 81.251 102.473, 80.833 107.475 C 80.564 110.690, 80.852 111.520, 82.339 111.815 C 83.351 112.017, 85.151 111.314, 86.339 110.255 C 87.528 109.196, 90.168 107.568, 92.208 106.638 C 94.247 105.708, 96.208 104.473, 96.566 103.894 C 97.636 102.161, 95.973 89.996, 94.670 90.038 C 94.027 90.060, 91.410 91.972, 88.855 94.288 M 158 137.118 C 152.775 139.278, 144.324 142.151, 139.220 143.502 C 130.069 145.925, 129.842 145.935, 122.953 144.282 C 116.632 142.765, 115.818 142.754, 114.411 144.160 C 111.880 146.691, 113.469 152.097, 117.570 154.907 C 120.253 156.746, 121 157.944, 121 160.406 C 121 164.432, 118.509 167.999, 115.693 168.005 C 114.487 168.007, 109.762 167.235, 105.193 166.288 C 98.089 164.815, 96.760 164.770, 96.014 165.978 C 94.778 167.978, 100.322 174.690, 104.732 176.532 C 106.664 177.340, 110.609 178, 113.500 178 C 124.322 178, 132 171.924, 132 163.360 C 132 159.274, 132.123 159.119, 136.750 157.371 C 139.363 156.385, 142.625 155, 144 154.295 C 146.985 152.764, 151.636 152.602, 152.500 154 C 152.840 154.550, 153.940 155, 154.945 155 C 157.065 155, 167.449 148.279, 171.339 144.389 C 174.183 141.544, 174.891 136.958, 172.750 135.245 C 169.937 132.994, 167.102 133.354, 158 137.118 M 86.216 157.561 C 84.031 159.092, 80 166.224, 80 168.560 C 80 171.143, 61.652 193, 59.484 193 C 58.839 193, 57.486 193.911, 56.478 195.024 C 54.699 196.990, 54.705 197.128, 56.672 199.774 C 58.107 201.705, 59.758 202.590, 62.329 202.809 C 65.480 203.077, 66.633 202.488, 71.064 198.344 C 73.871 195.717, 77.274 191.682, 78.626 189.375 C 79.978 187.069, 81.655 184.963, 82.353 184.695 C 83.052 184.427, 85.087 181.123, 86.876 177.354 C 88.665 173.584, 90.807 169.250, 91.637 167.722 C 93.195 164.855, 92.767 159.739, 90.762 157.250 C 89.462 155.636, 88.910 155.674, 86.216 157.561 M 104.409 180.765 C 103.810 181.169, 101.429 184.984, 99.118 189.241 C 96.808 193.499, 92.132 201.149, 88.728 206.241 C 81.440 217.141, 80.407 218.795, 79.108 221.645 C 77.788 224.539, 76.229 224.911, 71.500 223.461 C 60.356 220.044, 58.523 219.603, 55.629 219.645 C 53.908 219.670, 50.588 220.228, 48.250 220.884 C 44.848 221.839, 44.015 222.518, 44.073 224.289 C 44.190 227.832, 47.466 232.535, 49.610 232.238 C 55.727 231.392, 66.522 232.094, 67.853 233.424 C 69.122 234.694, 68.940 235.334, 66.402 238.515 C 64.806 240.516, 62.351 243.356, 60.946 244.827 C 59.542 246.297, 56.944 249.621, 55.174 252.213 C 53.403 254.805, 51.400 257.280, 50.722 257.713 C 50.043 258.146, 48.271 260.134, 46.784 262.132 C 45.296 264.129, 42.453 267.279, 40.466 269.132 C 35.620 273.649, 34.676 275.525, 36 278 C 37.815 281.392, 42.054 280.546, 46.803 275.844 C 49.111 273.559, 51 271.180, 51 270.559 C 51 269.938, 52.725 268.004, 54.833 266.260 C 56.941 264.517, 59.963 261.157, 61.549 258.795 C 63.134 256.433, 65.797 253.124, 67.466 251.442 C 69.135 249.760, 72.437 246.048, 74.805 243.192 C 79.812 237.154, 80.736 236.994, 90.401 240.500 C 94.192 241.875, 97.453 243, 97.647 243 C 98.554 243, 97.787 246.697, 96.538 248.346 C 93.060 252.936, 78.332 268.686, 65.769 281.250 C 56.040 290.979, 51.344 295, 49.710 295 C 47.156 295, 45 296.694, 45 298.700 C 45 299.602, 46.606 299.998, 50.250 299.994 C 59.804 299.984, 62.177 298.721, 72.738 288.028 C 90.907 269.630, 99.585 260.518, 103.957 255.250 C 108.187 250.152, 111.942 248.479, 113.500 251 C 113.840 251.550, 114.900 252, 115.855 252 C 116.810 252, 120.723 253.912, 124.550 256.250 C 128.377 258.587, 133.982 261.805, 137.004 263.399 C 140.027 264.994, 143.129 266.792, 143.899 267.395 C 145.513 268.660, 154.601 273.448, 164 277.985 C 167.575 279.710, 171.175 281.550, 172 282.074 C 172.825 282.597, 175.300 283.875, 177.500 284.914 C 179.700 285.953, 183.050 287.972, 184.944 289.401 C 186.839 290.831, 188.896 292, 189.517 292 C 190.138 292, 193.412 293.340, 196.794 294.978 C 205.640 299.263, 210.176 300.130, 222 299.796 L 232.500 299.500 228.765 297.293 C 226.711 296.079, 223.160 294.582, 220.874 293.966 C 218.588 293.351, 214.990 291.756, 212.879 290.423 C 210.767 289.091, 208.636 288, 208.142 288 C 207.649 288, 206.685 287.325, 206 286.500 C 205.315 285.675, 203.959 285, 202.987 285 C 200.684 285, 194.316 282.102, 190.303 279.229 C 188.559 277.980, 185.415 276.351, 183.316 275.610 C 179.982 274.432, 171.183 270.208, 160.138 264.484 C 158.289 263.526, 154.014 260.991, 150.638 258.852 C 147.262 256.712, 141.909 253.672, 138.743 252.097 C 135.577 250.522, 132.427 248.808, 131.743 248.289 C 131.059 247.769, 128.370 246.557, 125.766 245.596 C 123.163 244.634, 120.013 243.015, 118.766 241.997 L 116.500 240.148 119.554 236.824 C 127.362 228.326, 133 219.458, 133 215.676 C 133 214.838, 134.125 212.816, 135.500 211.182 C 136.969 209.436, 138 206.955, 138 205.165 C 138 203.489, 138.450 201.840, 139 201.500 C 139.550 201.160, 140 199.585, 140 198 C 140 196.415, 139.550 194.840, 139 194.500 C 138.450 194.160, 138 192.816, 138 191.514 C 138 188.950, 133.808 185, 131.088 185 C 130.184 185, 128.557 185.611, 127.473 186.358 C 126.388 187.104, 123.820 188.262, 121.766 188.930 C 119.712 189.598, 117.012 191.432, 115.766 193.005 C 113.152 196.304, 108 198.121, 108 195.743 C 108 194.933, 108.823 193.197, 109.830 191.885 C 112.696 188.149, 113.014 186.335, 111.376 183.051 C 109.875 180.043, 106.920 179.074, 104.409 180.765 M 122.605 200.884 C 120.688 203.002, 111.504 208, 109.530 208 C 108.823 208, 107.578 209.002, 106.765 210.227 C 105.648 211.910, 104.312 212.455, 101.301 212.455 C 97.448 212.455, 97.145 212.709, 92.158 220.134 C 89.321 224.357, 87 228.299, 87 228.893 C 87 230.165, 92.838 232.851, 98.500 234.182 C 107.783 236.366, 107.297 236.456, 111.019 231.849 C 117.372 223.982, 124.709 211.381, 125.951 206.203 C 127.608 199.299, 126.144 196.973, 122.605 200.884" stroke="none" fill="black" fill-rule="evenodd"/>
</svg>