<svg xmlns="http://www.w3.org/2000/svg" width="300" height="300" viewBox="0 0 300 300" version="1.1">
	<path d="M 119.274 4.006 C 119.975 9.230, 118.516 10.788, 109 14.983 C 97.783 19.928, 96.170 21.942, 99.557 26.777 C 101.796 29.974, 105.673 29.576, 112 25.500 C 117.865 21.721, 119.445 21.311, 120.675 23.250 C 121.789 25.008, 121.099 46.175, 119.880 47.645 C 119.327 48.311, 116.540 50.068, 113.687 51.549 C 110.834 53.031, 106.415 55.763, 103.866 57.621 C 101.317 59.480, 98.746 61, 98.151 61 C 95.632 61, 94.922 64.867, 96.731 68.723 C 99.283 74.161, 102.433 74.251, 108.437 69.054 C 111.014 66.825, 113.575 65, 114.128 65 C 115.339 65, 114.383 68.346, 112.121 72.027 C 110.283 75.017, 104.520 84.487, 102.705 87.500 C 102.042 88.600, 101.223 89.725, 100.885 90 C 100.547 90.275, 98.852 93.024, 97.119 96.110 C 95.386 99.195, 93.075 102.527, 91.984 103.515 C 90.893 104.502, 90 105.712, 90 106.203 C 90 107.480, 71.845 131, 70.859 131 C 69.653 131, 68.720 126.459, 69.452 124.151 C 70.040 122.298, 67.309 106.645, 65.108 99.254 C 64.577 97.469, 63.210 94.699, 62.071 93.100 C 59.800 89.910, 59.463 87.041, 61 83.986 C 61.550 82.894, 62.457 81.095, 63.016 79.988 C 63.575 78.882, 64.722 75.844, 65.566 73.238 C 66.410 70.632, 67.493 67.600, 67.973 66.500 C 68.452 65.400, 69.621 62.348, 70.571 59.717 C 71.520 57.087, 72.680 54.698, 73.148 54.408 C 73.617 54.119, 74 53.046, 74 52.024 C 74 51.002, 74.941 47.991, 76.091 45.333 C 77.242 42.675, 78.560 36.900, 79.021 32.500 C 79.483 28.100, 80.151 23.555, 80.508 22.399 C 81.363 19.624, 78.691 17, 75.010 17 C 69.568 17, 69 17.703, 69 24.447 C 69 27.875, 68.042 34.240, 66.871 38.590 C 65.700 42.941, 64.528 47.947, 64.266 49.715 C 64.004 51.483, 63.162 53.451, 62.395 54.087 C 61.628 54.724, 61 56.320, 61 57.633 C 61 58.947, 60.162 61.929, 59.137 64.261 C 58.112 66.592, 56.491 70.525, 55.534 73 C 54.578 75.475, 53.391 78.281, 52.897 79.236 C 52.404 80.191, 52 81.408, 52 81.941 C 52 83.724, 38.782 103.469, 35.873 106.030 C 33.732 107.916, 33 109.458, 33 112.080 C 33 117.714, 36.829 119.891, 40.335 116.250 C 44.033 112.408, 50 104.470, 50 103.391 C 50 102.761, 50.698 101.666, 51.550 100.958 C 52.828 99.898, 53.381 99.952, 54.699 101.270 C 56.240 102.811, 56.946 105.596, 59.066 118.500 C 60.098 124.782, 59.715 142.213, 58.477 145.287 C 57.611 147.438, 60.480 151, 63.078 151 C 65.893 151, 70.638 146.393, 79.060 135.482 C 83.371 129.898, 87.596 124.750, 88.449 124.042 C 89.302 123.334, 90 122.265, 90 121.665 C 90 121.066, 91.161 119.433, 92.581 118.038 C 95.160 115.501, 97.233 112.678, 103.067 103.750 C 106.833 97.988, 108.695 97.700, 109.527 102.750 C 109.866 104.813, 110.534 107.400, 111.010 108.500 C 111.767 110.249, 112.951 119.651, 113.151 125.500 C 113.189 126.600, 112.878 131.445, 112.460 136.266 C 111.808 143.798, 111.229 145.764, 108.350 150.232 C 104.453 156.282, 104.239 158.002, 107.068 160.562 C 108.956 162.270, 109.371 162.303, 111.818 160.936 C 114.964 159.178, 119.943 150.627, 119.977 146.924 C 120 144.376, 123.622 140, 125.709 140 C 126.303 140, 128.198 138.683, 129.921 137.074 C 133.628 133.611, 138.825 132.116, 140.110 134.143 C 140.582 134.889, 140.976 139.222, 140.985 143.772 L 141 152.044 146.512 157.272 C 156.343 166.596, 158.776 168.273, 161.491 167.592 C 164.454 166.848, 166.732 162.794, 167.523 156.855 C 167.842 154.460, 168.510 149.800, 169.007 146.500 C 169.505 143.200, 170.422 133.975, 171.047 126 C 172.007 113.727, 171.944 110.194, 170.636 103 C 168.334 90.333, 167.473 86.728, 166.175 84.316 C 165.529 83.114, 164.989 81.314, 164.975 80.316 C 164.936 77.458, 158.272 69.097, 154.659 67.375 C 151.676 65.952, 151.077 65.958, 147.942 67.438 C 143.096 69.727, 135.955 73.770, 132.969 75.916 C 131.577 76.917, 128.652 78.654, 126.469 79.776 C 124.286 80.899, 121.178 83.208, 119.563 84.908 C 116.705 87.917, 114 88.962, 114 87.057 C 114 85.262, 118.236 78.944, 120.114 77.939 C 121.151 77.384, 122 76.027, 122 74.924 C 122 72.783, 124.759 68.382, 129.161 63.500 C 130.649 61.850, 133.359 57.837, 135.183 54.582 C 138.235 49.137, 139.178 48.314, 147 44.268 C 155.706 39.763, 160 36.537, 160 34.500 C 160 33.867, 158.900 32.315, 157.555 31.052 C 154.732 28.400, 151.615 28.746, 146.893 32.237 C 142.124 35.763, 141.238 33.562, 143.831 24.638 C 145.058 20.414, 145.747 15.973, 145.427 14.352 C 144.968 12.033, 145.483 10.907, 148.182 8.325 C 150.034 6.553, 152.825 5.007, 154.500 4.825 C 156.726 4.584, 157.582 3.920, 157.820 2.250 C 158.135 0.028, 157.996 0, 146.570 0 C 137.409 0, 135 0.287, 135 1.378 C 135 5.167, 129.661 5.636, 128.692 1.931 C 128.283 0.367, 127.290 0, 123.462 0 L 118.737 0 119.274 4.006 M 132 15.996 C 132 17.171, 131.505 19.056, 130.900 20.187 C 129.462 22.874, 130.658 33, 132.413 33 C 133.736 33, 135.695 25.515, 136.207 18.500 C 136.462 15.008, 136.214 14.459, 134.250 14.180 C 132.519 13.935, 132 14.354, 132 15.996 M 149 86 C 149 93.801, 150.018 94.739, 153.947 90.556 C 155.865 88.515, 156.126 87.485, 155.530 84.308 C 154.779 80.305, 153.637 79.041, 150.750 79.015 C 149.249 79.002, 149 79.994, 149 86 M 130.569 88.501 C 123.618 93.443, 120.089 97.862, 120.041 101.685 C 119.992 105.519, 121.565 110, 122.960 110 C 123.515 110, 126.853 108.088, 130.378 105.750 C 135.810 102.148, 136.870 100.966, 137.323 98 C 138.111 92.837, 137.647 85.715, 136.498 85.332 C 135.947 85.149, 133.279 86.575, 130.569 88.501 M 153.250 103.584 C 148.529 107.304, 149.055 108.383, 155.193 107.569 C 161.676 106.709, 161.838 106.601, 161.249 103.524 C 160.613 100.197, 157.517 100.220, 153.250 103.584 M 159.293 113.169 C 158.642 116.463, 157.640 117.999, 154.973 119.794 C 149.503 123.474, 148.584 126.122, 148.874 137.366 C 149.014 142.792, 149.662 148.172, 150.314 149.320 C 151.769 151.883, 155.129 154.922, 156.556 154.967 C 157.616 155, 158.894 146.970, 161.086 126.500 C 162.671 111.705, 162.697 109.758, 161.321 109.285 C 160.609 109.041, 159.805 110.580, 159.293 113.169 M 131.733 116.750 C 129.785 118.263, 126.765 120.286, 125.021 121.246 C 122.974 122.374, 121.970 123.613, 122.186 124.746 C 122.715 127.523, 126.694 127.435, 130.097 124.572 C 131.778 123.157, 133.569 122, 134.077 122 C 135.750 122, 139 118.039, 139 116 C 139 113.146, 135.972 113.459, 131.733 116.750 M 66.234 187.250 C 65.679 187.938, 64.894 190.975, 64.491 194 C 64.088 197.025, 62.974 201.300, 62.016 203.500 C 61.058 205.700, 59.425 209.521, 58.387 211.990 C 57.349 214.460, 55.038 218.402, 53.250 220.749 C 51.462 223.097, 50 225.487, 50 226.062 C 50 227.323, 40.035 239.738, 36.902 242.380 C 35.676 243.414, 33.169 245.148, 31.330 246.233 C 27.227 248.654, 25.885 252.711, 28.544 254.656 C 29.555 255.395, 31.037 256, 31.838 256 C 33.873 256, 42.902 249.840, 46.500 245.996 C 48.150 244.233, 50.513 241.774, 51.750 240.531 C 52.987 239.288, 54 237.955, 54 237.569 C 54 237.182, 55.237 235.252, 56.750 233.279 C 63.323 224.703, 73 205.550, 73 201.116 C 73 199.537, 73.675 197.685, 74.500 197 C 76.645 195.220, 76.363 193.165, 73.449 189.344 C 70.814 185.890, 67.995 185.072, 66.234 187.250 M 169.500 194.091 C 166.200 194.547, 155.952 195.212, 146.728 195.568 C 131.484 196.156, 129.860 196.393, 128.911 198.167 C 127.219 201.328, 130.855 207.368, 134.831 208 C 138.800 208.631, 151.550 220.867, 152.294 224.760 C 153.066 228.798, 150.696 229.932, 141.404 229.968 C 132.193 230.004, 131.892 229.888, 115.118 219.827 C 108.858 216.072, 103.361 213, 102.903 213 C 101.162 213, 100.285 216.516, 101.389 219.072 C 102.637 221.960, 112.405 230.999, 114.283 231.003 C 114.953 231.004, 117.993 232.508, 121.040 234.346 C 126.617 237.709, 128.445 238.343, 137.375 240.009 C 141.868 240.848, 154.484 239.933, 159.236 238.425 C 161.171 237.811, 164 233.093, 164 230.480 C 164 229.589, 162.650 226.898, 161 224.500 C 159.350 222.102, 158 219.611, 158 218.965 C 158 218.319, 156.650 215.790, 155 213.345 C 149.478 205.162, 149.778 205.046, 177 204.795 C 198.568 204.597, 209.742 205.256, 212.833 206.911 C 214.048 207.561, 215.421 207.858, 215.886 207.571 C 217.025 206.867, 229.984 209.386, 232.699 210.839 C 236.084 212.650, 238.626 212.219, 240.385 209.535 C 242.678 206.035, 242.408 204.254, 239.077 200.923 C 236.764 198.610, 235.267 198, 231.909 198 C 229.574 198, 224.927 197.577, 221.582 197.059 C 205.907 194.635, 199.605 193.994, 188 193.642 C 181.125 193.433, 172.800 193.635, 169.500 194.091" stroke="none" fill="black" fill-rule="evenodd"/>
</svg>