<svg xmlns="http://www.w3.org/2000/svg" width="300" height="300" viewBox="0 0 300 300" version="1.1">
	<path d="M 138.822 2.864 C 136.166 6.140, 129.472 10.217, 123 12.500 C 120.561 13.360, 114.962 16.187, 110.558 18.782 C 100.340 24.802, 88.906 29.412, 77.500 32.110 C 62.117 35.749, 57 38.871, 57 44.615 C 57 48.809, 58.188 49.471, 62.090 47.453 C 63.822 46.558, 67.323 45.231, 69.870 44.506 C 72.416 43.781, 76.950 42.488, 79.945 41.633 C 87.434 39.495, 88.436 40.428, 87.653 48.813 C 87.326 52.312, 86.371 56.555, 85.529 58.241 C 84.688 59.928, 84 62.117, 84 63.107 C 84 64.096, 83.608 65.940, 83.128 67.203 C 82.648 68.466, 81.718 71.300, 81.062 73.500 C 79.415 79.018, 78.752 80.682, 75.677 87.016 C 74.205 90.050, 73 92.939, 73 93.437 C 73 93.935, 71.610 97.303, 69.911 100.921 C 68.211 104.539, 66.027 109.300, 65.057 111.500 C 64.087 113.700, 61.202 119.784, 58.647 125.020 C 56.091 130.256, 54 135.039, 54 135.648 C 54 136.257, 53.325 137.315, 52.500 138 C 51.675 138.685, 51 140.035, 51 141 C 51 141.965, 50.325 143.315, 49.500 144 C 48.675 144.685, 48 146.260, 48 147.500 C 48 148.740, 47.358 150.288, 46.574 150.939 C 45.789 151.590, 44.349 154.682, 43.374 157.811 C 42.398 160.940, 40.340 165.501, 38.800 167.946 C 37.260 170.391, 36 172.796, 36 173.291 C 36 173.786, 35.109 175.443, 34.019 176.973 C 32.930 178.503, 31.358 182.366, 30.527 185.557 C 29.147 190.856, 29.159 191.518, 30.663 193.180 C 33.270 196.060, 35.443 195.338, 37.972 190.750 C 42.461 182.610, 46.526 174.464, 48.826 169 C 50.100 165.975, 51.864 162.150, 52.747 160.500 C 55.134 156.041, 55.620 155.050, 58.632 148.500 C 60.149 145.200, 62.348 140.925, 63.519 139 C 64.690 137.075, 66.236 133.250, 66.955 130.500 C 67.674 127.750, 69.329 123.901, 70.631 121.946 C 71.934 119.992, 73 118.054, 73 117.641 C 73 116.658, 75.027 112.101, 84.876 90.934 C 86.044 88.423, 87 85.697, 87 84.875 C 87 84.054, 87.661 82.509, 88.468 81.441 C 89.276 80.374, 89.951 78.289, 89.968 76.809 C 89.986 75.329, 90.450 73.840, 91 73.500 C 91.550 73.160, 92 71.649, 92 70.141 C 92 68.633, 92.504 66.896, 93.120 66.280 C 94.288 65.112, 95.787 59.333, 96.694 52.500 C 96.986 50.300, 97.642 47.982, 98.152 47.350 C 98.662 46.717, 98.949 43.792, 98.790 40.850 L 98.500 35.500 105.604 32 C 109.511 30.075, 114.080 27.488, 115.758 26.250 C 117.436 25.012, 119.557 24, 120.472 24 C 121.733 24, 121.969 24.544, 121.449 26.250 C 121.072 27.488, 120.177 29.175, 119.460 30 C 118.743 30.825, 117.852 32.719, 117.480 34.209 C 117.108 35.699, 116.173 37.442, 115.402 38.081 C 114.631 38.721, 114 39.858, 114 40.607 C 114 41.357, 112.650 44.164, 111 46.846 C 109.350 49.527, 108 52.129, 108 52.628 C 108 53.127, 106.960 55.103, 105.688 57.018 C 104.417 58.933, 102.582 62.633, 101.610 65.239 C 100.627 67.875, 98.487 71.039, 96.788 72.369 C 94.086 74.484, 93.809 75.167, 94.393 78.280 C 95.271 82.961, 97.031 84.272, 101.348 83.462 C 104.526 82.866, 104.993 83.087, 106.424 85.853 C 107.291 87.529, 108.014 91.061, 108.032 93.700 C 108.049 96.340, 108.661 99.288, 109.392 100.250 C 110.713 101.990, 114 102.694, 114 101.237 C 114 100.818, 115.013 100.025, 116.250 99.476 C 117.596 98.879, 118.430 97.696, 118.326 96.531 C 117.966 92.486, 121.767 89.263, 128.750 87.693 C 132.260 86.904, 131.398 89.012, 125.967 94.500 C 123.244 97.250, 121.013 99.830, 121.009 100.233 C 120.997 101.180, 111.507 106, 109.655 106 C 107.384 106, 105.584 111.555, 106.647 115.283 C 107.723 119.058, 111.442 120.067, 115.202 117.603 C 118.194 115.643, 119.137 116.416, 121.175 122.500 C 125.349 134.956, 126.142 154.009, 122.994 166.220 C 121.510 171.979, 120.077 173.360, 116.857 172.136 C 113.181 170.738, 104.433 162.433, 102.626 158.624 C 101.736 156.748, 99.431 153.830, 97.504 152.138 C 95.577 150.445, 94 148.667, 94 148.186 C 94 146.443, 90.282 144, 87.629 144 C 85.249 144, 84.549 144.818, 81.919 150.680 C 79.309 156.498, 78.960 158.322, 79.211 164.826 C 79.470 171.512, 79.769 172.493, 82.070 174.207 C 84.265 175.842, 85.030 175.943, 87.320 174.900 C 89.131 174.075, 90 172.909, 90 171.304 C 90 169.998, 90.763 167.766, 91.694 166.344 C 93.293 163.904, 93.289 163.685, 91.624 162.467 C 88.959 160.519, 89.763 154.605, 92.750 154.180 C 93.987 154.005, 95 154.292, 95 154.818 C 95 155.345, 96.512 157.974, 98.361 160.661 C 100.209 163.348, 102.010 166.458, 102.364 167.571 C 103.552 171.313, 110.519 177.773, 114.586 178.902 C 121.759 180.894, 125.277 180.341, 128.841 176.664 C 131.984 173.421, 132.094 173.013, 132.787 161.914 L 133.500 150.500 137.353 150.732 C 139.472 150.860, 142.622 151.832, 144.353 152.894 C 146.084 153.955, 150.032 155.554, 153.127 156.447 C 156.222 157.340, 159.560 158.961, 160.545 160.049 C 161.585 161.199, 163.056 161.800, 164.055 161.482 C 165.001 161.182, 167.918 162.076, 170.536 163.468 C 173.155 164.861, 176.096 166, 177.072 166 C 179.741 166, 185 161.124, 185 158.651 C 185 155.187, 180.628 151.203, 176.802 151.181 C 171.942 151.152, 164.362 149.235, 159.644 146.842 C 156.579 145.287, 152.767 144.579, 145 144.120 L 134.500 143.500 133.777 137 C 133.125 131.144, 132.342 125.966, 129.998 112.009 C 129.362 108.222, 129.538 107.311, 131.122 106.202 C 132.155 105.479, 133 104.335, 133 103.661 C 133 102.987, 135.467 100.037, 138.483 97.106 C 143.885 91.855, 143.965 91.693, 143.885 86.138 C 143.841 83.037, 144.470 76.883, 145.284 72.462 C 146.374 66.541, 146.520 62.867, 145.836 58.510 C 144.751 51.589, 144.010 50.488, 139.417 48.972 C 135.384 47.642, 131.357 48.361, 124.563 51.627 C 115.797 55.840, 114.617 54.102, 121 46.377 C 123.200 43.715, 125 40.796, 125 39.891 C 125 38.986, 125.675 37.685, 126.500 37 C 127.325 36.315, 128 34.965, 128 34 C 128 33.035, 128.675 31.685, 129.500 31 C 131.730 29.150, 131.414 24.921, 129 24.290 C 125.747 23.439, 126.734 21.649, 131.774 19.259 C 147.592 11.758, 153.280 6.177, 149.435 1.928 C 146.731 -1.060, 141.640 -0.611, 138.822 2.864 M 127 63.118 C 123.975 64.799, 120.350 67.260, 118.945 68.587 C 117.540 69.914, 115.403 71, 114.195 71 C 111.250 71, 111.430 72.893, 114.752 76.872 L 117.505 80.169 122.002 76.602 C 124.903 74.302, 127.142 73.237, 128.309 73.603 C 129.304 73.916, 131.666 73.437, 133.559 72.539 C 136.685 71.056, 137 70.517, 137 66.653 C 137 62.510, 135.676 59.968, 133.550 60.031 C 132.972 60.048, 130.025 61.438, 127 63.118 M 187.500 205.104 C 184.750 205.598, 181.719 206.452, 180.764 207.002 C 179.809 207.551, 178.287 208, 177.382 208 C 176.478 208, 171.859 209.320, 167.119 210.933 C 152.333 215.964, 149.802 215.912, 138.865 210.355 C 133.601 207.681, 129.786 207.348, 128.073 209.413 C 125.681 212.295, 131.939 222, 136.189 222 C 137.185 222, 138 222.450, 138 223 C 138 223.550, 139.238 224.006, 140.750 224.014 C 142.262 224.021, 144.473 224.288, 145.662 224.607 C 148.645 225.408, 156.932 236.351, 159.183 242.462 L 161.038 247.500 158.769 249.375 C 156.787 251.012, 155.361 251.175, 147.500 250.663 C 137.430 250.008, 131.105 248.318, 124.728 244.581 C 119.705 241.637, 116.846 238.167, 111.962 229.081 C 108.828 223.250, 108.086 222.500, 105.462 222.500 C 102.537 222.500, 102.503 222.562, 102.783 227.500 C 103.023 231.748, 105.224 238.253, 107.012 240 C 107.293 240.275, 109.050 242.753, 110.917 245.506 C 114.817 251.260, 119.590 254.522, 129.846 258.441 C 136.559 261.007, 137.932 261.182, 148.300 260.801 C 161.178 260.327, 166.232 258.514, 169.279 253.275 C 170.975 250.359, 171.033 249.505, 169.880 244.353 C 169.084 240.798, 166.987 236.292, 164.302 232.372 C 161.936 228.916, 160 225.674, 160 225.167 C 160 223.559, 162.911 221.751, 166.768 220.961 C 168.821 220.540, 174.466 219.008, 179.314 217.556 C 192.484 213.609, 196.642 214.119, 212.514 221.628 C 215.272 222.933, 218.226 224, 219.077 224 C 219.929 224, 221.919 225.350, 223.500 227 C 226.919 230.568, 229.324 230.804, 231.443 227.777 C 233.313 225.108, 233.488 219.647, 231.750 218.216 C 231.063 217.649, 226.494 215.530, 221.598 213.507 C 216.703 211.483, 211.978 209.454, 211.098 208.997 C 209.070 207.943, 199.438 205.267, 195.500 204.664 C 193.850 204.411, 190.250 204.609, 187.500 205.104 M 58.713 211.750 C 58.481 212.713, 58.218 216.485, 58.128 220.133 C 58.008 225.052, 57.324 227.974, 55.483 231.436 C 54.117 234.005, 53 236.477, 53 236.932 C 53 238.628, 45.774 249.691, 41.219 254.967 C 34.803 262.400, 33.727 264.590, 35.276 267.070 C 36.805 269.518, 39.855 270.545, 41.301 269.099 C 41.905 268.495, 43.225 268, 44.232 268 C 45.240 268, 46.387 267.204, 46.782 266.231 C 47.177 265.259, 49.361 261.996, 51.635 258.981 C 53.910 255.967, 56.110 252.375, 56.525 251 C 56.939 249.625, 58.887 246.025, 60.854 243 C 65.455 235.923, 68 230.385, 68 227.450 C 68 226.167, 68.450 224.840, 69 224.500 C 69.550 224.160, 70 221.503, 70 218.596 C 70 212.269, 68.084 210, 62.739 210 C 60.134 210, 59.018 210.485, 58.713 211.750" stroke="none" fill="black" fill-rule="evenodd"/>
</svg>