<svg xmlns="http://www.w3.org/2000/svg" width="300" height="300" viewBox="0 0 300 300" version="1.1">
	<path d="M 161.540 2.935 C 161.222 3.450, 158.608 4.949, 155.731 6.266 C 151.076 8.398, 147.880 11.043, 140.652 18.750 C 137.954 21.627, 137 21.593, 137 18.622 C 137 17.315, 136.395 15.742, 135.655 15.128 C 133.570 13.398, 128.344 12.635, 127.536 13.943 C 127.147 14.572, 126.691 21.480, 126.523 29.293 C 126.246 42.155, 124.558 59.288, 123.380 61.195 C 122.041 63.361, 119.009 77.453, 119.529 79.093 C 120.176 81.129, 120.889 81.363, 123.453 80.380 C 125.366 79.645, 129 72.526, 129 69.512 C 129 68.350, 129.374 66.972, 129.831 66.450 C 130.289 65.927, 131.255 63.475, 131.978 61 C 135.068 50.423, 136.113 43.990, 136.039 36 C 135.949 26.267, 136.706 24.237, 139.807 25.897 C 143.032 27.623, 144.515 27.253, 149.432 23.500 C 154.919 19.312, 157 19.040, 157 22.514 C 157 24.769, 155.407 28.678, 153.949 30 C 153.273 30.613, 150.696 37.921, 149.013 44 C 148.327 46.475, 147.369 49.805, 146.883 51.399 C 145.413 56.226, 145.866 59.525, 148.314 61.826 C 150.618 63.990, 155.705 64.749, 157.550 63.204 C 158.072 62.766, 160.296 61.798, 162.491 61.052 C 166.325 59.750, 172.523 55.135, 179.686 48.250 C 181.545 46.462, 183.491 45, 184.010 45 C 184.529 45, 185.704 43.855, 186.622 42.455 C 188.030 40.305, 188.108 39.304, 187.123 36.015 C 185.225 29.680, 182.840 29.821, 176.183 36.661 C 168.225 44.838, 158.776 53, 157.269 53 C 155.760 53, 155.529 47.409, 157 46.500 C 157.550 46.160, 158 44.793, 158 43.463 C 158 42.133, 159.090 38.672, 160.423 35.772 C 161.756 32.872, 164.047 27.896, 165.514 24.714 C 166.982 21.532, 168.529 16.372, 168.953 13.249 C 169.681 7.885, 169.569 7.415, 166.939 4.785 C 164.031 1.877, 162.515 1.358, 161.540 2.935 M 90.891 12.490 C 88.476 14.410, 86.092 15.985, 85.594 15.990 C 85.096 15.996, 83.296 17.043, 81.594 18.318 C 75.706 22.730, 59.144 29.918, 52.237 31.060 C 48.531 31.672, 44.281 33.034, 42.790 34.086 C 41.300 35.139, 39.212 36, 38.150 36 C 36.669 36, 36.109 36.874, 35.749 39.750 C 35.490 41.813, 35.494 43.881, 35.758 44.346 C 36.401 45.482, 40.757 44.742, 51.250 41.714 C 56.062 40.325, 60.226 39.556, 60.503 40.004 C 60.780 40.452, 61.253 45.697, 61.555 51.659 C 62.059 61.598, 61.541 67.664, 59.008 81.500 C 58.504 84.250, 57.668 89.030, 57.150 92.122 C 56.631 95.214, 55.711 98.672, 55.104 99.806 C 54.497 100.941, 54 103.272, 54 104.988 C 54 110.117, 44.735 142.428, 42.948 143.532 C 42.426 143.854, 42 145.072, 42 146.238 C 42 148.490, 40.337 154.347, 38.877 157.236 C 36.816 161.316, 38.499 166, 42.026 166 C 44.611 166, 48 161.675, 48 158.375 C 48 155.664, 50.633 147.965, 54.027 140.750 C 55.194 138.269, 55.830 138, 60.510 138 C 64.611 138, 66.518 137.409, 69.600 135.184 C 71.745 133.635, 76.425 130.853, 80 129.001 C 83.575 127.150, 88.750 124.006, 91.500 122.015 C 97.417 117.732, 106.008 114.550, 109.049 115.516 C 110.825 116.079, 111.100 116.741, 110.640 119.348 C 110.334 121.082, 109.695 124.750, 109.220 127.500 C 108.745 130.250, 107.121 135.425, 105.611 139 C 104.101 142.575, 102.159 147.525, 101.295 150 C 100.431 152.475, 99.111 155.210, 98.362 156.079 C 97.613 156.947, 97 158.340, 97 159.174 C 97 160.008, 96.074 161.528, 94.941 162.553 C 92.087 165.136, 90.249 163.732, 86.529 156.124 C 83.903 150.754, 83.167 149.968, 81 150.215 C 78.875 150.457, 78.452 151.085, 78.180 154.405 C 78.005 156.552, 78.102 159.272, 78.398 160.449 C 79.115 163.305, 85.950 172, 87.479 172 C 88.145 172, 89.505 172.900, 90.500 174 C 92.714 176.446, 96.765 176.547, 99.647 174.228 C 101.604 172.652, 109.453 157.531, 112.742 149 C 115.374 142.170, 118 133.716, 118 132.070 C 118 131.151, 118.461 129.939, 119.025 129.375 C 119.589 128.811, 120.104 123.756, 120.170 118.143 C 120.279 108.758, 120.102 107.738, 117.970 105.468 C 114.227 101.484, 106.667 102.247, 97 107.584 C 95.625 108.343, 92.961 109.686, 91.080 110.567 C 89.199 111.448, 81.654 115.776, 74.313 120.185 C 61.341 127.976, 56.780 129.436, 58.511 125.242 C 58.907 124.284, 59.584 122.025, 60.016 120.222 C 60.449 118.419, 61.310 116.331, 61.931 115.583 C 62.626 114.745, 62.808 112.652, 62.405 110.128 C 61.875 106.817, 62.073 105.909, 63.439 105.385 C 64.540 104.962, 65.646 105.478, 66.620 106.869 C 67.442 108.041, 68.626 109, 69.253 109 C 70.807 109, 77.259 104.540, 84.588 98.399 C 87.936 95.594, 91.827 93.009, 93.235 92.656 C 94.643 92.302, 96.688 90.604, 97.779 88.881 C 99.602 86, 99.639 85.533, 98.234 83.085 C 96.858 80.687, 96.864 80.078, 98.302 76.961 C 101.346 70.363, 102.829 58.542, 101.447 51.897 C 100.823 48.899, 94.055 44, 90.537 44 C 85.716 44, 78.979 48.025, 75.354 53.070 C 71.207 58.842, 69.407 59.467, 70.511 54.750 C 70.929 52.962, 71.327 48.031, 71.394 43.792 C 71.468 39.154, 72.010 35.590, 72.755 34.845 C 74.231 33.369, 85.117 27.599, 97.315 21.827 C 105.617 17.898, 106.093 17.505, 105.487 15.078 C 103.742 8.083, 97.768 7.024, 90.891 12.490 M 83.110 57.663 C 78.472 60.226, 75.961 61.042, 73.951 60.640 C 70.657 59.981, 70.354 60.613, 70.438 67.978 C 70.517 74.966, 72.213 75.482, 78.919 70.559 C 82.591 67.864, 84.638 67.034, 87.118 67.234 C 89.755 67.446, 90.491 67.096, 90.763 65.500 C 90.950 64.400, 91.604 62.491, 92.216 61.259 C 93.353 58.968, 91.988 53.919, 90.271 54.066 C 89.847 54.102, 86.625 55.721, 83.110 57.663 M 176.943 64.344 C 172.532 67.017, 165.896 72.360, 161.122 77.082 C 156.833 81.323, 144.250 91, 143.023 91 C 142.551 91, 139.215 93.362, 135.609 96.250 C 132.003 99.138, 128.084 102.192, 126.900 103.038 C 125.141 104.296, 124.877 105.164, 125.455 107.797 C 126.300 111.644, 129.405 113.739, 131.583 111.931 C 132.952 110.795, 134.568 111.568, 138 115 C 138.275 115.275, 140.686 116.625, 143.359 118 C 146.031 119.375, 148.426 121.022, 148.681 121.659 C 150.001 124.961, 119.594 159.658, 113.250 162.089 C 110.671 163.077, 110.286 166.162, 112.511 168.009 C 113.736 169.025, 114.921 168.922, 118.761 167.463 C 123.737 165.574, 131 160.361, 131 158.679 C 131 158.137, 133.137 155.337, 135.750 152.457 C 138.363 149.576, 142.201 145.033, 144.281 142.360 C 150.512 134.351, 157.237 126.523, 158.213 126.145 C 159.297 125.725, 168 130.193, 168 131.169 C 168 131.539, 169.463 132.152, 171.250 132.532 C 173.037 132.912, 175.175 133.778, 176 134.456 C 176.825 135.135, 179.421 136.434, 181.769 137.344 C 184.117 138.255, 187.821 140.124, 189.999 141.500 C 192.178 142.875, 194.370 144, 194.871 144 C 197.284 144, 203.965 147.891, 207.321 151.250 C 211.551 155.485, 212.506 155.680, 217.456 153.320 C 221.765 151.265, 222.591 149.044, 220.531 145.059 C 218.579 141.286, 215.675 139.412, 210.500 138.587 C 208.300 138.237, 204.475 137.105, 202 136.073 C 199.525 135.041, 194.575 132.974, 191 131.479 C 181.632 127.562, 166.194 118.947, 165.554 117.280 C 165.253 116.496, 165.456 115.017, 166.004 113.993 C 166.552 112.969, 167 111.411, 167 110.529 C 167 109.648, 169.025 106.814, 171.500 104.231 C 173.975 101.648, 176 99.120, 176 98.612 C 176 98.104, 178.026 94.721, 180.502 91.094 C 185.571 83.668, 190.312 72.014, 190.099 67.500 C 189.831 61.816, 183.586 60.318, 176.943 64.344 M 80.441 82.455 C 79.374 83.255, 75.912 84.213, 72.750 84.584 C 67.655 85.182, 67 85.514, 67 87.507 C 67 88.744, 66.315 91.396, 65.477 93.400 C 64.101 96.693, 64.107 97.104, 65.534 97.651 C 66.500 98.022, 68.548 97.031, 70.807 95.100 C 72.838 93.363, 76.862 90.367, 79.750 88.440 C 83.121 86.192, 85 84.234, 85 82.969 C 85 80.640, 83.142 80.430, 80.441 82.455 M 167.728 84.823 C 162.130 89.885, 149.434 100.115, 146.410 102 C 143.210 103.995, 143.359 106.758, 146.750 108.264 C 148.262 108.936, 150.387 110.290, 151.471 111.273 C 153.960 113.530, 156.409 113.113, 156.803 110.364 C 156.970 109.201, 158.208 107.214, 159.553 105.950 C 160.899 104.686, 162 103.228, 162 102.710 C 162 102.192, 163.513 99.683, 165.362 97.134 C 169.180 91.872, 174 83.407, 174 81.965 C 174 80.090, 171.906 81.044, 167.728 84.823 M 173 186.434 C 166.609 187.862, 158.993 191.571, 151.714 196.801 C 147.568 199.779, 145.691 200.492, 142.035 200.473 C 139.541 200.460, 136.771 200.097, 135.879 199.667 C 133.730 198.630, 131 201.400, 131 204.617 C 131 205.978, 132.105 208.195, 133.455 209.545 C 135.469 211.560, 136.901 212, 141.440 212 C 152.671 212, 165.346 221.755, 168.647 232.939 C 170.213 238.248, 170.201 238.419, 168.123 240.101 C 164.699 242.874, 159.024 243.267, 148.441 241.464 C 142.030 240.372, 136.537 238.722, 132.569 236.695 C 125.216 232.939, 116.170 225.576, 114.943 222.349 C 113.803 219.352, 107.468 216.132, 105.865 217.735 C 102.821 220.779, 111.358 236.930, 117.680 240.089 C 119.429 240.963, 122.129 242.519, 123.680 243.547 C 126.272 245.266, 132.429 247.559, 144 251.117 C 146.801 251.978, 152.665 252.458, 159.530 252.390 C 171.259 252.272, 174.500 251.332, 178.707 246.826 C 180.761 244.627, 180.848 243.993, 179.960 237.722 C 179.435 234.015, 178.607 230.198, 178.119 229.241 C 177.632 228.283, 176.638 226.230, 175.909 224.678 C 173.959 220.522, 168.062 215.190, 161.971 212.074 C 159.023 210.566, 156.451 208.853, 156.256 208.268 C 155.707 206.620, 164.743 198.664, 168.840 197.188 C 170.853 196.463, 173.859 195.209, 175.521 194.401 C 178.288 193.055, 179.275 193.145, 187.286 195.466 C 195.167 197.750, 205.016 202.323, 209 205.549 C 209.825 206.217, 213.425 208.252, 217 210.072 C 220.575 211.893, 225.071 214.880, 226.991 216.710 C 230.243 219.811, 235.246 221.981, 239.173 221.994 C 241.491 222.002, 247.003 217.183, 246.988 215.161 C 246.976 213.509, 238.520 204, 237.063 204 C 236.642 204, 234.872 204.497, 233.128 205.105 C 230.969 205.858, 229.566 205.886, 228.729 205.192 C 228.053 204.632, 224.350 202.514, 220.500 200.484 C 216.650 198.455, 212.825 196.207, 212 195.490 C 208.159 192.149, 194.186 186.681, 187.500 185.903 C 179.136 184.929, 179.852 184.903, 173 186.434 M 64.179 199.750 C 63.689 200.713, 62.757 203.678, 62.107 206.339 C 61.016 210.812, 58.030 218.435, 55.973 222 C 55.497 222.825, 53.901 225.750, 52.427 228.500 C 49.264 234.401, 46.983 237.787, 41.645 244.500 C 40.333 246.150, 37.859 249.713, 36.147 252.418 C 32.607 258.012, 33.061 259.546, 38.561 260.577 C 43.043 261.418, 46.031 258.994, 51.249 250.283 C 53.484 246.552, 56.367 242.228, 57.656 240.673 C 58.945 239.119, 60 237.276, 60 236.578 C 60 235.881, 60.900 234.495, 62 233.500 C 63.100 232.505, 64 231.173, 64 230.541 C 64 229.910, 65.063 227.167, 66.362 224.446 C 73.972 208.512, 74.218 207.841, 73.598 204.741 C 73.256 203.031, 72.237 200.814, 71.333 199.816 C 69.244 197.508, 65.339 197.472, 64.179 199.750" stroke="none" fill="black" fill-rule="evenodd"/>
</svg>