<svg xmlns="http://www.w3.org/2000/svg" width="300" height="300" viewBox="0 0 300 300" version="1.1">
	<path d="M 192.200 43.200 C 190.621 44.779, 190.656 51.652, 192.250 52.898 C 199.964 58.926, 202.640 62.216, 204.816 68.343 C 207.496 75.890, 209.234 77.881, 211.500 76 C 213.553 74.296, 213.382 70.281, 210.914 62.271 C 207.546 51.337, 206.410 49.063, 201.750 43.928 C 199.772 41.749, 194.085 41.315, 192.200 43.200 M 107.967 53.190 C 104.839 57.083, 104.593 57.920, 104.502 64.959 C 104.448 69.127, 103.978 73.204, 103.457 74.019 C 102.936 74.833, 102.188 78.650, 101.795 82.500 C 100.656 93.649, 99.401 101.300, 98.259 104.051 C 97.083 106.887, 97.661 111.672, 99.303 112.687 C 99.888 113.049, 102.080 111.356, 104.174 108.926 C 107.597 104.951, 108.184 104.634, 110.012 105.775 C 113.574 108, 120.332 108.397, 123.831 106.587 C 125.574 105.686, 126.990 104.623, 126.978 104.224 C 126.926 102.540, 123.311 99.201, 121 98.702 C 119.625 98.406, 116.700 97.490, 114.500 96.668 C 110.556 95.194, 110.502 95.105, 110.643 90.336 C 110.863 82.918, 113.398 69.430, 114.917 67.600 C 115.664 66.700, 116.691 64.059, 117.199 61.732 C 119.378 51.751, 119.427 52.272, 116.152 50.578 C 111.946 48.404, 111.768 48.460, 107.967 53.190 M 163.200 55.200 C 160.709 57.691, 162.077 70.175, 165.972 80.500 C 168.452 87.073, 170.042 92.996, 170.255 96.458 C 170.491 100.269, 170.368 100.439, 166.978 101.014 C 165.041 101.342, 160.506 103.048, 156.899 104.805 C 153.293 106.562, 149.701 108, 148.918 108 C 148.134 108, 145.278 109.575, 142.571 111.500 C 139.863 113.425, 137.165 115.002, 136.574 115.004 C 135.983 115.007, 133.475 116.381, 131 118.059 C 128.525 119.737, 124.025 122.439, 121 124.063 C 117.975 125.687, 114.825 127.425, 114 127.925 C 112.300 128.955, 107.177 131.100, 102 132.951 C 100.075 133.639, 97.600 134.579, 96.500 135.040 C 95.400 135.501, 90.225 137.290, 85 139.015 C 79.775 140.741, 75.064 142.576, 74.532 143.094 C 73.999 143.612, 73.511 145.566, 73.446 147.437 C 73.356 150.016, 73.874 151.130, 75.588 152.047 C 77.490 153.065, 78.394 152.919, 81.292 151.128 C 83.186 149.958, 85.908 149, 87.341 149 C 88.774 149, 91.871 148.151, 94.223 147.114 C 107.801 141.126, 108.398 141.006, 109.965 143.934 C 111.819 147.398, 111.071 149.925, 106.928 154.194 C 100.684 160.628, 97.888 165.954, 98.875 169.537 C 99.683 172.469, 100.854 172.898, 104.250 171.504 C 105.271 171.085, 106 171.230, 106 171.852 C 106 173.521, 98.040 183.744, 95.386 185.483 C 92.793 187.182, 92.189 191.082, 94.254 192.796 C 94.944 193.368, 96.954 193.986, 98.722 194.168 L 101.936 194.500 91.984 205.500 C 81.301 217.308, 80.097 220.097, 84 224 C 86.920 226.920, 88.139 226.527, 92.517 221.250 C 94.685 218.638, 97.453 215.701, 98.670 214.724 C 99.886 213.747, 101.194 211.947, 101.576 210.724 C 101.958 209.501, 103.447 207.084, 104.885 205.353 C 106.323 203.623, 108.767 200.360, 110.315 198.103 C 111.863 195.846, 113.523 194, 114.004 194 C 115.050 194, 114.118 226.057, 113.030 227.500 C 112.615 228.050, 112.008 229.626, 111.681 231.002 C 111.213 232.970, 109.214 234.382, 102.293 237.630 C 97.457 239.899, 91.925 242.090, 90 242.498 C 84.592 243.646, 81.009 245.845, 79.932 248.680 C 78.629 252.105, 79.485 254.444, 82.551 255.841 C 84.584 256.768, 85.693 256.654, 88.365 255.243 C 92.631 252.991, 98.704 250.108, 102.500 248.534 C 104.150 247.850, 107.300 246.467, 109.500 245.461 C 111.700 244.455, 114.703 243.602, 116.173 243.566 C 117.985 243.521, 120.109 242.131, 122.769 239.250 C 124.927 236.912, 127.400 235, 128.265 235 C 129.130 235, 131.224 234.213, 132.919 233.250 C 135.996 231.502, 136.003 231.504, 138.378 234.466 C 140.538 237.160, 140.997 237.322, 143.378 236.237 C 145.177 235.418, 146 234.268, 146 232.572 C 146 230.122, 151.306 225, 153.844 225 C 155.787 225, 155.163 226.852, 151.250 232.702 C 143.032 244.989, 142.001 246.574, 140.977 248.500 C 138.531 253.101, 137.168 255.195, 135.256 257.287 C 134.144 258.504, 132.468 261.015, 131.531 262.866 C 129.001 267.868, 119.784 279.670, 112.986 286.613 C 107.889 291.818, 107 293.266, 107 296.363 C 107 299.936, 107.070 300, 110.979 300 C 114.431 300, 115.525 299.386, 119.229 295.368 C 123.004 291.274, 133.779 277.423, 136.500 273.168 C 137.050 272.308, 139.412 268.794, 141.750 265.360 C 144.088 261.925, 146 258.750, 146 258.303 C 146 257.857, 148.690 253.893, 151.977 249.496 C 155.264 245.098, 157.964 240.897, 157.977 240.159 C 157.990 239.421, 159.575 236.978, 161.500 234.729 C 163.425 232.480, 165 229.891, 165 228.975 C 165 228.059, 165.908 226.488, 167.017 225.484 C 169.369 223.356, 175 213.299, 175 211.227 C 175 210.447, 175.869 208.588, 176.931 207.097 C 177.993 205.605, 179.654 202.386, 180.621 199.942 C 181.588 197.499, 183.192 194.150, 184.186 192.500 C 185.179 190.850, 185.994 188.553, 185.996 187.396 C 186 185.164, 190.174 180, 191.974 180 C 193.251 180, 194.124 182.077, 197.014 192 C 198.216 196.125, 199.437 200.175, 199.728 201 C 200.019 201.825, 201.806 206.775, 203.699 212 C 205.592 217.225, 207.527 223.312, 207.998 225.527 C 208.470 227.742, 209.517 231.342, 210.325 233.527 C 214.976 246.105, 217.286 251.912, 219.510 256.614 C 220.880 259.508, 222 262.397, 222 263.034 C 222 264.351, 224.809 269.669, 226.831 272.181 C 227.576 273.105, 228.931 275.204, 229.843 276.845 C 230.754 278.486, 232.514 281.652, 233.753 283.881 C 234.993 286.110, 236.905 288.414, 238.003 289.002 C 239.101 289.589, 240 290.641, 240 291.339 C 240 292.037, 241.484 294.046, 243.298 295.804 C 247.821 300.188, 251.420 300.097, 257.814 295.434 C 257.987 295.308, 258.372 290.857, 258.670 285.543 C 259.262 274.999, 257.604 260.399, 255.543 258 C 254.833 257.175, 253.960 254.862, 253.602 252.860 C 253.151 250.338, 252.315 249.054, 250.879 248.679 C 245.749 247.337, 245.002 249.787, 247.568 259.540 C 249.547 267.066, 248.704 280.793, 246.203 281.752 C 245.263 282.113, 244.198 281.636, 243.564 280.571 C 242.979 279.590, 240.137 275.153, 237.250 270.713 C 234.363 266.273, 232 262.037, 232 261.300 C 232 260.563, 230.875 258.178, 229.500 256 C 228.125 253.822, 227 251.351, 227 250.509 C 227 249.667, 226.159 247.071, 225.131 244.739 C 224.102 242.408, 222.663 238.534, 221.932 236.132 C 221.200 233.729, 219.855 230.804, 218.942 229.632 C 218.028 228.459, 216.967 225.373, 216.583 222.773 C 216.199 220.174, 215.472 217.792, 214.969 217.481 C 212.685 216.069, 209.205 204.966, 208.476 196.764 C 208.245 194.160, 207.143 190.240, 206.028 188.054 C 204.912 185.868, 204 182.787, 204 181.207 C 204 179.626, 203.719 178.052, 203.376 177.709 C 203.032 177.365, 201.724 174.033, 200.469 170.303 C 198.324 163.930, 198.277 163.249, 199.685 159.010 C 200.509 156.530, 201.747 153.600, 202.437 152.500 C 204.358 149.437, 208 139.183, 208 136.838 C 208 135.689, 209.183 131.994, 210.628 128.625 C 212.073 125.256, 213.836 121.150, 214.545 119.500 C 215.254 117.850, 216.166 114.709, 216.572 112.520 C 216.977 110.331, 218.138 107.181, 219.151 105.520 C 222.718 99.671, 220.539 90.908, 216.198 93.647 C 214.629 94.637, 211.699 98.859, 210.403 102 C 210.062 102.825, 208.932 105.408, 207.892 107.739 C 206.851 110.071, 206 112.878, 206 113.979 C 206 115.786, 202.875 124.704, 199.509 132.500 C 198.797 134.150, 197.819 136.850, 197.337 138.500 C 196.773 140.428, 195.704 141.609, 194.346 141.804 C 192.636 142.050, 192.134 141.476, 191.724 138.804 C 191.445 136.987, 190.008 131.225, 188.531 126 C 184.802 112.812, 184.216 104.824, 186.634 100.142 C 187.668 98.139, 188.511 94.925, 188.507 93 C 188.500 89.647, 188.344 89.496, 184.779 89.397 C 180.496 89.277, 178 87.595, 178 84.828 C 178 83.768, 177.389 81.686, 176.642 80.200 C 175.894 78.715, 174.486 73.324, 173.512 68.220 C 171.200 56.111, 167.262 51.138, 163.200 55.200 M 137.490 59.765 C 134.055 62.265, 129.881 81.741, 129.543 96.854 C 129.353 105.300, 129.984 105.985, 136.089 103.970 C 139.084 102.982, 141.150 102.926, 144.698 103.738 C 149.841 104.915, 153.032 103.677, 155.174 99.675 C 156.110 97.927, 155.746 97.156, 152.648 94.316 C 150.271 92.138, 148.023 91, 146.096 91 C 140.464 91, 139.946 90.351, 140.622 84.144 C 140.960 81.040, 141.858 77.503, 142.618 76.285 C 143.378 75.067, 144 73.245, 144 72.235 C 144 71.226, 144.515 69.885, 145.144 69.256 C 146.004 68.396, 145.965 67.287, 144.990 64.806 C 143.068 59.914, 140.062 57.894, 137.490 59.765 M 57.077 77.418 C 55.075 79.549, 54.875 80.528, 55.389 85.668 C 59.132 123.036, 59.152 151.309, 55.492 230.750 C 54.905 243.496, 55.011 245.067, 56.501 245.639 C 59.158 246.659, 62.175 242.807, 62.593 237.860 C 62.796 235.462, 63.407 228.775, 63.950 223 C 64.493 217.225, 65.224 204.963, 65.575 195.750 C 66.083 182.402, 66.496 179, 67.606 179 C 68.373 179, 69 179.620, 69 180.378 C 69 181.135, 69.696 182.333, 70.546 183.038 C 71.826 184.101, 72.789 183.950, 76.141 182.161 C 78.367 180.972, 81.055 180, 82.114 180 C 83.706 180, 83.925 179.525, 83.381 177.250 C 82.305 172.745, 81.003 171.758, 77.056 172.452 C 75.100 172.795, 71.783 173.335, 69.684 173.650 L 65.868 174.223 66.528 170.700 C 67.361 166.264, 67.880 102.024, 67.196 88.164 C 66.653 77.176, 65.729 75, 61.603 75 C 60.363 75, 58.326 76.088, 57.077 77.418 M 168 112.041 C 166.075 113.066, 163.018 113.926, 161.207 113.952 C 158.025 113.998, 146.328 119.578, 142.750 122.756 C 140.047 125.156, 140.329 142, 143.072 142 C 143.544 142, 145.506 140.617, 147.431 138.926 C 151.906 134.997, 155.081 135.266, 156.341 139.680 C 157.363 143.259, 155.200 147.811, 149.661 153.735 C 146.500 157.116, 146.634 159.546, 149.823 156.661 C 153.608 153.235, 158.876 155.665, 157.444 160.176 C 157.047 161.426, 154.310 164.842, 151.361 167.767 C 146.939 172.154, 146 173.692, 146 176.543 C 146 180.762, 148.027 181.134, 150.494 177.370 C 153.258 173.150, 157.233 169, 158.510 169 C 160.512 169, 163 172.518, 163 175.349 C 163 178.998, 159.092 184.922, 151.886 192.195 C 147.497 196.625, 146.086 198.690, 146.638 199.877 C 147.053 200.770, 147.417 204.387, 147.446 207.916 C 147.480 211.923, 147.944 214.480, 148.683 214.727 C 149.334 214.944, 152.302 213.970, 155.279 212.561 C 158.257 211.152, 161.100 210, 161.596 210 C 162.902 210, 167.583 203.888, 168.506 200.979 C 168.938 199.616, 170.351 196.821, 171.646 194.770 C 172.941 192.718, 174 190.615, 174 190.095 C 174 189.576, 176.664 183.604, 179.920 176.825 C 187.274 161.513, 187.534 160.462, 185.601 153.851 C 182.698 143.921, 178.283 125.384, 176.228 114.500 C 175.337 109.782, 173.357 109.190, 168 112.041 M 122.823 133.924 C 120.573 135.694, 120.296 136.577, 120.534 141.219 C 120.682 144.124, 121.539 151.157, 122.438 156.849 C 124.631 170.733, 124.706 211.527, 122.555 220.556 C 122.013 222.832, 122.252 223.964, 123.490 224.992 C 124.915 226.175, 125.533 226.123, 127.826 224.631 C 129.297 223.674, 131.978 222.228, 133.785 221.417 C 135.593 220.607, 137.449 218.944, 137.911 217.722 C 138.959 214.948, 137.615 186.965, 135.572 169 C 133.102 147.295, 132.873 145.577, 132.238 144 C 131.906 143.175, 131.154 140.250, 130.567 137.500 C 129.330 131.702, 127.010 130.631, 122.823 133.924 M 29.683 143.750 C 28.745 145.368, 29.931 155.738, 31.541 160 C 32.747 163.192, 33.212 167.295, 33.143 174.115 C 33.058 182.379, 33.312 183.973, 34.951 185.455 C 37.482 187.747, 40.466 186.704, 42.004 182.990 C 43.808 178.635, 42.367 156.738, 39.945 151.682 C 38.939 149.581, 38.360 147.225, 38.659 146.445 C 39.515 144.216, 30.911 141.632, 29.683 143.750 M 109.200 166.200 C 107.238 168.162, 107.822 169.153, 110.741 168.816 C 113.939 168.447, 115.322 165, 112.273 165 C 111.243 165, 109.860 165.540, 109.200 166.200 M 108.583 183.643 C 108.237 184.547, 108.169 185.502, 108.433 185.767 C 109.363 186.697, 112 185.044, 112 183.531 C 112 181.484, 109.379 181.570, 108.583 183.643" stroke="none" fill="black" fill-rule="evenodd"/>
</svg>