<svg xmlns="http://www.w3.org/2000/svg" width="300" height="300" viewBox="0 0 300 300" version="1.1">
	<path d="M 134.655 15.829 C 132.830 17.846, 132.430 22.530, 134 23.500 C 135.657 24.524, 135.142 27.825, 132.430 33.557 C 129.257 40.264, 129.480 43.382, 133.162 43.808 C 135.342 44.060, 136.378 43.311, 138.882 39.671 C 140.564 37.227, 142.240 33.263, 142.607 30.863 C 142.974 28.464, 143.700 25.672, 144.221 24.659 C 145.470 22.230, 143.538 17.583, 140.434 15.549 C 137.406 13.565, 136.672 13.601, 134.655 15.829 M 149.095 32.867 C 147.943 34.485, 147 36.443, 147 37.217 C 147 37.992, 145.762 39.778, 144.250 41.186 C 141.368 43.869, 140.363 44.449, 129.314 49.800 C 125.566 51.615, 121.375 53.654, 120 54.331 C 117.166 55.727, 116.152 60.547, 117.975 63.954 C 119.174 66.193, 123.828 66.772, 125.687 64.913 C 127.584 63.016, 128.084 65.454, 128.370 77.979 C 128.603 88.210, 128.374 90.403, 126.829 92.747 C 125.830 94.261, 125.010 96.434, 125.007 97.576 C 125.003 98.717, 123.987 100.592, 122.750 101.741 C 120.440 103.886, 108.235 110.473, 102 112.939 C 100.075 113.701, 97.526 115.193, 96.335 116.256 C 94.460 117.930, 94.310 118.612, 95.216 121.344 C 96.703 125.828, 98.423 127.362, 101.186 126.668 C 103.592 126.064, 111.902 121.007, 115.500 117.958 C 116.600 117.025, 118.850 115.946, 120.500 115.559 C 122.150 115.173, 126.200 113.584, 129.500 112.029 C 132.800 110.474, 137.525 108.449, 140 107.528 C 142.475 106.607, 146.380 104.762, 148.678 103.427 C 150.976 102.092, 153.366 101, 153.990 101 C 154.614 101, 157.683 99.851, 160.812 98.447 C 166.318 95.976, 169.772 94.456, 175 92.203 C 176.375 91.611, 178.400 90.841, 179.500 90.494 C 182.274 89.617, 187.328 83.297, 186.656 81.546 C 186.352 80.753, 184.765 79.413, 183.130 78.567 C 180.257 77.081, 179.843 77.181, 170.828 81.540 C 165.698 84.021, 160.825 86.419, 160 86.869 C 159.175 87.319, 157.600 88.175, 156.500 88.771 C 151.156 91.664, 141.090 95.757, 140.578 95.244 C 139.323 93.989, 140.149 90.285, 142.640 86 C 151.670 70.466, 153.547 64.367, 150.378 60.866 C 148.459 58.744, 144.978 58.422, 143.200 60.200 C 142.540 60.860, 142 63.490, 142 66.045 C 142 69.438, 141.455 71.184, 139.976 72.521 C 137.289 74.954, 136.372 73.732, 135.708 66.832 C 135.094 60.462, 135.288 60.171, 143.153 55.684 C 150.063 51.742, 159 41.478, 159 37.485 C 159 34.149, 156.984 31.688, 153.345 30.581 C 151.688 30.077, 150.704 30.607, 149.095 32.867 M 51.872 79.654 C 50.088 81.804, 50.275 89.507, 52.165 91.751 C 53.225 93.009, 53.695 96.448, 53.840 104 C 53.952 109.775, 54.543 119.643, 55.154 125.929 C 55.877 133.365, 56.049 149.260, 55.648 171.429 C 54.789 218.848, 54.923 235.202, 56.183 236.721 C 57.695 238.542, 60.416 238.303, 62.338 236.179 C 63.653 234.726, 63.951 232.455, 63.814 224.929 C 63.662 216.636, 64.768 186.850, 65.482 180 C 65.625 178.625, 65.800 175.363, 65.871 172.750 L 66 168 69.826 168 C 73.711 168, 75.916 166.344, 78.708 161.331 C 79.722 159.511, 79.589 158.748, 77.885 156.581 C 75.220 153.193, 72.879 153.320, 70.158 157 C 68.938 158.650, 67.504 160, 66.970 160 C 66.383 160, 66 153.515, 66 143.559 C 66 134.516, 65.653 126.903, 65.228 126.641 C 64.803 126.379, 64.545 122.639, 64.654 118.332 C 65.044 102.847, 62.528 83.005, 59.697 79.250 C 58.346 77.457, 53.487 77.708, 51.872 79.654 M 152.174 122.558 C 149.794 123.305, 145.069 125.942, 141.674 128.418 C 138.278 130.893, 133.813 134.148, 131.750 135.651 C 129.688 137.154, 127.986 139.085, 127.968 139.942 C 127.951 140.799, 127.276 142.374, 126.468 143.441 C 125.661 144.509, 125 146.421, 125 147.691 C 125 150.988, 121.421 150.812, 120.583 147.475 C 119.552 143.366, 116.455 141, 112.107 141 C 109.480 141, 108.017 141.514, 107.607 142.582 C 106.488 145.497, 106.984 148.710, 108.935 151.191 C 114.112 157.771, 119.340 170.584, 120.389 179.258 C 121.021 184.486, 123.449 189, 125.629 189 C 126.398 189, 127.910 189.551, 128.989 190.225 C 130.584 191.221, 131.842 191.116, 135.725 189.661 C 138.351 188.677, 140.950 187.788, 141.500 187.686 C 142.075 187.579, 142.500 190.027, 142.500 193.452 L 142.500 199.404 135.597 205.202 C 131.800 208.391, 127.971 211, 127.089 211 C 126.206 211, 123.371 212.125, 120.788 213.500 C 118.205 214.875, 114.586 216, 112.746 216 C 108.426 216, 107 217.521, 107 222.129 C 107 226.263, 109.392 229.445, 111.899 228.644 C 116.057 227.316, 122.805 224.770, 125.651 223.455 C 127.384 222.655, 129.324 222, 129.961 222 C 130.598 222, 133.183 220.425, 135.704 218.500 C 141.652 213.958, 144.012 213.887, 143.965 218.250 C 143.909 223.363, 141.387 239.207, 140.133 242.319 C 139.508 243.870, 139.263 246.199, 139.588 247.495 C 140.254 250.147, 139.491 250.335, 123.243 251.531 C 105.937 252.805, 81.239 257.674, 79.698 260.117 C 78.223 262.456, 79.608 266.452, 82.414 267.954 C 84.551 269.098, 85.462 269.007, 89.191 267.275 C 95.397 264.394, 112.739 261.721, 136 260.059 C 143.975 259.489, 155 258.583, 160.500 258.047 C 172.436 256.883, 200.719 256.902, 221.500 258.090 C 229.750 258.561, 238.376 258.943, 240.670 258.939 C 242.963 258.934, 245.127 259.396, 245.479 259.965 C 246.526 261.659, 249.882 261.147, 253.040 258.812 C 259.016 254.394, 255.109 249.537, 245.500 249.439 C 242.200 249.405, 231.850 248.849, 222.500 248.203 C 194.527 246.270, 170.902 246.730, 150.367 249.608 C 145.208 250.332, 143.957 248.739, 147.075 245.420 C 149.790 242.530, 150.776 237.356, 152.013 219.500 L 152.914 206.500 158.707 201.120 C 165.932 194.411, 169.746 192.009, 173.179 192.004 C 175.793 192, 179 189.766, 179 187.949 C 179 185.569, 175.625 179, 174.402 179 C 173.642 179, 169.861 181.025, 166 183.500 C 162.139 185.975, 158.033 188, 156.876 188 C 154.937 188, 154.827 187.630, 155.464 183.250 C 155.845 180.637, 156.907 177.375, 157.824 176 C 158.742 174.625, 160.070 172.375, 160.774 171 C 163.070 166.521, 164.645 164.050, 166.527 161.971 C 168.626 159.651, 170.110 151.170, 170.372 140 C 170.579 131.138, 169.634 127.477, 166.177 123.750 C 163.271 120.618, 159.396 120.288, 152.174 122.558 M 26.687 135.805 C 23.546 139.084, 23.132 143.952, 25.577 148.854 C 27.821 153.352, 27.821 174.098, 25.577 177.523 C 24.710 178.847, 24 181.509, 24 183.439 C 24 186.345, 24.528 187.222, 27.072 188.537 C 31.012 190.574, 32.223 189.616, 35.132 182.159 C 37.090 177.139, 37.344 174.582, 37.390 159.500 C 37.436 143.912, 37.260 142.157, 35.263 138.373 C 33.497 135.027, 31.363 133, 29.605 133 C 29.478 133, 28.165 134.262, 26.687 135.805 M 152.750 134.151 C 150.326 135.046, 150 135.683, 150 139.524 C 150 141.921, 150.338 144.076, 150.750 144.314 C 151.162 144.551, 153.637 145.055, 156.250 145.434 L 161 146.123 160.985 142.311 C 160.968 137.848, 159.071 133.598, 156.975 133.326 C 156.164 133.221, 154.262 133.592, 152.750 134.151 M 133.546 148.644 C 131.596 151.198, 130 153.664, 130 154.125 C 130 154.585, 128.877 155.244, 127.505 155.588 C 125.207 156.165, 125.060 156.541, 125.641 160.357 C 125.988 162.636, 127.111 166.272, 128.136 168.438 C 129.161 170.604, 130 173.101, 130 173.988 C 130 174.875, 130.540 176.140, 131.200 176.800 C 134.470 180.070, 142 175.976, 142 170.927 C 142 167.917, 140.322 167.078, 138.315 169.085 C 136.841 170.559, 132.931 169.861, 131.705 167.905 C 130.035 165.239, 131.885 160.891, 136.521 156.586 C 140.703 152.704, 140.893 152.288, 140.330 148.250 C 139.973 145.691, 139.210 144, 138.414 144 C 137.687 144, 135.496 146.090, 133.546 148.644" stroke="none" fill="black" fill-rule="evenodd"/>
</svg>