<svg xmlns="http://www.w3.org/2000/svg" width="300" height="300" viewBox="0 0 300 300" version="1.1">
	<path d="M 142.200 25.200 C 141.540 25.860, 141 28.319, 141 30.665 C 141 33.894, 141.482 35.187, 142.982 35.991 C 145.033 37.088, 149.973 46.746, 150.035 49.780 C 150.055 50.726, 150.714 52.625, 151.500 54 C 152.286 55.375, 152.945 57.443, 152.965 58.595 C 153.014 61.508, 156.377 64.502, 157.662 62.775 C 158.903 61.107, 158.617 45.995, 157.275 42.341 C 156.701 40.779, 155.679 37.651, 155.002 35.391 C 153.567 30.595, 147.922 24, 145.251 24 C 144.233 24, 142.860 24.540, 142.200 25.200 M 89.592 34.621 C 88.746 36.826, 89.717 44.340, 91.516 49.500 C 93.205 54.347, 98.215 77.551, 99.648 87.163 C 100.330 91.745, 99.890 92.004, 84.877 95.846 C 78.620 97.448, 72.044 99.359, 70.264 100.093 C 68.188 100.949, 66.684 101.082, 66.069 100.464 C 65.012 99.401, 67.385 70.883, 68.722 68.585 C 69.789 66.752, 75.098 62.488, 77.330 61.671 C 78.805 61.131, 79.027 60.372, 78.474 57.751 C 77.491 53.084, 76.755 52.677, 71.381 53.823 C 66.155 54.938, 65 54.679, 65 52.391 C 65 49.613, 61.960 45, 60.129 45 C 56.693 45, 55 48.239, 55 54.812 L 55 60.966 49.796 63.604 C 39.792 68.673, 36.904 71.980, 38.607 76.418 C 39.434 78.573, 40.839 78.416, 46.528 75.536 C 49.205 74.181, 52.656 72.795, 54.197 72.457 C 56.736 71.899, 57.011 72.108, 57.115 74.671 C 57.418 82.114, 56.668 90.689, 55.401 94.281 C 54.630 96.465, 54 99.241, 54 100.451 C 54 101.661, 52.987 103.581, 51.750 104.717 C 48.810 107.416, 38.798 112.389, 30.832 115.106 C 27.349 116.294, 23.996 117.662, 23.380 118.147 C 22.765 118.632, 18.535 120.940, 13.982 123.277 C 3.920 128.439, 2.982 129.642, 5.273 134.446 C 7.872 139.897, 10.710 139.103, 23.827 129.250 C 26.206 127.463, 28.736 126, 29.447 126 C 30.159 126, 34.062 124.596, 38.121 122.881 C 42.179 121.166, 48.425 118.522, 52 117.007 C 55.575 115.491, 60.075 113.926, 62 113.528 C 63.925 113.129, 66.414 112.227, 67.530 111.523 C 68.647 110.818, 72.247 109.663, 75.530 108.956 C 78.814 108.248, 81.950 107.344, 82.500 106.946 C 84.211 105.709, 98.343 101.748, 101.500 101.621 C 104.326 101.507, 104.534 101.761, 105.087 106 C 105.670 110.462, 107.982 120.341, 110.472 129 C 111.183 131.475, 112.258 135.300, 112.860 137.500 C 115.307 146.450, 120.317 161.561, 121.130 162.450 C 121.609 162.973, 122 164.345, 122 165.500 C 122 166.655, 122.374 168.027, 122.831 168.550 C 124.003 169.889, 126 177.249, 126 180.231 C 126 181.606, 125.160 183.803, 124.133 185.115 C 123.107 186.427, 120.744 190.369, 118.883 193.875 C 112.355 206.176, 111.263 208.052, 109.484 210.018 C 108.497 211.108, 106.836 212, 105.793 212 C 104.750 212, 102.232 212.873, 100.198 213.940 C 98.164 215.007, 93.800 216.626, 90.500 217.539 C 82.945 219.627, 73.779 222.750, 68.167 225.148 C 60.853 228.274, 58.040 227.176, 61.532 222.559 C 62.339 221.491, 63 219.605, 63 218.368 C 63 217.130, 63.361 215.895, 63.802 215.622 C 64.243 215.350, 65.234 212.814, 66.003 209.988 C 67.138 205.821, 68.357 204.061, 72.451 200.679 C 75.228 198.386, 78.095 195.944, 78.821 195.254 C 79.548 194.565, 80.460 194, 80.849 194 C 81.237 194, 83.005 192.675, 84.777 191.056 C 88.298 187.841, 89.128 183.181, 86.560 181.050 C 84.325 179.195, 79.705 180.180, 78.412 182.787 C 75.175 189.318, 69 192.383, 69 187.460 C 69 183.083, 72.619 177.656, 77.903 174.109 C 85.246 169.180, 87.870 164.270, 84.800 161.200 C 82.352 158.752, 79.262 159.768, 71.082 165.710 L 68.664 167.467 69.291 162.893 C 69.676 160.086, 69.496 157.896, 68.826 157.226 C 66.502 154.902, 68.540 152.989, 78.500 148.139 C 83.481 145.714, 87.856 139.587, 86.338 137.162 C 84.866 134.810, 80.275 134.537, 76.487 136.577 C 74.713 137.532, 72.584 138.054, 71.757 137.737 C 70.082 137.094, 68.629 131.131, 69.557 128.711 C 70.299 126.779, 67.241 125, 63.181 125 C 58.659 125, 56.896 128.376, 58.207 134.524 C 58.952 138.014, 58.928 139.886, 58.122 141.177 C 57.505 142.165, 57 144.392, 57 146.126 C 57 149.722, 55.859 150.824, 47.788 155.021 C 41.575 158.251, 40 160.249, 40 164.899 C 40 169.721, 42.631 170.352, 48.521 166.945 C 57.643 161.669, 59.184 160.850, 59.383 161.176 C 59.491 161.354, 59.408 164.344, 59.197 167.820 L 58.815 174.140 52.658 178.547 C 49.271 180.971, 45.487 183.661, 44.250 184.524 C 41.774 186.251, 41.197 190.797, 43.200 192.800 C 45.139 194.739, 48.203 194.165, 52.900 190.982 C 55.321 189.342, 57.683 188, 58.150 188 C 58.618 188, 59 189.968, 59 192.373 C 59 196.154, 58.515 197.160, 55.415 199.808 C 51.253 203.363, 39.398 209.731, 38.540 208.873 C 38.218 208.552, 37.830 203.064, 37.678 196.678 C 37.525 190.292, 37.086 184.752, 36.700 184.367 C 36.315 183.982, 36 182.476, 36 181.020 C 36 179.386, 34.853 177.276, 33 175.500 C 31.350 173.919, 30 172.235, 30 171.758 C 30 170.761, 32.977 163.983, 36.920 156 C 38.415 152.975, 40.443 147.890, 41.428 144.699 C 43.138 139.156, 43.140 138.812, 41.454 136.949 C 37.508 132.589, 33.263 136.396, 29.841 147.367 C 28.618 151.290, 26.578 156.480, 25.308 158.899 C 24.039 161.318, 23 163.774, 23 164.355 C 23 164.937, 21.313 167.910, 19.250 170.963 C 12.450 181.025, 9 187.422, 9 189.965 C 9 191.900, 11.754 196, 13.054 196 C 14.604 196, 22 188.876, 22 187.384 C 22 186.591, 23.022 186, 24.392 186 C 26.157 186, 26.961 186.708, 27.462 188.706 C 27.836 190.194, 28.118 203.196, 28.089 217.598 C 28.049 237.201, 28.346 244.031, 29.268 244.762 C 29.946 245.300, 32.242 246.301, 34.370 246.987 C 37.837 248.104, 38.723 248, 42.870 245.987 C 45.417 244.752, 49.525 242.501, 52 240.986 C 54.475 239.470, 58.975 237.683, 62 237.013 C 70.085 235.222, 91.994 228.246, 95.732 226.272 C 98.140 225, 99.253 224.853, 100.098 225.698 C 101.261 226.861, 101.273 226.827, 96.339 236 C 93.480 241.316, 88.517 248.217, 85.606 250.924 C 84.173 252.258, 83 254.001, 83 254.799 C 83 256.832, 69.520 269.928, 63.500 273.742 C 52.779 280.536, 52.028 281.798, 56.314 285.826 C 59.436 288.759, 62.196 288.561, 65.631 285.159 C 67.209 283.597, 71.650 279.723, 75.500 276.550 C 91.103 263.693, 104.907 244.296, 116.456 219 C 117.334 217.075, 118.606 214.600, 119.281 213.500 C 119.956 212.400, 122.450 208.013, 124.824 203.750 C 129.359 195.607, 132.188 193.828, 133.567 198.250 C 133.953 199.487, 136.177 204.571, 138.510 209.546 C 140.843 214.521, 143.081 220.146, 143.483 222.046 C 143.886 223.946, 145.466 227.975, 146.994 231 C 149.819 236.590, 157.262 252.267, 158.390 255 C 158.730 255.825, 160.244 258.578, 161.754 261.118 C 163.264 263.657, 166.414 269.057, 168.753 273.118 C 171.092 277.178, 174.344 282.300, 175.981 284.500 C 177.618 286.700, 179.375 289.400, 179.886 290.500 C 180.396 291.600, 182.379 294.188, 184.292 296.250 L 187.770 300 196.861 300 L 205.953 300 205.574 288.250 C 205.301 279.767, 204.612 274.771, 203.098 270.282 C 201.944 266.861, 200.993 263.261, 200.984 262.282 C 200.954 259.080, 196.571 252.500, 194.468 252.500 C 192.806 252.500, 192.478 253.240, 192.359 257.258 C 192.281 259.875, 192.618 262.264, 193.109 262.567 C 193.599 262.870, 194 264.190, 194 265.500 C 194 266.810, 194.450 268.160, 195 268.500 C 195.569 268.851, 196 273.868, 196 280.132 C 196 295.195, 195.676 295.111, 182.500 276.626 C 178.564 271.104, 170 255.555, 170 253.931 C 170 253.474, 168.735 251.165, 167.188 248.800 C 165.642 246.435, 162.879 241.125, 161.049 237 C 159.218 232.875, 157.334 229.073, 156.861 228.550 C 156.387 228.028, 156 226.725, 156 225.655 C 156 224.585, 154.425 220.435, 152.500 216.433 C 150.575 212.431, 149 208.478, 149 207.650 C 149 206.821, 148.406 205.548, 147.681 204.821 C 146.955 204.095, 146.100 202.600, 145.781 201.500 C 145.461 200.400, 143.995 196.350, 142.523 192.500 C 141.050 188.650, 139.413 184.051, 138.884 182.280 C 137.811 178.686, 137.919 178.395, 148.111 157.329 C 151.350 150.635, 154 144.828, 154 144.424 C 154 144.019, 155.044 142.296, 156.321 140.594 C 157.597 138.892, 159.707 135.250, 161.009 132.500 C 162.311 129.750, 164.735 125.273, 166.397 122.550 C 168.839 118.548, 169.376 116.641, 169.200 112.591 C 169.080 109.836, 168.581 107.181, 168.091 106.691 C 166.664 105.264, 163 106.952, 163 109.038 C 163 110.085, 161.564 113.092, 159.810 115.721 C 158.055 118.349, 155.418 122.300, 153.949 124.500 C 152.481 126.700, 150.311 130.525, 149.126 133 C 147.942 135.475, 146.318 138.625, 145.517 140 C 144.716 141.375, 143.406 144.075, 142.606 146 C 138.090 156.864, 133.996 165, 133.044 165 C 132.446 165, 131.554 163.988, 131.061 162.750 C 129.051 157.702, 126.808 150.236, 126.026 145.990 C 125.570 143.509, 124.529 139.909, 123.713 137.990 C 122.898 136.070, 121.713 132.475, 121.080 130 C 120.448 127.525, 118.410 119.650, 116.553 112.500 C 114.174 103.347, 113.479 99.132, 114.204 98.257 C 115.645 96.517, 122.212 94.898, 127.254 95.040 C 135.659 95.277, 139.280 93.520, 143.089 87.356 C 144.750 84.668, 144.905 83.691, 143.951 81.909 C 142.893 79.932, 142.255 79.793, 136.827 80.360 C 129.376 81.139, 117.102 84.746, 114.655 86.876 C 112.938 88.371, 112.645 88.289, 110.405 85.685 C 108.889 83.922, 108 81.637, 108 79.503 C 108 77.641, 107.603 75.873, 107.118 75.573 C 106.633 75.273, 105.923 72.101, 105.540 68.524 C 105.156 64.948, 104.428 61.765, 103.922 61.452 C 103.415 61.138, 103 59.060, 103 56.834 C 103 52.101, 100.389 39.606, 98.646 36 C 97.111 32.825, 90.658 31.842, 89.592 34.621 M 48.653 216 C 44.849 219.340, 42.852 219.731, 41 217.500 C 38.619 214.631, 38 216.050, 38 224.378 C 38 234.638, 39.080 236.139, 44.583 233.528 C 49.652 231.122, 52 228.461, 52 225.122 C 52 223.539, 52.675 220.629, 53.500 218.654 C 54.325 216.680, 55 214.600, 55 214.032 C 55 212.090, 52.071 212.998, 48.653 216" stroke="none" fill="black" fill-rule="evenodd"/>
</svg>