<svg xmlns="http://www.w3.org/2000/svg" width="300" height="300" viewBox="0 0 300 300" version="1.1">
	<path d="M 163.699 37.330 C 158.710 42.524, 144.964 53.473, 140.119 56.113 C 131.650 60.727, 130.353 61.525, 126.692 64.369 C 123.554 66.807, 123 67.824, 123 71.150 C 123 77.618, 128.288 77.693, 134.484 71.314 C 136.623 69.111, 138.398 68.016, 138.928 68.573 C 140.330 70.046, 141.559 93.709, 140.888 106.312 C 140.379 115.891, 139.892 118.438, 137.981 121.530 C 135.952 124.813, 135.825 125.628, 136.885 128.557 C 137.865 131.270, 137.773 133.197, 136.374 139.185 C 135.433 143.208, 134.142 147.175, 133.504 148 C 132.866 148.825, 131.640 151.750, 130.780 154.500 C 128.449 161.958, 122.074 176.966, 119.986 179.914 C 117.428 183.525, 116.358 190.816, 118.277 191.553 C 122.288 193.092, 129.829 185.101, 129.952 179.183 C 129.978 177.909, 131.125 175.392, 132.500 173.589 C 133.875 171.786, 135 169.652, 135 168.847 C 135 168.041, 135.661 166.509, 136.468 165.441 C 137.276 164.374, 137.951 162.649, 137.968 161.610 C 137.986 160.570, 138.864 157.870, 139.920 155.610 C 142.202 150.726, 145 141.813, 145 139.428 C 145 132.503, 151.417 123.833, 159.739 119.515 C 161.808 118.442, 164.962 116.326, 166.749 114.813 C 171.559 110.742, 172.685 111.794, 172.612 120.294 C 172.579 124.257, 172.674 137.625, 172.823 150 C 173.177 179.219, 170.889 217.455, 166.392 257.500 C 166.021 260.800, 165.581 264.850, 165.413 266.500 C 165.245 268.150, 164.443 274, 163.632 279.500 C 162.820 285, 161.837 291.863, 161.449 294.750 L 160.742 300 165.304 300 C 170.489 300, 170.826 299.503, 171.554 290.785 C 172.553 278.808, 174.150 263.794, 175.628 252.500 C 179.125 225.768, 181.341 180.769, 181.168 140 C 181.030 107.517, 181.595 102.795, 185.894 100.528 C 187.327 99.772, 189.999 97.544, 191.831 95.577 C 193.663 93.610, 195.522 92, 195.961 92 C 196.400 92, 198.402 89.995, 200.410 87.545 C 204.427 82.642, 204.562 78.906, 200.794 76.890 C 198.606 75.719, 193 77.423, 193 79.259 C 193 80.618, 181.638 91.291, 176 95.227 C 173.525 96.955, 167.361 101.436, 162.302 105.185 C 157.244 108.933, 152.662 112, 152.120 112 C 150.477 112, 150.241 109.283, 150.123 89 C 149.972 62.964, 150.239 61.143, 154.658 58 C 156.592 56.625, 159.597 54.291, 161.337 52.814 C 163.077 51.337, 166.525 48.618, 169 46.772 C 172.560 44.117, 173.569 42.702, 173.829 40.002 C 174.059 37.614, 173.626 36.199, 172.388 35.294 C 169.536 33.209, 167.112 33.777, 163.699 37.330 M 77.039 62.189 C 74.936 64.446, 74.219 70.737, 75.859 72.550 C 78.520 75.492, 79.103 90.837, 76.668 93.859 C 74.886 96.073, 64.218 102.851, 58.950 105.117 C 56.262 106.273, 53.544 107.845, 52.909 108.610 C 52.274 109.374, 50.515 110, 49 110 C 47.485 110, 45.667 110.696, 44.962 111.546 C 43.898 112.828, 44.022 113.555, 45.688 115.796 C 48.443 119.503, 52.586 119.770, 57.335 116.548 C 59.399 115.146, 61.551 114, 62.116 114 C 63.957 114, 71.491 109.141, 74.468 106.033 C 77.756 102.601, 79.639 102.191, 80.354 104.750 C 80.623 105.713, 81.149 118.070, 81.523 132.211 L 82.202 157.923 79.351 160.532 C 75.578 163.986, 65.217 172.084, 61.703 174.324 C 55.455 178.308, 40.596 186.002, 39.100 186.027 C 38.220 186.042, 35.925 187.370, 34 188.978 C 30.590 191.827, 30.539 191.975, 32.033 194.701 C 33.356 197.117, 34.261 197.541, 38.649 197.798 C 42.783 198.040, 44.272 197.654, 46.617 195.736 C 48.202 194.439, 51.525 192.157, 54 190.665 C 56.475 189.174, 60.525 186.389, 63 184.476 C 65.475 182.564, 68.175 180.691, 69 180.315 C 69.825 179.938, 72.635 177.370, 75.244 174.609 C 82.215 167.232, 82.723 168.405, 80.654 187.081 C 79.731 195.413, 78.730 202.628, 78.429 203.115 C 77.473 204.662, 74.787 204.075, 71.558 201.612 C 68.219 199.065, 60.232 196, 56.934 196 C 55.836 196, 54.692 196.640, 54.392 197.422 C 53.647 199.362, 55.726 203, 57.579 203 C 58.409 203, 61.755 205.137, 65.015 207.750 C 74.271 215.168, 80.890 220.003, 81.731 219.962 C 82.154 219.942, 84.273 218.408, 86.439 216.554 C 90.340 213.216, 90.369 213.139, 89.367 208.763 C 88.431 204.670, 88.760 198.563, 91.433 170.500 C 91.642 168.300, 91.855 165.359, 91.907 163.964 C 91.969 162.260, 94.452 158.818, 99.479 153.464 C 103.593 149.084, 106.968 144.734, 106.979 143.797 C 106.991 142.860, 107.530 140.931, 108.177 139.510 C 109.161 137.351, 109.069 136.645, 107.617 135.213 C 105.974 133.593, 105.733 133.671, 103.190 136.644 C 101.710 138.374, 99.176 141.636, 97.558 143.894 C 93.705 149.271, 91.460 149.277, 90.602 143.913 C 89.725 138.429, 89.725 102.994, 90.602 98.262 C 91.312 94.434, 98.590 84, 100.550 84 C 101.142 84, 102.779 82.763, 104.189 81.250 C 107.331 77.879, 108.877 68.973, 106.643 67.119 C 104.602 65.425, 102.534 66.635, 101.209 70.298 C 99.858 74.035, 89.660 84.526, 88.235 83.645 C 87.707 83.319, 87.051 78.757, 86.776 73.508 C 86.396 66.234, 85.850 63.492, 84.483 61.982 C 82.146 59.399, 79.571 59.471, 77.039 62.189" stroke="none" fill="black" fill-rule="evenodd"/>
</svg>