<svg xmlns="http://www.w3.org/2000/svg" width="300" height="300" viewBox="0 0 300 300" version="1.1">
	<path d="M 95.173 35.292 C 94.583 36.002, 93.966 39.699, 93.800 43.508 C 93.528 49.783, 93.266 50.539, 91 51.575 C 81.265 56.028, 76.954 58.420, 75.095 60.399 L 72.957 62.675 75.123 65.429 C 77.107 67.951, 77.678 68.127, 81.895 67.514 C 84.428 67.146, 87.807 66.205, 89.404 65.423 C 91.001 64.640, 92.637 64, 93.040 64 C 95.052 64, 95.967 78.325, 94.169 81.684 C 93.555 82.832, 89.342 84.767, 82.845 86.885 C 72.778 90.166, 69.773 91.509, 61.523 96.411 C 56.061 99.656, 55.250 101.206, 57.342 104.399 C 59.307 107.399, 61.800 107.672, 66.241 105.375 C 67.969 104.482, 72.523 102.683, 76.360 101.377 C 80.198 100.072, 84.162 98.258, 85.169 97.347 C 87.319 95.401, 95.613 92.509, 102 91.479 C 107.937 90.520, 119.766 86.498, 121.848 84.729 C 123.543 83.289, 133.905 79.690, 139.817 78.487 C 143.937 77.648, 147 80.041, 147 84.096 C 147 85.628, 147.450 87.160, 148 87.500 C 148.550 87.840, 149 89.035, 149 90.155 C 149 91.275, 149.739 93.611, 150.643 95.346 C 153.661 101.141, 154 101.964, 154 103.500 C 154 104.340, 154.390 105.809, 154.866 106.764 C 156.478 109.996, 158.248 115.484, 158.736 118.759 C 159.003 120.552, 159.621 122.266, 160.110 122.568 C 160.600 122.871, 161 123.976, 161 125.025 C 161 126.074, 161.639 128.410, 162.420 130.216 C 163.202 132.022, 164.823 136.200, 166.024 139.500 C 167.225 142.800, 168.803 146.850, 169.532 148.500 C 173.907 158.409, 175 161.061, 175 161.767 C 175 162.200, 175.770 163.655, 176.712 164.999 L 178.423 167.443 179.007 164.971 C 179.381 163.385, 180.290 162.500, 181.545 162.500 C 183.113 162.500, 183.500 163.194, 183.500 166 C 183.500 168.984, 183.189 169.457, 181.393 169.211 C 179.433 168.943, 179.321 169.282, 179.781 174.067 C 180.052 176.897, 179.847 179.502, 179.325 179.856 C 178.803 180.210, 177.574 183.087, 176.595 186.248 C 175.616 189.410, 174.407 192.249, 173.908 192.557 C 173.408 192.866, 172.967 194.104, 172.927 195.309 C 172.887 196.514, 171.992 198.850, 170.938 200.500 C 169.091 203.392, 168.731 204.132, 167.048 208.500 C 165.382 212.822, 162.932 217.722, 160.046 222.500 C 158.385 225.250, 156.754 228.175, 156.420 229 C 154.356 234.109, 151.559 238.955, 150.421 239.392 C 149.253 239.840, 137.071 236.098, 125.500 231.736 C 123.300 230.906, 117.511 228.955, 112.636 227.399 C 107.761 225.844, 103.544 223.976, 103.265 223.248 C 102.234 220.563, 106.395 212.486, 111.238 207.768 C 113.930 205.146, 116.530 203, 117.015 203 C 117.500 203, 119.111 201.875, 120.595 200.500 C 122.078 199.125, 123.760 198, 124.332 198 C 124.903 198, 126.300 197.144, 127.436 196.099 C 128.571 195.053, 131.525 193.077, 134 191.707 C 140.855 187.913, 142.298 181, 136.235 181 C 133.231 181, 122.114 187.389, 113.225 194.226 C 110.323 196.457, 107.719 198.052, 107.437 197.770 C 107.156 197.489, 107.448 195.963, 108.087 194.379 C 108.726 192.796, 109.698 190.375, 110.246 189 C 110.795 187.625, 111.864 185.306, 112.622 183.846 C 113.380 182.386, 114 180.050, 114 178.655 C 114 177.260, 114.450 175.840, 115 175.500 C 115.550 175.160, 116 172.431, 116 169.434 C 116 163.129, 116.148 162.957, 129.183 154.112 C 138.193 147.999, 139.795 145.299, 135.709 143.112 C 133.563 141.964, 132.571 142.288, 125.583 146.419 C 121.321 148.939, 117.197 151, 116.417 151 C 114.257 151, 114.721 147.875, 117.485 143.807 C 118.852 141.796, 120.909 137.754, 122.056 134.825 C 123.204 131.896, 124.561 129.072, 125.072 128.550 C 125.582 128.027, 126 124.037, 126 119.682 C 126 111.818, 125.974 111.738, 122.118 107.882 C 118.531 104.296, 117.808 104, 112.628 104 C 106.160 104, 95.594 107.793, 91.504 111.584 C 90.070 112.913, 88.561 114, 88.151 114 C 86.860 114, 80.423 121.377, 79.207 124.250 C 77.592 128.065, 75.755 127.688, 73.122 123.003 C 69.636 116.800, 62.914 116.287, 62.201 122.170 C 61.992 123.897, 63.413 126.571, 66.931 131.069 C 69.697 134.606, 71.969 138.106, 71.980 138.846 C 71.991 139.586, 72.616 141.386, 73.369 142.846 C 74.122 144.306, 75.764 147.525, 77.018 150 C 78.271 152.475, 79.905 155.210, 80.649 156.079 C 82.240 157.938, 82.414 160.626, 81 161.500 C 80.450 161.840, 79.993 165.579, 79.985 169.809 C 79.976 174.039, 79.639 177.980, 79.235 178.568 C 78.831 179.155, 75.575 181.381, 72 183.514 C 68.425 185.648, 64.600 188.116, 63.500 189 C 62.400 189.884, 58.575 192.337, 55 194.451 C 47.297 199.006, 43 202.771, 43 204.965 C 43 207.482, 45.930 211, 48.027 211 C 50.266 211, 72 199.245, 72 198.034 C 72 196.076, 77.965 191, 80.265 191 C 82.437 191, 82.803 191.548, 83.364 195.640 C 83.714 198.191, 84 201.701, 84 203.440 C 84 205.178, 84.507 207.107, 85.127 207.727 C 85.762 208.362, 85.973 209.973, 85.609 211.422 C 84.952 214.041, 77.458 218.419, 65.500 223.171 C 59.992 225.360, 57 227.623, 57 229.599 C 57 230.308, 58.044 232.103, 59.321 233.587 C 61.607 236.245, 61.724 236.266, 67.071 235.023 C 72.311 233.804, 83.144 228.486, 83.839 226.791 C 84.521 225.130, 87.180 223, 88.571 223 C 91.363 223, 89.910 226.744, 82.998 237.362 C 76.015 248.089, 67.890 256.918, 64.950 256.972 C 63.069 257.006, 61 258.938, 61 260.660 C 61 262.790, 66.336 267.002, 68.990 266.967 C 70.370 266.948, 72.400 266.158, 73.500 265.211 C 78.352 261.032, 88.967 248.066, 91.275 243.500 C 92.665 240.750, 94.975 237.406, 96.409 236.068 C 98.972 233.677, 99.130 233.659, 105.748 234.974 C 109.450 235.710, 114.284 237.132, 116.490 238.134 C 118.695 239.136, 121.436 239.966, 122.581 239.978 C 123.725 239.990, 126.875 241.154, 129.581 242.564 C 132.286 243.975, 136.638 245.792, 139.250 246.603 C 141.930 247.435, 144 248.683, 144 249.467 C 144 254.272, 128.328 273.809, 123.157 275.450 C 122.072 275.795, 120.910 276.791, 120.575 277.665 C 119.587 280.240, 121.943 282, 126.372 281.995 C 129.593 281.991, 131.592 281.163, 135.469 278.226 C 140.472 274.437, 151.961 258.943, 151.987 255.950 C 152.024 251.604, 157.513 250.818, 164.415 254.171 C 168.128 255.975, 169.147 256.123, 170.442 255.048 C 171.299 254.337, 172 253.395, 172 252.954 C 172 251.043, 166.695 246.092, 164.018 245.504 C 161.010 244.843, 158.685 240.938, 160.867 240.211 C 161.490 240.003, 162 239.296, 162 238.639 C 162 237.551, 163.138 235.210, 169.966 222.245 C 171.199 219.905, 172.611 217.741, 173.104 217.436 C 173.597 217.131, 174 215.794, 174 214.465 C 174 213.136, 174.898 210.575, 175.996 208.774 C 177.094 206.973, 177.994 204.802, 177.996 203.949 C 178.003 201.027, 185.934 190, 188.028 190 C 190.295 190, 190.519 188.805, 188.775 186.011 C 187.847 184.526, 187.831 183.769, 188.708 182.892 C 190.494 181.106, 192.515 182.440, 194.416 186.658 C 197.699 193.943, 199.505 197.130, 201.250 198.718 C 202.212 199.593, 203 199.844, 203 199.275 C 203 198.421, 197.477 186.566, 193.910 179.764 C 193.410 178.809, 193 176.589, 193 174.832 C 193 171.594, 197.551 157.295, 199.137 155.550 C 199.611 155.027, 200 153.768, 200 152.750 C 200 151.733, 200.636 149.670, 201.414 148.167 C 202.718 145.645, 205.110 136.188, 206.895 126.500 C 207.300 124.300, 208.164 121.517, 208.816 120.316 C 209.467 119.114, 210 117.003, 210 115.625 C 210 114.246, 210.400 112.871, 210.890 112.568 C 211.379 112.266, 212.031 110.552, 212.340 108.759 C 214.991 93.346, 215.043 92.615, 213.591 91.162 C 211.493 89.064, 209.669 90.229, 208.174 94.624 C 206.956 98.207, 204.932 103.004, 202.853 107.236 C 202.384 108.191, 202 109.885, 202 111 C 202 112.115, 201.603 113.809, 201.118 114.764 C 200.051 116.862, 198.031 124.280, 197.306 128.759 C 197.016 130.552, 196.379 132.266, 195.890 132.568 C 195.400 132.871, 195 134.260, 195 135.655 C 195 137.050, 194.371 139.386, 193.602 140.846 C 192.834 142.306, 191.631 145.525, 190.929 148 C 190.227 150.475, 189.280 152.928, 188.826 153.450 C 188.372 153.973, 187.993 155.323, 187.985 156.450 C 187.976 157.578, 187.603 159.078, 187.155 159.784 C 186.018 161.575, 183 160.191, 183 157.879 C 183 156.144, 182.218 154.195, 179.838 150 C 179.370 149.175, 178.732 147.825, 178.421 147 C 178.109 146.175, 177.437 144.719, 176.927 143.764 C 176.417 142.809, 176 141.115, 176 140 C 176 138.885, 175.600 137.191, 175.111 136.236 C 174.622 135.281, 173.431 132.700, 172.464 130.500 C 171.497 128.300, 170.322 125.719, 169.853 124.764 C 169.384 123.809, 169 121.982, 169 120.705 C 169 119.427, 168.339 117.509, 167.532 116.441 C 166.724 115.374, 166.049 113.563, 166.032 112.417 C 166.014 111.271, 165.692 110.025, 165.315 109.648 C 164.348 108.681, 162.033 101.823, 162.015 99.872 C 162.007 98.977, 161.325 97.685, 160.500 97 C 159.675 96.315, 159 94.454, 159 92.864 C 159 91.274, 158.594 89.191, 158.097 88.236 C 156.199 84.584, 154.803 78.197, 155.454 76.145 C 155.828 74.968, 157.116 73.821, 158.317 73.597 C 162.329 72.847, 179.447 70.001, 183.782 69.364 C 186.580 68.952, 188.709 67.914, 189.926 66.367 C 192.464 63.141, 193.843 63.410, 198.473 68.033 C 202.497 72.051, 205.647 73.083, 206.568 70.684 C 207.154 69.156, 205.778 66.345, 201.249 59.820 C 199.462 57.246, 198 54.713, 198 54.192 C 198 53.671, 197.325 52.685, 196.500 52 C 195.675 51.315, 195 49.712, 195 48.437 C 195 47.161, 194.550 45.840, 194 45.500 C 193.450 45.160, 193 43.754, 193 42.375 C 193 36.427, 187.425 32.400, 183.770 35.708 C 182.227 37.104, 181.947 38.268, 182.429 41.280 C 183.075 45.324, 183.206 45.653, 187.339 53.647 C 188.803 56.478, 190 59.066, 190 59.397 C 190 59.729, 187.412 60.008, 184.250 60.017 C 181.088 60.027, 174.450 60.729, 169.500 61.578 C 153.839 64.264, 153.094 64.323, 151.510 63.008 C 150.679 62.319, 150 60.292, 150 58.503 C 150 56.715, 149.325 53.338, 148.500 51 C 147.675 48.662, 147 44.610, 147 41.997 C 147 36.921, 145.393 34.585, 142.310 35.179 C 138.835 35.848, 137.950 56.744, 141.177 61.912 C 143.727 65.996, 142.192 66.923, 123.500 72.578 C 120.750 73.410, 116.329 74.997, 113.676 76.105 C 106.257 79.203, 104.725 78.568, 104.412 72.262 C 104.269 69.381, 104.568 66.767, 105.076 66.453 C 105.584 66.139, 106.014 63.996, 106.032 61.691 C 106.069 56.803, 106.478 56.212, 114.750 49.085 C 118.188 46.123, 121 43.162, 121 42.505 C 121 40.994, 117.744 38, 116.101 38 C 115.419 38, 112.898 39.350, 110.500 41 C 104.949 44.819, 104 44.769, 104 40.655 C 104 35.340, 98.105 31.758, 95.173 35.292 M 88.980 56.524 C 88.284 57.362, 87.970 58.304, 88.282 58.615 C 89.292 59.625, 93 57.909, 93 56.433 C 93 54.544, 90.577 54.600, 88.980 56.524 M 105.608 115.329 C 100.350 116.916, 99.484 118.603, 101.487 123.352 C 102.878 126.649, 103.428 127.096, 105.306 126.456 C 106.513 126.045, 109.300 125.654, 111.500 125.586 C 115.477 125.465, 115.502 125.439, 115.811 121.158 C 116.315 114.190, 113.918 112.820, 105.608 115.329 M 87.958 127.750 C 83.425 133.087, 81.831 136.192, 82.421 138.542 C 82.760 139.894, 83.375 141, 83.787 141 C 84.198 141, 86.665 138.959, 89.267 136.465 C 92.827 133.054, 94 131.196, 94 128.965 C 94 126.546, 93.580 126, 91.722 126 C 90.469 126, 88.776 126.787, 87.958 127.750 M 106.740 137.540 C 103.338 140.694, 103.184 143, 106.375 143 C 108.059 143, 109.203 142.066, 110.305 139.790 C 112.826 134.585, 111.101 133.497, 106.740 137.540 M 87.163 150.120 C 87.569 152.986, 91.664 154.040, 92.628 151.527 C 93.391 149.539, 93.197 149.339, 89.661 148.451 C 87.092 147.806, 86.858 147.962, 87.163 150.120 M 96.251 164.149 C 95.619 164.781, 93.391 165.574, 91.301 165.911 C 88.084 166.430, 87.451 166.945, 87.183 169.268 C 86.661 173.784, 89.394 173.694, 94.989 169.010 C 97.745 166.702, 100 164.406, 100 163.907 C 100 162.626, 97.620 162.780, 96.251 164.149 M 95.514 179.296 L 91.916 182.592 92.208 191.535 C 92.446 198.837, 92.797 200.534, 94.121 200.787 C 95.012 200.957, 96.012 200.288, 96.342 199.298 C 96.672 198.309, 97.353 196.825, 97.855 196 C 99.549 193.218, 100.837 189.522, 101.514 185.500 C 101.885 183.300, 102.422 180.262, 102.708 178.750 C 103.450 174.820, 100.123 175.073, 95.514 179.296 M 190.229 193.188 C 190.847 195.042, 193 195.349, 193 193.583 C 193 192.713, 192.287 192, 191.417 192 C 190.546 192, 190.011 192.534, 190.229 193.188 M 209 214.441 C 209 215.298, 209.450 216, 210 216 C 210.550 216, 211 215.577, 211 215.059 C 211 214.541, 210.550 213.840, 210 213.500 C 209.450 213.160, 209 213.584, 209 214.441 M 211 219.354 C 211 220.099, 212.125 221.922, 213.500 223.405 C 214.875 224.889, 216 226.530, 216 227.052 C 216 227.573, 216.450 228, 217 228 C 218.232 228, 218.253 227.464, 217.108 225.236 C 216.617 224.281, 215.726 222.262, 215.129 220.750 C 214.018 217.936, 211 216.916, 211 219.354 M 252.035 232.667 C 252.059 239.300, 252.536 243.313, 253.500 245 C 254.543 246.824, 254.939 251.218, 254.965 261.250 C 254.998 274.048, 254.870 275, 253.122 275 C 252.061 275, 248.899 272.283, 245.849 268.750 C 237.024 258.527, 234.634 255.070, 229.077 244.500 C 226.522 239.640, 220.563 231.037, 219.738 231.018 C 219.319 231.008, 219.271 232.912, 219.631 235.250 L 220.286 239.500 217.205 236.021 C 210.191 228.099, 213.211 237.767, 222.635 253.400 C 225.586 258.295, 228 262.522, 228 262.792 C 228 265.326, 249.518 285.547, 255.750 288.870 C 258.230 290.193, 261.421 289.078, 263.718 286.087 C 265.211 284.142, 265.362 272.844, 263.962 267.803 C 263.397 265.770, 262.480 261.045, 261.923 257.303 C 259.187 238.918, 258.220 234.237, 255.779 227.556 C 253.156 220.378, 251.997 221.960, 252.035 232.667 M 208.022 225.250 C 208.051 226.890, 211.949 231.863, 211.978 230.297 C 212.012 228.462, 209.788 224, 208.839 224 C 208.378 224, 208.010 224.563, 208.022 225.250" stroke="none" fill="black" fill-rule="evenodd"/>
</svg>