<svg xmlns="http://www.w3.org/2000/svg" width="300" height="300" viewBox="0 0 300 300" version="1.1">
	<path d="M 179.750 45.470 C 178.787 46.793, 178 48.265, 178 48.741 C 178 49.217, 176.543 51.607, 174.762 54.053 C 169.532 61.236, 164.380 64.907, 159.450 64.965 C 155.528 65.010, 154 66.602, 154 70.641 C 154 74.306, 154.938 75.143, 159.966 75.959 C 163.251 76.492, 163.552 76.848, 164.245 81.016 C 164.654 83.482, 165.456 88.200, 166.027 91.500 C 167.884 102.240, 168.925 111.313, 168.398 112.165 C 166.740 114.848, 159 109.314, 159 105.446 C 159 102.621, 156.010 100.749, 152.201 101.188 C 149.663 101.481, 149.492 101.821, 149.370 106.823 C 149.267 111.054, 149.677 112.566, 151.370 114.193 C 154.501 117.203, 159.249 119.992, 161.250 119.996 C 162.213 119.998, 163.067 120.450, 163.150 121 C 163.233 121.550, 163.345 122.382, 163.400 122.849 C 163.502 123.715, 155.719 133.254, 153 135.595 C 152.175 136.306, 147.900 140.229, 143.500 144.315 C 139.100 148.400, 132.462 153.471, 128.750 155.584 C 121.237 159.860, 120.099 161.695, 122.593 165.502 C 124.032 167.697, 124.768 167.991, 127.396 167.416 C 132.951 166.201, 146.425 160.782, 149.500 158.526 C 155.677 153.994, 169.077 147.677, 170.177 148.777 C 170.907 149.507, 171.232 173.304, 171.219 224.919 L 171.201 300 175.912 300 L 180.624 300 180.690 220.278 C 180.746 153.847, 180.986 140.420, 182.128 139.744 C 197.763 130.486, 203.096 127.441, 206.013 126.107 C 207.945 125.223, 210.939 123.487, 212.667 122.250 C 214.395 121.012, 216.223 120, 216.730 120 C 218.362 120, 222 115.434, 222 113.386 C 222 110.818, 220.144 109, 217.521 109 C 216.378 109, 211.855 111.380, 207.471 114.289 C 197.383 120.983, 182.414 129.080, 181.612 128.278 C 181.275 127.942, 181 124.448, 181 120.513 C 181 113.979, 181.259 113.070, 184 110 C 185.650 108.152, 187 106.294, 187 105.871 C 187 105.449, 188.144 103.842, 189.543 102.302 C 195.471 95.772, 196.643 94.358, 198.345 91.680 C 200.014 89.054, 200.025 88.688, 198.506 86.369 C 195.532 81.829, 192.348 83.419, 186.224 92.500 C 180.051 101.654, 177.907 104.241, 177.134 103.467 C 176.834 103.167, 176.262 99.002, 175.862 94.211 C 174.862 82.217, 174.089 78.858, 171.737 76.282 L 169.712 74.064 174.659 69.617 C 183.138 61.993, 188.687 48.087, 184.800 44.200 C 183.037 42.437, 181.713 42.770, 179.750 45.470 M 84.942 81.108 C 84.208 82.480, 83.931 88.151, 84.147 97.358 C 84.463 110.773, 84.044 114, 81.985 114 C 81.492 114, 79.472 115.097, 77.495 116.439 C 75.519 117.780, 72.236 119.415, 70.201 120.072 C 68.165 120.729, 64.542 122.572, 62.148 124.168 C 59.397 126.003, 57.098 126.848, 55.898 126.468 C 52.550 125.405, 53.783 128.428, 57.519 130.440 C 60.619 132.110, 61.640 132.196, 66.112 131.163 C 68.903 130.519, 74.026 128.579, 77.497 126.852 C 80.967 125.125, 84.525 123.987, 85.403 124.324 C 86.803 124.862, 87 127.843, 87 148.499 L 87 172.062 77.642 181.281 C 72.495 186.351, 63.832 193.681, 58.392 197.569 C 51.697 202.354, 48.394 205.362, 48.173 206.877 C 47.744 209.809, 50.419 213.792, 53.803 215.263 C 55.286 215.908, 59.200 218.743, 62.500 221.564 C 65.800 224.384, 73.279 229.202, 79.120 232.271 L 89.740 237.850 92.860 235.675 C 96.535 233.113, 97.374 231.140, 96.172 227.882 C 95.688 226.572, 95.639 222.800, 96.062 219.500 C 96.485 216.200, 96.869 204.414, 96.916 193.309 C 96.967 181.021, 97.391 172.876, 98 172.500 C 98.550 172.160, 99 170.884, 99 169.663 C 99 168.443, 99.646 166.523, 100.435 165.396 C 101.224 164.270, 102.012 162.032, 102.185 160.424 C 102.466 157.819, 102.213 157.519, 99.870 157.672 C 97.420 157.832, 97.196 157.490, 96.605 152.672 C 94.975 139.378, 94.779 134.255, 95.875 133.577 C 96.570 133.148, 97 129.526, 97 124.104 L 97 115.325 103 109.741 C 107.241 105.795, 109 103.425, 109 101.661 C 109 95.575, 106.461 94.328, 103.007 98.718 C 100.347 102.100, 95.217 104.425, 93.522 103.018 C 92.753 102.380, 92.245 98.326, 92.116 91.811 C 92.006 86.197, 91.430 81.018, 90.835 80.302 C 89.201 78.332, 86.209 78.741, 84.942 81.108 M 164.956 130.561 C 163.605 132.007, 160.697 134.251, 158.494 135.547 C 154.630 137.821, 150.198 143.531, 151.380 144.714 C 152.280 145.613, 159.991 142.354, 165.500 138.746 C 169.911 135.857, 170.500 135.063, 170.500 131.999 C 170.500 127.578, 168.281 127.003, 164.956 130.561 M 82.184 188.815 C 75.269 196.833, 74 198.422, 74 199.067 C 74 199.455, 70.830 202.367, 66.956 205.536 C 62.720 209.001, 60.032 211.927, 60.214 212.872 C 60.380 213.736, 62.560 215.202, 65.058 216.130 C 67.557 217.057, 71.999 219.231, 74.931 220.959 C 81.310 224.721, 85.757 225.845, 86.455 223.872 C 86.721 223.117, 87.066 214.287, 87.220 204.249 C 87.461 188.544, 87.291 186.007, 86 186.064 C 85.175 186.101, 83.458 187.339, 82.184 188.815" stroke="none" fill="black" fill-rule="evenodd"/>
</svg>