<svg xmlns="http://www.w3.org/2000/svg" width="300" height="300" viewBox="0 0 300 300" version="1.1">
	<path d="M 145.413 36.507 C 141.242 40.759, 139.533 41.799, 135.925 42.283 C 132.168 42.787, 130.876 42.444, 127.091 39.937 C 122.195 36.694, 120.975 36.425, 119.200 38.200 C 116.959 40.441, 117.866 45.309, 121.265 49.284 C 124.028 52.516, 125.266 53.156, 129.750 53.673 C 135.258 54.308, 135.976 54.945, 133.500 57 C 132.675 57.685, 132 58.982, 132 59.883 C 132 60.783, 130.977 62.641, 129.727 64.010 C 128.477 65.380, 125.215 69.846, 122.477 73.937 C 111.321 90.605, 109.888 92.537, 107.005 94.793 C 101.781 98.882, 104.027 103.571, 111.500 104.176 C 115.384 104.491, 115.523 104.630, 116.313 109 C 116.760 111.475, 117.365 119.129, 117.657 126.010 C 118.269 140.421, 118.111 140.751, 109.500 143.004 C 106.750 143.724, 101.226 145.592, 97.224 147.156 C 93.222 148.720, 88.835 150, 87.474 150 C 84.871 150, 84.218 148.182, 86.133 146.267 C 87.573 144.827, 86.535 142, 84.567 142 C 83.744 142, 82.558 143.012, 81.933 144.250 C 81.307 145.488, 78.816 148.364, 76.398 150.642 C 71.293 155.449, 70.781 158.506, 74.496 161.997 C 76.544 163.921, 77.397 164.156, 79.246 163.305 C 86.049 160.174, 94.639 157.470, 97 157.716 C 99.055 157.930, 109.853 154.326, 112.651 152.493 C 113.904 151.672, 115.170 151, 115.465 151 C 117.116 151, 114.709 172.825, 111.936 183 C 108.600 195.242, 101.068 212.882, 97.385 217.079 C 96.623 217.947, 96 219.358, 96 220.214 C 96 221.770, 100.020 225, 101.956 225 C 103.433 225, 109 218.955, 109 217.352 C 109 216.608, 109.450 216, 110 216 C 110.550 216, 111 215.334, 111 214.521 C 111 212.240, 115.964 197.985, 117.659 195.397 C 120.002 191.822, 124.338 170.290, 125.866 154.647 C 126.404 149.145, 126.997 147.421, 128.878 145.897 C 130.167 144.854, 131.883 144, 132.691 144 C 133.500 144, 136.534 142.425, 139.434 140.500 C 142.334 138.575, 145.679 137, 146.867 137 C 148.882 137, 149.016 137.450, 148.864 143.750 C 148.775 147.463, 148.793 184.137, 148.904 225.250 L 149.106 300 153.631 300 L 158.156 300 158.065 291.750 C 158.015 287.212, 158.195 271.125, 158.465 256 C 158.941 229.307, 158.993 163.584, 158.544 155.500 C 158.422 153.300, 157.965 147.317, 157.528 142.205 C 156.768 133.301, 156.833 132.807, 159.069 130.427 C 160.352 129.060, 165.250 125.869, 169.951 123.335 C 174.653 120.801, 179.932 117.664, 181.683 116.364 C 183.434 115.064, 185.312 114, 185.857 114 C 187.722 114, 193 108.823, 193 106.993 C 193 103.180, 191.851 102, 188.143 102.004 C 184.790 102.007, 182.994 102.863, 175.065 108.239 C 173.654 109.196, 171.488 110.506, 170.250 111.150 C 169.012 111.794, 168 112.699, 168 113.161 C 168 113.622, 167.507 114, 166.904 114 C 166.302 114, 164.486 114.942, 162.869 116.093 C 157.219 120.116, 157.285 120.354, 155.360 88.709 C 154.679 77.520, 154.979 76.863, 162.488 73.113 C 167.774 70.473, 169.260 67.050, 166.464 63.960 C 163.918 61.147, 162.017 61.345, 153 65.363 C 151.625 65.976, 147.574 68.732, 143.998 71.489 C 133.609 79.496, 128.170 83.085, 127.668 82.264 C 127.412 81.844, 129.174 78.575, 131.584 75 C 133.995 71.425, 137.090 66.836, 138.463 64.803 C 139.836 62.769, 143.172 58.719, 145.878 55.803 C 159.200 41.441, 161.552 36.620, 157.171 32.655 C 154.110 29.885, 150.868 30.947, 145.413 36.507 M 49.757 59.750 C 48.481 61.188, 48.302 63.373, 48.753 72 C 49.054 77.775, 49.346 86.081, 49.401 90.458 C 49.513 99.445, 50.352 98.429, 38.509 103.642 C 35.214 105.092, 30.836 107.341, 28.779 108.639 C 26.722 109.938, 24.426 111, 23.675 111 C 22.924 111, 21.552 111.837, 20.627 112.860 C 17.697 116.098, 20.757 121, 25.709 121 C 28.170 121, 40.180 114.872, 43.847 111.745 C 47.852 108.329, 50.637 108.455, 50.194 112.031 C 50.026 113.389, 49.677 123.208, 49.418 133.851 C 49.085 147.544, 48.545 153.976, 47.570 155.851 C 45.011 160.772, 21.519 182.848, 16.596 184.959 C 11.787 187.020, 10.839 189.089, 13.250 192.264 C 14.514 193.927, 23.132 198, 25.389 198 C 26.062 198, 29.287 201.012, 32.556 204.694 C 51.821 226.390, 51.939 226.490, 54.793 223.636 C 56.175 222.254, 56.547 219.699, 56.749 210.214 C 56.886 203.771, 57.197 193.100, 57.441 186.500 C 57.685 179.900, 57.878 170.448, 57.870 165.495 C 57.859 157.623, 58.160 156.044, 60.259 152.950 C 61.580 151.003, 63.187 147.902, 63.829 146.060 C 64.472 144.217, 66.573 140.786, 68.499 138.436 C 70.424 136.086, 72 133.542, 72 132.782 C 72 132.022, 72.540 130.860, 73.200 130.200 C 74.091 129.309, 74.110 128.710, 73.271 127.871 C 71.718 126.318, 67.109 129.948, 64.491 134.787 C 63.210 137.156, 61.762 138.500, 60.491 138.500 C 58.613 138.500, 58.515 137.905, 58.761 128 C 58.904 122.225, 59.437 114.127, 59.944 110.005 C 60.772 103.280, 61.216 102.201, 64.258 99.505 C 66.124 97.852, 69.038 95.757, 70.735 94.848 C 73.679 93.272, 78 85.813, 78 82.306 C 78 79.561, 72.813 73.884, 70.594 74.201 C 68.830 74.453, 68.546 75.092, 68.794 78.256 C 69.019 81.125, 68.358 83.073, 65.996 86.506 C 64.295 88.978, 62.302 91, 61.566 91 C 59.756 91, 58.776 83.840, 59.115 73.103 C 59.362 65.313, 59.151 64.123, 57.007 61.223 C 54.338 57.614, 52.063 57.151, 49.757 59.750 M 137.110 91.009 C 134.176 93.214, 130.667 95.296, 129.314 95.636 C 125.968 96.476, 125.101 99.389, 126.082 106.500 C 126.537 109.800, 127.220 117.351, 127.599 123.280 C 127.978 129.209, 128.592 134.248, 128.962 134.476 C 129.332 134.705, 133.767 132.860, 138.818 130.377 C 148.310 125.708, 148.835 125.067, 148.144 119 C 148.050 118.175, 147.731 114.575, 147.435 111 C 147.138 107.425, 146.469 103.195, 145.948 101.601 C 145.427 100.006, 145 96.069, 145 92.851 C 145 88.771, 144.613 87, 143.723 87 C 143.021 87, 140.045 88.804, 137.110 91.009 M 43.043 175.201 C 41.828 177.565, 38.171 182.095, 34.917 185.267 C 31.663 188.439, 29 191.731, 29 192.583 C 29 195.342, 31.020 198, 33.117 198 C 34.242 198, 37.131 199.612, 39.535 201.582 C 42.685 204.163, 44.479 204.983, 45.953 204.515 C 47.875 203.905, 48.011 203.012, 48.179 189.933 C 48.277 182.270, 48.389 174.994, 48.429 173.764 C 48.558 169.722, 45.430 170.557, 43.043 175.201" stroke="none" fill="black" fill-rule="evenodd"/>
</svg>