<svg xmlns="http://www.w3.org/2000/svg" width="300" height="300" viewBox="0 0 300 300" version="1.1">
	<path d="M 140.053 49.750 C 138.582 55.045, 138.689 55.606, 141.561 57.699 C 145.336 60.449, 145.107 64.764, 140.899 70.149 C 135.695 76.810, 134.859 78.732, 135.554 82.438 C 136.152 85.621, 135.995 85.847, 132.341 87.050 C 123.909 89.826, 116.456 93.775, 115.194 96.135 C 113.612 99.093, 115.076 104, 117.541 104 C 118.415 104, 122.384 102.497, 126.360 100.660 C 130.336 98.823, 134.875 96.997, 136.445 96.603 C 138.856 95.998, 147.881 91.309, 155.495 86.706 C 156.593 86.043, 159.968 83.425, 162.995 80.889 C 166.023 78.353, 170.075 75.487, 172 74.519 C 176.989 72.010, 179 70.007, 179 67.545 C 179 62.329, 172.897 61.449, 167.191 65.842 C 156.635 73.969, 147.888 80.092, 145.584 80.968 C 143.352 81.817, 143 81.684, 143 79.998 C 143 78.925, 144.107 77.320, 145.461 76.434 C 146.815 75.547, 148.193 73.968, 148.524 72.925 C 148.855 71.881, 150.448 69.706, 152.063 68.091 C 154.227 65.927, 155 64.204, 155 61.545 C 155 53.942, 149.330 46, 143.901 46 C 141.509 46, 140.940 46.555, 140.053 49.750 M 71.912 66.731 C 71.280 68.393, 71.075 74.693, 71.389 82.823 L 71.904 96.184 69.218 98.674 C 67.741 100.043, 64.725 101.947, 62.516 102.905 C 60.307 103.863, 56.605 105.461, 54.288 106.458 C 51.972 107.454, 47.722 108.799, 44.844 109.448 C 40.346 110.461, 39.502 111.031, 38.841 113.504 C 36.870 120.870, 43.157 120.743, 62 113.034 C 71.605 109.104, 71.404 109.052, 72.799 115.808 C 73.476 119.085, 74.520 126.762, 75.119 132.868 C 76.195 143.845, 76.179 144.018, 73.700 148.249 C 70.976 152.898, 64.337 159.387, 53.493 168 C 49.684 171.025, 44.078 175.769, 41.034 178.543 C 37.990 181.316, 33.651 184.768, 31.391 186.214 C 27.501 188.702, 26 191.601, 26 196.625 C 26 198.243, 29.533 202, 31.056 202 C 31.636 202, 38.949 195.229, 47.306 186.954 C 72.931 161.579, 72.695 161.793, 74.656 162.190 C 75.946 162.450, 76.421 163.304, 76.237 165.031 C 76.092 166.389, 75.543 176.470, 75.017 187.434 C 73.846 211.839, 74.019 211.514, 64.295 207.612 C 60.558 206.113, 56.236 204.242, 54.692 203.456 C 52.379 202.278, 51.189 202.243, 47.942 203.257 C 45.774 203.933, 44 205.020, 44 205.671 C 44 207.084, 48.760 211, 50.478 211 C 51.143 211, 54.798 213.185, 58.600 215.856 C 62.403 218.526, 66.464 221.013, 67.625 221.381 C 68.786 221.750, 70.540 222.940, 71.523 224.026 C 74.010 226.773, 75.557 226.510, 79.380 222.687 L 82.693 219.374 83.360 206.437 C 83.726 199.322, 84.312 183.825, 84.661 172 C 85.267 151.467, 85.402 150.361, 87.648 147.406 C 88.942 145.704, 90 143.636, 90 142.811 C 90 141.985, 90.937 140.462, 92.083 139.425 C 93.228 138.389, 94.794 136.181, 95.562 134.520 C 96.331 132.859, 97.515 130.734, 98.195 129.798 C 101.890 124.703, 93.169 128.973, 88.966 134.316 C 85.525 138.690, 84.379 137.771, 84.178 130.474 C 84.079 126.885, 83.626 122.272, 83.170 120.224 C 82.714 118.176, 82.682 112.970, 83.099 108.654 L 83.856 100.809 90.298 94.137 C 97.109 87.081, 98.476 83.906, 97.203 78.095 C 95.695 71.214, 90.827 71.646, 89.615 78.769 C 89.266 80.821, 87.662 84.075, 86.052 86 C 81.841 91.033, 80.793 89.339, 80.632 77.235 C 80.489 66.447, 79.513 64, 75.353 64 C 73.656 64, 72.645 64.802, 71.912 66.731 M 155.500 110.343 C 152.750 111.665, 149.178 114.154, 147.563 115.874 C 144.260 119.390, 142 119.910, 142 117.155 C 142 116.140, 141.089 114.486, 139.976 113.478 C 138.010 111.699, 137.872 111.705, 135.226 113.673 C 133.727 114.788, 132.369 116.781, 132.208 118.100 C 132.048 119.420, 131.513 121.400, 131.020 122.500 C 130.527 123.600, 129.888 126.075, 129.600 128 C 127.564 141.598, 124.819 154.514, 123.734 155.599 C 123.330 156.003, 123 157.807, 123 159.608 C 123 161.409, 122.592 163.134, 122.094 163.442 C 121.595 163.750, 120.878 166.251, 120.500 169 C 120.122 171.749, 119.405 174.250, 118.906 174.558 C 118.408 174.866, 118 175.901, 118 176.858 C 118 179.613, 108.072 209.261, 106.685 210.648 C 106.308 211.025, 106 212.089, 106 213.012 C 106 213.935, 105.100 215.505, 104 216.500 C 102.900 217.495, 102 219.110, 102 220.087 C 102 221.784, 106.798 226, 108.730 226 C 110.458 226, 113.751 221.509, 114.963 217.500 C 115.628 215.300, 116.809 212.082, 117.586 210.349 C 118.364 208.616, 119.002 206.816, 119.003 206.349 C 119.005 205.882, 120.355 202.191, 122.003 198.146 C 123.652 194.102, 125 189.730, 125 188.431 C 125 186.159, 127.147 178.654, 128.986 174.500 C 129.473 173.400, 131.281 166.650, 133.004 159.500 C 136.203 146.220, 140.214 136.091, 143.705 132.474 C 144.780 131.360, 146.463 129.223, 147.445 127.724 C 148.427 126.226, 149.741 124.993, 150.365 124.984 C 150.989 124.975, 153.043 123.608, 154.930 121.945 C 156.816 120.283, 159.034 119.053, 159.858 119.211 C 162.149 119.653, 163.100 124.875, 161.993 130.934 C 161.447 133.922, 161 138.670, 161 141.484 C 161 144.298, 160.616 147.027, 160.148 147.550 C 157.414 150.596, 153.902 179.821, 153.665 201.500 L 153.500 216.500 156.421 220.500 C 162.667 229.055, 167.040 231.441, 179.292 232.977 C 194.714 234.911, 227.296 233.307, 231.432 230.410 C 232.686 229.532, 234.705 229.249, 237.045 229.623 C 242.125 230.436, 248.772 226.714, 255.044 219.547 L 260 213.884 260 203.501 C 260 197.658, 259.563 192.848, 259 192.500 C 258.450 192.160, 258 190.281, 258 188.325 C 258 186.369, 257.336 182.683, 256.525 180.134 C 255.714 177.585, 253.938 171, 252.579 165.500 C 248.696 149.788, 247.826 146.621, 246.882 144.764 C 246.397 143.809, 245.981 141.784, 245.958 140.264 C 245.882 135.245, 242.357 122.628, 240.748 121.613 C 238.350 120.100, 235.870 122.537, 236.969 125.326 C 237.441 126.522, 238.322 131.550, 238.927 136.500 C 239.532 141.450, 241.152 150.225, 242.526 156 C 245.080 166.736, 246.175 172.956, 248.180 188.106 C 249.819 200.495, 247.921 210.984, 243.307 215.035 C 241.512 216.611, 238.346 218.167, 236.271 218.491 C 234.197 218.816, 230.925 219.497, 229 220.006 C 227.075 220.514, 218.975 221.409, 211 221.994 C 203.025 222.579, 195.637 223.247, 194.582 223.479 C 191.277 224.205, 173.949 221.155, 170.756 219.285 C 169.080 218.303, 166.762 216.222, 165.605 214.661 C 163.618 211.981, 163.516 210.804, 163.792 193.582 C 164.020 179.337, 164.600 172.747, 166.440 163.489 C 167.736 156.969, 168.567 151.036, 168.287 150.304 C 168.006 149.573, 168.344 148.290, 169.038 147.454 C 170.264 145.977, 171.579 137.917, 172.641 125.367 C 173.055 120.482, 172.752 118.434, 171.153 115.300 C 167.412 107.966, 163.211 106.636, 155.500 110.343" stroke="none" fill="black" fill-rule="evenodd"/>
</svg>