<svg xmlns="http://www.w3.org/2000/svg" width="300" height="300" viewBox="0 0 300 300" version="1.1">
	<path d="M 162.536 39.350 C 159.772 41.371, 161.185 46.367, 165.779 50.817 C 169.466 54.389, 175.950 63.501, 178.991 69.385 C 179.811 70.972, 181.526 72.954, 182.801 73.789 C 184.889 75.157, 185.282 75.147, 186.745 73.684 C 188.018 72.411, 188.141 71.565, 187.312 69.780 C 182.149 58.645, 181 56.037, 181 55.455 C 181 54.302, 170.980 42.129, 168.289 40.013 C 165.260 37.630, 164.939 37.593, 162.536 39.350 M 126.985 51.008 C 124.918 52.284, 125.153 63.634, 127.420 72 C 128.388 75.575, 129.413 80.190, 129.696 82.256 C 129.979 84.322, 130.614 86.261, 131.106 86.565 C 131.598 86.869, 132.003 88.329, 132.006 89.809 C 132.010 91.289, 132.685 93.789, 133.506 95.364 C 134.328 96.940, 135 99.308, 135 100.628 C 135 101.947, 135.543 103.896, 136.206 104.958 C 137.824 107.549, 135.771 109.766, 127.960 113.860 C 124.673 115.583, 121.200 117.408, 120.242 117.914 C 112.316 122.104, 107.640 124.021, 107.046 123.325 C 105.738 121.794, 103.929 109.553, 103.872 101.850 C 103.839 97.282, 103.241 93.091, 102.389 91.449 C 101.123 89.008, 101.151 88.490, 102.640 86.845 C 103.563 85.826, 105.949 84.552, 107.944 84.015 C 109.938 83.478, 113.046 81.516, 114.849 79.656 C 117.701 76.714, 118.087 75.701, 117.814 71.895 C 117.429 66.525, 115.535 65.838, 111.192 69.492 C 107.243 72.815, 96.029 76.624, 87.507 77.536 C 81.998 78.126, 80.702 78.618, 80.026 80.375 C 79.404 81.992, 79.826 83.157, 81.792 85.250 C 84.080 87.687, 85.093 88, 90.687 88 C 94.159 88, 97 88.241, 97 88.535 C 97 88.830, 96.277 90.174, 95.394 91.522 C 94.096 93.502, 93.909 95.564, 94.419 102.237 C 96.140 124.756, 96.199 128.590, 94.840 129.717 C 91.102 132.815, 77.163 139.064, 66.500 142.422 C 49.764 147.693, 49.147 147.961, 48.410 150.283 C 47.912 151.854, 48.565 153.023, 51.127 155.148 C 55.041 158.395, 56.471 158.537, 64.540 156.482 C 70.895 154.863, 71.848 154.473, 85.002 148.112 C 89.677 145.850, 94.007 144, 94.623 144 C 96.002 144, 97.475 165.952, 96.460 171.364 C 95.976 173.944, 94.964 175.489, 93.132 176.448 C 91.684 177.205, 87.397 180.789, 83.605 184.412 C 79.813 188.036, 76.327 191, 75.858 191 C 75.389 191, 73.204 192.627, 71.003 194.616 C 68.108 197.232, 67 199.025, 67 201.093 C 67 204.457, 69.011 205.983, 77.188 208.827 C 80.359 209.930, 84.747 212.508, 87.103 214.653 C 89.427 216.769, 93.996 220.975, 97.255 224 C 100.515 227.025, 104.041 229.907, 105.092 230.404 C 108.814 232.163, 112.987 225.387, 110.013 222.413 C 109.424 221.824, 108.997 211.787, 108.954 197.463 C 108.876 172.045, 108.746 172.897, 113.983 164.500 C 115.012 162.850, 115.887 160.514, 115.927 159.309 C 116.008 156.872, 114.485 155.406, 113.510 156.984 C 113.165 157.543, 111.845 158, 110.579 158 C 108.532 158, 108.203 157.388, 107.629 152.500 C 107.273 149.475, 107.281 144.464, 107.645 141.364 L 108.307 135.728 115.404 132.445 C 119.307 130.640, 126.100 127.104, 130.500 124.589 C 134.900 122.073, 139.178 120.012, 140.006 120.007 C 141.444 120, 142.238 121.469, 145.681 130.500 C 146.519 132.700, 147.609 135.281, 148.103 136.236 C 148.596 137.191, 149 138.909, 149 140.052 C 149 141.196, 149.529 143.114, 150.175 144.316 C 150.821 145.517, 151.691 148.075, 152.109 150 C 152.526 151.925, 153.395 155.300, 154.040 157.500 C 155.591 162.786, 155.408 166.892, 153.529 168.968 C 152.688 169.897, 152 171.612, 152 172.778 C 152 174.026, 150.560 175.996, 148.500 177.568 C 145.117 180.148, 143.851 183, 146.090 183 C 146.689 183, 147.966 182.028, 148.928 180.841 C 149.912 179.626, 151.184 178.996, 151.838 179.400 C 153.542 180.453, 153.296 186.672, 151.524 187.352 C 150.713 187.664, 149.060 190.074, 147.851 192.709 C 145.980 196.789, 137.523 210.187, 118.490 239.222 C 112.346 248.596, 109.202 248.033, 114.750 238.553 C 119.155 231.025, 119.341 230.729, 122.750 225.820 C 124.537 223.246, 126 220.624, 126 219.994 C 126 219.364, 127.930 216.295, 130.290 213.174 C 136.083 205.511, 138 202.364, 138 200.515 C 138 199.660, 139.125 197.178, 140.500 195 C 141.875 192.822, 143 190.629, 143 190.127 C 143 189.625, 143.675 188.955, 144.500 188.638 C 146.165 187.999, 146.577 185, 145 185 C 144.450 185, 144 185.434, 144 185.965 C 144 186.496, 142.718 188.409, 141.150 190.215 C 139.583 192.022, 138.017 194.625, 137.671 196 C 137.325 197.375, 136.139 199.850, 135.036 201.500 C 130.724 207.952, 123.867 218.716, 121.340 223 C 119.881 225.475, 116.619 230.546, 114.093 234.268 C 111.567 237.990, 108.825 242.123, 108 243.452 C 103.648 250.461, 96.245 260.536, 90.103 267.808 C 83.458 275.675, 83.210 276.158, 83.716 280.246 C 84.006 282.586, 84.783 285.079, 85.444 285.787 C 86.686 287.118, 90 286.468, 90 284.893 C 90 284.402, 90.860 284, 91.911 284 C 93.895 284, 98.997 278.730, 99.004 276.673 C 99.007 276.028, 100.697 273.250, 102.761 270.500 C 107.634 264.006, 111.851 257.637, 113.634 254.078 C 114.025 253.297, 116.779 249.043, 119.752 244.626 C 122.726 240.208, 125.867 235.223, 126.733 233.547 C 127.599 231.871, 131.839 225.194, 136.154 218.709 C 140.469 212.225, 144 206.673, 144 206.373 C 144 206.073, 146.250 202.572, 149 198.594 C 151.750 194.616, 154 190.900, 154 190.336 C 154 188.686, 157.487 186, 159.629 186 C 160.713 186, 162.178 185.438, 162.884 184.750 C 163.919 183.743, 164.834 184.263, 167.584 187.417 C 169.463 189.571, 171 192.068, 171 192.967 C 171 193.865, 171.391 195.027, 171.869 195.550 C 172.346 196.072, 173.538 198.652, 174.517 201.283 C 176.633 206.969, 177.675 207.827, 179.476 205.363 C 180.778 203.584, 180.884 203.585, 182.910 205.418 C 184.059 206.459, 185 207.996, 185 208.834 C 185 210.698, 186.829 216.611, 188.453 220 C 189.112 221.375, 190.231 224.525, 190.940 227 C 191.648 229.475, 192.586 232.400, 193.023 233.500 C 193.461 234.600, 194.081 236.316, 194.402 237.313 C 195.056 239.344, 197 238.681, 197 236.427 C 197 234.960, 196.702 234.221, 193.669 228.169 C 192.751 226.337, 192 224.064, 192 223.119 C 192 222.174, 191.517 220.917, 190.926 220.326 C 190.335 219.735, 189.703 218.182, 189.521 216.876 C 188.806 211.737, 185.629 203.039, 180.926 193.346 C 178.217 187.762, 176 182.877, 176 182.491 C 176 182.105, 174.828 180.396, 173.395 178.693 C 171.283 176.183, 170.887 174.879, 171.300 171.799 C 171.580 169.710, 171.402 167.749, 170.905 167.441 C 169.522 166.586, 169.788 165.592, 172.446 161.674 C 174.063 159.291, 175.125 155.938, 175.577 151.785 C 175.953 148.328, 176.617 145.046, 177.052 144.492 C 178.093 143.166, 180.967 134.876, 180.985 133.145 C 180.993 132.400, 182.125 129.551, 183.500 126.813 C 184.875 124.076, 186 120.999, 186 119.977 C 186 118.955, 186.450 117.840, 187 117.500 C 187.550 117.160, 188 116.242, 188 115.460 C 188 114.679, 189.512 111.668, 191.360 108.769 C 194.002 104.626, 194.938 101.791, 195.739 95.500 C 196.543 89.194, 196.483 87.206, 195.457 86.113 C 193.889 84.443, 191.202 85.284, 190.300 87.727 C 189.941 88.702, 188.551 91.258, 187.212 93.407 C 182.633 100.754, 180 106.297, 180 108.590 C 180 109.851, 179.550 111.160, 179 111.500 C 178.450 111.840, 178 112.922, 178 113.905 C 178 115.537, 176.314 119.822, 173.936 124.236 C 173.421 125.191, 173 127.077, 173 128.427 C 173 129.777, 172.550 131.160, 172 131.500 C 171.450 131.840, 171 132.936, 171 133.937 C 171 134.937, 170.325 136.315, 169.500 137 C 168.675 137.685, 168 139.450, 168 140.922 C 168 142.395, 167.588 144.027, 167.085 144.550 C 166.581 145.072, 166.019 146.620, 165.835 147.990 C 165.433 150.979, 162 152.128, 162 149.273 C 162 148.243, 161.608 146.973, 161.129 146.450 C 160.649 145.928, 159.472 142.800, 158.513 139.500 C 156.952 134.131, 155.854 131.139, 153.007 124.500 C 152.536 123.400, 151.882 120.183, 151.554 117.352 L 150.958 112.203 156.157 108.064 C 159.016 105.788, 162.792 103.243, 164.548 102.410 C 166.305 101.577, 168.576 99.345, 169.596 97.451 C 171.438 94.032, 171.435 93.990, 169.203 91.758 L 166.954 89.510 161.333 92.453 C 158.241 94.072, 154.268 96.882, 152.505 98.698 C 150.741 100.514, 148.383 102, 147.264 102 C 145.554 102, 145.123 101.142, 144.556 96.601 C 144.129 93.187, 143.168 90.557, 141.941 89.446 C 140.614 88.246, 140 86.378, 140 83.545 C 140 81.265, 139.587 78.973, 139.083 78.450 C 138.578 77.928, 137.714 73.675, 137.161 69 C 135.656 56.259, 134.842 53.812, 131.452 51.832 C 129.454 50.665, 127.981 50.393, 126.985 51.008 M 91.250 194.518 C 87.813 198.064, 85 201.341, 85 201.800 C 85 203.235, 98.215 211.131, 99.678 210.570 C 101.780 209.763, 101.137 188.620, 99 188.296 C 98.175 188.171, 94.688 190.971, 91.250 194.518 M 179 210.941 C 179 212.009, 179.450 213.160, 180 213.500 C 180.550 213.840, 181 214.998, 181 216.073 C 181 218.033, 181.239 218.661, 184.331 224.831 C 185.249 226.663, 186 228.999, 186 230.022 C 186 231.758, 187.681 233.652, 188.498 232.836 C 189.136 232.197, 185.345 219.661, 182.878 214.253 C 180.401 208.824, 179 207.627, 179 210.941 M 188.464 235.250 C 187.558 237.588, 188.576 240, 190.469 240 C 192.390 240, 192.436 237.975, 190.571 235.441 C 189.240 233.632, 189.097 233.619, 188.464 235.250 M 197 242.441 C 197 245.726, 195.357 246.544, 193.792 244.039 C 189.967 237.913, 190.587 246.082, 194.576 254.349 C 195.909 257.113, 197 260.006, 197 260.778 C 197 261.550, 198.575 264.022, 200.500 266.271 C 202.425 268.520, 204 271.235, 204 272.304 C 204 274.271, 211.246 281.391, 215.722 283.823 C 217.143 284.595, 217.935 285.728, 217.623 286.541 C 216.672 289.019, 221.033 290.588, 224.183 288.902 C 227.284 287.242, 229 281.377, 229 272.437 C 229 267.862, 228.550 263.840, 228 263.500 C 227.450 263.160, 226.997 261.896, 226.994 260.691 C 226.990 259.486, 226.315 257.211, 225.494 255.636 C 224.672 254.060, 224 250.621, 224 247.993 C 224 244.776, 223.534 243.035, 222.573 242.666 C 218.844 241.235, 218.462 246.274, 220.555 269.250 C 221.067 274.867, 220.918 276, 219.665 276 C 218.811 276, 217.879 274.724, 217.511 273.052 C 217.155 271.430, 215.544 268.443, 213.932 266.414 C 212.319 264.385, 211 262.377, 211 261.952 C 211 260.334, 202.884 251, 201.477 251 C 199.710 251, 199.588 249.632, 201.134 247.156 C 202.025 245.730, 201.893 244.767, 200.519 242.670 C 198.340 239.343, 197 239.256, 197 242.441" stroke="none" fill="black" fill-rule="evenodd"/>
</svg>