<svg xmlns="http://www.w3.org/2000/svg" width="300" height="300" viewBox="0 0 300 300" version="1.1">
	<path d="M 140.211 55.250 C 138.947 56.777, 139.326 68.192, 140.933 76.980 C 141.711 81.236, 141.774 83.575, 141.115 83.795 C 140.564 83.979, 138.528 85.338, 136.591 86.815 C 134.653 88.292, 131.976 90.273, 130.640 91.217 C 128.660 92.617, 128.237 93.728, 128.355 97.217 C 128.478 100.839, 128.846 101.549, 130.741 101.818 C 132.063 102.006, 134.808 100.826, 137.435 98.940 C 143.996 94.228, 145.143 95.155, 144.592 104.726 C 144.346 109.002, 143.437 114.709, 142.572 117.409 C 141.707 120.109, 141 124.465, 141 127.089 C 141 131.482, 140.663 132.141, 136.750 135.392 C 122.512 147.222, 118.768 150.152, 116.752 151.042 C 115.513 151.588, 112.025 153.585, 109 155.479 C 101.409 160.232, 97.244 160.975, 94.986 157.982 C 92.293 154.411, 90 155.984, 90 161.404 C 90 163.860, 90.439 167.024, 90.975 168.435 C 91.839 170.707, 92.511 171, 96.853 171 C 99.990 171, 102.203 170.460, 103 169.500 C 103.685 168.675, 105.175 168, 106.312 168 C 108.575 168, 120.454 161.231, 125.978 156.794 C 129.199 154.206, 132 153.184, 132 154.596 C 132 154.923, 131.400 156.386, 130.666 157.846 C 129.933 159.306, 128.188 162.975, 126.788 166 C 123.889 172.263, 114.414 191.250, 110.793 198.051 C 109.461 200.554, 106.937 204.685, 105.185 207.231 C 103.433 209.777, 102 212.113, 102 212.422 C 102 213.223, 95.657 221.643, 90.711 227.407 C 88.395 230.105, 85.600 233.569, 84.500 235.104 C 82.224 238.280, 79.036 240, 75.428 240 C 73.663 240, 72.658 240.768, 71.934 242.673 C 70.608 246.161, 72.357 247.970, 77.755 248.694 C 81.762 249.231, 81.844 249.175, 92.143 238.752 C 105.679 225.053, 108.941 220.739, 114.454 209.250 C 115.839 206.363, 117.418 204, 117.961 204 C 118.505 204, 119.885 202.088, 121.027 199.750 C 122.169 197.412, 124.038 193.700, 125.180 191.500 C 126.322 189.300, 128.035 185.925, 128.987 184 C 132.411 177.076, 134.524 174.013, 135.881 174.006 C 136.640 174.003, 140.486 176.813, 144.427 180.250 C 148.368 183.688, 153.087 187.625, 154.913 189 C 156.739 190.375, 159.644 192.672, 161.367 194.103 C 163.090 195.535, 165.569 197.269, 166.875 197.956 C 170.296 199.754, 176.666 204.823, 183 210.787 C 186.025 213.635, 188.950 215.977, 189.500 215.991 C 190.754 216.024, 200.319 224.084, 209.500 232.844 C 213.350 236.517, 219.875 242.442, 224 246.010 C 228.125 249.578, 231.812 252.948, 232.193 253.499 C 235.779 258.676, 240.918 264.074, 242.750 264.587 C 243.988 264.933, 246.125 264.934, 247.500 264.589 C 249.632 264.054, 250 263.388, 250 260.063 C 250 255.036, 249.183 253, 247.165 253 C 246.273 253, 243.954 251.313, 242.010 249.250 C 240.066 247.188, 235.601 243.025, 232.088 240 C 228.574 236.975, 222.390 231.486, 218.345 227.801 C 202.240 213.130, 176.354 192, 174.487 192 C 173.956 192, 155.521 176.666, 150 171.631 C 148.625 170.378, 145.785 168.564, 143.690 167.600 C 141.594 166.637, 139.631 165.203, 139.328 164.413 C 138.766 162.947, 141.649 156.212, 148.709 142.500 C 150.982 138.085, 154.807 134.265, 161 130.226 C 164.025 128.253, 168.300 125.215, 170.500 123.475 C 172.700 121.734, 174.950 120.128, 175.500 119.905 C 176.050 119.682, 179.508 117.302, 183.184 114.616 C 192.323 107.938, 194.585 101.938, 188.536 100.420 C 186.545 99.920, 185.133 100.516, 182.091 103.140 C 173.708 110.372, 154.598 124, 152.839 124 C 152.140 124, 152.044 122.718, 152.558 120.250 C 153.457 115.935, 153.595 114.494, 154.573 99.311 L 155.293 88.122 159.683 85.811 C 164.750 83.143, 165.996 80.169, 163.587 76.493 C 162.374 74.641, 161.076 74, 158.536 74 C 156.656 74, 154.840 74.450, 154.500 75 C 153.425 76.740, 151 76.081, 151 74.049 C 151 72.091, 148.836 63.242, 147.441 59.500 C 145.667 54.739, 142.280 52.749, 140.211 55.250 M 63.414 65.765 C 60.572 67.688, 59.907 73.332, 61.167 84.841 L 62.410 96.183 59.955 98.092 C 58.605 99.142, 55.250 101.134, 52.500 102.519 C 49.750 103.904, 46.825 105.424, 46 105.897 C 42.422 107.949, 36.757 110, 34.666 110 C 31.679 110, 30 111.799, 30 115 C 30 120.196, 34.957 121.533, 41.790 118.179 C 43.830 117.178, 47.525 115.740, 50 114.984 C 52.475 114.229, 55.800 112.550, 57.388 111.254 C 58.976 109.958, 61.226 109.033, 62.388 109.199 C 64.227 109.461, 64.591 110.406, 65.202 116.500 C 65.589 120.350, 66.167 132.055, 66.487 142.511 C 66.938 157.208, 66.778 161.885, 65.785 163.122 C 62.677 166.992, 48.795 178.899, 42.446 183.140 C 38.626 185.692, 31.900 189.271, 27.500 191.094 C 17.255 195.338, 13.928 197.166, 12.590 199.289 C 10.816 202.100, 13.149 204.354, 19.602 206.060 C 26.219 207.811, 26.858 208.337, 49 230.250 C 56.642 237.813, 63.313 244, 63.824 244 C 64.336 244, 65.354 243.278, 66.086 242.396 C 66.819 241.514, 68.403 240.417, 69.606 239.960 C 71.636 239.188, 71.838 238.272, 72.394 227.314 C 72.724 220.816, 73.484 211.900, 74.083 207.500 C 74.683 203.100, 75.508 192.014, 75.917 182.864 C 76.649 166.491, 76.709 166.154, 79.756 161.555 C 83.537 155.846, 86.725 146.325, 85.323 144.923 C 84.682 144.282, 83.449 144.646, 81.764 145.971 C 76.989 149.727, 76.215 148.876, 76.156 139.801 C 76.126 135.291, 75.578 126.520, 74.938 120.310 C 73.521 106.568, 74.063 103.146, 78.273 99.248 C 80.048 97.605, 84.109 93.867, 87.298 90.940 C 92.736 85.949, 93.078 85.367, 92.798 81.568 C 92.384 75.945, 89.828 75.641, 85.068 80.650 C 80.443 85.518, 75.073 90, 73.866 90 C 72.638 90, 72.409 89.077, 71.014 78.500 C 70.361 73.550, 69.425 68.487, 68.935 67.250 C 68.053 65.025, 65.517 64.343, 63.414 65.765 M 59.739 180.750 C 57.213 183.363, 52.843 187.300, 50.028 189.500 C 47.212 191.700, 43.408 194.738, 41.572 196.250 C 39.737 197.762, 37.395 199.010, 36.368 199.022 C 33.626 199.055, 29.588 202.483, 30.252 204.215 C 30.562 205.023, 32.368 206.421, 34.265 207.322 C 38.764 209.456, 54.887 221.464, 57.653 224.739 C 61.373 229.145, 62.635 227.298, 63.397 216.336 C 63.773 210.926, 64.500 204.025, 65.012 201 C 66.568 191.810, 66.888 176, 65.519 176 C 64.866 176, 62.265 178.137, 59.739 180.750" stroke="none" fill="black" fill-rule="evenodd"/>
</svg>