<svg xmlns="http://www.w3.org/2000/svg" width="300" height="300" viewBox="0 0 300 300" version="1.1">
	<path d="M 57.870 76.976 C 54.945 79.901, 54.902 80.094, 55.393 88.226 C 55.668 92.777, 56.195 99.893, 56.564 104.041 L 57.236 111.582 49.368 116.574 C 40.650 122.106, 37.184 123.884, 32.014 125.480 C 29.607 126.223, 28.227 127.415, 27.553 129.331 C 25.341 135.620, 31.523 137.265, 39.439 132.494 C 41.673 131.148, 45.525 129.081, 48 127.900 C 50.475 126.719, 53.250 125.098, 54.168 124.296 C 55.085 123.495, 56.885 122.988, 58.168 123.170 C 60.202 123.458, 60.494 124.043, 60.455 127.750 C 60.430 130.088, 60.317 138.540, 60.205 146.533 L 60 161.066 49.250 171.395 C 28.706 191.133, 22.814 196.035, 6.250 207.167 C 2.813 209.477, 0 211.757, 0 212.233 C 0 214.057, 2.998 218.785, 4.526 219.372 C 6.317 220.059, 10.959 217.960, 12.949 215.562 C 13.665 214.698, 16.869 212.402, 20.069 210.458 C 23.268 208.515, 26.924 205.690, 28.193 204.182 C 29.463 202.673, 32.571 200.015, 35.101 198.275 C 37.630 196.534, 43.815 190.762, 48.846 185.447 C 54.514 179.457, 58.522 175.986, 59.386 176.318 C 60.902 176.900, 60.864 178.887, 58.887 202 C 56.825 226.099, 56.757 226.464, 54.252 226.819 C 53.015 226.995, 50.765 226.258, 49.252 225.182 C 47.738 224.106, 44.475 222.696, 42 222.048 C 39.525 221.401, 35.999 220.407, 34.165 219.840 C 30.535 218.718, 24 219.502, 24 221.060 C 24 222.475, 29.566 225.630, 35.413 227.528 C 38.211 228.436, 41.932 230.264, 43.683 231.590 C 45.434 232.915, 47.244 234, 47.705 234 C 48.167 234, 50.109 235.281, 52.022 236.847 C 58.073 241.799, 59.610 242.295, 62.740 240.303 C 66.811 237.712, 66.968 237.258, 66.986 228 C 66.994 223.325, 67.472 214.550, 68.046 208.500 C 68.621 202.450, 69.225 190.975, 69.389 183 C 69.706 167.620, 70.598 164.056, 75.728 157.673 C 76.978 156.119, 78 153.976, 78 152.911 C 78 151.232, 77.500 151.056, 74.214 151.582 L 70.428 152.187 70.464 133.507 L 70.500 114.827 73.193 112.663 C 74.674 111.474, 78.609 108.501, 81.937 106.059 C 88.779 101.036, 89.624 99.421, 87.995 94.484 C 86.486 89.914, 82.766 89.618, 80.556 93.892 C 78.666 97.546, 71.855 103, 69.182 103 C 67.352 103, 67.097 102.189, 66.591 94.750 C 66.282 90.213, 66.042 84.164, 66.058 81.308 C 66.081 77.142, 65.696 75.907, 64.109 75.058 C 61.361 73.588, 61.213 73.633, 57.870 76.976 M 159.785 86.389 C 157.428 88.802, 150.683 94.540, 144.795 99.139 C 127.134 112.933, 125.543 114.043, 119.227 116.969 C 114.657 119.086, 112.645 122.371, 114.153 125.250 C 115.371 127.573, 118.327 127.459, 123.364 124.894 C 125.639 123.736, 129.591 121.711, 132.147 120.394 C 134.703 119.077, 137.012 118, 137.278 118 C 137.544 118, 138.083 122.274, 138.474 127.499 C 138.866 132.723, 139.605 137.256, 140.116 137.572 C 140.647 137.900, 141.009 147.531, 140.960 160.043 C 140.881 180.429, 140.716 182.339, 138.578 187.720 C 136.651 192.567, 131.629 202.704, 130.688 203.645 C 130.538 203.795, 127.060 204.417, 122.958 205.029 C 118.856 205.640, 111.136 207.291, 105.803 208.698 C 96.827 211.066, 96.028 211.482, 95.048 214.293 C 94.189 216.756, 94.303 217.677, 95.649 219.165 C 97.686 221.415, 100.204 221.466, 107.701 219.408 C 110.891 218.533, 117.775 217.002, 123 216.006 C 128.225 215.011, 133.625 213.762, 135 213.232 C 136.375 212.702, 140.200 211.951, 143.500 211.563 C 146.800 211.175, 153.325 210.183, 158 209.358 C 174.046 206.527, 177.516 205.980, 185 205.097 C 196.014 203.798, 218.087 203.827, 219.672 205.143 C 220.672 205.972, 221.852 205.588, 224.498 203.570 C 226.424 202.100, 228 200.325, 228 199.623 C 228 197.416, 223.188 193.717, 220.285 193.693 C 203.876 193.557, 187.312 194.347, 182 195.519 C 175.876 196.870, 157.645 199.685, 148.250 200.729 C 142.998 201.313, 142.839 199.225, 147.662 193 C 150.766 188.994, 151.717 148.701, 149.155 129.710 C 147.646 118.523, 148.863 109.382, 152.225 106.653 C 162.263 98.504, 172 89.776, 172 88.927 C 172 88.363, 171.313 86.573, 170.474 84.950 C 168.233 80.616, 164.996 81.051, 159.785 86.389" stroke="none" fill="black" fill-rule="evenodd"/>
</svg>