<svg xmlns="http://www.w3.org/2000/svg" width="300" height="300" viewBox="0 0 300 300" version="1.1">
	<path d="M 139.249 49.250 C 136.330 52.916, 135.696 57.671, 136.887 66.960 C 138.219 77.340, 138.069 77.763, 132.136 80.439 C 128.580 82.042, 128.011 82.057, 125.231 80.620 C 122.394 79.152, 122.038 79.182, 119.601 81.099 C 116.604 83.457, 116.402 84.944, 118.526 89.050 C 119.923 91.752, 120.496 92, 125.335 92 C 128.432 92, 131.421 91.393, 132.559 90.532 C 133.626 89.724, 135.287 89.049, 136.250 89.032 C 137.779 89.004, 138 90.050, 138 97.300 C 138 112.486, 143.193 111.763, 154.528 95 C 156.945 91.425, 160.153 86.700, 161.657 84.500 C 171.590 69.969, 177 61.098, 177 59.341 C 177 57.005, 174.070 54, 171.793 54 C 169.729 54, 162 64.113, 162 66.814 C 162 67.984, 160.067 72.218, 157.704 76.221 C 155.341 80.225, 152.376 85.638, 151.115 88.250 C 147.919 94.870, 146 94.540, 146 87.371 C 146 82.343, 146.373 81.329, 149.500 77.868 C 153.590 73.341, 153.864 72, 150.700 72 C 146.728 72, 146 70.198, 146 60.371 C 146 53.315, 145.630 50.773, 144.429 49.571 C 142.535 47.678, 140.597 47.557, 139.249 49.250 M 66.104 60.250 C 65.293 62.406, 65.434 72.298, 66.444 84.007 C 66.705 87.036, 66.553 90.105, 66.107 90.827 C 65.660 91.550, 62.336 94.247, 58.719 96.820 C 55.103 99.394, 49.421 103.597, 46.093 106.160 C 42.765 108.722, 39.470 111.021, 38.771 111.268 C 37.806 111.609, 37.956 112.588, 39.396 115.337 C 41.770 119.871, 44.452 120.843, 47.335 118.216 C 51.253 114.646, 67.109 104.949, 68.065 105.540 C 68.579 105.858, 69 107.681, 69 109.591 C 69 114.162, 71.495 120, 73.449 120 C 75.428 120, 75.428 120.966, 73.450 122.413 C 72.156 123.359, 71.929 126.015, 72.072 138.523 C 72.314 159.712, 72.299 159.847, 69.406 163.366 C 63.872 170.096, 36.391 197.264, 33.719 198.645 C 28.379 201.407, 26 204.174, 26 207.624 C 26 210.598, 28.751 214, 31.156 214 C 31.971 214, 43.742 204.943, 46 202.579 C 46.825 201.715, 50.311 197.969, 53.746 194.254 C 68.314 178.502, 70.962 176, 73.063 176 C 74.768 176, 75.038 176.363, 74.367 177.750 C 73.901 178.713, 73.687 191.537, 73.890 206.250 C 74.317 237.189, 74.648 236.370, 65.296 227.506 C 61.170 223.595, 58.708 222.011, 56.750 222.006 C 54.485 222.001, 54 222.439, 54 224.489 C 54 227.660, 55.552 229.645, 65.930 239.750 C 71.115 244.798, 75.222 248, 76.513 248 C 79.309 248, 82.982 244.478, 83.072 241.711 C 83.112 240.495, 83.368 232.750, 83.641 224.500 C 83.914 216.250, 83.623 199.881, 82.993 188.125 C 82.177 172.876, 82.157 166.443, 82.925 165.675 C 83.516 165.084, 84.002 163.677, 84.004 162.550 C 84.008 160.243, 86.524 155.950, 90.460 151.534 C 91.914 149.903, 94.079 146.978, 95.270 145.034 C 96.462 143.090, 98.238 140.628, 99.218 139.561 C 101.361 137.230, 101.448 136.386, 99.619 135.684 C 97.531 134.883, 91.287 139.585, 88.430 144.111 C 86.533 147.116, 85.343 148.047, 83.698 147.813 C 81.710 147.530, 81.436 146.735, 80.831 139.500 C 80.463 135.100, 79.788 129.250, 79.331 126.500 C 78.874 123.750, 78.725 115.100, 79 107.277 L 79.500 93.054 84.506 87.777 C 91.589 80.310, 93.168 77.537, 92.807 73.198 C 92.543 70.019, 92.122 69.456, 89.807 69.189 C 87.623 68.937, 86.792 69.503, 85.409 72.189 C 83.845 75.227, 79.280 79.996, 77.935 79.999 C 76.276 80.002, 74 72.293, 74 66.666 C 74 63.126, 73.478 59.878, 72.800 59.200 C 70.780 57.180, 67.038 57.766, 66.104 60.250 M 155.874 105.652 C 155.119 106.561, 152.089 109.087, 149.139 111.267 C 138.218 119.334, 133.404 126.400, 135.359 131.492 C 136.331 134.027, 138.400 133.210, 143.564 128.250 C 151.899 120.246, 157.819 115.819, 159.703 116.181 C 160.970 116.424, 161.664 117.751, 162.056 120.677 C 162.361 122.959, 163.097 125.428, 163.691 126.163 C 164.873 127.626, 166.565 137.476, 167.547 148.609 C 168.063 154.450, 167.903 155.823, 166.653 156.303 C 165.816 156.624, 161.656 161.525, 157.409 167.194 C 153.162 172.862, 145.862 181.662, 141.186 186.750 C 132.741 195.940, 129.119 198.291, 130.403 193.750 C 131.736 189.036, 133.964 175.341, 133.982 171.750 L 134 168 138.474 168 C 143.638 168, 156.928 161.835, 160.918 157.588 C 162.999 155.372, 163.173 154.675, 162.186 152.510 C 160.669 149.179, 157.808 149.273, 149.862 152.919 C 146.363 154.524, 141.653 156.128, 139.395 156.482 L 135.289 157.127 134.645 152.424 C 134.290 149.837, 134 145.543, 134 142.881 C 134 136.985, 130.445 125.712, 127.842 123.357 C 126.359 122.015, 125.342 121.845, 123.229 122.588 C 119.816 123.789, 119.351 126.117, 121.588 130.811 C 124.088 136.054, 125.114 141.197, 125.717 151.500 C 126.225 160.193, 124.685 180.341, 123.040 186.500 C 122.600 188.150, 121.467 193.100, 120.524 197.500 C 117.933 209.578, 116.857 213.097, 114.319 217.785 C 111.580 222.847, 111.324 226.803, 113.679 227.707 C 116.308 228.716, 121.410 221.977, 123.875 214.241 C 126.806 205.039, 127.422 204.180, 129.956 205.750 C 131.065 206.438, 132.779 207, 133.764 207 C 135.884 207, 146.731 196.432, 151.292 189.922 C 153.057 187.404, 155.996 183.354, 157.825 180.922 C 159.653 178.490, 162.757 173.442, 164.722 169.705 C 167.185 165.021, 168.793 163.011, 169.897 163.236 C 170.986 163.458, 171.375 164.354, 171.109 166.031 C 170.445 170.222, 170.798 189.554, 171.921 210.500 C 172.511 221.500, 173.263 236.928, 173.592 244.784 C 174.450 265.316, 173.662 265.826, 158.702 254.420 C 151.482 248.915, 148.460 247.140, 147.662 247.938 C 144.939 250.661, 156.324 263.558, 165.280 267.893 C 167.673 269.052, 171.484 270, 173.748 270 C 177.182 270, 178.218 269.502, 180.006 266.992 C 182.077 264.083, 182.129 263.304, 181.584 243.242 C 181.274 231.834, 180.752 210.350, 180.424 195.500 C 180.026 177.518, 179.445 168.039, 178.682 167.119 C 178.052 166.359, 177.217 161.409, 176.826 156.119 C 176.029 145.334, 174.778 137.201, 173.117 132.007 C 172.503 130.085, 172 125.949, 172 122.816 C 172 119.682, 171.550 116.840, 171 116.500 C 170.450 116.160, 170 114.514, 170 112.842 C 170 106.419, 159.621 101.137, 155.874 105.652 M 76 150.500 C 76 151.325, 75.966 152.326, 75.925 152.725 C 75.884 153.124, 76.334 153.611, 76.925 153.808 C 77.516 154.005, 78 153.004, 78 151.583 C 78 150.162, 77.550 149, 77 149 C 76.450 149, 76 149.675, 76 150.500 M 75.754 172.250 C 75.158 173.872, 75.912 176, 77.083 176 C 77.588 176, 78 174.875, 78 173.500 C 78 170.892, 76.550 170.085, 75.754 172.250" stroke="none" fill="black" fill-rule="evenodd"/>
</svg>