<svg xmlns="http://www.w3.org/2000/svg" width="300" height="300" viewBox="0 0 300 300" version="1.1">
	<path d="M 127.098 32.382 C 125.189 34.683, 126.117 40.256, 128.920 43.322 C 131.472 46.113, 131.812 47.887, 131.898 58.852 C 131.948 65.385, 135.542 66.724, 140.620 62.101 C 143.506 59.474, 143.723 58.819, 143.520 53.380 C 143.222 45.422, 142.253 42.396, 139.405 40.530 C 138.082 39.663, 137 38.426, 137 37.782 C 137 35.966, 131.827 31, 129.935 31 C 129.006 31, 127.729 31.622, 127.098 32.382 M 158 56.500 C 155.571 58.975, 152.882 61, 152.023 61 C 151.165 61, 148.285 62.800, 145.623 65 C 142.960 67.200, 140.156 69, 139.391 69 C 138.626 69, 138 69.397, 138 69.883 C 138 71.133, 125.695 79, 123.739 79 C 122.848 79, 121.840 79.450, 121.500 80 C 121.160 80.550, 120.205 81, 119.377 81 C 118.549 81, 115.538 82.061, 112.686 83.357 C 109.834 84.653, 105.025 86.313, 102 87.045 C 94.840 88.778, 94 89.508, 94 94 C 94 99.612, 95.902 100.699, 102.303 98.746 C 105.161 97.874, 109.840 96.860, 112.700 96.493 C 115.560 96.126, 118.427 95.190, 119.072 94.413 C 119.717 93.636, 121.074 93, 122.088 93 C 123.101 93, 125.468 91.650, 127.347 90 C 129.226 88.350, 131.872 87, 133.227 87 C 134.582 87, 136.547 86.052, 137.595 84.894 C 138.643 83.735, 141.075 81.979, 143 80.991 C 144.925 80.003, 147.591 78.026, 148.924 76.597 C 150.258 75.169, 152.068 74, 152.946 74 C 153.825 74, 156.109 72.734, 158.022 71.187 C 159.935 69.640, 162.904 67.810, 164.620 67.120 C 170.063 64.931, 171.714 57.959, 167.686 54.174 C 164.393 51.081, 162.986 51.419, 158 56.500 M 49.667 60.667 C 48.704 61.629, 48.846 69.427, 49.846 70.550 C 50.312 71.073, 51.247 74.875, 51.924 79 C 52.601 83.125, 53.570 88.387, 54.078 90.693 C 54.585 92.999, 55 96.771, 55 99.075 C 55 102.583, 54.419 103.811, 51.429 106.632 C 49.465 108.484, 47.240 110, 46.486 110 C 45.731 110, 44.486 110.896, 43.719 111.991 C 42.339 113.960, 35.903 118.962, 33 120.320 C 32.175 120.706, 30.150 121.903, 28.500 122.981 C 26.850 124.058, 24.262 125.639, 22.750 126.495 C 19.602 128.276, 19.319 130.031, 21.615 133.535 C 23.570 136.519, 26.308 136.692, 29 134 C 30.100 132.900, 31.684 132, 32.520 132 C 34.627 132, 41.402 127.592, 46.459 122.931 C 48.786 120.786, 51.772 118.912, 53.095 118.766 C 55.292 118.523, 55.492 118.847, 55.406 122.500 C 55.354 124.700, 55.173 132.800, 55.005 140.500 C 54.761 151.632, 54.322 155.254, 52.863 158.182 C 51.854 160.207, 50.571 162.147, 50.012 162.493 C 49.452 162.838, 48.131 165.018, 47.075 167.335 C 46.019 169.653, 44.220 172.396, 43.078 173.430 C 41.935 174.464, 41 176.003, 41 176.850 C 41 177.697, 39.807 179.636, 38.348 181.159 C 36.889 182.681, 34.077 186.144, 32.098 188.853 C 23.653 200.415, 22.313 201.880, 18.716 203.486 C 16.634 204.415, 14.220 206.261, 13.351 207.587 C 11.907 209.790, 11.910 210.214, 13.385 212.465 C 15.502 215.696, 17.397 216.591, 23.859 217.415 C 27.857 217.924, 30.523 219.072, 34.359 221.935 C 37.186 224.045, 40.162 226.723, 40.971 227.886 C 41.780 229.049, 43.224 230, 44.180 230 C 46.062 230, 52.203 236.161, 55.147 241.001 C 57.242 244.446, 59.945 244.926, 60.713 241.989 C 61.002 240.883, 62.278 239.717, 63.547 239.399 C 66.433 238.675, 67.171 236.849, 66.022 233.278 C 64.297 227.916, 62.974 213.917, 64.010 211.981 C 64.555 210.963, 64.663 209.089, 64.250 207.815 C 63.417 205.243, 64.417 168.076, 65.510 161 C 65.892 158.525, 66.609 156.072, 67.102 155.550 C 67.596 155.027, 68 153.592, 68 152.359 C 68 151.126, 68.450 149.840, 69 149.500 C 69.550 149.160, 70 147.892, 70 146.682 C 70 145.471, 70.917 143.909, 72.037 143.209 C 76.324 140.532, 77.070 132, 73.016 132 C 71.946 132, 70.574 132.927, 69.968 134.060 C 69.361 135.194, 68.114 135.976, 67.197 135.799 C 65.707 135.513, 65.565 133.822, 65.865 120.030 L 66.202 104.582 69.596 100.617 C 76.402 92.666, 78.607 85.025, 74.786 82.630 C 73.414 81.770, 72.470 82.133, 70.048 84.454 C 68.384 86.048, 66.763 88.173, 66.444 89.176 C 66.126 90.179, 65.287 91, 64.581 91 C 63.692 91, 63.104 88.500, 62.670 82.879 C 62.326 78.412, 61.665 74.250, 61.202 73.629 C 60.739 73.008, 59.749 70.475, 59.002 68 C 58.256 65.525, 56.980 62.712, 56.167 61.750 C 54.701 60.013, 50.946 59.387, 49.667 60.667 M 144.630 90.789 C 144.362 91.223, 144.143 97.289, 144.143 104.269 C 144.143 111.249, 143.777 117.531, 143.330 118.230 C 141.900 120.462, 140.031 126.424, 140.015 128.800 C 140.007 130.064, 139.254 132.539, 138.341 134.300 C 137.429 136.060, 136.326 138.850, 135.891 140.500 C 134.245 146.739, 131.357 153.731, 129.398 156.221 C 127.037 159.222, 124.429 169.070, 125.356 171.484 C 125.824 172.704, 126.582 172.935, 128.245 172.365 C 131.042 171.407, 135.838 171.644, 137.359 172.815 C 137.987 173.299, 141.591 174.765, 145.368 176.074 C 149.146 177.383, 152.449 179.006, 152.708 179.681 C 153.113 180.738, 150.895 185.911, 147.854 191 C 147.361 191.825, 146.179 194.075, 145.229 196 C 144.278 197.925, 140.463 203.839, 136.750 209.143 C 133.037 214.447, 129.988 219.397, 129.973 220.143 C 129.959 220.889, 128.271 223.353, 126.223 225.617 C 124.175 227.881, 121.130 231.256, 119.456 233.117 C 117.782 234.978, 115.612 236.950, 114.635 237.500 C 113.657 238.050, 112.777 239.400, 112.679 240.500 C 112.538 242.071, 113.196 242.567, 115.741 242.813 C 117.543 242.986, 119.974 242.431, 121.214 241.563 C 122.441 240.703, 123.933 240, 124.529 240 C 126.576 240, 134.780 231.462, 136.355 227.692 C 137.222 225.618, 139.463 222.026, 141.336 219.710 C 144.394 215.929, 155.090 199.812, 156.111 197.445 C 157.531 194.155, 162.675 187, 163.620 187 C 164.244 187, 165.330 187.692, 166.032 188.539 C 166.734 189.385, 169.437 190.993, 172.037 192.111 C 174.637 193.230, 178.027 195.462, 179.570 197.073 C 181.112 198.683, 182.881 200, 183.500 200 C 184.119 200, 185.948 201.407, 187.563 203.127 C 189.178 204.846, 191.792 207.057, 193.372 208.040 C 194.951 209.022, 199.676 213.046, 203.872 216.981 C 218.355 230.566, 220.030 232, 221.419 232 C 222.186 232, 224.713 234.268, 227.033 237.040 C 229.354 239.811, 232.538 242.744, 234.109 243.557 C 237.710 245.419, 239.892 249.608, 239.298 253.520 C 238.889 256.219, 239.209 256.674, 242.301 257.792 C 245.284 258.870, 246.193 258.798, 248.875 257.272 C 250.587 256.297, 251.990 254.734, 251.994 253.797 C 252.001 251.718, 254.120 246.741, 255.375 245.851 C 255.879 245.494, 256.024 244.506, 255.698 243.655 C 255.258 242.508, 254.213 242.253, 251.656 242.668 C 248.785 243.134, 248.098 242.884, 247.556 241.176 C 247.190 240.022, 245.416 238.632, 243.506 238.002 C 240.706 237.078, 230.224 228.224, 220.946 218.946 C 219.876 217.876, 218.438 216.996, 217.750 216.991 C 217.063 216.986, 213.575 214.077, 210 210.526 C 206.425 206.975, 202.963 204.054, 202.307 204.035 C 201.650 204.016, 200.462 203.070, 199.666 201.934 C 197.551 198.914, 179.010 183.072, 175.500 181.286 C 168.016 177.477, 166.817 172.548, 172.020 166.978 C 174.660 164.152, 175.497 163.819, 178.661 164.332 C 182.317 164.926, 186 163.739, 186 161.968 C 186 161.439, 184.358 159.188, 182.351 156.966 C 179.162 153.437, 178.846 152.647, 179.846 150.713 C 180.476 149.496, 180.989 147.150, 180.985 145.500 C 180.981 143.850, 180.973 141.600, 180.966 140.500 C 180.960 139.400, 181.228 136.909, 181.562 134.965 C 182.129 131.659, 181.409 126.441, 179.206 117.897 C 178.057 113.441, 174.382 108.333, 171.850 107.671 C 168.530 106.803, 163.583 108.849, 160.116 112.524 C 156.415 116.448, 154.313 116.597, 154.846 112.899 C 155.036 111.579, 155.405 107.105, 155.665 102.956 C 156.116 95.791, 156.004 95.276, 153.433 92.706 C 150.831 90.104, 145.739 88.995, 144.630 90.789 M 100.663 110.480 C 99.532 111.611, 99.150 114.141, 99.188 120.253 C 99.226 126.417, 98.577 130.660, 96.619 137.052 C 95.179 141.755, 94 146.791, 94 148.243 C 94 149.694, 93.550 151.160, 93 151.500 C 92.450 151.840, 92 153.219, 92 154.564 C 92 155.909, 90.875 159.342, 89.500 162.192 C 88.125 165.042, 87 168.188, 87 169.183 C 87 170.178, 86.059 173.711, 84.909 177.033 C 82.946 182.707, 82.919 183.227, 84.468 185.591 C 86.808 189.163, 88.443 189.472, 91.817 186.977 C 98.741 181.858, 100.890 187.758, 100.920 211.970 C 100.936 224.573, 101.181 226.766, 102.825 228.970 C 106.693 234.156, 110.470 232.490, 111.479 225.152 C 111.838 222.541, 112.488 219.829, 112.923 219.125 C 113.357 218.422, 113.098 216.060, 112.346 213.878 C 111.531 211.512, 111.313 209.220, 111.807 208.204 C 113.073 205.599, 113.266 194.283, 112.057 193.535 C 111.476 193.176, 110.985 191.446, 110.967 189.691 C 110.949 187.936, 110.090 184.025, 109.058 181 C 107.067 175.162, 104.610 173.041, 99.809 173.015 C 96.764 172.998, 95.379 171.501, 96.748 169.706 C 98.364 167.588, 102.144 155.043, 101.487 153.980 C 101.140 153.417, 102.237 150.118, 103.927 146.649 C 105.617 143.180, 107 139.626, 107 138.752 C 107 137.877, 107.713 134.378, 108.585 130.975 C 109.457 127.573, 110.244 122.258, 110.335 119.166 C 110.500 113.548, 110.496 113.540, 106.344 111.248 C 102.619 109.192, 102.031 109.112, 100.663 110.480 M 163.750 124.572 C 162.238 125.393, 161 126.871, 161 127.858 C 161 128.844, 159.875 130.708, 158.500 132 C 155.140 135.156, 155.353 137.389, 159.250 139.878 C 161.037 141.020, 163.287 142.525, 164.250 143.222 C 167.319 145.446, 169.407 143.030, 170.254 136.274 C 170.818 131.776, 170.626 129.348, 169.490 126.631 C 167.788 122.558, 167.592 122.488, 163.750 124.572 M 144.173 146.750 C 143.478 149.363, 142.255 152.774, 141.455 154.331 C 140.655 155.888, 140 158.089, 140 159.221 C 140 161.323, 142.553 163.911, 144.684 163.968 C 145.335 163.986, 148.128 165.405, 150.891 167.123 C 156.085 170.352, 159 170.402, 159 167.264 C 159 166.274, 160.125 163.809, 161.500 161.785 C 162.875 159.762, 164 157.636, 164 157.061 C 164 155.277, 159.729 151, 157.947 151 C 157.016 151, 154.388 148.975, 152.107 146.500 C 149.825 144.025, 147.391 142, 146.698 142 C 146.004 142, 144.868 144.137, 144.173 146.750 M 50.557 178.223 C 49.701 179.445, 49 180.940, 49 181.544 C 49 182.149, 47.663 184.411, 46.028 186.572 C 44.393 188.732, 43.043 191.292, 43.028 192.259 C 43.013 193.227, 41.639 195.442, 39.975 197.183 C 38.312 198.924, 36.703 201.335, 36.400 202.542 C 36.097 203.748, 34.534 205.708, 32.925 206.897 C 29.560 209.385, 29.368 210.225, 31.644 212.501 C 32.692 213.550, 34.140 213.931, 35.643 213.554 C 37.429 213.105, 39.620 214.147, 44.713 217.868 C 48.407 220.565, 51.934 222.579, 52.552 222.342 C 53.323 222.046, 53.666 216.530, 53.647 204.705 C 53.632 195.242, 53.963 184.912, 54.382 181.750 C 55.019 176.944, 54.895 176, 53.629 176 C 52.795 176, 51.413 177, 50.557 178.223" stroke="none" fill="black" fill-rule="evenodd"/>
</svg>