<svg xmlns="http://www.w3.org/2000/svg" width="300" height="300" viewBox="0 0 300 300" version="1.1">
	<path d="M 159.371 17.209 C 158.412 18.760, 158.902 26.949, 160.086 29.161 C 161.627 32.041, 160.223 33.478, 151.506 37.939 C 146.874 40.309, 142.902 42.756, 142.679 43.375 C 141.949 45.406, 144.971 50, 147.037 50 C 148.128 50, 151.069 49.038, 153.572 47.861 C 156.126 46.660, 158.454 46.112, 158.879 46.611 C 159.295 47.100, 159.380 50.648, 159.068 54.495 L 158.500 61.491 153 64.664 C 143.520 70.134, 142.381 71.335, 143.538 74.637 C 144.609 77.695, 148.353 79.047, 150.315 77.085 C 151.788 75.612, 154.955 75.713, 155.532 77.250 C 155.790 77.938, 154.905 81.200, 153.565 84.500 C 151.399 89.837, 150.431 90.942, 144.812 94.500 C 141.337 96.700, 135.662 100.516, 132.200 102.980 C 126.310 107.173, 125.926 107.685, 126.203 110.980 C 126.627 116.005, 130.020 116.314, 134.870 111.771 C 138.843 108.049, 143.600 105.635, 145.116 106.571 C 146.448 107.395, 145.599 109.694, 138.864 123.500 C 129.966 141.738, 128.717 143.750, 121.750 151.064 C 117.617 155.402, 115.090 156.058, 114.290 153 C 113.568 150.239, 110.194 150.480, 108.870 153.387 C 108.046 155.195, 108.119 156.468, 109.170 158.637 C 110.427 161.229, 111.032 161.497, 115.561 161.469 C 119.626 161.444, 121.450 160.801, 125.299 158.037 C 129.834 154.780, 136.141 147.298, 138.817 142 C 140.292 139.079, 141.263 137.491, 146.281 129.798 C 148.326 126.662, 150 123.201, 150 122.107 C 150 121.013, 150.450 119.840, 151 119.500 C 151.550 119.160, 152 118, 152 116.921 C 152 115.843, 153.057 113.282, 154.349 111.230 C 155.641 109.179, 157.310 105.803, 158.058 103.728 C 159.825 98.825, 161.838 97.051, 171.500 91.875 C 175.900 89.519, 180.051 87.052, 180.723 86.393 C 181.396 85.735, 183.534 84.215, 185.473 83.016 C 187.413 81.818, 189 80.214, 189 79.454 C 189 78.693, 189.900 77.589, 191 77 C 192.100 76.411, 193 75.072, 193 74.024 C 193 72.976, 193.450 71.840, 194 71.500 C 195.439 70.611, 195.234 64.250, 193.750 63.722 C 193.063 63.477, 189.006 66.695, 184.736 70.872 C 178.783 76.695, 175.749 78.873, 171.736 80.206 C 168.856 81.162, 165.938 81.956, 165.250 81.972 C 163.843 82.004, 163.528 78.410, 164.865 77.583 C 165.341 77.289, 165.984 75.152, 166.295 72.835 C 166.767 69.320, 167.741 67.845, 172.169 63.941 C 177.148 59.551, 177.415 59.082, 176.471 56.380 C 175.683 54.127, 174.760 53.432, 172.232 53.187 C 169.003 52.874, 169 52.869, 169 47.154 C 169 41.537, 169.098 41.340, 174.500 36.090 C 180.025 30.719, 181.024 28.424, 178.800 26.200 C 177.151 24.551, 174.392 24.697, 171.509 26.586 C 168.500 28.558, 167 27.723, 167 24.076 C 167 19.010, 161.382 13.954, 159.371 17.209 M 73.348 77.536 C 72.994 78.458, 73.243 83.777, 73.902 89.356 C 76.386 110.399, 76.898 107.717, 69.175 114.120 C 65.448 117.211, 58.371 121.873, 53.449 124.480 C 48.527 127.087, 44.050 129.581, 43.500 130.021 C 42.950 130.462, 41.154 130.975, 39.509 131.162 C 37.574 131.380, 36.395 132.145, 36.171 133.324 C 35.699 135.812, 38.790 139, 41.674 139 C 44.739 139, 62.797 129.753, 69.355 124.825 C 73.568 121.660, 76.972 120.070, 77.008 121.250 C 77.012 121.388, 77.462 125.325, 78.009 130 C 78.556 134.675, 79.260 143, 79.575 148.500 C 79.889 154, 80.571 160.150, 81.089 162.167 C 81.951 165.518, 81.670 166.420, 77.814 172.667 C 75.495 176.425, 72.787 180.573, 71.798 181.885 C 70.809 183.197, 70 185.109, 70 186.135 C 70 187.161, 69.421 188, 68.712 188 C 68.004 188, 65.315 190.142, 62.737 192.759 C 58.161 197.405, 54.346 199.910, 48.724 201.958 C 45.134 203.267, 44.303 205.572, 46.534 208.037 C 50.541 212.466, 58.834 209.170, 67.823 199.576 C 69.845 197.417, 72.772 194.392, 74.326 192.853 C 76.174 191.024, 76.953 189.428, 76.577 188.243 C 75.809 185.824, 81.225 182.351, 82.786 184.261 C 83.383 184.991, 83.858 193.615, 83.941 205.250 C 84.060 221.708, 83.847 225, 82.664 225 C 79.842 225, 73.420 221.698, 69.681 218.325 C 66.013 215.017, 64.005 214.484, 63.290 216.631 C 62.566 218.803, 69.247 226.063, 75.977 230.416 C 83.101 235.025, 86.490 235.879, 90.066 233.965 C 91.889 232.989, 92 231.654, 92 210.665 C 92 196.223, 91.625 188.025, 90.933 187.333 C 89.667 186.067, 90.216 167.614, 91.705 161.362 C 92.247 159.086, 94.110 154.917, 95.845 152.097 C 97.580 149.277, 99 146.457, 99 145.829 C 99 145.202, 100.053 143.296, 101.339 141.594 C 103.940 138.153, 105.450 132.396, 103.988 131.493 C 102.787 130.750, 99 132.732, 99 134.102 C 99 134.669, 97.875 136.608, 96.500 138.411 C 95.125 140.214, 94 142.609, 94 143.734 C 94 144.858, 93.129 146.841, 92.065 148.139 C 90.350 150.231, 89.963 150.329, 88.676 149 C 87.572 147.860, 87.108 143.593, 86.742 131.210 L 86.260 114.921 90.880 111.214 C 96.613 106.614, 99.910 103.102, 100.939 100.500 C 101.746 98.457, 100.379 94.087, 98.527 92.790 C 97.969 92.400, 95.010 94.844, 91.951 98.222 C 84.466 106.488, 83.494 105.995, 82.574 93.462 C 82.182 88.120, 81.372 82.794, 80.775 81.625 C 80.178 80.456, 79.376 78.825, 78.992 78 C 77.984 75.830, 74.124 75.512, 73.348 77.536 M 171.500 99.602 C 166.405 101.464, 163.513 104.289, 164.383 106.554 C 164.951 108.036, 165.839 108.169, 170.771 107.509 C 186.056 105.465, 197.519 107.053, 222.204 114.634 C 226.442 115.935, 230.781 117, 231.847 117 C 234.688 117, 235.433 113.989, 233.156 111.711 C 229.890 108.445, 211.656 101.862, 198.201 99.091 C 190.790 97.565, 176.318 97.842, 171.500 99.602 M 159.667 114.667 C 158.351 115.982, 159.043 118.975, 161.500 122.595 C 163.634 125.740, 164 127.412, 164 134.018 L 164 141.757 160.750 143.129 C 158.963 143.883, 154.800 144.500, 151.500 144.500 C 145.190 144.500, 144.891 144.799, 146.772 149.222 C 148.223 152.635, 151.226 153.414, 158.104 152.161 C 165.696 150.777, 166.132 151.359, 165.786 162.402 L 165.500 171.500 158 175.199 C 153.417 177.460, 149.128 180.474, 146.973 182.949 C 145.033 185.177, 142.877 187, 142.183 187 C 140.518 187, 134.230 190.238, 128.832 193.877 C 122.511 198.137, 114.071 201.922, 108.964 202.788 C 105.176 203.430, 104.455 203.928, 104.203 206.075 C 104.016 207.662, 104.691 209.316, 106.016 210.514 C 108.072 212.376, 108.260 212.378, 113.313 210.612 C 116.166 209.615, 121.264 207.494, 124.643 205.900 C 128.022 204.305, 131.016 203, 131.297 203 C 131.578 203, 134.664 201.367, 138.154 199.371 C 141.644 197.375, 146.975 194.401, 150 192.763 C 153.025 191.126, 156.400 188.740, 157.500 187.461 C 158.600 186.183, 160.850 184.994, 162.500 184.819 L 165.500 184.500 166.163 205 C 166.527 216.275, 167.142 242.262, 167.529 262.750 L 168.232 300 171.116 300 C 174.642 300, 174.298 306.675, 174.412 236 C 174.478 195.194, 174.805 180.967, 175.715 179.380 C 176.384 178.215, 178.634 176.455, 180.715 175.470 C 182.797 174.484, 185.625 172.864, 187 171.869 C 188.375 170.874, 191.975 169.416, 195 168.631 C 205.307 165.953, 218.857 160.440, 221.750 157.746 C 224.588 155.104, 224.607 152.644, 221.811 150.039 C 218.815 147.247, 216.287 147.481, 213.149 150.841 C 211.364 152.751, 208.694 154.087, 204.997 154.919 C 198.419 156.400, 184.790 161.531, 180.225 164.246 C 175.209 167.230, 174.517 166.344, 174.184 156.514 C 173.942 149.392, 174.203 147.433, 175.599 145.891 C 176.540 144.851, 177.915 144, 178.654 144 C 180.823 144, 188 136.425, 188 134.136 C 188 130.597, 183.649 130.305, 178.795 133.517 C 173.840 136.796, 171.635 136.032, 171.235 130.899 C 170.778 125.037, 167.896 117.041, 165.681 115.489 C 163.436 113.916, 160.780 113.553, 159.667 114.667" stroke="none" fill="black" fill-rule="evenodd"/>
</svg>