<svg xmlns="http://www.w3.org/2000/svg" width="300" height="300" viewBox="0 0 300 300" version="1.1">
	<path d="M 183.750 21.080 C 182.625 21.735, 182 23.317, 182 25.506 C 182 28.659, 182.507 29.208, 188.838 32.905 C 195.353 36.710, 198.996 40.133, 205.334 48.406 C 208.957 53.133, 211 51.926, 211 45.059 C 211 40.473, 210.793 40.159, 202.249 31.798 C 197.435 27.088, 191.755 22.507, 189.627 21.617 C 187.498 20.728, 185.698 20.014, 185.628 20.030 C 185.558 20.047, 184.713 20.519, 183.750 21.080 M 151.711 27.250 C 150.333 28.281, 149.992 30.694, 149.770 41 L 149.500 53.500 141 59.247 C 136.325 62.407, 129.672 66.891, 126.216 69.210 C 119.698 73.582, 118.630 75.389, 119.176 81.112 C 119.662 86.194, 122.802 86.133, 129.807 80.905 C 136.284 76.071, 141.062 72.178, 145.723 67.934 C 151.381 62.783, 152.541 64.086, 153.350 76.500 C 153.708 82, 154.276 89.875, 154.613 94 L 155.225 101.500 151.363 104.290 C 149.238 105.824, 144.350 109.132, 140.500 111.641 C 132.820 116.646, 130.679 118.820, 128.487 123.838 C 126.569 128.228, 124.645 127.423, 123.906 121.920 C 122.957 114.855, 121.494 112.267, 118.019 111.504 C 113.637 110.542, 111.683 112.419, 112.357 116.944 C 113.444 124.239, 114.312 127.554, 115.637 129.473 C 116.387 130.557, 117.003 133.257, 117.006 135.473 C 117.009 137.688, 117.458 142.200, 118.003 145.500 C 118.549 148.800, 119.051 166.570, 119.120 184.988 C 119.189 203.407, 119.463 219.044, 119.730 219.738 C 120.449 221.612, 124.790 221.266, 125.851 219.250 C 126.358 218.287, 127.098 212.428, 127.497 206.229 C 128.132 196.354, 128.483 194.775, 130.333 193.479 C 131.495 192.666, 133.357 191.996, 134.473 191.991 C 137.125 191.978, 145.841 186.922, 148.924 183.606 C 150.258 182.173, 152.196 181, 153.231 181 C 155.041 181, 155.093 182.087, 154.604 209.750 C 154.324 225.563, 153.809 241.571, 153.459 245.323 C 152.929 251.004, 153.115 252.469, 154.566 254.073 C 158.772 258.721, 161.596 255.477, 162.830 244.582 C 163.198 241.327, 163.975 238.506, 164.556 238.313 C 165.137 238.120, 167.831 239.999, 170.543 242.489 C 176.238 247.717, 177.916 248.426, 182.545 247.558 C 187.602 246.609, 191.600 241.204, 192.453 234.164 C 194.435 217.797, 195.057 209.480, 195.882 188.332 C 196.971 160.388, 197.619 153.634, 199.673 148.817 C 201.152 145.349, 201.120 144.880, 199.141 140.791 C 197.499 137.399, 196.925 133.840, 196.519 124.524 C 196.233 117.965, 195.549 112.149, 194.999 111.599 C 194.450 111.050, 194 108.692, 194 106.359 C 194 104.026, 193.550 101.840, 193 101.500 C 192.450 101.160, 192 99.955, 192 98.823 C 192 96.245, 186.515 91.353, 182.790 90.608 C 181.048 90.260, 177.310 91.013, 172.913 92.600 C 169.021 94.003, 165.268 94.933, 164.571 94.666 C 163.627 94.303, 163.252 89.718, 163.099 76.643 L 162.894 59.106 165.697 57.694 C 167.239 56.916, 169.753 55.980, 171.284 55.613 C 172.849 55.237, 174.555 53.875, 175.181 52.502 C 176.946 48.629, 174.843 47, 168.078 47 C 164.955 47, 161.860 46.460, 161.200 45.800 C 160.475 45.075, 160 41.559, 160 36.915 C 160 29.850, 159.801 29.100, 157.535 27.615 C 154.570 25.672, 153.879 25.629, 151.711 27.250 M 64.476 65.250 C 64.222 65.938, 63.899 74.821, 63.757 84.990 L 63.500 103.481 55 108.663 C 50.325 111.513, 45.825 113.895, 45 113.956 C 41.505 114.214, 38.657 117.995, 38.464 122.635 C 38.236 128.113, 39.952 129.235, 43.828 126.141 C 45.298 124.968, 48.291 123.045, 50.480 121.867 C 52.669 120.689, 56.164 118.355, 58.248 116.681 C 60.516 114.858, 62.379 114.010, 62.890 114.568 C 63.360 115.081, 64.021 124.612, 64.359 135.748 L 64.973 155.996 50.286 170.560 C 42.209 178.570, 34.345 185.864, 32.812 186.770 C 30.403 188.193, 26 195.332, 26 197.815 C 26 199.573, 30.865 203.202, 32.176 202.422 C 35.760 200.291, 51.458 186.307, 56.749 180.533 C 60.041 176.940, 63.186 174, 63.738 174 C 64.944 174, 64.790 211.913, 63.576 213.878 C 62.972 214.854, 62.001 214.444, 59.637 212.217 C 54.498 207.374, 47.333 203.700, 44.441 204.425 C 40.150 205.502, 40.360 207.765, 45.125 211.783 C 54.535 219.717, 64 229.746, 64 231.784 C 64 235.316, 67.610 235.544, 70.933 232.221 L 73.852 229.302 73.959 196.439 L 74.066 163.577 76.533 159.162 C 77.890 156.735, 79.010 154.017, 79.022 153.124 C 79.034 152.231, 79.924 150.375, 81 149 C 84.271 144.818, 83.644 143.676, 78.500 144.448 L 74 145.123 74 125.682 L 74 106.241 78.750 102.458 C 87.313 95.638, 93 89.646, 93 87.443 C 93 84.523, 89.651 81.659, 87.161 82.449 C 86.071 82.795, 84.522 84.073, 83.718 85.289 C 80.660 89.919, 75.066 95.239, 73.776 94.744 C 72.760 94.354, 72.364 90.854, 72.153 80.391 C 71.995 72.552, 71.415 66, 70.815 65.276 C 69.454 63.637, 65.078 63.619, 64.476 65.250 M 171.630 103.409 C 166.088 105.126, 164.890 107.287, 164.928 115.500 C 164.946 119.350, 164.701 124.862, 164.384 127.750 C 163.887 132.272, 164.045 133, 165.527 133 C 167.369 133, 177.345 126.882, 182.835 122.386 C 185.922 119.858, 186.133 119.314, 185.680 115.077 C 185.043 109.111, 183.973 104.806, 182.743 103.250 C 181.540 101.728, 176.839 101.795, 171.630 103.409 M 143.376 122.918 C 138.908 126.723, 134.216 131.336, 132.949 133.168 C 131.682 135.001, 129.825 137.305, 128.822 138.289 C 127.432 139.654, 127 141.609, 127 146.539 C 127 154.170, 127.535 154.402, 135 150 C 137.798 148.350, 140.327 147, 140.620 147 C 140.912 147, 144.267 145.180, 148.076 142.956 L 155 138.912 155 127.456 C 155 113.333, 154.748 113.235, 143.376 122.918 M 182.376 134.209 C 180.794 135.469, 176.947 137.816, 173.826 139.424 C 167.173 142.852, 166.037 144.611, 165.729 151.964 C 165.554 156.145, 165.852 157.500, 167.001 157.739 C 168.295 158.008, 179.791 151.471, 186.750 146.511 C 189.083 144.848, 189.615 140.414, 188.123 135.074 C 187.191 131.739, 185.748 131.522, 182.376 134.209 M 148.500 155.483 C 146.300 156.830, 143.375 158.497, 142 159.187 C 136.809 161.792, 129.474 167.247, 128.819 168.991 C 128.444 169.987, 128.461 172.984, 128.856 175.651 C 129.508 180.048, 129.811 180.485, 132.110 180.336 C 133.504 180.246, 136.702 178.783, 139.217 177.086 C 141.732 175.389, 144.061 174, 144.393 174 C 144.724 174, 147.246 172.383, 149.998 170.406 L 155 166.812 155 159.906 C 155 152.046, 154.579 151.760, 148.500 155.483 M 180.404 160.317 C 178.152 162.068, 173.800 165.400, 170.734 167.722 L 165.160 171.945 164.605 179.722 C 164.299 184, 163.765 196.169, 163.418 206.765 L 162.787 226.030 165.894 227.113 C 167.602 227.708, 169.007 228.489, 169.016 228.848 C 169.024 229.207, 170.748 231.460, 172.847 233.856 C 177.245 238.876, 179.717 239.047, 181.944 234.488 C 184.190 229.892, 184.978 222.513, 185.952 197 C 186.445 184.075, 187.175 169.787, 187.573 165.250 C 188.248 157.547, 188.171 157.004, 186.398 157.067 C 185.354 157.104, 182.657 158.566, 180.404 160.317" stroke="none" fill="black" fill-rule="evenodd"/>
</svg>