<svg xmlns="http://www.w3.org/2000/svg" width="300" height="300" viewBox="0 0 300 300" version="1.1">
	<path d="M 117.280 12.074 C 114.556 13.104, 114.144 14.830, 113.600 27.500 C 113.363 33, 112.699 40.425, 112.123 44 C 110.191 56.004, 109.649 65.665, 110.867 66.418 C 111.490 66.803, 112 67.965, 112 69 C 112 72.444, 114.222 72.402, 117.124 68.903 C 118.890 66.774, 119.956 64.309, 119.973 62.318 C 120.002 58.931, 121.432 57.565, 129.760 52.971 C 135.111 50.019, 136.735 51.136, 134.230 56.046 C 133.260 57.946, 131.687 60.613, 130.734 61.973 C 129.719 63.419, 129 66.290, 129 68.894 C 129 71.593, 128.362 74.047, 127.379 75.134 C 125.501 77.208, 126.188 80, 128.575 80 C 131.021 80, 138 74.100, 138 72.031 C 138 71.040, 139.125 69.493, 140.500 68.592 C 141.875 67.691, 143 66.470, 143 65.878 C 143 65.286, 143.617 63.384, 144.370 61.651 C 146.795 56.077, 148.287 50.191, 147.679 48.605 C 147.353 47.756, 147.739 45.810, 148.537 44.281 C 150.714 40.108, 150.416 39.404, 145.250 36.512 C 140.862 34.055, 140.207 33.949, 136.646 35.121 C 134.526 35.818, 132.099 37.445, 131.254 38.735 C 129.278 41.751, 126.415 43.266, 124.088 42.528 C 122.548 42.039, 122.332 41.184, 122.748 37.223 C 123.021 34.625, 123.639 32.072, 124.122 31.550 C 124.605 31.027, 125 27.160, 125 22.955 C 125 16.913, 124.633 14.995, 123.250 13.807 C 120.473 11.423, 119.642 11.181, 117.280 12.074 M 52.910 55.608 C 51.337 57.504, 51.378 70.563, 52.973 75.993 C 53.538 77.915, 54 81.152, 54 83.187 C 54 86.318, 53.368 87.395, 49.887 90.194 C 47.625 92.012, 44.103 94.944, 42.062 96.708 C 37.947 100.265, 34.128 102, 30.415 102 C 27.234 102, 20 106.569, 20 108.578 C 20 111.991, 21.986 113.771, 26.561 114.457 C 30.004 114.973, 31.600 114.770, 32.839 113.659 C 33.752 112.840, 36.194 111.855, 38.264 111.471 C 40.334 111.086, 42.359 110.261, 42.764 109.636 C 43.832 107.987, 51.717 102, 52.820 102 C 55.011 102, 55.984 108.650, 56.451 126.812 C 56.945 146.057, 56.938 146.138, 54.461 150.062 C 53.094 152.228, 51.585 154, 51.109 154 C 50.632 154, 49.696 155.319, 49.028 156.932 C 46.796 162.321, 36.047 175.124, 23.750 187.041 C 19.800 190.869, 17 194.421, 17 195.604 C 17 196.716, 18.320 198.891, 19.934 200.437 L 22.869 203.248 25.519 201.164 C 30.128 197.538, 41.974 183.699, 44.918 178.500 C 46.476 175.750, 48.878 172.375, 50.256 171 C 51.635 169.625, 52.935 167.600, 53.145 166.500 C 53.355 165.400, 54.196 164.500, 55.014 164.500 C 56.283 164.500, 56.448 166.904, 56.146 180.959 C 55.951 190.011, 55.428 198.373, 54.984 199.542 C 54.540 200.711, 54.580 202.304, 55.073 203.083 C 56.611 205.514, 56.212 214, 54.559 214 C 52.785 214, 51.868 212.591, 51.054 208.609 C 50.561 206.197, 49.689 205.326, 46.963 204.522 C 45.059 203.960, 42.260 202.659, 40.745 201.632 C 38.514 200.119, 37.706 199.999, 36.495 201.004 C 34.304 202.823, 34.665 205.337, 37.500 208 C 38.875 209.292, 40 210.930, 40 211.640 C 40 212.350, 43.413 216.845, 47.584 221.629 C 51.756 226.414, 55.858 231.379, 56.699 232.664 C 58.639 235.624, 61.696 235.586, 65.404 232.553 L 68.308 230.179 67.108 221.339 C 65.699 210.959, 65.478 193.747, 66.564 179 C 66.990 173.225, 67.418 164.450, 67.517 159.500 C 67.720 149.280, 68.596 144.580, 70.609 142.910 C 71.374 142.275, 72 140.065, 72 138 C 72 135.882, 72.654 133.702, 73.500 133 C 75.391 131.431, 75.445 128.385, 73.594 127.674 C 72.821 127.378, 71.401 128.005, 70.439 129.067 C 67.411 132.414, 66.822 131.305, 67.350 123.250 C 67.976 113.712, 67.996 115.768, 67.138 101.500 C 66.384 88.987, 67.071 84.843, 70.345 82.128 C 71.407 81.247, 72 79.242, 72 76.533 C 72 71.991, 70.457 69.885, 65.847 68.132 C 63.740 67.331, 63.054 66.240, 62.502 62.812 C 62.120 60.440, 61.166 57.487, 60.381 56.250 C 58.708 53.612, 54.843 53.280, 52.910 55.608 M 151.500 80.215 C 149.300 80.744, 146.150 81.797, 144.500 82.554 C 142.850 83.312, 139.508 84.509, 137.074 85.216 C 130.546 87.110, 116.205 101.844, 110.759 112.250 C 106.500 120.389, 103.766 122.189, 102.617 117.610 C 102.287 116.296, 99.313 112.237, 96.009 108.590 C 92.704 104.944, 90 101.519, 90 100.980 C 90 99.584, 83.637 99.763, 82.200 101.200 C 81.540 101.860, 81 103.852, 81 105.627 C 81 108.069, 81.822 109.541, 84.378 111.677 C 88.651 115.249, 100 132.052, 100 134.808 C 100 135.949, 100.450 137.160, 101 137.500 C 101.550 137.840, 102 139.582, 102 141.372 C 102 143.664, 102.865 145.455, 104.929 147.432 L 107.857 150.238 110.929 148.051 C 114.412 145.570, 114.664 144.184, 112.419 139.843 C 111.476 138.020, 111.092 135.771, 111.467 134.275 C 111.893 132.576, 111.520 131.127, 110.312 129.792 C 108.594 127.894, 108.602 127.768, 110.513 126.452 C 113.723 124.243, 117.920 119.808, 121.116 115.250 C 122.755 112.912, 124.586 111, 125.184 111 C 126.479 111, 125.686 118.159, 123.903 122.570 C 122.455 126.149, 122.729 131.968, 124.441 134 C 125.135 134.825, 126.187 139.100, 126.778 143.500 C 127.862 151.577, 127.325 157.687, 125.181 161.672 C 123.633 164.551, 119.166 168, 116.988 168 C 116.029 168, 114.701 168.655, 114.037 169.456 C 111.947 171.973, 96.144 180.002, 90.891 181.215 C 85.331 182.498, 80.677 186.836, 81.199 190.249 C 81.364 191.334, 83.149 193.175, 85.164 194.339 L 88.828 196.457 99.664 191.048 C 105.624 188.073, 111.711 184.537, 113.190 183.190 C 116.017 180.616, 119 180.769, 119 183.488 C 119 184.342, 117.875 186.822, 116.500 189 C 115.125 191.178, 114 193.875, 114 194.994 C 114 197.041, 112.551 200.171, 110.264 203.063 C 109.584 203.923, 107.185 208.347, 104.932 212.895 C 102.680 217.442, 100.014 221.986, 99.008 222.992 C 98.002 223.998, 96.460 226.324, 95.581 228.161 C 94.546 230.326, 92.668 232.054, 90.242 233.075 C 88.184 233.941, 85.884 235.811, 85.132 237.230 C 83.878 239.595, 83.998 240.104, 86.573 243.332 C 89.242 246.676, 89.517 246.784, 92.043 245.478 C 93.506 244.721, 95.422 243.005, 96.300 241.664 C 97.179 240.323, 99.496 238.239, 101.449 237.032 C 103.402 235.824, 105 234.277, 105 233.593 C 105 232.908, 106.125 231.292, 107.500 230 C 108.875 228.708, 110 226.798, 110 225.756 C 110 224.713, 111.324 221.936, 112.942 219.584 C 114.561 217.232, 116.207 214.024, 116.600 212.456 C 116.994 210.888, 118.595 208.529, 120.158 207.214 C 122.068 205.607, 123 203.879, 123 201.946 C 123 200.115, 123.711 198.690, 124.957 198.023 C 126.132 197.394, 127.155 195.482, 127.518 193.238 C 127.850 191.182, 129.069 187.250, 130.228 184.500 C 136.081 170.605, 137.873 167.452, 140.929 165.674 C 142.655 164.669, 146.524 161.448, 149.528 158.515 C 152.532 155.583, 157.129 152.175, 159.745 150.942 C 162.360 149.709, 165.887 147.678, 167.583 146.427 C 169.278 145.177, 172.298 143.847, 174.293 143.473 C 181.421 142.136, 186.104 131.371, 180.641 128.882 C 178.652 127.976, 176.996 128.449, 170.077 131.902 C 161.118 136.372, 157.575 138.780, 148.500 146.567 C 145.200 149.399, 141.443 152.049, 140.151 152.457 C 138.016 153.130, 137.879 152.984, 138.646 150.849 C 140.076 146.870, 139.115 137.923, 136.869 134.287 C 135.504 132.080, 135.010 130.096, 135.418 128.469 C 136.246 125.171, 137.082 125.344, 140.969 129.615 C 144.038 132.988, 144.566 133.196, 148.840 132.715 C 151.705 132.392, 154.013 131.467, 155.002 130.246 C 155.871 129.172, 157.584 127.758, 158.807 127.103 C 160.030 126.449, 162.014 123.795, 163.216 121.207 C 164.418 118.618, 167.436 113.182, 169.923 109.126 C 173.990 102.491, 174.472 101.050, 174.732 94.761 C 175.128 85.177, 172.973 81.589, 165.916 80.075 C 160.145 78.838, 157.103 78.867, 151.500 80.215 M 153.458 90.685 C 150.451 91.091, 150.416 91.165, 150.458 97.017 C 150.493 102.009, 150.929 103.427, 153.237 106.057 C 156.030 109.240, 157.802 109.508, 159.067 106.940 C 164.487 95.944, 165.290 93.683, 164.324 92.139 C 163.280 90.473, 159.142 89.919, 153.458 90.685 M 142.949 116.561 C 142.197 117.467, 140.551 118.600, 139.291 119.079 C 137.795 119.648, 137 120.771, 137 122.314 C 137 124.363, 137.457 124.662, 140.428 124.559 C 144.820 124.406, 148.192 121.433, 147.797 118.061 C 147.444 115.042, 144.871 114.246, 142.949 116.561 M 145.445 183.061 C 143.603 185.097, 143.644 185.182, 148.868 190.061 C 151.777 192.777, 154.594 195, 155.128 195 C 156.688 195, 174.952 209.132, 181.500 215.405 C 184.800 218.567, 188.663 221.682, 190.085 222.327 C 194.527 224.343, 199.958 229.060, 213.448 242.619 C 220.627 249.834, 227.850 256.436, 229.500 257.289 C 233.463 259.339, 244.508 270.201, 246.182 273.694 C 249.134 279.854, 258 278.516, 258 271.911 C 258 268.243, 256.414 265, 254.620 265 C 253.899 265, 252.453 264.034, 251.405 262.854 C 250.357 261.673, 247.860 259.507, 245.856 258.039 C 240.818 254.351, 229.066 243.957, 219.806 235 C 215.541 230.875, 208.415 224.575, 203.969 221 C 199.524 217.425, 194.480 213.248, 192.760 211.717 C 191.041 210.186, 188.330 207.936, 186.737 206.717 C 185.143 205.498, 181.467 202.588, 178.568 200.250 C 175.669 197.912, 172.944 196, 172.512 196 C 171.018 196, 158.490 187.213, 155.563 184.112 C 152.103 180.446, 148.180 180.038, 145.445 183.061" stroke="none" fill="black" fill-rule="evenodd"/>
</svg>