<svg xmlns="http://www.w3.org/2000/svg" width="300" height="300" viewBox="0 0 300 300" version="1.1">
	<path d="M 104.073 35.635 C 101.782 38.547, 101.761 38.698, 101.932 51.500 C 102.006 57.018, 101.447 62.628, 100.486 66 C 99.624 69.025, 98.039 74.875, 96.963 79 C 95.887 83.125, 94.593 87.400, 94.088 88.500 C 93.171 90.498, 91.267 96.513, 88.865 105 C 88.164 107.475, 86.524 111.448, 85.219 113.829 C 82.538 118.723, 82.864 121, 86.246 121 C 89.520 121, 92.205 118.803, 94.376 114.349 C 95.408 112.232, 97.183 108.707, 98.321 106.516 C 99.460 104.325, 100.652 100.950, 100.970 99.016 C 101.525 95.649, 101.719 95.506, 105.525 95.645 C 112.236 95.890, 118.059 97.639, 119.630 99.882 C 121.815 103.001, 125 101.066, 125 96.620 C 125 93.601, 122.595 90, 120.579 90 C 120.159 90, 118.700 89.123, 117.337 88.051 C 115.974 86.979, 112.824 85.796, 110.337 85.423 C 106.084 84.785, 105.851 84.590, 106.415 82.123 C 106.744 80.680, 107.259 77.925, 107.559 76 C 108.291 71.298, 109.977 65.159, 111.542 61.500 C 113.211 57.597, 113.494 36.300, 111.902 34.382 C 110.064 32.168, 106.330 32.765, 104.073 35.635 M 147.576 37.195 C 146.534 38.682, 146.228 40.573, 146.625 43.059 C 147.612 49.229, 142.430 78.553, 139.788 81.750 C 137.728 84.242, 136.254 82.996, 135.647 78.250 C 135.312 75.638, 134.564 70.800, 133.984 67.500 C 133.403 64.200, 132.748 59.976, 132.527 58.112 C 131.980 53.502, 130.677 52.370, 127.555 53.793 C 123.492 55.644, 123.133 61.083, 125.860 79.500 C 128.392 96.596, 129.002 104.575, 129.001 120.537 L 129 137.574 122.544 141.287 C 118.994 143.329, 115.856 145, 115.571 145 C 115.286 145, 111.817 146.575, 107.861 148.500 C 103.906 150.425, 99.224 152, 97.457 152 C 92.790 152, 91.543 153.971, 93.399 158.413 C 94.650 161.407, 95.398 162, 97.919 162 C 99.581 162, 103.317 160.928, 106.220 159.617 C 109.124 158.307, 112.625 156.907, 114 156.506 C 115.375 156.105, 118.644 154.477, 121.265 152.888 C 127.174 149.307, 129.500 149.103, 128.565 152.250 C 127.612 155.454, 127.213 159.112, 125.479 180.500 C 123.947 199.387, 122.726 206.153, 120.514 207.988 C 119.878 208.516, 115.790 209.405, 111.429 209.964 C 107.068 210.523, 101.362 211.435, 98.750 211.990 C 96.138 212.546, 91.862 213.457, 89.250 214.016 C 86.638 214.575, 82.475 215.307, 80 215.643 C 77.525 215.979, 74.701 216.952, 73.726 217.804 C 72.046 219.271, 72.127 219.536, 75.226 222.739 C 78.117 225.727, 78.910 226.044, 82 225.451 C 83.925 225.082, 88.425 224.343, 92 223.810 C 102.136 222.298, 107.924 221.248, 115.500 219.547 C 129.206 216.468, 132.580 215.875, 138.995 215.420 C 142.567 215.166, 147.067 214.496, 148.995 213.931 C 150.923 213.366, 168.250 212.493, 187.500 211.991 L 222.500 211.078 225.250 207.827 C 226.762 206.039, 228 204.200, 228 203.740 C 228 203.280, 226.769 201.764, 225.265 200.370 C 223.204 198.459, 221.789 197.956, 219.515 198.323 C 203.805 200.859, 194.329 202.058, 192.913 201.687 C 189.509 200.797, 148.435 203.036, 141.361 204.497 C 137.359 205.324, 133.615 206, 133.042 206 C 131.697 206, 131.693 197.522, 133.036 192.993 C 133.606 191.072, 134.263 185.225, 134.497 180 C 134.730 174.775, 135.389 168.928, 135.961 167.007 C 136.532 165.085, 137 160.499, 137 156.816 C 137 153.132, 137.450 149.840, 138 149.500 C 138.550 149.160, 139 147.583, 139 145.996 C 139 143.584, 140.647 141.684, 149.031 134.424 C 166.546 119.257, 168.346 116.905, 167.311 110.529 C 166.637 106.374, 163.723 104.155, 161.436 106.053 C 160.646 106.709, 160 107.659, 160 108.164 C 160 109.809, 153.655 117.352, 146.735 123.935 C 141.738 128.690, 139.678 130.078, 138.850 129.250 C 138.074 128.474, 137.875 123.288, 138.205 112.448 L 138.682 96.767 142.217 93.634 C 144.162 91.910, 146.754 89.017, 147.977 87.205 C 150.136 84.006, 150.379 83.918, 156.350 84.205 C 161.603 84.457, 162.643 84.826, 163.479 86.731 C 165.271 90.814, 168.917 90.673, 170.843 86.445 C 171.456 85.100, 172.417 84, 172.979 84 C 174.670 84, 174.127 79.417, 172.250 77.843 C 168.370 74.589, 162.430 72.813, 157.769 73.512 C 155.201 73.897, 152.983 73.782, 152.653 73.247 C 152.331 72.727, 152.894 69.197, 153.902 65.401 C 156.039 57.358, 158 45.448, 158 40.517 C 158 38.133, 157.404 36.751, 156.066 36.035 C 152.881 34.331, 149.233 34.829, 147.576 37.195 M 47.396 55.750 C 47.098 56.712, 46.437 58.281, 45.927 59.236 C 44.687 61.560, 44.746 69.658, 46.021 72.040 C 46.583 73.089, 47.219 77.741, 47.435 82.376 L 47.827 90.804 43.901 93.959 C 38.654 98.176, 28.767 103, 25.371 103 C 23.863 103, 21.655 102.085, 20.465 100.967 C 18.479 99.102, 18.188 99.068, 16.947 100.564 C 15.579 102.212, 15.241 111.963, 16.482 113.970 C 17.242 115.200, 29.655 115.367, 30.403 114.157 C 31.243 112.798, 46.818 104, 48.384 104 C 49.473 104, 49.970 106.204, 50.472 113.250 C 51.998 134.662, 51.901 137.196, 49.410 141.142 C 47.178 144.678, 34.844 155.858, 19.074 168.639 C 7.072 178.366, 6 179.539, 6 182.936 C 6 185.975, 6.043 186, 11.386 186 C 16.288 186, 17.097 185.666, 20.386 182.279 C 22.374 180.233, 24 178.036, 24 177.398 C 24 176.760, 25.540 175.062, 27.423 173.626 C 29.306 172.190, 35.043 166.968, 40.173 162.021 C 45.303 157.074, 50.089 153.020, 50.809 153.013 C 51.838 153.003, 52.025 155.509, 51.682 164.750 C 50.975 183.812, 48.955 207.426, 47.943 208.448 C 47.353 209.043, 45.776 208.206, 43.704 206.198 C 41.890 204.439, 39.933 203, 39.357 203 C 38.781 203, 37.519 202.126, 36.551 201.057 C 33.971 198.205, 29.165 197.397, 27.139 199.473 C 25.614 201.037, 25.814 201.424, 30 205.016 C 34.641 208.998, 34.950 209.301, 40.583 215.383 C 42.426 217.373, 44.286 219, 44.717 219 C 45.147 219, 46.928 220.687, 48.673 222.750 L 51.846 226.500 55.463 222.581 L 59.079 218.663 59.422 198.081 C 60.031 161.558, 60.979 145.875, 62.823 141.761 C 63.746 139.705, 64.838 138.018, 65.250 138.011 C 65.662 138.005, 66 136.959, 66 135.687 C 66 134.415, 67.350 132.081, 69 130.500 C 71.151 128.439, 72 126.689, 72 124.313 C 72 120.092, 70.924 120.142, 66.496 124.571 C 64.532 126.535, 62.379 127.961, 61.713 127.739 C 60.280 127.264, 59.509 108.063, 60.526 98.173 C 61.199 91.616, 61.634 90.872, 69.810 82.288 C 73.910 77.984, 75.226 74.724, 74.079 71.709 C 72.024 66.304, 67.743 65.700, 66.674 70.664 C 65.834 74.561, 59.487 81.823, 58.101 80.473 C 57.521 79.908, 56.766 75.408, 56.423 70.473 C 56.080 65.538, 55.378 59.813, 54.861 57.750 C 54.038 54.461, 53.555 54, 50.930 54 C 48.953 54, 47.753 54.594, 47.396 55.750" stroke="none" fill="black" fill-rule="evenodd"/>
</svg>