<svg xmlns="http://www.w3.org/2000/svg" width="300" height="300" viewBox="0 0 300 300" version="1.1">
	<path d="M 133.325 31.541 C 130.176 34.862, 127.306 37, 125.995 37 C 124.088 37, 123.921 37.372, 124.541 40.250 C 124.926 42.038, 125.912 44.813, 126.733 46.419 C 127.722 48.352, 128.030 50.767, 127.645 53.573 C 127.225 56.635, 127.471 58.146, 128.532 59.027 C 131.953 61.866, 128.936 67.597, 121.750 71.912 C 118.865 73.644, 118 74.800, 118 76.927 C 118 82.335, 123.584 84.629, 128.656 81.306 C 131.111 79.697, 131.313 79.707, 132.621 81.497 C 134.277 83.761, 134.388 85.642, 132.919 86.550 C 132.324 86.918, 132.112 88.311, 132.448 89.648 C 133.236 92.787, 130.341 98.920, 127.575 99.972 C 126.409 100.415, 123.480 102.428, 121.064 104.446 C 118.649 106.464, 115.419 108.366, 113.887 108.673 C 107.586 109.933, 106.541 115.031, 111.422 120.703 L 113.829 123.500 116.874 121.250 C 118.549 120.012, 120.274 119, 120.707 119 C 121.140 119, 123.563 116.750, 126.091 114 C 132.852 106.647, 133.418 106.937, 134.516 118.315 C 135 123.335, 135.611 125.296, 136.837 125.764 C 137.751 126.113, 139.400 127.255, 140.500 128.301 C 142.319 130.031, 143.406 130.132, 152.500 129.409 C 158 128.973, 165.425 128.563, 169 128.499 C 172.575 128.435, 176.483 127.846, 177.684 127.191 C 178.886 126.536, 180.597 126, 181.487 126 C 182.378 126, 186.401 123.564, 190.427 120.586 C 196.446 116.135, 197.839 114.579, 198.264 111.836 C 198.975 107.237, 197.111 98.378, 194.324 93.101 C 193.046 90.682, 192 87.723, 192 86.525 C 192 85.328, 190.875 83.292, 189.500 82 C 188.125 80.708, 187 79.125, 187 78.481 C 187 76.661, 183.573 74, 181.230 74 C 178.377 74, 177.480 75.757, 179.284 77.813 C 180.098 78.741, 181.059 80.472, 181.420 81.660 C 181.782 82.848, 182.735 84.365, 183.539 85.032 C 184.342 85.699, 185 87.738, 185 89.563 C 185 91.389, 185.450 93.160, 186 93.500 C 186.550 93.840, 187 97.181, 187 100.924 C 187 109.060, 184.712 113, 179.986 113 C 178.409 113, 176.877 113.391, 176.581 113.868 C 176.286 114.346, 173.803 115.034, 171.064 115.397 C 168.324 115.761, 165.816 116.488, 165.491 117.015 C 164.691 118.310, 146.815 117.075, 145.396 115.627 C 144.656 114.872, 144.491 111.327, 144.896 104.883 C 145.463 95.851, 145.684 95.090, 148.516 92.383 C 150.175 90.797, 152.078 88.263, 152.745 86.750 C 153.412 85.237, 154.417 84, 154.979 84 C 156.716 84, 156.233 74.027, 154.463 73.347 C 152.636 72.646, 149.128 75.564, 147.884 78.819 C 147.253 80.468, 146.346 81.046, 144.748 80.819 C 142.782 80.540, 142.462 79.826, 142.193 75.125 C 141.953 70.902, 142.305 69.294, 143.835 67.625 C 144.907 66.456, 146.102 63.925, 146.490 62 C 146.879 60.075, 147.830 57.498, 148.605 56.274 C 149.889 54.246, 149.769 53.784, 147.257 51.093 C 144.959 48.630, 144.110 48.294, 142.156 49.072 C 140.866 49.585, 139.576 50.904, 139.289 52.003 C 138.629 54.528, 137.366 54.553, 136.035 52.066 C 134.356 48.928, 134.831 46.505, 137.629 43.924 C 139.075 42.591, 140.881 40.038, 141.642 38.250 C 142.404 36.462, 143.440 35, 143.946 35 C 144.452 35, 145.163 34.062, 145.527 32.915 C 146.285 30.525, 142.676 25.973, 140.076 26.041 C 139.209 26.063, 136.171 28.538, 133.325 31.541 M 53.241 67.750 C 51.266 70.617, 51.180 73.536, 52.571 90.532 L 53.147 97.565 46.824 102.532 C 43.346 105.265, 39.375 108.001, 38 108.613 C 36.625 109.226, 34.643 110.688, 33.595 111.863 C 32.547 113.039, 30.915 114, 29.967 114 C 27.852 114, 26.800 115.374, 25.108 120.349 C 23.478 125.141, 24.530 126.455, 29.995 126.455 C 33.081 126.455, 34.658 125.754, 37.266 123.227 C 39.097 121.452, 41.371 120, 42.320 120 C 43.269 120, 46.040 118.161, 48.478 115.914 C 50.916 113.666, 53.340 112.092, 53.864 112.416 C 54.388 112.740, 54.855 118.741, 54.901 125.752 C 54.948 132.764, 55.235 142.550, 55.538 147.500 L 56.090 156.500 52.093 162 C 49.894 165.025, 46.761 169.750, 45.131 172.500 C 43.500 175.250, 40.779 178.776, 39.083 180.335 C 37.387 181.894, 36 183.755, 36 184.470 C 36 185.185, 34.881 186.503, 33.513 187.400 C 32.145 188.296, 30.168 190.710, 29.119 192.765 C 28.071 194.819, 26.265 197.357, 25.106 198.405 C 22.436 200.820, 22.413 204.159, 25.051 206.546 C 26.940 208.256, 27.430 208.288, 31.232 206.951 C 35.266 205.533, 36.611 203.998, 40.526 196.341 C 41.415 194.603, 43.010 192.396, 44.071 191.436 C 45.132 190.476, 46 189.280, 46 188.778 C 46 188.277, 47.125 186.392, 48.500 184.589 C 49.875 182.786, 51 180.523, 51 179.560 C 51 176.779, 54.316 171.913, 55.982 172.249 C 57.011 172.456, 57.410 173.512, 57.222 175.527 C 57.069 177.162, 56.326 188.975, 55.571 201.778 C 53.909 229.955, 53.351 231.260, 45.868 224.500 C 41.519 220.571, 40.778 220.357, 38.984 222.519 C 37.952 223.763, 38.054 224.403, 39.548 226.054 C 40.552 227.162, 42.527 228.616, 43.937 229.285 C 45.346 229.953, 47.424 232.424, 48.553 234.776 C 49.683 237.127, 51.572 240.017, 52.753 241.197 L 54.898 243.343 58.993 240.505 C 61.245 238.944, 63.300 237.324, 63.559 236.905 C 64.743 234.989, 65.689 214.661, 65.882 187 C 65.960 175.725, 66.416 164.047, 66.895 161.048 C 67.492 157.310, 67.409 155.022, 66.633 153.766 C 65.671 152.212, 66.086 151.442, 69.389 148.662 C 72.814 145.780, 73.143 145.135, 72.140 143.261 C 71.513 142.091, 69.810 140.991, 68.354 140.816 C 65.828 140.515, 65.694 140.201, 65.430 134 C 65.278 130.425, 65.093 121.324, 65.019 113.775 L 64.884 100.049 68.442 96.491 C 70.399 94.534, 72 92.273, 72 91.467 C 72 90.660, 72.441 90, 72.981 90 C 73.520 90, 74.258 88.763, 74.619 87.250 C 74.980 85.737, 75.701 83.959, 76.221 83.298 C 77.425 81.765, 76.369 78.355, 74.462 77.624 C 72.043 76.695, 70.600 77.805, 68.102 82.515 C 66.793 84.982, 65.181 87, 64.519 87 C 62.763 87, 60.960 80.023, 61.637 75.850 C 61.989 73.680, 61.780 71.982, 61.110 71.568 C 60.500 71.191, 60 69.832, 60 68.548 C 60 66.457, 58.352 65, 55.986 65 C 55.519 65, 54.283 66.237, 53.241 67.750 M 197 132.568 C 195.075 133.887, 192.956 135.423, 192.292 135.983 C 191.628 136.542, 190.245 137, 189.219 137 C 188.193 137, 184.078 139.096, 180.074 141.657 L 172.795 146.315 173.431 150.407 C 174.086 154.623, 176.118 157, 179.069 157 C 181.402 157, 182.619 158.829, 183.321 163.391 C 184.271 169.560, 181.130 173.210, 176.844 170.917 C 175.271 170.075, 174.417 170.218, 172.917 171.575 C 170.143 174.085, 170.541 176.371, 174.477 180.544 C 177.576 183.830, 178.332 184.160, 181.423 183.580 C 185.335 182.846, 186.644 184.234, 187.006 189.500 C 187.349 194.497, 187.186 194.770, 181.646 198.447 C 175.588 202.468, 174 202.816, 174 200.124 C 174 199.093, 172.899 195.759, 171.553 192.716 C 167.256 182.999, 165.681 184.171, 165.497 197.225 C 165.422 202.520, 164.900 206.500, 164.186 207.214 C 162.134 209.266, 162.950 211.413, 166.789 214.063 C 170.022 216.295, 170.641 217.386, 171.579 222.509 C 172.622 228.201, 172.573 228.465, 170.078 230.682 C 167.299 233.151, 157.131 236.592, 150.243 237.395 C 147.902 237.667, 145.532 238.171, 144.976 238.515 C 144.421 238.858, 139.619 239.301, 134.305 239.498 C 126.325 239.796, 123.999 239.530, 120.945 237.972 C 118.911 236.934, 116.966 235.354, 116.623 234.461 C 115.316 231.054, 116.058 221.351, 118.020 216.187 C 119.131 213.265, 119.785 210.461, 119.474 209.957 C 118.551 208.464, 120.935 204.975, 123.561 203.977 C 125.197 203.355, 126 202.271, 126 200.685 C 126 199.257, 127.385 197.061, 129.500 195.136 C 131.425 193.385, 133 191.141, 133 190.150 C 133 189.159, 134.082 187.332, 135.405 186.089 C 137.599 184.028, 137.691 183.597, 136.456 181.165 C 135.711 179.699, 134.868 177.713, 134.582 176.750 C 134.282 175.739, 133.088 175, 131.756 175 C 130.017 175, 128.961 173.952, 127.474 170.750 C 126.183 167.970, 124.758 166.394, 123.354 166.194 C 122.174 166.026, 120.374 164.965, 119.354 163.837 C 117.533 161.821, 117.558 161.737, 120.780 159.044 C 122.585 157.537, 124.963 154.548, 126.065 152.402 L 128.070 148.500 125.019 145.750 C 123.341 144.238, 121.588 143, 121.124 143 C 120.659 143, 118.624 144.123, 116.600 145.497 C 114.577 146.870, 110.907 149.066, 108.445 150.376 C 100.348 154.686, 96.968 159.754, 98.396 165.443 C 98.908 167.483, 99.709 167.936, 103.255 168.193 C 107.463 168.497, 107.503 168.536, 107.803 172.662 C 108.035 175.841, 107.618 177.278, 106.036 178.752 C 102.961 181.617, 97.119 184.206, 90.500 185.636 C 86.968 186.399, 86.464 186.868, 86.195 189.642 C 85.534 196.441, 96.763 199.074, 102.116 193.376 C 103.344 192.069, 105.188 191, 106.215 191 C 107.909 191, 108.054 191.760, 107.790 199.224 C 107.523 206.784, 107.305 207.544, 105.081 208.650 C 103.750 209.312, 102.282 210.531, 101.818 211.360 C 101.039 212.752, 95.774 216.152, 85.742 221.741 C 81.080 224.338, 75 230.287, 75 232.250 C 75 236.072, 80.562 237.246, 83.466 234.038 C 84.443 232.958, 86.766 231.572, 88.629 230.958 C 90.491 230.343, 92.478 228.976, 93.043 227.920 C 93.608 226.864, 94.660 226, 95.380 226 C 96.101 226, 97.505 225.100, 98.500 224 C 99.515 222.879, 101.580 222, 103.200 222 C 105.946 222, 106.059 222.170, 105.452 225.404 C 104.835 228.691, 106.224 237.806, 108.139 243.040 C 109.307 246.232, 116.663 250.343, 121.136 250.303 C 122.986 250.286, 124.988 250.655, 125.585 251.122 C 126.182 251.589, 128.432 251.808, 130.585 251.608 C 132.738 251.408, 138.325 250.901, 143 250.482 C 148.860 249.956, 152.241 249.141, 153.885 247.859 C 155.444 246.643, 157.911 246, 161.012 246 C 164.008 246, 166.214 245.447, 167 244.500 C 167.685 243.675, 169.063 243, 170.063 243 C 171.064 243, 172.160 242.550, 172.500 242 C 172.840 241.450, 173.957 241, 174.982 241 C 176.008 241, 178.231 239.835, 179.923 238.411 C 182.232 236.468, 183 234.986, 183 232.470 C 183 230.626, 182.550 228.840, 182 228.500 C 181.450 228.160, 181 226.311, 181 224.391 C 181 222.471, 180.317 219.580, 179.482 217.965 C 177.703 214.525, 178.823 211.857, 182.808 210.042 C 186.888 208.183, 187.675 209.958, 188.221 222.257 C 188.689 232.787, 188.918 233.792, 191.833 238.105 C 193.546 240.638, 195.521 243.148, 196.223 243.683 C 198.959 245.767, 207.183 248.171, 209.545 247.578 C 210.999 247.213, 212.929 247.556, 214.254 248.415 C 215.970 249.527, 219.214 249.798, 228 249.560 C 241.640 249.192, 252 248.044, 252 246.900 C 252 246.447, 253.838 245.582, 256.083 244.978 C 258.814 244.242, 262.021 242.053, 265.762 238.371 C 272.554 231.687, 274 229.067, 274 223.445 C 274 221.065, 274.511 218.802, 275.137 218.416 C 275.945 217.916, 276.042 215.231, 275.473 209.107 C 275.033 204.373, 274.742 198.740, 274.826 196.589 C 274.909 194.438, 274.496 192.097, 273.906 191.387 C 273.317 190.677, 273.122 189.191, 273.473 188.086 C 273.824 186.980, 273.652 185.218, 273.091 184.170 C 272.530 183.123, 271.943 179.168, 271.786 175.383 C 271.510 168.743, 271.405 168.489, 268.817 168.190 C 265.074 167.758, 263.319 171.031, 265.505 174.367 C 266.754 176.273, 266.840 177.257, 265.932 179.251 C 265.080 181.120, 265.083 182.286, 265.943 183.894 C 266.575 185.075, 266.784 186.541, 266.406 187.152 C 266.028 187.763, 265.634 195.516, 265.530 204.382 C 265.321 222.191, 264.471 225.313, 258.500 230.192 C 254.934 233.107, 243.927 237.388, 239 237.776 C 220.268 239.253, 215.160 239.122, 211.127 237.065 C 208.901 235.929, 206.462 235, 205.707 235 C 204.952 235, 202.872 233.180, 201.084 230.955 C 198.021 227.143, 197.862 226.552, 198.328 220.705 C 198.601 217.292, 199.140 213.031, 199.527 211.236 C 199.947 209.288, 199.732 206.768, 198.994 204.985 C 198.170 202.996, 198.085 201.581, 198.740 200.749 C 199.282 200.062, 200.018 198.268, 200.378 196.763 C 200.738 195.257, 202.262 193.253, 203.766 192.308 C 206.972 190.295, 218.068 179.072, 220.457 175.426 C 221.508 173.821, 221.999 171.372, 221.805 168.701 C 221.503 164.547, 221.453 164.497, 217.355 164.198 C 213.779 163.937, 212.940 164.280, 211.237 166.698 C 210.151 168.239, 208.948 170.512, 208.564 171.750 C 208.180 172.988, 207.528 174, 207.117 174 C 206.705 174, 205.407 175.711, 204.231 177.802 C 201.211 183.177, 198.137 185.840, 197.027 184.044 C 196.553 183.276, 196.580 181.605, 197.088 180.268 C 197.590 178.949, 198 176.785, 198 175.459 C 198 173.977, 199.349 171.821, 201.500 169.864 C 205.197 166.500, 205.880 163.443, 204.025 158.565 C 203.155 156.278, 202.501 156, 197.993 156 C 194.516 156, 192.765 155.550, 192.385 154.561 C 191.635 152.607, 194.046 147.933, 196.496 146.592 C 197.593 145.992, 199.747 144.671, 201.281 143.657 C 203.510 142.184, 204.365 142.058, 205.535 143.029 C 206.341 143.698, 207 144.902, 207 145.706 C 207 146.509, 207.563 146.974, 208.250 146.739 C 209.104 146.446, 209.386 144.619, 209.142 140.970 C 208.857 136.725, 208.206 135.052, 205.969 132.815 C 202.612 129.458, 201.583 129.430, 197 132.568 M 123.635 178.073 C 121.587 179.683, 121 181.021, 121 184.073 C 121 186.233, 121.410 188, 121.911 188 C 123.815 188, 128 181.761, 128 178.923 C 128 175.457, 127.167 175.294, 123.635 178.073" stroke="none" fill="black" fill-rule="evenodd"/>
</svg>