<svg xmlns="http://www.w3.org/2000/svg" width="300" height="300" viewBox="0 0 300 300" version="1.1">
	<path d="M 155.403 38.931 C 152.663 42.008, 145.017 56.591, 145.006 58.764 C 145.003 59.459, 144.583 60.809, 144.073 61.764 C 143.563 62.719, 142.883 64.175, 142.562 65 C 142.241 65.825, 141.116 67.850, 140.062 69.500 C 137.392 73.681, 137.373 78, 140.025 78 C 141.313 78, 142.429 77.001, 143.093 75.254 C 143.667 73.744, 145.344 70.939, 146.819 69.020 C 150.035 64.835, 151.193 62.910, 154.047 57 C 155.242 54.525, 158.420 49.948, 161.110 46.829 C 163.799 43.710, 166 40.742, 166 40.234 C 166 38.608, 162.415 36, 160.179 36 C 158.989 36, 156.840 37.319, 155.403 38.931 M 166.314 70.657 C 161.697 77.416, 159.378 79.183, 157.987 77 C 157.461 76.175, 157.024 74.332, 157.015 72.905 C 156.997 69.775, 153.714 66.512, 151.455 67.379 C 150.108 67.896, 149.924 69.136, 150.358 74.750 C 150.645 78.463, 151.171 83.325, 151.527 85.556 C 152.014 88.612, 151.785 89.934, 150.597 90.919 C 148.017 93.061, 142.087 91.347, 138.490 87.419 C 136.767 85.539, 134.467 84, 133.379 84 C 128.778 84, 127.519 89.260, 131.275 92.789 C 134.120 95.462, 145.080 98.361, 149.045 97.490 C 151.351 96.984, 152 97.190, 152 98.430 C 152 99.304, 151.213 100.651, 150.250 101.423 C 149.287 102.194, 142.009 108.287, 134.075 114.961 C 126.141 121.636, 119.166 127.412, 118.575 127.798 C 117.984 128.184, 116.638 129.517, 115.586 130.760 C 113.690 132.999, 113.694 133.045, 116.010 135.510 C 119.040 138.735, 122.486 138.714, 124.620 135.457 C 125.537 134.058, 127.315 132.371, 128.573 131.707 C 131.516 130.153, 140.009 122.821, 145.898 116.750 C 153.287 109.133, 153.561 109.526, 153.220 127.250 C 152.800 149.001, 152.580 149.563, 146.861 143.500 C 141.163 137.459, 138.403 138.994, 131.801 151.877 C 130.056 155.283, 129.034 158.683, 129.210 160.500 C 129.460 163.086, 129.905 163.500, 132.434 163.500 C 134.856 163.500, 135.827 162.714, 137.994 159 C 141.685 152.676, 143.855 152.663, 149.630 158.933 C 157.649 167.638, 159.548 166.024, 160.555 149.649 L 161.284 137.798 164.392 135.903 C 168.212 133.573, 171.296 133.493, 174.567 135.636 C 176.443 136.865, 178.498 137.142, 182.827 136.749 C 189.056 136.185, 190.422 136.773, 193.287 141.250 C 194.574 143.262, 195.863 144, 198.089 144 C 199.762 144, 202.039 144.486, 203.149 145.080 C 205.584 146.383, 209 143.855, 209 140.749 C 209 137.180, 205.148 133, 201.860 133 C 200.208 133, 196.864 131.832, 194.428 130.405 C 188.074 126.681, 179.469 126.032, 174.031 128.867 C 169.457 131.251, 163.478 131.688, 162.713 129.695 C 162.438 128.977, 162.167 122.954, 162.111 116.311 L 162.010 104.233 166.255 100.831 C 168.590 98.960, 173.537 95.480, 177.250 93.097 C 182.907 89.467, 184 88.318, 184 86.005 C 184 84.487, 183.351 82.706, 182.557 82.047 C 181.013 80.766, 176.216 83.053, 167.280 89.331 C 163.770 91.797, 162.803 92.082, 161.530 91.025 C 159.053 88.969, 159.760 85.625, 163.422 82.076 C 165.304 80.252, 167.120 77.659, 167.457 76.314 C 167.837 74.801, 169.327 73.343, 171.365 72.492 C 175.963 70.571, 177.611 68.441, 176 66.500 C 173.435 63.410, 170.363 64.728, 166.314 70.657 M 76.361 77.202 C 75.389 78.512, 76.134 95.555, 77.515 103.578 L 78.217 107.655 71.703 112.839 C 68.120 115.690, 63.348 118.672, 61.098 119.465 C 55.442 121.461, 50 125.996, 50 128.715 C 50 133.663, 57.687 134.124, 63.176 129.505 C 64.814 128.127, 67.266 127, 68.626 127 C 69.986 127, 72.469 126.292, 74.143 125.426 C 75.816 124.561, 77.301 123.998, 77.442 124.176 C 77.826 124.662, 80.020 148.244, 80.621 158.344 L 81.147 167.189 76.351 173.344 C 73.713 176.730, 71.061 179.950, 70.458 180.500 C 69.854 181.050, 68.528 182.850, 67.511 184.500 C 65.615 187.576, 64.842 188.547, 51.040 205.200 C 46.618 210.535, 43 215.210, 43 215.590 C 43 216.855, 46.473 218.936, 48.638 218.968 C 50.973 219.003, 59.471 211.241, 60.440 208.189 C 60.766 207.161, 62.190 205.701, 63.603 204.945 C 66.751 203.260, 72 196.799, 72 194.608 C 72 192.427, 78.874 183, 80.465 183 C 81.997 183, 83.137 196.861, 82.974 213.500 C 82.915 219.550, 82.919 226.637, 82.984 229.250 C 83.091 233.577, 82.896 233.999, 80.800 233.989 C 79.466 233.983, 76.644 232.198, 74.083 229.739 C 67.664 223.578, 63.911 221, 61.365 221 C 57.822 221, 57.682 222.700, 61.060 224.683 C 62.763 225.682, 65.662 228.591, 67.502 231.147 C 71.471 236.658, 84.076 247, 86.824 247 C 90.872 247, 90.992 245.764, 90.741 206.832 L 90.500 169.348 93 165.916 C 95.143 162.974, 97.810 157.930, 103.530 146 C 105.843 141.174, 106.111 138.257, 104.305 137.564 C 102.221 136.764, 95.106 144.469, 95.043 147.595 C 94.994 149.961, 91.693 153.398, 90.007 152.836 C 89.263 152.588, 88.767 145.892, 88.497 132.489 C 88.098 112.628, 88.110 112.488, 90.604 108.232 C 92.445 105.090, 93.031 102.828, 92.806 99.726 C 92.494 95.420, 92.463 95.400, 87.901 96.699 C 86.580 97.075, 86.184 95.885, 85.625 89.876 C 85.253 85.872, 84.150 81.225, 83.174 79.548 C 81.259 76.260, 77.915 75.108, 76.361 77.202 M 176.151 177.510 C 173.209 178.879, 170.371 180, 169.846 180 C 165.775 180, 147.474 197.128, 140.389 207.568 C 135.911 214.168, 139.603 217.637, 145.356 212.234 C 147.085 210.610, 151.112 207.386, 154.304 205.069 C 157.496 202.753, 160.614 199.747, 161.232 198.390 C 161.867 196.996, 163.040 196.053, 163.928 196.224 C 165.880 196.599, 167.520 208.668, 165.887 210.636 C 165.318 211.322, 162.023 213.305, 158.566 215.042 C 150.516 219.087, 144 224.966, 144 228.184 C 144 232.870, 148.395 234.568, 151.711 231.163 C 155.144 227.638, 162.863 223.010, 164.356 223.583 C 165.602 224.061, 165.764 225.733, 165.299 233.330 C 164.679 243.456, 163.667 245.475, 158.659 246.575 C 154.395 247.511, 143.897 252.010, 141.766 253.813 C 138.773 256.347, 142.003 264, 146.066 264 C 147.032 264, 148.958 262.650, 150.347 261 C 151.735 259.350, 153.913 257.612, 155.186 257.139 C 158.984 255.728, 169.776 254.828, 170.419 255.869 C 170.999 256.807, 199.243 256.471, 205.650 255.449 C 207.382 255.173, 209.360 254.271, 210.046 253.444 C 211.070 252.210, 210.878 251.500, 208.972 249.471 C 206.890 247.254, 205.852 247, 198.885 247 C 194.560 247, 190.832 246.537, 190.472 245.955 C 189.968 245.140, 199.531 224.046, 205.065 213.764 C 205.579 212.809, 206 210.923, 206 209.573 C 206 208.223, 206.450 206.840, 207 206.500 C 208.403 205.633, 208.220 194.218, 206.734 189.955 C 203.867 181.728, 199.683 177.583, 192.701 176.052 C 185.476 174.468, 182.033 174.771, 176.151 177.510 M 184.607 183.750 C 184.207 184.162, 181.545 185.204, 178.690 186.064 L 173.500 187.627 173.675 195.958 C 173.789 201.394, 174.286 204.559, 175.105 205.065 C 175.795 205.491, 178.078 205.153, 180.178 204.312 C 184.360 202.639, 187 203.087, 187 205.470 C 187 206.312, 184.343 209.066, 181.095 211.588 C 174.675 216.573, 174.512 216.956, 173.479 229.500 C 173.162 233.350, 172.391 238.222, 171.766 240.326 C 170.474 244.677, 171.469 245.958, 176.164 245.985 C 178.993 246.001, 180.757 243.382, 189.290 226.500 C 198.287 208.699, 199 206.605, 199 197.976 C 199 188.837, 198.199 186.671, 194.020 184.510 C 190.924 182.909, 185.821 182.497, 184.607 183.750 M 117.566 202.894 C 117.015 203.785, 118.924 208.731, 121.265 212.476 C 127.092 221.797, 129 225.230, 129 226.397 C 129 227.144, 129.675 228.315, 130.500 229 C 131.325 229.685, 132 231.277, 132 232.540 C 132 235.327, 135.273 243.170, 138.082 247.115 C 140.303 250.234, 143.434 250.918, 144.366 248.489 C 145.124 246.512, 144.046 240.905, 142.540 239 C 141.889 238.175, 140.765 235.475, 140.043 233 C 137.184 223.203, 136.326 221.214, 131.625 213.500 C 128.944 209.100, 126.061 204.713, 125.220 203.750 C 123.621 201.921, 118.520 201.350, 117.566 202.894" stroke="none" fill="black" fill-rule="evenodd"/>
</svg>