<svg xmlns="http://www.w3.org/2000/svg" width="300" height="300" viewBox="0 0 300 300" version="1.1">
	<path d="M 186.667 54.667 C 185.593 55.740, 185.899 59.951, 187.222 62.316 C 188.724 64.999, 190.896 72.744, 190.956 75.628 C 191.019 78.682, 188.455 80.623, 186.500 79 C 185.675 78.315, 185 76.971, 185 76.012 C 185 72.874, 181.016 68.860, 178.235 69.195 C 174.094 69.694, 173.239 72.291, 176.072 75.768 C 177.407 77.407, 179.263 80.042, 180.195 81.624 C 181.127 83.206, 183.317 86.373, 185.060 88.662 C 188.210 92.798, 188.222 92.858, 186.932 98.162 C 186.219 101.098, 185.267 103.927, 184.817 104.450 C 184.368 104.972, 184 106.408, 184 107.641 C 184 108.874, 183.550 110.160, 183 110.500 C 182.450 110.840, 182 112.051, 182 113.190 C 182 114.330, 180.136 118.762, 177.857 123.038 C 173.437 131.333, 173.334 134, 177.433 134 C 179.194 134, 180.674 132.903, 182.464 130.268 C 183.859 128.215, 185 126.031, 185 125.414 C 185 124.797, 186.089 123.117, 187.420 121.681 C 188.751 120.245, 189.991 118.284, 190.176 117.325 C 190.917 113.479, 207.841 113.385, 213.249 117.197 C 218.653 121.006, 223.313 116.108, 218.844 111.316 C 214.708 106.881, 207.718 104, 201.092 104 C 197.806 104, 194.878 103.612, 194.585 103.138 C 194.292 102.664, 194.672 100.526, 195.428 98.388 C 196.185 96.250, 197.185 92.711, 197.652 90.525 C 198.189 88.006, 199.291 86.157, 200.660 85.478 C 203.817 83.911, 209.249 77.045, 211.371 71.939 C 212.385 69.498, 213.821 66.342, 214.560 64.926 C 215.912 62.340, 215.553 58.576, 213.733 56.250 C 211.327 53.175, 206.121 56.043, 206.017 60.500 C 205.959 63.021, 203.184 71.073, 201.799 72.742 C 199.676 75.301, 198.098 74.169, 198.692 70.513 C 199.319 66.645, 195.955 57.455, 193.122 55.298 C 191.358 53.955, 187.733 53.601, 186.667 54.667 M 132.667 66.667 C 131.051 68.282, 132.271 71.870, 135.500 75 C 137.425 76.866, 139 79.114, 139 79.996 C 139 80.878, 139.404 82.028, 139.898 82.550 C 140.392 83.073, 141.109 85.862, 141.492 88.750 C 142.131 93.570, 142.023 94, 140.182 94 C 138.626 94, 138.026 93.116, 137.510 90.057 C 137.089 87.569, 135.583 84.778, 133.429 82.493 C 130.641 79.538, 129.415 78.930, 126.757 79.186 C 122.034 79.641, 121.866 82.933, 126.338 87.404 C 128.245 89.312, 131.002 93.070, 132.464 95.757 C 133.926 98.443, 136.489 101.448, 138.158 102.434 C 140.650 103.906, 141.095 104.700, 140.642 106.864 C 140.338 108.314, 139.677 111.731, 139.172 114.458 C 138.667 117.184, 137.747 119.584, 137.127 119.791 C 136.507 119.998, 136 121.228, 136 122.524 C 136 123.821, 135.550 125.160, 135 125.500 C 134.450 125.840, 133.994 126.879, 133.987 127.809 C 133.972 129.890, 128.694 140.449, 126.646 142.497 C 125.824 143.319, 123.959 144.445, 122.503 144.999 C 120.776 145.655, 119.970 146.614, 120.186 147.753 C 120.437 149.075, 121.696 149.575, 125.358 149.809 C 129.895 150.098, 130.444 149.859, 134.124 145.990 C 136.284 143.720, 139.529 138.858, 141.335 135.185 C 144.563 128.624, 144.702 128.496, 149.312 127.836 C 154.278 127.126, 162.422 121.731, 161.697 119.631 C 161.456 118.937, 158.642 118.500, 154.403 118.500 C 148.782 118.500, 147.563 118.221, 147.842 117 C 150.534 105.189, 151.904 84.504, 150.114 82.714 C 149.501 82.101, 149 80.791, 149 79.802 C 149 77.594, 142.456 68.314, 139.954 66.976 C 137.867 65.858, 133.654 65.680, 132.667 66.667 M 160.595 68.250 C 160.406 68.938, 159.703 71.975, 159.033 75 C 158.362 78.025, 157.316 81.962, 156.706 83.749 C 154.355 90.648, 159.935 90.121, 163.570 83.102 C 164.596 81.121, 166.441 77.964, 167.670 76.088 L 169.905 72.675 167.884 69.838 C 165.778 66.879, 161.241 65.891, 160.595 68.250 M 78.450 94.081 C 78.082 94.676, 78.104 101.820, 78.498 109.956 C 78.892 118.092, 78.925 125.661, 78.571 126.775 C 78.218 127.890, 76.734 129.101, 75.275 129.467 C 72.333 130.206, 67.130 133.599, 65.344 135.945 C 64.708 136.780, 60.923 138.161, 56.932 139.014 C 48.510 140.815, 46.907 142.402, 49.505 146.368 C 51.142 148.866, 51.640 149.027, 55.803 148.402 C 62.025 147.469, 71.448 143.643, 75.109 140.562 C 80.796 135.776, 81.045 136.365, 81.080 154.696 C 81.096 162.838, 81.575 170.980, 82.145 172.788 C 83.253 176.308, 83.377 176.021, 77.101 184.500 C 75.472 186.700, 72.923 190.525, 71.436 193 C 69.949 195.475, 66.880 199.330, 64.616 201.566 C 62.352 203.802, 58.925 207.823, 57 210.501 C 55.075 213.179, 51.305 217.425, 48.622 219.935 C 43.410 224.812, 36 234.990, 36 237.271 C 36 239.351, 40.578 243.228, 42.575 242.841 C 43.540 242.653, 45.204 240.925, 46.272 239 C 47.341 237.075, 50.304 233.075, 52.858 230.111 C 59.944 221.886, 64.720 215.458, 65.446 213.170 C 65.807 212.033, 66.979 210.824, 68.051 210.484 C 69.123 210.144, 70 209.527, 70 209.113 C 70 208.699, 71.575 206.520, 73.500 204.271 C 75.425 202.022, 77 199.536, 77 198.746 C 77 196.860, 80.211 194, 82.329 194 C 83.851 194, 84 196.505, 84 222.031 C 84 246.246, 83.792 250.143, 82.473 250.649 C 80.913 251.247, 75.862 248.226, 68.206 242.115 C 65.001 239.556, 63.625 238.975, 62.776 239.824 C 59.564 243.036, 70.317 253.593, 81.934 258.631 L 88.109 261.309 90.805 259.289 C 93.281 257.434, 93.486 256.751, 93.324 250.885 C 92.569 223.500, 92.538 217.440, 93.116 209.500 C 93.476 204.550, 93.440 200.050, 93.035 199.500 C 92.631 198.950, 92.570 194.429, 92.900 189.453 C 93.346 182.723, 94.012 179.677, 95.500 177.563 C 98.389 173.455, 98.646 173.011, 101.322 167.500 C 102.657 164.750, 104.768 160.626, 106.014 158.336 C 110.620 149.869, 104.983 148.979, 99.514 157.310 C 96.471 161.945, 93.513 163.913, 91.946 162.346 C 91.476 161.876, 90.973 154.069, 90.827 144.996 L 90.563 128.500 95.895 123.095 C 101.953 116.954, 104.311 112.450, 102.874 109.764 C 101.364 106.943, 97.160 107.528, 95.777 110.750 C 92.650 118.040, 88.112 121.340, 86.607 117.418 C 86.273 116.548, 86 111.443, 86 106.073 C 86 97.885, 85.705 96.043, 84.171 94.655 C 82.079 92.762, 79.429 92.496, 78.450 94.081 M 222.622 123.021 C 215.455 126.739, 210.482 130.146, 201.772 137.301 C 198.071 140.342, 192.301 144.495, 188.949 146.531 C 185.597 148.567, 180.592 151.756, 177.827 153.617 C 175.061 155.478, 171.786 157, 170.548 157 C 169.159 157, 166.583 158.818, 163.817 161.750 C 158.510 167.375, 157.837 167.915, 147.491 174.853 C 137.612 181.477, 134.581 182.131, 130.500 178.517 C 126.692 175.145, 118.655 169.949, 113.571 167.573 C 109.048 165.458, 106.643 166.289, 106.256 170.101 C 105.921 173.401, 107.703 175.283, 113.086 177.312 C 115.608 178.262, 119.850 180.493, 122.513 182.270 C 125.175 184.046, 127.837 185.812, 128.427 186.192 C 129.017 186.573, 132.019 187.626, 135.098 188.531 L 140.696 190.178 146.016 187.396 C 148.942 185.866, 155.170 181.756, 159.856 178.262 C 165.161 174.307, 169.155 172.022, 170.438 172.205 C 172.355 172.479, 172.520 173.262, 172.785 183.372 C 173.132 196.592, 172.614 197.614, 163.277 202.117 C 159.549 203.914, 155.334 206.178, 153.910 207.147 C 152.485 208.116, 148.796 209.853, 145.711 211.007 C 139.329 213.395, 137.738 215.948, 140.637 219.151 C 142.925 221.679, 145.271 221.257, 155.469 216.483 C 163.365 212.786, 166.828 212.535, 165.478 215.758 C 165.077 216.716, 163.873 219.975, 162.804 223 C 161.734 226.025, 160.453 229.400, 159.957 230.500 C 159.461 231.600, 158.189 234.750, 157.129 237.500 C 150.914 253.635, 133.067 282.177, 124.668 289.414 C 119.581 293.796, 119.554 293.850, 121.424 295.916 C 122.461 297.062, 124.350 298, 125.620 298 C 132.055 298, 146.467 279.647, 155.066 260.500 C 155.807 258.850, 156.961 256.825, 157.630 256 C 159.751 253.384, 168 237.192, 168 235.646 C 168 234.830, 168.633 232.888, 169.407 231.331 C 170.987 228.155, 172.217 225.144, 174.036 220 C 177.104 211.329, 180.189 205.879, 182.536 204.986 C 183.876 204.477, 186.891 203.103, 189.236 201.933 C 191.661 200.723, 196.344 199.579, 200.094 199.280 C 206.595 198.761, 206.720 198.798, 208.938 201.913 C 210.760 204.471, 211.090 205.970, 210.674 209.786 C 209.802 217.773, 206.356 231.803, 204.862 233.450 C 204.388 233.973, 204 235.216, 204 236.214 C 204 237.211, 203.590 238.809, 203.088 239.764 C 201.907 242.013, 195.780 255.146, 193.064 261.250 C 191.901 263.863, 190.356 266, 189.630 266 C 187.528 266, 185 262.577, 185 259.730 C 185 258.294, 184.550 256.840, 184 256.500 C 183.450 256.160, 183 253.737, 183 251.115 C 183 247.350, 182.485 245.865, 180.551 244.048 C 176.528 240.268, 174.994 241.845, 175.035 249.719 C 175.056 253.701, 175.661 257.532, 176.500 259 C 177.286 260.375, 177.945 262.936, 177.965 264.691 C 177.984 266.446, 178.450 268.160, 179 268.500 C 179.550 268.840, 180 269.910, 180 270.879 C 180 273.697, 186.826 281, 189.459 281 C 191.729 281, 197 275.418, 197 273.014 C 197 272.398, 198.125 270.238, 199.500 268.215 C 200.875 266.191, 202 263.959, 202 263.254 C 202 262.550, 202.392 261.191, 202.870 260.236 C 207.988 250.027, 211.033 243.236, 211.047 242 C 211.056 241.175, 211.724 239.626, 212.532 238.559 C 213.339 237.491, 214 235.605, 214 234.368 C 214 233.130, 214.450 231.840, 215 231.500 C 215.550 231.160, 216 229.768, 216 228.406 C 216 227.044, 216.671 224.905, 217.491 223.653 C 218.609 221.947, 218.922 218.887, 218.741 211.439 C 218.514 202.092, 218.311 201.228, 215.332 196.939 C 211.150 190.918, 206.085 188.609, 198.296 189.172 C 195.092 189.404, 190.423 190.585, 187.920 191.797 C 185.417 193.009, 182.879 194, 182.280 194 C 181.540 194, 181.321 190.669, 181.596 183.573 L 182.001 173.146 178.846 170.677 L 175.691 168.208 177.850 165.463 C 179.038 163.953, 182.620 160.869, 185.810 158.609 C 189.001 156.349, 193.836 152.795, 196.556 150.712 C 220.870 132.085, 229.990 126.810, 233.475 129.358 C 235.075 130.528, 234.990 131.062, 232.248 137.058 C 230.487 140.908, 226.044 147.293, 221.203 152.929 C 216.748 158.116, 213.332 162.728, 213.611 163.179 C 213.890 163.631, 215.187 164, 216.494 164 C 222.089 164, 226.235 160.747, 232.730 151.261 C 239.037 142.049, 239.851 140.584, 239.927 138.309 C 239.967 137.104, 240.450 135.840, 241 135.500 C 241.550 135.160, 242 132.931, 242 130.547 C 242 127.143, 241.377 125.544, 239.099 123.106 C 235.230 118.964, 230.488 118.940, 222.622 123.021" stroke="none" fill="black" fill-rule="evenodd"/>
</svg>