<svg xmlns="http://www.w3.org/2000/svg" width="300" height="300" viewBox="0 0 300 300" version="1.1">
	<path d="M 119.991 44.510 C 119.302 45.341, 118.344 48.154, 117.862 50.760 C 116.612 57.523, 112.545 60.370, 111.450 55.250 C 109.885 47.933, 107.719 46.407, 103.295 49.506 C 101.408 50.827, 101.214 51.670, 101.702 56.401 C 102.212 61.343, 102.061 61.893, 99.879 63.014 C 95.139 65.450, 90.201 71.042, 90.761 73.339 C 91.766 77.453, 93.050 78.181, 98.083 77.489 C 102.719 76.851, 102.818 76.895, 103.469 79.861 C 103.834 81.523, 103.672 83.745, 103.108 84.799 C 102.399 86.123, 102.425 87.917, 103.191 90.607 C 104.899 96.601, 104.644 100.219, 102.432 101.394 C 101.369 101.958, 99.308 103.205, 97.850 104.166 C 96.393 105.126, 93.918 106.214, 92.350 106.585 C 89.012 107.373, 84 111.729, 84 113.843 C 84 115.516, 88.690 122, 89.900 122 C 90.340 122, 92.679 120.658, 95.100 119.018 C 97.772 117.207, 100.808 116.029, 102.832 116.018 C 105.162 116.005, 107.490 114.913, 110.576 112.384 C 113.003 110.395, 116.231 108.671, 117.750 108.551 C 119.268 108.432, 122.083 106.861, 124.005 105.061 C 128.987 100.395, 133.094 98.008, 136.146 98.004 C 137.921 98.001, 139.815 96.835, 141.896 94.465 C 145.637 90.205, 145.687 89.596, 142.559 86.468 C 140.578 84.487, 139.494 84.148, 136.809 84.668 C 134.989 85.021, 132.435 86.134, 131.132 87.141 C 129.830 88.149, 128.368 88.727, 127.882 88.427 C 126.681 87.685, 126.846 77.522, 128.150 72 C 128.734 69.525, 129.277 65.850, 129.356 63.833 C 129.447 61.523, 130.359 59.250, 131.822 57.692 C 133.494 55.910, 134.053 54.296, 133.822 51.919 C 133.540 49.034, 132.808 48.271, 128 45.852 C 121.477 42.571, 121.586 42.589, 119.991 44.510 M 166.537 51.303 C 165.171 53.388, 165.219 54.122, 167.042 59.053 C 171.355 70.721, 172.041 80.437, 170.039 101.500 C 169.359 108.650, 168.836 115.833, 168.878 117.462 C 168.919 119.091, 168.214 121.551, 167.311 122.929 C 166.232 124.576, 165.538 128.271, 165.287 133.717 C 164.911 141.869, 164.947 142.019, 167.562 143.210 C 169.859 144.257, 170.408 144.163, 171.610 142.519 C 172.374 141.473, 173 138.394, 173 135.677 C 173 131.326, 173.418 130.342, 176.500 127.435 C 178.425 125.620, 180 123.259, 180 122.190 C 180 121.120, 180.615 119.734, 181.367 119.110 C 183.334 117.478, 184.676 119.522, 185.233 125 C 185.808 130.654, 183.440 155.749, 182.183 157.326 C 181.668 157.972, 180.934 161.088, 180.551 164.250 C 179.703 171.262, 178.498 171.546, 170.996 166.497 C 168.133 164.571, 164.304 162.289, 162.487 161.427 C 160.669 160.564, 158.396 158.990, 157.436 157.929 C 155.189 155.446, 149.935 155.423, 146.897 157.883 C 144.845 159.544, 144.712 160.072, 145.765 162.383 C 146.431 163.845, 147.781 165, 148.824 165 C 149.850 165, 151.505 165.900, 152.500 167 C 153.495 168.100, 154.717 169, 155.214 169 C 155.711 169, 157.930 170.456, 160.145 172.236 C 162.376 174.030, 165.470 175.538, 167.083 175.619 C 171.615 175.847, 175 178.560, 175 181.964 C 175 183.569, 174.550 185.160, 174 185.500 C 173.450 185.840, 173 187, 173 188.078 C 173 190.282, 168.351 199.397, 164.823 204.110 C 163.546 205.818, 157.916 211.891, 152.312 217.607 C 144.631 225.443, 141.494 228, 139.562 228 C 137.451 228, 136.987 227.516, 136.927 225.250 C 136.401 205.271, 136.496 198.140, 137.316 196.280 C 137.963 194.810, 137.949 193.626, 137.275 192.780 C 136.259 191.504, 136.229 166.105, 137.241 164.370 C 137.521 163.892, 137.336 161.025, 136.830 158 C 136.324 154.975, 135.521 148.963, 135.045 144.640 C 134.569 140.316, 133.689 136.289, 133.090 135.690 C 132.490 135.090, 132 133.520, 132 132.201 C 132 129.726, 122.706 119.576, 121 120.189 C 119.373 120.774, 103.502 136.428, 102.470 138.466 C 101.009 141.353, 98.932 140.986, 97 137.500 C 95.865 135.452, 94.570 134.500, 92.919 134.500 C 90.550 134.500, 90.506 134.652, 90.811 141.930 C 90.982 146.017, 91.630 150.292, 92.251 151.430 C 94.262 155.116, 93.457 184.061, 91.060 194.289 C 89.927 199.123, 89 204.355, 89 205.916 C 89 207.478, 88.325 209.315, 87.500 210 C 86.675 210.685, 86 212.372, 86 213.749 C 86 215.126, 84.642 218.925, 82.982 222.192 C 81.322 225.459, 80.215 228.539, 80.523 229.038 C 80.831 229.536, 80.379 231.018, 79.519 232.331 C 76.488 236.956, 80.512 240.247, 86.324 237.898 C 90.414 236.244, 90.966 235.359, 90.985 230.421 C 91.001 226.063, 94.671 219.483, 100.128 214.026 C 101.708 212.446, 103 210.754, 103 210.265 C 103 209.776, 104.391 208.347, 106.092 207.090 C 107.792 205.833, 109.792 203.350, 110.534 201.572 C 111.277 199.795, 112.585 197.759, 113.442 197.048 C 114.299 196.337, 115.007 195.023, 115.017 194.128 C 115.042 191.630, 123.888 183.488, 125.177 184.777 C 126.811 186.411, 127.458 228.599, 125.864 229.584 C 125.062 230.080, 123.127 228.654, 120.404 225.559 C 118.058 222.893, 115.701 221.066, 115.093 221.442 C 113.380 222.501, 113.808 225.941, 116 228.727 C 117.100 230.126, 118 232.080, 118 233.070 C 118 234.060, 119.815 236.137, 122.033 237.685 C 124.488 239.398, 126.297 241.568, 126.654 243.228 C 127.511 247.207, 129.137 248.148, 133.571 247.227 C 137.150 246.483, 137.478 246.112, 138.454 241.690 C 139.262 238.030, 140.152 236.615, 142.364 235.476 C 143.940 234.664, 145.822 234, 146.546 234 C 147.271 234, 148.825 232.650, 150 231 C 151.175 229.350, 152.694 228, 153.376 228 C 154.058 228, 157.902 224.513, 161.918 220.250 C 165.934 215.988, 170.520 211.127, 172.110 209.449 C 173.699 207.771, 175.003 205.746, 175.007 204.949 C 175.010 204.152, 175.929 202.150, 177.047 200.500 C 180.015 196.123, 183 189.411, 183 187.114 C 183 183.870, 184.662 183.758, 189.213 186.694 C 197.227 191.863, 196.633 191.537, 205 195.362 C 210.319 197.794, 214.913 200.596, 219.097 203.958 C 221.179 205.631, 223.754 207, 224.819 207 C 225.884 207, 227.315 207.675, 228 208.500 C 228.685 209.325, 229.627 210, 230.093 210 C 230.876 210, 233.448 211.622, 244.663 219.190 C 246.953 220.736, 249.278 222, 249.828 222 C 250.379 222, 252.647 224.065, 254.868 226.588 C 257.089 229.111, 259.293 230.937, 259.765 230.645 C 260.237 230.354, 263.520 232.111, 267.062 234.551 C 270.603 236.991, 274.072 238.991, 274.771 238.994 C 275.471 238.997, 276.542 240.095, 277.151 241.432 C 277.761 242.770, 279.559 244.403, 281.148 245.061 C 284.818 246.582, 290.088 253.187, 290.928 257.322 C 292.340 264.266, 299.930 260.573, 299.978 252.919 C 299.997 249.900, 299.176 248.537, 294.750 244.235 C 291.863 241.429, 287.974 237.528, 286.110 235.566 C 284.245 233.605, 282.282 232, 281.747 232 C 281.212 232, 278.081 229.975, 274.788 227.500 C 271.496 225.025, 268.346 223, 267.790 223 C 267.233 223, 264.690 221.254, 262.139 219.120 C 259.587 216.986, 254.828 213.796, 251.562 212.031 C 248.296 210.265, 243.121 207.194, 240.062 205.205 C 237.003 203.216, 232.084 200.365, 229.132 198.869 C 226.180 197.372, 222.526 194.962, 221.012 193.512 C 219.499 192.061, 216.841 190.116, 215.106 189.188 C 210.467 186.705, 197.015 179.904, 193.140 178.081 C 188.756 176.018, 188.414 174.874, 190.369 168.822 C 191.266 166.043, 192 162.049, 192 159.944 C 192 157.840, 192.392 155.876, 192.871 155.580 C 193.797 155.007, 194.934 136.671, 195.170 118.500 C 195.337 105.582, 195.953 104.136, 203.661 98.552 C 217.638 88.426, 221.078 79.907, 212.084 77.695 C 209.356 77.024, 204 80.230, 204 82.535 C 204 84.074, 198.019 90.500, 194.033 93.243 C 192.640 94.202, 190.557 94.990, 189.405 94.993 C 186.778 95.002, 184 97.982, 184 100.794 C 184 103.831, 180.259 105.687, 178.229 103.658 C 176.854 102.283, 176.852 101.875, 178.204 99.810 C 180.456 96.372, 180.725 68.670, 178.557 63.481 C 177.700 61.432, 177 59.062, 177 58.214 C 177 57.366, 176.238 54.946, 175.308 52.836 C 173.929 49.712, 173.099 49, 170.831 49 C 169.028 49, 167.514 49.812, 166.537 51.303 M 47.872 60.654 C 46.563 62.232, 46.487 66.074, 47.343 87.415 C 47.500 91.324, 47.486 91.338, 38.526 96.665 C 33.590 99.599, 28.190 102.084, 26.526 102.188 C 24.862 102.291, 22.375 102.421, 21 102.476 C 13.905 102.764, 10.639 106.785, 14.282 110.750 C 17.317 114.054, 26.451 113.929, 32.593 110.500 C 35.056 109.125, 37.669 108, 38.401 108 C 39.132 108, 40.874 107.100, 42.273 106 C 45.165 103.725, 47.618 103.412, 48.143 105.250 C 48.339 105.938, 48.275 115.568, 48 126.650 L 47.500 146.801 34.957 159.841 C 28.059 167.014, 18.407 175.870, 13.508 179.522 C 3.928 186.664, 2.081 188.546, 2.032 191.215 C 1.996 193.153, 4.861 195, 7.904 195 C 10.675 195, 16.912 191.382, 19.239 188.424 C 20.287 187.091, 21.684 186, 22.342 186 C 23.763 186, 44 165.439, 44 163.995 C 44 163.448, 44.860 163, 45.911 163 C 47.729 163, 47.827 164.015, 47.911 183.567 C 47.961 195.446, 47.579 204.918, 47.006 205.989 C 46.460 207.009, 45.952 210.572, 45.876 213.908 C 45.741 219.897, 44.239 222.884, 42.044 221.527 C 41.470 221.172, 41 219.874, 41 218.641 C 41 217.408, 40.588 215.973, 40.085 215.450 C 39.581 214.928, 39.019 213.386, 38.835 212.025 C 38.651 210.664, 37.463 209.035, 36.196 208.406 C 34.930 207.777, 32.990 206.293, 31.887 205.109 C 29.529 202.578, 27.674 203.248, 28.494 206.334 C 31.692 218.364, 31.788 218.639, 35.361 226 C 36.830 229.025, 38.024 232.086, 38.016 232.803 C 38.007 233.520, 39.125 235.762, 40.500 237.785 C 41.875 239.809, 43 241.987, 43 242.625 C 43 243.264, 43.757 244.076, 44.682 244.431 C 46.590 245.164, 50.904 240.616, 50.964 237.809 C 50.984 236.879, 51.387 235.879, 51.861 235.586 C 52.335 235.293, 53.037 230.654, 53.423 225.277 C 53.808 219.900, 54.557 212.332, 55.086 208.461 C 56.146 200.700, 56.856 186.806, 57.274 165.606 C 57.533 152.505, 57.676 151.627, 59.774 150.234 C 60.998 149.421, 62 147.784, 62 146.597 C 62 145.371, 64.162 142.170, 67 139.195 C 72.514 133.414, 73.277 130.219, 70.124 126.118 L 68.292 123.736 66.396 126.463 C 63.268 130.963, 60.943 133.148, 59.717 132.739 C 57.627 132.042, 56.882 125.219, 58.479 121.397 C 59.772 118.301, 59.766 117.115, 58.427 111.340 C 57.464 107.191, 57.158 103.128, 57.591 100.245 C 58.272 95.699, 62 89.120, 65.888 85.601 C 67.022 84.575, 68.920 81.731, 70.106 79.282 C 72.248 74.857, 72.249 74.811, 70.320 72.227 C 69.252 70.796, 67.909 69.470, 67.335 69.278 C 66.762 69.087, 64.412 71.421, 62.114 74.465 C 56.643 81.711, 54.718 81.789, 55.061 74.750 C 55.493 65.900, 55.068 62.211, 53.429 60.571 C 51.409 58.551, 49.595 58.578, 47.872 60.654 M 114.218 70.997 C 112.971 72.335, 112.187 74.045, 112.475 74.797 C 112.764 75.548, 113 78.410, 113 81.155 C 113 85.369, 113.273 86.095, 114.750 85.813 C 115.730 85.626, 116.652 84.385, 116.846 82.990 C 117.036 81.620, 117.653 79.938, 118.218 79.251 C 118.920 78.395, 118.908 77.135, 118.178 75.251 C 117.592 73.738, 116.971 71.614, 116.798 70.532 C 116.502 68.672, 116.360 68.698, 114.218 70.997 M 112.497 142.452 C 108.677 146.832, 107.037 148, 104.712 148 C 102.146 148, 101.844 148.289, 102.370 150.250 C 102.701 151.488, 102.979 153.014, 102.986 153.643 C 103.011 155.683, 105.819 155.940, 110.533 154.334 C 114.795 152.882, 115.438 152.894, 118.986 154.494 C 125.409 157.390, 126.175 155.459, 123.149 144 C 120.844 135.268, 118.998 135, 112.497 142.452 M 117.355 165.699 C 115.625 165.926, 113.418 166.986, 112.450 168.056 C 111.482 169.125, 109.930 170, 109 170 C 106.464 170, 103.863 173.421, 102.749 178.221 C 101.341 184.293, 100.666 197, 101.752 197 C 102.252 197, 105.904 193.512, 109.867 189.250 C 125.364 172.580, 125.122 172.907, 124.799 169.057 C 124.478 165.239, 123.664 164.871, 117.355 165.699" stroke="none" fill="black" fill-rule="evenodd"/>
</svg>