<svg xmlns="http://www.w3.org/2000/svg" width="300" height="300" viewBox="0 0 300 300" version="1.1">
	<path d="M 114.995 31.512 C 114.470 32.894, 114.189 38.632, 114.371 44.262 C 114.813 57.935, 114.316 61, 111.657 61 C 110.512 61, 108.658 62.124, 107.538 63.498 C 106.417 64.872, 103.981 66.290, 102.124 66.648 L 98.748 67.300 99.364 60.900 C 99.703 57.380, 100.247 52.691, 100.573 50.480 C 101.051 47.243, 100.775 46.106, 99.155 44.640 C 97.991 43.587, 96.375 43.064, 95.319 43.399 C 91.777 44.523, 90.763 47.976, 90.335 60.360 C 89.943 71.703, 89.783 72.472, 87.340 74.736 C 85.189 76.729, 84.856 77.725, 85.340 80.707 C 85.659 82.676, 86.951 85.382, 88.210 86.721 C 90.313 88.956, 90.527 90.222, 90.833 102.239 C 91.049 110.730, 90.766 116.069, 90.027 117.450 C 89.256 118.890, 89.198 120.390, 89.846 122.094 C 90.419 123.602, 90.459 126.392, 89.945 129.055 C 89.473 131.500, 89.068 136.278, 89.044 139.673 C 89.007 144.832, 88.571 146.356, 86.389 148.949 C 84.058 151.720, 83.906 152.359, 84.970 154.927 C 87.275 160.493, 93 163.845, 93 159.629 C 93 158.940, 93.900 156.513, 95 154.236 C 96.100 151.959, 97 148.808, 97 147.232 C 97 142.870, 99.054 132.659, 100.215 131.250 C 100.931 130.381, 100.871 129.550, 100.019 128.523 C 99.148 127.473, 98.997 125.011, 99.497 120.027 L 100.202 113.009 104.351 113.641 C 112.114 114.824, 113.072 117.667, 107 121.500 C 103.869 123.476, 103 124.641, 103 126.858 C 103 130.330, 106.175 133.449, 108.967 132.719 C 111.322 132.103, 111.230 131.602, 111.050 144 C 110.923 152.683, 110.707 153.672, 108.537 155.500 C 105.032 158.453, 96.326 164.583, 89.500 168.904 C 86.200 170.993, 81.025 174.285, 78 176.219 C 74.975 178.153, 71.375 180.085, 70 180.512 C 68.625 180.939, 65.925 182.442, 64 183.853 C 62.075 185.265, 60.333 186.529, 60.130 186.663 C 59.926 186.797, 60.058 188.497, 60.423 190.441 C 61.334 195.295, 64.412 196.901, 67.409 194.086 C 68.630 192.939, 70.795 192, 72.220 192 C 73.645 192, 76.634 190.538, 78.862 188.750 C 90.773 179.196, 94 177.851, 94 182.441 C 94 183.784, 93.592 185.134, 93.092 185.443 C 92.593 185.751, 91.383 188.590, 90.403 191.752 C 89.423 194.913, 86.794 199.894, 84.560 202.821 C 82.327 205.747, 79.375 209.653, 78 211.501 C 74.143 216.685, 71.642 217.704, 67.734 215.684 C 65.955 214.764, 63.721 213.455, 62.769 212.773 C 61.354 211.760, 60.737 211.835, 59.391 213.181 C 57.180 215.391, 58.795 220.115, 62.958 223.618 C 64.631 225.026, 66 226.983, 66 227.966 C 66 228.950, 66.710 230.344, 67.578 231.065 C 68.926 232.184, 69.505 231.929, 71.548 229.318 C 72.864 227.637, 75.191 225.993, 76.720 225.664 C 78.587 225.262, 80.924 223.145, 83.834 219.221 C 86.218 216.006, 89.030 212.838, 90.084 212.180 C 91.138 211.521, 92 210.382, 92 209.647 C 92 208.911, 92.900 207.495, 94 206.500 C 95.100 205.505, 96 203.667, 96 202.417 C 96 199.732, 102.755 188, 104.301 188 C 106.242 188, 114.428 192.309, 118.894 195.682 C 121.310 197.507, 123.843 199, 124.521 199 C 125.200 199, 126.281 199.634, 126.924 200.408 C 127.566 201.182, 129.670 202.564, 131.598 203.479 C 133.526 204.394, 135.519 206.236, 136.027 207.572 C 136.674 209.274, 137.719 210, 139.522 210 C 141.316 210, 142.601 210.886, 143.776 212.932 C 145.837 216.524, 151.411 218.018, 153.808 215.621 C 155.172 214.257, 155.036 213.649, 152.504 209.799 C 147.707 202.501, 144.383 199.506, 134.589 193.655 C 132.890 192.640, 130.600 191.010, 129.500 190.034 C 124.640 185.718, 116.812 181, 114.510 181 C 111.819 181, 108 177.864, 108 175.655 C 108 174.915, 108.900 173.495, 110 172.500 C 111.100 171.505, 112 170.292, 112 169.805 C 112 168.570, 116.093 162.923, 118.500 160.836 C 119.600 159.882, 123.314 157.661, 126.753 155.900 C 130.192 154.139, 133.567 152.021, 134.253 151.194 C 134.939 150.367, 136.963 149.079, 138.750 148.332 C 141.478 147.191, 142.024 146.413, 142.150 143.487 C 142.233 141.569, 142.345 139.438, 142.400 138.750 C 142.465 137.931, 140.947 137.471, 138 137.417 C 134.153 137.346, 132.863 137.891, 129.109 141.167 C 126.693 143.276, 123.662 145, 122.370 145 C 120.034 145, 120.025 144.953, 120.595 135.750 C 120.910 130.662, 121.401 125.825, 121.685 125 C 121.969 124.175, 122.308 112.925, 122.437 100 C 122.676 76.166, 124.059 64.298, 126.715 63.279 C 127.412 63.012, 129.595 60.595, 131.567 57.908 L 135.153 53.024 133.008 50.012 C 130.398 46.345, 128.268 46.164, 127 49.500 C 126.477 50.875, 125.320 52, 124.429 52 C 122.993 52, 122.888 50.820, 123.509 41.708 L 124.210 31.417 121.558 30.208 C 117.615 28.412, 116.056 28.721, 114.995 31.512 M 195.727 52 C 194.329 53.100, 192.391 54, 191.421 54 C 190.451 54, 188.947 54.629, 188.079 55.398 C 185.711 57.496, 175.163 63, 173.511 63 C 172.230 63, 167.326 64.859, 162.962 66.998 C 162.115 67.413, 159.577 68.065, 157.321 68.446 C 151.992 69.346, 148.653 72.768, 149.563 76.396 C 150.519 80.205, 153.061 81.246, 158.210 79.938 C 165.460 78.096, 166.234 78.229, 167.285 81.500 C 168.857 86.398, 168.350 116.436, 166.550 125 C 165.683 129.125, 164.499 135.200, 163.919 138.500 C 163.339 141.800, 162.475 145.400, 162 146.500 C 161.525 147.600, 160.908 149.850, 160.630 151.500 C 159.522 158.058, 158.265 162.640, 156.789 165.500 C 155.938 167.150, 154.903 170.068, 154.489 171.985 C 154.076 173.902, 153.084 176.468, 152.286 177.686 C 150.479 180.444, 151.368 183.540, 154.568 185.637 C 157.463 187.533, 160 186.811, 160 184.090 C 160 183.006, 160.450 181.840, 161 181.500 C 161.550 181.160, 162 180.145, 162 179.245 C 162 178.344, 163.165 175.927, 164.589 173.872 C 166.455 171.179, 167.327 168.373, 167.715 163.818 C 168.086 159.459, 168.873 156.818, 170.253 155.301 C 171.489 153.942, 172 152.443, 171.592 151.378 C 171.023 149.898, 171.578 145.606, 173.531 136.361 C 173.782 135.168, 175.019 133.961, 176.322 133.634 C 177.609 133.311, 181.005 130.529, 183.869 127.453 C 186.732 124.376, 189.621 122.040, 190.288 122.263 C 191.424 122.641, 191.730 133.057, 191.117 150.500 C 191.021 153.250, 191.206 163.297, 191.529 172.828 C 191.930 184.660, 191.771 190.571, 191.028 191.466 C 190.288 192.358, 190.255 193.530, 190.925 195.138 C 191.466 196.437, 192.388 210.775, 192.974 227 C 194.523 269.856, 195.022 280.200, 195.673 283 C 195.993 284.375, 196.165 287.856, 196.056 290.736 C 195.750 298.774, 196.427 300, 201.174 300 L 205.212 300 204.437 290.750 C 203.497 279.528, 203.375 276.834, 202.446 246.775 C 201.866 227.979, 201.982 222.726, 203.007 221.491 C 203.948 220.358, 204.024 219.326, 203.284 217.716 C 200.039 210.645, 198.666 189.109, 201.202 185.048 C 202.109 183.596, 202.126 182.555, 201.272 180.812 C 200.246 178.718, 200.219 145.473, 201.221 119.188 L 201.500 111.876 207 106.876 C 210.025 104.126, 214.172 100.311, 216.217 98.398 C 218.261 96.485, 221.298 94.443, 222.967 93.862 C 225.762 92.887, 226 92.437, 226 88.125 C 226 83.582, 223.938 79, 221.894 79 C 221.348 79, 215.933 83.745, 209.860 89.545 C 203.787 95.345, 197.148 101.144, 195.107 102.432 C 193.067 103.721, 188.618 107.836, 185.223 111.578 C 181.827 115.320, 178.748 118.081, 178.380 117.714 C 178.013 117.346, 177.792 110.398, 177.888 102.273 C 178.034 90.022, 177.717 86.306, 176.032 80.503 C 174.914 76.655, 174 73.404, 174 73.278 C 174 72.772, 182.981 69, 184.195 68.995 C 186.428 68.987, 196.380 64.569, 198.862 62.484 C 203.362 58.702, 204 57.846, 204 55.584 C 204 53.294, 201.231 50, 199.306 50 C 198.736 50, 197.126 50.900, 195.727 52 M 44.460 68.683 C 43.086 70.057, 42.886 71.570, 43.370 76.933 C 45.344 98.794, 45.347 100.940, 43.413 104.532 C 42.386 106.439, 41.042 108, 40.428 108 C 39.813 108, 38.479 108.918, 37.464 110.040 C 35.460 112.254, 24.570 117.861, 19.108 119.491 C 14.738 120.795, 13.543 122.714, 14.897 126.250 C 15.779 128.553, 16.542 129, 19.589 129 C 21.590 129, 24.864 128.173, 26.864 127.161 C 28.864 126.150, 32.300 124.496, 34.500 123.485 C 36.700 122.475, 39.481 120.521, 40.681 119.144 C 42.472 117.088, 43.128 116.861, 44.353 117.878 C 45.477 118.811, 45.720 120.515, 45.339 124.808 C 45.061 127.938, 44.562 131.175, 44.229 132 C 43.897 132.825, 43.503 137.100, 43.354 141.500 C 43.205 145.900, 42.912 152.162, 42.702 155.415 L 42.322 161.330 32.791 170.415 C 27.548 175.412, 22.348 180.242, 21.235 181.150 C 20.122 182.057, 18.827 183.430, 18.356 184.201 C 17.885 184.973, 15.491 187.155, 13.035 189.052 C 10.579 190.948, 7.654 193.335, 6.535 194.355 C 5.416 195.375, 3.488 196.889, 2.250 197.720 C 0.299 199.029, 0 200.101, 0 205.789 L 0 212.349 2.314 210.174 C 3.587 208.978, 4.957 208, 5.358 208 C 5.759 208, 8.791 205.750, 12.096 203 C 15.400 200.250, 18.500 198, 18.985 198 C 20.442 198, 32.311 185.848, 36.836 179.722 C 42.293 172.335, 43.455 172.340, 42.452 179.750 C 41.352 187.875, 41.158 191.026, 40.977 203.703 C 40.862 211.802, 40.439 215.221, 39.450 216.042 C 37.787 217.422, 32.614 216.445, 30.947 214.436 C 29.476 212.664, 27.582 212.594, 26.198 214.262 C 25.042 215.655, 29.943 220.370, 35.573 223.280 C 37.263 224.153, 39.230 225.573, 39.945 226.434 C 42.138 229.076, 47.564 228.420, 49.829 225.240 C 51.621 222.724, 51.724 221.554, 51.001 211.990 C 50.565 206.221, 49.876 200.682, 49.471 199.683 C 49.066 198.683, 49.217 196.883, 49.806 195.683 C 50.395 194.482, 51.073 187.200, 51.312 179.500 C 51.802 163.717, 52.941 159.807, 58.611 154.460 C 61.477 151.757, 61.967 150.717, 61.414 148.512 C 60.928 146.578, 61.343 145.027, 62.913 142.904 C 64.802 140.348, 64.879 139.891, 63.503 139.363 C 62.458 138.962, 60.812 140.041, 58.643 142.550 C 56.840 144.636, 54.910 146.063, 54.356 145.720 C 52.317 144.460, 55.121 110.300, 57.411 108.500 C 58.110 107.950, 60.554 105.335, 62.841 102.689 C 67.286 97.547, 68.242 93.276, 65.464 90.970 C 64.179 89.904, 63.452 90.151, 61.024 92.477 C 59.426 94.008, 57.486 95.017, 56.711 94.719 C 55.412 94.221, 52.801 82.528, 52.532 76 C 52.371 72.081, 49.185 67.069, 46.821 67.015 C 46.448 67.007, 45.386 67.757, 44.460 68.683 M 107.438 75.078 C 106.372 76.261, 104.487 77.617, 103.250 78.090 C 101.440 78.782, 101 79.725, 101 82.916 C 101 85.097, 100.495 87.194, 99.878 87.575 C 99.139 88.032, 98.973 90.115, 99.392 93.675 C 99.764 96.846, 99.590 99.897, 98.971 101.055 C 98.390 102.140, 98.209 104.597, 98.569 106.514 C 99.265 110.228, 101 111.318, 101 108.042 C 101 106.965, 103.588 103.598, 106.750 100.561 L 112.500 95.038 112.500 84.287 C 112.500 75.340, 112.238 73.485, 110.938 73.231 C 110.080 73.063, 108.505 73.894, 107.438 75.078" stroke="none" fill="black" fill-rule="evenodd"/>
</svg>