<svg xmlns="http://www.w3.org/2000/svg" width="300" height="300" viewBox="0 0 300 300" version="1.1">
	<path d="M 121.364 53.718 C 119.147 56.139, 117.007 57.477, 115.229 57.554 C 113.188 57.643, 112.374 58.287, 112 60.107 C 111.443 62.820, 103.223 72, 101.352 72 C 100.693 72, 98.851 73.096, 97.260 74.435 C 95.668 75.774, 93.201 77.162, 91.778 77.520 C 88.148 78.431, 84.766 82.319, 85.168 85.119 C 85.350 86.392, 86.666 88.085, 88.091 88.883 C 90.435 90.194, 91.110 90.125, 95.157 88.166 C 104.150 83.813, 103.792 82.698, 106.654 123.908 C 106.994 128.799, 106.749 132.100, 105.934 133.624 C 104.968 135.429, 104.962 136.249, 105.906 137.387 C 106.855 138.530, 106.780 140.459, 105.557 146.379 C 104.701 150.524, 104 155.023, 104 156.376 C 104 161.539, 103.296 162, 95.412 162 C 88.581 162, 88.001 162.166, 87.534 164.250 C 87.257 165.488, 87.378 168.075, 87.802 170 C 88.542 173.363, 88.766 173.512, 93.511 173.814 C 96.227 173.987, 98.973 174.562, 99.613 175.093 C 100.867 176.134, 100.151 180.980, 98.208 184.612 C 97.600 185.747, 97.351 187.626, 97.655 188.787 C 97.958 189.948, 97.219 193.956, 96.011 197.693 C 94.803 201.431, 93.422 206.907, 92.941 209.861 C 92.144 214.756, 92.264 215.398, 94.283 217.084 C 95.503 218.101, 97.276 218.948, 98.224 218.967 C 100.183 219.005, 103 214.220, 103 210.854 C 103 209.620, 104.194 207.364, 105.652 205.841 C 107.867 203.529, 108.095 202.819, 107.031 201.537 C 106.033 200.335, 106.011 199.387, 106.932 197.165 C 107.578 195.605, 108.138 191.023, 108.176 186.982 C 108.257 178.362, 110.158 174.096, 114.548 172.687 C 116.172 172.165, 118.287 171.053, 119.250 170.215 C 120.213 169.376, 121 169.029, 121 169.444 C 121 169.858, 122.499 169.313, 124.331 168.232 C 126.164 167.151, 129.331 165.716, 131.370 165.043 C 137.902 162.887, 137.809 162.426, 137.646 196.286 C 137.500 226.496, 137.500 226.500, 135.325 226.810 C 132.356 227.232, 130.332 222.540, 129.468 213.230 C 128.925 207.382, 128.399 205.749, 126.780 204.882 C 125.265 204.071, 124.442 204.138, 123.454 205.152 C 122.370 206.265, 122.407 207.894, 123.663 214.500 C 126.320 228.468, 126.640 229.213, 132.454 234.955 L 137.978 240.409 142.269 238.324 C 146.520 236.259, 146.564 236.184, 146.900 230.370 C 147.087 227.141, 147.208 223.825, 147.169 223 C 146.490 208.603, 146.487 204.022, 147.158 201.578 C 147.665 199.726, 147.545 198.157, 146.829 197.294 C 145.982 196.273, 146.031 195.311, 147.025 193.454 C 148.495 190.706, 148.523 189.927, 147.808 171.761 L 147.306 159.023 153.403 153.186 C 156.756 149.975, 160.738 146.543, 162.250 145.559 C 163.762 144.575, 165 143.126, 165 142.338 C 165 141.551, 166.282 140.171, 167.849 139.272 C 169.417 138.372, 171.219 136.257, 171.855 134.572 C 172.850 131.936, 172.726 131.121, 170.968 128.743 L 168.924 125.978 172.079 122.051 C 173.922 119.757, 175.593 116.205, 176.097 113.511 C 176.571 110.974, 177.643 108.214, 178.479 107.378 C 180.341 105.516, 180.360 104.801, 178.660 100.718 C 177.146 97.082, 176.623 81.228, 177.946 79.087 C 178.456 78.262, 180.597 77.648, 183.156 77.593 L 187.500 77.500 187.261 81 C 187.129 82.925, 186.738 88.404, 186.392 93.177 C 185.777 101.646, 185.827 101.918, 188.457 104.548 C 190.719 106.810, 191.771 107.160, 195.004 106.726 C 197.284 106.420, 200.531 104.864, 202.958 102.914 C 206.993 99.671, 214 90.233, 214 88.041 C 214 87.424, 214.900 85.156, 216 83 C 219.131 76.862, 218.676 73.740, 214.196 70.636 C 208.074 66.393, 203.300 67.476, 206.513 72.379 C 207.571 73.994, 207.753 75.035, 207.054 75.466 C 206.474 75.825, 206 77.156, 206 78.424 C 206 81.169, 202.447 86, 200.427 86 C 198.898 86, 198.385 81.567, 198.886 72.670 C 199.140 68.166, 198.881 67.577, 195.037 63.920 C 189.749 58.890, 186.308 58.692, 183.516 63.256 C 182.424 65.040, 181.299 68.075, 181.016 70 C 180.629 72.625, 179.959 73.577, 178.336 73.808 C 175.375 74.230, 174.643 71.384, 175.926 64.444 C 176.908 59.132, 176.821 58.632, 174.364 55.410 C 168.835 48.161, 160.746 53.397, 165.240 61.316 C 166.604 63.720, 166.751 66.075, 166.999 89.500 C 167.136 102.351, 166.860 106.090, 165.597 108.500 C 164.733 110.150, 164.286 112.320, 164.603 113.322 C 164.930 114.354, 164.434 115.967, 163.458 117.046 C 162.168 118.472, 161.892 119.921, 162.356 122.828 C 162.949 126.533, 162.753 126.895, 157.988 130.913 C 155.245 133.226, 153 135.537, 153 136.048 C 153 137.445, 149.716 141, 148.426 141 C 147.317 141, 145.994 131.313, 145.353 118.500 C 144.814 107.730, 143.181 96.574, 141.596 92.833 C 139.907 88.847, 135.327 85, 132.270 85 C 129.086 85, 122 94.528, 122 98.809 C 122 99.949, 121.550 101.160, 121 101.500 C 119.451 102.457, 119.820 106.606, 121.584 108.070 C 123.690 109.818, 125.827 108.418, 128.286 103.680 C 130.301 99.799, 132.007 99.099, 133.899 101.378 C 134.678 102.316, 134.741 103.552, 134.097 105.245 C 133.533 106.729, 133.501 109.288, 134.019 111.583 C 134.593 114.131, 134.517 115.877, 133.793 116.750 C 133.010 117.693, 133.004 118.699, 133.770 120.284 C 135.626 124.123, 136.061 131.534, 134.552 133.598 C 133.212 135.431, 133.134 135.431, 131.090 133.582 C 129.941 132.541, 129 130.651, 129 129.380 C 129 126.387, 125.918 124.700, 122.690 125.928 C 120.757 126.663, 120.103 127.830, 119.547 131.538 C 118.762 136.768, 120.646 144.922, 122.832 145.764 C 123.594 146.058, 126.089 144.078, 128.660 141.139 C 131.132 138.312, 133.757 136, 134.492 136 C 135.436 136, 135.948 137.984, 136.234 142.750 C 136.630 149.374, 136.574 149.558, 133.216 152.586 C 129.541 155.901, 116.915 160.565, 114.317 159.568 C 113.262 159.163, 112.975 158.267, 113.411 156.738 C 113.761 155.507, 114.484 147.750, 115.016 139.500 C 115.549 131.250, 116.474 122.401, 117.071 119.836 C 117.972 115.973, 117.887 114.757, 116.580 112.762 C 115.522 111.148, 114.820 106.972, 114.453 100.118 C 114.152 94.488, 113.477 88.755, 112.953 87.376 C 110.816 81.755, 111.723 78.414, 116.538 74.175 C 119.034 71.978, 122.742 69.787, 124.777 69.305 C 128.096 68.520, 128.543 68.026, 129.115 64.506 C 129.466 62.348, 130.259 60.414, 130.877 60.208 C 132.728 59.591, 132.146 54.146, 130 52 C 127.127 49.127, 125.222 49.506, 121.364 53.718 M 51.340 62.915 C 50.438 63.969, 49.120 66.519, 48.411 68.582 C 47.355 71.652, 47.358 72.803, 48.424 74.917 C 49.879 77.803, 51.094 91.055, 50.290 95.264 C 49.923 97.185, 47.871 99.343, 43.337 102.579 C 36.026 107.796, 24.364 113.953, 21.741 113.981 C 19.414 114.006, 11.681 119.654, 10.825 121.955 C 9.832 124.622, 12.619 128.001, 15.807 127.995 C 17.288 127.992, 20.300 126.881, 22.500 125.526 C 24.700 124.171, 27.514 123.048, 28.754 123.031 C 31.517 122.993, 35.973 120.658, 42.678 115.737 C 45.477 113.682, 48.720 112, 49.884 112 C 51.858 112, 51.999 112.520, 51.985 119.750 C 51.976 124.013, 51.592 128.095, 51.131 128.822 C 50.630 129.613, 51.100 132.479, 52.300 135.951 C 53.603 139.722, 54.013 142.414, 53.468 143.629 C 52.172 146.523, 52.013 152.270, 53.165 154.625 C 54.232 156.807, 52.588 159.828, 44.746 170.094 C 43.235 172.071, 42 174.038, 42 174.464 C 42 176.058, 24.446 195.324, 21.027 197.483 C 19.071 198.718, 16.838 200.490, 16.065 201.422 C 15.292 202.353, 13.155 203.744, 11.316 204.513 C 7.229 206.220, 6.392 208.118, 8.007 212.018 C 9.013 214.445, 9.836 215, 12.430 215 C 14.183 215, 16.491 214.339, 17.559 213.532 C 18.626 212.724, 20.175 212.039, 21 212.009 C 23.870 211.903, 38 196.750, 38 193.777 C 38 193.040, 40.250 190.078, 43 187.195 C 45.750 184.312, 48 181.389, 48 180.699 C 48 180.009, 48.716 178.423, 49.590 177.175 C 50.777 175.480, 51.508 175.176, 52.471 175.976 C 53.463 176.799, 53.700 181.617, 53.496 196.774 C 53.193 219.294, 52.356 227.926, 50.400 228.677 C 48.950 229.233, 42 225.377, 42 224.015 C 42 222.857, 28.245 216, 25.920 216 C 22.938 216, 23.649 217.860, 27.500 220.133 C 29.600 221.371, 31 222.979, 31 224.150 C 31 225.423, 32.177 226.594, 34.383 227.515 C 36.500 228.400, 37.995 229.843, 38.379 231.373 C 38.796 233.034, 40.518 234.537, 43.746 236.060 C 49.150 238.608, 53 241.752, 53 243.615 C 53 245.979, 55.139 246.218, 57.388 244.105 C 58.621 242.947, 60.612 242, 61.814 242 C 63.943 242, 64.643 240.442, 64.062 237 C 63.922 236.175, 63.666 228.975, 63.493 221 C 63.320 213.025, 62.931 202.900, 62.628 198.500 C 61.782 186.191, 61.901 165.179, 62.828 163.238 C 63.284 162.282, 64.720 159.475, 66.018 157 C 68.706 151.874, 69.509 143, 67.284 143 C 65.462 143, 64 138.767, 64 133.494 C 64 131.087, 63.628 128.888, 63.174 128.607 C 62.176 127.991, 62.420 107.920, 63.486 103 C 64.497 98.329, 66.824 95.840, 69.838 96.204 C 72.261 96.497, 72.283 96.425, 72.391 87.664 C 72.491 79.524, 72.314 78.677, 70.146 76.919 C 67.370 74.669, 66 75.198, 66 78.520 C 66 80.770, 62.613 85, 60.811 85 C 60.365 85, 60 82.552, 60 79.559 C 60 76.566, 59.550 73.840, 59 73.500 C 58.450 73.160, 58 71.209, 58 69.163 C 58 65.479, 55.769 61, 53.934 61 C 53.409 61, 52.242 61.862, 51.340 62.915 M 201.395 127.978 C 199.543 128.726, 195.059 132.725, 179.785 147.250 C 177.616 149.313, 175.233 151, 174.489 151 C 173.745 151, 172.157 152.375, 170.961 154.055 C 169.764 155.736, 167.095 158.178, 165.028 159.482 C 160.406 162.400, 159.536 165.141, 162.169 168.488 C 164.432 171.365, 167.155 171.723, 169.084 169.399 C 169.815 168.518, 172.683 166.326, 175.457 164.529 C 178.230 162.731, 184.769 156.702, 189.987 151.130 C 199.661 140.801, 203 138.846, 203 143.514 C 203 145.898, 202.616 146.948, 199.808 152.250 C 198.709 154.326, 197.754 158.730, 196.348 168.212 C 196.045 170.253, 195.168 172.446, 194.399 173.084 C 193.629 173.723, 193 175.513, 193 177.063 C 193 178.614, 192.550 180.160, 192 180.500 C 191.450 180.840, 191 182.216, 191 183.559 C 191 187.399, 188.825 186.516, 181 179.500 C 173.642 172.902, 170.982 171.869, 166.934 174.035 C 164.325 175.432, 164.495 178.612, 167.324 181.295 C 173.890 187.523, 178.198 191, 179.347 191 C 181.140 191, 186 196.276, 186 198.222 C 186 199.109, 185.172 201.784, 184.160 204.167 C 183.148 206.550, 182.030 209.983, 181.676 211.796 C 181.321 213.609, 179.899 216.576, 178.516 218.390 C 177.132 220.205, 176 222.897, 176 224.373 C 176 225.986, 173.806 230.261, 170.500 235.088 C 167.475 239.505, 165 244.060, 165 245.210 C 165 247.792, 156.529 256, 153.864 256 C 151.411 256, 150.340 258.713, 151.842 261.119 C 152.479 262.139, 153 263.674, 153 264.532 C 153 265.787, 153.731 265.959, 156.750 265.415 C 158.813 265.043, 161.034 264.317, 161.686 263.800 C 162.438 263.205, 163.649 263.277, 164.992 263.995 C 168.121 265.670, 169.199 264.865, 169.585 260.561 C 169.775 258.439, 170.782 255.757, 171.822 254.601 C 174.217 251.940, 177 246.222, 177 243.961 C 177 243.009, 178.125 241.493, 179.500 240.592 C 180.875 239.691, 182 238.029, 182 236.899 C 182 235.769, 183.575 231.569, 185.500 227.567 C 187.425 223.565, 189.014 219.662, 189.032 218.895 C 189.049 218.128, 189.724 216.626, 190.532 215.559 C 191.339 214.491, 192 212.432, 192 210.983 C 192 207.759, 196.018 203.686, 198.324 204.571 C 199.224 204.916, 200.905 206.729, 202.061 208.599 C 203.217 210.470, 204.651 212, 205.247 212 C 205.843 212, 209.293 214.740, 212.915 218.090 C 216.537 221.439, 223.039 227.402, 227.364 231.340 C 237.426 240.501, 239.131 242.215, 241.189 245.235 C 242.118 246.599, 244.452 248.461, 246.377 249.375 C 248.302 250.288, 250.126 251.815, 250.431 252.768 C 250.919 254.290, 258.991 262.430, 274.121 276.655 C 276.663 279.045, 279.198 281, 279.755 281 C 281.361 281, 288.054 288.885, 289.611 292.610 C 291.141 296.274, 293.089 296.828, 297.453 294.839 C 299.656 293.835, 300 293.045, 300 288.979 L 300 284.278 288.250 274.937 C 281.788 269.800, 274.828 263.903, 272.784 261.832 C 270.741 259.762, 267.253 256.922, 265.034 255.522 C 262.815 254.121, 261 252.490, 261 251.897 C 261 251.304, 258.825 248.722, 256.166 246.160 C 253.508 243.597, 251.145 241.050, 250.916 240.500 C 250.687 239.950, 248.700 237.953, 246.500 236.062 C 244.300 234.171, 242.038 231.696, 241.473 230.562 C 240.908 229.428, 238.433 227.148, 235.973 225.496 C 233.513 223.845, 226.100 217.213, 219.500 210.760 C 212.900 204.308, 207.119 199.022, 206.654 199.014 C 206.189 199.006, 204.502 198.069, 202.904 196.932 C 199.561 194.551, 199.134 191.172, 201.588 186.500 C 204.063 181.786, 205.966 175.775, 206.021 172.500 C 206.048 170.850, 206.714 168.375, 207.500 167 C 208.286 165.625, 208.945 163.272, 208.965 161.771 C 208.984 160.270, 210.152 155.612, 211.559 151.419 C 213.644 145.208, 213.991 142.779, 213.433 138.313 C 212.818 133.390, 212.337 132.533, 208.724 129.915 C 204.322 126.726, 204.424 126.753, 201.395 127.978 M 130.055 174.861 C 128.409 175.964, 125.466 176.500, 121.055 176.500 L 114.500 176.500 114.204 180.512 C 113.984 183.500, 114.756 186.155, 117.230 190.919 C 121.637 199.403, 122.886 200.112, 127.144 196.546 C 132.864 191.755, 133.986 189.259, 133.993 181.309 C 133.997 177.354, 133.662 173.917, 133.250 173.670 C 132.838 173.424, 131.400 173.960, 130.055 174.861" stroke="none" fill="black" fill-rule="evenodd"/>
</svg>