<svg xmlns="http://www.w3.org/2000/svg" width="300" height="300" viewBox="0 0 300 300" version="1.1">
	<path d="M 141.500 35.879 C 138.064 38.023, 120.783 55.668, 119.173 58.676 C 118.584 59.776, 118.354 61.638, 118.661 62.813 C 119.036 64.246, 118.347 65.987, 116.569 68.101 C 115.110 69.834, 114.085 71.758, 114.290 72.376 C 114.495 72.994, 117.365 74.233, 120.669 75.128 C 129.055 77.401, 131 78.616, 131 81.585 C 131 87.327, 126.382 91.914, 123.450 89.083 C 121.836 87.524, 104.424 81, 101.892 81.005 C 100.577 81.008, 98.248 82.020, 96.718 83.255 C 94.145 85.331, 94.047 85.659, 95.425 87.608 C 96.403 88.992, 98.468 89.929, 101.436 90.336 C 103.922 90.677, 106.754 91.367, 107.728 91.870 C 108.703 92.373, 110.625 93.280, 112 93.885 C 113.375 94.490, 115.175 95.412, 116 95.933 C 116.825 96.454, 118.688 97.129, 120.140 97.432 C 123.512 98.136, 124.300 100.239, 122.502 103.734 C 121.720 105.255, 120.830 107.729, 120.525 109.232 C 120.220 110.734, 118.628 113.493, 116.986 115.364 C 115.343 117.234, 114 119.431, 114 120.247 C 114 121.063, 113.167 122.803, 112.149 124.115 C 111.131 125.427, 110.119 127.031, 109.899 127.681 C 109.360 129.276, 103.660 136.198, 97.148 143.168 C 92.515 148.126, 91.238 148.936, 87.648 149.197 C 83.769 149.480, 83.480 149.712, 83.186 152.763 C 82.939 155.322, 83.544 156.698, 85.992 159.146 L 89.113 162.267 92.442 158.634 C 94.272 156.635, 96.549 155, 97.502 155 C 99.247 155, 104.641 149.914, 108.687 144.452 C 119.860 129.371, 121.963 126.354, 121.980 125.372 C 121.991 124.752, 122.656 123.701, 123.457 123.035 C 124.259 122.370, 126.746 118.490, 128.983 114.413 C 131.253 110.277, 133.718 107, 134.558 107 C 137.605 107, 143.457 110.148, 148.068 114.268 C 150.672 116.596, 155.549 120.750, 158.905 123.500 C 162.260 126.250, 166.242 129.558, 167.753 130.851 C 169.264 132.144, 171.683 133.814, 173.129 134.564 C 174.575 135.313, 176.023 136.618, 176.347 137.463 C 176.672 138.308, 177.645 139, 178.511 139 C 181.125 139, 206.997 161.969, 207.003 164.295 C 207.004 164.958, 208.725 167.495, 210.828 169.932 L 214.650 174.365 218.325 171.432 C 220.346 169.820, 222 167.972, 222 167.327 C 222 165.456, 210.025 151.327, 206.890 149.500 C 205.947 148.950, 203.671 147.150, 201.833 145.500 C 197.320 141.449, 180.133 128, 179.470 128 C 178.661 128, 166.022 117.188, 161.447 112.581 C 156.733 107.834, 149.625 102.560, 143.099 98.969 C 139.060 96.746, 138.535 96.076, 138.785 93.469 C 138.942 91.836, 139.266 89.938, 139.504 89.250 C 140.020 87.762, 144.617 87.570, 145.500 89 C 145.840 89.550, 147.216 90, 148.559 90 C 150.590 90, 151 89.509, 151 87.077 C 151 85.418, 149.919 82.869, 148.500 81.182 C 145.908 78.102, 145.234 73.407, 146.928 70.236 C 148.453 67.382, 150.722 58.871, 151.523 53 C 153.109 41.370, 153.001 40.380, 149.773 37.079 C 146.258 33.484, 145.512 33.376, 141.500 35.879 M 131.588 58.911 C 125.027 65.541, 124.839 67.372, 130.605 68.454 C 133.822 69.057, 134.623 68.826, 136.101 66.867 C 137.052 65.605, 138.053 62.982, 138.325 61.037 C 138.597 59.091, 138.972 56.648, 139.160 55.608 C 139.812 51.978, 137.412 53.026, 131.588 58.911 M 50.223 72.557 C 48.723 73.607, 47.995 75.152, 47.985 77.307 C 47.976 79.063, 47.560 81.147, 47.060 81.938 C 46.467 82.875, 46.646 84.084, 47.575 85.410 C 48.459 86.673, 49 89.952, 49 94.055 C 49 100.548, 48.930 100.721, 45.059 103.833 C 42.891 105.575, 40.471 107, 39.681 107 C 38.891 107, 37.685 107.675, 37 108.500 C 36.315 109.325, 35.319 110, 34.785 110 C 34.252 110, 32.632 110.931, 31.185 112.069 C 29.256 113.586, 27.715 113.981, 25.411 113.549 C 20.338 112.598, 19 113.641, 19 118.548 C 19 123.485, 19.378 123.889, 24.086 123.985 C 29.668 124.098, 34.414 122.830, 35.807 120.854 C 36.525 119.834, 37.762 119, 38.554 119 C 39.346 119, 41.792 117.376, 43.990 115.390 C 48.739 111.100, 51.282 111.340, 50.352 115.990 C 50.015 117.677, 50.233 121.631, 50.837 124.778 C 51.441 127.925, 52.122 138.292, 52.352 147.816 L 52.769 165.131 47.635 170.587 C 44.811 173.588, 40.495 177.946, 38.044 180.272 C 35.593 182.597, 30.644 187.650, 27.045 191.500 C 16.997 202.249, 12.764 206.410, 9.603 208.643 C 7.208 210.335, 6.822 211.155, 7.378 213.370 C 8.120 216.326, 11.335 220, 13.180 220 C 13.828 220, 16.416 217.702, 18.930 214.894 C 21.443 212.086, 28.337 204.922, 34.250 198.974 C 40.162 193.027, 45 187.531, 45 186.761 C 45 185.334, 49.369 181, 50.807 181 C 52.109 181, 54.115 187.673, 53.565 190.175 C 53.285 191.454, 52.841 198.449, 52.579 205.720 C 52.317 212.991, 51.629 219.824, 51.051 220.904 C 50.473 221.985, 50 224.193, 50 225.812 C 50 231.199, 48.014 231.348, 40.946 226.492 C 33.910 221.659, 30 220.747, 30 223.940 C 30 226.385, 48.002 245, 50.367 245 C 51.322 245, 53.886 243.987, 56.063 242.750 C 59.676 240.697, 59.961 240.237, 59.318 237.500 C 58.482 233.941, 58.565 232.413, 60.024 224.500 C 60.632 221.200, 61.363 207.475, 61.649 194 C 62.018 176.563, 62.527 169.068, 63.414 168 C 66.818 163.907, 69.999 156.667, 71.053 150.619 C 71.697 146.919, 71.968 143.635, 71.655 143.322 C 70.465 142.132, 67.779 144.124, 66.693 147.002 C 66.019 148.787, 64.841 150, 63.781 150 C 62.236 150, 61.984 148.971, 61.882 142.250 C 61.816 137.988, 61.809 134.185, 61.865 133.799 C 61.921 133.414, 61.502 130.714, 60.933 127.799 C 60.364 124.885, 59.892 119.125, 59.884 115 C 59.866 105.418, 61.668 101.621, 67.605 98.737 C 70.266 97.444, 72 95.923, 72 94.883 C 72 93.937, 72.241 92.535, 72.536 91.767 C 73.423 89.455, 68.493 85, 65.048 85 C 62.463 85, 62 85.380, 62 87.500 C 62 89.379, 61.474 90, 59.883 90 C 58.078 90, 57.866 89.596, 58.441 87.250 C 60.359 79.424, 60.107 76.953, 57.081 73.927 C 53.702 70.549, 53.226 70.453, 50.223 72.557 M 122.912 134.606 C 122.076 135.613, 121.641 138.462, 121.746 142.241 C 121.933 149.008, 120.708 152.053, 116.007 156.500 L 112.836 159.500 110.545 156.643 C 108.593 154.209, 107.791 153.887, 105.127 154.472 C 103.407 154.850, 101.994 155.686, 101.986 156.329 C 101.979 156.973, 101.722 158.434, 101.415 159.576 C 101 161.121, 102.091 162.914, 105.679 166.587 C 108.667 169.645, 112.174 174.940, 114.901 180.511 C 117.322 185.455, 120.072 190.400, 121.013 191.500 C 123.322 194.199, 124.116 197.914, 122.879 200.226 C 122.220 201.458, 122.203 202.546, 122.830 203.314 C 124.067 204.828, 122.617 214.263, 120.420 219 C 114.732 231.263, 113.246 233.557, 109.931 235.202 C 108.044 236.138, 105.557 236.926, 104.405 236.952 C 100.917 237.032, 98.836 240.260, 99.188 245.046 C 99.632 251.096, 101.821 252.195, 107.274 249.106 C 117.069 243.557, 124.374 240, 125.977 240 C 126.919 240, 128.467 239.141, 129.417 238.091 C 130.367 237.042, 132.391 235.667, 133.914 235.036 C 135.440 234.403, 137.424 232.333, 138.336 230.422 C 139.245 228.515, 141.018 226.563, 142.276 226.085 C 145.378 224.906, 159.345 211.228, 161.257 207.498 C 162.103 205.846, 163.768 203.615, 164.956 202.540 C 167.856 199.915, 169.757 201.161, 173.241 207.968 C 174.749 210.913, 176.661 214.073, 177.491 214.990 C 178.321 215.907, 179 217.608, 179 218.770 C 179 219.931, 179.391 221.123, 179.868 221.419 C 180.704 221.935, 182.516 231.583, 182.113 233.375 C 182.005 233.856, 182.710 235.127, 183.680 236.199 C 184.650 237.270, 186.035 240.251, 186.758 242.823 C 187.481 245.396, 188.536 249.075, 189.104 251 C 189.671 252.925, 190.592 256.733, 191.151 259.462 C 191.710 262.191, 192.761 265.571, 193.487 266.975 C 194.213 268.378, 195.132 271.770, 195.529 274.513 C 195.927 277.256, 196.594 279.950, 197.011 280.500 C 197.998 281.802, 200.065 290.342, 200.701 295.750 L 201.201 300 206.232 300 L 211.263 300 210.636 296.250 C 210.291 294.188, 209.526 290.250, 208.935 287.500 C 208.345 284.750, 207.882 281.173, 207.906 279.551 C 207.931 277.930, 207.260 275.839, 206.415 274.906 C 205.570 273.973, 203.745 268.775, 202.358 263.355 C 200.971 257.935, 199.387 251.925, 198.836 250 C 198.286 248.075, 197.586 245.150, 197.280 243.500 C 196.975 241.850, 196.112 239.612, 195.363 238.527 C 194.613 237.443, 194 235.295, 194 233.756 C 194 232.217, 192.823 229.178, 191.384 227.003 C 189.944 224.829, 189.014 222.406, 189.316 221.619 C 190.114 219.540, 185.346 206.142, 182.464 202.363 C 181.109 200.587, 180 198.610, 180 197.971 C 180 197.332, 179.360 195.614, 178.578 194.154 C 177.797 192.694, 176.908 190.706, 176.604 189.735 C 176.300 188.764, 174.958 187.554, 173.623 187.047 C 172.287 186.539, 170.882 185.618, 170.500 185 C 168.639 181.988, 162 181.681, 162 184.607 C 162 185.373, 161.550 186, 161 186 C 160.450 186, 160 187.351, 160 189.003 C 160 190.655, 158.762 193.926, 157.250 196.274 C 154.301 200.851, 143.949 210.975, 140.250 212.900 C 139.012 213.543, 138 214.617, 138 215.285 C 138 216.972, 131.200 222.241, 129.988 221.493 C 128.699 220.696, 128.708 215.299, 130 214.500 C 130.550 214.160, 131 212.529, 131 210.875 C 131 209.222, 131.497 206.941, 132.104 205.806 C 133.306 203.560, 134.739 195.568, 135.444 187.177 C 135.931 181.386, 138.899 174.307, 142.025 171.477 C 143.111 170.494, 144 169.269, 144 168.755 C 144 168.241, 144.949 167.052, 146.109 166.112 C 148.468 164.203, 150.962 157.909, 150.985 153.809 C 150.993 152.329, 151.450 150.840, 152 150.500 C 152.550 150.160, 153 147.035, 153 143.556 C 153 137.894, 152.735 137.056, 150.474 135.575 C 146.824 133.184, 141.743 134.462, 136.353 139.128 C 130.765 143.963, 129.570 144.039, 130.304 139.511 C 130.763 136.689, 130.459 135.734, 128.713 134.511 C 125.957 132.581, 124.574 132.604, 122.912 134.606 M 135.835 150.946 C 133.551 153.436, 133.248 154.469, 133.712 158.176 C 134.009 160.554, 134.607 162.888, 135.039 163.363 C 136.377 164.831, 138 163.023, 138 160.063 C 138 158.513, 138.698 156.666, 139.551 155.958 C 141.235 154.560, 141.197 148.868, 139.500 148.347 C 138.950 148.179, 137.301 149.348, 135.835 150.946 M 121.200 162.200 C 120.540 162.860, 120 165.073, 120 167.118 C 120 175.546, 123.086 176.476, 124.972 168.617 C 125.682 165.657, 125.952 162.732, 125.573 162.117 C 124.670 160.658, 122.705 160.695, 121.200 162.200" stroke="none" fill="black" fill-rule="evenodd"/>
</svg>