<svg xmlns="http://www.w3.org/2000/svg" width="300" height="300" viewBox="0 0 300 300" version="1.1">
	<path d="M 142.636 25.636 C 141.186 27.086, 140 29.224, 140 30.387 C 140 32.716, 137.738 43.458, 136.060 49.100 C 135.057 52.470, 127.657 61, 125.736 61 C 125.258 61, 123.434 62.043, 121.683 63.318 C 118.627 65.543, 113.833 67.970, 105.693 71.412 C 102.044 72.955, 101.899 73.197, 102.193 77.261 C 102.500 81.496, 102.504 81.500, 106.861 81.813 C 110.072 82.043, 112.645 81.406, 116.613 79.398 C 119.578 77.898, 122.261 76.928, 122.576 77.242 C 123.543 78.209, 120.238 83.622, 117.036 86.316 C 115.366 87.721, 114 89.490, 114 90.247 C 114 91.004, 112.713 92.575, 111.140 93.739 C 108.527 95.670, 108.320 96.273, 108.746 100.707 C 109.165 105.073, 108.900 105.895, 106.110 108.882 C 104.404 110.709, 103.275 112.636, 103.602 113.165 C 103.929 113.693, 103.531 114.885, 102.719 115.813 C 101.906 116.741, 100.459 119.043, 99.502 120.929 C 97.454 124.968, 91.255 133.400, 87.587 137.135 C 84.650 140.126, 84.115 144, 86.640 144 C 87.542 144, 88.815 143.268, 89.469 142.373 C 90.405 141.093, 91.090 140.978, 92.685 141.832 C 94.363 142.729, 95.080 142.493, 96.849 140.458 C 99.247 137.701, 102 137.205, 102 139.530 C 102 140.371, 104.250 143.370, 107 146.193 C 110.568 149.856, 112 152.122, 112 154.104 C 112 155.632, 112.400 157.129, 112.890 157.432 C 113.712 157.940, 114.511 161.463, 115.342 168.243 C 115.526 169.752, 116.436 171.824, 117.363 172.849 C 118.290 173.873, 118.782 175.404, 118.457 176.252 C 118.100 177.181, 118.720 178.391, 120.019 179.301 C 121.744 180.509, 121.967 181.193, 121.141 182.737 C 120.573 183.797, 119.410 185.245, 118.555 185.955 C 116.440 187.710, 116.601 190.329, 118.954 192.459 C 120.582 193.932, 121.433 194.045, 124.044 193.134 C 125.769 192.533, 128.059 190.924, 129.133 189.558 C 130.207 188.192, 132.455 186.100, 134.129 184.908 C 136.851 182.970, 137.331 182.902, 138.692 184.263 C 140.549 186.120, 143.167 195.877, 143.451 202 C 143.566 204.475, 144.396 209.650, 145.295 213.500 C 146.195 217.350, 146.901 221.625, 146.864 223 C 146.827 224.375, 147.332 227.525, 147.986 230 C 148.643 232.486, 148.995 238.127, 148.774 242.605 C 148.457 249.029, 147.920 251.286, 146.187 253.490 C 144.984 255.019, 144 256.859, 144 257.578 C 144 259.397, 140.024 262, 137.246 262 C 133.569 262, 133.224 264.961, 136.582 267.702 C 139.037 269.705, 140.214 269.988, 144 269.485 C 150.732 268.589, 151.832 268.104, 152.595 265.699 C 152.978 264.489, 154.384 261.771, 155.717 259.657 C 157.051 257.543, 157.892 255.162, 157.586 254.365 C 157.003 252.845, 158.626 244.709, 160.091 241.807 C 160.630 240.739, 160.379 238.759, 159.412 236.443 C 158.459 234.162, 157.884 229.735, 157.895 224.752 C 157.906 219.783, 157.378 215.698, 156.506 214.012 C 155.733 212.516, 154.599 207.289, 153.987 202.396 C 153.375 197.503, 152.340 190.350, 151.687 186.500 C 151.034 182.650, 150.508 176.729, 150.518 173.342 C 150.535 167.297, 150.631 167.083, 155.768 161.652 C 159.118 158.110, 161 155.248, 161 153.695 C 161 152.361, 161.851 150.188, 162.891 148.866 C 165.752 145.228, 167.284 138.927, 166.647 133.418 C 165.372 122.406, 164.641 119.392, 162.373 115.799 C 159.758 111.656, 156.771 110.445, 151.571 111.421 C 147.868 112.115, 146.614 111.241, 148.031 108.952 C 149.329 106.857, 165.528 107.470, 169 109.746 C 171.416 111.330, 175.543 112.339, 185 113.660 C 187.494 114.009, 190.760 115.339, 192.327 116.645 C 193.881 117.940, 195.534 119, 196 119 C 196.466 119, 198.222 120.157, 199.903 121.572 C 201.716 123.098, 203.884 124.013, 205.230 123.822 C 207.136 123.552, 207.550 122.798, 207.814 119.127 C 208.080 115.407, 207.697 114.333, 205.253 111.943 C 203.672 110.398, 201.136 108.821, 199.617 108.440 C 198.024 108.040, 196.472 106.742, 195.952 105.373 C 195.131 103.214, 194.468 103, 188.590 103 C 185.037 103, 180.863 102.485, 179.315 101.855 C 177.767 101.225, 174.475 100.363, 172 99.938 C 160.599 97.983, 156.775 96.213, 158.727 93.792 C 159.300 93.082, 160.092 90.925, 160.486 89 C 160.881 87.075, 162.693 83.925, 164.513 82 C 166.333 80.075, 168.626 76.700, 169.608 74.500 C 170.591 72.300, 171.553 70.209, 171.746 69.854 C 172.311 68.815, 167.412 64, 165.790 64 C 163.744 64, 161.247 66.974, 159.860 71.065 C 159.219 72.954, 157.863 75.694, 156.847 77.154 C 155.831 78.614, 155 80.472, 155 81.282 C 155 82.092, 154.325 83.315, 153.500 84 C 152.675 84.685, 152 86.178, 152 87.318 C 152 91.709, 144.335 96.969, 142.429 93.885 C 141.460 92.318, 133.169 93.403, 131.220 95.352 C 128.830 97.741, 130.977 101.621, 135.186 102.522 C 139.775 103.504, 141.090 104.795, 140.380 107.622 C 140.014 109.082, 140.437 111.017, 141.465 112.588 C 143.142 115.147, 143.121 115.193, 137.374 121.330 C 134.197 124.724, 130.845 128.252, 129.925 129.172 C 128.109 130.986, 126.529 137.429, 127.511 139.017 C 127.845 139.558, 129.184 140, 130.488 140 C 132.908 140, 137.218 136.382, 142.539 129.884 C 146.454 125.102, 152.067 123.830, 154.422 127.192 C 158.164 132.534, 154.954 141.265, 151 136.500 C 150.315 135.675, 148.926 135, 147.912 135 C 145.405 135, 137.879 139.892, 131.867 145.431 C 129.138 147.944, 126.047 150, 124.996 150 C 122.957 150, 118.893 145.454, 115.475 139.348 C 113.164 135.220, 109.552 133.628, 104.250 134.401 C 102.463 134.661, 101 134.489, 101 134.019 C 101 131.878, 102.362 130, 103.914 130 C 105.784 130, 112 121.855, 112 119.405 C 112 116.630, 113.877 114.276, 119.054 110.557 C 123.990 107.010, 124.136 106.766, 123.516 103.096 C 122.849 99.145, 125.392 92.580, 128.631 89.891 C 130.448 88.383, 133.505 82.833, 133.171 81.647 C 133.039 81.177, 134.072 78.847, 135.466 76.469 C 136.859 74.090, 138 71.630, 138 71.002 C 138 70.374, 139.350 67.898, 141 65.500 C 142.650 63.102, 144 60.781, 144 60.342 C 144 59.903, 147.320 56.159, 151.379 52.022 C 155.437 47.885, 159.923 42.459, 161.348 39.964 L 163.939 35.429 161.984 32.214 C 159.640 28.360, 157.369 28.097, 155.818 31.500 C 155.192 32.875, 153.851 34, 152.839 34 C 151.366 34, 151 33.219, 151 30.071 C 151 26.129, 149.037 23, 146.565 23 C 145.854 23, 144.086 24.186, 142.636 25.636 M 56.667 60.667 C 56.300 61.033, 56 63.433, 56 66 C 56 68.566, 55.483 73.240, 54.852 76.385 C 53.987 80.690, 53.987 82.387, 54.852 83.252 C 55.502 83.902, 56 87.498, 56 91.540 L 56 98.679 49.826 103.590 C 43.370 108.724, 34.460 114, 32.245 114 C 30.505 114, 28.750 118.866, 29.464 121.711 C 29.905 123.469, 30.744 124, 33.081 124 C 38.797 124, 45.940 120.945, 48.707 117.317 C 50.819 114.549, 51.893 113.954, 54.342 114.198 C 56.739 114.437, 57.531 115.114, 58.153 117.456 C 58.721 119.598, 58.506 120.889, 57.371 122.143 C 56.509 123.095, 56.075 124.312, 56.406 124.848 C 56.737 125.383, 57.219 127.999, 57.478 130.661 C 57.737 133.322, 58.218 137.152, 58.549 139.171 C 59.204 143.175, 57.800 146.149, 52.739 151.488 C 49.629 154.768, 43 166.074, 43 168.098 C 43 168.798, 41.291 171.425, 39.202 173.936 C 37.113 176.446, 34.326 180.075, 33.008 182 C 30.614 185.498, 18.403 197.735, 11.436 203.617 C 8.081 206.450, 7.834 206.996, 8.722 209.617 L 9.699 212.500 17.415 212.154 C 23.182 211.895, 25.556 212.181, 26.815 213.286 C 27.742 214.098, 29.625 215.095, 31 215.500 C 32.375 215.905, 34.175 216.792, 35 217.472 C 37.099 219.200, 43.046 222, 44.618 222 C 45.340 222, 46.411 222.900, 47 224 C 47.589 225.100, 48.718 226, 49.510 226 C 50.301 226, 51.592 227.238, 52.379 228.750 C 53.166 230.263, 54.940 232.555, 56.321 233.845 C 58.661 236.031, 59.081 236.100, 62.512 234.860 C 66.764 233.322, 69.761 228.876, 67.698 227.165 C 66.734 226.364, 66.504 217.969, 66.690 190.314 C 66.938 153.191, 67.300 146.896, 69.309 144.755 C 72.404 141.458, 75.787 135.608, 75.313 134.374 C 75.009 133.581, 73.346 133, 71.381 133 C 67.987 133, 67.978 132.987, 68.596 129.126 C 68.937 126.995, 68.807 124.999, 68.309 124.691 C 67.398 124.128, 67.484 120.978, 68.794 106.920 C 69.343 101.028, 70.074 98.578, 72.078 95.920 C 78.171 87.836, 79.465 82.140, 75.793 79.568 C 73.740 78.130, 73.405 78.195, 70.989 80.511 C 69.560 81.880, 67.914 83, 67.332 83 C 66.709 83, 65.981 78.992, 65.561 73.250 C 64.800 62.843, 63.502 60, 59.512 60 C 58.314 60, 57.033 60.300, 56.667 60.667 M 140.243 154.169 C 137.084 157.562, 132.813 162.044, 130.750 164.129 C 128.053 166.855, 127 168.783, 127 170.991 C 127 175.940, 129.536 175.857, 134.300 170.754 C 141.810 162.711, 150 151.826, 150 149.891 C 150 146.183, 146.074 147.905, 140.243 154.169 M 54.260 165.250 C 53.719 165.938, 52.988 167.707, 52.636 169.182 C 52.284 170.658, 50.084 174.659, 47.748 178.073 C 45.412 181.488, 42.825 185.288, 42 186.517 C 40.351 188.975, 36.017 194.471, 31.750 199.514 C 30.237 201.301, 29 203.119, 29 203.553 C 29 203.987, 28.314 205.101, 27.475 206.028 C 25.539 208.167, 26.720 209.150, 33.180 210.777 C 35.754 211.425, 41.311 213.571, 45.530 215.546 C 49.749 217.521, 53.782 218.914, 54.494 218.641 C 56.058 218.040, 57.314 208.325, 56.866 200.286 C 56.688 197.104, 56.900 193.933, 57.336 193.241 C 57.772 192.549, 57.794 190.974, 57.383 189.741 C 56.973 188.508, 56.760 182.213, 56.910 175.750 C 57.172 164.428, 56.623 162.251, 54.260 165.250 M 179.243 213.903 C 174.549 215.741, 170.438 219.282, 171.329 220.723 C 171.643 221.231, 176.619 221.536, 182.387 221.399 C 191.314 221.188, 193.442 221.454, 196.687 223.182 C 198.784 224.298, 201.850 225.518, 203.500 225.892 C 205.761 226.404, 206.575 227.209, 206.804 229.160 C 206.972 230.584, 206.409 232.448, 205.554 233.303 C 204.699 234.158, 204 235.198, 204 235.614 C 204 236.030, 203.026 237.407, 201.836 238.674 C 199.679 240.970, 199.679 240.988, 201.586 244.571 C 204.039 249.178, 204.534 249.440, 207.221 247.558 C 208.444 246.701, 210.972 246, 212.839 246 C 216.002 246, 216.197 245.813, 215.708 243.250 C 215.418 241.738, 215.816 238.983, 216.591 237.128 C 218.446 232.689, 218.382 226.512, 216.451 223.565 C 214.646 220.811, 207.718 216, 205.556 216 C 204.739 216, 202.142 215.373, 199.785 214.606 C 192.716 212.307, 184.078 212.012, 179.243 213.903 M 99.949 219.843 C 98.160 221.293, 97.860 222.876, 97.549 232.500 C 97.115 245.926, 97.554 248.478, 100.645 250.503 C 104.002 252.703, 107.639 250.789, 110.737 245.193 C 113.618 239.990, 113.454 235.636, 110.362 235.195 C 108.433 234.920, 108.220 234.254, 108.186 228.387 C 108.166 224.811, 107.651 221.284, 107.042 220.550 C 105.239 218.378, 102.136 218.069, 99.949 219.843" stroke="none" fill="black" fill-rule="evenodd"/>
</svg>