<svg xmlns="http://www.w3.org/2000/svg" width="300" height="300" viewBox="0 0 300 300" version="1.1">
	<path d="M 89.557 13.223 C 87.205 16.580, 87.686 19.096, 91.519 23.489 C 94.325 26.704, 95 28.305, 95 31.739 C 95 34.083, 94.606 36, 94.125 36 C 93.644 36, 92.991 37.296, 92.674 38.879 C 92.254 40.982, 91.343 41.942, 89.299 42.440 C 87.760 42.815, 84.844 44.205, 82.820 45.529 C 80.796 46.853, 76.971 48.467, 74.320 49.116 C 71.669 49.764, 67.813 51.138, 65.750 52.168 C 62.744 53.669, 62 54.601, 62 56.865 C 62 58.419, 62.823 60.435, 63.829 61.345 C 65.846 63.170, 70.530 63.570, 71.500 62 C 72.420 60.512, 76.706 60.791, 77.315 62.379 C 77.606 63.137, 77.486 65.343, 77.049 67.281 C 76.207 71.016, 77.915 82.693, 80.247 89.134 C 82.221 94.589, 83.892 96.145, 87.403 95.801 C 90.105 95.536, 90.550 95.047, 91.081 91.753 C 91.413 89.693, 92.430 87.182, 93.342 86.175 C 94.254 85.167, 95 83.507, 95 82.486 C 95 81.464, 95.827 79.700, 96.837 78.564 C 98.806 76.351, 105 61.345, 105 58.787 C 105 57.939, 105.675 56.685, 106.500 56 C 108.577 54.276, 108.375 51.649, 106 49.500 C 103.065 46.844, 103.529 45.281, 107.915 43.043 C 110.738 41.603, 112.157 40.053, 113.005 37.484 C 114.576 32.724, 112.969 30.596, 108.445 31.444 C 105.398 32.016, 105.236 31.881, 104.640 28.271 C 104.298 26.197, 103.339 23.211, 102.509 21.636 C 101.679 20.060, 101 18.285, 101 17.690 C 101 15.693, 95.648 11, 93.370 11 C 92.129 11, 90.413 12, 89.557 13.223 M 91.885 51.830 C 90.573 52.836, 88.713 53.947, 87.750 54.298 C 86.242 54.849, 86 56.325, 86 64.969 C 86 72.871, 86.295 75, 87.392 75 C 88.157 75, 89.090 73.763, 89.466 72.250 C 89.841 70.737, 90.959 68.600, 91.951 67.500 C 92.942 66.400, 94.072 63.716, 94.462 61.535 C 94.852 59.354, 95.826 56.303, 96.627 54.755 C 99.048 50.072, 96.347 48.406, 91.885 51.830 M 118.073 89.986 C 107.961 91.549, 90.101 99.310, 78.620 107.132 C 66.405 115.453, 62.818 117.761, 58.500 120.083 C 56.300 121.265, 53.825 122.814, 53 123.525 C 52.175 124.235, 47.047 127.154, 41.604 130.010 L 31.708 135.204 27.604 132.947 C 21.989 129.858, 14.461 124.437, 8.642 119.294 C 5.970 116.932, 2.932 115, 1.892 115 C 0.253 115, 0 115.777, 0 120.815 C 0 126.364, 0.148 126.706, 3.250 128.309 C 5.038 129.232, 7.357 130.553, 8.405 131.244 C 9.452 131.935, 12.542 133.930, 15.271 135.677 C 18 137.425, 21.074 140.237, 22.102 141.927 C 23.748 144.634, 24.513 145, 28.525 145 C 32.812 145, 35.450 143.970, 43.500 139.154 C 45.150 138.166, 48.975 136.045, 52 134.440 C 55.025 132.834, 59.255 130.278, 61.400 128.760 C 63.545 127.242, 65.741 126, 66.281 126 C 66.820 126, 69.353 124.537, 71.909 122.750 C 74.465 120.963, 78.708 118.375, 81.337 117 C 83.967 115.625, 88.229 112.743, 90.809 110.596 C 93.389 108.449, 98.875 105.179, 103 103.330 C 107.125 101.480, 111.774 99.299, 113.331 98.483 C 116.225 96.967, 121.164 96.498, 122.298 97.631 C 122.645 97.979, 122.452 99.156, 121.867 100.248 C 120.397 102.995, 122.914 105.489, 126.299 104.640 C 132.456 103.095, 137.887 94.459, 134.704 91.276 C 132.832 89.403, 125.516 88.836, 118.073 89.986 M 80.759 121.250 C 78.764 122.786, 77.326 131.465, 78.904 132.441 C 80.321 133.316, 80.308 139.893, 78.878 145.571 C 77.596 150.660, 73.935 154.247, 67.008 157.201 C 62.404 159.164, 51.497 164.271, 47 166.569 C 42.737 168.747, 40.740 172.185, 41.926 175.305 C 42.508 176.837, 43.716 177.999, 44.725 177.997 C 47.452 177.991, 60.630 172.370, 67.032 168.481 C 70.183 166.566, 73.327 165, 74.018 165 C 76.242 165, 74.043 177.641, 69.930 188.500 C 61.982 209.487, 54.062 223.969, 46.267 231.772 C 40.536 237.508, 40.058 238.838, 42.829 241.345 C 45.435 243.703, 48.738 243.392, 51.295 240.547 C 56.340 234.936, 59.550 230.487, 61.176 226.855 C 62.126 224.735, 63.334 223, 63.862 223 C 64.390 223, 65.762 220.975, 66.911 218.500 C 68.060 216.025, 69.946 211.963, 71.102 209.473 C 72.260 206.981, 74.395 204.323, 75.852 203.562 C 77.309 202.801, 80.236 199.888, 82.358 197.089 C 84.479 194.290, 86.620 192, 87.114 192 C 87.609 192, 88.983 190.884, 90.169 189.521 C 91.355 188.157, 94.389 186.310, 96.912 185.415 C 99.436 184.520, 102.490 183.322, 103.700 182.752 C 105.288 182.004, 106.816 182.079, 109.200 183.023 C 116.716 185.999, 119.016 190.403, 118.964 201.718 C 118.915 212.529, 114.948 226.818, 108.033 241.094 C 106.365 244.537, 105 247.886, 105 248.535 C 105 250.049, 98.280 263.002, 96.416 265.079 C 95.637 265.947, 95 267.169, 95 267.794 C 95 268.995, 91.890 271, 90.026 271 C 88.667 271, 81.030 262.905, 81.012 261.446 C 81.006 260.867, 79.376 258.842, 77.391 256.946 C 75.406 255.051, 72.700 251.813, 71.378 249.750 C 69.728 247.175, 68.244 246, 66.642 246 C 64.196 246, 61 248.777, 61 250.904 C 61 251.589, 64.235 255.715, 68.190 260.074 C 72.144 264.432, 75.934 269.317, 76.613 270.930 C 77.291 272.543, 80.018 276.177, 82.673 279.006 C 87.281 283.915, 87.680 284.120, 91.478 283.526 C 95.852 282.842, 99.093 279.624, 104.540 270.559 C 108.464 264.027, 117 246.504, 117 244.978 C 117 244.331, 117.721 242.159, 118.602 240.151 C 121.694 233.105, 123.044 229.268, 124.814 222.500 C 125.390 220.300, 126.629 215.849, 127.568 212.608 C 128.873 208.105, 129.150 204.448, 128.745 197.089 C 128.153 186.353, 126.832 183.444, 119.621 177 C 115.909 173.682, 115.269 173.482, 107.333 173.147 C 96.954 172.708, 95.431 173.086, 89.921 177.466 C 84.927 181.436, 82.539 182.029, 83.479 179.066 C 83.817 178.002, 84.223 174.281, 84.381 170.798 C 84.834 160.836, 86.830 158.089, 96.946 153.501 C 102.362 151.045, 107 147.084, 107 144.914 C 107 141.983, 104.048 138, 101.876 138 C 100.835 138, 98.119 139.350, 95.841 141 C 89.603 145.519, 87.625 144.747, 89.926 138.694 C 90.877 136.194, 89.274 123.722, 87.685 121.250 C 87.243 120.563, 85.870 120, 84.632 120 C 83.395 120, 81.652 120.563, 80.759 121.250" stroke="none" fill="black" fill-rule="evenodd"/>
</svg>