<svg xmlns="http://www.w3.org/2000/svg" width="300" height="300" viewBox="0 0 300 300" version="1.1">
	<path d="M 107.438 61.454 C 106.169 63.391, 105.976 65.258, 106.519 70.329 C 107.197 76.668, 107.170 76.769, 104.353 78.191 C 102.784 78.984, 100.600 80.143, 99.500 80.768 C 96.119 82.687, 90.836 84.828, 83 87.455 C 75.250 90.052, 72.716 92.107, 73.212 95.391 C 73.692 98.568, 76.482 99.650, 80.225 98.109 C 82.026 97.368, 86.417 96.115, 89.982 95.326 C 93.547 94.537, 97.166 93.255, 98.025 92.477 C 98.884 91.700, 101.135 90.937, 103.027 90.782 C 106.455 90.501, 106.468 90.516, 106.661 95 C 106.768 97.475, 106.207 103.775, 105.416 109 C 104.624 114.225, 103.752 120.894, 103.477 123.821 C 103.203 126.747, 102.374 130.347, 101.636 131.821 C 100.898 133.294, 99.665 136.689, 98.897 139.365 C 97.535 144.106, 96.371 145.442, 88.037 151.826 C 84.290 154.696, 84.222 156.243, 87.723 158.997 C 90.937 161.525, 96.201 161.046, 99.564 157.919 C 100.700 156.864, 102.084 156, 102.640 156 C 103.196 156, 104.708 154.875, 106 153.500 C 107.292 152.125, 108.716 151, 109.166 151 C 109.615 151, 111.959 149.492, 114.374 147.648 C 118.596 144.426, 127.184 141.378, 128.956 142.473 C 129.981 143.106, 129.113 151.102, 127.874 152.450 C 127.393 152.973, 126.999 154.098, 126.997 154.950 C 126.996 155.803, 125.421 159.110, 123.497 162.300 C 121.574 165.490, 120 168.598, 120 169.206 C 120 169.814, 118.954 171.704, 117.676 173.406 C 116.398 175.108, 115.063 177.287, 114.708 178.250 C 113.633 181.166, 110.568 180.256, 102.855 174.731 C 98.810 171.832, 92.009 167.716, 87.742 165.582 C 80.215 161.819, 79.926 161.757, 77.992 163.507 C 76.897 164.499, 76 166.080, 76 167.020 C 76 169.724, 79.754 173.787, 82.889 174.476 C 84.464 174.822, 87.246 176.206, 89.071 177.552 C 90.896 178.899, 92.803 180, 93.309 180 C 95.229 180, 105.943 188.574, 105.971 190.132 C 105.987 191.030, 100.713 197.133, 94.250 203.695 C 83.689 214.418, 80.581 217.146, 75.102 220.500 C 74.204 221.050, 71.858 222.738, 69.890 224.250 C 67.838 225.827, 65.046 227, 63.347 227 C 61.716 227, 59.526 227.626, 58.479 228.392 C 53.853 231.774, 64.114 235.544, 69.860 232.573 C 71.532 231.708, 73.991 231, 75.324 231 C 78.577 231, 86.725 226.350, 88.667 223.385 C 89.527 222.073, 90.741 221, 91.365 221 C 92.633 221, 111 202.853, 111 201.600 C 111 200.285, 117.102 195, 118.622 195 C 119.397 195, 122.814 197.025, 126.216 199.500 C 129.617 201.975, 132.984 204, 133.697 204 C 134.936 204, 141.868 208.661, 152.347 216.539 C 155.014 218.544, 158.649 220.791, 160.427 221.534 C 162.205 222.277, 164.276 223.628, 165.031 224.537 C 165.785 225.446, 168.449 227.211, 170.951 228.461 C 173.453 229.710, 178.200 232.137, 181.500 233.854 C 184.800 235.570, 188.048 236.980, 188.717 236.987 C 189.386 236.994, 191.508 238.575, 193.433 240.500 C 195.358 242.425, 197.793 244, 198.844 244 C 199.895 244, 201.315 244.675, 202 245.500 C 202.685 246.325, 204.020 247, 204.967 247 C 205.915 247, 207.546 247.946, 208.593 249.102 C 209.639 250.259, 211.734 251.845, 213.248 252.628 C 214.761 253.411, 216 254.688, 216 255.467 C 216 257.539, 217.873 258.351, 219.513 256.989 C 220.639 256.055, 221.498 256.246, 223.604 257.903 C 226.910 260.504, 230.163 260.583, 232.394 258.118 C 234.414 255.885, 233.648 251.157, 231.121 250.267 C 230.230 249.953, 228.825 249.151, 228 248.485 C 227.175 247.819, 221.860 245.167, 216.189 242.591 C 210.517 240.016, 203.714 236.354, 201.069 234.454 C 198.425 232.554, 195.484 231, 194.535 231 C 192.423 231, 187.941 228.566, 182.106 224.250 C 179.690 222.462, 176.932 221, 175.979 221 C 175.025 221, 173.685 220.325, 173 219.500 C 172.315 218.675, 171.422 218, 171.014 218 C 170.321 218, 162.771 213.023, 151.402 205.071 C 141.589 198.207, 136.523 195, 135.496 195 C 134.689 195, 125.234 188.459, 123.126 186.443 C 122.920 186.246, 123.932 184.681, 125.376 182.966 C 126.819 181.250, 128 178.811, 128 177.546 C 128 176.280, 128.658 174.699, 129.461 174.032 C 130.265 173.365, 131.231 171.848, 131.607 170.660 C 131.984 169.472, 133.267 166.925, 134.458 165 C 135.650 163.075, 137.211 158.800, 137.927 155.500 C 138.644 152.200, 139.635 148.123, 140.129 146.441 C 140.701 144.496, 140.642 142.272, 139.967 140.334 C 139.382 138.658, 138.979 136.885, 139.071 136.393 C 139.506 134.052, 138.747 132.816, 135.750 130.989 C 131.937 128.664, 126.307 128.453, 123.559 130.532 C 122.491 131.339, 120.899 132, 120.021 132 C 119.143 132, 116.866 133.332, 114.962 134.959 C 110.454 138.813, 108.542 138.914, 109.444 135.250 C 109.816 133.738, 110.375 131.150, 110.686 129.500 C 110.997 127.850, 111.584 126.050, 111.991 125.500 C 112.728 124.505, 113.298 119.749, 115.016 100.280 C 115.511 94.660, 116.597 88.746, 117.428 87.138 C 118.841 84.407, 123.918 79.939, 128.504 77.391 C 129.602 76.781, 130.463 75.544, 130.417 74.641 C 130.371 73.738, 130.258 71.366, 130.167 69.369 C 130.002 65.776, 129.963 65.744, 126.376 66.326 C 124.383 66.650, 121.925 67.663, 120.913 68.579 C 118.092 71.131, 115.690 69.687, 116.515 65.934 C 117.840 59.897, 110.751 56.398, 107.438 61.454" stroke="none" fill="black" fill-rule="evenodd"/>
</svg>