<svg xmlns="http://www.w3.org/2000/svg" width="300" height="300" viewBox="0 0 300 300" version="1.1">
	<path d="M 124.034 69.464 C 121.932 71.701, 121.817 72.321, 122.785 76.214 C 125.225 86.038, 126.341 96.195, 126.212 107.418 C 126.137 113.972, 125.675 119.597, 125.186 119.918 C 124.696 120.238, 123.501 122.190, 122.531 124.257 C 120.370 128.855, 121.611 131, 126.431 131 C 129.011 131, 130.175 130.224, 132.558 126.917 C 134.176 124.671, 137.141 120.872, 139.147 118.475 C 141.154 116.077, 142.981 113.558, 143.207 112.878 C 143.444 112.169, 144.342 111.917, 145.310 112.289 C 146.634 112.797, 147.047 114.407, 147.218 119.719 C 147.570 130.636, 147.141 139.121, 146.175 140.354 C 145.681 140.984, 144.985 143.728, 144.630 146.452 C 144.274 149.175, 143.141 153.225, 142.112 155.452 C 141.083 157.678, 139.972 160.298, 139.643 161.273 C 138.633 164.269, 136.150 164.381, 132.732 161.584 C 125.361 155.553, 115.043 148, 114.176 148 C 113.664 148, 112.734 147.385, 112.110 146.633 C 111.487 145.881, 108.547 144.502, 105.578 143.568 C 101.039 142.141, 99.843 142.080, 98.058 143.185 C 94.843 145.177, 95.944 148.042, 101.035 150.928 C 103.529 152.343, 108.929 155.862, 113.035 158.749 C 117.141 161.635, 122.750 165.551, 125.500 167.449 C 128.250 169.348, 131.063 171.392, 131.750 171.990 C 133.606 173.606, 133.264 177.451, 131.090 179.419 C 130.039 180.369, 128.909 182.227, 128.577 183.548 C 128.246 184.868, 126.856 187.598, 125.487 189.614 C 124.119 191.630, 123 193.720, 123 194.259 C 123 195.951, 115.923 207.112, 108.478 217.160 C 101.787 226.192, 90.990 237, 88.659 237 C 88.092 237, 86.657 236.087, 85.470 234.972 C 84.149 233.731, 82.654 233.195, 81.620 233.592 C 80.038 234.199, 80.037 234.407, 81.594 236.784 C 82.511 238.183, 84.817 240.884, 86.720 242.787 C 89.945 246.012, 90.493 246.204, 94.775 245.617 C 100.306 244.859, 103.627 242.837, 105.846 238.875 C 106.756 237.251, 108.963 234.308, 110.750 232.335 C 112.537 230.363, 114 228.211, 114 227.554 C 114 226.897, 115.575 224.520, 117.500 222.271 C 119.425 220.022, 121 217.643, 121 216.984 C 121 215.905, 125.771 209.320, 131.012 203.165 C 132.105 201.881, 133 199.722, 133 198.367 C 133 197.012, 134.575 193.442, 136.500 190.433 C 138.425 187.423, 140 184.536, 140 184.016 C 140 183.496, 140.900 182.589, 142 182 C 144.387 180.723, 147.408 182.025, 149.012 185.023 C 149.594 186.110, 150.697 187, 151.463 187 C 152.228 187, 153.675 188.012, 154.677 189.250 C 155.680 190.488, 158.300 192.842, 160.500 194.482 C 164.614 197.548, 199.178 231.857, 211.311 244.918 C 215.058 248.950, 220.560 254.234, 223.538 256.661 C 226.517 259.087, 230.301 263.031, 231.948 265.425 C 233.595 267.819, 236.643 271.636, 238.721 273.908 C 240.800 276.180, 243.850 279.676, 245.500 281.677 C 252.399 290.044, 255.946 291.705, 261.066 288.965 C 265.115 286.798, 263.386 283.742, 251.750 272.499 C 245.563 266.521, 240.050 260.654, 239.500 259.462 C 238.950 258.270, 235.350 254.680, 231.500 251.485 C 227.650 248.290, 221.800 242.772, 218.500 239.223 C 202.346 221.849, 163.255 183.493, 158.677 180.526 C 155.830 178.680, 151.932 175.837, 150.015 174.207 C 146.892 171.552, 146.651 170.999, 147.688 168.873 C 148.324 167.568, 149.095 165.336, 149.400 163.912 C 149.706 162.489, 150.979 160.030, 152.228 158.448 C 154.530 155.532, 157.195 141.682, 157.221 132.500 C 157.256 120.061, 156.762 111.971, 155.937 111.461 C 155.422 111.143, 155 109.399, 155 107.587 C 155 103.968, 155.649 103.170, 166.846 93.007 C 174.278 86.262, 175.468 83.611, 172.429 80.571 C 170.120 78.263, 168.973 78.579, 163.623 83 C 160.960 85.200, 158.235 87, 157.565 87 C 156.896 87, 155.258 88.171, 153.924 89.601 C 152.591 91.032, 148.439 94.924, 144.699 98.250 C 137.065 105.037, 135.640 104.954, 135.308 97.698 C 134.800 86.634, 134.441 83.107, 133.750 82.416 C 133.338 82.004, 133 79.600, 133 77.073 C 133 73.539, 132.414 71.847, 130.460 69.740 C 127.351 66.387, 126.941 66.369, 124.034 69.464 M 80 114.345 C 80 117.974, 73.712 122.453, 64.120 125.654 C 58.914 127.392, 54 131.500, 54 134.116 C 54 135.073, 54.744 136.601, 55.654 137.511 C 57.517 139.374, 61.972 138.948, 66.708 136.455 C 69.292 135.094, 69.630 135.142, 71.250 137.103 C 72.362 138.449, 73 140.916, 73 143.867 C 73 146.423, 73.488 150.085, 74.085 152.007 C 74.682 153.928, 75.157 161.322, 75.141 168.439 C 75.118 178.657, 74.757 182.021, 73.426 184.439 C 71.748 187.484, 63.770 194.315, 59 196.789 C 55.466 198.623, 54 200.894, 54 204.536 C 54 209.790, 59.519 213.093, 64 210.521 C 65.375 209.732, 67.625 208.589, 69 207.982 C 72.430 206.467, 77.998 200.948, 78.009 199.054 C 78.014 198.199, 80.714 194.710, 84.009 191.299 C 87.304 187.889, 90 184.652, 90 184.106 C 90 183.560, 91.252 182.374, 92.781 181.470 C 95.696 179.749, 97.841 176.665, 101.634 168.747 L 103.911 163.995 101.767 161.997 C 99.447 159.836, 98 159.437, 98 160.957 C 98 162.297, 86.826 174, 85.547 173.999 C 84.883 173.999, 84.455 169.663, 84.378 162.159 C 84.295 154.135, 83.811 149.543, 82.878 147.910 C 82.025 146.418, 81.500 142.470, 81.500 137.549 L 81.500 129.599 85 127.266 C 90.985 123.276, 91.680 122.402, 92.388 117.976 C 93.279 112.405, 92.185 111.300, 87.275 112.809 C 84.868 113.549, 83.379 113.613, 83.167 112.985 C 82.487 110.978, 80 112.047, 80 114.345" stroke="none" fill="black" fill-rule="evenodd"/>
</svg>