<svg xmlns="http://www.w3.org/2000/svg" width="300" height="300" viewBox="0 0 300 300" version="1.1">
	<path d="M 62.082 54.368 C 60.937 56.220, 60 57.993, 60 58.306 C 60 58.620, 61.311 60.312, 62.913 62.065 C 66.094 65.549, 66.695 67.744, 67.551 79 C 67.865 83.125, 68.333 87.235, 68.591 88.133 C 68.903 89.220, 67.860 90.475, 65.473 91.883 C 63.500 93.047, 61.456 94, 60.932 94 C 60.407 94, 58.071 94.866, 55.739 95.924 C 53.408 96.983, 49.925 98.158, 48 98.536 C 43.861 99.348, 41 101.615, 41 104.082 C 41 106.454, 45.932 110.254, 47.932 109.422 C 48.794 109.064, 50.930 108.637, 52.679 108.474 C 54.427 108.311, 57.127 107.500, 58.679 106.673 C 60.230 105.845, 63.354 104.282, 65.621 103.198 C 67.887 102.114, 70.052 100.726, 70.430 100.113 C 70.808 99.501, 72.638 99, 74.495 99 C 77.263 99, 78.983 97.928, 84.021 93.058 C 90.752 86.554, 91.504 83.732, 86.658 83.176 C 85.105 82.997, 82.240 83.607, 80.292 84.532 C 77.355 85.926, 76.603 85.981, 75.890 84.856 C 74.588 82.801, 74.747 82.358, 78.193 78.433 C 81.041 75.190, 81.203 74.693, 79.693 73.848 C 77.179 72.441, 74.875 67.347, 75.545 64.678 C 76.116 62.401, 73.580 56.769, 70.173 52.750 C 67.767 49.911, 64.423 50.579, 62.082 54.368 M 125.574 66.919 C 124.515 68.088, 124.024 69.620, 124.396 70.591 C 124.748 71.507, 125.643 75.461, 126.385 79.378 C 128.208 89.004, 127.759 99.732, 124.586 122.316 C 124.368 123.865, 123.565 125.890, 122.802 126.816 C 122.039 127.742, 120.823 130.240, 120.100 132.366 C 118.899 135.903, 118.960 136.405, 120.829 138.273 C 122.771 140.215, 122.995 140.233, 125.435 138.634 C 126.988 137.617, 128 136.024, 128 134.596 C 128 133.073, 129.248 131.286, 131.523 129.550 C 133.461 128.072, 136.048 125.798, 137.273 124.496 C 138.498 123.194, 140.664 121.845, 142.086 121.497 L 144.672 120.866 144.726 130.183 C 144.756 135.307, 144.507 139.950, 144.174 140.500 C 143.841 141.050, 143.511 144.983, 143.440 149.240 C 143.367 153.682, 142.649 158.582, 141.755 160.740 C 140.899 162.808, 139.540 166.750, 138.735 169.500 C 136.670 176.558, 134.377 176.609, 125.589 169.796 C 117.852 163.798, 110.688 159.940, 103.766 158.045 C 99.622 156.911, 98.718 156.955, 96.516 158.398 C 92.010 161.350, 94.090 166.358, 100.566 168.146 C 102.639 168.718, 105.996 170.235, 108.027 171.517 C 110.057 172.798, 113.581 174.349, 115.859 174.962 C 118.136 175.575, 120 176.508, 120 177.035 C 120 177.562, 122.709 179.682, 126.020 181.747 C 131.661 185.264, 132 185.689, 131.409 188.500 C 131.061 190.150, 130.152 192.210, 129.389 193.079 C 128.625 193.947, 127.990 195.297, 127.978 196.079 C 127.966 196.860, 127.076 198.625, 126 200 C 124.924 201.375, 124.034 203.232, 124.022 204.128 C 124.010 205.023, 123.325 206.315, 122.500 207 C 121.675 207.685, 121 208.610, 121 209.056 C 121 210.390, 114.766 220, 113.901 220 C 113.460 220, 111.165 218.709, 108.800 217.132 C 106.435 215.555, 101.372 212.618, 97.550 210.606 C 93.727 208.594, 89.902 206.371, 89.050 205.666 C 87.165 204.108, 72.594 197, 71.285 197 C 70.770 197, 69.337 195.923, 68.100 194.606 L 65.851 192.212 69.425 187.237 C 71.580 184.238, 73 181.097, 73 179.331 C 73 177.719, 73.495 175.905, 74.100 175.300 C 74.731 174.669, 75.200 170.500, 75.200 165.521 C 75.200 157.869, 74.931 156.555, 72.926 154.421 C 68.618 149.835, 65.165 151.902, 63.936 159.803 C 63.407 163.207, 63.581 164.924, 64.568 166.040 C 67.096 168.898, 62.609 181.394, 57.830 184.807 C 56.823 185.525, 56 186.763, 56 187.557 C 56 189.503, 54.100 189.373, 48.877 187.070 C 45.777 185.703, 40.916 184.931, 32.217 184.426 C 20.270 183.732, 19.867 183.776, 17.467 186.031 C 14.342 188.967, 14.359 190.350, 17.548 192.440 C 19.280 193.575, 21.763 194.027, 25.298 193.851 C 28.426 193.696, 31.497 194.163, 33 195.022 C 34.375 195.808, 38.165 196.687, 41.421 196.976 C 44.678 197.264, 47.489 197.950, 47.667 198.500 C 48.087 199.795, 33.248 215.270, 25.516 221.600 C 22.225 224.295, 18.629 227.309, 17.526 228.298 C 16.337 229.364, 14.663 229.881, 13.415 229.568 C 12.010 229.215, 10.562 229.838, 9.056 231.441 C 7.248 233.365, 6.125 233.732, 3.400 233.290 C 0.140 232.761, -0 232.867, -0 235.869 C -0 238.759, 0.260 239, 3.375 239 C 5.231 239, 8.074 239.265, 9.693 239.589 C 11.970 240.044, 13.364 239.564, 15.853 237.471 C 18.337 235.380, 19.737 234.897, 22.003 235.351 C 23.934 235.737, 25.203 235.475, 25.718 234.584 C 26.148 233.839, 29.842 230.446, 33.927 227.043 C 38.011 223.640, 43.786 218.076, 46.758 214.678 C 56.578 203.453, 58.866 202.276, 64.846 205.376 C 68.645 207.345, 76.036 210.699, 79.250 211.912 C 80.763 212.483, 82 213.381, 82 213.908 C 82 214.434, 83.012 215.174, 84.250 215.552 C 89.315 217.097, 94.752 220.184, 99 223.926 C 103.397 227.800, 103.466 227.952, 102 230.588 C 101.175 232.072, 98.925 234.117, 97 235.132 C 95.075 236.147, 92.810 237.770, 91.968 238.739 C 91.125 239.707, 88.465 242.042, 86.057 243.926 C 81.705 247.332, 81.661 247.342, 78.674 245.628 C 76.029 244.110, 75.492 244.079, 74.198 245.374 C 72.389 247.182, 73.136 249.388, 76.248 251.427 C 78.222 252.720, 79.647 252.796, 85.052 251.896 C 88.598 251.305, 92.634 250.025, 94.019 249.051 C 95.405 248.078, 97.541 246.963, 98.767 246.574 C 99.993 246.185, 101.274 244.758, 101.614 243.403 C 102.089 241.510, 102.687 241.083, 104.192 241.561 C 105.660 242.027, 107.029 241.157, 109.654 238.091 C 113.615 233.464, 115.093 233.049, 116.513 236.168 C 118.010 239.457, 120.641 240.748, 122.750 239.230 C 123.713 238.538, 125.737 237.484, 127.250 236.888 C 129.876 235.853, 131.039 234, 129.063 234 C 127.801 234, 121.020 226.779, 121.009 225.424 C 121.004 224.833, 122.125 223.292, 123.500 222 C 124.875 220.708, 126 219.125, 126 218.481 C 126 217.837, 126.900 216.495, 128 215.500 C 129.100 214.505, 130 212.930, 130 212 C 130 211.070, 130.900 209.495, 132 208.500 C 133.100 207.505, 134 206.268, 134 205.753 C 134 205.237, 134.900 203.671, 136 202.273 C 137.100 200.874, 138 198.736, 138 197.520 C 138 196.305, 138.876 194.517, 139.946 193.549 C 141.812 191.860, 142.030 191.883, 145.196 194.079 C 152.468 199.122, 170.983 214.785, 179.500 223.097 C 196.485 239.675, 209.319 250.199, 211.520 249.354 C 212.453 248.996, 213.326 249.726, 213.961 251.398 C 214.505 252.829, 215.651 254, 216.507 254 C 217.363 254, 218.352 254.788, 218.705 255.750 C 219.058 256.713, 223.319 261.476, 228.173 266.336 C 233.028 271.197, 237 275.584, 237 276.086 C 237 277.769, 239.900 277.023, 241.961 274.811 C 245.831 270.658, 244.728 267.686, 236.371 259.747 C 232.175 255.761, 227.273 251.600, 225.478 250.500 C 219.161 246.629, 216.417 244.496, 207.500 236.524 C 202.550 232.099, 195.145 225.558, 191.044 221.989 C 186.942 218.420, 181.008 212.957, 177.855 209.848 C 174.703 206.739, 170.408 202.932, 168.312 201.388 C 166.215 199.843, 162.225 196.537, 159.445 194.040 C 156.664 191.543, 152.290 187.801, 149.725 185.725 C 145.484 182.294, 145.116 181.657, 145.674 178.725 C 146.012 176.951, 147.063 173.925, 148.010 172 C 149.897 168.165, 152.817 156.389, 153.589 149.500 C 154.303 143.133, 154.297 120.350, 153.581 117.435 C 152.873 114.556, 153.091 114.237, 157.164 112.190 C 159.549 110.991, 163.412 109.540, 165.750 108.966 C 169.354 108.082, 170 107.539, 170 105.396 C 170 104.006, 170.476 101.980, 171.057 100.894 C 172.360 98.459, 169.044 92.466, 165.830 91.446 C 163.077 90.572, 158.988 93.660, 156.763 98.293 C 155.159 101.635, 148.887 106.976, 146.518 107.018 C 145.958 107.028, 143.520 108.378, 141.100 110.018 C 135.723 113.661, 133 113.898, 133 110.723 C 133 109.470, 133.601 107.557, 134.336 106.473 C 136.206 103.712, 135.961 74.565, 134.038 71 C 133.296 69.625, 132.376 67.825, 131.992 67 C 130.931 64.715, 127.606 64.673, 125.574 66.919 M 58.739 116.750 C 57.875 117.713, 55.595 121.523, 53.674 125.219 C 51.753 128.914, 49.240 133.258, 48.090 134.873 C 46.941 136.488, 46 138.511, 46 139.369 C 46 140.227, 45.100 141.411, 44 142 C 42.900 142.589, 42 143.651, 42 144.361 C 42 145.071, 40.987 146.605, 39.750 147.771 C 32.797 154.320, 32.618 162, 39.420 162 C 41.324 162, 43.160 161.550, 43.500 161 C 43.840 160.450, 45.006 160, 46.090 160 C 47.175 160, 48.353 159.213, 48.708 158.250 C 49.063 157.287, 50.399 154.821, 51.677 152.770 C 52.955 150.718, 54 147.984, 54 146.694 C 54 145.404, 55.125 143.292, 56.500 142 C 57.875 140.708, 59 138.856, 59 137.885 C 59 136.913, 59.399 135.871, 59.887 135.570 C 60.374 135.269, 61.070 133.440, 61.433 131.507 C 61.795 129.574, 62.908 127.206, 63.905 126.246 C 66.831 123.428, 67.260 119.657, 64.939 117.165 C 62.496 114.543, 60.821 114.431, 58.739 116.750 M 81.750 124.737 C 80.237 126.317, 79 128.414, 79 129.398 C 79 130.382, 78.100 131.423, 77 131.710 C 74.723 132.306, 74.346 135.212, 76.332 136.861 C 77.320 137.681, 78.159 137.592, 79.582 136.515 C 82.192 134.540, 83.735 134.646, 86.734 137.005 C 88.613 138.484, 89.623 138.728, 90.579 137.934 C 91.374 137.275, 93.633 137.122, 96.420 137.540 C 100.673 138.178, 101.029 138.055, 101.955 135.620 C 103.223 132.283, 102.402 130.198, 99.665 129.808 C 98.209 129.601, 97.500 128.793, 97.500 127.340 C 97.500 124.452, 96.643 123.748, 92.767 123.451 C 90.970 123.313, 88.375 122.900, 87 122.533 C 85.044 122.010, 83.901 122.490, 81.750 124.737" stroke="none" fill="black" fill-rule="evenodd"/>
</svg>