<svg xmlns="http://www.w3.org/2000/svg" width="300" height="300" viewBox="0 0 300 300" version="1.1">
	<path d="M 67.223 25.750 C 65.954 28.373, 65.764 38.249, 66.925 41.303 C 67.485 42.777, 67.691 44.641, 67.382 45.447 C 66.627 47.414, 55.942 53.374, 55.046 52.328 C 53.538 50.568, 51.724 42.289, 51.898 37.962 C 52.046 34.263, 51.612 32.984, 49.550 31.047 C 47.412 29.039, 46.647 28.840, 44.616 29.765 C 42.673 30.650, 42.130 31.784, 41.781 35.680 C 41.544 38.331, 41.781 41.625, 42.308 43 C 42.835 44.375, 43.319 48.777, 43.383 52.782 L 43.500 60.064 39 62.217 C 36.525 63.401, 32.138 66.101, 29.250 68.216 C 24.683 71.563, 24 72.510, 24 75.496 C 24 80.218, 26.467 81.452, 32.002 79.499 C 34.301 78.688, 37.526 76.894, 39.168 75.512 C 40.810 74.130, 42.621 73, 43.192 73 C 44.399 73, 43.419 104.801, 41.933 113.876 C 41.426 116.969, 41.009 122.672, 41.006 126.550 C 41.003 130.427, 40.533 134.067, 39.962 134.638 C 38.383 136.217, 38.359 161.946, 39.934 164.881 C 41.110 167.075, 40.899 167.547, 37.253 170.881 C 35.076 172.872, 30.191 176.173, 26.397 178.217 C 22.604 180.261, 17.925 182.814, 16 183.891 C 14.075 184.967, 9.687 186.642, 6.250 187.613 L -0 189.379 -0 195.306 C -0 200.965, 0.102 201.206, 2.250 200.630 C 3.488 200.299, 5.882 200.021, 7.570 200.014 C 9.593 200.005, 11.980 198.855, 14.570 196.643 C 16.732 194.796, 19.625 192.934, 21 192.506 C 22.375 192.077, 24.772 190.663, 26.327 189.363 C 27.881 188.063, 30.011 187, 31.059 187 C 32.108 187, 34.211 185.890, 35.733 184.534 C 40.819 180, 48.929 174, 49.971 174 C 50.537 174, 51 174.648, 51 175.440 C 51 177.301, 46.036 186.867, 43.198 190.475 C 41.989 192.012, 41 193.806, 41 194.461 C 41 195.115, 39.875 196.708, 38.500 198 C 37.125 199.292, 36 200.749, 36 201.239 C 36 203.052, 27.437 211.999, 25.700 212 C 22.245 212, 18 214.942, 18 217.335 C 18 219.738, 19.086 221.368, 22.684 224.369 C 24.798 226.132, 24.970 226.131, 28.003 224.345 C 29.727 223.330, 32.044 221.037, 33.151 219.250 C 34.257 217.463, 35.940 216, 36.889 216 C 38.504 216, 42.114 211.757, 48 202.940 C 49.375 200.881, 51.678 197.689, 53.119 195.848 C 54.559 194.007, 56.018 191.309, 56.362 189.853 C 56.706 188.397, 58.624 185.247, 60.626 182.853 C 62.628 180.459, 64.741 177.375, 65.322 176 C 66.710 172.711, 71.034 168, 72.664 168 C 73.373 168, 74.683 166.887, 75.574 165.527 C 76.620 163.932, 78.491 162.844, 80.847 162.463 C 86.190 161.599, 88.736 160.363, 89.988 158.022 C 90.930 156.263, 90.645 155.491, 88.127 152.973 C 85.794 150.641, 84.269 150, 81.046 150 C 78.249 150, 76.746 149.503, 76.340 148.443 C 75.397 145.985, 75.651 139.029, 76.921 132.562 C 77.820 127.983, 77.811 125.959, 76.884 123.719 C 76.015 121.622, 75.987 120.626, 76.783 120.134 C 77.485 119.700, 77.970 114.261, 78.116 105.178 C 78.243 97.327, 78.719 90.674, 79.173 90.393 C 80.327 89.680, 80.222 82.576, 78.847 68.258 C 77.547 54.712, 78.183 51.396, 82.193 50.827 C 83.860 50.591, 84.845 49.437, 85.752 46.663 C 86.913 43.108, 86.840 42.687, 84.753 40.946 C 83.514 39.912, 81.278 39.052, 79.785 39.033 C 76.388 38.992, 75 36.546, 75 30.601 C 75 27.145, 74.541 25.825, 73.066 25.035 C 70.229 23.517, 68.183 23.768, 67.223 25.750 M 141.833 49.388 C 138.350 51.252, 133.475 53.839, 131 55.138 C 128.525 56.437, 126.162 58.023, 125.749 58.662 C 125.337 59.301, 123.087 60.138, 120.749 60.521 C 118.412 60.904, 115.825 61.797, 115 62.505 C 114.175 63.213, 111.875 64.627, 109.889 65.646 C 103.465 68.944, 98 72.990, 98 74.447 C 98 75.230, 98.439 77.024, 98.975 78.435 C 100.271 81.844, 102.811 81.722, 109.636 77.924 C 112.676 76.233, 115.739 75.070, 116.443 75.340 C 118.567 76.155, 118.577 112.748, 116.455 119.136 C 115.553 121.852, 115.088 124.788, 115.423 125.660 C 115.964 127.070, 114.772 133.471, 112.008 144 C 111.502 145.925, 110.804 149.292, 110.455 151.482 C 110.107 153.673, 108.962 157.245, 107.911 159.420 C 106.860 161.596, 105.984 164.529, 105.965 165.938 C 105.945 167.347, 105.286 169.625, 104.500 171 C 103.714 172.375, 103.055 174.503, 103.035 175.728 C 103.016 176.953, 101.904 180.328, 100.564 183.228 C 99.225 186.128, 97.889 189.287, 97.596 190.250 C 97.021 192.136, 92.552 192.702, 91.513 191.021 C 90.376 189.181, 79.155 183.151, 73.625 181.408 C 69.086 179.977, 67.829 179.897, 66.553 180.956 C 63.059 183.856, 66.273 190, 71.282 190 C 72.293 190, 75.183 191.575, 77.704 193.500 C 80.225 195.425, 82.566 197, 82.907 197 C 83.247 197, 83.970 197.955, 84.513 199.123 C 85.056 200.290, 87.214 201.821, 89.309 202.525 C 91.403 203.229, 95.334 205.986, 98.044 208.652 C 102.076 212.620, 103.792 213.599, 107.489 214.046 C 109.974 214.347, 112.456 214.144, 113.004 213.596 C 114.846 211.754, 114.054 208.131, 111.408 206.297 C 109.982 205.309, 107.404 203.308, 105.680 201.852 L 102.544 199.203 104.831 194.624 C 106.089 192.106, 107.529 189.791, 108.032 189.480 C 108.534 189.170, 109.451 187.040, 110.068 184.749 C 110.685 182.457, 111.935 180.037, 112.845 179.370 C 113.906 178.594, 114.539 176.604, 114.609 173.829 C 114.669 171.448, 115.232 167.813, 115.859 165.750 C 118.573 156.829, 119.248 154.132, 120.342 147.828 C 120.979 144.159, 121.838 140.821, 122.250 140.412 C 122.662 140.002, 123 138.567, 123 137.222 C 123 135.002, 123.301 134.834, 126.274 135.392 C 129.306 135.960, 130.061 135.488, 136.497 129.003 C 141.777 123.682, 144.113 122, 146.223 122 C 148.965 122, 149 122.079, 149 128.300 C 149 131.765, 148.479 135.121, 147.842 135.758 C 146.966 136.634, 146.991 137.285, 147.949 138.439 C 148.789 139.450, 148.996 141.397, 148.567 144.231 C 148.211 146.579, 147.950 149.738, 147.988 151.250 C 148.091 155.455, 148.145 162.060, 148.110 166.500 C 148.093 168.700, 148.257 192.296, 148.475 218.936 C 148.692 245.576, 148.562 269.201, 148.185 271.436 C 147.808 273.671, 147.639 281.012, 147.809 287.750 L 148.118 300 152.309 300 L 156.500 299.999 156.778 276.250 C 156.931 263.187, 157.235 245.750, 157.453 237.500 C 157.671 229.250, 157.815 216.875, 157.772 210 C 157.568 177.119, 157.795 140.523, 158.260 131.500 C 158.543 126, 158.825 119.686, 158.887 117.470 C 158.994 113.638, 159.344 113.208, 165.984 108.720 C 169.826 106.124, 173.806 104, 174.830 104 C 177.589 104, 180.100 100.672, 180.697 96.225 C 181.170 92.692, 180.909 92.072, 178.110 90.078 C 175.236 88.032, 174.871 87.986, 173.372 89.485 C 172.479 90.378, 168.542 93.315, 164.624 96.010 C 160.706 98.706, 156.375 101.821, 155 102.934 C 153.625 104.046, 152.138 104.966, 151.695 104.978 C 150.816 105.002, 137.022 113.730, 133 116.807 C 127.707 120.855, 124.591 120.502, 126.936 116.119 C 127.451 115.157, 127.868 108.099, 127.862 100.435 C 127.857 92.771, 127.878 84.776, 127.909 82.668 C 127.941 80.560, 127.276 77.500, 126.432 75.868 C 125.588 74.236, 125.148 72.108, 125.456 71.139 C 126.012 69.388, 131.069 66.714, 136.176 65.471 C 137.648 65.113, 139.631 63.961, 140.581 62.910 C 141.532 61.860, 143.265 61, 144.432 61 C 145.600 61, 147.463 60.364, 148.574 59.586 C 149.684 58.808, 151.921 58.021, 153.546 57.836 C 156.195 57.535, 156.533 57.093, 156.822 53.558 C 157.080 50.391, 156.688 49.266, 154.822 47.831 C 151.485 45.264, 148.981 45.564, 141.833 49.388 M 60.084 62.489 C 55.634 65.660, 53.924 70.616, 53.909 80.385 C 53.902 84.722, 53.468 90.532, 52.944 93.297 C 51.923 98.679, 52.442 100.432, 54.332 97.983 C 54.974 97.150, 57.525 94.933, 60 93.055 C 68.598 86.532, 69.502 83.888, 68.228 69 C 67.587 61.520, 67.260 60.473, 65.500 60.278 C 64.400 60.156, 61.963 61.151, 60.084 62.489 M 63.445 104.596 C 61.668 106.968, 61.262 107.084, 58.750 105.936 C 57.237 105.245, 56 104.301, 56 103.839 C 56 103.378, 55.622 103, 55.161 103 C 53.572 103, 52.092 107.904, 51.411 115.424 C 50.849 121.619, 50.993 123.060, 52.219 123.531 C 53.985 124.208, 60.576 120.546, 61.385 118.439 C 61.695 117.631, 63.022 116.562, 64.334 116.063 C 66.152 115.372, 66.883 114.127, 67.408 110.828 C 67.786 108.448, 68.348 105.487, 68.656 104.250 C 69.461 101.019, 65.951 101.252, 63.445 104.596 M 63.833 130.787 C 63.650 131.220, 61.583 133.099, 59.239 134.963 C 55.222 138.158, 54.902 138.248, 53.652 136.539 C 52.922 135.541, 51.690 134.939, 50.913 135.201 C 49.545 135.662, 49.307 138.244, 49.005 155.915 C 48.902 161.931, 50.100 162.788, 54.219 159.646 C 56.083 158.225, 59.271 156.367, 61.304 155.518 C 64.582 154.148, 65 153.571, 65 150.421 C 65 148.467, 65.454 146.021, 66.008 144.985 C 66.744 143.610, 66.562 142.149, 65.333 139.573 C 63.759 136.272, 63.759 135.924, 65.325 134.193 C 66.246 133.175, 67 131.815, 67 131.171 C 67 129.869, 64.358 129.548, 63.833 130.787" stroke="none" fill="black" fill-rule="evenodd"/>
</svg>