<svg xmlns="http://www.w3.org/2000/svg" width="300" height="300" viewBox="0 0 300 300" version="1.1">
	<path d="M 66.031 33.462 C 65.103 34.580, 65.079 36.142, 65.928 40.101 C 67.052 45.339, 66.533 51.498, 64.784 53.706 C 64.258 54.370, 64.159 55.448, 64.563 56.102 C 64.968 56.757, 64.265 59.364, 63.002 61.896 C 61.738 64.428, 60.430 67.104, 60.094 67.841 C 59.757 68.579, 57.236 70.155, 54.491 71.343 C 51.746 72.531, 48.375 74.260, 47 75.184 C 45.625 76.108, 43.251 77.172, 41.724 77.547 C 38.328 78.382, 37 80.672, 37 85.694 C 37 88.479, 37.563 89.870, 39.070 90.812 C 40.877 91.940, 42.116 91.631, 48.820 88.377 C 53.044 86.327, 58.376 83.154, 60.668 81.325 C 62.961 79.496, 65.263 78, 65.783 78 C 66.304 78, 67.997 77.004, 69.545 75.786 C 71.093 74.568, 73.742 73.555, 75.430 73.536 C 78.003 73.506, 78.550 73.067, 78.809 70.826 C 78.983 69.321, 80.204 67.441, 81.604 66.524 C 87.158 62.884, 86.670 54.484, 80.836 53.317 C 77.036 52.557, 76.735 51.902, 76.427 43.697 C 76.190 37.388, 75.888 36.480, 73.332 34.389 C 70.042 31.697, 67.739 31.405, 66.031 33.462 M 161 38.500 C 158.696 40.425, 156.291 42.018, 155.655 42.041 C 155.020 42.063, 152.942 43.413, 151.038 45.041 C 149.134 46.668, 147.151 48, 146.632 48 C 146.113 48, 144.071 49.236, 142.094 50.747 C 136.030 55.383, 117.996 66, 116.187 66 C 115.248 66, 113.207 67.180, 111.651 68.622 C 109.204 70.892, 108.912 71.733, 109.485 74.872 C 110.499 80.439, 111.889 81.351, 116.090 79.209 C 118.025 78.223, 121.008 76.419, 122.720 75.200 C 124.431 73.981, 127.111 72.728, 128.675 72.415 C 131.334 71.883, 131.605 72.139, 132.853 76.368 C 134.443 81.751, 134.505 101.818, 132.968 113.500 C 132.390 117.900, 131.674 123.750, 131.379 126.500 C 131.084 129.250, 130.482 132.400, 130.043 133.500 C 129.603 134.600, 128.721 137.975, 128.083 141 C 127.445 144.025, 126.469 148.525, 125.915 151 C 125.361 153.475, 124.514 157.525, 124.032 160 C 123.550 162.475, 122.235 166.975, 121.110 170 C 119.986 173.025, 119.051 176.600, 119.033 177.945 C 119.015 179.290, 117.831 181.611, 116.402 183.103 L 113.803 185.815 116.090 188.907 C 121.072 195.647, 126.541 191.680, 128.509 179.898 C 128.913 177.479, 130.011 174.375, 130.948 173 C 131.885 171.625, 133.204 167.125, 133.879 163 C 137.580 140.401, 137.110 141.764, 142.164 139 C 144.678 137.625, 149.082 134.137, 151.950 131.250 C 154.817 128.362, 157.525 126, 157.967 126 C 158.409 126, 159.507 124.875, 160.408 123.500 C 161.309 122.125, 162.486 121, 163.023 121 C 164.216 121, 164.337 125.700, 163.156 126.167 C 162.692 126.350, 162.927 132.125, 163.678 139 C 165.031 151.385, 164.817 197.102, 163.338 211.500 C 162.999 214.800, 162.622 222, 162.499 227.500 C 162.376 233, 161.773 242.900, 161.159 249.500 C 160.545 256.100, 159.821 267.234, 159.550 274.241 C 159.279 281.249, 158.757 289.912, 158.391 293.491 L 157.724 300 162.234 300 C 166.703 300, 166.750 299.964, 167.368 296.102 C 167.710 293.959, 167.715 290.826, 167.378 289.141 C 167.041 287.456, 167.305 281.673, 167.965 276.289 C 170.776 253.337, 173.001 215.430, 174.291 168.500 C 174.352 166.300, 174.335 155.950, 174.255 145.500 C 174.065 120.908, 174.557 115.748, 177.337 113.211 C 179.714 111.041, 188.891 106.005, 190.492 105.991 C 191.046 105.987, 193.238 104.336, 195.361 102.323 C 198.950 98.922, 199.187 98.353, 198.724 94.245 C 198.450 91.815, 197.758 89.358, 197.186 88.786 C 195.616 87.216, 191.881 88.547, 186.648 92.542 C 183.368 95.047, 181.125 96.039, 179.245 95.818 C 177.059 95.560, 176.543 95.907, 176.524 97.648 C 176.494 100.344, 169.242 106.811, 162.446 110.200 C 159.666 111.586, 154.082 115.278, 150.038 118.403 C 141.279 125.170, 139.952 124.796, 142.353 116.238 C 143.259 113.010, 144 108.512, 144 106.243 C 144 103.974, 144.498 101.810, 145.108 101.433 C 145.832 100.986, 145.959 99.320, 145.475 96.624 C 145.067 94.356, 144.586 89.642, 144.406 86.149 C 144.226 82.657, 143.662 79.282, 143.154 78.649 C 142.647 78.017, 141.784 75.475, 141.238 73 C 140.691 70.525, 139.918 67.716, 139.518 66.758 C 139.008 65.533, 139.342 64.847, 140.646 64.445 C 144.936 63.121, 149.708 60.292, 152.782 57.250 C 154.589 55.462, 156.554 54, 157.149 54 C 157.744 54, 161.554 52.444, 165.615 50.542 C 172.991 47.088, 174.341 45.358, 171.500 43 C 170.675 42.315, 170 40.775, 170 39.578 C 170 37.186, 168.278 35, 166.395 35 C 165.732 35, 163.304 36.575, 161 38.500 M 65 85 C 64.175 85.533, 62.528 85.976, 61.339 85.985 C 58.848 86.002, 53.761 91.544, 54.202 93.758 C 54.366 94.578, 56.400 96.206, 58.722 97.375 C 61.044 98.544, 62.957 100.224, 62.972 101.109 C 62.987 101.994, 61.200 104.763, 59 107.263 C 56.800 109.762, 55 112.216, 55 112.716 C 55 113.217, 53.623 114.945, 51.940 116.558 C 50.257 118.170, 47.601 122.006, 46.038 125.082 C 43.482 130.111, 43.312 131.042, 44.343 134.337 C 45.465 137.921, 45.599 138, 50.549 138 C 54.474 138, 56.690 137.314, 60.431 134.942 C 63.083 133.260, 65.847 132.111, 66.572 132.389 C 67.297 132.667, 68.193 134.512, 68.564 136.487 C 69.407 140.984, 67.852 142.867, 59.371 147.609 C 55.972 149.510, 52.642 151.726, 51.973 152.533 C 51.303 153.340, 50.163 154, 49.439 154 C 48.714 154, 44.738 156.987, 40.602 160.638 C 36.465 164.288, 32.226 167.776, 31.181 168.388 C 30.135 168.999, 27.530 170.667, 25.390 172.094 C 18.539 176.662, 15.774 178.476, 14.102 179.500 C 13.204 180.050, 10.858 181.737, 8.890 183.250 C 6.922 184.762, 4.656 186, 3.856 186 C 1.062 186, 0 188.397, 0 194.700 C 0 198.165, 0.214 201, 0.476 201 C 1.813 201, 7.182 197.038, 9.033 194.685 C 10.463 192.867, 12.088 192, 14.064 192 C 15.952 192, 17.427 191.265, 18.242 189.917 C 18.934 188.771, 21.075 186.998, 23 185.976 C 24.925 184.955, 28.075 182.731, 30 181.035 C 31.925 179.339, 34.625 177.670, 36 177.327 C 37.375 176.984, 39.984 175.195, 41.798 173.352 C 43.612 171.508, 45.587 170, 46.186 170 C 46.786 170, 49.229 168.200, 51.616 166 C 54.003 163.800, 56.451 162, 57.057 162 C 57.662 162, 60.183 159.975, 62.658 157.500 C 65.133 155.025, 68.022 153, 69.079 153 C 70.709 153, 71.025 153.795, 71.162 158.250 C 71.353 164.458, 71.011 175.926, 70.364 185 C 70.109 188.575, 69.995 193.300, 70.111 195.500 C 70.383 200.684, 70.295 203.408, 69.657 209.442 C 68.527 220.135, 67.768 223.673, 65.676 228 C 62.945 233.647, 60.126 234.329, 56.243 230.279 C 47.539 221.200, 44.399 217.133, 40.872 210.370 C 39.373 207.496, 37.244 205.445, 33.867 203.620 C 31.198 202.179, 28.637 201, 28.176 201 C 27.074 201, 21.451 209.799, 20.507 213 C 20.102 214.375, 18.956 217.075, 17.960 219 C 14.395 225.894, 13.921 232.084, 16.718 235.218 C 18.927 237.693, 21.550 235.943, 24.228 230.207 C 27.967 222.201, 32.221 216, 33.975 216 C 35.616 216, 40 219.906, 40 221.368 C 40 222.435, 50.960 235.969, 54.500 239.273 C 57.454 242.031, 58.134 242.303, 64.900 243.439 C 67.900 243.943, 68.742 243.545, 72.059 240.059 C 75.296 236.656, 75.887 235.304, 76.325 230.304 C 76.993 222.679, 78.014 217.797, 79.270 216.224 C 79.830 215.522, 80.510 209.560, 80.781 202.974 C 81.263 191.277, 82.140 188.607, 83.942 193.348 C 84.719 195.391, 85.711 195.777, 91.596 196.327 C 95.315 196.674, 98.818 197.418, 99.379 197.979 C 99.941 198.541, 101.188 199, 102.152 199 C 103.116 199, 105.297 201.025, 107 203.500 C 110.716 208.900, 114.127 209.447, 118.923 205.411 C 122.879 202.083, 122.804 200.407, 118.589 197.920 C 116.713 196.813, 114.925 195.247, 114.615 194.439 C 114.305 193.631, 112.907 192.535, 111.508 192.003 C 110.109 191.471, 108.515 189.856, 107.967 188.413 C 107.145 186.252, 106.530 185.901, 104.464 186.420 C 103.086 186.765, 100.956 186.499, 99.729 185.828 C 98.503 185.156, 93.900 184.583, 89.500 184.553 L 81.500 184.500 81.195 178.589 C 81.028 175.338, 81.353 171.513, 81.917 170.089 C 83.126 167.040, 83.483 155.812, 82.510 151.443 C 81.645 147.556, 83.505 145.886, 89.831 144.872 C 98.101 143.546, 100.456 142.785, 102.750 140.698 C 105.476 138.218, 105.677 133.922, 103.171 131.655 C 100.635 129.360, 94.400 129.540, 91.273 132 C 89.874 133.100, 88.003 134.014, 87.115 134.032 C 86.227 134.049, 84.669 134.693, 83.653 135.463 C 81.263 137.274, 79 136.375, 79 133.616 C 79 132.422, 78.249 130.373, 77.331 129.063 C 75.721 126.763, 75.761 126.602, 78.497 124.421 C 80.056 123.178, 82.494 121.622, 83.916 120.964 C 85.337 120.306, 87.175 119.377, 88 118.899 C 88.825 118.421, 90.963 117.371, 92.750 116.566 C 95.490 115.332, 96 114.570, 96 111.712 C 96 109.049, 95.453 108.072, 93.453 107.161 C 89.797 105.495, 86.321 105.727, 83.210 107.843 C 75.718 112.940, 64.769 118.976, 63.942 118.464 C 62.595 117.632, 65.758 111.936, 69.139 109.105 C 70.713 107.788, 72 106.133, 72 105.427 C 72 104.722, 73.311 103.100, 74.912 101.822 C 77.449 99.799, 77.868 98.727, 78.162 93.500 C 78.492 87.640, 78.438 87.493, 75.823 87.191 C 74.351 87.020, 72.608 86.233, 71.951 85.441 C 70.582 83.791, 67.202 83.577, 65 85" stroke="none" fill="black" fill-rule="evenodd"/>
</svg>