<svg xmlns="http://www.w3.org/2000/svg" width="300" height="300" viewBox="0 0 300 300" version="1.1">
	<path d="M 67.138 72.050 C 66.133 74.321, 65.950 77.834, 66.422 85.800 C 67.407 102.438, 67.931 153.043, 67.163 157.475 C 66.598 160.737, 65.776 161.842, 62.589 163.630 C 57.588 166.435, 46 176.979, 46 178.723 C 46 179.460, 45.346 180.314, 44.546 180.621 C 42.504 181.404, 39 187.645, 39 190.498 C 39 194.296, 36.931 194.622, 34.087 191.272 C 32.664 189.596, 29.363 185.731, 26.750 182.683 C 24.137 179.636, 22 176.681, 22 176.118 C 22 175.554, 19.912 174.170, 17.360 173.041 C 13.841 171.485, 12.390 171.261, 11.360 172.117 C 8.875 174.179, 9.851 177.922, 14 182.240 C 16.200 184.530, 18.038 186.875, 18.084 187.451 C 18.130 188.028, 21.995 191.875, 26.672 196 C 35.644 203.913, 38.681 206.796, 40.789 209.405 C 42.411 211.411, 46.364 211.471, 47.989 209.513 C 48.697 208.660, 48.954 206.954, 48.593 205.513 C 48.023 203.245, 48.256 203, 50.981 203 C 54.332 203, 57.045 200.747, 59.567 195.871 C 60.842 193.405, 61.129 190.908, 60.773 185.365 C 60.269 177.511, 60.920 176, 64.809 176 C 67.028 176, 67.174 176.297, 66.651 179.750 C 66.059 183.661, 65.606 198.435, 65.856 205.727 C 65.969 209.056, 66.537 210.306, 68.531 211.612 C 69.923 212.525, 71.304 213.030, 71.599 212.735 C 71.894 212.440, 72.347 209.917, 72.606 207.130 C 73.233 200.382, 75.332 195.625, 78.276 194.284 C 81.020 193.034, 82.202 193.553, 83.885 196.750 C 84.612 198.129, 85.999 199, 87.470 199 C 88.790 199, 91.102 199.468, 92.608 200.041 C 94.660 200.821, 95.671 200.758, 96.640 199.788 C 98.616 197.813, 95.932 190.824, 92.687 189.498 C 89.273 188.103, 85.955 184.983, 84.871 182.148 C 84.209 180.417, 83.514 179.991, 82.236 180.534 C 76.736 182.868, 74.231 180.198, 74.832 172.643 C 75.133 168.854, 75.749 167.603, 78.153 165.891 C 81.752 163.328, 90.610 160, 93.832 160 C 97.064 160, 106.827 162.910, 107.557 164.092 C 109.433 167.128, 107.339 186.520, 104.817 189.450 C 104.368 189.973, 104 191.293, 104 192.384 C 104 196.024, 100.100 202.487, 94.067 208.847 L 88.096 215.141 81.798 214.992 C 72.397 214.769, 72.844 214.574, 73.190 218.748 C 73.486 222.332, 73.705 222.541, 78.173 223.498 C 80.743 224.049, 83.181 224.838, 83.590 225.250 C 85.144 226.818, 88.264 225.890, 91.154 223 C 92.804 221.350, 94.812 220, 95.617 220 C 96.422 220, 98.452 218.988, 100.129 217.750 C 103.641 215.157, 112 203.845, 112 201.685 C 112 200.884, 112.653 198.970, 113.451 197.432 C 114.249 195.894, 115.205 192.130, 115.576 189.068 C 115.947 186.006, 116.726 182.600, 117.307 181.500 C 118.488 179.266, 118.352 166.756, 117.120 164.168 C 110.881 151.067, 110.025 150.496, 96.670 150.514 C 89.258 150.525, 85.313 151.011, 82.125 152.306 C 79.719 153.284, 77.525 153.858, 77.250 153.583 C 76.974 153.308, 76.541 144.851, 76.287 134.791 C 75.297 95.527, 75.085 89.231, 74.489 81.500 C 73.606 70.039, 70.051 65.469, 67.138 72.050 M 125.987 70.516 C 125.070 71.620, 124.937 73.861, 125.495 78.766 C 125.917 82.470, 126.153 91.800, 126.020 99.500 C 125.704 117.834, 125.675 116.426, 126.546 124.840 C 127.048 129.691, 127.785 132.364, 128.720 132.723 C 131.139 133.651, 131.889 131.774, 132.606 122.994 C 132.987 118.322, 133.653 114.266, 134.085 113.981 C 135.164 113.268, 135.600 79.339, 134.587 75 C 134.137 73.075, 133.316 70.938, 132.762 70.250 C 131.375 68.529, 127.510 68.680, 125.987 70.516 M 96.152 79.317 C 94.709 81.056, 91.029 92.869, 91.013 95.816 C 91.006 97.089, 90.451 99.114, 89.780 100.316 C 87.875 103.726, 86.114 109.114, 85.435 113.608 C 84.934 116.934, 85.143 117.841, 86.535 118.375 C 88.243 119.030, 91 117.516, 91 115.922 C 91 115.464, 92.125 113.431, 93.500 111.405 C 94.875 109.379, 96 106.520, 96 105.052 C 96 103.583, 96.661 101.509, 97.468 100.441 C 98.276 99.374, 98.951 97.797, 98.968 96.938 C 98.986 96.079, 99.882 93.550, 100.960 91.319 C 103.057 86.979, 103.856 81.193, 102.631 79.212 C 101.634 77.598, 97.523 77.665, 96.152 79.317 M 166 86.228 C 164.075 87.435, 162.275 88.665, 162 88.962 C 160.751 90.306, 153.050 96, 152.480 96 C 150.712 96, 139.658 106.882, 138.423 109.839 C 136.750 113.843, 136.553 119.605, 138.057 120.535 C 140.265 121.900, 144.126 119.937, 145.180 116.914 C 146.463 113.234, 149.475 113.308, 149.551 117.022 C 149.579 118.385, 149.971 124.789, 150.421 131.253 C 151.029 139.976, 150.930 143.379, 150.037 144.455 C 149.376 145.252, 149.105 146.756, 149.435 147.796 C 150.241 150.334, 148.392 163.008, 147.015 164.385 C 146.222 165.178, 144.622 164.045, 141.210 160.276 C 136.021 154.543, 128.706 148.781, 123.412 146.257 C 120.143 144.698, 119.856 144.718, 117.242 146.701 C 114.232 148.985, 113.924 151.943, 116.534 153.500 C 117.456 154.050, 119.851 155.794, 121.855 157.377 C 123.860 158.959, 126.657 160.759, 128.071 161.377 C 132.585 163.350, 142 172.265, 142 174.567 C 142 176.628, 140.711 181.355, 139.018 185.500 C 138.569 186.600, 137.611 189.075, 136.889 191 C 135.263 195.334, 129.968 204, 128.946 204 C 128.531 204, 126.785 206.492, 125.066 209.537 C 123.347 212.582, 117.641 219.332, 112.385 224.537 C 104.033 232.808, 102.396 234, 99.383 234 C 95.727 234, 93.841 236.241, 95.826 238.226 C 97.131 239.531, 109.566 239.303, 112.137 237.927 C 113.120 237.400, 115.313 234.952, 117.010 232.485 C 118.818 229.858, 120.874 228, 121.975 228 C 123.762 228, 130 221.522, 130 219.667 C 130 219.184, 131.125 217.452, 132.500 215.818 C 133.875 214.184, 135 212.180, 135 211.365 C 135 210.550, 136.365 208.184, 138.034 206.107 C 142.571 200.462, 150 186.977, 150 184.388 C 150 178.969, 151.215 179.771, 170.417 197.866 C 173.122 200.415, 176.194 202.984, 177.245 203.577 C 178.956 204.541, 185.105 209.730, 191.548 215.648 C 192.835 216.830, 196.725 219.951, 200.194 222.585 C 208.672 229.023, 212.285 232.100, 220.208 239.627 C 223.897 243.132, 227.480 246, 228.168 246 C 228.857 246, 232.442 249.150, 236.135 253 C 239.828 256.850, 243.518 260, 244.336 260 C 245.921 260, 251 254.533, 251 252.828 C 251 251.170, 246.965 246, 245.672 246 C 243.736 246, 239.075 241.146, 238.390 238.418 C 237.844 236.242, 237.362 235.981, 234.889 236.524 C 232.357 237.081, 231.074 236.296, 223.946 229.827 C 219.505 225.797, 215.049 222.195, 214.043 221.822 C 213.037 221.449, 211.501 220.125, 210.629 218.881 C 209.757 217.636, 207.937 216.142, 206.584 215.559 C 202.261 213.698, 169.846 185.449, 167.934 181.876 C 167.381 180.844, 166.442 180, 165.847 180 C 165.251 180, 163.226 178.650, 161.347 177 C 159.468 175.350, 157.526 174, 157.033 174 C 155.095 174, 154.872 169.847, 156.667 167.201 C 158.189 164.958, 158.685 161.022, 159.591 144 C 160.338 129.963, 160.359 122.775, 159.658 121.201 C 158.939 119.586, 158.981 117.941, 159.799 115.678 C 160.660 113.298, 160.679 111.422, 159.872 108.499 C 158.910 105.015, 159.001 104.420, 160.632 103.521 C 161.650 102.959, 163.920 101.037, 165.675 99.250 C 167.430 97.463, 169.323 96, 169.882 96 C 170.441 96, 172.056 94.481, 173.472 92.626 C 175.620 89.809, 175.881 88.817, 175.048 86.626 C 173.801 83.345, 170.807 83.214, 166 86.228 M 33.345 101.544 C 32.151 104.654, 35.741 117.993, 38.638 121.208 C 39.773 122.469, 40.962 124.240, 41.279 125.144 C 41.596 126.049, 43.439 127.996, 45.373 129.471 C 51.845 134.407, 56.980 130.734, 51.261 125.259 C 48.323 122.448, 46.551 118.794, 43.375 109 C 42.393 105.975, 40.938 102.713, 40.140 101.750 C 38.347 99.586, 34.145 99.459, 33.345 101.544 M 47.476 192.075 C 46.685 194.568, 47.368 195.457, 49.457 194.655 C 51.402 193.909, 51.495 190, 49.567 190 C 48.779 190, 47.838 190.934, 47.476 192.075" stroke="none" fill="black" fill-rule="evenodd"/>
</svg>