<svg xmlns="http://www.w3.org/2000/svg" width="300" height="300" viewBox="0 0 300 300" version="1.1">
	<path d="M 124.314 61.250 C 121.560 65.534, 120.894 68.104, 121.016 73.979 C 121.285 86.905, 121.364 86.608, 116.750 89.896 C 114.412 91.561, 110.012 94.247, 106.971 95.865 C 101.475 98.788, 99.703 100.977, 98.556 106.261 C 98.063 108.531, 98.397 109.224, 100.433 110.151 C 103.860 111.713, 108.380 109.706, 113.661 104.277 C 115.965 101.909, 118.763 100, 119.930 100 C 122.019 100, 122.036 100.202, 121.769 122.187 L 121.500 144.374 118.398 145.177 C 115.299 145.980, 111.738 150.784, 106.300 161.500 C 97.891 178.070, 87.543 189.876, 84.285 186.618 C 83.561 185.895, 80 188.879, 80 190.208 C 80 190.703, 81.237 192.658, 82.750 194.553 C 87.067 199.964, 89.033 199.310, 98.689 189.250 C 103.308 184.438, 107.630 179.565, 108.294 178.422 C 109.830 175.775, 115.404 167.189, 117.494 164.250 C 118.374 163.012, 119.803 162, 120.671 162 C 122.088 162, 122.182 165.228, 121.599 193.750 C 120.901 227.944, 120.698 230.534, 118.265 236.286 C 116.791 239.772, 116.795 240.346, 118.316 243.536 C 119.625 246.281, 120.554 247, 122.793 247 C 128.555 247, 128.796 246.229, 129.503 225.500 C 129.859 215.050, 130.314 197.950, 130.515 187.500 C 130.878 168.576, 130.889 168.499, 133.175 168.150 C 134.438 167.957, 136.828 168.469, 138.486 169.288 C 140.144 170.107, 143.750 171.538, 146.500 172.470 C 156.592 175.887, 157 176.127, 157 178.653 C 157 182.242, 154.661 187.177, 150.966 191.386 L 147.682 195.126 149.694 197.138 C 151.589 199.034, 151.919 199.061, 155.392 197.609 C 158.313 196.389, 159.596 194.940, 161.567 190.634 C 162.936 187.645, 164.709 184.657, 165.507 183.994 C 166.306 183.331, 167.253 180.576, 167.611 177.872 C 167.970 175.168, 168.654 172.714, 169.132 172.419 C 169.609 172.123, 170 170.842, 170 169.571 C 170 165.766, 173.879 154.817, 175.754 153.330 C 176.714 152.568, 180.650 149.861, 184.500 147.314 C 188.350 144.766, 193.105 141.431, 195.067 139.902 C 200.657 135.545, 201.315 135.749, 201.834 142 C 203.366 160.454, 202.173 288.186, 200.384 297.250 C 199.863 299.889, 200.005 300, 203.921 300 C 206.164 300, 208.002 299.887, 208.005 299.750 C 208.008 299.613, 208.652 292.075, 209.436 283 C 210.315 272.827, 210.963 250.013, 211.127 223.500 C 211.574 151.082, 211.814 135.629, 212.542 132.199 C 213.075 129.683, 215.177 127.281, 221.371 122.106 C 225.842 118.370, 230.139 114.117, 230.921 112.653 C 232.227 110.208, 232.152 109.791, 229.997 107.496 C 228.707 106.123, 226.829 105, 225.823 105 C 224.084 105, 217 111.569, 217 113.183 C 217 113.604, 215.537 114.698, 213.750 115.614 C 211.963 116.530, 210.275 117.554, 210 117.890 C 209.725 118.225, 208.330 119.175, 206.901 120 C 205.472 120.825, 202.097 122.941, 199.401 124.701 C 184.468 134.455, 179.773 137.127, 178.459 136.623 C 177.276 136.169, 176.968 133.076, 176.829 120.281 C 176.610 100.118, 176.643 100.721, 175.691 99.250 C 175.246 98.563, 173.839 98, 172.563 98 C 171.288 98, 169.819 98.563, 169.298 99.250 C 167.236 101.970, 166.225 108.623, 166.982 114.500 C 167.947 122, 167.357 139.867, 165.925 146.500 C 161.678 166.176, 160.942 167.694, 156.881 165.158 C 155.861 164.521, 154.196 164, 153.180 164 C 152.164 164, 151.044 163.710, 150.690 163.356 C 149.205 161.871, 138.809 158.237, 137.223 158.649 C 136.275 158.895, 134.669 158.486, 133.654 157.741 C 131.933 156.478, 131.805 154.377, 131.766 126.665 C 131.743 110.318, 132.011 96.656, 132.362 96.305 C 132.713 95.954, 133 94.669, 133 93.449 C 133 92.075, 134.546 89.952, 137.065 87.866 C 145.468 80.908, 149 76.642, 149 73.450 C 149 70.078, 147.463 68, 144.969 68 C 144.072 68, 140.976 70.475, 138.089 73.500 C 130.638 81.307, 129.224 80.794, 131.012 70.934 C 131.950 65.764, 131.877 64.461, 130.536 62.415 C 128.835 59.819, 125.621 59.217, 124.314 61.250 M 196.780 64.750 C 192.913 70.582, 187.029 75.814, 180.865 78.902 C 177.766 80.455, 174.178 82.462, 172.893 83.363 C 171.607 84.263, 169.753 85, 168.774 85 C 167.794 85, 165.314 85.900, 163.261 87 C 161.209 88.100, 158.762 89, 157.824 89 C 156.886 89, 155.876 89.391, 155.581 89.869 C 155.286 90.346, 153.144 91.041, 150.822 91.413 C 145.499 92.264, 144 93.510, 144 97.087 C 144 100.917, 146.917 102.380, 152.864 101.532 C 158.436 100.739, 163.950 99.013, 166 97.422 C 166.825 96.781, 169.828 95.499, 172.673 94.574 C 175.518 93.648, 178.386 92.240, 179.045 91.445 C 179.705 90.650, 180.752 89.999, 181.372 89.998 C 183.422 89.993, 194.403 81.981, 200.250 76.224 C 204.891 71.655, 206 69.941, 206 67.338 C 206 65.139, 205.293 63.618, 203.777 62.557 C 200.526 60.280, 199.538 60.589, 196.780 64.750 M 43.504 84.374 C 41.251 86.021, 41.122 92.442, 42.999 109.500 C 43.665 115.550, 44.434 131.975, 44.708 146 C 45.123 167.215, 44.915 173.265, 43.470 182 L 41.733 192.500 43.965 196.250 C 45.193 198.312, 46.820 200, 47.580 200 C 48.340 200, 49.265 201.238, 49.635 202.750 C 50.005 204.262, 50.801 205.831, 51.404 206.235 C 53.321 207.520, 59.033 207.077, 59.601 205.599 C 59.896 204.828, 60.969 203.980, 61.983 203.715 C 62.998 203.449, 64.595 201.717, 65.532 199.866 C 68.353 194.294, 71.993 190, 73.896 190 C 74.883 190, 76.471 189.137, 77.425 188.082 C 79.172 186.152, 79.229 178.804, 78.089 102.655 C 78.060 100.701, 76.784 98.549, 74.012 95.777 C 70.278 92.043, 69.654 91.779, 65.637 92.232 C 63.250 92.501, 59.923 93.737, 58.243 94.978 C 54.338 97.866, 53 96.973, 53 91.480 C 53 84.685, 48.096 81.015, 43.504 84.374 M 62.191 107.401 C 61.087 109.272, 58.905 111.416, 57.342 112.166 L 54.500 113.529 54.413 130.264 C 54.322 147.642, 54.530 148.427, 58.441 145.468 C 59.509 144.661, 61.186 144, 62.168 144 C 64.681 144, 67.356 148.444, 66.617 151.390 C 65.933 154.115, 60.041 158, 56.593 158 C 54.373 158, 54.273 158.390, 53.459 170.250 C 52.996 176.988, 52.591 185.200, 52.559 188.500 C 52.506 193.872, 52.722 194.532, 54.618 194.802 C 56.173 195.024, 58.651 193.029, 63.933 187.302 C 70.023 180.699, 71.030 179.116, 70.480 177 C 70.122 175.625, 69.938 172.925, 70.072 171 C 70.578 163.667, 70.287 135.903, 69.557 122 C 68.986 111.139, 68.406 107.061, 67.243 105.750 C 65.086 103.319, 64.483 103.516, 62.191 107.401" stroke="none" fill="black" fill-rule="evenodd"/>
</svg>