<svg xmlns="http://www.w3.org/2000/svg" width="300" height="300" viewBox="0 0 300 300" version="1.1">
	<path d="M 130.200 12.200 C 129.540 12.860, 129 13.950, 129 14.622 C 129 16.606, 121.535 22.351, 116.326 24.376 C 113.672 25.407, 109.165 27.320, 106.312 28.626 C 103.458 29.932, 100.707 31, 100.198 31 C 98.395 31, 94 36.305, 94 38.481 C 94 40.823, 96.820 44, 98.899 44 C 99.581 44, 102.178 42.598, 104.668 40.884 C 108.475 38.265, 109.406 37.986, 110.506 39.134 C 111.538 40.211, 111.584 41.598, 110.724 45.680 C 109.883 49.676, 109.933 51.767, 110.944 54.830 C 112.444 59.376, 111.991 70.704, 109.677 86.500 C 107.911 98.556, 107.070 102, 105.892 102 C 105.401 102, 105 103.520, 105 105.378 C 105 107.235, 104.325 109.315, 103.500 110 C 102.675 110.685, 102 112.076, 102 113.092 C 102 114.933, 98.431 122.050, 97.032 123 C 95.515 124.030, 92.802 131.041, 93.359 132.492 C 93.677 133.321, 95.097 134, 96.514 134 C 98.838 134, 100.931 132.383, 104.746 127.642 C 106.583 125.358, 112.505 112.189, 114.027 107 C 114.754 104.525, 115.720 102.072, 116.174 101.550 C 116.628 101.027, 117 99.349, 117 97.820 C 117 95.562, 117.788 94.639, 121.197 92.900 C 123.505 91.722, 127.286 88.675, 129.599 86.129 C 131.911 83.583, 134.114 81.804, 134.493 82.175 C 134.873 82.546, 134.219 85.567, 133.040 88.888 C 131.145 94.224, 130.800 98.155, 130.068 122.713 C 129.368 146.220, 129.462 150.856, 130.683 152.811 C 132.706 156.050, 136.124 155.363, 137.205 151.500 C 137.667 149.850, 138.242 145.350, 138.483 141.500 C 140.374 111.264, 141.202 100.383, 142.172 93 C 142.787 88.325, 143.490 81.912, 143.734 78.750 C 144.020 75.037, 144.623 73, 145.434 73 C 146.125 73, 147.547 72.045, 148.595 70.878 C 149.643 69.710, 152.750 67.454, 155.500 65.864 C 161.620 62.325, 165 59.546, 165 58.055 C 165 55.326, 161.687 52, 158.968 52 C 157.427 52, 156.017 52.337, 155.833 52.750 C 155.487 53.530, 148.767 58.757, 145.869 60.500 C 141.356 63.216, 129.271 71.873, 125.978 74.750 C 121.289 78.846, 119.466 79.017, 120.640 75.250 C 121.502 72.481, 121.594 63.304, 120.930 46.279 C 120.577 37.226, 120.625 37.001, 123.508 33.992 C 125.123 32.306, 127.582 30.662, 128.972 30.338 C 132.706 29.469, 139 23.068, 139 20.141 C 139 17.383, 134.566 11, 132.649 11 C 131.962 11, 130.860 11.540, 130.200 12.200 M 55.056 13.944 C 53.986 15.014, 52.804 17.601, 52.429 19.694 C 52.054 21.787, 51.160 24.176, 50.443 25.002 C 46.065 30.045, 46.862 36, 51.914 36 C 55.525 36, 56.945 39.129, 57.267 47.796 L 57.500 54.092 52.250 58.948 C 49.362 61.619, 47 64.442, 47 65.222 C 47 66.001, 48.125 67.618, 49.500 68.813 C 51.092 70.197, 52 72.040, 52 73.886 C 52 76.835, 53.439 78, 57.082 78 C 58.533 78, 59 78.708, 59 80.911 C 59 84.855, 53.778 89.341, 49.858 88.766 C 47.019 88.349, 46 89.443, 46 92.907 C 46 96.574, 52.846 100.676, 54.500 98 C 55.385 96.568, 58.978 96.763, 59.115 98.250 C 59.574 103.232, 58.095 105.572, 53.642 106.909 C 48.470 108.463, 38.572 112.210, 37.500 113.021 C 36.950 113.437, 33.800 114.316, 30.500 114.975 C 27.200 115.634, 23.772 116.551, 22.881 117.013 C 21.991 117.475, 18.037 118.171, 14.095 118.559 C 4.354 119.519, 2.633 122.738, 8.851 128.365 C 10.800 130.129, 11.158 130.136, 17.194 128.520 C 20.662 127.592, 26.288 126.270, 29.697 125.583 C 33.105 124.896, 36.480 123.856, 37.197 123.271 C 39.483 121.408, 57 115.786, 58.603 116.401 C 59.875 116.889, 60.041 118.258, 59.551 124.218 C 59.225 128.192, 58.538 133.032, 58.024 134.972 C 56.630 140.241, 56.496 151.896, 57.814 153.214 C 58.632 154.032, 59.597 154.049, 61.290 153.277 C 63.941 152.070, 65.190 147.571, 67.057 132.500 C 67.670 127.550, 69.033 121.302, 70.086 118.617 C 71.139 115.931, 72 112.658, 72 111.345 C 72 109.347, 73.433 108.228, 80.750 104.511 C 91.327 99.138, 94.645 97.549, 98.265 96.120 C 101.557 94.821, 103.491 91.094, 102.638 87.693 C 101.768 84.229, 98.279 83.589, 95.049 86.300 C 90.762 89.900, 75.369 97.356, 73.614 96.682 C 71.041 95.695, 72.455 78, 75.107 78 C 75.598 78, 76 77.358, 76 76.573 C 76 75.787, 77.015 74.325, 78.254 73.323 C 79.494 72.320, 81.076 70.375, 81.769 69 C 82.463 67.625, 84.135 64.475, 85.487 62 C 88.875 55.794, 88.714 52.779, 84.819 49.501 C 81.508 46.715, 81.443 46.711, 70.871 48.557 C 67.291 49.182, 67.232 49.137, 66.603 45.345 C 66.253 43.230, 65.700 38.996, 65.376 35.935 C 64.813 30.624, 64.917 30.287, 67.643 28.556 C 72.196 25.664, 76 21.764, 76 19.987 C 76 17.880, 71.885 14, 69.650 14 C 68.704 14, 66.816 14.730, 65.455 15.622 C 63.084 17.175, 62.893 17.133, 60.917 14.622 C 58.451 11.487, 57.610 11.390, 55.056 13.944 M 69.958 61.078 C 68.613 63.591, 69.365 66, 71.493 66 C 72.889 66, 75 62.350, 75 59.935 C 75 58.129, 71.058 59.023, 69.958 61.078 M 28.690 62.750 C 28.455 63.163, 27.957 65.196, 27.583 67.269 C 26.950 70.774, 27.126 71.158, 30.116 72.769 C 34.724 75.251, 40.796 80.800, 42.261 83.868 C 43.856 87.206, 47.058 87.699, 49.513 84.985 C 53.589 80.482, 50.394 74.655, 38.789 65.429 C 34.808 62.265, 29.735 60.919, 28.690 62.750 M 100.566 156.582 C 95.104 158.582, 93.070 160.710, 92.357 165.169 C 91.763 168.882, 89 170.760, 89 167.450 C 89 165.049, 86.254 160.312, 84.465 159.625 C 79.371 157.670, 76.920 164.478, 79.511 173.389 C 81.124 178.937, 81.160 189.019, 79.626 205 C 79.389 207.475, 78.887 218.950, 78.512 230.500 L 77.830 251.500 80.988 255.250 C 84.499 259.420, 85.267 259.631, 89.297 257.529 C 91.695 256.278, 97.893 254.563, 108 252.353 C 109.375 252.052, 113.093 251.433, 116.262 250.977 C 127.209 249.403, 132.325 243.548, 126.750 238.975 C 124.992 237.534, 124.719 236.733, 125.500 235.315 C 127.153 232.315, 126.107 188.600, 124.313 185.697 C 123.967 185.137, 123.537 182.839, 123.359 180.589 C 122.828 173.894, 121.837 169.017, 120.890 168.432 C 120.400 168.129, 120 166.972, 120 165.859 C 120 164.747, 118.371 161.848, 116.380 159.418 C 113.131 155.453, 112.335 155.007, 108.630 155.070 C 106.358 155.109, 102.730 155.789, 100.566 156.582 M 99.180 171.578 C 96.881 173.546, 95 175.551, 95 176.034 C 95 176.516, 93.875 178.569, 92.500 180.595 C 90.212 183.967, 90 185.202, 90 195.171 C 90 203.937, 90.293 206.175, 91.502 206.639 C 94.045 207.615, 97.448 206.214, 101.053 202.708 C 102.949 200.864, 106.598 198.578, 109.162 197.628 C 111.726 196.679, 114.032 195.359, 114.287 194.694 C 114.728 193.545, 113.810 184.118, 112.417 175.500 C 111.078 167.213, 106.028 165.717, 99.180 171.578 M 105.876 212.190 C 102.783 213.839, 97.833 215.483, 94.876 215.844 L 89.500 216.500 88.755 221.500 C 87.476 230.090, 86.819 241.143, 87.442 243.623 C 88.177 246.552, 90.073 246.617, 99.500 244.038 C 116.165 239.479, 115.369 239.910, 116.268 234.962 C 117.604 227.602, 116.766 211.093, 115 209.978 C 112.894 208.648, 112.210 208.814, 105.876 212.190" stroke="none" fill="black" fill-rule="evenodd"/>
</svg>