<svg xmlns="http://www.w3.org/2000/svg" width="300" height="300" viewBox="0 0 300 300" version="1.1">
	<path d="M 145.571 18.571 C 144.707 19.436, 144 20.508, 144 20.954 C 144 22.466, 135.750 30.025, 133.476 30.595 C 132.233 30.907, 129.813 30.437, 128.099 29.551 C 124.041 27.453, 121 28.870, 121 32.861 C 121 36.271, 124.324 39.535, 128.750 40.471 C 132.352 41.233, 132.968 43.338, 130.532 46.559 C 129.724 47.626, 129.049 50.622, 129.032 53.215 C 128.996 58.514, 131.050 60.527, 135.382 59.440 C 137.679 58.864, 137.831 59.109, 138.301 64.166 C 138.573 67.100, 139.111 70.690, 139.495 72.145 C 140.116 74.497, 139.591 75.244, 134.756 78.895 C 130.825 81.863, 128.360 83, 125.859 83 C 123.957 83, 121.860 83.540, 121.200 84.200 C 119.648 85.752, 119.648 92.248, 121.200 93.800 C 123.328 95.928, 130.214 95.219, 134.286 92.452 C 138.891 89.322, 140.404 90.016, 139.557 94.868 C 139.209 96.866, 138.667 100.197, 138.354 102.272 C 137.984 104.732, 137.040 106.435, 135.643 107.167 C 134.464 107.784, 131.772 109.644, 129.659 111.301 C 125.702 114.403, 125.499 115.373, 127.495 121.641 C 128.055 123.402, 127.347 124.353, 123.509 126.994 C 120.942 128.760, 117.302 130.630, 115.421 131.149 C 112.375 131.991, 112 132.470, 112 135.524 C 112 140.073, 115.785 142.875, 119.588 141.142 C 120.966 140.514, 122.999 140, 124.105 140 C 125.851 140, 126.075 140.557, 125.807 144.250 C 125.508 148.389, 125.330 148.586, 119 151.792 C 115.425 153.603, 109.512 155.923, 105.861 156.948 C 95.570 159.836, 94.839 160.410, 95.196 165.314 C 95.569 170.452, 97.128 170.887, 106.632 168.504 C 110.240 167.599, 113.395 167.062, 113.643 167.310 C 114.019 167.686, 110.391 174.977, 108.075 178.500 C 107.713 179.050, 106.826 181.237, 106.104 183.360 C 104.959 186.726, 104.997 187.426, 106.404 188.833 C 107.888 190.317, 108.308 190.289, 111.657 188.485 C 113.660 187.407, 116.901 184.607, 118.861 182.262 C 122.357 178.080, 125.209 176.912, 126.567 179.108 C 127.501 180.620, 134.951 179.354, 137.224 177.297 C 138.391 176.241, 139 174.243, 139 171.467 C 139 168.950, 139.601 166.746, 140.487 166.011 C 142.661 164.207, 146.908 165.628, 148.011 168.528 C 149.833 173.320, 158 170.494, 158 165.071 C 158 163.017, 156.789 161.138, 153.522 158.127 C 149.652 154.559, 148.432 154, 144.522 154 C 140.667 154, 140 153.705, 140 152 C 140 150.900, 140.514 150, 141.142 150 C 141.771 150, 146.958 146.819, 152.669 142.932 C 158.380 139.044, 163.759 136.007, 164.623 136.182 C 166.027 136.466, 168.214 140.956, 169.649 146.500 C 170.151 148.439, 170.492 149.369, 172.875 155.297 C 173.494 156.835, 174.014 159.085, 174.032 160.297 C 174.049 161.509, 174.724 163.374, 175.532 164.441 C 176.339 165.509, 177 167.395, 177 168.632 C 177 169.870, 177.450 171.160, 178 171.500 C 178.550 171.840, 179 172.976, 179 174.025 C 179 175.748, 180.800 180.644, 183.122 185.236 C 183.605 186.191, 184 187.852, 184 188.927 C 184 190.002, 184.450 191.160, 185 191.500 C 185.550 191.840, 186 193.294, 186 194.730 C 186 196.167, 186.769 198.192, 187.708 199.230 C 189.332 201.025, 189.227 201.472, 185.563 208.309 C 183.443 212.264, 179.599 218.875, 177.020 223 C 174.441 227.125, 170.344 233.808, 167.915 237.851 C 165.487 241.894, 161.823 247.969, 159.773 251.351 C 157.724 254.733, 155.270 259.075, 154.321 261 C 152.723 264.240, 143.086 277.822, 140.272 280.799 C 139.597 281.514, 138.470 282.864, 137.767 283.799 C 137.064 284.735, 134.149 287.637, 131.288 290.250 C 127.557 293.657, 125.255 295, 123.150 295 C 120.458 295, 119 296.434, 119 299.082 C 119 299.587, 122.487 299.988, 126.750 299.973 C 134.134 299.947, 134.669 299.788, 138.083 296.612 C 144.453 290.687, 154.194 278.776, 159.411 270.536 C 166.497 259.345, 166.783 258.871, 168.483 255.500 C 169.315 253.850, 170.890 251.150, 171.983 249.500 C 173.076 247.850, 174.429 245.453, 174.989 244.174 C 175.550 242.895, 177.244 239.963, 178.754 237.658 C 182.892 231.342, 183.916 229.691, 185.069 227.467 C 185.649 226.348, 187.445 224.548, 189.059 223.467 C 190.673 222.385, 191.996 220.938, 191.997 220.250 C 191.999 219.563, 192.900 219, 194 219 C 195.338 219, 196 219.667, 196 221.014 C 196 223.032, 196.234 223.650, 199.331 229.831 C 200.249 231.663, 201 233.558, 201 234.043 C 201 235.005, 207.550 249.580, 209.070 252 C 209.589 252.825, 210.277 254.175, 210.600 255 C 211.532 257.383, 220.160 274.197, 222.145 277.500 C 223.137 279.150, 224.818 282.087, 225.880 284.026 C 226.943 285.965, 229.917 290.352, 232.491 293.776 L 237.170 300 247.222 300 L 257.275 300 256.585 291.496 C 256.182 286.527, 255.125 281.435, 254.043 279.246 C 249.852 270.771, 247 263.838, 247 262.126 C 247 260.512, 245.408 256.401, 243.079 252 C 242.643 251.175, 241.483 250.342, 240.501 250.149 C 238.946 249.844, 238.787 250.356, 239.263 254.149 C 240.468 263.759, 242.260 273.595, 243.106 275.236 C 243.598 276.191, 244 279.427, 244 282.427 C 244 285.427, 244.450 288.160, 245 288.500 C 246.748 289.580, 246.140 293, 244.200 293 C 242.057 293, 240 291.146, 240 289.213 C 240 288.451, 238.717 285.953, 237.148 283.663 C 232.053 276.224, 228.515 270.260, 224 261.500 C 222.866 259.300, 221.553 256.825, 221.081 256 C 220.283 254.604, 216.520 246.711, 209.162 231 C 207.488 227.425, 205.423 222.368, 204.575 219.762 C 203.068 215.136, 202.527 213.850, 200.156 209.264 C 198.138 205.360, 198.606 202.268, 202.162 196 C 202.630 195.175, 203.277 193.825, 203.600 193 C 204.394 190.972, 212.718 173.476, 215.256 168.500 C 216.379 166.300, 217.905 163.790, 218.649 162.921 C 219.392 162.053, 220 160.771, 220 160.072 C 220 158.901, 221.573 154.925, 224.311 149.174 C 225.984 145.661, 225.413 139.031, 223.299 137.428 C 219.533 134.572, 218.486 135.449, 213.655 145.500 C 211.540 149.900, 209.402 154.281, 208.905 155.236 C 208.407 156.191, 208 157.660, 208 158.500 C 208 159.340, 207.596 160.809, 207.103 161.764 C 206.609 162.719, 205.431 165.525, 204.486 168 C 203.540 170.475, 201.748 174.750, 200.504 177.500 C 199.260 180.250, 197.479 184.214, 196.547 186.308 C 194.498 190.909, 192.720 190.644, 191.903 185.617 C 191.570 183.572, 190.781 181.381, 190.149 180.749 C 189.517 180.117, 189 178.340, 189 176.800 C 189 175.260, 188.550 174, 188 174 C 187.450 174, 187 172.687, 187 171.083 C 187 169.479, 186.059 165.991, 184.908 163.333 C 181.252 154.888, 177 140.941, 177 137.396 C 177 135.513, 176.441 133.077, 175.757 131.983 C 174.049 129.248, 175.498 127.236, 181.513 123.993 C 189.991 119.423, 192.506 113.129, 186.231 112.191 C 184.094 111.872, 174.623 116.183, 173.512 117.981 C 172.246 120.029, 170.454 118.867, 168.500 114.732 C 166.803 111.141, 166.046 110.500, 163.500 110.500 L 160.500 110.500 160 118.939 L 159.500 127.378 153.793 131.439 C 150.654 133.672, 146.073 136.962, 143.613 138.750 C 141.152 140.537, 138.679 142, 138.117 142 C 137.022 142, 135.015 135.839, 135.006 132.450 C 135.003 131.323, 135.540 129.860, 136.201 129.199 C 137.135 128.265, 137.115 127.206, 136.109 124.426 C 134.549 120.110, 134.064 120.551, 148.491 113.138 C 154.230 110.189, 160.575 106.351, 162.590 104.608 C 165.854 101.787, 166.178 101.086, 165.546 98.212 C 164.487 93.387, 162.185 92.667, 157.084 95.564 C 150.323 99.404, 150.184 99.255, 150.743 88.750 C 151.202 80.131, 151.466 79.199, 154.618 75.086 C 156.522 72.601, 158 69.500, 158 67.991 C 158 64.388, 154.954 61.723, 151.754 62.526 C 149.421 63.111, 149.273 62.908, 149.273 59.138 C 149.273 55.899, 149.919 54.501, 152.636 51.868 C 157.733 46.928, 156.801 42, 150.769 42 C 147.400 42, 146.146 39.638, 148.228 37.213 C 149.994 35.155, 156 22.803, 156 21.228 C 156 19.601, 151.908 17, 149.349 17 C 148.136 17, 146.436 17.707, 145.571 18.571 M 190.706 85.772 C 189.765 86.812, 189 89.267, 189 91.247 C 189 94.214, 189.564 95.190, 192.250 96.869 C 194.037 97.986, 197.487 100.966, 199.916 103.492 C 202.345 106.017, 205.045 107.947, 205.916 107.781 C 207.811 107.420, 208.617 103.217, 207.085 101.685 C 206.488 101.088, 206 100.010, 206 99.289 C 206 98.567, 204.117 95.170, 201.816 91.739 C 199.514 88.307, 197.601 85.424, 197.564 85.331 C 197.526 85.238, 196.352 84.876, 194.954 84.525 C 193.149 84.072, 191.918 84.433, 190.706 85.772 M 69.367 96.703 C 68.193 96.926, 65.350 98.720, 63.048 100.691 L 58.864 104.273 54.976 100.477 C 51.619 97.198, 50.870 96.863, 49.480 98.016 C 48.355 98.950, 48.081 100.126, 48.567 101.926 C 50.502 109.081, 51.285 113.229, 52.169 121 C 53.607 133.643, 54.292 193.129, 53.089 200.859 C 51.931 208.296, 52.660 210, 57 210 C 58.515 210, 60.315 210.675, 61 211.500 C 63.320 214.295, 66.177 213.035, 73.402 206.030 C 80.189 199.449, 80.792 199.092, 84.209 199.646 C 87.461 200.174, 87.970 199.943, 89.232 197.367 C 91.412 192.916, 91.532 177.461, 89.413 174.226 C 87.950 171.994, 87.795 169.823, 88.295 158.577 C 88.730 148.793, 88.558 145.142, 87.609 144.010 C 85.374 141.345, 84 132.167, 84 119.904 C 84 109.054, 83.783 107.619, 81.630 104.230 C 77.632 97.938, 74.140 95.795, 69.367 96.703 M 64.580 111.919 C 60.337 116.227, 59.826 117.188, 60.463 119.669 C 60.864 121.226, 61.419 124.750, 61.698 127.500 C 61.977 130.250, 62.603 132.988, 63.088 133.584 C 63.573 134.181, 63.751 136.881, 63.484 139.584 C 62.660 147.916, 62.638 148.363, 62.822 153.250 C 62.924 155.978, 63.476 158, 64.118 158 C 64.733 158, 66.774 156.650, 68.653 155 C 70.532 153.350, 72.899 152, 73.912 152 C 76.918 152, 78.297 149.451, 77.556 145.264 C 77.190 143.194, 76.523 136.100, 76.075 129.500 C 74.878 111.864, 73.692 107, 70.590 107 C 69.949 107, 67.245 109.213, 64.580 111.919 M 120.265 161.843 C 114.323 164.858, 113.060 167.585, 118.119 166.474 C 120.026 166.055, 122.170 166.288, 123.639 167.074 C 126.628 168.674, 127.834 167.606, 128.214 163.025 C 128.581 158.599, 127.093 158.378, 120.265 161.843 M 74.136 166.750 C 72.835 167.655, 69.916 168.644, 67.649 168.948 C 63.557 169.496, 63.521 169.537, 62.853 174.500 C 62.483 177.250, 61.998 184.787, 61.776 191.250 C 61.413 201.799, 61.545 203, 63.071 203 C 64.005 203, 65.459 201.988, 66.301 200.750 C 67.144 199.512, 70.008 196.159, 72.666 193.297 C 75.325 190.436, 78.287 187.082, 79.250 185.844 C 81.433 183.036, 81.570 175.321, 79.506 171.364 C 78.685 169.789, 78.010 167.713, 78.006 166.750 C 77.999 164.614, 77.206 164.614, 74.136 166.750 M 125.500 187.186 C 120.550 188.838, 115.938 190.357, 115.250 190.563 C 113.656 191.040, 113.620 196.220, 115.200 197.800 C 115.860 198.460, 118.335 199, 120.700 199 C 123.690 199, 125 199.421, 125 200.381 C 125 201.140, 121.175 205.603, 116.500 210.300 C 110.198 216.630, 108 219.511, 108 221.440 C 108 225.113, 111.701 226.713, 115.611 224.731 C 117.200 223.926, 120.209 222.958, 122.298 222.579 C 124.387 222.201, 127.995 220.552, 130.318 218.916 C 132.640 217.279, 135.880 215.841, 137.519 215.720 C 139.976 215.538, 140.557 215.919, 140.837 217.891 C 141.139 220.020, 139.462 225.273, 136.897 230.236 C 136.404 231.191, 136 232.885, 136 234 C 136 235.115, 135.616 236.809, 135.147 237.764 C 134.678 238.719, 133.452 241.300, 132.422 243.500 C 127.174 254.709, 123.141 257.640, 119.694 252.750 C 118.822 251.512, 115.235 246.225, 111.723 241 C 104.671 230.509, 101.066 227.505, 98.548 230.024 C 97.216 231.355, 97.213 231.857, 98.521 234.379 C 99.335 235.946, 100 237.647, 100 238.157 C 100 239.216, 106.367 249.435, 110.936 255.708 C 112.621 258.022, 114 260.374, 114 260.935 C 114 261.495, 115.123 262.690, 116.496 263.589 C 119.266 265.405, 123.699 264.995, 128.797 262.451 C 132.420 260.644, 138.114 253.801, 139.989 249 C 140.741 247.075, 141.951 244.612, 142.678 243.527 C 143.405 242.443, 144 240.524, 144 239.264 C 144 238.004, 144.450 236.079, 145 234.986 C 145.550 233.894, 146.450 232.106, 147 231.014 C 147.550 229.921, 148 228.207, 148 227.205 C 148 226.202, 148.661 224.509, 149.468 223.441 C 150.381 222.235, 150.948 219.162, 150.968 215.323 C 150.997 209.821, 150.712 208.918, 148.365 207.073 C 145.088 204.494, 141.947 204.461, 134.962 206.931 C 128.460 209.230, 127.193 208.004, 131.808 203.880 C 133.510 202.360, 136.031 199.328, 137.410 197.142 C 138.790 194.956, 140.387 192.879, 140.959 192.525 C 143.839 190.745, 140.014 183.895, 136.250 184.091 C 135.287 184.141, 130.450 185.534, 125.500 187.186 M 210 246.500 C 210 247.325, 210.450 248, 211 248 C 211.550 248, 212 247.325, 212 246.500 C 212 245.675, 211.550 245, 211 245 C 210.450 245, 210 245.675, 210 246.500 M 213 251.351 C 213 251.544, 213.494 253.119, 214.098 254.851 C 215.115 257.770, 217 259.208, 217 257.065 C 217 255.078, 215 251, 214.025 251 C 213.461 251, 213 251.158, 213 251.351" stroke="none" fill="black" fill-rule="evenodd"/>
</svg>