<svg xmlns="http://www.w3.org/2000/svg" width="300" height="300" viewBox="0 0 300 300" version="1.1">
	<path d="M 100.029 8.886 C 96.669 11.411, 93.931 14.479, 92.761 17.032 C 90.517 21.928, 89.034 21.760, 87.542 16.441 C 86.497 12.717, 86.222 12.500, 82.540 12.500 C 79.068 12.500, 78.558 12.822, 77.853 15.458 C 77.112 18.229, 78.337 23.767, 80.961 29.500 C 82.555 32.983, 83.174 39.042, 83.663 55.935 C 84.020 68.247, 83.814 72.979, 82.843 74.792 C 81.670 76.984, 81.807 77.437, 84.287 79.571 C 87.756 82.554, 89.184 81.976, 92.036 76.431 C 94.065 72.485, 94.172 71.690, 92.975 69.453 C 91.912 67.467, 91.869 66.244, 92.774 63.714 C 93.511 61.655, 93.623 59.179, 93.084 56.824 C 92.577 54.606, 92.664 51.311, 93.303 48.519 C 94.081 45.119, 94.049 43.023, 93.181 40.624 C 90.602 33.492, 91.429 31.004, 98.750 23.861 C 102.463 20.239, 106.255 17.015, 107.177 16.697 C 111.870 15.079, 116.086 28.190, 115.222 41.719 L 114.825 47.938 110.545 47.351 C 107.862 46.983, 106.006 47.182, 105.573 47.882 C 105.193 48.497, 103.874 49, 102.641 49 C 99.335 49, 98 50.892, 98 55.578 C 98 62.682, 102.463 63.847, 108.908 58.424 C 112.660 55.267, 115.580 55.544, 115.305 59.031 C 114.930 63.787, 114.127 70.538, 113.436 74.740 C 112.714 79.133, 113.945 82, 116.551 82 C 118.808 82, 121 78.977, 121 75.863 C 121 74.216, 121.459 72.011, 122.020 70.962 C 122.968 69.191, 124.349 43.209, 124.037 33 C 123.812 25.617, 121.009 13.726, 118.679 10.266 C 116.196 6.581, 115.866 6.402, 109.838 5.498 C 105.757 4.886, 105.007 5.146, 100.029 8.886 M 100.427 32.471 C 98.923 34.767, 98.939 35.210, 100.654 38.721 C 102.199 41.883, 102.963 42.467, 105.338 42.300 C 109.301 42.020, 111 40.290, 111 36.533 C 111 30.344, 103.666 27.527, 100.427 32.471 M 129.500 84.960 C 119.602 86.504, 93.224 98.819, 79.109 108.485 C 74.747 111.473, 70.013 114.210, 68.589 114.567 C 67.165 114.924, 66 115.628, 66 116.131 C 66 117.387, 57.971 126, 56.799 126 C 56.279 126, 53.690 123.638, 51.047 120.750 C 48.404 117.862, 43.075 113.341, 39.205 110.701 L 32.169 105.903 28.460 107.452 C 25.012 108.893, 24.794 109.231, 25.374 112.251 C 26.038 115.710, 30.081 120, 32.676 120 C 36.312 120, 53 132.770, 53 135.552 C 53 137.273, 56.407 139.998, 58.579 140.014 C 60.394 140.027, 78 122.613, 78 120.805 C 78 120.362, 79.286 120, 80.858 120 C 83.625 120, 83.736 120.196, 84.365 126.218 C 84.902 131.353, 85.493 132.830, 87.757 134.695 C 90.048 136.580, 90.253 137.105, 89 137.876 C 82.493 141.879, 80.091 144.608, 80.046 148.050 C 79.998 151.783, 81.417 154, 83.856 154 C 85.642 154, 102.674 145.441, 109.446 141.141 C 112.166 139.413, 115.143 138, 116.061 138 C 118.486 138, 123 134.151, 123 132.082 C 123 129.787, 126.102 127, 128.657 127 C 130.479 127, 133.815 125.124, 144.119 118.305 C 147.813 115.860, 153.504 109.423, 155.750 105.150 C 157.553 101.719, 157.288 96.485, 155.094 92.184 C 151.634 85.402, 142.746 82.893, 129.500 84.960 M 130 95.460 C 121.217 97.201, 101.657 105.472, 94.370 110.527 C 93.175 111.356, 93.079 112.395, 93.869 115.912 C 94.477 118.619, 94.498 121.190, 93.924 122.700 C 91.989 127.789, 97.881 131.702, 100.022 126.750 C 101.170 124.095, 103.237 120.706, 104.139 120 C 104.490 119.725, 106.290 116.575, 108.139 113 L 111.500 106.500 116 106.500 C 121.872 106.500, 122.268 108.666, 117.668 115.625 C 115.804 118.444, 113.983 121.931, 113.621 123.375 C 112.985 125.908, 113.115 126, 117.326 126 C 120.516 126, 122.203 125.427, 123.595 123.870 C 124.643 122.699, 127.265 120.619, 129.423 119.249 C 139.066 113.123, 147.828 102.185, 146.485 97.952 C 145.465 94.738, 138.759 93.724, 130 95.460 M 109 164.439 C 102.801 166.739, 85.656 177.460, 82.500 181.010 C 81.400 182.247, 78.795 184.343, 76.711 185.667 C 74.627 186.991, 72.501 189.182, 71.986 190.537 C 71.444 191.963, 70.249 193, 69.147 193 C 68.101 193, 66.778 193.563, 66.208 194.250 C 64.813 195.930, 67.304 201.847, 69.708 202.567 C 72.728 203.472, 87.407 211.186, 89 212.706 C 90.325 213.970, 90.180 214.395, 87.750 216.356 C 86.237 217.576, 85 218.926, 85 219.354 C 85 220.390, 80.351 226.571, 76 231.320 C 66.101 242.125, 64.074 244.109, 59 247.956 C 54.414 251.432, 52.948 252.040, 50.180 251.614 C 48.354 251.333, 45.766 251.519, 44.430 252.027 C 39.359 253.955, 42.672 258.267, 50.638 260.106 C 55.368 261.198, 55.964 261.105, 60.195 258.626 C 67.844 254.143, 83.393 239.460, 84.644 235.538 C 84.988 234.459, 86.334 232.738, 87.635 231.715 C 88.937 230.691, 91.114 227.955, 92.474 225.635 C 93.834 223.314, 96.256 220.448, 97.856 219.265 L 100.765 217.114 110.633 222.157 C 116.060 224.931, 122.376 228.730, 124.668 230.600 C 126.961 232.470, 129.100 234, 129.421 234 C 130.248 234, 150.759 247.650, 155.144 251.118 C 157.148 252.703, 159.072 254, 159.418 254 C 159.765 254, 162.625 255.820, 165.774 258.045 C 168.923 260.269, 173.300 263.292, 175.500 264.761 C 177.700 266.231, 181.042 268.742, 182.927 270.342 C 184.812 271.941, 187.737 273.828, 189.427 274.535 C 191.117 275.241, 194.127 277.097, 196.115 278.660 C 198.104 280.222, 201.617 282.625, 203.922 284 C 206.228 285.375, 212.251 289.524, 217.307 293.221 C 227.661 300.790, 231.105 301.646, 234.911 297.595 C 237.097 295.267, 237.114 295.104, 235.432 292.537 C 234.477 291.078, 232.046 289.044, 230.030 288.015 C 228.015 286.987, 225.779 285.438, 225.061 284.573 C 224.343 283.708, 223.098 283, 222.296 283 C 221.493 283, 218.915 281.425, 216.565 279.500 C 214.216 277.575, 211.833 276, 211.269 276 C 210.706 276, 209.701 275.344, 209.035 274.543 C 208.370 273.741, 204.377 271.213, 200.163 268.925 C 195.948 266.636, 188.824 262.117, 184.331 258.882 C 179.838 255.647, 175.842 253, 175.451 253 C 175.059 253, 172.547 251.425, 169.867 249.500 C 167.188 247.575, 164.752 246, 164.456 246 C 164.159 246, 162.022 244.633, 159.708 242.962 C 155.351 239.816, 146.360 233.660, 130 222.621 C 124.775 219.095, 117.700 214.791, 114.278 213.056 C 110.856 211.320, 107.791 209.470, 107.466 208.945 C 107.141 208.419, 108.478 206.033, 110.438 203.641 C 112.397 201.250, 114 198.778, 114 198.147 C 114 197.516, 114.363 197, 114.807 197 C 116.035 197, 121.554 188.797, 123.909 183.473 C 126.897 176.718, 126.792 168.092, 123.686 165.174 C 121 162.651, 114.674 162.334, 109 164.439 M 110.500 175.739 C 109.400 176.011, 107.375 177.030, 106 178.002 C 104.625 178.975, 101.925 180.451, 100 181.283 C 95.495 183.229, 82.810 195.161, 83.773 196.548 C 85.106 198.469, 93.823 203, 96.178 202.996 C 99.974 202.990, 112.945 184.686, 114.172 177.604 C 114.534 175.508, 113.519 174.993, 110.500 175.739" stroke="none" fill="black" fill-rule="evenodd"/>
</svg>