<svg xmlns="http://www.w3.org/2000/svg" width="300" height="300" viewBox="0 0 300 300" version="1.1">
	<path d="M 135.901 24.619 C 135.016 25.685, 134.596 28.767, 134.671 33.651 L 134.783 41.064 131.514 42.430 C 127.486 44.113, 126.487 45.635, 126.874 49.499 C 127.312 53.870, 130.592 57.032, 133.985 56.353 C 137.363 55.677, 137.967 57.394, 137.986 67.727 C 137.999 74.341, 137.788 75.093, 135.498 76.593 C 134.122 77.495, 132.118 78.003, 131.045 77.722 C 128.291 77.002, 126.321 78.921, 125.628 83 C 124.794 87.905, 126.008 89.411, 130.139 88.598 C 137.276 87.195, 137.518 87.259, 137.281 90.500 C 137.160 92.150, 136.649 94.400, 136.145 95.500 C 135.641 96.600, 134.614 101.489, 133.864 106.364 L 132.500 115.228 128.218 117.506 C 125.863 118.759, 123.163 120.048, 122.218 120.372 C 121.273 120.696, 117.800 122.535, 114.500 124.459 C 107.341 128.633, 107.655 128.489, 102.030 130.167 C 98.051 131.354, 97.463 131.916, 96.669 135.299 C 95.947 138.378, 96.113 139.467, 97.544 141.049 C 99.853 143.601, 101.230 143.511, 106 140.500 C 108.178 139.125, 110.618 138, 111.421 138 C 112.225 138, 113.188 137.504, 113.563 136.898 C 113.938 136.292, 115.877 135.120, 117.872 134.294 C 119.867 133.468, 126.450 129.741, 132.500 126.013 C 138.550 122.284, 145.975 117.916, 149 116.307 C 152.025 114.697, 156.523 112.094, 158.997 110.522 C 166.866 105.520, 173.270 103.176, 181.814 102.172 C 193.183 100.835, 196.640 97.640, 191.874 92.874 C 189.958 90.958, 189.039 90.811, 182.595 91.395 C 174.636 92.116, 166.013 95.228, 160.663 99.308 C 158.722 100.789, 156.710 102, 156.193 102 C 154.894 102, 146.149 106.950, 145.450 108.080 C 144.712 109.276, 141 109.278, 141 108.083 C 141 107.579, 141.934 104.991, 143.076 102.333 C 144.218 99.675, 145.594 95.025, 146.133 92 C 147.404 84.874, 149.971 78.011, 151.386 77.959 C 153.477 77.882, 160.668 70.507, 161.359 67.729 C 162.845 61.759, 157.603 58.624, 154.374 63.552 C 152.054 67.092, 147.364 66.699, 147.783 63 C 147.939 61.625, 148.026 57.555, 147.975 53.956 L 147.883 47.411 152.942 43.146 C 155.724 40.800, 158 38.077, 158 37.095 C 158 34.325, 154.705 32, 150.780 32 C 147.802 32, 147.113 31.585, 146.582 29.469 C 145.981 27.077, 140.820 23.012, 138.372 23.004 C 137.752 23.002, 136.640 23.728, 135.901 24.619 M 48.714 81.620 C 47.523 82.810, 47.935 92.214, 49.387 97 C 51.134 102.762, 52.401 163.586, 51.112 179.865 C 50.131 192.256, 51.164 199.466, 54.191 201.359 C 55.470 202.158, 56.343 201.999, 57.770 200.708 C 59.826 198.847, 63.531 198.432, 64.473 199.956 C 65.496 201.612, 67.769 199.981, 69.039 196.678 C 69.712 194.930, 71.103 191.670, 72.131 189.434 C 73.159 187.198, 74 183.936, 74 182.184 C 74 179.667, 74.419 179, 76 179 C 77.439 179, 78 179.667, 78 181.378 C 78 184.540, 80.372 186.374, 83.458 185.600 C 86.528 184.829, 88.397 181.650, 87.191 179.250 C 86.708 178.287, 86.608 173, 86.969 167.500 C 87.331 162, 87.550 145.350, 87.457 130.500 L 87.287 103.500 84.046 97.709 C 80.535 91.434, 78.311 89.577, 73.179 88.633 C 66.509 87.405, 61.975 92.126, 63.328 98.891 C 63.846 101.479, 62.636 104, 60.876 104 C 60.478 104, 60.211 100.287, 60.283 95.750 C 60.457 84.757, 58.980 81.610, 53.456 81.203 C 51.240 81.040, 49.106 81.227, 48.714 81.620 M 68.938 104.087 C 67.057 106.729, 66.291 107.089, 63.620 106.587 L 60.500 106.001 60.831 125.248 C 61.013 135.834, 61.350 144.684, 61.580 144.914 C 61.810 145.143, 64.041 143.259, 66.538 140.726 C 69.726 137.493, 72.035 136.028, 74.289 135.810 L 77.500 135.500 78.263 125.563 C 78.754 119.161, 78.665 115.265, 78.013 114.613 C 77.456 114.056, 77 111.750, 77 109.489 C 77 106.733, 76.327 104.655, 74.961 103.189 C 72.278 100.308, 71.552 100.417, 68.938 104.087 M 150.727 135 C 149.329 136.100, 147.694 137, 147.095 137 C 146.496 137, 144.233 138.602, 142.066 140.559 C 138.232 144.023, 138.019 144.086, 134.095 142.910 C 128.411 141.207, 126.567 142.824, 127.385 148.794 C 127.715 151.199, 128.322 153.691, 128.736 154.333 C 129.699 155.829, 129.777 156.746, 130.366 173.500 C 130.880 188.136, 130.163 197.093, 127.604 208 C 126.765 211.575, 125.802 215.850, 125.464 217.500 C 125.126 219.150, 124.467 221.400, 124 222.500 C 123.533 223.600, 122.871 225.850, 122.530 227.500 C 122.188 229.150, 121.445 232.750, 120.879 235.500 C 120.223 238.684, 118.787 241.607, 116.925 243.548 C 112.532 248.125, 113.495 252, 119.026 252 C 122.860 252, 127.006 246.667, 128.355 240 C 128.633 238.625, 129.326 235.925, 129.894 234 C 130.463 232.075, 131.534 228.337, 132.275 225.694 C 133.617 220.909, 137.486 217.048, 141 216.987 C 143.326 216.946, 152.235 207.988, 160.792 197.083 C 165.199 191.467, 165.868 194.515, 168.561 232.500 C 168.834 236.350, 169.481 243.276, 170 247.892 C 171.485 261.115, 170.199 261.252, 159.610 249 C 152.217 240.447, 149.095 238.419, 147.441 241.095 C 146.621 242.422, 148.594 246.597, 151.649 250 C 152.884 251.375, 154.606 254.204, 155.476 256.287 C 157.335 260.738, 169.053 273, 171.447 273 C 172.356 273, 174.427 272.313, 176.050 271.474 L 179 269.949 178.969 258.224 C 178.953 251.776, 178.499 240.875, 177.962 234 C 177.425 227.125, 176.768 217.675, 176.501 213 C 175.678 198.567, 173.831 181.808, 172.314 175 C 171.517 171.425, 170.645 166.700, 170.376 164.500 C 170.107 162.300, 169.493 159.600, 169.012 158.500 C 168.531 157.400, 167.869 154.463, 167.541 151.973 C 167.213 149.484, 166.282 146.170, 165.472 144.609 C 164.663 143.048, 164 140.902, 164 139.840 C 164 136.904, 159.537 133, 156.180 133 C 154.579 133, 152.126 133.900, 150.727 135 M 147.979 151.750 C 142.313 158.181, 137.918 171.595, 140.878 173.424 C 141.361 173.723, 143.809 172.399, 146.318 170.483 C 151.041 166.877, 153.749 166.260, 157.066 168.035 C 160.449 169.846, 159.231 172.782, 152.309 179.503 C 147.298 184.369, 144.912 186, 142.809 186 C 139.820 186, 139.888 185.802, 139.541 195.638 C 139.481 197.364, 138.847 199.480, 138.133 200.340 C 136.795 201.951, 137.430 206, 139.020 206 C 139.507 206, 141.352 204.200, 143.120 202 C 144.888 199.800, 146.949 198, 147.699 198 C 148.449 198, 149.315 197.342, 149.624 196.538 C 149.932 195.734, 153.204 192.605, 156.894 189.586 L 163.604 184.097 162.877 176.488 C 162.477 172.302, 161.512 167.893, 160.731 166.689 C 159.951 165.485, 159.023 161.993, 158.668 158.928 C 157.939 152.616, 155.510 147, 153.509 147 C 152.769 147, 150.281 149.137, 147.979 151.750 M 71.500 149.980 C 69.850 151.011, 67.023 151.887, 65.219 151.927 C 63.414 151.967, 61.749 152.563, 61.519 153.250 C 61.289 153.938, 60.949 161.156, 60.763 169.292 C 60.433 183.697, 60.478 184.076, 62.462 183.792 C 63.770 183.604, 65.311 181.802, 66.766 178.757 C 68.424 175.286, 69.969 173.622, 72.523 172.555 C 76.986 170.690, 78.064 167.799, 78.307 157.035 C 78.485 149.160, 78.345 148.485, 76.500 148.303 C 75.400 148.195, 73.150 148.949, 71.500 149.980" stroke="none" fill="black" fill-rule="evenodd"/>
</svg>