<svg xmlns="http://www.w3.org/2000/svg" width="300" height="300" viewBox="0 0 300 300" version="1.1">
	<path d="M 141.200 34.200 C 140.540 34.860, 140 35.838, 140 36.372 C 140 36.907, 139.213 39.007, 138.250 41.040 C 136.463 44.812, 132.253 48, 129.057 48 C 128.078 48, 124.265 49.365, 120.585 51.034 L 113.893 54.068 114.197 58.682 C 114.674 65.944, 116.387 66.305, 126.362 61.244 C 135.916 56.397, 137 56.182, 137 59.134 C 137 61.818, 134.937 69.187, 133.831 70.450 C 133.374 70.973, 133 72.357, 133 73.526 C 133 74.695, 131.875 76.708, 130.500 78 C 127.259 81.044, 127.270 84.966, 130.527 88.025 C 133.009 90.357, 133.108 90.368, 136.065 88.620 C 137.722 87.642, 140.076 86.315, 141.298 85.671 C 142.520 85.027, 145.090 83.374, 147.009 81.997 C 148.929 80.621, 151.400 79.001, 152.500 78.396 C 154.850 77.105, 155.784 70.650, 153.942 68.430 C 153.289 67.644, 151.460 67, 149.878 67 C 147.101 67, 147 66.829, 147 62.122 C 147 59.007, 147.542 56.795, 148.500 56 C 149.325 55.315, 150 53.413, 150 51.772 C 150 50.049, 151.056 47.534, 152.500 45.818 C 156.173 41.452, 155.714 39.452, 150.250 36.021 C 145.071 32.769, 143.040 32.360, 141.200 34.200 M 41 82.800 C 41 83.240, 41.467 84.067, 42.037 84.637 C 42.753 85.353, 42.734 86.569, 41.975 88.567 C 41.165 90.696, 41.188 93.181, 42.060 97.980 C 42.849 102.320, 43.302 120.518, 43.413 152.416 C 43.560 194.534, 43.768 200.451, 45.134 201.313 C 47.258 202.652, 59.600 196.836, 60.474 194.083 C 61.399 191.167, 66.769 187, 69.601 187 C 71.347 187, 72.356 186.210, 73.117 184.250 C 74.001 181.971, 75.421 151.933, 75.134 141.571 C 75.089 139.960, 75.543 138.050, 76.143 137.328 C 76.827 136.503, 77.022 133.496, 76.666 129.257 C 76.353 125.540, 75.876 119.125, 75.604 115 C 75 105.839, 72.734 95.809, 69.747 89.080 C 65.935 80.493, 58.957 79.849, 55.086 87.727 C 53.024 91.922, 50.157 92.037, 49.341 87.957 C 48.948 85.991, 47.735 84.397, 45.916 83.457 C 42.776 81.833, 41 81.596, 41 82.800 M 166.171 93.294 C 165.580 94.006, 164.510 97.269, 163.793 100.544 L 162.490 106.500 155.840 109.681 C 150.124 112.415, 149.089 113.321, 148.472 116.127 C 147.858 118.922, 148.154 119.736, 150.524 121.774 C 152.047 123.085, 154.015 123.926, 154.897 123.644 C 161.753 121.450, 161.354 121.281, 160.663 126.095 C 159.263 135.859, 158.295 139.741, 156.687 142.037 C 154.582 145.042, 154.461 152.308, 156.487 153.989 C 158.393 155.571, 161.041 154.560, 161.712 151.995 C 161.999 150.898, 162.588 150, 163.022 150 C 163.456 150, 165.696 148.425, 168 146.500 C 170.304 144.575, 173.061 143, 174.127 143 C 175.192 143, 177.567 142.372, 179.403 141.605 C 182.030 140.507, 182.851 139.494, 183.254 136.855 C 183.963 132.210, 182.712 131.141, 176.167 130.797 L 170.500 130.500 170.645 125.153 C 170.725 122.212, 171.478 118.387, 172.319 116.653 C 175.199 110.716, 178 103.130, 178 101.268 C 178 99.019, 171.055 92, 168.830 92 C 167.958 92, 166.762 92.582, 166.171 93.294 M 57.958 102.750 C 56.874 105.362, 55.252 108.801, 54.353 110.392 C 53.044 112.708, 52.743 115.980, 52.838 126.821 C 52.904 134.266, 53.354 140.754, 53.838 141.238 C 54.346 141.746, 57.214 141.275, 60.609 140.126 L 66.500 138.134 66.435 130.817 C 66.304 116.167, 64.789 101.563, 63.212 99.750 C 60.913 97.107, 60.109 97.566, 57.958 102.750 M 120.378 102.750 C 120.070 103.713, 119.442 105.400, 118.982 106.500 C 118.523 107.600, 117.739 109.850, 117.241 111.500 C 116.117 115.224, 103.005 124.992, 99.100 125.015 C 95.527 125.036, 94.415 125.984, 93.711 129.605 C 93.007 133.232, 95.159 137, 97.935 137 C 100.986 137, 107.072 134.035, 110.374 130.939 C 112.093 129.328, 113.838 128.007, 114.250 128.005 C 116.782 127.989, 113.698 147.412, 110.630 150.807 L 108.545 153.113 110.522 156.807 C 113.531 162.425, 116.419 162.237, 122.265 156.043 C 124.883 153.269, 127.651 151, 128.416 151 C 130.806 151, 138.999 142.688, 139.259 140 C 139.471 137.797, 139.071 137.464, 135.889 137.198 C 133.187 136.972, 131.513 137.539, 129.244 139.448 C 125.220 142.834, 123.596 142.768, 124.377 139.250 C 124.713 137.738, 125.258 134.250, 125.589 131.500 C 126.243 126.068, 128.664 118.391, 130.476 116 C 131.845 114.194, 134 109.277, 134 107.959 C 134 106.331, 125.818 101, 123.319 101 C 121.930 101, 120.704 101.730, 120.378 102.750 M 59 151.164 C 53.004 152.848, 52.516 153.923, 52.354 165.791 C 52.274 171.681, 51.891 178.637, 51.503 181.250 C 50.876 185.481, 51.004 186, 52.677 186 C 53.710 186, 56.831 183.413, 59.614 180.250 L 64.674 174.500 65.365 162.250 C 66.136 148.579, 66.423 149.078, 59 151.164 M 164 158 C 162.625 159.076, 161.109 159.966, 160.631 159.978 C 159.491 160.007, 150.156 165.617, 136.500 174.479 C 130.450 178.405, 124.375 182.150, 123 182.801 C 121.625 183.453, 119.600 184.550, 118.500 185.241 C 109.821 190.687, 106.341 192.594, 101.760 194.415 C 96.909 196.343, 96.477 196.784, 96.199 200.088 C 95.467 208.817, 102.322 207.814, 118.210 196.867 C 125.419 191.899, 124.589 196.322, 114.241 218 C 112.272 222.125, 109.612 226.772, 108.330 228.327 C 107.049 229.881, 106 231.616, 106 232.182 C 106 232.748, 104.875 234.548, 103.500 236.182 C 100.496 239.752, 100.304 243.060, 102.960 245.464 C 105.619 247.870, 109.761 246.756, 111.325 243.215 C 111.984 241.722, 113.868 238.523, 115.512 236.107 C 119.969 229.554, 120.969 227.673, 120.985 225.809 C 120.993 224.879, 121.459 223.834, 122.021 223.487 C 123.190 222.765, 129.368 210.043, 131.541 203.884 C 132.343 201.610, 133 198.510, 133 196.997 C 133 195.483, 133.749 193.627, 134.666 192.872 C 135.582 192.118, 137.809 189.195, 139.614 186.378 C 142.659 181.628, 150.766 175, 153.531 175 C 154.184 175, 156.694 173.429, 159.109 171.510 C 161.761 169.402, 164.615 168.016, 166.316 168.010 C 169.990 167.997, 172.318 166.689, 174.444 163.446 C 176.111 160.901, 176.093 160.728, 173.911 158.405 C 171.179 155.497, 167.398 155.342, 164 158 M 232.940 167.573 C 231.892 168.835, 231.862 170.561, 232.789 176.323 C 234.639 187.825, 235.165 201.648, 234.214 213.773 C 233.409 224.048, 233.092 225.295, 230.632 227.862 C 222.185 236.679, 195.819 242.061, 182.371 237.713 C 179.692 236.847, 175.700 235.621, 173.500 234.990 C 167.494 233.265, 161.740 228.942, 159.514 224.480 C 156.807 219.056, 156.251 206.263, 158.405 199.007 C 160.045 193.486, 160.464 187.372, 159.393 184.582 C 158.657 182.663, 152.697 182.420, 151.272 184.250 C 150.202 185.624, 148.034 198.183, 147.290 207.312 C 146.744 214.008, 148.482 225.422, 150.482 228.278 C 151.234 229.351, 151.598 230.883, 151.292 231.681 C 150.715 233.186, 156.498 238.884, 158.679 238.959 C 159.327 238.982, 160.452 239.564, 161.179 240.253 C 163.143 242.116, 171.747 245.603, 178 247.071 C 186.982 249.178, 211.528 247.810, 221.678 244.636 C 228.698 242.441, 236.274 237.852, 241.161 232.835 C 245.940 227.928, 246 227.787, 246 221.368 C 246 217.793, 245.573 214.071, 245.052 213.097 C 244.530 212.122, 243.629 206.414, 243.049 200.412 C 242.470 194.411, 241.588 187.475, 241.090 185 C 240.592 182.525, 239.709 177.865, 239.128 174.645 C 237.677 166.611, 235.655 164.301, 232.940 167.573" stroke="none" fill="black" fill-rule="evenodd"/>
</svg>