<svg xmlns="http://www.w3.org/2000/svg" width="300" height="300" viewBox="0 0 300 300" version="1.1">
	<path d="M 89.719 8.306 C 88.888 9.575, 87.963 13.062, 87.663 16.056 C 86.563 27.062, 85.920 29.083, 83.132 30.295 C 81.684 30.924, 76.112 33.872, 70.750 36.846 C 62.091 41.649, 61 42.562, 61 45.005 C 61 49.194, 63.250 50.541, 67.913 49.144 C 70.030 48.510, 72.321 47.318, 73.004 46.495 C 73.686 45.673, 74.760 45, 75.390 45 C 76.020 45, 78.245 43.838, 80.335 42.419 C 84.830 39.364, 87.511 39.826, 86.590 43.497 C 86.248 44.860, 86.373 46.769, 86.867 47.738 C 89.047 52.008, 89.884 54.941, 90.794 61.500 C 92.421 73.220, 92.663 72.683, 79.920 85.684 C 68.075 97.771, 57 111.669, 57 114.447 C 57 117.499, 54.417 115.879, 46.020 107.560 C 41.334 102.918, 36.327 98.836, 34.894 98.488 C 31.993 97.784, 29 99.981, 29 102.813 C 29 103.732, 34.063 109.437, 40.250 115.492 C 46.438 121.546, 52.475 128.300, 53.667 130.500 C 54.859 132.700, 56.812 136.412, 58.006 138.750 C 59.805 142.269, 60.675 143, 63.070 143 C 67.229 143, 67.841 139.464, 65.126 131.122 C 62.511 123.086, 62.479 121.782, 64.843 119.642 C 65.857 118.725, 67.961 115.392, 69.518 112.237 C 71.150 108.933, 74.954 103.956, 78.491 100.500 C 81.868 97.200, 86.085 92.773, 87.863 90.661 C 93.009 84.549, 94.126 85.976, 93.785 98.232 C 93.516 107.912, 93.375 108.518, 91.324 108.810 C 89.840 109.021, 88.429 108.147, 86.886 106.060 C 83.804 101.891, 79.650 101.842, 77.526 105.950 C 75.085 110.669, 75.633 112.398, 80.730 116.058 C 84.233 118.574, 86.437 119.428, 89.230 119.355 C 91.552 119.294, 93 119.718, 93 120.457 C 93 123.187, 85.148 132.680, 80.468 135.608 C 72.357 140.683, 69.826 143.524, 70.187 147.150 C 70.658 151.888, 72.876 152.722, 78.176 150.157 C 80.627 148.971, 83.016 148, 83.487 148 C 83.958 148, 85.053 147.363, 85.921 146.585 C 86.790 145.806, 89.188 144.856, 91.250 144.473 L 95 143.777 95 147.523 C 95 152.061, 93.142 158.921, 91.327 161.079 C 90.597 161.947, 90 163.184, 90 163.826 C 90 164.469, 88.481 167.134, 86.623 169.748 C 84.766 172.361, 82.404 176.021, 81.373 177.881 C 80.343 179.740, 79.002 182.116, 78.393 183.161 C 74.652 189.579, 38.526 227, 36.070 227 C 35.652 227, 34.495 226.100, 33.500 225 C 28.983 220.009, 23.798 225.168, 27.250 231.218 C 30.465 236.853, 35.723 238.264, 39.934 234.622 C 40.795 233.878, 42.655 232.995, 44.067 232.661 C 45.478 232.327, 47.218 230.961, 47.933 229.626 C 48.647 228.290, 51.137 225.771, 53.465 224.026 C 55.793 222.282, 59.453 218.750, 61.597 216.177 C 63.741 213.605, 70.406 206.213, 76.409 199.750 C 88.192 187.064, 90.272 185.971, 95.139 189.911 L 97.500 191.823 97.500 225.735 C 97.500 259.621, 97.498 259.651, 95.053 264.880 C 92.745 269.814, 92.697 270.267, 94.207 272.806 C 95.088 274.288, 97.004 276.100, 98.465 276.833 C 100.864 278.038, 101.308 277.951, 103.060 275.930 C 104.127 274.700, 105.037 272.525, 105.081 271.097 C 105.126 269.669, 105.318 267.150, 105.509 265.500 C 105.700 263.850, 105.946 246.870, 106.055 227.767 C 106.218 199.372, 106.511 192.821, 107.657 191.870 C 108.750 190.963, 111.433 191.510, 119.830 194.353 C 125.754 196.359, 131.564 198, 132.742 198 C 133.919 198, 135.160 198.450, 135.500 199 C 135.840 199.550, 136.931 200, 137.924 200 C 138.918 200, 140.856 200.886, 142.233 201.968 C 143.609 203.051, 146.932 204.498, 149.618 205.183 C 152.303 205.868, 155.534 207.201, 156.797 208.145 C 158.060 209.089, 160.535 210.170, 162.297 210.546 C 164.059 210.923, 166.625 211.819, 168 212.537 C 175.044 216.217, 181.587 219, 183.195 219 C 184.186 219, 187.592 221.015, 190.764 223.478 C 199.490 230.254, 206 230.598, 206 224.282 C 206 219.657, 202.503 216.331, 195.242 214.050 C 189.254 212.169, 184.008 209.960, 174.669 205.386 C 173.112 204.624, 171.236 204, 170.500 204 C 169.764 204, 167.888 203.325, 166.331 202.500 C 160.698 199.515, 147.822 194, 146.486 194 C 145.734 194, 144.840 193.550, 144.500 193 C 144.160 192.450, 143.114 192, 142.176 192 C 141.238 192, 138.721 191.062, 136.582 189.916 C 134.443 188.770, 129.725 187.018, 126.097 186.023 C 120.370 184.453, 116.157 183.086, 107.500 179.986 C 105.654 179.325, 105.517 178.472, 105.724 168.885 C 105.848 163.173, 105.913 157.375, 105.869 156 C 105.654 149.249, 105.774 147.166, 106.612 143.108 C 107.464 138.982, 107.789 138.644, 112.009 137.507 C 119.301 135.543, 129.760 130.317, 130.987 128.024 C 131.613 126.854, 131.985 124.908, 131.813 123.698 C 131.551 121.855, 130.894 121.518, 127.750 121.614 C 125.194 121.692, 124 121.294, 124 120.364 C 124 119.614, 124.460 119, 125.022 119 C 125.584 119, 127.807 116.188, 129.963 112.750 C 132.119 109.313, 134.776 105.344, 135.867 103.932 C 139.768 98.882, 142.838 79.254, 140 77.500 C 139.450 77.160, 139 75.514, 139 73.842 C 139 69.764, 134.300 65.464, 127.701 63.504 C 123.567 62.276, 121.444 62.194, 116.588 63.075 C 113.286 63.673, 109.351 64.802, 107.842 65.582 C 106.334 66.362, 104.213 67, 103.129 67 C 100.785 67, 100.530 65.960, 98.865 49.597 L 97.654 37.695 100.383 35.347 C 101.883 34.056, 103.874 32.993, 104.806 32.985 C 107.653 32.960, 113.402 30.622, 116.373 28.282 C 118.817 26.357, 119.066 25.697, 118.266 23.282 C 117.478 20.902, 116.731 20.455, 113.096 20.189 C 110.254 19.981, 107.539 20.560, 104.893 21.939 C 97.927 25.570, 97.231 24.698, 97.917 13.207 C 98.058 10.846, 97.629 8.258, 96.964 7.457 C 95.143 5.263, 91.427 5.699, 89.719 8.306 M 114.959 72.879 C 111.210 73.299, 108.417 74.309, 106.324 76 C 103.275 78.464, 103.224 78.653, 102.857 89 C 102.506 98.858, 103.104 101.672, 105.264 100.337 C 105.737 100.045, 106.534 98.724, 107.037 97.403 C 108.255 94.200, 111.954 94.258, 115.026 97.527 L 117.400 100.055 114.450 105.600 C 112.828 108.649, 110.713 111.578, 109.750 112.107 C 108.787 112.637, 108 114.202, 108 115.585 C 108 116.968, 107.287 119.479, 106.415 121.165 C 105.251 123.415, 105.126 124.526, 105.942 125.342 C 107.694 127.094, 109.836 125.215, 117.246 115.418 C 127.843 101.410, 132.433 90.170, 131.164 81.339 C 130.111 74.009, 125.653 71.681, 114.959 72.879 M 94 179.500 C 94 180.325, 94.450 181, 95 181 C 95.550 181, 96 180.325, 96 179.500 C 96 178.675, 95.550 178, 95 178 C 94.450 178, 94 178.675, 94 179.500" stroke="none" fill="black" fill-rule="evenodd"/>
</svg>