<svg xmlns="http://www.w3.org/2000/svg" width="300" height="300" viewBox="0 0 300 300" version="1.1">
	<path d="M 114.500 25.353 C 101.388 30.604, 93.154 36.973, 90.986 43.543 C 88.477 51.143, 91.946 52.002, 98.897 45.500 C 106.073 38.787, 106.462 39.084, 107.948 52.417 C 108.648 58.696, 108.950 64.272, 108.620 64.806 C 108.289 65.341, 106.821 66.079, 105.356 66.447 C 103.891 66.814, 100.712 68.478, 98.291 70.143 C 92.858 73.882, 91 73.375, 91 68.157 C 91 66.009, 90.325 62.338, 89.500 60 C 88.675 57.662, 88 53.555, 88 50.874 C 88 48.193, 87.550 46, 87 46 C 86.450 46, 85.993 44.763, 85.985 43.250 C 85.967 40.031, 83.803 33.403, 82.269 31.869 C 79.807 29.407, 71.895 34.674, 72.683 38.249 C 73.314 41.116, 75.936 46.664, 78.429 50.411 C 80.490 53.509, 81.620 58.209, 83.017 69.500 C 84.024 77.635, 85.695 87.685, 87.050 93.764 C 87.572 96.110, 88.007 100.385, 88.015 103.264 C 88.023 106.144, 88.617 110.184, 89.333 112.242 C 90.726 116.239, 94.613 121, 96.484 121 C 97.109 121, 100.017 118.954, 102.946 116.453 C 110.884 109.677, 111.500 110.221, 111.500 124.014 L 111.500 135.500 95.868 143.500 C 87.271 147.900, 79.621 152, 78.868 152.612 C 78.116 153.224, 76.173 154.042, 74.551 154.431 C 72.928 154.820, 70.587 156.232, 69.348 157.569 C 67.817 159.222, 66.011 160, 63.708 160 C 61.154 160, 60.066 160.560, 59.283 162.277 C 58.523 163.946, 56.276 165.167, 50.873 166.847 C 46.818 168.108, 42.825 169.491, 42 169.921 C 39.965 170.980, 39.582 176.049, 41.354 178.471 C 42.784 180.425, 42.854 180.422, 49.648 178.137 C 60.666 174.432, 64.338 172.781, 67.065 170.307 C 68.476 169.027, 76.801 164.387, 85.565 159.994 C 94.329 155.602, 102.175 151.611, 103 151.125 C 106.372 149.141, 111.835 147.168, 112.398 147.731 C 113.601 148.934, 112.940 150.801, 110 154.500 C 108.231 156.726, 107 159.460, 107 161.162 C 107 163.322, 106.370 164.289, 104.500 165 C 102.823 165.638, 102 166.716, 102 168.275 C 102 169.554, 101.622 171.027, 101.160 171.550 C 100.698 172.072, 99.710 174.075, 98.964 176 C 98.218 177.925, 96.377 181.525, 94.873 184 C 93.369 186.475, 90.870 190.853, 89.320 193.729 C 84.755 202.195, 67.490 227.120, 60.584 235.214 C 54.504 242.340, 48.716 247.398, 41 252.328 C 36.461 255.228, 35.686 259.444, 39.382 261.128 C 41.662 262.167, 42.644 261.735, 49.920 256.496 C 54.333 253.318, 60.187 248.500, 62.927 245.788 C 68.015 240.753, 79.012 225.416, 79.004 223.365 C 79.002 222.741, 80.104 221.507, 81.453 220.623 C 82.803 219.738, 87.808 213.049, 92.577 205.758 C 97.345 198.466, 102.094 191.375, 103.130 190 C 104.166 188.625, 106.380 185.178, 108.051 182.340 C 111.243 176.918, 113.609 175.209, 115.417 177.017 C 116.149 177.748, 116.596 191.373, 116.795 219.057 L 117.089 260.015 113.545 262.106 C 109.509 264.487, 109.415 264.927, 111.580 271.280 C 114.072 278.596, 118.487 278.740, 122.262 271.630 C 124.416 267.573, 124.455 266.769, 124.477 226.015 C 124.498 187.987, 124.640 184.503, 126.178 184.206 C 127.102 184.027, 132.502 186.213, 138.178 189.063 C 143.855 191.913, 152.550 196.261, 157.500 198.726 C 167.802 203.856, 176.799 208.952, 189.108 216.630 C 193.843 219.584, 198.386 222, 199.203 222 C 200.021 222, 201.530 222.928, 202.556 224.061 C 203.582 225.195, 207.509 228.412, 211.284 231.210 L 218.147 236.298 220.178 234.266 C 223.323 231.121, 221.876 226.699, 216.489 222.992 C 214.097 221.346, 211.935 220, 211.685 220 C 211.435 220, 206.566 217.095, 200.865 213.546 C 195.164 209.996, 185.826 204.483, 180.113 201.296 C 174.399 198.108, 166.299 193.565, 162.113 191.200 C 157.926 188.835, 151.125 185.307, 147 183.360 C 134.441 177.432, 127.592 173.829, 125.641 172.125 C 124.015 170.703, 123.841 169.377, 124.249 161.500 C 124.605 154.632, 124.358 151.873, 123.204 149.855 C 121.823 147.438, 121.861 146.922, 123.649 143.855 C 126.817 138.421, 143.885 130.213, 178 117.719 C 185.336 115.032, 187.570 112.933, 186.072 110.134 C 184.357 106.930, 180.599 106.482, 174.697 108.778 C 160.080 114.465, 153.304 117.279, 140.500 122.982 C 120.102 132.068, 121.994 132.592, 122.032 117.867 C 122.065 104.955, 122.507 103.388, 126.750 101.128 C 128.747 100.064, 129 99.161, 129 93.087 C 129 88.455, 129.450 85.871, 130.395 85.087 C 131.162 84.451, 132.077 82.258, 132.428 80.215 C 132.779 78.172, 133.522 73.800, 134.079 70.500 C 134.636 67.200, 135.341 58.486, 135.647 51.135 C 136.264 36.278, 134.723 28.320, 130.681 25.489 C 128.124 23.698, 118.828 23.620, 114.500 25.353 M 117.250 34.584 C 113.652 36.158, 113.262 37.143, 115.500 39 C 116.638 39.945, 117 42.507, 117 49.622 C 117 57.126, 117.288 59, 118.443 59 C 120.986 59, 126.888 54.928, 127.607 52.677 C 128.651 49.405, 128.337 42.557, 126.946 38.291 C 125.103 32.637, 123.288 31.944, 117.250 34.584 M 82.667 51.667 C 81.516 52.817, 81.938 54, 83.500 54 C 84.325 54, 85 53.325, 85 52.500 C 85 50.938, 83.817 50.516, 82.667 51.667 M 123.234 71.250 C 122.679 71.938, 121.906 74.862, 121.518 77.750 C 120.932 82.110, 121.073 83, 122.347 83 C 124.459 83, 124.851 82.115, 125.613 75.635 C 126.270 70.045, 125.442 68.519, 123.234 71.250 M 103 79 C 102.175 79.533, 99.588 79.976, 97.250 79.985 L 93 80 92.995 84.750 C 92.989 91.747, 96.148 106, 97.705 106 C 98.417 106, 99.803 105.197, 100.786 104.214 C 101.768 103.232, 104.243 101.154, 106.286 99.596 L 110 96.763 110 88.581 C 110 80.305, 109.133 77.985, 106.050 78.015 C 105.198 78.024, 103.825 78.467, 103 79" stroke="none" fill="black" fill-rule="evenodd"/>
</svg>