<svg xmlns="http://www.w3.org/2000/svg" width="300" height="300" viewBox="0 0 300 300" version="1.1">
	<path d="M 52.200 74.200 C 51.540 74.860, 51 75.916, 51 76.546 C 51 77.177, 50.315 79.066, 49.478 80.744 C 47.965 83.776, 48.145 87.427, 50.621 104 C 51.070 107.006, 50.675 107.945, 47.822 110.651 C 43.316 114.925, 27.947 125, 25.933 125 C 24.356 125, 21.245 126.248, 14 129.789 C 10.092 131.700, 8.992 134.918, 11.528 137.024 C 12.855 138.125, 13.919 138.146, 17.327 137.140 C 19.622 136.463, 22.850 135.533, 24.500 135.073 C 31.223 133.203, 41.877 127.450, 46.086 123.418 C 50.512 119.177, 51.720 120.564, 52.414 130.682 C 52.747 135.532, 53.243 142.537, 53.516 146.250 L 54.014 153 51.162 153 C 49.593 153, 47.599 153.787, 46.730 154.750 C 44.276 157.469, 36 170.049, 36 171.061 C 36 172.946, 26.414 187.740, 18.739 197.699 C 14.148 203.656, 13.827 203.870, 9.739 203.688 C 6.075 203.526, 5.458 203.796, 5.190 205.680 C 4.814 208.315, 11.376 216, 14 216 C 14.973 216, 17.192 214.313, 18.933 212.250 C 27.778 201.773, 30.412 198.258, 31.661 195.268 C 32.412 193.471, 33.467 192, 34.006 192 C 34.544 192, 35.775 190.480, 36.742 188.621 C 39.163 183.968, 46.052 173.637, 47.244 172.873 C 48.586 172.011, 51.695 172.927, 53.076 174.592 C 54.324 176.095, 54.498 205.920, 53.347 220.893 C 52.727 228.962, 52.591 229.328, 49.851 230.362 C 48.283 230.954, 47 231.915, 47 232.497 C 47 234.251, 50.021 238, 51.434 238 C 52.161 238, 53.277 238.629, 53.914 239.397 C 55.356 241.134, 58.746 240.343, 60.015 237.972 C 61.099 235.947, 61.742 226.025, 62.620 197.776 C 63.042 184.174, 63.610 177.739, 64.449 177.043 C 65.799 175.922, 71.286 177.675, 89.775 185.136 C 96.169 187.716, 99.605 181.169, 93.500 178.038 C 91.850 177.192, 90.275 176.244, 90 175.931 C 89.200 175.020, 74.942 168.403, 69.829 166.570 C 67.260 165.649, 64.629 164.258, 63.983 163.479 C 62.784 162.035, 60.549 120.544, 61.416 115.852 C 61.656 114.558, 61.885 112.777, 61.926 111.893 C 61.967 111.009, 64.219 107.318, 66.931 103.690 C 73.634 94.723, 75.561 90.488, 74.409 87.258 C 73.090 83.559, 70.718 82.352, 67.578 83.783 C 65.626 84.672, 65 85.699, 65 88.014 C 65 91.486, 62.426 96, 60.446 96 C 58.725 96, 57.578 88.382, 58.277 81.604 C 58.572 78.751, 58.382 75.648, 57.857 74.708 C 56.746 72.724, 53.929 72.471, 52.200 74.200 M 113.743 105.755 C 111.258 107.328, 104 118.005, 104 120.087 C 104 120.552, 103.368 122.410, 102.596 124.216 C 101.824 126.022, 100.619 129.525, 99.918 132 C 99.218 134.475, 98.050 137.210, 97.322 138.079 C 96.595 138.947, 96 140.221, 96 140.909 C 96 141.598, 94.425 144.534, 92.500 147.434 C 88.469 153.508, 88.279 154.544, 90.934 155.965 C 96.238 158.803, 99.044 156.306, 104.944 143.500 C 107.224 138.550, 109.970 132.864, 111.045 130.864 C 112.120 128.864, 113 126.536, 113 125.691 C 113 124.845, 114.044 122.881, 115.320 121.327 C 116.596 119.772, 118.876 116.252, 120.386 113.505 L 123.133 108.511 120.511 106.255 C 117.367 103.551, 117.241 103.542, 113.743 105.755 M 138.741 114.377 C 134.221 116.053, 132 117.773, 132 119.597 C 132 121.319, 137.719 124.322, 139.614 123.595 C 141.524 122.862, 157.492 128.094, 163.383 131.383 C 168.943 134.487, 170.153 134.593, 172.345 132.171 C 174.664 129.609, 174.405 125.723, 171.750 123.266 C 168.959 120.683, 151.950 114.059, 146.518 113.440 C 144.308 113.188, 140.808 113.610, 138.741 114.377 M 123.189 147.494 C 121.405 148.995, 119.962 151.390, 119.565 153.506 C 118.875 157.183, 113.587 174.042, 112.038 177.500 C 111.546 178.600, 110.380 181.975, 109.448 185 C 108.517 188.025, 107.359 190.927, 106.877 191.450 C 106.395 191.972, 106 193.167, 106 194.105 C 106 195.044, 105.134 197.541, 104.075 199.655 C 99.754 208.283, 99 210.494, 99 214.531 C 99 219.890, 100.745 221.432, 106.013 220.725 C 110.692 220.098, 118.449 215.179, 125.530 208.351 C 128.296 205.683, 132.346 201.901, 134.530 199.947 C 139.966 195.082, 150 183.135, 150 181.527 C 150 178.380, 152.943 179.316, 155.626 183.316 C 157.170 185.617, 159.798 189.268, 161.466 191.428 C 166.861 198.414, 171.970 207.682, 174.735 215.500 C 175.982 219.024, 180.345 229.765, 184.384 239.250 C 186.248 243.629, 191.028 260.103, 191.013 262.095 C 190.996 264.236, 187.812 267, 185.362 267 C 184.273 267, 182.509 267.669, 181.441 268.487 C 179.542 269.943, 179.554 270.018, 182 271.965 C 183.375 273.060, 185.711 273.966, 187.191 273.978 C 188.671 273.990, 190.160 274.450, 190.500 275 C 190.840 275.550, 192.128 276, 193.363 276 C 196.001 276, 202.535 269.675, 201.548 268.077 C 201.176 267.475, 200.680 264.849, 200.446 262.241 C 200.212 259.633, 199.566 256.488, 199.010 255.250 C 197.009 250.794, 196.224 248.411, 194.976 243 C 193.407 236.201, 190.390 226.649, 188.343 222 C 184.094 212.350, 182.473 208.862, 178.815 201.500 C 174.688 193.192, 169.989 185.655, 165.725 180.500 C 164.360 178.850, 162.331 175.874, 161.216 173.887 C 159.172 170.246, 158.501 168.940, 155.902 163.550 C 155.120 161.928, 152.965 159.716, 151.114 158.635 C 146.244 155.790, 144.608 157.202, 144.313 164.502 C 144.064 170.666, 142.325 175.288, 138.107 181 C 135.163 184.986, 115.890 203.947, 114.750 203.979 C 112.740 204.035, 115.594 192.008, 118.653 187.527 C 119.394 186.443, 120 184.630, 120 183.500 C 120 182.370, 120.610 180.557, 121.356 179.473 C 122.648 177.593, 124.246 172.932, 127.004 163 C 127.692 160.525, 129.197 156.610, 130.349 154.300 L 132.443 150.101 130.047 147.550 C 127.096 144.409, 126.859 144.407, 123.189 147.494" stroke="none" fill="black" fill-rule="evenodd"/>
</svg>