<svg xmlns="http://www.w3.org/2000/svg" width="300" height="300" viewBox="0 0 300 300" version="1.1">
	<path d="M 119.851 48.701 C 117.463 51.478, 117.021 53.593, 118.078 57.193 C 118.612 59.012, 118.766 62.230, 118.420 64.344 C 117.891 67.582, 117.217 68.427, 114.146 69.698 C 112.141 70.529, 108.677 72.693, 106.448 74.509 C 104.220 76.324, 101.295 77.964, 99.948 78.154 C 97.829 78.454, 97.500 79.023, 97.500 82.391 C 97.500 87.035, 99.916 89.265, 102.750 87.239 C 103.713 86.550, 105.175 85.734, 106 85.425 C 106.825 85.116, 109.892 83.678, 112.817 82.230 C 117.311 80.005, 118.275 79.822, 119.051 81.049 C 119.556 81.847, 119.976 88.690, 119.985 96.255 L 120 110.011 113.260 114.755 C 109.553 117.365, 105.391 120.648, 104.010 122.050 C 101.074 125.033, 93.093 129.932, 80.500 136.483 C 75.550 139.058, 70.825 141.760, 70 142.488 C 67.812 144.418, 48.314 153, 46.116 153 C 43.611 153, 42.022 155.092, 41.341 159.284 C 40.689 163.304, 41.810 164.369, 46.510 164.192 C 49.812 164.068, 61.532 159.110, 66.092 155.909 C 67.517 154.908, 71.792 152.471, 75.592 150.492 C 79.391 148.514, 83.850 145.616, 85.500 144.053 C 87.150 142.490, 90.771 140.077, 93.546 138.692 C 99.915 135.513, 113.651 126.539, 117.190 123.244 C 121.974 118.792, 122.500 120.166, 122.500 137.125 L 122.500 152.500 119.542 152.283 C 115.981 152.022, 113 154.455, 113 157.621 C 113 158.892, 111.171 162.760, 108.935 166.216 C 106.699 169.672, 103.555 175.253, 101.947 178.617 C 100.340 181.982, 98.344 185.300, 97.512 185.990 C 96.680 186.680, 96 187.686, 96 188.226 C 96 189.534, 84.162 203.826, 76.101 212.250 C 69.308 219.349, 66 220.781, 66 216.622 C 66 215.315, 65.304 213.667, 64.454 212.962 C 63.171 211.897, 62.447 212.028, 60.204 213.731 C 57.837 215.528, 57.533 216.384, 57.762 220.591 C 58.053 225.916, 60.916 230, 64.359 230 C 68.234 230, 74.655 225.957, 81.546 219.178 C 89.490 211.364, 101.177 197.691, 102.166 195.054 C 102.533 194.078, 103.488 193.027, 104.288 192.720 C 105.089 192.413, 106.730 190.123, 107.936 187.632 C 109.142 185.141, 111.719 181.559, 113.663 179.670 C 115.607 177.782, 117.729 175.172, 118.378 173.869 C 119.028 172.566, 120.416 171.500, 121.463 171.500 C 123.294 171.500, 123.361 172.595, 123.219 200 C 123.050 232.554, 122.137 253.797, 120.872 254.579 C 120.395 254.874, 118.906 253.852, 117.565 252.308 C 115.415 249.833, 114.960 249.678, 113.722 251 C 112.658 252.137, 112.469 254.192, 112.941 259.500 C 113.498 265.763, 114.022 267.105, 117.926 272.250 C 120.325 275.413, 123.011 277.986, 123.894 277.969 C 126.111 277.925, 129.278 273.309, 129.646 269.586 C 129.813 267.889, 130.129 261.775, 130.346 256 C 130.564 250.225, 131.083 244.228, 131.499 242.672 C 131.915 241.117, 132.311 224.917, 132.378 206.672 L 132.500 173.500 136.222 173.717 C 138.405 173.844, 142.888 175.602, 147.062 177.967 C 150.976 180.185, 154.476 182, 154.840 182 C 155.203 181.999, 158.425 183.404, 162 185.122 C 177.384 192.513, 182.921 194.117, 199.500 195.988 C 203.350 196.423, 210.728 197.310, 215.896 197.961 C 227.059 199.366, 229.736 198.899, 230.616 195.394 C 231.864 190.420, 229.283 189.431, 210.500 187.687 C 196.573 186.394, 191.512 185.467, 182.500 182.560 C 170.928 178.827, 161.869 174.752, 159.918 172.401 C 159.278 171.631, 158.133 171, 157.373 171 C 156.612 171, 153.630 169.822, 150.745 168.382 C 147.577 166.800, 142.926 165.513, 139 165.132 L 132.500 164.500 131.721 152.500 C 130.909 139.999, 131.287 122.382, 132.515 115.500 C 133.200 111.664, 135.438 108, 137.098 108 C 137.532 108, 142.022 105.326, 147.076 102.057 C 152.431 98.594, 159.079 95.260, 163.007 94.066 C 168.347 92.444, 170.319 91.271, 172.494 88.419 C 174.815 85.375, 175.072 84.453, 174.154 82.438 C 172.313 78.397, 168.878 78.390, 162.019 82.410 C 158.649 84.384, 155.630 86, 155.309 86 C 154.988 86, 151.652 88.025, 147.895 90.500 C 144.138 92.975, 140.684 95, 140.219 95 C 139.755 95, 138.081 96.350, 136.500 98 C 132.108 102.585, 130.352 102.012, 129.755 95.799 C 129.480 92.938, 129.648 89.229, 130.127 87.556 C 130.607 85.882, 131 82.107, 131 79.166 C 131 74.059, 131.224 73.603, 136 69 C 138.750 66.349, 141 63.520, 141 62.713 C 141 59.476, 135.475 57.664, 130 59.105 C 128.827 59.414, 128.391 58.192, 128 53.500 C 127.514 47.670, 127.414 47.492, 124.449 47.201 C 122.466 47.007, 120.856 47.532, 119.851 48.701" stroke="none" fill="black" fill-rule="evenodd"/>
</svg>