<svg xmlns="http://www.w3.org/2000/svg" width="300" height="300" viewBox="0 0 300 300" version="1.1">
	<path d="M 63.396 39.977 C 61.612 40.698, 61.186 41.993, 60.599 48.475 C 60.217 52.681, 60.208 59.850, 60.578 64.407 L 61.250 72.691 56.640 76.596 C 47.862 84.030, 33.700 90.922, 24.500 92.235 C 22.122 92.574, 21.381 95.975, 23.018 99.033 C 24.035 100.933, 24.788 101.114, 29.831 100.668 C 38.308 99.918, 42.238 98.924, 44.885 96.860 C 46.197 95.837, 47.903 95, 48.678 95 C 49.452 95, 52.251 92.975, 54.897 90.500 C 57.543 88.025, 60.336 86, 61.104 86.001 C 62.239 86.001, 62.546 89.433, 62.747 104.363 C 62.952 119.656, 62.699 123.626, 61.233 128.113 C 59.738 132.690, 53.457 144.240, 48 152.446 C 47.175 153.687, 45.633 156.006, 44.574 157.601 C 21.437 192.421, 17.577 197.275, 12.063 198.486 C 10.071 198.924, 8.455 200.102, 7.763 201.621 C 6.472 204.455, 7.019 205.090, 12.291 206.875 C 15.984 208.126, 16.184 208.067, 20.044 204.579 C 22.223 202.611, 24.395 201, 24.870 201 C 25.345 201, 26.998 199.090, 28.543 196.755 C 30.088 194.421, 32.398 191.688, 33.676 190.683 C 34.954 189.677, 36.003 188.325, 36.006 187.677 C 36.009 187.030, 38.057 183.575, 40.556 180 C 43.054 176.425, 46.753 171.025, 48.775 168 C 50.797 164.975, 52.936 162.050, 53.528 161.500 C 54.120 160.950, 55.894 158.566, 57.471 156.203 C 59.455 153.229, 60.932 151.997, 62.267 152.203 C 64.082 152.482, 64.196 153.472, 64.196 169 C 64.196 186.216, 63.203 212.873, 62.418 216.750 C 62.068 218.474, 61.270 219, 59 219 C 56.663 219, 55.904 219.535, 55.401 221.537 C 54.485 225.190, 55.557 229.373, 58.582 233.945 C 61.865 238.906, 64.212 239.741, 67.709 237.194 C 69.791 235.677, 70.451 234.271, 70.675 230.871 C 71.936 211.733, 72.260 202.900, 72.653 177.033 C 72.899 160.827, 73.294 147.373, 73.530 147.136 C 74.255 146.411, 86.531 152.825, 88.426 154.919 C 89.406 156.001, 91.480 157.166, 93.035 157.508 C 94.590 157.849, 96.420 158.801, 97.101 159.622 C 97.783 160.443, 100.333 162.283, 102.767 163.710 C 107.540 166.507, 108.952 165.964, 108.985 161.321 C 109.004 158.609, 108.230 157.841, 96.395 148.816 C 83.316 138.844, 80.759 137.125, 78.905 137.058 C 78.028 137.026, 76.590 136.204, 75.709 135.231 C 74.400 133.785, 74.288 132.665, 75.092 129.086 C 75.946 125.285, 75.815 124.432, 74.100 122.605 C 72.301 120.689, 72.105 118.883, 71.912 102.500 C 71.621 77.864, 71.935 76.354, 79.131 67.763 C 84.272 61.624, 85 60.227, 85 56.500 C 85 52.085, 83.890 50.433, 80.529 49.845 C 78.999 49.577, 78.261 50.389, 77.231 53.474 C 75.716 58.014, 73.345 61, 71.255 61 C 70.069 61, 69.939 59.568, 70.505 52.750 C 71.130 45.224, 70.999 44.259, 69.022 41.750 C 66.670 38.766, 66.515 38.717, 63.396 39.977 M 159.109 48.891 C 157.246 50.754, 156.729 53.323, 155.405 67.271 C 154.872 72.889, 154.334 74.379, 152.246 76.021 C 150.863 77.109, 149.293 78, 148.759 78 C 148.225 78, 146.121 79.320, 144.084 80.933 C 142.048 82.546, 139.058 84.185, 137.441 84.575 C 135.823 84.964, 132.660 86.345, 130.412 87.642 C 128.164 88.939, 125.196 90, 123.817 90 C 118.603 90, 116.053 97.053, 119.883 100.883 C 121.566 102.566, 122.283 102.644, 126.633 101.610 C 132.284 100.268, 135.766 98.503, 143.636 92.990 C 151.427 87.532, 153.528 87.873, 151.129 94.203 C 150.651 95.466, 149.470 99.200, 148.505 102.500 C 147.541 105.800, 145.702 111.200, 144.420 114.500 C 143.137 117.800, 141.079 123.650, 139.846 127.500 C 138.613 131.350, 137.092 135.175, 136.467 136 C 135.841 136.825, 134.743 138.981, 134.026 140.791 C 133.310 142.602, 131.271 145.302, 129.497 146.791 C 126.629 149.200, 124.374 152.963, 122.650 158.221 C 121.647 161.278, 124.756 163.149, 130.272 162.809 C 134.943 162.521, 135.397 162.704, 136.944 165.500 C 140.026 171.070, 141.811 177.456, 143.048 187.335 C 143.752 192.954, 144.789 197.366, 145.467 197.626 C 146.121 197.877, 147.922 197.600, 149.471 197.011 L 152.288 195.940 151.750 186.193 C 151.449 180.719, 150.509 174.761, 149.607 172.601 C 148.723 170.486, 148 167.985, 148 167.042 C 148 166.099, 152.055 161.998, 157.027 157.915 C 164.445 151.822, 166.890 150.376, 170.738 149.803 C 176.656 148.922, 178 150.008, 178 155.669 C 178 161.430, 172.769 172.514, 162.402 188.720 C 160.531 191.645, 159 194.318, 159 194.659 C 159 195.673, 146.960 207, 145.883 207 C 144.341 207, 137.984 211.578, 136.413 213.820 C 135.178 215.583, 135.221 216.226, 136.750 218.913 C 139.047 222.949, 142.315 222.941, 149.196 218.884 C 156.555 214.545, 167.923 213.058, 184.680 214.242 C 196.907 215.106, 197.295 215.071, 199.617 212.890 C 202.443 210.236, 202.653 207.878, 200.250 205.787 C 198.927 204.635, 194.719 204.101, 183.016 203.598 C 174.500 203.232, 167.159 202.559, 166.702 202.102 C 166.245 201.645, 167.251 199.097, 168.936 196.440 C 170.621 193.783, 172 191.091, 172 190.459 C 172 189.827, 172.900 188.495, 174 187.500 C 175.100 186.505, 176 185.145, 176 184.480 C 176 183.814, 176.839 182.197, 177.865 180.885 C 181.077 176.778, 185.730 167.330, 186.509 163.332 C 186.920 161.225, 187.263 156.422, 187.271 152.659 C 187.284 146.121, 187.124 145.657, 183.659 142.193 C 180.314 138.847, 179.501 138.537, 173.127 138.177 C 167.038 137.833, 165.677 138.105, 161.637 140.473 C 157.422 142.943, 151.079 149.663, 148.393 154.504 C 146.459 157.989, 144.373 157.402, 142.114 152.736 C 139.613 147.568, 139.531 146.634, 141.445 145.045 C 142.240 144.386, 143.618 141.656, 144.507 138.980 C 145.396 136.303, 146.939 133.075, 147.935 131.807 C 148.932 130.538, 150.293 126.800, 150.960 123.500 C 151.627 120.200, 152.584 116.719, 153.086 115.764 C 153.589 114.809, 154 113.555, 154 112.978 C 154 112.402, 154.787 110.735, 155.750 109.275 C 156.713 107.816, 158.021 104.119, 158.657 101.061 C 160.559 91.916, 162.641 84.663, 164.169 81.850 C 165.749 78.943, 171.190 74, 172.811 74 C 173.373 74, 173.983 73.634, 174.167 73.187 C 174.350 72.740, 177.088 70.476, 180.250 68.156 C 185.522 64.288, 186 63.617, 186 60.091 C 186 57.907, 185.357 55.712, 184.513 55.011 C 182.524 53.360, 178.287 54.520, 177.524 56.925 C 176.860 59.016, 169.574 66, 168.056 66 C 166.116 66, 165.835 63.672, 167.020 57.395 C 168.121 51.559, 168.067 50.731, 166.465 48.962 C 164.225 46.487, 161.539 46.461, 159.109 48.891" stroke="none" fill="black" fill-rule="evenodd"/>
</svg>