<svg xmlns="http://www.w3.org/2000/svg" width="300" height="300" viewBox="0 0 300 300" version="1.1">
	<path d="M 137.250 49.662 C 134.929 50.599, 135.765 57.932, 138.574 61.270 C 139.989 62.952, 140.928 65.042, 140.659 65.914 C 139.560 69.486, 137.678 74.607, 136.866 76.236 C 134.057 81.870, 137.482 82.806, 142.789 77.856 C 152.085 69.185, 153.544 59.088, 146.635 51.250 C 144.740 49.101, 140.444 48.374, 137.250 49.662 M 63.559 52.530 L 61.074 55.212 61.690 72.989 L 62.307 90.765 58.216 93.633 C 54.560 96.195, 47.919 100.324, 38.216 106.068 C 34.027 108.548, 33.360 110.375, 35.471 113.596 C 37.584 116.821, 40.275 116.348, 47.735 111.443 C 50.614 109.549, 53.348 108, 53.810 108 C 54.273 108, 55.708 106.875, 57 105.500 C 59.506 102.832, 62.814 102.191, 63.448 104.250 C 63.659 104.938, 64.083 112.150, 64.388 120.278 C 64.906 134.063, 64.811 135.189, 62.972 137.028 C 61.887 138.113, 61 139.787, 60.999 140.750 C 60.998 144.489, 54.012 159.980, 49.491 166.269 C 48.396 167.792, 45.138 172.177, 42.250 176.015 C 39.362 179.852, 37 183.355, 37 183.800 C 37 184.244, 35.425 186.134, 33.500 188 C 31.575 189.866, 30 191.790, 30 192.275 C 30 194.046, 19.595 205.064, 17.403 205.614 C 16.162 205.925, 14.355 207.055, 13.387 208.125 C 11.701 209.987, 11.713 210.158, 13.664 212.109 C 16.699 215.143, 22.191 213.784, 27.824 208.605 C 32.270 204.518, 45.460 188.664, 49.959 182 C 51.259 180.075, 53.114 177.825, 54.083 177 C 55.051 176.175, 57.257 172.688, 58.986 169.250 C 62.652 161.959, 65.625 160.651, 64.666 166.750 C 64.341 168.813, 63.998 180.625, 63.902 193 C 63.703 218.701, 63.348 223, 61.426 223 C 60.680 223, 59.597 223.885, 59.018 224.966 C 56.618 229.451, 61.111 244.266, 65.272 245.586 C 69.010 246.773, 70.894 242.958, 71.243 233.500 C 71.361 230.304, 72.904 192.212, 73.390 180.500 C 73.875 168.815, 73.445 169.703, 78.250 170.459 C 80.588 170.827, 85.664 171.356, 89.530 171.635 C 95.627 172.075, 96.796 171.883, 98.333 170.185 C 100.041 168.297, 100.007 168.151, 97.390 166.092 C 95.897 164.917, 93.511 163.729, 92.088 163.450 C 89.603 162.963, 87.389 162.238, 80.196 159.554 C 74.069 157.267, 74.182 157.803, 73.936 130 C 73.610 93.119, 73.352 95.731, 77.750 91.424 C 79.813 89.405, 83.239 86.645, 85.364 85.292 C 89.078 82.926, 89.203 82.671, 88.570 78.715 C 87.860 74.274, 86.486 72, 84.512 72 C 82.375 72, 78 76.056, 78 78.037 C 78 79.078, 77.188 80.364, 76.196 80.895 C 72.605 82.817, 71.930 80.884, 71.885 68.564 C 71.852 59.349, 71.469 56.123, 70.123 53.713 C 67.816 49.583, 66.509 49.348, 63.559 52.530 M 159.500 71.963 C 158.400 72.423, 155.949 74.420, 154.054 76.400 C 152.158 78.380, 150.111 80, 149.504 80 C 148.897 80, 147.843 80.563, 147.162 81.250 C 146.482 81.938, 141.104 84.992, 135.212 88.038 C 125.836 92.885, 124.459 93.925, 124.175 96.376 C 123.799 99.621, 126.379 103, 129.233 103 C 132.041 103, 145.680 96.220, 149.349 93 C 151.082 91.479, 154.300 89.485, 156.500 88.568 C 161.658 86.420, 168 80.244, 168 77.370 C 168 76.146, 166.814 74.212, 165.365 73.073 C 162.458 70.786, 162.360 70.767, 159.500 71.963 M 147.578 102.750 C 145.775 104.542, 144.003 110.604, 144.035 114.872 C 144.054 117.417, 144.732 123.100, 145.542 127.500 C 148.382 142.937, 148.429 143.868, 146.471 146.032 C 145.477 147.130, 142.377 149.600, 139.582 151.522 C 136.787 153.443, 133.430 155.780, 132.121 156.715 C 129.814 158.364, 129.674 158.329, 127.469 155.563 C 124.220 151.489, 122.393 152.696, 121.546 159.476 C 121 163.851, 121.200 165.657, 122.444 167.555 C 124.070 170.036, 127.373 170.824, 128.500 169 C 128.840 168.450, 130.113 168, 131.329 168 C 132.545 168, 136.230 165.980, 139.520 163.511 C 142.809 161.042, 145.950 159.170, 146.500 159.351 C 149.320 160.278, 144.846 204.342, 141.601 207.607 C 140.995 208.216, 136.675 209.510, 132 210.481 C 127.325 211.453, 121.830 213.092, 119.790 214.124 C 117.749 215.156, 115.421 216, 114.617 216 C 112.083 216, 107 221.021, 107 223.524 C 107 226.909, 108.608 230.635, 110.357 231.307 C 111.188 231.626, 116.697 229.388, 122.599 226.334 C 131.951 221.495, 133.855 220.852, 137.415 221.333 C 139.662 221.636, 148.475 221.278, 157 220.538 C 165.525 219.797, 174.750 219.173, 177.500 219.150 C 184.411 219.094, 211.112 220.945, 218.989 222.026 C 227.926 223.253, 230.228 221.798, 229.802 215.193 L 229.500 210.500 204.500 209.727 C 190.750 209.302, 173.650 208.852, 166.500 208.727 L 153.500 208.500 153.572 200.500 C 153.612 196.100, 154.171 188.675, 154.814 184 C 155.458 179.325, 155.988 170.914, 155.992 165.309 C 155.997 159.602, 156.440 154.846, 157 154.500 C 157.550 154.160, 158 152.874, 158 151.642 C 158 150.205, 160.533 146.849, 165.062 142.284 C 171.866 135.426, 172.112 135.009, 171.812 130.833 C 171.518 126.748, 171.313 126.482, 168.240 126.186 C 165.450 125.917, 164.730 126.335, 163.240 129.093 C 161.239 132.796, 158.400 136, 157.120 136 C 156.028 136, 154.941 125.819, 155.039 116.500 C 155.124 108.388, 152.971 102, 150.153 102 C 149.152 102, 147.994 102.338, 147.578 102.750" stroke="none" fill="black" fill-rule="evenodd"/>
</svg>