<svg xmlns="http://www.w3.org/2000/svg" width="300" height="300" viewBox="0 0 300 300" version="1.1">
	<path d="M 119.469 40.500 C 119.211 41.325, 118.692 42.788, 118.315 43.750 C 117.939 44.712, 117.376 48.650, 117.065 52.500 L 116.500 59.500 108.598 62.187 C 98.409 65.653, 97.286 66.718, 99.436 70.876 C 101.250 74.384, 103.050 74.713, 108.346 72.500 C 110.320 71.675, 112.901 71, 114.081 71 C 115.972 71, 116.148 71.387, 115.562 74.250 C 115.196 76.037, 114.497 79.975, 114.008 83 C 113.519 86.025, 112.667 90.525, 112.114 93 C 111.562 95.475, 110.697 99.404, 110.192 101.732 C 109.688 104.059, 108.844 106.534, 108.318 107.232 C 107.791 107.929, 106.755 110.419, 106.015 112.764 C 105.276 115.110, 104.070 117.527, 103.335 118.137 C 102.601 118.746, 102 120.450, 102 121.922 C 102 123.395, 101.457 125.143, 100.793 125.807 C 99.850 126.750, 99.974 127.396, 101.357 128.757 C 103.044 130.416, 103.226 130.380, 105.141 128 C 106.247 126.625, 108.047 124.451, 109.140 123.168 C 112.501 119.227, 114.992 114.608, 114.996 112.309 C 114.998 111.104, 115.450 109.840, 116 109.500 C 116.550 109.160, 117 108.029, 117 106.985 C 117 105.942, 118.125 103.431, 119.500 101.405 C 120.875 99.379, 122 96.984, 122 96.083 C 122 95.182, 122.675 93.481, 123.500 92.304 C 124.325 91.126, 124.742 89.492, 124.427 88.672 C 124.113 87.851, 124.563 85.812, 125.428 84.140 C 126.292 82.468, 127 79.529, 127 77.609 C 127 75.689, 127.450 73.840, 128 73.500 C 128.550 73.160, 129 71.607, 129 70.048 C 129 67.267, 131.201 65.388, 133.090 66.556 C 134.449 67.395, 134.109 73.955, 132.471 78.500 C 131.679 80.700, 131.023 83.486, 131.015 84.691 C 131.007 85.896, 130.550 87.160, 130 87.500 C 129.450 87.840, 128.986 89.554, 128.968 91.309 C 128.951 93.064, 128.276 95.374, 127.468 96.441 C 125.099 99.573, 125.546 109.037, 128.250 113.010 C 133.004 119.995, 134.526 120.500, 150.825 120.500 C 168.476 120.500, 171.593 119.626, 178.750 112.670 C 183.623 107.935, 184 107.229, 184 102.843 C 184 100.244, 183.550 97.840, 183 97.500 C 182.450 97.160, 182 96.072, 182 95.083 C 182 94.094, 180.425 90.263, 178.500 86.569 C 176.575 82.876, 175 79.297, 175 78.614 C 175 77.932, 173.647 76.078, 171.993 74.494 C 169.656 72.254, 168.720 71.880, 167.788 72.812 C 166.855 73.745, 166.890 75.068, 167.943 78.756 C 168.688 81.365, 169.505 84.967, 169.759 86.759 C 170.013 88.552, 170.621 90.266, 171.110 90.568 C 171.600 90.871, 172 92.415, 172 94 C 172 95.585, 172.450 97.160, 173 97.500 C 174.536 98.449, 174.188 102.783, 172.352 105.586 C 169.810 109.466, 165.980 110.902, 154.988 112.098 C 143.518 113.346, 138.479 112.764, 137.012 110.023 C 135.476 107.152, 135.795 95.917, 137.506 92.636 C 138.328 91.060, 139 88.724, 139 87.445 C 139 86.165, 139.450 84.840, 140 84.500 C 140.550 84.160, 141.016 82.671, 141.035 81.191 C 141.055 79.711, 141.714 77.375, 142.500 76 C 145.031 71.572, 144.391 64.840, 140.994 60.150 C 138.605 56.853, 137.363 56, 134.948 56 C 130.136 56, 127 52.152, 127 46.245 C 127 43.580, 126.460 40.860, 125.800 40.200 C 124.112 38.512, 120.029 38.705, 119.469 40.500 M 62.200 50.200 C 61.540 50.860, 61 53.100, 61 55.177 C 61 58.102, 61.564 59.323, 63.500 60.592 C 65.457 61.874, 66 63.075, 66 66.115 C 66 70.895, 67.238 71.005, 72.294 66.675 C 75.475 63.951, 76.116 62.748, 76.256 59.238 C 76.482 53.577, 72.349 49, 67.013 49 C 65.026 49, 62.860 49.540, 62.200 50.200 M 45.667 97.667 C 45.300 98.033, 45 99.561, 45 101.061 C 45 104.126, 49.863 110, 52.401 110 C 53.281 110, 54 110.374, 54 110.831 C 54 111.288, 55.080 112.240, 56.400 112.947 C 60.426 115.101, 62.350 120.871, 61.765 129.038 C 61.486 132.946, 60.749 136.651, 60.128 137.272 C 59.508 137.892, 59 139.408, 59 140.641 C 59 141.874, 58.550 143.160, 58 143.500 C 56.604 144.363, 56.748 150.348, 58.200 151.800 C 60.018 153.618, 62.639 153.253, 66.853 150.593 C 71.605 147.593, 76 142.464, 76 139.918 C 76 138.858, 77.042 135.831, 78.315 133.191 C 80.841 127.956, 80.780 126, 78.091 126 C 76.246 126, 73.494 128.689, 70.641 133.282 C 69.690 134.812, 68.539 135.833, 68.083 135.551 C 67.627 135.269, 67.271 130.299, 67.291 124.507 C 67.328 114.256, 67.248 113.875, 64.309 110.237 C 61.239 106.438, 49.392 97.204, 47.417 97.072 C 46.821 97.033, 46.033 97.300, 45.667 97.667 M 109.930 129.131 C 108.689 131.449, 109.487 144.521, 111.134 148.852 C 111.772 150.531, 111.661 151.878, 110.775 153.212 C 108.063 157.296, 75.797 173.507, 67 175.205 C 59.642 176.625, 57.366 178.793, 58.620 183.190 C 59.357 185.774, 60.171 186.570, 62.330 186.821 C 65.642 187.205, 77.489 183.601, 81 181.141 C 82.375 180.178, 85.075 178.753, 87 177.974 C 90.901 176.397, 94.731 174.308, 104.002 168.698 C 107.458 166.607, 110.848 165.112, 111.536 165.375 C 112.231 165.642, 113.108 168.623, 113.510 172.086 C 114.169 177.763, 114.040 178.461, 112.060 179.955 C 110.865 180.856, 109.350 182.522, 108.693 183.657 C 108.037 184.792, 106.180 187.695, 104.567 190.110 C 94.669 204.928, 92.996 207.624, 92.998 208.750 C 92.999 209.438, 92.622 210, 92.161 210 C 91.699 210, 90.839 211.059, 90.249 212.353 C 87.835 217.651, 64.720 246.706, 58.859 251.809 C 57.401 253.079, 54.248 255.885, 51.854 258.045 C 46.860 262.549, 44.870 262.921, 42.715 259.750 C 41.467 257.913, 40.848 257.702, 39.343 258.602 C 35.494 260.904, 36.413 267.450, 41.068 270.892 C 44.109 273.141, 44.316 273.161, 47.852 271.556 C 49.859 270.646, 53.193 268.461, 55.263 266.701 C 57.332 264.940, 60.950 261.928, 63.301 260.006 C 67.431 256.631, 74.066 249.236, 78.774 242.761 C 80.025 241.041, 83.940 236.594, 87.475 232.880 C 91.010 229.165, 95.072 223.960, 96.502 221.313 C 105.590 204.484, 109.045 201.752, 113.015 208.250 C 114.929 211.382, 114.983 212.882, 114.505 249.500 C 113.878 297.498, 113.872 297.141, 115.209 298.752 C 115.902 299.587, 117.881 299.985, 120.414 299.800 C 124.269 299.517, 124.490 299.330, 124.317 296.500 C 123.941 290.316, 122.901 250.381, 123.041 247.500 C 123.122 245.850, 123.305 238.133, 123.448 230.351 C 123.592 222.569, 123.985 215.481, 124.323 214.601 C 125.307 212.036, 127.992 212.684, 138.401 218 C 143.786 220.750, 148.740 223, 149.409 223 C 150.078 223, 152.958 224.125, 155.808 225.500 C 158.658 226.875, 161.215 228, 161.491 228 C 161.766 228, 165.401 229.575, 169.569 231.500 C 173.736 233.425, 177.608 235, 178.173 235 C 178.738 235, 182.868 236.730, 187.350 238.844 C 191.833 240.959, 197.412 243.520, 199.750 244.537 C 202.088 245.553, 204 246.748, 204 247.192 C 204 247.637, 204.640 248, 205.423 248 C 206.206 248, 208.217 249.153, 209.892 250.563 C 214.336 254.302, 221.988 258.147, 224.297 257.800 C 225.398 257.635, 227.244 256.226, 228.400 254.669 L 230.500 251.837 227.910 249.669 C 221.977 244.701, 219.489 243, 218.155 243 C 217.380 243, 212.356 240.770, 206.992 238.045 C 201.628 235.319, 193.473 231.519, 188.870 229.600 C 184.266 227.681, 178.609 225.186, 176.298 224.056 C 173.987 222.925, 171.512 222.001, 170.798 222.003 C 170.084 222.004, 167.700 221.146, 165.500 220.095 C 143.935 209.796, 133.448 205.362, 128.423 204.420 C 126.453 204.050, 124.661 203.242, 124.441 202.624 C 123.944 201.226, 122.867 179.725, 122.657 167 L 122.500 157.500 126.500 156.653 C 128.700 156.186, 131.175 155.393, 132 154.890 C 132.825 154.387, 135.300 153.137, 137.500 152.112 C 141.334 150.327, 144.941 147.411, 147.868 143.730 C 149.036 142.262, 148.996 141.643, 147.595 139.505 C 145.427 136.196, 143.763 136.345, 139.253 140.250 C 133.142 145.542, 126.514 149, 122.483 149 C 120.050 149, 120.068 149.057, 118.256 135.500 C 117.815 132.200, 117.101 128.938, 116.668 128.250 C 115.394 126.224, 111.192 126.773, 109.930 129.131 M 71.500 154 C 71.840 154.550, 72.965 155, 74 155 C 75.035 155, 76.160 154.550, 76.500 154 C 76.862 153.415, 75.824 153, 74 153 C 72.176 153, 71.138 153.415, 71.500 154" stroke="none" fill="black" fill-rule="evenodd"/>
</svg>