<svg xmlns="http://www.w3.org/2000/svg" width="300" height="300" viewBox="0 0 300 300" version="1.1">
	<path d="M 186.104 69.854 C 184.947 71.479, 184 73.247, 184 73.782 C 184 74.317, 183.341 75.302, 182.536 75.971 C 181.730 76.639, 179.440 79.643, 177.446 82.647 C 175.453 85.650, 173.333 87.944, 172.735 87.745 C 172.137 87.546, 171.164 85.830, 170.574 83.934 C 168.574 77.511, 167.662 76.653, 163.634 77.409 C 160.547 77.988, 160 78.487, 160 80.727 C 160 82.177, 161.849 87.874, 164.110 93.386 L 168.219 103.408 168.669 119.454 C 168.973 130.329, 168.608 140.012, 167.534 149.500 C 166.663 157.200, 165.502 167.550, 164.955 172.500 C 163.014 190.049, 160.005 204.727, 157.662 208.073 C 155.218 211.561, 155.490 215.633, 158.213 216.345 C 161.237 217.136, 163.488 214.859, 167.040 207.416 C 168.957 203.399, 170 199.635, 170 196.733 C 170 194.268, 170.675 190.338, 171.500 188 C 172.325 185.662, 173 181.866, 173 179.565 C 173 174.179, 175.090 171, 177.381 172.901 C 180.455 175.453, 185.455 173.377, 192.343 166.688 C 195.876 163.259, 198.936 159.563, 199.143 158.476 C 199.351 157.389, 200.469 156.364, 201.628 156.198 C 203.641 155.909, 203.740 156.331, 203.851 165.698 C 203.914 171.089, 204.412 179.550, 204.956 184.500 C 205.501 189.450, 206.440 198, 207.044 203.500 C 208.195 213.985, 209.214 273.865, 208.308 277.750 C 207.555 280.980, 204.643 280.548, 201.554 276.750 C 196.149 270.104, 192.012 264.367, 189.295 259.751 C 186.169 254.440, 184.650 254.147, 184.191 258.765 C 183.348 267.261, 193.284 283.145, 204.512 291.250 C 209.137 294.588, 211.045 294.693, 213.621 291.750 C 218.258 286.454, 220.234 276.728, 218.942 265.556 C 218.235 259.432, 217.660 247.419, 216.574 216 C 215.899 196.493, 213.812 171.440, 211.825 159 C 211.254 155.425, 210.652 146.650, 210.487 139.500 C 210.116 123.468, 208.418 110.031, 203.029 80.500 C 202.628 78.300, 201.215 74.475, 199.891 72 C 197.623 67.764, 197.209 67.482, 192.845 67.199 C 188.689 66.930, 187.990 67.205, 186.104 69.854 M 54.667 71.667 C 53.501 72.832, 53.948 81.771, 55.394 86.215 C 56.160 88.572, 57.079 92.889, 57.436 95.808 C 58.058 100.902, 57.948 101.244, 54.694 104.308 C 45.157 113.289, 36.608 117.418, 23.056 119.591 C 17.800 120.433, 13.127 121.490, 12.672 121.940 C 12.216 122.389, 11.991 124.045, 12.172 125.619 C 12.474 128.255, 12.923 128.543, 17.804 129.241 C 25.027 130.273, 39.236 126.704, 43.439 122.800 C 44.505 121.810, 45.933 121, 46.612 121 C 47.291 121, 49.846 119.474, 52.290 117.608 C 54.734 115.743, 57.175 114.506, 57.715 114.858 C 59.015 115.708, 60.413 130.788, 60.461 144.484 L 60.500 155.468 57.694 156.815 C 56.151 157.556, 54.511 159.157, 54.049 160.372 C 53.586 161.588, 52.561 163.120, 51.769 163.777 C 50.977 164.434, 49.712 166.890, 48.958 169.236 C 48.204 171.581, 46.382 175.075, 44.910 177 C 43.439 178.925, 41.948 181.738, 41.598 183.250 C 41.248 184.762, 40.534 186, 40.012 186 C 39.489 186, 37.416 188.588, 35.405 191.750 C 33.395 194.912, 29.293 200.313, 26.290 203.750 C 21.127 209.661, 20.590 210, 16.384 210 C 13.289 210, 11.756 210.471, 11.342 211.551 C 10.458 213.856, 14.829 218, 18.144 218 C 20.729 218, 26.554 215.351, 29.923 212.643 C 31.045 211.741, 39.564 201.608, 47.032 192.292 C 47.564 191.628, 48 190.718, 48 190.270 C 48 189.822, 49.403 187.753, 51.118 185.673 C 53.502 182.781, 54.848 181.962, 56.833 182.195 C 60.340 182.607, 60.701 184.916, 60.371 204.801 C 60.133 219.150, 59.857 221.495, 58.070 224.387 C 56.299 227.252, 56.217 227.915, 57.429 229.572 C 58.425 230.934, 58.535 232.001, 57.817 233.341 C 56.627 235.566, 57.568 241.599, 59.597 244.750 C 61.269 247.346, 63.647 247.580, 66.500 245.428 C 68.311 244.062, 68.566 242.294, 69.196 226.710 C 69.579 217.244, 69.988 208.600, 70.105 207.500 C 70.223 206.400, 70.076 201.106, 69.779 195.735 C 69.474 190.219, 69.639 185.723, 70.159 185.402 C 70.665 185.089, 75.217 184.640, 80.274 184.405 C 87.603 184.064, 89.854 183.590, 91.373 182.072 C 92.433 181.011, 93.014 179.478, 92.682 178.615 C 91.719 176.103, 85.227 174, 78.437 174 C 74.472 174, 71.823 173.534, 71.325 172.750 C 70.581 171.579, 70.322 166.377, 70.164 149.500 C 70.128 145.650, 69.968 140.250, 69.809 137.500 C 69.649 134.750, 69.515 126.425, 69.510 119 C 69.498 102.873, 69.716 102.335, 80.574 91.651 C 86.984 85.345, 88.101 83.756, 87.826 81.348 C 87.552 78.958, 86.985 78.450, 84.296 78.190 C 79.796 77.755, 77.767 79.137, 73.524 85.530 C 69.033 92.296, 66.343 92.668, 66.777 86.461 C 66.930 84.283, 66.342 80.189, 65.470 77.364 C 64.100 72.924, 63.469 72.144, 60.818 71.614 C 56.888 70.828, 55.494 70.840, 54.667 71.667 M 121.813 82.250 C 114.450 90.976, 112 94.588, 112 96.722 C 112 97.840, 111.292 99.343, 110.426 100.061 C 109.073 101.185, 108.290 100.710, 104.848 96.684 C 102.646 94.108, 100.069 92, 99.122 92 C 94.571 92, 93.674 98.115, 97.289 104.500 C 101.582 112.081, 105.006 125.958, 104.976 135.654 C 104.927 151.980, 102.345 176.363, 99.485 187.500 C 98.779 190.250, 97.672 195.425, 97.024 199 C 95.501 207.407, 93.077 215.062, 91.270 217.168 C 90.483 218.085, 89.988 219.885, 90.170 221.168 C 90.595 224.169, 94.912 224.860, 97.231 222.297 C 98.916 220.435, 105 205.526, 105 203.259 C 105 202.552, 105.397 201.191, 105.882 200.236 C 106.368 199.281, 107.155 197.205, 107.632 195.622 C 108.288 193.446, 110.032 191.959, 114.777 189.531 C 121.297 186.195, 122.002 185.581, 128.317 177.740 C 134.033 170.642, 135.616 171.240, 136.301 180.750 C 136.607 185.012, 137.370 194.283, 137.995 201.351 C 138.619 208.419, 138.910 214.423, 138.641 214.693 C 137.571 215.762, 134 213.757, 134 212.088 C 134 209.698, 130.587 206.742, 128.324 207.171 C 126.976 207.427, 126.422 208.585, 126.200 211.611 C 125.946 215.070, 126.295 215.963, 128.450 217.375 C 129.852 218.294, 131 219.549, 131 220.164 C 131 221.904, 138.006 230.665, 140.438 231.967 C 142.283 232.954, 143.268 232.707, 146.861 230.355 C 150.948 227.679, 151.082 227.428, 150.495 223.538 C 150.161 221.317, 149.504 218.600, 149.037 217.500 C 148.570 216.400, 147.674 208.300, 147.046 199.500 C 146.417 190.700, 145.466 179.900, 144.932 175.500 C 144.397 171.100, 143.740 163, 143.471 157.500 C 143.201 152, 142.294 143.225, 141.454 138 C 140.614 132.775, 139.996 126.925, 140.080 125 C 140.278 120.494, 140.298 120.911, 139.096 104.500 C 137.622 84.377, 134.905 77, 128.966 77 C 126.910 77, 125.158 78.286, 121.813 82.250 M 185.977 86.022 C 183.580 88.279, 180.345 90.381, 178.789 90.692 C 177.232 91.004, 175.722 91.641, 175.433 92.109 C 174.928 92.925, 175.957 97.716, 178.173 104.871 C 178.747 106.726, 179.175 114.713, 179.123 122.621 C 179.064 131.469, 179.407 137, 180.014 137 C 180.963 137, 181.425 135.497, 181.064 133.588 C 180.816 132.273, 183.114 127, 183.936 127 C 184.317 127, 187.902 124.245, 191.903 120.877 C 198.664 115.186, 199.135 114.534, 198.593 111.627 C 198.272 109.907, 197.345 104.450, 196.532 99.500 C 193.286 79.730, 193.019 79.389, 185.977 86.022 M 122.667 94.667 C 122.300 95.033, 122 96.560, 122 98.059 C 122 99.890, 120.489 102.465, 117.393 105.908 C 114.777 108.818, 112.796 111.997, 112.808 113.266 C 112.820 114.495, 113.162 120, 113.569 125.500 C 113.975 131, 114.230 137.863, 114.136 140.750 C 114.037 143.760, 114.398 146, 114.982 146 C 116.045 146, 119.477 142.902, 120.125 141.356 C 120.331 140.864, 122.885 138.469, 125.799 136.033 L 131.098 131.604 130.680 117.552 C 130.250 103.143, 129.502 97.445, 127.752 95.250 C 126.683 93.909, 123.760 93.574, 122.667 94.667 M 193.916 132.955 C 189.282 138.722, 183.634 142.376, 180.552 141.602 C 177.589 140.859, 177.312 141.661, 176.629 153 C 176.381 157.125, 176.025 161.383, 175.839 162.462 C 174.775 168.619, 186.751 161.732, 195.559 151.120 C 200.932 144.647, 201 144.483, 201 137.983 C 201 131.970, 199.957 129, 197.847 129 C 197.433 129, 195.664 130.780, 193.916 132.955 M 124.224 154.367 C 121.045 157.400, 117.250 160.334, 115.791 160.889 C 113.110 161.909, 112.299 164.407, 111.698 173.499 C 111.370 178.471, 114.738 177.918, 122.032 171.801 C 134.345 161.475, 134.138 161.764, 133.801 155.286 C 133.393 147.462, 131.640 147.294, 124.224 154.367" stroke="none" fill="black" fill-rule="evenodd"/>
</svg>