<svg xmlns="http://www.w3.org/2000/svg" width="300" height="300" viewBox="0 0 300 300" version="1.1">
	<path d="M 168.853 20.250 C 166.252 22.376, 163.499 28.118, 160.583 37.500 C 156.332 51.177, 155.276 54.236, 153.683 57.500 C 152.877 59.150, 151.435 62.300, 150.478 64.500 C 149.522 66.700, 147.289 71.650, 145.516 75.500 C 143.744 79.350, 141.501 84.300, 140.533 86.500 C 139.566 88.700, 137.250 93.538, 135.387 97.251 C 133.524 100.964, 132 104.709, 132 105.573 C 132 106.436, 131.365 107.778, 130.590 108.553 C 129.814 109.329, 128.388 112.109, 127.420 114.732 C 126.453 117.354, 125.074 120.197, 124.357 121.050 C 123.640 121.902, 122.375 124.519, 121.547 126.866 C 120.719 129.212, 119.133 132.409, 118.021 133.970 C 116.909 135.532, 116 137.147, 116 137.560 C 116 137.973, 114.804 139.879, 113.343 141.795 C 110.129 146.009, 111.021 148.335, 116.038 148.827 C 119.803 149.197, 121.502 147.592, 125.382 140 C 126.647 137.525, 128.879 133.295, 130.341 130.601 C 131.803 127.907, 133 124.930, 133 123.986 C 133 123.042, 133.838 121.197, 134.862 119.885 C 135.887 118.573, 137.073 116.390, 137.498 115.034 C 137.924 113.678, 139.786 109.552, 141.636 105.865 C 143.486 102.179, 145 98.477, 145 97.640 C 145 96.803, 145.438 95.847, 145.973 95.517 C 146.509 95.186, 147.671 93.247, 148.556 91.208 C 149.442 89.168, 150.563 86.825, 151.048 86 C 154.143 80.731, 158.955 70.749, 160.449 66.500 C 162.092 61.825, 166.019 52.709, 168.089 48.764 C 168.590 47.809, 169 45.887, 169 44.494 C 169 43.100, 170.125 40.178, 171.500 38 C 172.875 35.822, 174 32.932, 174 31.579 C 174 30.225, 174.450 28.840, 175 28.500 C 176.659 27.475, 176.125 22.423, 174.171 20.655 C 171.981 18.673, 170.884 18.590, 168.853 20.250 M 81.493 47.015 C 79.880 50.592, 79.807 51.930, 80.818 59.265 C 81.443 63.794, 82.195 70.105, 82.490 73.289 C 83.016 78.966, 82.966 79.111, 79.885 80.789 C 78.158 81.730, 74.563 83.963, 71.896 85.750 C 69.230 87.538, 66.679 89, 66.227 89 C 65.775 89, 63.682 90.766, 61.574 92.924 C 59.467 95.082, 56.566 97.143, 55.127 97.504 C 51.354 98.451, 50 99.882, 50 102.922 C 50 109.096, 54.854 108.970, 65 102.534 C 76.373 95.319, 80.860 92.964, 81.441 93.904 C 81.751 94.407, 82.300 101.614, 82.660 109.920 C 83.359 126.086, 82.652 130.656, 78.564 136.398 C 77.429 137.992, 74.700 142.740, 72.500 146.949 C 67.463 156.588, 63.972 162.170, 56.849 171.977 C 51.418 179.455, 43.152 187, 40.391 187 C 39.665 187, 38.566 187.942, 37.950 189.094 C 37.022 190.827, 37.219 191.604, 39.089 193.594 C 43.249 198.022, 46.042 196.964, 55.833 187.250 C 60.684 182.438, 65.899 176.363, 67.421 173.750 C 68.944 171.137, 70.612 169, 71.127 169 C 71.643 169, 72.387 168.196, 72.782 167.213 C 74.333 163.352, 80.410 155, 81.668 155 C 82.738 155, 83.029 159.964, 83.145 180.250 C 83.225 194.137, 83.367 207.300, 83.461 209.500 C 83.760 216.491, 81.949 229.277, 80.254 232.148 C 78.719 234.746, 78.732 235.046, 80.463 236.959 C 82.902 239.654, 87.131 239.554, 89.774 236.740 C 91.835 234.547, 91.897 233.659, 91.876 206.490 C 91.865 191.096, 91.888 174.969, 91.928 170.653 L 92 162.807 96.750 163.307 C 99.362 163.582, 103.525 164.357, 106 165.028 C 113.146 166.966, 121.053 166.837, 122.372 164.761 C 123.266 163.352, 122.957 162.503, 120.747 160.293 C 118.523 158.069, 117.216 157.599, 113.678 157.753 C 110.330 157.899, 107.411 156.976, 100.918 153.721 L 92.500 149.500 92.674 144.500 C 92.770 141.750, 93.162 137.771, 93.545 135.659 C 93.979 133.258, 93.785 130.967, 93.028 129.551 C 92.158 127.927, 91.912 121.640, 92.157 107.346 C 92.533 85.504, 93.134 83.105, 98.803 80.824 C 108.265 77.017, 109.464 75.589, 108.824 68.888 C 108.341 63.831, 104.445 63.699, 99.066 68.560 C 93.631 73.469, 92 72.284, 92 63.427 C 92 46.575, 85.952 37.128, 81.493 47.015 M 159.667 82.667 C 158.548 83.785, 158.923 87.694, 160.250 88.751 C 160.938 89.298, 163.300 90.346, 165.500 91.080 C 167.700 91.814, 170.190 92.978, 171.034 93.666 C 171.878 94.355, 175.028 96.062, 178.034 97.458 C 181.040 98.855, 184.175 100.382, 185 100.852 C 185.825 101.322, 188.075 102.381, 190 103.206 C 207.712 110.789, 212.031 111.695, 216.750 108.818 C 218.537 107.728, 220 106.248, 220 105.529 C 220 102.763, 216.324 100.243, 210.500 99.016 C 200.468 96.902, 188.916 92.200, 176.112 85.021 C 172.041 82.739, 169.453 82, 165.528 82 C 162.671 82, 160.033 82.300, 159.667 82.667 M 177.871 105.250 C 177.040 105.938, 175.581 107.758, 174.628 109.295 C 173.675 110.832, 171.888 112.472, 170.657 112.940 C 169.425 113.409, 167.761 114.583, 166.959 115.551 C 164.865 118.075, 159.349 120.185, 153 120.890 L 147.500 121.500 147.500 126 L 147.500 130.500 155.344 130.561 L 163.188 130.622 163.491 144.260 C 163.696 153.473, 163.422 158.342, 162.647 159.264 C 161.193 160.995, 148.471 169.321, 144.500 171.140 C 139.548 173.409, 140.176 182, 145.294 182 C 147.684 182, 160 174.427, 160 172.957 C 160 171.521, 163.497 170.071, 164.888 170.931 C 166.213 171.750, 166.062 173.999, 162.802 201.865 C 161.760 210.772, 161.302 212.339, 159.545 213.008 C 156.495 214.168, 142.814 217.028, 140.385 217.013 C 137.305 216.994, 133 220.754, 133 223.462 C 133 224.736, 133.856 226.836, 134.902 228.128 L 136.805 230.477 143.152 228.671 C 146.644 227.678, 152.200 226.259, 155.500 225.519 C 158.800 224.779, 165.775 223.205, 171 222.023 C 192.887 217.071, 194.044 216.931, 214.359 216.776 C 231.743 216.643, 235.217 216.877, 239.683 218.483 L 244.860 220.345 247.413 217.922 C 250.554 214.941, 250.557 214.842, 247.598 210.155 L 245.196 206.350 218.348 206.561 C 195.062 206.744, 190.124 207.063, 181.129 208.964 C 174.703 210.323, 170.402 210.802, 169.823 210.223 C 169.245 209.645, 169.703 205.334, 171.028 198.895 C 172.205 193.178, 173.381 183.100, 173.642 176.500 L 174.117 164.500 177.777 161.500 C 191.040 150.629, 194.349 145.826, 192.528 140.087 C 191.317 136.272, 183 138.489, 183 142.626 C 183 144.226, 175.257 151.277, 174.210 150.630 C 172.349 149.479, 172.200 144.472, 173.718 134.022 C 174.809 126.505, 175.711 123.238, 176.873 122.583 C 177.768 122.079, 180.188 119.994, 182.250 117.951 C 186.677 113.564, 187.039 110.413, 183.548 106.646 C 180.782 103.661, 180.019 103.474, 177.871 105.250" stroke="none" fill="black" fill-rule="evenodd"/>
</svg>