<svg xmlns="http://www.w3.org/2000/svg" width="300" height="300" viewBox="0 0 300 300" version="1.1">
	<path d="M 147.200 20.200 C 146.464 20.936, 146 24.539, 146 29.526 C 146 36.820, 145.753 37.883, 143.589 39.916 C 142.263 41.162, 140.351 42.016, 139.339 41.815 C 137.847 41.519, 137.500 40.504, 137.500 36.438 C 137.500 33.289, 136.827 30.397, 135.690 28.657 C 134.168 26.328, 133.292 25.935, 130.190 26.193 L 126.500 26.500 126.659 33.500 C 126.747 37.350, 127.110 42.075, 127.466 44 C 128.094 47.400, 127.942 47.611, 122.162 51.362 C 116.208 55.226, 112 59.738, 112 62.260 C 112 66.179, 117.488 67.165, 121.790 64.018 C 123.281 62.928, 125.566 61.916, 126.870 61.768 C 129.225 61.502, 129.238 61.555, 129.066 71 C 128.930 78.500, 128.537 80.829, 127.197 82.063 C 126.264 82.923, 121.225 85.585, 116 87.979 C 104.187 93.392, 102.836 94.478, 103.670 97.890 C 104.956 103.151, 108.518 103.295, 117.121 98.432 C 120.593 96.469, 124.751 94.600, 126.360 94.278 L 129.285 93.693 128.554 102.096 C 127.808 110.672, 126.895 113, 124.279 113 C 122.229 113, 117.135 115.410, 105.750 121.767 C 97.176 126.554, 96 127.536, 96 129.905 C 96 131.387, 96.540 133.140, 97.200 133.800 C 98.597 135.197, 102.633 135.403, 103.427 134.119 C 103.726 133.634, 109.715 130.453, 116.736 127.050 C 123.756 123.646, 132.783 119.249, 136.796 117.277 C 141.044 115.190, 144.442 114.070, 144.930 114.596 C 145.391 115.093, 145.980 119.849, 146.240 125.164 L 146.712 134.829 141.356 139.871 C 138.410 142.644, 136 145.538, 136 146.303 C 136 148.721, 132.910 154, 131.494 154 C 130.746 154, 129.828 152.988, 129.452 151.750 C 128.510 148.643, 125 145, 122.948 145 C 119.885 145, 119.177 147.120, 120.276 153 C 120.842 156.025, 121.430 173.713, 121.583 192.307 L 121.862 226.114 118.681 228.089 C 116.931 229.175, 112.575 231.467, 109 233.182 C 105.425 234.897, 101.427 237.133, 100.115 238.150 C 98.803 239.168, 96.907 240, 95.900 240 C 92.923 240, 91.554 243.671, 93.452 246.567 C 94.329 247.905, 95.777 249, 96.670 249 C 99.726 249, 110.497 244.681, 113 242.451 C 116.379 239.442, 120.008 238.411, 121.123 240.143 C 121.603 240.889, 121.720 243.417, 121.383 245.759 C 120.971 248.623, 121.205 250.542, 122.096 251.616 C 122.825 252.494, 123.901 254.178, 124.486 255.357 C 125.725 257.853, 129.889 258.782, 131.122 256.837 C 132.362 254.881, 132.186 248.233, 130.872 247.421 C 129.755 246.730, 130.216 237.207, 131.532 233.776 C 131.861 232.919, 136.939 229.881, 142.815 227.024 C 148.692 224.168, 157.475 219.792, 162.333 217.299 C 167.296 214.752, 171.542 213.146, 172.024 213.633 C 172.495 214.110, 173.082 224.400, 173.327 236.500 C 173.572 248.600, 174.059 259.188, 174.408 260.029 C 174.758 260.869, 174.422 262.408, 173.662 263.447 C 172.316 265.288, 172.187 265.279, 168.656 263.097 C 163.960 260.194, 160.604 260.606, 160.195 264.134 C 159.873 266.909, 163.778 271, 166.749 271 C 167.562 271, 169.920 271.951, 171.989 273.114 C 175.363 275.010, 176.048 275.086, 178.626 273.851 C 180.546 272.930, 181.946 271.150, 182.845 268.487 C 184.210 264.444, 184.198 263.357, 182.375 223.414 C 181.531 204.918, 179.007 207.311, 210 197.224 C 216.875 194.986, 223.660 192.906, 225.079 192.602 C 228.809 191.800, 230.481 187.664, 228.374 184.448 C 225.760 180.459, 219.983 180.064, 215.944 183.598 C 215.088 184.347, 211.713 185.838, 208.444 186.912 C 198.992 190.018, 191.761 192.740, 188.212 194.528 C 186.403 195.439, 184.352 195.966, 183.655 195.698 C 182.440 195.232, 179.953 172.682, 179.987 162.441 C 179.994 160.209, 179.339 157.509, 178.532 156.441 C 177.652 155.278, 177.051 152.219, 177.032 148.809 C 177.014 145.679, 176.550 142.840, 176 142.500 C 175.450 142.160, 175 140.636, 175 139.112 C 175 135.853, 169.655 127.343, 167.098 126.531 C 166.121 126.221, 163.689 126.650, 161.693 127.484 C 156.306 129.735, 156 129.521, 156 123.500 C 156 119.333, 155.515 117.515, 154 116 C 152.900 114.900, 151.550 114, 151 114 C 150.450 114, 150 113.337, 150 112.526 C 150 110.785, 154.924 108.028, 158.200 107.934 C 159.465 107.897, 163.650 106.210, 167.500 104.184 C 173.107 101.233, 174.560 99.985, 174.801 97.914 C 174.971 96.446, 174.408 94.754, 173.497 93.998 C 171.419 92.273, 166.560 92.290, 164.464 94.030 C 163.065 95.191, 149.704 101, 148.433 101 C 147.463 101, 148.096 97.045, 149.494 94.364 C 150.315 92.789, 150.990 89.967, 150.994 88.094 C 150.999 85.481, 151.873 83.836, 154.750 81.025 C 156.813 79.010, 159.183 76.943, 160.017 76.431 C 160.851 75.919, 162.786 73.976, 164.316 72.114 C 166.563 69.382, 166.971 68.128, 166.434 65.614 C 165.509 61.282, 164.096 59.849, 161.090 60.199 C 159.119 60.429, 158.390 61.189, 158.005 63.418 C 157.727 65.022, 156.938 66.522, 156.251 66.751 C 154.621 67.293, 153.500 64.332, 154.732 62.737 C 155.257 62.057, 156.295 57.467, 157.037 52.538 C 158.188 44.904, 158.857 43.052, 161.550 40.038 C 166.626 34.357, 167.273 32.559, 165.174 29.966 C 164.132 28.680, 161.720 27.479, 159.438 27.110 C 156.369 26.613, 155.430 25.982, 155.182 24.245 C 154.867 22.041, 151.559 19, 149.477 19 C 148.885 19, 147.860 19.540, 147.200 20.200 M 60.431 52.464 C 59.167 54.395, 58.832 57.452, 58.886 66.572 C 58.925 73.150, 58.481 79.146, 57.865 80.357 C 56.548 82.944, 44.902 95, 43.720 95 C 43.260 95, 41.134 96.405, 38.997 98.122 C 36.143 100.416, 34.477 101.086, 32.721 100.645 C 30.911 100.190, 29.641 100.765, 27.487 103.014 C 24.914 105.700, 24.731 106.340, 25.571 109.741 C 26.342 112.862, 26.985 113.555, 29.354 113.826 C 31.103 114.027, 33.039 113.426, 34.354 112.274 C 35.534 111.241, 38.226 109.519, 40.335 108.448 C 42.445 107.377, 46.720 104.367, 49.835 101.759 C 55.455 97.056, 59.772 94.295, 60.265 95.088 C 60.407 95.314, 60.253 107.200, 59.925 121.500 L 59.327 147.500 55.507 154.500 C 53.406 158.350, 50.941 162.625, 50.029 164 C 49.117 165.375, 46.986 168.583, 45.291 171.129 C 43.597 173.675, 41.909 176.713, 41.538 177.879 C 41.168 179.046, 40.457 180, 39.958 180 C 39.459 180, 38.310 181.433, 37.404 183.185 C 35.769 186.347, 27.571 197.438, 23.681 201.750 C 22.556 202.997, 20.481 204, 19.026 204 C 15.997 204, 14 205.642, 14 208.132 C 14 210.168, 18.999 214, 21.655 214 C 26.141 214, 44.823 191.807, 56.379 172.750 C 57.296 171.238, 58.455 170, 58.954 170 C 59.890 170, 60.370 188.649, 60.452 228.284 C 60.492 247.411, 60.741 251.220, 62 252.018 C 64.040 253.312, 67.730 253.245, 68.562 251.900 C 68.935 251.296, 69.161 231.685, 69.064 208.321 C 68.933 176.937, 69.194 165.471, 70.066 164.421 C 71.740 162.404, 74.008 162.659, 76.673 165.163 C 78.619 166.991, 80.126 167.318, 86.397 167.278 C 94.876 167.223, 96 166.787, 96 163.548 C 96 161.072, 94.332 160, 90.477 160 C 89.180 160, 87.877 159.611, 87.583 159.135 C 87.074 158.311, 84.070 157.654, 74.011 156.165 C 69.076 155.434, 67.670 153.172, 70.290 150.176 C 71.095 149.254, 71.968 146.147, 72.229 143.270 C 72.610 139.063, 72.343 137.715, 70.861 136.374 C 69.155 134.830, 69.057 133.230, 69.525 114.604 C 70.197 87.882, 71.133 82.653, 76.141 77.632 C 80.459 73.305, 80.579 72.743, 78.103 68.500 C 76.741 66.167, 75.534 65.431, 72.676 65.190 L 69 64.879 69 58.640 C 69 55.120, 68.477 51.877, 67.800 51.200 C 65.797 49.197, 62.164 49.820, 60.431 52.464 M 141.119 54.750 C 139.314 56.252, 138.985 57.737, 138.795 65.237 C 138.541 75.278, 139.684 77.760, 143.024 74.420 C 145.750 71.694, 147.267 53, 144.762 53 C 143.915 53, 142.275 53.788, 141.119 54.750 M 140.154 87.315 C 139.608 87.973, 138.836 89.805, 138.439 91.386 C 137.499 95.134, 139.387 94.596, 142.076 90.349 C 143.725 87.744, 143.811 87.141, 142.598 86.676 C 141.799 86.370, 140.700 86.657, 140.154 87.315 M 158.627 140.859 C 156.777 142.903, 155.363 157.488, 156.921 158.451 C 157.405 158.750, 157.335 160.781, 156.764 163.030 C 156.200 165.253, 156.044 167.377, 156.417 167.751 C 157.399 168.732, 160.314 166.671, 161.639 164.059 C 162.265 162.824, 164.177 160.962, 165.889 159.922 C 167.600 158.881, 169 157.803, 169 157.526 C 169 155.812, 164.596 141.278, 163.766 140.250 C 162.341 138.488, 160.585 138.696, 158.627 140.859 M 140 153.921 C 136.975 157.081, 133.982 159.854, 133.350 160.084 C 132.553 160.372, 131.987 167.875, 131.510 184.500 C 131.131 197.700, 130.686 211.121, 130.522 214.324 C 130.158 221.445, 131.466 222.335, 136.831 218.617 C 138.908 217.178, 141.085 216, 141.669 216 C 142.253 216, 143.851 215.118, 145.221 214.041 C 147.175 212.504, 147.839 210.853, 148.300 206.385 C 148.954 200.045, 148.270 195, 146.757 195 C 146.211 195, 144.198 196.375, 142.283 198.056 C 139.106 200.846, 138.615 200.989, 136.651 199.692 C 132.275 196.801, 133.462 193.820, 143.286 183.026 L 148.052 177.788 147.776 163.226 C 147.612 154.582, 147.094 148.565, 146.500 148.419 C 145.950 148.284, 143.025 150.760, 140 153.921 M 166.073 174.757 C 164.737 176.816, 162.337 179.645, 160.738 181.043 C 157.898 183.528, 157.817 183.871, 157.268 195.793 C 156.617 209.917, 156.375 209.656, 165.500 204.649 L 171.500 201.357 171.501 187.929 C 171.502 180.543, 171.337 173.713, 171.135 172.750 C 170.551 169.974, 168.698 170.709, 166.073 174.757" stroke="none" fill="black" fill-rule="evenodd"/>
</svg>