<svg xmlns="http://www.w3.org/2000/svg" width="300" height="300" viewBox="0 0 300 300" version="1.1">
	<path d="M 99.667 46.667 C 98.400 47.934, 99.010 52.122, 101.650 60.279 C 104.248 68.303, 104.288 68.836, 103.679 87.061 C 103.032 106.410, 103.297 108, 107.171 108 C 110.057 108, 114.024 98.480, 113.315 93.255 C 112.769 89.236, 112.975 88.784, 117.199 84.737 C 119.653 82.386, 123.334 78.270, 125.379 75.591 C 128.488 71.517, 128.988 70.210, 128.433 67.610 C 127.049 61.130, 122.826 59.877, 120.477 65.250 C 118.455 69.872, 115.457 73.400, 114.207 72.628 C 113.620 72.265, 112.861 69.388, 112.519 66.234 C 111.248 54.497, 110.775 52.813, 107.795 49.419 C 105.012 46.249, 101.331 45.003, 99.667 46.667 M 40.198 52.289 C 38.967 53.599, 38.063 55.845, 38.084 57.539 C 38.232 69.637, 37.915 81.936, 37.382 84.779 C 36.914 87.274, 35.530 89.064, 32.123 91.582 C 29.580 93.462, 26.375 95.268, 25 95.595 C 20.515 96.662, 13.932 100.015, 13.351 101.526 C 12.323 104.205, 13.935 107.945, 16.381 108.559 C 19.478 109.337, 26.981 107.296, 29.500 104.992 C 30.600 103.985, 33.118 102.863, 35.096 102.499 L 38.692 101.835 39.692 112.168 C 40.241 117.850, 40.791 128.575, 40.913 136 L 41.135 149.500 34.217 160 C 25.964 172.526, 22.696 178.009, 19.981 183.885 C 18.089 187.980, 7.690 202.219, 2.289 208.108 C 0.200 210.386, -0.065 211.526, 0.199 217.108 L 0.500 223.500 2.797 221 C 10.635 212.471, 16.343 205.774, 18.564 202.501 C 19.967 200.434, 21.763 198.094, 22.557 197.300 C 23.351 196.506, 24 195.509, 24 195.084 C 24 194.659, 25.169 193.004, 26.597 191.406 C 28.026 189.807, 30.046 186.647, 31.086 184.382 C 33.777 178.521, 35.235 177.525, 38.698 179.181 C 41.487 180.515, 41.503 180.579, 42.281 193.510 C 42.710 200.655, 42.978 210.325, 42.876 215 C 42.773 219.675, 42.739 225.075, 42.799 227 C 43.047 234.917, 41.976 239.058, 39.431 240.026 C 36.094 241.295, 36.355 244.279, 40.077 247.411 C 43.975 250.691, 44.583 250.658, 48.023 246.975 C 50.572 244.246, 50.881 243.144, 51.175 235.725 C 51.354 231.201, 51.250 218.050, 50.944 206.500 C 50.638 194.950, 50.678 184.375, 51.033 183 C 51.732 180.294, 52.397 180.209, 60 181.857 C 62.475 182.393, 68.103 183.144, 72.506 183.524 C 79.692 184.145, 80.767 184.006, 83.006 182.165 L 85.500 180.114 82.377 176.953 C 79.595 174.138, 78.336 173.688, 70.877 172.840 C 59.215 171.515, 52.150 170.052, 51.378 168.803 C 51.017 168.219, 50.595 164.087, 50.441 159.620 C 50.287 155.154, 49.789 142.500, 49.335 131.500 C 48.881 120.500, 48.564 107.732, 48.631 103.127 L 48.752 94.753 56.376 87.585 C 64.716 79.744, 65.446 77.793, 61.680 73.415 C 59.442 70.812, 59.272 70.776, 56.834 72.373 C 55.445 73.283, 53.784 75.179, 53.143 76.585 C 52.414 78.186, 51.327 79.018, 50.239 78.810 C 48.727 78.522, 48.435 76.807, 48 65.655 C 47.563 54.455, 47.254 52.653, 45.559 51.416 C 43.008 49.555, 42.723 49.601, 40.198 52.289 M 181.340 78.907 C 174.518 84.414, 154.395 104.598, 152.615 107.721 C 151.638 109.433, 154.719 115, 156.644 115 C 159.370 115, 178.380 97.530, 179.502 93.993 C 180.285 91.526, 182.596 90.808, 184.062 92.575 C 185.288 94.052, 185.135 95.057, 180.767 114.182 C 180.053 117.308, 179.138 120.195, 178.734 120.599 C 178.330 121.003, 178 122.346, 178 123.584 C 178 126.425, 174.372 135, 173.170 135 C 171.959 135, 167.007 131.080, 164.365 128.030 C 162.552 125.937, 161.332 125.556, 156.363 125.530 C 150.728 125.501, 150.488 125.605, 150.188 128.201 C 149.733 132.147, 151.240 134.195, 156.665 137 C 162.223 139.874, 167.950 143.822, 169.718 146 C 171.180 147.800, 171.371 153.347, 170.053 155.764 C 169.533 156.719, 168.113 160.425, 166.899 164 C 161.919 178.665, 160.322 183.012, 159.678 183.656 C 159.305 184.028, 159 185.132, 159 186.108 C 159 187.084, 158.529 188.173, 157.953 188.529 C 156.663 189.327, 149.341 185.969, 145.410 182.777 C 138.784 177.397, 136.997 176.723, 130.840 177.281 C 123.986 177.902, 124.751 179.352, 122.516 161.500 C 121.690 154.900, 120.339 145.225, 119.514 140 C 117.127 124.883, 116.976 125.465, 125.487 116.972 C 132.414 110.059, 132.975 109.186, 132.987 105.307 C 132.997 102.138, 132.474 100.745, 130.845 99.604 C 128.215 97.762, 125.488 98.918, 124.657 102.229 C 124.157 104.224, 112.102 115.740, 101.441 124.408 C 95.428 129.296, 83.774 137.263, 78.542 140.062 C 75.814 141.520, 73.192 143.341, 72.714 144.107 C 71.636 145.834, 73.428 150.843, 75.394 151.598 C 78.133 152.649, 91.398 145.328, 99.817 138.121 C 104.391 134.204, 108.543 131, 109.044 131 C 109.544 131, 109.898 132.688, 109.830 134.750 C 109.694 138.852, 111.012 147.613, 113.404 158.500 C 116.013 170.377, 118.343 213.499, 116.726 220 C 116.248 221.925, 115.898 224.899, 115.950 226.609 C 116.079 230.883, 113.623 232.874, 111.071 230.564 C 110.031 229.623, 108.913 227.791, 108.588 226.493 C 107.965 224.013, 104.384 222.201, 102.970 223.651 C 102.514 224.118, 101.859 225.645, 101.514 227.045 C 100.676 230.443, 107.843 239.463, 112.638 241.046 C 118.079 242.841, 119.992 241.991, 122.875 236.500 C 125.471 231.555, 125.500 231.271, 125.455 210.500 C 125.430 198.950, 125.082 188.375, 124.681 187 C 124.281 185.625, 124.389 183.838, 124.922 183.029 C 125.733 181.799, 126.350 182.015, 128.696 184.347 C 131.746 187.380, 145.106 195, 147.375 195 C 148.147 195, 149.811 195.836, 151.072 196.857 L 153.366 198.715 151.183 202.415 C 149.982 204.449, 149 206.507, 149 206.986 C 149 208.371, 141.032 220.182, 137.740 223.678 C 135.407 226.156, 134.889 227.423, 135.393 229.428 C 135.885 231.389, 136.674 232, 138.715 232 C 143.578 232, 148.481 227.491, 152.645 219.187 C 154.765 214.959, 157.738 209.635, 159.250 207.355 C 160.762 205.075, 162 202.543, 162 201.727 C 162 200.912, 162.675 199.685, 163.500 199 C 164.325 198.315, 165 197.119, 165 196.342 C 165 195.565, 165.739 193.802, 166.642 192.424 C 167.545 191.046, 168.622 188.249, 169.037 186.209 C 169.795 182.475, 173.234 172.196, 175.681 166.349 C 176.406 164.616, 177 162.681, 177 162.049 C 177 160.253, 179.949 155, 180.957 155 C 184.454 155, 217.997 188.055, 220.687 194.151 C 221.621 196.268, 222.745 198, 223.185 198 C 223.885 198, 232.673 208.854, 242.767 222.185 C 244.564 224.558, 248.071 228.975, 250.559 232 C 253.048 235.025, 256.646 239.850, 258.554 242.722 C 263.422 250.045, 268.691 252.314, 270.965 248.066 C 272.853 244.538, 272.045 241.757, 267.750 236.996 C 262.729 231.429, 258.716 226.338, 247.652 211.500 C 243.141 205.450, 237.106 198.025, 234.242 195 C 231.378 191.975, 229.027 189.155, 229.018 188.732 C 229.008 188.310, 227.425 186.435, 225.500 184.566 C 223.575 182.696, 222 180.688, 222 180.102 C 222 178.420, 209.168 165.238, 201.790 159.341 C 198.100 156.392, 193.825 152.811, 192.290 151.383 C 190.756 149.955, 187.967 147.437, 186.093 145.787 L 182.687 142.786 184.279 137.807 C 185.155 135.068, 185.626 132.188, 185.326 131.406 C 185.026 130.624, 185.505 128.879, 186.390 127.527 C 187.276 126.176, 188 124.233, 188 123.210 C 188 122.186, 189.125 118.129, 190.500 114.193 C 191.875 110.258, 193 105.706, 193 104.078 C 193 102.450, 193.450 100.840, 194 100.500 C 194.559 100.155, 195 95.478, 195 89.906 C 195 82.406, 194.599 79.318, 193.385 77.465 C 190.975 73.787, 187.108 74.250, 181.340 78.907 M 101.068 160.904 C 99.931 162.502, 99 164.287, 99 164.870 C 99 165.454, 98.368 167.410, 97.596 169.216 C 96.824 171.022, 95.610 174.525, 94.898 177 C 94.186 179.475, 93.065 182.400, 92.406 183.500 C 91.747 184.600, 90.876 186.625, 90.471 188 C 90.065 189.375, 87.993 192.696, 85.866 195.381 C 83.740 198.065, 82 200.703, 82 201.242 C 82 201.781, 80.255 204.310, 78.122 206.861 C 75.990 209.413, 72.096 214.650, 69.469 218.500 C 66.843 222.350, 62.935 227.214, 60.785 229.309 C 55.947 234.023, 56.099 236.382, 61.268 236.811 C 65.904 237.195, 71 233.954, 71 230.620 C 71 229.289, 72.214 227.479, 73.983 226.170 C 75.624 224.957, 77.700 222.510, 78.596 220.732 C 79.491 218.955, 81.974 215.394, 84.112 212.821 C 86.250 210.247, 88 207.644, 88 207.035 C 88 205.234, 91.129 201, 92.460 201 C 94.151 201, 97 197.694, 97 195.731 C 97 194.845, 98.403 191.505, 100.118 188.310 C 107.659 174.260, 109 171.566, 109 170.471 C 109 169.831, 109.733 167.839, 110.628 166.043 C 112.236 162.821, 112.220 162.749, 109.378 160.426 C 105.552 157.296, 103.555 157.411, 101.068 160.904" stroke="none" fill="black" fill-rule="evenodd"/>
</svg>