<svg xmlns="http://www.w3.org/2000/svg" width="300" height="300" viewBox="0 0 300 300" version="1.1">
	<path d="M 51.338 57.562 C 51.008 58.421, 51.073 63.708, 51.481 69.312 C 51.889 74.915, 52.285 82.836, 52.362 86.914 C 52.493 93.945, 52.363 94.410, 49.838 95.914 C 46.087 98.148, 37.744 103.739, 36.228 105.033 C 35.529 105.630, 33.504 106.605, 31.728 107.198 C 29.953 107.791, 27.600 109.063, 26.500 110.024 C 24.551 111.726, 23.427 112.163, 17.750 113.426 C 14.444 114.162, 14.088 117.257, 16.891 120.902 C 18.419 122.889, 19.343 123.206, 22.240 122.736 C 26.655 122.020, 34.269 118.586, 35.959 116.550 C 36.666 115.697, 37.786 115, 38.448 115 C 39.109 115, 42.278 112.959, 45.490 110.465 C 49.520 107.336, 51.652 106.252, 52.367 106.967 C 52.951 107.551, 53.642 115.304, 53.951 124.751 C 54.401 138.470, 54.215 142.314, 52.923 146 C 51.405 150.334, 41.166 167.221, 35.037 175.500 C 33.409 177.700, 31.315 180.850, 30.384 182.500 C 28.669 185.539, 21.767 195.250, 19.366 198 C 18.646 198.825, 16.664 201.009, 14.961 202.853 C 13.178 204.785, 12.106 206.834, 12.433 207.685 C 12.745 208.498, 13 209.352, 13 209.582 C 13 210.546, 17.309 209.891, 19.950 208.526 C 23.133 206.880, 29.266 199.870, 36.312 189.825 C 38.888 186.153, 42.272 182.103, 43.834 180.825 C 45.396 179.546, 47.926 176.813, 49.456 174.750 C 50.986 172.688, 52.859 171, 53.619 171 C 54.378 171, 55.032 171.113, 55.072 171.250 C 55.112 171.387, 55.362 187.700, 55.627 207.500 C 56.021 236.859, 56.381 243.915, 57.578 245.750 C 59.341 248.452, 61.152 248.612, 63.229 246.250 C 64.418 244.898, 64.668 242.796, 64.329 237 C 64.088 232.875, 63.803 216.299, 63.696 200.165 C 63.543 177.334, 63.784 170.594, 64.782 169.766 C 65.612 169.077, 69.566 168.915, 76 169.307 C 82.921 169.729, 86.149 169.568, 86.637 168.779 C 87.676 167.098, 81.162 162.108, 77.046 161.432 C 75.096 161.111, 71.475 160.018, 69 159.003 C 64.064 156.978, 62.896 154.431, 65.056 150.396 C 66.077 148.488, 66.006 147.658, 64.645 145.581 C 63.241 143.438, 63 139.761, 63 120.492 L 63 97.914 67.750 92.707 C 70.362 89.843, 72.871 87.228, 73.324 86.895 C 73.777 86.563, 74.584 84.349, 75.117 81.975 C 76.947 73.831, 71.627 72.882, 67.105 80.546 C 65.723 82.888, 64.375 84.028, 63.241 83.812 C 61.846 83.547, 61.366 81.991, 60.827 75.990 C 59.994 66.716, 58.668 58.890, 57.652 57.246 C 56.557 55.475, 52.052 55.701, 51.338 57.562 M 131.888 64.516 C 129.427 69.751, 127.408 71.316, 116.500 76.449 C 101.566 83.476, 100.502 83.946, 96.050 85.500 C 90.593 87.404, 88 89.637, 88 92.432 C 88 95.343, 90.731 99, 92.903 99 C 94.949 99, 101.196 96.111, 102.113 94.741 C 102.450 94.237, 103.796 93.977, 105.104 94.163 C 107.104 94.446, 107.588 95.247, 108.151 99.200 C 108.519 101.785, 109.198 104.485, 109.660 105.200 C 110.776 106.927, 111.794 124.028, 112.580 154.244 L 113.223 178.989 110.066 181.938 C 108.329 183.561, 103.088 186.970, 98.419 189.516 C 91.805 193.121, 89.302 194.005, 87.088 193.519 C 81.975 192.396, 79.344 197.191, 82.557 201.777 C 84.858 205.064, 89.367 204.598, 98.019 200.180 C 105.730 196.243, 113.121 192.012, 114 191.032 C 114.275 190.725, 117.537 188.039, 121.249 185.064 C 124.961 182.088, 128.683 178.606, 129.522 177.326 C 132.065 173.445, 133.709 174.442, 134.339 180.250 C 137.045 205.170, 137.337 210.063, 136.187 211.213 C 134.339 213.061, 134.789 216.817, 137 218 C 139.692 219.441, 142.381 217.907, 143.995 214.011 C 145.293 210.879, 145.175 207.447, 143.100 188 C 142.542 182.775, 141.824 168.150, 141.503 155.500 C 141.182 142.850, 140.448 125.525, 139.872 117 C 139.296 108.475, 138.607 97.828, 138.341 93.341 C 137.963 86.959, 137.438 84.801, 135.929 83.436 C 133.981 81.673, 133.235 77, 134.901 77 C 136.641 77, 140 69.847, 140 66.143 C 140 58.692, 135.088 57.707, 131.888 64.516 M 185.500 71.998 C 175.410 80.044, 170.101 83.033, 163.079 84.618 C 154.928 86.459, 152.518 88.527, 153.470 92.864 C 154.739 98.643, 156.108 98.772, 167.315 94.173 C 172.917 91.875, 178.063 89.995, 178.750 89.997 C 180.174 90, 180.463 95.099, 179.121 96.550 C 178.638 97.072, 177.950 100.235, 177.591 103.577 C 177.020 108.903, 177.212 110, 179.144 112.456 C 181.323 115.226, 181.440 115.251, 189.322 114.594 C 196.664 113.981, 197.481 114.104, 199.648 116.139 C 204.798 120.977, 201.002 132, 194.185 132 C 191.220 132, 184.334 127.349, 182.585 124.166 C 181.043 121.358, 176.993 118, 175.148 118 C 174.187 118, 172.860 118.540, 172.200 119.200 C 170.747 120.653, 170.580 132.622, 172 133.500 C 172.550 133.840, 173.007 136.904, 173.015 140.309 C 173.023 143.714, 173.679 148.300, 174.471 150.500 C 175.264 152.700, 175.932 157.283, 175.956 160.685 C 175.980 164.087, 176.462 168.086, 177.027 169.572 C 177.690 171.316, 178.062 194.904, 178.075 236.137 L 178.096 300 182.048 300 L 186 300 186.056 268.750 C 186.086 251.563, 186.316 228.725, 186.567 218 C 187.225 189.776, 187.198 185.868, 186.173 161 C 185.662 148.625, 185.362 138.365, 185.505 138.201 C 185.648 138.036, 187.456 139.048, 189.522 140.451 C 191.589 141.853, 194.139 143, 195.189 143 C 198.199 143, 202.526 140.365, 205.396 136.786 C 206.845 134.979, 208.473 132.956, 209.015 132.292 C 209.557 131.628, 210 130.192, 210 129.101 C 210 128.010, 210.450 126.840, 211 126.500 C 212.554 125.540, 212.178 117.663, 210.408 114.117 C 207.736 108.761, 205.312 107.830, 194.766 108.111 C 189.611 108.249, 184.855 108.028, 184.197 107.621 C 182.635 106.656, 182.673 103.947, 184.283 101.473 C 184.989 100.388, 186.179 97.700, 186.927 95.500 C 187.675 93.300, 190.472 88.175, 193.143 84.111 C 198.682 75.685, 199.279 72.068, 195.535 69.615 C 192.024 67.314, 191.097 67.534, 185.500 71.998 M 121.077 86.589 C 118.197 89.012, 118.003 89.604, 118.044 95.839 C 118.068 99.503, 118.532 104.525, 119.076 107 C 119.620 109.475, 120.334 113.412, 120.662 115.750 C 121.339 120.563, 122.408 120.939, 127.172 118.041 L 130.393 116.083 130.164 106.291 C 129.972 98.022, 129.114 91.482, 127.405 85.250 C 126.862 83.267, 124.408 83.786, 121.077 86.589 M 33.250 108.706 C 30.273 109.279, 30.315 112, 33.300 112 C 35.575 112, 38 110.349, 38 108.800 C 38 107.976, 37.129 107.959, 33.250 108.706 M 125.250 132.820 C 121.511 136.106, 121 137.062, 121 140.777 C 121 144.352, 121.311 145, 123.027 145 C 124.141 145, 126.616 143.578, 128.527 141.839 C 131.577 139.063, 132 138.090, 132 133.839 C 132 127.930, 130.988 127.777, 125.250 132.820 M 124.750 156.553 C 121.057 158.992, 121 159.127, 121 165.515 C 121 171.295, 121.214 172, 122.965 172 C 124.045 172, 125.411 171.100, 126 170 C 126.589 168.900, 127.674 168, 128.413 168 C 130.713 168, 131.785 165.704, 132.149 160 C 132.461 155.104, 132.280 154.477, 130.500 154.288 C 129.400 154.172, 126.813 155.191, 124.750 156.553" stroke="none" fill="black" fill-rule="evenodd"/>
</svg>