<svg xmlns="http://www.w3.org/2000/svg" width="300" height="300" viewBox="0 0 300 300" version="1.1">
	<path d="M 101.388 47.765 C 100.292 48.489, 99.926 49.982, 98.103 61.146 C 97.596 64.252, 96.743 67.627, 96.207 68.646 C 95.671 69.666, 94.900 72.525, 94.494 75 C 94.088 77.475, 92.964 81.300, 91.996 83.500 C 91.029 85.700, 89.672 89.075, 88.981 91 C 88.291 92.925, 86.662 96.835, 85.363 99.688 C 84.063 102.542, 83 105.360, 83 105.952 C 83 106.543, 82.586 107.809, 82.080 108.764 C 79.813 113.041, 76.857 122.023, 77.171 123.678 C 77.403 124.901, 78.566 125.602, 80.706 125.809 C 83.519 126.082, 84.126 125.669, 85.843 122.309 C 91.335 111.562, 92.404 109.782, 93.661 109.300 C 100.133 106.816, 101.600 127.553, 99.228 188 C 97.724 226.338, 98.115 246, 100.453 249.568 C 101.685 251.449, 102.832 252.039, 104.813 251.810 L 107.500 251.500 107.658 221.244 C 107.745 204.604, 108.085 186.829, 108.414 181.744 C 108.743 176.660, 109.211 169.350, 109.455 165.500 C 110.474 149.407, 110.013 119.500, 108.688 115.758 C 107.169 111.467, 103.966 107.760, 99.267 104.856 C 94.964 102.197, 95.009 99.295, 99.500 89.704 C 101.425 85.594, 103 81.420, 103 80.430 C 103 79.439, 103.877 77.696, 104.948 76.555 C 106.020 75.414, 107.347 72.010, 107.898 68.990 C 108.449 65.971, 109.391 61.145, 109.992 58.267 C 110.992 53.477, 110.895 52.778, 108.854 50.017 C 106.705 47.110, 103.735 46.214, 101.388 47.765 M 52.693 50.450 C 50.814 52.329, 49.409 64.809, 50.909 66.309 C 51.561 66.961, 52 71.708, 52 78.115 L 52 88.831 45.750 94.291 C 35.557 103.196, 24.730 107.575, 26.472 102.089 C 26.807 101.033, 26.610 99.877, 26.034 99.521 C 25.457 99.165, 24.731 99.689, 24.420 100.687 C 24.109 101.684, 23.390 103.356, 22.824 104.402 C 20.797 108.143, 20.814 113.522, 22.859 115.372 C 25.329 117.607, 33.913 116.662, 36.965 113.818 C 38.110 112.751, 40.504 111.270, 42.284 110.526 C 44.064 109.782, 46.777 108.009, 48.312 106.587 C 51.828 103.328, 52.796 103.338, 53.624 106.640 C 54.910 111.762, 54.597 144.792, 53.250 146.145 C 52.563 146.835, 52 148.062, 52 148.871 C 52 149.680, 51.371 151.053, 50.603 151.921 C 49.834 152.790, 48.147 155.312, 46.853 157.527 C 41.350 166.948, 36.287 174.583, 33.250 178.041 C 31.463 180.077, 30 181.989, 30 182.291 C 30 184.084, 17.616 200.370, 12.768 204.953 C 9.596 207.952, 7 211.214, 7 212.203 C 7 214.445, 10.452 218, 12.630 218 C 14.425 218, 22.831 209.549, 27.442 203.109 C 29.060 200.849, 30.758 199, 31.217 199 C 31.675 199, 32.440 197.973, 32.917 196.717 C 33.395 195.462, 35.459 192.242, 37.504 189.563 C 39.549 186.884, 42.695 182.399, 44.496 179.596 C 48.791 172.910, 52.508 169, 54.569 169 C 56.101 169, 56.182 171.610, 55.593 201.750 C 55.240 219.762, 54.696 237.071, 54.382 240.214 C 53.901 245.035, 54.150 246.402, 55.974 248.964 C 58.827 252.970, 60.641 252.795, 62.505 248.333 C 63.775 245.295, 64.077 238.169, 64.269 206.791 L 64.500 168.917 66.790 168.340 C 68.135 168.001, 69.787 168.375, 70.790 169.246 C 72.831 171.017, 78.641 172.264, 85.480 172.401 C 89.564 172.482, 90.525 172.169, 90.821 170.661 C 91.291 168.259, 87.250 164, 84.500 164 C 82.066 164, 68.079 159.297, 66.406 157.916 C 65.762 157.385, 65.045 150.935, 64.665 142.257 C 64.309 134.141, 63.479 121.352, 62.821 113.837 C 61.347 97.028, 61.977 94.588, 70.203 85.270 C 73.419 81.627, 76.305 77.633, 76.616 76.395 C 77.396 73.284, 76.251 70.204, 73.831 68.909 C 72.141 68.005, 71.315 68.282, 68.952 70.546 C 67.387 72.046, 65.970 74.448, 65.803 75.886 C 65.595 77.678, 64.904 78.500, 63.605 78.500 C 62.012 78.500, 61.661 77.624, 61.404 73 C 60.439 55.679, 60.006 51.712, 58.937 50.425 C 57.416 48.591, 54.540 48.603, 52.693 50.450 M 132.339 67.935 C 128.264 70.420, 127.559 72.856, 129.506 77.724 C 130.705 80.720, 130.832 82.311, 130.040 84.394 C 128.681 87.971, 128.711 92.704, 130.100 93.562 C 131.689 94.544, 136.224 90.899, 138.176 87.072 C 139.098 85.265, 140.785 82.793, 141.926 81.579 C 144.579 78.755, 144.615 73.520, 142.011 69.250 C 139.694 65.451, 137.012 65.086, 132.339 67.935 M 142.899 88.250 C 131.735 98.968, 124.244 105.306, 120.363 107.312 C 116.455 109.333, 115.953 110.634, 117.393 115.012 C 118.428 118.160, 118.887 118.490, 122.101 118.401 C 124.171 118.343, 127.295 117.192, 129.563 115.651 C 134.681 112.173, 135.962 112.289, 136.174 116.250 C 136.270 118.037, 136.505 120.850, 136.697 122.500 C 138.402 137.160, 138.509 136.381, 134.150 140.963 L 130.129 145.190 127.176 143.445 C 122.387 140.616, 121 141.935, 121 149.314 C 121 154.418, 121.399 156.051, 122.998 157.498 C 124.925 159.242, 125.145 159.241, 129.248 157.465 C 131.586 156.453, 134.210 155.034, 135.079 154.312 C 138.984 151.066, 139.850 152.941, 139.051 162.904 L 138.457 170.309 130.719 177.514 C 124.777 183.047, 121.996 184.927, 118.740 185.610 C 114.927 186.410, 114.469 186.821, 114.191 189.691 C 113.803 193.698, 116.839 197, 120.910 197 C 123.572 197, 132.637 191.015, 134.472 188.046 C 134.827 187.471, 135.766 187, 136.559 187 C 139.533 187, 137.584 208.455, 133.315 222.707 C 131.282 229.495, 126.903 235, 123.535 235 C 120.294 235, 117 237.818, 117 240.592 C 117 246.692, 122.779 250.112, 126.375 246.139 C 127.301 245.115, 129.958 243.479, 132.280 242.503 C 134.601 241.527, 137.850 240.153, 139.500 239.449 C 143.604 237.699, 159.838 235, 166.257 235 C 169.148 235, 173.085 234.503, 175.007 233.895 C 176.928 233.287, 186.375 232.624, 196 232.420 C 210.556 232.112, 214.132 232.325, 217.260 233.681 C 221.880 235.686, 225.610 234.402, 226.597 230.469 C 227.496 226.887, 222.883 222.010, 218.563 221.976 C 216.878 221.963, 213.911 221.583, 211.968 221.131 C 205.929 219.726, 164.251 223.520, 146.120 227.126 C 141.853 227.974, 140.571 227.924, 139.927 226.882 C 139.479 226.157, 139.578 225.009, 140.147 224.323 C 142.436 221.564, 145.114 207.555, 146.495 191.113 C 147.840 175.096, 148.156 173.480, 150.496 170.613 C 157.606 161.901, 160.763 157.129, 161.808 153.508 C 162.823 149.995, 162.734 149.290, 161.064 147.619 C 158.426 144.981, 156.264 146.149, 153.902 151.488 C 151.548 156.811, 149.369 157.356, 148.859 152.750 C 148.066 145.577, 149.282 142.389, 155.250 135.993 C 161.210 129.605, 162.312 126.320, 159.965 121.934 C 158.347 118.911, 153.438 119.374, 151.326 122.750 C 150.379 124.263, 149.480 125.677, 149.327 125.893 C 149.174 126.108, 148.362 125.716, 147.524 125.020 C 146.415 124.099, 146 121.780, 146 116.500 C 146 111.271, 145.581 108.897, 144.500 108 C 143.675 107.315, 143.013 106.248, 143.030 105.628 C 143.046 105.007, 146.399 100.987, 150.480 96.693 C 154.562 92.400, 158.172 88.033, 158.504 86.989 C 159.326 84.397, 156.261 80, 153.631 80 C 152.312 80, 148.195 83.165, 142.899 88.250" stroke="none" fill="black" fill-rule="evenodd"/>
</svg>