<svg xmlns="http://www.w3.org/2000/svg" width="300" height="300" viewBox="0 0 300 300" version="1.1">
	<path d="M 142.200 10.200 C 141.540 10.860, 141 13.257, 141 15.526 C 141 19.736, 138.744 22.910, 134.750 24.320 C 132.516 25.108, 132.462 29.319, 134.658 31.515 C 135.682 32.539, 137.283 32.988, 138.844 32.689 C 143.309 31.836, 144.004 32.746, 143.942 39.357 C 143.843 49.910, 142.878 53.166, 139.090 55.718 C 137.228 56.973, 134.636 58, 133.331 58 C 129.842 58, 128.082 62.290, 130.112 65.843 C 131.261 67.854, 132.287 68.429, 134.331 68.210 C 137.695 67.848, 138.560 69.772, 137.068 74.294 C 136.159 77.047, 134.865 78.173, 130.052 80.395 C 125.649 82.428, 123.297 82.959, 120.784 82.487 C 117.998 81.965, 116.961 82.312, 114.772 84.501 C 111.622 87.651, 110.310 92.463, 112.034 94.541 C 113.616 96.447, 120.671 96.420, 124.364 94.494 C 130.257 91.421, 131.694 93.873, 128.061 100.802 C 125.727 105.254, 121 115.834, 121 116.607 C 121 117.601, 112.424 134.404, 109.823 138.506 C 108.426 140.709, 105.307 144.215, 102.892 146.298 C 100.476 148.380, 97.735 150.795, 96.801 151.663 C 94.684 153.631, 91.663 152.954, 86.427 149.341 C 84.267 147.850, 80.706 146.376, 78.513 146.065 C 75.556 145.646, 74.216 144.854, 73.329 143 C 72.577 141.428, 71.932 132.522, 71.591 119 C 71.292 107.175, 70.999 96.825, 70.938 96 C 70.520 90.300, 74.941 84.121, 85.565 75.557 C 90.536 71.550, 92.418 67.399, 91.275 62.963 C 89.920 57.708, 86.910 57.817, 83.168 63.256 C 79.803 68.147, 71.472 75.410, 70.158 74.597 C 69.440 74.154, 67.618 61.368, 66.737 50.601 C 66.607 49.006, 65.729 47.219, 64.786 46.629 C 63.413 45.769, 62.450 46.147, 59.937 48.528 C 56.464 51.819, 56.504 50.898, 58.971 70.500 C 60.693 84.188, 59.524 86.307, 46.195 93.654 C 42.513 95.683, 38.241 98.212, 36.703 99.274 C 34.293 100.936, 33.496 101.034, 30.952 99.980 C 27.191 98.422, 25 99.980, 25 104.212 C 25 107.268, 28.190 110.903, 30.929 110.967 C 35.153 111.065, 51.600 103.465, 56.055 99.356 C 57.460 98.060, 59.372 97, 60.305 97 C 61.820 97, 62 98.532, 62 111.441 C 62 119.384, 61.583 126.140, 61.073 126.455 C 60.563 126.770, 59.608 128.709, 58.950 130.764 C 56.262 139.156, 44.008 164.071, 40.144 169 C 36.137 174.111, 30.969 181.563, 30.088 183.500 C 29.587 184.600, 27.478 187.075, 25.401 189 C 22.374 191.806, 20.819 192.500, 17.562 192.500 C 11.826 192.500, 11.487 195.568, 16.689 200.404 C 18.785 202.352, 20.818 203.958, 21.206 203.973 C 23.547 204.063, 34.535 194.536, 38 189.413 C 38.825 188.193, 42.572 182.779, 46.326 177.382 C 50.081 171.986, 53.784 166.204, 54.556 164.535 C 55.328 162.866, 56.367 160.825, 56.864 160 C 57.361 159.175, 58.346 157.262, 59.053 155.750 C 60.550 152.546, 63.535 152.114, 64.288 154.992 C 65.179 158.399, 63.939 218.029, 62.922 220.705 C 60.720 226.497, 60.032 236.434, 61.458 241.842 C 63.043 247.848, 64.496 250, 66.967 250 C 70.745 250, 71.780 246.976, 72.444 234 C 73.022 222.713, 73.698 191.377, 73.917 165.750 C 74.010 154.824, 74.477 154.277, 80.522 158.014 C 84.466 160.451, 94.067 162.364, 98.010 161.498 C 99.942 161.073, 100.980 160.157, 101.189 158.690 C 101.389 157.292, 102.399 156.332, 104.010 156.006 C 105.391 155.728, 108.091 153.750, 110.010 151.610 C 111.930 149.471, 114.709 146.427, 116.187 144.846 C 117.665 143.265, 119.147 141.112, 119.480 140.062 C 119.814 139.011, 121.123 136.625, 122.389 134.759 C 123.655 132.893, 125.016 130.074, 125.412 128.494 C 125.809 126.914, 126.949 124.470, 127.945 123.061 C 130.160 119.932, 135.662 107.249, 137.659 100.668 C 139.196 95.605, 142.229 89.599, 144.601 86.921 C 145.371 86.053, 146 84.856, 146 84.260 C 146 83.665, 147.912 82.233, 150.250 81.078 C 152.588 79.923, 156.975 77.182, 160 74.988 C 163.025 72.794, 167.139 69.899, 169.143 68.555 C 171.146 67.210, 173.737 64.774, 174.900 63.141 L 177.015 60.171 174.460 57.135 C 171.648 53.793, 169.857 53.884, 166.500 57.539 C 162.490 61.906, 152.872 69, 150.961 69 C 148.448 69, 148.463 66.953, 151 63.727 C 152.100 62.329, 153 60.674, 153 60.049 C 153 59.425, 155.290 56.805, 158.088 54.227 C 160.886 51.649, 163.580 48.784, 164.075 47.861 C 165.414 45.359, 162.448 39.162, 158.963 37.179 C 156.458 35.754, 156.012 34.887, 156.006 31.441 C 156.003 29.209, 156.661 26.509, 157.468 25.441 C 160.698 21.172, 158.158 15, 153.171 15 C 151.680 15, 151 14.385, 151 13.035 C 151 9.646, 144.764 7.636, 142.200 10.200 M 165 89.892 C 159.895 90.968, 157 92.807, 157 94.976 C 157 97.660, 158.693 98.431, 165 98.617 C 168.025 98.707, 172.975 99.293, 176 99.920 C 179.025 100.546, 184.745 101.329, 188.712 101.659 C 193.945 102.094, 196.388 102.772, 197.617 104.129 C 201.234 108.126, 211 105.473, 211 100.494 C 211 97.444, 205.336 92.042, 202 91.911 C 200.625 91.856, 195.225 91.389, 190 90.871 C 174.552 89.340, 168.707 89.112, 165 89.892 M 151.660 124.441 C 147.419 128.533, 143.027 132.174, 141.901 132.532 C 140.774 132.889, 138.475 132.611, 136.792 131.914 C 134.089 130.794, 133.573 130.864, 132.366 132.514 C 131.615 133.542, 131 135.860, 131 137.665 C 131 143.132, 138.209 145.704, 144.434 142.458 C 148.142 140.524, 150 141.217, 150 144.531 C 150 145.957, 150.732 149.361, 151.626 152.094 C 153.681 158.379, 153.554 158.534, 139.506 166.903 C 123.900 176.199, 115.378 180.133, 112.444 179.397 C 111.047 179.046, 109.328 179.313, 108.487 180.011 C 106.406 181.737, 106.612 187.338, 108.829 189.345 C 110.800 191.129, 118.480 191.651, 119.459 190.067 C 120.009 189.176, 126.336 185.994, 134.139 182.683 C 136.140 181.833, 140.120 179.058, 142.984 176.514 C 148.306 171.787, 151.730 170.966, 151.220 174.538 C 150.066 182.622, 149.521 184.800, 148.103 187 C 147.217 188.375, 145.619 191.300, 144.553 193.500 C 143.486 195.700, 141.575 198.932, 140.307 200.683 C 139.038 202.434, 138 204.516, 138 205.311 C 138 206.105, 137.313 207.325, 136.473 208.022 C 135.633 208.719, 133.530 211.362, 131.798 213.895 C 115.453 237.807, 113.007 241.199, 108 246.887 C 104.693 250.643, 102.790 251.999, 100.821 252 C 97.759 252, 95 254.321, 95 256.897 C 95 259.222, 99.110 263, 101.640 263 C 102.746 263, 104.742 261.821, 106.076 260.380 C 107.409 258.940, 110.120 256.727, 112.099 255.463 C 115.442 253.329, 121.479 246.159, 131.676 232.212 C 133.972 229.070, 135.885 226.131, 135.926 225.679 C 135.967 225.228, 137.800 222.724, 140 220.115 C 142.200 217.506, 144 215.031, 144 214.616 C 144 214.200, 145.288 211.979, 146.863 209.680 C 148.438 207.381, 150.697 203.588, 151.883 201.250 C 153.966 197.147, 156.190 195.880, 157.523 198.038 C 159.072 200.544, 157.728 264.205, 155.930 273.500 C 154.471 281.043, 154.306 293.688, 155.649 295.041 C 156.281 295.678, 157.735 295.902, 158.879 295.539 C 161.997 294.549, 164.013 286.539, 165.053 271 C 165.550 263.575, 166.355 252.100, 166.841 245.500 C 167.328 238.900, 167.635 226.619, 167.524 218.209 C 167.414 209.799, 167.708 202.680, 168.179 202.390 C 169.151 201.789, 170.762 202.592, 214.500 225.476 C 228.333 232.713, 240 239.913, 240 241.212 C 240 241.645, 240.498 242, 241.106 242 C 241.714 242, 243.548 243.125, 245.182 244.500 C 246.816 245.875, 248.768 247, 249.520 247 C 251.389 247, 254 243.062, 254 240.242 C 254 236.904, 251.118 233.003, 248.635 232.980 C 247.461 232.969, 243.978 231.282, 240.897 229.230 C 233.980 224.626, 230.512 222.338, 226 219.403 C 224.075 218.151, 221.150 216.807, 219.500 216.417 C 217.850 216.027, 215.235 214.824, 213.688 213.742 C 212.142 212.661, 208.812 210.678, 206.288 209.336 C 198.673 205.287, 192.641 201.864, 190 200.093 C 186.346 197.642, 176.160 193.085, 170.500 191.370 C 167.736 190.532, 167.439 189.989, 166.731 184.480 C 166.309 181.191, 165.700 175.040, 165.378 170.810 L 164.794 163.120 168.463 159.899 C 170.480 158.127, 173.789 155.803, 175.816 154.733 C 182.318 151.302, 183.911 149.262, 183.295 145.150 C 182.571 140.321, 180.079 135, 178.541 135 C 176.954 135, 174.421 137.894, 173.576 140.672 C 172.757 143.363, 165.272 150.257, 163.729 149.743 C 163.106 149.535, 162.055 147.243, 161.393 144.650 C 160.732 142.056, 159.668 139.304, 159.028 138.534 C 157.547 136.749, 159.720 133.214, 164.574 129.511 C 166.696 127.893, 168 126.037, 168 124.636 C 168 122.118, 163.228 117, 160.881 117 C 160.050 117, 155.901 120.348, 151.660 124.441" stroke="none" fill="black" fill-rule="evenodd"/>
</svg>