<svg xmlns="http://www.w3.org/2000/svg" width="300" height="300" viewBox="0 0 300 300" version="1.1">
	<path d="M 168 37.820 C 164.790 39.275, 149.328 49.962, 146.206 52.885 C 144.394 54.581, 142.263 57.520, 141.471 59.416 C 140.678 61.312, 139.572 63.146, 139.012 63.492 C 138.329 63.915, 138.324 64.736, 138.997 65.995 C 139.549 67.025, 140.004 69.811, 140.010 72.184 C 140.015 74.683, 141.084 78.786, 142.547 81.929 C 144.997 87.193, 145.025 87.482, 143.455 91.429 C 142.565 93.668, 140.074 97.152, 137.918 99.172 C 133.510 103.302, 132.719 107.531, 135.829 110.345 C 138.449 112.716, 140.978 112.395, 144.232 109.278 C 146.498 107.107, 147.419 106.774, 148.786 107.631 C 150.408 108.649, 150.902 110.729, 152.641 123.846 C 153.168 127.824, 152.198 131.671, 149.092 137.916 C 148.705 138.695, 145.263 140.945, 141.444 142.917 C 137.625 144.890, 133.387 147.290, 132.027 148.252 C 130.668 149.213, 128.910 150, 128.122 150 C 125.769 150, 120 154.957, 120 156.979 C 120 158.012, 120.708 159.565, 121.572 160.429 C 123.614 162.472, 126.703 161.692, 134.814 157.086 C 138.286 155.113, 143.083 152.512, 145.472 151.303 C 147.861 150.095, 150.109 148.633, 150.467 148.053 C 151.206 146.858, 155.014 146.602, 154.974 147.750 C 154.960 148.162, 153.835 151.859, 152.474 155.965 C 151.113 160.071, 150 164.249, 150 165.250 C 150 166.251, 149.371 168.067, 148.602 169.285 C 147.834 170.503, 144.843 177.125, 141.956 184 C 136.322 197.420, 133.899 201.768, 128.848 207.521 C 126.318 210.402, 125.851 211.542, 126.666 212.844 C 128.463 215.712, 131.809 215.375, 135.730 211.932 C 139.292 208.805, 144.945 201.323, 144.982 199.688 C 145.003 198.752, 149.667 188.234, 151.052 186 C 151.564 185.175, 153.075 182.449, 154.411 179.942 C 158.109 173.001, 164.812 168.890, 174.614 167.549 C 184.384 166.213, 190.594 169.685, 192.414 177.500 C 194.410 186.069, 194.940 191.781, 194.083 195.500 C 193.577 197.700, 192.604 202.200, 191.922 205.500 C 191.240 208.800, 189.628 213.793, 188.341 216.596 C 187.053 219.400, 186 222.201, 186 222.821 C 186 225.391, 179.575 237.705, 175.410 243.117 C 170.220 249.861, 167.506 252, 164.135 252 C 161.981 252, 159.955 250.546, 148.509 240.788 C 147.404 239.846, 143.385 237.197, 139.578 234.901 C 134.352 231.749, 132.270 230.970, 131.078 231.721 C 127.398 234.038, 128.944 238.077, 134.420 240.450 C 136.114 241.184, 139.802 243.971, 142.616 246.642 C 147.923 251.681, 154.324 256.768, 159.500 260.062 C 161.150 261.112, 163.234 262.504, 164.132 263.156 C 165.397 264.075, 166.468 264.049, 168.903 263.040 C 172.784 261.433, 182.464 251.883, 185.092 247.070 C 186.164 245.106, 188.682 240.575, 190.688 237 C 194.627 229.981, 198 221.580, 198 218.791 C 198 217.835, 198.859 215.129, 199.909 212.777 C 204.373 202.774, 205.648 183.944, 202.500 174.500 C 200.097 167.292, 193.003 159.650, 187.224 158.045 C 182.008 156.597, 173.235 156.823, 168.500 158.529 C 161.823 160.934, 161.662 160.805, 162.246 153.525 C 162.631 148.728, 162.407 146.753, 161.383 145.903 C 159.293 144.168, 159.684 143.360, 163.250 142.039 C 165.037 141.377, 167.175 140.435, 168 139.945 C 168.825 139.456, 173.100 137.297, 177.500 135.148 C 187.194 130.412, 189.253 128.356, 188.820 123.844 C 188.569 121.219, 187.999 120.429, 186.168 120.170 C 184.885 119.988, 182.997 120.598, 181.972 121.525 C 180.947 122.453, 177.623 124.447, 174.585 125.957 C 171.548 127.468, 168.449 129.212, 167.700 129.834 C 166.952 130.455, 165.269 131.084, 163.962 131.232 C 161.601 131.498, 161.584 131.430, 161.542 121.456 C 161.510 113.843, 161.099 110.800, 159.843 108.883 C 156.888 104.373, 157.185 102.435, 161.338 99.132 C 163.449 97.453, 166.083 95.791, 167.193 95.439 C 168.835 94.918, 169.096 94.232, 168.599 91.745 C 167.439 85.945, 165.612 85.211, 158.149 87.550 C 156.206 88.158, 155.860 87.965, 156.155 86.433 C 156.378 85.277, 157.717 84.333, 159.714 83.925 C 162.663 83.322, 172 75.122, 172 73.136 C 172 72.703, 173.154 71.264, 174.565 69.939 C 175.975 68.614, 177.802 65.948, 178.624 64.015 C 179.446 62.082, 180.936 58.925, 181.935 57 C 184.716 51.642, 184.489 44.329, 181.417 40.302 C 179.177 37.365, 178.379 37.008, 174.199 37.070 C 171.615 37.109, 168.825 37.446, 168 37.820 M 112.200 49.200 C 111.540 49.860, 111 50.824, 111 51.342 C 111 52.532, 121.714 69.800, 124.168 72.564 C 125.175 73.700, 126 75.372, 126 76.281 C 126 77.189, 126.632 79.410, 127.404 81.216 C 128.176 83.022, 129.375 86.419, 130.069 88.764 C 131.595 93.927, 133.400 95.743, 135.375 94.104 C 137.628 92.234, 138.158 85.699, 136.450 80.860 C 135.603 78.462, 135.162 75.495, 135.470 74.268 C 135.861 72.706, 135.424 71.657, 134.015 70.777 C 132.907 70.085, 132 68.822, 132 67.971 C 132 64.701, 124.283 52.012, 120.819 49.586 C 118.137 47.707, 113.884 47.516, 112.200 49.200 M 166.250 51.155 C 162.435 53.537, 162.136 54.738, 165.250 55.180 C 166.696 55.386, 167.614 56.304, 167.820 57.750 C 168.306 61.174, 170.919 60.437, 172.605 56.402 C 175.435 49.631, 172.531 47.233, 166.250 51.155 M 64.246 60.289 C 63.129 61.505, 61.929 63.859, 61.579 65.520 C 61 68.267, 62.176 79.869, 63.615 85.602 C 64.409 88.767, 58.823 93.790, 49.394 98.390 C 45.421 100.328, 41.881 102.383, 41.527 102.957 C 41.172 103.531, 40.204 104, 39.376 104 C 38.548 104, 35.650 104.955, 32.935 106.123 C 28.128 108.191, 28 108.356, 28 112.501 C 28 120.356, 29.133 120.282, 47.041 111.256 C 55.824 106.829, 63.194 103.504, 63.418 103.868 C 64.631 105.830, 66.205 118.784, 66.297 127.558 C 66.399 137.338, 66.317 137.726, 63.328 141.558 C 61.638 143.726, 59.458 147.075, 58.485 149 C 57.512 150.925, 56.337 153.175, 55.873 154 C 55.409 154.825, 54.416 156.850, 53.667 158.500 C 52.917 160.150, 50.737 163.975, 48.822 167 C 46.907 170.025, 45.034 173.175, 44.661 174 C 44.288 174.825, 43.023 177.075, 41.849 179 C 40.675 180.925, 38.542 184.568, 37.107 187.095 C 35.673 189.623, 32.025 195.113, 29 199.295 C 24.597 205.384, 22.922 206.960, 20.601 207.200 C 19.006 207.365, 17.221 208.267, 16.634 209.205 C 15.027 211.773, 19.357 216, 23.595 216 C 26.333 216, 27.796 214.944, 32.944 209.250 C 36.301 205.537, 39.952 200.641, 41.056 198.368 C 42.160 196.096, 44.174 192.946, 45.531 191.368 C 46.887 189.791, 47.998 188.200, 47.999 187.833 C 47.999 187.466, 50.036 183.641, 52.524 179.333 C 55.012 175.025, 57.437 170.825, 57.914 170 C 58.850 168.380, 64.766 168.366, 66.380 169.980 C 67.800 171.400, 67.086 200.341, 65.344 212 C 64.481 217.775, 63.618 224.075, 63.426 226 C 63.234 227.925, 62.661 232.425, 62.153 236 C 61.106 243.358, 62.235 247.315, 65.517 247.788 C 69.831 248.409, 71.217 245.912, 72.109 235.915 C 72.571 230.737, 73.338 224.173, 73.813 221.328 C 74.288 218.484, 74.481 214.823, 74.242 213.193 C 74.002 211.563, 74.286 209.335, 74.871 208.241 C 75.461 207.138, 75.995 199.848, 76.070 191.876 C 76.143 183.969, 76.433 176.484, 76.712 175.241 C 77.333 172.485, 81.287 171.292, 85.069 172.720 C 86.998 173.448, 89.194 173.389, 92.643 172.517 C 102.331 170.068, 97.811 164.245, 86.152 164.154 C 79.993 164.107, 77.395 162.848, 76.777 159.612 C 76.519 158.266, 76.209 148.491, 76.087 137.890 C 75.965 127.290, 75.446 117.833, 74.933 116.874 C 73.589 114.363, 73.762 110.673, 75.696 100.579 C 77.501 91.160, 78.682 89.327, 87.771 81.840 C 91.750 78.562, 92.201 73.955, 88.777 71.557 C 87.555 70.701, 86.199 70, 85.763 70 C 85.328 70, 82.791 72.322, 80.126 75.161 C 73.662 82.045, 72.384 81.475, 71.512 71.317 C 70.675 61.562, 70.302 60.232, 68.070 59.038 C 66.704 58.306, 65.792 58.605, 64.246 60.289 M 150 61.109 C 147.525 62.733, 145.517 64.386, 145.537 64.781 C 145.558 65.176, 146.458 66.960, 147.537 68.744 C 149.711 72.337, 151.719 72.921, 152.716 70.250 C 153.075 69.287, 154.185 67.912, 155.184 67.193 C 157.334 65.646, 157.812 57.950, 155.750 58.078 C 155.063 58.121, 152.475 59.484, 150 61.109" stroke="none" fill="black" fill-rule="evenodd"/>
</svg>