<svg xmlns="http://www.w3.org/2000/svg" width="300" height="300" viewBox="0 0 300 300" version="1.1">
	<path d="M 49.561 49.933 C 48.001 51.656, 47.889 53.265, 48.525 64.769 C 48.917 71.866, 48.939 78.617, 48.573 79.771 C 47.347 83.633, 24.912 99, 20.499 99 C 18.183 99, 13.019 103.087, 11.403 106.200 C 10.631 107.686, 10 110.498, 10 112.450 C 10 116.786, 11.454 117.001, 17.020 113.487 C 19.209 112.105, 23.470 109.883, 26.487 108.548 C 29.505 107.213, 33.485 104.969, 35.331 103.561 C 37.178 102.152, 39.137 101, 39.684 101 C 40.231 101, 42.344 99.200, 44.380 97 C 50.420 90.471, 50.675 90.914, 51.431 109.250 C 51.800 118.188, 52.241 128.527, 52.412 132.226 C 52.696 138.365, 52.517 139.086, 50.362 140.499 C 49.063 141.350, 48 142.556, 48 143.179 C 48 143.802, 46.965 145.704, 45.700 147.406 C 44.435 149.108, 42.780 152.525, 42.023 155 C 41.265 157.475, 40.143 160.175, 39.529 161 C 38.916 161.825, 37.758 163.830, 36.957 165.455 C 32.675 174.139, 17.634 194.329, 10.602 200.831 C 8.621 202.663, 7 204.543, 7 205.009 C 7 206.497, 12.321 210.100, 14.069 209.794 C 17.612 209.176, 39.271 183.514, 42.593 176 C 44.825 170.952, 51.100 162, 52.407 162 C 53.491 162, 53.810 166.820, 54.043 186.750 C 54.396 217.027, 54.431 214.029, 53.558 228.500 C 53.099 236.095, 53.210 241.478, 53.859 243.164 C 55.265 246.815, 58.675 247.769, 61.220 245.224 C 63.278 243.167, 63.340 239.653, 62.593 167.309 C 62.569 165.003, 62.885 162.781, 63.296 162.371 C 63.707 161.960, 67.546 163.056, 71.828 164.807 C 81.617 168.810, 90.866 169.991, 93.306 167.551 C 95.689 165.168, 95.426 162.118, 92.750 161.106 C 88.054 159.331, 83.295 158, 81.644 158 C 80.701 158, 78.888 157.317, 77.614 156.483 C 76.340 155.648, 72.644 154.636, 69.399 154.233 C 63.748 153.531, 63.490 153.374, 63.265 150.500 C 63.136 148.850, 62.576 143.900, 62.020 139.500 C 60.823 130.021, 59.936 89.445, 60.858 86.339 C 61.211 85.150, 63.424 82.071, 65.775 79.497 C 70.483 74.343, 73.329 68.611, 72.491 65.971 C 72.193 65.032, 71.034 63.436, 69.916 62.424 C 67.487 60.226, 64.857 61.371, 64 65 C 63.297 67.978, 60.264 70.014, 59.161 68.248 C 58.731 67.559, 58.270 63.301, 58.136 58.786 C 58.002 54.270, 57.412 49.996, 56.824 49.288 C 55.251 47.393, 51.563 47.720, 49.561 49.933 M 163.398 70.381 C 158.013 71.850, 156 73.642, 156 76.967 C 156 79.716, 158.034 82.176, 161.250 83.317 C 163.663 84.173, 163.500 85.116, 159.500 93.433 C 157.575 97.435, 156 101.077, 156 101.526 C 156 101.976, 154.916 105.078, 153.592 108.422 C 152.268 111.765, 150.396 118.336, 149.434 123.025 C 147.856 130.706, 147.830 131.992, 149.165 136.025 C 150.446 139.895, 151.210 140.698, 154.819 141.968 C 158.600 143.298, 159.266 143.274, 161.900 141.718 C 163.500 140.773, 165.704 140, 166.799 140 C 168.932 140, 168.967 139.446, 166.154 150.250 C 165.075 154.393, 156.191 180.850, 154.989 183.500 C 154.490 184.600, 153.210 188.244, 152.144 191.599 C 151.079 194.953, 149.550 199.003, 148.747 200.599 C 147.943 202.194, 146.994 205.030, 146.638 206.901 C 145.942 210.552, 142.385 218.518, 140.323 221.044 C 137.682 224.280, 141.630 231.123, 145.321 229.707 C 147.323 228.939, 151.999 221.635, 152.004 219.270 C 152.006 218.296, 152.854 216.113, 153.888 214.417 C 154.922 212.721, 156.085 209.455, 156.473 207.160 C 156.861 204.865, 158.509 200.239, 160.137 196.879 C 161.764 193.520, 163.530 188.477, 164.062 185.671 C 164.594 182.865, 165.923 178.725, 167.015 176.469 C 168.107 174.214, 169 172.056, 169 171.673 C 169 171.291, 169.857 169.071, 170.904 166.739 C 171.951 164.408, 173.066 160.372, 173.382 157.772 C 174.054 152.230, 175.890 148.839, 178 149.238 C 179.681 149.557, 180.157 152.143, 182.461 173.500 C 185.509 201.740, 186.409 205.156, 192.300 210.828 C 194.205 212.663, 197.493 214.551, 199.628 215.038 C 207.439 216.818, 255.167 214.280, 259 211.881 C 259.825 211.364, 261.292 210.676, 262.261 210.351 C 264.801 209.500, 265.521 205.810, 265.344 194.541 C 265.200 185.362, 262.856 169.255, 260.972 164.500 C 260.536 163.400, 258.966 158.675, 257.484 154 C 256.001 149.325, 254.385 144.719, 253.894 143.764 C 253.402 142.809, 253 141.151, 253 140.079 C 253 139.008, 251.831 135.290, 250.403 131.816 C 248.974 128.342, 247.409 124.487, 246.924 123.250 C 246.415 121.949, 245.190 121, 244.021 121 C 240.893 121, 241.034 122.193, 246.500 142 C 247.942 147.225, 249.577 153.075, 250.134 155 C 253.764 167.552, 255.991 184.290, 255.190 192.998 L 254.500 200.496 250.599 201.771 C 245.668 203.384, 211.829 205.501, 205.691 204.581 C 202.361 204.082, 200.416 203.094, 198.667 201.017 C 195.883 197.708, 193.003 186.341, 192.994 178.627 C 192.991 175.807, 192.505 170.800, 191.914 167.500 C 191.323 164.200, 190.460 158.575, 189.995 155 C 188.476 143.318, 187.357 139.735, 184.600 137.727 C 183.170 136.685, 182 134.986, 182 133.951 C 182 130.454, 191.050 115.309, 198.006 107.165 C 200.386 104.378, 200.523 102.679, 198.505 101.004 C 196.953 99.716, 197.092 99.656, 190.299 104.582 C 187.350 106.722, 186.243 105.801, 185.456 100.555 C 185.043 97.803, 183.883 95.299, 182.353 93.862 C 177.633 89.427, 175.272 94.164, 175.059 108.500 C 174.928 117.312, 173.143 121.349, 167.093 126.514 C 164.202 128.981, 161.288 131, 160.618 131 C 156.451 131, 155.821 124.016, 159.500 118.595 C 160.875 116.569, 162 113.833, 162 112.515 C 162 111.196, 162.450 109.840, 163 109.500 C 163.550 109.160, 164 107.481, 164 105.770 C 164 104.058, 164.748 101.831, 165.661 100.822 C 167.569 98.714, 168.090 97.819, 173.416 87.500 C 175.570 83.327, 177.708 79.681, 178.166 79.397 C 179.852 78.355, 178.930 73.840, 176.545 71.455 C 173.840 68.749, 170.404 68.469, 163.398 70.381 M 111.769 76.029 C 107.390 78.930, 99 88.753, 99 90.979 C 99 91.564, 97.828 93.813, 96.396 95.977 C 93.917 99.724, 93.851 100.165, 95.009 105.206 C 95.678 108.118, 96.656 111.602, 97.182 112.950 C 98.799 117.088, 99.667 138.335, 99.233 163.125 C 98.874 183.598, 99.038 187.172, 100.457 189.918 C 102.781 194.411, 105.996 195.369, 112.077 193.380 C 116.231 192.021, 118.083 190.494, 123.600 183.881 C 127.215 179.546, 130.471 176.032, 130.836 176.072 C 131.201 176.112, 133.300 178.317, 135.500 180.972 C 140.742 187.298, 144.861 189.680, 147.821 188.096 C 150.044 186.906, 150.713 184.558, 149.111 183.568 C 148.622 183.266, 147.915 181.796, 147.540 180.302 C 147.165 178.808, 145.502 175.992, 143.845 174.043 C 142.187 172.094, 139.079 167.688, 136.938 164.250 C 133.590 158.877, 132.630 158, 130.095 158 C 127.558 158, 126.683 158.802, 123.823 163.750 C 121.996 166.912, 120.050 170.211, 119.500 171.080 C 115.694 177.096, 113.983 179.324, 112.222 180.557 C 109.241 182.645, 107.750 180.230, 107.374 172.707 C 106.959 164.399, 108.682 156.070, 111.451 153 C 114.918 149.156, 120 141.298, 120 139.782 C 120 139.035, 121.332 136.866, 122.959 134.962 C 124.900 132.691, 125.933 130.368, 125.959 128.209 C 125.982 126.399, 126.995 121.899, 128.211 118.209 C 130.059 112.600, 130.426 109.205, 130.449 97.500 C 130.481 81.478, 129.568 78.123, 124.336 75.036 C 119.650 72.271, 117.145 72.469, 111.769 76.029 M 113.021 90.185 C 111.821 92.487, 109.301 96.168, 107.420 98.365 C 103.811 102.580, 103.223 104.823, 105.205 106.805 C 105.867 107.467, 106.655 110.109, 106.955 112.675 C 107.255 115.241, 107.994 117.503, 108.599 117.703 C 109.203 117.902, 110.778 116.487, 112.099 114.558 C 113.436 112.604, 115.664 110.795, 117.128 110.473 C 119.225 110.011, 119.879 109.149, 120.367 106.197 C 121.516 99.246, 121.069 90.543, 119.443 88.223 C 117.162 84.966, 115.472 85.482, 113.021 90.185 M 108.667 132.667 C 107.706 133.627, 107.845 137, 108.845 137 C 109.813 137, 113 133.680, 113 132.671 C 113 131.801, 109.536 131.798, 108.667 132.667" stroke="none" fill="black" fill-rule="evenodd"/>
</svg>