<svg xmlns="http://www.w3.org/2000/svg" width="300" height="300" viewBox="0 0 300 300" version="1.1">
	<path d="M 98.653 27.831 C 97.741 28.838, 97.292 29.959, 97.655 30.322 C 98.017 30.684, 98.667 32.898, 99.099 35.240 C 99.531 37.583, 100.386 41.750, 100.998 44.500 C 102.452 51.025, 101.604 67.428, 99.564 72.244 C 98.692 74.303, 97.871 78.803, 97.739 82.244 L 97.500 88.500 100.601 88.802 C 104.031 89.137, 105.666 87.380, 108.025 80.825 C 109.554 76.577, 115.508 69.669, 117.165 70.222 C 117.785 70.428, 118.443 72.150, 118.627 74.049 C 119.780 85.896, 120.709 90.883, 122.308 93.812 C 124.683 98.164, 127.378 97.766, 127.832 92.996 C 128.014 91.078, 128.645 88.928, 129.233 88.219 C 129.996 87.300, 129.951 85.434, 129.078 81.715 C 128.404 78.847, 127.998 73.129, 128.176 69.010 C 128.489 61.769, 128.600 61.476, 131.500 60.208 C 137.170 57.728, 137.496 57.357, 137.815 52.997 C 138.371 45.410, 134.988 45.703, 121.811 54.381 C 110.436 61.872, 109.572 61.818, 110.446 53.659 C 111.445 44.334, 108.726 31.254, 105.165 28.255 C 101.928 25.528, 100.803 25.455, 98.653 27.831 M 141.200 30.200 C 139.594 31.806, 139.684 38.991, 141.415 47.262 C 143.237 55.974, 145.792 60.405, 149.226 60.809 C 152.849 61.236, 153.821 62.748, 154.186 68.525 C 154.473 73.072, 154.714 73.500, 156.983 73.500 C 159.021 73.500, 159.591 72.873, 160.163 70 C 161.659 62.490, 164.983 52.833, 167.088 49.876 C 168.303 48.170, 170.805 46.144, 172.649 45.373 C 176.031 43.960, 176.836 42.635, 175 41.500 C 174.450 41.160, 174 39.820, 174 38.523 C 174 31.598, 169.778 31.004, 164.944 37.250 C 160.259 43.302, 153.265 49.039, 151.431 48.335 C 150.497 47.977, 150.002 46.733, 150.155 45.125 C 150.558 40.874, 148.878 32.640, 147.223 30.750 C 145.443 28.718, 142.913 28.487, 141.200 30.200 M 46.789 48.058 C 45.849 48.607, 44.630 50.679, 44.083 52.663 C 43.107 56.198, 43.356 57.829, 47.042 72 C 48.888 79.098, 48.393 80.586, 43.110 83.837 C 40.421 85.492, 36.078 87.573, 33.459 88.462 C 30.841 89.351, 27.459 90.961, 25.945 92.039 C 24.430 93.118, 22.534 94, 21.730 94 C 18.948 94, 15 98.031, 15 100.873 C 15 105.506, 18.602 107.477, 21.921 104.660 C 22.790 103.924, 26.200 102.270, 29.500 100.986 C 32.800 99.702, 36.388 98.055, 37.473 97.326 C 38.557 96.597, 40.108 96, 40.918 96 C 41.728 96, 43.659 94.785, 45.209 93.300 C 49.864 88.840, 50.868 91.058, 51.184 106.500 C 51.439 118.965, 51.328 119.788, 48.485 126.500 C 45.055 134.597, 37 147.389, 26.500 161.412 C 24.300 164.350, 21.274 168.835, 19.775 171.377 C 17.540 175.167, 16.532 176, 14.180 176 C 12.590 176, 10.511 176.883, 9.520 177.978 C 7.790 179.890, 7.820 180.075, 10.416 183.478 C 13.576 187.622, 17.918 188.251, 20.750 184.976 C 21.713 183.862, 23.596 181.820, 24.936 180.438 C 27.365 177.934, 27.911 177.188, 33.397 168.884 C 34.990 166.473, 38.478 161.964, 41.147 158.864 C 43.816 155.765, 46 152.805, 46 152.289 C 46 150.788, 50.473 147, 52.245 147 C 53.713 147, 53.815 150.485, 53.362 185.139 C 52.975 214.778, 52.563 223.748, 51.514 225.389 C 49.784 228.094, 49.482 230.742, 50.475 234.500 C 51.489 238.335, 53.808 241, 56.132 241 C 59.356 241, 61.103 236.781, 61.165 228.843 C 61.197 224.804, 61.484 221.066, 61.802 220.537 C 62.121 220.007, 62.494 203.920, 62.630 184.790 C 62.767 165.659, 63.157 149.555, 63.498 149.003 C 64.516 147.356, 67.566 147.863, 69.500 150 C 70.495 151.100, 72.521 152, 74.001 152 C 75.482 152, 78.092 152.698, 79.803 153.552 C 82.640 154.967, 83.137 154.957, 85.457 153.437 C 90.445 150.168, 87.697 145.827, 79.074 143.356 C 76.008 142.477, 72.899 141.275, 72.163 140.685 C 71.428 140.095, 68.953 139.359, 66.663 139.050 L 62.500 138.489 62.826 129.321 C 63.024 123.760, 62.706 119.319, 62.017 118.033 C 61.309 116.709, 60.873 109.868, 60.857 99.834 L 60.832 83.757 64.416 80.086 C 68.512 75.891, 69.068 71.947, 66.106 68.094 C 63.992 65.345, 61.128 65.793, 60.288 69.005 C 60.001 70.102, 58.976 71, 58.011 71 C 56.667 71, 56.113 69.885, 55.653 66.250 C 54.476 56.948, 53.320 52.137, 51.649 49.586 C 49.785 46.742, 49.306 46.591, 46.789 48.058 M 181.890 82.298 C 180.025 83.563, 177.760 84.880, 176.856 85.226 C 173.835 86.383, 163.138 95.021, 159.582 99.175 C 157.649 101.433, 154.703 104.111, 153.034 105.125 C 147.865 108.269, 149.668 114, 155.827 114 C 158.320 114, 158.588 114.883, 158.861 124 C 158.984 128.125, 159.490 132.850, 159.985 134.500 C 162.902 144.229, 164.761 203.164, 163.154 235 C 162.530 247.375, 161.755 267.063, 161.433 278.750 L 160.846 300 165.763 300 L 170.681 300 170.883 270.451 C 170.995 254.200, 171.435 239.912, 171.862 238.701 C 173.032 235.381, 172.404 178.251, 170.948 155.500 C 170.244 144.500, 169.582 128.540, 169.477 120.033 L 169.287 104.565 173.893 100.331 C 179.330 95.333, 186.728 92.274, 188.624 94.241 C 189.292 94.933, 190.711 98.200, 191.779 101.500 C 193.465 106.713, 193.679 109.861, 193.410 125.500 C 193.013 148.587, 192.199 158, 190.602 158 C 189.927 158, 188.081 156.650, 186.500 155 C 183.138 151.491, 180.977 151.205, 179.209 154.036 C 178.172 155.697, 178.188 156.430, 179.292 158.007 C 181.975 161.838, 193.023 173, 194.131 173 C 194.754 173, 196.777 172.065, 198.625 170.923 C 201.361 169.232, 201.965 168.254, 201.872 165.673 C 201.809 163.928, 202.089 157.325, 202.495 151 C 203.149 140.814, 203.309 135.099, 203.106 129.250 C 203.072 128.287, 203.007 123.101, 202.961 117.724 C 202.915 112.347, 202.230 105.463, 201.439 102.425 C 200.647 99.388, 200 95.559, 200 93.916 C 200 90.704, 198.123 87.133, 194.131 82.750 C 190.983 79.294, 186.561 79.131, 181.890 82.298 M 112.500 101.718 C 111.400 101.985, 109.068 103.282, 107.318 104.601 C 105.568 105.919, 103.004 107.428, 101.621 107.954 C 100.237 108.480, 98.353 110.058, 97.434 111.460 C 96.058 113.561, 95.990 114.283, 97.049 115.560 C 100.029 119.150, 101.843 119.236, 107.406 116.054 C 115.567 111.385, 119.106 112.040, 120.263 118.437 C 121.017 122.606, 120.204 124.089, 117.532 123.419 C 115.860 122.999, 114.264 123.782, 111.387 126.437 C 106.829 130.641, 104.633 130.658, 104.162 126.491 C 103.975 124.846, 103.358 122.938, 102.789 122.250 C 101.476 120.662, 97.766 120.634, 96.200 122.200 C 94.584 123.816, 94.758 129.609, 96.569 134.500 C 99.687 142.915, 99.898 157.679, 97.409 193.162 C 96.811 201.696, 96.841 201.850, 99.420 203.540 C 101.193 204.701, 103.141 205.076, 105.452 204.701 C 110.104 203.947, 119.837 197.558, 121.002 194.495 C 121.524 193.123, 122.626 192, 123.452 192 C 124.278 192, 125.706 190.852, 126.625 189.450 C 129.892 184.463, 134.798 188.361, 135.440 196.454 C 135.713 199.889, 136.367 200.960, 141.650 206.623 C 147.505 212.899, 150.835 210.397, 148.155 201.736 C 147.190 198.619, 146.086 195.752, 145.701 195.367 C 145.315 194.982, 145 194.104, 145 193.416 C 145 192.729, 144.024 189.991, 142.831 187.333 C 141.638 184.675, 139.941 180.534, 139.060 178.131 C 137.783 174.647, 136.702 173.459, 133.729 172.274 C 129.380 170.539, 127.320 171.063, 126.070 174.224 C 125.575 175.476, 121.571 180.051, 117.172 184.390 C 106.842 194.581, 105.951 194.363, 106.613 181.805 C 107.395 166.955, 107.379 166.997, 116.135 156.335 C 120.577 150.926, 125.552 145.089, 127.190 143.365 C 129.661 140.765, 130.262 139.146, 130.717 133.865 C 131.019 130.364, 131.669 126.988, 132.163 126.362 C 132.693 125.688, 132.677 124.260, 132.123 122.862 C 131.608 121.563, 130.670 117.947, 130.039 114.827 C 129.083 110.102, 128.152 108.473, 124.468 105.077 C 120.092 101.044, 117.857 100.417, 112.500 101.718 M 109.200 141.200 C 107.749 142.651, 107.599 147, 109 147 C 110.534 147, 114 143.187, 114 141.500 C 114 139.706, 110.889 139.511, 109.200 141.200" stroke="none" fill="black" fill-rule="evenodd"/>
</svg>