<svg xmlns="http://www.w3.org/2000/svg" width="300" height="300" viewBox="0 0 300 300" version="1.1">
	<path d="M 181.200 10.200 C 180.540 10.860, 179.990 11.873, 179.978 12.450 C 179.966 13.027, 179.076 14.625, 178 16 C 176.924 17.375, 176.034 19.218, 176.022 20.095 C 175.990 22.442, 172.846 24.888, 168.934 25.610 C 161.348 27.010, 158.680 31.680, 163 36 C 165.338 38.338, 166.806 38.462, 169.347 36.537 C 172.076 34.469, 174.119 35.650, 173.355 38.854 C 173.008 40.309, 172.397 41.950, 171.996 42.500 C 171.596 43.050, 171.027 44.625, 170.732 46 C 169.903 49.864, 166.051 63.263, 165.126 65.500 C 163.496 69.442, 161.788 74.544, 161.276 77 C 160.989 78.375, 158.980 81.641, 156.812 84.257 C 152.563 89.383, 152.467 90.977, 156.166 94.948 C 158.610 97.571, 159.118 97.034, 149.529 101.951 C 145.578 103.977, 144.388 105.184, 143.728 107.836 C 142.763 111.715, 144.117 114, 147.381 114 C 148.556 114, 153.486 111.975, 158.336 109.500 C 163.185 107.025, 167.617 105, 168.183 105 C 168.749 105, 172.813 102.975, 177.214 100.500 C 181.615 98.025, 185.772 96, 186.453 96 C 187.133 96, 188.547 95.050, 189.595 93.890 C 190.643 92.729, 194.504 90.265, 198.176 88.415 C 201.847 86.564, 205.102 84.644, 205.409 84.148 C 206.034 83.136, 215.088 79.472, 219.139 78.591 C 224.613 77.401, 223.143 68, 217.483 68 C 216.124 68, 210.418 70.250, 204.804 73 C 199.189 75.750, 193.996 78, 193.263 78 C 192.239 78, 192.083 76.785, 192.590 72.750 C 192.952 69.862, 193.643 67.073, 194.124 66.550 C 194.606 66.028, 195 64.985, 195 64.233 C 195 63.482, 196.041 61.434, 197.313 59.683 C 201.216 54.313, 201.851 51.895, 200.325 48.211 C 197.642 41.734, 194.988 42.681, 188.189 52.544 C 184.528 57.854, 182.754 59.575, 180.691 59.817 C 177.743 60.163, 176.083 57.883, 177.720 55.737 C 178.240 55.057, 179.256 51.800, 179.979 48.500 C 180.701 45.200, 182.632 39.701, 184.269 36.280 C 186.715 31.169, 187.996 29.696, 191.457 28.021 C 193.773 26.900, 196.703 24.881, 197.968 23.534 C 200.201 21.157, 200.220 20.984, 198.607 17.585 C 196.435 13.008, 195.421 12.494, 192.428 14.455 C 189.663 16.267, 188 15.773, 188 13.141 C 188 10.964, 186.103 9, 184 9 C 183.120 9, 181.860 9.540, 181.200 10.200 M 57.014 46.710 C 55.080 49.167, 54.898 50.541, 55.052 61.460 C 55.238 74.553, 54.829 76.602, 51.840 77.551 C 50.754 77.896, 46.475 80.182, 42.332 82.631 C 38.190 85.080, 32.532 87.946, 29.760 88.999 C 26.988 90.052, 23.771 91.775, 22.610 92.828 C 21.450 93.880, 19.156 95.365, 17.512 96.128 C 13.635 97.928, 13.218 100.323, 16.519 101.827 C 18.653 102.799, 20.192 102.656, 25.152 101.028 C 28.472 99.938, 32.662 98.136, 34.462 97.023 C 36.263 95.910, 38.540 95, 39.524 95 C 40.507 95, 42.786 93.875, 44.589 92.500 C 46.392 91.125, 48.277 90, 48.778 90 C 49.280 90, 50.520 89.083, 51.534 87.963 C 52.547 86.843, 54.079 86.061, 54.936 86.226 C 56.265 86.482, 56.457 88.367, 56.241 99.013 C 55.960 112.814, 55.293 118.701, 53.913 119.554 C 53.411 119.864, 53 120.797, 53 121.626 C 53 122.455, 51.875 124.608, 50.500 126.411 C 49.125 128.214, 48 130.020, 48 130.425 C 48 130.830, 46.425 133.534, 44.500 136.434 C 42.575 139.334, 41 142.223, 41 142.854 C 41 143.484, 40.652 144, 40.227 144 C 39.802 144, 38.586 145.688, 37.524 147.750 C 36.462 149.813, 34.109 153.585, 32.296 156.134 C 30.483 158.683, 29 161.086, 29 161.475 C 29 161.864, 27.425 164.022, 25.500 166.271 C 23.575 168.520, 21.994 170.841, 21.987 171.430 C 21.980 172.018, 19.505 174.666, 16.487 177.313 C 9.932 183.062, 9.487 185.470, 14.587 187.601 C 18.709 189.323, 19.021 189.173, 25.750 182.222 C 28.087 179.807, 30 177.111, 30 176.230 C 30 175.349, 31.718 172.575, 33.819 170.064 C 35.919 167.554, 38.728 163.475, 40.062 161 C 41.395 158.525, 44.402 154.201, 46.743 151.392 C 49.084 148.583, 51 145.840, 51 145.297 C 51 143.789, 54.450 141, 56.316 141 C 57.739 141, 57.913 141.949, 57.539 147.670 C 57.300 151.339, 56.844 160.901, 56.527 168.920 C 56.209 176.939, 55.457 189.868, 54.854 197.651 C 53.791 211.396, 53.680 211.861, 50.990 213.850 C 46.999 216.800, 46.470 223.021, 49.727 228.704 C 52.378 233.330, 54.886 234.667, 57.895 233.056 C 60.227 231.808, 60.555 230.827, 61.919 221 C 64.356 203.439, 65.125 191.903, 65.651 165 C 65.958 149.325, 66.598 136.020, 67.074 135.434 C 67.567 134.826, 67.494 132.752, 66.904 130.615 C 66.265 128.300, 66.223 126.411, 66.793 125.682 C 68.548 123.440, 68.885 118.555, 67.423 116.559 C 66.352 115.098, 66.011 111.263, 66.044 101.059 C 66.108 81.115, 66.520 79.686, 74.279 72.500 C 81.975 65.374, 83.016 63.025, 79.807 60.035 C 76.472 56.928, 72.827 57.680, 71.796 61.686 C 71.041 64.619, 67.692 67.025, 66.301 65.634 C 65.999 65.333, 65.675 61.061, 65.581 56.142 C 65.403 46.819, 64.327 44, 60.950 44 C 59.957 44, 58.186 45.219, 57.014 46.710 M 129.405 62.125 C 127.036 64.767, 114.190 73.529, 107.500 77.065 C 104.750 78.518, 101.150 80.446, 99.500 81.348 C 97.850 82.250, 95.802 82.990, 94.950 82.994 C 91.343 83.008, 89.425 89.448, 92.313 91.845 C 93.741 93.030, 100.700 92.295, 101.583 90.865 C 101.877 90.389, 102.747 90, 103.515 90 C 104.283 90, 107.179 88.663, 109.950 87.029 C 112.722 85.395, 115.594 84.291, 116.334 84.575 C 117.237 84.921, 117.696 87, 117.733 90.913 C 117.790 96.991, 118.956 100.239, 122.195 103.344 C 123.908 104.987, 123.963 105.425, 122.695 107.344 C 120.753 110.284, 116.654 111.646, 113.777 110.308 C 108.115 107.675, 105.637 106.980, 103.887 107.536 C 101.296 108.358, 100.360 112.632, 102.298 114.790 C 107.513 120.598, 111.528 149.061, 112.867 189.725 C 113.471 208.062, 113.607 209.056, 115.808 211.225 C 118.097 213.482, 118.127 213.485, 119.594 211.510 C 120.845 209.825, 120.988 205.443, 120.523 183.010 C 120.222 168.429, 119.930 155.375, 119.875 154 C 119.820 152.625, 119.862 149.925, 119.968 148 C 120.074 146.075, 120.064 139.668, 119.947 133.763 C 119.719 122.244, 120.454 120, 124.458 120 C 127.559 120, 140 107.021, 140 103.786 C 140 100.730, 136.749 97.200, 133.222 96.429 C 128.427 95.379, 128 95.100, 128 93.018 C 128 91.893, 127.474 90.131, 126.831 89.102 C 125.903 87.615, 126.028 86.460, 127.442 83.481 C 129.252 79.668, 137.320 68.538, 139.050 67.469 C 140.600 66.511, 140.134 63.432, 138.171 61.655 C 135.647 59.371, 131.683 59.584, 129.405 62.125 M 173.109 71.205 C 169.929 79.406, 168.012 83.190, 164.250 88.694 C 161.912 92.114, 160 95.156, 160 95.456 C 160 96.461, 164.874 96.012, 165.533 94.947 C 165.891 94.367, 168.505 92.865, 171.342 91.608 C 174.179 90.352, 177.012 88.688, 177.638 87.912 C 179.273 85.884, 183.108 71.694, 182.234 70.905 C 181.830 70.541, 179.812 69.943, 177.749 69.576 C 174.452 68.990, 173.891 69.186, 173.109 71.205 M 191.810 107.365 C 185.687 110.251, 181.721 113.808, 178.825 119.015 C 176.007 124.082, 174 125.233, 174 121.783 C 174 116.962, 169.278 115.338, 166.557 119.223 C 164.578 122.047, 164.591 127.130, 166.593 133.500 C 168.420 139.314, 168.727 159.958, 167.051 164.366 C 166.473 165.886, 166 168.232, 166 169.579 C 166 170.925, 165.587 172.809, 165.083 173.764 C 164.579 174.719, 163.381 178.200, 162.422 181.500 C 161.463 184.800, 160.338 188.175, 159.922 189 C 159.507 189.825, 158.619 191.977, 157.949 193.782 C 157.279 195.587, 155.442 198.686, 153.866 200.669 C 149.707 205.902, 150.453 210, 155.565 210 C 160.199 210, 163.060 206.227, 169.211 192 L 171.157 187.500 172.989 189.750 C 176.072 193.537, 179.184 192.645, 184.617 186.416 C 189.133 181.240, 190.831 178.603, 193.937 171.945 C 194.593 170.540, 196.367 168.065, 197.879 166.445 C 199.392 164.825, 201.453 162.242, 202.460 160.705 C 205.431 156.165, 207.370 157.573, 208.389 165.011 C 209.176 170.749, 209.364 262.969, 208.591 263.742 C 207.556 264.778, 204.980 262.251, 202.971 258.228 C 201.687 255.657, 199.605 252.034, 198.345 250.176 C 197.084 248.319, 195.766 245.269, 195.415 243.399 C 195.064 241.530, 194.377 240, 193.889 240 C 193.400 240, 193 238.636, 193 236.969 C 193 233.505, 190.778 232.109, 188.403 234.081 C 187.185 235.091, 186.985 236.413, 187.513 239.943 C 187.888 242.449, 188.485 244.950, 188.839 245.500 C 189.940 247.208, 191.969 253.418, 191.985 255.128 C 191.993 256.023, 192.675 257.315, 193.500 258 C 194.325 258.685, 195 259.948, 195 260.807 C 195 263.259, 199.059 271.170, 202.171 274.785 C 203.727 276.591, 205 278.713, 205 279.500 C 205 282.823, 213.740 283.848, 215.655 280.749 C 218.275 276.510, 220.109 230.049, 219.198 191 C 218.952 180.445, 217.002 154.829, 215.810 146.500 C 215.259 142.650, 214.479 137.025, 214.075 134 C 213.671 130.975, 212.364 125.816, 211.171 122.535 C 209.977 119.254, 208.988 115.654, 208.973 114.535 C 208.958 113.416, 207.713 111.013, 206.205 109.196 C 202.700 104.972, 198.124 104.390, 191.810 107.365 M 192.117 120.821 C 190.418 121.744, 186.544 124.300, 183.507 126.500 L 177.986 130.500 178.117 137.750 C 178.189 141.738, 178.618 145, 179.071 145 C 179.524 145, 182.010 143.875, 184.596 142.500 C 190.747 139.229, 194.986 139.276, 199.005 142.658 C 201.747 144.965, 202.081 145.756, 201.536 148.658 C 200.872 152.202, 202.397 153.203, 204.800 150.800 C 206.254 149.346, 206.390 144.359, 205 143.500 C 204.450 143.160, 204 141.533, 204 139.884 C 204 135.768, 201.984 127.821, 200.477 126 C 199.795 125.175, 198.941 123.529, 198.580 122.342 C 197.662 119.324, 195.714 118.865, 192.117 120.821 M 71.655 137.829 C 70.745 138.835, 70 140.331, 70 141.154 C 70 142.651, 73.984 147, 75.355 147 C 75.754 147, 77.415 147.986, 79.044 149.191 C 82.679 151.878, 91.285 152.144, 93.783 149.645 C 95.227 148.201, 95.212 147.892, 93.612 146.124 C 92.647 145.057, 89.735 143.272, 87.141 142.156 C 84.547 141.040, 81.585 139.199, 80.558 138.064 C 78.246 135.509, 73.859 135.393, 71.655 137.829 M 178.518 156.750 C 178.203 158.813, 177.236 163.425, 176.369 167 C 173.775 177.694, 173.580 180, 175.270 180 C 176.089 180, 178.392 178.007, 180.387 175.572 C 182.383 173.137, 186.923 168.074, 190.476 164.322 C 194.029 160.570, 196.950 156.996, 196.968 156.381 C 197.011 154.862, 190.156 153.846, 187.925 155.040 C 185.256 156.469, 182.015 156.202, 181.362 154.500 C 180.358 151.885, 179.110 152.872, 178.518 156.750" stroke="none" fill="black" fill-rule="evenodd"/>
</svg>