<svg xmlns="http://www.w3.org/2000/svg" width="300" height="300" viewBox="0 0 300 300" version="1.1">
	<path d="M 144.125 2.349 C 142.583 4.207, 140.886 13.696, 141.592 16.509 C 142.280 19.250, 140.580 22.756, 137.321 25.319 C 136.023 26.341, 134.282 28.487, 133.454 30.088 C 131.517 33.835, 129.176 33.802, 127.854 30.010 C 127.280 28.365, 124.491 25.172, 121.656 22.915 C 116.739 19, 116.268 18.839, 111.500 19.461 C 105.107 20.295, 103.218 21.988, 104.801 25.463 C 105.437 26.858, 106.748 28, 107.714 28 C 111.837 28, 119.523 33.130, 122.750 38.036 C 124.537 40.754, 126 43.624, 126 44.416 C 126 45.207, 127.177 46.781, 128.616 47.913 L 131.232 49.971 134.261 47.814 C 135.927 46.628, 138.012 44.313, 138.895 42.669 C 139.778 41.025, 142.572 37.345, 145.104 34.491 C 147.636 31.637, 149.983 28.205, 150.319 26.865 C 150.656 25.524, 152.344 23.382, 154.071 22.105 C 157.021 19.925, 157.312 19.887, 158.856 21.481 C 160.385 23.060, 160.342 23.286, 158.250 24.711 C 155.183 26.800, 155.426 28.652, 159.009 30.505 C 162.572 32.347, 164.798 31.497, 167.930 27.098 C 170.532 23.444, 170.520 22.084, 167.834 16.371 C 165.257 10.888, 161.269 8.662, 156.808 10.217 C 152.890 11.583, 151 10.597, 151 7.186 C 151 4.393, 148.419 1, 146.294 1 C 145.717 1, 144.741 1.607, 144.125 2.349 M 151.904 57.800 C 149.376 59.285, 146.509 61.175, 145.535 62 C 144.560 62.825, 140.947 65.075, 137.507 67 C 134.066 68.925, 128.686 71.938, 125.550 73.695 C 122.415 75.452, 117.632 77.626, 114.923 78.525 C 109.403 80.359, 107.775 83.343, 110.013 87.524 C 111.985 91.209, 113.551 91.200, 119.918 87.469 C 123.173 85.561, 126.289 84, 126.842 84 C 127.394 84, 129.224 82.841, 130.908 81.424 C 135.309 77.721, 137.305 78.508, 138.443 84.393 C 139.336 89.016, 139.242 89.395, 136.637 91.636 C 133.282 94.521, 130.315 94.645, 127.516 92.015 C 125.618 90.232, 125.190 90.179, 123.316 91.492 C 120.706 93.320, 119.703 97.089, 120.953 100.377 C 121.642 102.188, 122.920 103.082, 125.519 103.570 C 128.589 104.146, 129.803 103.762, 133.645 101.004 C 136.928 98.646, 138.461 98.061, 139.260 98.860 C 140.059 99.659, 140.038 100.648, 139.180 102.480 C 138.531 103.866, 137.438 106.194, 136.750 107.653 C 136.063 109.112, 133.250 112.890, 130.500 116.048 C 127.750 119.206, 123.925 123.692, 122 126.017 C 120.075 128.342, 117.108 131.877, 115.406 133.872 C 113.704 135.868, 111.888 138.285, 111.369 139.245 C 110.850 140.205, 105.942 145.764, 100.463 151.598 C 94.983 157.432, 90.036 163.055, 89.470 164.093 C 88.903 165.132, 85.641 168.849, 82.220 172.353 C 78.799 175.857, 76 179.616, 76 180.707 C 76 182.815, 78.891 186, 80.805 186 C 83.163 186, 88.339 182.041, 90.384 178.673 C 92.830 174.644, 99.598 166.267, 109.320 155.237 C 113.070 150.982, 117.541 145.475, 119.254 143 C 124.132 135.951, 125.398 135.491, 126.807 140.250 C 128.031 144.380, 127.971 143.355, 128.577 170.500 C 128.866 183.421, 129.570 194.722, 130.183 196.288 C 131.712 200.194, 134.045 201.208, 137.445 199.444 C 138.976 198.650, 140.636 198, 141.134 198 C 141.632 198, 143.883 196.837, 146.135 195.415 C 148.614 193.850, 150.591 193.191, 151.146 193.746 C 153.369 195.969, 122.293 233.459, 107.663 246.204 C 104.453 249, 100.403 251.577, 98.663 251.930 C 96.168 252.436, 95.433 253.143, 95.184 255.277 C 94.780 258.746, 98.962 261.129, 102.061 259.194 C 103.112 258.537, 104.724 258, 105.642 258 C 106.560 258, 108.844 256.831, 110.718 255.401 C 116.324 251.125, 137.796 229.218, 138.474 227.083 C 138.819 225.994, 139.938 224.837, 140.959 224.513 C 141.980 224.189, 144.636 221.564, 146.861 218.680 C 149.086 215.796, 152.053 212.360, 153.453 211.044 C 154.854 209.728, 156 207.885, 156 206.948 C 156 206.011, 156.880 204.627, 157.955 203.872 C 159.030 203.117, 160.194 201.299, 160.543 199.831 C 161.053 197.681, 160.673 196.832, 158.588 195.466 C 155.203 193.248, 155.315 191.405, 158.950 189.526 C 162.732 187.570, 162.801 187.581, 163.180 190.230 C 163.578 193.004, 168.289 194.936, 170.803 193.356 C 171.736 192.769, 173.262 190.986, 174.194 189.394 C 176.692 185.127, 177.395 161.323, 175.544 143.746 C 174.143 130.447, 173.084 126.873, 169.210 122.374 C 165.712 118.310, 156.837 115.060, 154.510 116.991 C 153.796 117.584, 150.811 118.841, 147.877 119.784 C 141.850 121.723, 139.476 125.330, 141.790 129.035 C 142.455 130.101, 143 131.852, 143 132.927 C 143 136.283, 144.672 136.118, 147.440 132.490 C 149.574 129.692, 150.786 129, 153.551 129 C 157.568 129, 157.954 130.145, 154.665 132.300 C 153.381 133.141, 149.547 136.613, 146.146 140.014 C 139.573 146.587, 136.294 147.472, 137.261 142.413 C 137.531 141.004, 136.907 137.630, 135.876 134.915 C 134.844 132.200, 134 129.048, 134 127.911 C 134 126.016, 142.274 115.010, 148.216 109 C 152.085 105.087, 163 92.175, 163 91.512 C 163 91.183, 164.912 88.407, 167.250 85.342 C 174.020 76.465, 174.989 74.699, 174.995 71.225 C 174.999 68.606, 174.473 67.750, 172.368 66.950 C 170.920 66.399, 168.914 66.210, 167.909 66.529 C 165.182 67.394, 160 74.431, 160 77.268 C 160 79.706, 152.460 91, 150.832 91 C 150.374 91, 150 90.325, 150 89.500 C 150 88.675, 150.450 88, 151 88 C 151.550 88, 152 87.309, 152 86.465 C 152 85.620, 152.736 83.806, 153.635 82.434 C 155.684 79.307, 154.761 78.255, 151.500 80 C 150.127 80.735, 148.816 81.148, 148.588 80.918 C 148.360 80.688, 148.522 78.598, 148.948 76.272 C 149.771 71.786, 152.005 69.286, 158.097 66.035 C 160.076 64.979, 162.410 63.024, 163.284 61.690 C 164.700 59.529, 164.710 59.031, 163.380 57.132 C 161.366 54.257, 157.560 54.478, 151.904 57.800 M 56.807 62.750 C 54.317 65.649, 54.069 67.574, 55.489 72.958 C 56.291 75.998, 56.617 80.306, 56.288 83.499 C 55.749 88.722, 55.546 89.027, 50.115 92.792 C 43.568 97.330, 37.419 100.581, 27 105.011 C 22.875 106.766, 18.825 108.541, 18 108.958 C 13.991 110.980, 17.121 117, 22.181 117 C 23.759 117, 29.031 114.975, 33.894 112.500 C 38.758 110.025, 43.014 108, 43.353 108 C 43.693 108, 46.236 106.606, 49.006 104.901 C 56.438 100.329, 56.917 100.888, 56.436 113.574 C 56.061 123.473, 55.085 128.866, 52.877 133.236 C 52.395 134.191, 52 135.599, 52 136.364 C 52 137.129, 51.316 138.323, 50.479 139.017 C 49.643 139.711, 48.474 142.205, 47.881 144.557 C 47.289 146.910, 45.723 149.851, 44.402 151.092 C 43.081 152.333, 42 153.672, 42 154.066 C 42 155.348, 31.037 172.377, 27.328 176.858 C 24.120 180.732, 23.360 181.158, 20.478 180.690 C 14.127 179.659, 12.993 185.031, 18.535 189.896 C 20.479 191.603, 22.797 193, 23.687 193 C 25.788 193, 40.064 177.880, 42 173.604 C 43.059 171.266, 48.438 162.475, 49.101 162 C 49.485 161.725, 49.956 160.375, 50.149 159 C 50.387 157.305, 51.225 156.397, 52.750 156.180 L 55 155.861 55.250 173.680 C 55.652 202.336, 55.281 210.606, 53.416 214.536 C 52.001 217.517, 51.933 218.689, 52.961 222.362 C 53.626 224.737, 55.228 227.990, 56.520 229.591 C 58.765 232.371, 58.990 232.433, 61.586 231 C 65.380 228.905, 66.764 226.459, 65.404 224.253 C 63.950 221.895, 63.620 147.579, 65.052 144.904 C 66.406 142.373, 67.612 142.490, 74.590 145.823 C 89.398 152.897, 93.837 154.106, 95.897 151.624 C 97.858 149.262, 96.207 145.985, 92.217 144.317 C 90.243 143.492, 87.248 141.815, 85.564 140.590 C 82.232 138.168, 76.105 135.490, 71.750 134.553 C 69.383 134.044, 69 133.472, 69 130.440 C 69 128.435, 68.099 125.700, 66.906 124.086 C 64.893 121.363, 64.852 120.740, 65.853 107.980 C 66.426 100.679, 67.368 94.232, 67.947 93.653 C 68.526 93.074, 69 91.606, 69 90.392 C 69 89.177, 71.137 85.560, 73.748 82.355 C 78.079 77.038, 78.478 76.105, 78.286 71.728 C 78.037 66.051, 77.520 65, 74.976 65 C 72.898 65, 71 67.758, 71 70.779 C 71 73.210, 67.285 76.691, 66.041 75.426 C 65.539 74.917, 64.948 71.988, 64.727 68.917 C 64.505 65.846, 64 62.809, 63.603 62.167 C 62.522 60.418, 58.515 60.762, 56.807 62.750 M 158.500 143.842 C 144.953 153.240, 143.617 154.013, 141.889 153.465 C 140.542 153.037, 139.905 153.532, 139.445 155.364 C 138.531 159.005, 139.270 161.428, 141.419 161.842 C 142.735 162.096, 145.536 159.877, 150.559 154.604 C 157.581 147.232, 160.352 145.752, 162.713 148.113 C 163.325 148.725, 164.260 148.958, 164.790 148.630 C 165.957 147.908, 164.846 141.768, 163.474 141.358 C 162.938 141.198, 160.700 142.316, 158.500 143.842 M 156 164.184 C 148.374 171.336, 144.370 173.991, 141.202 173.996 C 139.019 174, 138.919 174.311, 139.202 180.250 L 139.500 186.500 142.694 186.359 C 144.451 186.281, 147.961 184.818, 150.494 183.109 C 153.028 181.399, 155.373 180, 155.706 180 C 156.039 180, 157.786 178.875, 159.589 177.500 C 161.392 176.125, 163.545 175, 164.374 175 C 166.733 175, 167.299 173.222, 167.179 166.191 C 167.073 159.964, 166.176 157.982, 163.500 158.060 C 162.950 158.076, 159.575 160.832, 156 164.184 M 163.441 218.441 C 161.920 219.571, 161.731 220.260, 162.567 221.625 C 163.154 222.583, 164.279 223.691, 165.067 224.089 C 165.855 224.486, 171.742 227.356, 178.150 230.466 C 184.557 233.576, 190.589 236.994, 191.555 238.060 C 192.520 239.127, 193.746 240, 194.279 240 C 195.297 240, 205.634 246.478, 210.135 249.937 C 211.585 251.051, 213.835 252.415, 215.135 252.968 C 220.340 255.181, 229.158 260.725, 233.718 264.650 L 238.539 268.801 241.826 265.864 C 245.402 262.669, 245.472 259.602, 241.993 258.498 C 240.945 258.165, 238.911 256.495, 237.474 254.786 C 236.036 253.078, 233.204 250.925, 231.180 250.003 C 218.505 244.226, 212.175 240.716, 203.978 234.919 C 200.415 232.399, 195.925 229.392, 194 228.237 C 175.788 217.307, 175.138 217, 170.238 217 C 167.567 217, 164.509 217.649, 163.441 218.441" stroke="none" fill="black" fill-rule="evenodd"/>
</svg>