<svg xmlns="http://www.w3.org/2000/svg" width="300" height="300" viewBox="0 0 300 300" version="1.1">
	<path d="M 143.005 22.494 C 141.237 24.624, 142.513 28.455, 146.438 32.799 C 149.813 36.535, 151.736 42.475, 150.271 44.639 C 149.409 45.911, 136.934 52, 135.188 52 C 133.903 52, 132 55.177, 132 57.323 C 132 58.124, 132.825 59.798, 133.834 61.044 C 135.565 63.181, 135.833 63.223, 138.584 61.786 C 140.188 60.948, 144.823 58.741, 148.885 56.882 C 152.947 55.022, 157.647 52.487, 159.329 51.250 C 161.012 50.013, 163.097 49, 163.962 49 C 164.828 49, 167.215 47.859, 169.268 46.464 C 173.640 43.493, 174.130 40.410, 170.735 37.221 C 168.698 35.307, 168.034 35.204, 164.135 36.194 C 159.354 37.407, 158.045 36.564, 158.015 32.250 C 158.007 31.012, 157.550 30, 157 30 C 156.450 30, 156 28.945, 156 27.655 C 156 24.488, 153.343 22.394, 148.367 21.640 C 145.343 21.182, 143.904 21.411, 143.005 22.494 M 64.094 56.400 C 61.864 58.773, 61.858 58.866, 63.485 64.650 C 64.391 67.868, 65.735 73.875, 66.471 78 C 67.640 84.542, 67.620 85.715, 66.311 87.184 C 62.701 91.233, 48.600 96.890, 35 99.744 C 31.326 100.515, 30 101.909, 30 105 C 30 109.572, 32.207 110.560, 38.140 108.644 C 40.939 107.740, 44.057 107, 45.068 107 C 47.177 107, 49.621 106.066, 59.803 101.369 C 63.820 99.516, 67.532 98, 68.053 98 C 68.574 98, 69.003 101.037, 69.006 104.750 C 69.009 108.463, 69.426 114.030, 69.933 117.123 C 70.926 123.186, 69.636 128.835, 66.098 133.922 C 65.111 135.340, 62.496 140.100, 60.286 144.500 C 54.506 156.006, 51.641 161.332, 50.500 162.690 C 48.704 164.828, 44.997 170.294, 36.916 182.723 C 28.694 195.369, 27.236 196.768, 20.500 198.482 C 17.213 199.319, 16.445 199.980, 16.189 202.193 C 15.942 204.331, 16.498 205.206, 18.889 206.443 C 22.834 208.483, 24.958 208.379, 28 206 C 29.375 204.924, 30.974 204.034, 31.554 204.022 C 33.006 203.992, 38.862 197.819, 41.404 193.641 C 42.557 191.745, 46.014 186.438, 49.087 181.847 C 60.568 164.696, 62.698 161.313, 64.495 157.377 C 65.964 154.159, 69.493 152.370, 70.656 154.253 C 71.653 155.865, 72.145 202.300, 71.268 211.983 C 70.531 220.119, 70.399 220.467, 68.035 220.483 C 66.420 220.494, 65.131 221.363, 64.299 223 C 62.334 226.870, 62.749 229.639, 65.831 233.215 C 67.388 235.022, 68.949 237.287, 69.300 238.250 C 70.141 240.558, 75.204 240.558, 77.215 238.250 C 79.471 235.660, 81.379 212.885, 79.595 209.831 C 78.923 208.680, 79.019 207.682, 79.905 206.615 C 80.886 205.432, 81.134 199.464, 80.954 181.284 C 80.644 149.965, 80.461 152, 83.588 152 C 85.011 152, 89.849 153.618, 94.338 155.596 C 101.171 158.606, 103.226 159.093, 106.960 158.586 C 114.837 157.517, 114.744 154.436, 106.762 152.049 C 104.418 151.348, 101.302 149.923, 99.838 148.882 C 98.375 147.841, 93.312 145.213, 88.588 143.041 C 83.865 140.869, 80.014 138.733, 80.032 138.296 C 80.049 137.858, 80.724 136.626, 81.532 135.559 C 83.611 132.811, 83.408 126.680, 81.172 124.656 C 79.725 123.346, 79.303 121.305, 79.144 114.860 C 79.034 110.382, 78.731 106.374, 78.471 105.952 C 78.210 105.531, 78.528 101.773, 79.177 97.600 C 80.310 90.313, 80.545 89.853, 85.108 86.006 C 87.721 83.803, 90.256 82, 90.741 82 C 91.974 82, 96 76.383, 96 74.663 C 96 72.709, 93.876 71.125, 90.296 70.409 C 87.606 69.871, 87.031 70.220, 84.944 73.653 C 82.273 78.048, 81.209 78.963, 78.750 78.985 C 77.411 78.996, 77 78.171, 77 75.468 C 77 73.525, 76.325 70.320, 75.500 68.346 C 74.675 66.371, 74 63.521, 74 62.013 C 74 58.708, 70.534 54, 68.102 54 C 67.138 54, 65.334 55.080, 64.094 56.400 M 160.737 57.692 C 159.068 58.127, 155 65.082, 155 67.499 C 155 68.909, 151.252 73, 149.961 73 C 149.432 73, 149 71.462, 149 69.582 C 149 64.883, 148.119 63, 145.919 63 C 143.551 63, 140.805 68.182, 140.962 72.351 C 141.028 74.083, 141.172 77.854, 141.284 80.732 L 141.486 85.964 133.993 93.508 C 129.872 97.657, 124.211 102.727, 121.413 104.776 C 113.990 110.210, 112.878 111.973, 114.094 116.376 C 114.909 119.332, 115.564 120, 117.643 120 C 119.044 120, 121.498 119.325, 123.096 118.500 C 124.693 117.675, 127.307 116.325, 128.904 115.500 C 130.502 114.675, 132.472 114, 133.282 114 C 134.092 114, 135.314 113.327, 135.997 112.504 C 138.400 109.608, 158.093 101, 162.315 101 C 163.547 101, 165.552 100.302, 166.770 99.449 C 170.050 97.151, 179.592 94.081, 181.722 94.638 C 184.288 95.309, 190 89.700, 190 86.510 C 190 81.568, 182.641 82.183, 167 88.433 C 163.425 89.862, 158.836 91.924, 156.802 93.015 C 154.768 94.107, 152.405 95, 151.552 95 C 149.195 95, 149.728 91.791, 152.527 89.136 C 153.898 87.835, 155.299 85.585, 155.641 84.136 C 155.983 82.686, 157.073 80.600, 158.065 79.500 C 159.056 78.400, 160.364 76.375, 160.971 75 C 161.578 73.625, 163.176 70.700, 164.521 68.500 C 167.184 64.146, 167.687 60.087, 165.800 58.200 C 164.569 56.969, 163.802 56.892, 160.737 57.692 M 161.127 120.590 C 158.722 121.867, 155.987 123.607, 155.049 124.456 C 154.110 125.305, 152.928 126, 152.421 126 C 151.150 126, 146.199 132.346, 144.990 135.527 C 143.435 139.616, 139.846 138.538, 138.456 133.563 C 136.994 128.336, 134.799 126.967, 131.975 129.522 C 130.310 131.029, 129.946 132.244, 130.336 134.980 C 131.305 141.767, 132.329 144.529, 135.152 147.978 C 136.719 149.891, 138 152.478, 138 153.728 C 138 154.978, 138.441 156, 138.981 156 C 139.520 156, 140.267 157.238, 140.641 158.750 C 141.478 162.140, 145.694 169, 146.941 169 C 147.445 169, 148.461 168.396, 149.199 167.658 C 151.979 164.878, 154.908 163.880, 157 165 C 159.397 166.283, 159.467 167.425, 157.493 173.019 C 155.897 177.543, 153.607 179.916, 150.785 179.968 C 148.740 180.006, 140.704 182.555, 136.500 184.500 C 132.958 186.139, 114.616 191.768, 100.500 195.550 C 86.357 199.338, 86.322 199.357, 85.757 203.172 C 84.912 208.880, 85.516 209.331, 93.144 208.691 C 97.385 208.336, 101.782 207.210, 104.745 205.722 C 109.038 203.566, 114.707 201.597, 132 196.258 C 135.025 195.324, 138.625 193.987, 140 193.286 C 141.375 192.586, 143.106 192.010, 143.846 192.006 C 144.586 192.003, 146.386 191.357, 147.846 190.570 C 151.726 188.480, 156.867 187.012, 158.334 187.575 C 160.888 188.555, 161.852 202.858, 161.430 233.500 C 161.008 264.159, 160.460 281.272, 159.517 293.250 L 158.986 300 163.493 300 L 168 300 168.222 294.750 C 168.344 291.863, 168.500 287.475, 168.568 285 C 168.636 282.525, 168.978 279.375, 169.329 278 C 169.679 276.625, 170.180 268.300, 170.441 259.500 C 170.703 250.700, 170.992 242.825, 171.085 242 C 171.177 241.175, 170.915 229.025, 170.502 215 C 170.089 200.975, 169.744 188.225, 169.736 186.667 C 169.714 182.331, 172.567 180.431, 184 177.170 C 205.954 170.908, 224.867 167.323, 230.259 168.402 C 234.435 169.237, 237.157 168.250, 239.801 164.940 C 241.733 162.522, 241.916 161.711, 240.938 159.884 C 239.816 157.788, 239.365 157.731, 228.751 158.338 C 222.689 158.685, 216.327 159.406, 214.614 159.940 C 212.901 160.474, 207.450 161.628, 202.500 162.503 C 197.550 163.379, 191.475 164.735, 189 165.518 C 167.955 172.172, 167.396 172.176, 168.435 165.681 C 168.849 163.090, 170.339 160.261, 172.613 157.743 C 175.765 154.254, 176.077 153.418, 175.501 150.006 C 175.067 147.434, 175.351 145.221, 176.371 143.250 C 178.428 139.271, 179.293 127.452, 177.824 123.389 C 175.738 117.620, 168.884 116.472, 161.127 120.590 M 161.439 132.297 C 151.009 137.956, 148.932 139.987, 147.677 145.750 C 147.351 147.249, 147.657 148, 148.594 148 C 149.367 148, 150 147.585, 150 147.077 C 150 144.727, 155.968 139.491, 161.929 136.611 C 165.554 134.859, 168.500 132.783, 168.500 131.981 C 168.500 129.752, 165.917 129.867, 161.439 132.297 M 156.911 149.607 C 155.902 150.823, 154.533 151.071, 151.289 150.626 C 148.930 150.303, 147 150.410, 147 150.864 C 147 152.532, 150.731 155, 153.252 155 C 155.807 155, 162 150.689, 162 148.911 C 162 147.391, 158.334 147.892, 156.911 149.607" stroke="none" fill="black" fill-rule="evenodd"/>
</svg>