<svg xmlns="http://www.w3.org/2000/svg" width="300" height="300" viewBox="0 0 300 300" version="1.1">
	<path d="M 140.846 21.582 C 139.711 22.718, 139.401 24.374, 139.747 27.452 C 140.371 32.980, 138.934 33.781, 135.161 30.007 C 131.604 26.450, 127.121 25.976, 125.257 28.960 C 123.797 31.299, 124.362 33.033, 128.531 39 C 131.445 43.169, 132.885 47.892, 134.499 58.569 C 134.971 61.688, 134.693 63.121, 133.307 64.710 C 131.302 67.009, 119.110 71.382, 111.755 72.439 C 106.587 73.182, 101 77.052, 101 79.889 C 101 82.343, 103.002 84.002, 105.950 83.989 C 108.360 83.978, 124.100 79.520, 130.413 77.061 C 132.015 76.436, 133.677 76.280, 134.106 76.713 C 134.534 77.146, 135.024 79.948, 135.193 82.941 C 135.487 88.148, 135.640 88.418, 138.750 89.220 C 141.742 89.991, 142 90.378, 142 94.094 C 142 96.315, 142.446 98.966, 142.992 99.985 C 143.537 101.004, 144.083 105.171, 144.205 109.245 L 144.426 116.651 138.713 122.502 C 135.571 125.720, 133 128.922, 133 129.618 C 133 132.959, 130.987 132.454, 114.261 124.912 C 108.607 122.362, 101.655 122.432, 97.368 125.082 C 93.537 127.449, 93.704 127.091, 94.932 130.322 C 95.784 132.563, 96.497 132.807, 103.182 133.149 C 108.038 133.398, 111.846 134.223, 114.500 135.602 C 116.700 136.745, 119.625 137.984, 121 138.355 C 122.375 138.727, 125.453 140.808, 127.841 142.982 C 131.232 146.069, 132.302 147.830, 132.732 151.036 C 133.685 158.145, 138.258 159.438, 144.187 154.274 C 147.108 151.729, 148.269 153.684, 147.511 159.871 C 147.132 162.967, 146.235 166.850, 145.518 168.500 C 144.801 170.150, 143.993 172.188, 143.724 173.028 C 143.210 174.629, 115.412 188.838, 108.500 191.033 C 106.300 191.732, 103.150 193.301, 101.500 194.520 C 99.850 195.740, 97.357 197.006, 95.960 197.335 C 91.918 198.286, 82 205.861, 82 207.996 C 82 209.033, 82.450 210.160, 83 210.500 C 83.550 210.840, 84 211.991, 84 213.059 C 84 215.718, 86.475 215.503, 90.411 212.500 C 92.214 211.125, 94.108 210, 94.620 210 C 95.133 210, 98.806 207.975, 102.783 205.500 C 106.760 203.025, 110.467 201, 111.020 201 C 112.159 201, 111.804 201.163, 126 194.149 C 131.775 191.295, 136.889 188.969, 137.364 188.980 C 138.361 189.003, 137.235 197.692, 135.915 200.158 C 135.427 201.070, 134.962 204.867, 134.881 208.595 C 134.721 215.969, 134.161 215.053, 142.974 221.826 C 144.638 223.105, 145.992 224.680, 145.981 225.326 C 145.962 226.538, 134.769 236.157, 129.543 239.453 C 127.917 240.478, 123.139 242.536, 118.926 244.026 C 112.036 246.463, 110.296 246.684, 101.633 246.231 C 91.838 245.719, 90.302 246.285, 93.750 249.138 C 97.052 251.871, 103.510 253.376, 112.500 253.508 C 120.096 253.620, 122.436 253.244, 127.500 251.093 C 135.632 247.640, 143.133 242.499, 151.500 234.644 C 158.079 228.468, 161.163 226.837, 162.420 228.871 C 162.716 229.350, 164.205 229.992, 165.729 230.297 C 170.004 231.153, 176.553 236.419, 178.629 240.668 C 179.797 243.061, 181.309 244.615, 182.653 244.807 C 187.028 245.430, 189.754 236.899, 186.537 232.653 C 185.767 231.637, 185.377 230.181, 185.670 229.417 C 185.998 228.562, 185.217 227.653, 183.639 227.053 C 182.229 226.517, 179.371 224.981, 177.288 223.640 C 175.204 222.299, 171.813 220.616, 169.750 219.900 C 167.688 219.184, 166 218.233, 166 217.786 C 166 216.615, 168.197 212.855, 170.368 210.310 C 175.491 204.304, 177.718 184.330, 173.953 178.155 C 171.278 173.766, 172.442 172.425, 179.715 171.516 C 182.825 171.128, 186.516 170.374, 187.916 169.842 C 195.412 166.992, 212.782 165.804, 223 167.443 C 227.316 168.136, 227.675 167.996, 231.775 164.022 L 236.049 159.878 233.958 156.941 C 231.170 153.025, 228.361 152.489, 217.581 153.816 C 212.587 154.431, 205.800 155.202, 202.500 155.529 C 199.200 155.856, 194.925 156.730, 193 157.471 C 191.075 158.212, 185.006 159.850, 179.514 161.111 C 174.022 162.371, 167.168 164.662, 164.283 166.201 C 158.124 169.487, 154.398 169.933, 155.514 167.250 C 155.915 166.287, 156.471 163.353, 156.750 160.729 C 157.030 158.105, 157.650 155.716, 158.129 155.420 C 158.608 155.124, 159 151.681, 159 147.770 C 159 142.406, 158.570 140.178, 157.250 138.708 C 155.554 136.818, 155.778 136.494, 164.587 128.129 C 169.585 123.383, 176.471 116.198, 179.890 112.162 C 185.610 105.410, 186.082 104.493, 185.803 100.662 C 185.518 96.748, 185.271 96.443, 181.657 95.551 C 178.394 94.745, 177.112 94.968, 173.157 97.025 C 167.768 99.829, 159.510 105.339, 156.237 108.316 C 152.768 111.469, 151.769 109.447, 151.852 99.446 C 151.915 91.840, 152.252 90.218, 154.462 86.878 C 155.858 84.769, 157 82.385, 157 81.580 C 157 80.776, 157.450 79.840, 158 79.500 C 158.550 79.160, 159 77.344, 159 75.465 C 159 70.462, 161.409 67.227, 172.805 56.932 C 178.435 51.846, 183.297 46.666, 183.609 45.422 C 183.981 43.940, 183.379 42.079, 181.867 40.034 C 179.012 36.173, 175.141 36.186, 173.292 40.063 C 171.667 43.472, 168.385 46.356, 167.063 45.539 C 166.478 45.178, 166 42.962, 166 40.615 C 166 33.412, 159.982 29.847, 152.250 32.470 C 150.140 33.186, 150 32.957, 150 28.791 C 150 21.959, 144.668 17.760, 140.846 21.582 M 153.200 46.200 C 151.475 47.925, 151.630 55, 153.393 55 C 155.138 55, 156 52.823, 156 48.418 C 156 44.831, 155.202 44.198, 153.200 46.200 M 52.846 48.250 C 52 48.938, 50.731 50.972, 50.024 52.771 C 48.946 55.517, 48.992 56.883, 50.311 61.271 C 52.200 67.561, 53.417 78.112, 52.562 80.803 C 51.798 83.211, 42.512 89.658, 34.500 93.343 C 21.835 99.167, 19.605 100.633, 17.389 104.587 C 16.183 106.739, 15.403 108.837, 15.657 109.250 C 16.298 110.293, 20.763 110.192, 21.426 109.119 C 21.726 108.635, 22.990 108.004, 24.235 107.717 C 29.619 106.478, 40.266 101.891, 45.438 98.583 C 48.519 96.612, 51.670 95, 52.441 95 C 54.381 95, 54.193 131.103, 52.250 131.750 C 51.562 131.979, 51 133.453, 51 135.024 C 51 136.596, 50.617 138.119, 50.148 138.408 C 49.680 138.698, 48.482 141.087, 47.486 143.717 C 46.491 146.348, 44.624 149.892, 43.338 151.594 C 42.052 153.296, 41 154.942, 41 155.250 C 41 155.559, 38.638 159.735, 35.750 164.529 C 32.862 169.324, 29.415 175.097, 28.089 177.360 C 26.763 179.622, 24.166 183.729, 22.317 186.487 C 20.468 189.244, 17.577 193.637, 15.892 196.250 C 13.475 199.997, 12.256 201, 10.114 201 C 6.533 201, 5 202.687, 5 206.627 C 5 209.950, 8.674 214, 11.688 214 C 13.311 214, 20 208.916, 20 207.683 C 20 207.234, 21.125 205.392, 22.500 203.589 C 23.875 201.786, 25 199.984, 25 199.584 C 25 199.184, 25.562 198.264, 26.250 197.539 C 26.938 196.813, 29.750 192.741, 32.500 188.488 C 35.250 184.235, 38.715 178.898, 40.200 176.628 C 41.684 174.358, 43.619 171.098, 44.499 169.385 C 46.790 164.926, 49.772 162, 52.026 162 C 53.821 162, 53.938 162.572, 53.510 169.250 C 53.255 173.238, 52.504 188.130, 51.841 202.344 L 50.636 228.188 48.211 229.110 C 45.493 230.143, 45.493 232.013, 48.211 241.670 C 51.114 251.987, 54.645 254.275, 60.471 249.613 C 63.017 247.576, 63.252 247.009, 62.121 245.646 C 60.325 243.482, 61.215 160.650, 63.058 158.430 C 64.680 156.475, 67.266 156.636, 70.115 158.870 C 71.427 159.898, 74.075 161.049, 76 161.428 C 79.717 162.159, 82.686 163.290, 87.416 165.776 C 90.172 167.225, 90.432 167.185, 92.166 165.044 C 95.269 161.211, 93.957 157, 89.661 157 C 88.594 157, 85.646 155.735, 83.111 154.188 C 77.365 150.683, 70.674 148, 67.680 148 C 66.426 148, 64.860 147.460, 64.200 146.800 C 62.476 145.076, 62.722 139.279, 64.659 136 C 66.190 133.408, 66.194 132.928, 64.710 129.801 C 62.283 124.687, 62.002 98.739, 64.325 94.300 C 65.246 92.539, 66 89.816, 66 88.247 C 66 86.013, 67.517 83.962, 73 78.778 C 80.570 71.621, 81.396 69.375, 78.057 65.029 C 76.427 62.908, 75.770 62.696, 73.411 63.529 C 71.671 64.144, 70.312 65.600, 69.704 67.500 C 69.177 69.150, 67.816 71.522, 66.679 72.771 C 63.462 76.305, 61.883 73.781, 60.957 63.628 C 59.904 52.072, 59.163 49.158, 56.984 47.992 C 54.661 46.748, 54.694 46.746, 52.846 48.250 M 143.261 130.954 C 142.451 132.250, 142.385 133.120, 143.064 133.540 C 144.353 134.336, 147 132.209, 147 130.378 C 147 128.345, 144.666 128.704, 143.261 130.954 M 153.973 180.692 C 150.687 182.940, 150.034 184.003, 150.015 187.128 C 150.007 188.573, 149.325 190.315, 148.500 191 C 147.675 191.685, 147 193.502, 147 195.039 C 147 196.576, 146.561 197.983, 146.024 198.167 C 145.486 198.350, 144.940 201.075, 144.810 204.222 C 144.598 209.338, 144.881 210.266, 147.474 212.972 C 151.645 217.327, 154.067 216.921, 157.740 211.250 C 159.432 208.637, 161.371 205.150, 162.049 203.500 C 162.727 201.850, 163.893 199.082, 164.641 197.349 C 166.606 192.792, 166.329 189.582, 163.483 183.967 C 160.695 178.465, 158.388 177.670, 153.973 180.692" stroke="none" fill="black" fill-rule="evenodd"/>
</svg>