<svg xmlns="http://www.w3.org/2000/svg" width="300" height="300" viewBox="0 0 300 300" version="1.1">
	<path d="M 160 20 C 158.020 21.980, 157.302 25.523, 158.750 26.167 C 160.443 26.919, 163.728 32.760, 164.562 36.500 C 166.024 43.053, 165.690 79.487, 164.091 88 C 163.316 92.125, 162.233 96.389, 161.685 97.476 C 159.205 102.391, 159.115 106.022, 161.408 108.687 C 163.322 110.913, 163.929 111.108, 165.811 110.101 C 167.011 109.459, 168.957 107.045, 170.134 104.737 C 173.169 98.787, 177.997 93.054, 181.493 91.245 C 183.139 90.394, 187.566 87.240, 191.331 84.236 C 201.608 76.036, 202.674 79.844, 194.099 94.121 C 189.572 101.658, 188.519 104.585, 190.003 105.502 C 190.600 105.871, 192.081 105.509, 193.294 104.699 C 197.468 101.912, 207 91.738, 207 90.070 C 207 89.152, 207.374 87.973, 207.831 87.450 C 209.381 85.679, 211.061 78.090, 210.445 75.639 C 209.793 73.038, 202.991 66.971, 200.809 67.043 C 200.089 67.067, 197.700 68.163, 195.500 69.478 C 193.300 70.793, 189.250 73.069, 186.500 74.537 C 183.750 76.005, 180.067 78.569, 178.316 80.235 C 174.161 84.188, 171.687 83.508, 173.104 78.802 C 173.651 76.986, 174.147 65.576, 174.207 53.447 C 174.301 34.382, 174.069 30.725, 172.489 26.447 C 171.483 23.726, 169.993 20.712, 169.176 19.750 C 167.185 17.405, 162.467 17.533, 160 20 M 39.594 33.522 C 36.379 37.160, 31.893 41.327, 29.625 42.780 C 27.356 44.234, 22.688 47.617, 19.250 50.298 C 13.511 54.773, 13 55.487, 13 59.019 C 13 64.632, 15.506 65.013, 22.383 60.446 C 25.408 58.438, 28.396 56.965, 29.024 57.175 C 30.516 57.672, 31.500 76.276, 31.500 104 C 31.500 124.869, 30.018 148.734, 27.900 161.986 C 26.935 168.026, 27.007 168.587, 28.954 170.164 L 31.044 171.856 28.799 173.428 C 27.565 174.293, 25.885 175, 25.065 175 C 24.246 175, 19.657 176.624, 14.869 178.609 C 7.843 181.521, 6.041 182.702, 5.533 184.726 C 5.113 186.397, 5.472 187.864, 6.606 189.118 C 8.762 191.499, 9.639 191.476, 14.972 188.899 C 17.363 187.744, 22.787 185.761, 27.024 184.493 C 31.261 183.225, 35.801 181.625, 37.114 180.937 C 41.839 178.463, 42.996 178, 44.456 178 C 45.272 178, 47.494 177.127, 49.394 176.059 C 51.294 174.992, 54.463 173.816, 56.436 173.446 C 58.408 173.076, 60.246 172.410, 60.520 171.967 C 60.794 171.524, 64.277 170.193, 68.259 169.010 C 72.242 167.827, 76.400 166.492, 77.500 166.043 C 81.123 164.566, 87.364 163.094, 97 161.443 C 102.225 160.548, 107.400 159.439, 108.500 158.980 C 112.136 157.460, 120.360 156.016, 130.691 155.084 C 136.297 154.579, 142.147 153.562, 143.691 152.825 C 147.267 151.119, 147.912 147.136, 145.035 144.532 C 143.230 142.899, 142.392 142.802, 138.241 143.752 C 132.213 145.131, 130.609 144.035, 131.370 139.056 C 132.662 130.592, 133.458 77.214, 132.535 60.824 C 132.320 57.004, 131.270 52.138, 130.080 49.447 C 128.936 46.861, 128 44.313, 128 43.783 C 128 41.650, 123.366 39.065, 119.483 39.033 C 116.069 39.005, 114.768 39.668, 110.823 43.448 C 105.870 48.194, 103.953 53.034, 106.034 55.541 C 107.896 57.784, 109.645 57.316, 113.959 53.418 C 116.140 51.447, 118.379 50.116, 118.935 50.460 C 120.825 51.628, 123.924 63.696, 123.308 67.488 C 122.828 70.447, 122.213 71.207, 119.930 71.664 C 114.097 72.831, 107.775 81.653, 108.879 87.084 C 109.880 92.007, 112.625 91.992, 117.463 87.038 C 119.632 84.817, 122.266 83, 123.318 83 C 125.062 83, 125.168 83.505, 124.515 88.750 C 123.617 95.970, 123.427 96.253, 119.970 95.494 C 117.602 94.973, 116.835 95.337, 115.342 97.685 C 114.358 99.233, 111.586 102.525, 109.183 105 C 105.209 109.093, 104.860 109.850, 105.328 113.371 C 105.611 115.500, 106.263 117.663, 106.776 118.176 C 108.669 120.069, 112.944 117.696, 117.161 112.411 C 119.536 109.435, 122.016 107, 122.672 107 C 123.568 107, 123.729 110.799, 123.319 122.250 C 123.019 130.637, 122.479 139.300, 122.120 141.500 C 121.505 145.266, 121.161 145.602, 116.238 147.240 C 113.363 148.197, 107.745 149.475, 103.755 150.080 C 99.765 150.685, 94.475 151.763, 92 152.477 C 89.525 153.191, 85.025 154.340, 82 155.030 C 75.381 156.541, 56.196 162.650, 53.764 164.021 C 52.809 164.560, 51.401 165, 50.636 165 C 49.871 165, 48.725 165.626, 48.090 166.391 C 47.455 167.156, 45.713 168.005, 44.218 168.277 C 42.723 168.549, 40.055 169.365, 38.288 170.090 C 34.211 171.765, 33.444 170.976, 35.426 167.143 C 36.385 165.289, 37 161.556, 37 157.597 C 37 149.893, 38.214 146.818, 43.250 141.764 C 45.313 139.694, 47.001 137.213, 47.003 136.250 C 47.005 134.547, 53.471 123, 54.982 122 C 56.446 121.031, 61.064 110.913, 60.477 109.963 C 58.686 107.066, 52.855 111.377, 47.911 119.253 C 40.566 130.954, 38.102 130.503, 40.635 117.920 C 41.985 111.213, 42.907 108.961, 45.165 106.849 C 46.724 105.391, 48 103.478, 48 102.599 C 48 101.701, 48.824 101, 49.878 101 C 52.377 101, 53.678 99.265, 54.508 94.826 C 55.144 91.422, 54.961 91.031, 52.025 89.513 C 48.371 87.623, 46.928 88.344, 44.986 93.033 C 44.310 94.665, 43.080 96, 42.251 96 C 41.037 96, 40.844 94.985, 41.256 90.750 C 41.536 87.862, 41.169 81.515, 40.441 76.644 C 39.712 71.773, 39.027 63.732, 38.918 58.776 L 38.720 49.764 44.517 44.817 C 52.774 37.771, 54.180 35.721, 53.811 31.264 C 53.512 27.643, 53.346 27.489, 49.469 27.203 C 45.626 26.920, 45.164 27.216, 39.594 33.522 M 69.236 43.250 C 66.880 45.758, 66.994 50.737, 69.589 58.729 C 70.344 61.055, 71.256 68.030, 71.616 74.229 C 71.976 80.428, 72.715 86.063, 73.258 86.750 C 74.794 88.695, 78.809 88.236, 84.720 85.439 C 87.697 84.031, 90.890 83.022, 91.816 83.198 C 94.110 83.633, 94.488 89.957, 92.941 102 C 92.269 107.225, 91.620 112.625, 91.498 114 C 90.790 121.979, 88.537 129.709, 86.178 132.250 C 81.840 136.924, 78.473 134.921, 81.288 129.340 C 83.538 124.879, 84.159 116.316, 82.517 112.387 C 81.439 109.805, 80.502 109, 78.577 109 C 75.187 109, 73.428 112.664, 72.577 121.500 C 71.781 129.762, 70.504 133.593, 67.412 137 C 63.872 140.900, 63.382 144.454, 66.120 146.371 C 68.209 147.835, 68.613 147.833, 70.950 146.355 C 72.352 145.467, 74.753 143.576, 76.284 142.151 C 78.655 139.945, 79.357 139.742, 81.020 140.781 C 84.957 143.239, 88.603 142.282, 92.459 137.777 C 94.447 135.454, 96.305 132.417, 96.586 131.027 C 96.868 129.637, 97.504 126.925, 97.999 125 C 98.494 123.075, 99.161 118.830, 99.480 115.566 C 99.799 112.302, 100.457 109.152, 100.941 108.566 C 101.675 107.677, 102.390 101.624, 103.076 90.500 C 103.353 85.995, 102.643 77.344, 101.809 75.076 C 101.319 73.744, 99.802 71.619, 98.439 70.355 C 95.580 67.706, 91.171 68.018, 87.115 71.155 C 83.382 74.043, 82.411 73.417, 81.053 67.250 C 80.356 64.088, 79.415 60.375, 78.962 59 C 78.508 57.625, 77.845 53.459, 77.488 49.742 C 76.996 44.619, 76.391 42.744, 74.985 41.992 C 72.328 40.570, 71.604 40.728, 69.236 43.250 M 88 49.727 C 82.946 50.647, 80.034 56.182, 83.250 58.755 C 87.515 62.168, 93.012 60.812, 95.658 55.694 C 97.003 53.093, 96.980 52.635, 95.418 50.909 C 93.698 49.009, 92.764 48.860, 88 49.727 M 172.571 114.571 C 170.690 116.453, 170.377 127.967, 172.119 131.222 C 172.735 132.372, 173.238 137.185, 173.238 141.917 C 173.238 149.145, 172.639 152.359, 169.494 162.011 C 167.434 168.330, 165.356 173.927, 164.875 174.450 C 164.394 174.972, 164 176.232, 164 177.248 C 164 178.995, 162.155 182.047, 153.273 195.002 C 144.533 207.747, 143.442 208.615, 140.035 205.532 C 139.143 204.724, 132.543 201.142, 125.369 197.571 C 110.438 190.139, 102.157 188.064, 99.434 191.072 C 97.964 192.697, 98.002 193.002, 99.919 194.919 C 101.063 196.063, 102.839 197, 103.865 197 C 104.891 197, 106.803 197.806, 108.115 198.790 C 111.503 201.334, 126.774 210, 127.868 210 C 128.371 210, 131.258 212.475, 134.283 215.500 C 137.308 218.525, 140.327 221, 140.992 221 C 143.083 221, 162 200.805, 162 198.572 C 162 198.053, 162.844 196.700, 163.875 195.564 C 167.341 191.749, 176 175.181, 176 172.364 C 176 171.411, 176.944 168.682, 178.097 166.299 C 179.251 163.916, 180.437 160.061, 180.732 157.733 C 181.028 155.405, 181.671 152.990, 182.162 152.366 C 183.183 151.066, 182.767 128.434, 181.703 127.369 C 181.316 126.983, 181 124.492, 181 121.833 C 181 114.662, 176.424 110.719, 172.571 114.571 M 184.026 165.469 C 182.140 167.741, 185.560 171.306, 196.121 178.078 C 201.173 181.317, 206.025 184.596, 206.903 185.365 C 207.781 186.134, 209.453 187.053, 210.618 187.407 C 211.783 187.761, 213.540 188.940, 214.523 190.026 C 215.506 191.111, 217.085 192, 218.033 192 C 218.980 192, 220.344 192.710, 221.065 193.578 C 221.785 194.446, 224.428 196.199, 226.937 197.474 C 229.447 198.749, 237.097 204.789, 243.937 210.896 C 250.778 217.003, 257.158 222, 258.116 222 C 260.043 222, 261.510 223.266, 264.500 227.507 C 265.600 229.067, 268.113 232.179, 270.085 234.422 C 272.057 236.665, 273.956 239.287, 274.304 240.250 C 275.034 242.266, 277.781 242.488, 280.087 240.718 C 281.804 239.400, 284 235.723, 284 234.167 C 284 232.363, 269.919 218.117, 262.696 212.612 C 258.738 209.597, 251.311 203.725, 246.190 199.565 C 241.070 195.404, 236.407 192, 235.829 192 C 235.252 192, 231.840 189.946, 228.248 187.435 C 224.656 184.924, 219.355 181.609, 216.469 180.069 C 209.043 176.106, 198 168.732, 198 167.737 C 198 166.478, 191.472 164, 188.155 164 C 186.554 164, 184.696 164.661, 184.026 165.469 M 62.655 193.678 C 62.282 194.052, 60.894 196.644, 59.572 199.440 C 56.480 205.976, 49.631 212.791, 45.347 213.595 C 39.607 214.672, 39.789 219.857, 45.666 222.646 C 50.304 224.847, 56.333 223.190, 58.428 219.139 C 59.220 217.607, 60.632 215.721, 61.565 214.946 C 63.994 212.930, 72 200.551, 72 198.811 C 72 195.388, 64.865 191.469, 62.655 193.678" stroke="none" fill="black" fill-rule="evenodd"/>
</svg>