<svg xmlns="http://www.w3.org/2000/svg" width="300" height="300" viewBox="0 0 300 300" version="1.1">
	<path d="M 62.881 31.644 C 62.080 32.608, 61.545 36.308, 61.477 41.351 C 61.361 49.875, 60.624 55.782, 58.839 62.500 C 56.778 70.255, 52.637 82.561, 50.332 87.777 C 47.764 93.588, 47.396 96.996, 49.147 98.747 C 50.746 100.346, 59 94.645, 59 91.941 C 59 90.861, 59.855 88.071, 60.900 85.739 C 69.261 67.080, 76.108 32.887, 71.750 31.555 C 67.226 30.172, 64.076 30.204, 62.881 31.644 M 129.021 32.475 C 127.811 33.932, 128.793 36.939, 133.436 46 C 136.290 51.571, 137.170 58.827, 137.093 76.166 C 137.049 85.883, 136.561 95.025, 136.007 96.481 C 134.469 100.526, 134.801 104.510, 136.829 106.345 C 139.859 109.087, 141.715 108.268, 145.544 102.500 C 147.552 99.475, 149.626 97, 150.153 97 C 150.681 97, 151.989 95.018, 153.060 92.596 C 154.448 89.459, 155.870 87.892, 158.004 87.148 C 159.652 86.574, 161 85.670, 161 85.140 C 161 84.038, 172.442 76, 174.010 76 C 174.578 76, 175.561 77.137, 176.194 78.527 C 177.144 80.612, 176.954 82.054, 175.103 86.777 C 173.870 89.925, 172.442 93.281, 171.931 94.236 C 170.741 96.457, 170.733 99.717, 171.916 100.448 C 173.850 101.644, 177.783 99.061, 178.897 95.864 C 179.526 94.061, 181 91.565, 182.172 90.316 C 184.795 87.525, 186.912 77.074, 186.092 70.969 C 185.639 67.595, 184.912 66.260, 183 65.293 C 177.901 62.716, 173.359 63.811, 167.291 69.080 C 165.525 70.613, 162.375 72.671, 160.291 73.652 C 158.206 74.634, 154.145 77.896, 151.267 80.902 C 148.389 83.908, 145.841 86.172, 145.605 85.934 C 145.369 85.695, 145.070 78.525, 144.940 70 C 144.667 52.116, 142.160 37.026, 138.669 32.250 C 137.401 30.515, 130.514 30.676, 129.021 32.475 M 90.011 65.487 C 88.108 67.779, 89.530 69.870, 94.414 71.963 C 96.866 73.014, 99.639 75.045, 100.577 76.477 C 104.209 82.020, 109 81.786, 109 76.065 C 109 72.577, 105.530 65.417, 103.453 64.620 C 100.227 63.382, 91.279 63.959, 90.011 65.487 M 79.989 90.250 C 78.899 92.037, 78.006 94.107, 78.004 94.849 C 78.002 95.591, 77.292 97.841, 76.426 99.849 C 75.560 101.857, 74.275 104.850, 73.571 106.500 C 64.871 126.873, 50.342 148.133, 32.645 166.385 L 22.091 177.270 17.585 176.763 C 14.060 176.365, 12.721 176.650, 11.433 178.074 C 9.899 179.769, 9.932 180.096, 11.921 182.889 C 14.537 186.562, 21.862 188.174, 25.545 185.887 C 29.184 183.627, 37.825 175.396, 41.939 170.271 C 44.045 167.647, 47.334 163.823, 49.248 161.773 C 54.700 155.933, 64.352 142.987, 65.911 139.424 C 66.787 137.420, 67.408 137.359, 83.659 137.684 C 92.922 137.869, 101.954 138.498, 103.730 139.081 C 105.507 139.665, 107.447 139.842, 108.041 139.475 C 108.635 139.108, 110.471 139.367, 112.121 140.050 C 113.771 140.734, 116.768 141.339, 118.780 141.396 C 121.458 141.472, 122.726 142.075, 123.509 143.643 C 126.432 149.501, 129.300 150.438, 132.826 146.686 C 135.656 143.673, 135.589 139.902, 132.656 137.147 C 128.299 133.053, 107.200 129.500, 87.250 129.500 C 74.431 129.500, 72.462 129.013, 74.906 126.450 C 76.327 124.959, 80 118.055, 80 116.874 C 80 116.288, 80.844 114.614, 81.876 113.154 C 82.907 111.694, 84.090 108.925, 84.503 107 C 84.917 105.075, 85.873 102.612, 86.628 101.527 C 88.226 99.230, 88.425 93.247, 87.025 89.565 C 85.644 85.933, 82.430 86.246, 79.989 90.250 M 149.174 115.314 C 146.733 117.913, 146.189 125.699, 148.007 132.007 C 148.761 134.620, 148.609 137.328, 147.406 142.754 C 146.521 146.743, 145.393 150.257, 144.899 150.563 C 144.404 150.868, 144 152.421, 144 154.014 C 144 156.550, 141.276 163.524, 133.848 180 C 132.733 182.475, 131.313 185.625, 130.695 187 C 126.286 196.795, 109.519 218.764, 103.773 222.276 C 99.918 224.632, 100.226 228.354, 104.315 228.823 C 109.044 229.365, 120.178 220.763, 125.905 212.143 C 127.882 209.167, 130.521 205.215, 131.768 203.361 C 133.015 201.507, 135.379 197.346, 137.021 194.115 C 138.663 190.883, 140.680 187.680, 141.503 186.997 C 142.327 186.314, 143 184.980, 143 184.033 C 143 183.085, 143.875 181.518, 144.944 180.551 C 146.013 179.584, 147.025 177.605, 147.194 176.155 C 147.370 174.637, 148.217 173.381, 149.190 173.197 C 151.318 172.793, 163.370 179.859, 177 189.502 C 182.775 193.588, 189.417 197.928, 191.760 199.147 C 194.103 200.367, 196.760 202.182, 197.665 203.182 C 198.570 204.182, 199.695 205, 200.165 205 C 200.636 205, 203.261 206.575, 206 208.500 C 208.739 210.425, 211.214 212, 211.500 212 C 212.340 212, 222.037 218.976, 228.080 223.928 C 231.149 226.442, 237.400 231.200, 241.970 234.500 C 246.540 237.800, 251.904 242.016, 253.889 243.869 C 255.875 245.722, 258.972 248.371, 260.772 249.754 C 263.916 252.172, 264.120 252.202, 265.996 250.503 C 271.118 245.868, 268.894 241.884, 256.095 232.762 C 251.262 229.318, 242.177 222.665, 235.904 217.978 C 225.193 209.975, 221.417 207.392, 206.500 197.864 C 198.946 193.039, 190.850 187.310, 186.554 183.750 C 184.729 182.238, 183.027 181, 182.771 181 C 182.515 181, 178.525 178.464, 173.903 175.365 C 165.006 169.400, 158.102 166, 154.886 166 C 152.553 166, 151.354 163.483, 152.836 161.698 C 154.762 159.377, 157.391 144.635, 157.331 136.500 C 157.194 118.261, 157.012 116.154, 155.429 114.571 C 153.272 112.415, 151.726 112.598, 149.174 115.314 M 89.500 163.726 C 84.545 166.227, 77.365 173.865, 75.957 178.131 C 75.236 180.314, 74.216 182.367, 73.688 182.693 C 73.161 183.018, 71.033 181.533, 68.959 179.392 C 58.406 168.499, 54.982 166.418, 52.200 169.200 C 49.528 171.872, 50.931 175.411, 57.259 181.957 C 63.907 188.834, 73 200.590, 73 202.308 C 73 202.877, 72.243 204.179, 71.318 205.202 C 70.030 206.625, 69.854 207.674, 70.568 209.677 C 72.153 214.126, 74.064 214.589, 81.193 212.249 C 84.718 211.091, 90.298 209.839, 93.593 209.467 C 98.007 208.967, 100.482 208.055, 103.001 205.999 C 105.953 203.590, 106.237 202.991, 105.087 201.605 C 104.354 200.722, 102.712 200, 101.437 200 C 98.253 200, 97.612 198.512, 99.391 195.254 C 105.993 183.168, 106.473 181.675, 106.487 173.170 C 106.498 166.070, 106.214 164.631, 104.559 163.420 C 102.044 161.580, 93.404 161.756, 89.500 163.726 M 88.821 176.601 C 86.811 178.031, 84.880 180.342, 84.530 181.737 C 84.180 183.132, 82.786 185.725, 81.434 187.498 C 79.337 190.247, 79.092 191.297, 79.778 194.612 C 81.081 200.918, 83.837 200.383, 89.271 192.769 C 94.740 185.104, 97.292 179.301, 96.530 176.262 C 95.783 173.288, 93.325 173.396, 88.821 176.601" stroke="none" fill="black" fill-rule="evenodd"/>
</svg>