<svg xmlns="http://www.w3.org/2000/svg" width="300" height="300" viewBox="0 0 300 300" version="1.1">
	<path d="M 77.733 24.440 C 74.740 26.878, 69.507 32.655, 66.106 37.278 C 62.704 41.900, 58.647 46.624, 57.089 47.776 C 53.925 50.115, 52.643 54.465, 54.239 57.447 C 54.819 58.530, 55.361 60.110, 55.445 60.958 C 55.529 61.806, 56.694 65.875, 58.036 70 C 60.311 76.998, 60.467 78.845, 60.364 97.612 C 60.244 119.466, 58.690 141.055, 56.362 153.209 C 54.737 161.692, 55.343 164.339, 59.191 165.561 C 60.877 166.096, 61.905 165.603, 63.640 163.427 C 65.819 160.694, 65.964 160.658, 67.858 162.372 C 69.577 163.928, 69.892 165.958, 70.411 178.823 C 71.663 209.916, 72.131 213.272, 75.154 212.815 C 76.723 212.578, 77.672 211.091, 78.997 206.795 C 80.468 202.022, 82.089 199.742, 88.908 192.849 C 93.392 188.317, 97.310 183.615, 97.615 182.399 C 98.336 179.524, 95.450 175.151, 92.312 174.364 C 89.497 173.657, 84.313 177.873, 83.801 181.286 C 83.375 184.132, 80.228 185.956, 79.038 184.048 C 78.539 183.249, 78.400 182.161, 78.728 181.631 C 79.695 180.066, 79.740 165.658, 78.783 163.727 C 78.107 162.362, 78.719 161.187, 81.453 158.609 C 85.315 154.967, 85.735 153.387, 83.611 150.483 C 81.942 148.201, 82.399 146.815, 86.660 141.227 C 88.452 138.877, 90.212 135.385, 90.572 133.466 C 90.932 131.548, 91.626 129.731, 92.113 129.430 C 92.601 129.129, 93 127.628, 93 126.096 C 93 123.342, 90.910 120.705, 88 119.789 C 85.049 118.859, 79.432 121.242, 75.426 125.124 C 72.656 127.807, 70.814 128.866, 69.676 128.429 C 67.606 127.635, 67.561 125.495, 69.500 120 C 70.325 117.662, 71 114.484, 71 112.938 C 71 110.722, 72.478 108.804, 77.981 103.876 L 84.962 97.626 84.806 91.963 C 84.686 87.581, 85.142 85.609, 86.825 83.246 C 88.021 81.566, 89 79.123, 89 77.818 C 89 76.513, 89.684 74.468, 90.520 73.275 C 92.700 70.162, 91.471 63.516, 88.246 60.979 C 84.647 58.148, 81.374 59.326, 75.357 65.620 C 72.528 68.579, 69.762 71, 69.211 71 C 68.659 71, 67.647 67.232, 66.961 62.626 L 65.716 54.253 69.322 49.376 C 76.932 39.085, 79.551 35.962, 81 35.447 C 83.148 34.684, 90 25.827, 90 23.813 C 90 21.878, 89.534 21.523, 85.838 20.641 C 83.673 20.125, 82.160 20.834, 77.733 24.440 M 151.266 28.578 C 143.590 31.936, 131 43.304, 131 46.877 C 131 51.947, 136.412 52.241, 141.054 47.423 C 144.445 43.904, 153.258 39, 156.192 39 C 158.901 39, 161.113 42.693, 161.677 48.157 C 162.223 53.445, 162.184 53.544, 158.865 55.240 C 153.033 58.221, 147.080 61.688, 145.404 63.080 C 144.514 63.818, 143.020 64.889, 142.082 65.461 C 135.028 69.760, 132.800 71.588, 130.934 74.606 C 128.935 77.841, 128.904 78.205, 130.425 80.526 C 131.317 81.887, 132.559 83, 133.186 83 C 134.911 83, 143.717 77.185, 150.945 71.272 C 157.637 65.798, 162 64.447, 162 67.851 C 162 70.829, 159.874 76.332, 157.861 78.564 C 156.838 79.700, 156 81.108, 156 81.693 C 156 82.953, 146.875 90.069, 142.280 92.392 C 140.508 93.288, 138.596 94.886, 138.030 95.945 C 136.446 98.903, 136.763 103.972, 138.575 104.667 C 140.850 105.540, 147.707 103.254, 149.214 101.120 C 149.921 100.118, 151.949 98.551, 153.720 97.639 C 155.492 96.726, 157.415 95.092, 157.995 94.008 C 158.576 92.924, 160.127 91.467, 161.442 90.769 C 162.758 90.071, 165.596 87.864, 167.750 85.864 L 171.666 82.229 171.319 71.864 C 170.986 61.905, 171.072 61.393, 173.527 58.749 C 174.932 57.237, 177.849 55.098, 180.008 53.996 C 182.167 52.895, 184.437 51.052, 185.052 49.902 C 187.313 45.678, 178.763 40.637, 175.267 44.133 C 173.587 45.813, 171.002 44.394, 170.985 41.781 C 170.977 40.527, 170.355 37.700, 169.603 35.500 C 167.072 28.090, 159.185 25.113, 151.266 28.578 M 69.480 84.360 C 70.150 92.217, 70.430 92.849, 72.625 91.465 C 74.019 90.585, 78 81.010, 78 78.538 C 78 77.967, 75.947 77.456, 73.439 77.403 L 68.878 77.305 69.480 84.360 M 198.500 102.623 C 185.663 105.755, 172.878 110.895, 164.679 116.220 C 161.478 118.299, 158.535 120, 158.140 120 C 157.745 120, 154.289 122.838, 150.461 126.306 C 146.632 129.775, 142.518 133.283, 141.318 134.103 C 140.117 134.923, 136.338 138.948, 132.918 143.047 C 129.499 147.146, 126.294 150.658, 125.796 150.852 C 125.298 151.045, 122.553 148.739, 119.695 145.728 C 113.420 139.114, 102.377 130, 100.639 130 C 98.226 130, 96.121 132.528, 95.457 136.223 C 94.840 139.652, 95.013 140.035, 97.644 141.080 C 104.046 143.621, 114.361 151.140, 120.179 157.505 C 127.712 165.748, 129.035 165.348, 137.810 152.164 C 141.924 145.984, 153.582 135, 156.027 135 C 156.451 135, 157.024 136.912, 157.300 139.250 C 157.575 141.588, 158.520 146.875, 159.399 151 C 160.278 155.125, 160.998 160.770, 160.999 163.545 C 161 168.434, 160.844 168.708, 155.921 172.463 C 150.452 176.633, 139 187.986, 139 189.237 C 139 189.657, 138.084 190, 136.964 190 C 135.499 190, 134.379 188.717, 132.964 185.417 C 131.884 182.896, 131 180.002, 131 178.985 C 131 176.808, 126.048 173, 123.218 173 C 120.334 173, 118.570 175.691, 118.839 179.684 C 119.109 183.685, 120.628 186.390, 126.677 193.639 C 129.035 196.466, 131.430 199.841, 131.997 201.139 C 134.719 207.364, 136.657 209.500, 139.581 209.500 C 142.369 209.500, 142.501 209.299, 142.530 205 C 142.547 202.525, 143.245 199.047, 144.081 197.271 C 145.561 194.128, 160.634 180.301, 161.566 181.232 C 161.822 181.489, 162.282 194.479, 162.588 210.099 C 163.093 235.864, 161.477 278.097, 159.311 295.750 L 158.790 300 163.395 300 C 167.916 300, 168.001 299.941, 168.036 296.750 C 168.132 288.140, 169.153 275.138, 169.980 272 C 171.269 267.107, 172.327 246.340, 172.579 221 C 172.813 197.381, 173.533 193.310, 177.268 194.469 C 182.982 196.242, 184.033 196.128, 189.193 193.174 C 199.288 187.395, 202.243 182.180, 203.527 167.881 C 204.348 158.725, 203.543 156.829, 198.061 155.020 C 194.723 153.918, 193.244 153.908, 189.750 154.964 C 187.412 155.670, 184.066 156.667, 182.312 157.181 C 180.559 157.694, 177.958 159.032, 176.532 160.154 C 174.445 161.795, 173.651 161.956, 172.469 160.974 C 171.661 160.304, 171 158.656, 171 157.312 C 171 155.968, 170.500 153.935, 169.890 152.794 C 169.279 151.652, 168.639 145.345, 168.467 138.776 L 168.155 126.834 171.327 123.941 C 173.072 122.349, 175.400 120.783, 176.500 120.461 C 177.600 120.138, 179.625 119.392, 181 118.803 C 186.229 116.563, 187.593 116.098, 190.750 115.479 C 194.947 114.655, 195.091 116.680, 191.199 121.809 C 188.271 125.668, 185.831 131.498, 186.757 132.424 C 187.827 133.493, 192.564 131.643, 195.684 128.938 C 197.436 127.419, 199.798 125.881, 200.934 125.521 C 202.070 125.160, 203 124.461, 203 123.967 C 203 123.474, 205.039 121.116, 207.532 118.727 C 213.321 113.180, 214.380 108.629, 210.685 105.168 C 208.202 102.841, 202.493 101.649, 198.500 102.623 M 71.072 139.529 C 69.737 140.262, 68.065 141.905, 67.358 143.181 C 65.661 146.239, 65.589 151.303, 67.250 150.753 C 68.777 150.247, 77 140.304, 77 138.963 C 77 137.637, 73.996 137.924, 71.072 139.529 M 183.500 166.758 C 181.850 167.625, 179.150 169, 177.500 169.814 C 171.716 172.670, 171.105 173.708, 171.310 180.350 L 171.500 186.500 177.400 186.293 C 182.335 186.120, 183.780 185.629, 186.232 183.293 C 190.003 179.700, 192 174.883, 192 169.378 C 192 165.247, 191.845 165.005, 189.250 165.091 C 187.738 165.142, 185.150 165.892, 183.500 166.758 M 42.550 189.250 C 40.662 195.340, 41.688 199.393, 46.614 205.295 C 50.333 209.751, 51.414 214.875, 50.394 223.203 L 49.500 230.500 43.428 233.500 C 34.608 237.858, 31 240.745, 31 243.446 C 31 247.737, 33.282 248.412, 39.690 246.015 C 47.423 243.122, 62.106 235.482, 64.854 232.922 C 66.070 231.788, 69.638 229.728, 72.783 228.343 C 75.927 226.958, 79.175 225.256, 80 224.561 C 80.825 223.866, 83.525 222.225, 86 220.914 C 88.475 219.603, 91.573 217.736, 92.885 216.765 C 94.197 215.794, 96.319 215, 97.600 215 C 98.882 215, 101.262 213.762, 102.889 212.250 C 104.516 210.738, 107.072 208.642, 108.569 207.593 C 111.151 205.785, 111.197 205.617, 109.455 204.343 C 106.132 201.914, 101.714 202.915, 90.500 208.639 C 84.450 211.727, 77.700 215.155, 75.500 216.256 C 73.300 217.357, 70.375 219.003, 69 219.915 C 63.537 223.538, 55.608 224.992, 58.817 221.783 C 60.200 220.400, 60.418 208.788, 59.109 206.236 C 58.620 205.281, 57.222 202.407, 56.003 199.849 C 52.702 192.921, 48.297 188, 45.396 188 C 44.044 188, 42.763 188.563, 42.550 189.250" stroke="none" fill="black" fill-rule="evenodd"/>
</svg>