<svg xmlns="http://www.w3.org/2000/svg" width="300" height="300" viewBox="0 0 300 300" version="1.1">
	<path d="M 157.872 11.652 C 156.940 12.774, 156.548 15.739, 156.650 20.902 C 156.732 25.081, 156.887 34.060, 156.994 40.855 L 157.189 53.210 153.898 56.605 C 150.380 60.235, 149.075 60.675, 147.247 58.847 C 146.463 58.063, 146.405 57.112, 147.065 55.879 C 147.599 54.881, 148.066 48.164, 148.103 40.954 C 148.159 29.841, 147.904 27.552, 146.430 25.922 C 145.473 24.865, 143.915 24, 142.967 24 C 139.073 24, 138.599 26.419, 138.171 48.528 C 137.770 69.199, 137.825 69.945, 139.947 72.926 C 142.714 76.812, 145.062 76.811, 151.127 72.919 C 153.767 71.224, 156.394 70.126, 156.964 70.478 C 158.123 71.194, 158.245 95.904, 157.110 99.980 C 156.730 101.344, 154.412 103.970, 151.960 105.817 C 149.507 107.663, 146.535 109.990, 145.355 110.989 C 141.637 114.136, 132.781 119.438, 124.830 123.278 C 119.082 126.054, 116.408 126.832, 114.158 126.382 C 111.752 125.900, 110.361 126.419, 107.161 128.991 C 102.418 132.802, 101.153 136.407, 103.606 139.118 C 106.522 142.340, 112.933 140.941, 120.500 135.432 C 122.150 134.230, 125.141 132.722, 127.146 132.080 C 129.152 131.438, 136.527 127.108, 143.536 122.457 C 150.545 117.805, 156.667 114, 157.140 114 C 157.613 114, 158 115.769, 158 117.932 C 158 121.159, 157.462 122.247, 155 124 C 153.350 125.175, 152 126.556, 152 127.070 C 152 128.103, 140.255 148.779, 138.564 150.723 C 137.979 151.395, 136.241 153.645, 134.702 155.723 C 127.305 165.710, 112.255 184.176, 106.766 190 C 95.441 202.015, 89.402 206.827, 83.490 208.546 C 78.885 209.885, 78 210.514, 78 212.449 C 78 213.717, 78.659 215.302, 79.465 215.971 C 81.649 217.783, 88.475 216.287, 93.502 212.894 C 95.860 211.302, 98.175 209.988, 98.645 209.973 C 100.642 209.911, 128 180.400, 128 178.309 C 128 177.840, 130.971 174.541, 134.603 170.978 C 138.234 167.415, 142.327 162.588, 143.698 160.250 C 145.068 157.912, 146.526 156, 146.938 156 C 147.349 156, 148.527 154.436, 149.557 152.525 C 151.503 148.911, 153.766 147.366, 155.125 148.725 C 156.256 149.856, 153.015 210.706, 151.648 214 C 151.306 214.825, 150.538 219.325, 149.942 224 C 148.730 233.506, 147.474 241.158, 146.463 245.196 C 145.974 247.147, 146.389 248.737, 147.962 250.946 C 150.488 254.495, 152.941 254.828, 155.524 251.974 C 157.572 249.711, 159.442 235.112, 160.508 213.066 C 160.839 206.227, 161.313 200.303, 161.561 199.902 C 161.809 199.500, 162.271 194.971, 162.589 189.836 C 162.906 184.701, 163.691 175.550, 164.333 169.500 C 165.495 158.546, 165.512 158.499, 168.274 158.181 C 170.128 157.968, 172.060 158.714, 174.101 160.431 C 175.780 161.844, 177.579 163, 178.098 163 C 179.480 163, 187.027 168.054, 190.500 171.305 C 192.150 172.849, 194.850 174.815, 196.500 175.673 C 198.150 176.532, 200.406 178.060, 201.514 179.069 C 202.621 180.079, 205.321 181.652, 207.514 182.567 C 209.706 183.481, 212.625 184.983, 214 185.904 C 215.375 186.826, 219.200 188.613, 222.500 189.875 C 230.345 192.875, 246.822 200.903, 247.549 202.080 C 247.862 202.586, 248.879 203.003, 249.809 203.006 C 250.739 203.010, 252.845 203.714, 254.489 204.571 C 257.317 206.045, 257.572 206.012, 259.239 203.954 C 262.442 199.998, 260.756 196.228, 255 194.475 C 252.726 193.783, 236.601 186.107, 233 184.003 C 232.175 183.521, 230.150 182.488, 228.500 181.706 C 217.165 176.339, 204.176 169.017, 200.500 165.923 C 198.225 164.008, 185.092 156, 184.227 156 C 183.914 156, 182.789 155.213, 181.728 154.250 C 180.667 153.287, 176.856 150.925, 173.259 149 L 166.719 145.500 166.506 134 C 166.389 127.675, 166.746 118.486, 167.299 113.580 L 168.305 104.659 173.740 99.580 C 179.441 94.250, 190.062 86.399, 196 83.125 C 201.927 79.856, 204.178 76.758, 203.817 72.364 C 203.542 69.008, 203.146 68.459, 200.808 68.189 C 198.716 67.948, 196.806 69.082, 192.246 73.274 C 189.018 76.242, 183.704 80.544, 180.438 82.835 C 177.172 85.126, 173.307 87.955, 171.850 89.121 C 170.392 90.287, 168.702 90.934, 168.095 90.559 C 167.349 90.097, 167.073 84.982, 167.245 74.797 C 167.475 61.225, 167.689 59.607, 169.389 58.609 C 173.007 56.486, 185 43.780, 185 42.070 C 185 39.769, 180.872 36, 178.353 36 C 177.201 36, 174.955 37.716, 173.120 40 C 171.352 42.200, 169.538 44, 169.089 44 C 168.406 44, 167.145 31.087, 166.460 17.078 C 166.352 14.875, 165.488 13.004, 164.035 11.828 C 161.242 9.565, 159.644 9.520, 157.872 11.652 M 97.327 37.352 C 94.652 39.578, 86.359 42.742, 77.500 44.918 C 70.991 46.516, 63.790 49.347, 58.809 52.266 C 56.243 53.770, 53.492 55, 52.694 55 C 49.902 55, 48.605 57.833, 49.586 61.790 C 50.575 65.781, 52.748 66.883, 56.381 65.238 C 63.310 62.100, 74.897 57.668, 77.250 57.255 C 80.294 56.721, 80.624 57.672, 79.108 62.601 C 78.617 64.195, 77.685 68.200, 77.037 71.500 C 75.946 77.053, 74.407 83.514, 71.795 93.500 C 71.220 95.700, 69.230 100.735, 67.375 104.688 C 63.710 112.494, 62.976 118.906, 65.507 121.006 C 66.745 122.033, 67.723 121.787, 70.983 119.630 C 73.166 118.186, 75.719 115.765, 76.658 114.252 C 79.199 110.154, 83.206 106, 84.619 106 C 86.272 106, 90.004 111.323, 89.985 113.654 C 89.971 115.537, 87.709 122.625, 86.123 125.763 C 85.639 126.718, 84.522 129.188, 83.638 131.250 C 81.875 135.367, 80.657 135.745, 76.364 133.506 C 74.789 132.685, 72.507 132.010, 71.294 132.006 C 68.853 131.999, 60.535 127.374, 54.782 122.823 C 51.742 120.419, 50.282 119.938, 46.782 120.191 C 42.796 120.479, 42.479 120.716, 42.196 123.624 C 41.919 126.469, 42.397 127.050, 47.545 130.124 C 62.198 138.875, 63.140 139.277, 70.151 139.779 C 77.700 140.319, 78.360 141.116, 75.124 145.790 C 74.093 147.281, 71.083 151.837, 68.437 155.915 C 62.382 165.250, 44.075 186.260, 39.169 189.507 C 37.133 190.854, 34.007 192.249, 32.222 192.606 C 29.378 193.174, 28.545 192.797, 25.487 189.554 C 21.428 185.252, 18.656 185.164, 18.177 189.323 C 17.708 193.402, 20.186 196.455, 26.454 199.521 C 33.174 202.809, 36.834 202.413, 43.031 197.727 C 45.378 195.952, 48.536 193.600, 50.048 192.500 C 55.268 188.703, 73.592 166.216, 81.041 154.466 C 89.280 141.470, 93 135.078, 93 133.918 C 93 133.462, 94.125 131.431, 95.500 129.405 C 96.875 127.379, 98 124.685, 98 123.419 C 98 122.154, 98.455 120.837, 99.011 120.493 C 100.702 119.448, 99.332 106.655, 96.907 100.852 C 93.714 93.212, 91.450 91, 86.826 91 C 84.722 91, 83 90.522, 83 89.938 C 83 89.354, 84.134 84.934, 85.520 80.116 C 86.907 75.297, 88.607 67.129, 89.299 61.963 L 90.557 52.570 93.798 51.907 C 98.109 51.026, 104.427 46.554, 105.886 43.352 C 107.111 40.662, 106.497 39.093, 103.108 36.250 C 101.079 34.548, 100.582 34.643, 97.327 37.352" stroke="none" fill="black" fill-rule="evenodd"/>
</svg>