<svg xmlns="http://www.w3.org/2000/svg" width="300" height="300" viewBox="0 0 300 300" version="1.1">
	<path d="M 141.526 11.950 C 139.721 15.439, 139.587 18.361, 141.102 21.190 C 141.708 22.323, 142.175 25.696, 142.139 28.686 C 142.088 32.948, 141.540 34.757, 139.606 37.056 C 138.249 38.669, 136.871 40.779, 136.544 41.745 C 136.217 42.710, 134.815 44.325, 133.427 45.333 C 131.421 46.790, 130.607 46.919, 129.452 45.960 C 128.653 45.297, 128 44.311, 128 43.768 C 128 43.225, 125.685 40.242, 122.857 37.140 C 115.398 28.961, 108 26.574, 108 32.347 C 108 33.927, 110.247 37.184, 114.528 41.807 C 118.118 45.685, 121.615 50.352, 122.300 52.179 C 126.689 63.893, 131.715 66.163, 136.846 58.750 C 138.464 56.412, 140.960 53.409, 142.394 52.076 C 143.827 50.742, 145 49.139, 145 48.513 C 145 47.887, 146.238 46.199, 147.750 44.762 C 149.975 42.648, 151.422 42.166, 155.335 42.235 C 159.514 42.308, 160.493 41.925, 162.549 39.410 C 165.395 35.929, 165.853 28.663, 163.443 25.223 C 161.607 22.600, 160.500 22.491, 156.566 24.542 C 154.952 25.384, 153.108 25.872, 152.468 25.626 C 151.827 25.380, 151.009 22.360, 150.649 18.915 C 149.658 9.434, 144.760 5.695, 141.526 11.950 M 156.500 52 C 155.505 53.100, 154.061 54, 153.293 54 C 152.525 54, 151.425 55.350, 150.850 57 C 150.275 58.650, 149.511 60.002, 149.152 60.005 C 148.793 60.007, 146.869 61.470, 144.876 63.255 C 137.625 69.749, 134.774 72, 133.802 72 C 133.256 72, 131.427 73.013, 129.739 74.250 C 128.050 75.487, 124.831 77.404, 122.584 78.509 C 116.227 81.637, 116.600 88, 123.141 88 C 126.090 88, 136.872 82.826, 138.115 80.814 C 138.491 80.206, 139.519 79.985, 140.399 80.323 C 141.683 80.816, 142 82.528, 142 88.983 C 142 95.630, 141.609 97.632, 139.750 100.502 C 137.439 104.070, 136.427 104.419, 129.434 104.060 C 124.519 103.807, 122.737 105.552, 123.182 110.185 C 123.589 114.429, 126.342 114.960, 133.031 112.082 C 135.693 110.937, 138.764 110, 139.855 110 C 141.009 110, 143.968 107.612, 146.920 104.300 C 150.765 99.986, 152 97.828, 152 95.423 C 152 93.675, 152.686 91.675, 153.525 90.979 C 154.805 89.917, 154.836 89.455, 153.719 88.107 C 149.990 83.609, 148.778 74.990, 151.465 72.084 C 152.270 71.213, 155.420 67.922, 158.465 64.772 C 164.623 58.399, 165.337 55.605, 161.686 52.174 C 158.857 49.517, 158.750 49.513, 156.500 52 M 73 56.523 C 62.604 61.820, 51.553 67, 50.646 67 C 50.185 67, 48.490 67.939, 46.878 69.087 C 45.267 70.234, 41.827 71.477, 39.236 71.847 C 33.654 72.646, 32.807 74.515, 35.996 78.994 C 37.735 81.437, 38.852 82, 41.954 82 C 44.053 82, 47.060 81.328, 48.636 80.506 C 50.211 79.685, 52.245 79.010, 53.155 79.006 C 54.066 79.003, 56.615 78.037, 58.820 76.860 C 64.407 73.878, 66.337 74.829, 65.712 80.257 C 65.444 82.591, 64.726 89, 64.117 94.500 C 61.689 116.431, 58.940 128.145, 55.565 130.946 C 54.712 131.654, 53.517 134.093, 52.909 136.366 C 52.302 138.640, 51.343 141.063, 50.780 141.750 C 49.555 143.244, 45.372 143.411, 44.500 142 C 43.635 140.600, 40.441 140.752, 39.255 142.250 C 36.604 145.596, 46.096 154.331, 53.614 155.462 C 58.227 156.157, 69.354 162.925, 71.030 166.056 C 71.943 167.763, 71.621 168.668, 69.061 171.583 C 67.377 173.501, 66 175.749, 66 176.578 C 66 178.111, 48.435 196.466, 45.091 198.428 C 44.086 199.018, 42.166 200.283, 40.824 201.240 C 37.242 203.793, 29.427 204.936, 23 203.847 C 14.664 202.435, 12.731 202.396, 12.304 203.630 C 12.089 204.251, 13.863 205.902, 16.246 207.298 C 24.283 212.008, 39.056 211.881, 45.991 207.042 C 47.371 206.080, 49.649 205.015, 51.054 204.676 C 54.438 203.860, 77.091 179.750, 77.850 176.156 C 78.042 175.245, 79.117 173.504, 80.239 172.287 C 82.390 169.954, 84.163 167.134, 86.080 163 C 94.174 145.539, 94.380 144.813, 94.447 133.412 C 94.496 125.035, 94.280 124.006, 91.691 120.273 C 90.016 117.858, 86.828 115.157, 83.794 113.583 C 79.310 111.256, 78.298 111.077, 75.285 112.071 C 71.192 113.422, 70.436 112.923, 72.038 109.929 C 72.800 108.505, 73.012 105.756, 72.618 102.403 C 72.276 99.497, 72.398 96.872, 72.888 96.569 C 73.993 95.887, 73.089 78.858, 71.879 77.550 C 71.396 77.027, 71 75.333, 71 73.784 C 71 71.500, 71.708 70.645, 74.750 69.261 C 80.796 66.511, 87 62.024, 87 60.402 C 87 59.576, 86.313 57.573, 85.474 55.950 C 83.518 52.168, 81.351 52.267, 73 56.523 M 170.340 76.557 C 170.011 77.414, 169.125 77.878, 168.371 77.589 C 167.617 77.300, 167 77.164, 167 77.288 C 167 77.412, 167.422 78.985, 167.938 80.784 C 170.162 88.537, 161.480 107.948, 149.252 122.561 C 146.059 126.377, 142.147 131.214, 140.560 133.308 C 138.286 136.309, 137.098 137.056, 134.962 136.832 C 131.157 136.433, 128.956 138.531, 129.633 141.913 C 130.108 144.291, 128.931 146.023, 120.690 155.076 C 115.471 160.809, 105.530 171.118, 98.600 177.985 C 91.670 184.852, 86 191.014, 86 191.678 C 86 192.921, 89.776 196, 91.301 196 C 91.772 196, 93.889 194.313, 96.006 192.250 C 98.123 190.188, 101.040 187.671, 102.487 186.658 C 103.935 185.645, 105.531 183.733, 106.035 182.408 C 106.538 181.084, 107.471 180, 108.108 180 C 108.744 180, 114.007 175.275, 119.803 169.500 C 125.599 163.725, 130.671 159, 131.074 159 C 131.731 159, 132.897 166.274, 133.078 171.500 C 133.116 172.600, 132.850 180.925, 132.487 190 C 131.842 206.091, 131.880 206.558, 134.031 208.836 C 135.545 210.438, 136.906 210.987, 138.369 210.585 C 139.541 210.263, 142.300 209.701, 144.500 209.336 C 148.320 208.703, 148.435 208.759, 147.047 210.586 C 141.463 217.937, 122.384 236.858, 113.123 244.227 C 105.444 250.338, 102.727 251.071, 102.173 247.181 C 101.747 244.190, 99.355 244.687, 97.224 248.210 C 95.965 250.292, 95.815 251.565, 96.576 253.710 C 97.538 256.420, 97.777 256.500, 104.912 256.500 C 111.420 256.500, 112.427 256.244, 113.751 254.250 C 114.572 253.013, 115.905 252, 116.714 252 C 119.175 252, 124.179 247.814, 143.017 230 C 154.496 219.144, 155.817 217.661, 156.513 214.845 C 156.874 213.384, 158.256 211.169, 159.585 209.921 C 160.969 208.620, 162 206.512, 162 204.981 C 162 202.358, 164.642 199, 166.706 199 C 167.283 199, 168.315 198.325, 169 197.500 C 169.685 196.675, 171.485 196, 173 196 C 176.580 196, 177.947 194.233, 178.098 189.412 C 178.166 187.260, 178.700 182.025, 179.286 177.778 C 180.465 169.230, 179.213 153.487, 176.281 140 C 173.360 126.563, 165.793 122.282, 158.883 130.157 C 156.920 132.393, 156 132.501, 156 130.493 C 156 129.665, 157.145 127.991, 158.544 126.775 C 161.675 124.053, 169.797 111.421, 173.188 104 C 178.090 93.273, 180.033 80.054, 177.194 76.750 C 175.329 74.580, 171.144 74.462, 170.340 76.557 M 74.403 124.752 C 72.157 126.820, 68.932 131.491, 67.329 135 C 65.259 139.529, 63 146.016, 63 147.432 C 63 148.864, 75.026 158, 76.910 158 C 77.489 158, 78.258 156.762, 78.619 155.250 C 78.980 153.738, 79.739 151.914, 80.304 151.197 C 81.480 149.708, 82.948 142.823, 83.652 135.500 C 84.596 125.693, 79.638 119.932, 74.403 124.752 M 159.572 141.097 C 157.638 143.395, 155.615 144.517, 152.282 145.140 C 146.988 146.129, 146.086 145.693, 147.788 142.968 C 149.674 139.949, 149.249 139.756, 146 142.158 C 142.829 144.503, 142.025 147, 144.441 147 C 146.921 147, 147.119 148.757, 145.026 152.190 C 142.680 156.037, 142.404 159, 144.390 159 C 145.940 159, 155.111 152.322, 162 146.176 C 165.748 142.833, 166.321 141.865, 165.429 140.390 C 163.712 137.552, 162.424 137.708, 159.572 141.097 M 151.500 165.478 C 148.750 166.802, 145.964 167.911, 145.309 167.942 C 142.291 168.088, 142.866 172.323, 146.141 174.076 C 147.725 174.923, 149.058 174.217, 154.024 169.898 C 157.311 167.039, 160 164.318, 160 163.850 C 160 162.358, 156.648 163, 151.500 165.478 M 163.900 174.158 C 160.558 178.556, 159.037 180, 157.743 180 C 157.130 180, 155.583 180.983, 154.304 182.184 C 153.021 183.389, 150.078 184.622, 147.740 184.934 L 143.500 185.500 143.204 192.250 C 142.933 198.444, 143.074 199, 144.920 199 C 148.886 199, 162.131 192.539, 165.419 189 C 166.806 187.507, 167.979 184.687, 168.331 182 C 168.656 179.525, 169.220 176.037, 169.586 174.250 C 170.157 171.456, 169.973 171, 168.275 171 C 167.188 171, 165.219 172.421, 163.900 174.158 M 169.384 220.442 C 167.875 224.375, 171.040 226.939, 186.615 234.404 C 189.429 235.752, 192.002 237.563, 192.334 238.428 C 192.666 239.293, 193.782 240, 194.814 240 C 195.846 240, 197.505 240.900, 198.500 242 C 199.495 243.100, 200.869 244, 201.553 244 C 202.236 244, 205.758 245.800, 209.380 248 C 213.001 250.200, 216.239 252, 216.574 252 C 216.910 252, 218.329 252.900, 219.727 254 C 221.126 255.100, 223.052 256, 224.008 256 C 226.510 256, 234.503 259.696, 236.061 261.574 C 236.790 262.452, 239.106 263.859, 241.206 264.699 C 243.307 265.540, 245.951 267.526, 247.081 269.114 C 248.211 270.701, 249.750 272, 250.500 272 C 251.935 272, 256 266.935, 256 265.147 C 256 263.009, 245.645 254, 243.187 254 C 241.399 254, 222.927 244.257, 217.427 240.412 C 214.074 238.069, 206.194 233.610, 199.916 230.503 C 193.637 227.397, 187.825 224.320, 187 223.666 C 181.270 219.126, 170.636 217.180, 169.384 220.442" stroke="none" fill="black" fill-rule="evenodd"/>
</svg>