<svg xmlns="http://www.w3.org/2000/svg" width="300" height="300" viewBox="0 0 300 300" version="1.1">
	<path d="M 63.667 11.667 C 63.300 12.033, 62.964 15.521, 62.920 19.417 C 62.876 23.313, 62.088 28.687, 61.170 31.360 C 59.606 35.912, 59.119 36.374, 53.500 38.641 C 50.200 39.973, 45.799 41.948, 43.719 43.031 C 41.640 44.114, 39.459 45, 38.874 45 C 38.288 45, 36.489 45.940, 34.876 47.089 C 32.260 48.951, 32.014 49.573, 32.602 52.839 C 33.855 59.800, 35.991 60.237, 43.500 55.068 C 47.715 52.166, 54.474 49.873, 59.500 49.639 C 62.779 49.487, 62.657 48.955, 61.646 59 C 60.856 66.854, 59.771 72, 58.907 72 C 57.412 72, 51 78.166, 51 79.604 C 51 80.372, 51.923 81.923, 53.051 83.051 C 55.321 85.321, 55.812 85.263, 66 81.515 C 69.575 80.199, 73.729 78.864, 75.232 78.547 C 76.734 78.230, 79.547 76.581, 81.482 74.882 C 85.574 71.289, 86.131 67.333, 82.950 64.455 C 81.138 62.815, 80.528 62.751, 77.700 63.901 C 75.940 64.617, 73.427 65.446, 72.116 65.744 C 69.864 66.254, 69.773 66.095, 70.484 62.892 C 70.898 61.027, 71.296 55.827, 71.369 51.339 C 71.441 46.850, 71.780 42.894, 72.123 42.549 C 73.136 41.527, 83.189 37.870, 87.298 37.029 C 90.968 36.277, 93.902 33.764, 93.968 31.315 C 94.031 28.985, 92.003 24.938, 90.480 24.354 C 89.627 24.027, 86.241 25.192, 82.954 26.944 C 74.551 31.423, 73 30.732, 73 22.514 C 73 14.609, 72.400 13, 69.452 13 C 68.168 13, 66.840 12.550, 66.500 12 C 65.786 10.845, 64.625 10.709, 63.667 11.667 M 117.055 23.434 C 116.114 24.568, 116.335 25.773, 118.108 29.184 C 119.342 31.558, 120.969 34.731, 121.723 36.235 C 122.478 37.739, 123.328 42.689, 123.612 47.235 C 124.248 57.411, 122.531 93.355, 121.024 101.423 C 120.106 106.339, 120.166 107.594, 121.374 108.803 C 123.553 110.981, 127.863 109.529, 129.036 106.222 C 129.567 104.725, 130.393 102.810, 130.873 101.967 C 131.353 101.124, 132.063 98.992, 132.450 97.229 C 132.837 95.466, 133.585 93.756, 134.113 93.430 C 134.640 93.104, 136.904 89.935, 139.145 86.388 C 141.385 82.841, 144.512 79.269, 146.095 78.451 C 147.677 77.633, 149.247 75.863, 149.585 74.518 C 149.923 73.172, 151.167 71.769, 152.349 71.399 C 153.532 71.029, 155.772 69.663, 157.327 68.363 C 161.238 65.094, 165.580 65.191, 166.427 68.566 C 167.238 71.796, 166.013 85.874, 164.860 86.587 C 164.387 86.879, 164 87.929, 164 88.919 C 164 89.910, 162.875 92.379, 161.500 94.405 C 160.125 96.431, 159 99.223, 159 100.610 C 159 101.997, 158.508 104.050, 157.907 105.173 C 156.562 107.687, 158.003 109.470, 160.649 108.567 C 163.012 107.760, 165.728 103.738, 171.488 92.515 C 175.392 84.907, 176.189 82.361, 176.687 75.904 C 177.769 61.868, 175.102 56.752, 166.052 55.507 C 158.349 54.448, 153.587 57.818, 137.100 76 C 133.716 79.731, 132.845 80.244, 131.999 79 C 131.428 78.160, 131.266 75.740, 131.631 73.500 C 131.990 71.300, 132.269 62.172, 132.251 53.217 C 132.222 38.771, 131.962 36.246, 129.942 30.846 C 128.075 25.852, 127.073 24.511, 124.365 23.379 C 120.175 21.628, 118.543 21.641, 117.055 23.434 M 70.554 96.755 C 68.934 97.603, 65.026 99.966, 61.870 102.006 C 58.714 104.045, 53.628 106.731, 50.566 107.973 C 45.755 109.926, 45 110.596, 45 112.916 C 45 116.006, 46.629 118, 49.152 118 C 50.857 118, 64.652 112.451, 70.331 109.481 C 71.888 108.666, 73.941 108, 74.894 108 C 75.846 108, 77.872 106.699, 79.395 105.109 C 82.058 102.330, 82.105 102.104, 80.619 99.231 C 78.285 94.717, 75.673 94.074, 70.554 96.755 M 89.966 112.753 C 78.972 120.196, 70.648 126.587, 66.118 131.065 C 60.305 136.811, 46.064 146.217, 38.934 149.021 C 35.945 150.196, 31.999 152.083, 30.164 153.214 C 28.329 154.345, 24.279 156.063, 21.164 157.032 C 15.883 158.675, 15.309 158.683, 12.671 157.147 C 9.945 155.561, 9.771 155.587, 7.921 157.861 C 5.619 160.690, 5.548 161.983, 7.449 166.532 C 8.799 169.763, 9.206 170, 13.411 170 C 20.056 170, 34.550 163.976, 41 158.534 C 41.825 157.838, 43.774 156.965, 45.332 156.595 C 47.835 155.999, 54.776 151.819, 60.453 147.490 C 63.397 145.245, 64.685 145.673, 65.375 149.125 C 66.552 155.012, 65.994 156.986, 61.462 162.944 C 58.967 166.226, 55.468 171.068, 53.687 173.705 C 48.565 181.290, 43.975 186.463, 26.142 204.750 C 17.156 213.965, 15.441 215.041, 13.242 212.842 C 11.081 210.681, 8.868 213.753, 9.607 217.888 C 11.043 225.917, 16.242 227.221, 23.007 221.250 C 30.597 214.552, 46.995 197.531, 46.997 196.349 C 46.999 195.716, 48.575 194.268, 50.500 193.133 C 52.425 191.997, 54 190.479, 54 189.759 C 54 188.161, 64.405 177, 65.895 177 C 66.482 177, 67.263 178.199, 67.631 179.665 C 68.359 182.568, 67.306 217.040, 66.418 219.354 C 66.118 220.136, 64.551 221.040, 62.936 221.363 C 60.348 221.880, 60 222.372, 60 225.510 C 60 231.240, 62.438 234, 67.500 234 C 71.712 234, 71.790 233.936, 73.302 229.250 C 75.616 222.074, 76.342 215.044, 77.509 188.521 C 77.847 180.833, 78.302 174.365, 78.519 174.148 C 78.860 173.807, 81.153 175.180, 90.389 181.257 C 91.428 181.941, 93.453 183.444, 94.889 184.598 C 98.290 187.330, 104.111 190.476, 110.734 193.162 C 115.188 194.969, 115.471 196.524, 112.318 201.880 C 110.822 204.421, 108.625 208.412, 107.436 210.748 C 105.396 214.757, 103.084 217.046, 98.489 219.609 C 96.102 220.940, 95.870 224.885, 98.095 226.288 C 98.973 226.842, 100.773 227.011, 102.095 226.664 C 105.052 225.888, 112.627 218.680, 116 213.431 C 117.375 211.291, 121.088 206.974, 124.250 203.838 C 130.149 197.987, 130.854 196.341, 128.842 193.119 C 128.205 192.099, 128.007 190.643, 128.402 189.882 C 136.638 174.027, 137.634 172.484, 139.844 172.170 C 141.120 171.988, 142.915 172.506, 143.832 173.320 C 144.750 174.135, 147.750 176.040, 150.500 177.554 C 153.250 179.069, 156.625 181.160, 158 182.202 C 161.811 185.090, 181.755 198, 182.405 198 C 182.720 198, 185.570 199.963, 188.739 202.361 C 191.907 204.760, 195.850 207.417, 197.500 208.266 C 199.150 209.115, 201.591 210.978, 202.924 212.405 C 204.258 213.832, 205.734 215, 206.206 215 C 206.677 215, 210.352 217.475, 214.371 220.500 C 218.390 223.525, 222.221 226, 222.884 226 C 223.548 226, 225.253 227.163, 226.674 228.583 C 228.095 230.004, 231.866 233.042, 235.054 235.333 C 238.242 237.625, 243.845 242.175, 247.506 245.444 C 254.788 251.945, 256.696 252.114, 258.180 246.386 C 259.469 241.409, 257.843 237.736, 253.360 235.500 C 251.154 234.400, 247.765 232.262, 245.830 230.750 C 243.895 229.238, 241.870 228, 241.330 228 C 240.790 228, 239.258 226.836, 237.924 225.413 C 236.591 223.990, 234.150 222.226, 232.500 221.494 C 230.850 220.762, 227.618 218.439, 225.317 216.331 C 223.016 214.224, 218.134 210.700, 214.467 208.500 C 210.801 206.300, 206.354 203.288, 204.584 201.808 C 202.815 200.327, 197.951 197.272, 193.775 195.020 C 189.599 192.768, 185.636 190.267, 184.969 189.462 C 184.301 188.658, 183.216 188, 182.558 188 C 181.899 188, 179.591 186.512, 177.430 184.692 C 173.535 181.414, 168.681 178.002, 160 172.439 C 157.525 170.853, 154.228 168.531, 152.673 167.278 C 151.119 166.025, 148.811 165, 147.546 165 C 143.970 165, 142.575 162.658, 143.895 158.872 C 144.503 157.128, 145 154.509, 145 153.051 C 145 151.593, 145.386 149.973, 145.857 149.450 C 146.328 148.928, 147.263 143.325, 147.933 137 C 149.221 124.857, 148.491 117.955, 145.422 113.250 C 143.821 110.796, 140.585 110.265, 139.323 112.250 C 138.886 112.938, 138.522 119.800, 138.514 127.500 C 138.500 141.617, 137.169 149.089, 133.412 156.154 C 132.635 157.614, 131.990 159.864, 131.978 161.154 C 131.966 162.444, 131.076 164.625, 130 166 C 128.924 167.375, 128.034 169.107, 128.022 169.848 C 127.979 172.442, 119.893 188, 118.587 188 C 117.863 188, 116.197 187.162, 114.885 186.137 C 113.573 185.113, 110.700 183.348, 108.500 182.215 C 106.300 181.082, 103.600 179.439, 102.500 178.565 C 95.137 172.714, 88.637 168, 87.931 168 C 87.476 168, 85.889 166.875, 84.405 165.500 C 82.922 164.125, 80.929 163, 79.976 163 C 79.024 163, 77.807 162.438, 77.271 161.750 C 75.810 159.874, 74 149.433, 74 142.880 L 74 137.094 81.250 130.885 C 85.237 127.470, 89.491 123.624, 90.702 122.338 C 92.057 120.899, 94.055 120, 95.896 120 C 100.667 120, 103.980 113.380, 100.800 110.200 C 98.748 108.148, 95.709 108.865, 89.966 112.753" stroke="none" fill="black" fill-rule="evenodd"/>
</svg>