<svg xmlns="http://www.w3.org/2000/svg" width="300" height="300" viewBox="0 0 300 300" version="1.1">
	<path d="M 146.200 12.200 C 145.540 12.860, 145 15.957, 145 19.081 C 145 24.416, 144.783 24.928, 141.444 27.475 C 138.506 29.716, 137.941 30.731, 138.194 33.313 C 138.491 36.345, 140.343 37.946, 145.250 39.414 C 146.637 39.829, 147 41.061, 147 45.352 L 147 50.766 141.719 53.266 C 134.436 56.715, 133.603 57.897, 135.615 61.930 C 136.937 64.581, 137.655 65.056, 139.613 64.580 C 140.926 64.261, 143.121 63.727, 144.491 63.394 C 146.258 62.964, 147.162 63.258, 147.603 64.407 C 148.554 66.885, 146.134 69, 142.346 69 C 138.335 69, 137.340 70.701, 138.654 75.306 C 139.443 78.070, 140.100 78.567, 143.533 79 L 147.500 79.500 147.548 89.881 C 147.603 101.922, 147.677 101.796, 138.112 106.127 C 134.475 107.774, 130.825 109.477, 130 109.912 C 129.175 110.347, 128.362 112.317, 128.193 114.291 C 127.614 121.067, 134.697 122.530, 141.640 117.068 C 143.087 115.931, 145.109 115, 146.135 115 C 147.743 115, 148 115.808, 148 120.878 C 148 127.543, 147.425 128.293, 141 130.001 C 138.525 130.659, 133.688 132.550, 130.250 134.203 C 124.469 136.984, 124 137.454, 124 140.482 C 124 142.282, 124.677 144.317, 125.505 145.004 C 127.562 146.711, 133.745 145.611, 139.605 142.495 C 142.186 141.123, 145.173 140, 146.243 140 C 147.985 140, 148.122 140.496, 147.558 144.750 C 147.212 147.363, 146.861 153.213, 146.777 157.750 C 146.693 162.287, 146.282 166, 145.863 166 C 145.079 166, 137.440 161.196, 133 157.911 C 131.625 156.893, 126.962 153.928, 122.639 151.322 C 118.315 148.716, 114.570 146.043, 114.316 145.382 C 114.063 144.721, 114.501 142.902, 115.290 141.340 C 116.079 139.778, 116.970 136.581, 117.269 134.235 C 117.569 131.889, 118.716 128.239, 119.818 126.124 C 120.921 124.009, 122.374 118.953, 123.048 114.889 C 124.095 108.577, 124.050 106.973, 122.742 103.881 C 121.503 100.950, 120.526 100.134, 117.606 99.586 C 113.006 98.723, 112.891 96.524, 117.089 89.701 C 118.787 86.941, 120.423 83.167, 120.723 81.317 C 121.024 79.466, 121.659 77.711, 122.135 77.417 C 122.611 77.123, 123 74.962, 123 72.615 C 123 69.347, 122.410 67.794, 120.478 65.979 C 118.033 63.683, 117.762 63.649, 111.728 64.893 C 104.855 66.310, 103 67.389, 103 69.967 C 103 72.044, 106.058 75, 108.206 75 C 111.357 75, 112.265 77.611, 110.313 81.059 C 107.146 86.653, 106.615 87.439, 100.750 95.221 C 96.026 101.490, 95 103.550, 95 106.770 C 95 109.449, 95.648 111.276, 97.045 112.540 C 98.859 114.182, 99.593 114.256, 103.559 113.195 C 106.017 112.538, 109.153 112, 110.526 112 C 112.891 112, 112.992 112.226, 112.429 116.250 C 111.801 120.734, 109.360 129.311, 107.879 132.236 C 107.396 133.191, 107 135.343, 107 137.018 C 107 140.464, 104.654 141.977, 102.114 140.170 C 91.501 132.617, 81 132.560, 81 140.054 C 81 141.709, 81.563 143.210, 82.250 143.390 C 86.440 144.488, 92.127 146.505, 96.250 148.356 C 102.112 150.988, 102.238 152.340, 97.473 161.482 C 92.861 170.330, 90.307 173.423, 85.761 175.660 C 83.705 176.672, 82.018 178.011, 82.011 178.635 C 81.994 180.353, 86.586 183, 89.582 183 C 92.162 183, 93.260 182.061, 102.500 171.940 C 104.150 170.133, 106.400 166.144, 107.501 163.077 C 109.794 156.683, 112.114 155.613, 116.704 158.835 C 120.632 161.592, 132.643 169.135, 138.001 172.210 C 146.069 176.839, 146.095 176.907, 145.779 192.599 L 145.500 206.476 142.500 207.919 C 135.486 211.294, 91.462 211.903, 84 208.729 C 82.075 207.910, 78.700 206.667, 76.500 205.967 C 71.784 204.465, 65 200.176, 65 198.696 C 65 198.125, 64.395 196.947, 63.655 196.079 C 58.691 190.252, 55.784 169.198, 57.283 149.926 C 57.646 145.254, 65.738 136.008, 79.194 124.889 C 88.648 117.077, 89.065 116.568, 88.432 113.604 C 87.668 110.029, 86.270 108, 84.568 108 C 83.916 108, 78.386 112.725, 72.281 118.500 C 66.175 124.275, 60.689 129, 60.090 129 C 58.556 129, 58.733 124.830, 60.367 122.473 C 61.119 121.388, 62.504 117.800, 63.445 114.500 C 64.581 110.518, 66.400 107.154, 68.853 104.500 C 70.886 102.300, 73.593 98.999, 74.869 97.164 L 77.187 93.828 74.919 91.414 C 71.823 88.118, 68.614 88.329, 66 92 C 64.825 93.650, 62.994 95, 61.932 95 C 60.355 95, 60 94.288, 60 91.122 C 60 86.816, 57.829 84.082, 55.750 85.770 C 55.063 86.328, 53.600 86.957, 52.500 87.167 C 50.668 87.516, 50.500 88.342, 50.500 97.006 L 50.500 106.464 46.761 108.482 C 42.030 111.036, 39.374 109.784, 39.745 105.176 C 39.929 102.890, 39.495 101.975, 38.004 101.501 C 36.912 101.155, 35.507 101.186, 34.883 101.572 C 33.390 102.495, 34.306 111.403, 36.411 116.442 L 38.006 120.258 44.031 119.576 L 50.056 118.894 49.447 127.197 C 49.113 131.764, 48.370 136.740, 47.796 138.256 C 46.599 141.417, 38.877 147.406, 31.725 150.719 C 29.036 151.965, 25.687 153.888, 24.283 154.992 C 22.727 156.216, 20.221 157, 17.865 157 C 14.409 157, 14 156.735, 14 154.500 C 14 151.145, 11.246 151.224, 9.956 154.616 C 9.165 156.697, 9.429 158.178, 11.250 161.866 C 13.477 166.376, 13.659 166.498, 18.019 166.417 C 20.484 166.371, 24.525 165.387, 27 164.230 C 29.475 163.074, 33.188 161.447, 35.250 160.615 C 37.313 159.783, 39 158.641, 39 158.077 C 39 156.932, 44.181 153.999, 46.200 154.001 C 47.205 154.002, 47.518 157.400, 47.581 168.975 C 47.657 182.884, 48.556 189.347, 51.097 194.236 C 51.594 195.191, 52.003 196.541, 52.006 197.236 C 52.018 199.442, 59.955 207.865, 65.324 211.370 C 71.540 215.426, 87.586 219.654, 99.500 220.375 C 103.900 220.641, 113.350 220.421, 120.500 219.887 C 127.650 219.353, 136.200 218.822, 139.500 218.708 L 145.500 218.500 145.506 236.500 C 145.509 246.400, 145.891 255.090, 146.353 255.812 C 146.816 256.533, 148.305 257.546, 149.663 258.062 C 153.032 259.343, 156 257.628, 156 254.399 C 156 253.007, 156.492 250.950, 157.093 249.827 C 157.883 248.350, 157.883 247.483, 157.093 246.693 C 155.461 245.061, 155.607 217.066, 157.250 216.527 C 157.938 216.301, 165.925 215.872, 175 215.572 C 188.764 215.118, 192.207 215.297, 195.765 216.655 C 199.776 218.186, 200.148 218.176, 202.015 216.487 C 203.107 215.498, 204 213.807, 204 212.727 C 204 211.647, 205.309 209.274, 206.908 207.452 C 209.350 204.670, 209.929 202.938, 210.519 196.641 C 211.233 189.018, 210.373 183.095, 207.243 174.087 C 206.400 171.660, 205.547 167.385, 205.347 164.587 C 204.445 151.958, 200.649 140.708, 195.814 136.331 C 194.076 134.759, 193.817 134.755, 192.300 136.271 C 190.784 137.787, 190.853 138.558, 193.232 146.704 C 194.645 151.542, 196.020 157.349, 196.287 159.608 C 196.553 161.868, 197.539 165.333, 198.476 167.308 C 199.459 169.381, 199.840 171.449, 199.376 172.200 C 198.933 172.915, 198.437 179.343, 198.273 186.485 C 198.011 197.886, 197.731 199.713, 195.981 201.463 C 193.610 203.834, 192.507 203.321, 183.878 195.833 C 172.958 186.358, 157.591 174, 156.728 174 C 155.653 174, 156.155 142.022, 157.241 141.351 C 157.658 141.093, 158 140.062, 158 139.060 C 158 137.221, 163.909 132, 165.989 132 C 167.507 132, 184.120 124.903, 186 123.451 C 188.136 121.802, 194.094 119, 195.466 119 C 196.104 119, 198.958 117.875, 201.808 116.500 C 204.658 115.125, 208.489 114, 210.321 114 C 213.982 114, 218 110.645, 218 107.587 C 218 105.757, 212.555 100, 210.824 100 C 210.294 100, 207.979 101.263, 205.680 102.807 C 203.381 104.351, 198.575 106.877, 195 108.420 C 191.425 109.963, 184.849 112.974, 180.387 115.112 C 175.925 117.251, 171.940 119, 171.532 119 C 171.124 119, 168.583 120.109, 165.884 121.464 C 163.186 122.820, 160.308 123.672, 159.489 123.357 C 156.149 122.076, 158.806 108, 162.388 108 C 163.123 108, 165.425 106.649, 167.502 104.998 C 169.580 103.347, 172.906 101.509, 174.894 100.914 C 176.882 100.318, 180.279 98.628, 182.442 97.159 C 189.070 92.658, 189.598 83.941, 183.339 82.370 C 181.050 81.796, 180.119 82.244, 177.555 85.151 C 174.068 89.108, 160.311 97.333, 158.405 96.602 C 157.482 96.248, 157.191 93.425, 157.331 86.197 C 157.533 75.793, 158.316 73.640, 162.340 72.426 C 165.682 71.418, 175.069 64.985, 175.736 63.246 C 176.064 62.391, 175.340 59.819, 174.126 57.532 C 172.760 54.956, 172.180 52.636, 172.603 51.436 C 173.496 48.906, 180.069 42, 181.584 42 C 182.852 42, 188 35.742, 188 34.202 C 188 33.689, 187.067 32.084, 185.927 30.635 C 183.806 27.938, 178.761 26.960, 177.500 29 C 177.160 29.550, 175.819 30, 174.520 30 C 172.717 30, 172.005 29.301, 171.509 27.042 C 170.510 22.491, 164.776 18, 159.965 18 C 157.784 18, 156 17.530, 156 16.955 C 156 15.216, 151.218 11, 149.245 11 C 148.230 11, 146.860 11.540, 146.200 12.200 M 157.782 33.750 C 155.837 35.977, 154.750 42.052, 155.955 43.960 C 156.751 45.220, 157.137 45.186, 158.768 43.710 C 159.807 42.770, 161.169 42, 161.794 42 C 163.677 42, 165.175 38.074, 164.487 34.941 C 163.732 31.501, 160.281 30.888, 157.782 33.750 M 64.492 60.853 C 62.287 61.759, 58.687 63.449, 56.492 64.608 C 54.296 65.768, 51.283 67.009, 49.795 67.366 C 46.584 68.137, 41.531 74.336, 42.358 76.490 C 43.270 78.868, 49.548 78.306, 59 75 C 63.675 73.365, 68.884 72.021, 70.576 72.013 C 77.331 71.984, 80.663 63.428, 75.050 60.526 C 71.457 58.668, 69.674 58.723, 64.492 60.853 M 156.211 196.750 L 156.500 205.500 162 205.822 C 168.820 206.222, 178 205.158, 178 203.968 C 178 201.675, 160.864 188, 157.990 188 C 156.035 188, 155.938 188.477, 156.211 196.750" stroke="none" fill="black" fill-rule="evenodd"/>
</svg>