<svg xmlns="http://www.w3.org/2000/svg" width="300" height="300" viewBox="0 0 300 300" version="1.1">
	<path d="M 155.500 17.703 C 153.850 17.924, 150.700 18.918, 148.500 19.911 C 146.300 20.904, 140.450 22.722, 135.500 23.952 C 130.550 25.182, 121.775 27.737, 116 29.630 C 103.147 33.843, 101.435 34.334, 92 36.518 C 87.875 37.473, 80.450 39.474, 75.500 40.965 C 68.129 43.184, 66.266 44.153, 65.205 46.318 C 64.218 48.332, 64.179 49.467, 65.044 51.081 C 66.254 53.344, 67.482 53.334, 75.500 51 C 85.526 48.081, 87.241 48.702, 84.384 54.221 C 83.050 56.797, 82.625 60.767, 82.404 72.739 C 82.073 90.593, 78.765 111.059, 74.522 121.500 C 73.851 123.150, 72.712 127.200, 71.990 130.500 C 71.268 133.800, 70.300 136.928, 69.839 137.450 C 69.378 137.973, 69 139.478, 69 140.796 C 69 142.113, 68.363 144.386, 67.585 145.846 C 66.806 147.306, 64.065 153.900, 61.493 160.500 C 56.409 173.545, 55.321 176.201, 52.272 183 C 51.162 185.475, 49.669 189.525, 48.953 192 C 48.237 194.475, 47.081 197.625, 46.385 199 C 45.688 200.375, 44.352 203.948, 43.415 206.940 C 41.056 214.479, 35.319 226.865, 32.419 230.683 C 31.088 232.434, 30 234.424, 30 235.105 C 30 235.785, 29.312 237.103, 28.472 238.031 C 27.309 239.316, 27.178 240.339, 27.926 242.306 C 28.894 244.852, 28.960 244.867, 32.205 243.303 C 37.099 240.943, 39.815 238.126, 40.572 234.624 C 40.944 232.906, 42.102 230.292, 43.145 228.816 C 44.189 227.340, 45.703 224.260, 46.510 221.972 C 47.317 219.684, 49.074 215.716, 50.413 213.156 C 51.753 210.595, 53.371 206.700, 54.011 204.500 C 55.236 200.281, 57.455 194.671, 59.048 191.764 C 59.572 190.809, 60 189.148, 60 188.073 C 60 186.998, 60.450 185.840, 61 185.500 C 61.550 185.160, 62.005 183.896, 62.012 182.691 C 62.019 181.486, 63.144 178.542, 64.512 176.148 C 65.880 173.754, 67 171.329, 67 170.757 C 67 170.186, 67.851 167.870, 68.892 165.610 C 75.635 150.964, 79.054 141.760, 82.489 129 C 85.373 118.285, 87.201 112.549, 88.016 111.657 C 88.439 111.194, 89.709 111.309, 90.839 111.914 C 92.513 112.810, 93.575 112.550, 96.586 110.506 C 98.617 109.128, 100.714 108, 101.245 108 C 101.776 108, 104.248 106.625, 106.738 104.944 C 113.595 100.317, 114 100.904, 114 115.469 C 114 122.361, 113.662 127.990, 113.250 127.978 C 112.838 127.966, 111.375 127.076, 110 126 C 108.625 124.924, 106.743 124.034, 105.818 124.022 C 104.305 124.002, 100 128.791, 100 130.494 C 100 130.871, 99.078 131.927, 97.951 132.840 C 95.462 134.856, 93.765 141.365, 95.323 142.923 C 97.560 145.160, 102.699 144.146, 105.401 140.935 C 108.331 137.453, 109.600 137.798, 111.615 142.622 C 112.832 145.534, 113.503 146, 116.478 146 C 120.380 146, 122 143.987, 122 139.142 C 122 137.498, 122.526 133.876, 123.168 131.093 C 124.025 127.379, 124.043 125.390, 123.235 123.617 C 120.672 117.991, 125.310 114.492, 128.625 119.551 C 129.545 120.954, 131.580 122.766, 133.148 123.577 C 134.717 124.388, 136 125.616, 136 126.307 C 136 126.998, 133.750 129.922, 131 132.805 C 127.797 136.163, 126 138.924, 126 140.488 C 126 142.962, 128.474 145, 131.477 145 C 133.559 145, 142.729 136.430, 143.606 133.665 C 143.977 132.496, 145.568 130.338, 147.140 128.869 C 148.848 127.274, 150 125.165, 150 123.634 C 150 120.869, 152.831 118.660, 154.809 119.882 C 155.722 120.446, 155.749 121.808, 154.921 125.562 C 154.323 128.278, 153.691 131.975, 153.518 133.778 C 153.345 135.581, 152.921 138.177, 152.577 139.548 C 151.793 142.673, 153.496 146, 155.880 146 C 158.807 146, 160.712 142.880, 161.375 137 C 161.716 133.975, 162.287 128.800, 162.645 125.500 C 163.002 122.200, 163.761 119.197, 164.332 118.827 C 164.903 118.457, 167.521 119.244, 170.152 120.577 C 172.782 121.910, 175.965 123, 177.226 123 C 178.487 123, 180.081 123.900, 180.768 125 C 181.455 126.100, 182.902 127, 183.983 127 C 185.154 127, 186.573 128.208, 187.493 129.986 C 190.747 136.280, 199 133.752, 199 126.461 C 199 122.570, 195.619 118, 192.742 118 C 191.580 118, 189.700 117.143, 188.564 116.096 C 185.482 113.253, 179.689 112.059, 172.079 112.697 C 166.938 113.128, 165.077 112.934, 164.440 111.903 C 163.977 111.153, 163.449 104.681, 163.268 97.520 L 162.939 84.500 170.519 78.187 C 179.051 71.083, 180.834 68.279, 179.409 64.210 C 177.880 59.845, 175.072 60.343, 169.536 65.963 C 162.127 73.486, 160 72.703, 160 62.453 C 160 57.879, 160.338 56.897, 162.250 55.918 C 165.095 54.461, 167.949 50.977, 167.978 48.924 C 168.004 47.055, 163.939 43, 162.039 43 C 161.306 43, 158.362 44.557, 155.495 46.460 C 147.262 51.924, 144.788 57.337, 149.133 60.381 C 150.637 61.434, 151.095 62.527, 150.687 64.087 C 150.369 65.305, 150.540 68.577, 151.068 71.359 C 151.926 75.881, 151.807 76.634, 149.949 78.459 L 147.871 80.500 145.648 77.750 C 144.425 76.237, 142.976 75, 142.428 75 C 139.023 75, 135.730 89.881, 138.344 93.456 C 139.708 95.321, 139.941 95.335, 143.635 93.761 C 150.063 91.024, 152.172 90.664, 153.110 92.143 C 155.398 95.755, 152.625 103.088, 146.340 110.045 C 142.533 114.260, 140.153 114.850, 135.907 112.635 C 134.481 111.890, 131.557 110.952, 129.409 110.549 C 127.262 110.146, 125.173 109.295, 124.768 108.658 C 123.439 106.571, 123.902 93.770, 125.367 92.079 C 126.119 91.210, 127.016 88.640, 127.360 86.367 C 128.101 81.478, 126.430 79.424, 122.513 80.407 C 120.022 81.033, 120 80.981, 120 74.542 C 120 68.867, 120.291 67.856, 122.300 66.539 C 123.565 65.710, 125.635 63.633, 126.899 61.923 L 129.197 58.815 126.411 55.907 C 124.879 54.308, 122.705 53, 121.579 53 C 120.345 53, 117.081 55.625, 113.361 59.610 C 109.968 63.246, 106.155 66.737, 104.889 67.368 C 103.379 68.121, 102.309 69.851, 101.781 72.391 C 100.762 77.295, 102.248 79.400, 106.174 78.615 C 108.260 78.198, 109.217 78.537, 109.980 79.963 C 111.117 82.088, 111.313 86.020, 110.401 88.398 C 109.471 90.821, 98.183 98.096, 94.401 98.710 L 91.015 99.259 91.395 87.880 C 91.920 72.171, 92.736 58.538, 93.546 51.951 L 94.228 46.402 99.864 45.133 C 102.964 44.435, 110.225 42.261, 116 40.302 C 121.775 38.343, 128.075 36.391, 130 35.964 C 131.925 35.537, 138.789 33.345, 145.253 31.094 C 151.716 28.842, 158.479 27, 160.280 27 C 164.447 27, 168 24.535, 168 21.643 C 168 17.314, 165.130 16.409, 155.500 17.703 M 135.113 154.363 C 133.398 156.431, 133.065 166.088, 134.605 169.139 C 136.360 172.617, 137.414 196.563, 136.182 205 C 135.095 212.452, 135.932 215, 139.467 215 C 144.111 215, 145.813 210.718, 146.175 198.127 L 146.500 186.853 149.349 187.421 C 152.516 188.053, 154.400 186.866, 162.318 179.251 C 164.967 176.702, 168.117 174.130, 169.318 173.535 C 173.359 171.532, 172.269 163, 167.971 163 C 164.955 163, 150.516 176.216, 149.422 179.978 C 148.915 181.723, 148.050 183.125, 147.500 183.094 C 146.571 183.041, 145.788 177.792, 144.391 162.247 C 143.954 157.388, 143.353 155.660, 141.692 154.497 C 139.032 152.634, 136.590 152.584, 135.113 154.363 M 99 179.983 C 96.670 181.461, 96.978 196.213, 99.395 198.884 C 101.099 200.767, 105 213.416, 105 217.060 C 105 221.080, 98.996 222.590, 73.530 224.978 C 63.769 225.893, 62.171 226.320, 59.030 228.855 C 54.884 232.202, 54.171 234.940, 56.822 237.339 C 58.588 238.937, 59.077 238.950, 63.295 237.518 C 65.805 236.666, 71.152 235.546, 75.179 235.028 C 79.206 234.511, 85.650 233.577, 89.500 232.953 C 93.350 232.329, 101.477 231.488, 107.561 231.085 C 113.644 230.682, 119.061 230.080, 119.598 229.748 C 121.980 228.276, 155.083 227.029, 197.038 226.831 L 242.576 226.616 247.449 228.975 L 252.322 231.334 254.656 228.417 C 257.367 225.029, 257.662 221.794, 255.428 219.940 C 251.467 216.653, 214.121 216.137, 128.038 218.180 L 114.576 218.500 114.437 214 C 114.274 208.751, 112.589 202.148, 109.971 196.500 C 108.951 194.300, 107.821 190.126, 107.461 187.224 C 106.560 179.976, 103.346 177.225, 99 179.983" stroke="none" fill="black" fill-rule="evenodd"/>
</svg>