<svg xmlns="http://www.w3.org/2000/svg" width="300" height="300" viewBox="0 0 300 300" version="1.1">
	<path d="M 144.500 81.288 C 137.983 85.507, 131 92.577, 131 94.957 C 131 98.111, 129.877 100, 128 100 C 125.796 100, 125.298 98.754, 124.429 91.077 C 123.813 85.633, 123.437 84.866, 120.718 83.509 C 116.383 81.347, 115.257 81.603, 113.411 85.171 C 111.920 88.056, 111.912 88.581, 113.330 90.981 C 115.322 94.354, 118.653 106.884, 119.449 114 C 121.610 133.324, 122.189 166.324, 120.805 191.290 C 119.563 213.675, 119.602 213.920, 124.618 215.418 C 127.511 216.283, 129.267 211.889, 128.831 204.879 C 128.556 200.459, 128.795 199.504, 130.250 199.208 C 131.316 198.992, 132 199.458, 132 200.401 C 132 203.424, 137.779 205.297, 144.931 204.590 C 151.634 203.928, 160.511 201.518, 162.737 199.756 C 165.060 197.917, 167 199.744, 167 203.769 C 167 210.732, 170.569 211.970, 174.151 206.250 C 176.446 202.587, 176.500 201.946, 176.513 178.500 C 176.525 156.639, 175.102 124.881, 173.489 111 C 172.756 104.690, 170.500 95.955, 168.405 91.314 C 165.982 85.945, 155.357 77.934, 150.782 78.026 C 150.077 78.040, 147.250 79.508, 144.500 81.288 M 68.202 90.058 C 66.190 90.857, 65.983 91.440, 66.539 94.736 C 66.937 97.097, 68.259 99.459, 70.087 101.073 C 72.153 102.898, 73 104.569, 73 106.823 C 73 109.551, 73.356 110, 75.516 110 C 79.391 110, 81.743 104.422, 80.133 99.049 C 77.985 91.881, 73.024 88.143, 68.202 90.058 M 145.648 93.258 C 143.529 95.041, 139.744 98.638, 137.237 101.250 C 134.372 104.235, 131.818 106, 130.364 106 C 128.403 106, 128.115 106.419, 128.477 108.750 C 130.189 119.770, 130.891 138.549, 129.726 142.158 C 129.167 143.891, 129.353 146.504, 130.261 149.658 C 131.431 153.723, 131.456 157.387, 130.419 172.494 C 129.739 182.391, 129.385 190.813, 129.631 191.211 C 129.876 191.609, 131.422 191.666, 133.066 191.337 C 135.147 190.921, 136.635 191.265, 137.967 192.470 C 141.269 195.458, 149.980 193.916, 161.786 188.253 L 167.072 185.717 166.934 165.183 C 166.855 153.283, 166.355 143.679, 165.747 142.343 C 164.157 138.854, 161.463 138.542, 156.719 141.295 C 154.399 142.642, 151.375 144.072, 150 144.472 C 148.625 144.873, 145.849 146.316, 143.831 147.680 C 141.789 149.060, 139.128 150.014, 137.831 149.830 C 135.857 149.549, 135.541 148.989, 135.765 146.168 C 135.911 144.336, 136.788 141.831, 137.715 140.602 C 139.690 137.985, 157.521 128.935, 160.628 128.974 C 164.436 129.021, 165.347 126.633, 164.653 118.424 C 164.303 114.286, 163.563 110.052, 163.009 109.016 C 162.454 107.980, 162 105.553, 162 103.625 C 162 101.696, 161.550 99.840, 161 99.500 C 160.450 99.160, 160 98.121, 160 97.191 C 160 95.125, 153.792 89.997, 151.303 90.008 C 150.312 90.012, 147.767 91.475, 145.648 93.258 M 35.180 148.084 C 32.987 151.595, 34.606 155.806, 38.834 157.590 C 42.726 159.231, 44.422 159.130, 55.500 156.599 C 59.349 155.720, 64.187 155, 66.250 155 C 69.574 155, 70 154.719, 70 152.523 C 70 148.849, 66.054 146.647, 60.763 147.370 C 47.284 149.212, 43.056 149.267, 40.562 147.632 C 37.342 145.523, 36.748 145.573, 35.180 148.084 M 85.783 163.750 C 84.944 164.713, 83.683 166.625, 82.982 168 C 80.768 172.339, 64.655 195, 63.784 195 C 63.325 195, 62.509 193.838, 61.969 192.419 C 60.949 189.735, 59.150 189.575, 57.943 192.060 C 56.388 195.262, 55 200.825, 55 203.852 C 55 214.026, 71.167 203.802, 79 188.677 C 88.400 170.523, 89.873 167.300, 89.934 164.750 C 90.010 161.578, 88.083 161.114, 85.783 163.750" stroke="none" fill="black" fill-rule="evenodd"/>
</svg>