<svg xmlns="http://www.w3.org/2000/svg" width="300" height="300" viewBox="0 0 300 300" version="1.1">
	<path d="M 151.578 48.750 C 149.376 50.938, 148 57.008, 148 64.533 C 148 72.538, 147.896 72.910, 144.963 75.378 C 143.293 76.783, 139.018 79.321, 135.463 81.018 C 129.426 83.899, 129 84.321, 129 87.429 C 129 93.496, 133.037 94.337, 143.195 90.383 C 145.776 89.378, 148.093 88.768, 148.343 89.028 C 148.815 89.520, 147.429 114.433, 146.397 124 C 146.070 127.025, 145.134 130.253, 144.315 131.174 C 143.497 132.095, 139.829 134.094, 136.164 135.616 C 132.499 137.138, 128.375 139.100, 127 139.975 C 125.625 140.850, 122.783 142.345, 120.685 143.298 C 117.487 144.750, 116.921 145.455, 117.185 147.664 C 117.793 152.750, 119.890 152.749, 132.153 147.656 C 138.394 145.065, 145.300 142.089, 147.500 141.043 C 149.700 139.997, 154.200 138.055, 157.500 136.727 C 184.160 125.997, 189.317 122.832, 188.796 117.519 C 188.382 113.297, 185.002 113.138, 176.765 116.951 C 173.141 118.628, 169.865 120, 169.483 120 C 169.102 120, 166.513 121.144, 163.730 122.542 C 156.647 126.099, 155.496 125.653, 155.873 119.493 C 156.040 116.747, 156.541 114.050, 156.986 113.500 C 158.041 112.195, 158.884 104.405, 159.616 89.193 L 160.209 76.886 165.164 71.931 C 169.571 67.524, 170.085 66.563, 169.810 63.246 C 169.423 58.585, 167.165 57.926, 163.645 61.446 C 159.351 65.739, 158 64.899, 158 57.934 C 158 54.598, 157.534 50.998, 156.965 49.934 C 155.926 47.993, 152.990 47.348, 151.578 48.750 M 70.146 87.254 C 69.516 87.884, 69 89.102, 69 89.960 C 69 92.165, 73.729 97, 75.885 97 C 78.442 97, 81 100.181, 81 103.360 C 81 107.049, 83.543 107.778, 86.551 104.952 C 89.850 101.853, 89.644 98.237, 85.910 93.707 C 81.326 88.146, 72.760 84.640, 70.146 87.254 M 147.200 144.200 C 146.540 144.860, 146 146.408, 146 147.641 C 146 148.874, 145.550 150.160, 145 150.500 C 144.450 150.840, 144 152.876, 144 155.025 C 144 158.479, 142.693 162.669, 139.878 168.236 C 139.395 169.191, 138.986 170.766, 138.969 171.736 C 138.952 172.706, 137.831 175.750, 136.478 178.500 C 135.125 181.250, 134.014 184.069, 134.009 184.764 C 134.004 185.459, 133.550 186.921, 133 188.014 C 132.450 189.106, 131.550 190.894, 131 191.986 C 130.450 193.079, 130 194.824, 130 195.864 C 130 196.904, 129.325 198.315, 128.500 199 C 127.675 199.685, 127 201.288, 127 202.563 C 127 203.839, 126.550 205.160, 126 205.500 C 125.450 205.840, 125 208.776, 125 212.024 C 125 216.943, 125.340 218.112, 127.038 219.020 C 129.885 220.544, 137.456 219.259, 143.500 216.226 C 153.144 211.389, 169.922 195.602, 175.807 185.830 C 177.075 183.724, 178.732 182, 179.489 182 C 181.046 182, 183.800 185.609, 186.737 191.500 C 187.834 193.700, 189.978 197.750, 191.502 200.500 C 193.026 203.250, 195.374 207.750, 196.720 210.500 C 198.066 213.250, 200.255 217.679, 201.584 220.342 C 202.913 223.006, 204 225.746, 204 226.433 C 204 227.119, 205.296 230.340, 206.879 233.590 C 208.463 236.841, 210.766 241.750, 211.998 244.500 C 213.230 247.250, 214.635 250.281, 215.119 251.236 C 215.604 252.191, 216 254.104, 216 255.486 C 216 256.869, 216.398 258, 216.885 258 C 217.372 258, 218.500 260.233, 219.393 262.962 C 220.285 265.691, 222.137 270.033, 223.508 272.611 C 224.879 275.189, 226 278.104, 226 279.090 C 226 280.076, 226.391 281.123, 226.868 281.419 C 227.346 281.714, 228.048 284.328, 228.428 287.228 C 229.722 297.095, 235.971 303.176, 239.332 297.838 C 240.074 296.660, 240.010 294.915, 239.110 291.838 C 234.949 277.602, 233.493 273.333, 232.316 271.921 C 231.592 271.053, 230.986 269.703, 230.968 268.921 C 230.951 268.140, 230.276 266.626, 229.468 265.559 C 228.661 264.491, 228 262.669, 228 261.509 C 228 260.349, 227.628 258.973, 227.174 258.450 C 226.720 257.928, 225.748 255.475, 225.016 253 C 224.283 250.525, 223.153 247.600, 222.504 246.500 C 221.854 245.400, 220.514 242.363, 219.526 239.750 C 218.537 237.137, 217.339 235, 216.864 235 C 216.389 235, 215.993 234.213, 215.985 233.250 C 215.964 230.769, 213.555 224.155, 212.168 222.768 C 211.526 222.126, 211 221.051, 211 220.380 C 211 219.708, 209.489 216.086, 207.643 212.330 C 205.796 208.573, 202.123 201, 199.481 195.500 C 196.838 190, 193.624 183.821, 192.338 181.770 C 191.052 179.718, 190 177.411, 190 176.642 C 190 175.874, 189.325 174.685, 188.500 174 C 187.675 173.315, 187 171.980, 187 171.033 C 187 168.530, 183.534 165.786, 180.858 166.170 C 179.224 166.404, 176.841 169.091, 172.681 175.388 C 163.391 189.453, 142.798 209, 137.272 209 C 135.163 209, 136.266 202.428, 139.533 195.522 C 140.890 192.654, 142 189.557, 142 188.640 C 142 187.025, 142.395 186, 144.844 181.264 C 145.480 180.034, 146 177.923, 146 176.573 C 146 175.223, 146.422 173.858, 146.937 173.539 C 148.658 172.475, 151 166.729, 151 163.569 C 151 161.851, 151.627 159.550, 152.392 158.457 C 153.971 156.204, 154.879 146.148, 153.675 144.250 C 152.667 142.660, 148.770 142.630, 147.200 144.200 M 53.750 145.579 C 52.726 146.609, 52.831 151.185, 53.919 152.903 C 54.453 153.746, 58.340 154.812, 63.654 155.573 C 68.519 156.270, 73.732 157.152, 75.238 157.534 C 80.632 158.902, 79.794 152.032, 74.172 148.805 C 72.702 147.961, 69.250 146.997, 66.500 146.663 C 63.750 146.329, 59.925 145.778, 58 145.440 C 56.075 145.101, 54.163 145.164, 53.750 145.579 M 92.249 180.250 C 91.702 180.938, 90.683 183.300, 89.986 185.500 C 88.215 191.086, 88.125 191.318, 87.087 193 C 86.578 193.825, 85.184 196.750, 83.989 199.500 C 79.518 209.790, 72.892 219, 69.962 219 C 68.853 219, 67.683 220.633, 66.558 223.750 C 65.616 226.363, 64.364 229.492, 63.778 230.705 C 62.950 232.414, 63.085 233.481, 64.378 235.455 C 65.296 236.855, 66.475 238, 66.999 238 C 68.659 238, 80.081 225.720, 82.797 221.016 C 84.231 218.532, 85.674 216.275, 86.004 216 C 86.334 215.725, 87.413 213.700, 88.401 211.500 C 89.389 209.300, 91.097 205.579, 92.197 203.232 C 93.296 200.884, 94.389 196.834, 94.624 194.232 C 94.860 191.629, 95.309 187.137, 95.623 184.250 C 96.081 180.033, 95.903 179, 94.719 179 C 93.908 179, 92.797 179.563, 92.249 180.250" stroke="none" fill="black" fill-rule="evenodd"/>
</svg>