<svg xmlns="http://www.w3.org/2000/svg" width="300" height="300" viewBox="0 0 300 300" version="1.1">
	<path d="M 132.781 47.300 C 127.436 50.160, 121.819 53.442, 120.299 54.594 C 117.792 56.495, 117.649 56.933, 118.747 59.344 C 119.668 61.366, 120.679 62, 122.979 62 C 124.640 62, 126 61.649, 126 61.219 C 126 60.790, 127.237 59.908, 128.750 59.260 C 135.185 56.502, 141.545 54.002, 142.127 54.001 C 142.472 54, 142.527 56.138, 142.249 58.750 C 141.913 61.901, 140.188 66.218, 137.121 71.577 C 134.580 76.020, 130.925 82.666, 129 86.346 C 125.364 93.298, 122.710 94.733, 122.269 89.986 C 121.760 84.513, 120.732 79.953, 119.890 79.432 C 119.400 79.129, 119 77.424, 119 75.641 C 119 71.815, 117.480 70, 114.275 70 C 112.688 70, 111.635 70.830, 110.956 72.615 C 109.860 75.498, 110.705 84.790, 112.239 86.731 C 113.164 87.900, 113.477 90.894, 114.620 109.500 C 115.185 118.702, 113.437 160.709, 111.874 175.500 C 111.293 181, 110.183 188.040, 109.408 191.144 C 108.634 194.249, 108 198.996, 108 201.694 C 108 204.392, 107.532 207.068, 106.960 207.640 C 106.345 208.255, 106.039 212.477, 106.210 217.984 C 106.568 229.458, 107.165 230.062, 115.589 227.465 C 118.840 226.462, 122.850 224.585, 124.500 223.294 C 126.150 222.002, 129.959 219.031, 132.964 216.692 C 136.502 213.937, 139.415 210.549, 141.229 207.076 C 143.706 202.335, 143.981 200.905, 143.602 194.744 C 143.102 186.603, 141.972 184.810, 139.024 187.479 C 137.911 188.486, 137 189.951, 137 190.734 C 137 191.517, 135.370 195.223, 133.377 198.969 C 127.318 210.360, 113.787 221.625, 114.769 214.462 C 115.193 211.367, 117.933 192.602, 119.802 180 L 121.507 168.500 125.172 168 C 129.719 167.380, 138.966 159.120, 142.334 152.672 C 144.273 148.959, 151.296 141.909, 152.750 142.214 C 154.024 142.481, 158.985 153.138, 158.995 155.628 C 158.998 156.248, 159.675 157.315, 160.500 158 C 161.325 158.685, 162 159.932, 162 160.773 C 162 162.602, 166.884 172.811, 168.127 173.578 C 168.607 173.875, 169 175, 169 176.079 C 169 177.157, 170.125 179.822, 171.500 182 C 172.875 184.178, 174 186.425, 174 186.994 C 174 187.562, 174.384 188.809, 174.854 189.764 C 179.011 198.213, 184.317 209.645, 186.568 215 C 188.071 218.575, 189.655 221.734, 190.088 222.020 C 190.521 222.307, 191.373 223.657, 191.981 225.020 C 192.589 226.384, 194.420 229.750, 196.049 232.500 C 197.678 235.250, 199.318 238.175, 199.693 239 C 200.069 239.825, 200.918 240.950, 201.580 241.500 C 202.242 242.050, 204.520 245.783, 206.642 249.796 C 213.489 262.745, 226.696 276.423, 231.753 275.803 C 235.537 275.338, 239.757 268.658, 240.789 261.500 C 241.786 254.583, 240.794 231.092, 239.163 223 C 237.440 214.449, 236.029 204.168, 235.527 196.500 C 233.937 172.247, 230.369 155.948, 226.477 155.156 C 223.322 154.514, 222.753 156.485, 224.319 162.637 C 225.140 165.862, 226.071 170.975, 226.387 174 C 227.566 185.256, 231.055 216.786, 232.031 225 C 232.586 229.675, 232.990 239.575, 232.929 247 C 232.772 265.854, 231.360 267.015, 222.294 255.750 C 213.755 245.139, 207.809 236.386, 202.474 226.572 C 201 223.861, 199.409 220.936, 198.937 220.072 C 198.466 219.207, 196.770 215.800, 195.169 212.500 C 193.568 209.200, 191.116 204.250, 189.722 201.500 C 188.327 198.750, 186.676 195.375, 186.053 194 C 184.414 190.380, 182.397 186.997, 181.116 185.716 C 180.502 185.102, 180 183.803, 180 182.830 C 180 181.856, 178.650 178.403, 177 175.156 C 175.350 171.909, 174 168.771, 174 168.183 C 174 167.595, 173.122 165.626, 172.048 163.806 C 169.859 160.096, 162.550 139.316, 161.614 134.143 C 160.859 129.964, 162.871 125.486, 167.539 120.963 C 170.226 118.358, 171 116.802, 171 114.004 C 171 105.278, 164.371 106.292, 159.591 115.750 C 158.688 117.537, 157.504 119, 156.961 119 C 156.109 119, 153.841 114.706, 150.888 107.500 C 150.437 106.400, 149.871 102.125, 149.631 98 C 149.025 87.604, 148.111 84.130, 145.632 82.803 C 144.460 82.176, 143.275 81.738, 143 81.831 C 142.725 81.924, 142.525 81.662, 142.555 81.250 C 142.630 80.215, 146.685 71.082, 148.506 67.846 C 149.328 66.386, 150 64.023, 150 62.596 C 150 61.168, 150.402 60, 150.893 60 C 152.017 60, 153.035 57.592, 154.015 52.620 C 154.614 49.577, 154.350 48.013, 152.791 45.370 C 149.769 40.248, 145.126 40.696, 132.781 47.300 M 57.500 75.903 C 54.821 76.498, 54.529 76.927, 54.770 79.907 C 54.939 81.984, 55.922 83.938, 57.375 85.081 C 61.325 88.187, 62.826 92.457, 61.849 97.803 C 60.601 104.630, 56.582 113.904, 54.125 115.625 C 52.956 116.444, 52 117.733, 52 118.489 C 52 120.201, 55.495 121.402, 57.303 120.311 C 59.819 118.791, 65.732 111.508, 66.486 109 C 66.899 107.625, 67.830 105.821, 68.555 104.992 C 69.280 104.162, 70.187 100.013, 70.572 95.772 C 71.142 89.482, 70.969 87.602, 69.635 85.566 C 68.736 84.193, 68 82.562, 68 81.940 C 68 79.835, 63.875 74.999, 62.182 75.118 C 61.257 75.183, 59.150 75.537, 57.500 75.903 M 132.660 102.750 C 130.672 104.263, 128.122 106.175, 126.993 107 C 124.226 109.022, 123.253 115.930, 123.119 134.500 C 123.060 142.750, 122.733 151.412, 122.392 153.750 C 121.835 157.576, 121.978 158, 123.836 158 C 125.059 158, 127.028 156.474, 128.675 154.250 C 130.202 152.188, 133.665 148.029, 136.371 145.010 C 142.130 138.584, 149 129.456, 149 128.230 C 149 127.759, 147.875 125.042, 146.500 122.192 C 145.125 119.342, 144 116.551, 144 115.991 C 144 115.431, 143.550 114.079, 143 112.986 C 142.450 111.894, 141.581 110.155, 141.068 109.123 C 140.556 108.091, 139.831 105.616, 139.457 103.623 C 138.642 99.279, 137.428 99.123, 132.660 102.750 M 81.885 111.750 C 80.573 112.713, 77.925 114.357, 76 115.405 C 71.396 117.911, 56.435 127.700, 52 131.109 C 48.230 134.006, 38.702 139.418, 30.250 143.462 C 25.242 145.859, 25 146.155, 25 149.880 C 25 152.474, 25.517 153.984, 26.539 154.377 C 28.261 155.037, 34.708 152.145, 43.738 146.659 C 47.051 144.647, 50.296 143, 50.948 143 C 52.279 143, 51.576 146.248, 49.540 149.500 C 46.035 155.099, 44.582 184.357, 47.526 190.050 C 48.365 191.672, 49.629 193, 50.336 193 C 51.594 193, 59.541 189.973, 67.500 186.462 C 69.700 185.492, 73.075 184.346, 75 183.916 C 79.899 182.821, 88.257 179.878, 89.750 178.723 C 92.041 176.949, 91.040 175.088, 87.250 174.073 C 82.570 172.820, 70.406 174.848, 64.298 177.900 C 55.737 182.179, 54.498 180.551, 55.422 166.234 C 55.802 160.330, 56.841 153.150, 57.731 150.279 C 59.016 146.128, 59.109 144.535, 58.186 142.508 C 56.852 139.580, 56.388 140.100, 67.960 131.560 C 74.593 126.666, 77.856 124.783, 86.975 120.589 C 88.337 119.963, 90.122 118.255, 90.942 116.794 C 92.301 114.373, 92.267 113.952, 90.562 112.068 C 88.273 109.539, 85.058 109.421, 81.885 111.750" stroke="none" fill="black" fill-rule="evenodd"/>
</svg>