<svg xmlns="http://www.w3.org/2000/svg" width="300" height="300" viewBox="0 0 300 300" version="1.1">
	<path d="M 116.655 32.829 C 114.909 34.758, 114.403 40.940, 115.859 42.550 C 116.844 43.640, 119.250 57.777, 118.627 58.813 C 118.400 59.191, 117.698 64.325, 117.068 70.221 C 116.437 76.118, 115.264 82.516, 114.461 84.439 C 111.404 91.755, 113.406 98.108, 117.886 95.310 C 119.872 94.070, 122.882 88.075, 124.568 82 C 125.833 77.444, 128.951 74, 131.818 73.993 C 133.592 73.988, 137.040 71.950, 142 67.974 C 150.663 61.030, 152.736 60.263, 158.076 62.025 C 162.328 63.428, 165 66.608, 165 70.265 C 165 71.549, 165.503 73.103, 166.118 73.718 C 167.769 75.369, 168.329 83.978, 168.346 108 C 168.361 128.747, 168.003 132.628, 164.419 150.500 C 163.647 154.350, 162.899 158.625, 162.758 160 C 162.397 163.502, 159.824 163.140, 158.009 159.332 C 156.344 155.837, 152.004 152, 149.715 152 C 148.906 152, 147.671 152.691, 146.970 153.536 C 145.911 154.812, 146.235 156.146, 148.880 161.411 C 150.632 164.897, 152.950 168.550, 154.032 169.529 C 155.115 170.509, 156 171.820, 156 172.443 C 156 173.066, 157.259 175.084, 158.798 176.927 L 161.596 180.278 166.171 176.889 C 169.839 174.172, 170.745 172.905, 170.741 170.500 C 170.738 168.850, 171.211 165.700, 171.791 163.500 C 173.525 156.931, 177.267 130.759, 177.653 122.500 C 178.718 99.727, 177.901 75.098, 175.995 72.500 C 175.591 71.950, 174.940 69.700, 174.548 67.500 C 173.575 62.040, 168.565 53.539, 164.692 50.777 C 162.220 49.013, 160.239 48.524, 155.908 48.606 C 151.102 48.697, 149.485 49.281, 144.408 52.761 C 141.158 54.988, 136.494 58.878, 134.042 61.405 C 131.590 63.932, 129.002 66, 128.292 66 C 126.841 66, 126.506 61.423, 127.895 60.565 C 128.411 60.246, 128.429 58.406, 127.939 56.224 C 127.471 54.141, 126.852 48.673, 126.564 44.073 C 126.248 39.030, 125.427 34.775, 124.497 33.355 C 122.643 30.525, 118.963 30.278, 116.655 32.829 M 62.250 79.246 C 58.858 80.844, 59.214 85.881, 63 89.843 C 65.284 92.233, 66 93.912, 66 96.884 C 66 102.848, 69.602 103.248, 72.528 97.608 C 75.180 92.496, 75.308 88.652, 72.974 84.175 C 71.774 81.873, 70.502 79.829, 70.146 79.633 C 68.126 78.518, 64.204 78.326, 62.250 79.246 M 132.260 108.643 C 126.777 111.346, 120 118.314, 120 121.248 C 120 127.548, 125.564 128.346, 131.730 122.932 C 135.177 119.906, 138.913 119.055, 139.115 121.250 C 139.382 124.151, 138.644 126.749, 135.903 132.550 C 134.306 135.929, 133 139.121, 133 139.644 C 133 140.167, 131.232 142.321, 129.071 144.431 C 124.368 149.023, 122 148.741, 122 143.590 C 122 141.681, 121.550 139.840, 121 139.500 C 120.450 139.160, 120 136.737, 120 134.115 C 120 130.350, 119.485 128.865, 117.551 127.048 C 114.926 124.582, 112.389 124.822, 111.309 127.638 C 110.954 128.563, 111.245 133.411, 111.956 138.410 C 113.868 151.848, 114.018 157.739, 112.919 176.323 C 111.351 202.839, 111.742 214.565, 114.360 219.569 C 116.714 224.067, 122.855 228.555, 128 229.538 C 135.944 231.056, 167.662 230.521, 176 228.729 C 180.125 227.842, 186.864 226.810, 190.976 226.434 C 195.088 226.059, 200.263 225.086, 202.476 224.272 C 204.689 223.458, 209.650 222.408, 213.500 221.938 C 217.350 221.467, 222.975 220.347, 226 219.447 C 229.025 218.548, 232.702 217.517, 234.172 217.156 C 236.820 216.506, 247 207.656, 247 206.004 C 247 202.544, 244.669 189.314, 243.925 188.550 C 243.416 188.028, 243 186.426, 243 184.991 C 243 183.556, 242.339 181.509, 241.532 180.441 C 240.724 179.374, 240.049 176.887, 240.032 174.917 C 240.014 172.946, 239.663 170.996, 239.251 170.584 C 238.314 169.647, 234.533 155.026, 233.349 147.765 C 232.702 143.791, 230.764 141.410, 229.044 142.473 C 227.720 143.291, 227.698 151.989, 229 159.066 C 229.550 162.055, 230.455 167.650, 231.011 171.500 C 231.567 175.350, 232.502 180.975, 233.088 184 C 235.184 194.807, 235.298 200.616, 233.469 203.407 C 232.535 204.833, 231.012 206, 230.085 206 C 229.158 206, 227.925 206.475, 227.344 207.056 C 226.397 208.003, 210.654 211.609, 190 215.609 C 185.875 216.407, 178.900 217.835, 174.500 218.780 C 168.708 220.025, 161.807 220.500, 149.500 220.500 C 133.191 220.500, 132.317 220.398, 128 217.981 C 124.154 215.829, 123.403 214.884, 122.836 211.481 C 122.470 209.292, 121.727 205.798, 121.183 203.717 C 120.559 201.324, 120.527 197.291, 121.099 192.742 C 121.595 188.786, 122.215 180.633, 122.476 174.624 L 122.951 163.698 127.831 158.099 C 131.836 153.503, 133.408 152.410, 136.601 152 C 139.850 151.582, 140.761 150.926, 142.132 148.015 C 143.688 144.710, 143.675 144.461, 141.886 143.208 C 139.279 141.382, 139.519 139.150, 142.896 133.825 C 148.471 125.034, 149.962 120.520, 149.096 115.047 C 148.665 112.315, 147.736 109.387, 147.033 108.540 C 145.326 106.483, 136.517 106.544, 132.260 108.643 M 31.667 137.667 C 31.300 138.033, 31 140.026, 31 142.094 C 31 147.167, 34.108 149.528, 41.956 150.415 C 51.605 151.507, 53.417 152.486, 55.999 157.999 C 57.942 162.146, 58.200 163.882, 57.667 169.203 C 57.319 172.666, 56.738 176.558, 56.375 177.851 C 55.831 179.786, 56.049 180.138, 57.607 179.843 C 58.949 179.588, 59.597 178.469, 59.832 175.996 C 60.014 174.078, 60.588 171.996, 61.107 171.371 C 61.626 170.746, 62.070 166.202, 62.093 161.275 C 62.159 147.413, 58.605 143.133, 45.217 140.954 C 42.196 140.462, 38.963 139.371, 38.033 138.530 C 36.293 136.955, 32.846 136.488, 31.667 137.667 M 75.837 157.213 C 75.045 158.471, 73.776 161.525, 73.018 164 C 71.289 169.645, 66.454 179.291, 62.794 184.400 C 61.257 186.545, 60 188.908, 60 189.650 C 60 191.487, 57.078 191.367, 56.362 189.500 C 55.473 187.184, 53 187.721, 53 190.229 C 53 191.455, 51.819 195.548, 50.376 199.324 C 47.761 206.167, 47.759 206.200, 49.687 208.782 C 50.751 210.208, 52.173 211.558, 52.847 211.782 C 54.413 212.304, 65.899 200.460, 68.487 195.653 C 69.569 193.644, 70.802 192, 71.227 192 C 71.652 192, 72 191.190, 72 190.200 C 72 189.210, 72.358 187.973, 72.795 187.450 C 73.232 186.928, 74.410 183.800, 75.413 180.500 C 76.416 177.200, 77.608 173.375, 78.062 172 C 78.517 170.625, 79.026 166.390, 79.194 162.588 C 79.524 155.144, 78.338 153.245, 75.837 157.213" stroke="none" fill="black" fill-rule="evenodd"/>
</svg>