<svg xmlns="http://www.w3.org/2000/svg" width="300" height="300" viewBox="0 0 300 300" version="1.1">
	<path d="M 141.620 27.418 C 139.629 29.848, 138 32.522, 138 33.359 C 138 34.197, 137.585 35.139, 137.077 35.452 C 136.569 35.766, 135.860 37.363, 135.500 39 C 134.579 43.191, 133.407 43.520, 129.903 40.572 C 125.009 36.454, 120 37.561, 120 42.760 C 120 44.058, 121.575 47.183, 123.500 49.704 C 125.425 52.225, 126.992 55.010, 126.982 55.894 C 126.955 58.270, 121.443 66.053, 117.287 69.582 C 112.494 73.653, 113.216 76, 119.260 76 C 123.049 76, 124.081 75.475, 127.604 71.750 C 129.816 69.412, 132.722 65.816, 134.062 63.757 C 137.412 58.614, 140.706 58.683, 146.253 64.012 C 148.549 66.219, 150.867 67.878, 151.403 67.699 C 151.939 67.520, 153.190 66.277, 154.181 64.937 C 156.974 61.162, 155.438 57.788, 148.750 53.003 C 145.588 50.741, 143 48.552, 143 48.139 C 143 47.726, 144.125 45.864, 145.500 44 C 146.875 42.136, 148 40.018, 148 39.292 C 148 37.515, 149.980 34.087, 152.931 30.757 L 155.361 28.013 153.006 25.507 C 149.344 21.608, 145.909 22.185, 141.620 27.418 M 133.093 74.827 C 132.555 75.832, 131.817 79.094, 131.452 82.077 C 130.002 93.944, 126.684 102, 123.245 102 C 122.451 102, 118.166 103.575, 113.724 105.500 C 109.282 107.425, 105.046 109, 104.310 109 C 103.575 109, 102.191 109.421, 101.236 109.937 C 100.281 110.452, 95.225 112.099, 90 113.598 C 78.693 116.841, 76.504 118.464, 77.474 122.883 C 78.053 125.519, 78.617 126, 81.128 126 C 82.761 126, 85.959 125.100, 88.236 124 C 90.513 122.900, 93.197 122, 94.201 122 C 95.206 122, 96.809 121.599, 97.764 121.109 C 98.719 120.618, 102.200 119.451, 105.500 118.514 C 108.800 117.577, 112.407 116.237, 113.515 115.537 C 114.623 114.836, 117.030 113.933, 118.864 113.530 C 122.023 112.836, 122.161 112.921, 121.481 115.149 C 121.086 116.442, 120.142 118.210, 119.382 119.079 C 118.622 119.947, 118 121.189, 118 121.840 C 118 123.929, 114.026 132.409, 108.317 142.500 C 107.073 144.700, 104.198 150.325, 101.929 155 C 91.042 177.433, 89.118 181.008, 86.056 184.500 C 85.091 185.600, 83.256 188.750, 81.979 191.500 C 80.701 194.250, 78.133 198.910, 76.272 201.856 C 72.152 208.379, 72.234 211.376, 76.546 211.798 C 79.153 212.053, 80.053 211.454, 82.796 207.635 C 84.558 205.181, 86 202.382, 86 201.415 C 86 200.448, 86.630 198.947, 87.399 198.079 C 88.169 197.210, 90.082 194.206, 91.649 191.402 C 93.217 188.599, 96.138 183.596, 98.140 180.286 C 100.142 176.976, 102.118 173.195, 102.531 171.884 C 102.944 170.573, 104.344 167.933, 105.641 166.018 C 106.939 164.103, 108 161.663, 108 160.597 C 108 159.530, 108.623 157.947, 109.385 157.079 C 110.611 155.681, 113.370 150.677, 122.940 132.500 C 124.387 129.750, 126.418 125.475, 127.452 123 C 128.485 120.525, 131.282 115.912, 133.666 112.749 C 136.050 109.585, 138 106.611, 138 106.138 C 138 105.665, 140.685 103.848, 143.966 102.099 C 147.247 100.350, 150.178 98.522, 150.478 98.036 C 150.777 97.551, 152.415 96.848, 154.116 96.475 C 166.579 93.737, 175.597 85.230, 170.510 81.008 C 168.940 79.706, 164.787 81.345, 147.103 90.247 C 143.010 92.308, 139.572 93.883, 139.464 93.747 C 139.356 93.611, 139.584 89.675, 139.970 85 C 140.355 80.325, 140.279 75.713, 139.800 74.750 C 138.658 72.453, 134.337 72.503, 133.093 74.827 M 51.250 82.031 C 47.421 83.570, 49.137 88.272, 54.958 92.193 C 56.859 93.474, 58.669 95.600, 58.980 96.917 C 59.291 98.233, 60.353 99.803, 61.340 100.405 C 62.821 101.309, 63.559 100.976, 65.562 98.500 C 66.898 96.850, 67.992 95.007, 67.995 94.404 C 68.006 92.090, 64.778 87.012, 61.427 84.070 C 57.863 80.940, 55.260 80.419, 51.250 82.031 M 151 130.121 C 145.363 133.525, 137.165 140.884, 135.772 143.790 C 134.124 147.228, 131.774 147.678, 130.498 144.800 C 129.038 141.508, 124.487 139.200, 122.259 140.622 C 120.270 141.892, 120.327 148.441, 122.349 150.902 C 123.678 152.520, 123.891 177.936, 122.655 187.500 C 121.256 198.321, 118.747 212.480, 118.047 213.500 C 116.463 215.808, 114.861 222.770, 115.169 226.011 C 115.443 228.902, 115.938 229.551, 118.055 229.798 C 122.131 230.272, 125.657 226.771, 126.454 221.455 C 127.118 217.033, 127.243 216.894, 130.012 217.503 C 134.054 218.390, 136.351 216.826, 140.674 210.240 C 142.747 207.083, 146.593 201.889, 149.221 198.698 C 151.849 195.507, 154.002 192.132, 154.004 191.198 C 154.006 190.264, 154.906 188.027, 156.004 186.226 C 157.102 184.425, 158 182.288, 158 181.476 C 158 180.664, 158.848 180, 159.884 180 C 161.929 180, 162.120 183.299, 163.560 243.663 C 164.120 267.117, 163.898 268.388, 159.655 266.048 C 157.429 264.820, 152 257.707, 152 256.017 C 152 255.492, 151.055 253.248, 149.899 251.031 C 148.352 248.063, 147.178 247, 145.449 247 C 142.119 247, 140.832 249.774, 142.587 253.169 C 143.364 254.671, 144.482 258.150, 145.072 260.901 C 145.687 263.768, 147.514 267.632, 149.355 269.958 C 152.560 274.009, 163.367 281.918, 165.770 281.972 C 166.468 281.987, 168.837 280.865, 171.034 279.479 C 174.170 277.499, 174.928 276.479, 174.564 274.729 C 173.701 270.582, 173.036 257.594, 172.452 233.500 C 172.132 220.300, 171.691 207.250, 171.473 204.500 C 171.254 201.750, 170.801 190.950, 170.465 180.500 C 169.769 158.828, 167.856 141.848, 165.627 137.570 C 163.442 133.376, 158.126 127.999, 156.169 128.004 C 155.251 128.006, 152.925 128.959, 151 130.121 M 34.250 139.125 C 32.355 141.058, 32.709 142.322, 36.119 145.810 C 38.230 147.970, 40.189 149, 42.185 149 C 43.807 149, 46.608 150.125, 48.411 151.500 C 52.454 154.584, 53.597 154.632, 54.370 151.750 C 55.974 145.765, 54.502 142.006, 50.550 141.994 C 49.423 141.990, 47.203 141.311, 45.618 140.484 C 41.392 138.281, 35.740 137.605, 34.250 139.125 M 148 143.608 C 144.975 145.620, 141.375 148.288, 140 149.536 C 138.625 150.784, 136.600 151.969, 135.500 152.168 C 133.656 152.503, 133.512 153.257, 133.652 161.834 C 133.736 166.951, 134.064 171.397, 134.381 171.715 C 134.699 172.032, 137.612 171.101, 140.854 169.646 C 147.846 166.508, 151.395 166.334, 155.635 168.919 C 159.104 171.034, 160.988 170.205, 161.016 166.550 C 161.062 160.652, 157.503 144.913, 155.587 142.536 L 153.500 139.949 148 143.608 M 68.828 165.036 C 67.909 165.573, 66.410 168.262, 65.496 171.012 C 64.583 173.762, 62.747 178.058, 61.418 180.559 C 60.088 183.060, 59 185.679, 59 186.379 C 59 187.079, 57.875 188.708, 56.500 190 C 55.125 191.292, 54 193.202, 54 194.246 C 54 195.719, 53.398 196.071, 51.304 195.822 C 48.728 195.514, 48.545 195.799, 47.169 202.234 C 46.008 207.660, 45.973 209.262, 46.987 210.484 C 50.235 214.398, 58.378 209.511, 61.466 201.794 C 62.386 199.494, 64.410 196.008, 65.963 194.047 C 68.034 191.432, 68.918 189.017, 69.280 184.991 C 69.784 179.366, 71.499 172.178, 73.251 168.345 C 74.928 164.676, 72.526 162.878, 68.828 165.036 M 146.500 179.167 C 145.400 179.775, 143.460 181.216, 142.188 182.369 C 139.955 184.394, 139.773 184.406, 136.857 182.733 C 135.196 181.780, 133.424 181, 132.919 181 C 132.414 181, 132 183.628, 132 186.841 C 132 190.054, 131.330 194.891, 130.511 197.591 C 126.793 209.846, 129.871 210.192, 138 198.435 C 139.375 196.446, 142.356 192.460, 144.625 189.576 C 152.375 179.728, 153.138 175.496, 146.500 179.167" stroke="none" fill="black" fill-rule="evenodd"/>
</svg>