<svg xmlns="http://www.w3.org/2000/svg" width="300" height="300" viewBox="0 0 300 300" version="1.1">
	<path d="M 160 38.557 C 137.353 46.011, 125 52.618, 125 57.279 C 125 58.091, 124.325 59.315, 123.500 60 C 121.506 61.655, 121.561 66.617, 123.582 67.393 C 125.893 68.280, 125.882 68.285, 129.413 64.750 C 132.966 61.192, 135.299 59.514, 138.777 58.012 C 140.029 57.472, 143.854 55.617, 147.277 53.891 C 150.699 52.165, 154.400 50.590, 155.500 50.391 C 156.600 50.192, 159.525 49.592, 162 49.058 C 170.583 47.206, 173.505 47.657, 176.207 51.250 C 180.082 56.403, 181.629 59.882, 184.322 69.500 C 187.060 79.278, 188.622 88.995, 189.470 101.531 C 189.769 105.948, 190.451 111.087, 190.986 112.952 C 191.555 114.936, 191.968 136.598, 191.980 165.152 L 192.002 213.961 189.751 214.428 C 188.513 214.684, 179.850 215.102, 170.500 215.356 C 159.769 215.647, 149.203 216.576, 141.847 217.875 C 135.438 219.007, 124.638 220.233, 117.847 220.601 C 102.109 221.453, 100.330 222.673, 105.637 228.980 L 108.273 232.114 116.387 231.476 C 120.849 231.125, 128.037 230.200, 132.360 229.419 C 136.684 228.639, 142.102 228, 144.400 228 C 146.699 228, 151.262 227.287, 154.540 226.416 C 160.754 224.765, 190.329 223.995, 191.779 225.446 C 192.176 225.843, 192.480 235.802, 192.456 247.578 C 192.423 263.530, 192.088 269.308, 191.140 270.244 C 189.822 271.546, 190.198 271.897, 176.699 256.805 C 168.303 247.418, 166.297 253.009, 174.022 264.266 C 176.210 267.454, 178 270.317, 178 270.627 C 178 270.938, 181.261 274.968, 185.248 279.585 C 193.005 288.567, 194.077 288.985, 198.647 284.808 C 201.493 282.206, 203.470 266.583, 202.747 252.408 C 202.455 246.692, 202.633 241.767, 203.149 241.251 C 203.716 240.684, 203.678 239.283, 203.051 237.634 C 202.428 235.995, 202.032 222.143, 202.040 202.221 C 202.056 155.789, 201.055 109.678, 199.946 105.811 C 199.426 103.997, 199 99.949, 199 96.816 C 199 93.682, 198.508 90.814, 197.906 90.442 C 197.304 90.070, 197.007 88.743, 197.246 87.493 C 197.702 85.107, 195.855 72.973, 194.127 67 C 193.570 65.075, 192.350 60.656, 191.417 57.181 C 190.252 52.844, 188.979 50.377, 187.360 49.316 C 186.062 48.466, 185 47.010, 185 46.081 C 185 44.251, 179.841 38.927, 176.316 37.120 C 172.999 35.419, 168.269 35.836, 160 38.557 M 103.751 47.692 C 102.789 47.942, 101.728 49.234, 101.395 50.563 C 100.774 53.035, 100.964 54.908, 103.161 68 C 104.511 76.046, 104.798 105.978, 103.684 122.500 C 102.920 133.832, 101.606 186.167, 101.840 195.918 C 101.946 200.319, 102.516 202.912, 103.652 204.168 C 105.541 206.256, 109.851 206.622, 110.488 204.750 C 110.722 204.063, 111.192 188.650, 111.533 170.500 C 112.306 129.374, 112.570 121.263, 113.586 107.500 C 115.677 79.167, 113.304 48, 109.056 48 C 108.565 48, 107.564 47.828, 106.832 47.619 C 106.099 47.409, 104.713 47.442, 103.751 47.692 M 53.500 73.706 C 49.997 74.598, 49.051 75.996, 49.688 79.337 C 50.048 81.223, 51.680 83.668, 53.730 85.393 C 56.766 87.946, 57.095 88.680, 56.537 91.656 C 55.763 95.778, 58.411 97.547, 60.664 94.412 C 61.420 93.361, 62.704 91.707, 63.519 90.739 C 65.735 88.103, 65.177 83.050, 62.111 78 C 59.409 73.549, 57.621 72.657, 53.500 73.706 M 152.105 75.895 C 150.340 77.660, 148 85.689, 148 89.981 C 148 92.074, 145.032 94.430, 137.381 98.410 C 132.630 100.881, 132.218 101.392, 131.653 105.513 C 131.319 107.955, 131.308 110.639, 131.629 111.476 C 132.283 113.180, 137.524 113.579, 138.500 112 C 139.451 110.462, 142.992 110.815, 143.643 112.513 C 143.963 113.345, 143.758 114.587, 143.189 115.273 C 142.619 115.959, 141.824 119.440, 141.420 123.010 C 140.551 130.702, 139.107 134.446, 134.456 141.062 C 130.535 146.640, 130.502 146.767, 132.366 148.921 C 133.117 149.790, 134.541 153.200, 135.530 156.500 C 136.519 159.800, 137.764 163.068, 138.297 163.763 C 138.831 164.458, 139.319 167.683, 139.383 170.930 C 139.448 174.178, 139.838 177.172, 140.250 177.584 C 140.662 177.996, 141 179.185, 141 180.226 C 141 181.267, 142.670 184.117, 144.712 186.560 C 147.669 190.097, 149.067 191, 151.590 191 C 153.713 191, 155.223 190.297, 156.172 188.867 C 156.951 187.694, 159.124 186.231, 161.001 185.617 C 165.037 184.295, 171 176.999, 171 173.381 C 171 170.582, 174.798 158.100, 176.186 156.336 C 176.690 155.696, 177.361 152.076, 177.679 148.293 C 178.247 141.511, 178.207 141.362, 174.840 137.792 C 169.708 132.351, 165.641 131.952, 158.403 136.181 C 155.230 138.036, 151.892 140.891, 150.985 142.526 C 147.609 148.618, 145.211 144.814, 147.817 137.500 C 148.405 135.850, 149.311 131.350, 149.831 127.500 C 151.681 113.795, 155.336 103.450, 159.178 101.048 C 163.371 98.427, 168.400 96, 169.639 96 C 172.081 96, 175.109 90.750, 174.799 87.053 C 174.410 82.433, 171.659 81.944, 165.700 85.435 C 163.294 86.846, 160.518 88, 159.533 88 C 157.937 88, 157.815 87.353, 158.414 82.058 C 159.012 76.776, 158.867 75.999, 157.109 75.058 C 154.493 73.658, 154.311 73.689, 152.105 75.895 M 32.200 137.200 C 30.296 139.104, 30.709 146.427, 32.829 148.345 C 34.843 150.168, 42.488 150.637, 43.500 149 C 43.840 148.450, 45.865 148, 48 148 C 50.135 148, 52.160 148.450, 52.500 149 C 53.731 150.992, 56.951 150.044, 57.589 147.502 C 58.415 144.211, 57.661 142.479, 54.504 140.410 C 52.239 138.927, 51.211 138.858, 46.620 139.886 C 40.785 141.191, 38.449 140.708, 36.937 137.882 C 35.783 135.726, 33.940 135.460, 32.200 137.200 M 161.500 146.855 C 159.850 147.886, 156.229 150.929, 153.452 153.615 L 148.405 158.500 149.382 166.750 C 149.958 171.606, 150.822 175, 151.483 175 C 152.101 175, 154.480 173.622, 156.771 171.937 C 162.488 167.733, 167.226 158.399, 167.383 151.031 C 167.518 144.720, 166.299 143.854, 161.500 146.855 M 71.785 171.270 C 71.004 172.496, 69.321 176.330, 68.046 179.788 C 66.771 183.247, 64.841 187.204, 63.757 188.582 C 62.673 189.960, 60.534 193.671, 59.005 196.828 C 55.868 203.304, 53.745 205.500, 51.465 204.625 C 50.242 204.156, 50.061 203.212, 50.627 200.263 C 51.025 198.193, 51.313 194.935, 51.267 193.021 C 51.222 191.108, 51.772 188.408, 52.489 187.020 C 54.438 183.252, 55.471 173.409, 54.013 172.508 C 51.786 171.132, 50.650 173.943, 50.290 181.725 C 50.060 186.686, 49.219 191.034, 47.965 193.739 C 46.847 196.151, 46 200.113, 46 202.930 C 46 205.654, 45.550 208.160, 45 208.500 C 43.117 209.664, 43.949 214.603, 46.418 216.923 C 48.305 218.695, 49.504 219.048, 51.871 218.528 C 55.463 217.739, 60 214.399, 60 212.542 C 60 211.821, 61.125 210.493, 62.500 209.592 C 63.875 208.691, 65 207.431, 65 206.793 C 65 204.982, 68.936 197.298, 70.550 195.958 C 71.348 195.297, 72 193.866, 72 192.779 C 72 191.692, 72.634 189.384, 73.409 187.651 C 74.934 184.239, 75.868 180.577, 76.677 174.837 C 77.094 171.883, 76.808 170.967, 75.199 170.106 C 73.560 169.229, 72.951 169.437, 71.785 171.270" stroke="none" fill="black" fill-rule="evenodd"/>
</svg>