<svg xmlns="http://www.w3.org/2000/svg" width="300" height="300" viewBox="0 0 300 300" version="1.1">
	<path d="M 120.437 44.456 C 119.552 45.807, 119.110 47.368, 119.454 47.926 C 121.034 50.482, 121.838 65.308, 120.850 73.668 C 120.276 78.526, 119.446 86.550, 119.005 91.500 C 118.564 96.450, 117.642 102.592, 116.956 105.150 C 115.508 110.550, 116.125 113, 118.933 113 C 121.237 113, 122.783 110.578, 125.072 103.384 C 127.106 96.993, 131.750 91, 134.669 91 C 135.862 91, 138.205 90.215, 139.876 89.257 C 144.733 86.469, 145.190 87.995, 143.403 101.037 C 142.539 107.342, 141.036 115.875, 140.064 120 C 138.123 128.234, 139.188 127.222, 126 133.359 C 124.075 134.255, 121.825 135.409, 121 135.924 C 120.175 136.439, 116.163 137.898, 112.084 139.167 C 104.301 141.588, 100 144.207, 100 146.526 C 100 149.317, 102.374 153, 104.173 153 C 107.287 153, 119.778 149.247, 123.751 147.117 C 125.813 146.012, 129.975 143.960, 133 142.557 C 136.025 141.154, 139.175 139.596, 140 139.094 C 146.538 135.118, 169.052 126, 172.331 126 C 173.843 126, 176.749 125.161, 178.790 124.135 C 180.830 123.110, 184.285 121.946, 186.466 121.549 C 194.793 120.036, 198.771 114.054, 193.777 110.557 C 190.835 108.496, 188.882 108.591, 182.685 111.097 C 175.401 114.043, 171.399 115.462, 164.500 117.550 C 161.200 118.548, 156.377 120.408, 153.783 121.683 C 148.072 124.489, 148 124.493, 148 122.047 C 148 120.270, 148.650 118.266, 151.098 112.500 C 152.272 109.734, 154.093 97.730, 154.439 90.467 C 154.855 81.753, 155.610 80.062, 161.571 74.500 C 166.542 69.861, 166.976 69.085, 167.580 63.750 C 168.147 58.737, 168.011 58, 166.520 58 C 164.160 58, 159 61.821, 159 63.568 C 159 64.356, 158.080 65, 156.956 65 C 155.056 65, 154.928 64.466, 155.152 57.474 C 155.360 50.959, 155.108 49.663, 153.279 47.835 C 148.657 43.212, 146.084 47.758, 144.977 62.500 C 144.243 72.293, 144.159 72.552, 140.922 75 C 139.105 76.375, 136.084 78.963, 134.209 80.750 C 129.730 85.020, 128.625 84.905, 129.427 80.250 C 129.783 78.188, 130.330 70.158, 130.644 62.408 C 131.124 50.552, 130.955 47.814, 129.581 45.158 C 127.472 41.079, 122.880 40.727, 120.437 44.456 M 54.667 77.667 C 53.464 78.869, 53.970 85.730, 55.345 86.872 C 56.085 87.486, 58.110 88.272, 59.845 88.619 C 62.693 89.189, 62.999 89.603, 62.985 92.875 C 62.976 94.869, 62.568 97.134, 62.077 97.909 C 60.755 99.997, 61.909 102, 64.433 102 C 66.704 102, 71 98.250, 71 96.267 C 71 95.659, 71.786 93.792, 72.747 92.118 C 74.452 89.147, 74.433 88.960, 71.952 84.295 C 70.555 81.666, 68.306 78.955, 66.955 78.272 C 64.360 76.959, 55.796 76.537, 54.667 77.667 M 37.250 135.132 C 35.270 137.140, 35.707 143.425, 37.969 145.472 C 39.630 146.975, 41.279 147.184, 48.494 146.805 C 54.816 146.473, 57.337 146.701, 58.148 147.678 C 59.537 149.352, 62.940 149.398, 63.448 147.750 C 65.248 141.908, 65.065 140.865, 61.648 137.448 C 58.488 134.288, 57.985 134.109, 55.096 135.116 C 52.164 136.138, 48.646 135.976, 41.500 134.489 C 39.635 134.101, 38.027 134.344, 37.250 135.132 M 80.238 158.738 C 79.185 160.257, 77.090 165.550, 75.583 170.500 C 71.246 184.747, 69.445 189.189, 62.120 203.702 C 60.954 206.013, 60 208.545, 60 209.329 C 60 211.340, 57.311 213.333, 55.524 212.648 C 54.326 212.188, 54.146 210.900, 54.631 206.257 C 55.127 201.511, 54.927 200.184, 53.543 199.036 C 50.771 196.735, 50.032 199.364, 50.015 211.595 C 49.999 223.747, 50.957 226, 56.142 226 C 58.529 226, 62.943 222.243, 64.364 219 C 64.726 218.175, 65.912 216.150, 67 214.500 C 69.037 211.410, 69.416 210.615, 71.282 205.500 C 71.884 203.850, 73.454 200.764, 74.770 198.641 C 76.342 196.106, 76.960 193.977, 76.573 192.433 C 76.248 191.141, 76.614 188.377, 77.385 186.292 C 78.156 184.206, 79.540 179.800, 80.461 176.500 C 81.382 173.200, 82.555 169.466, 83.068 168.203 C 84.270 165.241, 84.276 157.288, 83.076 156.547 C 82.569 156.233, 81.291 157.219, 80.238 158.738 M 160 159.100 C 145.004 166.110, 144.035 166.758, 132.344 177.601 C 130.505 179.307, 129 181.458, 129 182.382 C 129 183.307, 128.260 184.347, 127.355 184.694 C 125.379 185.452, 123 182.578, 123 179.431 C 123 176.868, 121.540 175.524, 117.781 174.626 C 115.606 174.107, 114.746 174.458, 113.488 176.378 C 112.161 178.403, 112.097 179.537, 113.081 183.639 C 114.171 188.185, 114.957 190.241, 119.526 200.500 C 121.343 204.578, 122.171 208.200, 124.066 220.363 C 125.431 229.121, 126.546 232, 128.574 232 C 129.467 232, 131.709 232.717, 133.557 233.594 C 136.633 235.054, 137.456 235.053, 143.324 233.581 C 146.848 232.697, 153.955 231.568, 159.116 231.073 C 164.277 230.577, 169.842 229.654, 171.482 229.022 C 173.122 228.390, 176.047 227.989, 177.982 228.130 C 182.624 228.470, 195.035 226.995, 197.250 225.841 C 199.313 224.766, 199.529 220.280, 197.637 217.789 C 195.699 215.239, 191.062 213.704, 189.418 215.068 C 187.646 216.539, 162.077 219.934, 161.371 218.792 C 161.071 218.306, 164.128 213.990, 168.163 209.199 C 184.810 189.436, 187 185.480, 187 175.170 C 187 166.418, 186.073 163.920, 181.541 160.463 C 176.563 156.667, 166.559 156.034, 160 159.100 M 163.200 170.259 C 162.626 170.951, 160.129 172.116, 157.653 172.847 C 155.177 173.578, 152.359 175.051, 151.391 176.120 C 150.423 177.190, 148.039 179.049, 146.092 180.252 C 144.146 181.455, 141.219 183.959, 139.589 185.816 C 137.958 187.673, 135.575 189.591, 134.294 190.078 C 133.013 190.566, 131.522 192.126, 130.982 193.547 C 129.754 196.778, 129.704 203.286, 130.898 204.550 C 131.391 205.072, 132.036 207.300, 132.331 209.500 C 133.623 219.149, 134.461 221.491, 136.743 221.817 C 138.940 222.131, 150 215.610, 150 214.001 C 150 213.558, 151.297 212.365, 152.882 211.348 C 154.467 210.332, 158.178 206.575, 161.129 203 C 164.080 199.425, 167.323 195.600, 168.337 194.500 C 171.042 191.564, 175.734 181.937, 176.531 177.684 C 177.631 171.826, 175.212 169, 169.099 169 C 166.418 169, 163.777 169.563, 163.200 170.259" stroke="none" fill="black" fill-rule="evenodd"/>
</svg>