<svg xmlns="http://www.w3.org/2000/svg" width="300" height="300" viewBox="0 0 300 300" version="1.1">
	<path d="M 132.299 30.250 C 129.500 33.323, 128.003 36.422, 127.984 39.184 C 127.974 40.458, 127.152 44.862, 126.155 48.970 C 124.133 57.309, 122.151 59.294, 114.576 60.569 C 112.334 60.947, 109.427 62.098, 108.115 63.128 C 106.803 64.158, 105.316 65, 104.810 65 C 104.304 65, 101.987 65.867, 99.660 66.927 C 97.334 67.987, 94.198 69.163, 92.692 69.541 C 87.524 70.838, 85.017 77.868, 88.969 79.983 C 90.487 80.796, 91.800 80.575, 94.704 79.019 C 96.776 77.908, 99.216 77, 100.127 77 C 101.039 77, 105.473 74.925, 109.982 72.390 C 118.411 67.650, 121.060 67.532, 118.500 72.011 C 116.517 75.483, 116.567 75.362, 112.493 86.500 C 110.482 92, 107.123 99.875, 105.029 104 C 99.436 115.022, 97.576 118.782, 94.149 126 C 92.452 129.575, 90.162 134.075, 89.060 136 C 87.958 137.925, 85.699 142.425, 84.041 146 C 82.382 149.575, 79.428 155.200, 77.477 158.500 C 75.526 161.800, 73.656 165.175, 73.321 166 C 72.987 166.825, 70.978 169.606, 68.857 172.179 C 64.781 177.125, 64.225 179.395, 66.392 182.250 C 68.343 184.820, 70.210 184.410, 73.900 180.603 C 77.586 176.801, 79.030 174.267, 88.497 155 C 92.146 147.575, 95.637 140.600, 96.255 139.500 C 96.873 138.400, 98.462 135.475, 99.786 133 C 101.109 130.525, 102.527 128.050, 102.936 127.500 C 103.346 126.950, 105.424 122.675, 107.555 118 C 109.686 113.325, 112.458 107.821, 113.715 105.770 C 114.972 103.718, 116 101.279, 116 100.349 C 116 99.418, 116.628 97.947, 117.396 97.079 C 118.163 96.210, 119.484 93.475, 120.331 91 C 121.177 88.525, 122.799 84.609, 123.935 82.298 C 125.071 79.987, 126 77.426, 126 76.607 C 126 75.788, 126.450 74.840, 127 74.500 C 127.550 74.160, 128 73.113, 128 72.173 C 128 68.852, 136.291 60.442, 145.915 54 C 166.796 40.023, 169.143 37.674, 166.401 33.489 C 164.241 30.193, 162.135 30.350, 158.501 34.079 C 153.975 38.723, 140.249 48, 137.904 48 C 136.188 48, 135.933 47.538, 136.388 45.250 C 138.210 36.080, 139.017 29.836, 138.488 28.981 C 137.443 27.290, 134.433 27.907, 132.299 30.250 M 135.183 77.056 C 133.408 77.768, 132.940 78.630, 133.183 80.743 C 133.468 83.223, 133.937 83.531, 137.843 83.812 C 141 84.039, 143.869 85.287, 148.343 88.379 C 151.729 90.719, 157.650 94.369, 161.500 96.490 C 178.299 105.746, 189 113.901, 189 117.447 C 189 118.925, 194.420 123, 196.387 123 C 197.194 123, 198.984 121.558, 200.363 119.795 C 202.793 116.690, 202.819 116.500, 201.186 113.695 C 199.414 110.653, 189.260 102.020, 187.437 102.007 C 186.852 102.003, 185.081 100.650, 183.500 99 C 181.919 97.350, 180.124 96, 179.510 96 C 178.896 96, 176.618 94.699, 174.447 93.110 C 172.276 91.520, 166 87.844, 160.500 84.939 C 155 82.035, 149.306 78.835, 147.846 77.829 C 145.008 75.874, 139.039 75.510, 135.183 77.056 M 35.391 87.577 C 34.590 90.771, 36.686 94.930, 39.669 96.064 C 41.395 96.720, 41.948 97.847, 42.190 101.194 C 42.582 106.618, 44.970 107.351, 49.189 103.342 C 51.828 100.835, 52.124 99.989, 51.703 96.164 C 51.002 89.788, 46.121 85, 40.323 85 C 36.552 85, 35.960 85.309, 35.391 87.577 M 129.654 109.701 C 128.370 112.185, 128.385 113.467, 129.776 120.460 L 131.356 128.400 127.977 130.950 C 124.089 133.884, 118.482 139.507, 115.318 143.646 C 113.512 146.009, 112.824 146.311, 111.318 145.399 C 110.281 144.771, 109.358 142.840, 109.168 140.903 C 108.754 136.661, 107.417 135, 104.416 135 C 101.246 135, 99.263 141.656, 101.030 146.371 C 103.069 151.814, 107.485 161.746, 112.605 172.404 C 113.372 174.001, 114.016 176.251, 114.035 177.404 C 114.055 178.557, 114.714 180.625, 115.500 182 C 116.286 183.375, 116.945 185.287, 116.965 186.250 C 117.008 188.400, 113.774 191.755, 110.434 193.025 C 109.067 193.545, 107.671 194.693, 107.333 195.576 C 106.619 197.436, 109.473 204, 110.995 204 C 112.726 204, 123.973 195.920, 125.054 193.899 C 125.613 192.855, 126.705 192, 127.481 192 C 128.664 192, 128.795 194.800, 128.296 209.340 C 127.723 225.998, 127.790 226.859, 129.976 231.237 C 131.227 233.743, 133.341 236.290, 134.673 236.897 C 137.558 238.212, 157.182 238.238, 168.500 236.942 C 172.900 236.438, 181.225 235.588, 187 235.054 C 196.331 234.191, 202.486 232.965, 212.500 229.975 C 214.150 229.482, 217.422 228.777, 219.772 228.408 C 222.122 228.039, 224.286 227.346, 224.581 226.869 C 224.876 226.391, 225.879 225.984, 226.809 225.964 C 227.739 225.944, 229.771 224.888, 231.325 223.617 C 233.598 221.757, 234.086 220.642, 233.825 217.903 C 233.502 214.524, 233.467 214.501, 228.703 214.666 C 226.064 214.757, 222.759 215.583, 221.357 216.501 C 216.411 219.743, 200.620 224.114, 187.500 225.874 C 165.189 228.867, 145.233 229.799, 140.663 228.062 C 137.313 226.788, 136.807 222.710, 137.931 206 C 139.306 185.544, 141.793 175.835, 146 174.500 C 146.994 174.185, 148.538 172.481, 149.431 170.713 C 150.324 168.946, 151.451 166.825, 151.934 166 C 152.418 165.175, 154.019 161.575, 155.494 158 C 156.968 154.425, 158.896 149.925, 159.778 148 C 160.769 145.836, 161.404 141.642, 161.440 137.015 L 161.500 129.529 156.500 126.160 C 151.995 123.124, 150.987 122.842, 146.320 123.316 C 141.244 123.831, 141.116 123.778, 139.924 120.671 C 139.255 118.927, 138.436 115.250, 138.104 112.500 C 137.531 107.757, 137.336 107.484, 134.306 107.191 C 131.661 106.935, 130.862 107.366, 129.654 109.701 M 142.916 134.601 C 142.185 135.482, 141.540 138.058, 141.483 140.325 C 141.404 143.500, 141.944 144.971, 143.836 146.724 C 145.187 147.976, 147.036 149, 147.945 149 C 150.815 149, 153.161 139.189, 151.393 134.582 C 150.588 132.483, 144.663 132.497, 142.916 134.601 M 125.953 143.508 C 124.604 144.888, 121.524 147.735, 119.109 149.835 L 114.718 153.653 116.192 158.077 C 117.003 160.510, 118.155 162.500, 118.753 162.500 C 119.350 162.500, 122.536 159.909, 125.833 156.742 C 130.530 152.230, 131.971 150.129, 132.495 147.029 C 132.863 144.853, 132.875 142.607, 132.523 142.037 C 131.417 140.248, 128.503 140.901, 125.953 143.508 M 21.500 146.194 C 19.850 146.734, 17.375 147.482, 16 147.856 C 14.015 148.396, 13.438 149.271, 13.199 152.104 C 12.716 157.837, 14.391 158.431, 24.011 155.937 C 33.900 153.374, 34.730 153.824, 36.497 162.708 C 37.440 167.451, 38.043 168.558, 39.824 168.820 C 41.919 169.127, 42 168.809, 42 160.266 C 42 151.541, 41.945 151.339, 38.702 148.196 C 35.770 145.354, 34.801 145.012, 29.952 145.106 C 26.954 145.165, 23.150 145.654, 21.500 146.194 M 143.606 157.584 C 143.233 158.557, 143.456 159.015, 144.187 158.771 C 145.682 158.273, 146.505 156, 145.190 156 C 144.653 156, 143.941 156.713, 143.606 157.584 M 124.316 167.988 C 122.325 168.807, 122.182 169.396, 122.693 174.693 C 123.426 182.288, 124.288 183.056, 128.039 179.463 C 130.692 176.921, 131.052 175.949, 130.795 172.019 C 130.476 167.135, 128.849 166.122, 124.316 167.988 M 49.275 182.250 C 47.477 184.568, 42 196.306, 41.968 197.910 C 41.920 200.343, 39.504 203, 37.340 203 C 34.271 203, 33 205.044, 33 209.977 C 33 214.765, 35.120 219, 37.516 219 C 41.531 219, 49.031 205.398, 51.026 194.500 C 51.731 190.650, 52.759 186.772, 53.312 185.882 C 55.385 182.543, 51.653 179.184, 49.275 182.250" stroke="none" fill="black" fill-rule="evenodd"/>
</svg>