<svg xmlns="http://www.w3.org/2000/svg" width="300" height="300" viewBox="0 0 300 300" version="1.1">
	<path d="M 125.473 17.030 C 122.897 19.876, 124.418 23.630, 129.701 27.467 C 131.998 29.135, 133.905 30.977, 133.939 31.559 C 134.033 33.187, 123.373 42, 121.310 42 C 119.090 42, 117 36.043, 117 29.716 C 117 25.155, 115.691 23, 112.922 23 C 108.133 23, 106.799 31.221, 110.081 40.516 C 112.867 48.409, 112.532 49.251, 104.902 53.529 C 100.478 56.009, 99.447 57.096, 99.206 59.529 C 99.044 61.163, 99.508 63.314, 100.236 64.309 C 101.916 66.606, 105.146 65.534, 109.883 61.110 C 114.442 56.851, 116.327 57.102, 118.444 62.250 C 119.405 64.588, 121.048 68.425, 122.096 70.777 C 125.281 77.931, 124.687 81.973, 119.519 88.318 C 114.455 94.535, 111.162 102.562, 112.945 104.345 C 114.168 105.568, 116.110 103.637, 121.729 95.612 C 126.775 88.406, 128.230 89.091, 133.173 101 C 133.744 102.375, 134.770 104.850, 135.453 106.500 C 139.886 117.207, 143.872 124.128, 148.463 129.090 C 152.553 133.510, 153.089 133.651, 157.010 131.335 C 161.766 128.526, 162.187 126.214, 159.922 115.366 C 157.849 105.441, 157.924 103, 160.301 103 C 161.745 103, 166.784 108.801, 168.987 113 C 170.706 116.275, 172.139 117.130, 173.716 115.820 C 175.942 113.974, 175.126 109.445, 171.200 101.851 C 168.335 96.310, 166.501 94.012, 163.749 92.518 L 160.098 90.537 157.299 92.655 C 155.287 94.178, 154.580 95.500, 154.783 97.358 C 154.972 99.083, 154.391 100.363, 153.033 101.211 C 150.689 102.675, 150.375 106.629, 152.201 111.678 C 153.133 114.256, 153.134 115.266, 152.204 116.196 C 151.275 117.125, 150.667 116.957, 149.486 115.446 C 147.409 112.790, 144 105.907, 144 104.369 C 144 103.679, 143.125 101.626, 142.055 99.807 C 140.985 97.988, 138.706 92.517, 136.991 87.649 C 134.024 79.228, 133.956 78.706, 135.597 76.892 C 136.546 75.844, 137.812 74.110, 138.411 73.040 C 139.010 71.970, 141.449 67.948, 143.831 64.103 C 148.117 57.184, 148.157 57.036, 147.659 49.806 C 147.029 40.641, 146.038 35.142, 144.890 34.432 C 144.400 34.129, 144 33.181, 144 32.323 C 144 30.313, 133.574 16.434, 131.453 15.620 C 128.756 14.585, 127.395 14.906, 125.473 17.030 M 136.992 40.250 C 136.987 40.938, 134.287 43.650, 130.992 46.278 C 126.609 49.773, 125 51.712, 125 53.498 C 125 56.392, 129.670 67, 130.944 67 C 132.005 67, 137.987 57.494, 138.032 55.735 C 138.049 55.056, 138.724 53.626, 139.532 52.559 C 141.010 50.604, 141.520 43.518, 140.393 40.582 C 139.674 38.709, 137.004 38.449, 136.992 40.250 M 44.873 85.704 C 41.072 86.290, 37.776 90.181, 38.174 93.614 C 38.446 95.966, 39.137 96.586, 42.326 97.335 C 46.966 98.426, 47.671 99.936, 45.962 105.115 C 44.812 108.600, 44.855 109.283, 46.316 110.745 C 47.868 112.296, 48.284 112.082, 52.490 107.565 C 57.382 102.313, 57.621 101.350, 55.763 94.404 C 54.651 90.245, 50.117 84.717, 48.173 85.150 C 47.803 85.232, 46.318 85.482, 44.873 85.704 M 101.667 110.667 C 100.310 112.023, 101.070 117.212, 103.500 123.192 C 104.875 126.576, 106 129.882, 106 130.538 C 106 131.194, 106.900 132.874, 108 134.273 C 109.100 135.671, 110 137.503, 110 138.344 C 110 139.184, 105.979 142.488, 101.066 145.686 C 96.152 148.884, 91.905 152.024, 91.629 152.665 C 91.353 153.306, 91.467 155.106, 91.881 156.665 C 92.962 160.733, 95.832 160.692, 100.682 156.540 C 102.957 154.593, 105.283 153, 105.852 153 C 106.420 153, 108.426 152.091, 110.309 150.980 C 112.192 149.869, 114.446 149.234, 115.317 149.568 C 116.188 149.902, 119.736 155.746, 123.200 162.555 C 130.994 177.870, 134.341 184.217, 136.964 188.663 C 139.912 193.660, 139.547 195.363, 134.250 201.322 C 131.637 204.260, 126.042 210.712, 121.815 215.659 C 117.588 220.607, 111.513 227.355, 108.315 230.655 C 105.117 233.956, 100.219 239.096, 97.431 242.078 C 84.845 255.542, 64.003 272.080, 56.500 274.558 C 53.855 275.431, 53.500 276.005, 53.500 279.415 C 53.500 286.968, 57.842 286.790, 68.869 278.782 C 72.869 275.877, 77.573 272.487, 79.321 271.250 C 84.148 267.833, 97.763 255.291, 104.500 248.056 C 107.800 244.512, 114.663 237.168, 119.751 231.736 C 124.839 226.304, 131.981 218.043, 135.623 213.380 C 139.807 208.021, 142.832 205.014, 143.841 205.208 C 144.719 205.377, 147.541 209.698, 150.112 214.811 C 152.683 219.923, 155.582 224.985, 156.554 226.060 C 157.527 227.135, 158.812 228.862, 159.411 229.898 C 160.395 231.600, 162.826 235.144, 173.412 250.314 C 177.965 256.838, 180.655 259.583, 185.899 263.056 C 191.519 266.779, 193.098 266.748, 197.006 262.840 C 199.916 259.931, 200.128 259.275, 199.676 254.590 C 198.993 247.513, 196.603 237.435, 194.200 231.500 C 193.087 228.750, 191.926 225.713, 191.619 224.750 C 190.970 222.707, 187.171 222.391, 186.431 224.319 C 186.153 225.044, 186.413 230.332, 187.010 236.069 C 188.654 251.886, 188.658 251.405, 186.886 251.766 C 185.870 251.973, 184.689 250.874, 183.694 248.797 C 182.827 246.984, 179.621 242.575, 176.572 239 C 173.523 235.425, 171.021 232.007, 171.014 231.405 C 171.006 230.803, 170.117 229.511, 169.038 228.535 C 167.959 227.558, 166.213 225.126, 165.158 223.130 C 164.102 221.133, 161.549 216.350, 159.485 212.500 C 151.601 197.800, 150.719 195.657, 151.882 194.032 C 152.485 193.189, 153.845 190.925, 154.903 189 C 155.961 187.075, 159.566 181.677, 162.914 177.003 C 166.261 172.330, 169 168.012, 169 167.408 C 169 166.804, 169.848 165.542, 170.885 164.604 C 171.922 163.666, 173.043 161.534, 173.376 159.868 C 173.710 158.201, 174.886 155.689, 175.991 154.284 C 177.096 152.879, 178 150.468, 178 148.924 C 178 147.381, 178.439 145.846, 178.976 145.515 C 179.952 144.911, 180.159 137.106, 179.289 133.692 C 178.987 132.507, 178.082 131.990, 176.666 132.192 C 174.961 132.435, 174.186 133.700, 173.002 138.171 C 172.176 141.289, 170.037 145.915, 168.250 148.450 C 166.463 150.985, 165 153.257, 165 153.500 C 165 153.744, 162.975 157.368, 160.500 161.554 C 158.025 165.740, 156 169.388, 156 169.659 C 156 169.931, 154.200 172.667, 152 175.740 C 149.800 178.812, 148 181.927, 148 182.663 C 148 185.056, 144.533 184.056, 143.250 181.293 C 142.563 179.812, 142 178.277, 142 177.880 C 142 177.483, 139.750 173.531, 137 169.097 C 134.250 164.663, 132 160.732, 132 160.362 C 132 159.992, 130.875 158.214, 129.500 156.411 C 128.125 154.608, 127 152.612, 127 151.974 C 127 151.337, 126.100 149.671, 125 148.273 C 122.181 144.689, 122.443 143.697, 127.250 139.757 C 136.432 132.230, 137.672 130.671, 138.413 125.731 C 139.466 118.711, 137.239 118.397, 130.671 124.638 C 120.595 134.211, 120.244 134.448, 118.398 132.915 C 117.484 132.157, 114.535 126.960, 111.843 121.366 C 106.880 111.052, 104.151 108.183, 101.667 110.667 M 17.750 146.572 C 16.791 147.546, 16.802 153.158, 17.765 154.597 C 18.169 155.201, 21.391 155.990, 24.924 156.350 C 36.236 157.504, 38.516 161.369, 38.410 179.207 C 38.351 189.099, 38.638 192.031, 39.705 192.440 C 41.609 193.171, 42.358 190.641, 41.615 185.991 C 41.172 183.224, 41.581 180.494, 42.992 176.779 C 45.552 170.045, 45.560 162.473, 43.015 156.534 C 41.330 152.603, 40.234 151.542, 35.765 149.513 C 30.353 147.056, 19.085 145.216, 17.750 146.572 M 62.953 180.056 C 61.604 181.737, 59.313 184.552, 57.863 186.310 C 54.488 190.402, 46 203.042, 46 203.977 C 46 205.265, 42.377 208, 40.671 208 C 39.471 208, 39 207.131, 39 204.917 C 39 200.646, 36.586 201.656, 36.204 206.087 C 35.962 208.891, 36.538 210.129, 39.354 212.858 C 43.660 217.032, 45.151 216.649, 51.756 209.664 C 55.497 205.708, 57.175 202.909, 58.467 198.467 C 59.414 195.209, 60.987 191.409, 61.964 190.022 C 65.046 185.642, 68.099 178.969, 67.479 177.966 C 66.503 176.387, 65.541 176.832, 62.953 180.056" stroke="none" fill="black" fill-rule="evenodd"/>
</svg>