<svg xmlns="http://www.w3.org/2000/svg" width="300" height="300" viewBox="0 0 300 300" version="1.1">
	<path d="M 135.250 23.662 C 134.393 24.008, 134 26.743, 134 32.371 L 134 40.576 127.593 44.788 C 124.070 47.105, 120.711 49, 120.129 49 C 118.056 49, 116.974 45.070, 117.594 39.791 C 118.133 35.198, 117.932 34.245, 116.072 32.563 C 113.951 30.646, 113.909 30.647, 111.920 32.636 C 110.210 34.346, 109.894 36.051, 109.803 44.073 C 109.744 49.258, 109.241 54.085, 108.685 54.800 C 107.566 56.236, 101.573 59.083, 95.683 60.974 C 91.062 62.458, 89.430 65.370, 90.962 69.399 C 91.926 71.935, 92.388 72.172, 95.246 71.601 C 97.009 71.248, 100.061 69.844, 102.029 68.480 C 109.301 63.440, 111.286 66.241, 110.903 81 C 110.767 86.225, 111.029 95.225, 111.485 101 C 112.569 114.715, 112.423 125.634, 111.070 132.203 C 110.469 135.116, 109.870 141.967, 109.739 147.427 L 109.500 157.355 102.500 161.092 C 95.002 165.095, 94.787 165.203, 82.200 171.241 C 73.286 175.517, 70.667 178.236, 71.177 182.685 C 71.483 185.353, 71.746 185.492, 76.195 185.343 C 79.581 185.229, 81.870 184.439, 84.402 182.507 C 88.293 179.539, 88.974 179.155, 107.500 169.496 C 119.025 163.487, 133.729 157.428, 142.500 155.072 C 144.150 154.629, 146.850 153.570, 148.500 152.720 C 151.781 151.029, 154.684 149.747, 166 144.995 C 175.295 141.092, 178.957 138.038, 179.679 133.591 C 180.142 130.735, 179.826 129.932, 177.682 128.527 C 174.692 126.568, 172.393 127.413, 169.009 131.716 C 166.805 134.517, 156.969 140.289, 152.477 141.416 C 150.838 141.828, 149.827 141.603, 149.587 140.775 C 147.749 134.427, 146.935 124.909, 146.440 104 C 146.122 90.525, 145.697 77.025, 145.496 74 C 144.384 57.246, 145.206 47.012, 147.854 44.658 C 148.760 43.853, 152.808 41.496, 156.852 39.420 C 164.784 35.348, 167.496 32.031, 164.927 29.545 C 162.333 27.034, 159.404 27.460, 152.959 31.286 C 144.932 36.049, 143.523 35.857, 143.427 29.982 C 143.366 26.283, 142.930 25.284, 140.927 24.265 C 138.361 22.959, 137.278 22.844, 135.250 23.662 M 129.886 53.755 C 120.665 59.912, 120.220 60.378, 119.655 64.497 C 119.342 66.787, 119.785 71.388, 120.671 75.032 C 121.536 78.589, 122.245 83.412, 122.247 85.750 C 122.253 91.138, 123.744 91.198, 127.558 85.963 C 129.176 83.742, 131.960 81.291, 133.744 80.516 L 136.989 79.107 136.358 66.803 C 135.788 55.700, 134.979 51.990, 133.128 52.005 C 132.782 52.008, 131.324 52.796, 129.886 53.755 M 44.250 79.134 C 43.563 79.830, 43 81.875, 43 83.677 C 43 86.162, 43.665 87.376, 45.750 88.701 C 49.284 90.947, 51.983 93.910, 53.081 96.750 C 54.401 100.165, 58.355 99.709, 60.791 95.861 L 62.778 92.723 60.372 87.932 C 56.914 81.047, 47.456 75.885, 44.250 79.134 M 129.894 97.282 C 127.477 99.086, 124.263 101.102, 122.750 101.760 C 119.949 102.979, 119.003 106.266, 121.082 107.551 C 121.707 107.937, 122.024 110.392, 121.832 113.360 C 121.539 117.890, 121.718 118.463, 123.336 118.186 C 124.347 118.014, 126.470 116.395, 128.055 114.590 C 129.640 112.784, 132.414 110.884, 134.219 110.366 C 136.694 109.656, 137.482 108.882, 137.429 107.213 C 137.389 105.996, 137.277 102.525, 137.179 99.500 C 136.965 92.927, 136.084 92.658, 129.894 97.282 M 132.327 124.289 C 130.772 125.548, 128.320 127.087, 126.878 127.709 C 123.265 129.268, 119.279 137.427, 121.074 139.590 C 121.814 140.480, 122.257 143.207, 122.126 146.064 C 121.861 151.889, 121.751 151.865, 131.954 148.187 L 139.408 145.500 139.118 135 C 138.751 121.699, 137.656 119.973, 132.327 124.289 M 25.058 129.342 C 23.141 131.259, 23.847 135.853, 26.306 137.465 C 28.254 138.741, 29.494 138.791, 34.294 137.784 C 39.514 136.689, 40.201 136.759, 42.738 138.645 C 44.643 140.061, 45.589 141.753, 45.786 144.099 C 46.130 148.195, 47.917 153, 49.096 153 C 50.323 153, 53 147.482, 53 144.954 C 53 140.512, 49.817 131.927, 47.671 130.579 C 44.916 128.849, 26.555 127.845, 25.058 129.342 M 66.621 155.463 C 65.272 156.919, 62.972 161.123, 61.510 164.805 C 60.047 168.487, 57.560 174.200, 55.982 177.500 C 54.405 180.800, 51.626 186.619, 49.807 190.432 C 47.988 194.245, 45.938 197.545, 45.251 197.765 C 43.482 198.333, 42.474 195.073, 43.774 192.991 C 45.611 190.049, 46.321 184.316, 44.953 183.471 C 43.027 182.281, 40.047 187.012, 40.022 191.300 C 40.010 193.389, 39.283 196.486, 38.407 198.180 C 37.054 200.797, 36.999 201.924, 38.044 205.657 C 38.721 208.074, 39.657 210.288, 40.124 210.576 C 42.090 211.791, 48.392 208.885, 51.556 205.304 C 53.404 203.212, 54.935 201.026, 54.958 200.446 C 54.981 199.866, 56.262 197.391, 57.804 194.946 C 59.345 192.501, 61.343 187.350, 62.242 183.500 C 64.359 174.434, 66.955 166.908, 68.652 164.921 C 69.393 164.053, 70 162.336, 70 161.106 C 70 159.875, 70.441 158.045, 70.979 157.039 C 71.687 155.717, 71.558 154.878, 70.516 154.013 C 69.355 153.049, 68.597 153.331, 66.621 155.463 M 107.750 185.080 C 106.787 185.641, 106 186.610, 106 187.234 C 106 189.540, 101.515 197.673, 97.074 203.419 C 90.730 211.629, 85.042 216.798, 81.500 217.574 C 77.903 218.362, 76 219.758, 76 221.610 C 76 223.643, 83.760 228.211, 86.004 227.499 C 88.026 226.857, 99.553 215.586, 104.500 209.414 C 109.840 202.750, 113.513 196.600, 114.874 192.042 C 116.132 187.829, 116.084 187.486, 113.992 185.792 C 111.485 183.762, 110.254 183.622, 107.750 185.080 M 148.199 184.986 C 143.660 186.062, 143.139 186.879, 145.682 188.941 C 147 190.010, 150.525 190.983, 154.595 191.399 C 159.855 191.938, 163.204 193.089, 169.913 196.661 C 174.636 199.176, 179.210 201.856, 180.079 202.617 C 180.947 203.377, 182.340 204, 183.174 204 C 184.008 204, 185.547 204.948, 186.595 206.106 C 187.643 207.265, 190.177 209.069, 192.228 210.115 C 201.105 214.646, 215 225.631, 215 228.118 C 215 231.112, 225.285 241, 228.400 241 C 231.330 241, 234.008 237.655, 233.983 234.027 C 233.959 230.547, 224.136 220.291, 216.413 215.684 C 213.065 213.687, 209.240 211, 207.913 209.713 C 204.154 206.067, 185.631 194.320, 179.773 191.867 C 176.873 190.652, 174.050 189.325, 173.500 188.918 C 172.950 188.510, 170.025 187.237, 167 186.089 C 161.388 183.959, 154.296 183.543, 148.199 184.986" stroke="none" fill="black" fill-rule="evenodd"/>
</svg>