<svg xmlns="http://www.w3.org/2000/svg" width="300" height="300" viewBox="0 0 300 300" version="1.1">
	<path d="M 135.379 28.417 C 133.264 31.740, 133.264 31.771, 135.079 40.125 C 136.351 45.979, 136.914 52.879, 136.950 63.050 C 136.977 71.053, 137.429 78.029, 137.954 78.554 C 139.012 79.612, 139.506 85.026, 139.201 92.215 C 139.047 95.829, 138.518 97.187, 136.936 98.034 C 134.113 99.545, 132.004 97.668, 131.985 93.628 C 131.970 90.485, 129.964 83.631, 128.685 82.352 C 128.308 81.975, 128 80.236, 128 78.488 C 128 73.369, 122.046 69.820, 119.212 73.250 C 117.576 75.230, 116.665 81.675, 117.913 82.446 C 120.427 84, 123.100 92.124, 122.800 97.303 C 122.512 102.280, 122.335 102.572, 118.500 104.359 C 116.300 105.385, 114.350 106.623, 114.167 107.112 C 113.983 107.600, 112.948 108, 111.867 108 C 109.106 108, 104.362 110.615, 103.621 112.545 C 101.342 118.484, 105.063 122.409, 110.429 119.727 C 112.118 118.883, 115.525 117.309, 118 116.229 C 120.475 115.149, 124.075 113.578, 126 112.738 C 127.925 111.898, 131.613 110.264, 134.195 109.106 C 136.777 107.947, 139.767 107, 140.839 107 C 141.911 107, 147.223 105.244, 152.644 103.098 C 158.065 100.951, 164.840 98.432, 167.700 97.499 C 173.888 95.480, 176.779 92.006, 175.184 88.505 C 173.381 84.548, 170.004 84.665, 160.599 89.010 C 155.850 91.205, 151.522 93, 150.982 93 C 150.413 93, 150 89.248, 150 84.073 L 150 75.147 157.250 69.293 C 164.463 63.469, 168.351 58.079, 167.306 55.354 C 167.004 54.569, 165.447 53.248, 163.845 52.420 C 161.047 50.973, 160.826 51.029, 158.216 53.835 C 156.722 55.442, 153.973 58.632, 152.106 60.924 C 146.994 67.202, 145.518 66.224, 145.416 56.486 C 145.135 29.853, 141.297 19.119, 135.379 28.417 M 50.978 81.250 C 50.443 82.487, 49.482 84.226, 48.843 85.114 C 47.145 87.474, 48.431 89.716, 51.922 90.483 C 54.829 91.121, 56.384 93.238, 58.362 99.250 C 59.128 101.580, 62.263 101.472, 64.464 99.039 C 67.494 95.692, 65.776 88.458, 60.714 83.250 C 56.029 78.429, 52.510 77.706, 50.978 81.250 M 137.411 114.098 C 135.783 115.897, 135.501 117.881, 135.431 128.007 C 135.366 137.439, 135 140.351, 133.613 142.468 C 132.658 143.926, 132.017 146.104, 132.188 147.309 C 132.453 149.168, 133.098 149.480, 136.445 149.369 C 144.460 149.102, 147.454 139.918, 145.462 121.708 C 144.892 116.493, 144.236 114.578, 142.637 113.458 C 139.942 111.571, 139.668 111.604, 137.411 114.098 M 160 127.709 C 157.314 128.697, 155 131.267, 155 133.262 C 155 134.605, 155.478 135.030, 156.533 134.626 C 157.376 134.302, 160.295 135.267, 163.019 136.769 C 167.757 139.382, 167.972 139.686, 167.986 143.795 C 168 148.131, 168.008 148.117, 156.030 165.382 C 154.745 167.234, 151.205 171.490, 133.055 193 C 127.288 199.835, 114.642 214.435, 113.999 215 C 113.687 215.275, 112.409 216.850, 111.159 218.500 C 107.207 223.720, 90.720 239.975, 85 244.292 C 81.975 246.575, 76.125 251.205, 72 254.580 C 62.824 262.090, 59.220 264.005, 54.300 263.985 C 49.520 263.965, 48.120 263.075, 47.115 259.415 C 46.292 256.416, 44.009 255.950, 41.250 258.217 C 38.187 260.735, 42.112 268.455, 48.002 271.501 C 51.269 273.190, 58.142 273.485, 60.764 272.048 C 61.719 271.525, 64.300 270.311, 66.500 269.351 C 68.700 268.390, 72.300 266.103, 74.500 264.268 C 76.700 262.434, 82.550 257.751, 87.500 253.862 C 100.808 243.408, 126.358 217.932, 131.968 209.524 C 132.811 208.261, 137.887 202.027, 143.250 195.671 C 148.613 189.315, 153 183.661, 153 183.107 C 153 182.553, 153.613 181.740, 154.362 181.300 C 155.871 180.414, 166.543 167.731, 172 160.339 C 176.978 153.596, 178.910 149.878, 178.958 146.950 C 178.981 145.548, 179.428 143.972, 179.951 143.449 C 182.256 141.144, 177.789 131.751, 172.500 127.781 C 171.362 126.927, 162.269 126.875, 160 127.709 M 41.532 141.119 C 38.149 143.661, 36.821 144.057, 32.532 143.800 L 27.500 143.500 27.194 147.185 C 26.951 150.106, 27.329 151.105, 29.018 152.010 C 31.640 153.413, 38.023 152.476, 43.409 149.898 C 46.086 148.617, 48.466 148.211, 50.958 148.609 C 55.484 149.333, 57.555 147.348, 56.531 143.269 C 55.465 139.019, 54.104 137.994, 49.628 138.068 C 46.672 138.118, 44.373 138.984, 41.532 141.119 M 104.228 140.230 C 101.719 141.439, 100.672 144.292, 101.172 148.551 C 101.404 150.527, 102.522 151.912, 105 153.291 C 108.161 155.051, 109.235 155.136, 116.086 154.168 C 123.869 153.067, 129.982 150.466, 129.994 148.250 C 130.001 146.871, 128.381 146.607, 119.522 146.543 C 113.612 146.500, 113.524 146.457, 111.764 142.750 C 109.901 138.825, 108.274 138.281, 104.228 140.230 M 63.670 160.812 C 62.101 162.545, 58.748 170.781, 55.245 181.500 C 54.347 184.250, 52.574 188.179, 51.306 190.230 C 50.038 192.282, 49 194.451, 49 195.051 C 49 195.651, 46.975 198.979, 44.500 202.448 C 39.484 209.477, 38.598 214.421, 41.829 217.345 C 44.155 219.450, 45.306 219.430, 47.254 217.250 C 49.422 214.825, 53.613 206.737, 55.031 202.242 C 55.680 200.184, 57.366 196.025, 58.777 193 C 60.188 189.975, 61.307 185.930, 61.264 184.012 C 61.220 182.093, 61.606 179.737, 62.121 178.774 C 63.131 176.887, 66.959 162.306, 66.985 160.250 C 67.007 158.464, 65.576 158.707, 63.670 160.812" stroke="none" fill="black" fill-rule="evenodd"/>
</svg>