<svg xmlns="http://www.w3.org/2000/svg" width="300" height="300" viewBox="0 0 300 300" version="1.1">
	<path d="M 191.223 26.557 C 189.520 27.749, 189 29.105, 189 32.357 C 189 34.691, 189.534 37.134, 190.186 37.786 C 190.838 38.438, 191.981 44.941, 192.725 52.236 C 194.966 74.199, 195.516 78.448, 196.275 79.655 C 196.674 80.291, 197.024 88.757, 197.052 98.470 C 197.080 108.183, 197.532 119.813, 198.057 124.315 C 198.581 128.817, 199.291 137.225, 199.634 143 C 199.977 148.775, 200.435 156.200, 200.651 159.500 C 200.867 162.800, 201.250 184.486, 201.502 207.690 C 201.883 242.791, 201.698 251.445, 200.403 259.190 C 199.547 264.311, 198.606 270.221, 198.311 272.324 C 197.678 276.850, 196.198 277.677, 192.340 275.659 C 188.538 273.671, 177.478 262.717, 174.484 257.974 C 173.162 255.881, 171.612 253.878, 171.038 253.523 C 170.464 253.169, 169.131 250.982, 168.075 248.665 C 165.761 243.585, 162.629 240.545, 160.537 241.347 C 158.248 242.226, 158.675 246.242, 161.500 250.405 C 162.875 252.431, 164 254.467, 164 254.930 C 164 257.310, 173.253 270.875, 181.247 280.216 C 196.594 298.148, 208 296.934, 208 277.369 C 208 273.794, 208.445 270.038, 208.988 269.023 C 210.720 265.787, 211.200 256.351, 211.486 220 C 211.755 185.733, 210.307 146.638, 207.960 124.832 C 207.387 119.514, 206.689 106.689, 206.407 96.332 C 206.126 85.974, 205.502 76.150, 205.021 74.500 C 204.540 72.850, 203.847 66.100, 203.481 59.500 C 203.114 52.900, 202.148 44.800, 201.334 41.500 C 200.519 38.200, 199.444 33.557, 198.944 31.183 C 198.444 28.809, 197.776 26.446, 197.459 25.933 C 196.588 24.524, 193.714 24.812, 191.223 26.557 M 125.453 58.052 C 122.336 61.497, 108.239 70.398, 98.694 74.950 L 89.888 79.149 90.194 82.824 C 90.494 86.424, 90.581 86.495, 94.391 86.264 C 96.687 86.124, 100.208 84.791, 102.979 83.014 C 108.034 79.770, 111 79.168, 111 81.386 C 111 82.148, 111.672 84.060, 112.494 85.636 C 114.307 89.111, 114.311 95.553, 112.510 107.500 C 111.197 116.207, 107.978 130.931, 106.716 134 C 106.376 134.825, 105.628 137.341, 105.054 139.591 C 103.349 146.262, 101.455 147.307, 92.573 146.475 C 86.396 145.896, 84.547 146.067, 82.503 147.406 C 79.324 149.489, 79.362 150.106, 82.901 153.894 C 85.206 156.361, 86.620 157, 89.779 157 C 94.044 157, 96.402 158.789, 95.440 161.295 C 94.520 163.694, 96.795 167, 99.366 167 C 100.941 167, 102.675 165.588, 104.893 162.500 C 107.910 158.298, 111.111 156.753, 112.419 158.869 C 112.714 159.346, 114.783 160.029, 117.016 160.387 C 119.249 160.744, 121.300 161.618, 121.573 162.330 C 122.251 164.098, 115.884 174.880, 107.826 185.608 C 103.835 190.922, 96.389 196.924, 91.283 198.943 C 86.495 200.836, 85.620 202.346, 88.040 204.536 C 89.794 206.123, 90.523 206.213, 93.357 205.188 C 95.164 204.535, 97.612 204, 98.797 204 C 104.870 204, 119.303 189.508, 124.885 177.806 C 126.117 175.224, 128.074 171.904, 129.235 170.429 C 131.372 167.712, 133.325 164.296, 137.579 155.832 C 138.870 153.265, 140.392 150.876, 140.963 150.523 C 141.533 150.170, 142 148.199, 142 146.141 C 142 144.083, 142.540 141.860, 143.201 141.199 C 143.997 140.403, 144.418 135.923, 144.451 127.908 L 144.500 115.818 141.500 113.414 C 137.316 110.061, 130.859 110.099, 126.818 113.500 C 123.848 115.999, 121.514 116.663, 120.671 115.250 C 120.425 114.838, 120.982 108.425, 121.909 101 C 123.652 87.044, 123.300 82.470, 120.199 78.787 C 117.958 76.124, 119.446 74.183, 125.862 71.401 C 130.251 69.497, 132.247 67.956, 133.616 65.415 C 135.346 62.202, 135.357 61.824, 133.801 59.246 C 131.690 55.747, 128.014 55.222, 125.453 58.052 M 49.413 81.943 C 44.339 83.156, 43.752 83.863, 44.500 87.865 C 45.429 92.840, 46.834 94.283, 50.107 93.629 C 53.303 92.989, 54.691 94.326, 55.162 98.500 C 55.454 101.091, 55.909 101.500, 58.500 101.500 C 61.009 101.500, 61.551 101.062, 61.809 98.823 C 61.980 97.351, 62.767 95.608, 63.559 94.951 C 66.722 92.326, 63.621 85.407, 57.971 82.485 C 54.860 80.876, 54.081 80.827, 49.413 81.943 M 163.750 84.289 C 161.825 85.816, 160.631 92.329, 161.840 94.705 C 165.265 101.430, 168.432 122.979, 167.722 134.721 C 167.181 143.673, 167.957 145.428, 172.191 144.827 C 173.720 144.610, 175.097 143.213, 176.295 140.663 C 178.010 137.013, 178.019 136.090, 176.489 121.663 C 174.126 99.391, 172.264 88.950, 170.262 86.737 C 167.522 83.709, 165.458 82.933, 163.750 84.289 M 129.024 122.471 C 128.353 123.280, 126.258 124.500, 124.370 125.183 C 120.247 126.674, 115.901 133.021, 113.588 140.932 C 111.651 147.556, 111.607 149, 113.340 149 C 114.077 149, 117.520 150.419, 120.991 152.154 C 128.415 155.863, 128.846 155.611, 130.998 146.291 C 131.734 143.106, 132.672 140.050, 133.083 139.500 C 134.595 137.475, 135.323 124.094, 134.006 122.507 C 132.423 120.599, 130.588 120.586, 129.024 122.471 M 32.250 127.662 C 31.558 127.941, 31 129.861, 31 131.961 C 31 134.048, 31.563 136.210, 32.250 136.766 C 32.938 137.322, 36.362 138.102, 39.861 138.500 C 46.806 139.288, 49.491 141.090, 50.633 145.725 C 51.675 149.955, 54.115 153.285, 55.302 152.098 C 56.516 150.884, 56.698 143.916, 55.653 138.702 C 54.738 134.140, 50.359 131.009, 44.885 131.004 C 42.789 131.002, 40.201 130.160, 38.727 129 C 36.203 127.014, 34.650 126.694, 32.250 127.662 M 74.824 159.267 C 73.992 159.945, 71.841 164.325, 70.043 169 C 66.946 177.050, 65.456 180.099, 60.021 189.500 C 58.749 191.700, 56.650 195.589, 55.356 198.142 C 53.368 202.063, 51.405 204, 49.418 204 C 48.466 204, 49.093 197.824, 50.230 196.003 C 51.242 194.382, 51.171 193.742, 49.826 192.398 C 46.807 189.378, 45.377 192.411, 44.338 204.042 C 43.395 214.605, 49.137 216.854, 57.900 209.354 C 60.174 207.407, 62.968 203.719, 64.110 201.157 C 65.251 198.596, 66.748 196.050, 67.437 195.500 C 69.813 193.604, 75 180.907, 75 176.989 C 75 174.860, 75.450 172.840, 76 172.500 C 76.550 172.160, 77 170.810, 77 169.500 C 77 168.190, 77.450 166.840, 78 166.500 C 79.457 165.600, 79.224 160.431, 77.668 159.139 C 76.688 158.326, 75.936 158.360, 74.824 159.267" stroke="none" fill="black" fill-rule="evenodd"/>
</svg>