<svg xmlns="http://www.w3.org/2000/svg" width="300" height="300" viewBox="0 0 300 300" version="1.1">
	<path d="M 151.500 50.917 C 148.750 51.904, 144.745 53.904, 142.600 55.363 C 137.837 58.601, 132.777 65.255, 133.548 67.266 C 133.876 68.119, 133.398 69.017, 132.417 69.394 C 130.454 70.147, 126 67.564, 126 65.673 C 126 64.969, 124.425 62.866, 122.500 61 C 120.575 59.134, 119 57.104, 119 56.489 C 119 55.874, 117.408 54.611, 115.462 53.683 C 112.041 52.052, 111.827 52.068, 108.962 54.186 C 105.184 56.980, 105.210 59.356, 109.049 62.195 C 112.428 64.693, 120 74.271, 120 76.047 C 120 76.670, 120.922 77.927, 122.049 78.840 C 124.337 80.693, 125.707 85.169, 127.117 95.397 C 127.958 101.494, 128.493 102.681, 131.730 105.647 C 133.743 107.491, 136.151 109, 137.079 109 C 138.008 109, 140.283 107.181, 142.134 104.957 C 148.934 96.789, 150.893 95, 153.034 95 C 154.992 95, 155.154 95.367, 154.569 98.486 C 154.209 100.403, 154.375 102.833, 154.938 103.885 C 155.828 105.548, 155.426 106.012, 151.863 107.438 C 149.609 108.340, 146.312 110.186, 144.538 111.539 C 142.763 112.893, 140.767 114, 140.101 114 C 139.436 114, 137.453 115.348, 135.696 116.996 C 133.938 118.644, 131.074 120.262, 129.332 120.592 C 125.188 121.377, 123.303 125.377, 125.159 129.450 C 126.358 132.082, 126.687 132.197, 131.394 131.640 C 135.196 131.189, 137.201 130.259, 139.932 127.677 C 144.645 123.220, 152.536 119, 156.157 119 C 158.014 119, 159.293 118.369, 159.702 117.250 C 160.053 116.287, 161.176 114.412, 162.196 113.082 C 164.031 110.691, 164.022 110.632, 161.339 107.832 C 159.341 105.746, 159.039 105, 160.194 105 C 162.202 105, 166.464 99.394, 167.417 95.500 C 167.821 93.850, 169.468 90.356, 171.076 87.735 C 172.684 85.114, 174 81.717, 174 80.185 C 174 78.653, 174.442 76.958, 174.982 76.418 C 175.522 75.878, 176.082 71.602, 176.226 66.916 C 176.434 60.161, 176.125 57.840, 174.735 55.718 C 170.885 49.842, 160.483 47.693, 151.500 50.917 M 157.565 64.418 C 157.200 66.848, 156.249 69.378, 155.452 70.040 C 153.519 71.644, 154.165 79.420, 156.441 81.935 C 158.598 84.318, 162.799 85.411, 164.470 84.025 C 165.174 83.441, 166.031 80.722, 166.375 77.982 C 166.719 75.242, 167.276 70.811, 167.614 68.137 C 168.161 63.807, 167.972 63.093, 165.892 61.637 C 164.606 60.736, 162.356 60, 160.891 60 C 158.508 60, 158.157 60.465, 157.565 64.418 M 141.902 65.563 C 139.481 67.575, 137.318 69.719, 137.095 70.326 C 136.872 70.934, 135.777 72.170, 134.662 73.073 C 132.957 74.453, 132.669 75.734, 132.852 81.107 C 133.332 95.226, 134.372 98.596, 137.458 96.035 C 138.306 95.331, 139 93.878, 139 92.806 C 139 91.734, 139.675 90.182, 140.500 89.357 C 141.376 88.482, 142 86.038, 142 83.488 C 142 81.084, 142.450 78.840, 143 78.500 C 143.550 78.160, 144 76.810, 144 75.500 C 144 74.190, 144.438 72.847, 144.973 72.517 C 146.495 71.576, 148.283 63.883, 147.225 62.825 C 146.664 62.264, 144.584 63.334, 141.902 65.563 M 62.615 81.880 C 58.860 85.799, 59.183 91.019, 63.247 92.097 C 66.494 92.958, 72 97.883, 72 99.926 C 72 100.713, 71.460 102.852, 70.799 104.678 C 69.877 107.230, 69.872 108.272, 70.779 109.179 C 72.333 110.733, 77 108.364, 77 106.022 C 77 105.120, 77.661 103.509, 78.468 102.441 C 80.363 99.936, 80.405 93.118, 78.550 89.404 C 76.909 86.119, 68.832 79, 66.747 79 C 65.992 79, 64.132 80.296, 62.615 81.880 M 45.592 134.898 C 44.623 135.969, 43.589 138.645, 43.294 140.846 C 42.842 144.216, 43.164 145.255, 45.333 147.424 C 46.750 148.841, 48.994 150, 50.320 150 C 54.225 150, 57.461 153.349, 58.993 158.975 C 59.765 161.808, 60.737 164.338, 61.154 164.595 C 62.716 165.561, 65.254 160.022, 64.645 156.976 C 63.364 150.569, 59.880 144.193, 57.012 143.005 C 53.608 141.595, 50.326 138.195, 49.850 135.583 C 49.358 132.888, 47.659 132.615, 45.592 134.898 M 176.500 150.668 C 174.850 150.870, 171.700 151.458, 169.500 151.974 C 167.300 152.490, 162.350 153.642, 158.500 154.534 C 148.446 156.863, 134.400 164.143, 127.008 170.857 C 121.007 176.308, 120.838 176.594, 122.058 179.250 C 123.757 182.949, 125.355 182.727, 131.736 177.910 C 134.715 175.660, 137.287 173.973, 137.451 174.160 C 137.615 174.347, 138.181 180.320, 138.709 187.434 C 139.567 199.015, 139.894 200.518, 141.834 201.806 C 143.025 202.597, 144 203.987, 144 204.895 C 144 206.941, 138.820 209.652, 133.500 210.391 C 130.197 210.849, 113.736 213.886, 100.500 216.479 C 89.098 218.713, 73.939 222.543, 71 223.933 C 66.852 225.894, 66.119 228.691, 68.865 232.081 C 70.703 234.349, 71.035 234.415, 74.163 233.150 C 75.998 232.407, 82.594 230.727, 88.820 229.416 C 95.046 228.104, 100.655 226.713, 101.284 226.325 C 101.912 225.936, 104.243 225.302, 106.463 224.915 C 108.684 224.528, 114.325 223.517, 119 222.669 C 127.414 221.142, 137.359 219.503, 148 217.889 C 161.387 215.859, 180.906 215.098, 195 216.055 C 202.975 216.597, 214.225 217.240, 220 217.484 C 230.378 217.922, 238.774 218.964, 248.500 221.022 C 251.250 221.604, 256.016 222.496, 259.091 223.004 C 262.166 223.513, 265.908 224.395, 267.406 224.964 C 272.270 226.814, 274.792 226.194, 278.459 222.250 C 282.562 217.838, 282.805 216.105, 279.727 213.213 C 277.716 211.324, 275.894 211.009, 263.977 210.485 C 256.564 210.159, 246.562 209.263, 241.748 208.494 C 233.115 207.115, 220.818 206.336, 195.640 205.571 C 188.245 205.347, 182.319 204.719, 181.693 204.093 C 180.910 203.310, 181.214 202.236, 182.781 200.253 C 185.919 196.281, 193 181.578, 193 179.033 C 193 177.842, 193.447 176.034, 193.992 175.015 C 194.538 173.995, 195.438 169.961, 195.993 166.050 C 197.984 152.011, 193.620 148.568, 176.500 150.668 M 82.667 159.667 C 82.300 160.033, 82 161.401, 82 162.707 C 82 164.012, 81.161 166.749, 80.135 168.790 C 79.110 170.830, 77.954 174.243, 77.567 176.373 C 77.180 178.503, 76.475 180.978, 76 181.873 C 75.526 182.768, 73.743 186.489, 72.038 190.143 C 68.837 197.001, 63.551 205.012, 62.244 204.985 C 61.835 204.976, 60.873 204.572, 60.106 204.086 C 58.952 203.356, 58.918 202.382, 59.907 198.454 C 60.677 195.396, 60.759 193.359, 60.137 192.737 C 58.477 191.077, 56.259 197.011, 55.499 205.143 C 54.848 212.109, 54.972 212.972, 56.893 214.893 C 60.137 218.137, 62.807 217.494, 67.893 212.245 C 73.041 206.931, 77.954 200.868, 77.982 199.794 C 77.992 199.406, 79.125 197.431, 80.500 195.405 C 81.875 193.379, 83 190.734, 83 189.527 C 83 188.321, 83.281 187.052, 83.624 186.709 C 83.968 186.365, 84.388 181.592, 84.558 176.101 C 84.728 170.610, 85.378 165.162, 86.003 163.995 C 87.553 161.098, 84.803 157.531, 82.667 159.667 M 180.500 161.055 C 179.400 161.498, 175.714 161.891, 172.309 161.930 C 165.840 162.003, 163.484 163.419, 166.347 165.512 C 168.157 166.835, 168.594 171.515, 167 172.500 C 166.450 172.840, 166 174.662, 166 176.548 C 166 178.435, 165.100 182.346, 164.001 185.239 C 162.901 188.133, 162.001 191.231, 162.001 192.124 C 162 193.017, 159.435 196.617, 156.301 200.124 C 150.700 206.391, 150.647 206.505, 153.235 206.810 C 154.683 206.981, 157.225 206.418, 158.884 205.560 C 160.543 204.702, 162.968 204, 164.271 204 C 167.401 204, 174.872 196.755, 177.691 190.985 C 181.059 184.092, 184.683 173.062, 185.463 167.330 C 186.065 162.900, 185.903 162.022, 184.333 161.205 C 183.325 160.681, 181.600 160.613, 180.500 161.055 M 152.641 166.598 C 149.698 168.598, 148.944 169.678, 149.365 171.289 C 149.666 172.440, 149.195 174.893, 148.319 176.741 C 147.103 179.303, 146.976 180.652, 147.784 182.425 C 148.367 183.704, 148.595 186.598, 148.292 188.857 C 147.854 192.126, 148.087 193.096, 149.438 193.615 C 150.371 193.973, 151.580 193.820, 152.125 193.275 C 153.093 192.307, 155.316 183.439, 157.061 173.584 C 157.540 170.880, 158.397 168.203, 158.966 167.634 C 160.586 166.014, 160.179 164, 158.232 164 C 157.260 164, 154.744 165.169, 152.641 166.598 M 100.250 171.662 C 96.722 173.086, 101.121 183.952, 105.831 185.446 C 108.300 186.230, 117.193 197.473, 119.511 202.743 C 120.538 205.076, 122.215 207.251, 123.237 207.575 C 125.444 208.276, 128.006 206.416, 127.985 204.128 C 127.965 201.924, 125.853 196.259, 123.463 192 C 122.384 190.075, 121.275 186.929, 121 185.010 C 120.644 182.525, 119.924 181.418, 118.500 181.166 C 117.400 180.972, 114.925 179.360, 113 177.585 C 106.781 171.849, 103.530 170.339, 100.250 171.662" stroke="none" fill="black" fill-rule="evenodd"/>
</svg>