<svg xmlns="http://www.w3.org/2000/svg" width="300" height="300" viewBox="0 0 300 300" version="1.1">
	<path d="M 136.850 32.232 L 134.201 34.500 135.680 44 C 136.817 51.305, 136.910 54.615, 136.080 58.326 C 135.486 60.981, 135 64.683, 135 66.553 C 135 69.079, 134.355 70.376, 132.495 71.595 C 129.216 73.744, 127.651 72.456, 125.977 66.231 C 125.278 63.629, 124.321 61.072, 123.853 60.550 C 123.384 60.027, 123 58.205, 123 56.500 C 123 53.023, 121.468 51, 118.835 51 C 113.536 51, 113.608 63.078, 118.979 75.221 C 121.690 81.349, 123.459 83, 127.313 83 C 132.008 83, 143.888 76.709, 148.969 71.531 C 154.148 66.255, 156.502 65.629, 155.675 69.750 C 154.204 77.077, 153.125 80.752, 151.637 83.500 C 149.158 88.077, 149.504 90, 152.804 90 C 156.144 90, 162.584 83.965, 161.701 81.663 C 161.391 80.855, 161.767 79.363, 162.537 78.347 C 163.307 77.331, 163.951 75.514, 163.968 74.309 C 163.986 73.104, 164.438 71.847, 164.974 71.516 C 165.510 71.185, 165.936 69.246, 165.922 67.207 C 165.804 50.119, 166.019 46.865, 167.447 44.103 C 168.293 42.466, 168.740 40.486, 168.440 39.704 C 167.554 37.394, 163.107 35.442, 161.312 36.575 C 159.537 37.694, 157.446 42.783, 156.553 48.154 C 156.205 50.244, 154.149 54.095, 151.747 57.154 C 144.904 65.869, 143.399 66.200, 144.490 58.750 C 145.342 52.930, 145.227 44.369, 144.185 36 C 143.385 29.573, 141.243 28.473, 136.850 32.232 M 48.474 80.622 C 44.713 84.680, 45.500 88.844, 50.521 91.463 C 54.914 93.753, 54.965 93.994, 53.951 107.500 C 53.542 112.945, 53.681 113.500, 55.459 113.500 C 56.857 113.500, 57.604 112.590, 58.068 110.321 C 58.426 108.573, 59.740 105.423, 60.990 103.321 C 64.252 97.833, 64.105 90.561, 60.611 84.600 C 56.432 77.469, 52.570 76.203, 48.474 80.622 M 146 98.241 C 141.325 101.498, 136.453 104.578, 135.174 105.086 C 133.895 105.593, 130.889 107.356, 128.494 109.004 C 126.099 110.652, 123.546 112.028, 122.820 112.061 C 122.094 112.095, 118.818 113.783, 115.541 115.811 C 110.625 118.855, 109.457 120.111, 108.868 122.990 C 107.827 128.081, 111.060 131.042, 113.910 127.608 C 114.545 126.843, 118.875 124.338, 123.532 122.041 C 128.190 119.745, 132 117.446, 132 116.933 C 132 116.420, 132.900 116, 134 116 C 136.490 116, 136.543 117.970, 134.184 122.790 C 133.186 124.830, 131.337 129.875, 130.077 134 C 128.816 138.125, 127.163 142.686, 126.403 144.136 C 125.213 146.407, 125.226 146.943, 126.498 147.998 C 128.515 149.673, 130.826 148.587, 132.040 145.395 C 132.595 143.934, 134.051 141.341, 135.275 139.633 C 138.649 134.925, 140 132.011, 140 129.445 C 140 128.165, 140.398 126.872, 140.885 126.571 C 141.955 125.910, 143.492 117.478, 143.177 114 C 142.951 111.507, 144.034 110.607, 157.628 102 C 161.267 99.695, 160.291 94.173, 156 92.799 C 155.175 92.535, 150.675 94.983, 146 98.241 M 177.500 125.657 C 175.370 126.109, 166.502 129.664, 164 131.068 C 156.465 135.297, 151.839 138.235, 150.315 139.760 C 148.263 141.813, 142.778 146.061, 136.447 150.500 C 134.094 152.150, 130.611 154.924, 128.706 156.664 C 126.801 158.404, 123.657 160.654, 121.719 161.664 C 119.781 162.674, 115.253 166.687, 111.658 170.583 C 104.856 177.955, 102.600 182.525, 105.261 183.547 C 107.153 184.273, 115.436 178.804, 120.181 173.696 C 124.584 168.955, 127 169.204, 127 174.397 C 127 176.300, 127.675 178.532, 128.500 179.357 C 129.414 180.271, 130 182.720, 130 185.627 C 130 190.698, 131.708 205.499, 132.870 210.500 C 133.711 214.122, 136.697 214.893, 139.833 212.297 C 141.946 210.548, 141.977 210.196, 140.987 199.130 C 140.428 192.877, 139.650 187.252, 139.259 186.630 C 138.867 186.009, 138.460 184.150, 138.354 182.500 C 137.783 173.607, 136.654 168.885, 134.869 167.930 C 131.701 166.234, 132.817 163.671, 138.540 159.500 C 141.559 157.300, 145.659 154.262, 147.652 152.750 C 149.645 151.238, 151.621 150, 152.043 150 C 152.465 150, 154.735 148.392, 157.087 146.427 C 162.376 142.008, 173.745 136.581, 180.801 135.107 C 185.460 134.133, 186.550 134.235, 189.801 135.950 C 191.836 137.023, 194.240 138.116, 195.144 138.378 C 198.352 139.310, 202.030 145.604, 203.179 152.126 C 204.031 156.965, 204.006 159.924, 203.075 164.494 C 200.991 174.711, 197.334 184.582, 192.687 192.530 C 192.034 193.646, 188.149 198.531, 184.054 203.385 C 176.702 212.098, 176.558 212.204, 172.764 211.695 C 166.118 210.804, 166.001 210.493, 165.990 193.628 C 165.976 173.079, 164.339 155.032, 162.283 152.760 C 160.209 150.469, 157.738 150.527, 155.574 152.918 C 154.039 154.615, 153.960 155.682, 154.895 162.168 C 155.788 168.369, 156.591 193.301, 156.138 200.771 C 156.055 202.141, 155.008 203.495, 153.500 204.182 C 150.349 205.618, 150.345 207.036, 153.485 209.986 L 155.969 212.320 155.735 256.160 L 155.500 300.001 160.315 300 L 165.130 300 165.034 293.750 C 164.981 290.313, 164.944 277.600, 164.951 265.500 C 164.958 253.400, 164.881 239.900, 164.780 235.500 C 164.666 230.515, 165.083 226.614, 165.887 225.150 C 167.041 223.048, 167.644 222.869, 171.593 223.462 C 177.985 224.420, 182.523 221.485, 190.737 211.078 C 194.457 206.366, 197.678 202.058, 197.896 201.505 C 198.114 200.952, 199.635 198.611, 201.277 196.303 C 206.840 188.483, 209.644 180.466, 212.685 163.691 C 214.055 156.131, 214.090 154.287, 212.931 150.691 C 212.188 148.386, 211.535 145.825, 211.479 145 C 211.230 141.339, 206.699 134.301, 202.102 130.432 C 196.855 126.017, 185.855 123.882, 177.500 125.657 M 32.200 134.200 C 30.604 135.796, 30.675 140.173, 32.333 142.441 C 33.507 144.047, 34.102 144.121, 37.304 143.065 C 40.615 141.972, 41.164 142.072, 43.432 144.182 C 44.854 145.506, 46.496 148.751, 47.261 151.750 C 48.755 157.607, 50.158 159.537, 52.321 158.707 C 53.902 158.100, 55.174 150.171, 53.959 148.500 C 53.558 147.950, 52.907 145.987, 52.511 144.138 C 52.116 142.288, 50.211 139.026, 48.279 136.888 C 44.983 133.239, 44.418 133, 39.084 133 C 35.958 133, 32.860 133.540, 32.200 134.200 M 71.752 151.774 C 70.918 152.723, 69.903 154.625, 69.496 156 C 69.089 157.375, 68.412 158.950, 67.993 159.500 C 67.574 160.050, 66.926 162.075, 66.554 164 C 65.848 167.648, 63.648 175.644, 61.464 182.500 C 59.746 187.892, 53.502 199.266, 51.594 200.478 C 49.570 201.764, 47.982 200.146, 47.117 195.917 C 46.749 194.120, 45.965 192.488, 45.373 192.291 C 43.845 191.782, 41 199.807, 41 204.628 C 41 209.713, 43.310 212, 48.446 212 C 51.630 212, 52.995 211.242, 56.999 207.250 C 61.248 203.015, 66 194.973, 66 192.020 C 66 191.420, 66.624 189.933, 67.388 188.715 C 68.151 187.497, 69.556 182, 70.509 176.500 C 72.341 165.938, 73.514 159.525, 74.558 154.368 C 75.309 150.662, 73.884 149.345, 71.752 151.774 M 84.667 167.667 C 84.300 168.033, 84 170.243, 84 172.577 C 84 176.009, 84.756 177.776, 87.954 181.823 C 90.129 184.574, 92.378 187.116, 92.952 187.471 C 94.512 188.434, 99 198.371, 99 200.860 C 99 202.052, 99.402 203.809, 99.892 204.764 C 100.383 205.719, 101.288 207.768, 101.902 209.318 C 102.731 211.409, 103.587 212.054, 105.219 211.818 C 108.291 211.374, 109.488 205.411, 107.473 200.589 C 106.663 198.650, 106 196.224, 106 195.197 C 106 192.098, 99.151 179.023, 94.278 172.821 C 89.976 167.345, 86.729 165.604, 84.667 167.667" stroke="none" fill="black" fill-rule="evenodd"/>
</svg>