<svg xmlns="http://www.w3.org/2000/svg" width="300" height="300" viewBox="0 0 300 300" version="1.1">
	<path d="M 129.480 50.250 C 128.245 53.622, 126 68.101, 126 72.691 C 126 75.546, 125.600 78.129, 125.110 78.432 C 124.621 78.734, 123.968 80.448, 123.658 82.241 C 123.348 84.033, 122.818 87.075, 122.479 89 C 121.866 92.485, 120.555 96.146, 118.897 99 C 114.337 106.850, 114.159 109, 118.069 109 C 120.526 109, 127 102.950, 127 100.653 C 127 99.802, 128.125 96.990, 129.500 94.404 C 130.875 91.818, 132 88.959, 132 88.051 C 132 85.671, 133.868 84.153, 136.084 84.732 C 138.498 85.364, 138.509 87.556, 136.123 92.562 C 130.132 105.128, 129 107.937, 129 110.240 C 129 114.803, 131.818 114.390, 134.785 109.391 C 136.278 106.876, 139.412 102.330, 141.750 99.289 C 144.088 96.248, 146 93.158, 146 92.424 C 146 91.690, 147.071 89.510, 148.381 87.580 C 151.257 83.342, 152.677 75.520, 150.948 73.438 C 149.267 71.411, 145.028 71.664, 141.500 74 C 139.850 75.093, 137.661 75.990, 136.637 75.993 C 135.065 75.999, 134.876 75.491, 135.433 72.750 C 136.872 65.665, 137.203 51.949, 135.970 50.464 C 134.486 48.675, 130.109 48.531, 129.480 50.250 M 60.341 103.555 C 59.674 105.292, 62.563 111.273, 65.250 113.718 C 66.213 114.593, 67 116.335, 67 117.588 C 67 120.233, 70.379 121.760, 72.443 120.047 C 73.184 119.432, 74.077 117.404, 74.427 115.540 C 75.299 110.890, 72.359 106.288, 66.978 103.879 C 61.883 101.598, 61.106 101.560, 60.341 103.555 M 156.887 106.920 C 153.800 107.965, 146.646 111.335, 140.989 114.410 C 135.331 117.484, 130.508 120, 130.270 120 C 130.031 120, 127.903 121.584, 125.540 123.521 C 118.532 129.263, 115.372 134.906, 115.889 140.750 C 116.097 143.094, 118.946 142.007, 122.226 138.331 C 124.027 136.314, 126.325 133.951, 127.334 133.081 C 133.096 128.113, 134.608 127.002, 135.610 127.001 C 136.221 127.001, 138.454 125.824, 140.572 124.386 C 147.063 119.981, 161.765 114.865, 166.957 115.204 L 171.500 115.500 171.814 119.886 C 171.987 122.298, 171.649 124.751, 171.064 125.336 C 170.479 125.921, 170 127.408, 170 128.641 C 170 129.874, 169.550 131.160, 169 131.500 C 168.450 131.840, 167.985 133.104, 167.967 134.309 C 167.948 135.514, 167.052 137.558, 165.974 138.852 C 164.114 141.085, 163.764 141.143, 159.023 140.006 C 156.070 139.297, 151.982 139.090, 149.016 139.498 C 143.551 140.249, 142.637 139.155, 145.243 134.983 C 146.988 132.189, 145.103 129.500, 141.400 129.500 C 139.067 129.500, 138.102 130.262, 136.339 133.500 C 135.141 135.700, 134.125 138.486, 134.081 139.691 C 134.036 140.896, 133.550 142.160, 133 142.500 C 132.450 142.840, 132 144.242, 132 145.617 C 132 146.991, 130.875 150.130, 129.500 152.593 C 125.196 160.302, 126.396 163.459, 133.210 162.353 C 136.448 161.828, 136.568 161.935, 137.768 166.421 C 139.330 172.264, 139.318 177.815, 137.735 180.933 C 136.311 183.738, 122.179 190.273, 107.572 194.883 C 96.997 198.220, 84 199.777, 84 197.707 C 84 196.988, 84.446 195.954, 84.991 195.409 C 86.083 194.317, 87.902 186.869, 88.693 180.250 C 89.089 176.938, 88.875 176, 87.723 176 C 85.724 176, 84.608 177.594, 82.475 183.500 C 81.482 186.250, 80.294 188.928, 79.835 189.450 C 79.376 189.972, 79 191.216, 79 192.214 C 79 193.211, 78.612 194.809, 78.138 195.764 C 77.664 196.719, 76.037 200.200, 74.523 203.500 C 73.009 206.800, 71.372 210.281, 70.885 211.236 C 70.398 212.191, 70 213.789, 70 214.786 C 70 216.904, 68.159 219, 66.300 219 C 65.585 219, 65 218.352, 65 217.559 C 65 215.449, 63.131 214.646, 61.456 216.036 C 60.469 216.856, 60 219.234, 60 223.422 C 60 233.458, 63.218 234.611, 70.684 227.250 C 73.334 224.637, 76.563 220.250, 77.860 217.500 C 79.157 214.750, 80.620 211.719, 81.109 210.764 C 81.599 209.809, 82 208.346, 82 207.514 C 82 205.431, 83.345 205.618, 85.500 208 C 88.667 211.500, 103.802 209.914, 109.626 205.472 C 111.740 203.859, 113.731 203.097, 114.879 203.462 C 116.055 203.835, 118.632 202.767, 121.964 200.524 C 126.537 197.447, 132 195.848, 132 197.588 C 132 200.360, 116.953 223, 115.111 223 C 114.686 223, 113.736 224.125, 113 225.500 C 112.264 226.875, 111.063 228, 110.331 228 C 109.599 228, 109 228.436, 109 228.968 C 109 229.949, 99.172 237.639, 95.509 239.525 C 91.894 241.386, 92.835 247, 96.763 247 C 100.441 247, 108.013 241.860, 115.935 233.986 C 128.390 221.605, 136.993 210.239, 141.657 200 C 142.033 199.175, 143.205 197.375, 144.261 196 C 145.317 194.625, 146.783 192.061, 147.518 190.301 C 148.291 188.454, 151.329 185.281, 154.713 182.791 C 157.934 180.419, 161.652 177.471, 162.974 176.239 C 164.296 175.008, 165.769 174, 166.247 174 C 166.726 174, 168.778 172.729, 170.809 171.176 C 172.839 169.623, 177.070 166.432, 180.212 164.084 C 186.107 159.679, 187.570 157.371, 186.534 154.108 C 185.299 150.215, 182.208 150.940, 174.711 156.881 C 170.745 160.024, 164.692 164.323, 161.259 166.434 C 157.827 168.545, 154.509 170.887, 153.887 171.636 C 153.264 172.386, 151.899 173, 150.853 173 C 148.618 173, 147.101 169.589, 146.284 162.721 C 145.971 160.092, 145.329 157.703, 144.857 157.412 C 144.386 157.120, 144 156.156, 144 155.270 C 144 154.383, 143.263 152.843, 142.362 151.847 C 140.125 149.376, 141.901 147.361, 147.090 146.485 C 152.667 145.543, 156 147.813, 156 152.554 C 156 157.424, 157.909 157.731, 163.883 153.821 C 168.225 150.979, 169.611 149.202, 173.490 141.500 C 175.983 136.550, 178.018 131.739, 178.012 130.809 C 178.005 129.879, 178.450 128.840, 179 128.500 C 179.550 128.160, 180 124.109, 180 119.497 C 180 112.122, 179.715 110.780, 177.635 108.362 C 175.584 105.978, 174.419 105.573, 168.885 105.316 C 164.572 105.117, 160.679 105.637, 156.887 106.920 M 101.667 129.667 C 99.922 131.411, 102.561 143.687, 105.378 146.927 C 107.803 149.717, 109.819 155.371, 110.254 160.598 C 110.782 166.962, 113.529 171.095, 117 170.749 C 119.283 170.522, 119.527 170.032, 119.807 165.107 C 119.976 162.141, 119.639 159.239, 119.057 158.657 C 118.476 158.076, 118 156.395, 118 154.922 C 118 153.450, 117.325 151.685, 116.500 151 C 115.675 150.315, 115 148.740, 115 147.500 C 115 144.802, 112.443 138.392, 111.015 137.509 C 110.457 137.164, 110 136.087, 110 135.115 C 110 131.667, 103.751 127.582, 101.667 129.667 M 49.200 154.200 C 45.703 157.697, 49.607 162, 56.278 162 C 60.171 162, 61.362 162.496, 63.841 165.148 C 65.745 167.186, 67.351 168.079, 68.392 167.680 C 70.234 166.973, 70.544 162.944, 68.884 161.284 C 68.270 160.670, 67.249 159.127, 66.614 157.854 C 65.980 156.581, 64.344 154.975, 62.980 154.284 C 59.816 152.683, 50.772 152.628, 49.200 154.200 M 150.251 207.558 C 148.326 208.966, 149.490 213.003, 151.817 212.992 C 158.749 212.957, 179.185 219.956, 192 226.753 C 196.675 229.233, 204.705 233.454, 209.845 236.133 C 214.984 238.812, 220.384 241.928, 221.845 243.057 C 224.371 245.009, 241.550 256.333, 245.248 258.484 C 246.209 259.043, 249.440 261.220, 252.427 263.323 C 256.933 266.495, 258.200 266.963, 259.862 266.074 C 265.076 263.283, 262.900 257.608, 255 253.395 C 252.525 252.074, 248.925 249.851, 247 248.454 C 242.259 245.014, 226.205 235, 225.431 235 C 225.089 235, 223.399 233.988, 221.676 232.750 C 216.033 228.696, 185.341 213.259, 175.276 209.413 C 167.843 206.571, 153.095 205.479, 150.251 207.558" stroke="none" fill="black" fill-rule="evenodd"/>
</svg>