<svg xmlns="http://www.w3.org/2000/svg" width="300" height="300" viewBox="0 0 300 300" version="1.1">
	<path d="M 149.714 41.619 C 149.321 42.012, 149 43.357, 149 44.608 C 149 45.859, 148.550 47.160, 148 47.500 C 147.450 47.840, 146.993 49.779, 146.985 51.809 C 146.976 53.839, 146.615 56.058, 146.182 56.739 C 145.234 58.233, 136.523 61.106, 118.295 65.939 C 112.750 67.409, 110.821 69.403, 111.637 72.822 C 112.754 77.505, 113.957 78.263, 119.172 77.572 C 121.789 77.224, 126.141 75.793, 128.844 74.391 C 134.008 71.712, 142 70.065, 142 71.681 C 142 72.200, 141.107 74.473, 140.015 76.732 C 138.924 78.992, 137.302 83.014, 136.411 85.670 C 135.520 88.327, 134.163 91.210, 133.396 92.079 C 132.628 92.947, 132 94.383, 132 95.270 C 132 96.156, 131.550 97.160, 131 97.500 C 130.450 97.840, 130 100.765, 130 104 C 130 107.235, 130.450 110.160, 131 110.500 C 131.550 110.840, 132.005 112.329, 132.011 113.809 C 132.017 115.289, 132.692 118.709, 133.511 121.409 C 135.370 127.538, 135.380 135.026, 133.550 151 C 130.881 174.292, 130.565 183.394, 132.374 184.895 C 134.864 186.962, 136.903 185.460, 137.610 181.038 C 138.207 177.304, 138.494 177, 141.432 177 C 144.574 177, 151.581 173.188, 157.383 168.323 C 161.790 164.628, 163.103 165.532, 163.449 172.500 C 163.613 175.800, 163.327 179.307, 162.815 180.294 C 161.870 182.111, 145.815 190.240, 135.907 193.917 C 123.162 198.647, 103.100 204.192, 96.830 204.718 C 88.141 205.446, 86.554 206.917, 88.703 212.250 C 89.902 215.225, 90.747 216, 92.797 216 C 97.029 216, 107.149 213.937, 112.500 211.984 C 115.250 210.980, 118.625 209.853, 120 209.479 C 126.556 207.697, 142.249 201.380, 149.465 197.617 C 160.289 191.975, 188.124 180.895, 195 179.492 C 199.386 178.597, 202 176.347, 202 173.467 C 202 167.898, 195.075 167.738, 181.579 172.996 C 177.222 174.694, 173.060 175.853, 172.329 175.573 C 171.260 175.163, 171 168.506, 171 141.590 C 171 120.354, 170.634 107.892, 170 107.500 C 169.450 107.160, 169 105.499, 169 103.809 C 169 98.984, 165.398 94.197, 159.699 91.447 C 153.943 88.671, 150.375 88.402, 147.559 90.532 C 146.491 91.339, 145.223 92, 144.741 92 C 143.502 92, 145.552 85.330, 148.122 81 C 148.612 80.175, 149.272 78.825, 149.589 78 C 149.906 77.175, 151.028 74.770, 152.083 72.655 C 153.137 70.541, 154 68.255, 154 67.574 C 154 66.894, 155.012 65.869, 156.250 65.295 C 158.774 64.124, 170.904 60.405, 175.500 59.392 C 178.785 58.669, 181.639 56.542, 183.172 53.678 C 183.905 52.309, 183.716 51.343, 182.439 49.933 C 180.476 47.764, 180.079 47.816, 166.048 52.106 C 156.210 55.113, 153.925 54.877, 155.965 51.065 C 156.598 49.883, 156.977 47.247, 156.808 45.208 C 156.532 41.891, 156.180 41.469, 153.464 41.203 C 151.794 41.039, 150.107 41.227, 149.714 41.619 M 148.362 103.775 C 142.829 107.419, 142.398 108.388, 142.814 116.250 C 143.232 124.154, 144.181 124.640, 149.869 119.864 C 151.924 118.140, 155.156 116.227, 157.052 115.614 C 160.182 114.603, 160.528 114.110, 160.807 110.261 C 161.056 106.827, 160.638 105.547, 158.602 103.511 C 155.422 100.331, 153.516 100.380, 148.362 103.775 M 62.750 106.080 C 60.406 107.446, 60.530 110.678, 62.977 111.988 C 65.452 113.312, 67.200 116.476, 67.950 120.989 C 68.738 125.730, 71.350 126.086, 74.032 121.818 C 75.677 119.202, 76.007 117.467, 75.590 113.613 C 75.300 110.925, 74.303 107.887, 73.376 106.863 C 71.517 104.809, 65.672 104.378, 62.750 106.080 M 153.637 130.453 C 149.851 133.145, 148.143 133.779, 145.890 133.328 C 143.053 132.761, 142.997 132.835, 142.833 137.375 C 142.742 139.919, 142.629 142.781, 142.583 143.736 C 142.423 147.084, 145.819 146.056, 151.581 141.015 C 156.609 136.615, 157.793 136.015, 160.347 136.576 C 162.846 137.125, 163.200 136.964, 162.650 135.531 C 162.293 134.599, 162 132.298, 162 130.418 C 162 125.927, 159.991 125.935, 153.637 130.453 M 160.823 141.712 C 159.968 142.696, 158.983 144.703, 158.635 146.173 C 157.762 149.853, 152.758 154.605, 148.251 156.034 C 142.487 157.861, 140 159.785, 140 162.416 C 140 165.858, 142.756 166.422, 146.643 163.776 C 148.482 162.524, 149.989 161.199, 149.993 160.832 C 149.997 160.464, 151.557 159.201, 153.460 158.025 C 156.165 156.353, 157.350 156.117, 158.894 156.943 C 159.980 157.524, 161.295 158, 161.817 158 C 163.107 158, 164.384 143.508, 163.269 141.517 C 162.467 140.083, 162.224 140.102, 160.823 141.712 M 43 157 C 39.080 160.920, 41.799 166.933, 48.209 168.524 C 53.015 169.717, 53.347 170.962, 53.113 186.890 C 52.835 205.863, 55.753 219, 60.245 219 C 60.759 219, 62.010 220.012, 63.025 221.250 C 64.694 223.284, 65.022 223.351, 66.448 221.952 C 68.096 220.334, 71.857 211.305, 72.675 207 C 73.193 204.278, 74.473 200.984, 76.622 196.846 C 77.380 195.386, 78 192.192, 78 189.749 C 78 187.306, 78.727 183.850, 79.615 182.069 C 80.802 179.690, 80.935 178.535, 80.117 177.717 C 79.299 176.899, 78.075 177.505, 75.502 179.998 C 73.576 181.865, 72 183.790, 72 184.277 C 72 184.763, 70.425 187.534, 68.500 190.434 C 66.575 193.334, 65 196.421, 65 197.294 C 65 198.168, 64.609 199.123, 64.132 199.419 C 63.654 199.714, 62.972 202.103, 62.616 204.728 C 61.816 210.614, 60.540 212.940, 58.970 211.370 C 58.224 210.624, 58.039 206.996, 58.408 200.378 C 58.711 194.945, 58.955 184.875, 58.949 178 C 58.939 166.365, 58.790 165.396, 56.797 164 C 55.619 163.175, 52.951 160.813, 50.868 158.750 C 46.511 154.436, 45.736 154.264, 43 157 M 135.565 215.260 C 134.751 216.503, 132.778 220.687, 131.182 224.558 C 127.400 233.731, 124.585 238.048, 117.049 246.235 C 110.964 252.847, 110.765 252.966, 106.175 252.735 C 101.550 252.502, 101.497 252.536, 101.180 255.844 C 100.512 262.812, 107.301 265.811, 114.269 261.627 C 119.552 258.454, 126.296 252.278, 127.988 249.063 C 128.693 247.723, 129.659 246.148, 130.135 245.563 C 133.168 241.831, 138 233.513, 138 232.022 C 138 231.045, 138.680 229.680, 139.512 228.990 C 141.125 227.651, 145 219.558, 145 217.528 C 145 215.656, 141.594 213, 139.194 213 C 138.013 213, 136.380 214.017, 135.565 215.260 M 184.250 233.745 C 177.909 234.003, 176 234.413, 176 235.515 C 176 237.633, 181.144 239.923, 189.819 241.667 C 194.044 242.516, 199.075 243.544, 201 243.952 C 202.925 244.359, 207.600 246.112, 211.388 247.846 C 215.177 249.581, 219.289 251, 220.527 251 C 221.765 251, 225.858 252.800, 229.623 255 C 233.388 257.200, 237.038 259, 237.734 259 C 238.430 259, 239 259.900, 239 261 C 239 263.633, 235.367 263.633, 232 261 C 227.213 257.255, 224.887 259.135, 227.499 264.638 C 229.823 269.536, 234.303 271.282, 242.318 270.415 C 250.119 269.572, 251.890 268.105, 251.679 262.667 C 251.533 258.919, 250.912 257.958, 245.508 253.110 C 241 249.066, 237.752 247.138, 232.500 245.386 C 228.650 244.103, 224.600 242.609, 223.500 242.068 C 222.400 241.526, 219.475 240.580, 217 239.964 C 214.525 239.348, 210.250 237.812, 207.500 236.551 C 201.828 233.950, 196.129 233.262, 184.250 233.745" stroke="none" fill="black" fill-rule="evenodd"/>
</svg>