<svg xmlns="http://www.w3.org/2000/svg" width="300" height="300" viewBox="0 0 300 300" version="1.1">
	<path d="M 182.228 21.306 C 177.601 22.995, 168.509 29.869, 166.576 33.141 C 165.034 35.751, 165.052 35.957, 166.907 36.950 C 169.722 38.457, 171.403 38.258, 174.155 36.093 C 175.488 35.044, 178.812 33.865, 181.540 33.474 C 190.074 32.249, 193.553 26.747, 188.686 22.174 C 186.038 19.687, 186.498 19.749, 182.228 21.306 M 119.750 48.080 C 118.787 48.641, 118 49.950, 118 50.991 C 118 52.031, 117.600 53.129, 117.111 53.432 C 116.622 53.734, 115.950 55.064, 115.618 56.387 C 115.286 57.710, 112.987 61.877, 110.509 65.647 C 104.273 75.134, 104.298 82.210, 110.542 74.750 C 112.038 72.963, 114.123 71.170, 115.176 70.766 C 116.228 70.362, 117.750 68.449, 118.558 66.516 C 119.514 64.227, 120.696 63, 121.945 63 C 125.956 63, 130.619 51.656, 127.937 48.424 C 126.571 46.778, 122.294 46.598, 119.750 48.080 M 173.115 54.581 C 171.952 56.060, 171 57.868, 171 58.600 C 171 59.331, 170.099 60.412, 168.998 61.001 C 167.006 62.067, 164 67.911, 164 70.718 C 164 71.528, 163.115 73.434, 162.033 74.953 C 160.351 77.315, 160.228 78.207, 161.185 81.108 C 161.800 82.973, 162.446 85.063, 162.620 85.750 C 162.795 86.438, 164.076 87, 165.469 87 C 168.115 87, 168.802 88.798, 166.887 90.713 C 166.275 91.325, 166.106 92.363, 166.511 93.019 C 167.026 93.851, 167.993 93.409, 169.714 91.552 C 172.559 88.484, 174.163 88.639, 175.123 92.074 C 177.124 99.237, 174.474 104.147, 166.610 107.843 C 162.442 109.803, 162.185 110.167, 161.769 114.706 C 161.528 117.343, 161.681 119.902, 162.109 120.394 C 162.985 121.399, 168.564 119.465, 171.168 117.255 C 172.085 116.476, 173.885 115.988, 175.168 116.170 C 177.408 116.487, 177.492 116.814, 177.303 124.500 C 177.124 131.750, 176.867 132.690, 174.564 134.528 C 173.167 135.644, 170.012 137.150, 167.553 137.877 C 165.094 138.603, 162.519 139.875, 161.831 140.704 C 161.143 141.533, 158.312 143.320, 155.540 144.676 C 142.359 151.124, 139.801 152.896, 137.781 156.978 C 136.166 160.242, 136.017 161.315, 137.011 162.514 C 138.658 164.498, 140.239 164.387, 143.173 162.078 C 148.024 158.263, 174.997 145.062, 176.648 145.695 C 178.142 146.269, 178.227 150.325, 177.632 192.773 C 177.274 218.320, 176.742 239.609, 176.450 240.081 C 176.158 240.553, 175.980 252.315, 176.053 266.220 C 176.172 288.759, 176.306 294.255, 176.849 298.750 C 176.948 299.567, 178.769 300, 182.107 300 C 186.452 300, 187.119 299.753, 186.578 298.342 C 185.569 295.713, 185.857 228.012, 186.944 212 C 187.486 204.025, 187.863 186.355, 187.782 172.733 C 187.675 154.826, 187.961 147.639, 188.817 146.783 C 189.468 146.132, 190 144.430, 190 143 C 190 139.962, 191.654 138, 194.214 138 C 195.211 138, 196.809 137.596, 197.764 137.103 C 198.719 136.609, 201.300 135.542, 203.500 134.732 C 215.380 130.356, 218.991 129.560, 228 129.327 C 233.225 129.193, 237.753 129.064, 238.062 129.041 C 238.371 129.019, 239.606 127.672, 240.806 126.049 L 242.988 123.097 240.683 120.418 C 238.578 117.971, 237.636 117.706, 229.841 117.372 C 222.307 117.049, 221.092 117.241, 219.497 119.003 C 218.503 120.101, 216.848 121, 215.818 121 C 213.546 121, 198.716 125.632, 194.365 127.701 C 190.870 129.362, 187.447 129.127, 187.600 127.236 C 187.655 126.556, 187.767 121.685, 187.850 116.411 L 188 106.822 192.500 102.448 C 197.868 97.231, 198.454 93.799, 194.250 92.190 C 192.738 91.611, 190.375 91.219, 189 91.319 C 186.540 91.497, 186.495 91.366, 186.208 83.173 L 185.917 74.846 190.208 71.022 L 194.500 67.198 192.076 64.599 C 190.301 62.696, 188.650 62, 185.914 62 L 182.176 62 182.338 57.250 L 182.500 52.500 178.865 52.196 C 175.911 51.950, 174.833 52.397, 173.115 54.581 M 167.852 70.426 C 167.205 71.846, 166.995 73.328, 167.386 73.719 C 168.504 74.837, 171.500 72.475, 171.500 70.474 C 171.500 67.617, 169.146 67.585, 167.852 70.426 M 49.589 75.902 C 48.430 77.182, 47.971 79.062, 48.184 81.652 C 48.459 84.999, 48.923 85.637, 51.751 86.551 C 53.539 87.129, 55.454 88.054, 56.006 88.606 C 57.472 90.072, 54.295 98.803, 50.845 102.785 C 47.675 106.445, 47.268 108, 49.481 108 C 51.895 108, 59.739 101.723, 61.040 98.750 C 61.701 97.237, 62.638 96, 63.121 96 C 63.605 96, 64 95.127, 64 94.059 C 64 92.991, 64.450 91.840, 65 91.500 C 66.598 90.512, 66.156 84.177, 64.283 81.215 C 59.774 74.086, 53.338 71.759, 49.589 75.902 M 115.497 77.004 C 114.292 78.335, 113.706 80.488, 113.750 83.418 C 113.815 87.735, 113.696 87.901, 108.158 91.225 C 105.046 93.092, 101.263 95.146, 99.750 95.789 C 96.590 97.131, 96.465 97.783, 98.449 102.532 C 99.759 105.668, 100.280 106, 103.890 106 C 106.086 106, 108.160 106.450, 108.500 107 C 109.553 108.704, 110.846 108.106, 111.180 105.760 C 111.547 103.189, 114.415 102.270, 116.548 104.040 C 117.586 104.901, 118 107.426, 118 112.887 C 118 119.871, 117.763 120.774, 115.250 123.363 C 112.807 125.881, 106.668 130.215, 100.599 133.708 C 99.445 134.372, 96.475 135.503, 94 136.220 C 90.456 137.248, 89.548 137.947, 89.727 139.512 C 89.852 140.606, 89.455 142.482, 88.844 143.683 C 87.451 146.421, 88.374 149, 90.747 149 C 94.417 149, 107.507 141.934, 110.705 138.226 C 113.172 135.367, 114.183 134.783, 115.093 135.693 C 116.002 136.602, 115.985 137.869, 115.016 141.188 C 114.324 143.559, 113.546 147.750, 113.287 150.500 C 113.028 153.250, 112.407 155.928, 111.908 156.450 C 111.409 156.973, 111 158.785, 111 160.477 C 111 162.170, 110.388 164.443, 109.641 165.527 C 108.893 166.612, 107.679 169.975, 106.944 173 C 106.208 176.025, 105.020 179.388, 104.303 180.473 C 102.533 183.152, 102.649 187.928, 104.502 188.639 C 109.172 190.431, 114 185.404, 114 178.750 C 114 176.907, 114.485 174.915, 115.078 174.322 C 115.670 173.730, 116.545 171.727, 117.021 169.872 C 117.841 166.681, 118.286 165.088, 121.034 155.500 C 121.664 153.300, 122.533 148.673, 122.964 145.218 C 123.396 141.762, 124.440 138.162, 125.285 137.218 C 126.131 136.273, 127.139 133.360, 127.525 130.745 C 128.010 127.467, 129.026 125.293, 130.797 123.745 C 135.297 119.812, 144.436 110.503, 146.296 107.958 C 147.293 106.594, 147.855 104.610, 147.560 103.500 C 147.267 102.400, 147.021 100.724, 147.014 99.776 C 146.999 97.875, 142.228 95.015, 140.250 95.721 C 139.548 95.971, 139 97.829, 139 99.956 C 139 103.163, 138.312 104.379, 134.522 107.873 C 127.500 114.346, 127.750 114.738, 127.802 97.331 C 127.832 87.557, 127.596 85.944, 125.914 84.422 C 124.857 83.465, 123.526 80.954, 122.957 78.841 C 122.137 75.795, 121.445 75, 119.616 75 C 118.348 75, 116.494 75.902, 115.497 77.004 M 100.958 80.550 C 99.900 81.825, 99.942 82.370, 101.193 83.622 C 102.555 84.983, 102.887 84.971, 104.357 83.500 C 105.261 82.596, 106 81.214, 106 80.429 C 106 78.521, 102.574 78.604, 100.958 80.550 M 30.655 127.829 C 28.655 130.039, 28.531 132.976, 30.334 135.442 C 31.627 137.210, 40.572 139.337, 42.315 138.291 C 43.571 137.537, 40.152 134.255, 37.387 133.561 C 35.181 133.007, 34.989 132.574, 35.571 129.471 C 36.134 126.471, 35.957 126, 34.266 126 C 33.190 126, 31.565 126.823, 30.655 127.829 M 74.257 152.239 C 73.095 153.483, 71.185 157.200, 70.013 160.500 C 67.106 168.681, 60.322 182.277, 57.792 184.993 C 56.651 186.218, 54.178 187.863, 52.298 188.649 C 49.313 189.896, 48.918 190.472, 49.190 193.188 C 49.680 198.098, 52.159 198.943, 57.602 196.055 C 62.523 193.445, 65.998 190.355, 70 185.033 C 73.147 180.848, 74.059 178.525, 74.528 173.500 C 75.719 160.726, 76.287 156.375, 77.013 154.466 C 78.342 150.970, 76.689 149.635, 74.257 152.239" stroke="none" fill="black" fill-rule="evenodd"/>
</svg>