<svg xmlns="http://www.w3.org/2000/svg" width="300" height="300" viewBox="0 0 300 300" version="1.1">
	<path d="M 137.530 37.953 C 132.038 40.996, 123.995 49.383, 121.475 54.695 C 118.766 60.403, 115.054 60.073, 115.015 54.122 C 115.007 52.814, 113.636 49.359, 111.968 46.444 C 108.241 39.930, 104.193 38.349, 101.012 42.166 C 99.942 43.450, 99.044 44.950, 99.017 45.500 C 98.989 46.050, 100.833 50.325, 103.114 55 C 107.521 64.034, 108.149 65.488, 110.028 71 C 112.185 77.329, 113.206 82.395, 113.858 90 L 114.500 97.500 118.235 97.809 C 126.136 98.464, 127.099 105.579, 120.911 117.574 C 118.662 121.933, 116.187 126.210, 115.411 127.079 C 114.635 127.947, 114 129.116, 114 129.676 C 114 130.236, 113.055 131.775, 111.901 133.097 C 110.746 134.419, 108.668 137.728, 107.282 140.451 C 105.896 143.174, 103.882 146.593, 102.806 148.048 C 101.531 149.773, 100.963 151.878, 101.175 154.097 C 101.468 157.162, 101.839 157.532, 104.909 157.825 C 106.784 158.004, 110.299 157.394, 112.720 156.469 C 117.884 154.497, 119.140 155.120, 116.321 158.254 C 112.696 162.283, 106.041 172.415, 103.510 177.758 C 101.810 181.347, 102.389 185.828, 104.666 186.702 C 106.507 187.409, 114.925 184.253, 117.564 181.866 C 121.835 178.006, 123.396 179.258, 125.522 188.250 C 128.113 199.210, 128.030 198.088, 128.281 225.401 C 128.505 249.899, 128.115 252.749, 124.715 251.444 C 122.831 250.721, 122.540 249.741, 121.316 240 C 120.295 231.867, 118.485 231.492, 115.695 238.834 C 113.781 243.873, 113.761 244.325, 115.334 246.988 C 116.250 248.540, 117.010 250.639, 117.022 251.654 C 117.034 252.669, 117.924 254.625, 119 256 C 120.076 257.375, 120.966 258.978, 120.978 259.563 C 121.002 260.739, 126.191 266, 127.326 266 C 129.414 266, 135.921 260.494, 136.572 258.177 C 136.986 256.705, 137.589 246.950, 137.912 236.500 L 138.500 217.500 141 217.794 C 142.375 217.956, 147.306 218.506, 151.957 219.016 C 156.608 219.527, 161.108 220.243, 161.957 220.607 C 162.806 220.971, 167.325 221.823, 172 222.500 C 176.675 223.177, 181.850 224.220, 183.500 224.817 C 185.150 225.414, 189.200 226.633, 192.500 227.526 C 204.295 230.718, 227.553 238.356, 230.500 240.005 C 232.150 240.929, 235.300 242.018, 237.500 242.426 C 242.766 243.403, 248.163 246.767, 247.819 248.859 C 247.357 251.677, 248.977 253, 252.890 253 C 254.964 253, 258.875 254.123, 261.581 255.496 C 267.781 258.642, 268.713 258.603, 273 255.024 C 275.913 252.592, 276.317 251.801, 275.409 250.301 C 273.478 247.113, 255.519 238.438, 244.516 235.378 C 241.774 234.615, 236.374 232.697, 232.516 231.115 C 228.657 229.533, 223.136 227.690, 220.247 227.019 C 217.358 226.348, 214.744 225.394, 214.438 224.900 C 214.132 224.405, 213.002 224, 211.927 224 C 210.852 224, 209.191 223.604, 208.236 223.121 C 206.386 222.184, 202.173 220.880, 187 216.549 C 181.775 215.058, 176.118 213.424, 174.429 212.919 C 172.740 212.413, 170.063 212, 168.481 212 C 166.898 212, 161.980 211.497, 157.552 210.882 C 150.193 209.861, 149.121 209.939, 145.095 211.791 C 142.672 212.906, 140.124 213.601, 139.433 213.336 C 138.174 212.853, 137.453 208.098, 136.502 194 C 136.224 189.875, 135.506 185.296, 134.907 183.824 C 134.309 182.352, 134.098 180.266, 134.440 179.189 C 134.782 178.111, 134.502 176, 133.817 174.497 C 132.717 172.084, 132.813 171.575, 134.642 170.133 C 135.781 169.235, 138.415 167.150, 140.495 165.500 C 142.576 163.850, 144.778 162.329, 145.389 162.119 C 146 161.910, 147.453 160.582, 148.617 159.167 C 150.673 156.669, 150.809 156.645, 153.332 158.298 C 154.761 159.234, 157.049 160, 158.418 160 C 159.786 160, 161.990 160.494, 163.314 161.097 C 166.333 162.473, 172 159.897, 172 157.149 C 172 154.710, 167.880 151, 165.172 151 C 163.051 151, 162.110 150.662, 157.264 148.156 C 153.715 146.322, 148.586 146.787, 145.221 149.250 C 143.530 150.488, 139.076 154.128, 135.323 157.340 C 126.135 165.204, 120.032 167.588, 124.886 161.418 C 126.049 159.940, 127 158.408, 127 158.014 C 127 157.620, 129.250 154.914, 132 152 C 134.750 149.086, 137 146.053, 137 145.259 C 137 144.465, 137.900 142.671, 139 141.273 C 141.603 137.963, 141.532 135.486, 138.777 133.557 C 135.260 131.093, 133.760 131.621, 126.162 138 C 122.232 141.300, 118.563 144, 118.008 144 C 116.143 144, 116.979 140.178, 119.500 137.182 C 120.875 135.548, 122 133.914, 122 133.551 C 122 133.187, 123.737 130.327, 125.859 127.195 C 127.982 124.063, 130.024 120.528, 130.398 119.340 C 130.772 118.152, 131.735 116.635, 132.539 115.968 C 133.342 115.301, 134 113.785, 134 112.600 C 134 111.415, 134.611 109.557, 135.358 108.473 C 137.231 105.753, 138.313 99.311, 137.031 98.519 C 135.078 97.312, 136.006 95.249, 138.750 94.695 C 142.867 93.864, 148.515 88.116, 150.520 82.717 C 151.497 80.087, 152.680 77.698, 153.148 77.408 C 153.617 77.119, 154 75.859, 154 74.608 C 154 73.357, 154.322 72.012, 154.715 71.618 C 156.032 70.301, 157.911 61.552, 157.956 56.529 C 158.023 48.999, 155.856 41.071, 152.849 37.845 C 149.393 34.136, 144.352 34.172, 137.530 37.953 M 140.307 47.413 C 137.521 49.809, 137.512 49.856, 139.001 54.163 C 140.385 58.167, 140.768 58.500, 144 58.500 C 147.330 58.500, 147.515 58.316, 147.813 54.703 C 148.160 50.498, 146.176 45, 144.312 45 C 143.652 45, 141.849 46.086, 140.307 47.413 M 125.064 61.250 C 123.442 63.587, 121.159 66.732, 119.991 68.238 C 117.995 70.812, 118.003 73, 120.009 73 C 122.162 73, 130.999 65.371, 131.013 63.500 C 131.021 62.400, 131.299 60.487, 131.630 59.250 C 132.116 57.437, 131.823 57, 130.123 57 C 128.769 57, 126.955 58.524, 125.064 61.250 M 142.677 68.804 C 141.755 69.824, 141 71.347, 141 72.189 C 141 73.032, 139.849 75.417, 138.443 77.490 C 135.853 81.305, 135.800 84, 138.314 84 C 139.071 84, 140.384 83.213, 141.233 82.250 C 143.484 79.697, 147.169 71.112, 146.809 69.258 C 146.351 66.900, 144.577 66.705, 142.677 68.804 M 123.655 83.829 C 121.891 85.777, 121.381 92.499, 122.924 93.453 C 124.413 94.373, 128 88.467, 128 85.096 C 128 81.554, 126.191 81.026, 123.655 83.829 M 39.610 91.879 C 37.406 94.313, 37.059 98.972, 39 100.057 C 39.825 100.519, 41.850 101.494, 43.500 102.225 C 46.253 103.445, 46.500 103.964, 46.500 108.527 C 46.500 112.743, 46.805 113.541, 48.500 113.772 C 51.284 114.150, 55 107.390, 55 101.946 C 55 98.809, 54.243 96.831, 51.916 93.894 C 49.312 90.606, 48.247 90, 45.071 90 C 42.661 90, 40.699 90.675, 39.610 91.879 M 23.398 144.405 C 23.102 145.177, 23.003 147.296, 23.180 149.114 C 23.440 151.800, 24.575 153.233, 29.248 156.778 C 32.963 159.596, 35.196 162.087, 35.559 163.819 C 36.546 168.519, 39 173.167, 40.270 172.744 C 42.007 172.166, 42.304 169.666, 41.515 162.292 C 40.963 157.145, 40.229 155.192, 37.810 152.436 C 36.151 150.546, 34.336 149, 33.778 149 C 33.221 149, 31.226 147.650, 29.347 146 C 25.561 142.675, 24.202 142.311, 23.398 144.405 M 60.557 175.223 C 59.701 176.445, 59 178.067, 59 178.827 C 59 179.588, 57.875 182.449, 56.500 185.187 C 55.125 187.924, 54 190.566, 54 191.057 C 54 193.041, 48.027 204.825, 46.809 205.245 C 46.089 205.492, 44.096 204.085, 42.381 202.117 C 39.664 199, 39.051 198.713, 37.631 199.891 C 34.863 202.188, 36.152 211.041, 39.880 215.342 C 45.401 221.712, 60.272 207.483, 62.186 194 C 62.615 190.975, 63.581 185.244, 64.331 181.265 C 65.082 177.285, 65.464 173.798, 65.181 173.515 C 64.043 172.376, 62.029 173.120, 60.557 175.223 M 37.658 189.675 C 37.296 190.037, 37 191.533, 37 193 C 37 194.467, 37.296 195.963, 37.658 196.325 C 38.656 197.322, 41 194.990, 41 193 C 41 191.010, 38.656 188.678, 37.658 189.675 M 116.500 204.139 C 115.400 204.691, 112.925 207.152, 111 209.608 C 109.075 212.064, 103.426 217.995, 98.446 222.787 C 79.237 241.273, 70.182 247.952, 64.285 247.983 C 61.475 247.998, 59 250.049, 59 252.363 C 59 254.039, 62.687 255.998, 65.821 255.987 C 69.115 255.976, 80.556 251.148, 81.964 249.175 C 82.259 248.762, 86.550 245.147, 91.500 241.142 C 96.450 237.138, 102.447 232.205, 104.826 230.181 C 107.206 228.156, 109.921 226.050, 110.859 225.500 C 116.611 222.130, 124 212.697, 124 208.725 C 124 206.353, 121.233 202.935, 119.421 203.068 C 118.915 203.105, 117.600 203.587, 116.500 204.139" stroke="none" fill="black" fill-rule="evenodd"/>
</svg>