<svg xmlns="http://www.w3.org/2000/svg" width="300" height="300" viewBox="0 0 300 300" version="1.1">
	<path d="M 118.667 15.667 C 117.663 16.670, 117.865 21.516, 119.039 24.603 C 119.611 26.106, 120.231 33.673, 120.418 41.418 C 120.605 49.163, 120.812 57.378, 120.879 59.673 C 121.014 64.345, 124.898 70, 127.970 70 C 130.014 70, 135 63.964, 135 61.490 C 135 60.586, 136.362 58.484, 138.027 56.819 C 140.974 53.872, 145 46.760, 145 44.500 C 145 43.882, 145.931 41.448, 147.070 39.091 C 148.208 36.735, 148.908 34.202, 148.624 33.462 C 147.745 31.172, 143.238 28.790, 141.080 29.475 C 138.889 30.170, 137.015 35.337, 137.006 40.706 C 137.003 42.469, 135.988 45.450, 134.750 47.331 C 133.512 49.213, 132.022 51.561, 131.438 52.551 C 129.102 56.509, 128.230 52.880, 128.122 38.762 C 127.985 20.794, 126.248 15.067, 120.917 15.015 C 120.046 15.007, 119.033 15.300, 118.667 15.667 M 151.482 58.845 C 143.792 62.913, 138.880 66.063, 134.570 69.692 C 132.409 71.511, 130.266 73, 129.810 73 C 129.353 73, 126.847 74.467, 124.240 76.259 C 121.633 78.052, 118.263 80.153, 116.750 80.928 C 115.237 81.704, 114 82.663, 114 83.061 C 114 83.458, 112.987 84.058, 111.750 84.395 C 109.337 85.050, 103 90.422, 103 91.812 C 103 92.273, 104.079 93.665, 105.398 94.904 C 110.979 100.147, 111.162 120.750, 105.696 128.427 C 104.064 130.719, 103.496 133.005, 103.445 137.496 C 103.382 143.001, 99.667 157.936, 97.202 162.596 C 96.648 163.643, 95.620 166.525, 94.917 169 C 94.215 171.475, 93.348 173.950, 92.992 174.500 C 92.636 175.050, 91.533 177.750, 90.541 180.500 C 89.549 183.250, 88.346 185.928, 87.869 186.450 C 87.391 186.973, 87 188.345, 87 189.500 C 87 190.655, 86.622 192.027, 86.160 192.550 C 85.698 193.072, 84.745 195.075, 84.042 197 C 83.338 198.925, 80.971 204.550, 78.781 209.500 C 73.050 222.451, 72.352 224.107, 70.982 228 C 69.256 232.901, 67.143 237.265, 62.034 246.477 C 57.609 254.454, 56.641 259.542, 59.241 261.149 C 60.379 261.852, 66.341 256.550, 68.500 252.914 C 71.666 247.582, 77 236.697, 77 235.567 C 77 234.840, 77.675 233.685, 78.500 233 C 79.344 232.300, 80 230.120, 80 228.018 C 80 225.255, 80.909 223.138, 83.490 219.891 C 85.410 217.476, 86.985 215.014, 86.990 214.419 C 86.996 213.825, 88.123 211.125, 89.496 208.419 C 90.869 205.714, 91.994 202.745, 91.996 201.821 C 91.998 200.898, 92.565 199.548, 93.256 198.821 C 93.947 198.095, 94.569 196.351, 94.638 194.946 C 94.707 193.541, 95.717 190.419, 96.882 188.008 C 98.047 185.597, 99 183.032, 99 182.309 C 99 181.585, 99.900 179.314, 101 177.261 C 102.100 175.209, 103 172.510, 103 171.265 C 103 167.994, 104.813 168.470, 108.654 172.750 C 112.133 176.625, 118 187.742, 118 190.458 C 118 191.306, 118.406 192, 118.902 192 C 119.398 192, 120.286 193.383, 120.876 195.073 C 121.708 197.460, 122.451 198.074, 124.204 197.823 C 126.062 197.557, 126.610 196.617, 127.304 192.500 C 127.854 189.233, 127.775 186.898, 127.073 185.764 C 126.483 184.809, 126 183.394, 126 182.621 C 126 180.855, 128.714 179.728, 129.582 181.133 C 129.960 181.744, 131.638 181.915, 133.615 181.544 C 136.753 180.956, 137 181.098, 137 183.495 C 137 186.680, 133.598 193.557, 131.653 194.303 C 129.914 194.970, 127 200.570, 127 203.243 C 127 205.331, 130.655 208.912, 132.841 208.967 C 135.192 209.025, 142.477 202.026, 143.005 199.202 C 143.390 197.140, 144.172 196.424, 146.307 196.179 C 148.179 195.963, 149.409 195.054, 150.027 193.429 C 150.535 192.093, 151.455 191, 152.071 191 C 157.880 191, 171 170.047, 171 160.769 C 171 159.724, 171.474 157.983, 172.053 156.901 C 174.339 152.629, 168.041 140.829, 162.497 138.999 C 159.291 137.941, 158.309 138.093, 153.423 140.406 C 150.410 141.833, 147.737 143, 147.481 143 C 146.533 143, 137.638 150.190, 135.968 152.306 C 135.017 153.513, 132.376 156.525, 130.100 159 C 127.824 161.475, 125.031 165.410, 123.894 167.744 C 122.757 170.079, 121.344 172.288, 120.753 172.653 C 119.795 173.245, 116.719 170.350, 111.864 164.286 C 110.963 163.162, 109.665 162.055, 108.979 161.826 C 108.026 161.509, 108.254 159.294, 109.945 152.455 C 111.162 147.530, 112.511 141.822, 112.941 139.772 C 114.216 133.698, 124.689 121.356, 126.788 123.454 C 127.127 123.793, 127.294 125.698, 127.160 127.688 C 126.892 131.675, 128.734 136.287, 131.980 139.758 C 134.278 142.214, 135.792 142.156, 144 139.291 C 149.271 137.451, 156.703 131.747, 158.248 128.355 C 159.155 126.363, 158.953 125.578, 156.991 123.490 C 153.943 120.246, 151.702 120.348, 147.191 123.937 C 145.161 125.553, 142.262 127.176, 140.750 127.546 C 138.332 128.136, 138.004 127.932, 138.035 125.858 C 138.080 122.840, 140.468 111.670, 141.385 110.185 C 141.770 109.563, 143.668 108.302, 145.604 107.384 C 147.539 106.465, 149.882 104.619, 150.811 103.280 C 151.740 101.942, 153.696 99.558, 155.158 97.983 C 157.439 95.525, 159.312 92.061, 165.238 79.336 C 165.792 78.146, 166.299 73.605, 166.363 69.245 C 166.476 61.630, 166.363 61.214, 163.490 58.690 C 159.797 55.445, 157.861 55.470, 151.482 58.845 M 151 70.500 C 149.136 71.875, 147.224 73, 146.750 73 C 146.276 73, 143.107 75.250, 139.708 78 C 136.310 80.750, 132.559 83, 131.373 83 C 130.188 83, 127.040 84.800, 124.377 87 C 121.715 89.200, 118.811 91, 117.923 91 C 116.314 91, 113 93.974, 113 95.418 C 113 95.837, 113.958 96.955, 115.129 97.903 C 116.640 99.127, 117.403 101.138, 117.758 104.834 C 118.305 110.522, 119.631 112.225, 121.512 109.653 C 122.177 108.744, 123.614 108, 124.705 108 C 128.776 108, 130.101 104.936, 129.381 97.187 C 128.847 91.445, 129.040 89.588, 130.383 87.538 C 131.298 86.142, 132.641 85, 133.368 85 C 135.681 85, 137.842 88.370, 138.176 92.500 C 138.649 98.346, 141.313 98.283, 147.212 92.287 C 150.946 88.492, 152.565 85.689, 155.025 78.757 C 159.010 67.527, 157.958 65.367, 151 70.500 M 40.905 84.750 C 37.099 89.490, 36.902 90.778, 39.653 92.942 C 41.893 94.703, 42.174 95.516, 41.660 98.745 C 41.007 102.852, 41.583 104.308, 44.250 105.292 C 47.420 106.461, 49 105.018, 49 100.952 C 49 98.843, 49.450 96.840, 50 96.500 C 51.762 95.411, 51.074 91.077, 48.487 86.980 C 45.775 82.683, 43.178 81.919, 40.905 84.750 M 16.807 140.525 C 15.776 142.787, 16.013 143.423, 19.078 146.628 C 20.960 148.596, 24.873 151.342, 27.773 152.731 C 33.048 155.257, 37.660 160.123, 36.522 161.964 C 36.190 162.501, 36.600 164.260, 37.434 165.872 C 39.615 170.089, 39.627 177.129, 37.486 196.076 C 37.010 200.294, 37.131 203.376, 37.824 204.671 C 38.650 206.214, 38.545 207.205, 37.378 208.870 C 35.340 211.781, 36.414 216.394, 39.739 219.010 C 47.982 225.493, 55.439 220.699, 63.866 203.500 C 66.288 198.559, 67.358 185.542, 65.472 183.976 C 63.589 182.414, 61.002 185.499, 60.989 189.321 C 60.984 191.081, 59.042 196.294, 56.639 201 C 52.287 209.525, 48.840 212.920, 45.743 211.732 C 43.409 210.836, 42.657 200.321, 44.081 188.500 C 45.970 172.813, 45.848 162.081, 43.750 159.411 C 42.788 158.187, 42 156.304, 42 155.227 C 42 151.890, 36.006 145.098, 33 145.029 C 32.175 145.010, 28.890 143.421, 25.700 141.497 C 22.510 139.574, 19.463 138, 18.928 138 C 18.394 138, 17.439 139.136, 16.807 140.525 M 152.750 153.298 C 149.153 156.277, 149.277 156.751, 153.615 156.614 C 158.685 156.454, 159.814 159.508, 156.397 164.140 C 155.041 165.978, 153.103 167.788, 152.091 168.162 C 150.083 168.905, 148.629 174.876, 150.080 176.423 C 151.576 178.017, 155.455 175.448, 157.303 171.638 C 158.266 169.653, 159.799 166.485, 160.710 164.597 C 162.032 161.856, 162.178 160.191, 161.433 156.332 C 160.635 152.200, 160.138 151.465, 158 151.260 C 156.578 151.124, 154.314 152.002, 152.750 153.298 M 138 163 C 138 163.550, 138.450 164, 139 164 C 139.550 164, 140 163.550, 140 163 C 140 162.450, 139.550 162, 139 162 C 138.450 162, 138 162.450, 138 163 M 188.500 212.694 C 184.497 213.186, 178.636 215.728, 172.298 219.722 C 166.368 223.459, 165.734 223.589, 163.952 221.442 C 162.733 219.974, 156.707 217, 154.949 217 C 153.467 217, 151 220.121, 151 221.995 C 151 224.524, 155.766 230, 157.966 230 C 158.950 230, 160.354 230.722, 161.086 231.604 C 162.043 232.756, 163.479 233.065, 166.193 232.701 C 169.305 232.283, 170.620 232.711, 173.666 235.132 C 178.529 238.996, 181.727 243.828, 182.911 249.101 C 184.624 256.721, 182.430 262, 177.552 262 C 172.846 262, 148.488 249.882, 138.365 242.505 C 136.722 241.308, 133.652 242.944, 133.195 245.261 C 132.822 247.156, 142.621 256.883, 147.182 259.146 C 171.571 271.247, 172.188 271.479, 179.354 271.269 C 183.123 271.159, 186.991 270.820, 187.950 270.516 C 189.930 269.888, 192.618 262.808, 191.539 261.063 C 191.148 260.430, 191.283 259.364, 191.839 258.694 C 193.054 257.231, 191.428 248.956, 189.148 245 C 188.673 244.175, 187.484 241.925, 186.506 240 C 185.528 238.075, 182.891 234.583, 180.646 232.240 L 176.565 227.981 179.309 225.240 C 181.910 222.643, 182.517 222.506, 190.935 222.612 C 197.960 222.700, 200.514 223.148, 203.158 224.754 C 204.996 225.871, 207.931 227.087, 209.681 227.456 C 211.430 227.826, 213.398 228.775, 214.053 229.564 C 214.709 230.354, 216.963 231, 219.063 231 C 221.164 231, 223.160 231.450, 223.500 232 C 223.840 232.550, 225.363 233, 226.885 233 C 228.543 233, 230.592 234.002, 232 235.500 C 236.151 239.919, 241 237.771, 241 231.514 C 241 228.579, 240.437 227.856, 236.390 225.594 C 233.855 224.177, 229.917 222.525, 227.640 221.923 C 225.363 221.321, 219.521 219.494, 214.658 217.863 C 209.795 216.233, 203.270 214.446, 200.158 213.893 C 197.046 213.341, 193.825 212.762, 193 212.607 C 192.175 212.452, 190.150 212.491, 188.500 212.694 M 95.557 242.223 C 94.701 243.445, 94 246.399, 94 248.788 C 94 251.177, 93.468 254.114, 92.817 255.316 C 92.167 256.517, 91.725 258.750, 91.835 260.277 C 91.951 261.873, 90.966 264.628, 89.518 266.759 C 86.372 271.388, 86.336 274.028, 89.381 276.889 C 91.644 279.014, 91.944 279.050, 95.381 277.614 C 98.071 276.490, 99 275.504, 99 273.774 C 99 272.493, 99.752 270.372, 100.670 269.060 C 102.559 266.363, 102.996 263.928, 103.669 252.321 C 104.092 245.021, 103.921 243.921, 102.071 242.071 C 99.406 239.406, 97.499 239.450, 95.557 242.223" stroke="none" fill="black" fill-rule="evenodd"/>
</svg>