<svg xmlns="http://www.w3.org/2000/svg" width="300" height="300" viewBox="0 0 300 300" version="1.1">
	<path d="M 153.941 10.562 C 149.176 15.634, 145.595 17.148, 140.086 16.417 C 135.273 15.779, 135 15.870, 134.023 18.440 C 132.784 21.697, 133.846 24.044, 137.423 25.959 C 140.272 27.484, 140.774 30.113, 138.565 31.946 C 136.076 34.012, 133 40.927, 133 44.458 C 133 48.301, 136.677 52, 140.498 52 C 142.528 52, 142.774 52.598, 143.268 58.744 C 143.565 62.454, 143.446 66.166, 143.003 66.994 C 142.559 67.822, 138.757 70.750, 134.553 73.499 C 127.585 78.057, 126.936 78.761, 127.205 81.476 C 127.633 85.801, 131.219 87.376, 135.937 85.311 C 137.897 84.454, 140.586 83.516, 141.914 83.228 C 143.889 82.799, 144.207 83.018, 143.664 84.434 C 143.299 85.385, 143 86.764, 143 87.498 C 143 88.233, 140.153 90.221, 136.673 91.916 C 122.470 98.835, 116.352 105.053, 118.958 109.922 C 120.492 112.787, 123.575 112.529, 130.020 108.996 C 133.034 107.344, 137.525 105.068, 140 103.939 C 142.475 102.811, 146.207 101.025, 148.294 99.971 C 150.380 98.917, 156.905 96.164, 162.794 93.854 C 175.447 88.891, 177 87.755, 177 83.467 C 177 78.493, 174.943 77.382, 168.689 78.976 C 165.835 79.704, 162.491 80.957, 161.258 81.760 C 157.309 84.331, 156 82.788, 156 75.561 C 156 69.502, 156.203 68.910, 158.990 66.849 C 162.832 64.009, 163.576 61.528, 161.523 58.395 C 160.243 56.441, 159.183 55.956, 156.718 56.194 C 153.632 56.493, 153.539 56.381, 152.826 51.507 C 152.117 46.652, 152.203 46.408, 155.952 42.696 C 161.347 37.355, 162.721 33.749, 160.596 30.506 C 158.320 27.033, 155.285 27.300, 153.203 31.157 C 150.775 35.656, 148.308 38, 146 38 C 144.900 38, 144 37.637, 144 37.193 C 144 35.979, 148.808 30.203, 155.183 23.757 C 158.309 20.596, 161.452 16.391, 162.168 14.413 C 163.345 11.158, 163.285 10.682, 161.543 9.408 C 158.736 7.355, 156.658 7.671, 153.941 10.562 M 70.571 89.571 C 68.535 91.607, 68.554 91.726, 71.500 95.589 C 72.875 97.392, 74 100.198, 74 101.826 C 74 105.011, 76.055 106.545, 77.878 104.722 C 78.495 104.105, 79 102.817, 79 101.859 C 79 100.901, 79.450 99.840, 80 99.500 C 81.743 98.423, 81.156 91.451, 79.171 89.655 C 76.861 87.565, 72.620 87.523, 70.571 89.571 M 140.750 110.392 C 138.431 112.153, 138.534 115.592, 141 118.727 C 142.100 120.126, 143.003 122.222, 143.006 123.385 C 143.010 124.548, 143.685 126.789, 144.506 128.364 C 146.386 131.968, 146.382 132, 144.134 132 C 143.079 132, 140.702 134.066, 138.669 136.750 C 136.689 139.363, 134.437 142.175, 133.665 143 C 131.221 145.609, 128.991 150.813, 129.617 152.445 C 131.266 156.742, 137.945 154.661, 141.472 148.750 C 142.375 147.238, 143.936 146, 144.942 146 C 147.011 146, 150 149.998, 150 152.765 C 150 153.774, 150.518 155.118, 151.151 155.751 C 152.405 157.005, 153.619 162.613, 154.990 173.500 C 155.476 177.350, 156.351 182.924, 156.936 185.886 C 158.506 193.835, 158.340 230.153, 156.724 232.363 C 155.193 234.457, 152.346 233.665, 151.469 230.902 C 150.452 227.698, 145.940 223, 143.880 223 C 139.519 223, 140.601 229.462, 146.379 237.927 C 148.095 240.442, 149.994 243.400, 150.599 244.500 C 151.203 245.600, 152.860 247.160, 154.280 247.967 C 156.630 249.301, 157.060 249.256, 159.041 247.467 C 163.572 243.375, 164.869 238.397, 166.009 220.725 C 166.796 208.519, 166.789 202.390, 165.982 198.225 C 165.372 195.076, 165.014 188.900, 165.187 184.500 C 165.472 177.220, 165.691 176.473, 167.627 176.197 C 168.797 176.030, 171.366 176.930, 173.336 178.197 C 182.554 184.123, 185.859 186, 187.076 186 C 189.963 186, 226.518 204.896, 235.438 211 C 241.857 215.392, 243.927 216.825, 248.455 220.012 C 251.181 221.931, 256.237 225.975, 259.690 229 C 263.144 232.025, 267.846 236.075, 270.138 238 C 272.430 239.925, 274.891 242.897, 275.606 244.605 C 277.164 248.327, 283.356 254, 285.860 254 C 286.845 254, 288.704 252.879, 289.991 251.510 C 293.075 248.227, 292.007 245.864, 284.516 239.386 C 281.409 236.699, 274.509 230.349, 269.183 225.277 C 263.857 220.204, 258.782 216.041, 257.905 216.027 C 257.028 216.012, 255.453 215.032, 254.405 213.848 C 252.783 212.017, 240.360 203.586, 228.089 195.990 C 226.213 194.828, 219.913 191.696, 214.089 189.029 C 190.353 178.160, 176 169.402, 176 165.787 C 176 164.846, 178.629 161.414, 181.841 158.161 C 185.054 154.908, 189.738 149.153, 192.250 145.373 C 196.418 139.101, 197.456 137.109, 200.125 130.250 C 200.606 129.012, 201.518 126.890, 202.151 125.534 C 203.537 122.563, 202.249 120.530, 198.363 119.555 C 195.135 118.745, 193.398 120.183, 191.993 124.830 C 189.066 134.512, 183.447 143.428, 174.438 152.687 C 169.454 157.809, 164.930 162, 164.386 162 C 163.841 162, 162.568 159.637, 161.558 156.750 C 160.547 153.863, 159.333 151.073, 158.860 150.550 C 158.387 150.028, 158 148.367, 158 146.859 C 158 145.351, 157.550 143.840, 157 143.500 C 156.450 143.160, 156 142.005, 156 140.932 C 156 138.357, 151.161 133, 148.835 133 C 146.375 133, 146.496 132.585, 150 129 C 152.298 126.650, 153 125.016, 153 122.025 C 153 119.876, 152.550 117.840, 152 117.500 C 151.450 117.160, 151 116.041, 151 115.014 C 151 112.874, 146.523 108.984, 144.115 109.032 C 143.227 109.049, 141.713 109.661, 140.750 110.392 M 51.125 153.706 C 49.161 155.304, 49.045 155.855, 50.058 158.750 C 50.985 161.397, 51.728 162, 54.064 162 C 57.437 162, 63.567 164.601, 66.750 167.382 C 68.799 169.173, 69 170.232, 69 179.224 C 69 186.294, 68.548 189.973, 67.410 192.174 C 66.187 194.539, 65.899 197.548, 66.160 205.212 C 66.484 214.698, 66.635 215.292, 69.306 217.588 C 70.849 218.915, 73.154 220, 74.428 220 C 77.282 220, 84.067 212.898, 86.465 207.401 C 87.401 205.255, 88.804 202.022, 89.583 200.216 C 90.521 198.041, 91 193.205, 91 185.900 C 91 179.833, 91.441 174.045, 91.979 173.039 C 92.674 171.741, 92.573 170.890, 91.631 170.109 C 88.897 167.840, 85.305 175.456, 83.308 187.759 C 83.017 189.552, 82.379 191.266, 81.890 191.568 C 81.400 191.871, 81 193.161, 81 194.437 C 81 195.712, 80.351 197.294, 79.558 197.952 C 78.765 198.610, 77.977 200.578, 77.808 202.324 C 77.612 204.344, 76.954 205.500, 76 205.500 C 74.814 205.500, 74.560 204.350, 74.789 200 C 75.940 178.046, 76.019 168.619, 75.058 167.658 C 74.476 167.076, 74 165.878, 74 164.996 C 74 162.271, 67.726 157.141, 61.977 155.166 C 58.965 154.131, 55.787 152.975, 54.915 152.598 C 53.990 152.198, 52.412 152.659, 51.125 153.706 M 124.500 175.148 C 120.828 177.145, 114.525 181.377, 112.250 183.374 C 109.282 185.978, 109.090 192.442, 111.934 193.965 C 114.708 195.449, 115.215 195.328, 120.100 192.018 C 122.520 190.378, 125.068 189.028, 125.762 189.018 C 127.660 188.991, 126.162 196.671, 123.326 201.500 C 122.035 203.700, 120.071 207.300, 118.963 209.500 C 117.855 211.700, 114.242 216.862, 110.934 220.972 C 104.249 229.276, 103.601 232.283, 108.377 232.829 C 112.152 233.260, 117.462 228.150, 123.808 217.979 C 126.388 213.843, 129.064 209.568, 129.752 208.479 C 130.441 207.391, 131.482 205.384, 132.065 204.020 C 132.648 202.657, 133.557 201.274, 134.084 200.948 C 134.611 200.622, 135.948 197.913, 137.055 194.928 C 139.393 188.621, 138.988 182.154, 135.940 177.142 C 134.334 174.501, 133.429 174.005, 130.265 174.030 C 128.194 174.047, 125.600 174.550, 124.500 175.148" stroke="none" fill="black" fill-rule="evenodd"/>
</svg>