<svg xmlns="http://www.w3.org/2000/svg" width="300" height="300" viewBox="0 0 300 300" version="1.1">
	<path d="M 156.687 32.713 L 149.874 36.375 147.559 33.471 C 145.481 30.866, 144.982 30.687, 142.691 31.731 C 140.682 32.647, 139.990 33.885, 139.440 37.550 C 138.845 41.519, 138.283 42.401, 135.621 43.536 C 131.689 45.212, 130.175 43.980, 129.345 38.431 C 128.323 31.594, 124.201 30.036, 120.934 35.250 C 119.346 37.784, 119.023 39.516, 119.465 43.114 C 120.112 48.375, 120.008 48.500, 112 51.994 C 105.941 54.637, 103.674 56.708, 104.495 58.848 C 104.792 59.621, 104.526 60.866, 103.905 61.614 C 103.284 62.362, 103.059 63.710, 103.404 64.609 C 104.276 66.884, 109.649 65.711, 112.982 62.518 C 114.471 61.091, 116.987 59.952, 119.018 59.785 C 122.318 59.515, 122.517 59.679, 122.826 62.923 C 123.006 64.806, 122.628 67.326, 121.987 68.524 C 119.462 73.242, 121.170 75.580, 130.793 80.576 C 131.973 81.188, 140.228 79.189, 145.750 76.954 C 148.699 75.760, 148.603 72.943, 145.500 69.595 C 144.125 68.111, 143 66.427, 143 65.853 C 143 64.609, 145.901 59.213, 147.893 56.751 C 148.672 55.788, 149.848 52.878, 150.507 50.283 C 151.617 45.910, 152.063 45.427, 156.602 43.674 C 168.880 38.933, 171.889 36.439, 170.414 32.220 C 168.990 28.145, 164.913 28.291, 156.687 32.713 M 132.678 54.750 C 131.737 56.355, 132.304 64.065, 133.338 63.721 C 134.984 63.172, 138.174 56.897, 137.587 55.365 C 137.034 53.925, 133.427 53.473, 132.678 54.750 M 51 90.310 C 48.715 91.468, 48.490 92.174, 48.381 98.538 C 48.315 102.367, 47.920 107.630, 47.503 110.232 C 46.854 114.277, 47.004 115.064, 48.532 115.651 C 49.805 116.139, 50.992 115.496, 52.655 113.418 C 53.939 111.813, 54.992 109.953, 54.995 109.285 C 54.998 108.617, 56.125 106.056, 57.500 103.593 C 58.875 101.130, 60 97.825, 60 96.249 C 60 90.903, 55.583 87.988, 51 90.310 M 134.065 91.878 C 132.567 94.678, 132.741 97.540, 134.500 99 C 137.841 101.773, 135.404 105.548, 127.784 109.400 C 125.740 110.433, 121.972 113.492, 119.411 116.196 C 116.850 118.901, 113.658 121.834, 112.316 122.712 C 109.935 124.272, 109.751 124.186, 104.574 119.073 C 99.596 114.156, 98.895 113.801, 93.162 113.281 C 87.151 112.736, 87.037 112.773, 85.936 115.614 C 84.306 119.821, 86.427 123.129, 91.603 124.455 C 96 125.582, 104.495 132.350, 107.081 136.787 C 108.229 138.757, 109.463 139.500, 111.581 139.500 C 114.178 139.500, 114.594 139.059, 115.349 135.500 C 116.586 129.673, 118.430 126.740, 122.179 124.637 C 124.005 123.612, 125.725 122.461, 126 122.078 C 126.830 120.922, 136.159 116, 137.519 116 C 139.421 116, 139.991 118.451, 138.958 122.191 C 138 125.660, 127.987 134.893, 119.250 140.364 C 116.157 142.301, 115 143.683, 115 145.441 C 115 148.177, 117.380 151, 119.685 151 C 121.471 151, 128.110 147.533, 132.594 144.259 C 138.245 140.134, 139.278 141.212, 137.624 149.508 C 136.451 155.387, 136.297 155.591, 129.464 160.340 C 125.634 163.002, 120.644 166.152, 118.375 167.340 C 116.106 168.528, 111.686 171.203, 108.553 173.284 C 103.135 176.882, 102.890 177.225, 103.546 180.284 C 104.502 184.743, 104.743 185, 107.974 185 C 109.852 185, 111.801 183.972, 113.662 182 C 115.219 180.350, 117.267 179, 118.212 179 C 119.157 179, 121.409 177.712, 123.215 176.139 C 125.022 174.565, 127.963 172.528, 129.750 171.613 C 133.619 169.632, 133.738 170.069, 131.584 178.338 C 129.730 185.457, 127.576 189.499, 124.461 191.705 C 123.067 192.692, 118.906 195.860, 115.214 198.744 C 111.521 201.629, 107.993 203.991, 107.372 203.994 C 106.752 203.997, 105.645 204.722, 104.912 205.605 C 103.506 207.300, 93.638 212, 91.486 212 C 90.791 212, 89.235 212.799, 88.030 213.775 C 86.075 215.358, 85.973 215.847, 87.090 218.299 C 88.651 221.725, 92.225 222.738, 95.402 220.656 C 96.716 219.795, 100.402 218.173, 103.595 217.051 C 106.787 215.929, 112.010 212.984, 115.201 210.506 C 124.532 203.259, 124.940 204.105, 118.500 217.342 C 116.025 222.430, 114 226.896, 114 227.266 C 114 229.235, 107.929 240.709, 102.286 249.404 C 93.601 262.788, 88.269 268.909, 83.701 270.736 C 80.765 271.911, 79.964 272.739, 80.197 274.359 C 80.654 277.532, 85.045 278.681, 89.190 276.714 C 92.409 275.187, 97.964 269.874, 98.032 268.259 C 98.078 267.155, 102.329 262.680, 104.533 261.415 C 105.572 260.819, 107.166 259.019, 108.074 257.415 C 108.983 255.812, 112.263 250.185, 115.363 244.912 C 118.463 239.639, 121 234.558, 121 233.622 C 121 232.685, 121.806 230.700, 122.790 229.210 C 123.775 227.719, 125.071 225.600, 125.670 224.500 C 127.465 221.205, 137 221.859, 145.166 225.837 C 148.737 227.577, 152.453 229, 153.425 229 C 154.396 229, 156.411 229.869, 157.903 230.931 C 161.213 233.288, 170.757 236.999, 173.510 236.999 C 174.616 237, 176.643 238.012, 178.014 239.250 C 179.386 240.488, 183.018 242.695, 186.085 244.156 C 189.152 245.617, 193.790 248.654, 196.391 250.906 C 198.993 253.158, 201.466 255, 201.888 255 C 202.309 255, 206.894 259.332, 212.077 264.626 C 217.260 269.920, 222.712 275.372, 224.194 276.741 C 225.676 278.110, 228.147 281.091, 229.686 283.365 C 232.457 287.460, 236.902 291.996, 238.144 291.999 C 238.499 291.999, 240.186 290.694, 241.894 289.099 C 244.742 286.439, 246.159 282, 244.161 282 C 243.699 282, 242.803 280.862, 242.169 279.472 C 241.536 278.081, 240.235 276.644, 239.278 276.276 C 236.958 275.386, 228 266.609, 228 265.226 C 228 264.626, 227.212 263.885, 226.249 263.579 C 225.285 263.273, 220.898 259.540, 216.499 255.283 C 207.953 247.014, 208.025 247.072, 196.855 239.542 C 184.836 231.439, 179.250 228.688, 163.191 222.960 C 160.270 221.919, 155.095 219.765, 151.691 218.174 C 145.189 215.136, 137.674 213, 133.486 213 C 131.680 213, 131 212.462, 131 211.031 C 131 208.482, 134.914 200.970, 136.575 200.333 C 137.280 200.062, 138.647 197.643, 139.613 194.955 C 142.195 187.775, 152.068 178.049, 168.797 166.207 C 170.578 164.945, 173.940 163.087, 176.268 162.077 C 182.364 159.432, 184.902 156.288, 184.265 152.172 C 183.633 148.085, 179.523 145.574, 177.640 148.125 C 177.013 148.975, 172.225 152.522, 167 156.007 C 161.775 159.492, 155.598 164.066, 153.272 166.172 C 146.042 172.719, 144.770 170.207, 150.503 160.700 C 154.654 153.815, 154.850 151.603, 151.500 149.408 C 149.400 148.032, 149 146.991, 149 142.899 C 149 133.741, 152.613 123.171, 159.049 113.500 C 163.056 107.478, 164.408 102.631, 162.804 100.035 C 161.045 97.189, 157.610 96.479, 152.985 98.005 C 148.058 99.631, 146.462 98.950, 144.276 94.292 C 142.749 91.037, 141.975 90.457, 138.814 90.194 C 135.966 89.957, 134.889 90.338, 134.065 91.878 M 25.690 144.154 C 23.163 145.568, 21.122 150.185, 21.696 153.188 C 22.243 156.051, 23.244 157.281, 30.227 163.671 C 32.734 165.966, 35.067 168.299, 35.411 168.856 C 36.790 171.088, 39.842 191.291, 39.110 193.341 C 38.421 195.271, 37.658 208.373, 37.578 219.672 C 37.542 224.726, 39.899 227.703, 44.642 228.593 C 48.556 229.327, 51.578 227.688, 56.370 222.234 C 60.852 217.131, 64.390 208.193, 63.409 204.450 C 63.113 203.323, 63.800 200.044, 64.936 197.163 C 67.202 191.413, 67.530 188.446, 66.004 187.503 C 63.751 186.110, 58.226 194.703, 52.823 208 C 50.381 214.012, 49.300 215.519, 47.217 215.820 C 45.654 216.045, 45 215.625, 45 214.398 C 45 213.441, 44.385 211.947, 43.634 211.079 C 41.494 208.605, 40.950 200.095, 42.639 195.500 C 43.448 193.300, 44.368 186.766, 44.685 180.980 C 45.247 170.725, 45.186 170.311, 42.239 164.480 C 40.577 161.191, 37.143 156.275, 34.608 153.557 C 32.026 150.786, 30 147.646, 30 146.414 C 30 143.830, 28.074 142.820, 25.690 144.154" stroke="none" fill="black" fill-rule="evenodd"/>
</svg>