<svg xmlns="http://www.w3.org/2000/svg" width="300" height="300" viewBox="0 0 300 300" version="1.1">
	<path d="M 106.807 50.250 C 105.941 50.938, 105 52.625, 104.717 54 C 104.124 56.883, 102.128 62.705, 100.866 65.236 C 100.390 66.191, 100 68.302, 100 69.927 C 100 71.552, 99.550 73.160, 99 73.500 C 98.450 73.840, 98 75.190, 98 76.500 C 98 77.810, 97.550 79.160, 97 79.500 C 96.450 79.840, 95.988 81.554, 95.974 83.309 C 95.950 86.355, 95.487 86.726, 85.793 91.468 C 80.208 94.200, 74.041 97.519, 72.089 98.844 C 70.137 100.168, 66.731 101.488, 64.520 101.776 C 57.855 102.644, 56.787 107.048, 62.646 109.497 C 66.103 110.941, 66.636 110.884, 72.896 108.390 C 76.528 106.944, 81.170 104.914, 83.210 103.880 C 85.251 102.846, 87.613 102, 88.460 102 C 90.165 102, 90.587 105.519, 89 106.500 C 88.450 106.840, 88 108.673, 88 110.573 C 88 112.473, 87.613 114.809, 87.141 115.764 C 85.459 119.164, 83 127.810, 83 130.325 C 83 131.731, 82.550 133.160, 82 133.500 C 81.450 133.840, 81 135.341, 81 136.837 C 81 138.332, 80.379 140.443, 79.621 141.527 C 78.863 142.612, 77.689 146.200, 77.013 149.500 C 76.336 152.800, 75.451 155.950, 75.044 156.500 C 74.012 157.897, 71 167.542, 71 169.451 C 71 171.038, 70.719 171.744, 67.669 177.831 C 66.751 179.663, 66 181.936, 66 182.881 C 66 183.826, 65.628 185.027, 65.174 185.550 C 64.720 186.072, 63.726 188.525, 62.967 191 C 62.207 193.475, 60.554 197.590, 59.293 200.145 C 58.032 202.700, 57 205.233, 57 205.773 C 57 206.313, 56.325 207.315, 55.500 208 C 54.675 208.685, 54 209.886, 54 210.670 C 54 211.455, 52.533 214.437, 50.741 217.298 C 48.948 220.159, 46.979 223.625, 46.365 225 C 42.382 233.922, 42.119 236, 44.974 236 C 46.194 236, 47.584 234.758, 48.611 232.750 C 49.525 230.963, 52.395 226.800, 54.988 223.500 C 57.581 220.200, 61.836 213, 64.445 207.500 C 67.054 202, 69.603 196.707, 70.110 195.738 C 70.617 194.769, 71.730 191.844, 72.583 189.238 C 73.437 186.632, 74.728 183.150, 75.452 181.500 C 76.177 179.850, 77.334 176.700, 78.023 174.500 C 78.713 172.300, 79.630 169.600, 80.061 168.500 C 80.492 167.400, 81.085 165.375, 81.379 164 C 81.673 162.625, 82.562 160.612, 83.356 159.527 C 84.658 157.747, 85.054 157.691, 87.406 158.950 C 90.285 160.491, 92.042 162.155, 95.046 166.189 C 98.986 171.478, 105 172.710, 105 168.228 C 105 165.541, 99.443 157.439, 93.766 151.849 C 87.613 145.791, 86.560 142.487, 89.532 138.559 C 90.339 137.491, 91 135.155, 91 133.368 C 91 131.580, 91.450 129.840, 92 129.500 C 92.550 129.160, 93 127.645, 93 126.132 C 93 124.620, 93.661 122.509, 94.468 121.441 C 95.276 120.374, 95.951 118.289, 95.968 116.809 C 95.986 115.329, 96.450 113.840, 97 113.500 C 97.550 113.160, 98 112.078, 98 111.095 C 98 108.481, 100.576 103.746, 103.485 101.014 C 104.881 99.703, 106.480 96.932, 107.039 94.857 C 107.652 92.578, 109.007 90.571, 110.456 89.791 C 120.587 84.344, 135.025 74.673, 139.029 70.652 C 144.594 65.064, 146.490 59.061, 143.602 56.173 C 142.121 54.692, 141.447 55.096, 135.246 61.183 C 129.325 66.994, 111.059 80, 108.818 80 C 107.461 80, 107.894 76.519, 109.701 72.904 C 110.637 71.032, 111.969 66.800, 112.662 63.500 C 113.355 60.200, 114.217 56.260, 114.579 54.744 C 115.726 49.928, 110.801 47.080, 106.807 50.250 M 147.223 119.557 C 145.537 120.737, 145 122.109, 145 125.236 C 145 131.398, 143.134 135.795, 137.462 143 C 129.065 153.667, 127.629 156.029, 128.819 157.219 C 129.571 157.971, 130.897 157.802, 133.343 156.642 C 135.245 155.739, 137.166 155, 137.611 155 C 138.595 155, 148.981 143.811, 148.992 142.739 C 149.001 141.849, 152.546 133.681, 154.587 129.846 C 157.020 125.275, 156.423 121.270, 153.050 119.526 C 149.466 117.673, 149.916 117.670, 147.223 119.557 M 107.401 122.540 C 107.007 124.108, 107.304 125.735, 108.175 126.790 C 111.173 130.422, 112.101 135.992, 112.125 150.518 C 112.138 158.546, 111.713 165.652, 111.180 166.308 C 110.285 167.408, 108.473 176.221, 107.283 185.256 C 107.011 187.322, 106.386 189.261, 105.894 189.565 C 105.402 189.869, 105 191.130, 105 192.368 C 105 193.605, 104.339 195.491, 103.532 196.559 C 102.724 197.626, 102.049 199.110, 102.032 199.855 C 101.937 203.898, 89.841 223.940, 83.032 231.337 C 79.570 235.097, 77.106 238.760, 77.035 240.250 C 77.016 240.662, 78.051 241, 79.336 241 C 84.644 241, 100.550 224.638, 105.098 214.500 C 105.591 213.400, 106.394 211.825, 106.882 211 C 109.027 207.370, 115 191.028, 115 188.788 C 115 187.869, 115.450 186.840, 116 186.500 C 116.550 186.160, 117 184.529, 117 182.875 C 117 181.222, 117.555 178.886, 118.234 177.684 C 120.632 173.439, 123.110 130.710, 121.076 128.676 C 120.484 128.084, 120 126.790, 120 125.800 C 120 122.650, 116.354 120, 112.019 120 C 108.590 120, 107.950 120.352, 107.401 122.540 M 118.250 204.985 C 117.013 205.508, 116 206.541, 116 207.281 C 116 209.726, 121.415 213.668, 127 215.289 C 136.167 217.950, 162.015 229.070, 168 232.929 C 168.825 233.461, 174.225 236.224, 180 239.070 C 198.144 248.010, 199.436 248.721, 202.196 251.292 C 203.678 252.673, 205.535 255.345, 206.323 257.230 C 208.917 263.439, 217.164 264.731, 220.612 259.469 C 223.131 255.625, 222.685 251.959, 219.375 249.311 C 217.794 248.045, 216.050 247.005, 215.500 246.999 C 214.950 246.993, 213.150 246.250, 211.500 245.348 C 209.850 244.446, 206.097 242.445, 203.159 240.901 C 200.222 239.358, 197.255 237.627, 196.566 237.055 C 194.262 235.142, 156.033 216, 154.518 216 C 152.942 216, 138.438 210.323, 131.272 206.900 C 126.104 204.433, 121.247 203.718, 118.250 204.985" stroke="none" fill="black" fill-rule="evenodd"/>
</svg>