<svg xmlns="http://www.w3.org/2000/svg" width="300" height="300" viewBox="0 0 300 300" version="1.1">
	<path d="M 136.859 21.410 C 135.991 23.316, 136.100 24.304, 137.380 26.133 C 138.271 27.404, 139 29.455, 139 30.689 C 139 31.923, 139.743 34.490, 140.650 36.393 C 142.262 39.774, 142.242 39.924, 139.756 42.879 C 138.356 44.542, 136.603 47.275, 135.861 48.952 C 135.119 50.628, 133.903 52, 133.159 52 C 132.414 52, 129.783 49.750, 127.310 47 C 123.239 42.472, 122.409 42, 118.514 42 C 115.603 42, 114.027 42.487, 113.635 43.509 C 112.598 46.211, 114.878 50.051, 118.391 51.519 C 120.907 52.570, 122.715 54.585, 125.321 59.246 C 131.751 70.744, 135.350 71.484, 138.514 61.957 C 139.439 59.173, 141.052 56.360, 142.098 55.707 C 143.144 55.053, 144 53.992, 144 53.348 C 144 52.705, 145.350 51.042, 147 49.653 C 148.650 48.265, 150 46.680, 150 46.132 C 150 44.369, 158.837 37.821, 160.703 38.201 C 162.171 38.499, 162.476 39.500, 162.372 43.659 C 162.233 49.146, 158.994 54.981, 156.062 55.022 C 155.203 55.034, 151.575 58.240, 148 62.146 C 144.425 66.052, 139.078 71.554, 136.117 74.374 C 133.157 77.193, 130.119 80.095, 129.367 80.821 C 128.615 81.548, 128 82.984, 128 84.012 C 128 85.041, 127.550 86.160, 127 86.500 C 126.450 86.840, 126 88.395, 126 89.955 C 126 92.106, 127.148 93.768, 130.750 96.830 C 136.595 101.798, 136.074 103.344, 127.324 107 C 120.708 109.764, 114.689 113.260, 111.250 116.336 C 108.809 118.519, 108.270 122.870, 110.200 124.800 C 111.588 126.188, 116.625 126.415, 117.422 125.125 C 118.074 124.071, 141.608 112, 143.012 112 C 143.556 112, 144 113.939, 144 116.309 C 144 118.679, 144.661 121.491, 145.468 122.559 C 147.310 124.994, 147.533 134.009, 145.750 133.978 C 145.063 133.966, 143.825 132.504, 143 130.728 C 141.843 128.239, 140.780 127.430, 138.352 127.194 C 135.553 126.922, 134.723 127.525, 130.852 132.644 C 125.677 139.488, 117.582 147.498, 113.750 149.567 C 107.607 152.883, 112.275 159.921, 119.695 158.529 C 122.463 158.010, 125.010 156.192, 129.770 151.337 C 136.165 144.815, 138.331 144.028, 139.703 147.727 C 141.057 151.380, 145.292 156.958, 147.161 157.551 C 148.226 157.889, 150.134 157.487, 151.400 156.658 C 154.769 154.450, 156.333 143.373, 156.424 121.066 L 156.500 102.633 161.722 100.066 C 164.996 98.457, 166.768 97.003, 166.472 96.169 C 166.213 95.437, 166.675 93.874, 167.500 92.696 C 169.731 89.512, 169.329 86.838, 166.250 84.376 C 163.932 82.522, 163.500 81.416, 163.500 77.338 C 163.500 73.022, 163.247 72.464, 161.152 72.168 C 158.700 71.821, 154 75.359, 154 77.552 C 154 78.214, 153.276 79.356, 152.392 80.090 C 151.025 81.224, 150.574 81.138, 149.392 79.521 C 147.110 76.401, 147.712 75.020, 153.963 69.036 C 157.242 65.896, 160.381 62.128, 160.938 60.663 C 161.495 59.199, 162.558 58, 163.301 58 C 164.913 58, 168.406 54.302, 169.440 51.500 C 170.817 47.771, 171.934 37.518, 171.347 34 C 170.128 26.691, 159.957 22.873, 154.746 27.769 C 151.516 30.803, 149 30.685, 149 27.500 C 149 26.125, 148.662 24.997, 148.250 24.994 C 147.838 24.990, 146.733 23.640, 145.797 21.994 C 143.558 18.060, 138.535 17.732, 136.859 21.410 M 136.174 83.314 C 134.978 84.587, 134 86.303, 134 87.127 C 134 89.389, 139.625 94.358, 141.411 93.673 C 143.416 92.903, 144.582 88.182, 143.127 86.727 C 142.507 86.107, 142 84.838, 142 83.907 C 142 82.976, 141.288 81.941, 140.418 81.607 C 138.336 80.808, 138.646 80.683, 136.174 83.314 M 52.750 99.056 C 51.625 99.727, 51 101.327, 51 103.537 C 51 106.449, 51.600 107.354, 54.921 109.450 C 57.077 110.811, 59.119 112.800, 59.459 113.870 C 59.798 114.940, 60.791 116.090, 61.665 116.425 C 64.257 117.420, 66 115.055, 66 110.544 C 66 103.331, 57.679 96.117, 52.750 99.056 M 183.668 122.126 C 182.661 122.711, 180.985 122.968, 179.944 122.696 C 175.525 121.540, 162 127.784, 162 130.980 C 162 132.716, 169.122 135.068, 172.473 134.439 C 174.686 134.024, 176.019 134.318, 176.937 135.424 C 177.858 136.534, 179.994 137, 184.158 137 C 194.692 137, 197.709 132.516, 192.364 124.804 C 189.637 120.868, 187.149 120.102, 183.668 122.126 M 41.137 154.894 C 38.841 156.349, 41.894 161.296, 45.888 162.591 C 47.738 163.191, 50.038 164.724, 50.998 165.997 C 53.245 168.977, 56 168.062, 56 164.336 C 56 161.461, 51.619 156, 49.313 156 C 48.591 156, 48 155.550, 48 155 C 48 153.778, 43.020 153.701, 41.137 154.894 M 166 168.933 C 165.175 169.503, 163.341 169.976, 161.924 169.985 C 160.485 169.993, 158.312 171.103, 157 172.500 C 155.708 173.875, 154.110 175, 153.448 175 C 152.786 175, 151.730 175.620, 151.101 176.378 C 150.473 177.136, 146.255 180.038, 141.729 182.828 C 132.741 188.369, 128 193.440, 128 197.512 C 128 200.647, 126.359 204, 124.825 204 C 123.381 204, 121.072 200.924, 121.032 198.947 C 120.986 196.728, 113.047 189, 110.813 189 C 109.781 189, 108.656 189.734, 108.312 190.631 C 107.731 192.144, 109.908 197.503, 112.523 201 C 113.140 201.825, 114.227 204.525, 114.939 207 C 116.307 211.753, 119.434 220.479, 121.569 225.500 C 122.929 228.701, 123.791 233.254, 124.656 241.815 C 125.098 246.191, 125.619 247.325, 127.606 248.230 C 129.645 249.159, 130.406 248.967, 132.510 246.991 C 135.074 244.582, 135.761 241.588, 134 240.500 C 133.450 240.160, 133 238.194, 133 236.131 C 133 234.067, 131.875 229.509, 130.500 226 C 129.125 222.491, 128 218.446, 128 217.010 C 128 215.575, 127.490 213.890, 126.867 213.267 C 125.153 211.553, 126.628 209, 129.333 209 C 131.232 209, 132.066 208.114, 133.359 204.729 C 135.314 199.610, 144.108 190.682, 146.705 191.180 C 148.259 191.477, 148.538 192.813, 148.784 201.117 L 149.069 210.710 145.601 213.355 C 143.694 214.810, 141.454 216, 140.622 216 C 136.689 216, 131.141 224.563, 133.317 227.276 C 136.016 230.642, 138.239 230.920, 141.650 228.318 C 147.216 224.073, 148.370 225.192, 148.618 235.072 L 148.833 243.635 145.667 245.211 C 143.925 246.077, 140.925 247.358, 139 248.058 C 134.219 249.795, 132 251.875, 132 254.620 C 132 258.274, 135.105 259.296, 142.646 258.122 C 146.232 257.563, 149.812 256.571, 150.602 255.916 C 151.391 255.261, 153.716 254.357, 155.768 253.907 C 157.821 253.457, 160.717 252.796, 162.204 252.437 L 164.907 251.785 164.704 257.642 L 164.500 263.500 168.500 263.500 L 172.500 263.500 173.500 258.439 C 174.050 255.656, 175.391 252.056, 176.481 250.439 C 178.911 246.833, 180.965 241.268, 180.985 238.236 C 181 235.977, 181.259 235.294, 184.357 229.346 C 185.261 227.611, 186 225.275, 186 224.155 C 186 223.035, 186.384 221.881, 186.854 221.590 C 187.685 221.077, 189.279 210.324, 190.525 196.836 C 190.991 191.790, 190.760 189.436, 189.570 187.136 C 188.707 185.466, 188 182.771, 188 181.146 C 188 179.064, 186.747 176.832, 183.750 173.574 C 179.796 169.276, 179.082 168.917, 173.500 168.425 C 170.068 168.123, 166.858 168.340, 166 168.933 M 81.729 176.132 C 80.778 176.664, 79.989 178.090, 79.975 179.300 C 79.936 182.801, 74.412 202.988, 73.147 204.253 C 72.516 204.884, 72 206.858, 72 208.641 C 72 210.424, 71.550 212.160, 71 212.500 C 70.450 212.840, 70 214.208, 70 215.540 C 70 217.694, 63.668 229, 62.461 229 C 62.199 229, 61.264 227.200, 60.383 225 C 57.176 216.984, 52.924 221.939, 54.287 232.103 C 54.985 237.303, 56.520 239, 60.530 239 C 63.196 239, 64.643 238.079, 68.211 234.110 C 70.629 231.421, 73.231 227.259, 73.993 224.860 C 74.755 222.462, 75.969 219.612, 76.690 218.527 C 77.410 217.443, 78 215.620, 78 214.477 C 78 213.335, 78.415 211.973, 78.923 211.450 C 79.431 210.928, 80.360 207.575, 80.989 204 C 81.617 200.425, 82.528 195.475, 83.014 193 C 84.530 185.274, 85.208 176.247, 84.314 175.694 C 83.843 175.403, 82.679 175.600, 81.729 176.132 M 159.381 182.619 C 158.193 183.108, 158.285 203.034, 159.484 204.975 C 159.833 205.539, 160.823 206, 161.685 206 C 163.425 206, 181.039 199.197, 182.297 198.040 C 183.158 197.247, 180.255 185.300, 178.702 183.250 C 177.785 182.040, 162.036 181.525, 159.381 182.619 M 173.053 213.436 C 172.398 214.225, 170.430 215.180, 168.681 215.558 C 163.271 216.725, 158.064 219.869, 157.576 222.262 C 157.325 223.493, 156.911 228.213, 156.655 232.750 L 156.189 241 161.023 241 C 164.065 241, 166.434 240.423, 167.414 239.443 C 169.726 237.131, 176 226.125, 176 224.381 C 176 223.549, 176.391 222.111, 176.868 221.184 C 177.346 220.258, 178.041 217.813, 178.414 215.750 C 179.043 212.262, 178.921 212, 176.668 212 C 175.335 212, 173.709 212.646, 173.053 213.436" stroke="none" fill="black" fill-rule="evenodd"/>
</svg>