<svg xmlns="http://www.w3.org/2000/svg" width="300" height="300" viewBox="0 0 300 300" version="1.1">
	<path d="M 145.267 25.250 C 142.922 28.247, 143.037 31.430, 145.587 34.091 C 147.794 36.394, 148.070 37.455, 147.804 42.594 L 147.500 48.466 142 51.170 C 138.975 52.657, 135.478 53.902, 134.229 53.937 C 130.808 54.032, 129.236 58.186, 131.381 61.459 C 133.389 64.523, 134.871 64.617, 140 62 C 142.156 60.900, 144.388 60, 144.960 60 C 146.462 60, 146.239 64.518, 144.416 71.015 C 142.575 77.576, 143.554 83.207, 147.291 87.552 C 150.473 91.251, 152.891 89.977, 163.151 79.195 C 171.724 70.187, 173.954 66.037, 171.373 63.895 C 169.117 62.022, 165.273 63.780, 160.173 69.016 C 157.503 71.757, 154.779 74, 154.120 74 C 153.259 74, 153.003 71.551, 153.211 65.294 L 153.500 56.588 158.667 53.070 C 161.509 51.134, 164.542 48.353, 165.406 46.889 C 166.838 44.466, 166.837 44.109, 165.395 42.913 C 164.076 41.819, 163.006 41.883, 159.021 43.299 C 156.387 44.235, 153.954 45, 153.616 45 C 152.468 45, 153.056 41.511, 154.532 39.559 C 158.346 34.515, 154.645 24, 149.054 24 C 147.509 24, 145.805 24.563, 145.267 25.250 M 62.750 90.689 C 60.606 91.250, 60.482 93.784, 62.495 95.916 C 69.997 103.866, 70.914 109.125, 66.338 117.946 C 64.350 121.777, 63.964 123.364, 64.813 124.213 C 66.841 126.241, 72.063 119.605, 74.818 111.500 C 77.764 102.830, 77.241 97.540, 72.984 92.983 C 70.268 90.076, 67.485 89.452, 62.750 90.689 M 158.898 94.474 C 157.029 95.834, 154.087 97.955, 152.360 99.187 C 150.633 100.418, 147.750 103.580, 145.954 106.213 C 144.157 108.846, 142.281 111, 141.785 111 C 141.289 111, 139.162 109.618, 137.060 107.928 C 134.150 105.590, 132.432 104.933, 129.868 105.178 C 127.050 105.447, 126.449 105.941, 126.188 108.201 C 125.729 112.184, 127.430 114.574, 133.481 118.444 C 136.463 120.353, 139.571 123.203, 140.386 124.780 C 142.759 129.369, 144.178 130.137, 147.777 128.778 C 150.413 127.783, 151.193 127.865, 152.779 129.300 C 153.812 130.235, 155.223 131, 155.915 131 C 157.909 131, 169.686 119.180, 173.666 113.185 C 176.746 108.544, 177.303 106.844, 177.394 101.811 C 177.487 96.613, 177.196 95.659, 175 93.969 C 171.217 91.057, 163.248 91.307, 158.898 94.474 M 159.349 106.752 C 155.886 109.772, 150 118.594, 150 120.764 C 150 121.760, 150.815 121.556, 152.972 120.020 C 159.169 115.607, 167 107.725, 167 105.900 C 167 103.063, 163.078 103.501, 159.349 106.752 M 204.055 132.101 C 202.375 133.941, 201 135.734, 201 136.087 C 201 136.440, 199.637 138.252, 197.972 140.114 C 193.551 145.056, 186.485 155.008, 183.968 159.837 C 181.158 165.228, 182.417 167.241, 188.324 166.799 C 191.939 166.529, 192.393 166.762, 193.071 169.237 C 193.483 170.743, 193.973 175.018, 194.160 178.737 L 194.500 185.500 190.717 185.276 C 187.643 185.094, 186.741 185.475, 185.907 187.304 C 184.316 190.796, 186.339 194.826, 190.570 196.593 L 194.152 198.090 193.826 217.464 C 193.647 228.119, 193.119 237.212, 192.652 237.669 C 191.839 238.466, 186 232.419, 186 230.779 C 186 230.342, 183.075 227.115, 179.500 223.610 C 174.853 219.054, 173 216.507, 173 214.677 C 173 213.270, 173.450 211.840, 174 211.500 C 174.550 211.160, 175 209.777, 175 208.427 C 175 207.077, 175.397 205.191, 175.882 204.236 C 178.327 199.422, 178.945 193.179, 177.469 188.209 C 175.450 181.408, 173.754 180.123, 169.844 182.433 C 168.162 183.427, 166.442 183.838, 165.970 183.360 C 165.502 182.887, 164.922 177.325, 164.680 171 C 164.006 153.399, 162.435 149.477, 156.338 150.175 C 153.524 150.497, 153.501 150.554, 153.678 157 C 153.776 160.575, 154.229 166.453, 154.685 170.062 C 155.141 173.671, 155.152 178.396, 154.709 180.562 C 154.266 182.728, 153.561 186.601, 153.142 189.169 C 152.320 194.202, 151.638 195.350, 145.771 201.573 C 140.928 206.710, 139.850 211.649, 142.958 214.462 C 145.026 216.333, 145.214 216.339, 148.375 214.637 C 153.612 211.817, 160 214.031, 160 218.668 C 160 223.344, 144.445 244, 140.924 244 C 139.232 244, 139.055 242.658, 138.653 226.750 C 138.256 211.065, 136.993 199.153, 133.961 182.500 C 133.360 179.200, 132.560 172.450, 132.184 167.500 C 131.371 156.805, 129.006 151.687, 124.641 151.178 C 121.195 150.776, 119.694 152.011, 115.319 158.850 C 110.470 166.430, 109.769 168.563, 111.620 170.099 C 112.846 171.117, 113.667 171.037, 115.970 169.677 C 119.959 167.320, 122 167.531, 122 170.300 C 122 171.565, 122.406 173.028, 122.903 173.550 C 123.400 174.073, 124.061 176.525, 124.373 179 C 126.105 192.744, 126.973 198.787, 127.568 201.250 C 128.159 203.694, 127.955 204, 125.731 204 C 123.925 204, 121.672 205.739, 117.635 210.250 C 114.558 213.688, 112.032 217.197, 112.020 218.050 C 111.996 219.932, 110.064 222, 108.331 222 C 107.361 222, 107.201 220.057, 107.651 213.750 C 108.302 204.607, 109.328 203, 114.517 203 C 117.817 203, 122.027 199.574, 121.968 196.936 C 121.893 193.524, 119.180 191.761, 113.802 191.630 L 108.500 191.500 108 180.500 C 107.725 174.450, 107.076 168.840, 106.557 168.034 C 106.039 167.228, 105.359 164.992, 105.046 163.066 C 104.651 160.641, 103.641 159.094, 101.759 158.038 C 99.219 156.613, 98.897 156.658, 96.815 158.741 C 94.793 160.763, 94.702 161.286, 95.828 164.400 C 97.708 169.601, 99.401 183.480, 99.316 193 C 99.103 216.807, 96.729 239.631, 93.882 245.236 C 92.613 247.735, 92.792 249.583, 94.436 250.947 C 96.707 252.831, 99.282 250.733, 101.330 245.328 C 102.336 242.673, 103.568 239.478, 104.068 238.230 C 104.567 236.981, 105.993 235.563, 107.238 235.077 C 112.435 233.050, 120 223.908, 120 219.655 C 120 218.260, 120.450 216.840, 121 216.500 C 121.550 216.160, 122 215.265, 122 214.510 C 122 212.473, 126.343 206.047, 127.500 206.374 C 128.050 206.530, 128.596 209.097, 128.714 212.079 C 128.831 215.060, 129.444 222.525, 130.074 228.667 C 130.705 234.809, 130.932 240.302, 130.578 240.873 C 129.509 242.604, 127.438 241.124, 125.094 236.954 C 122.809 232.887, 120.378 231.851, 119.359 234.508 C 119.040 235.337, 119.505 237.121, 120.390 238.473 C 121.276 239.824, 122 241.627, 122 242.478 C 122 243.330, 122.391 244.809, 122.869 245.764 C 127.544 255.107, 128.791 257.896, 129.392 260.354 C 130.426 264.582, 132.937 267.962, 134.575 267.333 C 135.359 267.032, 136 266.150, 136 265.372 C 136 264.594, 137.179 263.420, 138.620 262.763 C 141.113 261.628, 141.211 261.296, 140.651 255.934 L 140.062 250.298 144.281 249.056 C 147.549 248.093, 150.817 245.463, 158.779 237.387 C 170.539 225.457, 169.794 225.565, 177.510 234.670 C 189.866 249.253, 192.781 251.091, 196.664 246.750 C 200.133 242.871, 200.870 238.968, 201.242 222.500 C 201.612 206.086, 202.733 200.853, 206.008 200.249 C 208.156 199.853, 210 204.588, 210 210.499 C 210 213.305, 210.400 216.027, 210.889 216.550 C 211.378 217.072, 212.821 220.633, 214.096 224.462 C 216.858 232.759, 224.791 244.892, 230.440 249.460 C 232.673 251.266, 237.605 254.376, 241.401 256.372 C 247.619 259.641, 249.072 260, 256.086 260 C 265.387 260, 267.662 259.247, 271.887 254.767 C 275.778 250.641, 277.523 247.424, 278.318 242.907 C 279.187 237.972, 276.399 220.506, 274.305 217.768 C 273.772 217.071, 272.730 214.925, 271.990 213 C 269.416 206.303, 262.698 192.498, 261.852 192.167 C 261.383 191.983, 261 191.218, 261 190.466 C 261 188.444, 254.028 175.458, 250.987 171.816 C 248.310 168.609, 246 168.599, 246 171.795 C 246 172.717, 247.186 175.953, 248.636 178.986 C 251.175 184.299, 252.390 187.065, 255.011 193.500 C 255.683 195.150, 256.631 197.281, 257.117 198.236 C 257.603 199.191, 258 200.824, 258 201.864 C 258 202.904, 258.675 204.315, 259.500 205 C 260.325 205.685, 261 207, 261 207.922 C 261 208.845, 261.370 210.027, 261.823 210.550 C 262.276 211.072, 263.459 214.200, 264.453 217.500 C 265.446 220.800, 266.651 224.534, 267.129 225.797 C 267.608 227.060, 268 231.191, 268 234.976 C 268 241.383, 267.773 242.098, 264.712 245.344 C 261.072 249.204, 255.281 250.930, 251.670 249.232 C 250.477 248.671, 247.299 247.427, 244.609 246.469 C 239.688 244.716, 231.617 237.684, 227.428 231.500 C 218.206 217.886, 215.833 198.978, 217.450 152 C 218.135 132.077, 217.661 130.468, 210.781 129.352 C 207.531 128.824, 206.760 129.140, 204.055 132.101 M 205.365 146.250 C 201.244 152.100, 200.701 154.811, 201.457 165.726 C 201.868 171.652, 202.288 178.300, 202.391 180.500 C 202.631 185.610, 204.518 190, 206.475 190 C 207.777 190, 208.001 187.694, 208.007 174.250 C 208.011 165.588, 208.301 155.463, 208.652 151.750 C 209.186 146.094, 209.043 145, 207.767 145 C 206.930 145, 205.849 145.563, 205.365 146.250 M 44.655 150.829 C 42.500 153.210, 42.568 154.584, 45.011 158.015 C 46.492 160.095, 48.395 161.133, 52.237 161.957 C 57.804 163.151, 62 166.227, 62 169.115 C 62 170.087, 62.450 171.160, 63 171.500 C 63.550 171.840, 64 175.220, 64 179.012 C 64 182.804, 64.537 187.085, 65.194 188.527 C 66.120 190.559, 66.120 191.578, 65.194 193.061 C 64.504 194.167, 64 198.689, 64 203.786 C 64 215.767, 65.940 217.626, 72.465 211.896 C 74.505 210.106, 76 207.860, 76 206.588 C 76 205.375, 76.661 203.509, 77.468 202.441 C 78.276 201.374, 78.951 199.563, 78.968 198.417 C 78.986 197.271, 79.322 196.012, 79.715 195.618 C 80.108 195.225, 80.944 192.879, 81.572 190.406 C 83.430 183.090, 80.213 185.188, 75.599 194.300 C 69.683 205.983, 68.763 204.877, 68.942 186.308 C 69.023 177.925, 68.648 170.305, 68.105 169.308 C 67.564 168.313, 66.884 166.375, 66.594 165 C 65.575 160.163, 60.438 155.304, 54.948 153.988 C 52.073 153.298, 49.363 151.953, 48.696 150.885 C 47.233 148.543, 46.730 148.536, 44.655 150.829 M 164.036 201.456 C 162.589 203.200, 163.507 205.126, 165.433 204.387 C 167.275 203.680, 168.194 200, 166.529 200 C 165.823 200, 164.701 200.655, 164.036 201.456" stroke="none" fill="black" fill-rule="evenodd"/>
</svg>