<svg xmlns="http://www.w3.org/2000/svg" width="300" height="300" viewBox="0 0 300 300" version="1.1">
	<path d="M 194.805 26.711 C 193.932 28.525, 192.422 29.642, 190.242 30.086 C 188.450 30.452, 186.055 31.932, 184.919 33.375 C 183.784 34.819, 182.066 36, 181.102 36 C 180.138 36, 178.281 37.136, 176.976 38.525 C 173.741 41.969, 166.621 45.915, 160 47.932 C 151.877 50.408, 149.457 56.428, 155.480 59.173 C 157.457 60.073, 158.567 60.034, 160.507 58.996 C 161.877 58.263, 163.272 57.939, 163.608 58.275 C 163.944 58.611, 165.817 58.030, 167.770 56.983 C 169.723 55.937, 171.749 55.345, 172.272 55.668 C 173.568 56.469, 172.209 66.104, 170.533 67.995 C 168.664 70.104, 166 76.820, 166 79.422 C 166 80.620, 165.506 82.094, 164.902 82.698 C 163.290 84.310, 163.772 129.203, 165.430 131.887 C 165.746 132.398, 165.983 140.169, 165.958 149.158 C 165.932 158.146, 165.911 166.175, 165.910 167 C 165.909 167.825, 166.142 171.357, 166.428 174.850 C 166.797 179.352, 166.519 182.029, 165.474 184.050 C 163.445 187.975, 163.599 189.131, 166.645 192.807 C 169.228 195.926, 172.621 196.915, 174.550 195.112 C 175.072 194.624, 176.512 193.919, 177.750 193.545 C 180.876 192.601, 180.767 195.824, 177.500 201 C 176.125 203.178, 175 205.364, 175 205.858 C 175 206.351, 174.299 207.337, 173.442 208.048 C 172.585 208.759, 171.292 210.759, 170.567 212.493 C 169.843 214.227, 167.945 217.188, 166.349 219.073 C 164.754 220.958, 162.829 223.724, 162.071 225.220 C 161.314 226.716, 158.520 230.316, 155.862 233.220 C 153.205 236.124, 151.024 238.776, 151.015 239.114 C 151.007 239.452, 149.200 240.975, 147 242.500 C 144.800 244.025, 143 245.701, 143 246.226 C 143 247.490, 138.835 250.925, 137.250 250.967 C 135.532 251.012, 132 254.683, 132 256.423 C 132 258.343, 136.849 264, 138.494 264 C 141.376 264, 150.336 255.059, 157.237 245.298 C 158.482 243.538, 160.512 241.635, 161.750 241.070 C 162.988 240.505, 164 239.606, 164 239.072 C 164 237.499, 169.691 229.598, 171.697 228.385 C 173.559 227.259, 175.599 224.437, 182.460 213.500 C 184.530 210.200, 186.996 206.375, 187.940 205 C 188.883 203.625, 190.189 200.954, 190.840 199.065 C 191.492 197.176, 192.754 194.824, 193.645 193.840 C 194.872 192.484, 195.121 190.894, 194.671 187.275 C 194.096 182.641, 194.203 182.388, 198.289 178.728 C 207.853 170.162, 209.374 169, 211.026 169 C 213.907 169, 215.192 166.634, 213.515 164.418 C 212.516 163.098, 212.054 159.833, 212.032 153.950 C 212.013 148.849, 211.533 144.933, 210.842 144.242 C 209.966 143.366, 209.993 142.713, 210.957 141.551 C 212.196 140.059, 211.683 131.924, 210.198 129.515 C 209.865 128.973, 209.506 124.923, 209.401 120.515 C 208.963 102.016, 206.872 92.393, 201.548 84.375 C 198.963 80.481, 197.288 79.002, 194.856 78.468 C 191.980 77.837, 191.265 78.155, 188.556 81.270 C 183.346 87.261, 181.539 90.329, 180.436 95.057 C 179.080 100.872, 179.502 102, 183.032 102 C 185.132 102, 186.612 101.065, 188.568 98.500 C 191.315 94.898, 194.003 94.056, 195.751 96.250 C 196.299 96.938, 197.060 101.213, 197.442 105.750 L 198.137 114 195.463 114 C 193.801 114, 192.043 114.947, 190.821 116.500 C 189.740 117.875, 187.863 119, 186.650 119 C 183.558 119, 180.343 121.496, 179.595 124.477 C 179.223 125.959, 178.248 127, 177.231 126.999 C 175.454 126.999, 175.318 125.168, 174.860 95 C 174.814 91.975, 175.249 87.250, 175.826 84.500 C 176.404 81.750, 177.166 78.150, 177.519 76.500 C 178.081 73.878, 179.406 70.484, 182.023 64.962 C 182.425 64.115, 183.074 61.522, 183.466 59.199 C 183.908 56.586, 184.909 54.584, 186.090 53.952 C 187.177 53.370, 188 51.867, 188 50.465 C 188 47.669, 190.476 44.839, 194.947 42.528 C 196.626 41.659, 198 40.323, 198 39.558 C 198 38.793, 199.221 37.277, 200.714 36.190 C 202.708 34.737, 203.460 33.285, 203.549 30.713 C 203.655 27.673, 203.228 27.002, 200.301 25.607 C 196.044 23.576, 196.342 23.516, 194.805 26.711 M 105.203 45.256 C 104.630 45.946, 103.856 47.727, 103.483 49.213 C 102.938 51.383, 103.357 52.426, 105.608 54.513 C 107.986 56.716, 108.232 57.399, 107.226 59.009 C 106.477 60.209, 106.401 61.130, 107.020 61.513 C 107.559 61.846, 108 63.471, 108 65.125 C 108 66.778, 108.531 69.114, 109.180 70.316 C 110.808 73.329, 110.649 96.513, 108.987 98.516 C 106.586 101.409, 105.246 100.127, 104.527 94.250 C 104.118 90.904, 103.058 87.664, 101.992 86.500 C 100.984 85.400, 100.012 83.150, 99.830 81.500 C 99.549 78.943, 99.029 78.454, 96.312 78.191 C 92.107 77.784, 89.693 81.139, 90.633 86.086 C 90.990 87.964, 91.633 89.954, 92.062 90.508 C 93.882 92.856, 95.972 100.867, 95.985 105.542 C 95.998 109.940, 95.553 111.057, 92.500 114.294 C 90.575 116.335, 89 118.877, 89 119.943 C 89 121.010, 88.550 122.160, 88 122.500 C 86.369 123.508, 86.860 127.563, 88.829 129.345 C 91.691 131.936, 95.322 131.408, 97.812 128.040 C 99.015 126.413, 100 124.897, 100 124.672 C 100 123.873, 109.277 115, 110.113 115 C 111.131 115, 110.602 146.543, 109.530 149.722 C 108.925 151.519, 109.284 152.172, 111.410 153.141 C 113.769 154.216, 114.350 154.039, 117.091 151.419 C 119.557 149.061, 120.033 147.944, 119.568 145.607 C 119.252 144.016, 119.494 142.109, 120.107 141.371 C 120.788 140.550, 120.957 138.563, 120.540 136.264 C 120.165 134.194, 119.931 130.925, 120.020 129 C 120.441 119.899, 120.215 116.166, 118.999 112.103 C 117.823 108.175, 117.864 107.573, 119.386 106.460 C 120.323 105.774, 123.207 104.898, 125.795 104.513 C 131.520 103.661, 133.001 102.553, 132.995 99.128 C 132.989 95.684, 127.422 89.605, 125.139 90.549 C 119.823 92.748, 119.770 92.700, 120.534 86.390 C 121.389 79.324, 122.513 77.652, 125.944 78.340 C 128.472 78.848, 128.496 78.792, 128.149 73.281 C 127.818 68.028, 127.980 67.566, 130.974 65.223 C 133.585 63.180, 134.034 62.271, 133.495 60.124 C 132.486 56.103, 131.084 55, 126.985 55 C 124.481 55, 123.012 55.527, 122.611 56.570 C 121.787 58.719, 117.807 58.006, 116.525 55.480 C 111.155 44.896, 107.924 41.977, 105.203 45.256 M 45.655 85.829 C 42.829 88.951, 43.562 93.128, 47.528 96.500 L 51.056 99.500 48.528 104.204 C 45.604 109.646, 45.362 111.818, 47.587 112.672 C 50.993 113.979, 55.024 110.694, 57.505 104.590 C 60.476 97.279, 59.992 94.408, 54.790 88.498 C 50.508 83.634, 48.241 82.971, 45.655 85.829 M 176.264 130.288 C 175.756 130.957, 175.604 135.753, 175.922 140.990 C 176.374 148.406, 176.835 150.544, 178.031 150.771 C 180.079 151.161, 188.765 145.331, 190.146 142.640 C 191.724 139.565, 196.166 135, 197.580 135 C 199.226 135, 200.297 131.897, 199.074 130.674 C 198.418 130.018, 195.502 130.290, 190.468 131.475 C 182.909 133.255, 182.833 133.253, 180.018 131.172 C 177.872 129.585, 176.959 129.370, 176.264 130.288 M 138.360 133.505 C 138.042 134.332, 138.083 136.695, 138.451 138.755 C 139.867 146.690, 140.159 153.343, 139.181 155.379 C 138.621 156.545, 137.922 158.914, 137.628 160.642 C 137.174 163.311, 126.728 186.427, 123.910 191 C 123.402 191.825, 122.441 193.625, 121.777 195 C 121.112 196.375, 119.468 198.986, 118.125 200.803 C 116.781 202.620, 114.442 206.600, 112.926 209.649 C 111.410 212.698, 109.231 215.850, 108.085 216.653 C 106.938 217.456, 106 218.782, 106 219.599 C 106 220.417, 104.088 223.577, 101.750 226.621 C 99.412 229.666, 96.278 233.742, 94.785 235.679 C 93.291 237.617, 90.029 240.791, 87.535 242.735 C 82.821 246.407, 82.175 247.775, 84.200 249.800 C 87.415 253.015, 96.628 249.200, 101.092 242.805 C 102.361 240.987, 103.985 239.140, 104.701 238.699 C 106.250 237.747, 112.771 227.732, 114.075 224.304 C 114.989 221.897, 119.403 215.789, 123.740 210.927 C 126.538 207.791, 129.600 202.022, 131.663 196 C 132.511 193.525, 135.184 188.477, 137.603 184.782 C 140.021 181.088, 142 177.823, 142 177.527 C 142 177.232, 143.180 174.630, 144.621 171.745 C 148.116 164.751, 150.234 153.638, 150.002 143.500 C 149.907 139.335, 149.364 137.957, 146.748 135.250 C 143.421 131.807, 139.337 130.957, 138.360 133.505 M 22.250 149.067 C 20.443 149.765, 20 150.713, 20 153.887 C 20 157.233, 20.766 158.677, 25 163.310 C 27.750 166.319, 30.013 169.167, 30.028 169.640 C 30.043 170.113, 31.393 172.268, 33.028 174.428 C 34.663 176.589, 36 179.150, 36 180.119 C 36 181.089, 36.368 182.109, 36.818 182.388 C 38.002 183.119, 38.084 196.975, 36.917 199.156 C 36.237 200.425, 36.310 201.702, 37.150 203.250 C 37.821 204.488, 38.470 208.412, 38.592 211.971 C 38.799 218.008, 39.056 218.664, 42.438 221.763 L 46.063 225.085 49.912 222.318 C 53.505 219.735, 56 215.425, 56 211.801 C 56 210.945, 56.675 209.685, 57.500 209 C 58.325 208.315, 59.029 206.348, 59.064 204.628 C 59.145 200.690, 61.228 190.935, 62.367 189.163 C 62.876 188.371, 62.783 187.383, 62.140 186.740 C 60.336 184.936, 56 187.498, 56 190.366 C 56 194.427, 50.008 206.152, 48.132 205.762 C 47.203 205.569, 46.582 204.578, 46.690 203.462 C 47.345 196.685, 47.069 188.945, 46.049 185.500 C 45.398 183.300, 44.736 180.150, 44.577 178.500 C 44.037 172.873, 40.815 167.235, 32.576 157.500 C 24.210 147.615, 24.789 148.087, 22.250 149.067 M 193.443 153.887 C 189.692 158.604, 183.851 162.859, 179.500 164.045 C 175.604 165.106, 175.403 180.040, 179.285 179.982 C 180.759 179.960, 186.239 175.757, 190.999 171 C 192.924 169.075, 195.651 166.759, 197.057 165.853 C 199.160 164.499, 199.651 163.343, 199.819 159.353 C 199.931 156.684, 200.130 153.389, 200.261 152.031 C 200.674 147.757, 197.666 148.576, 193.443 153.887 M 85.571 154.571 C 82.302 157.841, 83.999 161.929, 89.894 164.984 C 91.793 165.968, 93.138 165.971, 96.394 164.996 C 105.777 162.189, 106.128 161.950, 105.803 158.607 L 105.500 155.500 99.423 155.811 C 94.853 156.044, 93.024 155.734, 92.050 154.561 C 90.391 152.561, 87.577 152.566, 85.571 154.571 M 198.861 207.930 C 196.591 209.785, 196.563 209.967, 198.137 212.680 C 199.037 214.231, 201.206 216.246, 202.956 217.157 C 204.706 218.069, 206.895 219.478, 207.819 220.289 C 208.744 221.100, 210.625 222.106, 212 222.526 C 213.375 222.945, 215.850 224.285, 217.500 225.503 C 219.150 226.721, 223.746 229.191, 227.714 230.991 C 231.682 232.790, 235.689 235.104, 236.619 236.131 C 237.549 237.159, 239.151 238, 240.179 238 C 241.207 238, 244.320 239.563, 247.097 241.473 C 249.874 243.384, 253.703 245.376, 255.605 245.901 C 259.687 247.029, 262.073 249.631, 265.486 256.682 C 268.918 263.773, 271.406 264.451, 275.714 259.469 C 279.095 255.556, 279.745 253.578, 278 252.500 C 277.450 252.160, 277 250.828, 277 249.540 C 277 247.923, 275.916 246.558, 273.500 245.133 C 271.575 243.997, 270 242.377, 270 241.534 C 270 240.679, 269.135 240, 268.047 240 C 265.353 240, 261.356 238.137, 255.760 234.273 C 253.153 232.473, 250.323 231, 249.470 231 C 248.617 231, 246.700 230.157, 245.210 229.126 C 239.719 225.328, 235.200 222.853, 222.137 216.488 C 214.788 212.906, 207.518 209.081, 205.983 207.988 C 202.522 205.524, 201.812 205.518, 198.861 207.930" stroke="none" fill="black" fill-rule="evenodd"/>
</svg>