<svg xmlns="http://www.w3.org/2000/svg" width="300" height="300" viewBox="0 0 300 300" version="1.1">
	<path d="M 123.200 24.200 C 121.411 25.989, 121.749 30.720, 123.885 33.790 C 126.081 36.948, 128.583 49.912, 129.992 65.443 C 130.539 71.462, 131.451 76.851, 132.020 77.420 C 133.794 79.194, 136.371 76.638, 137.505 71.980 C 138.085 69.597, 138.996 67.538, 139.530 67.405 C 140.063 67.272, 142.186 66.882, 144.248 66.537 C 149.187 65.711, 151.154 62.047, 150.854 54.229 C 150.734 51.078, 151.426 45.009, 152.392 40.742 C 153.814 34.467, 153.930 32.316, 152.998 29.495 C 150.876 23.065, 145.536 21.357, 138.817 24.958 C 135.189 26.902, 135.146 26.902, 132.674 24.958 C 129.886 22.765, 125.024 22.376, 123.200 24.200 M 136.463 36.250 C 136.202 36.938, 136.124 39.489, 136.290 41.920 C 136.625 46.855, 139.287 49.726, 140.999 47 C 142.289 44.947, 143.357 37.387, 142.544 36.071 C 141.627 34.588, 137.042 34.723, 136.463 36.250 M 49.029 65.465 C 47.435 67.386, 48.478 73.677, 51.688 81.500 C 53.231 85.261, 54.332 90.298, 54.639 95 C 55.271 104.686, 53.686 122.839, 51.538 130.500 C 49.942 136.196, 48.851 141.137, 47.454 149 C 47.112 150.925, 46.169 153.972, 45.359 155.772 C 44.548 157.572, 43.411 161.622, 42.831 164.772 C 42.251 167.922, 41.377 171.281, 40.888 172.236 C 40.400 173.191, 40 174.550, 40 175.255 C 40 176.652, 34.232 190.876, 33.007 192.500 C 32.592 193.050, 31.240 196.425, 30.003 200 C 26.449 210.267, 20.475 222.129, 16.578 226.659 C 12.470 231.434, 12.233 232.519, 14.977 233.988 C 19.093 236.191, 26.937 230.496, 29.233 223.637 C 29.811 221.912, 30.906 219.777, 31.667 218.893 C 32.428 218.010, 33.973 214.635, 35.100 211.393 C 36.228 208.152, 38.289 203.025, 39.681 200 C 45.965 186.348, 46.857 184.150, 48.413 178.500 C 49.322 175.200, 50.501 171.118, 51.033 169.429 C 51.565 167.740, 52 165.467, 52 164.379 C 52 161.752, 53.875 160, 56.687 160 C 58.847 160, 61.805 163.434, 65.749 170.524 C 66.436 171.759, 68.119 173.503, 69.488 174.400 C 72.812 176.578, 76 174.761, 76 170.689 C 76 167.657, 69.658 158.018, 62.881 150.750 C 60.746 148.461, 59.014 146.119, 59.031 145.544 C 59.049 144.970, 59.994 139.550, 61.133 133.500 C 62.271 127.450, 63.430 120.475, 63.709 118 C 63.987 115.525, 64.609 113.012, 65.092 112.417 C 66.460 110.725, 65.075 85.969, 63.423 82.596 C 62.640 80.999, 62 78.615, 62 77.297 C 62 74.449, 59.573 69.382, 56.709 66.250 C 54.357 63.678, 50.813 63.316, 49.029 65.465 M 164.250 77.066 C 161.912 78.161, 160 79.665, 160 80.407 C 160 81.148, 159.329 82.312, 158.509 82.993 C 157.277 84.015, 156.511 83.688, 154.108 81.115 C 150.914 77.697, 149.936 77.438, 146.684 79.150 C 141.672 81.788, 141.553 87.205, 146.402 91.905 C 148.288 93.733, 150.050 96.607, 150.355 98.352 C 150.658 100.083, 151.186 102.852, 151.530 104.505 C 152.061 107.057, 151.694 107.850, 149.094 109.772 C 143.665 113.786, 143.182 115.838, 143.508 133.500 L 143.803 149.500 134.667 155 C 124.025 161.406, 122.686 162.101, 109.804 167.888 C 102.573 171.136, 99.425 172.072, 97.423 171.570 C 91.668 170.126, 87.324 179.268, 91.829 183.345 C 94.379 185.653, 98.009 185.413, 104.596 182.500 C 107.705 181.125, 110.806 180, 111.487 180 C 112.168 180, 114.424 178.650, 116.500 177 C 118.576 175.350, 121.324 174, 122.606 174 C 124.979 174, 137.578 166.418, 139.945 163.566 C 140.660 162.705, 142.090 162, 143.122 162 C 145.803 162, 145.494 165.175, 142.500 168.405 C 141.125 169.889, 140 171.735, 140 172.508 C 140 174.615, 134.726 183.150, 126.779 193.903 C 122.878 199.181, 119.407 203.725, 119.067 204 C 118.726 204.275, 115.984 208.100, 112.974 212.500 C 105.690 223.145, 92.251 236.262, 89.500 235.410 C 88.400 235.069, 86.375 234.725, 85 234.645 C 82.906 234.524, 82.452 234.995, 82.201 237.553 C 81.451 245.224, 90.654 249.093, 95.158 243 C 96.440 241.267, 98.294 240, 99.550 240 C 102.033 240, 116.210 225.795, 120.484 219.026 C 121.937 216.723, 126.248 211.020, 130.063 206.353 C 133.879 201.686, 137 197.481, 137 197.010 C 137 195.912, 141.953 190, 142.873 190 C 144.782 190, 147.019 196.319, 147.178 202.159 C 148.128 237.111, 146.431 280.457, 143.931 285.130 C 142.613 287.592, 144.424 295.869, 146.801 298.246 C 149.153 300.598, 153.378 300.064, 154.446 297.280 C 155.506 294.518, 156.141 274.250, 156.364 236 C 156.479 216.475, 156.920 199.938, 157.345 199.250 C 157.770 198.563, 158.717 198, 159.450 198 C 161.364 198, 167.999 201.123, 171.667 203.750 C 173.395 204.988, 175.232 206, 175.749 206 C 176.267 206, 177.505 206.900, 178.500 208 C 179.495 209.100, 180.881 210, 181.578 210 C 182.276 210, 184.119 211.058, 185.673 212.351 C 187.228 213.644, 188.950 214.889, 189.500 215.117 C 192.063 216.180, 198 220.282, 198 220.990 C 198 221.426, 199.170 222.077, 200.600 222.436 C 202.030 222.795, 204.393 223.936, 205.850 224.972 C 207.308 226.008, 211.200 227.390, 214.500 228.042 C 217.800 228.694, 221.778 229.885, 223.341 230.687 C 225.893 231.997, 226.376 231.970, 228.091 230.418 C 230.280 228.436, 230.571 225.091, 228.750 222.830 C 228.063 221.976, 223 219.808, 217.500 218.012 C 209.949 215.547, 206.276 213.713, 202.500 210.522 C 199.750 208.198, 193.900 204.377, 189.500 202.032 C 185.100 199.686, 180.150 196.976, 178.500 196.010 C 176.850 195.043, 171.450 192.774, 166.500 190.968 C 161.550 189.163, 156.963 187.193, 156.307 186.592 C 155.029 185.422, 154.586 165.536, 155.640 156.669 C 156.178 152.141, 156.549 151.624, 161.557 148.421 C 164.495 146.541, 168.159 144.457, 169.700 143.790 C 171.240 143.124, 173.772 141.548, 175.327 140.289 C 176.881 139.030, 179.107 138, 180.272 138 C 183.041 138, 188.009 133.198, 187.967 130.563 C 187.922 127.777, 184.628 124, 182.245 124 C 181.181 124, 179.453 124.962, 178.405 126.137 C 176.243 128.562, 157.530 141, 156.043 141 C 153.868 141, 152.835 136.732, 153.537 130.653 C 154.435 122.872, 155.522 120, 157.568 120 C 158.457 120, 160.329 119.100, 161.727 118 C 163.126 116.900, 165.129 116, 166.179 116 C 167.228 116, 170.530 113.498, 173.515 110.441 C 178.175 105.668, 178.780 104.620, 177.792 103.039 C 176.884 101.585, 176.996 100.655, 178.321 98.633 C 179.522 96.801, 180 93.902, 180 88.458 C 180 81.378, 179.796 80.642, 177.077 77.923 C 173.601 74.447, 170.305 74.227, 164.250 77.066 M 75.223 77.557 C 73.883 78.495, 72.987 80.184, 72.967 81.807 C 72.949 83.288, 72.064 86.975, 71 90 C 68.543 96.984, 68.433 101.568, 70.701 102.439 C 72.965 103.308, 76.763 100.365, 79.010 96 C 80.446 93.212, 84 80.878, 84 78.684 C 84 78.322, 78.439 76, 77.573 76 C 77.503 76, 76.445 76.701, 75.223 77.557 M 117.882 88.882 C 115.350 91.415, 114 93.675, 114 95.382 C 114 98.378, 111.097 99.027, 109 96.500 C 106.101 93.007, 99.999 96.113, 100.001 101.079 C 100.002 102.493, 101.677 105.372, 104.027 108 C 106.241 110.475, 108.339 113.612, 108.690 114.970 C 109.784 119.208, 112.974 123.759, 115.285 124.379 C 120.781 125.852, 124.554 125.056, 127.742 121.750 C 129.467 119.963, 131.354 117.375, 131.936 116 C 132.519 114.625, 133.376 112.825, 133.842 112 C 136.823 106.721, 137.090 105.532, 136.495 100.165 C 135.364 89.954, 131.840 85, 125.708 85 C 122.461 85, 121.079 85.685, 117.882 88.882 M 162.750 90.649 C 160.227 91.989, 160 92.595, 160 97.996 C 160 101.233, 160.483 104.181, 161.074 104.546 C 162.452 105.398, 167 101.161, 167 99.026 C 167 98.132, 167.485 96.915, 168.078 96.322 C 169.616 94.784, 168.806 89.551, 167 89.353 C 166.175 89.263, 164.262 89.846, 162.750 90.649 M 26.336 98.567 C 26.005 99.429, 26.244 100.644, 26.867 101.267 C 27.490 101.890, 28 103.116, 28 103.992 C 28 106.444, 41.054 118, 43.825 118 C 44.323 118, 45.939 117.049, 47.417 115.886 C 49.972 113.877, 50.020 113.680, 48.397 111.886 C 47.458 110.849, 46.109 110, 45.398 110 C 44.688 110, 42.456 107.513, 40.439 104.474 C 38.421 101.434, 35.952 98.509, 34.951 97.974 C 32.089 96.442, 27.017 96.791, 26.336 98.567 M 119.481 104.030 C 116.643 108.526, 116.792 111, 119.901 111 C 122.414 111, 126.236 105.678, 125.819 102.758 C 125.271 98.914, 122.340 99.501, 119.481 104.030" stroke="none" fill="black" fill-rule="evenodd"/>
</svg>