<svg xmlns="http://www.w3.org/2000/svg" width="300" height="300" viewBox="0 0 300 300" version="1.1">
	<path d="M 123.655 30.829 C 122.318 32.306, 121.989 34.948, 121.940 44.579 C 121.908 51.135, 121.429 58.750, 120.877 61.500 C 120.325 64.250, 119.510 69.650, 119.065 73.500 C 118.620 77.350, 117.939 81.252, 117.551 82.172 C 115.388 87.300, 123.649 90.456, 126.249 85.495 C 128.372 81.442, 137.195 72.891, 138.916 73.219 C 140.994 73.614, 141.680 84.906, 139.827 88.228 C 138.147 91.240, 136.034 97.151, 136.015 98.892 C 135.989 101.312, 131.947 114.001, 131.208 113.985 C 128.518 113.926, 127.976 112.211, 129.056 107.176 C 130.052 102.531, 129.950 101.656, 128.062 98.601 C 126.906 96.730, 125.257 94.929, 124.398 94.599 C 121.585 93.520, 116.566 94.063, 113 95.834 C 110.012 97.318, 109.522 98.044, 109.649 100.802 C 109.915 106.554, 110.604 107.319, 114.900 106.632 C 119.384 105.915, 120.512 106.845, 121.487 112.063 C 122.119 115.449, 121.875 115.864, 116.589 120.380 C 108.494 127.295, 102.186 131.716, 96.401 134.529 C 89.691 137.792, 87.780 140.006, 88.180 144.056 C 88.739 149.714, 90.892 149.893, 99.145 144.965 C 103.190 142.550, 108.904 138.645, 111.842 136.287 C 114.780 133.929, 117.533 132, 117.961 132 C 118.388 132, 120.410 129.334, 122.453 126.075 C 129.264 115.212, 131.619 118.174, 125.401 129.782 C 123.422 133.477, 120.230 137.885, 118.309 139.577 C 115.768 141.815, 114.909 143.315, 115.158 145.077 C 115.470 147.285, 115.926 147.485, 120.303 147.334 C 123.870 147.210, 125.712 146.561, 127.464 144.808 C 130.488 141.785, 137.769 127.746, 138.594 123.350 C 138.942 121.495, 139.626 119.731, 140.113 119.430 C 140.601 119.129, 141 117.810, 141 116.500 C 141 115.190, 141.450 113.840, 142 113.500 C 142.550 113.160, 143 111.964, 143 110.842 C 143 109.720, 143.617 107.384, 144.370 105.651 C 145.660 102.686, 146.437 100.161, 149.034 90.500 C 149.625 88.300, 150.790 84.025, 151.623 81 C 153.308 74.880, 152.762 65.943, 150.487 62.388 C 148.312 58.992, 140.335 58.377, 134.599 61.164 C 132.094 62.381, 129.803 63.136, 129.509 62.842 C 129.215 62.548, 129.583 60.775, 130.329 58.904 C 132.245 54.089, 132.645 31.024, 130.831 29.875 C 128.613 28.468, 125.405 28.895, 123.655 30.829 M 177.444 50.625 C 177.119 51.656, 176.437 53.281, 175.927 54.236 C 175.417 55.191, 175 58.611, 175 61.836 L 175 67.700 169.179 72.763 C 165.977 75.548, 161.252 79.247, 158.679 80.984 C 154.443 83.843, 154 84.512, 154 88.052 C 154 91.377, 154.370 92.055, 156.473 92.582 C 158.451 93.079, 159.997 92.283, 164.205 88.602 C 171.356 82.346, 173.652 82.479, 172.025 89.055 C 171.557 90.950, 170.513 94.975, 169.705 98 C 168.898 101.025, 167.930 105.230, 167.555 107.345 C 167.180 109.460, 165.327 114.708, 163.437 119.007 C 159.871 127.118, 159.247 130.416, 161.065 131.540 C 162.885 132.665, 169.072 130.985, 169.700 129.195 C 170.869 125.867, 175.132 121, 176.878 121 C 178.864 121, 191.219 125.824, 192 126.904 C 192.275 127.285, 194.525 128.793, 197 130.256 C 199.475 131.719, 203.267 134.734, 205.426 136.958 C 211.091 142.791, 216.041 142.130, 215.965 135.550 C 215.913 131.071, 214.146 128.618, 208 124.490 C 197.857 117.678, 189.768 114.050, 183.195 113.363 L 177 112.715 177 108.792 C 177 106.634, 177.537 103.886, 178.193 102.684 C 178.849 101.483, 179.721 98.475, 180.131 96 C 181.423 88.205, 182.154 85.643, 184.610 80.312 C 185.924 77.458, 187 74.129, 187 72.913 C 187 71.697, 188.575 69.172, 190.500 67.303 C 193.336 64.548, 194 63.154, 194 59.952 C 194 57.778, 194.018 55.663, 194.040 55.250 C 194.061 54.837, 193.049 54.353, 191.790 54.174 C 190.530 53.994, 188.825 52.999, 188 51.963 C 187.175 50.927, 184.595 49.780, 182.267 49.414 C 178.666 48.849, 177.945 49.030, 177.444 50.625 M 211.250 52.662 C 209.028 53.559, 209.841 58.505, 212.632 61.076 C 216.546 64.680, 219.979 72.707, 219.990 78.281 C 220.012 88.836, 228.911 82.785, 229.591 71.754 C 229.718 69.694, 229.412 67.755, 228.911 67.445 C 228.410 67.135, 228 66.235, 228 65.443 C 228 63.110, 221.283 54.450, 218.485 53.175 C 215.818 51.960, 213.413 51.789, 211.250 52.662 M 56.693 69.700 C 52.494 70.789, 52.415 77.933, 56.540 83.500 C 61.638 90.379, 62.366 92.966, 62.167 103.500 C 62.063 109, 61.309 116.650, 60.490 120.500 C 58.353 130.555, 55.987 142.391, 54.445 150.735 C 53.710 154.714, 52.449 159.439, 51.642 161.235 C 50.836 163.031, 49.434 166.975, 48.528 170 C 47.622 173.025, 45.961 177.750, 44.837 180.500 C 43.713 183.250, 42.241 186.850, 41.565 188.500 C 35.504 203.293, 20.936 226.313, 16.590 227.966 C 11.164 230.029, 10.701 235, 15.935 235 C 21.647 235, 25.746 231.993, 32.509 222.841 C 36.077 218.013, 40.009 211.911, 41.248 209.281 C 42.487 206.652, 43.725 204.275, 44 203.999 C 45.268 202.729, 48 196.660, 48 195.113 C 48 194.165, 49.125 191.864, 50.500 190 C 51.875 188.136, 53 185.664, 53 184.506 C 53 183.348, 53.372 181.973, 53.826 181.450 C 54.280 180.928, 55.253 178.588, 55.986 176.250 C 57.239 172.260, 60 170.307, 60 173.411 C 60 175.322, 65.700 180, 68.028 180 C 70.289 180, 84 187.024, 84 188.182 C 84 188.632, 85.109 189, 86.465 189 C 91.224 189, 92.731 180.975, 88.686 177.174 C 87.413 175.978, 86.018 175, 85.587 175 C 84.221 175, 75.123 170.896, 71 168.419 C 69.343 167.424, 67.067 167.094, 64.250 167.440 C 59.271 168.051, 59.213 167.858, 61.842 159.415 C 63.820 153.068, 65.487 145.931, 66.494 139.500 C 67.159 135.254, 67.411 134.303, 71.384 121 C 72.780 116.325, 74.460 109.646, 75.117 106.159 C 75.886 102.081, 76.881 99.604, 77.906 99.220 C 80.257 98.340, 87.964 90.704, 87.983 89.236 C 87.993 88.541, 88.537 87.112, 89.194 86.061 C 90.844 83.420, 88.816 79, 85.956 79 C 82.348 79, 79.879 81.020, 77.833 85.645 C 76.744 88.106, 75.147 90.390, 74.282 90.722 C 72.471 91.417, 70.174 88.734, 69.384 85 C 68.362 80.170, 65.618 74.864, 62.634 71.947 C 60.977 70.326, 59.368 69.052, 59.060 69.116 C 58.752 69.180, 57.687 69.443, 56.693 69.700 M 29.200 100.200 C 28.540 100.860, 28 103.088, 28 105.152 C 28 108.441, 28.525 109.265, 32.255 111.831 C 39.507 116.821, 43.951 119.002, 46.780 118.958 C 50.290 118.905, 57.319 112.843, 56.798 110.319 C 56.414 108.456, 55.755 108.394, 48.898 109.584 C 45.483 110.176, 45.043 109.916, 40.457 104.604 C 35.494 98.856, 31.936 97.464, 29.200 100.200 M 137.667 182.667 C 135.708 184.626, 137.656 187.963, 144.929 195.110 C 150.443 200.529, 152.955 203.754, 153.179 205.701 C 153.613 209.485, 158.058 210.183, 160.403 206.835 C 162.532 203.796, 162.416 201.686, 160 199.500 C 158.900 198.505, 158 197.065, 158 196.302 C 158 194.443, 149.260 185.186, 145.831 183.413 C 142.952 181.924, 138.790 181.543, 137.667 182.667 M 170.500 189.719 C 167.893 190.354, 165 192.951, 165 194.655 C 165 196.403, 166.994 196.319, 169.441 194.468 C 173.128 191.680, 175.269 192.714, 182.007 200.542 C 185.578 204.690, 190.234 210.078, 192.353 212.516 C 196.409 217.181, 200.645 218.808, 205.535 217.581 C 206.937 217.229, 211.493 213.780, 215.660 209.916 C 222.140 203.907, 223.689 202.935, 226.368 203.195 C 229.485 203.499, 229.502 203.530, 229.833 210 C 230.193 217.022, 228.439 228.968, 226.457 233 C 224.774 236.421, 222 246.217, 222 248.737 C 222 249.871, 220.425 253.139, 218.500 256 C 216.575 258.861, 215 261.761, 215 262.446 C 215 264.092, 218.284 267.011, 220.079 266.959 C 223.176 266.871, 227.687 261.530, 228.912 256.500 C 229.582 253.750, 230.708 250.600, 231.414 249.500 C 232.119 248.400, 233.284 245.025, 234.003 242 C 234.721 238.975, 235.650 235.825, 236.066 235 C 237.384 232.387, 239.430 215.776, 239.330 208.500 C 239.224 200.816, 237.135 194.678, 234.067 193.036 C 230.918 191.351, 224.755 191.847, 220.497 194.129 C 218.312 195.301, 213.678 199.013, 210.199 202.379 C 206.719 205.746, 203.425 208.659, 202.878 208.853 C 202.330 209.047, 198.444 205.505, 194.242 200.982 C 184.563 190.564, 178.615 187.742, 170.500 189.719 M 99.200 202.200 C 98.540 202.860, 98 204.616, 98 206.101 C 98 208.128, 98.873 209.318, 101.500 210.867 C 103.525 212.062, 105 213.724, 105 214.811 C 105 215.845, 105.900 217.505, 107 218.500 C 108.100 219.495, 109 220.820, 109 221.443 C 109 223.211, 114.271 228.784, 116.552 229.429 C 120.303 230.489, 122.397 227.804, 122.451 221.866 C 122.498 216.754, 122.346 216.432, 119.250 215.070 C 117.463 214.283, 116 212.951, 116 212.111 C 116 211.271, 113.739 208.427, 110.976 205.791 C 105.816 200.870, 101.766 199.634, 99.200 202.200" stroke="none" fill="black" fill-rule="evenodd"/>
</svg>