<svg xmlns="http://www.w3.org/2000/svg" width="300" height="300" viewBox="0 0 300 300" version="1.1">
	<path d="M 111.283 5.470 C 111.209 8.642, 110.492 11.887, 109.577 13.193 C 108.710 14.432, 108 16.470, 108 17.723 C 108 18.975, 107.446 20, 106.769 20 C 105.436 20, 96.634 23.241, 91 25.807 C 85.291 28.407, 84 29.951, 84 34.180 C 84 37.421, 84.420 38.209, 86.585 39.032 C 88.640 39.814, 89.748 39.603, 91.989 38.008 C 93.540 36.903, 96.160 36, 97.811 36 C 102.131 36, 112.990 30.789, 116.500 27.032 C 118.150 25.266, 120.759 23.164, 122.297 22.361 C 127 19.905, 129 17.678, 129 14.900 C 129 11.854, 127.640 10.450, 123.744 9.472 C 121.273 8.852, 121 8.346, 121 4.392 L 121 0 116.206 0 L 111.411 0 111.283 5.470 M 150.658 12.750 C 150.405 13.162, 150.051 14.913, 149.871 16.640 C 149.556 19.673, 150.121 21.332, 154.132 29.136 C 155.159 31.136, 156 33.429, 156 34.233 C 156 35.036, 156.713 37.122, 157.584 38.869 C 158.712 41.129, 159.039 43.840, 158.718 48.272 C 158.216 55.195, 156.171 67.414, 154.997 70.500 C 152.151 77.983, 149.102 86.886, 148.661 89 C 146.745 98.181, 144.469 103.665, 138.182 114.250 C 134.530 120.398, 133.266 121.056, 130.655 118.171 C 128.618 115.921, 128.591 115.109, 130.485 113.016 C 131.714 111.658, 135.738 102.076, 137.639 95.981 C 137.899 95.146, 137.060 92.896, 135.774 90.981 C 130.891 83.712, 122.404 86.336, 110.149 98.904 L 101.798 107.469 98.723 103.636 C 94.923 98.900, 88.568 94.777, 85.703 95.190 C 83.012 95.578, 81.084 103.192, 83.071 105.586 C 84.890 107.777, 83.744 108.180, 78.882 107.059 C 76.472 106.504, 72.813 106.038, 70.750 106.024 C 66.531 105.997, 66.399 105.682, 68.500 100.654 C 69.325 98.680, 70 95.726, 70 94.091 C 70 92.456, 70.450 90.840, 71 90.500 C 71.550 90.160, 72 88.965, 72 87.845 C 72 86.724, 72.707 83.376, 73.571 80.404 C 74.922 75.755, 75.486 75, 77.602 75 C 78.956 75, 80.328 74.308, 80.653 73.463 C 80.977 72.618, 82.530 71.260, 84.104 70.446 C 87.457 68.713, 89.261 65.502, 90.971 58.229 C 92.419 52.068, 91.429 50, 87.033 50 C 83.567 50, 81.463 52.433, 80.548 57.500 C 80.151 59.700, 79.483 63.434, 79.064 65.799 C 78.645 68.163, 77.814 70.586, 77.218 71.182 C 75.371 73.029, 73 71.286, 73 68.081 C 73 62.910, 70.824 54.687, 68.621 51.535 C 65.735 47.405, 64.965 46.938, 61.532 47.239 C 59.142 47.449, 58.385 48.124, 57.651 50.701 C 56.874 53.426, 57.113 54.346, 59.259 56.896 C 62.757 61.053, 65.345 69.782, 64.674 75.158 C 63.590 83.833, 62.183 90.789, 61.104 92.806 C 60.497 93.941, 60 95.591, 60 96.473 C 60 97.356, 58.349 101.773, 56.332 106.289 C 52.339 115.227, 44.307 124.673, 38.054 127.785 C 33.701 129.952, 33.154 131.657, 36.346 133.112 C 38.410 134.052, 39.618 133.879, 43.240 132.126 C 45.655 130.957, 48.076 130, 48.620 130 C 50.211 130, 55.590 123.901, 58.671 118.603 C 62.295 112.371, 64.214 111.071, 66.465 113.322 C 68.682 115.539, 78.932 115.604, 83.140 113.428 C 85.631 112.140, 86.070 111.416, 85.571 109.428 C 85.131 107.673, 85.374 107, 86.449 107 C 88.155 107, 96.713 115.155, 99.305 119.250 C 100.263 120.763, 101.866 122, 102.868 122 C 105.161 122, 107.989 118.948, 108.036 116.421 C 108.093 113.467, 118.164 103.343, 121.852 102.532 C 124.565 101.937, 125 102.118, 125 103.844 C 125 104.946, 123.471 107.850, 121.602 110.298 C 119.733 112.746, 117.689 115.712, 117.059 116.889 C 116.429 118.066, 114.246 120.131, 112.207 121.477 C 103.809 127.023, 102.845 129.021, 106.413 133.495 C 108.649 136.297, 108.920 136.385, 110.651 134.868 C 111.668 133.976, 114.241 132.631, 116.369 131.879 C 118.498 131.127, 121.037 129.497, 122.013 128.256 C 124.211 125.462, 128.097 125.345, 130.500 128 C 135.206 133.200, 141.069 127.639, 151.060 108.500 C 154.569 101.777, 156.322 99.416, 157.986 99.166 C 159.219 98.982, 164.833 101.111, 170.554 103.934 C 178.451 107.829, 181.762 110.094, 184.568 113.517 C 188.765 118.640, 190.120 118.992, 192.375 115.550 C 194.845 111.781, 192.681 106.451, 187 102.315 C 184.525 100.513, 180.280 97.343, 177.566 95.269 C 171.555 90.677, 166.864 88.877, 162.950 89.660 C 160.293 90.191, 160 89.994, 160 87.669 C 160 86.249, 161.350 82.798, 163 80 C 164.650 77.202, 166 74.283, 166 73.515 C 166 72.747, 166.450 71.840, 167 71.500 C 167.550 71.160, 168 69.585, 168 68 C 168 66.415, 168.408 64.866, 168.906 64.558 C 169.405 64.250, 170.137 61.642, 170.533 58.763 C 171.032 55.134, 172.223 52.297, 174.418 49.514 C 178.684 44.106, 181.245 38.177, 182.429 30.968 C 182.910 28.040, 182.508 26.842, 180.081 23.968 C 175.631 18.697, 173.961 20.382, 172.043 32.075 C 170.826 39.501, 170.131 41.557, 168.750 41.817 C 167.253 42.099, 167 41.339, 167 36.553 C 167 32.310, 166.397 30.004, 164.500 27 C 163.125 24.822, 162 22.157, 162 21.077 C 162 19.998, 161.056 17.514, 159.901 15.557 C 158.162 12.609, 157.230 12, 154.460 12 C 152.622 12, 150.911 12.338, 150.658 12.750 M 105.845 40.562 C 103.455 42.520, 100.713 44.766, 99.750 45.552 C 98.787 46.338, 98 47.856, 98 48.925 C 98 52.144, 99.855 56, 101.404 56 C 103.958 56, 117 43.920, 117 41.554 C 117 36.052, 111.900 35.598, 105.845 40.562 M 131.750 41.689 C 128.680 42.492, 129.431 49.080, 132.979 52.480 C 134.618 54.050, 137.424 57.752, 139.215 60.707 C 142.424 66.003, 145.332 67.854, 148.520 66.631 C 151.180 65.610, 151.192 63.372, 148.557 59.490 C 147.151 57.417, 146 54.972, 146 54.056 C 146 51.246, 140.168 43.014, 137.443 41.978 C 134.755 40.956, 134.587 40.948, 131.750 41.689 M 109.400 60.250 C 107.221 62.587, 103.540 66.123, 101.220 68.107 C 97.904 70.941, 97 72.394, 97 74.888 C 97 76.748, 97.604 78.295, 98.459 78.623 C 103.613 80.600, 121 68.570, 121 63.026 C 121 59.470, 118.345 56, 115.623 56 C 114.249 56, 111.805 57.668, 109.400 60.250 M 32.200 73.200 C 31.540 73.860, 31 75.650, 31 77.177 C 31 80.043, 33.256 82.120, 37.871 83.502 C 39.175 83.892, 42.165 85.567, 44.516 87.224 C 48.105 89.754, 49.235 90.088, 51.573 89.309 C 57.002 87.499, 56.982 85.482, 51.487 80.545 C 43.315 73.203, 35.263 70.137, 32.200 73.200 M 119.564 143.896 C 119.259 144.389, 117.135 145.770, 114.843 146.965 C 112.551 148.160, 107.711 151.731, 104.088 154.902 C 100.465 158.073, 95.895 161.627, 93.934 162.801 C 88.050 166.323, 86.482 168.567, 87.833 171.532 C 89.410 174.993, 91.531 175.562, 94.643 173.360 C 96.089 172.337, 99.195 170.375, 101.546 169 C 103.897 167.625, 107.773 164.893, 110.160 162.929 C 115.319 158.685, 122.470 156.070, 124.197 157.797 C 125.759 159.359, 123.106 165.046, 115.250 176.979 C 111.813 182.201, 109 186.816, 109 187.236 C 109 188.794, 106.228 187.907, 100.708 184.583 C 94.464 180.823, 90.288 179.570, 85.048 179.883 C 80.484 180.156, 79 181.551, 79 185.566 C 79 189.555, 81.912 192, 86.663 192 C 88.434 192, 90.160 192.450, 90.500 193 C 90.840 193.550, 92.035 194, 93.155 194 C 95.903 194, 101 197.745, 101 199.764 C 101 201.180, 96.587 208.596, 94.908 210 C 94.579 210.275, 91.728 213.875, 88.572 218 C 79.457 229.912, 73.340 235.846, 69.415 236.582 C 65.289 237.356, 64.554 238.299, 65.989 240.979 C 66.867 242.619, 68.076 243, 72.405 243 C 77.564 243, 77.927 242.812, 83.370 237.325 C 86.467 234.204, 89 231.290, 89 230.849 C 89 230.409, 90.575 228.615, 92.500 226.864 C 94.425 225.112, 96 223.243, 96 222.711 C 96 222.178, 97.463 220.046, 99.250 217.972 C 101.037 215.899, 103.773 212.132, 105.328 209.601 C 106.884 207.071, 108.877 205, 109.757 205 C 111.666 205, 117.329 206.709, 121.500 208.543 C 123.150 209.269, 125.625 210.170, 127 210.546 C 128.375 210.922, 130.400 212.017, 131.500 212.979 C 133.708 214.909, 147.452 223, 148.524 223 C 148.895 223, 151.966 224.657, 155.349 226.681 C 169.222 234.984, 176.436 239.746, 181.963 244.250 C 185.170 246.863, 188.071 249, 188.411 249 C 189.116 249, 199.247 257.129, 203 260.705 C 204.375 262.016, 209.100 266.083, 213.500 269.744 C 217.900 273.405, 221.860 276.986, 222.300 277.700 C 223.540 279.716, 225.382 279.254, 228.313 276.195 C 232.156 272.184, 231.791 269.516, 226.951 266.240 C 224.725 264.733, 217.259 259, 210.360 253.500 C 188.644 236.186, 179.291 229.185, 174.320 226.524 C 169.160 223.761, 167.012 222.532, 151.500 213.469 C 146 210.255, 139.025 206.346, 136 204.781 C 132.975 203.216, 129.607 201.387, 128.516 200.718 C 121.208 196.231, 118 193.719, 118 192.482 C 118 190.878, 121.480 184.316, 123.601 181.921 C 124.371 181.053, 125 179.993, 125 179.566 C 125 179.139, 126.350 176.790, 128 174.345 C 129.650 171.900, 131 169.431, 131 168.858 C 131 168.284, 131.900 166.671, 133 165.273 C 134.100 163.874, 135 161.756, 135 160.565 C 135 159.374, 135.434 157.966, 135.963 157.437 C 137.313 156.087, 134.909 149.528, 131.741 145.918 C 129.619 143.500, 128.404 143, 124.649 143 C 122.157 143, 119.869 143.403, 119.564 143.896" stroke="none" fill="black" fill-rule="evenodd"/>
</svg>