<svg xmlns="http://www.w3.org/2000/svg" width="300" height="300" viewBox="0 0 300 300" version="1.1">
	<path d="M 73.273 46.719 C 71.772 49.021, 71.537 51.408, 71.738 62.281 L 71.976 75.124 68.238 78.564 C 64.854 81.679, 61.212 83.723, 60.620 82.841 C 60.494 82.654, 60.812 75.851, 61.328 67.725 C 62.195 54.044, 62.129 52.800, 60.433 50.926 C 59.192 49.555, 57.619 48.999, 55.551 49.201 L 52.500 49.500 51.765 67 C 51.361 76.625, 50.574 85.534, 50.015 86.797 C 49.457 88.060, 49 89.912, 49 90.912 C 49 91.912, 48.142 93.821, 47.093 95.155 C 46.044 96.488, 44.874 99.659, 44.493 102.201 C 43.898 106.165, 44.075 106.970, 45.738 107.860 C 46.804 108.430, 48.635 108.647, 49.807 108.340 C 52.166 107.723, 57 100.242, 57 97.207 C 57 94.175, 60.828 90, 63.608 90 C 64.962 90, 67.160 89.286, 68.491 88.414 C 69.823 87.541, 71.322 87.081, 71.824 87.391 C 72.325 87.701, 72.795 93.955, 72.868 101.290 L 73.001 114.625 70.250 117.152 C 68.738 118.541, 65.925 120.748, 64 122.056 C 62.075 123.364, 59.905 125.011, 59.179 125.717 C 58.452 126.423, 57.474 127, 57.005 127 C 56.537 127, 54.684 128.237, 52.887 129.750 C 49.358 132.721, 36.728 140.183, 25.500 145.930 C 18.638 149.443, 18.494 149.597, 18.193 153.752 C 17.931 157.368, 18.224 158.143, 20.193 159.025 C 22.159 159.906, 24.245 159.111, 34.306 153.644 C 40.799 150.116, 46.649 146.600, 47.306 145.832 C 47.963 145.063, 51.200 142.664, 54.500 140.500 C 57.800 138.336, 63.106 134.598, 66.292 132.192 C 73.993 126.377, 75.074 126.906, 74.495 136.209 C 74.246 140.219, 73.590 154.091, 73.037 167.037 C 72.127 188.367, 70.918 204.483, 67.829 236.500 C 66.086 254.560, 66.604 258, 71.063 258 C 74.185 258, 75.196 254.754, 75.044 245.224 C 74.997 242.322, 75.605 237.597, 76.393 234.724 C 77.182 231.851, 78.114 225, 78.464 219.500 C 79.409 204.684, 80.772 185.244, 81.934 170 C 82.500 162.575, 83.021 151.550, 83.092 145.500 C 83.254 131.543, 84.590 119.199, 86.139 117.332 C 86.800 116.536, 88.727 115.240, 90.420 114.453 C 97.154 111.322, 105.264 106.280, 106.170 104.661 C 107.847 101.663, 106.770 97.538, 104.214 97.176 C 101.852 96.841, 94.620 100.562, 89.673 104.659 C 84.475 108.964, 84.160 108.301, 84.715 94.250 C 85.194 82.133, 85.780 79.424, 89.035 74.284 C 90.316 72.261, 90.185 71.802, 87.532 69.034 C 85.934 67.365, 84.035 66, 83.313 66 C 81.724 66, 81.806 66.430, 81.425 56.143 C 81.197 49.980, 80.666 47.288, 79.403 45.893 C 77.049 43.291, 75.360 43.519, 73.273 46.719 M 144.487 62.021 C 144.140 62.583, 143.321 67.599, 142.667 73.167 L 141.477 83.293 132.792 86.422 C 128.015 88.143, 123.070 90.510, 121.803 91.681 C 120.536 92.852, 117.925 94.675, 116 95.733 C 112.216 97.813, 110.848 101.907, 113.050 104.560 C 114.945 106.844, 116.988 106.323, 127 101 C 132.173 98.250, 137.261 96, 138.307 96 C 139.961 96, 140.131 96.523, 139.605 100 C 139.272 102.200, 138.727 105.803, 138.394 108.006 C 138.061 110.210, 137.386 112.261, 136.894 112.565 C 136.402 112.869, 136 114.143, 136 115.396 C 136 117.418, 133.505 126.096, 128.495 141.500 C 127.600 144.250, 125.957 148.300, 124.843 150.500 C 122.313 155.495, 122.637 160.500, 125.490 160.500 C 127.035 160.500, 128.883 157.717, 133.740 148.073 C 137.183 141.238, 140.002 134.488, 140.004 133.073 C 140.006 131.658, 140.896 129.042, 141.983 127.260 C 143.069 125.478, 144.442 120.995, 145.032 117.299 C 145.623 113.602, 146.503 110.099, 146.989 109.514 C 147.474 108.929, 148.191 106.039, 148.582 103.093 C 149.487 96.271, 153.493 91.332, 158.826 90.464 C 160.847 90.135, 164.300 89.167, 166.500 88.313 C 176.867 84.289, 179 82.363, 179 77.029 C 179 73.850, 178.453 72.747, 176.017 71.012 L 173.034 68.888 168.701 73.346 C 166.041 76.084, 162.850 78.226, 160.434 78.897 C 152.987 80.964, 153 80.977, 153 71.700 C 153 66.578, 152.541 62.941, 151.800 62.200 C 150.336 60.736, 145.357 60.614, 144.487 62.021 M 155.500 152.402 C 150.550 154.177, 145.375 156.276, 144 157.065 C 138.602 160.164, 133 165.227, 133 167.008 C 133 170.467, 130.953 170.193, 127.096 166.218 C 122.451 161.431, 116.874 159.899, 113.900 162.591 C 110.793 165.402, 111.638 167.471, 119 175.070 C 122.850 179.044, 126 182.701, 126 183.196 C 126 183.691, 126.900 185.959, 128 188.236 C 129.333 190.995, 130 194.422, 130 198.514 C 130 203.768, 130.360 204.990, 132.500 207 C 133.875 208.292, 135 209.935, 135 210.651 C 135 211.368, 136.126 212.692, 137.503 213.594 C 139.864 215.141, 140.472 215.087, 148.253 212.644 C 152.789 211.220, 159.425 209.566, 163 208.968 C 179.989 206.127, 189.705 204.996, 192.272 205.560 C 197.866 206.788, 200.304 200.556, 195.469 197.388 C 193.304 195.969, 190.986 195.813, 179.469 196.309 C 168.271 196.792, 166 196.652, 166 195.480 C 166 194.247, 168.233 191.284, 174.099 184.733 C 174.978 183.751, 176.188 181.272, 176.789 179.224 C 177.389 177.176, 178.582 173.165, 179.440 170.312 C 182.492 160.162, 181.040 153.788, 174.986 150.752 C 170.125 148.313, 165.899 148.671, 155.500 152.402 M 162 161.719 C 155.971 163.699, 141.750 170.622, 138.562 173.130 C 135.338 175.666, 135.224 179.550, 138.153 187.014 C 139.336 190.031, 140.360 193.850, 140.426 195.500 C 140.557 198.734, 141.604 201, 142.969 201 C 145.105 201, 154.685 192.129, 160.579 184.693 C 165.517 178.463, 167.579 174.845, 169.182 169.593 C 171.221 162.912, 171.230 162.641, 169.454 161.343 C 168.444 160.604, 167.366 160.054, 167.059 160.120 C 166.751 160.186, 164.475 160.906, 162 161.719" stroke="none" fill="black" fill-rule="evenodd"/>
</svg>