<svg xmlns="http://www.w3.org/2000/svg" width="300" height="300" viewBox="0 0 300 300" version="1.1">
	<path d="M 73.970 56.536 C 73.001 57.704, 72.851 61.355, 73.345 71.786 C 73.703 79.329, 74.251 87.300, 74.564 89.500 C 75.045 92.879, 74.729 93.927, 72.529 96.247 C 71.096 97.759, 68.924 100.909, 67.701 103.247 C 66.268 105.989, 64.691 107.612, 63.263 107.817 C 61.050 108.132, 61.049 108.125, 62.655 103.317 C 63.539 100.667, 64.645 97.732, 65.113 96.794 C 65.580 95.856, 66.035 88.697, 66.126 80.886 C 66.273 68.123, 66.102 66.548, 64.443 65.335 C 63.241 64.455, 61.360 64.208, 59.049 64.624 C 54.308 65.477, 53.845 65.829, 54.858 67.811 C 56.569 71.157, 56.081 92.058, 54.083 101 C 52.291 109.019, 49.062 120.685, 47.717 124 C 45.976 128.293, 45.114 133.514, 46 134.400 C 47.278 135.678, 51.542 133.384, 55.422 129.331 C 57.503 127.157, 58.776 124.488, 59.478 120.832 C 60.491 115.551, 60.560 115.472, 67 112.259 C 70.575 110.475, 73.976 109.012, 74.557 109.008 C 75.489 109.001, 75.688 116.602, 75.120 130.409 C 74.989 133.586, 68.828 140.064, 61.500 144.729 C 59.300 146.129, 56.825 147.887, 56 148.634 C 53.190 151.180, 45.163 156.864, 42.255 158.368 C 40.659 159.193, 38.770 160.573, 38.055 161.434 C 37.340 162.295, 36.023 163.014, 35.128 163.031 C 34.232 163.048, 31.250 164.169, 28.500 165.522 C 25.750 166.875, 22.514 167.986, 21.309 167.991 C 18.253 168.004, 17.742 169.327, 18.994 173.977 C 19.726 176.697, 20.631 177.995, 21.789 177.985 C 25.241 177.956, 38.123 172.829, 41.127 170.288 C 42.022 169.531, 44.560 167.919, 46.767 166.706 C 52.395 163.611, 59.412 158.390, 66.167 152.270 C 69.900 148.888, 72.491 147.251, 73.500 147.638 C 74.362 147.969, 74.847 148.966, 74.583 149.868 C 73.595 153.250, 73.006 158.839, 72.513 169.500 C 71.672 187.674, 67.958 216.341, 65.961 220.072 C 64.529 222.749, 66.793 227.396, 69.734 227.816 C 72.532 228.216, 76.276 222.655, 75.636 219.051 C 75.397 217.703, 75.680 215.453, 76.265 214.051 C 76.849 212.648, 77.679 207, 78.108 201.500 C 78.537 196, 79.333 188.125, 79.877 184 C 80.421 179.875, 81.569 169.750, 82.428 161.500 C 84.564 140.977, 85.329 138.532, 91.449 132.654 C 94.227 129.986, 97.850 127.104, 99.500 126.248 C 105.054 123.369, 105.935 119.973, 102.227 115.750 C 99.762 112.943, 97.046 113.691, 92.237 118.500 C 89.762 120.975, 87.171 123, 86.480 123 C 84.382 123, 83.802 116.597, 85.469 111.844 C 86.307 109.455, 87.289 105.066, 87.653 102.090 C 88.220 97.441, 88.924 96.078, 92.656 92.398 C 98.246 86.888, 98.378 83.816, 93.143 81.057 C 91.438 80.159, 90.483 80.117, 89.693 80.907 C 85.863 84.737, 82.928 78.328, 82.842 65.945 C 82.806 60.698, 82.333 57.983, 81.240 56.750 C 79.326 54.590, 75.675 54.482, 73.970 56.536 M 150.285 83.750 C 148.254 88.470, 147.362 98.488, 148.889 99.431 C 149.500 99.809, 150 102.038, 150 104.385 C 150 108.948, 148.279 111.199, 142.626 114.031 C 137.955 116.371, 131 125.211, 131 128.808 C 131 134.673, 136.112 134.483, 144.683 128.297 C 146.434 127.034, 148.399 126, 149.050 126 C 150.579 126, 149.710 142.233, 147.577 153.500 C 146.744 157.900, 145.562 164.875, 144.951 169 C 144.340 173.125, 142.409 179.830, 140.661 183.901 C 137.512 191.231, 137.430 191.319, 131.991 193.132 C 128.971 194.139, 122.900 195.694, 118.500 196.587 C 113.489 197.604, 108.706 199.343, 105.698 201.243 C 101.249 204.053, 100.918 204.541, 101.198 207.888 C 101.446 210.855, 101.937 211.562, 103.946 211.845 C 106.900 212.262, 112.699 210.648, 119.650 207.472 C 122.483 206.178, 127.658 204.578, 131.150 203.916 C 134.643 203.253, 139.975 202.064, 143 201.274 C 156.501 197.743, 167.006 196.851, 187.500 197.495 C 222.079 198.580, 226.954 198.925, 230.001 200.500 C 235.501 203.345, 239 201.889, 239 196.755 C 239 192.304, 235.237 189.299, 228.633 188.473 C 225.534 188.086, 208.486 187.720, 190.749 187.660 C 163.415 187.568, 157.662 187.803, 153 189.205 C 146.447 191.175, 144.712 190.264, 147.339 186.230 C 151.410 179.981, 154.298 171.939, 155.680 163 C 156.489 157.775, 157.644 152.150, 158.247 150.500 C 158.851 148.850, 159.461 142.376, 159.603 136.113 C 159.909 122.567, 161.491 116.147, 164.837 114.873 C 168.342 113.539, 179 105.068, 179 103.616 C 179 101.653, 174.614 98, 172.257 98 C 171.094 98, 169.548 98.588, 168.821 99.306 C 168.095 100.024, 166.004 101.487, 164.176 102.556 C 160.885 104.480, 160.837 104.480, 159.426 102.559 C 157.810 100.359, 157.600 93.431, 158.970 87.520 C 160.051 82.860, 158.272 80, 154.294 80 C 152.479 80, 151.507 80.909, 150.285 83.750" stroke="none" fill="black" fill-rule="evenodd"/>
</svg>