<svg xmlns="http://www.w3.org/2000/svg" width="300" height="300" viewBox="0 0 300 300" version="1.1">
	<path d="M 116.390 37.642 C 110.173 41.864, 97.825 47.820, 93.786 48.544 C 91.743 48.910, 89.546 49.842, 88.904 50.616 C 88.261 51.390, 85.787 52.885, 83.405 53.939 C 80.362 55.285, 78.880 56.631, 78.419 58.468 C 77.062 63.874, 84.580 67.331, 88.434 63.073 C 89.393 62.013, 92.051 60.840, 94.339 60.466 C 96.628 60.092, 99.932 58.709, 101.683 57.393 C 108.179 52.511, 110.067 55.276, 104.750 61.883 C 102.963 64.105, 100.164 67.627, 98.530 69.711 C 96.897 71.795, 93.055 76.425, 89.993 80 C 86.930 83.575, 83.767 87.472, 82.962 88.660 C 82.158 89.849, 77 95.725, 71.500 101.718 C 58.483 115.903, 52.699 122.667, 51.649 124.933 C 50.475 127.465, 53.643 134, 56.044 134 C 57.043 134, 60.777 132.650, 64.342 131 C 67.907 129.350, 71.651 127.990, 72.662 127.978 C 73.673 127.966, 75.625 127.076, 77 126 C 78.375 124.924, 80.092 124.034, 80.815 124.022 C 82.466 123.994, 90.670 120.700, 98.473 116.930 C 102.009 115.222, 104.812 114.412, 105.345 114.945 C 105.877 115.477, 104.457 118.833, 101.862 123.172 C 99.452 127.202, 96.810 131.850, 95.990 133.500 C 91.173 143.198, 76.637 164.149, 68.264 173.462 C 67.294 174.541, 66.274 175.989, 65.998 176.681 C 65.460 178.026, 51.162 193.881, 44.517 200.501 C 34.872 210.108, 25.853 217.719, 21.594 219.846 C 16.505 222.388, 15.536 225.365, 18.829 228.345 C 21.504 230.766, 23.451 230.411, 29.205 226.453 C 38.521 220.045, 76 182.621, 76 179.727 C 76 179.185, 77.463 177.071, 79.250 175.028 C 83.772 169.860, 84.761 168.575, 91.198 159.500 C 94.320 155.100, 98.027 150.088, 99.437 148.363 C 100.847 146.637, 102 144.932, 102 144.572 C 102 143.675, 105.935 138.087, 108.917 134.750 C 113.785 129.302, 114.001 130.132, 113.992 154.250 C 113.988 166.488, 113.558 179.200, 113.037 182.500 C 112.515 185.800, 111.870 193.450, 111.604 199.500 C 111.337 205.550, 110.237 214.899, 109.160 220.275 C 108.082 225.651, 107.443 230.978, 107.740 232.113 C 108.711 235.827, 103.876 234.050, 101.691 229.890 C 98.361 223.549, 92.589 217.560, 90.559 218.339 C 89.150 218.880, 88.891 219.707, 89.374 222.121 C 89.714 223.821, 90.557 226.281, 91.246 227.587 C 91.936 228.894, 94.177 233.298, 96.227 237.374 C 99.514 243.908, 104.677 250, 106.928 250 C 107.353 250, 109.012 249.543, 110.613 248.985 C 113.900 247.839, 115.553 244.662, 116.327 238 C 117.487 228.012, 119.224 216.303, 120.035 213 C 120.904 209.464, 123.079 167.788, 123.453 147.500 C 123.565 141.450, 123.272 132, 122.802 126.500 C 121.554 111.899, 121.699 108.948, 123.737 107.402 C 124.707 106.666, 126.166 106.049, 126.981 106.032 C 128.932 105.990, 138.002 102.268, 145.500 98.432 C 152.123 95.044, 153.242 92.825, 150.465 88.586 C 148.850 86.122, 148.708 86.095, 145.153 87.556 C 143.144 88.382, 140.308 89.925, 138.850 90.985 C 137.393 92.044, 134.918 93.221, 133.350 93.599 C 131.783 93.977, 128.406 95.332, 125.846 96.611 C 119.203 99.930, 118.822 99.146, 118.435 81.357 C 118.249 72.838, 117.673 66.273, 117.058 65.658 C 115.371 63.971, 115.716 63.128, 121 56 C 123.750 52.290, 126 48.852, 126 48.360 C 126 47.867, 127.100 45.845, 128.445 43.866 L 130.890 40.268 128.140 37.634 C 124.657 34.297, 121.311 34.299, 116.390 37.642 M 103.839 76.894 C 102.553 78.485, 99.319 82.535, 96.654 85.894 C 93.988 89.252, 91.407 92, 90.916 92 C 90.426 92, 88.880 93.813, 87.482 96.029 C 86.083 98.245, 81.914 103.240, 78.219 107.129 C 69.206 116.613, 68.912 119.105, 77.216 115.623 C 85.715 112.059, 92.221 109.512, 100.500 106.510 L 109.500 103.246 109.414 98.873 C 109.236 89.752, 107.668 74, 106.939 74 C 106.520 74, 105.125 75.302, 103.839 76.894" stroke="none" fill="black" fill-rule="evenodd"/>
</svg>