<svg xmlns="http://www.w3.org/2000/svg" width="300" height="300" viewBox="0 0 300 300" version="1.1">
	<path d="M 106.500 5.908 C 102.650 7.416, 97.827 9.404, 95.782 10.325 C 93.737 11.246, 91.651 12, 91.147 12 C 89.996 12, 80.747 14.772, 75.683 16.634 C 70.347 18.596, 63.086 24.147, 63.039 26.300 C 62.991 28.508, 65.738 34, 66.891 34 C 67.353 34, 68.874 33.100, 70.273 32 C 71.671 30.900, 73.462 30, 74.253 30 C 75.043 30, 76.497 29.109, 77.482 28.020 C 78.468 26.930, 80.896 25.735, 82.877 25.363 C 84.859 24.992, 88.284 23.868, 90.490 22.866 C 94.823 20.897, 99 20.436, 99 21.927 C 99 22.436, 96.787 26.194, 94.083 30.278 C 91.378 34.362, 85.833 44.408, 81.760 52.602 C 71.507 73.227, 64.527 86.451, 62.075 89.894 C 59.488 93.528, 59.363 99.114, 61.820 101.337 C 63.290 102.667, 63.925 102.745, 65.127 101.742 C 67.435 99.814, 72 93.275, 72 91.895 C 72 91.215, 72.611 89.947, 73.357 89.079 C 74.104 88.210, 77.535 81.875, 80.982 75 C 84.429 68.125, 87.728 61.600, 88.314 60.500 C 88.900 59.400, 90.355 56.683, 91.549 54.462 C 94.986 48.065, 95.628 46.790, 97.951 41.750 C 102.245 32.435, 102.511 34.275, 102.815 75.376 L 103.100 113.753 97.373 116.985 C 88.008 122.270, 76.253 132.096, 74.999 135.688 C 74.387 137.441, 72.980 140.027, 71.873 141.434 C 70.766 142.842, 70.004 145.007, 70.180 146.247 C 70.645 149.519, 74.149 149.176, 75.818 145.694 C 76.557 144.151, 78.138 142.462, 79.331 141.940 C 80.524 141.419, 83.365 139.531, 85.645 137.746 C 97.545 128.427, 99.662 127.026, 101.500 127.253 C 103.462 127.495, 103.496 128.173, 103.298 162.500 C 103.089 198.767, 102.586 208, 100.818 208 C 99.414 208, 90 201.851, 90 200.934 C 90 200.532, 91.120 198.246, 92.488 195.852 C 95.615 190.383, 95.711 186.612, 92.777 184.557 C 88.047 181.243, 84 183.492, 84 189.434 C 84 190.845, 83.622 192, 83.161 192 C 82.699 192, 81.837 193.063, 81.244 194.363 C 80.301 196.434, 79.508 196.716, 74.834 196.649 C 71.900 196.607, 68.938 196.920, 68.250 197.345 C 66.096 198.677, 66.812 202.831, 69.500 204.592 C 73.364 207.124, 72.680 210.540, 66.714 218.489 C 59.696 227.842, 58.108 228.088, 58.175 219.811 C 58.223 213.792, 57.253 202.203, 55.050 182.500 C 52.997 164.129, 52.385 160.419, 50.845 157 C 49.978 155.075, 48.047 150.246, 46.553 146.269 C 43.966 139.378, 39.432 133, 37.122 133 C 36.530 133, 35.343 134.073, 34.484 135.384 C 32.885 137.825, 33.294 139.665, 37.122 147.236 C 37.605 148.191, 38 149.639, 38 150.453 C 38 151.266, 38.737 153.635, 39.639 155.716 C 42.537 162.409, 42.845 163.423, 43.371 168 C 44.064 174.031, 45.726 185.247, 46.927 192 C 47.466 195.025, 48.445 206.353, 49.104 217.173 C 50.190 235.013, 50.509 237.105, 52.529 239.639 C 54.540 242.161, 55.011 242.316, 57.378 241.237 C 59.374 240.328, 60 239.314, 60 236.989 C 60 235.021, 60.622 233.680, 61.750 233.218 C 66.854 231.124, 72.616 225.884, 77.541 218.855 C 80.568 214.535, 83.759 211, 84.633 211 C 86.811 211, 97.500 216.790, 99.595 219.105 C 100.927 220.577, 101.483 224.011, 102.129 234.746 C 102.584 242.310, 102.755 250.300, 102.509 252.500 C 102.263 254.700, 101.803 262.061, 101.486 268.858 C 101.005 279.199, 101.173 281.615, 102.518 283.668 C 103.665 285.419, 104.860 286.032, 106.693 285.810 C 108.951 285.538, 109.461 284.714, 110.910 279 C 112.276 273.617, 112.513 267.975, 112.291 246.163 C 112.122 229.571, 112.402 219.117, 113.048 217.911 C 113.611 216.858, 115.570 215.371, 117.401 214.606 C 120.626 213.258, 122.560 211.452, 130.852 202.040 C 134.540 197.855, 134.946 197.654, 137.438 198.790 C 138.899 199.455, 140.988 200, 142.080 200 C 144.306 200, 153.526 204.425, 154.465 205.943 C 154.799 206.483, 154.598 209.979, 154.019 213.712 C 153.440 217.446, 152.511 223.650, 151.955 227.500 C 149.065 247.516, 146.239 258.001, 143.737 257.999 C 141.976 257.997, 132 248.213, 132 246.489 C 132 245.698, 130.618 244.337, 128.928 243.463 C 122.591 240.186, 121.312 246.599, 126.827 254 C 132.078 261.047, 144.478 273, 146.538 273 C 149.496 273, 155.651 266.157, 156.432 262 C 158.662 250.134, 161.642 233.453, 162.952 225.500 C 164.577 215.635, 165.781 206.148, 169.993 170 C 171.449 157.502, 171.463 137.772, 170.021 131.500 C 169.388 128.750, 168.460 123.625, 167.957 120.111 C 166.737 111.572, 163.846 105.946, 157.961 100.655 C 152.780 95.997, 150.075 95.043, 143.258 95.469 C 138.679 95.755, 122.804 102.232, 119.436 105.188 C 117.219 107.133, 114.465 107.561, 113.562 106.101 C 113.087 105.332, 112.905 45.115, 113.347 35 C 113.467 32.247, 113.019 31.289, 111.250 30.513 C 108.724 29.405, 108.185 25.573, 110.375 24.300 C 112.591 23.011, 120 11.841, 120 9.789 C 120 7.896, 115.775 2.929, 114.295 3.082 C 113.858 3.128, 110.350 4.399, 106.500 5.908 M 120.500 53.724 C 117.318 54.506, 116 56.042, 116 58.967 C 116 62.880, 118.849 65, 124.106 65 C 126.598 65, 129.578 65.716, 130.879 66.628 C 134.229 68.974, 140.519 67.055, 141.434 63.407 C 142.446 59.376, 141.252 57.301, 136.638 55.067 C 132.555 53.090, 125.474 52.501, 120.500 53.724 M 135 108.882 C 128.437 111.490, 117.788 116.638, 115.651 118.235 C 114.020 119.455, 113.781 121.303, 113.617 133.935 C 113.394 151.148, 113.755 155, 115.596 155 C 117.965 155, 120.203 147.948, 120.356 140 L 120.500 132.500 125.138 132.731 C 129.011 132.924, 129.861 132.639, 130.288 131.005 C 130.885 128.723, 135.197 126.478, 137.378 127.315 C 138.206 127.633, 139.602 128.990, 140.481 130.330 C 142.123 132.837, 141.722 134.662, 137.855 142.273 C 136.827 144.296, 138.063 147.202, 140.799 149.199 C 141.779 149.914, 143.624 151.987, 144.897 153.804 C 147.117 156.971, 147.140 157.188, 145.451 159.054 C 144.483 160.124, 142.929 161, 141.999 161 C 139.799 161, 134.550 158.368, 132.983 156.479 C 131.117 154.231, 127.076 154.705, 123.254 157.620 C 120.278 159.890, 119.482 160.085, 117.281 159.082 C 115.884 158.446, 114.590 158.077, 114.405 158.262 C 114.220 158.447, 114.006 163.648, 113.930 169.820 C 113.766 183.024, 114.407 184.445, 120.097 183.484 C 122.279 183.115, 124.753 183.333, 126.008 184.004 C 127.762 184.943, 128.526 184.834, 130.083 183.425 C 131.137 182.471, 132 181.330, 132 180.889 C 132 180.449, 133.113 178.449, 134.474 176.444 C 135.834 174.439, 137.243 171.157, 137.604 169.149 C 138.460 164.392, 139.659 163, 142.900 163 C 148.905 163, 151.553 167.665, 148.576 173 C 144.092 181.037, 140.931 188.079, 141.439 188.902 C 141.761 189.422, 144.263 190.591, 147 191.500 C 149.737 192.409, 152.233 193.569, 152.547 194.076 C 153.038 194.871, 156.919 195.452, 157.045 194.750 C 157.070 194.613, 157.328 191.350, 157.618 187.500 C 157.909 183.650, 158.788 176.729, 159.573 172.119 C 160.358 167.509, 160.992 157.834, 160.983 150.619 C 160.967 138.171, 160.580 135.385, 156.324 117 C 155.111 111.763, 148.314 106.945, 142.282 107.047 C 140.752 107.073, 137.475 107.898, 135 108.882 M 84.938 144.062 C 83.804 145.196, 82.041 148.072, 81.021 150.452 C 78.733 155.790, 77.750 156.432, 71.656 156.574 C 66.562 156.692, 64.792 158.029, 65.244 161.416 C 65.397 162.556, 66.786 163.771, 68.678 164.416 C 70.426 165.012, 72.174 165.823, 72.563 166.218 C 73.772 167.447, 71.016 172.612, 67.937 174.888 C 64.570 177.378, 64.264 179.024, 66.750 181.272 C 68.354 182.722, 68.799 182.673, 72.077 180.677 C 77.180 177.571, 81.497 173.754, 82.314 171.625 C 82.732 170.536, 83.617 170.023, 84.496 170.360 C 85.310 170.672, 88.187 171.221, 90.891 171.580 C 95.155 172.146, 95.947 171.968, 96.871 170.242 C 97.709 168.675, 97.553 167.906, 96.139 166.626 C 95.151 165.732, 93.885 165, 93.326 165 C 91.515 165, 89 161.409, 89 158.822 C 89 157.435, 90.342 154.321, 91.982 151.900 C 93.622 149.480, 94.972 146.803, 94.982 145.950 C 95.030 141.808, 88.432 140.568, 84.938 144.062 M 115.088 193.394 C 114.452 194.161, 113.659 197.086, 113.326 199.894 C 112.771 204.583, 112.890 205, 114.788 205 C 117.132 205, 120.734 200.907, 121.669 197.182 C 122.663 193.221, 117.634 190.326, 115.088 193.394" stroke="none" fill="black" fill-rule="evenodd"/>
</svg>