<svg xmlns="http://www.w3.org/2000/svg" width="300" height="300" viewBox="0 0 300 300" version="1.1">
	<path d="M 118.650 22.250 C 117.311 24.587, 115.655 28.300, 114.969 30.500 C 113.337 35.737, 112.184 38.735, 110.160 43 C 108.512 46.474, 108.447 46.501, 101.535 46.683 C 94.326 46.872, 92 48.177, 92 52.036 C 92 54.139, 95.541 57.401, 96.908 56.557 C 98.160 55.783, 104 58.651, 104 60.039 C 104 60.583, 103.603 61.809, 103.117 62.764 C 102.631 63.719, 101.771 65.625, 101.207 67 C 96.041 79.579, 92.178 85, 88.380 85 C 84.970 85, 84.299 87.625, 86.980 90.479 C 89.380 93.034, 90.149 92.975, 96.560 89.749 C 99.482 88.278, 101.934 85.697, 105.310 80.538 C 107.889 76.596, 110 72.639, 110 71.744 C 110 70.850, 110.450 69.840, 111 69.500 C 111.550 69.160, 112 67.874, 112 66.641 C 112 65.408, 112.540 63.860, 113.200 63.200 C 114.591 61.809, 118.632 61.595, 119.420 62.870 C 119.716 63.349, 122.601 64.729, 125.832 65.937 C 132.520 68.438, 138.716 73.123, 140.079 76.709 C 141.586 80.671, 144.441 79.284, 144.799 74.415 C 145.072 70.701, 144.681 69.946, 140.299 65.739 C 134.674 60.338, 125.812 54.242, 122.304 53.361 C 120.948 53.021, 119.632 52.204, 119.379 51.545 C 119.126 50.887, 120.738 45.682, 122.960 39.980 C 125.182 34.278, 127 29.019, 127 28.293 C 127 27.567, 127.546 26.098, 128.214 25.029 C 129.240 23.386, 129.058 22.691, 127.040 20.542 C 123.614 16.895, 121.467 17.332, 118.650 22.250 M 131.691 118.688 C 130.908 120.235, 129.703 123.300, 129.013 125.500 C 128.323 127.700, 127.363 129.928, 126.879 130.450 C 126.396 130.972, 126 133.958, 126 137.085 C 126 144.862, 123.430 152.486, 118.688 158.781 C 116.500 161.685, 114.339 164.291, 113.886 164.570 C 113.434 164.850, 111.137 164.223, 108.782 163.177 C 106.427 162.130, 101.125 160.059, 97 158.574 C 92.875 157.089, 86.575 154.753, 83 153.382 C 74.828 150.250, 63.445 150.248, 61.604 153.379 C 60.772 154.794, 60.808 155.369, 61.750 155.712 C 62.438 155.962, 63 157.475, 63 159.074 L 63 161.981 70.250 161.875 C 74.814 161.807, 79.167 162.388, 82 163.442 C 84.475 164.362, 88.525 165.800, 91 166.637 C 93.475 167.474, 96.400 168.513, 97.500 168.946 C 98.600 169.379, 100.846 170.140, 102.490 170.637 C 107.577 172.175, 106.849 174.592, 98.848 182.726 C 84.507 197.305, 66.487 211, 61.646 211 C 57.566 211, 54 209.218, 54 207.180 C 54 205.206, 51.078 202, 49.278 202 C 47.474 202, 47.077 204.665, 48.564 206.788 C 49.341 207.897, 50.999 210.761, 52.248 213.152 C 54.400 217.274, 54.770 217.516, 59.367 217.809 C 67.910 218.354, 79.949 213.879, 85.084 208.250 C 86.714 206.463, 88.752 205, 89.613 205 C 91.418 205, 114 183.236, 114 181.496 C 114 180.859, 115.064 179.769, 116.364 179.073 C 119.049 177.636, 119.125 177.669, 132.500 186.053 C 136.900 188.811, 142.975 192.257, 146 193.712 C 149.025 195.166, 154.320 198.076, 157.768 200.178 C 161.215 202.280, 164.630 204, 165.357 204 C 166.083 204, 168.213 205.143, 170.089 206.539 C 175.871 210.843, 180.006 213.523, 194 222.034 C 211.701 232.800, 214 234.572, 214 237.453 C 214 239.191, 214.821 240.091, 217.149 240.902 C 218.881 241.506, 221.062 242, 221.994 242 C 224.695 242, 227 238.650, 227 234.725 C 227 231.454, 226.465 230.742, 221.418 227.303 C 218.348 225.212, 215.085 223.053, 214.168 222.507 C 212.677 221.619, 205.627 217.131, 190.500 207.439 C 187.750 205.677, 181.450 201.867, 176.500 198.972 C 171.550 196.078, 166.382 193.020, 165.015 192.178 C 162.515 190.637, 161.215 189.935, 142 179.761 C 126.884 171.757, 125.013 170.622, 125.006 169.444 C 125.003 168.863, 127.346 164.813, 130.213 160.444 C 135.681 152.111, 135.439 152.986, 137.545 134 C 137.941 130.425, 138.724 126.922, 139.284 126.216 C 139.978 125.340, 139.952 124.228, 139.202 122.716 C 138.598 121.497, 137.963 119.600, 137.791 118.500 C 137.285 115.251, 133.371 115.372, 131.691 118.688" stroke="none" fill="black" fill-rule="evenodd"/>
</svg>