<svg xmlns="http://www.w3.org/2000/svg" width="300" height="300" viewBox="0 0 300 300" version="1.1">
	<path d="M 163.879 6.574 C 160.609 9.856, 160.034 10.088, 157.941 8.968 C 155.803 7.824, 155.271 8.118, 151.062 12.768 C 148.553 15.539, 145.348 18.063, 143.939 18.375 C 139.977 19.254, 133 24.742, 133 26.981 C 133 28.172, 134.229 29.584, 136.115 30.560 C 139.046 32.075, 139.533 32.045, 144.306 30.062 C 148.680 28.244, 149.576 28.148, 150.795 29.366 C 152.981 31.553, 150.361 37.840, 146.250 40.274 C 143.652 41.812, 143 42.845, 143 45.424 C 143 49.723, 147.256 54.006, 149.795 52.261 C 154.896 48.757, 161.924 45.176, 165 44.515 C 169.597 43.528, 172.007 42.213, 171.968 40.715 C 171.914 38.637, 167.491 34.340, 164.680 33.635 C 162.187 33.009, 162 32.585, 162 27.558 C 162 22.316, 162.150 22.024, 167.061 17.728 C 171.994 13.412, 172.114 13.177, 171.811 8.400 C 171.405 1.997, 168.993 1.442, 163.879 6.574 M 78.672 34.750 C 77.919 36.017, 76.629 54.179, 76.887 59.886 C 77.325 69.606, 76.311 72.573, 70.682 78.026 C 64.030 84.472, 62.629 84.517, 63.656 78.250 C 64.084 75.638, 64.393 69.323, 64.343 64.218 C 64.271 56.807, 63.893 54.540, 62.471 52.968 C 58.325 48.387, 50.263 52.977, 53.175 58.260 C 54.050 59.847, 54.353 65.821, 54.215 78.754 C 54.027 96.356, 53.931 97.149, 51.510 100.984 C 50.130 103.171, 49 105.799, 49 106.825 C 49 108.761, 51.913 112, 53.654 112 C 55.813 112, 58.994 107.179, 60.155 102.149 C 61.075 98.164, 62.010 96.529, 63.941 95.531 C 65.351 94.801, 67.361 93.259, 68.407 92.102 C 71.095 89.132, 74.805 89.358, 76.025 92.565 C 76.561 93.976, 77 100.329, 77 106.683 L 77 118.235 73.064 121.868 C 62.438 131.675, 48.903 140.826, 38.220 145.425 C 33.974 147.253, 28.295 149.930, 25.601 151.374 C 22.907 152.818, 20.164 154, 19.506 154 C 17.006 154, 14.863 157.744, 15.184 161.551 C 15.702 167.693, 17.529 167.917, 27.624 163.070 C 32.506 160.727, 37.175 158.210, 38 157.477 C 38.825 156.744, 42.391 154.711, 45.924 152.958 C 49.457 151.206, 54.513 148.136, 57.160 146.136 C 69.092 137.121, 74.148 133.843, 75.387 134.318 C 76.320 134.676, 76.615 136.291, 76.366 139.665 C 76.170 142.324, 75.488 155.525, 74.850 169 C 74.213 182.475, 73.565 195.075, 73.411 197 C 72.689 206.022, 71.643 212.609, 70.753 213.737 C 69.090 215.844, 70.852 219.872, 74.192 221.599 C 77.095 223.100, 77.452 223.103, 78.530 221.628 C 79.176 220.745, 80.042 216.529, 80.455 212.261 C 80.867 207.992, 81.613 200.900, 82.112 196.500 C 83.870 181.006, 84.827 163.304, 84.913 144.731 L 85 125.963 94.128 116.981 C 99.148 112.042, 103.612 108, 104.046 108 C 104.481 108, 105.774 106.484, 106.918 104.632 C 109.230 100.892, 109.640 96.040, 107.800 94.200 C 106.457 92.857, 103 92.565, 103 93.794 C 103 95.368, 89.220 109, 87.629 109 C 85.640 109, 85.338 102.097, 87.178 98.684 C 87.825 97.483, 88.326 93.575, 88.290 90 C 88.219 82.927, 88.835 81.179, 93.147 76.215 C 94.716 74.409, 96 72.146, 96 71.188 C 96 68.071, 93.119 65.139, 89.737 64.812 L 86.500 64.500 86.561 50.324 C 86.621 36.375, 86.585 36.132, 84.264 35.074 C 81.509 33.819, 79.302 33.691, 78.672 34.750 M 180 55.632 C 177.889 56.300, 164.809 62.071, 163 63.132 C 162.175 63.616, 159.925 64.756, 158 65.665 C 156.075 66.574, 152.075 68.484, 149.112 69.909 C 146.148 71.334, 141.423 74.765, 138.612 77.533 C 135.800 80.302, 132.770 83.122, 131.877 83.801 C 129.740 85.424, 127.071 84.316, 125.937 81.334 C 125.357 79.809, 123.297 78.225, 120.263 76.970 C 117.644 75.887, 114.719 74.550, 113.764 74 C 111.387 72.631, 106.658 72.742, 105.200 74.200 C 104.540 74.860, 104 76.807, 104 78.526 C 104 82.558, 107.047 85.317, 113.483 87.111 C 117.291 88.173, 119.822 89.873, 124.221 94.326 C 131.931 102.129, 132.706 101.910, 137.748 90.500 C 140.228 84.887, 142.091 85.364, 143.600 92 C 144.802 97.287, 144.757 97.599, 142.425 100.055 C 139.370 103.273, 139.328 107.020, 142.314 109.826 C 145.651 112.960, 147.758 112.543, 154.500 107.414 C 157.800 104.904, 161.601 102.411, 162.948 101.874 C 164.294 101.338, 167.315 99.684, 169.661 98.200 C 172.927 96.133, 173.936 94.869, 173.963 92.809 C 173.984 91.329, 173.550 89.840, 173 89.500 C 171.161 88.363, 171.973 83.725, 174.617 80.258 C 176.687 77.544, 177.116 76.102, 176.671 73.359 C 175.826 68.154, 179.685 64.791, 184.418 66.607 C 186.998 67.597, 186.286 72.038, 182.341 79.558 C 178.688 86.524, 178.354 90, 181.338 90 C 183.664 90, 193 81.974, 193 79.974 C 193 78.953, 193.422 77.858, 193.937 77.539 C 195.885 76.335, 198 70.531, 198 66.387 C 198 62.991, 197.419 61.528, 195.250 59.463 C 190.984 55.402, 185.268 53.966, 180 55.632 M 157.492 78.355 C 153.931 80.381, 153.530 80.992, 153.781 84.010 C 153.935 85.872, 154.294 87.627, 154.579 87.912 C 155.489 88.823, 158.488 86.352, 158.850 84.393 C 159.042 83.352, 160.139 81.482, 161.287 80.237 C 164.488 76.765, 162.245 75.652, 157.492 78.355 M 163 113.752 C 159.105 115.697, 152.520 124.736, 151.530 129.496 C 149.999 136.858, 149.872 138.803, 150.884 139.428 C 152.762 140.589, 156.050 138.001, 156.677 134.867 C 157.062 132.941, 158.138 131.518, 159.641 130.947 C 160.938 130.453, 162.002 129.476, 162.005 128.775 C 162.008 128.074, 163.046 126.205, 164.313 124.622 C 166.420 121.989, 166.807 121.861, 168.860 123.122 C 172.965 125.644, 175.260 132.506, 175.767 143.780 L 176.229 154.060 172.290 153.430 C 168.660 152.850, 168.082 153.096, 164.925 156.568 C 157.186 165.080, 157.302 165, 152.659 165 L 148.227 165 147.542 160.429 C 147.165 157.915, 147.140 153.077, 147.488 149.679 C 147.930 145.355, 147.655 141.999, 146.571 138.500 C 145.719 135.750, 145.010 131.925, 144.996 130 C 144.963 125.622, 144.195 124.405, 140.608 123.041 C 136.162 121.351, 135 123.039, 135 131.188 C 135 135.007, 135.545 139.114, 136.211 140.316 C 137.061 141.849, 137.447 149.953, 137.508 167.517 C 137.555 181.277, 137.937 193.089, 138.356 193.767 C 138.775 194.445, 139.766 195, 140.559 195 C 142.195 195, 142.518 197.562, 141 198.500 C 139.252 199.580, 139.921 202.831, 142.223 204.443 C 143.445 205.299, 146.370 206, 148.723 206 C 151.075 206, 153 206.427, 153 206.950 C 153 208.205, 147.471 216.364, 145.527 217.978 C 144.687 218.675, 144 219.672, 144 220.193 C 144 221.322, 137.254 229.143, 127.250 239.612 C 123.263 243.785, 120 247.547, 120 247.972 C 120 248.397, 116.114 251.983, 111.364 255.941 C 103.072 262.852, 102.545 263.125, 98.114 262.819 C 93.759 262.518, 93.483 262.650, 93.190 265.183 C 92.551 270.713, 101.418 271.909, 109.698 267.409 C 112.339 265.974, 118.550 260.591, 123.500 255.446 C 128.450 250.302, 134.657 244.342, 137.293 242.203 C 143.320 237.310, 151.780 227.502, 153.601 223.298 C 154.363 221.537, 156.565 218.837, 158.493 217.298 C 160.422 215.759, 162 214.134, 162 213.686 C 162 213.238, 163.866 210.705, 166.146 208.058 C 168.427 205.410, 171.476 201.093, 172.923 198.464 C 175.320 194.108, 176.351 193.153, 181 190.985 C 181.934 190.549, 182.787 188.062, 183.261 184.393 C 183.680 181.152, 184.462 177.727, 184.999 176.783 C 185.639 175.658, 185.625 174.143, 184.958 172.389 C 184.264 170.563, 184.270 168.712, 184.978 166.566 C 186.386 162.300, 186.471 135.749, 185.085 133.159 C 184.488 132.044, 184 130.242, 184 129.156 C 184 125.844, 178.195 114.677, 175.775 113.334 C 172.537 111.536, 167.077 111.715, 163 113.752 M 162 136.965 C 162 137.496, 160.650 139.468, 159 141.347 C 157.350 143.226, 156 145.183, 156 145.695 C 156 146.207, 154.650 147.919, 153 149.500 C 149.326 153.020, 149.232 154.930, 152.577 158.073 L 155.155 160.494 158.327 156.688 C 160.072 154.594, 163.863 150.355, 166.750 147.266 C 169.637 144.177, 172 141.312, 172 140.898 C 172 140.484, 170.814 139.212, 169.365 138.073 C 166.659 135.944, 162 135.244, 162 136.965 M 168.323 167.339 C 166.770 169.175, 164.028 171.742, 162.229 173.043 C 159.123 175.288, 157.947 175.566, 150.250 175.871 L 147 176 146.996 182.750 C 146.994 187.646, 146.464 190.367, 145.068 192.656 C 144.010 194.391, 143.412 196.079, 143.739 196.406 C 145.656 198.323, 149.822 196.285, 158.879 189 C 165.429 183.731, 169.688 181, 171.353 181 C 172.744 181, 174.087 180.662, 174.338 180.250 C 174.589 179.838, 175.118 176.012, 175.514 171.750 L 176.235 164 173.690 164 C 172.036 164, 170.158 165.168, 168.323 167.339 M 173.154 221.315 C 172.316 222.325, 173.084 223.483, 176.472 226.315 C 178.897 228.342, 181.161 230, 181.502 230 C 182.475 230, 192.748 234.815, 201 239.139 C 205.125 241.300, 213.225 245.356, 219 248.152 C 224.775 250.948, 230.175 253.814, 231 254.520 C 231.825 255.226, 237.445 258.342, 243.489 261.444 C 249.533 264.547, 256.733 268.574, 259.489 270.393 C 278.388 282.867, 281.683 285.312, 283.196 287.982 C 285.371 291.819, 295.425 296.849, 297.866 295.321 C 298.765 294.759, 299.633 292.991, 299.795 291.394 C 300.272 286.700, 294.266 281.257, 276.590 270.365 C 271.040 266.945, 264.025 262.605, 261 260.720 C 257.975 258.835, 251 254.898, 245.500 251.971 C 240 249.045, 233.700 245.693, 231.500 244.522 C 229.300 243.352, 225.104 241.379, 222.177 240.138 C 219.249 238.897, 214.524 236.406, 211.677 234.603 C 208.829 232.799, 203.350 229.857, 199.500 228.063 C 195.650 226.270, 191.819 224.199, 190.988 223.462 C 190.156 222.724, 186.556 221.647, 182.988 221.068 C 174.742 219.730, 174.463 219.737, 173.154 221.315" stroke="none" fill="black" fill-rule="evenodd"/>
</svg>