<svg xmlns="http://www.w3.org/2000/svg" width="300" height="300" viewBox="0 0 300 300" version="1.1">
	<path d="M 159.500 61.283 C 145.601 68.987, 142.975 71.779, 144.375 77.360 C 144.782 78.980, 144.355 80.274, 143.013 81.488 C 140.897 83.403, 140.888 86.036, 142.929 106.500 C 143.423 111.450, 143.894 122.017, 143.977 129.982 C 144.139 145.661, 144.889 148.660, 149.796 153.236 C 154.319 157.453, 160.892 158.329, 182.350 157.572 C 205.268 156.764, 221.080 155.347, 224.786 153.769 C 228.180 152.323, 235.838 144.557, 237.074 141.306 C 237.583 139.966, 238 135.524, 238 131.435 C 238 125.599, 237.488 122.980, 235.617 119.251 C 231.808 111.655, 229.201 105.692, 228.513 103 C 228.162 101.625, 227.482 99.600, 227.003 98.500 C 226.523 97.400, 225.161 93.575, 223.975 90 C 221.874 83.668, 218.705 79.446, 216.894 80.565 C 215.663 81.326, 216.952 91.926, 218.650 95 C 220.775 98.849, 225.253 120.571, 225.731 129.351 C 226.289 139.589, 225.041 142.751, 220.139 143.527 C 218.137 143.844, 214.690 144.559, 212.477 145.118 C 207.977 146.253, 202.863 146.616, 179 147.494 C 166.343 147.959, 161.918 147.795, 160 146.786 C 154.598 143.947, 152.629 134.493, 155.069 123.116 C 156.344 117.168, 160.917 113.020, 166.599 112.656 C 168.966 112.505, 170.546 111.761, 171.255 110.464 C 171.846 109.384, 172.624 108.275, 172.983 108 C 174.180 107.086, 177.797 98.551, 178.492 95 C 178.869 93.075, 179.400 86.488, 179.672 80.361 C 180.359 64.894, 178.130 60.937, 168 59.641 C 164.477 59.190, 162.631 59.547, 159.500 61.283 M 86.560 68.132 C 85.069 69.304, 80.396 71.951, 76.175 74.014 C 71.954 76.077, 63.325 80.741, 57 84.377 C 50.675 88.014, 44.802 90.992, 43.950 90.995 C 43.097 90.998, 41.972 91.391, 41.450 91.870 C 40.927 92.348, 36 94.197, 30.500 95.978 C 25 97.759, 19.938 99.673, 19.250 100.231 C 16.589 102.389, 18.661 111.055, 21.821 110.985 C 23.306 110.952, 29.849 108.370, 31.134 107.311 C 31.885 106.691, 35.200 105.238, 38.500 104.083 C 41.800 102.927, 46.667 100.635, 49.316 98.991 C 51.965 97.346, 54.528 96, 55.010 96 C 55.817 96, 55.667 105.016, 54.517 125.500 C 54.270 129.900, 53.387 136.425, 52.555 140 C 49.677 152.368, 47.795 159.533, 45.402 167.223 C 44.081 171.471, 43 175.832, 43 176.914 C 43 177.996, 42.550 179.160, 42 179.500 C 41.450 179.840, 41 181.126, 41 182.359 C 41 183.592, 40.502 185.098, 39.893 185.707 C 39.284 186.316, 37.675 190.118, 36.316 194.157 C 34.958 198.196, 31.631 205.928, 28.923 211.341 C 23.506 222.168, 23.066 224.631, 25.922 228.139 L 27.843 230.500 30.718 227.758 C 32.299 226.250, 34.190 223.325, 34.919 221.258 C 36.316 217.303, 40.470 207.711, 42.062 204.764 C 42.578 203.809, 43 202.441, 43 201.725 C 43 201.009, 43.863 198.731, 44.917 196.662 C 45.972 194.594, 47.615 190.561, 48.569 187.701 C 49.523 184.840, 50.910 181.082, 51.652 179.349 C 52.393 177.616, 53 175.280, 53 174.158 C 53 173.037, 54.069 169.055, 55.376 165.310 C 56.683 161.564, 58.291 156.250, 58.948 153.500 C 59.606 150.750, 60.769 146.250, 61.532 143.500 C 62.295 140.750, 63.050 137.185, 63.210 135.577 C 63.369 133.970, 63.975 132.499, 64.555 132.309 C 65.531 131.989, 70 140.772, 70 143.010 C 70 143.554, 70.367 144, 70.817 144 C 72.594 144, 74.440 157.788, 74.216 169.389 C 73.980 181.599, 74.591 184, 77.934 184 C 78.863 184, 80.608 183.082, 81.811 181.961 C 83.846 180.065, 83.997 179.029, 83.956 167.211 C 83.932 160.220, 83.479 152.475, 82.949 150 C 82.418 147.525, 81.702 143.925, 81.357 142 C 81.012 140.075, 80.044 137.711, 79.207 136.747 C 78.369 135.782, 77.412 133.322, 77.080 131.278 C 76 124.635, 68.096 122.697, 67.180 128.852 C 67.005 130.033, 66.442 131, 65.930 131 C 65.140 131, 64.354 111.605, 64.674 100.014 C 64.740 97.624, 64.162 96.101, 62.837 95.174 C 61.218 94.039, 61.115 93.566, 62.202 92.255 C 62.916 91.394, 64.850 90.067, 66.500 89.306 C 68.150 88.544, 71.300 86.604, 73.500 84.994 C 75.700 83.384, 77.955 82.051, 78.510 82.033 C 79.066 82.015, 82.968 80.501, 87.182 78.669 C 100.138 73.037, 103.654 66, 93.512 66 C 90.697 66, 88.358 66.717, 86.560 68.132 M 159 72.726 C 158.175 73.039, 156.022 74.578, 154.215 76.147 C 152.409 77.716, 150.271 79, 149.465 79 C 147.600 79, 147.610 79.753, 149.500 81.643 C 150.428 82.570, 151 85.024, 151 88.071 C 151 92.240, 151.292 93, 152.893 93 C 155.215 93, 156 91.125, 156 85.573 C 156 80.420, 158.455 77.693, 162.662 78.175 C 165.473 78.497, 165.499 78.563, 165.354 85 C 165.273 88.575, 165.048 92.625, 164.854 94 C 164.557 96.094, 164.906 96.500, 167 96.500 C 169.196 96.500, 169.582 95.953, 170.176 92 C 172.310 77.789, 170.555 71.943, 164.193 72.079 C 162.162 72.122, 159.825 72.414, 159 72.726 M 85.514 114.629 C 84.618 115.525, 84.096 116.808, 84.355 117.481 C 85.197 119.678, 93.622 132.361, 98.316 138.500 C 100.839 141.800, 104.387 146.459, 106.202 148.853 C 108.016 151.247, 111.374 155.255, 113.665 157.759 C 115.955 160.263, 118.429 163.480, 119.162 164.906 C 119.894 166.333, 121.958 169.579, 123.747 172.119 C 125.536 174.660, 127 177.395, 127 178.198 C 127 179.001, 128.463 181.789, 130.250 184.394 C 132.037 187, 134.625 190.855, 136 192.962 C 137.375 195.069, 140.750 200.068, 143.500 204.072 C 151.967 216.398, 157.685 225.216, 161.610 232 C 163.678 235.575, 166.815 240.525, 168.581 243 C 170.347 245.475, 172.964 249.637, 174.396 252.250 C 181.225 264.706, 182.346 266.624, 184.109 268.866 C 185.149 270.188, 186 271.793, 186 272.432 C 186 274.257, 193.384 281, 195.382 281 C 197.126 281, 200.900 277.378, 200.967 275.639 C 200.985 275.166, 198.975 271.882, 196.500 268.341 C 194.025 264.801, 192 261.670, 192 261.383 C 192 261.097, 189.300 257.063, 186 252.420 C 182.700 247.776, 180 243.565, 180 243.060 C 180 242.556, 179.334 241.477, 178.521 240.664 C 177.708 239.850, 176.002 237.231, 174.731 234.842 C 173.460 232.454, 170.413 227.575, 167.960 224 C 165.507 220.425, 162.943 216.375, 162.262 215 C 161.581 213.625, 158.551 209.125, 155.530 205 C 152.509 200.875, 149.064 195.700, 147.874 193.500 C 144.924 188.045, 131.595 168.052, 123.500 156.939 C 120.750 153.164, 116.925 147.779, 115 144.973 C 113.075 142.167, 109.781 137.763, 107.679 135.186 C 105.578 132.609, 102.571 127.986, 100.998 124.913 C 97.877 118.820, 92.033 113, 89.037 113 C 87.995 113, 86.410 113.733, 85.514 114.629" stroke="none" fill="black" fill-rule="evenodd"/>
</svg>