<svg xmlns="http://www.w3.org/2000/svg" width="300" height="300" viewBox="0 0 300 300" version="1.1">
	<path d="M 161.500 17 C 159.039 19.569, 157.890 20, 153.504 20 C 147.986 20, 145.570 21.257, 144.565 24.650 C 143.744 27.423, 148.055 31, 152.220 31 L 155.171 31 152.585 35.626 C 151.163 38.170, 150 40.663, 150 41.166 C 150 41.669, 149.052 43.363, 147.893 44.930 C 146.199 47.222, 145.921 48.573, 146.472 51.832 C 147.463 57.699, 149.138 58.706, 153.560 56.097 C 157.759 53.620, 159 54.047, 159 57.966 C 159 62.630, 145.447 73.988, 139.872 73.996 C 136.357 74.001, 134.751 76.124, 135.591 79.654 C 136.968 85.438, 140.569 87.397, 144.441 84.468 C 145.509 83.661, 147.024 83, 147.809 83 C 148.594 83, 150.774 81.650, 152.653 80 C 156.552 76.576, 157.266 76.410, 159.015 78.518 C 159.942 79.635, 160.040 81.421, 159.388 85.268 L 158.500 90.500 151.559 94 C 145.953 96.826, 144.465 98.077, 143.825 100.500 C 143.389 102.150, 143.280 104.287, 143.583 105.250 C 144.332 107.626, 148.554 107.496, 151.727 105 C 153.126 103.900, 155.672 102.993, 157.385 102.984 C 159.098 102.975, 162.300 101.866, 164.500 100.521 C 166.700 99.176, 169.565 97.599, 170.868 97.018 C 172.170 96.436, 174.368 95.069, 175.753 93.980 C 177.137 92.891, 178.954 92, 179.790 92 C 182.147 92, 188 87.106, 188 85.136 C 188 84.167, 186.732 82.160, 185.183 80.675 C 182.892 78.481, 181.776 78.095, 179.206 78.609 C 177.467 78.957, 175.530 79.862, 174.900 80.621 C 174.270 81.379, 173.093 82, 172.284 82 C 170.255 82, 171.514 71.918, 173.720 70.500 C 178.660 67.326, 180.181 65.103, 179.509 62.043 C 178.774 58.693, 176.044 56.662, 173.560 57.615 C 171.136 58.546, 169 56.127, 169 52.452 C 169 49.618, 169.589 48.821, 173.159 46.825 C 178.577 43.797, 179.735 41.908, 178.217 38.578 C 177.271 36.500, 176.342 36, 173.429 36 C 171.330 36, 168.750 36.838, 167.273 38 C 164.581 40.118, 162 40.633, 162 39.053 C 162 38.532, 164.137 35.267, 166.750 31.798 C 175.953 19.577, 176.482 18.151, 172.777 15.557 C 169.167 13.028, 164.766 13.591, 161.500 17 M 76.829 61.687 C 76.152 63.314, 75.736 68.683, 75.842 74.424 C 75.942 79.882, 75.764 85.169, 75.445 86.172 C 75.127 87.175, 72.821 89.403, 70.320 91.124 C 66.678 93.630, 65.600 93.978, 64.902 92.876 C 63.759 91.071, 63.783 90.252, 65 89.500 C 66.484 88.583, 66.148 80.330, 64.347 73.500 C 63.477 70.200, 62.706 65.925, 62.633 64 C 62.501 60.539, 62.450 60.500, 58.004 60.500 L 53.509 60.500 52.591 64.853 C 51.942 67.927, 52.044 70.232, 52.937 72.702 C 53.775 75.021, 54.171 81.609, 54.111 92.259 C 54.038 105.374, 53.733 108.638, 52.448 110.057 C 50.244 112.493, 50.826 120.355, 53.244 120.814 C 56.152 121.365, 60.722 117.368, 61.310 113.761 C 62.736 105.003, 63.447 103.593, 66.778 102.912 C 68.543 102.551, 70.685 101.677, 71.536 100.970 C 72.487 100.181, 73.442 100.042, 74.012 100.612 C 74.522 101.122, 75.244 108.983, 75.617 118.081 L 76.295 134.623 73.746 136.562 C 72.344 137.628, 69.915 139.275, 68.348 140.222 C 66.782 141.169, 63.427 143.419, 60.894 145.222 C 53.925 150.182, 47.407 154.095, 39.055 158.334 C 34.900 160.443, 30.600 162.964, 29.500 163.935 C 28.400 164.907, 26.818 165.940, 25.984 166.230 C 25.150 166.520, 23.863 167.887, 23.125 169.266 C 21.999 171.370, 22.003 172.234, 23.149 174.625 C 25.577 179.691, 26.336 179.411, 41.276 167.937 C 42.802 166.765, 44.737 166.069, 45.575 166.390 C 47.122 166.984, 59.261 159.104, 68.064 151.791 C 70.575 149.706, 73.162 148, 73.814 148 C 75.272 148, 75.419 175.581, 74.039 190 C 72.782 203.134, 71.572 246.157, 72.370 249.337 C 73.358 253.273, 76.493 254.550, 79.132 252.092 C 81.079 250.278, 81.290 248.858, 81.627 235.305 C 81.829 227.162, 82.260 213.975, 82.583 206 C 82.907 198.025, 83.289 187.675, 83.433 183 C 84.044 163.165, 85.313 148.361, 86.621 145.800 C 87.379 144.314, 88 141.893, 88 140.418 C 88 137.317, 92.832 132.316, 100.221 127.769 C 105.949 124.245, 109 120.230, 109 116.218 C 109 113.540, 106.652 110.124, 105.487 111.107 C 100.705 115.149, 96.160 119.240, 93.109 122.250 C 90.943 124.386, 88.321 126, 87.016 126 C 84.815 126, 84.751 125.773, 85.399 120.263 C 85.770 117.108, 86.507 114.093, 87.037 113.563 C 87.566 113.034, 88 107.943, 88 102.250 L 88 91.901 91.500 88.297 C 93.425 86.315, 95 84.292, 95 83.801 C 95 82.131, 90.098 78, 88.117 78 C 86.093 78, 85.475 75.339, 84.746 63.500 C 84.517 59.778, 84.274 59.478, 81.249 59.187 C 78.492 58.921, 77.821 59.300, 76.829 61.687 M 208.015 91.985 C 204.260 95.740, 206.322 102.117, 211.727 103.461 C 213.252 103.840, 216.377 106.254, 218.671 108.825 L 222.842 113.500 224.864 111.500 C 226.698 109.687, 226.775 109.087, 225.693 105.085 C 224.295 99.909, 216.939 91.699, 212.765 90.654 C 210.728 90.144, 209.517 90.483, 208.015 91.985 M 189 105 C 188.411 106.100, 187.412 107, 186.779 107 C 186.147 107, 184.594 107.973, 183.328 109.161 L 181.028 111.322 178.562 108.661 C 173.819 103.544, 169.337 106.231, 168.815 114.503 C 168.507 119.376, 168.373 119.568, 163.044 122.746 C 155.918 126.996, 153.536 127.068, 154.349 123.006 C 154.840 120.550, 154.208 119.024, 150.830 114.506 C 146.282 108.424, 145.002 108.030, 137.925 110.526 C 132.061 112.595, 130 114.677, 130 118.533 C 130 123.447, 132.171 124.678, 137 122.500 C 141.889 120.296, 144 121.559, 144 126.688 C 144 132.886, 141.584 135.069, 131.500 137.983 C 129.300 138.619, 126.600 139.538, 125.500 140.025 C 118.741 143.018, 115.267 144, 111.443 144 C 104.815 144, 102 145.424, 102 148.775 C 102 150.329, 101.490 152.110, 100.867 152.733 C 97.417 156.183, 104.393 158.412, 110.703 155.875 C 112.241 155.257, 114.400 154.410, 115.500 153.993 C 116.600 153.576, 122.450 151.340, 128.500 149.023 C 143.299 143.358, 143.427 143.360, 143.805 149.250 C 144.129 154.310, 142.576 155.603, 139.959 152.450 C 139.097 151.412, 137.361 151, 134.691 151.200 C 131.250 151.459, 130.031 152.279, 125.709 157.237 C 121.529 162.034, 120.633 163.767, 120.245 167.804 C 119.857 171.838, 120.170 173.085, 122.140 175.372 C 124.462 178.067, 124.560 178.086, 128.218 176.556 C 136.354 173.151, 138.505 176.049, 133 183 C 131.350 185.083, 129.991 187.173, 129.980 187.644 C 129.969 188.115, 127.719 191.365, 124.980 194.868 C 120.967 199.999, 120 201.985, 120 205.095 C 120 208.108, 120.548 209.313, 122.500 210.592 C 124.804 212.101, 125.193 212.103, 127.465 210.615 C 128.820 209.727, 130.565 209, 131.342 209 C 132.119 209, 133.283 208.364, 133.928 207.586 C 135.491 205.703, 143.469 202, 145.963 202 C 147.164 202, 148.571 203.203, 149.523 205.044 C 151.172 208.233, 150.797 210.574, 147.346 218.651 C 146.606 220.384, 145.993 222.409, 145.985 223.151 C 145.917 229.269, 135.971 246, 132.402 246 C 130.477 246, 126.809 241.003, 123 233.190 C 121.075 229.242, 119.038 226.009, 118.473 226.006 C 116.022 225.992, 113 229.239, 113 231.885 C 113 235.802, 120.104 246.557, 127.768 254.243 C 134.205 260.699, 139.213 259.002, 146.191 248 C 149.492 242.796, 151.277 238.730, 156.171 225.266 C 157.324 222.095, 158.770 218.417, 159.384 217.093 C 160.994 213.621, 160.730 201.083, 158.972 197.500 C 158.151 195.827, 155.803 193.671, 153.663 192.626 C 150.349 191.008, 148.985 190.890, 143.663 191.761 C 140.273 192.316, 137.287 192.571, 137.027 192.328 C 136.766 192.085, 138.454 190.078, 140.777 187.868 C 143.149 185.610, 145 182.921, 145 181.730 C 145 180.563, 146.155 178.404, 147.566 176.931 C 149.753 174.649, 150.258 172.909, 150.985 165.162 C 151.454 160.163, 152.126 155.606, 152.478 155.036 C 153.514 153.359, 156.550 153.845, 158.500 156 C 159.495 157.100, 160.906 158, 161.635 158 C 163.058 158, 167 151.067, 167 148.563 C 167 146.184, 162 143.507, 157.549 143.504 C 151.702 143.498, 151.981 140.470, 158.195 136.500 C 169.038 129.572, 171.843 128, 173.359 128 C 175.151 128, 179 134.806, 179 137.974 C 179 139.103, 179.419 140.809, 179.932 141.764 C 181.141 144.017, 186 159.357, 186 160.922 C 186 162.032, 189.886 171.208, 192.062 175.236 C 192.578 176.191, 193 177.711, 193 178.612 C 193 179.514, 194.583 184.208, 196.517 189.042 C 200.767 199.665, 201.252 198.067, 187.723 218 C 167.797 247.359, 145.014 275.579, 128.627 291.200 L 119.500 299.900 126.706 299.950 L 133.913 300 142.835 290.750 C 151.449 281.820, 156.608 276.016, 164 266.940 C 165.925 264.577, 169.075 260.760, 171 258.460 C 172.925 256.159, 177.425 250.347, 181 245.545 C 184.575 240.744, 188.175 236.063, 189 235.144 C 189.825 234.225, 191.033 232.285, 191.684 230.834 C 192.335 229.384, 194.868 225.565, 197.313 222.348 C 199.759 219.132, 201.931 215.600, 202.140 214.500 C 202.349 213.400, 203.416 212.386, 204.510 212.246 C 206.126 212.041, 207.491 214.012, 211.780 222.746 C 214.684 228.661, 217.047 234.039, 217.030 234.698 C 217.014 235.356, 218.969 239.856, 221.375 244.698 C 223.782 249.539, 227.031 256.425, 228.596 260 C 233.759 271.797, 240.699 281.552, 250.305 290.516 C 258.251 297.931, 259.854 299, 263.024 299 C 265.558 299, 267.330 298.278, 268.902 296.605 C 270.910 294.467, 271.037 293.795, 270.081 290.355 C 269.493 288.235, 269.009 284.834, 269.006 282.799 C 269 279.404, 267.827 274.110, 265.061 265.007 C 264.478 263.085, 264 259.812, 264 257.732 C 264 254.557, 263.573 253.788, 261.337 252.938 C 257.343 251.419, 256.696 252.851, 257.391 261.664 C 258.645 277.554, 258.858 285, 258.058 285 C 257.607 285, 255.992 283.313, 254.469 281.250 C 252.947 279.188, 251.206 277.050, 250.601 276.500 C 248.312 274.421, 239.184 261.152, 238.476 258.876 C 238.070 257.569, 236.897 255.306, 235.869 253.846 C 234.841 252.386, 234 250.655, 234 250 C 234 249.345, 233.372 247.614, 232.605 246.154 C 231.838 244.694, 229.961 240.350, 228.434 236.500 C 226.907 232.650, 224.835 228.306, 223.829 226.846 C 222.823 225.386, 222.002 223.811, 222.004 223.346 C 222.008 222.614, 217.971 213.843, 213.408 204.669 C 212.634 203.112, 212 201.083, 212 200.160 C 212 198.277, 224.884 172.375, 227.993 168.009 C 229.097 166.459, 230 164.197, 230 162.982 C 230 161.767, 230.855 159.136, 231.901 157.136 C 236.759 147.841, 241.006 136.567, 240.986 133.014 C 240.963 128.719, 239.864 126.092, 237.820 125.443 C 235.552 124.723, 232 127.455, 232 129.920 C 232 130.805, 231.078 133.251, 229.950 135.354 C 228.823 137.457, 227.010 141.501, 225.923 144.339 C 224.835 147.178, 223.556 150.400, 223.080 151.500 C 222.604 152.600, 220.506 157.550, 218.417 162.500 C 216.328 167.450, 214.029 172.210, 213.309 173.079 C 212.589 173.947, 212.004 175.072, 212.009 175.579 C 212.013 176.085, 211.007 178.637, 209.772 181.250 C 207.483 186.095, 205 187.557, 205 184.059 C 205 182.991, 204.550 181.840, 204 181.500 C 203.450 181.160, 203 180.231, 203 179.436 C 203 178.641, 201.863 175.633, 200.473 172.752 C 199.083 169.872, 197.492 165.711, 196.936 163.507 C 196.380 161.303, 195.314 157.925, 194.567 156 C 193.819 154.075, 192.437 149.575, 191.494 146 C 189.629 138.931, 189.259 137.889, 186.044 130.642 C 182.631 122.951, 183.353 121.048, 191.087 117.352 C 196.117 114.947, 197.981 113.461, 198.974 111.062 C 200.161 108.198, 200.072 107.705, 197.963 105.461 C 195.090 102.403, 190.516 102.167, 189 105" stroke="none" fill="black" fill-rule="evenodd"/>
</svg>