<svg xmlns="http://www.w3.org/2000/svg" width="300" height="300" viewBox="0 0 300 300" version="1.1">
	<path d="M 141.155 50.985 C 139.288 54.055, 134.274 58.163, 130.182 59.976 C 124.346 62.560, 113 73.191, 113 76.074 C 113 77.040, 114.306 79.063, 115.902 80.569 L 118.803 83.308 118.524 97.404 C 118.371 105.157, 117.959 120.725, 117.609 132 C 117.260 143.275, 116.703 161.978, 116.372 173.561 L 115.771 194.623 118.136 197.293 C 119.659 199.014, 121.946 200.183, 124.566 200.581 C 128.416 201.164, 128.868 200.950, 133.066 196.554 C 137.601 191.807, 148.532 172.314, 150.201 166 C 152.888 155.836, 153.185 153.785, 152.126 152.726 C 150.403 151.003, 147.278 154.579, 143.328 162.790 C 141.381 166.839, 137.585 172.798, 134.894 176.032 C 132.202 179.266, 130 182.327, 130 182.834 C 130 184.167, 127.068 186.401, 126.311 185.644 C 125.808 185.142, 125.571 156.709, 125.936 140.719 C 125.976 138.990, 126.662 137.724, 127.750 137.373 C 133.100 135.649, 142.311 130.320, 143.001 128.549 C 144.093 125.744, 149.619 120.647, 150.786 121.368 C 151.308 121.690, 151.962 123.877, 152.239 126.227 C 152.760 130.634, 157.239 141.411, 159.003 142.502 C 159.551 142.841, 160 143.979, 160 145.032 C 160 146.085, 160.867 148.871, 161.928 151.223 C 162.988 153.575, 165.757 160.225, 168.082 166 C 170.406 171.775, 172.689 176.928, 173.154 177.450 C 173.619 177.973, 174 179.199, 174 180.175 C 174 181.151, 175.575 184.867, 177.500 188.432 C 179.425 191.997, 181 195.454, 181 196.113 C 181 196.772, 182.125 198.786, 183.500 200.589 C 184.875 202.392, 186 204.312, 186 204.857 C 186 205.401, 187.238 207.311, 188.750 209.100 C 190.262 210.889, 193.075 214.928, 195 218.074 C 199.282 225.073, 210.449 237.690, 213.108 238.534 C 215.679 239.350, 223.967 235.304, 224.115 233.161 C 224.178 232.247, 224.311 228.568, 224.410 224.985 C 224.510 221.402, 224.867 218.025, 225.203 217.480 C 225.540 216.936, 226.089 210.084, 226.424 202.253 C 226.916 190.756, 226.741 187.316, 225.517 184.385 C 224.682 182.389, 224 179.905, 224 178.864 C 224 177.824, 223.480 175.966, 222.845 174.736 C 222.209 173.506, 221.373 171.825, 220.986 171 C 220.599 170.175, 219.206 169.500, 217.891 169.500 C 215.165 169.500, 215.178 169.118, 217.504 181.134 C 219.154 189.662, 219.143 189.950, 216.587 204.870 C 215.164 213.177, 214 220.429, 214 220.987 C 214 221.544, 213.115 222, 212.032 222 C 210.800 222, 208.468 219.853, 205.788 216.250 C 203.436 213.088, 201.223 210.275, 200.872 210 C 200.116 209.410, 196.999 204.013, 192.207 195 C 190.306 191.425, 188.132 187.790, 187.375 186.921 C 186.619 186.053, 186 184.710, 186 183.937 C 186 183.164, 184.795 180.050, 183.323 177.016 C 181.850 173.982, 180.220 170.375, 179.701 169 C 179.181 167.625, 178.136 165.306, 177.378 163.846 C 176.620 162.386, 176 160.538, 176 159.739 C 176 158.940, 173.975 154.156, 171.500 149.109 C 169.025 144.061, 167 139.287, 167 138.500 C 167 137.712, 166.263 135.365, 165.361 133.284 C 161.807 125.076, 160.247 120.326, 159.507 115.453 C 159.006 112.154, 159.272 111.064, 160.946 109.548 C 162.076 108.526, 163 107.081, 163 106.336 C 163 105.591, 164.350 103.569, 166 101.843 C 170.517 97.116, 169.849 90, 164.889 90 C 163.859 90, 162.338 91.737, 161.064 94.368 C 158.722 99.207, 155.616 102.499, 154.213 101.632 C 153.711 101.321, 153.003 96.890, 152.641 91.784 C 151.459 75.144, 148.444 68.128, 144.269 72.303 C 141.048 75.524, 142.345 98.403, 146.215 106.641 C 147.578 109.541, 146.681 110.853, 138.490 117.943 C 133.486 122.274, 130.694 123.994, 128.662 123.997 L 125.824 124 126.537 110.250 C 126.929 102.688, 127.339 93.125, 127.448 89 C 127.734 78.239, 129.928 72, 133.427 72 C 134.042 72, 136.109 70.724, 138.022 69.164 C 139.935 67.604, 143.581 65.120, 146.124 63.643 C 150.136 61.313, 157 55.634, 157 54.645 C 157 54.459, 156.292 52.888, 155.427 51.154 C 153.951 48.195, 153.518 48, 148.412 48 C 143.444 48, 142.813 48.260, 141.155 50.985 M 65.599 51.809 C 64.527 53.882, 64.038 58.201, 63.931 66.543 L 63.780 78.344 59.890 84.044 C 54.400 92.087, 54.840 95, 61.547 95 C 65.175 95, 66 97.823, 66 110.231 L 66 121.594 62.250 125.103 C 60.188 127.033, 56.250 130.371, 53.500 132.522 C 50.750 134.673, 48.275 136.687, 48 137 C 47.476 137.595, 32.126 149.625, 19.931 159 C 15.996 162.025, 11.251 165.519, 9.388 166.765 C 4.865 169.788, 4.707 173.805, 9.012 176.348 C 13.015 178.713, 14.883 177.965, 21.929 171.177 C 28.803 164.555, 31.998 162.007, 33.453 161.983 C 34.029 161.973, 35.477 160.934, 36.672 159.673 C 37.867 158.412, 40.792 156.057, 43.172 154.440 C 45.552 152.823, 47.992 151.050, 48.593 150.500 C 59.957 140.104, 65.407 135.500, 66.346 135.500 C 67.195 135.500, 67.500 144.238, 67.500 168.500 C 67.500 200.777, 66.938 208.117, 63.875 215.861 C 63.191 217.592, 63.417 219.195, 64.721 221.861 C 66.326 225.143, 66.892 225.500, 70.500 225.500 L 74.500 225.500 74.640 215.832 C 74.717 210.515, 75.126 205.604, 75.549 204.920 C 76.640 203.156, 77.074 190.981, 77.302 155.856 C 77.523 121.601, 77.232 122.995, 85 118.977 C 89.447 116.677, 97 109.398, 97 107.413 C 97 105.434, 94.177 100, 93.149 100 C 92.709 100, 91.258 101.188, 89.924 102.641 C 87.197 105.612, 79.191 111, 77.504 111 C 75.838 111, 73.834 91.179, 75.235 88.560 C 75.839 87.431, 79.409 83.378, 83.167 79.552 C 90.530 72.056, 91.545 69.196, 87.777 66.557 C 84.773 64.452, 81.780 64.599, 78.727 67 C 74.585 70.259, 74.001 69.613, 73.985 61.750 C 73.969 53.608, 72.487 49.649, 69.283 49.188 C 67.727 48.964, 66.688 49.703, 65.599 51.809 M 42.281 56.186 C 41.518 57.122, 41.573 60.804, 42.473 69 C 43.167 75.325, 43.563 80.805, 43.353 81.178 C 43.143 81.551, 42.705 87.401, 42.380 94.178 C 42.056 100.955, 41.444 106.950, 41.021 107.500 C 40.598 108.050, 39.934 110.695, 39.546 113.378 C 39.157 116.061, 38.624 118.815, 38.362 119.499 C 37.778 121.021, 40.806 124.238, 42.081 123.450 C 42.586 123.138, 43 122.096, 43 121.135 C 43 120.175, 44.077 117.928, 45.394 116.144 C 46.711 114.359, 48.087 110.907, 48.452 108.473 C 48.817 106.038, 49.476 103.824, 49.917 103.551 C 50.357 103.279, 51.008 100.006, 51.362 96.278 C 51.717 92.550, 52.523 85.675, 53.153 81 C 54.695 69.561, 53.624 59.448, 50.667 57.536 C 47.227 55.312, 43.484 54.709, 42.281 56.186 M 163.298 203.404 C 161.538 204.045, 159.775 204.892, 159.382 205.285 C 158.988 205.678, 157.970 206, 157.118 206 C 155.813 206, 145.011 211.111, 136.458 215.776 C 133.100 217.608, 132.521 220.502, 134.756 224.277 C 137.098 228.233, 139.193 228.068, 144 223.550 C 146.436 221.260, 149.564 219.716, 154.289 218.471 C 158.023 217.487, 161.312 216.303, 161.598 215.841 C 161.884 215.378, 162.896 215, 163.848 215 C 165.769 215, 172.291 211.900, 172.870 210.711 C 173.867 208.667, 171.911 204.281, 169.516 203.189 C 168.080 202.535, 166.815 202.054, 166.703 202.119 C 166.591 202.185, 165.059 202.763, 163.298 203.404" stroke="none" fill="black" fill-rule="evenodd"/>
</svg>