<svg xmlns="http://www.w3.org/2000/svg" width="300" height="300" viewBox="0 0 300 300" version="1.1">
	<path d="M 71.282 45.163 C 68.614 47.830, 59.496 48.862, 55.011 47.005 C 50.583 45.171, 47.271 47.538, 47.441 52.416 C 47.610 57.307, 49.692 59.010, 56.342 59.696 C 59.454 60.017, 62 60.461, 62 60.683 C 62 60.904, 60.425 64.003, 58.500 67.568 C 56.575 71.133, 55 74.469, 55 74.981 C 55 75.492, 53.200 78.481, 51 81.621 C 46.272 88.370, 45.816 92.513, 49.349 96.620 L 51.699 99.351 55.099 96.981 C 56.970 95.677, 60.062 93.123, 61.971 91.305 C 63.880 89.487, 66.216 88, 67.162 88 C 68.108 88, 69.139 87.585, 69.452 87.077 C 69.766 86.569, 71.362 85.860, 72.999 85.500 C 76.229 84.791, 80 80.761, 80 78.020 C 80 75.625, 76.802 72.996, 73.921 73.022 C 72.590 73.034, 70.375 73.924, 69 75 C 66.602 76.876, 64 77.622, 64 76.434 C 64 75.064, 66.649 71.030, 71.508 65 C 74.388 61.425, 77.448 57.117, 78.307 55.427 C 79.165 53.737, 80.573 51.770, 81.434 51.055 C 83.585 49.269, 83.397 47.447, 80.811 45.039 C 77.970 42.392, 74.001 42.444, 71.282 45.163 M 187.667 51.667 C 185.452 53.881, 189.449 63.641, 195.468 70.714 C 197.240 72.796, 199.904 76.434, 201.388 78.798 C 204.473 83.713, 206.351 84.783, 208.608 82.910 C 209.798 81.923, 210.032 80.603, 209.552 77.598 C 209.200 75.399, 208.542 73.127, 208.089 72.550 C 207.209 71.429, 201.540 61.306, 199.245 56.758 C 198.484 55.250, 196.893 53.338, 195.708 52.508 C 193.501 50.962, 188.857 50.476, 187.667 51.667 M 137.230 57.250 C 135.678 59.163, 135.884 66.946, 137.630 72.300 C 139.872 79.180, 138.967 98.806, 136.316 100.789 C 135.317 101.536, 128.976 104.848, 122.224 108.149 C 108.775 114.724, 106.020 117.301, 107.603 121.827 C 108.893 125.519, 112.731 125.801, 117.515 122.554 C 119.585 121.149, 121.822 120, 122.485 120 C 123.148 120, 124.505 119.100, 125.500 118 C 126.495 116.900, 127.947 116, 128.726 116 C 129.505 116, 130.840 115.303, 131.693 114.450 C 132.545 113.598, 133.976 113.051, 134.871 113.236 C 136.641 113.600, 136.694 116.358, 135.069 123.500 C 134.569 125.700, 133.377 132.225, 132.422 138 C 131.466 143.775, 130.306 148.928, 129.842 149.450 C 129.379 149.973, 129 151.283, 129 152.362 C 129 153.441, 128.283 156.839, 127.407 159.912 C 125.512 166.560, 124.722 169.686, 122.021 181.219 C 120.898 186.014, 118.890 192.989, 117.559 196.719 C 116.227 200.448, 114.826 205.220, 114.444 207.321 C 114.063 209.423, 112.634 212.470, 111.270 214.092 C 109.250 216.492, 109.017 217.315, 110.017 218.520 C 111.691 220.538, 116.342 220.386, 118.267 218.250 C 119.134 217.287, 120.178 215.150, 120.587 213.500 C 120.995 211.850, 122.120 209.375, 123.086 208 C 124.053 206.625, 125.355 202.125, 125.980 198 C 126.605 193.875, 127.540 189.488, 128.058 188.250 C 128.576 187.012, 129.426 184.988, 129.946 183.750 C 130.467 182.512, 131.643 178.800, 132.561 175.500 C 138.805 153.042, 139.155 151.996, 140.410 152.023 C 141.010 152.036, 146.450 156.834, 152.500 162.686 C 158.550 168.537, 166.867 176.514, 170.982 180.412 C 175.097 184.311, 181.779 191.325, 185.831 196 C 189.883 200.675, 194.841 206.105, 196.849 208.066 C 198.857 210.027, 203.165 215.120, 206.422 219.383 C 209.679 223.646, 215.888 231.042, 220.219 235.817 C 234.817 251.913, 237.988 255.538, 239.652 258.024 C 244.284 264.947, 249.602 271.253, 253.510 274.454 L 257.863 278.022 260.658 275.618 C 263.294 273.350, 263.370 273.061, 262.006 270.510 C 261.210 269.023, 258.370 265.263, 255.695 262.153 C 246.373 251.318, 239.456 243.171, 233 235.421 C 229.425 231.129, 223.774 224.666, 220.443 221.059 C 217.112 217.452, 213.684 213.375, 212.826 212 C 210.609 208.447, 197.186 194.031, 179.307 176 C 153.996 150.473, 150.189 146.971, 145.494 144.894 C 140.734 142.789, 140.306 141.816, 142.159 137.315 C 142.796 135.767, 143.657 132.025, 144.071 129 C 145.598 117.842, 146.357 114.500, 147.663 113.194 C 148.398 112.459, 149.016 110.652, 149.035 109.179 C 149.086 105.331, 150.617 103.174, 158.600 95.694 C 168.431 86.482, 171.307 82.151, 170.488 77.788 C 169.499 72.516, 168.752 71.764, 165.667 72.936 C 164.200 73.494, 163 74.675, 163 75.560 C 163 77.498, 154.437 88.618, 152.319 89.431 C 149.550 90.493, 149 88.927, 149 79.986 C 149 73.070, 148.459 69.602, 146.571 64.398 C 145.234 60.717, 143.547 57.329, 142.821 56.868 C 140.894 55.646, 138.393 55.817, 137.230 57.250 M 61.353 104.523 C 61.031 105.361, 61.298 107.948, 61.944 110.273 C 64.559 119.671, 64.953 121.671, 64.976 125.639 C 65.003 130.349, 62.225 134.684, 59.781 133.746 C 58.739 133.346, 58.030 131.109, 57.563 126.742 C 56.415 116.024, 54.769 111.037, 51.780 109.223 C 49.281 107.707, 48.967 107.720, 47.098 109.411 C 44.902 111.399, 44.869 110.841, 48.105 126.909 C 50.682 139.703, 50.618 140.246, 46.024 144.599 C 41.482 148.903, 38 155.582, 38 159.989 C 38 161.930, 37.493 163, 36.573 163 C 35.007 163, 29 153.214, 29 150.663 C 29 149.787, 27.583 147.456, 25.851 145.483 C 23.497 142.802, 22.044 141.972, 20.101 142.198 C 17.765 142.469, 17.507 142.912, 17.571 146.537 C 17.609 148.758, 18.339 151.908, 19.191 153.537 C 20.044 155.167, 22.327 159.480, 24.266 163.122 C 26.205 166.765, 28.975 173.290, 30.421 177.622 C 31.868 181.955, 33.554 186.383, 34.167 187.463 C 34.781 188.542, 35.459 192.367, 35.675 195.963 C 36.317 206.654, 37.076 209.970, 39.133 211.071 C 40.183 211.633, 41.485 211.818, 42.028 211.483 C 43.681 210.461, 46.178 204.905, 45.628 203.472 C 45.343 202.731, 44.136 196.584, 42.944 189.812 C 41.752 183.041, 40.169 176.021, 39.425 174.214 C 38.201 171.242, 38.260 170.740, 40.036 168.964 C 41.116 167.884, 42 165.741, 42 164.203 C 42 160.931, 49.064 153.303, 50.991 154.494 C 52.361 155.341, 51.607 175.398, 49.993 181.024 C 48.548 186.065, 51.112 192, 54.736 192 C 56.303 192, 66.452 185.529, 69.242 182.750 C 70.209 181.787, 71.415 181, 71.923 181 C 72.431 181, 74.245 179.823, 75.954 178.385 C 79.267 175.598, 79.340 173.295, 76.227 169.750 C 73.860 167.055, 70.386 167.657, 66.132 171.500 C 59.648 177.357, 59.408 176.948, 59.821 160.750 C 60.088 150.292, 60.557 146.112, 61.585 145.043 C 63.725 142.817, 64.905 144.794, 65.641 151.837 C 66.165 156.856, 66.784 158.471, 68.782 160.043 C 71.760 162.386, 73.556 162.480, 77.364 160.494 C 78.940 159.672, 81.007 159, 81.959 159 C 82.911 159, 84.481 158.126, 85.448 157.058 C 86.835 155.525, 87.003 154.524, 86.246 152.308 C 85.347 149.677, 84.972 149.517, 80.282 149.767 L 75.276 150.033 74.622 145.267 C 74.094 141.420, 74.297 140.259, 75.675 139.250 C 78.487 137.191, 81.712 137.786, 83.815 140.750 C 89.526 148.800, 90 150.484, 90 162.729 C 90 175.484, 88.474 189.513, 86.490 195 C 85.455 197.860, 84.334 198.828, 80.362 200.293 C 77.575 201.321, 74.089 201.878, 72.194 201.597 C 69.692 201.227, 68.476 201.604, 67.194 203.149 C 66.262 204.272, 62.125 206.737, 58 208.628 C 47.491 213.447, 47.534 213.416, 47.193 216.258 C 46.827 219.295, 50.312 223, 53.534 223 C 54.720 223, 56.546 222.054, 57.593 220.898 C 59.844 218.410, 64.241 216, 66.529 216 C 67.425 216, 70.745 218.250, 73.907 221 C 77.068 223.750, 80.420 226, 81.354 226 C 84.019 226, 89.445 220.450, 90.853 216.283 C 91.557 214.202, 92.524 211.600, 93.002 210.500 C 94.498 207.059, 97.002 195.532, 98.252 186.331 C 100.104 172.697, 99.266 146.018, 96.908 143.550 C 96.409 143.028, 96 141.771, 96 140.758 C 96 139.745, 95.545 138.372, 94.989 137.708 C 94.433 137.044, 93.084 135.305, 91.991 133.845 C 90.007 131.193, 82.605 128, 78.444 128 C 75.365 128, 73.540 125.392, 73.264 120.596 C 72.768 111.974, 71.717 107.420, 69.721 105.250 C 67.328 102.648, 62.242 102.206, 61.353 104.523" stroke="none" fill="black" fill-rule="evenodd"/>
</svg>