<svg xmlns="http://www.w3.org/2000/svg" width="300" height="300" viewBox="0 0 300 300" version="1.1">
	<path d="M 182.250 20.662 C 181.521 20.956, 181 22.965, 181 25.480 C 181 29.165, 181.514 30.245, 184.535 32.896 C 186.479 34.603, 188.443 36, 188.899 36 C 189.356 36, 191.252 37.343, 193.114 38.984 C 196.969 42.381, 198.600 42.672, 201.104 40.406 C 203.306 38.413, 202.746 36.831, 197.600 30.500 C 190.265 21.475, 186.390 18.992, 182.250 20.662 M 145.222 28.250 C 144.660 28.938, 143.887 32.876, 143.506 37.002 C 142.945 43.059, 143.184 45.659, 144.748 50.502 C 145.812 53.801, 147.172 58.300, 147.769 60.500 C 148.366 62.700, 149.789 67.875, 150.931 72 C 152.072 76.125, 153.005 80.218, 153.003 81.095 C 152.997 84.153, 145.371 94.495, 140.983 97.395 C 132.934 102.717, 127 108.981, 127 112.158 C 127 114.281, 127.675 115.350, 129.553 116.206 C 132.733 117.655, 135.883 115.976, 143.344 108.854 C 150.026 102.475, 155.606 98.635, 157.268 99.272 C 157.995 99.551, 159.201 102.867, 159.948 106.640 C 160.696 110.413, 161.622 114.175, 162.007 115 C 165.098 121.633, 166.058 124.488, 167.535 131.441 C 168.462 135.808, 169.580 140.083, 170.018 140.941 C 170.456 141.798, 172.238 146.550, 173.978 151.500 C 175.718 156.450, 177.785 161.775, 178.572 163.334 C 179.359 164.892, 180.287 167.940, 180.633 170.106 C 180.979 172.272, 181.654 174.286, 182.131 174.581 C 182.609 174.876, 183 176.179, 183 177.476 C 183 178.772, 183.424 179.983, 183.943 180.167 C 184.462 180.350, 185.451 182.750, 186.142 185.500 C 186.833 188.250, 187.978 191.205, 188.687 192.066 C 189.396 192.927, 190.277 195.177, 190.644 197.066 C 191.011 198.955, 192.141 202.068, 193.156 203.985 C 194.170 205.902, 195 208.238, 195 209.176 C 195 210.114, 195.450 211.160, 196 211.500 C 196.550 211.840, 197 212.811, 197 213.658 C 197 214.505, 197.632 216.616, 198.404 218.349 C 199.176 220.082, 200.491 223.525, 201.327 226 C 203.365 232.039, 209.246 245.201, 211.324 248.372 C 212.246 249.779, 213 251.453, 213 252.092 C 213 254.807, 225.587 278.194, 229.678 283.079 C 230.405 283.947, 231 285.237, 231 285.944 C 231 288.039, 240.834 296.790, 244.577 298.025 C 247.507 298.992, 248.523 298.878, 251.266 297.274 L 254.500 295.382 254.348 284.941 C 254.188 273.979, 253.433 266.849, 252.076 263.500 C 251.049 260.964, 249.106 253.687, 248.072 248.500 C 246.911 242.680, 245.251 239.034, 243.448 238.342 C 240.004 237.020, 239.699 239.552, 241.897 251.178 C 244.408 264.463, 244.526 282.567, 242.107 283.506 C 241.341 283.804, 240.659 283.924, 240.591 283.774 C 240.524 283.623, 239.013 281.401, 237.234 278.837 C 235.456 276.272, 234 273.486, 234 272.646 C 234 271.805, 233.606 270.874, 233.124 270.577 C 231.956 269.855, 217 239.257, 217 237.588 C 217 237.294, 215.425 233.817, 213.500 229.861 C 211.575 225.906, 210 222.024, 210 221.236 C 210 220.447, 209.348 218.384, 208.550 216.651 C 207.753 214.918, 205.760 209.450, 204.120 204.500 C 199.713 191.196, 196.919 183.626, 195.999 182.500 C 195.550 181.950, 194.203 178.575, 193.007 175 C 191.811 171.425, 190.254 167.150, 189.548 165.500 C 188.841 163.850, 187.458 159.800, 186.473 156.500 C 182.820 144.256, 180.719 138.458, 179.378 136.921 C 178.620 136.053, 178 134.437, 178 133.330 C 178 132.223, 177.284 129.109, 176.410 126.409 C 175.535 123.709, 174.455 119.700, 174.010 117.500 C 173.564 115.300, 172.243 110.800, 171.072 107.500 C 165.003 90.388, 164.756 87.931, 168.513 81.980 C 169.894 79.791, 171.435 78, 171.935 78 C 172.435 78, 173.365 76.425, 174 74.499 C 174.636 72.574, 176.471 69.683, 178.078 68.076 C 179.685 66.469, 181 64.084, 181 62.777 C 181 61.470, 181.492 59.908, 182.093 59.307 C 183.841 57.559, 181.392 54, 178.440 54 C 176.713 54, 175.663 54.756, 175.012 56.470 C 174.495 57.828, 172.144 61.356, 169.786 64.310 C 167.429 67.264, 165.021 70.508, 164.436 71.519 C 163.022 73.963, 160.002 72.782, 159.992 69.781 C 159.988 68.527, 158.662 62.167, 157.045 55.650 C 155.429 49.132, 153.586 40.357, 152.949 36.150 C 152.313 31.942, 151.276 28.169, 150.646 27.765 C 148.886 26.637, 146.357 26.863, 145.222 28.250 M 100.534 78.946 C 100.212 79.466, 100.006 83.403, 100.074 87.696 C 100.143 91.988, 99.881 96.850, 99.493 98.500 C 98.220 103.902, 92.642 118.441, 90.801 121.154 C 89.810 122.614, 89 125.175, 89 126.845 C 89 128.515, 88.611 130.123, 88.135 130.417 C 86.728 131.286, 86.026 137.938, 87.055 140.646 C 88.144 143.510, 89.211 144.660, 93.725 147.833 C 96.995 150.133, 97.811 152.111, 99.769 162.500 C 101.337 170.819, 100.017 183.911, 97.391 186.090 C 94.007 188.899, 96.833 194.896, 101.576 194.968 C 105.664 195.031, 107.972 190.992, 108.746 182.419 C 109.641 172.505, 109.240 158.032, 107.905 152.078 C 106.786 147.083, 102.704 141, 100.472 141 C 99.688 141, 98.310 139.877, 97.411 138.504 C 95.438 135.494, 96.047 131.140, 99.491 123.637 C 105.213 111.168, 109 101.760, 109 100.011 C 109 98.970, 109.450 97.840, 110 97.500 C 111.664 96.472, 111.222 82.762, 109.443 80.223 C 107.822 77.907, 101.716 77.032, 100.534 78.946 M 63.228 85.039 C 61.978 85.541, 60.667 86.750, 60.315 87.726 C 58.214 93.544, 50.635 99, 44.653 99 C 41.477 99, 40.388 100.988, 41.958 103.922 C 43.391 106.599, 47.279 106.623, 54.740 104 C 57.870 102.900, 61.404 102, 62.593 102 C 65.685 102, 71.660 99.328, 72.301 97.659 C 73.211 95.287, 71.301 88.949, 68.909 86.403 C 66.411 83.744, 66.438 83.750, 63.228 85.039 M 54.862 110.750 C 51.196 115.180, 50.684 117.736, 51.295 128.537 C 51.656 134.902, 51.493 140.007, 50.887 141.318 C 50.332 142.518, 47.087 145.412, 43.677 147.750 C 38.851 151.057, 36.562 152, 33.360 152 C 28.419 152, 26.656 153.729, 27.595 157.654 C 28.502 161.444, 29.838 163, 32.187 163 C 34.893 163, 45.032 158.264, 47.771 155.721 C 49.862 153.779, 50.169 153.740, 51.659 155.230 C 53.035 156.607, 53.107 157.519, 52.138 161.366 C 51.512 163.852, 51 167.495, 51 169.463 C 51 174.282, 47.284 179.887, 41.060 184.456 C 33.598 189.934, 32.277 193.277, 36.075 197.075 C 39.085 200.085, 45.161 198.852, 51 194.047 C 53.475 192.010, 57.621 188.906, 60.213 187.149 C 62.805 185.392, 65.280 183.337, 65.713 182.581 C 66.146 181.825, 68.300 180.171, 70.500 178.905 C 78.052 174.561, 82.919 169.952, 83.977 166.144 C 85.285 161.434, 85.276 157.289, 83.956 156.473 C 82.892 155.815, 81.917 156.402, 74 162.463 C 68.709 166.515, 61.241 170.575, 60.480 169.814 C 60.187 169.520, 60.390 165.380, 60.932 160.613 C 61.473 155.846, 61.687 151.348, 61.407 150.617 C 60.535 148.345, 64.615 142.784, 72.462 135.553 C 76.608 131.731, 80 127.949, 80 127.147 C 80 124.779, 75.056 119, 73.031 119 C 72 119, 70.258 120.465, 69.144 122.267 C 66.306 126.859, 62.154 130.574, 61.129 129.437 C 60.281 128.496, 61.188 118.325, 62.469 114.399 C 63.861 110.136, 57.782 107.221, 54.862 110.750" stroke="none" fill="black" fill-rule="evenodd"/>
</svg>