<svg xmlns="http://www.w3.org/2000/svg" width="300" height="300" viewBox="0 0 300 300" version="1.1">
	<path d="M 157.500 25.396 C 152.763 27.476, 144.631 35.384, 142.033 40.436 C 140.727 42.975, 139.194 44.898, 138.627 44.709 C 138.060 44.520, 137.063 42.371, 136.411 39.933 C 134.414 32.467, 132.253 29.215, 128.785 28.453 C 126.372 27.923, 125.340 28.182, 124.323 29.573 C 122.607 31.919, 122.689 35.005, 124.532 37.441 C 125.339 38.509, 126 40.346, 126 41.524 C 126 42.703, 126.308 43.975, 126.685 44.352 C 128.538 46.204, 131.106 55.689, 132.413 65.500 C 133.384 72.795, 137.041 89.997, 138.127 92.380 C 139.308 94.972, 138.541 100.796, 135.884 109.424 C 135.388 111.032, 134.513 115.307, 133.938 118.924 C 132.192 129.906, 125.761 146.258, 120.303 153.594 C 119.036 155.296, 117.986 157.321, 117.968 158.094 C 117.933 159.634, 117.406 160.396, 111.500 167.447 C 107.031 172.782, 106.738 173.801, 109.226 175.371 C 113.255 177.912, 125.701 166.277, 131.500 154.546 C 133.265 150.975, 133.999 150.433, 137.755 149.932 C 141.808 149.391, 144.083 147.878, 150.790 141.260 C 155.125 136.983, 155.757 138.046, 155.882 149.827 C 156.009 161.836, 155.743 162.403, 148.018 166.606 C 146.103 167.648, 143.934 169.063, 143.197 169.750 C 142.460 170.437, 141.016 171, 139.988 171 C 138.959 171, 137.840 171.450, 137.500 172 C 137.160 172.550, 136.078 173, 135.096 173 C 134.114 173, 132.494 173.902, 131.496 175.004 C 129.994 176.664, 129.879 177.439, 130.827 179.519 C 131.456 180.900, 133.093 182.541, 134.464 183.166 C 136.589 184.134, 137.514 183.925, 140.729 181.751 C 142.803 180.348, 145.604 178.871, 146.953 178.468 C 148.303 178.066, 150.022 177.121, 150.775 176.368 C 151.527 175.616, 152.839 175, 153.689 175 C 155.010 175, 155.135 176.127, 154.544 182.750 C 153.847 190.577, 152.305 197.619, 150.867 199.552 C 150.436 200.131, 150.321 201.512, 150.611 202.622 C 151.433 205.762, 149.331 206.701, 137.500 208.479 C 114.506 211.934, 108.073 213.207, 106.986 214.517 C 106.368 215.261, 106.007 217.361, 106.182 219.185 C 106.685 224.422, 108.182 224.373, 143.500 217.944 C 146.800 217.343, 152.875 216.477, 157 216.019 C 161.125 215.561, 167.129 214.711, 170.343 214.131 C 178.065 212.735, 199.713 212.593, 208.500 213.880 C 212.350 214.444, 216.850 214.894, 218.500 214.881 C 220.150 214.867, 229.150 215.300, 238.500 215.842 C 255.714 216.841, 265.941 218.541, 268.174 220.774 C 270.266 222.866, 272.376 222.114, 275.723 218.082 C 278.942 214.204, 278.943 214.197, 277.040 211.779 C 274.428 208.457, 268.871 207.009, 256.770 206.497 C 245.102 206.003, 208.538 203.978, 202.500 203.491 C 193.233 202.743, 171.198 203.036, 167.500 203.957 C 160.936 205.591, 161.064 205.726, 161.641 197.750 C 161.930 193.762, 162.428 189.825, 162.747 189 C 163.377 187.371, 163.521 186.096, 164.283 175.375 C 164.831 167.673, 166.463 164.197, 171.500 160.001 C 183.499 150.006, 189.274 142.240, 186.865 139.338 C 184.735 136.771, 181.675 138.045, 174.458 144.505 C 169.607 148.847, 166.661 150.807, 165.601 150.400 C 164.727 150.065, 164.189 149.500, 164.405 149.145 C 164.622 148.790, 165.314 144.225, 165.943 139 L 167.087 129.500 172.793 123.651 C 175.932 120.434, 180.300 116.668, 182.500 115.281 C 187.972 111.830, 191.788 108.129, 193.589 104.526 C 195.048 101.606, 195.003 101.421, 192.300 99.255 C 188.900 96.529, 184.579 96.343, 182.807 98.845 C 180.356 102.306, 167.043 113.145, 166.020 112.512 C 164.710 111.703, 164.696 108.306, 166 107.500 C 167.410 106.628, 167.248 96.648, 165.800 95.200 C 165.140 94.540, 163.868 94, 162.974 94 C 160.919 94, 157 98.104, 157 100.255 C 157 101.150, 156.551 102.159, 156.003 102.498 C 155.387 102.879, 155.210 107.084, 155.540 113.502 C 156.050 123.433, 155.977 123.942, 153.887 125.061 C 152.684 125.704, 150.038 127.979, 148.005 130.115 C 145.973 132.252, 143.565 134, 142.655 134 C 140.635 134, 140.603 134.559, 143 128 C 144.100 124.991, 145 120.805, 145 118.698 C 145 116.592, 145.428 114.070, 145.950 113.093 C 146.473 112.117, 146.988 109.334, 147.096 106.909 C 147.344 101.302, 152.684 92.998, 157.525 90.689 C 161.656 88.719, 165.498 82.930, 166.462 77.222 C 166.854 74.906, 167.585 72.757, 168.087 72.446 C 168.589 72.136, 169 69.644, 169 66.909 C 169 64.174, 169.642 60.399, 170.427 58.522 C 171.426 56.128, 171.749 52.260, 171.505 45.587 C 171.112 34.868, 170.689 33.054, 167.341 27.750 C 164.755 23.652, 162.629 23.143, 157.500 25.396 M 154.705 39.392 C 149.833 44.677, 145 50.898, 145 51.885 C 145 52.459, 144.100 53.411, 143 54 C 141.412 54.850, 141 56.094, 141 60.035 C 141 66.481, 143.040 66.640, 148.759 60.639 C 152.521 56.692, 154.493 55.493, 160.386 53.573 C 162.080 53.021, 162.202 52.279, 161.587 46.273 C 160.621 36.840, 158.766 34.986, 154.705 39.392 M 79.400 57.765 C 77.539 59.008, 75.849 62.971, 72.930 72.935 C 68.909 86.662, 64.623 98.777, 63.329 100.071 C 62.509 100.891, 61.591 100.790, 59.857 99.688 C 58.561 98.864, 55.218 97.891, 52.430 97.526 C 48.427 97.002, 47.080 97.198, 46.033 98.460 C 44.904 99.820, 45.064 100.440, 47.103 102.620 C 48.421 104.029, 51.638 106.754, 54.250 108.676 C 56.862 110.598, 59 112.967, 59 113.941 C 59 115.567, 49.834 134.332, 45.499 141.582 C 43.598 144.761, 43.966 148.024, 46.219 147.968 C 49.091 147.898, 58.183 137.526, 62.509 129.385 C 66.009 122.799, 66.600 122.328, 68.840 124.355 C 71.019 126.328, 78 140.026, 78 142.330 C 78 143.184, 78.450 144.160, 79 144.500 C 79.550 144.840, 80 146.190, 80 147.500 C 80 148.810, 80.392 150.124, 80.870 150.420 C 81.349 150.716, 82.060 156.309, 82.450 162.850 C 83.052 172.935, 82.839 176.321, 81.045 185.122 C 78.569 197.269, 77.568 200, 75.590 200 C 73.779 200, 70.001 194.830, 69.996 192.346 C 69.994 191.331, 69.094 189.027, 67.996 187.226 C 65.764 183.564, 65.322 176.136, 67.135 172.748 C 68.104 170.938, 67.876 170.290, 65.579 168.314 C 61.031 164.402, 58.870 165.200, 53.137 172.909 C 50.312 176.709, 48 180.075, 48 180.389 C 48 180.704, 46.425 183.423, 44.500 186.433 C 42.575 189.442, 41 192.181, 41 192.519 C 41 192.857, 39.875 194.608, 38.500 196.411 C 37.125 198.214, 36 199.997, 36 200.373 C 36 201.296, 22.995 221.316, 18.553 227.231 C 13.376 234.124, 14.037 239, 20.149 239 C 23.175 239, 26.834 235.018, 29.387 228.946 C 30.184 227.051, 32.223 224.178, 33.918 222.563 C 35.613 220.948, 37 219.217, 37 218.717 C 37 218.218, 37.836 216.614, 38.857 215.154 C 39.878 213.694, 41.951 210.250, 43.463 207.500 C 44.976 204.750, 48.474 199.441, 51.237 195.702 C 56.519 188.555, 59.055 187.488, 60.009 192.012 C 61.091 197.148, 65.319 204.020, 69.505 207.451 C 74.697 211.705, 78.603 212.047, 82.694 208.604 C 87.477 204.580, 89.679 198.589, 91.582 184.426 C 94.452 163.070, 91.994 144.441, 84.505 130.801 C 82.603 127.335, 80.171 122.689, 79.101 120.475 C 78.031 118.262, 76.261 115.641, 75.168 114.652 C 72.316 112.071, 71.740 108.558, 73.483 104.386 C 74.317 102.389, 75.003 100.023, 75.006 99.128 C 75.010 98.233, 75.685 96.211, 76.506 94.636 C 77.328 93.060, 78 91.232, 78 90.574 C 78 89.915, 78.900 87.513, 80 85.236 C 81.100 82.959, 82 80.436, 82 79.629 C 82 78.822, 82.675 76.776, 83.500 75.081 C 84.325 73.386, 85.675 70.614, 86.500 68.919 C 88.304 65.214, 88.454 59.854, 86.800 58.200 C 85.474 56.874, 81.118 56.618, 79.400 57.765 M 153.032 69.087 C 149.576 72.648, 148.676 73.088, 146.033 72.507 L 143 71.841 143 79.421 C 143 84.821, 143.359 86.998, 144.250 86.993 C 144.938 86.989, 148.526 83.878, 152.224 80.081 C 157.605 74.555, 159.079 72.360, 159.602 69.088 C 160.478 63.612, 158.346 63.611, 153.032 69.087" stroke="none" fill="black" fill-rule="evenodd"/>
</svg>