<svg xmlns="http://www.w3.org/2000/svg" width="300" height="300" viewBox="0 0 300 300" version="1.1">
	<path d="M 162.443 9.110 C 161.223 11.470, 160.839 15.130, 160.852 24.298 C 160.864 32.705, 160.422 37.448, 159.397 39.900 C 158.588 41.838, 157.672 46.141, 157.362 49.462 C 157.034 52.974, 156.004 56.633, 154.899 58.210 C 153.855 59.700, 153 62.539, 153 64.518 C 153 67.063, 152.072 69.272, 149.833 72.059 C 146.382 76.353, 144 77.146, 144 74 C 144 72.900, 144.481 72, 145.070 72 C 147.276 72, 145.421 67.481, 142.676 66.169 C 138.553 64.199, 135.070 65.402, 134.341 69.047 C 134.011 70.694, 133.350 72.284, 132.871 72.580 C 132.392 72.876, 132 73.985, 132 75.044 C 132 76.103, 130.650 79.164, 129 81.846 C 127.350 84.527, 126 87.040, 126 87.430 C 126 87.820, 124.725 90.021, 123.167 92.320 C 121.609 94.619, 118.829 99.269, 116.989 102.654 C 113.696 108.713, 113.671 108.850, 115.415 111.510 L 117.185 114.213 120.487 111.013 C 125.590 106.067, 127.180 107.065, 129.247 116.514 C 131.002 124.540, 131.138 141.657, 129.513 150.070 C 129.057 152.430, 129.345 154.889, 130.361 157.320 C 131.645 160.394, 132.389 161, 134.882 161 C 136.847 161, 138.053 160.403, 138.416 159.250 C 139.564 155.599, 139.958 125.206, 138.950 118 C 138.373 113.875, 137.656 108.626, 137.356 106.336 C 137.018 103.745, 135.903 101.318, 134.406 99.912 C 131.408 97.095, 131.411 96.332, 134.432 91.886 C 135.769 89.918, 137.257 86.776, 137.739 84.904 C 138.429 82.227, 139.190 81.432, 141.308 81.184 C 143.442 80.933, 144 81.283, 144 82.875 C 144 83.979, 144.400 85.129, 144.889 85.432 C 147.018 86.747, 147.017 91.058, 144.888 93.938 C 143.037 96.441, 142.834 97.608, 143.453 102.177 C 143.849 105.105, 144.120 109.651, 144.053 112.279 C 143.904 118.209, 144.763 119.785, 149.640 122.529 C 154.161 125.074, 154.310 127.416, 150.284 132.694 C 148.012 135.674, 147.883 136.304, 149.001 139.002 C 150.074 141.593, 150.762 142, 154.062 142 C 156.163 142, 158.188 141.504, 158.563 140.898 C 158.938 140.292, 160.877 139.114, 162.872 138.280 C 166.603 136.722, 173.773 132.059, 177.750 128.605 C 180.618 126.115, 180.758 120.996, 178.026 118.523 C 176.306 116.967, 175.653 116.901, 172.970 118.012 C 168.185 119.994, 167.345 118.450, 168.750 110.250 C 169.482 105.977, 169.556 103.156, 168.953 102.553 C 167.362 100.962, 167.881 96.273, 170.081 92.356 C 171.739 89.403, 171.947 88.179, 171.102 86.325 C 170.520 85.046, 169.437 84, 168.696 84 C 167.955 84, 166.335 82.921, 165.097 81.603 L 162.845 79.206 165.422 75.123 C 168.441 70.341, 168.487 69.493, 165.942 65.500 C 164.890 63.850, 163.549 61.395, 162.962 60.045 C 161.654 57.039, 162.636 50.507, 164.706 48.436 C 166.529 46.614, 168.246 40.648, 168.131 36.539 C 168.033 33.081, 170.901 29.626, 176.067 26.976 C 178.029 25.969, 180.192 24.474, 180.874 23.651 C 182.866 21.251, 180.310 18.157, 176.039 17.798 C 172.690 17.516, 172.483 17.286, 172.176 13.500 C 171.564 5.937, 165.499 3.201, 162.443 9.110 M 136.508 19.985 C 135.475 21.983, 135.262 23.553, 135.865 24.735 C 139.947 32.728, 142.274 45.270, 140.886 51.791 C 139.714 57.302, 141.039 60, 144.920 60 C 150.950 60, 151.842 54.074, 149.059 32.500 C 147.789 22.653, 146.718 19.682, 143.930 18.265 C 140.103 16.320, 138.172 16.767, 136.508 19.985 M 127.988 45.154 C 125.274 46.804, 124.905 47.487, 125.483 49.789 C 126.309 53.080, 127.808 55, 129.550 55 C 131.326 55, 137.112 47.848, 136.773 46.072 C 136.287 43.528, 131.486 43.026, 127.988 45.154 M 78.200 55.200 C 77.540 55.860, 77 57.110, 77 57.977 C 77 58.845, 76.387 60.443, 75.637 61.527 C 74.345 63.398, 73.657 65.987, 72.322 74 C 72.001 75.925, 71.123 78.388, 70.370 79.473 C 69.616 80.557, 69 82.097, 69 82.895 C 69 85.249, 65.596 91.946, 64.385 91.974 C 63.772 91.988, 62.072 91.058, 60.609 89.907 C 58.413 88.180, 57.314 87.964, 54.324 88.671 C 49.689 89.767, 48.209 91.968, 49.783 95.422 C 50.429 96.840, 51.754 98.002, 52.729 98.005 C 53.703 98.008, 55.850 99.096, 57.500 100.424 L 60.500 102.839 58.615 106.669 C 57.579 108.776, 56.150 111.850, 55.439 113.500 C 54.729 115.150, 53.380 118.269, 52.441 120.432 C 51.502 122.595, 49.443 126.552, 47.867 129.226 C 44.703 134.592, 44.633 134.871, 45.939 136.935 C 46.675 138.099, 47.667 137.664, 51.174 134.643 C 58.074 128.698, 58.417 128.320, 60.089 124.823 C 65.716 113.056, 67.480 110, 68.643 110 C 69.364 110, 70.704 111.237, 71.620 112.750 C 72.537 114.263, 74.198 116.822, 75.312 118.437 C 77.690 121.886, 79.943 133.826, 80.608 146.500 C 80.867 151.450, 81.509 157.075, 82.034 159 C 83.604 164.756, 83.133 175.344, 80.913 184.187 C 79.765 188.759, 78.586 193.519, 78.294 194.765 C 77.583 197.788, 76.487 198.321, 74.075 196.815 C 72.039 195.543, 70.731 191.483, 68.833 180.547 C 67.919 175.276, 68.049 173.993, 69.976 169.345 C 72.654 162.883, 72.332 160.023, 68.701 158.033 C 65.975 156.539, 65.828 156.590, 62.978 160 C 61.370 161.925, 60.042 163.974, 60.027 164.553 C 60.012 165.132, 58.700 167.382, 57.111 169.553 C 55.523 171.724, 52.771 176.200, 50.997 179.500 C 43.250 193.912, 27.470 213.318, 20.077 217.527 C 15.291 220.252, 15.114 222.290, 19.433 224.959 C 23.776 227.643, 25.800 227.107, 30.172 222.115 C 32.002 220.026, 36.200 215.250, 39.500 211.503 C 42.800 207.757, 46.529 203.186, 47.786 201.345 C 49.043 199.505, 50.506 198, 51.036 198 C 51.566 198, 52.019 197.438, 52.043 196.750 C 52.066 196.063, 53.822 193.522, 55.944 191.105 C 60.023 186.461, 63 186.023, 63 190.067 C 63 191.239, 63.627 193.616, 64.393 195.349 C 65.159 197.082, 66.040 199.275, 66.351 200.222 C 67.089 202.473, 75.859 207.957, 78.759 207.981 C 82.327 208.011, 87.207 202.634, 88.055 197.739 C 88.460 195.407, 89.278 191.025, 89.875 188 C 91.801 178.235, 93.022 161.187, 91.989 158.471 C 91.461 157.082, 90.977 153.370, 90.914 150.222 C 90.801 144.594, 88.902 131.839, 86.859 123 C 85.624 117.658, 81.132 108, 79.881 108 C 79.396 108, 79 107.511, 79 106.913 C 79 106.316, 77.630 103.919, 75.955 101.587 L 72.910 97.347 76.048 90.924 C 77.774 87.391, 79.782 83.367, 80.512 81.982 C 81.242 80.597, 82.862 74.589, 84.112 68.631 L 86.385 57.799 83.942 55.922 C 81.075 53.718, 79.837 53.563, 78.200 55.200 M 150.039 89.928 C 149.036 91.801, 149.561 95.032, 150.857 94.968 C 152.566 94.884, 155 92.047, 155 90.140 C 155 87.385, 151.480 87.234, 150.039 89.928 M 167.500 151.155 C 166.400 151.795, 162.575 154.875, 159 157.999 C 141.963 172.887, 133.582 179.382, 130 180.474 C 128.625 180.894, 126.713 181.928, 125.750 182.773 C 123.861 184.432, 123.370 189.492, 125 190.500 C 125.550 190.840, 126 191.922, 126 192.904 C 126 195.980, 129.523 198.064, 136.636 199.196 C 140.605 199.827, 144.371 201.070, 145.564 202.144 C 146.700 203.165, 148.351 204, 149.233 204 C 152.004 204, 154 205.156, 154 206.760 C 154 208.186, 149.331 213.770, 140.162 223.311 C 135.820 227.830, 129.248 232.581, 124.724 234.471 C 119.942 236.469, 112.571 234.610, 109.790 230.706 C 108.093 228.322, 107.548 228.056, 106.865 229.276 C 105.680 231.394, 107.709 236.580, 110.418 238.354 C 112.874 239.963, 122.433 242, 127.529 242 C 129.420 242, 131.417 241.197, 132.500 240 C 133.495 238.900, 134.720 238, 135.222 238 C 136.694 238, 143.191 232.789, 146.442 229 C 148.094 227.075, 151.319 223.700, 153.609 221.500 C 155.898 219.300, 158.509 216.037, 159.411 214.250 C 160.859 211.381, 161.530 211, 165.140 211 C 167.434 211, 171.264 212.025, 173.865 213.334 C 176.414 214.618, 182.325 217.559, 187 219.870 C 191.675 222.181, 196.625 224.737, 198 225.551 C 199.375 226.366, 201.625 227.474, 203 228.013 C 205.487 228.990, 209.046 231.027, 210 232.020 C 210.275 232.307, 211.625 233.099, 213 233.781 C 224.133 239.305, 234.811 246.011, 241.756 251.841 C 244.646 254.267, 249.203 257.658, 251.882 259.376 C 265.055 267.825, 270 271.301, 270 272.112 C 270 272.600, 270.446 273, 270.991 273 C 271.984 273, 278.278 277.446, 285.183 283.024 C 287.208 284.661, 289.233 286, 289.683 286 C 290.132 286, 291.755 284.427, 293.288 282.506 C 296.748 278.169, 296.021 276.353, 289.273 272.473 C 286.648 270.964, 283.600 268.971, 282.500 268.044 C 281.400 267.117, 277.125 264.400, 273 262.005 C 268.875 259.611, 265.050 257.167, 264.500 256.576 C 262.793 254.740, 253.858 247.626, 249.961 245 C 247.920 243.625, 242.256 239.800, 237.375 236.500 C 232.494 233.200, 227.825 230.149, 227 229.721 C 226.175 229.292, 221.900 226.956, 217.500 224.531 C 204.259 217.231, 179.940 205.346, 174.750 203.638 C 172.171 202.790, 172.596 200.456, 176.383 194.669 C 178.243 191.826, 180.326 187.700, 181.011 185.500 C 181.696 183.300, 182.648 180.466, 183.128 179.203 C 183.608 177.940, 184 173.694, 184 169.769 C 184 162.349, 181.835 155.956, 178.225 152.717 C 175.860 150.595, 169.942 149.733, 167.500 151.155 M 162.259 168.305 C 158.826 171.162, 155.169 174.625, 154.132 176 C 153.095 177.375, 149.604 180.272, 146.373 182.438 C 136.607 188.986, 136.153 191.202, 144.308 192.523 C 146.613 192.896, 151.335 194.321, 154.799 195.689 C 158.263 197.057, 161.647 197.966, 162.318 197.708 C 163.308 197.328, 167.893 188.906, 173.177 177.764 C 174.298 175.398, 174.215 168.695, 173.025 165.565 C 171.611 161.847, 169.316 162.431, 162.259 168.305" stroke="none" fill="black" fill-rule="evenodd"/>
</svg>