<svg xmlns="http://www.w3.org/2000/svg" width="300" height="300" viewBox="0 0 300 300" version="1.1">
	<path d="M 169.794 7.246 L 169.500 14.492 163.090 17.684 C 159.565 19.439, 155.857 21.698, 154.852 22.704 C 153.103 24.452, 153.099 24.685, 154.761 28.016 C 156.623 31.747, 157.563 31.945, 166.250 30.433 L 170 29.781 170 34.832 C 170 37.609, 169.550 40.160, 169 40.500 C 168.450 40.840, 168 42.962, 168 45.217 C 168 48.480, 167.170 50.391, 163.927 54.594 C 158.845 61.182, 158.703 65.324, 163.542 65.798 C 165.822 66.021, 169.076 64.577, 176.525 60.035 C 181.992 56.702, 186.796 53.080, 187.200 51.987 C 187.769 50.449, 188.858 50, 192.013 50 C 195.009 50, 196.742 49.349, 198.545 47.545 C 201.839 44.252, 201.637 42.519, 197.750 40.742 C 192.128 38.170, 188.229 37.844, 186.784 39.823 C 184.774 42.577, 179.404 46, 177.096 46 C 174.659 46, 174.331 43.800, 176.500 42 C 177.325 41.315, 178 39.712, 178 38.437 C 178 37.161, 178.450 35.840, 179 35.500 C 179.550 35.160, 180.035 32.996, 180.077 30.691 C 180.166 25.821, 181.696 20.839, 184.509 16.256 C 186.036 13.768, 187.199 13.010, 189.500 13.001 C 193.973 12.985, 198.117 9.220, 198.327 4.983 C 198.491 1.676, 198.320 1.485, 194.942 1.201 C 192.032 0.957, 190.435 1.658, 186.173 5.051 C 179.883 10.059, 177.948 9.803, 178.718 4.065 L 179.263 0 174.675 0 L 170.088 0 169.794 7.246 M 98.174 54.314 C 96.738 55.843, 96 57.905, 96 60.386 C 96 62.452, 95.325 64.818, 94.500 65.643 C 93.675 66.468, 93 68.541, 93 70.250 C 93 73.353, 92.586 75.079, 89.584 84.500 C 88.707 87.250, 87.992 90.457, 87.995 91.628 C 88.004 95.419, 85.651 96.317, 81.746 94.012 C 78.644 92.182, 77.865 92.099, 74.483 93.231 C 72.400 93.929, 70.220 95.261, 69.640 96.191 C 68.120 98.627, 71.152 101.609, 75.926 102.372 C 78.035 102.709, 80.738 103.777, 81.933 104.745 L 84.105 106.504 81.553 111.305 C 80.149 113.945, 79 116.721, 79 117.472 C 79 118.223, 78.367 120.112, 77.593 121.669 C 76.818 123.226, 75.745 125.625, 75.208 127 C 74.670 128.375, 72.869 132.425, 71.205 136 C 67.339 144.308, 65 150.007, 65 151.122 C 65 152.695, 68.648 152.046, 70.345 150.171 C 71.255 149.165, 72 147.993, 72 147.565 C 72 147.138, 73.285 145.148, 74.855 143.144 C 76.426 141.140, 79.181 136.800, 80.977 133.500 C 82.774 130.200, 84.639 127.073, 85.122 126.550 C 85.605 126.028, 86.015 124.678, 86.033 123.550 C 86.080 120.697, 89.651 116.652, 91.498 117.361 C 92.324 117.678, 93 118.986, 93 120.269 C 93 121.551, 93.507 123.107, 94.127 123.727 C 97.948 127.548, 99.450 167.640, 96.264 180.773 C 94.299 188.873, 92.251 190.051, 90.664 183.994 C 89.499 179.546, 89.547 175.015, 90.836 167.625 C 91.994 160.991, 91.052 158.320, 87.210 157.344 C 84.624 156.688, 81 159.341, 81 161.891 C 81 163.281, 77.323 171.809, 74.916 176 C 74.442 176.825, 72.355 180.649, 70.277 184.497 C 68.200 188.345, 65.037 193.412, 63.250 195.756 C 61.463 198.100, 60 200.382, 60 200.828 C 60 201.274, 56.639 205.207, 52.532 209.569 C 48.424 213.931, 45.049 218.007, 45.032 218.628 C 45.014 219.248, 45.645 220.290, 46.433 220.944 C 47.559 221.879, 48.422 221.770, 50.456 220.437 C 51.881 219.503, 53.373 218.236, 53.773 217.620 C 54.173 217.004, 56.075 215.691, 58 214.703 C 62.701 212.289, 70.496 204.871, 76.914 196.704 C 79.812 193.017, 82.516 190, 82.924 190 C 83.332 190, 85.022 191.687, 86.679 193.750 C 88.337 195.813, 90.883 198.136, 92.336 198.913 C 94.689 200.171, 95.371 200.117, 98.558 198.413 C 100.950 197.135, 102.323 195.581, 102.698 193.729 C 103.006 192.205, 103.650 190.716, 104.129 190.420 C 104.608 190.124, 105.007 188.221, 105.015 186.191 C 105.023 184.161, 105.666 179.800, 106.444 176.500 C 108.238 168.888, 108.497 151.871, 106.977 141.500 C 106.332 137.100, 105.602 131.250, 105.354 128.500 C 105.106 125.750, 104.510 122.600, 104.030 121.500 C 103.549 120.400, 102.911 118.375, 102.612 117 C 102.313 115.625, 100.468 112.025, 98.511 109 C 95.337 104.092, 95.023 103.015, 95.594 99 C 95.946 96.525, 96.631 94.073, 97.117 93.550 C 97.603 93.028, 98 91.426, 98 89.991 C 98 88.556, 98.661 86.509, 99.468 85.441 C 100.276 84.374, 100.951 82.509, 100.968 81.299 C 101.011 78.345, 103.729 68.047, 104.840 66.631 C 105.328 66.009, 106.021 63.574, 106.380 61.221 C 106.945 57.521, 106.698 56.608, 104.562 54.471 C 101.515 51.424, 100.904 51.409, 98.174 54.314 M 189.500 75 C 189.160 75.550, 188.182 76, 187.325 76 C 184.546 76, 172.098 85.030, 167.238 90.572 C 164.632 93.544, 161.890 95.980, 161.144 95.987 C 160.399 95.994, 158.484 94.902, 156.890 93.561 C 153.424 90.645, 145.701 89.173, 143.491 91.008 C 141.769 92.437, 141.527 97.248, 143.035 100.066 C 143.740 101.383, 145.132 102, 147.399 102 C 151.735 102, 155.341 105.582, 159.281 113.800 C 161.707 118.863, 162.707 120.041, 164.372 119.800 C 165.941 119.573, 166.653 118.439, 167.304 115.132 C 167.876 112.228, 167.802 110.402, 167.082 109.682 C 164.280 106.880, 167.830 102.434, 179.997 93.502 C 182.913 91.362, 186.336 88.573, 187.604 87.305 C 191.241 83.669, 192.319 84.330, 191.786 89.872 C 191.454 93.329, 190.546 95.577, 188.659 97.612 C 187.197 99.189, 186 101.017, 186 101.673 C 186 103.069, 178.986 108.969, 174.120 111.665 C 171.510 113.111, 170.684 114.266, 170.489 116.739 C 170.135 121.246, 172.705 121.756, 179.232 118.475 C 183.216 116.473, 185.386 115.969, 188.133 116.407 C 193.056 117.192, 194.463 115.394, 193.638 109.375 C 193.082 105.322, 193.346 104.347, 195.870 101.139 C 197.445 99.138, 199.073 96.375, 199.489 95 C 199.905 93.625, 200.598 92.050, 201.029 91.500 C 202.653 89.428, 203.278 80.888, 201.982 78.467 C 200.079 74.910, 191.097 72.416, 189.500 75 M 215.309 107.250 C 214.864 107.938, 214.050 109.205, 213.500 110.066 C 209.785 115.884, 203.375 125.765, 196.500 136.273 C 187.090 150.654, 181.660 155.456, 173.575 156.542 C 170.784 156.917, 167.938 157.679, 167.250 158.234 C 165.539 159.618, 165.681 163.099, 167.557 165.777 C 168.910 167.710, 170.016 168, 176.034 168 C 181.007 168, 184.853 168.715, 189.703 170.540 C 208.587 177.648, 222.364 188.225, 253.500 219.519 C 275.163 241.291, 283.879 249, 286.834 249 C 288.228 249, 294 243.096, 294 241.670 C 294 240.877, 292.514 239.523, 290.697 238.661 C 288.881 237.799, 286.561 236.172, 285.542 235.047 C 284.524 233.921, 282.972 232.994, 282.095 232.988 C 280.535 232.976, 270.059 223.022, 249 201.543 C 234.161 186.407, 210.912 168.686, 197.750 162.478 C 194.588 160.986, 192 159.209, 192 158.528 C 192 157.847, 195.308 153.963, 199.351 149.895 C 209.104 140.083, 213.278 134.409, 217.535 125.176 C 219.482 120.954, 221.977 115.802, 223.081 113.726 C 225.255 109.637, 224.946 108, 222 108 C 220.965 108, 219.840 107.550, 219.500 107 C 218.640 105.609, 216.280 105.750, 215.309 107.250 M 160.209 127.250 C 159.640 127.938, 157.516 131.627, 155.489 135.450 C 151.870 142.273, 145.278 152.488, 142.107 156.184 C 141.223 157.215, 139.375 159.982, 138 162.335 C 130.942 174.410, 129.328 177.028, 125.093 183.273 C 115.946 196.762, 111.483 205.211, 112.335 207.431 C 112.639 208.222, 113.766 209.339, 114.840 209.914 C 116.501 210.803, 117.307 210.328, 120.241 206.730 C 122.137 204.403, 124.270 201.403, 124.980 200.063 C 125.690 198.723, 126.682 197.148, 127.185 196.563 C 127.687 195.978, 131.725 189.650, 136.157 182.500 C 140.590 175.350, 144.382 169.323, 144.584 169.107 C 144.786 168.892, 145.628 169.276, 146.454 169.962 C 147.673 170.974, 148.008 174.725, 148.228 189.854 L 148.500 208.500 151.176 208.809 C 152.752 208.991, 155.424 208.112, 157.676 206.669 C 162.124 203.819, 168 198.198, 168 196.793 C 168 196.259, 170.025 193.508, 172.500 190.679 C 177.230 185.271, 177.952 183.303, 175.543 182.378 C 174.110 181.828, 163.317 189.807, 161.700 192.613 C 161.260 193.376, 160.023 194, 158.951 194 C 157.405 194, 157.014 193.327, 157.065 190.750 C 157.100 188.963, 156.824 183, 156.450 177.500 C 155.818 168.184, 155.565 167.282, 152.754 164.316 C 149.750 161.147, 149.745 161.122, 151.618 158.707 C 164.177 142.520, 169.999 133.570, 169.999 130.450 C 170 129.322, 169.460 127.860, 168.800 127.200 C 167.225 125.625, 161.528 125.658, 160.209 127.250" stroke="none" fill="black" fill-rule="evenodd"/>
</svg>