<svg xmlns="http://www.w3.org/2000/svg" width="300" height="300" viewBox="0 0 300 300" version="1.1">
	<path d="M 141.667 61.667 C 140.590 62.743, 140.903 71.822, 142.041 72.525 C 142.613 72.879, 144.246 75.013, 145.669 77.267 C 148.078 81.084, 148.222 81.974, 147.755 90.166 C 147.390 96.566, 147.599 99.252, 148.521 100.017 C 150.071 101.304, 153 98.756, 153 96.120 C 153 95.164, 153.661 93.509, 154.468 92.441 C 155.507 91.067, 155.946 87.792, 155.968 81.230 C 155.996 73.075, 155.704 71.492, 153.542 68.066 C 152.190 65.924, 150.064 63.458, 148.819 62.586 C 146.491 60.955, 142.847 60.487, 141.667 61.667 M 166.500 92.627 C 161 97.277, 153.721 103.420, 150.324 106.277 C 146.058 109.866, 141.110 112.718, 134.324 115.499 C 124.540 119.510, 124.500 119.540, 124.500 123.013 C 124.500 125.994, 124.863 126.539, 127 126.768 C 128.375 126.915, 132.650 125.875, 136.500 124.456 C 140.350 123.037, 144.850 121.508, 146.500 121.058 C 148.150 120.609, 150.839 119.523, 152.476 118.647 C 155.696 116.922, 158.113 117.912, 156.288 120.208 C 155.119 121.678, 154.042 130.941, 153.359 145.405 C 153.086 151.195, 152.291 156.471, 151.446 158.105 C 150.651 159.643, 149.987 161.936, 149.972 163.200 C 149.931 166.544, 145.629 174.445, 143.640 174.829 C 142.703 175.011, 138.975 173.773, 135.356 172.079 C 127.414 168.363, 120.492 167.875, 119.512 170.962 C 118.681 173.579, 120.469 176.713, 123.249 177.512 C 124.487 177.868, 126.850 178.755, 128.500 179.484 C 130.150 180.213, 133.237 181.525, 135.360 182.400 C 138.849 183.837, 139.155 184.254, 138.548 186.745 C 136.366 195.695, 122.564 212.444, 110.821 220.392 C 104.951 224.364, 103.937 224.503, 95.750 222.455 C 93.433 221.875, 93 222.084, 93 223.780 C 93 226.363, 99.392 232.007, 102.285 231.978 C 105.342 231.948, 111.803 228.888, 118.703 224.202 C 127.103 218.498, 141.608 202.916, 144.592 196.392 C 146.742 191.692, 147.427 191, 149.933 191 C 151.514 191, 156.789 192.836, 161.654 195.080 C 166.519 197.324, 171.850 199.783, 173.500 200.545 C 175.150 201.307, 181.292 203.953, 187.148 206.426 C 197.315 210.718, 211.076 218.837, 217.500 224.334 C 219.150 225.746, 226.292 231.895, 233.371 237.997 C 240.449 244.100, 248.549 250.589, 251.371 252.418 C 256.664 255.850, 274.883 272.039, 276.300 274.571 C 277.553 276.811, 281.660 276.249, 284.455 273.455 C 285.855 272.055, 287 270.540, 287 270.089 C 287 268.299, 282.689 263.964, 277.147 260.180 C 271.203 256.123, 242.699 233.499, 238.054 229.151 C 236.649 227.836, 233.925 225.577, 232 224.130 C 230.075 222.684, 227.375 220.447, 226 219.160 C 220.686 214.187, 195.256 198.156, 190 196.466 C 184.119 194.574, 153.997 180.015, 154.004 179.067 C 154.006 178.755, 154.906 177.027, 156.004 175.226 C 157.102 173.425, 158 170.913, 158 169.642 C 158 168.372, 158.322 167.012, 158.715 166.618 C 160.737 164.596, 162.314 154.756, 163.059 139.500 C 163.517 130.150, 164.182 120.640, 164.539 118.367 C 164.946 115.776, 164.780 113.982, 164.094 113.558 C 161.732 112.098, 163.332 109.360, 171.500 100.887 C 177.460 94.704, 180 91.336, 180 89.616 C 180 86.279, 179.021 83.982, 177.643 84.086 C 177.014 84.133, 172 87.977, 166.500 92.627 M 82.946 95.011 C 76.262 99.539, 72.353 102.483, 68.284 106.055 C 66.262 107.831, 62.221 110.339, 59.304 111.629 C 54.342 113.824, 54 114.202, 54 117.509 C 54 120.231, 54.531 121.285, 56.312 122.096 C 59.645 123.615, 69.675 118.748, 78.500 111.330 C 82.350 108.094, 87.188 104.167, 89.250 102.604 C 93.593 99.314, 94.164 95.929, 90.777 93.557 C 87.903 91.543, 88.127 91.502, 82.946 95.011 M 72.930 123.138 C 70.994 126.932, 70.915 127.824, 71.975 133.888 C 72.611 137.524, 73.295 143.791, 73.495 147.813 C 73.835 154.617, 73.674 155.323, 71.180 157.965 C 66.231 163.209, 55.049 170, 51.362 170 C 47.143 170, 45.297 173.021, 46.916 177.278 C 48.389 181.152, 52.115 180.842, 61.645 176.051 C 65.965 173.880, 69.875 172.477, 70.333 172.935 C 71.915 174.513, 69.258 199.872, 66.862 206.069 C 66.103 208.032, 64.249 211.104, 62.741 212.896 C 59.124 217.194, 58.950 222.564, 62.376 224.126 C 65.245 225.432, 67.345 224.262, 77.248 215.840 C 80.960 212.684, 84.560 209.741, 85.248 209.301 C 86.763 208.332, 92.921 201.230, 95 198.055 C 95.825 196.795, 97.737 194.021, 99.250 191.891 C 102.302 187.592, 102.599 186.373, 100.750 185.736 C 98.568 184.985, 93.619 187.157, 90 190.454 C 79.585 199.942, 77 200.985, 77 195.700 C 77 193.885, 77.409 191.972, 77.908 191.450 C 78.407 190.927, 79.069 188.250, 79.378 185.500 C 79.687 182.750, 80.329 176.900, 80.805 172.500 C 81.735 163.907, 83.322 160.329, 89.891 152.019 C 93.484 147.473, 93.772 146.644, 93.607 141.303 C 93.378 133.853, 91.502 133.293, 87.732 139.548 C 85.849 142.673, 84.412 144.028, 83.232 143.788 C 81.770 143.492, 81.541 142.429, 81.764 136.968 C 81.909 133.411, 82.543 128.814, 83.172 126.754 C 84.160 123.523, 84.068 122.733, 82.504 121.004 C 81.504 119.900, 79.422 119, 77.865 119 C 75.561 119, 74.652 119.762, 72.930 123.138" stroke="none" fill="black" fill-rule="evenodd"/>
</svg>