<svg xmlns="http://www.w3.org/2000/svg" width="300" height="300" viewBox="0 0 300 300" version="1.1">
	<path d="M 134.375 19.450 C 132.015 21.103, 126 37.079, 126 41.694 C 126 45.828, 115.710 68.019, 111.332 73.327 C 108.657 76.569, 108.221 82.109, 110.492 83.994 C 111.498 84.828, 113.700 85.029, 117.242 84.608 C 120.134 84.265, 122.995 84.325, 123.600 84.742 C 125.791 86.252, 126.851 89.692, 126.327 93.597 C 125.321 101.097, 130.973 102.020, 135.550 95.104 C 137.477 92.192, 137.884 90.608, 137.393 87.933 C 136.482 82.962, 132.203 77.144, 127.811 74.904 C 125.715 73.834, 124.007 72.406, 124.015 71.730 C 124.036 70.040, 126.064 64.781, 129.829 56.657 C 131.573 52.893, 133 49.461, 133 49.029 C 133 48.598, 133.675 47.685, 134.500 47 C 135.325 46.315, 136 44.444, 136 42.842 C 136 41.240, 136.641 38.933, 137.425 37.715 C 138.209 36.497, 139.808 32.630, 140.979 29.122 L 143.108 22.744 140.880 20.372 C 138.291 17.616, 137.211 17.463, 134.375 19.450 M 176.589 27.077 C 175.165 28.769, 174 31.189, 174 32.454 C 174 33.720, 173.325 35.315, 172.500 36 C 171.675 36.685, 171 38.063, 171 39.063 C 171 40.064, 170.578 41.142, 170.063 41.461 C 169.548 41.779, 168.466 43.268, 167.660 44.770 C 159.898 59.214, 159.523 61.092, 163.468 65.780 C 165.489 68.182, 166.952 68.818, 171.537 69.292 C 174.618 69.610, 177.696 70.333, 178.379 70.899 C 180.129 72.352, 185.426 70.740, 185.832 68.631 C 186.333 66.033, 181.305 60, 178.640 60 C 177.398 60, 175.518 59.368, 174.461 58.595 C 172.607 57.240, 172.601 57.071, 174.292 53.845 C 175.257 52.005, 177.160 48.971, 178.523 47.102 C 179.885 45.233, 181 42.841, 181 41.785 C 181 40.730, 182.125 38.392, 183.500 36.589 C 186.768 32.304, 186.722 28.713, 183.365 26.073 C 179.951 23.387, 179.657 23.431, 176.589 27.077 M 152.073 32.635 C 150.933 34.084, 150 35.817, 150 36.486 C 150 37.155, 148.875 39.818, 147.500 42.404 C 146.125 44.990, 145 48.175, 145 49.481 C 145 50.788, 144.424 52.452, 143.719 53.179 C 141.164 55.814, 138 62.173, 138 64.672 C 138 67.718, 142.744 76.795, 144.947 77.965 C 146.970 79.039, 154 76.249, 154 74.373 C 154 73.596, 152.853 71.143, 151.451 68.922 C 149.716 66.173, 149.115 64.185, 149.570 62.692 C 150.488 59.681, 153.774 52.061, 155.541 48.846 C 156.344 47.386, 157 45.651, 157 44.990 C 157 44.329, 158.125 42.452, 159.500 40.818 C 162.166 37.649, 162.771 33.171, 160.800 31.200 C 158.680 29.080, 154.302 29.800, 152.073 32.635 M 82.248 68.878 C 81.078 70.461, 79.353 74.174, 78.416 77.128 C 77.478 80.083, 76.326 82.927, 75.855 83.450 C 75.385 83.972, 75 85.253, 75 86.295 C 75 88.741, 70.982 102, 70.240 102 C 69.930 102, 67.386 101.283, 64.588 100.407 C 59.778 98.901, 59.227 98.922, 54.500 100.783 C 48.826 103.018, 47.941 105.051, 50.491 109.983 C 51.596 112.119, 52.639 112.945, 53.802 112.604 C 59.765 110.857, 62.606 110.908, 64.311 112.791 C 65.989 114.646, 65.887 115.057, 61.780 123.024 C 59.336 127.764, 54.853 134.222, 51.329 138.080 C 44.048 146.051, 42.375 148.775, 43.853 150.253 C 44.570 150.970, 46.375 150.886, 49.695 149.981 C 53.337 148.988, 55.831 147.299, 60 143.005 C 63.025 139.888, 66.009 136.250, 66.632 134.919 C 72.986 121.333, 74.103 120.631, 77.628 128.012 C 79.701 132.352, 80.440 135.134, 83.204 149 C 84.844 157.227, 84.914 195.486, 83.292 197.108 C 80.099 200.301, 76.392 192.499, 75.320 180.328 C 74.905 175.606, 75.155 173.616, 76.388 171.856 C 77.275 170.590, 78 168.556, 78 167.334 C 78 165.138, 74.678 162, 72.354 162 C 69.705 162, 64.726 167.695, 55.946 180.768 C 50.874 188.321, 46.429 194.725, 46.069 195 C 43.527 196.942, 35.968 207.601, 36.214 208.897 C 36.385 209.804, 37.717 210.638, 39.283 210.819 C 41.594 211.085, 43.342 209.834, 49.925 203.197 C 54.257 198.830, 58.409 194.112, 59.151 192.711 C 61.191 188.862, 67.993 181.878, 69.060 182.537 C 69.577 182.857, 70 185.315, 70 188 C 70 190.685, 70.450 193.160, 71 193.500 C 71.550 193.840, 72 194.983, 72 196.041 C 72 198.957, 78.064 206.551, 81.901 208.439 L 85.302 210.111 89.020 206.481 C 93.008 202.587, 93.170 201.844, 94.605 181 C 94.851 177.425, 95.238 173.973, 95.464 173.329 C 95.905 172.077, 93.598 151.797, 92.070 143.500 C 91.564 140.750, 90.836 136.475, 90.451 134 C 89.744 129.441, 82.760 113.588, 80.973 112.483 C 79.586 111.626, 79.770 107.511, 81.436 102.134 C 86.137 86.965, 87.586 82.954, 90.149 78 C 93.483 71.559, 93.647 69.896, 91.171 67.655 C 88.337 65.090, 84.678 65.592, 82.248 68.878 M 177.376 80.086 C 175.657 80.584, 173.690 81.669, 173.003 82.496 C 172.317 83.323, 171.308 84, 170.762 84 C 168.857 84, 156.209 93.028, 147.731 100.440 C 141.171 106.175, 138.599 109.195, 136.650 113.454 C 135.069 116.907, 133.490 119, 132.465 119 C 131.560 119, 128.449 116.975, 125.552 114.500 C 122.655 112.025, 119.635 110, 118.842 110 C 118.049 110, 116.893 109.493, 116.274 108.874 C 115.655 108.255, 111.627 107.692, 107.324 107.624 L 99.500 107.500 99.184 111.348 C 98.790 116.144, 100.941 118.760, 105.887 119.504 C 117.204 121.204, 119.235 122.015, 124.702 127.010 C 129.223 131.142, 130.807 132, 133.918 132 C 137.586 132, 137.766 131.822, 141.569 124.430 C 145.728 116.345, 147.294 114.446, 148.956 115.473 C 150.555 116.461, 150.168 120.033, 147.926 124.975 C 145.782 129.702, 146.017 133.638, 148.474 134.177 C 150.887 134.706, 148.967 136.405, 140 141.671 C 132.534 146.056, 131.500 147.005, 131.500 149.474 C 131.500 151.347, 132.380 152.942, 134.141 154.256 C 138.386 157.425, 141.124 156.099, 159.920 141.771 C 161.889 140.271, 164.545 138.582, 165.822 138.019 C 167.980 137.067, 168.095 136.608, 167.456 131.498 C 166.902 127.060, 167.047 126, 168.210 126 C 170.128 126, 174 121.798, 174 119.717 C 174 118.807, 171.532 116.240, 168.515 114.011 C 162.429 109.515, 159.207 104.660, 160.931 102.583 C 162.584 100.591, 178.665 90, 180.036 90 C 182.053 90, 180.479 97.701, 177.618 101.829 C 174.486 106.349, 172.603 111.523, 173.366 113.513 C 174.561 116.625, 177.711 114.770, 184.204 107.130 C 190.869 99.289, 190.895 99.234, 191.577 91.715 C 192.231 84.500, 192.147 84.057, 189.676 81.585 C 186.921 78.830, 183.251 78.383, 177.376 80.086 M 182.424 129.750 C 181.144 132.743, 181.047 134.106, 181.941 136.500 C 183.307 140.159, 189.630 159.169, 191.088 164 C 191.669 165.925, 192.739 168.850, 193.467 170.500 C 195.223 174.483, 196.472 177.586, 198.476 182.942 C 199.390 185.386, 201.007 188.605, 202.069 190.097 C 203.131 191.588, 204 193.466, 204 194.270 C 204 195.073, 204.900 196.874, 206 198.273 C 207.100 199.671, 208 201.316, 208 201.928 C 208 202.539, 209.070 204.735, 210.378 206.806 C 211.685 208.878, 213.765 212.806, 214.998 215.536 C 216.231 218.266, 218.536 222.435, 220.120 224.800 C 221.704 227.165, 223 229.473, 223 229.928 C 223 230.383, 223.691 231.329, 224.536 232.030 C 225.382 232.732, 227.707 236.274, 229.705 239.903 C 231.703 243.531, 235.511 249.531, 238.168 253.235 C 240.826 256.939, 243 260.233, 243 260.554 C 243 261.232, 260.228 277.775, 262.783 279.551 C 263.728 280.208, 265.950 281.060, 267.722 281.446 C 270.392 282.026, 271.390 281.701, 273.540 279.551 C 276.078 277.012, 276.123 276.739, 275.527 267.227 C 275.193 261.877, 274.563 243.100, 274.129 225.500 C 273.695 207.900, 273.013 192.150, 272.615 190.500 C 272.216 188.850, 271.184 184.350, 270.320 180.500 C 268.029 170.285, 265.414 164, 263.453 164 C 261.448 164, 259.629 166.837, 260.728 168.250 C 262.841 170.966, 266.091 194.105, 266.133 206.731 C 266.148 211.554, 265.679 220.675, 265.089 227 C 264.500 233.325, 264.013 244.252, 264.009 251.281 C 264.001 262.304, 263.770 264.151, 262.327 264.705 C 261.177 265.146, 259.744 264.276, 257.747 261.924 C 254.627 258.248, 243.470 243.631, 241 239.984 C 240.175 238.765, 238.713 236.737, 237.750 235.477 C 236.787 234.216, 236 232.879, 236 232.506 C 236 231.584, 229.689 222.584, 228.750 222.167 C 228.338 221.983, 228 220.985, 228 219.947 C 228 218.910, 227.149 216.585, 226.110 214.780 C 225.070 212.976, 221.920 207.542, 219.110 202.704 C 216.299 197.867, 214 193.622, 214 193.273 C 214 192.923, 212.019 188.556, 209.597 183.569 C 207.175 178.581, 204.419 171.800, 203.472 168.500 C 201.705 162.340, 200.432 158.808, 198.883 155.764 C 198.397 154.809, 198 153.211, 198 152.214 C 198 151.216, 197.527 149.927, 196.949 149.349 C 195.398 147.798, 193.026 138.130, 193.012 133.307 C 193.003 130.115, 192.469 128.741, 190.777 127.557 C 186.917 124.853, 184.214 125.562, 182.424 129.750 M 157.796 152.250 C 156.125 155.200, 156.111 171.902, 157.772 183 C 159.295 193.185, 158.501 197.339, 154.933 197.846 C 151.444 198.342, 150 199.850, 150 203 C 150 206.312, 151.489 207.709, 155.500 208.162 L 158.500 208.500 158.139 224 C 157.797 238.712, 157.890 239.640, 159.962 242.250 C 164.009 247.348, 169.705 245.351, 176.350 236.504 C 178.083 234.197, 181.412 229.950, 183.750 227.065 C 187.336 222.640, 188 221.121, 188 217.344 C 188 214.883, 188.481 211.969, 189.069 210.870 C 190.262 208.641, 188.809 206, 186.390 206 C 184.595 206, 180.004 213.332, 179.985 216.230 C 179.960 219.962, 167.073 232.865, 166.981 229.250 C 166.388 205.836, 166.511 204.337, 169.376 200.007 C 170.905 197.698, 173.357 194.465, 174.827 192.821 C 176.297 191.178, 177.863 188.409, 178.306 186.667 C 180.462 178.195, 180.581 178.823, 176.881 179.177 C 174.312 179.422, 173.427 180.015, 173.194 181.646 C 173.026 182.826, 172.003 184.593, 170.921 185.572 C 167.852 188.349, 166.618 186.215, 167.448 179.567 C 167.998 175.169, 168.682 173.613, 170.672 172.242 C 175.571 168.864, 181 163.752, 181 162.518 C 181 160.512, 177.003 156, 175.225 156 C 174.329 156, 172.150 157.401, 170.384 159.112 C 168.618 160.824, 166.745 161.960, 166.221 161.637 C 165.698 161.313, 165.025 159.220, 164.725 156.985 C 163.819 150.234, 160.300 147.829, 157.796 152.250 M 140.337 161.971 C 138.776 164.156, 135.925 168.182, 134 170.920 C 132.075 173.658, 129.458 176.462, 128.185 177.152 C 124.748 179.016, 123.790 176.833, 124.512 168.783 C 125.099 162.238, 125.051 162.051, 122.614 161.439 C 118.324 160.363, 117.685 161.576, 118.425 169.386 C 118.796 173.299, 119.070 177.175, 119.033 178 C 118.996 178.825, 118.715 187.150, 118.408 196.500 C 118.009 208.629, 117.465 213.930, 116.509 215 C 115.241 216.419, 114.872 219.421, 113.415 240.189 C 112.829 248.548, 112.909 249.014, 115.521 252.439 C 117.672 255.259, 118.928 256, 121.556 256 C 125.016 256, 125.231 255.799, 137.950 240.689 C 140.178 238.043, 142 235.225, 142 234.426 C 142 233.627, 142.414 232.191, 142.920 231.236 C 145.526 226.314, 148 220.828, 148 219.969 C 148 219.436, 146.912 219, 145.582 219 C 143.895 219, 142.507 220.062, 140.993 222.512 C 139.799 224.443, 137.279 227.930, 135.392 230.262 C 133.505 232.593, 130.595 236.188, 128.924 238.250 C 123.709 244.689, 122.670 243.565, 123.374 232.250 C 124.178 219.319, 125.350 209.787, 126.325 208.250 C 126.761 207.563, 127.714 207, 128.443 207 C 130.048 207, 143.972 192.873, 145.812 189.378 C 147.440 186.285, 147.007 182.617, 144.968 182.229 C 144.126 182.069, 140.213 185.147, 136.274 189.071 C 132.335 192.994, 128.525 196.008, 127.806 195.769 C 127.078 195.526, 126.500 193.852, 126.500 191.984 C 126.500 189.104, 127.051 188.344, 130.427 186.567 C 134.145 184.611, 144.339 172.167, 148.436 164.585 C 149.880 161.914, 149.872 161.517, 148.351 159.835 C 145.789 157.004, 143.436 157.631, 140.337 161.971" stroke="none" fill="black" fill-rule="evenodd"/>
</svg>