<svg xmlns="http://www.w3.org/2000/svg" width="300" height="300" viewBox="0 0 300 300" version="1.1">
	<path d="M 120.861 34.250 C 113.743 41.735, 112.058 44.091, 112.032 46.595 C 112 49.735, 114.520 53, 116.976 53 C 120.031 53, 134.448 39.582, 136.121 35.182 C 137.644 31.176, 134.644 25, 131.174 25 C 130.340 25, 125.699 29.163, 120.861 34.250 M 71.171 48.943 C 61.889 53.870, 60 55.607, 60 59.221 C 60 66.681, 63.990 67.771, 73.839 63 C 77.245 61.350, 80.563 60, 81.211 60 C 83.483 60, 88 54.669, 88 51.987 C 88 48.726, 84.209 44.991, 80.936 45.026 C 79.596 45.041, 75.202 46.803, 71.171 48.943 M 125.459 52.406 C 123.728 53.672, 123.553 55.016, 123.705 65.893 C 123.872 77.903, 123.857 77.989, 121.067 80.737 C 115.801 85.921, 112.692 88.255, 110.095 88.973 C 107.757 89.620, 107.521 90.126, 107.713 94.082 C 108.049 101.024, 111.708 102.800, 116.818 98.500 C 122.087 94.066, 122.877 94.891, 122.320 104.250 C 121.654 115.453, 119.818 120.851, 115.502 124.293 C 111.386 127.575, 110.885 131.065, 114.269 132.876 C 117.170 134.429, 131.780 132.180, 139.500 128.993 C 140.600 128.539, 143.750 127.650, 146.500 127.018 C 153.175 125.485, 156 123.533, 156 120.456 C 156 116.081, 152.301 115.330, 143.135 117.842 C 134.980 120.077, 129.482 120.589, 128.620 119.195 C 128.347 118.752, 128.575 116.614, 129.129 114.445 C 129.682 112.275, 130.287 109.150, 130.472 107.500 C 130.658 105.850, 131.526 100.450, 132.401 95.500 C 133.276 90.550, 133.994 84.884, 133.996 82.910 C 133.998 80.904, 135.365 76.587, 137.094 73.127 C 140.583 66.146, 140.413 63.607, 136.522 64.584 C 134.057 65.203, 134 65.094, 134 59.763 C 134 52.123, 130.256 48.898, 125.459 52.406 M 70.489 68.385 C 68.753 69.653, 68.611 71.095, 68.787 85.635 L 68.978 101.500 65.239 105.513 C 62.852 108.074, 59.873 110.010, 57 110.867 C 48.191 113.493, 47.847 113.739, 48.187 117.158 C 48.387 119.169, 49.468 121.022, 51.187 122.299 L 53.874 124.296 59.287 121.648 C 62.264 120.192, 65.051 119, 65.481 119 C 65.911 119, 65.918 120.912, 65.496 123.250 C 65.073 125.588, 64.677 129.975, 64.614 133 C 64.509 138.052, 64.691 138.527, 66.852 138.833 C 70.640 139.369, 73.280 138.308, 77.811 134.430 C 82.005 130.840, 86 124.552, 86 121.540 C 86 119.497, 82.101 119.541, 79.138 121.616 C 75.961 123.841, 74.674 122.270, 76.123 117.937 C 76.756 116.047, 77.662 114.073, 78.136 113.550 C 78.611 113.028, 79 111.647, 79 110.482 C 79 109.317, 80.587 106.594, 82.526 104.432 C 85.833 100.743, 86.034 100.129, 85.776 94.500 C 85.490 88.274, 84.976 87.762, 80.750 89.496 C 79.155 90.150, 79 89.363, 79 80.607 C 79 72.333, 78.722 70.722, 77 69 C 74.644 66.644, 73.072 66.495, 70.489 68.385 M 191.667 146.667 C 190.685 147.648, 190.855 154.445, 191.889 155.550 C 194.455 158.291, 196.189 169.004, 196.325 182.969 L 196.467 197.500 192.656 205.149 C 190.560 209.355, 187.848 213.734, 186.630 214.878 C 183.075 218.218, 158.678 222.030, 140.982 222.010 C 133.548 222.001, 131.995 221.681, 128.776 219.494 C 126.748 218.115, 124.315 215.359, 123.370 213.368 C 121.889 210.246, 121.821 209.118, 122.879 205.163 C 124.351 199.658, 125.590 198, 128.231 198 C 130.453 198, 141.240 189.768, 145.754 184.628 C 147.370 182.787, 150.167 178.703, 151.969 175.554 C 154.907 170.419, 155.111 169.575, 153.939 167.387 C 151.427 162.692, 146.601 163.252, 143.743 168.569 C 140.606 174.406, 134.604 182.179, 130.323 185.947 C 125.143 190.506, 122.347 190.884, 122.760 186.969 C 122.904 185.611, 123.300 179.046, 123.640 172.380 C 124.227 160.913, 124.145 160.145, 122.130 158.130 C 119.777 155.777, 115.569 155.304, 114.309 157.250 C 113.864 157.938, 113.449 164.575, 113.386 172 C 113.324 179.425, 112.773 188.425, 112.163 192 C 109.590 207.073, 109.604 210.096, 112.275 216.110 C 115.270 222.854, 119.238 226.121, 129.214 230.057 C 137.700 233.405, 147.078 233.904, 156 231.484 C 159.025 230.664, 166.897 229.540, 173.494 228.986 C 180.091 228.433, 186.387 227.694, 187.486 227.346 C 190.991 226.233, 198.925 218.828, 201.448 214.314 C 207.057 204.278, 209.748 190.570, 207.156 185.236 C 206.692 184.281, 205.792 182.494, 205.156 181.264 C 204.520 180.034, 204 176.982, 204 174.481 C 204 171.981, 203.325 168.320, 202.500 166.346 C 201.675 164.371, 201 161.712, 201 160.437 C 201 159.162, 200.550 157.840, 200 157.500 C 199.450 157.160, 198.998 155.896, 198.996 154.691 C 198.988 149.979, 193.912 144.422, 191.667 146.667 M 89.557 165.223 C 88.701 166.445, 88 168.045, 88 168.779 C 88 169.860, 83.403 179.239, 79.069 187 C 78.609 187.825, 77.677 189.850, 77 191.500 C 74.856 196.722, 74.325 197.492, 72.643 197.823 C 71.501 198.048, 70.995 197.439, 70.985 195.823 C 70.961 192.163, 68.430 185.820, 66.580 184.785 C 63.542 183.085, 62 185.656, 62 192.422 C 62 195.820, 62.514 199.114, 63.143 199.743 C 63.771 200.371, 64.246 203.499, 64.197 206.693 C 64.069 215.064, 65.820 222.044, 68.872 225.331 C 71.137 227.770, 72.019 228.079, 75.257 227.568 C 77.324 227.241, 81.824 225.652, 85.257 224.036 C 88.691 222.420, 93.484 220.514, 95.908 219.799 C 100.575 218.424, 103.175 215.761, 101.478 214.096 C 100.854 213.484, 97.425 213.485, 92 214.100 C 78.375 215.645, 77.834 215.635, 76.663 213.804 C 75.844 212.524, 75.997 211.297, 77.284 208.804 C 79.281 204.935, 84.947 196.608, 88.092 192.918 C 92.774 187.425, 96.431 180.291, 98.559 172.500 C 99.892 167.621, 99.864 167.445, 97.407 165.250 C 94.215 162.398, 91.541 162.389, 89.557 165.223" stroke="none" fill="black" fill-rule="evenodd"/>
</svg>