<svg xmlns="http://www.w3.org/2000/svg" width="300" height="300" viewBox="0 0 300 300" version="1.1">
	<path d="M 193.993 60.883 C 188.654 64.421, 180.636 71.942, 179.056 74.896 C 178.436 76.053, 177.383 76.998, 176.715 76.996 C 175.617 76.993, 173.101 71.826, 171.561 66.410 C 170.733 63.499, 166.375 61.276, 164.185 62.647 C 161.946 64.050, 161.473 70.510, 163.325 74.412 C 171.147 90.902, 171.985 96.359, 172.185 132.105 C 172.302 152.994, 172.010 162.132, 171.175 163.684 C 170.529 164.886, 170 167.418, 170 169.312 C 170 171.206, 169.325 174.371, 168.500 176.346 C 167.675 178.320, 167 181.274, 167 182.909 C 167 184.544, 166.550 186.160, 166 186.500 C 165.450 186.840, 164.997 188.329, 164.994 189.809 C 164.990 191.289, 164.315 193.789, 163.494 195.364 C 162.672 196.940, 162 199.212, 162 200.414 C 162 201.616, 161.628 203.027, 161.174 203.550 C 160.720 204.072, 159.751 206.401, 159.022 208.724 C 158.293 211.047, 156.954 213.747, 156.045 214.724 C 154.670 216.202, 151 222.646, 151 223.582 C 151 223.733, 151.736 224.593, 152.636 225.493 C 154.150 227.008, 154.527 226.883, 157.706 223.814 C 161.959 219.709, 168 209.947, 168 207.178 C 168 206.045, 168.450 204.840, 169 204.500 C 169.550 204.160, 170 202.777, 170 201.427 C 170 200.077, 170.395 198.191, 170.878 197.236 C 173.370 192.307, 175 187.676, 175 185.525 C 175 184.201, 175.450 182.840, 176 182.500 C 176.550 182.160, 177 179.854, 177 177.375 C 177 170.796, 178.287 169, 183 169 C 187.048 169, 190.825 166.469, 197.050 159.583 C 202.191 153.897, 202.626 155.372, 203.412 181.161 C 203.803 193.998, 204.433 209.900, 204.811 216.500 C 205.190 223.100, 205.110 233.373, 204.633 239.328 C 204.106 245.903, 204.147 253.954, 204.738 259.828 C 205.511 267.522, 205.439 269.793, 204.386 270.933 C 203.242 272.172, 202.787 272.117, 201.031 270.528 C 199.914 269.517, 199 268.076, 199 267.325 C 199 265.628, 194.835 258.938, 192.649 257.123 C 191.756 256.382, 190.334 256.042, 189.488 256.366 C 187.347 257.188, 188.168 260.880, 192.741 271 C 195.200 276.443, 204.575 287.375, 207.166 287.822 C 208.192 287.999, 210.599 287.175, 212.515 285.991 C 215.675 284.038, 215.953 283.498, 215.519 280.169 C 213.627 265.675, 213.180 255.235, 213.089 223.468 C 213.030 202.959, 212.558 185.945, 211.993 183.975 C 211.447 182.071, 210.994 171.285, 210.988 160.007 C 210.981 148.728, 210.315 132.750, 209.508 124.500 C 208.701 116.250, 208.032 105.083, 208.021 99.684 C 208.009 94.286, 207.526 88.983, 206.947 87.901 C 206.194 86.493, 206.239 84.980, 207.108 82.578 C 208.068 79.923, 208.049 77.318, 207.016 70.113 C 206.298 65.103, 205.211 60.590, 204.600 60.083 C 201.705 57.680, 198.455 57.926, 193.993 60.883 M 189 76.032 C 185.975 78.823, 182.222 81.372, 180.661 81.696 C 178.178 82.212, 177.906 82.613, 178.492 84.893 C 179.679 89.508, 180.920 100.209, 181.608 111.750 C 182.169 121.153, 182.543 122.999, 183.889 122.993 C 184.775 122.989, 188.442 119.952, 192.038 116.243 L 198.575 109.500 198.038 90.511 C 197.590 74.715, 197.248 71.475, 196 71.240 C 195.175 71.084, 192.025 73.241, 189 76.032 M 123.332 80.250 C 121.471 83.209, 119.063 91.824, 119.033 95.631 C 118.995 100.351, 116.684 102.606, 107 107.373 C 92.312 114.603, 91.600 115.154, 90.793 119.924 C 89.396 128.182, 93.528 129.152, 103.883 123 C 112.363 117.962, 114 117.872, 114 122.441 C 114 124.334, 113.550 126.160, 113 126.500 C 112.450 126.840, 112 128.448, 112 130.073 C 112 133.010, 111.787 133.616, 108.643 139.654 C 107.739 141.389, 107 143.475, 107 144.290 C 107 146.922, 102.309 154.582, 97.750 159.394 C 92.655 164.772, 95.485 173, 102.430 173 C 104.386 173, 106.271 174.131, 108.682 176.750 C 112.108 180.472, 112.130 180.555, 111.629 188 C 111.352 192.125, 110.819 196.740, 110.445 198.256 C 108.957 204.284, 114.229 205.748, 120.585 201.074 C 122.774 199.464, 125.900 197.834, 127.532 197.450 C 132.437 196.298, 142.446 192.895, 143.274 192.098 C 144.648 190.774, 140.271 187.846, 136.078 187.284 C 131.205 186.630, 130.950 185.277, 134.855 180.785 C 138.794 176.252, 143 166.060, 143 161.047 C 143 157.666, 136.621 152, 132.815 152 C 129.146 152, 123.151 155.076, 116.821 160.207 C 109.718 165.964, 106.407 165.051, 109.841 158.282 C 119.768 138.716, 120 138.183, 120 134.978 C 120 133.405, 120.450 131.840, 121 131.500 C 121.550 131.160, 122.014 129.896, 122.031 128.691 C 122.048 127.486, 123.171 124.700, 124.526 122.500 C 125.881 120.300, 126.992 116.964, 126.995 115.086 C 127.003 109.572, 129.774 104.653, 134.587 101.608 C 136.989 100.089, 140.996 96.573, 143.494 93.796 C 147.067 89.822, 147.791 88.453, 146.895 87.373 C 144.822 84.876, 140.351 85.779, 136.306 89.511 C 132.502 93.021, 129.326 93.718, 129.697 90.962 C 129.805 90.158, 130.323 87.800, 130.848 85.722 C 131.593 82.771, 131.480 81.623, 130.329 80.472 C 128.531 78.674, 124.406 78.543, 123.332 80.250 M 67 94.286 C 66.175 95.034, 62.125 97.139, 58 98.964 C 53.875 100.790, 49.571 103.119, 48.436 104.142 C 47.300 105.164, 45.249 106, 43.877 106 C 42.505 106, 40.509 106.649, 39.441 107.441 C 37.129 109.159, 38.041 111.251, 42.201 113.769 C 44.751 115.312, 45.147 115.281, 49.310 113.202 C 55.609 110.056, 56.159 110.245, 55.262 115.250 C 54.251 120.887, 54.288 138.587, 55.319 143.026 C 56.129 146.510, 56.042 146.634, 47.993 153.526 C 43.512 157.362, 37.406 161.745, 34.423 163.266 C 30.122 165.460, 29 166.531, 29 168.445 C 29 174.344, 35.075 175.667, 40.817 171.019 C 42.843 169.380, 46.475 166.438, 48.889 164.482 C 53.499 160.747, 55.736 160.434, 55.152 163.608 C 54.960 164.648, 54.428 170.450, 53.968 176.500 C 52.750 192.541, 52.152 195.022, 48.382 199.668 C 44.528 204.419, 44.385 205.133, 46.615 208.535 C 48.643 211.630, 50.092 211.635, 53.752 208.556 C 55.349 207.211, 58.923 204.619, 61.692 202.795 C 70.807 196.792, 79.855 187.193, 78.487 184.979 C 77.459 183.316, 71.656 183.910, 68.500 186 C 66.850 187.093, 64.650 187.990, 63.611 187.993 C 61.885 187.999, 61.783 187.462, 62.429 181.750 C 62.818 178.313, 63.504 171.900, 63.955 167.500 C 65.118 156.129, 66.782 151.013, 70.634 146.958 C 74.137 143.271, 75.181 138.391, 72.672 137.428 C 71.942 137.148, 70.067 137.404, 68.505 137.998 C 66.331 138.825, 65.474 138.776, 64.848 137.789 C 64.399 137.080, 64.024 130.978, 64.015 124.229 C 64 112.116, 63.968 111.942, 61.500 110.818 C 60.125 110.192, 59.030 109.414, 59.066 109.089 C 59.102 108.765, 61.915 107.107, 65.316 105.405 C 72.203 101.958, 75.222 98.169, 73.398 95.259 C 71.987 93.007, 68.925 92.542, 67 94.286 M 190.329 135.338 C 183.988 141.939, 182.077 144.635, 181.160 148.281 C 179.586 154.528, 179.666 159, 181.350 159 C 183.290 159, 189.878 154.027, 195.850 148.055 L 201 142.905 201 134.952 C 201 128.999, 200.665 127, 199.669 127 C 198.937 127, 194.734 130.752, 190.329 135.338 M 126.385 166.241 C 120.780 170.596, 120.069 172.061, 120.033 179.323 C 120.005 185.112, 120.248 186.098, 121.633 185.823 C 122.532 185.645, 124.017 184.150, 124.933 182.500 C 125.849 180.850, 127.588 177.925, 128.796 176 C 130.981 172.518, 131.932 164, 130.135 164 C 129.659 164, 127.972 165.009, 126.385 166.241" stroke="none" fill="black" fill-rule="evenodd"/>
</svg>