<svg xmlns="http://www.w3.org/2000/svg" width="300" height="300" viewBox="0 0 300 300" version="1.1">
	<path d="M 147.974 50.532 C 146.960 51.753, 146.949 52.886, 147.918 56.122 C 149.329 60.830, 148.421 61.958, 141.564 64.012 C 138.092 65.053, 137.458 64.980, 136.308 63.407 C 135.589 62.423, 135 59.748, 135 57.464 C 135 54.710, 134.384 52.752, 133.171 51.655 C 129.033 47.910, 126.754 50.850, 126.043 60.850 L 125.500 68.497 119.500 70.816 C 116.200 72.091, 111.138 74.262, 108.250 75.641 C 103.497 77.910, 103 78.457, 103 81.419 C 103 83.338, 103.769 85.386, 104.860 86.373 C 106.611 87.958, 107.255 87.876, 115.935 84.968 C 129.747 80.341, 129.400 80.106, 130 94.500 C 130.275 101.100, 130.864 107.063, 131.309 107.750 C 132.640 109.806, 135.843 109.169, 137.592 106.500 C 138.562 105.019, 140.178 104, 141.556 104 C 142.835 104, 144.128 103.602, 144.429 103.115 C 144.729 102.629, 146.983 101.930, 149.437 101.562 C 154.917 100.740, 156.026 98.422, 153.182 93.735 C 151.215 90.493, 151.177 84.627, 153.115 83.429 C 153.602 83.128, 154 81.766, 154 80.401 C 154 77.210, 157.144 71.086, 160.153 68.419 C 163.993 65.014, 169.609 62.176, 176.878 59.969 C 185.124 57.464, 187.627 54.455, 184.416 50.908 C 181.780 47.995, 176.602 48.738, 166.767 53.442 C 158.672 57.313, 157 57.347, 157 53.641 C 157 52.408, 156.460 50.860, 155.800 50.200 C 154.111 48.511, 149.488 48.707, 147.974 50.532 M 139.573 78.154 C 137.693 81.924, 137.390 92.370, 139.179 91.774 C 141.137 91.121, 143.602 85.245, 144.434 79.250 C 144.953 75.509, 144.792 75, 143.085 75 C 141.909 75, 140.527 76.241, 139.573 78.154 M 75.173 94.872 C 74.443 95.335, 73.079 96.981, 72.142 98.531 C 70.697 100.920, 69.719 101.378, 65.709 101.547 C 62.381 101.688, 59.725 102.599, 56.741 104.623 C 54.408 106.206, 50.971 107.725, 49.102 108 C 44.361 108.698, 42.952 111.234, 45.656 114.205 C 46.805 115.467, 47.956 117.175, 48.214 118 C 48.525 118.998, 49.991 119.500, 52.591 119.500 C 57.028 119.500, 56.372 117.180, 57.596 137.202 L 58.190 146.903 52.572 150.497 C 49.482 152.473, 44.930 154.958, 42.456 156.019 C 36.950 158.379, 36.194 160.077, 38.622 164.636 C 40.345 167.871, 40.789 168.116, 43.992 167.605 C 45.913 167.298, 47.617 166.650, 47.778 166.165 C 48.616 163.652, 50.827 161.919, 53.451 161.721 L 56.387 161.500 56.103 170.405 C 55.788 180.310, 54.380 184.400, 49.274 190.253 C 45.624 194.437, 45.228 196.892, 47.615 200.535 C 49.979 204.143, 52.977 203.605, 57.571 198.750 C 59.782 196.412, 63.363 193.150, 65.528 191.500 C 67.692 189.850, 71.927 186.183, 74.938 183.351 C 79.689 178.882, 80.237 177.990, 79.084 176.601 C 77.418 174.594, 73.987 174.561, 69.329 176.507 C 64.396 178.568, 62.390 177.081, 64.526 172.949 C 65.387 171.285, 66 167.360, 66 163.518 C 66 155.216, 67.701 151.138, 72.911 146.952 C 78.958 142.092, 81.730 135.878, 78.418 134.607 C 76.062 133.703, 75.563 133.827, 73.376 135.865 C 71.321 137.778, 67.626 140, 66.497 140 C 65.887 140, 66.508 123.677, 67.354 117.500 C 67.579 115.850, 67.817 113.966, 67.882 113.314 C 67.947 112.662, 69.822 111.104, 72.049 109.852 C 78.499 106.227, 82.072 98.472, 78.800 95.200 C 77.389 93.789, 76.945 93.749, 75.173 94.872 M 180.500 114.037 C 162.891 115.114, 146.670 118.263, 122 125.393 C 118.975 126.268, 110.901 128.261, 104.058 129.822 C 89.847 133.065, 88.662 133.971, 91.323 139.552 C 92.908 142.876, 93.363 143.162, 96.284 142.681 C 102.899 141.591, 109.674 139.914, 115.254 137.987 C 118.419 136.894, 121.929 136, 123.054 136 C 124.179 136, 126.440 135.307, 128.079 134.459 C 133.188 131.817, 148.139 127.820, 156.500 126.860 C 160.900 126.354, 168.550 125.417, 173.500 124.775 C 178.450 124.134, 190.251 123.585, 199.725 123.555 L 216.950 123.500 219.675 120.777 L 222.400 118.055 220.026 115.527 C 217.713 113.066, 217.324 113.004, 205.076 113.152 C 198.159 113.235, 187.100 113.633, 180.500 114.037 M 162.240 143.024 C 159.896 143.505, 156.746 144.540, 155.240 145.323 C 153.733 146.105, 150.925 147.418, 149 148.240 C 143.978 150.383, 136.717 156.676, 135.204 160.196 C 134.103 162.758, 134.144 163.571, 135.477 165.605 C 136.340 166.922, 137.386 168, 137.801 168 C 139.480 168, 143.184 164.645, 144.066 162.326 C 144.666 160.748, 145.638 159.974, 146.753 160.186 C 149.372 160.684, 149.850 169.753, 147.305 170.673 C 146.312 171.032, 144.262 172.183, 142.750 173.231 C 137.983 176.534, 139.545 182.907, 145.268 183.510 C 146.496 183.639, 147.838 183.802, 148.250 183.872 C 148.662 183.943, 149 186.169, 149 188.820 C 149 192.903, 148.453 194.279, 145.422 197.820 C 143.454 200.119, 140.979 202, 139.922 202 C 138.235 202, 137.996 201.237, 137.965 195.750 C 137.945 192.229, 137.305 188.408, 136.500 187 C 135.714 185.625, 135.055 183.312, 135.035 181.859 C 135.016 180.407, 134.110 177.257, 133.022 174.859 C 131.934 172.462, 131.034 169.349, 131.022 167.941 C 131.010 166.534, 130.339 164.509, 129.532 163.441 C 128.724 162.374, 128.049 160.107, 128.032 158.405 C 127.980 153.342, 122.366 150.034, 119.200 153.200 C 117.749 154.651, 117.599 161.634, 119 162.500 C 119.550 162.840, 120.014 164.104, 120.032 165.309 C 120.049 166.514, 120.724 168.374, 121.532 169.441 C 122.339 170.509, 123 172.331, 123 173.491 C 123 174.651, 123.397 176.027, 123.882 176.550 C 125.433 178.221, 130 193.782, 130 197.395 C 130 199.313, 130.450 201.160, 131 201.500 C 131.550 201.840, 132 203.161, 132 204.437 C 132 205.712, 132.563 207.181, 133.250 207.702 C 134.555 208.692, 141.945 211, 143.807 211 C 144.398 211, 148.495 208.525, 152.912 205.500 C 157.329 202.475, 161.856 200, 162.972 200 C 164.087 200, 165.688 199.213, 166.529 198.250 C 172.822 191.049, 175.934 186.703, 175.408 185.851 C 175.068 185.301, 175.684 183.873, 176.777 182.676 C 180.684 178.395, 182.176 161.504, 179.374 153.261 C 176.276 144.145, 171.287 141.165, 162.240 143.024 M 160.250 153.839 C 155.765 155.527, 155.396 156.280, 156.993 160.482 C 157.881 162.817, 158.356 163.024, 161.482 162.437 C 164.888 161.798, 165.029 161.902, 166.989 166.474 C 169.891 173.244, 171.516 171.975, 171.429 163.007 C 171.368 156.654, 171.062 155.469, 169.069 153.854 C 166.412 151.703, 165.930 151.703, 160.250 153.839 M 161.302 176.250 C 159.490 178.241, 158.428 181.133, 157.719 186 C 157.556 187.117, 158.702 187.577, 162.214 187.803 C 166.714 188.093, 166.991 187.956, 168.300 184.803 C 169.055 182.986, 169.471 179.813, 169.226 177.750 C 168.834 174.446, 168.458 174, 166.065 174 C 164.521 174, 162.465 174.971, 161.302 176.250 M 125.866 231.327 C 122.365 234.806, 114.379 243.160, 108.119 249.889 C 95.819 263.114, 93.639 264.917, 88.742 265.919 C 86.742 266.328, 84.976 267.570, 84.050 269.219 C 82.701 271.624, 82.736 272.051, 84.438 273.932 C 89.501 279.526, 98.524 273.685, 123.250 248.807 C 140.053 231.901, 141.865 229.265, 138.800 226.200 C 136.022 223.422, 132.360 224.873, 125.866 231.327 M 160.306 241.645 C 159.438 243.908, 161.818 245.414, 168.709 246.960 C 171.894 247.675, 177.277 249.326, 180.671 250.630 C 184.064 251.933, 187.308 253, 187.878 253 C 189.300 253, 207.142 261.079, 209 262.565 C 209.825 263.224, 211.483 264.062, 212.684 264.428 C 218.678 266.253, 254.426 289.609, 260.089 295.402 C 262.753 298.127, 263.167 298.248, 265.514 296.993 C 266.911 296.245, 268.339 294.497, 268.688 293.108 C 269.229 290.951, 268.460 289.801, 263.411 285.217 C 260.160 282.266, 254.860 278.548, 251.633 276.955 C 248.406 275.362, 241.881 271.403, 237.133 268.158 C 232.385 264.913, 226.025 260.977, 223 259.410 C 219.975 257.844, 216.053 255.589, 214.284 254.399 C 210.511 251.861, 189.718 243.346, 182.500 241.383 C 179.750 240.636, 173.773 240.018, 169.219 240.012 C 162.449 240.002, 160.822 240.300, 160.306 241.645" stroke="none" fill="black" fill-rule="evenodd"/>
</svg>