<svg xmlns="http://www.w3.org/2000/svg" width="300" height="300" viewBox="0 0 300 300" version="1.1">
	<path d="M 134.119 39.250 C 133.124 41.587, 131.995 47.316, 131.612 51.981 C 130.889 60.775, 128.776 64.987, 125.076 65.010 C 124.209 65.015, 121.061 66.155, 118.080 67.542 C 115.099 68.930, 110.385 70.393, 107.605 70.793 C 103.617 71.367, 102.283 72.046, 101.289 74.010 C 99.592 77.365, 99.675 81.485, 101.470 82.975 C 103.372 84.554, 112.428 83.394, 114.120 81.355 C 115.428 79.779, 119.785 77.753, 124.250 76.645 C 126.258 76.146, 127 76.337, 127 77.351 C 127 78.866, 124.204 87.869, 121.520 95 C 117.744 105.030, 116.622 107.762, 113.873 113.623 C 110.821 120.127, 110.393 123.273, 111.989 127.471 C 112.926 129.936, 113.252 130.041, 118.239 129.475 C 121.133 129.147, 124.413 128.698, 125.528 128.476 C 128.088 127.968, 139.159 119.445, 140.522 116.934 C 141.660 114.836, 147.837 110, 149.379 110 C 151.869 110, 159.193 114.462, 161.101 117.141 C 162.528 119.146, 163.912 120.012, 165.358 119.805 C 167.158 119.549, 167.549 118.728, 167.808 114.666 C 168.099 110.108, 167.843 109.537, 163.332 104.666 C 157.206 98.052, 147.689 93.293, 144.259 95.129 C 142.928 95.841, 141.558 97.928, 140.958 100.156 C 140.366 102.356, 138.995 104.459, 137.716 105.132 C 136.497 105.773, 134.002 108.031, 132.172 110.149 C 127.600 115.440, 125.602 115.315, 126.534 109.796 C 126.925 107.484, 128.093 103.964, 129.131 101.973 C 130.168 99.983, 131.705 95.713, 132.546 92.485 C 133.387 89.256, 134.511 86.089, 135.044 85.447 C 135.577 84.805, 136.131 82.522, 136.275 80.375 C 136.619 75.238, 140.957 68.746, 148.222 62.500 C 156.897 55.041, 160.173 47.276, 156.171 43.655 C 153.363 41.114, 151.252 41.667, 149.476 45.409 C 147.451 49.676, 144.492 52.422, 142.947 51.467 C 142.117 50.954, 141.966 48.721, 142.438 43.933 C 143.044 37.786, 142.916 37.026, 141.120 36.064 C 137.552 34.155, 135.985 34.867, 134.119 39.250 M 68.076 81.436 C 63.614 85.165, 52.095 91, 49.197 91 C 45.916 91, 45.239 92.729, 46.542 97.786 C 47.735 102.422, 47.821 102.499, 51.696 102.427 C 58.798 102.296, 75.071 92.573, 77.094 87.253 C 78.187 84.379, 75.809 78, 73.646 78 C 72.845 78, 70.338 79.546, 68.076 81.436 M 60.507 103.993 C 58.414 106.305, 58.247 109.990, 59.445 127.500 L 60.265 139.500 54.383 144.594 C 51.147 147.396, 46.848 150.232, 44.830 150.895 C 40.721 152.247, 39.563 153.388, 38.686 156.948 C 37.986 159.794, 39.463 162, 42.069 162 C 44.188 162, 55.074 155.821, 56.961 153.546 C 57.667 152.696, 58.640 152, 59.122 152 C 60.512 152, 60.058 162.095, 58.471 166.500 C 57.679 168.700, 57.023 171.050, 57.015 171.723 C 56.990 173.756, 51.781 184.309, 49.312 187.327 C 46.433 190.846, 46.262 196.022, 48.944 198.449 C 50.799 200.128, 51.106 200.127, 55.694 198.419 C 58.337 197.435, 62.525 194.967, 65 192.935 C 67.475 190.903, 71.300 188.241, 73.500 187.020 C 78.097 184.468, 84.159 180.095, 85.235 178.553 C 86.488 176.757, 86.072 170.305, 84.627 169.105 C 82.873 167.650, 80.248 168.642, 79.485 171.049 C 78.869 172.987, 68.525 180, 66.281 180 C 64.818 180, 64.541 175.881, 65.908 174.450 C 66.407 173.927, 67.034 171.250, 67.300 168.500 C 67.567 165.750, 68.258 161.700, 68.835 159.500 C 70.895 151.657, 72.194 144.918, 72.393 141.041 C 72.544 138.099, 73.277 136.570, 75.298 134.980 C 76.892 133.727, 78 131.871, 78 130.457 C 78 128.314, 77.602 128.083, 74.250 128.280 L 70.500 128.500 69.712 118.500 C 68.548 103.734, 65.330 98.663, 60.507 103.993 M 100.483 156.250 C 99.726 158.336, 100.569 166.313, 101.880 169.464 C 103.213 172.668, 102.474 184.589, 100.882 185.573 C 100.397 185.873, 100 187.386, 100 188.937 C 100 190.487, 99.325 192.315, 98.500 193 C 97.675 193.685, 96.998 195.202, 96.996 196.372 C 96.994 197.543, 96.094 199.973, 94.996 201.774 C 93.898 203.575, 92.986 205.825, 92.968 206.774 C 92.951 207.723, 92.276 209.374, 91.468 210.441 C 89.693 212.788, 89.553 217.153, 91.200 218.800 C 93.247 220.847, 96.839 220.176, 98.653 217.408 C 102.345 211.772, 110 193.074, 110 189.690 C 110 188.558, 110.956 185.657, 112.124 183.243 C 113.891 179.593, 114.174 177.562, 113.803 171.166 C 113.196 160.666, 109.681 155, 103.777 155 C 102.215 155, 100.733 155.563, 100.483 156.250 M 162.417 159.487 C 160.908 161.789, 160.915 162.661, 162.504 171.237 C 163.495 176.582, 164.323 186.633, 164.461 195 C 164.593 202.975, 165.051 210.971, 165.480 212.770 C 166.459 216.884, 170.849 220.634, 176.295 222.008 C 178.608 222.591, 181.437 223.459, 182.583 223.937 C 183.729 224.414, 191.565 224.648, 199.997 224.455 C 208.429 224.263, 216.085 224.510, 217.010 225.005 C 218.108 225.593, 219.352 225.450, 220.595 224.595 C 221.643 223.874, 224.300 222.699, 226.500 221.982 C 234.162 219.488, 236.441 217.653, 237.138 213.416 C 237.813 209.314, 236.749 206, 234.757 206 C 234.112 206, 231.859 207.685, 229.750 209.744 C 225.977 213.429, 225.749 213.501, 215.208 214.385 C 189.531 216.538, 177.619 214.381, 174.837 207.075 C 174.248 205.529, 174.133 199.857, 174.549 192.875 C 175.252 181.078, 173.856 165.595, 171.721 161.521 C 169.032 156.387, 165.022 155.510, 162.417 159.487 M 129.667 159.667 C 128.528 160.805, 128.930 165.552, 130.552 170.124 C 132.481 175.560, 132.521 181.883, 130.733 198.500 C 128.842 216.068, 128.918 217.097, 132.241 218.962 C 135.524 220.803, 137.396 219.933, 140.750 215.008 C 143.534 210.920, 143.630 206.880, 141 204.500 C 138.447 202.189, 138.231 192.848, 140.621 188.058 C 143.270 182.749, 140.942 162.893, 137.364 160.277 C 135.512 158.923, 130.785 158.548, 129.667 159.667" stroke="none" fill="black" fill-rule="evenodd"/>
</svg>