<svg xmlns="http://www.w3.org/2000/svg" width="300" height="300" viewBox="0 0 300 300" version="1.1">
	<path d="M 62.500 16.656 C 59.200 18.626, 54.475 21.918, 52 23.973 C 49.525 26.027, 46.487 28.239, 45.250 28.889 C 42.336 30.419, 42.153 35.924, 44.934 38.440 C 46.789 40.119, 47.014 40.074, 50.434 37.345 C 52.395 35.780, 54 34.158, 54 33.740 C 54 33.031, 64.329 27.970, 71.776 25.029 C 73.578 24.318, 75.991 22.416, 77.140 20.804 L 79.228 17.871 76.940 15.436 C 73.739 12.029, 69.678 12.372, 62.500 16.656 M 63.535 46.351 C 61.885 47.557, 61.811 48.193, 62.844 52.294 C 64.741 59.829, 64.344 64.328, 61.551 66.952 C 57.743 70.530, 56.320 69.123, 55.353 60.821 L 54.500 53.500 50.914 53.199 C 44.966 52.701, 44.466 54.240, 46.514 66.730 L 48.274 77.459 42.780 82.480 C 39.758 85.241, 37.010 88.287, 36.674 89.250 C 35.827 91.674, 33.493 91.437, 31.323 88.707 C 30.320 87.445, 27.449 85.008, 24.942 83.291 C 22.436 81.574, 19.793 79.456, 19.070 78.584 C 17.399 76.570, 12.365 76.525, 11.252 78.514 C 10.786 79.347, 10.592 81.633, 10.821 83.594 C 11.146 86.373, 12.127 87.804, 15.269 90.080 C 17.486 91.686, 19.753 93, 20.306 93 C 22.130 93, 28 98.071, 28 99.647 C 28 101.250, 31.618 106.950, 33.452 108.235 C 36.818 110.594, 41.160 107.900, 42.402 102.680 C 43.226 99.218, 47.136 93.026, 48.500 93.023 C 49.966 93.019, 52.997 100.819, 52.302 102.803 C 51.975 103.736, 50.602 105.698, 49.251 107.162 C 47.149 109.440, 46.894 110.414, 47.486 113.915 C 48.505 119.951, 51.306 120.259, 57.027 114.966 C 59.487 112.690, 63.978 109.295, 67.007 107.422 C 70.035 105.549, 73.410 102.798, 74.507 101.309 C 75.603 99.820, 79.537 95.205, 83.250 91.054 C 86.963 86.902, 90 82.865, 90 82.082 C 90 81.298, 90.609 79.947, 91.354 79.079 C 92.099 78.210, 93.227 74.822, 93.861 71.549 L 95.014 65.598 91.365 61.862 C 86.193 56.565, 82.734 55.289, 79.425 57.457 C 76.195 59.574, 74 58.818, 74 55.590 C 74 54.231, 73.550 52.840, 73 52.500 C 72.450 52.160, 72 50.874, 72 49.641 C 72 45.307, 67.405 43.521, 63.535 46.351 M 149.677 56.371 C 147.393 59.857, 130.686 73.041, 124.500 76.239 C 119.091 79.036, 111.408 82.910, 109 84.055 C 106.915 85.047, 107.240 91.971, 109.448 93.586 C 111.686 95.222, 115.555 94.059, 121.005 90.111 C 128.110 84.964, 130.286 86.742, 125.500 93.785 C 124.035 95.941, 123 98.884, 123 100.892 C 123 107.053, 119.948 133.730, 117.407 149.785 C 113.945 171.654, 113.886 171.953, 112.890 172.568 C 112.400 172.871, 112 174.599, 112 176.410 C 112 179.754, 110.327 185.830, 108.996 187.318 C 108.218 188.187, 96.526 184.784, 91.500 182.225 C 89.850 181.385, 84.788 180.484, 80.250 180.223 L 72 179.749 72 175.575 C 72 173.279, 71.540 170.940, 70.979 170.379 C 70.417 169.817, 69.854 165.923, 69.729 161.725 L 69.500 154.093 74.462 149.046 C 77.192 146.271, 79.920 144, 80.525 144 C 81.131 144, 82.919 142.650, 84.500 141 C 86.081 139.350, 87.917 138, 88.580 138 C 90.363 138, 91.143 135.135, 89.961 132.928 C 88.393 129.997, 82.414 130.391, 77.435 133.754 C 71.597 137.698, 64.478 143.687, 58.275 149.873 C 49.707 158.419, 39.687 165.654, 30.247 170.112 C 25.436 172.384, 20.825 174.589, 20 175.012 C 18.131 175.971, 18.378 182.806, 20.353 184.781 C 21.505 185.933, 22.244 185.925, 25.108 184.728 C 26.974 183.948, 29.118 182.565, 29.872 181.655 C 30.627 180.745, 32.029 180, 32.988 180 C 33.946 180, 35.803 179.213, 37.115 178.250 C 38.427 177.287, 41.163 175.655, 43.197 174.621 C 45.230 173.588, 47.896 171.675, 49.121 170.371 C 50.346 169.067, 51.808 168, 52.370 168 C 52.931 168, 54.648 166.795, 56.185 165.323 C 57.722 163.850, 59.252 162.918, 59.585 163.251 C 60.680 164.347, 58.972 169.549, 56.697 172.048 C 55.468 173.397, 48.999 180.800, 42.321 188.500 C 27.914 205.110, 18.120 215.356, 15.799 216.247 C 13.384 217.174, 10.846 221.436, 11.577 223.340 C 11.919 224.231, 13.824 225.410, 15.810 225.958 C 21.003 227.392, 23.721 225.322, 35.500 210.969 C 42.798 202.076, 56.934 188, 58.567 188 C 61.815 188, 62.276 190.756, 61.117 203.255 C 57.911 237.809, 58.680 245.382, 65.050 241.973 C 68.451 240.153, 69.026 237.329, 69.465 220.286 C 69.910 203.003, 70.938 192.528, 72.423 190.125 C 73.479 188.415, 84.042 189.284, 89.394 191.520 C 91.342 192.334, 94.039 193, 95.387 193 C 98.782 193, 103.986 196.146, 103.994 198.203 C 103.997 199.140, 103.469 201.071, 102.820 202.495 C 101.801 204.733, 101.934 205.378, 103.799 207.243 C 106.690 210.135, 110.579 208.767, 113.018 204 C 115.973 198.225, 119.299 187.794, 119.714 183 C 119.929 180.525, 120.497 177.600, 120.977 176.500 C 121.457 175.400, 122.063 173.375, 122.325 172 C 122.587 170.625, 123.520 166.891, 124.400 163.701 C 125.280 160.512, 126 156.430, 126 154.629 C 126 152.829, 126.641 149.364, 127.424 146.928 C 128.208 144.493, 129.565 136.200, 130.440 128.500 C 131.315 120.800, 132.515 110.266, 133.106 105.091 C 133.698 99.916, 134.678 94.887, 135.285 93.915 C 136.098 92.614, 136.074 91.457, 135.194 89.527 C 133.193 85.135, 133.777 83.283, 138.097 80.315 C 140.351 78.767, 144.831 75.362, 148.054 72.750 C 151.276 70.138, 154.574 68, 155.384 68 C 157.045 68, 160.588 63.872, 161.563 60.800 C 162.433 58.060, 159.347 55.093, 154.872 54.367 C 151.879 53.881, 151.115 54.176, 149.677 56.371 M 75.250 71.584 C 73.463 72.992, 72 74.793, 72 75.586 C 72 76.379, 71.588 77.809, 71.084 78.764 C 69.334 82.082, 67.150 87.516, 66.469 90.250 C 65.816 92.870, 65.954 93, 69.404 93 C 72.715 93, 73.343 92.508, 76.738 87.250 C 81.620 79.688, 84.355 72.133, 82.862 70.333 C 81.210 68.343, 78.875 68.726, 75.250 71.584 M 163.165 99.301 C 161.826 100.914, 165.185 112.447, 167.879 115.483 C 168.863 116.593, 170.933 119.750, 172.480 122.500 C 174.027 125.250, 177.188 129.750, 179.504 132.500 C 181.820 135.250, 184.015 138.453, 184.383 139.618 C 184.750 140.783, 185.940 142.540, 187.026 143.523 C 188.111 144.506, 189 145.945, 189 146.722 C 189 147.498, 190.014 149.566, 191.253 151.317 C 194.906 156.479, 195.884 158.160, 199.218 165 C 200.961 168.575, 204.775 175.495, 207.693 180.378 C 210.612 185.261, 213 189.846, 213 190.569 C 213 191.291, 213.422 192.142, 213.937 192.461 C 215.388 193.358, 217.997 199.069, 218.022 201.404 C 218.034 202.557, 218.924 204.625, 220 206 C 221.076 207.375, 221.966 208.915, 221.978 209.421 C 221.990 209.928, 222.617 211.053, 223.372 211.921 C 224.126 212.790, 227.573 219.125, 231.031 226 C 239.690 243.214, 239.535 242.875, 241.424 248.673 C 242.351 251.518, 243.760 254.386, 244.555 255.045 C 245.350 255.705, 246 256.916, 246 257.736 C 246 260.243, 250.241 266.942, 252.227 267.572 C 255.120 268.490, 259.002 265.420, 258.985 262.227 C 258.968 258.883, 256.321 251.040, 254.522 249 C 253.795 248.175, 252.488 245.925, 251.620 244 C 250.751 242.075, 249.637 239.825, 249.144 239 C 246.427 234.453, 240 220.804, 240 219.582 C 240 218.796, 238.967 216.881, 237.705 215.327 C 236.443 213.772, 234.543 210.475, 233.483 208 C 232.423 205.525, 230.117 201.216, 228.359 198.425 C 225.165 193.354, 221.870 187.714, 219.349 183 C 218.614 181.625, 218.010 179.495, 218.006 178.268 C 218.003 177.040, 216.135 172.990, 213.855 169.268 C 209.900 162.809, 205.671 155.357, 201.905 148.204 C 200.950 146.392, 199.586 144.206, 198.874 143.348 C 197.166 141.291, 195.488 138.388, 193.171 133.486 C 192.127 131.278, 190.531 128.855, 189.623 128.102 C 188.715 127.349, 185.702 123.080, 182.928 118.616 C 172.394 101.670, 169.479 98, 166.546 98 C 165.281 98, 163.759 98.585, 163.165 99.301 M 141.444 111.417 C 139.776 112.637, 139.471 114.275, 139.251 123.167 C 138.929 136.183, 138.214 143.937, 137.098 146.500 C 136.620 147.600, 135.771 150.300, 135.213 152.500 C 134.655 154.700, 133.217 160.325, 132.017 165 C 127.596 182.225, 126.588 189.368, 128.125 192.588 C 129.978 196.471, 133.631 196.829, 138.625 193.617 C 140.756 192.246, 143.081 190.534, 143.792 189.812 C 146.924 186.632, 152.709 178.202, 153.957 175 C 154.707 173.075, 155.611 171.160, 155.967 170.743 C 156.991 169.544, 161.461 175.070, 163.453 180 C 168.568 192.658, 170.059 195, 173 195 C 173.930 195, 175.506 194.098, 176.504 192.996 C 178.116 191.214, 178.178 190.521, 177.062 186.746 C 176.372 184.411, 175.422 181.825, 174.953 181 C 174.483 180.175, 173.133 177.475, 171.953 175 C 163.488 157.247, 162.772 156.063, 159.226 153.971 C 156.333 152.264, 155.170 152.057, 153.286 152.915 C 151.998 153.502, 150.785 154.549, 150.590 155.241 C 150.395 155.934, 149.673 158.525, 148.985 161 C 147.285 167.117, 141.788 178.308, 140.250 178.782 C 138.794 179.230, 138.540 174.896, 139.866 172.236 C 141.404 169.152, 143.217 163.578, 143.682 160.500 C 143.932 158.850, 144.506 156.600, 144.958 155.500 C 146.296 152.246, 148.869 139.133, 149.963 130 C 151.235 119.370, 150.503 114.541, 147.229 111.965 C 144.248 109.620, 143.941 109.591, 141.444 111.417 M 67.200 116.200 C 66.540 116.860, 66 118.191, 66 119.157 C 66 120.130, 62.960 123.341, 59.192 126.347 C 53.912 130.559, 51.110 132.043, 46.704 132.958 C 40.443 134.257, 39.142 135.610, 39.806 140.131 C 40.360 143.903, 44.138 146.019, 47.061 144.194 C 48.112 143.537, 50.077 143, 51.427 143 C 53.848 143, 67.997 134.062, 73.150 129.278 C 74.607 127.925, 76.013 125.396, 76.274 123.659 C 77.169 117.702, 70.873 112.527, 67.200 116.200" stroke="none" fill="black" fill-rule="evenodd"/>
</svg>