<svg xmlns="http://www.w3.org/2000/svg" width="300" height="300" viewBox="0 0 300 300" version="1.1">
	<path d="M 179.201 21.258 C 178.627 21.950, 177.487 24.460, 176.668 26.837 C 175.454 30.361, 175.277 35.302, 175.708 53.639 L 176.236 76.120 173.868 78.672 C 172.566 80.077, 169.250 82.547, 166.500 84.162 C 160.099 87.922, 150.270 95.757, 147.794 99.075 C 145.646 101.952, 145.992 105.036, 148.893 108.867 C 151.548 112.373, 153.834 111.151, 165.216 100.144 C 170.700 94.840, 175.708 90.500, 176.344 90.500 C 177.131 90.500, 177.719 94.970, 178.186 104.500 C 178.854 118.114, 178.042 126, 175.973 126 C 175.451 126, 174.734 127.810, 174.380 130.022 C 174.027 132.234, 173.346 134.286, 172.869 134.581 C 172.391 134.876, 171.990 135.879, 171.978 136.809 C 171.966 137.739, 171.076 139.625, 170 141 C 168.924 142.375, 168.034 144.084, 168.022 144.799 C 168.010 145.513, 166.125 148.888, 163.834 152.299 C 161.543 155.709, 158.731 159.943, 157.584 161.708 C 155.048 165.611, 153.441 165.714, 145.377 162.487 C 136.419 158.904, 130.832 158.321, 126.060 160.473 C 123.923 161.436, 121.581 162.027, 120.854 161.785 C 119.517 161.339, 118.642 141.272, 118.662 111.500 C 118.674 93.921, 118.503 94.452, 127.259 84.936 C 131.517 80.309, 135 75.715, 135 74.726 C 135 73.738, 135.703 71.857, 136.561 70.546 C 138.623 67.400, 138.127 60.097, 135.750 58.607 C 133.441 57.160, 130.674 58.866, 130 62.153 C 129.269 65.721, 119.957 77.138, 118.072 76.778 C 116.791 76.534, 116.130 72.869, 114.500 56.989 L 112.500 37.500 110.008 37.500 C 108.093 37.500, 107.092 38.400, 105.686 41.386 C 103.638 45.735, 103.698 50.831, 106.064 73.312 C 106.998 82.196, 107.096 86.642, 106.384 87.812 C 105.075 89.962, 82.899 106.887, 81.307 106.952 C 79.265 107.034, 77 111.279, 77 115.023 C 77 121.772, 80.625 122.709, 87.820 117.818 C 92.587 114.578, 99.885 108.932, 103.461 105.719 C 106.935 102.598, 108.492 103.908, 108.573 110.020 C 108.612 113.034, 108.779 118.200, 108.942 121.500 C 109.409 130.946, 109.221 132, 107.071 132 C 103.949 132, 102.288 134.537, 101.551 140.434 C 101.171 143.478, 100.442 146.227, 99.930 146.543 C 99.419 146.859, 99 147.811, 99 148.658 C 99 151.382, 93.246 163.854, 88.442 171.541 C 86.710 174.314, 84.536 178.139, 83.613 180.041 C 82.690 181.944, 80.801 184.789, 79.416 186.365 C 77.356 188.709, 76.356 189.121, 73.911 188.632 C 71.616 188.173, 70.800 188.436, 70.389 189.767 C 70.095 190.720, 69.437 192.281, 68.927 193.236 C 68.417 194.191, 68 195.863, 68 196.951 C 68 201.964, 78.434 201.875, 82.284 196.830 C 83.503 195.233, 85.665 192.481, 87.089 190.713 C 91.305 185.480, 98.376 173.939, 101.311 167.500 C 105.952 157.319, 106.495 156.510, 108.917 156.163 C 111.049 155.857, 111.197 156.088, 110.512 158.663 C 110.098 160.223, 109.603 164.875, 109.413 169 C 109.223 173.125, 108.536 185.500, 107.886 196.500 C 106.779 215.221, 106.551 216.683, 104.316 219.370 C 102.170 221.948, 101.993 222.862, 102.568 228.370 C 103.247 234.875, 105.432 242.611, 107.187 244.725 C 108.786 246.652, 111.412 246.260, 113.725 243.750 C 115.682 241.626, 115.836 239.935, 116.477 213.500 C 116.850 198.100, 117.538 182.120, 118.006 177.990 C 118.475 173.859, 118.777 169.646, 118.679 168.628 C 118.413 165.874, 121.497 164.205, 123.983 165.757 C 125.077 166.441, 126.731 167, 127.658 167 C 128.584 167, 130.106 167.691, 131.040 168.536 C 131.974 169.381, 135.609 170.583, 139.119 171.207 C 142.628 171.831, 146.063 172.770, 146.750 173.293 C 148.795 174.850, 148.090 178.110, 144.187 185.154 C 142.159 188.814, 139.025 194.457, 137.223 197.694 C 135.420 200.931, 132.827 204.786, 131.459 206.261 C 126.529 211.577, 126.508 216, 131.412 216 C 133.857 216, 142 208.243, 142 205.914 C 142 204.996, 142.741 203.630, 143.646 202.879 C 146.337 200.645, 154.646 187.542, 157.656 180.785 C 160.409 174.605, 162.073 171.952, 170.066 161 C 172.274 157.975, 174.501 154.488, 175.015 153.250 C 175.530 152.013, 176.688 151, 177.589 151 C 178.889 151, 179.108 151.671, 178.650 154.250 C 178.333 156.037, 177.811 165.565, 177.490 175.421 C 177.169 185.278, 176.680 193.708, 176.404 194.155 C 176.128 194.602, 175.715 198.237, 175.486 202.234 C 174.759 214.952, 173.801 235.274, 173.605 242.147 C 173.500 245.804, 172.842 249.485, 172.142 250.329 C 171.405 251.217, 170.669 255.796, 170.393 261.218 C 169.939 270.158, 170.027 270.676, 172.374 272.881 C 174.125 274.527, 175.454 274.991, 177.006 274.498 C 179.702 273.642, 182.249 267.841, 181.405 264.479 C 181.060 263.101, 181.231 261.417, 181.786 260.737 C 182.342 260.057, 183.109 250.275, 183.492 239 C 183.875 227.725, 184.341 216.250, 184.527 213.500 C 184.714 210.750, 185.164 201.975, 185.528 194 C 185.892 186.025, 186.380 177.925, 186.612 176 C 186.845 174.075, 187.034 171.510, 187.033 170.300 C 187.032 169.089, 187.501 167.808, 188.076 167.453 C 189.291 166.702, 194.006 168.460, 199 171.526 C 200.925 172.708, 203.971 173.964, 205.769 174.316 C 207.567 174.669, 209.898 175.759, 210.950 176.738 C 213.874 179.463, 228.094 186.263, 244 192.542 C 249.225 194.604, 254.850 197.292, 256.500 198.515 C 258.150 199.737, 260.850 201.057, 262.500 201.447 C 264.150 201.837, 266.255 202.836, 267.178 203.668 C 269.508 205.767, 272.621 204.525, 273.848 201.007 C 275.253 196.977, 272.726 194, 265.865 191.604 C 262.914 190.574, 258.250 188.489, 255.500 186.971 C 252.750 185.453, 249.086 183.914, 247.358 183.550 C 245.630 183.186, 242.255 181.654, 239.858 180.145 C 237.461 178.636, 232.930 176.366, 229.789 175.101 C 226.648 173.835, 223.575 172.193, 222.959 171.451 C 222.344 170.709, 220.189 169.575, 218.170 168.931 C 216.152 168.286, 212.025 166.520, 209 165.005 C 203.811 162.407, 193.606 157.984, 189.750 156.663 C 188.161 156.118, 187.991 154.100, 187.898 134.781 C 187.842 123.077, 187.729 106.255, 187.648 97.401 L 187.500 81.302 192.202 75.901 C 194.788 72.930, 200.742 66.450, 205.433 61.500 C 216.302 50.031, 217.138 48.181, 213.570 43.502 C 212.100 41.576, 210.221 40, 209.393 40 C 207.211 40, 201.914 46.155, 202.502 48.008 C 202.813 48.985, 201.084 51.443, 197.910 54.538 C 195.110 57.267, 192.417 60.524, 191.925 61.776 C 190.889 64.409, 188.303 65.703, 186.893 64.293 C 186.337 63.737, 185.881 55.017, 185.829 43.910 C 185.759 29.205, 185.399 23.955, 184.345 22.250 C 182.795 19.744, 180.780 19.355, 179.201 21.258 M 50.750 82.080 C 49.788 82.641, 49 83.719, 49 84.477 C 49 85.752, 47.004 87.640, 42.366 90.752 C 30.172 98.931, 27.361 100.633, 24.750 101.414 C 21.912 102.263, 22.541 107.186, 25.898 110.403 C 28.311 112.714, 29.138 112.997, 30.833 112.090 C 37.315 108.620, 39 113.243, 39 134.503 L 39 150.763 35.567 153.381 C 33.678 154.822, 31.846 156, 31.495 156 C 31.144 156, 30.170 156.687, 29.330 157.527 C 28.284 158.574, 26.792 158.864, 24.588 158.450 C 21.225 157.820, 18.191 159.882, 19.460 161.936 C 19.808 162.498, 19.590 163.897, 18.977 165.043 C 16.495 169.681, 24.014 171.900, 29 168 C 30.375 166.924, 31.915 166.034, 32.421 166.022 C 32.928 166.010, 34.137 165.281, 35.108 164.402 C 36.079 163.523, 37.413 163.137, 38.072 163.544 C 40.169 164.840, 37.893 182.321, 34.432 191.500 C 34.018 192.600, 31.460 195.879, 28.748 198.786 L 23.818 204.073 25.584 206.786 C 27.749 210.114, 30.016 211.935, 32 211.941 C 32.825 211.944, 36.425 209.282, 40 206.025 C 43.575 202.768, 47.625 199.523, 49 198.814 C 53.037 196.732, 61 189.801, 61 188.369 C 61 187.644, 62.293 186.383, 63.873 185.566 C 66.886 184.008, 67.964 181.595, 67.986 176.357 C 68.008 171.261, 65.362 171.268, 60.611 176.377 C 56.039 181.293, 49.504 186, 47.251 186 C 46.104 186, 45.924 185.178, 46.432 182.250 C 46.790 180.188, 47.431 175.125, 47.857 171 C 48.283 166.875, 49.164 162.517, 49.816 161.316 C 50.467 160.114, 51 158.280, 51 157.240 C 51 155.137, 54.093 151.963, 58.180 149.872 C 61.503 148.171, 66 141.695, 66 138.611 C 66 136.008, 63.162 133, 60.706 133 C 59.807 133, 58.548 134.012, 57.910 135.250 C 56.021 138.913, 52.782 142, 50.826 142 C 49.255 142, 48.976 141.056, 48.828 135.250 C 48.543 124.076, 49.156 114.577, 50.247 113.231 C 50.977 112.331, 50.800 111.437, 49.638 110.153 C 46.711 106.918, 47.658 104.030, 53.500 98.372 C 58.339 93.685, 59 92.570, 59 89.095 C 59 86.019, 58.417 84.687, 56.365 83.073 C 53.374 80.720, 53.153 80.681, 50.750 82.080" stroke="none" fill="black" fill-rule="evenodd"/>
</svg>