<svg xmlns="http://www.w3.org/2000/svg" width="300" height="300" viewBox="0 0 300 300" version="1.1">
	<path d="M 99.200 1.200 C 97.519 2.881, 97.705 5.673, 99.545 6.379 C 101.479 7.121, 104 13.008, 104 16.781 C 104 18.345, 102.848 22.014, 101.439 24.934 C 99.036 29.917, 98.798 33, 100.819 33 C 102.619 33, 110.102 26.858, 110.908 24.717 C 114.849 14.262, 115.113 9.150, 111.972 4.060 C 109.679 0.344, 109.170 0.052, 104.950 0.027 C 102.448 0.012, 99.860 0.540, 99.200 1.200 M 142.819 23.250 C 139.362 26.138, 135.790 28.950, 134.881 29.500 C 133.972 30.050, 129.971 32.525, 125.991 35 C 122.011 37.475, 116.481 40.752, 113.703 42.281 C 110.925 43.811, 106.558 46.567, 104 48.405 C 100.990 50.567, 96.727 52.364, 91.924 53.496 C 87.841 54.458, 82.925 55.924, 81 56.754 C 74.659 59.488, 67.598 60.976, 60.905 60.988 C 53.565 61.001, 51 62.612, 51 67.206 C 51 71.714, 52.986 72.388, 62.247 71.022 C 66.786 70.352, 71.534 69.398, 72.797 68.902 C 78.384 66.708, 78.246 66.118, 77.670 89.750 C 77.151 111, 76.012 124.444, 74.046 132.500 C 73.510 134.700, 72.397 139.425, 71.574 143 C 70.751 146.575, 69.782 150.744, 69.420 152.265 C 69.057 153.785, 68.365 155.274, 67.881 155.574 C 67.396 155.873, 67 157.064, 67 158.221 C 67 160.571, 64.269 170.553, 62.891 173.236 C 62.401 174.191, 62 175.864, 62 176.953 C 62 178.041, 61.263 180.635, 60.361 182.716 C 59.460 184.797, 58.360 187.400, 57.916 188.500 C 53.161 200.287, 50.224 205.014, 43.775 211.259 C 39.669 215.235, 39.651 216.537, 43.681 218.069 C 45.639 218.813, 46.732 218.574, 48.833 216.940 C 54.120 212.828, 59.536 207.233, 60.977 204.395 C 61.786 202.803, 63.247 200.427, 64.224 199.115 C 65.201 197.803, 66 195.527, 66 194.056 C 66 192.586, 66.661 190.509, 67.468 189.441 C 68.276 188.374, 68.951 186.669, 68.968 185.654 C 68.986 184.639, 69.629 182.614, 70.398 181.154 C 71.166 179.694, 72.338 176.475, 73.002 174 C 73.665 171.525, 74.611 168.466, 75.104 167.203 C 75.597 165.940, 76 163.722, 76 162.274 C 76 159.452, 77.413 154.351, 79.538 149.500 C 80.261 147.850, 81.090 145.150, 81.379 143.500 C 83.354 132.256, 83.217 132.501, 87.526 132.493 C 91.174 132.487, 96.352 129.618, 100.146 125.500 C 101.511 124.018, 107.552 113.661, 112.686 104 C 115.170 99.325, 117.945 94.725, 118.851 93.778 C 121.516 90.994, 133.661 91.360, 142 94.476 C 143.925 95.195, 150.104 96.515, 155.732 97.409 C 167.530 99.285, 171 100.401, 171 102.320 C 171 103.074, 171.796 104.411, 172.770 105.292 C 174.978 107.290, 181.307 106.137, 184.244 103.201 C 186.030 101.414, 186.066 101.028, 184.691 98.369 C 182.078 93.316, 170.546 88.627, 155.442 86.477 C 152.724 86.090, 146.900 84.869, 142.500 83.765 C 133.298 81.455, 131.742 81.318, 127.135 82.411 L 123.770 83.209 124.250 79.355 C 124.679 75.911, 125.540 73.019, 128.078 66.500 C 128.506 65.400, 129.131 62.830, 129.466 60.788 C 130.211 56.259, 127.553 53, 123.115 53 C 119.170 53, 117.449 56.017, 116.693 64.262 C 116.046 71.319, 114.256 78.822, 112.831 80.450 C 112.374 80.972, 112 82.380, 112 83.578 C 112 84.775, 111.325 86.315, 110.500 87 C 109.675 87.685, 109 89.260, 109 90.500 C 109 91.740, 108.336 93.306, 107.524 93.980 C 106.713 94.654, 104.912 97.608, 103.522 100.545 C 102.133 103.481, 100.605 106.126, 100.128 106.421 C 99.651 106.716, 98.006 109.436, 96.473 112.466 C 94.940 115.495, 92.857 118.725, 91.843 119.642 C 90.829 120.559, 90 121.948, 90 122.728 C 90 123.543, 89.255 124.001, 88.250 123.803 C 86.805 123.520, 86.538 122.506, 86.717 117.980 C 86.836 114.966, 87.129 102.234, 87.369 89.686 C 87.868 63.610, 87.555 64.554, 96.703 61.530 C 103.331 59.339, 118.235 51.627, 120.037 49.456 C 120.701 48.655, 122.002 48, 122.928 48 C 123.854 48, 126.161 46.836, 128.056 45.413 C 129.950 43.991, 135.218 40.384, 139.763 37.399 C 150.007 30.670, 156 25.333, 156 22.940 C 156 21.055, 152.493 18, 150.329 18 C 149.655 18, 146.276 20.362, 142.819 23.250 M 119.094 106.386 C 118.462 107.149, 117.709 110.861, 117.423 114.636 C 116.639 124.956, 114.426 131.546, 108.350 141.650 C 104.389 148.237, 102.939 151.598, 103.174 153.650 C 103.709 158.327, 106.891 157.827, 112.868 152.126 C 117.133 148.058, 117.968 146.721, 117.475 144.754 C 117.083 143.195, 117.421 141.896, 118.436 141.053 C 119.296 140.339, 120 139.330, 120 138.811 C 120 138.291, 121.160 136.345, 122.579 134.485 C 123.997 132.626, 125.290 129.618, 125.453 127.802 C 125.893 122.873, 127.055 116.897, 128.265 113.334 C 129.138 110.765, 129.022 109.683, 127.647 107.584 C 125.750 104.688, 121.050 104.030, 119.094 106.386 M 50.393 121.326 C 48.134 122.522, 45.546 124.118, 44.643 124.872 C 42.316 126.816, 42.607 130.611, 45.223 132.443 C 47.723 134.195, 52.561 134.520, 53.500 133 C 53.840 132.450, 55.165 132, 56.444 132 C 59.003 132, 62 128.282, 62 125.108 C 62 123.092, 57.606 118.940, 55.615 119.076 C 55.002 119.118, 52.652 120.130, 50.393 121.326 M 141.250 129.085 C 139.650 129.690, 139 130.750, 139 132.756 C 139 134.307, 137.905 137.584, 136.566 140.038 C 135.228 142.492, 133.399 146.017, 132.502 147.872 C 131.605 149.726, 129.775 152.980, 128.436 155.102 C 127.096 157.224, 126 159.644, 126 160.480 C 126 161.316, 125.621 162, 125.157 162 C 123.618 162, 119.220 172.431, 116.340 182.913 C 114.943 187.995, 114.970 188.484, 116.777 190.913 C 117.835 192.336, 119.704 193.649, 120.930 193.830 C 123.152 194.159, 128.253 191.302, 133 187.070 C 136.214 184.205, 147.727 180.177, 153.791 179.796 L 158.500 179.500 158.292 183.943 C 158.017 189.799, 156.820 192.656, 149.849 204.104 C 146.632 209.386, 144 214.176, 144 214.747 C 144 215.319, 143.391 216.020, 142.647 216.305 C 141.902 216.591, 140.307 218.716, 139.102 221.028 C 133.901 231.006, 100.536 267.152, 91.801 272.271 C 86.610 275.313, 80.663 276.535, 75.635 275.591 C 72.947 275.087, 71.939 274.263, 71.114 271.898 C 70.305 269.576, 69.538 268.931, 67.879 269.177 C 64.304 269.708, 63.417 272.251, 65.370 276.368 C 66.311 278.351, 68.045 280.489, 69.222 281.119 C 71.974 282.591, 81.684 284.918, 85.270 284.964 C 88.938 285.012, 99.869 280.518, 102.217 277.998 C 103.240 276.899, 104.460 276, 104.926 276 C 106.521 276, 142.513 235.803, 145 231.245 C 145.825 229.733, 149.088 225.062, 152.250 220.865 C 155.413 216.669, 158 212.737, 158 212.128 C 158 211.519, 160.101 207.753, 162.669 203.760 C 167.259 196.623, 168.248 193.834, 169.987 183.131 C 170.986 176.985, 170.287 174.500, 166.592 171.063 C 164.581 169.192, 162.565 168.524, 157.912 168.187 C 154.180 167.917, 151.419 168.181, 150.726 168.874 C 150.107 169.493, 148.388 170, 146.907 170 C 145.426 170, 143.977 170.618, 143.687 171.374 C 143.397 172.129, 141.596 173.041, 139.685 173.399 C 137.774 173.758, 134.526 175.390, 132.468 177.026 C 127.891 180.663, 125.513 180.945, 126.370 177.750 C 126.701 176.512, 126.979 174.466, 126.986 173.202 C 126.994 171.938, 128.125 169.862, 129.500 168.588 C 130.875 167.313, 132 165.866, 132 165.372 C 132 164.878, 133.575 162.135, 135.500 159.276 C 137.425 156.418, 139 153.656, 139 153.140 C 139 152.624, 140.579 149.854, 142.510 146.985 C 146.881 140.489, 147.435 138.329, 146.048 133.177 C 144.756 128.379, 144.253 127.950, 141.250 129.085 M 58.438 143.265 C 51.708 147.297, 48.939 149.647, 44.028 155.490 C 41.019 159.070, 38.275 162, 37.932 162 C 37.320 162, 30.554 168.616, 22.398 177.188 C 20.142 179.560, 18.016 182.293, 17.675 183.262 C 16.907 185.439, 18.743 189.687, 20.791 190.473 C 22.574 191.158, 29.687 186.511, 30.492 184.136 C 30.797 183.236, 33.286 180.118, 36.023 177.208 C 38.760 174.297, 41 171.526, 41 171.051 C 41 170.575, 43.812 166.824, 47.250 162.715 C 53.465 155.285, 61.197 144.816, 61.833 142.968 C 62.285 141.655, 60.926 141.774, 58.438 143.265" stroke="none" fill="black" fill-rule="evenodd"/>
</svg>