<svg xmlns="http://www.w3.org/2000/svg" width="300" height="300" viewBox="0 0 300 300" version="1.1">
	<path d="M 79.965 1.934 C 80.534 2.998, 81 5.700, 81 7.938 C 81 11.915, 81.074 12.002, 84.250 11.754 C 86.585 11.571, 87.500 11.922, 87.500 13 C 87.500 13.959, 86.689 14.414, 85.250 14.262 C 82.735 13.996, 82.555 14.857, 84.019 20.128 C 84.573 22.124, 85.471 28.424, 86.014 34.128 C 87.570 50.477, 88.776 59.829, 89.474 60.958 C 89.828 61.531, 91.453 62, 93.084 62 C 95.327 62, 96.281 62.609, 97 64.500 C 97.523 65.875, 98.606 67, 99.407 67 C 101.288 67, 105 72.208, 105 74.845 C 105 75.965, 105.450 77.160, 106 77.500 C 106.550 77.840, 107 80.068, 107 82.452 C 107 87.174, 107.389 86.841, 98.065 90.112 C 91.926 92.267, 91.041 91.779, 91.015 86.229 C 91.003 83.691, 90.422 82.694, 88.422 81.783 C 84.066 79.798, 82.500 81.693, 82.500 88.951 L 82.500 95.161 75 97.585 C 66.505 100.331, 57.691 102.465, 50.832 103.437 C 48.264 103.800, 45.626 104.746, 44.968 105.538 C 43.614 107.170, 44.440 113.536, 46.143 114.589 C 47.346 115.332, 60.422 113.489, 66.500 111.719 C 68.700 111.078, 72.300 109.535, 74.500 108.289 C 78.850 105.826, 84.891 105.291, 86.800 107.200 C 87.460 107.860, 88 109.408, 88 110.641 C 88 111.874, 88.450 113.160, 89 113.500 C 89.550 113.840, 90 115.225, 90 116.579 C 90 119.159, 93.608 125.600, 96.309 127.841 C 97.178 128.563, 98.927 129.006, 100.195 128.827 C 102.174 128.546, 102.482 127.953, 102.376 124.637 C 102.308 122.512, 101.858 120.487, 101.376 120.137 C 99.780 118.977, 98 115.062, 98 112.714 C 98 111.441, 97.519 109.919, 96.932 109.332 C 96.344 108.744, 96.007 106.517, 96.182 104.383 C 96.461 100.984, 96.977 100.279, 100.352 98.695 C 102.471 97.701, 105.171 97.026, 106.352 97.194 C 108.299 97.471, 108.584 98.381, 109.400 106.894 C 110.194 115.182, 110.084 116.689, 108.465 119.695 C 106.717 122.941, 106.712 123.242, 108.360 126.033 C 110.493 129.643, 109.159 133, 105.591 133 C 104.304 133, 101.282 133.697, 98.876 134.550 C 96.469 135.402, 89.325 136.977, 83 138.049 C 60.134 141.924, 45.161 146.740, 37.250 152.763 C 33.388 155.703, 33.228 156.926, 36.324 159.834 L 38.648 162.018 50.574 157.376 C 62.809 152.615, 72.692 149.638, 81.500 148.061 C 84.250 147.568, 88.975 146.518, 92 145.727 C 104.704 142.403, 108.189 141.789, 109.114 142.714 C 109.633 143.233, 110.184 148.063, 110.338 153.448 C 110.651 164.370, 110.497 164.708, 103.646 168.146 C 101.366 169.290, 98.600 171.021, 97.500 171.993 C 96.394 172.971, 93.266 173.971, 90.500 174.232 C 85.828 174.673, 64.581 181.461, 59 184.297 C 56.037 185.802, 55.365 188.750, 57.363 191.481 C 58.790 193.434, 58.856 193.433, 66.650 191.340 C 70.968 190.181, 79 187.569, 84.500 185.534 C 90 183.500, 96.750 181.132, 99.500 180.273 C 102.250 179.413, 105.493 178.061, 106.706 177.269 C 107.919 176.476, 109.305 176.070, 109.784 176.367 C 110.757 176.968, 110.521 254.440, 109.470 279.648 C 108.821 295.187, 108.875 295.875, 110.898 297.898 C 113.356 300.356, 113.869 300.414, 116.381 298.512 C 117.625 297.570, 118.397 295.473, 118.659 292.319 C 118.938 288.971, 119.797 286.778, 121.542 284.956 C 123.910 282.484, 123.955 282.218, 122.496 279.293 C 121.654 277.605, 120.021 275.977, 118.866 275.675 C 116.539 275.067, 116.534 277.399, 118.986 226 C 119.471 215.825, 119.905 199.400, 119.949 189.500 C 120.019 173.883, 120.252 171.335, 121.706 170.250 C 122.628 169.562, 124.006 169, 124.769 169 C 125.532 169, 129.384 167.472, 133.328 165.605 C 150.074 157.677, 163.676 152.383, 170.537 151.123 C 175.833 150.151, 177 149.341, 177 146.641 C 177 143.447, 175.136 141.998, 171.050 142.015 C 166.623 142.033, 155.888 144.523, 151.104 146.640 C 142.751 150.336, 128.297 157.541, 125.715 159.295 C 120.843 162.604, 120 161.256, 120 150.154 C 120 143.410, 120.399 139.935, 121.250 139.276 C 123.224 137.746, 160.888 133.888, 177 133.564 C 188.318 133.337, 193.945 131.601, 195.782 127.769 C 198.411 122.283, 194.048 119.390, 187.315 122.157 C 185.767 122.793, 178.650 123.661, 171.500 124.085 C 147.181 125.529, 133.511 126.890, 127.701 128.447 C 124.512 129.301, 121.474 130, 120.951 130 C 120.428 130, 120 127.108, 120 123.573 C 120 117.947, 120.305 116.905, 122.444 115.223 C 127.263 111.432, 132 104.159, 132 100.550 C 132 98.663, 132.450 96.840, 133 96.500 C 133.550 96.160, 134 94.141, 134 92.012 C 134 87.661, 135.826 85.283, 139.820 84.432 C 141.294 84.118, 143.534 83.443, 144.797 82.931 C 146.060 82.419, 148.394 82, 149.982 82 C 154.334 82, 157.388 80.513, 158.922 77.646 C 160.094 75.456, 160.094 74.818, 158.924 73.408 C 157.784 72.035, 156.418 71.861, 151.023 72.402 C 147.435 72.762, 143.037 73.319, 141.250 73.641 C 138.739 74.094, 138 73.877, 138 72.690 C 138 71.845, 136.650 69.804, 135 68.154 C 131.480 64.633, 131.431 64.284, 134 61 C 135.119 59.569, 135.965 56.924, 135.978 54.815 C 135.990 52.788, 136.502 49.863, 137.117 48.315 C 139.325 42.746, 141.785 17.037, 141.140 6.250 L 140.767 -0 135.930 -0 L 131.093 0 130.612 16.250 C 130.347 25.188, 129.763 36.100, 129.315 40.500 L 128.500 48.500 124.500 48.500 C 119.958 48.500, 120.247 49.967, 121.583 33.688 C 122.087 27.561, 122.632 25.622, 124.112 24.698 C 125.151 24.049, 126 22.952, 126 22.259 C 126 21.567, 126.402 21, 126.893 21 C 128.740 21, 128.999 17.656, 127.297 15.776 C 126.050 14.398, 124.748 14, 122.773 14.395 L 120 14.950 120 8.525 C 120 3.460, 120.371 1.883, 121.750 1.080 C 123.020 0.340, 120.605 0.052, 112.946 0.030 L 102.392 0 98.962 3.539 C 94.733 7.903, 91.954 7.805, 90.781 3.250 C 89.963 0.078, 89.810 0, 84.436 0 C 79.302 0, 79 0.131, 79.965 1.934 M 103.448 10.813 C 101.248 12.291, 97.943 14.679, 96.102 16.121 L 92.756 18.742 94.012 27.621 C 94.702 32.504, 95.462 40.775, 95.700 46 C 95.938 51.225, 96.499 55.873, 96.946 56.330 C 97.393 56.786, 99.729 56.262, 102.136 55.166 C 105.867 53.466, 106.706 52.518, 107.821 48.740 C 108.541 46.302, 108.988 42.326, 108.815 39.904 C 108.474 35.143, 108.701 35.241, 101.250 36.648 C 98.024 37.257, 98 37.233, 98 33.271 C 98 29.473, 98.277 29.117, 103.750 25.890 L 109.500 22.500 109.794 16.409 C 110.182 8.349, 108.855 7.178, 103.448 10.813 M 117.249 62.420 C 112.333 64.207, 111.687 65.238, 113.381 68.593 C 114.188 70.192, 115.411 73.525, 116.098 76 C 116.786 78.475, 117.666 80.874, 118.055 81.331 C 118.801 82.208, 127.042 78.445, 128.147 76.723 C 128.503 76.169, 127.975 73.334, 126.974 70.423 C 125.972 67.513, 125.396 64.202, 125.693 63.066 C 126.151 61.316, 125.795 61.018, 123.367 61.119 C 121.790 61.185, 119.037 61.770, 117.249 62.420 M 118.677 92.804 C 117.611 93.982, 117 96.361, 117 99.329 C 117 103.220, 117.311 104, 118.864 104 C 121.272 104, 124.781 95.461, 123.322 93.149 C 121.871 90.849, 120.536 90.750, 118.677 92.804" stroke="none" fill="black" fill-rule="evenodd"/>
</svg>