<svg xmlns="http://www.w3.org/2000/svg" width="300" height="300" viewBox="0 0 300 300" version="1.1">
	<path d="M 100.637 8.108 C 99.119 10.275, 99.314 15.606, 101.053 19.500 C 103.176 24.254, 104.972 30.737, 104.985 33.694 C 104.997 36.250, 104.171 37.547, 100.849 40.194 C 98.566 42.012, 95.324 44.794, 93.646 46.376 L 90.594 49.253 92.908 51.126 C 95.874 53.528, 98.101 53.495, 101.273 51 C 105.945 47.325, 108.337 49.514, 105.547 54.910 C 104.084 57.739, 103.526 58, 98.943 58 C 91.997 58, 91.362 61.208, 97.062 67.500 C 98.821 69.442, 98.776 69.705, 95.504 76.572 C 93.651 80.461, 91.452 84.210, 90.617 84.903 C 89.783 85.595, 88.106 88.216, 86.890 90.727 C 84.777 95.092, 84.759 95.351, 86.478 96.608 C 89.165 98.573, 91.165 97.022, 97.709 87.903 C 100.894 83.464, 104.512 78.632, 105.749 77.166 C 106.986 75.700, 107.998 74.162, 107.999 73.750 C 108.001 72.478, 114.833 72.923, 115.679 74.250 C 116.118 74.938, 116.482 77.065, 116.488 78.977 C 116.504 83.793, 119.223 84.145, 123.606 79.898 C 127.845 75.788, 128.026 72.357, 124.195 68.687 C 122.653 67.209, 120.931 66, 120.370 66 C 118.951 66, 115 61.649, 115 60.087 C 115 58.847, 124.333 40.720, 126.208 38.320 C 126.714 37.671, 126.988 35.421, 126.815 33.320 L 126.500 29.500 120.983 29.738 L 115.467 29.977 113.184 23.238 C 111.928 19.532, 110.632 15.150, 110.304 13.500 C 108.912 6.498, 103.773 3.631, 100.637 8.108 M 131 79.706 C 130.175 80.008, 128.600 81.046, 127.500 82.012 C 126.400 82.979, 124.487 84.077, 123.249 84.453 C 122.011 84.828, 120.533 86.005, 119.964 87.068 C 119.395 88.130, 118.448 89, 117.859 89 C 117.270 89, 115.459 90.119, 113.833 91.487 C 109.821 94.863, 86.773 106, 83.799 106 C 83.029 106, 81.867 106.533, 81.216 107.184 C 80.460 107.940, 75.863 108.421, 68.486 108.514 C 61.693 108.600, 56.492 109.108, 55.852 109.748 C 55.118 110.482, 55.058 112.089, 55.667 114.669 C 56.907 119.920, 60.222 121.481, 67.274 120.133 C 70.148 119.583, 74.664 118.847, 77.308 118.497 L 82.117 117.860 81.433 121.680 C 81.056 123.781, 80.136 127.300, 79.389 129.500 C 78.641 131.700, 78.023 134.294, 78.015 135.264 C 78.007 136.234, 77.588 137.809, 77.084 138.764 C 75.377 141.999, 73.161 147.482, 71.834 151.750 C 71.108 154.088, 70.173 156, 69.757 156 C 69.340 156, 69 156.663, 69 157.473 C 69 158.283, 67.833 161.545, 66.407 164.723 C 64.981 167.900, 63.006 172.300, 62.018 174.500 C 61.030 176.700, 59.446 180.300, 58.499 182.500 C 56.558 187.006, 46.260 207.388, 41.320 216.500 C 39.531 219.800, 37.557 223.625, 36.933 225 C 33.826 231.850, 31.809 235.900, 29.459 240 C 22.706 251.785, 18.003 261.930, 18.001 264.715 C 18 265.383, 18.852 266.386, 19.893 266.943 C 22.597 268.390, 26.277 265.203, 29.377 258.727 C 30.753 255.852, 32.578 252.375, 33.433 251 C 34.288 249.625, 36.351 245.575, 38.019 242 C 41.305 234.956, 42.314 233.169, 45.747 228.317 C 46.986 226.566, 48 224.405, 48 223.514 C 48 222.623, 49.125 220.238, 50.500 218.215 C 51.875 216.191, 53 214.166, 53 213.715 C 53 213.263, 54.125 211.238, 55.500 209.215 C 56.875 207.191, 58 204.810, 58 203.923 C 58 203.036, 58.900 201.495, 60 200.500 C 61.100 199.505, 62.003 198.197, 62.006 197.595 C 62.013 196.408, 62.814 194.780, 68.357 184.693 C 70.361 181.047, 72 177.426, 72 176.646 C 72 175.866, 72.672 173.940, 73.494 172.364 C 74.315 170.789, 74.990 168.739, 74.994 167.809 C 74.997 166.879, 75.450 165.840, 76 165.500 C 76.550 165.160, 77 164.078, 77 163.096 C 77 162.114, 77.900 160.495, 79 159.500 C 80.100 158.505, 81 156.649, 81 155.376 C 81 154.103, 81.856 151.360, 82.901 149.281 C 87.215 140.703, 91 128.254, 91 122.645 C 91 121.255, 91.450 119.840, 92 119.500 C 92.550 119.160, 93 118.041, 93 117.014 C 93 115.061, 99.562 109, 101.675 109 C 103.006 109, 111.300 104.838, 114.500 102.565 C 126.640 93.940, 129.960 91.737, 132.730 90.468 C 141.571 86.421, 139.964 76.429, 131 79.706 M 118.750 120.080 C 117.787 120.641, 116.986 122.090, 116.968 123.300 C 116.951 124.510, 116.276 126.374, 115.468 127.441 C 114.496 128.727, 114 131.792, 114 136.517 C 114 142.795, 113.706 143.928, 111.551 145.952 C 108.272 149.032, 105.472 148.079, 106.514 144.238 C 106.922 142.732, 107.456 137.816, 107.700 133.313 L 108.143 125.126 105.004 123.502 C 100.365 121.103, 97.549 121.831, 97.279 125.500 C 95.434 150.560, 94.145 158.913, 91.412 163.500 C 89.606 166.533, 87.605 175.527, 88.321 177.394 C 88.670 178.302, 89.709 179.335, 90.631 179.689 C 92.757 180.504, 98.680 174.271, 99.552 170.299 C 99.890 168.759, 100.316 167, 100.499 166.389 C 101.030 164.611, 113.191 156.889, 114.924 157.231 C 116.265 157.495, 116.499 159.532, 116.495 170.888 L 116.489 184.234 111.667 188.599 C 109.015 191.001, 105.809 193.536, 104.542 194.233 C 103.275 194.930, 99.402 197.447, 95.934 199.826 C 90.501 203.554, 89.151 204.063, 86.184 203.507 C 83.204 202.948, 82.284 203.302, 79.370 206.126 C 75.286 210.084, 74.984 213.697, 78.463 216.965 C 80.804 219.165, 81.049 219.198, 83.428 217.639 C 84.804 216.738, 86.508 215.997, 87.215 215.994 C 89.100 215.984, 105.397 207.562, 109.320 204.570 C 114.716 200.454, 116.007 201.027, 115.359 207.250 C 114.382 216.624, 112.199 228.628, 109.949 237 C 107.893 244.646, 107.304 244.920, 90.449 246.048 C 80.354 246.724, 73.877 247.660, 70.500 248.931 C 67.750 249.966, 64.312 251.076, 62.860 251.398 C 58.898 252.276, 58.665 254.549, 62.135 258.501 C 65.672 262.529, 66.706 262.701, 71.797 260.103 C 73.842 259.060, 79.562 257.700, 84.508 257.081 C 89.453 256.462, 98 255.223, 103.500 254.328 C 109.515 253.350, 119.876 252.670, 129.500 252.622 C 156.214 252.490, 209.091 254.025, 216 255.132 C 219.575 255.706, 224.750 256.296, 227.500 256.445 C 233.557 256.771, 238.850 257.948, 239.580 259.129 C 240.759 261.038, 245.038 259.830, 248.429 256.632 C 252.507 252.786, 252.714 251.956, 250.168 249.652 C 247.648 247.372, 239.535 246.034, 225.424 245.573 C 218.866 245.359, 207.270 244.664, 199.655 244.027 C 192.040 243.391, 180.115 242.979, 173.155 243.112 C 149.431 243.564, 115.652 242.457, 115.238 241.215 C 115.026 240.579, 115.954 238.583, 117.299 236.780 C 118.644 234.976, 120.039 232.150, 120.399 230.500 C 121.167 226.985, 123.846 206.937, 124.610 199 C 124.901 195.975, 125.646 192.150, 126.266 190.500 C 127.402 187.478, 131.878 182, 133.212 182 C 134.378 182, 142.281 176.707, 145.155 174 C 146.615 172.625, 148.527 170.920, 149.405 170.211 C 150.282 169.501, 151 167.869, 151 166.583 C 151 165.297, 151.675 163.685, 152.500 163 C 154.556 161.293, 154.381 158.655, 152.072 156.565 C 149.600 154.328, 148.411 155.039, 142.558 162.250 C 139.990 165.412, 137.324 168, 136.632 168 C 135.940 168, 134.081 169.350, 132.500 171 C 130.919 172.650, 128.816 174, 127.827 174 C 126.174 174, 126.059 173.039, 126.412 162.250 C 126.623 155.787, 127.251 149.341, 127.807 147.925 C 128.363 146.508, 131.091 143.305, 133.870 140.807 C 140.856 134.526, 141.872 132.033, 139.056 128.079 C 137.850 126.386, 136.131 125, 135.236 125 C 134.341 125, 131.712 127.138, 129.393 129.750 C 126.130 133.428, 124.904 134.234, 123.963 133.323 C 123.011 132.403, 123.210 131.397, 124.873 128.705 C 127.503 124.450, 127.518 123.518, 125 121 C 122.778 118.778, 121.347 118.567, 118.750 120.080" stroke="none" fill="black" fill-rule="evenodd"/>
</svg>