<svg xmlns="http://www.w3.org/2000/svg" width="300" height="300" viewBox="0 0 300 300" version="1.1">
	<path d="M 125.998 25.502 C 123.913 28.015, 125.700 32.972, 130.566 38.174 C 133.462 41.270, 134.947 43.673, 134.642 44.772 C 134.379 45.722, 133.870 49.087, 133.510 52.250 C 132.903 57.592, 133.002 58, 134.905 58 C 137.431 58, 139.971 54.280, 141.249 48.709 C 143.265 39.919, 141.646 33.948, 135.471 27.400 C 132.006 23.726, 128.118 22.947, 125.998 25.502 M 171.514 53.735 C 170.422 54.011, 163.672 57.384, 156.514 61.229 C 134.710 72.943, 129.417 75.459, 114 81.444 C 108.775 83.472, 102.475 85.945, 100 86.939 C 97.525 87.933, 93.602 89.031, 91.283 89.380 C 82.904 90.638, 79.661 93.630, 81.980 97.962 C 83.375 100.569, 86.366 100.563, 95.737 97.934 C 99.787 96.797, 103.577 96.026, 104.158 96.219 C 105.117 96.539, 105.944 106.081, 106.176 119.500 C 106.302 126.739, 104.877 142.230, 103.913 144.101 C 102.506 146.834, 100.002 160.266, 100.001 165.083 C 100 167.604, 99.679 169.987, 99.287 170.379 C 97.826 171.841, 95.002 180.612, 95.001 183.691 C 95 185.446, 94.550 187.160, 94 187.500 C 93.450 187.840, 92.986 189.329, 92.968 190.809 C 92.951 192.289, 92.276 194.374, 91.468 195.441 C 90.661 196.509, 90 198.620, 90 200.132 C 90 201.645, 89.550 203.160, 89 203.500 C 88.450 203.840, 88 205.441, 88 207.059 C 88 208.677, 87.550 210, 87 210 C 86.450 210, 86 210.571, 86 211.269 C 86 211.967, 84.270 215.904, 82.157 220.019 C 76.776 230.493, 75.874 232.031, 72.664 236.216 C 69.011 240.979, 65.918 247.058, 66.591 248.148 C 68.363 251.014, 74.131 247.043, 80.602 238.500 C 85.367 232.210, 93 218.532, 93 216.285 C 93 215.163, 93.675 213.685, 94.500 213 C 95.325 212.315, 96 210.712, 96 209.437 C 96 208.161, 96.450 206.840, 97 206.500 C 97.550 206.160, 98 204.859, 98 203.608 C 98 202.357, 98.321 201.013, 98.713 200.621 C 100.062 199.271, 102.998 190.495, 102.999 187.809 C 103 186.329, 103.392 184.876, 103.871 184.580 C 104.666 184.088, 105.854 177.418, 106.314 170.855 C 106.417 169.400, 107.287 167.340, 108.250 166.276 C 109.237 165.186, 110 162.767, 110 160.730 C 110 158.744, 110.450 156.840, 111 156.500 C 111.550 156.160, 112 153.490, 112 150.567 C 112 147.643, 112.622 143.489, 113.382 141.335 C 114.378 138.510, 114.807 131.176, 114.919 115.017 C 115.069 93.444, 115.521 90, 118.205 90 C 120.552 90, 151.656 75.315, 154.843 72.702 C 155.582 72.096, 161.612 68.871, 168.243 65.536 C 174.875 62.200, 180.795 58.664, 181.400 57.677 C 183.462 54.313, 177.936 52.109, 171.514 53.735 M 153.035 96.934 C 152.466 97.998, 152 101.283, 152 104.233 C 152 109.434, 151.876 109.673, 147.948 112.049 C 137.279 118.503, 136 119.770, 136 123.884 C 136 130.456, 138.052 130.955, 145.011 126.073 C 148.301 123.766, 151.444 122.157, 151.996 122.498 C 152.583 122.860, 153 128.412, 153 135.858 L 153 148.599 146 154.430 C 142.150 157.637, 139 160.866, 139 161.607 C 139 162.348, 140.095 163.671, 141.433 164.548 C 144.556 166.595, 144.369 166.691, 163.500 153.189 C 176.173 144.244, 178.055 139.945, 170.332 137.581 C 168.732 137.091, 167.213 137.753, 164.531 140.107 C 160.178 143.929, 158.343 143.070, 159.754 137.870 C 160.257 136.016, 160.749 131.800, 160.848 128.500 C 161.152 118.405, 162.796 114.389, 168.128 110.717 C 173.480 107.031, 177.500 101.746, 176.646 99.520 C 175.707 97.072, 171.397 97.761, 166.630 101.121 C 162.257 104.204, 159.299 104.269, 160.455 101.258 C 161.277 99.114, 158.357 95, 156.012 95 C 154.944 95, 153.605 95.870, 153.035 96.934 M 72.203 150.021 C 65.271 151.031, 58.689 155.406, 59.598 158.400 C 61.007 163.037, 66.669 165.962, 68.500 163 C 68.840 162.450, 69.811 162, 70.658 162 C 71.505 162, 73.751 161.263, 75.649 160.362 C 78.467 159.025, 79.580 158.943, 81.717 159.917 C 83.941 160.930, 84.615 160.829, 86.197 159.248 C 87.916 157.529, 87.944 157.110, 86.567 153.814 C 84.460 148.773, 83.150 148.426, 72.203 150.021 M 71.766 180.877 C 62.657 189.836, 49.013 207.023, 49.006 209.550 C 48.999 211.850, 50.760 214, 52.650 214 C 54.137 214, 66.428 199.404, 70.335 193 C 71.844 190.525, 74.859 186.250, 77.035 183.500 C 80.888 178.629, 82.266 173.871, 79.750 174.127 C 79.063 174.198, 75.470 177.235, 71.766 180.877 M 208.166 181.597 C 206.737 182.597, 206.001 183.997, 206.193 185.347 C 206.460 187.217, 207.059 187.465, 210.760 187.231 C 213.780 187.040, 216.396 187.695, 219.752 189.481 C 222.355 190.866, 225.063 192, 225.771 192 C 227.416 192, 236.392 196.541, 246.050 202.259 C 250.203 204.718, 255.678 207.649, 258.218 208.772 C 261.542 210.242, 262.930 211.472, 263.168 213.158 C 263.866 218.082, 275 216.090, 275 211.041 C 275 208.502, 269.162 203.452, 262.306 200.063 C 258.899 198.378, 255.819 197, 255.460 197 C 255.102 197, 253.614 196.159, 252.154 195.131 C 250.694 194.103, 248.375 192.928, 247 192.519 C 245.625 192.110, 243.345 190.696, 241.934 189.377 C 239.012 186.645, 230.528 183.405, 221 181.381 C 212.691 179.615, 210.952 179.645, 208.166 181.597 M 170.667 190.667 C 170.300 191.033, 170 192.793, 170 194.578 C 170 196.978, 170.806 198.501, 173.098 200.429 C 175.955 202.833, 176.685 202.986, 182.499 202.390 L 188.802 201.744 191.971 206.119 C 196.979 213.032, 198.143 216.226, 197.806 222.129 L 197.500 227.500 191.881 227.796 C 180.728 228.383, 163.161 220.023, 152.547 209.077 C 148.414 204.814, 145.136 203.927, 143.005 206.493 C 140.350 209.693, 146.528 218.261, 155.809 224.250 C 176.643 237.695, 199.333 241.749, 206.038 233.225 C 208.108 230.593, 208.591 226.143, 207.123 223.236 C 205.962 220.938, 204 214.652, 204 213.229 C 204 211.246, 198.296 203.581, 195.026 201.171 C 192.446 199.269, 191.924 198.259, 192.183 195.671 L 192.500 192.500 185.772 192.472 C 181.841 192.456, 178.536 191.936, 177.822 191.222 C 176.521 189.921, 171.780 189.553, 170.667 190.667 M 117.667 200.667 C 117.300 201.033, 116.980 204.071, 116.956 207.417 C 116.932 210.762, 116.264 215.300, 115.471 217.500 C 114.679 219.700, 114.023 222.112, 114.015 222.861 C 113.980 225.996, 106.148 239.792, 101.762 244.444 C 97.161 249.323, 97.077 249.521, 98.865 251.309 C 100.547 252.991, 100.999 253.024, 104.103 251.694 C 108.193 249.941, 113.052 244.947, 115.965 239.500 C 117.141 237.300, 118.478 234.825, 118.936 234 C 121.256 229.818, 122.091 226.994, 123.903 217.201 C 124.340 214.837, 125.216 212.384, 125.849 211.751 C 127.832 209.768, 127.196 204.533, 124.686 202.174 C 122.432 200.057, 119.011 199.322, 117.667 200.667" stroke="none" fill="black" fill-rule="evenodd"/>
</svg>