<svg xmlns="http://www.w3.org/2000/svg" width="300" height="300" viewBox="0 0 300 300" version="1.1">
	<path d="M 111.250 4.662 C 110.563 4.940, 110 6.233, 110 7.536 C 110 13.240, 108.232 14.773, 99.200 16.902 C 88.462 19.433, 86.710 21.500, 91.491 25.992 L 93.982 28.332 101.131 26.606 C 106.071 25.414, 108.601 25.201, 109.318 25.918 C 109.889 26.489, 110.558 30.805, 110.805 35.509 C 111.184 42.721, 110.975 44.371, 109.472 46.031 C 108.492 47.114, 106.815 48, 105.746 48 C 104.677 48, 102.384 48.603, 100.651 49.341 C 98.918 50.078, 94.163 51.766, 90.084 53.091 C 86.005 54.416, 81.522 56.395, 80.122 57.490 C 78.721 58.584, 76.208 60.207, 74.538 61.096 C 72.867 61.986, 70.840 63.872, 70.033 65.288 C 68.706 67.618, 68.745 68.060, 70.438 69.932 C 72.413 72.114, 76.445 72.707, 77.517 70.973 C 78.225 69.827, 93.105 62.549, 97 61.443 C 98.375 61.053, 101.699 59.680, 104.386 58.392 C 107.073 57.104, 109.660 56.290, 110.136 56.584 C 111.993 57.732, 110.923 61.906, 108.250 63.937 C 97.240 72.300, 94.465 74.847, 94.173 76.858 C 93.350 82.533, 99.356 83.413, 106.379 78.646 C 111.595 75.107, 113.266 76, 112.417 81.873 C 112.049 84.418, 111.264 87.105, 110.673 87.845 C 109.515 89.294, 96.376 95.617, 92.504 96.588 C 91.208 96.914, 89.396 98.010, 88.478 99.024 C 86.918 100.749, 86.927 101.067, 88.621 103.935 C 89.617 105.622, 91.176 107.238, 92.084 107.527 C 94.172 108.190, 98.894 106.428, 101.500 104.014 C 102.600 102.996, 105.257 101.837, 107.405 101.441 L 111.311 100.719 110.614 109.077 C 110.218 113.824, 109.323 118.096, 108.542 118.967 C 106.474 121.274, 107.756 125.957, 110.770 127.102 C 112.149 127.627, 113.035 128.298, 112.739 128.594 C 112.443 128.891, 107.093 129.976, 100.850 131.007 C 89.430 132.894, 61.939 139.571, 54.500 142.265 C 52.300 143.061, 48.700 144.254, 46.500 144.914 C 44.300 145.574, 38.788 147.722, 34.250 149.686 C 25.361 153.535, 24.302 155.131, 27.557 159.777 C 29.595 162.687, 33.753 162.657, 38.110 159.700 C 39.975 158.435, 43.750 156.819, 46.500 156.110 C 49.250 155.400, 53.075 154.016, 55 153.034 C 61.880 149.525, 108.319 139.328, 126 137.445 C 129.575 137.064, 133.625 136.287, 135 135.719 C 136.375 135.150, 140.425 134.330, 144 133.895 C 150.976 133.047, 159.865 131.725, 169.500 130.103 C 177.401 128.773, 185.867 128.572, 194.637 129.506 C 201.526 130.240, 201.899 130.166, 205.387 127.383 C 209.480 124.117, 209.890 122.115, 207.001 119.501 C 205.501 118.144, 203.402 117.700, 198.585 117.721 C 188.151 117.767, 173.382 119.062, 159.500 121.148 C 152.350 122.223, 143.625 123.536, 140.111 124.066 C 136.598 124.597, 130.523 125.699, 126.611 126.515 C 119.356 128.028, 114 128.430, 114 127.460 C 114 127.162, 114.931 125.660, 116.069 124.121 C 118.781 120.453, 119.963 115.362, 120.480 105.133 C 120.940 96.029, 122.126 93.671, 126.824 92.529 C 128.296 92.171, 132.537 90.085, 136.250 87.894 C 142.385 84.274, 143 83.614, 143 80.655 C 143 73.835, 139.624 73.427, 130.503 79.146 C 123.018 83.839, 121.957 83.580, 121.356 76.911 C 120.897 71.818, 122.436 69.785, 128.925 66.915 C 131.428 65.808, 134.493 63.946, 135.738 62.777 C 138.634 60.056, 138.697 55.707, 135.867 53.828 C 132.753 51.760, 134.128 48.820, 140.299 44.352 C 144.379 41.397, 146.362 40.609, 149.500 40.692 C 152.032 40.760, 154.234 40.149, 155.500 39.029 C 156.600 38.055, 158.850 36.635, 160.500 35.872 C 162.772 34.823, 163.575 33.714, 163.809 31.305 C 164.232 26.939, 160.742 24.586, 155.333 25.590 C 150.625 26.464, 143.457 29.452, 142.551 30.917 C 142.183 31.513, 141.061 32, 140.058 32 C 138.519 32, 138.126 30.836, 137.535 24.530 C 136.564 14.165, 134.883 12.187, 126.714 11.797 C 120.932 11.521, 120.478 11.326, 120.179 9 C 119.660 4.950, 115.521 2.939, 111.250 4.662 M 121.250 23.662 C 119.605 24.326, 119.563 36.163, 121.200 37.800 C 122.894 39.494, 125.675 39.290, 126.393 37.418 C 127.364 34.889, 127.094 27.045, 125.965 24.934 C 124.941 23.022, 123.680 22.682, 121.250 23.662 M 120.345 53.543 C 119.473 55.815, 120.674 56.469, 122.452 54.690 C 124.406 52.737, 124.410 52, 122.469 52 C 121.626 52, 120.671 52.694, 120.345 53.543 M 128.466 150.932 C 124.662 151.844, 123.877 152.330, 115.960 158.685 C 109.014 164.261, 105.744 168.027, 101.975 174.792 C 99.025 180.088, 95.938 180.291, 94.915 175.256 C 94.552 173.472, 93.791 171.447, 93.223 170.756 C 92.656 170.065, 92.036 168.375, 91.846 167 C 91.158 162.029, 80 163.756, 80 168.834 C 80 171.565, 82.377 177.410, 85.234 181.703 C 86.772 184.014, 88.307 187.286, 88.645 188.974 C 88.982 190.661, 89.650 192.284, 90.129 192.580 C 90.608 192.876, 91 194.415, 91 196 C 91 197.585, 91.450 199.160, 92 199.500 C 92.550 199.840, 93 201.580, 93 203.368 C 93 205.155, 93.661 207.491, 94.468 208.559 C 95.276 209.626, 95.951 211.711, 95.968 213.191 C 95.986 214.671, 96.478 216.177, 97.062 216.538 C 97.646 216.899, 98.553 218.324, 99.078 219.705 C 99.910 221.894, 100.508 222.159, 103.758 221.780 C 106.771 221.428, 107.834 221.790, 109.314 223.673 C 111.731 226.745, 115.907 226.681, 120.595 223.500 C 122.621 222.125, 125.040 221, 125.970 221 C 126.900 221, 129.875 219.877, 132.581 218.504 C 135.286 217.131, 138.722 216.006, 140.215 216.004 C 143.317 215.999, 145 213.613, 145 209.221 C 145 207.603, 146.051 205.088, 147.369 203.555 C 150.452 199.966, 155.345 190.111, 157.912 182.321 C 159.585 177.245, 159.836 174.684, 159.319 167.978 C 158.695 159.892, 158.644 159.767, 153.910 154.907 L 149.130 150 140.315 150.102 C 135.467 150.159, 130.135 150.532, 128.466 150.932 M 129 162 C 129 162.550, 129.911 163, 131.025 163 C 133.373 163, 135 166.472, 135 171.483 C 135 178.007, 136.566 179.434, 139.979 176.021 C 141.442 174.558, 142.743 174.199, 144.964 174.643 C 148.581 175.366, 149.542 173.705, 148.554 168.437 C 147.427 162.430, 145.110 161, 136.500 161 C 132.167 161, 129 161.422, 129 162 M 122.500 165.954 C 121.400 166.409, 119.375 168.011, 118 169.513 C 116.625 171.016, 113.091 174.039, 110.146 176.231 C 101.898 182.371, 99.478 189.581, 103.008 197.500 C 104.879 201.697, 107 209.172, 107 211.566 C 107 215.171, 109.642 215.706, 112.810 212.744 C 114.289 211.360, 116.851 209.548, 118.502 208.717 C 120.154 207.885, 122.230 206.371, 123.117 205.352 C 125.187 202.974, 126.336 196.046, 124.687 195.882 C 122.135 195.627, 120.412 196.255, 118.305 198.209 C 116.658 199.737, 115.413 200.070, 113.311 199.542 C 109.322 198.541, 108 197.153, 108 193.966 C 108 190.464, 112.469 186.512, 118.295 184.863 C 124.605 183.077, 125.191 182.143, 125.680 173.093 C 126.126 164.834, 125.983 164.513, 122.500 165.954 M 137.573 189.570 C 136.709 190.433, 135.715 192.346, 135.364 193.820 C 135.012 195.294, 134.329 197.005, 133.845 197.623 C 132.567 199.256, 133.976 202.150, 135.876 201.793 C 137.276 201.530, 143.892 190.870, 143.972 188.750 C 144.024 187.362, 139.158 187.985, 137.573 189.570 M 160.892 238.415 C 160.676 238.617, 152.400 239.342, 142.500 240.028 C 132.600 240.714, 122.511 241.867, 120.079 242.591 C 117.648 243.315, 115.253 243.656, 114.757 243.350 C 114.260 243.043, 110.850 243.489, 107.177 244.340 C 97.187 246.657, 74.320 251.076, 67.500 252.009 C 59.338 253.125, 52.390 254.721, 49.910 256.048 C 48.776 256.655, 44.845 257.185, 41.174 257.226 C 30.045 257.351, 27.996 259.224, 31.526 266.050 C 33.391 269.658, 36.437 269.885, 44.867 267.045 C 48.060 265.969, 53.783 264.789, 57.586 264.423 C 61.389 264.056, 65.850 263.161, 67.500 262.434 C 69.150 261.707, 72.750 260.829, 75.500 260.484 C 78.250 260.138, 81.625 259.493, 83 259.050 C 84.375 258.607, 90 257.495, 95.500 256.579 C 101 255.663, 108.650 254.271, 112.500 253.486 C 120.844 251.784, 163.956 248.124, 179.500 247.798 C 192.400 247.528, 207.300 248.596, 209.766 249.967 C 210.720 250.498, 214.080 251.428, 217.233 252.033 C 220.385 252.639, 223.225 253.554, 223.542 254.067 C 223.859 254.580, 225.104 255.004, 226.309 255.008 C 227.514 255.012, 233.900 256.359, 240.500 258 C 256.377 261.949, 257.338 261.914, 259.518 257.321 C 261.633 252.864, 260.900 251.282, 255.431 248.500 C 252.324 246.919, 249.827 246.545, 243.517 246.717 C 235.609 246.932, 229.116 245.741, 218 242.035 C 208.750 238.952, 200.314 238.059, 180.392 238.054 C 169.883 238.051, 161.108 238.214, 160.892 238.415" stroke="none" fill="black" fill-rule="evenodd"/>
</svg>