<svg xmlns="http://www.w3.org/2000/svg" width="300" height="300" viewBox="0 0 300 300" version="1.1">
	<path d="M 89.667 29.667 C 88.115 31.218, 89.036 38.031, 91.029 39.750 C 98.847 46.493, 99.198 47.123, 98.695 53.500 C 98.434 56.800, 98.059 60.175, 97.861 61 C 97.130 64.041, 102.166 62.640, 105.130 58.978 C 109.433 53.662, 109.427 47.151, 105.111 38.864 C 100.487 29.986, 99.428 29, 94.512 29 C 92.214 29, 90.033 29.300, 89.667 29.667 M 127.240 49.089 C 126.283 50.238, 123.475 52.578, 121 54.289 C 116.035 57.722, 102.199 68.803, 97.500 73.110 C 93.672 76.618, 83.234 82.502, 77.210 84.547 C 74.646 85.417, 72.088 86.494, 71.525 86.940 C 70.234 87.961, 51.684 93.669, 47 94.486 C 40.250 95.663, 36.583 98.178, 35.555 102.334 C 33.813 109.373, 38.097 111.741, 46.142 108.187 C 48.539 107.128, 52.525 105.685, 55 104.982 C 57.475 104.278, 61.975 102.574, 65 101.196 C 68.025 99.817, 72.689 97.915, 75.364 96.969 C 78.040 96.023, 81.147 94.462, 82.270 93.501 C 83.393 92.539, 85.731 91.361, 87.466 90.882 C 90.948 89.920, 108.057 79.143, 112 75.427 C 123.195 64.877, 128.836 60, 129.844 60 C 131.773 60, 136.939 53.683, 136.971 51.285 C 137.027 47.046, 130.222 45.510, 127.240 49.089 M 104.750 95.080 C 100.863 97.344, 103.881 106, 108.557 106 C 114.666 106, 108.151 117.248, 95.054 129.313 C 91.508 132.579, 91.191 135.191, 94 138 C 96.491 140.491, 96.162 140.506, 105 137.500 C 109.043 136.125, 113.419 135, 114.725 135 C 116.031 135, 118.454 134.299, 120.111 133.443 C 124.268 131.293, 123.854 127.129, 119.272 125 C 115.474 123.235, 115.190 121.491, 118.182 118.307 C 120.830 115.488, 122.965 109.667, 122.985 105.210 C 122.999 102.235, 120.065 96.650, 117.500 94.765 C 116.017 93.676, 106.769 93.904, 104.750 95.080 M 71.345 104.250 C 70.950 104.890, 70.437 114.433, 70.205 125.457 C 69.974 136.481, 69.383 146.258, 68.892 147.184 C 68.401 148.111, 68 149.968, 68 151.312 C 68 153.502, 66.610 157.744, 64.006 163.500 C 63.508 164.600, 62.393 167.750, 61.528 170.500 C 60.662 173.250, 59.558 176.400, 59.074 177.500 C 58.590 178.600, 56.973 182.650, 55.480 186.500 C 53.988 190.350, 52.406 194.400, 51.965 195.500 C 51.524 196.600, 49.952 200.875, 48.471 205 C 46.991 209.125, 44.877 214.300, 43.775 216.500 C 39.673 224.685, 37.769 228.025, 36.896 228.564 C 36.403 228.869, 36 229.834, 36 230.709 C 36 231.585, 34.828 234.821, 33.395 237.900 C 31.963 240.980, 30.294 244.625, 29.688 246 C 29.082 247.375, 28.039 249.175, 27.371 250 C 25.109 252.792, 24.617 256.916, 26.461 257.624 C 29.209 258.678, 32.895 255.936, 35.269 251.071 C 36.496 248.557, 37.837 246.350, 38.250 246.167 C 38.663 245.983, 39 245.026, 39 244.039 C 39 243.052, 39.675 241.685, 40.500 241 C 41.325 240.315, 42 239.088, 42 238.272 C 42 237.456, 43.125 235.452, 44.500 233.818 C 45.875 232.184, 47 230.220, 47 229.454 C 47 228.688, 47.976 226.360, 49.168 224.280 C 54.308 215.319, 56 211.777, 56 209.978 C 56 208.923, 56.796 206.585, 57.770 204.780 C 58.743 202.976, 60.400 198.800, 61.452 195.500 C 62.505 192.200, 63.718 189.023, 64.148 188.440 C 65.209 187.002, 70.727 173.876, 73.372 166.500 C 74.556 163.200, 75.955 159.825, 76.482 159 C 78.872 155.258, 80.593 122.369, 78.811 114.500 C 77.070 106.811, 73.117 101.384, 71.345 104.250 M 139.500 139.295 C 136.182 141.808, 124.481 149, 123.710 149 C 123.441 149, 118.520 152.110, 112.775 155.911 C 102.363 162.798, 97 167.809, 97 170.650 C 97 171.535, 96.285 172.011, 95.250 171.814 C 93.941 171.566, 93.425 170.322, 93.201 166.879 C 92.955 163.090, 92.460 162.075, 90.404 161.138 C 83.993 158.217, 81.604 160.463, 82.999 168.096 C 85.374 181.088, 85.791 191.471, 84.441 204 C 82.685 220.305, 81.918 224.932, 80.865 225.583 C 80.389 225.877, 80 227.223, 80 228.574 C 80 234.777, 74.590 250.435, 71.586 252.929 C 69.382 254.758, 69.604 257.739, 72 258.500 C 77.178 260.144, 81.357 255.056, 84.075 243.799 C 85.177 239.234, 86.463 234.796, 86.932 233.935 C 90.305 227.751, 95.025 202.944, 95.414 189.367 C 95.494 186.544, 96.105 183.578, 96.771 182.775 C 97.438 181.973, 97.689 181.023, 97.331 180.664 C 96.582 179.916, 99.849 176, 101.222 176 C 102.272 176, 108.156 171.405, 114.989 165.250 C 117.584 162.912, 120.181 161, 120.759 161 C 121.461 161, 121.634 164.408, 121.278 171.250 C 120.724 181.883, 119.834 184.177, 115.500 186.132 C 110.199 188.523, 103.098 192.828, 100.533 195.206 C 97.884 197.663, 97.748 198.152, 98.594 202.161 C 99.875 208.237, 101.909 208.198, 108.730 201.964 C 115.067 196.173, 120.534 193.097, 121.893 194.560 C 122.373 195.077, 122.980 197.895, 123.243 200.822 L 123.720 206.144 118.232 210.322 C 115.214 212.620, 111.790 215.158, 110.622 215.962 C 109.455 216.766, 107.260 218.426, 105.745 219.651 C 104.230 220.876, 100.982 222.180, 98.527 222.548 C 92.258 223.488, 91.071 225.228, 93.545 229.849 C 96.018 234.468, 99.013 235.008, 103.097 231.572 C 104.778 230.157, 106.681 228.991, 107.327 228.980 C 107.972 228.968, 111.869 226.491, 115.986 223.475 C 120.104 220.459, 123.928 218.143, 124.484 218.328 C 126.817 219.106, 128.207 241.720, 126.800 256 C 126.285 261.225, 125.497 267.953, 125.049 270.951 C 124.084 277.407, 125.252 280, 129.126 280 C 133.157 280, 134.864 276.471, 135.206 267.432 C 135.376 262.946, 135.962 259.508, 136.594 259.299 C 137.196 259.100, 139.081 261.539, 140.783 264.719 C 142.486 267.898, 146.169 272.745, 148.967 275.490 C 153.947 280.373, 154.113 280.447, 156.753 278.965 C 158.237 278.132, 160.097 276.112, 160.888 274.475 C 161.678 272.839, 162.701 270.719, 163.162 269.764 C 163.623 268.809, 164 266.416, 164 264.448 C 164 262.479, 164.431 260.063, 164.958 259.079 C 166.404 256.377, 167.929 245.536, 168.501 233.901 C 168.782 228.181, 169.299 219, 169.649 213.500 C 170.434 201.171, 170.434 201.099, 169.598 187 C 168.880 174.900, 166.558 159.456, 165.176 157.598 C 164.728 156.994, 163.743 154.475, 162.988 152 C 159.385 140.186, 147.098 133.539, 139.500 139.295 M 141.245 151.447 C 139.577 152.851, 137.065 154, 135.665 154 C 132.221 154, 131.678 155.213, 131.402 163.521 C 131.121 171.989, 131.817 173.703, 134.873 172.068 C 136.043 171.442, 137 170.481, 137 169.933 C 137 169.386, 137.787 168.650, 138.750 168.298 C 139.713 167.947, 141.573 166.836, 142.885 165.830 C 145.623 163.729, 149.056 163.456, 150.800 165.200 C 152.726 167.126, 152.327 173.961, 150.250 174.610 C 146.140 175.895, 142.199 178.592, 137.750 183.165 C 133.518 187.515, 133 188.535, 133 192.524 C 133 198.534, 134.531 198.371, 142.631 191.500 C 149.388 185.767, 152.629 184.772, 155.427 187.569 C 157.537 189.680, 156.172 192.093, 150.735 195.857 C 146.119 199.052, 143.547 201.192, 137.614 206.772 L 133.727 210.427 134.382 219.964 C 134.742 225.209, 135.467 231.300, 135.994 233.500 C 136.521 235.700, 136.963 239.798, 136.976 242.606 C 137 247.624, 138.807 250.992, 145.745 258.944 C 146.492 259.800, 147.871 261.540, 148.810 262.811 C 151.293 266.173, 153.697 264.803, 154.308 259.679 C 154.582 257.381, 155.539 251.225, 156.435 246 C 160.083 224.719, 161.729 197.889, 159.993 188 C 159.462 184.975, 158.923 179.878, 158.796 176.674 C 158.668 173.470, 158.212 170.631, 157.782 170.365 C 157.352 170.099, 157 168.620, 157 167.078 C 157 165.535, 155.313 160.949, 153.250 156.887 C 148.869 148.256, 146.378 147.128, 141.245 151.447 M 32.750 157.607 C 28.351 160.326, 27 161.721, 27 163.545 C 27 168.147, 36.526 169.942, 39.374 165.877 C 40.192 164.709, 41.905 163.235, 43.180 162.602 C 46.122 161.141, 46.806 157.062, 44.404 155.306 C 41.600 153.255, 38.942 153.780, 32.750 157.607 M 46 178.116 C 44.075 179.798, 39.575 183.974, 36 187.397 C 23.466 199.397, 13.284 207.210, 8.670 208.368 C 6.334 208.954, 6.059 209.410, 6.616 211.772 C 7.485 215.463, 8.086 215.977, 12.326 216.665 C 15.682 217.210, 16.327 216.890, 20.240 212.744 C 22.583 210.260, 25.246 207.840, 26.159 207.364 C 27.739 206.541, 44.002 188.384, 48.750 182.142 C 50.906 179.308, 51.821 174.968, 50.250 175.029 C 49.837 175.045, 47.925 176.434, 46 178.116" stroke="none" fill="black" fill-rule="evenodd"/>
</svg>