<svg xmlns="http://www.w3.org/2000/svg" width="300" height="300" viewBox="0 0 300 300" version="1.1">
	<path d="M 104.359 12.508 C 103.052 15.913, 105.150 21.097, 109.658 25.606 C 113.683 29.630, 114.143 30.533, 113.588 33.311 C 113.242 35.042, 111.393 38.062, 109.479 40.021 C 106.998 42.562, 106 44.487, 106 46.733 C 106 52.693, 109.001 51.714, 118.320 42.710 C 125.038 36.220, 125.054 36.191, 124.396 31.851 C 123.454 25.641, 121.859 22.222, 117.120 16.250 C 113.337 11.483, 112.585 11, 108.945 11 C 106.296 11, 104.741 11.511, 104.359 12.508 M 150.317 46.756 C 148.657 48.821, 144.726 51.857, 141.581 53.503 C 138.436 55.148, 135.149 57.283, 134.276 58.247 C 133.404 59.211, 131.920 60, 130.980 60 C 130.039 60, 128.197 60.828, 126.885 61.840 C 125.573 62.852, 122.025 65.030, 119 66.682 C 115.975 68.333, 111.238 71.082, 108.472 72.791 C 105.707 74.500, 100.757 76.898, 97.472 78.120 C 94.188 79.343, 90.804 80.928, 89.953 81.642 C 88.061 83.233, 76.055 85.928, 66.223 86.969 C 58.341 87.804, 55 89.748, 55 93.500 C 55 94.705, 55.920 96.522, 57.044 97.540 C 58.858 99.182, 59.561 99.252, 63.294 98.166 C 65.607 97.493, 70.624 96.506, 74.443 95.974 C 82.294 94.880, 83.404 95.501, 82.537 100.500 C 82.250 102.150, 81.538 111.600, 80.953 121.500 C 79.539 145.456, 77.384 157.412, 71.938 171.519 C 70.872 174.280, 70 177.333, 70 178.305 C 70 179.276, 69.369 181.067, 68.598 182.285 C 67.827 183.503, 66.888 185.980, 66.510 187.788 C 65.736 191.500, 56.878 209.026, 51.629 217.231 C 48.295 222.443, 41.856 229, 40.072 229 C 39.600 229, 38.960 229.662, 38.649 230.471 C 37.896 232.436, 40.591 235, 43.410 235 C 46.337 235, 52.692 230.134, 53.428 227.330 C 53.742 226.136, 56.119 223.038, 58.712 220.445 C 63.233 215.925, 66 211.879, 66 209.790 C 66 209.250, 66.910 207.531, 68.021 205.970 C 69.891 203.345, 74.314 191.830, 75.693 186 C 76.018 184.625, 77.158 182.253, 78.225 180.729 C 81.691 175.781, 84.070 167.633, 88.446 145.722 C 89.434 140.777, 90 132.511, 90 123.031 C 90 114.168, 90.406 107.867, 91 107.500 C 92.512 106.565, 92.199 101.285, 90.428 97.860 C 88.692 94.504, 89.124 92, 91.439 92 C 93.084 92, 100.120 88.971, 112.537 82.918 C 116.958 80.763, 121.105 79, 121.753 79 C 122.400 79, 124.409 77.730, 126.215 76.179 C 128.022 74.627, 131.738 72.128, 134.472 70.625 C 139.605 67.804, 144.413 64.445, 153.335 57.449 C 159.164 52.877, 160.609 48.436, 157.415 44.906 C 154.955 42.188, 153.731 42.507, 150.317 46.756 M 143.243 87.157 C 142.559 87.841, 142 88.915, 142 89.545 C 142 91.175, 138.644 94, 136.706 94 C 135.807 94, 134.589 93.100, 134 92 C 132.541 89.274, 128.394 89.395, 126.889 92.208 C 126.239 93.422, 125.746 95.771, 125.793 97.428 C 125.840 99.085, 125.397 101.022, 124.807 101.732 C 123.061 103.836, 115.006 107, 111.396 107 C 109.021 107, 107.621 107.655, 106.587 109.250 C 104.506 112.459, 105.842 118.054, 109.129 119.899 C 111.433 121.192, 112.135 121.113, 116.309 119.092 C 118.854 117.860, 121.963 116.998, 123.218 117.176 C 125.289 117.470, 125.491 118.003, 125.402 122.931 C 125.317 127.583, 124.918 128.659, 122.618 130.431 C 113.548 137.420, 113.372 137.658, 115.034 140.688 C 115.878 142.227, 117.349 143.636, 118.303 143.820 C 120.489 144.241, 136.114 136.636, 138.516 133.982 C 139.503 132.892, 141.092 132, 142.048 132 C 143.853 132, 145 130.094, 145 127.093 C 145 125.236, 141.065 121, 139.341 121 C 138.774 121, 137.512 120.118, 136.536 119.040 C 133.317 115.483, 135.218 110.733, 143.095 102.649 C 149.831 95.737, 150.052 95.351, 149.781 91 C 149.533 87.031, 149.204 86.465, 146.993 86.207 C 145.614 86.046, 143.927 86.473, 143.243 87.157 M 150.200 140.200 C 148.542 141.858, 148.695 147.215, 150.468 149.559 C 153.124 153.070, 152.309 155.323, 147.250 158.460 C 139.890 163.023, 138.890 163.504, 130.944 166.292 C 126.850 167.729, 121.025 169.878, 118 171.066 C 114.975 172.255, 110.475 173.560, 108 173.967 C 105.525 174.374, 101.371 175.653, 98.769 176.810 C 96.167 177.966, 92.117 179.424, 89.769 180.049 C 87.421 180.675, 84.713 181.889, 83.750 182.748 C 81.740 184.542, 81.433 189.033, 83.200 190.800 C 84.656 192.256, 88.646 192.382, 89.500 191 C 89.840 190.450, 90.936 190, 91.937 190 C 92.937 190, 94.315 189.325, 95 188.500 C 95.685 187.675, 97.202 186.989, 98.372 186.976 C 105.352 186.896, 134.191 175.957, 151.274 166.911 C 153.350 165.812, 155.428 165.147, 155.892 165.433 C 157.705 166.553, 160.260 191.949, 160.377 210 C 160.590 243.082, 156.074 264, 148.718 264 C 147.537 264, 142.956 262.143, 138.536 259.872 C 132.059 256.545, 127.978 253.296, 117.500 243.122 C 102.715 228.767, 89.256 217.932, 83.740 215.945 C 80.432 214.754, 79.785 214.787, 78.353 216.218 C 75.916 218.656, 77.147 220.352, 85.082 225.485 C 89.376 228.262, 98.065 235.930, 106.542 244.423 C 121.044 258.953, 130.659 267.036, 136.337 269.473 C 147.114 274.097, 150.141 275.005, 152.737 274.388 C 156.147 273.578, 159 271.196, 159 269.159 C 159 268.318, 159.926 266.644, 161.057 265.439 C 162.189 264.235, 164.221 259.977, 165.574 255.978 C 167.799 249.404, 168.928 239.904, 170.209 217 C 170.412 213.354, 168.783 187.415, 167.657 176.370 C 166.957 169.509, 166.777 163.169, 167.243 161.772 C 168.138 159.087, 170.811 157.422, 175.500 156.629 C 185.102 155.004, 190 152.303, 190 148.632 C 190 145.400, 188.122 144, 183.789 144 C 179.957 144, 171.971 147.079, 168.790 149.783 C 166.177 152.005, 162.472 150.576, 160.957 146.763 C 159.514 143.130, 155.329 139.091, 152.950 139.036 C 152.097 139.016, 150.860 139.540, 150.200 140.200 M 49 143.882 C 45.056 144.578, 44.192 146.745, 45.981 151.451 L 47.054 154.271 54.777 153.578 C 63.119 152.829, 67 151.068, 67 148.034 C 67 143.686, 59.674 141.996, 49 143.882 M 41.428 179.855 C 34.811 185.256, 27.690 190.300, 23.598 192.485 C 22.552 193.043, 21.202 194.314, 20.598 195.309 C 19.722 196.751, 19.893 197.409, 21.441 198.559 C 22.509 199.351, 24.165 200, 25.122 200 C 31.774 200, 54.498 176.556, 49.650 174.696 C 48.938 174.423, 45.239 176.744, 41.428 179.855 M 138.964 187.362 C 135.905 190.209, 119.863 197.646, 114.302 198.796 C 111.583 199.358, 110.416 200.156, 110.206 201.599 C 109.816 204.272, 113.620 209, 116.160 209 C 118.450 209, 130.181 202.691, 132.027 200.467 C 132.697 199.660, 134 199, 134.922 199 C 135.845 199, 137.102 198.498, 137.716 197.884 C 138.330 197.270, 139.679 196.258, 140.714 195.634 C 149.578 190.295, 150.179 189.579, 147.800 187.200 C 146.179 185.579, 140.774 185.679, 138.964 187.362" stroke="none" fill="black" fill-rule="evenodd"/>
</svg>