<svg xmlns="http://www.w3.org/2000/svg" width="300" height="300" viewBox="0 0 300 300" version="1.1">
	<path d="M 108.669 24.750 C 107.533 26.647, 108.627 34.931, 110.250 36.724 C 111.213 37.787, 112 39.372, 112 40.246 C 112 42.698, 108.466 50.368, 106.637 51.887 C 104.795 53.415, 104.498 55.571, 106 56.500 C 107.389 57.359, 116.761 49.295, 119.633 44.770 C 123.186 39.171, 122.912 32.563, 118.927 27.728 C 116.489 24.770, 115.159 24, 112.486 24 C 110.634 24, 108.916 24.337, 108.669 24.750 M 140.490 53.876 C 136.634 55.869, 131.909 58.235, 129.990 59.133 C 128.070 60.031, 119.075 64.491, 110 69.044 C 89.638 79.260, 77.238 83.942, 62.500 86.978 C 59.200 87.658, 54.475 89.031, 52 90.029 C 47.969 91.654, 47.468 92.217, 47.190 95.424 C 46.924 98.488, 47.250 99.145, 49.458 99.984 C 52.190 101.023, 62.418 98.982, 64.396 97.004 C 64.948 96.452, 66.572 96, 68.005 96 C 70.472 96, 70.678 96.405, 71.890 103.616 C 74.294 117.923, 70.692 141.101, 62.563 163.637 C 61.153 167.545, 60 171.275, 60 171.926 C 60 172.996, 58.606 176.430, 54.428 185.651 C 53.642 187.384, 53 189.040, 53 189.331 C 53 189.622, 51.650 192.777, 50 196.342 C 48.350 199.907, 47 203.079, 47 203.391 C 47 204.269, 37.399 223.576, 33.271 231 C 32.506 232.375, 31.035 235.300, 30.001 237.500 C 28.967 239.700, 26.519 243.051, 24.561 244.946 C 18.307 250.999, 20.775 255.277, 27.684 250.358 C 32.143 247.183, 40.278 236.848, 44.101 229.500 C 45.532 226.750, 47.418 223.150, 48.293 221.500 C 50.117 218.057, 54 209.250, 54 208.555 C 54 208.299, 55.079 206.499, 56.398 204.556 C 57.716 202.613, 59.349 198.655, 60.027 195.761 C 60.705 192.868, 61.865 189.375, 62.606 188 C 63.347 186.625, 65.500 181.450, 67.389 176.500 C 70.498 168.358, 71.890 163.943, 75.273 151.500 C 75.871 149.300, 76.685 147.050, 77.082 146.500 C 77.479 145.950, 78.344 141.900, 79.005 137.500 C 79.665 133.100, 80.612 128.737, 81.109 127.804 C 82.131 125.885, 83.309 113.544, 83.048 107.500 C 82.952 105.300, 82.790 101.025, 82.687 98 L 82.500 92.500 89.500 88.844 C 93.350 86.833, 97.850 84.871, 99.500 84.483 C 101.150 84.094, 104.525 82.749, 107 81.492 C 109.475 80.235, 113.075 78.471, 115 77.571 C 116.925 76.672, 119.625 75.279, 121 74.476 C 122.375 73.673, 125.075 72.330, 127 71.490 C 128.925 70.651, 131.625 69.318, 133 68.528 C 134.375 67.738, 138.735 65.667, 142.688 63.926 C 151.853 59.890, 154.741 57.014, 153.420 53.235 C 152.070 49.377, 148.889 49.534, 140.490 53.876 M 157.061 75.427 C 155.874 76.857, 156.006 88.253, 157.438 107.993 L 158.054 116.486 149.868 124.243 C 145.366 128.509, 141.192 132.008, 140.591 132.017 C 139.991 132.027, 138.416 133.177, 137.090 134.574 C 135.765 135.971, 133.510 137.719, 132.079 138.459 C 130.649 139.199, 127.638 141.986, 125.389 144.654 C 121.579 149.172, 121.341 149.811, 121.900 154.002 C 122.975 162.063, 123.419 161.789, 151.475 135.750 C 154.882 132.588, 158.194 130, 158.835 130 C 159.654 130, 160 133.405, 160 141.465 C 160 151.906, 159.821 153.025, 158 154 C 156.900 154.589, 156 156.023, 156 157.188 C 156 158.353, 154.650 162.164, 153 165.656 C 151.350 169.148, 150 172.416, 150 172.918 C 150 174.088, 142.320 188.670, 139.868 192.154 C 138.841 193.614, 137.997 195.414, 137.994 196.154 C 137.990 196.894, 137.386 198.625, 136.652 200 C 135.917 201.375, 133.421 206.090, 131.107 210.478 C 126.594 219.031, 124.382 222, 122.519 222 C 120.838 222, 117.317 226.014, 116.038 229.390 C 113.983 234.813, 119.384 237.758, 125.533 234.567 C 127.918 233.330, 134.065 224.281, 137.127 217.500 C 137.623 216.400, 138.890 214.150, 139.942 212.500 C 140.993 210.850, 141.887 208.576, 141.927 207.446 C 141.967 206.317, 143.567 203.874, 145.481 202.018 C 147.396 200.163, 149.487 197.054, 150.129 195.110 C 150.770 193.165, 152.579 189.803, 154.148 187.637 C 155.716 185.472, 157 183.092, 157 182.350 C 157 181.607, 157.675 181, 158.500 181 C 160.634 181, 160.612 191.247, 158.475 193.021 C 157.124 194.142, 157.120 194.475, 158.436 195.930 C 160.064 197.728, 159.917 208.016, 157.986 227.500 C 157.441 233, 156.541 243.920, 155.987 251.767 C 155.346 260.837, 154.325 267.759, 153.184 270.767 C 151.681 274.731, 151.511 277.021, 152.140 284.861 C 152.671 291.475, 153.393 294.776, 154.601 296.111 C 156.545 298.260, 160.484 298.615, 161.691 296.750 C 162.136 296.063, 162.562 289.650, 162.637 282.500 C 162.788 268.251, 163.454 258.702, 164.938 249.500 C 165.470 246.200, 166.117 240.350, 166.376 236.500 C 168.211 209.180, 169.172 198.428, 169.841 197.759 C 171.272 196.328, 182.453 199.325, 190 203.162 C 194.125 205.259, 198.455 206.980, 199.623 206.987 C 202.076 207.002, 210.641 210.610, 211.493 211.988 C 211.809 212.500, 214.565 213.706, 217.616 214.668 C 221.669 215.946, 223.543 217.150, 224.571 219.138 C 227.460 224.723, 232.105 223.910, 234.598 217.383 C 236.260 213.031, 236.250 212.895, 234.092 210.598 C 232.010 208.382, 229.096 206.922, 221 204.036 C 213.299 201.292, 199.328 195.842, 196.500 194.480 C 186.667 189.743, 176.221 186.780, 172.426 187.652 C 168.922 188.457, 168.256 186.225, 169.101 176.500 C 169.531 171.550, 169.845 156.732, 169.799 143.571 L 169.715 119.642 172.262 117.571 C 173.663 116.432, 177.080 113.700, 179.855 111.500 C 187.744 105.245, 188.966 97.991, 182.344 96.725 C 178.352 95.962, 177.003 96.826, 175.043 101.400 C 173.409 105.212, 168.758 109.092, 167.424 107.757 C 167.105 107.438, 166.632 101.850, 166.372 95.339 C 165.783 80.565, 165.315 77.458, 163.389 75.532 C 161.467 73.610, 158.608 73.562, 157.061 75.427 M 101.249 93.200 C 100.508 94.092, 100.274 99.837, 100.536 110.694 L 100.925 126.858 97.428 129.929 C 95.504 131.618, 93.421 133, 92.799 133 C 92.177 133, 90.955 133.688, 90.084 134.528 C 89.213 135.368, 86.967 137.056, 85.094 138.278 C 80.289 141.413, 79.244 143.387, 81.300 145.443 C 82.211 146.354, 83.384 147.863, 83.907 148.798 C 84.781 150.360, 85.085 150.319, 87.679 148.289 C 92.625 144.417, 101.050 139.913, 102.113 140.570 C 102.688 140.925, 102.898 142.812, 102.589 144.853 C 102.285 146.859, 101.571 156.600, 101.001 166.500 C 99.923 185.238, 98.440 197.215, 96.813 200.314 C 96.168 201.543, 96.254 202.601, 97.078 203.594 C 97.950 204.645, 98.112 207.676, 97.651 214.280 C 96.484 230.976, 94.910 239.257, 92.381 242.016 C 90.214 244.379, 90.157 244.771, 91.436 248.493 C 93.180 253.563, 96.171 255.699, 99.442 254.208 C 101.452 253.293, 101.885 252.235, 102.267 247.313 C 102.515 244.116, 103.482 235.887, 104.417 229.027 C 105.352 222.167, 105.908 215.755, 105.652 214.778 C 105.397 213.801, 105.596 212.750, 106.094 212.442 C 106.592 212.134, 107 210.209, 107 208.163 C 107 206.118, 107.714 203.426, 108.587 202.180 C 109.854 200.370, 109.927 199.617, 108.949 198.439 C 108.060 197.368, 107.916 194.433, 108.421 187.732 C 108.804 182.654, 109.334 174.675, 109.599 170 C 109.863 165.325, 110.511 159.055, 111.040 156.066 C 111.568 153.078, 112 147.632, 112 143.966 C 112 132.834, 114.207 128.922, 124.727 121.405 C 133.238 115.323, 135.924 109.060, 132.135 104.133 C 129.855 101.168, 126.360 101.968, 124.658 105.845 C 122.595 110.546, 119.874 113.915, 116.415 116.053 C 114.557 117.201, 112.644 117.898, 112.164 117.601 C 111.059 116.918, 109.637 105.954, 109.868 99.891 C 109.972 97.170, 109.520 94.847, 108.766 94.221 C 106.494 92.335, 102.425 91.783, 101.249 93.200 M 39.799 148.831 C 32.226 151.048, 31.626 151.782, 34.142 155.756 C 35.947 158.607, 36.726 159, 40.567 159 C 46.504 159, 53 155.580, 53 152.456 C 53 149.989, 49.615 146.943, 47.027 147.081 C 46.187 147.126, 42.935 147.914, 39.799 148.831 M 80.513 183.980 C 79.131 186.169, 77.967 188.532, 77.927 189.230 C 77.887 189.929, 76.992 191.850, 75.938 193.500 C 73.645 197.090, 73.549 197.320, 72.056 202.809 C 71.261 205.732, 69.121 208.949, 65.403 212.809 C 60.403 218.001, 59.948 218.851, 60.211 222.500 C 60.447 225.762, 60.909 226.558, 62.718 226.815 C 65.312 227.184, 70.331 222.563, 74.584 215.891 C 78.591 209.603, 83.097 205, 85.246 205 C 86.265 205, 88.539 204.213, 90.300 203.250 L 93.500 201.500 89.250 201.193 C 86.912 201.023, 85.006 200.573, 85.013 200.193 C 85.020 199.812, 86.370 196.849, 88.013 193.609 C 91.503 186.725, 91.855 182.528, 89.066 181.035 C 85.396 179.071, 83.116 179.856, 80.513 183.980 M 39.950 185.573 C 38.602 186.319, 36.820 186.945, 35.990 186.965 C 35.159 186.984, 33.266 188.125, 31.783 189.500 C 30.301 190.875, 28.799 192, 28.447 192 C 28.095 192, 25.721 193.836, 23.171 196.081 C 20.621 198.325, 17.289 200.898, 15.767 201.797 C 14.245 202.696, 13 203.931, 13 204.541 C 13 206.003, 17.289 210, 18.857 210 C 20.675 210, 29.982 202.839, 34 198.348 C 35.925 196.196, 38.423 193.775, 39.550 192.968 C 41.636 191.474, 45 187.102, 45 185.884 C 45 184.449, 42.282 184.281, 39.950 185.573 M 128.337 195.063 C 127.752 195.648, 124.187 196.358, 120.416 196.641 C 116.644 196.924, 113.227 197.359, 112.823 197.609 C 111.420 198.477, 113.197 200.919, 116.764 203.023 C 120.249 205.079, 120.477 205.091, 124.924 203.429 C 131.051 201.139, 132 200.261, 132 196.878 C 132 193.927, 130.310 193.090, 128.337 195.063" stroke="none" fill="black" fill-rule="evenodd"/>
</svg>