<svg xmlns="http://www.w3.org/2000/svg" width="300" height="300" viewBox="0 0 300 300" version="1.1">
	<path d="M 154.750 41.392 C 153.787 42.123, 153 43.178, 153 43.738 C 153 44.297, 152.325 45.315, 151.500 46 C 150.675 46.685, 150 48.039, 150 49.009 C 150 50.078, 148.525 51.439, 146.250 52.467 C 139.964 55.309, 122.579 64.201, 121.250 65.254 C 119.252 66.837, 119.711 73.428, 121.960 75.464 C 124.515 77.776, 127.566 77.019, 136.175 71.939 C 139.846 69.773, 143.136 68, 143.486 68 C 144.394 68, 143.061 76.699, 141.352 81.926 C 140.556 84.360, 138.556 88.349, 136.909 90.790 C 133.078 96.466, 132.480 102.354, 135.689 102.811 C 136.941 102.990, 138.585 102.283, 139.534 101.157 C 147.663 91.513, 148.432 91, 154.760 91 C 160.693 91, 163.966 92.629, 162.570 94.887 C 161.663 96.355, 163.801 97.267, 166.539 96.580 C 167.872 96.245, 169.674 94.598, 170.542 92.919 C 174.406 85.447, 169.267 80, 158.352 80 C 154.858 80, 152 79.563, 152 79.030 C 152 78.496, 153.350 75.403, 155 72.156 C 156.650 68.909, 158 65.740, 158 65.113 C 158 64.486, 158.520 62.966, 159.155 61.736 C 159.791 60.506, 160.623 58.825, 161.004 58 C 161.386 57.175, 162.978 55.825, 164.543 55 C 169.619 52.324, 174.107 47.739, 173.793 45.550 C 173.535 43.746, 172.867 43.526, 168.220 43.720 C 164.104 43.892, 162.507 43.507, 160.970 41.970 C 158.683 39.683, 157.185 39.544, 154.750 41.392 M 191.500 96.884 C 185.534 99.046, 178.619 102.618, 167.727 109.164 C 163.301 111.824, 159.293 114, 158.819 114 C 158.345 114, 156.131 115.208, 153.900 116.685 C 150.136 119.176, 141.897 122.990, 136 124.972 C 125.371 128.545, 114.941 131.161, 108.882 131.774 C 100.689 132.604, 98.935 134.062, 100.558 138.697 C 102.141 143.221, 108.821 143.064, 123.619 138.154 C 140.434 132.576, 154.986 126.205, 158.548 122.861 C 160.584 120.949, 162.652 120, 164.783 120 C 166.574 120, 170.105 118.686, 172.846 117 C 175.527 115.350, 178.002 114, 178.346 114 C 178.689 114, 181.192 112.633, 183.907 110.962 C 186.931 109.102, 190.859 107.686, 194.042 107.309 C 198.160 106.821, 199.943 105.990, 202.620 103.313 C 206.464 99.469, 206.850 97.525, 204.066 96.035 C 201.273 94.541, 197.209 94.815, 191.500 96.884 M 68.084 117.188 C 65.655 118.390, 61.841 121.314, 59.609 123.687 C 53.875 129.780, 52.729 129.392, 51.780 121.033 C 51.411 117.783, 46.751 115.039, 44.259 116.604 C 41.896 118.088, 41.245 129.870, 43.340 133.217 C 44.177 134.553, 45.253 140.894, 45.934 148.500 C 46.575 155.650, 47.751 165.181, 48.549 169.680 C 49.347 174.178, 50 179.038, 50 180.479 C 50 184.503, 52.722 188.892, 55.677 189.634 C 58.926 190.449, 66.925 188.540, 73.190 185.453 L 77.880 183.143 78.190 185.311 C 78.360 186.504, 79.321 187.636, 80.324 187.827 C 82.619 188.265, 86 185.289, 86 182.831 C 86 181.809, 86.390 180.191, 86.866 179.236 C 89.532 173.890, 91.306 166.602, 92.886 154.500 C 93.317 151.200, 94.142 147.370, 94.720 145.988 C 96.603 141.481, 95.980 133.113, 93.389 128.102 C 90.553 122.621, 89.545 121.349, 85.173 117.744 C 80.927 114.241, 74.461 114.031, 68.084 117.188 M 76.667 126.667 C 74.334 128.999, 77.437 141, 80.373 141 C 82.621 141, 86 137.383, 86 134.977 C 86 130.204, 79.192 124.142, 76.667 126.667 M 167.379 128.627 C 166.957 130.309, 167.310 132.254, 168.360 134.032 C 169.262 135.559, 170 137.887, 170 139.204 C 170 140.522, 170.416 142.028, 170.925 142.550 C 171.434 143.072, 172.083 146.875, 172.368 151 C 173.901 173.204, 174.889 184.060, 175.827 189 C 178.878 205.077, 179.996 242.960, 178.039 264 C 176.622 279.231, 175.800 280.549, 170.323 276.358 C 168.220 274.750, 164.025 271.779, 161 269.757 C 157.975 267.734, 153.572 264.712, 151.215 263.040 C 148.858 261.368, 146.702 260, 146.424 260 C 146.146 260, 144.700 259.164, 143.210 258.142 C 135.153 252.616, 124.862 246, 124.323 246 C 123.984 246, 121.779 244.421, 119.424 242.491 C 117.068 240.561, 112.522 237.722, 109.321 236.182 C 106.119 234.642, 101.447 232.058, 98.937 230.441 C 96.427 228.823, 92.045 226.413, 89.199 225.085 C 84.178 222.741, 83.963 222.724, 82.012 224.489 C 80.905 225.491, 80 226.668, 80 227.106 C 80 227.544, 83.037 229.558, 86.750 231.583 C 94.147 235.616, 111.705 246.761, 118.127 251.500 C 123.876 255.742, 135.953 263.913, 142.199 267.788 C 145.115 269.597, 151.316 274.659, 155.979 279.038 C 160.643 283.417, 164.925 287, 165.494 287 C 166.064 287, 168.209 287.900, 170.261 289 C 174.235 291.130, 177.633 291.518, 179.875 290.099 C 183.055 288.084, 185.864 275.078, 186.916 257.500 C 187.649 245.244, 186.711 201.507, 185.436 188.500 C 185.220 186.300, 184.592 180, 184.040 174.500 C 183.488 169, 182.650 160.450, 182.177 155.500 C 181.704 150.550, 180.560 144.733, 179.636 142.573 C 178.489 139.896, 178.280 138.320, 178.977 137.623 C 180.858 135.742, 180.029 132.410, 176.881 129.190 C 172.820 125.036, 168.347 124.771, 167.379 128.627 M 57.750 135.324 C 55.188 137.421, 55 138.096, 55 145.181 C 55 154.152, 56.218 155.335, 61.223 151.224 C 63.025 149.744, 64.831 148.075, 65.235 147.516 C 66.289 146.058, 66.157 141.105, 64.947 136.750 C 63.730 132.365, 61.824 131.988, 57.750 135.324 M 80.616 153.527 C 79.727 154.416, 79 155.925, 79 156.880 C 79 157.836, 78.339 159.491, 77.532 160.559 C 75.065 163.820, 75.746 172, 78.485 172 C 80.916 172, 82.449 168.718, 83.094 162.130 C 83.450 158.483, 83.913 154.881, 84.121 154.125 C 84.689 152.065, 82.458 151.685, 80.616 153.527 M 62.500 162.243 C 60.850 162.809, 58.938 163.422, 58.250 163.605 C 57.389 163.834, 57 166.294, 57 171.500 C 57 177.489, 57.331 179.190, 58.589 179.673 C 61.078 180.628, 65.437 175.206, 67.378 168.742 C 69.715 160.962, 69.001 160.011, 62.500 162.243 M 102.363 162.221 C 100.268 165.612, 102.105 169.463, 108.918 175.962 C 114.856 181.626, 115.861 183.102, 116.438 186.999 C 117.192 192.095, 121.140 197, 124.487 197 C 125.649 197, 127.099 197.499, 127.708 198.108 C 129.661 200.061, 135.194 197.340, 142.553 190.808 C 150.058 184.145, 151.342 181.026, 147 179.998 C 144.646 179.441, 144.500 179.022, 144.500 172.810 C 144.500 164.711, 142.623 162, 137.015 162 C 133.965 162, 132.309 162.934, 127.263 167.500 C 123.920 170.525, 120.704 173, 120.116 173 C 119.527 173, 118.284 171.837, 117.353 170.416 C 115.117 167.003, 107.187 161, 104.915 161 C 103.927 161, 102.778 161.550, 102.363 162.221 M 126.975 183.565 C 125.255 188.091, 125.677 188.778, 129.066 186.965 C 131.407 185.712, 131.731 181, 129.475 181 C 128.637 181, 127.512 182.154, 126.975 183.565" stroke="none" fill="black" fill-rule="evenodd"/>
</svg>