<svg xmlns="http://www.w3.org/2000/svg" width="300" height="300" viewBox="0 0 300 300" version="1.1">
	<path d="M 127.174 16.314 C 124.273 19.403, 124.421 21.076, 128.195 27.804 C 131.004 32.813, 131.442 34.627, 131.818 42.837 C 132.394 55.396, 129.752 71.588, 125.879 79.236 C 125.396 80.191, 125.001 81.541, 125.003 82.236 C 125.004 82.931, 123.992 85.415, 122.753 87.756 C 120.662 91.706, 120.610 92.210, 122.032 94.756 C 122.963 96.425, 124.566 97.618, 126.121 97.801 C 128.859 98.123, 130.589 96.726, 139.522 86.979 C 146.837 78.997, 157.752 69.728, 158.958 70.474 C 160.527 71.444, 160.218 74.540, 158.081 79.261 C 157.025 81.592, 155.846 84.625, 155.462 86 C 154.158 90.657, 151.878 95.430, 135.158 128.500 C 133.653 131.477, 124.623 145.184, 116.855 156.282 C 110.924 164.756, 104.011 171.440, 100 172.580 C 97.011 173.430, 96.500 174.008, 96.500 176.537 C 96.500 179.104, 96.905 179.540, 99.530 179.797 C 101.602 180, 103.972 179.136, 107.030 177.065 C 109.488 175.399, 112.246 174.028, 113.157 174.018 C 115.534 173.992, 123.169 165.134, 131.128 153.168 C 134.908 147.486, 138 142.578, 138 142.262 C 138 141.947, 139.181 140.141, 140.623 138.249 C 142.862 135.314, 143.705 134.883, 146.373 135.311 C 152.298 136.260, 162 139.248, 162 140.123 C 162 140.605, 162.665 141, 163.477 141 C 165.156 141, 175.686 146.482, 178.079 148.602 C 178.947 149.371, 180.804 150, 182.206 150 C 183.608 150, 185.315 150.675, 186 151.500 C 186.685 152.325, 187.752 153.003, 188.372 153.006 C 188.993 153.010, 190.625 153.616, 192 154.354 C 193.375 155.093, 196.525 156.742, 199 158.019 C 205.272 161.255, 219.314 170.468, 220.916 172.398 C 221.647 173.279, 222.822 174, 223.528 174 C 224.233 174, 226.696 175.575, 229 177.500 C 231.304 179.425, 233.590 181, 234.079 181 C 235.458 181, 261.862 207.970, 265.162 212.750 C 268.602 217.732, 270.895 218.105, 274.460 214.260 C 278.248 210.175, 277.878 205.949, 273.347 201.548 C 271.337 199.597, 269.026 198, 268.210 198 C 267.395 198, 263.065 194.287, 258.588 189.750 C 250.685 181.740, 243.259 175.558, 234 169.283 C 231.525 167.605, 228.643 165.280, 227.595 164.116 C 226.547 162.952, 225.185 162, 224.568 162 C 223.950 162, 220.307 159.735, 216.473 156.966 C 209.816 152.160, 205.667 149.911, 194.500 145.053 C 187.358 141.947, 184.783 140.764, 173 135.180 C 167.225 132.443, 161.375 129.879, 160 129.483 C 158.625 129.087, 156.825 128.183, 156 127.473 C 155.175 126.763, 153.375 126.027, 152 125.838 C 148.914 125.413, 148.994 122.629, 152.274 116.290 C 155.018 110.988, 161.067 98.826, 165.599 89.500 C 167.470 85.650, 169.001 81.514, 169.001 80.309 C 169 79.104, 169.450 77.840, 170 77.500 C 170.550 77.160, 171 73.135, 171 68.556 C 171 60.962, 170.797 60.097, 168.691 58.717 C 164.113 55.718, 153.935 59.797, 143.747 68.715 C 137.387 74.282, 136.972 73.218, 140.150 59.500 C 141.741 52.630, 141.666 27.565, 140.039 22.500 C 137.429 14.377, 131.619 11.583, 127.174 16.314 M 58.063 34.424 C 56.714 36.049, 57.505 41.825, 59.635 45.907 C 61.377 49.246, 61.352 52.801, 59.562 56.233 C 58.319 58.615, 58.330 59.354, 59.641 61.983 C 60.469 63.642, 61.494 65, 61.918 65 C 62.851 65, 66 61.630, 66 60.631 C 66 60.239, 66.907 58.692, 68.016 57.192 C 69.326 55.420, 70.250 52.134, 70.654 47.801 C 71.253 41.383, 71.157 40.987, 68.054 37.068 C 64.610 32.720, 60.402 31.606, 58.063 34.424 M 79.500 59.648 C 77.300 60.426, 71.423 63.074, 66.440 65.531 C 61.458 67.989, 56.710 70, 55.890 70 C 55.071 70, 53.973 70.372, 53.450 70.826 C 52.928 71.280, 50.475 72.213, 48 72.899 C 36.204 76.167, 28.896 82.423, 31.682 86.868 C 33.329 89.497, 36.210 89.289, 43.065 86.046 C 46.604 84.372, 50.187 83.001, 51.027 83.001 C 51.868 83, 53.493 82.343, 54.640 81.540 C 55.787 80.736, 59.149 79.126, 62.112 77.961 C 65.076 76.795, 68.175 75.260, 69 74.549 C 69.825 73.839, 72.975 72.469, 76 71.506 C 79.025 70.542, 81.927 69.359, 82.450 68.877 C 82.973 68.395, 84.830 68, 86.578 68 C 90.830 68, 92.671 65.769, 91.159 62.450 C 90.535 61.081, 88.865 59.519, 87.447 58.980 C 84.443 57.838, 84.672 57.818, 79.500 59.648 M 79.500 107.412 C 71.689 110.003, 64.243 113.968, 61.502 116.998 C 60.505 118.099, 59.106 119, 58.393 119 C 57.247 119, 53.544 123.862, 50.429 129.457 C 48.250 133.369, 46.944 132.204, 43.191 123 C 39.470 113.873, 38.323 111.934, 36.329 111.402 C 31.980 110.242, 30.535 111.274, 29.875 116.013 C 29.532 118.481, 29.610 120.954, 30.049 121.510 C 32.392 124.476, 39 138.515, 39 140.527 C 39 141.816, 39.507 144.137, 40.127 145.685 C 40.747 147.233, 41.390 150.075, 41.557 152 C 41.724 153.925, 42.335 157.975, 42.915 161 C 43.495 164.025, 44.314 169.153, 44.735 172.396 C 45.706 179.876, 47.733 181.539, 51.531 177.970 C 53.886 175.759, 54.107 174.947, 53.705 170.004 C 53.459 166.977, 52.799 162.700, 52.239 160.500 C 51.679 158.300, 50.964 152.835, 50.650 148.356 C 50.139 141.065, 50.268 140.163, 51.888 139.740 C 52.943 139.464, 53.958 137.961, 54.323 136.133 C 54.668 134.410, 55.529 133, 56.236 133 C 56.943 133, 59.317 131.434, 61.511 129.519 C 66.236 125.396, 69.554 124.804, 68.630 128.250 C 68.299 129.488, 68.021 132.336, 68.014 134.579 C 68.001 138.263, 67.373 139.280, 61.525 145.079 C 57.964 148.611, 55.039 152.081, 55.025 152.790 C 54.978 155.241, 59.334 160, 61.625 160 C 63.662 160, 63.819 160.354, 63.287 163.750 C 62.965 165.813, 62.093 168.388, 61.350 169.473 C 60.608 170.557, 59.990 172.132, 59.978 172.973 C 59.966 173.813, 59.076 175.625, 58 177 C 55.566 180.112, 55.493 182.233, 57.750 184.267 C 61.469 187.619, 64.518 187.430, 68.775 183.584 C 73.393 179.412, 73.873 179.326, 77.323 182.039 L 79.915 184.079 83.929 181.545 C 86.137 180.151, 88.685 177.546, 89.592 175.755 C 90.499 173.965, 91.822 171.825, 92.533 171 C 93.712 169.632, 95.491 162.532, 96.733 154.241 C 97.001 152.448, 97.621 150.734, 98.110 150.432 C 98.600 150.129, 99.011 147.321, 99.024 144.191 C 99.037 141.061, 99.540 136.700, 100.142 134.500 C 102.853 124.596, 99.929 110.148, 94.551 106.868 C 90.629 104.476, 88.070 104.569, 79.500 107.412 M 82.559 117.532 C 81.491 118.339, 79.751 119, 78.692 119 C 77.089 119, 76.884 119.461, 77.464 121.750 C 77.847 123.263, 78.397 126.188, 78.686 128.250 C 79.148 131.556, 79.539 132, 81.983 132 C 84.797 132, 86.195 133.111, 87.305 136.229 C 87.756 137.495, 86.747 138.766, 83.540 140.972 C 80.509 143.058, 78.790 145.144, 77.959 147.743 C 77.299 149.809, 76.363 151.928, 75.879 152.450 C 75.396 152.973, 75 154.478, 75 155.796 C 75 157.113, 74.258 159.448, 73.350 160.984 C 70.749 165.387, 72.058 167.002, 78.219 166.989 C 83.348 166.977, 83.548 166.870, 85.181 163.239 C 86.105 161.182, 87.392 155.675, 88.041 151 C 88.690 146.325, 89.621 141.195, 90.110 139.601 C 91.301 135.720, 91.245 121.774, 90.025 118.565 C 88.910 115.632, 85.664 115.183, 82.559 117.532" stroke="none" fill="black" fill-rule="evenodd"/>
</svg>