<svg xmlns="http://www.w3.org/2000/svg" width="300" height="300" viewBox="0 0 300 300" version="1.1">
	<path d="M 109.809 39.527 C 99.274 48.867, 95.234 51.448, 92.759 50.422 C 92.066 50.135, 90.310 48.183, 88.855 46.085 C 85.935 41.871, 80.785 39.345, 79.151 41.323 C 78.616 41.971, 77.884 44.079, 77.523 46.009 C 76.977 48.936, 77.380 50.224, 79.958 53.784 C 83.870 59.183, 91.133 63.022, 94.024 61.217 C 96.312 59.788, 100 59.601, 100 60.913 C 100 62.287, 83.839 77.076, 81.238 78.084 C 77.982 79.345, 76.374 83.331, 77.831 86.528 C 79.408 89.990, 81.564 90.578, 85.608 88.650 C 87.492 87.751, 92.289 86.287, 96.267 85.395 C 100.245 84.504, 104.175 83.223, 105 82.550 C 105.825 81.876, 109.200 80.752, 112.500 80.051 C 119.766 78.508, 121 77.609, 121 73.856 C 121 69.796, 117.789 68.455, 111.369 69.832 C 105.459 71.100, 104.200 70.182, 107.224 66.811 C 108.476 65.416, 111.750 61.294, 114.500 57.651 C 117.250 54.009, 120.778 49.335, 122.340 47.264 C 125.494 43.085, 128 37.669, 128 35.033 C 128 32.798, 124.875 29.993, 122.421 30.025 C 121.365 30.039, 115.689 34.315, 109.809 39.527 M 76.825 111.250 C 72.684 119.705, 68.079 128.108, 66.377 130.314 C 65.345 131.652, 63.197 134.395, 61.605 136.408 C 59.100 139.576, 58.862 140.401, 59.834 142.534 C 62.990 149.462, 72.887 141.270, 80.581 125.361 C 85.418 115.358, 85.945 112.165, 83.171 109.655 C 80.432 107.176, 78.594 107.638, 76.825 111.250 M 117.250 113.597 C 113.451 115.329, 118.658 121.218, 123.187 120.313 C 125.497 119.851, 126.723 120.318, 129.054 122.551 C 130.674 124.104, 132 125.917, 132 126.580 C 132 127.920, 134.214 129, 136.963 129 C 137.953 129, 139.995 127.385, 141.501 125.410 C 143.852 122.328, 144.080 121.472, 143.117 119.358 C 142.500 118.004, 140.309 116.189, 138.248 115.326 C 134.492 113.752, 119.598 112.526, 117.250 113.597 M 135.500 169.066 C 126.457 169.998, 117.259 172.867, 108.500 177.487 C 102.175 180.823, 99.016 182.963, 88.554 191 C 83.650 194.768, 75.226 204.049, 73.124 208 C 70.887 212.206, 68.037 212.564, 66.262 208.862 C 65.011 206.251, 60.135 202.007, 48.500 193.404 C 44.033 190.100, 41.733 189.035, 39.500 189.233 C 36.570 189.494, 36.506 189.615, 36.758 194.408 C 37.079 200.494, 37.887 201.477, 45.552 205.098 C 54.188 209.178, 67 222.480, 67 227.364 C 67 228.074, 60.901 229.336, 50.742 230.728 C 27.421 233.925, 21 236.386, 21 242.129 C 21 245.743, 26.045 248.781, 29.386 247.179 C 43.359 240.478, 90.908 235.327, 134 235.845 C 135.375 235.861, 139.425 236.182, 143 236.558 C 146.575 236.934, 150.625 237.230, 152 237.217 C 157.803 237.159, 180.817 239.167, 184.500 240.053 C 186.700 240.582, 191.875 241.228, 196 241.489 C 206.305 242.141, 213.628 243.447, 215.447 244.956 C 217.156 246.374, 222.016 245.571, 223.225 243.671 C 225.051 240.799, 223.996 236.174, 220.923 233.589 C 218.162 231.265, 217.008 231, 209.667 231 C 205.168 231, 195.866 230.346, 188.994 229.548 C 182.122 228.749, 168.850 227.796, 159.500 227.431 C 150.150 227.065, 140.925 226.639, 139 226.484 C 137.075 226.330, 134.450 226.157, 133.167 226.101 C 130.187 225.972, 130.512 225.202, 136.020 219.324 C 141.178 213.820, 147 206.524, 147 205.564 C 147 205.208, 147.897 203.953, 148.994 202.776 C 152.405 199.115, 154.749 193.604, 155.819 186.736 C 157.286 177.311, 155.922 173.512, 150.002 170.538 C 146.132 168.593, 143.086 168.284, 135.500 169.066 M 126.250 181.491 C 122.853 182.967, 122.267 184.762, 124.077 188.144 C 125.323 190.472, 123.513 203.565, 121.799 204.624 C 121.237 204.972, 119.727 207.630, 118.443 210.532 C 116.972 213.859, 114.426 217.216, 111.555 219.616 C 105.801 224.425, 105.703 226, 111.156 226 C 113.968 226, 116.311 225.242, 118.406 223.656 C 120.108 222.366, 122.048 221.129, 122.719 220.906 C 124.882 220.186, 133.625 209.096, 136.483 203.445 C 138.011 200.427, 139.639 197.723, 140.103 197.436 C 142.180 196.153, 146.482 183.699, 145.623 181.459 C 144.870 179.497, 130.785 179.520, 126.250 181.491 M 105.355 189.791 C 102.282 192.437, 102.208 192.704, 102.143 201.325 C 102.038 215.356, 105.138 217.939, 109.854 207.750 C 113.240 200.434, 114.486 193.409, 113.062 189.662 C 111.776 186.280, 109.384 186.320, 105.355 189.791 M 86.985 204.020 C 85.764 205.736, 83.737 207.530, 82.481 208.007 C 78.594 209.485, 74.699 215.571, 74.614 220.298 C 74.488 227.343, 75.120 228, 82.020 228 C 86.495 228, 89.146 227.405, 92.044 225.750 C 95.814 223.597, 97.129 220.816, 95 219.500 C 94.450 219.160, 94 217.754, 94 216.375 C 94 214.997, 93.522 212.976, 92.938 211.884 C 92.354 210.793, 91.791 208.046, 91.688 205.781 C 91.452 200.608, 89.844 200.006, 86.985 204.020" stroke="none" fill="black" fill-rule="evenodd"/>
</svg>