<svg xmlns="http://www.w3.org/2000/svg" width="300" height="300" viewBox="0 0 300 300" version="1.1">
	<path d="M 174.532 46.289 C 167.229 50.218, 165.941 51.652, 166.255 55.500 C 166.595 59.658, 170.823 60.168, 175.101 56.569 C 176.840 55.105, 179.399 54, 181.049 54 C 183.716 54, 184.074 54.454, 185.593 59.750 C 186.500 62.913, 187.611 65.965, 188.063 66.532 C 188.514 67.100, 189.022 70.475, 189.192 74.032 C 189.478 80.028, 189.354 80.475, 187.500 80.160 C 183.209 79.430, 181.097 79.863, 177.862 82.137 C 176.013 83.437, 174.196 84.950, 173.823 85.500 C 173.451 86.050, 171.539 88.244, 169.573 90.376 C 165.525 94.766, 164.929 98.721, 167.909 101.418 C 169.673 103.014, 170.052 103.025, 172.889 101.558 C 174.578 100.684, 177.909 97.935, 180.291 95.449 C 183.261 92.349, 185.547 90.861, 187.562 90.714 C 190.476 90.502, 190.505 90.554, 191.133 97 C 191.481 100.575, 191.819 110.815, 191.883 119.757 C 191.999 135.916, 191.985 136.026, 189.500 138.187 C 186.537 140.763, 186.320 143.075, 188.829 145.345 C 191.104 147.404, 194.882 147.471, 197.692 145.503 C 200.671 143.417, 201.494 133.637, 200.556 111.500 C 198.643 66.398, 198.103 59.210, 196.371 55.800 C 195.617 54.314, 195 51.992, 195 50.639 C 195 49.118, 193.824 47.188, 191.923 45.589 C 187.592 41.944, 182.204 42.161, 174.532 46.289 M 65.500 47.059 C 56.630 51.445, 43.451 59.201, 40.810 61.588 C 39.540 62.737, 37.015 64.263, 35.199 64.981 C 32.734 65.955, 31.974 66.811, 32.199 68.365 C 32.661 71.555, 39.904 72.690, 45.694 70.479 C 48.129 69.549, 50.358 69.025, 50.648 69.315 C 50.938 69.604, 50.632 72.454, 49.970 75.647 C 48.767 81.438, 49.438 88.943, 52.066 99.116 C 52.580 101.105, 53 111.140, 53 121.416 C 53 136.495, 52.695 140.689, 51.419 143.157 C 49.651 146.575, 50.082 149.645, 52.799 153.001 C 55.128 155.876, 57.920 155.098, 60.411 150.882 C 62.199 147.854, 63.328 146.485, 71.250 137.732 C 73.313 135.453, 75 132.996, 75 132.272 C 75 131.548, 76.839 128.960, 79.086 126.522 C 83.048 122.225, 83.486 120, 80.371 120 C 78.617 120, 71.525 124.720, 66.814 129.023 C 62.382 133.070, 61 132.860, 61 128.136 C 61 119.326, 62.803 113.669, 66.745 110.113 C 81.171 97.099, 81.882 96.013, 78.171 92.655 C 75.317 90.072, 72.657 90.670, 67.737 95 C 62.339 99.752, 61 99.976, 61 96.126 C 61 94.545, 60.325 91.338, 59.500 89 C 58.675 86.662, 58 81.687, 58 77.946 C 58 73.232, 57.539 70.682, 56.500 69.643 C 53.156 66.298, 54.943 64.305, 68.915 55.793 C 74.066 52.656, 75 51.650, 75 49.243 C 75 46.667, 73.446 43.929, 72.050 44.046 C 71.748 44.071, 68.800 45.427, 65.500 47.059 M 111.200 54.200 C 109.580 55.820, 109.690 57.596, 111.643 61.346 C 112.546 63.081, 113.666 65.272, 114.130 66.216 C 115.380 68.757, 117.061 75.743, 117.963 82.150 C 118.400 85.258, 119.020 88.224, 119.340 88.742 C 120.441 90.522, 120.947 134.586, 119.931 140.088 C 118.214 149.382, 118.169 151.432, 119.629 153.750 C 120.706 155.459, 121.988 156, 124.964 156 C 127.119 156, 129.202 155.482, 129.594 154.848 C 129.985 154.215, 130.237 144.813, 130.153 133.955 C 129.966 109.732, 130.043 109.624, 140.222 119.710 C 143.990 123.445, 148.744 129.068, 150.787 132.207 C 153.312 136.087, 155.170 137.927, 156.595 137.957 C 159.257 138.012, 162.468 134.582, 161.412 132.813 C 156.506 124.592, 149.319 114.694, 145.830 111.353 C 137.523 103.396, 135.903 102, 134.974 102 C 132.906 102, 132.748 96.777, 134.706 93.152 C 135.791 91.143, 138.497 86.125, 140.720 82 C 145.714 72.734, 146.828 67.572, 144.409 64.900 C 141.374 61.546, 135.010 62.932, 134.994 66.950 C 134.990 67.802, 134.315 69.789, 133.494 71.364 C 132.672 72.940, 132 75.107, 132 76.180 C 132 78.976, 130.173 82, 128.484 82 C 126.876 82, 126.258 79.902, 125.685 72.500 C 125.199 66.224, 121.693 57.052, 118.901 54.750 C 116.443 52.723, 112.928 52.472, 111.200 54.200 M 93.127 101.478 C 88.500 106.498, 88.387 106.913, 90.526 111.050 C 91.771 113.458, 92.690 114, 95.526 114 C 99.419 114, 100.167 116.075, 97.532 119.559 C 96.724 120.626, 96.049 122.264, 96.032 123.197 C 96 124.877, 93.533 129.843, 88.972 137.408 L 86.616 141.316 90.020 144.158 C 94.439 147.847, 95.792 147.741, 97.536 143.568 C 98.324 141.681, 99.427 139.854, 99.985 139.509 C 100.543 139.164, 101 137.965, 101 136.845 C 101 134.922, 101.432 133.874, 105.278 126.472 C 108.866 119.566, 108.294 103.192, 104.311 98.791 C 101.456 95.636, 97.674 96.545, 93.127 101.478 M 178.051 106.827 C 175.548 109.482, 172.262 112.458, 170.750 113.442 C 166.206 116.397, 168.007 124, 173.252 124 C 175.804 124, 181 119.042, 181 116.607 C 181 115.389, 182.574 112.866, 184.500 111 C 188.160 107.453, 188.818 105.218, 186.800 103.200 C 184.677 101.077, 182.700 101.896, 178.051 106.827 M 163.743 178.113 C 148.447 179.283, 138.328 182.802, 111.500 196.284 C 107.100 198.495, 101.700 201.604, 99.500 203.194 C 97.300 204.784, 94.078 206.986, 92.340 208.088 C 90.570 209.210, 88.500 211.792, 87.633 213.960 C 86.781 216.089, 85.644 218.102, 85.106 218.435 C 84.567 218.767, 81.511 216.593, 78.314 213.604 C 67.785 203.759, 64.321 201.307, 59.960 200.610 C 55.317 199.867, 53 201.059, 53 204.188 C 53 207.616, 54.953 209.942, 59.959 212.479 C 67.751 216.428, 76.863 223.154, 84.709 230.750 C 90.526 236.380, 93.336 234.955, 94.441 225.814 C 95.099 220.364, 95.406 219.878, 101.814 214.127 C 115.391 201.943, 116.769 201.458, 116.769 208.856 C 116.769 211.526, 117.568 215.395, 118.545 217.454 C 119.654 219.791, 120.300 223.412, 120.265 227.098 C 120.235 230.344, 120.612 233, 121.105 233 C 121.597 233, 122 233.349, 122 233.775 C 122 234.507, 117.026 235.507, 98.500 238.500 C 87.012 240.355, 59.341 246.552, 46.500 250.144 C 31.306 254.395, 29.095 256.013, 32.366 260.485 C 34.328 263.168, 43.039 262.598, 53.860 259.077 C 68.448 254.331, 73.109 253.232, 84 251.975 C 90.265 251.252, 95.179 250.168, 96.183 249.288 C 97.314 248.295, 98.852 248.028, 100.874 248.472 C 102.619 248.856, 104.839 248.621, 106.159 247.915 C 108.622 246.597, 118.203 245.073, 127 244.600 C 130.025 244.438, 133.625 244.014, 135 243.658 C 142.335 241.762, 185.777 242.562, 202.249 244.897 C 226.827 248.382, 245.028 251.414, 248.500 252.602 C 254.157 254.538, 256.655 254.331, 258.443 251.777 C 260.575 248.735, 260.397 247.009, 257.592 243.500 C 255.352 240.698, 254.609 240.455, 246.347 239.820 C 241.481 239.447, 234.575 238.657, 231 238.066 C 227.425 237.475, 220.900 236.554, 216.500 236.020 C 212.100 235.485, 202.921 234.367, 196.102 233.536 C 189.283 232.704, 180.136 231.920, 175.776 231.794 C 167.284 231.547, 165.592 230.804, 169.222 228.915 C 170.475 228.263, 172.914 226.328, 174.643 224.615 C 176.371 222.902, 178.293 221.050, 178.914 220.500 C 180.827 218.805, 187 210.174, 187 209.195 C 187 208.686, 188.012 206.983, 189.248 205.411 C 191.188 202.946, 191.497 201.358, 191.498 193.858 C 191.501 182.153, 189.950 180.568, 175.500 177.503 C 174.950 177.386, 169.659 177.661, 163.743 178.113 M 163.500 187.002 C 159.100 187.427, 154.802 188.065, 153.950 188.418 C 153.009 188.808, 151.914 191.507, 151.165 195.280 C 150.487 198.701, 149.451 202.850, 148.864 204.500 C 148.278 206.150, 147.556 208.625, 147.260 210 C 146.965 211.375, 143.186 215.967, 138.862 220.204 C 132.318 226.616, 131 228.439, 131 231.079 C 131 234.097, 131.151 234.220, 134.125 233.625 C 135.844 233.281, 140.087 233, 143.554 233 C 148.145 233, 150.317 232.540, 151.551 231.306 C 152.483 230.374, 155.328 228.523, 157.873 227.193 C 165.779 223.060, 174.254 213.631, 179.562 203.064 C 182.603 197.009, 182.986 188.424, 180.250 187.621 C 176.311 186.464, 171.073 186.270, 163.500 187.002 M 136.694 194.532 C 135.102 195.932, 132.646 197, 131.016 197 C 129.436 197, 127.461 197.681, 126.628 198.514 C 125.295 199.847, 125.287 200.442, 126.557 203.482 C 127.351 205.382, 128 209.907, 128 213.537 C 128 219.756, 128.127 220.121, 130.185 219.820 C 132.805 219.437, 138.624 210.211, 139.533 205 C 139.869 203.075, 140.527 200.600, 140.994 199.500 C 141.462 198.400, 142.113 196.262, 142.441 194.750 C 143.220 191.162, 140.636 191.064, 136.694 194.532" stroke="none" fill="black" fill-rule="evenodd"/>
</svg>