<svg xmlns="http://www.w3.org/2000/svg" width="300" height="300" viewBox="0 0 300 300" version="1.1">
	<path d="M 116.667 18.667 C 115.391 19.942, 116.013 22.709, 118.113 25.097 C 122.898 30.537, 125 33.803, 125 35.797 C 125 38.313, 123.168 42.834, 121.185 45.213 C 117.983 49.054, 122.528 51.619, 126.509 48.217 C 133.333 42.384, 134.865 35.235, 131.002 27.240 C 127.842 20.700, 119.577 15.757, 116.667 18.667 M 157.903 42.433 C 154.824 43.108, 150.498 44.384, 148.290 45.267 C 146.081 46.151, 141.399 47.610, 137.887 48.510 C 134.374 49.410, 130.012 51.013, 128.193 52.073 C 126.374 53.133, 124.154 54, 123.259 54 C 121.436 54, 110.049 57.849, 108.500 58.988 C 107.950 59.393, 106.244 60.024, 104.709 60.391 C 103.174 60.758, 96.874 63.555, 90.709 66.606 C 84.544 69.656, 77.115 72.793, 74.199 73.577 C 65.616 75.883, 63 77.607, 63 80.958 C 63 85.311, 65.357 85.407, 76.523 81.506 C 89.037 77.134, 90 77.102, 90 81.057 C 90 82.739, 90.513 86.152, 91.140 88.643 C 92.234 92.985, 91.648 99.456, 88.484 118 C 88.155 119.925, 87.637 123.300, 87.331 125.500 C 87.025 127.700, 86.282 130.109, 85.679 130.854 C 85.076 131.599, 84.247 134.524, 83.836 137.354 C 82.585 145.982, 81.902 149.410, 81.017 151.500 C 80.551 152.600, 79.402 155.975, 78.464 159 C 77.526 162.025, 76.363 165.281, 75.879 166.236 C 75.396 167.191, 75 168.793, 75 169.795 C 75 170.798, 74.339 172.491, 73.532 173.559 C 72.724 174.626, 72.049 176.486, 72.032 177.691 C 72.014 178.896, 71.550 180.160, 71 180.500 C 70.450 180.840, 70 182.190, 70 183.500 C 70 184.810, 69.600 186.129, 69.111 186.432 C 68.622 186.734, 67.935 188.122, 67.585 189.517 C 67.002 191.841, 63.168 200.400, 61.098 204 C 60.623 204.825, 57.820 210.371, 54.868 216.323 C 47.951 230.269, 47.758 230.600, 44.496 234.004 C 41.370 237.267, 41.703 240.015, 45.219 239.973 C 49.215 239.926, 57.399 230.840, 62.309 221 C 63.269 219.075, 64.441 216.825, 64.912 216 C 65.383 215.175, 66.229 213.375, 66.791 212 C 67.354 210.625, 69.468 205.900, 71.490 201.500 C 73.511 197.100, 75.869 191.925, 76.730 190 C 77.590 188.075, 78.678 185.719, 79.147 184.764 C 79.616 183.809, 80 182.340, 80 181.500 C 80 180.660, 80.395 179.191, 80.878 178.236 C 83.370 173.307, 85 168.676, 85 166.525 C 85 165.201, 85.450 163.840, 86 163.500 C 86.550 163.160, 87 161.870, 87 160.632 C 87 159.395, 87.661 157.509, 88.468 156.441 C 89.276 155.374, 89.951 153.289, 89.968 151.809 C 89.986 150.329, 90.402 148.869, 90.894 148.565 C 91.386 148.261, 92.030 146.322, 92.324 144.256 C 93.396 136.736, 94.883 130.088, 95.929 128.132 C 96.518 127.032, 97 124.392, 97 122.266 C 97 120.140, 97.401 117.973, 97.891 117.450 C 99.565 115.666, 101.338 90.644, 100.049 87 C 99.563 85.625, 98.915 81.739, 98.610 78.365 L 98.055 72.229 101.777 71.189 C 103.825 70.618, 110.450 68.259, 116.500 65.949 C 137.696 57.855, 143.582 55.794, 153.677 52.932 C 159.274 51.345, 165.799 49.750, 168.177 49.386 C 170.555 49.023, 173.287 48.322, 174.250 47.828 C 176.269 46.792, 176.547 43.947, 174.800 42.200 C 173.303 40.703, 165.282 40.814, 157.903 42.433 M 173.500 67.514 C 169.343 71.251, 167.914 71.966, 165.025 71.754 C 162.339 71.558, 161.468 71.914, 161.187 73.324 C 160.733 75.608, 163.702 79, 166.155 79 C 168.826 79, 168.467 81.782, 164.964 88.250 C 163.294 91.333, 161.269 96.385, 160.464 99.476 C 157.346 111.450, 159.217 115.436, 167.678 114.840 C 172.496 114.500, 172.500 114.502, 172.221 117.500 C 172.068 119.150, 171.938 122.636, 171.932 125.246 C 171.923 129.111, 171.418 130.461, 169.211 132.519 C 165.995 135.516, 159.156 138.994, 156.434 139.015 C 153.201 139.041, 151.667 140.662, 151.667 144.054 C 151.667 150.526, 159.345 151.805, 166.877 146.585 C 168.929 145.163, 171.157 144, 171.829 144 C 173.450 144, 174.568 147.248, 175.368 154.286 C 175.969 159.575, 175.816 160.266, 173.577 162.341 C 169.836 165.808, 146.990 176.527, 136.500 179.736 C 131.089 181.392, 132.399 187.892, 138.268 188.510 C 139.496 188.639, 140.828 188.802, 141.230 188.872 C 142.380 189.074, 146.448 197.197, 147 200.396 C 147.708 204.498, 150.323 205.923, 152.885 203.604 C 156.272 200.539, 156.492 196.574, 153.567 191.340 C 152.139 188.786, 151.090 186.593, 151.235 186.468 C 151.381 186.343, 153.880 185.045, 156.790 183.583 C 159.699 182.122, 164.121 179.368, 166.617 177.463 C 169.112 175.558, 172.181 174, 173.438 174 C 175.592 174, 175.771 174.528, 176.565 183.250 C 177.029 188.338, 177.429 216.688, 177.454 246.250 L 177.500 300.001 182.785 300 C 187.793 300, 188.013 299.893, 186.980 297.962 C 186.216 296.536, 186.066 284.595, 186.480 258.212 C 186.805 237.470, 186.975 216.675, 186.859 212 C 186.289 189.182, 187.037 167.367, 188.469 165.050 C 189.298 163.709, 207.925 150.566, 214.382 146.766 C 220.261 143.307, 222.076 139.847, 219.504 137.004 C 218.506 135.902, 216.799 135, 215.710 135 C 213.995 135, 204.406 141.485, 191.809 151.164 C 185.159 156.273, 184.599 155.587, 185.354 143.254 L 186.011 132.508 192.006 126.839 C 198.074 121.100, 199.424 117.824, 196.800 115.200 C 194.868 113.268, 193.076 113.779, 188.729 117.500 C 186.480 119.425, 183.829 121, 182.837 121 C 181.225 121, 181.070 120.172, 181.372 113.149 C 181.693 105.696, 181.923 105.016, 185.932 99.706 C 190.886 93.145, 191.142 89.688, 186.711 89.180 C 184.446 88.920, 182.891 89.907, 178.440 94.430 C 175.425 97.493, 172.517 100, 171.979 100 C 170.425 100, 170.844 94.375, 172.500 93 C 173.325 92.315, 174 91.292, 174 90.726 C 174 90.160, 175.962 86.277, 178.359 82.098 C 184.447 71.488, 185.200 62.979, 180.050 63.009 C 179.197 63.014, 176.250 65.041, 173.500 67.514 M 113.543 76.250 C 112.564 79.352, 111.805 85.341, 111.062 95.820 C 110.621 102.047, 109.751 107.649, 109.130 108.270 C 107.631 109.769, 107.681 117.281, 109.200 118.800 C 111.108 120.708, 113.243 120.216, 117 117 C 123.613 111.341, 124.801 113.448, 119.500 121.434 C 117.575 124.334, 116 127.020, 116 127.402 C 116 130.438, 104.227 144.524, 97.807 149.169 C 95.622 150.750, 95.581 150.987, 97.038 153.669 C 97.883 155.226, 100.447 157.533, 102.734 158.795 C 105.022 160.058, 107.854 162.645, 109.028 164.545 C 110.701 167.253, 111.817 168, 114.188 168 C 116.223 168, 117.855 168.818, 119.179 170.500 C 122.202 174.344, 126.375 173.861, 131.118 169.118 C 134.122 166.114, 135 164.458, 135 161.798 C 135 159.376, 135.905 157.347, 138.063 154.930 C 141.747 150.805, 145.027 143.729, 144.927 140.123 C 144.828 136.591, 141.917 131.823, 138.778 130.055 C 135.247 128.065, 129.102 130.141, 123.607 135.181 C 119.172 139.247, 118 139.760, 118 137.635 C 118 136.147, 120.885 132.210, 125.239 127.756 C 126.764 126.195, 129.417 122.124, 131.133 118.709 C 132.849 115.294, 135.096 111.306, 136.127 109.846 C 138.821 106.028, 138.637 99.559, 135.777 97.557 C 132.489 95.254, 130.643 95.621, 126 99.500 C 121.489 103.269, 121.169 103.394, 119.200 102.145 C 118.144 101.475, 118.188 100.493, 119.435 96.910 C 120.280 94.484, 120.977 90.839, 120.985 88.809 C 120.993 86.779, 121.450 84.840, 122 84.500 C 123.843 83.361, 123.158 77.155, 121.066 76.035 C 118.402 74.610, 114.021 74.735, 113.543 76.250 M 63.209 130.984 C 54.862 132.962, 50.221 141.175, 55.004 145.504 C 56.677 147.018, 57.379 147.118, 59.254 146.110 C 60.489 145.446, 62.850 144.200, 64.500 143.342 C 72.105 139.387, 75 136.955, 75 134.521 C 75 130.450, 70.791 129.188, 63.209 130.984 M 110.687 144.805 C 107.983 147.627, 107.189 150, 108.949 150 C 109.922 150, 115 143.836, 115 142.656 C 115 141.253, 113.258 142.122, 110.687 144.805 M 132 144.500 C 132 145.325, 132.450 146, 133 146 C 133.550 146, 134 145.325, 134 144.500 C 134 143.675, 133.550 143, 133 143 C 132.450 143, 132 143.675, 132 144.500 M 70.912 153.574 C 62.867 160.295, 49.979 175.915, 47.212 182.297 C 44.548 188.443, 46.702 193.793, 51.370 192.622 C 53.322 192.132, 54.748 190.529, 56.618 186.725 C 58.030 183.851, 60.484 179.250, 62.072 176.500 C 63.659 173.750, 65.228 170.825, 65.557 170 C 67.231 165.813, 69.740 162.043, 73.743 157.703 C 77.356 153.786, 77.946 152.640, 76.961 151.453 C 76.298 150.654, 75.628 150, 75.472 150 C 75.317 150, 73.264 151.608, 70.912 153.574 M 120.384 189.441 C 119.748 191.098, 119.983 192.196, 122.214 198 C 124.584 204.165, 125.988 206, 128.335 206 C 131.360 206, 133 204.192, 133 200.859 C 133 199.351, 133.472 197.826, 134.049 197.470 C 136.152 196.170, 132.857 193.873, 129.840 194.535 C 127.626 195.021, 126.872 194.755, 126.427 193.330 C 124.894 188.419, 121.592 186.294, 120.384 189.441 M 101.437 194.397 C 101.027 196.028, 101.636 198.024, 103.344 200.647 C 104.724 202.766, 107.200 206.975, 108.847 210 C 112.513 216.736, 116.009 218.117, 115.985 212.820 C 115.967 208.883, 114.205 203.488, 111.676 199.628 C 106.584 191.857, 102.587 189.814, 101.437 194.397 M 81.750 202.088 C 79.546 203.362, 79.560 204.185, 81.867 208.960 C 82.893 211.085, 84.284 216.576, 84.957 221.162 C 86.879 234.268, 86.786 234, 89.397 234 C 93.392 234, 94.517 231.480, 94.266 223.100 C 93.868 209.847, 91.189 203.293, 85.500 201.654 C 84.400 201.337, 82.713 201.532, 81.750 202.088" stroke="none" fill="black" fill-rule="evenodd"/>
</svg>