<svg xmlns="http://www.w3.org/2000/svg" width="300" height="300" viewBox="0 0 300 300" version="1.1">
	<path d="M 137.975 33.565 C 136.657 37.033, 136.755 39.007, 138.404 42.168 C 139.170 43.636, 140.100 46.631, 140.470 48.824 C 141.025 52.108, 140.688 53.535, 138.559 56.906 C 137.138 59.158, 135.194 61, 134.240 61 C 133.286 61, 130.405 58.715, 127.838 55.923 L 123.171 50.847 118.835 53.251 C 112.167 56.949, 112.384 59.725, 119.699 64.312 C 122.890 66.312, 127.282 70.198, 129.459 72.948 C 131.637 75.697, 134.009 78.173, 134.731 78.450 C 136.515 79.135, 144 72.229, 144 69.898 C 144 68.870, 146.871 65.028, 150.379 61.361 C 157.722 53.686, 159.704 53.451, 160.190 60.196 C 160.491 64.372, 160.610 64.509, 164.199 64.807 C 167.668 65.096, 168.025 64.851, 169.949 60.869 C 171.077 58.535, 172 55.803, 172 54.798 C 172 52.425, 167.932 46.145, 166 45.535 C 163.446 44.729, 157.670 44.685, 153.903 45.442 L 150.306 46.165 149.006 41.333 C 146.683 32.695, 140.075 28.042, 137.975 33.565 M 72.162 55.675 C 71.017 57.721, 64.761 62.371, 59.957 64.747 C 58.008 65.711, 54.633 67.870, 52.457 69.544 C 50.281 71.218, 47.285 73.111, 45.801 73.749 C 38.583 76.855, 35.515 79.667, 34.109 84.462 C 32.921 88.515, 32.921 89.336, 34.109 90.089 C 36.292 91.471, 37.634 91.177, 40.673 88.649 C 44.549 85.425, 47.850 83.789, 49.021 84.513 C 49.559 84.846, 50 87.995, 50 91.512 C 50 95.029, 50.408 98.940, 50.906 100.203 C 52.467 104.160, 53.966 120.455, 55.531 150.500 C 57.124 181.070, 57.373 194.333, 56.554 204.968 C 56.184 209.766, 56.452 212.041, 57.591 213.779 C 59.843 217.217, 63.243 216.399, 64.094 212.214 C 64.526 210.088, 66.589 207.177, 69.940 203.964 C 75.436 198.694, 77.004 198.095, 79 200.500 C 81.630 203.669, 85.248 201.021, 86.513 195 C 86.917 193.075, 88.520 188.970, 90.074 185.877 L 92.900 180.255 90.543 178.041 C 88.267 175.902, 88.189 175.325, 88.268 161.163 C 88.347 146.844, 86.825 129.582, 84.941 123.429 C 84.423 121.740, 84 119.440, 84 118.319 C 84 117.197, 82.455 114.642, 80.567 112.640 C 76.147 107.953, 72.445 107.793, 67.565 112.077 C 65.637 113.770, 63.628 114.888, 63.101 114.563 C 62.574 114.237, 62.143 111.494, 62.143 108.467 C 62.143 105.440, 61.678 101.509, 61.109 99.731 C 60.540 97.954, 59.928 93.286, 59.749 89.358 C 59.570 85.430, 58.840 81.512, 58.126 80.652 C 56.357 78.520, 57.323 77.350, 61.497 76.567 C 63.556 76.180, 65.643 74.948, 66.530 73.594 C 67.363 72.323, 70.262 69.769, 72.972 67.920 C 79.521 63.451, 80.681 61.217, 78.570 57.136 C 76.784 53.681, 73.675 52.972, 72.162 55.675 M 151.717 98.943 C 149.803 100.624, 147.845 102.023, 147.368 102.052 C 146.891 102.081, 142 105.599, 136.500 109.870 C 126.891 117.332, 126.498 117.789, 126.449 121.568 C 126.400 125.403, 128.279 129, 130.332 129 C 132.308 129, 141.883 121.729, 144.977 117.880 C 146.697 115.739, 149.768 113.097, 151.802 112.009 C 153.836 110.920, 157.045 108.684, 158.932 107.040 C 162.163 104.226, 162.310 103.827, 161.432 100.275 C 160.164 95.141, 156.604 94.653, 151.717 98.943 M 225.583 117.250 C 223.195 125.671, 222.819 129.083, 222.913 141.440 C 223.021 155.542, 224.126 164.885, 227.889 183.500 C 230.212 194.991, 230.528 204.394, 228.711 208 C 227.210 210.981, 222.431 213.437, 215.250 214.918 C 212.363 215.513, 207.797 216.523, 205.104 217.162 C 201.442 218.032, 197.201 218.048, 188.271 217.227 C 174.552 215.966, 170.648 214.275, 166.113 207.631 C 162.569 202.439, 161.732 196.943, 161.370 176.500 C 160.926 151.388, 160.760 150.740, 154.477 149.562 C 152.487 149.188, 150.557 148.042, 149.922 146.855 C 148.978 145.090, 149.298 144.381, 152.160 141.895 C 153.997 140.299, 157.841 137.552, 160.703 135.791 C 166.842 132.013, 170.107 127.039, 168.064 124.577 C 166.105 122.217, 162.003 122.675, 157.332 125.774 C 152.175 129.196, 137.440 141.220, 127.193 150.368 C 122.962 154.146, 117.789 158.329, 115.697 159.664 C 112.074 161.977, 111.908 162.314, 112.197 166.796 C 112.457 170.837, 112.825 171.546, 114.803 171.826 C 117.246 172.173, 124.175 166.936, 133.339 157.816 C 138.924 152.258, 141.606 151.490, 140.554 155.750 C 140.180 157.262, 139.328 160.975, 138.660 164 C 137.271 170.285, 133.138 179.517, 128.901 185.800 C 127.305 188.165, 126 190.327, 126 190.603 C 126 190.880, 124.039 194.120, 121.642 197.803 C 119.246 201.486, 116.532 205.850, 115.612 207.500 C 114.692 209.150, 113.058 211.850, 111.980 213.500 C 107.784 219.926, 107.485 220.992, 109.081 223.836 C 112.316 229.598, 116.987 226.635, 122.578 215.275 C 124.682 210.999, 127.663 205.860, 129.202 203.856 C 130.741 201.852, 132 199.948, 132 199.626 C 132 199.303, 133.575 196.577, 135.500 193.567 C 137.425 190.558, 139 187.806, 139 187.452 C 139 187.098, 140.013 185.396, 141.250 183.668 C 144.374 179.308, 146 176.055, 146 174.165 C 146 170.344, 148.557 162, 149.727 162 C 151.170 162, 151.136 161.559, 151.455 184.500 C 151.677 200.501, 152.711 208.507, 154.734 209.896 C 155.218 210.228, 156.206 211.965, 156.930 213.755 C 158.344 217.249, 164.225 223, 166.386 223 C 167.110 223, 169.907 224.178, 172.601 225.619 C 177.282 228.121, 178.176 228.236, 192.675 228.194 C 201.022 228.170, 208.706 227.692, 209.752 227.133 C 210.798 226.573, 213.992 225.805, 216.849 225.426 C 219.707 225.047, 222.286 224.346, 222.581 223.868 C 222.877 223.391, 224.195 223, 225.512 223 C 231.908 223, 238.757 216.939, 241.923 208.477 C 243.870 203.273, 243.912 202.462, 242.626 195.051 C 241.873 190.713, 240.299 185.184, 239.129 182.766 C 237.958 180.347, 237 177.637, 237 176.743 C 237 175.849, 236.550 174.840, 236 174.500 C 235.450 174.160, 235 171.910, 235 169.500 C 235 167.090, 234.576 164.856, 234.058 164.536 C 233.540 164.215, 232.857 161.826, 232.542 159.227 C 232.226 156.627, 231.531 152.475, 230.998 150 C 230.266 146.607, 229 125.603, 229 116.853 C 229 115.508, 225.977 115.859, 225.583 117.250 M 69.292 124.750 C 68.937 125.713, 67.663 127.850, 66.461 129.500 C 64.705 131.909, 64.318 133.681, 64.497 138.500 C 64.619 141.800, 64.782 147.762, 64.860 151.750 C 65.017 159.860, 66.008 160.749, 70.071 156.424 C 71.929 154.447, 73.137 153.977, 75.272 154.404 L 78.054 154.961 77.554 145.730 C 76.589 127.913, 75.240 123, 71.314 123 C 70.557 123, 69.647 123.787, 69.292 124.750 M 73.433 169.500 C 71.743 173.062, 71.221 173.361, 67.250 173.039 C 65.174 172.871, 65.001 173.270, 65.011 178.178 C 65.028 186.575, 66.023 191.006, 67.881 190.959 C 68.771 190.936, 71.364 189.231, 73.643 187.168 C 77.732 183.467, 77.795 183.306, 78.511 174.709 C 79.209 166.333, 79.157 166, 77.165 166 C 75.781 166, 74.543 167.161, 73.433 169.500" stroke="none" fill="black" fill-rule="evenodd"/>
</svg>