<svg xmlns="http://www.w3.org/2000/svg" width="300" height="300" viewBox="0 0 300 300" version="1.1">
	<path d="M 78.578 4.750 C 77.996 9.280, 78.939 13.507, 81.643 18.500 C 82.238 19.600, 83.020 22.427, 83.380 24.783 C 83.965 28.616, 83.743 29.325, 81.267 31.526 C 79.745 32.878, 73.550 36.746, 67.500 40.121 C 61.450 43.495, 54.192 47.762, 51.371 49.601 C 46.567 52.735, 46.283 53.148, 46.892 56.128 C 48.064 61.855, 50.122 62.022, 59.301 57.133 C 69.778 51.552, 78.089 46.370, 83.202 42.228 C 88.078 38.279, 89.024 38.773, 92.039 46.841 C 93.202 49.953, 95.019 53.903, 96.077 55.618 C 97.134 57.333, 98 59.618, 98 60.697 C 98 61.775, 95.300 66.527, 92 71.257 C 88.700 75.986, 86 80.508, 86 81.306 C 86 83.295, 83.562 85.153, 81.825 84.486 C 81.039 84.185, 79.970 82.490, 79.448 80.721 C 78.414 77.213, 75.807 76.085, 73.383 78.097 C 71.319 79.810, 72.469 88.125, 75.360 92.397 C 76.537 94.136, 78.625 97.707, 80 100.334 L 82.500 105.110 75.500 111.585 C 71.650 115.146, 65.368 120.616, 61.539 123.741 C 57.711 126.865, 53.886 130.014, 53.039 130.738 C 52.193 131.462, 50.260 133.054, 48.745 134.277 C 46.373 136.190, 46.104 136.918, 46.811 139.500 C 47.530 142.122, 48.140 142.538, 51.654 142.800 C 55.261 143.068, 56.152 142.629, 60.291 138.550 C 62.829 136.047, 65.275 134, 65.727 134 C 66.178 134, 71.012 129.728, 76.468 124.506 C 81.924 119.284, 87.151 114.769, 88.085 114.473 C 89.274 114.096, 90.110 114.766, 90.880 116.717 C 91.955 119.443, 96.524 126.640, 102.500 135.024 C 107.513 142.056, 109.966 146.409, 109.984 148.300 C 110.007 150.831, 94.139 166.795, 87.420 171 C 84.344 172.925, 80.404 175.712, 78.664 177.193 C 76.021 179.442, 75.686 180.184, 76.627 181.693 C 77.476 183.055, 78.987 183.491, 82.766 183.463 C 87.250 183.430, 88.399 182.919, 93.640 178.624 C 96.863 175.982, 103.184 170.261, 107.686 165.911 C 112.188 161.560, 116.688 158.024, 117.686 158.054 C 119.441 158.106, 121.383 160.518, 134.148 178.500 C 137.272 182.900, 142.346 188.964, 145.423 191.975 C 150.847 197.282, 151.192 197.451, 156.631 197.475 C 161.917 197.499, 162.419 197.283, 165.294 193.753 C 168.267 190.101, 168.315 189.877, 167.172 184.927 C 166.528 182.133, 165.997 176.844, 165.993 173.174 C 165.988 168.091, 165.497 165.785, 163.934 163.500 C 162.805 161.850, 161.469 159.488, 160.965 158.250 C 160.462 157.012, 159.364 156, 158.527 156 C 157.218 156, 157.039 158.149, 157.252 171.235 C 157.599 192.540, 157.296 192.502, 139.679 169 C 134.113 161.575, 128.534 154.467, 127.280 153.205 C 126.026 151.942, 125 150.006, 125 148.901 C 125 147.797, 127.587 143.430, 130.750 139.197 C 136.445 131.573, 140.397 125.230, 144.268 117.500 C 145.370 115.300, 147.110 112.427, 148.135 111.115 C 150.384 108.239, 150.497 105.125, 148.522 100.399 C 147.278 97.422, 146.617 96.913, 144.338 97.181 C 142.353 97.415, 141.437 98.237, 140.898 100.266 C 140.495 101.788, 138.641 105.163, 136.779 107.766 C 134.917 110.370, 132.615 114.460, 131.663 116.855 C 130.711 119.250, 128.242 123.750, 126.176 126.855 C 124.111 129.960, 121.885 133.738, 121.232 135.250 C 119.205 139.937, 116.827 138.687, 110.775 129.750 C 101.749 116.423, 97.044 108.049, 97.668 106.422 C 97.988 105.588, 101.252 102.947, 104.921 100.552 C 108.590 98.157, 112.188 95.478, 112.918 94.599 C 115.004 92.085, 116.347 92.703, 118.483 97.160 C 120.456 101.275, 124.571 104, 128.813 104 C 131.578 104, 134 100.793, 134 97.131 C 134 95.364, 134.977 92.598, 136.171 90.983 C 138.550 87.764, 138.750 88.599, 133.181 78.500 C 130.632 73.879, 130.109 73.477, 126.276 73.196 C 122.793 72.940, 121.936 73.261, 120.929 75.196 C 119.208 78.501, 119.210 78.500, 117.006 76.506 C 115.903 75.507, 114.995 73.747, 114.988 72.595 C 114.981 71.443, 113.856 68.542, 112.488 66.148 C 109.422 60.784, 109.422 60.625, 112.500 56.589 C 113.875 54.786, 115 52.621, 115 51.778 C 115 50.935, 115.675 49.685, 116.500 49 C 117.325 48.315, 118 47.332, 118 46.815 C 118 46.297, 119.452 42.865, 121.226 39.187 C 124.940 31.490, 125.370 26.171, 122.532 23.036 C 119.601 19.797, 116.787 20.782, 115.418 25.527 C 114.779 27.741, 112.895 31.791, 111.232 34.527 C 109.568 37.262, 107.900 41.387, 107.525 43.692 C 107.150 45.998, 106.217 48.405, 105.452 49.040 C 104.330 49.971, 103.738 49.451, 102.394 46.347 C 101.477 44.231, 99.888 40.864, 98.864 38.864 C 95.754 32.797, 96.228 31.837, 107 22.352 C 118.344 12.363, 119.245 10.257, 113.598 6.925 C 111.727 5.821, 109.919 3.812, 109.579 2.459 C 109.002 0.160, 108.535 0, 102.415 0 L 95.867 0 96.184 2.750 C 96.430 4.895, 97.270 5.747, 100 6.625 C 102.185 7.328, 103.611 8.478, 103.795 9.688 C 104.181 12.221, 95.804 21.308, 93.514 20.842 C 91.739 20.480, 88.527 12.918, 86.680 4.750 C 85.671 0.293, 85.407 -0, 82.396 -0 C 79.321 -0, 79.162 0.197, 78.578 4.750 M 94.250 80.102 C 89.713 84.550, 85.999 88.710, 85.997 89.345 C 85.992 91.382, 90.455 99, 91.654 99 C 92.290 99, 94.766 97.360, 97.155 95.356 C 99.545 93.352, 102.625 91.208, 104 90.592 C 110.019 87.893, 110.850 86.879, 109.752 83.579 C 109.188 81.886, 108.338 80.073, 107.864 79.550 C 107.389 79.027, 107 77.860, 107 76.955 C 107 75.518, 104.090 71.988, 102.921 72.007 C 102.690 72.011, 98.787 75.653, 94.250 80.102 M 120 82.531 C 120 84.143, 122.662 85.672, 123.686 84.648 C 124.398 83.935, 122.138 81, 120.878 81 C 120.395 81, 120 81.689, 120 82.531 M 129.500 203 C 128.400 203.473, 126.489 203.891, 125.253 203.930 C 124.017 203.968, 120.148 205.350, 116.656 207 C 113.164 208.650, 109.965 210, 109.547 210 C 109.129 210, 107.083 211.350, 105 213 C 102.917 214.650, 100.908 216, 100.537 216 C 99.661 216, 88.466 225.702, 79.767 234 C 76.020 237.575, 72.734 240.692, 72.466 240.927 C 72.198 241.162, 70.746 240.202, 69.240 238.793 C 66.050 235.811, 52.312 228.687, 46.482 226.991 C 40.538 225.262, 36.575 225.970, 36.170 228.832 C 35.988 230.115, 36.652 232.062, 37.644 233.159 C 39.477 235.184, 48.755 240, 50.824 240 C 52.581 240, 63.055 245.822, 67.500 249.270 C 72.166 252.889, 78.998 259.271, 78.999 260.012 C 79.001 261.371, 57.444 265.986, 41.500 268.040 C 36.550 268.678, 31.825 269.614, 31 270.120 C 30.175 270.626, 27.925 271.751, 26 272.620 C 18.952 275.800, 17.257 279.112, 20.961 282.464 C 23.374 284.648, 30.588 283.894, 34.180 281.082 C 36.462 279.295, 39.601 278.549, 49.500 277.440 C 52.250 277.131, 58.325 276.041, 63 275.017 C 88.219 269.493, 105.440 267.617, 144 266.190 C 169.835 265.234, 200.156 266.997, 207.315 269.870 C 208.863 270.492, 211.361 271, 212.865 271 C 214.369 271, 216.104 271.504, 216.720 272.120 C 217.335 272.735, 219.563 273.615, 221.670 274.075 C 223.776 274.534, 226.678 275.197, 228.117 275.546 C 230.269 276.069, 231.125 275.633, 232.935 273.092 C 235.533 269.443, 235.113 267.337, 230.808 262.434 C 227.571 258.747, 224.989 258.104, 223.008 260.490 C 221.719 262.043, 220.869 261.967, 211.500 259.461 C 194.759 254.983, 166.482 253.503, 137.615 255.594 C 126.325 256.412, 125.923 255.938, 133.500 250.737 C 136.250 248.850, 138.665 246.449, 138.866 245.403 C 139.067 244.356, 140.713 242.056, 142.523 240.291 C 145.906 236.995, 149.579 230.091, 152.369 221.785 C 154.088 216.666, 153.423 209.419, 150.961 206.453 C 147.790 202.632, 135.106 200.591, 129.500 203 M 131.500 212.202 C 128.200 212.727, 124.790 213.796, 123.921 214.578 C 123.053 215.360, 121.538 216, 120.555 216 C 119.127 216, 118.930 216.453, 119.578 218.250 C 120.024 219.488, 120.419 224.240, 120.456 228.811 C 120.509 235.533, 120.185 237.427, 118.761 238.716 C 117.792 239.593, 117 241.045, 117 241.943 C 117 243.727, 108.085 253, 106.369 253 C 105.172 253, 101 256.394, 101 257.367 C 101 257.715, 103.526 258, 106.614 258 C 111.915 258, 112.551 257.721, 118 253 C 121.174 250.250, 124.092 248, 124.484 248 C 125.640 248, 131.910 240.789, 134.047 237 C 135.133 235.075, 136.414 232.825, 136.895 232 C 141.346 224.357, 143.867 212, 140.975 212 C 140.529 212, 139.564 211.831, 138.832 211.624 C 138.099 211.417, 134.800 211.677, 131.500 212.202 M 104.225 226.268 C 101.543 229.035, 101.010 230.344, 101.058 234.048 C 101.141 240.510, 102.331 246.277, 103.673 246.724 C 104.314 246.938, 106.062 244.725, 107.558 241.806 C 109.629 237.768, 110.305 234.954, 110.389 230.028 C 110.523 222.198, 109.044 221.296, 104.225 226.268 M 87.884 241.726 C 85.294 244.851, 84.141 248.355, 83.723 254.371 L 83.315 260.243 90.675 259.770 C 94.723 259.511, 98.274 259.059, 98.567 258.767 C 99.064 258.269, 95.848 251.810, 93.913 249.422 C 93.433 248.829, 92.680 246.612, 92.241 244.495 C 91.319 240.060, 89.973 239.204, 87.884 241.726" stroke="none" fill="black" fill-rule="evenodd"/>
</svg>