<svg xmlns="http://www.w3.org/2000/svg" width="300" height="300" viewBox="0 0 300 300" version="1.1">
	<path d="M 141.417 79.285 C 131.534 85.047, 123 97.800, 123 106.807 C 123 113.647, 125.503 111.993, 136.485 97.898 C 139.226 94.379, 141.926 91.169, 142.485 90.765 C 145.736 88.412, 148.041 92.262, 150.409 104 C 151.241 108.125, 152.379 112.850, 152.939 114.500 C 153.498 116.150, 154.184 122.675, 154.464 129 C 154.743 135.325, 155.377 147.025, 155.873 155 C 156.368 162.975, 156.579 169.708, 156.341 169.962 C 156.104 170.216, 155.036 169.879, 153.968 169.212 C 151.125 167.437, 149.671 167.671, 142.228 171.099 C 138.528 172.803, 133.250 174.491, 130.500 174.849 C 126.005 175.434, 125.469 175.773, 125.188 178.201 C 124.773 181.797, 126.600 185, 129.067 185 C 131.134 185, 139.832 182.250, 146.085 179.619 C 148.056 178.790, 151.139 176.738, 152.936 175.059 C 154.733 173.381, 156.508 172.196, 156.881 172.427 C 157.254 172.657, 157.225 177.268, 156.817 182.673 C 156.275 189.840, 156.485 194.906, 157.592 201.387 C 158.426 206.275, 158.874 210.887, 158.586 211.637 C 158.248 212.518, 156.371 213.011, 153.281 213.032 C 150.652 213.050, 142.200 213.682, 134.500 214.437 C 125.613 215.308, 120.135 215.461, 119.500 214.856 C 118.718 214.111, 116.687 124.854, 117.193 113.500 C 117.595 104.494, 116.820 86.489, 115.988 85.486 C 114.505 83.698, 108.954 82.793, 107.398 84.084 C 105.764 85.441, 106.149 103.696, 108.398 131.500 C 109.827 149.177, 110.144 164.051, 109.782 196.500 C 109.601 212.712, 110.897 222.341, 113.625 225.069 C 115.472 226.916, 116.134 226.992, 121.570 225.982 C 130.364 224.348, 151.022 222.078, 163.250 221.402 C 173.603 220.829, 174 220.723, 174 218.525 C 174 216.938, 173.097 215.869, 171.033 215.014 C 166.861 213.286, 165.436 211.384, 166.948 209.563 C 167.769 208.573, 167.983 205.231, 167.634 198.813 C 163.736 127.146, 161.931 104.541, 159.947 102.550 C 159.426 102.027, 159 100.367, 159 98.859 C 159 97.351, 158.550 95.840, 158 95.500 C 157.450 95.160, 157 94.066, 157 93.068 C 157 89.902, 153.053 82.187, 150.343 80.055 C 147.403 77.743, 144.493 77.492, 141.417 79.285 M 143 129.758 C 137.248 133.562, 127.890 141.337, 126.951 143.092 C 125.768 145.302, 128.214 151, 130.346 151 C 131.057 151, 133.183 149.611, 135.070 147.914 C 136.956 146.216, 140.525 143.665, 143 142.244 C 149.744 138.373, 151 137.008, 151 133.545 C 151 128.137, 147.766 126.606, 143 129.758" stroke="none" fill="black" fill-rule="evenodd"/>
</svg>