<svg xmlns="http://www.w3.org/2000/svg" width="300" height="300" viewBox="0 0 300 300" version="1.1">
	<path d="M 115.103 71.808 C 114.570 72.803, 113.637 76.740, 113.028 80.558 C 110.316 97.567, 111.591 95.942, 99 98.442 C 79.639 102.286, 74.627 103.563, 74.240 104.750 C 74.003 105.480, 74.700 106, 75.917 106 C 78.693 106, 78.580 107.611, 75.750 108.370 C 72.303 109.294, 69 109.113, 69 108 C 69 107.450, 69.675 107, 70.500 107 C 71.325 107, 72 106.550, 72 106 C 72 105.450, 71.662 105.007, 71.250 105.015 C 69.548 105.048, 57.296 108.114, 54.712 109.153 C 51.720 110.356, 49.525 113.423, 50.513 115.021 C 52.003 117.432, 65.917 115.393, 80.178 110.672 C 89.083 107.724, 103.741 105.335, 105.012 106.624 C 105.499 107.118, 104.816 109.682, 103.447 112.500 C 102.111 115.250, 101.014 118.294, 101.009 119.264 C 101 121.036, 100.739 121.704, 97.669 127.831 C 96.751 129.663, 96 132.224, 96 133.522 C 96 134.820, 95.550 136.160, 95 136.500 C 92.996 137.739, 93.917 143.574, 96.500 146 C 97.875 147.292, 99 149.425, 99 150.740 C 99 152.055, 99.523 154.109, 100.163 155.304 C 100.978 156.827, 101.352 167.969, 101.413 192.585 C 101.475 217.523, 101.834 228.099, 102.654 229.096 C 103.289 229.868, 103.964 231.620, 104.154 232.990 C 104.348 234.383, 105.270 235.626, 106.247 235.813 C 108.951 236.328, 110.287 231.538, 109.595 223.808 C 109.046 217.671, 109.181 216.986, 111.221 215.558 C 112.444 214.701, 114.215 214, 115.155 214 C 116.096 214, 117.160 213.073, 117.519 211.940 C 118.028 210.336, 118.763 209.995, 120.837 210.403 C 122.353 210.702, 125.007 210.186, 127 209.205 C 131.518 206.980, 131.970 202.402, 127.898 200.116 C 125.471 198.754, 124.826 198.895, 118.282 202.220 C 114.424 204.180, 110.734 205.453, 110.081 205.050 C 108.173 203.871, 109.191 190.587, 111.219 190.196 C 112.096 190.027, 113.107 190.364, 113.466 190.945 C 113.825 191.525, 115.381 192, 116.924 192 C 119.701 192, 122.683 190.139, 128.500 184.775 C 132.139 181.420, 132.811 181.349, 133.482 184.250 C 134.560 188.915, 136.328 207.910, 136.670 218.500 C 137.131 232.788, 137.429 234, 140.484 234 C 141.878 234, 143.375 233.169, 143.965 232.066 C 145.279 229.610, 145.310 211.572, 144.013 203.582 C 143.470 200.237, 142.555 191.650, 141.980 184.500 C 139.372 152.072, 138.115 145.385, 132.749 135.369 C 130.382 130.951, 125.342 127, 122.073 127 C 119.282 127, 113.128 130.873, 109.595 134.854 C 107.431 137.292, 104 137.724, 104 135.559 C 104 134.766, 104.450 133.840, 105 133.500 C 105.550 133.160, 106.003 132.121, 106.006 131.191 C 106.010 130.261, 106.685 128.211, 107.506 126.636 C 108.328 125.060, 109 122.949, 109 121.945 C 109 120.940, 109.450 119.840, 110 119.500 C 110.550 119.160, 110.999 117.896, 110.997 116.691 C 110.993 113.662, 114.742 106.870, 117.612 104.707 C 119.063 103.613, 123.020 102.568, 127.762 102.027 C 139.065 100.738, 158.105 96.206, 160.974 94.121 C 165.274 90.996, 165.751 81, 161.600 81 C 160.868 81, 159.105 81.916, 157.682 83.035 C 156.259 84.155, 150.461 86.376, 144.797 87.972 C 139.134 89.567, 132.827 91.576, 130.782 92.436 C 128.737 93.296, 125.700 94, 124.032 94 C 121.059 94, 121 93.902, 121 88.986 C 121 86.229, 121.450 83.079, 122 81.986 C 122.550 80.894, 123.450 79.106, 124 78.014 C 125.555 74.926, 125.186 72.170, 123.066 71.035 C 120.061 69.427, 116.175 69.804, 115.103 71.808 M 99 102 C 99 102.550, 99.450 103, 100 103 C 100.550 103, 101 102.550, 101 102 C 101 101.450, 100.550 101, 100 101 C 99.450 101, 99 101.450, 99 102 M 92 103 C 92 103.550, 92.675 104, 93.500 104 C 94.325 104, 95 103.550, 95 103 C 95 102.450, 94.325 102, 93.500 102 C 92.675 102, 92 102.450, 92 103 M 85.813 104.683 C 86.534 104.972, 87.397 104.936, 87.729 104.604 C 88.061 104.272, 87.471 104.036, 86.417 104.079 C 85.252 104.127, 85.015 104.364, 85.813 104.683 M 80.510 106.016 C 80.856 106.575, 81.557 106.774, 82.069 106.457 C 83.456 105.600, 83.198 105, 81.441 105 C 80.584 105, 80.165 105.457, 80.510 106.016 M 121.158 142.310 C 120.560 143.030, 117.777 144.244, 114.972 145.008 C 112.168 145.771, 109.649 146.758, 109.376 147.201 C 108.579 148.490, 110.095 156.747, 111.475 158.635 C 112.643 160.232, 113.323 160.068, 120.618 156.430 L 128.500 152.500 128.147 148.500 C 127.953 146.300, 127.374 143.713, 126.862 142.750 C 125.763 140.688, 122.700 140.451, 121.158 142.310 M 119.500 168.865 L 111.500 173.599 111.500 178.549 C 111.500 182.742, 111.806 183.542, 113.500 183.773 C 114.600 183.923, 117.670 182.494, 120.321 180.597 C 124.307 177.747, 125.746 177.247, 128.620 177.713 L 132.098 178.278 131.799 171.389 C 131.419 162.637, 130.385 162.425, 119.500 168.865 M 124.280 237.517 C 123.261 238.230, 116.594 239.565, 109.464 240.483 C 102.334 241.401, 93.350 242.786, 89.500 243.561 C 81.383 245.195, 54.702 248.931, 44.500 249.861 C 38.150 250.441, 37.469 250.716, 37.170 252.832 C 36.988 254.115, 37.663 256.083, 38.670 257.205 C 40.328 259.054, 41.300 259.191, 49 258.670 C 56.693 258.149, 75.206 255.287, 105.500 249.934 C 124.704 246.541, 133.318 245.942, 162.754 245.953 C 191.389 245.963, 212.409 247.543, 217.068 250.036 C 220.443 251.843, 230.036 253.051, 232.126 251.933 C 234.820 250.491, 234.595 245.608, 231.750 243.799 C 228.089 241.469, 219.500 240.042, 202.500 238.938 C 184.771 237.787, 134.685 237.458, 133.029 238.482 C 132.449 238.841, 130.660 238.478, 129.053 237.676 C 126.639 236.472, 125.811 236.444, 124.280 237.517" stroke="none" fill="black" fill-rule="evenodd"/>
</svg>