<svg xmlns="http://www.w3.org/2000/svg" width="300" height="300" viewBox="0 0 300 300" version="1.1">
	<path d="M 88.750 27.080 C 87.400 27.867, 87 29.432, 87 33.935 C 87 37.167, 86.333 41.049, 85.506 42.636 C 84.685 44.211, 84.010 46.281, 84.006 47.236 C 84.003 48.190, 82.425 51.940, 80.500 55.569 C 78.575 59.197, 77 63.029, 77 64.083 C 77 65.137, 76.550 66, 76 66 C 75.450 66, 75 66.810, 75 67.800 C 75 68.790, 74.583 70.028, 74.074 70.550 C 72.491 72.172, 66 84.951, 66 86.443 C 66 88.931, 69.036 91, 72.689 91 L 76.235 91 75.510 98.734 C 75.112 102.988, 74.159 107.363, 73.393 108.457 C 72.627 109.550, 72 111.202, 72 112.128 C 72 113.054, 71.159 115.541, 70.130 117.655 C 66.230 125.675, 65.068 129.015, 65.651 130.533 C 66.013 131.475, 64.978 133.689, 63.060 136.075 C 58.944 141.196, 59.191 144.374, 63.740 144.813 C 67.767 145.201, 70.956 142.075, 73.495 135.251 C 74.467 132.638, 76.309 129.370, 77.588 127.990 C 79.143 126.312, 79.630 125.020, 79.057 124.092 C 78.514 123.214, 78.896 121.465, 80.100 119.322 C 81.145 117.462, 82 114.588, 82 112.937 C 82 111.287, 82.675 108.320, 83.500 106.346 C 85.323 101.982, 85.457 93.723, 83.750 90.921 C 82.662 89.136, 82.825 88.611, 85 86.878 C 90.251 82.696, 92.674 80.347, 96.486 75.750 C 100.814 70.530, 103.577 69.771, 106.500 73 C 108.546 75.261, 111.025 75.575, 112.800 73.800 C 114.778 71.822, 114.178 69.012, 110.892 64.864 C 105.104 57.556, 99.020 56.345, 96.631 62.027 C 95.013 65.874, 88.169 74.265, 84.535 76.856 C 81.020 79.362, 78.658 78.140, 81.324 75.195 C 82.246 74.176, 83 72.633, 83 71.766 C 83 70.899, 84.575 68.304, 86.500 66 C 88.425 63.696, 90 60.980, 90 59.964 C 90 58.949, 90.450 57.840, 91 57.500 C 91.550 57.160, 92 55.552, 92 53.927 C 92 52.302, 92.397 50.191, 92.882 49.236 C 94.076 46.888, 96.071 39.331, 96.692 34.804 C 97.107 31.781, 96.735 30.644, 94.645 28.554 C 91.821 25.730, 91.294 25.598, 88.750 27.080 M 170.961 51.073 C 169.668 53.489, 169.393 61.314, 170.465 65.185 C 171.166 67.719, 170.803 68.085, 164.011 71.685 C 151.895 78.108, 150.819 78.783, 147.354 82.142 C 142.531 86.816, 143.182 92, 148.593 92 C 151.660 92, 152.001 93.536, 151.994 107.332 C 151.989 116.171, 151.579 120.284, 150.494 122.364 C 149.672 123.940, 149 126.951, 149 129.055 C 149 131.160, 148.550 133.160, 148 133.500 C 147.450 133.840, 147 135.519, 147 137.230 C 147 138.942, 146.255 141.165, 145.345 142.171 C 144.435 143.177, 144.157 144, 144.728 144 C 146.528 144, 146.952 148.192, 145.446 151.104 C 144.651 152.642, 144 155.471, 144 157.391 C 144 159.311, 143.550 161.160, 143 161.500 C 142.450 161.840, 142 163.072, 142 164.238 C 142 165.404, 141.591 167.740, 141.092 169.429 C 140.593 171.118, 139.423 175.200, 138.492 178.500 C 137.562 181.800, 136.396 185.281, 135.900 186.236 C 135.405 187.191, 135 189.018, 135 190.295 C 135 191.573, 134.339 193.491, 133.532 194.559 C 132.724 195.626, 132.049 197.930, 132.032 199.679 C 132 202.901, 129.852 206, 127.651 206 C 126.988 206, 125.353 205.212, 124.019 204.250 C 121.575 202.487, 113.374 197.790, 102.750 192.068 C 99.588 190.365, 97.001 188.415, 97.003 187.736 C 97.004 187.056, 98.481 184.025, 100.284 181 C 102.088 177.975, 104.859 172.800, 106.444 169.500 C 108.028 166.200, 109.701 162.719, 110.162 161.764 C 110.623 160.809, 111 159.176, 111 158.136 C 111 157.096, 111.675 155.685, 112.500 155 C 113.325 154.315, 114 152.176, 114 150.246 C 114 144.742, 105.598 137.736, 102.596 140.737 C 102.191 141.142, 100.429 141.533, 98.680 141.605 C 96.931 141.676, 94.503 142.068, 93.284 142.475 C 91.142 143.191, 91.089 143.046, 91.675 138.092 C 92.162 133.985, 91.926 132.576, 90.486 130.985 C 89.498 129.893, 87.930 129, 87 129 C 84.773 129, 82 132.141, 82 134.662 C 82 135.765, 81.692 136.975, 81.315 137.352 C 79.892 138.775, 78.067 145.575, 78.627 147.369 C 78.948 148.397, 78.653 150.422, 77.971 151.869 C 77.290 153.316, 76.280 155.625, 75.726 157 C 74.248 160.671, 71.830 166.248, 70.853 168.236 C 70.384 169.191, 70 170.849, 70 171.919 C 70 172.989, 69.121 174.144, 68.046 174.486 C 65.944 175.153, 62.624 173.396, 57.106 168.698 C 54.383 166.380, 53.103 165.929, 50.637 166.423 C 46.935 167.163, 46.335 167.714, 45.484 171.163 C 44.675 174.439, 47.782 178, 51.449 178 C 53.073 178, 54.798 179.179, 56.568 181.500 C 58.036 183.425, 59.859 185, 60.619 185 C 62.638 185, 62.429 185.525, 57.705 192.321 C 55.343 195.719, 52.767 199.850, 51.980 201.500 C 51.194 203.150, 49.503 205.800, 48.224 207.388 C 45.123 211.237, 45.608 214.398, 49.364 214.827 C 52.557 215.192, 58 210.885, 58 207.993 C 58 207.095, 59.013 205.479, 60.250 204.402 C 61.487 203.324, 64.300 199.651, 66.500 196.239 C 68.700 192.827, 71.039 189.826, 71.697 189.570 C 72.356 189.313, 74.713 189.868, 76.937 190.802 C 81.167 192.579, 82.081 194.776, 79.616 197.241 C 78.855 198.003, 77.324 200.397, 76.215 202.563 C 73.578 207.709, 61.541 221.219, 56.706 224.458 C 54.619 225.856, 51.608 227, 50.015 227 C 46.302 227, 45.332 228.604, 47.557 231.063 C 50.061 233.830, 55.682 233.580, 60.215 230.500 C 62.238 229.125, 64.143 228, 64.447 228 C 64.751 228, 65.792 227.213, 66.761 226.250 C 67.729 225.287, 69.673 223.599, 71.081 222.497 C 75.047 219.395, 83 208.433, 83 206.069 C 83 204.781, 83.898 203.609, 85.291 203.079 C 86.551 202.600, 88.181 201.486, 88.914 200.604 C 90.718 198.430, 93.316 198.586, 95.500 201 C 96.645 202.265, 98.580 203, 100.765 203 C 102.968 203, 106.038 204.178, 109.235 206.250 C 111.993 208.038, 116.513 210.411, 119.281 211.524 C 122.048 212.637, 124.692 214.325, 125.156 215.274 C 125.620 216.223, 126.390 217.787, 126.867 218.750 C 127.533 220.092, 128.988 220.500, 133.117 220.500 C 136.078 220.500, 139.175 220.921, 140 221.436 C 143.620 223.696, 149.654 228.865, 153.792 233.250 C 158.727 238.481, 159.894 238.879, 162.345 236.171 C 165.802 232.352, 164.053 228.986, 154.750 221.554 C 152.137 219.467, 150 217.372, 150 216.899 C 150 216.425, 151.238 215.739, 152.750 215.373 C 154.262 215.008, 156.850 213.784, 158.500 212.654 C 162.440 209.956, 177 195.295, 177 194.026 C 177 193.483, 178.103 192.761, 179.452 192.423 C 182.398 191.683, 203.964 202.044, 210.894 207.528 C 213.307 209.438, 215.936 211, 216.736 211 C 217.537 211, 219.422 211.876, 220.925 212.947 C 222.429 214.017, 228.798 217.409, 235.080 220.484 C 241.361 223.559, 247.625 226.711, 249 227.490 C 250.375 228.268, 254.200 230.164, 257.500 231.703 C 260.800 233.241, 263.860 235.063, 264.300 235.750 C 264.740 236.438, 265.674 237, 266.375 237 C 267.077 237, 268.684 238.100, 269.947 239.444 C 271.210 240.788, 273.745 242.600, 275.581 243.472 C 277.418 244.343, 280.967 246.618, 283.469 248.528 C 285.970 250.438, 288.334 252, 288.721 252 C 289.108 252, 290.382 253.201, 291.553 254.668 C 293.968 257.698, 296.027 257.415, 298.448 253.720 C 300.675 250.321, 298.802 245.268, 294.615 243.382 C 292.902 242.610, 287.450 239.068, 282.500 235.512 C 277.550 231.955, 269.225 226.996, 264 224.493 C 253.584 219.502, 253.190 219.300, 238 211.197 C 232.225 208.117, 225.250 204.495, 222.500 203.150 C 219.750 201.805, 213.450 198.133, 208.500 194.990 C 203.550 191.848, 196.688 187.858, 193.250 186.124 C 189.524 184.245, 187 182.329, 187 181.381 C 187 180.506, 188.350 177.790, 190 175.345 C 191.650 172.900, 193 170.274, 193 169.509 C 193 168.744, 193.450 167.840, 194 167.500 C 194.550 167.160, 195 165.983, 195 164.883 C 195 163.784, 196.129 160.863, 197.509 158.391 C 200.966 152.199, 203.060 136.355, 200.946 132.387 C 199.280 129.261, 194.441 126.009, 191.447 126.004 C 190.318 126.002, 187.514 127.382, 185.217 129.072 C 180.761 132.349, 178.373 132.167, 179.521 128.637 C 180.628 125.234, 182.094 115.136, 182.655 107.046 C 182.940 102.946, 183.809 98.684, 184.586 97.574 C 185.364 96.463, 186 93.646, 186 91.313 C 186 87.923, 186.452 86.838, 188.250 85.913 C 192.306 83.826, 194.362 80.949, 199 70.869 C 200.687 67.202, 199.425 64.170, 195.415 62.258 C 192.247 60.748, 191.744 60.752, 188.466 62.315 C 183.061 64.892, 181.109 64.506, 179.449 60.532 C 178.652 58.625, 178 55.716, 178 54.067 C 178 49.404, 172.994 47.274, 170.961 51.073 M 183.345 75.543 C 183.019 76.392, 183.014 77.347, 183.333 77.667 C 184.342 78.676, 187 77.128, 187 75.531 C 187 73.535, 184.112 73.545, 183.345 75.543 M 166.848 81.255 C 164.651 83.115, 164.007 84.838, 163.098 91.291 C 162.494 95.576, 161.986 103.901, 161.968 109.791 C 161.945 117.619, 161.541 121.022, 160.468 122.441 C 159.573 123.625, 159 126.625, 159 130.132 C 159 133.295, 158.550 136.160, 158 136.500 C 157.450 136.840, 157 138.471, 157 140.125 C 157 141.778, 156.457 144.114, 155.794 145.316 C 155.131 146.517, 154.448 149.457, 154.276 151.850 C 154.104 154.242, 153.522 157.025, 152.982 158.034 C 152.442 159.043, 152 161.637, 152 163.798 C 152 167.698, 152.029 167.727, 155.895 167.727 C 158.813 167.727, 161.728 168.935, 167.508 172.537 C 175.357 177.430, 177.278 177.662, 179.046 173.933 C 179.420 173.145, 180.855 170.025, 182.236 167 C 183.617 163.975, 185.952 158.892, 187.426 155.705 C 189.398 151.442, 190.026 148.666, 189.803 145.205 C 189.516 140.746, 189.337 140.484, 186.385 140.197 C 183.554 139.921, 183.071 140.318, 181.083 144.546 C 179.880 147.106, 177.750 150.392, 176.350 151.850 C 174.950 153.307, 172.460 156.637, 170.817 159.250 C 166.741 165.729, 162.549 165.759, 160.578 159.323 C 159.891 157.078, 161.197 153.644, 165.455 146.500 C 166.766 144.300, 167.889 141.375, 167.951 140 C 168.013 138.625, 168.724 136.626, 169.532 135.559 C 170.339 134.491, 171 131.930, 171 129.868 C 171 127.805, 171.450 125.840, 172 125.500 C 172.550 125.160, 173 123.361, 173 121.503 C 173 119.645, 173.705 115.083, 174.567 111.366 C 175.885 105.684, 175.957 102.958, 175.018 94.240 C 173.333 78.590, 172.173 76.747, 166.848 81.255 M 95.797 88.250 C 93.048 90.418, 92.073 99.009, 93.522 108.294 C 94.125 112.159, 94.816 113.371, 97.085 114.544 C 102.427 117.306, 107.298 115.804, 114.503 109.172 C 117.220 106.671, 118.041 105.183, 117.809 103.181 C 117.349 99.216, 114.889 99.445, 109.423 103.962 C 106.730 106.188, 104.070 107.853, 103.513 107.663 C 102.933 107.465, 102.500 103.586, 102.500 98.579 C 102.500 91.083, 102.224 89.638, 100.559 88.420 C 98.187 86.685, 97.800 86.671, 95.797 88.250 M 95.727 152 C 94.329 153.100, 92.529 154, 91.727 154 C 89.682 154, 85 157.860, 85 159.546 C 85 160.317, 83.425 164.183, 81.500 168.139 C 76.899 177.594, 76.970 179.097, 82.142 181.724 C 86.808 184.094, 88.024 183.932, 89.598 180.732 C 90.202 179.504, 92.335 175.464, 94.339 171.754 C 99.173 162.800, 103.160 152.859, 102.552 151.276 C 101.827 149.386, 98.617 149.727, 95.727 152 M 148.526 175.950 C 147.687 177.573, 147 180.246, 147 181.891 C 147 183.536, 146.550 185.160, 146 185.500 C 145.450 185.840, 145 187.130, 145 188.368 C 145 189.605, 144.339 191.491, 143.532 192.559 C 142.724 193.626, 142.049 195.873, 142.032 197.550 C 142.014 199.227, 141.605 201.027, 141.121 201.550 C 140.638 202.072, 139.947 204.163, 139.586 206.196 C 139.044 209.250, 139.272 210.075, 140.899 210.946 C 141.982 211.526, 143.635 212, 144.571 212 C 147.230 212, 159.352 203.579, 160.926 200.639 C 161.702 199.188, 162.637 198, 163.003 198 C 163.368 198, 165.379 195.516, 167.470 192.479 C 171.188 187.081, 171.232 186.913, 169.437 184.930 C 168.427 183.815, 164.372 181.369, 160.425 179.497 C 156.478 177.624, 152.982 175.396, 152.656 174.546 C 151.746 172.174, 150.208 172.697, 148.526 175.950" stroke="none" fill="black" fill-rule="evenodd"/>
</svg>