<svg xmlns="http://www.w3.org/2000/svg" width="300" height="300" viewBox="0 0 300 300" version="1.1">
	<path d="M 107 13 C 103.645 16.355, 104.576 20.222, 109 21.303 C 110.375 21.638, 112.398 22.570, 113.497 23.373 C 115.465 24.813, 115.467 24.903, 113.643 29.667 C 110.764 37.188, 110.652 37.929, 112.298 38.561 C 114.897 39.558, 121.682 34.209, 123.957 29.369 C 125.943 25.144, 125.967 24.732, 124.423 21.479 C 123.527 19.592, 121.039 16.461, 118.894 14.523 C 114.381 10.446, 110.102 9.898, 107 13 M 147 27.164 C 145.075 28.350, 140.350 30.872, 136.500 32.768 C 128.016 36.946, 127.397 37.265, 120.205 41.172 C 117.067 42.877, 111.575 45.861, 108 47.803 C 100.462 51.897, 76.440 62.948, 73.500 63.673 C 72.400 63.945, 70.600 64.517, 69.500 64.945 C 65.384 66.546, 60.308 68, 58.834 68 C 56.292 68, 54 71.447, 54 75.270 C 54 77.256, 54.429 79.147, 54.954 79.471 C 55.478 79.796, 61.194 78.247, 67.656 76.030 C 74.118 73.814, 80.222 72, 81.221 72 C 83.205 72, 83.067 73.566, 80.382 81.500 C 79.638 83.700, 79.008 88.650, 78.982 92.500 C 78.917 102.242, 76.560 119.615, 74.574 125 C 73.661 127.475, 72.107 132.425, 71.120 136 C 70.134 139.575, 68.353 144.497, 67.163 146.938 C 65.973 149.379, 65 151.762, 65 152.234 C 65 152.706, 63.425 156.457, 61.500 160.568 C 59.575 164.680, 58 168.448, 58 168.941 C 58 169.434, 57.331 171.112, 56.513 172.669 C 54.530 176.443, 48 190.914, 48 191.534 C 48 194.398, 33.507 219.950, 31.006 221.496 C 29.219 222.601, 29.904 226.878, 32.052 228.028 C 35.917 230.096, 38.333 228.807, 41.500 222.987 C 43.150 219.955, 46.185 215.015, 48.245 212.009 C 50.304 209.003, 52.917 203.755, 54.051 200.347 C 55.185 196.939, 56.762 193.612, 57.556 192.953 C 58.350 192.294, 59 190.530, 59 189.033 C 59 187.535, 59.860 185.532, 60.910 184.581 C 61.961 183.631, 63.099 181.740, 63.441 180.380 C 63.782 179.020, 65.834 174.124, 68 169.500 C 70.166 164.876, 72.214 159.995, 72.551 158.654 C 72.887 157.313, 74.251 154.066, 75.581 151.439 C 76.912 148.811, 78 146.062, 78 145.331 C 78 143.634, 80.200 143.639, 84.282 145.345 C 88.748 147.212, 90.234 149.330, 92.020 156.368 C 93.211 161.063, 94.179 162.805, 96.247 163.965 C 99.936 166.036, 100.914 164.730, 101.660 156.741 C 102.190 151.058, 102.717 149.701, 105.389 147.131 C 110.486 142.228, 116.607 141.933, 114.145 146.709 C 113.637 147.694, 112.395 150.188, 111.383 152.250 C 110.372 154.313, 109.198 156, 108.773 156 C 108.348 156, 108 156.587, 108 157.304 C 108 158.021, 106.412 160.147, 104.470 162.029 C 101.467 164.939, 101.036 165.902, 101.585 168.475 C 103.265 176.344, 106.576 175.872, 115.546 166.485 C 122.657 159.043, 122.733 158.906, 123.412 152.279 C 123.790 148.598, 124.559 145.031, 125.123 144.351 C 126.072 143.209, 125.107 139.942, 122.066 134 C 121.151 132.213, 116.220 131.590, 110.170 132.497 C 107.010 132.971, 104.601 134.248, 101.532 137.077 C 96.754 141.481, 96.336 141.614, 93.977 139.480 C 93.053 138.643, 90.318 137.389, 87.899 136.691 C 83.868 135.530, 83.475 135.127, 83.200 131.881 C 83.035 129.932, 83.822 125.008, 84.950 120.939 C 86.077 116.870, 87 112.271, 87 110.720 C 87 109.170, 87.592 106.686, 88.315 105.200 C 89.229 103.326, 89.597 98.257, 89.521 88.626 C 89.417 75.379, 89.307 74.667, 87.088 72.870 C 84.324 70.632, 85.253 68.916, 90.283 66.972 C 95.178 65.081, 112.986 56.305, 117.500 53.560 C 128.087 47.121, 146.062 38.779, 148.389 39.224 C 150.329 39.594, 151.575 38.805, 154.417 35.405 C 158.594 30.408, 158.656 30.081, 155.961 27.189 C 153.403 24.442, 151.426 24.437, 147 27.164 M 130.500 72.386 C 128.849 73.105, 126.882 74.437, 126.127 75.347 C 124.516 77.288, 121.734 77.475, 119.085 75.821 C 117.573 74.877, 116.683 74.977, 114.624 76.327 C 111.779 78.191, 111.784 79.023, 114.716 90.500 C 115.559 93.800, 116.357 99.576, 116.489 103.336 C 116.678 108.738, 117.168 110.612, 118.825 112.269 L 120.922 114.366 126.711 111.514 C 132.389 108.716, 138 104.401, 138 102.832 C 138 102.396, 139.509 99.668, 141.354 96.769 C 146.610 88.510, 147.432 85.038, 145.487 79.307 C 144.589 76.663, 143.143 73.713, 142.273 72.750 C 140.390 70.669, 134.834 70.497, 130.500 72.386 M 128.455 86.455 C 126.586 88.323, 126 89.968, 126 93.348 C 126 98.861, 127.835 99.826, 131.346 96.160 C 133.369 94.049, 137 86.480, 137 84.374 C 137 84.168, 135.630 84, 133.955 84 C 132.054 84, 129.986 84.923, 128.455 86.455 M 54 112.890 C 51.921 113.464, 51.449 114.277, 51.196 117.726 C 50.834 122.655, 53.170 124.561, 58.218 123.452 C 60.729 122.901, 61.639 123.196, 63.002 125.003 C 65.135 127.830, 67.930 127.082, 70.314 123.046 C 72.398 119.517, 71.726 115.622, 68.663 113.477 C 66.481 111.948, 58.559 111.631, 54 112.890 M 163.321 117.724 C 161.023 119.801, 157.980 123.412, 156.559 125.750 C 153.849 130.208, 151.364 131.203, 150.317 128.250 C 148.991 124.511, 146.732 123, 142.467 123 C 137.384 123, 135.773 124.613, 136.620 128.852 C 137.069 131.095, 138.633 132.986, 142.100 135.477 C 147.372 139.264, 148.548 141.878, 147.729 147.985 C 146.990 153.490, 149.649 156.240, 154.899 155.400 C 158.202 154.872, 158.786 155.072, 159.262 156.895 C 159.904 159.349, 164.417 159.845, 165.700 157.603 C 166.140 156.835, 168.180 155.220, 170.234 154.014 C 173.887 151.869, 173.964 151.699, 173.815 146.161 C 173.731 143.047, 174.144 139.600, 174.734 138.500 C 175.323 137.400, 176.263 134.700, 176.823 132.500 C 177.383 130.300, 178.365 126.521, 179.005 124.102 C 180.035 120.212, 179.945 119.403, 178.234 117.102 C 176.743 115.097, 175.289 114.437, 171.899 114.224 C 168.028 113.982, 166.999 114.402, 163.321 117.724 M 163.341 128.217 C 162.814 128.923, 161.330 131.552, 160.044 134.059 C 158.164 137.725, 157.894 139.182, 158.666 141.497 C 160.011 145.532, 161.141 145.468, 163.877 141.204 C 167.579 135.433, 167.076 123.219, 163.341 128.217 M 52.452 141.703 C 48.700 144.891, 42.140 150.720, 37.873 154.656 C 33.607 158.592, 28.277 163.290, 26.029 165.097 C 19.521 170.327, 19.619 176, 26.218 176 C 30.248 176, 33.581 173.439, 46.771 160.203 C 58.883 148.050, 63.301 142.122, 62.810 138.685 C 62.271 134.919, 59.477 135.733, 52.452 141.703 M 122.520 161.978 C 120.639 164.056, 120.635 163.928, 123.008 178 C 125.877 195.024, 126.218 205.827, 123.970 208.536 C 122.459 210.357, 115.620 212.731, 109.609 213.522 L 104.717 214.165 105.288 211.332 C 105.603 209.775, 106.142 207.771, 106.487 206.879 C 107.379 204.576, 104.254 201.832, 101.156 202.196 C 99.428 202.399, 98.082 203.501, 97.119 205.500 C 96.325 207.150, 95.299 209.281, 94.838 210.236 C 94.377 211.191, 94 213.801, 94 216.036 C 94 219.321, 94.666 220.784, 97.475 223.677 C 100.906 227.210, 101.005 227.240, 105.225 226.049 C 107.576 225.385, 111.300 224.483, 113.500 224.045 C 115.700 223.606, 119.420 222.534, 121.768 221.662 C 124.115 220.790, 126.598 220.292, 127.287 220.556 C 128.322 220.954, 139.681 214.384, 143.594 211.124 C 145.244 209.750, 150.767 207, 151.879 207 C 153.695 207, 164.628 199.997, 167.512 196.987 C 171.386 192.944, 173.601 193.153, 175.622 197.750 C 177.573 202.186, 180.611 214.500, 182.349 225.015 C 183.033 229.148, 183.904 233.035, 184.285 233.652 C 185.303 235.300, 186.099 252.231, 186.017 270.500 C 185.942 286.990, 185.423 292.621, 183.887 293.570 C 183.399 293.871, 183 295.441, 183 297.059 C 183 299.980, 183.039 300, 188.883 300 L 194.766 300 195.723 292.250 C 196.249 287.988, 196.564 276.850, 196.423 267.500 C 196.184 251.640, 195.694 245.585, 193.049 225.781 C 191.691 215.606, 188.135 199.747, 186.945 198.550 C 186.425 198.027, 186 196.130, 186 194.334 C 186 192.538, 185.363 189.590, 184.583 187.784 C 183.804 185.978, 182.397 182.700, 181.456 180.500 C 179.137 175.078, 177.148 173, 174.279 173 C 170.092 173, 168.274 174.689, 167.585 179.222 C 166.589 185.768, 161.028 190.842, 148 197.089 C 145.525 198.275, 142.750 199.902, 141.832 200.704 C 140.915 201.505, 139.115 202.012, 137.832 201.830 C 135.665 201.523, 135.499 201.041, 135.480 195 C 135.469 191.425, 134.819 182.924, 134.036 176.108 C 132.897 166.200, 132.212 163.343, 130.617 161.858 C 128.029 159.446, 124.767 159.495, 122.520 161.978" stroke="none" fill="black" fill-rule="evenodd"/>
</svg>