<svg xmlns="http://www.w3.org/2000/svg" width="300" height="300" viewBox="0 0 300 300" version="1.1">
	<path d="M 108.285 22.214 C 106.203 23.981, 101.539 28.282, 97.919 31.771 C 94.300 35.261, 90.025 38.923, 88.419 39.911 C 86.814 40.898, 83.463 43.685, 80.973 46.103 C 78.483 48.521, 74.152 52.627, 71.348 55.228 C 66.467 59.753, 63 65.162, 63 68.251 C 63 69.048, 61.640 71.578, 59.977 73.873 C 57.432 77.386, 57.205 78.141, 58.537 78.653 C 59.543 79.039, 61.364 78.028, 63.533 75.880 C 65.411 74.021, 68.092 71.375, 69.491 70 C 70.890 68.625, 72.628 66.825, 73.352 66 C 75.126 63.980, 81.342 59.041, 82.139 59.018 C 83.435 58.981, 83.917 65.623, 82.899 69.500 C 82.322 71.700, 81.504 75.300, 81.082 77.500 C 79.995 83.163, 77.811 90.330, 76.831 91.450 C 76.374 91.972, 76 93.408, 76 94.641 C 76 95.874, 75.550 97.160, 75 97.500 C 74.450 97.840, 74 98.934, 74 99.931 C 74 104.147, 64.674 120.191, 58.476 126.638 C 54.358 130.921, 52.051 134.198, 51.761 136.174 C 51.143 140.388, 53.271 140.819, 57.610 137.361 C 59.584 135.787, 62.271 133.791, 63.581 132.925 C 66.123 131.244, 70.168 126.108, 72.185 122 C 72.860 120.625, 74.669 117.860, 76.206 115.856 C 77.743 113.852, 79.005 111.602, 79.012 110.856 C 79.019 110.110, 80.144 107.542, 81.512 105.148 C 82.880 102.754, 84 99.968, 84 98.957 C 84 97.946, 84.450 96.840, 85 96.500 C 85.550 96.160, 86 94.610, 86 93.055 C 86 91.501, 86.672 88.940, 87.494 87.364 C 88.315 85.789, 88.990 83.289, 88.994 81.809 C 88.997 80.329, 89.450 78.840, 90 78.500 C 90.550 78.160, 91 76.874, 91 75.641 C 91 74.408, 91.426 72.972, 91.947 72.450 C 92.468 71.927, 93.208 67.225, 93.591 62 C 93.975 56.775, 94.563 51.736, 94.898 50.802 C 95.793 48.301, 111.039 33, 112.635 33 C 113.520 33, 114 34.192, 114 36.390 C 114 40.065, 110.906 55.962, 108.566 64.312 C 107.766 67.165, 106.812 72.509, 106.446 76.186 C 105.815 82.530, 105.918 83.009, 108.470 85.561 C 110.806 87.897, 111.716 88.174, 115.400 87.669 C 117.977 87.315, 122.060 85.472, 125.808 82.970 C 130.501 79.835, 133.468 78.641, 138.227 77.968 C 145.490 76.941, 148.590 78.254, 149.553 82.763 C 149.875 84.268, 150.609 86.625, 151.183 88 C 152.725 91.688, 153.508 111.642, 152.215 114.297 C 151.625 115.509, 150.365 118.966, 149.415 121.980 C 146.583 130.958, 143.127 138, 141.552 138 C 139.663 138, 136.527 134.630, 134.561 130.487 C 132.682 126.527, 128.514 123.632, 125.738 124.358 C 123.177 125.028, 115 120.406, 115 118.289 C 115 117.452, 116.633 114.543, 118.630 111.823 C 124.842 103.360, 124.303 95.297, 117.410 93.567 C 114.845 92.923, 111.495 94.492, 100.798 101.346 C 97.662 103.356, 94.685 105, 94.183 105 C 92.275 105, 88 109.230, 88 111.118 C 88 112.203, 89.146 114.237, 90.546 115.637 C 92.661 117.752, 92.878 118.442, 91.829 119.706 C 90.779 120.971, 90.960 121.549, 92.893 123.115 C 94.174 124.152, 96.072 125, 97.111 125 C 99.580 125, 99.495 126.090, 96.578 131.846 C 93.562 137.797, 91.860 139.241, 88.300 138.867 C 84.459 138.465, 83 139.603, 83 143.002 C 83 146.286, 86.085 149, 89.818 149 C 93.398 149, 97.059 145.895, 102.021 138.649 C 107.237 131.031, 109.929 129.140, 113.250 130.759 C 114.487 131.362, 117.126 132.122, 119.113 132.448 C 123.164 133.111, 125.425 135.210, 126.367 139.180 C 127.137 142.424, 129.542 144.996, 131.821 145.012 C 132.745 145.019, 135.458 146.144, 137.852 147.512 C 140.246 148.880, 143.192 150, 144.399 150 C 146.967 150, 152.995 144.052, 155.548 139 C 157.336 135.463, 157.853 133.753, 160.691 122 C 162.747 113.482, 163.403 97.049, 161.987 89.500 C 161.368 86.200, 160.621 81.813, 160.326 79.752 C 159.946 77.096, 158.422 74.546, 155.094 71.002 L 150.398 66 143.114 66 C 136.428 66, 135.128 66.367, 127.279 70.475 C 122.575 72.936, 118.339 74.709, 117.864 74.416 C 116.496 73.571, 116.859 69.362, 118.410 68.075 C 119.186 67.431, 120.051 64.563, 120.334 61.702 C 120.616 58.841, 121.794 50.875, 122.950 44 C 125.356 29.698, 124.785 25.680, 119.742 21.437 C 115.851 18.163, 112.813 18.369, 108.285 22.214 M 101.250 113.296 C 98.912 114.421, 97 115.680, 97 116.092 C 97 116.504, 98.380 117.144, 100.067 117.515 C 103.558 118.281, 107 115.963, 107 112.845 C 107 110.641, 106.715 110.664, 101.250 113.296 M 131.571 169.885 C 131.271 170.371, 128.882 171.079, 126.262 171.458 C 123.643 171.837, 117.979 173.914, 113.677 176.074 C 109.374 178.233, 105.311 180, 104.649 180 C 102.902 180, 93.004 185.276, 86.987 189.415 C 80.259 194.043, 78.215 196.751, 77.821 201.559 C 77.606 204.186, 76.972 205.583, 75.903 205.786 C 75.024 205.952, 71.215 203.146, 67.432 199.544 C 63.652 195.945, 60.242 193, 59.856 193 C 59.470 193, 57.840 191.895, 56.235 190.544 C 53.895 188.575, 52.740 188.243, 50.408 188.866 C 48.809 189.294, 47.350 190.420, 47.168 191.368 C 46.755 193.512, 53.249 201.578, 57.407 204.086 C 65.395 208.903, 77.943 222.665, 76.491 225.014 C 76.195 225.493, 73.826 226.159, 71.227 226.494 C 52.565 228.900, 33.992 231.772, 29 233.023 C 27.075 233.505, 23.497 234.167, 21.050 234.494 C 13.330 235.524, 11.921 238.634, 16.979 243.480 L 19.958 246.334 31.229 243.647 C 37.428 242.169, 45.702 240.358, 49.616 239.622 C 53.530 238.886, 57.252 237.962, 57.886 237.570 C 59.050 236.851, 77.552 234.477, 90.500 233.386 C 94.350 233.061, 98.177 232.435, 99.004 231.994 C 100.556 231.167, 113.122 229.541, 128 228.242 C 143.383 226.899, 186.374 227.668, 201.018 229.548 C 208.433 230.501, 215.850 231.417, 217.500 231.584 C 219.150 231.751, 223.200 232.582, 226.500 233.429 C 229.800 234.276, 233.936 234.976, 235.691 234.984 C 237.446 234.993, 239.124 235.392, 239.421 235.872 C 239.717 236.352, 244.028 237.534, 249 238.500 C 253.972 239.466, 258.283 240.648, 258.579 241.128 C 260.285 243.888, 270 238.781, 270 235.123 C 270 231.386, 265.609 228.879, 257.345 227.900 C 246.747 226.643, 232.588 224.314, 220.500 221.840 C 215 220.713, 208.925 219.671, 207 219.523 C 205.075 219.375, 197.425 218.713, 190 218.052 C 182.575 217.391, 168.512 216.857, 158.750 216.864 C 138.743 216.879, 138.504 216.768, 144.422 210.218 C 146.304 208.135, 148.588 204.421, 149.497 201.965 C 150.407 199.509, 151.525 196.785, 151.983 195.911 C 152.441 195.038, 153.385 190.935, 154.080 186.794 C 155.325 179.390, 155.302 179.191, 152.711 174.770 C 150.516 171.025, 149.443 170.169, 146.288 169.648 C 140.724 168.729, 132.201 168.866, 131.571 169.885 M 129.424 182.871 C 124.816 184.991, 124.023 186.506, 121.144 198.681 C 118.973 207.864, 117.986 209.608, 112.120 214.630 C 109.854 216.569, 108 218.796, 108 219.578 C 108 221.314, 108.508 221.346, 111.316 219.788 C 112.517 219.122, 114.719 218.501, 116.208 218.408 C 123.559 217.948, 125.640 216.916, 131.658 210.745 C 138.813 203.409, 143.347 193.274, 142.811 185.819 L 142.500 181.500 138 181.248 C 135.232 181.092, 131.932 181.717, 129.424 182.871 M 104.262 191.772 C 102.197 193.367, 102.073 194.040, 102.664 200.500 C 103.227 206.657, 104.133 208.931, 106.043 208.985 C 106.522 208.998, 107.617 205.826, 111.070 194.429 C 111.581 192.740, 112 191.052, 112 190.679 C 112 189.309, 106.434 190.095, 104.262 191.772 M 87.136 202.959 C 84.196 205.474, 83.766 206.446, 83.728 210.668 C 83.700 213.717, 84.418 216.791, 85.671 219 C 87.367 221.987, 88.259 222.545, 91.757 222.804 C 95.590 223.088, 95.965 222.876, 97.556 219.524 C 99.128 216.211, 99.133 215.805, 97.628 214.142 C 96.663 213.075, 96 210.617, 96 208.106 C 96 199.769, 92.942 197.993, 87.136 202.959 M 160 222 C 160 222.550, 160.450 223, 161 223 C 161.550 223, 162 222.550, 162 222 C 162 221.450, 161.550 221, 161 221 C 160.450 221, 160 221.450, 160 222" stroke="none" fill="black" fill-rule="evenodd"/>
</svg>