<svg xmlns="http://www.w3.org/2000/svg" width="300" height="300" viewBox="0 0 300 300" version="1.1">
	<path d="M 151.400 69.832 C 149.255 71.389, 145.782 74.764, 143.683 77.332 C 138.558 83.599, 136 83.304, 136 76.444 C 136 74.806, 135.070 73.570, 133.050 72.526 C 126.223 68.996, 124.272 71.368, 125.900 81.223 C 126.551 85.168, 127.467 88.870, 127.934 89.448 C 130.362 92.454, 131.796 137.500, 131.206 192.279 L 130.681 241.058 133.528 244.029 C 136.871 247.519, 138.716 247.696, 143.943 245.029 C 150.109 241.883, 158 230.860, 158 225.392 C 158 224.061, 158.387 222.191, 158.859 221.236 C 160.249 218.426, 163 209.370, 163 207.602 C 163 206.706, 163.417 205.191, 163.927 204.236 C 164.437 203.281, 165.102 201.702, 165.404 200.727 C 165.707 199.752, 166.588 198.712, 167.362 198.415 C 169.631 197.544, 186.043 207.064, 212.573 224.639 C 215.363 226.488, 218.092 228, 218.636 228 C 219.180 228, 220.919 229.350, 222.500 231 C 224.081 232.650, 225.678 234, 226.049 234 C 226.643 234, 231.008 236.857, 246.373 247.306 C 248.643 248.850, 252.300 250.982, 254.500 252.044 C 256.700 253.106, 259.288 254.541, 260.250 255.232 C 262.588 256.913, 265.396 255.162, 265.805 251.769 C 266.220 248.322, 262.626 244.679, 256.686 242.529 C 254.039 241.570, 249.989 239.372, 247.686 237.643 C 243.595 234.572, 236.201 229.543, 232.794 227.515 C 229.364 225.474, 216.337 216.354, 209.016 210.869 C 200.833 204.738, 196.074 202.003, 176.750 192.322 C 169.738 188.809, 164 185.658, 164 185.320 C 164 184.608, 170.770 175.982, 172.492 174.500 C 173.925 173.266, 182 159.937, 182 158.804 C 182 158.352, 183.290 156.201, 184.868 154.024 C 186.445 151.847, 189.189 147.013, 190.967 143.283 C 202.764 118.524, 202.919 118.052, 200.483 114.334 C 199.331 112.576, 198.141 111.967, 196.288 112.190 C 193.550 112.518, 193.048 113.149, 190.473 119.500 C 188.435 124.528, 186.045 129.979, 184.889 132.236 C 184.400 133.191, 184 134.649, 184 135.475 C 184 136.301, 181.300 141.524, 178 147.081 C 174.700 152.639, 172 157.379, 172 157.614 C 172 157.850, 170.774 159.946, 169.275 162.271 C 164.615 169.504, 157.805 177.041, 153.055 180.225 C 147.441 183.988, 146 185.720, 146 188.707 C 146 191.478, 150.075 193.582, 157.227 194.505 C 159.826 194.841, 162.210 195.530, 162.523 196.037 C 162.836 196.544, 161.272 199.700, 159.046 203.050 C 156.821 206.400, 155 209.791, 155 210.584 C 155 211.903, 154.116 213.977, 151.841 218 C 146.532 227.385, 145.267 229.490, 143.821 231.346 C 142.533 232.998, 141.864 233.227, 140.949 232.328 C 139.566 230.969, 139.554 230.243, 140.394 198.533 L 141.029 174.565 143.871 171.533 C 146.320 168.919, 150.222 163.830, 158.405 152.580 C 159.453 151.139, 161.478 149.682, 162.905 149.342 C 166.612 148.459, 167.504 147.534, 168.991 143.029 C 169.717 140.829, 171.141 138.278, 172.155 137.359 C 174.443 135.289, 174.542 132.422, 172.356 131.583 C 170.923 131.033, 170.788 129.636, 171.302 120.726 C 171.924 109.958, 170.440 87.714, 168.904 84.764 C 168.407 83.809, 168 81.986, 168 80.714 C 168 79.441, 167.498 77.898, 166.884 77.284 C 166.270 76.670, 165.251 75.131, 164.620 73.864 C 163.557 71.733, 157.615 67, 156.002 67 C 155.616 67, 153.545 68.274, 151.400 69.832 M 148.910 87.250 C 145.607 90.688, 142.028 94.446, 140.955 95.603 C 139.178 97.520, 139.054 98.753, 139.558 109.603 C 139.862 116.146, 140.340 129.262, 140.620 138.750 C 140.995 151.478, 141.452 156, 142.362 156 C 143.039 156, 145.373 154.163, 147.547 151.918 C 149.721 149.672, 152.738 147.186, 154.250 146.392 C 155.762 145.598, 157 144.422, 157 143.779 C 157 143.136, 158.074 141.460, 159.387 140.055 C 161.582 137.705, 161.811 136.477, 162.234 124.750 C 162.486 117.737, 162.312 112, 161.847 112 C 161.381 112, 161 112.800, 161 113.778 C 161 115.274, 152.154 124.031, 148.331 126.319 C 146.737 127.273, 144 124.349, 144 121.693 C 144 118.395, 149 109.230, 151.801 107.395 C 154.092 105.893, 154.551 105.892, 157.677 107.383 C 159.542 108.272, 161.278 109, 161.534 109 C 161.790 109, 162 104.725, 162 99.500 C 162 93.833, 161.596 90, 161 90 C 160.450 90, 160 88.845, 160 87.434 C 160 84.052, 158.303 81, 156.422 81 C 155.592 81, 152.212 83.813, 148.910 87.250 M 67.633 93.785 C 67.031 94.759, 67.048 108.228, 67.652 109.230 C 67.895 109.631, 68.951 109.423, 70.001 108.767 C 72.251 107.362, 73.301 108.053, 72.417 110.357 C 72.070 111.261, 70.915 112, 69.851 112 C 67.971 112, 67.933 112.732, 68.548 137.506 C 69.027 156.762, 68.867 164.240, 67.898 168.022 C 66.851 172.104, 66.853 175.948, 67.905 188.766 C 68.616 197.420, 69.144 206.478, 69.079 208.895 C 68.922 214.703, 71.105 218, 75.109 218 C 77.700 218, 80.131 216.038, 90.900 205.250 C 97.900 198.238, 104.438 191.264, 105.428 189.752 C 107.180 187.076, 107.173 186.959, 105.145 185.252 C 103.182 183.600, 103.034 182.242, 102.569 161.500 C 101.977 135.162, 101.297 127.491, 99.414 125.928 C 98.604 125.256, 98 122.951, 98 120.531 C 98 115.690, 95.972 111.023, 91.684 106 C 87.753 101.394, 84.534 99.724, 81.061 100.487 C 78.638 101.019, 77.807 100.544, 75.041 97.052 C 72.084 93.319, 68.813 91.876, 67.633 93.785 M 80.405 116.102 C 78.817 117.854, 78.444 120.098, 78.164 129.602 C 77.979 135.871, 78.228 141, 78.718 141 C 79.207 141, 81.100 139.460, 82.924 137.578 C 84.748 135.696, 87.290 133.893, 88.572 133.571 C 90.744 133.026, 90.864 132.625, 90.323 127.743 C 90.004 124.859, 89.350 122.073, 88.871 121.550 C 88.392 121.027, 88 119.860, 88 118.955 C 88 117.187, 84.994 114, 83.326 114 C 82.767 114, 81.453 114.946, 80.405 116.102 M 86.885 146.876 C 85.520 147.950, 83.101 148.979, 81.509 149.164 C 77.989 149.573, 76.751 153.212, 77.202 161.824 C 77.485 167.207, 77.644 167.517, 80.288 167.820 C 82.518 168.076, 84.167 167.078, 88.544 162.820 L 94.013 157.500 93.254 151.513 C 92.398 144.766, 90.928 143.696, 86.885 146.876 M 89.530 173.967 C 88.514 175.090, 85.020 176.979, 81.766 178.166 L 75.850 180.323 76.248 191.349 C 76.780 206.052, 77.445 206.471, 86.915 198.075 C 90.821 194.612, 94.260 190.811, 94.557 189.627 C 94.854 188.444, 94.963 184.112, 94.799 179.999 C 94.471 171.785, 93.014 170.117, 89.530 173.967" stroke="none" fill="black" fill-rule="evenodd"/>
</svg>