<svg xmlns="http://www.w3.org/2000/svg" width="300" height="300" viewBox="0 0 300 300" version="1.1">
	<path d="M 120.200 34.200 C 119.540 34.860, 119 36.858, 119 38.641 C 119 40.424, 118.550 42.160, 118 42.500 C 117.450 42.840, 117 44.207, 117 45.539 C 117 46.870, 116.369 49.656, 115.598 51.730 C 113.124 58.382, 112.752 59.387, 110.318 66 C 109.002 69.575, 107.673 73.400, 107.363 74.500 C 106.670 76.967, 104.232 82.900, 102.952 85.236 C 102.428 86.191, 102 87.654, 102 88.486 C 102 89.319, 101.550 90, 101 90 C 99.458 90, 99.817 95.603, 101.445 96.954 C 103.774 98.887, 107.342 97.824, 108.004 95 C 108.433 93.171, 109.249 92.500, 111.045 92.500 C 113.031 92.500, 113.565 93.073, 113.838 95.500 C 114.025 97.150, 114.548 98.950, 115.001 99.500 C 116.021 100.738, 117.648 110.201, 118.439 119.500 C 118.983 125.904, 117.499 149.020, 115.099 171.500 C 114.571 176.450, 113.828 186.408, 113.448 193.628 C 112.789 206.153, 112.854 206.854, 114.878 208.878 C 116.045 210.045, 117.620 211, 118.378 211 C 121.605 211, 122.235 208.099, 122.452 192.255 C 122.570 183.590, 123.164 173.125, 123.771 169 C 124.379 164.875, 125.165 156.550, 125.518 150.500 C 126.118 140.210, 126.489 135.147, 126.849 132.313 C 126.949 131.525, 128.187 131.318, 130.534 131.699 C 133.736 132.219, 134.463 131.855, 138.284 127.822 C 142.557 123.311, 147.079 120, 148.965 120 C 149.595 120, 150 123.239, 150 128.281 L 150 136.563 144.221 142.281 C 136.394 150.027, 133.780 149.724, 137.690 141.524 C 138.940 138.903, 139.088 137.688, 138.257 136.857 C 136.621 135.221, 134 136.591, 134 139.082 C 134 140.262, 133.159 142.864, 132.132 144.864 C 127.318 154.231, 126.529 157.364, 128.560 159.049 C 131.038 161.107, 138.075 160.282, 141 157.592 C 144.436 154.432, 146.938 153.675, 147.667 155.574 C 148.710 158.294, 142.775 174.199, 139.252 178.121 C 135.457 182.348, 135.245 184.131, 138.068 188.096 C 141.076 192.319, 144.090 191.885, 149.622 186.432 C 155.306 180.829, 160.506 177.475, 166.748 175.390 C 169.361 174.516, 172.850 173.229, 174.500 172.530 C 176.150 171.831, 179.256 170.863, 181.402 170.379 C 188.101 168.870, 188.837 164.231, 182.845 161.285 C 180.143 159.957, 173.508 161.526, 162.453 166.108 C 158.570 167.717, 156.667 168.067, 155.909 167.309 C 154.147 165.547, 157.877 144.267, 160.693 140.018 C 161.962 138.103, 163 135.976, 163 135.291 C 163 134.606, 164.125 133.309, 165.500 132.408 C 166.875 131.507, 168 130.172, 168 129.442 C 168 128.711, 168.795 127.525, 169.767 126.807 C 172.207 125.003, 175.003 120.436, 174.985 118.285 C 174.930 111.887, 168.750 113.258, 165 120.500 C 161.397 127.459, 160.235 127.291, 160.142 119.797 C 160.034 111.109, 161.224 106.768, 165.029 101.964 C 169.233 96.655, 169.793 90.683, 166.135 90.165 C 164.834 89.981, 163.281 90.319, 162.685 90.915 C 161.205 92.395, 160 92.278, 160 90.655 C 160 88.893, 156.764 86, 154.794 86 C 152.108 86, 150.952 88.562, 150.063 96.488 C 149.351 102.842, 148.724 104.679, 146.464 107.038 C 144.959 108.609, 141.168 112.659, 138.040 116.040 C 133.587 120.852, 131.827 122.111, 129.927 121.843 C 127.650 121.521, 127.462 121.004, 126.884 113.500 C 125.473 95.171, 122.654 87.121, 116.948 85.132 C 112.591 83.613, 112.913 81.529, 119.649 67.658 C 120.942 64.994, 122 61.984, 122 60.967 C 122 59.950, 122.405 58.868, 122.900 58.562 C 123.394 58.256, 124.345 55.642, 125.012 52.753 C 125.679 49.864, 126.849 46.503, 127.613 45.285 C 128.376 44.067, 129 41.086, 129 38.660 C 129 34.521, 128.808 34.212, 125.875 33.625 C 121.729 32.796, 121.590 32.810, 120.200 34.200 M 144.689 42.454 C 143.129 44.013, 143.440 52.631, 145.122 54.450 C 146.488 55.928, 146.146 61.197, 144.475 64.402 C 142.822 67.571, 143.347 71, 145.486 71 C 147.711 71, 155.984 59.825, 155.993 56.809 C 155.997 55.329, 156.450 53.840, 157 53.500 C 157.550 53.160, 158 51.374, 158 49.530 C 158 43.347, 148.726 38.417, 144.689 42.454 M 158 65.726 C 157.175 66.038, 156.138 66.906, 155.695 67.655 C 154.961 68.899, 145.778 76.102, 141.870 78.500 C 136.195 81.983, 129 88.332, 129 89.857 C 129 92.074, 133.034 96, 135.312 96 C 136.237 96, 138.683 94.537, 140.747 92.750 C 142.811 90.963, 145.220 89.050, 146.101 88.500 C 147.786 87.447, 152.698 83.905, 162.254 76.849 C 166.890 73.426, 167.887 72.203, 167.386 70.550 C 165.966 65.872, 162.424 64.051, 158 65.726 M 40.285 72.241 C 38.266 75.664, 38.265 75.703, 40.156 92.085 C 41.447 103.264, 41.853 111.371, 41.428 117.500 C 41.086 122.450, 40.671 131.149, 40.507 136.831 C 40.343 142.513, 39.668 155.563, 39.008 165.831 C 37.421 190.490, 37.800 198.801, 40.595 200.651 C 42.480 201.899, 42.959 201.769, 45.377 199.351 C 47.426 197.301, 48.341 196.941, 49.232 197.832 C 51.289 199.889, 53.840 199.093, 56.707 195.500 C 58.243 193.575, 60.016 192, 60.646 192 C 61.276 192, 63.542 189.927, 65.680 187.393 C 69.478 182.894, 69.654 182.810, 73.239 183.800 C 75.897 184.534, 77.157 184.495, 77.805 183.657 C 79.369 181.636, 81.034 168.746, 79.907 167.388 C 79.348 166.714, 78.916 162.864, 78.946 158.832 C 79.006 150.875, 78.368 132.319, 77.009 102.500 C 75.885 77.835, 74.015 72.345, 66.392 71.325 C 62.831 70.848, 61.837 71.174, 58.927 73.774 C 55.746 76.616, 55.535 77.229, 54.893 85.493 C 54.437 91.349, 53.699 94.730, 52.644 95.784 C 50.441 97.988, 50.174 96.772, 49.802 82.829 C 49.631 76.409, 49.235 70.902, 48.922 70.589 C 48.610 70.277, 46.994 69.749, 45.331 69.416 C 42.670 68.884, 42.067 69.221, 40.285 72.241 M 60.212 88.188 C 59.546 88.854, 59 89.930, 59 90.578 C 59 91.225, 58.325 92.315, 57.500 93 C 56.675 93.685, 56 95.754, 56 97.599 C 56 100.026, 55.344 101.384, 53.626 102.509 C 51.330 104.014, 51.230 104.626, 50.558 121.282 C 50.176 130.752, 49.668 141.736, 49.428 145.691 C 49.031 152.250, 49.189 153.019, 51.219 154.441 C 54.598 156.807, 56.066 156.385, 61.458 151.496 C 64.185 149.023, 66.997 147, 67.708 147 C 69.374 147, 69.543 132.454, 67.889 131.431 C 67.265 131.046, 65.077 132.605, 62.902 134.984 C 60.308 137.822, 58.499 139.022, 57.431 138.612 C 56.554 138.275, 55.648 138, 55.418 138 C 55.188 138, 55 136.439, 55 134.530 C 55 129.003, 60.630 120, 64.088 120 C 66.796 120, 67.272 116.845, 66.500 103.994 C 65.643 89.732, 63.658 84.742, 60.212 88.188 M 62.224 162.696 L 56.949 167.303 52.969 165.990 C 50.781 165.268, 48.785 164.882, 48.533 165.133 C 48.100 165.567, 47.557 182.543, 47.858 186.250 C 47.955 187.451, 48.862 188.007, 50.750 188.024 C 52.920 188.042, 55.127 186.304, 61.219 179.774 C 68.545 171.921, 68.939 171.262, 68.969 166.809 C 68.986 164.229, 69.450 161.840, 70 161.500 C 70.550 161.160, 71 160.234, 71 159.441 C 71 156.773, 67.534 158.058, 62.224 162.696 M 198.279 206.960 C 190.212 210.622, 180.394 217.005, 175.960 221.469 C 170.639 226.826, 168.018 227.160, 164.826 222.885 C 156.509 211.746, 146.445 207.141, 141.166 212.060 C 138.407 214.630, 139.162 216, 143.339 216 C 147.010 216, 151.167 219.883, 154.500 226.427 C 155.600 228.587, 158.359 232.408, 160.631 234.919 L 164.762 239.484 168.598 237.655 C 170.708 236.649, 173.037 234.965, 173.774 233.913 C 174.511 232.861, 175.672 232, 176.355 232 C 177.833 232, 186 224.348, 186 222.963 C 186 222.433, 186.652 222, 187.450 222 C 188.247 222, 190.835 220.740, 193.200 219.201 C 195.565 217.661, 199.083 215.590, 201.019 214.598 C 204.474 212.827, 204.605 212.835, 208.305 215.018 C 210.378 216.240, 212.712 218.476, 213.493 219.987 C 215.538 223.941, 217.092 234.660, 216.004 237.305 C 215.507 238.512, 213.912 243.440, 212.459 248.256 C 209.494 258.089, 206.502 263.922, 200.167 272.223 C 195.343 278.545, 195.178 280.707, 199.347 282.966 L 202.180 284.500 208.090 278.021 C 211.340 274.458, 214 270.943, 214 270.210 C 214 269.477, 215.514 265.642, 217.364 261.688 C 222.316 251.105, 223 249.203, 223 246.015 C 223 244.425, 223.656 240.284, 224.457 236.812 C 225.570 231.996, 225.664 229.552, 224.855 226.500 C 224.272 224.300, 223.574 220.864, 223.304 218.864 C 222.699 214.393, 217.787 208.227, 213.357 206.376 C 208.809 204.476, 203.280 204.690, 198.279 206.960 M 99.270 226.703 C 96.454 227.247, 93 231.563, 93 234.538 C 93 236.711, 93.397 236.822, 102.421 237.153 C 111.131 237.474, 112.184 237.741, 116.372 240.695 C 121.875 244.576, 129.503 245.622, 131.359 242.750 C 132.845 240.450, 131.133 237.623, 127.971 237.157 C 125.373 236.774, 121.749 234.712, 118 231.482 C 113.221 227.365, 105.733 225.455, 99.270 226.703 M 46.500 245.672 C 38.616 247.407, 36.783 250.530, 42.233 252.943 C 46.973 255.041, 60.026 264.180, 61.071 266.132 C 61.565 267.056, 64.114 269.016, 66.735 270.487 C 71.360 273.084, 71.592 273.113, 74.631 271.488 C 80.243 268.486, 81.557 263, 76.663 263 C 74.232 263, 70.866 261.024, 67 257.328 C 61.508 252.078, 51.771 245.007, 50.184 245.116 C 49.258 245.180, 47.600 245.430, 46.500 245.672" stroke="none" fill="black" fill-rule="evenodd"/>
</svg>