<svg xmlns="http://www.w3.org/2000/svg" width="300" height="300" viewBox="0 0 300 300" version="1.1">
	<path d="M 134.203 19.256 C 133.630 19.946, 132.838 21.859, 132.443 23.506 C 132.047 25.153, 131.279 27.065, 130.735 27.755 C 130.191 28.446, 130.032 30.796, 130.380 32.978 C 131.093 37.435, 130.380 38.164, 120.580 43 C 116.315 45.105, 115.407 46.049, 114.839 48.968 C 113.486 55.917, 117.616 58.056, 123.589 53.500 C 125.392 52.125, 128.071 51, 129.543 51 L 132.219 51 131.650 58.250 C 130.432 73.772, 129.923 76.637, 127.503 81.583 C 126.037 84.580, 125 88.446, 125 90.915 C 125 96.585, 123.641 98.769, 118.680 101.071 C 116.381 102.138, 113.150 103.894, 111.500 104.973 C 109.850 106.053, 107.035 107.604, 105.244 108.420 C 99.444 111.062, 98.964 116.760, 104.230 120.449 C 107.185 122.518, 107.160 122.524, 112.522 118.431 C 119.460 113.136, 121.790 114.852, 118.132 122.562 C 117.104 124.728, 115.489 128.300, 114.542 130.500 C 113.595 132.700, 112.244 135.625, 111.539 137 C 110.835 138.375, 109.701 141.300, 109.020 143.500 C 106.876 150.424, 100.990 165.315, 98.545 170 C 95.869 175.126, 87 200.053, 87 202.447 C 87 203.316, 86.568 204.809, 86.041 205.764 C 85.514 206.719, 83.896 211.550, 82.447 216.500 C 80.997 221.450, 78.912 227.975, 77.814 231 C 75.159 238.312, 73 246.559, 73 249.394 C 73 252.186, 75.896 255, 78.770 255 C 81.471 255, 81.840 254.338, 83.975 245.680 C 84.948 241.731, 86.876 235.125, 88.259 231 C 89.642 226.875, 91.090 221.925, 91.478 220 C 92.250 216.164, 94.131 210.173, 96.030 205.500 C 96.700 203.850, 97.583 201.600, 97.991 200.500 C 98.399 199.400, 99.208 197.375, 99.790 196 C 100.371 194.625, 101.642 190.800, 102.614 187.500 C 103.586 184.200, 105.420 179.520, 106.690 177.101 C 107.961 174.682, 109.014 171.982, 109.032 171.101 C 109.049 170.220, 109.717 168.637, 110.515 167.582 C 111.313 166.527, 112.935 162.477, 114.119 158.582 C 116.237 151.619, 118.886 145.223, 123.611 135.668 C 124.925 133.010, 126 130.349, 126 129.753 C 126 129.158, 127.575 125.353, 129.500 121.297 C 131.425 117.242, 133 113.633, 133 113.278 C 133 112.922, 133.957 110.654, 135.127 108.238 C 136.698 104.993, 139.247 102.424, 144.877 98.413 C 156.873 89.866, 167.404 83.015, 168.554 83.007 C 169.133 83.003, 171.066 81.495, 172.849 79.656 C 175.381 77.043, 176.135 75.356, 176.295 71.943 C 176.456 68.521, 176.129 67.498, 174.789 67.221 C 173.849 67.027, 167.397 70.723, 160.453 75.434 C 153.509 80.145, 147.191 84, 146.414 84 C 144.273 84, 144.714 80.583, 147.500 75.593 C 148.875 73.130, 150 70.499, 150 69.745 C 150 68.992, 150.847 66.604, 151.883 64.438 C 152.918 62.272, 154.078 59.043, 154.460 57.261 C 154.841 55.480, 155.569 53.766, 156.077 53.452 C 156.585 53.139, 157 51.859, 157 50.608 C 157 49.357, 157.322 48.012, 157.715 47.618 C 158.488 46.846, 160.568 39.926, 161.955 33.514 C 163.425 26.722, 159.578 23.493, 155.451 28.055 L 153.591 30.109 152.005 28.007 L 150.420 25.905 146.581 28.510 C 141.284 32.104, 139.586 31.249, 140.459 25.426 C 141.199 20.490, 140.039 18, 137 18 C 136.035 18, 134.776 18.565, 134.203 19.256 M 145.783 40.750 C 144.944 41.712, 143.749 43.483, 143.128 44.684 C 141.868 47.125, 141.568 59, 142.768 59 C 143.449 59, 150 41.536, 150 39.720 C 150 38.349, 147.303 39.008, 145.783 40.750 M 60.153 76.867 C 58.969 77.894, 58 79.189, 58 79.745 C 58 80.300, 57.288 81.346, 56.418 82.068 C 55.548 82.790, 54.086 84.950, 53.168 86.868 C 50.878 91.655, 49 92.064, 49 87.774 C 49 80.103, 43.134 78.812, 38.960 85.565 C 37.172 88.457, 36.890 89.926, 37.471 93.317 C 37.866 95.617, 38.491 100.200, 38.861 103.500 C 39.230 106.800, 39.839 109.982, 40.214 110.570 C 41.343 112.342, 41.975 157.735, 40.985 165.904 C 39.322 179.623, 38.043 204.515, 38.846 207.537 C 39.929 211.620, 44.059 212.119, 47.352 208.565 C 48.660 207.154, 50.653 206, 51.783 206 C 55.324 206, 56.914 204.917, 59.928 200.452 C 63.067 195.800, 64.462 188.038, 62.293 187.282 C 61.630 187.051, 58.852 189.205, 56.121 192.068 C 49.225 199.298, 48.246 198.605, 48.527 186.696 C 48.650 181.480, 49.058 176.716, 49.432 176.109 C 49.807 175.503, 52.358 174.041, 55.100 172.861 C 57.890 171.661, 61.580 168.972, 63.476 166.757 C 65.340 164.580, 67.294 163.064, 67.819 163.388 C 68.395 163.744, 68.563 169.929, 68.241 178.999 C 67.762 192.515, 67.889 194.220, 69.509 196.010 C 71.949 198.706, 74.435 198.512, 76.428 195.470 C 77.916 193.198, 78.023 189.755, 77.478 161.720 C 76.711 122.349, 75.987 111.795, 72.591 90.500 C 70.707 78.683, 70.492 78, 68.654 78 C 67.879 78, 66.685 77.325, 66 76.500 C 64.347 74.509, 62.757 74.609, 60.153 76.867 M 58.250 97.499 C 57.013 99.409, 56 101.212, 56 101.506 C 56 101.799, 54.834 103.886, 53.410 106.143 C 51.103 109.798, 50.795 111.390, 50.593 120.725 C 50.329 132.941, 51.166 134.088, 56.342 128.599 C 58.275 126.549, 61.136 124.723, 62.998 124.350 L 66.262 123.698 65.502 115.599 C 65.084 111.144, 64.663 106.375, 64.568 105 C 64.472 103.625, 64.102 101.825, 63.746 101 C 63.390 100.175, 62.964 98.410, 62.799 97.078 C 62.353 93.465, 60.769 93.611, 58.250 97.499 M 154.926 135.635 C 149.252 140.693, 144.677 145.829, 143.782 148.144 C 142.816 150.643, 140.697 150.490, 139.487 147.832 C 137.688 143.880, 135.390 143.285, 132.482 146.017 C 129.974 148.373, 129.889 148.815, 130.278 157.484 C 130.500 162.443, 131.415 170.550, 132.312 175.500 C 135.882 195.204, 136.277 214.741, 133.127 215.791 C 130.872 216.543, 131.932 223.041, 135.048 227.570 C 137.468 231.087, 138.692 232, 140.989 232 C 142.580 232, 144.146 231.573, 144.469 231.051 C 144.820 230.482, 149.838 230.342, 156.974 230.701 C 171.483 231.430, 174 230.445, 174 224.036 C 174 221.881, 174.450 219.840, 175 219.500 C 175.550 219.160, 176 216.404, 176 213.375 C 176 210.347, 176.513 206.911, 177.139 205.740 C 179.957 200.475, 177.252 154.115, 173.420 142 C 171.152 134.829, 169.225 132.892, 163.743 132.274 C 159.632 131.811, 158.903 132.089, 154.926 135.635 M 56.430 141.936 L 51.359 146.848 51.171 153.859 C 51.067 157.740, 51.436 161.151, 51.998 161.499 C 52.556 161.844, 55.251 159.960, 57.986 157.313 C 60.721 154.666, 63.980 152.251, 65.229 151.948 C 67.298 151.445, 67.500 150.823, 67.500 144.948 C 67.500 135.197, 64.289 134.323, 56.430 141.936 M 158.750 145.082 C 157.787 145.642, 157 146.721, 157 147.482 C 157 148.242, 155.708 149.784, 154.129 150.908 C 152.550 152.032, 149.400 156.028, 147.129 159.786 C 143.237 166.228, 143 167.063, 143 174.341 C 143 183.859, 144.364 184.949, 149.821 179.789 C 154.913 174.974, 162.694 170, 165.135 170 C 167.063 170, 167.136 169.591, 166.522 162.250 C 166.165 157.988, 165.512 153.600, 165.070 152.500 C 164.628 151.400, 163.870 149.187, 163.384 147.582 C 162.373 144.245, 161.240 143.634, 158.750 145.082 M 161.884 183.823 C 156.489 187.282, 148.092 194.211, 146.676 196.372 C 144.839 199.176, 143.962 218.362, 145.596 219.996 C 146.353 220.753, 148.015 220.782, 151.091 220.091 C 153.875 219.465, 155.850 219.450, 156.450 220.050 C 156.972 220.573, 158.547 220.981, 159.950 220.958 C 162.049 220.923, 162.986 219.906, 165.250 215.208 C 167.669 210.188, 168.049 208.055, 168.409 197.514 C 168.932 182.150, 167.894 179.970, 161.884 183.823" stroke="none" fill="black" fill-rule="evenodd"/>
</svg>