<svg xmlns="http://www.w3.org/2000/svg" width="300" height="300" viewBox="0 0 300 300" version="1.1">
	<path d="M 155.197 68.263 C 154.620 68.958, 153.939 73.795, 153.684 79.013 C 152.990 93.204, 152.577 94.308, 145.252 101.561 C 141.676 105.102, 138.152 108, 137.422 108 C 136.691 108, 135.392 106.520, 134.533 104.711 C 132.261 99.924, 127.269 94.191, 123.819 92.406 C 121.067 90.983, 120.660 90.998, 118.909 92.582 C 116.221 95.015, 116.516 98.747, 119.600 101.326 C 124.333 105.283, 126.462 108.012, 130.107 114.791 C 134.472 122.909, 137.422 124.053, 141.114 119.059 C 142.358 117.377, 143.777 116, 144.268 116 C 145.181 116, 144.344 121.222, 142.990 123.967 C 140.274 129.472, 137 140.326, 137 143.825 C 137 145.506, 136.550 147.160, 136 147.500 C 135.450 147.840, 135 149.130, 135 150.368 C 135 151.605, 134.339 153.491, 133.532 154.559 C 132.724 155.626, 132.049 157.711, 132.032 159.191 C 132.014 160.671, 131.550 162.160, 131 162.500 C 130.450 162.840, 130 163.998, 130 165.073 C 130 166.148, 129.605 167.809, 129.122 168.764 C 126.991 172.979, 125 178.187, 125 179.547 C 125 180.361, 124.600 181.809, 124.111 182.764 C 123.153 184.635, 120.826 189.965, 119.207 194 C 117.249 198.881, 114.707 204.593, 111.376 211.605 C 107.477 219.810, 107.229 222.229, 110 225 C 112.564 227.564, 113.422 227.518, 114.702 224.750 C 120.402 212.422, 124.454 204.442, 125.153 204.167 C 125.619 203.983, 126 202.965, 126 201.903 C 126 200.841, 126.397 199.191, 126.883 198.236 C 128.977 194.120, 132.123 185.125, 132.736 181.500 C 133.015 179.850, 133.808 177.825, 134.499 177 C 135.189 176.175, 136.351 173.700, 137.081 171.500 C 137.811 169.300, 138.766 167.072, 139.204 166.550 C 139.642 166.027, 140.009 164.677, 140.021 163.550 C 140.033 162.422, 141.156 158.350, 142.517 154.500 C 143.878 150.650, 144.993 146.064, 144.996 144.309 C 144.998 142.554, 145.450 140.840, 146 140.500 C 146.550 140.160, 147 138.839, 147 137.563 C 147 136.288, 147.675 134.685, 148.500 134 C 149.325 133.315, 150 131.221, 150 129.346 C 150 127.197, 150.570 125.719, 151.543 125.345 C 153.398 124.633, 157 117.871, 157 115.099 C 157 114.009, 157.450 112.840, 158 112.500 C 158.550 112.160, 159 111.066, 159 110.068 C 159 109.070, 159.936 106.137, 161.081 103.550 C 162.801 99.661, 164.909 97.558, 173.236 91.422 C 183.815 83.628, 188.027 82.149, 187.967 86.250 C 187.933 88.646, 184.731 98.602, 183.647 99.686 C 182.469 100.864, 182.976 104, 184.345 104 C 187.141 104, 191.395 97.292, 193.858 89 C 194.593 86.525, 195.601 83.719, 196.097 82.764 C 197.553 79.962, 197.170 78.537, 194.195 75.687 C 192.337 73.907, 190.303 73, 188.167 73 C 181.957 73, 166 82.834, 166 86.661 C 166 88.075, 162.144 90.477, 161.273 89.606 C 160.967 89.301, 161.457 86.002, 162.361 82.275 C 163.265 78.549, 164.004 74.332, 164.003 72.905 C 163.998 68.290, 157.860 65.054, 155.197 68.263 M 103.471 105.398 C 101.805 106.124, 97.305 107.264, 93.471 107.931 C 89.637 108.599, 85.150 109.761, 83.500 110.514 C 79.282 112.440, 67.982 116, 66.085 116.001 C 61.596 116.002, 47.620 123.030, 46.519 125.840 C 44.275 131.566, 57.522 130.036, 75.367 122.507 C 79.273 120.859, 82 121.057, 82 122.990 C 82 123.569, 80.907 125.721, 79.572 127.771 C 78.236 129.822, 76.382 133.869, 75.452 136.765 C 74.521 139.661, 73.364 142.275, 72.880 142.574 C 72.396 142.873, 72 144.190, 72 145.500 C 72 146.810, 71.550 148.160, 71 148.500 C 70.450 148.840, 70 149.952, 70 150.970 C 70 153.298, 64.644 166.042, 55.876 184.579 C 54.294 187.922, 53 191.025, 53 191.474 C 53 191.923, 51.029 196.198, 48.620 200.974 C 44.749 208.651, 43.134 211.559, 38.315 219.538 C 37.663 220.617, 35.024 225.550, 32.450 230.500 C 29.876 235.450, 27.205 240.175, 26.515 241 C 23.717 244.343, 19.914 252.391, 20.197 254.369 C 20.651 257.531, 23.820 257.547, 27.099 254.405 C 28.694 252.877, 30 251.230, 30 250.746 C 30 250.262, 31.059 248.434, 32.354 246.683 C 34.372 243.955, 41.860 230.270, 49.531 215.292 C 52.660 209.181, 53.900 208, 57.187 208 C 59.464 208, 61.358 209.289, 65.560 213.697 C 68.546 216.830, 71.270 220.317, 71.613 221.447 C 73.458 227.523, 79.687 228.713, 87.891 224.555 C 93.740 221.591, 99 217.301, 99 215.495 C 99 214.764, 97.883 213.342, 96.518 212.333 C 94.161 210.592, 94.102 210.311, 95.350 206.718 C 96.073 204.638, 97.190 202.410, 97.832 201.768 C 98.474 201.126, 99 198.683, 99 196.339 C 99 191.044, 96.170 188, 91.247 188 C 86.731 188, 77.772 192.204, 75.130 195.562 C 69.958 202.137, 75.246 208.098, 81.727 203 C 83.126 201.900, 84.884 201, 85.635 201 C 87.524 201, 87.420 207.437, 85.500 209.357 C 84.675 210.182, 84 211.474, 84 212.229 C 84 215.735, 78.584 217.414, 77.570 214.221 C 76.747 211.627, 66.157 201.237, 62.840 199.769 C 61.278 199.077, 60 197.922, 60 197.201 C 60 195.359, 63.788 187.249, 64.997 186.502 C 65.549 186.161, 66 185.198, 66 184.363 C 66 183.527, 67.611 179.391, 69.580 175.172 C 71.549 170.952, 73.637 166.375, 74.220 165 C 76.740 159.058, 78.351 155.384, 79.147 153.764 C 79.616 152.809, 80 151.430, 80 150.701 C 80 149.971, 81.125 147.042, 82.500 144.192 C 83.875 141.342, 85 138.551, 85 137.991 C 85 137.431, 85.400 136.191, 85.888 135.236 C 91.797 123.682, 92.119 122.819, 91.526 120.119 C 90.839 116.992, 91.552 116.534, 101.281 113.860 C 107.284 112.209, 111.913 107.805, 110.030 105.536 C 108.498 103.690, 107.442 103.668, 103.471 105.398 M 170.448 122.416 C 168.871 123.569, 168.500 125.053, 168.500 130.195 L 168.500 136.548 161 143.090 C 153.386 149.732, 152.001 152.265, 153.972 155.948 C 155.478 158.762, 159.561 158.572, 163.589 155.500 C 168.856 151.482, 169.701 152.046, 170.512 160.117 C 171.208 167.050, 171.152 167.310, 168.345 170.117 C 166.760 171.702, 162.996 174.270, 159.981 175.824 C 155.244 178.266, 154.457 179.089, 154.182 181.890 C 153.546 188.369, 158.244 189.805, 165.729 185.419 C 171.579 181.991, 173 182.672, 173 188.906 C 173 193.794, 172.893 193.966, 166.443 199.437 C 162.837 202.497, 159.307 205, 158.598 205 C 157.890 205, 156.486 205.911, 155.478 207.024 C 153.699 208.990, 153.705 209.128, 155.679 211.774 C 156.797 213.273, 158.451 214.645, 159.355 214.823 C 160.258 215.001, 163.714 213.496, 167.034 211.480 C 175.756 206.181, 176.436 206.763, 175.565 218.771 C 175.177 224.122, 174.165 230.634, 173.317 233.242 C 171.694 238.233, 171.014 238.647, 161.247 240.601 C 156.736 241.503, 154.655 244.155, 155.487 247.941 C 156.428 252.225, 158.989 253.368, 164.254 251.854 C 166.838 251.111, 177.699 250.478, 192 250.237 C 221.467 249.739, 220.709 249.728, 231.500 250.814 C 240.338 251.702, 240.550 251.673, 243.250 249.172 C 246.424 246.233, 246.731 243.958, 244.250 241.758 C 242.902 240.563, 239.054 240.081, 227.500 239.660 C 219.250 239.359, 208.225 238.586, 203 237.943 C 197.775 237.299, 191.025 236.711, 188 236.636 C 183.445 236.523, 182.514 236.199, 182.583 234.750 C 182.629 233.787, 182.742 225.624, 182.833 216.609 L 183 200.219 188.992 193.859 C 192.288 190.362, 195.005 186.825, 195.032 186 C 195.058 185.175, 195.258 182.175, 195.477 179.333 C 195.772 175.489, 195.506 174.024, 194.437 173.614 C 192.753 172.968, 190 173.851, 190 175.038 C 190 176.664, 185.479 182.902, 184.500 182.626 C 183.950 182.471, 183.360 180.441, 183.190 178.114 C 182.899 174.149, 183.263 173.474, 188.996 167.345 C 195.859 160.009, 196.237 157.996, 191.335 154.906 L 188.170 152.911 184.703 155.956 C 180.102 159.996, 178.619 159.936, 179.614 155.750 C 180.505 152.004, 180.498 149.333, 179.590 146.500 C 179.091 144.945, 179.789 143.943, 182.724 142 C 184.801 140.625, 187.274 139.182, 188.220 138.793 C 190.369 137.910, 191.630 133.222, 190.289 131.097 C 189.737 130.221, 187.674 129.052, 185.705 128.499 C 183.737 127.947, 180.860 126.309, 179.313 124.860 C 175.639 121.418, 172.858 120.652, 170.448 122.416 M 138.600 173.599 C 138.263 174.478, 138.431 177.966, 138.973 181.349 C 141.168 195.042, 141.752 204.888, 140.941 214.500 C 140.477 220, 140.075 230.843, 140.049 238.595 C 140.004 251.405, 140.180 252.853, 141.979 254.481 C 143.770 256.101, 144.174 256.128, 146.229 254.764 C 148.372 253.340, 148.503 252.587, 148.556 241.378 C 148.587 234.845, 148.971 221.400, 149.409 211.500 C 149.994 198.273, 149.882 192.307, 148.986 189 C 148.315 186.525, 147.550 182.351, 147.285 179.725 C 146.881 175.721, 146.343 174.711, 143.951 173.475 C 140.321 171.597, 139.360 171.620, 138.600 173.599" stroke="none" fill="black" fill-rule="evenodd"/>
</svg>