<svg xmlns="http://www.w3.org/2000/svg" width="300" height="300" viewBox="0 0 300 300" version="1.1">
	<path d="M 131.204 36.692 C 129.376 40.247, 129.033 46.413, 130.549 48.441 C 132.828 51.490, 132.285 53.691, 128.380 57.224 C 117.264 67.284, 107 78.887, 107 81.393 C 107 84.482, 109 87, 111.452 87 C 112.762 87, 113.983 86.574, 114.167 86.053 C 114.993 83.705, 132.507 66, 134.003 66 C 137.068 66, 138 70.555, 138 85.528 C 138 100.112, 137.161 108.380, 134.307 121.938 C 132.162 132.126, 130.870 134.795, 125.594 139.938 C 120.879 144.534, 118.960 144.922, 121.087 140.847 C 123.632 135.972, 123.924 135.039, 124.532 129.837 C 124.876 126.902, 125.564 123.375, 126.062 122 C 126.559 120.625, 127.158 111.317, 127.391 101.315 C 127.877 80.535, 127.322 78.275, 122.408 81 C 118.237 83.313, 117.030 89.097, 117.085 106.500 C 117.117 116.688, 116.672 123.104, 115.695 126.500 C 114.905 129.250, 113.707 134.200, 113.034 137.500 C 112.360 140.800, 111.402 144.534, 110.905 145.797 C 110.407 147.060, 109.997 149.085, 109.994 150.297 C 109.990 151.509, 109.401 153.625, 108.683 155 C 107.966 156.375, 106.778 160.425, 106.043 164 C 105.308 167.575, 104.098 171.210, 103.354 172.079 C 102.609 172.947, 102 175.203, 102 177.093 C 102 178.982, 101.062 182.997, 99.915 186.014 C 98.769 189.031, 96.955 193.891, 95.884 196.813 C 94.814 199.735, 93.502 202.998, 92.969 204.063 C 92.436 205.128, 91.550 206.894, 91 207.986 C 89.337 211.290, 89.861 213.679, 92.649 215.506 C 95.283 217.231, 95.316 217.220, 98.399 213.564 L 101.500 209.888 109.667 210.194 C 116.992 210.468, 118.080 210.268, 120.231 208.250 C 121.550 207.012, 123.114 206, 123.706 206 C 126.967 206, 140.209 190.859, 144.919 181.746 C 145.699 180.236, 147.022 179, 147.858 179 C 149.125 179, 166.977 187.218, 172 190.114 C 177.944 193.541, 180.889 195.313, 183.500 197.030 C 185.150 198.116, 187.850 199.691, 189.500 200.530 C 191.150 201.369, 195.200 203.812, 198.500 205.958 C 201.800 208.103, 205.082 209.891, 205.794 209.930 C 206.506 209.968, 209.955 211.912, 213.458 214.250 C 224.755 221.787, 232.039 226.461, 235.162 228.176 C 236.841 229.098, 239.207 230.785, 240.421 231.926 C 241.636 233.067, 243.107 234, 243.692 234 C 244.277 234, 245.279 234.631, 245.920 235.403 C 246.560 236.175, 249.433 237.956, 252.304 239.360 C 255.175 240.765, 259.962 243.733, 262.942 245.957 C 269.518 250.863, 274.737 251.401, 279.418 247.655 C 283.261 244.581, 282.456 242.834, 275.734 239.654 C 272.758 238.246, 269.745 236.398, 269.039 235.547 C 268.333 234.696, 266.973 234, 266.016 234 C 263.998 234, 253.161 228.118, 244.500 222.322 C 241.200 220.114, 236.250 217.060, 233.500 215.536 C 230.750 214.012, 226.304 211.018, 223.619 208.883 C 220.935 206.747, 218.157 205, 217.446 205 C 216.735 205, 214.731 203.803, 212.992 202.340 C 211.254 200.877, 207.223 198.447, 204.036 196.940 C 200.849 195.432, 197.935 193.704, 197.561 193.099 C 197.188 192.495, 196.230 192, 195.432 192 C 194.635 192, 192.119 190.650, 189.841 189 C 187.564 187.350, 185.287 186, 184.783 186 C 184.279 186, 182.392 184.875, 180.589 183.500 C 178.786 182.125, 176.904 180.999, 176.406 180.997 C 175.908 180.996, 173.020 179.499, 169.988 177.671 C 166.957 175.843, 162.351 173.536, 159.752 172.543 C 152.605 169.814, 152.275 169.001, 155.362 161.728 C 156.816 158.303, 158.004 155.132, 158.003 154.683 C 158.001 154.234, 159.125 152.392, 160.500 150.589 C 161.875 148.786, 163 146.379, 163 145.239 C 163 144.099, 163.957 140.991, 165.127 138.333 C 168.644 130.343, 169.968 122.591, 168.529 118.408 C 167.190 114.511, 162.805 111.017, 159.240 111.007 C 157.997 111.003, 154.739 112.575, 152 114.500 C 149.261 116.425, 146.341 118, 145.510 118 C 143.820 118, 143.496 114.809, 144.917 112.155 C 145.421 111.213, 146.092 107.080, 146.407 102.971 C 147.595 87.490, 148.083 86.044, 154.302 79.548 C 157.436 76.275, 160.016 72.675, 160.035 71.548 C 160.055 70.422, 160.714 68.375, 161.500 67 C 162.343 65.525, 162.944 61.692, 162.965 57.650 C 162.998 51.172, 162.815 50.615, 159.600 47.400 C 156.065 43.865, 150.650 42.750, 148.322 45.078 C 147.729 45.671, 146.021 46.009, 144.527 45.828 C 142.261 45.555, 141.525 44.669, 140.095 40.500 C 138.578 36.074, 138.022 35.465, 135.257 35.192 C 133.040 34.973, 131.863 35.408, 131.204 36.692 M 147.305 56.250 C 145.569 58.161, 145.327 59.478, 145.699 65 C 145.940 68.575, 146.314 72.055, 146.531 72.733 C 147.180 74.766, 150 72.963, 150 70.515 C 150 69.267, 150.675 67.685, 151.500 67 C 152.522 66.152, 153 63.882, 153 59.878 C 153 54.854, 152.735 54, 151.174 54 C 150.170 54, 148.429 55.013, 147.305 56.250 M 86 63.500 C 85.315 64.325, 84.351 65, 83.856 65 C 83.362 65, 81.279 66.059, 79.229 67.354 C 77.178 68.649, 71.675 72.131, 67 75.092 C 62.325 78.052, 52.200 83.637, 44.500 87.502 C 31.945 93.804, 30.467 94.818, 30.178 97.325 C 29.683 101.617, 31.672 103.308, 36.336 102.562 C 38.500 102.216, 41.394 101.048, 42.770 99.967 C 44.145 98.885, 45.684 98, 46.191 98 C 46.698 98, 49.833 96.650, 53.159 95 C 58.935 92.134, 62 91.302, 62 92.600 C 62 94.669, 54.185 122.403, 52.448 126.500 C 51.748 128.150, 50.394 131.975, 49.438 135 C 48.483 138.025, 47.094 141.210, 46.351 142.079 C 45.608 142.947, 45 144.549, 45 145.638 C 45 146.727, 44.339 148.491, 43.532 149.559 C 42.724 150.626, 42.049 152.081, 42.032 152.792 C 42.014 153.502, 40.650 156.971, 39 160.500 C 37.350 164.029, 36 167.428, 36 168.054 C 36 168.680, 35.342 170.386, 34.537 171.846 C 33.732 173.306, 31.421 178.100, 29.400 182.500 C 27.380 186.900, 23.705 193.534, 21.235 197.243 C 17.509 202.836, 16.957 204.243, 17.994 205.493 C 20.969 209.077, 27.703 205.542, 30.935 198.699 C 32.026 196.390, 34.062 192.575, 35.459 190.223 C 36.857 187.871, 38 185.411, 38 184.757 C 38 184.102, 40.170 179.052, 42.823 173.533 C 45.475 168.015, 48.071 162.150, 48.593 160.500 C 50.129 155.635, 52.906 156.150, 58.812 162.395 C 61.666 165.412, 64 168.567, 64 169.405 C 64 171.206, 69.738 178, 71.259 178 C 73.069 178, 79 172.971, 79 171.436 C 79 169.653, 80.639 166.643, 84.145 161.989 C 86.097 159.397, 86.978 156.723, 87.507 151.775 C 88.208 145.229, 88.154 145, 85.190 142.036 C 79.496 136.342, 74.262 138.284, 67.091 148.750 C 65.866 150.537, 64.308 152, 63.628 152 C 62.948 152, 60.948 150.510, 59.183 148.689 C 56.485 145.905, 56.075 144.875, 56.608 142.212 C 56.956 140.470, 57.862 138.530, 58.621 137.900 C 59.379 137.270, 60 135.679, 60 134.364 C 60 133.049, 60.450 131.079, 61 129.986 C 63.439 125.142, 63.787 124.242, 64.490 120.967 C 64.900 119.060, 65.516 117.050, 65.860 116.500 C 66.875 114.874, 68.969 108.610, 68.985 107.151 C 68.993 106.409, 69.646 104.384, 70.436 102.651 C 72.533 98.049, 73.988 92.012, 73.994 87.885 C 74 83.978, 76.596 79.893, 80.413 77.782 C 81.688 77.077, 85.042 75.255, 87.866 73.733 C 92.440 71.268, 93 70.608, 93 67.683 C 93 62.509, 88.870 60.041, 86 63.500 M 150.369 130.344 C 148.241 132.733, 145.375 136.184, 144 138.014 C 135.606 149.181, 129.981 154.277, 127.150 153.278 C 124.380 152.301, 122 149.790, 122 147.845 C 122 146.830, 121.325 146, 120.500 146 C 119.348 146, 119 147.278, 119 151.500 C 119 156.857, 119.073 157, 121.800 157 C 123.340 157, 125.027 157.389, 125.550 157.865 C 126.072 158.341, 129.786 159.965, 133.802 161.473 C 140.769 164.089, 141.193 164.135, 143.027 162.476 C 144.084 161.519, 145.247 159.783, 145.612 158.618 C 145.977 157.453, 147.364 154.025, 148.695 151 C 150.025 147.975, 151.591 144.375, 152.174 143 C 152.756 141.625, 153.631 139.719, 154.117 138.764 C 154.603 137.809, 155 136.148, 155 135.073 C 155 133.998, 155.450 132.840, 156 132.500 C 157.554 131.540, 157.229 126, 155.619 126 C 154.860 126, 152.497 127.955, 150.369 130.344 M 72.688 154.646 C 71.216 156.117, 71.990 159.149, 73.750 158.810 C 74.713 158.624, 75.500 157.616, 75.500 156.570 C 75.500 154.580, 73.869 153.464, 72.688 154.646 M 113.887 169.750 C 113.303 171.262, 112.578 173.973, 112.277 175.774 C 111.977 177.575, 111.341 179.289, 110.865 179.583 C 110.389 179.877, 110 181.294, 110 182.730 C 110 184.167, 109.258 186.162, 108.352 187.164 C 106.901 188.767, 105.133 195.633, 104.661 201.500 C 104.431 204.354, 109.489 204.810, 112.354 202.193 C 113.534 201.116, 115.873 199.541, 117.552 198.694 C 123.115 195.886, 136 179.734, 136 175.568 C 136 173.037, 123.197 167.045, 117.725 167.015 C 115.616 167.004, 114.696 167.659, 113.887 169.750" stroke="none" fill="black" fill-rule="evenodd"/>
</svg>