<svg xmlns="http://www.w3.org/2000/svg" width="300" height="300" viewBox="0 0 300 300" version="1.1">
	<path d="M 143.975 20.565 C 142.653 24.044, 142.736 26.920, 144.606 42.253 L 146.211 55.422 142.856 58.353 C 141.010 59.964, 137.242 63.406, 134.482 66.001 C 131.722 68.595, 128.483 71.029, 127.284 71.410 C 125.371 72.017, 124.963 71.578, 123.951 67.816 C 123.316 65.459, 121.455 61.837, 119.814 59.766 C 117.448 56.777, 116.152 56, 113.538 56 C 111.727 56, 109.700 56.657, 109.034 57.459 C 107.436 59.385, 108.604 64.594, 111.507 68.490 C 115.101 73.312, 118.686 82.951, 120.994 94 C 121.626 97.025, 122.546 100.400, 123.038 101.500 C 123.530 102.600, 124.127 108.124, 124.365 113.775 C 124.817 124.512, 125.745 127, 129.301 127 C 130.433 127, 132.757 127.506, 134.467 128.124 C 137.161 129.099, 138.267 128.898, 142.755 126.624 C 149.681 123.115, 150.751 123.249, 151.698 127.750 C 152.536 131.732, 152.503 207.998, 151.641 261.659 C 151.357 279.346, 151.464 295.096, 151.880 296.659 C 152.574 299.272, 153.061 299.525, 157.937 299.806 L 163.238 300.113 162.426 288.806 C 161.445 275.148, 161.441 265.952, 162.388 191.500 C 162.816 157.862, 163.519 133.101, 164.063 132.550 C 164.578 132.027, 165 129.165, 165 126.190 C 165 120.841, 165.084 120.690, 172.360 112.955 L 179.720 105.131 179.776 98.316 C 179.806 94.567, 180.244 90.375, 180.749 89 C 182.577 84.021, 180.774 61.887, 178.378 59.899 C 177.620 59.270, 177 58.182, 177 57.481 C 177 53.495, 164.631 47.123, 159.427 48.429 C 158.160 48.747, 156.845 48.558, 156.505 48.008 C 156.165 47.458, 155.522 41.370, 155.075 34.478 C 154.174 20.591, 153.033 18, 147.820 18 C 145.660 18, 144.709 18.634, 143.975 20.565 M 159.576 61.195 C 158.526 62.694, 158.211 64.675, 158.582 67.445 C 159.764 76.258, 159.382 75.826, 165.744 75.546 C 172.142 75.264, 173.372 73.798, 170.570 69.796 C 169.706 68.563, 169 66.609, 169 65.452 C 169 63.007, 165.114 59, 162.742 59 C 161.846 59, 160.422 59.988, 159.576 61.195 M 74.500 65.605 C 69 68.536, 62.925 71.700, 61 72.635 C 59.075 73.570, 56.825 74.859, 56 75.500 C 55.175 76.140, 52.025 77.688, 49 78.939 C 45.975 80.189, 42.600 82.013, 41.500 82.992 C 40.400 83.970, 38.375 85.100, 37 85.503 C 31.370 87.155, 29.684 90.677, 32.560 94.782 C 33.768 96.507, 34.724 96.866, 36.810 96.375 C 38.289 96.027, 39.927 95.350, 40.450 94.871 C 40.972 94.392, 42.155 94, 43.078 94 C 44 94, 45.366 93.264, 46.113 92.363 C 47.228 91.020, 55.075 87, 56.583 87 C 57.541 87, 56.904 91.696, 55.796 92.804 C 54.546 94.054, 54.078 95.566, 49.543 113 C 48.041 118.775, 46.432 124.400, 45.968 125.500 C 44.382 129.258, 42 138.804, 42 141.404 C 42 142.832, 41.550 144, 41 144 C 40.450 144, 40 144.764, 40 145.698 C 40 149.759, 31.112 175.795, 28.820 178.450 C 28.369 178.973, 28 180.153, 28 181.073 C 28 183.907, 24.035 191.890, 20.796 195.580 C 18.107 198.643, 17.859 199.396, 18.837 201.543 C 19.956 203.999, 22.935 204.730, 26.401 203.399 C 28.296 202.673, 34.696 190.381, 36.710 183.604 C 37.510 180.911, 39.187 176.411, 40.437 173.604 C 46.003 161.107, 47.085 158.179, 48.013 153.114 C 48.556 150.151, 49 147.563, 49 147.364 C 49 147.164, 49.825 147, 50.834 147 C 51.935 147, 54.212 149.243, 56.537 152.618 C 58.665 155.708, 61.665 159.820, 63.203 161.755 C 64.741 163.691, 66 166.317, 66 167.590 C 66 168.864, 66.537 171.085, 67.194 172.527 C 68.120 174.559, 68.120 175.578, 67.194 177.061 C 65.530 179.725, 65.702 185.508, 67.489 186.991 C 69.639 188.776, 75.003 187.480, 78.363 184.364 C 79.926 182.915, 83.296 180.946, 85.853 179.989 C 91.485 177.879, 95.520 172.840, 93.940 169.888 C 93.384 168.850, 92.158 167.993, 91.215 167.985 C 90.272 167.976, 88.836 167.549, 88.024 167.036 C 86.764 166.239, 86.874 165.661, 88.774 163.092 C 89.998 161.436, 91 159.414, 91 158.600 C 91 157.785, 91.450 156.840, 92 156.500 C 92.550 156.160, 93 152.974, 93 149.419 L 93 142.956 88.264 139.952 C 81.782 135.842, 76.204 136.541, 70.751 142.146 C 65.950 147.081, 63.613 147.107, 61.335 142.250 C 60.367 140.188, 58.993 137.902, 58.281 137.172 C 54.959 133.764, 54.895 132.217, 57.620 121.262 C 59.093 115.343, 60.738 109.522, 61.277 108.327 C 61.815 107.132, 61.964 104.994, 61.609 103.577 C 61.253 102.160, 61.337 101, 61.796 101 C 62.971 101, 65.994 94.376, 66.032 91.716 C 66.049 90.497, 66.715 88.640, 67.510 87.588 C 68.316 86.524, 68.707 84.681, 68.393 83.430 C 67.904 81.480, 68.951 80.498, 76.321 75.994 C 80.991 73.141, 86.055 69.508, 87.575 67.922 C 90 65.390, 90.198 64.730, 89.191 62.519 C 88.538 61.087, 87.278 60.059, 86.271 60.137 C 85.297 60.213, 80 62.673, 74.500 65.605 M 145.007 68.988 C 144.386 70.147, 142.781 71.513, 141.439 72.023 C 139.989 72.574, 139 73.752, 139 74.927 C 139 76.014, 137.490 78.388, 135.644 80.202 C 130.885 84.879, 129.788 87.312, 131 90.500 C 131.550 91.946, 132 94.901, 132 97.065 C 132 101.500, 133.793 102.283, 136.750 99.140 C 145.774 89.548, 148.379 87, 149.161 87 C 149.663 87, 149.942 82.647, 149.785 77.263 C 149.545 69.074, 149.233 67.475, 147.817 67.203 C 146.892 67.025, 145.628 67.827, 145.007 68.988 M 165.750 86.459 C 163.411 89.278, 163 90.689, 163 95.887 C 163 101.200, 163.246 102, 164.878 102 C 165.910 102, 167.200 101.438, 167.743 100.750 C 169.062 99.081, 172.140 85.036, 171.436 83.897 C 170.422 82.256, 168.529 83.109, 165.750 86.459 M 145.123 106.375 C 140.520 111.065, 139.948 114.274, 143.622 114.801 C 144.796 114.970, 147.133 113.918, 148.915 112.418 C 151.567 110.186, 152.054 109.137, 151.802 106.194 C 151.636 104.247, 151.036 102.503, 150.469 102.317 C 149.901 102.131, 147.496 103.957, 145.123 106.375 M 74.250 151.944 C 71.651 154.112, 71.491 155.947, 73.419 161.500 C 75.165 166.531, 77.120 166.992, 78.816 162.773 C 79.540 160.973, 80.730 158.122, 81.460 156.437 C 83.932 150.740, 79.216 147.801, 74.250 151.944" stroke="none" fill="black" fill-rule="evenodd"/>
</svg>