<svg xmlns="http://www.w3.org/2000/svg" width="300" height="300" viewBox="0 0 300 300" version="1.1">
	<path d="M 162.500 53.189 C 158.650 54.254, 154.375 55.440, 153 55.825 C 149.229 56.881, 142.825 60.556, 139.876 63.356 C 136.570 66.495, 135.221 72.650, 137.369 74.798 C 138.721 76.149, 139.675 75.925, 146.278 72.705 C 150.345 70.722, 154.251 68.402, 154.959 67.550 C 155.666 66.697, 157.038 66, 158.008 66 C 158.978 66, 161.060 65.328, 162.636 64.506 C 164.211 63.685, 167.382 63.010, 169.682 63.006 C 173.160 63.001, 174.212 63.489, 175.932 65.904 C 177.069 67.502, 178 69.308, 178 69.918 C 178 70.528, 178.407 71.809, 178.903 72.764 C 180.014 74.898, 182 94.279, 182 102.985 C 182 115.511, 174.279 154.740, 170.697 160.417 C 169.974 161.563, 168.584 164.637, 167.608 167.250 C 166.466 170.308, 165.241 172, 164.167 172 C 162.460 172, 157 165.948, 157 164.056 C 157 163.479, 155.425 161.262, 153.500 159.132 C 150.708 156.041, 150 154.434, 150 151.188 C 150 148.949, 150.384 146.881, 150.853 146.591 C 151.322 146.301, 152.482 143.462, 153.430 140.282 C 154.377 137.102, 155.541 133.600, 156.014 132.500 C 156.488 131.400, 157.103 128.925, 157.380 127 C 157.656 125.075, 158.583 120.575, 159.439 117 C 160.295 113.425, 161.219 106, 161.493 100.500 C 161.768 95, 162.241 87.112, 162.545 82.971 C 163.066 75.885, 162.952 75.303, 160.605 73.098 C 157.352 70.042, 153.522 70.820, 152.509 74.741 C 152.117 76.259, 151.618 85.116, 151.399 94.425 C 151.181 103.734, 150.489 112.959, 149.862 114.925 C 149.234 116.891, 148.362 119.625, 147.923 121 C 147.484 122.375, 146.815 125.060, 146.435 126.967 C 146.056 128.874, 145.406 131.124, 144.991 131.967 C 143.866 134.252, 140.019 145.672, 138.073 152.500 C 137.133 155.800, 135.423 160.525, 134.273 163 C 133.123 165.475, 131.637 169.525, 130.971 172 C 129.646 176.922, 123.650 193.633, 121.408 198.651 C 120.633 200.384, 120 202.303, 120 202.915 C 120 203.527, 119.572 204.809, 119.049 205.764 C 118.526 206.719, 116.268 211.325, 114.031 216 C 111.794 220.675, 108.637 226.750, 107.015 229.500 C 105.393 232.250, 104.051 234.820, 104.033 235.211 C 103.956 236.868, 108.592 240, 111.120 240 C 114.365 240, 116.087 237.775, 121.179 227 C 128.096 212.362, 129.806 208.453, 131.018 204.500 C 131.693 202.300, 132.689 199.641, 133.231 198.591 C 133.772 197.541, 135.078 193.491, 136.131 189.591 C 137.185 185.691, 138.548 181.515, 139.160 180.310 C 139.773 179.106, 141.225 175.281, 142.387 171.810 C 144.059 166.816, 144.969 165.433, 146.750 165.180 C 148.702 164.903, 149 165.308, 149 168.238 C 149 171.962, 151.643 175.809, 158.970 182.750 C 163.803 187.328, 167.015 188.079, 170.708 185.492 C 173.173 183.766, 176 178.591, 176 175.807 C 176 174.769, 176.900 172.156, 178 170 C 179.100 167.844, 180 165.252, 180 164.240 C 180 163.228, 180.385 161.973, 180.855 161.450 C 182.219 159.935, 184.987 150.445, 185.579 145.256 C 185.877 142.640, 186.716 138.250, 187.445 135.500 C 190.025 125.757, 191.072 115.147, 191.053 98.924 C 191.030 78.844, 190.584 74.306, 187.876 66.556 C 184.302 56.325, 178.758 50.834, 172.300 51.127 C 170.760 51.196, 166.350 52.125, 162.500 53.189 M 75.250 59.726 C 74.563 59.968, 74 60.766, 74 61.499 C 74 62.232, 72.167 64.284, 69.927 66.058 C 64.532 70.331, 46.045 79.715, 41.279 80.600 C 39.201 80.986, 36.395 82.021, 35.044 82.901 C 33.693 83.780, 30.774 85.403, 28.557 86.507 C 23.717 88.915, 23.127 90.889, 26.199 94.400 L 28.500 97.030 36 94.021 C 40.125 92.366, 44.281 90.559, 45.236 90.006 C 48.580 88.069, 53.280 89.473, 50.077 91.452 C 49.569 91.766, 48.857 93.480, 48.495 95.261 C 47.832 98.520, 46.332 103.790, 45.011 107.500 C 44.619 108.600, 43.736 111.075, 43.048 113 C 42.360 114.925, 41.584 117.625, 41.323 119 C 40.805 121.731, 39.585 124.951, 37.407 129.331 C 36.633 130.888, 36 132.956, 36 133.926 C 36 135.814, 33.035 139, 31.278 139 C 29.721 139, 29 141.531, 29 146.992 C 29 150.807, 28.130 153.361, 24.854 159.160 C 19.652 168.367, 13.742 177.139, 11.469 179.026 C 10.512 179.820, 8.653 182.173, 7.339 184.255 C 5.446 187.253, 5.170 188.450, 6.010 190.019 C 7.267 192.367, 8.014 192.439, 12.346 190.629 C 15.029 189.508, 23 180.438, 23 178.506 C 23 178.237, 24.575 175.954, 26.500 173.432 C 28.425 170.910, 30 168.066, 30 167.112 C 30 166.158, 30.845 164.470, 31.878 163.362 C 32.910 162.253, 34.043 160.481, 34.394 159.423 C 35.752 155.336, 38.584 152.733, 40.880 153.462 C 43.310 154.233, 47.987 160.958, 48.022 163.730 C 48.070 167.549, 55.142 173, 60.049 173 C 62.299 173, 68 167.672, 68 165.569 C 68 164.898, 69.079 163.335, 70.398 162.096 C 72.980 159.670, 73.885 156.663, 74.663 147.922 C 75.106 142.952, 74.870 141.998, 72.491 139.172 C 70.391 136.676, 69.044 136, 66.172 136 C 60.794 136, 54.050 139.039, 53.351 141.776 C 52.465 145.247, 49.384 146.481, 46.433 144.548 C 43.662 142.733, 43.242 139.126, 45.404 135.715 C 46.176 134.497, 47.134 131.475, 47.532 129 C 47.930 126.525, 49.098 123.427, 50.128 122.115 C 51.158 120.803, 52 118.693, 52 117.424 C 52 116.156, 52.396 114.873, 52.881 114.574 C 53.365 114.274, 54.060 112.785, 54.425 111.265 C 56.370 103.171, 57.029 100.931, 59.305 94.674 C 60.671 90.919, 62.895 86.293, 64.247 84.393 C 66.524 81.193, 74.910 75, 76.967 75 C 78.681 75, 82 69.173, 82 66.164 C 82 63.994, 81.220 62.590, 79.250 61.211 C 77.737 60.152, 75.938 59.484, 75.250 59.726 M 98.459 66.066 C 98.097 66.653, 97.659 71.938, 97.486 77.811 C 97.219 86.851, 96.895 88.644, 95.372 89.495 C 94.382 90.048, 90.948 92.951, 87.741 95.946 C 81.976 101.329, 81.912 101.449, 82.205 106.426 C 82.470 110.945, 82.792 111.563, 85.344 112.457 C 87.934 113.363, 88.524 113.092, 91.944 109.425 C 94.010 107.211, 95.907 104.778, 96.160 104.019 C 96.442 103.174, 97.288 102.897, 98.347 103.303 C 100.295 104.050, 100.147 109.284, 97.397 136.897 C 96.115 149.765, 96.127 151.545, 97.505 153.647 C 99.743 157.064, 104.549 156.777, 109.803 152.913 C 112.145 151.191, 114 148.998, 114 147.950 C 114 146.918, 116.694 143.193, 119.988 139.672 C 129.441 129.567, 128.010 125.011, 117.592 132.043 C 115.066 133.747, 113 135.715, 113 136.416 C 113 137.953, 109.800 141, 108.185 141 C 107.328 141, 107.164 135.729, 107.556 120.750 C 108.330 91.100, 108.457 90.254, 112.371 88.618 C 119.452 85.660, 123.236 77.334, 119.171 73.655 C 115.838 70.639, 111 72.146, 111 76.200 C 111 77.333, 110.259 78, 109 78 C 107.271 78, 107 77.333, 107 73.071 C 107 69.924, 106.432 67.575, 105.429 66.571 C 103.636 64.779, 99.442 64.475, 98.459 66.066 M 58.174 151.314 C 55.779 153.864, 55.431 155.530, 57.081 156.550 C 58.347 157.333, 64 152.236, 64 150.313 C 64 148.204, 60.537 148.800, 58.174 151.314" stroke="none" fill="black" fill-rule="evenodd"/>
</svg>