<svg xmlns="http://www.w3.org/2000/svg" width="300" height="300" viewBox="0 0 300 300" version="1.1">
	<path d="M 134.250 37.505 C 131.269 39.636, 131.402 43.089, 134.580 46.075 C 137.237 48.572, 137.260 48.869, 135.462 57.557 C 135.027 59.659, 135.292 60.997, 136.308 61.841 C 137.538 62.862, 138.562 62.162, 142.394 57.676 C 146.816 52.499, 148.123 48.812, 146 47.500 C 145.450 47.160, 145 45.420, 145 43.632 C 145 41.845, 144.438 39.627, 143.750 38.705 C 141.896 36.216, 136.930 35.589, 134.250 37.505 M 168.572 57.028 C 166.411 58.663, 164.019 60, 163.256 60 C 162.493 60, 158.460 61.575, 154.294 63.500 C 150.127 65.425, 145.657 67, 144.360 67 C 143.062 67, 139.863 68.090, 137.251 69.423 C 134.638 70.756, 128.900 72.627, 124.500 73.580 C 105.895 77.613, 106.631 77.300, 105.748 81.549 C 104.586 87.142, 106.412 88.699, 112.176 87.026 C 114.554 86.336, 118.409 85.553, 120.743 85.286 C 125.840 84.702, 126.934 86.294, 124.572 90.860 C 123.708 92.532, 123 96.331, 123 99.302 C 123 108.230, 117.405 138.898, 113.535 151.186 C 110.581 160.565, 109.367 163.092, 106.956 164.874 C 103.777 167.225, 103.115 170.611, 105.188 173.929 C 106.113 175.411, 106.084 176.790, 105.058 180.166 C 103.596 184.977, 101.406 190.583, 99.952 193.236 C 99.428 194.191, 99 195.672, 99 196.527 C 99 198.165, 95.594 209.408, 93.554 214.500 C 92.894 216.150, 91.336 220.650, 90.093 224.500 C 88.850 228.350, 86.910 233.525, 85.781 236 C 84.652 238.475, 83.362 241.400, 82.914 242.500 C 79.662 250.486, 72.951 263.796, 71.617 264.903 C 70.728 265.641, 70 266.849, 70 267.587 C 70 269.173, 73.084 271, 75.760 271 C 77.689 271, 82 267.144, 82 265.418 C 82 264.893, 83.119 262.817, 84.488 260.803 C 85.856 258.790, 87.679 254.973, 88.538 252.321 C 90.358 246.705, 91.954 243.104, 93.555 241 C 95.071 239.008, 97.933 230.604, 99.004 225 C 99.477 222.525, 100.794 218.609, 101.932 216.298 C 103.069 213.987, 104 211.394, 104 210.535 C 104 209.676, 104.407 208.191, 104.905 207.236 C 105.402 206.281, 107.710 199.425, 110.033 192 C 112.355 184.575, 114.847 177.818, 115.570 176.985 C 116.292 176.152, 119.047 174.851, 121.692 174.094 C 124.336 173.336, 127.175 172.162, 128 171.486 C 129.401 170.337, 131.023 169.538, 140 165.583 C 141.925 164.734, 144.175 163.630, 145 163.129 C 152.197 158.757, 175.470 148.653, 181 147.499 C 182.925 147.098, 184.950 146.441, 185.500 146.040 C 186.050 145.639, 188.634 144.733, 191.243 144.027 C 194.969 143.019, 196.300 143.004, 197.449 143.958 C 200.467 146.463, 204.250 140.473, 203.131 134.961 C 201.891 128.852, 197.652 129.528, 176.500 139.205 C 170.450 141.973, 164.600 144.710, 163.500 145.287 C 158.285 148.023, 127.163 160.428, 122.750 161.530 C 120.145 162.181, 120 162.033, 120 158.731 C 120 156.814, 120.675 154.685, 121.500 154 C 122.325 153.315, 123 152.071, 123 151.235 C 123 150.400, 123.921 146.622, 125.047 142.841 C 126.862 136.748, 127.573 135.665, 131.297 133.330 C 133.609 131.880, 136.758 129.834, 138.297 128.783 C 142.612 125.834, 144.368 126.753, 145.173 132.381 C 145.603 135.383, 145.450 137.907, 144.774 138.990 C 143.914 140.367, 144.157 141.411, 145.908 143.871 C 147.134 145.592, 148.524 147, 148.998 147 C 149.472 147, 152.760 145.658, 156.304 144.018 C 164.911 140.034, 167.719 135.725, 164.777 131.014 C 163.745 129.362, 164.018 128.191, 166.527 123.514 C 168.162 120.465, 170.625 115.743, 172 113.019 C 173.905 109.246, 176.217 106.858, 181.707 102.995 C 193.252 94.872, 195.692 90.044, 189.699 87.180 C 187.057 85.918, 186.643 86.059, 182.381 89.671 C 172.469 98.071, 173.262 97.687, 169.864 95.737 C 166.569 93.846, 163.285 93.533, 161.120 94.905 C 159.752 95.771, 159.898 99.593, 161.437 103.176 C 161.939 104.345, 161.420 105.334, 159.719 106.448 C 156.543 108.529, 154.001 107.506, 153.996 104.143 C 153.991 100.582, 150.462 95, 148.215 95 C 144.889 95, 144 97.140, 144 105.152 L 144 112.904 137.854 116.506 C 134.474 118.487, 131.356 119.746, 130.925 119.304 C 130.495 118.862, 130.576 116.250, 131.105 113.500 C 131.635 110.750, 132.482 105.125, 132.989 101 C 133.496 96.875, 134.194 92.124, 134.540 90.443 C 134.986 88.281, 134.707 87.001, 133.585 86.071 C 132.713 85.347, 132 84.226, 132 83.578 C 132 82.340, 137.450 80, 140.335 80 C 141.265 80, 142.809 79.578, 143.764 79.062 C 147.966 76.791, 158.760 72.231, 161.500 71.569 C 163.150 71.170, 165.303 70.120, 166.285 69.236 C 167.267 68.351, 170.156 66.906, 172.706 66.025 C 175.255 65.144, 178.233 63.229, 179.323 61.769 C 181.199 59.256, 181.216 58.978, 179.629 56.557 C 177.372 53.112, 173.531 53.276, 168.572 57.028 M 75 91.115 C 70.875 93.349, 65.700 96.242, 63.500 97.544 C 59.032 100.187, 56.564 101.415, 50 104.258 C 37.275 109.771, 35.190 111.625, 36.161 116.564 C 36.818 119.904, 39.417 120.456, 44.110 118.253 C 50.384 115.308, 55.855 113.522, 56.531 114.198 C 56.851 114.518, 56.385 117.192, 55.496 120.140 C 54.607 123.088, 53.190 127.975, 52.346 131 C 49.547 141.043, 47.730 146.489, 46.860 147.450 C 46.387 147.972, 46 149.380, 46 150.578 C 46 151.775, 45.372 153.276, 44.605 153.913 C 43.837 154.550, 42.899 156.743, 42.520 158.786 C 42.141 160.829, 41.287 163.175, 40.622 164 C 39.958 164.825, 38.819 167.300, 38.092 169.500 C 36.475 174.393, 34.153 179.986, 32.902 182 C 32.390 182.825, 31.457 184.815, 30.828 186.422 C 30.199 188.029, 28.411 191.854, 26.855 194.922 C 25.299 197.990, 24.020 201.287, 24.013 202.250 C 24.006 203.213, 23.550 204, 23 204 C 22.450 204, 21.989 204.787, 21.975 205.750 C 21.961 206.713, 20.161 211.095, 17.975 215.489 C 15.789 219.883, 14 224.219, 14 225.124 C 14 226.029, 15.078 227.476, 16.396 228.340 C 18.362 229.628, 19.260 229.694, 21.398 228.705 C 22.831 228.042, 24.264 226.600, 24.582 225.500 C 24.901 224.400, 26.067 221.503, 27.174 219.062 C 28.281 216.622, 29.431 213.022, 29.729 211.062 C 30.345 207.010, 35.532 195.194, 41.168 185 C 42.537 182.525, 43.923 179.600, 44.249 178.500 C 45.865 173.051, 49.512 164.225, 51.067 162 C 52.027 160.625, 53.117 157.700, 53.488 155.500 C 53.858 153.300, 54.972 150.600, 55.961 149.500 C 56.951 148.400, 58.470 144.644, 59.338 141.154 C 60.205 137.663, 61.324 134.288, 61.823 133.654 C 62.323 133.019, 62.969 131.375, 63.260 130 C 63.551 128.625, 64.731 123.959, 65.883 119.632 C 67.036 115.304, 67.726 110.757, 67.417 109.527 C 66.952 107.674, 67.770 106.687, 72.178 103.777 C 75.105 101.845, 78.441 99.972, 79.592 99.615 C 84.440 98.110, 88.035 91.406, 85.686 88.250 C 84.296 86.383, 83.188 86.680, 75 91.115 M 168.711 161.101 C 160.834 163.766, 153.681 169.135, 149.385 175.608 C 147.415 178.575, 145.325 181.299, 144.741 181.660 C 144.156 182.021, 142.135 180.632, 140.247 178.573 C 136.436 174.414, 133.532 174.256, 131.168 178.081 C 129.965 180.027, 130.272 180.877, 134.341 186.868 C 139.977 195.165, 143 200.919, 143 203.349 C 143 204.382, 143.990 206.989, 145.199 209.141 C 147.308 212.894, 147.329 213.173, 145.699 215.932 C 141.015 223.862, 146.704 230.195, 153.907 225.066 C 155.400 224.003, 157.873 222.819, 159.402 222.435 C 162.501 221.657, 170.837 214.881, 172.715 211.614 C 173.383 210.451, 173.945 208.697, 173.965 207.716 C 173.984 206.735, 176.194 202.685, 178.876 198.716 C 185.889 188.339, 187.767 183.472, 187.813 175.559 C 187.859 167.580, 185.641 163.006, 180.555 160.593 C 176.436 158.639, 175.925 158.661, 168.711 161.101 M 168 171.985 C 165.483 172.979, 163.347 174.528, 163.154 175.500 C 162.933 176.608, 163.225 176.979, 163.961 176.524 C 166.032 175.244, 170.044 176.986, 171.037 179.597 C 171.738 181.441, 172.609 182.051, 174.211 181.819 C 177.318 181.370, 178.792 174.533, 176.361 171.847 C 174.382 169.660, 173.865 169.668, 168 171.985 M 154.005 178.894 C 152.605 179.283, 151.387 180.446, 151.230 181.544 C 151.076 182.620, 150.478 185.075, 149.901 187 C 149.169 189.442, 149.169 191.331, 149.901 193.250 C 151.061 196.291, 154 197.008, 154 194.250 C 154 193.287, 155.575 191.243, 157.500 189.707 C 160.559 187.267, 161 186.353, 161 182.457 C 161 177.647, 160.112 177.194, 154.005 178.894 M 58.937 184.656 L 53.960 189.311 51.426 186.931 C 49.055 184.703, 48.719 184.647, 46.196 186.057 C 44.452 187.031, 43.384 188.565, 43.172 190.399 C 42.904 192.724, 43.760 194.081, 47.922 197.928 C 52.009 201.705, 53 203.251, 53 205.851 C 53 210.067, 59.762 220, 62.632 220 C 64.575 220, 80.969 202.971, 81.655 200.240 C 81.984 198.928, 81.747 197.347, 81.127 196.727 C 80.507 196.107, 80 193.620, 80 191.200 C 80 187.529, 79.436 186.236, 76.600 183.400 C 73.710 180.510, 72.504 180, 68.557 180 C 64.411 180, 63.382 180.498, 58.937 184.656 M 63.557 196.223 C 61.432 199.256, 61.603 201, 64.025 201 C 65.282 201, 66.422 200.020, 67.032 198.416 C 68.731 193.947, 66.248 192.380, 63.557 196.223 M 153 200.918 C 153 206.102, 155.575 207.425, 159 204 C 162.269 200.731, 161.576 199, 157 199 C 153.724 199, 153 199.347, 153 200.918 M 136.937 238.707 C 134.427 241.343, 131.218 245.075, 129.806 247 C 128.395 248.925, 124.446 253.537, 121.031 257.250 C 116.249 262.449, 114.190 264, 112.066 264 C 108.867 264, 105.489 267.226, 106.347 269.463 C 106.672 270.308, 107.707 271, 108.648 271 C 109.588 271, 111.798 271.521, 113.557 272.157 C 117.853 273.710, 121.440 271.455, 130.556 261.472 C 134.375 257.290, 140.327 250.860, 143.782 247.184 C 148.990 241.643, 150.016 239.987, 149.782 237.500 C 149.525 234.771, 149.138 234.474, 145.500 234.207 C 141.865 233.941, 141.083 234.352, 136.937 238.707 M 182.250 239.645 C 177.594 240.667, 181.571 247, 186.869 247 C 188.781 247, 200.083 252.930, 203 255.464 C 203.825 256.181, 206.525 257.770, 209 258.996 C 211.475 260.222, 214.496 262.138, 215.713 263.252 C 218.117 265.454, 219.215 266.147, 226.674 270.172 C 229.397 271.642, 232.215 273.554, 232.935 274.422 C 233.656 275.290, 234.822 276, 235.528 276 C 236.233 276, 238.650 277.462, 240.898 279.250 C 249.538 286.121, 251.155 287.225, 256.980 290.229 C 262.814 293.238, 263.040 293.274, 264.992 291.508 C 266.096 290.508, 267 288.670, 267 287.423 C 267 284.725, 261.305 279.559, 254.327 275.928 C 248.930 273.119, 244.960 270.631, 230.632 261.079 C 225.205 257.460, 218.680 253.115, 216.132 251.423 C 203.703 243.166, 196.651 239.888, 190.515 239.516 C 187.207 239.316, 183.488 239.374, 182.250 239.645" stroke="none" fill="black" fill-rule="evenodd"/>
</svg>