<svg xmlns="http://www.w3.org/2000/svg" width="300" height="300" viewBox="0 0 300 300" version="1.1">
	<path d="M 177.168 7.690 C 176.435 7.982, 175 9.596, 173.978 11.276 C 172.341 13.968, 172.284 14.648, 173.494 16.987 C 176.089 22.007, 175.720 36.307, 172.796 44 C 171.682 46.929, 167.824 60.569, 166.855 65 C 164.815 74.329, 164.760 76.703, 166.520 79.391 C 168.584 82.540, 170.848 82.694, 174.368 79.925 C 176.727 78.069, 177.072 78.023, 177.634 79.489 C 177.980 80.390, 177.790 82.165, 177.212 83.433 C 176.634 84.702, 175.834 87.936, 175.434 90.620 C 175.034 93.304, 174.044 96.515, 173.235 97.755 C 172.204 99.335, 172.072 100.383, 172.793 101.255 C 173.360 101.940, 173.975 103.850, 174.162 105.500 C 174.450 108.059, 174.971 108.546, 177.708 108.810 C 180.056 109.037, 181.397 108.528, 182.708 106.910 C 186.618 102.086, 188.114 101, 190.847 101 C 192.754 101, 194.898 99.829, 197.347 97.452 C 200.315 94.569, 201 93.175, 201 90.020 C 201 86.874, 200.448 85.743, 198.096 84.068 C 193.950 81.116, 191.224 81.482, 187.435 85.500 C 185.620 87.425, 183.654 89, 183.067 89 C 181.215 89, 181.906 86.393, 184.500 83.595 C 185.875 82.111, 187 80.011, 187 78.929 C 187 77.846, 188.028 75.282, 189.285 73.230 C 192.928 67.284, 194 64.198, 194 59.653 C 194 54.695, 192.678 53, 188.813 53 C 186.648 53, 185.461 53.894, 183.500 57 C 181.172 60.688, 178 62.400, 178 59.968 C 178 59.064, 179.541 53.960, 182.989 43.440 C 184.879 37.674, 187.019 20.619, 185.983 19.583 C 185.442 19.042, 185 17.176, 185 15.435 C 185 12.122, 181.701 6.943, 179.677 7.079 C 179.030 7.122, 177.901 7.397, 177.168 7.690 M 137.540 13.678 C 134.467 16.801, 130.874 20.064, 129.557 20.928 C 128.240 21.793, 124.200 24.623, 120.579 27.218 C 113.473 32.310, 111 32.512, 111 27.999 C 111 26.303, 109.864 23.995, 108.099 22.106 C 103.411 17.087, 98.939 18.253, 98.434 24.626 C 98.235 27.126, 98.806 29.568, 100.064 31.604 C 101.643 34.159, 102 36.593, 102 44.809 C 102 50.349, 101.610 55.123, 101.133 55.418 C 100.656 55.713, 99.998 57.877, 99.670 60.227 C 98.946 65.433, 96.973 72.216, 93.485 81.500 C 92.039 85.350, 90.506 90.075, 90.079 92 C 89.651 93.925, 88.529 97.300, 87.584 99.500 C 85.276 104.871, 84.298 116.449, 85.979 118.475 C 87.688 120.534, 89.949 120.394, 92.436 118.074 C 93.571 117.015, 95.737 115.841, 97.250 115.466 C 99.577 114.888, 100 115.098, 100 116.833 C 100 117.960, 99.550 119.160, 99 119.500 C 98.450 119.840, 98 122.497, 98 125.404 C 98 129.255, 98.496 131.139, 99.829 132.345 C 102.637 134.886, 104.355 134.385, 109.883 129.415 L 114.982 124.830 120.139 125.936 C 124.445 126.860, 125.573 126.791, 126.977 125.521 C 129.230 123.482, 130.604 123.604, 133.060 126.060 C 135.116 128.116, 135.127 128.116, 138.310 126.153 C 140.065 125.071, 142.400 122.817, 143.500 121.144 C 147.222 115.483, 151.406 116.192, 148.971 122.070 C 148.200 123.932, 147.621 129.452, 147.577 135.376 L 147.500 145.500 138 151.290 C 129.735 156.327, 113.574 164.645, 107.500 166.989 C 106.400 167.413, 103.700 168.473, 101.500 169.343 C 99.300 170.213, 95.564 171.415, 93.199 172.015 C 90.833 172.614, 88.663 173.716, 88.376 174.462 C 87.716 176.183, 90.670 182, 92.205 182 C 93.728 182, 99.521 180.108, 104.500 177.984 C 106.700 177.046, 110.975 175.473, 114 174.488 C 117.025 173.504, 121.067 171.642, 122.982 170.349 C 124.897 169.057, 127.066 168, 127.802 168 C 129.492 168, 137.500 162.648, 141.684 158.723 C 146.972 153.762, 150.133 156.925, 146 163.040 C 144.900 164.668, 143.100 167.332, 142 168.960 C 140.900 170.587, 139.990 172.275, 139.978 172.710 C 139.966 173.144, 139.076 174.625, 138 176 C 136.924 177.375, 136.034 179.443, 136.022 180.595 C 136.010 181.747, 135.100 183.505, 134 184.500 C 132.900 185.495, 132 186.824, 132 187.452 C 132 189.163, 123.169 202.221, 111.821 217.287 C 107.538 222.973, 88.548 242.183, 85.809 243.599 C 84.319 244.369, 81.979 245, 80.609 245 C 77.564 245, 76.619 246.346, 77.420 249.539 C 78.069 252.122, 82.562 255, 85.947 255 C 87.088 255, 90.979 252.181, 94.747 248.625 C 98.461 245.118, 102.963 241.028, 104.750 239.536 C 106.537 238.043, 108 236.447, 108 235.988 C 108 235.529, 109.237 233.874, 110.750 232.309 C 122.168 220.499, 132.029 207.635, 137.954 196.818 C 139.064 194.793, 140.455 192.837, 141.046 192.472 C 142.145 191.792, 147.887 193.735, 148.140 194.871 C 149.015 198.802, 149.294 213.262, 149.115 245.409 C 149.046 257.911, 148.664 262.863, 147.652 264.409 C 146.898 265.559, 145.976 269.875, 145.602 274 C 145.030 280.324, 145.221 282.049, 146.823 285 C 148.855 288.745, 152.838 290.163, 154.692 287.801 C 156.669 285.283, 157.834 274.316, 157.983 256.810 C 158.084 244.948, 157.749 238.399, 156.965 236.935 C 156.103 235.324, 156.086 234.192, 156.899 232.625 C 157.538 231.394, 158.106 223.562, 158.251 214 L 158.500 197.500 161.500 197.687 C 166.308 197.987, 175.329 200.241, 177.473 201.678 C 178.557 202.405, 180.136 203, 180.980 203 C 181.825 203, 184.630 204.126, 187.214 205.501 C 189.799 206.877, 194.295 208.500, 197.206 209.108 C 200.118 209.716, 202.928 210.616, 203.450 211.107 C 203.973 211.598, 205.349 212, 206.509 212 C 207.669 212, 209.491 212.661, 210.559 213.468 C 211.626 214.276, 213.492 214.951, 214.705 214.968 C 215.918 214.986, 219.743 216.285, 223.205 217.857 C 226.667 219.428, 230.849 221.126, 232.498 221.630 C 234.218 222.156, 236.052 223.709, 236.802 225.273 C 237.709 227.164, 238.874 228, 240.604 228 C 241.977 228, 244.461 228.704, 246.126 229.565 C 248.875 230.987, 249.373 230.985, 251.560 229.552 C 252.885 228.685, 254.249 226.855, 254.593 225.486 C 255.709 221.038, 251.289 218.443, 226.500 208.995 C 214.990 204.608, 207.549 201.668, 202.500 199.510 C 197.300 197.288, 187.850 194.252, 177.500 191.480 C 172 190.007, 165.475 188.235, 163 187.543 L 158.500 186.285 158.337 177.393 C 158.248 172.502, 158.623 167.303, 159.171 165.841 C 159.865 163.990, 159.820 162.531, 159.023 161.043 C 157.600 158.385, 159.400 148.412, 161.788 145.718 C 162.656 144.738, 165.872 142.545, 168.934 140.844 C 171.995 139.143, 176.823 136.386, 179.661 134.718 C 186.899 130.465, 188.753 125.838, 185.116 121.107 C 182.602 117.838, 179.265 118.814, 175.469 123.926 C 172.473 127.960, 161.161 137, 159.109 137 C 157.966 137, 157.408 130.870, 157.856 123.224 C 158.082 119.344, 157.835 118.834, 155.185 117.720 L 152.265 116.492 155.147 110.537 C 157.873 104.905, 158.025 103.899, 157.949 92.041 C 157.857 77.617, 157.578 73.104, 156.651 71 C 156.288 70.175, 156.084 67.925, 156.197 66 C 156.311 64.075, 156.313 59.667, 156.202 56.205 C 156.035 51.011, 155.570 49.479, 153.545 47.455 C 150.077 43.986, 143.879 44.010, 141.592 47.500 C 138.646 51.996, 137.700 50.578, 138.222 42.448 C 138.634 36.024, 138.417 34.528, 136.766 32.429 C 134.830 29.969, 134.832 29.957, 137.163 27.961 C 138.448 26.860, 140.625 25.336, 142 24.575 C 145.884 22.424, 148.625 18.700, 149.276 14.687 C 149.765 11.671, 149.489 10.755, 147.713 9.511 C 144.422 7.206, 143.564 7.558, 137.540 13.678 M 120.500 39.377 C 116.481 42.241, 114.388 44.453, 114.162 46.076 C 113.977 47.409, 113.018 49.400, 112.031 50.500 C 110.295 52.436, 109.909 53.804, 108.080 64.500 C 107.610 67.250, 106.525 71.075, 105.669 73 C 103.524 77.827, 99.316 93.449, 99.784 94.852 C 100.385 96.656, 101.803 96.197, 102.510 93.969 C 103.431 91.066, 108.116 87, 110.540 87 C 113.871 87, 115.004 89.044, 114.942 94.950 C 114.904 98.631, 114.083 102.184, 112.505 105.500 C 110.523 109.663, 110.347 110.727, 111.453 111.854 C 112.500 112.923, 113.806 112.989, 117.640 112.170 C 121.926 111.253, 122.744 111.359, 124.564 113.065 C 128.210 116.481, 128.778 115.505, 129.406 104.750 C 130.014 94.343, 128.668 55.477, 127.471 48.903 C 127.056 46.622, 127.399 43.591, 128.408 40.618 C 129.284 38.040, 130 35.721, 130 35.465 C 130 33.908, 125.676 35.689, 120.500 39.377 M 143 62.264 C 143 62.409, 142.100 64.991, 141 68 C 139.900 71.009, 139 74.966, 139 76.793 C 139 80.083, 139.041 80.112, 143.250 79.807 L 147.500 79.500 147.803 73.031 C 148.194 64.705, 147.502 62, 144.981 62 C 143.891 62, 143 62.119, 143 62.264 M 60.492 77.630 C 57.746 79.077, 52.350 82.099, 48.500 84.347 C 38.039 90.453, 26.768 95.765, 22.624 96.543 C 18.310 97.352, 17.195 99.040, 17.371 104.500 L 17.500 108.500 22 108.204 C 26.654 107.898, 34.958 104.259, 43.301 98.870 C 45.941 97.164, 48.349 96.015, 48.651 96.317 C 49.484 97.150, 47.131 103.563, 44.998 106.276 C 43.954 107.602, 41.350 115.795, 39.177 124.588 C 37.015 133.340, 34.126 142.975, 32.758 146 C 21.202 171.547, 19.940 174.128, 12.059 188.305 C 11.202 189.848, 8.138 193.492, 5.250 196.403 C 2.362 199.314, 0 202.214, 0 202.848 C 0 204.504, 3.732 208, 5.501 208 C 8.967 208, 20.795 192.797, 26.085 181.543 C 27.233 179.100, 28.809 176.574, 29.586 175.928 C 30.364 175.283, 30.992 174.023, 30.983 173.128 C 30.956 170.575, 35.362 162.082, 36.736 162.039 C 37.416 162.017, 39.172 163.912, 40.639 166.250 C 42.106 168.588, 44.182 171.779, 45.252 173.343 C 47.192 176.178, 47.204 177.029, 45.428 185.789 C 44.675 189.508, 46.962 193, 50.152 193 C 52.177 193, 60 186.405, 60 184.698 C 60 184.110, 60.861 182.700, 61.913 181.564 C 65.215 178.002, 68.887 170.063, 70.111 163.843 C 71.537 156.592, 70.491 155.003, 63.853 154.347 C 59.967 153.963, 59.082 154.300, 55.602 157.492 C 53.457 159.459, 51.207 160.907, 50.602 160.712 C 49.996 160.516, 48.725 158.735, 47.778 156.754 C 46.831 154.773, 45.143 152.863, 44.028 152.509 C 41.740 151.783, 41.457 149.453, 43.155 145.315 C 46.312 137.625, 47.938 132.192, 47.967 129.236 C 47.985 127.441, 48.411 125.191, 48.913 124.236 C 50.167 121.853, 53.665 110.322, 54.521 105.750 C 54.907 103.688, 55.623 102, 56.111 102 C 56.600 102, 57 99.340, 57 96.089 L 57 90.178 61.750 88.017 C 70.027 84.249, 71.430 83.225, 72.188 80.389 C 73.749 74.552, 68.628 73.344, 60.492 77.630 M 140.655 94.829 C 138.854 96.819, 138.355 104.483, 139.962 105.476 C 141.222 106.255, 145 98.803, 145 95.540 C 145 92.544, 143.016 92.219, 140.655 94.829" stroke="none" fill="black" fill-rule="evenodd"/>
</svg>