<svg xmlns="http://www.w3.org/2000/svg" width="300" height="300" viewBox="0 0 300 300" version="1.1">
	<path d="M 150.610 33.474 C 148.470 34.237, 144.420 36.420, 141.610 38.325 C 138.799 40.230, 135.488 42.092, 134.250 42.462 C 133.012 42.832, 132 43.554, 132 44.067 C 132 44.580, 131.186 45, 130.191 45 C 129.196 45, 127.509 45.661, 126.441 46.468 C 125.374 47.276, 123.747 47.951, 122.827 47.968 C 121.906 47.986, 119.769 49.165, 118.077 50.589 C 113.284 54.622, 114.204 61, 119.578 61 C 120.775 61, 122.315 60.325, 123 59.500 C 123.685 58.675, 124.873 58, 125.641 58 C 126.910 58, 133.628 54.969, 140 51.521 C 141.375 50.777, 146.109 48.368, 150.520 46.167 C 154.931 43.966, 159.396 41.220, 160.441 40.065 C 162.319 37.990, 162.308 37.931, 159.483 34.983 C 156.253 31.611, 155.973 31.563, 150.610 33.474 M 61.675 77.806 C 60.514 79.090, 60.065 81.376, 60.126 85.703 C 60.210 91.653, 60.281 91.806, 63.231 92.396 C 67.626 93.275, 67.612 93.279, 71.465 89.896 C 74.359 87.356, 75 86.097, 75 82.953 C 75 80.119, 74.418 78.706, 72.777 77.557 C 69.725 75.418, 63.714 75.554, 61.675 77.806 M 142.500 78.953 C 138.695 80.864, 135.424 83.437, 133.558 85.984 C 131.940 88.193, 130.140 89.997, 129.558 89.994 C 128.976 89.990, 127.733 88.640, 126.797 86.994 C 123.537 81.266, 115.033 84.321, 116.437 90.715 C 116.782 92.282, 118.397 95.574, 120.027 98.032 C 121.658 100.489, 122.993 103.037, 122.996 103.693 C 122.998 104.349, 123.867 106.374, 124.927 108.193 C 125.986 110.012, 127.174 113.300, 127.565 115.500 C 127.957 117.700, 129.145 120.737, 130.206 122.249 C 131.904 124.670, 132.396 124.854, 134.317 123.793 C 135.518 123.130, 137.932 122.483, 139.681 122.355 C 141.431 122.227, 144.131 121.480, 145.681 120.695 C 147.232 119.910, 150.300 118.941, 152.500 118.542 C 158.711 117.415, 162 115.058, 162 111.732 C 162 109.480, 161.382 108.681, 159 107.850 C 155.452 106.613, 155.255 104.917, 158 99.236 C 159.100 96.959, 160 94.201, 160 93.107 C 160 92.013, 160.450 90.840, 161 90.500 C 161.550 90.160, 162 87.728, 162 85.096 C 162 79.049, 159.812 76.853, 153.260 76.323 C 149.464 76.016, 147.285 76.548, 142.500 78.953 M 139.849 91.750 C 137.311 93.813, 134.474 95.950, 133.545 96.500 C 132.097 97.358, 132.028 97.927, 133.066 100.500 C 133.731 102.150, 134.558 105.070, 134.903 106.989 C 135.311 109.259, 136.168 110.601, 137.354 110.830 C 139.313 111.207, 144 107.423, 144 105.465 C 144 104.813, 145.012 102.754, 146.250 100.890 C 149.066 96.648, 151.325 90.335, 150.504 89.006 C 149.165 86.840, 144.371 88.075, 139.849 91.750 M 52.302 112.864 C 49.111 115.540, 45.325 118.802, 43.888 120.114 C 42.452 121.426, 40.599 122.950, 39.770 123.500 C 38.942 124.050, 35.882 126.438, 32.971 128.806 C 28.076 132.788, 27.298 133.089, 22.612 132.806 L 17.546 132.500 16.599 136.900 C 15.738 140.901, 15.865 141.472, 17.991 143.193 C 20.895 145.546, 24.202 144.995, 32.500 140.777 C 38.358 137.799, 42.937 134.461, 48.011 129.470 C 53.591 123.981, 54.620 127.548, 49.693 135.298 C 47.873 138.159, 45.326 142.750, 44.032 145.500 C 42.738 148.250, 40.240 152.525, 38.480 155 C 36.721 157.475, 34.655 160.724, 33.891 162.220 C 30.727 168.409, 21.490 183.698, 19.326 186.327 C 18.047 187.881, 17 189.611, 17 190.171 C 17 190.731, 14.975 194.207, 12.500 197.896 C 7.788 204.919, 7.215 206.815, 9.200 208.800 C 12.316 211.916, 18.913 207.823, 22.234 200.712 C 23.187 198.670, 24.436 197, 25.009 197 C 25.581 197, 26.505 195.988, 27.062 194.750 C 29.178 190.050, 32.674 185.045, 35.263 183.008 C 37.570 181.193, 37.779 180.619, 36.742 178.958 C 35.431 176.860, 37.019 172.773, 41.611 166.425 C 42.834 164.733, 45.266 160.683, 47.015 157.425 C 48.764 154.166, 50.977 150.600, 51.933 149.500 C 52.889 148.400, 54.486 145.700, 55.483 143.500 C 56.480 141.300, 58.129 138.427, 59.148 137.115 C 60.166 135.803, 61 133.861, 61 132.798 C 61 131.736, 62.125 129.392, 63.500 127.589 C 64.923 125.724, 66 122.977, 66 121.215 C 66 119.512, 66.450 117.840, 67 117.500 C 68.624 116.496, 68.149 113.460, 65.927 110.635 C 62.711 106.546, 59.142 107.130, 52.302 112.864 M 164 142.868 C 158.996 144.584, 144.203 151.490, 136.347 155.779 C 132.363 157.953, 126 163.704, 126 165.130 C 126 165.725, 124.875 167.548, 123.500 169.182 C 120.939 172.226, 120.200 176.387, 122.020 177.513 C 122.582 177.860, 124.416 176.986, 126.097 175.572 C 127.778 174.157, 129.526 173, 129.982 173 C 130.438 173, 132.635 171.537, 134.865 169.750 C 140.216 165.461, 145.826 162, 147.428 162 C 148.381 162, 148.744 164.430, 148.818 171.317 L 148.919 180.634 144.981 183.567 C 133.443 192.159, 122.773 198.850, 121.430 198.335 C 120.779 198.085, 119.948 194.847, 119.582 191.138 C 119.217 187.430, 118.261 183.130, 117.459 181.583 C 116.657 180.037, 115.993 177.360, 115.985 175.636 C 115.967 171.904, 114.171 166.436, 111.749 162.740 C 110.787 161.272, 110 159.440, 110 158.670 C 110 156.241, 105.948 152, 103.627 152 C 97.280 152, 97.317 159.789, 103.715 170.230 C 104.972 172.282, 106 175.293, 106 176.921 C 106 178.550, 106.450 180.160, 107 180.500 C 107.550 180.840, 108 182.089, 108 183.276 C 108 184.462, 108.631 187.248, 109.403 189.467 C 111.192 194.611, 113.513 205.274, 115.068 215.500 C 116.378 224.113, 117.265 226, 120 226 C 123.305 226, 124.502 223.104, 124.276 215.646 C 124.027 207.388, 125.179 205.484, 131.020 204.497 C 133.134 204.140, 137.030 202.307, 139.678 200.424 C 142.327 198.541, 145.286 197, 146.256 197 C 147.806 197, 147.943 197.690, 147.393 202.750 C 147.050 205.912, 146.146 209.807, 145.385 211.404 C 144.623 213.001, 144 216.488, 144 219.154 C 144 223.618, 144.191 224, 146.427 224 C 149.395 224, 152.614 220.149, 154.024 214.912 C 154.591 212.807, 155.441 210.846, 155.913 210.554 C 156.385 210.262, 157.359 205.411, 158.078 199.774 C 159.511 188.530, 159.308 188.868, 168.954 181.634 C 173.695 178.078, 174.058 177.518, 173.479 174.634 C 172.337 168.939, 171.917 168.108, 169.844 167.450 C 168.275 166.953, 167.089 167.649, 164.822 170.399 C 160.388 175.779, 159 175.200, 159 167.969 C 159 163.530, 158.604 161.785, 157.500 161.362 C 155.258 160.501, 155.690 158.233, 158.250 157.423 C 159.488 157.032, 161.602 155.989, 162.949 155.106 C 166.960 152.476, 176.108 150.938, 178.500 152.492 C 187.693 158.463, 189.949 169.362, 185.554 186.570 C 184.721 189.832, 183.169 194.525, 182.105 197 C 181.041 199.475, 179.197 203.975, 178.008 207 C 176.820 210.025, 174.419 215.192, 172.673 218.481 L 169.500 224.463 163.546 224.694 C 160.272 224.822, 156.447 225.364, 155.046 225.899 C 153.646 226.433, 148.675 227.655, 144 228.613 C 134.251 230.612, 123.259 235.162, 122.330 237.584 C 121.344 240.151, 123.297 244.465, 125.595 244.797 C 126.725 244.960, 129.932 243.947, 132.720 242.547 C 135.509 241.146, 138.984 240, 140.444 240 C 141.903 240, 144.987 239.070, 147.298 237.933 C 151.646 235.793, 162 234.102, 162 235.531 C 162 235.977, 161.270 237.149, 160.379 238.134 C 158.435 240.282, 159.302 243.482, 161.590 242.604 C 162.456 242.272, 164.236 242, 165.547 242 C 166.858 242, 169.312 240.650, 171 239 C 174.676 235.407, 178.501 235.137, 184.859 238.022 C 190.701 240.673, 193.597 240.545, 195.560 237.549 C 198.645 232.840, 196.471 230.830, 184.510 227.333 C 180.588 226.187, 180.239 223.686, 183.418 219.519 C 184.838 217.657, 186 215.314, 186 214.313 C 186 213.312, 187.575 209.246, 189.500 205.278 C 191.425 201.310, 193 197.235, 193 196.223 C 193 195.211, 193.661 193.509, 194.468 192.441 C 195.276 191.374, 195.951 189.289, 195.968 187.809 C 195.986 186.329, 196.450 184.840, 197 184.500 C 197.572 184.147, 198 179.009, 198 172.500 C 198 165.991, 197.572 160.853, 197 160.500 C 196.450 160.160, 196 159.215, 196 158.400 C 196 155.555, 187.904 145.182, 184.172 143.246 C 179.699 140.925, 170.186 140.747, 164 142.868 M 44.734 174.600 C 44.404 174.930, 44.535 176.167, 45.026 177.350 C 46.314 180.455, 48 192.968, 48 199.418 C 48 204.190, 48.338 205.176, 50.451 206.560 C 53.681 208.676, 56.195 208.081, 57.753 204.830 C 58.652 202.953, 58.734 201.431, 58.034 199.590 C 57.492 198.163, 56.851 193.795, 56.611 189.885 C 56.371 185.974, 55.685 182.285, 55.087 181.687 C 54.489 181.089, 54 179.816, 54 178.857 C 54 175.733, 46.874 172.459, 44.734 174.600 M 66.035 175.934 C 64.265 179.241, 64.868 180.890, 68.750 183.368 C 70.813 184.684, 74.249 187.165, 76.388 188.881 C 81.217 192.756, 83.719 192.868, 85.087 189.270 C 85.658 187.769, 86.646 186.219, 87.283 185.825 C 88.027 185.366, 86.307 183.130, 82.470 179.570 C 76.993 174.488, 76.111 174.029, 71.785 174.015 C 68.138 174.003, 66.836 174.438, 66.035 175.934" stroke="none" fill="black" fill-rule="evenodd"/>
</svg>