<svg xmlns="http://www.w3.org/2000/svg" width="300" height="300" viewBox="0 0 300 300" version="1.1">
	<path d="M 131.253 15.250 C 130.707 15.938, 129.698 18.247, 129.009 20.382 C 127.818 24.076, 121.776 30.524, 100.530 50.770 C 91.316 59.550, 94.224 62.355, 104.323 54.428 C 107.525 51.914, 111.350 49.776, 112.823 49.678 C 115.828 49.478, 115.799 49.271, 114.460 61.288 C 113.732 67.818, 113.521 68.231, 108.881 72.200 C 98.797 80.823, 76.481 92.223, 66.500 93.848 C 63.048 94.411, 62.456 94.885, 62.178 97.310 C 61.522 103.029, 65.237 104.215, 75.457 101.553 C 78.512 100.758, 82.246 99.410, 83.755 98.560 C 85.265 97.709, 88.525 96.107, 91 94.999 C 97.530 92.077, 103.590 88.523, 107.152 85.526 C 113.898 79.849, 114.897 83.268, 112.990 105.500 C 111.793 119.453, 110.660 123, 107.404 123 C 105.299 123, 104.575 120.851, 104.469 114.282 C 104.361 107.672, 102.390 104, 98.949 104 C 97.272 104, 91 110.218, 91 111.879 C 91 112.325, 89.852 113.996, 88.449 115.594 C 87.046 117.193, 83.462 121.709, 80.483 125.630 C 77.253 129.884, 72.813 134.257, 69.477 136.472 C 65.169 139.331, 63.956 140.679, 64.192 142.342 C 64.456 144.191, 65.248 144.543, 69.719 144.801 C 74.840 145.097, 75.044 144.999, 80.469 139.659 C 83.511 136.666, 86 133.718, 86 133.108 C 86 132.499, 86.414 132, 86.920 132 C 87.426 132, 89.789 129.982, 92.170 127.517 C 94.552 125.051, 97.041 123.026, 97.703 123.017 C 98.365 123.007, 99.629 124.524, 100.514 126.387 C 101.704 128.897, 103.336 130.247, 106.810 131.599 C 109.390 132.603, 112.175 133.290, 113 133.125 C 118.596 132.011, 121.417 123.209, 122.496 103.500 C 122.858 96.900, 123.558 87.708, 124.052 83.073 C 124.859 75.505, 125.284 74.299, 128.225 71.234 C 131.682 67.633, 141.041 61, 142.666 61 C 144.277 61, 149 55.504, 149 53.630 C 149 50.275, 147.020 48, 144.102 48 C 141.178 48, 136.278 51.350, 131.112 56.881 C 129.509 58.596, 127.434 60, 126.501 60 C 125.022 60, 124.890 59.252, 125.478 54.186 C 126.019 49.529, 125.839 48.112, 124.577 47.064 C 123.709 46.344, 123.001 45.248, 123.003 44.628 C 123.004 44.007, 126.267 40.125, 130.254 36 C 134.241 31.875, 138.290 27.278, 139.251 25.785 C 141.518 22.267, 141.482 17.746, 139.171 15.655 C 137.012 13.701, 132.659 13.478, 131.253 15.250 M 90.667 61.667 C 89.516 62.817, 89.938 64, 91.500 64 C 92.325 64, 93 63.325, 93 62.500 C 93 60.938, 91.817 60.516, 90.667 61.667 M 149 110.003 C 138.803 110.558, 135.716 111.100, 132.245 112.945 C 129.905 114.189, 127.772 115.560, 127.506 115.990 C 126.464 117.676, 130.144 119.128, 136.892 119.694 C 142.440 120.159, 144.076 120.665, 144.517 122.053 C 145.655 125.639, 147.868 126.518, 151.327 124.758 C 153.072 123.870, 157.023 122.862, 160.106 122.518 C 164.755 121.999, 166.282 121.304, 169.048 118.451 L 172.383 115.009 169.505 112.005 C 167.614 110.032, 165.746 109.055, 164.063 109.161 C 162.653 109.249, 155.875 109.628, 149 110.003 M 106.500 157.098 C 103.750 158.667, 100.503 160.395, 99.283 160.938 C 98.064 161.481, 95.814 163.014, 94.283 164.345 C 92.753 165.676, 89.068 168.730, 86.095 171.132 C 79.147 176.746, 76.978 179.742, 76.323 184.628 C 75.930 187.561, 76.220 188.938, 77.446 189.955 C 78.900 191.162, 79.699 190.737, 84.087 186.415 C 89.707 180.879, 90.957 181.269, 90.985 188.566 C 91.025 199.268, 87.741 209.443, 78.916 225.956 C 77.312 228.957, 76 231.788, 76 232.247 C 76 232.706, 75.039 234.380, 73.865 235.968 C 71.433 239.259, 71.818 241.179, 75.379 243.513 C 77.234 244.728, 78.354 244.881, 79.786 244.115 C 80.842 243.550, 85.318 235.755, 89.733 226.794 C 98.835 208.320, 100.581 201.824, 101.584 182.713 L 102.202 170.927 108.182 167.908 C 112.903 165.525, 114.461 165.137, 115.581 166.067 C 117.264 167.464, 117.427 173.123, 115.925 178.007 C 113.138 187.070, 114.649 196.119, 119.191 197.560 C 121.463 198.282, 127.778 195.283, 129.071 192.868 C 129.621 191.839, 131.588 190.364, 133.440 189.590 C 135.292 188.816, 137.075 187.339, 137.402 186.308 C 137.730 185.276, 139.426 183.589, 141.171 182.558 C 142.917 181.527, 145.955 179.249, 147.922 177.497 C 153.469 172.556, 160.013 169.290, 165.573 168.686 C 170.272 168.177, 171.009 168.410, 175.573 171.853 C 179.243 174.622, 180.741 176.537, 181.444 179.358 C 182.709 184.432, 180.626 205.396, 178.541 208.578 C 177.693 209.871, 177 211.627, 177 212.478 C 177 213.330, 176.596 214.809, 176.101 215.764 C 175.607 216.719, 173.407 221.100, 171.213 225.500 C 169.019 229.900, 166.275 235.300, 165.116 237.500 C 163.957 239.700, 160.952 245.775, 158.438 251 C 149.343 269.902, 147.652 270.729, 141.764 259.159 C 136.714 249.234, 129.554 237.869, 126.610 235.104 C 123.666 232.338, 119.632 232.576, 119.208 235.540 C 119.047 236.662, 120.028 239.137, 121.387 241.040 C 124.822 245.851, 129 253.066, 129 254.188 C 129 254.702, 130.669 258.547, 132.710 262.731 C 137.390 272.329, 146.044 282, 149.953 282 C 152.884 282, 155.357 279.836, 156.420 276.340 C 156.782 275.152, 157.735 273.635, 158.539 272.968 C 159.342 272.301, 160 271.095, 160 270.289 C 160 268.271, 165.582 256.376, 166.917 255.552 C 167.512 255.183, 168 254.064, 168 253.063 C 168 252.063, 168.652 250.703, 169.450 250.042 C 170.247 249.380, 171.844 246.737, 172.999 244.169 C 175.003 239.712, 176.204 237.254, 178.822 232.250 C 181.488 227.157, 182 225.975, 182 224.918 C 182 224.308, 182.838 222.614, 183.861 221.154 C 184.885 219.694, 186.051 216.700, 186.451 214.500 C 186.851 212.300, 187.532 210.050, 187.964 209.500 C 188.396 208.950, 188.993 207.150, 189.292 205.500 C 189.591 203.850, 190.312 200.700, 190.894 198.500 C 192.649 191.866, 192.275 177.962, 190.234 173.961 C 187.595 168.790, 185.857 166.668, 182.103 164.037 C 178.976 161.844, 171.317 159.753, 166.500 159.778 C 161.032 159.805, 151.706 162.076, 149.250 163.977 C 147.737 165.148, 143.125 168.707, 139 171.885 C 134.875 175.064, 130.882 178.416, 130.128 179.333 C 129.373 180.250, 127.902 181, 126.859 181 C 125.296 181, 125.078 180.515, 125.621 178.250 C 125.984 176.738, 126.810 174.375, 127.458 173 C 129.911 167.788, 127.365 158.780, 122.546 155.622 C 118.814 153.177, 112.329 153.773, 106.500 157.098" stroke="none" fill="black" fill-rule="evenodd"/>
</svg>