<svg xmlns="http://www.w3.org/2000/svg" width="300" height="300" viewBox="0 0 300 300" version="1.1">
	<path d="M 138.359 65.024 C 135.686 67.237, 130.575 70.552, 127 72.391 C 123.425 74.229, 117.800 77.180, 114.500 78.948 C 107.030 82.950, 98.559 86, 94.915 86 C 91.322 86, 88.480 88.669, 90.054 90.565 C 90.711 91.356, 90.900 93.181, 90.509 94.959 C 89.777 98.294, 89.772 98.291, 96.612 98.026 C 100.481 97.875, 100.761 98.054, 101.362 101.058 C 102.363 106.067, 102.103 139.534, 100.984 149.500 C 99.960 158.624, 99.575 161.003, 95.999 180.311 C 93.793 192.217, 94.124 197.898, 97.185 200.668 C 99.047 202.352, 99.309 202.333, 103.315 200.211 C 105.617 198.992, 107.950 197.988, 108.500 197.980 C 109.050 197.972, 111.862 195.767, 114.750 193.080 C 118.281 189.795, 120 187.406, 120 185.785 C 120 184.459, 121.125 181.042, 122.500 178.192 C 123.875 175.342, 125 171.883, 125 170.505 C 125 166.841, 121.666 167.264, 119.130 171.250 C 117.993 173.037, 116.216 175.625, 115.182 177 C 114.148 178.375, 112.088 181.435, 110.604 183.799 C 106.039 191.075, 101.954 190.715, 104.522 183.263 C 105.806 179.536, 107.899 166.463, 109.849 150 C 110.496 144.530, 110.519 144.499, 114 144.400 C 118.803 144.263, 121.243 142.688, 130.500 133.750 C 134.900 129.502, 139.232 126.020, 140.128 126.013 C 142.096 125.997, 144.398 128.546, 143.593 129.850 C 143.274 130.365, 144.291 134.098, 145.853 138.144 C 147.415 142.190, 149.707 148.650, 150.947 152.500 C 154.471 163.446, 155.150 165.316, 156.622 168.154 C 157.380 169.614, 158 171.774, 158 172.954 C 158 174.134, 158.613 176.314, 159.362 177.800 C 160.111 179.285, 160.955 182.300, 161.236 184.500 C 161.518 186.700, 162.930 190.947, 164.374 193.937 C 165.818 196.928, 167 200.149, 167 201.095 C 167 202.041, 168.090 204.994, 169.423 207.658 C 170.755 210.321, 173.609 216.558, 175.764 221.518 C 177.919 226.478, 180.991 232.505, 182.591 234.911 C 184.191 237.317, 185.950 240.027, 186.500 240.932 C 187.050 241.838, 189.242 244.698, 191.370 247.289 C 196.477 253.504, 199.443 253.637, 204.378 247.872 C 206.822 245.017, 208.270 242.017, 209.073 238.147 C 210.412 231.697, 209.585 219.119, 207.519 214.519 C 206.773 212.859, 205.910 209.025, 205.600 206 C 204.397 194.249, 202.469 185.698, 200.781 184.633 C 199.854 184.049, 198.816 183.851, 198.473 184.194 C 198.130 184.537, 197.691 195.096, 197.498 207.658 C 197.305 220.221, 197.066 231.512, 196.967 232.750 C 196.562 237.842, 192.177 233.659, 187.796 224 C 186.923 222.075, 184.788 217.350, 183.051 213.500 C 181.315 209.650, 179.480 205.600, 178.974 204.500 C 177.732 201.799, 175.050 194.186, 174.044 190.500 C 173.593 188.850, 172.049 184.900, 170.612 181.721 C 169.175 178.543, 168 174.862, 168 173.541 C 168 172.220, 166.668 168.261, 165.040 164.744 C 163.411 161.226, 161.768 156.357, 161.388 153.924 C 161.007 151.491, 159.864 147.932, 158.848 146.015 C 157.832 144.098, 157 141.751, 157 140.799 C 157 139.847, 156.373 137.590, 155.608 135.784 C 153.659 131.187, 149.968 118.816, 149.986 116.938 C 149.993 116.079, 151.281 114.429, 152.846 113.272 C 158.068 109.411, 160.641 100.626, 157.720 96.632 C 155.838 94.058, 151.436 96.020, 149.683 100.215 C 148.405 103.273, 145.307 106.784, 144.672 105.893 C 142.423 102.731, 135.963 78.415, 137.161 77.620 C 140.788 75.212, 143.211 74, 144.397 74 C 146.063 74, 150 68.920, 150 66.770 C 150 65.141, 145.905 61, 144.294 61 C 143.702 61, 141.031 62.811, 138.359 65.024 M 64.720 72.613 C 64.324 73.009, 64 75.699, 64 78.590 C 64 83.126, 64.422 84.268, 67.077 86.923 C 68.769 88.615, 70.491 90, 70.903 90 C 71.314 90, 72.726 88.856, 74.040 87.458 C 76.058 85.309, 76.240 84.614, 75.214 82.971 C 74.546 81.902, 74 79.966, 74 78.669 C 74 77.371, 73.213 75.600, 72.250 74.733 C 70.161 72.850, 65.730 71.603, 64.720 72.613 M 119 87.871 C 114.167 91.228, 113.406 92.226, 112.724 96.096 C 111.551 102.754, 111.178 131.992, 112.257 132.659 C 112.770 132.976, 114.479 132.283, 116.055 131.118 C 117.630 129.953, 119.220 129, 119.588 129 C 120.255 129, 124.292 125.762, 132.237 118.854 L 136.431 115.208 134.776 109.854 C 133.866 106.909, 132.806 102.700, 132.419 100.500 C 132.032 98.300, 131.105 95.612, 130.358 94.527 C 129.611 93.443, 129 90.630, 129 88.277 C 129 84.501, 128.737 84.003, 126.750 84.025 C 125.513 84.039, 122.025 85.770, 119 87.871 M 62.872 108.255 C 58.777 110.789, 53.896 114.606, 47.122 120.569 C 42.040 125.042, 33.064 130.544, 32.889 129.292 C 32.828 128.856, 32.861 127.487, 32.961 126.250 C 33.068 124.922, 32.581 124, 31.772 124 C 29.944 124, 28.003 126.028, 27.989 127.950 C 27.983 128.802, 26.386 131.047, 24.440 132.939 C 21.659 135.641, 20.965 137.032, 21.201 139.439 C 21.496 142.463, 21.568 142.500, 27.193 142.477 C 31.468 142.461, 33.462 141.949, 35.193 140.425 C 36.462 139.309, 39.232 137.519, 41.349 136.448 C 43.467 135.377, 46.202 133.320, 47.428 131.877 C 49.474 129.470, 53.032 127, 54.453 127 C 55.735 127, 53.545 132.704, 50.997 136 C 49.509 137.925, 47.151 141.525, 45.757 144 C 44.362 146.475, 41.015 152.325, 38.318 157 C 35.622 161.675, 30.099 172.116, 26.046 180.203 C 19.843 192.577, 18.880 195.150, 19.961 196.453 C 21.683 198.528, 26.316 198.415, 28.267 196.250 C 29.134 195.287, 30.176 193.150, 30.581 191.500 C 30.986 189.850, 32.371 187.108, 33.659 185.406 C 34.946 183.704, 36 181.956, 36 181.523 C 36 180.621, 39.972 177, 40.962 177 C 42.606 177, 44.880 179.818, 45.941 183.170 C 47.584 188.360, 49.508 189.755, 51.962 187.534 C 53.021 186.576, 54.025 184.681, 54.194 183.324 C 54.362 181.967, 55.656 180.159, 57.069 179.306 C 59.541 177.815, 59.842 177.911, 65.069 181.874 C 68.056 184.139, 71.255 185.993, 72.179 185.996 C 76.838 186.008, 77.732 179.685, 73.698 175.250 C 72.089 173.481, 70.566 173, 66.572 173 C 62.382 173, 60.641 173.606, 56.618 176.466 C 52.751 179.216, 51.356 179.726, 49.871 178.931 C 48.842 178.380, 48 177.030, 48 175.931 C 48 174.707, 46.644 173.132, 44.500 171.867 C 40.465 169.487, 40.359 169.107, 42.827 165.885 C 43.832 164.573, 45.642 161.424, 46.850 158.887 C 49.423 153.482, 54.431 145.550, 57.511 142 C 58.705 140.625, 60.290 137.925, 61.034 136 C 61.778 134.075, 62.799 132.218, 63.302 131.874 C 64.421 131.109, 68.254 124.913, 70.958 119.500 C 72.057 117.300, 72.966 113.857, 72.978 111.848 C 72.997 108.642, 72.615 108.061, 69.851 107.098 C 68.119 106.494, 66.656 106.002, 66.601 106.005 C 66.545 106.008, 64.868 107.020, 62.872 108.255 M 129.803 211.498 C 118.558 215.246, 111.884 218.230, 110.194 220.266 C 109.301 221.342, 109.277 222.496, 110.098 224.852 C 111.515 228.915, 113.722 228.925, 122.638 224.909 C 132.217 220.593, 133.127 220.237, 136.402 219.521 C 139.167 218.916, 145 213.759, 145 211.920 C 145 211.442, 143.762 210.424, 142.250 209.658 C 139.753 208.393, 138.609 208.562, 129.803 211.498" stroke="none" fill="black" fill-rule="evenodd"/>
</svg>