<svg xmlns="http://www.w3.org/2000/svg" width="300" height="300" viewBox="0 0 300 300" version="1.1">
	<path d="M 147.946 77.600 C 143.242 82.513, 129.278 91.621, 121.773 94.670 C 118.379 96.050, 114.453 98.064, 113.051 99.147 C 111.648 100.229, 108.588 102.442, 106.250 104.064 C 102.836 106.432, 102 107.608, 102 110.038 C 102 113.799, 104.083 114.733, 108.725 113.055 C 112.929 111.535, 114.758 112.715, 113.075 115.861 C 112.403 117.116, 111.838 125.754, 111.645 137.718 C 111.469 148.598, 110.538 165.375, 109.575 175 C 107.319 197.557, 106.932 227.984, 108.872 230.336 C 112.017 234.148, 114.641 232.521, 129.612 217.472 C 137.562 209.482, 144.947 201.374, 146.025 199.455 C 148.591 194.886, 148.825 188.188, 146.540 184.701 C 145.566 183.215, 144.136 182, 143.360 182 C 141.828 182, 140 185.904, 140 189.176 C 140 191.666, 133.939 199.190, 124.634 208.250 C 116.346 216.320, 114.622 216.791, 115.484 210.750 C 115.817 208.412, 116.515 200.875, 117.035 194 C 117.996 181.291, 118.203 178.943, 120.073 159.500 C 121.419 145.505, 121.338 113.500, 119.949 110.906 C 118.712 108.593, 119.468 107.003, 121.809 106.993 C 122.739 106.990, 124.850 106.093, 126.500 105 C 131.897 101.426, 132.662 102.085, 133.438 110.983 C 133.821 115.373, 134.554 119.224, 135.067 119.542 C 135.580 119.859, 136.012 121.329, 136.026 122.809 C 136.040 124.289, 137.165 128.859, 138.526 132.965 C 141.652 142.397, 141.624 143.867, 138.250 147.582 C 122.867 164.515, 122.173 165.451, 122.727 168.509 C 123.387 172.153, 124.744 174, 126.762 174 C 128.562 174, 139.087 163.337, 142.749 157.803 C 146.003 152.885, 148.046 153.220, 150.086 159.004 C 150.958 161.477, 152.263 164.850, 152.986 166.500 C 154.295 169.486, 158.739 181.427, 161.732 190 C 162.597 192.475, 163.922 195.223, 164.677 196.107 C 165.433 196.990, 166.955 200.287, 168.061 203.433 C 169.167 206.579, 171.293 210.984, 172.786 213.223 C 175.512 217.312, 177.269 220.452, 186.650 238 C 199.769 262.538, 202.798 267.662, 206.843 272.166 C 209.231 274.824, 211.624 277, 212.159 277 C 212.695 277, 214.674 278.175, 216.557 279.611 C 220.880 282.908, 223.759 282.315, 227.549 277.347 L 230.355 273.668 230.326 254.563 C 230.298 237.083, 230.109 235.034, 228.094 230.479 C 226.490 226.853, 225.753 222.782, 225.382 215.500 C 224.319 194.605, 220.222 177.069, 216.686 178.283 C 215.374 178.734, 215.370 180.144, 216.629 197.500 C 217.473 209.132, 217.799 248.392, 217.119 256.500 C 216.934 258.700, 217.109 261.738, 217.508 263.250 C 218.468 266.890, 216.217 266.944, 212.639 263.366 C 209.974 260.701, 204.591 251.517, 203.411 247.622 C 203.057 246.455, 201.760 244.150, 200.528 242.500 C 199.296 240.850, 197.946 238.375, 197.528 237 C 197.110 235.625, 195.695 233.068, 194.384 231.317 C 193.073 229.566, 192 227.644, 192 227.047 C 192 226.449, 190.903 224.222, 189.562 222.098 C 188.221 219.974, 184.832 213.701, 182.031 208.158 C 179.230 202.615, 176.502 197.811, 175.969 197.481 C 175.436 197.152, 175 196.166, 175 195.291 C 175 194.415, 173.833 191.179, 172.406 188.100 C 158.650 158.410, 157.595 155.764, 155.542 145.795 C 154.706 141.740, 158.136 136.123, 166.045 128.597 C 169.870 124.956, 173 121.323, 173 120.524 C 173 117.958, 169.306 116.736, 166.231 118.284 C 154.490 124.196, 153.527 124.887, 152.728 127.970 C 151.149 134.062, 146 132.614, 146 126.078 C 146 124.055, 145.613 121.972, 145.141 121.450 C 143.903 120.080, 141.959 106.875, 142.622 104.338 C 143.036 102.755, 142.635 102.019, 141.091 101.529 C 139.151 100.913, 138.015 97, 139.777 97 C 141.050 97, 151.249 89.373, 154.742 85.808 C 158.421 82.055, 158.966 78.184, 156.171 75.655 C 153.463 73.204, 151.771 73.604, 147.946 77.600 M 71.255 77.218 C 67.327 79.113, 65.961 87.428, 68.418 94.487 C 70.713 101.084, 72.475 101.284, 77.585 95.527 C 82.339 90.173, 82.704 88.855, 80.500 85 C 79.714 83.625, 79.055 81.503, 79.035 80.285 C 79.016 79.067, 78.130 77.605, 77.066 77.035 C 74.748 75.795, 74.168 75.813, 71.255 77.218 M 57.500 128.217 C 50.511 132.661, 45.850 135, 43.983 135 C 43.106 135, 40.864 136.125, 39 137.500 C 37.136 138.875, 34.427 140, 32.980 140 C 27.363 140, 23.528 148.607, 28.064 151.034 C 29.359 151.727, 30.570 151.792, 31.314 151.207 C 31.966 150.695, 33.850 149.961, 35.500 149.576 C 37.150 149.191, 41.962 147.104, 46.193 144.938 C 54.187 140.846, 56 140.305, 56 142.011 C 56 144.060, 48.747 159.246, 46.454 162 C 44.270 164.622, 40 174.289, 40 176.610 C 40 177.840, 38.930 180.119, 37.623 181.673 C 36.315 183.228, 34.247 186.300, 33.027 188.500 C 28.282 197.056, 25.478 200.917, 23.284 201.916 C 22.028 202.489, 21 203.345, 21 203.819 C 21 204.294, 19.200 206.518, 17 208.762 C 13.892 211.933, 13 213.614, 13 216.299 C 13 221.031, 15.312 222.903, 18.747 220.952 C 20.152 220.153, 21.797 218.601, 22.401 217.503 C 23.006 216.405, 24.731 214.034, 26.236 212.235 C 27.740 210.436, 29.224 207.734, 29.533 206.232 C 30.178 203.091, 36.882 189.191, 38.120 188.426 C 38.574 188.145, 39.685 186.359, 40.587 184.458 C 42.249 180.956, 45.179 179.862, 46.626 182.204 C 47.035 182.866, 47.426 192.555, 47.496 203.737 C 47.615 222.985, 47.734 224.178, 49.728 226.172 C 50.886 227.330, 52.476 228.031, 53.261 227.730 C 55.572 226.843, 57.385 215.952, 56.504 208.245 C 56.081 204.535, 55.662 198.478, 55.574 194.785 C 55.450 189.583, 54.952 187.554, 53.368 185.785 C 49.448 181.404, 46.831 176.108, 47.518 173.943 C 47.882 172.796, 50.149 169.439, 52.556 166.485 C 54.962 163.530, 58.015 158.950, 59.341 156.306 C 69.501 136.038, 72 130.770, 72 129.622 C 72 127.434, 68.520 124.999, 65.421 125.019 C 63.815 125.029, 60.250 126.469, 57.500 128.217 M 65.250 190.648 C 63.365 191.577, 62 193.012, 62 194.066 C 62 195.065, 61.550 196.160, 61 196.500 C 59.498 197.428, 59.797 201, 61.378 201 C 62.135 201, 63.299 200.344, 63.965 199.542 C 65.725 197.421, 70.887 198.683, 74.548 202.130 C 78.389 205.747, 82.356 205.912, 84.561 202.547 C 86.050 200.275, 86.035 199.868, 84.359 197.031 C 81.913 192.890, 75.790 188.995, 71.771 189.023 C 69.972 189.035, 67.037 189.767, 65.250 190.648" stroke="none" fill="black" fill-rule="evenodd"/>
</svg>