<svg xmlns="http://www.w3.org/2000/svg" width="300" height="300" viewBox="0 0 300 300" version="1.1">
	<path d="M 96.776 30.592 C 95.820 32.691, 95.919 34.094, 97.298 37.976 C 99.904 45.313, 99.581 47.709, 95.750 49.452 C 87.398 53.252, 84.507 55.595, 84.187 58.825 C 83.737 63.371, 87.276 64.907, 92.960 62.633 C 95.204 61.735, 97.481 61, 98.020 61 C 99.368 61, 99.251 65.316, 97.811 68.703 C 96.511 71.763, 89.177 78.996, 87.372 78.999 C 86.752 78.999, 85.680 79.680, 84.990 80.512 C 84.300 81.343, 81.770 82.893, 79.368 83.955 C 74.518 86.101, 73.897 88.098, 76.944 91.750 C 79.098 94.332, 81.653 94.577, 84.441 92.468 C 86.288 91.071, 90 90.430, 90 91.507 C 90 91.786, 88.910 94.149, 87.579 96.757 C 86.247 99.366, 84.925 102.251, 84.641 103.169 C 84.357 104.087, 81.059 106.292, 77.312 108.070 C 73.566 109.847, 69.427 112.133, 68.115 113.150 C 66.803 114.168, 64.241 115, 62.421 115 C 57.667 115, 54.022 118.507, 53.731 123.359 C 53.383 129.173, 55.466 129.985, 62.236 126.673 C 65.241 125.203, 67.972 124, 68.305 124 C 68.639 124, 70.569 122.875, 72.595 121.500 C 74.621 120.125, 76.666 119, 77.140 119 C 78.502 119, 78.139 122.639, 76.654 123.872 C 75.914 124.486, 74.512 126.904, 73.537 129.244 C 72.563 131.585, 70.743 135.750, 69.493 138.500 C 68.242 141.250, 66.321 145.525, 65.224 148 C 64.127 150.475, 61.554 156.100, 59.508 160.500 C 57.461 164.900, 54.950 170.525, 53.927 173 C 47.468 188.637, 35.841 207, 32.398 207 C 31.590 207, 29.884 206.315, 28.606 205.477 C 25.348 203.343, 23.552 205.491, 24.745 210.096 C 25.840 214.321, 29.637 215.770, 34.987 214.004 C 41.829 211.746, 51.970 199.293, 56.977 187 C 57.537 185.625, 58.446 183.713, 58.998 182.750 C 59.549 181.788, 60.451 180.213, 61.002 179.250 C 61.554 178.287, 62.464 176.375, 63.026 175 C 64.004 172.603, 65.421 169.459, 70.460 158.500 C 75.473 147.598, 76.935 144.107, 77.605 141.437 C 77.989 139.906, 80.790 133.669, 83.829 127.577 C 89.593 116.021, 97.867 106.097, 103.060 104.509 C 104.402 104.099, 106.175 103.207, 107 102.527 C 108.622 101.190, 115.667 97.497, 123.244 94.010 C 125.854 92.809, 128.206 91.475, 128.472 91.045 C 128.738 90.615, 130.653 89.990, 132.728 89.656 C 134.803 89.322, 138.212 87.635, 140.305 85.907 C 143.413 83.339, 144.053 82.210, 143.805 79.733 C 143.423 75.938, 140.737 73.999, 138.250 75.724 C 137.287 76.391, 132 79.197, 126.500 81.958 C 121 84.720, 114.475 88.173, 112 89.631 C 100.576 96.363, 98 97.351, 98 95 C 98 94.450, 98.653 94, 99.451 94 C 100.249 94, 102.574 90.963, 104.618 87.250 C 106.662 83.538, 109.890 78.339, 111.791 75.697 L 115.249 70.893 113.124 68.632 C 110.965 66.334, 110.252 61.580, 111.913 60.554 C 112.415 60.243, 113.127 58.205, 113.496 56.024 C 113.864 53.843, 115.090 50.885, 116.218 49.449 C 118.269 46.843, 118.269 46.837, 116.287 44.170 C 115.195 42.701, 113.135 41.360, 111.709 41.189 C 109.756 40.955, 108.833 40.023, 107.972 37.414 C 106.462 32.840, 102.307 28, 99.890 28 C 98.781 28, 97.454 29.104, 96.776 30.592 M 111.523 112.746 C 105.743 115.765, 108.355 122.552, 114.980 121.727 C 116.993 121.476, 120.467 122.051, 123.096 123.069 C 125.624 124.048, 131.474 125.407, 136.096 126.088 C 140.718 126.769, 145.715 127.928, 147.200 128.663 C 148.686 129.398, 150.735 130, 151.755 130 C 152.774 130, 155.737 131.350, 158.339 133 C 160.941 134.650, 163.841 135.998, 164.785 135.996 C 167.685 135.990, 173 132.167, 173 130.087 C 173 127.638, 169.118 124.547, 163.692 122.675 C 157.498 120.539, 145.933 117.141, 142.500 116.449 C 140.850 116.116, 138.600 115.475, 137.500 115.024 C 128.400 111.291, 116.335 110.233, 111.523 112.746 M 105.500 142.520 C 102.750 144.349, 98.329 147.514, 95.675 149.555 C 91.490 152.772, 90.935 153.612, 91.496 155.882 C 92.502 159.962, 93.524 160.459, 98.091 159.091 C 100.801 158.279, 102.586 158.186, 103.225 158.825 C 103.763 159.363, 105.068 163.026, 106.124 166.965 C 107.966 173.832, 107.972 174.219, 106.273 176.357 C 101.267 182.654, 92.010 189.320, 77.702 196.934 C 73.203 199.327, 71.481 199.792, 70.017 199.009 C 67.366 197.591, 67.233 197.650, 65.500 201 C 64.109 203.690, 64.106 204.304, 65.467 206.937 C 66.302 208.552, 67.450 210.160, 68.017 210.510 C 69.227 211.258, 76.803 208.530, 82.500 205.295 C 84.700 204.046, 87.232 203.019, 88.128 203.012 C 89.023 203.005, 90.366 202.264, 91.113 201.364 C 91.860 200.464, 94.277 198.632, 96.485 197.293 C 98.693 195.954, 102.137 193.032, 104.138 190.801 C 106.139 188.569, 108.210 187.012, 108.742 187.340 C 109.279 187.673, 109.589 191.823, 109.440 196.690 C 109.185 204.973, 109.040 205.487, 106.730 206.257 C 104.243 207.086, 102 210.685, 102 213.847 C 102 214.811, 101.498 216.102, 100.884 216.716 C 100.270 217.330, 99.258 218.741, 98.634 219.852 C 93.539 228.927, 90.008 234.311, 84.904 240.784 C 77.832 249.753, 64.384 264, 62.990 264 C 61.483 264, 61.808 260.719, 63.562 258.215 C 64.979 256.192, 64.978 255.929, 63.551 255.381 C 62.586 255.011, 60.314 256.141, 57.678 258.301 C 49.803 264.753, 49.194 272.980, 56.317 276.664 C 58.721 277.907, 59.733 277.946, 62.353 276.897 C 67.582 274.803, 79.056 264.425, 85.500 255.961 C 87.700 253.072, 92.313 247.434, 95.750 243.433 C 99.188 239.432, 102.012 235.785, 102.027 235.329 C 102.042 234.873, 103.364 232.925, 104.965 231 C 107.274 228.224, 108.133 227.754, 109.118 228.730 C 110.046 229.649, 110.085 230.532, 109.270 232.230 C 107.339 236.255, 106.946 238.229, 107.846 239.377 C 108.717 240.488, 110.310 271.626, 110.435 290 L 110.500 299.500 114.859 299.813 L 119.218 300.126 118.970 274.313 C 118.635 239.478, 118.510 241.180, 121.500 239.818 C 124.197 238.589, 133.740 239.756, 143.500 242.507 C 146.250 243.283, 149.850 244.141, 151.500 244.415 C 155.645 245.104, 166.179 247.515, 168 248.192 C 172.242 249.769, 187.926 254.252, 190.795 254.707 C 193.105 255.073, 194.674 254.700, 196.045 253.460 C 200.905 249.061, 196.032 244.027, 184.500 241.536 C 180.100 240.585, 171.325 238.328, 165 236.519 C 149.922 232.208, 137.444 229.749, 127.139 229.060 L 118.777 228.500 118.915 205.500 C 118.991 192.850, 119.307 181.088, 119.617 179.362 C 120.032 177.048, 123.045 173.432, 131.090 165.592 C 142.608 154.367, 143.855 151.989, 140.040 148.536 C 137.118 145.891, 133.705 147.276, 129.664 152.747 C 120.684 164.905, 114.184 168.118, 115.293 159.850 C 115.577 157.733, 115.402 155.749, 114.905 155.441 C 113.298 154.448, 113.943 150.361, 116 148.500 C 117.100 147.505, 118 146.357, 118 145.951 C 118 144.836, 112.323 138.986, 111.349 139.097 C 110.882 139.151, 108.250 140.691, 105.500 142.520" stroke="none" fill="black" fill-rule="evenodd"/>
</svg>