<svg xmlns="http://www.w3.org/2000/svg" width="300" height="300" viewBox="0 0 300 300" version="1.1">
	<path d="M 148.001 25.421 C 148.001 25.928, 147.248 27.173, 146.329 28.189 C 144.528 30.179, 141.767 37.077, 139.109 46.228 C 138.193 49.378, 136.895 52.505, 136.222 53.178 C 135.550 53.850, 135 55.155, 135 56.078 C 135 57, 134.325 58.315, 133.500 59 C 132.675 59.685, 132 61.288, 132 62.563 C 132 63.839, 131.550 65.160, 131 65.500 C 130.450 65.840, 130 66.936, 130 67.937 C 130 68.937, 129.327 70.314, 128.505 70.996 C 127.682 71.679, 126.479 74.096, 125.832 76.369 C 125.185 78.641, 124.092 81.175, 123.404 82 C 122.716 82.825, 121.226 85.975, 120.094 89 C 118.962 92.025, 116.290 97.875, 114.157 102 C 104.600 120.475, 100.944 127.276, 99.214 129.796 C 98.192 131.283, 96.104 134.945, 94.573 137.933 C 93.042 140.921, 91.017 144.521, 90.073 145.933 C 89.129 147.345, 85.914 152.204, 82.928 156.731 C 79.943 161.258, 77.211 164.970, 76.857 164.981 C 75.402 165.024, 75.104 161.569, 75.971 154.728 C 76.507 150.502, 76.532 143.669, 76.031 138.328 C 74.952 126.823, 76.232 120, 79.469 120 C 80.212 120, 82.661 118.795, 84.910 117.322 C 89.115 114.569, 90.179 111.579, 87.800 109.200 C 86.304 107.704, 80.771 107.629, 79.315 109.085 C 78.719 109.681, 77.171 110.019, 75.876 109.835 C 73.852 109.547, 73.412 108.739, 72.745 104.084 C 72.318 101.104, 71.471 98.067, 70.862 97.334 C 69.040 95.139, 65.204 95.759, 63.380 98.543 C 61.408 101.552, 61.113 111.227, 62.927 113.411 C 63.830 114.500, 63.857 115.399, 63.034 116.936 C 62.427 118.071, 61.563 119, 61.114 119 C 60.665 119, 57.419 121.151, 53.899 123.781 C 46.262 129.487, 31.802 137, 28.457 137 C 27.094 137, 25.611 136.142, 25 135 C 23.457 132.117, 21.253 132.536, 19.069 136.127 C 17.055 139.438, 17.245 145.729, 19.405 147.293 C 21.622 148.898, 32.458 146.907, 39 143.693 C 45.896 140.305, 56.836 133.190, 61.010 129.378 C 62.391 128.117, 64.006 127.404, 64.600 127.793 C 65.193 128.182, 66.237 131.378, 66.919 134.896 C 68.640 143.780, 66.537 169.954, 64.090 170.085 C 63.216 170.132, 60.098 170.098, 57.163 170.009 C 53.375 169.894, 51.283 170.339, 49.954 171.542 C 48.763 172.619, 47.223 173.022, 45.729 172.647 C 42.131 171.744, 36 173.764, 36 175.853 C 36 176.820, 34.875 179.136, 33.500 181 C 32.125 182.864, 31 184.793, 31 185.287 C 31 185.780, 30.100 187.329, 29 188.727 C 25.265 193.475, 27.347 201, 32.395 201 C 34.719 201, 40.769 196.304, 41.528 193.911 C 42.427 191.080, 46 191.419, 46 194.335 C 46 197.178, 49.886 209.300, 51.026 210.011 C 51.476 210.292, 53.117 212.992, 54.672 216.011 C 56.922 220.378, 58.058 221.564, 60.227 221.814 C 62.788 222.109, 67.899 219.419, 67.969 217.739 C 67.986 217.321, 68.917 215.027, 70.038 212.642 C 71.893 208.697, 72.314 205.507, 72.872 191.219 C 73.055 186.527, 75.440 186.065, 79.444 189.946 C 81.918 192.344, 83.483 193.073, 85.628 192.828 C 89.754 192.357, 89.926 188.957, 86.072 184.090 C 84.382 181.957, 83 179.545, 83 178.729 C 83 177.913, 82.325 176.685, 81.500 176 C 79.251 174.133, 79.700 172.761, 83.462 170 C 85.335 168.625, 87.122 166.825, 87.432 166 C 87.958 164.598, 91.032 160.050, 94.497 155.547 C 95.324 154.472, 96 152.991, 96 152.255 C 96 151.519, 96.953 149.923, 98.118 148.708 C 99.282 147.494, 100.909 144.925, 101.732 143 C 102.555 141.075, 104.025 138.375, 104.999 137 C 106.718 134.573, 111.458 126.296, 113.160 122.750 C 113.622 121.788, 114.379 120.213, 114.841 119.250 C 115.304 118.288, 117.192 114.800, 119.038 111.500 C 120.884 108.200, 123.647 103.250, 125.179 100.500 C 126.710 97.750, 127.972 94.574, 127.982 93.441 C 127.992 92.309, 128.634 90.515, 129.409 89.456 C 130.792 87.563, 130.888 87.569, 134.795 89.765 C 136.982 90.994, 139.748 92, 140.941 92 C 142.134 92, 145.766 93.804, 149.013 96.009 C 152.260 98.214, 156.173 100.494, 157.708 101.075 C 159.244 101.657, 161.400 102.952, 162.500 103.952 C 163.600 104.952, 165.588 106.101, 166.917 106.505 C 169.434 107.271, 181.640 116.109, 193.250 125.571 C 199.392 130.577, 201.699 134, 198.930 134 C 198.342 134, 198.005 134.956, 198.180 136.124 C 198.404 137.607, 199.940 138.811, 203.279 140.118 L 208.057 141.989 212.029 139.482 C 214.213 138.103, 215.998 136.193, 215.996 135.237 C 215.992 133.474, 199.956 117, 198.243 117 C 197.730 117, 196.453 116.042, 195.405 114.870 C 194.357 113.699, 191.925 111.683, 190 110.391 C 188.075 109.098, 183.575 106.018, 180 103.546 C 168.547 95.625, 162.610 91.752, 158 89.192 C 146.596 82.861, 145.811 82.596, 139.228 82.839 C 135.712 82.969, 133.032 82.720, 133.272 82.287 C 133.512 81.854, 134.930 78.800, 136.423 75.500 C 137.916 72.200, 140.232 67.321, 141.569 64.658 C 142.906 61.994, 144 59.003, 144 58.009 C 144 57.016, 145.350 53.637, 147 50.500 C 148.650 47.363, 150 44.228, 150 43.533 C 150 42.838, 150.900 41.126, 152 39.727 C 153.100 38.329, 154 36.537, 154 35.746 C 154 34.955, 154.706 32.891, 155.570 31.161 C 156.436 29.424, 156.851 27.107, 156.496 25.988 C 155.973 24.339, 155.125 24.012, 151.928 24.231 C 149.769 24.379, 148.002 24.915, 148.001 25.421 M 74.801 64.114 C 72.160 66.926, 69.976 69.739, 69.946 70.364 C 69.916 70.989, 68.122 73.975, 65.959 77 C 63.796 80.025, 61.300 84.075, 60.413 86 C 59.526 87.925, 58.076 90.315, 57.190 91.311 C 55.792 92.883, 55.772 93.244, 57.040 94.046 C 57.843 94.554, 58.885 94.976, 59.357 94.985 C 60.556 95.006, 75 80.879, 75 79.684 C 75 79.146, 76.502 76.860, 78.337 74.603 C 82.413 69.592, 85.325 61.725, 83.704 60.104 C 81.659 58.059, 79.625 58.976, 74.801 64.114 M 140.500 104.873 C 136.426 105.737, 135.938 109.818, 139.309 114.838 C 140.661 116.852, 142.032 120.601, 142.354 123.169 C 142.924 127.715, 142.841 127.899, 139.220 130.132 C 137.174 131.393, 133.429 133.342, 130.898 134.463 C 124.838 137.146, 123 138.776, 123 141.467 C 123 143.555, 125.746 147, 127.410 147 C 127.825 147, 130.851 145.425, 134.135 143.500 C 137.420 141.575, 140.930 140, 141.936 140 C 143.566 140, 143.642 140.357, 142.632 143.295 C 142.009 145.107, 140.712 147.791, 139.749 149.260 C 138.787 150.728, 138 152.308, 138 152.771 C 138 153.233, 136.855 155.161, 135.456 157.056 C 131.835 161.959, 127.759 170.929, 128.396 172.591 C 129.589 175.698, 133.898 173.381, 138.225 167.305 C 139.476 165.547, 141.895 162.172, 143.601 159.805 C 147.348 154.603, 152 146.330, 152 144.869 C 152 144.286, 152.834 142.614, 153.854 141.154 C 157.906 135.354, 157.472 129.813, 152.776 127.384 C 150.143 126.023, 149.876 125.475, 150.422 122.563 C 151.272 118.036, 149.212 108.969, 146.716 106.250 C 145.581 105.013, 144.392 104.053, 144.076 104.118 C 143.759 104.183, 142.150 104.523, 140.500 104.873 M 54.354 174.692 C 53.174 174.923, 51.415 175.988, 50.446 177.060 C 48.859 178.813, 48.809 179.583, 49.950 184.754 C 51.514 191.850, 54.135 200.180, 55.202 201.450 C 55.641 201.973, 56 203.570, 56 205 C 56 209.426, 60.035 211.805, 61.514 208.250 C 62.604 205.628, 64.103 193.684, 64.651 183.250 L 65.137 174 60.819 174.136 C 58.443 174.211, 55.534 174.461, 54.354 174.692 M 180 180.598 C 174.775 181.369, 169.719 182.450, 168.764 183 C 166.004 184.589, 161.270 184.172, 155.912 181.867 C 151.139 179.813, 150.878 179.800, 148.976 181.522 C 147.889 182.505, 147.002 184.478, 147.005 185.905 C 147.010 188.643, 152.153 195, 154.364 195 C 155.750 195, 161 200.104, 161 201.452 C 161 201.915, 162.490 204.140, 164.311 206.397 C 166.132 208.654, 168.216 211.974, 168.943 213.776 C 170.108 216.664, 170.054 217.283, 168.492 219.009 C 166.313 221.417, 163.662 220.934, 156 216.734 C 152.568 214.852, 148.504 211.327, 145.191 207.359 C 142.272 203.862, 139.324 201, 138.641 201 C 136.497 201, 135 203.281, 135 206.550 C 135 214.800, 150.432 227.653, 162.389 229.363 C 174.378 231.078, 184.666 222.798, 179.649 215.473 C 178.906 214.388, 178.013 212.322, 177.664 210.883 C 177.314 209.444, 175.447 205.967, 173.514 203.157 C 171.581 200.347, 170 197.373, 170 196.547 C 170 194.547, 173.403 192.553, 179.500 190.980 C 182.250 190.270, 185.073 189.246, 185.773 188.703 C 187.527 187.344, 206.708 188.686, 210.500 190.433 C 212.150 191.194, 215.525 192.600, 218 193.558 C 225.376 196.413, 230.745 199.013, 233.194 200.917 C 234.462 201.903, 237.181 203.257, 239.236 203.928 C 241.291 204.598, 243.230 205.563, 243.545 206.073 C 245.191 208.736, 253 203.652, 253 199.918 C 253 197.312, 250.084 194.179, 246.747 193.200 C 244.961 192.676, 241.475 191.654, 239 190.929 C 236.525 190.204, 233.427 188.799, 232.115 187.806 C 230.803 186.813, 228.997 186, 228.100 186 C 227.204 186, 224.701 185.051, 222.538 183.892 C 217.933 181.424, 204.065 178.967, 195.500 179.102 C 192.200 179.154, 185.225 179.827, 180 180.598 M 100.883 197.106 C 98.657 197.933, 98.173 198.855, 97.638 203.289 C 96.417 213.423, 95.123 216.196, 88.914 222 C 84.156 226.446, 83.144 227.931, 83.631 229.750 C 84.125 231.596, 84.934 232, 88.138 232 C 91.527 232, 92.733 231.301, 97.271 226.707 C 105.684 218.191, 107.248 215.194, 108.597 205 C 109.112 201.105, 107.240 196.620, 104.975 196.326 C 104.164 196.221, 102.322 196.572, 100.883 197.106" stroke="none" fill="black" fill-rule="evenodd"/>
</svg>