<svg xmlns="http://www.w3.org/2000/svg" width="300" height="300" viewBox="0 0 300 300" version="1.1">
	<path d="M 102.653 3.010 C 100.514 6.631, 100.999 8.715, 104.087 9.172 C 107.863 9.732, 112.131 16.171, 113.382 23.194 C 114.413 28.978, 114.730 29.526, 117.218 29.813 C 119.483 30.075, 120.036 29.662, 120.569 27.313 C 120.920 25.766, 121.538 23.150, 121.941 21.500 C 122.380 19.705, 122.180 17.295, 121.444 15.500 C 120.767 13.850, 119.374 9.800, 118.349 6.500 L 116.484 0.500 110.482 0.209 C 104.707 -0.072, 104.411 0.034, 102.653 3.010 M 125.925 29.384 C 108.324 38.544, 95.307 44.733, 90 46.464 C 73.516 51.843, 71.566 52.895, 71.199 56.616 C 70.717 61.505, 72.522 62.200, 81.080 60.421 C 85.161 59.573, 88.927 58.457, 89.450 57.940 C 89.972 57.423, 91.605 57, 93.078 57 C 94.550 57, 96.315 56.325, 97 55.500 C 97.685 54.675, 99.113 54, 100.174 54 C 102.344 54, 113.822 48.328, 121.717 43.354 C 124.586 41.546, 129.190 38.924, 131.949 37.526 C 134.707 36.128, 137.699 33.863, 138.597 32.492 C 140.108 30.186, 140.108 29.813, 138.592 27.500 C 137.691 26.125, 136.368 25, 135.652 25 C 134.935 25, 130.558 26.973, 125.925 29.384 M 122.197 50.750 C 121.716 51.712, 120.536 55.200, 119.575 58.500 C 116.207 70.053, 113.746 77.507, 113.043 78.283 C 111.928 79.514, 108.999 77.962, 109.005 76.143 C 109.009 74.632, 106.954 67.682, 104.895 62.250 C 103.984 59.844, 101.125 59.275, 99.269 61.131 C 97.655 62.745, 98.767 75.306, 101.098 81.788 C 102.144 84.696, 103 87.686, 103 88.433 C 103 89.179, 100.975 91.934, 98.500 94.554 C 96.025 97.174, 94 99.703, 94 100.173 C 94 101.358, 87.752 106.935, 86.385 106.971 C 85.772 106.987, 84.169 107.866, 82.824 108.924 C 81.479 109.981, 77.481 111.575, 73.940 112.465 C 68.315 113.878, 61.141 116.295, 54.500 119.014 C 53.400 119.464, 51.600 120.066, 50.500 120.351 C 38.560 123.442, 35.576 127.071, 40.382 132.658 C 42.869 135.549, 43.321 135.520, 49 132.115 C 49.825 131.621, 53.200 130.480, 56.500 129.581 C 68.732 126.249, 70.598 125.708, 75 124.215 C 77.475 123.376, 82.344 121.409, 85.820 119.845 C 89.296 118.280, 92.446 116.998, 92.820 116.996 C 93.194 116.994, 95.714 115.869, 98.419 114.496 C 101.125 113.123, 104.136 112, 105.110 112 C 106.085 112, 107.129 111.600, 107.432 111.111 C 107.734 110.622, 109.223 109.915, 110.741 109.541 C 113.097 108.960, 117.190 107.343, 127.500 102.919 C 135.228 99.602, 145.364 96, 146.967 96 C 148.020 96, 149.185 95.510, 149.556 94.910 C 149.960 94.256, 151.572 94.072, 153.587 94.450 C 155.758 94.858, 157.992 94.538, 159.909 93.547 C 161.539 92.704, 163.519 92.262, 164.308 92.565 C 166.002 93.215, 168.440 90.984, 170.602 86.803 C 172.077 83.950, 172.038 83.668, 169.828 81.299 C 167.727 79.045, 166.979 78.862, 162.164 79.419 C 159.229 79.760, 155.629 80.653, 154.164 81.405 C 152.699 82.157, 148.886 83.310, 145.692 83.969 C 142.497 84.627, 136.772 86.704, 132.970 88.583 C 129.167 90.462, 125.480 92.014, 124.778 92.031 C 124.075 92.048, 121.700 93.171, 119.500 94.526 C 115.604 96.926, 111.977 97.762, 112.022 96.250 C 112.034 95.838, 112.924 94.375, 114 93 C 115.076 91.625, 115.966 89.948, 115.978 89.273 C 115.990 88.598, 117.125 87.309, 118.500 86.408 C 119.875 85.507, 121 83.991, 121 83.040 C 121 82.088, 121.872 80.521, 122.938 79.556 C 124.004 78.591, 125.620 75.259, 126.528 72.151 C 127.437 69.043, 128.775 64.700, 129.501 62.500 C 132.103 54.618, 132.267 51.214, 130.101 50.054 C 127.095 48.445, 123.175 48.790, 122.197 50.750 M 126.357 123.408 C 122.978 124.075, 117.216 126.096, 113.553 127.899 C 108.302 130.484, 106.274 132.164, 103.965 135.839 C 102.355 138.403, 101.029 141.512, 101.019 142.750 C 100.993 145.844, 98.741 145.589, 94.693 142.035 C 90.492 138.347, 86.592 136.813, 83.431 137.607 C 81.467 138.100, 81 138.855, 81 141.537 C 81 144.950, 83.115 148, 85.481 148 C 89.437 148, 101.585 165.411, 100.374 169.344 C 100.010 170.525, 100.745 172.168, 102.420 173.917 L 105.035 176.646 100.018 181.198 C 94.526 186.180, 93.410 190.078, 96.934 191.965 C 100.351 193.793, 102.367 193.082, 109.076 187.681 C 114.996 182.914, 117.566 181.455, 123.273 179.616 C 124.248 179.302, 125.293 178.248, 125.596 177.273 C 125.898 176.298, 126.563 174.719, 127.073 173.764 C 127.583 172.809, 128 171.523, 128 170.908 C 128 170.292, 129.012 168.530, 130.250 166.993 C 137.462 158.030, 140 153.933, 140 151.254 C 140 150.419, 140.890 148.296, 141.977 146.537 C 143.177 144.596, 144.211 140.579, 144.606 136.328 C 145.211 129.816, 145.089 129.156, 142.879 127.041 C 140.574 124.835, 134.873 121.899, 133.282 122.098 C 132.852 122.152, 129.736 122.741, 126.357 123.408 M 124.500 134.745 C 116.115 137.350, 111.115 140.030, 108.939 143.086 C 107.621 144.937, 105.977 146, 104.432 146 C 101.589 146, 101.385 147.132, 103.615 150.535 C 105.632 153.614, 107.278 153.636, 111.317 150.636 C 117.440 146.090, 126.529 141.669, 129.926 141.585 C 132.841 141.513, 133.469 141.062, 134.140 138.560 C 135.019 135.283, 133.729 132.943, 131.128 133.096 C 130.232 133.148, 127.250 133.890, 124.500 134.745 M 215.667 156.667 C 214.347 157.987, 215.038 162.779, 216.888 165.131 C 220.587 169.834, 224.044 185.380, 224.108 197.600 C 224.168 209.169, 221.488 224.249, 218.966 226.531 C 217.842 227.548, 214.237 228.537, 209.806 229.044 C 205.788 229.504, 200.025 230.453, 197 231.153 C 193.511 231.960, 183.821 232.439, 170.500 232.463 C 150.942 232.497, 148.966 232.332, 141.724 230.051 C 135.214 228, 133.695 227.105, 132.396 224.551 C 130.375 220.575, 129.001 206.026, 129.733 196.346 C 130.238 189.663, 130.079 188.531, 128.465 187.350 C 126.008 185.554, 121.548 185.634, 119.998 187.502 C 117.353 190.690, 119.329 222.635, 122.596 229.500 C 123.751 231.927, 125.773 234.136, 127.738 235.118 C 129.519 236.007, 131.544 237.188, 132.238 237.742 C 132.932 238.296, 134.850 239.003, 136.500 239.313 C 138.150 239.623, 143.550 240.797, 148.500 241.921 C 156.734 243.791, 158.819 243.880, 173 242.963 C 198.857 241.292, 201.156 241.116, 211 240.057 C 216.225 239.495, 220.864 239.027, 221.310 239.017 C 221.755 239.008, 224.568 236.684, 227.561 233.854 C 233.511 228.226, 234.407 226.020, 235.451 214.413 C 235.912 209.292, 235.492 203.744, 233.937 194.413 C 231.765 181.376, 231.036 178.969, 226.241 169 C 220.805 157.696, 217.958 154.375, 215.667 156.667 M 119.450 158.879 C 118.927 159.363, 116.700 160.328, 114.500 161.024 C 109.509 162.603, 109.073 163.279, 110.369 167.421 L 111.412 170.753 115.179 168.790 C 118.955 166.822, 125 160.775, 125 158.965 C 125 157.758, 120.733 157.692, 119.450 158.879 M 87.848 207.079 C 84.716 210.423, 81.439 214.663, 80.566 216.503 C 77.037 223.940, 66.957 234.894, 58.864 240.087 C 54.401 242.951, 54 243.532, 54 247.136 C 54 251.871, 55.560 252.748, 61.057 251.101 C 63.731 250.300, 67.614 247.336, 73.357 241.715 C 81.127 234.110, 89 224.859, 89 223.336 C 89 222.980, 90.237 221.073, 91.750 219.098 C 99.538 208.930, 101.025 204.154, 97.066 202.035 C 94.131 200.465, 93.955 200.561, 87.848 207.079" stroke="none" fill="black" fill-rule="evenodd"/>
</svg>