<svg xmlns="http://www.w3.org/2000/svg" width="300" height="300" viewBox="0 0 300 300" version="1.1">
	<path d="M 111 13.105 C 108.525 14.779, 104.370 18.404, 101.766 21.162 C 99.162 23.921, 96.519 26.006, 95.893 25.798 C 95.266 25.589, 93.721 23.488, 92.459 21.129 C 87.987 12.768, 85.229 11.195, 82.458 15.424 C 81.007 17.639, 81.007 18.113, 82.462 20.927 C 85.141 26.107, 83.651 36.233, 79.245 42.799 C 74.789 49.439, 72.181 49.583, 70.365 43.289 C 69.133 39.021, 64.471 31.466, 61.597 29.081 C 59.130 27.033, 55.687 28.601, 53.667 32.692 L 51.835 36.403 56.399 40.452 C 59.133 42.877, 62.195 47.028, 64.037 50.805 C 67.152 57.195, 70.142 61, 72.048 61 C 72.624 61, 74.203 59.804, 75.558 58.343 C 76.912 56.882, 78.311 55.978, 78.668 56.334 C 79.024 56.690, 78.310 60.248, 77.082 64.241 C 71.959 80.890, 70.696 86.928, 72.003 88.504 C 72.686 89.327, 74.057 90, 75.050 90 C 77.207 90, 80.800 85.699, 81.660 82.088 C 81.999 80.664, 82.607 79.050, 83.012 78.500 C 83.417 77.950, 84.003 76.150, 84.314 74.500 C 85.691 67.189, 86.313 64.838, 89.802 53.756 C 91.896 47.108, 94.037 42.010, 94.737 42.006 C 96.889 41.995, 99.166 49.205, 99.740 57.848 C 100.176 64.415, 100.760 66.762, 102.477 68.848 C 103.677 70.307, 104.947 72.287, 105.298 73.250 C 106.171 75.642, 110.062 75.469, 114.693 72.833 C 120.652 69.440, 121.953 67.278, 121.978 60.719 C 121.995 56.275, 121.622 54.792, 120.364 54.309 C 118.211 53.483, 115.810 55.053, 114.195 58.342 C 111.633 63.562, 108 60.142, 108 52.511 C 108 48.899, 106.530 40.882, 104.720 34.628 C 103.624 30.843, 103.688 30.674, 107.539 27.145 C 110.948 24.021, 111.527 23.785, 111.837 25.392 C 112.034 26.414, 111.439 29.653, 110.516 32.589 C 109.592 35.525, 109.125 38.393, 109.477 38.963 C 110.508 40.631, 114.004 40.156, 114.727 38.250 C 115.092 37.288, 116.663 35.150, 118.218 33.500 C 119.774 31.850, 121.323 29.375, 121.661 28 C 121.999 26.625, 122.663 25.005, 123.137 24.399 C 123.610 23.794, 124.285 21.198, 124.637 18.631 C 125.835 9.890, 119.533 7.337, 111 13.105 M 120.282 77.599 C 118.316 78.481, 112 87.605, 112 89.563 C 112 90.550, 111.470 92.823, 110.823 94.613 C 109.892 97.187, 109.918 98.196, 110.945 99.434 C 112.835 101.710, 115.754 101.355, 116.567 98.750 C 116.954 97.513, 117.546 96.275, 117.885 96 C 118.223 95.725, 119.190 94.153, 120.034 92.507 C 120.878 90.861, 122.386 89.357, 123.385 89.164 C 125.078 88.838, 125.152 89.479, 124.486 98.657 C 123.677 109.810, 122.513 112, 117.396 112 C 114.836 112, 113.534 112.745, 111.551 115.344 C 107.008 121.300, 108.871 125.678, 115.424 124.448 L 119 123.777 119 128.209 C 119 131.832, 118.358 133.390, 115.483 136.748 C 111.480 141.426, 101.489 148.417, 96.713 149.884 C 89.835 151.996, 85.140 153, 82.134 153 C 79.045 153, 79 152.929, 79 148.059 C 79 145.341, 79.450 142.840, 80 142.500 C 80.550 142.160, 81 140.978, 81 139.874 C 81 138.770, 82.125 136.392, 83.500 134.589 C 84.875 132.786, 86 130.560, 86 129.642 C 86 128.724, 86.521 127.139, 87.158 126.119 C 90.492 120.780, 83.581 119.096, 78.900 124.107 C 77.304 125.815, 75.388 126.979, 74.642 126.693 C 73.897 126.407, 72.539 123.195, 71.624 119.556 C 69.747 112.081, 70.318 109.921, 74.782 107.613 C 76.279 106.838, 78.361 105.259, 79.407 104.102 C 80.454 102.946, 81.900 102, 82.620 102 C 83.341 102, 85.521 100.603, 87.465 98.896 C 92.525 94.454, 92.136 90.355, 86.492 88.632 C 85.065 88.196, 83.337 89.039, 80.523 91.543 C 78.344 93.481, 74.523 96.243, 72.031 97.680 C 69.539 99.117, 65.250 102.164, 62.500 104.451 C 59.750 106.739, 56.038 109.628, 54.250 110.873 C 48.099 115.156, 50.793 123.550, 57.500 121 C 61.219 119.586, 62 119.740, 62 121.886 C 62 122.923, 62.618 124.963, 63.374 126.420 C 64.130 127.876, 65.759 133.440, 66.995 138.784 C 69.952 151.566, 70.855 153.859, 73.653 155.692 C 75.228 156.724, 76 158.190, 76 160.146 C 76 161.819, 76.641 163.309, 77.503 163.639 C 79.766 164.508, 92.069 161.925, 95.618 159.836 C 97.333 158.826, 99.626 158, 100.713 158 C 101.800 158, 105.347 156.307, 108.595 154.238 C 111.843 152.169, 115.840 150.024, 117.479 149.471 C 119.117 148.919, 120.977 147.424, 121.613 146.149 C 122.248 144.875, 123.270 143.330, 123.884 142.716 C 124.498 142.102, 125 140.915, 125 140.078 C 125 138.098, 128.765 125.362, 130.491 121.500 C 132.306 117.442, 133.500 105.844, 133.500 92.285 C 133.499 83.207, 133.186 80.757, 131.853 79.424 C 130.204 77.775, 122.572 76.571, 120.282 77.599 M 129.174 145.750 C 127.324 149.359, 126.979 153.205, 128.140 157.288 C 128.798 159.605, 129.711 161.928, 130.169 162.450 C 130.626 162.972, 131.013 164.772, 131.029 166.450 C 131.045 168.127, 131.980 172.650, 133.107 176.500 C 134.234 180.350, 135.398 184.743, 135.693 186.262 C 135.989 187.781, 136.629 189.271, 137.115 189.571 C 137.602 189.872, 138.003 191.104, 138.006 192.309 C 138.010 193.514, 138.685 195.789, 139.506 197.364 C 140.328 198.940, 141 200.701, 141 201.279 C 141 202.355, 147.273 216.303, 148.970 219 C 149.489 219.825, 151.007 222.806, 152.344 225.625 C 153.681 228.443, 157.075 234.645, 159.887 239.405 C 162.699 244.166, 165 248.700, 165 249.481 C 165 250.262, 165.564 251.260, 166.253 251.700 C 167.433 252.454, 170.289 256.523, 174.607 263.603 C 175.648 265.310, 178.300 269.312, 180.500 272.497 C 182.700 275.681, 185.175 279.292, 186 280.520 C 186.825 281.749, 188.296 283.822, 189.268 285.127 C 190.241 286.432, 193.092 290.313, 195.603 293.750 L 200.170 300 206.144 300 C 210.667 300, 211.931 299.696, 211.348 298.750 C 209.191 295.248, 200.826 283.530, 195.107 276 C 191.557 271.325, 187.542 265.363, 186.184 262.750 C 184.827 260.137, 183.360 258, 182.925 258 C 182.491 258, 181.815 256.994, 181.425 255.764 C 181.035 254.535, 179.479 251.947, 177.968 250.014 C 176.457 248.082, 174.110 244.475, 172.752 242 C 167.442 232.323, 165.749 229.443, 164.519 228 C 162.718 225.888, 155.050 209.603, 149.450 196 C 144.911 184.972, 143.416 180.446, 142.515 175 C 141.186 166.973, 139.865 160.776, 138.994 158.484 C 138.447 157.046, 138 154.099, 138 151.935 C 138 145.652, 131.543 141.127, 129.174 145.750 M 109.203 172.157 C 105.265 179.454, 101.741 180.781, 101.187 175.174 C 100.993 173.216, 100.085 171.581, 98.812 170.899 C 97.090 169.978, 96.318 170.228, 94.132 172.414 C 91.198 175.348, 91.139 176.112, 92.336 196 C 92.717 202.325, 93.535 216.275, 94.154 227 C 94.774 237.725, 95.683 247.287, 96.175 248.250 C 97.667 251.166, 101.657 250.244, 107.818 245.559 C 114.956 240.130, 115.379 239.629, 117.586 234 C 118.557 231.525, 120.397 227.933, 121.676 226.018 C 122.954 224.103, 124 221.726, 124 220.736 C 124 218.339, 121.378 217.442, 119.332 219.138 C 116.937 221.123, 107.479 233.201, 106.715 235.250 C 105.902 237.432, 102.424 237.546, 101.607 235.418 C 100.207 231.770, 101.027 227.964, 103.690 225.743 C 111.977 218.834, 115.396 215.098, 117.156 211.034 C 118.235 208.540, 119.766 205.226, 120.559 203.669 C 123.839 197.226, 120.454 192.161, 116.500 197.597 C 108.535 208.546, 105.063 212.540, 103.280 212.805 C 101.323 213.095, 101.234 212.660, 101.364 203.501 L 101.500 193.893 106 190.218 C 114.983 182.883, 117 180.076, 117 174.912 C 117 171.550, 116.550 170.041, 115.418 169.607 C 112.354 168.431, 110.890 169.032, 109.203 172.157 M 45.668 179.452 C 44.099 180.641, 43.938 181.676, 44.545 186.670 C 44.936 189.877, 45.872 193.715, 46.627 195.200 C 47.382 196.686, 48 198.979, 48 200.297 C 48 201.615, 48.645 203.999, 49.434 205.596 C 50.223 207.193, 51.168 211.202, 51.535 214.503 C 52.126 219.816, 51.961 220.726, 50.101 222.408 C 46.901 225.305, 47.245 230.523, 50.750 232.230 C 53.498 233.569, 53.500 233.577, 53.083 242.535 C 52.854 247.466, 52.629 254.836, 52.583 258.913 C 52.502 266.149, 52.566 266.348, 55.264 267.251 C 57.466 267.988, 59.232 267.620, 63.949 265.442 C 70.364 262.481, 75.196 257.026, 76.429 251.354 C 76.806 249.623, 77.988 247.416, 79.057 246.449 C 81.604 244.143, 81.701 239, 79.196 239 C 77.035 239, 72.243 243.874, 68.566 249.813 C 66.820 252.633, 65.307 254.013, 64.198 253.800 C 63.264 253.620, 62.521 253.029, 62.548 252.486 C 63.285 237.210, 64.482 225.067, 65.367 223.875 C 65.990 223.036, 67.663 221.593, 69.085 220.668 C 70.506 219.743, 72.287 217.752, 73.041 216.243 C 73.796 214.735, 75.029 212.752, 75.782 211.838 C 76.534 210.925, 77.004 208.900, 76.825 207.338 C 76.429 203.882, 72.919 202.959, 70.553 205.689 C 69.690 206.685, 67.708 209.038, 66.148 210.917 C 62.170 215.710, 60 214.696, 60 208.044 C 60 203.299, 60.213 202.891, 63.893 200.568 C 67.713 198.156, 72 193.186, 72 191.168 C 72 189.829, 67.110 186, 65.400 186 C 64.668 186, 62.478 187.398, 60.532 189.106 C 58.586 190.814, 56.374 191.974, 55.615 191.683 C 54.857 191.392, 53.683 188.756, 53.006 185.827 C 51.935 181.185, 49.868 177.929, 48.059 178.032 C 47.751 178.049, 46.676 178.688, 45.668 179.452 M 214.680 199.750 C 213.676 201.469, 214.123 220.822, 215.597 239.500 C 217.330 261.444, 217.597 267.074, 217.838 286.750 L 218 300 225.109 300 L 232.219 300 231.702 296.750 C 231.418 294.962, 230.657 291.700, 230.010 289.500 C 228.533 284.478, 227.386 278.338, 225.435 265 C 223.871 254.308, 223.145 247.497, 220.641 220 C 219.865 211.475, 218.739 203.262, 218.140 201.750 C 217.083 199.084, 215.577 198.214, 214.680 199.750" stroke="none" fill="black" fill-rule="evenodd"/>
</svg>