<svg xmlns="http://www.w3.org/2000/svg" width="300" height="300" viewBox="0 0 300 300" version="1.1">
	<path d="M 105.557 13.223 C 103.255 16.508, 103.358 32.633, 105.697 35.218 C 107.321 37.012, 106.980 37.489, 97.772 46.297 C 88.438 55.224, 85 59.922, 85 63.750 C 85 64.768, 84.460 66.140, 83.800 66.800 C 81.327 69.273, 79.170 68.053, 76.644 62.750 C 73.220 55.563, 66.205 48.900, 60.549 47.464 C 58.093 46.841, 55.661 46.594, 55.144 46.915 C 54.383 47.389, 54.264 51.269, 54.890 55.186 C 54.951 55.563, 56.798 56.882, 58.995 58.117 C 62.715 60.208, 70.160 68.588, 72.882 73.747 C 73.534 74.982, 75.821 76.889, 77.966 77.982 L 81.864 79.971 86.010 77.759 C 88.290 76.542, 90.892 74.298, 91.793 72.773 C 94.681 67.884, 96.325 69.181, 95.565 75.750 C 93.815 90.878, 90.096 101.817, 84.661 107.822 C 81.449 111.371, 83.508 116, 88.298 116 C 90.294 116, 94.275 111.805, 96.557 107.296 C 97.614 105.208, 99.212 102.600, 100.108 101.500 C 101.005 100.400, 102.002 97.127, 102.325 94.226 C 102.647 91.326, 103.269 88.401, 103.706 87.726 C 104.890 85.897, 107.043 67.767, 107.295 57.500 C 107.542 47.410, 108.065 46, 111.559 46 L 114 46 113.995 61.750 C 113.991 73.581, 114.394 78.744, 115.615 82.500 C 117.829 89.312, 118.335 90.216, 120.567 91.341 C 121.630 91.877, 123.175 92.697, 124 93.164 C 127.534 95.164, 128.267 95.130, 131.519 92.816 C 133.402 91.476, 136.355 88.429, 138.083 86.044 C 141.089 81.894, 141.169 81.541, 139.932 77.793 C 137.976 71.867, 132.589 69.803, 131.404 74.526 C 130.756 77.109, 127.627 79.506, 126.120 78.574 C 124.801 77.759, 123.854 65.409, 124.604 58.783 C 125.233 53.226, 125.719 52.303, 131 46.635 C 136.543 40.685, 141 32.748, 141 28.827 C 141 25.810, 136.531 22, 132.992 22 C 131.288 22, 128.238 23.125, 126.215 24.500 C 124.191 25.875, 122.078 27.018, 121.518 27.041 C 120.958 27.063, 118.942 28.413, 117.038 30.041 C 113.698 32.896, 111 33.860, 111 32.200 C 111 31.760, 111.393 30.972, 111.872 30.450 C 112.352 29.927, 113.030 26.240, 113.379 22.256 C 113.940 15.844, 113.783 14.783, 112.006 13.006 C 109.404 10.404, 107.486 10.468, 105.557 13.223 M 124.345 38.543 C 124.019 39.392, 124.014 40.347, 124.333 40.667 C 125.342 41.676, 128 40.128, 128 38.531 C 128 36.535, 125.112 36.545, 124.345 38.543 M 123 108.155 C 121.625 109.334, 117.800 111.593, 114.500 113.175 C 111.200 114.758, 105.800 118.043, 102.500 120.477 C 99.200 122.911, 95.150 125.594, 93.500 126.440 C 79.798 133.465, 78.512 134.468, 78.185 138.376 C 77.560 145.863, 82.026 146.952, 91 141.500 C 94.169 139.575, 97.153 137.982, 97.631 137.959 C 98.109 137.937, 100.036 136.606, 101.913 135.001 C 103.789 133.396, 105.702 132.316, 106.163 132.600 C 107.560 133.464, 107.101 136.671, 105.375 138.104 C 104.481 138.846, 101.326 144.414, 98.364 150.477 C 95.402 156.539, 91.424 164.323, 89.522 167.773 L 86.066 174.045 87.861 177.273 C 90.021 181.154, 93.419 181.850, 99.105 179.575 C 101.270 178.709, 103.440 178, 103.928 178 C 104.416 178, 104.861 182.467, 104.916 187.926 C 105.033 199.328, 105.665 198.430, 92.500 205.558 C 80.997 211.785, 80.567 211.987, 78.809 211.994 C 77.879 211.997, 76.817 212.487, 76.449 213.083 C 76.081 213.678, 73.804 215.012, 71.390 216.047 C 67.552 217.693, 67 218.319, 67 221.030 C 67 227.921, 70.148 229.568, 76.500 226 C 78.458 224.900, 80.660 224, 81.393 224 C 82.126 224, 84.424 222.650, 86.500 221 C 88.576 219.350, 90.802 218, 91.446 218 C 92.091 218, 95.233 216.425, 98.430 214.500 C 101.627 212.575, 104.643 211, 105.133 211 C 106.762 211, 103.579 226.875, 100.876 232.236 C 100.394 233.191, 100 234.584, 100 235.331 C 100 237.909, 96.072 240.231, 89.296 241.657 C 76.255 244.404, 73.470 244.937, 69 245.546 C 66.525 245.883, 63.600 246.531, 62.500 246.986 C 59.215 248.344, 48.851 250.834, 43.500 251.550 C 40.750 251.919, 35.800 253.476, 32.500 255.011 C 29.200 256.547, 25.712 258.058, 24.750 258.370 C 20.839 259.638, 24.283 268, 28.717 268 C 29.661 268, 32.248 267.350, 34.467 266.556 C 39.371 264.801, 55.169 260.278, 68 256.957 C 70.475 256.316, 73.504 255.402, 74.732 254.926 C 75.959 254.449, 80.009 253.761, 83.732 253.395 C 87.454 253.030, 90.950 252.397, 91.500 251.988 C 92.050 251.579, 94.975 251.007, 98 250.717 C 101.025 250.427, 106.650 249.499, 110.500 248.655 C 132.464 243.839, 192.215 242.369, 235.111 245.590 C 243.359 246.209, 243.790 246.138, 245.361 243.896 C 247.300 241.126, 247.519 235.676, 245.750 234.208 C 245.041 233.619, 239.091 233.151, 232 233.126 C 225.125 233.102, 218.600 233.025, 217.500 232.955 C 216.400 232.885, 214.600 232.842, 213.500 232.858 C 212.400 232.874, 202.275 232.931, 191 232.985 C 160.178 233.133, 131.744 234.492, 115.250 236.606 C 110.320 237.238, 110 237.146, 110 235.104 C 110 233.908, 110.665 231.915, 111.477 230.675 C 112.290 229.435, 113.548 223.217, 114.273 216.859 C 115.584 205.369, 115.616 205.276, 119.389 201.899 C 121.478 200.029, 125.052 197.767, 127.332 196.870 C 131.783 195.121, 134.437 192.135, 135.413 187.781 C 135.899 185.612, 135.521 184.732, 133.546 183.438 C 131.219 181.914, 130.890 181.942, 128.130 183.907 C 126.514 185.058, 124.777 186, 124.270 186 C 123.763 186, 122.292 187.125, 121 188.500 C 116.558 193.229, 114.689 191.524, 114.460 182.533 C 114.375 179.215, 113.980 175.053, 113.581 173.284 C 112.889 170.214, 113.107 169.907, 118.364 166.544 C 121.394 164.606, 124.464 162.198, 125.186 161.194 C 125.909 160.190, 127.294 159.072, 128.265 158.710 C 129.236 158.348, 130.462 156.915, 130.990 155.526 C 132.250 152.211, 133.581 152.340, 137.109 156.117 C 140.853 160.125, 141.731 163.535, 139.619 165.869 C 137.698 167.991, 137.546 170.146, 139.200 171.800 C 140.966 173.566, 142.366 173.297, 146.910 170.322 C 150.839 167.750, 151 167.438, 151 162.381 C 151 159.487, 150.585 156.861, 150.077 156.548 C 149.569 156.234, 148.858 154.628, 148.496 152.980 C 148.134 151.332, 146.974 149.521, 145.919 148.956 C 144.863 148.392, 144 147.130, 144 146.152 C 144 142.391, 135.394 136.433, 131.407 137.434 C 129.494 137.914, 128.994 138.701, 128.973 141.269 C 128.935 145.861, 123.886 151.159, 111.613 159.488 C 103.827 164.772, 101.686 162.529, 107 154.655 C 108.650 152.210, 110 149.737, 110 149.158 C 110 147.951, 114.444 139.374, 116.110 137.368 C 117.662 135.498, 116.394 131.281, 113.874 129.933 C 111.841 128.844, 111.913 128.664, 116.094 124.404 C 118.471 121.982, 121.192 120, 122.141 120 C 123.089 120, 124.138 119.140, 124.472 118.089 C 124.805 117.038, 126.661 114.970, 128.596 113.494 C 131.041 111.629, 132.021 110.154, 131.807 108.656 C 131.372 105.603, 126.312 105.315, 123 108.155" stroke="none" fill="black" fill-rule="evenodd"/>
</svg>