<svg xmlns="http://www.w3.org/2000/svg" width="300" height="300" viewBox="0 0 300 300" version="1.1">
	<path d="M 99.223 19.557 C 97.520 20.749, 97 22.105, 97 25.357 C 97 27.691, 97.420 30.028, 97.933 30.550 C 98.446 31.073, 99.009 33.300, 99.183 35.500 C 99.434 38.668, 99.934 39.562, 101.588 39.798 C 105.081 40.297, 106.275 37.590, 106.392 28.902 C 106.484 22.013, 106.220 20.645, 104.559 19.425 C 102.137 17.647, 101.942 17.652, 99.223 19.557 M 115 45.465 C 113.625 46.270, 111.600 46.951, 110.500 46.978 C 106.440 47.076, 88.212 60.694, 84.446 66.443 C 82.282 69.745, 80.397 69.680, 78.235 66.231 C 77.281 64.708, 74.203 61.333, 71.396 58.731 C 65.520 53.284, 62.127 52.631, 59.615 56.465 C 57.374 59.885, 57.590 61.614, 60.520 63.703 C 65.149 67.005, 76.524 78.661, 77.757 81.367 C 78.427 82.837, 80.157 84.489, 81.601 85.038 C 83.834 85.887, 84.125 86.445, 83.551 88.768 C 83.180 90.271, 82.525 93.525, 82.096 96 C 80.620 104.508, 76.610 117.019, 73.392 123.154 C 72.626 124.614, 72 126.795, 72 128 C 72 129.205, 71.194 131.386, 70.208 132.846 C 65.999 139.081, 64.497 142.979, 65.617 144.765 C 69.366 150.747, 76.490 142.514, 81.911 125.933 C 86.069 113.218, 88.158 108, 89.092 108 C 89.482 108, 89.806 106.537, 89.814 104.750 C 89.821 102.963, 90.360 100.150, 91.011 98.500 C 92.922 93.653, 94.275 85.045, 94.392 77 C 94.512 68.639, 94.792 68.005, 100.603 62.886 C 103.483 60.348, 106.066 59.067, 109.271 58.587 C 111.782 58.210, 114.378 57.249, 115.041 56.451 C 116.577 54.600, 118.425 54.603, 119.966 56.459 C 120.949 57.644, 120.455 58.958, 117.339 63.447 C 113.246 69.342, 111.768 70.005, 108.770 67.292 C 104.343 63.285, 101.176 70.446, 102.927 80.503 C 103.517 83.891, 104 89.863, 104 93.773 C 104 97.683, 104.450 101.160, 105 101.500 C 105.550 101.840, 106 103.865, 106 106 C 106 108.135, 106.450 110.160, 107 110.500 C 107.550 110.840, 108.010 112.104, 108.022 113.309 C 108.034 114.514, 108.870 116.573, 109.878 117.885 C 111.508 120.004, 112.221 120.194, 116.274 119.586 C 118.784 119.210, 121.341 118.294, 121.958 117.551 C 122.574 116.808, 125.648 115.185, 128.789 113.944 C 131.930 112.703, 134.894 111.342, 135.375 110.919 C 135.856 110.496, 135.941 108.092, 135.564 105.575 C 134.900 101.152, 134.762 101, 131.407 101 C 129.336 101, 127.718 101.571, 127.394 102.417 C 126.800 103.964, 119.650 109, 118.047 109 C 116.293 109, 114.222 103.654, 113.978 98.500 C 113.848 95.750, 113.800 89.576, 113.871 84.781 L 114 76.061 119.250 72.664 C 127.517 67.314, 133.512 54.326, 129.750 49.917 C 125.430 44.855, 119.235 42.985, 115 45.465 M 95.215 130.250 C 94.609 130.986, 94.250 136.726, 94.343 144.214 C 94.474 154.795, 94.225 157.203, 92.864 158.565 C 89.731 161.698, 77.915 165.157, 68 165.843 C 58.507 166.499, 58.500 166.502, 58.177 169.315 C 58 170.863, 58.611 173.283, 59.534 174.693 C 61.159 177.173, 61.448 177.234, 68.357 176.564 C 72.286 176.183, 78.650 175.061, 82.500 174.071 C 86.350 173.082, 89.875 172.608, 90.332 173.018 C 91.282 173.870, 83.020 198.804, 79.399 206.013 C 78.080 208.641, 77 211.246, 77 211.803 C 77 215.153, 59.264 243.194, 55.763 245.380 C 54.793 245.986, 54 246.992, 54 247.617 C 54 248.241, 50.607 251.846, 46.460 255.626 C 39.904 261.603, 38.958 262.891, 39.210 265.500 C 39.468 268.172, 39.903 268.534, 43.185 268.806 C 46.592 269.090, 47.352 268.600, 53.265 262.306 C 64.759 250.072, 67.545 246.633, 74.170 236.500 C 80.583 226.693, 86 217.215, 86 215.803 C 86 215.411, 87.305 212.257, 88.900 208.795 C 90.495 205.333, 92.774 199.350, 93.964 195.500 C 95.154 191.650, 96.774 186.415, 97.564 183.866 C 98.354 181.317, 99 178.133, 99 176.790 C 99 175.447, 100.125 173.292, 101.500 172 C 102.875 170.708, 104 169.089, 104 168.402 C 104 165.127, 116.773 155.439, 118.635 157.302 C 119.633 158.299, 117.355 169.770, 113.534 183 C 110.279 194.267, 109.981 196.289, 110.516 203.500 C 110.842 207.900, 111.806 213.375, 112.658 215.666 C 114.198 219.806, 120.541 226, 123.241 226 C 123.989 226, 125.028 226.387, 125.550 226.860 C 126.073 227.333, 130.123 228.899, 134.551 230.341 C 140.529 232.286, 146.452 233.249, 157.551 234.079 C 172.875 235.226, 199.159 234.745, 204.479 233.221 C 206.302 232.698, 208.727 230.601, 210.727 227.817 C 213.782 223.564, 214.035 222.577, 214.600 212.723 C 214.964 206.367, 214.762 200.058, 214.091 196.839 C 213.116 192.158, 208.522 179.766, 205.907 174.764 C 205.408 173.809, 205 172.598, 205 172.073 C 205 170.200, 197.245 154.448, 195.685 153.154 C 193.637 151.454, 190 152.589, 190 154.928 C 190 155.914, 191.064 158.288, 192.363 160.204 C 193.663 162.119, 194.981 164.995, 195.292 166.593 C 195.603 168.192, 197.701 175.350, 199.953 182.500 C 203.851 194.873, 204.024 195.958, 203.536 205 C 202.984 215.234, 202.239 219.854, 200.858 221.612 C 198.349 224.805, 158.524 225.508, 144.706 222.603 C 128.176 219.128, 122.703 215.416, 119.794 205.708 C 118.813 202.432, 118.911 200.242, 120.355 193.227 C 121.318 188.548, 122.797 182.871, 123.641 180.610 C 126.048 174.166, 127.124 168.237, 127.674 158.395 C 128.177 149.408, 128.148 149.261, 125.457 147.145 C 121.918 144.361, 121.071 144.423, 113.267 148.035 C 109.660 149.704, 106.233 150.911, 105.650 150.717 C 105.045 150.515, 104.448 146.546, 104.257 141.468 C 104.015 135.043, 103.474 132.076, 102.306 130.786 C 100.435 128.718, 96.709 128.436, 95.215 130.250" stroke="none" fill="black" fill-rule="evenodd"/>
</svg>