<svg xmlns="http://www.w3.org/2000/svg" width="300" height="300" viewBox="0 0 300 300" version="1.1">
	<path d="M 117.571 24.571 C 115.806 26.337, 115.562 28.137, 116.898 29.550 C 118.990 31.765, 120.556 52.824, 119.068 58.746 C 113.085 82.563, 110.089 92.827, 108.908 93.557 C 107.678 94.317, 107.753 98.730, 109.009 99.506 C 110.630 100.507, 113.847 99.058, 114.488 97.037 C 114.813 96.013, 116.360 93.564, 117.925 91.594 C 119.591 89.498, 121.048 86.163, 121.440 83.552 C 122.185 78.582, 127.330 72.478, 132.206 70.778 C 133.713 70.253, 135.928 68.175, 137.128 66.162 C 140.286 60.863, 146.115 55, 148.224 55 C 149.225 55, 150.539 53.911, 151.146 52.579 C 152.707 49.153, 149.057 44, 145.069 44 C 141.774 44, 135.659 48.566, 132.265 53.561 C 130.960 55.481, 129.551 56.840, 129.132 56.582 C 128.714 56.323, 129.033 52.696, 129.841 48.522 C 131.180 41.608, 131.156 40.288, 129.575 33.716 C 128.620 29.747, 127.130 25.712, 126.264 24.750 C 124.307 22.575, 119.664 22.479, 117.571 24.571 M 57.378 48.615 C 56.019 51.480, 55.905 52.619, 56.831 54.102 C 58.533 56.826, 58.300 59.127, 54.920 73 C 53.245 79.875, 51.478 87.300, 50.993 89.500 C 48.886 99.057, 47.221 103.325, 44.924 105.061 C 43.064 106.466, 42.774 107.167, 43.677 108.073 C 46.681 111.088, 51.823 106.238, 53.578 98.734 C 53.953 97.131, 56.594 93.887, 59.862 91.015 C 64.949 86.547, 65.378 85.865, 64.250 84.045 C 62.598 81.378, 62.667 77.430, 64.423 74.154 C 65.970 71.268, 68 59.420, 68 53.280 C 68 48.188, 65.686 45, 61.990 45 C 59.646 45, 58.767 45.689, 57.378 48.615 M 92.238 51.162 C 91.557 51.843, 91 52.970, 91 53.668 C 91 54.365, 85.378 60.462, 78.507 67.218 C 71.636 73.973, 66.011 80.297, 66.007 81.271 C 65.996 83.969, 70.444 85.636, 73.413 84.046 C 76.157 82.578, 78 83.317, 78 85.885 C 78 86.856, 79.125 88.708, 80.500 90 C 82.135 91.536, 83 93.433, 83 95.483 C 83 97.207, 83.650 99.491, 84.444 100.559 C 85.785 102.362, 86.086 102.391, 88.694 100.961 C 91.425 99.463, 91.492 99.223, 91.213 92.019 C 90.899 83.916, 90.374 82.812, 85.967 80.986 C 82.043 79.361, 82.225 77.496, 86.680 73.665 C 88.705 71.924, 93.037 67.955, 96.308 64.845 L 102.255 59.191 99.863 54.845 C 97.389 50.352, 94.462 48.938, 92.238 51.162 M 132 76.408 C 132 79.865, 134.576 83.729, 138.092 85.548 C 139.630 86.343, 141.479 88.227, 142.201 89.734 C 144.147 93.795, 146.404 93.676, 148.938 89.380 C 151.761 84.596, 151.081 82.024, 145.912 77.931 C 142.936 75.574, 140.480 74.560, 136.910 74.217 C 132.141 73.759, 132 73.822, 132 76.408 M 106.500 114.206 C 104.850 114.783, 102.600 116.037, 101.500 116.992 C 96.774 121.098, 87.768 126, 84.949 126 C 80.230 126, 79.724 130.588, 83.859 135.893 C 86.098 138.765, 88.186 138.427, 95.500 134.009 C 102.994 129.482, 103.137 129.404, 108.221 127.063 C 112.848 124.932, 117 120.901, 117 118.539 C 117 116.879, 112.674 112.983, 110.936 113.079 C 110.146 113.122, 108.150 113.630, 106.500 114.206 M 140.387 164.004 C 133.175 164.439, 124.850 165.288, 121.887 165.891 C 118.924 166.494, 111.325 167.917, 105 169.054 C 98.675 170.191, 91.475 171.713, 89 172.437 C 81.560 174.611, 58.372 179.210, 41.456 181.865 C 33.447 183.122, 29.902 188.560, 33.627 193.877 C 35.409 196.422, 38.197 196.348, 44.330 193.595 C 46.073 192.812, 49.975 191.649, 53 191.009 C 56.025 190.370, 59.887 189.429, 61.582 188.919 C 63.277 188.409, 68.718 187.390, 73.673 186.653 C 78.629 185.916, 83.198 184.996, 83.827 184.607 C 84.456 184.218, 87.340 183.495, 90.236 182.999 C 111.213 179.411, 126.590 177.094, 133 176.556 C 144.843 175.563, 179.942 175.789, 186 176.899 C 194.382 178.434, 204.301 180.678, 206.212 181.473 C 208.119 182.266, 215.942 177.333, 215.979 175.315 C 216.019 173.082, 213.921 168.663, 212.236 167.431 C 211.292 166.741, 209.139 166.428, 207.340 166.720 C 205.574 167.006, 200.387 166.537, 195.814 165.676 C 185.656 163.765, 158.119 162.934, 140.387 164.004" stroke="none" fill="black" fill-rule="evenodd"/>
</svg>