<svg xmlns="http://www.w3.org/2000/svg" width="300" height="300" viewBox="0 0 300 300" version="1.1">
	<path d="M 134.973 11.532 C 133.943 12.774, 133.950 13.820, 135.011 17.035 C 136.089 20.300, 136.091 22.557, 135.024 29.752 C 134.310 34.564, 133.113 39.497, 132.363 40.715 C 131.613 41.933, 131 43.819, 131 44.906 C 131 45.993, 130.550 47.160, 130 47.500 C 128.424 48.474, 128.774 54, 130.411 54 C 131.187 54, 134.353 51.530, 137.445 48.511 C 142.800 43.283, 146.788 41.133, 148.812 42.384 C 149.321 42.698, 150.041 44.856, 150.413 47.178 C 151.710 55.292, 154.947 56.217, 158.156 49.391 C 160.010 45.448, 160.155 44.317, 159.161 41.570 C 157.428 36.776, 157.732 34.600, 160.500 32 C 162.994 29.657, 163.863 24.413, 162.393 20.582 C 161.416 18.037, 160.069 18.684, 154.767 24.250 C 149.990 29.265, 145.323 32.979, 143.781 32.993 C 143.386 32.997, 143.336 29.455, 143.670 25.121 C 144.462 14.856, 143.816 12.480, 139.857 11.100 C 135.990 9.752, 136.487 9.708, 134.973 11.532 M 81.667 13.667 C 80.708 14.625, 80.845 18.433, 81.878 19.550 C 83.015 20.780, 83.994 30, 82.987 30 C 82.566 30, 81.773 32.813, 81.226 36.250 C 80.311 41.993, 79.391 45.206, 76.717 52 C 74.418 57.838, 73.262 59.825, 68.677 65.823 C 61.957 74.612, 63.577 77.987, 71.693 72.108 C 76.531 68.603, 79.825 64.564, 80.680 61.088 C 81.917 56.057, 83.987 54.003, 87.865 53.956 C 89.864 53.932, 93.300 53.264, 95.500 52.471 C 101.217 50.412, 101.795 50.575, 103.534 54.736 C 106.427 61.660, 110.878 64.722, 113.800 61.800 C 116.107 59.493, 115.092 55.857, 111 51.765 C 108.800 49.565, 107 47.530, 107 47.244 C 107 46.958, 108.800 44.771, 111 42.384 C 115.020 38.023, 116.054 34.214, 114.070 31.079 C 113.001 29.389, 110.964 30.510, 104.500 36.343 C 102.300 38.329, 98.925 40.696, 97 41.604 C 95.075 42.512, 92.702 43.952, 91.726 44.804 C 89.060 47.133, 87.628 45.083, 89.372 41.435 C 90.144 39.821, 91.344 34.036, 92.039 28.580 L 93.302 18.659 90.135 15.830 C 87.165 13.176, 83.176 12.157, 81.667 13.667 M 126.491 75.373 C 124.814 77.934, 125.190 84.511, 127.258 88.770 C 128.578 91.490, 127.958 92.264, 121.526 95.925 C 99.546 108.434, 98.094 109.423, 93.760 114.829 C 92.803 116.023, 91.584 117, 91.052 117 C 90.520 117, 88.378 114.565, 86.292 111.589 C 84.018 108.343, 80.442 104.919, 77.359 103.032 C 72.985 100.357, 71.418 99.934, 66.859 100.194 C 61.566 100.496, 61.496 100.542, 61.176 103.895 C 60.808 107.748, 62.065 108.962, 66.446 108.985 C 69.192 108.999, 77.026 113.388, 77.881 115.392 C 78.898 117.775, 85.632 124.206, 88.571 125.601 C 91.855 127.159, 96 126.769, 96 124.902 C 96 123.411, 103.103 117.231, 109.096 113.508 C 117.576 108.239, 143.935 95, 145.944 95 C 146.940 95, 149.451 94.292, 151.523 93.426 C 154.613 92.135, 155.441 92.090, 156.130 93.176 C 157.350 95.101, 157.179 95.871, 154.055 102.500 C 152.500 105.800, 151.428 108.838, 151.673 109.250 C 152.798 111.146, 155.839 109.601, 159.548 105.250 C 167.913 95.434, 170.036 89.153, 166.171 85.655 C 162.464 82.300, 141.659 84.093, 137.353 88.138 C 132.724 92.487, 129.913 86.922, 134.070 81.638 L 136.140 79.006 134.002 76.003 C 131.429 72.390, 128.601 72.153, 126.491 75.373 M 136.360 123.413 C 127.192 127.681, 120 135.611, 120 141.450 C 120 146.036, 125.227 143.961, 135.430 135.326 C 139.630 131.772, 143.680 131.004, 144.667 133.574 C 145.377 135.424, 143.344 142.231, 140.808 146.500 C 139.827 148.150, 138.614 150.400, 138.112 151.500 C 136.631 154.747, 124.098 166, 121.964 166 C 120.201 166, 120 165.291, 120 159.071 C 120 154.178, 119.549 151.692, 118.466 150.609 C 117.623 149.765, 116.960 147.596, 116.993 145.788 C 117.149 137.325, 114.608 132, 110.412 132 C 107.187 132, 106.676 134.680, 108.176 143.719 C 108.887 147.999, 109.494 157.804, 109.526 165.508 C 109.557 173.213, 109.888 180.009, 110.260 180.611 C 110.632 181.213, 110.528 184.360, 110.028 187.603 C 108.608 196.823, 107 223.957, 107 238.687 C 107 250.310, 107.221 252.148, 108.686 252.710 C 109.748 253.117, 110.766 252.703, 111.436 251.592 C 114.284 246.867, 114.427 246.782, 117.336 248.107 C 119.624 249.150, 120.887 249.087, 124.795 247.735 C 136.847 243.567, 158.363 243.456, 179.416 247.452 C 183.770 248.278, 188.364 248.696, 189.625 248.379 C 196.793 246.580, 194.185 240.987, 185.355 239.221 C 182.135 238.577, 176.350 237.152, 172.500 236.054 C 168.028 234.779, 162.408 234.048, 156.941 234.029 C 151.428 234.010, 147.733 233.525, 146.558 232.666 C 144.862 231.426, 145.167 230.856, 150.916 224.511 C 158.120 216.563, 163 207.462, 163 201.979 C 163 196.772, 162.236 195.173, 158.928 193.463 C 154.508 191.177, 148.546 191.688, 141 195 C 137.241 196.650, 133.790 198.001, 133.332 198.002 C 132.875 198.003, 129.421 200.028, 125.657 202.502 C 121.893 204.976, 118.277 207, 117.620 207 C 115.822 207, 116.344 181.031, 118.165 179.877 C 118.899 179.412, 121.386 179.024, 123.691 179.015 C 125.996 179.007, 128.128 178.602, 128.428 178.116 C 128.729 177.630, 130.893 176.257, 133.237 175.064 C 135.582 173.871, 138.625 172.251, 140 171.463 C 141.375 170.674, 143.428 170.023, 144.561 170.015 C 147.226 169.996, 151 166.470, 151 164 C 151 162.126, 147.432 158, 145.811 158 C 144.348 158, 144.954 156.105, 148 151.154 C 149.650 148.473, 151 145.343, 151 144.198 C 151 143.054, 151.450 141.840, 152 141.500 C 152.550 141.160, 153 137.574, 153 133.530 C 153 126.548, 152.845 126.048, 149.923 123.589 C 146.111 120.381, 142.959 120.340, 136.360 123.413 M 143.500 203.980 C 140.750 204.956, 135.575 207.547, 132 209.736 C 128.425 211.924, 123.138 214.912, 120.250 216.375 L 115 219.034 115 228.017 C 115 236.132, 115.181 237, 116.874 237 C 122.793 237, 130.888 231.592, 144.568 218.500 C 149.259 214.011, 153.206 207.481, 152.830 204.830 C 152.412 201.878, 150.029 201.661, 143.500 203.980" stroke="none" fill="black" fill-rule="evenodd"/>
</svg>