<svg xmlns="http://www.w3.org/2000/svg" width="300" height="300" viewBox="0 0 300 300" version="1.1">
	<path d="M 121.532 10.948 C 121.142 11.580, 120.658 22.672, 120.458 35.598 C 120.217 51.157, 119.667 60.280, 118.830 62.594 C 117.368 66.638, 118.457 69.313, 121.766 69.808 C 123.900 70.127, 124.239 69.522, 125.544 63.069 C 126.031 60.663, 128.065 57.901, 132.358 53.816 C 135.724 50.613, 138.932 48.143, 139.489 48.326 C 140.045 48.510, 141.390 51.437, 142.479 54.830 C 144.127 59.971, 144.832 61, 146.703 61 C 148.207 61, 149.483 59.967, 150.565 57.874 C 152.055 54.993, 152.053 54.112, 150.543 46.624 L 148.905 38.500 151.203 36.657 C 155.932 32.863, 161 27.890, 161 27.041 C 161 26.559, 161.251 25.510, 161.558 24.711 C 161.864 23.912, 161.382 22.525, 160.486 21.629 C 157.143 18.286, 154.765 19.631, 143.043 31.500 C 131.968 42.714, 127.783 45.598, 129.619 40.750 C 130.844 37.514, 130.717 13.316, 129.469 12.068 C 127.824 10.425, 122.335 9.650, 121.532 10.948 M 69.500 29.370 C 66.538 30.634, 66.499 30.752, 66.416 38.575 C 66.370 42.934, 65.788 48.975, 65.123 52 C 64.457 55.025, 63.530 59.300, 63.061 61.500 C 62.592 63.700, 61.490 67.975, 60.612 71 C 59.734 74.025, 58.535 78.593, 57.946 81.151 C 57.358 83.709, 56.005 86.591, 54.938 87.556 C 52.605 89.667, 52.301 96.175, 54.452 97.960 C 58.026 100.927, 60.885 96.996, 64.240 84.500 C 64.831 82.300, 65.919 79.612, 66.657 78.527 C 67.396 77.443, 68 75.585, 68 74.400 C 68 73.215, 68.675 71.685, 69.500 71 C 70.325 70.315, 71 68.821, 71 67.678 C 71 65.240, 75.650 47.849, 77.465 43.500 C 78.208 41.717, 78.524 38.201, 78.242 34.836 C 77.845 30.112, 77.413 29.077, 75.633 28.600 C 72.920 27.872, 73.051 27.855, 69.500 29.370 M 92.500 48.062 C 85.068 54.139, 79.323 60.511, 77.540 64.654 C 76.793 66.388, 75.241 68.106, 74.091 68.471 C 71.637 69.250, 71.359 70.817, 73.527 71.649 C 74.438 71.998, 76.031 71.179, 77.479 69.617 C 78.813 68.178, 80.973 67, 82.278 67 C 85.165 67, 89 70.847, 89 73.743 C 89 76.338, 91.703 79.206, 93.764 78.800 C 96.804 78.201, 97.440 75.498, 96.343 67.828 L 95.294 60.500 100.647 55.120 C 106.369 49.369, 107.073 47.281, 104.171 44.655 C 101.326 42.080, 98.977 42.765, 92.500 48.062 M 125.449 87.295 C 123.221 88.508, 119.396 90.998, 116.949 92.828 C 99.752 105.694, 98.154 106.640, 84.750 111.882 C 81.073 113.320, 81.003 118.004, 84.587 122.703 C 87.079 125.970, 87.158 126.490, 86.722 136.798 C 86.474 142.684, 85.540 151.775, 84.647 157 C 80.334 182.247, 81.522 193.627, 89.255 201.132 C 91.447 203.259, 93.757 205, 94.388 205 C 95.019 205, 97.103 206.044, 99.018 207.320 C 104.437 210.929, 112.517 212.891, 124.500 213.505 C 139.981 214.299, 164.827 211.323, 173.308 207.660 C 180.503 204.552, 182.208 204, 184.614 204 C 186 204, 188.608 202.875, 190.411 201.500 C 192.214 200.125, 194.647 199, 195.819 199 C 198.537 199, 211.275 192.459, 213.635 189.851 C 215.514 187.774, 215.511 187.847, 214.546 169.305 C 214.065 160.070, 210.109 143.628, 207.355 139.421 C 206.606 138.277, 205.321 135.076, 204.499 132.308 C 203.677 129.540, 202.198 126.201, 201.212 124.888 C 200.227 123.574, 198.885 121.263, 198.232 119.750 C 196.906 116.684, 195.806 116.324, 194.088 118.394 C 193.193 119.473, 193.458 120.998, 195.260 125.144 C 196.541 128.090, 198.190 132.525, 198.924 135 C 199.658 137.475, 200.901 140.970, 201.685 142.768 C 204.182 148.492, 205.091 157.169, 204.431 169 C 203.812 180.099, 203.682 180.613, 200.699 183.750 C 198.999 185.537, 197.222 187, 196.751 187 C 196.279 187, 194.238 188.125, 192.215 189.500 C 190.191 190.875, 187.711 192, 186.702 192 C 185.694 192, 183.886 192.549, 182.684 193.220 C 179.321 195.099, 174.089 196.901, 167.500 198.449 C 164.200 199.224, 158.125 200.783, 154 201.912 C 143.251 204.855, 118.567 204.894, 112.141 201.978 C 109.743 200.890, 107.202 200, 106.493 200 C 104.306 200, 97.209 195.536, 95.068 192.813 C 92.329 189.331, 91.492 179.184, 92.912 166.665 C 94.053 156.612, 94.638 155.328, 99 153.333 C 102.633 151.671, 112.937 142.630, 114.959 139.330 C 117.419 135.314, 125.623 128.008, 127.728 127.957 C 128.702 127.934, 131.361 126.246, 133.636 124.207 C 139.289 119.140, 142.355 110.473, 142.439 99.321 C 142.497 91.597, 142.337 90.971, 139.563 88.071 C 135.960 84.304, 131.405 84.054, 125.449 87.295 M 124.160 100.114 L 119.926 103.227 120.594 109.364 C 120.962 112.739, 121.455 115.838, 121.690 116.250 C 121.926 116.662, 123.815 117, 125.890 117 C 129.915 117, 130.674 116.148, 132.918 109.101 C 134.349 104.605, 134.238 100.898, 132.608 98.750 C 130.730 96.276, 128.998 96.556, 124.160 100.114 M 102.250 114.542 L 97 117.982 96.989 126.741 C 96.983 131.558, 96.699 137.188, 96.358 139.250 C 95.877 142.159, 96.067 143, 97.203 143 C 101.946 143, 113.081 116.212, 109.921 112.404 C 108.379 110.547, 108.322 110.562, 102.250 114.542" stroke="none" fill="black" fill-rule="evenodd"/>
</svg>