<svg xmlns="http://www.w3.org/2000/svg" width="300" height="300" viewBox="0 0 300 300" version="1.1">
	<path d="M 125.229 8.171 C 123.443 9.957, 123.713 12.399, 126.152 16.533 C 128.244 20.079, 128.268 20.496, 126.988 31.601 L 125.673 43.023 128.011 45.511 C 129.297 46.880, 130.666 48, 131.054 48 C 131.442 48, 133.587 46.226, 135.822 44.057 C 141.921 38.138, 143.392 38.307, 144 45 C 144.474 50.212, 147.173 56, 149.130 56 C 149.625 56, 150.879 54.602, 151.918 52.894 C 154.666 48.375, 154.557 36.368, 151.754 34.868 C 149.219 33.512, 149.970 29.093, 153.636 23.804 C 155.447 21.190, 156.048 19.328, 155.624 17.640 C 154.471 13.046, 152.217 13.687, 145.527 20.510 C 142.027 24.080, 138.677 27, 138.082 27 C 137.478 27, 136.993 25.121, 136.985 22.750 C 136.968 18.133, 135.021 10.588, 133.469 9.124 C 131.721 7.476, 126.525 6.875, 125.229 8.171 M 72.782 23.750 C 70.015 26.918, 69.705 32.414, 72.058 36.603 C 73.558 39.273, 74.022 41.410, 73.650 43.936 C 73.361 45.896, 72.813 49.872, 72.433 52.771 C 72.053 55.670, 71.350 58.284, 70.871 58.580 C 70.392 58.876, 70 59.810, 70 60.656 C 70 61.501, 68.200 64.238, 66 66.737 C 59.888 73.681, 60.546 79.159, 67.664 80.583 C 70.226 81.095, 71.080 80.646, 73.843 77.339 C 88.985 59.208, 89.232 58.995, 92.096 61.587 C 93.143 62.534, 94 63.855, 94 64.520 C 94 66.878, 98.145 71, 100.516 71 C 103.017 71, 106 67.691, 106 64.917 C 106 64.016, 104.875 61.621, 103.500 59.595 C 102.125 57.569, 101 54.911, 101 53.688 C 101 52.465, 102.125 49.809, 103.500 47.785 C 106.049 44.034, 106.824 38.627, 104.976 37.485 C 102.855 36.174, 98.334 38.205, 93.512 42.636 C 87.839 47.849, 84.958 50, 83.648 50 C 83.134 50, 83.029 47.464, 83.405 44.135 C 84.103 37.963, 82.955 30.701, 80.418 25.250 C 78.693 21.543, 75.293 20.875, 72.782 23.750 M 171.562 90.185 C 168.565 91.924, 150.212 110.803, 148.588 113.817 C 146.132 118.378, 144.748 125.991, 146.083 127.600 C 147.886 129.773, 149.574 129.282, 152.439 125.750 C 161.303 114.821, 163.783 111.925, 168.709 106.750 C 171.719 103.588, 174.800 101, 175.556 101 C 179.508 101, 181.941 114.464, 182.605 140 C 182.898 151.275, 183.562 161.400, 184.080 162.500 C 184.599 163.600, 185.451 173.275, 185.974 184 C 186.497 194.725, 187.451 209.268, 188.095 216.318 C 188.782 223.850, 188.896 229.504, 188.371 230.029 C 187.879 230.521, 177.507 231.148, 165.321 231.422 C 153.136 231.696, 142.004 232.212, 140.585 232.568 C 139.166 232.924, 137.309 232.949, 136.459 232.623 C 135.151 232.121, 135.112 231.682, 136.203 229.765 C 137.365 227.722, 137.925 222.582, 139.375 200.625 C 139.625 196.844, 140.371 189.930, 141.034 185.260 C 142.341 176.055, 142.833 143.580, 141.950 124.800 C 141.505 115.323, 141.048 112.710, 139.545 111.050 C 137.031 108.272, 133.589 108.452, 131.615 111.465 C 129.592 114.552, 129.574 119.969, 131.527 137.582 C 133.172 152.414, 132.856 187.836, 131.011 195.500 C 130.481 197.700, 130.022 202.650, 129.991 206.500 C 129.940 212.855, 129.033 220.931, 127.374 229.806 C 126.907 232.306, 127.242 233.647, 128.749 235.306 C 129.845 236.513, 131.372 238.850, 132.142 240.500 C 133.445 243.288, 133.896 243.487, 138.522 243.323 C 182.219 241.771, 189.053 241.805, 191.768 243.584 C 195.873 246.273, 210.597 245.728, 213.746 242.769 C 216.039 240.615, 216.823 235.626, 215.041 234.525 C 214.513 234.199, 211.150 233.659, 207.567 233.324 C 197.685 232.401, 198.228 233.860, 196.453 203.500 C 196.260 200.200, 195.593 191.425, 194.971 184 C 194.349 176.575, 193.490 163.975, 193.062 156 C 191.153 120.370, 189.799 106.588, 187.874 103.193 C 186.843 101.374, 186 99.103, 186 98.146 C 186 97.189, 184.294 94.740, 182.208 92.703 C 178.270 88.858, 175.130 88.115, 171.562 90.185 M 83.463 96.403 C 81.841 97.589, 81.555 99.021, 81.615 105.653 C 81.670 111.705, 81.322 113.785, 80.093 114.745 C 78.307 116.141, 57.936 128.717, 49.191 133.822 C 46.061 135.650, 42.600 137.975, 41.500 138.990 C 40.400 140.005, 36.125 142.820, 32 145.246 C 25.424 149.112, 24.431 150.077, 23.942 153.078 C 23.286 157.098, 24.425 160, 26.658 160 C 27.531 160, 31.003 158.064, 34.373 155.697 C 37.743 153.330, 43.779 149.697, 47.786 147.624 C 53.695 144.565, 69.933 133.411, 72 130.990 C 73.121 129.676, 81.960 125, 83.321 125 C 85.195 125, 85.923 126.967, 86.661 134.032 L 87.257 139.729 83.576 140.420 C 81.411 140.826, 79.684 141.808, 79.383 142.805 C 78.837 144.614, 74.608 153.505, 73.106 156 C 72.610 156.825, 71.370 159.517, 70.352 161.983 C 68.498 166.469, 56.081 185.672, 51.130 191.707 C 49.684 193.471, 44.675 199.650, 40 205.439 C 33.052 214.043, 31.010 215.967, 28.818 215.982 C 26.963 215.994, 25.445 216.971, 23.894 219.149 L 21.651 222.299 23.936 224.149 C 26.672 226.365, 30.126 226.514, 33.800 224.575 C 37.420 222.664, 47.923 211.699, 52.070 205.500 C 53.909 202.750, 56.475 199.375, 57.772 198 C 59.068 196.625, 61.299 193.475, 62.728 191 C 64.158 188.525, 66.344 185.375, 67.586 184 C 72.060 179.049, 76.998 171.332, 81.505 162.250 C 84.030 157.162, 86.691 153, 87.420 153 C 89.674 153, 90.312 160.663, 88.336 164.008 C 86.720 166.744, 86.725 167.075, 88.438 170.255 C 89.775 172.737, 90.087 174.774, 89.634 178.057 C 89.298 180.501, 88.505 189.700, 87.873 198.500 C 86.968 211.097, 86.333 215.057, 84.887 217.119 C 81.262 222.289, 80.987 224.386, 83.328 229.019 C 86.083 234.471, 88.023 235.728, 91.697 234.442 C 94.247 233.550, 94.571 232.875, 95.288 226.980 C 95.721 223.416, 96.239 210.375, 96.437 198 L 96.798 175.500 99.513 175.173 C 101.362 174.950, 103.071 175.650, 104.864 177.364 C 107.243 179.638, 111.383 181.173, 119.238 182.694 C 121.096 183.053, 122.158 182.752, 122.539 181.758 C 123.384 179.556, 118.976 173.539, 114.945 171.393 C 112.990 170.352, 108.392 167.948, 104.726 166.050 C 101.060 164.153, 97.782 161.903, 97.441 161.050 C 97.101 160.198, 96.619 150.471, 96.370 139.436 C 95.937 120.172, 96.003 119.266, 98.032 116.686 C 99.194 115.209, 100.610 114, 101.178 114 C 101.745 114, 104.210 112.650, 106.655 111 C 109.100 109.350, 111.737 108, 112.515 108 C 116.018 108, 117.068 99.683, 113.822 97.651 C 112.536 96.847, 110.779 97.278, 106.322 99.493 C 103.120 101.084, 99.427 103.198, 98.115 104.193 C 94.610 106.849, 92.150 106.502, 91.426 103.250 C 90.222 97.841, 89.715 96.490, 88.615 95.765 C 86.957 94.673, 85.600 94.841, 83.463 96.403 M 168.700 138.684 C 165.924 140.144, 156.296 149.705, 153.314 153.963 C 152.147 155.628, 151.986 156.964, 152.664 159.339 C 154.109 164.398, 157.124 164.036, 163.215 158.072 C 166.064 155.282, 169.025 153, 169.796 153 C 170.567 153, 172.503 151.602, 174.099 149.894 C 176.216 147.627, 177 145.791, 177 143.094 C 177 137.144, 174.328 135.725, 168.700 138.684 M 163.413 182.250 C 157.853 187.710, 154.977 189.766, 151.765 190.579 C 147.663 191.617, 147.488 191.820, 147.189 195.903 C 146.844 200.608, 148.213 203, 151.250 203 C 155.469 203, 166.576 196.416, 173.244 189.961 C 178.795 184.589, 180 182.856, 180 180.246 C 180 176.714, 177.865 175, 173.464 175 C 171.498 175, 168.854 176.907, 163.413 182.250" stroke="none" fill="black" fill-rule="evenodd"/>
</svg>