<svg xmlns="http://www.w3.org/2000/svg" width="300" height="300" viewBox="0 0 300 300" version="1.1">
	<path d="M 127.971 12.535 C 126.950 13.766, 126.940 15.102, 127.925 19.285 C 128.955 23.660, 128.898 25.461, 127.576 30.460 C 126.709 33.738, 126 38.936, 126 42.010 C 126 45.085, 125.524 48.076, 124.943 48.657 C 124.361 49.239, 124.024 52.137, 124.193 55.098 C 124.548 61.328, 126.100 62.309, 130.002 58.770 C 140.239 49.485, 147 46.207, 147 50.528 C 147 51.404, 149.303 54.555, 152.118 57.532 C 156.406 62.065, 157.542 62.780, 159.118 61.937 C 162.228 60.272, 161.454 55.435, 156.933 48.276 L 152.865 41.836 157.933 36.478 C 162.806 31.325, 163.478 29.877, 163.022 25.500 C 162.804 23.408, 160.254 20, 158.906 20 C 158.475 20, 153.895 24.275, 148.729 29.500 C 143.564 34.725, 138.864 39, 138.285 39 C 136.411 39, 136.184 35.256, 137.605 27.800 C 139.500 17.864, 139.384 16.293, 136.545 13.455 C 133.765 10.674, 129.863 10.255, 127.971 12.535 M 72.347 29.537 C 72.023 30.383, 72.600 32.005, 73.629 33.142 C 75.971 35.730, 76.322 41.882, 74.504 48.500 C 71.189 60.569, 68.545 68.609, 67.435 70 C 66.776 70.825, 65.929 72.509, 65.553 73.742 C 65.178 74.976, 63.176 78.128, 61.105 80.748 C 53.905 89.857, 55.321 94.627, 63.546 88.969 C 68.728 85.403, 72.275 80.437, 77.451 69.500 C 79.533 65.100, 81.525 60.897, 81.876 60.160 C 82.663 58.511, 91.995 57.768, 93.750 59.214 C 94.438 59.781, 95 62.160, 95 64.500 C 95 71.148, 99.278 72.986, 101.859 67.447 C 102.487 66.101, 103.496 63.931, 104.102 62.625 C 104.905 60.895, 104.905 59.691, 104.102 58.191 C 102.442 55.089, 102.768 51.111, 105.070 46.355 C 107.708 40.906, 107.353 36.621, 104.227 36.177 C 102.570 35.942, 100.021 37.645, 94.811 42.469 C 87.136 49.575, 84.275 50.434, 84.833 45.464 C 85.017 43.834, 84.872 39.720, 84.512 36.323 C 83.900 30.557, 83.651 30.074, 80.779 29.073 C 76.426 27.555, 73.036 27.742, 72.347 29.537 M 123.338 74.250 C 122.232 75.487, 120.263 78.075, 118.962 80 C 117.661 81.925, 116.311 83.725, 115.963 84 C 115.614 84.275, 114.918 85.255, 114.415 86.178 C 113.912 87.100, 109.900 91.778, 105.500 96.572 C 96.666 106.198, 93.517 110.368, 92.525 113.750 C 91.449 117.420, 94.807 116.528, 99.115 112 C 101.208 109.800, 103.525 108, 104.264 108 C 105.925 108, 112 101.858, 112 100.177 C 112 99.502, 113.405 98.669, 115.122 98.326 C 117.193 97.911, 118.876 96.630, 120.122 94.518 C 121.155 92.767, 123.848 89.850, 126.107 88.035 C 133.118 82.400, 134.712 74.982, 129.349 72.943 C 125.917 71.638, 125.613 71.704, 123.338 74.250 M 127.655 99.829 C 126.745 100.835, 126 102.394, 126 103.293 C 126 104.193, 124.801 107.083, 123.336 109.715 C 121.871 112.347, 119.676 116.282, 118.457 118.460 C 115.718 123.354, 114.088 124.036, 114.009 120.322 C 113.791 110.189, 113.475 108.525, 111.702 108.182 C 108.389 107.542, 107 109.887, 107 116.122 C 107 120.948, 106.701 122, 105.329 122 C 104.410 122, 102.915 121.328, 102.007 120.507 C 100.663 119.290, 98.702 119.151, 91.429 119.757 C 82.739 120.480, 82.492 120.571, 82.194 123.142 C 81.793 126.602, 86.374 130, 91.440 130 C 93.437 130, 96.194 130.736, 97.567 131.636 C 101.289 134.075, 106.320 132.421, 106.996 128.535 C 107.363 126.430, 108.247 125.443, 110.245 124.909 C 113.323 124.087, 113.495 124.239, 114.439 128.646 C 115.089 131.680, 114.942 131.853, 110.307 133.528 C 102.959 136.182, 92.696 140.011, 90.825 140.797 C 87.729 142.096, 77 152.953, 77 154.786 C 77 159.464, 83.139 160.437, 87.818 156.500 C 89.452 155.125, 91.222 154, 91.751 154 C 92.280 154, 94.826 152.386, 97.410 150.413 C 103.032 146.121, 105 146.472, 105 151.769 C 105 153.876, 105.403 156.028, 105.895 156.550 C 107.576 158.336, 108.157 163.625, 106.794 164.741 C 106.083 165.323, 102.350 166.547, 98.500 167.459 C 94.650 168.372, 89.925 169.766, 88 170.557 C 86.075 171.348, 81.125 172.688, 77 173.535 C 67.805 175.424, 55 181.494, 55 183.964 C 55 188.019, 61.462 190.558, 64 187.500 C 64.685 186.675, 66.320 186, 67.635 186 C 68.950 186, 73.282 185.071, 77.263 183.935 C 81.243 182.800, 88.550 180.809, 93.500 179.511 C 98.450 178.213, 104.040 176.677, 105.922 176.096 C 110.804 174.591, 112.168 176.049, 111.797 182.380 L 111.500 187.437 103.500 190.314 C 99.100 191.897, 92.404 194.499, 88.621 196.096 C 84.837 197.693, 81.166 199, 80.463 199 C 77.980 199, 68.860 204.378, 66.414 207.284 C 63.855 210.325, 63.876 213.085, 66.477 215.834 C 67.526 216.942, 68.514 216.816, 72.309 215.087 C 74.822 213.942, 77.158 212.554, 77.498 212.003 C 77.839 211.451, 78.922 211, 79.904 211 C 80.886 211, 82.497 210.109, 83.482 209.020 C 84.468 207.930, 86.900 206.774, 88.887 206.449 C 90.874 206.125, 94.698 204.991, 97.383 203.930 C 100.069 202.868, 102.994 201.990, 103.883 201.978 C 104.773 201.966, 106.625 201.076, 108 200 C 111.351 197.379, 113.854 197.476, 114.425 200.250 C 116.883 212.183, 117.311 258.917, 115.077 271.500 C 114.491 274.800, 114.006 279.750, 114 282.500 C 113.994 285.250, 113.585 289.075, 113.091 291 C 110.590 300.755, 110.445 300.153, 115.216 299.809 L 119.500 299.500 120.236 294 C 121.634 283.548, 122.932 273.466, 124.034 264.500 C 124.697 259.106, 125.012 243.308, 124.820 225.068 L 124.500 194.637 129.500 193.451 C 137.400 191.579, 152.711 188.882, 158.869 188.280 C 161.966 187.977, 165.063 187.285, 165.750 186.742 C 167.770 185.147, 167.193 181.811, 164.390 178.885 C 162.198 176.597, 161.198 176.251, 158.140 176.719 C 156.138 177.026, 153.875 177.778, 153.111 178.389 C 151.834 179.410, 134.963 182.101, 134.141 181.414 C 133.943 181.249, 135.180 179.041, 136.891 176.507 C 138.601 173.973, 140 171.031, 140 169.970 C 140 167.861, 149.067 162.026, 152.370 162.009 C 153.398 162.004, 157.821 160.762, 162.199 159.250 L 170.158 156.500 172.162 159.250 C 174.879 162.977, 177.583 162.707, 181.615 158.305 C 185.490 154.074, 185.996 150.212, 183.027 147.524 C 181.140 145.817, 180.607 145.814, 170.777 147.471 C 165.125 148.424, 159.053 149.430, 157.285 149.707 C 155.517 149.984, 153.549 150.838, 152.913 151.605 C 152.276 152.372, 150.789 153, 149.608 153 C 147.638 153, 147.463 152.483, 147.481 146.713 C 147.498 141.101, 147.147 139.980, 144.217 136.277 C 141.441 132.770, 140.069 131.949, 135.347 130.968 C 132.275 130.331, 127.830 130.098, 125.469 130.452 C 122.820 130.850, 120.925 130.688, 120.518 130.029 C 120.155 129.442, 122.480 126.101, 125.684 122.604 C 128.888 119.107, 132.139 114.504, 132.910 112.373 C 133.680 110.243, 135.162 107.348, 136.203 105.940 C 137.724 103.882, 137.895 102.853, 137.072 100.690 C 136.241 98.505, 135.418 98, 132.680 98 C 130.685 98, 128.635 98.746, 127.655 99.829 M 117.565 141.896 C 117.241 142.418, 115.632 143.142, 113.989 143.503 C 112.345 143.864, 111 144.328, 111 144.535 C 111 144.742, 112.136 146.586, 113.525 148.632 C 114.914 150.679, 116.295 153.512, 116.595 154.927 C 117.529 159.348, 118.907 162.003, 120.229 161.927 C 120.928 161.887, 124.425 160.874, 128 159.677 C 134.778 157.407, 136.297 155.765, 137.586 149.318 C 137.991 147.296, 137.583 145.707, 136.231 144.037 C 134.536 141.943, 133.300 141.605, 126.224 141.297 C 121.785 141.103, 117.888 141.373, 117.565 141.896 M 124.776 170.153 C 120.279 171.798, 118.919 181, 123.173 181 C 123.684 181, 124.750 179.450, 125.541 177.555 C 126.333 175.660, 127.730 173.691, 128.645 173.179 C 129.648 172.617, 130.062 171.603, 129.686 170.624 C 128.983 168.793, 128.598 168.756, 124.776 170.153 M 29.667 247.667 C 27.348 249.985, 31.242 253.501, 42.085 258.879 C 43.507 259.585, 50.353 265.013, 57.297 270.943 C 69.445 281.315, 74.354 286.615, 80.274 295.750 L 83.028 300 91.264 299.930 C 95.794 299.891, 98.733 299.554, 97.795 299.180 C 95.245 298.164, 88.471 291.473, 82.494 284.070 C 74.455 274.111, 72.143 271.702, 64.030 264.828 C 55.601 257.687, 55.231 257.443, 45.265 252.469 C 41.286 250.483, 37.772 248.440, 37.456 247.929 C 36.800 246.867, 30.673 246.661, 29.667 247.667" stroke="none" fill="black" fill-rule="evenodd"/>
</svg>