<svg xmlns="http://www.w3.org/2000/svg" width="300" height="300" viewBox="0 0 300 300" version="1.1">
	<path d="M 134.219 7.559 C 131.448 9.500, 131.441 10.867, 134.175 16.111 C 135.643 18.928, 136.319 21.945, 136.256 25.392 C 136.097 33.940, 134.257 51.346, 133.231 54 C 132.699 55.375, 131.944 59.538, 131.553 63.251 C 130.953 68.935, 131.092 70.098, 132.433 70.613 C 134.762 71.506, 136.852 69.310, 137.629 65.150 C 138.833 58.701, 147.601 47, 151.228 47 C 152.237 47, 153.322 47.787, 153.640 48.750 C 155.269 53.693, 158.219 59.147, 159.537 59.653 C 160.356 59.967, 161.732 59.637, 162.596 58.920 C 164.670 57.199, 163.942 49.897, 160.562 38.500 C 160.137 37.069, 161.113 35.221, 163.995 32 C 168.609 26.844, 169.641 24.067, 168.050 21.093 C 166.070 17.393, 162.830 18.552, 156.422 25.250 C 153.134 28.688, 149.413 32.962, 148.154 34.750 C 146.894 36.538, 145.557 38, 145.182 38 C 144.807 38.001, 144.656 32.226, 144.846 25.168 C 145.178 12.864, 145.095 12.228, 142.846 9.748 C 139.771 6.358, 136.954 5.643, 134.219 7.559 M 85.139 20.332 C 84.319 21.320, 84.408 22.159, 85.485 23.582 C 86.283 24.637, 86.965 26.625, 87 28 C 87.062 30.450, 90 35.533, 90 33.191 C 90 32.536, 90.675 32, 91.500 32 C 92.359 32, 93 32.901, 93 34.107 C 93 35.484, 92.524 36.031, 91.625 35.686 C 90.571 35.282, 89.836 37.655, 88.485 45.829 C 87.515 51.698, 86.109 57.497, 85.361 58.715 C 84.612 59.933, 84 62.302, 84 63.978 C 84 65.655, 83.594 67.809, 83.097 68.764 C 80.798 73.188, 79.654 79.054, 80.858 80.258 C 82.353 81.753, 84.999 80.292, 86.634 77.068 C 87.258 75.838, 88.270 74.330, 88.884 73.716 C 89.498 73.102, 90 71.619, 90 70.420 C 90 68.933, 91.827 66.870, 95.750 63.929 C 98.912 61.558, 101.650 59.254, 101.833 58.809 C 102.550 57.070, 105.810 58.100, 106.393 60.250 C 106.728 61.488, 108.329 64.075, 109.950 66 C 112.417 68.929, 113.191 69.319, 114.699 68.387 C 117.123 66.889, 116.610 57.590, 113.913 54.162 C 111.938 51.652, 112.659 48.452, 115.440 47.385 C 116.159 47.109, 117.559 45.376, 118.551 43.535 C 120.254 40.374, 120.259 40.045, 118.654 37.594 C 117.719 36.167, 116.362 35, 115.639 35 C 114.915 35, 111.236 37.925, 107.462 41.500 C 97.658 50.787, 96.512 50.408, 97.998 38.367 C 99.594 25.436, 96.587 19.058, 88.872 19.015 C 87.427 19.007, 85.747 19.599, 85.139 20.332 M 139 80.698 C 138.175 80.995, 133.450 83.172, 128.500 85.535 C 123.550 87.898, 116.013 91.422, 111.751 93.366 C 102.788 97.454, 100.381 100.554, 103.496 103.996 C 105.939 106.695, 106.907 106.563, 114.432 102.500 C 124.459 97.086, 124.376 97.020, 125.488 111.321 L 126.096 119.143 121.798 123.167 C 114.480 130.019, 112.306 130.992, 104.309 130.996 C 99.947 130.999, 96.837 131.455, 96.403 132.157 C 96.010 132.793, 95.719 135.347, 95.756 137.832 C 95.828 142.549, 94.805 144.340, 81.631 162.563 C 75.789 170.644, 70 181.499, 70 184.370 C 70 188.803, 75.424 191.604, 78 188.500 C 78.685 187.675, 79.916 187, 80.737 187 C 81.558 187, 84.315 185.887, 86.865 184.527 C 89.414 183.166, 92.625 181.592, 94 181.029 C 97.561 179.570, 99.802 178.075, 105.659 173.250 C 108.497 170.912, 111.760 169, 112.909 169 C 114.059 169, 115.837 168.163, 116.860 167.140 C 117.883 166.117, 120.815 164.234, 123.375 162.955 C 129.210 160.041, 131.081 161.123, 129.201 166.322 C 128.540 168.148, 128 170.349, 128 171.214 C 128 172.079, 127.325 173.045, 126.500 173.362 C 125.609 173.703, 125 175.207, 125 177.064 C 125 180.194, 122.261 186, 120.784 186 C 120.353 186, 120 186.670, 120 187.489 C 120 188.308, 118.087 191.574, 115.750 194.747 C 111.095 201.067, 109.343 203.715, 108.307 206 C 105.917 211.269, 93.316 229.205, 87.255 235.965 C 86.020 237.342, 83.320 240.883, 81.255 243.834 C 71.336 258.006, 67.822 262.018, 59.489 268.690 C 54.212 272.913, 50.365 276.758, 50.173 277.998 C 49.404 282.971, 55.436 284.746, 59.298 280.683 C 60.509 279.408, 65.655 274.662, 70.733 270.136 C 77.300 264.283, 81.123 259.927, 83.970 255.051 C 86.173 251.280, 90.440 245.338, 93.454 241.847 C 100.359 233.849, 113.514 216.456, 115.221 213.066 C 120.617 202.355, 128.681 192.391, 131.255 193.254 C 132.824 193.779, 132.470 209.183, 130.399 230.500 C 129.598 238.750, 128.524 252.925, 128.012 262 C 127.500 271.075, 126.780 283.337, 126.412 289.250 L 125.743 300 129.227 300 L 132.711 300 133.450 293.250 C 133.857 289.538, 134.506 282.442, 134.892 277.482 C 135.279 272.523, 135.944 267.899, 136.371 267.208 C 137.513 265.361, 139.148 231.489, 139.616 200 C 139.889 181.602, 140.414 171.742, 141.203 170.209 C 142.161 168.347, 142.065 167.380, 140.691 165.054 C 138.253 160.926, 138.497 156.366, 141.250 154.616 C 144.736 152.400, 162.868 145.244, 169 143.665 C 179.307 141.010, 184.805 140.642, 187.527 142.426 C 190.555 144.410, 190.638 146.841, 187.925 154.014 C 186.784 157.031, 185.465 160.740, 184.993 162.256 C 184.522 163.771, 183.206 166.194, 182.068 167.640 C 180.931 169.087, 180 170.890, 180 171.648 C 180 172.407, 179.603 173.809, 179.117 174.764 C 178.631 175.719, 177.755 177.625, 177.171 179 C 173.429 187.810, 171.898 190.945, 171.097 191.440 C 170.598 191.748, 168.102 195.562, 165.549 199.916 C 159.940 209.483, 158.967 210.427, 156.537 208.651 C 155.324 207.764, 154.584 205.573, 154.262 201.918 C 153.727 195.831, 151.862 193.468, 148.862 195.074 C 147.305 195.907, 147 197.276, 147 203.427 C 147 210.760, 147.015 210.800, 151.593 215.892 C 154.119 218.701, 156.982 221, 157.955 221 C 161.390 221, 167.294 214.928, 173.250 205.270 C 176.563 199.896, 180.096 193.588, 181.101 191.250 C 182.107 188.912, 183.395 187, 183.964 187 C 184.534 187, 185 185.938, 185 184.640 C 185 183.341, 186.125 180.621, 187.500 178.595 C 188.875 176.569, 190 174.255, 190 173.452 C 190 172.649, 191.745 168.732, 193.878 164.746 C 198.076 156.901, 199.492 148.748, 198.177 140 C 197.597 136.147, 196.997 135.249, 194 133.752 C 187.981 130.745, 169.849 131.834, 163 135.613 C 156.545 139.174, 139.409 145.779, 138.624 145.007 C 138.142 144.534, 137.786 139.496, 137.832 133.811 C 137.921 123.001, 139.020 119.102, 142.993 115.507 C 144.097 114.508, 145 112.851, 145 111.825 C 145 110.799, 146.028 108.282, 147.285 106.230 C 151.141 99.937, 152 97.141, 152 90.882 C 152 84.427, 151.059 82.733, 146.510 81.004 C 143.678 79.927, 141.398 79.834, 139 80.698 M 134.586 93.905 C 133.240 95.393, 132.927 97.271, 133.161 102.474 C 133.506 110.157, 134.958 112.253, 138.019 109.483 C 139.108 108.497, 140 106.944, 140 106.033 C 140 105.121, 140.900 102.513, 142 100.236 C 143.100 97.959, 144 95.448, 144 94.655 C 144 91.577, 137.184 91.034, 134.586 93.905 M 124.200 134.200 C 123.540 134.860, 123 135.945, 123 136.611 C 123 138.618, 114.719 142, 109.803 142 L 105.238 142 101.565 149.435 C 99.544 153.524, 95.440 159.616, 92.445 162.973 C 86.733 169.374, 86.102 170.718, 88.396 171.599 C 90.310 172.333, 101 166.164, 101 164.325 C 101 163.196, 101.718 162.999, 104 163.500 C 107.105 164.182, 107.857 163.257, 105.837 161.237 C 104.040 159.440, 109.481 157.800, 114.662 158.577 C 118.457 159.146, 119.002 158.994, 119.014 157.364 C 119.024 156.163, 120.851 154.495, 124.149 152.675 L 129.269 149.850 128.647 143.900 C 127.552 133.422, 126.743 131.657, 124.200 134.200 M 134.769 225.430 C 134.498 226.843, 134.679 228, 135.170 228 C 136.574 228, 137.374 224.974, 136.263 223.863 C 135.592 223.192, 135.097 223.712, 134.769 225.430" stroke="none" fill="black" fill-rule="evenodd"/>
</svg>