<svg xmlns="http://www.w3.org/2000/svg" width="300" height="300" viewBox="0 0 300 300" version="1.1">
	<path d="M 130.463 18.060 C 130.102 18.644, 130.271 20.331, 130.838 21.810 C 134.292 30.828, 134.993 35.786, 133.998 44.143 C 132.540 56.373, 131.120 66.048, 130.490 68.031 C 129.788 70.242, 131.914 75, 133.604 75 C 135.181 75, 138 71.130, 138 68.965 C 138 65.925, 142.012 59, 143.773 59 C 144.723 59, 146.757 57.425, 148.293 55.500 C 151.034 52.064, 154.249 50.976, 155.531 53.050 C 155.888 53.628, 156.477 56.167, 156.840 58.692 C 157.211 61.272, 158.157 63.585, 159 63.973 C 159.825 64.352, 162.024 65.428, 163.886 66.363 C 167.063 67.958, 167.388 67.959, 169.136 66.377 C 172.146 63.653, 171.356 61.496, 165 55.080 C 161.700 51.749, 159 48.634, 159 48.157 C 159 47.680, 162.412 43.737, 166.583 39.395 C 173.684 32.001, 174.130 31.278, 173.606 28.003 C 172.419 20.595, 166.801 19.964, 161.966 26.697 C 157.173 33.371, 146.011 45, 144.398 45 C 142.503 45, 141.598 40.620, 142.965 38.064 C 144.787 34.661, 142.376 20.377, 139.659 18.473 C 137.223 16.767, 131.423 16.507, 130.463 18.060 M 75.655 33.829 C 73.499 36.211, 73.560 38.292, 75.847 40.361 C 77.933 42.249, 80.412 49.525, 79.482 51.029 C 79.146 51.573, 78.641 55.951, 78.360 60.759 C 77.647 72.938, 74.631 83.250, 69.733 90.250 C 67.521 93.412, 65.374 96, 64.962 96 C 63.563 96, 62.961 99.248, 64.105 100.627 C 66.072 102.996, 68.794 102.139, 72.008 98.139 C 73.715 96.016, 76.240 93.674, 77.621 92.935 C 79.035 92.178, 80.374 90.380, 80.686 88.818 C 80.991 87.293, 81.862 85.530, 82.621 84.900 C 83.379 84.270, 84 83.172, 84 82.459 C 84 81.746, 84.652 79.888, 85.449 78.331 C 86.246 76.774, 87.132 74.713, 87.418 73.750 C 87.703 72.787, 88.773 72, 89.794 72 C 90.816 72, 92.719 70.863, 94.024 69.474 C 96.378 66.969, 101.403 64, 103.290 64 C 103.881 64, 104.022 65.823, 103.644 68.581 C 102.913 73.916, 103.565 75.400, 109.380 81.644 C 113.204 85.749, 113.903 86.122, 115.834 85.089 C 118.108 83.872, 118.698 81.549, 117 80.500 C 116.450 80.160, 116 78.844, 116 77.576 C 116 76.307, 115.085 74.107, 113.968 72.686 C 111.963 70.138, 109.032 61.997, 109.011 58.920 C 109.005 58.051, 111.280 55.036, 114.067 52.219 C 118.398 47.843, 119.088 46.619, 118.817 43.799 C 118.538 40.896, 118.115 40.463, 115.288 40.189 C 112.488 39.919, 110.732 41.043, 101.624 48.939 C 95.875 53.923, 90.949 58, 90.675 58 C 90.401 58, 89.908 55.188, 89.578 51.750 C 88.750 43.109, 88.316 38.719, 88.145 37.250 C 87.608 32.621, 78.905 30.238, 75.655 33.829 M 157.690 110.154 C 156.409 110.871, 156 112.491, 156 116.850 C 156 120.012, 155.494 123.106, 154.876 123.724 C 154.069 124.531, 154.047 125.696, 154.799 127.854 C 155.443 129.701, 155.546 133.075, 155.066 136.609 C 154.167 143.240, 152.209 145.326, 143.891 148.523 C 137.776 150.873, 136.151 153.451, 138.149 157.637 C 140.093 161.712, 144.317 162.028, 148.121 158.384 C 152.012 154.657, 153.442 156.067, 152.053 162.263 C 151.488 164.784, 150.544 171.169, 149.955 176.451 C 149.366 181.733, 148.215 189.080, 147.397 192.778 C 146.579 196.475, 145.281 202.899, 144.511 207.054 C 142.289 219.059, 139.958 229.332, 138.964 231.500 C 138.459 232.600, 137.084 237.325, 135.907 242 C 134.731 246.675, 132.921 252.272, 131.884 254.438 C 130.848 256.604, 130 259.121, 130 260.033 C 130 262.041, 133.082 265, 135.174 265 C 137.993 265, 142 258.264, 142 253.524 C 142 252.213, 143.634 246.272, 145.631 240.321 C 147.629 234.369, 149.388 228.375, 149.542 227 C 149.890 223.883, 152.312 213.423, 154.521 205.500 C 156.503 198.388, 158.190 188.029, 161.524 162.500 C 162.145 157.746, 163.538 153.528, 166.306 148.023 C 167.657 145.335, 177.156 140.044, 180.679 140.017 C 186.428 139.973, 189.263 149.070, 189.401 168 C 189.511 182.940, 188.638 194.193, 187.044 198.383 C 186.470 199.894, 186 202.299, 186 203.727 C 186 209.679, 178.826 230.384, 176.610 230.825 C 173.748 231.396, 167.634 225.529, 165.680 220.336 C 163.112 213.516, 162.507 212.544, 160.595 212.167 C 155.942 211.252, 155.263 217.461, 159.163 225.250 C 161.281 229.481, 174.129 242.589, 177.073 243.523 C 178.395 243.943, 180.350 243.027, 183.307 240.604 C 187.123 237.478, 187.914 236.068, 190.226 228.287 C 191.662 223.454, 193.363 217.025, 194.006 214 C 194.649 210.975, 195.791 206.025, 196.543 203 C 199.677 190.412, 200.474 162.717, 198.113 148.500 C 197.382 144.100, 196.666 139.375, 196.521 138 C 196.376 136.625, 196.200 135.172, 196.129 134.770 C 196.058 134.369, 193.637 132.686, 190.750 131.030 C 183.659 126.963, 178.380 126.955, 172.500 131 C 165.809 135.604, 164.728 135.180, 165.481 128.250 C 165.824 125.088, 166.296 121.562, 166.530 120.415 C 166.961 118.302, 162.543 110.422, 160.485 109.632 C 159.877 109.399, 158.619 109.634, 157.690 110.154 M 105 112.691 C 98.940 116.957, 87.011 131.513, 86.985 134.674 C 86.976 135.678, 86.539 137.175, 86.013 138 C 84.482 140.402, 81.829 138.012, 79.446 132.084 C 78.290 129.209, 76.427 126.326, 75.305 125.678 C 74.183 125.030, 72.078 123.659, 70.627 122.632 C 68.491 121.118, 67.706 120.999, 66.495 122.004 C 64.803 123.409, 64.473 128.557, 66.015 129.509 C 67.115 130.189, 69.109 134.620, 71.589 141.895 C 74.323 149.913, 73.198 187.315, 69.917 197.500 C 68.230 202.737, 66.901 207.665, 63.038 223 C 61.749 228.119, 59.724 233.246, 57.881 236.059 C 55.333 239.947, 54.658 244.471, 56.408 245.923 C 58.055 247.290, 62 246.493, 62 244.793 C 62 244.204, 63.350 241.527, 65 238.846 C 66.650 236.164, 68 233.450, 68 232.814 C 68 232.178, 68.685 230.901, 69.522 229.976 C 70.359 229.051, 71.534 225.640, 72.134 222.397 C 72.733 219.154, 73.623 215.719, 74.112 214.764 C 74.600 213.809, 75 211.771, 75 210.236 C 75 208.701, 75.674 206.483, 76.498 205.307 C 79.971 200.348, 82.801 181.591, 83.292 160.269 L 83.644 145.039 86.879 141.483 C 88.659 139.527, 91.387 137.673, 92.942 137.362 C 94.539 137.042, 98.091 134.446, 101.101 131.398 C 104.033 128.429, 107.149 126, 108.027 126 C 110.047 126, 112.929 135.246, 113.492 143.534 C 113.715 146.816, 114.205 153.248, 114.582 157.828 L 115.266 166.156 111.575 169.199 C 109.544 170.873, 105.875 175.290, 103.420 179.016 C 100.966 182.742, 98.292 186.343, 97.479 187.018 C 96.665 187.693, 96 188.698, 96 189.251 C 96 190.366, 92.191 195.108, 84.250 203.881 C 81.362 207.071, 79 210.124, 79 210.666 C 79 212.327, 83.513 216, 85.564 216.007 C 88.235 216.017, 96.812 206.360, 98.176 201.806 C 98.792 199.752, 100.354 197.077, 101.648 195.861 C 102.941 194.646, 104 193.064, 104 192.345 C 104 191.627, 105.482 188.668, 107.293 185.769 C 109.104 182.871, 111.119 179.262, 111.771 177.750 C 112.423 176.238, 113.642 175, 114.479 175 C 115.799 175, 116.017 178.475, 116.129 201.250 C 116.280 231.944, 116.117 237.189, 114.973 238.387 C 114.493 238.890, 111.178 236.581, 107.313 233.051 C 103.566 229.628, 99.029 226.104, 97.230 225.220 C 94.231 223.744, 93.828 223.743, 92.359 225.213 C 90.917 226.654, 90.910 227.033, 92.281 228.991 C 95.341 233.360, 110.164 248, 111.528 248 C 112.299 248, 114.507 249.385, 116.435 251.077 C 120.544 254.685, 122.870 254.396, 126.088 249.877 C 128.170 246.952, 128.197 246.492, 127.109 232.686 C 126.493 224.884, 125.754 208.600, 125.467 196.500 C 124.829 169.683, 123.110 137.984, 122.217 136.552 C 121.855 135.974, 121.252 133.250, 120.876 130.500 C 119.708 121.963, 117.636 116.273, 114.921 114.145 C 111.068 111.125, 107.886 110.659, 105 112.691 M 92.102 155.309 C 89.684 156.514, 87.122 158.400, 86.409 159.500 C 85.280 161.244, 85.459 161.910, 87.807 164.701 C 90.436 167.826, 90.618 167.879, 95.462 166.942 C 98.838 166.288, 101.475 164.962, 103.712 162.794 C 107.617 159.010, 107.740 158.044, 104.686 155.174 C 101.766 152.432, 97.792 152.474, 92.102 155.309" stroke="none" fill="black" fill-rule="evenodd"/>
</svg>