<svg xmlns="http://www.w3.org/2000/svg" width="300" height="300" viewBox="0 0 300 300" version="1.1">
	<path d="M 124.301 17.099 C 123.598 17.802, 123.389 20.948, 123.722 25.849 C 124.041 30.545, 123.596 37.884, 122.571 44.850 C 121.050 55.189, 121.042 56.415, 122.474 58.600 C 123.339 59.920, 124.918 61, 125.984 61 C 127.981 61, 132 57.403, 132 55.616 C 132 54.117, 137.172 49, 138.687 49 C 139.661 49, 140 51.056, 140 56.965 C 140 63.933, 140.253 65.065, 142.021 66.011 C 144.434 67.303, 146 66.548, 146 64.094 C 146 63.111, 146.935 61.229, 148.077 59.912 C 149.560 58.201, 149.991 56.705, 149.585 54.674 C 148.775 50.625, 145.342 46.188, 142.730 45.816 L 140.500 45.497 142.831 43.499 C 144.113 42.399, 148.088 38.761, 151.663 35.413 C 157.180 30.247, 158.114 28.888, 157.832 26.431 C 157.593 24.351, 156.751 23.275, 154.838 22.606 C 152.445 21.770, 151.360 22.350, 144.122 28.338 C 139.693 32.002, 135.604 35, 135.035 35 C 134.434 35, 134 32.427, 134 28.868 C 134 24.401, 133.435 21.821, 131.918 19.368 C 129.779 15.906, 126.477 14.923, 124.301 17.099 M 73.962 17.836 C 69.029 19.446, 67.594 26.217, 71.133 31.187 C 74.375 35.740, 74.460 41.105, 71.540 56.972 C 69.129 70.075, 68.552 71.840, 65.439 75.640 C 61.449 80.510, 61.337 81.090, 63.934 83.440 C 65.778 85.109, 66.014 85.105, 68.974 83.357 C 70.681 82.348, 73.424 79.139, 75.068 76.226 C 76.712 73.312, 79.075 70.542, 80.320 70.069 C 81.564 69.595, 83.181 68.486, 83.914 67.604 C 85.819 65.308, 90 65.496, 90 67.878 C 90 68.910, 90.675 70.315, 91.500 71 C 92.325 71.685, 93 72.990, 93 73.900 C 93 76.145, 95.805 80, 97.438 80 C 98.167 80, 99.935 78.463, 101.367 76.585 C 103.826 73.362, 103.896 72.956, 102.628 69.335 C 101.889 67.226, 100.972 63.391, 100.590 60.813 C 99.983 56.714, 100.154 55.988, 101.948 55.028 C 104.319 53.759, 104.662 49.456, 102.608 46.750 C 100.203 43.582, 96.705 44.671, 90.109 50.639 C 83.091 56.991, 81.097 56.916, 82.914 50.370 C 84.325 45.288, 84.344 24.331, 82.938 23.462 C 82.354 23.101, 81.488 21.783, 81.013 20.534 C 80.147 18.258, 76.705 16.940, 73.962 17.836 M 121 74.501 C 120.315 75.326, 119.525 78.036, 119.244 80.524 C 118.964 83.011, 118.344 85.287, 117.867 85.582 C 117.390 85.877, 117 87.580, 117 89.368 C 117 91.155, 116.339 93.491, 115.532 94.559 C 114.724 95.626, 114.049 97.434, 114.032 98.576 C 114.014 99.717, 112.942 101.645, 111.649 102.860 C 110.355 104.075, 108.699 106.966, 107.968 109.285 C 106.303 114.567, 105.233 116, 102.950 116 C 100.743 116, 96.806 120.778, 97.237 122.933 C 97.468 124.086, 98.866 124.528, 102.525 124.605 C 113.166 124.829, 115 125.034, 115 125.999 C 115 128.469, 79.907 163.910, 72.561 168.859 C 69.845 170.690, 66.020 172.399, 64.061 172.658 C 57.158 173.572, 56 174.026, 56 175.819 C 56 176.799, 56.540 178.140, 57.200 178.800 C 59.917 181.517, 72.621 179.117, 77.500 174.965 C 78.600 174.028, 80.642 172.994, 82.037 172.666 C 83.530 172.314, 88.672 167.641, 94.537 161.304 C 100.017 155.384, 106.243 148.956, 108.374 147.020 C 110.505 145.084, 115.399 140.423, 119.249 136.662 C 126.202 129.871, 126.282 129.827, 130.875 130.332 C 138.408 131.161, 144.802 132.591, 146.216 133.764 C 146.943 134.368, 150.680 135.606, 154.519 136.516 C 158.359 137.426, 162.400 138.532, 163.500 138.973 C 168.208 140.865, 178.745 145.285, 181.651 146.587 C 183.384 147.364, 185.677 148, 186.746 148 C 187.815 148, 189.536 148.934, 190.569 150.077 C 192.357 152.052, 192.365 152.298, 190.748 155.117 C 188.789 158.530, 188.832 158.559, 197.103 159.408 C 201.853 159.895, 202.977 159.683, 204.487 158.014 C 206.446 155.849, 206.120 150.054, 203.887 147.364 C 202.255 145.398, 191.244 139, 189.491 139 C 188.720 139, 184.132 137.259, 179.295 135.132 C 174.458 133.005, 168.977 130.931, 167.116 130.523 C 165.255 130.116, 161.880 128.941, 159.616 127.913 C 157.352 126.885, 154.358 126.034, 152.961 126.022 C 151.565 126.010, 148.658 125.100, 146.500 124 C 144.342 122.900, 141.858 122, 140.980 122 C 140.101 122, 138.509 121.356, 137.441 120.570 C 135.559 119.184, 135.600 119.037, 138.750 115.772 C 140.537 113.920, 142 112.109, 142 111.747 C 142 111.049, 146.244 104.363, 148.034 102.241 C 148.618 101.548, 149.343 98.848, 149.644 96.241 C 150.141 91.930, 149.918 91.242, 147.188 88.652 C 144.479 86.082, 143.666 85.849, 138.843 86.267 C 135.904 86.522, 132.538 87.055, 131.363 87.452 C 129.326 88.140, 129.224 87.866, 129.188 81.613 C 129.167 78.004, 128.865 74.590, 128.516 74.026 C 127.556 72.473, 122.413 72.798, 121 74.501 M 126.404 102.330 C 116.586 110.301, 113.330 113.754, 114.563 114.887 C 115.078 115.360, 117.445 115.991, 119.823 116.288 C 123.707 116.774, 124.456 116.508, 127.203 113.665 C 132.826 107.842, 138.169 100.117, 137.821 98.311 C 137.168 94.918, 134.282 95.934, 126.404 102.330 M 42.090 125.134 C 39.478 127.938, 39.416 130.617, 41.932 131.964 C 44.264 133.212, 45.477 136.292, 45.490 141 C 45.504 145.952, 48.558 145.723, 52.168 140.500 C 55.341 135.911, 55.639 132.008, 53.199 127 C 51.774 124.075, 50.893 123.450, 47.837 123.195 C 45.081 122.965, 43.666 123.442, 42.090 125.134 M 130.655 139.829 C 129.745 140.835, 129 142.138, 129 142.725 C 129 143.949, 122.381 150, 121.042 150 C 120.553 150, 118.841 151.105, 117.236 152.455 C 114.877 154.440, 114.348 155.636, 114.473 158.705 L 114.628 162.500 119.497 162.239 C 122.192 162.095, 125.144 161.274, 126.109 160.401 C 128.161 158.544, 131.363 158.891, 131.747 161.011 C 132.077 162.835, 121.013 169.128, 116.032 169.951 C 113.657 170.343, 112.087 171.373, 111.052 173.216 C 109.658 175.699, 109.703 176.125, 111.621 178.704 C 114.446 182.502, 117.216 182.662, 122.252 179.320 C 128.199 175.372, 131.895 173.562, 132.590 174.256 C 133.832 175.499, 131.818 178.833, 129.159 179.934 C 127.633 180.566, 124 183.039, 121.086 185.430 C 118.172 187.820, 114.598 190.385, 113.144 191.130 C 111.690 191.875, 107.672 194.429, 104.216 196.806 C 100.760 199.183, 96.485 201.613, 94.716 202.205 C 90.384 203.657, 87.993 205.874, 88.032 208.405 C 88.073 211.115, 90.282 214, 92.315 214 C 95.144 214, 106.487 208.041, 111.422 203.963 C 114.060 201.783, 116.640 200, 117.157 200 C 118.539 200, 128.128 193.713, 131.472 190.614 C 133.814 188.443, 134.600 188.178, 135.611 189.217 C 137.216 190.867, 139.572 238.828, 138.119 240.281 C 137.498 240.902, 134.002 240.621, 128.327 239.496 C 123.472 238.534, 117.025 237.404, 114 236.986 C 110.975 236.568, 105.575 235.687, 102 235.028 C 98.425 234.369, 90.775 232.966, 85 231.910 C 79.225 230.855, 72.418 229.993, 69.872 229.995 C 64.764 230, 63.565 229.063, 62.539 224.262 C 61.781 220.716, 58.131 217.299, 54.088 216.349 C 52.664 216.014, 49.157 213.999, 46.293 211.870 C 43.429 209.742, 40.672 208, 40.165 208 C 39.659 208, 38.646 207.278, 37.914 206.396 C 37.181 205.514, 35.575 204.409, 34.343 203.940 C 33.112 203.472, 31.377 201.979, 30.489 200.623 C 29.099 198.502, 29.048 197.552, 30.126 193.828 C 30.815 191.448, 32.419 188.228, 33.690 186.673 C 34.960 185.119, 36 183.261, 36 182.546 C 36 181.830, 36.675 180.685, 37.500 180 C 39.812 178.081, 39.361 171.532, 36.616 167.185 C 33.768 162.673, 26.790 159.017, 24.164 160.660 C 23.249 161.233, 22.363 163.062, 22.196 164.724 C 21.944 167.233, 22.580 168.292, 25.946 170.957 C 28.521 172.996, 30 174.985, 30 176.406 C 30 177.637, 27.691 181.987, 24.869 186.072 C 17.085 197.340, 16.873 199.386, 22.755 206.453 C 25.273 209.479, 34.835 216.143, 43.192 220.698 C 52.620 225.836, 50.115 228.984, 36.559 229.033 C 25.829 229.071, 19.831 230.885, 12.250 236.381 C 8.132 239.367, 7.012 240.760, 7.055 242.844 C 7.132 246.542, 12.219 250.427, 16.908 250.369 C 22.984 250.294, 32.139 248.163, 37.445 245.588 C 45.307 241.773, 48.712 241.058, 60 240.852 C 73.243 240.610, 84.509 241.725, 88.920 243.714 C 90.802 244.562, 97.777 245.867, 104.420 246.614 C 111.064 247.362, 119.425 248.876, 123 249.979 C 126.575 251.082, 130.542 251.988, 131.816 251.992 C 136.917 252.009, 138.002 253.556, 137.980 260.785 C 137.970 264.478, 137.254 271.100, 136.390 275.500 C 133.422 290.624, 133.573 292.025, 138.469 294.735 C 140.026 295.596, 141.020 295.410, 143.219 293.844 C 145.738 292.050, 146.003 291.282, 146.036 285.682 C 146.066 280.502, 147.366 264.935, 148.390 257.500 C 148.778 254.681, 150.443 254.621, 161.626 257.020 C 180.599 261.092, 201.292 263.827, 220 264.734 C 225.225 264.988, 229.957 265.569, 230.515 266.025 C 231.802 267.077, 251.802 267.412, 258.754 266.498 C 264.688 265.717, 268 262.681, 268 258.020 C 268 255.287, 265.353 252, 263.152 252 C 262.498 252, 258.742 253.125, 254.807 254.500 C 246.563 257.380, 241.622 257.548, 227.500 255.425 C 222 254.598, 211.650 253.256, 204.500 252.442 C 191.455 250.956, 180.536 249.155, 167.500 246.338 C 163.650 245.506, 158.250 244.594, 155.500 244.310 C 152.750 244.026, 149.939 243.337, 149.254 242.778 C 148.514 242.174, 148.031 239.479, 148.065 236.131 C 148.181 224.415, 147.246 196.235, 146.527 189.805 C 145.813 183.418, 145.899 182.998, 148.388 180.691 C 150.567 178.672, 155.464 176.384, 161.750 174.448 C 163.345 173.956, 163.383 167.783, 161.800 166.200 C 159.981 164.381, 154.808 164.804, 152 167 C 149.085 169.280, 146 169.600, 146 167.622 C 146 166.864, 146.934 165.624, 148.076 164.865 C 149.439 163.961, 150.212 162.286, 150.326 159.994 C 150.485 156.805, 150.238 156.471, 147.500 156.173 C 143.314 155.717, 142.735 154.864, 141.921 147.960 C 141.505 144.435, 140.466 141.068, 139.447 139.942 C 137.232 137.494, 132.819 137.438, 130.655 139.829" stroke="none" fill="black" fill-rule="evenodd"/>
</svg>