<svg xmlns="http://www.w3.org/2000/svg" width="300" height="300" viewBox="0 0 300 300" version="1.1">
	<path d="M 105.090 15.392 C 104.207 16.456, 104.318 17.808, 105.564 21.142 C 107.964 27.565, 108.788 34.493, 108.233 43.573 C 107.644 53.218, 108.782 56.278, 112.785 55.810 C 114.446 55.616, 116.245 54.295, 117.604 52.271 C 118.797 50.495, 121.146 47.345, 122.823 45.271 C 125.389 42.099, 126.162 41.675, 127.687 42.603 C 129.088 43.455, 129.614 45.387, 130 51.103 C 130.444 57.667, 130.725 58.500, 132.500 58.500 C 133.793 58.500, 134.610 57.730, 134.810 56.323 C 134.981 55.125, 135.768 53.607, 136.560 52.950 C 138.677 51.193, 138.513 40.224, 136.334 37.817 C 134.758 36.075, 134.891 35.785, 138.798 32.441 C 141.542 30.092, 143.137 27.784, 143.555 25.559 C 144.267 21.763, 142.692 18, 140.390 18 C 139.543 18, 135.265 21.262, 130.884 25.250 C 122.688 32.709, 119.496 34.829, 118.286 33.619 C 117.903 33.237, 117.646 30.539, 117.715 27.623 C 117.828 22.802, 117.495 21.947, 114.035 18.161 C 110.123 13.882, 107.116 12.951, 105.090 15.392 M 62 18 C 59.674 20.326, 59.362 25.226, 61.431 26.943 C 62.218 27.596, 63.322 30.275, 63.884 32.895 C 64.872 37.500, 64.362 41.576, 60.315 61.448 C 59.484 65.531, 54.318 74.882, 50.868 78.548 C 49.291 80.224, 48 82.643, 48 83.923 C 48 85.996, 48.341 86.182, 51.125 85.625 C 52.844 85.281, 55.080 85, 56.094 85 C 58.085 85, 64.485 75.898, 65.590 71.498 C 66.483 67.941, 76.269 59.756, 79.129 60.174 C 81.037 60.452, 81.403 61.198, 81.636 65.282 C 82.275 76.454, 92.074 80.506, 91.956 69.550 C 91.915 65.692, 90.917 59.939, 89.504 55.414 C 89.049 53.956, 89.664 52.364, 91.550 50.122 C 93.789 47.463, 94.146 46.285, 93.647 43.211 C 93.030 39.410, 90.699 36.786, 88.653 37.591 C 88.019 37.840, 86.501 39.582, 85.280 41.462 C 82.751 45.356, 74.350 50.750, 72.968 49.368 C 72.435 48.835, 72.694 45.825, 73.603 41.984 C 75.222 35.142, 74.787 24.372, 72.734 20.500 C 70.233 15.783, 65.353 14.647, 62 18 M 101.369 71.482 C 101.056 72.297, 101.520 75.077, 102.400 77.660 C 104.687 84.371, 104.466 89.367, 101.750 92.404 C 99.220 95.233, 89.137 99.407, 75 103.476 C 63.797 106.701, 61.083 108.691, 62.786 112.430 C 64.127 115.374, 68.497 116.795, 71.137 115.146 C 72.147 114.516, 73.828 114, 74.872 114 C 75.917 114, 78.060 113.328, 79.636 112.506 C 84.278 110.085, 85.173 110.500, 84.470 114.750 C 83.884 118.288, 82.810 121.933, 81.010 126.500 C 80.576 127.600, 79.403 131.425, 78.403 135 C 76.695 141.107, 71.602 154.791, 68.540 161.500 C 67.787 163.150, 65.558 168.011, 63.586 172.303 C 61.614 176.595, 60 180.600, 60 181.203 C 60 181.807, 58.919 184.596, 57.598 187.400 C 51.840 199.628, 49.170 205.851, 47.502 210.931 C 46.521 213.918, 44.910 217.743, 43.922 219.431 C 42.933 221.119, 41.391 224.750, 40.495 227.500 C 38.941 232.267, 36.995 236.737, 35.051 240 C 34.560 240.825, 33.143 244.200, 31.903 247.500 C 30.662 250.800, 28.441 255.300, 26.965 257.500 C 20.093 267.749, 20.715 274.279, 27.853 266.814 C 30.122 264.441, 31.983 261.993, 31.989 261.372 C 31.995 260.752, 32.622 259.729, 33.381 259.098 C 34.632 258.060, 36.474 254.486, 47.607 231.491 C 49.473 227.636, 51 223.789, 51 222.941 C 51 222.094, 51.391 220.973, 51.869 220.450 C 52.346 219.928, 53.549 217.250, 54.541 214.500 C 55.533 211.750, 56.638 209.050, 56.997 208.500 C 57.356 207.950, 58.165 205.693, 58.794 203.486 C 59.424 201.278, 61.078 197.928, 62.470 196.041 C 63.861 194.155, 65 191.885, 65 190.997 C 65 190.109, 65.661 188.509, 66.468 187.441 C 67.276 186.374, 67.951 184.821, 67.968 183.992 C 67.986 183.163, 69.125 180.371, 70.500 177.788 C 71.875 175.205, 73 172.249, 73 171.220 C 73 170.191, 74.125 168.292, 75.500 167 C 76.875 165.708, 78 164.004, 78 163.212 C 78 162.420, 78.834 160.136, 79.852 158.136 C 81.993 153.935, 83.747 149.246, 85.395 143.323 C 86.034 141.026, 87.253 138.326, 88.104 137.323 C 89.990 135.101, 93.710 115.236, 93.171 110.265 C 92.971 108.418, 94.034 107.509, 99.311 105.015 C 102.822 103.357, 106.065 102, 106.518 102 C 106.972 102, 108.053 101.399, 108.921 100.665 C 109.790 99.930, 112.075 98.727, 114 97.990 C 115.925 97.253, 118.625 95.893, 120 94.967 C 124.338 92.046, 133.845 87, 135.013 87 C 135.629 87, 137.678 85.822, 139.567 84.381 C 143.722 81.212, 144.097 77.765, 140.541 75.435 C 136.955 73.085, 133.219 74.299, 124.792 80.550 C 115.600 87.370, 114 87.521, 114 81.571 C 114 77.916, 113.411 76.518, 110.632 73.571 C 107.058 69.782, 102.422 68.737, 101.369 71.482 M 127.867 100.820 C 126.970 101.194, 124.707 103.525, 122.840 106 C 120.973 108.475, 117.883 111.287, 115.973 112.248 C 112.184 114.156, 105.485 114.595, 104.500 113 C 103.760 111.802, 98.330 111.657, 97.614 112.816 C 96.961 113.872, 99.169 120.294, 100.904 122.384 C 101.641 123.273, 103.288 124, 104.563 124 C 105.839 124, 107.133 124.406, 107.439 124.902 C 107.974 125.767, 103.852 132.704, 98.522 139.911 C 94.596 145.221, 95.172 148.580, 100.442 151.096 C 103.047 152.340, 103.586 153.414, 105.160 160.500 C 106.138 164.900, 106.952 170.197, 106.969 172.271 C 107.004 176.493, 107.372 176.250, 95.153 180.092 C 87.439 182.518, 81.486 186.252, 80.440 189.322 C 79.639 191.674, 82.618 195, 85.528 195 C 87.676 195, 94.192 192.570, 100.635 189.367 C 105.555 186.921, 107.500 187.804, 107.500 192.484 C 107.500 195.421, 106.984 196.714, 105.500 197.501 C 101.613 199.562, 92.434 205.796, 87.250 209.895 C 81.428 214.499, 80.643 217.167, 84.039 220.811 C 85.160 222.015, 86.439 223, 86.880 223 C 87.321 223, 89.510 221.313, 91.745 219.250 C 99.137 212.429, 106.258 207.925, 107.573 209.240 C 108.558 210.225, 108.046 249.353, 107.001 252.997 C 106.450 254.916, 106 258.207, 106 260.309 C 106 262.411, 105.594 264.890, 105.098 265.817 C 104.602 266.744, 104.040 269.302, 103.848 271.501 C 103.513 275.356, 103.615 275.511, 106.711 275.810 C 109.559 276.086, 110.090 275.721, 111.401 272.583 C 112.214 270.637, 112.897 268.247, 112.919 267.273 C 113.021 262.809, 114.053 251.865, 114.973 245.500 C 115.529 241.650, 116.467 230.465, 117.057 220.645 C 118.216 201.353, 118.989 197.657, 121.753 198.194 C 123.606 198.554, 123.748 205.511, 123.018 260.282 L 122.781 278.065 119.391 279.481 C 117.526 280.260, 116 281.517, 116 282.275 C 116 285.860, 124.423 289.953, 128.886 288.536 C 130.698 287.961, 130.819 286.814, 130.854 269.993 C 130.874 260.131, 131.364 242.036, 131.943 229.781 C 132.521 217.526, 132.925 206.825, 132.840 206 C 132.755 205.175, 132.756 201.202, 132.842 197.171 L 133 189.841 135.903 190.479 C 138.551 191.060, 138.910 190.804, 139.978 187.566 C 140.623 185.613, 141.706 183.674, 142.385 183.258 C 144.578 181.913, 147 177.622, 147 175.082 C 147 172.676, 151.432 167, 153.310 167 C 153.825 167, 157.582 164.975, 161.659 162.500 C 165.735 160.025, 169.675 158, 170.413 158 C 171.151 158, 172.282 157.365, 172.927 156.588 C 173.572 155.811, 176.304 154.647, 179 154 C 184.899 152.585, 186.238 151.178, 185.818 146.833 C 185.266 141.115, 179.120 140.798, 171 146.069 C 170.175 146.604, 167.475 148.047, 165 149.276 C 162.525 150.504, 158.801 152.564, 156.725 153.852 C 152.176 156.674, 150.532 156.210, 148.587 151.554 C 146.712 147.066, 140.938 143.933, 137.963 145.791 C 135.190 147.523, 135 147.381, 135 143.568 C 135 140.921, 135.664 139.663, 137.904 138.068 C 139.502 136.931, 141.291 136, 141.881 136 C 142.471 136, 143.703 134.857, 144.619 133.459 C 145.952 131.424, 146.061 130.428, 145.163 128.459 C 143.453 124.705, 138.010 125.087, 132.033 129.381 C 129.445 131.240, 126.242 133.069, 124.914 133.446 C 123.586 133.822, 119.911 135.251, 116.747 136.622 C 111.152 139.046, 109 139.079, 109 136.741 C 109 135.412, 127.017 117.548, 131.772 114.162 C 133.547 112.898, 135 111.367, 135 110.761 C 135 110.154, 135.787 108.786, 136.750 107.721 C 138.435 105.857, 138.371 105.677, 135.038 102.892 C 131.461 99.905, 130.638 99.667, 127.867 100.820 M 118.270 145.772 C 117.043 146.723, 115.749 148.963, 115.395 150.750 C 114.809 153.703, 114.972 154, 117.184 154 C 120.726 154, 122.682 152.007, 123.316 147.750 C 123.774 144.673, 123.572 144.004, 122.187 144.022 C 121.259 144.034, 119.496 144.822, 118.270 145.772 M 134.046 158.445 C 132.472 160.341, 133.091 164.414, 135 164.721 C 135.825 164.854, 137.539 164.090, 138.808 163.024 C 140.715 161.422, 140.926 160.731, 140.023 159.043 C 138.751 156.666, 135.769 156.368, 134.046 158.445 M 117.655 164.829 C 115.527 167.181, 115.527 170.881, 117.656 171.698 C 118.715 172.105, 119.976 171.513, 121.156 170.056 C 123.418 167.262, 123.534 164.419, 121.418 163.607 C 119.336 162.808, 119.545 162.740, 117.655 164.829 M 117.517 182.981 C 116.050 184.603, 115.953 185.238, 116.984 186.481 C 118.706 188.556, 120.722 188.388, 121.965 186.066 C 124.516 181.299, 121.151 178.966, 117.517 182.981 M 90.612 237.876 C 89.678 238.908, 87.317 240.011, 85.364 240.328 C 83.412 240.645, 80.357 242.016, 78.575 243.375 C 70.328 249.665, 57.469 255.859, 49 257.619 C 40.908 259.302, 39 260.314, 39 262.922 C 39 267.002, 43.230 268.055, 49.346 265.500 C 51.320 264.675, 54.188 263.978, 55.718 263.952 C 57.248 263.926, 59.909 263.138, 61.631 262.202 C 63.353 261.266, 67.403 259.190, 70.631 257.588 C 73.859 255.986, 77.573 253.849, 78.885 252.838 C 80.197 251.827, 82.764 251, 84.590 251 C 86.458 251, 89.478 249.936, 91.493 248.569 C 94.182 246.744, 95.911 246.274, 98.425 246.682 C 101.023 247.103, 102.276 246.724, 104.006 244.994 L 106.236 242.764 103.368 240.418 C 101.791 239.128, 99.739 238.056, 98.809 238.036 C 97.879 238.016, 96.840 237.550, 96.500 237 C 95.506 235.392, 92.449 235.846, 90.612 237.876 M 166 239.122 C 164.075 239.684, 160.700 240.449, 158.500 240.822 C 155.912 241.261, 154.500 242.030, 154.500 243 C 154.500 244.159, 155.865 244.516, 160.500 244.572 C 163.800 244.611, 167.850 245.147, 169.500 245.763 C 171.150 246.379, 175.425 247.641, 179 248.567 C 182.575 249.494, 187.300 250.861, 189.500 251.605 C 194.560 253.315, 208.552 257.062, 212.500 257.763 C 214.150 258.056, 217.107 259.309, 219.071 260.548 C 221.035 261.786, 224.845 263.547, 227.537 264.461 C 230.229 265.375, 235.086 267.895, 238.330 270.061 C 244.763 274.357, 245.213 274.492, 248.066 272.965 C 250.699 271.556, 250.495 268.193, 247.510 263.800 C 245.146 260.320, 243.322 259.232, 228.500 252.454 C 226.850 251.699, 223.700 250.792, 221.500 250.437 C 217.571 249.804, 208.168 247.054, 200.730 244.364 C 198.656 243.614, 195.709 243, 194.180 243 C 192.651 243, 190.954 242.554, 190.409 242.009 C 187.906 239.506, 171.381 237.551, 166 239.122" stroke="none" fill="black" fill-rule="evenodd"/>
</svg>