<svg xmlns="http://www.w3.org/2000/svg" width="300" height="300" viewBox="0 0 300 300" version="1.1">
	<path d="M 114.667 3.667 C 114.300 4.033, 114 6.193, 114 8.467 C 114 10.740, 113.469 13.131, 112.820 13.780 C 111.914 14.686, 111.947 15.533, 112.965 17.435 C 113.967 19.307, 114.121 22.588, 113.596 30.883 C 112.700 45.045, 112.008 47.215, 106.515 53.088 C 102.636 57.235, 101.974 58.535, 102.112 61.734 C 102.269 65.357, 100.930 70.291, 98.648 74.500 C 98.051 75.600, 96.134 79.200, 94.386 82.500 C 92.639 85.800, 90.043 90.525, 88.617 93 C 87.192 95.475, 85.709 98.175, 85.321 99 C 84.934 99.825, 81.669 105, 78.066 110.500 C 74.462 116, 71.196 121.266, 70.807 122.202 C 70.418 123.138, 65.715 129.663, 60.356 136.702 C 54.997 143.741, 47.437 154.061, 43.556 159.635 C 32.324 175.768, 25.573 184.185, 18.973 190.284 C 15.590 193.410, 13.010 196.538, 13.239 197.234 C 13.467 197.930, 15.203 198.633, 17.096 198.797 C 19.842 199.033, 21.126 198.478, 23.455 196.047 C 25.061 194.371, 26.953 193, 27.661 193 C 28.369 193, 29.619 191.704, 30.438 190.119 C 31.258 188.535, 33.294 186.089, 34.964 184.684 C 36.634 183.279, 38 181.677, 38 181.125 C 38 180.573, 39.688 178.107, 41.750 175.645 C 43.813 173.184, 46.453 169.946, 47.618 168.451 L 49.735 165.734 54.618 167.576 C 59.887 169.565, 63.133 172.674, 71.124 183.384 L 76.261 190.268 71.467 199.384 C 65.676 210.395, 62.234 215.342, 55 223.052 C 49.383 229.038, 39.494 236.971, 37.569 237.036 C 36.981 237.056, 35.159 238.167, 33.521 239.506 C 31.343 241.286, 30.839 242.239, 31.648 243.048 C 32.871 244.271, 40.264 242.610, 43 240.497 C 43.825 239.860, 46.686 238.090, 49.358 236.564 C 55.889 232.833, 67.461 221.690, 76.323 210.596 C 83.768 201.275, 84.578 199.908, 87.455 191.808 C 89.003 187.448, 89.005 186.937, 87.475 184.601 C 85.853 182.127, 86.053 180.979, 88.622 178 C 96.567 168.790, 101 162.558, 101 160.600 C 101 159.785, 101.450 158.840, 102 158.500 C 102.550 158.160, 103 156.506, 103 154.824 C 103 152.098, 103.244 151.848, 105.250 152.517 C 106.487 152.929, 108.965 153.364, 110.756 153.484 C 116.568 153.871, 119.886 158.470, 120.483 166.963 C 120.727 170.439, 121.415 171.919, 123.596 173.658 C 126.175 175.715, 126.290 176.089, 125.053 178.400 C 123.900 180.556, 123.940 181.259, 125.340 183.396 C 126.578 185.285, 127.994 185.958, 131.226 186.192 C 137.580 186.652, 137.498 187.781, 129.890 204.689 C 128.854 206.994, 127.541 209.166, 126.973 209.517 C 126.405 209.868, 124.363 208.770, 122.435 207.077 C 120.135 205.058, 117.866 204, 115.833 204 C 114.130 204, 111.333 203.140, 109.618 202.088 C 106.125 199.946, 98.220 198.478, 95.251 199.420 C 92.108 200.418, 90.694 204.604, 92.546 207.430 C 93.740 209.252, 95.369 209.941, 99.793 210.493 C 105.566 211.214, 117.229 215.115, 119.671 217.142 C 121.805 218.913, 121.258 220.479, 116.883 225.124 C 114.619 227.528, 112.257 230.221, 111.633 231.109 C 109.454 234.215, 102.744 238, 99.419 238 C 95.583 238, 94.571 239.155, 95.425 242.557 C 95.971 244.734, 96.574 245, 100.962 245 C 104.167 245, 107.215 244.246, 109.693 242.839 C 114.042 240.370, 121.984 233.098, 122.032 231.542 C 122.088 229.672, 126.859 225, 128.702 225.010 C 129.691 225.015, 132.921 226.147, 135.880 227.524 C 141.862 230.309, 144 229.719, 144 225.282 C 144 222.766, 140.661 217.152, 138.300 215.700 C 135.556 214.013, 137.543 208.993, 140.950 209.006 C 142.584 209.013, 143.970 209.672, 153.275 214.865 C 156.452 216.638, 161.402 219.336, 164.275 220.861 C 173.765 225.896, 179.459 229.223, 182.613 231.573 C 184.326 232.849, 186.917 234.192, 188.373 234.557 C 189.828 234.923, 191.266 235.622, 191.568 236.111 C 191.871 236.600, 192.841 237, 193.725 237 C 194.609 237, 198.520 238.963, 202.416 241.361 C 206.312 243.760, 212.182 247.172, 215.460 248.943 C 221.165 252.025, 226.170 255.256, 228.666 257.467 C 229.307 258.035, 234.595 262.295, 240.416 266.934 C 247.994 272.973, 251 275.982, 251 277.529 C 251 279.609, 253.778 283, 255.482 283 C 255.936 283, 258.686 285.250, 261.594 288 C 268.549 294.578, 271.759 294.555, 273.340 287.914 C 273.772 286.099, 273.292 284.429, 271.728 282.311 C 267.420 276.477, 252.350 262.285, 246.464 258.520 C 243.191 256.427, 238.173 252.866, 235.312 250.607 C 229.650 246.137, 221.704 240.944, 218.690 239.743 C 217.645 239.327, 215.600 238.168, 214.145 237.168 C 212.690 236.168, 209.925 234.742, 208 234 C 206.075 233.258, 203.159 231.717, 201.521 230.575 C 198.167 228.239, 196.912 227.454, 191.386 224.240 C 189.249 222.996, 186.825 221.582, 186 221.096 C 185.175 220.611, 183.375 219.725, 182 219.128 C 178.774 217.726, 172.186 213.978, 169.027 211.746 C 167.668 210.786, 165.939 210, 165.186 210 C 164.434 210, 161.259 208.205, 158.132 206.011 C 154.313 203.333, 150.895 201.810, 147.723 201.375 C 142.808 200.702, 142.060 199.745, 144.365 197.079 C 145.116 196.210, 146.004 193.386, 146.339 190.802 C 146.887 186.567, 146.690 185.901, 144.339 184.052 C 142.904 182.923, 140.891 182, 139.865 182 C 136.934 182, 137.650 180.590, 142.264 177.277 C 145.541 174.924, 146.802 173.188, 147.715 169.777 C 148.367 167.336, 148.652 164.386, 148.348 163.221 C 148.003 161.904, 148.966 158.939, 150.897 155.374 C 152.604 152.223, 154 148.915, 154 148.022 C 154 147.130, 154.456 145.944, 155.013 145.387 C 156.399 144.001, 154.369 138.019, 151.730 135.712 C 150.113 134.298, 148.725 134.062, 145.093 134.580 C 139.893 135.322, 135.670 137.577, 128.647 143.362 C 124.601 146.694, 123.519 147.160, 122.147 146.160 C 116.130 141.775, 111.822 141.462, 107.198 145.072 C 104.960 146.820, 104.797 146.802, 101.309 144.435 C 96.956 141.481, 95.510 141.426, 89.877 144.002 C 82.659 147.303, 77.727 151.281, 73.708 157.044 C 71.616 160.045, 69.473 162.651, 68.947 162.835 C 68.421 163.019, 66.608 162.007, 64.919 160.585 C 63.148 159.095, 60.608 158, 58.923 158 C 55.479 158, 55.095 156.129, 58 153.500 C 59.100 152.505, 60 151.252, 60 150.716 C 60 149.731, 64.038 144.808, 70.840 137.500 C 72.887 135.300, 76.306 130.575, 78.437 127 C 80.567 123.425, 83.089 119.600, 84.040 118.500 C 87.231 114.808, 96 101.581, 96 100.459 C 96 99.848, 97.062 98.351, 98.360 97.132 C 100.270 95.337, 101.175 95.102, 103.110 95.897 C 104.424 96.437, 109.775 98.442, 115 100.353 C 120.225 102.263, 128.575 105.847, 133.555 108.317 C 138.535 110.786, 145.015 113.521, 147.954 114.394 C 150.893 115.267, 153.907 116.849, 154.650 117.911 C 155.394 118.973, 157.347 120.137, 158.990 120.498 C 160.633 120.859, 162.221 121.549, 162.519 122.031 C 162.818 122.514, 165.245 124.097, 167.914 125.550 C 170.582 127.002, 173.259 129.273, 173.861 130.595 C 174.712 132.461, 175.733 133, 178.420 133 C 180.324 133, 182.160 133.450, 182.500 134 C 183.509 135.633, 186.562 135.142, 188.464 133.040 C 190.704 130.565, 189.885 126.765, 186.774 125.197 C 182.161 122.873, 174.399 118.442, 171.492 116.474 C 168.582 114.504, 147.145 103.778, 132 96.715 C 123.678 92.834, 112.912 88.616, 108.860 87.648 C 104.907 86.704, 104.585 84.317, 107.849 80.152 C 113.813 72.541, 114.611 68.102, 110.500 65.408 C 107.940 63.731, 107.097 61, 109.138 61 C 112.149 61, 123 48.517, 123 45.054 C 123 43.203, 129.161 35, 130.551 35 C 131.325 35, 132.836 36.718, 133.907 38.817 C 134.978 40.916, 136.533 43.197, 137.363 43.886 C 141.398 47.235, 145.660 38.617, 142.005 34.500 C 139.406 31.572, 138.707 28.433, 140.302 26.855 C 141.055 26.110, 143.588 23.776, 145.929 21.668 C 150.818 17.269, 152.351 13.305, 150.840 8.972 C 149.503 5.135, 146.315 5.045, 142.942 8.750 C 141.564 10.262, 138.427 13.355, 135.969 15.623 C 133.511 17.890, 130.440 20.928, 129.145 22.373 C 124.684 27.349, 123.817 26.078, 124.493 15.551 L 125.100 6.103 122.099 4.551 C 118.945 2.920, 115.789 2.545, 114.667 3.667 M 62.200 15.200 C 60.596 16.804, 60.687 20.584, 62.476 26.608 C 64.139 32.209, 63.951 44.824, 62.137 49.315 C 61.512 50.863, 60.985 54.013, 60.967 56.315 C 60.949 58.617, 60.064 62.975, 59 66 C 56.886 72.009, 56.507 75.577, 57.891 76.433 C 58.821 77.007, 66 69.647, 66 68.118 C 66 67.637, 67.463 66.639, 69.250 65.901 C 71.037 65.164, 75.356 62.828, 78.847 60.710 C 82.338 58.593, 85.458 57.125, 85.781 57.448 C 86.105 57.771, 85.792 60.289, 85.086 63.043 C 83.622 68.754, 84.656 71.408, 89.320 73.903 C 91.577 75.112, 92.232 75.078, 94.423 73.643 C 96.932 71.998, 96.992 71.185, 94.945 66.500 C 94.464 65.400, 93.942 63.160, 93.785 61.523 C 93.602 59.608, 92.691 58.145, 91.232 57.422 C 87.551 55.597, 87.577 55.287, 91.778 50.871 C 96.012 46.421, 99.013 39.598, 97.420 38.041 C 96.914 37.546, 95.298 36.845, 93.828 36.482 C 91.614 35.935, 90.919 36.276, 89.767 38.475 C 88.147 41.566, 75.420 52, 73.269 52 C 72.050 52, 71.943 50.950, 72.633 45.750 C 74.184 34.067, 72.794 18.794, 69.918 15.918 C 67.752 13.752, 63.997 13.403, 62.200 15.200 M 102.594 112.073 C 99.369 115.412, 95.104 119.186, 93.115 120.459 C 86.958 124.400, 83.662 128.516, 84.378 131.368 C 85.355 135.263, 88.210 135.467, 93.778 132.041 C 96.497 130.369, 99.135 129, 99.640 129 C 100.146 129, 104.034 125.593, 108.280 121.428 C 116.162 113.698, 117.776 110.176, 114.800 107.200 C 112.083 104.483, 108.566 105.887, 102.594 112.073 M 136.785 150.832 C 132.021 155.798, 130.268 159.350, 129.794 165 C 129.530 168.142, 129.755 168.500, 131.992 168.500 C 133.868 168.500, 134.899 167.619, 136.160 164.940 C 137.082 162.982, 138.548 160.790, 139.418 160.068 C 140.288 159.346, 141 158, 141 157.078 C 141 156.155, 141.390 154.972, 141.868 154.450 C 142.345 153.928, 143.001 152.078, 143.325 150.340 C 144.246 145.402, 141.819 145.584, 136.785 150.832 M 86.595 157.500 C 84.569 158.875, 82.289 160, 81.528 160 C 79.116 160, 75.877 165.135, 76.201 168.447 C 76.439 170.876, 77.020 171.561, 79.043 171.796 C 81.993 172.140, 84.175 170.398, 89.304 163.606 C 95.260 155.720, 93.862 152.569, 86.595 157.500" stroke="none" fill="black" fill-rule="evenodd"/>
</svg>