<svg xmlns="http://www.w3.org/2000/svg" width="300" height="300" viewBox="0 0 300 300" version="1.1">
	<path d="M 145.038 22.750 C 141.763 26.701, 141.602 29.937, 144.529 32.927 C 145.658 34.081, 146.427 34.126, 148.538 33.165 C 149.975 32.510, 151.481 32.179, 151.886 32.429 C 152.290 32.679, 152.594 36.317, 152.561 40.514 L 152.500 48.143 146 51.723 C 142.425 53.692, 138.150 56.308, 136.500 57.535 C 134.850 58.763, 132.547 60.057, 131.382 60.409 C 127.615 61.551, 126.074 64.137, 126.859 68 C 127.492 71.111, 127.956 71.531, 131.035 71.778 C 133.573 71.981, 135.277 71.379, 137.406 69.528 C 139.004 68.137, 141.157 67, 142.191 67 C 145.287 67, 154.534 60.310, 163.616 51.500 C 170.102 45.209, 170.433 40, 164.348 40 C 160.975 40, 160.922 39.935, 161.551 36.577 C 163.067 28.499, 162.594 26.168, 158.696 22.491 C 153.480 17.570, 149.264 17.650, 145.038 22.750 M 65.607 41.250 C 64.384 43.162, 64.363 44.476, 65.462 50 C 66.174 53.575, 67.261 57.767, 67.878 59.315 C 68.663 61.284, 68.689 62.713, 67.965 64.065 C 66.641 66.539, 66.394 66.509, 62.755 63.447 C 60.815 61.815, 58.779 61.003, 57.110 61.197 C 54.875 61.456, 54.520 61.955, 54.638 64.663 C 54.717 66.478, 55.996 69.355, 57.638 71.413 C 60.104 74.503, 61.081 75, 64.691 75 C 69.893 75, 70.712 76.192, 68.063 79.911 C 66.928 81.505, 66 83.096, 66 83.447 C 66 84.280, 58.371 94.515, 54.407 99 C 38.966 116.469, 36 120.143, 36 121.794 C 36 122.837, 36.882 124.488, 37.960 125.464 C 40.782 128.018, 51.988 127.276, 55.218 124.322 C 56.473 123.173, 59.075 121.440, 61 120.469 C 62.925 119.499, 66.447 117.113, 68.827 115.169 C 72.198 112.414, 73.340 111.932, 73.993 112.988 C 76.324 116.761, 76.338 140.259, 74.033 183.500 C 73.023 202.450, 72.593 205.876, 70.930 208.210 C 68.423 211.729, 68.497 213.178, 71.314 215.826 C 74.186 218.523, 76.014 218.563, 79.273 216 C 82.303 213.617, 82.649 211.071, 83.599 184.250 C 83.954 174.213, 84.491 166, 84.793 166 C 85.095 166, 86.064 166.653, 86.946 167.451 C 87.827 168.249, 91.238 169.396, 94.524 170 C 97.811 170.604, 101.767 171.357, 103.316 171.672 C 105.120 172.040, 107.636 171.513, 110.316 170.206 C 118.730 166.103, 125.629 163.131, 128.292 162.463 C 129.792 162.086, 131.266 161.378, 131.568 160.889 C 131.871 160.400, 132.979 160, 134.032 160 C 136.290 160, 146.354 155.429, 150.178 152.665 C 155.395 148.896, 155.597 149.689, 155.879 175.123 C 156.022 187.956, 156.550 200.627, 157.053 203.281 C 157.563 205.969, 157.706 220.376, 157.376 235.803 C 157.050 251.036, 156.834 264.400, 156.896 265.500 C 156.958 266.600, 157.017 273.575, 157.028 281 C 157.039 288.425, 157.298 295.738, 157.603 297.250 C 158.119 299.800, 158.515 300, 163.060 300 C 167.607 300, 168.002 299.801, 168.516 297.250 C 168.820 295.738, 169.544 293.005, 170.125 291.179 C 171.010 288.396, 170.882 287.528, 169.340 285.824 C 167.624 283.926, 167.484 280.993, 167.263 242.145 C 167.133 219.240, 166.840 197.575, 166.611 194 C 166.383 190.425, 166.040 178.090, 165.848 166.589 L 165.500 145.679 170 143.208 C 177.187 139.262, 183.917 136, 184.873 136 C 185.358 136, 186.373 135.252, 187.128 134.337 C 187.882 133.423, 190.300 131.818, 192.500 130.770 C 202.452 126.031, 203.960 124.796, 203.985 121.365 C 204.010 117.790, 196.253 114.164, 194.533 116.947 C 193.581 118.487, 185.014 124, 183.572 124 C 182.842 124, 181.685 124.675, 181 125.500 C 180.315 126.325, 179.223 127, 178.572 127 C 177.921 127, 175.871 128.120, 174.016 129.488 C 169.792 132.605, 164.135 133.823, 162.906 131.882 C 162.424 131.122, 162.024 127.552, 162.015 123.950 C 161.996 115.555, 159.375 112.811, 154.666 116.255 C 152.646 117.732, 151.562 129.987, 153.007 135.023 C 154.186 139.134, 153.637 140.218, 149.225 142.494 C 147.176 143.551, 144.239 145.270, 142.698 146.313 C 135.539 151.160, 114.532 157.323, 107.668 156.590 C 103.524 156.148, 102.526 156.406, 100.668 158.396 C 98.672 160.532, 97.943 160.669, 91.500 160.108 L 84.500 159.500 84.347 132.749 C 84.260 117.716, 84.589 105.754, 85.097 105.440 C 85.593 105.133, 86 103.839, 86 102.563 C 86 101.288, 86.675 99.685, 87.500 99 C 88.325 98.315, 89.007 97.248, 89.016 96.628 C 89.025 96.007, 90.395 93.953, 92.061 92.063 C 95.464 88.202, 95.637 84.663, 92.445 84.206 C 91.314 84.044, 89.557 84.832, 88.540 85.956 C 86.128 88.621, 84.380 88.547, 83.630 85.750 C 82.225 80.506, 83.029 77.285, 87.196 71.466 C 89.504 68.243, 92.884 62.658, 94.708 59.053 L 98.024 52.500 95.901 50.750 C 91.217 46.889, 87.279 48.753, 82.754 56.976 C 81.678 58.931, 80.374 60.024, 79.355 59.824 C 77.393 59.439, 74.069 50.159, 74.028 44.950 C 74.013 42.998, 73.460 40.860, 72.800 40.200 C 70.869 38.269, 67.168 38.809, 65.607 41.250 M 170.641 64.844 C 168.754 66.930, 166.178 75.629, 163.044 90.500 C 162.465 93.250, 161.343 97.135, 160.550 99.133 C 157.653 106.441, 161.767 111.348, 167.592 107.531 C 169.550 106.249, 171.372 106.054, 176.285 106.605 C 179.703 106.988, 183.531 107.972, 184.791 108.792 C 188.242 111.039, 192 109.049, 192 104.974 C 192 99.391, 188.311 97.234, 174.500 94.742 C 173.323 94.530, 172.671 93.789, 172.916 92.941 C 173.144 92.148, 173.853 88.800, 174.490 85.500 C 175.686 79.303, 176.150 77.792, 178.573 72.216 C 180.621 67.504, 180.371 66.243, 177.050 64.526 C 173.280 62.576, 172.666 62.607, 170.641 64.844 M 134.350 78.199 C 133.179 79.755, 127 95.689, 127 97.152 C 127 97.716, 125.650 101.093, 124 104.658 C 122.350 108.223, 121 111.367, 121 111.645 C 121 111.922, 118.958 115.307, 116.461 119.166 C 113.422 123.864, 112.123 126.812, 112.529 128.091 C 114.224 133.433, 123.881 126.972, 128.730 117.250 C 132.675 109.339, 133.627 108.989, 140.799 112.812 C 144.089 114.566, 147.435 116, 148.235 116 C 149.885 116, 153 112.898, 153 111.255 C 153 108.912, 144.902 103.743, 140.443 103.241 C 136.452 102.791, 135.997 102.473, 135.974 100.120 C 135.960 98.679, 137.642 94.224, 139.712 90.219 C 143.288 83.302, 143.400 82.802, 141.956 80.219 C 140.281 77.221, 135.952 76.071, 134.350 78.199 M 68.842 94.750 C 68.035 95.713, 66.581 97.775, 65.610 99.332 C 64.640 100.890, 62.242 103.940, 60.283 106.109 C 58.323 108.278, 57.032 110.365, 57.413 110.746 C 58.460 111.793, 66.325 107.291, 69.910 103.593 C 73.890 99.487, 75.345 93, 72.286 93 C 71.199 93, 69.650 93.787, 68.842 94.750 M 58.351 148.765 C 56.781 149.769, 49.227 160.161, 44.611 167.667 C 42.525 171.058, 38.385 176.287, 35.409 179.286 C 32.434 182.285, 30 185.237, 30 185.846 C 30 187.856, 34.833 190.259, 37.519 189.585 C 40.441 188.851, 47.157 182.263, 50.725 176.630 C 53.618 172.063, 57.534 167.529, 64.822 160.309 C 70.774 154.411, 71.555 150.775, 67 150.165 C 65.625 149.981, 64.073 149.419, 63.550 148.915 C 62.414 147.820, 59.941 147.749, 58.351 148.765" stroke="none" fill="black" fill-rule="evenodd"/>
</svg>