<svg xmlns="http://www.w3.org/2000/svg" width="300" height="300" viewBox="0 0 300 300" version="1.1">
	<path d="M 117.655 15.829 C 115.395 18.326, 115.576 20.338, 118.359 23.673 C 124.880 31.485, 126.438 41.320, 122.233 48.122 C 120.870 50.328, 120 53.338, 120 55.849 C 120 59.356, 120.354 60.051, 122.398 60.564 C 126.669 61.636, 129.410 60.649, 130.914 57.500 C 133.063 53.002, 138.520 47.602, 140.247 48.265 C 141.172 48.619, 141.905 50.656, 142.195 53.676 C 143.117 63.269, 147.736 67.765, 150.747 62 C 152.075 59.458, 151.941 50.200, 150.498 44.762 C 149.908 42.537, 150.355 41.360, 152.886 38.477 C 156.247 34.649, 156.522 33.504, 155.025 29.565 C 153.931 26.688, 151.867 26.250, 150 28.500 C 149.315 29.325, 148.085 30, 147.266 30 C 146.448 30, 143.572 31.846, 140.877 34.103 C 134.620 39.342, 133 38.850, 133 31.710 C 133 25.134, 130.591 19.887, 126.026 16.519 C 121.971 13.527, 119.893 13.356, 117.655 15.829 M 72.295 23.690 C 70.180 24.109, 70.091 24.574, 70.120 35.121 C 70.137 41.167, 69.728 46.651, 69.213 47.307 C 68.698 47.963, 67.992 50.676, 67.646 53.335 C 67.299 55.994, 66.112 59.439, 65.007 60.990 C 63.903 62.540, 63 64.338, 63 64.985 C 63 66.300, 56.308 76.691, 54.902 77.561 C 52.945 78.770, 53.989 83.038, 56.525 84.193 C 58.785 85.223, 59.414 84.991, 62.525 81.976 C 64.436 80.123, 66 78.112, 66 77.507 C 66 74.771, 81.632 63, 85.265 63 C 86.159 63, 87.627 64.748, 88.617 66.993 C 89.586 69.189, 91.278 71.271, 92.377 71.620 C 95.286 72.543, 98.156 68.605, 97.873 64.079 C 97.405 56.576, 97.838 55.455, 102.500 52.107 C 107.409 48.582, 107.931 46.769, 105.100 43.086 C 103.327 40.780, 103.042 40.728, 98.717 41.939 C 95.701 42.784, 91.954 45.191, 87.492 49.152 C 83.808 52.422, 80.278 54.921, 79.647 54.706 C 78.295 54.243, 78.389 50.793, 80.096 38.227 C 81.296 29.405, 81.258 28.822, 79.322 26.227 C 77.206 23.390, 76 22.955, 72.295 23.690 M 174.035 75.934 C 171.475 80.717, 174.626 86.867, 181.500 90.505 C 183.205 91.408, 183.451 92.387, 183.167 97.143 C 182.702 104.923, 184.556 105.341, 189.976 98.678 C 195.809 91.508, 195.296 88.676, 186.640 80.250 C 179.761 73.554, 175.998 72.266, 174.035 75.934 M 133.732 79.130 C 132.779 79.663, 132 80.736, 132 81.515 C 132 83.483, 129.413 84.616, 123.066 85.425 C 120.077 85.806, 115.714 86.991, 113.371 88.059 C 111.027 89.126, 108.651 90, 108.090 90 C 106.664 90, 105 93.399, 105 96.312 C 105 100.427, 107.172 101.394, 113.229 99.974 C 116.128 99.294, 118.950 98.406, 119.500 97.999 C 120.769 97.062, 133.829 94.493, 134.394 95.069 C 134.627 95.306, 134.971 97.952, 135.158 100.949 C 135.450 105.597, 135.204 106.552, 133.483 107.449 C 128.656 109.965, 121.689 115.701, 120.376 118.240 C 118.532 121.806, 115.496 121.810, 113.797 118.250 C 112.312 115.137, 107.876 114.028, 105.336 116.136 C 103.584 117.590, 104.071 125.190, 105.956 125.819 C 106.552 126.017, 107.980 128.052, 109.128 130.340 C 110.912 133.895, 111.261 136.678, 111.525 149.473 C 111.816 163.611, 111.959 164.548, 114.086 166.271 C 117.581 169.100, 120.291 168.135, 121.797 163.524 C 122.800 160.455, 122.830 159.052, 121.930 157.370 C 120.261 154.251, 121.679 152.399, 124.075 154.568 C 125.556 155.908, 126.957 156.121, 130.725 155.581 C 139.423 154.335, 139.517 154.345, 139.275 156.500 C 139.152 157.600, 138.597 161.198, 138.041 164.497 C 137.053 170.365, 137.094 170.555, 139.917 173.379 C 142.472 175.933, 143.140 176.147, 145.741 175.240 C 147.357 174.677, 149.795 174.429, 151.158 174.690 C 153.125 175.066, 154.224 174.395, 156.474 171.446 C 159.541 167.424, 163.989 159.148, 163.996 157.450 C 163.998 156.872, 164.522 155.878, 165.160 155.240 C 165.798 154.602, 166.433 152.824, 166.572 151.290 C 166.710 149.755, 167.293 146.475, 167.868 144 C 169.213 138.208, 169.308 121.308, 168 120.500 C 167.450 120.160, 167 118.532, 167 116.883 C 167 114.711, 165.787 112.600, 162.602 109.229 C 158.700 105.099, 157.609 104.514, 152.920 104.037 C 148.075 103.545, 147.569 103.251, 146.828 100.500 C 145.434 95.320, 146.814 91.182, 150.522 89.423 C 152.335 88.562, 154.632 86.960, 155.626 85.861 C 157.269 84.045, 157.298 83.620, 155.935 81.182 C 154.045 77.798, 150.036 77.229, 144.783 79.598 C 141.178 81.224, 140.670 81.236, 138.171 79.760 C 136.258 78.630, 134.956 78.445, 133.732 79.130 M 148.081 113.929 C 146.982 114.624, 146.878 115.583, 147.618 118.164 C 148.415 120.942, 149.052 121.500, 151.428 121.500 C 155.773 121.500, 157.003 118.697, 154.042 115.545 C 151.484 112.822, 150.326 112.508, 148.081 113.929 M 54.949 116.051 C 52.224 118.776, 53.130 121.591, 58.097 125.833 C 60.244 127.666, 62 129.788, 62 130.548 C 62 132.595, 65.155 133.894, 67.750 132.914 C 68.987 132.447, 70 131.240, 70 130.232 C 70 129.225, 70.500 127.900, 71.110 127.290 C 72.634 125.766, 69.462 116.318, 66.982 114.990 C 63.702 113.235, 57.191 113.809, 54.949 116.051 M 129.084 122.839 C 121.613 130.149, 121.115 132.544, 127.250 131.658 C 129.588 131.320, 133.209 130.557, 135.298 129.962 L 139.096 128.879 138.798 123.199 C 138.391 115.447, 136.702 115.385, 129.084 122.839 M 154.250 132.031 C 151.306 133.214, 151.405 134.408, 154.565 135.848 C 157.578 137.220, 157.319 138.952, 153.050 146.002 C 149.679 151.568, 148.018 161.347, 150.530 160.832 C 152.015 160.528, 153.520 157.527, 156.965 148 C 158.880 142.704, 159.862 134.718, 158.839 132.750 C 157.824 130.797, 157.461 130.740, 154.250 132.031 M 132.500 140.492 C 124.936 142.414, 121.791 143.880, 122.275 145.256 C 122.793 146.728, 128.399 146.635, 131.406 145.106 C 132.558 144.521, 134.738 143.593, 136.250 143.045 C 137.762 142.498, 139 141.363, 139 140.525 C 139 138.790, 139.191 138.791, 132.500 140.492 M 44.250 149.662 C 42.186 150.495, 42.834 153.925, 45.573 156.664 C 47.578 158.669, 48.850 159.131, 51.323 158.753 C 55.537 158.109, 56.942 158.718, 58.066 161.674 C 58.736 163.436, 59.625 164.048, 61.184 163.819 C 65.616 163.170, 65.461 152.387, 60.986 149.992 C 59.105 148.986, 46.541 148.738, 44.250 149.662 M 171.981 161.523 C 171.248 162.406, 170.753 165.554, 170.802 169.018 C 170.901 176.005, 170.590 176.288, 160.974 177.949 C 157.413 178.564, 153.600 179.446, 152.500 179.909 C 146.362 182.492, 143.940 183.392, 138.500 185.112 C 135.200 186.155, 131.600 187.413, 130.500 187.907 C 126.309 189.790, 115.394 193.917, 113 194.525 C 110.050 195.273, 104.533 197.548, 100.946 199.495 C 99.542 200.257, 95.717 201.844, 92.446 203.020 C 82.801 206.489, 74.080 210.982, 72.972 213.053 C 72.211 214.475, 72.348 215.772, 73.495 217.991 C 75.772 222.393, 79.888 221.982, 89 216.443 C 90.925 215.273, 95.425 213.148, 99 211.720 C 102.575 210.292, 108.100 207.971, 111.279 206.562 C 114.457 205.153, 117.843 204, 118.804 204 C 119.765 204, 123.239 202.664, 126.525 201.031 C 129.811 199.399, 133.175 198.034, 134 198 C 134.825 197.965, 136.374 197.276, 137.441 196.468 C 138.509 195.661, 140.241 195, 141.290 195 C 142.339 195, 144.616 194.366, 146.349 193.590 C 151.853 191.128, 166.495 187, 169.727 187 C 172.390 187, 172.939 187.445, 173.516 190.072 C 173.887 191.761, 173.964 193.370, 173.687 193.647 C 173.409 193.924, 173.583 195.545, 174.071 197.248 C 175.248 201.353, 176.526 226.241, 176.395 242.500 C 176.286 255.924, 175.094 264.734, 172.633 270.295 C 171.853 272.058, 170.955 274.288, 170.638 275.250 C 170.322 276.212, 169.674 277, 169.200 277 C 167.894 277, 162.001 267.486, 161.990 265.360 C 161.975 262.398, 157.227 253, 155.746 253 C 155.006 253, 153.860 253.540, 153.200 254.200 C 151.838 255.562, 151.583 261.116, 152.817 262.550 C 153.267 263.072, 154.206 265.975, 154.903 269 C 155.601 272.025, 156.799 275.898, 157.565 277.607 C 159.291 281.457, 169.482 291, 171.867 291 C 174.587 291, 180.902 282.190, 180.965 278.307 C 180.984 277.101, 181.849 274.626, 182.887 272.807 C 185.545 268.148, 186.394 259.444, 186.381 237 C 186.366 209.083, 185.993 201.887, 184.405 198.816 C 182.637 195.397, 182.527 183.636, 184.250 182.211 C 184.938 181.642, 186.625 181.166, 188 181.152 C 189.375 181.138, 192.525 180.813, 195 180.428 C 197.475 180.044, 203.100 179.646, 207.500 179.545 C 211.900 179.443, 216.767 178.829, 218.315 178.180 C 219.863 177.531, 222.375 177, 223.896 177 C 229.248 177, 230.747 168.510, 225.774 166.360 C 224.390 165.761, 221.934 165.712, 219.500 166.235 C 217.300 166.707, 210.550 167.722, 204.500 168.491 C 198.450 169.260, 191.928 170.364, 190.007 170.945 C 188.085 171.525, 185.117 172, 183.411 172 C 180.415 172, 180.311 171.853, 180.385 167.750 C 180.427 165.412, 180.146 162.713, 179.762 161.750 C 178.884 159.552, 173.742 159.401, 171.981 161.523 M 76.821 181.388 C 73.664 184.706, 72 187.116, 72 188.372 C 72 189.114, 70.943 191.279, 69.650 193.183 C 68.358 195.088, 66.512 198.710, 65.549 201.233 C 63.496 206.608, 58.974 211.334, 56.364 210.832 C 54.067 210.389, 52.868 204.063, 54.180 199.311 C 55.238 195.478, 54.649 194, 52.062 194 C 50.284 194, 49.455 195.483, 47.086 202.899 C 44.447 211.161, 46.634 218.980, 52.119 220.892 C 56.995 222.591, 62.445 222.270, 64.345 220.171 C 65.255 219.165, 66 217.999, 66 217.579 C 66 217.159, 66.900 215.671, 68 214.273 C 69.100 212.874, 70 211.135, 70 210.408 C 70 209.681, 71.796 205.355, 73.991 200.793 C 76.187 196.232, 77.993 191.825, 78.006 191 C 78.019 190.175, 78.656 187.701, 79.421 185.503 C 81.254 180.235, 79.924 178.129, 76.821 181.388 M 122.250 218.098 C 120.312 220.116, 120.763 222.854, 123.480 225.571 C 125.919 228.010, 126.202 228.047, 140.230 227.776 L 154.500 227.500 154.500 224.608 C 154.500 219.467, 151.260 218.177, 136.500 217.443 C 126.453 216.944, 123.216 217.093, 122.250 218.098" stroke="none" fill="black" fill-rule="evenodd"/>
</svg>