<svg xmlns="http://www.w3.org/2000/svg" width="300" height="300" viewBox="0 0 300 300" version="1.1">
	<path d="M 101.557 39.937 C 100.593 41.002, 100.087 42.332, 100.434 42.893 C 101.141 44.037, 92.661 69.739, 91.041 71.359 C 90.469 71.931, 90 73.216, 90 74.214 C 90 75.971, 89.617 76.982, 87.140 81.762 C 86.496 83.006, 85.278 86.156, 84.434 88.762 C 83.590 91.368, 82.482 94.400, 81.972 95.500 C 81.463 96.600, 80.311 99.750, 79.412 102.500 C 77.850 107.281, 72.114 120.480, 69.926 124.326 C 69.355 125.331, 68.635 128.284, 68.327 130.888 C 67.268 139.831, 72.583 141.151, 82.564 134.425 C 85.350 132.548, 88.609 129.884, 89.808 128.506 C 91.904 126.095, 96 125.036, 96 126.904 C 96 127.402, 92.720 131.789, 88.711 136.654 C 78.366 149.209, 76 152.479, 76 154.222 C 76 155.065, 75.298 156.338, 74.440 157.050 C 72.885 158.340, 69 165.609, 69 167.228 C 69 167.697, 69.985 169.413, 71.188 171.040 C 73.139 173.680, 73.956 174, 78.738 174 C 84.184 174, 88.595 172.398, 90.945 169.566 C 91.660 168.705, 93.278 168, 94.540 168 C 97.152 168, 109.970 154.619, 109.989 151.872 C 110.022 146.957, 115.996 147.337, 121.076 152.578 C 122.900 154.460, 124.896 156, 125.512 156 C 126.128 156, 127.981 157.463, 129.630 159.250 C 138.019 168.346, 143.479 170.316, 145.363 164.926 C 146.088 162.851, 145.709 161.497, 143.402 157.926 C 139.574 152, 136.788 149.433, 131.006 146.503 C 128.340 145.152, 124.259 141.795, 121.939 139.042 C 117.001 133.186, 112.267 131.543, 108.960 134.536 C 107.882 135.512, 107 136.890, 107 137.598 C 107 138.307, 104.525 141.804, 101.500 145.369 C 98.475 148.935, 96 152.315, 96 152.880 C 96 154.320, 86.883 161.132, 85.574 160.671 C 83.852 160.064, 84.941 156.742, 87.925 153.500 C 89.444 151.850, 92.165 148.250, 93.971 145.500 C 95.778 142.750, 98.343 139.150, 99.672 137.500 C 113.281 120.601, 116.806 110.540, 110.554 106.443 C 107.711 104.581, 105.749 105.257, 99.821 110.143 C 97.247 112.264, 94.793 114, 94.368 114 C 93.943 114, 92.224 115.300, 90.548 116.890 C 87.131 120.129, 83 121.815, 83 119.969 C 83 119.328, 84.800 115.067, 87 110.500 C 89.200 105.933, 91.010 101.140, 91.022 99.848 C 91.034 98.557, 91.924 96.375, 93 95 C 94.076 93.625, 94.966 91.917, 94.978 91.204 C 94.990 90.491, 96.575 86.543, 98.500 82.432 C 100.425 78.320, 102 74.494, 102 73.928 C 102 73.363, 102.742 71.466, 103.649 69.713 C 106.686 63.839, 112.503 45.530, 112.191 42.827 C 111.965 40.871, 111.054 39.866, 108.792 39.077 C 104.534 37.593, 103.575 37.707, 101.557 39.937 M 98.235 171.250 C 95.804 174.258, 96.166 183.092, 99.165 194 C 99.695 195.925, 100.286 199.525, 100.480 202 C 100.673 204.475, 101.442 211.225, 102.189 217 C 103.125 224.247, 103.319 231.218, 102.813 239.500 C 102.003 252.784, 100.231 259.340, 97.330 259.789 C 95.247 260.112, 91 256.642, 91 254.617 C 91 253.900, 88.300 250.545, 85 247.162 C 81.700 243.779, 79 240.591, 79 240.078 C 79 238.599, 73.921 235, 71.834 235 C 68.914 235, 68.263 238.099, 70.825 239.800 C 72.021 240.594, 73 241.671, 73 242.193 C 73 242.714, 74.710 245.247, 76.800 247.821 C 78.890 250.394, 81.316 254.101, 82.192 256.057 C 83.067 258.013, 85.442 260.938, 87.468 262.557 C 89.495 264.176, 92.477 266.794, 94.095 268.375 C 97.951 272.144, 101.306 272.065, 105.389 268.108 C 108.896 264.708, 110.139 260.881, 112.080 247.500 C 113.623 236.858, 113.521 214.377, 111.911 210.500 C 111.226 208.850, 110.320 204.125, 109.898 200 C 109.477 195.875, 108.430 189.133, 107.572 185.019 C 106.714 180.904, 106.251 176.784, 106.543 175.864 C 106.889 174.774, 106.048 173.458, 104.133 172.095 C 100.734 169.674, 99.635 169.517, 98.235 171.250 M 138 227.548 C 138 229.520, 142.957 233.927, 145.223 233.968 C 147.457 234.009, 156 238.156, 156 239.199 C 156 239.640, 157.089 240, 158.419 240 C 159.749 240, 162.112 240.618, 163.669 241.374 C 174.029 246.401, 181.796 250, 182.287 250 C 183.874 250, 196.866 256.589, 199.327 258.642 C 202.678 261.437, 205.166 261.606, 209.065 259.302 C 211.390 257.929, 211.828 257.117, 211.359 255.052 C 210.697 252.142, 205.318 247.067, 202.853 247.027 C 201.947 247.012, 198.484 245.650, 195.159 244 C 191.833 242.350, 188.399 241, 187.528 241 C 186.656 241, 183.190 239.610, 179.825 237.911 C 176.460 236.213, 171.185 234.010, 168.103 233.016 C 165.021 232.021, 160.185 230.036, 157.355 228.604 C 153.248 226.526, 150.775 226, 145.105 226 C 139.358 226, 138 226.296, 138 227.548 M 50.500 229.859 C 46.237 232.489, 42.264 236.704, 38.472 242.621 C 36.667 245.437, 33.122 249.470, 30.595 251.582 C 23.701 257.345, 24.415 263, 32.036 263 C 35.025 263, 36.324 262.274, 39.336 258.918 C 41.351 256.674, 43 254.440, 43 253.954 C 43 253.468, 43.941 252.042, 45.092 250.785 C 46.242 249.528, 48.154 246.967, 49.342 245.094 C 50.529 243.220, 52.175 241.343, 53 240.922 C 53.825 240.500, 56.272 239.303, 58.439 238.262 C 63.484 235.835, 64.170 234, 60.031 234 C 57.447 234, 56.712 233.473, 55.850 231 C 54.622 227.478, 54.426 227.436, 50.500 229.859" stroke="none" fill="black" fill-rule="evenodd"/>
</svg>