<svg xmlns="http://www.w3.org/2000/svg" width="300" height="300" viewBox="0 0 300 300" version="1.1">
	<path d="M 104.667 52.667 C 104.300 53.033, 104 55.328, 104 57.766 C 104 61.712, 102.729 65.903, 99.916 71.236 C 99.412 72.191, 99 73.824, 99 74.864 C 99 75.904, 98.325 77.315, 97.500 78 C 96.675 78.685, 96 79.818, 96 80.517 C 96 82.066, 89.472 94.986, 85.903 100.500 C 84.479 102.700, 81.352 107.597, 78.954 111.382 C 76.555 115.167, 74.122 118.779, 73.546 119.409 C 70.668 122.558, 68 127.135, 68 128.924 C 68 130.027, 68.946 131.436, 70.102 132.054 C 71.882 133.007, 72.660 132.745, 75.191 130.340 C 76.834 128.778, 79.357 125.475, 80.798 123 C 82.239 120.525, 85.970 115.125, 89.091 111 C 97.314 100.129, 109 79.107, 109 75.187 C 109 74.167, 109.299 73.035, 109.664 72.670 C 110.029 72.305, 111.110 69.782, 112.068 67.063 C 113.557 62.835, 113.610 61.859, 112.436 60.310 C 111.681 59.315, 111.049 57.578, 111.032 56.450 C 110.978 53.011, 106.804 50.529, 104.667 52.667 M 110.513 90.980 C 109.131 93.169, 107.990 95.532, 107.978 96.230 C 107.966 96.929, 107.076 98.625, 106 100 C 104.924 101.375, 104.034 102.882, 104.022 103.349 C 104.010 103.816, 103.279 105.841, 102.398 107.849 C 101.517 109.857, 100.340 112.625, 99.782 114 C 99.224 115.375, 98.368 117.175, 97.878 118 C 97.388 118.825, 96.692 120.175, 96.331 121 C 95.212 123.557, 86.861 136.349, 84.368 139.327 C 81.934 142.233, 81.928 145.797, 84.354 148.862 C 85.414 150.203, 93.452 149.915, 97.415 148.394 C 99.957 147.419, 99.407 153.387, 96.469 158.649 C 92.637 165.512, 84.520 177.258, 82.125 179.405 C 77.490 183.560, 80.939 190.831, 86.921 189.517 C 88.602 189.148, 90.251 188.403, 90.586 187.861 C 91.512 186.363, 95.792 184.983, 97.491 185.635 C 98.579 186.052, 99 187.723, 99 191.621 C 99 194.594, 99.395 197.809, 99.877 198.764 C 104.124 207.170, 105.353 216.012, 105.429 238.715 C 105.493 257.958, 105.331 260.096, 103.682 261.715 C 101.934 263.431, 101.770 263.384, 99.437 260.500 C 98.102 258.850, 97.008 256.799, 97.005 255.941 C 97.002 255.084, 96.339 253.509, 95.532 252.441 C 94.724 251.374, 94.049 249.064, 94.032 247.309 C 94.014 245.554, 93.550 243.840, 93 243.500 C 92.450 243.160, 92 241.754, 92 240.375 C 92 238.997, 91.494 236.923, 90.876 235.768 C 90.258 234.613, 89.791 230.272, 89.840 226.123 C 89.939 217.612, 88.561 215, 83.972 215 C 82.003 215, 80.066 216.308, 76.938 219.750 C 56.461 242.282, 54.611 244.006, 47 247.653 C 37.226 252.335, 36 253.489, 36 258 C 36 262.072, 38.373 265, 41.674 265 C 44.839 265, 55.130 257.829, 59.516 252.566 C 64.846 246.171, 67.994 243.142, 71 241.519 C 72.375 240.777, 75.453 238.107, 77.840 235.585 C 80.227 233.063, 82.981 231, 83.959 231 C 85.956 231, 86.946 235.038, 87.025 243.500 C 87.135 255.372, 91.836 265.977, 98.988 270.492 C 104.290 273.840, 106.646 273.655, 110.476 269.594 C 113.561 266.324, 113.711 265.773, 114.280 255.729 C 115.042 242.274, 114.025 211.870, 112.760 210.269 C 112.224 209.592, 111.408 206.442, 110.947 203.269 C 109.516 193.444, 107.259 183.859, 106.104 182.704 C 104.182 180.782, 104.875 179.588, 109.893 176.168 C 112.582 174.335, 115.728 171.748, 116.885 170.418 C 119.067 167.907, 121.920 167.359, 124.816 168.892 C 125.742 169.383, 128.075 170.004, 130 170.272 C 131.925 170.540, 134.709 171.323, 136.186 172.011 C 139.828 173.708, 142 172.678, 142 169.254 C 142 165.116, 139.466 162.177, 135.221 161.390 C 133.175 161.011, 128.958 159.374, 125.851 157.751 C 119.203 154.279, 117.519 154.588, 113.810 159.962 C 110.819 164.295, 101.602 172, 99.410 172 C 97.505 172, 97.624 169.557, 99.609 167.909 C 102.259 165.710, 109 155, 109 152.988 C 109 151.960, 109.450 150.840, 110 150.500 C 110.550 150.160, 111 147.953, 111 145.596 C 111 139.956, 108.838 138, 102.604 138 C 98.153 138, 97.907 137.863, 98.551 135.750 C 98.928 134.512, 99.858 132.790, 100.618 131.921 C 101.378 131.053, 102 129.997, 102 129.576 C 102 129.154, 102.812 127.614, 103.804 126.154 C 104.796 124.694, 106.425 121.475, 107.424 119 C 110.461 111.474, 111.338 109.789, 115.748 103.020 C 120.416 95.855, 121.173 91.371, 118.171 88.655 C 115.297 86.054, 113.226 86.682, 110.513 90.980 M 130.443 225.418 C 128.123 227.115, 127.979 226.977, 135.500 230.244 C 155.591 238.971, 163.544 242.618, 172.124 247.040 C 177.418 249.768, 182.411 252, 183.221 252 C 186.244 252, 201.185 260.130, 205.540 264.144 C 209.760 268.034, 210.221 268.220, 212.556 266.970 C 215.046 265.637, 216.706 261.951, 215.612 260.181 C 213.871 257.365, 198.703 247.168, 195.322 246.541 C 193.220 246.152, 186.389 243.399, 180.141 240.424 C 148.890 225.541, 135.715 221.563, 130.443 225.418" stroke="none" fill="black" fill-rule="evenodd"/>
</svg>