<svg xmlns="http://www.w3.org/2000/svg" width="300" height="300" viewBox="0 0 300 300" version="1.1">
	<path d="M 120.953 17.930 C 117.595 21.124, 116.954 22.295, 117.533 24.180 C 118.505 27.349, 119.996 29.048, 122.709 30.079 C 125.223 31.035, 125.392 31.898, 125.114 42.380 C 125.003 46.532, 124.350 50.090, 123.465 51.353 C 121.305 54.437, 121.680 58.831, 124.377 62.036 C 126.637 64.722, 126.870 64.783, 129.127 63.283 C 130.432 62.415, 133.423 59.867, 135.773 57.622 C 139.281 54.269, 140.354 53.734, 141.773 54.628 C 142.723 55.227, 143.779 57.432, 144.120 59.527 C 144.846 63.989, 147.729 66.755, 149.573 64.760 C 152.927 61.130, 153.400 52.407, 150.379 49.900 C 148.377 48.238, 148.687 45.589, 151.138 43.405 C 155.737 39.308, 157.717 29.060, 154.281 27.137 C 152.446 26.110, 147.407 28.893, 145.567 31.950 C 143.535 35.326, 139.037 39, 136.936 39 C 134.779 39, 134.733 38.768, 135.245 30.557 C 135.632 24.350, 135.393 21.370, 134.343 19.307 C 131.044 12.828, 126.777 12.389, 120.953 17.930 M 66.750 25.080 C 65.496 25.810, 65 27.367, 65 30.571 C 65 34.375, 65.375 35.214, 67.509 36.186 C 71.388 37.954, 72.652 43.535, 71.043 51.801 C 70.326 55.485, 69.405 58.950, 68.996 59.500 C 68.587 60.050, 67.933 62.704, 67.543 65.397 C 67.153 68.090, 66.473 71.015, 66.033 71.897 C 65.593 72.779, 64.630 74.850, 63.893 76.500 C 63.155 78.150, 61.278 81.006, 59.721 82.847 C 55.983 87.267, 56.457 89.412, 61.260 89.810 C 64.499 90.079, 65.136 89.773, 65.984 87.543 C 66.523 86.124, 68.097 84.533, 69.482 84.007 C 71.011 83.426, 72 82.266, 72 81.056 C 72 76.307, 76.054 71.142, 82.699 67.426 C 89.722 63.499, 90.953 63.736, 90.985 69.027 C 91.020 74.809, 96.729 78.243, 99.061 73.886 C 100.334 71.507, 99.518 63.803, 97.682 60.862 C 96.730 59.337, 96.912 58.750, 98.733 57.474 C 99.945 56.625, 101.857 53.851, 102.982 51.309 C 104.895 46.982, 104.919 46.568, 103.358 44.843 C 100.236 41.394, 97.555 42.570, 89.074 51.108 C 82.688 57.537, 80.887 58.870, 80.379 57.544 C 80.026 56.625, 80.237 54.775, 80.849 53.433 C 81.460 52.091, 82.244 46.832, 82.591 41.747 L 83.223 32.500 79.265 28.250 C 76.083 24.833, 74.640 24.006, 71.904 24.030 C 70.032 24.047, 67.713 24.519, 66.750 25.080 M 153.049 71.514 C 150.050 74.531, 147.320 77, 146.980 77 C 146.641 77, 144.651 78.523, 142.559 80.385 C 140.037 82.628, 137.374 83.955, 134.662 84.318 C 127.849 85.232, 125.974 90.041, 130.717 94.438 L 133.434 96.957 130.317 100.229 C 126.091 104.664, 124.835 112.636, 127.923 115.430 C 129.638 116.983, 130.962 117.184, 135.988 116.659 C 142.769 115.950, 143.573 116.957, 140.131 121.846 C 139.103 123.306, 137.919 125.625, 137.500 127 C 137.081 128.375, 135.954 130.625, 134.997 132 C 134.040 133.375, 132.070 136.750, 130.619 139.500 C 126.237 147.808, 124.505 150.611, 121.690 153.956 C 116.972 159.564, 117.237 165, 122.229 165 C 125.091 165, 131.669 159.455, 132.437 156.394 C 132.797 154.959, 134.647 151.476, 136.546 148.655 C 138.446 145.835, 140 142.578, 140 141.418 C 140 140.259, 140.831 138.558, 141.847 137.639 C 142.862 136.720, 144.230 134.175, 144.887 131.984 C 145.686 129.317, 146.657 128, 147.825 128 C 149.398 128, 149.530 129.004, 149.164 138.118 C 148.910 144.441, 149.212 149.611, 149.967 151.901 C 151.272 155.853, 155.507 159, 159.522 159 C 160.820 159, 162.152 159.436, 162.481 159.970 C 163.163 161.072, 186.550 160.416, 188.361 159.243 C 188.988 158.838, 193.017 157.993, 197.317 157.365 C 206.965 155.956, 210 153.646, 210 147.711 C 210 145.526, 208.940 141.705, 207.620 139.135 C 206.311 136.586, 204.678 132.475, 203.991 130 C 203.303 127.525, 202.124 124.082, 201.370 122.349 C 200.617 120.616, 200 118.042, 200 116.629 C 200 115.217, 199.126 112.505, 198.058 110.604 C 195.762 106.515, 194.119 100.912, 192.605 92 C 191.590 86.028, 191.297 85.500, 189 85.500 C 186.853 85.500, 186.457 86.007, 186.199 89.093 C 185.922 92.394, 188.889 109.399, 190.981 116.500 C 194.536 128.570, 197.981 143.886, 197.452 145.266 C 196.420 147.955, 179.790 151.442, 171.023 150.808 C 167.029 150.519, 164.043 149.677, 162.237 148.328 C 159.539 146.315, 159.498 146.114, 159.337 134.310 C 159.198 124.116, 158.864 121.826, 157.091 118.917 C 155.945 117.038, 155.006 114.903, 155.004 114.173 C 154.996 111.469, 160.534 107.254, 165.052 106.525 C 167.498 106.131, 170.450 105.207, 171.611 104.472 C 174.115 102.887, 175.504 97.312, 173.881 95.357 C 172.523 93.720, 167.648 93.583, 164.809 95.102 C 163.094 96.020, 162.322 95.776, 160.193 93.648 C 157.934 91.388, 157.775 90.790, 158.823 88.489 C 159.476 87.057, 159.759 84.887, 159.452 83.666 C 159.060 82.105, 159.652 80.736, 161.448 79.049 C 163.031 77.562, 164 75.565, 164 73.791 C 164 70.621, 161.402 65.992, 159.635 66.014 C 159.011 66.022, 156.047 68.497, 153.049 71.514 M 93.964 84.420 C 93.159 85.201, 88 88.171, 82.500 91.018 C 77 93.866, 71.938 96.657, 71.250 97.220 C 69.292 98.825, 69.774 101.439, 72.500 104 C 73.875 105.292, 75 106.954, 75 107.694 C 75 108.434, 73.875 110.822, 72.500 113 C 71.125 115.178, 70 117.244, 70 117.591 C 70 117.938, 68.276 120.310, 66.168 122.861 C 61.152 128.934, 60.674 130.510, 62.610 134.591 C 64.761 139.124, 67.215 138.979, 72.616 134 C 77.063 129.901, 78.441 129.287, 79.469 130.950 C 80.712 132.960, 64.755 154.189, 57.028 160.805 C 54.263 163.173, 52 165.896, 52 166.855 C 52 168.975, 53.879 171, 55.846 171 C 57.564 171, 68 164.235, 68 163.122 C 68 162.698, 70.505 159.460, 73.567 155.926 C 76.630 152.391, 80.440 147.220, 82.036 144.434 C 83.631 141.647, 85.865 138.527, 86.999 137.501 C 88.923 135.760, 89.175 135.746, 90.725 137.297 C 92.096 138.667, 92.355 140.845, 92.200 149.672 C 92.029 159.427, 92.205 160.590, 94.180 162.692 C 95.373 163.961, 97.325 165, 98.519 165 C 100.679 165, 104 162.207, 104 160.391 C 104 159.868, 106.471 157.653, 109.491 155.470 C 116.452 150.436, 118.837 147.197, 119.945 141.266 C 121.471 133.094, 120.392 133.073, 111.630 141.102 C 104.400 147.727, 102 148.184, 102 142.935 C 102 138.605, 99.211 129.420, 97.453 127.961 C 95.039 125.958, 95.736 124.557, 102 118.819 C 106.454 114.740, 108 112.637, 108 110.662 C 108 107.927, 107.476 107.658, 102.750 107.969 C 100.402 108.124, 100 107.767, 100 105.526 C 100 104.082, 99.293 101.534, 98.429 99.863 C 96.969 97.040, 96.987 96.727, 98.679 95.444 C 99.681 94.685, 100.784 94.049, 101.131 94.032 C 101.479 94.014, 102.960 92.430, 104.423 90.512 C 106.591 87.670, 106.884 86.652, 106.006 85.012 C 105.159 83.429, 103.916 83, 100.179 83 C 97.429 83, 94.812 83.598, 93.964 84.420 M 143.709 94.624 C 142.371 95.963, 142.940 101, 144.429 101 C 146.494 101, 149.152 98.031, 148.790 96.129 C 148.467 94.433, 144.943 93.390, 143.709 94.624 M 85.204 109.682 C 82.763 113.505, 82.632 116.500, 84.906 116.500 C 86.653 116.500, 89.616 112.337, 90.421 108.750 C 91.346 104.628, 88.055 105.215, 85.204 109.682 M 91.375 188.550 C 89.948 190.728, 89.816 192.590, 90.468 201.300 C 92.019 222.010, 90.774 258.486, 88.339 263.667 C 87.521 265.409, 86.997 268.109, 87.176 269.667 C 87.448 272.043, 88.145 272.662, 91.500 273.507 C 93.700 274.061, 96.643 275.289, 98.040 276.235 C 100.460 277.873, 100.912 277.856, 107.540 275.875 C 111.368 274.731, 115.625 273.186, 117 272.440 C 121.212 270.158, 137.391 262, 137.705 262 C 138.718 262, 137.712 267.679, 136.264 270.130 C 134.688 272.798, 134.668 273.319, 136.052 275.784 C 138.319 279.822, 142.774 279.551, 145.303 275.221 C 146.976 272.357, 147.212 269.957, 147.169 256.221 C 147.109 236.858, 143.739 200.573, 141.617 196.446 C 140.784 194.826, 139.894 192.778, 139.639 191.897 C 138.949 189.512, 132 186.345, 128 186.593 C 124.172 186.830, 117.423 190.298, 112.098 194.764 C 109.144 197.242, 108.636 198.349, 108.235 203.180 C 107.646 210.288, 109.265 211.643, 113 207.169 C 114.455 205.426, 116.165 204, 116.799 204 C 117.433 204, 119.425 203.102, 121.226 202.004 C 125.050 199.672, 129.266 199.411, 130.920 201.403 C 132.364 203.143, 133.926 207.955, 135.171 214.500 C 136.416 221.040, 138.111 245.893, 137.499 248.630 C 136.790 251.797, 118.093 260.776, 103.773 264.826 C 96.669 266.834, 94.955 265.842, 96.733 260.749 C 99.186 253.717, 102.283 214.940, 100.963 207.771 C 100.531 205.422, 100.182 200.652, 100.189 197.171 C 100.198 191.954, 99.800 190.416, 97.926 188.421 C 95.026 185.335, 93.462 185.366, 91.375 188.550 M 121.500 219.890 C 119.850 220.926, 116.104 224.235, 113.176 227.243 C 108.557 231.988, 107.895 233.163, 108.176 236.106 C 108.603 240.579, 111.781 241.117, 116.884 237.580 C 118.932 236.161, 121.089 235, 121.676 235 C 123.524 235, 131 226.145, 131 223.957 C 131 218.196, 126.957 216.465, 121.500 219.890" stroke="none" fill="black" fill-rule="evenodd"/>
</svg>