<svg xmlns="http://www.w3.org/2000/svg" width="300" height="300" viewBox="0 0 300 300" version="1.1">
	<path d="M 79.492 1.014 C 79.147 1.571, 78.445 7.083, 77.931 13.264 C 76.861 26.138, 76.209 29.695, 74.405 32.500 C 72.420 35.589, 71.501 44.694, 72.994 46.493 C 76.023 50.143, 81.215 47.248, 83.081 40.868 C 84.371 36.462, 94.393 25.553, 96.433 26.336 C 97.262 26.654, 98.206 28.171, 98.530 29.707 C 99.519 34.396, 100.555 35.487, 104.318 35.808 C 107.512 36.081, 108.010 35.806, 108.602 33.448 C 108.971 31.981, 109.015 27.376, 108.700 23.215 C 108.152 15.972, 108.256 15.470, 111.137 11.458 C 113.366 8.355, 114.063 6.390, 113.823 3.884 C 113.529 0.804, 113.186 0.477, 110 0.244 C 107.065 0.030, 106.111 0.514, 104.087 3.244 C 101.823 6.299, 89.883 17, 88.738 17 C 87.517 17, 87.058 13.635, 88.107 12.371 C 88.743 11.605, 88.987 9.683, 88.657 8.036 C 88.332 6.409, 88.501 4.809, 89.033 4.480 C 89.565 4.151, 90 3.009, 90 1.941 C 90 0.282, 89.283 0, 85.059 0 C 82.341 0, 79.836 0.456, 79.492 1.014 M 124.763 6.750 C 124.400 17.119, 124.908 25.308, 125.982 26.382 C 127.353 27.753, 130.642 24.542, 131.315 21.173 C 131.951 17.997, 138.919 9.009, 140.750 9.004 C 141.581 9.001, 142 10.648, 142 13.917 C 142 19.447, 145.117 27.724, 147.551 28.658 C 151.759 30.273, 153.020 23.856, 151.562 8.250 L 150.792 0 137.896 0 L 125 0 124.763 6.750 M 106.041 43.393 C 104.289 47.999, 103.819 52.793, 104.916 54.843 C 105.521 55.973, 106.218 60.570, 106.465 65.059 C 106.752 70.285, 107.504 74.121, 108.556 75.725 C 110.025 77.968, 110.038 78.391, 108.676 79.752 C 106.270 82.158, 104.265 80.576, 103.695 75.822 C 102.491 65.773, 101.073 63.102, 95.784 60.910 C 93 59.757, 92.545 59.844, 90.931 61.837 C 89.006 64.214, 89.404 67.265, 92.346 72.706 C 93.177 74.243, 94.372 77.744, 95.003 80.488 C 96.085 85.198, 96.017 85.587, 93.788 87.488 C 92.490 88.594, 88.744 90.394, 85.464 91.487 C 82.184 92.579, 75.900 95.353, 71.500 97.649 C 64.554 101.275, 63.460 102.210, 63.200 104.740 C 63.015 106.532, 63.664 108.586, 64.887 110.077 C 66.572 112.131, 67.151 112.312, 68.687 111.265 C 69.684 110.586, 71.962 109.371, 73.750 108.566 C 75.537 107.761, 78.462 106.010, 80.250 104.675 C 82.037 103.340, 85.300 101.929, 87.500 101.539 C 89.700 101.150, 92.271 100.139, 93.213 99.294 C 94.156 98.447, 95.671 98.043, 96.585 98.394 C 98.267 99.040, 98.269 98.990, 96.283 107.721 C 95.616 110.652, 99.855 112.825, 103.241 111.288 C 105.161 110.418, 105.911 110.720, 108.239 113.299 C 110.384 115.677, 110.886 117.074, 110.555 119.742 C 110.072 123.634, 107.616 127.832, 104.580 129.954 C 99.822 133.279, 91.039 142.398, 89.529 145.580 C 88.637 147.461, 87.734 149, 87.524 149 C 87.314 149, 85.586 147.537, 83.683 145.750 C 75.280 137.856, 59.656 133.558, 53.655 137.491 C 46.762 142.007, 55.589 150.966, 63.015 146.992 C 65.773 145.516, 75.545 151.092, 85.253 159.680 C 89.187 163.161, 92.980 163.934, 94.881 161.643 C 95.500 160.897, 96.402 158.170, 96.886 155.583 C 97.369 152.996, 98.717 149.865, 99.882 148.625 C 101.047 147.386, 102 145.638, 102 144.742 C 102 143.206, 105.531 140, 107.223 140 C 107.650 140, 108 140.805, 108 141.788 C 108 143.801, 104.685 153.648, 103.664 154.670 C 103.299 155.035, 103 156.145, 103 157.137 C 103 158.129, 101.650 159.938, 100 161.158 C 96.577 163.689, 96.119 166.892, 98.829 169.345 C 101.641 171.890, 104.792 171.334, 109.271 167.500 C 113.366 163.995, 116 163.050, 116 165.086 C 116 167.169, 110.417 188.990, 108.909 192.797 C 108.409 194.060, 108 195.984, 108 197.072 C 108 199.276, 105.096 200.703, 98 201.984 C 95.525 202.431, 90.891 203.518, 87.701 204.399 C 84.512 205.279, 80.821 206, 79.498 206 C 78.176 206, 76.060 206.405, 74.797 206.899 C 69.792 208.859, 47.990 214.110, 47.105 213.569 C 46.168 212.997, 31.088 216.569, 25.500 218.687 C 21.051 220.374, 20.465 220.943, 20.182 223.857 C 19.554 230.315, 24.315 231.801, 32.200 227.609 C 35.153 226.038, 39.925 224.814, 46.099 224.044 C 55.927 222.817, 71.440 219.265, 81.262 215.992 C 84.432 214.936, 87.641 214.309, 88.395 214.598 C 89.149 214.887, 92.343 214.375, 95.494 213.459 C 100.397 212.033, 101.423 211.995, 102.619 213.190 C 103.814 214.385, 103.794 215.373, 102.481 220.043 C 101.638 223.044, 100.509 226.281, 99.974 227.236 C 99.438 228.191, 99 229.824, 99 230.864 C 99 231.904, 98.325 233.315, 97.500 234 C 95.517 235.646, 95.552 242.916, 97.557 245.777 C 98.413 247, 99.961 248, 100.998 248 C 104.156 248, 104.108 249.551, 100.806 254.125 C 95.658 261.258, 86.235 269.621, 79.392 273.131 C 73.634 276.084, 72.610 276.309, 69.137 275.382 C 62.407 273.586, 58.687 276.597, 62.913 280.421 C 64.506 281.863, 66.218 282.073, 73.163 281.680 C 85.181 281, 87.909 280.199, 93.500 275.713 C 99.820 270.641, 108.796 261.218, 109.540 258.873 C 109.853 257.889, 112.434 255.232, 115.277 252.968 C 119.354 249.722, 120.981 248.986, 122.973 249.487 C 124.363 249.836, 126.710 250.366, 128.190 250.665 C 129.669 250.964, 131.651 252.062, 132.595 253.105 C 133.538 254.147, 135.114 255, 136.096 255 C 137.078 255, 138.153 255.438, 138.483 255.973 C 138.814 256.508, 140.978 257.441, 143.292 258.047 C 147.998 259.279, 153.185 262.403, 157.128 266.379 C 160.256 269.533, 168.355 274, 170.946 274 C 172.864 274, 174 272.138, 174 268.996 C 174 267.983, 171.519 265.035, 168.487 262.444 C 162.715 257.513, 160.509 256.108, 150.250 250.831 C 146.813 249.062, 144 247.252, 144 246.808 C 144 246.363, 143.318 246, 142.485 246 C 141.652 246, 138.578 244.650, 135.654 243 C 132.730 241.350, 129.362 240, 128.169 240 C 126.976 240, 125.994 239.438, 125.986 238.750 C 125.975 237.666, 133.647 221.212, 136.129 217 C 137.355 214.919, 137.640 214.067, 138.632 209.520 C 139.336 206.291, 140.066 205.372, 142.500 204.648 C 144.150 204.157, 146.670 203.150, 148.100 202.410 C 149.530 201.669, 154.480 200.617, 159.100 200.072 C 170.540 198.721, 176.934 197.522, 180.500 196.060 C 184.091 194.588, 215.560 190, 222.066 190 C 227.644 190, 231 187.074, 231 182.209 C 231 177.625, 227.476 175.489, 222.323 176.949 C 216.856 178.498, 205.419 180.717, 199 181.473 C 195.975 181.830, 189.900 182.951, 185.500 183.964 C 161.800 189.421, 144.834 192.711, 134 193.951 C 130.425 194.360, 126.003 195.269, 124.174 195.971 C 120.104 197.534, 117.823 196.115, 119.665 193.165 C 121.270 190.595, 122.951 181.283, 122.807 175.754 C 122.727 172.675, 123.242 170.391, 124.272 169.252 C 125.146 168.286, 126.005 165.472, 126.180 162.998 L 126.500 158.500 132.063 156.739 C 137.910 154.887, 149.437 145.812, 148.711 143.631 C 148.504 143.009, 147.028 142.272, 145.430 141.992 C 141.212 141.255, 141.360 138.862, 145.950 133.558 C 148.177 130.984, 150 128.208, 150 127.390 C 150 126.571, 150.715 124.518, 151.589 122.829 C 153.915 118.331, 152.720 113.417, 148.696 110.927 C 146.938 109.840, 144.825 109.149, 144 109.393 C 139.208 110.806, 128.656 115.127, 126.767 116.450 C 125.551 117.303, 123.494 118, 122.198 118 C 120.062 118, 119.907 117.695, 120.541 114.750 C 121.663 109.539, 123.814 106.148, 127.060 104.469 C 131.335 102.258, 132.635 98.957, 131.086 94.251 C 130.008 90.979, 130.107 89.903, 131.855 85.830 C 134.571 79.504, 140.347 73.298, 144.306 72.452 C 146.063 72.076, 147.969 71.394, 148.542 70.935 C 149.115 70.476, 153.840 69.567, 159.042 68.916 C 164.244 68.265, 169.063 67.288, 169.750 66.744 C 171.659 65.234, 171.239 60.527, 169.017 58.515 C 167.211 56.881, 166.336 56.827, 159.267 57.914 C 154.995 58.571, 149.417 59.828, 146.872 60.708 C 141.541 62.550, 139.344 62.036, 138.054 58.643 C 136.891 55.583, 131.899 51.993, 128.846 52.022 C 126.047 52.048, 118.542 55.315, 117.534 56.944 C 116.998 57.812, 116.474 57.808, 115.411 56.926 C 114.475 56.149, 114 53.676, 114 49.578 C 114 46.106, 113.474 42.874, 112.800 42.200 C 110.721 40.121, 107.037 40.772, 106.041 43.393 M 124.007 63.987 C 123.386 65.147, 121.750 66.525, 120.370 67.049 C 116.868 68.381, 117.360 72.629, 120.969 72.224 C 126.235 71.632, 130.265 67.230, 128.338 64.174 C 126.810 61.752, 125.239 61.684, 124.007 63.987 M 106.976 93.045 C 105.503 95.797, 106.577 102, 108.526 102 C 110.205 102, 111.295 98.425, 110.828 94.448 C 110.414 90.920, 108.489 90.219, 106.976 93.045 M 133.291 123.407 C 131.526 124.049, 129.022 125.570, 127.726 126.787 C 126.431 128.004, 124.697 129, 123.874 129 C 121.365 129, 117.844 134.887, 117.088 140.343 C 116.695 143.179, 115.798 146.561, 115.094 147.857 C 113.576 150.655, 114.853 152.499, 117.687 151.599 C 119.640 150.980, 131.011 140.404, 134.460 136 C 137.723 131.833, 141.133 124.789, 140.582 123.352 C 139.974 121.768, 137.748 121.784, 133.291 123.407 M 121.500 207.733 C 117.004 208.858, 114.502 211.799, 112.633 218.153 C 110.706 224.705, 109.435 228.195, 107.849 231.291 C 106.676 233.582, 107.351 234.620, 110.532 235.419 C 112.092 235.810, 113.594 235.549, 114.395 234.748 C 115.859 233.284, 121.122 223.388, 123.302 218 C 124.082 216.075, 125.238 213.229, 125.872 211.675 C 127.610 207.419, 126.554 206.467, 121.500 207.733" stroke="none" fill="black" fill-rule="evenodd"/>
</svg>