<svg xmlns="http://www.w3.org/2000/svg" width="300" height="300" viewBox="0 0 300 300" version="1.1">
	<path d="M 158.537 3.929 C 157.584 5.772, 157.254 8.020, 157.648 9.989 C 158.278 13.141, 156.523 18, 154.754 18 C 154.255 18, 152.629 19.238, 151.140 20.750 C 149.006 22.919, 148.553 24.134, 148.997 26.500 C 149.507 29.223, 149.902 29.489, 153.279 29.386 C 155.326 29.323, 157 29.489, 157 29.754 C 157 30.019, 155.597 31.834, 153.883 33.787 C 150.129 38.061, 145 49.120, 145 52.938 C 145 57.417, 148.079 59.388, 153.985 58.688 L 159 58.094 159 61.932 C 159 66.755, 156.191 75.993, 154.090 78.079 C 153.216 78.947, 149.456 80.913, 145.736 82.447 C 142.015 83.982, 138.715 85.652, 138.402 86.159 C 138.088 86.666, 136.045 88.209, 133.861 89.588 C 130.140 91.937, 129.909 92.359, 130.195 96.297 L 130.500 100.500 134.666 100.319 C 139.020 100.130, 144.100 98.016, 147.500 94.980 C 148.600 93.997, 152.650 91.523, 156.500 89.481 C 160.350 87.439, 163.927 85.371, 164.450 84.884 C 164.972 84.398, 166.048 84, 166.839 84 C 167.631 84, 170.354 82.743, 172.889 81.207 C 178.200 77.989, 191.097 72.382, 195.500 71.377 C 197.150 71, 198.725 70.400, 199 70.043 C 199.275 69.686, 201.188 68.369, 203.250 67.116 C 206.129 65.366, 207 64.195, 207 62.073 C 207 58.053, 204.129 55.802, 200.439 56.929 C 196.231 58.215, 192.017 60.375, 192.008 61.250 C 192.004 61.663, 191.190 62, 190.200 62 C 189.210 62, 187.973 62.394, 187.450 62.875 C 186.928 63.356, 183.382 64.978, 179.571 66.478 C 175.759 67.979, 171.833 69.712, 170.846 70.328 C 166.780 72.867, 166.412 67.739, 169.996 58.500 C 170.423 57.400, 171.360 54.475, 172.078 52 C 172.797 49.525, 175.098 45.064, 177.192 42.087 C 183.166 33.595, 182.093 26.629, 175.212 29.226 C 173.487 29.877, 171.786 30.119, 171.431 29.764 C 171.076 29.409, 172.240 26.575, 174.019 23.467 L 177.253 17.815 175.276 15.158 C 174.189 13.696, 172.331 12.356, 171.147 12.180 C 168.787 11.829, 166.537 8.558, 167.540 6.935 C 167.888 6.373, 167.448 4.807, 166.563 3.456 C 164.277 -0.033, 160.469 0.192, 158.537 3.929 M 156.801 35.750 C 154.867 37.994, 152 43.908, 152 45.654 C 152 47.946, 155.492 47.139, 158.313 44.195 C 160.238 42.186, 161 40.343, 161 37.695 C 161 33.606, 159.321 32.828, 156.801 35.750 M 79.851 60.250 C 78.687 62.395, 78.152 73.833, 79.067 77 C 79.424 78.236, 78.487 78.441, 73.750 78.164 L 68 77.828 68 82.792 C 68 88.382, 68.872 89.446, 74.250 90.415 C 77.027 90.915, 78 91.583, 78 92.986 C 78 94.029, 77.543 95.164, 76.985 95.509 C 76.427 95.854, 75.365 97.585, 74.625 99.354 C 73.886 101.124, 68.268 107.853, 62.140 114.307 C 51.481 125.537, 51 126.229, 51 130.366 C 51 136.178, 55.329 140.061, 58.550 137.138 C 59.072 136.664, 61.300 135.801, 63.500 135.221 C 70.905 133.267, 81.068 129.249, 82.978 127.520 C 84.021 126.576, 85.352 126.100, 85.937 126.461 C 86.642 126.897, 86.995 135.435, 86.984 151.809 C 86.965 182.398, 85.415 191.227, 80.351 189.607 C 78.260 188.938, 73 181.130, 73 178.697 C 73 177.820, 71.885 175.900, 70.522 174.430 C 67.506 171.175, 66.540 166.574, 67.377 159.451 C 67.926 154.781, 67.754 153.939, 66.070 153.038 C 62.171 150.951, 59.647 151.912, 53.779 157.719 C 50.601 160.864, 48 163.944, 48 164.564 C 48 165.183, 47.080 166.522, 45.956 167.540 C 44.832 168.557, 44.044 170.314, 44.206 171.445 C 44.655 174.581, 52.356 173.992, 55.952 170.546 C 60.139 166.535, 61.770 167.207, 64.930 174.250 C 66.472 177.688, 68.283 182.300, 68.953 184.500 C 71.535 192.971, 72.655 194.481, 77.694 196.287 C 87.538 199.816, 93.405 197.347, 95.084 188.971 C 95.577 186.512, 96.239 172.154, 96.556 157.064 C 97.235 124.644, 98.057 119.508, 103.074 116.330 C 110.333 111.731, 112.829 107.229, 109.800 104.200 C 107.979 102.379, 105.878 102.749, 103.055 105.388 C 101.650 106.701, 99.550 108.061, 98.389 108.411 C 96.375 109.017, 96.245 108.607, 95.576 99.496 L 94.875 89.945 97.970 86.038 C 104.036 78.378, 110 68.662, 110 66.438 C 110 65.621, 103.558 62.008, 102.094 62.004 C 101.321 62.002, 98.523 64.355, 95.877 67.233 C 90.361 73.233, 88.712 72.905, 88.750 65.814 C 88.764 63.321, 88.123 60.761, 87.232 59.750 C 85.059 57.284, 81.321 57.537, 79.851 60.250 M 175.400 98.830 C 169.113 103.391, 161 112.847, 161 115.612 C 161 119.466, 158.239 119.707, 154.978 116.137 C 152.113 113, 150.553 112.467, 147.582 113.607 C 145.609 114.364, 145.472 119.787, 147.357 122.527 C 151.291 128.246, 152.575 151.689, 149.684 165 C 148.669 169.675, 147.502 175.975, 147.090 179 C 145.502 190.682, 138.676 210.605, 134.910 214.548 C 131.010 218.632, 131.158 221.232, 135.423 223.529 C 138.115 224.978, 139.153 225.118, 140.280 224.182 C 142.253 222.545, 149.495 207.498, 150.956 202 C 151.614 199.525, 153.171 194.378, 154.417 190.561 L 156.683 183.623 161.101 183.539 C 164.906 183.468, 166.627 182.612, 173.509 177.366 C 177.904 174.016, 183.518 169.189, 185.985 166.638 C 188.452 164.087, 190.779 162, 191.156 162 C 192.392 162, 192.930 167.245, 193.568 185.500 C 194.890 223.343, 194.821 242.132, 193.357 242.693 C 191.598 243.368, 188.076 239.145, 188.033 236.307 C 188.015 235.100, 187.146 233.515, 186.103 232.784 C 184.126 231.400, 181.515 226.830, 178.087 218.750 C 176.210 214.328, 173.898 212.738, 172.540 214.936 C 172.221 215.451, 172.450 217.813, 173.046 220.186 C 173.643 222.559, 174.498 226.224, 174.946 228.330 C 175.394 230.437, 176.265 232.665, 176.880 233.280 C 177.496 233.896, 178 234.954, 178 235.630 C 178 239.076, 184.653 250.235, 190.441 256.498 L 196.908 263.496 200.704 259.789 L 204.500 256.081 204.378 231.791 C 204.242 204.798, 202.633 164.586, 201.105 150 C 200.557 144.775, 199.599 135.100, 198.975 128.500 C 198.351 121.900, 197.201 115.306, 196.420 113.846 C 195.639 112.386, 195 110.064, 195 108.686 C 195 107.270, 193.250 103.966, 190.977 101.090 C 187.394 96.558, 186.534 96, 183.127 96 C 180.512 96, 178.065 96.896, 175.400 98.830 M 80.349 106.676 C 79.994 107.679, 77.745 110.341, 75.352 112.591 C 70.311 117.329, 69.694 120, 73.639 120 C 75.606 120, 83.805 115.979, 86.705 113.592 C 86.818 113.499, 86.298 111.641, 85.551 109.462 C 84.083 105.180, 81.388 103.737, 80.349 106.676 M 173.424 113.750 C 170.335 116.912, 166.261 121.364, 164.371 123.642 L 160.935 127.785 161.611 135.892 C 162.007 140.636, 162.738 144, 163.372 144 C 163.968 144, 166.266 142.197, 168.478 139.992 C 170.690 137.788, 173.939 134.567, 175.698 132.834 L 178.896 129.683 182.562 132.592 C 188.180 137.050, 188.861 137.472, 189.462 136.872 C 190.275 136.058, 187.433 118.103, 185.841 114 C 182.783 106.116, 180.918 106.079, 173.424 113.750 M 184.500 143 C 182.919 144.650, 180.839 146, 179.877 146 C 178.915 146, 176.035 147.912, 173.475 150.250 C 170.352 153.102, 167.626 154.664, 165.186 155 L 161.550 155.500 160.235 163.410 C 158.184 175.739, 158.504 175.716, 175.837 162.250 C 180.262 158.813, 184.130 156, 184.433 156 C 184.737 156, 186.113 155.019, 187.492 153.820 C 189.632 151.959, 190 150.786, 190 145.820 C 190 139.034, 188.859 138.450, 184.500 143 M 102.500 162 C 101.281 163.973, 103.201 165, 108.109 165 C 110.854 165, 114.479 165.713, 116.165 166.585 C 118.025 167.547, 119.591 167.809, 120.148 167.252 C 121.672 165.728, 119.943 163, 117.452 163 C 116.168 163, 114.840 162.550, 114.500 162 C 114.160 161.450, 111.460 161, 108.500 161 C 105.540 161, 102.840 161.450, 102.500 162" stroke="none" fill="black" fill-rule="evenodd"/>
</svg>