<svg xmlns="http://www.w3.org/2000/svg" width="300" height="300" viewBox="0 0 300 300" version="1.1">
	<path d="M 86.122 5.353 C 85.417 6.202, 85.187 7.896, 85.569 9.417 C 85.929 10.852, 85.756 12.589, 85.186 13.276 C 84.615 13.964, 83.986 18.795, 83.788 24.013 C 83.411 33.940, 78.873 54.056, 76.329 57.079 C 75.598 57.947, 75 59.493, 75 60.515 C 75 63.149, 72.093 75.162, 70.954 77.236 C 70.429 78.191, 70 79.603, 70 80.372 C 70 81.142, 69.328 83.060, 68.506 84.636 C 67.685 86.211, 67.010 88.309, 67.006 89.298 C 67.003 90.287, 66.100 92.959, 65 95.236 C 63.900 97.513, 63 99.957, 63 100.668 C 63 101.949, 56.888 105.520, 52.028 107.077 C 45.956 109.023, 42.016 110.792, 34.750 114.831 C 27.147 119.058, 27 119.214, 27 123.035 C 27 128.033, 29.651 129.832, 33.769 127.631 C 35.271 126.828, 39.200 125.174, 42.500 123.956 C 45.800 122.738, 50.726 120.674, 53.446 119.370 C 56.167 118.067, 58.999 117, 59.739 117 C 61.339 117, 72 124.877, 72 126.060 C 72 127.182, 56.102 143, 54.974 143 C 54.477 143, 52.591 144.262, 50.785 145.803 C 48.978 147.345, 44.882 149.474, 41.681 150.534 C 34.327 152.969, 32.982 154.426, 35.635 157.080 C 37.495 158.939, 37.850 158.964, 41.929 157.525 C 44.306 156.686, 47.118 156, 48.177 156 C 49.235 156, 53.750 154.096, 58.209 151.769 C 64.239 148.622, 68.467 145.373, 74.711 139.087 L 83.105 130.636 86.802 131.954 C 88.836 132.679, 91.747 134.148, 93.270 135.218 C 94.794 136.289, 98.164 137.690, 100.759 138.333 C 106.421 139.734, 107.392 142.117, 103.537 145.150 C 101.063 147.096, 101 147.352, 102.455 149.572 C 104.919 153.332, 104.623 155.016, 99.887 164.184 C 98.046 167.747, 90.856 177.464, 83.750 185.991 C 78.667 192.091, 78 193.401, 78 197.291 C 78 203.389, 80.591 205.792, 85.224 203.990 C 87.026 203.289, 90.196 201.588, 92.268 200.209 C 99.071 195.684, 98.111 199.274, 89.751 209.622 C 84.368 216.284, 83.935 218.651, 87.490 221.991 C 89.648 224.018, 90.322 224.174, 92.537 223.165 C 97.911 220.717, 98.791 221.709, 101.702 233.500 C 103.595 241.169, 103.940 257.453, 102.403 266.625 C 101.044 274.743, 97.766 280.921, 94.785 280.985 C 93.283 281.017, 87.150 274.844, 85.605 271.744 C 84.715 269.960, 82.303 266.641, 80.244 264.370 C 76.857 260.632, 75.919 260.177, 70.401 259.587 C 63.265 258.824, 63.806 258.470, 52.952 271 C 43.009 282.477, 34.767 291, 33.610 291 C 33.086 291, 31.872 290.289, 30.912 289.420 C 27.448 286.286, 23.302 291.036, 24.167 297.148 C 24.460 299.218, 25.110 299.536, 29.589 299.797 C 33.240 300.010, 35.040 299.656, 35.961 298.547 C 36.667 297.696, 38.015 297, 38.957 297 C 39.898 297, 43.458 293.963, 46.868 290.250 C 50.278 286.538, 54.555 281.918, 56.372 279.984 C 58.190 278.050, 59.862 276.025, 60.089 275.484 C 60.584 274.299, 66.482 269.976, 70.125 268.128 C 73.802 266.262, 76.252 267.841, 78.792 273.710 C 80.959 278.721, 85.707 283.757, 92.554 288.306 C 97.415 291.536, 98.360 291.568, 103.399 288.673 C 106.438 286.928, 107.586 285.462, 108.597 282.036 C 109.311 279.618, 109.675 277.283, 109.406 276.848 C 109.137 276.413, 109.640 274.953, 110.523 273.605 C 113.052 269.746, 113.128 240.274, 110.637 229.265 C 109.612 224.737, 109.027 220.373, 109.336 219.568 C 109.644 218.763, 111.694 217.621, 113.891 217.029 C 116.145 216.422, 119.688 214.222, 122.024 211.977 C 124.301 209.790, 126.932 208, 127.872 208 C 128.811 208, 131.569 209.800, 134 212 C 139.244 216.746, 142.954 217.246, 145.385 213.535 C 148.285 209.109, 147.856 208.458, 134.217 196.595 C 129.682 192.651, 128.318 192, 124.589 192 C 119.919 192, 118.644 192.958, 117.623 197.232 C 116.704 201.084, 111.508 206.667, 108.249 207.307 C 104.548 208.033, 103.395 206.650, 105.796 204.367 C 108.775 201.533, 113 191.422, 113 187.125 C 113 182.493, 110.611 180, 106.171 180 C 104.427 180, 103 179.687, 103 179.304 C 103 178.605, 104.327 176.474, 111.473 165.693 C 117.994 155.855, 120.992 148.966, 120.996 143.809 C 120.998 141.229, 120.550 138.840, 120 138.500 C 119.450 138.160, 119 137.039, 119 136.008 C 119 134.922, 118.054 133.865, 116.750 133.492 C 115.513 133.139, 111.265 131.308, 107.312 129.425 C 103.358 127.541, 99.373 126, 98.456 126 C 97.539 126, 95.547 124.988, 94.028 123.750 C 92.510 122.513, 90.427 121.005, 89.399 120.401 C 87.585 119.334, 87.592 119.172, 89.625 114.901 C 90.777 112.480, 92.301 108.703, 93.013 106.506 C 95.303 99.434, 96.914 96.196, 99.571 93.329 C 101.934 90.779, 102.112 90.022, 101.526 85.012 C 100.754 78.408, 98.308 74.619, 94.529 74.172 C 90.715 73.720, 90.175 74.559, 89.503 81.963 C 89.182 85.512, 88.824 88.487, 88.709 88.576 C 88.594 88.664, 85.919 90.821, 82.764 93.368 C 79.609 95.916, 76.532 98, 75.926 98 C 74.709 98, 75.432 91.126, 77.057 87.250 C 77.576 86.013, 78.433 83.987, 78.961 82.750 C 79.945 80.448, 82.299 72.643, 84.164 65.500 C 84.738 63.300, 85.660 60.375, 86.212 59 C 87.499 55.795, 90.922 40.272, 92.055 32.500 C 92.537 29.200, 93.467 23.033, 94.123 18.795 C 95.694 8.641, 94.664 4.621, 90.383 4.199 C 88.605 4.024, 86.825 4.506, 86.122 5.353 M 141.631 69.875 C 140.603 70.279, 138.578 72.349, 137.131 74.475 C 133.841 79.308, 132.278 79.862, 131.051 76.634 C 129.721 73.135, 125.620 70.628, 122.507 71.409 C 120.280 71.968, 120 72.558, 120 76.690 C 120 79.275, 120.625 82.044, 121.407 82.921 C 123.538 85.311, 127 96.792, 127 101.465 C 127 103.739, 127.563 106.168, 128.250 106.862 C 129.252 107.874, 129.109 108.345, 127.534 109.233 C 123.083 111.742, 120.783 114.998, 121.485 117.795 C 121.857 119.276, 122.630 121.054, 123.203 121.744 C 124.513 123.323, 128.456 123.363, 131.316 121.827 C 132.517 121.182, 135.075 120.515, 137 120.345 C 147.236 119.443, 150.018 118.709, 152.461 116.266 C 157.425 111.302, 155.226 108.082, 146.632 107.730 C 143.544 107.604, 141.013 107.374, 141.008 107.221 C 141.004 107.067, 142.771 104.701, 144.935 101.963 C 147.099 99.225, 149.160 95.976, 149.515 94.742 C 149.869 93.509, 150.882 90.925, 151.766 89 C 152.650 87.075, 153.564 82.973, 153.797 79.885 C 154.207 74.457, 154.106 74.183, 150.766 71.635 C 147.272 68.970, 145.032 68.539, 141.631 69.875 M 139.895 87.250 C 137.639 89.146, 135.568 95.968, 136.857 97.257 C 138.047 98.447, 140.995 96.579, 141.006 94.628 C 141.010 94.007, 141.682 92.216, 142.501 90.646 C 144.619 86.584, 143.078 84.575, 139.895 87.250 M 77.750 106.758 C 74.094 109.025, 73.795 114, 77.315 114 C 78.980 114, 80.103 113.008, 81.315 110.466 C 84.113 104.598, 83.038 103.479, 77.750 106.758 M 149.316 261.416 C 148.317 262.004, 146.600 262.489, 145.500 262.493 C 142.924 262.502, 142.329 264.347, 144.691 265 C 145.686 265.275, 147.715 266.324, 149.199 267.332 C 150.684 268.339, 154.347 269.803, 157.340 270.584 C 160.333 271.366, 164.068 272.676, 165.641 273.497 C 167.213 274.317, 169.486 274.990, 170.691 274.994 C 171.896 274.997, 173.180 275.483, 173.545 276.073 C 173.909 276.663, 177.424 278.626, 181.354 280.437 C 185.284 282.247, 190.975 284.877, 194 286.281 C 197.025 287.685, 200.591 289.996, 201.924 291.417 C 203.258 292.837, 205.092 294, 206 294 C 206.908 294, 208.708 295.125, 210 296.500 C 211.292 297.875, 212.833 298.996, 213.424 298.991 C 215.497 298.975, 221.937 291.998, 221.332 290.423 C 220.651 288.649, 211.926 282.741, 204 278.687 C 200.975 277.140, 197.825 275.505, 197 275.053 C 194.972 273.943, 191.432 272.491, 185.799 270.461 C 183.213 269.528, 180.339 267.927, 179.412 266.902 C 178.484 265.878, 176.100 264.765, 174.113 264.430 C 172.126 264.096, 168.700 263.213, 166.500 262.469 C 161.181 260.670, 151.582 260.082, 149.316 261.416" stroke="none" fill="black" fill-rule="evenodd"/>
</svg>