<svg xmlns="http://www.w3.org/2000/svg" width="300" height="300" viewBox="0 0 300 300" version="1.1">
	<path d="M 184.930 58.584 C 184.014 59.688, 183.533 63.482, 183.439 70.357 C 183.212 86.840, 180.985 98.486, 176.165 108.396 C 173.874 113.106, 172 117.842, 172 118.920 C 172 119.999, 171.550 121.160, 171 121.500 C 170.450 121.840, 170 123.130, 170 124.368 C 170 125.605, 169.339 127.491, 168.532 128.559 C 167.724 129.626, 167.049 131.519, 167.032 132.764 C 167.014 134.009, 166.583 135.809, 166.073 136.764 C 165.563 137.719, 164.891 139.175, 164.579 140 C 164.268 140.825, 163.609 142.175, 163.115 143 C 162.621 143.825, 161.325 146.525, 160.235 149 C 154.999 160.887, 154.599 164, 158.311 164 C 160.958 164, 164.541 161.022, 165.489 158.034 C 165.844 156.915, 166.554 156, 167.067 156 C 167.580 156, 168 155.127, 168 154.059 C 168 152.991, 168.450 151.840, 169 151.500 C 169.550 151.160, 170 150.227, 170 149.427 C 170 148.627, 171.012 146.413, 172.250 144.508 C 174.968 140.325, 175.812 140.469, 185.332 146.753 C 192.791 151.677, 193.773 153.031, 192.262 156.317 C 191.710 157.518, 190.035 161.200, 188.540 164.500 C 187.045 167.800, 185.412 171.281, 184.911 172.236 C 184.410 173.191, 184 174.569, 184 175.299 C 184 176.028, 183.159 178.396, 182.132 180.562 C 181.104 182.728, 179.443 186.300, 178.440 188.500 C 177.437 190.700, 175.656 194.075, 174.483 196 C 173.309 197.925, 170.526 202.875, 168.299 207 C 159.602 223.101, 155.816 228.342, 146.750 236.828 C 144.137 239.273, 142 241.861, 142 242.578 C 142 250.996, 165.384 231.822, 172.424 217.631 C 173.824 214.809, 176.634 209.575, 178.668 206 C 184.687 195.422, 192 180.849, 192 179.433 C 192 176.729, 200.209 161, 201.620 161 C 203.555 161, 214.764 172.246, 219.063 178.500 C 220.953 181.250, 227.787 188.685, 234.250 195.021 C 240.712 201.358, 246 206.920, 246 207.380 C 246 209.035, 266.491 232.623, 272.927 238.376 C 276.542 241.608, 281.398 246.022, 283.717 248.184 C 289.046 253.155, 298.542 264.024, 299.281 266 C 299.590 266.825, 299.878 264.049, 299.921 259.832 C 299.964 255.614, 299.727 251.452, 299.394 250.583 C 299.060 249.714, 295.797 246.676, 292.144 243.831 C 282.869 236.612, 276.053 229.965, 267.192 219.500 C 259.974 210.976, 256.591 207.257, 240.861 190.551 C 235.029 184.357, 226.601 174.505, 222.016 168.522 C 219.972 165.856, 212.143 158.028, 208.748 155.257 C 206.617 153.517, 206 152.151, 206 149.173 C 206 147.061, 206.308 145.025, 206.685 144.648 C 207.920 143.414, 210.188 136.601, 211.064 131.500 C 213.193 119.090, 213.782 116.323, 214.855 113.685 C 215.485 112.137, 216 109.546, 216 107.928 C 216 103.813, 211.046 95.078, 207.744 93.369 C 205.032 91.965, 204.878 92.053, 197.960 98.971 C 190.373 106.558, 187.287 107.951, 188.483 103.250 C 189.168 100.555, 190.081 96.013, 192.151 85 C 192.720 81.975, 193.397 75.433, 193.656 70.463 C 194.065 62.621, 193.887 61.214, 192.314 59.831 C 189.386 57.257, 186.444 56.760, 184.930 58.584 M 72.408 69.148 C 72.018 69.780, 71.494 76.867, 71.243 84.898 C 70.752 100.664, 70.109 102.776, 62.989 112 C 59.775 116.163, 57.669 120.686, 55.749 127.550 C 54.972 130.327, 51.673 136.527, 48.418 141.328 C 41.727 151.195, 35.328 161.930, 31.383 169.904 C 28.936 174.850, 28.818 175.612, 29.996 178.904 C 30.703 180.882, 31.781 182.831, 32.391 183.235 C 35.720 185.440, 46.171 182.077, 50.498 177.408 C 53.468 174.203, 56.627 174.740, 55.530 178.262 C 55.147 179.493, 54.589 182.871, 54.291 185.768 C 53.993 188.666, 53.356 191.280, 52.875 191.577 C 51.667 192.324, 51.775 198.711, 53.035 201.066 C 54.358 203.537, 57.067 203.517, 62 201 C 64.156 199.900, 67.458 199, 69.338 199 C 73.358 199, 74.500 197.825, 75.415 192.749 C 76.024 189.369, 75.832 188.881, 73.475 187.807 C 71.456 186.887, 70.143 186.885, 67.721 187.799 C 63.992 189.207, 62.496 188.147, 63.561 184.851 C 63.979 183.558, 64.398 180.250, 64.491 177.500 C 64.585 174.750, 65.015 170.182, 65.446 167.349 C 66.186 162.499, 66.079 162.098, 63.623 160.489 C 59.918 158.061, 57.055 159.129, 50.166 165.507 C 46.903 168.528, 43.695 171, 43.037 171 C 41.217 171, 42.793 165.068, 45.610 161.317 C 46.924 159.566, 48 157.803, 48 157.398 C 48 156.994, 51.150 152.028, 55 146.363 C 58.850 140.697, 62 135.592, 62 135.017 C 62 134.443, 62.384 133.191, 62.853 132.236 C 63.322 131.281, 64.384 128.925, 65.213 127 C 68.448 119.487, 69.634 117.285, 73.689 111.267 C 80.915 100.545, 81.206 99.522, 81.266 84.563 C 81.305 75.003, 80.948 70.642, 80.038 69.546 C 78.541 67.743, 73.441 67.477, 72.408 69.148 M 129.914 71.336 C 127.486 73.171, 123.700 75.194, 121.500 75.831 C 114.848 77.758, 103 84.834, 103 86.880 C 103 89.603, 105.963 95, 107.458 95 C 108.180 95, 109.507 93.875, 110.408 92.500 C 111.309 91.125, 112.643 90, 113.372 90 C 115.062 90, 127.054 83.743, 133.226 79.641 C 137.857 76.563, 140.947 71.342, 139.512 69.020 C 138.301 67.059, 134.293 68.027, 129.914 71.336 M 74 85.500 C 74 86.325, 74.675 87, 75.500 87 C 76.325 87, 77 86.325, 77 85.500 C 77 84.675, 76.325 84, 75.500 84 C 74.675 84, 74 84.675, 74 85.500 M 126.030 91.182 C 124.918 93.007, 123.998 95.400, 123.986 96.500 C 123.973 97.600, 122.734 100.020, 121.232 101.877 C 119.729 103.734, 116.808 107.331, 114.741 109.870 C 111.008 114.453, 105 125.178, 105 127.257 C 105 127.854, 104.292 129.125, 103.427 130.080 C 102.545 131.055, 101.776 133.871, 101.677 136.490 C 101.409 143.561, 105.245 145.404, 115.351 143.059 C 119.174 142.172, 119.197 142.184, 118.507 144.833 C 118.124 146.300, 117.584 151.435, 117.307 156.245 L 116.801 164.989 112.690 168.245 C 110.428 170.035, 107.211 172.774, 105.539 174.332 C 100.896 178.657, 93.088 182.831, 87.145 184.164 C 80.976 185.548, 79.227 187.837, 80.925 192.304 C 82.350 196.050, 84.148 196.490, 88.127 194.064 C 89.982 192.933, 92.302 192.006, 93.283 192.004 C 96.061 191.998, 104.670 187.293, 108.907 183.465 C 113.080 179.695, 117.008 178.861, 116.988 181.750 C 116.982 182.713, 116.312 185.975, 115.500 189 C 114.688 192.025, 114.018 197.102, 114.012 200.282 C 113.995 208.300, 112.007 212.574, 107.305 214.700 C 102.157 217.028, 100 218.944, 100 221.190 C 100 223.732, 102.900 228, 104.627 228 C 107.143 228, 120.401 221.116, 127.244 216.257 C 152.391 198.401, 161.498 189.280, 156.973 186.483 C 155.977 185.868, 154.579 186.608, 146.376 192.091 C 144.244 193.516, 140.475 195.807, 138 197.183 C 135.525 198.558, 131.268 201.073, 128.540 202.771 C 125.813 204.469, 123.225 205.639, 122.790 205.370 C 121.713 204.705, 121.783 194.252, 122.869 193.581 C 123.347 193.285, 124.059 188.952, 124.450 183.951 C 124.841 178.950, 125.777 173.428, 126.531 171.679 C 127.284 169.931, 130.870 165.612, 134.500 162.082 C 140.496 156.252, 141.073 155.336, 140.800 152.082 C 140.373 146.987, 137.221 146.711, 133.605 151.451 C 128.894 157.628, 125.303 155.212, 126.652 146.772 C 127.194 143.383, 126.998 142.950, 124.490 141.996 L 121.733 140.948 127.116 135.087 C 133.931 127.668, 136 127.306, 136 133.531 C 136 139.895, 138.299 140.576, 142.679 135.509 C 146.019 131.645, 147.234 125.881, 145 124.500 C 144.450 124.160, 144 123.002, 144 121.927 C 144 120.852, 143.577 119.191, 143.060 118.236 C 142.544 117.281, 141.881 115.345, 141.587 113.933 C 141.294 112.522, 139.879 110.738, 138.443 109.969 C 136.031 108.678, 135.683 108.760, 133.883 111.036 C 132.812 112.391, 131.162 114.940, 130.218 116.701 C 127.683 121.424, 119.897 130.554, 116.819 132.413 C 113.492 134.422, 112.227 132.957, 114.005 129.155 C 118.172 120.241, 121.946 113.574, 126.703 106.729 C 131.770 99.437, 132.084 98.636, 131.802 93.738 C 131.424 87.210, 129.084 86.173, 126.030 91.182 M 201 107.824 C 198.329 109.028, 187.145 118.179, 186.596 119.610 C 186.303 120.375, 184.950 121, 183.590 121 C 180.697 121, 180.482 121.284, 179.577 126.298 C 178.959 129.721, 179.217 130.401, 182.196 133.184 C 188.049 138.656, 193.443 142.738, 195.750 143.445 C 197.720 144.049, 198 143.779, 198 141.267 C 198 139.690, 198.518 137.882, 199.151 137.249 C 200.305 136.095, 201.217 132.137, 203.129 120 C 205.037 107.888, 204.732 106.143, 201 107.824 M 69.200 219.200 C 67.395 221.005, 67.730 222.401, 70.610 225.076 C 72.045 226.409, 74.740 229.863, 76.597 232.750 C 80.350 238.583, 82.163 239.207, 84.589 235.504 C 86.122 233.165, 86.097 232.742, 84.190 228.754 C 79.942 219.874, 72.970 215.430, 69.200 219.200 M 39.750 221.080 C 36.941 222.716, 37.690 225.619, 41.500 227.867 C 43.425 229.003, 45 230.666, 45 231.562 C 45 233.232, 48.575 238.919, 50.452 240.235 C 52.398 241.599, 55.988 241.012, 58 239 C 60.627 236.373, 60.534 234.160, 57.750 233.066 C 56.513 232.579, 53.111 229.440, 50.191 226.090 C 44.902 220.022, 43.073 219.145, 39.750 221.080 M 0.667 231.667 C -0.438 232.772, -0.083 237.517, 1.200 238.800 C 1.860 239.460, 4.371 240, 6.780 240 C 10.073 240, 13.281 241.137, 19.699 244.578 C 29.027 249.580, 33.432 249.986, 32.815 245.787 C 32.411 243.039, 22.407 236.098, 14.661 233.191 C 8.999 231.067, 2.026 230.307, 0.667 231.667" stroke="none" fill="black" fill-rule="evenodd"/>
</svg>