<svg xmlns="http://www.w3.org/2000/svg" width="300" height="300" viewBox="0 0 300 300" version="1.1">
	<path d="M 85.033 48.460 C 84.252 49.402, 83.595 53.819, 83.359 59.719 C 83.145 65.060, 82.527 69.873, 81.985 70.415 C 81.443 70.957, 80.986 72.998, 80.968 74.950 C 80.951 76.903, 80.276 79.374, 79.468 80.441 C 78.661 81.509, 78 83.277, 78 84.370 C 78 86.787, 76.228 92.563, 74.399 96.110 C 73.658 97.545, 73.310 98.976, 73.624 99.290 C 73.938 99.605, 73.412 101.355, 72.455 103.181 C 69.383 109.039, 69 109.947, 69 111.364 C 69 112.129, 68.325 113.315, 67.500 114 C 66.675 114.685, 66 116.315, 66 117.622 C 66 118.930, 65.550 120, 65 120 C 64.450 120, 64 120.906, 64 122.014 C 64 123.121, 63.579 124.809, 63.064 125.764 C 60.657 130.231, 59 134.473, 59 136.167 C 59 137.190, 58.594 138.809, 58.097 139.764 C 57.601 140.719, 56.629 143.413, 55.937 145.751 C 53.409 154.294, 58.248 157.465, 67 153 C 73.203 149.836, 74.303 150.218, 73.485 155.250 C 73.105 157.588, 72.390 159.928, 71.897 160.450 C 71.404 160.973, 71 162.633, 71 164.141 C 71 165.649, 70.550 167.160, 70 167.500 C 69.450 167.840, 69 169.341, 69 170.837 C 69 172.332, 68.292 174.566, 67.426 175.802 C 65.359 178.754, 66.419 183.778, 69.396 185.134 C 71.180 185.947, 72.939 185.456, 78.552 182.575 C 86.810 178.338, 88.539 178.209, 93 181.500 C 96.798 184.302, 98.280 184.575, 99.788 182.750 C 100.507 181.880, 100.397 180.286, 99.425 177.500 C 98.658 175.300, 98.023 172.773, 98.015 171.885 C 97.989 169.095, 94.031 165, 91.361 165 C 89.989 165, 87.341 166.164, 85.476 167.586 C 83.612 169.008, 81.647 169.900, 81.109 169.567 C 79.901 168.821, 80.809 162.440, 82.641 158.800 C 83.388 157.314, 84 154.529, 84 152.609 C 84 150.689, 84.450 148.840, 85 148.500 C 85.550 148.160, 86 145.719, 86 143.076 C 86 134.422, 80.918 130.844, 74.146 134.731 C 70.013 137.103, 69.357 135.898, 71.872 130.549 C 73.042 128.059, 74 125.561, 74 124.997 C 74 124.434, 74.404 123.191, 74.897 122.236 C 75.391 121.281, 76.570 118.475, 77.517 116 C 80.354 108.588, 81.177 106.628, 82.622 103.846 C 83.380 102.386, 84 100.050, 84 98.655 C 84 97.260, 84.402 95.869, 84.894 95.565 C 85.386 95.261, 86.036 93.322, 86.338 91.256 C 87.421 83.845, 88.296 80.469, 89.637 78.527 C 90.387 77.443, 91 75.771, 91 74.813 C 91 73.855, 92.125 71.056, 93.500 68.593 C 96.630 62.987, 97.020 53.406, 94.250 50.191 C 91.854 47.411, 86.706 46.444, 85.033 48.460 M 146.208 55.192 C 144.702 56.698, 145.716 75.786, 147.419 78 C 148.238 79.064, 148.391 83.712, 147.948 94 C 147.308 108.863, 147.857 111.765, 151.072 110.521 C 151.858 110.217, 153.595 108.365, 154.934 106.404 C 157.159 103.146, 157.406 101.633, 157.816 88.804 C 158.244 75.382, 157.262 66.241, 154.912 61.764 C 154.410 60.809, 154 59.416, 154 58.669 C 154 56.927, 150.784 54, 148.871 54 C 148.062 54, 146.863 54.537, 146.208 55.192 M 173.250 86.485 C 170.303 88.618, 170.412 90.075, 173.750 93.202 C 176.018 95.328, 177.858 95.901, 184.250 96.475 C 188.758 96.880, 192 97.627, 192 98.262 C 192 98.862, 190.370 101.721, 188.377 104.614 C 186.385 107.507, 184.387 111.590, 183.938 113.687 C 182.173 121.929, 178.171 134.938, 176.268 138.622 C 175.165 140.755, 173.778 143.625, 173.186 145 C 172.594 146.375, 171.185 149.637, 170.055 152.250 C 168.925 154.863, 167.079 159.137, 165.954 161.750 C 164.828 164.363, 162.992 168.300, 161.874 170.500 C 160.755 172.700, 159.061 176.075, 158.109 178 C 157.156 179.925, 154.707 184.875, 152.666 189 C 150.626 193.125, 148.966 196.881, 148.978 197.346 C 148.990 197.811, 148.153 199.386, 147.119 200.846 C 146.084 202.306, 143.370 207.100, 141.088 211.500 C 134.357 224.475, 119.311 246.958, 106.287 263.500 C 105.854 264.050, 103.737 267.200, 101.581 270.500 C 99.426 273.800, 94.364 279.793, 90.331 283.818 C 86.299 287.843, 83 291.906, 83 292.846 C 83 295.641, 85.947 299, 88.400 299 C 90.643 299, 101.588 288.092, 106.116 281.344 C 107.166 279.780, 110.045 275.800, 112.516 272.500 C 114.986 269.200, 119.089 263.426, 121.635 259.668 C 124.180 255.910, 127.554 251.422, 129.131 249.695 C 130.709 247.968, 132 246.116, 132 245.581 C 132 244.628, 132.884 243.187, 140.334 231.991 C 142.350 228.962, 144.010 226.037, 144.022 225.491 C 144.034 224.946, 144.924 223.375, 146 222 C 147.076 220.625, 147.966 218.871, 147.978 218.103 C 147.990 217.335, 149.553 214.810, 151.452 212.493 C 153.351 210.176, 155.693 206.309, 156.657 203.900 C 157.621 201.490, 159.461 197.715, 160.745 195.510 C 162.030 193.304, 163.512 190.713, 164.040 189.750 C 164.568 188.788, 165.438 187.213, 165.972 186.250 C 169.369 180.137, 178.880 159.313, 180.882 153.607 C 182.019 150.365, 183.586 146.990, 184.363 146.107 C 185.141 145.223, 186.084 143.057, 186.459 141.293 C 186.833 139.529, 187.959 136.379, 188.959 134.293 C 189.959 132.207, 191.331 127.800, 192.007 124.500 C 192.682 121.200, 194.982 115.312, 197.118 111.415 C 199.253 107.518, 201 103.441, 201 102.356 C 201 101.270, 201.593 99.571, 202.318 98.580 C 203.581 96.852, 203.816 96.865, 207.980 98.876 C 211.421 100.539, 212.625 100.726, 213.769 99.777 C 214.563 99.117, 216.178 98.100, 217.357 97.516 C 220.460 95.978, 220.708 91.382, 217.851 88.341 C 215.887 86.251, 214.662 85.898, 209.524 85.942 C 206.211 85.970, 197.200 85.738, 189.500 85.425 C 177.544 84.940, 175.171 85.095, 173.250 86.485 M 122.750 96.080 C 119.769 97.816, 120.541 102.741, 124.400 106.600 C 128.130 110.330, 132.092 111.001, 135.439 108.470 C 137.332 107.038, 137.314 106.937, 134.689 104.197 C 133.210 102.653, 132 100.697, 132 99.850 C 132 96.131, 126.507 93.892, 122.750 96.080 M 50.251 206.149 C 48.928 207.472, 50.688 211.667, 53.570 214.058 C 54.506 214.835, 56.341 217.165, 57.649 219.235 C 59.759 222.578, 60.479 223, 64.078 223 C 69.989 223, 72 221.595, 72 217.465 C 72 214.297, 71.748 214, 69.059 214 C 67.441 214, 65.847 213.561, 65.515 213.024 C 64.516 211.407, 54.400 205, 52.846 205 C 52.051 205, 50.883 205.517, 50.251 206.149 M 6.803 213.533 C 5.820 215.690, 5.873 216.683, 7.082 218.843 C 8.351 221.108, 9.450 221.594, 14.535 222.137 C 17.816 222.487, 22.469 223.500, 24.876 224.387 C 31.429 226.803, 35.620 226.510, 37.592 223.500 C 39.114 221.177, 39.109 220.816, 37.527 218.400 C 36.201 216.377, 35.237 215.913, 33.179 216.306 C 31.492 216.629, 29.080 215.980, 26.517 214.516 C 23.894 213.017, 19.986 211.987, 15.256 211.550 C 8.113 210.889, 7.995 210.917, 6.803 213.533 M 86 213.521 C 86 216.046, 91.053 222.870, 94.502 225.001 C 98.805 227.661, 100.806 227.521, 102.198 224.464 C 103.262 222.130, 102.965 221.533, 98.465 216.964 C 94.310 212.746, 93.006 212, 89.788 212 C 87.064 212, 86 212.427, 86 213.521" stroke="none" fill="black" fill-rule="evenodd"/>
</svg>