<svg xmlns="http://www.w3.org/2000/svg" width="300" height="300" viewBox="0 0 300 300" version="1.1">
	<path d="M 174.812 36.906 C 172.233 37.276, 169.273 38.348, 168.233 39.289 C 167.193 40.230, 165.646 41, 164.794 41 C 163.942 41, 162.685 41.675, 162 42.500 C 161.315 43.325, 159.886 44, 158.825 44 C 157.763 44, 155.238 45.125, 153.215 46.500 C 151.191 47.875, 148.795 49, 147.890 49 C 146.985 49, 145.706 49.649, 145.048 50.442 C 144.390 51.235, 140.927 53.353, 137.352 55.149 C 133.778 56.946, 129.245 59.805, 127.281 61.503 C 123.799 64.513, 123.740 64.683, 124.932 68.295 C 126.332 72.536, 127.184 72.787, 130.727 70 C 132.126 68.900, 134.131 68, 135.185 68 C 137.569 68, 142.218 65.647, 143.945 63.566 C 144.660 62.705, 145.993 62, 146.906 62 C 148.414 62, 148.558 64.337, 148.458 87.250 C 148.356 110.522, 147.403 122.920, 145.478 126.036 C 144.770 127.181, 143.847 133.083, 142.431 145.500 C 141.854 150.563, 141.576 151.501, 138.639 158.284 C 137.737 160.365, 137 162.690, 137 163.451 C 137 165.291, 134.925 165.948, 132.712 164.809 C 127.288 162.017, 124.991 168.459, 129.500 173.818 C 132.073 176.875, 132.763 180.410, 131 181.500 C 130.450 181.840, 129.993 183.104, 129.985 184.309 C 129.968 186.713, 128.132 192.263, 126.220 195.684 C 125.549 196.886, 125 198.479, 125 199.225 C 125 201.498, 114.099 222.287, 111.467 225.035 C 107.504 229.171, 108.759 233, 114.078 233 C 117.074 233, 118.298 231.814, 122.203 225.128 C 124.885 220.538, 125.845 218.610, 130.739 208 C 132.135 204.975, 133.664 201.719, 134.138 200.764 C 134.612 199.809, 135 197.657, 135 195.982 C 135 193.112, 137.248 190.915, 138.700 192.367 C 139.486 193.153, 140.914 200.559, 142.004 209.500 C 143.085 218.363, 144.854 233.275, 144.937 234.215 C 144.972 234.608, 145.929 235.427, 147.064 236.034 C 150.750 238.007, 152 235.705, 152 226.943 C 152 222.646, 151.550 217.946, 151 216.500 C 149.449 212.422, 151.082 210.749, 160.053 207.221 C 170.029 203.299, 171 203.720, 171 211.967 C 171 216.241, 171.463 218.109, 172.829 219.345 C 176.500 222.667, 181 220.800, 181 215.954 C 181 214.498, 181.727 211.851, 182.615 210.071 C 184.111 207.071, 184.103 206.554, 182.502 203.005 C 181.552 200.898, 180.951 198.646, 181.167 198 C 181.617 196.650, 197.428 188, 199.446 188 C 201.484 188, 201.993 190.440, 200.834 194.641 C 200.148 197.123, 200.078 202.409, 200.629 209.965 C 201.093 216.309, 201.478 222.363, 201.486 223.417 C 201.506 226.107, 198.984 226.655, 198.317 224.105 C 198.009 222.928, 196.956 222, 195.929 222 C 193.532 222, 192.373 227.763, 193.893 232.124 C 194.502 233.870, 195 236.595, 195 238.179 C 195 239.764, 196.134 243.755, 197.520 247.048 C 199.789 252.439, 200.025 254.252, 199.891 265.258 C 199.809 271.980, 199.238 279.059, 198.621 280.990 C 198.004 282.920, 197.637 286.635, 197.805 289.245 C 198.068 293.347, 198.446 294.074, 200.595 294.613 C 202.238 295.026, 203.716 294.662, 204.957 293.539 C 206.624 292.030, 206.871 289.948, 207.167 274.939 L 207.500 258.038 213.844 251.769 C 218.677 246.993, 221.209 243.357, 224.476 236.500 C 226.835 231.550, 229.325 225.700, 230.010 223.500 C 230.695 221.300, 231.816 218.375, 232.502 217 C 233.188 215.625, 234.057 212.373, 234.433 209.773 C 234.808 207.174, 235.576 204.762, 236.139 204.414 C 236.702 204.066, 236.881 202.663, 236.538 201.295 C 236.195 199.928, 236.322 198.289, 236.820 197.654 C 238.799 195.135, 239.086 188.062, 237.320 185.365 C 235.835 183.099, 235.802 182.610, 237.068 181.629 C 242.092 177.735, 242.257 160.784, 237.327 154.921 C 236.597 154.053, 236 152.774, 236 152.079 C 236 150.307, 232.359 145.877, 229.177 143.778 C 225.612 141.427, 219.209 141.521, 208.887 144.076 C 197.513 146.892, 185.576 152.911, 167.547 164.923 C 157.321 171.735, 151.764 176.511, 149.348 180.567 C 148.241 182.424, 148.123 182.430, 146.348 180.714 C 144.120 178.561, 143.910 172.522, 145.837 166 C 149.781 152.649, 151.709 144.645, 152.683 137.574 C 153.133 134.315, 154.063 131.465, 154.750 131.241 C 155.438 131.017, 156 131.546, 156 132.417 C 156 135.205, 159.926 134.152, 166.321 129.648 C 169.719 127.255, 175.200 124.075, 178.500 122.581 C 189.312 117.687, 189.485 117.565, 189.822 114.658 C 190.203 111.372, 188.692 109.239, 185.677 108.810 C 183.020 108.432, 182.261 104.858, 184.452 103.040 C 185.303 102.333, 186 100.924, 186 99.908 C 186 98.892, 186.811 96.585, 187.803 94.780 C 189.783 91.179, 192.481 83.983, 193.394 79.871 C 194.095 76.713, 190.840 72, 187.959 72 C 186.916 72, 180.421 76.275, 173.526 81.500 C 166.630 86.725, 160.362 91, 159.597 91 C 157.855 91, 156.321 66.818, 157.643 60.193 C 158.454 56.124, 158.821 55.758, 164.500 53.348 C 175.079 48.859, 177.435 48.089, 180.724 48.044 C 183.305 48.009, 184.272 47.374, 185.569 44.866 C 187.095 41.915, 187.076 41.579, 185.245 39.116 C 183.090 36.218, 181.681 35.920, 174.812 36.906 M 92.610 53.296 C 91.267 54.278, 90.766 56.280, 90.541 61.546 C 90.379 65.371, 89.715 70.750, 89.067 73.500 C 88.419 76.250, 87.630 80.075, 87.314 82 C 86.998 83.925, 86.123 86.388, 85.370 87.473 C 84.616 88.557, 84 90.668, 84 92.163 C 84 93.659, 83.550 95.160, 83 95.500 C 82.450 95.840, 82 97.190, 82 98.500 C 82 99.810, 81.550 101.160, 81 101.500 C 80.450 101.840, 80 102.976, 80 104.024 C 80 106.787, 77.332 114.398, 73.347 123 C 71.436 127.125, 69.508 131.400, 69.061 132.500 C 68.614 133.600, 67.680 135.850, 66.985 137.500 C 66.290 139.150, 65.390 142.075, 64.986 144 C 64.581 145.925, 63.969 148.175, 63.624 149 C 63.267 149.855, 64.028 151.784, 65.393 153.486 C 67.767 156.445, 67.830 156.460, 72.555 155.197 C 75.405 154.434, 77.686 154.286, 78.228 154.828 C 79.075 155.675, 77.004 161.408, 73.413 168.154 C 71.444 171.853, 71.651 175.374, 73.960 177.464 C 76.763 180.001, 79.883 178.873, 86.308 173.002 C 91.976 167.821, 96 166.511, 96 169.845 C 96 172.027, 99.007 175, 101.214 175 C 104.004 175, 106 170.450, 106 164.092 C 106 159.048, 105.653 157.870, 103.777 156.557 C 100.942 154.571, 98.068 154.589, 92.979 156.625 C 90.745 157.519, 88.630 157.963, 88.280 157.613 C 87.929 157.262, 88.623 155.138, 89.821 152.893 C 92.607 147.674, 92.783 140.018, 90.171 137.655 C 87.532 135.267, 83.706 135.619, 81 138.500 C 79.708 139.875, 78.274 141, 77.814 141 C 76.746 141, 78.017 132.613, 79.152 132.167 C 79.618 131.983, 80 131.144, 80 130.302 C 80 129.460, 81.096 126.685, 82.435 124.135 C 86.978 115.489, 90 108.315, 90 106.179 C 90 105.008, 91.575 101.133, 93.500 97.568 C 95.425 94.003, 97 90.193, 97 89.102 C 97 88.011, 97.450 86.840, 98 86.500 C 98.550 86.160, 99 84.645, 99 83.132 C 99 81.620, 99.661 79.509, 100.468 78.441 C 101.276 77.374, 101.951 74.558, 101.968 72.184 C 101.986 69.811, 102.467 66.995, 103.038 65.928 C 103.769 64.562, 103.726 62.732, 102.891 59.744 C 101.006 53, 96.704 50.302, 92.610 53.296 M 172 93.901 C 168.975 95.991, 164.521 98.793, 162.103 100.128 L 157.705 102.555 157.418 111.221 C 157.260 115.988, 156.632 120.819, 156.022 121.958 C 155.142 123.604, 155.226 124.149, 156.431 124.612 C 157.885 125.170, 160.021 123.834, 167.457 117.716 C 170.935 114.855, 178 102.299, 178 98.979 C 178 97.956, 178.450 96.840, 179 96.500 C 180.462 95.596, 180.245 89.990, 178.750 90.051 C 178.063 90.079, 175.025 91.811, 172 93.901 M 213.358 153.216 C 209.597 154.427, 207.014 158.414, 208.820 160.220 C 209.469 160.869, 210 163.335, 210 165.700 C 210 170.355, 211.787 171.401, 214.921 168.578 C 217.745 166.034, 221.422 165.711, 223.980 167.783 C 227.294 170.466, 226.225 172.228, 218.145 177.407 L 211.214 181.850 210.630 187.675 C 210.014 193.819, 209.602 217.451, 209.852 232.333 C 210.017 242.191, 211.122 243.191, 214.364 236.419 C 215.396 234.263, 216.589 231.793, 217.016 230.930 C 217.443 230.066, 219.220 225.791, 220.965 221.430 C 222.709 217.068, 224.556 212.719, 225.068 211.764 C 225.581 210.809, 226 209.393, 226 208.618 C 226 207.843, 227.349 204.039, 228.998 200.164 C 231.299 194.756, 231.784 192.563, 231.086 190.726 C 230.586 189.410, 230.481 187.840, 230.853 187.238 C 231.942 185.477, 231.348 164.767, 230.121 161.685 C 229.504 160.137, 229 158.533, 229 158.122 C 229 157.711, 227.738 156.165, 226.195 154.687 C 223.169 151.788, 219.204 151.334, 213.358 153.216 M 193 160 C 191.625 161.076, 190.132 161.966, 189.683 161.978 C 189.234 161.990, 187.392 163.125, 185.589 164.500 C 183.786 165.875, 181.861 167, 181.311 167 C 177.704 167, 175.650 174.635, 178.598 177.081 C 179.703 177.999, 180.034 179.401, 179.672 181.631 C 179.080 185.283, 179.848 189.227, 181.067 188.791 C 181.514 188.631, 182.919 186.961, 184.190 185.079 C 185.760 182.754, 187.982 181.153, 191.125 180.079 C 193.669 179.211, 196.453 177.906, 197.311 177.181 C 199.364 175.445, 200.480 170.577, 200.102 165 C 199.622 157.914, 197.541 156.448, 193 160 M 160.250 181.039 C 158.463 182.723, 157 184.538, 157 185.072 C 157 185.606, 155.884 186.552, 154.519 187.173 C 152.001 188.320, 151.660 188.963, 150.495 194.750 C 149.884 197.787, 150.021 198, 152.590 198 C 154.101 198, 157.730 196.650, 160.654 195 C 163.578 193.350, 166.652 192, 167.485 192 C 169.441 192, 169.427 189.055, 167.459 186.245 C 166.611 185.034, 166.048 182.813, 166.209 181.308 C 166.620 177.439, 164.187 177.330, 160.250 181.039 M 61.975 203.530 C 60.391 205.439, 62.086 209.776, 64.741 210.607 C 65.709 210.909, 67.694 211.797, 69.154 212.578 C 72.938 214.605, 75.483 214.352, 80 211.500 C 85.722 207.888, 88.707 208.274, 96.541 213.638 C 102.318 217.594, 103.695 218.142, 105.907 217.368 C 107.500 216.810, 108.627 215.568, 108.830 214.147 C 109.487 209.549, 102.589 204.920, 92.300 203.054 C 86.894 202.074, 85.578 202.186, 80.595 204.050 L 74.980 206.151 71.622 204.076 C 67.652 201.622, 63.743 201.400, 61.975 203.530 M 18.750 207.080 C 17.788 207.641, 17 208.907, 17 209.895 C 17 212.773, 20.105 214.688, 25.804 215.325 C 29.780 215.770, 32.786 217.023, 37.804 220.328 C 46.538 226.079, 48.391 227, 51.234 227 C 53.805 227, 56 225.326, 56 223.366 C 56 221.821, 41.534 211.784, 34.535 208.473 C 29.058 205.882, 21.893 205.250, 18.750 207.080" stroke="none" fill="black" fill-rule="evenodd"/>
</svg>