<svg xmlns="http://www.w3.org/2000/svg" width="300" height="300" viewBox="0 0 300 300" version="1.1">
	<path d="M 157.882 35.642 C 156.914 36.809, 156.487 40.784, 156.405 49.392 C 156.264 64.310, 156.302 64, 154.615 64 C 152.916 64, 150 59.734, 150 57.247 C 150 54.958, 146.455 47.906, 144.765 46.834 C 142.849 45.618, 137.556 45.844, 136.200 47.200 C 134.394 49.006, 134.754 52.410, 137.027 55.031 C 139.110 57.433, 139.490 58.611, 140.405 65.500 C 141.059 70.419, 140.544 71.274, 135.513 73.634 C 130.948 75.775, 130.116 78.002, 132.516 81.664 C 133.942 83.840, 134.722 84.145, 137.656 83.668 C 143.192 82.770, 143.675 83.341, 143.179 90.196 C 142.653 97.468, 141.318 98.947, 130.250 104.513 C 123.420 107.948, 123 108.353, 123 111.507 C 123 114.052, 123.733 115.428, 126.054 117.245 L 129.108 119.636 126.899 125.542 C 124.400 132.219, 118.856 141.384, 115.271 144.763 C 112.187 147.668, 112.573 151.613, 116.204 154.312 C 118.151 155.759, 119.270 156.032, 120.204 155.285 C 121.762 154.039, 135.381 149.045, 139.250 148.302 L 142 147.773 141.983 158.637 C 141.973 164.611, 141.298 172.648, 140.483 176.496 C 139.019 183.408, 139.321 189.462, 141.187 190.616 C 142.624 191.503, 146.716 187.226, 147.353 184.171 C 149.406 174.330, 149.888 170.765, 149.947 165 C 149.995 160.270, 150.554 157.683, 152 155.500 C 153.399 153.388, 153.989 150.806, 153.993 146.773 C 153.999 141.776, 154.318 140.838, 156.492 139.413 C 159.894 137.184, 161.585 138.117, 162.384 142.663 C 163.448 148.718, 165.359 189.890, 165.394 207.500 C 165.432 227.297, 163.434 262.190, 161.969 267.297 C 160.507 272.396, 161.061 277.401, 163.133 277.793 C 164.031 277.962, 166.129 276.841, 167.796 275.301 C 171.360 272.007, 171.933 268.729, 172.571 248 C 172.800 240.575, 173.453 228.425, 174.022 221 C 174.592 213.575, 175.382 202.823, 175.779 197.107 L 176.500 186.714 181 185.555 C 189.883 183.265, 195.965 177.709, 201.309 167 C 202.269 165.075, 203.441 162.825, 203.912 162 C 204.383 161.175, 205.333 159.150, 206.024 157.500 C 206.715 155.850, 207.845 153.150, 208.535 151.500 C 214.383 137.514, 217.358 126.906, 216.512 123.053 C 216.149 121.403, 214.502 118.917, 212.850 117.527 C 210.255 115.343, 208.881 115, 202.744 115 C 195.450 115, 194.780 115.147, 182 119.534 C 171.369 123.185, 171.551 123.208, 171.188 118.149 C 170.598 109.935, 172.595 101.226, 175.942 97.414 C 177.624 95.498, 179 93.476, 179 92.920 C 179 91.750, 175.236 87.985, 172.526 86.445 C 170.749 85.434, 170.780 85.158, 173.261 79.914 C 175.575 75.022, 175.743 73.931, 174.835 69.675 C 173.991 65.719, 173.156 64.492, 169.910 62.443 L 166 59.975 166 48.642 C 166 38.934, 165.738 37.073, 164.171 35.655 C 161.849 33.553, 159.619 33.549, 157.882 35.642 M 84.498 49.003 C 84.157 49.555, 84.182 52.034, 84.554 54.512 C 84.985 57.385, 84.815 59.518, 84.085 60.397 C 83.225 61.434, 83.235 62.423, 84.129 64.384 C 85.115 66.548, 85.035 67.304, 83.659 68.825 C 82.746 69.833, 82 72.058, 82 73.770 C 82 75.481, 81.550 77.160, 81 77.500 C 80.450 77.840, 80 79.201, 80 80.525 C 80 81.849, 79.263 84.635, 78.361 86.716 C 77.460 88.797, 76.288 91.625, 75.756 93 C 75.224 94.375, 74.216 96.850, 73.515 98.500 C 72.813 100.150, 71.678 103.525, 70.990 106 C 70.303 108.475, 69.124 111.918, 68.370 113.651 C 67.617 115.384, 67 117.495, 67 118.342 C 67 119.189, 66.550 120.160, 66 120.500 C 65.450 120.840, 65 122.190, 65 123.500 C 65 124.810, 64.550 126.160, 64 126.500 C 63.450 126.840, 63 127.901, 63 128.859 C 63 129.817, 62.474 131.126, 61.832 131.768 C 58.040 135.560, 56.877 146.674, 59.979 149.481 C 61.746 151.080, 62.444 151.136, 66.508 149.998 C 69.010 149.297, 71.311 148.977, 71.620 149.287 C 72.538 150.205, 68.115 162.223, 63.911 170.236 C 62.623 172.692, 62.781 177.381, 64.200 178.800 C 66.851 181.451, 71.751 180.117, 80 174.500 C 84.442 171.475, 88.350 169, 88.683 169 C 89.016 169, 90.763 170.688, 92.565 172.750 C 95.337 175.922, 96.124 176.326, 97.671 175.369 C 100.804 173.431, 98.792 161.562, 94.763 158.218 C 94.062 157.637, 92.176 156.831, 90.570 156.428 C 87.929 155.765, 87.209 156.201, 82.986 161.016 C 79.505 164.985, 77.871 166.164, 76.551 165.658 C 74.909 165.028, 74.897 164.806, 76.392 162.525 C 77.276 161.175, 78 159.181, 78 158.094 C 78 157.007, 78.450 155.840, 79 155.500 C 79.550 155.160, 80 153.585, 80 152 C 80 150.415, 80.450 148.840, 81 148.500 C 81.550 148.160, 82 145.669, 82 142.964 C 82 138.821, 81.606 137.788, 79.498 136.407 C 78.108 135.496, 75.889 134.979, 74.504 135.244 C 71.430 135.832, 69.217 133.649, 70.869 131.658 C 71.481 130.920, 72.852 127.594, 73.915 124.267 C 74.978 120.940, 76.288 117.381, 76.826 116.359 C 77.365 115.336, 78.377 112.475, 79.076 110 C 79.776 107.525, 80.720 105.073, 81.174 104.550 C 81.628 104.028, 82.003 102.903, 82.006 102.050 C 82.010 101.198, 82.685 99.211, 83.506 97.636 C 84.328 96.060, 85 93.949, 85 92.945 C 85 91.940, 85.450 90.840, 86 90.500 C 86.550 90.160, 87 89.045, 87 88.022 C 87 86.999, 87.647 84.888, 88.437 83.331 C 91.407 77.481, 94 66.345, 93.993 59.472 C 93.987 52.706, 93.889 52.434, 90.681 50.250 C 87.068 47.790, 85.449 47.464, 84.498 49.003 M 154.344 75.546 C 154.017 76.397, 153.977 79.104, 154.254 81.562 C 154.531 84.020, 154.362 86.276, 153.879 86.575 C 152.501 87.427, 152.851 90, 154.345 90 C 157.319 90, 159 86.451, 159 80.171 C 159 74.635, 158.791 74, 156.969 74 C 155.851 74, 154.670 74.696, 154.344 75.546 M 155.474 108.042 C 155.120 108.615, 154.439 112.328, 153.961 116.292 C 153.483 120.256, 152.805 124.898, 152.454 126.607 C 151.613 130.695, 154.285 131.936, 157.951 129.161 C 160.312 127.373, 160.487 126.686, 160.327 119.865 C 160.093 109.939, 157.782 104.308, 155.474 108.042 M 140.587 119.250 C 138.509 126.656, 137.290 129.437, 135.213 131.514 C 132.010 134.718, 132.865 137.496, 136.759 136.538 C 143.101 134.979, 144 133.606, 144 125.477 C 144 119.429, 143.707 118, 142.469 118 C 141.626 118, 140.779 118.563, 140.587 119.250 M 192.847 126.461 C 188.638 127.111, 184.138 128.327, 182.847 129.163 C 181.556 130, 179.150 131.015, 177.500 131.420 C 171.457 132.902, 171 134.054, 171 147.789 C 171 154.652, 171.432 161.895, 171.959 163.884 C 172.487 165.873, 173.173 169.137, 173.484 171.139 C 173.921 173.951, 174.708 175.051, 176.951 175.980 C 178.547 176.641, 180.830 176.871, 182.025 176.492 C 185.306 175.451, 192 168.294, 192 165.829 C 192 164.635, 192.601 162.947, 193.335 162.079 C 194.070 161.210, 195.276 158.925, 196.016 157 C 196.756 155.075, 198.798 150.506, 200.553 146.847 C 202.308 143.188, 203.975 138.913, 204.258 137.347 C 204.540 135.781, 205.385 133.001, 206.135 131.169 C 207.378 128.136, 207.326 127.712, 205.559 126.419 C 203.382 124.828, 203.418 124.827, 192.847 126.461 M 86.923 200.923 C 82.718 205.128, 83.283 209.769, 87.603 206.500 C 90.340 204.428, 93.189 204.706, 95.631 207.285 C 96.803 208.522, 98.936 210.163, 100.371 210.931 C 102.689 212.172, 103.205 212.124, 104.990 210.509 C 110.375 205.636, 103.679 198, 94.022 198 C 90.740 198, 89.221 198.626, 86.923 200.923 M 61.571 201.571 C 59.250 203.893, 59.648 205.816, 62.855 207.766 C 64.425 208.721, 66.954 210.980, 68.474 212.787 C 73.063 218.241, 80 220.516, 80 216.568 C 80 214.759, 71.220 203.786, 68.156 201.765 C 64.873 199.600, 63.581 199.562, 61.571 201.571 M 17.465 204.057 C 17.106 204.638, 17.090 206.222, 17.430 207.576 C 17.901 209.456, 19.996 210.971, 26.274 213.976 C 30.798 216.141, 36.518 219.058, 38.985 220.457 C 44.029 223.317, 46.760 223.627, 49.471 221.645 C 51.860 219.898, 50.908 217.352, 47.278 215.780 C 45.750 215.118, 41.611 212.592, 38.080 210.166 C 34.549 207.740, 30.176 205.136, 28.362 204.378 C 24.452 202.744, 18.387 202.566, 17.465 204.057" stroke="none" fill="black" fill-rule="evenodd"/>
</svg>