<svg xmlns="http://www.w3.org/2000/svg" width="300" height="300" viewBox="0 0 300 300" version="1.1">
	<path d="M 146.159 35.692 C 143.619 36.705, 138.054 43.504, 138.027 45.628 C 138.012 46.798, 137.266 48.364, 136.369 49.108 C 134.963 50.276, 134.517 50.144, 133.119 48.144 C 126.215 38.261, 121.664 35.786, 118.557 40.223 C 116.284 43.467, 116.638 45.606, 119.822 47.873 C 121.373 48.978, 123.444 51.821, 124.423 54.191 C 125.403 56.561, 126.611 59.175, 127.108 60 C 127.606 60.825, 128.171 61.950, 128.365 62.500 C 130.576 68.775, 131.272 72.388, 131.389 78.212 C 131.487 83.093, 131.958 85.362, 133.013 86.029 C 135.572 87.647, 137.526 87.104, 140.563 83.930 C 144.956 79.339, 149.951 76.600, 154.992 76.019 L 159.500 75.500 159.500 71 C 159.500 66.743, 159.311 66.438, 156 65.351 C 152.334 64.147, 151.832 62.141, 154.413 59 C 156.514 56.442, 158.500 48.749, 158.500 43.169 C 158.500 39.047, 158.060 37.517, 156.559 36.419 C 154.663 35.033, 148.835 34.626, 146.159 35.692 M 68.129 39.622 C 66.116 41.032, 65.900 41.785, 66.475 45.372 C 67.424 51.300, 67.357 56.838, 66.272 62 C 64.791 69.051, 59.034 89.311, 57.964 91.236 C 57.434 92.191, 56.986 93.766, 56.968 94.736 C 56.951 95.706, 56.276 97.374, 55.468 98.441 C 54.661 99.509, 53.967 101.309, 53.927 102.441 C 53.887 103.574, 53.014 105.850, 51.987 107.500 C 49.611 111.317, 45.589 119.730, 43.878 124.461 C 42.750 127.580, 42.777 128.513, 44.061 130.809 C 44.924 132.350, 46.621 133.643, 48.033 133.835 C 52.116 134.389, 52.432 135.568, 50.007 141.196 C 48.345 145.052, 47.748 148.274, 47.820 153 C 47.906 158.689, 48.243 159.781, 50.515 161.750 C 51.943 162.988, 53.486 164, 53.943 164 C 56.153 164, 64.675 157.124, 66 154.272 C 68.070 149.816, 71 149.878, 71 154.378 C 71 158.232, 72.173 159.485, 76.685 160.450 C 79.167 160.980, 80.326 160.674, 81.935 159.065 C 84.346 156.654, 84.776 149.889, 82.630 148.108 C 81.877 147.483, 80.500 144.980, 79.571 142.546 C 78.207 138.976, 77.015 137.702, 73.404 135.953 C 70.941 134.761, 68.043 134.017, 66.964 134.299 C 64.625 134.911, 63.317 133.283, 64.887 131.713 C 66.579 130.021, 66.217 125.501, 64.250 123.766 C 63.288 122.917, 61.038 121.912, 59.250 121.532 C 55.997 120.841, 55.122 119.661, 57 118.500 C 57.550 118.160, 58 117.190, 58 116.345 C 58 115.500, 58.843 113.614, 59.874 112.154 C 60.904 110.694, 62.757 106.125, 63.990 102 C 65.224 97.875, 66.633 93.825, 67.123 93 C 67.612 92.175, 68.268 90.825, 68.579 90 C 68.891 89.175, 69.603 87.655, 70.161 86.623 C 71.266 84.578, 73.360 76.768, 74.450 70.627 C 74.828 68.497, 75.508 66.022, 75.961 65.127 C 77.217 62.646, 79 51.933, 79 46.864 C 79 39.500, 73.518 35.848, 68.129 39.622 M 143.548 50.567 C 142.623 51.979, 140.954 54.046, 139.839 55.161 C 138.217 56.783, 137.949 57.916, 138.495 60.844 C 139.306 65.182, 139.324 65.207, 141.107 64.474 C 142.561 63.877, 149.022 51.426, 149.008 49.250 C 148.994 47.028, 145.280 47.924, 143.548 50.567 M 164 81.079 C 159.325 83.275, 154.825 85.509, 154 86.043 C 153.175 86.578, 151.375 87.512, 150 88.120 C 143.363 91.054, 131.161 97.540, 128.317 99.644 C 126.566 100.940, 124.685 102, 124.136 102 C 123.588 102, 120.296 103.300, 116.820 104.889 C 113.344 106.478, 107.971 108.498, 104.881 109.379 C 98.238 111.272, 96.753 112.757, 97.182 117.084 C 97.582 121.126, 100.183 122.991, 102.983 121.243 C 104.077 120.559, 105.469 120, 106.075 120 C 106.681 120, 111.300 118.037, 116.339 115.637 C 135.217 106.645, 138.805 105, 139.532 105 C 139.943 105, 142.512 103.626, 145.242 101.946 C 151.882 97.861, 153.346 98.284, 154.121 104.511 C 154.829 110.196, 154.303 110.992, 148.568 112.932 C 146.406 113.663, 143.733 115.102, 142.630 116.130 C 140.284 118.316, 138 118.575, 138 116.655 C 138 114.708, 134.680 112, 132.294 112 C 128.483 112, 128.129 113.794, 128.738 130.008 C 129.058 138.529, 129.228 152.364, 129.115 160.754 C 128.947 173.197, 129.215 176.652, 130.569 179.504 C 132.375 183.311, 134.907 184.022, 137.128 181.346 C 138.091 180.185, 138.504 176.649, 138.513 169.484 C 138.529 157.932, 138.996 156.917, 145.147 155.074 C 147.442 154.387, 150.554 152.911, 152.064 151.794 C 157.048 148.110, 157.362 149.398, 156.591 170.334 C 156.206 180.803, 155.697 189.681, 155.461 190.063 C 155.225 190.445, 149.287 191.076, 142.266 191.465 C 135.245 191.853, 125 193.089, 119.500 194.210 C 114 195.331, 106.283 196.755, 102.352 197.374 C 92.260 198.964, 88.473 203.162, 92.350 208.464 C 93.825 210.482, 94.599 210.430, 107.500 207.455 C 111.350 206.567, 117.650 205.459, 121.500 204.993 C 125.350 204.528, 131.086 203.688, 134.247 203.126 C 142.322 201.692, 152.885 201.485, 154.136 202.736 C 155.443 204.043, 154.685 246.558, 153.132 259.054 C 151.838 269.454, 152.634 273.381, 156.118 273.797 C 161.005 274.382, 162.134 271.494, 162.557 257.325 C 162.768 250.271, 163.396 240.225, 163.953 235 C 164.510 229.775, 164.976 220.775, 164.990 215 L 165.014 204.500 168.319 202.250 C 171.577 200.032, 171.842 200.015, 187.062 201.061 C 206.090 202.369, 216.688 202.361, 224.500 201.032 C 227.800 200.471, 232.456 200.009, 234.846 200.006 C 245.286 199.992, 249.454 190.867, 240.957 186.629 C 238.173 185.240, 237.444 185.268, 232.702 186.951 C 229.841 187.966, 224.575 189.296, 221 189.907 C 212.964 191.279, 168.264 190.664, 166.760 189.160 C 166.066 188.466, 166.047 179.516, 166.701 161.319 C 167.792 130.943, 167.769 129.308, 166.003 111.681 C 164.836 100.035, 164.502 98.720, 162.359 97.316 C 159.279 95.298, 159.381 94.170, 162.750 92.975 C 164.262 92.438, 166.281 91.549, 167.236 91 C 168.191 90.450, 169.604 90, 170.376 90 C 172.978 90, 178.866 83.654, 179.191 80.500 C 179.478 77.711, 179.253 77.485, 176 77.293 C 173.674 77.155, 169.650 78.425, 164 81.079 M 148.389 125.980 C 147.228 126.449, 146.029 127.481, 145.725 128.274 C 145.421 129.067, 143.783 129.993, 142.086 130.333 C 139.024 130.945, 139 130.999, 139 137.353 C 139 145.949, 140.305 146.974, 146.101 142.926 C 148.521 141.237, 151.963 138.943, 153.750 137.829 C 156.765 135.949, 157 135.413, 157 130.401 L 157 125 153.750 125.063 C 151.963 125.098, 149.550 125.511, 148.389 125.980 M 60.638 139.500 C 60.288 140.414, 60.637 141, 61.531 141 C 62.339 141, 63 140.325, 63 139.500 C 63 138.675, 62.598 138, 62.107 138 C 61.616 138, 60.955 138.675, 60.638 139.500 M 66.667 188.667 C 65.525 189.809, 65.928 192.439, 67.798 196.039 C 72.283 204.671, 73.525 205.475, 77 202 C 78.318 200.682, 79 198.667, 79 196.089 C 79 192.468, 78.680 192.024, 74.684 190.089 C 70.234 187.935, 67.826 187.508, 66.667 188.667 M 34.200 194.200 C 31.948 196.452, 32.997 199.127, 38.067 204.065 C 42.050 207.944, 43.834 209, 46.412 209 C 49.524 209, 53 206.564, 53 204.383 C 53 203.116, 45.322 196.735, 41.286 194.648 C 37.498 192.689, 35.817 192.583, 34.200 194.200 M 0.051 202.750 C 0.106 207.900, -0.958 206.821, 16.489 219.420 C 17.774 220.348, 24.331 217.892, 25.465 216.057 C 26.578 214.256, 24.059 210.216, 21.201 209.220 C 19.583 208.656, 17.413 207.329, 16.379 206.272 C 12.941 202.755, 4.933 198, 2.450 198 C 0.187 198, 0.004 198.362, 0.051 202.750" stroke="none" fill="black" fill-rule="evenodd"/>
</svg>