<svg xmlns="http://www.w3.org/2000/svg" width="300" height="300" viewBox="0 0 300 300" version="1.1">
	<path d="M 149.557 42.223 C 148.701 43.445, 148 46.343, 148 48.663 C 148 50.984, 147.550 53.160, 147 53.500 C 146.450 53.840, 145.984 55.329, 145.965 56.809 C 145.945 58.289, 145.286 60.625, 144.500 62 C 143.714 63.375, 143.041 65.400, 143.004 66.500 C 142.967 67.600, 141.831 70.750, 140.478 73.500 C 139.125 76.250, 138.014 79.261, 138.009 80.191 C 138.004 81.121, 137.550 82.160, 137 82.500 C 136.450 82.840, 136 83.824, 136 84.686 C 136 85.549, 134.693 89.010, 133.097 92.377 C 124.205 111.128, 122 115.960, 122 116.696 C 122 118.670, 111.211 132.498, 108.500 134 C 103.278 136.893, 104.383 142, 110.231 142 C 112.503 142, 114.279 140.864, 117.660 137.250 C 120.103 134.637, 123.040 130.700, 124.186 128.500 C 125.331 126.300, 126.606 124.275, 127.019 124 C 129.409 122.406, 146 88.535, 146 85.250 C 146 84.147, 146.675 82.685, 147.500 82 C 148.325 81.315, 149 80.113, 149 79.329 C 149 78.545, 149.900 76.041, 151 73.764 C 152.100 71.487, 153 68.674, 153 67.512 C 153 66.350, 153.504 64.896, 154.120 64.280 C 154.735 63.665, 155.656 61.212, 156.166 58.830 C 159.207 44.627, 159.182 44.927, 157.537 42.417 C 155.525 39.346, 151.638 39.251, 149.557 42.223 M 77.017 55.479 C 76.100 56.584, 76.061 57.735, 76.860 60.028 C 77.449 61.717, 77.650 64.502, 77.307 66.217 C 76.781 68.844, 76.944 69.235, 78.341 68.699 C 79.617 68.210, 80 68.648, 80 70.599 C 80 72.679, 79.641 73.021, 78.001 72.500 C 75.688 71.766, 74.024 74.988, 73.965 80.315 C 73.945 82.067, 73.286 84.625, 72.500 86 C 71.714 87.375, 71.055 89.936, 71.035 91.691 C 71.016 93.446, 70.550 95.160, 70 95.500 C 69.450 95.840, 69 97.161, 69 98.437 C 69 99.712, 68.325 101.315, 67.500 102 C 66.675 102.685, 66 104.096, 66 105.136 C 66 106.176, 65.588 107.809, 65.084 108.764 C 62.130 114.364, 57.001 127.996, 57.001 130.250 C 57 131.213, 56.580 132, 56.067 132 C 55.554 132, 54.851 133.012, 54.505 134.250 C 53.828 136.666, 52.311 140.430, 50.883 143.236 C 49.498 145.960, 49.849 151.629, 51.487 152.989 C 53.569 154.718, 57.063 153.598, 62.471 149.471 C 65.014 147.529, 67.524 146.206, 68.048 146.529 C 69.566 147.468, 69.150 155.341, 67.454 157.762 C 66.341 159.352, 65.991 161.863, 66.204 166.735 L 66.500 173.500 72 173.500 C 75.025 173.500, 78.545 173.878, 79.822 174.340 C 82.752 175.400, 86 172.740, 86 169.279 C 86 167.953, 86.454 166.021, 87.008 164.985 C 88.379 162.424, 85.183 156.754, 81.930 155.975 C 79.295 155.344, 79.118 153.601, 80.572 142.667 C 81.153 138.297, 80.947 137.554, 78.420 134.917 C 75.339 131.701, 72.404 131.227, 69.441 133.468 C 67.177 135.181, 65 135.436, 65 133.989 C 65 133.433, 65.864 131.071, 66.919 128.739 C 67.975 126.408, 69.130 123.487, 69.487 122.250 C 69.843 121.013, 70.554 120, 71.067 120 C 71.580 120, 72 119.094, 72 117.986 C 72 116.879, 72.422 115.191, 72.938 114.236 C 74.835 110.724, 79 98.392, 79 96.288 C 79 95.094, 79.450 93.840, 80 93.500 C 80.550 93.160, 81 91.424, 81 89.641 C 81 87.858, 81.539 85.861, 82.197 85.203 C 83.490 83.910, 84.648 77.019, 85.634 64.753 L 86.257 57.005 82.660 55.503 C 78.276 53.670, 78.518 53.671, 77.017 55.479 M 151 80.514 C 151 81.346, 151.417 82.809, 151.927 83.764 C 152.437 84.719, 153.072 86.221, 153.339 87.102 C 153.646 88.118, 155.436 88.925, 158.230 89.308 C 160.653 89.640, 166.205 91.469, 170.568 93.372 C 174.931 95.276, 183 98.706, 188.500 100.994 C 194 103.282, 198.879 105.522, 199.343 105.970 C 199.806 106.418, 199.647 107.791, 198.989 109.020 C 197.532 111.744, 198.932 112.962, 203.550 112.985 C 207.745 113.006, 209 111.386, 209 105.955 C 209 101.579, 206.987 98, 204.526 98 C 204.077 98, 200.288 96.388, 196.105 94.418 C 191.922 92.448, 186.250 89.811, 183.500 88.558 C 180.750 87.305, 174.966 84.642, 170.646 82.640 C 164.417 79.753, 161.573 79, 156.896 79 C 152.298 79, 151 79.333, 151 80.514 M 160.300 110.763 C 156.234 114.241, 146.179 119.204, 138.737 121.406 C 131.873 123.436, 129.399 126.289, 130.954 130.380 C 131.883 132.823, 132.295 132.984, 136.231 132.447 C 147.002 130.977, 162.867 122.729, 167.827 116.020 C 172.857 109.216, 166.939 105.083, 160.300 110.763 M 179.500 145.447 C 167.358 148.547, 135.684 164.446, 129.088 170.750 C 126.643 173.088, 124.342 175, 123.976 175 C 123.610 175, 122.495 174.100, 121.500 173 C 118.481 169.664, 112.980 170.927, 113.013 174.950 C 113.020 175.803, 114.399 179.200, 116.079 182.500 C 119.020 188.280, 119.133 188.983, 119.158 201.697 C 119.172 208.955, 118.863 215.413, 118.471 216.047 C 118.079 216.681, 117.402 219.742, 116.966 222.850 C 116.530 225.957, 115.267 231.058, 114.159 234.185 C 111.297 242.264, 111.027 246.345, 113.324 246.808 C 116.752 247.498, 120.563 242.031, 122.949 233 C 123.603 230.525, 124.784 226.475, 125.574 224 C 126.364 221.525, 127.008 218.534, 127.005 217.354 C 127.002 216.117, 128.468 213.998, 130.463 212.354 C 142.873 202.129, 142.867 202.125, 143.223 220.347 L 143.500 234.500 145.970 234.500 C 150.050 234.500, 150.969 231.067, 150.985 215.773 C 151 202.404, 151.062 202.005, 153.394 200.477 C 157.197 197.986, 162.573 197.445, 163.352 199.475 C 163.709 200.404, 164.294 207.636, 164.654 215.545 C 165.151 226.490, 165.004 230.290, 164.038 231.454 C 163.217 232.443, 162.614 237.492, 162.332 245.742 C 162.092 252.759, 161.472 260.075, 160.953 262 C 160.435 263.925, 160.009 267.268, 160.006 269.429 C 160 273.289, 159.743 274.461, 156.697 284.500 C 155.863 287.250, 154.872 291.863, 154.496 294.750 L 153.812 300 159.266 300 L 164.720 300 165.303 294.358 C 165.623 291.254, 166.361 288.239, 166.942 287.658 C 167.524 287.076, 168 283.180, 168 279 C 168 274.820, 168.427 270.973, 168.949 270.450 C 169.471 269.928, 170.034 266.355, 170.199 262.510 C 170.563 254.066, 172.179 253.123, 176.223 258.996 C 179.678 264.014, 184.570 266.158, 190.664 265.323 C 194.344 264.818, 195.573 264.107, 197.102 261.600 C 198.142 259.895, 198.994 257.064, 198.996 255.309 C 198.998 253.554, 199.450 251.840, 200 251.500 C 200.550 251.160, 201.003 248.996, 201.006 246.691 C 201.010 244.386, 201.706 241.169, 202.555 239.542 C 204.882 235.080, 204.915 185.671, 202.594 181.183 C 201.717 179.487, 201 176.079, 201 173.609 C 201 171.139, 200.550 168.840, 200 168.500 C 199.450 168.160, 199 167.055, 199 166.044 C 199 163.423, 192.059 150.275, 188.878 146.869 C 185.869 143.649, 186.291 143.713, 179.500 145.447 M 175.841 158.375 C 174.379 159.151, 170.779 160.695, 167.841 161.804 C 161.050 164.369, 151.873 168.291, 150.250 169.323 C 147.850 170.849, 149.349 186.683, 152.160 189.493 C 152.452 189.785, 154.785 189.098, 157.345 187.965 C 161.671 186.052, 162.544 185.039, 162.040 182.516 C 161.932 181.975, 162.141 178.572, 162.505 174.955 C 163.296 167.073, 165.472 164.769, 169.583 167.463 C 171.433 168.674, 172 169.932, 172 172.823 C 172 174.900, 172.540 177.140, 173.200 177.800 C 175.031 179.631, 178.479 179.233, 180.543 176.953 C 181.561 175.827, 184.106 173.944, 186.198 172.769 C 191.021 170.058, 191.016 168.551, 186.161 160.500 C 184.057 157.011, 179.986 156.173, 175.841 158.375 M 133.493 179.255 C 131.839 181.040, 129.589 182.999, 128.493 183.610 C 126.688 184.615, 126.618 185.046, 127.750 188.181 C 128.438 190.084, 129 193.073, 129 194.821 C 129 198.875, 131.374 199.037, 137.570 195.406 L 141.996 192.812 141.415 185.656 C 141.095 181.720, 140.660 177.938, 140.448 177.250 C 139.760 175.016, 136.569 175.937, 133.493 179.255 M 183.129 185.344 C 182.472 186.137, 180.577 187.347, 178.920 188.033 C 173.202 190.402, 172.647 193.071, 172.912 216.938 C 173.128 236.371, 173.330 238.604, 175.075 240.823 C 176.134 242.168, 177 243.884, 177 244.635 C 177 245.386, 177.360 246, 177.799 246 C 178.239 246, 179.140 247.498, 179.802 249.328 C 181.197 253.187, 185.389 257.495, 186.863 256.585 C 188.404 255.632, 191 249.961, 191 247.546 C 191 246.366, 191.539 244.861, 192.197 244.203 C 195.174 241.226, 196.991 204.717, 194.795 192 L 193.500 184.500 188.912 184.202 C 185.837 184.002, 183.931 184.378, 183.129 185.344 M 65.297 203.985 C 62.985 204.477, 60.060 205.455, 58.797 206.159 C 57.533 206.863, 54.029 207.677, 51.010 207.969 C 46.810 208.375, 45.441 208.916, 45.183 210.269 C 44.945 211.516, 45.951 212.500, 48.591 213.603 C 52.885 215.397, 54.235 214.996, 62.669 209.418 C 67.992 205.899, 72.458 205.104, 76.066 207.035 C 77.130 207.605, 78 208.719, 78 209.512 C 78 210.305, 79.142 211.702, 80.537 212.616 C 82.961 214.204, 83.185 214.175, 85.537 211.965 C 88.289 209.380, 88.693 206.820, 86.621 205.100 C 84.802 203.591, 70.628 202.849, 65.297 203.985 M 3.750 214.080 C 1.685 215.283, 1.528 217.564, 3.250 221.349 C 4.183 223.399, 7.074 225.353, 14.645 229.048 C 20.224 231.772, 25.737 234, 26.895 234 C 30.147 234, 33 230.495, 33 226.500 C 33 222.792, 31.602 222.072, 28.071 223.962 C 26.694 224.699, 25.147 224.172, 21.466 221.712 C 18.822 219.946, 14.823 217.271, 12.579 215.769 C 8.177 212.821, 6.471 212.495, 3.750 214.080" stroke="none" fill="black" fill-rule="evenodd"/>
</svg>