<svg xmlns="http://www.w3.org/2000/svg" width="300" height="300" viewBox="0 0 300 300" version="1.1">
	<path d="M 99.300 51.100 C 98.574 51.826, 98.381 55.493, 98.734 61.891 C 99.162 69.668, 98.945 72.205, 97.634 74.741 C 96.735 76.479, 96 79.246, 96 80.891 C 96 82.536, 95.550 84.160, 95 84.500 C 94.450 84.840, 94 86.640, 94 88.500 C 94 90.360, 93.550 92.160, 93 92.500 C 92.450 92.840, 92 94.355, 92 95.868 C 92 97.380, 91.339 99.491, 90.532 100.559 C 89.724 101.626, 89.049 103.711, 89.032 105.191 C 89.014 106.671, 88.550 108.160, 88 108.500 C 87.450 108.840, 86.986 110.329, 86.968 111.809 C 86.951 113.289, 86.276 115.374, 85.468 116.441 C 84.661 117.509, 84 118.976, 84 119.702 C 84 120.428, 83.162 122.929, 82.137 125.261 C 81.112 127.592, 79.491 131.525, 78.534 134 C 77.578 136.475, 76.391 139.281, 75.897 140.236 C 75.404 141.191, 75 144.159, 75 146.831 C 75 153.996, 79.043 156.701, 86.976 154.845 C 88.782 154.423, 89.657 158.743, 88.085 160.315 C 87.488 160.912, 87 162.457, 87 163.750 C 87 165.042, 86.276 167.500, 85.390 169.212 C 83.337 173.183, 84.884 179.223, 88.575 181.641 C 90.890 183.158, 91.343 183.149, 94.960 181.518 C 97.102 180.552, 100.096 178.466, 101.614 176.881 C 104.809 173.546, 106.231 173.321, 108.711 175.757 C 113.204 180.169, 114.915 181.162, 116.928 180.523 C 119.505 179.705, 119.568 176.848, 117.129 171.478 C 114.712 166.157, 109.459 161, 106.456 161 C 105.059 161, 102.614 162.453, 100.567 164.500 C 96.836 168.231, 95 168.906, 95 166.547 C 95 164.611, 98.103 156.959, 103.123 146.515 C 106.641 139.197, 106.663 138.481, 103.443 136.371 C 101.006 134.774, 100.758 134.798, 98.193 136.866 C 91.747 142.061, 87.638 145, 86.819 145 C 85.260 145, 84.648 141.793, 85.842 139.881 C 86.479 138.861, 87 137.053, 87 135.863 C 87 134.673, 88.172 131.179, 89.605 128.100 C 91.037 125.020, 92.654 121.375, 93.197 120 C 93.741 118.625, 94.818 116.226, 95.593 114.669 C 96.367 113.112, 97 110.776, 97 109.478 C 97 108.180, 97.450 106.840, 98 106.500 C 98.550 106.160, 99 104.839, 99 103.563 C 99 102.288, 99.675 100.685, 100.500 100 C 101.325 99.315, 102 97.830, 102 96.699 C 102 95.567, 102.420 93.260, 102.932 91.571 C 103.445 89.882, 104.372 86.475, 104.993 84 C 105.614 81.525, 106.752 77.250, 107.524 74.500 C 108.295 71.750, 109.209 65.981, 109.555 61.680 C 110.087 55.063, 109.915 53.564, 108.437 51.930 C 106.518 49.809, 101.084 49.316, 99.300 51.100 M 177.550 61.250 C 176.044 66.108, 176.919 73.253, 179.315 75.648 C 179.692 76.025, 180 77.807, 180 79.608 C 180 81.409, 180.411 83.136, 180.913 83.446 C 182.445 84.393, 183.307 91.926, 182.056 93.433 C 179.482 96.534, 148.569 110.834, 141.607 112.144 C 138.507 112.727, 137.536 115.264, 139.143 118.579 C 140.694 121.777, 141.506 121.886, 150.708 120.129 C 153.572 119.582, 157.847 118.032, 160.208 116.685 C 162.568 115.338, 165.836 113.925, 167.469 113.544 C 169.102 113.163, 173.024 111.256, 176.184 109.305 C 183.004 105.096, 184.990 105.414, 185.024 110.719 C 185.037 112.798, 185.490 116.300, 186.031 118.500 C 190.033 134.788, 190.691 240.804, 186.836 248.250 C 184.523 252.717, 179.367 249.361, 166.641 235.108 C 163.249 231.309, 161.613 231.511, 161.190 235.781 C 160.848 239.230, 165.731 247.891, 171.355 253.811 C 176.734 259.473, 185.524 262.395, 189.990 260.005 C 192.489 258.668, 195 253.415, 195 249.525 C 195 247.782, 195.644 244.364, 196.432 241.928 C 197.638 238.198, 198.616 219.695, 199.070 192 C 199.309 177.458, 197.557 139.565, 196.481 136 C 195.679 133.341, 194.996 125.324, 194.812 116.405 C 194.457 99.233, 194.418 99.342, 202.388 95.303 C 211.035 90.922, 218 85.558, 218 83.280 C 218 81.435, 213.467 77, 211.580 77 C 210.749 77, 208.591 78.289, 206.785 79.865 C 204.978 81.441, 202.384 83.079, 201.019 83.506 C 199.655 83.932, 197.256 85.230, 195.688 86.389 C 192.876 88.468, 192.817 88.470, 191.418 86.557 C 190.638 85.491, 190 83.273, 190 81.630 C 190 79.987, 189.580 77.260, 189.068 75.571 C 188.555 73.882, 187.575 70.475, 186.890 68 C 186.205 65.525, 184.980 62.712, 184.167 61.750 C 182.464 59.732, 178.122 59.404, 177.550 61.250 M 145.200 158.200 C 143.624 159.776, 143.657 165.486, 145.250 166.739 C 145.938 167.280, 148.243 167.991, 150.374 168.318 C 152.505 168.646, 154.980 169.531, 155.874 170.284 C 158.012 172.086, 169.126 175.314, 171.578 174.846 C 174.620 174.266, 174.481 170.530, 171.307 167.561 C 169.763 166.117, 165.203 163.150, 161.173 160.968 C 153.616 156.875, 147.572 155.828, 145.200 158.200 M 93.400 207.854 C 91.255 209.423, 88.643 211.673, 87.595 212.854 C 85.172 215.584, 81.037 215.603, 77.600 212.900 C 75.744 211.440, 74.167 210.992, 72.423 211.430 C 69.116 212.260, 68.062 215.044, 70.528 216.436 C 71.564 217.021, 73.752 218.963, 75.390 220.750 C 77.083 222.598, 79.353 224, 80.651 224 C 82.874 224, 90 217.897, 90 215.992 C 90 213.407, 99.460 210.893, 101.550 212.923 C 102.073 213.431, 105.268 214.412, 108.651 215.103 C 114.138 216.224, 115.089 216.172, 117.455 214.621 C 118.914 213.666, 120.359 212.229, 120.666 211.429 C 121.521 209.199, 118.950 206.776, 116.272 207.288 C 114.980 207.535, 112.252 207.141, 110.211 206.413 C 103.769 204.113, 97.815 204.623, 93.400 207.854 M 23.207 215.668 C 18.299 218.088, 17.441 220.407, 20.084 224.118 C 22.395 227.363, 23.435 227.452, 29.618 224.932 C 32.348 223.819, 33.421 223.939, 38.231 225.891 C 45.614 228.887, 53.348 228.569, 53.820 225.250 C 54.098 223.289, 52.889 222.419, 44.445 218.500 C 33.812 213.565, 28.825 212.900, 23.207 215.668" stroke="none" fill="black" fill-rule="evenodd"/>
</svg>