<svg xmlns="http://www.w3.org/2000/svg" width="300" height="300" viewBox="0 0 300 300" version="1.1">
	<path d="M 72.789 40.750 C 71.952 41.712, 70.967 44.750, 70.599 47.500 C 67.939 67.380, 62.699 85.262, 54.853 101.236 C 54.384 102.191, 54 103.852, 54 104.927 C 54 106.002, 53.583 107.140, 53.073 107.455 C 52.563 107.770, 51.595 109.709, 50.921 111.764 C 50.248 113.819, 47.740 119.613, 45.348 124.639 C 40.410 135.018, 40.064 137.801, 43.252 141.506 C 45.450 144.062, 45.654 144.099, 51.943 143.087 C 55.485 142.516, 58.626 142.292, 58.923 142.589 C 59.220 142.886, 58.621 144.563, 57.592 146.315 C 53.802 152.771, 48 164.481, 48 165.675 C 48 168.158, 50.357 171.979, 52.262 172.583 C 55.128 173.493, 61.708 170.265, 68.136 164.795 C 71.235 162.158, 74.385 160.014, 75.136 160.032 C 77.091 160.077, 81.652 164.329, 82.454 166.854 C 83.665 170.671, 88.914 169.036, 90.908 164.222 C 92.550 160.257, 91.324 157.678, 84.265 150.250 C 77.126 142.737, 75.053 142.371, 71.500 148 C 68.710 152.419, 65.358 153.610, 66.574 149.750 C 66.963 148.512, 69.019 144.881, 71.141 141.679 C 74.138 137.158, 75 134.886, 75 131.503 C 75 127.615, 74.661 126.977, 71.846 125.573 C 67.403 123.356, 65.537 123.594, 61.785 126.853 C 57.966 130.170, 54.052 132.385, 53.313 131.647 C 53.030 131.363, 53.719 129.414, 54.844 127.316 C 58.238 120.984, 61.656 112.935, 64.448 104.698 C 65.902 100.407, 67.972 95.331, 69.046 93.418 C 70.121 91.505, 71 89.335, 71 88.597 C 71 87.858, 71.864 85.285, 72.921 82.877 C 75.912 76.061, 80.199 59.323, 81.210 50.511 C 82.078 42.946, 82.011 42.428, 79.953 40.761 C 77.192 38.525, 74.726 38.522, 72.789 40.750 M 133.223 58.557 C 130.416 60.522, 130.383 63.714, 133.138 66.646 C 135.040 68.672, 135.138 69.253, 134.024 71.941 C 133.336 73.602, 133.045 76.043, 133.377 77.366 C 134.096 80.230, 133.144 81.104, 126.676 83.523 C 119.784 86.102, 117 88.567, 117 92.094 C 117 94.302, 117.656 95.342, 119.608 96.231 C 121.838 97.247, 122.797 97.086, 126.216 95.118 C 131.269 92.210, 132.641 93.298, 130.610 98.601 C 129.016 102.766, 126.937 110.762, 124.915 120.500 C 124.230 123.800, 123.279 127.286, 122.802 128.246 C 122.324 129.207, 121.470 132.499, 120.904 135.561 C 120.338 138.624, 118.778 143.193, 117.437 145.714 C 114.405 151.417, 114.348 155.672, 117.255 159.305 L 119.500 162.111 125.500 159.522 C 128.800 158.098, 132.512 156.422, 133.748 155.798 C 136.323 154.499, 137.788 155.338, 136.242 157.226 C 135.668 157.927, 133.095 162.775, 130.525 168 C 127.955 173.225, 125.350 178.400, 124.737 179.500 C 119.649 188.621, 118.972 192.087, 121.557 195.777 C 123.398 198.406, 129.059 198.839, 131 196.500 C 131.685 195.675, 133.260 195, 134.500 195 C 135.740 195, 137.312 194.329, 137.992 193.510 C 138.672 192.690, 141.990 190.162, 145.364 187.892 C 151.660 183.656, 160 176.196, 160 174.800 C 160 174.020, 165.319 166.576, 169.003 162.199 C 170.598 160.304, 171.298 160.089, 172.970 160.984 C 174.086 161.581, 175 162.771, 175 163.626 C 175 164.482, 176.469 166.898, 178.265 168.996 C 181.644 172.944, 193.047 194.471, 193.017 196.846 C 193.008 197.586, 193.647 199.386, 194.438 200.846 C 196.406 204.477, 200.178 216.725, 200.644 221 C 200.854 222.925, 201.424 225.400, 201.911 226.500 C 202.397 227.600, 203.317 231.060, 203.955 234.188 C 204.933 238.980, 204.870 240.350, 203.558 242.888 C 201.473 246.919, 201.590 248.607, 204.213 252.346 C 207.225 256.639, 209.037 257.931, 212.095 257.968 C 215.922 258.015, 218.378 254.826, 217.623 250.789 C 217.285 248.980, 216.607 244.749, 216.118 241.386 C 215.628 238.023, 214.757 233.748, 214.182 231.886 C 213.606 230.024, 212.673 226.700, 212.108 224.500 C 208.230 209.399, 205.608 200.367, 204.865 199.550 C 204.389 199.027, 204 197.170, 204 195.422 C 204 193.675, 203.325 191.685, 202.500 191 C 201.675 190.315, 201 189.228, 201 188.583 C 201 187.308, 192.921 170.850, 191.276 168.776 C 190.720 168.074, 188.784 164.800, 186.975 161.500 C 181.584 151.668, 179.142 148.139, 176.561 146.448 C 172.021 143.473, 169.943 144.793, 164.907 153.848 C 160.071 162.544, 154.312 168.930, 145.027 175.895 C 134.069 184.114, 134.198 181.044, 145.632 161.500 C 147.241 158.750, 149.377 154.475, 150.380 152 C 151.383 149.525, 152.611 146.825, 153.108 146 C 154.258 144.093, 154.522 143.376, 155.870 138.500 C 156.478 136.300, 157.691 132.189, 158.565 129.365 C 160.669 122.571, 160.172 119.262, 156.739 117.190 C 153.228 115.071, 150.808 116.393, 149.879 120.938 C 149.514 122.724, 148.716 124.684, 148.107 125.293 C 147.498 125.902, 147 127.190, 147 128.156 C 147 130.429, 130.893 147, 128.684 147 C 126.620 147, 126.490 144.174, 128.425 141.410 C 130.717 138.138, 134 127.876, 134 123.985 C 134 122.013, 134.434 119.966, 134.963 119.437 C 135.493 118.907, 136.213 115.779, 136.563 112.487 C 136.912 109.194, 138.097 103.874, 139.194 100.665 C 140.477 96.915, 140.971 93.659, 140.576 91.553 C 139.885 87.870, 140.916 86.561, 145.396 85.437 C 148.442 84.672, 156 77.614, 156 75.534 C 156 73.647, 152.592 71, 150.162 71 C 148.963 71, 146.523 72.399, 144.741 74.109 L 141.500 77.218 141.168 74.447 C 140.985 72.922, 141.287 70.736, 141.838 69.588 C 143.836 65.426, 143.956 60.271, 142.095 58.586 C 139.866 56.569, 136.078 56.557, 133.223 58.557 M 70 191.846 C 68.440 192.310, 67.500 193.325, 67.500 194.545 C 67.500 196.134, 68.195 196.500, 71.218 196.500 C 74.776 196.500, 75.083 196.780, 78.362 203 C 81.519 208.988, 82.036 209.488, 84.922 209.350 C 90.999 209.058, 92.627 205.180, 89.099 199.395 C 85.479 193.457, 76.502 189.909, 70 191.846 M 59.519 200.411 C 55.631 204.534, 53.825 204.800, 49.138 201.943 C 46.967 200.619, 44.486 200, 42.138 200.196 C 38.879 200.468, 38.468 200.823, 38.198 203.601 C 37.969 205.946, 38.456 207.057, 40.198 208.160 C 44.545 210.913, 51.903 213.126, 55.668 212.813 C 58.719 212.560, 59.713 211.928, 60.885 209.500 C 61.682 207.850, 62.933 205.306, 63.667 203.846 C 66.829 197.550, 64.240 195.406, 59.519 200.411 M 0 207 C 0 211.283, 0.278 212, 1.941 212 C 3.009 212, 4.147 212.429, 4.471 212.952 C 4.794 213.476, 8.460 215.563, 12.616 217.589 L 20.172 221.272 22.322 219.122 C 25.033 216.411, 23.972 214.323, 18.437 211.474 C 16.271 210.359, 11.978 207.772, 8.896 205.724 C 1.173 200.591, 0 200.759, 0 207" stroke="none" fill="black" fill-rule="evenodd"/>
</svg>