<svg xmlns="http://www.w3.org/2000/svg" width="300" height="300" viewBox="0 0 300 300" version="1.1">
	<path d="M 73.573 47.570 C 71.183 49.960, 70.604 53.770, 71.992 57.976 C 73.504 62.556, 72.440 70.842, 69.487 77.500 C 66.325 84.629, 64 91.217, 64 93.051 C 64 95.122, 63.641 95.986, 60.075 102.500 C 58.871 104.700, 57.219 108.075, 56.405 110 C 55.591 111.925, 54.017 115.075, 52.907 117 C 51.797 118.925, 48.878 124.550, 46.421 129.500 C 41.931 138.547, 41.022 140.185, 37.689 145.236 C 36.536 146.984, 35.991 149.345, 36.189 151.740 C 36.456 154.967, 36.875 155.543, 39.147 155.806 C 42.134 156.152, 46.873 154.177, 51.898 150.492 C 57.627 146.290, 60.148 147.999, 56 153.273 C 54.900 154.671, 54 156.471, 54 157.273 C 54 158.074, 53.028 159.966, 51.840 161.476 C 50.198 163.563, 49.659 165.679, 49.590 170.302 C 49.508 175.875, 49.721 176.509, 52.143 177.887 C 54.461 179.205, 55.323 179.214, 59.143 177.961 C 61.539 177.175, 64.452 175.512, 65.615 174.266 C 68.661 171.002, 72.028 171.402, 76 175.500 C 77.866 177.425, 80.193 179, 81.170 179 C 83.369 179, 86 174.134, 86 170.069 C 86 167.659, 85.481 166.908, 83.465 166.402 C 82.071 166.052, 80.247 164.444, 79.412 162.830 C 76.917 158.005, 74.301 156, 70.500 156 C 67.331 156, 67.007 155.740, 67.073 153.250 C 67.113 151.738, 67.999 149.150, 69.041 147.500 C 73.853 139.883, 75.393 132.793, 72.800 130.200 C 70.568 127.968, 65.023 128.813, 61 132 C 57.408 134.845, 54 135.924, 54 134.216 C 54 133.785, 55.597 130.973, 57.549 127.966 C 59.500 124.960, 61.782 120.925, 62.619 119 C 63.456 117.075, 66.369 111, 69.092 105.500 C 71.898 99.834, 74.034 94.145, 74.022 92.372 C 74.010 90.652, 74.675 88.685, 75.500 88 C 76.325 87.315, 77 86.117, 77 85.338 C 77 84.558, 77.900 82.156, 79 80 C 80.100 77.844, 81 75.146, 81 74.005 C 81 72.863, 81.640 70.933, 82.422 69.715 C 84.613 66.300, 85.949 50.372, 84.247 47.942 C 82.546 45.513, 75.863 45.280, 73.573 47.570 M 124.323 52.250 C 121.106 55.824, 120.920 57.576, 123.500 60 C 126.986 63.275, 128.627 74.133, 127.127 84 C 126.500 88.125, 125.974 93.525, 125.958 96 C 125.927 100.804, 123.930 110.312, 122.273 113.542 C 121.175 115.681, 119.394 120.628, 117.853 125.818 C 116.665 129.822, 118.039 132, 121.754 132 C 124.939 132, 130.586 126.158, 131.859 121.547 C 132.878 117.857, 136.587 114.058, 144.750 108.343 C 147.637 106.322, 150 104.067, 150 103.334 C 150 102.600, 150.435 102, 150.967 102 C 151.499 102, 154.732 99.075, 158.150 95.500 C 163.336 90.077, 164.911 89, 167.655 89 C 170.684 89, 171.184 89.483, 173.972 95.103 C 175.637 98.459, 177 102.089, 177 103.168 C 177 104.248, 177.463 105.997, 178.029 107.054 C 179.555 109.905, 182.101 136.215, 181.591 143.867 C 180.429 161.330, 178.950 173.400, 177.033 181.085 C 175.878 185.713, 174.280 192.619, 173.483 196.431 C 172.685 200.243, 171.659 203.618, 171.203 203.931 C 170.747 204.244, 169.144 208.260, 167.640 212.857 C 164.632 222.052, 162.469 226, 160.440 226 C 158.981 226, 151.219 218.113, 149.285 214.666 C 148.617 213.475, 148.055 211.495, 148.035 210.266 C 147.986 207.126, 142.766 201.492, 140.656 202.302 C 138.849 202.995, 138.448 206.965, 139.903 209.764 C 140.399 210.719, 141.263 213.300, 141.823 215.500 C 144.752 227.003, 145.110 227.900, 147.023 228.507 C 148.112 228.853, 149.467 230.005, 150.036 231.068 C 150.605 232.130, 151.645 233, 152.348 233 C 153.051 233, 154.919 234.350, 156.500 236 C 160.275 239.940, 163.125 239.785, 168.005 235.377 C 173.018 230.847, 175.435 225.548, 179.040 211.174 C 180.603 204.944, 182.316 199.319, 182.846 198.674 C 183.376 198.028, 184.569 193.450, 185.496 188.500 C 186.423 183.550, 187.577 178.375, 188.060 177 C 190.492 170.083, 192.206 119.123, 190.137 115.256 C 189.512 114.087, 189 111.617, 189 109.766 C 189 107.915, 188.621 105.973, 188.158 105.450 C 187.695 104.927, 186.768 102.025, 186.097 99 C 184.256 90.701, 179.076 80.937, 175.102 78.275 C 168.394 73.783, 164.870 75.383, 149.500 89.895 C 142.482 96.522, 136.617 101, 134.957 101 C 134.159 101, 133.972 99.794, 134.374 97.250 C 137.293 78.799, 137.680 72.851, 136.563 63.579 C 135.103 51.445, 129.618 46.368, 124.323 52.250 M 116.200 142.200 C 115.540 142.860, 115 144.001, 115 144.735 C 115 147.142, 118.189 151, 120.178 151 C 121.250 151, 127.369 154.447, 133.776 158.660 C 146.995 167.352, 152.496 169.410, 154.647 166.468 C 155.391 165.450, 156 163.844, 156 162.898 C 156 161.128, 150.656 156, 148.813 156 C 148.244 156, 144.859 153.959, 141.291 151.465 C 128.495 142.519, 119.282 139.118, 116.200 142.200 M 71.500 196.731 C 69.850 197.566, 67.083 199.588, 65.350 201.224 C 61.774 204.601, 59.637 204.421, 55.271 200.375 C 52.012 197.355, 47.500 197.428, 47.500 200.500 C 47.500 202.179, 48.269 202.549, 52.293 202.807 C 56.650 203.085, 57.236 203.426, 58.728 206.557 C 60.241 209.729, 60.725 210, 64.880 210 C 68.388 210, 70.001 209.415, 72.136 207.370 C 75.322 204.318, 78 204.770, 78 208.362 C 78 211.126, 79.751 212.121, 83.154 211.291 C 89.975 209.626, 91.124 203.072, 85.465 198.104 C 81.462 194.588, 76.664 194.117, 71.500 196.731 M 8.250 202.491 C 6.462 203.268, 5 204.635, 5 205.529 C 5 208.147, 10.532 213, 13.515 213 C 14.983 213, 17.329 213.900, 18.727 215 C 20.126 216.100, 22.082 217, 23.076 217 C 24.069 217, 25.160 217.450, 25.500 218 C 26.403 219.462, 29.669 219.223, 33.112 217.442 C 37.960 214.935, 36.750 211.914, 30 209.677 C 26.975 208.675, 23.825 207.265, 23 206.544 C 21.225 204.993, 13.424 200.983, 12.290 201.039 C 11.855 201.061, 10.038 201.714, 8.250 202.491" stroke="none" fill="black" fill-rule="evenodd"/>
</svg>