<svg xmlns="http://www.w3.org/2000/svg" width="300" height="300" viewBox="0 0 300 300" version="1.1">
	<path d="M 86.465 2.932 C 84.796 3.332, 80.831 5.086, 77.654 6.830 C 74.476 8.573, 71.342 10.006, 70.688 10.014 C 68.657 10.039, 49.573 19.574, 48.190 21.256 C 46.063 23.843, 47.669 29.879, 50.686 30.636 C 52.039 30.976, 53.653 30.747, 54.273 30.127 C 54.893 29.507, 56.262 29, 57.315 29 C 59.063 29, 59.168 29.504, 58.519 34.750 C 58.127 37.913, 57.309 41.106, 56.700 41.848 C 55.540 43.259, 55.461 46.860, 55.824 81.500 C 55.945 93.050, 55.859 107.279, 55.632 113.120 C 55.406 118.961, 55.509 124.185, 55.860 124.730 C 56.212 125.275, 57.984 126.481, 59.797 127.411 C 62.996 129.050, 63.257 129.024, 68.485 126.550 C 71.450 125.148, 74.489 124, 75.238 124 C 75.987 124, 77.028 123.576, 77.550 123.058 C 78.073 122.540, 81.288 121.669, 84.696 121.122 C 88.103 120.576, 91.786 119.650, 92.880 119.064 C 93.974 118.479, 96.698 118, 98.934 118 C 103.589 118, 104.107 119.323, 101 123.273 C 99.900 124.671, 99 126.329, 99 126.956 C 99 127.583, 97.313 130.623, 95.250 133.711 C 93.188 136.800, 90.825 140.528, 90 141.997 C 89.175 143.466, 86.867 146.880, 84.870 149.584 C 82.874 152.288, 79.989 156.833, 78.460 159.684 C 75.809 164.624, 75.746 165.047, 77.125 168.684 C 78.453 172.186, 78.921 172.525, 82.815 172.809 C 85.256 172.987, 88.384 172.456, 90.182 171.559 C 96.400 168.457, 96.440 169.531, 90.500 180 C 85.824 188.241, 85.134 191.479, 87.250 195.264 C 90.062 200.294, 94.055 200.328, 99.137 195.366 C 104.193 190.429, 106 191.231, 106 198.410 C 106 201.419, 106.386 204.120, 106.857 204.412 C 108.970 205.717, 110.289 217.397, 109.680 229.411 C 108.973 243.348, 108.565 245, 105.827 245 C 103.612 245, 93.474 235.042, 87.636 227.132 C 82.327 219.938, 79.841 218.409, 76.026 219.989 C 74.397 220.664, 69.147 225.555, 64.360 230.858 C 52.924 243.526, 40.393 255.746, 37.082 257.458 C 35.624 258.212, 32.747 259.144, 30.688 259.531 C 25.958 260.418, 24.233 263.181, 26.372 266.445 C 28.069 269.035, 32.934 270.175, 35.698 268.631 C 36.689 268.077, 40.425 265.241, 44 262.329 C 55.739 252.767, 56.764 252, 57.806 252 C 58.373 252, 59.745 250.531, 60.855 248.735 C 61.964 246.940, 64.199 244.490, 65.820 243.291 C 67.441 242.093, 69.766 239.048, 70.987 236.526 C 72.591 233.213, 74.184 231.532, 76.726 230.470 C 78.661 229.662, 80.605 229, 81.045 229 C 82.920 229, 88.005 234.379, 89.973 238.445 C 92.312 243.276, 98.607 248.973, 104.178 251.301 C 106.146 252.123, 108.062 253.292, 108.437 253.898 C 110.729 257.607, 118.022 252.433, 119.803 245.835 C 120.599 242.886, 120.675 229.446, 119.969 216.500 C 119.674 211.087, 117.575 198.388, 116.837 197.550 C 116.377 197.028, 116 195.034, 116 193.121 C 116 191.208, 115.452 188.128, 114.783 186.277 C 113.986 184.071, 113.899 182.468, 114.533 181.625 C 115.065 180.917, 117.201 177.787, 119.281 174.669 C 123.703 168.038, 125.053 167.754, 131.496 172.102 C 135.631 174.893, 136.382 175.084, 138.974 174.011 C 143.979 171.938, 145.372 169.657, 144.061 165.684 C 142.063 159.632, 139.568 158.526, 125.250 157.345 C 121.813 157.061, 119 156.505, 119 156.109 C 119 155.713, 120.115 153.877, 121.478 152.030 C 124.300 148.205, 124.057 144.607, 120.784 141.750 C 117.898 139.232, 115.774 139.577, 112.437 143.107 C 106.904 148.961, 94.862 158.262, 93.972 157.372 C 93.466 156.866, 95.942 152.201, 99.796 146.396 C 103.483 140.843, 108.051 133.869, 109.947 130.900 C 111.843 127.930, 115.751 122.169, 118.632 118.099 C 123.675 110.973, 123.849 110.508, 123.304 105.599 C 122.668 99.871, 119.896 96, 116.429 96 C 114.036 96, 108 102.086, 108 104.500 C 108 106.482, 104.798 108, 100.615 108 C 98.681 108, 94.783 108.497, 91.953 109.104 C 85.477 110.492, 84.178 109.490, 86.538 104.927 C 89.101 99.970, 89.233 70.925, 86.714 66.265 C 84.982 63.063, 84.996 62.965, 88.186 56.424 C 91.169 50.306, 91.300 49.625, 89.954 47.230 C 89.154 45.807, 87.150 44.265, 85.500 43.803 C 82.134 42.861, 74.377 44.386, 72 46.457 C 71.175 47.175, 69.536 48.057, 68.358 48.415 C 66.442 48.998, 66.169 48.616, 65.762 44.783 C 65.472 42.047, 65.794 39.930, 66.654 38.921 C 68.457 36.807, 68.414 36.582, 65.288 31.859 L 62.576 27.761 65.344 25.381 C 69.567 21.748, 71.278 22.289, 73.265 27.884 C 74.219 30.571, 75 33.960, 75 35.416 C 75 38.938, 77.615 39.829, 80.242 37.202 C 83.111 34.333, 84.408 24.690, 82.437 20.878 C 81.647 19.350, 81 17.828, 81 17.497 C 81 17.166, 83.882 15.546, 87.404 13.898 C 92.347 11.585, 93.961 10.290, 94.480 8.222 C 94.998 6.160, 94.649 5.134, 92.966 3.771 C 91.763 2.797, 90.491 2.046, 90.139 2.102 C 89.788 2.159, 88.134 2.532, 86.465 2.932 M 126.284 23.399 C 113.440 34.217, 111.387 36.557, 113.015 38.518 C 115.331 41.308, 117.681 42.072, 120.572 40.973 C 123.051 40.030, 124.477 38.947, 130.185 33.667 C 131.275 32.658, 132.443 32.109, 132.780 32.447 C 133.436 33.102, 130.758 41.783, 127.766 48.701 C 125.965 52.867, 125.903 52.904, 120.225 53.201 C 114.542 53.498, 114.502 53.522, 114.715 56.500 C 114.845 58.327, 115.920 60.296, 117.465 61.538 C 118.859 62.658, 120 64.277, 120 65.134 C 120 68.174, 116.790 73.050, 110.933 78.907 C 107.670 82.170, 105 85.542, 105 86.401 C 105 88.861, 109.609 89.486, 112.718 87.449 C 116.475 84.987, 124.830 76.129, 126.298 73.052 C 127.857 69.783, 131.984 69.235, 135.706 71.803 C 141.476 75.783, 153.640 82.852, 157.385 84.403 C 161.227 85.993, 161.264 86.060, 160.672 90.376 C 160.343 92.776, 160.307 94.974, 160.593 95.259 C 160.878 95.545, 162.691 95.294, 164.621 94.702 C 168.187 93.607, 171 89.258, 171 84.837 C 171 81.113, 166.547 76.813, 158.500 72.768 C 145.135 66.048, 136.071 59.811, 136.033 57.309 C 136.015 56.104, 136.450 54.840, 137 54.500 C 137.550 54.160, 138 53.045, 138 52.022 C 138 50.999, 138.647 48.888, 139.439 47.331 C 142.325 41.653, 144.155 36.821, 144.706 33.425 C 145.016 31.514, 145.659 29.711, 146.135 29.417 C 146.611 29.123, 147 26.962, 147 24.615 C 147 19.143, 143.979 16, 138.720 16 C 135.638 16, 133.697 17.155, 126.284 23.399 M 71.500 61 C 71.160 61.550, 69.784 62, 68.441 62 C 66.209 62, 66 62.391, 66 66.573 C 66 70.389, 66.290 71.091, 67.748 70.810 C 69.438 70.484, 73.755 63.797, 73.919 61.250 C 74.016 59.757, 72.373 59.587, 71.500 61 M 72.770 83.715 C 71.328 85.247, 69.248 87.175, 68.149 88 C 66.373 89.333, 66.115 90.888, 65.826 102 L 65.500 114.500 68 114.219 C 69.375 114.065, 72.075 113.515, 74 112.998 L 77.500 112.057 77.681 99.278 C 77.780 92.250, 78.005 85.389, 78.181 84.031 C 78.637 80.501, 75.946 80.343, 72.770 83.715 M 105.207 172.041 C 103.416 174.908, 104.730 176.554, 107.099 174.410 C 108.145 173.464, 109 172.085, 109 171.345 C 109 169.305, 106.645 169.737, 105.207 172.041 M 142.305 226.645 C 140.212 227.374, 137.543 227.977, 136.372 227.985 C 133.836 228.003, 131.278 230.693, 132.592 231.959 C 133.092 232.440, 140.700 234.019, 149.500 235.469 C 158.300 236.919, 165.928 238.531, 166.450 239.052 C 166.972 239.574, 169.222 240.003, 171.450 240.006 C 173.678 240.010, 176.844 240.713, 178.487 241.570 C 180.130 242.426, 184.448 243.753, 188.083 244.517 C 194.684 245.906, 201.951 248.416, 209.500 251.914 C 211.700 252.934, 218 255.673, 223.500 258.003 C 229 260.332, 234.175 262.791, 235 263.467 C 235.825 264.143, 237.297 264.979, 238.270 265.324 C 239.244 265.670, 240.305 267.276, 240.629 268.893 C 241.117 271.334, 242.227 272.271, 247.174 274.416 C 254.263 277.490, 255.184 277.559, 257.345 275.171 C 259.027 273.312, 259.572 267.363, 258.235 265.447 C 257.600 264.538, 254.459 262.437, 247.849 258.500 C 243.621 255.982, 236.920 252.866, 230.500 250.434 C 226.650 248.976, 221.137 246.706, 218.250 245.391 C 207.023 240.278, 202.297 238.314, 197.013 236.565 C 187.674 233.475, 168.695 229.047, 164.684 229.023 C 162.586 229.010, 160.056 228.565, 159.064 228.034 C 155.292 226.015, 146.262 225.267, 142.305 226.645" stroke="none" fill="black" fill-rule="evenodd"/>
</svg>