<svg xmlns="http://www.w3.org/2000/svg" width="300" height="300" viewBox="0 0 300 300" version="1.1">
	<path d="M 152.849 22.921 C 150.741 24.628, 150.586 25.586, 150.388 38.121 C 150.221 48.735, 150.482 51.841, 151.655 53.152 C 153.536 55.254, 153.113 62.500, 151.109 62.500 C 149.452 62.500, 148.619 61.008, 146.923 55 C 146.224 52.525, 145.280 50.072, 144.826 49.550 C 144.372 49.027, 144 47.324, 144 45.765 C 144 42.821, 141.743 38.413, 139.129 36.250 C 137.082 34.557, 132.066 34.665, 131.394 36.417 C 130.762 38.062, 133.865 49.798, 135.139 50.586 C 135.613 50.879, 136 51.914, 136 52.887 C 136 53.859, 137.168 57.529, 138.595 61.041 C 141.166 67.369, 141.172 67.442, 139.217 69.026 C 138.131 69.905, 133.251 71.898, 128.372 73.455 C 106.955 80.290, 106.489 80.607, 109.273 86.446 C 111.245 90.582, 112.164 90.725, 118.667 87.903 C 121.325 86.749, 126.063 84.976, 129.195 83.962 C 132.327 82.948, 136.085 81.335, 137.546 80.378 C 141.208 77.978, 143.167 79.438, 143.425 84.759 C 143.653 89.456, 146.043 92.671, 152.250 96.632 L 156 99.025 156 106.320 L 156 113.615 151.332 117.057 C 148.764 118.951, 145.858 120.982, 144.874 121.571 C 143.890 122.160, 141.843 123.884, 140.325 125.402 C 135.275 130.452, 134.463 130.472, 130.983 125.625 C 126.121 118.855, 123.016 117.915, 114.182 120.539 C 110.224 121.714, 109 122.541, 109 124.039 C 109 125.117, 109.461 126, 110.025 126 C 110.588 126, 111.477 127.125, 112 128.500 C 112.553 129.954, 113.744 131, 114.848 131 C 118.637 131, 125.939 135.126, 129.289 139.160 C 133.509 144.240, 135.367 144.015, 142.489 137.564 C 147.482 133.041, 152.544 130.211, 153.656 131.322 C 154.778 132.445, 153.057 134.995, 149.865 136.936 C 146.821 138.787, 146.645 139.232, 146.299 145.948 C 145.951 152.694, 146.049 153.065, 148.463 154.165 C 150.566 155.123, 151.331 155.011, 153.002 153.498 C 154.108 152.498, 155.288 151.954, 155.624 152.291 C 156.213 152.880, 153.671 161.690, 151.898 165.206 C 151.425 166.145, 150.745 168.742, 150.387 170.978 C 150.030 173.215, 149.346 175.286, 148.869 175.581 C 148.391 175.876, 148 177.201, 148 178.524 C 148 182.300, 143.152 183.956, 126 186.039 C 114.752 187.404, 109.096 189.003, 104.472 192.123 C 99.258 195.643, 98 197.607, 98 202.234 C 98 207.902, 101.989 209.880, 105.529 205.968 C 109.038 202.091, 114.413 199.599, 121.937 198.363 C 129.338 197.146, 135.221 195.857, 139.773 194.455 C 141.995 193.771, 142.032 193.879, 141.404 199.220 C 140.666 205.499, 141.594 207.902, 146.627 212.748 C 151.126 217.079, 151.002 219.896, 146.128 224.134 C 139.925 229.526, 131.837 235.116, 127.256 237.178 C 122.299 239.409, 107.149 241.362, 101.787 240.461 C 97.165 239.684, 95.646 240.471, 96.976 242.954 C 98.220 245.280, 107.567 247, 118.961 247 C 125.223 247, 128.903 246.407, 133.967 244.580 C 143.020 241.314, 145.779 239.334, 160.297 225.679 C 164.254 221.957, 165.912 222.386, 185 232.073 C 190.452 234.839, 190.504 234.910, 191 240.080 C 191.665 247.015, 193.881 248.573, 197.679 244.775 C 202.786 239.669, 201.456 231.203, 194.698 225.798 C 189.924 221.979, 177.991 216, 175.143 216 C 171.668 216, 170.563 213.441, 172.383 209.605 C 173.272 207.731, 174 205.533, 174 204.721 C 174 203.909, 174.648 202.707, 175.441 202.049 C 176.233 201.392, 176.655 200.265, 176.379 199.546 C 175.702 197.782, 179.844 189.148, 181.875 188.091 C 182.769 187.625, 187.100 186.918, 191.500 186.518 C 195.900 186.118, 200.400 185.308, 201.500 184.718 C 205.439 182.603, 225.601 177.641, 230.772 177.515 C 237.329 177.354, 239.273 175.634, 239.273 169.992 C 239.273 167.092, 238.634 165.189, 237.166 163.722 C 235.079 161.634, 235.010 161.632, 229.280 163.416 C 226.101 164.406, 222.825 165.794, 222 166.500 C 219.809 168.377, 206.968 172.017, 185 176.989 C 179.622 178.207, 174.656 178.364, 170.294 177.454 C 167.851 176.945, 166.450 177.287, 164.409 178.893 C 160.231 182.179, 156.832 181.197, 158.863 177.291 C 160.546 174.055, 162.904 167.598, 164.531 161.768 C 165.411 158.616, 166.493 155.814, 166.935 155.540 C 167.376 155.267, 168.053 151.433, 168.438 147.020 C 168.984 140.754, 169.536 138.784, 170.954 138.024 C 171.953 137.490, 174.357 134.678, 176.296 131.776 C 178.235 128.874, 181.437 124.949, 183.411 123.054 C 185.385 121.158, 187 119.216, 187 118.737 C 187 118.258, 188.125 116.392, 189.500 114.589 C 190.875 112.786, 192 110.593, 192 109.715 C 192 108.837, 192.450 107.840, 193 107.500 C 196.380 105.411, 191.851 97.990, 187.211 98.015 C 183.206 98.036, 176.341 100.669, 171.366 104.092 C 168.955 105.751, 166.476 106.794, 165.857 106.412 C 165.068 105.924, 164.887 101.633, 165.254 92.108 C 165.787 78.238, 166.214 76.526, 171.569 66.809 C 173.347 63.583, 187.879 50, 189.553 50 C 190.200 50, 191.916 49.067, 193.365 47.927 C 195.545 46.213, 196 45.042, 196 41.150 C 196 32.690, 191.551 29.866, 188.171 36.180 C 187.484 37.464, 185.324 39.610, 183.371 40.948 L 179.820 43.381 176.537 39.471 C 173.608 35.982, 172.782 35.569, 168.877 35.637 C 166.470 35.679, 163.600 35.891, 162.500 36.107 C 160.649 36.471, 160.525 36.050, 160.837 30.445 C 161.180 24.278, 160.619 23.064, 156.799 21.705 C 155.845 21.366, 154.110 21.900, 152.849 22.921 M 75.545 40.546 C 73.395 42.865, 73.196 43.915, 73.314 52.305 C 73.384 57.372, 72.945 62.864, 72.337 64.509 C 71.729 66.154, 70.671 69.525, 69.986 72 C 69.301 74.475, 68.124 77.918, 67.370 79.651 C 66.617 81.384, 66 83.034, 66 83.318 C 66 83.602, 65.011 86.009, 63.802 88.667 C 62.593 91.325, 61.557 93.950, 61.499 94.500 C 61.323 96.178, 58.786 103.436, 58.003 104.500 C 56.249 106.884, 52 115.170, 52 116.207 C 52 116.831, 51.418 118.053, 50.707 118.921 C 49.996 119.790, 48.841 122.300, 48.141 124.500 C 47.441 126.700, 46.481 129.400, 46.009 130.500 C 45.536 131.600, 44.244 135.425, 43.138 139 L 41.126 145.500 43.237 147.750 C 44.398 148.988, 46.243 150, 47.336 150 C 49.791 150, 57.316 145.713, 62 141.647 L 65.500 138.608 65.842 140.974 C 66.291 144.082, 59.775 157.218, 54.783 163.269 C 50.607 168.331, 50.321 171.130, 53.540 175.431 C 54.963 177.332, 55.053 177.328, 59.352 175.181 C 61.754 173.981, 64.684 173, 65.863 173 C 67.042 173, 69.686 172.100, 71.739 171 C 76.876 168.247, 78.356 168.466, 81.381 172.432 C 87.039 179.852, 91 177.742, 91 167.309 C 91 159.017, 89.185 157, 81.723 157 C 78.820 157, 75.557 157.605, 74.473 158.345 C 71.934 160.075, 68.133 161.024, 67.545 160.073 C 67.294 159.667, 68.194 157.708, 69.544 155.720 C 70.895 153.732, 72 151.632, 72 151.053 C 72 150.474, 72.338 149.996, 72.750 149.992 C 73.775 149.982, 76 145.025, 76 142.751 C 76 141.733, 76.690 139.567, 77.533 137.937 C 78.636 135.804, 78.881 133.581, 78.406 130.005 C 77.577 123.753, 76.440 122.295, 71.733 121.448 C 68.219 120.816, 67.656 121.081, 63.351 125.386 C 60.813 127.923, 58.346 130, 57.868 130 C 56.429 130, 56.892 126.334, 58.500 125 C 59.325 124.315, 60 122.937, 60 121.937 C 60 120.936, 60.450 119.840, 61 119.500 C 61.550 119.160, 62 117.844, 62 116.576 C 62 115.307, 62.900 113.126, 64 111.727 C 65.100 110.329, 66 108.780, 66 108.287 C 66 107.793, 67.125 105.864, 68.500 104 C 69.875 102.136, 71 99.404, 71 97.928 C 71 96.452, 71.675 94.685, 72.500 94 C 73.325 93.315, 74 91.937, 74 90.937 C 74 89.936, 74.450 88.840, 75 88.500 C 75.550 88.160, 76 87.064, 76 86.063 C 76 85.063, 76.628 83.724, 77.395 83.087 C 78.162 82.451, 79.020 80.483, 79.302 78.715 C 80.030 74.153, 81.872 67.235, 82.896 65.216 C 84.105 62.834, 85.567 59.206, 87.215 54.500 C 89.739 47.292, 85.587 38, 79.841 38 C 78.776 38, 76.843 39.146, 75.545 40.546 M 161.665 49.675 C 160.985 53.865, 161.853 55.367, 164.644 54.830 C 166.082 54.553, 166.500 53.575, 166.500 50.486 C 166.500 47.192, 166.134 46.448, 164.389 46.199 C 162.644 45.950, 162.172 46.552, 161.665 49.675 M 151.332 75.578 C 150.563 77.581, 153.594 80.806, 154.960 79.440 C 156.301 78.099, 155.089 74, 153.352 74 C 152.574 74, 151.665 74.710, 151.332 75.578 M 173.500 113.877 C 168.975 116.697, 165.294 121.145, 164.710 124.500 C 164.422 126.150, 163.856 128.558, 163.450 129.851 C 162.849 131.772, 163.040 132.138, 164.499 131.851 C 166.200 131.517, 179 114.791, 179 112.902 C 179 111.459, 176.737 111.860, 173.500 113.877 M 156.229 191.669 C 154.615 192.319, 151.991 197.337, 152.029 199.700 C 152.071 202.275, 157.808 208.288, 159.576 207.609 C 160.376 207.302, 161.460 205.921, 161.985 204.539 C 162.510 203.158, 163.854 200.137, 164.970 197.826 C 167.975 191.606, 167.726 190.988, 162.250 191.079 C 159.637 191.122, 156.928 191.388, 156.229 191.669 M 63.653 199 C 59.609 202.550, 59.102 202.603, 54 200 C 46.718 196.285, 40 198.177, 40 203.942 C 40 205.953, 40.390 206.169, 43.250 205.742 C 45.814 205.360, 47.194 205.864, 49.785 208.129 C 52.449 210.457, 54.001 211, 57.995 211 C 60.723 211, 63.378 210.442, 63.945 209.750 C 64.509 209.063, 66.142 207.037, 67.574 205.250 C 69.666 202.638, 70.904 202, 73.876 202 C 76.996 202, 78.352 202.789, 82.538 207.043 C 86.821 211.396, 87.965 212.046, 90.899 211.793 C 96.093 211.345, 96.926 208.998, 93.650 204.048 C 92.149 201.778, 89.475 199.041, 87.710 197.965 C 84.118 195.775, 78.030 195.370, 76.200 197.200 C 75.267 198.133, 74.733 198.133, 73.800 197.200 C 71.669 195.069, 67.233 195.856, 63.653 199 M 1.993 206.508 C 0.652 208.124, 1.222 214.622, 2.846 216.246 C 3.351 216.751, 6.093 217.284, 8.938 217.429 C 13.496 217.662, 14.616 218.188, 18.344 221.847 C 20.671 224.131, 23.483 226, 24.592 226 C 26.693 226, 33 220.224, 33 218.300 C 33 217.693, 31.762 216.762, 30.250 216.232 C 28.738 215.702, 25.136 213.396, 22.246 211.108 C 19.357 208.820, 15.840 206.509, 14.431 205.974 C 10.490 204.475, 3.429 204.779, 1.993 206.508" stroke="none" fill="black" fill-rule="evenodd"/>
</svg>