<svg xmlns="http://www.w3.org/2000/svg" width="300" height="300" viewBox="0 0 300 300" version="1.1">
	<path d="M 118.750 12.080 C 116.615 13.323, 116.375 19.236, 118.390 20.909 C 119.155 21.544, 120.782 24.390, 122.005 27.234 C 123.880 31.592, 124.161 33.712, 123.793 40.724 C 123.553 45.300, 122.829 49.571, 122.185 50.215 C 120.482 51.918, 115.592 46.918, 114.105 41.956 C 111.864 34.477, 103 33.014, 103 40.123 C 103 42.448, 104.261 44.488, 108.290 48.681 C 112.793 53.367, 114.145 54.202, 117.375 54.294 C 121.076 54.399, 121.153 54.477, 120.473 57.451 C 120.090 59.128, 119.434 62.300, 119.015 64.500 C 118.350 67.989, 115.343 77.389, 112.937 83.500 C 111.502 87.144, 107.907 98.475, 107.702 100 C 107.552 101.115, 108.517 101.500, 111.460 101.500 C 114.847 101.500, 115.752 101.008, 117.710 98.102 C 118.970 96.233, 119.999 93.308, 119.997 91.602 C 119.996 89.896, 120.981 86.637, 122.187 84.360 C 124.136 80.680, 124.875 80.152, 128.830 79.610 C 135.971 78.631, 139 78.860, 139 80.378 C 139 81.135, 138.319 82.320, 137.488 83.010 C 136.337 83.965, 136.247 84.593, 137.110 85.633 C 138.480 87.284, 142.176 87.424, 143.716 85.884 C 144.330 85.270, 145.875 84.248, 147.149 83.613 C 152.335 81.027, 152.089 73.147, 146.736 70.340 C 143.307 68.542, 134.126 68.030, 130.262 69.421 C 126.860 70.646, 126.449 67.929, 129.027 61.264 C 133.624 49.383, 134.299 48.318, 138.471 46.374 C 143.449 44.055, 147.359 38.397, 149.068 31.041 C 149.776 27.993, 150.950 24.612, 151.678 23.527 C 154.944 18.655, 151.877 11.454, 146.841 12.170 C 144.965 12.436, 144.156 13.658, 142.650 18.500 C 141.623 21.800, 140.381 25.281, 139.891 26.236 C 139.401 27.191, 138.997 28.541, 138.994 29.236 C 138.991 29.931, 138.520 32.188, 137.947 34.250 C 137.195 36.958, 136.360 38, 134.941 38 C 133.220 38, 133.053 37.520, 133.596 34.126 C 133.980 31.724, 133.794 29.991, 133.108 29.567 C 132.498 29.190, 132 27.311, 132 25.391 C 132 19.284, 126.545 10.972, 122.576 11.030 C 121.434 11.047, 119.713 11.519, 118.750 12.080 M 60.557 22.223 C 58.587 25.035, 58.562 28.392, 60.500 30 C 61.325 30.685, 62 32.277, 62 33.539 C 62 34.801, 62.476 35.992, 63.059 36.186 C 64.216 36.572, 65.003 46.821, 64.219 51.302 C 63.413 55.914, 60.315 54.364, 56.621 47.500 C 53.672 42.021, 53.074 41.473, 49.738 41.192 C 44.612 40.760, 42 42.402, 42 46.055 C 42 48.469, 43.449 50.423, 49.574 56.270 C 53.740 60.246, 58.015 63.823, 59.074 64.218 C 61.684 65.190, 61.534 68.320, 58.430 77.719 C 57.017 81.999, 55.286 88.450, 54.584 92.055 C 53.538 97.423, 52.016 100.533, 46.173 109.241 C 42.250 115.089, 37.231 121.327, 35.020 123.104 C 32.453 125.167, 31 127.156, 31 128.608 C 31 131.939, 29.176 132.514, 26.523 130.021 C 24.284 127.918, 21.863 127.056, 11.943 124.833 C 8.334 124.024, 6.619 124.132, 3.693 125.355 C 0.077 126.866, -0 127.012, -0 132.338 L 0 137.779 8.270 137.263 C 15.364 136.820, 17.320 137.072, 22.020 139.036 C 25.034 140.295, 28.650 142.377, 30.055 143.663 C 32.780 146.156, 34.964 146.559, 37.764 145.086 C 38.719 144.584, 42.200 143.632, 45.500 142.972 C 48.800 142.312, 53.272 140.924, 55.438 139.886 C 57.604 138.849, 60.121 138, 61.033 138 C 61.944 138, 63.505 137.100, 64.500 136 C 65.495 134.900, 66.855 134, 67.520 134 C 68.186 134, 69.874 133.100, 71.273 132 C 72.671 130.900, 75.038 130, 76.532 130 C 78.035 130, 81.921 128.215, 85.238 126 C 90.196 122.689, 94.017 121.053, 93.996 122.250 C 93.993 122.388, 92.938 125.508, 91.651 129.183 C 90.364 132.859, 86.214 140.475, 82.428 146.107 C 77.003 154.179, 75.545 157.131, 75.545 160.047 C 75.545 168.763, 82.862 169.265, 92.500 161.212 C 95.161 158.988, 95.539 158.903, 95.844 160.458 C 96.033 161.422, 94.795 164.150, 93.094 166.519 C 91.392 168.888, 90 171.115, 90 171.467 C 90 172.040, 82.089 182.099, 76.286 188.904 C 73.836 191.777, 73.473 194.147, 75.035 197.066 C 76.394 199.605, 80.341 199.562, 88.515 196.922 C 97.527 194.010, 98.289 194.326, 99.564 201.507 C 100.149 204.803, 100.907 208.175, 101.248 209 C 102.606 212.286, 104 221.418, 104 227.031 C 104 233.867, 102.207 246.688, 100.894 249.236 C 100.402 250.191, 99.998 251.541, 99.995 252.236 C 99.986 254.545, 95.571 259.159, 93.994 258.508 C 92.495 257.889, 85.165 248.996, 83.738 246.065 C 81.560 241.590, 79.183 238.500, 77.919 238.500 C 76.172 238.500, 75.348 246.748, 76.936 248.336 C 77.521 248.921, 78 250.457, 78 251.748 C 78 253.332, 80.281 256.346, 85.004 261.004 C 93.397 269.282, 96.894 270.465, 102.581 266.950 C 106.256 264.679, 109.935 258.473, 109.978 254.473 C 109.990 253.357, 110.701 251.444, 111.558 250.221 C 112.415 248.997, 112.867 247.595, 112.564 247.103 C 112.260 246.612, 112.487 243.800, 113.068 240.855 C 114.616 232.998, 114.249 217.804, 112.377 212.290 C 109.826 204.776, 108 197.127, 108 193.956 C 108 191.453, 108.664 190.698, 112.421 188.932 C 114.852 187.789, 118.905 184.761, 121.427 182.203 L 126.013 177.552 129.756 179.508 C 131.815 180.583, 136.030 183.159, 139.121 185.232 C 142.213 187.304, 145.181 189, 145.716 189 C 146.252 189, 147.468 189.860, 148.419 190.910 C 149.369 191.961, 151.239 193.094, 152.574 193.429 C 154.152 193.825, 155 194.752, 155 196.082 C 155 197.783, 155.541 198.074, 158.218 197.813 C 160.889 197.553, 161.596 196.943, 162.370 194.226 C 163.167 191.431, 162.963 190.589, 160.977 188.476 C 159.698 187.114, 157.942 185.986, 157.076 185.968 C 155.181 185.930, 150.655 182.093, 149.118 179.221 C 148.509 178.083, 146.606 176.451, 144.888 175.594 C 140.924 173.616, 132 166.840, 132 165.807 C 132 164.570, 124.241 160, 122.142 160 C 119.396 160, 117.901 162.293, 117.564 167.019 C 117.169 172.568, 114.651 175.679, 106.448 180.750 C 96.431 186.943, 89.368 186.415, 95.124 179.903 C 98.862 175.675, 108 161.164, 108 159.457 C 108 158.551, 108.928 156.506, 110.061 154.914 C 111.195 153.322, 112.368 150.506, 112.668 148.657 C 113.159 145.630, 112.856 145.074, 109.622 143.075 C 105.475 140.513, 103.722 140.835, 99.167 144.995 C 93.888 149.817, 91.122 148.662, 94.750 143.150 C 98.002 138.210, 99.011 136.505, 99.574 135 C 99.883 134.175, 101.010 131.566, 102.078 129.203 C 104.603 123.616, 103.450 121, 98.465 121 C 92.119 121, 93.181 120.213, 109 113.195 C 116.788 109.739, 137.428 104.121, 145.331 103.305 C 150.082 102.815, 151 102.976, 151 104.304 C 151 105.174, 149.664 106.676, 148.031 107.641 C 146.399 108.605, 144.815 110.039, 144.513 110.828 C 143.777 112.745, 149.952 111.793, 156.211 109.025 C 161.380 106.738, 162.569 105.564, 163.510 101.817 C 164.089 99.510, 163.724 98.899, 160.840 97.345 C 155.748 94.601, 141.164 94.923, 134.500 97.927 C 131.750 99.167, 125.450 101.239, 120.500 102.531 C 115.550 103.823, 109.250 105.640, 106.500 106.569 C 90.673 111.915, 84.021 114.490, 80 116.828 C 77.525 118.268, 73.475 120.461, 71 121.702 C 68.525 122.943, 65.825 124.388, 65 124.913 C 57.662 129.585, 39.692 136.025, 38.189 134.522 C 37.902 134.235, 38.304 133.982, 39.083 133.961 C 40.597 133.919, 46.777 126.154, 48.599 122.004 C 49.204 120.627, 51.341 116.934, 53.349 113.798 C 55.357 110.662, 57 107.673, 57 107.156 C 57 106.639, 59.100 103.881, 61.667 101.026 L 66.333 95.835 72.417 96.168 L 78.500 96.500 78.500 92.576 C 78.500 88.651, 78.500 88.651, 73.177 87.452 C 66.142 85.868, 65.490 85.105, 67.108 80.349 C 67.828 78.232, 68.692 76.050, 69.028 75.500 C 69.664 74.461, 70.925 70.044, 73.027 61.500 C 75.833 50.095, 73.025 26.511, 68.355 22.250 C 65.228 19.398, 62.542 19.388, 60.557 22.223 M 84.630 33.856 C 83.707 34.877, 82.446 38.589, 81.829 42.106 C 81.153 45.955, 79.736 49.776, 78.268 51.707 C 75.643 55.158, 75.933 57, 79.102 57 C 82.112 57, 91 48.236, 91 45.268 C 91 43.915, 91.942 41.486, 93.093 39.869 C 95.547 36.424, 95.055 34.352, 91.461 32.985 C 87.785 31.588, 86.540 31.746, 84.630 33.856 M 56.566 229.250 C 45.550 238.559, 44.329 239.485, 33.626 246.645 C 29.396 249.474, 24.437 252.071, 22.605 252.414 C 18.742 253.139, 15.499 256.253, 16.336 258.433 C 17.676 261.925, 26.130 261.380, 34.958 257.232 C 36.906 256.317, 41.984 252.852, 46.243 249.534 C 50.502 246.215, 56.127 242.057, 58.743 240.293 C 61.359 238.529, 65.525 235.682, 68 233.965 C 70.475 232.248, 73.320 230.299, 74.322 229.633 C 78.278 227.003, 73.544 221, 67.515 221 C 66.863 221, 61.935 224.713, 56.566 229.250 M 142.268 230.642 C 137.394 231.540, 129.984 234.456, 130.281 235.358 C 130.488 235.986, 133.772 236.802, 137.579 237.172 C 141.385 237.541, 145.850 238.087, 147.500 238.384 C 149.150 238.682, 154.325 239.426, 159 240.038 C 164.426 240.748, 169.083 242.027, 171.876 243.575 C 174.283 244.909, 177.658 246.014, 179.376 246.032 C 181.094 246.049, 183.374 246.724, 184.441 247.532 C 185.509 248.339, 187.620 249, 189.132 249 C 190.645 249, 192.142 249.421, 192.460 249.935 C 192.778 250.450, 195.446 251.973, 198.389 253.321 C 201.332 254.668, 205.486 257.285, 207.620 259.135 C 215.647 266.096, 221.609 267.468, 224.046 262.913 C 225.977 259.306, 220.011 252.559, 211.712 248.963 C 210.496 248.436, 208.825 247.595, 208 247.093 C 200.688 242.651, 179.183 235.514, 162 231.828 C 157.441 230.850, 145.147 230.111, 142.268 230.642" stroke="none" fill="black" fill-rule="evenodd"/>
</svg>