<svg xmlns="http://www.w3.org/2000/svg" width="300" height="300" viewBox="0 0 300 300" version="1.1">
	<path d="M 185.578 39.250 C 185.325 40.487, 184.867 43.525, 184.561 46 C 183.364 55.674, 180.642 67.774, 178.882 71.236 C 178.397 72.191, 178 73.830, 178 74.877 C 178 75.925, 177.110 78.743, 176.022 81.141 C 173.478 86.748, 173.496 89.496, 176.096 92.096 L 178.191 94.191 180.900 91.596 C 182.390 90.168, 184.092 89, 184.682 89 C 185.272 89, 186.315 88.325, 187 87.500 C 188.615 85.553, 191 85.570, 191 87.529 C 191 89.216, 186.053 99.371, 182.455 105.072 C 180.820 107.662, 179.045 109.018, 176.327 109.753 C 169.286 111.658, 158.528 115.978, 155.790 118 C 154.300 119.100, 152.697 120, 152.229 120 C 151.760 120, 150.362 121.371, 149.123 123.047 C 145.982 127.296, 145.550 138.466, 148.445 140.583 C 151.520 142.832, 159.554 142.382, 163.353 139.750 C 166.590 137.506, 174.809 128.860, 180.500 121.709 C 182.812 118.804, 184.417 117.813, 187.500 117.387 C 190.302 117, 191.077 117.132, 190.087 117.827 C 189.310 118.373, 188.152 121.447, 187.513 124.660 C 186.525 129.626, 185.839 130.830, 182.926 132.709 C 175.219 137.677, 175.331 137.526, 177.032 140.669 C 178.273 142.962, 179.414 143.595, 183.032 144 C 186.982 144.442, 187.536 144.810, 187.809 147.176 C 188.158 150.191, 184.387 153.627, 178.723 155.458 C 174.718 156.753, 173.997 159.997, 177.037 163.037 C 178.712 164.712, 179.907 165.056, 182.349 164.568 C 189.660 163.105, 189.473 162.990, 189.797 169.163 C 190.081 174.570, 189.941 174.943, 186.703 177.413 C 184.837 178.836, 183.073 180, 182.782 180 C 182.491 180, 177.358 182.718, 171.376 186.041 C 165.394 189.364, 159.825 192.447, 159 192.893 C 155.758 194.646, 157.704 202.011, 161.405 201.995 C 163.839 201.985, 174.297 197.097, 176.812 194.794 C 181.587 190.422, 187.038 187.787, 188.610 189.091 C 190.611 190.752, 190.652 226.536, 188.653 227.303 C 187.912 227.587, 184.225 227.174, 180.459 226.385 C 175.470 225.339, 144.690 221.001, 142.250 221 C 142.113 221, 142 220.178, 142 219.174 C 142 218.170, 143.125 216.292, 144.500 215 C 149.641 210.170, 146.735 204.931, 135.290 198.396 C 129.113 194.870, 127.120 193.132, 125.370 189.748 C 124.027 187.152, 124.157 186.659, 127.597 181.282 C 129.605 178.141, 132.083 173.032, 133.102 169.927 C 134.926 164.372, 134.923 164.217, 132.954 160.141 C 131.854 157.864, 130.626 156, 130.227 155.999 C 129.827 155.999, 127.731 154.424, 125.568 152.499 C 123.406 150.575, 120.649 149, 119.441 149 C 116.593 149, 114.666 151.371, 115.465 153.890 C 116.228 156.294, 122.534 162, 124.428 162 C 125.978 162, 127.439 164.774, 127.061 167 C 126.692 169.172, 119.875 182.959, 118.859 183.587 C 118.387 183.879, 118.002 186.454, 118.004 189.309 C 118.009 195.937, 120.239 199.636, 127.438 204.955 C 130.711 207.372, 133 209.826, 133 210.917 C 133 213, 126.820 219.483, 123 221.407 C 121.625 222.100, 117.887 223.269, 114.692 224.007 C 108.209 225.503, 106.496 227.427, 107.515 232.067 C 108.337 235.811, 111.225 237.366, 115.864 236.563 C 129.304 234.236, 139.152 233.778, 152.500 234.861 C 160.200 235.485, 170.775 236.261, 176 236.584 C 189.323 237.409, 190 237.972, 190 248.209 C 190 255.242, 189.696 256.695, 187.800 258.713 C 185.772 260.872, 185.694 261.406, 186.800 265.542 C 187.460 268.010, 188 271.121, 188 272.455 C 188 273.790, 188.450 275.160, 189 275.500 C 189.550 275.840, 190 277.831, 190 279.924 C 190 283.879, 193.057 289, 195.418 289 C 196.117 289, 197.499 288.106, 198.489 287.012 C 200.045 285.293, 200.167 284.181, 199.394 278.762 C 198.902 275.318, 198.562 266.307, 198.637 258.739 C 198.788 243.549, 199.495 241.379, 203.939 242.464 C 205.348 242.808, 208.300 243.512, 210.500 244.028 C 212.700 244.544, 220.476 245.425, 227.779 245.986 C 235.083 246.546, 243.170 247.478, 245.750 248.056 C 248.330 248.634, 255.304 249.749, 261.247 250.533 C 267.190 251.316, 272.958 252.442, 274.064 253.034 C 275.170 253.626, 276.947 253.834, 278.012 253.496 C 280.475 252.714, 284.346 247.343, 283.685 245.622 C 282.726 243.121, 276.341 241, 269.773 241 C 263.460 241, 245.851 238.896, 237 237.084 C 234.525 236.577, 228.498 235.620, 223.608 234.956 C 218.717 234.293, 211.525 232.744, 207.626 231.513 C 201.009 229.425, 200.488 229.051, 199.812 225.888 C 198.904 221.639, 199.592 203.605, 201.155 190.670 C 202.452 179.948, 203.103 178.968, 211.903 174.513 C 216.029 172.424, 232.947 160.007, 234.901 157.634 C 236.061 156.224, 236.080 155.518, 235.010 153.519 C 232.734 149.266, 228.090 149.311, 226.134 153.605 C 225.524 154.944, 223.889 156.472, 222.501 156.999 C 221.114 157.527, 216.394 160.026, 212.013 162.553 C 207.632 165.080, 203.587 166.863, 203.024 166.515 C 202.461 166.167, 202 163.115, 202 159.733 C 202 154.042, 202.264 153.314, 205.539 149.960 C 208.682 146.741, 208.964 146.035, 208.056 143.646 C 207.350 141.789, 206.073 140.765, 203.931 140.336 C 199.886 139.527, 199.437 138.043, 201.866 133.511 C 204.354 128.869, 203.791 127.314, 197.681 121.944 C 193.362 118.148, 193.021 117.551, 194.388 116.183 C 196.771 113.800, 221.483 113.164, 225.760 115.376 C 229.958 117.547, 234.303 117.427, 236.425 115.083 C 239.075 112.154, 236.920 109.325, 229.331 105.774 C 222.970 102.798, 222.581 102.744, 211.166 103.254 C 204.749 103.541, 198.716 104.098, 197.758 104.492 C 194.807 105.705, 194.593 102.357, 197.263 96.736 C 205.972 78.402, 206.618 75.618, 203 72 C 200.879 69.879, 194.601 69.218, 193.500 71 C 192.673 72.339, 189.288 72.275, 188.441 70.905 C 188.069 70.302, 188.197 68.840, 188.726 67.655 C 190.940 62.695, 193 54.993, 193 51.675 C 193 49.719, 193.450 47.840, 194 47.500 C 195.697 46.451, 195.133 40.431, 193.171 38.655 C 190.411 36.157, 186.142 36.492, 185.578 39.250 M 83.667 55.667 C 82.569 56.764, 82.913 59.804, 84.183 60.228 C 85.076 60.525, 85.026 61.830, 83.976 65.561 C 83.212 68.277, 82.717 71.773, 82.877 73.329 C 83.037 74.885, 82.520 76.910, 81.728 77.829 C 80.937 78.748, 79.497 82.875, 78.530 87 C 77.562 91.125, 76.372 95.534, 75.885 96.797 C 75.398 98.060, 75 100.562, 75 102.356 C 75 104.150, 74.339 106.491, 73.532 107.559 C 72.724 108.626, 72.049 110.486, 72.032 111.691 C 72.014 112.896, 71.550 114.160, 71 114.500 C 70.450 114.840, 70 116.190, 70 117.500 C 70 118.810, 69.592 120.134, 69.092 120.443 C 68.593 120.751, 67.424 123.590, 66.493 126.752 C 65.563 129.913, 63.652 134.975, 62.246 138 C 60.841 141.025, 59.347 144.400, 58.926 145.500 C 58.506 146.600, 57 150.060, 55.581 153.188 C 54.161 156.317, 53 159.585, 53 160.452 C 53 161.318, 52.490 162.845, 51.866 163.844 C 50.975 165.270, 51.107 166.233, 52.481 168.330 C 53.443 169.799, 54.966 170.978, 55.865 170.952 C 57.641 170.900, 62.209 168.589, 66.364 165.640 C 69.459 163.443, 72.588 164.130, 71.461 166.758 C 71.051 167.716, 70.346 170.525, 69.895 173 C 69.445 175.475, 68.782 178.967, 68.423 180.759 C 67.185 186.942, 70.664 188.326, 79.927 185.335 C 84.755 183.775, 85.310 183.778, 88.648 185.369 C 91.387 186.675, 92.535 186.801, 93.606 185.912 C 95.535 184.311, 95.353 182.139, 92.898 177.485 C 89.944 171.887, 86.177 168.159, 83.114 167.803 C 81.185 167.580, 80.551 166.976, 80.695 165.500 C 81.043 161.928, 82.127 157.550, 83.220 155.295 C 84.049 153.586, 83.917 152.522, 82.632 150.561 C 79.680 146.055, 71.748 145.903, 70.069 150.319 C 68.972 153.203, 66.395 155.362, 65.044 154.527 C 63.238 153.411, 63.906 150.219, 66.348 148.298 C 67.639 147.282, 69.247 144.781, 69.921 142.740 C 70.595 140.698, 71.563 138.770, 72.073 138.455 C 72.583 138.140, 73 136.649, 73 135.141 C 73 133.633, 73.358 131.972, 73.796 131.450 C 74.234 130.927, 75.185 128.700, 75.911 126.500 C 76.637 124.300, 77.899 120.925, 78.717 119 C 82.056 111.140, 85 101.851, 85 99.175 C 85 98.044, 85.450 96.840, 86 96.500 C 86.550 96.160, 87 94.649, 87 93.141 C 87 91.633, 87.424 89.973, 87.943 89.450 C 88.962 88.423, 90.865 81.631, 91.711 76 C 92 74.075, 92.713 71.909, 93.294 71.186 C 93.876 70.463, 94.260 67.538, 94.148 64.686 C 93.979 60.393, 93.475 59.113, 91.222 57.255 C 88.572 55.069, 85.013 54.321, 83.667 55.667 M 122.750 111.572 C 119.192 113.502, 119.289 115.301, 123.309 122 C 127.284 128.623, 130.774 129.801, 133.608 125.476 C 135.063 123.255, 135.153 122.313, 134.170 119.595 C 133.527 117.814, 133 115.614, 133 114.705 C 133 113.795, 131.672 112.365, 130.050 111.526 C 126.487 109.683, 126.228 109.685, 122.750 111.572 M 161.500 120.921 C 155.521 123.726, 151.824 127.663, 152.193 130.835 C 152.732 135.481, 155.577 134.608, 162.516 127.669 C 166.082 124.103, 169 120.694, 169 120.093 C 169 118.472, 166.016 118.802, 161.500 120.921 M 53.355 210.518 C 51.959 214.156, 59.826 225.857, 65.151 228.062 C 68.928 229.627, 70.801 228.722, 72.577 224.471 C 73.394 222.514, 74.724 220.659, 75.531 220.350 C 78.543 219.194, 89.276 221.890, 91.980 224.481 C 95.441 227.796, 97.395 227.659, 100.062 223.913 C 102.249 220.841, 102.251 220.813, 100.318 218.225 C 96.910 213.660, 93.353 211.694, 87.646 211.221 C 81.393 210.702, 73.220 212.995, 70.463 216.041 C 69.488 217.119, 68.252 218, 67.716 218 C 67.180 218, 64.856 215.975, 62.551 213.500 C 58.256 208.888, 54.453 207.655, 53.355 210.518 M 12.361 217.502 C 10.977 221.108, 13.216 224.063, 22.740 231.207 C 35.488 240.769, 36.262 241.159, 41.790 240.803 C 45.767 240.547, 46.549 240.158, 46.813 238.302 C 47.052 236.619, 46.234 235.649, 43.313 234.155 C 41.216 233.083, 37.475 230.444, 35 228.291 C 22.715 217.605, 13.928 213.418, 12.361 217.502" stroke="none" fill="black" fill-rule="evenodd"/>
</svg>