<svg xmlns="http://www.w3.org/2000/svg" width="300" height="300" viewBox="0 0 300 300" version="1.1">
	<path d="M 119.223 33.557 C 117.866 34.507, 116.997 36.163, 116.993 37.807 C 116.985 41.073, 120.795 58.863, 121.983 61.103 C 122.451 61.985, 123.132 64.910, 123.498 67.603 C 123.863 70.296, 124.612 73.969, 125.163 75.764 C 125.714 77.560, 126.187 81.507, 126.214 84.537 C 126.241 87.566, 126.654 90.286, 127.132 90.581 C 127.609 90.877, 128 92.661, 128 94.546 C 128 97.418, 128.609 98.362, 131.750 100.358 C 139.322 105.169, 140.626 109.314, 135.910 113.581 C 134.860 114.532, 134 115.902, 134 116.625 C 134 117.348, 133.017 119.640, 131.815 121.720 C 128.946 126.683, 124.154 135.564, 121.844 140.202 C 118.062 147.793, 119.930 153, 126.434 153 C 129.322 153, 129.730 154.149, 127.500 156 C 126.675 156.685, 126 157.858, 126 158.607 C 126 159.357, 124.650 162.164, 123 164.846 C 119.582 170.400, 118.260 177.654, 120.221 180.087 C 124.246 185.080, 130.454 184.760, 136.179 179.264 C 140.922 174.711, 142.567 175.376, 143.365 182.169 C 144.349 190.537, 146.438 202.400, 147.122 203.500 C 148.313 205.415, 148.728 246.014, 147.576 247.878 C 146.310 249.925, 144.915 249.044, 143.418 245.250 C 142.603 243.188, 141.276 240.306, 140.469 238.846 C 139.661 237.386, 139 235.334, 139 234.287 C 139 233.239, 138.339 231.509, 137.532 230.441 C 136.724 229.374, 136.049 227.514, 136.032 226.309 C 135.980 222.772, 134.287 222.740, 133.495 226.260 C 132.221 231.924, 132.899 240.518, 134.993 245.252 C 137.044 249.889, 148.663 263, 150.722 263 C 154.434 263, 158.026 251.353, 158.587 237.500 C 158.743 233.650, 158.955 229.600, 159.060 228.500 C 159.231 226.694, 158.751 222.109, 156.027 199.500 C 154.828 189.543, 152.564 179.157, 150.580 174.500 L 148.875 170.500 152.187 167.675 C 154.009 166.121, 157.188 163.975, 159.250 162.905 C 161.313 161.835, 163 160.293, 163 159.480 C 163 158.666, 163.591 158, 164.313 158 C 165.035 158, 166.919 156.650, 168.500 155 C 170.081 153.350, 172.112 152, 173.013 152 C 175.266 152, 178.753 155.970, 179.162 159 C 179.393 160.708, 180.220 161.602, 181.771 161.822 C 183.573 162.078, 184.359 161.385, 185.578 158.469 C 187.505 153.857, 186.717 149.979, 183.056 146.060 C 181.518 144.413, 179.505 141.476, 178.583 139.533 C 177.210 136.639, 176.360 136, 173.887 136 C 169.382 136, 167 137.659, 167 140.795 C 167 144.126, 160.772 150.875, 154.850 153.961 C 152.605 155.131, 150.074 156.783, 149.225 157.633 C 148.375 158.482, 146.058 160.201, 144.076 161.452 C 142.093 162.704, 139.860 164.464, 139.113 165.364 C 137.683 167.087, 135.442 167.525, 134.646 166.236 C 133.994 165.181, 137.568 157.604, 139.456 156.036 C 140.305 155.332, 141 154.145, 141 153.400 C 141 152.655, 142.350 149.550, 144 146.500 C 145.650 143.450, 147 139.694, 147 138.152 C 147 135.152, 143.431 131, 140.852 131 C 138.461 131, 137.870 129.803, 139.410 128.081 C 140.189 127.212, 142.126 124.025, 143.716 121 C 147.993 112.865, 155.301 102.171, 160.456 96.507 C 162.955 93.760, 165 91.096, 165 90.585 C 165 90.075, 165.716 88.866, 166.591 87.899 C 167.466 86.932, 168.302 84.422, 168.448 82.320 C 168.594 80.219, 168.964 77.825, 169.271 77 C 169.578 76.175, 170.128 73.700, 170.493 71.500 C 170.857 69.300, 171.390 66.150, 171.676 64.500 C 171.962 62.850, 172.254 56.452, 172.325 50.281 L 172.453 39.062 169.030 35.531 C 164.386 30.739, 159.872 30.713, 152.131 35.433 C 144.849 39.873, 139.976 45.092, 136.430 52.250 C 132.431 60.325, 131.527 59.981, 129.888 49.758 C 129.336 46.316, 128.460 43.073, 127.942 42.550 C 127.424 42.028, 127 40.340, 127 38.800 C 127 36.216, 124.038 32, 122.223 32 C 121.795 32, 120.445 32.701, 119.223 33.557 M 67.073 41.635 C 64.570 44.816, 64.506 46.158, 66.644 50.663 C 68.065 53.657, 68.122 54.901, 67.063 59.814 C 64.725 70.662, 63.764 74.528, 62.045 80 C 61.094 83.025, 59.468 88.200, 58.431 91.500 C 57.394 94.800, 54.398 101.775, 51.774 107 C 49.149 112.225, 47.002 117.287, 47.001 118.250 C 47 119.213, 46.639 120, 46.198 120 C 45.756 120, 44.565 122.362, 43.549 125.250 C 42.534 128.137, 41.367 130.950, 40.956 131.500 C 40.544 132.050, 38.136 136.473, 35.604 141.328 C 31.001 150.156, 30.089 154.430, 32.035 158.066 C 33.340 160.503, 34.605 160.492, 39.764 158 C 42.041 156.900, 44.391 156, 44.986 156 C 46.144 156, 45.561 163.588, 43.912 170 C 42.390 175.913, 42.827 178.460, 45.861 181.367 C 49.379 184.738, 52.157 184.290, 58.697 179.298 C 63.547 175.596, 65.655 175.555, 66.172 179.155 C 66.353 180.408, 67.730 182.122, 69.234 182.963 C 71.859 184.432, 72.093 184.369, 75.071 181.391 C 78.093 178.368, 78.138 178.189, 76.827 174.394 C 73.555 164.929, 68.746 161.207, 60.652 161.874 C 57.026 162.173, 56.846 162.056, 57.525 159.846 C 57.921 158.555, 58.588 157.050, 59.007 156.500 C 59.426 155.950, 60.077 154.061, 60.453 152.302 C 60.829 150.543, 62.456 147.443, 64.068 145.414 C 67.543 141.042, 67.708 139.169, 64.927 135.635 C 61.469 131.238, 57.708 132.010, 53.405 138 C 48.587 144.706, 44.919 144.818, 48.378 138.154 C 49.135 136.694, 50.738 132.800, 51.938 129.500 C 54.041 123.722, 57.362 116.128, 59.155 113 C 59.628 112.175, 60.512 110.375, 61.120 109 C 61.728 107.625, 62.834 105.333, 63.577 103.906 C 65.967 99.320, 70.722 86.330, 72.023 80.834 C 72.717 77.900, 73.896 74.612, 74.643 73.527 C 75.389 72.443, 76 70.332, 76 68.837 C 76 67.341, 76.374 65.887, 76.832 65.604 C 77.577 65.143, 78.785 59.187, 80.508 47.475 C 81.042 43.840, 80.808 43.234, 78.090 41.225 C 73.948 38.163, 69.679 38.322, 67.073 41.635 M 155.256 46.939 C 153.306 48.565, 153.096 49.424, 153.654 53.493 C 154.069 56.520, 154.863 58.348, 155.898 58.661 C 156.779 58.928, 158.281 59.563, 159.236 60.073 C 162.907 62.033, 163.314 61.288, 162.625 53.874 C 162.261 49.955, 161.720 46.355, 161.422 45.874 C 160.537 44.441, 157.653 44.939, 155.256 46.939 M 139.638 59.500 C 139.272 60.454, 137.735 61, 135.415 61 C 131.935 61, 131.799 61.127, 132.455 63.750 C 132.833 65.263, 133.381 67.932, 133.673 69.682 C 133.964 71.432, 134.877 73.123, 135.702 73.439 C 137.076 73.966, 137.936 73.184, 142.718 67.060 C 143.388 66.202, 143.951 63.813, 143.968 61.750 C 143.994 58.726, 143.633 58, 142.107 58 C 141.066 58, 139.955 58.675, 139.638 59.500 M 157.557 72.223 C 156.701 73.445, 156 75.288, 156 76.318 C 156 77.348, 155.258 79.448, 154.350 80.984 C 152.293 84.466, 153.166 87, 156.422 87 C 159.165 87, 160.512 83.857, 161.673 74.750 C 162.173 70.829, 162.002 70, 160.696 70 C 159.826 70, 158.413 71, 157.557 72.223 M 135.756 88.407 C 135.507 92.308, 135.634 95.876, 136.037 96.335 C 137.001 97.433, 142.682 94.463, 143.872 92.239 C 144.697 90.698, 145.382 85.267, 145.101 82.500 C 145.045 81.950, 143.021 81.458, 140.604 81.407 L 136.208 81.313 135.756 88.407 M 37.667 201.667 C 36.606 202.728, 36.894 208.924, 38.116 211.316 C 38.729 212.517, 41.300 215.637, 43.828 218.250 C 49.768 224.388, 53.522 224.709, 58.435 219.500 C 62.748 214.927, 66.703 214.754, 69.842 219 C 72.606 222.739, 73.900 222.757, 77.395 219.109 C 80.058 216.330, 80.105 216.104, 78.619 213.231 C 76.694 209.508, 75.378 209, 67.650 209 C 62.600 209, 60.745 209.488, 57.548 211.661 L 53.632 214.322 50.816 210.949 C 49.267 209.094, 48 207.081, 48 206.476 C 48 204.282, 43.881 201, 41.128 201 C 39.591 201, 38.033 201.300, 37.667 201.667 M 129.277 206.653 C 128.605 206.925, 125.927 210.377, 123.327 214.324 C 120.726 218.271, 118.311 221.725, 117.959 222 C 117.608 222.275, 115.922 224.447, 114.214 226.826 C 104.774 239.972, 86.588 255, 80.120 255 C 77.970 255, 75 258.021, 75 260.206 C 75 262.471, 77.080 263.835, 81.550 264.501 C 85.257 265.054, 86.085 264.651, 95 257.966 C 100.225 254.048, 104.725 250.304, 105 249.646 C 105.598 248.214, 116.914 236.068, 126.091 227.007 C 129.716 223.428, 133.220 219.488, 133.876 218.250 C 134.533 217.012, 135.681 216, 136.428 216 C 137.551 216, 139 214.001, 139 212.453 C 139 212.242, 137.665 210.703, 136.034 209.034 C 133.156 206.090, 131.825 205.621, 129.277 206.653 M 2.223 212.557 C 0.665 213.648, 0 215.133, 0 217.522 C -0 221.484, 2.036 223, 7.357 223 C 9.845 223, 12.084 223.998, 15.172 226.484 C 20.598 230.853, 30.042 235.358, 31.247 234.153 C 31.738 233.662, 31.816 231.538, 31.421 229.432 C 30.522 224.640, 25.494 219.232, 17.559 214.525 C 11.011 210.640, 5.896 209.984, 2.223 212.557 M 179.348 213.716 C 176.993 214.012, 175.890 214.852, 174.984 217.038 C 173.210 221.321, 174.257 222.770, 179.692 223.552 C 182.336 223.933, 185.175 224.830, 186 225.544 C 186.825 226.259, 188.850 227.156, 190.500 227.538 C 196.701 228.972, 208.960 233.463, 221.500 238.895 C 222.600 239.372, 226.875 240.776, 231 242.015 C 243.949 245.906, 247.137 247.273, 251.220 250.684 C 253.403 252.508, 255.899 254, 256.766 254 C 257.633 254, 259.129 254.712, 260.090 255.581 C 261.692 257.031, 262.010 256.990, 263.919 255.081 C 265.211 253.789, 266 251.711, 266 249.599 C 266 245.739, 263.578 243.894, 252.626 239.416 C 249.257 238.038, 245.600 236.499, 244.500 235.997 C 241.612 234.678, 223.336 228, 222.614 228 C 222.279 228, 219.192 226.733, 215.753 225.184 C 209.690 222.454, 207.510 221.606, 198 218.276 C 195.525 217.410, 191.392 215.868, 188.815 214.850 C 186.238 213.833, 183.763 213.072, 183.315 213.160 C 182.867 213.248, 181.082 213.498, 179.348 213.716" stroke="none" fill="black" fill-rule="evenodd"/>
</svg>