<svg xmlns="http://www.w3.org/2000/svg" width="300" height="300" viewBox="0 0 300 300" version="1.1">
	<path d="M 123.775 51.696 C 122.228 53.406, 122.216 54.060, 123.631 60.026 C 124.475 63.587, 125.391 68.551, 125.666 71.058 C 126.250 76.373, 126.153 76.484, 115.697 82.417 C 110.012 85.642, 108.437 87.043, 108.199 89.086 C 107.685 93.511, 110.244 94.576, 115.480 92.115 C 117.954 90.952, 120.281 90, 120.651 90 C 121.021 90, 124.902 87.903, 129.274 85.339 C 138.581 79.883, 146.424 72.482, 145.433 70.091 C 145.070 69.216, 144.555 67.744, 144.288 66.819 C 143.516 64.145, 140.887 63.758, 138.530 65.972 C 134.766 69.508, 134 68.604, 134 60.622 C 134 52.613, 133.341 51.418, 128.382 50.426 C 126.266 50.003, 124.988 50.355, 123.775 51.696 M 75.655 53.829 C 74.545 55.055, 73.998 57.444, 73.994 61.079 C 73.991 64.060, 73.536 68.129, 72.983 70.120 C 72.430 72.111, 71.543 76.836, 71.011 80.620 C 69.586 90.764, 68.112 97.288, 66.991 98.409 C 66.446 98.954, 66 100.408, 66 101.641 C 66 102.874, 65.550 104.160, 65 104.500 C 64.450 104.840, 64 106.223, 64 107.573 C 64 108.923, 63.605 110.809, 63.122 111.764 C 60.800 116.356, 59 121.252, 59 122.975 C 59 124.024, 58.550 125.160, 58 125.500 C 57.450 125.840, 57 126.936, 57 127.937 C 57 128.937, 56.325 130.315, 55.500 131 C 54.675 131.685, 53.987 132.977, 53.972 133.872 C 53.957 134.768, 52.616 137.256, 50.991 139.402 C 48.944 142.108, 48.213 144, 48.607 145.570 C 49.019 147.211, 48.600 148.144, 47.088 148.953 C 45.722 149.684, 45 151.054, 45 152.913 C 45 156.802, 47.017 158.324, 50.443 157.021 C 54.287 155.560, 54.264 155.532, 53.568 160.750 C 51.743 174.428, 51.766 175.401, 53.968 177.750 C 56.844 180.816, 58.618 180.596, 64.687 176.415 C 71.143 171.969, 72.364 172.277, 79.136 180.063 C 84.388 186.101, 86.776 187.179, 88.991 184.511 C 91.820 181.102, 88.050 173.525, 78.491 163.408 C 74.777 159.478, 69.663 159.059, 67.408 162.500 C 64.947 166.257, 62.666 165.814, 63.541 161.750 C 63.926 159.963, 64.862 157.285, 65.620 155.800 C 66.379 154.314, 67 152.204, 67 151.109 C 67 150.014, 67.450 148.840, 68 148.500 C 68.550 148.160, 69 146.324, 69 144.420 C 69 141.697, 68.466 140.714, 66.500 139.818 C 64.606 138.955, 64 137.918, 64 135.539 C 64 133.813, 64.387 131.972, 64.860 131.450 C 65.333 130.927, 66.508 128.025, 67.470 125 C 68.433 121.975, 69.791 118.150, 70.490 116.500 C 71.189 114.850, 72.232 111.700, 72.808 109.500 C 73.384 107.300, 74.870 101.900, 76.112 97.500 C 78.160 90.237, 78.894 86.766, 80.656 76 C 80.971 74.075, 81.833 71.811, 82.572 70.968 C 83.937 69.411, 84.563 64.394, 84.201 57.911 C 84.046 55.138, 83.420 54.057, 81.453 53.161 C 78.081 51.624, 77.600 51.680, 75.655 53.829 M 161.200 56.200 C 158.475 58.925, 160.369 80.215, 163.927 86.863 C 164.517 87.966, 165 90.447, 165 92.375 C 165 94.304, 165.390 96.123, 165.867 96.418 C 166.344 96.713, 167.001 98.877, 167.326 101.227 C 167.651 103.577, 168.048 106.400, 168.208 107.500 C 168.502 109.512, 165.375 111.517, 154.500 116.293 C 152.300 117.259, 148.925 118.920, 147 119.983 C 141.796 122.857, 124.992 129.326, 124.363 128.696 C 123.452 127.785, 124.944 124.306, 128.404 119.276 C 130.212 116.648, 132.308 112.699, 133.062 110.499 C 133.816 108.300, 135.011 105.612, 135.717 104.527 C 136.423 103.443, 137 101.395, 137 99.977 C 137 98.560, 137.563 96.828, 138.250 96.129 C 139.253 95.109, 139.033 94.477, 137.139 92.929 C 132.987 89.536, 129 91.011, 129 95.939 C 129 97.336, 128.213 100.395, 127.250 102.736 C 125.102 107.960, 122.280 108.539, 121.813 103.851 C 121.432 100.017, 118.799 98.009, 116.250 99.609 C 113.745 101.181, 113.385 110.914, 115.562 118.162 C 117.228 123.705, 117.218 123.919, 115.077 128.341 L 112.890 132.858 103.962 133.557 C 93.213 134.398, 91.733 135.492, 94.471 140.577 C 95.485 142.460, 96.755 144, 97.293 144 C 97.831 144, 104.869 142.642, 112.933 140.981 C 123.233 138.860, 131.297 136.444, 140.047 132.858 C 146.896 130.051, 154.300 127.103, 156.500 126.308 C 158.700 125.513, 162.377 123.932, 164.670 122.794 C 169.769 120.265, 171.597 120.834, 172.309 125.173 C 172.610 127.003, 173.294 130.300, 173.829 132.500 C 174.365 134.700, 175.337 139.200, 175.990 142.500 C 176.643 145.800, 177.549 149.400, 178.005 150.500 C 178.460 151.600, 179.057 153.400, 179.331 154.500 C 180.188 157.946, 183.302 166.500, 185.125 170.418 C 186.093 172.497, 185.652 174.072, 181.986 181.647 C 179.640 186.493, 176.951 191.593, 176.010 192.979 C 174.354 195.420, 163.790 212.928, 160.916 217.996 C 159.694 220.151, 157.022 223.917, 154.155 227.526 C 153.706 228.090, 152.499 229.890, 151.472 231.526 C 147.515 237.826, 137.204 251.923, 129.550 261.500 C 119.526 274.040, 111.660 281.703, 106.486 283.969 C 99.529 287.015, 98.386 290.318, 103.231 293.374 C 105.335 294.701, 111.735 291.845, 116.192 287.590 C 124.215 279.930, 139.958 263.002, 144.039 257.647 C 150.846 248.717, 166.925 225.002, 169.225 220.500 C 170.349 218.300, 171.732 216.203, 172.298 215.840 C 173.445 215.104, 178.126 207.267, 180.415 202.250 C 181.230 200.463, 182.993 197.538, 184.333 195.750 C 185.672 193.963, 187.075 191.487, 187.451 190.250 C 188.324 187.376, 192 187.162, 192 189.986 C 192 192.237, 193.867 200.489, 195.058 203.500 C 195.493 204.600, 196.128 206.850, 196.469 208.500 C 198.134 216.554, 199.752 221.882, 202.631 228.784 C 203.384 230.590, 204 233.826, 204 235.975 C 204 238.124, 204.450 240.160, 205 240.500 C 205.550 240.840, 206 242.221, 206 243.570 C 206 248.243, 214.118 262.807, 218.113 265.302 C 219.151 265.951, 220 267.111, 220 267.880 C 220 269.768, 223.003 271.929, 225.682 271.968 C 228.108 272.004, 232.002 267.303, 231.996 264.346 C 231.994 263.331, 231.094 261.027, 229.996 259.226 C 228.898 257.425, 228 254.474, 228 252.667 C 228 250.860, 227.339 248.509, 226.532 247.441 C 225.724 246.374, 225.049 244.289, 225.032 242.809 C 225.014 241.329, 224.550 239.840, 224 239.500 C 223.450 239.160, 223 237.544, 223 235.909 C 223 231.895, 220.322 225.726, 218.799 226.234 C 217.339 226.720, 217.590 243.914, 219.079 245.450 C 220.414 246.827, 220.209 248, 218.634 248 C 217.210 248, 213 237.773, 213 234.314 C 213 233.225, 212.692 232.025, 212.315 231.648 C 211.533 230.867, 209.625 225.798, 207.364 218.500 C 206.512 215.750, 205.407 212.719, 204.908 211.764 C 204.408 210.809, 204 208.726, 204 207.136 C 204 205.545, 203.325 202.629, 202.500 200.654 C 201.675 198.680, 201 195.726, 201 194.091 C 201 192.456, 200.550 190.840, 200 190.500 C 199.450 190.160, 199 188.515, 199 186.845 C 199 185.175, 198.380 182.614, 197.622 181.154 C 193.412 173.046, 193.353 173.784, 198.752 166.865 C 201.484 163.364, 204.297 159.375, 205.004 158 C 205.711 156.625, 207.544 153.898, 209.078 151.941 C 210.611 149.983, 212.169 147.058, 212.539 145.441 C 212.908 143.823, 215.413 137.931, 218.105 132.346 C 221.440 125.428, 223 120.926, 223 118.219 C 223 113.616, 220.784 111.016, 218.233 112.625 C 216.495 113.721, 216.396 113.891, 212.750 122 C 203.804 141.899, 193.185 160, 190.459 160 C 189.777 160, 188.967 158.537, 188.659 156.750 C 188.351 154.963, 187.630 150.664, 187.056 147.197 C 186.483 143.730, 185.560 140.047, 185.007 139.012 C 184.453 137.978, 184 136.003, 184 134.625 C 184 133.246, 183.550 131.840, 183 131.500 C 182.450 131.160, 182 129.079, 182 126.875 C 182 124.672, 181.519 121.969, 180.931 120.870 C 179.590 118.365, 181.286 116, 184.422 116 C 185.620 116, 187.027 115.626, 187.550 115.169 C 188.903 113.985, 196.262 112, 199.298 112 C 201.032 112, 202.587 110.984, 204.094 108.868 C 208.475 102.715, 203.136 100.619, 190.500 103.530 C 178.050 106.399, 178.079 106.397, 177.421 104.362 C 177.090 103.338, 176.440 101.600, 175.977 100.500 C 175.515 99.400, 174.932 97.150, 174.682 95.500 C 174.274 92.801, 173.190 89.340, 170.925 83.500 C 169.971 81.041, 168.576 66.849, 168.791 61.789 C 169.009 56.654, 164.250 53.150, 161.200 56.200 M 197.181 59.867 C 196.359 60.388, 195.982 62.146, 196.181 64.527 C 196.428 67.492, 197.127 68.705, 199.288 69.926 C 202.626 71.811, 205.984 76.675, 205.993 79.639 C 205.997 80.816, 206.848 82.826, 207.885 84.107 C 209.541 86.152, 209.977 86.264, 211.465 85.029 C 212.812 83.911, 213.057 82.485, 212.663 78.062 C 211.876 69.244, 211.007 66.464, 207.830 62.610 C 205.542 59.834, 204.120 59.004, 201.677 59.015 C 199.930 59.024, 197.906 59.407, 197.181 59.867 M 125.298 155.662 C 120.949 160.332, 119.242 163.964, 120.465 165.943 C 121.715 167.965, 124.651 166.978, 127.731 163.500 C 130.974 159.836, 133.105 159.149, 134.710 161.250 C 136.182 163.177, 138.231 173.145, 137.845 176.500 C 137.544 179.119, 137.055 179.542, 134 179.828 C 129.798 180.222, 127.337 182.258, 125.369 186.968 C 123.683 191.003, 124.308 195, 126.625 195 C 127.497 195, 129.570 193.856, 131.232 192.459 C 135.028 189.264, 136.567 189.769, 136.260 194.109 C 136.070 196.804, 134.848 198.586, 130.302 202.792 C 120.957 211.440, 120.732 211.120, 120.324 188.592 C 120.137 178.193, 119.587 169.193, 119.103 168.592 C 118.620 167.991, 117.904 165.118, 117.512 162.208 C 116.755 156.576, 113.948 153.460, 110.299 154.199 C 108.786 154.506, 108.546 155.433, 108.789 160.032 C 108.948 163.039, 109.576 167.975, 110.185 171 C 110.793 174.025, 111.563 185.033, 111.895 195.461 L 112.500 214.422 115.973 215.131 C 117.883 215.520, 119.608 216.325, 119.806 216.919 C 120.847 220.040, 130.146 215.969, 132.181 211.502 C 133.777 207.998, 135.813 208.378, 136.187 212.250 C 136.571 216.240, 139.437 217.018, 143.108 214.129 C 146.112 211.767, 149.072 199.672, 147.124 197.724 C 146.388 196.988, 146 191.196, 146 180.940 C 146 158.581, 145.594 156.400, 140.873 153.420 C 138.603 151.987, 135.531 151, 133.340 151 C 130.223 151, 128.955 151.735, 125.298 155.662 M 64.321 199.696 C 63.123 199.930, 60.423 201.893, 58.321 204.059 C 54.229 208.278, 51.314 209.076, 50.324 206.250 C 48.875 202.120, 42 199.163, 42 202.671 C 42 203.590, 43.388 207.191, 45.084 210.673 C 47.373 215.370, 48.829 217.170, 50.728 217.647 C 54.243 218.529, 58.274 215.881, 59.271 212.036 C 60.111 208.791, 64.975 205.011, 68.317 205.004 C 70.452 204.999, 76.205 209.066, 80.635 213.712 C 85.422 218.733, 91 217.596, 91 211.601 C 91 209.274, 85.164 203.124, 80.885 200.941 C 77.267 199.096, 70.154 198.561, 64.321 199.696 M 6.011 208.487 C 4.623 210.159, 5.454 215.032, 7.329 216.225 C 7.973 216.634, 9.675 216.976, 11.110 216.985 C 12.546 216.993, 15.471 218.188, 17.610 219.641 C 22.504 222.963, 25.896 223.953, 28.759 222.893 C 32.020 221.687, 31.563 220.310, 26.250 215.340 C 18.080 207.698, 9.169 204.681, 6.011 208.487" stroke="none" fill="black" fill-rule="evenodd"/>
</svg>