<svg xmlns="http://www.w3.org/2000/svg" width="300" height="300" viewBox="0 0 300 300" version="1.1">
	<path d="M 141.655 47.829 C 140.745 48.835, 140 50.995, 140 52.629 C 140 54.263, 139.582 56.028, 139.070 56.550 C 138.559 57.073, 137.485 59.300, 136.685 61.500 C 135.885 63.700, 133.673 69.801, 131.770 75.058 C 129.866 80.315, 127.058 86.750, 125.530 89.359 C 123.327 93.118, 122.860 94.921, 123.280 98.051 C 123.581 100.292, 123.392 102, 122.843 102 C 120.397 102, 111.775 98.577, 111.335 97.432 C 111.065 96.727, 112.643 92.518, 114.842 88.078 C 117.041 83.639, 119.153 78.542, 119.535 76.753 C 119.918 74.964, 120.577 73.050, 121 72.500 C 121.423 71.950, 122.098 69.925, 122.500 68 C 122.902 66.075, 123.799 63.375, 124.494 62 C 127.678 55.696, 128.165 54.095, 127.518 52.058 C 127.138 50.859, 125.742 49.384, 124.417 48.780 C 122.459 47.888, 121.633 48.022, 120.004 49.496 C 118.902 50.494, 118 51.921, 118 52.669 C 118 53.416, 117.590 54.809, 117.089 55.764 C 116.587 56.719, 115.419 59.750, 114.493 62.500 C 113.567 65.250, 111.952 69.408, 110.905 71.739 C 109.857 74.071, 108.997 76.771, 108.994 77.739 C 108.990 78.708, 108.315 80.789, 107.494 82.364 C 106.672 83.940, 106 86.051, 106 87.055 C 106 88.060, 105.578 89.142, 105.063 89.461 C 104.548 89.779, 103.506 91.268, 102.747 92.770 C 101.989 94.271, 100.733 96.503, 99.956 97.729 C 98.710 99.697, 98.768 100.343, 100.447 103.229 C 102.662 107.037, 103.811 107.964, 106.342 107.985 C 107.356 107.993, 109.329 108.900, 110.727 110 C 112.126 111.100, 114.093 112, 115.100 112 C 116.106 112, 117.380 112.787, 117.931 113.750 C 120.512 118.258, 120.762 118.442, 122.424 117.063 C 123.291 116.344, 124 114.487, 124 112.937 C 124 111.386, 124.490 109.815, 125.090 109.444 C 125.758 109.031, 125.924 107.410, 125.519 105.251 C 124.955 102.245, 125.100 101.824, 126.511 102.366 C 127.420 102.715, 128.957 103, 129.926 103 C 130.896 103, 132.996 104.124, 134.594 105.499 C 136.193 106.873, 137.725 107.991, 138 107.983 C 139.432 107.943, 140.941 106.102, 142.388 102.628 C 144.837 96.747, 144.454 94.447, 140.500 91.293 C 138.575 89.757, 137 87.989, 137 87.365 C 137 85.018, 145.307 63.192, 148.616 56.846 C 150.521 53.192, 150.349 49.625, 148.171 47.655 C 145.794 45.504, 143.709 45.560, 141.655 47.829 M 163.223 50.557 C 162 51.413, 161 52.951, 161 53.974 C 161 54.997, 160.124 57.878, 159.053 60.377 C 157.982 62.875, 156.798 66.625, 156.423 68.709 C 156.047 70.794, 155.276 73.083, 154.709 73.796 C 154.142 74.509, 153.704 77.805, 153.735 81.121 C 153.826 90.723, 158.778 94.405, 168 91.727 C 171.461 90.722, 172.577 89.885, 172.834 88.102 C 173.256 85.170, 168.497 80, 165.376 80 C 163.342 80, 163.180 79.640, 163.693 76.250 C 164.005 74.188, 164.652 72.072, 165.130 71.550 C 165.609 71.027, 166 69.592, 166 68.359 C 166 67.126, 166.450 65.840, 167 65.500 C 167.550 65.160, 168 64.064, 168 63.063 C 168 62.063, 168.675 60.685, 169.500 60 C 171.742 58.140, 171.328 53.657, 168.686 51.174 C 165.925 48.581, 166.027 48.593, 163.223 50.557 M 69.615 55.118 C 66.901 58.954, 66.768 59.598, 67.370 66.067 C 67.745 70.105, 67.540 74.912, 66.872 77.720 C 64.491 87.741, 62.805 93.604, 61.471 96.500 C 60.711 98.150, 59.340 101.869, 58.424 104.765 C 57.509 107.661, 56.387 110.261, 55.932 110.542 C 55.477 110.823, 53.915 114.979, 52.461 119.777 C 51.008 124.574, 48.509 130.805, 46.909 133.622 C 45.309 136.439, 44 139.646, 44 140.749 C 44 141.852, 43.325 143.315, 42.500 144 C 41.675 144.685, 41 145.839, 41 146.565 C 41 147.292, 40.062 149.475, 38.916 151.418 C 37.770 153.360, 36.209 157.311, 35.448 160.198 C 34.245 164.756, 34.258 165.745, 35.544 167.708 C 38.329 171.958, 43.745 171.600, 48.289 166.864 C 52.832 162.130, 54.587 167.074, 51 174.500 C 48.355 179.976, 48.461 184.145, 51.314 186.826 C 52.587 188.022, 54.292 189, 55.103 189 C 57.293 189, 64.010 185.368, 65.442 183.411 C 66.340 182.182, 67.435 181.892, 69.355 182.374 C 73.425 183.396, 78 179.632, 78 175.262 C 78 166.205, 70.961 162.562, 66.867 169.500 C 64.639 173.277, 61 174.324, 61 171.188 C 61 170.191, 61.979 167.379, 63.176 164.938 C 65.948 159.285, 66.248 150.824, 63.764 148.338 C 61.773 146.345, 54.849 145.954, 54.233 147.800 C 53.767 149.198, 51 149.439, 51 148.081 C 51 147.576, 51.648 145.888, 52.441 144.331 C 54.469 140.348, 58 132.141, 58 131.412 C 58 131.077, 58.631 129.384, 59.402 127.651 C 60.173 125.918, 62.054 121.125, 63.582 117 C 65.111 112.875, 66.730 109.073, 67.181 108.550 C 67.631 108.028, 68 106.592, 68 105.359 C 68 104.126, 68.441 102.846, 68.979 102.513 C 70.899 101.327, 76.985 79.610, 78.531 68.430 L 80.103 57.059 77.864 54.029 C 74.882 49.997, 73.071 50.236, 69.615 55.118 M 160 118.552 C 159.175 118.729, 156.376 119.152, 153.780 119.493 C 148.576 120.177, 141.296 124.607, 134.219 131.394 C 129.820 135.612, 123.917 144.023, 122.982 147.405 C 122.692 148.453, 121.700 149.787, 120.777 150.369 C 119.393 151.242, 118.078 150.338, 113.278 145.214 C 108.586 140.206, 106.859 139, 104.383 139 C 97.280 139, 96.636 145.699, 103.305 150.210 C 110.089 154.799, 116.818 160.076, 117.413 161.273 C 119.727 165.935, 122.040 168.634, 124.445 169.484 C 126.965 170.373, 127.530 170.111, 130.365 166.735 C 132.121 164.644, 135.010 162.570, 136.934 162.018 C 143.797 160.051, 142.110 163.540, 133.159 169.824 C 126.681 174.372, 125.705 176.518, 128.829 179.345 C 131.251 181.538, 133.633 181.433, 136.727 179 C 138.126 177.900, 140.136 177, 141.195 177 C 142.801 177, 143.069 177.606, 142.810 180.649 C 142.640 182.656, 141.825 184.668, 141 185.120 C 140.175 185.573, 136.350 187.826, 132.500 190.127 C 128.650 192.429, 120.100 197.102, 113.500 200.512 C 106.900 203.923, 100.150 207.453, 98.500 208.357 C 96.850 209.261, 92.911 210.708, 89.747 211.573 C 86.452 212.472, 83.582 213.913, 83.030 214.944 C 81.756 217.325, 83.835 221.885, 86.512 222.577 C 88.656 223.131, 95.444 220.709, 96.491 219.015 C 96.836 218.457, 97.936 218, 98.937 218 C 99.937 218, 101.315 217.325, 102 216.500 C 102.685 215.675, 103.908 215, 104.718 215 C 105.528 215, 107.511 214.060, 109.124 212.911 C 110.738 211.763, 113.645 210.385, 115.586 209.849 C 117.526 209.313, 121.226 207.582, 123.807 206.002 C 132.526 200.665, 142.899 195, 143.953 195 C 145.599 195, 145.210 197.063, 142.250 204.037 C 138.883 211.971, 135.116 218.509, 129.091 226.877 C 114.679 246.894, 97.934 264.727, 89.306 269.246 C 83.678 272.193, 82.485 273.811, 83.361 277.301 C 83.869 279.327, 84.836 280.066, 87.671 280.598 C 89.682 280.975, 91.861 280.882, 92.514 280.392 C 93.167 279.901, 95.568 278.257, 97.850 276.737 C 100.133 275.218, 102 273.398, 102 272.693 C 102 271.988, 104.258 269.689, 107.018 267.584 C 109.778 265.479, 112.389 263.128, 112.819 262.360 C 113.249 261.591, 116.278 258.109, 119.550 254.622 C 125.790 247.972, 130.814 241.913, 132.500 239 C 133.050 238.051, 134.753 235.750, 136.285 233.887 C 137.817 232.024, 140.109 229.187, 141.378 227.583 C 142.981 225.555, 144.212 224.867, 145.412 225.328 C 146.940 225.914, 147.054 226.939, 146.405 234.245 C 146.002 238.785, 145.633 253.392, 145.586 266.705 L 145.500 290.910 142.500 291.205 C 139.129 291.536, 138.063 294.381, 139.972 297.948 C 140.927 299.732, 142.032 300, 148.426 300 L 155.782 300 155.282 285.750 C 154.197 254.777, 154.743 234.036, 156.663 233.299 C 157.411 233.012, 160.605 233.778, 163.762 235.002 C 179.054 240.930, 189.403 244.349, 199 246.644 C 202.575 247.499, 207.349 249.054, 209.610 250.099 C 211.870 251.145, 214.296 252, 215.002 252 C 216.852 252, 233.208 259.045, 235.079 260.647 C 238.794 263.831, 243.554 260.822, 242.813 255.759 C 242.502 253.636, 234.958 248.238, 232.080 248.079 C 231.299 248.035, 227.699 246.682, 224.080 245.072 C 217.884 242.314, 207.184 238.933, 193.500 235.409 C 190.200 234.560, 186.375 233.385, 185 232.798 C 177.572 229.631, 162.604 224.980, 159.872 224.990 C 158.427 224.996, 156.796 224.438, 156.248 223.750 C 154.604 221.688, 154.009 190.432, 155.571 188.201 C 157.469 185.493, 183.246 173, 186.938 173 C 190.381 173, 193.450 171.288, 195.836 168.033 C 198.066 164.993, 198.093 164.761, 196.431 162.924 C 193.941 160.172, 187.534 160.454, 182.500 163.537 C 180.300 164.884, 177.825 166.244, 177 166.559 C 166.050 170.735, 162.550 172.342, 160.752 174.016 C 159.581 175.107, 157.758 176, 156.702 176 C 155.086 176, 154.870 175.484, 155.343 172.750 C 156.846 164.058, 157.333 162.726, 159.185 162.241 C 163.151 161.204, 173.346 142.990, 174.397 135.062 C 175.169 129.242, 173.667 123, 171.494 123 C 170.751 123, 169.548 122.432, 168.821 121.738 C 167.626 120.597, 162.196 117.834, 161.703 118.116 C 161.591 118.180, 160.825 118.376, 160 118.552 M 152.792 131.363 C 147.450 133.025, 146.238 134.501, 148.324 136.805 C 149.246 137.824, 150 139.579, 150 140.706 C 150 141.833, 150.706 143.341, 151.569 144.057 C 152.789 145.070, 152.991 146.433, 152.475 150.180 C 151.889 154.443, 152.026 155, 153.663 155 C 155.451 155, 161 147.276, 161 144.788 C 161 144.166, 161.614 142.947, 162.365 142.079 C 163.115 141.210, 163.986 138.818, 164.300 136.761 C 164.770 133.685, 164.488 132.755, 162.713 131.511 C 160.232 129.774, 158.008 129.741, 152.792 131.363 M 132.208 145.288 C 129.894 147.646, 128 150.131, 128 150.809 C 128 151.488, 126.875 152.555, 125.500 153.182 C 122.691 154.462, 122.472 155.072, 124.200 156.800 C 126.202 158.802, 127.639 158.214, 133.692 152.919 C 138.547 148.671, 139.517 147.276, 139.606 144.419 C 139.753 139.671, 137.456 139.941, 132.208 145.288 M 55.384 205.443 C 54.461 207.846, 55.900 209, 59.819 209 C 62.872 209, 64.455 209.869, 68.864 213.966 C 74.990 219.657, 77.604 220.825, 79.645 218.784 C 82.158 216.270, 79.316 209.975, 74.500 207.390 C 69.291 204.594, 56.220 203.262, 55.384 205.443 M 28.200 206.200 C 25.521 208.879, 28.223 216, 31.919 216 C 32.912 216, 35.424 217.350, 37.500 219 C 42.062 222.625, 46.241 222.922, 48.443 219.777 C 50.546 216.776, 50.448 216.428, 47.117 215.048 C 45.531 214.392, 43.255 212.728, 42.058 211.352 C 40.022 209.011, 32.798 205.071, 30.450 205.022 C 29.872 205.010, 28.860 205.540, 28.200 206.200 M 0 225.500 C 0 227.975, 0.398 230, 0.885 230 C 1.372 230, 4.184 231.950, 7.135 234.333 C 14.243 240.074, 18.591 241.838, 20.624 239.805 C 22.651 237.777, 21.457 233.392, 18.282 231.207 C 16.918 230.268, 14.159 228.102, 12.151 226.394 C 7.623 222.543, 4.739 221, 2.066 221 C 0.284 221, 0 221.619, 0 225.500" stroke="none" fill="black" fill-rule="evenodd"/>
</svg>