<svg xmlns="http://www.w3.org/2000/svg" width="300" height="300" viewBox="0 0 300 300" version="1.1">
	<path d="M 143.751 3.288 C 139.087 7.284, 137.282 12.549, 139.671 15.189 C 141.869 17.618, 143.208 17.472, 146 14.500 C 147.292 13.125, 148.867 12, 149.500 12 C 150.133 12, 151.708 10.875, 153 9.500 C 156.094 6.207, 157.398 6.344, 160.401 10.281 C 163.628 14.512, 164.934 21.640, 166.119 41.500 C 167.547 65.416, 165.797 83.486, 162.119 82.790 C 161.229 82.621, 159.326 80.065, 157.892 77.110 C 156.457 74.156, 154.545 71.325, 153.642 70.819 C 151.355 69.540, 151.522 68.913, 155.554 63.633 C 158.653 59.575, 159.070 58.370, 158.804 54.239 C 158.527 49.927, 158.257 49.472, 155.807 49.189 C 153.643 48.939, 152.792 49.502, 151.472 52.053 C 149.279 56.295, 142.558 63.492, 138.379 66.075 C 135.501 67.854, 135 68.725, 135 71.959 C 135 76.964, 136.976 78.667, 140.900 77.041 C 142.496 76.380, 144.825 74.750, 146.076 73.420 C 149.022 70.283, 149.999 70.365, 150.006 73.750 C 150.018 79.736, 152.164 84.270, 157.335 89.233 C 162.080 93.788, 162.811 94.149, 166.328 93.680 C 172.559 92.849, 173.464 91.322, 174.873 79.270 C 175.565 73.346, 176.567 67.694, 177.099 66.709 C 177.632 65.724, 177.814 64.508, 177.504 64.007 C 177.194 63.505, 176.706 56.211, 176.418 47.798 C 176.131 39.384, 175.472 30.925, 174.954 29 C 174.435 27.075, 174.002 23.475, 173.991 21 C 173.971 16.585, 172.492 11.204, 169.247 3.750 L 167.615 0 157.558 0.038 C 147.703 0.074, 147.424 0.140, 143.751 3.288 M 101.500 5.891 C 92.055 9.327, 88.577 11.410, 87.590 14.220 C 86.834 16.374, 87.017 17.362, 88.473 18.970 C 90.829 21.573, 93.350 21.541, 96.976 18.859 C 98.617 17.646, 101.959 16.518, 104.687 16.256 C 108.736 15.867, 109.821 16.146, 111.501 18.009 C 113.402 20.116, 113.483 21.379, 113.160 43.862 C 112.973 56.863, 112.298 71.100, 111.660 75.500 L 110.500 83.500 105.509 84 C 99.246 84.627, 98.126 87.190, 103.191 89.306 C 112.989 93.400, 113.461 93.459, 116.799 90.990 C 118.510 89.726, 120.177 87.472, 120.504 85.982 C 121.102 83.261, 122.080 72.023, 122.005 68.750 C 121.860 62.476, 122.736 45.356, 123.553 38.500 C 123.881 35.750, 124.057 32.375, 123.944 31 C 123.832 29.625, 123.780 27.488, 123.828 26.250 C 123.877 25.012, 123.940 23.438, 123.968 22.750 C 124.085 19.928, 122.383 13.302, 120.797 10.398 C 117.258 3.921, 110.958 2.450, 101.500 5.891 M 146 29.180 C 141.096 30.581, 140 31.754, 140 35.599 C 140 39.855, 144.053 43.073, 147.052 41.199 C 148.521 40.282, 149.528 40.396, 151.878 41.744 C 154.691 43.359, 154.951 43.354, 156.832 41.652 C 157.924 40.664, 159.354 38.559, 160.010 36.975 C 161.046 34.476, 160.916 33.691, 159.034 31.047 C 157.257 28.552, 156.197 28.016, 153.182 28.090 C 151.157 28.140, 147.925 28.630, 146 29.180 M 86.753 42.728 C 81.822 43.244, 80.189 45.992, 82.710 49.531 C 83.695 50.913, 85.727 52.314, 87.228 52.643 C 88.728 52.972, 90.470 53.862, 91.100 54.621 C 94.098 58.233, 100 54.505, 100 49 C 100 47.595, 99.299 45.445, 98.443 44.223 C 96.856 41.956, 95.630 41.799, 86.753 42.728 M 90.519 61.750 C 85.558 67.611, 74.813 79.358, 69.756 84.448 C 62.640 91.610, 60.788 94.933, 61.193 99.810 C 61.454 102.952, 61.889 103.545, 64.122 103.804 C 67.044 104.143, 71.150 100.626, 76.779 92.964 C 78.583 90.509, 83.131 84.450, 86.885 79.500 C 97.435 65.591, 99.618 60, 94.500 60 C 93.125 60, 91.334 60.788, 90.519 61.750 M 133.950 103.897 C 130.923 106.923, 130.787 107.596, 130.659 120.208 L 130.590 126.916 125.045 129.337 C 117.303 132.717, 114 136.030, 114 140.417 C 114 147.154, 120.353 147.114, 129.683 140.319 C 131.434 139.043, 133.424 138, 134.105 138 C 134.785 138, 136.100 137.315, 137.026 136.477 C 137.951 135.639, 140.955 134.163, 143.700 133.196 C 146.444 132.229, 150.144 130.215, 151.922 128.719 C 153.699 127.224, 155.761 126, 156.504 126 C 158.113 126, 162 121.307, 162 119.365 C 162 117.189, 158.217 114, 155.635 114 C 154.334 114, 152.105 114.916, 150.682 116.036 C 149.258 117.155, 146.610 118.567, 144.797 119.174 C 142.984 119.780, 140.068 121.339, 138.317 122.638 C 136.566 123.937, 134.653 125, 134.067 125 C 132.126 125, 132.960 122.092, 135.250 120.873 C 139.419 118.654, 142.750 113.841, 143.413 109.078 C 143.958 105.166, 143.740 104.245, 141.914 102.750 C 138.941 100.314, 137.296 100.551, 133.950 103.897 M 91.540 117.740 C 89.879 119.531, 89 121.630, 89 123.802 C 89 127.512, 86.241 136.733, 84.880 137.574 C 84.396 137.873, 83.990 139.104, 83.978 140.309 C 83.966 141.514, 83.076 143.625, 82 145 C 80.924 146.375, 80.034 147.882, 80.022 148.348 C 79.995 149.404, 70.062 165.582, 64.845 173.069 C 58.362 182.372, 57.863 188, 63.519 188 C 65.735 188, 67.987 185.828, 74.375 177.529 C 75.956 175.474, 78.811 173.141, 80.720 172.344 C 88.314 169.171, 90.862 175.694, 89.002 193.545 C 88.483 198.520, 87.371 205.862, 86.529 209.860 C 84.280 220.553, 84.508 225.321, 87.431 228.694 C 89.811 231.440, 89.923 231.464, 92.681 229.821 C 94.232 228.898, 95.639 227.098, 95.808 225.821 C 95.977 224.545, 96.816 221.974, 97.672 220.109 C 98.978 217.263, 99.027 216.113, 97.983 212.947 C 97.234 210.679, 96.975 207.048, 97.333 203.838 C 99.798 181.735, 99.840 180.684, 98.516 173.737 C 96.835 164.916, 93.928 161.545, 88 161.545 C 84.146 161.545, 83.036 160.445, 84.876 158.450 C 85.358 157.927, 88.134 153, 91.045 147.500 C 93.956 142, 97.160 136.150, 98.165 134.500 C 99.170 132.850, 99.994 130.289, 99.996 128.809 C 99.998 127.329, 100.450 125.840, 101 125.500 C 102.520 124.561, 102.195 119.723, 100.443 117.223 C 98.326 114.199, 94.624 114.414, 91.540 117.740 M 134.913 142.605 C 134.181 143.487, 133.430 147.200, 133.245 150.855 C 133.060 154.510, 132.712 158.448, 132.471 159.606 C 131.935 162.188, 125.829 166.344, 118.592 169.052 C 111.936 171.542, 110.444 173.092, 111.966 175.936 C 112.573 177.071, 114.104 178.677, 115.366 179.504 C 117.444 180.866, 118.226 180.811, 123.581 178.933 C 133.038 175.617, 133.722 175.549, 134.457 177.864 C 135.305 180.537, 134.149 182.531, 128.639 187.897 C 124.237 192.185, 124.045 192.261, 120.921 190.967 C 117.823 189.684, 117.607 189.761, 114.359 193.306 C 110.089 197.964, 109.761 202.478, 113.565 204.211 C 117.131 205.836, 124.615 203.759, 127.246 200.415 C 128.492 198.830, 130.025 198.004, 131.365 198.196 C 133.300 198.472, 133.467 199.014, 133.146 204 C 132.444 214.917, 127.638 224.441, 121.147 227.783 C 119.141 228.815, 114.575 230.245, 111 230.960 C 103.086 232.543, 99.993 234.322, 100.022 237.273 C 100.049 239.927, 102.603 243.306, 105.837 244.965 C 108.633 246.399, 117.521 245.434, 120.473 243.376 C 121.557 242.619, 123.245 242, 124.223 242 C 125.200 242, 126 241.520, 126 240.933 C 126 240.339, 126.843 240.133, 127.898 240.468 C 128.942 240.799, 132.882 240.368, 136.652 239.511 C 140.423 238.653, 147.331 237.531, 152.004 237.018 C 156.677 236.504, 163.650 235.584, 167.500 234.974 C 172.016 234.259, 179.822 234.121, 189.500 234.587 C 197.750 234.984, 206.750 235.418, 209.500 235.551 C 218.865 236.005, 228.019 237.848, 231.454 239.972 C 234.378 241.779, 235.185 241.901, 236.941 240.805 C 238.074 240.097, 239 239.100, 239 238.588 C 239 238.076, 239.677 236.909, 240.506 235.994 C 241.678 234.698, 241.786 233.683, 240.990 231.403 C 239.557 227.291, 235.122 225.639, 225 225.446 C 220.325 225.358, 206.600 224.955, 194.500 224.552 C 179.896 224.066, 168.298 224.211, 160 224.984 C 135.631 227.254, 136 227.239, 136 225.997 C 136 225.347, 136.900 223.671, 138 222.273 C 139.100 220.874, 140 218.756, 140 217.565 C 140 216.374, 140.485 214.915, 141.078 214.322 C 141.672 213.728, 142.793 208.402, 143.570 202.484 C 145.031 191.360, 145.491 190.203, 150.124 186 C 151.899 184.390, 152.990 182.274, 153.190 180.057 C 153.477 176.870, 153.251 176.561, 150.157 175.914 C 148.319 175.529, 146.358 174.758, 145.799 174.199 C 144.379 172.779, 146.544 166.372, 149.923 162 C 154.100 156.595, 154.275 156.078, 152.989 152.973 C 151.638 149.711, 149.344 148.625, 145.725 149.533 C 143.586 150.070, 143.198 149.742, 142.634 146.919 C 141.489 141.193, 137.797 139.130, 134.913 142.605" stroke="none" fill="black" fill-rule="evenodd"/>
</svg>