<svg xmlns="http://www.w3.org/2000/svg" width="300" height="300" viewBox="0 0 300 300" version="1.1">
	<path d="M 76.353 36.257 C 73.026 41.282, 71.533 44.771, 68.548 54.500 C 67.030 59.450, 65.413 64.400, 64.956 65.500 C 64.498 66.600, 62.951 71.100, 61.517 75.500 C 60.083 79.900, 58.529 84.400, 58.063 85.500 C 53.838 95.469, 52 100.368, 52 101.665 C 52 102.508, 51.349 104.616, 50.553 106.349 C 48.899 109.949, 43.842 124.395, 40.874 134 C 39.769 137.575, 38.393 141.625, 37.817 143 C 37.241 144.375, 35.886 148.200, 34.807 151.500 C 32.926 157.250, 29.185 165.596, 22.702 178.500 C 17.171 189.508, 9.916 201.695, 4.787 208.591 C 2.704 211.391, 1 214.653, 1 215.841 C 1 218.315, 4.283 222, 6.487 222 C 7.972 222, 11.215 217.485, 15.136 209.963 C 16.275 207.778, 17.617 205.736, 18.119 205.427 C 18.620 205.117, 19.689 203.432, 20.495 201.682 C 22.148 198.092, 23.176 196.407, 27.624 190 C 30.921 185.252, 36 175.068, 36 173.206 C 36 172.601, 37.125 169.990, 38.500 167.404 C 39.875 164.818, 41.005 161.757, 41.012 160.601 C 41.019 159.445, 42.144 156.542, 43.512 154.148 C 44.880 151.754, 46.003 149.054, 46.007 148.148 C 46.010 147.242, 46.907 145.150, 48 143.500 C 49.093 141.850, 49.990 139.514, 49.993 138.309 C 49.997 137.104, 50.450 135.840, 51 135.500 C 51.550 135.160, 51.999 133.671, 51.997 132.191 C 51.996 130.711, 53.074 126.800, 54.393 123.500 C 55.713 120.200, 57.360 115.475, 58.054 113 C 58.748 110.525, 59.841 107.600, 60.483 106.500 C 61.126 105.400, 62.216 102.250, 62.907 99.500 C 64.057 94.924, 68.563 84.272, 76.089 68.336 C 77.690 64.945, 79 60.584, 79 58.645 C 79 56.705, 79.450 54.840, 80 54.500 C 80.550 54.160, 81 51.953, 81 49.596 C 81 46.500, 81.587 44.781, 83.115 43.405 C 86.474 40.379, 87.354 37.049, 85.373 34.860 C 82.698 31.904, 78.839 32.502, 76.353 36.257 M 180.500 54.049 C 178.300 55.121, 173.463 58.894, 169.750 62.434 C 162.193 69.638, 161.018 73.140, 165.475 75.171 C 168.148 76.388, 169.997 75.396, 179.896 67.432 C 185.810 62.674, 188.665 63.030, 191.909 68.927 C 196.345 76.990, 199.222 91.494, 200.542 112.455 C 200.783 116.281, 201.498 120.980, 202.131 122.897 C 203.904 128.270, 203.858 190.642, 202.070 204.307 C 200.982 212.626, 200.252 215.330, 198.901 216.053 C 196.387 217.399, 194 216.162, 194 213.515 C 194 212.267, 193.325 210.685, 192.500 210 C 191.675 209.315, 191 207.685, 191 206.378 C 191 205.070, 190.590 204, 190.089 204 C 189.588 204, 188.198 201.975, 187 199.500 C 185.802 197.025, 184.246 195, 183.542 195 C 181.079 195, 180.714 208.087, 183.135 209.583 C 183.611 209.877, 184 211.250, 184 212.633 C 184 216.317, 194.222 226.763, 198.637 227.592 C 205.638 228.905, 209.114 223.864, 210.891 209.822 C 211.471 205.245, 212.387 198.350, 212.927 194.500 C 213.467 190.650, 213.683 180.975, 213.407 173 C 213.132 165.025, 212.760 152.650, 212.582 145.500 C 212.263 132.733, 211.208 120.349, 208.408 96.500 C 205.966 75.706, 204.685 70.244, 200.201 61.500 C 195.419 52.178, 189.181 49.818, 180.500 54.049 M 124.740 71.540 C 122.977 73.175, 122 75.107, 122 76.957 C 122 80.350, 123.423 81.064, 127.433 79.685 C 130.075 78.777, 130.626 78.987, 132.978 81.805 C 137.029 86.657, 138.294 96.224, 137.708 117.563 C 137.437 127.429, 136.682 140.450, 136.030 146.500 C 134.928 156.713, 134.612 163.465, 134.170 186.250 C 134.014 194.257, 133.831 195, 132.013 195 C 130.702 195, 129.547 193.852, 128.615 191.622 C 127.839 189.764, 126.708 187.938, 126.102 187.563 C 125.496 187.188, 125 186.039, 125 185.008 C 125 182.914, 121.314 181.286, 119.862 182.738 C 119.346 183.254, 119.228 185.574, 119.599 187.895 C 120.691 194.724, 132.208 211, 135.949 211 C 138.341 211, 141.253 207.554, 141.659 204.243 C 141.844 202.734, 142.423 198.350, 142.946 194.500 C 143.469 190.650, 143.920 179.152, 143.949 168.950 C 143.977 158.747, 144.415 149.972, 144.922 149.450 C 145.955 148.386, 146.583 140.546, 147.402 118.500 C 147.949 103.758, 146.711 87.466, 144.899 85.550 C 144.404 85.027, 144 83.650, 144 82.488 C 144 78.356, 140.301 72.514, 136.552 70.726 C 131.499 68.316, 127.953 68.561, 124.740 71.540 M 75.259 85.705 C 70.774 86.570, 68.050 94.338, 71.750 95.714 C 72.713 96.072, 75.639 98.154, 78.253 100.341 C 82.441 103.846, 83.293 104.188, 85.417 103.220 C 87.499 102.271, 87.788 101.535, 87.543 97.811 C 87.386 95.440, 87.200 93.178, 87.129 92.785 C 87.058 92.391, 85.603 90.479, 83.896 88.535 C 80.880 85.100, 79.960 84.798, 75.259 85.705 M 163.200 115.200 C 161.597 116.803, 161.687 119.169, 163.484 122.631 C 164.685 124.948, 166.252 125.848, 171.734 127.373 C 175.455 128.409, 180.300 129.311, 182.500 129.378 C 186.438 129.498, 186.505 129.441, 186.815 125.680 C 187.208 120.901, 185.933 119.333, 180.972 118.495 C 178.820 118.132, 175.962 116.971, 174.622 115.917 C 171.867 113.750, 165.076 113.324, 163.200 115.200 M 193.200 123.200 C 192.540 123.860, 192 125.209, 192 126.197 C 192 130.110, 180.215 153.594, 174.456 161.155 C 172.088 164.265, 169.470 168.124, 168.640 169.730 C 167.809 171.336, 165.188 174.297, 162.815 176.310 C 154.471 183.387, 154.046 183.963, 154.674 187.358 C 155.664 192.716, 157.253 193.640, 161.886 191.551 C 164.070 190.566, 167.167 188.127, 168.766 186.130 C 172.826 181.063, 177 174.284, 177 172.759 C 177 172.055, 179.025 168.460, 181.500 164.771 C 183.975 161.081, 186 157.814, 186 157.510 C 186 157.206, 187.114 155.273, 188.476 153.215 C 191.022 149.369, 194.817 139.179, 196.861 130.701 C 198.431 124.193, 196.389 120.011, 193.200 123.200 M 109.701 125.604 C 107.612 126.972, 105.676 128.680, 105.400 129.401 C 104.661 131.326, 108.742 137.699, 111.110 138.318 C 112.231 138.612, 113.399 139.809, 113.705 140.980 C 114.474 143.921, 118.722 143.305, 120.455 140 C 124.788 131.734, 124.843 128.361, 120.698 124.901 C 117.715 122.411, 114.239 122.634, 109.701 125.604 M 63.786 129.728 C 61.695 131.954, 61.683 132.112, 63.361 135.631 L 65.085 139.246 70.235 138.563 C 76.794 137.693, 77 137.541, 77 133.563 C 77 129.450, 75.677 128.333, 70.217 127.833 C 66.742 127.515, 65.529 127.872, 63.786 129.728 M 119.657 146.960 C 117.642 149.138, 112.395 156.304, 107.997 162.883 C 100.730 173.755, 100 175.291, 100 179.723 C 100 185.049, 101.227 187, 104.578 187 C 107.294 187, 108.562 185.468, 109.510 181.040 C 110.176 177.931, 112.199 173.148, 115.237 167.500 C 115.828 166.400, 116.624 164.825, 117.005 164 C 117.386 163.175, 118.459 161.150, 119.390 159.500 C 120.907 156.812, 121.709 155.151, 125.257 147.345 C 126.221 145.224, 125.630 143, 124.102 143 C 123.672 143, 121.672 144.782, 119.657 146.960 M 56.813 155.250 C 55.949 155.938, 54.990 158.195, 54.682 160.266 C 54.201 163.489, 54.474 164.265, 56.573 165.640 C 58.018 166.587, 61.588 167.345, 65.263 167.486 C 70.649 167.692, 71.541 167.999, 71.803 169.736 C 72.129 171.897, 66.383 177.143, 61.771 178.897 C 58.866 180.001, 57.305 184.458, 59.076 186.591 C 59.714 187.361, 62.096 188.506, 64.369 189.136 C 73.539 191.677, 77.394 193.165, 79.886 195.125 C 81.324 196.256, 83.850 197.807, 85.500 198.571 C 87.150 199.335, 89.226 200.490, 90.114 201.139 C 92.023 202.533, 94.797 201.692, 95.654 199.459 C 96.827 196.401, 93.949 192.900, 86.258 188.026 C 75.054 180.927, 75.332 181.310, 78.730 177.633 C 82.316 173.753, 84 169.908, 84 165.595 C 84 162.626, 83.473 162.011, 78.908 159.642 C 75.510 157.879, 72.246 157, 69.099 157 C 66.500 157, 63.511 156.341, 62.441 155.532 C 60.035 153.712, 58.821 153.651, 56.813 155.250" stroke="none" fill="black" fill-rule="evenodd"/>
</svg>