<svg xmlns="http://www.w3.org/2000/svg" width="300" height="300" viewBox="0 0 300 300" version="1.1">
	<path d="M 127.549 21.921 C 127.236 22.428, 124.922 23.628, 122.408 24.588 C 118.071 26.245, 117.686 26.246, 114.906 24.604 C 110.329 21.900, 108 23.217, 108 28.511 C 108 33.122, 110.391 36, 114.223 36 C 117.036 36, 116.325 39.055, 112.245 44.500 C 110.185 47.250, 107.448 51.750, 106.164 54.500 C 104.880 57.250, 103.192 60.774, 102.414 62.331 C 99.898 67.367, 101.149 72.367, 105.315 73.934 C 108.935 75.296, 117.946 70.837, 124.786 64.299 C 125.494 63.623, 127.379 62.298, 128.976 61.355 C 130.572 60.412, 132.671 58.169, 133.640 56.370 C 135.331 53.230, 135.327 53.019, 133.545 51.050 C 130.844 48.065, 128.801 48.491, 122.992 53.250 C 120.139 55.587, 116.722 58.376, 115.400 59.447 C 113.559 60.938, 112.719 61.119, 111.821 60.221 C 110.923 59.323, 111.041 58.613, 112.324 57.195 C 113.246 56.176, 114 55, 114 54.581 C 114 53.698, 117.356 49.879, 124.750 42.348 C 127.867 39.173, 130 36.108, 130 34.804 C 130 33.596, 131.222 30.844, 132.716 28.688 L 135.432 24.769 133.105 22.884 C 130.578 20.838, 128.447 20.468, 127.549 21.921 M 121.331 74.250 C 118.651 77.916, 117.766 81.211, 118.212 85.860 C 118.653 90.442, 118.460 91.023, 115.857 92.948 C 113.882 94.408, 112.248 94.849, 110.471 94.403 C 106.591 93.430, 104 96.319, 104 101.620 C 104 104.992, 104.463 106.177, 106.127 107.068 C 107.928 108.032, 108.942 107.721, 112.744 105.041 C 118.993 100.636, 120.296 101.428, 119.673 109.251 C 118.866 119.408, 118.083 121.419, 112.411 127.924 C 106.724 134.444, 105.047 138.259, 106.705 140.905 C 108.672 144.044, 111.914 143.354, 116.838 138.749 C 119.429 136.325, 122.888 133.499, 124.525 132.469 C 135.545 125.533, 137.154 122.349, 132.458 116.767 C 130.206 114.091, 130.002 113.218, 130.674 109.123 C 131.091 106.580, 131.359 102.087, 131.269 99.138 C 131.147 95.137, 131.620 93.080, 133.133 91.033 C 134.373 89.357, 135.032 87.167, 134.830 85.400 C 134.564 83.071, 133.917 82.410, 131.500 82 C 129.053 81.584, 128.438 80.938, 128.162 78.495 C 127.750 74.858, 126.343 73, 124 73 C 123.035 73, 121.834 73.563, 121.331 74.250 M 145 141.943 C 140.875 144.084, 134.575 148.348, 131 151.419 C 123.057 158.243, 121.500 158.252, 121.500 151.475 C 121.500 148.739, 121.136 145.938, 120.691 145.250 C 119.485 143.386, 116.547 143.738, 114.508 145.992 C 112.974 147.687, 112.799 149.091, 113.334 155.417 L 113.962 162.851 105.731 170.067 C 101.204 174.036, 97.129 178.041, 96.675 178.968 C 96.221 179.895, 94.421 181.176, 92.675 181.815 C 90.929 182.455, 88.150 184.220, 86.500 185.739 C 79.917 191.798, 67.962 199.614, 58 204.372 C 48.647 208.839, 46.821 209.373, 41.281 209.258 C 32.797 209.081, 30.168 211.073, 31.552 216.626 L 32.517 220.500 39.009 220.358 C 46.197 220.202, 59.566 216.574, 60.334 214.571 C 60.762 213.456, 65.289 210.476, 74.874 205 C 76.318 204.175, 77.725 203.275, 78 203 C 78.275 202.725, 82.091 199.800, 86.480 196.500 C 90.869 193.200, 98.019 187.238, 102.368 183.250 C 106.717 179.262, 110.888 176, 111.638 176 C 113.629 176, 113.860 185.442, 111.919 187.450 C 111.413 187.972, 111 189.349, 111 190.509 C 111 191.669, 110.339 193.491, 109.532 194.559 C 108.724 195.626, 108.040 197.175, 108.011 198 C 107.913 200.841, 100.489 213.875, 95.093 220.681 C 87.923 229.725, 78.584 237.745, 70.485 241.816 C 66.855 243.641, 63.630 245.801, 63.317 246.617 C 63.003 247.434, 63.739 249.158, 64.952 250.449 C 66.908 252.531, 67.566 252.683, 70.787 251.793 C 83.177 248.372, 106.530 223.194, 115.375 203.720 C 116.819 200.542, 118 197.461, 118 196.875 C 118 196.288, 118.916 194.522, 120.036 192.949 C 122.713 189.190, 125.947 176.851, 125.976 170.282 C 126 165.134, 126.073 165.009, 131.418 161.060 C 136.790 157.092, 138.748 155.897, 150.665 149.315 C 157.924 145.306, 159.266 143.906, 158.827 140.805 C 158.297 137.068, 153.657 137.450, 145 141.943 M 126.418 213.090 C 124.561 215.142, 124.563 215.207, 126.482 216.611 C 127.558 217.397, 130.252 218.504, 132.469 219.071 C 142.923 221.741, 159.669 228.135, 164.965 231.478 C 167.163 232.865, 169.254 234, 169.612 234 C 170.936 234, 197.667 247.259, 202.500 250.313 C 205.250 252.051, 209.750 255.164, 212.500 257.232 C 218.116 261.455, 219.951 261.816, 222.345 259.171 C 224.822 256.434, 224.355 254.105, 220.948 252.203 C 219.269 251.267, 214.025 247.701, 209.296 244.279 C 204.457 240.779, 197.592 236.895, 193.598 235.397 C 189.694 233.933, 178.850 229.001, 169.500 224.438 C 145.544 212.747, 140.941 211, 134.089 211 C 129.497 211, 127.922 211.429, 126.418 213.090" stroke="none" fill="black" fill-rule="evenodd"/>
</svg>