<svg xmlns="http://www.w3.org/2000/svg" width="300" height="300" viewBox="0 0 300 300" version="1.1">
	<path d="M 75.077 2.081 C 68.760 5.470, 68.725 5.573, 68.345 21.689 C 68.010 35.939, 64.689 71.280, 63.100 77.515 C 62.677 79.173, 62.765 84.049, 63.294 88.351 C 64.223 95.907, 64.391 96.271, 68.246 99.063 C 70.440 100.653, 73.645 102.207, 75.368 102.517 C 78.190 103.025, 80.189 102.746, 90.500 100.404 C 92.150 100.029, 96.348 97.310, 99.830 94.361 C 103.311 91.413, 107.056 89, 108.152 89 C 109.667 89, 116.308 92.171, 119.800 94.561 C 119.965 94.674, 118.713 96.282, 117.018 98.133 C 113.471 102.007, 113.364 105.339, 116.772 105.822 C 119.631 106.228, 132 97.609, 132 95.210 C 132 94.281, 133.136 92.392, 134.524 91.011 C 135.913 89.630, 138.050 87.081, 139.274 85.347 C 145.523 76.495, 147.647 74.073, 149.187 74.038 C 150.774 74.002, 162.111 81.164, 166.500 84.974 C 167.600 85.929, 172.325 89.330, 177 92.532 C 187.959 100.037, 192.680 104.064, 195.663 108.454 C 196.988 110.405, 198.456 112, 198.925 112 C 201.080 112, 203.844 108.128, 204.392 104.342 C 205.050 99.797, 204.997 99.741, 190.120 89.238 C 187.579 87.445, 183.925 84.839, 182 83.449 C 180.075 82.059, 173.822 77.677, 168.105 73.711 C 162.388 69.745, 157.237 65.747, 156.659 64.827 C 155.869 63.571, 156.128 62.073, 157.696 58.827 C 160.349 53.332, 162.654 46.729, 163.896 41.072 C 165.454 33.971, 161.610 28.095, 155.366 28.032 C 152.913 28.007, 151.419 28.923, 148.488 32.250 C 146.429 34.587, 141.764 39.082, 138.122 42.237 C 132.332 47.253, 130.970 47.975, 127.285 47.987 C 122.877 48.001, 121 49.725, 121 53.760 C 121 56.860, 125.455 60.354, 128.449 59.602 C 131.075 58.943, 134.320 60.441, 138.750 64.359 C 141.772 67.031, 141.591 68.585, 137.750 72.956 C 135.963 74.990, 132.700 79.204, 130.500 82.321 C 126.230 88.372, 123.536 89.465, 122.051 85.750 C 121.557 84.513, 119.295 81.785, 117.024 79.689 C 113.879 76.785, 111.659 75.677, 107.698 75.032 C 99.483 73.694, 96.931 72.195, 97.597 69.098 C 97.904 67.669, 98.550 65.600, 99.033 64.500 C 99.516 63.400, 100.575 60.831, 101.387 58.792 C 102.396 56.257, 103.913 54.631, 106.181 53.653 C 108.007 52.866, 111.865 49.754, 114.755 46.738 C 119.123 42.179, 119.771 41.055, 118.594 40.078 C 116.227 38.114, 110.523 37.620, 108.903 39.239 C 106.677 41.466, 103.067 43.159, 101.979 42.487 C 99.769 41.121, 101.304 37.870, 106.500 32.911 C 110.399 29.190, 111.998 26.910, 111.994 25.081 C 111.985 20.760, 110.056 15.236, 108.325 14.571 C 106.541 13.886, 102 17.495, 102 19.598 C 102 21.129, 97.171 27, 95.911 27 C 95.410 27, 95 25.284, 95 23.187 C 95 18.140, 90.467 13.415, 86.565 14.394 C 84.029 15.031, 84 15.148, 84 24.894 C 84 37.882, 84.642 40.872, 87.592 41.612 C 92.622 42.875, 90.873 50.296, 85.237 51.603 C 83.732 51.952, 81.439 52.901, 80.143 53.712 C 78.847 54.523, 77.410 54.807, 76.949 54.343 C 76.489 53.879, 76.464 47.200, 76.895 39.500 C 77.326 31.800, 77.491 23.700, 77.263 21.500 C 76.539 14.528, 77.854 12.862, 87.045 9.104 C 93.912 6.297, 100.804 2.529, 102.891 0.443 C 103.134 0.199, 97.746 0.055, 90.917 0.123 C 80.945 0.221, 77.826 0.607, 75.077 2.081 M 123.985 5.750 C 123.976 8.912, 123.558 12.151, 123.054 12.946 C 122.507 13.812, 122.503 15.071, 123.044 16.083 C 123.624 17.167, 123.413 19.834, 122.455 23.511 C 120.690 30.289, 121.518 32, 126.563 32 C 130.191 32, 131.385 30.821, 131.629 27 C 131.716 25.625, 132.276 21.575, 132.874 18 C 133.471 14.425, 133.969 8.912, 133.980 5.750 L 134 0 129 0 L 124 0 123.985 5.750 M 144.607 1.582 C 142.494 7.087, 146.207 15, 150.902 15 C 153.312 15, 161.553 9.607, 162.361 7.500 C 162.679 6.674, 164.507 5.249, 166.425 4.334 C 168.343 3.420, 170.143 2.070, 170.425 1.336 C 170.836 0.264, 168.394 0, 158.076 0 C 147.270 0, 145.117 0.253, 144.607 1.582 M 145.616 49.003 C 141.406 53.663, 141.321 54.076, 144.059 56.553 C 146.729 58.970, 149.090 57.595, 150.298 52.918 C 150.783 51.038, 151.628 48.957, 152.176 48.294 C 153.354 46.868, 152.435 45, 150.557 45 C 149.829 45, 147.605 46.801, 145.616 49.003 M 85.154 62.314 C 84.554 63.037, 81.799 64.689, 79.032 65.985 C 74.884 67.928, 73.825 68.971, 73.005 71.921 C 71.887 75.946, 71.728 81.384, 72.630 84.750 C 73.292 87.219, 76.134 87.749, 77.820 85.717 C 80.097 82.974, 89 64.875, 89 62.991 C 89 60.732, 86.790 60.343, 85.154 62.314 M 91.378 79.750 C 91.070 80.713, 90.329 82.522, 89.730 83.770 C 88.914 85.470, 88.954 86.350, 89.887 87.270 C 90.877 88.246, 91.742 87.822, 94.084 85.216 C 96.498 82.528, 96.842 81.574, 95.982 79.966 C 94.677 77.528, 92.126 77.409, 91.378 79.750 M 163.329 113.960 C 160.466 114.642, 152.665 119.675, 144.986 125.794 C 141.178 128.828, 140.358 131.633, 142.565 134.072 C 143.525 135.132, 144.758 136, 145.305 136 C 147.052 136, 157.397 130.704, 160.327 128.310 C 163.930 125.365, 168.062 125.341, 170.664 128.250 C 176.258 134.504, 178.261 141.544, 178.191 154.711 C 178.161 160.550, 177.947 161.107, 174.627 164.022 C 172.685 165.728, 170.789 168.108, 170.414 169.312 C 169.771 171.377, 165.654 177.146, 161.759 181.439 C 160.792 182.505, 160 183.766, 160 184.242 C 160 185.801, 149.208 198.391, 143.493 203.500 C 140.417 206.250, 135.335 209.862, 132.200 211.526 C 126.995 214.289, 126.500 214.844, 126.500 217.918 C 126.500 220.388, 127.200 221.807, 129.127 223.246 C 131.695 225.163, 131.819 225.165, 134.627 223.354 C 136.207 222.334, 138.174 220.961, 139 220.302 C 149.921 211.586, 152.556 209.370, 152.871 208.637 C 153.270 207.708, 156.552 203.857, 161.750 198.219 C 163.537 196.280, 165 194.157, 165 193.502 C 165 192.846, 165.900 191.495, 167 190.500 C 168.100 189.505, 169 187.817, 169 186.749 C 169 185.682, 169.870 183.587, 170.934 182.093 C 171.997 180.600, 173.163 178.201, 173.524 176.761 C 174.119 174.389, 176.663 172.329, 177.707 173.374 C 178.856 174.523, 177.011 193.555, 175.516 195.975 C 175.071 196.695, 174.307 200.707, 173.819 204.892 C 173.331 209.076, 172.798 213.625, 172.634 215 C 172.470 216.375, 171.777 221.100, 171.096 225.500 C 170.414 229.900, 169.304 237.550, 168.629 242.500 C 167.465 251.039, 167.271 251.516, 164.839 251.803 C 162.816 252.042, 161.437 251.093, 158.301 247.303 C 156.115 244.661, 153.578 241.037, 152.663 239.250 C 147.219 228.612, 146.775 228.112, 144.463 230.031 C 142.867 231.355, 143.418 238.418, 145.303 240.803 C 145.869 241.520, 147.300 244.113, 148.482 246.566 C 149.665 249.019, 153.302 254.019, 156.566 257.678 C 159.830 261.337, 163.088 265.157, 163.807 266.166 C 165.532 268.588, 171.155 268.591, 173.345 266.171 C 174.255 265.165, 175 262.909, 175 261.158 C 175 259.406, 175.439 257.191, 175.976 256.236 C 177.060 254.310, 180.255 234.947, 182.038 219.500 C 182.673 214, 183.371 209.211, 183.589 208.858 C 183.806 208.505, 184.940 201.980, 186.108 194.358 C 188.345 179.755, 189.666 147.543, 188.107 145.584 C 187.633 144.988, 187.047 142.001, 186.806 138.946 C 186.235 131.701, 183.297 125.833, 176.697 118.750 C 171.122 112.766, 170.012 112.368, 163.329 113.960 M 84.662 127.750 C 81.011 130.363, 77.785 133.215, 77.495 134.090 C 77.204 134.964, 75.873 136.265, 74.536 136.980 C 73.200 137.696, 71.870 138.897, 71.581 139.649 C 70.875 141.489, 72.638 145.924, 74.334 146.575 C 75.084 146.863, 79.323 144.601, 83.754 141.549 C 92.690 135.393, 95.843 134.752, 99.447 138.356 C 102.611 141.520, 103.388 150.318, 102.705 175.238 C 102.178 194.451, 100.181 211.751, 97.330 221.808 C 96.077 226.226, 95.479 227.064, 93.764 226.808 C 92.631 226.639, 91.208 225.625, 90.602 224.555 C 89.996 223.485, 88.712 221.712, 87.750 220.616 C 86.787 219.520, 86 218.117, 86 217.499 C 86 216.880, 84.647 215.078, 82.993 213.494 C 78.666 209.347, 77.187 211.095, 78.744 218.516 C 80.063 224.805, 85.536 232.104, 92.277 236.565 C 97.225 239.839, 100.388 239.160, 103.006 234.261 C 103.958 232.480, 105.294 230.351, 105.975 229.530 C 106.657 228.709, 107.839 222.363, 108.604 215.429 C 109.368 208.494, 110.332 202.298, 110.747 201.660 C 113.573 197.309, 113.913 141.513, 111.131 138.731 C 110.509 138.109, 110 136.564, 110 135.297 C 110 133.903, 108.099 131.021, 105.184 127.997 C 100.796 123.444, 99.965 123, 95.834 123 C 92.025 123, 90.241 123.758, 84.662 127.750 M 144.002 160.751 C 141.528 160.965, 138.715 161.853, 137.752 162.725 C 135.749 164.538, 135.416 170.016, 137.200 171.800 C 138.689 173.289, 144.646 173.381, 145.544 171.929 C 146.295 170.714, 153.777 171.643, 155.695 173.190 C 156.352 173.720, 157.927 174.006, 159.195 173.827 C 162.955 173.294, 162.925 167.771, 159.141 163.987 C 157.421 162.267, 155.095 161, 153.659 161 C 152.286 161, 150.564 160.857, 149.832 160.682 C 149.099 160.506, 146.476 160.538, 144.002 160.751 M 77 165.752 C 74.103 167.199, 73.448 168.120, 73.199 171.095 C 72.913 174.504, 73.121 174.775, 77.232 176.345 C 82.884 178.503, 83.296 178.463, 86.923 175.411 C 90.506 172.397, 90.855 169.295, 87.961 166.189 C 85.499 163.545, 81.718 163.395, 77 165.752 M 90.307 175.632 C 89.650 175.905, 86.500 179.587, 83.307 183.814 C 80.113 188.042, 76.979 191.836, 76.343 192.248 C 75.707 192.659, 72.830 196.034, 69.949 199.748 C 64.410 206.889, 51.308 219.965, 44.336 225.308 C 39.116 229.309, 38.001 233.307, 41.164 236.675 C 42.366 237.954, 44.142 239, 45.112 239 C 46.082 239, 49.491 235.994, 52.688 232.319 C 55.885 228.645, 59.653 224.483, 61.061 223.069 C 62.470 221.656, 63.904 219.751, 64.247 218.835 C 64.591 217.920, 66.097 216.570, 67.594 215.835 C 69.091 215.101, 70.807 213.601, 71.408 212.503 C 72.008 211.405, 73.737 209.027, 75.250 207.218 C 76.763 205.410, 78.007 203.384, 78.017 202.715 C 78.026 202.047, 80.066 199.537, 82.550 197.137 C 85.035 194.738, 87.715 191.363, 88.506 189.637 C 89.297 187.912, 90.872 185.361, 92.004 183.969 C 95.832 179.264, 94.718 173.795, 90.307 175.632" stroke="none" fill="black" fill-rule="evenodd"/>
</svg>