<svg xmlns="http://www.w3.org/2000/svg" width="300" height="300" viewBox="0 0 300 300" version="1.1">
	<path d="M 106.874 30.459 C 106.622 30.712, 106.744 34.199, 107.146 38.209 C 108.248 49.211, 108.134 69.024, 106.894 81.717 C 106.033 90.537, 106.060 93.368, 107.017 94.520 C 107.692 95.334, 108.608 96, 109.051 96 C 110.737 96, 112.989 92.754, 114.058 88.785 C 114.876 85.748, 117.454 82.265, 123.834 75.580 C 128.600 70.586, 133.028 66.361, 133.673 66.191 C 135.257 65.775, 137.526 62.138, 138.390 58.632 C 139.325 54.842, 136.800 52, 132.500 52 C 129.465 52, 126 54.470, 126 56.633 C 126 58.006, 119.656 64, 118.202 64 C 116.794 64, 116.580 59.834, 117.918 58.450 C 119.348 56.970, 117.141 39.093, 114.930 34.250 C 113.313 30.709, 112.518 30, 110.162 30 C 108.606 30, 107.127 30.207, 106.874 30.459 M 82.250 77.662 C 79.338 78.837, 81.063 85.014, 88.665 100.635 C 89.504 102.359, 90.036 104.543, 89.845 105.488 C 89.398 107.716, 83.409 109.933, 68.500 113.390 C 53.555 116.854, 51.411 117.662, 48.993 120.736 C 47.191 123.026, 47.164 123.416, 48.605 126.203 C 49.794 128.502, 50.664 129.084, 52.328 128.694 C 59.526 127.005, 73.461 122.818, 75.776 121.647 C 77.274 120.889, 79.934 120.240, 81.687 120.203 C 83.441 120.167, 85.721 119.684, 86.756 119.131 C 87.791 118.577, 91.306 117.452, 94.569 116.632 C 97.831 115.811, 104.325 113.771, 109 112.098 C 113.675 110.425, 118.711 109.043, 120.191 109.028 C 121.671 109.013, 123.131 108.598, 123.435 108.106 C 123.739 107.614, 125.678 106.977, 127.744 106.690 C 129.810 106.404, 134.725 105.038, 138.666 103.655 C 143.970 101.794, 148.750 100.992, 157.065 100.568 C 163.244 100.254, 168.907 99.492, 169.650 98.876 C 171.494 97.345, 171.353 92.538, 169.417 90.931 C 166.946 88.880, 143.622 91.077, 134 94.267 C 122.884 97.951, 101.149 103.271, 99.616 102.683 C 98.881 102.401, 97.986 99.954, 97.627 97.246 C 96.464 88.481, 89.595 76.932, 85.631 77.079 C 84.459 77.122, 82.938 77.385, 82.250 77.662 M 118.967 120.250 C 115.142 123.688, 109.977 128.253, 107.489 130.396 C 105 132.539, 102.720 135.464, 102.422 136.896 C 102.123 138.328, 101.431 140.323, 100.882 141.328 C 99.780 143.350, 101.279 146, 103.525 146 C 104.230 146, 106.962 143.750, 109.598 141 C 112.233 138.250, 114.888 136, 115.498 136 C 116.107 136, 118.503 134.605, 120.821 132.900 C 125.626 129.367, 128 129.654, 128 133.769 C 128 135.326, 128.526 137.126, 129.169 137.769 C 130.221 138.821, 132.833 155.609, 132.952 162.089 C 132.999 164.629, 131.255 167.419, 123.751 176.809 C 121.689 179.389, 118.764 183.048, 117.251 184.939 C 115.738 186.831, 112.243 190.881, 109.485 193.939 C 106.727 196.998, 103.434 200.963, 102.167 202.750 C 97.687 209.072, 94.669 205.872, 97.321 197.612 C 98.224 194.800, 99.407 188.542, 99.950 183.704 C 100.494 178.866, 101.204 174.479, 101.528 173.954 C 102.491 172.397, 108.002 172.841, 108.649 174.528 C 108.971 175.368, 110.160 176.550, 111.290 177.155 C 113.053 178.099, 113.740 177.777, 116.145 174.877 C 117.686 173.020, 118.958 170.739, 118.973 169.809 C 118.988 168.879, 119.450 167.840, 120 167.500 C 121.802 166.386, 121.057 162.153, 118.777 160.557 C 116.236 158.776, 107.938 158.462, 106.315 160.085 C 104.362 162.038, 100.532 160.740, 100.168 158 C 99.986 156.625, 98.748 152.137, 97.418 148.028 C 96.088 143.918, 95 139.113, 95 137.350 C 95 133.435, 90.908 129.754, 87.055 130.202 C 84.554 130.494, 84.503 130.657, 84.647 138 C 84.759 143.708, 85.416 146.880, 87.397 151.279 C 89.837 156.695, 90 158.018, 90 172.406 C 90 183.209, 89.589 188.755, 88.613 191.128 C 87.850 192.983, 86.442 199.216, 85.484 204.980 C 83.522 216.795, 77.217 235.626, 73.357 241.203 C 71.947 243.239, 69.688 245.630, 68.336 246.516 C 66.716 247.577, 65.984 248.872, 66.189 250.313 C 66.462 252.233, 67.096 252.491, 71.383 252.429 C 75.017 252.376, 76.611 251.864, 77.619 250.429 C 78.364 249.368, 79.879 247.449, 80.986 246.165 C 82.094 244.881, 83.008 242.856, 83.017 241.665 C 83.026 240.474, 84.369 237.250, 86 234.500 C 87.631 231.750, 88.974 228.557, 88.983 227.405 C 89.005 224.711, 91.351 222.763, 97.145 220.627 C 101.647 218.967, 104.179 216.596, 115.148 203.767 C 117.154 201.420, 119.600 197.813, 120.583 195.750 C 121.566 193.688, 122.737 192, 123.185 192 C 123.633 192, 124 191.406, 124 190.680 C 124 188.852, 130.862 181, 132.459 181 C 133.392 181, 133.965 183.770, 134.476 190.750 C 134.868 196.113, 135.551 202.478, 135.993 204.894 C 136.907 209.899, 134.338 250.009, 133.016 251.363 C 132.553 251.837, 131.757 251.968, 131.247 251.653 C 129.578 250.621, 121 237.228, 121 235.654 C 121 234.809, 120.550 233.840, 120 233.500 C 119.450 233.160, 119 232.087, 119 231.115 C 119 228.872, 114.500 224.573, 113.074 225.454 C 110.916 226.788, 111.849 230.472, 118.338 246.251 C 121.713 254.456, 123.309 256.954, 128.403 262.001 C 133.560 267.111, 134.994 268, 138.074 268 C 143.955 268, 144.738 266.236, 144.876 252.689 C 144.941 246.192, 145.412 240.099, 145.921 239.147 C 147.104 236.937, 146.434 201.911, 145.020 192 C 144.431 187.875, 143.515 177.975, 142.985 170 C 142.177 157.855, 140.875 143.101, 139.750 133.333 C 139.612 132.141, 139.162 130.829, 138.750 130.416 C 138.338 130.004, 138 127.968, 138 125.892 C 138 123.816, 137.550 121.840, 137 121.500 C 136.450 121.160, 136 120.078, 136 119.096 C 136 116.414, 132.747 114, 129.132 114 C 126.601 114, 124.447 115.325, 118.967 120.250" stroke="none" fill="black" fill-rule="evenodd"/>
</svg>