<svg xmlns="http://www.w3.org/2000/svg" width="300" height="300" viewBox="0 0 300 300" version="1.1">
	<path d="M 108.106 5.067 C 106.586 7.565, 106.420 8.816, 107.206 11.817 C 108.366 16.242, 108.370 15.274, 107.141 32 C 106.595 39.425, 105.718 46.629, 105.191 48.008 C 104.664 49.387, 104.068 53.159, 103.867 56.388 C 103.564 61.235, 103.817 62.456, 105.317 63.380 C 106.829 64.312, 107.529 64.012, 109.476 61.598 C 110.764 60.002, 112.043 57.527, 112.318 56.098 C 112.593 54.669, 113.540 50.800, 114.422 47.500 C 115.304 44.200, 116.305 36.325, 116.645 30 C 116.986 23.675, 117.630 18.035, 118.076 17.466 C 119.188 16.047, 117.653 5.491, 116.054 3.565 C 113.882 0.948, 110.185 1.647, 108.106 5.067 M 84.566 8.042 C 80.849 13.214, 79 13.699, 79 9.500 C 79 3.708, 73.455 6.934, 69.858 14.819 C 68.195 18.462, 66.918 19.597, 61.693 22.068 C 58.287 23.680, 54.996 24.999, 54.381 24.999 C 52.403 25.001, 51.859 32.187, 53.685 34.204 C 55.778 36.517, 57.655 36.469, 62.290 33.984 C 65.627 32.196, 66.119 32.147, 66.658 33.552 C 67.545 35.863, 66.353 47.047, 65.084 48.316 C 63.260 50.140, 63.818 53.807, 66.026 54.508 C 68.016 55.140, 76.994 50.428, 76.998 48.750 C 76.999 48.337, 78.070 48, 79.378 48 C 80.685 48, 82.315 47.325, 83 46.500 C 83.685 45.675, 84.876 45, 85.647 45 C 87.204 45, 89.320 40.561, 89.185 37.577 C 89.137 36.519, 88.163 34.719, 87.020 33.577 C 85.007 31.565, 84.846 31.555, 81.890 33.250 C 78 35.480, 77 35.454, 77 33.122 C 77 27.741, 81.495 21.857, 88.624 17.906 C 90.206 17.029, 92.363 14.658, 93.418 12.636 L 95.336 8.960 92.481 5.980 C 90.911 4.341, 89.302 3, 88.907 3 C 88.511 3, 86.558 5.269, 84.566 8.042 M 123.248 9.250 C 121.461 11.491, 121.189 17.359, 122.760 19.757 C 123.811 21.360, 124.107 23.702, 123.770 27.755 C 123.224 34.348, 124.367 39.543, 126.549 40.381 C 129.801 41.628, 136.516 37.741, 143.250 30.714 C 148.879 24.839, 150 23.105, 150 20.269 C 150 15.346, 148.425 13, 145.120 13 C 141.885 13, 139.217 15.533, 138.125 19.643 C 137.616 21.558, 136.613 22.610, 135.085 22.832 C 132.954 23.143, 132.819 22.847, 133.031 18.332 C 133.335 11.863, 133.249 11.392, 131.429 9.571 C 129.549 7.691, 124.645 7.499, 123.248 9.250 M 137 46.729 C 134.525 48.186, 128.141 53.119, 122.814 57.690 C 115.483 63.978, 112.420 66, 110.219 66 C 105.617 66, 103.964 68.620, 104.838 74.523 C 105.542 79.280, 105.706 79.490, 108.537 79.268 C 111.924 79.004, 125 83.677, 125 85.152 C 125 86.391, 116.770 95.999, 115.707 96 C 115.271 96, 112.571 97.748, 109.707 99.884 C 101.622 105.914, 98.176 107.401, 95.314 106.097 C 90.240 103.785, 89.448 106.002, 93.589 110.923 C 95.657 113.381, 96.955 114, 100.042 114 C 102.167 114, 105.165 113.455, 106.703 112.790 C 111.274 110.812, 120.703 104.216, 121.343 102.548 C 121.670 101.697, 122.524 101, 123.241 101 C 123.958 101, 127.205 98.525, 130.455 95.500 C 133.705 92.475, 136.845 90.003, 137.432 90.006 C 138.020 90.010, 139.656 90.616, 141.070 91.353 C 142.483 92.091, 146.083 93.007, 149.070 93.388 C 156.751 94.368, 168 98.882, 168 100.984 C 168 103.464, 172.257 107, 175.243 107 C 178.142 107, 180.326 105.204, 182.470 101.059 C 183.773 98.539, 183.695 98.019, 181.552 94.903 C 179.446 91.840, 177.828 91.062, 165.356 87.119 C 157.735 84.710, 149.813 82.054, 147.750 81.217 C 143.729 79.586, 142.887 77.168, 145.566 74.945 C 147.651 73.215, 150 68.567, 150 66.172 C 150 65.112, 150.675 63.685, 151.500 63 C 152.583 62.101, 153 59.722, 153 54.434 C 153 48.003, 152.730 46.924, 150.777 45.557 C 147.500 43.261, 142.108 43.720, 137 46.729 M 79.497 58.379 C 64.700 65.524, 59.025 68, 57.443 68 C 56.541 68, 54.272 68.726, 52.401 69.614 C 48.511 71.460, 47.852 74.916, 50.633 78.887 C 51.965 80.789, 52.887 81.118, 55.630 80.673 C 58.615 80.188, 59.067 80.418, 59.642 82.710 C 60.810 87.364, 57.253 109.122, 54.943 111.450 C 54.424 111.972, 54.012 113.097, 54.026 113.950 C 54.047 115.256, 52.274 119.226, 45.856 132.236 C 44.473 135.041, 44.859 136.854, 47.093 138.050 C 50.241 139.734, 53.220 138.467, 55.976 134.270 C 59.008 129.653, 64 118.187, 64 115.838 C 64 114.892, 64.450 113.840, 65 113.500 C 65.550 113.160, 66 111.810, 66 110.500 C 66 109.190, 66.438 107.847, 66.973 107.517 C 67.508 107.186, 68.454 105.022, 69.076 102.708 C 70.310 98.117, 71.369 97.039, 74.668 97.015 C 76.059 97.005, 77.613 95.744, 79 93.500 C 80.190 91.575, 81.793 90, 82.563 90 C 83.332 90, 84.268 88.763, 84.643 87.250 C 85.017 85.737, 86.151 83.912, 87.162 83.193 C 88.173 82.475, 89 81.039, 89 80.002 C 89 78.966, 89.506 77.805, 90.124 77.423 C 92.096 76.205, 97 64.175, 97 60.557 C 97 54.009, 90.277 53.173, 79.497 58.379 M 130.858 64.073 C 126.983 67.963, 123.968 71.259, 124.157 71.397 C 126.119 72.831, 132.427 75.050, 133.438 74.662 C 135.227 73.976, 142 61.655, 142 59.088 C 142 55.057, 138.101 56.801, 130.858 64.073 M 131.302 111.009 C 128.657 112.955, 125.777 114.114, 123.153 114.290 C 120.681 114.455, 118.198 115.399, 116.798 116.706 C 113.990 119.326, 106.223 123.240, 99.500 125.423 C 96.750 126.315, 93.600 127.473, 92.500 127.996 C 89.294 129.519, 81.832 132.097, 77.500 133.179 C 69.315 135.222, 68.512 135.581, 68.171 137.350 C 67.980 138.344, 68.096 140.248, 68.430 141.579 C 68.945 143.629, 69.643 144, 72.991 144 C 75.164 144, 79.519 142.861, 82.668 141.468 C 85.816 140.076, 88.867 139.120, 89.446 139.344 C 90.151 139.617, 90.500 149.309, 90.500 168.598 L 90.500 197.443 88 198.148 C 83.921 199.298, 52.769 204.019, 49.327 204.009 C 44.588 203.995, 39.806 208.373, 40.197 212.366 C 40.567 216.148, 44.547 218.065, 48.223 216.232 C 49.475 215.607, 52.750 214.908, 55.500 214.679 C 58.250 214.449, 62.975 213.493, 66 212.555 C 70.931 211.025, 82.202 209.105, 87.500 208.892 C 88.600 208.848, 93.775 208.086, 99 207.200 C 104.225 206.314, 110.750 205.568, 113.500 205.544 L 118.500 205.500 118.520 215 C 118.556 232.563, 117.222 248.730, 115.425 252.518 C 113.221 257.162, 113.905 268.133, 116.584 271.092 C 118.921 273.675, 122.177 273.169, 123.619 270 C 124.953 267.067, 127.982 231.090, 128.149 216.186 C 128.308 202.007, 127.458 202.473, 152.955 202.588 C 163.705 202.637, 174.525 202.971, 177 203.331 C 179.475 203.692, 185.775 204.483, 191 205.089 C 197.287 205.818, 201.416 206.835, 203.210 208.096 C 206.663 210.523, 207.191 210.490, 209.826 207.686 C 212.487 204.853, 212.536 203.391, 210.103 199.402 C 208.272 196.398, 207.929 196.282, 198.952 195.604 C 193.858 195.219, 188.810 194.434, 187.734 193.858 C 184.093 191.909, 158.461 190.827, 144.690 192.040 C 137.644 192.660, 131.296 192.944, 130.583 192.670 C 129.578 192.285, 129.418 189.625, 129.870 180.836 C 130.629 166.097, 130.460 159.006, 129.015 145 C 126.988 125.348, 127.011 125.270, 135.500 122.930 C 139.794 121.746, 145 117.519, 145 115.217 C 145 114.443, 144.069 112.502, 142.932 110.904 C 140.214 107.087, 136.591 107.120, 131.302 111.009 M 107.875 132.809 C 98.758 136.142, 97.299 139.475, 105.250 138.806 C 111.953 138.242, 116.500 136.092, 116.500 133.487 C 116.500 130.879, 113.744 130.663, 107.875 132.809 M 107.680 151.292 L 99.861 156.500 100.480 160.489 C 100.821 162.683, 102.070 165.510, 103.256 166.773 C 106.014 169.708, 109.920 169.005, 115.201 164.622 C 118.846 161.598, 118.965 161.294, 118.982 154.950 C 118.998 149.165, 117.922 145.898, 116.050 146.042 C 115.748 146.066, 111.981 148.428, 107.680 151.292 M 112.975 177.518 C 110.828 179.103, 108.279 180, 105.928 180 C 101.764 180, 99.613 181.775, 101.042 184.034 C 101.552 184.840, 101.976 187.877, 101.985 190.781 C 101.996 194.671, 102.418 196.223, 103.586 196.671 C 105.447 197.386, 115.935 195.235, 117.750 193.766 C 118.556 193.115, 119 189.998, 119 185 C 119 175.378, 117.836 173.932, 112.975 177.518" stroke="none" fill="black" fill-rule="evenodd"/>
</svg>