<svg xmlns="http://www.w3.org/2000/svg" width="300" height="300" viewBox="0 0 300 300" version="1.1">
	<path d="M 114.788 23.773 C 93.075 36.340, 86 42.408, 86 48.467 C 86 51.145, 83.623 53.453, 81.646 52.694 C 80.887 52.403, 79.493 49.090, 78.548 45.333 C 77.603 41.575, 76.418 37.719, 75.915 36.764 C 75.412 35.809, 75 34.416, 75 33.669 C 75 31.131, 71.346 28.748, 68.822 29.639 C 67.545 30.090, 65.857 30.470, 65.071 30.483 C 64.285 30.497, 63.310 31.749, 62.904 33.266 C 62.309 35.493, 63.095 37.709, 66.985 44.762 C 73.325 56.260, 75.379 64.194, 80.120 95.500 C 81.195 102.594, 82.016 105.153, 84.190 108.174 C 85.204 109.584, 84.731 110.568, 81.197 114.402 C 78.889 116.906, 77 119.848, 77 120.939 C 77 123.472, 80.758 127.003, 83.439 126.989 C 85.952 126.976, 95.940 120.068, 101.979 114.166 C 105.629 110.599, 106.899 109.930, 109.158 110.382 C 112.928 111.136, 118 109.229, 118 107.057 C 118 105.036, 121.021 102, 123.031 102 C 123.787 102, 125.827 100.622, 127.564 98.938 C 130.628 95.968, 130.709 95.669, 130.237 89.074 C 129.919 84.623, 130.139 82.032, 130.875 81.577 C 131.494 81.195, 132 79.327, 132 77.427 C 132 75.527, 132.415 73.191, 132.923 72.236 C 134.368 69.518, 135.894 45.164, 135.037 38.500 C 134.047 30.804, 131.292 25.099, 127.500 22.892 C 123.265 20.428, 120.203 20.640, 114.788 23.773 M 114.306 36.413 C 111.672 38.677, 111.478 39.390, 111.147 48.010 C 110.735 58.723, 111.497 60.207, 115.827 57.123 C 117.467 55.955, 120.202 55, 121.904 55 L 125 55 125 46.155 C 125 38.856, 124.680 37.021, 123.171 35.655 C 120.608 33.335, 117.584 33.594, 114.306 36.413 M 95.032 49.466 C 93.722 50.860, 91.920 52, 91.026 52 C 88.781 52, 87 53.991, 87 56.500 C 87 57.655, 86.470 59.130, 85.823 59.777 C 84.920 60.680, 84.928 62.484, 85.856 67.520 C 86.521 71.131, 86.839 74.452, 86.562 74.900 C 86.285 75.348, 86.540 78.366, 87.128 81.607 C 87.717 84.848, 88.295 88.400, 88.413 89.500 C 89.893 103.279, 90.283 105, 91.920 105 C 96.533 105, 102.962 93.530, 102.989 85.250 C 103.002 81.406, 101.448 81.073, 97.605 84.096 L 94.940 86.192 91.470 83.545 C 89.562 82.089, 88 80.717, 88 80.496 C 88 78.703, 90.676 75.032, 92.973 73.675 C 94.515 72.764, 97.191 70.408, 98.920 68.438 C 101.605 65.380, 101.969 64.349, 101.411 61.375 C 101.051 59.460, 100.699 55.560, 100.629 52.709 C 100.477 46.587, 98.702 45.559, 95.032 49.466 M 116.789 69.265 C 113.276 72.326, 113.045 72.903, 112.482 80 C 112.155 84.125, 111.679 88.513, 111.424 89.750 C 110.793 92.822, 113.996 92.768, 117.627 89.645 C 119.904 87.686, 120.565 85.959, 121.550 79.395 C 122.201 75.053, 123.068 70.263, 123.475 68.750 C 124.524 64.861, 121.581 65.088, 116.789 69.265 M 121.679 127.484 C 120.127 128.293, 116.752 130.811, 114.179 133.080 C 111.606 135.349, 107.855 138.046, 105.845 139.075 C 101.953 141.065, 98 145.378, 98 147.635 C 98 149.868, 94.526 149.189, 91.956 146.453 C 90.217 144.602, 88.734 143.987, 86.531 144.203 C 83.754 144.475, 83.475 144.844, 83.199 148.613 C 82.966 151.803, 83.450 153.381, 85.357 155.647 C 88.016 158.807, 88.063 159.107, 88.007 172.500 C 87.969 181.492, 87.417 184.901, 83.715 199 C 82.632 203.125, 81.389 208.075, 80.953 210 C 80.150 213.541, 77.011 223.411, 75.227 228 C 74.693 229.375, 73.685 232.300, 72.986 234.500 C 72.288 236.700, 70.431 240.381, 68.858 242.680 C 67.286 244.979, 66 247.175, 66 247.559 C 66 247.943, 64.425 250.001, 62.500 252.132 C 60.575 254.262, 59 256.654, 59 257.446 C 59 259.146, 62.788 262.014, 64.973 261.968 C 66.998 261.926, 72 257.467, 72 255.703 C 72 254.937, 72.900 253.495, 74 252.500 C 75.100 251.505, 76 250.058, 76 249.286 C 76 248.514, 77.860 244.039, 80.133 239.343 C 84.118 231.109, 84.370 230.824, 87.155 231.381 C 89.741 231.898, 90.986 231.040, 99.022 223.192 C 103.960 218.370, 108 214.064, 108 213.623 C 108 213.182, 110.588 209.599, 113.750 205.660 C 116.912 201.722, 120.161 197.150, 120.970 195.500 C 121.778 193.850, 123.803 190.224, 125.470 187.442 C 127.136 184.659, 128.999 181.509, 129.609 180.442 C 130.219 179.374, 131.344 178.500, 132.109 178.500 C 133.212 178.500, 133.544 181.092, 133.711 191 C 133.827 197.875, 134.243 205.525, 134.636 208 C 135.029 210.475, 135.536 213.850, 135.762 215.500 C 135.988 217.150, 136.247 231.865, 136.336 248.200 C 136.453 269.344, 136.171 278.230, 135.357 279.044 C 134.500 279.901, 132.202 278.167, 126.169 272.109 C 121.745 267.667, 117.444 262.787, 116.613 261.266 C 115.781 259.745, 114.329 257.057, 113.386 255.294 C 111.498 251.763, 109.199 250.401, 107.684 251.916 C 107.042 252.558, 107.273 253.768, 108.351 255.413 C 109.258 256.797, 110 259.122, 110 260.579 C 110 262.036, 110.839 264.864, 111.864 266.864 C 112.888 268.864, 114.412 272.095, 115.249 274.044 C 116.864 277.803, 126.535 289, 128.167 289 C 128.699 289, 130.649 290.156, 132.501 291.568 C 136.227 294.411, 141.770 294.639, 142.994 292 C 143.376 291.175, 144.222 289.473, 144.874 288.217 C 146.495 285.092, 147.268 229.784, 145.876 216.500 C 145.300 211, 144.452 200.425, 143.991 193 C 142.582 170.310, 138.673 145.811, 135.239 138.160 C 133.741 134.822, 126.332 125.991, 125.042 126.006 C 124.744 126.010, 123.231 126.674, 121.679 127.484 M 117 144.500 C 115.134 146.425, 113.062 148, 112.396 148 C 110.936 148, 103.175 155.453, 100.806 159.129 C 99.558 161.067, 98.954 164.997, 98.510 174.082 C 98.179 180.861, 97.436 186.975, 96.859 187.670 C 96.283 188.364, 96.011 189.510, 96.255 190.216 C 96.499 190.922, 95.867 193.068, 94.849 194.985 C 93.832 196.902, 93 199.850, 93 201.535 C 93 203.221, 92.611 205.028, 92.136 205.550 C 91.406 206.353, 89 214.709, 89 216.443 C 89 216.749, 89.713 217, 90.584 217 C 94.239 217, 120 185.647, 120 181.198 C 120 176.776, 114.531 175.472, 112.990 179.526 C 111.785 182.696, 109.289 183.717, 107.389 181.817 C 105.603 180.031, 104.532 174.001, 105.392 170.572 C 106.141 167.591, 110.616 165, 115.017 165 C 118.431 165, 125 169.356, 125 171.619 C 125 173.525, 127.352 173.348, 129.923 171.250 C 132.045 169.517, 132.051 169.415, 130.485 161 C 129.615 156.325, 128.249 151.082, 127.451 149.349 C 126.653 147.616, 126 145.568, 126 144.799 C 126 142.924, 123.973 141, 121.996 141 C 121.114 141, 118.866 142.575, 117 144.500" stroke="none" fill="black" fill-rule="evenodd"/>
</svg>