<svg xmlns="http://www.w3.org/2000/svg" width="300" height="300" viewBox="0 0 300 300" version="1.1">
	<path d="M 120.500 20.068 C 118.850 21.125, 116.549 21.992, 115.388 21.995 C 114.226 21.998, 110.001 23.350, 106 25 C 101.999 26.650, 97.993 28, 97.098 28 C 96.203 28, 92.639 29.381, 89.179 31.069 C 83.007 34.080, 82.893 34.209, 83.194 37.819 C 83.444 40.832, 83.934 41.561, 85.891 41.838 C 87.207 42.024, 89.907 41.520, 91.891 40.717 C 101.113 36.990, 106.204 35.711, 106.959 36.934 C 107.371 37.600, 106.849 42.049, 105.800 46.822 C 103.022 59.467, 102.909 59.830, 101.389 61.092 C 99.621 62.560, 99.576 67.900, 101.328 68.572 C 103.101 69.253, 108 67.333, 108 65.958 C 108 65.358, 109.125 63.392, 110.500 61.589 C 111.875 59.786, 113 57.656, 113 56.856 C 113 56.055, 113.404 54.973, 113.898 54.450 C 114.391 53.928, 115.035 51.700, 115.327 49.500 C 117.310 34.598, 118.463 32.397, 125.500 30.069 C 127.700 29.341, 130.063 28.298, 130.750 27.751 C 132.818 26.104, 132.246 21.286, 129.777 19.557 C 126.897 17.539, 124.217 17.687, 120.500 20.068 M 137 72.041 C 127.635 73.131, 109.200 80.550, 95.723 88.652 C 88.072 93.252, 85.231 95.691, 83.379 99.250 C 82.592 100.763, 81.398 101.986, 80.724 101.970 C 80.051 101.953, 75.101 98.128, 69.725 93.470 C 60.623 85.583, 59.644 85, 55.510 85 C 50.207 85, 48.362 87.193, 50.013 91.535 C 51.290 94.892, 54.259 97.448, 60 100.132 C 62.475 101.289, 65.625 103.287, 67 104.572 C 74.896 111.949, 77.307 113.835, 80.936 115.471 C 84.213 116.949, 85.235 117.050, 86.477 116.019 C 87.315 115.324, 88 113.967, 88 113.004 C 88 110.625, 92.905 102, 94.257 102 C 94.854 102, 96.149 101.270, 97.134 100.379 C 100.713 97.140, 102 99.239, 102 108.314 C 102 117.175, 102.822 118.950, 107.598 120.401 C 108.752 120.752, 110.205 122.155, 110.827 123.519 C 112.899 128.067, 115.582 126.342, 119.911 117.680 C 121.195 115.110, 122.556 114.201, 127 112.941 C 139.600 109.368, 141.041 108.230, 146.420 97.606 C 150.680 89.193, 151.328 87.110, 151.408 81.579 C 151.479 76.643, 151.074 74.749, 149.595 73.110 C 147.582 70.880, 147.227 70.850, 137 72.041 M 132 83.916 C 131.175 84.386, 128.925 85.095, 127 85.491 C 125.075 85.887, 122.150 86.775, 120.500 87.465 C 118.850 88.155, 116.375 89.171, 115 89.724 C 111.470 91.143, 109.621 96.809, 110.470 103.604 C 110.931 107.298, 111.594 109, 112.572 109 C 113.670 109, 114 107.419, 114 102.155 C 114 96.794, 114.396 94.951, 115.829 93.655 C 118.117 91.584, 118.930 91.606, 121.796 93.811 C 124.336 95.766, 124.705 97.667, 123.631 103.250 C 122.741 107.877, 124.197 108.149, 128.500 104.161 C 134.242 98.838, 141.807 86.114, 140.493 83.989 C 139.749 82.785, 134.070 82.736, 132 83.916 M 106.248 137.663 C 105.560 137.941, 104.713 139.940, 104.367 142.106 C 104.021 144.272, 103.346 146.286, 102.869 146.581 C 102.391 146.876, 102 148.634, 102 150.488 C 102 154.398, 100.153 156.615, 96.260 157.376 C 89.137 158.768, 65.409 162.031, 55.770 162.945 C 39.253 164.509, 31.240 167.157, 33.756 170.219 C 34.335 170.923, 34.964 172.625, 35.154 174 C 35.440 176.064, 36.023 176.481, 38.500 176.393 C 43.163 176.227, 78.138 171.013, 81.500 169.983 C 83.150 169.478, 87.076 168.764, 90.225 168.397 L 95.950 167.731 95.353 174.119 L 94.757 180.508 99.104 185.004 C 101.496 187.477, 105.375 190.728, 107.726 192.228 C 113.595 195.974, 113.382 198.199, 106.400 206.024 C 99.442 213.822, 92.546 219.327, 85.175 222.969 C 75.417 227.790, 62.635 229.804, 54.181 227.852 C 43.368 225.357, 43.795 230.337, 54.701 233.921 C 60.722 235.899, 62.676 236.075, 71.776 235.456 C 78.707 234.985, 83.253 234.146, 85.738 232.879 C 87.765 231.845, 89.817 231, 90.298 231 C 90.779 231, 94.397 228.756, 98.337 226.013 C 105.342 221.136, 110.595 216.443, 118.352 208.128 C 120.470 205.858, 122.872 204, 123.688 204 C 124.505 204, 127.047 205.277, 129.337 206.837 C 139.309 213.634, 145.095 217, 146.805 217 C 148.769 217, 155.902 222.639, 159.958 227.399 C 164.220 232.400, 170.101 236.161, 171.649 234.877 C 173.282 233.521, 173.404 229.623, 171.902 226.817 C 170.404 224.018, 158.308 212.211, 152.588 207.964 C 150.021 206.059, 145.182 202.363, 141.833 199.750 C 138.485 197.137, 134.733 195, 133.495 195 C 129.292 195, 128.805 192.877, 131.455 186.114 C 132.793 182.700, 134.201 176.729, 134.584 172.846 C 135.501 163.539, 137.657 160.897, 145.104 159.955 C 154.169 158.808, 173.163 156.005, 179.389 154.895 C 182.628 154.317, 192.128 153.961, 200.500 154.104 C 215.470 154.358, 215.776 154.320, 218.971 151.820 C 222.498 149.060, 222.340 147.427, 218.181 143.664 C 216.300 141.961, 214.988 141.917, 196.838 142.939 C 172.892 144.288, 151.348 147.395, 123 153.586 C 111.824 156.026, 111.257 155.677, 113.091 147.483 C 114.971 139.084, 112.284 135.228, 106.248 137.663 M 113 166 C 111.625 167.076, 109.986 167.966, 109.357 167.978 C 107.986 168.004, 107 170.307, 107 173.479 C 107 176.268, 114.838 185.957, 117.114 185.982 C 118.770 186, 120.676 181.744, 122.988 172.866 C 124.581 166.751, 123.247 163.991, 118.715 164.022 C 116.947 164.034, 114.375 164.924, 113 166" stroke="none" fill="black" fill-rule="evenodd"/>
</svg>