<svg xmlns="http://www.w3.org/2000/svg" width="300" height="300" viewBox="0 0 300 300" version="1.1">
	<path d="M 50.557 58.510 C 48.569 60.441, 46.517 63.141, 45.996 64.510 C 44.762 67.757, 41.649 67.721, 40.156 64.443 C 39.133 62.198, 38.473 61.923, 34.745 62.193 C 31.150 62.453, 30.449 62.862, 30.165 64.865 C 29.981 66.166, 30.319 67.719, 30.915 68.315 C 31.512 68.912, 32 70.830, 32 72.578 C 32 74.325, 32.675 76.315, 33.500 77 C 34.776 78.059, 35 83.011, 35 110.162 C 35 140.909, 33.909 159.432, 31.875 163.233 C 31.343 164.227, 30.496 168.651, 29.993 173.063 C 29.389 178.356, 28.425 181.915, 27.160 183.524 C 25.683 185.401, 25.358 187, 25.750 190.471 C 26.229 194.720, 23.685 205.561, 20.773 211.683 C 19.542 214.270, 20.359 217, 22.364 217 C 23.836 217, 30 208.240, 30 206.149 C 30 205.502, 30.414 204.191, 30.919 203.236 C 31.425 202.281, 32.686 199.654, 33.721 197.398 C 35.562 193.385, 39.313 188.468, 47.647 179.141 C 49.932 176.585, 52.291 172.653, 52.899 170.387 C 53.506 168.125, 55.127 164.618, 56.502 162.593 C 57.876 160.568, 59 158.283, 59 157.515 C 59 156.746, 59.450 155.840, 60 155.500 C 61.315 154.687, 61.285 151.294, 59.956 150.473 C 58.645 149.663, 54.002 152.623, 53.995 154.273 C 53.989 155.774, 42.340 171.352, 40.832 171.875 C 40.113 172.124, 39.959 170.953, 40.372 168.375 C 41.631 160.504, 43.175 147.253, 43.828 138.713 C 44.567 129.050, 45.892 126.908, 49.494 129.554 C 52.787 131.974, 54.189 132.371, 55.819 131.342 C 58.915 129.389, 59.437 127.364, 58.012 122.838 C 55.997 116.446, 54.399 115, 49.345 115 L 45 115 45 100.059 C 45 90.869, 45.397 84.873, 46.032 84.480 C 46.599 84.130, 47.988 81.876, 49.118 79.472 C 50.248 77.068, 51.803 74.579, 52.573 73.939 C 55.578 71.445, 56.661 73.630, 57.888 84.658 C 58.551 90.621, 59.523 97.938, 60.047 100.917 C 60.571 103.896, 61 108.712, 61 111.620 C 61 114.527, 61.426 117.940, 61.947 119.203 C 63.235 122.326, 65.865 158.487, 67.531 196 C 67.934 205.075, 68.699 213.340, 69.230 214.367 C 69.940 215.739, 69.756 216.666, 68.537 217.867 C 67.001 219.379, 66.768 219.352, 65.395 217.500 C 64.579 216.400, 63.220 213.119, 62.373 210.210 C 60.477 203.689, 56.727 198.922, 54.905 200.715 C 54.226 201.383, 53.474 204.308, 53.234 207.215 C 52.606 214.835, 56.037 221.990, 64.339 230.375 C 71.121 237.224, 72.439 237.869, 75.314 235.750 C 77.452 234.174, 87 218.025, 87 215.984 C 87 215.148, 88.036 212.897, 89.302 210.982 C 91.757 207.270, 95.846 199.063, 98.511 192.500 C 99.404 190.300, 100.555 187.488, 101.068 186.250 C 101.580 185.012, 102.497 182.762, 103.105 181.250 C 103.713 179.738, 104.815 177.150, 105.554 175.500 C 106.294 173.850, 107.556 170.250, 108.360 167.500 C 110.285 160.912, 116.448 143.900, 117.875 141.234 C 118.494 140.078, 119 138.269, 119 137.215 C 119 136.160, 120.125 133.182, 121.500 130.596 C 122.875 128.010, 124 124.638, 124 123.102 C 124 121.567, 124.889 117.653, 125.975 114.405 C 127.062 111.157, 127.965 107.600, 127.982 106.500 C 128.052 102.016, 132.073 98.146, 143.500 91.562 C 155.693 84.538, 161.717 77.774, 158.854 74.324 C 155.812 70.659, 154.479 70.936, 147.900 76.602 C 144.380 79.633, 140.600 82.537, 139.500 83.054 C 138.400 83.572, 136.774 84.518, 135.886 85.157 C 133.203 87.087, 130.665 85.432, 131.409 82.238 C 131.760 80.732, 132.558 76.213, 133.184 72.196 C 134.170 65.859, 134.112 64.683, 132.738 63.309 C 130.676 61.248, 128.262 62.242, 126.879 65.722 C 126.271 67.250, 125.197 69.625, 124.491 71 C 123.785 72.375, 122.677 77.100, 122.029 81.500 C 120.359 92.840, 119.969 93.521, 114.335 94.925 C 107.430 96.646, 105 98.479, 105 101.964 C 105 105.749, 106.325 106.500, 113 106.500 C 117.899 106.500, 118.478 106.718, 118.302 108.500 C 117.967 111.880, 113.344 127.809, 108.579 142 C 106.087 149.425, 103.299 157.750, 102.384 160.500 C 101.469 163.250, 100.333 165.928, 99.860 166.450 C 99.387 166.973, 99 168.183, 99 169.141 C 99 170.098, 97.265 174.621, 95.145 179.191 C 93.025 183.761, 90.949 188.625, 90.531 190 C 90.114 191.375, 88.991 193.850, 88.037 195.500 C 87.083 197.150, 85.290 201.070, 84.051 204.211 C 80.207 213.962, 76.806 214.411, 77.512 205.075 C 77.826 200.933, 76.595 182.580, 75.328 172.500 C 75.052 170.300, 74.676 165.125, 74.493 161 C 74.309 156.875, 73.661 147.200, 73.053 139.500 C 72.444 131.800, 71.570 119.594, 71.110 112.376 C 70.650 105.158, 70.011 98.827, 69.689 98.306 C 69.368 97.786, 68.802 94.018, 68.433 89.932 C 68.064 85.847, 67.366 81.462, 66.881 80.187 C 66.396 78.913, 66 74.718, 66 70.865 C 66 64.693, 65.638 63.334, 62.952 59.430 C 59.016 53.709, 55.750 53.467, 50.557 58.510 M 129.053 139.436 C 128.156 140.517, 128.141 141.395, 128.993 142.987 C 129.616 144.150, 130.380 148.140, 130.691 151.853 C 131.529 161.847, 128.988 170.116, 119.611 187.914 C 118.571 189.886, 117.498 193.431, 117.226 195.792 C 116.816 199.342, 117.143 200.526, 119.115 202.637 C 121.149 204.815, 122.136 205.119, 125.826 204.709 C 128.538 204.408, 131.149 203.308, 132.826 201.761 C 134.297 200.404, 136.177 199.059, 137.004 198.772 C 139.850 197.787, 150 188.888, 150 187.378 C 150 186.547, 151.125 184.392, 152.500 182.589 C 153.875 180.786, 155.007 178.229, 155.015 176.906 C 155.051 171.343, 159.088 170.471, 161.040 175.605 C 161.595 177.066, 162.857 179.440, 163.843 180.881 C 164.830 182.321, 166.220 185.525, 166.932 188 C 167.644 190.475, 169.465 195.200, 170.979 198.500 C 172.493 201.800, 174.297 206.300, 174.988 208.500 C 175.680 210.700, 176.828 213.175, 177.538 214 C 178.249 214.825, 179.161 217.300, 179.566 219.500 C 179.970 221.700, 181.512 226.200, 182.993 229.500 C 185.710 235.554, 188.789 243.813, 189.703 247.500 C 190.345 250.090, 192.646 255.722, 194.566 259.400 C 196.613 263.323, 197.545 270.545, 196.118 271.427 C 192.705 273.537, 198.054 280, 203.213 280 C 207.676 280, 209.353 277.828, 208.785 272.784 C 208.504 270.294, 207.486 266.737, 206.522 264.878 C 204.644 261.258, 199.258 244.770, 198.068 239 C 197.672 237.075, 196.857 234.600, 196.257 233.500 C 194.725 230.686, 192.354 224.956, 191.500 222 C 191.103 220.625, 190.222 218.150, 189.543 216.500 C 188.863 214.850, 187.743 211.700, 187.053 209.500 C 186.362 207.300, 184.788 203.925, 183.555 202 C 182.321 200.075, 180.723 196.025, 180.003 193 C 179.282 189.975, 177.637 185.821, 176.347 183.770 C 175.056 181.718, 173.986 179.243, 173.968 178.270 C 173.951 177.296, 173.308 175.671, 172.541 174.658 C 171.773 173.645, 170.836 170.945, 170.459 168.658 C 170.082 166.371, 169.427 164.050, 169.002 163.500 C 168.578 162.950, 167.907 160.925, 167.510 159 C 166.621 154.685, 162.392 150, 159.385 150 C 156.817 150, 153 154.324, 153 157.234 C 153 159.328, 151.638 162.700, 146.693 172.849 C 143.281 179.854, 135.356 189, 132.699 189 C 130.340 189, 130.515 188.079, 134.500 179.568 C 136.425 175.457, 138 171.037, 138 169.746 C 138 168.456, 138.417 166.973, 138.926 166.450 C 139.436 165.928, 140.077 160.598, 140.351 154.607 C 140.806 144.650, 140.668 143.470, 138.737 140.857 C 136.371 137.658, 131.163 136.894, 129.053 139.436" stroke="none" fill="black" fill-rule="evenodd"/>
</svg>