<svg xmlns="http://www.w3.org/2000/svg" width="300" height="300" viewBox="0 0 300 300" version="1.1">
	<path d="M 143 11.499 C 141.578 15.239, 141.702 16.074, 144.496 21.581 C 145.869 24.286, 147.008 27.400, 147.028 28.500 C 147.047 29.600, 147.724 31.374, 148.532 32.441 C 149.339 33.509, 150 35.656, 150 37.213 C 150 39.373, 149.349 40.297, 147.250 41.118 C 142.911 42.815, 139.180 44.525, 129.114 49.428 C 123.952 51.943, 119.131 54, 118.399 54 C 115.250 54, 113.718 62.691, 116.465 64.971 C 118.389 66.568, 125.616 65.382, 129.135 62.892 C 132.875 60.245, 140.757 57, 143.443 57 C 144.695 57, 147.411 55.405, 149.478 53.456 C 153.635 49.535, 155.346 49.433, 155.805 53.078 C 156.250 56.619, 158.912 64.879, 161.151 69.668 C 162.222 71.961, 163.363 75.459, 163.684 77.442 C 164.006 79.426, 164.659 81.289, 165.135 81.583 C 165.611 81.877, 166 83.190, 166 84.500 C 166 85.810, 166.387 87.121, 166.860 87.414 C 167.334 87.706, 168.009 90.050, 168.362 92.622 C 168.714 95.194, 169.371 97.794, 169.821 98.399 C 170.271 99.005, 171.263 101.525, 172.025 104 C 172.788 106.475, 174.513 110.975, 175.860 114 C 177.207 117.025, 178.895 122.200, 179.610 125.500 C 182.331 138.051, 183.194 141.720, 185.136 149 C 186.237 153.125, 187.596 157.850, 188.156 159.500 C 189.958 164.804, 191.148 169.391, 191.918 174 C 192.332 176.475, 193.595 180.525, 194.726 183 C 195.856 185.475, 198.218 192.675, 199.975 199 C 201.732 205.325, 203.735 211.850, 204.427 213.500 C 208.992 224.384, 210.298 227.935, 210.985 231.330 C 211.412 233.437, 212.265 235.665, 212.880 236.280 C 213.496 236.896, 214 238.253, 214 239.296 C 214 240.338, 214.617 242.386, 215.372 243.846 C 218.871 250.617, 224 262.018, 224 263.027 C 224 267.218, 233.056 289.011, 237.805 296.250 L 240.266 300 249.133 300 L 258 300 258.008 277.750 C 258.015 257.486, 257.730 253.727, 254.811 235.643 C 251.651 216.069, 250.942 214.041, 247.688 215.289 C 246.620 215.699, 246.720 218.463, 248.227 230.146 C 249.550 240.411, 250.080 251.006, 250.088 267.339 C 250.098 289.513, 249.665 293, 246.903 293 C 245.748 293, 243 287.543, 243 285.250 C 243 284.232, 242.474 282.874, 241.832 282.232 C 241.190 281.590, 240.109 279.587, 239.431 277.782 C 237.314 272.145, 234.012 262.712, 232.332 257.500 C 231.446 254.750, 230.333 252.073, 229.860 251.550 C 229.387 251.028, 229 250.013, 229 249.295 C 229 248.577, 227.875 245.658, 226.500 242.808 C 225.125 239.958, 223.997 236.922, 223.994 236.063 C 223.990 235.203, 223.376 233.328, 222.628 231.895 C 221.881 230.462, 220.708 226.951, 220.022 224.093 C 219.336 221.234, 217.703 216.781, 216.392 214.198 C 215.081 211.614, 214.006 208.739, 214.004 207.809 C 214.002 206.879, 213.550 205.840, 213 205.500 C 212.450 205.160, 212 203.896, 211.999 202.691 C 211.999 201.486, 211.099 198.133, 209.999 195.239 C 208.900 192.346, 207.997 189.196, 207.994 188.239 C 207.990 187.283, 207.315 185.211, 206.494 183.636 C 205.672 182.060, 205 179.938, 205 178.920 C 205 177.901, 204.368 175.590, 203.596 173.784 C 201.981 170.005, 200.556 164.834, 198.971 157 C 198.359 153.975, 197.401 150.150, 196.841 148.500 C 196.282 146.850, 195.443 144.150, 194.976 142.500 C 192.443 133.545, 189.904 123.917, 188.911 119.500 C 188.292 116.750, 187.384 114.072, 186.893 113.550 C 186.402 113.027, 186 111.713, 186 110.629 C 186 109.545, 185.417 107.947, 184.705 107.079 C 183.412 105.503, 181.301 99.513, 179.038 91 C 176.593 81.799, 173.597 72.410, 172.178 69.500 C 171.373 67.850, 170.362 65.772, 169.931 64.882 C 169.501 63.993, 168.625 61.293, 167.984 58.882 C 167.344 56.472, 166.104 52.973, 165.228 51.107 C 163.695 47.839, 163.720 47.645, 165.913 45.870 C 167.165 44.856, 170.052 43.525, 172.328 42.912 C 177.473 41.526, 185.207 37.660, 186.890 35.633 C 188.899 33.212, 187.842 29.660, 184.794 28.593 C 181.836 27.557, 174.026 29.571, 166.342 33.352 C 160.874 36.044, 159.935 35.197, 156.528 24.496 C 153.195 14.031, 150.362 9.608, 146.718 9.184 C 144.559 8.932, 143.796 9.407, 143 11.499 M 198.289 10.659 C 197.541 10.957, 197.293 12.213, 197.640 13.949 C 197.955 15.525, 197.717 17.057, 197.098 17.439 C 195.002 18.735, 197.981 22.017, 203.448 24.435 C 206.384 25.733, 209.199 27.532, 209.703 28.433 C 210.207 29.334, 211.943 30.168, 213.560 30.286 C 216.222 30.480, 216.531 30.180, 216.824 27.112 C 217.337 21.736, 216.299 19.300, 213.006 18.152 C 211.353 17.576, 210 16.667, 210 16.134 C 210 14.003, 200.752 9.680, 198.289 10.659 M 66 56.820 C 62.033 58.618, 55.850 63.283, 53.851 65.988 C 50.823 70.083, 49.263 69.778, 47.071 64.665 C 45.229 60.367, 40.769 57.244, 37.861 58.213 C 36.302 58.733, 35.796 67.050, 37.220 68.765 C 40.661 72.911, 44.307 113.405, 42.896 131.806 C 40.504 162.985, 37.372 190.667, 34.896 202.500 C 33.704 208.194, 31.368 213.511, 28.678 216.652 C 26.473 219.228, 26.803 223.347, 29.253 223.814 C 30.256 224.005, 32.325 222.727, 34.090 220.824 C 35.786 218.996, 38.018 216.600, 39.049 215.500 C 41.252 213.150, 45.115 202.017, 45.467 197 C 45.603 195.075, 46.314 189.975, 47.049 185.667 C 48.322 178.200, 48.547 177.757, 51.879 176.167 C 54.223 175.049, 55.628 173.540, 56.145 171.585 C 56.568 169.982, 57.418 168.359, 58.033 167.979 C 58.648 167.599, 59.398 165.448, 59.700 163.199 C 60.002 160.950, 61.039 158.262, 62.005 157.225 C 62.971 156.188, 65.457 151.776, 67.530 147.420 C 72.079 137.860, 71.617 138.438, 73.476 139.980 C 74.707 141.002, 75.005 143.957, 75.025 155.372 C 75.038 163.143, 75.466 177.375, 75.975 187 C 76.590 198.617, 76.563 204.836, 75.896 205.500 C 74.407 206.983, 71.049 202.120, 71.022 198.441 C 70.992 194.252, 68.955 191.730, 65.944 192.155 C 64.053 192.422, 63.528 193.066, 63.624 195 C 63.797 198.496, 67.941 213.299, 69.069 214.450 C 69.581 214.973, 70 216.858, 70 218.641 C 70 220.424, 70.450 222.160, 71 222.500 C 71.550 222.840, 72 223.827, 72 224.694 C 72 225.561, 73.125 227.313, 74.500 228.588 C 75.875 229.862, 77 231.810, 77 232.917 C 77 234.024, 78.013 235.452, 79.250 236.090 C 80.487 236.728, 82.400 238.032, 83.500 238.987 C 84.600 239.942, 86.536 240.975, 87.803 241.282 C 91.532 242.186, 98.381 238.469, 102.582 233.260 C 106.822 228.004, 130.744 204, 131.743 204 C 132.088 204, 133.364 204.933, 134.579 206.074 C 135.793 207.215, 138.135 208.902, 139.783 209.824 C 141.431 210.746, 145.615 213.300, 149.081 215.500 C 154.901 219.195, 157.063 221.060, 161.386 226.114 C 162.274 227.151, 164.289 228, 165.865 228 C 168.935 228, 174 224.652, 174 222.624 C 174 220.817, 168.232 215.737, 162.500 212.495 C 156.461 209.080, 151.033 205.214, 149 202.881 C 148.175 201.935, 145.588 200.179, 143.250 198.979 C 139.117 196.858, 137.672 193.939, 140.032 192.480 C 140.599 192.130, 141.994 189.863, 143.132 187.444 C 144.995 183.480, 145.141 181.831, 144.606 170.772 C 143.667 151.360, 142.334 139.549, 140.727 136.406 C 139.910 134.808, 138.947 132.132, 138.587 130.460 C 138.227 128.787, 137.055 125.975, 135.981 124.210 C 134.399 121.608, 133.385 121, 130.625 121 C 126.150 121, 123.493 123.431, 121.571 129.285 C 118.385 138.990, 119.855 141.971, 126.030 138.323 C 128.382 136.934, 129.137 136.869, 130.434 137.946 C 132.905 139.996, 132.275 141.695, 128.786 142.393 C 127.019 142.746, 124.363 144.194, 122.885 145.610 C 118.906 149.422, 117.009 148.463, 114.756 141.500 C 112.442 134.351, 111.460 133, 108.578 133 C 103.811 133, 102.798 137.545, 105.569 146.500 C 109.136 158.027, 111.421 184.004, 109 185.500 C 107.400 186.489, 107.840 191.811, 109.603 192.798 C 112.898 194.642, 110.656 197.427, 103 201.001 C 101.088 201.894, 100.487 206.677, 102.050 208.560 C 104.061 210.983, 108.365 210.272, 111.500 207 C 114.635 203.728, 116 203.238, 116 205.386 C 116 207.073, 89.807 234, 88.166 234 C 87.421 234, 86.937 231.744, 86.826 227.750 C 86.730 224.313, 86.504 220.150, 86.322 218.500 C 86.141 216.850, 85.748 204.925, 85.450 192 C 84.614 155.767, 84.138 142.940, 83.426 137.500 C 83.067 134.750, 82.633 123.872, 82.463 113.327 C 82.292 102.781, 81.746 93.331, 81.250 92.327 C 80.753 91.322, 80.243 84.916, 80.117 78.091 C 79.885 65.596, 79.047 62.110, 75.224 57.750 C 73.687 55.996, 68.887 55.512, 66 56.820 M 60.535 74.733 C 58.041 77.335, 56 80.054, 56 80.773 C 56 81.492, 55.092 83.309, 53.982 84.810 C 52.224 87.189, 52.087 88.184, 52.916 92.557 C 53.439 95.317, 53.727 99.351, 53.555 101.521 C 53.100 107.245, 53.671 108, 58.452 108 C 64.288 108, 66 110.112, 66 117.310 C 66 122.537, 65.808 123.010, 63.445 123.603 C 61.582 124.071, 60.256 123.649, 58.552 122.049 L 56.216 119.854 54.608 122.150 C 53.587 123.607, 52.976 126.647, 52.934 130.473 C 52.876 135.824, 51.360 147.192, 49.418 156.848 C 48.831 159.763, 48.987 160.150, 50.622 159.839 C 52.315 159.517, 55.222 155.072, 59.400 146.415 C 61.586 141.886, 66.498 137, 68.866 137 C 72.642 137, 73.193 133.924, 72.512 116.675 C 72.160 107.779, 71.465 97.350, 70.967 93.500 C 70.469 89.650, 70.045 84.475, 70.025 82 C 69.976 75.930, 68.228 70, 66.488 70 C 65.708 70, 63.029 72.130, 60.535 74.733 M 126.876 78.222 C 125.127 79.285, 121.517 82.258, 118.853 84.828 C 114.745 88.792, 114.010 90.073, 114.005 93.282 C 114.001 96.290, 114.461 97.238, 116.250 97.910 C 118.683 98.825, 120.736 97.908, 131.500 91.101 C 136.574 87.892, 137.549 86.805, 137.820 84.060 C 138.430 77.883, 132.571 74.758, 126.876 78.222 M 141.898 89.250 C 136.142 94.442, 128.811 100, 127.717 100 C 127.163 100, 123.288 101.664, 119.105 103.698 C 114.922 105.733, 109.475 107.645, 107 107.948 C 102.620 108.485, 102.492 108.601, 102.185 112.320 C 102.012 114.421, 102.405 116.783, 103.058 117.570 C 104.354 119.131, 109.556 119.527, 110.420 118.130 C 110.716 117.651, 113.780 116.231, 117.229 114.975 C 120.678 113.718, 124.932 111.634, 126.683 110.345 C 128.434 109.055, 130.459 107.962, 131.183 107.916 C 131.907 107.870, 136.765 105.507, 141.978 102.666 C 152.740 96.801, 154.720 94.082, 151.779 89.210 C 149.453 85.356, 146.199 85.369, 141.898 89.250 M 118.601 159.250 C 118.969 162.137, 119.440 164.692, 119.646 164.927 C 120.284 165.654, 126 159.704, 126 158.313 C 126 157.591, 125.155 157, 124.122 157 C 123.090 157, 121.685 156.325, 121 155.500 C 118.693 152.720, 117.922 153.925, 118.601 159.250 M 130.231 168.550 C 129.004 169.410, 128 170.972, 128 172.022 C 128 174.300, 124.788 176.232, 121.711 175.806 C 119.666 175.523, 119.488 175.932, 119.336 181.250 C 119.214 185.524, 119.523 187, 120.538 187 C 121.289 187, 124.873 184.925, 128.500 182.389 L 135.097 177.778 134.798 172.717 C 134.467 167.096, 133.530 166.240, 130.231 168.550" stroke="none" fill="black" fill-rule="evenodd"/>
</svg>