<svg xmlns="http://www.w3.org/2000/svg" width="300" height="300" viewBox="0 0 300 300" version="1.1">
	<path d="M 81.500 58.947 C 79.300 59.940, 76.409 61.934, 75.076 63.377 C 71.986 66.720, 70.438 66.689, 68.797 63.250 C 67.337 60.189, 62.888 59.018, 60.440 61.050 C 58.874 62.349, 58.449 69.541, 59.885 70.429 C 60.371 70.729, 60.994 72.219, 61.269 73.738 C 61.544 75.257, 62.775 79.200, 64.005 82.500 C 66.210 88.417, 66.233 88.998, 65.686 124.739 C 65.381 144.671, 64.812 161.494, 64.423 162.125 C 64.033 162.756, 63.364 166.024, 62.937 169.386 C 62.510 172.749, 61.693 177.300, 61.121 179.500 C 60.550 181.700, 59.586 186.200, 58.980 189.500 C 58.374 192.800, 57.230 197.790, 56.439 200.588 C 55.648 203.386, 55 206.853, 55 208.291 C 55 209.729, 54.597 211.940, 54.104 213.203 C 53.611 214.466, 52.631 217.525, 51.926 220 C 51.221 222.475, 49.995 225.271, 49.201 226.213 C 47.530 228.195, 48.250 231, 50.430 231 C 54.072 231, 58.861 222.717, 61.416 212 C 64.297 199.916, 66.052 193.620, 67.059 191.764 C 67.576 190.809, 68.007 189.234, 68.015 188.264 C 68.048 184.387, 70.914 178.594, 74.361 175.436 C 77.242 172.796, 78 171.360, 78 168.537 C 78 166.577, 78.411 164.191, 78.914 163.236 C 80.787 159.679, 88.485 144.386, 89.965 141.283 C 92.381 136.219, 94.605 137.031, 95.352 143.250 C 95.699 146.137, 95.987 149.985, 95.991 151.800 C 95.996 153.614, 96.686 156.426, 97.525 158.047 C 98.894 160.695, 98.891 161.237, 97.497 163.365 C 96.194 165.353, 96.028 168.385, 96.462 182.179 C 96.747 191.223, 97.435 201.019, 97.990 203.948 C 99.444 211.616, 99.302 219, 97.700 219 C 95.482 219, 94 216.741, 94 213.359 C 94 211.576, 93.550 209.840, 93 209.500 C 92.450 209.160, 92 207.389, 92 205.563 C 92 201.460, 89.851 199.270, 88.006 201.493 C 87.130 202.549, 86.958 204.607, 87.441 208.255 C 87.824 211.140, 88.502 216.425, 88.949 220 C 89.986 228.300, 90.788 230.782, 93.665 234.594 C 94.949 236.296, 96 238.130, 96 238.670 C 96 240.528, 100.660 244.068, 102.285 243.444 C 106.588 241.793, 106.733 240.326, 106.289 203 C 106.057 183.475, 105.468 167.094, 104.981 166.597 C 104.464 166.071, 104.537 164.865, 105.155 163.710 C 105.766 162.569, 105.918 160.190, 105.513 158.113 C 105.125 156.126, 104.392 149.100, 103.885 142.500 C 103.377 135.900, 102.529 126, 102.002 120.500 C 101.474 115, 100.597 102.850, 100.052 93.500 C 99.507 84.150, 98.608 74.700, 98.054 72.500 C 97.501 70.300, 97.037 67.078, 97.024 65.339 C 97.007 63.054, 96.147 61.460, 93.923 59.589 C 90.348 56.580, 87.113 56.413, 81.500 58.947 M 157.667 59.667 C 157.300 60.033, 157 61.164, 157 62.180 C 157 63.196, 156.616 64.809, 156.147 65.764 C 154.538 69.040, 152.213 74.503, 150.939 78 C 149.343 82.383, 148.125 84, 146.420 84 C 145.448 84, 145.005 81.919, 144.792 76.354 C 144.528 69.431, 144.252 68.522, 141.875 66.752 C 139.739 65.161, 138.853 65.008, 137.125 65.933 C 135.173 66.978, 135 67.895, 135 77.220 C 135 97.500, 140.847 110.143, 151.093 112.017 C 157.340 113.159, 162.346 110.557, 171.485 101.419 C 179.506 93.397, 179.917 92.243, 175.698 89.581 C 173.611 88.265, 169.493 90.354, 161.905 96.578 C 155.218 102.063, 151.784 102.417, 149.430 97.864 C 148.084 95.261, 148.021 94.329, 149.064 92.380 C 149.755 91.089, 151.147 89.771, 152.158 89.450 C 153.169 89.129, 155.281 86.984, 156.852 84.683 C 160.173 79.819, 167 65.692, 167 63.683 C 167 60.473, 159.911 57.422, 157.667 59.667 M 77.773 73.218 L 73.047 77.500 74.078 82.500 C 74.645 85.250, 75.082 91.606, 75.049 96.623 C 74.980 107.227, 75.347 107.782, 83.198 108.942 C 86.114 109.373, 89.354 110.086, 90.398 110.527 C 92.087 111.239, 92.217 111.007, 91.583 108.414 C 91.191 106.811, 90.461 99.425, 89.961 92 C 88.921 76.541, 87.235 69.641, 84.395 69.218 C 83.289 69.053, 80.533 70.718, 77.773 73.218 M 90.677 118.750 C 90.434 119.162, 89.923 120.957, 89.541 122.739 C 88.709 126.617, 87.684 127.389, 84.443 126.575 C 82.550 126.100, 82 125.305, 82 123.040 C 82 119.406, 81.068 118.784, 77.944 120.336 C 75.764 121.418, 75.423 122.412, 74.792 129.525 C 74.403 133.911, 73.792 139.679, 73.434 142.342 C 72.303 150.768, 74.920 150.722, 79.496 142.234 C 81.057 139.338, 83.731 135.288, 85.438 133.234 C 90.947 126.605, 94.249 121.092, 93.649 119.527 C 93.029 117.912, 91.418 117.491, 90.677 118.750 M 157.500 131.351 C 151.532 134.133, 150.473 135.324, 149.585 140.250 C 148.783 144.702, 146.696 145.155, 143.821 141.500 C 141.340 138.345, 139.483 138.333, 137.435 141.458 C 136.098 143.500, 135.851 146.767, 135.982 160.708 C 136.068 169.944, 136.119 178.625, 136.094 180 C 136.069 181.375, 136.375 191.725, 136.774 203 C 137.558 225.128, 138.223 228, 142.567 228 C 145.467 228, 146.763 225.624, 145.012 223.515 C 143.571 221.778, 144.498 180.519, 146.093 175.394 C 146.731 173.345, 146.710 171.366, 146.030 169.579 C 145.339 167.762, 145.329 166.253, 146 165 C 146.550 163.972, 147 161.093, 147 158.601 C 147 155.096, 147.452 153.828, 148.997 153.002 C 150.095 152.414, 151.889 150.178, 152.983 148.033 C 155.253 143.585, 158.439 141, 161.654 141 C 164.304 141, 168 145.783, 168 149.213 C 168 150.536, 168.661 152.491, 169.468 153.559 C 170.276 154.626, 170.951 156.936, 170.968 158.691 C 170.986 160.446, 171.450 162.160, 172 162.500 C 172.550 162.840, 173 164.252, 173 165.638 C 173 167.908, 172.707 168.094, 170.059 167.513 C 167.123 166.868, 163.813 168.044, 161.196 170.661 C 160.456 171.402, 157.859 173.377, 155.425 175.052 C 150.758 178.263, 149.630 181.618, 152.434 183.945 C 153.575 184.892, 155.551 184.395, 162.090 181.520 C 166.612 179.532, 170.916 178.138, 171.656 178.421 C 172.606 178.786, 173 181.013, 173 186.026 C 173 189.925, 173.520 196.265, 174.156 200.116 C 175.117 205.934, 175.075 207.332, 173.906 208.394 C 172.293 209.860, 155.527 215.032, 152.450 215.013 C 147.914 214.985, 146.676 219.202, 150.131 222.910 C 152.483 225.435, 152.728 225.419, 164.500 221.960 C 168.350 220.829, 172.158 219.812, 172.962 219.702 C 175.132 219.402, 175.433 222.864, 173.429 225.078 C 171.071 227.684, 172.860 232, 176.298 232 C 180.189 232, 183 227.757, 183 221.887 C 183 217.908, 183.549 216.137, 185.500 213.818 C 186.875 212.184, 188 210.060, 188 209.098 C 188 208.136, 186.875 206.292, 185.500 205 C 183.304 202.937, 183 201.816, 183 195.786 C 183 192.010, 182.504 184.551, 181.899 179.211 C 181.293 173.870, 180.683 166.125, 180.543 162 C 180.281 154.293, 179.126 148.018, 177.321 144.500 C 176.756 143.400, 175.466 140.783, 174.454 138.684 C 172.337 134.293, 166.730 128.995, 164.215 129.010 C 163.272 129.015, 160.250 130.069, 157.500 131.351" stroke="none" fill="black" fill-rule="evenodd"/>
</svg>