<svg xmlns="http://www.w3.org/2000/svg" width="300" height="300" viewBox="0 0 300 300" version="1.1">
	<path d="M 147.016 37.480 C 146.253 38.400, 145.853 41.711, 145.960 46.230 C 147.054 92.480, 146.941 138.861, 145.708 150 C 143.306 171.698, 144.704 185.889, 149.774 191.250 C 152.886 194.541, 156.002 194.765, 158.595 191.884 C 159.643 190.720, 162.382 188.469, 164.683 186.881 C 166.984 185.294, 169.175 182.984, 169.552 181.748 C 169.928 180.512, 170.866 178.781, 171.636 177.902 C 172.625 176.772, 173.103 172.971, 173.268 164.932 C 173.483 154.391, 173.359 153.531, 171.566 153.171 C 169.048 152.665, 167 155.545, 167 159.590 C 167 163.219, 160.367 176.735, 157.788 178.362 C 156.857 178.949, 155.737 179.070, 155.298 178.630 C 154.369 177.700, 154.458 136.296, 155.397 132.556 C 155.744 131.170, 157.270 129.395, 158.787 128.610 C 161.516 127.199, 166.221 118.630, 167.425 112.877 C 167.771 111.225, 169.028 109.817, 170.819 109.075 C 172.617 108.330, 174.685 106.004, 176.444 102.747 C 180.507 95.225, 185.113 90.039, 187.750 90.018 C 190.523 89.996, 190.579 91.442, 188 96.500 C 186.900 98.658, 186 100.948, 186 101.589 C 186 102.230, 185.325 103.315, 184.500 104 C 183.675 104.685, 183 105.883, 183 106.663 C 183 107.443, 182.156 109.300, 181.124 110.790 C 180.093 112.281, 177.109 116.799, 174.494 120.830 C 169.279 128.871, 165.366 133, 162.960 133 C 160.513 133, 159 135.119, 159 138.545 C 159 142.983, 161.648 144.990, 167.579 145.048 C 170.285 145.074, 173.903 145.862, 175.619 146.798 C 177.334 147.734, 180.565 149.506, 182.799 150.735 C 192.930 156.309, 209.252 168.934, 215.442 175.983 C 217.124 177.899, 220.387 181.207, 222.693 183.335 C 225.142 185.594, 227.014 188.292, 227.193 189.817 C 227.424 191.785, 228.409 192.773, 231.188 193.827 C 234.602 195.121, 235.104 195.062, 237.938 193.044 C 239.622 191.845, 241 190.020, 241 188.988 C 241 187.949, 237.193 183.405, 232.471 178.806 C 227.781 174.238, 219.553 166.225, 214.187 161 C 208.045 155.018, 202.307 150.433, 198.694 148.620 C 195.539 147.036, 192.704 145.330, 192.394 144.829 C 192.084 144.328, 188.912 142.538, 185.343 140.852 C 181.775 139.166, 178.586 137.084, 178.256 136.225 C 177.926 135.366, 178.469 133.276, 179.461 131.582 C 180.454 129.887, 182.407 126.250, 183.801 123.500 C 185.195 120.750, 187.835 116.312, 189.668 113.638 C 191.500 110.964, 193 108.171, 193 107.432 C 193 106.693, 194.125 104.431, 195.500 102.405 C 196.875 100.379, 198 97.749, 198 96.560 C 198 95.372, 198.358 93.973, 198.796 93.450 C 199.234 92.927, 200.182 90.759, 200.903 88.632 C 202.085 85.147, 202.021 84.504, 200.258 82.132 C 197.176 77.985, 194.192 78.326, 188.770 83.444 C 183.745 88.187, 180.177 90.510, 179.286 89.620 C 178.988 89.321, 178.620 83.322, 178.469 76.289 C 178.151 61.489, 175.997 49.202, 173.386 47.293 C 169.657 44.566, 164.036 46.579, 160.997 51.730 C 159.700 53.929, 158.363 55.025, 157.241 54.811 C 155.812 54.538, 155.447 53.188, 155.207 47.278 C 154.947 40.899, 154.618 39.845, 152.322 38.039 C 149.230 35.607, 148.624 35.543, 147.016 37.480 M 68.677 51.286 C 67.125 52.504, 63.384 55.730, 60.364 58.455 C 55.908 62.477, 54.556 63.211, 53.187 62.354 C 52.259 61.773, 51.361 60.139, 51.191 58.722 C 50.755 55.097, 49.054 54.038, 44.990 54.863 C 41.666 55.539, 41.486 55.794, 41.198 60.224 C 40.981 63.561, 41.535 66.093, 43.158 69.187 C 47.742 77.928, 48.085 79.868, 48.076 97 C 48.065 116.797, 46.742 130.322, 41.862 160.500 C 37.209 189.283, 31.793 210, 28.922 210 C 27.813 210, 27.002 212.842, 27.638 214.500 C 28.381 216.435, 30.361 216.397, 34.643 214.365 C 40.475 211.598, 42.484 206.618, 47.300 183 C 48.413 177.540, 49.064 176.287, 51.372 175.167 C 52.882 174.434, 54.595 172.634, 55.177 171.167 C 55.759 169.700, 57.697 165.575, 59.483 162 C 61.269 158.425, 63.025 154.262, 63.384 152.750 C 63.744 151.238, 64.480 150, 65.019 150 C 65.559 150, 66 149.127, 66 148.059 C 66 146.991, 66.450 145.840, 67 145.500 C 67.550 145.160, 68 143.839, 68 142.563 C 68 141.288, 68.675 139.685, 69.500 139 C 70.325 138.315, 71 136.267, 71 134.449 C 71 130.730, 73.660 127.260, 75.274 128.874 C 75.826 129.426, 76.387 133.842, 76.522 138.688 C 76.656 143.535, 77.353 157.625, 78.071 170 C 79.841 200.531, 79.846 205.500, 78.109 205.500 C 77.344 205.500, 76.401 204.825, 76.014 204 C 75.627 203.175, 74.791 201.494, 74.155 200.264 C 73.520 199.034, 73 197.148, 73 196.073 C 73 194.998, 72.608 193.876, 72.129 193.580 C 71.650 193.284, 71.007 191.783, 70.699 190.244 C 69.999 186.743, 66.179 181.771, 64.830 182.605 C 62.856 183.825, 65.974 206.209, 68.508 209.009 C 69.329 209.916, 70 211.356, 70 212.210 C 70 213.064, 71.584 214.971, 73.519 216.447 C 75.455 217.923, 78.220 220.227, 79.665 221.566 C 82.806 224.476, 83.739 224.540, 86.961 222.065 C 89.154 220.379, 89.443 219.346, 89.626 212.541 C 89.739 208.343, 90.326 204.312, 90.930 203.584 C 94.135 199.722, 108.465 196.913, 119.500 197.983 C 128.297 198.836, 128.352 198.852, 138.772 203.651 C 142.771 205.493, 146.948 207, 148.052 207 C 149.816 207, 152.893 208.138, 165.500 213.456 C 173.880 216.991, 192.646 224.023, 193.671 224.012 C 194.315 224.005, 198.576 225.575, 203.140 227.500 C 207.705 229.425, 212.428 231, 213.636 231 C 214.845 231, 215.983 231.353, 216.167 231.785 C 216.574 232.743, 240.384 240.441, 248 242.076 C 255.782 243.747, 262.833 245.031, 267.607 245.648 C 271.208 246.113, 271.979 245.843, 273.857 243.454 C 278.192 237.944, 275.165 234.025, 266.527 233.965 C 260.842 233.925, 253.591 232.401, 240.500 228.495 C 235.550 227.018, 230.257 225.576, 228.738 225.290 C 227.219 225.004, 225.729 224.371, 225.429 223.885 C 225.128 223.398, 223.550 223, 221.921 223 C 220.293 223, 216.192 221.875, 212.808 220.500 C 209.424 219.125, 206.052 218, 205.314 218 C 204.576 218, 203.191 217.610, 202.236 217.134 C 201.281 216.658, 198.925 215.708, 197 215.022 C 182.531 209.873, 167.515 203.834, 161.864 200.893 C 159.864 199.852, 157.722 199, 157.103 199 C 156.484 199, 153.846 198.048, 151.239 196.884 C 148.633 195.720, 145.150 194.193, 143.500 193.492 C 138.714 191.457, 124.905 187, 123.386 187 C 121.195 187, 121.753 185.045, 125 181.347 C 126.650 179.468, 128 177.127, 128 176.145 C 128 175.163, 126.313 172.388, 124.250 169.978 C 120.527 165.628, 120.501 165.535, 120.595 157.048 C 120.660 151.137, 121.210 147.493, 122.377 145.237 C 123.643 142.789, 123.899 140.721, 123.401 136.964 C 123.035 134.209, 122.346 131.714, 121.868 131.419 C 121.391 131.123, 121 130.097, 121 129.137 C 121 125.058, 109.614 117.783, 105.626 119.313 C 102.259 120.605, 105.262 129.464, 109.911 131.952 C 111.021 132.547, 112.427 134.713, 113.035 136.766 C 114.008 140.055, 113.820 141.215, 111.451 146.500 C 109.972 149.800, 108.754 154.110, 108.745 156.079 C 108.722 160.757, 111.017 170.073, 112.686 172.079 C 113.409 172.947, 114 174.147, 114 174.745 C 114 175.891, 106.776 182, 105.421 182 C 104.985 182, 103.700 182.871, 102.564 183.935 C 101.383 185.042, 98.264 186.165, 95.273 186.561 C 90.344 187.212, 89.993 187.111, 89.105 184.777 C 88.588 183.416, 87.687 173.572, 87.102 162.901 C 86.126 145.069, 84.866 127.477, 83.385 111 C 83.063 107.425, 82.444 94.600, 82.010 82.500 C 81.575 70.400, 80.891 59.019, 80.490 57.210 C 79.814 54.158, 74.660 48.946, 72.406 49.036 C 71.908 49.056, 70.230 50.068, 68.677 51.286 M 165.436 64.104 C 165.060 64.711, 162.901 66.037, 160.638 67.051 L 156.523 68.893 156.200 75.697 C 156.022 79.438, 155.875 84.525, 155.873 87 C 155.850 114.050, 155.777 113, 157.687 113 C 160.258 113, 168.516 100.427, 169.344 95.252 C 170.127 90.356, 169.020 89.286, 165.536 91.568 C 162.317 93.678, 160.358 92.905, 159.546 89.207 C 158.670 85.220, 162.284 79, 165.476 79 C 169.031 79, 170.422 76.650, 169.105 72.872 C 168.497 71.128, 168 68.194, 168 66.351 C 168 63.042, 166.762 61.958, 165.436 64.104 M 63.940 70.750 C 57.607 77.945, 57.473 78.428, 57.829 92.750 L 58.159 106 62.145 106 C 67.096 106, 69.821 107.400, 71.023 110.561 C 72.154 113.536, 75 113.815, 75 110.950 C 75 109.823, 74.350 107.644, 73.556 106.109 C 72.513 104.092, 72.067 99.179, 71.950 88.409 C 71.783 73.143, 70.772 68, 67.936 68 C 67.070 68, 65.272 69.237, 63.940 70.750 M 112.700 92.536 C 110.239 95.916, 110.655 105.783, 113.327 107.396 C 114.856 108.320, 115.629 107.936, 118.077 105.038 C 120.380 102.310, 121 100.602, 121 96.988 C 121 94.464, 120.460 91.860, 119.800 91.200 C 117.865 89.265, 114.639 89.872, 112.700 92.536 M 56.621 121.157 C 56.366 122.446, 55.645 127.550, 55.020 132.500 C 54.394 137.450, 53.648 142.738, 53.361 144.250 C 52.947 146.438, 53.215 146.999, 54.671 146.997 C 55.926 146.995, 57.991 144.326, 61.250 138.495 C 63.862 133.821, 66 129.653, 66 129.233 C 66 128.814, 66.927 126.741, 68.059 124.628 C 69.192 122.515, 69.980 120.659, 69.809 120.505 C 69.639 120.351, 66.707 119.907, 63.292 119.519 C 57.328 118.841, 57.067 118.905, 56.621 121.157" stroke="none" fill="black" fill-rule="evenodd"/>
</svg>