<svg xmlns="http://www.w3.org/2000/svg" width="300" height="300" viewBox="0 0 300 300" version="1.1">
	<path d="M 159.663 31.604 L 155.827 35.186 153.503 33.002 C 149.666 29.398, 147.580 30.651, 147 36.909 C 146.404 43.332, 144.683 44.960, 134.960 48.290 L 128.500 50.503 128.500 55.001 C 128.500 59.336, 128.617 59.511, 131.718 59.811 C 133.488 59.982, 137.033 59.195, 139.595 58.061 C 142.158 56.927, 145.042 56, 146.005 56 C 148.484 56, 150.336 58.606, 149.669 61.156 C 149.358 62.348, 149.543 64.147, 150.082 65.153 C 150.777 66.452, 150.609 67.856, 149.501 69.998 C 148.056 72.792, 147.649 72.967, 143.976 72.380 C 141.397 71.968, 139.479 72.187, 138.490 73.008 C 136.665 74.523, 132 83.575, 132 85.602 C 132 87.460, 127.870 93.954, 125.130 96.405 C 121.988 99.215, 122.453 104.102, 126.045 106.024 C 128.741 107.467, 130.578 106.331, 133.908 101.161 C 137.354 95.812, 139.266 94.416, 144.487 93.436 L 148.220 92.736 147.514 97.118 C 147.126 99.528, 146.176 102.497, 145.404 103.715 C 144.632 104.933, 144 106.785, 144 107.830 C 144 108.875, 143.213 110.803, 142.250 112.115 C 141.287 113.427, 139.607 116.300, 138.515 118.500 C 135.939 123.691, 129.520 134.097, 119.544 149.250 C 113.753 158.046, 104.034 168.148, 101.694 167.803 C 98.956 167.399, 97.124 159.525, 96.969 147.500 C 96.906 142.550, 96.431 136.025, 95.915 133 C 95.399 129.975, 94.532 123.338, 93.988 118.250 C 92.435 103.714, 90.941 90.043, 90.179 83.391 C 89.793 80.030, 89.002 76.655, 88.419 75.891 C 87.837 75.126, 86.748 72.560, 86 70.189 C 83.627 62.670, 78.400 61.919, 70.763 68 C 67.999 70.200, 64.932 72, 63.946 72 C 62.960 72, 60.759 70.606, 59.055 68.901 C 54.432 64.278, 51.087 66.627, 54.193 72.316 C 55.580 74.857, 56.433 79.788, 58.462 97 C 60.900 117.676, 60.266 147.186, 56.883 170.500 C 55.967 176.815, 55.157 180.489, 51.813 193.500 C 50.378 199.083, 48.365 204.285, 44.268 213 C 42.328 217.125, 40.290 221.482, 39.738 222.683 C 38.669 225.007, 39.314 228, 40.884 228 C 43.037 228, 51.119 217.170, 53.569 211 C 53.897 210.175, 55.028 207.770, 56.083 205.655 C 57.137 203.541, 58.014 201.066, 58.032 200.155 C 58.049 199.245, 58.724 197.626, 59.532 196.559 C 60.339 195.491, 61 193.605, 61 192.368 C 61 191.130, 61.450 189.840, 62 189.500 C 62.550 189.160, 63 187.430, 63 185.656 C 63 181.855, 66.563 171.183, 68.587 168.921 C 69.364 168.053, 70 166.927, 70 166.418 C 70 165.910, 71.555 163.306, 73.456 160.633 C 75.520 157.730, 77.182 153.972, 77.582 151.303 C 77.950 148.845, 79.545 144.164, 81.126 140.901 C 82.707 137.638, 84 134.267, 84 133.411 C 84 132.464, 84.686 131.988, 85.750 132.196 C 87.180 132.475, 87.438 133.396, 87.162 137.239 C 86.977 139.824, 87.295 143.416, 87.870 145.220 C 88.445 147.024, 89.171 158.175, 89.484 170 C 89.797 181.825, 90.471 193.525, 90.983 196 C 93.502 208.191, 89.467 212.875, 86.143 201.619 C 84.664 196.608, 82.784 194.485, 80.578 195.332 C 79.458 195.762, 79.229 197.315, 79.569 202.194 C 79.811 205.662, 80.405 209.400, 80.890 210.500 C 81.375 211.600, 82.353 214.525, 83.064 217 C 83.774 219.475, 84.950 222.210, 85.678 223.079 C 86.405 223.947, 87 224.969, 87 225.350 C 87 226.798, 92.317 234, 93.383 233.995 C 93.997 233.993, 95.965 232.618, 97.755 230.940 C 100.041 228.798, 100.877 227.235, 100.563 225.695 C 100.318 224.488, 99.835 215.255, 99.491 205.177 C 98.768 183.977, 98.050 186.146, 109.669 174.414 C 113.979 170.061, 119.401 164.250, 121.717 161.500 C 127.827 154.246, 142 132.841, 142 130.868 C 142 129.941, 143.963 126.773, 146.363 123.828 C 152.369 116.455, 155.604 108.919, 156.472 100.283 C 157.283 92.199, 158.183 91.332, 164.016 93.005 C 169.736 94.645, 183.585 94.273, 185.429 92.429 C 187.287 90.570, 187.303 90.435, 185.970 87.945 C 183.910 84.095, 179.521 82.853, 168.905 83.116 C 163.005 83.261, 158.538 82.938, 157.920 82.320 C 157.249 81.649, 157.071 76.866, 157.420 68.889 C 158.495 44.323, 158.103 46.470, 162.224 42.574 C 166.191 38.823, 167.357 35.990, 166.828 31.379 C 166.368 27.364, 164.131 27.434, 159.663 31.604 M 59 80.835 C 59 83.577, 60.018 86, 61.170 86 C 62.574 86, 61.719 79.726, 60.250 79.244 C 59.530 79.007, 59 79.681, 59 80.835 M 71.728 82.073 C 67.493 85.564, 67.104 88.190, 69.113 99.727 C 70.129 105.564, 70.559 106.328, 74.070 108.544 C 78.922 111.607, 80 113.649, 80 119.779 C 80 123.267, 79.470 125.170, 78.171 126.345 C 75.893 128.407, 73.122 128.481, 72.362 126.500 C 71.106 123.227, 70 125.305, 70 130.941 C 70 134.209, 69.550 137.160, 69 137.500 C 68.450 137.840, 68 139.891, 68 142.059 C 68 146.564, 70.374 147.562, 72.022 143.750 C 72.557 142.512, 73.394 140.825, 73.882 140 C 74.369 139.175, 75.374 137.150, 76.115 135.500 C 76.856 133.850, 78.967 130.612, 80.806 128.305 C 84.118 124.151, 84.145 124.031, 83.656 115.805 C 82.940 103.746, 79.825 82.143, 78.491 79.986 C 77.454 78.308, 75.602 78.879, 71.728 82.073 M 168.035 117.771 C 165.674 119.683, 165.652 119.820, 167.313 122.355 C 168.255 123.792, 170.257 125.234, 171.763 125.560 C 176.472 126.577, 206.184 140.963, 213 145.525 C 219.822 150.092, 229.088 153.355, 233.707 152.818 C 235.440 152.616, 236.994 151.503, 237.964 149.768 C 239.406 147.187, 239.352 146.899, 236.995 144.556 C 235.366 142.937, 231.551 141.291, 226 139.812 C 221.325 138.567, 215.025 136.037, 212 134.190 C 202.331 128.287, 178.135 116.828, 174.237 116.305 C 171.438 115.930, 169.843 116.306, 168.035 117.771 M 190.974 140.676 C 187.504 143.595, 187.208 145.973, 190 148.500 C 191.100 149.495, 192 151.394, 192 152.718 C 192 156.561, 186.958 165.805, 182.827 169.537 C 179.311 172.714, 178.681 172.921, 174.266 172.358 C 171.645 172.024, 168.946 171.236, 168.268 170.607 C 167.154 169.574, 165.843 163.537, 164.336 152.500 C 163.732 148.076, 160.627 144, 157.861 144 C 155.327 144, 153.719 147.591, 154.341 151.861 C 155.369 158.920, 156.628 164.589, 157.471 165.954 C 157.941 166.713, 158.672 170.297, 159.095 173.917 C 160.958 189.827, 161.865 196.667, 162.421 199 C 163.876 205.106, 165.983 225.251, 165.977 233 C 165.970 241.569, 164.451 248.949, 162.239 251.161 C 160.172 253.228, 156.325 250.193, 153.530 244.288 C 150.399 237.677, 147.684 237.279, 147.184 243.359 C 146.840 247.526, 148.974 253.079, 152.374 256.870 C 155.313 260.146, 161.559 264, 163.929 264 C 166.395 264, 170.989 258.117, 171.032 254.906 C 171.049 253.583, 171.724 251.626, 172.532 250.559 C 174.594 247.832, 174.555 214.095, 172.480 205.500 C 170.820 198.624, 170.507 183.423, 172.007 182.496 C 172.868 181.963, 178.487 185.146, 180 187.024 C 180.275 187.365, 185.225 190.866, 191 194.804 C 203.533 203.349, 212.927 210.647, 213.579 212.345 C 213.839 213.023, 220.453 220.092, 228.276 228.054 C 236.099 236.016, 243.156 243.874, 243.957 245.515 C 247.253 252.267, 249.651 253.378, 253.893 250.116 C 255.725 248.707, 256.138 247.686, 255.655 245.761 C 254.279 240.280, 217.131 202.094, 202 190.607 C 190.621 181.968, 187.626 178.755, 188.470 176.094 C 188.836 174.942, 189.673 174, 190.330 174 C 190.988 174, 191.970 173.135, 192.513 172.078 C 193.056 171.020, 195.251 167.369, 197.392 163.964 C 200.679 158.733, 201.360 156.697, 201.779 150.846 C 202.220 144.683, 202.030 143.661, 200.051 141.555 C 196.754 138.045, 194.374 137.814, 190.974 140.676 M 133.500 179.209 C 128.865 180.834, 127 182.963, 127 186.632 C 127 190.374, 130.494 193.515, 133.410 192.396 C 134.474 191.988, 136.010 192.601, 137.551 194.048 L 140 196.349 142.500 194 C 144.608 192.019, 145 190.744, 145 185.861 C 145 181.159, 144.636 179.876, 143.066 179.035 C 140.691 177.764, 137.455 177.823, 133.500 179.209 M 136.018 207.481 C 134.716 208.866, 132.651 210, 131.429 210 C 130.102 210, 128.059 211.406, 126.354 213.494 C 124.784 215.415, 122.292 218.480, 120.816 220.305 C 117.123 224.871, 116.381 228.406, 118.452 231.568 C 119.670 233.426, 120.836 234.036, 122.736 233.810 C 124.866 233.557, 126.697 231.345, 132.677 221.795 C 139.834 210.367, 141.585 206.110, 139.442 205.341 C 138.861 205.132, 137.320 206.095, 136.018 207.481" stroke="none" fill="black" fill-rule="evenodd"/>
</svg>