<svg xmlns="http://www.w3.org/2000/svg" width="300" height="300" viewBox="0 0 300 300" version="1.1">
	<path d="M 141.655 25.829 C 139.844 27.830, 139.397 34.509, 141.007 35.504 C 142.914 36.683, 145.102 42.103, 144.472 44.087 C 144.125 45.181, 142.062 47.198, 139.887 48.571 C 135.473 51.358, 128 58.901, 128 60.570 C 128 62.406, 123.059 66.462, 122.073 65.437 C 121.578 64.922, 119.446 62.399, 117.336 59.832 C 113.657 55.356, 106.453 49, 105.058 49 C 104.691 49, 102.701 50.548, 100.635 52.440 L 96.880 55.880 98.940 57.940 C 100.073 59.073, 101.787 60, 102.750 60.001 C 103.713 60.001, 107.142 62.956, 110.371 66.567 C 113.600 70.178, 117.983 74.284, 120.111 75.692 C 123.588 77.993, 124.284 78.125, 127.003 76.999 C 128.772 76.266, 130.699 74.330, 131.647 72.331 C 134.153 67.051, 146.464 54.432, 150.802 52.696 C 152.898 51.857, 155.205 50.457, 155.929 49.585 C 156.653 48.713, 158 48, 158.922 48 C 159.845 48, 161.143 47.457, 161.807 46.793 C 162.750 45.850, 163.353 45.924, 164.559 47.131 C 165.855 48.427, 165.904 49.146, 164.864 51.588 C 164.181 53.190, 162.524 55.711, 161.181 57.190 C 155.737 63.190, 162.140 65.140, 168.739 59.491 C 171.980 56.717, 173.064 54.928, 173.919 50.942 C 175.464 43.740, 175.308 42.520, 172.411 39.077 C 169.404 35.503, 164.935 34.988, 159.462 37.585 C 157.625 38.457, 155.376 39.019, 154.465 38.835 C 152.769 38.492, 150.042 32.129, 150.015 28.450 C 149.983 24.071, 144.735 22.425, 141.655 25.829 M 40.241 40.750 C 39.226 43.301, 39.509 50.624, 40.887 57.500 C 43.069 68.386, 45.737 98.315, 45.478 109 C 45.218 119.751, 43.499 136.316, 42.365 139 C 41.629 140.743, 40.234 147.360, 39.099 154.500 C 36.718 169.466, 29.208 195.352, 25.854 200.154 C 24.834 201.614, 24 203.308, 24 203.918 C 24 204.528, 23.603 205.809, 23.117 206.764 C 20.475 211.957, 19.831 213.917, 20.441 214.905 C 21.731 216.992, 23.986 215.982, 26.368 212.250 C 27.684 210.188, 29.916 207.431, 31.328 206.124 C 32.741 204.818, 34.200 202.343, 34.570 200.624 C 34.941 198.906, 36.030 195.925, 36.990 194 C 39.536 188.896, 42.411 179.835, 44.977 168.825 C 46.808 160.968, 48.013 158.107, 51.389 153.593 C 53.676 150.536, 56.434 145.746, 57.520 142.949 C 58.605 140.152, 60.282 137.150, 61.247 136.277 C 62.211 135.404, 63 133.842, 63 132.805 C 63 129.921, 66.952 122.817, 68.304 123.272 C 69.128 123.550, 69.522 127.066, 69.572 134.587 C 69.612 140.589, 70.158 150.675, 70.785 157 C 72.499 174.298, 73.178 195, 72.030 195 C 70.623 195, 68.284 190.085, 67.491 185.465 C 65.487 173.784, 63.127 170.704, 61.196 177.250 C 60.099 180.970, 60.133 189.467, 61.250 190.583 C 61.663 190.996, 61.996 192.271, 61.992 193.417 C 61.980 196.374, 65.040 208.871, 66.751 212.853 C 68.227 216.288, 74.624 224, 75.998 224 C 76.418 224, 78.115 222.616, 79.769 220.925 L 82.775 217.851 82.341 195.675 C 82.102 183.479, 81.492 169.675, 80.985 165 C 80.479 160.325, 79.601 148.625, 79.034 139 C 78.134 123.699, 77.148 107.692, 75.401 80 C 75.141 75.875, 74.203 69.125, 73.318 65 C 72.432 60.875, 71.495 55.925, 71.235 54 C 70.975 52.075, 70.307 49.932, 69.749 49.238 C 69.192 48.544, 68.007 46.519, 67.118 44.738 C 65.723 41.946, 64.910 41.457, 61.214 41.191 C 58.128 40.968, 55.919 41.505, 53.325 43.108 L 49.722 45.335 47.111 42.158 C 44.228 38.651, 41.314 38.054, 40.241 40.750 M 53.947 57.075 C 52.138 59.614, 51.886 60.878, 52.499 64.325 C 52.907 66.621, 53.524 74.108, 53.870 80.962 L 54.500 93.424 57.658 94.067 C 59.394 94.420, 62.060 95.688, 63.580 96.885 C 67.033 99.601, 67.997 98.365, 66.920 92.601 C 66.484 90.267, 65.878 84.380, 65.574 79.519 C 64.862 68.143, 60.653 54, 57.979 54 C 56.966 54, 55.151 55.384, 53.947 57.075 M 122.240 83.225 C 120.098 84.258, 120.012 84.713, 120.600 91.907 C 121.297 100.446, 119.048 116.039, 116.358 121.324 C 115.469 123.071, 113.224 126.585, 111.371 129.134 C 109.517 131.683, 108 134.411, 108 135.196 C 108 136.850, 102.754 141, 100.663 141 C 99.883 141, 98.685 140.325, 98 139.500 C 96.355 137.517, 91.116 137.585, 88.869 139.619 C 87.153 141.172, 87.159 141.390, 89.017 145.034 C 90.431 147.806, 91.800 149.017, 94.085 149.519 C 98.657 150.523, 113 160.194, 113 162.272 C 113 162.844, 111.875 164.786, 110.500 166.589 C 109.125 168.392, 108 170.356, 108 170.953 C 108 171.551, 103.251 176.760, 97.447 182.530 C 91.429 188.511, 87.186 193.492, 87.574 194.120 C 88.865 196.208, 94.836 194.157, 100.671 189.621 C 107.794 184.084, 108.796 183.139, 116.007 175.160 C 121.155 169.463, 121.939 168.945, 123.718 170.056 C 126.113 171.551, 130.547 170.623, 131.380 168.452 C 131.744 167.503, 131 165.978, 129.490 164.579 C 128.121 163.309, 127 161.844, 127 161.323 C 127 159.822, 130.880 152.192, 131.993 151.505 C 132.547 151.162, 133 150.113, 133 149.173 C 133 148.233, 134.034 145.897, 135.298 143.982 C 139.322 137.887, 142.892 127.742, 143.562 120.500 C 144.153 114.108, 144.017 113.326, 142.001 111.501 C 140.433 110.082, 138.303 109.479, 134.647 109.420 L 129.500 109.336 129.774 105.418 C 129.925 103.263, 130.150 97.751, 130.274 93.169 C 130.471 85.923, 130.247 84.654, 128.559 83.419 C 126.301 81.768, 125.324 81.738, 122.240 83.225 M 172.099 89.619 C 168.334 93.404, 164.105 98.351, 162.700 100.614 C 161.295 102.879, 158.428 105.625, 156.323 106.723 C 151.960 109.001, 152.174 107.346, 153.484 128.692 C 154.004 137.172, 153.837 150.209, 153.018 165.192 C 151.400 194.755, 151.655 196.054, 159.811 199.723 C 165.758 202.399, 178.391 204.946, 185.884 204.980 C 190.061 204.999, 191.592 205.289, 201.970 208.031 C 208.085 209.647, 238.592 210.321, 244.666 208.975 C 251.359 207.491, 256.235 204.003, 260.307 197.788 C 265.217 190.293, 266.006 183.079, 262.709 175.821 C 261.379 172.895, 259.558 167.720, 258.661 164.322 C 256.490 156.092, 243.264 128.747, 241.703 129.260 C 239.109 130.113, 239.801 137.395, 243.109 144.051 C 244.872 147.598, 246.675 151.850, 247.116 153.500 C 247.557 155.150, 248.708 158.975, 249.673 162 C 250.944 165.983, 251.438 170.916, 251.464 179.887 L 251.500 192.274 247.712 195.343 C 244.022 198.332, 243.606 198.421, 231.712 198.783 C 219.415 199.157, 210.897 198.482, 192.500 195.674 C 187 194.835, 179.016 193.719, 174.757 193.194 C 163.725 191.834, 162.374 190.703, 161.511 182.106 C 161.125 178.263, 161.091 174.662, 161.435 174.105 C 161.779 173.548, 162.307 161.934, 162.607 148.296 C 163.388 112.822, 162.929 114.865, 172.332 105.036 C 180.056 96.963, 183 95.549, 183 99.910 C 183 100.994, 183.450 102.160, 184 102.500 C 185.105 103.183, 185.396 137.968, 184.350 144.301 C 183.830 147.445, 183.356 148.050, 181.611 147.801 C 179.880 147.554, 179.443 146.693, 179.181 143.020 C 178.824 137.993, 177.618 136, 174.934 136 C 172.059 136, 170.080 139.689, 170.719 143.858 C 171.026 145.861, 171.603 147.950, 172.001 148.500 C 172.399 149.050, 172.995 150.637, 173.325 152.027 C 174.083 155.213, 180.673 163, 182.611 163 C 183.412 163, 185.528 161.537, 187.315 159.750 C 190.847 156.216, 192.158 151.754, 193.856 137.500 C 195.280 125.545, 193.994 95.594, 191.969 93.569 C 191.436 93.036, 191 91.864, 191 90.965 C 191 88.665, 185.528 84.056, 181.947 83.339 C 179.247 82.799, 178.255 83.432, 172.099 89.619 M 66 103 C 66 103.550, 66.450 104, 67 104 C 67.550 104, 68 103.550, 68 103 C 68 102.450, 67.550 102, 67 102 C 66.450 102, 66 102.450, 66 103 M 54.921 106.250 C 54.877 106.388, 54.651 109.875, 54.417 114 C 54.183 118.125, 53.493 123.662, 52.883 126.304 C 51.015 134.401, 54.182 134.136, 58.377 125.844 C 61.450 119.771, 62.762 117.533, 65.250 114.127 C 67.816 110.613, 67.461 109, 64.122 109 C 62.540 109, 60.685 108.325, 60 107.500 C 58.978 106.269, 55.209 105.341, 54.921 106.250 M 128.174 126.314 C 126.978 127.587, 126 128.969, 126 129.385 C 126 129.801, 124.229 132.247, 122.064 134.821 C 119.899 137.394, 117.650 140.625, 117.066 142 C 116.482 143.375, 115.462 145.258, 114.799 146.185 C 113.847 147.514, 113.882 148.412, 114.965 150.435 C 117.811 155.753, 120.838 152.695, 128.263 137 C 132.557 127.923, 133.593 124, 131.693 124 C 130.954 124, 129.370 125.042, 128.174 126.314" stroke="none" fill="black" fill-rule="evenodd"/>
</svg>