<svg xmlns="http://www.w3.org/2000/svg" width="300" height="300" viewBox="0 0 300 300" version="1.1">
	<path d="M 79.500 2.082 C 77.300 3.257, 74.825 4.798, 74 5.508 C 71.999 7.228, 67.580 9.648, 55 15.916 C 49.225 18.794, 43.306 21.790, 41.846 22.574 C 40.386 23.358, 37.814 24, 36.131 24 C 34.112 24, 32.712 24.669, 32.018 25.966 C 31.160 27.570, 31.495 28.522, 33.846 31.154 L 36.726 34.377 41.395 32.593 C 43.962 31.613, 46.677 31.046, 47.428 31.334 C 48.486 31.740, 48.845 35.404, 49.029 47.679 C 49.541 81.836, 49.240 91.491, 47.091 109.844 C 46.061 118.643, 46.118 119.356, 48.067 122.094 C 50.400 125.370, 53.199 125.779, 58.404 123.604 C 63.049 121.664, 78.613 118.780, 93 117.195 C 96.575 116.801, 100.093 116.101, 100.818 115.638 C 101.543 115.176, 105.777 114.629, 110.228 114.423 C 116.869 114.116, 118.739 113.655, 120.660 111.850 C 123.598 109.089, 123.624 106.920, 120.750 104.289 C 117.601 101.407, 114.535 100.651, 113.084 102.399 C 112.424 103.194, 109.998 104.123, 107.692 104.465 C 105.387 104.807, 99.594 105.802, 94.819 106.677 C 90.044 107.551, 85.489 108.018, 84.696 107.713 C 83.752 107.351, 82.834 104.291, 82.040 98.863 C 81.373 94.300, 80.173 89.301, 79.373 87.754 C 77.630 84.383, 78.083 83.410, 81.738 82.674 C 91.960 80.616, 95.247 79.480, 97.495 77.232 C 100.488 74.239, 100.601 72.964, 98.141 69.925 L 96.281 67.629 90.288 69.815 C 81.232 73.117, 77.567 72.401, 81.400 68.079 C 82.170 67.210, 85.115 62.225, 87.944 57 C 90.774 51.775, 93.619 46.729, 94.266 45.786 C 95.243 44.365, 94.937 43.542, 92.472 40.960 C 89.430 37.775, 86.602 37.426, 80.380 39.469 C 78.352 40.135, 78.240 39.794, 77.811 31.611 C 77.489 25.486, 76.884 22.530, 75.681 21.200 C 74.756 20.178, 74 18.877, 74 18.307 C 74 17.281, 77.969 14.373, 85.304 10.025 C 88.734 7.992, 89.077 7.414, 88.804 4.135 C 88.550 1.096, 88.090 0.455, 86 0.223 C 84.625 0.070, 81.700 0.907, 79.500 2.082 M 57.740 25.540 C 54.505 28.540, 54.493 28.630, 56.782 32.500 C 57.962 34.495, 58.645 38.009, 58.821 42.993 C 59.116 51.325, 60.034 53.159, 62.726 50.797 C 63.702 49.941, 65.963 48.500, 67.750 47.595 C 71.210 45.842, 71.709 44.193, 69.837 40.696 C 69.197 39.500, 68.510 36.609, 68.309 34.270 C 67.874 29.212, 64.474 23, 62.141 23 C 61.227 23, 59.247 24.143, 57.740 25.540 M 123.594 28 C 120.686 30.750, 117.900 33.015, 117.403 33.033 C 115.550 33.102, 111.804 37.046, 112.319 38.388 C 113.148 40.549, 118.971 43.045, 121.628 42.379 C 124.755 41.594, 124.679 43.091, 121.239 50 L 118.500 55.500 111.242 55.146 L 103.985 54.793 102.492 58.364 C 100.548 63.017, 100.542 62.996, 103.750 63.022 C 105.263 63.034, 107.596 63.887, 108.935 64.916 L 111.369 66.787 109.435 69.644 C 108.371 71.215, 107.275 73.034, 107 73.688 C 105.846 76.430, 96.572 86.212, 94.313 87.071 C 90.511 88.517, 91.496 92.403, 95.769 92.815 C 98.604 93.088, 99.901 92.301, 105.541 86.886 C 109.117 83.451, 113.259 78.719, 114.746 76.370 C 118.895 69.812, 120.917 69.143, 127.245 72.237 C 130.135 73.650, 134.750 75.600, 137.500 76.569 C 140.250 77.538, 142.928 78.706, 143.450 79.165 C 143.973 79.624, 145.323 80.010, 146.450 80.022 C 147.578 80.034, 149.625 80.924, 151 82 C 152.375 83.076, 154.237 83.966, 155.138 83.978 C 156.038 83.990, 159.649 85.345, 163.161 86.988 C 166.673 88.631, 171.786 90.267, 174.523 90.623 C 180.098 91.347, 183.293 93.501, 182.500 96 C 182.205 96.931, 182.831 98.442, 183.920 99.428 C 185.781 101.112, 186.002 101.112, 188.856 99.426 C 193.410 96.736, 194.537 93.939, 192.586 90.166 C 191.702 88.457, 189.971 86.508, 188.740 85.835 C 185.950 84.310, 171.373 78.979, 168 78.249 C 166.625 77.952, 164.612 77.099, 163.527 76.354 C 162.443 75.610, 160.620 75, 159.477 75 C 158.335 75, 156.973 74.581, 156.450 74.068 C 155.928 73.555, 151.675 71.590, 147 69.700 C 134.077 64.477, 127 60.739, 127 59.136 C 127 58.340, 128.125 56.214, 129.500 54.411 C 130.875 52.608, 132 50.808, 132 50.411 C 132 50.014, 133.114 48.228, 134.476 46.443 C 138.448 41.235, 141.246 33.125, 140.481 29.034 C 139.543 24.009, 138.344 23, 133.318 23 C 129.364 23, 128.304 23.545, 123.594 28 M 74.885 55.837 C 73.573 56.847, 70.025 58.515, 67 59.543 C 63.975 60.571, 60.955 61.811, 60.288 62.297 C 59.486 62.883, 59.117 66.029, 59.198 71.591 C 59.303 78.744, 59.572 80, 60.998 80 C 63.370 80, 69.804 72.732, 74.771 64.440 C 80.384 55.069, 80.431 51.565, 74.885 55.837 M 63.982 90.426 C 58.581 93.971, 57.770 95.482, 57.232 103.001 C 56.708 110.321, 57.822 113.389, 60.614 112.318 C 61.421 112.008, 64.651 111.246, 67.791 110.625 C 74.093 109.377, 74.123 109.311, 72.087 101.320 C 71.501 99.021, 70.944 95.084, 70.849 92.570 C 70.647 87.232, 69.429 86.852, 63.982 90.426 M 114.585 127.773 C 111.881 129.273, 109.364 131.175, 108.990 132 C 108.616 132.825, 107.765 134.548, 107.098 135.828 C 106.151 137.646, 106.150 138.475, 107.091 139.610 C 108.057 140.774, 107.920 141.348, 106.398 142.499 C 102.184 145.690, 99.070 143.322, 98.927 136.816 C 98.847 133.194, 96.369 128.266, 93.819 126.657 C 91.503 125.197, 87.374 128.169, 85.505 132.642 C 83.540 137.346, 83.562 137.513, 86.547 140.281 C 88.599 142.184, 89.375 144.376, 90.543 151.571 C 92.458 163.366, 92.355 171.388, 90.133 183.500 C 88.424 192.817, 84.931 205.221, 82.885 209.236 C 82.398 210.191, 82 211.713, 82 212.618 C 82 214.386, 78.103 221.282, 76.793 221.833 C 76.357 222.017, 76 223.003, 76 224.024 C 76 225.046, 75.550 226.160, 75 226.500 C 73.427 227.472, 73.832 231.998, 75.551 232.658 C 77.207 233.293, 82 229.464, 82 227.506 C 82 226.876, 83.575 224.520, 85.500 222.271 C 87.425 220.022, 89 217.503, 89 216.673 C 89 215.843, 90.125 212.924, 91.500 210.187 C 92.875 207.449, 94 204.557, 94 203.758 C 94 202.960, 94.671 200.963, 95.490 199.320 C 96.310 197.677, 98.110 191.880, 99.490 186.439 C 101.547 178.332, 102 174.150, 102 163.273 C 102 155.973, 102.406 150, 102.901 150 C 103.397 150, 104.732 148.425, 105.867 146.500 C 107.003 144.575, 108.681 143, 109.595 143 C 110.509 143, 113.001 141.425, 115.132 139.500 C 117.262 137.575, 119.610 136, 120.348 136 C 122.728 136, 124.547 139.330, 126.357 147 C 127.331 151.125, 128.630 155.522, 129.244 156.770 C 130.078 158.468, 130.061 159.339, 129.174 160.226 C 128.260 161.140, 127.345 160.640, 125.178 158.044 C 122.465 154.795, 122.183 154.700, 117.047 155.308 C 110.675 156.063, 108 158.176, 108 162.455 C 108 167.760, 111.553 169.619, 115.267 166.259 C 117.106 164.594, 117.275 164.621, 119.108 166.885 C 122.723 171.349, 122.500 173.306, 117.513 180.876 C 111.730 189.653, 104.696 197.559, 101.173 199.240 C 97.734 200.880, 97.198 204.762, 99.995 207.765 C 101.141 208.994, 103.090 210, 104.327 210 C 107.529 210, 115.234 201.777, 119.319 194 C 121.197 190.425, 123.441 186.150, 124.305 184.500 C 125.170 182.850, 126.614 179.786, 127.514 177.690 C 128.789 174.723, 129.631 173.949, 131.325 174.190 C 133.347 174.478, 133.579 175.346, 134.616 186.500 C 135.230 193.100, 136.054 201.200, 136.446 204.500 C 136.839 207.800, 137.353 216.350, 137.589 223.500 C 137.825 230.650, 138.094 237.400, 138.187 238.500 C 138.980 247.868, 135.874 248.396, 132.296 239.500 C 127.331 227.153, 123.541 220.500, 121.473 220.500 C 119.827 220.500, 119.550 221.081, 119.802 224 C 120.101 227.466, 122.326 235.641, 124.021 239.500 C 124.504 240.600, 125.624 243.732, 126.509 246.460 C 127.464 249.402, 129.869 253.291, 132.424 256.022 C 134.791 258.553, 137.255 261.609, 137.899 262.812 C 139.545 265.887, 143.093 265.556, 146.488 262.012 C 149.058 259.330, 149.220 258.780, 148.073 256.637 C 147.060 254.743, 147.048 253.778, 148.018 251.966 C 148.844 250.423, 148.996 248.029, 148.486 244.591 C 148.071 241.791, 147.624 230.950, 147.493 220.500 C 147.362 210.050, 146.743 199.025, 146.118 196 C 145.493 192.975, 144.336 184.875, 143.547 178 C 141.480 159.990, 136.272 136.938, 133.685 134.352 C 133.308 133.975, 133 132.695, 133 131.508 C 133 130.320, 131.958 128.370, 130.686 127.174 C 127.354 124.044, 120.872 124.286, 114.585 127.773" stroke="none" fill="black" fill-rule="evenodd"/>
</svg>