<svg xmlns="http://www.w3.org/2000/svg" width="300" height="300" viewBox="0 0 300 300" version="1.1">
	<path d="M 117.898 17.011 C 113.416 21.784, 103.981 29, 102.221 29 C 101.766 29, 99.618 30.255, 97.447 31.790 C 95.276 33.324, 90.800 35.433, 87.500 36.477 C 84.200 37.521, 79.025 39.506, 76 40.889 C 72.975 42.271, 69.423 43.649, 68.107 43.951 C 64.685 44.736, 63.356 47.272, 64.571 50.697 C 65.447 53.166, 66.039 53.485, 69.533 53.371 C 71.715 53.299, 75.975 52.342, 79 51.244 C 89.115 47.570, 89.717 47.570, 90.266 51.258 C 90.532 53.041, 91.224 55.850, 91.804 57.500 C 94.631 65.540, 95.149 71.857, 94.982 96.194 C 94.887 110.112, 94.344 126.475, 93.777 132.555 C 92.877 142.211, 92.956 144.014, 94.399 146.805 C 96.559 150.981, 100.316 151.195, 102.215 147.250 C 103.246 145.107, 104.125 144.569, 106.198 144.812 C 109.261 145.172, 113.654 143.145, 116.407 140.102 C 118.897 137.351, 119.626 137.448, 121.203 140.738 C 124.210 147.011, 130.317 142.914, 131.347 133.934 C 132.377 124.965, 131.268 89.213, 129.629 78.500 C 127.517 64.701, 126.309 61.109, 122.497 57.297 C 117.291 52.091, 110.990 53.250, 107.469 60.061 C 106.633 61.677, 105.388 63, 104.702 63 C 103.305 63, 101 52.419, 101 46.002 C 101 42.644, 101.411 41.794, 103.403 41.037 C 104.724 40.534, 106.074 39.689, 106.403 39.157 C 106.731 38.626, 109.363 36.840, 112.250 35.188 C 118.270 31.745, 128.486 21.582, 129.278 18.249 C 129.663 16.631, 129.099 15.437, 127.272 13.999 C 125.874 12.900, 124.251 12, 123.666 12 C 123.081 12, 120.485 14.255, 117.898 17.011 M 111.474 74.276 C 110.109 77.258, 108.094 80.510, 106.996 81.504 C 105.585 82.781, 105 84.583, 105 87.655 C 105 92.761, 106.387 93.228, 110.722 89.581 C 112.303 88.250, 115.150 86.747, 117.048 86.241 C 119.915 85.476, 120.449 84.911, 120.200 82.910 C 118.505 69.290, 118.568 69.510, 116.227 69.178 C 114.336 68.909, 113.540 69.763, 111.474 74.276 M 116.009 98.491 C 114.115 100.444, 110.977 102.820, 109.033 103.771 C 106.816 104.856, 105.381 106.338, 105.180 107.750 C 104.723 110.970, 107.221 110.623, 111.492 106.873 C 113.451 105.153, 116.729 103.170, 118.777 102.466 C 121.895 101.394, 122.500 100.727, 122.500 98.357 C 122.500 94.279, 120.042 94.330, 116.009 98.491 M 114 117.295 C 111.525 119.632, 108.278 122.434, 106.784 123.522 C 104.833 124.943, 103.874 126.741, 103.381 129.906 L 102.695 134.311 106.097 133.668 C 108.269 133.257, 110.766 131.619, 113 129.140 C 114.925 127.004, 117.737 124.472, 119.250 123.513 C 121.567 122.045, 122 121.079, 122 117.385 C 122 111.635, 120.018 111.613, 114 117.295 M 167.250 136.030 C 165.540 136.718, 165 137.745, 165 140.313 C 165 144.242, 166.724 146.085, 173.018 148.882 C 175.670 150.061, 179.606 153.237, 182.660 156.662 C 187.499 162.089, 187.997 162.388, 190.660 161.456 C 195.265 159.846, 195.027 155.895, 190.016 150.738 C 178.383 138.769, 175.359 136.017, 173.832 136.009 C 172.914 136.004, 171.564 135.803, 170.832 135.563 C 170.099 135.322, 168.488 135.532, 167.250 136.030 M 130.500 149.368 C 129.400 150.013, 126.700 151.703, 124.500 153.124 C 118.884 156.752, 116.184 157.436, 113.391 155.941 C 111.358 154.854, 110.725 154.939, 108.953 156.542 C 107.472 157.883, 107.062 159.111, 107.506 160.878 C 108.028 162.961, 107.113 164.311, 101.605 169.580 C 93.930 176.923, 75.817 189.711, 68 193.306 C 61.109 196.474, 52.646 199, 48.920 199 C 47.104 199, 45.686 199.718, 45.011 200.979 C 42.976 204.782, 46.323 212, 50.121 212 C 54.090 212, 78.267 199.895, 83.200 195.438 C 85.293 193.547, 87.573 192, 88.267 192 C 88.961 192, 92.310 189.750, 95.708 187 C 99.107 184.250, 102.194 182, 102.569 182 C 103.891 182, 101.954 188.372, 99.708 191.416 C 98.456 193.112, 96.867 195.625, 96.176 197 C 95.485 198.375, 93.380 202.200, 91.498 205.500 C 89.616 208.800, 87.098 213.290, 85.902 215.477 C 80.545 225.275, 69.820 238, 66.919 238 C 65.998 238, 64.607 237.041, 63.829 235.870 L 62.415 233.739 59.585 236.173 C 55.737 239.483, 56.604 243.761, 61.862 247.405 C 63.922 248.832, 65.898 250, 66.254 250 C 68.096 250, 76.578 243.177, 81.528 237.713 C 87.651 230.955, 98.332 215.271, 101.872 207.839 C 103.093 205.276, 104.652 202.964, 105.338 202.701 C 108.015 201.673, 121.067 206.155, 132.500 212.029 C 139.100 215.420, 146.802 219.060, 149.616 220.119 C 152.430 221.177, 158.280 223.890, 162.616 226.147 C 166.952 228.404, 175.900 233.028, 182.500 236.422 C 195.059 242.881, 210.378 252.501, 213.124 255.654 C 214.008 256.669, 215.009 258.673, 215.349 260.106 C 216.046 263.050, 222.777 268, 226.084 268 C 227.254 268, 229.548 269.125, 231.182 270.500 C 235.931 274.496, 239.412 273.306, 241.868 266.847 C 242.690 264.684, 242.523 263.879, 240.961 262.464 C 238.586 260.315, 228.221 252.937, 217 245.408 C 212.325 242.271, 207.338 238.913, 205.919 237.947 C 204.499 236.980, 199.324 234.119, 194.419 231.588 C 189.513 229.057, 182.593 225.414, 179.039 223.493 C 175.486 221.572, 172.067 220, 171.442 220 C 170.817 220, 169.268 219.100, 168 218 C 166.732 216.900, 165.045 216, 164.251 216 C 163.458 216, 161.614 215.177, 160.154 214.170 C 157.918 212.629, 148 207.153, 140.500 203.319 C 131.465 198.701, 118.219 194, 114.239 194 C 111.074 194, 110.736 192.531, 112.981 188.534 C 114.091 186.557, 115 183.828, 115 182.470 C 115 181.111, 115.391 180, 115.868 180 C 116.346 180, 116.975 178.221, 117.267 176.047 C 117.905 171.291, 120.811 166.947, 124.666 164.987 C 126.225 164.194, 130.088 161.596, 133.250 159.214 C 139.844 154.248, 140.950 150.692, 136.435 148.975 C 133.402 147.822, 133.104 147.842, 130.500 149.368" stroke="none" fill="black" fill-rule="evenodd"/>
</svg>