<svg xmlns="http://www.w3.org/2000/svg" width="300" height="300" viewBox="0 0 300 300" version="1.1">
	<path d="M 120.607 15.095 C 119.069 16.304, 118 18.147, 118 19.587 C 118 22.742, 114.074 28.808, 111.500 29.631 C 110.400 29.982, 108.022 31.559, 106.215 33.135 C 104.409 34.711, 102.551 36, 102.088 36 C 100.604 36, 99.410 33.640, 98.042 28 C 95.986 19.528, 95.059 18.098, 90.792 16.820 C 87.576 15.856, 86.658 15.914, 85.414 17.157 C 84.170 18.401, 84.102 19.493, 85.014 23.562 C 85.619 26.260, 86.733 29.152, 87.490 29.989 C 88.247 30.825, 89.166 33.774, 89.534 36.541 L 90.201 41.573 85.031 44.387 C 79.236 47.541, 78.275 49.051, 79.633 52.867 C 80.456 55.178, 81.117 55.500, 85.035 55.500 L 89.500 55.500 89.500 61.823 C 89.500 66.865, 89.883 68.428, 91.388 69.534 C 95.198 72.335, 97.246 68.920, 99.505 56 C 100.370 51.049, 102.069 48, 103.963 48 C 104.857 48, 107.294 46.200, 109.378 44 C 114.905 38.168, 115.999 38.622, 116.005 46.750 C 116.009 52.449, 116.395 53.967, 118.481 56.500 C 120.558 59.021, 121.114 59.260, 121.961 58 C 122.516 57.175, 122.976 55.195, 122.985 53.600 C 123.029 45.170, 126.817 32.513, 133.284 19.185 C 134.579 16.517, 133.129 15.041, 129.184 15.015 C 127.911 15.007, 126.046 14.560, 125.041 14.022 C 123.670 13.288, 122.563 13.556, 120.607 15.095 M 100.277 76.199 C 99.699 76.915, 98.933 79.525, 98.576 82 C 97.659 88.340, 95.859 95.329, 94.853 96.450 C 94.384 96.973, 94 98.174, 94 99.119 C 94 100.064, 93.363 102.112, 92.584 103.669 C 91.806 105.226, 90.684 107.625, 90.092 109 C 89.499 110.375, 88.580 112.175, 88.048 113 C 78.714 127.484, 76.087 136.416, 79.808 141.011 C 81.455 143.045, 82.011 143.153, 86.058 142.219 C 94.273 140.323, 100.920 137.371, 103.040 134.676 C 104.198 133.204, 105.611 132, 106.179 132 C 108.927 132, 124.087 117.444, 126.992 112.016 C 128.615 108.982, 130.156 109.540, 134.005 114.555 C 135.927 117.060, 139.263 121.223, 141.417 123.805 C 146.107 129.426, 150.113 137.654, 151.492 144.500 C 152.426 149.132, 152.715 149.500, 155.428 149.500 C 157.829 149.500, 158.507 148.960, 159.192 146.500 C 160.683 141.148, 157.446 127.618, 153.909 124.417 C 152.859 123.467, 151.990 121.972, 151.977 121.095 C 151.964 120.218, 150.389 117.763, 148.477 115.640 C 146.565 113.516, 145 111.209, 145 110.512 C 145 109.815, 144.341 108.698, 143.536 108.029 C 141.311 106.184, 135 96.354, 135 94.736 C 135 92.420, 131.573 90, 128.294 90 C 124.282 90, 122.613 92.124, 123.386 96.246 C 124.415 101.728, 122.580 105.440, 115.345 112.519 C 108.487 119.229, 96.575 128, 94.320 128 C 91.929 128, 91.977 125.996, 94.464 122.057 C 95.859 119.848, 97 117.685, 97 117.252 C 97 116.819, 98.048 114.897, 99.329 112.982 C 101.638 109.530, 106.722 95.056, 108.958 85.569 C 109.992 81.181, 109.910 80.355, 108.211 78.069 C 106.079 75.200, 101.885 74.211, 100.277 76.199 M 124 166.659 C 121.525 167.520, 117.724 169.523, 115.553 171.112 C 113.382 172.700, 111.081 174, 110.440 174 C 109.798 174, 107.239 176.175, 104.753 178.833 C 101.503 182.308, 100.034 184.837, 99.528 187.833 C 98.474 194.072, 96.831 193.467, 91.500 184.881 C 85.281 174.863, 82.866 172, 80.635 172 C 74.210 172, 74.753 181.205, 81.656 189.291 C 84.081 192.132, 86.726 194.827, 87.533 195.278 C 88.340 195.730, 89 196.518, 89 197.030 C 89 199.617, 96.704 209.429, 102.999 214.861 C 110.568 221.392, 111.567 221.766, 115.800 219.651 C 119.982 217.561, 129.190 216.074, 144.679 214.987 C 160.545 213.874, 161.042 213.763, 162.794 210.958 C 165.551 206.543, 159.480 202.932, 151.743 204.384 C 142.931 206.038, 141.219 206.163, 140.622 205.198 C 140.272 204.631, 141.619 201.425, 143.616 198.073 C 146.954 192.469, 147.257 191.315, 147.373 183.739 C 147.489 176.221, 147.263 175.191, 144.794 171.963 C 143.056 169.692, 140.373 167.812, 137.294 166.708 C 131.516 164.638, 129.835 164.631, 124 166.659 M 125.751 177.957 C 121.542 178.774, 112.496 186.092, 107.250 192.923 C 104.752 196.176, 104 198.143, 104 201.423 C 104 207.484, 106.104 209.130, 112.832 208.334 C 115.706 207.993, 118.297 207.329, 118.588 206.857 C 118.880 206.386, 119.879 205.983, 120.809 205.962 C 122.842 205.915, 130.613 198.934, 134.327 193.817 C 136.369 191.003, 137 188.964, 137 185.181 C 137 180.531, 136.792 180.129, 133.599 178.614 C 131.728 177.726, 130.041 177.052, 129.849 177.115 C 129.657 177.178, 127.813 177.557, 125.751 177.957" stroke="none" fill="black" fill-rule="evenodd"/>
</svg>