<svg xmlns="http://www.w3.org/2000/svg" width="300" height="300" viewBox="0 0 300 300" version="1.1">
	<path d="M 109.257 24.250 C 108.233 25.545, 107.737 27.387, 105.703 37.453 C 104.642 42.701, 104.027 43.729, 100.500 46.146 C 98.300 47.653, 95.425 49.025, 94.111 49.193 C 91.913 49.475, 91.546 48.858, 89.525 41.483 C 86.877 31.820, 83.282 25.149, 80.307 24.379 C 77.080 23.544, 75.762 24.687, 77.090 27.168 C 77.882 28.648, 77.883 29.517, 77.093 30.307 C 75.397 32.003, 75.778 34.756, 78.569 40.975 C 80.264 44.752, 81.030 48.007, 80.819 50.540 C 80.507 54.296, 80.342 54.444, 73.239 57.311 C 65.359 60.492, 63.685 62.818, 65.852 67.574 C 67.197 70.525, 69.871 70.676, 73.284 67.991 C 74.689 66.886, 77.112 65.728, 78.669 65.416 L 81.500 64.850 81.500 71.652 C 81.500 76.937, 81.839 78.521, 83.019 78.756 C 85.986 79.346, 88.022 76.548, 89.186 70.280 C 90.180 64.931, 90.871 63.635, 94.118 61.025 C 98.083 57.839, 102.434 55.767, 103.314 56.647 C 103.599 56.933, 103.586 60.440, 103.283 64.442 C 102.923 69.208, 103.111 71.951, 103.830 72.395 C 105.488 73.420, 109 69.351, 109 66.404 C 109 64.977, 109.619 62.614, 110.376 61.154 C 111.133 59.694, 112.684 56.473, 113.823 53.995 C 115.125 51.166, 117.732 48.090, 120.835 45.723 C 126.309 41.549, 128.977 36.779, 127.318 34.132 C 125.767 31.656, 122.296 31.552, 120.807 33.937 C 120.099 35.072, 118.952 36, 118.259 36 C 116.770 36, 116.552 31.395, 118 30.500 C 118.550 30.160, 119 28.772, 119 27.416 C 119 23.754, 111.560 21.336, 109.257 24.250 M 63.200 91.200 C 62.540 91.860, 61.980 94.898, 61.956 97.950 C 61.932 101.002, 61.264 105.300, 60.471 107.500 C 59.679 109.700, 59.023 112.294, 59.015 113.264 C 59.007 114.234, 58.595 115.809, 58.100 116.764 C 57.605 117.719, 55.948 121.650, 54.418 125.500 C 52.004 131.577, 42.582 145.904, 39.917 147.551 C 38.250 148.581, 38.962 152.480, 41.500 156.215 C 42.875 158.238, 44 160.320, 44 160.840 C 44 162.075, 46.491 162.999, 49.832 163.004 C 52.915 163.008, 58.799 166.312, 59.644 168.513 C 59.961 169.340, 59.383 171.197, 58.360 172.642 C 57.337 174.086, 55.375 176.971, 54 179.053 C 47.904 188.283, 30.636 205, 27.198 205 C 25.301 205, 23.973 207.573, 25.224 208.824 C 27.009 210.609, 30.888 210.234, 33.727 208 C 35.126 206.900, 37.551 206, 39.117 206 C 45.742 206, 66.137 180.660, 78.958 156.500 C 80.417 153.750, 82.095 150.600, 82.686 149.500 C 86.085 143.179, 88.025 137.475, 89.600 129.173 C 91.215 120.660, 91.233 119.613, 89.803 117.173 C 88.941 115.703, 86.597 113.670, 84.594 112.656 C 81.391 111.035, 80.344 110.958, 75.922 112.019 C 70.103 113.415, 69.234 112.977, 70.838 109.457 C 72.381 106.069, 72.354 92.754, 70.800 91.200 C 69.253 89.653, 64.747 89.653, 63.200 91.200 M 130 90.935 C 125.732 92.238, 116.790 98.537, 110.024 105.006 C 102.487 112.213, 103.298 107.792, 102.591 145.500 C 101.991 177.501, 102.713 188.793, 105.609 192.694 C 109.171 197.493, 114.878 200.658, 122.390 202 C 133.919 204.061, 171.644 203.137, 182.486 200.528 C 185.794 199.733, 192.550 198.373, 197.500 197.508 C 218.573 193.824, 220.157 193.133, 223.063 186.353 C 225.067 181.678, 225.627 175.111, 224.163 173.450 C 223.702 172.928, 222.743 168.675, 222.031 164 C 221.320 159.325, 220.385 155.050, 219.954 154.500 C 219.524 153.950, 218.404 150.125, 217.466 146 C 216.528 141.875, 214.965 136.025, 213.992 133 C 213.020 129.975, 211.920 126.069, 211.548 124.319 C 210.754 120.585, 208.871 118.728, 206.717 119.555 C 204.951 120.233, 203.603 124.548, 204.635 126.219 C 205.914 128.289, 208.502 141.767, 209.968 154 C 210.463 158.125, 211.587 164.875, 212.468 169 C 213.348 173.125, 213.940 177.610, 213.784 178.968 C 213.394 182.358, 207.740 186, 202.866 186 C 198.567 186, 192.626 187.261, 183 190.217 C 177.833 191.804, 172.296 192.346, 156 192.862 C 132.396 193.608, 124.360 192.884, 119.048 189.530 C 112.688 185.516, 112.493 184.289, 112.561 148.831 C 112.610 122.809, 112.878 116.852, 114.061 115.425 C 114.852 114.470, 118.513 111.284, 122.197 108.344 C 129.898 102.198, 133.151 101.536, 134.901 105.760 C 137.593 112.260, 132.497 144.064, 128.641 144.823 C 127.690 145.011, 127 144.499, 127 143.607 C 127 142.761, 126.231 140.456, 125.292 138.486 C 123.817 135.393, 123.169 134.945, 120.542 135.202 C 117.730 135.478, 117.477 135.823, 117.191 139.780 C 116.890 143.944, 117.975 147.354, 122.500 156.470 C 125.209 161.928, 128.852 162.441, 133.044 157.953 C 134.681 156.200, 136.306 153.582, 136.654 152.133 C 137.003 150.685, 138.094 147.700, 139.080 145.500 C 142.927 136.915, 144 133.631, 144 130.437 C 144 128.612, 144.450 126.840, 144.999 126.500 C 146.306 125.693, 146.183 107.968, 144.825 101.456 C 143.566 95.413, 142.512 93.830, 138.300 91.654 C 134.832 89.862, 133.806 89.773, 130 90.935 M 72 124 C 72 124.550, 70.656 125, 69.013 125 C 65.961 125, 63.369 128.033, 60.219 135.287 C 59.554 136.819, 57.207 140.460, 55.005 143.377 C 52.802 146.295, 51 149.136, 51 149.691 C 51 151.035, 62.812 158, 65.093 158 C 66.392 158, 68.377 154.887, 72.300 146.697 C 78.023 134.748, 80.009 126.921, 77.948 124.438 C 76.598 122.810, 72 122.472, 72 124" stroke="none" fill="black" fill-rule="evenodd"/>
</svg>