<svg xmlns="http://www.w3.org/2000/svg" width="300" height="300" viewBox="0 0 300 300" version="1.1">
	<path d="M 116 31 C 114.900 32.100, 114 33.873, 114 34.941 C 114 36.009, 113.592 37.134, 113.094 37.442 C 112.595 37.750, 111.870 40.364, 111.482 43.251 C 110.650 49.439, 109.843 50.621, 105.093 52.606 C 103.132 53.425, 100.522 55.040, 99.293 56.195 C 96.430 58.884, 94.495 57.495, 93.638 52.138 C 92.727 46.443, 89.216 39.188, 86.513 37.417 C 83.319 35.324, 78.629 35.909, 78.145 38.461 C 77.940 39.539, 78.487 41.789, 79.360 43.461 C 82.658 49.776, 85 56.268, 85 59.098 C 85 61.332, 84.227 62.501, 81.750 64.011 C 79.963 65.101, 77.782 65.994, 76.905 65.996 C 76.028 65.998, 74.475 66.923, 73.454 68.051 C 71.705 69.983, 71.694 70.257, 73.263 72.801 C 74.749 75.210, 75.451 75.472, 79.785 75.237 C 84.636 74.975, 84.642 74.979, 85.571 78.737 C 86.414 82.152, 86.809 82.500, 89.843 82.500 C 92.844 82.500, 93.328 82.091, 94.578 78.500 C 95.344 76.300, 95.977 73.791, 95.985 72.924 C 96.003 71.064, 99.020 68.209, 104.323 65.035 C 109.404 61.993, 110.625 63.174, 109.116 69.669 C 107.318 77.413, 106.837 93, 108.397 93 C 110.557 93, 112.700 89.727, 113.349 85.437 C 113.687 83.202, 114.895 78.477, 116.034 74.937 C 117.172 71.397, 118.555 66.250, 119.106 63.500 C 120.801 55.052, 122.762 51.702, 127.335 49.440 C 130.939 47.657, 131.541 46.891, 131.806 43.755 C 132.206 39.027, 129.206 36.980, 125.468 39.429 C 124.149 40.293, 122.830 41, 122.535 41 C 121.541 41, 121.991 36.409, 123.093 35.307 C 123.884 34.516, 123.714 33.493, 122.478 31.607 C 120.430 28.481, 118.682 28.318, 116 31 M 127.500 110.494 C 119.074 112.791, 105.943 119.589, 98.500 125.508 C 96.300 127.258, 93.531 129.201, 92.347 129.828 C 88.294 131.972, 83.735 138.936, 82.566 144.768 C 81.323 150.973, 79.398 152.641, 78.464 148.321 C 76.969 141.399, 71.532 127.757, 68.772 124.005 C 66.409 120.792, 65.195 119.958, 63.224 120.196 C 57.448 120.892, 57.968 125.652, 65.576 141.738 C 67.459 145.719, 69 149.791, 69 150.788 C 69 151.785, 69.408 153.028, 69.907 153.550 C 70.406 154.072, 71.275 156.075, 71.838 158 C 72.401 159.925, 73.960 164.650, 75.301 168.500 C 76.643 172.350, 78.945 180.450, 80.417 186.500 C 84.503 203.297, 85.126 204.954, 88.180 207.128 C 89.731 208.233, 91 209.720, 91 210.433 C 91 212.802, 95.103 217, 97.419 217 C 98.670 217, 100.999 216.359, 102.596 215.574 C 107.171 213.329, 122.536 209.608, 124.355 210.306 C 125.260 210.653, 126 211.861, 126 212.990 C 126 214.199, 127.009 215.503, 128.455 216.161 C 131.483 217.541, 136.587 215.722, 139.323 212.288 C 140.929 210.272, 142.030 210, 148.597 210 C 155.754 210, 156.090 209.894, 157.066 207.328 C 157.624 205.858, 157.845 204.037, 157.555 203.282 C 156.892 201.555, 150.891 199, 147.498 199 C 144.983 199, 144.945 198.893, 145.599 193.750 C 145.966 190.863, 146.575 188.050, 146.953 187.500 C 147.331 186.950, 148.264 184.475, 149.027 182 C 149.790 179.525, 151.389 175.475, 152.581 173 C 156.572 164.711, 157.798 137.724, 154.513 130.500 C 153.762 128.850, 152.467 125.925, 151.635 124 C 149.194 118.354, 137.894 108.868, 133.846 109.066 C 133.106 109.102, 130.250 109.745, 127.500 110.494 M 128.450 121.831 C 127.927 122.289, 125.588 123.207, 123.250 123.872 C 118.323 125.273, 118.016 126.125, 121.594 128.470 C 123.576 129.768, 124.029 130.681, 123.512 132.335 C 121.133 139.944, 121.133 151.884, 123.512 152.673 C 124.069 152.857, 126.894 150.936, 129.790 148.403 C 133.974 144.742, 135.556 143.923, 137.499 144.410 C 141.454 145.403, 142.478 148.490, 140.119 152.307 C 137.695 156.229, 134.192 159.537, 131.500 160.445 C 127.902 161.659, 122 169.776, 122 173.509 C 122 175.364, 121.614 177.121, 121.141 177.413 C 120.669 177.704, 120.035 180.673, 119.733 184.009 C 119.430 187.345, 118.659 190.706, 118.019 191.477 C 117.379 192.248, 117.001 194.144, 117.178 195.690 C 117.495 198.455, 117.617 198.505, 124.870 198.796 C 132.835 199.116, 136 197.678, 136 193.740 C 136 191.387, 140.906 174.912, 142.027 173.500 C 142.464 172.950, 143.117 170.700, 143.479 168.500 C 143.840 166.300, 144.815 161.350, 145.645 157.500 C 147.277 149.926, 146.916 143.149, 144.406 134.211 C 141.894 125.265, 132.688 118.122, 128.450 121.831 M 108.748 131.295 C 107.235 131.958, 101.947 136.243, 96.998 140.818 C 88.941 148.265, 88 149.504, 88 152.661 C 88 155.398, 87.532 156.310, 85.908 156.734 C 84.142 157.196, 83.896 157.843, 84.324 160.891 C 85.929 172.320, 88.251 178.149, 90.358 176.042 C 90.931 175.469, 92.167 175, 93.105 175 C 94.043 175, 96.586 173.537, 98.756 171.750 C 100.925 169.963, 104.758 167.072, 107.271 165.326 L 111.842 162.152 112.297 148.826 C 112.548 141.497, 113.085 134.262, 113.493 132.750 C 114.332 129.632, 113.282 129.310, 108.748 131.295 M 108.005 177.493 C 105.776 180.180, 97.993 185, 95.884 185 C 94.776 185, 92.972 184.520, 91.877 183.934 C 89.957 182.907, 89.910 183.094, 90.564 189.184 C 90.937 192.658, 91.638 195.928, 92.121 196.450 C 92.605 196.972, 93 198.380, 93 199.578 C 93 200.775, 93.690 202.327, 94.532 203.027 C 96.507 204.666, 103.043 202.685, 105.831 199.601 C 107.394 197.873, 110.103 187.257, 111.315 178.108 C 111.585 176.071, 109.506 175.685, 108.005 177.493" stroke="none" fill="black" fill-rule="evenodd"/>
</svg>