<svg xmlns="http://www.w3.org/2000/svg" width="300" height="300" viewBox="0 0 300 300" version="1.1">
	<path d="M 103.702 39.250 C 102.408 40.213, 101.870 42.853, 101.361 50.750 C 100.997 56.388, 100.417 61, 100.073 61 C 99.728 61, 97.968 62.350, 96.161 64 C 94.355 65.650, 92.266 67, 91.520 67 C 88.831 67, 87 65.750, 87 63.916 C 87 61.983, 82.895 50.273, 80.782 46.176 C 79.868 44.404, 74.426 41, 72.507 41 C 72.370 41, 71.949 43.329, 71.571 46.176 C 70.995 50.515, 71.217 51.803, 72.942 54.136 C 74.074 55.667, 75 57.586, 75 58.400 C 75 59.215, 75.398 60.128, 75.885 60.429 C 76.371 60.729, 77.082 63.063, 77.465 65.616 C 77.848 68.168, 78.375 70.813, 78.636 71.494 C 79.117 72.748, 70.269 78, 67.673 78 C 65.835 78, 63 81.254, 63 83.364 C 63 86.010, 66.029 90, 68.038 90 C 69.033 90, 71.238 88.829, 72.938 87.399 C 77.900 83.224, 81.176 86.448, 77.421 91.809 C 73.364 97.602, 74.184 103.029, 78.890 101.535 C 81.339 100.758, 87 94.451, 87 92.500 C 87 86.520, 93.436 76, 97.095 76 C 98.569 76, 98.800 77.004, 98.708 83 C 98.646 87.026, 99.081 90.481, 99.733 91.133 C 101.307 92.707, 104 91.458, 104 89.154 C 104 88.104, 104.675 86.685, 105.500 86 C 106.351 85.294, 107 83.114, 107 80.960 C 107 75.378, 110.279 68.674, 114.776 65.060 C 116.946 63.316, 119.234 60.789, 119.861 59.445 C 120.487 58.100, 121.510 55.905, 122.133 54.567 C 124.683 49.092, 120.328 47.170, 115.182 51.500 C 113.548 52.875, 111.425 54, 110.463 54 C 108.929 54, 108.790 53.286, 109.324 48.175 C 109.781 43.802, 109.553 41.807, 108.410 40.175 C 106.650 37.662, 106.007 37.536, 103.702 39.250 M 93.573 145.438 C 92.158 148.429, 91 151.195, 91 151.585 C 91 152.714, 83.966 163, 83.197 162.997 C 82.813 162.995, 79.376 161.420, 75.557 159.497 C 71.739 157.574, 68.026 156, 67.307 156 C 66.588 156, 66 155.656, 66 155.236 C 66 153.634, 56.214 149.859, 52.885 150.177 C 49.785 150.473, 49.474 150.806, 49.196 154.135 C 48.950 157.089, 49.397 158.167, 51.581 159.885 C 53.060 161.048, 55.279 162, 56.512 162 C 57.746 162, 59.267 162.617, 59.894 163.372 C 60.520 164.126, 63.689 165.712, 66.935 166.896 C 70.182 168.080, 73.887 169.904, 75.169 170.950 L 77.500 172.852 74.250 176.224 C 72.463 178.078, 71 180.115, 71 180.749 C 71 182.483, 55.874 194.950, 53 195.586 C 48.166 196.654, 46 197.976, 46 199.856 C 46 204.808, 51.726 205.081, 61.238 200.580 C 64.238 199.161, 67.017 198, 67.413 198 C 69.399 198, 79.585 187.856, 82.179 183.295 C 85.286 177.833, 87.665 176.300, 90.687 177.812 C 110.972 187.961, 117.263 191, 117.993 191 C 118.477 191, 121.736 192.960, 125.235 195.355 C 128.734 197.751, 133.825 200.947, 136.548 202.459 C 139.272 203.971, 143.639 206.736, 146.252 208.604 C 148.866 210.472, 151.472 212, 152.043 212 C 152.614 212, 154.300 212.806, 155.790 213.790 C 159.394 216.170, 161.202 217.245, 169.663 222.032 C 173.602 224.261, 177.370 226.741, 178.035 227.543 C 178.701 228.344, 179.886 229, 180.670 229 C 181.455 229, 184.437 230.484, 187.298 232.297 C 190.159 234.110, 194.525 236.624, 197 237.884 C 199.475 239.144, 202.850 241.383, 204.500 242.859 C 208.921 246.816, 213.730 250, 215.285 250 C 217.511 250, 221 245.576, 221 242.754 C 221 239.993, 217.791 237.107, 211.013 233.771 C 209.081 232.821, 206.825 231.599, 206 231.057 C 205.175 230.515, 202.700 229.224, 200.500 228.189 C 190.950 223.693, 165.026 209.156, 162.436 206.843 C 161.300 205.829, 160.058 205, 159.675 205 C 159.024 205, 153.728 201.424, 144.600 194.821 C 142.455 193.269, 140.148 192, 139.472 192 C 138.797 192, 137.692 191.334, 137.017 190.521 C 135.706 188.941, 130.322 186, 128.741 186 C 128.217 186, 126.452 184.875, 124.818 183.500 C 123.184 182.125, 121.232 181, 120.482 181 C 118.942 181, 97.008 170.407, 95.570 168.970 C 94.572 167.972, 98.116 159.265, 101.203 155.134 C 102.175 153.833, 103.417 151.148, 103.964 149.167 C 104.858 145.929, 104.690 145.285, 102.292 142.783 C 98.322 138.640, 96.531 139.185, 93.573 145.438" stroke="none" fill="black" fill-rule="evenodd"/>
</svg>