<svg xmlns="http://www.w3.org/2000/svg" width="300" height="300" viewBox="0 0 300 300" version="1.1">
	<path d="M 126.874 7.235 C 126.216 8.464, 125.082 12.596, 124.355 16.416 C 123.627 20.237, 122.657 23.619, 122.199 23.931 C 121.741 24.244, 118.619 26.637, 115.259 29.250 C 111.900 31.862, 108.704 34, 108.158 34 C 105.737 34, 102.303 26.247, 100.063 15.721 C 98.635 9.016, 93.173 5.676, 89.962 9.546 C 88.912 10.811, 88.991 12.583, 90.397 19.296 C 91.342 23.808, 92.796 28.985, 93.629 30.801 C 94.461 32.617, 95.379 35.560, 95.668 37.341 C 96.158 40.362, 95.843 40.799, 90.994 43.813 C 86.294 46.735, 85.858 47.307, 86.452 49.773 C 87.405 53.724, 89.679 55.075, 94.170 54.357 L 98 53.744 98 57.307 C 98 62.921, 99.564 66, 102.416 66 C 105.652 66, 105.941 65.392, 106.942 56.464 C 107.809 48.735, 109.407 45.641, 113.143 44.455 C 114.176 44.127, 115.704 42.540, 116.537 40.929 C 118.209 37.695, 120.096 37.206, 122.009 39.511 C 123.023 40.733, 122.951 41.841, 121.632 45.295 C 120.734 47.644, 120 50.464, 120 51.561 C 120 52.658, 118.831 57.134, 117.403 61.507 C 115.319 67.888, 115.036 69.828, 115.972 71.327 C 116.614 72.354, 116.995 73.295, 116.819 73.417 C 115.620 74.252, 105.482 78, 104.424 78 C 103.704 78, 101.610 78.887, 99.772 79.972 C 97.934 81.057, 92.621 83.214, 87.965 84.767 C 76.409 88.621, 75 89.502, 75 92.880 C 75 98.490, 81.520 101.186, 87.011 97.847 C 88.897 96.700, 92.538 95.139, 95.101 94.377 C 97.663 93.616, 100.319 92.320, 101.003 91.497 C 101.686 90.674, 102.894 90, 103.688 90 C 104.482 90, 106.114 89.450, 107.316 88.778 C 108.517 88.106, 111.300 87.024, 113.500 86.374 C 120.471 84.315, 124.857 82.440, 126.786 80.694 C 127.815 79.762, 129.198 79, 129.859 79 C 130.520 79, 134.518 77.200, 138.743 75 C 142.969 72.800, 146.868 71, 147.408 71 C 148.817 71, 154 65.848, 154 64.448 C 154 62.598, 150.011 58, 148.406 58 C 147.609 58, 145.279 59.097, 143.229 60.438 C 139.883 62.626, 130.234 68.078, 124.246 71.163 C 121.422 72.619, 120.193 71.522, 121.788 68.968 C 122.455 67.901, 123 66.409, 123 65.653 C 123 64.897, 124.125 62.621, 125.500 60.595 C 126.875 58.569, 128 55.501, 128 53.777 C 128 50.634, 128.407 48.908, 131.393 39.366 C 132.277 36.542, 133 33.602, 133 32.833 C 133 32.064, 135.475 28.453, 138.500 24.809 C 141.525 21.164, 144 17.230, 144 16.066 C 144 13.556, 139.325 11.275, 137.637 12.963 C 135.876 14.724, 135 14.123, 135 11.155 C 135 5.817, 129.145 2.992, 126.874 7.235 M 128.100 96.380 C 126.684 98.086, 128.066 113.724, 131.027 129.500 C 133.852 144.549, 132.077 241.170, 128.916 244.450 C 128.412 244.973, 128 246.232, 128 247.250 C 128 249.961, 125.158 255, 123.629 255 C 122.904 255, 121.532 254.140, 120.581 253.090 C 119.631 252.039, 117.761 250.906, 116.426 250.571 C 115.092 250.236, 114 249.520, 114 248.981 C 114 248.441, 113.127 248, 112.059 248 C 110.991 248, 109.880 247.615, 109.590 247.145 C 109.299 246.675, 106.236 245.260, 102.782 244.001 C 99.329 242.742, 94.927 240.740, 93.002 239.552 C 89.272 237.252, 71.488 229.358, 64 226.678 C 57.226 224.254, 47.661 222.967, 46.765 224.358 C 44.555 227.793, 48.920 232, 54.693 232 C 56.006 232, 58.844 232.900, 61 234 C 63.156 235.100, 65.467 236, 66.136 236 C 67.299 236, 73.937 239.040, 88 246.013 C 98.830 251.383, 109.576 257.539, 112.500 260.049 C 116.012 263.064, 120.676 264.944, 126.271 265.602 C 131.580 266.226, 131.776 266.159, 134.263 262.871 C 136.393 260.055, 137.022 257.607, 138.085 248 C 138.786 241.675, 139.425 235.375, 139.507 234 C 139.588 232.625, 139.948 229.925, 140.306 228 C 141.268 222.831, 142.039 192.399, 141.869 166.345 C 141.787 153.780, 141.789 141.168, 141.874 138.318 C 141.958 135.467, 141.572 132.853, 141.014 132.509 C 140.456 132.164, 139.975 128.871, 139.945 125.191 C 139.914 121.511, 139.344 114.292, 138.677 109.148 C 137.610 100.918, 137.130 99.509, 134.676 97.398 C 131.503 94.668, 129.746 94.396, 128.100 96.380 M 88 125.727 C 87.175 126.039, 83.932 128.506, 80.794 131.209 C 75.389 135.863, 70 144.435, 70 148.379 C 70 152.072, 67.275 150.610, 59.228 142.600 C 50.681 134.091, 47.819 132.581, 45.200 135.200 C 44.540 135.860, 44.003 137.998, 44.007 139.950 C 44.012 142.823, 44.632 143.926, 47.257 145.737 C 51.463 148.638, 58.910 156.125, 64.178 162.750 C 68.765 168.518, 71.214 169.267, 75.126 166.099 C 77.286 164.350, 77.375 163.925, 76.237 160.778 C 75.557 158.897, 75 155.964, 75 154.260 C 75 150.719, 77.747 145.375, 79.987 144.557 C 80.819 144.254, 83.029 142.879, 84.898 141.503 C 86.767 140.126, 88.679 139, 89.148 139 C 90.727 139, 90.009 144.474, 87.996 147.774 C 86.898 149.575, 86 151.534, 86 152.127 C 86 154.662, 78.068 169.692, 75.647 171.743 C 72.708 174.235, 72.505 175.281, 74.084 179.810 C 76.318 186.220, 78.105 185.359, 95.694 169.390 C 97.577 167.680, 100.866 165.758, 103.001 165.118 C 106.963 163.931, 114.369 156.608, 113.685 154.554 C 113.493 153.978, 111.573 153.219, 109.418 152.868 C 106.516 152.394, 104.852 152.683, 103 153.983 C 97.044 158.163, 93.331 157.123, 96.660 152.206 C 99.715 147.695, 100.789 144.495, 101.476 137.850 C 102.106 131.765, 102.008 131.365, 99.123 128.250 C 96.146 125.036, 92.189 124.138, 88 125.727" stroke="none" fill="black" fill-rule="evenodd"/>
</svg>