<svg xmlns="http://www.w3.org/2000/svg" width="300" height="300" viewBox="0 0 300 300" version="1.1">
	<path d="M 80.460 59.065 C 80.098 59.651, 80.083 61.630, 80.427 63.464 C 81.006 66.549, 80.585 68.438, 75.942 83.571 C 75.424 85.260, 74.997 87.960, 74.994 89.571 C 74.990 91.182, 74.315 93.789, 73.494 95.364 C 72.672 96.940, 72 99.726, 72 101.555 C 72 103.385, 71.600 105.129, 71.110 105.432 C 70.621 105.734, 69.978 107.448, 69.682 109.241 C 68.699 115.182, 67.833 118.465, 66.409 121.651 C 65.634 123.384, 65 125.945, 65 127.342 C 65 128.739, 64.550 130.160, 64 130.500 C 63.450 130.840, 62.986 132.329, 62.968 133.809 C 62.951 135.289, 62.276 137.374, 61.468 138.441 C 60.661 139.509, 60 141.605, 60 143.099 C 60 144.593, 58.425 148.732, 56.500 152.296 C 54.575 155.860, 53 160.218, 53 161.981 C 53 163.743, 52.069 166.368, 50.931 167.815 C 49.422 169.733, 49.019 171.289, 49.444 173.556 C 49.884 175.901, 49.533 177.113, 48.014 178.487 C 46.906 179.490, 46 181.114, 46 182.096 C 46 183.078, 45.617 184.119, 45.148 184.408 C 44.680 184.698, 43.520 187.087, 42.571 189.717 C 40.289 196.038, 38.054 201.463, 34.623 209 C 33.747 210.925, 30.820 216.100, 28.118 220.500 C 25.416 224.900, 23.411 228.838, 23.662 229.250 C 25.171 231.730, 31.725 226.563, 36.337 219.258 C 42.501 209.494, 54 184.912, 54 181.500 C 54 180.009, 55.025 177.570, 56.278 176.081 C 57.531 174.592, 59.157 171.377, 59.890 168.937 C 60.623 166.497, 62.298 162.244, 63.611 159.486 C 64.925 156.728, 66 153.908, 66 153.220 C 66 151, 68.463 144, 69.243 144 C 69.660 144, 70.007 143.213, 70.015 142.250 C 70.045 138.912, 71.505 137.674, 73.755 139.079 C 75.456 140.141, 76.629 139.981, 81.139 138.072 C 94.134 132.569, 98.633 127.879, 96.148 122.426 C 94.401 118.590, 91.112 119.404, 83.721 125.500 C 75.849 131.993, 73.507 132.567, 74.534 127.750 C 74.916 125.963, 75.852 122.983, 76.614 121.128 C 77.376 119.273, 78 116.712, 78 115.437 C 78 114.162, 78.450 112.840, 79 112.500 C 79.550 112.160, 80 110.585, 80 109 C 80 107.415, 80.391 105.877, 80.868 105.581 C 81.346 105.286, 82.028 102.897, 82.384 100.272 C 83.426 92.598, 83.734 92.400, 91.587 94.338 C 95.307 95.256, 99.138 96.720, 100.101 97.591 C 103.139 100.341, 105.462 99.006, 105.804 94.315 C 106.097 90.293, 105.942 90.051, 101.360 87.365 C 98.749 85.835, 94.787 84.336, 92.556 84.035 C 87.976 83.416, 88.038 83.703, 89.534 69.896 L 90.250 63.293 86.781 60.646 C 83.031 57.786, 81.489 57.400, 80.460 59.065 M 156.994 67.423 C 147.675 69.998, 144.640 73.276, 147.515 77.664 C 148.905 79.785, 149.765 80.123, 152.836 79.759 C 154.851 79.519, 157.284 78.979, 158.242 78.558 C 160.511 77.560, 161.654 80.343, 160.196 83.317 C 159.607 84.518, 158.842 86.513, 158.495 87.750 C 158.149 88.987, 157.446 90, 156.933 90 C 156.420 90, 156 90.613, 156 91.362 C 156 93.258, 148.337 107.011, 145.739 109.777 C 141.239 114.568, 144.020 122.786, 149.662 121.370 C 153.808 120.329, 157.029 121.825, 158.566 125.503 C 160.620 130.418, 160.504 130.698, 155.250 133.498 C 152.637 134.890, 147.575 137.651, 144 139.634 C 140.425 141.616, 135.691 143.866, 133.481 144.634 C 131.271 145.402, 128.866 146.984, 128.138 148.150 C 126.966 150.028, 127.107 150.562, 129.384 152.839 L 131.954 155.408 138.805 153.202 C 142.744 151.933, 146.685 149.897, 148.078 148.410 C 150.738 145.572, 156.695 142.694, 158.106 143.566 C 158.598 143.869, 159 144.966, 159 146.002 C 159 147.038, 159.949 149.494, 161.109 151.461 C 164.530 157.258, 165.642 163.015, 167.491 184.500 C 167.775 187.800, 168.666 198.150, 169.471 207.500 C 171.138 226.857, 172.203 281.053, 170.956 283.071 C 169.761 285.005, 165.799 282.676, 161.590 277.564 C 159.750 275.329, 153.101 268.170, 146.814 261.655 C 137.457 251.961, 134.939 249.873, 132.941 250.155 C 128.436 250.791, 129.315 254.311, 135.701 261.207 C 138.907 264.668, 145.647 272.675, 150.679 279 C 166.371 298.724, 174.580 304.028, 178.765 297.147 C 180.319 294.591, 180.485 291.158, 180.358 264.227 C 180.280 247.690, 179.835 233.561, 179.369 232.830 C 178.903 232.098, 178.200 221.375, 177.808 209 C 177.416 196.625, 176.642 182.900, 176.087 178.500 C 175.533 174.100, 174.636 166.288, 174.094 161.139 C 173.480 155.308, 172.527 151.135, 171.567 150.074 C 170.719 149.137, 169.524 146.934, 168.913 145.179 C 167.805 142.002, 164.279 140.092, 162.057 141.465 C 161.476 141.824, 161.012 141.529, 161.026 140.809 C 161.040 140.089, 162.727 138.723, 164.776 137.773 C 166.824 136.823, 172.550 133.104, 177.500 129.508 C 194.779 116.957, 196.994 115.594, 198.179 116.779 C 200.258 118.858, 194.772 130.722, 188.250 138.253 C 184.643 142.418, 184.271 143.783, 186.510 144.642 C 188.139 145.267, 192.257 142.432, 198.289 136.533 C 202.081 132.825, 207 124.056, 207 121.004 C 207 120.112, 207.661 118.509, 208.468 117.441 C 211.025 114.061, 210.374 109.493, 206.923 106.589 C 205.231 105.165, 203.263 104, 202.549 104 C 197.880 104, 184.378 111.499, 174.150 119.772 C 171.207 122.152, 168.282 123.930, 167.650 123.723 C 167.017 123.515, 166.360 121.682, 166.188 119.650 C 165.962 116.967, 164.797 114.820, 161.938 111.814 C 159.772 109.537, 158 107.358, 158 106.972 C 158 106.586, 158.818 105.197, 159.817 103.885 C 160.817 102.573, 162.221 99.925, 162.937 98 C 164.212 94.575, 168.350 85.211, 170.112 81.764 C 170.601 80.809, 171 78.036, 171 75.602 C 171 71.889, 170.505 70.761, 167.923 68.589 C 164.517 65.723, 163.532 65.618, 156.994 67.423 M 81.958 145.550 C 81.124 146.555, 80.613 150.668, 80.504 157.235 L 80.337 167.369 76.468 170.714 C 73.128 173.602, 71.979 174.020, 68.050 173.779 L 63.500 173.500 63.189 177.824 C 62.799 183.237, 64.385 185.379, 68.193 184.585 C 77.892 182.563, 77 182.336, 77 186.827 C 77 189.057, 76.550 191.160, 76 191.500 C 75.450 191.840, 75 193.415, 75 195 C 75 196.585, 74.617 198.119, 74.148 198.408 C 73.680 198.698, 72.493 201.087, 71.510 203.717 C 70.528 206.348, 68.436 209.791, 66.862 211.369 C 65.288 212.946, 64 214.759, 64 215.396 C 64 217.983, 67.180 221, 69.907 221 C 75.654 221, 84 229.575, 84 235.479 C 84 237.676, 87.757 242, 89.664 242 C 90.234 242, 92.638 240.537, 95.007 238.750 C 97.376 236.963, 102.281 233.443, 105.907 230.929 C 109.533 228.414, 112.640 225.628, 112.812 224.737 C 113.001 223.754, 111.918 222.492, 110.062 221.532 C 107.019 219.959, 106.087 217.683, 108 216.500 C 108.550 216.160, 109 214.810, 109 213.500 C 109 212.190, 109.419 210.859, 109.930 210.543 C 110.442 210.227, 111.172 207.471, 111.554 204.418 C 112.200 199.242, 112.057 198.669, 109.436 195.934 C 105.592 191.921, 101.519 192.048, 94.769 196.390 C 88.426 200.472, 85.913 203.132, 83.093 208.750 C 80.966 212.987, 78 214.494, 78 211.338 C 78 210.424, 79.120 207.764, 80.489 205.428 C 82.698 201.659, 85.163 194.380, 86.730 187 C 87.022 185.625, 87.790 183.825, 88.437 183 C 90.398 180.500, 92 176.065, 92 173.140 C 92 171.376, 93.080 169.340, 94.981 167.518 C 100.773 161.969, 102.955 157.854, 102.149 154 C 101.513 150.953, 101.035 150.500, 98.459 150.500 C 96.350 150.500, 95.217 151.146, 94.513 152.750 C 92.999 156.200, 90 155.679, 90 151.965 C 90 145.846, 85.014 141.869, 81.958 145.550 M 94.553 210.220 C 92.480 211.991, 90.383 214.353, 89.894 215.470 C 89.405 216.586, 88.492 218.210, 87.866 219.078 C 86.984 220.300, 87.122 221.257, 88.479 223.328 C 90.913 227.043, 93.210 226.679, 95.286 222.250 C 96.253 220.188, 97.901 217.150, 98.949 215.500 C 101.199 211.956, 101.614 207, 99.661 207 C 98.925 207, 96.626 208.449, 94.553 210.220" stroke="none" fill="black" fill-rule="evenodd"/>
</svg>