<svg xmlns="http://www.w3.org/2000/svg" width="300" height="300" viewBox="0 0 300 300" version="1.1">
	<path d="M 104.096 19.385 C 103.177 20.492, 103.476 20.903, 105.589 21.433 C 108.331 22.121, 108.400 22.778, 106.443 29.612 C 105.990 31.197, 106.359 31.861, 107.919 32.269 C 109.235 32.613, 110 33.625, 110 35.023 C 110 36.763, 109.561 37.119, 107.939 36.694 C 106.786 36.393, 105.746 36.672, 105.580 37.328 C 105.416 37.972, 104.686 40.300, 103.956 42.500 C 103.227 44.700, 102.295 48.525, 101.885 51 C 100.100 61.781, 97.789 68.326, 93.716 74.134 C 86.350 84.636, 85.193 88, 88.943 88 C 91.333 88, 102.972 77.409, 103.073 75.142 C 103.113 74.239, 104.008 72.150, 105.062 70.500 C 106.116 68.850, 107.241 66.825, 107.562 66 C 107.883 65.175, 108.563 63.719, 109.073 62.764 C 109.583 61.809, 110 59.655, 110 57.978 C 110 56.302, 110.741 53.799, 111.646 52.417 C 112.994 50.360, 113.816 50.020, 116.187 50.541 C 118.075 50.956, 119.924 50.624, 121.505 49.588 C 122.839 48.715, 124.760 48, 125.775 48 C 126.790 48, 130.817 46.425, 134.725 44.500 C 138.632 42.575, 142.280 41, 142.831 41 C 143.382 41, 143.983 40.559, 144.167 40.020 C 144.350 39.480, 146.975 38.565, 150 37.986 C 155.283 36.975, 155.589 37.035, 157.750 39.522 C 160.398 42.569, 160.724 49.949, 158.943 66.500 C 156.809 86.337, 152.978 106.778, 151.187 107.885 C 150.616 108.237, 150.003 110.316, 149.824 112.505 C 149.424 117.420, 147.493 118.027, 143.447 114.510 C 138.512 110.220, 134 109.980, 134 114.006 C 134 116.457, 146.980 131, 149.168 131 C 151.733 131, 158 123.108, 158 119.879 C 158 118.360, 158.450 116.840, 159 116.500 C 159.550 116.160, 160.003 115.121, 160.006 114.191 C 160.010 113.261, 160.685 111.211, 161.506 109.636 C 162.328 108.060, 163 105.113, 163 103.086 C 163 101.059, 163.421 98.973, 163.935 98.450 C 164.450 97.928, 165.052 94.988, 165.273 91.917 C 165.495 88.846, 166.036 85.750, 166.477 85.037 C 167.459 83.448, 169.048 67.289, 169.670 52.572 C 170.085 42.746, 169.909 41.212, 167.931 37.366 C 163.310 28.381, 160.449 27.090, 148.888 28.775 C 141.977 29.782, 134.579 32.651, 120.846 39.648 C 116.371 41.927, 115 41.421, 115 37.486 C 115 35.554, 115.558 33.079, 116.241 31.986 C 117.228 30.405, 117.228 29.595, 116.241 28.014 C 115.558 26.921, 115 24.966, 115 23.669 C 115 22.371, 114.177 20.565, 113.171 19.655 C 110.947 17.642, 105.672 17.485, 104.096 19.385 M 124.061 57.435 C 121.994 59.636, 121.829 60.477, 122.467 65.586 C 123.128 70.869, 123.046 71.226, 121.340 70.500 C 117.766 68.979, 114.381 68.837, 113.373 70.165 C 112.815 70.899, 111.794 75.015, 111.104 79.310 C 110.001 86.176, 110.043 87.416, 111.448 89.560 C 112.875 91.738, 113.754 92, 119.638 92 L 126.230 92 125.555 97.404 C 125.097 101.075, 125.251 103.037, 126.035 103.522 C 127.722 104.564, 132 101.959, 132 99.890 C 132 98.915, 132.450 97.840, 133 97.500 C 133.550 97.160, 134 95.274, 134 93.309 C 134 89.341, 137.404 83, 139.535 83 C 140.289 83, 142.080 83.535, 143.515 84.189 C 145.874 85.263, 146.360 85.095, 148.589 82.439 C 150.682 79.944, 151.004 78.670, 150.718 74 C 150.308 67.296, 148.377 63.064, 144.818 61.069 C 142.369 59.696, 141.958 59.728, 140.068 61.438 C 138.877 62.516, 138 64.548, 138 66.228 C 138 68.468, 137.593 69.069, 136.250 68.814 C 134.939 68.565, 134.425 67.320, 134.200 63.850 C 133.726 56.539, 128.192 53.038, 124.061 57.435 M 122.480 77.032 C 122.092 77.660, 122.245 78.645, 122.820 79.220 C 124.164 80.564, 127.297 79.392, 126.750 77.749 C 126.194 76.078, 123.364 75.602, 122.480 77.032 M 99.200 128.200 C 98.540 128.860, 97.980 132.123, 97.956 135.450 C 97.932 138.778, 97.264 143.300, 96.471 145.500 C 95.679 147.700, 95.023 150.711, 95.015 152.191 C 95.007 153.671, 94.550 155.160, 94 155.500 C 93.450 155.840, 93 157.161, 93 158.437 C 93 159.712, 92.325 161.315, 91.500 162 C 90.675 162.685, 89.990 163.977, 89.978 164.872 C 89.966 165.768, 89.076 167.625, 88 169 C 86.924 170.375, 86.034 172.025, 86.022 172.667 C 86.010 173.308, 85.662 173.983, 85.250 174.167 C 84.838 174.350, 82.822 176.975, 80.770 180 C 78.719 183.025, 74.556 188.108, 71.520 191.296 C 68.484 194.484, 66 197.698, 66 198.439 C 66 202.125, 71.740 200.628, 78.808 195.099 C 81.946 192.644, 96 173.860, 96 172.121 C 96 170.118, 99.947 168, 103.679 168 C 106.538 168, 108.868 167.154, 111.744 165.071 C 122.103 157.567, 151.618 146, 160.407 146 C 165.316 146, 169.224 148.782, 172.346 154.500 C 174.345 158.160, 176.035 178.864, 174.899 185.766 C 174.470 188.370, 174.092 192.836, 174.060 195.691 C 174.027 198.546, 173.550 201.160, 173 201.500 C 172.450 201.840, 172 203.898, 172 206.073 C 172 208.248, 171.595 210.809, 171.100 211.764 C 170.604 212.719, 169.421 216.200, 168.470 219.500 C 167.519 222.800, 166.349 226.534, 165.871 227.797 C 165.392 229.060, 164.986 231.085, 164.968 232.297 C 164.951 233.509, 164.276 235.374, 163.468 236.441 C 162.661 237.509, 162 239.202, 162 240.205 C 162 241.207, 161.603 242.809, 161.117 243.764 C 160.631 244.719, 159.641 246.850, 158.917 248.500 C 156.041 255.057, 153.105 258, 149.439 258 C 146.357 258, 145.518 257.352, 141.740 252.054 C 137.485 246.086, 133.642 244.162, 132.407 247.381 C 131.753 249.086, 135.584 257.672, 138.412 260.837 C 142.735 265.676, 154.418 267.922, 158.908 264.777 C 162.647 262.158, 170 250.673, 170 247.451 C 170 246.638, 170.390 245.191, 170.866 244.236 C 172.701 240.557, 175.432 231.788, 176.929 224.768 C 177.367 222.716, 178.183 220.466, 178.744 219.768 C 179.727 218.545, 180.501 214.943, 181.595 206.500 C 181.880 204.300, 182.506 201.600, 182.985 200.500 C 184.796 196.347, 185.975 175.137, 184.865 166.681 C 184.275 162.181, 183.389 158.073, 182.896 157.550 C 182.403 157.028, 182 155.579, 182 154.330 C 182 148.490, 173.497 138.559, 167.539 137.441 C 160.579 136.136, 149.825 137.674, 136.161 141.929 C 122.507 146.182, 114.028 150.203, 108.215 155.185 C 106.409 156.733, 104.496 158, 103.965 158 C 102.690 158, 102.719 154.292, 104 153.500 C 104.550 153.160, 105.007 151.446, 105.015 149.691 C 105.023 147.936, 105.679 144.700, 106.471 142.500 C 108.730 136.231, 108.441 130.422, 105.777 128.557 C 103.116 126.693, 100.831 126.569, 99.200 128.200 M 122.945 163.566 C 121.943 164.774, 121.898 165.859, 122.751 168.316 C 124.222 172.555, 125.410 191.779, 124.554 197.488 C 123.922 201.700, 123.511 202.214, 118.899 204.551 C 116.163 205.937, 113.492 206.804, 112.963 206.477 C 111.553 205.606, 111.853 200.882, 113.500 198 C 115.253 194.934, 115.463 183.863, 113.800 182.200 C 113.140 181.540, 111.430 181, 110 181 C 106.006 181, 105.003 182.782, 104.965 189.950 C 104.944 193.732, 104.325 197.557, 103.500 199 C 102.657 200.474, 102.056 204.306, 102.035 208.340 C 102.005 214.234, 102.311 215.439, 104.250 217.056 C 107.323 219.620, 110.290 219.461, 115.699 216.441 C 121.381 213.269, 123.467 214.378, 120.743 219.124 C 119.785 220.795, 119 223.449, 119 225.022 C 119 226.595, 118.550 228.160, 118 228.500 C 117.450 228.840, 117 230.116, 117 231.337 C 117 232.557, 116.423 234.443, 115.717 235.527 C 115.011 236.612, 113.856 239.300, 113.151 241.500 C 112.445 243.700, 111.501 246.400, 111.052 247.500 C 110.604 248.600, 108.995 252.875, 107.477 257 C 105.959 261.125, 104.105 265.210, 103.358 266.079 C 102.611 266.947, 102 268.133, 102 268.714 C 102 270.822, 99.321 274.859, 96.153 277.525 C 93.075 280.115, 92.999 280.342, 94.613 282.125 C 98.447 286.361, 104.608 282.700, 109.129 273.500 C 110.210 271.300, 111.940 268.150, 112.974 266.500 C 114.008 264.850, 114.887 262.481, 114.927 261.236 C 114.967 259.991, 115.417 258.191, 115.927 257.236 C 116.437 256.281, 117.109 254.825, 117.421 254 C 117.732 253.175, 118.370 251.825, 118.838 251 C 121.241 246.765, 122 244.844, 122 243 C 122 241.885, 122.395 240.191, 122.878 239.236 C 125.200 234.644, 127 229.748, 127 228.025 C 127 226.976, 127.450 225.840, 128 225.500 C 128.550 225.160, 129 223.614, 129 222.063 C 129 220.513, 129.675 218.685, 130.500 218 C 131.325 217.315, 132 215.235, 132 213.378 C 132 211.520, 132.450 210, 133 210 C 133.550 210, 134 209.041, 134 207.868 C 134 205.480, 143.629 195, 145.824 195 C 146.587 195, 148.097 196.125, 149.179 197.500 C 151.612 200.594, 154.396 200.700, 156.443 197.777 C 159.536 193.362, 157.755 187.063, 151.552 180.486 C 149.743 178.569, 147.356 177, 146.246 177 C 143.986 177, 141 182.237, 141 186.201 C 141 187.521, 140.460 189.140, 139.800 189.800 C 137.407 192.193, 136.186 191.008, 135.626 185.750 C 134.394 174.192, 133.766 170.458, 132.903 169.550 C 132.406 169.028, 132 167.860, 132 166.955 C 132 162.918, 125.501 160.486, 122.945 163.566" stroke="none" fill="black" fill-rule="evenodd"/>
</svg>