<svg xmlns="http://www.w3.org/2000/svg" width="300" height="300" viewBox="0 0 300 300" version="1.1">
	<path d="M 121.911 41.282 C 120.014 42.736, 119.031 46.290, 118.152 54.877 L 117.500 61.254 110.586 65.171 C 106.783 67.325, 103.127 68.879, 102.461 68.623 C 101.236 68.153, 100.325 64.784, 99.454 57.500 C 98.557 49.993, 93.220 42.431, 89.339 43.168 C 87.007 43.611, 86.316 48.551, 88.267 50.838 C 89.046 51.752, 90.235 55.875, 90.908 60 C 93.254 74.367, 93.608 72.738, 87.515 75.623 C 81.684 78.384, 80.209 80.653, 82.030 84.056 C 82.881 85.646, 83.722 86.015, 85.336 85.507 C 91.653 83.516, 91.875 83.836, 90.903 93.500 C 90.557 96.932, 90.792 97.542, 92.555 97.794 C 95.443 98.207, 98.098 94.858, 99.089 89.551 C 100.263 83.267, 102.071 80.933, 108.421 77.497 C 115.424 73.709, 116.311 74.515, 114.259 82.799 C 113.062 87.634, 112.973 89.373, 113.877 90.277 C 115.938 92.338, 118.040 90.176, 122.151 81.764 C 122.618 80.809, 123 78.757, 123 77.205 C 123 75.652, 123.661 73.509, 124.468 72.441 C 125.276 71.374, 125.951 69.732, 125.968 68.793 C 125.986 67.854, 129.037 64.661, 132.750 61.698 C 141.328 54.852, 142.215 53.739, 141.822 50.310 C 141.247 45.290, 136.816 46.142, 132.662 52.072 C 131.799 53.304, 130.664 53.808, 129.640 53.415 C 127.850 52.729, 127.392 48.494, 129 47.500 C 130.594 46.515, 130.161 43.455, 128.171 41.655 C 126.022 39.710, 124.110 39.596, 121.911 41.282 M 94 57.941 C 94 59.073, 94.450 60, 95 60 C 95.550 60, 96 59.352, 96 58.559 C 96 57.766, 95.550 56.840, 95 56.500 C 94.450 56.160, 94 56.809, 94 57.941 M 81.221 112.250 C 80.658 112.938, 79.985 115.975, 79.725 119 C 79.280 124.171, 75.933 134.808, 73.217 139.684 C 72.548 140.886, 72 142.625, 72 143.549 C 72 145.597, 63.239 163.427, 58.511 171 C 54.162 177.967, 54.026 180, 57.907 180 C 60.138 180, 61.883 178.812, 65.407 174.892 C 67.933 172.082, 70 169.352, 70 168.825 C 70 168.298, 71.125 166.392, 72.500 164.589 C 73.875 162.786, 75 160.862, 75 160.313 C 75 159.764, 76.047 157.331, 77.326 154.907 C 79.084 151.577, 80.367 150.378, 82.576 150 C 86.279 149.367, 99.609 142.614, 108.598 136.817 C 124.790 126.375, 128.916 124.345, 135.803 123.432 C 141.293 122.703, 142.833 123.917, 144.946 130.639 C 146.274 134.864, 146.138 138.598, 144.003 156.500 C 143.413 161.450, 142.523 170.675, 142.025 177 C 140.537 195.903, 137.519 211.587, 135.198 212.477 C 133.664 213.066, 130.422 211.581, 127.500 208.949 C 124.487 206.236, 120.606 205.565, 119.015 207.482 C 117.882 208.847, 117.980 209.497, 119.660 211.746 C 122.331 215.324, 130.311 220.716, 134.747 221.941 C 138.681 223.027, 142.689 221.761, 144.061 219 C 145.973 215.153, 148.963 200.475, 150.069 189.500 C 150.569 184.550, 151.425 177.350, 151.972 173.500 C 152.520 169.650, 153.376 162.675, 153.876 158 C 154.376 153.325, 155.087 147.925, 155.456 146 C 155.825 144.075, 155.653 137.775, 155.073 132 C 154.058 121.898, 153.889 121.379, 150.590 118.310 C 146.261 114.283, 140.263 112.626, 133.055 113.465 C 123.059 114.630, 120.156 115.995, 105.865 126.250 C 102.225 128.863, 98.485 131, 97.554 131 C 96.624 131, 93.779 133.025, 91.233 135.500 C 88.687 137.975, 86.242 140, 85.802 140 C 84.347 140, 84.964 136.952, 87.506 131.579 C 90.786 124.645, 91.291 116.085, 88.595 113.106 C 86.475 110.762, 82.790 110.334, 81.221 112.250 M 96 158.498 C 91.891 159.977, 91.293 161.732, 93.465 165.933 C 94.867 168.643, 95.558 169, 99.403 169 C 106.891 169, 107.019 170.631, 100.340 180.909 C 97.128 185.852, 93.894 189.920, 93.153 189.948 C 91.787 190.001, 91.862 187.539, 93.573 176.183 C 94.122 172.535, 93.869 171.489, 91.937 169.433 C 89.434 166.769, 86.804 166.304, 85.241 168.250 C 83.563 170.339, 82.933 176.532, 82.062 199.500 C 81.603 211.600, 80.899 222.753, 80.497 224.284 C 80.095 225.815, 80.329 230.688, 81.017 235.111 C 82.175 242.554, 82.594 243.485, 86.629 247.577 C 89.027 250.010, 91.518 252, 92.166 252 C 92.813 252, 96.298 253.182, 99.909 254.627 C 119.172 262.333, 141.299 265.274, 164 263.147 C 182.076 261.452, 202.228 257.580, 207.083 254.868 C 214.993 250.450, 218.395 242.141, 216.129 232.771 C 215.428 229.872, 214.736 226.315, 214.592 224.866 C 214.447 223.417, 213.355 220.159, 212.165 217.627 C 210.974 215.094, 210 212.397, 210 211.633 C 210 210.870, 209.325 209.685, 208.500 209 C 207.675 208.315, 207 206.937, 207 205.937 C 207 204.936, 206.550 203.840, 206 203.500 C 205.450 203.160, 205 201.820, 205 200.522 C 205 199.224, 204.249 196.663, 203.331 194.831 C 200.181 188.545, 200 188.020, 200 185.167 C 200 179.699, 195.506 173.754, 193.646 176.763 C 193.135 177.590, 195.272 192.550, 196.252 195 C 196.582 195.825, 197.068 197.850, 197.333 199.500 C 197.597 201.150, 198.795 205.425, 199.994 209 C 203.501 219.459, 204 221.454, 204 225.007 C 204 226.858, 204.704 231.180, 205.565 234.611 C 206.994 240.311, 206.990 241.119, 205.517 243.968 C 203.564 247.744, 201.046 248.802, 190 250.491 C 168.660 253.755, 160.856 254.299, 144.306 253.678 C 118.994 252.728, 113.588 251.500, 96 242.709 C 91.125 240.272, 90.003 235.971, 90.002 219.708 C 90 206.522, 90.208 204.694, 91.913 202.863 C 93.172 201.511, 94.500 201.024, 95.798 201.436 C 98.313 202.234, 102.127 200.554, 108.809 195.704 C 114.481 191.586, 115.178 189.243, 111.244 187.513 C 108.168 186.160, 108.423 184.064, 112.361 178.339 C 116.702 172.027, 117.388 169.688, 116.053 165.734 C 113.648 158.609, 104.681 155.374, 96 158.498" stroke="none" fill="black" fill-rule="evenodd"/>
</svg>