<svg xmlns="http://www.w3.org/2000/svg" width="300" height="300" viewBox="0 0 300 300" version="1.1">
	<path d="M 110.178 25.869 C 108.365 27.019, 106.727 33.342, 106.449 40.266 C 106.207 46.289, 104.877 48.985, 102.128 49.022 C 101.232 49.034, 98.700 49.860, 96.500 50.858 C 92.177 52.819, 90 52.666, 90 50.403 C 90 49.616, 89.601 48.191, 89.113 47.236 C 88.625 46.281, 87.104 42.575, 85.734 39 C 82.805 31.363, 79.605 29.238, 75.977 32.521 C 74.253 34.081, 74.010 35.098, 74.568 38.405 C 74.940 40.604, 76.089 44.375, 77.122 46.785 C 79.998 53.494, 79.656 54.790, 74.417 57.036 C 71.896 58.116, 69.266 59, 68.572 59 C 66.549 59, 64 62.441, 64 65.174 C 64 69.955, 70.192 72.883, 73.042 69.449 C 73.758 68.587, 75.476 68.032, 76.914 68.199 C 80.126 68.573, 80.871 72.022, 78.516 75.616 C 77.615 76.990, 77.018 79.327, 77.189 80.808 C 77.443 83.004, 78.071 83.556, 80.601 83.802 C 83.073 84.043, 84.073 83.536, 85.534 81.302 C 86.542 79.761, 87.959 77.905, 88.683 77.179 C 89.408 76.452, 90 73.943, 90 71.603 C 90 67.165, 91.330 65.336, 97.215 61.685 C 100.010 59.950, 106 59.362, 106 60.822 C 106 62.391, 102.798 71.529, 100.419 76.750 C 98.189 81.643, 97.785 82, 94.488 82 C 91.609 82, 90.769 82.478, 89.974 84.569 C 88.858 87.504, 89.442 91.067, 91.806 95.741 C 93.905 99.891, 93.345 100.484, 81.724 106.414 C 67.550 113.646, 65.856 115.637, 70.314 119.826 C 72.789 122.150, 74.972 122.531, 77.764 121.126 C 82.707 118.637, 88.803 115.432, 91.207 114.059 C 94.859 111.973, 95.780 113.203, 96.032 120.500 C 96.465 133.058, 96.911 132.143, 87.444 138.109 C 82.738 141.074, 77.226 144.786, 75.194 146.357 C 73.162 147.929, 70.503 149.599, 69.283 150.070 C 68.064 150.540, 63.644 153.192, 59.460 155.963 C 55.276 158.733, 51.549 161, 51.177 161.001 C 50.243 161.001, 39.463 167.790, 34 171.818 C 27.796 176.391, 26.372 179.264, 28.712 182.480 C 31.142 185.820, 34.041 185.612, 38.898 181.750 C 47.029 175.284, 48.833 174, 49.786 174 C 50.319 174, 51.357 173.275, 52.093 172.388 C 52.829 171.501, 55.316 169.814, 57.620 168.638 C 59.925 167.462, 64.561 164.700, 67.922 162.500 C 88.769 148.857, 90.006 148.255, 89.994 151.750 C 89.990 152.713, 89.315 154.789, 88.494 156.364 C 87.672 157.940, 86.980 159.965, 86.957 160.864 C 86.868 164.191, 82.287 170.477, 78.497 172.471 C 73.764 174.961, 73.263 176.263, 75.989 178.989 C 78.522 181.522, 78.126 183.299, 73.361 190.769 C 71.512 193.668, 70 196.260, 70 196.531 C 70 198.030, 61.347 209.264, 56.601 213.928 C 52.196 218.256, 50.230 219.471, 46.895 219.928 C 42.074 220.587, 39.883 222.999, 41.606 225.750 C 43.311 228.473, 47.664 228.393, 53.715 225.528 C 63.736 220.784, 69.523 214.935, 76.123 202.881 C 77.565 200.247, 79.815 196.763, 81.123 195.139 C 82.430 193.516, 85.020 189.670, 86.878 186.594 C 89.621 182.051, 90.755 181, 92.916 181 C 96.565 181, 113.041 186.801, 115.500 188.952 C 116.600 189.914, 119.690 191.292, 122.366 192.013 C 125.043 192.735, 128.476 194.371, 129.996 195.650 C 131.516 196.929, 133.601 198.322, 134.630 198.746 C 139.001 200.548, 148.049 206.520, 155.500 212.519 C 159.900 216.063, 168.450 222.772, 174.500 227.428 C 184.147 234.854, 201.775 251.744, 217.888 269 L 223.024 274.500 226.012 271.234 C 229.335 267.602, 229.855 263.954, 227.345 261.872 C 226.435 261.118, 225.082 259.045, 224.339 257.267 C 223.512 255.290, 221.533 253.281, 219.244 252.095 C 217.185 251.029, 211.225 246.065, 206 241.064 C 200.775 236.063, 193.187 229.616, 189.138 226.736 C 185.089 223.856, 180.305 220.262, 178.506 218.750 C 176.708 217.237, 174.943 216, 174.584 216 C 174.226 216, 169.785 212.358, 164.716 207.906 C 159.647 203.454, 154.375 199.319, 153 198.715 C 151.625 198.112, 149.600 196.848, 148.500 195.907 C 141.722 190.106, 104.434 173, 98.568 173 C 97.027 173, 95.670 172.304, 95.293 171.321 C 94.747 169.899, 97.965 158.197, 101.099 150.203 C 101.595 148.940, 102 147.130, 102 146.181 C 102 142.411, 108.225 136.805, 116.778 132.872 C 121.409 130.743, 125.970 129, 126.912 129 C 127.854 129, 130.487 128.100, 132.764 127 C 135.041 125.900, 138.310 125, 140.029 125 C 142.149 125, 144.093 124.061, 146.077 122.077 C 150.323 117.831, 149.915 115.419, 144.509 112.792 L 140.018 110.610 137.137 112.741 C 134.387 114.774, 112.141 123.924, 109 124.314 C 107.973 124.441, 107.520 123.633, 107.563 121.750 C 107.844 109.347, 108.054 108.220, 110.858 104.045 L 113.717 99.789 111.817 95.856 C 110.058 92.216, 109.641 91.945, 106.208 92.212 C 102.977 92.463, 102.457 92.198, 102.168 90.152 C 101.983 88.849, 102.687 86.847, 103.750 85.652 C 107.993 80.884, 114 70.613, 113.995 68.136 C 113.990 65.311, 116.469 56.987, 118.451 53.177 C 119.116 51.899, 121.868 49.184, 124.568 47.144 C 128.570 44.119, 129.595 42.704, 130.119 39.486 C 130.862 34.914, 130.457 33.389, 128.278 32.553 C 126.436 31.846, 123.378 34.368, 121.372 38.248 C 120.589 39.761, 119.271 41, 118.443 41 C 116.353 41, 115.450 38.110, 116.842 35.881 C 120.330 30.296, 115.245 22.656, 110.178 25.869" stroke="none" fill="black" fill-rule="evenodd"/>
</svg>