<svg xmlns="http://www.w3.org/2000/svg" width="300" height="300" viewBox="0 0 300 300" version="1.1">
	<path d="M 107.257 24.250 C 106.713 24.938, 106.008 26.625, 105.690 28 C 103.501 37.465, 102.974 38.413, 97.727 42.325 C 91.954 46.628, 90.558 45.786, 90.205 37.791 C 89.939 31.743, 89.621 30.859, 86.879 28.551 C 83.277 25.521, 80.920 25.326, 78.617 27.870 C 77.327 29.296, 77.152 30.307, 77.882 32.120 C 79.819 36.936, 82 44.942, 82 47.238 C 82 50.237, 80.248 52, 77.269 52 C 72.196 52, 73.414 60.478, 78.858 63.060 C 82.656 64.861, 83.963 66.575, 83.985 69.781 C 83.993 71.036, 84.681 72.324, 85.513 72.643 C 88.048 73.616, 89.881 71.084, 90.198 66.170 C 90.463 62.067, 90.881 61.309, 93.642 59.930 C 95.370 59.066, 97.562 57.581, 98.513 56.630 C 99.464 55.678, 100.976 55.050, 101.871 55.234 C 103.243 55.515, 103.453 56.822, 103.201 63.520 C 102.813 73.826, 103.412 76.224, 106.269 75.815 C 108.109 75.551, 108.681 74.441, 109.781 69 C 110.504 65.425, 111.561 60.700, 112.131 58.500 C 112.700 56.300, 113.403 53.033, 113.694 51.241 C 113.984 49.448, 114.621 47.734, 115.110 47.432 C 115.600 47.129, 116 45.968, 116 44.850 C 116 43.732, 117.575 40.978, 119.500 38.729 C 123.804 33.700, 123.901 31.518, 119.925 29.100 C 118.233 28.072, 116.183 26.279, 115.368 25.115 C 113.711 22.749, 108.853 22.231, 107.257 24.250 M 95.786 77.750 C 94.365 79.381, 93.715 81.350, 92.330 88.223 C 91.539 92.144, 87.346 95.884, 82.320 97.150 C 79.925 97.753, 77.722 98.641, 77.424 99.123 C 77.126 99.605, 76.069 100, 75.076 100 C 72.293 100, 68 103.882, 68 106.398 C 68 107.637, 69.134 109.717, 70.520 111.019 C 72.918 113.272, 73.294 113.327, 78.270 112.148 C 88.862 109.639, 89 109.631, 89 111.566 C 89 113.780, 87.240 119.602, 85.490 123.174 C 83.996 126.225, 84.412 127, 87.548 127 C 89.729 127, 95 121.355, 95 119.018 C 95 118.405, 95.900 116.041, 97 113.764 C 98.100 111.487, 99 109.089, 99 108.435 C 99 107.780, 99.675 106.685, 100.500 106 C 101.325 105.315, 102 103.948, 102 102.962 C 102 101.975, 103.912 99.703, 106.250 97.911 C 112.081 93.444, 117.956 87.871, 119.159 85.667 C 119.906 84.298, 119.720 83.349, 118.425 81.917 C 116.148 79.401, 114.757 79.497, 110 82.500 C 104.342 86.072, 102.751 85.846, 103.550 81.586 C 104.074 78.792, 103.822 77.975, 102.161 77.086 C 99.292 75.551, 97.543 75.733, 95.786 77.750 M 132 123.803 C 128.425 125.286, 119.875 129.257, 113 132.627 C 106.125 135.997, 98.025 139.940, 95 141.390 C 91.975 142.841, 88.320 144.809, 86.878 145.764 C 85.435 146.719, 81.113 149.586, 77.273 152.136 C 72.550 155.272, 69.219 158.426, 66.977 161.886 C 65.154 164.699, 63.126 167, 62.468 167 C 61.811 167, 59.082 164.637, 56.404 161.750 C 49.083 153.858, 45.529 151.339, 38.340 148.947 C 30.673 146.395, 27 147.197, 27 151.422 C 27 153.971, 30.230 156.992, 32.973 157.010 C 36.562 157.033, 45.424 162.330, 50.863 167.703 C 54.090 170.891, 57.354 174.041, 58.115 174.702 C 58.877 175.363, 60.045 176.563, 60.711 177.369 C 62.507 179.540, 65.754 178.237, 68.814 174.117 C 72.706 168.876, 84.778 157.205, 87.054 156.483 C 88.124 156.143, 91.294 154.321, 94.100 152.433 C 96.905 150.545, 99.582 149, 100.047 149 C 100.512 149, 103.580 147.425, 106.865 145.500 C 110.149 143.575, 113.777 142, 114.926 142 C 116.075 142, 120.973 139.750, 125.810 137 C 131.989 133.487, 135.703 132, 138.302 132 C 140.336 132, 142 132.380, 142 132.845 C 142 133.309, 139.751 135.897, 137.001 138.595 C 134.252 141.293, 132.002 144.261, 132.001 145.191 C 132.001 146.121, 131.550 147.160, 131 147.500 C 129.300 148.551, 129.806 154.988, 131.643 155.693 C 133.106 156.254, 136.327 153.342, 144.842 143.760 C 145.204 143.352, 146.963 141.850, 148.750 140.421 C 150.537 138.992, 152.001 137.300, 152.001 136.661 C 152.002 136.022, 153.127 134.193, 154.501 132.594 C 160.046 126.147, 156.513 121.639, 145.662 121.318 C 139.837 121.145, 137.286 121.609, 132 123.803 M 98.750 159.162 C 93.960 160.912, 95.465 166.124, 101.687 169.339 C 103.439 170.245, 105.145 171.426, 105.477 171.964 C 106.484 173.593, 102.996 179.177, 98.298 183.458 L 93.863 187.500 95.374 191.080 C 97.203 195.415, 98.329 196.372, 103.500 197.993 C 107.831 199.350, 112 202.593, 112 204.603 C 112 205.324, 109.764 206.283, 106.750 206.855 C 103.862 207.404, 97.675 208.627, 93 209.575 C 88.325 210.522, 82.700 211.506, 80.500 211.761 C 78.300 212.016, 76.028 212.605, 75.450 213.069 C 74.873 213.533, 72.620 214.197, 70.444 214.545 C 68.267 214.893, 62.216 217.302, 56.997 219.898 C 47.354 224.695, 44.800 227.430, 46.304 231.350 C 46.638 232.221, 52.219 236.403, 58.706 240.644 C 71.185 248.802, 81.142 255.918, 87.122 260.951 C 89.113 262.628, 91.196 264, 91.749 264 C 92.302 264, 93.315 264.675, 94 265.500 C 97.322 269.503, 113 264.004, 113 258.836 C 113 257.721, 113.841 255.614, 114.869 254.154 C 115.897 252.694, 117.086 250.375, 117.513 249 C 117.939 247.625, 119.276 245.150, 120.484 243.500 C 124.074 238.596, 128 225.611, 128 218.641 C 128 214.289, 129.503 213.367, 137 213.116 C 140.025 213.014, 143.850 212.523, 145.500 212.024 C 147.150 211.525, 156.580 210.619, 166.455 210.010 C 176.331 209.402, 184.881 208.518, 185.455 208.046 C 187.342 206.496, 198.904 204.729, 203.653 205.264 C 206.213 205.553, 209.526 205.364, 211.016 204.845 C 214.369 203.676, 216.422 199.657, 215.012 197.023 C 213.517 194.229, 207.709 192.616, 203.750 193.895 C 197.299 195.979, 182.133 198.089, 163.359 199.514 C 152.831 200.313, 143.086 201.397, 141.702 201.923 C 140.319 202.449, 136.465 203.187, 133.139 203.564 L 127.091 204.248 122.795 200.098 C 120.433 197.815, 116.025 194.241, 113.001 192.156 C 109.976 190.072, 107.363 187.646, 107.194 186.766 C 107.024 185.887, 108.486 183.070, 110.443 180.507 C 113.362 176.682, 114 174.998, 114 171.110 C 114 167.234, 113.501 165.907, 111.250 163.801 C 108.882 161.585, 102.699 157.842, 101.800 158.079 C 101.635 158.122, 100.263 158.610, 98.750 159.162 M 106.500 217.127 C 97.742 220.051, 76.269 224.284, 74.801 223.377 C 74.336 223.090, 71.041 224.275, 67.478 226.011 C 58.608 230.332, 58.652 232.281, 67.750 238.032 C 71.463 240.379, 76.300 243.494, 78.500 244.954 C 88.123 251.341, 96.805 256, 99.088 256 C 102.184 256, 106 253.399, 106 251.288 C 106 250.408, 107.017 248.296, 108.259 246.594 C 111.343 242.371, 115 235.507, 115 233.943 C 115 233.236, 115.706 231.877, 116.569 230.923 C 117.596 229.789, 118.201 226.993, 118.319 222.844 L 118.500 216.500 114 216.313 C 111.525 216.210, 108.150 216.577, 106.500 217.127" stroke="none" fill="black" fill-rule="evenodd"/>
</svg>