<svg xmlns="http://www.w3.org/2000/svg" width="300" height="300" viewBox="0 0 300 300" version="1.1">
	<path d="M 100.788 8.706 C 99.339 10.329, 98.432 13.034, 96.581 21.250 C 96.241 22.762, 95.408 24.010, 94.731 24.022 C 94.054 24.034, 92.375 24.924, 91 26 C 86.078 29.850, 84.429 28.491, 83.770 20.039 C 83.551 17.238, 82.683 16.006, 79.208 13.571 C 75.781 11.169, 74.573 10.784, 73.208 11.662 C 71.309 12.885, 71.290 13.859, 73 22.500 C 74.938 32.292, 74.937 32.293, 70.279 34.500 C 64.725 37.132, 63.891 39.649, 67.535 42.784 C 69.595 44.555, 71.065 45.037, 73.143 44.621 C 76.556 43.939, 78.712 46.800, 77.082 49.847 C 75.800 52.242, 77.492 54, 81.078 54 C 84.595 54, 85.859 52.309, 86.649 46.548 C 87.489 40.414, 91.061 36, 95.185 36 L 98.192 36 97.981 46.250 C 97.712 59.293, 97.572 58.751, 100.500 56 C 101.998 54.592, 103 52.543, 103 50.885 C 103 49.363, 103.412 47.863, 103.915 47.552 C 104.419 47.241, 105.143 43.653, 105.525 39.578 C 106.288 31.430, 108.613 26.478, 112.339 25.061 C 115.410 23.894, 120.179 18.169, 119.785 16.124 C 119.615 15.239, 118.193 13.900, 116.625 13.149 C 114.291 12.030, 113.342 12.014, 111.389 13.060 C 108.642 14.529, 108.596 14.500, 107.309 10.500 C 106.168 6.956, 103.104 6.112, 100.788 8.706 M 85.200 57.200 C 84.521 57.879, 84 61.130, 84 64.685 C 84 73.134, 79.610 81.870, 73.601 85.380 C 64.335 90.793, 60.045 93, 58.790 93 C 56.438 93, 50 98.016, 50 99.849 C 50 101.546, 54.825 107, 56.326 107 C 57.033 107, 65.027 102.026, 66 100.982 C 67.193 99.701, 75.082 96.749, 75.689 97.356 C 76.057 97.724, 75.397 99.324, 74.223 100.912 C 73.049 102.500, 71.782 105.082, 71.406 106.650 C 71.031 108.217, 70.379 109.950, 69.957 110.500 C 69.536 111.050, 68.401 113.975, 67.435 117 C 65.791 122.152, 60.804 130.955, 56.956 135.500 C 56.025 136.600, 54.986 138.625, 54.648 140 C 54.310 141.375, 51.978 144.715, 49.467 147.422 C 44.010 153.304, 43.572 157.279, 48.319 157.823 C 51.794 158.221, 56.380 154.073, 61.586 145.825 C 65.660 139.370, 67.393 138.316, 70.391 140.470 C 71.551 141.304, 73.506 142.715, 74.735 143.605 C 77.797 145.823, 81.211 144.736, 82.841 141.024 C 84.159 138.019, 84.097 137.893, 79.091 133.392 C 73.195 128.091, 72.848 126.233, 76.452 119.251 C 83.406 105.776, 85.913 96.300, 83 94.500 C 80.776 93.126, 82.419 91.288, 89.702 87 C 93.905 84.525, 98.536 81.302, 99.992 79.837 C 101.448 78.372, 104.468 76.682, 106.703 76.080 C 111.123 74.890, 112.408 73.737, 113.281 70.176 C 113.936 67.508, 111.063 64, 108.223 64 C 107.246 64, 104.051 65.800, 101.123 68 C 98.195 70.200, 95.380 72, 94.868 72 C 93.174 72, 92.800 69.135, 94.014 65.456 C 95.133 62.066, 95.029 61.640, 92.419 58.915 C 89.438 55.804, 87.141 55.259, 85.200 57.200 M 106.200 90.200 C 105.540 90.860, 105 92.654, 105 94.186 C 105 97.376, 103.390 104.644, 101.378 110.533 C 100.620 112.752, 100 115.509, 100 116.661 C 100 117.813, 99.325 119.315, 98.500 120 C 96.770 121.435, 96.524 126.242, 98.035 129.066 C 99.825 132.410, 105 130.884, 105 127.011 C 105 126.138, 105.799 123.865, 106.775 121.961 C 110.007 115.659, 109.857 115.754, 113.329 117.841 C 115.073 118.890, 118.430 119.989, 120.789 120.284 C 126.019 120.938, 127.719 122.257, 129.694 127.193 C 132.029 133.028, 136.107 132.118, 137.281 125.500 C 137.574 123.850, 138.108 121.583, 138.468 120.462 C 139.955 115.833, 131.181 109.842, 119.816 107.729 C 112.818 106.427, 111.945 104.775, 114.915 98.457 C 117.517 92.922, 117.509 92.470, 114.777 90.557 C 112.131 88.703, 107.874 88.526, 106.200 90.200 M 167.500 146.009 C 165.300 146.446, 158.550 147.582, 152.500 148.532 C 146.450 149.483, 139.025 150.906, 136 151.695 C 116.805 156.703, 109.107 158.991, 105.191 160.853 C 100.983 162.854, 100.037 161.654, 100.015 154.285 C 99.999 148.840, 98.557 147, 94.306 147 C 91.456 147, 90.353 149.887, 90.155 157.868 C 90.055 161.920, 89.748 165.599, 89.472 166.045 C 89.197 166.490, 87.291 167.394, 85.236 168.053 C 83.181 168.713, 79.250 170.269, 76.500 171.512 C 73.750 172.755, 69.250 174.584, 66.500 175.577 C 63.750 176.570, 60.564 177.973, 59.421 178.694 C 58.277 179.416, 54.902 180.722, 51.921 181.597 C 48.939 182.471, 45.150 183.753, 43.500 184.444 C 41.850 185.136, 37.800 186.711, 34.500 187.944 C 31.200 189.178, 27.150 190.791, 25.500 191.528 C 23.850 192.266, 20.475 193.522, 18 194.320 C 11.095 196.545, 6.812 198.160, 3.250 199.883 C 0.090 201.411, -0 201.631, 0 207.795 C 0 213.868, 0.093 214.105, 2.195 213.438 C 3.403 213.055, 6.502 211.442, 9.083 209.854 C 11.664 208.266, 16.960 206.158, 20.854 205.169 C 24.747 204.181, 28.735 202.687, 29.716 201.851 C 30.697 201.014, 33.075 199.735, 35 199.010 C 36.925 198.284, 39.850 196.916, 41.500 195.970 C 43.150 195.025, 47.632 193.258, 51.459 192.045 C 55.286 190.831, 59.631 188.975, 61.113 187.919 C 62.596 186.864, 64.775 186, 65.956 186 C 67.137 186, 69.768 185.138, 71.802 184.085 C 73.836 183.032, 77.075 181.507, 79 180.696 C 80.925 179.885, 84.235 178.481, 86.356 177.576 C 92.509 174.951, 93 175.986, 92.900 191.366 C 92.853 198.590, 92.887 225.988, 92.977 252.250 L 93.139 300 98.601 300 C 104.638 300, 105.989 298.717, 103.956 294.918 C 103.068 293.258, 102.725 277.114, 102.629 232.467 L 102.500 172.254 107.500 170.602 C 125.050 164.802, 125.031 164.807, 141 161.820 C 144.025 161.254, 147.400 160.404, 148.500 159.932 C 149.600 159.459, 153.650 158.860, 157.500 158.601 C 178.923 157.159, 184.597 154.455, 179.935 147.909 C 177.708 144.781, 175.432 144.433, 167.500 146.009" stroke="none" fill="black" fill-rule="evenodd"/>
</svg>