<svg xmlns="http://www.w3.org/2000/svg" width="300" height="300" viewBox="0 0 300 300" version="1.1">
	<path d="M 125.061 18.939 C 123.702 20.298, 122.947 22.448, 122.843 25.250 C 122.563 32.862, 121.163 40.978, 119.844 42.639 C 119.347 43.265, 116.955 44.278, 114.529 44.888 C 112.103 45.499, 109.840 46.449, 109.500 46.999 C 108.673 48.338, 101.293 48.283, 100.458 46.932 C 100.095 46.345, 99.559 43.082, 99.266 39.682 C 98.973 36.282, 98.289 32.938, 97.745 32.250 C 97.079 31.409, 97.151 30.523, 97.964 29.544 C 99.540 27.645, 98.462 26, 95.641 26 C 94.408 26, 92.947 25.547, 92.392 24.992 C 91.838 24.438, 89.611 23.876, 87.442 23.742 L 83.500 23.500 83.374 28.500 C 83.278 32.322, 83.891 34.566, 85.977 38.026 C 89.230 43.421, 90.713 51.178, 88.788 52.733 C 88.080 53.305, 85.475 54.099, 83 54.496 C 75.458 55.706, 72.572 60.493, 76.980 64.482 C 78.701 66.040, 79.646 66.137, 84.228 65.231 C 90.293 64.032, 91 64.263, 91 67.437 C 91 72.771, 97.666 73.625, 99.299 68.500 C 100.710 64.072, 103.843 61.077, 109.874 58.392 C 116.430 55.474, 116.801 55.464, 119.635 58.127 C 122.489 60.808, 124.855 59.975, 125.648 56.008 C 126.074 53.882, 127.585 52.072, 130.678 49.984 C 133.110 48.343, 135.372 47, 135.703 47 C 137.753 47, 149.086 40.708, 149.952 39.090 C 151.876 35.495, 151.229 32.038, 148.435 30.975 C 144.797 29.592, 144.363 29.696, 141.682 32.587 C 140.113 34.280, 138.110 35.231, 135.892 35.337 C 132.591 35.496, 132.492 35.387, 132.194 31.288 C 132.026 28.972, 132.343 26.227, 132.898 25.190 C 133.472 24.117, 133.576 22.051, 133.138 20.402 C 132.150 16.678, 128.062 15.938, 125.061 18.939 M 143.832 85.355 C 141.814 85.985, 139.827 86.838, 139.415 87.250 C 139.003 87.662, 137.643 88, 136.392 88 C 135.141 88, 133.876 88.392, 133.580 88.871 C 133.284 89.350, 131.644 90.021, 129.937 90.363 C 128.229 90.704, 125.563 91.887, 124.011 92.992 C 120.329 95.614, 118.215 95.535, 117.820 92.761 C 117.209 88.484, 101.739 83.199, 99.109 86.369 C 97.334 88.507, 100.174 93.580, 104.611 96.198 C 106.540 97.336, 107.964 98.912, 107.799 99.725 C 107.634 100.533, 101.425 104.723, 94 109.034 C 86.575 113.346, 79.600 117.599, 78.500 118.486 C 72.702 123.156, 70.590 123.089, 63.261 118.001 C 60.092 115.802, 57.050 113.992, 56.500 113.979 C 55.950 113.966, 54.375 113.076, 53 112 C 51.265 110.643, 48.916 110.038, 45.321 110.022 C 39.852 109.999, 37 111.665, 37 114.883 C 37 117.445, 40.727 121, 43.413 121 C 47.329 121, 53.461 123.617, 59.989 128.073 C 64.507 131.157, 67.487 132.437, 70.918 132.766 C 75.251 133.183, 76.239 132.816, 83.067 128.254 C 87.155 125.523, 91.625 122.720, 93 122.024 C 94.375 121.329, 96.850 119.521, 98.500 118.007 C 100.150 116.493, 102.625 114.981, 104 114.648 C 105.375 114.314, 107.850 113.139, 109.500 112.035 C 113.652 109.259, 114.914 108.534, 119.500 106.299 C 121.700 105.227, 124.400 103.847, 125.500 103.232 C 133.240 98.909, 143.287 94.902, 145.694 95.179 C 150.308 95.710, 149.605 98.400, 142.997 105.503 C 139.624 109.128, 137.056 112.636, 137.290 113.297 C 138.111 115.619, 146.044 114.169, 149.599 111.047 C 151.403 109.463, 153.488 107.792, 154.231 107.333 C 156.694 105.814, 160.844 94.774, 160.284 91.231 C 159.275 84.846, 152.833 82.545, 143.832 85.355 M 159.625 120.861 C 158.699 121.885, 156.042 123.500, 153.720 124.449 C 151.399 125.399, 143.875 128.786, 137 131.977 C 126.110 137.032, 115.625 141.703, 107 145.341 C 103.035 147.013, 96 154.184, 96 156.553 C 96 158.949, 98.880 162, 101.142 162 C 101.958 162, 103.919 160.650, 105.500 159 C 107.081 157.350, 109.163 156, 110.128 156 C 111.093 156, 112.177 155.522, 112.538 154.938 C 112.899 154.354, 114.163 153.430, 115.347 152.884 C 116.531 152.338, 119.075 151.037, 121 149.994 C 124.388 148.157, 129 147.361, 129 148.614 C 129 148.951, 128.125 150.864, 127.055 152.864 C 125.986 154.864, 123.319 160.325, 121.128 165 C 118.558 170.484, 115.559 175.047, 112.674 177.859 C 108.623 181.808, 108.283 182.499, 109.059 185.206 C 109.530 186.849, 110.398 188.774, 110.986 189.484 C 111.575 190.193, 113.178 192.962, 114.548 195.637 C 117.770 201.926, 118.850 215.454, 117.026 226.690 C 115.334 237.121, 115.295 246.446, 116.937 248.424 C 120.139 252.282, 125.211 248.344, 124.383 242.642 C 124.133 240.914, 124.360 238.853, 124.888 238.063 C 125.671 236.892, 126.417 237.235, 128.925 239.920 C 130.995 242.136, 132.548 243.004, 133.671 242.573 C 138.475 240.729, 145.734 239.804, 156.755 239.629 C 167.801 239.454, 169.221 239.224, 171.150 237.294 L 173.291 235.153 170 232.147 C 166.843 229.264, 166.742 228.944, 167.533 224.321 C 168.741 217.253, 168.674 198.559, 167.411 190.500 C 165.421 177.799, 159.157 167.927, 151.839 165.957 C 143.998 163.845, 129.079 174.353, 127.302 183.239 C 126.559 186.957, 123 187.131, 123 183.450 C 123 180.829, 125.245 175.655, 127.535 173 C 128.246 172.175, 131.385 166.403, 134.511 160.174 C 139.082 151.064, 140.079 148.227, 139.606 145.674 C 139.067 142.764, 139.371 142.292, 143.259 140.001 C 145.592 138.626, 149.202 137.185, 151.283 136.797 C 153.364 136.410, 156.237 135.172, 157.668 134.046 C 159.099 132.921, 161.248 132, 162.444 132 C 164.690 132, 166.698 130.699, 168.829 127.862 C 170.474 125.672, 168.651 121.617, 165.343 120.110 C 162.083 118.625, 161.590 118.690, 159.625 120.861 M 73.200 145.200 C 72.540 145.860, 72 148.341, 72 150.714 C 72 153.086, 71.592 155.809, 71.092 156.764 C 70.593 157.719, 69.495 160.750, 68.653 163.500 C 65.895 172.502, 62.112 182.033, 60.201 184.793 C 59.170 186.282, 55.999 191.960, 53.154 197.411 C 48.266 206.778, 48.066 207.451, 49.514 209.661 C 50.357 210.948, 51.500 212, 52.055 212 C 53.977 212, 60.406 208.927, 63.629 206.469 C 65.410 205.111, 67.517 204, 68.312 204 C 70.883 204, 72.070 209.332, 72.287 221.861 C 72.499 234.090, 72.509 234.134, 75.261 235.802 C 80.976 239.268, 82.840 234.939, 82.942 217.962 C 83.036 202.391, 77.807 192, 69.876 192 C 67.003 192, 66.832 191.804, 67.466 189.250 C 67.841 187.738, 68.565 186.350, 69.074 186.167 C 69.583 185.983, 70 185.026, 70 184.039 C 70 183.052, 70.675 181.685, 71.500 181 C 72.325 180.315, 73 178.712, 73 177.437 C 73 176.161, 73.457 174.836, 74.015 174.491 C 75.333 173.676, 78 167.281, 78 164.935 C 78 163.934, 78.901 161.587, 80.002 159.721 C 81.104 157.854, 81.964 155.241, 81.914 153.913 C 81.865 152.586, 82.124 150.555, 82.490 149.399 C 83.796 145.275, 76.447 141.953, 73.200 145.200 M 142.500 180.454 C 136.088 183.575, 133 186.301, 133 188.837 C 133 189.947, 131.477 192.125, 129.617 193.677 C 126.238 196.496, 126.234 196.508, 127.066 202.500 C 127.540 205.914, 127.507 210.224, 126.990 212.500 C 125.861 217.463, 125.157 236, 126.097 236 C 126.476 236, 127.024 235.379, 127.315 234.621 C 128.214 232.279, 141.737 228.789, 150.500 228.638 L 158.500 228.500 158.783 218.417 L 159.066 208.333 154.283 208.261 C 148.438 208.172, 143.712 210.142, 142.291 213.260 C 141.040 216.006, 135.098 218.194, 132.635 216.815 C 130.344 215.534, 130.600 211.745, 133.250 207.724 C 136.142 203.335, 148.448 195, 152.037 195 C 155.750 195, 157.150 193.014, 156.341 188.893 C 155.429 184.245, 151.351 177.998, 149.237 178.010 C 148.282 178.015, 145.250 179.115, 142.500 180.454" stroke="none" fill="black" fill-rule="evenodd"/>
</svg>