<svg xmlns="http://www.w3.org/2000/svg" width="300" height="300" viewBox="0 0 300 300" version="1.1">
	<path d="M 81.309 44.636 C 80.964 45.536, 81.191 46.998, 81.813 47.886 C 83.649 50.505, 85.667 55.218, 86.786 59.500 C 87.361 61.700, 88.306 65.282, 88.886 67.459 C 89.988 71.593, 89.295 72.924, 86 73.007 C 85.175 73.028, 83.375 73.917, 82 74.983 C 79.620 76.829, 79.574 77.056, 81.035 79.711 C 82.128 81.697, 83.567 82.644, 86.035 83 C 89.367 83.481, 89.512 83.679, 89.802 88.170 C 90.339 96.498, 94.389 96.800, 97.984 88.781 C 98.902 86.735, 100.855 84.115, 102.326 82.958 C 103.824 81.780, 105 79.855, 105 78.582 C 105 76.540, 105.458 76.318, 109.500 76.404 C 113.934 76.499, 114.001 76.551, 114.118 80 C 114.442 89.549, 117.437 92.839, 120.400 86.900 C 121.280 85.136, 122 82.908, 122 81.948 C 122 80.989, 123.120 78.246, 124.488 75.852 C 125.856 73.458, 126.981 70.311, 126.988 68.858 C 126.996 67.137, 128.605 64.431, 131.603 61.097 C 137.001 55.092, 137.005 52.533, 131.612 53.545 C 128.561 54.117, 128.054 53.883, 126.840 51.343 C 123.826 45.037, 117.097 48.686, 117.033 56.661 C 116.996 61.367, 114.911 63.658, 106.719 67.997 C 100.827 71.118, 98.787 70.177, 97.831 63.896 C 96.286 53.753, 93.751 48.718, 88.437 45.235 C 84.394 42.584, 82.169 42.397, 81.309 44.636 M 120.686 110.794 C 118.416 113.303, 119.816 118.105, 123.315 119.805 C 125.083 120.664, 126 121.902, 126 123.432 C 126 124.710, 126.675 126.315, 127.500 127 C 128.325 127.685, 129 128.791, 129 129.459 C 129 130.894, 116.912 134, 111.329 134 C 106.860 134, 103 136.287, 103 138.934 C 103 141.750, 105.078 142.853, 111.018 143.190 C 116.376 143.494, 116.487 143.563, 117.163 147 C 117.541 148.925, 118.884 153.279, 120.148 156.675 C 122.414 162.764, 122.420 162.879, 120.535 164.961 C 118.326 167.402, 112.966 169.928, 101 174.168 C 96.325 175.824, 90.372 177.933, 87.772 178.853 C 81.299 181.145, 79.813 182.816, 80.627 186.887 C 81.634 191.922, 84.908 192.937, 90.791 190.040 C 93.381 188.764, 97.975 186.919, 101 185.939 C 105.693 184.419, 110.282 182.657, 121.500 178.067 C 122.600 177.617, 124.847 176.703, 126.494 176.035 C 128.141 175.367, 132.739 173.759, 136.713 172.462 C 145.844 169.481, 147.718 168.465, 148.473 166.085 C 148.966 164.532, 150.264 164.087, 155.291 163.748 C 158.706 163.517, 164.083 162.587, 167.240 161.680 C 172.871 160.062, 180.192 159.858, 181.614 161.280 C 182.009 161.676, 184.199 162, 186.479 162 C 189.957 162, 190.994 161.500, 192.923 158.891 C 194.960 156.135, 195.071 155.502, 193.900 153.313 C 193.174 151.956, 191.752 150.402, 190.740 149.861 C 187.709 148.238, 166.709 150.742, 157.378 153.839 C 151.762 155.703, 147.803 156.419, 144.547 156.160 C 140.015 155.800, 139.862 155.686, 140.496 153.143 C 140.859 151.689, 141.741 149.825, 142.456 149 C 143.784 147.469, 144.714 143.781, 145.662 136.292 C 146.131 132.589, 146.771 131.714, 150.990 129.006 C 156.100 125.727, 157.195 123.759, 155.883 120.213 C 154.652 116.884, 150.464 117.511, 143.500 122.064 C 135.668 127.186, 133.132 128.465, 132.353 127.687 C 132.002 127.336, 132.254 126.399, 132.913 125.605 C 133.611 124.764, 133.983 121.955, 133.805 118.865 C 133.531 114.105, 133.155 113.336, 130.102 111.284 C 126.015 108.537, 122.877 108.374, 120.686 110.794 M 75.375 119.963 C 73.262 120.838, 71 125.598, 71 129.169 C 71 130.198, 69.814 132.919, 68.364 135.216 C 66.613 137.990, 65.736 140.754, 65.754 143.446 C 65.769 145.699, 64.941 148.885, 63.890 150.618 C 62.851 152.333, 62 154.609, 62 155.677 C 62 156.744, 61.339 158.491, 60.532 159.559 C 59.724 160.626, 59.049 162.091, 59.032 162.813 C 59.014 163.535, 57.818 166.685, 56.372 169.813 C 54.927 172.941, 53.408 176.400, 52.997 177.500 C 52.586 178.600, 50.619 182.809, 48.625 186.853 C 44.820 194.570, 44.034 199.953, 46.422 201.935 C 47.519 202.846, 48.317 202.819, 49.922 201.817 C 51.945 200.553, 55 195.309, 55 193.099 C 55 192.494, 55.450 192, 56 192 C 56.550 192, 57 191.170, 57 190.155 C 57 188.184, 59.937 185, 61.755 185 C 63.405 185, 66 190.862, 66 194.589 C 66 196.393, 66.516 199.137, 67.146 200.685 C 68.360 203.670, 69.834 218.996, 70.481 235.386 C 70.696 240.823, 71.296 245.696, 71.814 246.214 C 72.332 246.732, 74.049 247.009, 75.628 246.828 L 78.500 246.500 78.809 237.500 C 79.167 227.071, 76.280 192.953, 74.920 191.550 C 74.414 191.028, 74 189.762, 74 188.738 C 74 184.206, 70.823 177.327, 67.945 175.626 C 64.453 173.564, 64.402 173.140, 67 167.764 C 68.100 165.487, 69 162.957, 69 162.141 C 69 161.325, 69.612 159.947, 70.359 159.079 C 71.107 158.210, 72.247 155.325, 72.894 152.667 C 73.774 149.052, 75.321 146.583, 79.035 142.869 L 84 137.905 83.985 130.202 C 83.976 125.966, 83.634 121.973, 83.225 121.329 C 82.169 119.670, 77.884 118.925, 75.375 119.963 M 128.097 140.644 C 125.979 142.128, 125.805 142.822, 126.314 147.750 C 126.973 154.142, 127.374 154.762, 129.638 152.893 C 131.270 151.544, 136 141.939, 136 139.971 C 136 138.402, 130.648 138.858, 128.097 140.644 M 155.500 191.209 C 153.850 191.788, 151.790 192.877, 150.921 193.630 C 150.053 194.384, 148.392 195, 147.230 195 C 146.069 195, 144.862 195.414, 144.550 195.919 C 144.238 196.424, 141.046 198.480, 137.457 200.487 C 133.868 202.494, 130.389 205.005, 129.726 206.068 C 127.977 208.867, 125.951 208.443, 122.089 204.468 C 117.985 200.245, 114.461 199.110, 112.267 201.305 C 110.916 202.655, 110.884 203.307, 112.036 206.086 C 112.769 207.856, 115.068 211.267, 117.144 213.667 C 119.221 216.066, 121.651 219.710, 122.544 221.765 C 123.437 223.819, 124.580 226.281, 125.084 227.236 C 125.588 228.191, 126 231.609, 126 234.831 C 126 239.237, 126.454 241.100, 127.829 242.345 C 130.060 244.364, 131.035 244.399, 134.669 242.593 C 141.201 239.345, 142.862 238.821, 144.740 239.417 C 145.917 239.791, 147.202 239.462, 147.914 238.604 C 150.225 235.819, 172.668 238.741, 178.760 242.620 C 180.485 243.718, 181.507 243.799, 183.074 242.960 C 185.889 241.454, 184.835 236.356, 181.014 232.997 C 178.207 230.529, 169.985 228, 164.768 228 C 161.511 228, 157 226.057, 157 224.654 C 157 224.090, 157.857 222.700, 158.903 221.564 C 159.950 220.429, 162.425 216.482, 164.403 212.793 C 167.304 207.384, 168 205.003, 168 200.495 C 168 195.734, 167.607 194.541, 165.354 192.452 C 162.520 189.825, 160.261 189.541, 155.500 191.209 M 151.312 203.719 C 148.967 204.012, 148.041 204.688, 147.812 206.275 C 147.597 207.759, 146.426 208.740, 144.060 209.416 C 139.860 210.615, 131.982 217.937, 132.048 220.579 C 132.074 221.635, 132.881 224.075, 133.840 226 C 135.203 228.737, 136.119 229.448, 138.042 229.260 C 141.560 228.917, 153.188 216.414, 155.417 210.578 C 157.088 206.204, 157.025 202.803, 155.281 203.160 C 154.852 203.248, 153.065 203.499, 151.312 203.719" stroke="none" fill="black" fill-rule="evenodd"/>
</svg>