<svg xmlns="http://www.w3.org/2000/svg" width="300" height="300" viewBox="0 0 300 300" version="1.1">
	<path d="M 110.862 19.750 C 110.264 21.262, 109.573 24.525, 109.328 27 C 108.630 34.052, 108.060 36, 106.693 36 C 105.995 36, 103.866 37.332, 101.962 38.959 C 100.058 40.587, 98.040 41.937, 97.478 41.959 C 96.916 41.982, 94.778 43.383, 92.727 45.073 C 87.899 49.053, 85.718 48.630, 84.892 43.551 C 84.141 38.933, 80.786 35.768, 77.100 36.200 C 74.932 36.455, 74.432 37.164, 73.802 40.880 C 73.195 44.462, 73.419 45.717, 75.030 47.765 C 76.113 49.143, 77 50.859, 77 51.578 C 77 53.350, 73.051 56, 70.412 56 C 69.234 56, 67.126 56.900, 65.727 58 C 64.097 59.282, 61.670 60, 58.967 60 C 54.760 60, 54.752 60.008, 55.387 63.184 C 56.162 67.058, 58.660 70, 61.174 70 C 62.199 70, 65.568 68.650, 68.660 67 C 71.752 65.350, 75.327 64, 76.606 64 C 79.175 64, 81.489 67.282, 80.584 69.641 C 79.631 72.126, 82.772 77, 85.326 77 C 89.084 77, 90 75.103, 90 67.323 C 90 60.506, 90.172 59.934, 92.719 58.273 C 94.214 57.298, 97.252 54.818, 99.469 52.762 C 101.686 50.707, 104.063 49.019, 104.750 49.012 C 106.516 48.995, 106.353 56.151, 104.532 58.559 C 103.724 59.626, 103.049 61.140, 103.032 61.921 C 103.014 62.703, 102.360 64.053, 101.577 64.921 C 100.185 66.466, 97.353 73.337, 96.313 77.692 C 95.854 79.612, 96.091 79.798, 98.224 79.192 C 104.039 77.539, 115.781 58.566, 117.957 47.305 C 118.574 44.112, 119.293 40.496, 119.554 39.268 C 119.815 38.041, 121.404 35.471, 123.085 33.556 C 127.210 28.858, 126.929 24.500, 122.500 24.500 C 120.059 24.500, 119.436 24.034, 119.154 22 C 118.677 18.554, 117.185 17, 114.353 17 C 112.663 17, 111.628 17.815, 110.862 19.750 M 129.131 77.342 C 128.519 78.080, 128.214 78.880, 128.453 79.120 C 128.693 79.360, 128.487 81.341, 127.995 83.522 C 127.462 85.885, 127.472 89.146, 128.021 91.594 C 129.640 98.816, 128.208 105.480, 124.009 110.270 C 121.969 112.597, 119.721 116.270, 119.012 118.434 C 117.766 122.238, 117.818 122.443, 120.569 124.637 L 123.415 126.906 121.708 130.487 C 120.768 132.456, 120 134.732, 120 135.545 C 120 136.357, 119.138 138.929, 118.084 141.261 C 117.030 143.592, 115.591 147.300, 114.885 149.500 C 113.022 155.308, 112.204 155.876, 104.486 156.729 C 97.769 157.470, 97.487 157.609, 97.175 160.338 C 96.672 164.733, 99.266 166.908, 104.217 166.244 L 108.311 165.695 107.747 169.097 C 107.437 170.969, 104.951 177.225, 102.222 183 C 99.494 188.775, 96.947 194.512, 96.564 195.749 C 96.180 196.986, 94.433 200.183, 92.683 202.854 C 90.932 205.524, 89.050 208.398, 88.500 209.241 C 87.950 210.084, 86.190 212.424, 84.590 214.441 C 81.973 217.739, 81.835 218.263, 83.216 219.644 C 84.597 221.025, 85.079 221.011, 88.001 219.500 C 91.069 217.913, 91.438 217.921, 94.640 219.645 C 97.407 221.135, 98.349 221.243, 99.765 220.233 C 100.719 219.552, 102.496 218.564, 103.712 218.037 C 104.929 217.509, 107.716 215.893, 109.905 214.444 C 112.094 212.996, 114.369 212.110, 114.961 212.476 C 116.395 213.362, 122.698 209.391, 124.695 206.342 C 126.213 204.026, 126.154 203.770, 123.457 200.955 C 118.832 196.128, 114.586 196.898, 105.861 204.146 C 98.814 210.001, 96.993 209.139, 101.459 202.064 C 102.812 199.921, 104.387 197.879, 104.959 197.525 C 105.532 197.171, 106 195.976, 106 194.870 C 106 193.763, 106.663 192.194, 107.474 191.384 C 108.284 190.573, 109.448 188.049, 110.061 185.774 C 110.673 183.499, 112.260 180.214, 113.587 178.474 C 114.914 176.735, 116 174.320, 116 173.108 C 116 170.808, 120.402 166, 122.509 166 C 123.178 166, 125.424 167.350, 127.500 169 C 129.576 170.650, 131.630 172, 132.065 172 C 132.499 172, 133.823 170.770, 135.006 169.266 C 136.583 167.260, 136.996 165.732, 136.556 163.529 C 135.711 159.304, 134.025 157.985, 128.403 157.150 C 123.958 156.489, 123.524 156.192, 123.752 153.961 C 123.987 151.670, 124.970 148.983, 127.117 144.764 C 127.603 143.809, 128 142.211, 128 141.214 C 128 140.216, 128.389 138.972, 128.865 138.450 C 130.318 136.855, 134.812 123.778, 135.550 119 C 136.320 114.010, 139.347 109, 141.593 109 C 144.643 109, 145.245 115.333, 143.019 124 C 140.035 135.619, 139.692 140.120, 141.026 150.196 C 141.991 157.488, 142.993 161.184, 144.678 163.667 C 145.955 165.549, 147 167.449, 147 167.889 C 147 171.537, 161.109 175.402, 172.227 174.801 C 178.311 174.472, 179.299 174.106, 182.562 170.969 C 186.981 166.721, 188.681 163.586, 190.066 157.128 C 190.919 153.153, 190.842 151.590, 189.683 149.328 C 188.886 147.773, 187.644 143.800, 186.924 140.500 C 185.376 133.409, 182.228 126.761, 177.459 120.514 C 175.556 118.022, 174 115.621, 174 115.178 C 174 114.736, 172.644 113.075, 170.986 111.487 C 168.257 108.872, 167.825 108.746, 166.413 110.158 C 165.002 111.570, 165.007 112.081, 166.466 115.573 C 167.352 117.694, 168.402 119.671, 168.798 119.965 C 170.714 121.387, 174.847 129.181, 176.810 135.070 C 180.342 145.669, 179.328 156.937, 174.372 162.166 C 171.702 164.983, 171.125 165.159, 166.183 164.664 C 162.003 164.245, 159.917 163.354, 156.433 160.498 C 152.579 157.341, 152 156.361, 152 152.998 C 152 150.871, 151.533 147.902, 150.962 146.401 C 149.816 143.385, 151.363 130.061, 153.274 126.500 C 155.205 122.901, 155.433 109.739, 153.625 106.242 C 151.509 102.150, 150.527 101.616, 144 101.011 L 138.500 100.500 138.432 89.619 C 138.372 80.187, 138.114 78.556, 136.490 77.369 C 134.104 75.624, 130.568 75.611, 129.131 77.342 M 76.716 84.904 C 75.772 86.502, 75 89.608, 75 91.806 C 75 95.373, 74.668 95.920, 71.919 96.879 C 70.224 97.469, 66.533 98.258, 63.718 98.632 C 60.367 99.076, 57.804 100.106, 56.299 101.610 C 53.479 104.430, 53.459 105.042, 56.073 108.365 C 58.245 111.127, 60.857 111.743, 62.678 109.922 C 63.270 109.330, 65.273 108.460, 67.128 107.990 C 68.982 107.520, 71.583 106.809, 72.908 106.410 C 75.274 105.697, 75.304 105.766, 74.656 110.491 C 73.845 116.407, 73.123 117.304, 66.651 120.439 C 63.818 121.811, 60.375 123.795, 59 124.848 C 57.625 125.901, 53.462 128.413, 49.750 130.430 C 43.901 133.609, 43 134.471, 43 136.894 C 43 140.800, 46.445 143.828, 49.042 142.206 C 50.104 141.543, 51.459 141, 52.053 141 C 52.647 141, 54.608 139.875, 56.411 138.500 C 59.785 135.927, 63 135.210, 63 137.032 C 63 137.600, 62.325 139.680, 61.500 141.654 C 60.675 143.629, 60 146.098, 60 147.141 C 60 148.183, 58.903 151.166, 57.562 153.768 C 53.732 161.203, 53.283 165.608, 56.053 168.556 C 58.979 171.671, 61.341 171.654, 63.821 168.500 C 66.491 165.107, 67 165.336, 67 169.933 C 67 173.359, 66.441 174.324, 62.670 177.414 C 60.289 179.365, 56.239 181.891, 53.670 183.028 C 49.741 184.766, 49 185.530, 49 187.847 C 49 189.361, 49.540 191.140, 50.200 191.800 C 51.656 193.256, 55.646 193.382, 56.500 192 C 56.840 191.450, 57.844 191, 58.730 191 C 59.617 191, 61.132 190.286, 62.097 189.412 C 63.062 188.539, 64.672 188.001, 65.676 188.218 C 67.153 188.536, 66.549 189.501, 62.500 193.295 C 59.750 195.871, 56.972 197.983, 56.327 197.989 C 54.503 198.006, 49 203.949, 49 205.903 C 49 207.945, 53.001 212, 55.017 212 C 55.780 212, 57.899 210.552, 59.724 208.783 C 62.230 206.354, 63.956 205.557, 66.761 205.533 C 70.046 205.504, 70.680 205.075, 72.203 201.844 C 73.151 199.833, 75.294 197.215, 76.964 196.026 C 78.634 194.837, 80.001 193.332, 80.001 192.682 C 80.002 192.032, 81.390 190.150, 83.086 188.500 C 84.782 186.850, 87.458 184.239, 89.034 182.699 C 93.668 178.167, 90.070 174.094, 84.845 177.956 C 83.325 179.080, 81.388 180, 80.540 180 C 77.883 180, 78.937 176.589, 82.240 174.500 C 86.186 172.004, 89.367 166.731, 88.525 164.079 C 87.541 160.977, 84.194 160.481, 80.864 162.942 C 77.518 165.416, 76.725 165.164, 75.036 161.086 C 74.303 159.316, 72.645 157.723, 70.906 157.117 C 67.632 155.976, 67.437 155.328, 69.532 152.559 C 70.339 151.491, 71 149.444, 71 148.009 C 71 146.574, 71.430 144.970, 71.956 144.444 C 72.481 143.919, 73.062 140.788, 73.247 137.487 C 73.614 130.920, 74.363 129, 76.559 129 C 77.694 129, 78 130.705, 78 137.032 C 78 153.897, 85.613 161.401, 95.468 154.250 C 102.834 148.906, 104.927 146.449, 104.301 143.885 C 103.513 140.662, 101.076 138, 98.913 138 C 97.936 138, 96.157 139.375, 94.960 141.056 C 93.315 143.367, 92.140 144.037, 90.142 143.806 C 87.626 143.515, 87.486 143.191, 87.196 137.019 C 86.996 132.742, 86.330 129.917, 85.238 128.711 C 82.881 126.106, 84.621 123.843, 90.421 121.972 C 102.099 118.204, 101.696 106.803, 89.989 109.775 C 86.643 110.624, 85.765 110.552, 85.320 109.392 C 84.555 107.398, 86.700 102.630, 89.580 99.924 C 93.492 96.249, 92.074 88.444, 87.966 91.042 C 85.174 92.808, 84 92.077, 84 88.571 C 84 85.137, 81.920 82, 79.644 82 C 78.977 82, 77.659 83.307, 76.716 84.904 M 124 222.702 C 123.175 223.028, 121.084 224.523, 119.354 226.025 C 117.624 227.527, 113.574 229.996, 110.354 231.511 C 107.134 233.027, 102.860 235.556, 100.856 237.133 C 98.852 238.710, 96.577 240, 95.800 240 C 95.024 240, 92.839 241.164, 90.944 242.587 C 87.900 244.873, 86.848 245.108, 81.879 244.615 C 77.270 244.158, 75.964 244.382, 74.629 245.858 C 72.475 248.238, 72.579 250.797, 74.989 254.750 C 76.956 257.975, 80.408 259.070, 82.550 257.147 C 83.757 256.065, 92.909 253.575, 93.502 254.169 C 94.114 254.780, 87.210 270.647, 84.338 275.230 C 83.052 277.282, 82 279.179, 82 279.445 C 82 279.712, 80.624 282.084, 78.942 284.715 C 75.624 289.908, 75.540 293.729, 78.667 297.184 C 80.364 299.059, 86.440 299.715, 87.420 298.129 C 87.716 297.650, 89.354 296.979, 91.059 296.638 C 95.276 295.795, 100.914 293.107, 104.327 290.314 C 105.881 289.041, 107.713 288, 108.397 288 C 109.081 288, 111.480 286.425, 113.729 284.500 C 115.978 282.575, 118.272 281, 118.828 281 C 120.807 281, 133 266.623, 133 264.289 C 133 260.756, 136.061 261.454, 140.500 266 C 142.648 268.200, 144.936 270, 145.584 270 C 146.232 270, 147.889 271.462, 149.266 273.250 C 150.644 275.038, 154.993 280.100, 158.932 284.500 C 162.871 288.900, 166.982 294.188, 168.067 296.250 C 170.039 299.998, 170.045 300, 176.556 300 C 182.942 300, 183.047 299.957, 181.902 297.817 C 180.015 294.291, 173.867 285.743, 170.885 282.500 C 169.368 280.850, 166.636 277.862, 164.813 275.860 C 148.416 257.843, 135.726 247, 131.037 247 C 128.613 247, 126 250.645, 126 254.026 C 126 257.657, 121.336 266.598, 118.162 269.052 C 104.016 279.991, 96.118 284.643, 93.438 283.615 C 91.680 282.940, 92.675 279.755, 97.903 269.333 C 100.156 264.841, 102 260.255, 102 259.142 C 102 258.029, 102.392 256.876, 102.871 256.580 C 103.350 256.284, 103.998 254.761, 104.311 253.196 C 105.347 248.015, 113.386 240.395, 122.529 235.928 C 132.148 231.229, 132.845 230.578, 133.222 225.932 C 133.494 222.576, 133.412 222.496, 129.500 222.305 C 127.300 222.198, 124.825 222.377, 124 222.702" stroke="none" fill="black" fill-rule="evenodd"/>
</svg>