<svg xmlns="http://www.w3.org/2000/svg" width="300" height="300" viewBox="0 0 300 300" version="1.1">
	<path d="M 120.406 17.428 C 118.684 18.634, 117.429 21.480, 115.432 28.703 C 115.077 29.984, 107.462 34, 105.385 34 C 104.704 34, 103.042 31.587, 101.692 28.638 C 99.046 22.860, 95.789 20.972, 91.979 23.011 C 89.588 24.291, 89.481 26.663, 91.579 31.906 C 93.914 37.740, 93.211 40.241, 88.891 41.472 C 86.906 42.037, 84.544 43.118, 83.641 43.872 C 81.454 45.701, 81.560 50.235, 83.856 53.070 C 85.557 55.171, 85.972 55.254, 88.838 54.067 C 93.019 52.335, 94.800 53.212, 95.182 57.193 C 95.430 59.768, 96.010 60.572, 97.805 60.827 C 101.188 61.306, 103 59.258, 103 54.955 C 103 51.733, 103.635 50.613, 107.180 47.578 C 113.116 42.497, 114 42.814, 114 50.031 C 114 54.722, 114.368 56.204, 115.656 56.698 C 118.112 57.641, 120.623 53.903, 121.383 48.173 C 122.533 39.498, 125.967 35.265, 135.426 30.862 C 139.169 29.120, 139.527 27.872, 137.132 24.915 C 135.308 22.662, 134.988 22.603, 131.500 23.864 C 127.036 25.478, 125.165 24.310, 127.143 21.143 C 128.277 19.327, 128.188 18.852, 126.475 17.557 C 123.981 15.671, 122.945 15.650, 120.406 17.428 M 87.109 71.796 C 86.580 72.784, 86.220 77.847, 86.309 83.046 C 86.477 92.892, 85.662 96.264, 80.377 107.600 C 77.374 114.042, 77.387 115.808, 80.443 116.575 C 83.595 117.366, 84.576 116.695, 86.647 112.331 C 88.556 108.309, 97.422 99, 99.345 99 C 100.032 99, 102.352 97.200, 104.500 95 C 106.903 92.539, 109.325 91, 110.795 91 C 112.109 91, 114.336 90.094, 115.743 88.988 C 117.150 87.881, 120.004 86.703, 122.087 86.370 C 124.169 86.037, 126.880 84.692, 128.112 83.381 C 130.050 81.318, 130.227 80.491, 129.426 77.248 L 128.500 73.500 122.538 73.194 C 117.638 72.942, 115.610 73.376, 111.155 75.630 C 108.173 77.139, 104.234 79.918, 102.400 81.806 C 97.877 86.463, 96.076 85.626, 96.229 78.938 C 96.328 74.572, 95.970 73.481, 93.923 71.907 C 90.847 69.542, 88.337 69.501, 87.109 71.796 M 130.200 102.200 C 129.490 102.910, 129 106.326, 129 110.565 C 129 118.675, 127.657 121.202, 121.657 124.378 C 117.252 126.710, 115 125.975, 115 122.206 C 115 118.766, 110.884 114.447, 108.484 115.368 C 107.168 115.873, 106.909 117.335, 107.099 123.199 C 107.320 130.009, 107.182 130.522, 104.608 132.443 L 101.883 134.478 97.410 129.676 C 93.866 125.871, 92.376 124.938, 90.237 125.187 C 88.337 125.407, 87.252 126.314, 86.577 128.245 C 85.759 130.584, 86.016 131.408, 88.309 133.800 C 92.484 138.158, 91.850 139.707, 84.480 143.156 C 77.206 146.560, 73.492 146.424, 72.076 142.701 C 71.013 139.904, 67.067 137.713, 63.899 138.161 C 60.407 138.654, 59.982 144.285, 63.178 147.694 L 65.500 150.170 63.397 151.876 C 62.240 152.815, 59.315 154.170, 56.897 154.888 C 54.478 155.605, 51.022 156.824, 49.216 157.596 C 44.127 159.772, 42 159.439, 42 156.469 C 42 152.836, 39.370 152.284, 36.190 155.249 C 34.711 156.630, 31.700 158.880, 29.500 160.250 C 22.827 164.405, 21.608 166.283, 22.947 170.340 C 24.447 174.884, 27.620 175.714, 33.194 173.021 C 35.494 171.909, 38.390 171, 39.629 171 C 40.868 171, 42.160 170.550, 42.500 170 C 42.840 169.450, 44.126 169, 45.359 169 C 46.592 169, 48.053 168.547, 48.606 167.994 C 49.160 167.440, 51.837 166.363, 54.556 165.599 C 57.275 164.836, 62.162 163.204, 65.416 161.972 C 72.764 159.191, 73.233 159.639, 75.025 171.161 C 76.024 177.583, 76.670 179.362, 78.143 179.748 C 79.384 180.072, 80 181.145, 80 182.982 C 80 184.493, 80.984 187.028, 82.186 188.615 C 83.388 190.202, 84.459 191.633, 84.564 191.795 C 85.074 192.577, 94.788 189.460, 96.885 187.841 C 98.197 186.829, 100.600 186, 102.225 186 C 104.257 186, 106.003 185.063, 107.813 183 C 109.261 181.350, 111.026 180, 111.736 180 C 112.446 180, 113.809 179.603, 114.764 179.118 C 115.719 178.632, 118.300 177.782, 120.500 177.227 C 122.700 176.673, 126.075 175.653, 128 174.960 C 129.925 174.267, 132.757 173.255, 134.293 172.711 C 135.830 172.167, 138.440 170.457, 140.095 168.911 C 143.032 166.168, 143.066 166.028, 141.526 163.050 C 140.343 160.762, 139.256 160, 137.174 160 C 135.648 160, 133.973 160.395, 133.450 160.879 C 131.972 162.245, 117.952 166.285, 117.222 165.555 C 116.864 165.197, 117.118 164.138, 117.788 163.202 C 118.457 162.266, 119.436 160.504, 119.964 159.287 C 120.491 158.070, 122.683 154.245, 124.835 150.787 C 126.986 147.329, 129.034 143.276, 129.385 141.780 C 129.736 140.284, 131.859 137.134, 134.104 134.780 C 136.348 132.426, 138.579 129.768, 139.062 128.872 C 139.545 127.977, 143.215 126.204, 147.220 124.931 C 151.224 123.659, 155.287 121.959, 156.250 121.154 C 158.258 119.475, 158.594 113.994, 156.800 112.200 C 154.949 110.349, 149.552 110.778, 146.727 113 C 145.329 114.100, 143.259 115, 142.127 115 C 139.591 115, 137.633 111.597, 138.404 108.527 C 138.775 107.047, 138.251 105.318, 136.916 103.621 C 134.704 100.809, 132.135 100.265, 130.200 102.200 M 118.585 136.906 C 116.750 138.933, 116.691 145.085, 118.500 145.669 C 119.489 145.988, 123 138.632, 123 136.239 C 123 134.377, 120.537 134.749, 118.585 136.906 M 104.250 143.662 C 103.376 144.015, 103 146.964, 103 153.476 C 103 161.250, 103.275 162.892, 104.670 163.427 C 107.094 164.357, 107.770 162.603, 108.537 153.395 C 109.369 143.414, 108.689 141.871, 104.250 143.662 M 88.284 152.116 C 87.670 152.730, 86.118 153.765, 84.834 154.416 C 83.213 155.239, 82.570 156.349, 82.729 158.050 C 82.855 159.398, 83.305 164.325, 83.729 169 C 84.412 176.527, 84.736 177.534, 86.563 177.795 C 88.747 178.107, 100 170.438, 100 168.637 C 100 168.072, 98.856 166.416, 97.458 164.957 C 95.597 163.014, 94.827 160.992, 94.582 157.402 C 94.398 154.706, 94.192 152.162, 94.124 151.750 C 93.932 150.589, 89.535 150.865, 88.284 152.116 M 165.500 211.643 C 163.850 212.539, 161.262 213.919, 159.750 214.710 C 158.238 215.500, 157 216.385, 157 216.677 C 157 216.969, 160.488 216.903, 164.750 216.531 L 172.500 215.853 175.592 219.177 C 177.293 221.005, 179.270 223.986, 179.985 225.802 C 181.581 229.854, 180.497 233.694, 174.423 245.500 C 167.879 258.219, 167.797 262, 174.066 262 C 177.047 262, 180 258.941, 180 255.854 C 180 254.919, 181.012 252.881, 182.250 251.327 C 183.488 249.772, 185.496 246.475, 186.714 244 C 193.227 230.761, 193.315 222.517, 187.012 215.892 C 184.976 213.751, 182.565 212, 181.655 212 C 180.745 212, 180 211.550, 180 211 C 180 209.351, 168.804 209.847, 165.500 211.643 M 100.750 214.324 C 97.583 216.916, 96.847 221.596, 99.750 220.682 C 100.713 220.379, 102.469 219.835, 103.654 219.474 C 105.243 218.989, 106.554 219.576, 108.654 221.711 C 110.219 223.302, 114.307 226.781, 117.737 229.440 C 123.670 234.039, 124.200 234.244, 128.591 233.643 C 131.130 233.295, 134.398 232.349, 135.854 231.541 C 137.309 230.733, 139.850 229.418, 141.500 228.618 C 145.183 226.833, 150.617 221.283, 149.639 220.306 C 149.246 219.912, 147.478 220.184, 145.712 220.910 C 143.945 221.635, 141.257 222.454, 139.738 222.730 C 138.219 223.005, 136.729 223.629, 136.429 224.115 C 136.128 224.602, 134.145 225, 132.021 225 C 128.822 225, 127.075 224.092, 121.830 219.701 C 111.961 211.440, 106.099 209.944, 100.750 214.324 M 68.285 221.476 C 64.857 222.966, 63.338 226.339, 64.477 229.928 C 65.263 232.405, 67.714 232.589, 70.832 230.405 C 73.951 228.220, 77.253 229.253, 81.852 233.852 C 86.724 238.724, 88.785 239.504, 91.145 237.369 C 93.890 234.885, 93.644 229.329, 90.750 228.455 C 89.513 228.081, 87.375 226.743, 86 225.481 C 83.079 222.800, 76.675 219.983, 73.628 220.039 C 72.458 220.061, 70.053 220.707, 68.285 221.476 M 30 235.732 C 26.418 236.391, 25 237.862, 25 240.922 C 25 244.453, 26.696 246, 30.565 246 C 32.306 246, 34.874 246.900, 36.273 248 C 37.671 249.100, 39.316 250, 39.928 250 C 41.614 250, 48.749 254.730, 49.744 256.507 C 50.225 257.367, 51.943 258.168, 53.560 258.286 C 60.007 258.756, 56.883 249.224, 48.840 243.888 C 46.453 242.304, 44.115 241.007, 43.645 241.004 C 43.175 241.002, 40.790 239.650, 38.345 238 C 35.900 236.350, 33.585 235.061, 33.200 235.136 C 32.815 235.211, 31.375 235.479, 30 235.732" stroke="none" fill="black" fill-rule="evenodd"/>
</svg>