<svg xmlns="http://www.w3.org/2000/svg" width="300" height="300" viewBox="0 0 300 300" version="1.1">
	<path d="M 131.207 17.934 C 130.014 19.547, 128.563 23.035, 127.982 25.684 C 127.402 28.333, 126.710 31.217, 126.446 32.093 C 125.900 33.902, 118.004 39.265, 112.501 41.564 C 107.758 43.546, 106.723 42.683, 103.990 34.471 C 102.663 30.483, 101.196 27.880, 100.075 27.524 C 98.035 26.876, 94.855 27.835, 93.765 29.427 C 92.500 31.276, 92.996 38.411, 94.532 40.441 C 96.950 43.638, 96.356 46.765, 93 48.500 C 90.731 49.674, 90 50.746, 90 52.903 C 90 56.286, 92.215 58.439, 94.958 57.721 C 98.009 56.923, 99.322 59.366, 98.563 64.428 C 97.982 68.300, 98.168 69.020, 100 70 C 105.315 72.845, 107.706 70.039, 107.900 60.729 C 107.988 56.521, 108.325 55.817, 110.750 54.770 C 112.263 54.117, 115.189 52.102, 117.253 50.291 C 125.464 43.090, 125.978 46.708, 119.595 66.764 C 117.831 72.305, 119.436 73.438, 123 69.169 C 126.250 65.276, 127.798 65.158, 128.497 68.750 C 128.791 70.263, 129.492 73.485, 130.055 75.911 C 130.618 78.337, 130.723 80.665, 130.289 81.085 C 129.367 81.976, 122.638 84.673, 108 90.017 C 88.200 97.245, 83.498 99.148, 81.921 100.573 C 81.053 101.358, 79.843 102, 79.233 102 C 78.623 102, 74.608 103.094, 70.312 104.431 C 66.015 105.768, 60.354 107.147, 57.731 107.495 C 54.941 107.865, 51.860 109.076, 50.306 110.413 L 47.649 112.699 49.958 115.940 C 51.680 118.359, 52.804 119.047, 54.383 118.648 C 55.547 118.354, 60.928 116.914, 66.341 115.448 C 77.052 112.546, 78.764 112.859, 77.037 117.402 C 76.467 118.903, 76 123.926, 76 128.565 C 76 136.830, 75.951 137, 73.571 137 C 70.998 137, 68 139.337, 68 141.344 C 68 143.110, 62.070 150, 60.550 150 C 59.117 150, 59.406 142.866, 61.050 137.682 C 62.110 134.339, 61.199 126.386, 59.616 125.155 C 57.685 123.656, 54.352 123.224, 52.540 124.237 C 51.078 125.056, 50.904 126.075, 51.463 130.551 C 51.859 133.723, 51.702 136.688, 51.076 137.859 C 50.496 138.942, 49.724 144.369, 49.360 149.919 C 48.767 158.968, 48.894 160.226, 50.592 162.101 C 52.198 163.876, 53.207 164.098, 57.242 163.562 C 63.226 162.769, 63.387 164.087, 57.750 167.696 C 54.640 169.687, 52.178 170.428, 48.573 170.459 C 43.968 170.497, 43.593 170.695, 42.851 173.468 C 41.681 177.839, 44.062 181, 48.523 181 C 51.341 181, 52 181.382, 52 183.014 C 52 184.121, 51.615 185.809, 51.145 186.764 C 50.675 187.719, 48.921 191.425, 47.247 195 C 39.129 212.336, 37.703 214.969, 35.678 216.356 C 31.935 218.921, 28 222.690, 28 223.711 C 28 225.764, 31.805 228, 35.296 228 C 38.519 228, 39.385 227.400, 42.874 222.750 C 45.040 219.863, 47.801 215.585, 49.010 213.245 C 50.218 210.905, 51.611 208.741, 52.104 208.436 C 52.597 208.131, 53 206.957, 53 205.827 C 53 204.697, 53.844 202.136, 54.875 200.136 C 59.332 191.490, 62 184.956, 62 182.685 C 62 181.343, 62.648 179.707, 63.440 179.050 C 64.232 178.393, 65.019 176.875, 65.190 175.677 C 65.392 174.258, 66.333 173.382, 67.892 173.162 C 70.165 172.840, 70.251 173.026, 69.630 176.912 C 69.271 179.160, 68.372 182.912, 67.632 185.250 C 66.893 187.587, 65.709 191.525, 65.002 194 C 62.557 202.549, 56.718 220.511, 55.361 223.651 C 54.612 225.384, 53.967 227.409, 53.927 228.151 C 53.856 229.463, 52.357 232.075, 48.727 237.210 C 46.460 240.419, 47.418 243.009, 50.857 242.969 C 52.797 242.946, 54.390 241.757, 56.845 238.498 C 61.128 232.812, 67 221.570, 67 219.057 C 67 217.991, 67.402 216.869, 67.894 216.565 C 68.386 216.261, 69.001 214.322, 69.259 212.256 C 69.518 210.190, 70.235 207.150, 70.851 205.500 C 72.779 200.341, 77.192 185.684, 78.077 181.500 C 78.542 179.300, 79.431 175.025, 80.052 172 C 80.673 168.975, 81.609 164.925, 82.132 163 C 83.713 157.183, 85.038 146.308, 86.092 130.500 C 86.642 122.250, 87.184 114.235, 87.296 112.690 C 87.464 110.373, 88.465 109.382, 93 107.041 C 101.266 102.775, 107.159 100.200, 110.500 99.393 C 112.150 98.994, 115.387 97.618, 117.692 96.334 C 119.998 95.050, 122.444 94, 123.127 94 C 123.810 94, 126.300 93.065, 128.661 91.922 C 134.566 89.063, 136.241 89.628, 137.809 95.009 C 138.530 97.479, 139.542 100.281, 140.059 101.236 C 140.577 102.191, 141 103.603, 141 104.372 C 141 105.142, 141.672 107.060, 142.494 108.636 C 143.315 110.211, 143.990 112.259, 143.994 113.186 C 143.997 114.114, 145.310 118.275, 146.912 122.434 C 148.513 126.593, 150.146 131.910, 150.540 134.248 C 150.933 136.587, 152.098 139.573, 153.128 140.885 C 154.158 142.197, 155 143.704, 155 144.234 C 155 145.170, 155.539 146.498, 159.787 156.033 C 163.485 164.333, 164.079 168.028, 162.597 173.508 C 160.975 179.503, 156.827 187.863, 153.530 191.782 C 152.210 193.351, 150.840 195.789, 150.486 197.199 C 150.132 198.610, 148.640 201.198, 147.171 202.950 C 144.664 205.940, 143.946 206.187, 135.500 206.960 C 130.550 207.413, 126.163 207.581, 125.750 207.333 C 125.338 207.085, 125 205.838, 125 204.563 C 125 203.288, 124.329 200.639, 123.510 198.678 C 122.087 195.272, 122.326 192, 123.999 192 C 124.430 192, 125.054 190.920, 125.386 189.600 C 125.758 188.115, 127.134 186.800, 128.994 186.152 C 131.454 185.294, 132 184.547, 132 182.038 C 132 180.352, 132.520 177.966, 133.156 176.736 C 133.792 175.506, 134.760 173.610, 135.307 172.523 C 136.706 169.740, 138.974 160.938, 138.988 158.235 C 139.007 154.688, 133.611 151.859, 127.500 152.211 L 122.500 152.500 122.209 144.790 C 121.946 137.836, 121.661 136.878, 119.297 135.019 C 116.755 133.020, 116.734 132.914, 118.588 131.510 C 119.640 130.715, 121.486 130.049, 122.691 130.032 C 125.145 129.996, 125.944 129.040, 127.694 124.045 C 130.218 116.844, 124.926 116.081, 113.323 121.974 C 95.127 131.216, 91.872 135.125, 97.489 140.989 C 100.026 143.637, 100.093 143.988, 99.127 149.624 C 98.574 152.856, 97.841 162.576, 97.498 171.225 C 97.155 179.874, 96.477 188.338, 95.991 190.033 C 95.504 191.728, 95.323 193.677, 95.586 194.364 C 95.850 195.051, 95.421 200.538, 94.633 206.557 L 93.200 217.500 95.723 220.845 C 98.544 224.585, 97.590 224.547, 113.500 221.553 C 118.450 220.621, 123.400 219.439, 124.500 218.926 C 126.073 218.192, 135.913 216, 137.636 216 C 138.688 216, 137.769 220.543, 136.250 222.850 C 135.287 224.312, 133.931 226.407, 133.236 227.504 C 124.672 241.021, 110.256 259.401, 100.125 269.720 C 97.306 272.591, 95 275.550, 95 276.296 C 95 278.650, 99.636 282.250, 101.788 281.567 C 106.946 279.930, 132.995 248.948, 140.100 236 C 143.602 229.619, 147.298 224.434, 151.645 219.803 C 153.843 217.462, 158.720 216.522, 160.595 218.079 C 161.838 219.111, 162.468 218.977, 164.114 217.330 C 166.804 214.640, 165.749 210.439, 161.883 208.439 C 158.304 206.589, 158.317 205.834, 162.040 199 C 163.689 195.975, 165.962 191.561, 167.092 189.191 C 169.795 183.521, 171.988 183.933, 174.107 190.512 C 175.601 195.146, 180.813 207.249, 183.033 211.236 C 183.565 212.191, 184 213.640, 184 214.456 C 184 215.272, 184.900 217.542, 186 219.500 C 187.100 221.458, 188 223.584, 188 224.224 C 188 226.991, 209.187 269.149, 213.518 275 C 228.073 294.663, 234.183 299.674, 238.429 295.429 C 240.340 293.517, 240.702 277.102, 238.874 275.274 C 238.254 274.654, 237.587 272.257, 237.391 269.947 C 237.195 267.637, 236.636 265.241, 236.148 264.623 C 235.660 264.006, 234.695 261.700, 234.004 259.500 C 230.518 248.406, 224.898 250.046, 227.148 261.500 C 228.943 270.643, 229.236 274.164, 228.281 275.119 C 226.670 276.730, 224.581 275.160, 222.092 270.467 C 220.778 267.990, 218.869 265.002, 217.851 263.828 C 216.833 262.654, 216 261.015, 216 260.185 C 216 259.354, 214.681 256.611, 213.069 254.088 C 211.457 251.564, 208.896 246.575, 207.379 243 C 205.861 239.425, 203.805 235.427, 202.810 234.115 C 201.814 232.803, 201 231.130, 201 230.396 C 201 229.661, 200.204 227.585, 199.230 225.780 C 198.257 223.976, 196.602 219.800, 195.554 216.500 C 194.505 213.200, 193.276 210.073, 192.823 209.550 C 192.370 209.028, 192 207.845, 192 206.922 C 192 206, 191.325 204.685, 190.500 204 C 189.675 203.315, 189 202.066, 189 201.224 C 189 200.383, 187.650 196.836, 186 193.344 C 184.350 189.852, 183 186.583, 183 186.079 C 183 185.576, 181.799 182.773, 180.331 179.850 C 176.999 173.217, 176.110 165.984, 178.393 164.089 C 179.277 163.355, 180 161.515, 180 160 C 180 158.485, 180.601 156.746, 181.335 156.137 C 182.070 155.527, 183.952 151.760, 185.518 147.764 C 187.084 143.769, 188.733 140.072, 189.183 139.550 C 189.632 139.027, 190 137.334, 190 135.786 C 190 134.239, 190.450 132.079, 191 130.986 C 191.550 129.894, 192.450 128.106, 193 127.014 C 193.550 125.921, 194 124.211, 194 123.214 C 194 122.216, 194.447 120.953, 194.994 120.406 C 195.540 119.860, 196.269 116.719, 196.613 113.428 C 197.133 108.449, 196.944 107.199, 195.489 105.990 C 193.909 104.680, 193.419 104.908, 190.463 108.327 C 188.662 110.411, 186.909 113.227, 186.568 114.585 C 186.227 115.942, 184.866 119.421, 183.542 122.314 C 182.219 125.207, 180.618 129.808, 179.984 132.537 C 178.813 137.586, 177.754 140.525, 175.494 145 C 174.799 146.375, 173.919 148.957, 173.539 150.739 C 172.217 156.921, 168.637 155.783, 167.712 148.887 C 167.410 146.641, 166.294 143.835, 165.231 142.652 C 163.195 140.385, 162.281 138.422, 160.971 133.500 C 160.532 131.850, 159.234 128.031, 158.086 125.014 C 156.939 121.997, 156 118.824, 156 117.964 C 156 117.104, 155.502 115.902, 154.892 115.292 C 153.514 113.914, 149.100 101.222, 149.042 98.473 C 149.019 97.357, 148.395 95.557, 147.655 94.473 C 144.588 89.972, 145.061 85, 148.557 85 C 152.472 85, 160.306 79.891, 161.477 76.573 C 162.282 74.295, 162.115 73.558, 160.536 72.403 C 157.144 69.923, 151.316 70.652, 147.036 74.092 C 141.853 78.257, 139.703 77.704, 138.857 71.988 C 138.491 69.520, 137.691 66.214, 137.079 64.642 C 136.058 62.017, 135.671 61.839, 132.348 62.462 C 129.158 63.061, 128.795 62.926, 129.279 61.321 C 129.918 59.202, 131.957 53.385, 133.072 50.500 C 133.497 49.400, 134.141 47.151, 134.503 45.503 C 134.866 43.854, 137.059 40.201, 139.377 37.385 C 141.695 34.569, 144.192 30.448, 144.925 28.227 C 146.244 24.230, 146.219 24.143, 142.417 19.595 C 137.737 13.995, 134.476 13.512, 131.207 17.934 M 170.250 59.491 C 167.348 60.752, 167 61.339, 167 64.968 C 167 68.609, 167.356 69.202, 170.413 70.660 C 172.604 71.705, 174.439 73.647, 175.538 76.085 C 177.586 80.626, 179.632 81.643, 182.145 79.369 C 186.363 75.551, 183.046 62.236, 177.080 59.043 C 174.636 57.735, 174.229 57.762, 170.250 59.491 M 107.890 136.633 C 106.265 138.590, 106.365 166.765, 108.002 168.402 C 109.513 169.913, 109.214 172.130, 106.922 176.407 C 105.249 179.529, 105.102 180.449, 106.172 181.127 C 108.672 182.712, 110.839 181.998, 114.134 178.505 C 115.982 176.546, 118.821 174.749, 120.594 174.416 C 124.027 173.772, 125.778 171.309, 126.223 166.500 C 126.465 163.880, 126.202 163.532, 124.150 163.756 C 122.858 163.897, 120.660 164.909, 119.265 166.006 C 117.871 167.103, 115.216 168, 113.365 168 C 110.377 168, 110 167.698, 110 165.305 C 110 163.763, 111.116 161.445, 112.608 159.887 C 115.038 157.351, 115.168 156.752, 114.509 151.081 C 114.121 147.734, 113.397 144.746, 112.902 144.439 C 112.406 144.133, 112 141.884, 112 139.441 C 112 134.674, 110.414 133.591, 107.890 136.633 M 67.023 157.210 L 62.547 162.324 66.988 161.728 C 71.937 161.065, 74.243 158.811, 73.792 155.078 C 73.331 151.249, 71.827 151.723, 67.023 157.210 M 106.133 193.541 C 103.107 196.088, 103 196.448, 103 204.120 C 103 213.242, 103.764 214.102, 109.750 211.724 C 113.178 210.363, 113.527 209.864, 113.817 205.926 C 113.991 203.557, 113.653 200.692, 113.067 199.559 C 112.480 198.427, 112.112 196.168, 112.250 194.539 C 112.587 190.554, 110.155 190.157, 106.133 193.541" stroke="none" fill="black" fill-rule="evenodd"/>
</svg>