<svg xmlns="http://www.w3.org/2000/svg" width="300" height="300" viewBox="0 0 300 300" version="1.1">
	<path d="M 143.607 53.582 C 141.915 57.991, 144.468 66.653, 148.427 69.939 C 149.562 70.881, 150 73.052, 150 77.733 C 150 83.323, 149.561 84.897, 146.832 89.110 C 143.322 94.527, 140.494 95.429, 139.037 91.598 C 137.595 87.805, 132.088 84.327, 126.386 83.610 C 120.149 82.826, 118.447 84.236, 119.413 89.389 C 120.165 93.396, 121.341 94.521, 125.766 95.467 C 127.562 95.852, 129.812 97.269, 130.766 98.617 C 136.749 107.073, 139.260 110, 140.532 110 C 142.900 110, 149.660 104.719, 151.413 101.500 C 152.312 99.850, 155.875 95.381, 159.331 91.569 C 164.182 86.217, 166.029 84.797, 167.437 85.338 C 169.039 85.952, 169.203 86.942, 168.784 93.472 C 168.291 101.151, 168.944 103, 172.152 103 C 174.760 103, 179.472 95.300, 180.908 88.690 C 182.525 81.247, 181.028 73.903, 177.410 71.533 C 172.902 68.580, 169.473 68.538, 165.733 71.390 C 163.851 72.826, 161.392 74, 160.269 74 C 158.210 74, 157.896 73.221, 156.345 64.269 C 155.679 60.424, 148.591 52, 146.022 52 C 145.028 52, 143.941 52.712, 143.607 53.582 M 58.946 96.750 C 58.393 98.263, 57.765 100.007, 57.549 100.626 C 57.334 101.245, 58.267 104.807, 59.623 108.542 L 62.088 115.333 56.915 120.267 C 51.326 125.598, 50.045 125.431, 50.015 119.366 C 50.004 116.981, 49.028 115.355, 45.931 112.556 C 43.693 110.534, 41.125 109.022, 40.226 109.195 C 38.329 109.560, 33.082 116.759, 33.033 119.063 C 33.015 119.923, 34.409 121.948, 36.130 123.563 C 37.852 125.178, 40.087 128.333, 41.098 130.573 C 42.109 132.813, 44.301 136.362, 45.968 138.460 C 47.636 140.558, 49 142.740, 49 143.309 C 49 143.877, 49.787 145.213, 50.750 146.278 C 52.126 147.799, 52.458 149.771, 52.304 155.500 C 52.078 163.906, 53.820 166.764, 58.460 165.599 C 59.857 165.249, 61 165.083, 61 165.231 C 61 168.156, 57.540 179.962, 55.359 184.479 C 53.086 189.187, 51.307 191.247, 46.986 194.174 C 43.969 196.219, 40.566 197.916, 39.424 197.946 C 36.821 198.014, 33 201.980, 33 204.614 C 33 210.163, 39.811 210.550, 51 205.637 C 51.825 205.274, 53.646 204.195, 55.047 203.239 C 56.448 202.283, 59.273 200.436, 61.323 199.136 C 63.374 197.836, 65.498 195.937, 66.044 194.917 C 66.590 193.897, 69.166 191.852, 71.768 190.373 C 74.371 188.893, 78.361 185.911, 80.636 183.745 C 84.260 180.295, 85.038 179.950, 86.923 180.959 C 89.417 182.294, 93.553 191.069, 95.425 199 C 97.591 208.180, 100.176 215.583, 102.095 218.106 C 103.579 220.057, 104.248 220.295, 105.708 219.395 C 108.199 217.859, 108.864 203.962, 106.539 202.033 C 105.693 201.330, 105 199.657, 105 198.315 C 105 196.974, 104.358 193.766, 103.574 191.188 C 98.080 173.127, 96.626 169.078, 94.437 165.750 C 92.359 162.589, 91.416 162, 88.438 162 C 85.511 162, 84.697 162.485, 83.702 164.822 C 82.012 168.788, 78.202 172.958, 72.802 176.750 C 66.029 181.505, 64.286 180.809, 67.506 174.636 C 68.328 173.060, 69 171.203, 69 170.508 C 69 169.813, 69.672 168.687, 70.493 168.006 C 71.314 167.325, 72.458 164.907, 73.035 162.634 C 73.611 160.360, 74.447 157.600, 74.892 156.500 C 77.006 151.273, 78.275 147.153, 78.925 143.403 C 79.316 141.150, 80.618 138.253, 81.818 136.965 C 83.018 135.677, 84 134.117, 84 133.499 C 84 132.881, 84.840 130.604, 85.867 128.438 C 86.894 126.272, 87.753 122.364, 87.776 119.754 C 87.813 115.667, 87.428 114.729, 85.005 113.004 C 83.096 111.645, 80.591 111, 77.218 111 C 74.327 111, 71.788 110.449, 71.153 109.684 C 70.552 108.960, 69.749 105.698, 69.368 102.434 C 68.610 95.948, 67.135 94.082, 62.725 94.032 C 60.594 94.007, 59.717 94.638, 58.946 96.750 M 73.626 122.533 C 72.686 124.981, 72.873 132, 73.878 132 C 77.099 132, 78.979 121.870, 75.876 121.234 C 74.983 121.051, 73.970 121.636, 73.626 122.533 M 54.246 127.154 C 53.560 127.840, 53 129.208, 53 130.196 C 53 132.636, 59.705 147, 60.844 147 C 63.262 147, 64.068 143.811, 63.790 135.349 L 63.500 126.500 59.496 126.204 C 57.247 126.039, 54.945 126.455, 54.246 127.154 M 157.044 136.441 C 154.785 139.498, 152.580 142, 152.143 142 C 151.707 142, 149.584 144.465, 147.425 147.478 C 145.266 150.492, 143.028 152.967, 142.450 152.978 C 140.021 153.028, 139 150.301, 139 143.765 C 139 135.985, 137.140 132, 133.507 132 C 129.380 132, 128.692 134.161, 129.290 145.260 C 131.741 190.786, 132.151 195.565, 133.940 199.500 C 134.940 201.700, 136.015 204.264, 136.328 205.198 C 137.113 207.541, 142.262 210.022, 149.452 211.522 C 153.856 212.441, 160.095 212.581, 172.401 212.037 C 181.697 211.626, 190.922 211.638, 192.901 212.064 C 199.361 213.455, 214.572 215, 221.798 215 C 229.788 215, 232.116 214.268, 236.764 210.292 L 240.028 207.500 240.093 191.798 C 240.136 181.455, 239.643 173.605, 238.650 168.798 C 237.820 164.784, 236.633 157.900, 236.011 153.500 C 235.388 149.100, 234.670 144.083, 234.413 142.350 C 233.843 138.500, 231.447 136.153, 229.784 137.816 C 228.469 139.131, 228.470 139.606, 229.830 164 C 231.267 189.763, 229.465 203.343, 224.444 204.604 C 223.123 204.935, 214.496 204.723, 205.271 204.133 C 196.047 203.543, 179.500 202.769, 168.500 202.413 C 148.680 201.772, 148.475 201.742, 145.685 199.134 C 143.340 196.941, 142.973 195.958, 143.483 193.238 C 143.891 191.064, 143.579 189.237, 142.548 187.765 C 141.447 186.193, 141 183.112, 141 177.089 C 141 167.126, 142.011 165.183, 151.078 157.717 C 154.273 155.086, 159.632 149.337, 162.985 144.940 C 168.778 137.345, 169.018 136.809, 167.784 134.223 C 166.935 132.444, 165.561 131.393, 163.818 131.191 C 161.590 130.933, 160.474 131.797, 157.044 136.441" stroke="none" fill="black" fill-rule="evenodd"/>
</svg>