<svg xmlns="http://www.w3.org/2000/svg" width="300" height="300" viewBox="0 0 300 300" version="1.1">
	<path d="M 94.105 26.373 C 93.478 27.129, 93.249 28.484, 93.595 29.386 C 93.941 30.288, 93.675 31.686, 93.005 32.494 C 92.219 33.441, 92.010 35.478, 92.416 38.231 C 94.384 51.584, 93.512 68.137, 90.456 75.452 C 88.842 79.314, 85.384 81.784, 83.804 80.204 C 83.265 79.665, 82.573 74.674, 82.266 69.114 C 81.646 57.860, 80.795 56.241, 76.284 57.729 C 71.376 59.348, 70.524 62.826, 71.942 75.449 C 73.019 85.042, 73.525 86.863, 75.778 89.250 C 79.744 93.451, 84.382 93.001, 95.584 87.328 C 104.272 82.927, 111.498 77.234, 115.075 71.970 C 116.119 70.435, 117.216 69.869, 118.325 70.295 C 119.750 70.841, 120 72.566, 120 81.846 C 120 90.677, 120.308 93.011, 121.618 94.098 C 123.015 95.258, 123.542 95.058, 125.471 92.638 C 127.793 89.726, 128.819 81.688, 129.636 60 C 129.813 55.325, 130.079 49.981, 130.228 48.124 C 130.444 45.450, 129.941 44.328, 127.807 42.722 C 125.254 40.800, 124.982 40.782, 122.557 42.371 C 120.399 43.784, 120 44.799, 120 48.869 C 120 54.457, 117.889 59.290, 114.368 61.764 C 113.009 62.719, 110.022 65.192, 107.731 67.261 C 105.440 69.329, 103.101 70.862, 102.533 70.666 C 101.965 70.470, 101.584 68.777, 101.686 66.905 C 101.789 65.032, 101.956 60.350, 102.059 56.500 C 102.161 52.650, 102.686 48.656, 103.225 47.625 C 103.873 46.383, 103.852 45.033, 103.161 43.625 C 102.587 42.456, 101.954 38.408, 101.754 34.629 C 101.473 29.329, 100.959 27.443, 99.504 26.379 C 97.117 24.634, 95.550 24.632, 94.105 26.373 M 95.515 108.984 C 94.059 110.592, 93.821 112.087, 94.255 116.879 L 94.791 122.790 91.146 124.294 C 89.141 125.121, 83.450 127.023, 78.500 128.522 C 73.550 130.020, 68.600 131.586, 67.500 132.002 C 66.400 132.418, 62.125 133.695, 58 134.841 C 39.319 140.029, 36.186 141.071, 35.009 142.489 C 34.320 143.320, 33.023 144.002, 32.128 144.004 C 30.027 144.009, 24 147.674, 24 148.947 C 24 151.662, 39.006 152.676, 42.399 150.191 C 43.005 149.748, 48.225 147.886, 54 146.055 C 59.775 144.223, 66.525 141.907, 69 140.909 C 75.881 138.133, 90.473 134, 93.395 134 C 95.635 134, 96 134.429, 96 137.062 C 96 138.746, 96.735 142.371, 97.633 145.118 L 99.267 150.112 96.446 153.056 C 94.895 154.675, 93.056 156, 92.360 156 C 91.664 156, 89.648 157.800, 87.880 160 C 86.112 162.200, 84.171 164, 83.568 164 C 82.964 164, 80.488 161.954, 78.064 159.454 C 73.843 155.098, 73.445 154.920, 68.579 155.204 C 63.590 155.495, 63.494 155.561, 63.173 158.937 C 62.920 161.591, 63.376 162.783, 65.173 164.165 C 66.453 165.150, 68.239 165.966, 69.142 165.978 C 71.379 166.008, 80.552 174.395, 82.400 178.100 C 83.224 179.751, 83.646 181.760, 83.337 182.564 C 83.029 183.368, 83.366 184.736, 84.088 185.605 C 85.123 186.853, 86.989 187.113, 92.949 186.843 L 100.500 186.500 100.802 192.917 C 101.101 199.264, 100.558 201.547, 96.820 209.667 C 94.693 214.288, 86.813 220.853, 80.773 223.037 C 78.727 223.777, 75.804 225.391, 74.276 226.624 C 71.993 228.467, 71.694 229.188, 72.592 230.683 C 74.674 234.146, 77.980 234.982, 84.023 233.573 C 91.347 231.866, 94.780 229.991, 102.793 223.323 C 109.507 217.735, 125.952 201.083, 125.983 199.840 C 126.014 198.618, 131.347 191, 132.171 191 C 133.480 191, 139.001 198.986, 142.196 205.500 C 143.815 208.800, 145.975 212.850, 146.997 214.500 C 148.018 216.150, 148.887 218.071, 148.927 218.770 C 148.967 219.468, 150.040 221.718, 151.311 223.770 C 152.583 225.821, 154.243 229.075, 155 231 C 155.758 232.925, 157.417 235.892, 158.689 237.594 C 159.960 239.296, 161 241.702, 161 242.940 C 161 244.178, 161.618 246.386, 162.373 247.846 C 165.137 253.187, 169.021 265.637, 170.687 274.500 C 170.997 276.150, 171.621 277.967, 172.073 278.539 C 173.294 280.083, 175.106 292.560, 174.383 294.444 C 173.425 296.940, 176.820 300, 180.547 300 C 183.190 300, 183.902 299.528, 184.429 297.426 C 185.133 294.621, 182.126 278.349, 178.990 268 C 169.733 237.449, 169.402 236.583, 164.848 231.022 C 163.282 229.109, 162 226.802, 162 225.895 C 162 224.987, 161.325 223.685, 160.500 223 C 159.675 222.315, 159 220.606, 159 219.202 C 159 216.408, 147.626 192.764, 145.388 190.907 C 144.625 190.274, 144 189.223, 144 188.574 C 144 186.883, 137.930 181.350, 135.156 180.513 C 133.406 179.985, 132.139 180.435, 130.156 182.289 C 128.695 183.654, 126.150 185.475, 124.500 186.334 C 122.850 187.194, 119.700 190.148, 117.500 192.899 C 114.893 196.159, 112.717 197.918, 111.250 197.950 C 108.960 198.001, 108.114 195.666, 110 194.500 C 110.550 194.160, 111 191.295, 111 188.132 C 111 184.625, 111.573 181.625, 112.468 180.441 C 113.276 179.374, 113.951 176.906, 113.968 174.958 C 113.994 172.103, 114.872 170.561, 118.500 167 C 121.995 163.570, 123 161.861, 123 159.351 C 123 157.573, 123.507 155.805, 124.126 155.422 C 125.785 154.397, 124.489 144.198, 122.407 141.897 C 120.284 139.551, 117.146 139.486, 112.524 141.690 C 107.586 144.045, 106.428 142.684, 107.601 135.909 L 108.500 130.716 113.500 129.480 C 116.250 128.800, 120.142 127.952, 122.150 127.595 C 124.157 127.239, 126.349 126.284, 127.022 125.474 C 128.497 123.697, 130.385 123.599, 132.900 125.169 C 134.319 126.056, 136.794 126.064, 143.136 125.204 C 157.355 123.274, 159.810 122.488, 164.794 118.266 C 169.829 114.001, 170.884 111.770, 168.960 109.452 C 167.176 107.302, 163.807 107.676, 157.832 110.688 C 152.048 113.605, 148.952 114.323, 133 116.449 C 127.225 117.219, 118.966 118.363, 114.647 118.992 C 110.328 119.621, 106.166 119.894, 105.397 119.599 C 104.521 119.263, 104 117.560, 104 115.031 C 104 112.333, 103.339 110.339, 102 109 C 99.477 106.477, 97.787 106.473, 95.515 108.984 M 43.074 141.877 C 41.740 142.250, 40.442 143.174, 40.190 143.929 C 39.577 145.769, 45.502 144.641, 47.629 142.513 C 48.981 141.162, 48.948 141.011, 47.321 141.100 C 46.320 141.155, 44.408 141.504, 43.074 141.877 M 110.975 156.565 C 109.586 160.218, 109.748 161, 111.893 161 C 113.875 161, 115 159.159, 115 155.918 C 115 153.112, 112.112 153.576, 110.975 156.565 M 95.602 167.489 C 90.880 172.210, 90.729 178.294, 95.319 178.822 C 99.467 179.299, 101 177.458, 101 172 C 101 165.589, 99.095 163.996, 95.602 167.489" stroke="none" fill="black" fill-rule="evenodd"/>
</svg>