<svg xmlns="http://www.w3.org/2000/svg" width="300" height="300" viewBox="0 0 300 300" version="1.1">
	<path d="M 115.526 46.192 C 113.890 46.810, 110.383 48.595, 107.732 50.158 C 105.081 51.721, 102.283 53, 101.515 53 C 100.747 53, 99.824 53.476, 99.464 54.058 C 99.105 54.640, 96.266 56.249, 93.155 57.633 C 83.009 62.151, 80.544 63.415, 77.456 65.685 C 75.781 66.916, 72.909 68.555, 71.073 69.327 C 68.637 70.352, 67.380 71.763, 66.422 74.549 C 65.700 76.649, 65.336 78.735, 65.614 79.184 C 66.970 81.378, 74.788 78.540, 91.136 69.918 C 93.136 68.863, 95.107 68, 95.515 68 C 95.924 68, 95.953 71.098, 95.580 74.885 C 95.184 78.902, 95.382 84.528, 96.054 88.389 C 97.484 96.601, 95.772 117.489, 93.460 120.045 C 91.282 122.451, 91.625 126.729, 94.102 128.054 C 95.879 129.006, 96.650 128.751, 99.102 126.403 C 100.696 124.875, 102 122.800, 102 121.791 C 102 119.954, 112.158 109, 113.861 109 C 114.359 109, 117.294 106.039, 120.383 102.420 C 126.507 95.246, 127.141 92.705, 124.103 87.500 C 121.591 83.196, 117.614 82.912, 115.557 86.889 C 114.701 88.546, 114 90.753, 114 91.795 C 114 94.623, 109.518 99.413, 107.570 98.665 C 106.351 98.197, 106.128 97.360, 106.669 95.272 C 107.064 93.747, 107.318 91.825, 107.233 91 C 107.148 90.175, 106.843 85.900, 106.555 81.500 C 106.201 76.090, 105.327 72.122, 103.855 69.244 C 102.658 66.903, 101.864 64.827, 102.090 64.631 C 102.315 64.435, 105.567 62.826, 109.315 61.055 C 118.249 56.835, 119.433 57.311, 118.540 64.762 C 118.161 67.918, 117.602 71.551, 117.296 72.837 C 116.819 74.841, 117.076 75.125, 119.108 74.837 C 120.668 74.615, 122.806 72.564, 125.368 68.831 C 128.934 63.637, 129.270 62.572, 129.380 56.118 C 129.466 51.059, 129.077 48.654, 128 47.583 C 125.974 45.570, 119.179 44.812, 115.526 46.192 M 63.848 104.750 C 63.242 106.263, 61.908 110.599, 60.885 114.387 C 59.861 118.175, 58.231 122.538, 57.262 124.082 C 52.162 132.207, 47.318 138.926, 43.984 142.500 C 41.932 144.700, 36.514 151, 31.945 156.500 C 21.692 168.842, 8.742 183.245, 3.750 187.861 C 0.526 190.841, 0 191.937, 0 195.664 C 0 200.510, 1.088 201.040, 5.916 198.543 C 9.185 196.853, 29.984 174.576, 48 153.469 C 54.875 145.414, 61.689 138.202, 63.143 137.442 C 65.379 136.272, 66.779 136.267, 72.239 137.410 C 75.788 138.152, 80.224 139.444, 82.096 140.281 C 83.968 141.117, 86.400 142.044, 87.500 142.341 C 88.600 142.638, 92.650 144.073, 96.500 145.530 C 100.350 146.988, 106.200 148.966, 109.500 149.927 C 117.430 152.236, 121.123 153.723, 134.729 160.087 C 138.155 161.689, 141.755 163, 142.729 163.001 C 143.703 163.001, 147.353 164.351, 150.840 166.001 C 154.327 167.650, 157.832 169, 158.630 169 C 159.428 169, 161.300 169.887, 162.790 170.971 C 164.366 172.116, 168.221 173.278, 172 173.747 L 178.500 174.552 178.262 177.663 C 177.966 181.516, 179.257 182.628, 185.019 183.485 C 188.977 184.074, 189.877 183.844, 192.269 181.627 C 199.164 175.237, 192.432 168.914, 171 161.652 C 163.765 159.201, 158.439 157.234, 143.500 151.499 C 132.879 147.421, 124.824 144.668, 110 140.047 C 102.575 137.733, 94.700 135.022, 92.500 134.023 C 90.300 133.025, 87.375 131.964, 86 131.667 C 80.717 130.524, 69.584 126.984, 68.795 126.195 C 68.341 125.741, 68.651 124.002, 69.485 122.331 C 71.968 117.354, 72.591 107.551, 70.616 104.536 C 68.396 101.149, 65.252 101.249, 63.848 104.750 M 89.855 155.675 C 88.969 156.743, 88.500 160.021, 88.500 165.139 L 88.500 172.969 83.500 177.094 C 80.750 179.363, 77.225 183.420, 75.667 186.110 C 74.110 188.799, 72.445 191, 71.968 191 C 71.491 191, 69.008 188.066, 66.449 184.481 C 61.609 177.698, 59.534 176, 56.085 176 C 54.667 176, 53.850 176.845, 53.426 178.750 C 53.090 180.262, 52.590 182.321, 52.316 183.324 C 51.662 185.722, 53.884 191, 55.549 191 C 57.011 191, 61.999 196.712, 64.116 200.811 C 64.877 202.285, 67.369 206.193, 69.653 209.496 C 73.773 215.453, 73.843 215.500, 78.653 215.465 C 81.319 215.445, 84.483 214.883, 85.684 214.215 C 86.886 213.547, 88.123 213, 88.434 213 C 89.340 213, 89.091 216.070, 87.872 219.929 C 85.382 227.810, 82.898 231.626, 77.410 236 C 68.366 243.208, 62.512 248.427, 58.536 252.829 C 55.423 256.274, 54.931 257.411, 55.478 259.898 C 56.864 266.211, 62.305 266.407, 68.099 260.354 C 69.969 258.400, 74.200 254.729, 77.500 252.197 C 80.800 249.665, 83.725 247.331, 84 247.011 C 84.275 246.690, 87.891 243.682, 92.035 240.325 C 96.180 236.969, 100.172 233.497, 100.908 232.611 C 101.643 231.725, 102.860 231, 103.612 231 C 105.790 231, 124.759 220.071, 125.377 218.460 C 125.685 217.657, 126.340 217, 126.832 217 C 128.077 217, 133.040 222.079, 134.161 224.500 C 134.670 225.600, 136.305 228.542, 137.794 231.037 C 139.282 233.532, 142.005 238.145, 143.845 241.287 C 145.685 244.429, 147.598 247.252, 148.095 247.559 C 148.593 247.866, 149 248.735, 149 249.489 C 149 250.243, 150.312 253.704, 151.915 257.180 C 155.372 264.677, 159 275.207, 159 277.746 C 159 278.741, 159.590 280.443, 160.310 281.527 C 161.551 283.396, 162.352 285.844, 164.961 295.750 C 166.066 299.944, 166.139 300, 170.521 300 C 174.473 300, 175.034 299.713, 175.616 297.393 C 176.008 295.832, 175.810 294.501, 175.123 294.076 C 174.491 293.686, 173.799 291.596, 173.585 289.433 C 173.214 285.688, 171.863 280.863, 169.965 276.500 C 169.486 275.400, 168.160 271.374, 167.019 267.553 C 165.069 261.025, 163.490 257.124, 158.901 247.500 C 157.853 245.300, 156.996 243.131, 156.997 242.680 C 156.999 242.229, 155.652 239.901, 154.004 237.506 C 152.356 235.111, 150.551 232.105, 149.993 230.826 C 149.435 229.547, 147.872 226.700, 146.519 224.500 C 145.167 222.300, 142.420 217.243, 140.416 213.261 C 136.994 206.462, 132.518 202, 129.118 202 C 128.488 202, 125.841 204.229, 123.236 206.953 C 118.636 211.765, 103.108 221, 99.619 221 C 98.314 221, 98.145 220.173, 98.654 216.250 C 98.992 213.637, 99.884 210.790, 100.635 209.921 C 101.386 209.053, 102 207.549, 102 206.580 C 102 205.611, 103.488 203.080, 105.306 200.955 C 107.125 198.831, 109.239 195.835, 110.005 194.296 C 110.771 192.758, 112.815 189.925, 114.548 188 C 118.765 183.314, 123 175.359, 123 172.124 C 123 170.309, 121.888 168.613, 119.394 166.623 C 116.203 164.077, 115.233 163.812, 110.948 164.320 C 108.286 164.635, 104.701 165.620, 102.982 166.509 C 98.963 168.588, 97.006 167.158, 96.985 162.128 C 96.967 157.950, 96.335 156.739, 93.355 155.171 C 91.633 154.265, 90.943 154.364, 89.855 155.675 M 104.250 177.584 C 101.362 178.847, 101 179.451, 101 183.003 C 101 186.252, 101.353 187, 102.885 187 C 105.095 187, 107.801 183.244, 108.651 178.996 C 109.317 175.664, 108.927 175.539, 104.250 177.584 M 84.380 186.808 C 79.457 189.478, 74.631 201.619, 77.535 204.029 C 78.771 205.055, 79.696 204.940, 82.539 203.409 C 84.457 202.376, 87.167 200.474, 88.560 199.181 C 90.788 197.115, 91.059 196.147, 90.797 191.175 C 90.461 184.774, 89.427 184.071, 84.380 186.808" stroke="none" fill="black" fill-rule="evenodd"/>
</svg>