<svg xmlns="http://www.w3.org/2000/svg" width="300" height="300" viewBox="0 0 300 300" version="1.1">
	<path d="M 123.258 5.250 C 122.108 6.488, 120.068 9.975, 118.725 13 C 116.481 18.053, 113.511 21.164, 107.542 24.715 C 103.536 27.097, 102.392 26.316, 101.004 20.250 C 99.554 13.911, 97.934 12, 94.009 12 C 88.755 12, 87.755 15.727, 90.748 24.153 C 92.753 29.798, 92.010 30.957, 86.372 30.985 C 82.348 31.004, 80.637 33.069, 81.476 36.890 C 82.415 41.166, 84.438 42.577, 87.577 41.147 C 91.530 39.346, 93 39.722, 93 42.535 C 93 45.562, 95.700 50, 97.542 50 C 99.555 50, 102.997 45.046, 103.021 42.115 C 103.037 40.228, 104.125 38.735, 106.931 36.750 C 110.776 34.031, 114 33.177, 114 34.877 C 114 35.360, 113.276 38.959, 112.392 42.875 C 110.541 51.070, 110.937 53, 114.469 53 C 116.479 53, 117 52.503, 117 50.581 C 117 49.251, 117.671 46.888, 118.492 45.331 C 119.312 43.774, 121.960 38.211, 124.374 32.970 C 126.789 27.728, 129.505 22.826, 130.409 22.075 C 131.314 21.325, 133.408 18.704, 135.063 16.251 C 138.575 11.047, 137.767 8.715, 132.622 9.207 C 130.226 9.436, 129.475 9.064, 129.172 7.500 C 128.746 5.300, 127.151 3, 126.052 3 C 125.665 3, 124.408 4.012, 123.258 5.250 M 103.234 56.037 C 101.225 56.844, 101.036 57.432, 101.565 61.224 C 101.894 63.576, 102.599 66.662, 103.133 68.081 C 104.151 70.791, 103.682 92.088, 102.564 93.897 C 101.963 94.869, 100.605 95.557, 92.500 98.990 C 90.850 99.689, 87.269 100.771, 84.542 101.394 C 79.847 102.468, 79.539 102.740, 78.751 106.514 C 78.030 109.971, 78.209 110.735, 80.099 112.273 C 81.298 113.248, 83.078 113.793, 84.055 113.482 C 85.032 113.172, 86.036 113.274, 86.287 113.709 C 87.093 115.111, 83.599 137.779, 82.109 140.815 C 81.654 141.742, 80.491 144.975, 79.524 148 C 77.298 154.965, 70.179 171.784, 64.432 183.652 C 61.994 188.685, 60 193.305, 60 193.917 C 60 194.530, 58.200 198.564, 56 202.881 C 53.800 207.199, 51.990 211.130, 51.978 211.616 C 51.966 212.102, 51.076 213.625, 50 215 C 48.924 216.375, 48.034 218.060, 48.022 218.744 C 47.996 220.189, 39.152 239.243, 38.158 239.995 C 37.790 240.273, 36.864 242.300, 36.099 244.500 C 35.334 246.700, 33.649 250.067, 32.354 251.982 C 31.059 253.897, 30 256.074, 30 256.819 C 30 258.313, 24.927 265.980, 21.152 270.190 C 18.143 273.547, 18.855 275.648, 23.173 276.149 C 28.069 276.715, 29.828 276.129, 30.565 273.686 C 30.928 272.484, 32.250 270.375, 33.502 269 C 34.755 267.625, 36.723 264.618, 37.876 262.318 C 39.028 260.018, 40.428 257.854, 40.986 257.509 C 41.544 257.164, 42 255.961, 42 254.836 C 42 253.711, 43.350 250.790, 45 248.345 C 46.650 245.900, 48 243.410, 48 242.810 C 48 242.211, 49.338 239.546, 50.974 236.888 C 52.610 234.229, 54.258 230.804, 54.636 229.277 C 55.015 227.750, 57.614 221.709, 60.412 215.854 C 63.210 209.999, 66.322 203.249, 67.326 200.854 C 68.330 198.459, 69.989 194.700, 71.012 192.500 C 72.036 190.300, 73.790 186.353, 74.910 183.729 C 76.031 181.105, 77.640 178.691, 78.488 178.366 C 80.233 177.697, 87.158 184.797, 89.037 189.181 C 89.669 190.656, 92.283 194.144, 94.846 196.931 C 98.538 200.947, 100.154 202, 102.630 202 C 107.208 202, 108.808 199.639, 106.677 196.030 C 105.755 194.469, 105 191.603, 105 189.661 C 105 187.719, 104.533 184.903, 103.963 183.402 C 103.247 181.518, 103.247 180.353, 103.963 179.637 C 104.533 179.067, 105 177.775, 105 176.766 C 105 175.728, 106.530 174.030, 108.526 172.852 C 110.465 171.708, 112.495 169.944, 113.036 168.933 C 115.551 164.234, 134.465 155.360, 140.224 156.177 C 142.215 156.460, 142.538 157.157, 142.802 161.750 L 143.105 167 139.052 167 C 135.680 167, 135 166.668, 135 165.019 C 135 163.712, 134.102 162.813, 132.362 162.376 C 129.049 161.544, 126.055 164.988, 126.022 169.668 C 125.987 174.727, 125.089 175.926, 119.064 178.968 C 111.577 182.747, 110.706 183.859, 112.100 187.858 C 113.437 191.692, 117.204 193.030, 119.869 190.619 C 122.526 188.214, 124 188.649, 124 191.836 C 124 193.879, 122.882 195.675, 120 198.263 C 114.833 202.902, 114.712 205.915, 119.545 209.602 L 123.089 212.306 126.295 209.213 C 128.783 206.813, 129.885 206.339, 131.219 207.093 C 132.481 207.806, 134.264 207.393, 137.923 205.539 C 142.273 203.334, 142.984 202.536, 143.513 199.257 C 143.847 197.191, 144.768 194.306, 145.560 192.846 C 146.352 191.386, 147 189.303, 147 188.218 C 147 187.133, 147.675 185.685, 148.500 185 C 149.354 184.291, 150 182.111, 150 179.937 C 150 177.836, 150.397 175.872, 150.883 175.572 C 152.349 174.667, 154.135 159.500, 153.416 154.075 C 152.835 149.698, 152.271 148.713, 149.292 146.872 C 146.405 145.087, 144.833 144.828, 139.671 145.284 C 136.277 145.585, 132.178 146.431, 130.562 147.165 C 121.773 151.158, 115.325 155.103, 109.184 160.246 C 102.200 166.095, 101.623 167.084, 98.977 177.750 C 97.869 182.217, 95.585 183.420, 94.529 180.092 C 94.196 179.043, 91.652 175.145, 88.875 171.430 C 84.419 165.468, 83.954 164.397, 84.913 162.291 C 85.511 160.979, 86 159.039, 86 157.980 C 86 156.921, 87.063 153.680, 88.361 150.777 C 92.586 141.334, 93 139.966, 93 135.439 C 93 132.983, 93.399 130.191, 93.888 129.236 C 94.376 128.281, 95.543 123.900, 96.481 119.500 C 97.418 115.100, 98.524 110.825, 98.937 110 C 99.981 107.915, 105.929 104, 108.053 104 C 111.124 104, 109.426 111.792, 105.437 116 C 101 120.682, 97.826 128.331, 98.202 133.436 C 98.562 138.320, 100.987 139.300, 104.515 135.986 C 107.602 133.086, 109 134.162, 109 139.438 C 109 143.300, 109.320 143.890, 112.017 145.007 C 116.324 146.791, 121.285 145.659, 127.819 141.401 C 135.728 136.247, 137.797 134.201, 138.546 130.793 C 139.046 128.515, 138.673 127.281, 136.923 125.418 C 134.598 122.944, 131 122.135, 131 124.088 C 131 125.589, 121.821 133.911, 120.111 133.960 C 119.019 133.992, 118.837 132.733, 119.260 128.073 C 119.751 122.652, 122.262 117.114, 124.264 117.031 C 124.684 117.014, 126.598 115.987, 128.517 114.750 C 131.169 113.040, 133.424 109.733, 137.908 100.978 C 143.847 89.381, 146.021 81.647, 144.236 78.458 C 143.068 76.371, 136.379 73.917, 134.169 74.765 C 132.422 75.436, 120.410 83.453, 117.977 85.572 C 116.997 86.426, 115.937 86.579, 115.003 86.002 C 113.794 85.254, 113.958 84.639, 115.989 82.303 C 119.181 78.632, 120.925 77.023, 124.993 74 C 128.901 71.096, 134.002 66.079, 133.996 65.144 C 133.994 64.790, 133.101 63.038, 132.011 61.250 C 130.333 58.498, 129.445 58, 126.215 58 C 124.117 58, 121.879 57.479, 121.242 56.842 C 119.424 55.024, 117.161 57.561, 116.806 61.818 C 116.594 64.362, 115.965 65.585, 114.750 65.815 C 113.362 66.078, 113 65.444, 113 62.748 C 113 60.488, 112.224 58.620, 110.686 57.174 C 108.193 54.833, 106.771 54.616, 103.234 56.037 M 124.671 93.094 C 120.435 95.900, 120 96.552, 120 100.094 C 120 104.382, 120.699 104.724, 124.953 102.524 C 127.822 101.040, 131.187 96.432, 132.453 92.250 C 133.447 88.969, 130.401 89.299, 124.671 93.094 M 136.667 179.667 C 135.358 180.976, 135.986 185, 137.500 185 C 138.325 185, 139.006 184.662, 139.014 184.250 C 139.021 183.838, 139.299 182.488, 139.630 181.250 C 140.053 179.674, 139.799 179, 138.783 179 C 137.986 179, 137.033 179.300, 136.667 179.667 M 153.500 215.672 C 146.468 216.741, 132.766 221.949, 127.500 225.554 C 125.850 226.684, 122.475 228.463, 120 229.509 C 117.525 230.554, 114.427 232.217, 113.115 233.205 C 111.803 234.192, 110.346 235, 109.876 235 C 107.951 235, 96.878 244.375, 94.287 248.200 C 90.216 254.208, 88.619 254.930, 85.622 252.115 C 81.467 248.212, 73.333 245, 67.601 245 C 61.770 245, 60 246.175, 60 250.045 C 60 253.824, 62.672 255.754, 70.575 257.682 C 80.125 260.012, 88.569 266.294, 85.063 268.461 C 84.547 268.780, 80.522 269.492, 76.118 270.044 C 71.714 270.597, 65.052 272.069, 61.314 273.316 C 55.877 275.131, 54.334 276.110, 53.594 278.214 C 51.463 284.272, 58.249 288.110, 64.846 284.580 C 68.835 282.445, 76.880 279.915, 82.500 279.028 C 85.250 278.594, 94.025 277.085, 102 275.676 C 114.277 273.505, 119.872 273.085, 138.500 272.931 C 152.097 272.819, 161.510 273.155, 163.143 273.810 C 164.597 274.392, 172.472 275.147, 180.643 275.487 C 188.814 275.827, 197.300 276.536, 199.500 277.064 C 201.700 277.591, 207.325 278.490, 212 279.060 C 232.333 281.540, 235.970 282.143, 236.582 283.133 C 236.877 283.610, 238.876 284, 241.024 284 C 245.392 284, 247 282.176, 247 277.221 C 247 272.885, 244.271 271.006, 237.921 270.967 C 232.758 270.936, 230.090 270.636, 211.500 268.001 C 203.592 266.880, 200.610 266.615, 184 265.556 C 167.897 264.529, 154.608 263.008, 153.685 262.085 C 153.118 261.518, 154.548 260.345, 157.380 259.055 C 160.453 257.655, 162 256.330, 162 255.097 C 162 254.079, 162.646 252.709, 163.436 252.053 C 164.225 251.398, 165.154 249.574, 165.500 248 C 165.846 246.426, 166.775 244.602, 167.564 243.947 C 168.354 243.291, 169 242.173, 169 241.461 C 169 240.749, 169.441 240.017, 169.980 239.833 C 171.470 239.327, 172.895 230.006, 172.155 225.610 C 170.974 218.596, 162.826 214.255, 153.500 215.672 M 150.154 226.445 C 143.646 227.726, 141.468 229.359, 142.748 232 C 143.148 232.825, 143.357 236.628, 143.212 240.452 C 142.993 246.250, 142.426 248.241, 139.798 252.452 C 138.064 255.228, 135.758 258.501, 134.673 259.724 C 132.962 261.653, 132.906 262.027, 134.255 262.544 C 135.110 262.872, 137.312 262.997, 139.148 262.820 C 141.613 262.584, 142.820 261.799, 143.763 259.822 C 144.465 258.349, 146.269 256.093, 147.770 254.807 C 154.148 249.348, 162 235.898, 162 230.434 C 162 228.132, 161.389 226.744, 160.066 226.035 C 157.839 224.844, 158.410 224.820, 150.154 226.445 M 126.700 236.414 C 124.060 237.708, 121.641 239.025, 121.325 239.342 C 121.008 239.659, 122.155 241.101, 123.874 242.548 C 126.180 244.488, 127 246.020, 127 248.389 C 127 251.347, 128.452 254, 130.070 254 C 130.729 254, 132.352 248.519, 133.513 242.378 C 134.122 239.153, 133.272 233.976, 132.142 234.031 C 131.789 234.048, 129.340 235.121, 126.700 236.414 M 116.500 241.972 C 110.970 244.310, 97.798 261.246, 99.442 263.905 C 100.042 264.877, 118.732 264.602, 119.726 263.607 C 120 263.333, 119.738 260.272, 119.144 256.805 C 118.434 252.668, 118.388 249.125, 119.008 246.500 C 120.454 240.377, 120.420 240.315, 116.500 241.972" stroke="none" fill="black" fill-rule="evenodd"/>
</svg>