<svg xmlns="http://www.w3.org/2000/svg" width="300" height="300" viewBox="0 0 300 300" version="1.1">
	<path d="M 102.312 2.628 C 101.969 3.524, 102.164 6.336, 102.747 8.878 C 103.330 11.420, 103.798 14.400, 103.788 15.500 C 103.778 16.600, 104.246 22, 104.828 27.500 C 105.409 33, 106.178 41.592, 106.536 46.593 C 106.894 51.594, 107.582 56.319, 108.065 57.093 C 109.303 59.077, 112.075 57.174, 113.433 53.408 C 114.020 51.780, 118.888 46.144, 124.250 40.883 C 134.701 30.629, 135.360 29.201, 132.902 22.149 C 130.987 16.656, 125.866 18.577, 122.052 26.219 C 121.306 27.714, 119.651 29.919, 118.374 31.118 C 115.469 33.847, 115.479 33.874, 113.959 18.500 C 112.907 7.862, 112.480 6.188, 110.199 3.750 C 107.342 0.697, 103.275 0.119, 102.312 2.628 M 130.044 56.739 C 128.143 56.969, 125.373 58.022, 123.889 59.079 C 122.405 60.135, 120.786 61, 120.291 61 C 119.796 61, 117.166 62.412, 114.446 64.138 C 110.017 66.948, 104.160 70.154, 89.207 77.956 C 85.929 79.667, 82.831 80.426, 79 80.456 C 73.558 80.500, 73.497 80.533, 73.191 83.691 C 72.787 87.865, 76.098 91.435, 79.587 90.587 C 80.914 90.264, 83.122 89.727, 84.493 89.393 C 87.918 88.560, 88.646 90.978, 87.896 100.686 C 87.038 111.802, 81.829 136.302, 79.868 138.450 C 79.390 138.973, 78.997 140.773, 78.994 142.450 C 78.990 144.128, 78.315 146.789, 77.494 148.364 C 76.672 149.940, 75.986 151.965, 75.968 152.864 C 75.951 153.764, 75.276 155.374, 74.468 156.441 C 73.661 157.509, 73 159.331, 73 160.491 C 73 161.651, 72.642 163.027, 72.204 163.550 C 71.766 164.072, 70.823 166.300, 70.107 168.500 C 69.392 170.700, 67.006 176.325, 64.805 181 C 62.604 185.675, 60.565 190.955, 60.274 192.734 C 59.982 194.513, 59.126 196.480, 58.372 197.106 C 57.617 197.733, 57 198.874, 57 199.642 C 57 202.061, 49.168 217.492, 45.507 222.288 C 43.578 224.813, 42 227.356, 42 227.937 C 42 228.519, 40.525 230.683, 38.723 232.747 C 36.920 234.811, 34.812 237.751, 34.038 239.280 C 32.811 241.702, 32.826 242.255, 34.153 243.582 C 35.410 244.839, 36.141 244.893, 38.338 243.892 C 39.802 243.225, 41 242.275, 41 241.781 C 41 241.288, 43.987 237.014, 47.639 232.283 C 51.290 227.553, 57.056 218.242, 60.453 211.591 C 63.850 204.941, 67.120 198.600, 67.721 197.500 C 68.321 196.400, 69.342 193.475, 69.989 191 C 71.515 185.159, 75.483 176.674, 77.453 175.039 C 78.304 174.333, 79 172.550, 79 171.078 C 79 169.605, 79.408 167.973, 79.907 167.450 C 80.406 166.928, 81.278 164.925, 81.846 163 C 83.091 158.777, 85.727 151.251, 86.925 148.500 C 87.404 147.400, 88.517 144.857, 89.398 142.849 C 90.279 140.841, 91.014 137.691, 91.032 135.849 C 91.049 134.007, 91.724 131.626, 92.532 130.559 C 93.339 129.491, 94 127.953, 94 127.141 C 94 125.071, 106.098 114.010, 108.367 114.004 C 109.904 114.001, 110.112 114.485, 109.544 116.750 C 108.429 121.196, 107.724 132.763, 108.402 135.467 C 109.203 138.657, 114.314 141.384, 117.858 140.513 C 122.607 139.344, 137.436 131.862, 140.250 129.214 C 143.530 126.127, 143.769 122.769, 140.913 119.913 C 138.120 117.120, 134.936 118, 129.085 123.180 C 122.978 128.586, 120.525 129.680, 118.423 127.936 C 117.177 126.902, 116.926 125.558, 117.371 122.311 C 117.693 119.964, 118.391 117.246, 118.923 116.272 C 119.455 115.297, 120.170 112.764, 120.511 110.643 C 121.020 107.477, 122.553 105.436, 129.065 99.255 C 136.780 91.934, 138.150 89.550, 135.922 87.322 C 135.152 86.552, 135.765 84.614, 138.070 80.530 C 139.844 77.387, 141.466 73.844, 141.676 72.657 C 143.298 63.451, 143.292 63.402, 139.989 59.641 C 138.231 57.638, 136.052 56.072, 135.146 56.160 C 134.241 56.248, 131.945 56.508, 130.044 56.739 M 126 70 C 124.625 71.076, 122.713 71.966, 121.750 71.978 C 119.818 72.002, 119.704 72.475, 120.059 79 C 120.194 81.475, 120.348 85.075, 120.402 87 C 120.487 90.025, 120.834 90.500, 122.959 90.500 C 124.905 90.500, 125.550 89.854, 126.052 87.402 C 126.400 85.698, 128.149 81.299, 129.939 77.625 C 131.729 73.951, 132.939 70.283, 132.628 69.473 C 131.847 67.439, 128.983 67.667, 126 70 M 104.595 81.500 C 102.569 82.875, 100.508 84, 100.015 84 C 99.521 84, 98.808 84.501, 98.430 85.113 C 97.492 86.631, 97.909 104.301, 98.907 105.303 C 99.741 106.141, 105.915 102.896, 109.691 99.634 C 111.657 97.936, 111.866 96.855, 111.729 89.121 C 111.535 78.247, 110.701 77.356, 104.595 81.500 M 214.839 138.455 C 214.045 140.197, 214.023 141.722, 214.764 143.705 C 215.339 145.242, 216.344 148.750, 216.997 151.500 C 217.651 154.250, 218.546 157.400, 218.987 158.500 C 220.733 162.856, 222.838 169.678, 223.461 173 C 225.896 185.968, 225.977 187.533, 224.475 192.716 C 223.074 197.551, 222.668 198.012, 218.918 199.022 C 216.693 199.621, 211.430 200.497, 207.224 200.969 C 200.622 201.710, 198.283 201.499, 190.144 199.435 C 184.958 198.119, 179.723 196.393, 178.511 195.599 C 174.797 193.166, 172.961 178.378, 176.129 176.420 C 176.608 176.124, 176.998 172.646, 176.996 168.691 C 176.992 160.793, 175.169 156.467, 170.574 153.457 C 166.753 150.953, 159.060 152.284, 155.425 156.078 C 152.119 159.529, 151.026 159.679, 148.732 157 C 146.534 154.432, 143.803 154.455, 141.446 157.060 C 139.886 158.784, 139.460 161.558, 138.839 174.035 C 138.431 182.238, 137.625 189.832, 137.049 190.909 C 135.529 193.748, 135.763 199.558, 137.452 200.960 C 141.206 204.075, 145.861 198.245, 145.952 190.315 C 145.978 188.013, 146.504 184.863, 147.119 183.315 C 147.735 181.767, 148.747 178.025, 149.369 175 C 150.313 170.412, 150.885 169.445, 152.822 169.171 C 154.099 168.990, 156.749 167.753, 158.712 166.421 C 163.020 163.497, 163.223 163.484, 165.468 165.965 C 166.736 167.366, 167.052 168.729, 166.568 170.715 C 163.539 183.138, 163.630 194.820, 166.783 198.324 C 170.377 202.320, 176.754 205.759, 183.500 207.341 C 197.431 210.608, 202.982 211.066, 213.500 209.816 C 225.822 208.352, 230.564 205.649, 234.478 197.857 L 237.043 192.750 234.476 180.288 C 233.064 173.434, 231.479 166.965, 230.954 165.913 C 230.429 164.861, 229.587 163.166, 229.083 162.147 C 228.579 161.128, 227.852 158.198, 227.468 155.635 C 227.084 153.073, 225.921 149.898, 224.885 148.581 C 223.848 147.263, 222.998 145.356, 222.996 144.342 C 222.991 141.636, 219.273 136, 217.493 136 C 216.648 136, 215.454 137.105, 214.839 138.455 M 99.200 144.200 C 98.540 144.860, 98 146.532, 98 147.917 C 98 149.301, 97.378 152.248, 96.617 154.467 C 95.856 156.685, 94.425 162.011, 93.436 166.303 C 92.448 170.594, 91.270 174.333, 90.820 174.612 C 90.369 174.890, 90 176.415, 90 178 C 90 179.585, 89.550 181.160, 89 181.500 C 88.450 181.840, 88 182.785, 88 183.601 C 88 185.178, 86.879 186.797, 83.250 190.459 C 80.418 193.316, 80.379 197.319, 83.145 201.203 C 84.994 203.800, 85.752 204.140, 88.645 203.670 C 92.898 202.980, 93.069 204.710, 89.250 209.797 C 84.664 215.906, 83.609 217, 82.301 217 C 81.611 217, 80.309 218.125, 79.408 219.500 C 78.478 220.919, 76.814 222, 75.559 222 C 74.343 222, 72.304 223.112, 71.028 224.471 C 69.102 226.520, 68.923 227.202, 69.976 228.471 C 70.674 229.312, 72.291 230, 73.569 230 C 77.800 230, 95.936 218.182, 95.982 215.396 C 96.020 213.065, 100.931 209, 103.709 209 C 105.251 209, 110.560 210.388, 115.507 212.085 C 120.453 213.782, 126.300 215.730, 128.500 216.413 C 130.700 217.097, 133.767 218.184, 135.315 218.828 C 136.863 219.473, 138.482 220, 138.911 220 C 139.341 220, 141.059 220.682, 142.730 221.515 C 144.400 222.348, 149.679 224.386, 154.461 226.042 C 164.226 229.426, 169.810 231.933, 191.863 242.831 C 200.312 247.006, 207.445 250.996, 207.714 251.698 C 208.494 253.731, 222.771 261.172, 225.216 260.820 C 226.435 260.644, 228.123 259.231, 228.967 257.681 C 230.472 254.913, 230.427 254.798, 226.500 251.393 C 224.300 249.486, 221.150 247.238, 219.500 246.398 C 217.850 245.558, 213.800 243.334, 210.500 241.455 C 200.041 235.501, 185.787 228.529, 177 225.071 C 172.325 223.231, 166.700 220.688, 164.500 219.420 C 162.300 218.152, 158.700 216.650, 156.500 216.084 C 150.623 214.570, 134.775 209.179, 132.764 208.010 C 131.809 207.454, 130.157 207, 129.095 207 C 128.032 207, 125.888 206.353, 124.331 205.563 C 122.774 204.772, 119.288 203.292, 116.584 202.273 C 109.108 199.455, 109.016 198.779, 114.571 187.418 C 118.816 178.736, 119.416 176.724, 119.388 171.275 C 119.344 162.838, 117.417 160.609, 110.722 161.253 C 108.092 161.505, 105.738 161.385, 105.491 160.986 C 105.244 160.586, 105.708 157.704, 106.521 154.581 C 107.334 151.458, 108 148.282, 108 147.523 C 108 143.894, 101.834 141.566, 99.200 144.200 M 103.546 179.250 C 102.732 181.037, 100.926 184.518, 99.533 186.985 C 96.737 191.935, 96.282 195, 98.345 195 C 100.052 195, 102.998 191.789, 103.005 189.921 C 103.008 189.140, 104.119 186.700, 105.474 184.500 C 106.829 182.300, 107.952 179.488, 107.969 178.250 C 108.016 174.872, 105.256 175.496, 103.546 179.250" stroke="none" fill="black" fill-rule="evenodd"/>
</svg>