<svg xmlns="http://www.w3.org/2000/svg" width="300" height="300" viewBox="0 0 300 300" version="1.1">
	<path d="M 160.485 14.117 C 158.293 15.282, 154.178 18.207, 151.341 20.617 C 148.503 23.028, 145.706 25, 145.126 25 C 144.545 25, 143.577 25.922, 142.974 27.048 C 142.372 28.174, 140.893 29.533, 139.689 30.069 C 130.880 33.983, 113 48.109, 113 51.155 C 113 54.388, 116.773 59.023, 118.786 58.263 C 119.729 57.907, 123.839 54.990, 127.920 51.781 C 135.367 45.925, 137.799 45.089, 137.152 48.608 C 136.960 49.648, 136.668 61.300, 136.503 74.500 C 136.193 99.177, 135.541 103.797, 130.153 119.500 C 129.044 122.731, 128.190 126.122, 125.405 138.345 C 123.881 145.034, 123.130 146.561, 120.309 148.713 C 116.952 151.274, 116.015 154.615, 118.077 156.677 C 119.377 157.977, 117.666 164.396, 114.344 170.676 C 113.129 172.972, 111.119 179.047, 109.877 184.176 C 106.485 198.178, 104.075 198.429, 103.377 184.853 C 102.955 176.631, 101.587 172.167, 97.859 166.846 C 96.837 165.386, 96 163.108, 96 161.784 C 96 160.460, 95.152 158.467, 94.116 157.355 C 93.080 156.243, 91.920 153.913, 91.539 152.178 C 90.861 149.089, 86.883 145, 84.556 145 C 81.832 145, 79.917 147.765, 79.111 152.863 C 78.346 157.701, 77.692 158.741, 72.382 163.565 C 69.147 166.504, 65.938 168.929, 65.250 168.954 C 63.524 169.017, 63.686 166.411, 65.643 162.654 C 68.686 156.811, 69 156.032, 69 154.329 C 69 150.189, 73.390 143.675, 78.190 140.691 C 83.831 137.184, 86.552 132.511, 85.632 127.910 C 85.120 125.352, 85.508 124.443, 88.010 122.338 C 89.655 120.954, 91 119.169, 91 118.371 C 91 117.572, 91.950 115.634, 93.111 114.064 C 94.272 112.493, 95.458 109.112, 95.747 106.551 C 96.211 102.433, 95.945 101.552, 93.449 98.947 C 90.975 96.365, 89.937 96.004, 85.063 96.032 C 81.765 96.051, 78.710 96.661, 77.559 97.532 C 74.105 100.145, 72.131 99.317, 69.732 94.250 C 67.980 90.550, 66.891 89.431, 64.808 89.190 C 60.963 88.744, 59.608 91.818, 60.433 99.112 C 61.058 104.638, 60.950 105.049, 58.296 107.217 C 56.758 108.473, 53.741 111.282, 51.590 113.460 L 47.681 117.420 43.480 112.646 C 39.527 108.154, 39.021 107.890, 34.925 108.186 C 30.912 108.475, 30.520 108.753, 29.916 111.729 C 29.308 114.727, 29.632 115.244, 34.441 118.954 C 38.381 121.994, 40.479 124.691, 43.211 130.225 C 45.185 134.226, 47.126 138.625, 47.523 140 C 47.920 141.375, 48.578 142.950, 48.985 143.500 C 49.391 144.050, 50.042 145.850, 50.430 147.500 C 51.637 152.630, 53.745 155, 57.103 155 C 60.025 155, 60.129 155.142, 59.471 158.250 C 58.780 161.517, 52.675 174.201, 50.447 177 C 49.791 177.825, 48.954 180.170, 48.589 182.212 C 46.804 192.176, 60.253 192.465, 66.081 182.588 C 67.878 179.541, 82.528 165.953, 83.931 166.032 C 86.848 166.195, 91.873 175.536, 93.865 184.500 C 94.477 187.250, 95.248 193.017, 95.580 197.317 C 95.975 202.442, 96.641 205.309, 97.514 205.644 C 99.887 206.554, 100.025 209.031, 97.931 213.135 C 96.804 215.345, 96.020 218.086, 96.191 219.226 C 96.579 221.832, 101.099 225.283, 103.111 224.511 C 104.730 223.890, 106.996 218.605, 107.006 215.429 C 107.010 214.368, 107.685 212.211, 108.506 210.636 C 109.328 209.060, 110 207.351, 110 206.837 C 110 206.324, 110.900 204.041, 112 201.764 C 113.100 199.487, 114 197.005, 114 196.248 C 114 195.491, 115.126 192.409, 116.503 189.399 C 118.854 184.259, 120.466 179.097, 121.690 172.782 C 121.980 171.287, 122.892 169.504, 123.717 168.820 C 125.981 166.941, 127.407 169.571, 129.885 180.195 L 132.020 189.350 130.010 191.489 C 127.335 194.336, 127.518 195.841, 131.041 199.962 C 133.692 203.064, 134 204.134, 134 210.244 C 134 215.634, 134.343 217.194, 135.636 217.691 C 138.081 218.629, 140.457 216.670, 140.838 213.399 C 141.025 211.805, 141.684 209.887, 142.303 209.139 C 142.923 208.390, 143.446 206.414, 143.465 204.748 C 143.509 200.910, 147.043 198.190, 152.500 197.792 L 156.500 197.500 156.335 205.500 C 156.244 209.900, 156.045 215.654, 155.893 218.286 C 155.659 222.338, 156.025 223.479, 158.278 225.733 C 159.742 227.196, 161.235 228.098, 161.597 227.737 C 162.650 226.683, 164.010 219.203, 164.913 209.500 C 165.374 204.550, 166.370 198.326, 167.126 195.669 C 168.307 191.517, 169.133 190.500, 173 188.436 C 180.544 184.409, 186.230 182.024, 187.064 182.539 C 187.499 182.808, 187.681 186.960, 187.469 191.764 C 187.063 200.945, 186.944 231.437, 187.295 236.402 C 187.408 238.009, 186.935 239.499, 186.236 239.740 C 184.695 240.272, 182 234.194, 182 230.187 C 182 226.977, 178.832 223.467, 176.679 224.293 C 173.962 225.335, 173.198 234.274, 175.451 238.669 C 176.249 240.226, 177.850 243.608, 179.009 246.185 C 180.168 248.762, 182.440 252.537, 184.058 254.573 C 187.362 258.730, 187.736 262.374, 185.901 272.500 C 185.302 275.800, 184.688 281.650, 184.535 285.500 C 184.382 289.350, 183.924 294.188, 183.517 296.250 L 182.777 300 187.389 300 C 191.093 300, 192.011 299.656, 192.054 298.250 C 192.084 297.288, 192.522 292.900, 193.029 288.500 C 193.536 284.100, 194.237 273.075, 194.587 264 C 194.938 254.925, 195.573 246.825, 196 246 C 196.427 245.175, 197.329 241.800, 198.006 238.500 C 198.682 235.200, 200.087 231.299, 201.128 229.831 C 202.169 228.363, 203.470 224.794, 204.019 221.900 C 204.568 219.007, 205.688 215.897, 206.508 214.991 C 207.329 214.084, 208 212.971, 208 212.518 C 208 211.620, 212.382 201.729, 214.210 198.500 C 214.833 197.400, 215.887 194.025, 216.552 191 C 217.217 187.975, 218.974 181, 220.458 175.500 C 223.640 163.699, 224.105 150.207, 221.580 142.956 C 220.727 140.505, 220.023 137.207, 220.015 135.627 C 219.992 131.207, 212.152 120.907, 206.661 118.083 C 202.985 116.192, 201.025 115.836, 196.313 116.201 C 190.299 116.666, 182.288 119.744, 180.041 122.450 C 179.334 123.303, 178.190 124, 177.500 124 C 176.810 124, 175.627 124.749, 174.872 125.664 C 174.118 126.579, 170.802 129.294, 167.505 131.697 C 158.625 138.168, 146.951 149.886, 144.814 154.475 C 143.782 156.689, 142.503 159.287, 141.969 160.250 C 141.436 161.213, 140.614 162.787, 140.143 163.750 C 138.559 166.984, 136.265 166.245, 132.956 161.436 C 129.789 156.833, 129.757 156.670, 130.909 151.130 C 131.553 148.033, 132.781 143.475, 133.639 141 C 134.496 138.525, 135.828 133.706, 136.597 130.292 C 137.367 126.877, 138.907 121.651, 140.019 118.678 C 141.132 115.705, 141.787 112.608, 141.475 111.796 C 141.164 110.985, 141.624 109.727, 142.499 109.001 C 143.848 107.882, 144.313 108.001, 145.567 109.792 C 149.968 116.076, 154.650 116.671, 163.090 112.018 C 166.066 110.378, 169.150 109.028, 169.945 109.018 C 170.740 109.008, 172.653 107.791, 174.195 106.313 C 178.989 101.720, 177.256 94.982, 170.681 92.654 C 168.535 91.894, 169.023 89.388, 172.366 84 C 176.260 77.723, 178.597 71.220, 179.608 63.846 C 180.283 58.920, 178.399 54.579, 175.138 53.544 C 171.362 52.345, 164.332 55.791, 154.217 63.798 C 148.180 68.576, 147 67.739, 147 58.678 C 147 54.616, 146.719 48.605, 146.375 45.318 L 145.751 39.344 150.125 35.245 C 155.839 29.892, 160.929 26.485, 164.567 25.576 C 168.864 24.503, 173.803 21.195, 174.531 18.901 C 174.896 17.752, 174.483 15.860, 173.560 14.451 C 171.491 11.294, 166.061 11.155, 160.485 14.117 M 160.395 73.750 C 157.711 75.813, 153.452 79.605, 150.931 82.178 C 146.870 86.323, 146.194 87.673, 144.998 94.011 C 143.504 101.929, 143.967 102.954, 149.054 102.985 C 153.352 103.010, 162 91.961, 162 86.443 C 162 85.099, 162.441 84, 162.981 84 C 163.520 84, 164.258 82.763, 164.619 81.250 C 164.980 79.737, 165.612 78.050, 166.022 77.500 C 166.433 76.950, 167.082 75.037, 167.464 73.250 C 168.405 68.851, 166.606 68.978, 160.395 73.750 M 78.225 108.709 C 74.967 109.334, 73.291 112.586, 72.486 119.844 C 71.857 125.513, 71.964 126.152, 73.495 125.844 C 74.437 125.655, 76.267 123.700, 77.561 121.500 C 79.828 117.646, 84 109.141, 84 108.373 C 84 107.939, 81.471 108.086, 78.225 108.709 M 58.269 116.656 C 57.592 116.930, 55.672 119.178, 54.003 121.651 C 50.974 126.138, 50.972 126.152, 52.846 128.823 C 53.878 130.296, 55.035 133.211, 55.417 135.303 C 56.240 139.817, 58.437 141.007, 61.077 138.368 C 62.468 136.976, 63.162 134.391, 63.630 128.843 C 64.594 117.442, 63.345 114.602, 58.269 116.656 M 192.500 128.391 C 188.346 129.698, 180.966 133.990, 177.500 137.115 C 176.400 138.107, 173.475 140.565, 171 142.578 C 166.742 146.040, 164.830 149.952, 164.927 155 C 165.040 160.816, 165.794 167.857, 166.411 168.857 C 166.817 169.512, 166.854 171.388, 166.494 173.025 C 165.558 177.288, 167.892 177.763, 174.786 174.712 C 177.928 173.321, 181.352 172.029, 182.393 171.841 C 185.752 171.236, 186.543 168.634, 185.141 162.807 C 184.439 159.888, 183.746 156.375, 183.601 155 C 183.456 153.625, 183.020 151.375, 182.632 150 C 181.544 146.142, 183.221 136.893, 185.239 135.621 C 186.637 134.739, 187.476 135.022, 189.512 137.057 C 191.737 139.283, 192.222 141.097, 193.496 151.969 C 194.294 158.777, 195.384 164.784, 195.918 165.318 C 197.296 166.696, 201.976 164.562, 205.300 161.041 C 206.803 159.447, 209.632 157.617, 211.585 156.972 C 213.853 156.224, 214.953 155.319, 214.627 154.471 C 214.347 153.740, 213.815 151.423, 213.446 149.321 C 213.077 147.219, 212.151 144.503, 211.388 143.285 C 210.624 142.067, 210 140.133, 210 138.988 C 210 136.395, 200.753 126.976, 198.298 127.067 C 197.309 127.104, 194.700 127.700, 192.500 128.391 M 146.598 164.457 C 142.807 168.141, 141.437 168.897, 139.454 168.399 C 138.104 168.060, 137.008 167.944, 137.017 168.142 C 137.027 168.339, 137.919 171.875, 139 176 C 140.081 180.125, 140.973 184.457, 140.983 185.628 C 141.019 190.112, 143.358 190.315, 150.398 186.446 L 157 182.816 156.926 176.158 C 156.736 159.057, 154.620 156.660, 146.598 164.457 M 205.376 173.155 C 197.674 176.793, 197.338 177.622, 196.606 194.750 C 196.074 207.180, 196.202 210, 197.299 210 C 198.038 210, 199.653 207.637, 200.887 204.750 C 202.121 201.863, 203.545 198.728, 204.052 197.784 C 204.560 196.840, 205.399 194.365, 205.918 192.284 C 206.436 190.203, 207.610 186.025, 208.526 183 C 212.107 171.171, 211.775 170.133, 205.376 173.155" stroke="none" fill="black" fill-rule="evenodd"/>
</svg>