<svg xmlns="http://www.w3.org/2000/svg" width="300" height="300" viewBox="0 0 300 300" version="1.1">
	<path d="M 168.012 84.532 C 162.614 86.213, 161 88.178, 161 93.069 C 161 98.002, 163.002 99.656, 166.981 98.008 C 173.268 95.404, 174.566 98.737, 170.602 107.312 C 169.283 110.165, 167.197 115.425, 165.965 119 C 164.734 122.575, 162.663 127.722, 161.363 130.437 C 158.796 135.801, 158.424 139.056, 160.035 142.066 C 161.621 145.028, 165.100 144.392, 171.069 140.049 C 174.056 137.876, 177.524 135.371, 178.776 134.483 C 182.080 132.138, 185.622 124.202, 184.291 122.128 C 183.205 120.435, 179.789 120.136, 176.719 121.466 C 175.115 122.161, 175.004 121.805, 175.602 117.869 C 175.967 115.466, 176.837 112.825, 177.534 112 C 178.232 111.175, 179.368 108.588, 180.060 106.250 C 180.751 103.912, 181.695 102, 182.158 102 C 182.621 102, 183 99.123, 183 95.606 C 183 89.930, 182.674 88.863, 180.099 86.106 C 176.884 82.665, 174.855 82.400, 168.012 84.532 M 113.500 97.440 C 105.135 100.971, 103.445 102.057, 103.165 104.081 C 102.981 105.411, 102.419 106.927, 101.915 107.450 C 100.514 108.905, 100.829 122.512, 102.482 131.904 C 103.648 138.532, 103.838 145.716, 103.382 165.904 C 103.063 179.982, 102.512 191.950, 102.157 192.500 C 101.802 193.050, 101.180 199.350, 100.775 206.500 C 99.751 224.590, 98.488 236.006, 97.143 239.315 C 96.515 240.863, 96 244.272, 96 246.891 C 96 250.686, 96.511 252.131, 98.521 254.019 C 100.714 256.080, 101.226 256.200, 102.461 254.944 C 103.261 254.130, 104.351 249.574, 104.961 244.500 C 105.555 239.550, 106.550 232.800, 107.171 229.500 C 108.260 223.713, 108.596 221.090, 108.871 216.216 C 108.953 214.758, 110.227 213.209, 112.394 211.930 C 114.260 210.829, 116.296 208.707, 116.918 207.214 C 117.541 205.721, 121.238 201.350, 125.136 197.500 C 137.196 185.586, 140.087 181.015, 136.444 179.617 C 135.403 179.217, 132.343 181.471, 127.194 186.431 C 116.424 196.804, 114.941 198, 112.847 198 C 111.173 198, 111 197.054, 111 187.875 L 111 177.750 114.082 178.366 C 115.777 178.705, 118.008 178.531, 119.041 177.978 C 121.284 176.777, 129.592 165.340, 132.750 159.104 C 135.516 153.642, 135.592 150.846, 133.037 148.534 C 130.550 146.282, 128.529 147.060, 126.065 151.216 C 124.994 153.022, 123.754 154.955, 123.309 155.510 C 113.041 168.330, 112.286 168.670, 112.286 160.471 C 112.286 157.430, 112.671 154.703, 113.143 154.412 C 113.614 154.120, 114 151.308, 114 148.161 L 114 142.441 120.750 137.470 C 124.606 134.631, 128.242 131.014, 129.230 129.034 C 130.936 125.615, 130.926 125.532, 128.480 122.979 C 125.180 119.535, 125.345 117.205, 129.500 108.567 C 133.437 100.381, 133.835 97.066, 131.171 94.655 C 128.426 92.170, 124.527 92.785, 113.500 97.440 M 113.203 107.131 C 111.390 107.654, 109.669 108.698, 109.380 109.452 C 108.612 111.453, 111.353 124.284, 112.641 124.714 C 113.243 124.914, 114.735 122.473, 115.956 119.289 C 117.177 116.105, 118.586 112.466, 119.088 111.203 C 121.152 106.005, 119.963 105.182, 113.203 107.131 M 46.625 124.169 C 45.467 125.937, 45.192 128.418, 45.511 134.248 C 45.932 141.952, 45.922 141.989, 43.017 143.491 C 38.594 145.778, 36.567 145.349, 32.624 141.290 C 28.220 136.755, 26.467 137.746, 26.765 144.600 C 26.910 147.934, 27.748 150.157, 29.866 152.833 C 33.915 157.950, 36 163.432, 36 168.962 C 36 173.095, 36.328 173.829, 38.652 174.887 C 40.654 175.799, 41.022 176.378, 40.152 177.248 C 38.641 178.759, 38.672 184.272, 40.200 185.800 C 40.860 186.460, 42.435 187, 43.700 187 C 45.812 187, 45.997 187.428, 45.964 192.250 C 45.923 198.416, 43.947 207.315, 41.687 211.523 C 40.807 213.161, 38.253 216.282, 36.011 218.459 C 29.779 224.509, 29.532 229.806, 35.336 232.912 C 38.583 234.650, 39.272 234.134, 46.523 224.548 C 49.455 220.672, 52.675 216.771, 53.677 215.880 C 54.680 214.989, 57.075 212.373, 59 210.067 C 60.925 207.761, 64.701 203.582, 67.392 200.781 C 71.287 196.726, 72.611 195.895, 73.892 196.700 C 78.572 199.642, 80.898 209.237, 81.674 228.805 C 82.153 240.867, 82.608 241.817, 87.335 240.631 C 90.843 239.750, 92.743 233.226, 91.186 227.406 C 90.534 224.967, 89.984 220.615, 89.965 217.736 C 89.945 214.856, 89.286 211.375, 88.500 210 C 87.666 208.541, 87.056 204.713, 87.035 200.809 C 87.016 197.129, 86.550 193.840, 86 193.500 C 85.450 193.160, 85 191.820, 85 190.522 C 85 189.224, 84.387 186.888, 83.638 185.331 C 82.888 183.774, 81.426 180.738, 80.388 178.584 C 78.128 173.896, 76.134 172.494, 72.905 173.322 C 71.003 173.810, 70.102 175.224, 68.595 180.088 C 66.183 187.871, 59.560 198, 56.883 198 C 55.110 198, 54.992 197.518, 55.599 192.750 C 55.966 189.863, 56.604 187.050, 57.018 186.500 C 57.431 185.950, 58.083 183.925, 58.467 182 C 59.547 176.579, 61.267 171.742, 63.088 169 C 64.001 167.625, 65.725 164.475, 66.919 162 C 68.113 159.525, 70.022 156.019, 71.161 154.209 C 73.532 150.441, 74.118 141.713, 72.132 139.741 C 71.370 138.984, 68.078 138.500, 63.691 138.500 L 56.500 138.500 56.206 131.836 C 55.898 124.839, 55.175 123.584, 50.825 122.492 C 48.708 121.961, 47.846 122.305, 46.625 124.169 M 57.446 154.087 C 56.573 155.499, 58.501 157.427, 59.913 156.554 C 61.499 155.574, 61.243 153, 59.559 153 C 58.766 153, 57.816 153.489, 57.446 154.087 M 176.319 155 C 174.019 156.023, 171.544 157.959, 170.819 159.304 C 168.475 163.648, 157.559 175.815, 151.646 180.674 C 147.477 184.100, 148.133 187.307, 154.250 193.412 C 157.137 196.293, 161.008 200.286, 162.850 202.284 L 166.200 205.917 163.860 211.209 C 157.931 224.619, 157.083 225.950, 138.787 250.598 C 132.623 258.902, 128.303 265.627, 128.614 266.437 C 129.317 268.269, 131.823 269.205, 133.471 268.252 C 136.135 266.711, 145.617 257.378, 147.950 254 C 149.280 252.075, 151.860 248.811, 153.684 246.747 C 155.508 244.683, 157 242.535, 157 241.973 C 157 241.411, 158.463 238.824, 160.250 236.224 C 163.105 232.071, 167.094 224.575, 170.411 217.129 C 172.226 213.056, 173.912 213.514, 180.074 219.753 C 183.342 223.062, 188.600 227.711, 191.758 230.084 C 194.916 232.456, 202 238.698, 207.500 243.954 C 223.463 259.208, 233.216 268.203, 238.452 272.500 C 246.444 279.060, 255.122 287.049, 261.501 293.723 L 267.502 300 273.366 300 L 279.230 300 277.455 297.250 C 275.156 293.687, 256.958 275.624, 250.500 270.494 C 247.750 268.309, 241 262.052, 235.500 256.590 C 226.144 247.297, 210.658 233.491, 201.500 226.279 C 199.300 224.546, 195.250 220.809, 192.500 217.974 C 189.750 215.139, 185.363 210.666, 182.750 208.034 C 177.777 203.024, 177.090 200.788, 179.532 197.559 C 180.339 196.491, 181 194.798, 181 193.795 C 181 192.074, 181.340 191.209, 184.160 185.757 C 185.592 182.989, 186.791 178.327, 188.084 170.500 C 188.630 167.200, 189.321 163.143, 189.620 161.485 C 190.038 159.168, 189.576 157.835, 187.630 155.735 C 184.692 152.565, 182.165 152.401, 176.319 155 M 43.018 158.466 C 41.945 160.472, 41.937 161.219, 42.978 162.474 C 43.795 163.458, 44.075 165.641, 43.752 168.508 C 43.199 173.412, 43.242 173.476, 46.066 171.965 C 47.713 171.083, 48 169.822, 48 163.465 C 48 156.896, 47.780 156, 46.169 156 C 45.162 156, 43.744 157.110, 43.018 158.466 M 171.872 173.691 C 169.467 176.822, 166.262 180.747, 164.750 182.414 C 163.238 184.082, 162 185.813, 162 186.262 C 162 186.710, 163.732 188.934, 165.849 191.204 C 170.031 195.687, 173 195.903, 173 191.723 C 173 190.435, 173.661 188.509, 174.468 187.441 C 175.276 186.374, 175.951 184.289, 175.968 182.809 C 175.986 181.329, 176.450 179.840, 177 179.500 C 178.230 178.740, 178.343 168, 177.122 168 C 176.638 168, 174.276 170.561, 171.872 173.691 M 293.154 243.438 C 293.345 244.355, 293.950 245.082, 294.500 245.053 C 295.984 244.974, 295.712 242.737, 294.154 242.218 C 293.313 241.938, 292.939 242.395, 293.154 243.438" stroke="none" fill="black" fill-rule="evenodd"/>
</svg>