<svg xmlns="http://www.w3.org/2000/svg" width="300" height="300" viewBox="0 0 300 300" version="1.1">
	<path d="M 148.188 32.118 C 143.066 35.992, 138.630 39.800, 138.331 40.581 C 138.031 41.361, 137.233 42, 136.557 42 C 135.881 42, 132.524 44.250, 129.098 47 C 125.671 49.750, 121.858 52, 120.625 52 C 116.494 52, 114.752 54.163, 115.533 58.325 C 116.500 63.481, 119.106 64.716, 123.408 62.057 C 128.018 59.207, 131 59.332, 131 62.374 C 131 63.680, 131.722 66.718, 132.605 69.124 C 133.806 72.399, 134.401 79.462, 134.972 97.188 C 135.666 118.779, 135.928 121.249, 137.927 125.085 C 139.848 128.770, 139.966 129.680, 138.879 132.397 C 135.835 140.006, 127.759 155.856, 125.071 159.500 C 123.447 161.700, 120.739 165.810, 119.053 168.633 C 117.367 171.456, 115.315 174.323, 114.494 175.005 C 113.672 175.687, 113 176.818, 113 177.518 C 113 178.218, 110.638 180.015, 107.750 181.511 C 104.862 183.008, 100.562 185.806, 98.194 187.729 C 93.001 191.946, 92.641 195.813, 97.292 197.439 C 99.688 198.277, 101.248 197.798, 108.292 194.060 C 112.806 191.665, 117.694 188.871, 119.154 187.852 C 120.614 186.834, 122.241 186, 122.770 186 C 123.298 186, 124.803 185.162, 126.115 184.138 C 127.427 183.113, 129.625 181.935, 131 181.520 C 132.375 181.105, 137.345 178.869, 142.045 176.552 C 146.745 174.234, 151.920 171.819, 153.545 171.184 C 155.170 170.549, 157.226 169.501, 158.114 168.855 C 159.002 168.210, 160.510 167.982, 161.465 168.348 C 163.060 168.960, 163.153 170.617, 162.614 188.757 C 161.204 236.178, 160.787 245.673, 159.995 248.500 C 159.533 250.150, 158.877 258.539, 158.539 267.142 C 158.200 275.745, 157.490 284.292, 156.961 286.135 C 156.433 287.979, 156 291.852, 156 294.743 L 156 300 161 300 L 166 300 166.099 291.750 C 166.153 287.212, 166.339 281.700, 166.511 279.500 C 167.059 272.497, 168.894 251.847, 169.888 241.500 C 170.772 232.293, 171.482 217.463, 172.590 185 C 173.112 169.720, 173.448 165.701, 174.325 164.283 C 174.697 163.681, 177.364 162.880, 180.251 162.505 C 183.138 162.130, 187.428 161.188, 189.785 160.411 C 192.142 159.635, 195.659 159, 197.601 159 C 199.543 159, 202.051 158.508, 203.174 157.907 C 204.297 157.306, 208.162 156.518, 211.763 156.157 C 218.125 155.518, 218.366 155.390, 220.331 151.600 L 222.352 147.700 219.620 145.350 C 216.253 142.453, 212.662 142.377, 206.563 145.075 C 202.194 147.008, 173.212 153.545, 172.439 152.772 C 172.247 152.580, 171.957 144.251, 171.795 134.263 C 171.575 120.738, 171.819 115.783, 172.750 114.851 C 173.438 114.163, 174 112.592, 174 111.359 C 174 110.126, 174.395 108.874, 174.879 108.575 C 176.410 107.629, 177.366 96.050, 177.343 78.714 L 177.322 61.927 174.009 58.510 C 169.648 54.010, 166.467 53.398, 160.927 55.994 C 153.599 59.427, 151.865 60.645, 147.860 65.168 C 144.222 69.277, 143.949 69.404, 142.570 67.638 C 140.436 64.905, 139.461 55.376, 141.018 52.467 C 141.715 51.164, 144.517 48.388, 147.244 46.299 C 149.971 44.209, 153.170 41.573, 154.351 40.439 C 155.533 39.306, 157.980 37.781, 159.790 37.052 C 165.404 34.787, 167.625 29.768, 164.429 26.571 C 161.438 23.580, 157.862 24.802, 148.188 32.118 M 74.597 46.893 C 72.978 48.682, 72.983 48.994, 74.692 52.553 C 75.686 54.624, 77.287 56.698, 78.250 57.160 C 79.213 57.622, 80.787 58.383, 81.750 58.852 C 82.984 59.452, 83.647 61.295, 84 65.102 C 84.452 69.981, 84.729 70.500, 86.881 70.500 C 90.411 70.500, 93.286 64.796, 92.574 59.208 C 91.851 53.536, 87.128 47.654, 82.081 46.142 C 77.042 44.633, 76.602 44.677, 74.597 46.893 M 162.709 66.624 C 161.538 67.795, 161.910 75.510, 163.200 76.800 C 164.838 78.438, 167.943 78.313, 168.607 76.583 C 168.906 75.803, 168.767 73.216, 168.297 70.833 C 167.663 67.609, 166.929 66.425, 165.431 66.208 C 164.324 66.047, 163.099 66.235, 162.709 66.624 M 145.677 76.250 C 144.925 77.487, 144.237 80.912, 144.149 83.860 L 143.990 89.219 146.745 88.539 C 148.260 88.165, 149.888 87.479, 150.363 87.016 C 151.288 86.114, 151.924 77.323, 151.214 75.250 C 150.517 73.216, 147.154 73.823, 145.677 76.250 M 76.826 85.131 C 75.547 86.854, 71.459 91.354, 67.743 95.131 C 61.171 101.811, 60.847 102, 55.971 102 C 51.648 102, 50.806 102.331, 49.863 104.402 C 49.135 105.999, 49.085 107.759, 49.712 109.652 C 50.536 112.138, 51.218 112.537, 55.078 112.792 C 58.763 113.035, 60.615 112.410, 66.195 109.042 C 72.847 105.026, 75 104.241, 75 105.830 C 75 106.933, 70.203 120.706, 68.497 124.500 C 65.583 130.982, 63.829 135.215, 61.540 141.298 C 57.872 151.042, 53.493 159.096, 49.468 163.500 C 47.458 165.700, 45.067 168.672, 44.156 170.105 C 43.244 171.538, 41.036 173.940, 39.249 175.444 C 34.982 179.034, 34.627 184.418, 38.540 186.200 C 41.829 187.699, 46.058 186.269, 47.623 183.129 C 49.635 179.093, 57.281 172, 59.619 172 C 62.080 172, 66.751 176.962, 67.456 180.327 C 67.938 182.624, 68.612 187.869, 69.613 197.110 C 69.980 200.507, 69.781 203.540, 69.107 204.799 C 68.375 206.168, 68.337 207.090, 68.997 207.498 C 69.549 207.839, 70 209.126, 70 210.359 C 70 212.533, 71.658 215, 73.118 215 C 73.514 215, 74.802 213.438, 75.982 211.530 C 77.968 208.315, 78.109 206.891, 77.899 192.200 C 77.774 183.477, 77.997 175.814, 78.395 175.170 C 79.797 172.901, 87.020 173.865, 92.618 177.067 C 104.563 183.902, 108.856 175.769, 97.389 168.030 C 92.338 164.621, 91.070 164.197, 84.105 163.584 C 81.138 163.324, 78.265 162.665, 77.722 162.122 C 77.071 161.471, 78.143 159.068, 80.867 155.078 C 83.140 151.748, 85 148.559, 85 147.991 C 85 146.252, 89.527 139.673, 93.363 135.837 C 98.797 130.403, 98.254 123, 92.421 123 C 88.938 123, 81.888 132.294, 75.561 145.227 C 69.020 158.598, 66.660 162, 63.927 162 C 61.625 162, 61.446 159.825, 63.447 156.154 C 66.208 151.089, 77 128.326, 77 127.566 C 77 127.146, 77.621 125.384, 78.380 123.651 C 84.453 109.789, 85.869 104.605, 86.695 93.202 C 87.134 87.136, 86.925 85.575, 85.457 83.952 C 82.835 81.055, 79.517 81.508, 76.826 85.131 M 165.229 93.250 C 162.056 97.155, 158.822 105, 160.386 105 C 161.498 105, 166.415 101.952, 167.135 100.816 C 168.246 99.063, 168.236 92, 167.122 92 C 166.640 92, 165.788 92.563, 165.229 93.250 M 144.084 103 C 143.994 107.950, 144.333 112, 144.838 112 C 146.539 112, 147.937 109.392, 149.071 104.103 C 150.124 99.195, 150.047 98.679, 147.926 96.421 C 146.675 95.089, 145.336 94, 144.950 94 C 144.564 94, 144.174 98.050, 144.084 103 M 155.254 119.250 C 153.662 121.259, 151.205 127.224, 150.470 130.863 C 150.097 132.713, 147.589 137.888, 144.898 142.363 C 142.206 146.839, 140.003 150.891, 140.002 151.368 C 140.001 151.845, 138.594 153.838, 136.875 155.795 C 135.156 157.753, 133.170 160.737, 132.462 162.427 C 131.754 164.117, 130.010 166.591, 128.587 167.924 C 126.238 170.125, 125.110 173, 126.596 173 C 126.923 173, 128.386 172.150, 129.846 171.112 C 133.377 168.600, 147.742 162, 149.678 162 C 151.181 162, 160.820 157.517, 162.204 156.175 C 162.591 155.799, 162.455 149.869, 161.901 142.996 C 161.348 136.123, 160.885 127.688, 160.872 124.250 C 160.852 118.399, 160.703 118, 158.548 118 C 157.281 118, 155.799 118.563, 155.254 119.250" stroke="none" fill="black" fill-rule="evenodd"/>
</svg>