<svg xmlns="http://www.w3.org/2000/svg" width="300" height="300" viewBox="0 0 300 300" version="1.1">
	<path d="M 100.544 27.344 C 98.948 28.511, 98.801 29.524, 99.426 35.045 C 99.821 38.541, 100.582 42.218, 101.116 43.216 C 103.108 46.939, 103.885 64.386, 102.403 72.153 C 100.012 84.693, 100.740 89, 105.251 89 C 106.418 89, 107.637 87.719, 108.549 85.536 C 109.345 83.631, 111.010 81.536, 112.248 80.880 C 113.487 80.224, 117.824 76.945, 121.888 73.594 C 125.951 70.242, 131.576 65.914, 134.388 63.976 C 137.199 62.037, 140.959 59.368, 142.742 58.044 L 145.984 55.636 148.435 57.939 C 150.246 59.641, 151.050 61.711, 151.515 65.871 C 151.861 68.967, 152.853 75.544, 153.719 80.486 C 154.976 87.657, 155.159 93.315, 154.623 108.486 C 154.254 118.944, 153.469 130.200, 152.878 133.500 C 150.426 147.203, 148.577 154.225, 147.290 154.719 C 145.414 155.439, 142.005 152.150, 141.978 149.595 C 141.966 148.443, 141.107 146.396, 140.071 145.047 C 138.399 142.872, 137.892 142.728, 135.593 143.776 C 132.692 145.097, 132.511 146.174, 134.120 152.562 C 135.548 158.234, 145.015 167, 149.711 167 C 152.864 167, 157 163.493, 157 160.820 C 157 159.968, 157.830 158.197, 158.845 156.885 C 160.815 154.339, 163.635 134.295, 164.808 114.500 C 166.316 89.034, 163.747 62.219, 158.860 52.434 C 155.746 46.198, 152.759 44, 147.400 44 C 141.759 44, 135.249 48.235, 117.096 63.714 C 112.903 67.290, 111.605 66.729, 112.559 61.750 C 113.651 56.053, 113.543 52.225, 111.979 41.173 C 110.883 33.428, 110.196 31.351, 107.928 28.923 C 104.905 25.687, 103.284 25.340, 100.544 27.344 M 61.004 44.742 C 56.515 45.283, 55 46.593, 55 49.931 C 55 53.759, 57.169 56.227, 61.630 57.476 C 65.004 58.420, 65.564 59.003, 66 62.029 C 66.408 64.862, 66.977 65.555, 69.092 65.801 C 71.075 66.032, 72.323 65.265, 74.403 62.539 C 76.943 59.208, 77.036 58.742, 75.828 55.401 C 74.600 52.005, 66.914 43.820, 65.272 44.160 C 64.848 44.248, 62.927 44.510, 61.004 44.742 M 65.791 90.935 C 63.200 91.947, 60.356 93.501, 59.469 94.388 C 58.583 95.275, 57.269 96, 56.551 96 C 55.833 96, 54.669 96.694, 53.964 97.543 C 53.260 98.392, 50.392 100.217, 47.592 101.598 C 33.964 108.322, 32.058 110.132, 32.022 116.382 L 32 120.263 36.250 119.507 C 38.587 119.091, 42.258 118.683, 44.408 118.601 C 46.859 118.508, 48.536 117.889, 48.908 116.941 C 50.347 113.269, 64.209 102.875, 65.690 104.357 C 65.968 104.635, 65.554 106.130, 64.771 107.681 C 63.988 109.231, 62.674 111.850, 61.851 113.500 C 60.358 116.494, 58.430 120.163, 56.858 123 C 56.401 123.825, 54.676 127.283, 53.025 130.684 C 51.374 134.085, 49.568 137.149, 49.011 137.493 C 48.455 137.837, 48 138.839, 48 139.721 C 48 140.602, 45.394 144.738, 42.208 148.912 C 36.824 155.967, 35.463 157.859, 30.729 164.875 C 29.671 166.444, 29.067 168.908, 29.229 171 C 29.447 173.816, 29.959 174.565, 31.852 174.833 C 36.301 175.463, 38.565 174.059, 42.812 168.037 C 47.017 162.074, 49.918 160.510, 51.691 163.250 C 52.136 163.938, 52.741 170.286, 53.036 177.357 C 53.500 188.491, 53.828 190.401, 55.484 191.612 C 57.479 193.071, 60.955 192.558, 62.235 190.615 C 63.276 189.035, 63.178 175.207, 62.112 173.184 C 61.623 172.258, 61.051 168.002, 60.841 163.726 L 60.459 155.953 66.430 156.628 C 74.085 157.494, 77.580 159.619, 83.510 167.013 C 86.151 170.306, 88.642 173, 89.045 173 C 89.449 173, 90.785 172.185, 92.015 171.189 C 93.808 169.737, 94.047 168.992, 93.220 167.439 C 92.652 166.372, 91.697 163.655, 91.098 161.399 C 90.329 158.504, 88.392 155.769, 84.505 152.093 C 79.212 147.087, 77.612 144.033, 80.250 143.971 C 81.854 143.933, 86.928 139.315, 89.806 135.273 C 91.035 133.546, 93.028 131.991, 94.233 131.817 C 97.411 131.358, 98.416 125.823, 95.826 123.043 C 91.901 118.830, 87.896 120.941, 75 134.022 C 70.875 138.207, 66.037 142.644, 64.250 143.883 C 61.652 145.684, 61 146.825, 61 149.568 C 61 153.597, 60.145 153.847, 57.174 150.686 C 54.659 148.008, 54.360 144.776, 56.467 143.027 C 58.672 141.197, 65.405 129.508, 70.594 118.500 C 72.150 115.200, 74.228 111.306, 75.211 109.846 C 76.195 108.386, 77 106.488, 77 105.630 C 77 104.771, 77.755 102.485, 78.678 100.550 C 80.141 97.481, 80.177 96.700, 78.963 94.431 C 77.692 92.056, 73.247 88.933, 71.300 89.047 C 70.860 89.073, 68.381 89.922, 65.791 90.935 M 120.712 98.083 C 117.092 99.952, 114.573 101.994, 113.987 103.535 C 113.471 104.891, 112.639 106, 112.138 106 C 111.637 106, 111 107.463, 110.723 109.250 C 110.041 113.653, 113.082 117, 117.764 117 C 121.180 117, 124.893 114.037, 124.967 111.250 C 125.006 109.775, 126.627 109.587, 127.475 110.959 C 129.728 114.605, 117.908 133.420, 113.746 132.811 C 112.019 132.559, 111.580 131.738, 111.415 128.457 C 111.181 123.820, 108.281 117.165, 105.834 115.648 C 104.635 114.906, 103.717 114.990, 102.560 115.950 C 101.239 117.047, 101.057 118.635, 101.536 124.892 C 101.856 129.076, 102.601 134.300, 103.190 136.500 C 103.806 138.798, 104.313 151.563, 104.381 166.500 C 104.495 191.382, 104.599 192.714, 106.799 197.488 C 109.571 203.503, 112.337 206.611, 117 208.951 C 121.254 211.086, 133.673 212.959, 140.500 212.494 C 143.250 212.307, 159.450 211.639, 176.500 211.009 C 193.550 210.380, 208.850 209.391, 210.500 208.813 C 212.150 208.234, 215.300 207.391, 217.500 206.938 C 229.379 204.495, 231.590 203.787, 234.665 201.442 C 240.446 197.032, 241.169 193.808, 239.464 180.035 C 238.656 173.503, 237.101 165.310, 236.010 161.829 C 234.919 158.348, 234.020 154.695, 234.013 153.710 C 234.006 152.726, 233.111 150.178, 232.025 148.049 C 230.939 145.920, 229.628 142.450, 229.113 140.339 C 228.107 136.216, 226.446 131.336, 224.387 126.458 C 223.681 124.785, 222.656 121.422, 222.108 118.986 C 221.093 114.469, 218.310 111.290, 216.743 112.857 C 215.721 113.879, 217.147 124.179, 219.395 132 C 220.265 135.025, 220.982 138.711, 220.988 140.191 C 220.995 141.671, 221.450 143.160, 222 143.500 C 222.550 143.840, 223 145.036, 223 146.158 C 223 147.280, 223.640 149.616, 224.422 151.349 C 225.204 153.082, 226.086 156.075, 226.381 158 C 228.210 169.912, 228.702 175.439, 228.607 182.982 L 228.500 191.464 224 193.586 C 215.106 197.781, 190.988 199.986, 150.486 200.309 C 128.786 200.482, 126.064 200.317, 122.236 198.598 C 119.772 197.492, 118 196.016, 118 195.071 C 118 194.177, 117.320 192.475, 116.490 191.289 C 115.293 189.580, 114.913 184.953, 114.659 169.021 L 114.339 148.909 117.920 145.848 C 119.889 144.164, 123.203 141.260, 125.284 139.393 C 127.365 137.527, 129.658 136, 130.379 136 C 134.179 136, 136.518 128.505, 133.500 126 C 131.344 124.211, 131.642 121.807, 134.548 117.524 C 136.334 114.893, 137.274 111.867, 137.690 107.418 C 138.268 101.223, 138.203 100.992, 135.036 98.033 C 130.960 94.226, 128.166 94.236, 120.712 98.083" stroke="none" fill="black" fill-rule="evenodd"/>
</svg>