<svg xmlns="http://www.w3.org/2000/svg" width="300" height="300" viewBox="0 0 300 300" version="1.1">
	<path d="M 117.787 4.350 C 113.729 9.205, 108.741 12, 104.134 12 C 100.389 12, 98.758 14.568, 99.192 19.784 C 99.423 22.564, 99.997 23.572, 101.500 23.839 C 102.600 24.034, 103.872 24.545, 104.327 24.974 C 105.157 25.757, 103.603 32.986, 101.906 36.236 C 101.408 37.191, 101 38.852, 101 39.927 C 101 41.002, 100.550 42.160, 100 42.500 C 99.450 42.840, 99 44.130, 99 45.368 C 99 46.605, 98.339 48.491, 97.532 49.559 C 96.724 50.626, 96.048 52.400, 96.028 53.500 C 96.009 54.600, 95.094 56.973, 93.996 58.774 C 91.479 62.902, 91.493 64.443, 94.082 68.632 C 96.422 72.419, 98.453 72.795, 102.876 70.257 C 107.951 67.344, 108.702 69.656, 104.941 76.612 C 103.191 79.851, 101.138 83.388, 100.379 84.473 C 98.473 87.199, 98.655 90.377, 100.829 92.345 C 103.211 94.501, 105.183 94.436, 108.115 92.102 C 111.090 89.735, 113.118 85.599, 116.010 76 C 117.252 71.875, 118.884 67.082, 119.635 65.349 C 120.386 63.616, 121 61.083, 121 59.721 C 121 57.080, 123.313 54.458, 124.821 55.390 C 125.321 55.699, 126.243 58.550, 126.870 61.726 C 127.496 64.902, 128.907 68.973, 130.004 70.774 C 131.102 72.575, 132 74.700, 132 75.497 C 132 78.520, 137.378 88.133, 140.189 90.135 C 142.799 91.993, 143.971 92.148, 150.811 91.538 C 164.990 90.273, 185.517 83.892, 189.608 79.478 C 191.921 76.982, 192.168 76.064, 191.665 71.823 C 191.299 68.725, 190.274 66.155, 188.797 64.628 C 187.534 63.321, 185.600 60.754, 184.500 58.923 C 178.480 48.901, 177.275 46.960, 174.863 43.396 C 168.522 34.026, 162.005 31.066, 163.532 38.249 C 163.912 40.037, 164.885 42.252, 165.694 43.170 C 168.331 46.163, 174.439 57.800, 178.404 67.386 C 179.905 71.015, 179.896 71.360, 178.256 72.614 C 175.818 74.478, 166.389 77.993, 163.712 78.035 C 162.496 78.054, 158.618 78.688, 155.096 79.443 C 150.560 80.416, 148.039 80.519, 146.456 79.798 C 144.096 78.723, 142 75.111, 142 72.120 C 142 71.137, 141.662 69.997, 141.250 69.586 C 140.838 69.176, 139.125 64.938, 137.445 60.170 L 134.390 51.500 129.731 51.739 C 126.067 51.927, 125.187 51.676, 125.613 50.566 C 125.911 49.790, 126.795 48.909, 127.577 48.609 C 128.360 48.308, 129 47.546, 129 46.913 C 129 46.281, 130.376 44.197, 132.057 42.283 C 134.159 39.889, 135.018 37.973, 134.807 36.150 C 134.523 33.700, 134.172 33.515, 130.146 33.700 L 125.793 33.899 126.435 30.200 C 128.059 20.837, 128.172 18.772, 127.113 17.713 C 125.200 15.800, 125.890 13.163, 128.660 11.805 C 130.123 11.087, 132.195 9.318, 133.264 7.873 C 135.117 5.368, 135.127 5.124, 133.489 2.623 C 132.001 0.352, 131.076 -0, 126.597 -0 C 121.716 -0, 121.218 0.246, 117.787 4.350 M 69 21.661 C 66.525 23.111, 63.150 24.808, 61.500 25.433 C 55.154 27.833, 43.064 35.527, 43.032 37.185 C 43.014 38.112, 43.454 40.063, 44.008 41.521 C 44.936 43.962, 45.334 44.119, 49.008 43.499 C 52.283 42.945, 53 43.112, 53 44.426 C 53 46.038, 52.723 46.737, 49.669 52.831 C 48.751 54.663, 48 57.067, 48 58.173 C 48 59.279, 47.105 61.322, 46.011 62.713 C 43.559 65.830, 44.161 69.048, 48.149 74.144 C 52.485 79.686, 52.037 82.059, 43.833 97 C 38.485 106.739, 38.447 106.871, 40.563 108.471 C 43.620 110.784, 45.814 110.259, 47.610 106.788 C 48.524 105.021, 50.453 102.393, 51.898 100.948 C 56.021 96.825, 61.382 85.151, 61.288 80.500 C 61.196 75.918, 63.245 73, 66.555 73 C 68.747 73, 68.807 73.301, 69.150 85.945 L 69.500 98.891 72.946 102.445 C 74.842 104.400, 77.236 106, 78.267 106 C 79.298 106, 82.359 104.130, 85.071 101.843 C 88.801 98.698, 90 97.010, 90 94.902 C 90 93.371, 90.450 91.840, 91 91.500 C 92.664 90.472, 92.193 82.405, 90.382 80.902 C 88.982 79.740, 88.442 79.961, 86.387 82.529 C 85.079 84.163, 84.008 86.457, 84.005 87.628 C 83.999 90.310, 81.537 92.420, 79.380 91.592 C 77.704 90.949, 77.759 86.933, 79.630 73.234 C 80.120 69.652, 79.795 68.420, 77.609 65.553 C 75.273 62.491, 75.162 61.981, 76.532 60.611 C 78.105 59.038, 77.716 54.761, 75.775 52.293 C 75.253 51.629, 74.978 46.454, 75.163 40.793 C 75.460 31.736, 75.769 30.226, 77.740 28.215 C 85.068 20.738, 78.710 15.971, 69 21.661 M 112.584 29.864 C 112.254 30.398, 111.696 33.009, 111.344 35.667 C 110.991 38.325, 109.721 42.750, 108.520 45.500 C 105.031 53.491, 104.622 56, 106.807 56 C 109.370 56, 112.399 52.298, 113.997 47.212 C 115.704 41.782, 115.933 29.847, 114.342 29.296 C 113.705 29.075, 112.914 29.331, 112.584 29.864 M 60.571 49.571 C 59.707 50.436, 59 51.925, 59 52.880 C 59 53.836, 58.339 55.491, 57.532 56.559 C 55.724 58.949, 55.532 64.003, 57.250 63.992 C 59.051 63.981, 62.833 56.898, 63.600 52.100 C 64.306 47.688, 63.297 46.846, 60.571 49.571 M 96.579 113.328 C 93.323 115.637, 90.438 118.187, 90.168 118.995 C 89.899 119.804, 88.626 121.293, 87.339 122.305 C 85.829 123.493, 85 125.193, 85 127.104 C 85 131.223, 87.737 132.082, 90.180 128.728 C 91.220 127.300, 93.742 125.595, 95.785 124.939 C 97.828 124.284, 100.289 123.058, 101.254 122.215 C 103.532 120.225, 108 122.017, 108 124.920 C 108 125.999, 108.450 127.160, 109 127.500 C 110.274 128.288, 110.313 132, 109.047 132 C 108.523 132, 107.003 131.503, 105.669 130.895 C 103.766 130.028, 102.519 130.142, 99.872 131.426 C 95.895 133.354, 91.181 137.500, 88.799 141.163 C 87.192 143.636, 87.196 143.868, 88.878 145.390 C 91.232 147.520, 93.754 147.421, 98.764 145 C 101.041 143.900, 103.545 143, 104.329 143 C 105.113 143, 106.315 142.325, 107 141.500 C 108.559 139.621, 110 139.566, 110 141.386 C 110 144.451, 106.943 148.346, 103.233 150.007 C 101.074 150.974, 97.371 153.167, 95.004 154.882 C 92.637 156.597, 90.113 158, 89.395 158 C 88.672 158, 87.796 156.329, 87.429 154.250 C 86.648 149.819, 82.233 135.252, 80.918 132.764 C 80.413 131.809, 80 130.418, 80 129.673 C 80 128.929, 78.615 125.547, 76.922 122.159 C 73.832 115.976, 71.078 113.989, 67.502 115.361 C 64.792 116.401, 65.605 123.986, 69 129.339 C 70.650 131.941, 72 134.674, 72 135.412 C 72 136.151, 72.628 137.276, 73.395 137.913 C 74.162 138.549, 75.028 140.517, 75.320 142.285 C 76.814 151.332, 78.659 156.095, 81.767 158.935 C 83.545 160.559, 85 162.555, 85 163.371 C 85 165.280, 89.713 169, 92.132 169 C 93.156 169, 95.738 167.425, 97.868 165.500 C 100.164 163.426, 102.782 162, 104.294 162 C 105.698 162, 108.119 160.952, 109.673 159.670 C 111.228 158.389, 113.287 157.053, 114.250 156.702 C 115.213 156.350, 116 155.133, 116 153.996 C 116 152.860, 116.612 150.933, 117.361 149.715 C 119.872 145.627, 121.175 134.179, 120.036 126.206 C 118.537 115.709, 114.530 110.827, 106.478 109.692 C 102.967 109.196, 101.805 109.623, 96.579 113.328 M 128.750 163.080 C 126.793 164.220, 126.454 171.446, 127.935 180.475 C 128.574 184.367, 128.403 186, 127.150 187.975 C 125.015 191.342, 119.759 197, 118.766 197 C 118.330 197, 116.846 194.537, 115.469 191.526 C 112.776 185.639, 110.772 184, 106.266 184 C 99.491 184, 99.264 189.142, 105.750 195.729 C 110.493 200.546, 111.637 202.886, 116.064 216.830 C 118.475 224.423, 120.677 227, 124.754 227 C 126.024 227, 127.315 227.657, 127.623 228.460 C 128.618 231.052, 121.155 249.962, 117.576 253.916 C 114.947 256.821, 114.463 262.213, 116.658 264.143 C 120.310 267.356, 122.421 267.222, 127.336 263.470 C 129.901 261.511, 132 259.485, 132 258.967 C 132 257.760, 139.501 253, 141.403 253 C 142.197 253, 144.196 251.650, 145.845 250.001 C 147.495 248.352, 151.017 245.349, 153.672 243.329 C 156.327 241.308, 158.997 238.985, 159.605 238.165 C 161.926 235.037, 166.346 239.588, 172.074 251 C 173.868 254.575, 177.061 260.249, 179.168 263.608 C 181.276 266.967, 183 269.985, 183 270.314 C 183 270.642, 184.125 272.569, 185.500 274.595 C 186.875 276.621, 188 278.876, 188 279.606 C 188 280.335, 189.776 283.680, 191.946 287.038 C 194.116 290.396, 196.401 294.686, 197.024 296.572 C 198.127 299.916, 198.289 300, 203.578 300 C 206.560 300, 209 299.569, 209 299.043 C 209 298.516, 206.908 294.129, 204.352 289.293 C 201.796 284.457, 197.607 276.450, 195.045 271.500 C 192.482 266.550, 189.398 260.799, 188.193 258.720 C 186.987 256.640, 186 254.079, 186 253.029 C 186 251.978, 185.567 250.850, 185.037 250.523 C 183.988 249.875, 174 233.237, 174 232.138 C 174 231.768, 172.875 229.809, 171.500 227.785 C 170.125 225.762, 169 223.423, 169 222.588 C 169 219.382, 161.206 217.762, 157.904 220.282 C 157.026 220.952, 155.536 222.993, 154.593 224.817 C 152.284 229.286, 137.995 243, 135.648 243 C 133.978 243, 133.850 242.479, 134.480 238.250 C 134.869 235.637, 135.575 233.028, 136.050 232.450 C 136.524 231.873, 137.216 229.398, 137.586 226.950 C 138.327 222.058, 140.624 218.958, 146.097 215.464 C 148.075 214.201, 151.349 210.675, 153.371 207.628 C 155.394 204.581, 157.488 201.817, 158.024 201.485 C 158.561 201.153, 159.015 199.896, 159.034 198.691 C 159.053 197.486, 159.937 194.700, 161 192.500 C 163.976 186.340, 163.571 183.575, 158.964 178.577 C 153.877 173.058, 151.078 172.300, 145.589 174.957 C 143.268 176.081, 140.659 177, 139.791 177 C 137.827 177, 136.822 174.556, 137.567 171.590 C 138.276 168.763, 134.438 161.988, 132.151 162.030 C 131.243 162.047, 129.713 162.519, 128.750 163.080 M 51.092 186.389 C 50.233 187.424, 50.223 188.886, 51.052 192.139 C 53.364 201.211, 53.346 201.800, 50.650 205.005 C 49.236 206.684, 47.787 209.621, 47.428 211.529 C 46.776 215.010, 43.966 216.373, 42.462 213.938 C 42.101 213.354, 40.837 212.450, 39.653 211.928 C 38.469 211.406, 35.700 209.853, 33.500 208.476 C 29.996 206.284, 28.757 206.047, 23.510 206.564 C 16.348 207.269, 15 208.209, 15 212.500 C 15 217.040, 16.990 218.379, 22.506 217.551 C 26.566 216.943, 27.652 217.252, 33.111 220.567 C 37.428 223.190, 40.179 225.805, 42.596 229.583 C 44.468 232.509, 46 235.511, 46 236.252 C 46 240.137, 51.061 241.179, 53.440 237.782 C 54.891 235.711, 55.103 235.675, 56.663 237.234 C 58.222 238.793, 58.187 239.550, 56.135 248.702 C 53.445 260.698, 50.560 266.750, 46.111 269.723 C 41.364 272.896, 38 277.810, 38 281.572 C 38 285.158, 40.167 287.534, 42.590 286.604 C 44.390 285.913, 57.012 275.778, 71.674 263.250 C 76.984 258.712, 82.165 255, 83.186 255 C 84.274 255, 85.505 256.139, 86.160 257.750 C 86.775 259.262, 88.270 262.750, 89.482 265.500 C 90.695 268.250, 92.520 273.614, 93.538 277.420 C 94.556 281.226, 96.201 285.933, 97.194 287.881 C 98.187 289.829, 99 292.207, 99 293.164 C 99 294.122, 99.522 296.052, 100.161 297.453 C 101.111 299.539, 102.017 300, 105.161 300 C 108.940 300, 109 299.940, 109 296.200 C 109 294.110, 108.599 291.973, 108.108 291.450 C 107.618 290.928, 106.511 287.575, 105.650 284 C 102.233 269.826, 101.118 265.843, 100.243 264.696 C 99.741 264.038, 98.088 259.900, 96.569 255.500 C 95.051 251.100, 93.401 247.072, 92.904 246.550 C 92.407 246.028, 92 244.855, 92 243.944 C 92 241.645, 85.443 233.275, 83.045 232.514 C 81.962 232.171, 80.159 232.380, 79.038 232.980 C 77.366 233.874, 77 235.060, 77 239.578 C 77 244.956, 76.861 245.226, 71.117 251.043 C 65.968 256.256, 61.928 258.572, 62.035 256.250 C 62.119 254.421, 66.742 237.924, 67.338 237.329 C 67.702 236.965, 68 236.022, 68 235.234 C 68 234.447, 68.612 232.384, 69.359 230.651 C 72.357 223.703, 73 221.827, 73 220.030 C 73 218.998, 74.125 216.816, 75.500 215.182 C 76.875 213.548, 78 211.921, 78 211.565 C 78 211.210, 78.924 209.670, 80.053 208.143 C 82.148 205.308, 83.110 196.605, 81.598 194.159 C 80.561 192.480, 74.253 189.994, 71.128 190.032 C 69.683 190.049, 67.626 190.724, 66.559 191.532 C 63.695 193.698, 61.074 193.324, 60.038 190.601 C 59.091 188.108, 55.407 185, 53.400 185 C 52.765 185, 51.726 185.625, 51.092 186.389 M 143.888 187.997 C 140.812 189.623, 140.191 190.541, 139.702 194.184 C 139.387 196.537, 139.313 198.646, 139.538 198.871 C 140.800 200.134, 148.068 199.571, 149.294 198.116 C 151.045 196.037, 153.276 188.256, 152.487 186.979 C 151.549 185.461, 147.862 185.897, 143.888 187.997 M 67.758 203.250 C 65.180 205.235, 64.944 215, 67.474 215 C 69.518 215, 72 209.817, 72 205.550 C 72 201.773, 70.637 201.034, 67.758 203.250 M 127.263 203.250 C 126.053 204.790, 124.896 210.563, 125.646 211.313 C 127.506 213.172, 132.704 206.276, 131.604 203.410 C 130.934 201.664, 128.577 201.577, 127.263 203.250 M 50.655 215.829 C 48.863 217.809, 48.476 220.558, 49.869 221.419 C 50.346 221.714, 51.029 223.783, 51.387 226.016 C 52.134 230.691, 54.578 232.297, 56.645 229.471 C 58.711 226.646, 58.403 217.675, 56.171 215.655 C 53.828 213.534, 52.700 213.570, 50.655 215.829" stroke="none" fill="black" fill-rule="evenodd"/>
</svg>