<svg xmlns="http://www.w3.org/2000/svg" width="300" height="300" viewBox="0 0 300 300" version="1.1">
	<path d="M 137.667 26.667 C 136.447 27.886, 136.978 34.014, 138.629 37.782 C 141.422 44.157, 140.662 46.413, 133.432 53.214 C 127.482 58.810, 126.927 59.675, 127.200 62.928 C 127.493 66.414, 127.595 66.494, 131.425 66.260 C 133.584 66.127, 136.284 65.219, 137.425 64.242 C 142.595 59.813, 155.109 53, 158.075 53 C 158.634 53, 160.195 51.896, 161.545 50.546 C 163.654 48.437, 163.842 47.746, 162.878 45.631 C 161.673 42.987, 159.404 42.035, 154.250 42.014 C 151.498 42.002, 151 41.635, 151 39.622 C 151 38.314, 150.313 35.601, 149.474 33.591 C 147.385 28.591, 140.046 24.287, 137.667 26.667 M 148.354 73.993 C 147.174 74.469, 144.736 76.690, 142.937 78.929 C 139.298 83.457, 137.191 83.974, 134.500 81 C 132.344 78.618, 126.809 78.320, 125.009 80.489 C 123.213 82.654, 124.565 88.242, 127.567 91.063 C 130.401 93.725, 133.988 101.124, 134.022 104.377 C 134.082 110.054, 141.120 113.308, 141.835 107.990 C 142.338 104.246, 143.506 103.630, 146.450 105.559 C 149.014 107.239, 149.216 107.227, 151.807 105.242 C 153.288 104.107, 154.360 102.605, 154.188 101.904 C 153.632 99.631, 154.942 96.223, 157.571 93.098 C 158.986 91.416, 159.880 89.615, 159.559 89.095 C 159.238 88.575, 159.501 86.995, 160.143 85.584 C 161.101 83.483, 160.980 82.283, 159.477 78.949 C 156.926 73.293, 153.677 71.845, 148.354 73.993 M 142.682 92.560 C 140.545 95.495, 140.809 98.339, 143.261 98.812 C 144.600 99.070, 145 98.458, 145 96.155 C 145 94.510, 145.273 92.452, 145.607 91.582 C 146.538 89.154, 144.718 89.763, 142.682 92.560 M 47.324 98.853 C 45.578 101.648, 44.600 109.635, 45.904 110.441 C 47.759 111.587, 47.111 116.349, 44.687 119.378 C 41.848 122.926, 39.188 122.370, 36.918 117.753 C 34.436 112.706, 25 111.196, 25 115.846 C 25 116.896, 25.675 118.315, 26.500 119 C 27.325 119.685, 28 120.923, 28 121.751 C 28 122.580, 29.619 125.049, 31.597 127.239 C 33.576 129.429, 35.819 132.715, 36.582 134.542 C 37.345 136.369, 38.427 138.146, 38.985 138.491 C 39.543 138.836, 40.004 140.104, 40.009 141.309 C 40.014 142.541, 41.327 144.534, 43.009 145.863 C 44.654 147.162, 46 149.014, 46 149.978 C 46 150.942, 46.900 152.874, 48 154.273 C 50.204 157.075, 50.602 165.109, 49.002 174.500 C 48.533 177.250, 47.827 181.452, 47.432 183.837 C 46.867 187.244, 46.155 188.392, 44.107 189.194 C 42.673 189.756, 40.719 190.617, 39.764 191.108 C 38.809 191.598, 37.459 192.016, 36.764 192.036 C 35.031 192.085, 30.798 195.843, 28.156 199.678 C 26.952 201.426, 24.453 203.355, 22.604 203.966 C 17.950 205.502, 16.047 207.879, 16.715 211.324 C 17.361 214.660, 20.949 216.390, 25.259 215.443 C 26.860 215.092, 30.251 212.810, 32.795 210.372 C 37.129 206.219, 37.679 205.979, 41.545 206.559 C 45.297 207.122, 46.013 206.854, 49.475 203.589 C 51.567 201.615, 53.733 200, 54.287 200 C 54.841 200, 57.295 198.360, 59.741 196.356 C 62.187 194.352, 67.183 190.676, 70.844 188.188 C 74.505 185.700, 77.860 183.065, 78.300 182.332 C 79.249 180.751, 83 180.535, 83 182.062 C 83 182.646, 84.161 185.683, 85.581 188.812 C 89.511 197.474, 89.793 198.238, 90.439 201.976 C 91.281 206.843, 94.836 213.842, 97.074 215.040 C 98.528 215.818, 99.421 215.579, 101.015 213.985 C 103.464 211.536, 103.133 208.318, 99.315 197.500 C 97.957 193.650, 96.422 188.700, 95.905 186.500 C 95.387 184.300, 94.578 181.600, 94.107 180.500 C 91.519 174.466, 91 172.561, 91 169.101 C 91 163.925, 87.361 158.606, 83.517 158.164 C 79.905 157.749, 78 160.056, 78 164.846 C 78 167.556, 77.175 169.092, 74.210 171.905 C 70.438 175.482, 56.968 185, 55.677 185 C 54.662 185, 54.862 181.204, 55.911 180.555 C 56.411 180.246, 57.140 176.163, 57.530 171.481 C 57.920 166.800, 58.635 162.725, 59.120 162.426 C 59.604 162.127, 60 160.327, 60 158.427 C 60 156.527, 60.450 154.079, 61 152.986 C 61.550 151.894, 62.450 150.106, 63 149.014 C 63.550 147.921, 64 146.148, 64 145.073 C 64 143.998, 64.450 142.840, 65 142.500 C 65.550 142.160, 66 140.810, 66 139.500 C 66 138.190, 66.415 136.862, 66.921 136.549 C 67.428 136.235, 69.882 131.759, 72.374 126.601 C 77.868 115.232, 78.602 109.717, 74.983 106.987 C 71.391 104.278, 67.445 103.820, 63.578 105.664 C 59.731 107.499, 57 106.920, 57 104.271 C 57 101.923, 52.396 97, 50.200 97 C 49.255 97, 47.960 97.834, 47.324 98.853 M 175 101.057 C 166.144 103.036, 161.023 105.040, 151.645 110.195 C 147.838 112.288, 144.529 114, 144.292 114 C 144.054 114, 141.979 115.288, 139.680 116.863 C 137.381 118.438, 134.527 120.030, 133.338 120.403 C 131.355 121.023, 128.654 122.879, 120.542 129.196 C 116.979 131.971, 113.199 134, 111.594 134 C 110.946 134, 108.410 131.940, 105.958 129.423 C 98.814 122.089, 90.014 118.868, 87.011 122.487 C 84.123 125.967, 88.347 132.209, 94.758 133.935 C 97.312 134.623, 99.918 136.467, 102.450 139.379 C 107.148 144.783, 111.404 145.855, 116.941 143.030 C 118.972 141.994, 121.221 140.438, 121.939 139.573 C 122.657 138.708, 123.778 138, 124.429 138 C 125.080 138, 128.737 135.807, 132.556 133.127 C 138.745 128.784, 143.623 125.899, 153.500 120.741 C 158.903 117.919, 173.851 112, 175.574 112 C 176.985 112, 177.176 112.747, 176.744 116.575 C 176.147 121.874, 177.565 123.106, 181.710 120.888 C 187.926 117.561, 191.453 105.416, 187.250 101.807 C 184.426 99.381, 182.909 99.288, 175 101.057 M 60.552 118.250 C 60.340 118.938, 59.899 121.412, 59.572 123.750 C 59.059 127.411, 59.229 128, 60.796 128 C 62.645 128, 66 121.982, 66 118.664 C 66 116.677, 61.150 116.308, 60.552 118.250 M 45.200 127.200 C 43.525 128.875, 43.650 129.845, 46.233 135.211 C 49.899 142.828, 52.455 140.641, 51.299 130.878 C 50.807 126.724, 50.401 126, 48.561 126 C 47.372 126, 45.860 126.540, 45.200 127.200 M 148.651 130.033 C 146.533 131.625, 142.933 134.649, 140.651 136.751 C 133.821 143.041, 125.469 148.822, 121.875 149.747 C 119.248 150.423, 118.431 151.201, 118.188 153.258 C 117.365 160.242, 122.881 162.018, 130.200 157.126 C 132.565 155.545, 135.534 153.933, 136.798 153.543 C 139.095 152.835, 139.095 152.836, 137.513 156.622 C 135.312 161.892, 129.223 169.715, 118.846 180.608 C 113.981 185.715, 110 190.277, 110 190.747 C 110 193.709, 116.222 195.197, 117.700 192.588 C 118.140 191.812, 120.862 189.299, 123.750 187.003 C 126.638 184.708, 129 182.355, 129 181.775 C 129 181.195, 129.787 180.123, 130.750 179.392 C 132.564 178.015, 136 177.521, 136 178.637 C 136 178.988, 133.955 182.379, 131.454 186.174 C 128.954 189.969, 126.625 193.845, 126.278 194.787 C 125.931 195.729, 124.656 197.850, 123.444 199.500 C 122.232 201.150, 120.646 204.188, 119.920 206.250 C 119.193 208.313, 118.269 210, 117.866 210 C 117.464 210, 116.824 211.012, 116.443 212.250 C 116.063 213.488, 114.082 217.875, 112.041 222 C 107.157 231.873, 106.563 234.420, 108.657 236.514 C 109.631 237.488, 111.292 237.986, 112.682 237.721 C 116.354 237.019, 116.453 238.705, 113.010 243.292 C 111.273 245.606, 107.297 250.914, 104.175 255.086 C 92.077 271.256, 86.999 276, 81.787 276 C 78.814 276, 75.522 279.313, 76.351 281.471 C 76.677 282.322, 78.105 283.546, 79.524 284.193 C 81.752 285.208, 82.852 284.977, 87.588 282.499 C 93.028 279.653, 107.709 265.533, 111.571 259.433 C 112.592 257.820, 114.830 254.700, 116.544 252.500 C 118.258 250.300, 120.433 246.813, 121.377 244.750 C 123.084 241.022, 126 239.615, 126 242.520 C 126 243.356, 127.741 247.744, 129.869 252.270 C 131.997 256.797, 133.982 261.218, 134.279 262.096 C 134.576 262.973, 136.997 265.147, 139.659 266.925 C 146.498 271.492, 150.969 270.879, 156.521 264.613 C 160.221 260.437, 168 243.611, 168 239.784 C 168 239.023, 168.372 237.973, 168.826 237.450 C 171.274 234.635, 173.060 223.871, 173.136 211.468 C 173.178 204.572, 173.560 201.722, 174.490 201.366 C 175.769 200.875, 189.662 208.211, 199.649 214.652 C 202.481 216.478, 205.888 218.387, 207.221 218.894 C 211.677 220.588, 233.114 238.882, 242.937 249.374 C 245.447 252.054, 249.525 256.338, 252 258.892 C 257.484 264.553, 273 283.753, 273 284.878 C 273 286.516, 276.891 289.186, 278.187 288.438 C 280.310 287.212, 284.942 282.574, 284.972 281.644 C 285.014 280.350, 279.407 273.432, 271.020 264.428 C 266.884 259.989, 262.150 254.697, 260.500 252.668 C 257.204 248.617, 245.712 237.159, 239.635 231.866 C 237.510 230.015, 233.685 226.652, 231.135 224.393 C 228.586 222.134, 223.739 218.417, 220.364 216.133 C 216.990 213.849, 213.672 211.310, 212.992 210.490 C 212.312 209.671, 211.329 209, 210.808 209 C 210.287 209, 207.978 207.705, 205.678 206.123 C 203.378 204.540, 196.097 200.479, 189.498 197.098 C 182.899 193.718, 176.725 190.516, 175.778 189.985 C 173.893 188.927, 174.414 186, 176.487 186 C 177.186 186, 179.492 183.863, 181.610 181.250 C 183.729 178.637, 189.499 172.319, 194.434 167.209 C 203.413 157.911, 207.917 152.029, 210.108 146.740 C 211.132 144.268, 210.991 143.620, 208.963 141.461 C 205.392 137.660, 202.773 138.274, 199.198 143.750 C 190.847 156.543, 170.376 180, 167.563 180 C 166.742 180, 165.571 179.067, 164.961 177.927 C 164.350 176.786, 162.081 174.136, 159.918 172.037 C 155.727 167.969, 150.923 166.419, 145.916 167.518 C 142.101 168.356, 142.089 166.572, 145.880 162.136 C 147.461 160.286, 149.304 156.911, 149.974 154.636 C 151.457 149.604, 151.491 149.542, 156.643 142.173 C 162.044 134.450, 162.913 130.753, 159.836 128.597 C 156.535 126.286, 153.034 126.735, 148.651 130.033 M 145.970 179.750 C 142.644 185.773, 139.758 189.931, 135.750 194.473 C 133.688 196.811, 132 199.222, 132 199.831 C 132 201.181, 128.322 208.519, 125.824 212.154 C 124.821 213.614, 124 215.822, 124 217.060 C 124 218.298, 122.972 220.704, 121.716 222.406 C 118.687 226.509, 117 230.525, 117 233.630 C 117 236.482, 118.757 236.424, 120.429 233.517 C 121.018 232.492, 125.213 225.910, 129.750 218.890 C 134.287 211.870, 138 205.639, 138 205.044 C 138 204.448, 139.144 202.147, 140.543 199.932 C 141.942 197.716, 143.527 194.745, 144.065 193.330 C 144.603 191.914, 146.894 188.118, 149.156 184.893 C 152.577 180.016, 153.058 178.774, 152.012 177.515 C 149.988 175.076, 148.182 175.744, 145.970 179.750 M 155.082 193.368 C 153.937 195.220, 153 197.012, 153 197.349 C 153 197.686, 151.425 200.423, 149.500 203.433 C 147.575 206.442, 146 209.428, 146 210.068 C 146 210.708, 144.482 213.317, 142.627 215.866 C 140.771 218.415, 138.941 221.513, 138.559 222.751 C 138.177 223.989, 136.370 226.142, 134.542 227.536 C 132.715 228.929, 130.983 231.292, 130.693 232.785 C 130.118 235.747, 132.863 242.033, 137.977 249.467 C 139.640 251.883, 141 254.497, 141 255.275 C 141 257.340, 144.311 260, 146.881 260 C 148.442 260, 149.409 259.125, 150.128 257.062 C 150.692 255.446, 152.036 252.408, 153.117 250.312 C 154.893 246.864, 157.008 240.941, 161.083 228 C 163.106 221.576, 162.778 198.831, 160.589 193.750 C 159.700 191.688, 158.566 190, 158.068 190 C 157.570 190, 156.226 191.516, 155.082 193.368" stroke="none" fill="black" fill-rule="evenodd"/>
</svg>