<svg xmlns="http://www.w3.org/2000/svg" width="300" height="300" viewBox="0 0 300 300" version="1.1">
	<path d="M 142.500 63.574 C 139.200 64.366, 134.048 65.500, 131.052 66.094 C 124.072 67.478, 118.051 69.811, 115.448 72.140 C 113.679 73.724, 112.959 73.811, 110.212 72.774 C 104.920 70.776, 104.516 72, 104.863 88.975 C 105.127 101.886, 104.926 104.317, 103.378 106.938 C 101.637 109.885, 101.644 110.047, 103.642 112.735 C 106.172 116.139, 109.685 116.660, 116.053 114.578 C 124.194 111.915, 123.977 111.683, 124.177 123.250 C 124.383 135.155, 124.055 145.816, 123.414 148.093 C 122.766 150.391, 113.684 156, 110.610 156 C 108.131 156, 107.992 155.724, 107.850 150.500 C 107.767 147.475, 107.655 144.479, 107.600 143.843 C 107.545 143.207, 109.525 142.025, 112 141.217 C 118.677 139.039, 119.409 138.549, 120.480 135.542 C 121.313 133.202, 121.110 132.508, 119.119 130.895 C 117.832 129.853, 115.783 129, 114.567 129 C 108.092 129, 96 136.110, 96 139.918 C 96 140.893, 96.958 142.547, 98.129 143.595 C 100.196 145.444, 100.244 146.050, 99.738 164.298 C 99.103 187.203, 98.690 186.501, 111.770 184.749 C 118.050 183.907, 120.324 183.924, 121.219 184.819 C 122.125 185.725, 121.977 189.373, 120.581 200.533 C 119.582 208.527, 118.720 220.790, 118.666 227.784 C 118.546 243.411, 119.810 246.385, 129.140 252.426 C 137.447 257.805, 142.673 258.959, 163.500 260.017 C 193.796 261.556, 204.114 261.317, 210.213 258.935 C 220.365 254.971, 229.012 242.715, 230.461 230.240 C 231.155 224.263, 229.707 217.714, 226.904 214.150 C 225.857 212.819, 225 210.660, 225 209.352 C 225 208.043, 224.598 206.191, 224.108 205.236 C 223.617 204.281, 222.726 202.262, 222.129 200.750 C 221.515 199.194, 220.274 198, 219.271 197.999 C 217.758 197.999, 217.550 198.762, 217.842 203.249 C 218.030 206.137, 218.593 208.928, 219.092 209.450 C 220.264 210.677, 220.279 232.482, 219.110 234.764 C 218.620 235.719, 217.383 238.431, 216.360 240.791 C 215.131 243.625, 212.972 246.124, 210 248.152 L 205.500 251.223 180.971 250.655 C 144.798 249.817, 133.913 247.661, 129.191 240.400 C 126.934 236.927, 126.894 236.425, 127.377 217.674 C 127.950 195.456, 129.047 182.886, 130.585 180.901 C 131.229 180.069, 131.712 174.017, 131.773 166.005 C 131.876 152.609, 131.896 152.494, 134.566 150.366 C 137.433 148.080, 137.135 146, 133.941 146 C 132.080 146, 131.999 145.102, 131.968 124.250 C 131.943 106.711, 131.652 102.124, 130.468 100.559 C 128.513 97.974, 128.513 85.410, 130.468 80.731 C 131.824 77.487, 135.709 74.994, 139.399 75.002 C 140.159 75.004, 140.500 80.506, 140.500 92.752 C 140.500 102.514, 141.037 114.775, 141.694 120 C 143.429 133.802, 143.779 174.879, 142.187 177.740 C 141.157 179.591, 141.217 180.402, 142.538 182.417 C 143.843 184.410, 145.265 184.974, 150.318 185.504 C 158.115 186.322, 172.180 184.583, 175.531 182.388 C 176.934 181.469, 178.513 179.910, 179.041 178.924 C 180.677 175.866, 180.241 145.511, 178.500 141.346 C 177.675 139.371, 177 136.561, 177 135.101 C 177 133.559, 175.766 131.095, 174.056 129.223 C 171.520 126.446, 170.448 126.001, 166.306 126.005 C 162.360 126.008, 160.934 126.540, 158.336 128.975 C 154.859 132.234, 153.117 137.517, 154.924 139.324 C 156.063 140.463, 156.509 140.288, 162.713 136.256 C 164.745 134.936, 165.135 135.043, 167.463 137.555 C 170.679 141.025, 170.966 146, 167.950 146 C 165.192 146, 161.007 148.267, 158.183 151.291 C 156.418 153.180, 155.941 154.691, 156.183 157.628 C 156.599 162.687, 158.952 163.128, 163.627 159.022 C 165.792 157.122, 168.046 156.008, 169.349 156.193 C 171.325 156.475, 171.524 157.175, 171.791 164.806 C 172.059 172.428, 171.894 173.270, 169.791 175.023 C 167.420 177, 159.263 177.574, 154.091 176.127 C 151.236 175.328, 151.326 176.567, 151.104 135.021 C 150.957 107.545, 150.957 107.541, 153.228 105.793 C 154.478 104.831, 155.882 104.034, 156.349 104.022 C 159.760 103.933, 164.102 100.305, 166.923 95.186 C 168.647 92.059, 170.430 88.825, 170.887 88 C 174.187 82.031, 175 79.726, 174.996 76.346 C 174.992 71.924, 172.246 66.863, 168.530 64.428 C 165.034 62.137, 150.476 61.660, 142.500 63.574 M 145.670 73.663 C 145.306 74.028, 146.397 75.171, 148.095 76.204 C 150.440 77.630, 150.987 78.493, 150.367 79.791 C 149.919 80.731, 149.541 84.867, 149.526 88.983 C 149.505 94.959, 149.812 96.526, 151.050 96.768 C 153.830 97.309, 159.220 92.617, 162.141 87.112 C 165.527 80.729, 165.894 75.549, 163.066 74.035 C 160.947 72.901, 146.736 72.597, 145.670 73.663 M 113.380 78.452 C 113.074 79.251, 113.138 80.414, 113.523 81.037 C 113.908 81.660, 114.367 86.624, 114.542 92.068 C 114.889 102.853, 115.215 104, 117.937 104 C 121.476 104, 122.001 101.843, 121.328 90.080 C 120.717 79.388, 120.565 78.785, 118.277 77.915 C 114.971 76.658, 114.029 76.761, 113.380 78.452 M 54.200 121.200 C 53.540 121.860, 53 124.326, 53 126.680 C 53 130.618, 52.701 131.112, 49.250 132.873 C 44.465 135.315, 41.786 138.278, 42.553 140.278 C 43.465 142.654, 45.888 143.170, 49.684 141.797 C 52.491 140.782, 53.261 140.804, 53.948 141.915 C 55.327 144.148, 56.331 160.069, 55.165 161.235 C 53.540 162.860, 51.117 161.349, 50.450 158.293 C 49.175 152.451, 45.546 146.784, 41.141 143.753 C 38.694 142.069, 35.968 139.968, 35.083 139.083 C 31.705 135.705, 26.870 132.836, 25.465 133.375 C 21.219 135.004, 26.078 142.699, 36.027 150.103 C 37.950 151.534, 40.771 155.134, 42.296 158.103 C 45.748 164.824, 47.723 167.153, 51.338 168.769 C 54.076 169.992, 54.158 170.239, 53.679 175.769 C 52.824 185.634, 50.702 193.743, 47.156 200.695 C 45.102 204.721, 45.094 204.895, 46.875 207.094 C 48.925 209.626, 48.092 209.921, 58.624 202.925 C 60.756 201.509, 64.054 199.484, 65.954 198.425 C 70.491 195.897, 76.177 192.301, 77.778 190.948 C 80.191 188.910, 83.416 190.362, 85.665 194.500 C 86.861 196.700, 87.875 199.422, 87.919 200.550 C 87.964 201.677, 88.404 203.027, 88.898 203.550 C 89.391 204.072, 90.029 206.300, 90.315 208.500 C 91.735 219.433, 95.550 226.448, 98.668 223.861 C 100.244 222.553, 100.520 211.439, 99 210.500 C 98.450 210.160, 98 207.910, 98 205.500 C 98 203.090, 97.550 200.840, 97 200.500 C 96.450 200.160, 96 198.870, 96 197.632 C 96 196.395, 95.339 194.509, 94.532 193.441 C 93.724 192.374, 93.049 190.825, 93.031 190 C 92.968 187.074, 85.459 173.623, 82.796 171.666 C 80.525 169.996, 79.839 169.889, 78.508 170.993 C 77.319 171.980, 77.077 173.331, 77.538 176.408 C 78.060 179.886, 77.800 180.817, 75.827 182.548 C 73.581 184.517, 62.367 188.757, 61.634 187.913 C 60.739 186.883, 60.287 178.941, 61.095 178.441 C 61.593 178.134, 62 176.360, 62 174.500 C 62 172.640, 62.391 170.876, 62.869 170.581 C 63.346 170.286, 64.016 168.304, 64.356 166.177 C 64.824 163.246, 66.456 160.759, 71.094 155.905 C 78.559 148.093, 80.991 144.361, 80.996 140.715 C 80.998 139.183, 81.687 136.881, 82.527 135.600 C 84.450 132.664, 83.195 128.829, 79.524 126.423 C 77.588 125.155, 75.919 124.917, 72.729 125.456 C 61.560 127.340, 62 127.347, 62 125.264 C 62 121.361, 56.766 118.634, 54.200 121.200 M 66.571 136.571 C 64.541 138.602, 64.355 148, 66.345 148 C 69.040 148, 74.387 139.173, 73.342 136.449 C 72.604 134.526, 68.543 134.600, 66.571 136.571 M 119.500 161.703 C 110.058 166.187, 108.500 167.513, 108.500 171.067 L 108.500 174.500 114.601 174.496 C 122.585 174.492, 124 173.278, 124 166.437 C 124 163.511, 123.662 160.929, 123.250 160.699 C 122.838 160.468, 121.150 160.920, 119.500 161.703" stroke="none" fill="black" fill-rule="evenodd"/>
</svg>