<svg xmlns="http://www.w3.org/2000/svg" width="300" height="300" viewBox="0 0 300 300" version="1.1">
	<path d="M 96.667 40.667 C 95.515 41.818, 95.940 47.794, 97.417 51.216 C 103 64.149, 104.993 98.405, 102.517 138.864 C 101.895 149.021, 102.555 151, 106.563 151 C 107.839 151, 109.160 151.450, 109.500 152 C 109.840 152.550, 111.198 153, 112.519 153 C 115.570 153, 129.857 145.464, 132.500 142.461 C 134.842 139.800, 138.338 137.892, 142.405 137.055 C 144.002 136.726, 145.646 135.792, 146.058 134.979 C 150.072 127.055, 150.686 70.814, 146.914 56.631 C 144.228 46.531, 136.446 42.233, 126.514 45.364 C 119.595 47.545, 118 50.005, 118 58.496 C 118 63.688, 118.347 65.196, 119.658 65.699 C 121.475 66.396, 126 61.950, 126 59.467 C 126 58.686, 127.142 57.298, 128.537 56.384 C 130.958 54.798, 131.185 54.825, 133.485 56.986 C 134.811 58.232, 136.179 60.539, 136.525 62.114 C 136.871 63.689, 137.569 65.234, 138.077 65.548 C 138.585 65.861, 139 68.581, 139 71.590 C 139 77.679, 137.274 79.463, 134.134 76.621 C 131.393 74.141, 129.502 74.653, 126.404 78.714 C 124.846 80.757, 122.976 83.120, 122.249 83.964 C 117.205 89.823, 115.887 92.161, 116.181 94.726 C 116.445 97.020, 117.043 97.553, 119.636 97.805 C 123.730 98.203, 128.219 95.408, 133.234 89.339 C 135.434 86.678, 137.743 84.500, 138.367 84.500 C 139.805 84.500, 140.223 96.026, 138.845 97.687 C 138.300 98.344, 137.299 98.668, 136.621 98.408 C 135.942 98.148, 133.613 99.296, 131.444 100.960 C 123.246 107.250, 119.477 109.314, 116.023 109.406 L 112.500 109.500 112.781 100 C 113.068 90.331, 113.048 87.646, 112.583 73.500 C 112.332 65.874, 112.070 64.084, 110.016 56 C 109.526 54.075, 108.564 50.250, 107.877 47.500 C 107.189 44.750, 105.923 41.952, 105.063 41.282 C 103.388 39.977, 97.768 39.565, 96.667 40.667 M 52.200 57.200 C 49.462 59.938, 50.872 62.838, 56.945 66.963 C 60.215 69.183, 63.797 71, 64.906 71 C 66.929 71, 71 67.446, 71 65.680 C 71 65.161, 69.034 62.771, 66.632 60.368 C 62.788 56.525, 61.731 56, 57.832 56 C 55.394 56, 52.860 56.540, 52.200 57.200 M 56.924 92.611 C 54.246 95.497, 45.437 101.667, 40 104.467 C 38.075 105.458, 33.350 106.546, 29.500 106.884 C 22.724 107.480, 22.490 107.591, 22.175 110.338 C 21.652 114.910, 24.532 117.257, 29.978 116.698 C 36.935 115.985, 41.973 114.374, 44.411 112.084 C 46.944 109.704, 51 109.295, 51 111.419 C 51 112.199, 50.354 114.112, 49.564 115.669 C 48.774 117.226, 46.793 121.425, 45.162 125 C 37.518 141.753, 33.468 149.068, 27.999 156 C 24.745 160.125, 22.064 163.879, 22.041 164.342 C 22.019 164.806, 21.100 166.329, 20 167.727 C 18.900 169.126, 18 171.489, 18 172.980 C 18 175.599, 20.622 179, 22.642 179 C 24.418 179, 28.853 173.589, 30.935 168.882 C 32.058 166.342, 33.657 163.700, 34.488 163.010 C 35.320 162.320, 36 160.989, 36 160.052 C 36 157.879, 40.515 153.582, 41.899 154.438 C 42.475 154.794, 43.707 156.688, 44.637 158.646 C 46.072 161.671, 46.139 162.728, 45.081 165.652 C 44.194 168.105, 44.142 169.466, 44.900 170.380 C 45.656 171.290, 45.617 173.322, 44.767 177.377 C 43.450 183.652, 44.244 186.279, 47.609 186.788 C 51.591 187.389, 53.200 184.840, 53.194 177.940 C 53.191 174.398, 53.622 170.973, 54.151 170.329 C 54.777 169.568, 54.557 166.462, 53.521 161.446 C 51.733 152.792, 50.538 150, 48.620 150 C 47.899 150, 46.495 149.100, 45.500 148 C 43.813 146.136, 43.802 145.876, 45.345 144.171 C 46.255 143.165, 47 141.867, 47 141.286 C 47 140.115, 48.458 137.288, 51.788 132 C 53.001 130.075, 53.994 127.745, 53.996 126.821 C 53.998 125.898, 54.654 124.489, 55.453 123.690 C 57.014 122.129, 65 105.845, 65 104.223 C 65 103.685, 65.675 102.685, 66.500 102 C 68.816 100.078, 68.370 94.696, 65.686 92.174 C 62.619 89.293, 59.878 89.430, 56.924 92.611 M 132.008 112.619 C 129.537 113.978, 126.277 116.276, 124.763 117.727 C 123.055 119.364, 120.420 120.580, 117.817 120.932 C 114.091 121.437, 113.529 121.868, 112.769 124.804 C 112.299 126.622, 112.046 131.342, 112.207 135.294 C 112.570 144.188, 114.041 144.892, 120.646 139.332 C 123.150 137.225, 126.449 134.600, 127.978 133.500 C 129.507 132.400, 132.467 129.558, 134.555 127.184 C 137.593 123.731, 138.506 121.735, 139.121 117.208 C 139.667 113.180, 139.544 111.330, 138.694 110.790 C 137.119 109.788, 137.191 109.768, 132.008 112.619 M 215.847 128.180 C 215.430 139.919, 216.930 149.530, 220.890 160.500 C 223.857 168.720, 227.911 184.143, 229.902 194.785 C 231.182 201.627, 228.904 206.093, 223.245 207.838 C 217.044 209.750, 199.739 211.130, 181.394 211.175 C 166.115 211.213, 163.577 210.983, 159.791 209.216 C 157.431 208.114, 154.150 206.910, 152.500 206.539 C 145.067 204.868, 143.020 201.587, 141.869 189.500 C 140.811 178.385, 139.324 167.063, 138.456 163.500 C 137.418 159.246, 136.163 158, 132.913 158 C 127.781 158, 127.091 161.868, 130.059 174 C 130.664 176.475, 131.568 183.450, 132.066 189.500 C 133.101 202.057, 134.374 207.388, 137.198 210.981 C 139.210 213.543, 145.250 217, 147.714 217 C 148.460 217, 150.145 217.704, 151.459 218.565 C 155.628 221.297, 165.902 222.391, 186 222.245 C 209.002 222.077, 214.243 221.712, 223.230 219.654 C 236.073 216.713, 240.120 213.355, 241.441 204.544 C 242.120 200.015, 239.759 186.352, 237.545 182 C 235.814 178.600, 232.985 170.364, 231.876 165.500 C 231.375 163.300, 230.462 160.375, 229.848 159 C 226.903 152.401, 222.275 136.702, 221.300 130 C 220.624 125.350, 220.152 124.451, 218.250 124.180 C 216.233 123.894, 215.984 124.309, 215.847 128.180 M 69.388 139.980 C 66.801 141.025, 62.824 145.906, 63.573 147.118 C 63.873 147.603, 64.862 148, 65.771 148 C 66.680 148, 69.349 149.889, 71.701 152.197 C 75.504 155.930, 76.275 156.289, 78.667 155.447 C 82.969 153.932, 83.434 149.899, 79.874 144.985 C 77.577 141.814, 73.101 138.578, 71.685 139.063 C 71.583 139.098, 70.550 139.511, 69.388 139.980 M 110.203 172.099 C 103.974 183.433, 93.653 196.449, 81.284 208.570 C 71.912 217.754, 71.061 220.190, 75.960 223.812 C 79.696 226.574, 80.591 226.554, 82.484 223.665 C 83.325 222.381, 85.059 220.771, 86.337 220.087 C 87.616 219.403, 89.402 217.641, 90.307 216.172 C 91.212 214.702, 94.674 210.575, 98.001 207 C 101.327 203.425, 105.253 198.700, 106.724 196.500 C 108.196 194.300, 110.223 191.557, 111.229 190.405 C 113.821 187.436, 116.876 181.176, 117.589 177.375 C 118.022 175.070, 117.664 173.406, 116.348 171.600 C 113.891 168.226, 112.259 168.359, 110.203 172.099" stroke="none" fill="black" fill-rule="evenodd"/>
</svg>