<svg xmlns="http://www.w3.org/2000/svg" width="300" height="300" viewBox="0 0 300 300" version="1.1">
	<path d="M 51.607 64.582 C 50.621 67.152, 50.912 70.827, 52.163 71.601 C 52.802 71.996, 54.706 72.602, 56.394 72.947 C 58.924 73.464, 59.733 74.356, 61.009 78.037 C 62.916 83.540, 65.755 84.399, 68.885 80.420 C 71.715 76.821, 71.550 73.283, 68.326 68.482 C 64.794 63.222, 64.431 63.033, 57.857 63.015 C 53.624 63.004, 52.062 63.395, 51.607 64.582 M 99.961 67.546 C 98.945 68.771, 98.919 70.139, 99.839 74.123 C 100.478 76.889, 101 80.498, 101 82.142 C 101 83.786, 101.496 86.058, 102.102 87.191 C 103.586 89.964, 100.414 92.956, 92.824 95.940 C 86.539 98.412, 85.118 100.368, 87.609 103.120 C 89.753 105.489, 97.839 104.881, 102.501 101.999 C 104.280 100.900, 106.625 100, 107.711 100 C 108.797 100, 111.669 98.940, 114.093 97.644 C 118.268 95.412, 118.484 95.083, 118.194 91.394 C 117.868 87.245, 115.036 84.063, 111.633 84.022 C 110.148 84.005, 109.918 83.540, 110.505 81.750 C 113.469 72.715, 110.930 66, 104.550 66 C 102.732 66, 100.667 66.696, 99.961 67.546 M 143.622 69.454 C 142.396 71.325, 142.250 72.528, 143.007 74.519 C 143.553 75.955, 144 78.535, 144 80.251 C 144 81.968, 144.675 86.101, 145.500 89.436 C 147.860 98.983, 149.745 138.466, 149.267 168.378 C 148.895 191.693, 149.045 195.420, 150.443 197.554 C 151.404 199.019, 153.004 200, 154.436 200 C 156.681 200, 156.763 200.198, 155.780 203.250 C 155.204 205.037, 154.338 207.175, 153.854 208 C 151.749 211.591, 148.878 218.588, 148.114 221.989 C 147.377 225.267, 139.059 236.971, 136.853 237.833 C 136.384 238.017, 136 238.747, 136 239.457 C 136 241.351, 131.324 249.397, 129.002 251.498 C 126.536 253.730, 126.452 256.875, 128.750 260.913 C 131.465 265.683, 134.283 265.025, 138.348 258.671 C 140.223 255.739, 142.067 252.364, 142.446 251.169 C 142.825 249.975, 143.999 248.536, 145.055 247.970 C 147.316 246.761, 152.784 238.464, 156.324 230.873 C 161.614 219.527, 162.844 216.268, 164.545 209.076 L 166.301 201.652 163.463 199.388 L 160.624 197.125 164.562 192.462 C 166.728 189.897, 170.796 185.481, 173.603 182.649 C 176.410 179.817, 179.499 176.263, 180.468 174.750 C 181.716 172.802, 183.064 172, 185.089 172 C 191.388 172, 192.357 163.657, 190.488 125.500 C 190.030 116.150, 189.584 105.800, 189.497 102.500 C 189.346 96.772, 188.068 88.973, 186.219 82.500 C 184.179 75.356, 172.611 73.009, 165.642 78.324 C 161.845 81.220, 161 84.010, 161 93.656 C 161 98.508, 160.626 100.206, 159.457 100.655 C 158.608 100.981, 157.683 101.016, 157.400 100.734 C 156.909 100.242, 155.777 91.293, 154.362 76.702 C 153.850 71.428, 153.237 69.579, 151.628 68.452 C 148.550 66.296, 145.436 66.686, 143.622 69.454 M 171.042 90.389 C 170.543 91.703, 168.808 94.290, 167.186 96.139 C 165.565 97.988, 164.070 100.380, 163.864 101.456 C 163.655 102.547, 162.386 103.675, 160.995 104.005 C 158.608 104.573, 158.498 104.931, 158.454 112.299 C 158.403 121.063, 159.932 122.412, 163.500 116.748 C 164.600 115.002, 166.686 112.908, 168.135 112.096 C 170.497 110.772, 171.040 110.796, 173.385 112.333 C 175.506 113.723, 176 114.826, 176 118.177 C 176 121.741, 175.429 122.834, 171.834 126.154 C 167.216 130.417, 163.682 131.065, 161.768 128 C 161.081 126.900, 160.177 126, 159.759 126 C 159.342 126, 159 131.400, 159 138 C 159 148, 159.250 150, 160.500 150 C 161.325 150, 162.019 149.662, 162.043 149.250 C 162.172 147.022, 172.005 137.763, 175.529 136.551 C 180.470 134.852, 180.960 132.921, 179.870 119.433 C 177.560 90.859, 176.968 88, 173.353 88 C 172.582 88, 171.542 89.075, 171.042 90.389 M 105 108.132 C 103.625 108.685, 99.800 108.994, 96.500 108.818 L 90.500 108.500 90.666 113.296 C 90.857 118.824, 92.257 121, 95.622 121 C 96.949 121, 98 121.595, 98 122.346 C 98 123.792, 95.069 130.173, 94.026 131 C 93.679 131.275, 91.465 134.278, 89.106 137.674 C 84.158 144.797, 84.241 147.194, 89.523 149.713 C 92.610 151.184, 93.076 151.180, 95.403 149.656 C 96.793 148.745, 99.092 148, 100.513 148 C 103.045 148, 103.090 148.121, 102.798 154.231 L 102.500 160.462 97.347 163.181 C 90.898 166.584, 73.367 172.345, 72.011 171.507 C 71.455 171.163, 71 169.874, 71 168.641 C 71 163.137, 63.374 162.146, 58.583 167.028 C 56.979 168.663, 55.371 170, 55.011 170 C 54.650 170, 53.343 172.025, 52.107 174.500 C 49.572 179.576, 48.172 180.062, 46 176.620 C 45.175 175.312, 43.199 172.296, 41.608 169.916 C 38.989 165.998, 38.831 165.303, 39.939 162.545 C 40.611 160.870, 41.580 158.095, 42.093 156.377 C 42.605 154.660, 44.818 151.216, 47.012 148.724 C 49.205 146.232, 51 143.791, 51 143.299 C 51 142.808, 52.836 140.627, 55.079 138.453 C 59.228 134.432, 63 127.994, 63 124.935 C 63 124.005, 63.675 122.685, 64.500 122 C 66.685 120.187, 66.469 112.734, 64.171 110.655 C 63.165 109.745, 61.478 109, 60.421 109.001 C 57.323 109.001, 48.059 112.859, 42.576 116.431 C 33.590 122.286, 28.377 125, 26.117 125 C 21.045 125, 17.423 132.186, 20.035 137.066 C 21.592 139.974, 22.561 139.757, 34.236 133.875 C 35.191 133.394, 36.509 133, 37.163 133 C 37.818 133, 40.749 131.350, 43.677 129.334 C 46.605 127.317, 49.305 125.972, 49.678 126.345 C 50.468 127.134, 46.707 134.235, 43.332 138.327 C 42.049 139.881, 41 141.739, 41 142.454 C 41 143.170, 40.255 144.373, 39.345 145.128 C 38.435 145.882, 37.081 147.850, 36.336 149.500 C 35.591 151.150, 34.127 153.625, 33.084 155 C 29.983 159.083, 22 171.666, 22 172.468 C 22 172.877, 20.875 174.548, 19.500 176.182 C 18.125 177.816, 17 180.217, 17 181.518 C 17 182.818, 16.550 184.160, 16 184.500 C 15.450 184.840, 15 186.426, 15 188.024 C 15 193.484, 22.720 194.928, 24.103 189.726 C 24.508 188.200, 26.113 185.668, 27.670 184.098 C 29.226 182.528, 31.103 180.490, 31.839 179.568 C 33.986 176.884, 35.460 178.292, 36.038 183.579 C 36.334 186.286, 37.121 189.483, 37.788 190.684 C 38.455 191.886, 39 194.953, 39 197.500 C 39 200.047, 39.392 202.889, 39.871 203.816 C 40.873 205.751, 38.688 232.881, 37.159 237.500 C 35.533 242.411, 34.880 251.907, 36.022 254.041 C 37.464 256.735, 39.155 256.501, 43.094 253.062 C 46.348 250.221, 46.485 249.801, 47.233 240.312 C 47.659 234.915, 48.601 224.650, 49.326 217.500 C 50.223 208.650, 50.327 203.773, 49.649 202.223 C 47.878 198.170, 50.026 197.920, 59.004 201.135 C 70.486 205.247, 74.889 205.720, 78.027 203.179 L 80.482 201.191 76.718 197.641 C 74.648 195.688, 70.271 193.112, 66.993 191.917 C 59.288 189.108, 58.566 188.191, 60.674 183.900 C 63.375 178.400, 65.425 177.644, 67.182 181.500 C 67.808 182.875, 68.928 184, 69.669 184 C 70.410 184, 77.165 181.956, 84.679 179.459 C 102.163 173.647, 104.140 174.195, 97.446 183 C 95.564 185.475, 91.945 190.650, 89.404 194.500 C 86.863 198.350, 81.220 206.900, 76.864 213.500 C 65.430 230.825, 63.266 233.695, 59.435 236.618 C 55.192 239.853, 54.625 244.923, 58.223 247.443 C 62.228 250.249, 64.631 249.403, 68.968 243.659 C 71.185 240.722, 73 237.885, 73 237.355 C 73 236.826, 74.575 234.866, 76.500 233 C 78.425 231.134, 80 228.626, 80 227.426 C 80 226.227, 80.675 224.685, 81.500 224 C 82.325 223.315, 83 222.240, 83 221.610 C 83 220.981, 85.025 218.151, 87.500 215.321 C 89.975 212.492, 92 209.842, 92 209.433 C 92 209.024, 93.148 207.184, 94.551 205.344 C 96.389 202.935, 97.896 202, 99.944 202 C 101.507 202, 102.981 202.563, 103.218 203.250 C 104.008 205.535, 103.888 238.388, 103.063 245.500 C 102.616 249.350, 101.520 255.109, 100.626 258.299 C 98.549 265.705, 98.580 266.580, 101 269 C 103.468 271.468, 106.104 271.546, 108.958 269.235 C 110.955 267.618, 111.174 266.345, 111.586 253.985 C 111.834 246.568, 112.478 236.912, 113.018 232.526 C 113.558 228.141, 114 221.278, 114 217.276 L 114 210 116.800 210 C 118.340 210, 120.085 210.485, 120.678 211.078 C 121.270 211.670, 123.273 212.535, 125.128 212.998 C 126.982 213.462, 131.326 214.595, 134.780 215.518 C 139.760 216.848, 141.365 216.942, 142.530 215.975 C 144.529 214.316, 144.404 213.633, 141.457 210.131 C 139.060 207.282, 135.293 205.165, 123.500 200.037 C 115.886 196.726, 113.970 194.781, 113.937 190.326 C 113.783 169.892, 113.984 168.403, 117.331 165.245 C 121.288 161.510, 130.840 155, 132.362 155 C 134.116 155, 139 148.368, 139 145.988 C 139 143.067, 137.354 140.260, 134.858 138.924 C 133.025 137.943, 132.246 138.346, 128.631 142.151 C 125.171 145.793, 116.469 152.625, 113.750 153.833 C 113.338 154.017, 113 151.508, 113 148.258 C 113 143.374, 113.402 141.971, 115.314 140.174 C 116.587 138.978, 118.074 138, 118.618 138 C 119.162 138, 121.082 136.478, 122.885 134.619 L 126.162 131.238 124.061 127.119 C 122.302 123.671, 121.469 123, 118.948 123 C 117.170 123, 115.697 123.625, 115.351 124.528 C 115.029 125.368, 113.918 126.509, 112.882 127.063 C 109.604 128.817, 110.593 123.794, 114.490 118.891 C 116.410 116.476, 117.985 113.513, 117.990 112.307 C 118.010 107.918, 111.076 105.689, 105 108.132 M 173.553 153.482 C 170.391 157.084, 165.881 161.157, 163.531 162.535 C 159.957 164.629, 159.180 165.649, 158.779 168.769 C 158.105 174.023, 158.992 180, 160.445 180 C 161.120 180, 164.736 176.738, 168.480 172.750 C 172.225 168.762, 176.794 163.897, 178.634 161.937 C 181.667 158.708, 181.957 157.873, 181.738 153.020 C 181.605 150.075, 181.002 147.501, 180.399 147.300 C 179.796 147.099, 176.715 149.881, 173.553 153.482 M 244.451 164.340 C 244.063 165.884, 244.617 168.605, 245.914 171.538 C 247.061 174.132, 248 176.817, 248 177.505 C 248 178.192, 248.652 179.296, 249.449 179.958 C 250.246 180.619, 251.410 182.811, 252.036 184.830 C 252.662 186.848, 254.035 190.408, 255.087 192.739 C 256.139 195.071, 257 197.642, 257 198.454 C 257 199.266, 257.722 202.058, 258.605 204.659 C 259.488 207.260, 260.340 213.441, 260.498 218.394 C 260.780 227.251, 260.730 227.474, 257.453 231.766 C 249.048 242.773, 226.881 252.409, 214.303 250.523 C 208.790 249.696, 198.497 245.011, 195 241.737 C 188.715 235.852, 186 231.254, 186 226.493 C 186 223.949, 185.508 220.950, 184.907 219.827 C 184.117 218.350, 184.117 217.483, 184.907 216.693 C 186.460 215.140, 186.260 210.725, 184.532 208.441 C 183.724 207.374, 183.049 205.107, 183.032 203.405 C 182.972 197.588, 176.274 194.830, 172.455 199.050 C 170.651 201.044, 170.650 201.195, 172.442 204.522 C 173.827 207.094, 174.366 210.624, 174.610 218.722 C 175.002 231.737, 177.072 238.345, 182.858 245.063 C 187.609 250.578, 198.111 257.887, 202.466 258.709 C 204.135 259.024, 206.315 259.699, 207.310 260.208 C 208.306 260.718, 212.356 261.501, 216.310 261.949 C 222.167 262.613, 224.706 262.410, 230 260.858 C 244.131 256.716, 247.044 255.609, 248.738 253.735 C 249.707 252.664, 252.126 250.957, 254.113 249.943 C 256.100 248.929, 259.680 246.277, 262.069 244.050 C 264.457 241.822, 266.717 240, 267.091 240 C 267.464 240, 268.571 238.778, 269.550 237.283 C 271.487 234.326, 271.601 229.632, 270.078 215.500 C 268.734 203.033, 267.268 199.148, 256.301 179 C 254.954 176.525, 252.412 171.834, 250.653 168.576 C 247.037 161.879, 245.357 160.731, 244.451 164.340" stroke="none" fill="black" fill-rule="evenodd"/>
</svg>