<svg xmlns="http://www.w3.org/2000/svg" width="300" height="300" viewBox="0 0 300 300" version="1.1">
	<path d="M 119.041 26.923 C 117.634 29.553, 118.690 33.760, 121.652 37.327 C 124.370 40.599, 124.649 43.625, 122.457 46.047 C 120.054 48.703, 119.370 54.821, 121.390 55.596 C 126.569 57.583, 134 48.423, 134 40.051 C 134 36.272, 133.296 34.172, 130.750 30.363 C 127.966 26.198, 126.971 25.456, 123.815 25.194 C 120.941 24.954, 119.891 25.335, 119.041 26.923 M 157.500 51.469 C 155.850 52.821, 154.154 53.944, 153.730 53.964 C 153.307 53.984, 148.357 56.307, 142.730 59.127 C 137.104 61.947, 131.150 64.618, 129.500 65.063 C 127.850 65.508, 123.125 66.813, 119 67.962 C 114.875 69.111, 106.550 70.709, 100.500 71.512 C 91.588 72.695, 89.168 73.376, 87.750 75.097 C 85.459 77.878, 85.536 80.270, 87.989 82.490 C 89.703 84.041, 91.082 84.197, 97.989 83.621 C 105.876 82.964, 106 82.989, 106 85.254 C 106 86.520, 105.342 88.495, 104.537 89.643 C 103.524 91.090, 102.893 95.774, 102.482 104.894 C 102.156 112.134, 101.236 121.307, 100.439 125.278 C 99.641 129.250, 98.507 134.975, 97.918 138 C 96.260 146.522, 92.087 160.514, 88.895 168.256 C 87.303 172.116, 86 176.062, 86 177.023 C 86 177.985, 85.328 180.060, 84.506 181.636 C 83.685 183.211, 83.010 185.486, 83.006 186.691 C 83.003 187.896, 82.600 189.129, 82.111 189.432 C 81.622 189.734, 80.918 191.190, 80.547 192.669 C 80.176 194.147, 78.607 198.088, 77.060 201.428 C 75.512 204.768, 73.907 208.625, 73.492 210 C 73.077 211.375, 72.001 213.625, 71.101 215 C 70.201 216.375, 67.459 221.453, 65.009 226.284 C 60.290 235.588, 60.240 238.131, 64.760 238.807 C 67.260 239.181, 69.904 236.485, 72.880 230.526 C 74.111 228.062, 75.500 225.809, 75.966 225.521 C 76.433 225.232, 77.571 222.593, 78.495 219.655 C 79.419 216.717, 81.219 213.005, 82.495 211.406 C 84.643 208.715, 85.044 208.586, 87.917 209.667 C 91.149 210.882, 97.333 209.889, 98.523 207.963 C 98.850 207.433, 100.044 207, 101.175 207 C 102.306 207, 105.542 206.277, 108.366 205.393 C 117.855 202.423, 119.630 202, 122.598 202 C 124.225 202, 126.490 201.345, 127.632 200.545 C 129.963 198.912, 137.753 196.037, 139.905 196.015 C 141.080 196.002, 141.199 198.421, 140.631 210.750 C 140.257 218.863, 139.735 235.625, 139.471 248 C 139.012 269.502, 138.537 277.746, 137.361 284.615 C 136.890 287.370, 137.253 287.994, 140.504 290.002 L 144.180 292.274 146.722 289.732 C 148.882 287.573, 149.257 286.311, 149.212 281.351 C 149.183 278.140, 149.626 274.951, 150.195 274.265 C 150.810 273.524, 150.923 271.696, 150.473 269.759 C 148.913 263.041, 150.602 199.486, 152.486 194 C 153.799 190.174, 155.697 188.944, 164 186.533 C 167.025 185.655, 172.425 183.354, 176 181.419 C 179.575 179.484, 187.225 176.294, 193 174.330 C 198.775 172.367, 204.388 170.139, 205.473 169.380 C 206.612 168.583, 209.990 167.994, 213.473 167.985 C 220.564 167.968, 224.372 166.344, 224.830 163.143 C 225.675 157.246, 217.651 154.922, 207.661 158.169 C 204.273 159.271, 201.073 160.583, 200.550 161.086 C 200.028 161.589, 198.903 161.996, 198.050 161.992 C 196.522 161.984, 182.091 167.860, 176.761 170.661 C 175.254 171.453, 171.461 172.981, 168.331 174.058 C 165.200 175.135, 161.933 176.634, 161.070 177.390 C 157.041 180.915, 152.288 179.976, 153.312 175.856 C 153.635 174.560, 154.484 171.187, 155.199 168.361 C 155.960 165.354, 157.462 162.444, 158.818 161.347 C 160.613 159.894, 161.323 157.957, 161.969 152.747 C 162.587 147.767, 163.477 145.222, 165.402 142.934 C 167.275 140.708, 168 138.702, 168 135.744 C 168 133.488, 168.547 130.129, 169.215 128.281 C 170.169 125.643, 170.169 124.501, 169.215 122.973 C 168.547 121.903, 168 120.311, 168 119.437 C 168 118.562, 166.625 116.471, 164.945 114.791 C 161.991 111.838, 161.675 111.757, 155.498 112.390 L 149.106 113.045 148.059 109.272 C 145.690 100.742, 147.730 93, 152.346 93 C 154.845 93, 159.790 89.970, 161.466 87.412 C 163.532 84.258, 162.691 79.440, 159.804 77.895 C 157.884 76.867, 156.116 76.982, 149.843 78.538 C 147.914 79.017, 146.345 78.576, 144.113 76.926 C 141.203 74.774, 140.940 74.744, 139.154 76.361 C 137.956 77.445, 137.030 80.091, 136.616 83.610 C 135.886 89.821, 132.659 94.779, 127.250 97.998 C 123.360 100.313, 122.960 103.731, 126.068 108.096 C 128.586 111.631, 129.803 111.701, 132.855 108.483 C 136.915 104.203, 138 105.151, 138 112.977 C 138 119.509, 137.824 120.063, 135.250 121.657 C 130.167 124.805, 126 129.342, 126 131.728 C 126 135.081, 123.414 135.601, 119.021 133.132 C 116.922 131.952, 114.146 131.103, 112.853 131.244 C 110.885 131.458, 110.543 131.091, 110.763 129 C 112.814 109.504, 114.378 89.397, 114.233 84.396 L 114.113 80.293 119.454 79.098 C 122.392 78.440, 127.204 76.989, 130.148 75.872 C 133.091 74.755, 137.075 73.382, 139 72.821 C 140.925 72.260, 143.175 71.221, 144 70.513 C 144.825 69.804, 147.750 68.223, 150.500 67 C 153.250 65.777, 156.175 64.205, 157 63.506 C 157.825 62.808, 159.625 61.907, 161 61.503 C 167.123 59.708, 169.851 53.985, 166.171 50.655 C 163.624 48.350, 161.006 48.595, 157.500 51.469 M 55.800 52.200 C 56.460 52.860, 57 54.380, 57 55.578 C 57 56.775, 57.704 58.339, 58.564 59.053 C 59.533 59.857, 59.914 61.206, 59.565 62.596 C 58.069 68.558, 62.879 69.801, 68.465 64.896 C 75.992 58.288, 71.584 51.012, 60.050 51.004 C 55.811 51.001, 54.867 51.267, 55.800 52.200 M 60.500 95.714 C 58.850 96.561, 56.375 98.247, 55 99.461 C 51.329 102.701, 36.592 110, 33.719 110 C 32.288 110, 30.636 109.084, 29.803 107.829 C 28.027 105.154, 26.589 105.926, 24.041 110.920 C 20.906 117.065, 23.264 122, 29.333 122 C 33.673 122, 45.349 118.300, 48.277 115.996 C 51.016 113.843, 54 113.351, 54 115.053 C 54 115.632, 52.875 117.762, 51.500 119.785 C 50.125 121.809, 48.980 124.147, 48.955 124.982 C 48.930 125.817, 46.717 130.550, 44.038 135.500 C 41.359 140.450, 37.051 148.550, 34.465 153.500 C 30.028 161.994, 22.570 173.106, 20.822 173.829 C 20.132 174.114, 17.268 177.922, 6.185 193.290 C 4.911 195.055, 2.999 197.429, 1.935 198.564 C 0.434 200.165, 0.001 202.074, 0.006 207.064 L 0.012 213.500 6.259 206.786 C 9.695 203.094, 13.318 198.565, 14.310 196.723 C 15.302 194.880, 18.769 190.609, 22.015 187.230 C 25.260 183.851, 28.802 179.349, 29.885 177.226 C 30.968 175.103, 32.513 172.819, 33.319 172.150 C 34.125 171.481, 35.338 169.599, 36.014 167.967 C 37.550 164.258, 40.370 164.109, 42.668 167.616 C 45.275 171.594, 46.626 195.567, 44.527 200.591 C 42.292 205.940, 42.565 208.845, 45.426 210.148 C 48.971 211.763, 52.894 210.433, 54.056 207.222 C 54.598 205.725, 55.488 203.600, 56.034 202.500 C 56.579 201.400, 56.950 198.700, 56.856 196.500 C 56.402 185.790, 57.334 174.809, 58.744 174.268 C 60.621 173.548, 67.061 176.642, 68.774 179.087 C 69.692 180.399, 71.305 181, 73.902 181 C 80.320 181, 83.440 175.025, 78.348 172.486 C 77.174 171.901, 75.427 170.764, 74.465 169.961 C 73.504 169.157, 71.094 168.037, 69.109 167.472 C 63.460 165.863, 63.775 163.090, 70.426 155.907 C 76.868 148.948, 77.688 145.336, 73.454 142.562 C 72.054 141.645, 70.118 141.145, 69.150 141.452 C 66.318 142.351, 57.539 151.415, 53.877 157.219 C 52.843 158.859, 49.089 156.201, 48.365 153.316 C 47.991 151.826, 48.210 150, 48.873 149.095 C 49.515 148.218, 50.749 145.925, 51.616 144 C 52.483 142.075, 54.028 139.592, 55.051 138.483 C 57.880 135.415, 62 127.181, 62 124.596 C 62 123.332, 63.125 120.182, 64.500 117.596 C 65.875 115.010, 67.010 111.905, 67.022 110.697 C 67.034 109.489, 67.924 107.375, 69 106 C 71.369 102.972, 71.387 101.414, 69.101 97.500 C 67.076 94.034, 64.725 93.545, 60.500 95.714 M 151.500 126 C 149.753 127.931, 149.754 128.071, 151.540 130.044 C 153.940 132.696, 157.397 132.230, 157.827 129.195 C 158.182 126.686, 156.479 124, 154.533 124 C 153.860 124, 152.495 124.900, 151.500 126 M 138 130.831 C 138 131.380, 135.750 133.213, 133 134.905 C 127.929 138.025, 127.172 139.584, 129.035 143.066 C 130.613 146.014, 133.499 145.392, 137.458 141.250 C 140.351 138.223, 140.990 136.840, 140.771 134.077 C 140.622 132.195, 139.938 130.470, 139.250 130.244 C 138.563 130.018, 138 130.282, 138 130.831 M 107.522 141.750 C 107.136 143.813, 106.468 145.950, 106.036 146.500 C 105.604 147.050, 105.024 148.850, 104.747 150.500 C 104.179 153.881, 100.527 164.435, 97.805 170.566 C 96.812 172.802, 96 175.563, 96 176.701 C 96 177.840, 95.328 180.060, 94.506 181.636 C 93.685 183.211, 93.010 185.428, 93.006 186.563 C 93.003 187.697, 91.850 191.010, 90.444 193.924 C 89.038 196.838, 88.149 199.482, 88.467 199.800 C 88.785 200.118, 91.173 199.641, 93.773 198.740 C 96.373 197.839, 102.325 196.398, 107 195.537 C 111.675 194.676, 118.650 192.802, 122.500 191.371 C 126.350 189.941, 131.669 187.980, 134.320 187.015 C 136.971 186.050, 139.669 184.731, 140.316 184.084 C 140.963 183.437, 141.579 179.731, 141.684 175.849 C 141.874 168.889, 141.843 168.797, 139.467 169.251 C 138.141 169.505, 134.681 168.911, 131.778 167.932 C 127.668 166.546, 126.426 165.637, 126.165 163.826 C 125.981 162.547, 125.419 161.072, 124.915 160.550 C 124.412 160.027, 124 158.270, 124 156.644 C 124 154.972, 122.816 152.129, 121.273 150.094 C 116.632 143.977, 110.806 138, 109.484 138 C 108.790 138, 107.907 139.688, 107.522 141.750 M 136.200 154.200 C 134.034 156.366, 134.801 158.156, 137.750 157.816 C 141.083 157.433, 142.481 153, 139.270 153 C 138.241 153, 136.860 153.540, 136.200 154.200" stroke="none" fill="black" fill-rule="evenodd"/>
</svg>