<svg xmlns="http://www.w3.org/2000/svg" width="300" height="300" viewBox="0 0 300 300" version="1.1">
	<path d="M 49 57.320 C 47.042 58.331, 46.571 59.247, 46.825 61.543 C 47.226 65.159, 48.667 67, 51.097 67 C 53.555 67, 56 71.917, 56 76.862 C 56 80.470, 55.398 81.379, 49.250 87.057 C 45.538 90.486, 41.038 94.170, 39.250 95.244 C 35.428 97.542, 34.949 100.949, 38.017 104.017 C 39.945 105.945, 40.176 105.961, 43.267 104.363 C 45.045 103.444, 48.903 100.849, 51.839 98.596 C 54.776 96.343, 59.051 93.116, 61.339 91.424 C 66.087 87.914, 67.047 84.528, 64.429 80.532 C 62.863 78.142, 62.858 77.814, 64.368 76.146 C 65.296 75.121, 66 72.643, 66 70.404 C 66 67.155, 65.199 65.549, 61.422 61.233 C 56.522 55.631, 53.882 54.800, 49 57.320 M 137.290 62.997 C 136.755 65.043, 125.559 73, 123.216 73 C 122.500 73, 119.490 74.791, 116.527 76.980 C 113.564 79.169, 107.846 82.898, 103.820 85.268 C 97.830 88.794, 96.441 90.085, 96.175 92.377 C 95.801 95.604, 98.375 99, 101.195 99 C 102.233 99, 104.300 98.159, 105.790 97.132 C 110.942 93.581, 126.506 83.496, 128.499 82.418 C 129.600 81.822, 132.800 79.910, 135.611 78.168 C 138.421 76.425, 141.203 75, 141.793 75 C 143.196 75, 147 69.628, 147 67.647 C 147 65.961, 141.075 61, 139.062 61 C 138.375 61, 137.578 61.899, 137.290 62.997 M 125.701 89.777 C 123.604 92.095, 123.131 104.519, 124.855 112 C 126.141 117.580, 128.440 133.544, 130.182 149 C 132.847 172.640, 131.922 202.170, 128.392 206.105 C 127.584 207.006, 127.073 209.198, 127.226 211.105 L 127.500 214.500 114.152 215.202 C 90.894 216.426, 82.381 221.730, 92.119 228.930 C 94.851 230.950, 95.531 231.071, 97.859 229.954 C 104.093 226.961, 126.636 224.707, 142.500 225.490 C 149.650 225.843, 159.550 226.325, 164.500 226.562 C 189.398 227.753, 205.023 229.053, 207.390 230.132 C 214.192 233.231, 220.461 222.458, 213.899 218.946 C 211.912 217.883, 190.891 216.609, 154.750 215.363 C 139.238 214.829, 135 214.395, 135 213.341 C 135 212.604, 135.398 212, 135.885 212 C 136.372 212, 137.561 210.793, 138.527 209.318 C 139.932 207.174, 140.353 203.916, 140.629 193.068 C 141.023 177.540, 142.413 169.966, 144.993 169.291 C 147.098 168.741, 151 161.247, 151 157.755 C 151 154.988, 153.885 145.020, 155.090 143.628 C 155.505 143.148, 157.567 144.152, 159.672 145.859 C 161.777 147.565, 165.455 150.545, 167.845 152.481 C 174.458 157.837, 181 156.960, 181 150.716 C 181 149.937, 178.297 146.949, 174.993 144.075 C 169.122 138.969, 168.838 138.848, 162.481 138.752 C 156.532 138.661, 156.028 138.488, 156.587 136.725 C 158.711 130.033, 161 121.250, 161 119.792 C 161 117.131, 156.959 113.883, 154.555 114.613 C 150.890 115.725, 149.257 117.994, 148.669 122.794 C 148.351 125.382, 147.597 129.750, 146.993 132.500 C 146.389 135.250, 145.270 141.261, 144.506 145.858 C 142.975 155.072, 142.776 155.512, 140.543 154.655 C 139.454 154.237, 138.994 152.656, 138.981 149.281 C 138.936 137.975, 136.987 110.251, 136.044 107.500 C 135.478 105.850, 134.877 101.504, 134.708 97.843 C 134.538 94.182, 133.804 90.469, 133.077 89.593 C 131.323 87.479, 127.699 87.570, 125.701 89.777 M 49.034 113.339 C 46.817 116.275, 43.941 119.161, 42.644 119.753 C 41.197 120.412, 40.047 122.017, 39.669 123.903 C 38.910 127.699, 39.634 129.734, 42.242 131.130 C 43.879 132.006, 45.010 131.670, 48.375 129.312 C 52.962 126.097, 59 117.652, 59 114.450 C 59 112.319, 55.648 108, 53.993 108 C 53.483 108, 51.251 110.402, 49.034 113.339 M 104.275 111.250 C 103.742 111.938, 102.792 117.930, 102.165 124.566 C 101.538 131.202, 100.618 137.952, 100.121 139.566 C 99.624 141.180, 98.415 146.235, 97.434 150.799 C 96.453 155.363, 95.279 159.327, 94.825 159.608 C 94.371 159.889, 93.998 160.879, 93.995 161.809 C 93.988 164.257, 87.549 176.435, 83.784 181.119 C 80.720 184.932, 80.636 185.261, 82.062 187.814 C 82.960 189.421, 84.583 190.620, 86.102 190.799 C 88.208 191.047, 89.354 190.083, 92.821 185.140 C 95.119 181.863, 97 178.752, 97 178.226 C 97 177.700, 97.878 176.153, 98.952 174.788 C 101.021 172.157, 103.961 164.607, 103.985 161.861 C 103.993 160.959, 104.824 159.204, 105.831 157.960 C 108.441 154.737, 111.819 155.920, 116.021 161.528 C 119.713 166.456, 125.319 170.539, 126.982 169.511 C 129.625 167.878, 127.344 161.170, 121.302 152.805 C 118.303 148.653, 117.425 148.075, 113.705 147.805 C 109.731 147.517, 109.508 147.335, 109.637 144.500 C 109.713 142.850, 110.463 138.527, 111.305 134.893 C 113.406 125.825, 112.949 113.167, 110.456 111.344 C 108.153 109.660, 105.540 109.620, 104.275 111.250 M 54.357 131.735 C 51.343 132.264, 42 140.882, 42 143.133 C 42 144.160, 42.939 145.939, 44.087 147.087 C 46.866 149.866, 50.011 149.014, 56.244 143.795 C 60.344 140.363, 61.059 139.254, 60.803 136.726 C 60.463 133.362, 57.622 131.162, 54.357 131.735 M 56.125 178.336 C 48.745 183.472, 43.958 188.968, 43.066 193.330 C 42.058 198.259, 39.605 197.818, 33.736 191.651 C 27.637 185.243, 22.794 183.595, 18.442 186.446 C 15.390 188.446, 14.583 190.235, 15.372 193.252 C 16.037 195.796, 21.917 199.939, 25.870 200.648 C 27.317 200.907, 28.927 201.543, 29.450 202.060 C 29.972 202.577, 31.097 203.004, 31.950 203.008 C 33.780 203.018, 41.551 210.417, 43.494 214 C 44.239 215.375, 45.758 218.412, 46.869 220.750 C 48.850 224.920, 51.988 226.447, 53.512 223.981 C 53.858 223.421, 56.472 221.787, 59.321 220.350 C 62.169 218.914, 66.696 215.997, 69.381 213.869 C 72.065 211.741, 74.652 210, 75.131 210 C 76.937 210, 76.002 204.018, 74 202.768 C 71.630 201.288, 71.447 199.113, 73.468 196.441 C 74.452 195.141, 74.947 191.993, 74.968 186.905 C 75.003 178.487, 74.258 177.209, 68.101 175.142 C 63.215 173.501, 62.984 173.562, 56.125 178.336 M 59.369 190.096 C 55.824 192.905, 53.869 195.654, 51.079 201.750 C 49.821 204.500, 50.705 209.510, 52.748 211.206 C 54.006 212.250, 54.736 211.882, 57.159 208.978 C 62.776 202.251, 67.044 189.381, 64.234 187.645 C 63.687 187.306, 61.497 188.409, 59.369 190.096" stroke="none" fill="black" fill-rule="evenodd"/>
</svg>