<svg xmlns="http://www.w3.org/2000/svg" width="300" height="300" viewBox="0 0 300 300" version="1.1">
	<path d="M 68.112 43.365 C 67.127 44.552, 67.126 46.051, 68.109 50.679 C 68.790 53.881, 69.399 58.302, 69.462 60.505 C 69.526 62.707, 69.919 65.060, 70.336 65.734 C 71.179 67.099, 69.449 71, 68 71 C 67.488 71, 65.425 72.463, 63.414 74.250 C 61.404 76.037, 57.450 78.625, 54.629 80 C 49.405 82.546, 48.347 84.261, 49.403 88.469 C 51.024 94.928, 59.094 91.287, 77.874 75.624 C 86.802 68.177, 87.141 67.325, 82.699 63.486 C 79.284 60.533, 79.068 59.985, 78.835 53.660 C 78.641 48.409, 78.145 46.549, 76.544 45.055 C 73.626 42.333, 69.633 41.533, 68.112 43.365 M 139.778 50.750 C 138.209 52.542, 137.962 53.222, 133.424 68.216 C 130.791 76.918, 129.152 79.551, 126.846 78.782 C 125.963 78.488, 125.698 75.417, 125.890 67.701 C 126.150 57.229, 126.109 57.007, 123.704 55.911 C 119.843 54.152, 117.254 56.126, 116.457 61.435 C 115.336 68.915, 116.715 93.981, 118.525 99 C 120.603 104.766, 123.648 108, 126.997 108 C 130.126 108, 141.552 102.692, 144.709 99.771 C 145.924 98.648, 148.551 97.598, 150.546 97.440 C 154.823 97.101, 158 94.569, 158 91.500 C 158 88.667, 155.018 86, 151.849 86 C 147.370 86, 139.579 89.235, 135.681 92.713 C 131.337 96.588, 129.642 96.555, 129.175 92.584 C 128.806 89.449, 131.377 86, 134.082 86 C 135.056 86, 136.479 84.763, 137.243 83.250 C 138.007 81.737, 139.091 79.600, 139.652 78.500 C 145.314 67.395, 149 57.984, 149 54.635 C 149 49.853, 142.836 47.257, 139.778 50.750 M 63.200 105.004 C 59.185 108.852, 55.317 112, 54.605 112 C 53.893 112, 52.486 112.911, 51.478 114.024 C 49.699 115.990, 49.705 116.128, 51.679 118.774 C 52.797 120.273, 54.477 121.650, 55.411 121.834 C 58.808 122.502, 76 108.384, 76 104.927 C 76 103.560, 72.129 97.998, 71.182 98.004 C 70.807 98.006, 67.215 101.156, 63.200 105.004 M 60.210 127.687 C 52.540 135.560, 52.061 137.023, 55.773 141.250 C 58.173 143.982, 60.635 143.337, 64.058 139.078 C 65.791 136.921, 68.508 134.618, 70.096 133.960 C 73.031 132.745, 77 127.471, 77 124.787 C 77 122.421, 73.589 119.991, 70.421 120.102 C 68.167 120.180, 65.835 121.913, 60.210 127.687 M 138.490 128.171 C 130.381 133.692, 128.539 136.325, 128.349 142.665 C 128.175 148.470, 126.859 151.649, 125.084 150.552 C 124.298 150.066, 123.983 147.018, 124.137 141.407 C 124.339 134.095, 124.116 132.799, 122.435 131.527 C 119.937 129.638, 118.504 129.639, 116.611 131.532 C 114.333 133.810, 113.981 137.339, 113.574 162 C 113.370 174.375, 112.868 194.069, 112.459 205.764 C 111.765 225.628, 111.837 227.163, 113.561 229.068 C 115.026 230.687, 116.154 230.981, 119.032 230.495 C 121.666 230.050, 123.011 230.308, 123.951 231.441 C 125.860 233.741, 129.809 233.339, 133.182 230.500 C 134.816 229.125, 137.246 228, 138.580 228 C 139.915 228, 142.686 227.100, 144.739 226 C 149.763 223.307, 150.603 223.437, 154.435 227.500 C 158.144 231.432, 161.081 231.919, 163.928 229.072 C 165.919 227.081, 167.704 218.947, 166.557 217.092 C 166.200 216.514, 166.333 215.245, 166.853 214.271 C 167.448 213.156, 167.438 209.907, 166.828 205.500 C 166.295 201.650, 165.483 189.275, 165.024 178 C 164.565 166.725, 163.726 155.025, 163.160 152 C 162.594 148.975, 161.828 144.453, 161.458 141.951 C 160.468 135.256, 154.581 127.099, 149.500 125.382 C 147.300 124.638, 145.275 124.041, 145 124.055 C 144.725 124.068, 141.795 125.920, 138.490 128.171 M 137.958 144.250 C 130.705 153.112, 129.297 154.203, 126.977 152.754 C 125.940 152.106, 124.802 151.865, 124.448 152.218 C 124.095 152.572, 123.808 157.280, 123.811 162.681 C 123.813 168.081, 123.372 174.525, 122.830 177 C 121.478 183.169, 120.882 219.152, 122.107 220.629 C 123.334 222.107, 126.484 221.290, 130.771 218.381 C 132.616 217.128, 136.236 215.816, 138.813 215.465 C 141.391 215.113, 146.628 214.281, 150.451 213.616 L 157.402 212.406 157.113 202.465 C 156.954 196.997, 156.643 192.232, 156.423 191.875 C 156.203 191.519, 155.785 183.429, 155.495 173.898 C 155.205 164.366, 154.525 156.125, 153.984 155.584 C 153.443 155.043, 153 153.805, 153 152.834 C 153 151.863, 152.362 149.590, 151.583 147.784 C 150.803 145.978, 149.624 143.037, 148.962 141.250 C 147.026 136.027, 144.016 136.847, 137.958 144.250 M 140.444 166.259 C 138.825 167.502, 135.992 169.975, 134.149 171.755 C 131.050 174.748, 130.865 175.272, 131.683 178.745 C 132.755 183.299, 135.708 184.162, 139.638 181.070 C 141.086 179.931, 143.694 179, 145.435 179 C 149.656 179, 151 177.424, 151 172.474 C 151 169.455, 150.379 167.766, 148.686 166.174 C 145.755 163.422, 144.120 163.438, 140.444 166.259 M 69 167.115 C 66.025 168.291, 58.193 175.667, 56.910 178.500 C 56.412 179.600, 55.586 181.175, 55.075 182 C 54.563 182.825, 53.901 184.287, 53.604 185.250 C 52.778 187.922, 50.285 187.351, 46.575 183.641 C 43.750 180.816, 42.233 180.172, 37.031 179.583 C 29.995 178.787, 28 179.741, 28 183.900 C 28 188.319, 30.589 191, 34.855 191 C 37.866 191, 39.418 191.789, 42.799 195.037 C 45.109 197.258, 47 199.510, 47 200.042 C 47 200.574, 49.226 203.189, 51.946 205.853 C 55.733 209.561, 56.760 211.200, 56.330 212.846 C 55.549 215.832, 58.496 220, 61.388 220 C 62.676 220, 64.803 219.184, 66.115 218.186 C 67.427 217.188, 70.082 215.642, 72.016 214.750 C 73.950 213.858, 77.232 211.974, 79.310 210.564 C 81.388 209.154, 83.355 208, 83.680 208 C 84.005 208, 85.286 206.988, 86.527 205.750 C 87.768 204.512, 89.796 202.802, 91.033 201.949 C 92.966 200.618, 93.117 200.088, 92.107 198.199 C 90.710 195.589, 85.599 195.232, 82.559 197.532 C 79.417 199.908, 77.867 199.405, 78.610 196.250 C 78.967 194.738, 79.650 193.072, 80.129 192.550 C 80.608 192.027, 81 190.620, 81 189.422 C 81 188.225, 81.662 186.695, 82.472 186.023 C 85.270 183.701, 82.906 170.171, 79.211 167.363 C 77.199 165.835, 72.526 165.721, 69 167.115 M 65.870 184.164 C 60.743 190.638, 58.761 194.910, 59.506 197.880 C 61.072 204.118, 64.969 204.790, 67.454 199.250 C 68.379 197.188, 69.499 194.600, 69.943 193.500 C 70.387 192.400, 71.257 190.241, 71.875 188.703 C 72.494 187.165, 73 184.577, 73 182.953 C 73 178.591, 69.861 179.125, 65.870 184.164" stroke="none" fill="black" fill-rule="evenodd"/>
</svg>