<svg xmlns="http://www.w3.org/2000/svg" width="300" height="300" viewBox="0 0 300 300" version="1.1">
	<path d="M 127.035 14.934 C 126.466 15.998, 126 18.722, 126 20.986 C 126 24.650, 126.326 25.218, 128.959 26.136 C 132.567 27.393, 132.857 28.372, 132.628 38.500 C 132.438 46.887, 131.804 49, 129.476 49 C 128.702 49, 126.479 50.397, 124.535 52.104 C 120.298 55.824, 119.765 60.021, 123.223 62.443 C 126.464 64.714, 128.205 64.400, 134 60.500 C 136.861 58.575, 139.489 57, 139.842 57 C 140.194 57, 142.853 55.367, 145.751 53.372 C 148.648 51.376, 152.477 49.447, 154.259 49.085 C 156.749 48.578, 157.924 47.530, 159.330 44.559 C 161.120 40.779, 161.117 40.634, 159.188 38.096 C 156.700 34.823, 152.145 34.984, 146.771 38.536 C 141.941 41.728, 139.520 41.811, 140.451 38.750 C 143.712 28.033, 143.486 24.735, 139.010 17.677 C 136.289 13.386, 135.715 13, 132.057 13 C 129.139 13, 127.793 13.518, 127.035 14.934 M 59.465 41.750 C 59.848 44.913, 60.800 48.497, 61.581 49.715 C 62.424 51.031, 63 54.500, 63 58.265 C 63 61.749, 63.510 65.110, 64.133 65.733 C 64.756 66.356, 65.029 67.482, 64.740 68.235 C 64.162 69.742, 54.619 75, 52.463 75 C 51.720 75, 49.893 76.048, 48.404 77.329 C 45.385 79.926, 45.502 82.928, 48.778 86.974 C 50.522 89.128, 50.695 89.148, 54.041 87.565 C 62.289 83.663, 67 80.957, 67 80.121 C 67 79.628, 69.925 77.389, 73.500 75.148 C 77.075 72.906, 80 70.460, 80 69.711 C 80 67.902, 76.010 64.294, 73.500 63.831 C 71.657 63.492, 71.524 62.798, 71.803 54.982 C 72.165 44.838, 70.422 40.434, 65 37.798 C 59.121 34.939, 58.679 35.254, 59.465 41.750 M 151.500 79.807 C 137.675 87.608, 130.729 93.834, 128.848 100.115 C 127.573 104.369, 125.666 105.112, 124.002 102.003 C 122.213 98.660, 115.499 95.820, 111.214 96.593 C 104.120 97.873, 102.051 100.373, 103.950 105.368 C 104.876 107.803, 105.395 108, 110.891 108 C 116.568 108, 116.962 108.167, 119.764 111.750 C 121.377 113.813, 123.507 117.652, 124.497 120.283 C 125.487 122.913, 126.680 125.302, 127.148 125.592 C 127.617 125.881, 128 127.138, 128 128.385 C 128 129.631, 129.083 131.668, 130.406 132.911 C 132.363 134.750, 133.189 134.969, 134.840 134.086 C 141.783 130.370, 143.273 133.646, 147.080 160.996 C 148.795 173.315, 149.024 179.023, 148.609 198.996 C 147.901 233.105, 147.062 238.389, 142.623 236.685 C 141.039 236.078, 138 230.483, 138 228.175 C 138 227.340, 137.397 225.947, 136.660 225.079 C 135.924 224.210, 134.296 220.912, 133.044 217.750 C 131.397 213.590, 130.247 212, 128.884 212 C 126.702 212, 126.485 214.359, 128.099 220.500 C 129.060 224.155, 130.163 229.035, 131.654 236.224 C 132.325 239.456, 139.808 246.663, 143.441 247.575 C 150.922 249.452, 155.322 243.845, 156.447 231 C 157.139 223.106, 158.331 190.956, 158.227 183 C 158.136 176.073, 157.006 161.356, 156.013 154.178 C 155.456 150.150, 155 145.236, 155 143.256 C 155 141.277, 154.385 138.947, 153.634 138.079 C 152.882 137.210, 151.998 133.766, 151.667 130.425 C 151.013 123.804, 152.546 120, 155.867 120 C 156.831 120, 159.056 118.597, 160.810 116.881 C 163.998 113.765, 164.891 110.291, 162.994 108.394 C 162.320 107.720, 162.979 105.452, 164.994 101.511 C 167.518 96.577, 168 94.472, 168 88.388 C 168 83.135, 167.568 80.711, 166.429 79.571 C 164.310 77.453, 155.424 77.593, 151.500 79.807 M 148.416 95.784 C 141.507 98.878, 130.978 106.454, 131.044 108.282 C 131.068 108.952, 131.678 111.750, 132.400 114.500 C 134.258 121.588, 136.165 121.489, 143.518 113.927 C 151.468 105.752, 152.215 104.907, 154.193 101.856 C 156.175 98.799, 156.938 93.852, 155.500 93.385 C 154.950 93.206, 151.762 94.285, 148.416 95.784 M 64.028 104.472 C 61.614 106.931, 58.207 109.623, 56.457 110.453 C 52.032 112.553, 50.813 114.340, 51.182 118.185 C 51.480 121.289, 51.761 121.519, 55.596 121.800 C 59.489 122.085, 60.074 121.728, 67.346 114.618 C 71.556 110.503, 75 106.448, 75 105.607 C 75 103.883, 71.205 100, 69.520 100 C 68.913 100, 66.442 102.012, 64.028 104.472 M 64.282 126.282 C 60.312 129.702, 55.657 133.582, 53.938 134.904 C 51.268 136.957, 50.902 137.759, 51.428 140.391 C 52.429 145.395, 54.100 146.455, 58.486 144.869 C 60.621 144.097, 62.773 142.406, 63.561 140.881 C 64.314 139.426, 66.031 137.958, 67.378 137.620 C 70.267 136.895, 78 128.460, 78 126.034 C 78 124.258, 74.031 119.978, 72.436 120.032 C 71.921 120.049, 68.252 122.862, 64.282 126.282 M 69.419 173.767 C 63.448 177.126, 57.828 182.547, 55.960 186.750 C 53.733 191.761, 51.916 192.095, 49.017 188.024 C 45.331 182.847, 33.791 179.101, 31.227 182.250 C 29.847 183.946, 31.128 191.075, 33 192.117 C 33.825 192.576, 36.075 193.649, 38 194.503 C 45.545 197.846, 52.970 204.100, 52.989 207.128 C 52.995 208.023, 53.675 209.315, 54.500 210 C 55.325 210.685, 56 212.695, 56 214.467 C 56 219.184, 61.504 223.229, 63.509 219.986 C 63.854 219.428, 66.018 218.014, 68.318 216.845 C 73.870 214.022, 87 204.109, 87 202.740 C 87 202.145, 87.782 200.794, 88.737 199.738 C 90.389 197.913, 90.381 197.752, 88.575 196.431 C 87.454 195.612, 85.664 195.297, 84.204 195.664 C 81.916 196.238, 81.776 196.069, 82.326 193.392 C 85.346 178.705, 85.384 177.992, 83.297 175.187 C 80.783 171.806, 74.118 171.124, 69.419 173.767 M 185.791 177.869 C 175.540 179.033, 175.640 182.472, 186 184.972 C 189.025 185.702, 192.411 186.893, 193.525 187.617 C 196.391 189.483, 216.910 198, 218.538 198 C 219.281 198, 222.104 200.250, 224.811 203 C 230.087 208.360, 232.889 209.167, 236.777 206.443 C 238 205.587, 239 204.054, 239 203.036 C 239 199.971, 228.794 192.118, 217.500 186.493 C 214.750 185.123, 211.825 183.590, 211 183.087 C 208.911 181.811, 197.028 177.937, 194 177.545 C 192.625 177.367, 188.931 177.513, 185.791 177.869 M 108.689 183.750 C 107.405 185.813, 106.045 188.175, 105.666 189 C 105.288 189.825, 102.971 193.650, 100.516 197.500 C 93.750 208.112, 93.501 208.694, 94.975 210.470 C 96.495 212.301, 98.986 212.419, 102.484 210.825 C 104.746 209.795, 112.414 198.714, 114.253 193.818 C 114.622 192.835, 116.220 192.003, 118.092 191.818 C 123.015 191.330, 123.669 189.201, 120.418 184.236 C 118.081 180.667, 117.124 180, 114.335 180 C 111.592 180, 110.625 180.642, 108.689 183.750 M 68.238 187.546 C 67.024 188.396, 64.833 191.135, 63.370 193.631 C 60.791 198.032, 60.760 198.273, 62.339 201.585 C 64.309 205.717, 65.703 205.912, 67.094 202.252 C 67.669 200.740, 68.738 198.828, 69.470 198.002 C 70.202 197.176, 71.247 194.925, 71.792 193 C 72.337 191.075, 73.105 188.713, 73.499 187.750 C 74.425 185.484, 71.352 185.365, 68.238 187.546" stroke="none" fill="black" fill-rule="evenodd"/>
</svg>