<svg xmlns="http://www.w3.org/2000/svg" width="300" height="300" viewBox="0 0 300 300" version="1.1">
	<path d="M 49.750 57.080 C 47.327 58.492, 47.484 64.429, 50.056 68.590 C 51.886 71.551, 52.035 72.858, 51.414 80.507 L 50.717 89.099 46.608 91.903 C 44.349 93.445, 40.172 95.473, 37.327 96.408 C 30.598 98.621, 29.413 100.080, 30.586 104.702 C 31.990 110.233, 33.839 110.803, 40.236 107.673 C 43.241 106.203, 45.969 105, 46.298 105 C 46.627 105, 48.092 103.892, 49.553 102.539 C 51.013 101.185, 54.176 99.125, 56.581 97.961 C 61.544 95.558, 66 90.794, 66 87.890 C 66 86.713, 64.604 85.109, 62.500 83.867 C 59.016 81.812, 58.055 79.702, 60.045 78.472 C 60.681 78.079, 60.946 74.721, 60.722 69.872 C 60.376 62.385, 60.164 61.743, 57.116 58.958 C 53.639 55.783, 52.483 55.488, 49.750 57.080 M 136 70.773 C 131.356 71.402, 126.528 73.266, 120.250 76.854 C 113.515 80.703, 112.352 83.199, 115.829 86.345 C 118.072 88.375, 119.930 88.438, 122.592 86.573 C 128.585 82.376, 143.218 79.618, 145.800 82.200 C 148.617 85.017, 145.998 100.405, 140.686 112.255 C 137.792 118.709, 134.378 120.949, 130.278 119.081 C 127.594 117.858, 127.298 114.574, 129.494 110.364 C 131.568 106.387, 131.517 96.412, 129.418 95.607 C 126.092 94.331, 123.023 95.036, 121.450 97.437 C 120.571 98.777, 118.578 100.153, 117.020 100.496 C 113.754 101.213, 109.370 107.136, 108.843 111.543 C 108.538 114.094, 108.871 114.486, 111.879 115.105 C 113.738 115.487, 115.617 116.379, 116.054 117.087 C 117.088 118.760, 113.706 125.419, 109.368 130.253 C 105.564 134.492, 105.050 137.564, 107.990 138.497 C 110.177 139.191, 113.358 137.361, 115.648 134.092 C 116.454 132.941, 117.740 132, 118.506 132 C 119.272 132, 121.086 130.442, 122.539 128.538 L 125.179 125.076 132.969 125.677 C 140.427 126.252, 140.908 126.159, 144.274 123.473 C 146.408 121.770, 148.297 119.062, 149.081 116.584 C 149.791 114.338, 151.159 111.348, 152.119 109.940 C 154.121 107.005, 155.953 96.966, 156.513 85.858 C 156.887 78.446, 156.802 78.106, 153.699 74.580 C 150.763 71.243, 150.006 70.923, 144.500 70.689 C 141.200 70.549, 137.375 70.587, 136 70.773 M 40.250 123.483 C 37.362 126.426, 35 129.591, 35 130.516 C 35 131.441, 36.380 133.487, 38.067 135.063 L 41.134 137.928 39.567 144.045 C 36.713 155.186, 38.021 158.463, 44.360 156.053 C 48.202 154.592, 56 147.058, 56 144.807 C 56 141.808, 54.123 138.997, 51.439 137.977 C 48.210 136.749, 48.238 133.065, 51.500 130 C 55.097 126.620, 55.060 120.354, 51.435 118.975 C 47.142 117.343, 45.706 117.922, 40.250 123.483 M 184.500 159.632 C 182.850 159.879, 180.375 160.476, 179 160.959 C 177.625 161.442, 175.297 162.099, 173.827 162.418 C 172.357 162.738, 169.882 164.062, 168.327 165.362 C 166.055 167.261, 163.985 167.820, 157.781 168.210 C 150.650 168.659, 149.895 168.517, 147.857 166.348 C 144.943 163.246, 141.284 163.282, 139.852 166.426 C 138.203 170.044, 142.043 176, 146.023 176 C 147.595 176, 149.160 176.450, 149.500 177 C 150.403 178.461, 154.346 178.222, 157.636 176.506 C 159.211 175.685, 161.175 174.991, 162 174.965 C 163.417 174.921, 166.349 172.961, 174.130 166.856 C 178.363 163.535, 186.339 162.299, 190 164.397 C 191.375 165.185, 196.775 167.915, 202 170.463 C 207.225 173.012, 212.175 175.457, 213 175.896 C 213.825 176.335, 215.680 178.420, 217.122 180.529 C 219.498 184.004, 220.211 184.392, 224.718 184.660 C 228.916 184.910, 230.050 184.575, 231.986 182.515 C 234.171 180.189, 234.201 179.956, 232.625 177.550 C 231.715 176.162, 229.290 174.098, 227.235 172.964 C 225.181 171.830, 222.375 170.263, 221 169.482 C 219.625 168.700, 214.450 166.199, 209.500 163.924 C 200.428 159.753, 192.636 158.416, 184.500 159.632 M 86.376 180.461 C 86.045 181.326, 86.070 183.263, 86.432 184.767 C 89.241 196.413, 89.245 196.977, 86.556 202.655 C 85.141 205.645, 81.961 210.056, 79.491 212.457 C 77.021 214.857, 75 217.662, 75 218.688 C 75 221.960, 77.889 225, 80.998 225 C 83.335 225, 84.718 223.907, 88.273 219.250 C 95.037 210.390, 97.895 203.663, 98.575 195 C 98.990 189.722, 98.742 186.315, 97.737 183.500 C 96.376 179.688, 96.090 179.486, 91.644 179.195 C 88.128 178.965, 86.831 179.277, 86.376 180.461 M 49.006 183.236 C 42.955 186.357, 36 193.491, 36 196.576 C 36 197.285, 35.043 198.169, 33.873 198.540 C 32.311 199.036, 31.183 198.548, 29.623 196.699 C 27.144 193.762, 16.433 188.005, 13.441 188.002 C 9.625 187.998, 7.826 190.233, 8.177 194.540 L 8.500 198.500 14.704 200 C 21.633 201.675, 26.376 205.461, 30.683 212.755 C 32.065 215.096, 33.939 217.433, 34.848 217.950 C 36.231 218.736, 36.297 219.221, 35.250 220.931 C 32.201 225.911, 35.948 232.103, 41.034 230.489 C 42.207 230.117, 47.739 225.805, 53.327 220.906 C 58.915 216.008, 63.997 212, 64.621 212 C 65.245 212, 66.358 211.273, 67.095 210.385 C 68.244 209.001, 68.101 208.500, 66.090 206.872 L 63.745 204.973 65.872 199.853 C 67.131 196.825, 68 192.568, 68 189.435 C 68 184.728, 67.676 183.905, 65.096 182.068 C 60.987 179.142, 56.281 179.484, 49.006 183.236 M 162 182.040 C 162 183.557, 165.798 190.757, 166.986 191.491 C 167.544 191.836, 168 192.976, 168 194.025 C 168 195.074, 168.767 197.541, 169.705 199.508 C 171.329 202.913, 171.321 203.249, 169.531 206.572 L 167.653 210.060 161.576 209.394 C 158.234 209.028, 153.479 207.664, 151.008 206.364 C 148.537 205.064, 146.062 204, 145.508 204 C 144.232 204, 138.015 198.193, 131.308 190.737 C 125.758 184.567, 121.390 182.620, 119.151 185.318 C 116.489 188.525, 119.153 192.750, 132.097 205.848 C 138.622 212.452, 142.772 214.654, 154.114 217.529 C 170.148 221.593, 179 219.297, 179 211.073 C 179 206.036, 175.393 193.980, 172.994 191 C 171.887 189.625, 169.855 186.813, 168.478 184.750 C 166.143 181.251, 162 179.518, 162 182.040 M 49.182 195.500 C 47.548 196.875, 45.851 198, 45.410 198 C 44.970 198, 43.347 199.209, 41.805 200.687 C 38.947 203.425, 38.107 207.330, 40.110 208.568 C 40.760 208.970, 40.994 210.652, 40.673 212.627 C 40.289 214.993, 40.510 216, 41.412 216 C 43.974 216, 52.248 206.429, 55.108 200.157 C 56.698 196.668, 58 193.631, 58 193.407 C 58 191.918, 51.647 193.426, 49.182 195.500" stroke="none" fill="black" fill-rule="evenodd"/>
</svg>