<svg xmlns="http://www.w3.org/2000/svg" width="300" height="300" viewBox="0 0 300 300" version="1.1">
	<path d="M 148 35.011 C 140.013 40.541, 132.654 45.141, 128.140 47.429 C 123.779 49.639, 123 50.462, 123 52.862 C 123 55.694, 125.611 59, 127.849 59 C 128.504 59, 130.822 57.875, 133 56.500 C 135.178 55.125, 137.566 54, 138.306 54 C 139.046 54, 140.674 52.912, 141.923 51.582 C 143.173 50.251, 146.130 48.592, 148.494 47.894 C 153.129 46.525, 154.472 45.674, 157.382 42.259 C 159.121 40.218, 159.144 39.869, 157.685 37.642 C 155.312 34.021, 151.088 32.874, 148 35.011 M 60.465 43.927 C 59.346 44.394, 57.814 45.519, 57.060 46.428 C 55.850 47.886, 56.361 48.678, 61.434 53.199 C 67.091 58.241, 67.169 58.385, 66.542 62.571 C 66.155 65.149, 66.317 67.078, 66.952 67.470 C 68.286 68.295, 68.328 72, 67.003 72 C 66.454 72, 64.317 73.514, 62.253 75.364 C 57.417 79.698, 52.861 82, 49.117 82 C 45.673 82, 44.427 84.363, 45.870 88.159 C 47.473 92.375, 49.601 93.492, 52.460 91.618 C 53.818 90.728, 55.895 90, 57.075 90 C 58.255 90, 62.208 87.858, 65.860 85.241 C 69.512 82.624, 74.439 79.169, 76.810 77.564 C 83.841 72.802, 84.636 69.389, 79.314 66.804 C 76.675 65.522, 76.518 65.097, 76.786 59.968 C 77.046 55.020, 76.707 53.977, 73.227 49 C 69.939 44.298, 68.881 43.469, 65.940 43.289 C 64.048 43.174, 61.584 43.461, 60.465 43.927 M 136.014 63.483 C 135.154 64.519, 134.890 68.212, 135.140 75.733 C 135.336 81.655, 135.133 87.063, 134.689 87.750 C 133.401 89.745, 126.045 89.350, 125.396 87.250 C 125.098 86.287, 124.437 84.719, 123.927 83.764 C 123.417 82.809, 123 81.211, 123 80.214 C 123 79.216, 122.495 77.895, 121.878 77.278 C 120.203 75.603, 118 76.893, 118 79.548 C 118 80.832, 117.609 82.124, 117.131 82.419 C 115.363 83.511, 114.985 90.662, 116.530 93.760 C 119.032 98.776, 120.297 99.308, 128.463 98.784 C 136.236 98.285, 138 98.935, 138 102.297 C 138 104.240, 127.843 114.782, 121.204 119.729 C 119.167 121.247, 117.275 122.758, 117 123.087 C 116.725 123.416, 114.250 125.386, 111.500 127.464 C 105.169 132.249, 103.989 135.621, 107.550 138.750 C 110.572 141.405, 111.581 141.491, 116.346 139.500 C 118.320 138.675, 120.830 138, 121.924 138 C 123.017 138, 126.169 136.669, 128.928 135.042 C 131.688 133.415, 135.195 131.953, 136.723 131.792 L 139.500 131.500 140.275 154.500 C 141.870 201.838, 140.963 284.183, 138.800 288.327 C 138.276 289.332, 137.272 292.370, 136.570 295.077 L 135.293 300 142.101 300 L 148.909 300 149.475 296.750 C 149.787 294.962, 150.174 280.429, 150.336 264.453 C 150.498 248.478, 150.926 234.929, 151.286 234.346 C 152.113 233.007, 151.314 144.279, 150.422 138.327 C 149.530 132.379, 151.566 125.439, 154.889 123.102 C 158.304 120.699, 170.630 114.361, 180.031 110.173 C 184.139 108.343, 190.200 105.517, 193.500 103.894 C 196.800 102.271, 199.993 100.956, 200.595 100.972 C 202.124 101.011, 205 97.652, 205 95.826 C 205 93.632, 201.723 91, 198.990 91 C 195.684 91, 158.180 108.873, 156.017 111.479 C 154.059 113.838, 151.073 113.322, 149.975 110.435 C 148.455 106.435, 148.742 105.427, 152.750 100.686 C 154.813 98.246, 158.637 93.306, 161.250 89.707 C 166.670 82.241, 167.288 78.558, 163.686 75.174 C 160.227 71.925, 156.418 72.382, 152.255 76.545 C 146.920 81.880, 145.597 80.998, 145 71.702 C 144.477 63.563, 143.595 62.046, 139.372 62.015 C 138.202 62.007, 136.691 62.667, 136.014 63.483 M 64.279 103.982 C 61.458 107.125, 60.212 107.840, 58.367 107.377 C 56.490 106.906, 55.830 107.316, 55.015 109.460 C 53.396 113.718, 53.736 119.961, 55.626 120.687 C 57.882 121.552, 64.021 119.193, 66.886 116.360 C 68.199 115.062, 69.617 114, 70.038 114 C 70.458 114, 71.761 112.375, 72.933 110.389 C 75.216 106.519, 74.936 103.442, 72.104 101.286 C 69.485 99.290, 68.046 99.786, 64.279 103.982 M 60.638 123.500 C 60.322 124.325, 60.298 125.612, 60.585 126.360 C 60.872 127.108, 59.958 129.085, 58.553 130.754 C 55.790 134.039, 55.422 136.052, 57.035 139.066 C 58.118 141.088, 62.431 141.729, 63.485 140.024 C 63.817 139.488, 66.543 137.419, 69.544 135.427 C 74.015 132.460, 75 131.294, 75 128.974 C 75 125.119, 72.396 122.715, 68.795 123.243 C 67.209 123.476, 65.680 123.292, 65.397 122.833 C 64.537 121.441, 61.252 121.902, 60.638 123.500 M 69.332 159.366 C 64.334 161.155, 54.218 168.225, 53.079 170.726 C 51.747 173.650, 49.511 173.608, 45.925 170.591 C 44.351 169.266, 40.686 167.433, 37.781 166.519 C 34.876 165.605, 31.458 164.348, 30.185 163.725 C 26.853 162.095, 24.569 163.883, 24.185 168.421 C 23.775 173.278, 25.097 174.688, 30.800 175.474 C 35.428 176.112, 44.607 181.620, 45.499 184.295 C 45.720 184.958, 46.391 187.412, 46.989 189.750 C 47.620 192.213, 48.667 194, 49.480 194 C 51.658 194, 52.175 195.682, 50.509 197.348 C 48.464 199.393, 48.608 203.295, 50.831 206.040 C 52.977 208.690, 55.719 208.345, 61.073 204.749 C 62.958 203.484, 66.525 201.833, 69 201.081 C 71.475 200.329, 75.330 198.879, 77.566 197.857 C 79.802 196.836, 82.096 196, 82.664 196 C 83.232 196, 84.515 194.185, 85.515 191.967 C 87.862 186.762, 86.760 185.418, 81.370 186.914 C 79.241 187.505, 77.162 187.991, 76.750 187.994 C 75.277 188.005, 76.035 185.278, 78 183.500 C 79.100 182.505, 80 180.558, 80 179.174 C 80 177.790, 80.626 175.947, 81.391 175.079 C 82.156 174.210, 83.050 171.700, 83.378 169.500 C 83.886 166.093, 83.569 165.040, 81.237 162.399 C 78.080 158.821, 73.859 157.746, 69.332 159.366 M 63.870 175.719 C 58.211 181.012, 56.548 183.774, 55.696 189.300 C 55.146 192.862, 55.247 193.056, 57.305 192.404 C 59.418 191.735, 65.053 185.954, 69.750 179.637 C 72.381 176.100, 72.798 171, 70.457 171 C 69.609 171, 66.644 173.123, 63.870 175.719" stroke="none" fill="black" fill-rule="evenodd"/>
</svg>