<svg xmlns="http://www.w3.org/2000/svg" width="300" height="300" viewBox="0 0 300 300" version="1.1">
	<path d="M 111.515 21.976 C 111.183 22.513, 110.900 29.671, 110.886 37.882 C 110.869 47.881, 110.389 54.381, 109.431 57.564 C 106.441 67.499, 108.744 69.954, 115 63.500 C 117.126 61.307, 119.346 59.998, 120.946 59.994 C 122.351 59.990, 124.850 59.254, 126.500 58.357 C 128.150 57.461, 130.850 56.085, 132.500 55.300 C 134.150 54.515, 136.175 53.464, 137 52.964 C 137.825 52.464, 140.075 51.292, 142 50.360 C 147.708 47.595, 149 46.030, 149 41.880 C 149 39.091, 148.463 37.783, 146.996 36.998 C 144.248 35.527, 137.469 37.435, 133.303 40.851 C 126.463 46.461, 124.124 48, 122.439 48 C 120.845 48, 120.747 47.009, 121.308 36.542 L 121.922 25.084 119.326 23.042 C 116.587 20.887, 112.530 20.334, 111.515 21.976 M 51.411 48.371 C 51.122 49.125, 52.036 51.438, 53.443 53.510 C 56.444 57.933, 56.492 58.320, 54.431 61.464 C 53.559 62.795, 53.004 65.333, 53.181 67.179 C 53.434 69.809, 53.998 70.570, 55.897 70.839 C 57.694 71.093, 59.258 70.091, 62.145 66.839 C 65.664 62.875, 65.997 62.003, 65.999 56.750 C 66 49.152, 64.007 47, 56.969 47 C 53.629 47, 51.760 47.461, 51.411 48.371 M 146.899 74.280 C 143.818 76.051, 140.531 78.137, 139.595 78.916 C 138.660 79.696, 135.973 81.271, 133.624 82.416 C 128.097 85.113, 121 91.238, 121 93.311 C 121 96.746, 127.214 98.051, 131.846 95.589 C 133.306 94.813, 135.862 93.675, 137.526 93.060 C 139.190 92.446, 142.115 90.607, 144.026 88.974 C 148.642 85.028, 150.775 85.108, 151.398 89.250 C 152.501 96.582, 154.057 114.157, 154.475 124 C 154.720 129.775, 155.198 135.445, 155.538 136.601 C 155.898 137.827, 155.571 139.286, 154.751 140.106 C 153.042 141.815, 141.656 144.466, 139.529 143.650 C 137.965 143.049, 137.334 138, 138.823 138 C 139.574 138, 140.423 136.457, 145.374 126.096 C 146.268 124.224, 146.975 122.199, 146.945 121.596 C 146.836 119.442, 141.086 115.858, 138.260 116.183 L 135.500 116.500 135 126.205 C 134.701 132.004, 133.997 136.410, 133.250 137.155 C 132.563 137.840, 132 139.815, 132 141.545 C 132 145.577, 130.095 147.149, 121.687 150.058 C 114.138 152.669, 112.375 152.004, 113.584 147 C 115.992 137.033, 116.958 129.692, 117.466 117.500 C 117.788 109.800, 118.301 102.691, 118.608 101.703 C 119.817 97.802, 111.558 90.670, 109.565 93.894 C 109.261 94.386, 108.532 102.374, 107.944 111.644 C 106.653 132.011, 106.082 138.027, 105.249 140 C 104.901 140.825, 104.140 143.929, 103.558 146.897 C 102.976 149.866, 101.825 152.640, 101 153.061 C 100.175 153.483, 95 154.367, 89.500 155.026 C 84 155.684, 78.193 156.848, 76.596 157.612 C 74.999 158.375, 73.157 159, 72.501 159 C 70.502 159, 68 162.504, 68 165.306 C 68 167.025, 68.874 168.527, 70.492 169.587 C 72.842 171.126, 73.340 171.078, 79.242 168.746 C 82.684 167.385, 88.537 165.973, 92.250 165.608 L 99 164.944 99.005 167.722 C 99.010 170.429, 96.644 178.751, 94.879 182.236 C 93.704 184.557, 93.759 192.681, 94.964 194.934 C 96.268 197.370, 100.863 198.138, 107.227 196.985 C 110.127 196.460, 116.775 195.577, 122 195.024 C 134.237 193.729, 144.396 191.713, 149.761 189.518 C 153.354 188.047, 154.276 187.984, 155.640 189.116 C 157.068 190.301, 157.192 192.858, 156.699 210.979 C 156.104 232.850, 154.728 241.236, 151.637 241.831 C 150.684 242.015, 149.280 241.647, 148.516 241.014 C 146.879 239.654, 143 228.147, 143 224.648 C 143 221.393, 140.354 220.471, 138.885 223.215 C 138.112 224.660, 137.960 228.274, 138.418 234.345 C 139.015 242.253, 139.453 243.784, 142.052 247.065 C 143.676 249.117, 147.238 252.227, 149.965 253.978 L 154.924 257.160 158.712 254.336 C 163.708 250.610, 163.966 250.180, 163.990 245.500 C 164.002 243.300, 164.513 239.700, 165.126 237.500 C 165.780 235.153, 166.294 223.812, 166.370 210.056 L 166.500 186.612 169.855 184.652 C 174.205 182.112, 179.279 181.039, 191.199 180.137 C 198.511 179.584, 201.402 178.946, 202.949 177.547 C 205.608 175.140, 205.546 172.858, 202.750 170.248 C 199.506 167.220, 195.652 166.523, 192.312 168.361 C 190.765 169.212, 185.675 170.434, 181 171.076 C 176.325 171.717, 171.089 172.456, 169.365 172.717 L 166.229 173.192 165.402 162.846 C 164.946 157.156, 164.557 152.099, 164.537 151.609 C 164.492 150.516, 165.944 149.800, 173 147.442 C 179.543 145.256, 187.734 144.255, 206.154 143.390 L 219.809 142.750 221.993 139.796 C 224.581 136.296, 224.106 132.925, 220.777 131.158 C 218.979 130.204, 215.763 130.256, 205.500 131.406 C 198.350 132.206, 190.475 133.333, 188 133.908 C 173.646 137.247, 169.787 138, 167.044 138 L 164 138 164.001 128.750 C 164.003 120.350, 162.721 97.260, 161.361 81.183 C 160.873 75.413, 160.552 74.698, 157.663 72.936 C 153.603 70.460, 153.528 70.470, 146.899 74.280 M 58.336 73.265 C 57.145 73.944, 53.603 76.027, 50.465 77.892 C 47.326 79.758, 42.684 82.072, 40.148 83.035 C 34.240 85.278, 33.115 87.001, 35.342 90.399 C 37.427 93.581, 41.432 93.834, 46.790 91.122 C 48.830 90.089, 51.916 88.939, 53.646 88.565 C 55.377 88.192, 57.584 87.012, 58.551 85.943 C 59.519 84.874, 61.062 84, 61.981 84 C 62.900 84, 64.630 82.958, 65.826 81.686 C 71.086 76.086, 65.128 69.388, 58.336 73.265 M 50.158 105 C 48.726 106.937, 47.057 108, 45.449 108 C 43.782 108, 42.591 108.803, 41.852 110.426 C 40.197 114.058, 44.043 120, 48.049 120 C 50.367 120, 51.729 118.948, 54.968 114.659 C 57.185 111.722, 59 108.212, 59 106.859 C 59 101.418, 53.640 100.291, 50.158 105 M 51.082 128.846 C 50.501 129.933, 48.421 131.813, 46.459 133.025 C 43.293 134.982, 42.927 135.637, 43.196 138.858 C 43.430 141.651, 44.117 142.780, 46.179 143.764 C 48.570 144.904, 49.493 144.719, 54.744 142.050 C 61.319 138.709, 63.825 135.411, 62.157 132.293 C 60.669 129.513, 58.963 128.330, 55.320 127.551 C 52.755 127.003, 51.934 127.254, 51.082 128.846 M 149.256 153.032 C 147.472 153.424, 145.335 154.307, 144.506 154.995 C 142.813 156.400, 142.466 161.552, 144 162.500 C 145.377 163.351, 145.261 173.334, 143.838 176.457 C 143.198 177.860, 142.913 179.246, 143.203 179.537 C 143.494 179.827, 146.379 179.478, 149.616 178.761 L 155.500 177.457 155.781 165.781 C 156.097 152.685, 155.565 151.646, 149.256 153.032 M 125.412 159.971 C 124.264 160.436, 120.802 161.131, 117.719 161.516 C 111.195 162.331, 109.392 163.939, 108.766 169.500 C 108.519 171.700, 107.701 175.640, 106.949 178.255 C 105.750 182.427, 105.772 183.201, 107.131 184.560 C 108.519 185.947, 109.834 185.958, 119.762 184.662 C 131.766 183.094, 133.422 182.542, 132.593 180.381 C 132.294 179.602, 132.792 177.406, 133.701 175.501 C 135.115 172.536, 135.180 171.291, 134.153 166.844 C 132.379 159.158, 130.696 157.834, 125.412 159.971 M 51.687 170.805 C 50.209 172.347, 49 174.092, 49 174.682 C 49 175.272, 48.325 176.315, 47.500 177 C 46.675 177.685, 46 179.035, 46 180 C 46 183.726, 43.421 184.291, 39.038 181.524 C 36.776 180.096, 31.826 178.228, 28.039 177.373 C 19.853 175.524, 15.684 176.708, 15.247 181.007 C 14.773 185.668, 17.935 188.148, 25.326 188.913 C 30.795 189.479, 32.525 190.125, 35.076 192.551 C 38.613 195.913, 41 200.033, 41 202.776 C 41 205.368, 45.164 209.135, 46.867 208.082 C 47.602 207.628, 49.845 207.627, 51.852 208.079 C 55.837 208.978, 57.259 208.346, 63.428 202.929 C 67.432 199.413, 69.980 194.858, 70.045 191.096 C 70.070 189.668, 70.665 187.151, 71.368 185.503 C 72.983 181.714, 71.104 176.061, 66.630 171.250 C 64.062 168.489, 62.913 168, 58.991 168 C 55.238 168, 53.871 168.525, 51.687 170.805 M 51.798 183.733 C 49.212 185.805, 47.074 188.266, 47.048 189.203 C 46.978 191.675, 49.135 196, 50.438 196 C 55.967 196, 63.079 181.181, 58 180.243 C 57.175 180.091, 54.384 181.661, 51.798 183.733" stroke="none" fill="black" fill-rule="evenodd"/>
</svg>