<svg xmlns="http://www.w3.org/2000/svg" width="300" height="300" viewBox="0 0 300 300" version="1.1">
	<path d="M 132.519 46.250 C 132.088 47.539, 130.750 82.001, 130.820 90 C 130.841 92.475, 131.572 96.188, 132.443 98.250 C 133.843 101.565, 134.432 102, 137.517 102 C 139.437 102, 142.642 101.124, 144.641 100.052 C 146.888 98.848, 149.304 98.311, 150.974 98.645 C 153.201 99.090, 154.402 98.424, 157.826 94.842 C 160.110 92.454, 161.983 89.739, 161.989 88.809 C 161.995 87.879, 162.450 86.840, 163 86.500 C 164.396 85.637, 164.252 79.652, 162.800 78.200 C 159.992 75.392, 155.326 76.827, 148.821 82.500 C 145.353 85.525, 141.949 88, 141.257 88 C 140.095 88, 139.400 83.063, 139.780 77.500 C 139.855 76.400, 139.970 71.282, 140.036 66.126 C 140.102 60.970, 140.609 55.758, 141.162 54.544 C 141.896 52.933, 141.753 51.346, 140.635 48.668 C 139.340 45.569, 138.624 45, 136.020 45 C 134.324 45, 132.749 45.563, 132.519 46.250 M 48.454 76.410 C 46.620 77.751, 46.611 77.912, 48.263 79.738 C 49.218 80.794, 50 82.331, 50 83.154 C 50 83.978, 51.125 85.708, 52.500 87 C 54.704 89.070, 55 90.176, 55 96.328 C 55 103.230, 54.954 103.350, 50.853 107.136 C 48.540 109.271, 45.212 111.245, 43.328 111.598 C 39.475 112.321, 37 115.242, 37 119.068 C 37 121.673, 39.662 125, 41.747 125 C 43.520 125, 52.877 120.032, 53.722 118.643 C 54.150 117.939, 56.668 115.888, 59.318 114.087 C 65.278 110.034, 65.885 108.571, 62.918 105.413 C 60.657 103.005, 60.636 102.828, 62.251 99.714 C 65.441 93.563, 65.438 89.862, 62.236 83.922 C 60.191 80.129, 58.617 78.398, 56.994 78.159 C 55.719 77.972, 54.041 77.184, 53.266 76.409 C 51.506 74.649, 50.863 74.649, 48.454 76.410 M 105 98.121 C 101.583 99.479, 97 104.011, 97 106.032 C 97 108.399, 100.240 111.011, 103.079 110.934 C 105.721 110.861, 113.638 105.553, 115.400 102.674 C 116.292 101.214, 116.054 100.509, 114.139 98.937 C 111.563 96.824, 108.868 96.583, 105 98.121 M 137.667 108.667 C 136.512 109.821, 136.953 114.386, 138.506 117.364 C 139.328 118.940, 140 122.771, 140 125.879 C 140 133.086, 135.849 141.939, 129.136 149.052 C 124.802 153.644, 123.982 154.099, 120.558 153.815 C 116.082 153.443, 113.743 155.775, 115.607 158.750 C 117.054 161.059, 124.379 161.587, 128.420 159.673 C 130.114 158.870, 132.840 157.821, 134.479 157.340 C 136.117 156.860, 138.011 155.349, 138.688 153.983 C 140.803 149.714, 146.200 144, 148.117 144 C 149.126 144, 151.425 144.898, 153.226 145.996 C 155.027 147.094, 157.566 147.994, 158.870 147.996 C 161.093 148, 167.634 149.904, 183 155.021 C 186.575 156.212, 190.686 157.413, 192.135 157.690 C 195.473 158.328, 199 156.483, 199 154.100 C 199 151.533, 195.481 147.347, 192.773 146.692 C 191.523 146.389, 184.425 144.480, 177 142.448 C 169.575 140.417, 160.480 138.549, 156.789 138.297 L 150.078 137.839 150.193 126.222 L 150.308 114.605 146.487 111.303 C 142.923 108.221, 139.219 107.114, 137.667 108.667 M 109.223 120.671 C 108.521 120.954, 107.091 122.861, 106.046 124.909 C 105.001 126.958, 103.438 129.221, 102.573 129.939 C 101.708 130.657, 101 132.084, 101 133.109 C 101 134.279, 99.751 135.495, 97.647 136.374 C 94.799 137.564, 94.181 138.432, 93.549 142.138 C 92.114 150.541, 93.196 155, 96.670 155 C 99.815 155, 106 145.928, 106 141.314 C 106 140.006, 106.675 137.320, 107.500 135.346 C 108.325 133.371, 109 130.922, 109 129.902 C 109 128.883, 109.898 126.575, 110.996 124.774 C 112.094 122.973, 112.994 121.162, 112.996 120.750 C 113 119.919, 111.189 119.881, 109.223 120.671 M 45.665 138.532 C 38.475 146.419, 35.863 151.925, 38.057 154.568 C 38.710 155.356, 40.134 156, 41.220 156 C 43.546 156, 52.747 146.523, 53.625 143.224 C 53.958 141.972, 55.078 140.493, 56.115 139.938 C 59.646 138.049, 58.008 130.972, 54.050 131.018 C 53.197 131.028, 49.424 134.409, 45.665 138.532 M 50.589 156.077 C 49.165 157.769, 48 159.749, 48 160.478 C 48 161.206, 46.425 162.732, 44.500 163.867 C 38.852 167.200, 40.056 173.787, 46.196 173.143 C 50.719 172.669, 54.378 169.806, 57.421 164.362 C 60.525 158.809, 60.599 157.599, 58 155 C 55.248 152.248, 53.611 152.486, 50.589 156.077 M 146 190.589 C 142.425 191.366, 137.250 192.500, 134.500 193.109 C 129.154 194.294, 123.018 197.774, 123.007 199.628 C 123.003 200.248, 122.309 201.329, 121.464 202.030 C 120.181 203.095, 119.471 202.868, 117.159 200.652 C 114.087 197.709, 108.594 197.010, 107.661 199.442 C 106.264 203.082, 108.275 207.984, 112.628 211.552 C 115.033 213.522, 117 215.977, 117 217.008 C 117 218.039, 117.415 219.139, 117.923 219.452 C 118.431 219.766, 119.150 221.480, 119.522 223.261 C 122.588 237.955, 127.318 243.742, 131.298 237.668 C 132.647 235.610, 132.660 234.545, 131.416 228.607 C 130.640 224.906, 129.554 221.035, 129.003 220.005 C 127.446 217.096, 127.751 210.033, 129.462 209.376 C 130.266 209.068, 131.182 208.002, 131.498 207.007 C 131.813 206.013, 133.293 204.914, 134.786 204.565 C 136.279 204.216, 138.850 203.320, 140.500 202.573 C 142.150 201.826, 145.746 200.690, 148.492 200.047 C 153.198 198.945, 153.589 199.009, 155.340 201.171 C 157.536 203.884, 157.114 209.558, 154.130 217.419 C 151.354 224.730, 137.771 241, 134.442 241 C 133.605 241, 131.114 241.921, 128.907 243.047 C 124.997 245.042, 124.902 245.215, 125.197 249.765 C 125.450 253.659, 125.956 254.690, 128.241 255.968 C 130.476 257.216, 131.308 257.267, 132.741 256.243 C 133.709 255.551, 135.625 254.503, 137 253.913 C 138.375 253.323, 141.950 251.651, 144.944 250.196 C 149.908 247.785, 151.408 247.558, 161.953 247.622 C 171.516 247.681, 174.360 248.066, 178.386 249.846 C 181.063 251.031, 183.796 252, 184.458 252 C 185.974 252, 187.685 248.548, 188.428 243.991 C 188.901 241.090, 188.610 240.231, 186.750 239.040 C 185.513 238.247, 182.700 237.492, 180.500 237.362 C 161.534 236.236, 155.450 235.783, 155.141 235.474 C 154.943 235.277, 155.761 233.740, 156.957 232.060 C 160.626 226.908, 166 215.728, 166 213.248 C 166 211.957, 166.717 209.514, 167.594 207.819 C 169.507 204.119, 168.858 197.940, 166.075 193.363 C 163.275 188.760, 157.860 188.012, 146 190.589 M 56.648 196.556 C 51.222 200.396, 48 204.046, 48 206.352 C 48 207.197, 46.921 209.143, 45.602 210.676 L 43.204 213.464 38.188 208.773 C 32.927 203.851, 30.128 202.628, 25.371 203.172 C 22.918 203.452, 22.453 203.993, 22.176 206.888 C 21.599 212.929, 22.567 214.675, 26.874 215.364 C 30.543 215.951, 34.149 218.601, 38.045 223.573 C 42.557 229.330, 46.036 235.133, 45.498 236.003 C 44.803 237.127, 49.724 244, 51.225 244 C 51.768 244, 53.852 242.714, 55.856 241.141 C 57.860 239.569, 60.677 237.657, 62.116 236.891 C 64.948 235.386, 73 226.505, 73 224.887 C 73 224.342, 71.635 223.420, 69.967 222.839 C 66.562 221.652, 66.560 221.687, 70.621 211.578 C 74.086 202.952, 73.832 198.736, 69.656 195.551 C 65.256 192.195, 62.510 192.407, 56.648 196.556 M 53.159 213.413 C 46.990 219.837, 46.133 221.346, 48 222.500 C 48.550 222.840, 49 224.006, 49 225.090 C 49 226.175, 49.692 227.328, 50.537 227.653 C 52.416 228.373, 56 225.321, 56 223 C 56 222.070, 56.853 220.538, 57.895 219.595 C 58.938 218.651, 60.036 216.669, 60.335 215.190 C 60.634 213.710, 61.184 211.262, 61.556 209.750 C 62.680 205.186, 59.891 206.403, 53.159 213.413" stroke="none" fill="black" fill-rule="evenodd"/>
</svg>