<svg xmlns="http://www.w3.org/2000/svg" width="300" height="300" viewBox="0 0 300 300" version="1.1">
	<path d="M 113.569 46.255 C 112.756 47.494, 111.348 53.682, 110.440 60.005 C 109.531 66.327, 108.386 71.928, 107.894 72.450 C 107.402 72.973, 107 74.408, 107 75.641 C 107 76.874, 106.550 78.160, 106 78.500 C 105.450 78.840, 105 79.779, 105 80.587 C 105 81.396, 103.479 85.307, 101.619 89.278 C 99.760 93.250, 97.510 98.188, 96.619 100.250 C 95.729 102.313, 94.286 105.613, 93.413 107.585 C 92.537 109.563, 90.295 112.073, 88.413 113.184 C 84.442 115.527, 83.780 119.586, 86.907 122.415 C 88.720 124.056, 88.987 124.027, 92.354 121.820 C 94.301 120.544, 96.795 117.697, 97.896 115.494 C 98.996 113.291, 100.730 110.591, 101.748 109.494 C 105.032 105.958, 113.774 88.040, 115.407 81.500 C 115.819 79.850, 116.717 77.825, 117.404 77 C 118.090 76.175, 119.233 72.350, 119.944 68.500 C 120.655 64.650, 121.815 60.150, 122.522 58.500 C 126.210 49.887, 124.540 44, 118.408 44 C 116.023 44, 114.617 44.655, 113.569 46.255 M 48.200 61.200 C 46.188 63.212, 46.737 69.677, 49.106 71.884 C 50.376 73.067, 50.906 74.343, 50.440 75.096 C 48.697 77.918, 48.151 84.484, 49.532 86.023 C 50.284 86.860, 50.584 88.023, 50.199 88.606 C 48.749 90.807, 38.432 97, 36.218 97 C 33.416 97, 29 101.180, 29 103.832 C 29 104.890, 29.682 106.321, 30.516 107.013 C 32.649 108.783, 42.841 107.477, 45.473 105.096 C 46.588 104.088, 48.807 102.953, 50.404 102.574 C 53.804 101.767, 61.906 96.408, 62.648 94.475 C 63.316 92.734, 60.256 86.312, 58.423 85.609 C 56.429 84.844, 56.658 82.074, 59.035 78.175 C 61.233 74.569, 61.002 70.009, 58.356 64.780 C 56.145 60.410, 50.855 58.545, 48.200 61.200 M 146 81.512 C 145.175 81.710, 142.363 82.154, 139.750 82.498 C 136.030 82.987, 135 83.522, 135 84.963 C 135 87.226, 138.464 88.588, 150.368 91.009 C 157.801 92.521, 159.693 93.313, 162.062 95.906 C 165.681 99.869, 170.576 100.145, 173.928 96.576 C 175.971 94.402, 176.086 93.792, 175.052 90.656 C 174.417 88.733, 173.358 86.718, 172.699 86.177 C 170.341 84.244, 149.661 80.631, 146 81.512 M 47.316 119.250 C 45.624 121.037, 43.737 123.481, 43.122 124.680 C 42.507 125.879, 41.037 127.004, 39.854 127.180 C 34.120 128.033, 36.044 136, 41.984 136 C 45.367 136, 47.732 133.833, 52.695 126.185 C 55.986 121.114, 56.071 120.758, 54.549 118.435 C 52.430 115.201, 50.996 115.363, 47.316 119.250 M 126 126.430 C 124.075 127.702, 121.643 129.701, 120.595 130.871 C 118.109 133.649, 115.592 133.568, 113.285 130.636 C 109.694 126.069, 100.257 123.157, 98.463 126.060 C 97.029 128.381, 102.714 138, 105.519 138 C 107.378 138, 109.501 141.050, 111.955 147.248 C 114.816 154.475, 114.202 162.418, 110.436 166.894 C 107.022 170.951, 106.948 173.793, 110.193 176.258 C 112.643 178.121, 113.093 178.171, 115.193 176.811 C 116.462 175.989, 118.634 175.038, 120.020 174.697 C 121.406 174.356, 124.556 172.745, 127.020 171.116 C 129.484 169.487, 132.717 167.851, 134.205 167.480 C 137.719 166.604, 142.381 160.564, 141.662 157.817 C 141.341 156.589, 142.106 154.209, 143.563 151.901 C 144.903 149.777, 146 146.771, 146 145.220 C 146 143.669, 146.534 141.866, 147.188 141.212 C 148.767 139.633, 148.275 131.349, 146.434 128.540 C 143.103 123.456, 132.205 122.331, 126 126.430 M 132 135.934 C 132 136.520, 131.447 137, 130.772 137 C 130.096 137, 127.827 138.878, 125.729 141.174 C 122.077 145.168, 121.926 145.608, 122.207 151.424 C 122.463 156.724, 122.768 157.538, 124.602 157.800 C 126.732 158.104, 133 152.141, 133 149.810 C 133 149.193, 134.153 147.177, 135.562 145.330 C 139.101 140.691, 138.696 135.638, 134.750 135.184 C 133.238 135.010, 132 135.347, 132 135.934 M 46.500 145.878 C 41.772 147.484, 36.977 150.497, 36.436 152.203 C 34.750 157.514, 38.921 163.560, 43.481 162.415 C 47.472 161.414, 55 153.731, 55 150.661 C 55 146.105, 51.550 144.164, 46.500 145.878 M 225.785 166.548 C 225.484 166.850, 225.600 168.762, 226.044 170.798 C 227.567 177.793, 229.174 199.521, 229.371 215.791 C 229.539 229.687, 229.330 232.296, 227.952 233.543 C 226.519 234.840, 218.048 236.838, 214 236.833 C 213.175 236.833, 205.975 237.147, 198 237.533 C 170.004 238.886, 163.875 238.649, 157.084 235.951 C 149.542 232.955, 149.106 231.838, 148.329 213.500 C 147.949 204.515, 147.318 199.768, 146.288 198.131 C 145.393 196.707, 145.025 194.627, 145.366 192.920 C 145.679 191.356, 145.499 189.809, 144.967 189.480 C 144.435 189.151, 144 188.034, 144 186.997 C 144 185.960, 142.928 183.865, 141.618 182.342 C 139.444 179.815, 138.996 179.681, 136.511 180.813 C 134.043 181.938, 133.852 182.397, 134.475 185.720 C 136.791 198.061, 138.755 218.918, 138.363 227 C 137.972 235.047, 141.788 242.327, 147.500 244.433 C 151.506 245.911, 172.896 248.826, 176.647 248.406 C 178.766 248.168, 188.600 247.494, 198.500 246.907 C 231.358 244.960, 231.473 244.940, 236.788 240.081 C 241.288 235.967, 242.936 231.728, 241.146 228.863 C 240.516 227.853, 240 224.163, 240 220.663 C 240 217.162, 239.550 212.994, 239.001 211.399 C 238.451 209.805, 237.558 204.675, 237.016 200 C 234.584 179.023, 229.237 163.096, 225.785 166.548 M 51 189.637 C 45.612 191.586, 42.643 193.603, 38.685 198.005 C 36.053 200.933, 33.341 203, 32.132 203 C 30.997 203, 27.208 201.427, 23.710 199.505 C 16.615 195.605, 9.466 194.145, 6.150 195.920 C 3.629 197.269, 3.453 199.042, 5.456 202.915 C 6.674 205.271, 7.762 205.843, 12.117 206.421 C 14.979 206.801, 18.261 207.773, 19.411 208.581 C 20.560 209.389, 23.075 210.495, 25 211.040 C 26.925 211.585, 29.662 213.062, 31.082 214.323 C 34.487 217.346, 39.260 227.158, 38.407 229.381 C 37.537 231.649, 41.615 236, 44.611 236 C 45.855 236, 50.379 234.650, 54.663 233 C 58.948 231.350, 62.915 229.997, 63.477 229.994 C 64.969 229.985, 75 220.523, 75 219.125 C 75 216.645, 71.402 216.764, 62.250 219.549 C 60.430 220.102, 60 219.845, 60 218.200 C 60 217.082, 60.337 216.017, 60.750 215.833 C 62.183 215.196, 66 207.213, 65.994 204.864 C 65.985 200.804, 64 195.107, 61.703 192.547 C 59.513 190.105, 53.914 188.583, 51 189.637 M 107.509 197.986 C 107.174 198.528, 106.481 201.565, 105.970 204.736 C 105.259 209.141, 103.856 212.206, 100.020 217.737 C 97.259 221.717, 95 225.234, 95 225.553 C 95 226.154, 89.976 233.117, 88.905 234 C 87.501 235.159, 86.191 238.684, 86.820 239.612 C 87.194 240.164, 88.595 241.365, 89.933 242.280 C 92.323 243.915, 92.462 243.854, 97.933 238.722 C 100.995 235.850, 103.506 232.968, 103.513 232.317 C 103.520 231.667, 104.532 230.063, 105.763 228.753 C 106.993 227.443, 108 225.790, 108 225.080 C 108 224.370, 109.125 222.452, 110.500 220.818 C 111.875 219.184, 113 217.200, 113 216.410 C 113 215.619, 113.450 214.079, 114 212.986 C 114.550 211.894, 115.450 210.106, 116 209.014 C 116.550 207.921, 117 206.330, 117 205.478 C 117 203.806, 114.188 198.961, 112.523 197.765 C 111.052 196.709, 108.221 196.833, 107.509 197.986 M 49.500 202 C 49.160 202.550, 47.853 203, 46.596 203 C 41.688 203, 39.309 209.160, 42.946 212.451 C 44.016 213.420, 45.029 215.817, 45.196 217.779 C 45.363 219.740, 45.980 221.503, 46.567 221.695 C 49.232 222.568, 57.042 206.158, 55.667 202.575 C 55.001 200.838, 50.479 200.416, 49.500 202" stroke="none" fill="black" fill-rule="evenodd"/>
</svg>