<svg xmlns="http://www.w3.org/2000/svg" width="300" height="300" viewBox="0 0 300 300" version="1.1">
	<path d="M 112.223 38.557 C 109.456 40.495, 109.418 42.822, 112.071 47.911 C 115.158 53.834, 115.019 63.844, 111.654 78 C 110.151 84.325, 108.562 91.075, 108.123 93 C 107.685 94.925, 106.148 98.222, 104.707 100.326 C 101.272 105.342, 100.568 107.775, 102.040 109.548 C 103.669 111.511, 106.706 111.378, 108.831 109.250 C 111.161 106.916, 116 99.314, 116 97.986 C 116 95.647, 119.318 92.089, 122.062 91.486 C 123.665 91.134, 125.226 90.444, 125.530 89.952 C 125.834 89.460, 128 88.209, 130.342 87.173 C 132.685 86.137, 136.213 83.874, 138.183 82.144 C 140.152 80.415, 142.072 79, 142.449 79 C 142.825 79, 144.566 77.926, 146.317 76.613 C 151.766 72.525, 158.138 70, 163.001 70 C 168.572 70, 171.750 72.845, 174.535 80.328 C 178.438 90.817, 176.149 127.662, 169.832 156 C 169.281 158.475, 168.422 163.875, 167.925 168 C 167.080 175.008, 166.238 180.470, 163.916 194 C 162.300 203.412, 159.978 218.284, 159.348 223.250 C 158.470 230.170, 156.445 229.534, 146.746 219.292 C 142.211 214.503, 137.297 209.328, 135.827 207.792 C 133.159 205.005, 129.654 204.133, 128.517 205.972 C 128.187 206.507, 130.340 210.445, 133.303 214.722 C 136.266 219, 138.989 223.333, 139.353 224.351 C 140.268 226.909, 143.423 230.844, 150.773 238.592 C 155.954 244.054, 157.456 245.102, 159.397 244.615 C 164.124 243.429, 166.122 240.763, 166.994 234.474 C 168.823 221.284, 171.075 208.364, 171.957 206 C 172.885 203.514, 174.431 193.807, 178.011 168 C 179.041 160.575, 180.555 151.125, 181.376 147 C 185.157 127.985, 187.027 106.454, 186.313 90.142 C 185.841 79.350, 185.619 78.393, 181.847 70.936 C 176.902 61.159, 173.701 58.867, 164.729 58.683 C 159.796 58.581, 157.356 59.120, 153 61.272 C 140.822 67.288, 131.900 72.740, 126.854 77.250 C 123.931 79.863, 121.179 82, 120.738 82 C 119.070 82, 118.914 79.066, 120.428 76.140 C 121.292 74.468, 122 72.052, 122 70.772 C 122 69.492, 122.709 67.433, 123.575 66.196 C 125.179 63.906, 125.132 54.808, 123.461 44.232 C 122.428 37.695, 117.212 35.062, 112.223 38.557 M 54.250 49.989 C 51.579 51.617, 51 52.595, 51 55.472 C 51 58.504, 51.453 59.162, 54.378 60.385 C 58.777 62.222, 58.991 62.687, 57.894 68.009 C 57.385 70.479, 56.838 73.728, 56.679 75.229 C 56.323 78.571, 52.569 82.802, 48.371 84.592 C 46.650 85.326, 43.950 87.001, 42.371 88.314 C 40.792 89.628, 38.492 91.233, 37.260 91.881 C 36.029 92.529, 34.330 94.395, 33.486 96.027 C 32.095 98.718, 32.104 99.230, 33.590 101.498 C 34.492 102.874, 35.291 104, 35.365 103.999 C 35.439 103.999, 37.924 103.078, 40.888 101.951 C 48.120 99.202, 69 82.437, 69 79.378 C 69 78.709, 68.213 76.786, 67.250 75.104 C 65.802 72.573, 65.716 71.700, 66.750 70.037 C 68.591 67.077, 68.326 57.455, 66.314 54.215 C 64.190 50.793, 60.948 48.050, 59 48.026 C 58.175 48.016, 56.038 48.899, 54.250 49.989 M 123.928 115.977 C 118.769 118.704, 114 123.471, 114 125.901 C 114 129.192, 110.473 128.556, 109 125 C 107.988 122.556, 107.168 122, 104.579 122 C 102.830 122, 100.860 122.540, 100.200 123.200 C 98.126 125.274, 98.899 131.844, 102.118 139.500 C 103.458 142.686, 104.788 165.021, 103.871 168.938 C 103.129 172.110, 103.336 172.746, 105.769 174.745 C 108.973 177.379, 109.076 177.396, 111.409 175.690 C 112.703 174.744, 113.349 172.527, 113.737 167.690 C 114.216 161.715, 114.500 161.001, 116.387 161.005 C 117.549 161.007, 121.758 159.824, 125.740 158.374 C 131.055 156.440, 133.326 156.026, 134.280 156.818 C 135.959 158.211, 135.696 174.457, 133.960 176.548 C 133.243 177.412, 130.986 178, 128.388 178 C 125.987 178, 121.654 178.900, 118.761 179.999 C 115.867 181.099, 112.548 181.999, 111.385 181.999 C 110.222 182, 108.135 182.893, 106.747 183.984 C 104.367 185.856, 104.297 186.177, 105.497 189.669 C 107.403 195.214, 110.042 195.710, 117.829 191.990 C 123.780 189.148, 124.820 188.960, 131.123 189.581 C 142.928 190.744, 144.055 188.692, 144.621 165 C 145.528 127.031, 145.153 122.495, 140.696 117.461 C 137.946 114.354, 137.113 114.005, 132.566 114.044 C 129.606 114.070, 126.015 114.873, 123.928 115.977 M 48.619 121 C 45.855 125.177, 45.671 125.270, 40 125.412 C 36.620 125.497, 36.504 125.628, 36.612 129.232 C 36.674 131.284, 37.292 133.647, 37.985 134.482 C 39.989 136.897, 45.733 136.391, 48.348 133.569 C 49.587 132.232, 51.766 130.846, 53.191 130.488 C 58.133 129.248, 62.008 122.751, 60.020 119.038 C 59.214 117.532, 57.930 117, 55.098 117 C 51.735 117, 50.942 117.490, 48.619 121 M 123.182 127.500 C 121.548 128.875, 119.601 130.014, 118.856 130.032 C 114.642 130.131, 113.430 133.916, 113.825 145.750 C 114.042 152.255, 115.316 152.488, 122.867 147.403 C 127.926 143.996, 128.895 143.797, 134 145.113 C 137.553 146.029, 135.560 127.906, 131.892 125.942 C 128.983 124.385, 126.318 124.862, 123.182 127.500 M 50.578 141.988 C 47.321 145.272, 43.162 148.452, 41.336 149.054 C 35.460 150.993, 34.870 155.847, 40.176 158.591 C 42.893 159.996, 43.358 159.945, 46.799 157.857 C 52.838 154.194, 58.417 149.738, 61.820 145.860 L 65.014 142.220 61.472 139.110 C 59.524 137.399, 57.609 136.004, 57.215 136.009 C 56.822 136.013, 53.835 138.704, 50.578 141.988 M 55.500 179.491 C 54.950 179.675, 53.252 180.101, 51.727 180.437 C 50.202 180.774, 45.779 183.963, 41.898 187.525 C 38.018 191.086, 34.418 194, 33.900 194 C 33.381 194, 31.233 192.859, 29.126 191.465 C 26.020 189.409, 24.554 189.048, 21.385 189.554 C 15.640 190.473, 13.602 192.279, 14.459 195.693 C 15.481 199.764, 16.855 200.999, 20.372 201.007 C 23.431 201.013, 26.648 202.686, 30.554 206.302 C 31.624 207.292, 33.608 208.926, 34.962 209.933 C 36.866 211.347, 37.372 212.548, 37.192 215.224 C 37.016 217.832, 37.614 219.341, 39.616 221.343 C 42.871 224.598, 44.058 224.647, 47.673 221.678 C 49.228 220.402, 53.519 218.060, 57.208 216.474 C 60.898 214.889, 65.484 212.155, 67.400 210.400 C 70.403 207.649, 70.777 206.816, 70.115 204.355 C 69.538 202.212, 68.742 201.500, 66.923 201.500 C 64.828 201.500, 64.542 201.094, 64.814 198.500 C 66.325 184.047, 66.230 182.275, 63.855 180.611 C 61.759 179.143, 58.039 178.644, 55.500 179.491 M 48.250 196.579 C 45.362 199.629, 43 202.497, 43 202.951 C 43 203.406, 43.904 204.841, 45.009 206.139 L 47.019 208.500 49.979 205.075 C 55.193 199.040, 57.422 192.274, 54.500 191.349 C 53.950 191.175, 51.138 193.529, 48.250 196.579" stroke="none" fill="black" fill-rule="evenodd"/>
</svg>