<svg xmlns="http://www.w3.org/2000/svg" width="300" height="300" viewBox="0 0 300 300" version="1.1">
	<path d="M 51 48.882 C 48.080 49.397, 47.446 49.970, 47.175 52.335 C 46.916 54.598, 47.706 55.959, 51.093 59.086 C 54.943 62.640, 55.380 63.535, 55.812 68.747 C 56.112 72.361, 56.884 74.962, 57.894 75.764 C 59.325 76.898, 59.142 77.324, 56.227 79.665 C 54.427 81.109, 49.702 83.976, 45.727 86.035 C 38.911 89.565, 38.509 89.962, 38.661 93.014 C 38.750 94.794, 39.523 96.951, 40.379 97.808 C 41.789 99.217, 42.919 98.879, 52.298 94.240 C 57.997 91.421, 63.241 88.414, 63.952 87.557 C 64.663 86.701, 66.450 86, 67.922 86 C 71.456 86, 73 84.304, 73 80.422 C 73 76.867, 71.777 75.484, 67.735 74.470 C 64.437 73.642, 63.368 72.232, 64.887 70.713 C 66.490 69.110, 66.256 63.858, 64.384 59.372 C 62.389 54.593, 57.240 47.954, 55.666 48.132 C 55.025 48.204, 52.925 48.542, 51 48.882 M 123 64.040 C 115.514 66.367, 101.818 73.046, 101.291 74.626 C 101.095 75.215, 101.798 76.764, 102.854 78.068 L 104.774 80.439 118.137 77.128 C 134.064 73.182, 136.609 73.270, 139.701 77.873 C 143.018 82.812, 142.846 95.821, 139.337 105.250 C 136.346 113.289, 134.255 114.018, 130.740 108.250 C 125.951 100.391, 125.620 99.332, 126.948 96.125 C 128.342 92.760, 126.938 88.578, 123.750 86.597 C 120.342 84.480, 117.621 88.425, 114.880 99.458 C 114.339 101.635, 113.273 104.785, 112.511 106.458 C 109.674 112.684, 108 117.292, 107.999 118.872 C 107.998 119.767, 106.431 123.650, 104.516 127.500 C 100.911 134.747, 100.292 137.444, 101.992 138.495 C 103.621 139.502, 105.782 137.722, 109.236 132.529 C 111.031 129.830, 113.288 126.469, 114.252 125.061 C 115.216 123.652, 116.698 120.925, 117.547 119 C 120.565 112.153, 121.359 111, 123.054 111 C 123.998 111, 125.485 112.091, 126.359 113.425 C 129.126 117.648, 134.416 121.991, 136.800 121.995 C 142.987 122.008, 146.546 117.679, 149.419 106.648 C 150.232 103.528, 151.143 100.577, 151.444 100.090 C 151.746 99.603, 152.053 93.870, 152.127 87.352 C 152.248 76.671, 152.037 75.122, 149.985 71.671 C 144.935 63.176, 134.905 60.339, 123 64.040 M 55.878 107.279 C 54.020 109.141, 51.496 111.808, 50.269 113.204 C 49.042 114.600, 46.679 116.014, 45.019 116.346 C 42.502 116.850, 42 117.427, 42 119.820 C 42 123.360, 44.749 126, 48.435 126 C 51.444 126, 57.463 121.847, 62.796 116.091 C 65.565 113.102, 66.045 111.891, 65.796 108.517 C 65.524 104.826, 65.247 104.475, 62.378 104.196 C 59.935 103.958, 58.522 104.629, 55.878 107.279 M 56.973 131.678 C 48.466 137.452, 45.806 143.516, 50.446 146.557 C 53.129 148.314, 52.983 148.370, 60.765 142.656 C 66.672 138.319, 67.410 135.673, 63.686 132.174 C 60.902 129.559, 60.173 129.506, 56.973 131.678 M 137.500 155.710 C 134.750 156.536, 131.068 158.289, 129.317 159.606 C 127.566 160.923, 125.839 162, 125.480 162 C 123.952 162, 116.338 168.237, 114.500 170.994 C 113.400 172.644, 111.797 173.996, 110.938 173.997 C 110.078 173.999, 106.856 171.354, 103.777 168.120 C 99.281 163.398, 97.422 162.144, 94.339 161.756 C 90.137 161.226, 87 163.049, 87 166.021 C 87 166.962, 88.946 169.255, 91.324 171.116 C 97.491 175.943, 101.135 180.541, 104.799 188.123 C 106.560 191.765, 108 195.105, 108 195.544 C 108 195.983, 108.597 197.053, 109.327 197.921 C 110.057 198.790, 111.424 202.370, 112.367 205.877 C 113.910 211.625, 113.927 212.423, 112.540 213.956 C 110.574 216.128, 110.580 218.956, 112.557 221.777 C 114.460 224.495, 116.890 224.589, 121.296 222.114 C 123.143 221.077, 126.869 219.906, 129.577 219.511 C 136.206 218.544, 153.883 218.778, 162.500 219.947 C 174.396 221.562, 182.440 221.276, 184.345 219.171 C 186.439 216.858, 186.468 213.633, 184.410 211.926 C 183.358 211.053, 176.621 210.201, 164.485 209.408 C 154.399 208.749, 145.665 207.911, 145.074 207.546 C 143.350 206.480, 143.820 204.930, 146.508 202.815 C 149.396 200.543, 158.983 184.783, 159.035 182.219 C 159.055 181.274, 159.714 179.375, 160.500 178 C 162.618 174.295, 162.349 166.731, 159.935 162.099 C 157.345 157.132, 156.587 156.554, 150.807 155.144 C 145.087 153.750, 143.852 153.802, 137.500 155.710 M 135.703 167.831 C 129.160 171.578, 121.394 178.416, 118.531 182.950 L 116.161 186.705 118.576 193.602 C 119.905 197.396, 120.993 202.412, 120.996 204.750 C 120.999 208.178, 121.349 209, 122.804 209 C 127.790 209, 140.412 197.354, 145.858 187.730 C 155.581 170.545, 150.013 159.636, 135.703 167.831 M 59.913 170.018 C 56.063 170.677, 51.968 173.232, 48.076 177.402 C 45.167 180.519, 42.937 180.693, 40.493 177.993 C 37.978 175.213, 33.700 173.228, 28.570 172.458 C 22.668 171.573, 20 173.105, 20 177.380 C 20 181.435, 22.586 184, 26.675 184 C 32.714 184, 37.529 187.719, 42.213 196 C 45.665 202.104, 46.416 206.206, 44.867 210.490 C 43.713 213.683, 43.785 214.230, 45.601 216.045 C 47.532 217.976, 47.777 217.991, 51.557 216.412 C 53.726 215.507, 56.978 213.469, 58.785 211.883 C 60.591 210.297, 62.645 209, 63.348 209 C 64.051 209, 65.835 207.738, 67.313 206.195 C 69.507 203.905, 70 202.460, 70 198.321 C 70 195.533, 70.642 191.432, 71.426 189.209 C 73.934 182.101, 74.405 176.266, 72.682 173.637 C 70.840 170.825, 64.949 169.156, 59.913 170.018 M 57.527 184.147 C 53.776 188.357, 51.966 195.817, 53.939 198.936 C 55.565 201.506, 58.185 198.303, 63.451 187.306 C 66.497 180.944, 62.351 178.733, 57.527 184.147" stroke="none" fill="black" fill-rule="evenodd"/>
</svg>