<svg xmlns="http://www.w3.org/2000/svg" width="300" height="300" viewBox="0 0 300 300" version="1.1">
	<path d="M 186.377 41.548 C 184.894 43.811, 184.846 44.955, 185.944 51.798 C 186.624 56.034, 187.591 62.650, 188.093 66.500 C 188.595 70.350, 189.450 76.425, 189.994 80 C 193.723 104.515, 194.499 117.925, 194.450 157 C 194.423 178.725, 194.100 201.450, 193.733 207.500 C 193.366 213.550, 192.784 235.150, 192.440 255.500 C 192.095 275.850, 191.406 292.927, 190.907 293.450 C 190.408 293.972, 190 295.660, 190 297.200 C 190 299.972, 190.063 300, 196.334 300 L 202.668 300 202.728 284.250 C 202.790 267.879, 203.874 224.045, 204.540 211 C 205.945 183.484, 206.713 123.380, 205.673 122.340 C 205.303 121.970, 205 119.690, 205 117.275 C 205 112.367, 203.440 97.158, 201.843 86.500 C 200.083 74.750, 199.272 68.036, 198.041 55 C 197.015 44.148, 196.572 42.272, 194.680 40.772 C 191.532 38.277, 188.323 38.577, 186.377 41.548 M 66.685 52.795 C 64.943 54.720, 64.479 58.666, 65.765 60.610 C 66.169 61.221, 67.985 62.482, 69.801 63.412 C 72.500 64.796, 72.977 65.505, 72.417 67.302 C 71.428 70.478, 66.071 77, 64.451 77 C 62.916 77, 61 80.017, 61 82.434 C 61 85.374, 64.953 84.023, 70.315 79.250 C 73.249 76.638, 76.854 73.490, 78.325 72.257 C 79.796 71.023, 81 69.329, 81 68.493 C 81 67.657, 81.514 66.151, 82.141 65.146 C 83.735 62.594, 82.441 56.750, 79.735 54.279 C 78.506 53.157, 75.446 51.945, 72.935 51.586 C 69.214 51.054, 68.059 51.277, 66.685 52.795 M 70 85.972 C 65.875 89.768, 60.785 93.691, 58.689 94.687 C 52.214 97.767, 50.323 106, 56.091 106 C 59.310 106, 73.845 97.944, 79.019 93.293 C 82.645 90.033, 84 88.084, 84 86.130 C 84 82.775, 81.435 78.989, 79.193 79.034 C 78.262 79.053, 74.125 82.175, 70 85.972 M 155 86.525 C 155 87.363, 153.875 88.477, 152.500 89 C 151.125 89.523, 150 90.714, 150 91.647 C 150 92.579, 149.281 94.137, 148.402 95.108 C 146.440 97.276, 147.458 99.694, 149.589 97.926 C 152.175 95.780, 153.997 98.634, 154.024 104.872 C 154.037 107.968, 154.503 112.300, 155.059 114.500 C 155.616 116.700, 156.055 129.137, 156.035 142.139 C 156.002 163.656, 156.164 165.981, 157.844 168.055 C 160.157 170.912, 162.333 170.187, 164.608 165.801 C 166.055 163.013, 166.313 159.550, 166.272 143.500 C 166.222 123.793, 162.866 88.776, 160.785 86.250 C 159.306 84.454, 155 84.659, 155 86.525 M 118.039 88.189 C 115.465 90.951, 115.429 95.390, 117.952 98.932 C 119.025 100.439, 120.138 103.884, 120.425 106.586 C 120.712 109.289, 121.360 113.750, 121.865 116.500 C 123.250 124.040, 120.988 161.285, 118.910 165.169 C 117.248 168.273, 117.814 173.806, 119.859 174.455 C 122.708 175.359, 124.870 174.097, 126.395 170.641 C 130.977 160.256, 131.290 158.632, 131.238 145.500 C 131.209 138.350, 131.523 132.050, 131.935 131.500 C 133.273 129.712, 131.381 102.830, 129.621 98.628 C 128.730 96.498, 128 93.764, 128 92.552 C 128 90.016, 124.153 86, 121.725 86 C 120.819 86, 119.160 86.985, 118.039 88.189 M 72.041 114.670 C 70.689 115.625, 68.280 117.889, 66.688 119.703 C 63.547 123.280, 59.226 124.361, 60.506 121.250 C 62.319 116.848, 62.256 116, 60.117 116 C 58.952 116, 58 116.164, 58 116.364 C 58 116.563, 57.545 119.125, 56.990 122.055 C 55.998 127.285, 56.039 127.445, 59.225 130.732 C 61.722 133.309, 62.396 134.788, 62.148 137.153 C 61.786 140.606, 63.758 140.764, 65.502 137.421 C 66.399 135.702, 71.372 128.542, 77.785 119.738 C 79.042 118.012, 79.938 115.903, 79.776 115.050 C 79.358 112.842, 74.938 112.625, 72.041 114.670 M 72.354 137.671 C 71.174 137.914, 69.417 138.987, 68.449 140.056 C 67.482 141.125, 65.690 142, 64.467 142 C 63.245 142, 61.800 142.563, 61.256 143.250 C 59.748 145.156, 59.933 154.037, 61.492 154.635 C 63.247 155.309, 70.483 151.584, 75.805 147.267 C 79.452 144.310, 80.063 143.296, 79.805 140.638 C 79.487 137.362, 77.574 136.600, 72.354 137.671 M 70.738 175.578 C 63.325 179.599, 56.319 185.230, 53.727 189.250 C 51.516 192.678, 49.510 192.711, 44.632 189.396 C 42.029 187.627, 38.962 186.626, 35.066 186.272 C 28.269 185.656, 25 187.017, 25 190.463 C 25 193.801, 29.101 196.689, 34.993 197.499 C 42.034 198.467, 49 203.851, 49 208.323 C 49 212.522, 51.279 215.683, 54.876 216.473 C 56.456 216.820, 58.784 218.205, 60.049 219.552 C 62.935 222.624, 65.670 222.659, 68.945 219.664 C 70.350 218.380, 73.750 216.537, 76.500 215.570 C 79.250 214.603, 83.026 213.127, 84.892 212.291 C 86.757 211.456, 90.020 210.539, 92.142 210.254 C 94.587 209.926, 96 209.211, 96 208.302 C 96 207.512, 97.160 205.346, 98.577 203.488 C 103.187 197.443, 100.008 192.489, 94.366 196.927 C 90.521 199.952, 88.593 199.681, 89.552 196.250 C 89.975 194.738, 90.412 191.195, 90.523 188.378 C 90.634 185.560, 91.030 182.760, 91.404 182.156 C 92.357 180.614, 89.462 176.532, 86.439 175.154 C 82.907 173.545, 74.046 173.784, 70.738 175.578 M 68.101 190.015 C 64.031 192.682, 60.326 195.457, 59.866 196.182 C 58.678 198.056, 58.803 202.760, 60.062 203.538 C 60.646 203.899, 61.534 205.276, 62.037 206.597 C 62.539 207.919, 63.597 209, 64.388 209 C 65.179 209, 68.510 206.357, 71.790 203.127 C 76.126 198.858, 78.218 195.861, 79.450 192.150 C 82.378 183.336, 79.203 182.739, 68.101 190.015" stroke="none" fill="black" fill-rule="evenodd"/>
</svg>