<svg xmlns="http://www.w3.org/2000/svg" width="300" height="300" viewBox="0 0 300 300" version="1.1">
	<path d="M 145.473 48.360 C 143.507 49.716, 134.448 54.709, 124 60.195 C 112.198 66.392, 103 74.270, 103 78.182 C 103 83.205, 108.550 84.711, 112.699 80.813 C 114.255 79.351, 115.359 78.959, 116.029 79.629 C 118.091 81.691, 119.354 108.146, 118.127 123.597 C 117.039 137.304, 113.794 154.319, 111.862 156.450 C 111.388 156.973, 111 158.662, 111 160.204 C 111 161.746, 110.100 164.686, 109 166.739 C 105.749 172.805, 106.689 177.307, 110.752 175.133 C 113.331 173.752, 119.986 160.643, 122.081 152.813 C 123.959 145.799, 126.450 141.073, 128.365 140.894 C 128.989 140.836, 130.698 140.865, 132.161 140.960 C 134.848 141.134, 135.349 140.704, 144.345 130.500 C 146.623 127.916, 148.200 126.854, 148.797 127.500 C 149.335 128.082, 149.433 132.894, 149.032 139 C 148.652 144.775, 148.648 155.125, 149.023 162 C 149.398 168.875, 149.606 177.633, 149.486 181.461 L 149.267 188.423 141.423 190.139 C 137.109 191.083, 133.074 192.545, 132.457 193.389 C 131.094 195.253, 131.734 200.534, 133.499 202 C 135.342 203.528, 139.985 203.495, 143.736 201.926 C 145.974 200.990, 147.293 200.893, 148.011 201.611 C 149.164 202.764, 149.576 295.336, 148.440 298.295 C 147.871 299.778, 148.525 300, 153.473 300 L 159.159 300 158.357 293.250 C 157.916 289.538, 157.562 267.945, 157.570 245.267 C 157.584 205.103, 157.638 203.962, 159.659 201.267 C 161.907 198.270, 163.562 198.069, 177.864 199.059 C 183.081 199.421, 184.426 199.193, 185.330 197.795 C 186.211 196.433, 185.936 195.559, 183.967 193.453 C 180.241 189.470, 178.319 188.757, 168.153 187.581 L 158.806 186.500 158.433 171.500 C 157.865 148.634, 157.892 137.142, 158.532 130 C 158.852 126.425, 159.110 122.310, 159.105 120.856 C 159.099 118.889, 160.685 116.753, 165.299 112.513 C 181.796 97.351, 184.143 94.710, 183.493 92.040 C 182.573 88.267, 179.630 85.665, 177.166 86.447 C 176.028 86.809, 173.837 88.781, 172.298 90.830 C 169.079 95.117, 161.637 102.098, 154.722 107.319 C 145.562 114.234, 136.893 122.536, 133.435 127.706 C 131.519 130.569, 129.512 133.183, 128.976 133.515 C 128.439 133.847, 128 134.991, 128 136.059 C 128 137.127, 127.550 138, 127 138 C 125.598 138, 125.751 134.758, 127.588 125.500 C 128.829 119.244, 129.045 114.011, 128.574 101.500 C 127.944 84.711, 126.675 79.666, 122.769 78.427 C 120.409 77.678, 120.499 75, 122.885 75 C 123.922 75, 125.475 73.924, 126.337 72.609 C 127.198 71.294, 131.638 68.341, 136.202 66.046 C 152.539 57.834, 156 55.266, 156 51.361 C 156 47.400, 149.537 45.558, 145.473 48.360 M 56 50.288 C 54.235 51.176, 53.406 52.514, 53.182 54.838 C 52.787 58.924, 54.410 61, 58 61 C 62.325 61, 63.123 62.826, 62.364 70.991 C 61.705 78.083, 61.736 78.219, 63.846 77.549 C 68.359 76.117, 66.031 79.703, 58.126 86.361 C 53.727 90.066, 51.782 91.008, 47.406 91.555 C 40.645 92.400, 39.660 93.531, 40.896 99.034 C 42.308 105.316, 46.124 106.814, 51 103 C 52.375 101.924, 54.136 101.034, 54.912 101.022 C 57.258 100.985, 65.198 95.404, 70.319 90.194 C 74.644 85.794, 75.105 84.891, 74.819 81.396 C 74.514 77.671, 74.357 77.511, 71.250 77.754 C 67.346 78.059, 67.191 77.114, 70.500 73.182 C 72.576 70.716, 73 69.164, 73 64.040 C 73 57.600, 72.131 55.017, 68.701 51.250 C 66.347 48.666, 60.154 48.197, 56 50.288 M 58.707 117.500 C 55.632 121.354, 53 122.073, 53 119.059 C 53 116.506, 51.279 115.524, 49.456 117.036 C 48.552 117.787, 48 120.061, 48 123.034 C 48 127.114, 48.439 128.191, 50.964 130.316 C 53.743 132.655, 53.890 133.134, 53.314 137.994 C 52.965 140.940, 52.118 143.401, 51.350 143.696 C 49.383 144.451, 49.697 147.345, 52.073 150.365 C 54.435 153.369, 56.286 153.621, 60.364 151.494 C 61.940 150.672, 63.842 150, 64.591 150 C 65.341 150, 66.691 148.875, 67.592 147.499 C 68.494 146.124, 70.417 144.433, 71.866 143.742 C 74.814 142.336, 75.942 137.840, 73.950 135.440 C 72.364 133.529, 66.578 133.599, 64.960 135.548 C 63.123 137.762, 59.568 136.977, 59.183 134.273 C 58.965 132.736, 60.090 130.877, 62.813 128.273 C 65.697 125.516, 66.948 123.366, 67.461 120.287 C 68.313 115.178, 67.700 114, 64.191 114 C 62.314 114, 60.655 115.059, 58.707 117.500 M 63.500 183.912 C 56.031 186.463, 53.194 188.056, 51.491 190.654 C 49.456 193.760, 47.962 193.613, 44.465 189.963 C 41.455 186.821, 32.125 183.354, 29.447 184.382 C 28.461 184.760, 28 186.476, 28 189.769 C 28 194.800, 29.236 197, 32.062 197 C 32.976 197, 35.812 198.688, 38.363 200.750 C 42.016 203.702, 43.554 205.939, 45.594 211.265 C 47.070 215.116, 49.057 218.495, 50.208 219.111 C 51.864 219.998, 52.124 220.849, 51.643 223.812 C 51.181 226.660, 51.513 227.917, 53.202 229.715 C 55.278 231.924, 59.485 232.827, 60.167 231.209 C 60.350 230.773, 62.188 229.145, 64.250 227.590 C 66.313 226.035, 68 224.171, 68 223.449 C 68 222.726, 68.860 221.862, 69.911 221.528 C 70.962 221.195, 73.032 219.336, 74.509 217.399 C 75.987 215.461, 78.253 213.474, 79.544 212.983 C 81.186 212.359, 82.099 210.991, 82.578 208.436 C 83.356 204.289, 82.247 203.039, 78.435 203.768 C 76.284 204.179, 76 203.876, 76 201.176 C 76 199.494, 76.450 197.840, 77 197.500 C 79.942 195.682, 76.615 185.057, 72.519 183.191 C 69.432 181.784, 69.825 181.753, 63.500 183.912 M 60.658 198.130 C 55.744 202.181, 54.427 205.476, 56.473 208.600 C 57.313 209.881, 58 211.653, 58 212.538 C 58 213.524, 58.669 214.018, 59.727 213.814 C 60.812 213.605, 62.478 210.882, 64.207 206.491 C 68.481 195.635, 67.238 192.707, 60.658 198.130" stroke="none" fill="black" fill-rule="evenodd"/>
</svg>