<svg xmlns="http://www.w3.org/2000/svg" width="300" height="300" viewBox="0 0 300 300" version="1.1">
	<path d="M 110.465 10.952 C 106.728 12.466, 106.204 14.307, 105.755 27.500 C 105.388 38.248, 104.828 41.972, 102.518 49 C 100.981 53.675, 98.886 58.573, 97.862 59.885 C 96.838 61.197, 96 63.131, 96 64.183 C 96 65.235, 94.860 67.087, 93.466 68.298 C 91.962 69.605, 90.690 72.024, 90.335 74.250 C 89.756 77.889, 89.828 78, 92.766 78 C 95.809 78, 96.976 76.944, 104 67.830 C 105.375 66.045, 107.265 62.879, 108.201 60.793 C 109.264 58.423, 110.582 57, 111.714 57 C 112.711 57, 115.831 55.448, 118.648 53.551 C 121.465 51.654, 124.046 50.379, 124.385 50.718 C 126.445 52.778, 123.035 57.355, 106.500 74.724 C 99.525 82.051, 97.565 84.724, 97.790 86.605 C 97.983 88.212, 97.476 89.245, 96.290 89.663 C 85.304 93.538, 80.551 96.436, 80.178 99.489 C 79.567 104.480, 83.757 106.435, 89.480 103.827 C 93.039 102.205, 95.061 104.071, 93.117 107.184 C 92.384 108.358, 91.365 111.834, 90.853 114.909 C 87.566 134.640, 84.983 143.246, 76.538 162.592 C 75.599 164.742, 74.484 167.178, 74.059 168.007 C 73.634 168.836, 71.616 173.786, 69.574 179.007 C 67.532 184.228, 65.450 189.175, 64.948 190 C 64.446 190.825, 63.112 193.525, 61.984 196 C 60.855 198.475, 59.504 201.175, 58.981 202 C 57.420 204.462, 55.001 210.037, 51.994 218.101 C 48.091 228.569, 41.292 242.837, 38.337 246.762 C 35.056 251.118, 35.319 257.333, 38.805 257.827 C 41.614 258.225, 43.862 256.483, 45.678 252.500 C 46.431 250.850, 48.590 246.800, 50.476 243.500 C 52.362 240.200, 53.927 236.550, 53.953 235.390 C 53.979 234.229, 55.033 231.754, 56.295 229.890 C 57.558 228.025, 59.387 224.475, 60.360 222 C 62.360 216.916, 67.132 205.965, 70.602 198.500 C 71.880 195.750, 74.014 191.025, 75.343 188 C 76.673 184.975, 78.455 180.925, 79.303 179 C 80.150 177.075, 81.801 173.025, 82.970 170 C 84.139 166.975, 86.184 162.250, 87.515 159.500 C 91.411 151.446, 95.712 139.674, 96.498 134.913 C 96.898 132.486, 97.564 130.050, 97.978 129.500 C 98.989 128.154, 101.292 112.025, 101.589 104.206 C 101.844 97.512, 103.081 95, 106.122 95 C 107.866 95, 108 95.959, 108 108.451 C 108 121.399, 107.061 127.631, 103.913 135.574 C 102.314 139.607, 103.347 143.382, 106.435 144.788 C 108.622 145.785, 109.170 145.599, 111.029 143.236 C 112.190 141.761, 113.393 139.286, 113.703 137.737 C 114.368 134.409, 116.355 134.624, 116.840 138.078 C 117.028 139.410, 118.335 142.024, 119.746 143.887 C 121.853 146.669, 122.104 147.604, 121.155 149.123 C 120.520 150.140, 120 151.852, 120 152.927 C 120 155.510, 119.890 155.561, 107.339 158.836 C 93.364 162.482, 90.367 164.044, 89.789 167.983 C 89.092 172.734, 91.203 173.807, 96.851 171.572 C 99.408 170.560, 102.901 169.674, 104.613 169.603 C 106.325 169.531, 108.350 168.970, 109.113 168.355 C 109.876 167.740, 112.075 167.001, 114 166.712 C 117.342 166.212, 122.121 164.789, 132 161.353 C 134.475 160.492, 138.282 159.362, 140.461 158.842 C 142.639 158.321, 144.889 157.519, 145.461 157.060 C 146.032 156.600, 148.900 155.901, 151.833 155.507 C 154.767 155.112, 159.042 153.717, 161.333 152.407 C 163.625 151.096, 166.670 150.019, 168.101 150.012 C 174.505 149.982, 179.929 145.585, 178.418 141.647 C 177.378 138.937, 173.167 137.862, 170.001 139.499 C 168.405 140.325, 166.134 141, 164.954 141 C 163.774 141, 161.614 141.634, 160.154 142.408 C 158.694 143.183, 154.575 144.745, 151 145.879 C 147.425 147.014, 142.700 148.611, 140.500 149.427 C 138.300 150.244, 135.460 150.932, 134.189 150.956 C 132.030 150.997, 131.920 150.717, 132.518 146.732 C 133.111 142.775, 132.847 142.081, 128.902 137.232 C 124.960 132.386, 124.328 132, 120.323 132 C 116.255 132, 116 131.835, 116 129.200 C 116 127.660, 116.547 125.853, 117.216 125.184 C 118.065 124.335, 118.402 119.732, 118.333 109.924 C 118.241 96.736, 118.096 95.731, 115.947 93.444 C 114.688 92.104, 113.856 90.810, 114.098 90.569 C 114.339 90.328, 118.675 88.059, 123.733 85.526 C 128.791 82.994, 133.169 80.535, 133.462 80.062 C 133.754 79.588, 136.358 78.643, 139.247 77.961 C 149.245 75.602, 152.653 70.841, 147.686 66.174 C 143.748 62.475, 140.836 63.336, 127.636 72.105 C 117.553 78.803, 116.696 77.005, 125.474 67.573 C 132.719 59.788, 136 52.941, 136 45.605 C 136 38.544, 133.185 35, 127.577 35 C 124.496 35, 123.586 35.647, 120.193 40.250 C 118.065 43.138, 115.785 46.512, 115.127 47.750 C 114.468 48.987, 113.495 50, 112.965 50 C 111.688 50, 111.718 45.292, 113 44.500 C 113.550 44.160, 114 42.810, 114 41.500 C 114 40.190, 114.450 38.840, 115 38.500 C 115.550 38.160, 116 35.940, 116 33.567 C 116 31.193, 116.702 27.282, 117.561 24.876 C 118.867 21.214, 118.919 19.847, 117.881 16.500 C 115.860 9.988, 114.800 9.195, 110.465 10.952 M 127.030 93.463 C 124.860 96.079, 126.482 115.329, 129.306 120.469 C 131.440 124.351, 131.767 124.533, 138.180 125.398 C 144.727 126.280, 144.907 126.242, 148.814 123.148 C 150.999 121.416, 153.872 120, 155.198 120 C 158.400 120, 164 114.183, 164 110.857 C 164 107.669, 161.149 105, 157.743 105 C 155.200 105, 153.333 106.304, 150.772 109.870 C 149.255 111.982, 143.431 115, 140.872 115 C 137.952 115, 136 109.860, 136 102.172 C 136 94.836, 135.367 93.632, 130.920 92.516 C 129.172 92.077, 127.930 92.380, 127.030 93.463 M 137.500 165.419 C 135.850 166.156, 130.457 167.521, 125.515 168.452 C 120.573 169.384, 115.960 170.618, 115.265 171.195 C 113.661 172.527, 113.618 178.218, 115.200 179.800 C 116.601 181.201, 120.634 181.402, 121.432 180.110 C 121.947 179.277, 123.179 178.979, 132.750 177.370 C 134.813 177.023, 137.336 176.159, 138.358 175.450 C 139.421 174.712, 141.592 174.384, 143.434 174.683 C 147.827 175.396, 150.206 172.947, 149.803 168.126 C 149.506 164.576, 149.405 164.496, 145 164.289 C 142.525 164.174, 139.150 164.682, 137.500 165.419 M 142.500 179.205 C 140.850 179.751, 138.375 180.787, 137 181.509 C 128.080 186.188, 121.027 189.250, 118.009 189.756 C 113.605 190.493, 112 192.088, 112 195.729 C 112 201.436, 115.353 202.337, 122.757 198.618 C 134.077 192.934, 137.644 191.764, 141.620 192.432 C 145.139 193.024, 145.895 192.726, 149.750 189.232 C 154.515 184.913, 155.143 181.914, 151.777 179.557 C 149.301 177.822, 146.950 177.733, 142.500 179.205 M 147.878 202.512 C 145.337 203.323, 142.694 204.664, 142.006 205.493 C 141.318 206.322, 140.374 207, 139.909 207 C 138.659 207, 127.485 214.821, 122.634 219.091 C 120.319 221.129, 117.552 224.417, 116.485 226.398 C 115.418 228.379, 114.035 230, 113.412 230 C 112.789 230, 110.529 228.797, 108.390 227.327 C 106.250 225.857, 102.475 224.262, 100 223.782 C 97.525 223.303, 94.307 222.661, 92.849 222.356 C 89.332 221.621, 85.613 225.122, 86.536 228.301 C 87.480 231.555, 90.804 233.994, 94.361 234.044 C 99.645 234.118, 106.781 236.446, 109.470 238.971 C 110.874 240.291, 112.485 243.087, 113.050 245.185 C 113.980 248.638, 114.394 249, 117.416 249 C 119.253 249, 121.224 248.435, 121.797 247.744 C 123.624 245.543, 124.296 241.062, 123.029 239.535 C 122.341 238.706, 122.127 237.121, 122.523 235.798 C 123.882 231.258, 135.696 220.529, 146.019 214.461 C 146.991 213.889, 148.397 212.939, 149.143 212.349 C 153.895 208.590, 159.331 210.782, 157.147 215.577 C 156.516 216.961, 156 218.778, 156 219.614 C 156 222.631, 144.824 235.973, 137.892 241.232 C 130.857 246.569, 126.443 249, 123.787 249 C 118.226 249, 115.895 256.575, 120.523 259.607 C 122.838 261.124, 123.475 261.131, 128.273 259.698 C 132.064 258.566, 139.616 258.011, 155.766 257.678 C 171.249 257.358, 178.481 256.846, 179.506 255.995 C 181.434 254.395, 180.443 250.064, 177.625 247.772 C 175.294 245.877, 170.477 245.419, 169.500 247 C 169.146 247.572, 163.990 248, 157.441 248 C 150.480 248, 146 247.608, 146 247 C 146 246.450, 147.012 245.063, 148.250 243.918 C 155.887 236.851, 161.094 231.237, 161.622 229.500 C 161.956 228.400, 163.014 226.600, 163.972 225.500 C 166.180 222.965, 168.282 212.516, 167.050 210.199 C 166.553 209.265, 165.912 207.739, 165.627 206.808 C 164.212 202.197, 155.490 200.086, 147.878 202.512" stroke="none" fill="black" fill-rule="evenodd"/>
</svg>