<svg xmlns="http://www.w3.org/2000/svg" width="300" height="300" viewBox="0 0 300 300" version="1.1">
	<path d="M 130.667 21.667 C 129.625 22.708, 129.885 28.811, 131 29.500 C 131.551 29.840, 132 34.292, 132 39.404 C 132 49.669, 131.569 50.505, 125 53 C 117.586 55.816, 116.322 58.853, 120.500 63.818 C 121.875 65.452, 123 67.685, 123 68.780 C 123 70.590, 124.333 75.728, 127.185 84.908 C 127.767 86.782, 128.373 90.379, 128.532 92.901 C 128.770 96.677, 129.208 97.577, 131.019 98.004 C 133.042 98.482, 132.829 98.881, 128.347 103.012 C 125.669 105.480, 122.189 108.400, 120.614 109.500 C 119.039 110.600, 115.659 113.117, 113.104 115.092 C 104.704 121.587, 104.327 121.661, 100.158 117.641 C 88.728 106.619, 87.888 106, 84.353 106 C 79.673 106, 77 107.585, 77 110.361 C 77 112.876, 80.781 117, 83.086 117 C 84.582 117, 90.625 122.486, 97.234 129.843 C 99.287 132.129, 101.800 134, 102.818 134 C 103.836 134, 107.238 132.200, 110.379 130 C 113.519 127.800, 116.465 126, 116.926 126 C 117.386 126, 118.972 124.414, 120.451 122.475 C 121.930 120.537, 126.176 116.950, 129.888 114.504 C 133.600 112.059, 137.506 109.093, 138.569 107.914 C 139.631 106.735, 141.400 105.361, 142.500 104.861 C 146.389 103.094, 151.949 99.441, 158.187 94.555 C 161.659 91.836, 166.075 89.043, 168 88.349 C 172.863 86.596, 178 86.632, 178 88.418 C 178 90.762, 176.859 92.998, 175.643 93.036 C 171.265 93.174, 165.758 103.202, 169.311 104.566 C 171.586 105.439, 179.507 100.432, 186.179 93.904 C 191.754 88.449, 192 87.995, 192 83.155 C 192 78.533, 191.694 77.869, 188.418 75.370 L 184.836 72.638 177.168 73.924 C 168.898 75.312, 165.281 76.809, 160.334 80.889 C 158.592 82.325, 154.992 84.828, 152.334 86.451 C 149.675 88.074, 145.209 91.111, 142.409 93.201 C 139.609 95.290, 136.766 97, 136.092 97 C 134.519 97, 135.503 93.442, 138.084 89.790 C 139.138 88.300, 140 86.768, 140 86.385 C 140 86.002, 141.125 84.214, 142.500 82.411 C 143.875 80.608, 145 78.422, 145 77.553 C 145 76.684, 145.390 75.191, 145.866 74.236 C 147.244 71.473, 149.186 65.731, 149.710 62.874 C 150.237 59.997, 147.167 57, 143.694 57 C 140.884 57, 142.230 54.702, 145.568 53.799 C 148.596 52.980, 152.024 47.431, 151.978 43.422 C 151.944 40.532, 148.826 37.048, 145.476 36.156 C 142.770 35.436, 142.453 34.902, 141.980 30.265 C 141.344 24.032, 138.900 21, 134.512 21 C 132.764 21, 131.033 21.300, 130.667 21.667 M 59.655 52.829 C 56.920 55.851, 57.599 60.331, 61.500 65 C 64.117 68.132, 65 70.125, 65 72.895 C 65 74.933, 65.492 77.092, 66.093 77.693 C 67.438 79.038, 65.928 82.166, 61.826 86.529 C 58.891 89.649, 54.738 92.042, 49.500 93.631 C 45.802 94.752, 45.281 97.389, 47.913 101.660 C 49.728 104.605, 50.112 104.764, 53.525 103.994 C 55.540 103.540, 59.801 101.555, 62.995 99.584 C 66.188 97.613, 69.306 96, 69.922 96 C 71.062 96, 71.779 94.522, 73.979 87.634 C 74.972 84.525, 74.960 83.293, 73.919 81.348 C 72.882 79.411, 72.868 78.253, 73.850 75.539 C 74.524 73.675, 74.784 70.878, 74.428 69.325 C 71.019 54.450, 64.637 47.324, 59.655 52.829 M 137 58.987 C 136.175 59.465, 134.726 60.094, 133.780 60.385 C 131.111 61.206, 130.631 65.250, 132.684 69.611 C 135.139 74.824, 137.478 74.771, 137.569 69.500 C 137.607 67.300, 138.170 64.517, 138.819 63.316 C 140.149 60.857, 140.385 57.970, 139.250 58.059 C 138.838 58.091, 137.825 58.509, 137 58.987 M 138.987 113.516 C 138.044 114.652, 137.920 117.474, 138.491 124.766 C 138.911 130.120, 139.353 135.786, 139.473 137.359 C 139.649 139.657, 138.436 141.521, 133.297 146.859 C 129.780 150.511, 125.942 155.188, 124.767 157.250 C 123.264 159.889, 121.946 161, 120.316 161 C 119.042 161, 118 160.567, 118 160.037 C 118 159.508, 116.109 157.258, 113.799 155.037 C 110.459 151.828, 108.849 151, 105.954 151 C 102.180 151, 97.611 154.427, 99.540 155.811 C 100.068 156.190, 100.992 157.400, 101.592 158.500 C 102.193 159.600, 103.825 161.060, 105.219 161.745 C 108.276 163.248, 115.452 172.518, 116.253 176 C 119.155 188.621, 121.379 192.049, 124.585 188.843 C 125.900 187.529, 126.191 185.112, 126.119 176.137 C 126.035 165.630, 126.146 164.995, 128.265 163.909 C 129.494 163.279, 132.138 161.199, 134.139 159.287 C 136.298 157.224, 138.535 155.956, 139.639 156.167 C 141.335 156.492, 141.577 158.162, 142.374 175.012 C 144.264 215.015, 143.410 274.129, 140.825 282.257 C 140.257 284.040, 139.634 288.762, 139.439 292.750 L 139.086 300 144.403 300 L 149.720 300 150.520 294.250 C 151.443 287.611, 151.537 285.273, 152.418 247 C 153.056 219.234, 153.125 206.285, 152.705 193 C 152.460 185.232, 154.332 176.996, 156.751 175.205 C 157.713 174.493, 159.525 174.168, 160.778 174.481 C 164.622 175.444, 171.522 170.634, 174.105 165.190 C 175.329 162.611, 177.227 159.206, 178.323 157.623 C 179.869 155.393, 180.421 152.577, 180.782 145.085 L 181.247 135.423 177.374 130.775 C 173.909 126.618, 173.052 126.121, 169.253 126.064 C 166.124 126.017, 163.002 127.068, 157.393 130.057 C 153.206 132.288, 149.527 133.860, 149.216 133.550 C 148.906 133.239, 148.693 128.931, 148.742 123.975 C 148.831 115.031, 148.810 114.953, 145.966 113.482 C 142.329 111.602, 140.568 111.610, 138.987 113.516 M 58.777 118.750 C 57.348 120.263, 55.192 123.415, 53.985 125.756 C 52.779 128.097, 50.463 130.958, 48.840 132.114 C 44.583 135.145, 45.213 138.872, 50.410 141.409 L 54.321 143.318 57.410 139.690 C 66.401 129.134, 69 124.756, 69 120.166 C 69 117.970, 68.435 117.082, 66.750 116.630 C 62.803 115.573, 61.434 115.937, 58.777 118.750 M 158.196 143.079 C 154.729 145.300, 151.653 147.741, 151.360 148.505 C 151.067 149.268, 151.204 153.849, 151.664 158.685 C 152.681 169.383, 153.799 170.029, 160.945 164.046 C 166.970 159.002, 170 153.091, 170 146.384 C 170 137.818, 167.502 137.119, 158.196 143.079 M 59.694 146.750 C 57.258 148.813, 53.856 151.267, 52.133 152.203 C 48.472 154.194, 48.216 156.091, 51.068 160.096 C 53.698 163.789, 56.060 163.765, 60.347 160 C 62.226 158.350, 64.289 157, 64.930 157 C 66.839 157, 71 151.878, 71 149.528 C 71 147.277, 67.231 143, 65.246 143 C 64.628 143, 62.129 144.688, 59.694 146.750 M 66.907 185.327 C 64.932 185.972, 61.852 187.625, 60.063 189 C 55.864 192.228, 49 199.181, 49 200.206 C 49 201.417, 44.212 201.152, 43.437 199.898 C 42.611 198.562, 36.775 196.013, 32.020 194.912 C 28.088 194.002, 25 195.890, 25 199.203 C 25 201.983, 29.814 206, 33.146 206 C 34.716 206, 36.788 206.820, 37.750 207.822 C 43.414 213.719, 45.950 217.241, 49.042 223.500 C 51.898 229.282, 52.966 230.554, 55.177 230.809 C 56.649 230.980, 58.392 231.767, 59.049 232.559 C 60.958 234.859, 64.615 234.246, 67.183 231.195 C 68.481 229.652, 70.250 228.118, 71.114 227.786 C 71.978 227.455, 73.400 225.680, 74.273 223.842 C 75.146 222.004, 77.271 219.150, 78.995 217.501 C 81.700 214.913, 82.041 214.034, 81.489 211.087 C 81.136 209.209, 81.410 204.843, 82.098 201.385 C 83.219 195.746, 83.156 194.673, 81.491 190.980 C 79.636 186.866, 75.727 183.930, 72.300 184.077 C 71.310 184.119, 68.883 184.682, 66.907 185.327 M 68.805 196.824 C 67.873 197.196, 64.354 200.168, 60.985 203.429 C 56.110 208.147, 54.998 209.780, 55.534 211.429 C 55.905 212.568, 56.434 214.947, 56.710 216.715 C 56.985 218.483, 57.858 220.467, 58.650 221.124 C 59.817 222.093, 60.648 221.674, 63.048 218.909 C 68.210 212.962, 72.884 203.830, 72.683 200.082 C 72.490 196.476, 71.585 195.716, 68.805 196.824" stroke="none" fill="black" fill-rule="evenodd"/>
</svg>