<svg xmlns="http://www.w3.org/2000/svg" width="300" height="300" viewBox="0 0 300 300" version="1.1">
	<path d="M 146.522 26.975 C 145.073 28.577, 144.871 29.855, 145.459 33.725 C 147.017 44, 146.795 45.352, 143.262 47.118 C 141.481 48.007, 139.359 49.287, 138.546 49.962 C 135.518 52.475, 134.502 50.664, 134.840 43.359 C 135.192 35.723, 134.031 33.562, 129.900 34.173 C 126.950 34.610, 124.849 40.617, 124.793 48.776 C 124.755 54.277, 124.437 55.298, 122.213 57.047 C 120.817 58.145, 118.511 59.322, 117.088 59.663 C 115.664 60.004, 112.577 61.393, 110.227 62.750 C 103.788 66.468, 102.335 70.335, 106 74 C 108.961 76.961, 111.199 76.493, 118.505 71.386 C 122.135 68.848, 125.349 67.015, 125.647 67.313 C 126.295 67.962, 126.182 98.897, 125.526 99.957 C 125.275 100.363, 124.827 105.339, 124.530 111.014 C 124.063 119.931, 124.228 121.596, 125.745 123.281 C 128.851 126.730, 131.740 127.209, 136.568 125.073 C 139.319 123.856, 141.194 123.504, 141.582 124.133 C 141.923 124.684, 142.440 127.757, 142.730 130.960 L 143.258 136.784 139.879 138.313 C 132.132 141.821, 111.943 150, 111.032 150 C 110.491 150, 108.575 150.898, 106.774 151.996 C 104.973 153.094, 102.127 153.994, 100.450 153.996 C 96.452 154.001, 95 155.601, 95 160 C 95 167.232, 98.600 167.689, 110.741 162 C 115.436 159.800, 119.662 158, 120.132 158 C 120.603 158, 125.582 155.750, 131.196 153 C 144.631 146.420, 146.768 146.505, 141.500 153.411 C 140.125 155.214, 139 157.739, 139 159.023 C 139 167.318, 128.770 183.342, 113.587 198.830 C 100.446 212.236, 98.841 213.462, 94.814 213.172 C 92.377 212.996, 89 215.887, 89 218.151 C 89 220.386, 92.557 222, 97.480 222 C 102.718 222, 102.981 221.855, 111.639 214.209 C 121.293 205.684, 137.186 187.535, 139.832 182.013 C 140.751 180.096, 142.271 178.379, 143.210 178.198 C 144.804 177.891, 144.880 180.423, 144.355 216.185 L 143.793 254.500 141.397 256.333 C 138.490 258.557, 138.445 259.492, 140.971 265.201 C 144.961 274.221, 148.924 277.065, 152.187 273.250 C 153.364 271.874, 153.539 270.003, 153.008 264.500 C 152.636 260.650, 152.633 256.600, 153.001 255.500 C 153.369 254.400, 153.274 248.550, 152.789 242.500 C 152.305 236.450, 152.143 228.350, 152.430 224.500 C 153.072 215.901, 153.063 216.030, 154.223 197 C 154.743 188.475, 155.542 181.111, 155.999 180.635 C 156.461 180.154, 159.197 180.882, 162.165 182.276 C 175.178 188.389, 181.012 190.843, 184.142 191.521 C 185.989 191.921, 189.975 193.463, 193 194.948 C 196.025 196.434, 202.100 198.467, 206.500 199.467 C 210.900 200.467, 215.967 201.920, 217.761 202.695 C 219.555 203.470, 224.055 204.712, 227.761 205.455 C 231.467 206.198, 236.750 207.519, 239.500 208.392 C 245.799 210.391, 251.389 210.441, 252.989 208.513 C 256.136 204.721, 251.409 201.641, 238.455 199.042 C 232.980 197.944, 224.478 195.685, 219.562 194.022 C 214.647 192.360, 209.449 191, 208.012 191 C 206.576 191, 204.973 190.620, 204.450 190.156 C 203.928 189.692, 200.800 188.274, 197.500 187.005 C 194.200 185.736, 189.925 183.898, 188 182.922 C 171.222 174.413, 162.370 171.015, 158.772 171.703 C 156.808 172.079, 156.043 171.711, 155.549 170.155 C 154.390 166.503, 154.648 144.129, 155.866 142.661 C 156.491 141.909, 160.811 140.054, 165.467 138.539 C 170.123 137.025, 174.443 135.171, 175.067 134.419 C 175.691 133.668, 177.843 132.756, 179.850 132.393 C 184.722 131.512, 188.712 129.408, 189.970 127.055 C 191.300 124.571, 191.302 118.304, 189.973 117.483 C 188.911 116.827, 181.399 120.039, 177 123.030 C 173.514 125.399, 156.070 132.161, 155.057 131.535 C 153.673 130.680, 154.041 117.724, 155.541 114.500 C 156.376 112.703, 157.143 106.559, 157.452 99.180 C 157.736 92.404, 158.250 86.405, 158.593 85.849 C 158.937 85.293, 159.156 77.545, 159.079 68.631 L 158.941 52.423 162.220 51.218 C 166.063 49.806, 173 43.512, 173 41.437 C 173 39.463, 169.373 36, 167.305 36 C 166.372 36, 164.374 37.183, 162.864 38.630 C 158.914 42.415, 157 41.269, 157 35.120 C 157 30.829, 156.595 29.837, 153.923 27.589 C 150.231 24.482, 148.880 24.370, 146.522 26.975 M 65.681 46.801 C 64.351 48.269, 64.239 49.283, 65.073 52.301 C 65.634 54.335, 66.718 56, 67.480 56 C 69.879 56, 70.330 59.970, 68.351 63.669 C 66.595 66.950, 66.590 67.178, 68.250 68.114 C 70.631 69.455, 70.448 70.866, 67.750 71.970 C 66.513 72.477, 63.250 74.728, 60.500 76.973 C 57.750 79.217, 53.339 82.675, 50.699 84.657 C 46.173 88.055, 45.915 88.497, 46.199 92.381 C 46.447 95.770, 46.896 96.556, 48.734 96.817 C 53.382 97.478, 77.687 81.616, 80.946 75.795 C 82.388 73.218, 82.320 72.944, 79.517 70.018 L 76.574 66.946 78.449 63.465 C 81.784 57.271, 80.179 49.178, 75.093 46.548 C 71.129 44.498, 67.680 44.591, 65.681 46.801 M 143.534 57.963 C 142.520 59.083, 141.117 60, 140.418 60 C 139.718 60, 138.212 61.186, 137.073 62.635 C 135.405 64.754, 135 66.699, 135 72.576 C 135 76.594, 135.456 80.164, 136.013 80.508 C 136.570 80.852, 138.901 79.529, 141.193 77.567 C 143.485 75.605, 146.197 74, 147.219 74 C 148.911 74, 149.052 73.216, 148.789 65.261 C 148.474 55.739, 147.177 53.937, 143.534 57.963 M 146 89.805 C 145.175 90.086, 143.912 91.145, 143.193 92.158 C 142.369 93.319, 140.651 94, 138.544 94 C 135.311 94, 135.181 94.156, 134.574 98.750 C 133.187 109.247, 133.312 110.473, 135.804 110.827 C 137.300 111.039, 139.641 109.896, 142.485 107.566 C 146.232 104.495, 147.034 103.156, 148.049 98.265 C 148.701 95.122, 149.433 92.035, 149.675 91.405 C 150.205 90.023, 148.079 89.098, 146 89.805 M 61.636 106.506 C 60.060 107.328, 58.148 108, 57.386 108 C 56.624 108, 56 108.977, 56 110.171 C 56 111.365, 55.230 113.193, 54.290 114.232 C 52.623 116.074, 52.135 122.791, 53.506 125.010 C 54.950 127.346, 58.873 125.580, 65.281 119.711 L 72.062 113.500 70.379 109.250 C 68.510 104.528, 66.586 103.924, 61.636 106.506 M 68 132.728 C 67.175 133.041, 65.228 134.356, 63.673 135.649 C 62.119 136.942, 60.051 138, 59.078 138 C 58.106 138, 56.511 138.882, 55.536 139.961 C 54.115 141.530, 53.900 142.849, 54.458 146.570 C 55.146 151.158, 55.197 151.211, 58.328 150.591 C 60.072 150.245, 63.374 148.621, 65.663 146.981 C 67.953 145.341, 70.316 144, 70.913 144 C 71.511 144, 72.900 143.100, 74 142 C 78.734 137.266, 74.258 130.350, 68 132.728 M 64 172.331 C 59.332 174.514, 56.213 177.085, 53.519 180.973 C 50.179 185.792, 48.254 186.599, 46.078 184.089 C 44.049 181.750, 33.632 177, 30.531 177 C 29.309 177, 27.487 177.910, 26.480 179.022 C 24.752 180.931, 24.743 181.238, 26.309 184.522 C 27.750 187.545, 28.441 188, 31.579 188 C 34.618 188, 39.835 190.492, 42 192.978 C 42.275 193.293, 44.403 195.033, 46.730 196.844 C 49.792 199.227, 51.267 201.290, 52.073 204.318 C 54.268 212.565, 58.486 214.153, 64.144 208.862 C 65.990 207.137, 68.755 205.287, 70.289 204.751 C 76.181 202.693, 82.504 190.666, 78.874 188.422 C 78.140 187.969, 77.934 185.663, 78.283 181.818 C 78.765 176.500, 78.573 175.664, 76.364 173.455 C 73.646 170.737, 68.426 170.262, 64 172.331 M 63.500 185.059 C 58.148 188.471, 56.294 193.339, 59.373 195.895 C 61.520 197.676, 63.524 196.291, 66.373 191.057 C 70.618 183.257, 69.614 181.161, 63.500 185.059" stroke="none" fill="black" fill-rule="evenodd"/>
</svg>