<svg xmlns="http://www.w3.org/2000/svg" width="300" height="300" viewBox="0 0 300 300" version="1.1">
	<path d="M 181.405 38.107 C 179.682 40.014, 179.497 41.947, 179.468 58.357 C 179.450 68.336, 179.822 77.038, 180.295 77.695 C 181.680 79.623, 180.660 83.449, 178.658 83.831 C 176.857 84.174, 171.121 88.084, 159.537 96.863 C 153.833 101.185, 153.786 101.263, 154.434 105.313 C 155.197 110.084, 156.527 112, 159.077 112 C 160.680 112, 162.045 111.025, 167.339 106.096 C 177.326 96.797, 180.090 94.830, 181.514 96.011 C 182.368 96.720, 183 98.918, 183 101.181 C 183 103.346, 183.419 108.128, 183.931 111.808 C 187.073 134.389, 187.682 142.854, 190.534 203.500 C 190.844 210.100, 190.513 224.944, 189.799 236.487 C 188.686 254.469, 188.266 257.518, 186.865 257.788 C 185.744 258.003, 184.074 256.037, 181.558 251.537 C 177.684 244.611, 174.083 241.370, 171.402 242.399 C 169.123 243.274, 169.960 246.316, 176.094 259.437 C 178.735 265.087, 187.166 274.984, 189.346 274.993 C 190.361 274.997, 192.439 274.112, 193.963 273.026 C 197.186 270.731, 197.911 267.044, 198.586 249.500 C 198.819 243.450, 199.295 232.200, 199.644 224.500 C 200.553 204.423, 200.547 203.780, 199.191 179 C 197.837 154.232, 195.638 127.149, 193.914 114 C 193.301 109.325, 192.732 101.962, 192.650 97.638 L 192.500 89.776 196.872 85.894 C 199.277 83.758, 203.102 81.517, 205.372 80.913 C 210.096 79.655, 212.576 77.721, 214.681 73.650 C 216.054 70.995, 216 70.628, 213.904 68.398 C 210.072 64.318, 206.141 65.128, 198.559 71.561 C 194.954 74.619, 191.605 76.874, 191.116 76.572 C 189.594 75.631, 189.036 70.066, 188.820 53.681 C 188.636 39.806, 188.397 37.748, 186.871 36.931 C 184.347 35.580, 183.531 35.756, 181.405 38.107 M 118.790 42.363 C 116.749 44.167, 112.249 47.089, 108.790 48.855 C 105.330 50.622, 100.700 53.154, 98.500 54.482 C 94.255 57.045, 91.554 58.394, 87.500 59.975 C 84.773 61.039, 84.255 63.910, 85.975 68.435 C 87.196 71.647, 91.402 71.911, 94.530 68.972 C 95.820 67.760, 97.353 67.198, 98.340 67.577 C 99.682 68.092, 99.854 68.985, 99.260 72.355 C 98.297 77.827, 98.393 80.368, 100.078 94 C 101.819 108.081, 101.861 133.207, 100.159 142 C 97.566 155.392, 97.572 155.075, 99.883 155.680 C 101.047 155.984, 102 156.521, 102 156.873 C 102 157.225, 96.600 160.170, 90 163.417 C 78.468 169.090, 78 169.443, 78 172.460 C 78 174.187, 78.540 176.140, 79.200 176.800 C 80.800 178.400, 84.485 178.325, 85.863 176.665 C 86.473 175.930, 88.890 174.710, 91.236 173.953 C 93.581 173.196, 97.975 171.006, 101 169.086 C 107.868 164.728, 114.808 161, 116.053 161 C 118.265 161, 116.552 164.637, 109.355 175.213 C 105.151 181.392, 100.574 188.484, 99.184 190.973 C 95.472 197.622, 87.430 207.858, 81.869 213.012 C 76.940 217.580, 75.765 220.589, 78.500 221.638 C 80.016 222.220, 80.519 222.055, 84.965 219.511 C 88.078 217.731, 101.829 203.087, 102.572 200.762 C 102.877 199.806, 105.574 195.411, 108.564 190.995 C 111.554 186.578, 114 182.593, 114 182.138 C 114 181.682, 114.956 180.453, 116.125 179.405 C 117.294 178.357, 120.458 174.238, 123.156 170.250 C 129.762 160.486, 131.318 160.591, 130.555 170.750 C 130.030 177.743, 129.105 205.018, 129.030 215.750 C 129.011 218.488, 128.555 219.987, 127.750 219.963 C 126.495 219.927, 121.670 213.024, 120.384 209.425 C 119.281 206.338, 116.926 204.091, 115.406 204.674 C 111.302 206.249, 115.503 218.425, 125.577 234.157 C 130.697 242.153, 133.357 243.449, 136.691 239.572 C 138.946 236.952, 139.001 236.378, 139.050 215.194 C 139.130 180.010, 139.707 152.860, 140.489 147.390 C 140.929 144.317, 140.809 141.511, 140.188 140.351 C 139.620 139.289, 139.036 131.774, 138.891 123.650 C 138.560 105.131, 136.704 93.460, 132.866 85.764 C 132.390 84.809, 132 82.936, 132 81.602 C 132 78.680, 126.836 74, 123.610 74 C 119.746 74, 116.373 78.814, 114.262 87.343 C 112.652 93.848, 112.556 95.276, 113.698 95.714 C 115.318 96.336, 118.695 93.535, 119.542 90.868 C 119.868 89.841, 120.764 89, 121.532 89 C 124.260 89, 125.314 92.505, 127.999 110.500 C 130.414 126.689, 130.780 130.787, 130.287 136.159 L 129.768 141.817 125.134 143.571 C 120.507 145.322, 116.415 147.968, 110.215 153.218 C 108.409 154.748, 106.068 156, 105.013 156 C 103.202 156, 103.233 155.736, 105.575 151.250 C 108.826 145.021, 115.799 137.653, 120.912 135.045 C 124.488 133.220, 125 132.533, 125 129.551 C 125 126.571, 122.973 123, 121.282 123 C 120.965 123, 118.784 124.575, 116.435 126.500 C 114.085 128.425, 111.677 130, 111.082 130 C 108.973 130, 109.979 125.244, 112.427 123.640 C 113.762 122.765, 115 121.030, 115.177 119.785 C 115.366 118.462, 116.331 117.368, 117.500 117.153 C 118.600 116.950, 120.063 116.328, 120.750 115.770 C 122.483 114.363, 122.314 108.508, 120.435 104.873 C 118.991 102.082, 118.571 101.897, 115.037 102.494 C 112.739 102.882, 110.946 102.722, 110.558 102.093 C 110.202 101.517, 109.704 98.223, 109.453 94.773 C 108.364 79.832, 106.637 68.412, 105.219 66.769 C 103.243 64.480, 104.453 63.082, 111.316 59.721 C 114.263 58.279, 117.252 56.401, 117.959 55.549 C 118.666 54.697, 119.804 54, 120.488 54 C 121.171 54, 122.916 53.067, 124.365 51.927 C 126.396 50.330, 127 48.973, 127 46.009 C 127 38.088, 124.754 37.091, 118.790 42.363 M 47.667 53.667 C 45.749 55.584, 47.173 60.592, 50.646 64.149 C 54.103 67.690, 54.226 68.040, 53.024 70.942 C 50.494 77.050, 56.715 79.298, 60.101 73.500 C 62.008 70.237, 62.612 61.496, 61 60.500 C 60.450 60.160, 60 59.060, 60 58.056 C 60 57.052, 58.891 55.503, 57.535 54.615 C 55.070 53, 48.924 52.409, 47.667 53.667 M 50.172 85.389 C 47.071 89.495, 45.079 91.102, 41.801 92.139 C 38.087 93.314, 37.459 93.920, 37.200 96.577 C 37.013 98.483, 37.624 100.549, 38.805 102.008 C 40.587 104.209, 40.933 104.274, 44.106 103.016 C 45.973 102.276, 48.210 101.070, 49.079 100.335 C 49.947 99.601, 51.072 98.993, 51.579 98.985 C 52.085 98.977, 54.243 97.496, 56.373 95.694 C 59.655 92.917, 60.262 91.788, 60.354 88.292 C 60.463 84.107, 58.042 80, 55.465 80 C 54.791 80, 52.409 82.425, 50.172 85.389 M 46.391 124.555 C 44.434 126.724, 42.362 128, 40.796 128 C 37.275 128, 34.791 131.121, 35.180 135.056 C 35.861 141.956, 41.511 141.467, 49.609 133.809 C 54.863 128.839, 55.879 126.455, 54.393 122.582 C 53.393 119.976, 49.701 120.887, 46.391 124.555 M 157.200 134.200 C 154.401 136.999, 155.826 141.132, 161.403 146.398 C 164.375 149.204, 167.316 152.512, 167.939 153.750 C 169.743 157.336, 177 156.057, 177 152.153 C 177 148.710, 173.101 142.368, 168.121 137.710 C 163.039 132.957, 159.561 131.839, 157.200 134.200 M 47.569 142.125 C 44.248 144.736, 40 151.304, 40 153.825 C 40 156.197, 43.059 159, 45.649 159 C 48.728 159, 57 147.924, 57 143.801 C 57 142.009, 54.199 140, 51.701 140 C 50.914 140, 49.054 140.956, 47.569 142.125 M 52.906 177.988 C 48.664 180.230, 42 186.649, 42 188.493 C 42 191.759, 38.700 190.665, 32.876 185.468 C 27.443 180.621, 26.254 180, 22.397 180 C 18.888 180, 17.737 180.472, 16.448 182.440 C 14.978 184.683, 14.985 185.166, 16.538 188.440 C 18.023 191.567, 18.674 192, 21.902 192 C 24.982 192, 26.306 192.767, 30.101 196.750 C 34.563 201.433, 40 209.153, 40 210.804 C 40 211.270, 38.875 212.708, 37.500 214 C 34.480 216.837, 34.324 219.324, 37 222 C 39.981 224.981, 42.679 224.455, 47.847 219.886 C 50.406 217.624, 53.243 215.487, 54.150 215.136 C 55.058 214.786, 58.330 212.141, 61.421 209.259 C 66.179 204.822, 66.945 203.631, 66.411 201.501 C 66.029 199.979, 66.363 198.094, 67.259 196.728 C 68.072 195.487, 69.193 192.335, 69.750 189.724 C 70.722 185.166, 70.626 184.798, 67.335 180.488 C 64.342 176.568, 63.439 176.006, 60.204 176.044 C 58.167 176.069, 54.883 176.943, 52.906 177.988 M 51.099 193.886 C 46.434 199.270, 44.517 204, 47 204 C 47.550 204, 48 204.675, 48 205.500 C 48 210.033, 54.398 204.419, 58.433 196.345 C 63.339 186.531, 58.791 185.006, 51.099 193.886" stroke="none" fill="black" fill-rule="evenodd"/>
</svg>