<svg xmlns="http://www.w3.org/2000/svg" width="300" height="300" viewBox="0 0 300 300" version="1.1">
	<path d="M 160.667 16.667 C 160.300 17.033, 160 20.583, 160 24.556 C 160 32.980, 157.999 36.769, 154.188 35.560 C 152.524 35.031, 152 34.081, 152 31.588 C 152 27.923, 149.468 25, 146.294 25 C 142.972 25, 142.104 27.116, 141.794 35.972 L 141.500 44.345 137 46.716 C 130.483 50.151, 129.395 51.451, 130.725 54.220 C 131.326 55.474, 132.070 57.288, 132.378 58.250 C 133.127 60.595, 136.267 60.467, 138.500 58 C 139.495 56.900, 141.159 56, 142.197 56 C 143.909 56, 144.057 56.718, 143.792 63.750 L 143.500 71.500 139.500 71.500 L 135.500 71.500 135.188 75.852 C 134.812 81.081, 136.950 84, 141.155 84 C 144.468 84, 144.278 82.846, 144.120 102 L 144.008 115.500 139.754 119.202 C 137.414 121.238, 133.934 123.713, 132.019 124.702 C 130.105 125.691, 126.775 127.738, 124.619 129.250 C 122.464 130.763, 120.162 132, 119.505 132 C 118.139 132, 114.998 135.197, 115.005 136.579 C 115.008 137.085, 116.069 138.823, 117.363 140.441 L 119.716 143.382 125.608 140.441 C 128.849 138.823, 133.750 135.809, 136.500 133.741 C 139.250 131.674, 142.931 129.582, 144.680 129.091 C 146.429 128.601, 150.254 126.620, 153.180 124.689 C 156.106 122.757, 161.122 119.943, 164.326 118.435 C 167.531 116.927, 171.356 114.498, 172.826 113.037 C 176.073 109.812, 183.958 107.410, 189.820 107.860 C 194.983 108.257, 196.920 106.372, 196.968 100.905 C 197.029 94.065, 191.187 92.390, 181.500 96.471 C 166.084 102.964, 163 103.901, 163 102.089 C 163 101.588, 163.894 98.326, 164.987 94.839 C 166.080 91.353, 166.980 87.297, 166.987 85.826 C 167.012 80.651, 169.360 73.010, 171.561 70.943 C 172.785 69.793, 175.297 68.098, 177.143 67.176 C 180.281 65.609, 180.500 65.174, 180.500 60.500 C 180.500 56.004, 180.262 55.466, 178.135 55.165 C 176.834 54.981, 175.281 55.319, 174.685 55.915 C 174.088 56.512, 172.732 57, 171.671 57 C 169.867 57, 169.787 56.478, 170.444 48.945 C 170.831 44.515, 172.004 39.002, 173.052 36.695 C 175.613 31.052, 175.479 28.349, 172.500 25.588 C 171.125 24.313, 170 22.335, 170 21.192 C 170 17.727, 163 14.333, 160.667 16.667 M 155.776 47.713 C 153.508 50.244, 152.872 66.364, 155.024 66.740 C 157.988 67.257, 158.995 65.307, 159.563 57.945 C 159.879 53.850, 160.220 49.617, 160.319 48.538 C 160.557 45.955, 157.800 45.454, 155.776 47.713 M 62.306 56.199 C 61.742 56.915, 61.007 58.947, 60.673 60.716 C 60.193 63.247, 60.496 64.234, 62.094 65.353 C 66.151 68.195, 69.754 74.396, 70.484 79.792 L 71.199 85.085 63.620 92.542 C 59.451 96.644, 55.372 100, 54.555 100 C 50.887 100, 49.721 109.199, 52.893 113.116 L 54.785 115.453 59.643 111.081 C 62.314 108.676, 65.045 106.037, 65.712 105.216 C 66.378 104.395, 67.756 103.223, 68.773 102.611 C 75.525 98.555, 77.847 96.694, 78.296 94.977 C 78.577 93.903, 79.975 92.580, 81.403 92.037 C 82.831 91.494, 84 90.733, 84 90.346 C 84 89.550, 82.125 83.523, 80.937 80.500 C 80.215 78.664, 79.858 77.208, 78.359 70 C 78.073 68.625, 75.947 64.800, 73.635 61.500 C 70.259 56.683, 68.829 55.441, 66.380 55.199 C 64.702 55.033, 62.869 55.483, 62.306 56.199 M 154.088 81.269 C 152.538 85.346, 151.763 92.645, 152.517 96.076 C 153.170 99.051, 153.331 99.168, 154.360 97.418 C 155.833 94.912, 158.132 86.304, 158.338 82.525 C 158.549 78.651, 155.433 77.730, 154.088 81.269 M 66.517 124.972 C 66.186 125.507, 64.130 126.480, 61.946 127.134 C 57.302 128.526, 56.494 129.376, 55.667 133.744 C 55.157 136.434, 55.460 137.255, 57.437 138.550 C 59.664 140.010, 60.173 139.933, 65.161 137.391 C 74.674 132.543, 77.006 129.126, 73.171 125.655 C 71.155 123.831, 67.457 123.451, 66.517 124.972 M 158.571 127.571 C 157.454 128.689, 157 131.089, 157 135.880 C 157 141.737, 156.566 143.338, 153.679 148.133 C 149.161 155.636, 146.669 162.069, 147.831 163.231 C 149.237 164.637, 152.807 161.991, 153.957 158.693 C 154.640 156.735, 155.506 155.958, 156.725 156.208 C 158.202 156.511, 158.459 157.489, 158.254 162.036 C 157.785 172.478, 157.332 173.578, 152.133 176.915 C 149.489 178.612, 146.860 180, 146.291 180 C 145.028 180, 143.581 159.750, 144.496 154.873 C 145.002 152.175, 144.712 151.050, 143.145 149.631 C 142.047 148.638, 140.328 147.982, 139.324 148.175 C 135.775 148.855, 135.117 154.266, 135.025 183.500 C 134.960 203.854, 134.604 211.935, 133.718 213.093 C 133.048 213.969, 130.025 215.265, 127 215.974 C 123.975 216.682, 121.050 217.591, 120.500 217.993 C 119.950 218.395, 118.336 219.001, 116.912 219.340 C 112.328 220.432, 109 223.811, 109 227.373 C 109 232.483, 112.456 234.617, 115.921 231.646 C 118.155 229.732, 131.101 224.945, 132.204 225.626 C 132.745 225.961, 132.833 232.487, 132.418 241.553 L 131.716 256.913 134.395 258.134 C 138.994 260.230, 139.628 258.374, 140.891 239.129 C 141.518 229.575, 142.242 221.418, 142.499 221.002 C 142.756 220.586, 145.503 219.216, 148.604 217.958 C 153.129 216.121, 154.610 215.900, 156.107 216.835 C 159.118 218.715, 160.846 218.223, 165.116 214.272 C 167.332 212.222, 171.700 209.585, 174.823 208.413 C 177.945 207.241, 181.281 205.948, 182.236 205.539 C 185.221 204.262, 185.854 208.651, 185.960 231.388 C 186.061 253.084, 185.462 257.498, 182.568 256.388 C 180.788 255.705, 176 248.529, 176 246.544 C 176 244.526, 171.409 241.629, 169.420 242.392 C 168.144 242.882, 167.964 243.853, 168.521 247.252 C 168.904 249.588, 169.799 252.175, 170.509 253 C 171.220 253.825, 172.542 256.294, 173.448 258.486 C 174.354 260.679, 176.042 263.480, 177.198 264.711 C 179.783 267.462, 186.910 270.291, 190.111 269.836 C 194.721 269.182, 195.492 265.408, 195.588 243 C 195.637 231.725, 195.362 218, 194.976 212.500 C 194.237 201.941, 195.228 198, 198.622 198 C 199.489 198, 201.616 197.378, 203.349 196.619 C 205.082 195.859, 208.143 194.509, 210.151 193.619 C 212.159 192.728, 216.289 192, 219.329 192 C 224.108 192, 225.135 191.644, 226.927 189.365 C 229.582 185.990, 229.535 184.734, 226.628 181.354 C 224.296 178.642, 224.170 178.617, 218.939 179.825 C 216.013 180.500, 209.364 182.871, 204.163 185.093 C 192.529 190.064, 192.303 189.928, 191.514 177.500 C 191.200 172.550, 190.649 166.925, 190.291 165 C 189.933 163.075, 189.575 160.600, 189.495 159.500 C 188.785 149.672, 187.523 143.139, 185.894 140.852 C 184.852 139.388, 184 137.777, 184 137.270 C 184 136.763, 182.836 135.258, 181.413 133.924 C 179.201 131.852, 177.926 131.522, 172.623 131.648 C 166.761 131.789, 166.328 131.637, 164.756 128.898 C 162.896 125.657, 160.912 125.231, 158.571 127.571 M 169.941 144.063 C 167.157 147.043, 167.083 147.406, 167.166 157.563 C 167.213 163.303, 167.468 168, 167.732 168 C 167.996 168, 169.852 166.715, 171.856 165.145 C 173.860 163.574, 176.566 161.730, 177.868 161.046 C 179.939 159.959, 180.159 159.312, 179.618 155.901 C 179.278 153.756, 178.702 150.088, 178.339 147.750 C 177.735 143.869, 175.811 141.113, 173.651 141.032 C 173.184 141.014, 171.515 142.378, 169.941 144.063 M 67.343 146.548 C 67.017 147.399, 64.073 149.913, 60.801 152.135 L 54.854 156.174 55.525 160.337 C 56.524 166.531, 58.029 167.689, 62.389 165.619 C 64.329 164.699, 66.189 163.503, 66.524 162.962 C 66.858 162.420, 69.578 160.413, 72.566 158.501 C 77.426 155.392, 78 154.660, 78 151.569 C 78 149.132, 77.345 147.655, 75.777 146.557 C 72.904 144.544, 68.114 144.539, 67.343 146.548 M 177.976 171.346 C 176.614 172.058, 173.654 173.809, 171.398 175.239 L 167.295 177.839 166.259 189.169 C 165.689 195.401, 165.583 200.888, 166.023 201.362 C 166.464 201.836, 170.351 200.478, 174.662 198.345 L 182.500 194.465 182.465 183.247 C 182.445 177.078, 181.985 171.585, 181.441 171.041 C 180.790 170.390, 179.608 170.494, 177.976 171.346 M 70.281 187.304 C 69.060 187.983, 64.929 191.342, 61.101 194.769 C 57.274 198.196, 53.702 201, 53.165 201 C 52.629 201, 50.304 199.425, 48 197.500 C 44.374 194.470, 43.101 194, 38.528 194 C 32.272 194, 30.510 195.495, 31.493 199.967 C 32.260 203.459, 34.538 205, 38.934 205 C 40.620 205, 42 205.441, 42 205.981 C 42 206.520, 43.120 207.243, 44.489 207.587 C 47.465 208.334, 53 214.348, 53 216.835 C 53 217.806, 53.540 219.140, 54.200 219.800 C 57.814 223.414, 62.687 218.474, 61.540 212.360 C 60.889 208.890, 61.136 208.446, 66.572 203.305 C 72.529 197.672, 76.128 196.659, 76.845 200.416 C 77.295 202.773, 75.005 210, 73.809 210 C 73.329 210, 72.647 210.787, 72.292 211.750 C 70.859 215.640, 66.390 220.275, 61.863 222.569 C 59.228 223.905, 56.595 225.889, 56.012 226.978 C 54.435 229.924, 55.851 233.993, 58.848 235.132 C 61.709 236.220, 66.195 234.245, 73.144 228.836 C 75.148 227.276, 77.173 225.980, 77.644 225.955 C 78.115 225.930, 80.920 223.705, 83.878 221.010 C 89.512 215.879, 90.095 213.361, 85.902 212.264 C 84.119 211.798, 83.901 211.191, 84.407 208.109 C 86.822 193.409, 86.476 191.068, 81.450 188.103 C 77.453 185.745, 73.584 185.468, 70.281 187.304 M 150.386 189.234 C 145.953 193.127, 143.981 197.503, 143.437 204.655 C 143.058 209.645, 143.179 209.999, 145.265 209.984 C 146.494 209.975, 149.300 208.949, 151.500 207.706 L 155.500 205.444 156.131 196.472 C 156.979 184.427, 156.520 183.849, 150.386 189.234" stroke="none" fill="black" fill-rule="evenodd"/>
</svg>