<svg xmlns="http://www.w3.org/2000/svg" width="300" height="300" viewBox="0 0 300 300" version="1.1">
	<path d="M 178.788 43.750 C 178.149 45.263, 177.373 49.604, 177.063 53.397 C 176.654 58.407, 176.029 60.590, 174.778 61.375 C 172.114 63.045, 170.785 60.921, 170.103 53.906 C 169.592 48.648, 169.077 47.391, 166.714 45.631 C 160.824 41.244, 158.065 47.582, 160.022 61 C 161.826 73.370, 161.981 73.629, 168.443 75.075 C 172.888 76.069, 174 76.713, 174 78.291 C 174 81.232, 170.386 86.526, 166.016 89.987 C 159.501 95.148, 159.915 103.398, 166.728 104.181 L 169.500 104.500 169.249 112.451 C 169.111 116.824, 168.548 120.852, 167.999 121.401 C 167.450 121.950, 167 122.972, 167 123.670 C 167 124.369, 165.807 127.542, 164.350 130.720 C 161.819 136.239, 161.460 138.429, 162.180 143.966 C 162.421 145.823, 161.834 146.756, 159.798 147.748 C 158.311 148.471, 156.179 150.287, 155.058 151.782 C 153.938 153.277, 152.567 155.044, 152.011 155.708 C 151.455 156.372, 151 157.808, 151 158.899 C 151 161.297, 149.206 162.606, 147.820 161.220 C 147.146 160.546, 147.204 159.486, 147.997 158.006 C 149.021 156.093, 148.807 155.408, 146.403 152.898 C 143.284 149.644, 139.509 149.115, 138.204 151.750 C 137.727 152.713, 137.263 160.700, 137.173 169.500 C 137.083 178.300, 136.806 189.325, 136.558 194 C 134.545 231.873, 134.545 231.887, 137.038 234.540 C 138.578 236.180, 140.438 237, 142.615 237 C 144.412 237, 146.160 237.450, 146.500 238 C 147.708 239.955, 150.608 238.904, 158.957 233.487 C 167.870 227.704, 169.975 227.060, 172 229.500 C 173.495 231.302, 177.137 231.463, 178.800 229.800 C 179.460 229.140, 180 227.395, 180 225.922 C 180 224.450, 180.660 222.697, 181.468 222.027 C 182.504 221.167, 182.785 219.586, 182.423 216.654 C 181.715 210.917, 181.118 201.129, 180.402 183.500 C 180.067 175.250, 179.431 168.050, 178.990 167.500 C 178.548 166.950, 177.864 164.327, 177.468 161.670 C 177.073 159.014, 176.131 156.604, 175.375 156.313 C 174.619 156.023, 174 154.889, 174 153.793 C 174 152.697, 172.410 150.210, 170.467 148.267 C 167.002 144.802, 166.973 144.707, 168.967 143.310 C 170.085 142.527, 171 141.229, 171 140.424 C 171 139.620, 172.350 136.432, 174 133.340 C 175.650 130.248, 177 126.866, 177 125.824 C 177 124.782, 177.752 122.782, 178.670 121.380 C 179.998 119.355, 180.357 116.210, 180.420 106.069 C 180.504 92.612, 181.279 90, 185.183 90 C 186.973 90, 187.072 90.517, 186.477 96.750 C 185.408 107.955, 188.479 120.540, 193.736 126.500 C 196.725 129.889, 205.162 133.239, 209.058 132.584 C 210.951 132.266, 216.325 131.777, 221 131.497 C 225.675 131.218, 231.183 130.590, 233.239 130.102 C 242.731 127.851, 248.123 117.717, 245.531 107 C 242.361 93.891, 239.405 84.819, 236.172 78.277 C 233.398 72.663, 232.061 69.219, 231.797 67.010 C 231.412 63.786, 229.037 63.385, 226.166 66.060 C 224.040 68.041, 223.992 68.339, 225.444 70.556 C 226.300 71.861, 227 73.584, 227 74.384 C 227 75.184, 227.633 77.112, 228.407 78.669 C 230.944 83.771, 231.763 86.391, 233.462 94.846 C 235.268 103.834, 234.808 115.084, 232.559 116.951 C 230.932 118.301, 219.080 119.956, 210.861 119.980 C 202.263 120.006, 200.401 118.538, 198.466 110.208 C 197.662 106.748, 197.085 102.698, 197.185 101.208 C 197.648 94.283, 197.038 91.965, 194.500 91 C 191.671 89.924, 191.397 88.382, 193.532 85.559 C 195.307 83.212, 195.447 78.847, 193.800 77.200 C 193.140 76.540, 190.917 76, 188.859 76 C 184.186 76, 183.478 74.933, 186.014 71.710 C 187.106 70.321, 188 67.863, 188 66.247 C 188 64.627, 188.856 62.536, 189.909 61.583 C 192.523 59.217, 194.219 54.790, 193.827 51.357 C 193.548 48.922, 193.057 48.500, 190.500 48.500 C 188.059 48.500, 187.436 48.034, 187.154 46 C 186.378 40.389, 180.838 38.899, 178.788 43.750 M 130.166 53.300 C 129.573 54.015, 128.955 58.402, 128.794 63.050 C 128.527 70.735, 128.319 71.500, 126.500 71.500 C 124.843 71.500, 124.328 70.499, 123.498 65.660 C 121.906 56.374, 116.185 53.122, 111.937 59.088 C 109.909 61.937, 109.840 62.500, 111.049 66.338 C 111.770 68.627, 112.672 70.950, 113.054 71.500 C 113.436 72.050, 114.054 74.617, 114.428 77.204 C 114.999 81.150, 115.608 82.157, 118.208 83.454 C 119.913 84.304, 122.644 85, 124.279 85 C 127.101 85, 127.217 85.163, 126.586 88.250 C 126.220 90.037, 125.656 93.389, 125.332 95.697 C 124.843 99.183, 124.195 100.154, 121.509 101.429 C 117.665 103.253, 116.650 104.431, 115.195 108.756 C 114.207 111.692, 114.353 112.247, 116.682 114.406 C 118.987 116.544, 119.215 117.374, 118.801 122.150 C 118.546 125.093, 117.342 129.525, 116.126 132 C 112.747 138.875, 112.314 144.069, 114.922 146.430 C 117.022 148.330, 117.082 148.329, 119.774 146.328 C 121.402 145.119, 122.634 143.133, 122.834 141.401 C 123.017 139.805, 123.739 137.825, 124.437 137 C 126.790 134.221, 129 128.715, 129.014 125.596 C 129.034 121.092, 130.049 118, 131.508 118 C 133.276 118, 134.270 122.628, 133.008 124.985 C 131.679 127.468, 133.606 134.028, 136.737 137.675 L 138.975 140.281 143.504 138.551 C 148.134 136.784, 153 131.702, 153 128.636 C 153 127.714, 154.050 125.282, 155.333 123.230 C 156.616 121.179, 158.198 117.949, 158.850 116.053 C 159.846 113.150, 159.781 112.359, 158.438 111.053 C 156.988 109.643, 156.481 109.914, 152.921 114 C 150.764 116.475, 148.528 119.923, 147.951 121.662 C 146.941 124.710, 144.649 126.519, 143.049 125.531 C 142.626 125.269, 141.994 122.974, 141.646 120.431 C 141.283 117.786, 139.708 113.876, 137.964 111.292 C 135.089 107.031, 135.005 106.641, 136.481 104.388 C 137.342 103.075, 138.463 102, 138.972 102 C 140.742 102, 145.991 95.487, 145.995 93.285 C 146.001 90.484, 143.016 88.847, 139.270 89.596 L 136.375 90.175 136.999 84.513 C 137.341 81.400, 138.113 78.548, 138.713 78.176 C 139.313 77.804, 140.122 75.377, 140.511 72.782 C 140.899 70.187, 141.844 67.545, 142.609 66.910 C 143.374 66.275, 144 65, 144 64.078 C 144 63.155, 144.485 61.915, 145.078 61.322 C 145.671 60.729, 146.009 58.951, 145.828 57.372 C 145.521 54.683, 145.213 54.500, 141 54.500 C 138.525 54.500, 135.517 53.938, 134.316 53.250 C 131.609 51.701, 131.492 51.703, 130.166 53.300 M 59.460 71.065 C 58.071 73.312, 60.126 79.512, 63.085 82 C 66.172 84.597, 66.494 85.910, 66.183 94.651 C 66.018 99.284, 65.673 100.011, 62.750 101.870 C 60.962 103.007, 58.375 104.855, 57 105.977 C 55.625 107.099, 52.250 108.820, 49.500 109.802 C 44.042 111.749, 43.110 113.530, 44.977 118.441 C 45.984 121.089, 46.323 121.223, 50.877 120.786 C 56.490 120.247, 64.954 115.437, 72.250 108.641 C 76.397 104.778, 77 103.706, 77 100.192 C 77 97.978, 76.468 95.989, 75.818 95.773 C 75.064 95.521, 74.566 92.504, 74.442 87.439 C 74.232 78.819, 72.238 72.733, 69.067 71.036 C 66.540 69.684, 60.302 69.702, 59.460 71.065 M 61.351 132.906 C 59.619 133.974, 56.919 134.994, 55.351 135.174 C 53.065 135.435, 52.436 136.058, 52.177 138.315 C 51.453 144.633, 56.718 147.748, 62.802 144.602 C 67.461 142.193, 69.163 139.573, 68.816 135.348 C 68.435 130.711, 66.134 129.958, 61.351 132.906 M 62.414 154.951 C 60.976 157.124, 58.720 159.609, 57.400 160.474 C 54.526 162.357, 54.260 166.020, 56.829 168.345 C 59.695 170.939, 62.347 170.327, 67.359 165.915 C 71.333 162.417, 72 161.290, 72 158.070 C 72 154.093, 69.675 151, 66.685 151 C 65.774 151, 63.852 152.778, 62.414 154.951 M 158.374 160.985 C 156.219 161.856, 152 167.008, 152 168.770 C 152 169.298, 151.110 170.862, 150.022 172.244 C 148.454 174.239, 147.802 177.523, 146.872 188.129 C 145.333 205.683, 145.025 218.936, 146.091 221.740 C 147.364 225.089, 151.482 224.618, 158.500 220.322 C 161.800 218.302, 166.300 216.391, 168.500 216.075 C 172.480 215.503, 172.502 215.476, 172.808 210.672 C 173.176 204.910, 171.871 203, 167.570 203 C 164.935 203, 163.841 203.772, 161.234 207.471 C 157.266 213.100, 153.531 214.335, 150.884 210.893 C 147.717 206.773, 148.441 203.483, 153.250 200.154 C 155.588 198.536, 158.625 195.986, 160 194.487 C 161.375 192.987, 164.188 190.684, 166.250 189.368 C 168.523 187.918, 170 186.192, 170 184.987 C 170 182.411, 168.793 182.481, 164.230 185.323 C 158.779 188.718, 157.463 189.013, 155.115 187.368 C 151.627 184.925, 152.255 179.545, 156.527 175.273 C 159.753 172.047, 160.435 171.789, 164.527 172.250 C 169.839 172.849, 170.153 171.861, 166.953 164.627 C 164.814 159.790, 163.117 159.070, 158.374 160.985 M 63.414 194.079 C 61.595 195.207, 59.222 198.252, 57.633 201.496 C 56.032 204.767, 54.286 207, 53.331 207 C 52.447 207, 49.750 205.181, 47.337 202.957 C 42.961 198.923, 42.933 198.914, 35.725 199.207 L 28.500 199.500 28.180 202.844 C 27.714 207.701, 30.193 209.998, 35.905 210.007 C 41.636 210.015, 44.805 212.037, 50.001 219.001 C 53.973 224.325, 54.917 227.315, 53 228.500 C 50.099 230.293, 53.119 236, 56.968 236 C 61.502 236, 76.085 227.056, 81.955 220.674 C 85.530 216.788, 86.190 215.523, 85.346 214.174 C 84.770 213.253, 83.155 212.362, 81.759 212.194 C 79.284 211.896, 79.222 211.699, 79.332 204.495 C 79.431 197.985, 79.158 196.797, 77.048 194.551 C 74.097 191.409, 68.057 191.200, 63.414 194.079 M 63.250 208.580 C 60.852 211.869, 60 214.098, 60 217.088 C 60 220.658, 60.253 221.101, 62.137 220.820 C 64.724 220.433, 71.644 208.120, 70.682 205.614 C 69.598 202.789, 66.601 203.985, 63.250 208.580 M 140.068 251.904 C 138.931 253.502, 137.996 255.189, 137.991 255.654 C 137.986 256.119, 135.849 259, 133.241 262.056 C 130.634 265.112, 126.700 269.806, 124.500 272.488 C 116.648 282.060, 114.774 284, 113.377 284 C 111.285 284, 104.412 288.573, 102.586 291.181 C 100.701 293.872, 100.536 297.136, 102.200 298.800 C 104.406 301.006, 108.712 300.107, 113.172 296.509 C 115.553 294.589, 119.174 291.722, 121.220 290.139 C 125.350 286.944, 132 279.353, 132 277.834 C 132 277.297, 132.640 276.217, 133.423 275.434 C 134.206 274.651, 135.668 272.996, 136.673 271.755 C 137.678 270.515, 140.226 268.210, 142.335 266.634 C 146.706 263.368, 149.991 258.518, 149.996 255.323 C 150 253.090, 145.755 249, 143.433 249 C 142.720 249, 141.206 250.307, 140.068 251.904 M 175.706 257.627 C 174.942 258.392, 176.771 261, 178.072 261 C 178.527 261, 181.060 262.461, 183.700 264.247 C 186.340 266.033, 190.525 268.511, 193 269.754 C 199.014 272.775, 203.670 275.692, 208.500 279.463 C 212.015 282.208, 221.783 288.428, 229.819 293.038 C 231.294 293.884, 234.404 295.796, 236.730 297.288 C 240.598 299.768, 241.796 299.999, 250.730 299.983 L 260.500 299.966 257 297.812 C 255.075 296.626, 250.918 293.934, 247.761 291.828 C 244.605 289.723, 241.766 288, 241.453 288 C 240.788 288, 223.663 276.967, 220 274.178 C 218.625 273.131, 214.350 270.371, 210.500 268.045 C 206.650 265.720, 201.818 262.676, 199.762 261.281 C 196.612 259.144, 194.726 258.708, 187.762 258.511 C 183.218 258.382, 178.801 257.976, 177.948 257.607 C 177.094 257.239, 176.085 257.248, 175.706 257.627" stroke="none" fill="black" fill-rule="evenodd"/>
</svg>