<svg xmlns="http://www.w3.org/2000/svg" width="300" height="300" viewBox="0 0 300 300" version="1.1">
	<path d="M 84 6.114 C 75.844 13.667, 61.600 20.984, 54.954 21.033 C 49.093 21.077, 45.349 23.914, 47.023 27.043 C 47.649 28.214, 47.904 29.429, 47.590 29.744 C 46.571 30.762, 49.183 33, 51.372 32.985 C 52.543 32.977, 55.300 32.321, 57.500 31.529 C 64.795 28.901, 64.598 28.639, 65.543 42.250 C 66.011 48.987, 66.434 62.713, 66.484 72.752 C 66.561 88.231, 66.824 91.252, 68.210 92.639 C 71.600 96.028, 75.292 91.164, 76.518 81.692 C 76.933 78.481, 77.698 76.688, 78.820 76.295 C 82.241 75.097, 86 70.656, 86 67.813 C 86 64.457, 84.451 64.228, 81.365 67.127 C 78.842 69.497, 75.992 69.047, 76.015 66.281 C 76.047 62.650, 77.773 61.500, 83.197 61.500 L 88.447 61.500 89.238 56.094 C 89.883 51.682, 89.722 50.350, 88.359 48.844 C 86.486 46.774, 80.090 46.310, 78.287 48.113 C 76.666 49.734, 75.010 48.290, 74.936 45.191 C 74.852 41.670, 72.716 31.847, 71.687 30.250 C 70.482 28.380, 71.383 27.476, 80.313 21.596 C 94.377 12.335, 97.959 7.529, 94.965 1.934 C 93.294 -1.189, 90.900 -0.276, 84 6.114 M 101.053 12.437 C 100.127 13.552, 99.968 16.183, 100.463 22.231 C 100.834 26.779, 101.279 34.029, 101.450 38.343 C 101.925 50.298, 105.083 54.213, 110.905 50.068 C 114.007 47.859, 118.467 47.328, 119.526 49.042 C 120.100 49.971, 119.037 54.098, 115.803 63.500 C 115.236 65.150, 114.546 67.743, 114.270 69.262 C 113.995 70.781, 113.371 72.271, 112.885 72.571 C 112.398 72.872, 112 73.777, 112 74.583 C 112 75.389, 110.415 78.353, 108.477 81.170 C 105.149 86.008, 105.047 86.394, 106.632 88.146 C 109.757 91.598, 112.490 90.490, 116.944 83.964 C 119.210 80.644, 121.334 76.579, 121.664 74.929 C 122.478 70.860, 125.251 69.463, 128.407 71.531 C 130.398 72.836, 131.559 72.926, 134.867 72.036 C 139.509 70.786, 142.491 67.229, 143.527 61.705 C 144.440 56.840, 142.883 55, 137.853 55 C 134.301 55, 133.895 55.275, 133.339 58.053 C 132.823 60.635, 132.325 61.060, 130.114 60.803 C 127.287 60.475, 127.312 60.694, 129.112 51.978 C 130.140 46.998, 130.033 45.947, 128.022 41.274 C 125.933 36.417, 125.524 36.051, 121.511 35.449 C 118.921 35.061, 116.368 35.268, 115.050 35.973 C 113.384 36.865, 112.535 36.859, 111.436 35.947 C 108.698 33.675, 110.347 31, 114.486 31 C 115.213 31, 118.593 29.426, 121.996 27.502 C 127.626 24.320, 128.670 24.061, 133.558 24.636 C 140.144 25.410, 142.298 27.495, 142.414 33.210 C 142.486 36.698, 142.089 37.608, 140.047 38.643 C 136.462 40.461, 134.048 44.061, 134.022 47.628 C 133.994 51.610, 136.109 53.547, 138.870 52.069 C 141.878 50.460, 144.796 50.781, 145.434 52.792 C 147.048 57.876, 145.974 78.668, 143.808 84.276 C 142.931 86.547, 143.061 87.410, 144.523 89.026 C 147.409 92.214, 150.637 91.536, 153.399 87.160 C 155.781 83.387, 155.817 82.990, 155.474 64.410 C 155.283 54.009, 154.647 43.928, 154.063 42.007 C 153.478 40.085, 153 36.136, 153 33.232 C 153 27.015, 149.943 17.633, 146.842 14.332 C 145.076 12.452, 143.613 12, 139.292 12 C 134.482 12, 133.568 12.365, 130.365 15.568 C 127.907 18.026, 126.284 18.919, 125.149 18.439 C 120.777 16.592, 118.973 16.853, 115.139 19.890 C 109.837 24.089, 108.927 23.903, 109.562 18.750 C 110.188 13.669, 109.492 12.466, 105.409 11.581 C 103.219 11.106, 101.950 11.355, 101.053 12.437 M 101.161 58.547 C 100.522 59.948, 100 61.766, 100 62.587 C 100 64.648, 96.485 71.352, 94.573 72.939 C 92.132 74.965, 92.454 82.637, 95.038 84.020 C 96.159 84.620, 97.907 84.847, 98.923 84.524 C 101.725 83.635, 105.858 77.009, 107.240 71.191 C 107.918 68.336, 108.817 66, 109.237 66 C 109.656 66, 110 64.451, 110 62.557 C 110 56.672, 103.382 53.671, 101.161 58.547 M 170.500 94.115 C 164.957 95.858, 142.614 97.961, 129.425 97.980 C 121.155 97.993, 112.335 98.699, 105.425 99.902 C 99.416 100.948, 92.025 102.091, 89 102.442 C 84.180 103, 74.762 105.407, 67 108.064 C 65.625 108.534, 61.027 109.613, 56.782 110.462 C 48.896 112.038, 38.493 115.480, 36.250 117.255 C 34.463 118.670, 34.661 126.474, 36.523 128.019 C 37.765 129.050, 38.826 128.945, 42.273 127.452 C 44.598 126.444, 47.128 125.143, 47.896 124.560 C 48.665 123.977, 51.365 122.976, 53.896 122.335 C 56.428 121.695, 62.775 119.994, 68 118.555 C 73.225 117.116, 79.525 115.542, 82 115.055 C 84.475 114.569, 87.734 113.696, 89.241 113.114 C 92.082 112.018, 95 112.533, 95 114.131 C 95 117.177, 80.216 137.370, 69.838 148.500 C 67.274 151.250, 61.543 157.550, 57.103 162.500 C 52.663 167.450, 44.352 176.368, 38.634 182.318 C 28.550 192.811, 28.134 193.116, 24.786 192.488 C 21.821 191.931, 21.100 192.199, 19.667 194.385 C 18.750 195.785, 18 197.536, 18 198.278 C 18 200.343, 23.345 205, 25.715 205 C 29.528 205, 37.484 197.632, 63.507 170 C 68.562 164.632, 82.863 148.500, 89.659 140.500 C 97.049 131.800, 101.920 125.150, 104.645 120.039 C 106.215 117.095, 109.105 113.394, 111.067 111.816 L 114.634 108.947 134.326 108.412 C 145.157 108.117, 156.376 107.435, 159.259 106.895 C 162.142 106.355, 166.525 105.509, 169 105.016 C 171.475 104.523, 176.243 104.092, 179.595 104.060 C 184.177 104.015, 186.101 103.546, 187.345 102.171 C 189.614 99.664, 189.465 95.319, 187.066 94.035 C 184.707 92.773, 174.613 92.822, 170.500 94.115 M 129.535 120.240 C 125.903 122.273, 129.150 129, 133.763 129 C 135.987 129, 147.131 133.459, 150.473 135.686 C 151.557 136.409, 153.089 137, 153.876 137 C 155.933 137, 165.957 141.875, 169.594 144.644 C 171.296 145.940, 173.399 147, 174.268 147 C 175.136 147, 177.119 148.012, 178.673 149.250 C 183.946 153.447, 187.915 156, 189.210 156.028 C 191.793 156.084, 198.500 162.086, 199.003 164.793 C 199.462 167.263, 200.136 167.626, 206.714 168.940 C 213.468 170.290, 214.050 170.264, 215.961 168.535 C 217.082 167.520, 218 165.948, 218 165.041 C 218 163.012, 212.710 157.922, 208 155.419 C 206.075 154.395, 202.049 152, 199.054 150.095 C 191.085 145.028, 175.421 136.050, 168.342 132.493 C 164.955 130.790, 161.580 128.935, 160.842 128.371 C 160.104 127.806, 157.250 126.527, 154.500 125.528 C 151.750 124.529, 147.700 122.690, 145.500 121.442 C 141.355 119.090, 132.749 118.442, 129.535 120.240 M 112.159 140.017 C 110.143 141.698, 109.913 142.528, 110.504 146.023 C 110.963 148.740, 111.998 150.608, 113.642 151.685 C 115.796 153.097, 116.058 153.912, 115.797 158.396 C 115.529 163.002, 115.256 163.528, 113 163.792 C 111.625 163.952, 109.600 164.507, 108.500 165.024 C 107.400 165.541, 102.900 167.085, 98.500 168.454 C 88.563 171.545, 86 173.268, 86 176.857 C 86 182.769, 89.423 183.312, 100.127 179.097 C 109.888 175.253, 129.139 169.292, 135.941 168.007 C 145.182 166.261, 149.112 162, 145.340 157.816 C 143.755 156.058, 142.737 155.861, 138 156.396 C 134.975 156.738, 131.058 157.287, 129.296 157.615 C 126.103 158.211, 126.093 158.200, 126.668 154.661 C 127.530 149.348, 126.446 146.577, 121.750 142.086 C 116.981 137.525, 115.526 137.211, 112.159 140.017 M 122 179.716 C 121.175 180.023, 118.949 181.801, 117.053 183.667 C 115.157 185.534, 112.457 187.303, 111.053 187.600 C 105.526 188.766, 104 189.882, 104 192.756 C 104 196.152, 106.516 200, 108.736 200 C 111.916 200, 117.568 197.557, 121.914 194.304 C 124.342 192.487, 126.860 191, 127.509 191 C 129.490 191, 132 187.495, 132 184.728 C 132 180.508, 126.833 177.918, 122 179.716 M 119.574 203.485 C 113.913 207.881, 109.985 209.703, 108.307 208.712 C 107.863 208.449, 106.487 208.617, 105.250 209.085 C 100.719 210.798, 103.723 220, 108.813 220 C 113.277 220, 130.574 209.916, 131.588 206.723 C 132.278 204.549, 129.211 199.682, 126.860 199.218 C 126.074 199.063, 122.796 200.983, 119.574 203.485 M 133.500 229.969 C 124.595 231.430, 112.531 236.792, 108.364 241.142 L 105.789 243.830 98.144 241.268 C 93.940 239.860, 89.719 238.323, 88.764 237.853 C 86.766 236.872, 77.928 236.707, 75.582 237.607 C 71.122 239.318, 76.361 247, 81.988 247 C 83.483 247, 87.808 248.125, 91.599 249.500 C 95.390 250.875, 99.168 252.018, 99.996 252.040 C 100.823 252.062, 103.722 254.124, 106.439 256.623 C 110.755 260.594, 111.227 261.406, 110.189 263.070 C 108.233 266.201, 108.810 268.423, 112.508 272.008 C 115.959 275.352, 116.087 275.388, 120.258 274.149 C 128.705 271.639, 143.198 270.299, 146.307 271.739 C 147.513 272.298, 150.975 273.282, 154 273.926 C 157.025 274.571, 161.437 275.591, 163.805 276.194 C 169.256 277.583, 170.352 276.603, 170.436 270.264 L 170.500 265.500 161.082 263.957 C 149.559 262.069, 148.088 260.660, 152.546 255.780 C 159.493 248.179, 161.156 244.245, 159.117 240.236 C 158.631 239.281, 157.621 237.199, 156.873 235.610 C 154.410 230.380, 144.936 228.093, 133.500 229.969 M 126.543 243.052 C 123.817 244.097, 120.222 246.317, 118.554 247.985 C 115.963 250.576, 115.705 251.271, 116.784 252.759 C 117.478 253.716, 118.980 255.963, 120.122 257.750 C 121.435 259.806, 123.007 261, 124.402 261 C 130.757 261, 148.410 247.875, 147.800 243.604 C 147.526 241.683, 146.804 241.485, 139.500 241.326 C 133.708 241.200, 130.132 241.676, 126.543 243.052" stroke="none" fill="black" fill-rule="evenodd"/>
</svg>