<svg xmlns="http://www.w3.org/2000/svg" width="300" height="300" viewBox="0 0 300 300" version="1.1">
	<path d="M 152.778 13.750 C 151.936 14.713, 150.360 17.538, 149.277 20.029 C 147.742 23.559, 146.398 24.968, 143.177 26.420 C 138.265 28.635, 136.888 27.907, 135.174 22.188 C 133.910 17.969, 130.692 15.625, 126.899 16.161 C 123.747 16.606, 123.268 20.517, 125.614 26.660 L 127.368 31.251 124.175 33.876 C 121.627 35.970, 120.984 37.248, 120.991 40.200 C 121.002 44.554, 123.132 46.280, 126.781 44.893 C 130.355 43.534, 131.226 44.674, 130.575 49.858 C 129.935 54.959, 131.749 58.694, 134.376 57.686 C 136.261 56.963, 138.647 51.633, 139.382 46.503 C 139.941 42.600, 142.063 40, 144.691 40 C 146.483 40, 146.387 46.087, 144.540 49.669 C 143.736 51.226, 142.847 53.625, 142.562 55 C 141.696 59.190, 135.679 64.800, 130.710 66.051 C 124.946 67.503, 112 77.516, 112 80.524 C 112 82.865, 116.147 87, 118.494 87 C 119.786 87, 123.790 85.087, 127.390 82.750 C 142.067 73.223, 143.115 72.759, 144.591 75.148 C 145.184 76.107, 146.421 85.619, 147.294 95.936 C 147.445 97.717, 146.573 99.004, 144.050 100.721 C 139.573 103.770, 137.583 103.341, 137.187 99.242 C 137.014 97.459, 136.488 96, 136.018 96 C 135.548 96, 134.175 94.400, 132.966 92.446 C 131.382 89.882, 130.174 88.976, 128.635 89.196 C 126.634 89.481, 126.495 90.092, 126.421 98.934 L 126.342 108.369 120.921 111.960 C 115.315 115.673, 113.739 118.775, 116.046 121.555 C 117.700 123.549, 120.865 123.363, 125.500 121 C 131.498 117.942, 132.365 118.259, 131.662 123.250 C 131.332 125.588, 130.772 128.732, 130.417 130.238 C 129.935 132.281, 130.198 133.139, 131.453 133.620 C 133.514 134.411, 138 132.157, 138 130.331 C 138 129.599, 138.402 129, 138.893 129 C 140.231 129, 141.231 126.034, 141.589 121 C 141.828 117.641, 142.569 115.929, 144.510 114.250 C 145.941 113.013, 147.710 112, 148.442 112 C 150.068 112, 150.880 116.888, 150.222 122.721 C 149.813 126.352, 148.948 127.760, 144.887 131.412 C 142.117 133.903, 138.607 136.039, 136.696 136.397 C 134.858 136.742, 131.233 138.369, 128.642 140.012 C 126.051 141.655, 123.330 143, 122.596 143 C 119.979 143, 99 154.151, 99 155.541 C 99 158.290, 108.019 161.396, 109.420 159.129 C 109.716 158.650, 111.333 157.983, 113.013 157.647 C 116.849 156.880, 126.999 152.880, 137.877 147.849 C 142.484 145.718, 147.393 143.688, 148.787 143.339 L 151.320 142.703 150.645 153.002 C 150.144 160.651, 149.564 163.598, 148.393 164.455 C 147.525 165.089, 143.369 166.868, 139.158 168.408 C 129.032 172.109, 117.262 176.797, 113.345 178.689 C 110.757 179.939, 110.124 180.902, 109.824 184.045 C 109.623 186.152, 109.618 188.354, 109.813 188.938 C 110.345 190.534, 115.577 190.215, 117 188.500 C 117.685 187.675, 119.325 187, 120.644 187 C 121.964 187, 126.021 185.650, 129.660 184 C 133.299 182.350, 136.827 181, 137.499 181 C 138.171 181, 140.379 179.875, 142.405 178.500 C 144.431 177.125, 147.018 176, 148.154 176 C 149.979 176, 150.150 176.436, 149.627 179.750 C 149.302 181.813, 148.574 190.920, 148.009 199.990 C 147.444 209.059, 146.777 217.159, 146.526 217.990 C 146.274 218.820, 145.977 223.325, 145.864 228 C 145.751 232.675, 145.272 237.850, 144.798 239.500 C 144.324 241.150, 143.724 255.438, 143.464 271.250 L 142.991 300 148.245 300.002 L 153.500 300.004 152.882 287.252 C 152.542 280.238, 151.933 273.513, 151.530 272.308 C 151.127 271.102, 151.376 266.152, 152.085 261.308 C 152.793 256.463, 153.448 250.025, 153.540 247 C 153.632 243.975, 154.193 237.450, 154.788 232.500 C 155.382 227.550, 156.371 215.400, 156.986 205.500 C 157.601 195.600, 158.298 185.925, 158.535 184 C 158.772 182.075, 159.152 178.328, 159.380 175.674 C 159.883 169.804, 162.342 166.888, 168.823 164.474 C 171.395 163.516, 174.400 161.961, 175.500 161.018 C 176.600 160.076, 179.525 158.528, 182 157.580 C 184.475 156.631, 189.200 154.573, 192.500 153.006 C 195.800 151.440, 200.431 149.649, 202.791 149.026 C 206.196 148.129, 207.425 147.178, 208.738 144.422 C 210.338 141.068, 210.320 140.875, 208.192 138.748 C 204.743 135.298, 199.585 135.826, 193.138 140.288 C 190.189 142.330, 187.329 144, 186.783 144 C 186.237 144, 183.790 145.350, 181.345 147 C 178.900 148.650, 176.425 150, 175.845 150 C 175.265 150, 172.855 151.306, 170.489 152.903 C 162.023 158.616, 160.520 158.017, 160.870 149.064 C 161.306 137.901, 161.667 137.133, 167.875 134.178 C 170.969 132.705, 173.726 131.203, 174.003 130.841 C 174.667 129.971, 180.562 127.781, 191 124.528 C 199.736 121.805, 204.256 118.830, 203.329 116.414 C 203.039 115.658, 201.371 114.156, 199.622 113.075 L 196.442 111.110 189.971 113.420 C 175.527 118.576, 169.803 121.048, 166.527 123.547 C 163.403 125.930, 161 126.160, 161 124.076 C 161 123.632, 162.012 121.984, 163.250 120.413 C 165.732 117.263, 167.962 111.629, 167.985 108.450 C 167.993 107.323, 168.412 105.973, 168.915 105.450 C 169.419 104.928, 169.981 103.375, 170.165 102 C 170.398 100.265, 172.631 97.902, 177.461 94.280 C 181.289 91.409, 185.204 87.584, 186.160 85.780 C 187.116 83.976, 188.194 81.938, 188.556 81.250 C 189.669 79.134, 188.189 77, 185.608 77 C 184.258 77, 181.072 78.588, 178.529 80.530 C 175.986 82.471, 173.422 83.761, 172.831 83.395 C 172.150 82.975, 171.985 80.787, 172.379 77.433 C 173.120 71.130, 171.770 66.711, 169.247 67.177 C 166.176 67.745, 162.068 77.688, 162.032 84.643 C 162.010 88.833, 161.574 90.950, 160.659 91.300 C 157.997 92.322, 156.784 90.180, 156.248 83.506 C 155.738 77.144, 155.516 76.647, 152.353 74.781 C 150.509 73.693, 149 72.374, 149 71.850 C 149 70.719, 155.168 68, 157.733 68 C 158.721 68, 161.209 67.100, 163.261 66 C 165.314 64.900, 168.059 64, 169.362 64 C 172.598 64, 177.007 60.334, 176.967 57.677 C 176.884 52.249, 170.132 49.132, 165.473 52.371 C 164.388 53.125, 161.249 54.221, 158.498 54.807 C 155.747 55.393, 152.709 56.174, 151.748 56.543 C 149.150 57.540, 149.579 55.414, 153 50.345 C 154.650 47.900, 156 44.824, 156 43.509 C 156 42.194, 156.450 40.840, 157 40.500 C 157.550 40.160, 158 38.589, 158 37.009 C 158 34.195, 160.848 31.329, 166.479 28.476 C 169.133 27.131, 172.513 20.780, 171.701 18.664 C 170.893 16.556, 165.705 16.446, 164 18.500 C 163.315 19.325, 161.902 20, 160.859 20 C 159.366 20, 159.088 19.498, 159.553 17.644 C 159.931 16.140, 159.550 14.693, 158.501 13.644 C 156.388 11.531, 154.693 11.563, 152.778 13.750 M 67.450 47.081 C 67.082 47.676, 65.815 47.919, 64.633 47.623 C 63.451 47.326, 61.875 47.459, 61.132 47.918 C 58.872 49.315, 61.849 56.050, 65.250 57.237 C 68.329 58.310, 68.741 60.575, 66.849 66.004 C 65.851 68.867, 65.943 69.485, 67.540 70.653 C 70.469 72.795, 72.946 72.272, 74.087 69.270 C 74.658 67.769, 75.503 66.307, 75.966 66.020 C 76.903 65.440, 77.379 61.362, 77.151 55.856 C 76.911 50.051, 69.665 43.497, 67.450 47.081 M 68.825 77.522 C 66.254 79.385, 61.754 81.674, 58.825 82.608 C 55.896 83.541, 52.938 84.742, 52.250 85.275 C 50.582 86.569, 50.653 92.467, 52.354 93.878 C 54.128 95.351, 62.706 94.270, 66 92.158 C 67.375 91.276, 70.525 89.554, 73 88.332 C 79.338 85.202, 81 83.640, 81 80.814 C 81 78.136, 77.246 73.959, 74.936 74.067 C 74.146 74.104, 71.396 75.658, 68.825 77.522 M 65 107.583 C 63.625 108.346, 61.566 108.977, 60.424 108.985 C 57.027 109.009, 54.217 112.947, 54.409 117.415 C 54.633 122.650, 56.926 124.136, 61.100 121.750 C 62.784 120.787, 65.113 120, 66.276 120 C 69.305 120, 74.006 115.149, 73.968 112.063 C 73.901 106.613, 70.137 104.733, 65 107.583 M 68.961 130.391 C 67.565 131.001, 63.853 133.519, 60.711 135.987 C 55.671 139.947, 55 140.892, 55 144.037 C 55 151.924, 59.519 151.901, 69.385 143.964 C 79.098 136.150, 80.027 133.572, 74.187 130.634 C 72.132 129.601, 70.902 129.544, 68.961 130.391 M 75.692 168.015 C 74.147 168.479, 69.947 171.478, 66.358 174.679 C 56.798 183.208, 57.575 182.967, 53.245 178.739 C 45.878 171.546, 35.101 172.966, 36.810 180.905 C 37.586 184.507, 38.761 185.513, 43.321 186.477 C 44.975 186.827, 49.006 189.937, 53.059 193.990 L 59.975 200.906 59.349 205.471 C 58.856 209.068, 59.104 210.457, 60.517 212.018 C 62.759 214.496, 63.557 214.494, 66.727 212 C 68.126 210.900, 70.504 210, 72.013 210 C 73.521 210, 76.273 209.369, 78.128 208.597 C 79.983 207.826, 84.309 207.223, 87.743 207.258 C 94.705 207.330, 98 205.449, 98 201.404 C 98 198.113, 96.395 197.511, 88.250 197.751 C 80.317 197.985, 79.491 197.233, 82.550 192.564 C 84.928 188.935, 88 179.880, 87.996 176.514 C 87.994 174.856, 87.101 172.037, 86.011 170.250 C 83.908 166.801, 81.484 166.276, 75.692 168.015 M 71.963 185.282 C 69.601 187.154, 66 192.628, 66 194.345 C 66 199.062, 70.890 196.201, 74.067 189.626 C 76.508 184.574, 75.495 182.482, 71.963 185.282" stroke="none" fill="black" fill-rule="evenodd"/>
</svg>