<svg xmlns="http://www.w3.org/2000/svg" width="300" height="300" viewBox="0 0 300 300" version="1.1">
	<path d="M 103.933 31.581 C 102.903 32.821, 102.877 33.573, 103.810 35.068 C 104.470 36.125, 105 40.511, 105 44.921 C 105 49.293, 105.412 53.952, 105.915 55.275 C 107.778 60.176, 109.342 98.809, 108.347 115.369 C 107.290 132.979, 107.312 132.927, 99.691 135.211 C 94.791 136.679, 94.469 136.149, 94.616 126.845 C 94.813 114.415, 95.764 110.998, 100.352 106.227 C 103.635 102.813, 104.252 101.623, 103.421 100.306 C 102.849 99.399, 101.379 98.583, 100.155 98.493 C 96.038 98.190, 95.628 96.813, 96.847 87.371 C 97.468 82.560, 98.432 78.168, 98.988 77.612 C 100.636 75.964, 100.146 72.442, 98 70.500 C 96.645 69.274, 96 67.420, 96 64.753 C 96 62.330, 96.769 59.838, 98 58.273 C 99.100 56.874, 100 54.682, 100 53.400 C 100 50.665, 96.797 48.612, 93.944 49.518 C 92.616 49.939, 90.954 49.298, 88.905 47.573 C 84.048 43.486, 81 44.717, 81 50.766 C 81 52.617, 80.504 55.057, 79.899 56.189 C 79.011 57.848, 79.299 59.239, 81.387 63.373 C 82.811 66.193, 84.250 70.525, 84.584 73 C 85.153 77.219, 84.956 77.735, 81.429 81.250 C 79.360 83.313, 76.932 85, 76.033 85 C 72.041 85, 70.606 90.429, 73.829 93.345 C 76.011 95.320, 78.303 95.449, 81.044 93.750 C 83.719 92.092, 84.964 93.993, 84.985 99.765 C 84.998 103.500, 84.602 104.271, 81.790 105.981 C 80.025 107.055, 77.213 108.223, 75.540 108.578 C 69.283 109.905, 67.396 113.834, 70.948 118.139 L 72.896 120.500 78.149 117.751 C 81.073 116.221, 83.783 115.383, 84.261 115.861 C 84.733 116.333, 85.205 121.785, 85.310 127.976 L 85.500 139.234 78 141.640 C 73.839 142.975, 68.719 143.925, 66.500 143.773 L 62.500 143.500 61.789 128.500 C 60.285 96.807, 59.738 94.596, 53.551 95.201 C 50.007 95.548, 50.145 93.281, 51.921 122 C 53.511 147.725, 53.738 149.023, 57.215 152.351 C 60.057 155.072, 60.546 155.185, 67.847 154.808 C 73.541 154.513, 76.933 153.719, 81.096 151.706 C 84.175 150.218, 87.446 149, 88.365 149 C 89.285 149, 93.258 147.875, 97.193 146.500 C 101.129 145.125, 106.010 144, 108.039 144 C 110.301 144, 112.788 143.168, 114.462 141.852 C 118.883 138.374, 132.346 134.885, 146.500 133.550 C 155.878 132.665, 160.739 131.720, 163.946 130.158 C 166.410 128.957, 168.774 128.374, 169.248 128.848 C 169.722 129.322, 169.584 131.767, 168.938 134.333 C 167.513 139.991, 168.210 142.251, 171.246 141.820 C 172.923 141.582, 174.345 139.745, 176.797 134.650 L 180.095 127.800 180.041 93.722 C 179.994 63.515, 179.800 59.437, 178.339 57.822 C 176.213 55.473, 173.756 55.507, 171.577 57.914 C 170.014 59.642, 169.903 61.720, 170.434 79.164 C 170.758 89.799, 171.271 103.563, 171.574 109.750 C 172.179 122.112, 172.360 121.783, 165.914 119.993 C 163.233 119.248, 161.089 119.373, 157.414 120.488 C 151.706 122.219, 142.415 122.481, 141.461 120.937 C 141.100 120.352, 141.523 119.079, 142.402 118.108 C 143.281 117.137, 144 115.332, 144 114.096 C 144 112.645, 146.399 109.485, 150.773 105.175 C 158.091 97.963, 161.149 92.089, 158.960 89.452 C 156.907 86.979, 155.131 87.813, 151.405 93 C 149.429 95.750, 147.165 98, 146.375 98 C 144.344 98, 143.469 95.079, 144.842 92.881 C 145.479 91.861, 146 88.906, 146 86.315 C 146 81.933, 146.362 81.262, 151.158 76.759 C 156.894 71.374, 156.757 70.144, 150.301 69.069 C 146.535 68.442, 146.500 68.394, 146.554 63.860 C 146.596 60.269, 147.297 58.413, 149.804 55.247 C 154.395 49.450, 153.742 45, 148.300 45 C 146.962 45, 146 44.396, 146 43.557 C 146 40.066, 137.863 37.537, 135.200 40.200 C 134.540 40.860, 134 43.920, 134 47 C 134 52.946, 132.873 54.980, 129.550 55.032 C 126.491 55.079, 124 57.401, 124 60.205 C 124 63.138, 126.818 66, 129.706 66 C 132.665 66, 134.324 68.522, 134.418 73.165 C 134.496 77.038, 134.275 77.340, 129.500 79.880 C 123.937 82.838, 122.652 85.853, 125.575 89.083 C 126.843 90.484, 128.415 90.934, 131.406 90.751 L 135.500 90.500 135.600 97.500 C 135.712 105.388, 134.937 107, 131.033 107 C 127.932 107, 125 109.725, 125 112.606 C 125 115.463, 127.814 119, 130.088 119 C 132.398 119, 133.739 121.661, 132.203 123.197 C 131.153 124.247, 122.599 127.610, 118.262 128.678 C 115.574 129.339, 114.154 126.724, 115.997 124.504 C 116.934 123.375, 117.080 114.144, 116.626 84.767 C 115.877 36.235, 115.631 33.895, 111.035 31.518 C 107.300 29.587, 105.575 29.602, 103.933 31.581 M 123 155.941 C 118.875 157.400, 113.475 159.335, 111 160.241 C 108.525 161.147, 103.125 162.887, 99 164.109 C 94.875 165.331, 90.938 166.762, 90.250 167.288 C 88.269 168.804, 88.788 171.879, 91.479 174.570 C 93.412 176.503, 94.568 176.903, 96.729 176.386 C 98.253 176.022, 99.950 175.420, 100.500 175.049 C 101.050 174.677, 104.875 173.135, 109 171.623 C 113.125 170.110, 117.978 168.226, 119.784 167.436 C 121.590 166.646, 123.926 166, 124.975 166 C 126.024 166, 127.156 165.557, 127.490 165.016 C 127.825 164.475, 130.214 163.418, 132.799 162.669 C 141.412 160.171, 142.438 152.814, 134.128 153.144 C 132.132 153.224, 127.125 154.482, 123 155.941 M 124 185.419 C 108.700 191.184, 102 195.956, 102 201.089 C 102 204.971, 99.539 205.371, 94.707 202.276 C 91.480 200.210, 89.218 199.573, 85 199.541 C 79.690 199.501, 79.489 199.598, 79.175 202.338 C 78.753 206.025, 81.468 209, 85.254 209 C 89.872 209, 94.763 211.860, 99.255 217.187 C 102.131 220.599, 104.013 221.999, 105.444 221.794 C 108.253 221.392, 108.716 216.489, 106.358 212.108 L 104.532 208.717 109.858 203.947 C 114.070 200.174, 116.994 198.595, 123.842 196.393 C 134.368 193.008, 142.262 192.580, 142.818 195.365 C 143.212 197.334, 140.089 204, 138.773 204 C 138.348 204, 138 204.597, 138 205.326 C 138 206.055, 136.872 207.712, 135.492 209.007 C 132.993 211.355, 130.720 212.390, 119.678 216.210 C 112.564 218.670, 110.413 221.857, 113.668 225.112 C 115.602 227.047, 115.921 227.070, 120.598 225.607 C 123.294 224.764, 127.354 223.606, 129.619 223.034 C 133.993 221.929, 139 218.581, 139 216.762 C 139 216.161, 141.700 212.858, 145 209.421 C 148.306 205.979, 151 202.263, 151 201.146 C 151 200.030, 151.450 198.840, 152 198.500 C 153.302 197.696, 153.289 191.409, 151.982 188.966 C 151.421 187.919, 149.019 185.924, 146.644 184.531 C 140.788 181.100, 134.845 181.333, 124 185.419 M 112.654 232.174 C 109.303 234.049, 108.755 236.792, 110.528 242.818 C 112.370 249.077, 113.546 252.156, 115.622 256.154 C 119.421 263.472, 116.934 264.553, 93 265.990 C 82.275 266.634, 69.675 267.804, 65 268.591 C 57.340 269.881, 54.744 270.638, 50.042 272.948 C 49.240 273.342, 48.196 275.162, 47.722 276.993 C 46.961 279.930, 47.207 280.669, 49.815 283.276 C 52.599 286.061, 52.978 286.162, 56.385 285.038 C 58.373 284.382, 60 283.430, 60 282.922 C 60 282.415, 61.168 282, 62.596 282 C 64.023 282, 66.386 281.367, 67.846 280.593 C 71.589 278.609, 80.072 277.059, 90 276.543 C 94.675 276.301, 105.025 275.674, 113 275.150 C 120.975 274.626, 128.625 274.214, 130 274.234 C 131.375 274.253, 139.700 274.178, 148.500 274.067 C 157.300 273.955, 165.175 274.104, 166 274.397 C 166.825 274.690, 174.700 275.409, 183.500 275.993 C 192.300 276.578, 201.975 277.490, 205 278.020 C 208.025 278.550, 214.100 279.411, 218.500 279.935 C 233.710 281.744, 240.514 283.101, 244.136 285.047 C 246.136 286.121, 248.922 287, 250.327 287 C 251.732 287, 253.160 287.450, 253.500 288 C 254.387 289.435, 262.569 289.236, 263.740 287.750 C 264.281 287.063, 265.016 285.276, 265.374 283.781 C 265.889 281.623, 265.556 280.779, 263.761 279.694 C 262.518 278.943, 260.150 277.466, 258.500 276.414 C 256.765 275.307, 252.760 274.244, 249 273.892 C 245.425 273.558, 238.675 272.563, 234 271.681 C 211.846 267.501, 172.083 264.119, 144.250 264.047 C 127.552 264.004, 126 263.851, 126.004 262.250 C 126.007 260.600, 134.312 253, 136.112 253 C 136.572 253, 137.701 251.537, 138.620 249.750 C 139.539 247.963, 141.576 244.935, 143.146 243.022 C 146.582 238.836, 146.783 235.474, 143.750 232.944 C 140.021 229.833, 136 231.032, 136 235.255 C 136 237.111, 128.593 248.874, 126.583 250.208 C 125.054 251.224, 124.583 250.376, 122.035 242 C 120.780 237.875, 119.344 233.986, 118.844 233.358 C 117.520 231.696, 114.531 231.124, 112.654 232.174" stroke="none" fill="black" fill-rule="evenodd"/>
</svg>