<svg xmlns="http://www.w3.org/2000/svg" width="300" height="300" viewBox="0 0 300 300" version="1.1">
	<path d="M 91.630 2.250 C 90.692 5.751, 90.894 10.817, 92 11.500 C 92.550 11.840, 93.011 14.004, 93.024 16.309 C 93.038 18.614, 93.529 22.525, 94.115 25 C 94.701 27.475, 95.297 33.459, 95.438 38.297 C 95.579 43.136, 96.168 47.568, 96.747 48.147 C 98.224 49.624, 101.777 48.277, 102.512 45.962 C 104.081 41.019, 102.542 9.165, 100.376 1.750 C 100.005 0.478, 98.822 0, 96.049 0 C 92.937 0, 92.122 0.415, 91.630 2.250 M 119.491 8.765 C 118.396 9.562, 114 19.855, 114 21.620 C 114 22.215, 112.875 24.818, 111.500 27.404 C 107.063 35.748, 108.946 40.828, 115.090 37.092 C 119.038 34.690, 125 27.401, 125 24.974 C 125 24.014, 125.672 21.940, 126.494 20.364 C 128.639 16.252, 128.352 13.261, 125.545 10.455 C 123.039 7.948, 121.286 7.459, 119.491 8.765 M 75.975 28.565 C 75.439 29.976, 75 31.472, 75 31.891 C 75 33.704, 79.826 36.842, 83.547 37.448 C 86.821 37.981, 88.118 37.695, 90.335 35.951 C 92.507 34.242, 92.835 33.506, 91.915 32.398 C 91.277 31.629, 89.748 31, 88.517 31 C 87.286 31, 84.621 29.875, 82.595 28.500 C 77.982 25.369, 77.187 25.377, 75.975 28.565 M 127 47.379 C 117.340 49.651, 106.631 53.924, 98.182 58.877 C 95.607 60.386, 92.825 61.942, 92 62.333 C 83.390 66.421, 53.290 83.701, 46.627 88.382 C 44.521 89.861, 42.955 90.129, 39.314 89.630 C 33.969 88.897, 29.914 86.147, 21.732 77.707 C 16.496 72.307, 15.673 71.815, 12.827 72.385 C 11.102 72.730, 9.090 73.511, 8.355 74.120 C 5.747 76.285, 9.359 84, 12.981 84 C 13.900 84, 15.708 85.125, 17 86.500 C 18.292 87.875, 19.761 89, 20.264 89 C 20.768 89, 23.699 91.246, 26.778 93.990 C 33.426 99.915, 37.401 101.025, 42.977 98.511 C 45.094 97.556, 47.306 97.071, 47.892 97.434 C 48.893 98.052, 52.894 96.490, 54 95.049 C 54.275 94.691, 56.975 93.124, 60 91.567 C 63.025 90.010, 66.772 87.670, 68.327 86.368 C 69.881 85.065, 72.183 84, 73.442 84 C 74.700 84, 77.011 82.992, 78.577 81.760 C 81.919 79.132, 85.617 76.939, 92.500 73.503 C 95.250 72.130, 99.966 69.655, 102.980 68.004 C 105.994 66.352, 109.382 65, 110.508 65 C 111.634 65, 113.444 64.377, 114.531 63.616 C 117.710 61.390, 129.922 58.114, 137.759 57.386 L 145 56.713 145 59.722 C 145 61.376, 144.100 63.874, 143 65.273 C 140.308 68.695, 140.356 72, 143.096 72 C 146.200 72, 157.298 61.829, 158.836 57.576 C 160.007 54.339, 159.927 53.706, 158.011 51.015 C 156.844 49.376, 154.914 47.353, 153.722 46.518 C 150.562 44.305, 138.404 44.696, 127 47.379 M 97.104 81.960 C 91.272 84.115, 88 86.521, 88 88.655 C 88 90.642, 85.571 90.288, 83.500 88 C 82.505 86.900, 80.938 86, 80.019 86 C 77.824 86, 74 90.125, 74 92.493 C 74 95.006, 75.863 100.700, 78.136 105.136 C 79.161 107.136, 80 110.329, 80 112.231 C 80 116.285, 81.857 118.164, 87.480 119.797 C 91.084 120.845, 91.791 120.727, 94.980 118.550 C 96.916 117.228, 100.300 115.384, 102.500 114.452 C 109.109 111.652, 109.348 111.467, 110.269 108.429 C 110.757 106.818, 112.022 103.392, 113.078 100.815 C 115.553 94.780, 115.638 85.993, 113.250 83.107 C 110.659 79.977, 103.792 79.489, 97.104 81.960 M 94 94.913 C 87.815 95.573, 87.292 96.429, 88.754 103.500 C 89.772 108.423, 92.981 109.485, 95.451 105.715 C 96.318 104.391, 98.147 102.799, 99.514 102.176 C 101.477 101.281, 102 100.302, 102 97.521 C 102 95.284, 101.544 94.059, 100.750 94.163 C 100.063 94.253, 97.025 94.590, 94 94.913 M 104.261 124.926 C 97.536 128.686, 94.257 133.163, 91.642 142.159 C 89.546 149.368, 89.575 151, 91.800 151 C 94.198 151, 96 149.077, 96 146.519 C 96 144.129, 106.768 132.983, 109.029 133.032 C 114.795 133.156, 118.671 144.632, 118.928 162.341 L 119.042 170.183 115.145 169.524 C 111.915 168.979, 110.812 169.263, 108.702 171.183 C 98.022 180.906, 94.419 183.704, 90.755 185.122 C 85.062 187.325, 84.159 189.014, 86.288 193.477 C 88.343 197.786, 90.456 198.802, 92.853 196.633 C 93.831 195.748, 96.068 194.736, 97.823 194.385 C 100.068 193.936, 102.034 192.374, 104.445 189.123 C 108.841 183.197, 116.339 176.001, 118.120 175.998 C 119.255 175.996, 119.411 178.731, 119 191.419 C 118.725 199.901, 118.180 207.159, 117.790 207.547 C 117.399 207.936, 117.748 209.547, 118.566 211.127 C 119.669 213.260, 120.777 214, 122.871 214 C 128.667 214, 128.745 213.520, 128.452 179.500 C 128.189 148.908, 128.016 146.873, 124.265 130.200 C 122.892 124.095, 111.242 121.023, 104.261 124.926 M 72.925 133.675 C 71.823 136.247, 71.197 139.059, 71.536 139.925 C 73.003 143.682, 71.567 203.176, 69.877 208.663 C 68.706 212.463, 71.401 219.261, 74.300 219.819 C 78.226 220.575, 79 218.351, 79 206.312 C 79 200.018, 79.413 194.097, 79.917 193.155 C 80.915 191.291, 82.200 169.331, 82.384 151 C 82.448 144.675, 82.869 138.930, 83.320 138.232 C 84.315 136.694, 78.532 129, 76.380 129 C 75.582 129, 74.027 131.104, 72.925 133.675 M 104.987 154.423 C 103.055 155.691, 99.307 159.266, 96.658 162.366 C 92.459 167.282, 91.928 168.397, 92.515 171.070 C 93.711 176.515, 95.606 175.947, 109.148 166.087 C 114.907 161.893, 115.181 161.503, 114.653 158.248 C 113.578 151.627, 110.876 150.558, 104.987 154.423 M 103.790 208.411 C 100.186 212.205, 93.113 217.237, 85.500 221.423 C 77.892 225.606, 74 228.685, 74 230.519 C 74 231.163, 74.882 232.489, 75.961 233.464 C 79.381 236.560, 85.772 234.835, 91.076 229.385 C 93.509 226.885, 96.850 224.138, 98.500 223.280 C 100.150 222.423, 101.725 221.408, 102 221.025 C 102.275 220.642, 105.137 219.133, 108.359 217.670 C 112.774 215.666, 114.068 214.620, 113.609 213.424 C 113.274 212.551, 113 211.230, 113 210.490 C 113 208.534, 110.160 206, 107.969 206 C 106.931 206, 105.050 207.085, 103.790 208.411 M 79.655 241.829 C 78.745 242.835, 78 244.001, 78 244.421 C 78 245.327, 71.771 252.763, 63.654 261.545 C 55.416 270.458, 44.017 279, 40.361 279 C 34.279 279, 31.017 283.895, 34.811 287.329 C 36.317 288.692, 37.744 288.833, 43.283 288.166 C 49.671 287.397, 50.174 287.131, 55.536 281.682 C 58.612 278.557, 61.591 276, 62.157 276 C 65.050 276, 78.312 261.944, 83.734 253.131 C 88.508 245.370, 85.070 235.845, 79.655 241.829 M 125.509 246.907 C 121.941 247.331, 120.427 247.977, 120.200 249.174 C 119.790 251.335, 126.500 255.270, 134.500 257.560 C 137.800 258.505, 142.750 260.297, 145.500 261.542 C 148.250 262.787, 151.625 264.303, 153 264.910 C 154.375 265.517, 159.100 268.240, 163.500 270.962 C 167.900 273.684, 171.982 275.931, 172.570 275.956 C 173.159 275.980, 175.409 277.471, 177.570 279.269 C 179.732 281.067, 185.032 284.780, 189.349 287.519 C 193.667 290.259, 199.137 294.206, 201.505 296.290 L 205.811 300.081 214.637 299.790 L 223.463 299.500 220.982 297.181 C 219.617 295.906, 214.225 291.966, 209 288.427 C 203.775 284.887, 197.250 280.398, 194.500 278.452 C 191.750 276.505, 185.970 273.019, 181.656 270.706 C 172.711 265.910, 170.470 264.655, 163.500 260.538 C 152.597 254.099, 135.469 246.009, 133.054 246.157 C 131.649 246.244, 128.254 246.581, 125.509 246.907" stroke="none" fill="black" fill-rule="evenodd"/>
</svg>