<svg xmlns="http://www.w3.org/2000/svg" width="300" height="300" viewBox="0 0 300 300" version="1.1">
	<path d="M 71.019 8.100 C 65.356 12.244, 60.253 14.816, 53.440 16.959 C 47.347 18.876, 40.891 22.120, 40.347 23.538 C 40.077 24.243, 40.569 26.201, 41.442 27.889 C 42.954 30.811, 43.248 30.928, 47.614 30.329 L 52.199 29.701 51.540 37.600 C 50.015 55.894, 48.806 65.558, 47.932 66.450 C 46.594 67.814, 46.782 74.382, 48.200 75.800 C 49.864 77.464, 53.988 77.177, 57.159 75.177 C 65.996 69.605, 68.997 67.373, 68.998 66.372 C 68.999 65.752, 69.646 64.709, 70.436 64.053 C 72.290 62.515, 75.996 64.332, 76.009 66.785 C 76.013 67.728, 77.617 70.188, 79.572 72.250 C 83.352 76.239, 87.724 77.243, 89.899 74.622 C 91.244 73.001, 90.064 69.128, 87.604 67.086 C 86.722 66.354, 86 64.937, 86 63.937 C 86 62.936, 85.600 61.871, 85.110 61.568 C 84.621 61.266, 83.965 59.552, 83.651 57.759 C 81.459 45.220, 81.593 45.579, 78.697 44.562 C 74.913 43.232, 72.754 44.744, 71.626 49.515 C 69.955 56.580, 57.604 66.209, 58.867 59.462 C 59.069 58.383, 59.571 51.650, 59.982 44.500 C 60.670 32.532, 60.582 31.368, 58.865 29.840 C 57.839 28.927, 57 27.928, 57 27.620 C 57 27.312, 60.375 25.501, 64.500 23.595 C 68.625 21.689, 72 19.700, 72 19.173 C 72 18.647, 73.193 17.917, 74.651 17.551 C 79.698 16.285, 84.139 8.282, 81.345 5.488 C 79.065 3.208, 76.984 3.735, 71.019 8.100 M 109 9.350 C 102.003 12.085, 97.710 14.440, 96.030 16.464 C 94.234 18.628, 96.107 22.710, 99.488 23.995 C 101.705 24.838, 102 25.533, 102 29.916 C 102 32.647, 101.550 35.160, 101 35.500 C 100.450 35.840, 100 37.611, 100 39.437 C 100 41.262, 99.330 43.311, 98.511 43.991 C 97.692 44.671, 97.281 45.645, 97.597 46.157 C 97.914 46.669, 97.459 48.177, 96.586 49.509 C 95.714 50.840, 95 52.690, 95 53.620 C 95 54.550, 93.875 56.786, 92.500 58.589 C 89.160 62.968, 89.173 66, 92.534 66 C 95.183 66, 101 60.953, 101 58.654 C 101 57.112, 104.683 53, 106.064 53 C 106.606 53, 107.445 54.013, 107.928 55.250 C 108.411 56.488, 110.368 58.995, 112.276 60.823 C 117.285 65.620, 121.261 65.070, 125.471 59 C 129.520 53.161, 131.086 46.274, 131.730 31.459 C 132.201 20.629, 132.045 19.009, 130.177 15.347 C 126.570 8.276, 117.974 5.842, 109 9.350 M 113.474 20.250 C 113.220 20.938, 112.591 25.550, 112.078 30.500 C 111.564 35.450, 110.849 40.662, 110.488 42.081 C 110.053 43.791, 110.572 46.240, 112.026 49.331 C 115.380 56.467, 117.767 55.480, 120.080 46 C 121.901 38.534, 121.931 22.830, 120.128 20.655 C 118.517 18.713, 114.142 18.446, 113.474 20.250 M 90.500 87.327 C 87.200 89.072, 83.974 91.175, 83.331 92 C 78.625 98.040, 79.217 97.786, 76.917 94.750 C 74.662 91.773, 71.458 91.213, 68.609 93.297 C 66.925 94.528, 66.915 95.375, 68.406 110.047 C 70.330 128.986, 70.136 125.382, 70.586 150.500 C 70.792 162.050, 71.331 172.816, 71.782 174.423 C 73.359 180.042, 78.104 180.423, 80.500 175.125 C 81.343 173.260, 82.049 173.005, 85 173.500 C 87.787 173.968, 89.213 173.555, 92 171.472 C 96.597 168.037, 106.978 162.868, 108.005 163.503 C 108.449 163.777, 108.591 164.849, 108.320 165.884 C 107.783 167.939, 111.241 171, 114.100 171 C 117.563 171, 118.334 168.277, 118.290 156.197 C 118.267 149.764, 117.966 139.775, 117.620 134 C 117.274 128.225, 116.750 119.450, 116.455 114.500 C 115.980 106.519, 115.273 102.257, 113.318 95.576 C 113.008 94.518, 110.723 91.480, 108.241 88.826 C 104.400 84.720, 103.187 84.012, 100.113 84.077 C 98.113 84.120, 93.822 85.571, 90.500 87.327 M 95.728 96.788 C 94.183 96.983, 92.263 98.196, 91.389 99.530 C 90.527 100.845, 88.895 102.216, 87.763 102.575 C 85.240 103.376, 79 109.479, 79 111.146 C 79 113.666, 81.435 118.953, 82.845 119.494 C 83.653 119.804, 86.156 118.821, 88.407 117.308 C 92.825 114.340, 101.253 111, 104.323 111 C 105.955 111, 106.129 110.504, 105.561 107.471 C 104.798 103.408, 101.472 97.352, 99.704 96.809 C 99.042 96.606, 97.253 96.596, 95.728 96.788 M 101.239 122.452 C 99.574 123.854, 97.686 125, 97.044 125 C 96.402 125, 93.542 126.099, 90.688 127.442 C 87.835 128.785, 84.263 130.348, 82.750 130.917 C 80.249 131.857, 80 132.408, 80 137.007 C 80 142.622, 81.802 144.389, 84.787 141.699 C 85.729 140.850, 87.850 139.843, 89.500 139.461 C 91.150 139.078, 94.199 137.438, 96.275 135.816 C 98.351 134.194, 101.620 132.611, 103.539 132.300 C 107.400 131.673, 108.384 129.744, 107.824 123.897 C 107.411 119.588, 105.216 119.106, 101.239 122.452 M 102.933 142.787 C 99.611 145.331, 89.965 150, 88.031 150 C 85.949 150, 79 155.772, 79 157.501 C 79 162.726, 87.958 163.493, 96.500 159 C 99.637 157.350, 103.752 156, 105.645 156 L 109.088 156 108.794 148.761 C 108.466 140.690, 107.268 139.468, 102.933 142.787 M 73.130 194.505 C 71.958 196.490, 71 198.568, 71 199.122 C 71 199.676, 65.158 205.879, 58.019 212.907 C 47.025 223.728, 44.019 226.117, 38.386 228.511 C 32.751 230.906, 31.291 231.171, 28.836 230.244 C 26.339 229.302, 25.661 229.447, 23.938 231.297 C 18.232 237.422, 27.194 240.511, 40 236.833 C 48.483 234.396, 54.080 230.398, 68.934 216.165 C 72.473 212.774, 75.677 210, 76.055 210 C 76.433 210, 78.240 207.078, 80.072 203.508 L 83.402 197.015 81.351 194.258 C 78.282 190.132, 75.663 190.210, 73.130 194.505 M 116.500 197.463 C 115.950 197.672, 113.362 198.131, 110.750 198.483 C 106.937 198.996, 106 199.505, 106 201.061 C 106 202.574, 106.700 203, 109.186 203 C 110.938 203, 113.300 203.832, 114.436 204.848 C 115.571 205.864, 118.475 207.460, 120.889 208.395 C 123.303 209.330, 127.209 211.423, 129.569 213.047 C 131.929 214.671, 134.547 216, 135.386 216 C 136.225 216, 138.524 217.095, 140.496 218.433 C 142.468 219.771, 146.200 221.646, 148.790 222.599 C 151.381 223.553, 154.419 225.149, 155.543 226.147 C 156.667 227.144, 159.142 228.489, 161.043 229.135 C 162.944 229.781, 167.771 232.491, 171.769 235.155 C 175.767 237.820, 179.277 240, 179.567 240 C 179.858 240, 182.547 241.568, 185.544 243.485 C 188.540 245.401, 192.568 247.628, 194.495 248.434 C 196.423 249.239, 198 250.328, 198 250.854 C 198 251.380, 200.022 252.995, 202.494 254.443 C 208.343 257.871, 211 256.814, 211 251.059 C 211 247.559, 210.520 246.843, 205.998 243.594 C 203.246 241.617, 200.492 240, 199.877 240 C 198.771 240, 196.231 238.503, 183.342 230.250 C 179.691 227.912, 176.293 226, 175.792 226 C 175.290 226, 172.817 224.425, 170.296 222.500 C 167.775 220.575, 164.915 219, 163.940 219 C 162.964 219, 162.017 218.662, 161.833 218.250 C 161.173 216.764, 153.360 212.042, 146.500 208.983 C 142.650 207.266, 135.880 204.100, 131.455 201.947 C 123.728 198.187, 118.625 196.657, 116.500 197.463" stroke="none" fill="black" fill-rule="evenodd"/>
</svg>