<svg xmlns="http://www.w3.org/2000/svg" width="300" height="300" viewBox="0 0 300 300" version="1.1">
	<path d="M 116.561 41.933 C 115.251 43.380, 114.990 44.699, 115.521 47.183 C 116.381 51.199, 117.681 52.928, 120.709 54.079 C 121.969 54.559, 123 55.776, 123 56.784 C 123 57.793, 123.661 59.491, 124.468 60.559 C 126.806 63.650, 126.291 65.298, 121.528 69.972 C 116.829 74.584, 113.473 80.338, 114.507 82.011 C 114.843 82.555, 116.441 83, 118.059 83 C 121.253 83, 124.550 80.314, 125.983 76.545 C 126.684 74.701, 128.124 73.892, 132.412 72.932 C 135.711 72.194, 138.826 70.750, 140.143 69.348 C 142.659 66.670, 145.785 66.275, 146.649 68.527 C 146.971 69.367, 146.057 71.753, 144.617 73.831 C 143.178 75.908, 142 78.130, 142 78.769 C 142 79.407, 141.058 80.434, 139.906 81.050 C 138.349 81.884, 137.988 82.726, 138.499 84.336 C 138.877 85.526, 139.257 87.588, 139.343 88.917 C 139.562 92.294, 141.789 92.685, 142.979 89.554 C 143.525 88.120, 144.837 86.621, 145.896 86.223 C 147.790 85.512, 154.006 78.871, 157.312 74.027 C 161.030 68.581, 158.531 58.967, 152.336 54.883 C 148.726 52.503, 145.899 52.505, 142.868 54.889 C 139.845 57.267, 132.883 60.216, 132.112 59.446 C 131.793 59.127, 131.363 55.521, 131.157 51.433 C 130.808 44.517, 130.626 44, 128.546 44 C 127.316 44, 125.495 43.100, 124.500 42 C 122.208 39.468, 118.818 39.439, 116.561 41.933 M 62 65.396 C 60.625 66.135, 57.412 67.668, 54.861 68.802 C 52.310 69.937, 48.645 72.251, 46.718 73.943 C 44.791 75.635, 42.603 76.771, 41.857 76.468 C 41.111 76.164, 38.985 73.910, 37.133 71.458 C 34.616 68.125, 33.089 67, 31.083 67 C 24.285 67, 24.233 72.749, 30.964 80.088 C 33.694 83.065, 36 86.513, 36.089 87.750 C 36.178 88.987, 36.306 91.314, 36.375 92.919 C 36.444 94.525, 37.450 96.888, 38.612 98.169 C 39.774 99.451, 41.567 103.382, 42.598 106.905 C 43.783 110.957, 45.085 113.471, 46.142 113.747 C 47.741 114.166, 49.620 120.187, 48.644 121.767 C 48.395 122.170, 48.792 126.550, 49.526 131.500 C 51.486 144.724, 51.618 158.752, 49.823 163 C 48.782 165.461, 48.597 167.463, 49.199 169.746 C 50.186 173.490, 48.706 177.084, 44.595 180.924 L 42 183.349 39.602 181.096 C 38.283 179.857, 36.970 177.641, 36.684 176.171 C 35.377 169.449, 34.017 165.641, 32.215 163.653 C 31.141 162.469, 29.972 160.271, 29.617 158.768 C 28.776 155.209, 23.999 152.549, 21.601 154.303 C 20.180 155.341, 20.108 156.031, 21.105 159.010 C 21.747 160.929, 22.662 162.928, 23.136 163.450 C 23.611 163.973, 24 165.633, 24 167.141 C 24 168.649, 24.438 170.153, 24.973 170.483 C 27.141 171.823, 29.470 178.773, 29.485 183.945 C 29.500 189.229, 29.375 189.475, 25.309 192.222 C 19.703 196.009, 19.046 198.394, 22.590 202.094 C 24.121 203.692, 26.307 205, 27.448 205 C 28.588 205, 33.926 202.075, 39.310 198.500 C 44.694 194.925, 49.545 192, 50.089 192 C 50.634 192, 52.844 190.200, 55 188 C 57.588 185.360, 59.807 184, 61.526 184 C 65.364 184, 68 182.235, 68 179.665 C 68 176.939, 69.746 175, 72.200 175 C 76.786 175, 80.143 166.023, 76.643 163.119 C 74.797 161.587, 69.411 162.781, 65.162 165.665 C 61.053 168.453, 59.498 168.651, 60.560 166.250 C 60.985 165.287, 61.253 162.962, 61.154 161.083 C 61.014 158.410, 61.686 156.970, 64.237 154.475 C 66.032 152.720, 69.300 148.741, 71.500 145.631 C 73.700 142.522, 76.962 138.296, 78.749 136.239 C 82.848 131.523, 83.125 127.378, 79.435 125.975 C 75.269 124.391, 73.248 124.825, 70 128 C 68.269 129.692, 65.856 131, 64.466 131 C 63.109 131, 62 131.450, 62 132 C 62 132.550, 62.481 133, 63.070 133 C 65.218 133, 63.537 137.495, 61.268 137.817 C 59.288 138.099, 59.040 137.702, 59.069 134.317 C 59.087 132.218, 58.552 126.823, 57.880 122.329 C 56.662 114.179, 56.651 114.157, 53.320 113.532 C 50.379 112.980, 50.105 112.672, 51.025 110.953 C 51.692 109.706, 53.117 109, 54.964 109 C 56.555 109, 58.538 108.319, 59.371 107.487 C 60.203 106.654, 62.373 105.691, 64.192 105.346 C 69.262 104.384, 70 103.325, 70 97 C 70 93.104, 70.485 90.843, 71.500 90 C 72.325 89.315, 73.005 87.798, 73.011 86.628 C 73.017 85.457, 73.682 82.323, 74.490 79.661 C 75.884 75.066, 75.846 74.626, 73.729 70.917 C 72.503 68.769, 70.082 66.333, 68.349 65.505 C 64.610 63.719, 65.106 63.728, 62 65.396 M 86.646 66.452 C 85.191 67.801, 84 69.324, 84 69.836 C 84 70.764, 88.087 74.537, 95.881 80.801 C 98.140 82.617, 100.258 85.181, 100.589 86.499 C 100.920 87.816, 102.273 89.604, 103.595 90.470 C 105.031 91.411, 106 93.015, 106 94.450 C 106 96.011, 107.315 97.940, 109.750 99.950 C 113.539 103.077, 116.834 103.591, 116.102 100.941 C 115.883 100.148, 115.760 97.608, 115.828 95.294 C 115.897 92.981, 115.513 90.817, 114.976 90.485 C 114.439 90.154, 114 88.406, 114 86.601 C 114 84.073, 113.427 83.060, 111.500 82.182 C 110.125 81.555, 109 80.609, 109 80.080 C 109 78.343, 98.926 67.539, 95.676 65.792 C 91.352 63.467, 89.740 63.584, 86.646 66.452 M 57.465 78.952 C 56.346 79.405, 54.829 80.502, 54.093 81.388 C 53.357 82.275, 51.460 83, 49.878 83 C 46.903 83, 46.667 83.445, 46.964 88.500 C 47.159 91.815, 49.313 94, 52.386 94 C 54.643 94, 60 89.312, 60 87.337 C 60 86.628, 60.898 84.575, 61.996 82.774 C 63.094 80.973, 63.994 79.162, 63.996 78.750 C 64.001 77.775, 60.069 77.896, 57.465 78.952 M 104.936 123.578 C 103.846 124.890, 103.931 125.941, 105.438 129.828 C 106.635 132.916, 107.420 138.337, 107.753 145.820 L 108.257 157.140 104.879 159.973 L 101.500 162.807 104 165.487 C 106.079 167.716, 106.514 169.206, 106.585 174.334 C 106.718 183.927, 107.976 189.204, 110.873 192.312 C 114.366 196.061, 121.262 199, 126.562 199 C 128.931 199, 131.919 199.399, 133.202 199.887 C 139.538 202.296, 165.137 203.155, 175.369 201.303 C 179.698 200.519, 183.874 200.122, 184.651 200.420 C 185.894 200.896, 189.307 200.222, 201.640 197.064 C 205.548 196.064, 211.695 191.337, 213.491 187.951 C 214.235 186.550, 215.791 182.589, 216.949 179.150 C 218.809 173.631, 219.003 171.232, 218.608 158.699 C 218.163 144.594, 216.754 137.669, 213.594 134.050 C 212.850 133.197, 211.486 131.009, 210.562 129.186 C 208.551 125.219, 206.896 125.464, 205.746 129.901 C 205.083 132.459, 205.344 133.917, 206.950 136.640 C 208.077 138.551, 209 140.962, 209 141.998 C 209 143.034, 209.450 144.160, 210 144.500 C 211.355 145.338, 211.269 161.574, 209.874 168.174 C 208.020 176.949, 204.474 183.425, 200.051 186.115 C 194.523 189.477, 174.671 192.101, 159.506 191.474 C 132.824 190.371, 126.249 189.359, 120.255 185.432 C 118.001 183.954, 117.911 183.468, 118.329 175.015 L 118.768 166.148 125.629 159.824 C 137.378 148.993, 150 134.386, 150 131.619 C 150 130.746, 148.676 128.562, 147.057 126.766 C 143.352 122.655, 142.072 123.285, 136.263 132.083 C 133.933 135.612, 131.434 138.950, 130.710 139.500 C 129.986 140.050, 127.933 142.637, 126.149 145.250 C 124.364 147.863, 122.476 150.067, 121.952 150.150 C 121.428 150.233, 120.532 150.345, 119.959 150.400 C 119.354 150.458, 118.756 147.410, 118.530 143.121 C 118.316 139.062, 117.659 135.259, 117.071 134.671 C 116.482 134.082, 116 131.975, 116 129.989 C 116 125.478, 112.988 122, 109.083 122 C 107.522 122, 105.656 122.710, 104.936 123.578" stroke="none" fill="black" fill-rule="evenodd"/>
</svg>