<svg xmlns="http://www.w3.org/2000/svg" width="300" height="300" viewBox="0 0 300 300" version="1.1">
	<path d="M 107.750 48.088 C 105.287 49.511, 105.549 54.287, 108.276 57.673 C 111.934 62.215, 113.500 67.860, 113.500 76.500 C 113.500 83.879, 113.664 84.523, 115.612 84.801 C 117.165 85.023, 118.137 84.229, 119.287 81.801 C 123.652 72.585, 123.855 63.463, 119.877 55.246 C 116.972 49.244, 111.420 45.968, 107.750 48.088 M 25.079 69.404 C 23.384 71.447, 24.730 75.814, 28.627 80.914 C 30.482 83.342, 32 85.904, 32 86.607 C 32 87.310, 32.864 89.374, 33.920 91.193 C 34.976 93.012, 36.140 96.978, 36.505 100.007 C 37.071 104.695, 36.860 105.909, 35.085 108.165 C 32.747 111.137, 32.363 115.782, 34.250 118.258 C 34.938 119.160, 37.229 120.033, 39.343 120.199 L 43.186 120.500 43.536 129.020 C 43.729 133.705, 44.351 139.555, 44.919 142.020 C 46.384 148.377, 46.238 156.891, 44.569 162.435 C 43.783 165.050, 42.826 170.113, 42.443 173.687 C 41.857 179.164, 41.249 180.683, 38.584 183.343 C 32.954 188.961, 23.966 196.300, 23.404 195.737 C 23.103 195.437, 23.280 191.660, 23.796 187.345 C 24.332 182.869, 24.363 178.777, 23.868 177.816 C 23.391 176.889, 23 173.107, 23 169.410 C 23 163.717, 22.603 162.169, 20.406 159.288 C 18.274 156.493, 17.250 155.942, 14.656 156.194 C 11.673 156.483, 11.466 156.774, 10.884 161.500 C 10.545 164.250, 10.657 166.928, 11.134 167.450 C 11.610 167.973, 12 169.451, 12 170.735 C 12 172.020, 12.741 174.202, 13.647 175.584 C 15.050 177.725, 15.198 179.911, 14.644 190.299 L 13.993 202.500 6.971 209 C 3.109 212.575, -0.039 216.238, -0.025 217.139 C -0.011 218.041, 0.838 219.813, 1.862 221.078 C 3.704 223.353, 3.771 223.359, 8.174 221.678 C 10.766 220.688, 16.193 216.746, 21.170 212.239 C 25.870 207.983, 31.170 203.375, 32.948 202 C 34.726 200.625, 40.527 195.343, 45.840 190.263 C 51.153 185.182, 55.851 181.020, 56.279 181.013 C 56.708 181.006, 59.971 178.044, 63.531 174.431 C 72.820 165.004, 74.142 162, 69.003 162 C 67.010 162, 64.749 163.128, 62.253 165.367 C 57.976 169.205, 53.981 170.882, 54.033 168.817 C 54.051 168.093, 55.289 165.853, 56.783 163.840 C 64.008 154.106, 66.248 151.255, 69.011 148.277 C 72.357 144.669, 72.663 142.523, 70.551 137.468 C 69.306 134.489, 68.630 134, 65.751 134 C 61.886 134, 60 135.491, 60 138.545 C 60 141.161, 56.348 144.750, 55.032 143.426 C 54.526 142.917, 54.028 135.261, 53.926 126.414 C 53.763 112.412, 53.972 109.972, 55.537 107.583 C 57.231 104.999, 57.238 104.673, 55.659 102 C 54.130 99.412, 54.122 99.021, 55.562 97.580 C 56.432 96.711, 57.561 96, 58.071 96 C 58.582 96, 59 95.242, 59 94.314 C 59 93.387, 59.837 91.700, 60.860 90.564 C 62.678 88.547, 64.696 82.623, 65.691 76.385 C 66.106 73.779, 65.697 72.920, 63.189 71.135 C 61.540 69.961, 59.049 69, 57.653 69 C 54.274 69, 48.933 72.247, 46.174 75.978 C 44.945 77.640, 43.123 79, 42.125 79 C 39.993 79, 37 75.989, 37 73.846 C 37 69.498, 27.836 66.083, 25.079 69.404 M 135.443 73.074 C 131.958 76.728, 120.603 85, 119.071 85 C 118.482 85, 118 85.434, 118 85.964 C 118 87.275, 103.127 96.999, 101.111 97.005 C 100.225 97.008, 97.700 98.119, 95.500 99.474 C 93.300 100.829, 90.253 101.952, 88.729 101.969 C 84.806 102.013, 83.061 105.918, 85.381 109.459 C 87.531 112.741, 89.786 112.670, 99 109.031 C 103.125 107.402, 106.999 106.053, 107.608 106.034 C 109.472 105.977, 111.154 128.677, 110.965 151.353 C 110.869 162.984, 110.788 173.625, 110.786 175 C 110.784 176.375, 110.376 179.525, 109.880 182 C 109.385 184.475, 108.776 190.325, 108.527 195 C 108.278 199.675, 107.785 207.150, 107.430 211.612 C 106.827 219.208, 106.932 219.859, 109.082 221.862 C 111.861 224.451, 115.601 224.638, 116.831 222.250 C 117.327 221.287, 118.027 217.125, 118.386 213 C 118.906 207.017, 118.719 205.044, 117.463 203.251 C 116.039 201.218, 116.032 199.926, 117.389 189.751 C 118.214 183.563, 119.207 174.450, 119.597 169.500 C 120.729 155.117, 120.379 124.810, 118.997 117.486 C 117.371 108.867, 118.186 99.052, 120.674 97.295 C 121.678 96.586, 123.400 95.199, 124.500 94.212 C 125.600 93.226, 129.378 90.412, 132.896 87.959 C 141.930 81.660, 145 78.551, 145 75.699 C 145 73.058, 143.704 71.613, 140.443 70.616 C 138.948 70.159, 137.582 70.831, 135.443 73.074 M 47.454 86.750 C 45.559 88.813, 44.007 91.486, 44.005 92.691 C 43.999 95.148, 45.100 96.213, 46.580 95.184 C 48.324 93.972, 54 85.648, 54 84.303 C 54 81.843, 50.895 83.004, 47.454 86.750 M 134.399 95.765 C 133.793 96.169, 133.067 97.743, 132.786 99.261 C 132.258 102.104, 134.379 112.972, 136.083 116.155 C 137.817 119.395, 137.052 190.234, 135.129 204.500 C 133.838 214.078, 130.693 220.792, 126.665 222.570 C 120.137 225.451, 118.088 229.168, 121.477 231.981 C 123.702 233.827, 136.943 232.331, 137.756 230.141 C 138.091 229.239, 139.272 227.256, 140.381 225.735 C 143.477 221.491, 144.397 212.927, 145.405 179 C 145.691 169.375, 146.208 154.049, 146.554 144.943 C 147.512 119.696, 144.943 99.749, 140.283 96.250 C 138.422 94.853, 136.058 94.658, 134.399 95.765 M 87.745 169.729 C 85.829 171.846, 82.116 178.235, 78.871 185 C 74.158 194.823, 72.426 197.739, 67.807 203.634 C 65.163 207.007, 63 210.630, 63 211.684 C 63 216.531, 69.563 217.643, 72.927 213.365 C 74.067 211.916, 75 210.150, 75 209.442 C 75 208.733, 76.125 206.816, 77.500 205.182 C 78.875 203.548, 80 201.666, 80 201 C 80 200.334, 81.125 198.452, 82.500 196.818 C 83.875 195.184, 85 193.089, 85 192.163 C 85 191.237, 86.125 189.266, 87.500 187.783 C 88.875 186.301, 90 184.847, 90 184.552 C 90 184.258, 91.575 181.954, 93.500 179.432 C 98.402 173.010, 98.066 169.563, 92.427 168.435 C 90.249 168, 88.997 168.346, 87.745 169.729 M 159 183.923 C 153.359 184.424, 152.500 184.764, 152.500 186.500 C 152.500 188.156, 153.361 188.600, 157.500 189.082 C 160.250 189.402, 163.850 190.412, 165.500 191.326 C 167.150 192.240, 169.642 192.990, 171.039 192.994 C 172.435 192.997, 175.342 193.900, 177.500 195 C 179.658 196.100, 181.799 197, 182.260 197 C 182.720 197, 184.987 197.929, 187.298 199.065 C 189.609 200.201, 193.525 201.829, 196 202.683 C 198.475 203.538, 201.625 205.031, 203 206.001 C 205.626 207.855, 211.672 211.389, 216.145 213.684 C 217.599 214.431, 219.342 215.707, 220.017 216.521 C 223.266 220.436, 229.689 216.415, 228.541 211.185 C 227.429 206.125, 222.479 202.738, 210.750 199.013 C 209.238 198.533, 204.738 196.582, 200.750 194.678 C 187.488 188.345, 171.822 182.873, 167.812 183.173 C 166.540 183.268, 162.575 183.605, 159 183.923" stroke="none" fill="black" fill-rule="evenodd"/>
</svg>