<svg xmlns="http://www.w3.org/2000/svg" width="300" height="300" viewBox="0 0 300 300" version="1.1">
	<path d="M 165.443 60.063 C 163.738 61.947, 163.566 64.188, 163.459 85.813 C 163.394 98.841, 163.021 110.400, 162.628 111.500 C 162.236 112.600, 159.492 115.032, 156.532 116.904 C 153.571 118.776, 149.902 121.380, 148.378 122.689 C 143.296 127.056, 142.830 126.026, 142.471 109.642 C 142.169 95.853, 141.983 94.611, 139.898 92.392 C 138.662 91.076, 137.125 90, 136.481 90 C 134.393 90, 131.711 93.806, 132.456 95.713 C 133.317 97.917, 134.245 113.432, 134.236 125.487 C 134.233 130.430, 134.617 135.492, 135.090 136.737 C 136.825 141.300, 142.177 138.926, 154.902 127.947 C 163.093 120.880, 164.415 120.996, 164.629 128.800 C 164.700 131.385, 165.360 136.200, 166.096 139.500 C 167.422 145.447, 167.847 166.341, 166.970 182.500 C 166.732 186.900, 166.902 195.850, 167.349 202.389 C 167.932 210.921, 167.803 216.083, 166.892 220.665 C 165.763 226.345, 165.806 227.234, 167.274 228.703 C 168.586 230.015, 169.412 230.133, 171.286 229.279 C 175.367 227.420, 176.243 216.858, 175.623 177 C 174.717 118.793, 173.987 97.843, 172.785 95.600 C 172.098 94.319, 171.608 87.052, 171.528 76.975 C 171.455 67.886, 171.055 59.898, 170.639 59.225 C 169.520 57.415, 167.552 57.732, 165.443 60.063 M 71.948 73.250 C 70.182 75.115, 69.911 76.313, 70.363 80.257 C 70.838 84.408, 70.627 85.184, 68.704 86.346 C 53.099 95.778, 52.021 97.021, 56 101 C 58.724 103.724, 62.239 103.511, 65.938 100.399 C 70.620 96.459, 72.003 97.674, 71.986 105.719 C 71.967 115.375, 71.353 116.900, 66.608 119.080 C 59.956 122.136, 51.626 126.990, 50.798 128.292 C 49.625 130.138, 49.856 134.456, 51.200 135.800 C 53.058 137.658, 56.455 137.233, 61.592 134.502 C 64.176 133.128, 66.787 131.637, 67.395 131.188 C 68.003 130.739, 71.650 129.083, 75.500 127.508 C 79.350 125.933, 83.969 123.383, 85.763 121.841 C 89.763 118.405, 94.517 115.868, 98.500 115.046 C 101.693 114.386, 102.808 111.732, 101.041 109 C 99.512 106.635, 91.074 107.173, 86.632 109.919 C 81.677 112.981, 79.983 111.618, 80.048 104.628 C 80.112 97.750, 82.591 92.989, 87.408 90.489 C 91.925 88.145, 93.584 85.966, 92.669 83.579 C 92.141 82.205, 90.931 81.943, 86.259 82.193 L 80.500 82.500 80.176 78.500 C 79.843 74.381, 77.683 71, 75.384 71 C 74.666 71, 73.119 72.013, 71.948 73.250 M 75.348 132.535 C 75.024 133.379, 75.238 135.966, 75.822 138.285 C 77.036 143.100, 78.198 157.527, 78.378 170 C 78.445 174.675, 78.756 178.950, 79.069 179.500 C 80.178 181.451, 79.422 195.359, 78.184 195.772 C 77.525 195.992, 75.076 195.272, 72.743 194.173 C 66.067 191.029, 62.670 190.637, 60.103 192.715 C 58.783 193.784, 58.126 195.124, 58.489 196.009 C 59.295 197.975, 65.382 202.071, 71 204.426 C 73.475 205.463, 77.835 207.367, 80.688 208.656 C 83.542 209.945, 86.374 211, 86.982 211 C 88.531 211, 112.065 220.472, 120.500 224.491 C 124.350 226.325, 129.863 228.871, 132.750 230.149 C 135.637 231.427, 138 232.816, 138 233.236 C 138 233.656, 138.873 234, 139.941 234 C 141.009 234, 142.160 234.450, 142.500 235 C 142.840 235.550, 143.931 236, 144.924 236 C 145.918 236, 147.874 236.900, 149.273 238 C 150.671 239.100, 152.419 240.015, 153.158 240.034 C 153.896 240.053, 156.300 240.937, 158.500 242 C 160.700 243.063, 162.950 243.957, 163.500 243.988 C 164.050 244.019, 165.625 244.924, 167 246 C 168.375 247.076, 170.400 247.968, 171.500 247.984 C 172.600 248, 174.850 248.907, 176.500 250 C 178.150 251.093, 180.345 251.990, 181.379 251.993 C 182.412 251.997, 188.803 254.700, 195.580 258 C 202.358 261.300, 208.259 264, 208.693 264 C 209.127 264, 211.891 265.659, 214.835 267.686 C 219.014 270.565, 220.549 271.145, 221.843 270.335 C 224.871 268.440, 224.422 264.533, 220.829 261.509 C 217.814 258.973, 196.144 248, 194.149 248 C 192.737 248, 174.513 239.540, 144.864 225.119 C 136.814 221.203, 129.303 218, 128.173 218 C 127.043 218, 125.882 217.617, 125.592 217.150 C 124.963 216.131, 114.065 211.420, 101 206.518 C 95.775 204.558, 89.977 202.268, 88.115 201.429 L 84.731 199.904 85.368 194.202 C 87.280 177.093, 86.963 178.136, 90.983 175.730 C 96.931 172.169, 108.835 160.887, 111.620 156.171 C 114.756 150.862, 114.282 147, 110.496 147 C 108.704 147, 105.597 149.499, 99.122 156.148 C 93.411 162.013, 89.694 165.096, 88.762 164.739 C 87.736 164.345, 87.109 161.733, 86.626 155.841 C 85.415 141.067, 84.469 133.530, 83.666 132.250 C 82.526 130.433, 76.070 130.654, 75.348 132.535 M 53.667 163.667 C 53.300 164.033, 53 166.482, 53 169.108 C 53 171.734, 52.550 174.160, 52 174.500 C 51.450 174.840, 51 176.161, 51 177.437 C 51 178.712, 50.325 180.315, 49.500 181 C 48.675 181.685, 48 182.810, 48 183.501 C 48 184.764, 41.138 198.336, 38.141 203 C 37.257 204.375, 36.028 206.400, 35.409 207.500 C 30.827 215.638, 25.027 224.334, 21.118 228.926 C 15.240 235.832, 12 240.179, 12 241.159 C 12 241.583, 12.907 242.415, 14.014 243.008 C 15.745 243.934, 16.776 243.380, 21.324 239.078 C 24.237 236.323, 28.393 231.466, 30.560 228.285 C 32.727 225.103, 34.837 222.350, 35.250 222.167 C 35.663 221.983, 36 221.398, 36 220.866 C 36 220.334, 38.600 216.434, 41.778 212.199 C 44.956 207.965, 48.618 202.475, 49.916 200 C 51.213 197.525, 53.485 193.250, 54.965 190.500 C 58.712 183.534, 61.194 178.802, 62.169 176.764 C 63.850 173.250, 63.108 167.450, 60.686 165.174 C 58.432 163.057, 55.011 162.322, 53.667 163.667" stroke="none" fill="black" fill-rule="evenodd"/>
</svg>