<svg xmlns="http://www.w3.org/2000/svg" width="300" height="300" viewBox="0 0 300 300" version="1.1">
	<path d="M 49.441 36.424 C 47.812 37.620, 47.534 38.922, 47.712 44.526 C 47.829 48.199, 48.399 51.776, 48.980 52.475 C 49.560 53.174, 49.749 54.490, 49.400 55.400 C 48.676 57.286, 41.770 61.470, 37.912 62.360 C 33.691 63.333, 30 66.827, 30 69.850 C 30 76.100, 35.287 78.879, 40.115 75.166 C 41.427 74.157, 44.050 72.573, 45.944 71.646 C 48.958 70.170, 49.570 70.141, 50.843 71.414 C 52.035 72.606, 52.080 73.394, 51.091 75.781 C 50.428 77.382, 50.178 79.863, 50.537 81.293 C 51.682 85.852, 49.302 90.596, 43.937 94.450 C 41.219 96.403, 38.631 98, 38.185 98 C 37.739 98, 36.081 99.350, 34.500 101 C 32.919 102.650, 31.190 104, 30.657 104 C 30.125 104, 28.136 105.185, 26.238 106.632 C 23.020 109.086, 22.830 109.543, 23.427 113.382 C 24.596 120.908, 30.187 122.192, 37 116.500 C 39.304 114.575, 42.087 113, 43.185 113 C 44.282 113, 46.365 111.650, 47.813 110 C 49.261 108.350, 50.795 107, 51.223 107 C 52.216 107, 52.107 111.885, 51.055 114.500 C 50.613 115.600, 50.606 117.186, 51.040 118.025 C 52.946 121.708, 53.923 157.098, 52.489 170.517 C 51.931 175.740, 52.130 176.895, 53.995 179.267 C 56.144 181.998, 59.347 182.865, 60.485 181.024 C 60.817 180.487, 61.716 176.170, 62.483 171.432 C 63.250 166.693, 64.468 162.018, 65.189 161.043 C 70.347 154.067, 77.628 145.689, 80 144 C 81.556 142.892, 83.825 139.928, 85.042 137.412 C 86.260 134.897, 87.891 132.596, 88.665 132.298 C 89.953 131.804, 93 125.912, 93 123.917 C 93 123.455, 92.015 122.160, 90.811 121.039 C 88.116 118.528, 84.153 118.375, 83.333 120.750 C 83 121.713, 81.327 123.899, 79.614 125.609 C 75.057 130.159, 66 141.680, 66 142.927 C 66 143.517, 65.334 144, 64.519 144 C 62.803 144, 61.529 139.908, 62.313 136.913 C 62.608 135.782, 62.479 131.177, 62.025 126.679 C 61.510 121.574, 61.569 117.808, 62.183 116.659 C 63.423 114.341, 61.660 109.566, 58.160 105.757 L 55.639 103.013 58.069 100.401 C 61.610 96.594, 68.201 92.248, 71.039 91.847 C 74.541 91.353, 74.946 86.199, 71.816 81.965 C 69.935 79.421, 69.007 78.949, 66.767 79.397 C 61.872 80.376, 61.430 79.645, 61.832 71.232 C 62.111 65.389, 62.665 62.996, 64.101 61.436 C 65.145 60.300, 66 58.980, 66 58.501 C 66 58.023, 66.959 55.651, 68.130 53.231 C 70.088 49.186, 70.130 48.702, 68.650 47.221 C 67.169 45.741, 66.757 45.746, 63.537 47.281 C 58.194 49.829, 56.820 48.760, 57.119 42.291 C 57.298 38.433, 56.954 36.583, 55.936 35.939 C 53.866 34.629, 51.663 34.794, 49.441 36.424 M 127.225 46.111 C 124.324 48.309, 121.403 50.983, 120.735 52.053 C 120.066 53.124, 119.013 54, 118.394 54 C 117.776 54, 116.188 54.851, 114.866 55.891 C 113.544 56.930, 110.446 58.356, 107.981 59.058 C 105.517 59.760, 101.993 61.442, 100.150 62.794 C 97.233 64.936, 96.881 65.657, 97.420 68.377 C 97.761 70.095, 98.987 72.220, 100.145 73.099 C 103.624 75.741, 104.370 83.323, 104.167 114 C 103.974 143.104, 103.808 146.627, 102.426 151 C 101.443 154.111, 101.591 154.500, 103.761 154.501 C 106.565 154.503, 105.760 157.123, 102.402 158.924 C 100.698 159.838, 96.873 162.616, 93.902 165.098 C 87.498 170.449, 83.568 173, 81.731 173 C 80.995 173, 78.954 174.484, 77.196 176.298 C 73.202 180.418, 72.961 184.273, 76.551 186.626 C 79.327 188.444, 80.340 187.960, 82.394 183.834 C 83.033 182.550, 85.159 180.973, 87.118 180.328 C 92.256 178.638, 103.880 170.892, 108.245 166.250 C 109.409 165.013, 110.789 164, 111.313 164 C 111.837 164, 114.982 161.035, 118.303 157.410 C 121.624 153.786, 125.355 150.435, 126.594 149.964 C 127.837 149.492, 128.993 148.080, 129.173 146.814 C 129.354 145.544, 130.324 144.363, 131.347 144.168 C 132.738 143.903, 133.059 144.270, 132.649 145.658 C 132.350 146.671, 131.808 155.150, 131.444 164.500 C 131.081 173.850, 130.409 182.208, 129.951 183.074 C 129.489 183.947, 129.686 189.908, 130.394 196.466 C 131.720 208.754, 132.764 211, 137.152 211 C 140.874 211, 142.647 207.457, 142.531 200.255 C 142.470 196.540, 141.918 192.595, 141.303 191.489 C 140.584 190.196, 140.337 185.372, 140.610 177.989 C 140.956 168.657, 141.883 131.926, 142.238 113.500 C 142.361 107.126, 140.163 90.763, 139.032 89.632 C 138.464 89.064, 138 86.466, 138 83.857 C 138 80.810, 137.236 77.820, 135.864 75.493 C 134.269 72.790, 134.015 71.585, 134.864 70.736 C 137.519 68.081, 134.538 63, 130.326 63 C 125.199 63, 123.803 68.986, 126.509 79.372 C 127.338 82.557, 127.762 85.577, 127.450 86.082 C 127.137 86.587, 125.628 87, 124.096 87 C 121.267 87, 118.833 89.014, 117.651 92.333 C 116.323 96.065, 114.578 93.375, 114.471 87.430 C 114.392 83.115, 113.633 80.079, 111.681 76.283 C 108.510 70.114, 108.494 70.003, 110.750 69.990 C 112.980 69.978, 130.312 58.738, 132.890 55.633 C 133.635 54.735, 134.993 54, 135.907 54 C 136.821 54, 138.389 52.612, 139.391 50.916 C 141.212 47.833, 141.212 47.830, 138.419 44.916 C 136.883 43.312, 134.923 42.026, 134.063 42.057 C 133.203 42.089, 130.126 43.913, 127.225 46.111 M 178.500 71.196 C 174.616 73.401, 160.484 87.345, 159.306 90.136 C 158.247 92.645, 158.357 93.136, 160.278 94.482 C 163.337 96.625, 164.325 96.404, 166.830 93.017 C 169.308 89.665, 174.523 86.587, 176.088 87.554 C 177.214 88.250, 176.361 93.893, 174.895 95.450 C 174.403 95.973, 174 98.470, 174 101 C 174 105.260, 172.744 108, 170.791 108 C 170.346 108, 168.597 105.750, 166.905 103 C 164.434 98.984, 163.294 98, 161.114 98 C 156.080 98, 154.341 102.189, 158 105.500 C 159.100 106.495, 160 107.874, 160 108.563 C 160 109.253, 162.025 112.303, 164.500 115.341 C 166.975 118.379, 169 121.475, 169 122.221 C 169 122.967, 168.100 125.342, 167 127.500 C 165.900 129.658, 164.997 132.340, 164.994 133.461 C 164.990 134.583, 164.413 136.625, 163.711 138 C 163.009 139.375, 161.835 142.525, 161.102 145 C 159.109 151.725, 157.931 154.952, 155.344 160.780 C 154.055 163.683, 153 166.496, 153 167.030 C 153 167.563, 152.562 168, 152.026 168 C 151.490 168, 150.323 169.408, 149.433 171.130 C 147.901 174.093, 147.921 174.366, 149.824 176.268 C 152.366 178.811, 154.503 178.016, 156.476 173.794 C 158.516 169.430, 162.236 164.093, 165.419 160.962 C 166.839 159.567, 168 157.489, 168 156.346 C 168 155.202, 168.861 152.069, 169.913 149.383 C 170.966 146.698, 172.653 142.360, 173.663 139.744 C 174.674 137.128, 176.309 134.728, 177.298 134.411 C 179.579 133.680, 182 135.648, 182 138.232 C 182 139.325, 184.242 142.673, 186.982 145.671 C 189.722 148.669, 192.654 152.577, 193.498 154.355 C 194.342 156.133, 196.375 158.381, 198.016 159.350 C 199.657 160.320, 201.012 161.425, 201.027 161.807 C 201.042 162.188, 203.063 164.750, 205.518 167.500 C 207.973 170.250, 209.986 172.836, 209.991 173.247 C 209.996 173.658, 211.483 175.683, 213.296 177.747 C 215.108 179.811, 217.435 182.850, 218.465 184.500 C 219.495 186.150, 221.833 189.300, 223.660 191.500 C 225.487 193.700, 229.035 197.975, 231.544 201 C 234.053 204.025, 237.080 208.449, 238.271 210.831 C 239.462 213.214, 241.238 215.592, 242.218 216.117 C 243.198 216.641, 244 217.939, 244 219 C 244 220.061, 244.895 221.409, 245.990 221.994 C 247.084 222.580, 248.669 224.394, 249.513 226.025 C 250.356 227.656, 253.383 230.837, 256.238 233.094 L 261.430 237.198 263.710 234.349 C 264.964 232.782, 265.992 230.990, 265.995 230.367 C 266.006 227.767, 256.316 213.542, 253.329 211.773 C 250.380 210.027, 245 204.004, 245 202.449 C 245 201.704, 241.494 197.394, 234.360 189.368 C 231.851 186.545, 228.639 182.270, 227.224 179.868 C 224.451 175.164, 219.725 169.099, 214.230 163.195 C 212.339 161.163, 209.763 157.925, 208.505 156 C 207.247 154.075, 204.594 150.949, 202.609 149.054 C 200.624 147.158, 199 145.091, 199 144.459 C 199 143.827, 198.051 142.453, 196.890 141.405 C 195.730 140.357, 193.209 137.134, 191.288 134.242 C 189.367 131.351, 186.588 127.976, 185.112 126.742 C 181.089 123.381, 179.308 119.338, 180.798 116.952 C 181.459 115.893, 182 113.308, 182 111.208 C 182 108.686, 182.864 106.219, 184.544 103.944 C 186.068 101.881, 186.888 99.698, 186.590 98.500 C 186.317 97.400, 186.571 94.700, 187.156 92.500 C 187.742 90.300, 188.374 85.013, 188.562 80.751 C 188.901 73.071, 188.878 72.988, 186.002 71.501 C 182.571 69.727, 181.188 69.670, 178.500 71.196 M 122.027 97.949 C 121.453 99.021, 119.768 100.484, 118.281 101.199 C 114.598 102.972, 113.377 107.643, 114.611 115.250 C 115.629 121.529, 118.092 120.361, 129.069 108.395 C 131.379 105.876, 131.476 104.076, 129.551 99.468 C 128.442 96.814, 127.512 96, 125.586 96 C 124.116 96, 122.637 96.810, 122.027 97.949 M 126.239 123.629 C 123.896 126.005, 120.521 128.326, 118.739 128.788 L 115.500 129.627 115.500 138.064 C 115.500 146.418, 115.525 146.503, 118.116 146.804 C 120.063 147.029, 121.439 146.262, 123.496 143.804 C 125.016 141.987, 127.379 140.275, 128.746 140 C 131.179 139.511, 131.240 139.274, 131.511 129.250 C 131.664 123.612, 131.499 119.070, 131.145 119.155 C 130.790 119.240, 128.583 121.254, 126.239 123.629 M 27.655 143.829 C 26.364 145.256, 26 147.710, 26 154.994 C 26 163.148, 25.595 165.353, 22.798 172.415 C 21.037 176.862, 18.418 182.525, 16.978 185 C 15.538 187.475, 13.847 190.978, 13.220 192.784 C 12.593 194.590, 10.262 198.659, 8.040 201.827 C 5.818 204.995, 3.990 208.017, 3.978 208.543 C 3.966 209.070, 3.076 210.625, 2 212 C 0.364 214.092, 0.041 216.116, 0.022 224.390 L 0 234.279 2.500 230.595 C 3.875 228.569, 5 226.364, 5 225.696 C 5 225.028, 5.900 223.919, 7 223.232 C 8.100 222.545, 9 221.361, 9 220.600 C 9 219.840, 10.721 217.135, 12.825 214.589 C 14.929 212.043, 17.561 208.281, 18.673 206.230 C 19.786 204.178, 21.889 200.388, 23.348 197.808 C 24.807 195.227, 26 192.400, 26 191.526 C 26 188.707, 28.928 188.630, 31.479 191.383 C 32.813 192.822, 34.899 194, 36.114 194 C 37.330 194, 40.289 195.151, 42.690 196.559 C 45.151 198.001, 47.836 198.869, 48.845 198.549 C 49.984 198.188, 51.490 198.893, 52.991 200.491 C 54.288 201.871, 56.222 203, 57.289 203 C 58.357 203, 64.241 205.442, 70.365 208.428 C 76.489 211.413, 83.372 214.146, 85.661 214.500 C 87.949 214.855, 90.608 216.015, 91.570 217.077 C 92.531 218.139, 95.159 219.495, 97.409 220.089 C 99.659 220.683, 104.200 222.419, 107.500 223.946 C 113.618 226.778, 122.897 230.695, 126.500 231.968 C 127.600 232.356, 131.875 234.286, 136 236.256 C 140.125 238.226, 145.300 240.416, 147.500 241.124 C 149.700 241.831, 152.400 243.175, 153.500 244.110 C 156.173 246.383, 168.242 252, 170.452 252 C 171.420 252, 173.548 253.125, 175.182 254.500 C 176.816 255.875, 179.060 257, 180.168 257 C 181.276 257, 183.994 258.551, 186.208 260.446 C 188.423 262.342, 191.547 264.181, 193.151 264.533 C 194.755 264.886, 196.779 266.260, 197.649 267.587 C 200.598 272.088, 208 269.676, 208 264.214 C 208 262.944, 206.532 260.959, 204.359 259.293 C 202.357 257.757, 199.882 255.713, 198.859 254.750 C 197.837 253.788, 196.587 253, 196.082 253 C 194.663 253, 185.151 248.054, 184.479 246.967 C 184.151 246.435, 182.820 246, 181.523 246 C 180.226 246, 176.990 244.922, 174.332 243.605 C 165.896 239.424, 156.111 235, 155.300 235 C 154.868 235, 149.562 232.563, 143.508 229.585 C 128.909 222.404, 115.192 216, 114.409 216 C 114.062 216, 109.440 213.929, 104.139 211.398 C 98.838 208.867, 91.800 205.774, 88.500 204.524 C 80.747 201.588, 70.272 197.217, 66.659 195.409 C 65.096 194.628, 60.377 192.833, 56.173 191.422 C 51.969 190.011, 48.298 188.528, 48.015 188.127 C 47.732 187.726, 45.250 186.590, 42.500 185.604 C 35.715 183.171, 31 181.020, 31 180.357 C 31 180.056, 31.861 178.599, 32.914 177.120 C 34.693 174.622, 36.315 166.509, 37.647 153.448 C 38.126 148.752, 37.932 148.171, 34.891 145.198 C 31.125 141.516, 29.949 141.293, 27.655 143.829" stroke="none" fill="black" fill-rule="evenodd"/>
</svg>