<svg xmlns="http://www.w3.org/2000/svg" width="300" height="300" viewBox="0 0 300 300" version="1.1">
	<path d="M 173.465 61.585 C 166.465 68.197, 162.701 79.847, 166.536 83.030 C 167.822 84.097, 168.570 83.832, 171.125 81.402 C 172.805 79.806, 174.839 77.235, 175.647 75.688 C 176.693 73.685, 177.745 72.966, 179.303 73.188 C 181.128 73.448, 181.714 74.580, 182.832 80 C 183.569 83.575, 184.407 88.525, 184.693 91 C 184.980 93.475, 185.618 95.998, 186.110 96.606 C 186.938 97.628, 189.981 115.330, 189.994 119.203 C 189.997 120.157, 188.570 121.559, 186.750 122.389 C 183.522 123.863, 168.302 126.640, 167.563 125.891 C 167.351 125.676, 166.941 120.325, 166.653 114 C 166.365 107.675, 165.668 100.475, 165.105 98 C 164.542 95.525, 163.632 91.025, 163.082 88 C 159.325 67.339, 158.496 65.663, 152.294 66.193 C 146.122 66.721, 145.831 69.283, 150.500 82 C 151.207 83.925, 152.257 87.300, 152.834 89.500 C 155.386 99.228, 157.654 125.464, 156.146 127.814 C 155.167 129.340, 139.186 133.518, 138.178 132.512 C 137.805 132.140, 137.373 128.610, 137.217 124.668 C 136.859 115.586, 135.282 100.463, 134.404 97.697 C 134.035 96.534, 133.376 93.089, 132.941 90.041 C 132.006 83.499, 130.129 76.106, 128.869 74 C 128.375 73.175, 127.488 71.275, 126.898 69.779 C 126.120 67.808, 124.886 66.882, 122.419 66.419 C 117.449 65.487, 114.413 66.578, 109.579 71.034 C 107.213 73.215, 104.989 75, 104.638 75 C 104.287 75, 104 73.495, 104 71.655 C 104 67.257, 101.239 64.759, 96.844 65.180 C 93.519 65.498, 93.498 65.533, 93.201 71.224 C 93.031 74.475, 93.438 77.931, 94.144 79.224 C 95.553 81.808, 96.882 88.912, 97.468 97 C 98.558 112.057, 99.015 134.987, 98.302 138.843 C 97.585 142.717, 97.086 143.328, 93.683 144.498 C 87.838 146.508, 85.798 148.787, 86.578 152.439 C 87.606 157.257, 88.920 158.274, 93.346 157.680 L 97.275 157.153 96.569 166.827 C 95.103 186.884, 89.905 211.984, 85.819 218.729 C 83.068 223.269, 83.697 227.407, 87.198 227.811 C 90.012 228.136, 89.689 228.534, 96.248 216.664 C 97.210 214.924, 97.998 212.463, 97.998 211.195 C 97.999 209.927, 98.918 206.876, 100.039 204.413 C 101.161 201.951, 101.833 199.539, 101.532 199.052 C 101.232 198.566, 101.450 196.948, 102.017 195.456 C 102.584 193.965, 103.309 189.765, 103.629 186.122 C 104.582 175.282, 104.731 173.894, 105.952 164.500 C 106.633 159.263, 107.841 154.498, 108.842 153.103 C 110.673 150.552, 118.013 147.912, 124 147.652 L 127.500 147.500 127.607 152.500 C 127.666 155.250, 127.833 161.100, 127.977 165.500 C 128.233 173.279, 128.378 198.065, 128.208 204.889 C 128.067 210.517, 124 211.979, 124 206.401 C 124 203.607, 120.418 196, 119.102 196 C 117.635 196, 115.793 198.856, 116.510 200.017 C 116.886 200.624, 116.638 202.461, 115.959 204.098 C 114.695 207.149, 114.709 207.200, 119.147 216.236 C 119.616 217.191, 120 218.962, 120 220.172 C 120 221.381, 120.927 223.358, 122.061 224.565 C 123.194 225.771, 125.170 228.725, 126.452 231.129 C 129.841 237.488, 132.880 237.587, 136.472 231.457 C 138.684 227.683, 139.090 226.023, 138.623 222.653 C 137.748 216.327, 137.522 145.582, 138.373 144.206 C 138.783 143.543, 140.077 143, 141.249 143 C 142.421 143, 145.994 142.460, 149.190 141.800 C 153.575 140.894, 155.282 140.882, 156.152 141.752 C 157.020 142.620, 157.031 149.892, 156.197 171.202 C 155.078 199.767, 154.243 208.026, 151.920 213.500 C 150.488 216.876, 150.670 224.848, 152.224 226.750 C 153.714 228.575, 157.439 228.277, 159.336 226.182 C 160.320 225.094, 160.946 222.784, 160.894 220.432 C 160.846 218.269, 161.970 208.625, 163.393 199 C 165.244 186.471, 166.129 175.557, 166.507 160.581 C 166.836 147.555, 167.452 139.160, 168.140 138.331 C 168.748 137.599, 170.202 136.980, 171.372 136.956 C 174.146 136.898, 182.698 134.635, 183.618 133.715 C 184.615 132.719, 190.769 132.817, 191.401 133.840 C 191.686 134.301, 192.207 140.039, 192.559 146.590 C 192.910 153.140, 193.397 158.825, 193.640 159.222 C 193.884 159.619, 194.504 165.244, 195.018 171.722 C 195.532 178.200, 196.700 190.925, 197.613 200 C 199.682 220.564, 200.404 246.632, 198.931 247.543 C 198.349 247.902, 197.079 247.477, 196.108 246.598 C 195.137 245.719, 193.625 245, 192.748 245 C 191.871 245, 189.816 243.875, 188.182 242.500 C 186.548 241.125, 184.432 240, 183.481 240 C 182.065 240, 181.867 240.586, 182.393 243.214 C 183.161 247.057, 186.691 250.933, 193.592 255.516 C 196.393 257.376, 199.903 260.495, 201.393 262.449 C 202.883 264.402, 204.707 266, 205.447 266 C 207.706 266, 213.222 258.996, 212.425 257.141 C 212.037 256.238, 211.135 247.850, 210.419 238.500 C 209.704 229.150, 208.653 217, 208.084 211.500 C 207.515 206, 206.355 190.700, 205.505 177.500 C 204.656 164.300, 203.520 150.763, 202.981 147.418 C 201.777 139.953, 201.745 133.951, 202.899 132.129 C 203.882 130.578, 215.234 129.138, 227.144 129.054 C 234.163 129.004, 235.042 128.763, 237.894 126.099 C 241.672 122.570, 241.709 121.982, 238.364 118.636 C 235.334 115.607, 234.492 115.484, 229.872 117.396 C 225.867 119.053, 201.872 121.216, 200.652 120.029 C 200.186 119.575, 199.686 117.696, 199.541 115.852 C 199.053 109.629, 197.056 98.312, 195.402 92.388 C 194.498 89.149, 193.578 83.580, 193.358 80.010 C 192.758 70.256, 189.463 61.449, 185.496 58.998 C 180.769 56.076, 178.862 56.486, 173.465 61.585 M 22.360 72.503 C 21.989 73.472, 22.205 75.099, 22.842 76.119 C 23.479 77.139, 24 78.576, 24 79.312 C 24 80.049, 25.186 81.742, 26.636 83.076 C 31.507 87.556, 43 107.031, 43 110.805 C 43 111.859, 44.102 114.345, 45.449 116.330 C 47.481 119.324, 47.886 121.096, 47.822 126.720 C 47.780 130.449, 48.301 140.915, 48.980 149.977 C 49.658 159.040, 49.923 169.407, 49.567 173.016 C 48.962 179.159, 49.082 179.729, 51.460 181.963 C 52.857 183.275, 54 184.639, 54 184.995 C 54 186.181, 41.096 196, 39.537 196 C 38.338 196, 37.990 194.736, 37.956 190.250 C 37.910 184.109, 36.960 178.651, 34.953 173 C 31.423 163.058, 28.775 160.282, 25.452 163.040 C 23.199 164.910, 23.547 174.531, 26.012 178.520 C 27.145 180.353, 28.618 185.647, 29.383 190.638 C 30.131 195.512, 30.854 199.950, 30.990 200.500 C 31.561 202.813, 30.829 204.915, 27.926 209.297 C 24.083 215.100, 24.319 218.096, 28.719 219.352 C 32.703 220.490, 35.944 218.626, 39.369 213.225 C 41.827 209.350, 52.794 198.216, 57.051 195.275 C 59.926 193.288, 67.503 186.475, 70.444 183.232 C 71.575 181.985, 73.738 179.667, 75.250 178.081 C 78.503 174.670, 78.672 173.430, 76.072 172.039 C 73.547 170.687, 71.485 171.540, 65.817 176.282 C 59.799 181.317, 58.546 180.621, 59.373 172.705 C 59.835 168.281, 60.730 165.763, 62.751 163.202 C 64.263 161.285, 66.782 157.869, 68.350 155.609 C 69.917 153.349, 72.954 149.683, 75.100 147.462 C 77.245 145.241, 79 142.481, 79 141.327 C 79 139.041, 75.134 135.987, 72.285 136.022 C 70.048 136.050, 66.594 138.797, 65.082 141.750 C 64.448 142.988, 63.158 144, 62.215 144 C 60.702 144, 60.542 143, 60.852 135.506 C 61.151 128.303, 60.889 126.478, 59.129 123.494 C 56.810 119.563, 57.352 117.058, 61.678 111.712 C 63.352 109.645, 63.781 108.156, 63.341 105.953 C 62.898 103.740, 63.417 101.968, 65.373 99.012 C 66.818 96.829, 68 94.223, 68 93.221 C 68 92.220, 68.563 90.837, 69.250 90.149 C 69.946 89.453, 70.500 86.468, 70.500 83.417 C 70.500 77.998, 70.455 77.915, 66.434 75.968 C 61.261 73.464, 60.770 73.489, 56 76.500 C 53.822 77.875, 51.613 79, 51.092 79 C 49.668 79, 46 84.027, 46 85.980 C 46 86.920, 46.936 88.537, 48.079 89.572 C 50.119 91.418, 50.232 91.411, 54.027 89.227 C 56.155 88.002, 58.370 87, 58.948 87 C 61.304 87, 59.611 93.127, 56.243 96.789 C 55.552 97.541, 54.524 99.021, 53.958 100.078 C 52.032 103.677, 47.112 101.266, 47.032 96.683 C 47.014 95.684, 45.889 93.409, 44.530 91.628 C 43.172 89.847, 41.156 86.390, 40.051 83.945 C 36.649 76.418, 32.135 71.955, 27.268 71.306 C 23.824 70.847, 22.911 71.069, 22.360 72.503 M 115.229 80.171 C 114.553 80.847, 114 82.155, 114 83.078 C 114 84, 113.325 85.315, 112.500 86 C 111.675 86.685, 111 87.672, 111 88.194 C 111 88.716, 110.380 89.763, 109.622 90.521 C 108.537 91.606, 108.298 95.572, 108.500 109.199 C 108.641 118.715, 108.410 128.975, 107.988 132 C 106.996 139.097, 108.011 140.362, 113.514 138.894 C 122.979 136.369, 125.097 135.588, 126.254 134.194 C 128.597 131.371, 126.524 107.028, 122.790 93.500 C 121.727 89.650, 120.545 84.930, 120.163 83.011 C 119.433 79.337, 117.294 78.106, 115.229 80.171" stroke="none" fill="black" fill-rule="evenodd"/>
</svg>