<svg xmlns="http://www.w3.org/2000/svg" width="300" height="300" viewBox="0 0 300 300" version="1.1">
	<path d="M 122.126 61.764 C 121.607 62.734, 121.228 64.647, 121.284 66.014 C 121.454 70.182, 118.851 85.974, 117.896 86.564 C 117.403 86.869, 117 88.456, 117 90.091 C 117 91.726, 116.325 94.680, 115.500 96.654 C 114.675 98.629, 114 101.288, 114 102.563 C 114 103.838, 113.612 105.122, 113.137 105.415 C 112.663 105.709, 111.677 108.098, 110.947 110.724 C 110.218 113.351, 107.906 118.983, 105.810 123.240 C 103.715 127.496, 102 131.397, 102 131.907 C 102 132.417, 101.029 135.009, 99.842 137.667 C 97.277 143.413, 97.217 152.477, 99.726 155.250 C 101.667 157.395, 106.311 157.535, 108 155.500 C 108.685 154.675, 109.715 154, 110.289 154 C 112.664 154, 126.214 144.578, 128.733 141.175 C 130.229 139.154, 133.374 135.317, 135.721 132.648 C 138.068 129.980, 140.557 126.610, 141.252 125.161 C 143.147 121.205, 145.768 121.211, 147.451 125.173 C 148.229 127.003, 152.045 131.638, 155.933 135.473 C 161.057 140.529, 163 143.155, 163 145.023 C 163 149.877, 167.228 151.615, 170.430 148.078 C 171.387 147.020, 172.404 144.408, 172.690 142.274 C 173.192 138.529, 172.922 138.094, 165.033 129.946 C 159.976 124.724, 155.863 119.400, 154.257 116 C 149.168 105.221, 145.049 104.346, 140.836 113.148 C 138.098 118.868, 132.048 125.280, 122.881 132.177 C 120.193 134.199, 116.830 137.236, 115.408 138.927 C 113.091 141.681, 108.977 143.175, 109.015 141.250 C 109.038 140.048, 111.905 132.137, 113.006 130.237 C 115.095 126.631, 120.238 113.235, 122.119 106.500 C 123.194 102.650, 124.978 96.350, 126.084 92.500 C 131.383 74.050, 132.445 62.844, 129.066 61.035 C 126.153 59.476, 123.184 59.788, 122.126 61.764 M 68 80.463 C 66.625 81.251, 63.577 82.873, 61.228 84.068 C 58.878 85.263, 56.113 87.312, 55.084 88.621 C 52.428 91.997, 50.393 91.582, 47.554 87.086 C 44.549 82.325, 41.407 80, 37.977 80 C 34.507 80, 33 81.734, 33 85.726 C 33 88.335, 33.970 90.023, 37.500 93.553 C 39.975 96.028, 42 98.534, 42 99.122 C 42 99.710, 42.618 101.386, 43.373 102.846 C 45.188 106.356, 47 112.182, 47 114.507 C 47 115.532, 47.963 117.396, 49.139 118.648 C 51.152 120.791, 51.183 121.071, 49.665 123.388 C 48.373 125.360, 48.266 126.464, 49.126 128.931 C 50.145 131.855, 51.094 132.408, 56.500 133.224 C 58.364 133.506, 58.532 134.481, 58.975 147.513 C 59.236 155.206, 59.428 170.800, 59.401 182.168 L 59.352 202.835 56.121 206.668 C 54.343 208.775, 52.048 211.512, 51.020 212.750 C 47.505 216.982, 46.508 215.687, 46.404 206.750 C 46.284 196.329, 42.461 182.376, 38.539 178.043 C 36.459 175.744, 33.525 175.371, 32.309 177.250 C 30.816 179.558, 31.140 186.461, 32.954 191 C 37.963 203.528, 38.217 205.142, 36.908 216.160 C 35.843 225.132, 35.305 226.934, 32.840 229.785 C 29.548 233.593, 29.261 236.021, 31.829 238.345 C 35.660 241.812, 38.945 240.507, 47.861 231.978 C 52.459 227.578, 57.521 223.053, 59.111 221.921 C 60.700 220.790, 62 219.267, 62 218.538 C 62 217.808, 64.242 214.801, 66.982 211.856 C 69.723 208.910, 71.973 205.783, 71.982 204.906 C 71.992 204.030, 74.700 201.147, 78 198.500 C 84.551 193.245, 85.618 190.246, 81.868 187.620 C 79.967 186.289, 79.452 186.302, 77.118 187.743 C 75.678 188.632, 73.469 190.404, 72.210 191.680 C 70.950 192.956, 69.473 194, 68.928 194 C 67.277 194, 66.610 190.854, 67.842 188.881 C 68.479 187.861, 69 185.274, 69 183.131 C 69 178.985, 69.344 178.627, 86.934 164.500 C 91.453 160.870, 91.974 160.021, 92.563 155.326 C 93.353 149.021, 92.806 148, 88.633 148 C 86.001 148, 84.824 148.759, 82.442 151.991 C 79.297 156.258, 73.022 161, 70.521 161 C 69.088 161, 68.311 155.768, 68.841 149.684 C 68.929 148.685, 68.578 147.081, 68.064 146.119 C 67.517 145.097, 67.477 142.821, 67.967 140.645 C 68.585 137.908, 68.394 136.092, 67.247 133.793 C 65.522 130.336, 65.018 131.057, 73.974 124.174 C 77.652 121.347, 77.747 120.051, 74.500 117 C 71.297 113.991, 71.373 112.479, 74.994 107.135 C 76.621 104.734, 78.239 101.241, 78.590 99.374 C 78.940 97.506, 79.626 95.731, 80.113 95.430 C 81.815 94.379, 81.043 86.188, 78.901 82.557 C 77.197 79.669, 76.210 79.003, 73.651 79.015 C 71.918 79.023, 69.375 79.674, 68 80.463 M 66.898 93.820 C 66.017 94.194, 62.979 96.594, 60.148 99.153 C 55.590 103.273, 55 104.262, 55 107.792 C 55 111.747, 58.595 117.741, 59.585 115.437 C 59.836 114.853, 62.054 111.253, 64.514 107.437 C 66.974 103.622, 68.990 99.525, 68.993 98.333 C 68.997 97.142, 69.530 95.990, 70.177 95.774 C 70.824 95.559, 71.023 94.846, 70.618 94.191 C 69.804 92.874, 69.257 92.819, 66.898 93.820 M 142.500 181.009 C 134.232 183.253, 125.206 187.734, 120.325 192.019 L 116.825 195.093 112.435 191.046 C 107.724 186.704, 105.945 186.157, 104.032 188.461 C 103.151 189.523, 103.093 190.822, 103.820 193.211 C 104.370 195.020, 105.086 197.703, 105.410 199.173 C 105.734 200.643, 107.093 203.145, 108.429 204.734 C 112.105 209.101, 117.356 225.374, 116.605 230.069 C 115.876 234.630, 117.172 238.486, 119.931 239.963 C 122.046 241.095, 148.545 242.184, 177 242.309 L 193.500 242.381 193.803 238.275 C 194.208 232.800, 193.379 232.581, 173 232.795 C 154.770 232.987, 144.870 232.128, 144.265 230.302 C 144.047 229.644, 145.518 228.069, 147.535 226.802 C 151.573 224.268, 162.975 207.856, 163.031 204.500 C 163.049 203.400, 163.724 201.626, 164.532 200.559 C 167.775 196.271, 165.129 184.110, 160.124 180.300 C 157.792 178.525, 150.588 178.815, 142.500 181.009 M 145 190.912 C 144.175 191.349, 141.925 192.384, 140 193.211 C 124.589 199.835, 122 201.762, 122 206.615 C 122 208.412, 122.424 210.144, 122.942 210.464 C 123.460 210.785, 124.178 213.174, 124.536 215.773 C 126.027 226.591, 128.455 228.125, 136.079 223.065 C 143.028 218.452, 147.808 213.079, 150.853 206.459 C 151.369 205.336, 152.514 203.819, 153.396 203.086 C 155.946 200.970, 155.545 193.495, 152.777 191.557 C 150.388 189.883, 147.409 189.636, 145 190.912" stroke="none" fill="black" fill-rule="evenodd"/>
</svg>