<svg xmlns="http://www.w3.org/2000/svg" width="300" height="300" viewBox="0 0 300 300" version="1.1">
	<path d="M 149.354 27.429 C 147.784 29.315, 145.771 31.894, 144.881 33.160 C 143.484 35.145, 143.037 35.276, 141.631 34.108 C 140.734 33.364, 140 32.161, 140 31.434 C 140 28.047, 131.806 25.594, 129.200 28.200 C 127.705 29.695, 127.621 35.648, 129.083 36.551 C 131.131 37.817, 136.718 47.504, 137.416 51 C 137.800 52.925, 138.433 57.273, 138.823 60.662 C 139.901 70.051, 144.564 74.039, 149.758 70.014 C 151.266 68.845, 154.584 66.359, 157.130 64.490 C 162.852 60.290, 164 56.843, 161.018 52.811 C 159.083 50.193, 159.037 49.785, 160.456 47.759 C 161.305 46.547, 162 44.557, 162 43.337 C 162 42.116, 162.415 40.862, 162.922 40.548 C 164.093 39.825, 163.549 30.377, 162.127 26.750 C 161.178 24.327, 160.524 24, 156.628 24 C 152.815 24, 151.815 24.471, 149.354 27.429 M 148.807 37.750 C 146.586 40.336, 145.849 42.848, 145.422 49.289 C 145.125 53.755, 145.379 55.208, 146.532 55.650 C 148.717 56.489, 150.724 54.387, 151.246 50.715 C 151.497 48.947, 152.319 45.338, 153.073 42.696 C 154.262 38.530, 154.248 37.769, 152.972 36.961 C 150.936 35.674, 150.523 35.752, 148.807 37.750 M 41.257 66.250 C 38.944 69.176, 39.120 73.438, 41.693 76.828 C 45.705 82.111, 49.582 101.818, 47.098 104.302 C 46.494 104.906, 46 107.040, 46 109.045 C 46 114.017, 48.640 116.346, 53.287 115.474 L 56.775 114.820 56.341 119.660 C 56.103 122.322, 55.738 125.625, 55.530 127 C 55.322 128.375, 55.763 132.650, 56.509 136.500 C 59.593 152.414, 61.084 177.212, 59.033 178.480 C 58.501 178.809, 58.331 180.403, 58.655 182.023 C 59.118 184.342, 58.845 185.089, 57.372 185.532 C 56.342 185.841, 53.163 187.240, 50.306 188.640 C 47.449 190.041, 44.654 190.904, 44.094 190.558 C 43.535 190.213, 42.808 188.258, 42.479 186.215 C 42.149 184.172, 41.232 181.306, 40.440 179.846 C 39.648 178.386, 39 174.931, 39 172.168 C 39 167.933, 38.587 166.820, 36.365 165.073 C 33.286 162.650, 29.750 162.391, 28.032 164.461 C 27.077 165.613, 27.139 167.258, 28.325 172.211 C 29.894 178.767, 31.658 184.276, 33.134 187.236 C 34.663 190.302, 34.061 196.959, 31.867 201.261 C 27.534 209.754, 27.557 215.090, 31.932 216.478 C 34.577 217.318, 36.777 215.716, 42.462 208.810 C 45.004 205.722, 48.160 202.926, 49.475 202.596 C 50.791 202.265, 52.828 200.646, 54.002 198.998 C 55.176 197.349, 57.027 196, 58.116 196 C 60.875 196, 80.321 183.024, 82.326 179.844 C 84.047 177.117, 82.389 175, 78.531 175 C 76.589 175, 75 175.434, 75 175.965 C 75 177.437, 71.345 179.070, 69.572 178.389 C 68.314 177.907, 68 176.097, 68 169.327 C 68 160.463, 69.020 157, 71.632 157 C 73.660 157, 81.480 150.137, 86.239 144.180 C 90.695 138.604, 91.256 133.993, 87.777 131.557 C 83.477 128.545, 81.842 129.560, 75 139.491 C 69.969 146.793, 68 147.499, 68 142 C 68 140.415, 67.550 138.840, 67 138.500 C 66.429 138.147, 66 133.056, 66 126.641 C 66 119.660, 65.574 114.974, 64.877 114.277 C 63.715 113.115, 66.099 108.823, 69.453 106.039 C 70.349 105.296, 71 103.167, 71 100.983 C 71 98.098, 71.756 96.423, 74.217 93.856 C 78.002 89.908, 80 86.484, 80 83.945 C 80 82.940, 80.450 81.840, 81 81.500 C 81.550 81.160, 82 78.695, 82 76.023 C 82 71.584, 81.708 70.983, 78.632 69.082 C 74.546 66.556, 66.977 66.310, 63.139 68.577 C 61.671 69.444, 59.460 71.694, 58.225 73.577 C 55.739 77.370, 53 78.109, 53 74.986 C 53 72.896, 51.515 69.764, 49.095 66.750 C 47.469 64.725, 42.703 64.421, 41.257 66.250 M 176.973 73.704 C 175.613 74.641, 174.050 75.901, 173.500 76.503 C 170.479 79.811, 169.276 80.099, 165.668 78.379 C 162.349 76.796, 161.962 76.795, 159.562 78.367 C 156.119 80.624, 156.307 83.664, 160.220 88.985 C 162.862 92.577, 163.563 94.650, 164.125 100.535 C 165.130 111.060, 169.213 118, 174.399 118 C 175.241 118, 177.409 116.716, 179.215 115.147 C 181.022 113.578, 182.950 112.116, 183.500 111.897 C 186.794 110.589, 192.107 106.114, 193.052 103.853 C 193.936 101.736, 193.813 100.540, 192.439 97.882 C 190.930 94.964, 190.869 93.813, 191.938 88.434 C 193.526 80.446, 191.806 75.653, 186.568 73.464 C 182.028 71.567, 180 71.618, 176.973 73.704 M 61.132 81.250 C 58.885 83.037, 56.752 85.553, 56.393 86.839 C 55.468 90.147, 57.936 97.159, 59.893 96.782 C 62.018 96.373, 69.869 84.905, 70.630 81.099 C 71.214 78.182, 71.073 78, 68.233 78 C 66.334 78, 63.703 79.204, 61.132 81.250 M 128.651 84.216 C 124.565 86.427, 118.066 94.362, 118.025 97.191 C 117.972 100.789, 116.009 99.789, 112.331 94.291 C 105.465 84.025, 97.091 82.184, 98.301 91.206 C 98.627 93.639, 100.221 96.694, 102.756 99.747 C 104.927 102.361, 107.782 106.525, 109.102 109 C 110.421 111.475, 111.838 113.650, 112.250 113.833 C 112.662 114.017, 113 115.718, 113 117.615 C 113 121.987, 115.355 123.089, 118.333 120.112 C 120 118.446, 120.536 116.625, 120.654 112.223 C 120.858 104.665, 121.866 100.415, 123.865 98.693 C 126.197 96.683, 132.221 94.821, 133.206 95.806 C 134.333 96.933, 131.918 103.483, 128.233 109.293 C 124.689 114.883, 123.346 120.507, 125.063 122.576 C 126.637 124.473, 130.435 124.386, 132.070 122.416 C 132.793 121.544, 135.337 119.488, 137.724 117.846 C 140.110 116.204, 143.212 113.040, 144.617 110.815 C 146.304 108.142, 147.506 107.106, 148.162 107.762 C 148.718 108.318, 149.146 114.550, 149.138 121.980 C 149.125 133.233, 148.858 135.500, 147.347 137.169 C 145.416 139.303, 132.167 146, 129.877 146 C 129.100 146, 126.897 147.061, 124.982 148.359 C 123.067 149.656, 120.375 151.042, 119 151.439 C 112.187 153.404, 102.284 157.545, 100.543 159.157 C 98.602 160.955, 98.603 160.991, 100.642 163.735 C 101.796 165.287, 103.873 166.640, 105.378 166.819 C 107.973 167.128, 120.360 161.845, 121.548 159.922 C 121.862 159.415, 123.161 159, 124.437 159 C 125.712 159, 127.315 158.325, 128 157.500 C 128.685 156.675, 129.667 156, 130.183 156 C 130.700 156, 134.991 154.179, 139.719 151.954 C 144.447 149.728, 148.920 148.139, 149.658 148.422 C 152.465 149.499, 150.589 159.104, 146.590 164.124 C 145.441 165.567, 143.600 168.252, 142.500 170.090 C 137.704 178.106, 136.584 179.791, 132.654 184.902 C 130.369 187.873, 127.103 192.148, 125.395 194.402 C 119.273 202.483, 98.417 224.948, 94.250 227.951 C 91.912 229.635, 90 231.427, 90 231.934 C 90 232.440, 91.182 233.784, 92.626 234.921 L 95.252 236.986 99.278 234.743 C 101.492 233.509, 105.469 230.560, 108.116 228.190 C 112.901 223.903, 126 208.795, 126 207.561 C 126 206.565, 133.315 197.108, 138.682 191.166 C 142.622 186.804, 144.138 185.802, 147 185.666 L 150.500 185.500 151.160 195.500 C 151.523 201, 151.640 208.650, 151.420 212.500 C 150.774 223.813, 150.869 246.719, 151.589 253.080 C 152.085 257.464, 151.880 259.541, 150.785 261.232 C 147.899 265.688, 147.913 268.371, 150.851 274.070 C 152.991 278.222, 154.249 279.572, 156.199 279.804 C 160.173 280.279, 161.768 277.928, 161.271 272.329 C 159.505 252.436, 159.205 191.395, 160.865 189.735 C 161.712 188.888, 163.898 189.158, 169.479 190.800 C 173.592 192.010, 177.841 193, 178.920 193 C 179.999 193, 181.132 193.404, 181.437 193.898 C 181.983 194.782, 197.137 200, 199.157 200 C 199.726 200, 201.386 200.794, 202.846 201.764 C 204.306 202.734, 208.650 204.611, 212.500 205.935 C 216.350 207.258, 221.975 209.664, 225 211.279 C 228.025 212.895, 231.850 214.921, 233.500 215.781 C 236.335 217.259, 244.326 223.265, 246.500 225.552 C 249.145 228.336, 255.846 231.996, 257.285 231.444 C 259.949 230.422, 262.188 226.218, 261.122 224.240 C 259.685 221.575, 255.922 218.437, 251.500 216.218 C 249.300 215.114, 244.508 212.244, 240.851 209.841 C 229.885 202.634, 218.034 197.108, 199.500 190.559 C 194.550 188.810, 188.925 186.672, 187 185.809 C 185.075 184.946, 180.892 183.659, 177.703 182.949 C 174.515 182.239, 171.676 181.285, 171.394 180.829 C 171.113 180.373, 169.588 180, 168.006 180 C 166.424 180, 163.995 179.568, 162.607 179.041 C 160.168 178.113, 160.103 177.857, 160.645 171.291 C 160.954 167.556, 161.130 163.600, 161.038 162.500 C 160.384 154.743, 160.652 141.843, 161.489 140.771 C 162.045 140.059, 163.625 138.901, 165 138.198 C 169.316 135.993, 171.926 134.375, 173.743 132.779 C 174.709 131.931, 176.594 130.902, 177.931 130.493 C 179.268 130.085, 181.743 128.908, 183.431 127.879 C 185.119 126.850, 187.232 126.006, 188.128 126.004 C 190.903 125.997, 192.187 123.502, 191.259 119.919 C 189.794 114.264, 188.254 114.189, 177.880 119.264 C 172.721 121.788, 166.950 125.011, 165.056 126.427 C 163.161 127.842, 161.087 129, 160.445 129 C 158.824 129, 158.017 120.820, 158.720 111.525 C 159.278 104.146, 159.183 103.645, 156.904 101.893 C 153.951 99.623, 151.652 99.509, 149.958 101.551 C 149.242 102.413, 147.524 102.968, 146.086 102.801 C 143.567 102.508, 143.500 102.309, 143.500 95.174 C 143.500 88.164, 143.359 87.721, 140.234 84.924 C 136.420 81.509, 133.936 81.357, 128.651 84.216 M 177.606 88.883 C 175.725 90.961, 174.919 98.267, 176.500 98.900 C 177.050 99.120, 178.135 97.995, 178.912 96.400 C 179.689 94.805, 180.701 92.719, 181.162 91.764 C 183.313 87.305, 180.844 85.305, 177.606 88.883" stroke="none" fill="black" fill-rule="evenodd"/>
</svg>