<svg xmlns="http://www.w3.org/2000/svg" width="300" height="300" viewBox="0 0 300 300" version="1.1">
	<path d="M 157.619 35.963 C 149.936 43.850, 148.435 44.264, 144.644 39.538 C 141.064 35.075, 137.701 33.555, 134.819 35.097 C 131.962 36.626, 132.854 41.170, 137.412 48.294 C 141.306 54.382, 141.829 57.067, 139.500 59 C 138.675 59.685, 138 60.688, 138 61.229 C 138 61.770, 136.650 63.917, 135 66 C 131.617 70.272, 131.265 72.949, 133.615 76.535 C 135.481 79.384, 137.345 79.590, 142.346 77.500 C 144.320 76.675, 146.400 76, 146.968 76 C 147.567 76, 148 78.622, 148 82.257 C 148 85.698, 148.441 90.050, 148.980 91.929 C 150.202 96.190, 149.448 97.136, 143.415 98.917 C 138.872 100.259, 138.600 100.224, 136.864 98.080 C 135.868 96.850, 134.253 95.995, 133.276 96.180 C 130.797 96.650, 130.326 103.322, 132.534 106.692 C 134.061 109.023, 134.620 109.183, 139.349 108.638 C 142.182 108.312, 145.625 107.923, 147 107.773 C 149.190 107.534, 149.541 107.933, 149.831 110.989 C 150.451 117.516, 146.392 128.087, 142.290 130.633 C 138.252 133.139, 134 137.190, 134 138.532 C 134 140.509, 137.528 143, 140.329 143 C 141.798 143, 143 143.272, 143 143.605 C 143 143.937, 141.875 146.449, 140.500 149.187 C 139.125 151.924, 138 155.001, 138 156.023 C 138 157.045, 137.550 158.160, 137 158.500 C 136.450 158.840, 136 159.755, 136 160.533 C 136 161.311, 134.425 165.183, 132.500 169.139 C 130.575 173.094, 129 177.156, 129 178.165 C 129 179.174, 128.559 180, 128.019 180 C 127.480 180, 126.746 181.165, 126.388 182.590 C 125.707 185.303, 118.344 199.947, 113.361 208.500 C 111.759 211.250, 109.559 215.020, 108.474 216.878 C 104.601 223.507, 99.771 230.525, 98.028 232.056 C 97.055 232.912, 95.945 234.596, 95.564 235.800 C 95.182 237.003, 94.256 238.601, 93.507 239.350 C 92.758 240.100, 91.844 242.314, 91.477 244.270 C 90.919 247.244, 91.152 248.011, 92.895 248.944 C 94.516 249.811, 95.501 249.718, 97.326 248.522 C 99.967 246.792, 106 238.789, 106 237.016 C 106 236.380, 107.753 233.753, 109.896 231.179 C 112.039 228.606, 114.754 224.475, 115.928 222 C 117.103 219.525, 119.005 215.925, 120.154 214 C 121.303 212.075, 124.018 207.125, 126.187 203 C 128.356 198.875, 130.500 194.825, 130.950 194 C 131.400 193.175, 132.226 191.375, 132.786 190 C 135.434 183.492, 142.159 170.020, 143.027 169.483 C 143.562 169.153, 144 167.777, 144 166.427 C 144 165.077, 144.412 163.191, 144.916 162.236 C 145.747 160.661, 147.855 155.726, 149.929 150.500 C 150.366 149.400, 151.281 146.765, 151.964 144.645 C 154.318 137.334, 157.098 132, 158.553 132 C 159.356 132, 160.991 130.875, 162.187 129.500 C 163.382 128.125, 165.186 127, 166.195 127 C 167.204 127, 169.704 125.465, 171.751 123.590 C 175.434 120.214, 175.453 120.158, 173.581 118.090 C 171.216 115.476, 169.009 115.455, 164.261 118 C 157.998 121.357, 156.999 120.864, 157.676 114.750 C 157.996 111.862, 158.650 109.073, 159.129 108.550 C 159.608 108.028, 160 106.208, 160 104.507 C 160 102.250, 161.352 99.814, 165 95.500 C 168.791 91.017, 170 88.790, 170 86.293 C 170 82.003, 167.440 81.887, 163.500 86 C 159.070 90.624, 158.278 89.970, 157.744 81.250 C 157.220 72.686, 156.504 74.035, 165.836 66 C 169.674 62.694, 169.667 60.582, 165.807 57.703 C 163.154 55.724, 163.074 55.722, 160.307 57.594 C 157.213 59.687, 152.267 62, 150.885 62 C 150.398 62, 150 61.415, 150 60.701 C 150 59.424, 153.349 55.396, 163.747 44.167 C 169.902 37.519, 170.977 34.737, 168.464 31.960 C 165.684 28.889, 163.850 29.566, 157.619 35.963 M 72.500 82.120 C 65.559 85.724, 60.167 90.487, 59.352 93.735 C 58.270 98.046, 55.360 96.396, 52.045 89.592 C 48.878 83.092, 47.655 82, 43.541 82 C 39.395 82, 38.587 84.278, 40.536 90.474 C 41.492 93.513, 42.622 96, 43.048 96 C 43.474 96, 45.775 99.938, 48.161 104.750 C 50.547 109.563, 52.837 113.650, 53.250 113.833 C 53.663 114.017, 54 115.389, 54 116.883 C 54 118.378, 54.548 120.148, 55.218 120.818 C 56.175 121.775, 56.047 122.757, 54.622 125.403 C 51.278 131.612, 54.490 135.914, 60.028 132.643 C 63.714 130.465, 66 131.087, 66 134.269 C 66 135.551, 66.519 137.119, 67.154 137.754 C 68.873 139.473, 70.504 158.392, 70.472 176.240 L 70.444 191.980 65.483 197.017 C 58.857 203.744, 57.545 203.352, 57.336 194.581 C 57.245 190.790, 56.710 186.746, 56.146 185.594 C 55.582 184.442, 54.153 180.742, 52.971 177.371 C 51.509 173.204, 50.028 170.818, 48.345 169.917 C 45.341 168.309, 42.662 169.610, 42.172 172.915 C 41.846 175.116, 44.681 184.641, 46.202 186.450 C 46.641 186.973, 47 188.159, 47 189.086 C 47 190.013, 47.672 192.060, 48.494 193.636 C 51.650 199.688, 49.854 211.202, 45.091 215.447 C 42.177 218.045, 39.764 223.306, 40.171 226.177 C 40.683 229.795, 44.175 229.630, 48.146 225.801 C 50.029 223.986, 54.008 220.475, 56.988 218 C 59.969 215.525, 64.903 211.120, 67.954 208.211 C 71.004 205.301, 78.450 199.155, 84.500 194.551 C 98.494 183.903, 103.540 178.571, 102.410 175.627 C 101.423 173.054, 96.487 173.647, 92.785 176.782 C 86.933 181.738, 82.165 185, 80.773 185 C 79.755 185, 79.412 183.240, 79.412 178.016 L 79.412 171.031 88.703 161.266 C 97.454 152.067, 97.995 151.251, 97.997 147.219 C 97.999 144.331, 97.511 142.750, 96.498 142.361 C 94.274 141.507, 90 142.835, 90 144.380 C 90 146.084, 81.756 155, 80.180 155 C 79.401 155, 78.995 152.877, 78.985 148.750 C 78.977 145.313, 78.321 140.700, 77.529 138.500 C 76.736 136.300, 76.068 132.260, 76.044 129.522 C 76.004 124.966, 76.339 124.234, 80 120.887 C 84.571 116.710, 85.051 114.350, 81.597 113.037 C 80.276 112.534, 78.878 111.611, 78.491 110.985 C 77.727 109.749, 80.512 101.429, 82.503 99 C 83.180 98.175, 84.004 94.428, 84.336 90.674 C 84.893 84.370, 84.753 83.663, 82.515 81.424 C 81.182 80.091, 79.733 79.001, 79.295 79.002 C 78.858 79.003, 75.800 80.406, 72.500 82.120 M 66.084 98.250 C 60.678 102.854, 59.048 106.247, 60.854 109.137 C 61.484 110.147, 62 111.654, 62 112.486 C 62 115.366, 65.723 114.017, 68.172 110.250 C 70.764 106.263, 75 96.843, 75 95.065 C 75 92.728, 70.809 94.226, 66.084 98.250 M 177.500 157.616 C 175.300 159.558, 168.814 163.443, 163.086 166.248 C 152.928 171.223, 147.704 175.370, 142.184 182.841 C 139.864 185.981, 139.963 188, 142.437 188 C 143.162 188, 144.315 187.325, 145 186.500 C 145.685 185.675, 147.055 185, 148.046 185 C 149.036 185, 151.238 183.829, 152.938 182.399 C 157.908 178.217, 159.210 179.602, 158.428 188.237 C 158.049 192.411, 158.211 197.104, 158.807 199.263 C 160.219 204.377, 158.795 213.626, 155.535 220.517 C 151.653 228.723, 153.250 230.084, 160.503 224.750 C 163.353 222.654, 164.936 220.719, 164.961 219.300 C 164.982 218.090, 165.742 216.684, 166.648 216.177 C 168.068 215.382, 168.281 213.256, 168.188 200.785 C 168.129 192.826, 167.648 184.388, 167.119 182.034 C 165.900 176.611, 166.404 175.385, 170.873 172.891 C 172.868 171.778, 176.300 169.781, 178.500 168.454 C 180.700 167.126, 183.175 165.738, 184 165.368 C 189.022 163.118, 190.481 158.650, 187.171 155.655 C 184.442 153.185, 181.943 153.692, 177.500 157.616 M 182 229.067 C 171.275 230.125, 155.750 231.213, 147.500 231.485 C 139.250 231.756, 127.775 232.321, 122 232.739 L 111.500 233.500 111.199 237.086 C 111.023 239.191, 111.450 241.128, 112.233 241.779 C 113.794 243.074, 125.517 243.560, 132 242.598 C 134.475 242.231, 145.275 241.513, 156 241.004 C 176.508 240.028, 191.830 238.730, 203.500 236.980 C 210.650 235.907, 232.209 237.014, 243.917 239.056 C 246.896 239.575, 250.989 240, 253.012 240 C 259.365 240, 262.083 234.612, 257.961 230.189 C 256.121 228.214, 254.925 228, 245.711 227.997 C 240.095 227.995, 227.850 227.802, 218.500 227.568 C 206.329 227.263, 195.961 227.689, 182 229.067" stroke="none" fill="black" fill-rule="evenodd"/>
</svg>