<svg xmlns="http://www.w3.org/2000/svg" width="300" height="300" viewBox="0 0 300 300" version="1.1">
	<path d="M 131.934 39.674 C 130.727 42.849, 131.536 47.370, 133.622 49.101 C 138.387 53.056, 140.361 67.307, 140.325 97.500 C 140.295 123.017, 139.546 132.994, 137.657 133.009 C 137.021 133.014, 135.327 131.591, 133.893 129.847 C 132.155 127.732, 130.745 126.884, 129.661 127.300 C 126.214 128.623, 130.107 137.953, 136.968 144.815 C 140.714 148.560, 143.461 148.875, 145.135 145.750 C 147.401 141.519, 149.074 125.507, 149.551 103.500 C 149.813 91.400, 150.061 80.825, 150.104 80 C 150.470 72.853, 147.594 53.581, 144.839 44.728 C 142.721 37.921, 133.912 34.471, 131.934 39.674 M 169.536 60.732 C 168.141 62.785, 167 64.971, 167 65.591 C 167 67.377, 161.776 77.169, 158.657 81.232 C 156.222 84.401, 155.909 85.504, 156.482 88.895 C 157.060 92.315, 158.200 93.704, 164.826 99.057 C 169.047 102.467, 175.219 108.012, 178.541 111.379 C 181.864 114.745, 188.756 121.289, 193.858 125.921 C 198.960 130.552, 204.013 136.065, 205.087 138.171 C 206.547 141.033, 207.658 142, 209.485 142 C 214.608 142, 215.457 134.979, 211.101 128.646 C 207.919 124.022, 194.548 111, 192.981 111 C 192.442 111, 192 110.325, 192 109.500 C 192 108.675, 191.517 108, 190.927 108 C 189.815 108, 169 87.470, 169 86.373 C 169 85.247, 177.096 69.552, 178.472 68.010 C 180.815 65.384, 180.795 60.938, 178.429 58.571 C 175.682 55.825, 172.315 56.643, 169.536 60.732 M 68.065 70.518 C 63.027 73.277, 55 80.767, 55 82.708 C 55 85.139, 52.555 84.001, 49.027 79.928 C 46.233 76.702, 44.621 75.741, 41.268 75.299 C 37.881 74.853, 36.907 75.080, 36.387 76.435 C 35.962 77.541, 36.475 78.645, 37.869 79.620 C 39.041 80.442, 40 81.769, 40 82.570 C 40 84.119, 40.547 85.421, 43.539 91 C 50.132 103.294, 51.972 107.795, 51.985 111.661 C 52 115.941, 51.843 115.734, 60.250 122.560 C 61.622 123.673, 62.004 125.550, 62.020 131.240 C 62.036 137.038, 64.126 160.843, 65.248 168 C 65.377 168.825, 65.138 174.622, 64.716 180.882 C 63.867 193.471, 61.974 198, 57.561 198 C 55.537 198, 55.174 197.363, 54.564 192.750 C 53.676 186.022, 51.189 178.402, 49.397 176.915 C 48.629 176.277, 48 174.840, 48 173.722 C 48 172.604, 46.852 170.184, 45.449 168.344 C 42.800 164.871, 39.410 163.990, 37.200 166.200 C 35.261 168.139, 35.742 175.402, 38 178.273 C 39.100 179.671, 40 181.152, 40 181.563 C 40 181.975, 41.051 183.704, 42.335 185.406 C 45.162 189.152, 47 196.089, 47 203.014 C 47 208.018, 46.843 208.293, 40.500 214.391 C 36.925 217.828, 34 221.367, 34 222.255 C 34 225.283, 35.947 229, 37.533 229 C 40.433 229, 48.445 223.905, 53 219.165 C 55.475 216.590, 61.775 210.368, 67 205.339 C 79.038 193.753, 83 189.536, 83 188.310 C 83 187.773, 84.826 185.867, 87.057 184.074 C 89.925 181.770, 91.025 180.181, 90.807 178.657 C 90.542 176.795, 89.953 176.543, 86.500 176.812 C 83.423 177.052, 81.563 178.037, 78.439 181.084 C 76.206 183.263, 74.068 184.735, 73.689 184.356 C 73.310 183.977, 73 181.142, 73 178.056 C 73 172.334, 74.897 168, 77.402 168 C 78.110 168, 79.547 167.049, 80.595 165.887 C 81.643 164.725, 85.524 161.524, 89.219 158.773 C 96.698 153.205, 97.651 151.502, 96.031 146.593 C 94.121 140.805, 87.183 141.168, 85.092 147.165 C 84.573 148.654, 82.820 150.559, 81.196 151.399 C 79.571 152.239, 77.977 153.618, 77.653 154.463 C 77.328 155.308, 76.219 156, 75.187 156 C 73.507 156, 73.201 154.672, 72.246 143.250 C 71.660 136.238, 71.422 129.235, 71.718 127.689 C 72.134 125.518, 71.601 124.187, 69.378 121.845 L 66.500 118.812 68.878 117.156 C 75.778 112.352, 76.797 110.685, 76.737 104.307 C 76.695 99.905, 77.237 97.333, 78.722 94.877 C 80.840 91.376, 82.754 82.059, 82.593 76.041 C 82.519 73.275, 81.819 72.123, 79.102 70.291 C 74.886 67.448, 73.622 67.474, 68.065 70.518 M 66.807 81.791 C 66.088 82.777, 63.386 84.807, 60.802 86.303 C 54.069 90.202, 54.072 90.189, 58.048 98.127 C 58.496 99.022, 59.169 101.384, 59.543 103.377 C 60.661 109.336, 63.462 108.127, 67.845 99.795 C 71.114 93.581, 73.630 84.085, 72.671 81.586 C 71.853 79.454, 68.424 79.574, 66.807 81.791 M 119.500 82.502 C 117.850 83.257, 115.247 84.141, 113.715 84.466 C 111.965 84.836, 110.570 86.001, 109.963 87.597 C 107.819 93.236, 111.841 98.305, 116.701 96.090 C 119.912 94.627, 121.319 95.615, 120.658 98.868 C 118.566 109.167, 117.951 110.805, 110.350 126.353 C 108.508 130.122, 107 133.959, 107 134.880 C 107 135.802, 106.100 137.326, 105 138.268 C 102.507 140.402, 102.440 143.183, 104.829 145.345 C 107.004 147.314, 109.372 147.475, 110.764 145.750 C 111.318 145.063, 113.649 140.799, 115.942 136.275 C 118.235 131.751, 120.536 127.786, 121.056 127.466 C 121.575 127.145, 122 126.076, 122 125.090 C 122 124.104, 123.052 121.318, 124.337 118.899 C 125.623 116.480, 126.930 113.375, 127.242 112 C 127.555 110.625, 128.955 105.051, 130.353 99.613 C 133.257 88.321, 132.993 85.018, 129.003 82.661 C 125.664 80.688, 123.538 80.653, 119.500 82.502 M 153.500 152.651 C 151.850 153.569, 148.160 156.085, 145.300 158.242 C 139.899 162.317, 139.709 162.682, 136.512 175.211 C 134.896 181.542, 132.731 185.064, 131.322 183.655 C 130.975 183.309, 130.792 179.612, 130.913 175.440 C 131.178 166.393, 129.592 163, 125.099 163 C 120.305 163, 119.875 164.478, 120.840 177.622 C 121.319 184.155, 121.595 191.975, 121.452 195 C 121.310 198.025, 120.892 206.851, 120.525 214.614 C 119.733 231.378, 120.325 235.735, 123.596 237.226 C 127.951 239.210, 128.993 236.995, 129.054 225.628 C 129.084 220.057, 129.555 211.900, 130.102 207.500 C 130.649 203.100, 131.354 196.912, 131.668 193.750 C 132.115 189.259, 132.608 188, 133.920 188 C 136.264 188, 138 186.014, 138 183.333 C 138 181.121, 144.115 174, 146.014 174 C 146.535 174, 147.257 172.762, 147.618 171.250 C 148.183 168.883, 155.405 160.971, 156.960 161.015 C 160.028 161.102, 165.013 174.261, 165.005 182.250 C 165 186.992, 164.994 187, 161.571 187 C 159.686 187, 157.526 187.617, 156.773 188.370 C 156.019 189.124, 154.040 190.445, 152.376 191.306 C 150.712 192.166, 147.713 194.682, 145.713 196.896 C 142.390 200.574, 142.168 201.183, 143.136 203.961 C 143.974 206.363, 144.778 207, 146.975 207 C 148.504 207, 150.352 206.281, 151.081 205.402 C 152.020 204.271, 153.397 203.965, 155.797 204.354 C 159.205 204.908, 160.204 204.268, 164.789 198.595 C 167.436 195.321, 168 197.123, 168 208.845 C 168 218.894, 167.735 220.915, 166.250 222.175 C 165.080 223.168, 160.089 224.042, 151.183 224.812 C 143.859 225.446, 137.446 226.224, 136.933 226.541 C 136.420 226.859, 136 228.881, 136 231.036 C 136 236.127, 139.465 238.855, 143.756 237.142 C 149.960 234.665, 170.393 233.667, 177.285 235.504 C 180.573 236.381, 183.329 234.364, 184.865 229.957 C 185.799 227.278, 185.605 226.959, 181.615 224.620 L 177.372 222.134 177.201 205.317 C 177.107 196.068, 176.590 186.475, 176.051 184 C 175.512 181.525, 174.383 175.715, 173.541 171.089 C 171.789 161.458, 169.587 156.422, 165.977 153.788 C 162.339 151.135, 157.085 150.656, 153.500 152.651" stroke="none" fill="black" fill-rule="evenodd"/>
</svg>