<svg xmlns="http://www.w3.org/2000/svg" width="300" height="300" viewBox="0 0 300 300" version="1.1">
	<path d="M 118.250 24.108 C 117.563 24.819, 117 26.132, 117 27.026 C 117 28.720, 120.938 32.973, 122.564 33.036 C 123.079 33.056, 124.850 34.176, 126.500 35.524 C 128.967 37.541, 129.305 38.290, 128.402 39.738 C 127.798 40.707, 126.364 41.977, 125.216 42.560 C 124.067 43.144, 122.311 44.624, 121.314 45.849 C 120.316 47.075, 118.375 48.633, 117 49.313 C 114.941 50.330, 114.446 51.385, 114.194 55.299 C 113.902 59.836, 114.037 60.113, 117.194 61.456 C 120.044 62.669, 120.805 62.665, 122.715 61.431 C 123.933 60.644, 125.565 60, 126.342 60 C 127.119 60, 128.315 59.325, 129 58.500 C 129.685 57.675, 131.288 57, 132.563 57 C 133.839 57, 135.192 56.498, 135.571 55.885 C 135.989 55.209, 137.976 54.963, 140.612 55.260 C 143.257 55.558, 145.338 55.298, 145.920 54.596 C 147.150 53.115, 143.864 45.546, 141.617 44.683 C 139.331 43.806, 139.583 42.559, 143 37.841 C 144.650 35.564, 146 32.900, 146 31.923 C 146 29.571, 141.357 26, 138.299 26 C 136.962 26, 135.064 25.569, 134.080 25.043 C 130.884 23.332, 119.643 22.669, 118.250 24.108 M 150.567 63.525 C 147.304 64.873, 143.455 67.106, 142.013 68.488 C 140.570 69.870, 139.048 71, 138.629 71 C 137.212 71, 130.527 76.322, 125.750 81.253 C 122.440 84.670, 121 86.984, 121 88.887 C 121 92.507, 118.753 95.503, 116.645 94.694 C 115.740 94.347, 115 93.218, 115 92.186 C 115 89.795, 111.942 87, 109.326 87 C 108.217 87, 106.475 87.923, 105.455 89.050 C 103.706 90.982, 103.694 91.285, 105.244 94.300 C 108.618 100.865, 110.234 109.456, 109.732 118.159 C 109.133 128.569, 107.298 138.869, 105.571 141.520 C 104.811 142.687, 104.307 146.060, 104.378 149.507 C 104.474 154.204, 104.852 155.541, 106.157 155.792 C 108.537 156.250, 112.674 150.341, 114.075 144.482 C 114.731 141.742, 115.624 138.600, 116.060 137.500 C 117.959 132.713, 119.396 120.654, 119.310 110.224 L 119.218 98.948 123.359 95.011 C 130.255 88.454, 137.372 83, 139.032 83 C 139.894 83, 143.392 80.750, 146.805 78 C 150.218 75.250, 153.937 73, 155.071 73 C 160.607 73, 163.682 77.420, 164.966 87.225 C 166.691 100.396, 168.197 132.126, 167.481 140.212 C 166.586 150.328, 165.188 151.132, 159.733 144.669 C 157.565 142.101, 155.378 140, 154.871 140 C 154.365 140, 153.497 141.193, 152.942 142.651 C 152.107 144.848, 152.368 145.958, 154.465 149.127 C 155.857 151.230, 158.235 153.720, 159.748 154.660 C 163.324 156.881, 167 160.146, 167 161.102 C 167 161.517, 164.412 162.170, 161.250 162.554 C 158.088 162.938, 151.756 164.328, 147.180 165.642 C 142.604 166.956, 138.442 167.773, 137.930 167.457 C 137.419 167.141, 137 164.743, 137 162.130 C 137 156.686, 134.410 153, 130.583 153 C 126.953 153, 126.110 154.939, 125.794 164.021 L 125.500 172.443 120.500 174.263 C 117.750 175.264, 113.925 176.826, 112 177.734 C 110.075 178.643, 106.700 179.637, 104.500 179.943 C 101.286 180.391, 100.436 180.953, 100.173 182.808 C 99.993 184.077, 100.603 186.272, 101.529 187.685 C 103.064 190.027, 103.643 190.202, 108.112 189.673 C 111.123 189.317, 114.299 188.111, 116.350 186.546 C 118.186 185.146, 120.209 184, 120.844 184 C 122.477 184, 122.269 188.961, 120.494 192.364 C 119.672 193.940, 119 195.920, 119 196.765 C 119 197.609, 117.828 200.821, 116.395 203.900 C 114.963 206.980, 113.436 210.400, 113.004 211.500 C 110.605 217.599, 103.087 232.365, 89.127 258.398 C 84.609 266.822, 83.578 268.515, 80.750 272.152 C 79.238 274.097, 78 276.124, 78 276.657 C 78 277.189, 75.316 280.297, 72.035 283.563 C 68.754 286.828, 66.054 290.198, 66.035 291.050 C 66.016 291.903, 65.528 293.072, 64.952 293.648 C 64.222 294.378, 64.277 295.514, 65.135 297.396 C 66.214 299.766, 66.855 300.061, 70.357 299.799 C 74.482 299.490, 75.744 298.205, 82.545 287.392 C 83.620 285.682, 86.750 280.996, 89.500 276.978 C 92.250 272.959, 94.949 268.958, 95.497 268.086 C 96.046 267.214, 97.509 265.068, 98.747 263.317 C 99.986 261.566, 101 259.517, 101 258.763 C 101 258.008, 102.241 255.391, 103.757 252.946 C 106.620 248.328, 117.231 227.214, 121.067 218.500 C 122.277 215.750, 124.558 210.833, 126.134 207.573 C 127.710 204.313, 129 201.006, 129 200.224 C 129 198.721, 130.333 195.492, 135.221 185.153 C 138.482 178.254, 140.964 176.523, 150 174.845 C 152.475 174.385, 157.200 173.480, 160.500 172.834 C 169.612 171.051, 176.060 171.239, 179.250 173.382 C 181.561 174.935, 182 175.940, 182 179.679 C 182 182.301, 180.973 186.373, 179.500 189.594 C 178.125 192.600, 177 195.479, 177 195.991 C 177 196.504, 175.034 201.103, 172.631 206.212 C 167.627 216.851, 164.338 220.553, 160.702 219.640 C 158.452 219.075, 153.492 214.530, 149.297 209.189 C 146.630 205.792, 144 207.171, 144 211.968 C 144 215.048, 144.774 216.510, 148.313 220.111 C 155.644 227.572, 159.740 230.004, 164.911 229.968 C 167.435 229.951, 170.185 229.388, 171.022 228.718 C 173.680 226.592, 180 217.300, 180 215.520 C 180 214.579, 180.819 212.614, 181.821 211.154 C 182.823 209.694, 184.433 206.250, 185.399 203.500 C 186.365 200.750, 187.523 197.600, 187.972 196.500 C 193.030 184.111, 193.706 174.226, 189.850 169.012 C 187.652 166.038, 179.078 162, 174.962 162 C 172.446 162, 172.465 160.577, 175.012 158.203 C 176.318 156.987, 176.995 155.129, 176.940 152.914 C 176.894 151.036, 176.844 140.500, 176.830 129.500 C 176.769 81.783, 172.167 62.642, 160.472 61.472 C 157.794 61.204, 154.567 61.873, 150.567 63.525 M 63.305 69.291 C 59.965 71.148, 54 78.558, 54 80.850 C 54 84.510, 51.781 84.476, 48.578 80.767 C 45.719 77.456, 40.383 74, 38.130 74 C 36.536 74, 37.358 83.626, 39.125 85.654 C 43.090 90.202, 47.690 97.876, 48.924 102 C 53.506 117.316, 54.178 118.395, 58.681 117.664 C 62.130 117.105, 63.119 118.481, 60.877 120.723 C 59.534 122.066, 60.307 137.653, 62.132 146 C 63.939 154.264, 63.940 175.928, 62.134 178.815 C 60.821 180.912, 60.883 181.327, 62.782 183.227 C 64.685 185.130, 65.085 185.188, 67.094 183.854 C 69.566 182.212, 71.886 174.860, 71.956 168.446 C 72.011 163.362, 75.458 157.871, 84.377 148.660 C 88.020 144.897, 91 141.592, 91 141.314 C 91 139.717, 86.587 135, 85.093 135 C 84.119 135, 81.675 136.407, 79.661 138.127 C 76.873 140.509, 76 142.011, 76 144.427 C 76 147.385, 74.538 150, 72.885 150 C 72.492 150, 71.886 146.512, 71.538 142.250 C 70.267 126.679, 68.966 120.875, 66.216 118.510 L 63.663 116.313 68.804 112.249 C 71.632 110.014, 74.510 107.997, 75.199 107.767 C 75.936 107.521, 76.350 106.006, 76.204 104.088 C 76.031 101.826, 77.187 98.596, 79.978 93.541 C 83.503 87.153, 84 85.459, 84 79.814 C 84 74.064, 83.700 73.086, 81.195 70.687 C 78.733 68.328, 77.603 68.004, 71.945 68.035 C 68.400 68.055, 64.512 68.620, 63.305 69.291 M 64.044 81.453 C 62.728 82.854, 60.867 84, 59.907 84 C 54.872 84, 53.495 87.886, 56.494 93.636 C 57.315 95.211, 57.990 97.963, 57.994 99.750 C 57.998 102.017, 58.469 103, 59.551 103 C 63.303 103, 72.836 88.712, 73.290 82.406 C 73.482 79.756, 73.189 79.474, 69.969 79.203 C 67.243 78.973, 65.892 79.486, 64.044 81.453 M 140.241 87.244 C 138.913 88.657, 138 90.894, 138 92.733 C 138 97.609, 137.090 98.921, 131.875 101.563 C 127.310 103.877, 127 104.279, 127 107.894 C 127 112.930, 128.798 114.379, 133.963 113.506 C 137.083 112.979, 138.127 113.166, 138.575 114.334 C 139.650 117.136, 137.180 120, 133.687 120 C 130.622 120, 126.385 122.110, 124.765 124.442 C 123.616 126.097, 123.875 130.475, 125.200 131.800 C 126.877 133.477, 131.133 133.295, 133.793 131.432 C 135.024 130.570, 137.036 130.008, 138.265 130.182 C 140.359 130.480, 140.481 130.920, 140.195 137.157 C 139.874 144.173, 140.604 145.578, 144.009 144.497 C 145.470 144.033, 146 142.982, 146 140.547 C 146 138.722, 146.672 135.940, 147.494 134.364 C 148.315 132.789, 149.006 130.150, 149.029 128.500 C 149.088 124.284, 151.021 121.272, 155.043 119.129 C 158.931 117.057, 160.963 113.838, 160.985 109.719 C 161.005 106.043, 158.502 105.180, 155.635 107.873 C 150.233 112.948, 147.673 108.131, 152.178 101.370 C 153.692 99.099, 155.621 96.976, 156.465 96.652 C 158.309 95.944, 158.453 91.179, 156.701 88.877 C 156.022 87.985, 153.673 87.008, 151.483 86.708 C 149.292 86.407, 146.371 85.868, 144.991 85.510 C 143.102 85.020, 141.927 85.449, 140.241 87.244 M 37.125 162.350 C 35.883 163.846, 37.099 172.777, 38.695 173.876 C 40.200 174.912, 42 184.723, 42 191.889 C 42 199.190, 41.218 200.442, 33.250 205.907 C 28.846 208.927, 28.710 213.282, 32.950 215.474 C 36.738 217.433, 36.339 217.519, 40.529 213.840 C 42.508 212.103, 46.011 209.621, 48.314 208.325 C 53.925 205.167, 68.845 198, 69.807 198 C 70.230 198, 72.134 196.668, 74.038 195.041 C 75.942 193.413, 77.844 192.063, 78.265 192.041 C 78.686 192.018, 81.517 190.349, 84.556 188.331 C 91.184 183.931, 91.449 181.644, 85.383 181.199 C 82.144 180.962, 79.378 181.854, 72.208 185.449 C 67.216 187.952, 62.634 190, 62.026 190 C 61.418 190, 59.077 190.940, 56.825 192.090 C 51.659 194.725, 50.771 193.665, 51.618 185.880 C 52.017 182.204, 51.843 180.021, 51.114 179.571 C 50.502 179.192, 50 177.360, 50 175.500 C 50 173.640, 49.550 171.840, 49 171.500 C 48.450 171.160, 48 170.097, 48 169.137 C 48 166.986, 41.986 161, 39.825 161 C 38.956 161, 37.741 161.607, 37.125 162.350" stroke="none" fill="black" fill-rule="evenodd"/>
</svg>