<svg xmlns="http://www.w3.org/2000/svg" width="300" height="300" viewBox="0 0 300 300" version="1.1">
	<path d="M 138.500 72.586 C 134.650 73.428, 129.670 74.991, 127.434 76.059 C 125.198 77.126, 122.914 78, 122.359 78 C 120.798 78, 117 82.434, 117 84.255 C 117 86.845, 118.645 87.215, 124.633 85.972 C 129.344 84.994, 130.473 85.045, 131.716 86.288 C 132.913 87.485, 132.967 88.194, 131.996 90.008 C 131.065 91.747, 131.064 92.750, 131.990 94.482 C 132.979 96.330, 132.825 97.459, 131.092 101.045 C 129.942 103.427, 129 105.911, 129 106.565 C 129 107.220, 128.325 108.315, 127.500 109 C 126.675 109.685, 126 111.288, 126 112.563 C 126 113.839, 125.550 115.160, 125 115.500 C 124.450 115.840, 124 117.232, 124 118.594 C 124 119.956, 123.286 122.160, 122.414 123.491 C 121.541 124.823, 121.056 126.282, 121.335 126.734 C 121.862 127.585, 118.788 137.545, 117.647 138.686 C 117.291 139.042, 117 141.283, 117 143.667 C 117 146.868, 117.395 148, 118.512 148 C 120.346 148, 127 137.892, 127 135.107 C 127 134.013, 127.450 132.840, 128 132.500 C 128.550 132.160, 129 131.156, 129 130.270 C 129 129.383, 129.582 127.947, 130.293 127.079 C 131.004 126.210, 132.159 123.700, 132.859 121.500 C 134.616 115.981, 135.185 114.627, 139.583 105.500 C 142.668 99.100, 143.513 96.100, 143.809 90.500 C 144.262 81.931, 145.223 81, 153.623 81 C 159.479 81, 160.002 81.194, 162.101 84.142 C 164.133 86.996, 164.231 87.686, 163.169 91.657 C 162.526 94.061, 162 97.453, 162 99.193 C 162 102.340, 160.553 107.919, 158.877 111.236 C 158.395 112.191, 158 113.473, 158 114.085 C 158 114.697, 157.356 116.616, 156.568 118.349 C 155.780 120.082, 154.988 122.395, 154.806 123.489 C 154.279 126.671, 151.251 126.451, 148.365 123.022 C 145.061 119.096, 141.649 119.206, 141.183 123.254 C 140.930 125.454, 142.017 127.215, 146.585 132.004 C 149.731 135.302, 152.803 138, 153.412 138 C 156.279 138, 160.286 132.529, 164.035 123.500 C 164.720 121.850, 165.851 119.150, 166.548 117.500 C 170.772 107.500, 172.500 99.284, 172.488 89.258 L 172.476 79.009 168.757 75.291 L 165.039 71.572 155.269 71.314 C 149.251 71.154, 142.812 71.643, 138.500 72.586 M 73.667 101.667 C 72.425 102.908, 72.991 105.686, 75.417 110.248 C 76.746 112.748, 77.984 115.852, 78.167 117.147 C 78.691 120.847, 82.522 120.826, 84.442 117.112 C 86.186 113.740, 86.537 108, 85 108 C 84.450 108, 84 107.358, 84 106.573 C 84 103.339, 75.859 99.474, 73.667 101.667 M 60.200 141.200 C 59.540 141.860, 59.002 143.548, 59.004 144.950 C 59.008 147.666, 62.389 154, 63.836 154 C 64.905 154, 71 163.670, 71 165.366 C 71 166.045, 71.459 167.059, 72.021 167.621 C 72.582 168.182, 73.311 171.535, 73.639 175.071 C 74.359 182.822, 72.111 188.087, 66.442 191.927 C 63.069 194.212, 62.098 194.346, 49.904 194.203 C 38.172 194.065, 36.760 194.240, 34.952 196.048 C 33.449 197.551, 33.194 198.494, 33.922 199.855 C 35.924 203.595, 38.260 204.498, 47.399 205.061 C 52.404 205.370, 62.800 206.623, 70.500 207.845 C 78.200 209.068, 87.875 210.519, 92 211.069 C 101.524 212.340, 120.597 215.452, 138.231 218.611 C 145.784 219.965, 155.009 221.316, 158.731 221.615 C 162.454 221.913, 166.400 222.530, 167.500 222.986 C 169.625 223.866, 174.167 224.972, 185.500 227.370 C 189.350 228.184, 195.650 229.529, 199.500 230.358 C 203.350 231.187, 211 232.824, 216.500 233.995 C 240.132 239.028, 245.821 240.363, 251.338 242.169 C 257.021 244.030, 257.261 244.032, 260.338 242.240 C 264.619 239.747, 264.795 236.975, 260.953 232.599 C 257.658 228.847, 254.501 228.046, 251.179 230.120 C 249.801 230.981, 247.445 230.749, 241.003 229.120 C 236.392 227.954, 231.622 227, 230.402 227 C 226.622 227, 197.803 221.029, 191.944 219.031 C 188.889 217.990, 182.139 216.407, 176.944 215.515 C 171.750 214.623, 165.581 213.467, 163.236 212.946 C 160.890 212.426, 157.628 212, 155.986 212 C 154.344 212, 153 211.603, 153 211.119 C 153 210.123, 160.655 208, 164.247 208 C 166.639 208, 175.171 203.150, 176.467 201.054 C 177.636 199.161, 174.967 197, 171.459 197 C 166.641 197, 165 196.084, 165 193.393 C 165 191.676, 165.558 191, 166.977 191 C 170.589 191, 172.218 186.777, 172.365 177.032 C 172.493 168.522, 172.361 167.926, 169.777 165.332 C 167.308 162.854, 166.410 162.609, 160.156 162.705 C 154.853 162.787, 151.900 163.452, 147.379 165.582 C 139.310 169.386, 132.456 174.053, 131.389 176.471 C 130.048 179.513, 127.357 179.558, 126.602 176.550 C 126.250 175.148, 125.575 174, 125.102 174 C 124.629 174, 123.699 172.689, 123.036 171.086 C 120.765 165.604, 112 164.745, 112 170.005 C 112 171.927, 114.637 177.215, 117.982 182 C 118.943 183.375, 121.853 188.550, 124.448 193.500 C 127.043 198.450, 129.861 203.041, 130.709 203.702 C 131.557 204.363, 131.984 205.601, 131.657 206.452 C 130.987 208.198, 125.579 208.551, 121.755 207.097 C 120.449 206.600, 115.132 205.696, 109.940 205.088 C 98.346 203.729, 77.801 199.943, 76.665 198.955 C 76.206 198.556, 76.993 196.387, 78.415 194.135 C 79.837 191.883, 81 189.442, 81 188.711 C 81 187.980, 81.661 186.509, 82.468 185.441 C 84.327 182.984, 84.373 179.657, 82.620 174.533 C 81.860 172.315, 80.239 167.379, 79.015 163.565 C 76.459 155.592, 73.949 151.427, 67.678 144.750 C 62.936 139.701, 62.097 139.303, 60.200 141.200 M 150.671 175.072 C 145.170 176.965, 132 184.620, 132 185.925 C 132 186.257, 132.900 188.991, 134 192 C 135.100 195.009, 136 198.464, 136 199.677 C 136 200.890, 136.378 202.115, 136.839 202.401 C 138.344 203.330, 147.819 199.717, 150.801 197.076 C 154.554 193.753, 162 183.506, 162 181.665 C 162 180.884, 162.675 179.685, 163.500 179 C 164.325 178.315, 165 176.958, 165 175.985 C 165 172.445, 159.353 172.085, 150.671 175.072 M 179 221.300 C 179 223.317, 181.161 225, 183.752 225 C 186.039 225, 200.848 227.704, 213.993 230.521 C 217.965 231.373, 220.846 231.554, 221.411 230.989 C 222.596 229.804, 221.642 229.471, 210 227.016 C 204.775 225.915, 196.450 223.893, 191.500 222.524 C 181.238 219.685, 179 219.466, 179 221.300 M 225.500 232 C 225.840 232.550, 226.766 233, 227.559 233 C 228.352 233, 229 232.550, 229 232 C 229 231.450, 228.073 231, 226.941 231 C 225.809 231, 225.160 231.450, 225.500 232" stroke="none" fill="black" fill-rule="evenodd"/>
</svg>