<svg xmlns="http://www.w3.org/2000/svg" width="300" height="300" viewBox="0 0 300 300" version="1.1">
	<path d="M 168.667 30.667 C 168.300 31.033, 168 33.004, 168 35.046 C 168 38.199, 168.641 39.287, 172.250 42.257 C 174.588 44.180, 178.975 48.050, 182 50.856 C 188.305 56.705, 190.638 57.790, 192.628 55.800 C 195.228 53.201, 192.249 48.094, 182.680 38.750 C 174.316 30.583, 170.787 28.547, 168.667 30.667 M 86.266 42.202 C 85.683 42.916, 84.635 45.525, 83.937 48 C 82.236 54.034, 77.853 58.608, 73.034 59.379 C 70.947 59.712, 68.193 60.833, 66.913 61.869 C 64.834 63.553, 64.688 64.164, 65.543 67.626 C 66.463 71.348, 66.657 71.496, 70.500 71.387 C 72.700 71.325, 76.102 70.942, 78.061 70.537 L 81.622 69.800 82.561 76.150 C 83.355 81.520, 83.809 82.500, 85.500 82.500 C 86.973 82.500, 87.589 81.721, 87.836 79.546 C 88.021 77.921, 88.808 75.684, 89.586 74.574 C 90.364 73.463, 91 71.238, 91 69.629 C 91 66.611, 93.656 63.546, 101.330 57.707 C 105.495 54.538, 105.728 53.505, 103.062 50.036 C 101.356 47.815, 100.928 47.701, 98.733 48.875 C 97.394 49.592, 95.219 50.026, 93.899 49.839 C 91.823 49.546, 91.500 48.961, 91.500 45.500 C 91.500 42.206, 91.132 41.447, 89.412 41.202 C 88.264 41.038, 86.848 41.488, 86.266 42.202 M 122.363 43.496 C 121.716 45.183, 122.312 50.329, 123.926 57 C 124.525 59.475, 125.280 63.075, 125.603 65 C 125.926 66.925, 126.823 69.918, 127.595 71.651 C 128.368 73.384, 129 76.178, 129 77.859 C 129 80.795, 128.715 80.997, 121.750 82.995 C 117.763 84.139, 111.350 86.243, 107.500 87.671 C 103.192 89.268, 98.728 90.207, 95.891 90.111 C 92.863 90.010, 90.855 90.470, 90.040 91.452 C 89.358 92.274, 87.157 93.248, 85.150 93.615 C 83.142 93.983, 80.612 94.895, 79.527 95.642 C 78.443 96.389, 76.514 97, 75.242 97 C 73.970 97, 71.842 97.712, 70.514 98.583 C 69.185 99.454, 67.288 99.911, 66.299 99.600 C 65.310 99.289, 62.291 99.702, 59.591 100.517 C 56.891 101.333, 51.614 102, 47.864 102 C 41.720 102, 40.886 102.244, 39.431 104.466 C 37.909 106.787, 37.946 107.116, 40.067 110.094 C 42.301 113.232, 42.373 113.253, 48.910 112.640 C 52.534 112.300, 57.927 111.132, 60.894 110.045 C 63.861 108.957, 67.911 108.101, 69.894 108.142 C 71.877 108.183, 74.766 107.885, 76.314 107.480 C 79.113 106.746, 79.126 106.766, 78.814 111.121 C 78.528 115.107, 78.231 115.548, 75.500 116.038 C 71.065 116.833, 63.372 120.588, 62.726 122.272 C 61.924 124.361, 65.622 130, 67.794 130 C 68.797 130, 70.491 129.339, 71.559 128.532 C 74.497 126.309, 77.747 126.684, 79.562 129.454 C 80.837 131.401, 81.025 133.256, 80.469 138.443 C 79.810 144.601, 79.559 145.106, 76.135 147.156 C 74.136 148.353, 70.167 151.733, 67.315 154.666 C 64.463 157.600, 61.676 160, 61.120 160 C 60.565 160, 57.896 157.750, 55.189 155 C 50.146 149.877, 48.302 149.098, 46.200 151.200 C 43.871 153.529, 44.825 157.708, 48.364 160.677 C 52.347 164.020, 57 171.155, 57 173.921 C 57 175, 57.389 176.123, 57.865 176.417 C 58.341 176.711, 58.977 178.425, 59.277 180.226 C 59.888 183.878, 61.024 186.609, 64.385 192.500 C 66.723 196.597, 67.512 196.875, 74 195.882 C 76.340 195.525, 76.500 195.777, 76.500 199.817 C 76.500 203.906, 76.263 204.261, 72 206.565 C 66.514 209.529, 49.164 217.549, 43 219.971 C 40.525 220.943, 35.350 222.280, 31.500 222.942 C 27.650 223.603, 23.038 224.838, 21.250 225.686 C 18.533 226.975, 18 227.780, 18 230.591 C 18 232.992, 18.655 234.383, 20.290 235.455 C 22.359 236.810, 23.206 236.754, 29.040 234.875 C 32.593 233.732, 39.475 231.267, 44.333 229.398 C 49.191 227.529, 53.620 226, 54.175 226 C 54.730 226, 59.487 223.541, 64.746 220.537 C 70.006 217.532, 74.690 215.308, 75.155 215.596 C 75.620 215.883, 76 223.051, 76 231.524 C 76 245.906, 76.133 247.001, 78 248 C 80.577 249.379, 84 247.681, 84 245.024 C 84 243.976, 84.450 242.840, 85 242.500 C 86.345 241.669, 86.271 237.671, 84.886 236.286 C 83.812 235.212, 84.016 229.175, 85.600 215.195 L 86.200 209.891 94.735 205.947 C 99.430 203.779, 105.122 201.506, 107.385 200.897 C 109.648 200.288, 113.300 198.766, 115.500 197.515 C 117.700 196.263, 121.677 194.435, 124.338 193.450 C 129.990 191.360, 132.939 187.836, 130.996 185.495 C 129.061 183.163, 125.046 183.711, 117.472 187.341 C 113.637 189.178, 108.702 191.274, 106.504 191.999 C 104.307 192.724, 99.807 194.595, 96.504 196.158 C 93.202 197.720, 89.938 198.999, 89.250 198.999 C 87.548 199, 87.673 195.815, 89.468 193.441 C 90.276 192.374, 90.951 190.743, 90.968 189.818 C 90.986 188.893, 92.349 187.176, 93.998 186.002 C 95.646 184.828, 97.291 182.660, 97.652 181.184 C 98.013 179.708, 99.814 175.388, 101.654 171.585 C 103.494 167.781, 105.016 163.731, 105.035 162.585 C 105.055 161.438, 105.714 159.375, 106.500 158 C 108.532 154.445, 108.328 148.563, 106.014 144.028 C 103.505 139.110, 102.625 138.596, 96.620 138.543 C 92.509 138.507, 91.400 138.073, 89.736 135.846 C 87.883 133.366, 87.859 133.039, 89.376 130.873 C 90.269 129.598, 91 127.164, 91 125.465 C 91 123.336, 91.934 121.479, 94 119.500 C 95.650 117.919, 97 115.997, 97 115.230 C 97 114.462, 95.425 112.304, 93.500 110.434 C 88.805 105.875, 88.883 103.427, 93.750 102.537 C 98.711 101.631, 102 99.414, 102 96.977 C 102 94.561, 102.776 94.488, 105.195 96.677 C 106.940 98.256, 107.715 98.130, 118.446 94.540 C 124.714 92.442, 130.507 90.980, 131.318 91.292 C 132.228 91.641, 133.047 93.894, 133.457 97.179 C 133.822 100.105, 134.495 103.625, 134.953 105 C 135.411 106.375, 136.357 110.093, 137.056 113.263 C 137.754 116.432, 138.927 119.525, 139.663 120.135 C 140.398 120.745, 141 122.280, 141 123.546 C 141 124.811, 142.125 127.184, 143.500 128.818 C 145.420 131.099, 146 132.922, 146 136.672 C 146 139.394, 146.664 142.503, 147.500 143.696 C 148.325 144.874, 148.740 146.514, 148.423 147.341 C 148.106 148.167, 148.409 149.891, 149.098 151.172 C 150.258 153.329, 150.918 155.699, 152.531 163.500 C 152.872 165.150, 153.499 167.400, 153.926 168.500 C 157.009 176.455, 157.023 176.320, 152.036 186.167 C 149.437 191.300, 145.505 198.200, 143.300 201.500 C 141.094 204.800, 138.575 208.891, 137.701 210.592 C 136.827 212.293, 133.918 217.018, 131.236 221.092 C 128.554 225.166, 126.061 229.175, 125.697 230 C 125.332 230.825, 123.010 234.200, 120.535 237.500 C 115.089 244.764, 112 250.287, 112 252.760 C 112 255.034, 113.865 257, 116.022 257 C 118.678 257, 129.615 243.071, 134.867 233 C 138.084 226.831, 146.648 213.206, 152.781 204.500 C 155.544 200.577, 157.221 197.346, 158.421 193.638 C 158.881 192.216, 159.739 191.881, 162.054 192.221 C 164.533 192.585, 164.959 192.377, 164.390 191.083 C 163.080 188.100, 163.448 184.565, 165.104 184.232 C 166.336 183.984, 167.015 185.360, 168.037 190.176 C 168.769 193.622, 170.404 198.255, 171.672 200.471 C 172.939 202.687, 173.981 205.287, 173.988 206.250 C 173.995 207.213, 174.450 208, 175 208 C 175.550 208, 176 209.485, 176 211.300 C 176 213.115, 176.488 215.088, 177.085 215.685 C 177.681 216.281, 178.019 217.823, 177.835 219.110 C 177.553 221.082, 177.121 220.667, 175.092 216.476 C 173.768 213.739, 172.306 210.719, 171.842 209.764 C 171.379 208.809, 171 207.401, 171 206.636 C 171 205.871, 170.325 204.685, 169.500 204 C 168.675 203.315, 168 201.460, 168 199.878 C 168 198.295, 167.550 197, 167 197 C 166.450 197, 166 198.098, 166 199.441 C 166 200.784, 166.450 202.160, 167 202.500 C 167.550 202.840, 168 204.190, 168 205.500 C 168 206.810, 168.450 208.160, 169 208.500 C 169.550 208.840, 170 209.998, 170 211.073 C 170 212.148, 170.433 213.809, 170.962 214.764 C 171.491 215.719, 173.782 221.225, 176.053 227 C 180.175 237.480, 185.330 249.161, 187.085 252 C 187.595 252.825, 188.283 254.175, 188.613 255 C 190.621 260.014, 192.512 263.829, 194.141 266.154 C 195.163 267.614, 196 269.793, 196 270.995 C 196 273.860, 202.806 283.870, 212.940 295.912 L 216.381 300 225.258 300 C 234.011 300, 234.125 299.969, 233.413 297.750 C 231.517 291.839, 230.715 288.056, 230.288 283 C 230.033 279.975, 229.414 277.073, 228.912 276.550 C 228.410 276.028, 228 274.369, 228 272.865 C 228 271.361, 227.488 268.863, 226.863 267.315 C 226.238 265.767, 225.338 262.587, 224.863 260.250 C 224.388 257.912, 223.606 254.087, 223.125 251.750 C 222.644 249.412, 221.641 244.463, 220.897 240.750 C 219.564 234.102, 218.501 232.532, 217.354 235.521 C 216.743 237.111, 218.359 260.300, 219.442 265.500 C 221.097 273.444, 221.969 279.031, 222.447 284.750 C 222.864 289.745, 222.682 291, 221.540 291 C 219.385 291, 212.002 281.918, 207.943 274.275 C 202.179 263.420, 197.808 255.592, 196.795 254.310 C 196.277 253.655, 195.984 252.305, 196.144 251.310 C 196.385 249.798, 193.740 243.607, 190.030 237 C 189.567 236.175, 187.533 231.225, 185.511 226 C 180.676 213.512, 179.915 211.874, 177.840 209.483 C 176.877 208.374, 176.120 206.574, 176.158 205.483 C 176.223 203.593, 170.718 186.416, 168.876 182.764 C 167.745 180.522, 167.752 175.459, 168.888 173.236 C 174.091 163.058, 180 147.663, 180 144.284 C 180 143.198, 180.840 141.550, 181.866 140.621 C 184.615 138.134, 185.613 128.335, 183.371 125.857 C 182.446 124.836, 180.890 124, 179.913 124 C 177.773 124, 174 129.006, 174 131.845 C 174 132.965, 173.550 134.160, 173 134.500 C 172.450 134.840, 172 136.822, 172 138.905 C 172 142.285, 170.805 145.912, 167.936 151.236 C 167.421 152.191, 167 153.564, 167 154.287 C 167 157.320, 164.436 160.985, 162.307 160.992 C 160.467 160.999, 160.066 161.645, 159.807 165.018 C 159.379 170.611, 157.803 170.406, 155.830 164.500 C 153.486 157.482, 153.560 156.878, 156.714 157.212 C 159.997 157.560, 161.014 154.778, 158.585 152.094 C 157.711 151.128, 157.279 150.054, 157.626 149.707 C 159.044 148.289, 153.400 129.528, 150.316 125.406 C 148.538 123.030, 148 121.008, 148 116.703 C 148 111.032, 147.657 109.818, 143.308 100.111 C 141.957 97.095, 141.027 93.352, 141.197 91.611 C 141.497 88.528, 141.578 88.486, 150.109 87 C 154.844 86.175, 159.435 84.900, 160.311 84.167 C 162.276 82.524, 165.463 83.407, 169.376 86.678 C 172.790 89.533, 174.062 89.313, 175.282 85.655 C 175.943 83.670, 175.776 82.306, 174.660 80.604 C 173.390 78.666, 171.935 78.154, 166.067 77.575 C 162.182 77.192, 154.758 77.191, 149.570 77.572 L 140.137 78.264 138.448 74.382 C 136.611 70.161, 135.273 64.906, 134.335 58.227 C 134.005 55.877, 133.344 53.713, 132.867 53.418 C 132.390 53.123, 132 51.599, 132 50.030 C 132 48.073, 131.035 46.365, 128.923 44.589 C 125.450 41.667, 123.208 41.293, 122.363 43.496 M 149 140.014 C 149 141.121, 149.418 142.809, 149.929 143.764 C 150.440 144.719, 151.677 147.636, 152.679 150.246 C 153.680 152.857, 154.886 154.994, 155.357 154.996 C 155.828 154.998, 156.008 154.438, 155.757 153.750 C 155.378 152.714, 154.125 148.517, 151.427 139.250 C 150.840 137.236, 149 137.815, 149 140.014 M 90.413 151.492 C 88.279 154.750, 89.086 156.567, 93.017 157.353 C 97.058 158.162, 98 157.554, 98 154.141 C 98 148.830, 93.245 147.170, 90.413 151.492 M 71.789 161.919 C 69.257 163.524, 66.895 165.755, 66.540 166.875 C 65.290 170.813, 68.635 185, 70.814 185 C 71.571 185, 73.498 184.069, 75.096 182.932 C 78.435 180.554, 79.110 177.513, 76.085 178.473 C 74.774 178.889, 73.670 178.367, 72.585 176.818 C 70.156 173.350, 70.646 171.209, 75 166.263 C 81.510 158.867, 79.943 156.748, 71.789 161.919 M 90.399 170.547 C 90.047 171.947, 90.028 173.361, 90.356 173.689 C 91.341 174.674, 94 171.893, 94 169.878 C 94 167.077, 91.136 167.609, 90.399 170.547 M 180.166 228.060 C 180.350 229.316, 181.100 230.541, 181.834 230.783 C 182.741 231.082, 183.061 230.491, 182.834 228.940 C 182.650 227.684, 181.900 226.459, 181.166 226.217 C 180.259 225.918, 179.939 226.509, 180.166 228.060 M 182.674 235.406 C 182.127 236.832, 185.576 240.758, 186.534 239.799 C 187.297 239.036, 185.211 234, 184.132 234 C 183.627 234, 182.971 234.633, 182.674 235.406" stroke="none" fill="black" fill-rule="evenodd"/>
</svg>