<svg xmlns="http://www.w3.org/2000/svg" width="300" height="300" viewBox="0 0 300 300" version="1.1">
	<path d="M 152.500 47.716 C 151.400 47.982, 149.570 49.055, 148.434 50.101 C 147.298 51.147, 142.573 53.325, 137.934 54.942 C 125.217 59.375, 121.773 60.695, 118.642 62.331 C 117.070 63.153, 111.895 64.345, 107.142 64.981 C 88.814 67.433, 89.533 67.219, 89.177 70.319 C 88.686 74.595, 91.398 78, 95.295 78 C 100.431 78, 121.884 72.182, 128.687 68.945 C 132.090 67.325, 135.552 66, 136.382 66 C 137.211 66, 141.345 64.425, 145.569 62.500 C 149.794 60.575, 153.891 59, 154.675 59 C 155.458 59, 157.427 58.313, 159.050 57.474 C 161.405 56.256, 162 55.289, 162 52.674 C 162 47.515, 159.255 46.082, 152.500 47.716 M 121.026 75.468 C 120.207 76.456, 119.728 82.106, 119.565 92.718 C 119.086 123.859, 114.771 149.184, 108.847 155.620 C 105.692 159.048, 108.443 165.919, 112.368 164.412 C 114.231 163.697, 123 150.061, 123 147.878 C 123 145.189, 126.640 136.055, 128.579 133.879 C 129.636 132.694, 131.932 131.118, 133.682 130.377 C 135.432 129.636, 137.169 128.536, 137.542 127.932 C 137.915 127.329, 140.272 125.955, 142.779 124.881 C 146.396 123.330, 147.506 123.192, 148.158 124.213 C 148.609 124.921, 148.646 126.175, 148.239 127 C 147.833 127.825, 147.694 134.575, 147.932 142 C 148.788 168.779, 148.034 200.518, 146.481 203.031 C 145.578 204.492, 138.689 204.149, 127 202.063 C 121.225 201.032, 113.125 199.653, 109 198.999 C 104.875 198.344, 97.344 196.727, 92.264 195.404 C 87.184 194.082, 81.929 193, 80.585 193 C 78.252 193, 75 190.720, 75 189.084 C 75 188.658, 75.867 187.525, 76.927 186.566 C 79.836 183.934, 80.546 177.678, 78.444 173.210 C 73.861 163.467, 56.272 142.002, 52.872 142.001 C 50.387 142, 48.687 144.675, 49.382 147.494 C 49.722 148.872, 50.285 151.238, 50.634 152.750 C 50.988 154.284, 54.185 158.330, 57.865 161.901 C 64.525 168.364, 66.970 172.821, 66.970 178.500 C 66.969 182.132, 66.485 182.880, 62 186.183 C 58.875 188.485, 57.589 188.757, 49.990 188.730 C 36.352 188.682, 31.649 192.415, 37.856 198.362 L 40.713 201.099 58.106 201.066 C 74.536 201.035, 80.824 201.684, 89 204.254 C 93.081 205.536, 96.994 206.334, 110 208.535 C 115.225 209.419, 120.850 210.619, 122.500 211.201 C 124.150 211.783, 129.855 212.764, 135.179 213.380 C 140.502 213.996, 145.095 214.743, 145.386 215.041 C 145.677 215.338, 145.205 219.838, 144.336 225.041 C 143.468 230.243, 142.545 236.750, 142.286 239.500 C 142.028 242.250, 141.407 244.927, 140.908 245.450 C 138.286 248.193, 141.665 255.333, 145.336 254.807 C 149.296 254.240, 151.813 247.388, 152.319 235.799 C 152.804 224.706, 153.669 219.231, 155.248 217.250 C 155.796 216.562, 158.018 216, 160.186 216 C 164.313 216, 181.933 218.361, 190.500 220.061 C 193.250 220.607, 200.225 221.234, 206 221.454 C 223.383 222.116, 257.913 225.017, 260.609 226.041 C 261.995 226.569, 264.864 227, 266.984 227 C 270.322 227, 271.131 226.524, 273.041 223.433 L 275.246 219.866 272.485 216.984 C 268.725 213.060, 255.628 208.234, 253.510 209.992 C 252.679 210.681, 252 211.838, 252 212.563 C 252 213.289, 251.619 214.117, 251.154 214.405 C 249.364 215.511, 185.022 210.275, 172 207.963 C 168.975 207.426, 164.250 206.877, 161.500 206.743 L 156.500 206.500 156.587 200.500 C 156.654 195.844, 157.639 170.754, 158.137 161 C 158.179 160.175, 157.898 155.450, 157.511 150.500 C 157.125 145.550, 156.859 136.100, 156.921 129.500 C 157.030 117.976, 157.135 117.411, 159.573 115.250 C 160.969 114.013, 162.666 113, 163.343 113 C 164.021 113, 166.757 110.785, 169.424 108.077 C 174.637 102.785, 174.892 100.819, 170.618 98.872 C 168.543 97.926, 167.668 98.151, 164.746 100.380 C 162.857 101.821, 160.853 103, 160.293 103 C 159.733 103, 157.631 104.306, 155.622 105.903 C 153.613 107.499, 148.939 110.262, 145.235 112.042 C 141.531 113.821, 136.619 116.565, 134.320 118.139 C 127.497 122.809, 127.494 122.805, 129.051 111 C 129.595 106.875, 130.064 97.938, 130.092 91.141 C 130.139 79.669, 129.982 78.609, 127.897 76.391 C 125.339 73.668, 122.803 73.327, 121.026 75.468 M 70.200 106.200 C 68.605 107.795, 68.682 111.479, 70.393 115.349 C 71.159 117.082, 72.045 119.287, 72.362 120.250 C 73.651 124.169, 79.139 121.226, 80.289 116 C 80.591 114.625, 81.141 112.529, 81.512 111.342 C 82.934 106.784, 73.778 102.622, 70.200 106.200" stroke="none" fill="black" fill-rule="evenodd"/>
</svg>