<svg xmlns="http://www.w3.org/2000/svg" width="300" height="300" viewBox="0 0 300 300" version="1.1">
	<path d="M 125.655 17.829 C 124.416 19.198, 124 21.597, 124 27.369 C 124 33.734, 123.618 35.598, 121.812 38.040 C 118.919 41.953, 116.642 41.775, 113.955 37.427 C 111.086 32.784, 107.586 31.386, 104.271 33.558 C 102.472 34.737, 101.967 35.752, 102.392 37.335 C 102.711 38.526, 102.979 40.307, 102.986 41.293 C 102.994 42.279, 104.962 45.204, 107.360 47.793 C 112.580 53.428, 113.990 55.940, 114.032 59.684 C 114.049 61.233, 114.724 63.374, 115.532 64.441 C 116.339 65.509, 117 67.464, 117 68.787 C 117 72.054, 120.541 76.795, 123.270 77.183 C 125.674 77.525, 126.742 80.854, 125.400 83.823 C 124.983 84.745, 124.160 87.257, 123.571 89.404 C 122.982 91.551, 121.825 93.660, 121 94.091 C 119.453 94.898, 106.239 100.556, 102.250 102.118 C 99.569 103.169, 96.736 104.339, 92 106.353 C 90.075 107.171, 87.414 108.155, 86.086 108.540 C 82.916 109.458, 74.353 115.637, 73.626 117.532 C 72.976 119.227, 74.376 123.497, 75.889 124.431 C 78.011 125.743, 84.034 125.279, 85.815 123.667 C 86.822 122.756, 89.804 121.361, 92.442 120.567 C 95.081 119.773, 98.198 118.260, 99.370 117.203 C 102.590 114.300, 110.700 110.384, 118.306 108.058 C 122.049 106.914, 127.321 104.857, 130.023 103.489 C 132.724 102.120, 135.744 101, 136.735 101 C 137.725 101, 140.191 99.875, 142.215 98.500 C 144.238 97.125, 146.930 95.998, 148.197 95.996 C 149.464 95.994, 151.973 95.094, 153.774 93.996 C 155.575 92.898, 157.490 92, 158.029 92 C 158.568 92, 161.342 90.875, 164.192 89.500 C 167.042 88.125, 169.955 87, 170.664 87 C 172.683 87, 175.251 82.365, 174.515 80.048 C 173.361 76.410, 170.471 75.685, 164.698 77.584 C 161.839 78.525, 158.442 80.117, 157.149 81.121 C 155.855 82.126, 153.211 83.245, 151.272 83.609 C 149.333 83.973, 144.806 85.337, 141.212 86.640 C 137.618 87.944, 134.481 88.814, 134.241 88.575 C 134.001 88.335, 134.588 86.645, 135.545 84.819 C 136.502 82.994, 137.671 80.719, 138.143 79.764 C 138.614 78.809, 139 75.570, 139 72.566 C 139 68.662, 139.713 65.766, 141.500 62.404 C 142.946 59.685, 144 56.044, 144 53.769 C 144 50.739, 144.821 48.835, 147.574 45.475 C 150.420 42.002, 151.184 40.166, 151.324 36.470 C 151.476 32.471, 151.096 31.480, 148.589 29.323 C 145.665 26.808, 143.129 26.621, 137.332 28.491 C 135.290 29.150, 135.197 28.948, 135.726 25.006 C 136.210 21.396, 135.930 20.491, 133.687 18.411 C 130.583 15.533, 127.908 15.339, 125.655 17.829 M 122.357 52.513 C 121.759 54.070, 123.565 57, 125.122 57 C 125.605 57, 126 55.650, 126 54 C 126 50.774, 123.427 49.724, 122.357 52.513 M 30.743 104.590 C 30.334 104.999, 30 107.268, 30 109.633 C 30 113.312, 30.650 114.665, 34.500 119 C 38.354 123.340, 39 124.686, 39 128.378 C 39 131.488, 39.585 133.220, 41.099 134.590 C 43.176 136.469, 43.223 136.458, 45.594 133.495 C 46.912 131.848, 47.992 129.683, 47.995 128.684 C 47.998 127.686, 48.451 126.025, 49.003 124.995 C 49.673 123.743, 49.673 122.916, 49.003 122.502 C 48.451 122.161, 48 121.189, 48 120.341 C 48 118.155, 41.973 108.658, 39.311 106.650 C 36.714 104.691, 31.819 103.514, 30.743 104.590 M 132.865 118.569 C 130.879 119.982, 128.410 122.911, 127.377 125.078 C 125.233 129.578, 122.666 129.917, 122.186 125.763 C 121.832 122.699, 117.598 118.833, 115.484 119.644 C 113.291 120.486, 112.636 128.415, 113.960 138.101 C 115.316 148.030, 114.604 197.848, 113.017 204 C 112.520 205.925, 111.798 212.391, 111.413 218.369 L 110.711 229.239 89.606 228.552 C 77.997 228.175, 66.475 227.412, 64 226.858 C 61.525 226.304, 55.900 225.852, 51.500 225.855 C 47.100 225.857, 42.712 225.635, 41.750 225.362 C 39.914 224.841, 39.342 221.525, 40.920 220.550 C 42.584 219.521, 46.204 206.186, 45.271 204.520 C 44.792 203.664, 42.847 202.134, 40.950 201.120 C 36.591 198.791, 35.872 194.131, 38.944 188.110 C 40.075 185.893, 41 183.607, 41 183.029 C 41 182.451, 41.859 180.071, 42.908 177.739 C 43.958 175.408, 45.096 171.152, 45.438 168.282 C 45.962 163.887, 45.701 162.516, 43.780 159.585 C 41.709 156.424, 40.951 156.049, 35.500 155.478 C 32.200 155.132, 27.025 154.996, 24 155.175 C 18.676 155.490, 18.490 155.598, 18.200 158.567 C 17.825 162.409, 20.760 163.993, 28.297 164.015 C 33.910 164.032, 35.309 164.585, 36.257 167.160 C 37.201 169.725, 34.949 176.174, 31.946 179.500 C 30.457 181.150, 28.933 184.300, 28.559 186.500 C 28.185 188.700, 27.366 191.962, 26.739 193.749 C 25.869 196.228, 25.883 197.283, 26.799 198.199 C 27.460 198.860, 28 200.419, 28 201.665 C 28 202.911, 29.354 205.472, 31.008 207.356 C 34.223 211.018, 34.193 211.628, 30.499 217.664 C 27.642 222.332, 24.471 223.715, 14.802 224.512 C 8.251 225.051, 5.691 225.684, 4.433 227.074 C 2.420 229.298, 3.207 233.769, 5.780 234.725 C 6.726 235.077, 8.625 236.171, 10 237.157 C 12.381 238.864, 13.591 238.876, 35.500 237.406 C 52.640 236.256, 60.411 236.124, 66 236.888 C 70.125 237.452, 74.850 237.894, 76.500 237.870 C 78.150 237.846, 89.847 238.499, 102.492 239.322 C 115.138 240.145, 125.858 240.588, 126.314 240.306 C 126.770 240.024, 132.624 240.497, 139.322 241.357 C 146.020 242.217, 157.350 243.424, 164.500 244.039 C 185.551 245.851, 206.097 247.974, 212 248.947 C 215.025 249.446, 221.540 249.887, 226.477 249.927 C 231.415 249.967, 238.964 250.754, 243.253 251.676 C 250.876 253.314, 251.113 253.306, 253.776 251.326 C 257.413 248.620, 257.641 245.951, 254.490 242.991 C 252.024 240.674, 251.226 240.547, 238.199 240.390 C 224.387 240.225, 203.998 238.729, 192 237.001 C 185.795 236.108, 177.994 235.290, 153.500 232.964 C 136.843 231.382, 135.050 231.034, 135.639 229.500 C 136.816 226.431, 149.774 222.558, 157 223.115 C 158.375 223.221, 164 223.351, 169.500 223.404 L 179.500 223.500 179.809 220.312 C 180.329 214.940, 177.678 214.024, 159.945 213.451 C 151.518 213.178, 144.509 212.842, 144.371 212.704 C 144.095 212.428, 147.767 206.919, 152.771 200.100 C 154.547 197.680, 156 194.727, 156 193.538 C 156 192.349, 156.936 189.439, 158.079 187.072 C 160.381 182.308, 160.122 179.696, 156.949 175.662 C 155.179 173.412, 154.079 173, 149.845 173 C 144.626 173, 132.898 177.400, 128.079 181.165 C 126.677 182.260, 125.285 182.685, 124.774 182.174 C 124.288 181.688, 124.200 177.870, 124.579 173.689 C 125.252 166.263, 125.356 166.030, 129.112 163.544 C 131.227 162.145, 133.239 161, 133.584 161 C 133.929 161, 135.548 159.875, 137.182 158.500 C 138.816 157.125, 140.940 156, 141.902 156 C 143.527 156, 146.781 153.130, 148.397 150.271 C 148.779 149.596, 148.212 147.796, 147.137 146.271 C 145.323 143.698, 145.271 142.964, 146.422 136 C 147.601 128.864, 147.549 128.273, 145.349 123.820 C 143.150 119.369, 139.776 116, 137.516 116 C 136.944 116, 134.851 117.156, 132.865 118.569 M 132.018 133.452 C 131.505 134.801, 129.717 136.612, 128.043 137.478 C 125.094 139.003, 125 139.266, 125 146.026 C 125 152.322, 125.193 153, 126.990 153 C 129.397 153, 135.939 144.491, 135.975 141.315 C 135.989 140.113, 136.433 137.991, 136.962 136.599 C 137.690 134.684, 137.551 133.694, 136.391 132.534 C 134.236 130.379, 133.096 130.618, 132.018 133.452 M 139.676 186.411 C 136.967 187.610, 130.862 192.469, 124.844 198.216 C 122.176 200.764, 122 201.435, 122 209.032 C 122 213.487, 121.602 217.889, 121.116 218.816 C 120.630 219.742, 119.915 222.412, 119.528 224.750 C 118.888 228.618, 119.012 229, 120.912 229 C 122.421 229, 123 228.365, 123 226.711 C 123 225.293, 125.444 221.744, 129.417 217.390 C 133.076 213.382, 138.039 206.305, 140.962 200.929 C 143.782 195.743, 146.590 190.774, 147.204 189.886 C 149.998 185.840, 145.580 183.800, 139.676 186.411" stroke="none" fill="black" fill-rule="evenodd"/>
</svg>