<svg xmlns="http://www.w3.org/2000/svg" width="300" height="300" viewBox="0 0 300 300" version="1.1">
	<path d="M 139.178 45.970 C 136.087 47.583, 132.807 50.291, 131.353 52.432 C 128.406 56.768, 126.127 56.768, 124.589 52.431 C 122.707 47.126, 119.550 44, 116.075 44 C 112.734 44, 112.467 44.379, 111.639 50.307 C 111.174 53.636, 111.555 54.609, 114.678 58.065 C 116.641 60.238, 119.529 64.726, 121.095 68.037 C 122.661 71.349, 125.080 75.550, 126.471 77.373 C 129.340 81.135, 129.692 83.521, 127.500 84.362 C 124.404 85.549, 126.912 95.036, 130.307 94.980 C 131.935 94.953, 144.114 84.925, 145.159 82.750 C 145.622 81.787, 146.387 80.212, 146.860 79.250 C 147.358 78.237, 147.305 76.308, 146.734 74.669 C 146.058 72.729, 146.096 71.157, 146.854 69.669 C 149.082 65.298, 153 53.185, 153 50.668 C 153 48.320, 149.691 44, 147.893 44 C 147.492 44, 146.564 43.819, 145.832 43.597 C 145.099 43.375, 142.105 44.443, 139.178 45.970 M 134.168 61.039 C 131.005 62.967, 130.871 63.284, 131.521 67.285 C 132.761 74.918, 135.801 74.968, 138.380 67.399 C 141.312 58.793, 140.317 57.290, 134.168 61.039 M 49.747 74.082 C 48.281 74.936, 48.090 76.033, 48.581 80.801 C 48.903 83.936, 49.441 87.175, 49.775 88 C 50.110 88.825, 50.860 91.975, 51.442 95 C 52.578 100.908, 54.578 102.232, 56.510 98.357 C 57.097 97.178, 58.117 95.564, 58.776 94.770 C 60.013 93.279, 59.809 83.764, 58.438 79 C 56.920 73.728, 53.590 71.844, 49.747 74.082 M 137.657 103.555 C 134.993 106.550, 132.207 109, 131.464 109 C 130.722 109, 128.605 109.891, 126.760 110.979 C 124.915 112.067, 120.952 113.309, 117.953 113.738 C 112.944 114.454, 112.474 114.746, 112.177 117.323 C 112 118.867, 112.567 121.216, 113.437 122.544 C 114.857 124.711, 115.506 124.896, 119.760 124.345 C 122.367 124.007, 125.290 123.044, 126.256 122.205 C 127.222 121.366, 128.347 121.014, 128.756 121.423 C 129.165 121.832, 129.500 127.140, 129.500 133.220 L 129.500 144.273 124.500 148.464 C 117.758 154.116, 112.776 157, 109.754 157 C 108.374 157, 106.656 157.709, 105.937 158.576 C 104.851 159.885, 104.902 160.605, 106.236 162.826 C 109.164 167.698, 112.167 167.886, 120.291 163.707 C 124.256 161.667, 127.838 159.999, 128.250 159.999 C 129.397 160, 129.027 173.634, 127.667 181.500 L 126.457 188.500 117.483 189.683 C 109.438 190.743, 108.224 191.185, 105.755 193.949 C 102.342 197.767, 102.342 198.250, 105.750 201.973 C 108.235 204.688, 109.274 205.039, 116.535 205.614 C 123.943 206.202, 124.982 206.043, 129.860 203.571 C 134.997 200.968, 135.592 200.898, 150.325 201.156 C 180.839 201.690, 188.717 201.480, 190.396 200.086 C 192.606 198.252, 192.408 193.679, 190.026 191.523 C 188.344 190.002, 187.620 189.915, 185.152 190.937 C 181.795 192.327, 168.877 191.995, 150 190.032 C 137.071 188.688, 134.962 188.016, 136.687 185.792 C 137.238 185.082, 137.816 180.675, 137.971 176 C 138.652 155.418, 139.704 149.022, 142.985 145.500 C 144.522 143.850, 146.084 141.488, 146.457 140.250 C 146.830 139.012, 147.583 138, 148.131 138 C 149.759 138, 148.643 131.791, 146.809 130.643 C 145.529 129.842, 144.658 130, 143.230 131.292 C 139.788 134.407, 138.663 133.496, 139.474 128.250 C 139.878 125.638, 140.196 121.925, 140.181 120 C 140.158 116.952, 140.856 115.935, 145.589 112.128 C 152.097 106.892, 153.208 103.915, 149.948 100.445 C 146.277 96.537, 143.209 97.313, 137.657 103.555 M 30.087 126.838 C 28.292 130.192, 30.752 136, 33.967 136 C 34.915 136, 36.371 136.787, 37.204 137.750 C 39.922 140.891, 39.984 143.925, 37.428 148.731 C 36.093 151.243, 35 154.104, 35 155.090 C 35 156.076, 34.550 157.160, 34 157.500 C 33.450 157.840, 33 160.506, 33 163.426 C 33 171.699, 37.822 181.977, 45.904 190.930 C 49.597 195.021, 49.706 196.021, 46.750 198.662 C 40.921 203.870, 33.569 207.247, 26.034 208.179 C 14.068 209.657, 11.384 212.738, 16.631 218.973 L 19.261 222.099 36.381 221.493 C 52.830 220.911, 65.820 221.739, 74.500 223.923 C 81.899 225.784, 93.365 227.807, 117.500 231.507 C 130.700 233.531, 142.818 235.893, 144.429 236.756 C 146.041 237.619, 149.416 238.405, 151.929 238.503 C 154.443 238.600, 157.175 238.951, 158 239.281 C 158.825 239.612, 161.525 240.098, 164 240.362 C 166.475 240.625, 172.100 241.536, 176.500 242.386 C 192.598 245.493, 201.463 246.251, 214.850 245.664 C 222.192 245.342, 228.717 244.668, 229.350 244.166 C 229.982 243.663, 232.525 242.943, 235 242.565 C 240.903 241.662, 245.844 239.148, 248.335 235.779 C 250.021 233.499, 250.161 232.648, 249.195 230.529 C 247.737 227.329, 245.295 227.310, 239.232 230.451 C 235.893 232.180, 230.979 233.357, 222.542 234.451 C 208.483 236.272, 204.355 236.348, 193.552 234.982 C 160.659 230.824, 156.461 230.186, 148.452 228.123 C 143.789 226.922, 130.103 224.334, 118.500 222.458 C 111.460 221.319, 95.587 218.520, 82 216.020 C 79.525 215.565, 74.800 214.505, 71.500 213.665 C 68.200 212.825, 63.250 211.844, 60.500 211.485 C 53.487 210.569, 52 210.055, 52 208.548 C 52 207.823, 53.095 206.513, 54.433 205.636 C 55.772 204.759, 58.026 202.522, 59.442 200.664 C 61.897 197.446, 61.948 197.128, 60.528 193.894 C 59.708 192.027, 56.282 187.800, 52.916 184.500 C 49.385 181.039, 45.780 176.305, 44.397 173.314 C 41.342 166.704, 41.167 158.622, 44 155 C 45.076 153.625, 45.966 151.353, 45.978 149.950 C 45.990 148.548, 46.391 146.973, 46.870 146.450 C 48.720 144.429, 48.821 138.316, 47.070 134.410 C 44.922 129.620, 43.830 128.727, 37.572 126.642 C 31.428 124.595, 31.285 124.599, 30.087 126.838" stroke="none" fill="black" fill-rule="evenodd"/>
</svg>