<svg xmlns="http://www.w3.org/2000/svg" width="300" height="300" viewBox="0 0 300 300" version="1.1">
	<path d="M 118.655 19.829 C 116.742 21.942, 116.430 29.067, 118.112 32.210 C 118.942 33.760, 118.907 35.251, 117.976 38.074 C 116.857 41.463, 116.087 42.091, 110.613 44.084 C 107.251 45.308, 103.350 47.365, 101.945 48.655 C 100.540 49.945, 98.839 51, 98.164 51 C 96.078 51, 95.766 53.713, 97.539 56.419 C 99.648 59.638, 102.903 59.757, 110.556 56.893 C 114.813 55.301, 116.469 55.068, 117.343 55.941 C 118.028 56.624, 118.610 61.262, 118.770 67.298 L 119.040 77.500 112.270 84.814 L 105.500 92.128 101.624 88.564 C 97.124 84.426, 96.881 84.369, 94.564 86.930 C 92.918 88.748, 92.913 89.194, 94.477 94.680 C 95.389 97.881, 96.698 100.950, 97.384 101.500 C 99.665 103.327, 102.003 109.258, 103.067 115.918 C 103.733 120.087, 104.880 123.308, 106.200 124.713 C 107.902 126.525, 108.172 127.726, 107.682 131.305 C 106.775 137.921, 109.945 139.954, 115 136 C 117.868 133.757, 120.578 133.431, 121.244 135.250 C 121.496 135.938, 121.432 139.875, 121.101 144 C 120.403 152.707, 121.139 152.097, 103.500 158.582 C 98 160.604, 93.073 162.650, 92.550 163.129 C 92.028 163.608, 89.635 164, 87.234 164 C 81.277 164, 79 165.392, 79 169.035 C 79 172.163, 82.003 176, 84.451 176 C 87.824 176, 96.622 173.668, 98.079 172.387 C 98.947 171.624, 100.325 171, 101.141 171 C 101.957 171, 104.396 170.153, 106.562 169.118 C 116.615 164.315, 120.142 162.969, 121.111 163.568 C 121.823 164.009, 121.931 170.969, 121.448 185.358 C 121.058 196.986, 120.685 208.525, 120.619 211 L 120.500 215.500 112 215.801 C 103.547 216.101, 89.768 214.200, 81 211.525 C 78.525 210.770, 73.481 209.859, 69.792 209.501 C 66.102 209.143, 59.577 207.989, 55.292 206.937 C 51.006 205.884, 45.813 205.018, 43.750 205.012 C 41.688 205.005, 40 204.760, 40 204.467 C 40 204.173, 41.514 202.420, 43.364 200.570 C 48.303 195.630, 48.564 192.552, 44.561 186.453 C 42.739 183.677, 41.028 179.627, 40.759 177.453 C 40.490 175.279, 39.675 172.075, 38.947 170.333 C 37.737 167.437, 37.840 166.838, 40.141 163.333 C 41.526 161.225, 43.158 157.508, 43.768 155.073 C 44.772 151.065, 44.645 150.250, 42.419 146.451 C 39.755 141.905, 34.231 139, 28.252 139 C 21.739 139, 22.004 146.350, 28.630 149.495 C 32.828 151.487, 33.817 154.822, 31.335 158.614 C 29.862 160.863, 29.514 163.306, 29.570 170.992 C 29.633 179.579, 29.938 181.116, 32.519 185.858 C 36.003 192.258, 35.346 193.984, 28.797 195.636 C 26.320 196.262, 23.344 197.281, 22.184 197.902 C 19.517 199.329, 15.293 200.092, 6.750 200.691 L 0 201.164 -0 206.954 L -0 212.743 11.750 213.357 C 18.212 213.694, 26.200 213.778, 29.500 213.543 C 33.655 213.247, 36.181 213.559, 37.715 214.558 C 38.933 215.351, 41.408 215.997, 43.215 215.994 C 46.242 215.988, 65.604 218.881, 87.500 222.610 C 92.450 223.453, 99.425 224.362, 103 224.630 C 106.575 224.898, 111.300 225.270, 113.500 225.457 C 115.700 225.644, 118.075 225.843, 118.779 225.899 C 119.714 225.973, 120.013 228.083, 119.891 233.750 C 119.512 251.471, 119.574 251.795, 123.655 253.500 C 126.936 254.871, 127.549 254.870, 129.655 253.491 C 132.358 251.719, 132.577 250.269, 130.573 247.408 C 128.766 244.828, 128.322 233.440, 129.878 229.616 L 131.052 226.733 144.776 227.475 C 159.712 228.282, 178.437 228.737, 209.500 229.045 C 224.192 229.191, 230.217 229.609, 232.200 230.622 C 238.066 233.616, 244.827 231.429, 243.691 226.906 C 242.195 220.947, 244.385 221.266, 196 219.962 C 139.475 218.440, 132.830 218.104, 131.115 216.680 C 129.968 215.729, 129.840 212.948, 130.414 201.508 C 130.800 193.803, 131.253 180.816, 131.421 172.647 L 131.726 157.794 134.613 155.433 C 136.201 154.134, 138.583 153.056, 139.906 153.036 C 141.229 153.016, 143.817 151.851, 145.658 150.447 C 147.499 149.043, 150.467 147.397, 152.253 146.788 C 154.039 146.180, 157.514 144.313, 159.975 142.638 C 162.437 140.964, 167.137 138.859, 170.421 137.960 C 175.390 136.599, 176.546 135.861, 177.315 133.555 C 178.087 131.238, 177.838 130.383, 175.789 128.335 L 173.340 125.885 166.920 128.081 C 158.818 130.853, 152.319 134.086, 143.747 139.611 C 140.033 142.005, 135.871 144.245, 134.497 144.590 C 131.680 145.297, 131.443 144.315, 131.954 134.057 C 132.283 127.469, 134.551 124.024, 140.200 121.532 L 144.265 119.738 143.681 113.486 C 143.360 110.046, 143.511 105.718, 144.018 103.866 C 145.559 98.229, 145.858 86.658, 144.590 81.666 C 142.976 75.308, 140.171 72.671, 134.785 72.448 C 132.428 72.351, 130.206 72.210, 129.847 72.136 C 128.457 71.847, 127.431 54.610, 128.578 50.829 C 129.192 48.803, 136.449 44.851, 138.271 45.551 C 139.682 46.092, 144.315 41.613, 145.331 38.727 C 146.134 36.444, 142.761 33, 139.723 33 C 138.470 33, 136.424 33.715, 135.176 34.589 C 131.828 36.935, 130.218 35.718, 129.513 30.308 C 128.196 20.196, 122.925 15.110, 118.655 19.829 M 130.667 85.667 C 130.300 86.033, 130 88.283, 130 90.667 C 130 94.815, 130.128 95, 133 95 C 135.807 95, 136 94.756, 136 91.200 C 136 86.357, 133.044 83.290, 130.667 85.667 M 114.664 95.210 C 109.808 97.837, 109.289 99.265, 111.619 103.592 C 115.066 109.991, 121.221 105.483, 120.277 97.250 C 120.009 94.912, 119.500 93.030, 119.145 93.067 C 118.790 93.104, 116.774 94.068, 114.664 95.210 M 39.200 95.200 C 38.540 95.860, 38 97.873, 38 99.674 C 38 102.270, 38.596 103.257, 40.879 104.437 C 44.367 106.241, 45 107.717, 45 114.047 C 45 117.775, 45.438 119.164, 46.851 119.920 C 48.408 120.754, 49.172 120.192, 51.666 116.379 C 54.596 111.898, 54.615 111.778, 53.369 105.674 C 52.365 100.757, 51.444 98.940, 48.842 96.750 C 45.404 93.856, 41.217 93.183, 39.200 95.200 M 116 120.469 C 116 121.363, 116.586 121.712, 117.500 121.362 C 118.325 121.045, 119 120.384, 119 119.893 C 119 119.402, 118.325 119, 117.500 119 C 116.675 119, 116 119.661, 116 120.469" stroke="none" fill="black" fill-rule="evenodd"/>
</svg>