<svg xmlns="http://www.w3.org/2000/svg" width="300" height="300" viewBox="0 0 300 300" version="1.1">
	<path d="M 166.472 43.928 C 163.010 47.314, 150.573 54.995, 148.500 55.028 C 144.833 55.087, 131.632 62.356, 130.059 65.182 C 128.698 67.626, 128.732 68.046, 130.438 69.932 C 131.468 71.069, 133.168 72, 134.217 72 C 136.368 72, 145.096 68.048, 152.320 63.802 C 154.972 62.244, 157.530 61.209, 158.006 61.504 C 158.856 62.029, 157.181 66.605, 152.519 76.500 C 151.037 79.644, 149.915 84.376, 149.496 89.250 C 149.129 93.513, 148.664 97, 148.462 97 C 148.260 97, 146.950 96.479, 145.551 95.841 C 143.422 94.871, 142.672 94.987, 140.943 96.552 C 139.554 97.808, 139.083 99.090, 139.506 100.461 C 141.706 107.595, 142.701 112.194, 144.906 125.444 C 145.404 128.437, 146.071 131.306, 146.387 131.818 C 147.742 134.010, 149.895 161.393, 149.506 171.500 C 149.274 177.550, 148.651 199.825, 148.123 221 C 147.188 258.429, 145.741 279.744, 143.901 283.184 C 143.405 284.111, 143 288.273, 143 292.434 L 143 300 147.500 300 C 149.975 300, 152.025 299.663, 152.055 299.250 C 152.085 298.837, 152.513 292.200, 153.007 284.500 C 153.501 276.800, 154.414 263.750, 155.037 255.500 C 155.659 247.250, 156.372 232.625, 156.620 223 C 156.869 213.375, 157.241 203.475, 157.449 201 C 158.433 189.250, 157.901 149.821, 156.639 141 C 155.892 135.775, 155.487 130.946, 155.740 130.270 C 155.992 129.593, 155.409 126.529, 154.444 123.461 C 152.831 118.334, 152.819 117.752, 154.298 116.273 C 155.777 114.794, 156.219 114.880, 159.758 117.332 C 161.875 118.799, 164.281 120, 165.104 120 C 165.927 120, 167.096 120.496, 167.701 121.101 C 171.231 124.631, 183.160 115.506, 184.338 108.375 C 185.675 100.279, 185.131 95.264, 182.596 92.316 C 180.240 89.577, 179.974 89.521, 169.346 89.511 L 158.500 89.500 158.836 86 C 159.660 77.419, 163.263 70.050, 173.261 56.500 C 177.654 50.547, 178.192 45.949, 174.777 43.557 C 171.790 41.465, 168.858 41.596, 166.472 43.928 M 81.474 49.348 C 74.692 56.411, 70.516 59.206, 55.851 66.493 C 37.442 75.642, 37.072 75.935, 39.423 79.523 C 41.023 81.964, 41.523 82.116, 45.970 81.504 C 48.618 81.140, 51.005 81.215, 51.275 81.671 C 51.545 82.127, 51.373 85.200, 50.893 88.500 C 50.193 93.317, 48.696 131.348, 48.788 142 C 48.800 143.375, 48.333 149.225, 47.751 155 C 47.169 160.775, 46.604 168.807, 46.495 172.850 C 46.320 179.343, 46.582 180.538, 48.737 183.100 C 50.080 184.695, 51.898 186, 52.779 186 C 54.764 186, 64.474 175.738, 66.972 171 C 67.987 169.075, 70.208 166.178, 71.908 164.563 C 73.609 162.948, 75 161.125, 75 160.513 C 75 159.901, 75.508 158.892, 76.130 158.270 C 76.751 157.649, 78.087 154.746, 79.097 151.820 C 81.947 143.569, 81.431 140.130, 77.565 141.613 C 76.677 141.954, 73.149 146.235, 69.725 151.125 C 66.301 156.016, 62.233 161.814, 60.684 164.009 C 59.135 166.204, 57.223 168, 56.434 168 C 54.880 168, 54.440 164.464, 55.883 163.572 C 56.369 163.272, 56.832 156.407, 56.913 148.316 C 56.995 140.225, 57.296 133.371, 57.583 133.084 C 57.870 132.796, 59.590 132.510, 61.404 132.447 C 64.101 132.353, 66.123 130.934, 72.494 124.666 C 76.779 120.450, 81.090 117, 82.073 117 C 83.409 117, 84.420 118.774, 86.080 124.034 C 87.301 127.902, 88.682 131.304, 89.150 131.593 C 89.617 131.882, 90 133.190, 90 134.500 C 90 135.810, 90.393 137.125, 90.873 137.422 C 92.257 138.277, 103 161.244, 103 163.347 C 103 164.012, 103.608 165.443, 104.351 166.527 C 105.094 167.612, 105.982 169.658, 106.325 171.073 C 106.669 172.488, 108.018 175.221, 109.324 177.146 C 110.631 179.071, 112.495 182.728, 113.467 185.274 C 114.439 187.819, 116.082 190.669, 117.117 191.606 C 118.153 192.543, 119 193.885, 119 194.587 C 119 196.672, 124.560 200, 128.044 200 C 131.613 200, 133.918 197.786, 133.968 194.309 C 133.986 193.104, 134.450 191.840, 135 191.500 C 136.664 190.472, 136.124 183.456, 134 178.500 C 132.900 175.934, 132 172.521, 132 170.917 C 132 169.313, 131.580 168, 131.067 168 C 130.554 168, 129.828 166.987, 129.452 165.750 C 128.503 162.619, 124.995 159, 122.909 159 C 120.878 159, 120.008 160.857, 121.035 163 C 123.485 168.110, 125.381 181.206, 123.750 181.750 C 122.103 182.299, 121 181.942, 121 180.861 C 121 180.234, 119.743 177.646, 118.207 175.111 C 116.671 172.575, 114.781 168.475, 114.008 166 C 113.234 163.525, 111.566 159.821, 110.300 157.770 C 109.035 155.718, 108 153.300, 108 152.397 C 108 151.493, 106.670 148.222, 105.045 145.127 C 99.832 135.201, 97.359 129.584, 96.665 126.095 C 96.293 124.223, 95.442 122.033, 94.775 121.229 C 93.348 119.509, 91.020 113.595, 90.313 109.891 C 89.951 107.995, 90.602 106.354, 92.697 103.891 C 96.108 99.878, 98 95.819, 98 92.512 C 98 87.634, 93.439 88.119, 90.910 93.265 C 89.322 96.495, 86.529 97.939, 84.955 96.344 C 84.496 95.880, 84.007 91, 83.867 85.500 C 83.600 75.047, 82.265 71, 79.085 71 C 78.158 71, 76.860 71.540, 76.200 72.200 C 74.741 73.659, 74.702 85.439, 76.132 92.500 C 78.761 105.477, 78.904 104.879, 71.336 112.695 C 64.182 120.083, 59.391 123.724, 58.282 122.615 C 57.921 122.254, 57.746 113.017, 57.894 102.089 C 58.075 88.655, 57.812 82.002, 57.081 81.550 C 54.771 80.123, 56.198 77.844, 60.576 75.967 C 63.093 74.888, 67.527 72.429, 70.430 70.503 C 73.332 68.576, 76.177 67, 76.751 67 C 77.326 67, 80.799 64.168, 84.471 60.708 C 90.773 54.766, 91.127 54.195, 90.823 50.458 C 90.528 46.839, 90.243 46.487, 87.500 46.348 C 85.321 46.238, 83.672 47.058, 81.474 49.348 M 152 99.797 C 152 102.174, 158.425 108.250, 163.764 110.922 C 167.052 112.567, 168.478 112.815, 169.991 112.005 C 172.664 110.574, 174 107.800, 174 103.682 C 174 99.474, 172.370 98.854, 163.483 99.684 C 159.365 100.068, 157.046 99.883, 156.581 99.132 C 155.439 97.284, 152 97.783, 152 99.797 M 87.149 173.791 C 84.414 177.632, 75.198 184.671, 71.791 185.521 C 67.306 186.639, 66.540 188.395, 68.653 192.719 C 69.669 194.799, 71.315 196.651, 72.311 196.835 C 75.357 197.399, 80.465 194.311, 87.575 187.609 C 94.103 181.455, 94.364 181.027, 94.431 176.356 C 94.495 171.830, 94.321 171.479, 91.858 171.194 C 89.885 170.966, 88.692 171.623, 87.149 173.791" stroke="none" fill="black" fill-rule="evenodd"/>
</svg>