<svg xmlns="http://www.w3.org/2000/svg" width="300" height="300" viewBox="0 0 300 300" version="1.1">
	<path d="M 146.132 30.500 C 141.568 34.623, 137.328 35.081, 132.903 31.931 C 131.304 30.793, 128.985 30.005, 127.748 30.181 C 125.880 30.446, 125.448 31.218, 125.193 34.745 C 124.936 38.291, 125.331 39.402, 127.589 41.495 C 129.076 42.873, 131.296 44, 132.524 44 C 133.751 44, 135.286 44.640, 135.935 45.422 C 137.348 47.124, 136.345 49.217, 130.809 56.117 C 125.439 62.811, 125.063 65.323, 128.897 68.904 C 131.715 71.536, 132.069 72.554, 132.642 79.656 C 132.989 83.970, 133.606 87.950, 134.012 88.500 C 135.184 90.087, 135.153 115.846, 133.976 118.044 C 133.400 119.122, 131.482 120.690, 129.714 121.529 C 127.946 122.368, 123.800 124.581, 120.500 126.446 C 117.200 128.311, 113.938 129.874, 113.250 129.919 C 111.745 130.017, 111.628 127.711, 113 124.986 C 113.550 123.894, 114.419 122.155, 114.932 121.123 C 115.444 120.091, 116.159 117.503, 116.521 115.373 C 116.882 113.243, 117.867 109.607, 118.709 107.293 C 121.338 100.063, 118.884 93.447, 113.842 94.173 C 112.172 94.414, 111.393 95.391, 110.887 97.879 C 110.509 99.738, 109.715 102.213, 109.123 103.379 C 107.287 106.998, 103.968 120.127, 102.821 128.313 L 101.725 136.125 105.113 139.059 C 108.181 141.716, 108.966 141.934, 113.452 141.374 C 116.937 140.940, 118.937 140.078, 120.206 138.466 C 122.006 136.177, 129.536 132, 131.861 132 C 133.292 132, 132.577 137.334, 128.943 153.764 C 128.424 156.110, 128 159.324, 128 160.907 C 128 164.319, 125.255 178.642, 124.053 181.500 C 123.590 182.600, 122.430 185.750, 121.474 188.500 C 119.242 194.925, 118.946 195.201, 115.437 194.129 C 113.822 193.635, 109.350 192.686, 105.500 192.019 C 101.650 191.352, 95.575 189.992, 92 188.997 C 88.425 188.001, 83.250 186.910, 80.500 186.571 C 73.837 185.751, 61.811 182.850, 60.250 181.687 C 58.046 180.044, 59.464 154.555, 61.925 151.591 C 62.492 150.907, 62.561 147.056, 62.097 141.961 C 60.977 129.680, 56.041 122.352, 48.176 121.297 C 44.848 120.850, 44.014 121.106, 43.076 122.859 C 41.533 125.741, 43.955 131.370, 47.503 133.151 C 52.669 135.744, 53.523 138.676, 52.019 148.658 C 51.286 153.521, 50.288 158.019, 49.802 158.653 C 49.315 159.287, 48.642 163.695, 48.306 168.449 C 47.850 174.923, 47.295 177.298, 46.098 177.911 C 45.219 178.361, 38.918 179.032, 32.095 179.401 C 25.272 179.771, 19.309 180.309, 18.845 180.596 C 17.224 181.598, 17.965 187.658, 19.926 189.433 C 22.390 191.663, 31.832 192.798, 52.634 193.365 C 61.508 193.608, 69.608 194.248, 70.634 194.788 C 71.660 195.329, 75.200 196.344, 78.500 197.044 C 81.800 197.744, 84.928 198.695, 85.450 199.158 C 85.973 199.621, 88.158 200, 90.307 200 C 92.455 200, 98.235 200.736, 103.150 201.635 C 111.707 203.200, 112.144 203.409, 113.452 206.539 C 115.274 210.900, 118.142 211.693, 122.455 209.028 C 125.606 207.080, 126.505 206.990, 133.690 207.904 C 143.596 209.164, 148.529 210.174, 158.500 212.981 C 162.900 214.220, 167.850 215.364, 169.500 215.522 C 171.150 215.681, 175.200 216.748, 178.500 217.892 C 181.800 219.037, 191.025 221.145, 199 222.577 C 206.975 224.009, 215.525 225.614, 218 226.144 C 220.475 226.674, 226.267 227.546, 230.870 228.083 C 235.474 228.619, 239.974 229.450, 240.870 229.928 C 241.767 230.407, 248.009 231.126, 254.743 231.527 C 268.492 232.346, 270 231.856, 270 226.574 C 270 224.288, 269.072 222.493, 266.702 220.196 C 262.739 216.354, 259.476 216.125, 256.821 219.500 C 254.393 222.587, 253.868 222.587, 240.158 219.492 C 234.048 218.113, 228.700 217.080, 228.274 217.197 C 227.106 217.518, 208.200 214.106, 202.500 212.545 C 199.750 211.792, 193.900 210.631, 189.500 209.965 C 185.100 209.298, 178.800 207.887, 175.500 206.828 C 172.200 205.769, 166.800 204.293, 163.500 203.546 C 143.977 199.132, 138.369 198, 136.021 198 C 134.579 198, 132.860 197.460, 132.200 196.800 C 130.712 195.312, 130.618 189.354, 132.068 188.458 C 132.656 188.095, 132.913 187.216, 132.640 186.505 C 132.367 185.793, 133.054 182.351, 134.165 178.856 C 135.977 173.161, 139.163 155.851, 139.108 152 C 139.070 149.301, 142.183 131.595, 143.415 127.500 C 144.244 124.748, 145.538 123.031, 147.565 121.997 C 149.185 121.170, 151.907 119.032, 153.614 117.247 C 159.025 111.584, 161.324 112.996, 163.634 123.402 C 164.769 128.517, 167.103 130.013, 170.752 127.966 C 173.854 126.224, 174.677 123.713, 173.157 120.619 C 171.956 118.173, 170.055 110.286, 169.283 104.545 C 168.990 102.369, 167.528 98.319, 166.033 95.545 C 163.584 90.999, 162.938 90.468, 159.509 90.181 C 154.935 89.797, 154.042 90.902, 153.999 97 C 153.957 102.889, 150.387 109.390, 146.975 109.790 L 144.500 110.079 144.521 95.290 C 144.546 77.043, 143.213 72, 138.368 72 C 135.337 72, 135.419 69.293, 138.500 67.643 C 139.600 67.054, 142.374 65.318, 144.663 63.786 C 146.953 62.254, 149.750 61, 150.878 61 C 155.119 61, 156.711 51.445, 153 48.268 C 150.406 46.047, 150.467 45.547, 153.750 42.066 C 160.843 34.546, 161.791 31.368, 157.777 28.557 C 154.147 26.014, 150.407 26.638, 146.132 30.500 M 64.223 87.557 C 61.566 89.418, 61.499 90.538, 63.639 97.312 C 65.827 104.234, 67.219 105.677, 70.337 104.256 C 76.061 101.648, 74.116 86, 68.068 86 C 67.175 86, 65.445 86.701, 64.223 87.557" stroke="none" fill="black" fill-rule="evenodd"/>
</svg>