<svg xmlns="http://www.w3.org/2000/svg" width="300" height="300" viewBox="0 0 300 300" version="1.1">
	<path d="M 133.877 10.750 C 133.810 11.162, 133.625 13.975, 133.467 17 C 132.731 31.077, 130.693 34.467, 121.203 37.407 C 115.368 39.215, 107.614 42.141, 103 44.276 C 101.075 45.167, 97.925 46.283, 96 46.757 C 91.597 47.840, 90.970 50.684, 94.419 53.924 C 96.572 55.946, 97.312 56.125, 99.711 55.199 C 101.245 54.606, 104.525 53.844, 107 53.504 C 109.475 53.165, 112.400 52.485, 113.500 51.994 C 115.707 51.008, 124.787 48, 125.554 48 C 126.248 48, 124.832 53.402, 123.981 54 C 123.590 54.275, 121.770 57.200, 119.936 60.500 C 118.102 63.800, 114.793 68.750, 112.584 71.500 C 103.087 83.320, 100.855 84.720, 96.618 81.512 C 95.584 80.728, 92.268 79.575, 89.250 78.948 C 84.618 77.987, 83.526 78.046, 82.244 79.327 C 80.886 80.685, 80.931 81.197, 82.663 84.173 C 84.183 86.782, 85.640 87.759, 89.419 88.701 C 92.068 89.362, 94.514 90.180, 94.853 90.520 C 95.192 90.859, 88.614 97.911, 80.235 106.192 C 69.085 117.210, 65 121.884, 65 123.623 C 65 126.868, 67.724 126.705, 71.500 123.233 C 74.409 120.559, 78.440 117.579, 81.996 115.476 C 82.948 114.912, 86.486 111.650, 89.857 108.226 C 93.229 104.802, 96.430 102, 96.972 102 C 98.127 102, 112 88.670, 112 87.561 C 112 87.146, 114.491 83.970, 117.536 80.502 L 123.072 74.196 129.915 73.509 C 136.102 72.887, 137.127 73.055, 140.628 75.265 C 142.758 76.608, 145.625 78.027, 147 78.417 C 148.375 78.807, 150.400 79.510, 151.500 79.979 C 154.003 81.048, 164.022 82.886, 173.932 84.096 C 189.967 86.054, 191.419 86.738, 188.734 91.070 C 187.025 93.827, 189.045 94.934, 194.920 94.458 C 200.187 94.032, 203 91.421, 203 86.957 C 203 81.104, 193.517 77.267, 171.170 74.077 C 167.689 73.581, 164.598 72.931, 164.300 72.634 C 163.323 71.657, 164.895 67.547, 167.219 65 C 168.473 63.625, 170.362 59.908, 171.416 56.741 L 173.331 50.981 170.947 48.444 C 169.217 46.602, 167.732 45.987, 165.531 46.203 C 162.955 46.455, 162.467 46.950, 162.282 49.500 C 161.953 54.014, 160.977 58.144, 159.409 61.651 C 158.634 63.384, 158 65.467, 158 66.279 C 158 68.880, 155.272 70.287, 151.759 69.497 C 147.840 68.616, 139.430 68.632, 132.250 69.534 C 125.657 70.362, 125.575 69.624, 131.310 60.989 C 133.681 57.420, 136.248 52.925, 137.015 51 C 140.733 41.667, 144.874 38.157, 154.789 35.935 C 160.590 34.635, 164 31.621, 164 27.793 C 164 25.744, 163.363 24.699, 161.750 24.099 C 159.079 23.106, 157.792 23.429, 148.681 27.378 C 146.581 28.288, 144.498 28.808, 144.053 28.533 C 143.607 28.257, 143.054 25.430, 142.824 22.250 C 142.531 18.196, 141.692 15.502, 140.015 13.234 C 137.862 10.322, 134.191 8.836, 133.877 10.750 M 138 94.366 C 134.975 95.540, 131.813 96.950, 130.973 97.500 C 129.288 98.604, 123.520 105.841, 122.895 107.636 C 122.678 108.260, 120.310 110.435, 117.633 112.468 L 112.766 116.165 109.633 113.203 C 107.910 111.573, 105.517 109.736, 104.316 109.120 C 101.201 107.523, 96.320 107.723, 95.648 109.475 C 94.823 111.625, 97.537 117.458, 100.202 119.264 C 106.993 123.863, 108.855 126.596, 109.583 133.032 C 110.396 140.218, 112.466 143, 117 143 C 118.650 143, 120 143.372, 120 143.826 C 120 145.340, 115.298 149.093, 112.446 149.856 C 108.631 150.876, 107.185 155.108, 109.464 158.586 C 112.097 162.603, 113.788 162.613, 117.863 158.634 C 119.910 156.635, 122.506 155, 123.632 155 C 125.391 155, 125.857 156.022, 126.941 162.250 C 127.636 166.238, 128.588 170.625, 129.057 172 C 129.527 173.375, 130.203 179, 130.559 184.500 C 131.325 196.317, 128.996 211.789, 126.049 214.455 C 123.306 216.938, 119.733 214.943, 115.500 208.566 C 112.238 203.652, 110.911 200.040, 108.584 189.750 C 108.178 187.956, 107.314 187, 106.097 187 C 104.014 187, 97 194.237, 97 196.387 C 97 198.933, 89.233 205, 85.972 205 C 83.661 205, 82.725 205.594, 81.990 207.526 C 81.462 208.915, 80.348 210.313, 79.515 210.633 C 78.682 210.952, 78 212.275, 78 213.572 C 78 216.124, 80.562 218, 84.049 218 C 86.267 218, 95.055 212.225, 102.097 206.140 C 105.984 202.781, 109 202.473, 109 205.434 C 109 206.258, 110.568 209.785, 112.486 213.272 C 116.329 220.264, 121.530 224, 127.420 224 C 130.592 224, 135 220.690, 135 218.308 C 135 217.723, 135.675 216.685, 136.500 216 C 137.488 215.180, 138 212.947, 138 209.461 C 138 206.511, 138.485 204.005, 139.096 203.801 C 141.841 202.886, 139.142 166.620, 135.622 157.124 C 133.245 150.711, 133.542 149.314, 137.864 146.586 C 141.077 144.558, 150 132.702, 150 130.462 C 150 130.138, 151.076 127.540, 152.391 124.687 C 153.706 121.834, 155.359 117.475, 156.065 115 C 156.770 112.525, 157.720 110.073, 158.174 109.550 C 158.628 109.028, 159 106.740, 159 104.466 C 159 101.060, 158.323 99.600, 155.154 96.166 C 151.836 92.573, 150.770 92.016, 147.404 92.116 C 145.257 92.179, 141.025 93.192, 138 94.366 M 141.496 103.004 C 139.839 104.835, 137.779 105.608, 129.707 107.430 C 128.171 107.776, 126.634 108.834, 126.291 109.780 C 125.949 110.726, 124.350 112.630, 122.738 114.012 C 120.500 115.930, 119.682 117.643, 119.274 121.262 C 118.760 125.819, 118.838 126, 121.302 126 C 123.007 126, 124.578 124.997, 126 123 C 127.175 121.350, 128.858 120, 129.739 120 C 130.621 120, 132.164 119.256, 133.169 118.347 C 134.173 117.438, 137.359 115.904, 140.248 114.938 C 146.038 113.002, 148.391 110.075, 147.429 106.006 C 146.798 103.336, 145.213 101, 144.033 101 C 143.635 101, 142.494 101.902, 141.496 103.004 M 32.131 113.755 C 31.053 115.769, 31.708 119.385, 34.531 127 C 35.719 130.205, 36.033 133.141, 35.620 137.203 C 34.951 143.788, 36.282 145.561, 39.141 141.894 C 43.127 136.780, 44.161 133.565, 44.080 126.534 C 44.010 120.432, 43.646 119.129, 41.149 116.034 C 37.834 111.923, 33.674 110.872, 32.131 113.755 M 134.500 129.526 C 132.300 130.881, 129.753 131.992, 128.839 131.995 C 126.327 132.003, 122 137.733, 122 141.052 C 122 143.753, 122.175 143.884, 124.576 142.971 C 129.161 141.228, 135.924 136.006, 138.494 132.224 C 142.572 126.222, 141.281 125.350, 134.500 129.526 M 14 160.267 C 10.988 161.813, 10.292 165.149, 12.518 167.375 C 13.724 168.581, 16.044 169, 21.521 169 C 28.712 169, 28.963 169.085, 31.449 172.344 C 34.608 176.485, 34.611 177.358, 31.500 183.808 C 30.125 186.658, 29 189.241, 29 189.548 C 29 189.855, 27.875 191.762, 26.500 193.785 C 22.458 199.734, 22.976 204.101, 28.803 213.169 C 31.653 217.606, 31.365 221.010, 28 222.657 C 26.625 223.330, 20.867 224.433, 15.205 225.108 C 9.543 225.783, 4.679 226.710, 4.396 227.168 C 4.113 227.625, 2.986 228, 1.891 228 C 0.099 228, -0.070 228.575, 0.200 233.750 L 0.500 239.500 5.500 239.824 C 11.018 240.182, 21.380 238.341, 24.500 236.449 C 27.659 234.533, 44.875 233.940, 65 235.054 C 107.471 237.404, 117.802 238.090, 123.500 238.938 C 126.800 239.429, 132.173 239.869, 135.440 239.916 C 138.707 239.962, 143.882 240.436, 146.940 240.968 C 159.191 243.100, 185.863 244.983, 210.500 245.455 C 240.460 246.028, 242.425 245.701, 245.376 239.658 C 247.217 235.889, 247.216 235.766, 245.326 233.235 C 244.267 231.816, 242.704 230.216, 241.855 229.680 C 239.656 228.293, 235.245 229.653, 234.519 231.941 C 233.241 235.968, 228.484 236.389, 198.519 235.130 C 183.109 234.482, 165.325 233.301, 159 232.506 C 137.648 229.822, 127.570 228.919, 108 227.935 C 97.275 227.396, 82.037 226.260, 74.137 225.412 C 66.237 224.564, 58.362 223.964, 56.637 224.080 C 54.912 224.196, 51.405 224.225, 48.845 224.145 L 44.190 224 44.735 219.940 C 45.250 216.099, 45.012 215.625, 40.339 211.190 C 33.026 204.247, 31.215 198.925, 35 195.500 C 36.115 194.491, 37 192.420, 37 190.820 C 37 188.679, 37.635 187.709, 39.500 187 C 41.891 186.091, 42 185.686, 42 177.699 C 42 170.318, 41.739 169.109, 39.750 167.285 C 33.403 161.463, 19.210 157.595, 14 160.267 M 160.702 187.213 C 158.481 188.998, 157.733 189.186, 157.077 188.124 C 156.584 187.327, 156.006 187.182, 155.645 187.766 C 154.991 188.823, 165.641 194, 168.471 194 C 169.417 194, 171.426 194.879, 172.936 195.954 C 174.445 197.029, 178.218 198.858, 181.321 200.019 C 184.424 201.180, 187.222 202.550, 187.540 203.065 C 187.858 203.579, 188.775 204, 189.579 204 C 190.382 204, 192.718 205.056, 194.770 206.346 C 196.821 207.637, 200.282 209.278, 202.461 209.994 C 204.639 210.709, 208.529 212.353, 211.106 213.647 C 216.745 216.479, 218.182 216.561, 220.345 214.171 C 223.940 210.199, 221.010 204.010, 215.527 203.994 C 214.412 203.990, 212.150 203.244, 210.500 202.334 C 202.028 197.664, 187.967 191.153, 184.937 190.496 C 183.047 190.087, 180.285 188.892, 178.799 187.843 C 177.113 186.651, 173.733 185.752, 169.799 185.449 C 164.339 185.029, 163.127 185.264, 160.702 187.213" stroke="none" fill="black" fill-rule="evenodd"/>
</svg>