<svg xmlns="http://www.w3.org/2000/svg" width="300" height="300" viewBox="0 0 300 300" version="1.1">
	<path d="M 162.013 1.250 C 162.020 1.938, 163.370 5.151, 165.013 8.391 C 169.196 16.640, 168.979 19.777, 163.982 23.312 C 158.860 26.936, 157.945 30.247, 161.128 33.639 C 163.276 35.927, 163.468 36.892, 163.160 43.833 C 162.836 51.133, 162.968 51.686, 165.910 55.388 C 169.783 60.260, 169.887 63.396, 166.250 65.683 C 164.738 66.634, 160.889 69.635, 157.697 72.351 C 152.665 76.634, 151.935 77.697, 152.197 80.363 C 152.444 82.872, 153.101 83.608, 155.772 84.369 C 159.121 85.324, 161.877 83.887, 172.172 75.820 C 176.712 72.262, 178 73.808, 178 82.814 C 178 91.883, 177.913 92.008, 168.210 96.863 C 163.243 99.348, 161.138 99.886, 158.210 99.420 C 155.077 98.921, 154.117 99.237, 152.040 101.452 C 150.326 103.280, 149.653 105.030, 149.820 107.221 C 150.360 114.305, 154.647 114.738, 166.236 108.878 C 167.191 108.395, 168.470 108, 169.079 108 C 169.687 108, 171.297 107.125, 172.656 106.056 C 174.015 104.987, 175.818 104.377, 176.663 104.701 C 178.001 105.214, 178.120 107.923, 177.592 125.895 C 176.383 167.053, 175.812 177.504, 174.699 178.854 C 173.906 179.816, 172.413 180.009, 169.541 179.522 C 155.596 177.156, 150.956 176.550, 123.850 173.554 C 116.342 172.724, 106.217 171.312, 101.350 170.417 C 96.482 169.521, 90.138 168.556, 87.250 168.271 C 82.282 167.780, 82 167.601, 82 164.935 C 82 163.386, 82.417 161.860, 82.927 161.545 C 83.437 161.230, 84.387 159.291, 85.038 157.236 C 85.688 155.181, 87.010 151.700, 87.974 149.500 C 89.714 145.530, 91.874 139.643, 94.763 131 C 95.591 128.525, 96.857 125.150, 97.577 123.500 C 98.297 121.850, 99.029 119.605, 99.204 118.511 C 99.860 114.417, 102.828 115.654, 105.465 121.120 C 106.859 124.010, 108 127.135, 108 128.065 C 108 128.994, 108.675 130.315, 109.500 131 C 110.325 131.685, 111 133.096, 111 134.136 C 111 135.176, 111.425 136.809, 111.945 137.764 C 112.464 138.719, 113.332 142.789, 113.872 146.810 C 114.970 154.980, 116.121 157, 119.681 157 C 123.885 157, 135.889 146.333, 135.999 142.500 C 136.030 141.400, 137.384 138.744, 139.009 136.598 C 141.038 133.916, 141.786 131.995, 141.400 130.457 C 141.091 129.226, 141.324 127.918, 141.919 127.550 C 143.877 126.340, 143.199 116.058, 140.918 112.368 C 139.092 109.413, 138.325 109.001, 134.668 109.006 C 128.390 109.014, 122.990 110.856, 119.752 114.094 C 116.686 117.160, 114 117.898, 114 115.674 C 114 113.886, 110.129 110.372, 106.750 109.091 C 103.347 107.802, 103.293 106.155, 106.364 97.310 C 107.665 93.564, 109.404 88.257, 110.230 85.515 C 111.662 80.760, 111.998 80.427, 117.531 78.284 C 126.778 74.702, 130.630 69.427, 126.500 66 C 125.675 65.315, 125 64.382, 125 63.925 C 125 63.043, 133.621 50.349, 135.640 48.259 C 136.299 47.577, 137.348 45.477, 137.970 43.592 C 139.626 38.573, 138.127 33.978, 134.057 31.601 C 131.129 29.891, 130.199 29.800, 126.319 30.837 C 121.195 32.208, 110.020 40.694, 110.008 43.224 C 110.004 44.173, 108.650 45.647, 107 46.500 C 104.311 47.890, 103.999 48.542, 103.992 52.776 C 103.980 59.321, 101.489 77.180, 99.497 85 C 95.139 102.104, 89.035 123.858, 88.006 125.947 C 87.585 126.801, 86.474 129.975, 85.536 133 C 84.598 136.025, 83.441 139.400, 82.965 140.500 C 82.490 141.600, 81.418 144.525, 80.583 147 C 77.644 155.714, 76.427 158.781, 75.374 160.134 C 74.789 160.885, 74.012 162.334, 73.647 163.354 C 73.096 164.891, 72.299 165.105, 68.991 164.604 C 66.796 164.272, 63.197 163.727, 60.994 163.394 C 58.790 163.061, 56.714 162.346, 56.379 161.804 C 56.044 161.263, 57.397 159.154, 59.385 157.118 C 61.373 155.082, 63 152.588, 63 151.576 C 63 149.399, 59.228 143, 57.944 143 C 56.127 143, 54 136.938, 54 131.761 C 54 128.179, 54.711 125.120, 56.161 122.461 C 57.757 119.536, 58.330 116.733, 58.355 111.741 C 58.386 105.207, 58.256 104.846, 54.444 100.915 C 49.154 95.462, 40.648 91.218, 38.530 92.975 C 34.994 95.910, 38.276 102.835, 44.420 105.402 C 46.387 106.224, 48.153 107.955, 48.925 109.818 C 50.026 112.476, 49.936 113.387, 48.245 116.691 C 42.542 127.833, 42.222 136.883, 47.199 146.223 C 50.585 152.574, 50.228 154.230, 45.209 155.476 C 43.719 155.846, 41.530 157.053, 40.345 158.159 C 37.800 160.534, 32.761 161.731, 24.500 161.923 C 16.867 162.100, 11.794 163.465, 9.551 165.943 C 7.862 167.810, 7.866 168.060, 9.643 171.697 L 11.500 175.500 18.473 175.801 C 22.961 175.994, 26.881 175.560, 29.473 174.581 C 38.005 171.360, 65.043 172.064, 66.378 175.541 C 66.658 176.273, 66.063 177.921, 65.055 179.203 C 62.525 182.420, 59.832 189.121, 60.437 190.697 C 60.712 191.414, 61.593 192, 62.393 192 C 63.904 192, 71.970 184.144, 71.989 182.654 C 71.995 182.189, 72.961 180.460, 74.135 178.811 C 75.937 176.279, 76.754 175.897, 79.385 176.358 C 81.098 176.657, 85.030 177.328, 88.122 177.848 C 91.214 178.367, 94.672 179.289, 95.806 179.896 C 96.941 180.503, 99.811 181.007, 102.184 181.015 C 104.558 181.023, 108.452 181.709, 110.838 182.540 C 113.224 183.371, 117.274 184, 119.838 183.938 C 122.402 183.875, 128.676 184.493, 133.780 185.311 C 138.883 186.128, 143.949 186.565, 145.037 186.280 C 146.124 185.996, 148.248 186.251, 149.757 186.848 C 151.266 187.445, 157.225 188.429, 163 189.035 C 168.775 189.641, 173.789 190.444, 174.142 190.818 C 174.767 191.482, 172.861 204.245, 171.465 208.746 C 171.040 210.119, 171.426 212.378, 172.459 214.556 C 173.859 217.506, 174.610 218.065, 176.825 217.809 C 179.125 217.543, 179.674 216.799, 180.744 212.500 C 181.428 209.750, 182.403 204.185, 182.911 200.132 C 183.420 196.080, 184.260 192.340, 184.779 191.821 C 186.140 190.460, 192.705 190.464, 217.500 191.840 C 231.779 192.632, 240.823 193.577, 243.270 194.530 C 245.344 195.339, 247.843 196, 248.824 196 C 250.776 196, 257 190.102, 257 188.253 C 257 187.620, 255.425 185.901, 253.501 184.433 L 250.001 181.763 218.396 181.376 C 201.013 181.163, 186.404 180.750, 185.932 180.458 C 185.019 179.894, 185.526 149.576, 186.474 148.042 C 186.782 147.544, 187.267 136.445, 187.553 123.377 C 188.165 95.394, 188.169 95.383, 198.798 89.226 C 205.892 85.118, 206.266 84.334, 204.517 77.250 C 203.745 74.120, 202.475 74.412, 197.392 78.886 C 189.350 85.965, 187.220 84.866, 187.480 73.776 C 187.595 68.883, 188.041 67.617, 190.557 65.054 C 192.176 63.405, 193.995 62.043, 194.600 62.028 C 195.205 62.012, 197.567 60.647, 199.850 58.994 C 204.453 55.659, 205.253 52.444, 202.171 49.655 C 199.405 47.152, 197.619 47.589, 190.385 52.542 C 186.736 55.040, 183.521 56.854, 183.241 56.574 C 182.960 56.293, 184.366 52.753, 186.365 48.707 C 188.364 44.661, 190 40.576, 190 39.630 C 190 37.341, 185.569 33, 183.233 33 C 180.800 33, 176 38.053, 176 40.614 C 176 43.232, 173.592 46.484, 172.262 45.662 C 171.690 45.308, 171.015 43.552, 170.763 41.759 C 170.511 39.967, 169.982 37.762, 169.588 36.861 C 169.061 35.655, 169.967 34.466, 173.019 32.361 C 175.300 30.787, 178.431 28.488, 179.977 27.250 C 181.524 26.012, 183.781 25, 184.993 25 C 187.556 25, 193 19.594, 193 17.049 C 193 12.588, 185.669 10.442, 181.176 13.589 C 178.234 15.650, 176 14.738, 176 11.474 C 176 10.050, 175.497 6.886, 174.881 4.443 L 173.763 0 167.881 0 C 163.836 0, 162.004 0.390, 162.013 1.250 M 119.250 45.784 C 114.878 48.814, 113.998 49.931, 113.986 52.461 C 113.979 54.133, 113.701 56.513, 113.370 57.750 C 111.877 63.320, 118.679 57.778, 125.243 48.077 C 127.280 45.067, 127.541 41.969, 125.750 42.073 C 125.063 42.113, 122.138 43.783, 119.250 45.784 M 53.607 61.582 C 52.404 64.717, 53.055 66.993, 56.170 70.540 C 57.939 72.556, 59.602 75.773, 59.933 77.825 C 60.381 80.597, 61.058 81.576, 62.688 81.810 C 65.545 82.219, 68.500 76.335, 67.614 72.001 C 67.276 70.350, 66.718 67.537, 66.374 65.750 C 65.447 60.931, 64.250 60, 58.985 60 C 55.557 60, 54.043 60.445, 53.607 61.582 M 128.637 121.143 C 127.613 121.739, 125.981 123.019, 125.012 123.988 C 124.043 124.957, 122.667 125.944, 121.956 126.181 C 120.569 126.644, 120.410 135.825, 121.766 137.149 C 123.716 139.053, 132 127.307, 132 122.639 C 132 119.754, 131.449 119.509, 128.637 121.143" stroke="none" fill="black" fill-rule="evenodd"/>
</svg>