<svg xmlns="http://www.w3.org/2000/svg" width="300" height="300" viewBox="0 0 300 300" version="1.1">
	<path d="M 75.009 29.290 C 73.122 30.245, 72.355 31.636, 71.846 35.025 C 71.163 39.569, 68.641 45.486, 66.937 46.539 C 66.422 46.858, 66 47.957, 66 48.982 C 66 50.008, 64.937 52.119, 63.637 53.673 C 59.081 59.122, 59.235 61.543, 64.108 61.076 C 66.436 60.853, 67.632 71.387, 65.625 74.449 C 63.926 77.043, 57.974 79, 51.783 79 C 44.989 79, 41 80.701, 41 83.598 C 41 87.636, 44.323 90, 50 90 C 54.528 90, 55 90.214, 55 92.264 C 55 93.509, 55.900 96.991, 57 100 C 59.624 107.180, 59.533 109.605, 56.563 111.550 C 53.180 113.767, 52.329 118.353, 54.662 121.791 C 55.673 123.281, 56.743 125.400, 57.041 126.500 C 58.404 131.539, 66.225 128.449, 67.672 122.300 C 68.355 119.399, 69.124 118.420, 70.919 118.163 L 73.272 117.825 72.550 127.163 C 71.762 137.339, 71.120 138.607, 65.232 141.606 C 63.186 142.648, 59.260 144.865, 56.506 146.534 C 53.753 148.202, 50.780 150.002, 49.900 150.534 C 39.387 156.881, 38.163 158.925, 42.457 162.959 C 45.555 165.870, 49.363 165.285, 55.297 160.987 C 57.609 159.312, 61.975 156.156, 65 153.973 C 68.025 151.790, 71.049 150.003, 71.721 150.002 C 72.652 150, 72.811 153.503, 72.393 164.750 C 71.774 181.359, 71.149 183.060, 64.398 186.500 C 62.240 187.600, 59.060 189.512, 57.333 190.750 C 55.605 191.987, 53.892 193, 53.526 193 C 51.307 193, 44.058 199.394, 43.067 202.225 C 42.047 205.137, 42.159 205.694, 44.071 207.250 C 46.795 209.467, 48.143 209.451, 51.115 207.168 C 52.427 206.161, 55.525 204.250, 58 202.923 C 60.475 201.595, 64.890 198.785, 67.811 196.678 C 70.732 194.571, 74.566 192.244, 76.331 191.506 C 78.096 190.769, 80.389 189.228, 81.425 188.083 C 82.462 186.937, 84.284 186, 85.475 186 C 86.665 186, 88.575 184.988, 89.719 183.750 C 92.706 180.519, 97.030 177, 98.012 177 C 99.739 177, 105 169.450, 105 166.972 C 105 161.260, 101.286 160.605, 95.996 165.385 C 90.895 169.993, 83.317 174.314, 81.886 173.430 C 80.386 172.502, 81.330 146.270, 82.921 144.679 C 83.515 144.085, 84 142.804, 84 141.832 C 84 139.943, 93.955 132, 96.322 132 C 98.815 132, 102.827 128.064, 103.512 124.947 C 104.803 119.066, 99.548 117.008, 94.327 121.351 C 91.512 123.693, 87.654 126, 86.553 126 C 86.235 126, 87.023 124.313, 88.305 122.250 C 94.297 112.603, 98.117 102.998, 98.693 96.121 C 99.246 89.525, 99.159 89.150, 96.703 87.541 C 94.690 86.222, 93.687 86.097, 92.067 86.964 C 90.930 87.573, 90 88.699, 90 89.467 C 90 91.066, 84.882 95, 82.802 95 C 81.917 95, 80.925 92.802, 80.070 88.947 C 78.328 81.095, 79.288 78.878, 85.118 77.298 C 91.036 75.694, 99 70.500, 99 68.245 C 99 63.352, 92.853 60.062, 90.042 63.450 C 88.206 65.662, 80.150 69.272, 78.480 68.631 C 77.042 68.079, 76.467 64.978, 76.902 60.126 C 77.019 58.820, 76.141 56.715, 74.951 55.448 L 72.788 53.145 75.282 49.823 C 80.231 43.231, 84.016 34.916, 83.335 32.130 C 82.295 27.876, 79.612 26.961, 75.009 29.290 M 154.772 46.380 C 152.844 47.689, 147.718 50.436, 143.383 52.485 C 139.047 54.533, 134.825 56.606, 134 57.090 C 130.011 59.433, 124.504 62, 123.467 62 C 121.663 62, 119 65.433, 119 67.757 C 119 68.912, 119.740 70.597, 120.644 71.501 C 122.491 73.348, 124.908 73.003, 131.660 69.927 C 133.987 68.867, 136.327 68, 136.862 68 C 137.396 68, 137.983 67.646, 138.167 67.213 C 138.774 65.778, 147.820 61, 149.928 61 C 152.535 61, 152.527 62.052, 149.880 67.298 C 141.776 83.355, 140.427 87.386, 141.881 91.198 C 143.518 95.486, 147.387 97.367, 155.105 97.626 C 163.005 97.891, 164.013 98.310, 163.965 101.309 C 163.916 104.288, 162.087 107.270, 158.500 110.218 C 152.897 114.821, 148 114.457, 148 109.437 C 148 108.161, 147.550 106.840, 147 106.500 C 146.450 106.160, 146 105.024, 146 103.976 C 146 100.331, 139.281 98.715, 135.627 101.482 C 133.612 103.008, 133.537 101.919, 137.036 122 C 137.564 125.025, 138.483 130.875, 139.081 135 C 139.678 139.125, 140.570 145.200, 141.063 148.500 C 142.307 156.814, 145.053 181.250, 145.559 188.500 C 147.433 215.333, 147.823 230.345, 147.488 262.750 L 147.102 300 151.801 300 L 156.500 300 156.791 266.250 C 157.123 227.866, 157.137 230.591, 156.566 222 C 156.329 218.425, 155.892 208.300, 155.594 199.500 C 155.098 184.817, 152.574 159.738, 151.402 157.841 C 151.131 157.403, 150.667 150.092, 150.369 141.593 L 149.828 126.140 153.164 124.429 C 156.819 122.555, 159.107 120.869, 170.621 111.562 C 173.940 108.879, 175.238 105.285, 175.522 98 C 175.660 94.425, 175.175 92.935, 173.161 90.750 C 170.730 88.113, 170.227 88, 160.920 88 C 150.143 88, 148.937 87.265, 151.537 82.281 C 152.335 80.751, 152.990 78.929, 152.994 78.230 C 153.002 76.507, 157.248 69.940, 159.870 67.595 C 161.042 66.547, 162 65.008, 162 64.174 C 162 63.340, 162.628 61.947, 163.396 61.079 C 164.983 59.283, 168 50.822, 168 48.165 C 168 43.478, 160.534 42.470, 154.772 46.380 M 64.718 87.415 C 63.205 88.563, 63.111 89.199, 64.093 91.633 C 66.114 96.645, 66.804 98.455, 67.378 100.250 C 67.686 101.213, 68.904 102, 70.085 102 C 72.141 102, 72.202 101.710, 71.518 95.250 C 70.566 86.258, 68.850 84.281, 64.718 87.415 M 82.638 108.500 C 81.868 110.507, 82.967 113.176, 84.373 112.715 C 86.143 112.135, 86.413 107, 84.673 107 C 83.871 107, 82.955 107.675, 82.638 108.500" stroke="none" fill="black" fill-rule="evenodd"/>
</svg>