<svg xmlns="http://www.w3.org/2000/svg" width="300" height="300" viewBox="0 0 300 300" version="1.1">
	<path d="M 140.382 3.750 C 138.977 5.840, 138.517 8.473, 138.461 14.723 C 138.421 19.245, 138.188 23.070, 137.944 23.223 C 134.964 25.084, 127.954 28.025, 126 28.233 C 124.060 28.440, 123.426 29.152, 123.168 31.412 C 122.390 38.233, 127.356 40.936, 134.182 37.406 C 139.142 34.841, 139.414 36.433, 136.925 53.500 C 134.899 67.394, 134.942 67.294, 130.340 68.622 C 128.051 69.281, 124.676 70.533, 122.840 71.402 C 121.003 72.272, 117.025 73.775, 114 74.742 C 108.188 76.600, 107.106 78.304, 108.419 83.535 C 109.253 86.855, 112.175 87.386, 117.171 85.126 C 123.778 82.138, 128.880 80.547, 129.587 81.254 C 129.938 81.605, 129.466 84.053, 128.539 86.696 C 126.065 93.748, 124 101.778, 124 104.349 C 124 105.587, 123.628 107.027, 123.174 107.550 C 121.826 109.100, 119.667 116.806, 119.667 120.068 C 119.667 123.950, 122.387 126.877, 124.662 125.442 C 126.879 124.043, 132 114.258, 132 111.421 C 132 110.154, 132.450 108.840, 133 108.500 C 133.550 108.160, 134 106.706, 134 105.270 C 134 103.833, 134.630 101.947, 135.400 101.079 C 136.891 99.398, 139 87.732, 139 81.165 C 139 77.014, 140.071 76, 144.459 76 C 145.722 76, 147.274 75.375, 147.908 74.611 C 148.542 73.847, 151.094 72.710, 153.580 72.084 C 157.991 70.973, 169.640 65.374, 172.531 62.974 C 174.173 61.611, 173.573 57.376, 171.413 55.073 C 170.335 53.924, 169.570 53.875, 167.490 54.823 C 166.069 55.470, 163.638 56, 162.088 56 C 160.538 56, 158.113 56.910, 156.700 58.021 C 154.334 59.882, 146.929 63, 144.874 63 C 143.664 63, 143.770 52.630, 144.992 51.408 C 145.959 50.441, 149.537 38.517, 150.666 32.500 C 150.975 30.850, 152.471 28.150, 153.990 26.500 C 155.744 24.595, 156.941 21.974, 157.272 19.317 C 157.862 14.567, 156.601 13.441, 152.456 15.017 C 149.292 16.220, 148.548 14.705, 149.248 8.493 C 149.624 5.153, 149.331 3.705, 148.044 2.540 C 145.468 0.209, 142.440 0.687, 140.382 3.750 M 47.667 73.667 C 47.300 74.033, 47 76.313, 47 78.733 C 47 81.886, 47.709 84.063, 49.500 86.411 C 50.923 88.276, 52 91.023, 52 92.785 C 52 94.488, 52.450 96.160, 53 96.500 C 53.550 96.840, 54 98.611, 54 100.437 C 54 102.271, 54.722 104.354, 55.615 105.095 C 57.004 106.248, 57.552 106.060, 59.543 103.745 C 61.541 101.423, 61.846 100.020, 61.779 93.494 C 61.736 89.335, 61.318 85.696, 60.850 85.407 C 60.383 85.118, 60 84.090, 60 83.121 C 60 80.339, 53.175 73, 50.589 73 C 49.348 73, 48.033 73.300, 47.667 73.667 M 145.415 79.137 C 144.508 80.605, 144.575 95.271, 145.519 102.138 C 146.084 106.247, 146.991 108.191, 149.521 110.721 L 152.793 113.993 159.030 111.749 C 162.460 110.515, 166.219 108.472, 167.383 107.209 C 168.547 105.945, 170.675 104.277, 172.112 103.502 C 176.959 100.885, 176.686 89.966, 171.775 90.030 C 170.428 90.047, 167.108 92.290, 163.635 95.530 C 160.409 98.538, 157.360 101, 156.860 101 C 154.530 101, 153.252 92.550, 154.551 85.727 C 155.109 82.797, 154.870 81.513, 153.480 79.977 C 151.535 77.828, 146.545 77.308, 145.415 79.137 M 140.539 118.553 C 137.769 121.541, 136.637 127.964, 137.150 137.771 L 137.500 144.455 124.759 150.768 C 110.948 157.611, 109.538 159.169, 112.169 164.676 C 113.939 168.379, 116.954 168.699, 120.358 165.544 C 121.868 164.145, 123.980 163, 125.052 163 C 126.123 163, 127 162.558, 127 162.017 C 127 161.476, 129.312 159.862, 132.138 158.430 C 136.250 156.346, 137.444 156.094, 138.122 157.163 C 140.346 160.671, 138.964 188.524, 136.448 190.899 C 135.927 191.392, 129.875 191.992, 123 192.234 C 113.422 192.570, 109.565 193.120, 106.500 194.586 C 101.606 196.928, 100.971 197.740, 101.946 200.411 C 103.686 205.178, 111.596 206.313, 120 203 C 126.664 200.373, 127.357 200.440, 126.558 203.626 C 125.990 205.887, 126.149 206.144, 127.699 205.474 C 128.690 205.046, 131.075 204.523, 133 204.312 C 134.925 204.101, 138.750 203.306, 141.500 202.544 C 150.968 199.923, 156.042 199, 160.979 199 C 163.702 199, 167.935 198.319, 170.385 197.488 C 175.447 195.769, 190.296 195.287, 208.243 196.258 C 219.081 196.845, 220.064 196.749, 220.993 195.012 C 222.257 192.651, 220.794 188.451, 218.298 187.274 C 217.309 186.807, 206.375 186.467, 194 186.518 C 176.593 186.589, 169.635 187.008, 163.259 188.369 C 158.726 189.336, 153.551 189.987, 151.759 189.814 L 148.500 189.500 148.822 171 C 148.998 160.825, 149.337 151.804, 149.574 150.953 C 149.812 150.103, 152.951 147.896, 156.551 146.050 C 163.677 142.395, 168.034 137.847, 167.257 134.875 C 166.632 132.484, 161.792 132.340, 159.872 134.655 C 158.114 136.775, 152.801 139, 149.498 139 C 146.985 139, 146.945 138.890, 147.585 133.750 C 147.945 130.863, 148.616 126.475, 149.076 124 C 149.804 120.085, 149.644 119.273, 147.845 117.750 C 145.025 115.362, 143.322 115.549, 140.539 118.553 M 35.172 118.293 C 33.798 119.948, 34.969 124.219, 37.188 125.653 C 37.910 126.119, 41.650 127.209, 45.500 128.076 L 52.500 129.653 52.229 132.951 C 52.080 134.765, 51.079 137.485, 50.004 138.994 C 48.929 140.504, 47.593 142.941, 47.034 144.411 C 46.475 145.881, 44.148 149.837, 41.863 153.202 C 33.275 165.847, 33.681 172.482, 43.488 179.816 C 46.426 182.013, 49.881 184.134, 51.165 184.528 C 52.449 184.922, 54.063 185.695, 54.750 186.245 C 56.241 187.438, 56.420 192.622, 55 193.500 C 54.450 193.840, 54 194.763, 54 195.551 C 54 196.340, 53.146 198.001, 52.102 199.242 C 51.059 200.484, 49.146 202.756, 47.852 204.292 L 45.500 207.084 37.172 206.144 C 24.370 204.700, 18 207.157, 18 213.539 C 18 216.024, 18.900 217.581, 21.912 220.301 C 24.063 222.245, 26.780 224.347, 27.950 224.973 C 30.732 226.462, 38.699 225.273, 41.993 222.877 C 45.431 220.377, 64.895 220.099, 77.500 222.370 C 82.450 223.262, 91 224.706, 96.500 225.580 C 102 226.454, 109.875 227.809, 114 228.591 C 118.125 229.372, 124.200 230.295, 127.500 230.640 C 130.800 230.985, 134.308 231.684, 135.295 232.193 C 136.283 232.702, 145.958 233.768, 156.795 234.560 C 167.633 235.353, 179.650 236.432, 183.500 236.957 C 187.350 237.483, 202.179 238.824, 216.454 239.937 C 239.920 241.768, 242.634 241.815, 244.758 240.423 C 248.339 238.077, 249.255 234.854, 246.914 232.833 C 245.388 231.515, 242.842 231.162, 234.742 231.147 C 223.979 231.126, 200.986 229.342, 170 226.124 C 159.825 225.067, 150.825 224.180, 150 224.154 C 142.049 223.896, 123.014 220.750, 110.369 217.604 C 106.997 216.765, 102.497 216.016, 100.369 215.939 C 96.065 215.784, 88.824 214.407, 82 212.446 C 79.525 211.734, 74.350 210.866, 70.500 210.515 C 58.774 209.447, 58.213 208.882, 62.282 202.230 C 65.473 197.013, 67.131 189.945, 66.049 186.172 C 64.858 182.018, 60.154 176.307, 56.771 174.905 C 55.247 174.274, 54 173.362, 54 172.879 C 54 172.395, 53.403 172, 52.674 172 C 50.869 172, 47 167.747, 47 165.762 C 47 164.877, 48.125 162.816, 49.500 161.182 C 50.875 159.548, 52 157.698, 52 157.070 C 52 155.728, 54.624 151.349, 57.154 148.468 C 58.834 146.556, 64.099 130.412, 63.915 127.735 C 63.869 127.056, 62.052 124.970, 59.877 123.099 C 56.598 120.279, 54.778 119.562, 49.212 118.899 C 45.520 118.460, 41.124 117.814, 39.443 117.465 C 37.349 117.030, 36.004 117.290, 35.172 118.293" stroke="none" fill="black" fill-rule="evenodd"/>
</svg>