<svg xmlns="http://www.w3.org/2000/svg" width="300" height="300" viewBox="0 0 300 300" version="1.1">
	<path d="M 150 34.706 C 149.175 35.008, 147.594 36.075, 146.488 37.078 C 145.381 38.082, 142.231 39.878, 139.488 41.071 C 136.744 42.264, 133.600 44.044, 132.500 45.027 C 131.400 46.010, 128.475 47.795, 126 48.993 C 123.525 50.192, 120.306 51.808, 118.846 52.586 C 117.386 53.364, 115.468 54, 114.585 54 C 113.701 54, 111.071 54.862, 108.739 55.916 C 106.408 56.970, 102.700 58.377, 100.500 59.044 C 92.116 61.584, 92 61.676, 92 65.779 C 92 67.880, 92.540 70.140, 93.200 70.800 C 94.602 72.202, 98.183 72.385, 99.550 71.123 C 100.073 70.641, 102.975 69.460, 106 68.500 C 109.025 67.540, 113.651 65.848, 116.280 64.741 C 118.910 63.634, 121.334 63.001, 121.668 63.335 C 122.003 63.669, 121.764 65.981, 121.138 68.471 C 120.512 70.962, 119.532 74.912, 118.959 77.250 C 118.386 79.588, 117.759 85.775, 117.565 91 C 117.080 104.062, 115.740 113.191, 111.989 129 C 110.228 136.425, 108.364 144.300, 107.847 146.500 C 107.331 148.700, 106.533 152.075, 106.075 154 C 104.990 158.557, 102.094 165.367, 94.171 182 C 89.719 191.345, 84.464 200.893, 80.855 206.195 C 78.809 209.202, 79.259 211.533, 82.189 213.101 C 86.113 215.201, 91.248 209.036, 99.542 192.269 C 100.965 189.392, 102.550 186.778, 103.065 186.460 C 103.579 186.142, 104 184.614, 104 183.063 C 104 181.513, 104.630 179.722, 105.400 179.083 C 106.170 178.444, 107.827 175.352, 109.083 172.211 C 110.339 169.070, 111.927 165.600, 112.612 164.500 C 113.298 163.400, 114.984 158.142, 116.359 152.816 C 117.734 147.489, 119.320 142.271, 119.882 141.220 C 120.444 140.170, 121.123 137.103, 121.390 134.405 C 122.363 124.585, 125.030 118, 128.035 118 C 129.992 118, 137.100 111.866, 138.056 109.352 C 138.609 107.897, 139.764 107, 141.084 107 C 142.906 107, 143.120 107.401, 142.550 109.750 C 142.183 111.263, 141.048 114.300, 140.027 116.500 C 133.442 130.698, 133.851 128.001, 134.752 151.272 C 135.602 173.207, 134.961 195.312, 133.122 207.500 C 132.541 211.350, 132.051 217.507, 132.033 221.183 C 132.004 227.109, 132.238 227.941, 134.101 228.532 C 135.256 228.899, 136.696 228.704, 137.301 228.099 C 137.905 227.495, 139.998 226.997, 141.950 226.994 C 143.903 226.990, 146.625 226.370, 148 225.616 C 149.375 224.861, 152.750 223.026, 155.500 221.538 C 158.250 220.050, 161.650 217.745, 163.055 216.416 C 166.341 213.308, 168.801 213.347, 170.010 216.526 C 171.346 220.041, 173.753 220.691, 176.236 218.209 C 178.043 216.402, 178.284 215.032, 178.141 207.386 C 178.051 202.572, 177.525 194.635, 176.972 189.749 C 176.418 184.863, 176.231 180.435, 176.556 179.909 C 176.881 179.384, 176.656 175.787, 176.055 171.917 C 175.455 168.047, 174.704 157.595, 174.388 148.690 C 174.071 139.786, 173.457 132.050, 173.022 131.500 C 172.587 130.950, 171.916 129.027, 171.531 127.226 C 171.146 125.425, 169.704 122.613, 168.326 120.976 C 164.844 116.838, 160.703 116.989, 154 121.500 C 151.139 123.425, 148.394 125, 147.900 125 C 146.399 125, 146.875 122.269, 149.500 115.808 C 150.875 112.424, 152 108.663, 152 107.450 C 152 101.653, 156.434 95.425, 163 92 C 168.383 89.192, 171 86.259, 171 83.032 C 171 77.108, 165.179 75.052, 161 79.500 C 159.708 80.875, 157.777 82, 156.709 82 C 155.090 82, 154.881 81.542, 155.455 79.250 C 156.956 73.255, 156.633 71.625, 153.734 70.590 C 151.600 69.828, 150.619 69.952, 149.438 71.133 C 147.634 72.938, 145.029 82.122, 145.012 86.740 C 145.001 89.582, 144.295 90.435, 139.250 93.690 C 136.088 95.731, 132.499 98.278, 131.276 99.350 C 129.216 101.156, 129.004 101.173, 128.393 99.583 C 128.031 98.638, 128.066 93.508, 128.470 88.183 C 128.875 82.857, 129.497 74.031, 129.853 68.568 C 130.497 58.680, 130.513 58.633, 133.377 57.871 C 134.959 57.450, 137.056 56.244, 138.037 55.191 C 139.018 54.138, 143.349 51.565, 147.660 49.474 C 151.972 47.384, 155.653 45.288, 155.839 44.819 C 156.026 44.349, 156.814 43.329, 157.591 42.552 C 159.371 40.772, 157.991 36.601, 155.114 35.061 C 152.970 33.914, 152.296 33.867, 150 34.706 M 47.200 101.200 C 44.981 103.419, 45.888 107.677, 49.500 112 C 52.317 115.372, 53 117.035, 53 120.523 C 53 125.215, 54.884 128, 58.058 128 C 61.659 128, 64.366 117.687, 62 112.986 C 61.450 111.894, 60.550 110.106, 60 109.014 C 59.450 107.921, 59 106.424, 59 105.688 C 59 101.611, 50.154 98.246, 47.200 101.200 M 152.850 131.355 C 145.571 133.639, 145 134.860, 145 148.155 C 145 162.281, 145.564 162.725, 152.419 154 C 157.487 147.548, 159.842 146.653, 162.283 150.250 C 164.581 153.638, 166.563 151.319, 165.195 146.842 C 164.633 145.004, 163.893 141.132, 163.551 138.238 C 163.208 135.344, 162.671 132.306, 162.357 131.488 C 161.694 129.761, 158.091 129.711, 152.850 131.355 M 36.667 147.667 C 36.300 148.033, 36 149.808, 36 151.610 C 36 155.278, 38.877 158, 42.754 158 C 46.169 158, 46.470 160.332, 43.679 165.183 C 40.339 170.989, 36 183.404, 36 187.156 C 36 188.826, 36.701 192.604, 37.558 195.552 C 38.806 199.845, 40.099 201.734, 44.058 205.049 C 46.776 207.324, 49 209.713, 49 210.358 C 49 212.113, 45.087 219.177, 42.645 221.831 C 40.797 223.839, 39.878 224.076, 36 223.543 C 33.525 223.203, 26.907 222.677, 21.294 222.373 C 11.351 221.835, 11.023 221.886, 8.544 224.365 C 7.145 225.764, 6 227.520, 6 228.267 C 6 230.798, 11.471 234.832, 17.749 236.931 C 25.310 239.459, 37.943 239.266, 40.914 236.577 C 42.450 235.188, 43.724 235.108, 50.098 236 C 54.169 236.570, 59.525 237.659, 62 238.420 C 64.475 239.181, 71.225 240.316, 77 240.942 C 82.775 241.567, 92.225 242.923, 98 243.955 C 103.775 244.987, 112.325 246.364, 117 247.015 C 121.675 247.667, 127.975 248.806, 131 249.549 C 139.964 251.747, 172.708 252.846, 217.439 252.450 C 254.336 252.122, 259.483 251.888, 260.260 250.501 C 261.473 248.332, 260.278 243.562, 258.006 241.505 C 256.431 240.080, 255.575 239.985, 252.739 240.921 C 245.921 243.171, 167.192 243.985, 150.167 241.980 C 134.354 240.119, 112.075 236.998, 107.639 236.023 C 103.041 235.013, 91.430 233.112, 83 231.989 C 79.975 231.586, 72.438 230.233, 66.250 228.983 C 54.057 226.520, 53.138 225.732, 56.804 220.885 C 59.924 216.760, 60.901 211.752, 59.423 207.455 C 58.224 203.966, 51.102 196, 49.183 196 C 48.736 196, 47.651 194.491, 46.771 192.646 C 45.282 189.524, 45.304 188.893, 47.086 183.491 C 48.139 180.300, 49 177.239, 49 176.689 C 49 176.139, 50.125 174.214, 51.500 172.411 C 52.875 170.608, 54 168.005, 54 166.626 C 54 165.247, 54.450 163.840, 55 163.500 C 55.550 163.160, 56 160.214, 56 156.952 C 56 148.288, 54.570 147, 44.944 147 C 40.758 147, 37.033 147.300, 36.667 147.667 M 162.414 160.319 C 161.267 160.968, 156.880 164.373, 152.664 167.885 C 146 173.436, 145 174.692, 145 177.512 C 145 182.873, 147.170 183.667, 152.259 180.166 C 154.655 178.518, 157.230 176.428, 157.981 175.523 C 158.891 174.427, 160.543 173.975, 162.924 174.170 L 166.500 174.462 166.161 167.481 C 165.975 163.642, 165.525 160.193, 165.161 159.819 C 164.797 159.444, 163.561 159.669, 162.414 160.319 M 162.590 184.686 C 161.165 186.223, 160 188.038, 160 188.721 C 160 189.403, 158.762 190.267, 157.250 190.639 C 155.738 191.012, 153.517 191.953, 152.315 192.731 C 151.113 193.509, 148.638 194, 146.815 193.823 L 143.500 193.500 142.780 199 C 142.383 202.025, 141.764 206.515, 141.403 208.978 C 140.808 213.036, 140.899 213.329, 142.373 212.105 C 143.268 211.363, 144 209.958, 144 208.985 C 144 206.844, 146.920 205.520, 148.392 206.992 C 149.136 207.736, 149.086 208.632, 148.225 210.011 C 144.643 215.747, 148.351 216.481, 155.500 211.452 C 158.250 209.517, 162.202 206.754, 164.283 205.312 L 168.067 202.690 167.783 192.676 C 167.468 181.538, 166.661 180.296, 162.590 184.686" stroke="none" fill="black" fill-rule="evenodd"/>
</svg>