<svg xmlns="http://www.w3.org/2000/svg" width="300" height="300" viewBox="0 0 300 300" version="1.1">
	<path d="M 143.750 4.080 C 141.338 5.485, 139 10.302, 139 13.869 C 139 18.001, 138.069 20, 136.143 20.001 C 133.645 20.002, 125.114 23.446, 123.595 25.066 C 121.520 27.280, 120.872 33.649, 122.578 35.065 C 124.557 36.708, 131.437 35.476, 135 32.842 C 136.571 31.681, 138.563 31.002, 139.428 31.334 C 142.559 32.536, 140.564 43.638, 136.105 49.816 C 134.767 51.671, 132.212 53.084, 127.834 54.392 C 116.170 57.876, 109 63.311, 109 68.668 C 109 71.298, 109.477 72.082, 111.366 72.556 C 114.021 73.222, 121.593 71.468, 122.517 69.973 C 122.847 69.438, 124.216 69, 125.559 69 C 127.359 69, 128 69.542, 128 71.066 C 128 74.656, 129.906 76.892, 134.016 78.123 C 136.207 78.779, 138 79.736, 138 80.249 C 138 80.762, 136.041 83.503, 133.648 86.341 C 131.254 89.178, 128.891 92.238, 128.398 93.139 C 127.904 94.040, 125.138 96.638, 122.250 98.912 C 116.493 103.446, 115.662 106.126, 118.808 110.011 C 120.272 111.819, 121.214 112.112, 123.761 111.553 C 125.491 111.173, 127.973 110.022, 129.278 108.996 C 130.582 107.970, 132.966 106.989, 134.575 106.815 L 137.500 106.500 137.794 113.758 C 138.083 120.892, 138.040 121.034, 135.296 122.078 C 133.760 122.661, 131.828 123.721, 131.002 124.431 C 128.610 126.490, 120.027 129, 115.381 129 C 110.027 129, 109.229 130.168, 109.900 137.021 C 109.955 137.583, 111.029 138.512, 112.286 139.084 C 115.031 140.335, 127.155 137.304, 132.420 134.049 C 134.244 132.922, 136.808 132.002, 138.118 132.004 C 140.336 132.007, 140.494 132.368, 140.406 137.254 C 140.355 140.139, 140.243 143.052, 140.156 143.727 C 139.898 145.754, 135.811 147.863, 127.072 150.478 C 122.520 151.841, 117.422 153.641, 115.744 154.478 C 114.066 155.315, 111.524 156, 110.096 156.001 C 108.668 156.001, 105.075 156.923, 102.111 158.049 C 98.642 159.368, 95.687 159.871, 93.820 159.460 C 89.735 158.563, 88 160.390, 88 165.587 C 88 171.115, 90.145 172.577, 95.962 171.010 C 98.136 170.425, 100.186 169.508, 100.517 168.973 C 100.847 168.438, 102.191 168, 103.502 168 C 105.889 168, 126.070 161.719, 128.310 160.279 C 130.391 158.941, 138.332 157.190, 139.788 157.749 C 140.945 158.193, 141.095 161.354, 140.649 175.893 C 140.352 185.577, 139.747 195.750, 139.304 198.500 L 138.500 203.500 134 203.217 C 131.525 203.061, 126.575 202.510, 123 201.991 C 119.425 201.473, 111.550 200.357, 105.500 199.510 C 86.656 196.875, 81.893 196.171, 68.500 194.044 C 61.350 192.908, 54.321 191.984, 52.880 191.990 C 50.522 191.999, 50.210 191.559, 49.762 187.579 C 49.055 181.308, 50.574 159.664, 51.894 157.198 C 52.502 156.061, 53 153.592, 53 151.711 C 53 148.866, 52.084 147.424, 47.560 143.145 C 44.568 140.315, 41.279 138, 40.251 138 C 39.223 138, 37.509 137.339, 36.441 136.532 C 34.068 134.737, 30.813 134.587, 29.200 136.200 C 26.332 139.068, 29.089 146, 33.097 146 C 33.888 146, 36.257 147.170, 38.361 148.599 C 41.990 151.066, 42.157 151.410, 41.617 155.349 C 41.304 157.632, 40.538 164.675, 39.914 171 C 39.200 178.243, 38.239 183.114, 37.319 184.158 C 35.705 185.988, 25.513 188.569, 14.111 190.036 C 10.047 190.559, 6.109 191.494, 5.361 192.116 C 3.507 193.654, 3.645 199.048, 5.610 201.854 C 7.218 204.149, 7.245 204.151, 24.360 203.454 C 33.787 203.070, 43.300 202.456, 45.500 202.091 C 47.956 201.683, 51.013 201.944, 53.420 202.767 C 55.576 203.504, 58.726 204.152, 60.420 204.208 C 65.213 204.364, 100.968 208.901, 106 209.992 C 108.475 210.528, 114.550 211.448, 119.500 212.035 C 128.103 213.056, 131.329 213.595, 135.290 214.673 C 136.941 215.122, 137.032 216.262, 136.461 229.330 C 136.120 237.124, 135.211 248, 134.442 253.500 C 132.444 267.779, 133.478 286.282, 136.469 289.758 C 138.076 291.627, 139.172 292.080, 140.820 291.557 C 143.684 290.648, 145.996 286.129, 144.942 283.500 C 142.957 278.549, 144.734 224.241, 147.077 218.250 C 148.400 214.866, 154.912 215.157, 167.889 219.179 C 169.752 219.757, 173.352 220.361, 175.889 220.522 C 178.425 220.683, 183.425 221.525, 187 222.393 C 190.575 223.260, 196.875 224.010, 201 224.058 C 205.125 224.107, 210.975 224.505, 214 224.944 C 217.025 225.382, 226.021 225.341, 233.991 224.852 C 246.206 224.103, 248.783 223.662, 250.403 222.042 C 251.991 220.453, 252.161 219.547, 251.380 216.810 C 250.551 213.903, 249.975 213.462, 246.648 213.185 C 244.536 213.010, 242.159 213.452, 241.274 214.185 C 240.058 215.193, 234.945 215.449, 219.374 215.282 C 201.813 215.094, 196.924 214.670, 183.281 212.149 C 174.601 210.545, 163.705 208.736, 159.066 208.127 C 154.427 207.519, 150.284 206.459, 149.859 205.773 C 149.262 204.805, 149.474 181.314, 150.102 179 C 150.176 178.725, 150.147 174.225, 150.038 169 C 149.877 161.336, 150.233 158.582, 151.884 154.750 C 153.008 152.137, 154.538 150, 155.281 150 C 156.878 150, 167.608 144.625, 169.906 142.675 C 170.783 141.930, 174.512 140.067, 178.194 138.534 C 186.222 135.192, 189.281 132.292, 188.826 128.455 C 188.305 124.054, 185.751 123.161, 181.290 125.820 C 179.206 127.062, 175.025 129.182, 172 130.529 C 168.975 131.877, 165.825 133.426, 165 133.971 C 161.567 136.242, 153.181 140, 151.549 140 C 149.957 140, 149.859 139.224, 150.503 131.750 C 151.268 122.869, 152.751 120, 156.578 120 C 159.771 120, 165 115.333, 165 112.484 C 165 110.861, 164.037 109.666, 161.846 108.573 C 157.738 106.524, 157.449 106.556, 153.589 109.500 C 151.786 110.875, 150.016 112, 149.656 112 C 149.295 112, 149 109.811, 149 107.136 C 149 102.632, 149.281 102.077, 152.804 99.636 C 154.896 98.186, 157.076 97, 157.649 97 C 159.140 97, 162 93.612, 162 91.846 C 162 90.059, 157.902 86, 156.098 86 C 155.398 86, 151.916 87.627, 148.361 89.615 C 141.250 93.591, 139.338 93.456, 143.073 89.240 C 144.408 87.733, 146.134 85.375, 146.909 84 C 147.683 82.625, 150.091 79.393, 152.259 76.817 C 156.753 71.477, 157.673 65.697, 154.409 63.310 C 151.689 61.321, 149.640 61.710, 145.500 65 C 141.833 67.915, 138.829 68.639, 135.582 67.393 C 133.161 66.464, 133.646 65.500, 137.979 62.633 C 140.465 60.987, 143.371 59.988, 145.729 59.968 C 147.803 59.951, 150.374 59.276, 151.441 58.468 C 152.509 57.661, 154.317 57, 155.459 57 C 158.416 57, 165 52.265, 165 50.138 C 165 48.162, 161.055 44, 159.182 44 C 158.528 44, 156.314 44.900, 154.261 46 C 150.398 48.071, 147.999 48.550, 148.001 47.250 C 148.005 45.080, 150.983 30.123, 151.871 27.811 C 152.439 26.332, 153.826 24.628, 154.952 24.026 C 158.526 22.113, 160.193 18.638, 159.018 15.548 C 158.059 13.026, 157.690 12.877, 153.965 13.506 L 149.947 14.185 150.574 10.264 C 151.490 4.531, 148.159 1.512, 143.750 4.080 M 51.162 90.064 C 49.071 90.902, 48.896 91.426, 49.506 95.034 C 49.881 97.253, 50.887 100.470, 51.741 102.184 C 52.596 103.897, 53.567 107.819, 53.898 110.899 C 54.448 116.019, 54.711 116.500, 56.959 116.500 C 59.900 116.500, 61.154 112.863, 61.442 103.500 C 61.653 96.613, 60.062 91.639, 57.150 90.080 C 54.789 88.817, 54.277 88.815, 51.162 90.064" stroke="none" fill="black" fill-rule="evenodd"/>
</svg>