<svg xmlns="http://www.w3.org/2000/svg" width="300" height="300" viewBox="0 0 300 300" version="1.1">
	<path d="M 152.500 54.859 C 148.831 56.068, 140.322 60.858, 137.248 63.445 C 133.198 66.853, 131.786 66.674, 128.918 62.387 C 127.588 60.400, 125.267 58.049, 123.761 57.162 C 121.224 55.669, 120.895 55.676, 119.312 57.260 C 117.698 58.873, 117.726 59.138, 119.801 61.944 C 121.297 63.968, 122 66.352, 122 69.400 C 122 71.865, 122.400 74.129, 122.890 74.432 C 123.818 75.005, 124.431 77.961, 125.962 89.246 C 126.465 92.957, 127.200 96.514, 127.593 97.151 C 127.987 97.788, 128.682 102.403, 129.137 107.405 C 130.563 123.073, 131.100 125.781, 133.154 127.639 C 138.012 132.036, 140.538 122.436, 137.927 109.500 C 136.639 103.119, 135.229 92.395, 134.369 82.431 L 133.845 76.362 139.173 72.268 C 142.103 70.015, 147.586 66.704, 151.357 64.909 C 159.187 61.182, 161.093 61.571, 162.142 67.109 C 162.495 68.974, 163.382 71.963, 164.112 73.752 C 165.316 76.700, 165.247 77.197, 163.377 79.067 C 162.056 80.388, 159.246 81.410, 155.562 81.910 C 152.398 82.340, 149.409 83.323, 148.920 84.096 C 147.720 85.991, 147.767 89.738, 149 90.500 C 149.550 90.840, 150.020 93.454, 150.044 96.309 C 150.068 99.164, 150.736 103.300, 151.529 105.500 C 152.321 107.700, 152.977 110.458, 152.985 111.628 C 153.008 114.839, 155.853 121, 157.313 121 C 160.441 121, 160.889 118.777, 160.340 105.986 C 159.807 93.566, 159.850 93.219, 162.079 91.657 C 166.431 88.609, 167 90.621, 167 109.051 L 167 125.858 159.750 130.375 C 155.762 132.859, 149.935 136.026, 146.800 137.411 C 141.504 139.752, 135.268 143.819, 123.895 152.349 C 120.011 155.262, 119.201 156.464, 118.724 160.022 C 117.946 165.824, 116.394 167.156, 113.929 164.139 C 112.868 162.841, 112 160.724, 112 159.436 C 112 157.202, 111.430 155.467, 108.359 148.349 C 107.612 146.616, 107 144.764, 107 144.234 C 107 143.704, 106.067 142.084, 104.927 140.635 C 102.518 137.571, 97.642 137.030, 96.169 139.663 C 95.212 141.373, 97.121 147.382, 101.117 155.236 C 101.603 156.191, 102 158.018, 102 159.295 C 102 160.573, 102.661 162.491, 103.468 163.559 C 104.276 164.626, 104.951 166.711, 104.968 168.191 C 104.986 169.671, 105.450 171.160, 106 171.500 C 106.550 171.840, 107 173.126, 107 174.359 C 107 175.592, 107.408 177.027, 107.907 177.550 C 109.361 179.073, 112.118 189.326, 113.674 199 C 113.984 200.925, 114.709 203.086, 115.285 203.803 C 116.293 205.056, 116.616 206.413, 118.983 219.324 C 120.307 226.547, 122.548 230.207, 125.398 229.800 C 127.291 229.530, 127.467 228.953, 127.169 224 C 126.986 220.975, 126.199 216.572, 125.419 214.215 C 124.638 211.858, 124 208.622, 124 207.024 C 124 205.426, 123.550 203.840, 123 203.500 C 122.450 203.160, 122 200.460, 122 197.500 C 122 194.540, 121.550 191.840, 121 191.500 C 120.450 191.160, 120 189.311, 120 187.391 C 120 185.471, 119.386 182.686, 118.636 181.200 C 117.886 179.715, 116.969 176.125, 116.598 173.221 C 115.936 168.042, 115.968 167.954, 118.285 168.535 C 120.179 169.011, 121.426 168.266, 124.574 164.782 C 129.175 159.688, 140.977 150, 142.581 150 C 143.191 150, 144.467 149.141, 145.417 148.091 C 146.367 147.042, 148.575 145.600, 150.322 144.888 C 152.070 144.176, 157.966 141.210, 163.425 138.297 C 168.884 135.383, 174.509 133.015, 175.925 133.033 C 182.133 133.113, 186.004 140.102, 189.202 157 C 191.253 167.841, 190.118 193.371, 187.390 197.715 C 186.626 198.933, 186 201.269, 186 202.906 C 186 204.543, 185.550 206.160, 185 206.500 C 184.450 206.840, 184 208.415, 184 210 C 184 211.585, 183.550 213.160, 183 213.500 C 182.450 213.840, 182 215.341, 182 216.837 C 182 218.332, 181.369 220.455, 180.599 221.556 C 179.828 222.656, 179.040 224.623, 178.849 225.926 C 178.657 227.229, 177.676 228.792, 176.668 229.398 C 174.645 230.615, 174.735 230.704, 168.471 221.274 C 166.562 218.400, 165 215.544, 165 214.928 C 165 214.313, 164.051 212.477, 162.892 210.848 C 161.310 208.627, 160.124 207.964, 158.142 208.194 C 155.792 208.466, 155.527 208.887, 155.741 212 C 156.133 217.693, 162.882 229.886, 169.164 236.250 C 175.348 242.515, 177.559 243.184, 180.728 239.750 C 183.554 236.688, 189 226.385, 189 224.100 C 189 223.080, 189.629 221.723, 190.399 221.084 C 191.168 220.446, 192.051 218.253, 192.360 216.212 C 193.690 207.445, 194.273 204.950, 195.110 204.432 C 195.600 204.129, 196.005 202.671, 196.011 201.191 C 196.017 199.711, 196.692 196.291, 197.511 193.591 C 199.570 186.802, 199.562 157.608, 197.500 154 C 196.714 152.625, 196.055 150.182, 196.035 148.571 C 195.999 145.553, 194.682 140.820, 192.370 135.400 C 190.596 131.239, 182.609 124.003, 179.772 123.986 C 178.523 123.979, 176.446 123.690, 175.157 123.345 C 173.116 122.799, 172.907 122.318, 173.533 119.609 C 175.125 112.717, 175.140 90.798, 173.558 82.988 C 172.701 78.760, 171.967 72.645, 171.927 69.400 C 171.839 62.293, 169.736 58.183, 164.945 55.752 C 161.493 54, 156.247 53.623, 152.500 54.859 M 126 72.500 C 126 73.875, 126.450 75, 127 75 C 127.550 75, 128 73.875, 128 72.500 C 128 71.125, 127.550 70, 127 70 C 126.450 70, 126 71.125, 126 72.500 M 59.011 112.487 C 57.316 114.529, 58.428 118.300, 62.563 124.529 C 64.537 127.503, 66 130.966, 66 132.665 C 66 135.440, 69.056 140, 70.917 140 C 74.001 140, 74.712 131.551, 72.487 121.335 C 70.931 114.191, 62.300 108.524, 59.011 112.487 M 51.105 155.714 C 49.048 157.380, 48.851 158.054, 49.687 160.574 C 50.572 163.243, 51.111 163.527, 55.821 163.802 C 59.698 164.029, 61.242 164.584, 62.017 166.031 C 63.879 169.511, 60.814 177.277, 53.864 186.684 C 51.739 189.561, 50 192.621, 50 193.484 C 50 195.686, 57.619 203.055, 64.342 207.356 C 67.454 209.346, 70 211.445, 70 212.020 C 70 214.800, 66.647 220.091, 61.262 225.809 C 55.855 231.551, 55.059 232.053, 52.410 231.384 C 41.477 228.625, 22.531 232.704, 20.586 238.235 C 19.292 241.917, 22.349 245.163, 29.191 247.373 C 33.904 248.895, 34.794 248.897, 40.896 247.406 C 44.528 246.518, 49.380 244.713, 51.678 243.396 C 57.662 239.964, 64.357 240.272, 86.468 244.993 C 96.753 247.189, 105.573 249.236, 106.066 249.541 C 106.560 249.846, 112.866 250.975, 120.079 252.049 C 127.292 253.123, 133.543 254.218, 133.969 254.481 C 134.941 255.081, 152.192 257.597, 161.500 258.495 C 165.350 258.867, 173 260.055, 178.500 261.136 C 185.377 262.487, 194.590 263.266, 208 263.629 C 219.807 263.949, 229.473 264.700, 232.500 265.533 C 247.099 269.550, 258.626 271.760, 269.671 272.660 C 275.172 273.109, 275.963 272.938, 276.951 271.091 C 277.808 269.491, 277.706 268.331, 276.505 266.009 C 275.649 264.354, 274.398 262.986, 273.724 262.969 C 272.215 262.931, 260.728 261.365, 252 260.007 C 239.387 258.045, 222.293 256.081, 204 254.491 C 185.795 252.909, 166.943 250.512, 164 249.406 C 163.175 249.095, 152.375 247.557, 140 245.988 C 116.745 243.038, 95.017 239.206, 86.760 236.599 C 84.153 235.775, 79.342 234.799, 76.070 234.428 C 69.494 233.684, 68.158 232.281, 71.059 229.167 C 75.902 223.969, 79 217.617, 79 212.887 L 79 208.166 70.720 201.700 C 66.166 198.144, 61.823 194.492, 61.069 193.583 C 59.510 191.705, 60.057 190.289, 65.696 181.622 C 71.064 173.371, 71.198 160.730, 65.959 156.819 C 64.591 155.797, 61.227 154.696, 58.483 154.371 C 54.453 153.893, 53.034 154.152, 51.105 155.714 M 154.261 162.704 C 153.029 162.942, 150.124 164.906, 147.805 167.068 C 143.002 171.547, 143.188 171.478, 141.079 169.578 C 138.165 166.953, 134.362 166.638, 132.161 168.839 C 129.336 171.664, 130.361 174.579, 136.156 180.194 C 138.820 182.775, 141 185.786, 141 186.885 C 141 187.983, 141.450 189.160, 142 189.500 C 142.550 189.840, 143 191.216, 143 192.559 C 143 193.902, 143.870 195.870, 144.933 196.933 C 145.996 197.996, 147.638 200.044, 148.581 201.483 C 150.867 204.973, 153.832 204.430, 156.688 200 C 160.308 194.386, 163.239 191.992, 167.286 191.341 C 170.970 190.749, 173.549 188.148, 172.770 185.811 C 172.573 185.219, 170.856 184.231, 168.956 183.617 L 165.500 182.500 165 174.820 C 164.605 168.753, 164.029 166.601, 162.257 164.570 C 160.076 162.072, 158.928 161.804, 154.261 162.704 M 150.688 179.552 C 148.131 183.064, 148.744 188.393, 151.754 188.820 C 154.267 189.177, 154.585 188.560, 155.396 181.750 C 155.880 177.688, 155.711 177.005, 154.231 177.031 C 153.279 177.049, 151.685 178.183, 150.688 179.552" stroke="none" fill="black" fill-rule="evenodd"/>
</svg>