<svg xmlns="http://www.w3.org/2000/svg" width="300" height="300" viewBox="0 0 300 300" version="1.1">
	<path d="M 132.441 46.439 C 130.695 47.734, 130.644 48.110, 131.933 50.189 C 133.297 52.389, 134.320 56.638, 135.618 65.500 C 136.574 72.031, 128.018 111.281, 124.562 116.215 C 123.703 117.441, 123 119.189, 123 120.098 C 123 121.134, 121.881 121.974, 120 122.350 C 117.213 122.907, 117 123.262, 117 127.339 L 117 131.728 121.640 132.364 C 124.191 132.714, 127.425 133, 128.825 133 C 130.338 133, 133.296 134.623, 136.115 137 C 138.724 139.200, 141.373 141, 142.001 141 C 144.044 141, 145.884 138.428, 144.925 136.912 C 144.433 136.135, 144.024 134.218, 144.015 132.651 C 143.998 129.486, 138.976 124, 136.094 124 C 135.162 124, 133.860 123.460, 133.200 122.800 C 130.223 119.823, 132.937 114.846, 142.238 106.224 C 145.040 103.626, 149.023 99.813, 151.088 97.750 C 156.179 92.666, 158.005 92.798, 157.983 98.250 C 157.965 102.952, 154.993 117.812, 153.134 122.500 C 152.479 124.150, 151.002 127.975, 149.851 131 C 142.308 150.824, 129.679 171.430, 116.041 186.166 C 111.252 191.341, 109.939 192.267, 108.865 191.225 C 107.779 190.172, 107.789 189.567, 108.923 187.752 C 110.883 184.613, 110.679 152.010, 108.641 142.694 C 107.094 135.620, 106.768 135.023, 101.002 128.667 L 97.504 124.811 89.804 125.160 C 81.387 125.543, 81.046 125.296, 81.014 118.779 C 81.006 117.282, 79.922 113.620, 78.605 110.641 C 76.622 106.158, 75.591 105.020, 72.624 104.041 C 70.652 103.390, 68.580 103.141, 68.020 103.488 C 66.295 104.554, 66.887 108.586, 69.200 111.527 C 70.983 113.794, 71.479 115.977, 71.817 123.064 C 72.201 131.089, 72.067 131.894, 70.178 132.905 C 67.219 134.488, 66.825 133.343, 65.979 120.692 C 65.192 108.918, 64.275 107, 59.431 107 C 54.702 107, 53.781 112.502, 56.362 125.338 C 58.185 134.411, 57.632 140.824, 54.583 145.960 C 53.437 147.890, 51.594 151.276, 50.487 153.484 C 48.212 158.024, 45.667 158.748, 45.165 155 C 44.981 153.625, 44.419 152.072, 43.915 151.550 C 43.412 151.027, 43 149.768, 43 148.752 C 43 145.508, 36.250 136, 33.947 136 C 28.317 136, 26.472 139.928, 29.792 144.846 C 34.222 151.408, 36.746 159.812, 37.642 170.988 C 37.929 174.570, 38.573 178.625, 39.072 180 C 39.572 181.375, 40.174 189.025, 40.411 197 C 40.648 204.975, 41.156 213.392, 41.541 215.704 C 42.931 224.056, 48.973 225.322, 50 217.476 C 50.607 212.839, 52.617 211.862, 54.010 215.526 C 55.127 218.465, 56.894 218.540, 65.500 216.011 C 67.700 215.364, 70.723 214.598, 72.218 214.309 C 73.713 214.019, 75.455 213.156, 76.090 212.391 C 77.900 210.211, 81.423 210.754, 84.076 213.621 C 87.233 217.033, 94.179 220.024, 97.166 219.257 C 102.297 217.940, 104.948 214.871, 106.203 208.797 C 107.354 203.223, 107.754 202.677, 115.405 196.235 C 119.805 192.531, 124.504 188.488, 125.848 187.250 C 127.192 186.012, 128.564 185.007, 128.896 185.015 C 130.984 185.068, 134 190.434, 134 194.095 C 134 195.196, 134.900 197.959, 136 200.236 C 137.472 203.283, 138 206.422, 138 212.131 C 138 219.025, 138.248 220.061, 140.235 221.452 C 142.150 222.793, 142.293 223.301, 141.235 224.995 C 139.461 227.836, 139.712 231.423, 141.873 234.091 C 143.930 236.631, 144.902 236.499, 157.500 231.967 C 160.250 230.978, 164.213 229.930, 166.306 229.638 C 169.915 229.135, 194.190 231.257, 199.193 232.512 C 203.192 233.516, 209.265 230.884, 210.086 227.791 C 211.093 223.996, 209.330 222.910, 201.293 222.374 C 197.557 222.125, 192.055 221.489, 189.066 220.961 C 186.078 220.432, 181.465 220, 178.816 220 C 174.659 220, 174 219.725, 174 217.991 C 174 216.886, 176.450 212.261, 179.445 207.714 C 182.439 203.167, 185.329 197.492, 185.866 195.103 C 186.402 192.713, 187.327 190.273, 187.921 189.679 C 188.514 189.086, 189 185.151, 189 180.935 C 189 171.578, 187.303 168.817, 180.494 167.103 C 176.456 166.086, 174.942 166.255, 167.218 168.585 C 153.855 172.616, 146.385 176.355, 144.530 179.942 C 142.507 183.854, 140.557 183.823, 138.573 179.846 C 136.643 175.977, 136.593 174.129, 138.363 172.079 C 140.267 169.874, 153 148.164, 153 147.122 C 153 146.653, 154.532 143.171, 156.405 139.384 C 158.278 135.598, 160.598 130.025, 161.561 127 C 162.524 123.975, 163.683 120.600, 164.135 119.500 C 168.119 109.824, 170 100.589, 170 90.715 C 170 81.018, 168.411 78, 163.306 78 C 160.468 78, 158.455 79.204, 152.171 84.662 C 147.952 88.326, 144.350 91.701, 144.167 92.162 C 143.983 92.623, 143.042 93, 142.075 93 C 140.565 93, 140.414 92.400, 141.006 88.750 C 141.385 86.412, 142.178 82.700, 142.768 80.500 C 144.829 72.817, 145.239 64.005, 143.915 55.852 C 142.760 48.744, 142.308 47.694, 139.858 46.426 C 136.383 44.630, 134.878 44.632, 132.441 46.439 M 77 75.062 C 72.325 77.264, 66.925 79.977, 65 81.091 C 59.444 84.304, 54.891 86.146, 51.056 86.733 C 46.339 87.455, 45 88.656, 45 92.164 C 45 96.538, 48.105 99.359, 52.183 98.692 C 59.686 97.464, 65.722 95.344, 69.104 92.750 C 71.075 91.237, 73.262 90, 73.962 90 C 74.663 90, 76.727 88.691, 78.549 87.091 C 80.371 85.491, 84.386 83.448, 87.471 82.552 C 93.992 80.656, 96.129 77.773, 94.182 73.500 C 92.469 69.741, 87.294 70.212, 77 75.062 M 83.855 136.255 C 81.461 138.287, 81.155 139.353, 80.637 147.500 C 80.322 152.450, 80.451 157.123, 80.925 157.885 C 82.169 159.888, 86.417 158.539, 88.400 155.512 C 90.404 152.454, 93.908 152.244, 96.300 155.037 C 97.978 156.998, 97.925 157.248, 94.906 161.637 C 89.880 168.942, 80.297 171.381, 74.509 166.829 C 71.763 164.668, 71.751 164.609, 72.222 154.829 C 72.595 147.098, 72.413 145, 71.371 145 C 68.227 145, 66.510 150.294, 65.385 163.453 C 64.771 170.629, 63.934 178.188, 63.523 180.250 C 62.865 183.559, 63.007 184, 64.733 184 C 65.809 184, 69.257 181.753, 72.395 179.006 C 75.534 176.260, 79.204 173.736, 80.551 173.398 C 84.428 172.425, 87.969 173.789, 89.068 176.679 C 90.348 180.046, 87.983 182.718, 79.553 187.434 C 76.224 189.296, 71.751 192.210, 69.612 193.910 C 67.474 195.609, 64.766 197, 63.595 197 C 60.335 197, 53.820 192.187, 54.367 190.183 C 55.223 187.042, 56.105 180.937, 57.036 171.705 C 57.547 166.642, 58.248 161.043, 58.594 159.262 C 59.082 156.750, 58.840 155.876, 57.515 155.368 C 56.301 154.902, 54.643 155.982, 51.782 159.106 L 47.757 163.500 47.930 172.322 C 48.026 177.174, 48.540 182.291, 49.074 183.694 C 49.656 185.224, 49.681 186.694, 49.137 187.372 C 48.365 188.334, 49.713 207.672, 50.637 208.881 C 50.797 209.090, 53.307 208.329, 56.214 207.189 C 59.121 206.048, 64.186 204.587, 67.469 203.941 C 70.753 203.296, 74.803 201.749, 76.469 200.504 C 78.136 199.259, 81.741 197.918, 84.480 197.524 C 87.219 197.131, 90.600 195.997, 91.993 195.005 C 93.386 194.013, 95.645 193.043, 97.013 192.851 C 99.158 192.548, 99.521 191.950, 99.650 188.500 C 99.733 186.300, 100.136 178.592, 100.546 171.372 C 101.169 160.395, 100.995 156.954, 99.485 150.372 C 97.355 141.090, 95.814 137.683, 92.783 135.561 C 89.702 133.403, 86.965 133.615, 83.855 136.255 M 170.500 178.503 C 168.850 179.260, 164.988 180.619, 161.918 181.523 C 154.816 183.616, 149.219 186.784, 146.757 190.105 C 145.066 192.386, 144.972 193.195, 145.997 196.605 C 147.661 202.136, 148.327 217.520, 147.010 219.981 C 146.053 221.770, 146.231 222, 148.575 222 C 153.190 222, 162.323 216.335, 166.304 211.002 C 173.250 201.698, 179.622 186.616, 178.499 182.139 C 177.185 176.904, 175.580 176.174, 170.500 178.503 M 93.094 204.896 C 90.294 207.047, 90.818 210, 94 210 C 96.056 210, 96.638 209.201, 97.202 205.604 C 97.614 202.984, 95.955 202.698, 93.094 204.896" stroke="none" fill="black" fill-rule="evenodd"/>
</svg>