<svg xmlns="http://www.w3.org/2000/svg" width="300" height="300" viewBox="0 0 300 300" version="1.1">
	<path d="M 65 12.500 L 59.568 18 53.034 18.015 C 44.911 18.034, 43.808 18.687, 44.303 23.180 C 44.845 28.093, 45.572 28.908, 50.057 29.625 C 54.556 30.344, 54.950 31.784, 51.938 36.500 C 50.884 38.150, 49.723 40.175, 49.359 41 C 48.994 41.825, 47.189 44.639, 45.348 47.252 C 41.527 52.676, 41.104 56.591, 43.948 60.207 C 45.099 61.670, 45.676 63.524, 45.358 64.739 C 45.062 65.870, 45.552 67.913, 46.446 69.278 C 47.341 70.643, 48.524 74.561, 49.075 77.985 C 50.029 83.910, 49.952 84.374, 47.470 87.628 C 44.142 91.991, 44.525 94.500, 48.518 94.500 C 51.089 94.500, 51.547 94.913, 51.838 97.500 C 52.025 99.150, 52.618 101.034, 53.158 101.686 C 53.802 102.465, 53.776 103.549, 53.082 104.846 C 52.296 106.315, 52.405 107.548, 53.507 109.660 C 55.458 113.402, 55.391 114.233, 52.884 117.420 C 50.113 120.943, 45.672 120.718, 45.151 117.028 C 44.960 115.669, 44.172 113.656, 43.401 112.556 C 42.631 111.455, 42 109.794, 42 108.865 C 42 106.871, 37.123 99.337, 31.500 92.645 C 26.916 87.190, 20.228 83.764, 15.018 84.203 C 12.084 84.451, 11.451 84.924, 11.202 87.055 C 10.823 90.309, 14.443 95, 17.333 95 C 20.136 95, 23.732 98.364, 29.360 106.252 C 33.872 112.575, 38 121.491, 38 124.915 C 38 127.810, 40.767 129.626, 43.028 128.215 C 44.590 127.239, 45.210 127.452, 46.841 129.525 C 47.912 130.886, 49.536 132, 50.450 132 C 51.364 132, 54.834 129.797, 58.162 127.105 C 63.613 122.694, 64.868 122.140, 70.856 121.500 C 77.224 120.819, 77.700 120.576, 82.307 115.645 C 87.369 110.226, 91 104.253, 91 101.345 C 91 100.390, 92.058 98.460, 93.352 97.055 C 96.416 93.725, 101 81.960, 101 77.424 C 101 73.291, 99.779 70.597, 96.138 66.695 C 93.627 64.004, 93.169 63.898, 84.883 64.080 C 75.571 64.285, 74 63.854, 74 61.096 C 74 58.759, 70.893 56, 68.260 56 C 65.877 56, 61 61.297, 61 63.886 C 61 64.838, 61.661 66.491, 62.468 67.559 C 64.445 70.173, 64.366 70.734, 61.829 72.091 C 60.030 73.054, 59.431 72.942, 58.329 71.435 C 57.598 70.436, 56.986 68.466, 56.968 67.059 C 56.951 65.651, 56.276 63.626, 55.468 62.559 C 53.406 59.832, 53.499 59.647, 58.250 57.004 C 63.533 54.066, 74.631 43.101, 76.019 39.449 C 77.221 36.288, 75.114 32.104, 71.898 31.263 C 70.854 30.990, 70 30.351, 70 29.844 C 70 28.415, 73.561 21.879, 76.422 18.056 C 77.840 16.161, 79 13.832, 79 12.878 C 79 10.850, 74.469 7, 72.081 7 C 71.174 7, 67.987 9.475, 65 12.500 M 153.539 36.937 C 152.819 38.101, 147.104 41, 145.527 41 C 144.886 41, 141.949 42.800, 139 45 C 136.051 47.200, 132.972 49, 132.157 49 C 131.342 49, 128.836 50.070, 126.588 51.379 C 124.340 52.687, 121.043 54.072, 119.261 54.456 C 117.480 54.840, 115.738 55.615, 115.389 56.179 C 115.041 56.743, 113.236 57.839, 111.378 58.615 C 108.655 59.753, 108 60.583, 108 62.891 C 108 67.503, 110.173 68.586, 116.311 67.036 C 119.165 66.315, 122.652 64.917, 124.061 63.929 C 125.470 62.941, 127.945 61.815, 129.561 61.427 C 131.177 61.039, 135.112 59.209, 138.304 57.361 C 147.515 52.026, 148.961 53.313, 143.513 62 C 138.912 69.336, 136 75.141, 136 76.976 C 136 78.024, 135.495 79.194, 134.877 79.576 C 134.159 80.020, 133.961 82.024, 134.328 85.126 C 134.818 89.262, 134.615 90.136, 132.952 91.026 C 131.177 91.976, 131 93.196, 131 104.521 C 131 111.369, 131.446 118.890, 131.991 121.236 C 134.773 133.203, 139.067 172.548, 139.333 188.500 C 139.586 203.684, 138.077 281.514, 137.433 286.500 C 136.990 289.930, 136.063 292.128, 134.479 293.500 C 133.210 294.600, 132.020 296.400, 131.836 297.500 C 131.529 299.328, 132.133 299.525, 138.870 299.796 L 146.241 300.092 145.757 296.797 C 145.491 294.984, 145.913 287.875, 146.695 281 C 147.478 274.125, 148.018 261.525, 147.895 253 C 147.772 244.475, 147.941 225.125, 148.270 210 C 148.902 180.914, 147.923 157.052, 145.523 143 C 143.123 128.951, 141.756 112.269, 142.945 111.534 C 143.297 111.316, 145.752 111.851, 148.399 112.722 C 152.891 114.201, 153.420 114.187, 156.356 112.512 C 160.504 110.144, 165 105.932, 165 104.413 C 165 103.746, 166.509 101.691, 168.354 99.846 C 171.101 97.099, 171.841 95.426, 172.444 90.602 C 173.170 84.794, 173.131 84.664, 169.624 81.157 L 166.067 77.601 159.284 79.398 C 155.553 80.386, 150.521 81.426, 148.103 81.710 L 143.705 82.225 144.371 78.862 C 144.738 77.013, 146.379 73.626, 148.019 71.337 C 149.659 69.047, 151 66.668, 151 66.051 C 151 64.743, 153.175 61.233, 157.740 55.173 C 159.533 52.794, 161 50.275, 161 49.576 C 161 48.878, 161.900 47.268, 163 46 C 165.612 42.988, 165.526 40.843, 162.686 38.174 C 160.321 35.953, 154.624 35.182, 153.539 36.937 M 76.697 76.268 C 74.606 77.496, 71.988 79.940, 70.881 81.699 L 68.868 84.898 71.434 87.130 C 74.381 89.692, 74.809 93.836, 72.492 97.373 C 71.111 99.479, 71.153 99.829, 72.992 101.492 C 74.096 102.492, 75 103.915, 75 104.655 C 75 107.211, 79 106.110, 80.106 103.250 C 80.690 101.737, 81.860 99.150, 82.705 97.500 C 83.549 95.850, 85.562 91.918, 87.178 88.762 C 89.364 84.492, 90.037 81.933, 89.808 78.762 L 89.500 74.500 85 74.268 C 81.829 74.105, 79.377 74.695, 76.697 76.268 M 152 92.110 C 150.625 92.675, 147.588 92.854, 145.250 92.507 C 141.232 91.912, 141 92.012, 141 94.335 C 141 97.756, 147.321 103.217, 150.807 102.807 C 153.580 102.481, 160.391 94.690, 159.713 92.620 C 159.220 91.116, 155.084 90.842, 152 92.110 M 71.667 108.667 C 70.290 110.043, 71.073 112, 73 112 C 74.333 112, 75 111.333, 75 110 C 75 108.073, 73.043 107.290, 71.667 108.667 M 82.974 130.080 C 78.028 135.074, 73.455 138.985, 72.812 138.771 C 71.535 138.345, 70.915 137.354, 68.470 131.827 C 66.629 127.664, 64.441 126.389, 62.254 128.204 C 61.041 129.210, 60.888 131.014, 61.439 137.798 L 62.117 146.154 58.447 149.615 C 54.827 153.029, 41.763 162, 40.411 162 C 40.029 162, 36.896 163.781, 33.450 165.957 C 30.004 168.134, 23.066 171.995, 18.033 174.537 C 9.638 178.778, 8.908 179.380, 9.191 181.830 C 9.476 184.291, 9.902 184.523, 14.641 184.798 C 19.443 185.077, 20.730 184.569, 34.153 177.092 C 42.057 172.689, 50.069 167.492, 51.958 165.543 C 55.273 162.123, 58 160.961, 58 162.970 C 58 164.286, 54.337 170.788, 51.400 174.683 C 50.080 176.434, 49 178.183, 49 178.570 C 49 179.650, 40.206 192.755, 38.968 193.520 C 38.368 193.891, 37.462 195.284, 36.956 196.615 C 36.450 197.947, 35.015 199.465, 33.768 199.991 C 29.727 201.692, 24.790 206.679, 25.196 208.650 C 25.769 211.430, 32.906 210.801, 35.244 207.765 C 36.203 206.519, 37.328 205.179, 37.744 204.787 C 38.160 204.395, 41.053 201.695, 44.173 198.787 C 47.293 195.879, 50.826 191.588, 52.024 189.250 C 53.222 186.912, 54.651 185, 55.200 185 C 55.749 185, 57.525 183.579, 59.148 181.841 L 62.099 178.683 71.799 179.740 C 78.195 180.437, 83.501 181.683, 87.374 183.399 C 90.605 184.829, 94.016 186, 94.953 186 C 96.937 186, 114 197.659, 114 199.015 C 114 199.518, 114.878 200.400, 115.951 200.974 C 117.547 201.828, 118.366 201.517, 120.451 199.269 C 121.853 197.757, 123 195.448, 123 194.136 C 123 189.171, 106.453 178.158, 94.406 175.104 C 78.688 171.119, 74.148 170.618, 70.636 172.481 C 65.705 175.096, 64.730 174.575, 65.521 169.750 C 65.904 167.412, 66.749 164.825, 67.398 164 C 69.053 161.897, 72 155.207, 72 153.553 C 72 152.794, 73.885 150.786, 76.190 149.092 C 87.205 140.991, 98 130.598, 98 128.093 C 98 126.055, 94.373 121, 92.912 121 C 92.393 121, 87.921 125.086, 82.974 130.080" stroke="none" fill="black" fill-rule="evenodd"/>
</svg>