<svg xmlns="http://www.w3.org/2000/svg" width="300" height="300" viewBox="0 0 300 300" version="1.1">
	<path d="M 146.750 20.060 C 145.787 20.632, 145 21.549, 145 22.098 C 145 22.647, 144.100 24.959, 143 27.236 C 141.900 29.513, 141 32.613, 141 34.126 C 141 37.769, 138.096 50.259, 136.985 51.395 C 136.503 51.888, 133.829 53.094, 131.042 54.075 C 125.765 55.934, 119.020 59.792, 113.867 63.899 C 111.450 65.825, 110.979 66.809, 111.472 68.899 C 111.809 70.329, 113.025 72.295, 114.174 73.266 C 116.196 74.977, 116.496 74.906, 123.708 71.016 C 132.703 66.164, 134.268 65.960, 133.429 69.750 C 132.538 73.776, 130.977 79.210, 130.055 81.500 C 128.678 84.920, 125.999 94.604, 126.020 96.088 C 126.043 97.699, 119.230 119.601, 117.886 122.236 C 117.399 123.191, 117 124.450, 117 125.032 C 117 125.615, 115.012 130.234, 112.583 135.296 C 107.849 145.159, 100 163.779, 100 165.145 C 100 166.529, 91.657 180, 90.799 180 C 89.079 180, 90.187 174.211, 93 168.500 C 94.625 165.200, 95.965 162.185, 95.978 161.800 C 96.003 161.006, 90.051 152, 89.501 152 C 88.197 152, 86 155.570, 86 157.687 C 86 160.697, 83.310 169.458, 81.297 173 C 80.516 174.375, 79.627 176.287, 79.322 177.250 C 79.016 178.212, 78.369 179, 77.883 179 C 76.875 179, 76.723 177.296, 76.858 167.500 C 77.136 147.279, 77.270 145.927, 79.247 143.413 C 80.811 141.425, 80.954 140.650, 79.974 139.469 C 79.304 138.661, 77.685 138, 76.378 138 C 74.335 138, 74 137.515, 74 134.559 C 74 132.666, 74.399 130.871, 74.887 130.570 C 75.374 130.269, 76.067 128.455, 76.426 126.540 C 76.786 124.626, 78.187 121.743, 79.540 120.135 C 82.139 117.046, 82.684 113.146, 80.965 109.934 C 79.185 106.609, 76.344 107.727, 71.308 113.734 C 68.663 116.888, 65.037 120.908, 63.250 122.667 C 59.390 126.466, 59.013 130.320, 62.172 133.683 C 63.926 135.551, 64.353 137.240, 64.389 142.466 C 64.429 148.290, 64.141 149.244, 61.505 151.995 C 59.893 153.677, 57.209 155.407, 55.539 155.840 C 51.615 156.856, 50.184 160.522, 52.125 164.583 C 54.083 168.681, 57.298 168.856, 61.083 165.070 C 64.070 162.084, 65.920 161.224, 66.077 162.750 C 66.119 163.162, 66.350 164.850, 66.590 166.500 C 67.942 175.799, 68.096 183.180, 66.965 184.542 C 65.070 186.826, 61.219 186.263, 57.191 183.114 C 53.540 180.259, 52.498 179.892, 42.250 177.848 C 38.719 177.144, 37 176.311, 37 175.303 C 37 173.965, 42.883 160.795, 46.586 153.846 C 47.364 152.386, 48 150.461, 48 149.567 C 48 148.674, 49.285 145.368, 50.856 142.221 C 52.427 139.075, 54.037 135.150, 54.434 133.500 C 54.831 131.850, 55.840 129.741, 56.676 128.813 C 57.512 127.885, 57.895 126.639, 57.528 126.045 C 57.160 125.450, 57.767 123.496, 58.875 121.702 C 59.984 119.908, 61.340 116.654, 61.889 114.470 C 62.437 112.287, 63.392 108.700, 64.011 106.500 C 64.629 104.300, 65.594 100.250, 66.156 97.500 C 66.718 94.750, 67.536 92.050, 67.976 91.500 C 68.415 90.950, 69.085 88.613, 69.465 86.308 C 69.845 84.002, 70.761 81.613, 71.500 81 C 73.520 79.324, 76.857 81.834, 77.972 85.868 C 79.028 89.686, 81.663 93, 83.642 93 C 85.454 93, 88 86.592, 88 82.033 C 88 79.580, 87.318 77.693, 86 76.500 C 84.900 75.505, 84 74.175, 84 73.544 C 84 72.914, 81.969 71.115, 79.486 69.546 L 74.972 66.692 75.601 61.596 C 75.947 58.793, 76.796 55.590, 77.488 54.479 C 78.180 53.367, 78.982 50.667, 79.271 48.479 C 79.559 46.290, 80.341 42.700, 81.008 40.500 C 81.675 38.300, 82.437 34.646, 82.701 32.379 C 83.153 28.497, 83 28.196, 80.062 27.172 C 75.832 25.697, 74.547 26.401, 72.516 31.309 C 69.531 38.521, 69.370 39.148, 66.577 54.500 C 63.544 71.170, 63.201 72.671, 59.486 85.500 C 58.052 90.450, 56.404 96.300, 55.823 98.500 C 54.276 104.352, 51.892 112.134, 50.766 115 C 50.226 116.375, 48.929 120.159, 47.883 123.408 C 46.838 126.658, 45.591 129.808, 45.113 130.408 C 44.636 131.009, 43.915 132.625, 43.511 134 C 42.600 137.105, 40.274 142.647, 38.410 146.154 C 37.635 147.614, 36.998 149.639, 36.996 150.654 C 36.994 151.669, 36.094 153.973, 34.996 155.774 C 33.898 157.575, 33 159.657, 33 160.402 C 33 161.146, 32.325 162.315, 31.500 163 C 30.675 163.685, 30 165.071, 30 166.080 C 30 167.089, 27.909 171.871, 25.353 176.707 C 22.797 181.543, 17.341 192.025, 13.229 200 C 9.117 207.975, 5.378 214.972, 4.920 215.550 C 4.462 216.127, 3.787 218.482, 3.419 220.783 C 2.894 224.065, 3.083 225.095, 4.297 225.560 C 6.672 226.472, 9.780 224.323, 12.027 220.217 C 13.145 218.172, 15.220 214.475, 16.639 212 C 18.057 209.525, 20.357 205.283, 21.750 202.574 C 23.143 199.864, 25.794 195.667, 27.641 193.247 C 29.489 190.827, 31 188.036, 31 187.046 C 31 186.055, 31.688 184.674, 32.529 183.976 C 33.790 182.929, 34.449 183.051, 36.279 184.669 C 39.817 187.795, 43.773 190, 45.843 190 C 46.895 190, 49.371 190.675, 51.346 191.500 C 53.320 192.325, 57.214 193, 59.999 193 C 66.668 193, 67.193 194.544, 63.196 202.410 C 59.591 209.507, 57.223 211.894, 47.250 218.479 C 40.796 222.740, 40.003 223.608, 40.032 226.383 C 40.049 228.097, 40.661 230.287, 41.392 231.250 C 42.822 233.133, 48.471 233.666, 49.492 232.013 C 50.298 230.708, 68.390 218.830, 73.567 216.207 C 75.804 215.074, 78.197 213.467, 78.886 212.637 C 79.575 211.808, 81.570 210.825, 83.319 210.453 C 85.069 210.081, 87.175 209.211, 88 208.519 C 89.396 207.349, 91.477 206.696, 98.142 205.342 C 101.545 204.650, 108.299 197.777, 107.845 195.468 C 107.199 192.181, 104.578 191.504, 99.347 193.273 C 89.828 196.492, 85.452 198.112, 82.169 199.630 C 80.337 200.478, 78.654 200.988, 78.430 200.763 C 78.206 200.539, 79.317 198.315, 80.898 195.821 C 82.480 193.327, 84.067 190.364, 84.425 189.236 C 84.783 188.108, 85.734 186.932, 86.538 186.624 C 87.342 186.315, 88 185.175, 88 184.090 C 88 182.062, 89.691 180.358, 90.701 181.368 C 91.014 181.680, 90.718 183.267, 90.044 184.894 C 88.575 188.440, 89.478 192, 91.845 192 C 94.656 192, 98 189.048, 98 186.566 C 98 185.289, 98.624 183.727, 99.388 183.093 C 101.175 181.610, 106.532 170.407, 107.448 166.236 C 107.836 164.469, 108.569 162.766, 109.077 162.452 C 109.585 162.139, 110 161.078, 110 160.096 C 110 159.114, 110.900 157.495, 112 156.500 C 113.100 155.505, 114 154.099, 114 153.376 C 114 151.764, 117.875 144.195, 119.083 143.449 C 122.117 141.573, 129.755 153.964, 130.636 162.192 C 131.480 170.067, 133.115 173.991, 135.836 174.674 C 137.730 175.149, 138.803 174.727, 140.254 172.935 C 141.921 170.876, 142.083 169.585, 141.499 162.991 L 140.828 155.413 145.300 151.291 C 150.139 146.831, 155.566 143.613, 156.880 144.426 C 157.331 144.705, 158.031 148.436, 158.435 152.717 C 158.839 156.997, 159.393 162.750, 159.667 165.500 C 160.941 178.308, 160.330 287.628, 158.963 291.500 C 158.575 292.600, 158.475 294.963, 158.742 296.750 C 159.199 299.815, 159.463 300, 163.363 299.999 L 167.500 299.998 167.494 287.749 C 167.490 281.012, 167.715 275.050, 167.994 274.500 C 168.272 273.950, 168.554 270.800, 168.619 267.500 C 168.685 264.200, 169.006 256.068, 169.334 249.428 C 169.661 242.788, 169.994 225.238, 170.073 210.428 C 170.161 193.930, 170.609 183.016, 171.230 182.250 C 171.788 181.563, 173.584 181, 175.221 181 C 177.287 181, 179.122 180.010, 181.219 177.766 C 184.698 174.042, 190.048 163.103, 192.467 154.768 C 193.382 151.616, 194.493 148.814, 194.934 148.541 C 196.281 147.708, 197.110 134.802, 196.144 129.690 C 195.008 123.676, 191.745 120, 187.541 120 C 184.299 120, 175.830 122.697, 170.263 125.502 C 168.482 126.400, 166.637 126.894, 166.162 126.600 C 165.687 126.307, 164.996 121.214, 164.626 115.283 C 163.431 96.125, 163.176 95.052, 159.408 93.255 C 156.577 91.905, 155.854 91.876, 154.431 93.058 C 152.989 94.254, 152.846 95.922, 153.369 105.470 C 153.701 111.536, 154.350 119.175, 154.810 122.445 C 155.979 130.734, 155.386 132.812, 151.376 134.487 C 147.267 136.204, 141.231 140.504, 138.432 143.709 C 136.094 146.386, 133 145.941, 133 142.928 C 133 140.658, 127.329 134, 125.396 134 C 123.790 134, 123.574 131.764, 124.936 129.236 C 127.798 123.924, 129 120.290, 129 116.948 C 129 114.792, 130.055 111.358, 131.488 108.852 C 132.856 106.458, 133.981 103.256, 133.988 101.736 C 134 98.978, 134.187 98.443, 137.331 92.169 C 138.249 90.337, 139 88.081, 139 87.155 C 139 86.229, 139.970 83.003, 141.155 79.986 C 142.341 76.969, 143.507 72.143, 143.747 69.262 C 144.204 63.784, 143.950 64.119, 152.807 57.320 C 154.369 56.121, 158.539 54.173, 162.074 52.991 C 165.608 51.809, 168.928 50.428, 169.450 49.921 C 169.972 49.415, 171.126 49, 172.013 49 C 174.433 49, 178.878 43.861, 179.606 40.220 C 180.116 37.671, 179.698 36.293, 177.573 33.507 C 174.285 29.196, 173.130 29.101, 172.335 33.076 C 171.919 35.157, 170.545 36.893, 168.090 38.443 C 162.694 41.850, 151.673 46.073, 150.705 45.105 C 150.240 44.640, 150.394 40.039, 151.047 34.880 C 152.857 20.578, 152.820 19.538, 150.500 19.260 C 149.400 19.128, 147.713 19.488, 146.750 20.060 M 179 133.525 C 176.525 134.220, 173.275 135.270, 171.778 135.859 C 168.398 137.188, 165.544 143.279, 167.013 146.025 C 167.556 147.039, 168 150.958, 168 154.734 C 168 158.510, 168.415 162.027, 168.923 162.550 C 169.431 163.072, 169.993 164.850, 170.173 166.500 C 170.414 168.712, 171.083 169.583, 172.722 169.816 C 174.615 170.085, 175.470 168.991, 178.506 162.418 C 183.796 150.965, 186.162 142.867, 185.808 137.416 C 185.639 134.798, 185.050 132.568, 184.500 132.459 C 183.950 132.350, 181.475 132.830, 179 133.525" stroke="none" fill="black" fill-rule="evenodd"/>
</svg>