<svg xmlns="http://www.w3.org/2000/svg" width="300" height="300" viewBox="0 0 300 300" version="1.1">
	<path d="M 52.121 27.250 C 49.596 32.932, 45 47.469, 45 49.774 C 45 50.788, 44.339 52.491, 43.532 53.559 C 42.724 54.626, 42.036 56.850, 42.002 58.500 C 41.967 60.150, 40.825 65.550, 39.463 70.500 C 38.101 75.450, 36.494 81.525, 35.893 84 C 35.291 86.475, 33.950 90.395, 32.912 92.712 C 31.875 95.029, 30.549 99.051, 29.966 101.650 C 29.384 104.249, 27.552 109.554, 25.895 113.438 C 24.238 117.322, 22.406 121.625, 21.825 123 C 21.243 124.375, 20.426 126.190, 20.010 127.033 C 19.595 127.876, 18.937 130.008, 18.550 131.771 C 18.163 133.534, 17.431 135.234, 16.923 135.548 C 16.415 135.861, 15.985 136.879, 15.966 137.809 C 15.947 138.739, 15.063 141.300, 14 143.500 C 12.937 145.700, 12.053 148.047, 12.034 148.716 C 12.015 149.385, 11.275 151.635, 10.389 153.716 C 9.503 155.797, 8.208 158.850, 7.511 160.500 C 6.813 162.150, 4.838 166.480, 3.121 170.123 C 0.146 176.435, 0.005 177.302, 0.100 188.623 C 0.182 198.234, 0.377 199.746, 1.126 196.550 C 1.635 194.378, 2.648 191.903, 3.377 191.050 C 4.106 190.198, 5.721 186.800, 6.968 183.500 C 8.214 180.200, 9.634 176.825, 10.123 176 C 10.612 175.175, 11.258 173.825, 11.558 173 C 11.858 172.175, 13.413 168.800, 15.014 165.500 C 18.117 159.103, 22.409 148.512, 27.169 135.501 C 28.779 131.101, 30.729 126.537, 31.502 125.357 C 32.275 124.177, 33.827 120.482, 34.951 117.145 C 36.075 113.809, 37.627 109.599, 38.399 107.790 C 39.172 105.980, 40.578 101.800, 41.526 98.500 C 44.129 89.429, 44.027 89.538, 49.585 89.877 C 55.171 90.218, 56.990 91.318, 57.022 94.372 C 57.055 97.514, 60.402 101.443, 62.395 100.679 C 63.303 100.330, 64.192 99.473, 64.371 98.773 C 64.550 98.073, 65.196 95.983, 65.807 94.129 C 66.731 91.325, 66.604 90.148, 65.056 87.129 C 62.037 81.243, 58.701 78.774, 53.033 78.229 C 49.869 77.925, 48 77.271, 48 76.469 C 48 75.766, 49.122 71.886, 50.493 67.846 C 51.864 63.806, 52.989 59.910, 52.993 59.188 C 52.997 58.467, 54.094 55.542, 55.431 52.688 C 62.359 37.902, 63.853 28.853, 60 25 C 56.739 21.739, 54.256 22.448, 52.121 27.250 M 131.500 58.898 C 129.300 60.591, 126.918 62.467, 126.207 63.068 C 124.326 64.656, 100.666 78, 99.731 78 C 98.879 78, 89.926 84.571, 86.250 87.894 C 83.597 90.293, 83.189 95.475, 85.582 96.393 C 88.653 97.571, 91.762 96.972, 95.405 94.500 C 97.431 93.125, 99.450 92, 99.891 92 C 100.332 92, 102.106 91.295, 103.834 90.433 C 107.881 88.414, 109.381 89.352, 108.525 93.368 C 106.968 100.667, 106.850 107.296, 108.005 122.445 C 109.100 136.811, 109.534 183.301, 108.588 184.876 C 108.381 185.219, 107.932 195.175, 107.590 207 C 106.921 230.127, 107.393 233.190, 111.730 233.814 C 113.466 234.063, 114.084 233.452, 114.765 230.814 C 115.537 227.825, 116.057 227.442, 120.061 226.912 C 122.502 226.589, 127.294 225.716, 130.708 224.971 C 135.790 223.863, 137.352 223.851, 139.320 224.903 C 141.819 226.241, 143.875 225.601, 148.204 222.137 C 149.141 221.387, 151.993 220.633, 154.543 220.461 C 159.958 220.096, 163 217.788, 163 214.045 C 163 210.419, 161.273 209, 156.859 209 C 154.801 209, 152.886 208.624, 152.602 208.165 C 152.020 207.224, 153.218 197.421, 155.371 185.500 C 157.904 171.477, 159.398 146.386, 158.169 138.500 C 156.340 126.767, 155.969 125.637, 152.077 119.974 C 148.415 114.644, 148.179 114.492, 143.116 114.196 C 137.922 113.893, 137.910 113.899, 130.958 120.610 C 125.638 125.747, 124 127.980, 124 130.099 C 124 134.568, 122.273 138, 120.025 138 C 118.141 138, 117.989 137.322, 117.843 128.250 C 117.757 122.888, 117.546 117.150, 117.374 115.500 C 117.026 112.172, 116.968 90.382, 117.293 85.188 C 117.476 82.259, 118.310 81.357, 124.500 77.400 C 128.350 74.939, 132.850 72.336, 134.500 71.614 C 144.922 67.059, 147.611 57.784, 138.919 56.375 C 136.139 55.924, 134.753 56.395, 131.500 58.898 M 47.553 124.500 C 43.938 128.115, 42.366 129, 39.561 129 C 32.866 129, 32.328 137.035, 38.926 138.484 C 41.073 138.955, 42.452 140.149, 43.570 142.507 C 45.038 145.599, 45.028 146.140, 43.440 149.486 C 41.867 152.801, 38.622 155.786, 33.567 158.569 C 30.147 160.452, 29.467 162.538, 31.342 165.399 C 33.483 168.667, 36.018 168.697, 39.818 165.500 C 41.452 164.125, 43.794 163, 45.024 163 C 47.193 163, 47.239 163.213, 46.590 170.250 C 46.006 176.575, 45.541 177.851, 42.945 180.250 C 39.334 183.586, 35.472 183.791, 29.890 180.944 C 27.404 179.676, 24.449 179.005, 22.180 179.194 C 18.705 179.483, 18.509 179.685, 18.655 182.816 C 18.963 189.430, 24.829 192.461, 36.091 191.825 C 40.245 191.590, 43 191.829, 43 192.424 C 43 194.368, 30.312 205.750, 25.451 208.167 C 21.303 210.229, 20.347 211.239, 19.555 214.393 C 18.447 218.803, 19.595 221.336, 22.925 221.829 C 25.204 222.167, 31.326 219.751, 34 217.459 C 35.614 216.076, 46.600 212, 48.714 212 C 51.153 212, 68.508 203.748, 71.055 201.378 C 72.460 200.070, 74.055 199, 74.599 199 C 76.735 199, 84.046 191.022, 84.642 188.040 C 85.249 185.004, 83.056 181, 80.785 181 C 80.287 181, 77.512 183.239, 74.618 185.977 C 71.724 188.714, 67.814 191.666, 65.928 192.537 C 64.043 193.407, 61.375 194.761, 60 195.545 C 55.139 198.317, 52.342 196.753, 55.282 192.906 C 55.952 192.029, 59.814 187.668, 63.864 183.213 C 67.914 178.759, 71.852 173.912, 72.614 172.443 C 74.673 168.474, 74.400 163.284, 72.066 162.035 C 68.765 160.268, 66.878 160.858, 62.286 165.091 C 59.845 167.341, 57.582 168.915, 57.256 168.590 C 56.931 168.264, 56.582 164.961, 56.482 161.249 C 56.223 151.693, 55.094 145.136, 52.899 140.434 C 50.653 135.626, 50.504 133.392, 52.356 132.300 C 53.102 131.860, 54.509 129.799, 55.484 127.720 C 57.182 124.099, 57.181 123.858, 55.473 121.970 C 54.492 120.887, 53.322 120, 52.871 120 C 52.421 120, 50.028 122.025, 47.553 124.500 M 134.355 131.887 C 131.087 135.125, 127.533 137.942, 126.457 138.147 C 125.343 138.360, 124.362 139.486, 124.180 140.762 C 124.004 141.995, 122.879 143.521, 121.680 144.152 C 118.585 145.781, 118.431 146.217, 118.665 152.691 C 118.780 155.886, 118.476 162.100, 117.990 166.500 C 117.503 170.900, 116.881 182.488, 116.607 192.250 C 116.125 209.414, 116.173 210, 118.079 210 C 119.239 210, 120.425 210.988, 120.963 212.403 C 122.286 215.884, 123.069 216.075, 129.080 214.385 C 132.061 213.547, 136.018 212.477, 137.872 212.008 C 139.727 211.539, 141.613 210.783, 142.064 210.328 C 143.987 208.386, 147.481 180.103, 145.984 178.592 C 145.446 178.050, 144.462 178.201, 143.537 178.969 C 142.532 179.803, 140.632 180.037, 138.122 179.635 C 134.980 179.133, 133.542 179.500, 130.457 181.593 C 122.901 186.722, 117.763 184.224, 121.500 177.239 C 123.047 174.346, 125.072 172.730, 130.446 170.097 C 137.599 166.592, 140.528 166.059, 145.206 167.412 C 148.672 168.415, 149.006 167.162, 149.181 152.500 C 149.322 140.624, 148.505 134.369, 146.504 132 C 145.807 131.175, 144.928 129.488, 144.551 128.250 C 143.447 124.626, 140.692 125.609, 134.355 131.887" stroke="none" fill="black" fill-rule="evenodd"/>
</svg>