<svg xmlns="http://www.w3.org/2000/svg" width="300" height="300" viewBox="0 0 300 300" version="1.1">
	<path d="M 131.250 14.527 C 128.569 16.418, 128.254 20.932, 130.559 24.450 C 132.492 27.400, 131.583 38.271, 129.241 40.215 C 128.413 40.902, 124.758 42.606, 121.118 44.003 C 114.576 46.513, 114.497 46.588, 114.200 50.607 C 113.801 56.034, 115.801 57.835, 120.387 56.177 C 125.583 54.298, 125.742 54.477, 125.833 62.307 C 125.885 66.775, 126.514 70.757, 127.453 72.557 C 128.297 74.176, 128.990 76.047, 128.994 76.715 C 128.997 77.383, 130.012 78.438, 131.250 79.059 C 132.488 79.680, 134.489 81.362, 135.698 82.796 C 137.852 85.351, 137.938 85.366, 139.948 83.547 C 141.077 82.526, 142 81.306, 142 80.836 C 142 80.367, 143.350 78.119, 145 75.841 C 146.650 73.564, 148 71.270, 148 70.744 C 148 70.219, 149.052 68.539, 150.337 67.011 C 151.622 65.484, 153.689 61.076, 154.931 57.216 C 157.110 50.439, 157.128 50.072, 155.466 46.569 C 153.829 43.119, 153.832 42.843, 155.527 40.970 C 156.508 39.887, 157.875 39, 158.566 39 C 160.081 39, 165.023 33.324, 164.945 31.673 C 164.914 31.028, 163.512 29.410, 161.829 28.078 C 159.370 26.132, 158.447 25.884, 157.134 26.813 C 156.235 27.450, 154.150 28.584, 152.500 29.334 C 150.850 30.083, 148.085 31.890, 146.356 33.348 C 142.347 36.729, 139.568 36.923, 140.590 33.750 C 142.019 29.312, 141.358 20.616, 139.316 17 C 137.066 13.014, 134.508 12.230, 131.250 14.527 M 70.500 23.573 C 68.196 25.312, 68.258 25.040, 66.966 39.328 C 66.427 45.284, 65.540 50.992, 64.993 52.013 C 64.447 53.033, 64 54.814, 64 55.969 C 64 57.125, 63.391 59.067, 62.647 60.285 C 61.903 61.503, 60.744 65.200, 60.072 68.500 C 58.349 76.965, 56.954 82.214, 55.883 84.268 C 55.085 85.797, 50.794 98.547, 42.848 123 C 41.686 126.575, 40.196 130.400, 39.536 131.500 C 38.877 132.600, 37.532 135.975, 36.548 139 C 35.564 142.025, 34.454 145.175, 34.082 146 C 33.710 146.825, 32.664 149.975, 31.757 153 C 27.813 166.157, 22.702 182.659, 22.001 184.500 C 17.885 195.308, 15.931 200.177, 14.883 202.236 C 14.397 203.191, 14 204.816, 14 205.847 C 14 206.878, 12.987 209.246, 11.749 211.110 C 10.511 212.975, 8.609 216.186, 7.523 218.247 L 5.549 221.993 7.677 224.122 L 9.806 226.250 13.903 222.958 C 16.881 220.564, 18 218.925, 18 216.955 C 18 215.464, 18.675 213.685, 19.500 213 C 20.325 212.315, 21 211.373, 21 210.905 C 21 210.437, 22.163 207.455, 23.585 204.277 C 28.233 193.888, 29 191.950, 29 190.589 C 29 189.850, 29.653 188.703, 30.451 188.041 C 31.249 187.378, 32.208 184.736, 32.582 182.168 C 33.280 177.372, 35.152 171.595, 38.791 163 C 39.373 161.625, 40.063 159.375, 40.323 158 C 40.856 155.193, 42.822 149.394, 44.134 146.764 C 44.610 145.809, 45 144.376, 45 143.579 C 45 142.023, 48.999 131.926, 52.099 125.655 C 53.145 123.541, 54 120.910, 54 119.810 C 54 118.709, 54.620 116.614, 55.378 115.154 C 56.135 113.694, 57.148 111.187, 57.628 109.582 C 58.701 105.990, 60.607 105.187, 61.486 107.956 C 61.847 109.092, 63.429 110.687, 65.002 111.501 L 67.862 112.980 67.681 122.685 L 67.500 132.390 64.359 134.223 C 61.745 135.749, 60.781 135.857, 58.613 134.870 C 56.420 133.870, 55.691 133.969, 54.004 135.496 C 51.704 137.578, 51.168 145.768, 53.200 147.800 C 54.843 149.443, 60.079 149.255, 62.441 147.468 C 63.509 146.661, 65.421 146, 66.691 146 C 68.688 146, 69.003 146.506, 69.024 149.750 C 69.037 151.813, 69.412 155.075, 69.857 157 C 71.004 161.960, 70.141 168, 68.286 168 C 67.463 168, 64.727 166.608, 62.206 164.907 C 54.523 159.721, 48 159.978, 48 165.467 C 48 167.478, 50.727 171, 52.283 171 C 52.627 171, 53.942 172.022, 55.205 173.271 C 57.170 175.215, 59.574 176.233, 67.864 178.630 C 68.970 178.950, 68.921 179.447, 67.604 181.262 C 66.711 182.493, 65.574 184.400, 65.079 185.500 C 64.011 187.870, 54.865 196.761, 50.250 199.915 C 44.555 203.807, 46.506 209.722, 53.808 210.701 C 56.827 211.106, 58.541 210.832, 59.772 209.748 C 60.723 208.911, 64.875 207.222, 69 205.996 C 76.878 203.653, 77.674 203.342, 82.500 200.727 C 84.150 199.832, 88.368 198.065, 91.872 196.800 C 96.239 195.224, 99.801 193.005, 103.189 189.750 C 105.908 187.137, 108.328 185, 108.567 185 C 109.949 185, 107.590 206.808, 105.456 213.757 C 104.387 217.240, 106.777 222, 109.596 222 C 112.973 222, 114.750 217.837, 115.382 208.448 C 116.373 193.705, 117.931 177.545, 119.087 170 C 119.720 165.867, 120.184 152.820, 120.121 140.936 L 120.005 119.372 123.002 117.156 C 124.651 115.937, 126 114.154, 126 113.193 C 126 110.564, 128.866 107, 130.980 107 C 132.007 107, 134.184 105.875, 135.818 104.500 C 137.452 103.125, 139.416 102, 140.182 102 C 140.949 102, 143.134 100.668, 145.038 99.041 C 146.942 97.413, 148.838 96.063, 149.250 96.041 C 150.773 95.958, 149.824 102.733, 147.186 110.771 C 145.201 116.820, 143.768 119.507, 141.851 120.771 C 140.410 121.722, 136.766 124.380, 133.755 126.679 C 127.673 131.319, 126.044 135.233, 128.265 139.867 C 129.991 143.468, 133.002 143.226, 135.479 139.289 C 139.299 133.217, 143.047 136.554, 139.672 143.022 C 138.948 144.408, 137.730 147.662, 136.965 150.252 C 136.119 153.117, 133.897 156.763, 131.287 159.564 C 125.955 165.291, 125.583 168.893, 129.990 172.151 C 131.634 173.366, 133.268 175.292, 133.621 176.431 C 133.974 177.569, 135.103 179.694, 136.131 181.154 C 138.293 184.225, 138.512 187.207, 136.781 189.980 C 135.732 191.658, 135.978 192.370, 138.531 195.053 C 142.993 199.744, 146.782 201.070, 150.500 199.241 C 152.150 198.430, 154.511 196.842, 155.747 195.712 C 157.401 194.199, 159.614 193.582, 164.136 193.372 C 170.904 193.059, 174.300 190.925, 175.474 186.249 C 176.306 182.932, 174.271 180.892, 169.329 180.088 C 165.250 179.425, 163.945 177.250, 166.200 174.871 C 168.563 172.378, 169.835 168.578, 170.397 162.330 C 170.918 156.550, 170.771 155.966, 168.075 153.080 C 163.292 147.960, 157.862 148.817, 147.080 156.396 C 144.814 157.989, 142.663 158.996, 142.301 158.634 C 141.938 158.272, 142.623 156.138, 143.821 153.893 C 145.019 151.648, 146 149.291, 146.001 148.655 C 146.001 148.020, 147.351 144.647, 149.001 141.160 C 150.650 137.673, 152 133.364, 152 131.585 C 152 127.958, 155.398 124.017, 158.564 123.973 C 160.712 123.943, 166.528 118.911, 169.280 114.702 C 170.653 112.602, 170.816 111.525, 169.995 109.990 C 168.875 107.898, 164.582 107.249, 163.496 109.007 C 162.527 110.574, 157.047 113.147, 156.025 112.515 C 155.521 112.204, 156.209 109.758, 157.554 107.079 C 160.540 101.135, 160.685 97.445, 158 95.768 C 155.087 93.949, 155.475 91.163, 158.750 90.384 C 160.262 90.024, 162.813 88.418, 164.418 86.814 C 166.610 84.624, 168.104 83.973, 170.418 84.199 C 172.973 84.449, 173.957 85.355, 176.169 89.500 C 177.636 92.250, 178.874 95.798, 178.919 97.384 C 178.963 98.970, 179.421 101.895, 179.936 103.884 C 180.451 105.873, 181.602 116.275, 182.494 127 C 184.104 146.357, 184.105 172.050, 182.499 211.500 C 182.163 219.750, 181.763 229.875, 181.609 234 C 181.374 240.287, 181.039 241.556, 179.534 241.848 C 178.547 242.040, 177.370 241.590, 176.918 240.848 C 176.467 240.107, 174.176 237.165, 171.829 234.310 C 168.601 230.385, 167.248 229.379, 166.280 230.182 C 163.296 232.659, 165.574 241.766, 170.393 246.623 C 171.552 247.791, 173.477 249.816, 174.671 251.123 C 182.191 259.355, 183.779 260.456, 186.236 259.141 C 191.051 256.565, 191.256 255.307, 191.676 225.902 C 191.894 210.681, 192.393 194.464, 192.786 189.864 C 193.713 179.008, 193.451 154.292, 192.104 125.587 C 190.952 101.031, 190.493 97.003, 188.366 92.800 C 187.615 91.314, 187 89.228, 187 88.164 C 187 87.100, 186.328 84.940, 185.506 83.364 C 184.685 81.789, 184.010 79.759, 184.006 78.854 C 184.003 77.948, 182.352 75.760, 180.338 73.992 C 174.903 69.220, 169.957 69.963, 159.736 77.088 C 155.466 80.065, 150.710 83.190, 149.168 84.034 C 147.625 84.878, 144.369 87.186, 141.932 89.164 C 139.494 91.141, 135.700 93.665, 133.500 94.773 C 128.237 97.423, 125.837 100.184, 123.934 105.776 C 123.073 108.307, 121.895 110.535, 121.317 110.728 C 119.716 111.261, 117 104.693, 117 100.286 C 117 97.235, 116.332 95.734, 113.964 93.465 C 107.666 87.432, 105.914 94.547, 109.029 113.500 C 110.409 121.896, 110.931 162.171, 109.813 174 L 109.198 180.500 105.450 180.155 C 101.880 179.826, 92.088 183.607, 79.802 190.058 C 77.768 191.126, 75.630 192, 75.052 192 C 73.015 192, 74.030 188.211, 76.500 186.592 C 78.014 185.600, 79 184.010, 79 182.560 C 79 181.244, 79.337 180.017, 79.750 179.833 C 80.162 179.650, 81.625 177.437, 83 174.915 C 84.375 172.393, 87.140 167.876, 89.144 164.878 C 96.743 153.511, 96.875 143, 89.418 143 C 87.454 143, 86.452 144.074, 84.281 148.500 C 80.318 156.580, 79 155.788, 79 145.329 C 79 137.670, 79.361 135.916, 82.097 130.302 C 85.730 122.843, 85.420 120.734, 80.757 121.185 C 77.537 121.496, 77.497 121.447, 77.198 116.830 C 77.033 114.261, 76.245 111.618, 75.448 110.957 C 73.446 109.295, 73.637 108, 75.885 108 C 77.268 108, 78.216 106.637, 79.445 102.878 C 80.367 100.061, 80.882 97.136, 80.592 96.378 C 79.715 94.095, 75.018 94.821, 71.144 97.839 C 68.045 100.253, 61.478 104, 60.346 104 C 59.121 104, 60.482 98.287, 63.329 91.470 C 65.160 87.086, 67.255 81.250, 67.984 78.500 C 69.455 72.955, 70.628 71, 72.486 71 C 74.386 71, 79 76.039, 79 78.113 C 79 79.126, 80.117 80.686, 81.481 81.580 C 83.797 83.097, 84.182 83.078, 87.231 81.304 C 89.781 79.820, 90.563 78.643, 90.787 75.951 C 91.029 73.033, 90.335 71.693, 86.287 67.270 C 82.393 63.015, 80.707 61.919, 77.250 61.392 C 72.763 60.708, 72.159 59.689, 74.334 56.473 C 75.926 54.119, 78.086 40.013, 78.202 31.214 C 78.268 26.157, 77.914 24.648, 76.392 23.496 C 73.998 21.683, 72.986 21.697, 70.500 23.573 M 139.150 50.006 C 136.868 51.660, 135 53.441, 135 53.965 C 135 57.263, 137.398 70.666, 138.129 71.457 C 139.960 73.437, 142.162 69.083, 144.134 59.580 C 146.072 50.242, 146.084 47, 144.181 47 C 143.697 47, 141.433 48.353, 139.150 50.006 M 138.459 161.067 C 138.096 161.653, 138.040 162.373, 138.333 162.667 C 139.050 163.383, 141 162.121, 141 160.941 C 141 159.663, 139.274 159.748, 138.459 161.067 M 154.500 162.850 C 153.400 163.207, 150.588 164.797, 148.250 166.383 C 144.943 168.626, 144 169.889, 144 172.074 C 144 173.618, 144.450 175.160, 145 175.500 C 145.550 175.840, 146 178.116, 146 180.559 C 146 184.209, 146.329 185, 147.845 185 C 150.312 185, 152.255 182.685, 155.817 175.500 C 159.467 168.137, 160.243 164.998, 158.836 163.302 C 157.667 161.894, 157.495 161.876, 154.500 162.850" stroke="none" fill="black" fill-rule="evenodd"/>
</svg>