<svg xmlns="http://www.w3.org/2000/svg" width="300" height="300" viewBox="0 0 300 300" version="1.1">
	<path d="M 82 36.259 C 82 36.952, 81.135 38.059, 80.077 38.720 C 78.517 39.694, 78.076 41.389, 77.737 47.710 C 77.508 51.995, 76.534 57.975, 75.573 61 C 74.612 64.025, 72.980 69.650, 71.947 73.500 C 70.913 77.350, 68.921 84.775, 67.520 90 C 66.119 95.225, 63.826 103.325, 62.425 108 C 61.025 112.675, 59.161 118.975, 58.284 122 C 57.407 125.025, 56.085 128.918, 55.345 130.651 C 54.605 132.384, 54 134.720, 54 135.842 C 54 136.964, 53.550 138.160, 53 138.500 C 52.450 138.840, 52 140.141, 52 141.392 C 52 142.643, 51.709 143.958, 51.353 144.314 C 50.317 145.349, 47.068 155.303, 47.033 157.550 C 47.015 158.677, 46.630 160.027, 46.177 160.550 C 45.724 161.072, 44.536 164.200, 43.537 167.500 C 42.537 170.800, 41.343 174.400, 40.882 175.500 C 39.624 178.503, 35 193.130, 35 194.106 C 35 196.065, 27.957 209.802, 26.707 210.282 C 25.097 210.900, 21.924 217.068, 22.629 218.210 C 23.777 220.067, 27.017 218.708, 31.111 214.652 C 39.603 206.239, 39.244 206.980, 49.045 177.677 C 51.220 171.174, 53 165.014, 53 163.986 C 53 160.339, 57.350 160.407, 58.308 164.069 C 58.692 165.536, 59.698 166, 62.499 166 C 64.670 166, 67.229 166.822, 68.727 168 C 70.126 169.100, 71.829 170, 72.512 170 C 73.196 170, 74.245 170.591, 74.845 171.313 C 76.592 173.418, 72.831 179.734, 65.510 186.990 C 59.827 192.622, 59 193.914, 59 197.150 C 59 209.724, 78.574 206.125, 96.048 190.337 C 98.379 188.232, 101.650 186.057, 103.317 185.504 C 108.889 183.658, 111.960 174.241, 107.832 171.658 C 106.536 170.846, 105.258 171.269, 102.092 173.557 C 99.852 175.176, 96.553 177.505, 94.760 178.733 C 92.967 179.961, 90.916 181.461, 90.202 182.067 C 88.213 183.755, 83.655 185.987, 82.183 185.994 C 80.027 186.004, 81.859 181.939, 86.097 177.309 C 88.206 175.004, 90.236 171.854, 90.607 170.309 C 90.978 168.764, 93.693 163.772, 96.641 159.216 C 99.588 154.659, 102 150.552, 102 150.088 C 102 149.624, 102.675 148.685, 103.500 148 C 106.274 145.698, 105.332 142.126, 101.465 140.282 C 97.949 138.605, 97.916 138.611, 95.348 141.381 C 93.459 143.418, 92.468 143.868, 91.658 143.058 C 90.848 142.248, 90.873 141.433, 91.754 140.023 C 92.641 138.601, 92.708 136.181, 92.009 130.798 C 90.761 121.187, 90.755 111.326, 91.996 109.007 C 92.775 107.552, 92.427 106.472, 90.408 104.072 C 87.164 100.218, 85.139 100.201, 81.500 104 C 79.919 105.650, 77.585 107, 76.313 107 C 74.237 107, 74 106.537, 74 102.480 C 74 99.966, 75.110 95.230, 76.500 91.808 C 77.875 88.424, 79 84.634, 79 83.387 C 79 82.139, 79.450 80.840, 80 80.500 C 80.550 80.160, 81 79.064, 81 78.063 C 81 77.063, 81.716 75.651, 82.590 74.925 C 83.955 73.793, 84.588 74.072, 87.052 76.894 C 88.631 78.703, 90.181 80.993, 90.495 81.984 C 91.661 85.657, 98 85.064, 98 81.282 C 98 80.472, 98.979 78.434, 100.175 76.754 L 102.351 73.699 99.505 71.251 C 96.903 69.013, 96.119 68.861, 90.330 69.481 C 86.848 69.854, 84 69.851, 84 69.474 C 84 67.983, 87.223 56.439, 87.901 55.500 C 90.060 52.512, 92.019 38.458, 90.597 36.157 C 89.605 34.552, 82 34.642, 82 36.259 M 143.548 37.250 C 143.333 37.938, 142.605 41.627, 141.928 45.448 C 140.807 51.787, 138.612 57.058, 135.455 61 C 134.794 61.825, 133.951 64.188, 133.581 66.250 C 133.049 69.221, 133.222 70, 134.415 70 C 135.243 70, 136.382 69.438, 136.945 68.750 C 137.509 68.063, 139.142 66.037, 140.574 64.250 C 144.812 58.961, 146 59.868, 146 68.395 L 146 75.790 137.750 80.012 C 133.213 82.334, 126.841 85.085, 123.592 86.126 C 116.775 88.309, 115 89.533, 115 92.050 C 115 95.699, 123.684 99.938, 125.417 97.135 C 125.711 96.659, 127.616 95.999, 129.650 95.669 C 131.684 95.339, 135.977 93.447, 139.189 91.464 C 147.418 86.385, 148.500 86.851, 148.500 95.479 C 148.500 102.320, 148.419 102.534, 143.393 108.965 C 140.585 112.559, 137.980 116.471, 137.605 117.658 C 136.379 121.540, 133.582 121.469, 131.401 117.500 C 130.797 116.400, 129.152 114.847, 127.747 114.048 C 120.503 109.934, 120.459 121.922, 127.667 135.750 C 130.309 140.819, 131.058 143.438, 131.001 147.395 C 130.960 150.203, 130.986 153.400, 131.060 154.500 C 131.134 155.600, 130.896 157.426, 130.531 158.557 C 130.103 159.884, 130.540 161.445, 131.760 162.951 C 133.364 164.933, 134.212 165.183, 137.340 164.596 C 139.369 164.215, 142.388 162.575, 144.049 160.952 C 148.809 156.299, 150.155 156.949, 149.800 163.731 L 149.500 169.461 143.500 173.174 C 128.798 182.273, 126.224 183.727, 123.691 184.363 C 121.356 184.949, 121 185.545, 121 188.864 C 121 193.292, 123.355 196, 127.206 196 C 128.608 196, 130.340 195.295, 131.055 194.434 C 131.770 193.573, 133.695 192.175, 135.334 191.327 C 136.973 190.480, 140.399 187.836, 142.946 185.454 C 145.498 183.066, 148.076 181.431, 148.686 181.811 C 149.978 182.614, 148.331 208.753, 146.874 210.599 C 146.396 211.203, 141.842 211.974, 136.753 212.312 C 123.856 213.167, 104.571 216.562, 99.635 218.846 C 97.361 219.898, 94.713 221.024, 93.750 221.348 C 91.052 222.256, 91.564 226.484, 94.614 228.483 C 96.902 229.982, 97.808 230.039, 101.864 228.943 C 104.414 228.254, 107.041 227.272, 107.702 226.762 C 108.363 226.252, 109.809 226.122, 110.914 226.473 C 112.020 226.824, 113.939 226.568, 115.180 225.904 C 118.078 224.353, 126.775 223.196, 145.500 221.872 C 153.750 221.289, 162.750 220.640, 165.500 220.430 C 175.470 219.669, 202.959 220.044, 208.053 221.010 C 210.924 221.555, 217.214 222, 222.031 222 C 233.101 222, 251.200 223.820, 252.450 225.058 C 252.973 225.576, 254.854 226, 256.632 226 C 259.040 226, 260.379 225.277, 261.884 223.162 L 263.905 220.325 261.416 216.662 C 259.901 214.433, 258.062 212.953, 256.714 212.879 C 255.496 212.813, 248.875 212.673, 242 212.569 C 228.489 212.365, 216.562 211.496, 205.500 209.908 C 201.650 209.356, 189.877 208.977, 179.339 209.066 C 168.800 209.155, 159.688 208.925, 159.089 208.555 C 158.402 208.130, 158 203.454, 158 195.876 C 158 185.855, 158.351 183.055, 160.123 178.935 C 161.764 175.120, 162.755 174, 164.488 174 C 165.721 174, 167.803 173.162, 169.115 172.138 C 170.427 171.113, 172.472 169.971, 173.660 169.599 C 174.848 169.227, 176.365 168.265, 177.032 167.461 C 177.699 166.658, 179.440 166, 180.900 166 C 182.360 166, 184.443 165.389, 185.527 164.642 C 186.612 163.896, 189.152 162.748, 191.170 162.091 C 193.189 161.435, 195.394 160.230, 196.071 159.415 C 198.809 156.115, 191.762 149.838, 188.727 152.873 C 188.107 153.493, 186.395 154, 184.922 154 C 183.450 154, 181.685 154.675, 181 155.500 C 180.315 156.325, 178.981 157, 178.035 157 C 177.089 157, 173.121 158.618, 169.217 160.596 C 165.313 162.573, 161.641 163.896, 161.057 163.535 C 159.833 162.778, 160.713 155.737, 162.429 152.559 C 165.483 146.904, 169.643 141.719, 172.176 140.409 C 174.393 139.263, 175 138.252, 175 135.710 C 175 133.929, 175.943 130.003, 177.096 126.986 C 179.561 120.534, 180.273 106.873, 178.250 104.850 C 177.563 104.163, 177 102.635, 177 101.455 C 177 96.754, 170.090 94.494, 163.443 97.021 C 159.369 98.571, 158.250 96.958, 158.250 89.538 C 158.250 82.450, 159.898 79.878, 165.250 78.612 C 166.762 78.255, 168 77.520, 168 76.981 C 168 76.441, 168.563 75.997, 169.250 75.994 C 173.713 75.975, 177.728 73.794, 179.276 70.548 C 180.902 67.137, 180.888 67.057, 178.328 65.044 C 176.899 63.920, 175.200 63, 174.553 63 C 172.661 63, 164.692 67.046, 162.339 69.202 C 158.835 72.412, 156.553 71.230, 156.181 66.011 C 155.759 60.091, 154.498 58.742, 149.806 59.190 C 147.713 59.390, 146 59.378, 146 59.165 C 146 58.951, 147.503 55.993, 149.341 52.591 C 154.011 43.944, 154.408 41.789, 151.916 38.621 C 149.710 35.816, 144.272 34.926, 143.548 37.250 M 161.440 111.250 L 158.701 114.500 163.101 115.123 C 168.200 115.846, 169 115.561, 169 113.023 C 169 107.216, 165.525 106.401, 161.440 111.250 M 67.677 123.520 C 66.205 127.106, 64.986 131.043, 64.969 132.270 C 64.952 133.496, 63.829 136.300, 62.474 138.500 C 61.119 140.700, 60.008 143.486, 60.005 144.691 C 60.002 145.896, 59.550 147.160, 59 147.500 C 58.450 147.840, 58.001 149.779, 58.002 151.809 L 58.004 155.500 64.209 155.617 C 69.873 155.724, 70.642 156.007, 73.030 158.867 C 75.793 162.176, 78.092 162.819, 79.767 160.750 C 80.323 160.063, 81.105 155.295, 81.503 150.155 C 82.173 141.513, 82.093 140.836, 80.445 141.155 C 79.464 141.345, 77.950 142.770, 77.081 144.323 C 76.211 145.875, 74.258 147.895, 72.739 148.811 C 68.861 151.150, 66.591 149.525, 66.191 144.122 C 65.902 140.215, 66.098 139.857, 69.251 138.540 C 71.103 137.766, 73.145 135.978, 73.788 134.566 C 74.431 133.155, 75.377 132, 75.889 132 C 76.983 132, 81 124.049, 81 121.884 C 81 119.437, 78.879 118.074, 75.975 118.655 C 74.470 118.956, 72.937 118.707, 72.562 118.101 C 71.267 116.005, 70.343 117.030, 67.677 123.520 M 142.042 123.845 C 137.838 127.844, 136.926 130.651, 139.507 131.641 C 141.902 132.560, 148.814 126.028, 148.915 122.750 C 149.034 118.894, 146.887 119.236, 142.042 123.845 M 162.667 128.667 C 161.856 129.477, 161.774 133, 162.566 133 C 164.171 133, 167 130.745, 167 129.465 C 167 127.992, 163.910 127.423, 162.667 128.667 M 143.250 142.031 C 140.484 143.143, 140.154 147, 142.826 147 C 144.549 147, 149 143.169, 149 141.686 C 149 140.750, 145.986 140.932, 143.250 142.031" stroke="none" fill="black" fill-rule="evenodd"/>
</svg>