<svg xmlns="http://www.w3.org/2000/svg" width="300" height="300" viewBox="0 0 300 300" version="1.1">
	<path d="M 96 0.801 C 96 1.290, 96.929 2.531, 98.065 3.559 C 99.930 5.247, 100.064 6.135, 99.447 12.719 C 98.953 17.995, 99.114 20.433, 100.030 21.537 C 101.073 22.792, 100.982 23.293, 99.519 24.362 C 96.206 26.785, 75.578 32.585, 66.500 33.646 C 60.109 34.393, 58 35.860, 58 39.558 C 58 41.329, 58.807 43.775, 59.793 44.993 L 61.587 47.208 68.820 45.054 C 72.798 43.869, 78.362 42.626, 81.185 42.292 C 86.251 41.692, 86.306 41.714, 85.557 44.092 C 85.139 45.416, 84.405 51, 83.925 56.500 C 82.596 71.744, 80.234 84.289, 76.489 96 C 75.698 98.475, 73.933 105.059, 72.566 110.631 C 71.200 116.202, 68.939 123.261, 67.541 126.316 C 66.143 129.372, 65 132.549, 65 133.377 C 65 134.205, 64.550 135.160, 64 135.500 C 63.450 135.840, 63 137.161, 63 138.437 C 63 139.712, 62.325 141.315, 61.500 142 C 60.675 142.685, 60 144.087, 60 145.117 C 60 148.154, 51.520 163.603, 47.090 168.635 C 41.632 174.835, 41.737 179.147, 47.307 177.565 C 49.470 176.951, 58.350 166.806, 60.716 162.246 C 61.385 160.956, 62.848 158.737, 63.966 157.316 C 65.085 155.894, 66.007 154.003, 66.015 153.115 C 66.030 151.414, 68.384 144.185, 69.882 141.237 C 70.620 139.785, 74.220 130.996, 78.069 121.250 C 78.955 119.006, 80.462 118.321, 81.351 119.758 C 81.608 120.175, 82.543 124.113, 83.427 128.508 C 84.787 135.264, 85.535 136.931, 88.268 139.290 C 90.716 141.404, 92.346 142.010, 94.989 141.790 C 98.075 141.534, 99.026 140.691, 103.206 134.517 C 108.724 126.366, 108.276 124.760, 101.324 127.769 C 98.696 128.907, 96.198 129.622, 95.773 129.360 C 93.833 128.161, 95.420 125.790, 100.250 122.674 C 104.853 119.704, 106.094 118.117, 110.324 109.788 C 115.862 98.884, 116.289 94.433, 112 92.306 C 108.580 90.610, 108.864 88.706, 112.723 87.458 C 114.495 86.885, 117.289 85.423, 118.932 84.208 C 123.583 80.770, 124.676 81.291, 125.314 87.250 C 125.623 90.138, 126.322 95.628, 126.866 99.450 C 127.479 103.755, 127.503 107.061, 126.928 108.135 C 125.416 110.960, 125.863 115.694, 128 119.500 C 129.100 121.458, 130 124.102, 130 125.375 C 130 127.982, 131.919 129.957, 136.909 132.487 C 139.681 133.893, 140.988 134.017, 143.909 133.153 C 145.884 132.569, 149.525 131.853, 152 131.562 C 154.475 131.270, 158.525 130.596, 161 130.064 C 163.475 129.532, 169.100 128.409, 173.500 127.569 C 184.260 125.513, 187.613 121.376, 185.175 113.161 C 184.577 111.147, 183.900 104.505, 183.671 98.400 L 183.255 87.300 178.377 79.900 C 174.157 73.497, 173.061 72.458, 170.243 72.186 C 165.425 71.722, 165.136 74.110, 169.385 79.294 C 174.993 86.138, 175.699 88.931, 175.055 101.720 C 174.408 114.545, 173.916 115.448, 166.726 116.988 C 164.127 117.545, 159.969 118.438, 157.486 118.972 C 155.003 119.507, 152.107 120.407, 151.051 120.972 C 149.995 121.538, 147.291 122, 145.041 122 C 141.501 122, 140.808 121.630, 139.894 119.250 C 138.421 115.415, 139.704 111.885, 146.190 101.922 C 155.079 88.269, 155.110 88.125, 150.167 83.651 C 146.241 80.098, 143.655 82.372, 140.902 91.800 C 139.462 96.734, 138.494 97.654, 136.492 95.994 C 135.499 95.170, 134.987 92.063, 134.786 85.658 L 134.500 76.500 131.139 76.178 C 127.945 75.873, 127.810 75.701, 128.410 72.699 C 128.757 70.963, 130.524 67.957, 132.336 66.021 C 135.712 62.412, 138 58.104, 138 55.357 C 138 54.506, 138.858 52.604, 139.907 51.130 C 141.455 48.956, 141.665 47.636, 141.022 44.118 C 139.612 36.407, 134.733 33.947, 127.094 37.096 C 124.319 38.239, 123.605 38.258, 123.242 37.194 C 122.429 34.814, 118.658 32, 116.280 32 C 113.555 32, 112.230 34.538, 113.715 36.915 C 115.634 39.988, 116.025 44.419, 114.548 46.350 C 112.808 48.625, 111 47.694, 111 44.522 C 111 40.830, 107.809 36.014, 105.357 36.006 C 102.565 35.998, 102 37.703, 102 46.135 C 102 52.238, 101.657 53.536, 99.250 56.553 C 95.309 61.493, 93.993 61.038, 94.036 54.750 C 94.073 49.227, 96.318 38.282, 97.696 36.904 C 98.142 36.458, 103.905 33.305, 110.503 29.898 C 117.101 26.490, 124.228 22.802, 126.339 21.702 C 128.451 20.602, 130.652 18.663, 131.231 17.392 C 133.468 12.482, 126.390 7.415, 123 11.500 C 122.315 12.325, 121.170 13, 120.454 13 C 119.739 13, 117.881 14.039, 116.327 15.309 C 112.534 18.407, 106.202 22, 104.536 22 C 102.689 22, 103.699 18.177, 106.386 15 C 109.660 11.128, 110.566 8.835, 110.531 4.500 L 110.500 0.500 103.250 0.206 C 99.263 0.045, 96 0.312, 96 0.801 M 126.607 51.582 C 125.763 53.782, 125.848 57.002, 126.750 56.992 C 127.829 56.981, 130.044 51.881, 129.413 50.860 C 128.581 49.512, 127.272 49.849, 126.607 51.582 M 112.544 61.250 C 112.328 61.938, 111.956 64.883, 111.718 67.796 C 111.361 72.161, 111.554 73.040, 112.817 72.796 C 114.069 72.554, 116.728 64.820, 116.958 60.750 C 117.030 59.468, 112.960 59.929, 112.544 61.250 M 95.313 73.001 C 91.135 76.074, 90.043 78.235, 90.007 83.500 C 89.996 85.150, 88.655 90.325, 87.028 95 C 83.466 105.231, 83.224 108.564, 85.988 109.287 C 88.231 109.873, 90 113.717, 90 118.006 C 90 119.588, 90.478 121.178, 91.063 121.539 C 92.152 122.212, 96 119.349, 96 117.867 C 96 117.414, 97.622 113.546, 99.605 109.272 C 101.588 104.997, 103.879 100.060, 104.695 98.300 C 106.452 94.514, 105.636 92.624, 102.575 93.392 C 99.493 94.165, 96 91.454, 96 88.289 C 96 86.496, 97.239 84.631, 100 82.268 C 103.131 79.588, 104 78.144, 104 75.622 C 104 72.368, 102.524 70, 100.497 70 C 99.890 70, 97.558 71.350, 95.313 73.001 M 112.750 126.080 C 111.787 126.641, 111 127.922, 111 128.927 C 111 129.933, 110.325 131.315, 109.500 132 C 108.675 132.685, 108 134.109, 108 135.166 C 108 136.223, 106.959 138.210, 105.687 139.582 C 104.415 140.953, 102.797 143.746, 102.091 145.788 C 101.386 147.830, 96.801 155.484, 91.904 162.799 C 87.007 170.113, 83 176.681, 83 177.394 C 83 178.107, 82.112 179.494, 81.026 180.477 C 79.940 181.459, 76.271 186.366, 72.873 191.382 C 69.475 196.397, 64.648 203.384, 62.146 206.908 C 59.645 210.433, 56.352 215.608, 54.829 218.408 C 53.306 221.209, 51.088 225.300, 49.899 227.500 C 47.944 231.120, 46.555 232.840, 39.295 240.633 C 38.083 241.935, 36.226 243, 35.168 243 C 32.851 243, 31.500 244.562, 30.616 248.261 C 30.062 250.580, 30.371 251.212, 32.545 252.203 C 34.681 253.176, 35.692 253.072, 38.317 251.608 C 41.755 249.692, 51.870 238.371, 53.500 234.615 C 54.050 233.348, 55.962 230.651, 57.750 228.621 C 59.538 226.591, 61 224.477, 61 223.923 C 61 223.370, 61.933 221.923, 63.073 220.708 C 64.213 219.494, 67.444 214.675, 70.254 210 C 76.499 199.611, 79.173 195.874, 84.712 189.793 C 87.070 187.204, 89 184.104, 89 182.903 C 89 180.470, 91.576 178.080, 94.250 178.032 C 95.533 178.008, 96 178.797, 96 180.987 C 96 183.407, 96.616 184.234, 99.250 185.349 C 103.814 187.280, 105.652 189.783, 106.418 195.109 C 107.031 199.375, 106.873 199.858, 104.290 201.609 C 102.214 203.016, 99.716 203.500, 94.527 203.500 C 87.979 203.500, 87.500 203.653, 86.666 206.017 C 86.048 207.768, 86.252 209.668, 87.338 212.267 C 88.720 215.574, 89.299 216, 92.415 216 C 96.337 216, 102.354 213.584, 105.699 210.665 C 109.477 207.370, 110.742 209, 111.141 217.677 C 111.660 228.984, 111.035 237, 109.635 237 C 108.986 237, 106.890 235.123, 104.977 232.829 C 98.565 225.137, 97.173 224, 94.168 224 C 90.270 224, 88.843 225.924, 89.637 230.107 C 90.477 234.529, 91.427 235.633, 96.382 237.944 C 100.577 239.901, 107 245.276, 107 246.829 C 107 250.003, 88.417 261, 83.055 261 C 82.176 261, 79.778 262.383, 77.728 264.073 C 73.515 267.545, 72.972 270.508, 75.887 274.109 L 77.774 276.439 85.137 274.103 C 89.187 272.819, 96.325 270.443, 101 268.824 C 119.143 262.542, 118.924 262.568, 151.354 262.793 C 183.989 263.019, 200.659 264.500, 211.052 268.097 L 217.362 270.281 219.681 267.585 C 222.665 264.116, 222.573 262.246, 219.223 258.257 C 216.583 255.114, 216.173 254.987, 205.807 254.102 C 199.926 253.600, 194.684 252.923, 194.158 252.598 C 193.632 252.273, 176.844 251.740, 156.851 251.414 C 136.858 251.088, 120.275 250.600, 120.001 250.328 C 119.726 250.057, 121.076 248.486, 123.001 246.838 C 136.878 234.954, 148 222.766, 148 219.442 C 148 218.634, 148.543 217.104, 149.206 216.042 C 150.927 213.286, 147.797 210, 143.450 210 C 140.570 210, 139.914 210.565, 137.554 215.079 C 132.993 223.801, 124.247 235.002, 122 234.997 C 120.733 234.994, 120.500 232.657, 120.500 219.980 L 120.500 204.967 124.613 200.734 C 129.310 195.899, 130.099 194.218, 128.830 191.750 C 127.489 189.143, 123.332 189.563, 121.408 192.500 C 119.310 195.702, 116.005 195.855, 115.986 192.750 C 115.979 191.512, 115.710 189.521, 115.389 188.325 C 114.925 186.593, 116.216 184.758, 121.726 179.325 C 130.948 170.230, 132.339 168.022, 131.027 164.570 C 129.718 161.127, 129.729 161, 131.360 161 C 132.861 161, 153.364 171.220, 155.904 173.234 C 157.675 174.639, 161.077 176.649, 165.250 178.757 C 166.762 179.521, 168 180.545, 168 181.031 C 168 181.518, 170.137 183.137, 172.750 184.629 C 175.363 186.122, 179.300 188.771, 181.500 190.516 C 183.700 192.261, 186.534 194.236, 187.798 194.905 C 189.062 195.574, 190.521 197.241, 191.042 198.609 C 192.256 201.804, 198.475 204.560, 201.430 203.214 C 202.581 202.689, 204.127 201.132, 204.865 199.753 C 206.025 197.585, 205.974 196.890, 204.488 194.623 C 203.543 193.180, 202.376 192, 201.894 192 C 200.956 192, 195.108 187.782, 185.655 180.287 C 179.849 175.684, 178.796 175.014, 169.160 169.769 C 166.400 168.267, 163.846 166.560, 163.486 165.977 C 163.125 165.393, 158.861 162.955, 154.010 160.558 C 149.159 158.162, 143.468 155.031, 141.363 153.601 C 139.258 152.170, 137.128 151, 136.629 151 C 134.410 151, 118.850 142.773, 118.285 141.301 C 117.940 140.400, 118.409 138.352, 119.328 136.751 C 121.698 132.622, 121.472 128.444, 118.777 126.557 C 116.206 124.756, 115.165 124.673, 112.750 126.080 M 108.358 156.250 C 106.891 158.588, 103.960 162.476, 101.845 164.891 C 96.667 170.804, 96.765 173.199, 102.250 174.818 C 107.177 176.271, 112.457 175.031, 115.047 171.810 C 115.898 170.752, 117.698 169.337, 119.047 168.664 C 120.396 167.992, 122.087 166.217, 122.805 164.721 C 123.522 163.224, 124.793 162, 125.628 162 C 127.521 162, 127.057 159.002, 125 157.940 C 124.175 157.515, 121.700 156.432, 119.500 155.535 C 117.300 154.637, 114.719 153.475, 113.764 152.952 C 111.276 151.588, 111.288 151.580, 108.358 156.250" stroke="none" fill="black" fill-rule="evenodd"/>
</svg>