<svg xmlns="http://www.w3.org/2000/svg" width="300" height="300" viewBox="0 0 300 300" version="1.1">
	<path d="M 68.236 27.250 C 67.680 27.938, 66.911 30.410, 66.526 32.745 C 66.141 35.079, 65.415 37.243, 64.913 37.554 C 64.411 37.864, 64 40.315, 64 43 C 64 45.685, 63.550 48.160, 63 48.500 C 62.450 48.840, 62 50.863, 62 52.996 C 62 57.966, 56.505 80.638, 54.862 82.450 C 54.388 82.972, 54.009 84.322, 54.021 85.450 C 54.032 86.577, 51.716 94.700, 48.874 103.500 C 42.430 123.449, 42.486 123.294, 38.621 132.110 C 37.751 134.096, 36.553 138.146, 35.960 141.110 C 35.367 144.075, 34.525 147.400, 34.090 148.500 C 32.740 151.915, 30.852 157.407, 30.311 159.500 C 29.623 162.155, 23.161 179.660, 21.394 183.651 C 20.628 185.384, 20 187.093, 20 187.449 C 20 187.805, 17.950 192.454, 15.445 197.779 C 9.343 210.750, 7.400 216.822, 8.693 218.885 C 10.415 221.634, 13.598 221.374, 15.779 218.305 C 18.077 215.072, 24 202.805, 24 201.279 C 24 200.714, 25.113 198.261, 26.472 195.829 C 27.832 193.396, 30.693 186.027, 32.831 179.453 C 34.968 172.879, 37.643 165.475, 38.774 163 C 39.906 160.525, 41.377 156.700, 42.042 154.500 C 42.708 152.300, 43.871 148.685, 44.627 146.467 C 45.382 144.248, 46 141.134, 46 139.545 C 46 137.957, 46.693 135.892, 47.540 134.956 C 48.386 134.021, 50.120 129.957, 51.392 125.927 C 52.663 121.896, 54.108 118.481, 54.602 118.338 C 55.096 118.194, 56.702 119.072, 58.171 120.288 C 60.272 122.027, 60.879 123.462, 61.014 127 C 61.329 135.272, 61.139 136.267, 59.373 135.590 C 57.028 134.690, 55.154 136.659, 54.370 140.850 C 53.994 142.858, 52.780 145.728, 51.671 147.228 C 49.937 149.577, 49.785 150.619, 50.578 154.728 C 51.638 160.212, 54.326 161.507, 57.460 158.044 C 58.478 156.920, 60.365 156, 61.655 156 C 63.995 156, 64 156.029, 64 169 C 64 178.405, 63.670 182, 62.807 182 C 62.150 182, 59.234 179.544, 56.326 176.542 C 51.871 171.942, 50.420 171.047, 47.102 170.851 C 42.155 170.559, 40 172.305, 40 176.606 C 40 179.604, 40.513 180.231, 44.750 182.421 C 54.577 187.500, 59.519 191.437, 59.234 193.959 C 58.778 197.995, 48.591 208.583, 42.466 211.387 C 37.715 213.562, 37.005 214.256, 37.036 216.695 C 37.056 218.238, 38.138 220.803, 39.440 222.396 L 41.809 225.293 47.154 223.556 C 50.094 222.601, 53.175 221.269, 54 220.597 C 54.825 219.925, 57.525 218.518, 60 217.471 C 62.475 216.424, 65.850 214.665, 67.500 213.562 C 71.461 210.916, 82.130 200.710, 87.184 194.732 C 90.505 190.805, 90.999 189.704, 89.985 188.482 C 89.309 187.667, 88.366 187, 87.891 187 C 87.416 187, 84.109 189.475, 80.544 192.500 C 74.781 197.389, 70 199.510, 70 197.177 C 70 196.725, 71.350 193.568, 73 190.161 C 74.650 186.755, 76 183.395, 76 182.696 C 76 180.745, 79.687 173.951, 82.308 171.073 C 83.596 169.658, 85.167 166.716, 85.798 164.535 C 86.833 160.957, 86.731 160.343, 84.755 158.240 C 81.610 154.892, 77.675 155.531, 76.998 159.500 C 76.622 161.708, 75.861 162.589, 74.117 162.836 C 71.922 163.147, 71.798 162.926, 72.430 159.836 C 72.806 158.001, 73.425 151.909, 73.807 146.297 C 74.210 140.356, 75.022 135.573, 75.750 134.847 C 77.684 132.917, 77.235 129.436, 74.650 126.327 C 73.358 124.772, 72.007 121.612, 71.647 119.303 C 71.035 115.376, 71.213 114.939, 74.410 112.501 C 78.537 109.353, 79.276 107.700, 77.902 104.684 C 75.325 99.028, 70.451 99.411, 64.382 105.745 C 62.667 107.535, 60.304 109, 59.132 109 C 57.959 109, 57 108.872, 57 108.715 C 57 108.559, 57.900 105.870, 59 102.740 C 60.100 99.611, 61 96.406, 61 95.618 C 61 92.306, 66.894 81.168, 69.001 80.500 C 71.714 79.639, 76 83.345, 76 86.552 C 76 89.231, 78.263 91.289, 80.694 90.820 C 82.695 90.435, 83.701 86.967, 83.882 79.835 C 83.997 75.287, 83.885 75.107, 79.374 72.585 C 76.830 71.163, 73.891 70, 72.843 70 C 71.795 70, 70.664 69.287, 70.329 68.415 C 69.672 66.702, 71.567 56.864, 73.238 53.317 C 73.803 52.117, 74.004 50.453, 73.684 49.619 C 73.364 48.785, 73.779 46.746, 74.606 45.088 C 75.433 43.429, 76.375 38.919, 76.698 35.066 C 77.278 28.147, 77.251 28.046, 74.577 27.029 C 71.019 25.676, 69.462 25.731, 68.236 27.250 M 133.500 31.007 C 127.760 34.568, 117.476 39.741, 113.741 40.947 C 111.673 41.615, 109.311 42.832, 108.491 43.652 C 106.249 45.894, 106.665 50.337, 109.354 52.863 L 111.708 55.074 111.722 97.511 C 111.739 149.104, 111.273 147.405, 124.312 143.410 C 127.165 142.536, 130.400 141.459, 131.500 141.016 C 132.600 140.574, 135.633 139.454, 138.240 138.527 C 140.846 137.601, 143.236 136.428, 143.549 135.921 C 143.862 135.415, 144.936 135, 145.937 135 C 146.937 135, 148.315 134.325, 149 133.500 C 149.685 132.675, 151.038 132, 152.007 132 C 152.977 132, 154.562 130.791, 155.531 129.313 C 156.499 127.835, 158.637 125.493, 160.282 124.110 C 161.926 122.726, 163.893 120.106, 164.653 118.288 C 165.412 116.471, 166.814 114.079, 167.767 112.974 C 168.720 111.869, 169.728 109.735, 170.006 108.232 C 170.622 104.914, 173.984 104.104, 177.523 106.423 C 178.846 107.290, 180.443 108, 181.070 108 C 181.698 108, 183.463 109.013, 184.993 110.250 C 186.523 111.487, 190.075 113.737, 192.887 115.250 C 197.975 117.986, 198 118.024, 198 122.932 C 198 129.079, 200.207 130.271, 205.515 126.991 C 208.673 125.039, 209 124.408, 209 120.265 C 209 116.182, 208.554 115.281, 204.834 111.846 C 202.542 109.731, 200.105 108, 199.417 108 C 198.729 108, 198.017 107.609, 197.833 107.131 C 197.650 106.653, 193.314 103.447, 188.198 100.006 C 179.180 93.942, 178.915 93.655, 179.534 90.625 C 179.884 88.906, 181.033 86.883, 182.086 86.128 C 183.139 85.373, 184 83.695, 184 82.398 C 184 81.101, 184.659 78.344, 185.464 76.270 C 186.269 74.197, 186.831 70.041, 186.714 67.037 C 186.528 62.289, 186.156 61.380, 183.872 60.100 C 181.638 58.848, 180.389 58.819, 175.528 59.906 C 170.968 60.927, 169.018 62.027, 165.893 65.343 C 163.738 67.629, 160.854 70.687, 159.485 72.137 C 158.116 73.587, 156.715 76.175, 156.373 77.887 C 155.800 80.750, 155.965 81, 158.425 81 C 161.920 81, 165.795 78.920, 169.437 75.089 C 171.052 73.390, 172.917 72, 173.580 72 C 175.134 72, 176.208 74.753, 174.956 75.527 C 174.430 75.852, 174 77.147, 174 78.405 C 174 81.018, 171.590 86.266, 169.651 87.874 C 168.777 88.600, 167.276 88.653, 165.115 88.033 C 160.225 86.631, 158.679 87.634, 159.351 91.774 C 159.661 93.687, 160.834 95.896, 161.958 96.683 C 164.108 98.189, 164.693 101.453, 163 102.500 C 162.450 102.840, 162 104.216, 162 105.559 C 162 106.902, 161.550 108, 161 108 C 160.450 108, 159.985 108.787, 159.967 109.750 C 159.912 112.702, 154.501 121.415, 151.768 122.953 C 147.551 125.326, 144.304 123.212, 143.454 117.541 C 143.077 115.030, 142.371 112.729, 141.885 112.429 C 141.398 112.128, 141 110.810, 141 109.500 C 141 108.190, 140.550 106.840, 140 106.500 C 137.966 105.243, 139.127 102.434, 142.615 100.174 C 146.090 97.922, 146.183 97.704, 145.526 93.322 C 144.953 89.502, 145.151 88.582, 146.799 87.428 C 149.509 85.530, 153 77.721, 153 73.558 C 153 70.622, 152.505 69.867, 149.750 68.605 C 147.963 67.786, 145.375 66.977, 144 66.808 C 141.606 66.513, 141.515 66.250, 141.846 60.636 C 142.313 52.725, 139.913 48, 135.428 48 C 130.528 48, 127.250 52.850, 130.173 55.773 C 130.830 56.430, 131.379 60.034, 131.423 63.971 C 131.493 70.388, 131.258 71.235, 128.708 73.748 C 127.172 75.262, 125.328 77.356, 124.609 78.403 C 122.463 81.531, 120.696 79.392, 121.264 74.354 C 121.535 71.942, 121.342 69.711, 120.834 69.397 C 119.578 68.621, 120.929 51.816, 122.367 50.328 C 122.990 49.683, 125.525 48.071, 128 46.746 C 141.909 39.299, 144 37.685, 144 34.402 C 144 31.984, 140.599 28.950, 138.027 29.073 C 137.187 29.113, 135.150 29.984, 133.500 31.007 M 122 91.811 C 122 95.675, 121.727 99.548, 121.393 100.418 C 120.208 103.507, 123.251 101.951, 127.354 97.371 C 129.634 94.825, 132.512 91.610, 133.750 90.225 C 137.118 86.457, 136.734 84.621, 132.750 85.445 C 128.101 86.407, 125.747 86.436, 123.750 85.557 C 122.176 84.864, 122 85.494, 122 91.811 M 121.830 117.719 C 122.044 125.299, 122.381 131.673, 122.577 131.884 C 122.774 132.095, 125.605 131.270, 128.868 130.049 C 135.610 127.528, 135.779 127.117, 135.165 114.750 C 134.888 109.171, 134.532 108, 133.115 108 C 132.172 108, 130.908 108.492, 130.306 109.094 C 128.550 110.850, 125.637 109.700, 125 107 C 124.677 105.631, 123.744 104.382, 122.927 104.224 C 121.655 103.980, 121.497 105.928, 121.830 117.719 M 157.782 134.062 C 156.195 134.987, 155.202 136.789, 152.141 144.297 C 151.513 145.835, 151 149.061, 151 151.465 C 151 157.816, 150.379 158.713, 144.675 160.608 C 141.842 161.549, 138.169 163.145, 136.512 164.156 C 134.855 165.166, 132.514 165.994, 131.309 165.996 C 130.104 165.998, 128.840 166.450, 128.500 167 C 128.160 167.550, 126.994 168, 125.910 168 C 123.553 168, 122.274 170.674, 123.867 172.267 C 124.490 172.890, 125 174.445, 125 175.721 C 125 178.774, 129.357 180.975, 131.828 179.170 C 134.424 177.272, 147.951 171, 149.447 171 C 151.350 171, 152.124 175.082, 150.978 179.078 C 150.440 180.953, 150 184.610, 150 187.206 C 150 192.789, 146.557 202.645, 144.177 203.875 C 143.254 204.351, 139.348 205.041, 135.496 205.407 C 131.644 205.773, 125.344 206.752, 121.496 207.581 C 117.648 208.411, 110.658 209.684, 105.963 210.409 C 97.167 211.769, 92.164 213.713, 88.250 217.291 C 85.326 219.965, 85.412 221.063, 88.805 224.313 C 92.265 227.628, 94.012 227.672, 98.771 224.567 C 100.822 223.229, 104.300 221.829, 106.500 221.455 C 108.700 221.081, 111.400 220.220, 112.500 219.542 C 114.288 218.438, 123.240 217.223, 134.500 216.555 C 136.700 216.425, 141.200 215.819, 144.500 215.209 C 161.260 212.111, 209.604 212.906, 223 216.501 C 226.025 217.312, 230.202 217.982, 232.282 217.988 C 234.362 217.995, 237.520 218.608, 239.299 219.351 C 241.078 220.095, 244.776 221.033, 247.517 221.437 C 250.257 221.841, 256.035 223.333, 260.356 224.753 C 267.731 227.177, 268.373 227.237, 270.856 225.734 C 275.020 223.214, 275.548 221.674, 273.630 217.632 C 271.370 212.871, 269.024 211.772, 260.563 211.513 C 253.946 211.310, 243.908 209.679, 241.995 208.497 C 241.527 208.208, 236.373 207.302, 230.541 206.483 C 224.709 205.664, 217.814 204.478, 215.219 203.846 C 212.336 203.145, 200.205 202.659, 184.046 202.599 L 157.592 202.500 157.882 197 C 158.042 193.975, 158.544 191.050, 158.998 190.500 C 159.452 189.950, 159.837 188.375, 159.854 187 C 159.871 185.625, 160.134 180.225, 160.438 175 C 160.910 166.905, 161.299 165.278, 163.067 164 C 164.208 163.175, 166.573 161.338, 168.321 159.919 C 170.069 158.499, 172.287 157.051, 173.250 156.700 C 174.514 156.240, 175 154.965, 175 152.113 C 175 149.941, 174.727 147.452, 174.393 146.582 C 173.480 144.203, 169.650 144.679, 167 147.500 C 164.423 150.243, 162 150.784, 162 148.615 C 162 147.853, 162.744 144.927, 163.653 142.112 C 165.218 137.265, 165.210 136.890, 163.498 134.997 C 161.487 132.776, 160.317 132.585, 157.782 134.062" stroke="none" fill="black" fill-rule="evenodd"/>
</svg>