<svg xmlns="http://www.w3.org/2000/svg" width="300" height="300" viewBox="0 0 300 300" version="1.1">
	<path d="M 68.406 12.152 C 68.015 12.785, 68.438 13.847, 69.347 14.512 C 71.516 16.098, 71.433 17.299, 69 19.500 C 67.852 20.539, 67 22.580, 67 24.290 C 67 28.071, 65.044 39.867, 63.981 42.500 C 63.537 43.600, 62.389 47.875, 61.430 52 C 59.546 60.109, 51.961 84.702, 49.094 92 C 48.122 94.475, 46.284 99.875, 45.010 104 C 41.528 115.276, 38.277 125.258, 37.184 128.028 C 36.647 129.388, 35.666 132.525, 35.003 135 C 33.744 139.697, 31.309 146.028, 27.502 154.500 C 26.267 157.250, 24.698 161.300, 24.017 163.500 C 22.626 167.995, 21.253 171.169, 14.501 185.500 C 11.909 191, 8.959 196.405, 7.945 197.511 C 5.811 199.838, 4.507 206.868, 5.840 208.857 C 7.203 210.889, 10.167 209.438, 13 205.352 C 14.375 203.368, 16.513 200.657, 17.750 199.327 C 18.988 197.997, 20 196.239, 20 195.419 C 20 194.600, 20.631 192.933, 21.402 191.715 C 22.173 190.497, 23.125 187.925, 23.517 186 C 23.910 184.075, 24.650 181.978, 25.163 181.341 C 25.675 180.703, 27.336 177.778, 28.853 174.841 C 30.370 171.903, 32.111 168.600, 32.722 167.500 C 33.333 166.400, 34.375 164.037, 35.038 162.250 C 36.525 158.239, 39.385 157.966, 41.195 161.663 C 42.281 163.878, 43.761 164.628, 50 166.121 C 54.125 167.108, 59.638 167.935, 62.250 167.958 C 65.598 167.988, 67 168.407, 67 169.378 C 67 171.818, 64.226 177.485, 62.083 179.425 C 60.937 180.462, 60 181.943, 60 182.717 C 60 184.273, 46.579 198, 45.057 198 C 43.102 198, 38.009 204.554, 38.005 207.076 C 38 209.902, 41.692 214, 44.243 214 C 45.131 214, 46.452 213.423, 47.179 212.717 C 49.908 210.067, 54.661 207.299, 59.500 205.542 C 62.250 204.543, 65.210 203.113, 66.079 202.363 C 66.947 201.613, 68.451 201, 69.421 201 C 70.391 201, 72.329 200.100, 73.727 199 C 75.126 197.900, 77.222 196.986, 78.385 196.969 C 79.548 196.952, 82.300 195.829, 84.500 194.474 C 86.700 193.119, 89.130 192.008, 89.900 192.005 C 92.210 191.997, 102.204 186.777, 106.750 183.205 C 111.102 179.786, 112.186 176.586, 109.800 174.200 C 107.982 172.382, 104.526 172.761, 102.500 175 C 101.505 176.100, 100.110 177, 99.402 177 C 98.694 177, 96.626 177.871, 94.807 178.935 C 92.988 180, 89.250 181.420, 86.500 182.092 C 83.750 182.763, 79.095 184.400, 76.156 185.729 C 73.216 187.058, 70.598 187.931, 70.336 187.669 C 69.585 186.918, 73.568 179.698, 75.894 177.595 C 77.052 176.547, 78 175.119, 78 174.422 C 78 173.724, 79.024 171.881, 80.275 170.327 C 81.526 168.772, 83.177 166.262, 83.944 164.750 C 84.711 163.238, 85.712 162, 86.169 162 C 86.626 162, 87 161.155, 87 160.121 C 87 159.088, 88.575 155.627, 90.500 152.430 C 92.425 149.233, 94 146.084, 94 145.431 C 94 144.779, 94.628 143.724, 95.395 143.087 C 99.146 139.974, 97.766 129, 93.625 129 C 89.895 129, 87 131.768, 87 135.334 C 87 137.106, 86.392 139.443, 85.649 140.527 C 84.906 141.612, 84.019 143.655, 83.676 145.066 C 83.104 147.428, 79.888 152, 78.799 152 C 78.098 152, 78.636 124.690, 79.524 115.224 C 80.253 107.456, 80.162 106.801, 78.044 104.546 C 76.008 102.379, 75.857 101.541, 76.502 95.983 C 77.053 91.239, 77.882 89.065, 80.108 86.529 C 84.372 81.673, 83.741 75, 79.019 75 C 78.149 75, 74.766 77.700, 71.500 81 C 66.148 86.409, 62 88.608, 62 86.038 C 62 85.508, 62.848 82.696, 63.885 79.788 C 65.905 74.121, 69.101 63.569, 71.218 55.580 C 71.935 52.874, 73.051 50.483, 73.698 50.267 C 75.405 49.698, 78.850 53.496, 79.556 56.725 C 80.776 62.308, 82.249 65, 84.082 65 C 86.677 65, 89.710 61.411, 90.276 57.671 C 90.916 53.446, 88.816 49.601, 82.436 43.315 L 77.174 38.129 78.113 27.199 C 79.313 13.231, 78.621 11, 73.084 11 C 70.903 11, 68.798 11.518, 68.406 12.152 M 153.750 18.080 C 151.708 19.269, 151.253 27.853, 153.133 29.733 C 154.903 31.503, 153.458 33.726, 149.089 35.955 C 141.851 39.647, 139.213 37.933, 140.785 30.559 C 141.883 25.412, 140.608 22.544, 137.488 23.145 C 134.282 23.762, 132.027 29.042, 131.824 36.402 C 131.647 42.828, 131.498 43.209, 128.569 44.730 C 126.881 45.606, 123.475 46.840, 121 47.471 C 116.761 48.553, 116.482 48.838, 116.185 52.379 C 116.012 54.448, 116.405 56.783, 117.058 57.570 C 118.744 59.601, 123.609 59.340, 126.790 57.047 C 128.281 55.973, 130.738 54.799, 132.250 54.439 L 135 53.783 135.129 61.142 C 135.200 65.189, 135.469 69.850, 135.727 71.500 C 135.985 73.150, 136.265 79.414, 136.348 85.419 L 136.500 96.338 129.500 99.152 C 125.650 100.700, 121.798 102.374, 120.940 102.873 C 120.083 103.371, 116.795 104.316, 113.634 104.972 C 108.994 105.935, 107.706 106.643, 106.944 108.648 C 105.667 112.006, 105.685 112.094, 108.326 115.395 L 110.642 118.289 117.322 116.131 C 120.995 114.944, 127.488 112.166, 131.750 109.956 C 153.615 98.623, 159.261 95.746, 167.859 91.559 C 173.006 89.051, 178.203 87, 179.409 87 C 180.614 87, 182.039 86.561, 182.576 86.024 C 183.113 85.487, 185.978 84.699, 188.943 84.272 C 193.684 83.590, 194.449 83.152, 195.285 80.644 C 196.045 78.366, 195.840 77.261, 194.268 75.146 C 193.185 73.691, 191.297 72.352, 190.072 72.170 C 188.156 71.887, 176.449 76.042, 173.500 78.053 C 172.950 78.429, 170.051 79.535, 167.057 80.512 C 164.063 81.489, 159.587 83.574, 157.111 85.145 C 154.635 86.715, 152.247 88, 151.804 88 C 150.279 88, 151.007 84.949, 153.460 81.063 C 154.813 78.920, 156.233 75.921, 156.615 74.400 C 156.996 72.878, 157.912 70.478, 158.648 69.067 C 159.385 67.655, 159.990 65.289, 159.994 63.809 C 159.997 62.329, 160.450 60.840, 161 60.500 C 161.550 60.160, 162.007 58.671, 162.015 57.191 C 162.023 55.711, 162.679 52.700, 163.471 50.500 C 164.264 48.300, 164.932 45.093, 164.956 43.372 C 165.006 39.784, 166.837 37.922, 171.711 36.500 C 173.690 35.923, 175.847 34.329, 176.813 32.730 C 178.329 30.222, 178.343 29.701, 176.963 27.230 C 175.101 23.897, 170.293 23.107, 166.599 25.527 C 163.599 27.493, 162 26.768, 162 23.441 C 162 20.845, 158.834 16.980, 156.750 17.030 C 156.063 17.047, 154.713 17.519, 153.750 18.080 M 146.805 49.265 C 143.132 52.481, 143.116 52.530, 143.992 57.728 C 144.476 60.604, 144.677 66.824, 144.438 71.552 C 144.048 79.248, 144.181 80.112, 145.709 79.818 C 147.454 79.481, 148.859 75.837, 151.616 64.500 C 153.979 54.785, 155.087 47.950, 154.464 46.942 C 153.365 45.163, 150.495 46.034, 146.805 49.265 M 57.211 98.750 C 56.739 99.713, 55.789 102.525, 55.100 105 C 54.412 107.475, 53.208 110.774, 52.425 112.331 C 51.641 113.888, 51 116.161, 51 117.381 C 51 118.601, 50.621 120.027, 50.158 120.550 C 49.695 121.072, 48.740 124.200, 48.034 127.500 C 47.329 130.800, 46.133 134.388, 45.376 135.473 C 44.619 136.557, 44 138.668, 44 140.163 C 44 141.659, 43.550 143.160, 43 143.500 C 42.450 143.840, 42 144.959, 42 145.988 C 42 147.016, 41.281 148.576, 40.403 149.454 C 37.642 152.215, 39.343 153.931, 44.302 153.385 C 47.498 153.034, 49.652 153.429, 52.108 154.817 C 56.244 157.155, 64.084 159.323, 66.630 158.833 C 68.305 158.510, 68.514 157.377, 68.630 147.986 C 68.702 142.219, 69.105 136.667, 69.526 135.649 C 70.020 134.455, 69.796 133.485, 68.896 132.914 C 66.666 131.502, 65.960 131.825, 64.885 134.750 C 63.434 138.695, 56.290 144.173, 53.081 143.800 C 50.827 143.538, 50.462 142.973, 50.197 139.346 C 49.904 135.330, 50.181 134.904, 58.578 126.450 L 67.262 117.707 66.638 111.104 C 66.295 107.472, 66.011 103.465, 66.007 102.199 C 66.002 100.522, 65.060 99.505, 62.532 98.449 C 58.202 96.640, 58.249 96.637, 57.211 98.750 M 157.092 113.003 C 153.786 115.755, 149.825 119.579, 148.290 121.503 C 145.035 125.583, 143.842 125.839, 142.487 122.750 C 141.886 121.381, 140.450 120.379, 138.817 120.190 C 133.710 119.600, 133.086 123.174, 132.443 156.672 C 132.171 170.878, 131.510 184.978, 130.974 188.007 C 130.439 191.035, 129.963 198.159, 129.917 203.836 C 129.848 212.316, 130.144 214.501, 131.572 216.079 C 133.603 218.324, 137.263 218.593, 138.903 216.617 C 139.750 215.596, 141.719 215.368, 146.423 215.746 C 150.856 216.102, 154.252 215.762, 157.576 214.629 C 164.636 212.223, 169.179 212.498, 172 215.500 C 175.205 218.912, 178.364 218.702, 181.073 214.897 C 183.198 211.914, 183.272 211.040, 183.006 192.147 C 182.653 167.027, 181.900 157.748, 179.139 144.500 C 178.566 141.750, 177.549 136.442, 176.879 132.705 C 176.210 128.967, 175.288 125.678, 174.831 125.396 C 174.374 125.113, 174 123.514, 174 121.842 C 174 116.087, 168.402 108, 164.417 108 C 163.695 108, 160.399 110.251, 157.092 113.003 M 158 126.073 C 156.075 127.734, 152.813 130.202, 150.750 131.559 C 147.967 133.389, 147 134.714, 147 136.698 C 147 138.168, 146.160 140.300, 145.133 141.436 C 143.207 143.565, 141.874 155.264, 140.479 182.288 C 140.172 188.221, 139.495 194.198, 138.973 195.570 C 138.339 197.240, 138.425 199.561, 139.235 202.591 C 140.277 206.484, 140.729 207.022, 142.473 206.442 C 143.588 206.072, 148.550 205.131, 153.500 204.353 C 167.161 202.206, 171.376 201.082, 172.794 199.209 C 173.707 198.004, 174.046 193.964, 173.946 185.500 C 173.724 166.850, 172.767 163.722, 169.203 170.003 C 167.111 173.690, 164.102 174.860, 162.466 172.623 C 160.675 170.173, 158.376 170.663, 156 174 C 153.222 177.902, 148.503 178.197, 146.852 174.574 C 145.201 170.952, 149.003 165.456, 158.172 158.208 C 161.187 155.824, 165.855 154.998, 167.427 156.570 C 170.827 159.970, 172.021 156.842, 169.937 149.993 C 169.353 148.072, 168.478 144.250, 167.995 141.500 C 166.029 130.327, 163.752 122.976, 162.275 123.027 C 161.849 123.042, 159.925 124.413, 158 126.073" stroke="none" fill="black" fill-rule="evenodd"/>
</svg>