<svg xmlns="http://www.w3.org/2000/svg" width="300" height="300" viewBox="0 0 300 300" version="1.1">
	<path d="M 81.686 13.156 C 80.759 13.675, 80 14.701, 80 15.435 C 80 16.170, 79.328 18.060, 78.506 19.636 C 77.685 21.211, 77.010 23.438, 77.006 24.583 C 77.003 25.729, 76.692 26.975, 76.315 27.352 C 75.253 28.414, 72.911 35.065, 72.037 39.500 C 71.604 41.700, 70.557 45.525, 69.711 48 C 68.865 50.475, 67.405 55.200, 66.467 58.500 C 65.529 61.800, 63.944 66.750, 62.945 69.500 C 61.945 72.250, 60.817 76.060, 60.437 77.967 C 60.057 79.874, 59.413 82.124, 59.007 82.967 C 57.562 85.966, 55.743 91.579, 54.461 97 C 52.911 103.549, 51.283 108.470, 49.389 112.331 C 48.625 113.888, 48 115.999, 48 117.022 C 48 118.045, 47.600 119.129, 47.110 119.432 C 46.621 119.734, 45.984 121.448, 45.694 123.241 C 44.739 129.144, 41.037 143.466, 40.009 145.236 C 39.454 146.191, 39 147.660, 39 148.500 C 39 149.340, 38.582 150.809, 38.072 151.764 C 36.787 154.169, 34 163.537, 34 165.451 C 34 166.318, 33.592 167.809, 33.092 168.764 C 32.593 169.719, 31.488 172.750, 30.636 175.500 C 28.467 182.507, 26.162 188.940, 24.455 192.750 C 22.223 197.735, 20.355 202.182, 19.037 205.651 C 18.378 207.384, 16.750 209.825, 15.420 211.076 C 14.089 212.326, 13 213.895, 13 214.564 C 13 216.714, 16.451 220.148, 18.009 219.548 C 19.252 219.068, 26.968 208.749, 29.126 204.680 C 32.170 198.938, 34 194.482, 34 192.810 C 34 191.709, 34.739 189.389, 35.643 187.654 C 38.798 181.596, 39 181.006, 39 177.842 C 39 176.091, 39.595 173.947, 40.322 173.079 C 41.050 172.210, 42.226 169.475, 42.936 167 C 43.647 164.525, 44.586 161.600, 45.023 160.500 C 45.460 159.400, 47.029 154.450, 48.509 149.500 C 49.989 144.550, 51.800 138.925, 52.533 137 C 53.267 135.075, 54.406 131.025, 55.065 128 C 55.725 124.975, 56.688 121.680, 57.205 120.679 C 57.723 119.677, 58.794 116.302, 59.586 113.179 C 60.378 110.055, 61.425 106.600, 61.913 105.500 C 62.401 104.400, 63.532 100.800, 64.427 97.500 C 65.322 94.200, 66.763 89.475, 67.629 87 C 69.335 82.128, 71.275 75.795, 73.832 66.750 C 75.603 60.484, 77.452 59.429, 79.094 63.748 C 80.507 67.464, 82.936 70, 85.082 70 C 87.366 70, 91 74.614, 91 77.512 C 91 78.746, 91.669 80.311, 92.487 80.989 C 94.243 82.447, 97 81.650, 97 79.685 C 97 78.927, 97.710 76.885, 98.577 75.146 C 100.060 72.173, 100.028 71.781, 98.039 68.562 C 94.104 62.196, 88.373 58.231, 80.659 56.539 C 78.481 56.062, 77.978 55.518, 78.503 54.208 C 78.880 53.269, 79.771 50.475, 80.483 48 C 82.430 41.238, 87.100 28.030, 89.169 23.434 C 92.067 16.998, 91.665 15.735, 85.936 13.302 C 84.283 12.599, 82.773 12.548, 81.686 13.156 M 153.388 23.688 C 152.226 23.916, 150.044 25.388, 148.539 26.959 C 145.999 29.611, 145.900 30.019, 147.159 32.658 C 148.288 35.023, 149.226 35.552, 152.757 35.807 C 156.927 36.110, 157 36.178, 156.994 39.807 C 156.990 41.838, 156.265 44.850, 155.382 46.500 C 152.233 52.384, 149 63.036, 149 67.527 C 149 71.062, 149.564 72.655, 151.500 74.591 C 152.875 75.966, 154 77.450, 154 77.890 C 154 78.329, 155.124 79.996, 156.499 81.594 C 160.205 85.904, 159.713 88.919, 154.703 92.599 C 152.383 94.303, 149.138 96.409, 147.492 97.278 C 145.847 98.147, 142.925 100.898, 141 103.391 C 139.075 105.884, 136.970 107.941, 136.323 107.962 C 134.470 108.022, 131 113.024, 131 115.635 C 131 118.598, 134.090 121.768, 137.725 122.534 C 139.251 122.856, 141.175 123.538, 142 124.049 C 149.010 128.395, 151.896 129.330, 159.133 129.597 C 165.901 129.847, 166.996 129.631, 168.804 127.689 C 172.108 124.140, 174.233 108.248, 172.668 98.788 C 171.912 94.215, 172.012 93.942, 176.072 89.538 C 178.774 86.606, 181.094 85, 182.626 85 C 184.369 85, 185.786 83.742, 187.979 80.250 C 191.683 74.352, 191.665 73.114, 187.834 70.082 L 184.779 67.664 181.213 69.582 C 179.252 70.637, 175.890 73.188, 173.742 75.250 C 171.594 77.313, 169.579 79, 169.265 79 C 168.256 79, 161.562 71.224, 159.703 67.894 C 157.922 64.703, 157.934 64.603, 161.046 56.587 C 162.773 52.139, 165.089 46.784, 166.193 44.686 C 167.569 42.070, 168.200 38.946, 168.200 34.742 C 168.200 29.008, 167.983 28.432, 164.850 25.833 C 161.616 23.150, 158.802 22.623, 153.388 23.688 M 81.500 96.209 C 80.400 96.841, 78.307 98.628, 76.849 100.179 C 75.391 101.731, 73.548 103, 72.754 103 C 70 103, 67.851 106.597, 68.184 110.647 C 68.463 114.043, 68.850 114.551, 71.500 115.003 C 74.357 115.490, 74.528 115.800, 75.095 121.507 C 75.422 124.803, 76.001 128.875, 76.382 130.556 C 76.985 133.220, 76.601 134.042, 73.382 136.971 C 71.352 138.818, 67.848 141.301, 65.595 142.488 C 62.623 144.055, 61.415 145.368, 61.188 147.274 C 60.299 154.768, 67.435 156.586, 73.307 150.361 C 75.246 148.306, 77.232 147.026, 77.870 147.420 C 78.598 147.870, 79 152.001, 79 159.036 C 79 169.601, 78.918 170.007, 76.481 171.605 C 73.327 173.671, 67.609 172.921, 64.542 170.040 C 61.711 167.380, 56.852 167.401, 54.425 170.083 C 52.575 172.127, 52.580 172.235, 54.654 175.833 C 56.362 178.794, 57.706 179.747, 61.635 180.784 C 66.527 182.074, 72.001 181.982, 75.250 180.555 C 76.693 179.921, 77 180.299, 77 182.713 C 77 186.889, 71.698 192.628, 61.685 199.290 C 57.047 202.377, 52.965 205.648, 52.616 206.558 C 51.685 208.985, 53.757 215.693, 55.663 216.424 C 57.898 217.282, 63.710 215.249, 65.247 213.072 C 65.936 212.096, 67.897 210.578, 69.605 209.698 C 74.637 207.106, 84.347 200.415, 86.405 198.122 C 87.453 196.955, 89.181 196, 90.245 196 C 91.310 196, 93.365 194.650, 94.813 193 C 96.261 191.350, 98.440 190, 99.655 190 C 102.172 190, 105.612 185.756, 106.146 181.991 C 106.626 178.614, 103.511 178.238, 97.413 180.936 C 94.846 182.071, 92.353 183, 91.873 183 C 90.304 183, 90.956 180.350, 92.975 178.523 C 94.971 176.717, 99 169.238, 99 167.339 C 99 166.773, 99.903 165.492, 101.007 164.493 C 103.665 162.088, 105.899 157.481, 106.633 152.894 C 107.183 149.455, 106.980 149.041, 103.976 147.487 C 99.088 144.960, 96 146.667, 96 151.895 C 96 154.061, 95.633 155.983, 95.185 156.167 C 94.737 156.350, 93.663 158.300, 92.799 160.500 C 90.604 166.087, 88 166.434, 88 161.138 C 88 158.934, 88.420 156.026, 88.933 154.676 C 89.446 153.326, 89.985 146.488, 90.130 139.480 C 90.386 127.095, 90.327 126.683, 88 124.799 C 85.961 123.147, 85.575 121.874, 85.388 116.181 C 85.175 109.678, 85.263 109.418, 88.692 106.409 C 91.971 103.534, 92.122 103.151, 90.858 100.909 C 87.468 94.895, 85.505 93.909, 81.500 96.209 M 158.623 102.720 C 150.498 111.103, 147.860 114.871, 148.838 116.698 C 150.865 120.484, 153.697 122.141, 157.586 121.816 C 162.099 121.439, 162.840 119.641, 163.242 108.088 C 163.537 99.626, 162.636 98.579, 158.623 102.720 M 187.500 141.710 C 182.264 142.962, 167.017 148.428, 163 150.493 C 150.825 156.754, 147.543 158.699, 143.923 161.798 C 141.765 163.645, 139.986 165.908, 139.968 166.828 C 139.912 169.803, 137.145 172.581, 135.360 171.455 C 133.173 170.076, 128.146 161.621, 126.604 156.727 C 126.297 155.752, 125.248 154.707, 124.273 154.404 C 123.298 154.102, 121.669 153.406, 120.654 152.859 C 119.287 152.122, 118.334 152.293, 116.981 153.517 C 114.328 155.918, 115.515 161.395, 120.010 167.500 C 122.035 170.250, 124.499 174.075, 125.485 176 C 126.472 177.925, 127.616 179.725, 128.027 180 C 129.503 180.987, 136 193.707, 136 195.611 C 136 198.127, 138.721 202, 140.489 202 C 141.245 202, 142.816 200.663, 143.979 199.029 C 145.981 196.218, 146.016 195.794, 144.639 191.157 C 143.839 188.462, 142.475 184.886, 141.609 183.210 C 140.199 180.484, 140.191 179.788, 141.530 176.582 C 142.535 174.177, 143.680 173, 145.013 173 C 146.106 173, 147.900 172.100, 149 171 C 150.100 169.900, 151.915 169, 153.034 169 C 154.890 169, 155.012 169.428, 154.424 173.860 C 154.042 176.741, 154.223 179.549, 154.869 180.756 C 155.469 181.876, 156.035 187.144, 156.129 192.462 C 156.346 204.918, 156.269 204.999, 142.829 206.170 C 137.148 206.666, 130.250 207.506, 127.500 208.038 C 124.750 208.570, 119.880 209.469, 116.678 210.036 C 113.475 210.603, 107.850 212.514, 104.178 214.284 C 96.764 217.854, 95.767 219.714, 98.465 224.932 C 100.425 228.722, 103.682 228.972, 107.673 225.640 C 109.228 224.342, 112.537 222.979, 115.027 222.612 C 117.516 222.245, 120.762 221.317, 122.239 220.551 C 125.917 218.643, 133.860 217.179, 144 216.540 C 157.858 215.668, 195.798 215.960, 205.500 217.014 C 210.450 217.552, 219 218.278, 224.500 218.627 C 230 218.977, 234.979 219.640, 235.564 220.100 C 236.149 220.560, 240.526 221.379, 245.291 221.921 C 250.056 222.462, 254.907 223.415, 256.071 224.038 C 259.419 225.830, 276.023 226.371, 279 224.786 C 283.108 222.598, 282.900 217.997, 278.517 214.149 C 274.595 210.705, 270.955 210.163, 265.354 212.189 C 262.709 213.146, 259.761 213.042, 250.283 211.659 C 219.350 207.145, 210.279 206.301, 180.581 205.178 C 169.242 204.749, 162.531 204.104, 162.305 203.423 C 162.109 202.830, 164.636 199.412, 167.921 195.828 C 172.439 190.897, 174.185 188.116, 175.091 184.405 C 175.749 181.707, 176.747 178.604, 177.308 177.510 C 179.013 174.182, 180.831 161.654, 179.875 159.816 C 179.394 158.889, 179 157.685, 179 157.139 C 179 155.672, 184.479 153.201, 189.351 152.470 C 195.456 151.555, 196.456 153.107, 195.669 162.277 C 194.668 173.929, 190.680 183.291, 184.035 189.588 C 179.874 193.532, 178.889 196.637, 181.485 197.632 C 182.301 197.946, 184.251 197.369, 185.819 196.351 C 187.386 195.333, 190.333 193.434, 192.368 192.131 C 197.315 188.964, 201.903 182.072, 203.666 175.157 C 206.491 164.081, 206.913 161.413, 206.956 154.354 C 206.999 147.403, 206.903 147.122, 203.465 144.104 C 200.419 141.429, 199.210 141.016, 194.715 141.116 C 191.847 141.180, 188.600 141.447, 187.500 141.710 M 164.040 160.452 C 163.306 161.336, 163.130 162.804, 163.589 164.202 C 164.004 165.466, 164.228 170.438, 164.088 175.250 C 163.877 182.505, 164.092 184, 165.346 184 C 166.395 184, 167.189 182.238, 167.939 178.250 C 168.534 175.088, 169.516 170.056, 170.122 167.069 C 171.105 162.226, 171.029 161.495, 169.421 160.319 C 167.088 158.612, 165.535 158.651, 164.040 160.452" stroke="none" fill="black" fill-rule="evenodd"/>
</svg>