<svg xmlns="http://www.w3.org/2000/svg" width="300" height="300" viewBox="0 0 300 300" version="1.1">
	<path d="M 114.621 13.521 C 113.730 14.413, 113 16.558, 113 18.288 C 113 20.018, 112.284 23.307, 111.409 25.598 C 110.177 28.826, 109.109 29.965, 106.659 30.664 C 104.121 31.388, 103.316 32.302, 102.566 35.313 C 101.413 39.941, 103.072 42.003, 108.682 42.911 C 112.401 43.513, 112.516 43.659, 113.127 48.515 C 114.033 55.728, 112.369 58, 106.177 58 C 103.550 58, 100.860 58.540, 100.200 59.200 C 98.111 61.289, 98.774 65.806, 101.424 67.542 C 103.642 68.995, 104.115 68.992, 106.991 67.504 C 111.740 65.049, 114.435 65.823, 114.813 69.750 C 115.113 72.853, 113.810 74.120, 112.500 72 C 112.160 71.450, 111.476 71, 110.980 71 C 109.628 71, 106 75.179, 106 76.737 C 106 78.496, 100.968 82.927, 98.924 82.968 C 96.940 83.008, 93 87.125, 93 89.159 C 93 91.339, 96.257 94, 98.924 94 C 100.171 94, 102.401 93.139, 103.879 92.086 C 107.247 89.688, 113.515 88.406, 114.453 89.923 C 114.828 90.530, 114.419 93.486, 113.545 96.493 C 112.134 101.348, 112.121 102.353, 113.427 105.480 C 115.118 109.528, 116.164 109.813, 118.827 106.955 C 120.224 105.456, 120.912 102.722, 121.406 96.705 C 122.496 83.438, 123.191 81.592, 129.444 75.339 C 134.855 69.928, 135.084 69.489, 134.798 65.093 C 134.523 60.859, 134.305 60.520, 132 60.757 C 130.625 60.899, 128.481 62.249, 127.236 63.757 C 125.333 66.063, 124.818 66.261, 124.002 65 C 123.468 64.175, 123.024 63.007, 123.015 62.405 C 122.992 60.770, 126.135 58.355, 129.250 57.615 C 133.884 56.514, 132.100 50, 127.165 50 C 123.221 50, 122 48.282, 122 42.734 C 122 37.396, 123.011 34.825, 126.643 30.924 C 128.711 28.702, 128.930 27.813, 128.233 24.460 C 127.646 21.633, 126.820 20.426, 125.206 20.036 C 123.979 19.740, 122.206 17.935, 121.243 16.003 C 119.258 12.020, 116.978 11.165, 114.621 13.521 M 55.138 22.334 C 53.621 24.161, 52.309 28.455, 50.503 37.500 C 47.967 50.207, 47.161 53.507, 45.493 58.027 C 44.585 60.487, 43.493 64.075, 43.067 66 C 42.132 70.218, 37.446 84.136, 35.324 89 C 34.483 90.925, 33.408 93.400, 32.933 94.500 C 32.459 95.600, 31.202 98.975, 30.142 102 C 25.037 116.557, 20.784 127.892, 18.984 131.739 C 17.893 134.071, 17 136.439, 17 137.003 C 17 137.566, 16.623 138.809, 16.162 139.764 C 14.826 142.532, 10.393 152.167, 8.623 156.151 C 7.730 158.159, 7 160.155, 7 160.585 C 7 161.419, 3.861 168.630, 1.451 173.331 C 0.413 175.355, 0.033 179.345, 0.116 187.331 C 0.180 193.474, 0.451 197.600, 0.719 196.500 C 0.987 195.400, 1.800 193.825, 2.525 193 C 3.251 192.175, 4.176 190.150, 4.581 188.500 C 4.986 186.850, 6.371 184.108, 7.659 182.406 C 8.946 180.704, 10 178.564, 10 177.652 C 10 176.739, 12.025 171.745, 14.500 166.553 C 16.975 161.362, 19 156.215, 19 155.116 C 19 154.017, 19.464 152.831, 20.032 152.480 C 20.924 151.929, 22.824 148.142, 26.041 140.500 C 26.505 139.400, 27.192 136.940, 27.569 135.033 C 27.946 133.126, 28.608 130.876, 29.040 130.033 C 32.575 123.140, 36.164 114.511, 37.582 109.500 C 38.515 106.200, 40.954 99.675, 43.002 95 C 45.050 90.325, 47.267 84.700, 47.929 82.500 C 48.591 80.300, 49.518 77.600, 49.990 76.500 C 51.050 74.027, 53.827 64.206, 54.227 61.511 C 55.011 56.243, 60.476 60.967, 63.455 69.488 C 64.568 72.669, 67.264 73.856, 69.383 72.097 C 70.091 71.509, 71.278 69.187, 72.021 66.937 C 73.235 63.258, 73.179 62.489, 71.471 59.316 C 69.425 55.517, 66.664 54, 61.799 54 C 58.745 54, 58.732 53.977, 59.417 49.750 C 61.421 37.386, 62.704 32.231, 64.403 29.709 C 65.938 27.430, 66.078 26.467, 65.163 24.459 C 64.547 23.107, 63.246 21.994, 62.271 21.986 C 61.297 21.979, 59.569 21.723, 58.430 21.417 C 57.228 21.094, 55.848 21.479, 55.138 22.334 M 170.500 21.978 C 168.300 22.378, 165.375 23.178, 164 23.755 C 161.572 24.775, 144.807 39.388, 144.195 41.018 C 143.672 42.410, 147.824 43.165, 149.896 42.055 C 150.981 41.475, 153.214 41, 154.858 41 C 156.502 41, 159.118 39.958, 160.673 38.684 C 164.176 35.815, 171.543 32, 173.582 32 C 176.147 32, 178.204 38.636, 177.736 45.406 C 177.267 52.189, 175.253 62.569, 173.888 65.236 C 173.400 66.191, 173 68.077, 173 69.427 C 173 70.777, 172.550 72.160, 172 72.500 C 171.450 72.840, 171 73.974, 171 75.019 C 171 78.483, 167.610 88, 166.376 88 C 165.709 88, 164.190 86.425, 163 84.500 C 161.810 82.575, 160.199 81, 159.418 81 C 157.602 81, 157.639 78.742, 159.560 72.500 C 160.406 69.750, 161.965 63.238, 163.024 58.029 L 164.950 48.557 162.288 45.779 C 156.043 39.260, 153.997 43.349, 150.423 69.500 C 149.521 76.100, 148.387 82.400, 147.904 83.500 C 147.421 84.600, 146.347 88.175, 145.517 91.444 C 144.324 96.143, 144.269 97.553, 145.254 98.177 C 147.756 99.764, 148.775 98.585, 151.028 91.500 C 152.499 86.872, 155.006 83.077, 156.622 83.031 C 157.239 83.014, 158.033 84.803, 158.385 87.007 C 159.126 91.638, 166.538 100, 169.903 100 C 172.362 100, 176 96.300, 176 93.798 C 176 92.794, 176.410 91.191, 176.911 90.236 C 178.514 87.182, 180.830 79.634, 181.519 75.216 C 181.887 72.860, 182.773 69.710, 183.490 68.216 C 184.206 66.722, 185.096 62.920, 185.466 59.766 C 185.837 56.612, 186.484 53.819, 186.904 53.560 C 187.323 53.300, 187.757 49.032, 187.866 44.075 C 188.038 36.278, 187.737 34.415, 185.639 30.275 C 183.996 27.033, 181.926 24.764, 179.221 23.244 C 177.025 22.010, 175.064 21.056, 174.864 21.125 C 174.664 21.194, 172.700 21.578, 170.500 21.978 M 51.355 94.285 C 45.375 98.895, 44.461 100.033, 44.195 103.195 C 43.969 105.887, 44.448 107.339, 46.057 108.838 C 47.885 110.542, 48.121 111.532, 47.567 115.179 C 47.206 117.555, 46.664 121.862, 46.363 124.750 C 45.845 129.712, 45.660 130, 42.997 130 C 40.650 130, 39.817 130.746, 38.022 134.454 C 35.268 140.144, 35.575 145.368, 38.691 145.812 C 39.896 145.983, 42.056 145.354, 43.492 144.413 C 47.784 141.601, 48.311 143.330, 47.039 156.051 C 45.809 168.355, 45.624 169, 43.327 169 C 41.639 169, 34.908 165.572, 31.168 162.807 C 29.560 161.618, 27.852 161.269, 25.668 161.682 C 19.570 162.836, 18.458 165.604, 22.286 170.101 C 25.537 173.921, 30.601 176, 36.654 176 C 41.205 176, 42 176.277, 42 177.865 C 42 179.792, 34.282 190, 32.826 190 C 30.816 190, 24 197.383, 24 199.559 C 24 201.673, 27.594 209, 28.631 209 C 30.357 209, 47.884 195.447, 59.300 185.285 C 66.890 178.528, 73.735 173, 74.511 173 C 76.997 173, 80 168.794, 80 165.311 C 80 160.740, 78.326 161.007, 69.404 167 C 58.988 173.997, 57.534 173.630, 63.250 165.448 C 68.929 157.319, 72.244 149.878, 71.806 146.243 C 71.227 141.434, 66.085 140.666, 63.933 145.067 C 63.547 145.855, 62.645 147.754, 61.927 149.287 C 61.168 150.909, 59.970 151.947, 59.061 151.770 C 57.768 151.519, 57.561 150.127, 57.857 143.669 C 58.245 135.176, 61.364 127.661, 64.883 126.741 C 67.736 125.995, 68.532 121.088, 66.182 118.737 C 64.618 117.174, 63.846 117.012, 62.188 117.900 C 58.109 120.082, 57.308 119.339, 56.718 112.822 L 56.157 106.644 61.079 101.122 C 63.785 98.085, 66 95.094, 66 94.475 C 66 92.841, 61.643 89, 59.790 89 C 58.921 89, 55.125 91.378, 51.355 94.285 M 135.475 100.041 C 135.121 100.613, 134.633 106.351, 134.390 112.791 C 133.751 129.708, 132.246 137.901, 129.160 141.250 C 127.766 142.762, 126.305 144, 125.913 144 C 125.522 144, 122.928 145.529, 120.151 147.399 C 117.373 149.268, 112.490 152.029, 109.300 153.535 C 106.110 155.040, 102.719 156.661, 101.764 157.136 C 100.809 157.611, 99.424 158, 98.688 158 C 97.417 158, 94.058 161.147, 92.642 163.665 C 91.710 165.322, 96.782 171, 99.194 171 C 100.303 171, 103.210 169.650, 105.655 168 C 108.100 166.350, 110.469 165, 110.920 165 C 111.370 165, 114.056 163.155, 116.888 160.900 C 125.197 154.285, 125.675 156.147, 119.014 169.180 C 115.832 175.406, 112.075 182.525, 110.664 185 C 107.931 189.796, 102 201.762, 102 202.481 C 102 202.717, 100.884 204.556, 99.519 206.567 C 98.155 208.577, 95.014 214.385, 92.539 219.472 C 90.064 224.560, 87.400 229.253, 86.618 229.902 C 85.836 230.551, 84.900 232.261, 84.539 233.701 C 84.177 235.142, 82.558 237.926, 80.941 239.888 C 74.614 247.563, 79.181 251.524, 86.587 244.785 C 88.450 243.090, 91.632 238.282, 93.660 234.101 C 95.687 229.921, 97.912 225.824, 98.604 224.998 C 99.295 224.172, 101.954 219.447, 104.511 214.498 C 107.068 209.549, 110.249 204.350, 111.580 202.945 C 112.911 201.540, 114 199.697, 114 198.850 C 114 198.003, 114.900 196.495, 116 195.500 C 117.100 194.505, 118 193.060, 118 192.290 C 118 191.520, 118.853 189.002, 119.896 186.695 C 120.939 184.388, 122.494 180.806, 123.351 178.736 C 125.533 173.466, 127.732 172.917, 130.996 176.826 C 132.453 178.572, 133.934 180, 134.286 180 C 135.281 180, 151.352 192.303, 152.699 194.096 C 153.745 195.488, 160.162 200.194, 171.251 207.699 C 173.038 208.908, 177.650 212.418, 181.500 215.500 C 191.359 223.390, 202.268 231.513, 207.122 234.577 C 209.396 236.012, 213.336 239.185, 215.878 241.627 C 218.420 244.069, 221.527 247.039, 222.783 248.227 C 224.038 249.416, 224.818 251.033, 224.515 251.821 C 223.629 254.131, 225.844 255.854, 230.621 256.570 C 235.949 257.369, 239 255.305, 239 250.903 C 239 248.763, 237.707 246.998, 233.437 243.308 C 230.377 240.663, 226.001 237.240, 223.712 235.700 C 221.423 234.160, 218.180 231.460, 216.504 229.700 C 214.828 227.940, 210.316 224.154, 206.478 221.286 C 202.640 218.419, 196.575 213.821, 193 211.068 C 189.425 208.315, 182.450 203.272, 177.500 199.862 C 172.550 196.452, 168.275 193.399, 168 193.078 C 167.055 191.975, 156.495 184.253, 152.001 181.378 C 149.526 179.795, 145.251 176.814, 142.501 174.754 C 139.583 172.569, 136.363 171.007, 134.769 171.004 C 131.182 170.999, 129.981 166.994, 132.360 162.968 C 133.262 161.441, 134 159.318, 134 158.251 C 134 157.183, 134.900 155.495, 136 154.500 C 137.100 153.505, 138 152.268, 138 151.753 C 138 149.915, 142.020 145.754, 147.512 141.907 C 150.579 139.758, 153.330 138, 153.625 138 C 154.518 138, 165.218 130.817, 169.750 127.174 C 174.067 123.705, 174.963 121.363, 172.800 119.200 C 170.496 116.896, 167.198 118.047, 157.613 124.500 C 152.303 128.075, 147.346 131, 146.596 131 C 144.616 131, 144.329 128.816, 144.631 116.003 C 144.894 104.773, 144.839 104.442, 142.263 101.753 C 139.561 98.932, 136.619 98.190, 135.475 100.041" stroke="none" fill="black" fill-rule="evenodd"/>
</svg>