<svg xmlns="http://www.w3.org/2000/svg" width="300" height="300" viewBox="0 0 300 300" version="1.1">
	<path d="M 157.450 24.407 C 154.059 25.884, 149 31.373, 149 33.577 C 149 35.456, 145.580 35.403, 144 33.500 C 142.370 31.536, 139.375 31.581, 138.607 33.582 C 137.515 36.429, 137.969 42.838, 139.604 47.656 C 142.338 55.708, 143.989 62.892, 144.386 68.465 C 144.595 71.406, 145.025 74.232, 145.342 74.744 C 146.536 76.677, 146.965 86.983, 145.944 89.224 C 144.621 92.127, 146.181 96.807, 148.735 97.599 C 149.706 97.900, 151.281 98.563, 152.236 99.073 C 155.750 100.949, 158.166 99.921, 164.161 94 C 171.740 86.514, 173.656 86.282, 174.489 92.750 C 175.229 98.502, 178.741 117.150, 179.996 122 C 180.495 123.925, 181.396 132.250, 182 140.500 C 182.603 148.750, 183.554 156.850, 184.114 158.500 C 184.673 160.150, 185.526 164.875, 186.010 169 C 186.493 173.125, 187.405 179.650, 188.038 183.500 C 190.798 200.311, 193.008 219.559, 193.146 228 C 193.196 231.025, 193.649 234.287, 194.154 235.250 C 195.342 237.519, 193.526 241, 191.152 241 C 190.174 241, 188.052 239.618, 186.437 237.930 C 182.659 233.981, 177.323 230.682, 176.018 231.489 C 173.497 233.047, 175.283 236.833, 181.616 243.356 C 185.255 247.104, 189.642 251.031, 191.366 252.082 C 194.912 254.244, 201.489 254.633, 202.657 252.750 C 204.722 249.422, 203.065 226.507, 198.084 189.500 C 197.492 185.100, 196.574 177.675, 196.045 173 C 195.516 168.325, 194.359 159.325, 193.474 153 C 192.589 146.675, 191.699 139.700, 191.498 137.500 C 190.895 130.928, 187.155 109.953, 184.811 100 C 184.228 97.525, 183.554 93.025, 183.312 90 C 180.936 60.198, 179.483 49.021, 176.892 40.601 C 176.401 39.006, 176 36.601, 176 35.255 C 176 32.061, 172.811 27.665, 168.614 25.071 C 164.771 22.696, 161.786 22.518, 157.450 24.407 M 156.946 37.250 C 155.833 39.038, 154.651 41.776, 154.319 43.336 C 153.987 44.896, 153.081 46.415, 152.306 46.713 C 151.396 47.062, 151.070 48.182, 151.386 49.877 C 151.655 51.320, 152.156 55.050, 152.499 58.167 C 153.281 65.266, 155.093 66.272, 159.466 62.033 C 161.187 60.365, 163.531 59, 164.675 59 C 168.968 59, 169.571 56.587, 167.635 47.151 C 165.060 34.607, 160.959 30.808, 156.946 37.250 M 45.121 46.750 C 43.077 48.452, 43.048 48.867, 44.055 62 C 44.625 69.425, 45.450 82.291, 45.888 90.591 C 46.327 98.892, 46.959 106.124, 47.292 106.664 C 47.626 107.204, 48.154 115.712, 48.466 125.573 C 48.778 135.433, 49.529 149.125, 50.136 156 C 50.793 163.442, 50.961 174.700, 50.552 183.822 C 49.963 196.936, 50.093 199.493, 51.455 201.572 C 53.327 204.428, 56.062 204.701, 58.257 202.250 C 59.628 200.718, 59.768 196.658, 59.383 169.673 L 58.942 138.847 61.043 139.514 C 63.890 140.417, 66.226 138.118, 70.066 130.630 C 71.796 127.259, 74.015 123.825, 74.997 123 C 76.970 121.344, 80 115.805, 80 113.854 C 80 113.170, 81.093 111.460, 82.429 110.055 C 83.764 108.650, 85.162 106.269, 85.533 104.765 C 86.108 102.441, 85.818 101.881, 83.605 101.040 C 81.260 100.148, 80.996 99.522, 80.964 94.775 C 80.893 84.471, 79.787 71.486, 78.900 70.550 C 78.405 70.027, 77.998 68.453, 77.996 67.050 C 77.992 64.203, 75.584 59.891, 71.685 55.750 C 68.100 51.943, 62.451 51.902, 59.453 55.661 C 56.947 58.804, 55.500 58.250, 54.611 53.807 C 54.018 50.840, 49.583 45, 47.924 45 C 47.538 45, 46.276 45.788, 45.121 46.750 M 63.667 67.667 C 63.300 68.033, 63 69.397, 63 70.698 C 63 74.077, 60.135 74.830, 58.008 72.011 C 56.286 69.727, 56.268 69.756, 55.785 75.584 C 55.091 83.944, 55.916 90, 57.748 90 C 58.566 90, 60.774 88.650, 62.653 87 C 64.532 85.350, 67.012 84, 68.164 84 C 70.136 84, 70.218 83.644, 69.569 77.907 C 69.190 74.555, 68.468 70.730, 67.965 69.407 C 67.084 67.092, 65.061 66.273, 63.667 67.667 M 162.540 73.051 C 157.982 76.500, 154.434 82.083, 155.326 84.406 C 156.284 86.903, 160.246 86.282, 164.038 83.041 C 165.942 81.413, 168.486 80.063, 169.691 80.041 C 172.751 79.984, 173.257 78.668, 172.006 74.023 C 170.656 69.008, 168.215 68.758, 162.540 73.051 M 65.214 97.563 C 63.974 98.431, 61.543 98.987, 59.741 98.813 C 56.832 98.532, 56.517 98.756, 56.665 101 C 56.756 102.375, 57.160 108.563, 57.562 114.750 C 58.025 121.872, 58.698 125.990, 59.397 125.973 C 60.004 125.958, 61.625 124.098, 63 121.839 C 64.375 119.581, 66.958 115.880, 68.740 113.616 C 71.506 110.103, 71.982 108.687, 71.990 103.950 C 72.004 96.386, 69.825 94.333, 65.214 97.563 M 112.200 98.200 C 110.509 99.891, 110.708 108.058, 112.549 112.462 C 114.551 117.254, 113.632 125, 111.061 125 C 110.119 125, 108.292 123.875, 107 122.500 C 105.332 120.725, 103.600 120, 101.026 120 C 96.518 120, 95 121.450, 95 125.755 C 95 128.858, 95.411 129.292, 100.465 131.527 C 104.723 133.410, 106.436 134.865, 108.215 138.108 C 109.472 140.398, 111.062 143.223, 111.748 144.386 C 112.435 145.549, 112.743 147.708, 112.433 149.185 C 111.864 151.895, 112.471 152.770, 117.706 156.802 C 119.823 158.432, 119.870 158.821, 118.876 166.500 C 117.337 178.393, 114.948 182.556, 107.630 186.101 C 104.339 187.695, 101.120 189, 100.478 189 C 99.835 189, 98.458 189.942, 97.416 191.092 C 95.544 193.162, 95.559 193.217, 98.777 196.092 C 100.567 197.692, 102.611 199, 103.320 199 C 104.029 199, 106.620 197.724, 109.079 196.165 C 111.537 194.606, 114.884 192.995, 116.515 192.586 C 118.146 192.176, 119.709 191.529, 119.990 191.148 C 120.832 190.003, 125.855 187, 126.929 187 C 127.479 187, 129.858 185.624, 132.215 183.943 C 134.572 182.262, 137.926 179.989, 139.668 178.893 C 141.410 177.796, 143.576 175.769, 144.481 174.388 C 147.015 170.522, 149.934 171.595, 153.029 177.532 C 154.472 180.299, 155.922 183.449, 156.251 184.532 C 156.581 185.614, 158.079 189.875, 159.580 194 C 162.598 202.292, 164.910 213.361, 165.515 222.411 C 166.008 229.801, 166.468 231, 168.814 231 C 172.740 231, 173.958 227.990, 173.692 218.954 C 173.554 214.304, 173.098 209.948, 172.677 209.274 C 172.256 208.599, 171.644 205.674, 171.318 202.774 C 170.992 199.873, 170.399 197.050, 170.001 196.500 C 169.603 195.950, 169.014 193.787, 168.692 191.693 C 168.195 188.454, 162.951 173.914, 158.524 163.500 C 156.268 158.190, 154 149.853, 154 146.864 C 154 143.032, 150.280 141.096, 146.353 142.885 C 143.707 144.091, 143.707 144.091, 144.332 152.899 L 144.957 161.707 140.229 165.390 C 130.205 173.196, 127.696 175, 126.862 175 C 126.388 175, 126 173.425, 126 171.500 C 126 169.575, 126.450 168, 127 168 C 127.550 168, 128.011 166.313, 128.024 164.250 C 128.044 160.940, 129.784 153.406, 132.871 143.254 C 133.414 141.469, 134.790 138.699, 135.929 137.100 C 137.068 135.500, 138 133.500, 138 132.655 C 138 131.810, 138.450 130.840, 139 130.500 C 139.550 130.160, 140 128.777, 140 127.427 C 140 126.077, 140.499 124.175, 141.108 123.199 C 141.962 121.831, 141.790 120.532, 140.358 117.525 C 138.234 113.068, 134.798 111.593, 128.638 112.494 C 123.616 113.229, 122.192 111.926, 121.387 105.862 C 120.500 99.176, 115.443 94.957, 112.200 98.200 M 126.527 124.915 C 125.539 128.028, 126.986 132, 129.108 132 C 130.582 132, 131 131.270, 131 128.700 C 131 123.811, 127.750 121.061, 126.527 124.915 M 115.250 133.250 C 115.880 135.142, 119 135.411, 119 133.573 C 119 132.646, 118.145 132, 116.917 132 C 115.695 132, 115.005 132.517, 115.250 133.250" stroke="none" fill="black" fill-rule="evenodd"/>
</svg>