<svg xmlns="http://www.w3.org/2000/svg" width="300" height="300" viewBox="0 0 300 300" version="1.1">
	<path d="M 165.277 49.420 C 163.695 50.751, 161.533 53.451, 160.473 55.420 C 158.416 59.240, 156 60.188, 156 57.174 C 156 55.001, 152.008 51, 149.839 51 C 146.909 51, 144 54.571, 144 58.167 C 144 60.055, 144.384 62.028, 144.852 62.550 C 145.321 63.073, 146.513 67.325, 147.500 72 C 148.936 78.801, 149.290 85.135, 149.271 103.688 C 149.248 124.904, 149.411 127.147, 151.187 130.068 C 153.127 133.258, 153.132 133.259, 160.068 132.763 C 165.193 132.396, 167.988 131.620, 170.754 129.793 C 172.814 128.433, 175.668 126.608, 177.097 125.738 C 178.525 124.867, 180.267 122.770, 180.968 121.077 C 182.569 117.212, 184.989 117.016, 185.030 120.750 C 185.046 122.263, 185.490 131.600, 186.017 141.500 C 187.601 171.285, 189.302 226.028, 189.404 250.500 C 189.497 272.896, 189.447 273.508, 187.468 273.791 C 185.052 274.137, 175.759 265.248, 173.936 260.847 C 173.247 259.183, 171.717 257.716, 170.300 257.360 C 166.091 256.304, 165.573 258.158, 167.941 265.810 C 169.874 272.056, 170.827 273.472, 176.912 279.149 C 188.500 289.958, 189.773 291, 191.387 291 C 193.381 291, 195.933 287.125, 197.135 282.273 C 198.629 276.244, 198.038 176.488, 196.494 173.990 C 196.216 173.540, 195.551 161.546, 195.016 147.336 C 194.016 120.782, 190.679 83.137, 189.055 80.103 C 188.552 79.163, 187.381 74.593, 186.452 69.947 C 184.529 60.332, 180.722 51.713, 177.159 48.910 C 173.782 46.254, 168.785 46.468, 165.277 49.420 M 166.506 63.791 C 164.557 65.831, 162.716 68.625, 162.415 70 C 162.115 71.375, 161.278 73.625, 160.557 75 C 159.041 77.889, 158.703 94.698, 160.143 95.588 C 160.656 95.905, 164.096 93.736, 167.788 90.767 C 171.479 87.799, 175.333 85.058, 176.350 84.678 C 177.871 84.109, 178.111 83.231, 177.701 79.743 C 177.426 77.409, 176.645 73.475, 175.966 71 C 172.762 59.323, 171.611 58.446, 166.506 63.791 M 65.449 72.500 C 60.999 77.279, 59 78.123, 59 75.223 C 59 69.899, 51.351 66.607, 49.035 70.934 C 47.660 73.504, 47.713 84.147, 49.119 87.685 C 50.263 90.564, 50.534 144.336, 49.445 152.500 C 48.445 160, 47.033 187.467, 46.927 201.500 C 46.838 213.301, 47.037 218.926, 47.893 228.727 C 47.952 229.402, 49.127 230.692, 50.505 231.595 C 55.498 234.867, 55.906 233.167, 55.898 209.141 C 55.894 197.210, 56.328 185.435, 56.862 182.974 C 57.396 180.513, 57.889 170.441, 57.956 160.591 C 58.023 150.742, 58.305 142.315, 58.583 141.866 C 59.125 140.989, 60.219 113.073, 60.067 104 C 59.983 99.033, 60.457 97.748, 64.953 90.750 C 67.691 86.487, 70.585 83, 71.383 83 C 73.213 83, 75 90.914, 75 99.024 C 75 104.604, 74.824 105.039, 71.980 106.510 C 68.718 108.197, 64.055 114.038, 61.990 119.025 C 60.880 121.704, 60.930 122.358, 62.352 123.781 C 63.885 125.313, 64.207 125.309, 66.905 123.715 C 70.194 121.772, 73.564 121.485, 74.540 123.065 C 75.967 125.374, 73.798 131.047, 69.961 135.041 C 67.780 137.310, 65.723 140.255, 65.390 141.584 C 65.056 142.913, 64.382 144, 63.892 144 C 63.401 144, 63 146.405, 63 149.345 C 63 153.471, 63.470 155.115, 65.059 156.553 C 68.337 159.520, 71.959 156.092, 73.530 148.534 C 73.896 146.775, 76.287 143.519, 79.406 140.534 C 86.397 133.842, 88.746 128.147, 85.750 125.150 C 84.840 124.239, 84.481 118.548, 84.432 104.200 C 84.356 82.534, 83.306 75.706, 79.322 70.971 C 77.404 68.692, 75.986 68, 73.231 68 C 70.262 68, 68.913 68.780, 65.449 72.500 M 177.313 96.207 C 176.762 96.918, 176.030 98.287, 175.687 99.250 C 175.344 100.213, 174.142 101, 173.017 101 C 171.768 101, 170.225 102.266, 169.057 104.250 C 166.471 108.640, 162.909 112, 160.838 112 C 158.642 112, 157.897 114.595, 158.830 119 C 159.994 124.498, 163.632 124.324, 170.519 118.440 C 173.542 115.857, 177.474 113.448, 179.257 113.086 C 182.194 112.490, 182.525 112.054, 182.768 108.464 C 183.398 99.157, 180.346 92.298, 177.313 96.207 M 127 176.977 C 124.525 177.367, 118.675 178.212, 114 178.855 C 90.585 182.076, 84 184.004, 84 187.636 C 84 189.876, 87.138 194.051, 88.750 193.956 C 90.447 193.856, 98.592 191.428, 99.776 190.668 C 100.477 190.218, 103.627 189.637, 106.776 189.375 C 109.924 189.114, 114.075 188.504, 116 188.019 C 117.925 187.534, 124.450 186.366, 130.500 185.424 C 142.161 183.608, 144 182.857, 144 179.913 C 144 176.247, 138.096 175.228, 127 176.977" stroke="none" fill="black" fill-rule="evenodd"/>
</svg>