<svg xmlns="http://www.w3.org/2000/svg" width="300" height="300" viewBox="0 0 300 300" version="1.1">
	<path d="M 164.131 4.538 C 161.728 6.428, 158.964 9.442, 157.988 11.237 C 156.337 14.273, 155.896 14.480, 151.659 14.205 C 147.823 13.957, 146.874 14.273, 145.643 16.205 C 144.377 18.192, 144.361 19.778, 145.528 28.021 C 146.269 33.257, 147.339 38.761, 147.905 40.251 C 149.446 44.304, 150.231 66.688, 149.047 72.834 C 147.846 79.070, 148.897 82, 152.335 82 C 153.581 82, 155.097 82.497, 155.704 83.104 C 157.993 85.393, 164.567 83.102, 169.409 78.329 C 171.934 75.839, 174 73.242, 174 72.556 C 174 71.085, 177.196 68, 178.720 68 C 179.318 68, 180.496 73.143, 181.413 79.750 C 182.309 86.213, 183.483 94.252, 184.021 97.615 C 184.560 100.979, 185 106.652, 185 110.222 C 185 113.792, 185.441 122.516, 185.980 129.607 C 186.519 136.698, 187.441 148.800, 188.029 156.500 C 190.106 183.697, 191.969 217.635, 191.984 228.550 C 192.007 244.515, 190.639 245.332, 180.421 235.460 C 176.658 231.824, 173.063 229.146, 172.326 229.429 C 170.783 230.020, 170.527 235.589, 172 236.500 C 172.550 236.840, 173 237.913, 173 238.884 C 173 239.855, 173.927 241.516, 175.060 242.575 C 176.193 243.634, 178.402 245.793, 179.969 247.373 C 181.573 248.990, 184.932 250.806, 187.659 251.529 C 190.321 252.235, 193.197 253.093, 194.048 253.435 C 196.718 254.511, 200.284 249.579, 201.028 243.784 C 201.395 240.922, 201.093 229.562, 200.356 218.540 C 199.619 207.518, 199.016 196.700, 199.015 194.500 C 199.011 188.446, 197.184 156.188, 196.522 150.500 C 196.202 147.750, 195.724 141.225, 195.459 136 C 195.194 130.775, 194.481 120.875, 193.874 114 C 193.267 107.125, 192.623 99.025, 192.444 96 C 192.264 92.975, 191.403 85.325, 190.531 79 C 189.659 72.675, 188.705 63.025, 188.411 57.555 C 188.118 52.086, 187.604 47.169, 187.271 46.629 C 186.937 46.089, 186.330 41.339, 185.921 36.074 C 185.149 26.118, 183.929 19.222, 181.340 10.180 C 180.183 6.136, 179.059 4.397, 176.659 2.933 C 172.188 0.207, 169.143 0.597, 164.131 4.538 M 166.292 15.231 C 165.141 16.479, 164.042 18.364, 163.850 19.419 C 163.657 20.475, 162.150 22.083, 160.500 22.994 C 157.977 24.386, 157.448 25.354, 157.173 29.075 C 156.799 34.156, 158.847 45.175, 160.351 46.172 C 160.909 46.541, 163.177 45.292, 165.393 43.396 C 167.608 41.500, 170.788 39.596, 172.460 39.166 C 176.339 38.169, 176.773 35.240, 174.472 25.592 C 172.731 18.293, 170.826 13.775, 169.271 13.257 C 168.784 13.095, 167.443 13.983, 166.292 15.231 M 47.557 30.223 C 45.797 32.734, 45.460 43.859, 46.941 50.500 C 49.096 60.160, 49.593 115.178, 48.012 169 C 47.003 203.339, 47.320 211.413, 49.788 214.250 C 51.824 216.591, 54.717 216.468, 55.498 214.006 C 55.846 212.909, 56.139 201.996, 56.149 189.756 C 56.160 175.772, 56.637 165.230, 57.431 161.393 C 58.127 158.035, 58.486 153.858, 58.230 152.113 C 57.974 150.367, 58.089 143.746, 58.485 137.398 C 59.071 128.018, 59.514 125.747, 60.853 125.263 C 63.287 124.384, 67.913 118.781, 67.959 116.654 C 67.998 114.897, 70.966 110.013, 73.717 107.179 C 74.423 106.452, 75 105.544, 75 105.161 C 75 104.778, 76.947 102.433, 79.326 99.950 C 81.706 97.467, 84.185 93.908, 84.836 92.042 C 85.895 89.003, 85.786 88.401, 83.785 86.272 C 81.916 84.281, 81.349 81.910, 80.302 71.697 C 78.086 50.068, 77.482 46.082, 76.230 44.830 C 75.553 44.153, 75 42.571, 75 41.313 C 75 39.733, 73.768 38.247, 71.020 36.513 C 66.233 33.491, 65.971 33.476, 61.336 35.960 C 56.943 38.314, 56 37.905, 56 33.641 C 56 31.858, 55.460 29.860, 54.800 29.200 C 52.891 27.291, 49.250 27.805, 47.557 30.223 M 58.997 49.506 C 57.567 52.844, 57.281 54.656, 57.979 55.961 C 58.513 56.958, 58.849 61.833, 58.725 66.793 C 58.601 71.754, 58.817 76.133, 59.204 76.526 C 59.591 76.919, 62.190 74.824, 64.981 71.870 C 70.629 65.892, 70.584 66.220, 67.719 52 C 66.523 46.062, 66.175 45.473, 63.698 45.183 C 61.317 44.905, 60.744 45.432, 58.997 49.506 M 172.247 50.478 C 170.459 52.388, 167.622 54.661, 165.944 55.529 C 160.048 58.578, 159.186 60.169, 159.234 67.905 C 159.273 74.068, 159.516 75, 161.088 75 C 162.926 75, 168 69.255, 168 67.175 C 168 66.550, 169.107 65.760, 170.459 65.421 C 171.811 65.081, 173.442 64.173, 174.081 63.402 C 174.721 62.631, 176.365 62, 177.734 62 C 180.085 62, 180.178 61.793, 179.422 58.250 C 178.982 56.188, 178.589 52.930, 178.550 51.012 C 178.453 46.317, 176.313 46.136, 172.247 50.478 M 127.595 71.500 C 125.569 72.875, 123.775 74, 123.609 74 C 123.443 74, 119.526 76.250, 114.904 78.999 C 110.282 81.749, 105.572 83.999, 104.439 83.999 C 102.408 84, 98 87.331, 98 88.865 C 98 90.202, 102.391 93.781, 104.500 94.163 C 106.373 94.503, 106.530 95.507, 106.978 110.013 C 107.453 125.410, 107.356 155.035, 106.794 166.500 C 106.506 172.385, 106.553 172.506, 109.250 172.816 C 112.723 173.216, 113.500 171.315, 114.309 160.435 C 115.077 150.105, 116.100 147.509, 119.929 146.175 L 123 145.104 123 149.971 C 123 152.668, 122.263 156.121, 121.348 157.716 C 119.898 160.242, 119.868 160.946, 121.098 163.473 C 121.869 165.057, 123.741 166.762, 125.259 167.262 C 127.801 168.101, 128.516 167.656, 134.380 161.586 C 137.880 157.964, 141.446 155, 142.304 155 C 143.163 155, 144.136 154.146, 144.468 153.101 C 145.297 150.490, 154.945 145.752, 158.589 146.168 C 161.208 146.467, 161.638 147.052, 162.875 152 C 164.082 156.826, 164.051 158.297, 162.617 164 C 161.718 167.575, 160.987 172.188, 160.992 174.250 C 161.004 179.657, 158.304 179.172, 153.527 172.908 C 148.804 166.714, 146.020 165.421, 141.944 167.529 C 138.349 169.388, 138.192 171.424, 141.479 173.578 C 142.842 174.471, 146.683 179.243, 150.014 184.181 C 156.801 194.242, 156.775 193.860, 151.434 205.500 C 150.172 208.250, 148.991 211.400, 148.810 212.500 C 148.619 213.654, 147.561 214.631, 146.307 214.811 C 144.618 215.052, 143.280 213.829, 140.290 209.311 C 137.779 205.516, 135.765 203.500, 134.486 203.500 C 131.469 203.500, 131.584 206.342, 134.879 213.246 C 138.561 220.962, 144.297 227, 147.944 227 C 151.490 227, 154.999 224.363, 155.006 221.693 C 155.010 220.487, 155.593 218.375, 156.302 217 C 157.012 215.625, 158.636 211.912, 159.912 208.750 C 161.224 205.499, 162.856 203, 163.667 203 C 166.185 203, 168.287 209.896, 167.710 216.262 C 167.256 221.269, 167.445 222.168, 169.140 223.075 C 170.615 223.864, 171.999 223.677, 174.797 222.310 C 178.145 220.673, 178.532 220.069, 178.830 216 C 179.015 213.467, 178.532 210.189, 177.725 208.500 C 176.935 206.850, 175.558 203.925, 174.665 202 C 173.771 200.075, 171.906 196.482, 170.520 194.015 C 169.134 191.549, 168 187.994, 168 186.115 C 168 181.292, 171.018 166.776, 172.370 165.094 C 173.064 164.231, 173.480 159.457, 173.447 152.719 L 173.394 141.750 169.868 138.518 C 165.366 134.392, 160.068 133.291, 155.709 135.577 C 153.944 136.503, 150.252 138.381, 147.505 139.751 C 144.757 141.120, 140.626 143.537, 138.325 145.121 C 132.953 148.816, 131.586 148.821, 132.322 145.140 C 132.637 143.567, 133.191 140.039, 133.555 137.299 C 134.134 132.935, 134.758 131.896, 138.602 128.909 C 142.245 126.078, 142.947 124.992, 142.744 122.500 C 142.525 119.807, 142.116 119.468, 138.750 119.190 C 135.129 118.890, 135 118.749, 135 115.077 C 135 112.358, 135.855 110.200, 138 107.500 C 142.926 101.302, 141.804 95, 135.775 95 C 133.768 95, 132.702 94.349, 132.090 92.750 C 130.864 89.544, 127.346 86.653, 125.522 87.353 C 123.204 88.243, 122.188 91.899, 122.702 97.500 C 123.042 101.198, 122.608 103.737, 121.034 107.250 C 118.102 113.796, 116.294 113.456, 115.718 106.250 C 115.465 103.088, 114.793 98.791, 114.223 96.701 C 113.469 93.932, 113.502 92.636, 114.344 91.920 C 114.980 91.380, 117.017 89.626, 118.871 88.022 C 120.725 86.418, 123.559 84.817, 125.168 84.463 C 129.118 83.596, 135.836 79.092, 136.554 76.831 C 137.126 75.028, 133.676 69, 132.071 69 C 131.636 69, 129.621 70.125, 127.595 71.500 M 64.518 81.918 L 58.536 82.500 58.709 96.500 C 58.851 108.029, 59.145 110.555, 60.377 110.811 C 61.200 110.982, 62.646 109.857, 63.589 108.311 C 64.532 106.765, 66.811 103.144, 68.652 100.265 C 71.634 95.603, 72 94.263, 72 88.015 C 72 84.157, 71.662 81.076, 71.250 81.168 C 70.838 81.261, 67.808 81.598, 64.518 81.918 M 119.196 122.298 C 116.646 124.929, 116 126.433, 116 129.739 C 116 132.017, 116.472 134.173, 117.048 134.530 C 117.625 134.886, 119.650 133.531, 121.548 131.518 C 124.413 128.480, 125 127.105, 125 123.429 C 125 118.012, 123.612 117.742, 119.196 122.298 M 98.200 181.200 C 96.348 183.052, 96.690 184.409, 101.111 192.747 C 106.010 201.985, 106.771 203, 108.794 203 C 112.141 203, 113.725 200.193, 113.238 195.125 C 112.211 184.441, 117.240 183.078, 122.922 192.500 C 128.380 201.552, 132.398 201.162, 133.220 191.500 C 133.454 188.750, 133.960 185.812, 134.345 184.971 C 135.316 182.849, 132.848 179.737, 130.814 180.518 C 129.916 180.863, 128.906 182.237, 128.571 183.572 C 127.761 186.801, 125.981 186.634, 122.500 183 C 120.919 181.350, 118.669 180, 117.500 180 C 115.258 180, 110 184.771, 110 186.805 C 110 187.462, 109.325 188, 108.500 188 C 107.675 188, 107 187.532, 107 186.960 C 107 185.057, 102.649 180, 101.012 180 C 100.125 180, 98.860 180.540, 98.200 181.200 M 73.667 184.667 C 71.887 186.447, 73.248 191.007, 76.785 195.109 C 81.681 200.788, 83.992 204.490, 84.032 206.715 C 84.049 207.697, 84.724 209.374, 85.532 210.441 C 86.339 211.509, 87 213.366, 87 214.569 C 87 217.236, 89.270 219.287, 91.702 218.819 C 94.260 218.327, 95.438 208.656, 93.433 204.596 C 92.645 202.999, 92 201.138, 92 200.461 C 92 197.647, 83.969 185.586, 81.453 184.620 C 79.312 183.799, 74.506 183.828, 73.667 184.667" stroke="none" fill="black" fill-rule="evenodd"/>
</svg>