<svg xmlns="http://www.w3.org/2000/svg" width="300" height="300" viewBox="0 0 300 300" version="1.1">
	<path d="M 163.164 29.063 C 161.879 29.578, 158.881 31.397, 156.502 33.106 C 152.480 35.994, 151.923 36.130, 148.596 35.032 C 142.713 33.090, 141.490 33.812, 141.864 39.001 C 142.042 41.466, 142.560 44.178, 143.015 45.028 C 143.470 45.878, 144.385 54.657, 145.048 64.537 C 145.711 74.417, 146.378 84.300, 146.530 86.500 C 146.681 88.700, 147.138 92.687, 147.545 95.361 C 148.202 99.674, 148.673 100.383, 151.728 101.660 C 156.109 103.490, 160.489 102.201, 164.585 97.876 C 166.188 96.184, 168.419 94.441, 169.542 94.003 C 172.296 92.930, 177.381 85.435, 176.649 83.527 C 176.326 82.687, 175.174 82, 174.089 82 C 171.594 82, 165.223 85.588, 162.158 88.719 C 158.455 92.502, 156.552 91.388, 156.197 85.229 C 155.947 80.884, 156.206 79.881, 157.697 79.416 C 158.689 79.107, 162.310 77.519, 165.745 75.887 C 172.326 72.760, 175.583 68.742, 174.316 65.313 C 172.736 61.037, 168.853 60.959, 161.892 65.064 C 158.113 67.292, 156.493 67.797, 155.949 66.917 C 155.537 66.251, 155.295 61.780, 155.410 56.981 L 155.618 48.256 160.244 43.496 C 163.049 40.610, 165.438 38.954, 166.312 39.290 C 167.998 39.936, 174 55.890, 174 59.724 C 174 61.164, 174.749 63.170, 175.664 64.181 C 177.608 66.330, 178.925 76.228, 179.497 93 C 179.713 99.325, 180.352 106.075, 180.918 108 C 181.483 109.925, 182.176 115.775, 182.456 121 C 183.235 135.503, 184.824 152.595, 185.970 158.794 C 186.536 161.859, 186.999 166.872, 186.999 169.934 C 186.998 172.995, 187.441 180.225, 187.984 186 C 192.424 233.234, 193.094 246.732, 191.666 260.120 C 190.954 266.802, 190.547 267.904, 188.362 269.074 C 185.163 270.786, 183.115 269.599, 180.624 264.590 C 178.826 260.974, 173.914 257.012, 171.219 257.004 C 166.970 256.991, 170.680 266.351, 177.334 272.434 C 182.865 277.491, 191.891 283, 194.644 283 C 195.860 283, 197.816 281.779, 198.990 280.286 C 201.065 277.648, 201.113 276.894, 200.698 253.536 C 200.462 240.316, 199.773 224.100, 199.165 217.500 C 198.558 210.900, 197.830 199.200, 197.549 191.500 C 197.267 183.800, 196.568 173, 195.995 167.500 C 193.945 147.832, 193.054 137.330, 192.474 126 C 192.150 119.675, 191.468 112.700, 190.958 110.500 C 190.448 108.300, 189.549 98.625, 188.960 89 C 187.996 73.230, 185.623 58.741, 182.982 52.500 C 182.139 50.507, 181.376 46.832, 180.342 39.788 C 180.042 37.747, 179.168 35.554, 178.399 34.916 C 177.629 34.277, 177 33.112, 177 32.327 C 177 30.678, 171.144 27.970, 167.782 28.063 C 166.527 28.098, 164.449 28.548, 163.164 29.063 M 45.620 51.250 C 45.446 51.938, 44.799 54.028, 44.183 55.897 C 43.567 57.765, 43.239 59.578, 43.454 59.926 C 43.669 60.274, 44.668 69.995, 45.673 81.529 C 47.115 98.079, 47.475 111.354, 47.381 144.500 C 47.316 167.620, 46.775 190.546, 46.178 195.500 C 42.947 222.329, 42.695 227.604, 44.509 230.374 C 48.309 236.173, 52.379 232.023, 52.723 222 C 52.845 218.425, 53.156 213.250, 53.413 210.500 C 53.670 207.750, 54.176 199.875, 54.537 193 C 54.898 186.125, 55.771 175.550, 56.478 169.500 C 57.185 163.450, 57.704 152.289, 57.632 144.698 C 57.504 131.324, 57.562 130.916, 59.500 131.529 C 65.298 133.363, 65.672 133.260, 69.117 128.900 C 70.978 126.545, 74.149 123.009, 76.164 121.042 C 79.473 117.812, 79.916 116.740, 80.728 109.983 C 81.223 105.867, 81.550 93.725, 81.456 83 C 81.304 65.717, 81.051 62.973, 79.228 58.867 C 76.656 53.073, 73.758 51, 68.230 51 C 64.837 51, 63.376 51.570, 61.452 53.646 C 60.104 55.101, 58.948 56.789, 58.885 57.396 C 58.821 58.003, 58.665 58.950, 58.537 59.500 C 58.409 60.050, 58.236 61.095, 58.152 61.823 C 58.069 62.551, 57.212 62.995, 56.250 62.810 C 54.927 62.555, 54.485 61.448, 54.438 58.273 C 54.400 55.667, 53.677 53.300, 52.533 52.037 C 50.497 49.787, 46.118 49.289, 45.620 51.250 M 64.922 65.443 C 63.426 68.825, 62.126 70.187, 59.478 71.144 L 56 72.402 56 81.201 C 56 91.019, 57.115 92.303, 61.355 87.374 C 62.764 85.736, 65.097 84.506, 67.557 84.104 L 71.500 83.460 71.142 73.480 C 70.662 60.104, 68.513 57.326, 64.922 65.443 M 116.184 88.278 C 115.601 88.981, 114.812 92.993, 114.431 97.194 L 113.739 104.832 109.120 107.828 C 102.049 112.414, 100 114.513, 100 117.167 C 100 122.010, 103.738 123.334, 108 120 C 111.185 117.508, 113.235 117.497, 115.464 119.961 C 116.869 121.513, 117.098 122.858, 116.564 126.420 C 115.992 130.234, 115.166 131.494, 111.132 134.709 C 104.689 139.842, 100.775 144.487, 97.615 150.750 C 94.607 156.711, 92.731 157.314, 90.515 153.030 C 87.993 148.152, 81.701 146.245, 78.974 149.532 C 77.076 151.818, 79.365 158.471, 82.965 161.132 C 84.552 162.306, 87.551 165.793, 89.629 168.883 C 91.708 171.972, 94.554 175.511, 95.954 176.746 C 98.474 178.968, 98.479 179.007, 96.500 180.515 C 91.825 184.076, 91 185.105, 91 187.383 C 91 191.652, 97.714 192.362, 103.155 188.669 C 105.967 186.761, 112.173 184, 113.649 184 C 115.468 184, 112.323 188.881, 104.550 198.127 C 102.872 200.121, 100.600 202.963, 99.500 204.442 C 94.996 210.497, 76.952 230.674, 73.961 233 C 65.828 239.325, 65.441 239.782, 66.602 241.689 C 68.734 245.192, 71.834 244.442, 78.330 238.850 C 81.724 235.929, 85.028 232.829, 85.673 231.961 C 86.318 231.093, 92.756 224.353, 99.980 216.983 C 114.860 201.802, 115.982 201.417, 117.151 211.103 C 118.116 219.104, 118.045 248.817, 117.048 253.986 C 116.015 259.340, 117.131 262, 120.413 262 C 125.169 262, 126.101 257.932, 126.159 236.918 C 126.181 228.988, 126.443 220.352, 126.741 217.728 C 127.229 213.440, 127.498 213.020, 129.392 213.590 C 130.551 213.939, 132.625 215.258, 134 216.520 C 135.375 217.783, 137.887 219.645, 139.582 220.658 C 141.277 221.671, 145.102 223.983, 148.082 225.795 C 151.062 227.607, 154.287 229.520, 155.250 230.045 C 156.213 230.570, 157.787 231.453, 158.750 232.006 C 159.713 232.560, 161.175 233.297, 162 233.644 C 162.825 233.992, 166.264 235.564, 169.643 237.138 C 173.022 238.712, 176.206 240, 176.719 240 C 177.232 240, 178.704 238.879, 179.991 237.510 C 182.011 235.359, 182.172 234.674, 181.174 232.482 C 180.538 231.086, 179.226 229.699, 178.259 229.399 C 177.291 229.099, 175.719 228.437, 174.764 227.927 C 173.809 227.417, 172.459 226.992, 171.764 226.982 C 170.352 226.961, 158.308 221.426, 153.171 218.437 C 147.970 215.410, 139.604 210.172, 138.500 209.251 C 137.950 208.793, 135.336 206.934, 132.692 205.121 C 127.152 201.322, 126.236 199.408, 126.656 192.500 C 126.822 189.750, 126.943 184.958, 126.923 181.852 C 126.888 176.478, 127.043 176.125, 130.097 174.602 C 131.863 173.721, 134.026 172.989, 134.904 172.976 C 135.782 172.962, 139.200 170.534, 142.500 167.579 C 148.456 162.247, 148.491 162.183, 147.271 158.930 C 146.575 157.072, 146.412 155.187, 146.895 154.577 C 148.231 152.889, 151.771 141.951, 152.515 137.210 C 153.365 131.804, 151.116 126.675, 146.674 123.885 C 144.086 122.260, 142.392 121.991, 137.500 122.432 C 124.071 123.641, 125.539 124.041, 125.184 119.080 C 124.716 112.532, 125.539 110.594, 129.721 108.399 C 132.752 106.809, 133.563 105.769, 133.818 103.143 C 134.232 98.887, 132.560 97, 128.378 97 C 125.195 97, 125 96.801, 125 93.557 C 125 88.468, 119.006 84.878, 116.184 88.278 M 61.216 99.187 L 56.932 102.178 57.216 112.339 C 57.422 119.714, 57.847 122.500, 58.765 122.500 C 59.460 122.500, 62.498 119.403, 65.515 115.617 C 70.388 109.501, 70.998 108.219, 70.985 104.117 C 70.958 96.120, 67.854 94.553, 61.216 99.187 M 134.286 132.701 C 131.094 133.319, 126 138.426, 126 141.008 C 126 142.722, 126.390 143.050, 127.750 142.478 C 133.093 140.233, 136.250 141.237, 136.250 145.181 C 136.250 146.506, 134.140 150.882, 131.561 154.906 C 126.961 162.081, 126.370 165, 129.517 165 C 131.167 165, 135.907 160.232, 135.978 158.500 C 136 157.950, 137.125 155.250, 138.478 152.500 C 139.831 149.750, 140.952 146.059, 140.969 144.297 C 140.986 142.535, 141.521 139.950, 142.159 138.551 C 143.124 136.432, 143.015 135.674, 141.504 134.004 C 139.720 132.033, 138.692 131.848, 134.286 132.701 M 111.977 145.419 C 110.615 146.749, 107.925 148.685, 106 149.721 C 103.977 150.810, 101.705 153.211, 100.616 155.411 C 98.798 159.083, 98.793 159.416, 100.489 164.859 C 101.455 167.961, 102.223 171.963, 102.194 173.750 C 102.132 177.663, 103.530 177.890, 109.603 174.950 C 114.441 172.608, 115.717 171.325, 116.018 168.500 C 116.382 165.076, 116.083 164.525, 113.163 163.232 C 109.503 161.612, 107.196 157.506, 108.642 155.185 C 109.219 154.258, 111.224 152.994, 113.096 152.374 C 116.150 151.365, 116.532 150.824, 116.807 147.124 C 117.170 142.263, 115.730 141.755, 111.977 145.419" stroke="none" fill="black" fill-rule="evenodd"/>
</svg>