<svg xmlns="http://www.w3.org/2000/svg" width="300" height="300" viewBox="0 0 300 300" version="1.1">
	<path d="M 158.898 20.288 C 156.998 21.568, 154.513 24.653, 153.260 27.288 C 150.812 32.436, 148.455 33.327, 147.052 29.636 C 146.003 26.878, 144.153 26, 139.387 26 C 135.465 26, 134.159 27.918, 135.766 31.317 C 137.561 35.113, 138.897 39.370, 139.590 43.500 C 139.959 45.700, 140.597 47.950, 141.007 48.500 C 142.514 50.520, 143.657 63.783, 144.039 83.694 C 144.301 97.319, 145.858 101, 151.363 101 C 153.229 101, 155.318 100.322, 156.006 99.492 C 156.695 98.663, 159.385 96.827, 161.984 95.412 C 167.404 92.462, 174.294 84.780, 173.810 82.227 C 173.158 78.785, 168.309 79.555, 163.083 83.931 C 155.867 89.972, 154.942 89.614, 153.479 80.214 C 152.861 76.240, 153.125 75.523, 157.116 70.350 C 159.483 67.281, 162.473 64.081, 163.761 63.237 C 165.049 62.393, 166.742 60.465, 167.525 58.953 C 168.813 56.460, 168.755 55.958, 166.901 53.601 C 164.562 50.628, 160 50.091, 157.960 52.548 C 157.253 53.400, 155.736 53.962, 154.588 53.798 C 152.707 53.530, 152.471 52.735, 152.208 45.778 C 151.865 36.683, 153.180 33.894, 158.596 32.232 C 165.271 30.183, 166.557 31.932, 172.089 50.571 C 172.590 52.260, 173 54.793, 173 56.199 C 173 57.605, 173.675 60.371, 174.500 62.346 C 175.325 64.320, 176 68.808, 176 72.319 C 176 75.829, 176.416 80.006, 176.925 81.601 C 177.434 83.195, 178.121 97.100, 178.452 112.500 C 180.774 220.577, 181.458 245.809, 182.191 250.462 C 182.656 253.416, 179.699 253.459, 176.239 250.548 C 174.574 249.146, 172.376 247.998, 171.356 247.996 C 169.399 247.992, 163.695 244.838, 161.284 242.427 C 160.499 241.642, 159.200 241, 158.397 241 C 155.908 241, 155.601 243.980, 157.872 246.095 C 159.042 247.186, 160 248.438, 160 248.878 C 160 250.079, 171.792 259, 173.379 259 C 174.136 259, 175.353 259.721, 176.084 260.601 C 177.942 262.840, 187.743 269, 189.447 269 C 192.820 269, 196.733 260.189, 194.087 258.554 C 191.167 256.749, 189.102 215.912, 188.446 147 C 187.973 97.252, 186.664 68.969, 184.438 60.423 C 183.647 57.387, 183 53.958, 183 52.804 C 183 51.650, 182.157 48.184, 181.126 45.103 C 180.095 42.021, 178.433 36.800, 177.432 33.500 C 175.445 26.952, 171.010 19.601, 168.453 18.620 C 165.416 17.455, 162.297 17.999, 158.898 20.288 M 36.893 52.200 C 35.777 54.285, 36.064 69.291, 37.713 95 C 38.322 104.504, 38.191 137.281, 37.506 146.500 C 34.138 191.874, 33.310 215.464, 35.015 217.518 C 36.537 219.352, 40.383 219.448, 41.844 217.688 C 42.443 216.967, 42.901 214.379, 42.862 211.938 C 42.824 209.497, 43.296 202.100, 43.911 195.500 C 44.526 188.900, 45.245 177.875, 45.508 171 C 45.771 164.125, 46.253 156.093, 46.578 153.150 C 46.903 150.208, 47.243 144.958, 47.334 141.482 C 47.425 138.007, 47.874 134.790, 48.332 134.334 C 49.375 133.292, 52 136.767, 52 139.191 C 52 140.412, 52.748 141, 54.300 141 C 57.358 141, 59 139.204, 59 135.859 C 59 134.351, 59.450 132.840, 60 132.500 C 60.550 132.160, 61 131.004, 61 129.931 C 61 128.858, 62.575 125.739, 64.500 123 C 66.425 120.261, 68 117.668, 68 117.238 C 68 116.808, 69.379 114.783, 71.064 112.738 C 73.369 109.942, 74.050 108.213, 73.814 105.761 C 73.507 102.568, 72.778 102.162, 69.096 103.131 C 67.920 103.440, 67.730 100.311, 67.928 83.860 C 68.087 70.610, 67.812 64.002, 67.082 63.551 C 66.487 63.183, 66 61.814, 66 60.509 C 66 55.280, 55.334 51.640, 52.968 56.061 C 51.448 58.900, 47.758 58.250, 46.998 55.008 C 45.914 50.386, 38.906 48.438, 36.893 52.200 M 49.200 68.200 C 47.628 69.772, 47.530 91.592, 49.090 92.556 C 49.690 92.926, 51.940 91.512, 54.090 89.412 C 57.007 86.564, 58 84.791, 58 82.434 C 58 77.296, 56.074 68.665, 54.738 67.817 C 52.927 66.667, 50.570 66.830, 49.200 68.200 M 104.465 79.952 C 100.699 81.478, 99.613 83.652, 100.976 86.942 C 102.422 90.433, 101.642 96.276, 98.764 103.500 C 97.669 106.250, 96.173 111.311, 95.439 114.748 C 94.706 118.184, 92.971 122.483, 91.584 124.301 C 88.209 128.726, 85.875 134.510, 86.650 136.529 C 88.092 140.289, 98.975 134.891, 98.995 130.405 C 98.998 129.803, 99.889 128.506, 100.974 127.523 C 102.060 126.540, 103.244 124.783, 103.606 123.618 C 104.989 119.157, 108.057 116, 111.009 116 C 112.589 116, 114.154 116.440, 114.486 116.977 C 115.642 118.847, 112.946 125.546, 108.239 132.500 L 103.500 139.500 93.500 140.099 C 80.784 140.861, 75 143.015, 75 146.986 C 75 150.983, 77.253 152.552, 80.853 151.061 C 84.966 149.357, 93.397 150.053, 93.791 152.129 C 93.961 153.024, 93.515 154.393, 92.800 155.171 C 92.085 155.948, 91.050 157.296, 90.500 158.165 C 89.950 159.035, 84.953 165.766, 79.395 173.123 C 73.838 180.480, 68.701 187.625, 67.980 189 C 65.569 193.597, 56.558 203.070, 51.196 206.643 C 48.279 208.587, 46.064 210.701, 46.273 211.339 C 47.091 213.831, 51.921 213.112, 57.202 209.712 C 62.257 206.457, 73.256 195.934, 76.613 191.142 C 79.134 187.544, 82.085 188.714, 83.821 194 C 84.634 196.475, 86.131 199.573, 87.149 200.885 C 88.167 202.197, 89 203.778, 89 204.400 C 89 205.021, 89.900 207.209, 91 209.261 C 93.436 213.806, 93.534 218.035, 91.338 223.785 L 89.676 228.137 92.743 231.204 L 95.810 234.272 98.655 232.254 C 103.491 228.826, 114.359 224.058, 115.458 224.883 C 116.031 225.314, 119.600 225.760, 123.389 225.873 C 127.179 225.986, 131.087 226.511, 132.074 227.039 C 135.195 228.710, 140.544 228.161, 142.531 225.966 C 144.335 223.972, 144.300 223.863, 140.787 220.451 C 137.608 217.362, 136.317 216.857, 129.352 215.975 C 117.712 214.502, 115.456 213.706, 115.734 211.177 C 115.862 210.007, 117.453 206.901, 119.268 204.275 C 123.995 197.437, 125.370 193.374, 125.439 186.046 C 125.498 179.797, 125.392 179.519, 122.102 177.296 C 114.843 172.391, 103.894 175.374, 98 183.864 C 96.075 186.637, 94.074 188.927, 93.554 188.953 C 92.150 189.023, 85 183.877, 85 182.797 C 85 181.962, 89.629 175.246, 91.064 174 C 91.843 173.324, 100.249 162.147, 101.500 160.125 C 106.106 152.679, 105.932 152.800, 111.379 153.302 C 121.079 154.197, 135.971 158.526, 137.422 160.874 C 137.730 161.371, 139.223 162.084, 140.741 162.457 C 142.258 162.830, 145.656 164.567, 148.292 166.318 C 152.663 169.221, 153.041 169.783, 152.608 172.729 C 152.225 175.327, 152.635 176.354, 154.701 177.979 C 158.077 180.635, 163.574 180.664, 164.982 178.034 C 165.576 176.924, 165.749 174.281, 165.379 171.967 C 164.803 168.367, 163.725 167.026, 156.538 160.975 C 149.337 154.911, 137.552 148.003, 134.404 148.001 C 133.801 148, 131.902 147.299, 130.184 146.442 C 128.467 145.585, 125.360 144.656, 123.281 144.377 C 116.161 143.423, 115 142.980, 115 141.221 C 115 140.264, 115.835 138.960, 116.855 138.323 C 117.875 137.686, 119.731 135.215, 120.979 132.832 C 122.226 130.449, 124.198 126.700, 125.359 124.500 C 127.657 120.147, 127.944 113.633, 125.999 109.998 C 124.571 107.330, 117.611 104.052, 113.313 104.022 C 110.199 104.001, 110.139 103.913, 110.688 100.250 C 110.998 98.188, 111.857 94.091, 112.598 91.147 C 113.907 85.943, 113.872 85.699, 111.353 82.397 C 108.658 78.863, 107.855 78.578, 104.465 79.952 M 51.626 103.250 C 49.258 105.394, 49.124 106.125, 48.783 118.782 C 48.485 129.814, 48.663 132.017, 49.835 131.782 C 50.611 131.627, 51.978 129.672, 52.873 127.439 C 53.768 125.205, 55.436 122.203, 56.581 120.768 C 58.358 118.541, 58.619 117.027, 58.370 110.413 C 58.005 100.732, 56.350 98.974, 51.626 103.250 M 108.500 186 C 108.160 186.550, 107.121 187.006, 106.191 187.012 C 104.348 187.026, 96 194.309, 96 195.903 C 96 196.443, 96.963 198.519, 98.141 200.514 C 99.318 202.510, 100.567 205.540, 100.917 207.247 C 101.266 208.954, 102.090 210.530, 102.748 210.749 C 104.309 211.270, 112.450 198.654, 113.880 193.500 C 115.777 186.659, 115.422 185, 112.059 185 C 110.441 185, 108.840 185.450, 108.500 186" stroke="none" fill="black" fill-rule="evenodd"/>
</svg>