<svg xmlns="http://www.w3.org/2000/svg" width="300" height="300" viewBox="0 0 300 300" version="1.1">
	<path d="M 114.221 47.250 C 113.657 47.938, 112.679 52.100, 112.047 56.500 C 110.610 66.493, 104.789 87.545, 100.986 96.500 C 100.519 97.600, 99.897 99.850, 99.605 101.500 C 99.313 103.150, 98.789 105.909, 98.441 107.632 C 97.233 113.606, 103.686 113.522, 105.851 107.534 C 107.119 104.029, 109.236 102.954, 110.582 105.133 C 111.722 106.977, 113.255 127.603, 113.174 140 C 113.093 152.361, 111.774 177.745, 109.875 203.500 C 109.226 212.300, 108.651 224.399, 108.598 230.386 C 108.501 241.158, 108.529 241.293, 111.265 243.342 L 114.031 245.414 116.265 243.175 C 118.056 241.382, 118.500 239.802, 118.500 235.229 L 118.500 229.522 122.260 228.284 C 124.328 227.603, 129.728 226.749, 134.260 226.388 C 138.792 226.026, 143.055 225.292, 143.734 224.756 C 145.293 223.525, 181.904 223.863, 216 225.422 C 235.973 226.335, 239.014 225.786, 238.978 221.275 C 238.953 218.129, 236.606 214.801, 233.172 213.040 C 231.276 212.068, 230.175 212.164, 227.236 213.558 C 224.053 215.069, 221.558 215.184, 206.064 214.535 C 196.404 214.130, 179.146 213.860, 167.712 213.935 C 156.279 214.010, 146.572 213.853, 146.140 213.586 C 145.708 213.320, 145.761 210.266, 146.258 206.801 C 146.754 203.335, 147.318 197.522, 147.511 193.882 C 148.267 179.576, 150.051 167.601, 151.695 165.785 C 152.598 164.787, 155.289 162.740, 157.675 161.235 C 160.062 159.731, 162.254 157.753, 162.546 156.839 C 163.097 155.120, 166.312 152.675, 171.500 150.030 C 174.229 148.638, 174.500 148.049, 174.500 143.500 C 174.500 138.770, 174.349 138.483, 171.708 138.179 C 169.388 137.913, 167.597 139.141, 161.136 145.429 C 156.857 149.593, 152.826 153, 152.178 153 C 151.350 153, 151 149.938, 151 142.696 L 151 132.392 154.298 129.196 C 156.111 127.438, 157.952 126, 158.389 126 C 158.825 126, 161.022 124.425, 163.271 122.500 C 165.520 120.575, 168.124 119, 169.058 119 C 173.036 119, 173.622 114.742, 170.193 110.750 C 167.865 108.040, 164.918 108.645, 159.077 113.035 C 153.798 117.001, 151.270 117.641, 151.736 114.892 C 151.865 114.127, 152.508 110.885, 153.164 107.688 C 154.108 103.087, 154.092 101.144, 153.087 98.363 C 152.388 96.431, 151.970 94.763, 152.158 94.655 C 152.346 94.548, 154.975 92.886, 158 90.961 C 161.025 89.037, 164.400 86.975, 165.500 86.380 C 166.600 85.785, 167.634 84.194, 167.798 82.844 C 168.150 79.938, 164.579 74.981, 162.177 75.044 C 161.255 75.069, 157.350 77.748, 153.500 80.999 C 146.536 86.878, 138.891 91.235, 129.662 94.584 C 121.377 97.590, 119.604 104.192, 126.169 107.588 C 130.017 109.577, 135.267 108.918, 139.296 105.940 C 140.869 104.776, 142.347 104.014, 142.579 104.246 C 142.812 104.478, 142.703 108.873, 142.339 114.011 C 141.711 122.847, 141.488 123.561, 138.221 127.177 C 135.757 129.905, 133.951 131, 131.919 131 C 128.433 131, 126.781 133.655, 127.629 137.896 C 128.439 141.946, 130.340 143.395, 133.744 142.557 C 139.861 141.052, 141.784 140.847, 142.217 141.654 C 142.467 142.119, 142.182 146.948, 141.585 152.385 L 140.500 162.271 134.138 166.635 C 127.472 171.209, 124.711 171.854, 121.671 169.550 C 120.248 168.472, 120.070 167.738, 120.868 166.247 C 121.432 165.193, 121.986 157.393, 122.098 148.915 C 122.210 140.437, 122.759 131.798, 123.319 129.718 C 124.058 126.970, 124.017 125.617, 123.168 124.768 C 122.526 124.126, 122 121.775, 122 119.543 C 122 117.312, 121.524 113.915, 120.942 111.993 C 120.360 110.072, 119.496 105.928, 119.023 102.786 C 118.413 98.736, 117.410 96.319, 115.581 94.490 C 114.161 93.071, 113 91.194, 113 90.321 C 113 87.170, 115.444 79.367, 118.581 72.500 C 119.335 70.850, 120.452 67.250, 121.063 64.500 C 121.674 61.750, 122.585 58.118, 123.087 56.429 C 124.496 51.689, 124.212 50.312, 121.365 48.073 C 118.376 45.721, 115.723 45.416, 114.221 47.250 M 19.437 53.303 C 18.995 54.454, 20.114 62.002, 22.985 77.251 C 24.987 87.881, 25.186 110.212, 23.447 129 C 22.505 139.175, 21.387 151.325, 20.963 156 C 19.583 171.210, 17.916 183.395, 17.071 184.459 C 16.615 185.031, 15.917 188.650, 15.519 192.500 C 15.120 196.350, 14.349 200.335, 13.806 201.355 C 12.478 203.847, 13.663 209.657, 15.654 210.421 C 16.534 210.758, 17.868 210.525, 18.619 209.901 C 20.331 208.480, 23.543 197.704, 24.997 188.500 C 26.519 178.873, 28.684 165.194, 30.339 154.758 C 31.102 149.950, 31.530 144.991, 31.290 143.738 C 31.051 142.486, 31.814 134.322, 32.987 125.596 C 34.654 113.195, 35.001 106.782, 34.576 96.216 C 34.278 88.782, 33.800 82.467, 33.515 82.181 C 32.743 81.410, 36.101 78, 37.632 78 C 38.359 78, 39.691 76.875, 40.592 75.500 C 41.493 74.125, 43.084 73, 44.129 73 C 45.173 73, 46.809 72.623, 47.764 72.162 C 48.719 71.701, 52.197 70.014, 55.494 68.412 C 62.098 65.203, 69.087 64.659, 71.586 67.158 C 72.391 67.962, 73.299 71.069, 73.604 74.060 C 73.908 77.052, 74.538 80.400, 75.004 81.500 C 77.835 88.196, 78.789 99.987, 80.506 149.500 C 80.792 157.750, 81.311 167.875, 81.659 172 C 83.677 195.919, 84.399 219.635, 83.132 220.419 C 81.159 221.638, 78.266 220.056, 77.035 217.084 C 75.418 213.181, 70.468 208.607, 68.625 209.314 C 67.074 209.909, 67.144 210.318, 70.404 219.629 C 71.701 223.332, 87.144 240, 89.279 240 C 92.118 240, 93.487 236.757, 93.878 229.103 C 94.319 220.492, 94.311 220.245, 93.056 202.500 C 91.884 185.929, 90.276 151.741, 89.107 118.500 C 88.603 104.200, 87.699 91.233, 87.096 89.685 C 86.493 88.137, 86 83.551, 86 79.494 C 86 75.437, 85.609 71.877, 85.132 71.581 C 84.654 71.286, 83.951 68.688, 83.569 65.808 C 82.670 59.029, 77.509 53.657, 70.877 52.596 C 68.130 52.157, 66.404 52.287, 66.183 52.951 C 65.991 53.528, 64.386 54, 62.617 54 C 60.848 54, 58.973 54.394, 58.450 54.876 C 57.928 55.358, 54.575 57.008, 51 58.543 C 47.283 60.140, 42.469 63.278, 39.756 65.874 C 34.087 71.298, 33.156 70.855, 31.319 61.852 C 30.633 58.489, 29.311 54.896, 28.381 53.868 C 26.425 51.707, 20.201 51.313, 19.437 53.303 M 140.017 60.479 C 139.087 61.600, 139.058 62.726, 139.895 65.128 C 141.412 69.480, 141.282 72.815, 139.379 78.401 C 137.443 84.083, 138.351 85.711, 142.662 84.289 C 146.545 83.008, 150.064 76.389, 150.722 69.127 C 151.213 63.709, 151.071 63.201, 148.489 61.170 C 145.288 58.652, 141.771 58.366, 140.017 60.479 M 51.001 75.499 C 50.008 76.695, 50.012 77.615, 51.022 80.054 C 51.891 82.151, 52.094 85.680, 51.670 91.305 C 51.131 98.461, 50.726 99.785, 48.471 101.750 C 47.050 102.987, 45.290 104, 44.559 104 C 42.401 104, 39.855 108.840, 40.191 112.305 C 40.497 115.474, 40.543 115.499, 45.750 115.362 C 48.638 115.287, 51 115.646, 51 116.161 C 51 116.675, 50.100 118.959, 49 121.236 C 47.900 123.513, 47 126.655, 47 128.219 C 47 129.853, 46.347 131.313, 45.465 131.652 C 43.153 132.539, 38 140.531, 38 143.230 C 38 146.043, 39.714 148, 42.176 148 C 43.153 148, 47.727 145.300, 52.340 142 C 56.954 138.700, 61.084 136, 61.520 136 C 61.955 136, 63.816 134.852, 65.656 133.449 C 71.207 129.215, 69.322 123.662, 61.791 122.067 C 59.262 121.531, 58.577 120.922, 58.831 119.435 C 59.014 118.371, 59.398 116.055, 59.686 114.289 C 60.022 112.228, 61.369 110.193, 63.446 108.609 C 65.793 106.819, 67.303 104.304, 68.937 99.466 C 71.489 91.912, 70.978 90.500, 65.696 90.500 C 62.550 90.500, 62.495 90.418, 62.200 85.310 C 61.940 80.815, 61.433 79.709, 58.415 77.060 C 54.527 73.646, 52.834 73.290, 51.001 75.499 M 60.248 150.750 C 58.477 151.713, 54.514 154.952, 51.441 157.949 C 46.692 162.580, 45.603 163.217, 44.177 162.193 C 39.567 158.880, 36.443 159.880, 36.588 164.624 C 36.745 169.769, 37.889 176.162, 38.865 177.344 C 39.991 178.710, 44 190.351, 44 192.256 C 44 192.982, 45.268 195.095, 46.818 196.952 L 49.637 200.328 53.068 198.427 C 54.956 197.381, 57.496 195.670, 58.713 194.624 C 59.929 193.578, 61.757 192.222, 62.774 191.611 C 69.471 187.587, 72.187 185.518, 73.160 183.701 C 74.109 181.927, 73.804 181.214, 71.042 178.746 C 67.977 176.008, 67.879 175.702, 69.085 172.681 C 69.784 170.932, 70.951 168.612, 71.678 167.527 C 72.405 166.443, 73 162.934, 73 159.730 C 73 154.715, 72.632 153.563, 70.354 151.452 C 67.223 148.550, 64.629 148.370, 60.248 150.750 M 57 163.500 C 56.315 164.325, 55 165, 54.078 165 C 51.053 165, 50 167.254, 50 173.731 C 50 180.757, 51.575 182.600, 54.961 179.535 C 57.018 177.673, 61.296 169.133, 62.366 164.750 C 62.958 162.328, 62.752 162, 60.641 162 C 59.323 162, 57.685 162.675, 57 163.500 M 134.450 177.336 C 132.277 179.189, 128.700 181.311, 126.500 182.051 C 119.777 184.315, 119.731 184.428, 118.999 200.703 C 118.632 208.842, 118.596 215.816, 118.917 216.201 C 119.239 216.587, 123.622 216.635, 128.656 216.309 L 137.811 215.716 138.347 202.608 C 138.642 195.399, 139.159 187.250, 139.497 184.500 C 140.931 172.819, 140.485 172.187, 134.450 177.336" stroke="none" fill="black" fill-rule="evenodd"/>
</svg>