<svg xmlns="http://www.w3.org/2000/svg" width="300" height="300" viewBox="0 0 300 300" version="1.1">
	<path d="M 129.500 35.409 C 127.850 36.140, 124.340 38.656, 121.699 40.999 C 117.376 44.835, 116.963 45.570, 117.549 48.380 C 117.908 50.096, 118.779 52.107, 119.486 52.849 C 120.554 53.972, 121.305 53.612, 123.943 50.713 C 127.344 46.975, 132.417 45.271, 134.643 47.119 C 135.560 47.880, 136 50.623, 136 55.575 C 136 59.607, 136.523 64.054, 137.162 65.457 C 138.584 68.578, 137.578 69.842, 134.968 68.212 C 131.616 66.119, 129.384 66.860, 125.127 71.478 C 120.865 76.102, 119.763 80.363, 122.200 82.800 C 124.038 84.638, 125.752 84.267, 130.500 81 C 135.451 77.594, 137.352 77.208, 136.655 79.750 C 136.391 80.713, 135.881 83.234, 135.523 85.353 C 135.039 88.209, 133.530 90.524, 129.685 94.303 C 124.735 99.170, 123.605 100.639, 120.879 105.750 C 120.219 106.987, 118.964 108, 118.089 108.001 C 116.672 108.001, 116.537 105.468, 116.842 84.653 C 117.125 65.283, 116.912 60.507, 115.592 56.618 C 114.716 54.040, 114 49.532, 114 46.600 C 114 38.679, 109.030 33.370, 105.200 37.200 C 103.789 38.611, 103.743 47.191, 105.105 55 C 107.185 66.930, 108.007 88.393, 106.943 103 C 106.363 110.975, 105.503 125.018, 105.033 134.206 C 104.563 143.394, 103.921 152.169, 103.607 153.706 C 101.086 166.047, 100.051 202.134, 101.979 210.500 C 103.011 214.977, 106.056 218, 109.534 218 C 112.692 218, 117.374 213.845, 121.908 207.019 C 127.840 198.089, 128.868 195.802, 132.951 182.446 C 134.346 177.884, 134.077 173.847, 132.340 173.275 C 130.753 172.753, 126 178.045, 126 180.335 C 126 182.099, 125.510 183.260, 121.648 190.654 C 120.741 192.389, 120 194.261, 120 194.815 C 120 196.577, 114.693 204, 113.434 204 C 111.085 204, 109.254 186.342, 110.879 179.362 C 111.501 176.688, 112.192 168.038, 112.415 160.141 C 112.843 144.908, 113.533 142.603, 117.011 144.775 C 118.090 145.449, 120.527 146, 122.427 146 C 124.327 146, 126.134 146.408, 126.442 146.906 C 126.750 147.405, 129.123 148.535, 131.715 149.419 C 135.941 150.858, 138.414 152.244, 147 157.984 C 148.375 158.903, 150.996 160.171, 152.824 160.802 C 154.653 161.432, 157.421 163.310, 158.976 164.974 C 160.530 166.638, 162.720 168, 163.842 168 C 164.964 168, 166.137 168.413, 166.449 168.918 C 166.761 169.422, 169.768 171.714, 173.131 174.009 C 188.007 184.163, 210.517 203.933, 223.011 217.816 C 228.547 223.967, 233.306 229, 233.588 229 C 235.609 229, 240.265 225.433, 241.096 223.249 C 242.036 220.776, 241.637 220.162, 235.303 214.331 C 231.561 210.887, 227.150 207.109, 225.500 205.935 C 223.850 204.761, 221.375 202.262, 220 200.381 C 217.676 197.203, 206.162 186.952, 192.348 175.763 C 186.204 170.786, 171.202 160, 170.424 160 C 169.946 160, 161.298 154.559, 154.500 149.981 C 152.300 148.500, 148.853 146.516, 146.841 145.573 C 144.828 144.630, 142.396 142.990, 141.436 141.929 C 140.476 140.868, 138.661 140, 137.404 140 C 133.095 140, 133.815 137.875, 140.154 131.889 C 143.644 128.593, 146.950 125.437, 147.500 124.875 C 148.050 124.314, 149.512 122.823, 150.750 121.563 C 151.988 120.302, 153 118.937, 153 118.529 C 153 117.610, 158.464 110.509, 162.211 106.560 C 163.745 104.943, 165 103.090, 165 102.443 C 165 101.795, 166.912 98.341, 169.250 94.767 C 176.783 83.248, 179.457 77.672, 180.166 72 C 180.957 65.669, 179.768 64, 174.464 64 C 170.528 64, 168.683 66.090, 166.961 72.500 C 163.010 87.202, 148.516 110.395, 134.793 123.975 C 128.148 130.550, 123.536 133.514, 118.768 134.274 C 114.409 134.968, 113.575 134.080, 114.409 129.635 C 114.847 127.297, 116.387 125.354, 119.956 122.632 C 124.373 119.263, 126.862 116.196, 134.765 104.385 C 136.010 102.523, 137.619 101, 138.340 101 C 142.103 101, 145.981 91.632, 145.793 83 C 145.752 81.075, 146.137 73.875, 146.651 67 C 148.093 47.699, 146.221 39.218, 139.790 35.909 C 135.461 33.682, 133.599 33.591, 129.500 35.409 M 64.500 83.122 C 57.350 86.476, 49.250 89.889, 46.500 90.707 C 43.750 91.525, 40.775 92.840, 39.888 93.628 C 38.235 95.097, 34.183 96.579, 28 97.977 C 22.889 99.133, 14.615 102.343, 13.765 103.500 C 12.613 105.068, 12.876 109.476, 14.200 110.800 C 15.971 112.571, 20.912 112.223, 25.859 109.978 C 28.257 108.890, 31.225 108, 32.456 108 C 35.194 108, 41.208 105.148, 42.300 103.331 C 42.740 102.599, 44.038 102, 45.186 102 C 46.334 102, 51.024 100.097, 55.608 97.771 C 64.705 93.156, 66.974 93.308, 65.037 98.402 C 64.467 99.903, 64 102.351, 64 103.843 C 64 105.334, 63.258 107.614, 62.352 108.908 C 60.832 111.077, 60.215 111.216, 54.463 110.679 C 44.612 109.759, 44.700 109.527, 45.399 134.678 C 45.717 146.130, 46.160 158.200, 46.383 161.500 C 46.606 164.800, 46.382 171.100, 45.887 175.500 C 45.095 182.525, 45.193 183.652, 46.684 184.750 C 48.930 186.403, 53.652 186.349, 54.299 184.662 C 54.582 183.926, 54.872 172.389, 54.945 159.024 C 55.018 145.658, 55.510 133.915, 56.039 132.927 C 56.568 131.940, 57 129.372, 57 127.221 C 57 121.801, 59.622 119.524, 64.891 120.367 C 68.007 120.865, 69.322 120.575, 71.167 118.985 C 72.450 117.878, 74.297 116.416, 75.271 115.734 C 76.805 114.662, 76.914 113.819, 76.083 109.439 C 75.541 106.582, 75.485 102.886, 75.952 100.941 C 76.966 96.731, 79.710 91.292, 81.341 90.262 C 82.771 89.359, 86 84.452, 86 83.181 C 86 81.511, 81.099 77, 79.298 77.012 C 78.309 77.018, 71.650 79.768, 64.500 83.122" stroke="none" fill="black" fill-rule="evenodd"/>
</svg>