<svg xmlns="http://www.w3.org/2000/svg" width="300" height="300" viewBox="0 0 300 300" version="1.1">
	<path d="M 128.247 1.250 C 127.699 1.938, 126.480 4.014, 125.540 5.865 C 123.727 9.431, 122.386 9.118, 121.835 5 C 121.555 2.914, 120.888 2.449, 117.804 2.193 C 114.283 1.900, 114.059 2.066, 113.081 5.699 C 112.280 8.673, 112.525 12.259, 114.196 22.006 C 115.583 30.097, 116.477 40.399, 116.734 51.239 C 117.109 67.019, 117.255 68.065, 119.288 69.489 C 122.486 71.729, 124.516 71.371, 130.567 67.500 C 133.948 65.337, 137.283 64, 139.294 64 C 141.844 64, 143.441 63.053, 146.659 59.633 L 150.769 55.266 150.355 37.383 C 149.918 18.505, 148.645 5.984, 146.784 2.250 C 145.757 0.191, 144.967 -0, 137.453 -0 C 132.085 -0, 128.900 0.433, 128.247 1.250 M 132.371 13.250 C 131.446 15.038, 129.813 17.686, 128.742 19.135 C 126.552 22.098, 124.536 35.868, 126.062 37.437 C 127.441 38.854, 132 34.064, 132 31.198 C 132 28.883, 132.234 28.782, 136.122 29.404 L 140.245 30.063 139.625 24.281 C 138.242 11.378, 137.884 10, 135.921 10 C 134.823 10, 133.358 11.342, 132.371 13.250 M 135.343 44.102 C 134.187 45.258, 131.724 46.511, 129.871 46.887 C 126.754 47.520, 126.477 47.889, 126.193 51.786 C 125.797 57.209, 127.636 57.358, 133.692 52.396 C 139.611 47.546, 141.846 44.149, 139.921 42.930 C 137.939 41.676, 137.710 41.735, 135.343 44.102 M 154.614 70.693 C 153.576 70.971, 150.426 72.652, 147.614 74.427 C 144.801 76.203, 140.250 78.702, 137.500 79.982 C 134.750 81.261, 131.825 82.862, 131 83.538 C 129.722 84.586, 113.349 90.296, 93.067 96.767 C 85.006 99.338, 83.398 100.928, 84.626 105.109 C 85.621 108.499, 85.623 108.500, 91.351 108.237 C 95.206 108.061, 99.108 107.009, 103.277 105.024 C 106.811 103.340, 109.848 102.448, 110.346 102.946 C 111.227 103.827, 108.893 112.252, 106.454 117 C 105.748 118.375, 103.924 122.650, 102.402 126.500 C 100.879 130.350, 99.041 134.210, 98.317 135.079 C 97.592 135.947, 96.992 137.072, 96.982 137.579 C 96.921 140.640, 78.522 164.441, 72.639 169.069 C 67.920 172.781, 69.523 175.555, 75.715 174.394 C 78.518 173.868, 81.172 171.996, 86.232 166.976 C 89.954 163.283, 93.005 159.865, 93.011 159.381 C 93.017 158.896, 95.095 156.251, 97.630 153.502 C 100.164 150.754, 102.617 147.508, 103.080 146.290 C 103.543 145.071, 105.852 142.877, 108.211 141.414 C 110.570 139.950, 113.490 137.852, 114.699 136.750 C 117.984 133.758, 120.013 135.047, 119.344 139.698 C 118.665 144.410, 114.445 157.581, 112.468 161.154 C 111.661 162.614, 111 164.311, 111 164.924 C 111 165.538, 109.776 167.943, 108.279 170.270 C 106.782 172.596, 104.547 176.570, 103.312 179.100 C 102.076 181.631, 100.376 184.273, 99.533 184.973 C 97.610 186.569, 97.538 191.371, 99.413 192.927 C 101.170 194.386, 108 191.851, 108 189.741 C 108 188.992, 109.575 185.183, 111.500 181.275 C 113.425 177.368, 115 173.652, 115 173.019 C 115 172.385, 116.125 170.392, 117.500 168.589 C 118.875 166.786, 120 164.973, 120 164.560 C 120 164.147, 120.842 162.614, 121.870 161.154 C 122.899 159.694, 124.517 155.800, 125.465 152.500 C 126.413 149.200, 127.546 146.050, 127.983 145.500 C 128.419 144.950, 129.083 142.218, 129.457 139.430 C 129.992 135.445, 129.802 134.081, 128.569 133.057 C 127.706 132.341, 127 131.391, 127 130.946 C 127 130.500, 130.262 128.471, 134.250 126.437 C 144.003 121.460, 152.808 120.545, 156.647 124.110 C 163.284 130.274, 168.968 142.458, 168.989 150.566 C 169.003 155.800, 167.108 166.221, 165.919 167.450 C 165.414 167.973, 165 169.176, 165 170.125 C 165 172.582, 150.237 201.452, 147.434 204.477 C 144.162 208.008, 141.353 207.712, 138.915 203.580 C 136.609 199.671, 131.538 197.308, 129.352 199.123 C 127.206 200.904, 127.727 202.379, 131.983 206.574 C 134.174 208.733, 135.974 211.009, 135.983 211.631 C 136.009 213.336, 142.151 219, 144.657 219.629 C 145.866 219.932, 147.785 219.886, 148.922 219.525 C 151.155 218.816, 159.573 206.551, 160.580 202.538 C 160.919 201.187, 161.835 199.552, 162.617 198.903 C 163.398 198.255, 164.740 196.099, 165.599 194.112 C 166.458 192.126, 168.216 188.250, 169.504 185.500 C 177.814 167.767, 181.947 147.172, 178.675 139.795 C 177.872 137.983, 176.939 135.825, 176.603 135 C 175.995 133.509, 172.536 127.667, 168.272 120.929 C 161.150 109.677, 146.570 108.608, 128 117.975 C 124.425 119.778, 120.294 122.104, 118.820 123.145 C 115.490 125.495, 114.381 124.098, 116.431 120.134 C 117.262 118.526, 118.243 115.250, 118.610 112.855 C 118.978 110.460, 119.891 107.285, 120.639 105.800 C 121.388 104.314, 122 102.189, 122 101.075 C 122 99.102, 126.390 96.005, 129.200 95.996 C 131.560 95.988, 149 86.433, 149 85.148 C 149 84.785, 150.882 83.900, 153.183 83.182 C 155.483 82.464, 158.657 80.956, 160.237 79.832 C 162.639 78.121, 163.058 77.192, 162.804 74.143 C 162.531 70.871, 162.194 70.484, 159.500 70.344 C 157.850 70.258, 155.651 70.415, 154.614 70.693 M 59.984 79.583 C 55.318 81.998, 51.166 83.981, 50.758 83.988 C 50.351 83.994, 44.425 87.162, 37.590 91.028 C 28.374 96.239, 23.009 98.575, 16.831 100.065 C 12.249 101.171, 6.588 102.567, 4.250 103.168 L 0 104.260 0 110.130 C 0 113.358, 0.174 116, 0.386 116 C 0.598 116, 4.535 114.606, 9.136 112.902 C 13.736 111.198, 19.300 109.485, 21.500 109.094 C 25.289 108.422, 40.814 101.229, 43.768 98.778 C 44.894 97.843, 55.773 93.021, 56.792 93.005 C 57.515 92.993, 55.631 108.632, 54.779 109.710 C 54.222 110.414, 50.633 111.040, 46.187 111.210 C 36.922 111.562, 35.753 112.866, 37.152 121.281 C 38.118 127.096, 40 133.972, 41.043 135.500 C 41.830 136.653, 43.341 148.292, 43.185 152 C 43.127 153.375, 42.795 156.363, 42.446 158.639 C 41.126 167.250, 46.671 170.266, 49.914 162.700 C 52.804 155.958, 53.421 147.411, 51.540 140.153 C 50.652 136.729, 50.134 133.592, 50.388 133.181 C 50.642 132.770, 50.394 130.293, 49.836 127.677 C 48.469 121.270, 49.535 120.119, 56.680 120.287 C 61.544 120.400, 62.532 120.083, 64.524 117.767 C 66.458 115.518, 66.808 113.961, 66.834 107.493 C 66.850 103.300, 67.279 99.336, 67.787 98.685 C 68.295 98.033, 68.963 96.600, 69.271 95.500 C 69.579 94.400, 70.769 91.031, 71.916 88.014 C 74.737 80.588, 74.604 78.364, 71.234 76.621 C 68.624 75.271, 67.986 75.440, 59.984 79.583 M 140.344 130.546 C 140.017 131.397, 139.984 134.170, 140.271 136.708 C 140.626 139.859, 140.171 143.097, 138.838 146.912 C 137.763 149.985, 136.500 153.999, 136.029 155.832 C 135.559 157.665, 134.081 161.265, 132.745 163.832 C 125.046 178.625, 108 213.029, 108 213.772 C 108 214.254, 106.425 216.863, 104.500 219.571 C 102.575 222.278, 101 225.256, 101 226.188 C 101 227.120, 100.612 228.122, 100.138 228.415 C 99.664 228.708, 97.136 233.347, 94.520 238.724 C 91.904 244.101, 88.429 250.360, 86.797 252.632 C 82.972 257.960, 83.254 261.378, 87.553 261.799 C 91.094 262.145, 96 258.826, 96 256.085 C 96 255.111, 97.110 252.331, 98.466 249.907 C 102.875 242.029, 105 237.648, 105 236.435 C 105 235.780, 105.675 234.685, 106.500 234 C 107.325 233.315, 108 232.105, 108 231.311 C 108 230.516, 109.125 228.392, 110.500 226.589 C 111.875 224.786, 113 222.677, 113 221.902 C 113 221.128, 114.575 218.278, 116.500 215.571 C 118.425 212.863, 120 210.261, 120 209.789 C 120 209.316, 120.775 207.747, 121.722 206.301 C 122.670 204.855, 124.187 201.565, 125.094 198.988 C 126.001 196.412, 128.376 191.752, 130.372 188.633 C 132.367 185.513, 134 182.668, 134 182.309 C 134 181.951, 134.591 180.947, 135.312 180.079 C 136.034 179.210, 137.476 176.475, 138.517 174 C 139.558 171.525, 141.217 168.427, 142.205 167.115 C 143.192 165.803, 144 163.917, 144 162.922 C 144 161.928, 144.890 159.606, 145.978 157.763 C 148.012 154.315, 151 140.964, 151 135.321 C 151 133.573, 150.293 131.436, 149.429 130.571 C 147.365 128.507, 141.133 128.490, 140.344 130.546" stroke="none" fill="black" fill-rule="evenodd"/>
</svg>