<svg xmlns="http://www.w3.org/2000/svg" width="300" height="300" viewBox="0 0 300 300" version="1.1">
	<path d="M 116.500 18 C 114.300 19.018, 111.894 19.885, 111.154 19.926 C 110.414 19.967, 106.489 21.575, 102.432 23.500 C 98.376 25.425, 94.359 27, 93.506 27 C 92.654 27, 88.979 28.350, 85.340 30 C 81.701 31.650, 78.180 33, 77.517 33 C 75.502 33, 73 36.496, 73 39.310 C 73 43.056, 76.787 43.807, 83.917 41.474 C 86.988 40.469, 89.927 39.276, 90.450 38.823 C 90.973 38.370, 92.125 38, 93.012 38 C 93.899 38, 96.621 37.031, 99.062 35.846 C 101.503 34.662, 104.850 33.351, 106.500 32.934 C 110.230 31.991, 115.936 30.013, 118.236 28.866 C 119.191 28.390, 120.570 28, 121.299 28 C 123.095 28, 128 22.767, 128 20.850 C 128 18.750, 124.769 15.984, 122.421 16.074 C 121.365 16.115, 118.700 16.982, 116.500 18 M 99.823 41.619 C 99.726 42.104, 99.613 47.588, 99.573 53.806 C 99.490 66.660, 99.773 66.171, 89 72.101 C 76.324 79.079, 73.180 81.187, 66.755 87.010 C 63.040 90.378, 60 93.788, 60 94.588 C 60 95.388, 58.952 96.520, 57.672 97.104 C 55.724 97.991, 54.620 97.676, 50.918 95.177 C 48.483 93.534, 43.963 91.336, 40.872 90.293 C 37.782 89.249, 33.994 87.571, 32.454 86.562 C 28.868 84.212, 26.838 85.387, 25.626 90.513 C 24.870 93.708, 25.021 94.542, 26.553 95.663 C 27.559 96.398, 29.321 97, 30.469 97 C 31.616 97, 33.443 97.610, 34.527 98.356 C 35.612 99.102, 38.975 100.523, 42 101.515 C 45.025 102.507, 49.075 104.577, 51 106.114 C 52.925 107.652, 56.176 109.606, 58.224 110.457 C 61.610 111.865, 62.318 111.856, 66.039 110.368 C 69.091 109.147, 70.419 109.019, 71.265 109.865 C 71.889 110.489, 73.660 111, 75.200 111 C 79.200 111, 79.118 114.596, 75.098 115.479 C 73.502 115.829, 68.591 119.277, 64.185 123.140 C 53.600 132.422, 51.293 138.032, 57.427 139.571 C 59.209 140.018, 60.861 139.518, 63.108 137.851 C 68.869 133.575, 73.968 127.980, 74.617 125.220 C 75.361 122.061, 79.188 117.672, 83.558 114.967 C 85.241 113.926, 88.278 110.662, 90.308 107.714 C 95.500 100.176, 95.136 98.327, 89.077 101.460 C 87.524 102.263, 85.955 102.622, 85.591 102.258 C 85.226 101.893, 81.493 101.349, 77.293 101.047 C 73.094 100.746, 69.543 100.050, 69.402 99.500 C 69.029 98.048, 82.529 86.887, 89.229 83.108 C 92.380 81.331, 95.219 79.455, 95.538 78.939 C 95.857 78.422, 97.036 78, 98.158 78 C 100.169 78, 100.189 78.310, 99.540 99.750 C 99.179 111.713, 98.624 122.400, 98.307 123.500 C 97.990 124.600, 95.991 127.587, 93.865 130.139 C 91.739 132.690, 90 135.255, 90 135.839 C 90 136.423, 89.396 137.260, 88.657 137.700 C 87.919 138.140, 86.461 139.850, 85.417 141.500 C 81.843 147.151, 76.821 153.505, 69.662 161.432 C 65.723 165.795, 59.575 173.051, 56 177.558 C 52.425 182.064, 44.957 190.869, 39.404 197.125 C 33.852 203.381, 28.227 209.786, 26.904 211.359 C 19.786 219.823, 17.643 222, 16.432 222 C 14.777 222, 8 228.857, 8 230.531 C 8 232.203, 9.973 233.704, 13.252 234.527 C 15.745 235.153, 16.942 234.245, 26.497 224.480 C 32.273 218.576, 37 213.343, 37 212.851 C 37 212.359, 38.125 211.445, 39.500 210.818 C 40.875 210.192, 42 209.092, 42 208.375 C 42 207.657, 42.892 206.593, 43.981 206.010 C 45.071 205.427, 46.533 203.887, 47.231 202.589 C 47.929 201.290, 52.174 196.239, 56.665 191.364 C 61.156 186.489, 68.077 178.691, 72.046 174.035 C 85.731 157.980, 92.463 151, 94.264 151 C 95.257 151, 97.067 151.621, 98.285 152.380 C 99.503 153.140, 102.685 154.037, 105.355 154.376 C 108.026 154.714, 113.585 156.571, 117.710 158.502 C 121.834 160.434, 126.369 162.306, 127.787 162.661 C 129.206 163.017, 131.921 164.364, 133.823 165.654 C 135.724 166.944, 138.200 168, 139.325 168 C 140.450 168, 142.300 168.836, 143.436 169.858 C 144.571 170.881, 147.750 172.842, 150.500 174.217 C 159.730 178.832, 160.923 179.481, 169.854 184.749 C 180.803 191.207, 181.701 192.165, 180.099 195.682 C 178.495 199.202, 179.638 200.145, 186.712 201.134 C 191.573 201.814, 192.900 201.652, 195 200.123 C 198.463 197.601, 198.881 193.285, 195.775 192.105 C 194.479 191.612, 192.787 190.448, 192.016 189.520 C 191.246 188.591, 188.564 186.438, 186.058 184.734 C 183.551 183.031, 179.580 179.968, 177.234 177.928 C 173.461 174.648, 136.348 155.111, 128.500 152.273 C 126.850 151.677, 121 149.555, 115.500 147.559 C 107.796 144.763, 104.639 144.072, 101.750 144.552 C 98.759 145.050, 98 144.861, 98 143.623 C 98 142.769, 98.900 141.589, 100 141 C 101.100 140.411, 102 139.338, 102 138.615 C 102 137.892, 103.392 135.379, 105.093 133.030 C 108.153 128.807, 108.168 128.726, 106.479 125.590 C 104.988 122.822, 104.924 121.683, 105.975 116.620 C 106.637 113.431, 108.072 109.928, 109.163 108.837 C 110.995 107.005, 111.313 106.974, 113.323 108.426 C 114.520 109.290, 117.606 111.115, 120.179 112.480 C 122.753 113.845, 125.142 115.421, 125.488 115.981 C 125.835 116.541, 126.879 117, 127.809 117 C 129.418 117, 134.740 121.570, 139.855 127.342 C 142.642 130.487, 146.002 130.760, 148.464 128.040 C 152.381 123.712, 147.963 116.887, 136.343 109.312 C 131.754 106.321, 128 103.703, 128 103.494 C 128 103.284, 130.588 100.725, 133.750 97.807 C 142.159 90.046, 146.872 84.959, 148.337 82.061 C 149.049 80.652, 150.115 78.600, 150.704 77.500 C 151.294 76.400, 152.252 72.917, 152.834 69.759 C 154.125 62.746, 152.947 59.883, 147.336 56.390 C 143.947 54.280, 142.743 54.075, 137 54.630 C 133.425 54.975, 126.127 56.549, 120.782 58.129 C 115.437 59.708, 110.596 61, 110.026 61 C 109.342 61, 109.205 58.184, 109.624 52.730 C 110.145 45.956, 109.981 44.229, 108.719 43.182 C 106.815 41.601, 100.065 40.416, 99.823 41.619 M 130.500 65.550 C 127.750 66.326, 124.487 66.970, 123.250 66.981 C 120.255 67.006, 120.389 69.370, 123.500 71.408 C 126.086 73.102, 127.038 78.240, 125 79.500 C 124.450 79.840, 124 81.111, 124 82.324 C 124 83.537, 123.132 86.149, 122.071 88.129 C 121.010 90.109, 119.835 93.365, 119.459 95.364 C 118.866 98.528, 119.029 99, 120.714 99 C 121.779 99, 123.392 98.213, 124.298 97.250 C 129.190 92.055, 135 84.800, 135 83.885 C 135 83.308, 136.597 80.888, 138.549 78.506 C 146.707 68.550, 142.703 62.106, 130.500 65.550 M 111.026 71.694 C 109.389 73.775, 108.941 75.649, 109.052 79.944 C 109.132 83, 108.875 86.737, 108.482 88.250 C 107.924 90.397, 108.116 91, 109.358 91 C 112.009 91, 114.282 84.952, 116.406 72.250 C 116.861 69.532, 116.639 69, 115.048 69 C 114.001 69, 112.192 70.212, 111.026 71.694 M 89.935 171.286 C 86.280 174.441, 87.214 178.878, 92.009 181.138 C 97.300 183.632, 99.500 186.601, 99.500 191.247 C 99.500 197.299, 102.190 198.525, 106.057 194.234 C 110.288 189.539, 110.203 183.380, 105.833 177.941 C 104.091 175.774, 102.271 174, 101.789 174 C 101.307 174, 99.699 172.875, 98.217 171.500 C 94.930 168.452, 93.268 168.409, 89.935 171.286 M 96.500 202.204 C 77.721 209.875, 74.299 211.424, 72.641 213.003 C 70.983 214.582, 70.930 215.083, 72.148 217.637 C 74.423 222.405, 79.082 222.065, 89.889 216.340 C 94.845 213.715, 99.209 211.876, 99.587 212.254 C 99.965 212.631, 99.199 215.504, 97.887 218.637 C 95.098 225.294, 82.570 239, 79.275 239 C 74.333 239, 73.623 245.907, 78.214 249.319 C 80.786 251.231, 81.125 251.253, 84.714 249.740 C 90.167 247.442, 99.068 246.845, 101.490 248.616 C 102.562 249.400, 105.252 250.494, 107.469 251.048 C 112.995 252.427, 124.655 256.788, 129.500 259.286 C 131.700 260.420, 135.319 262.282, 137.542 263.424 C 139.765 264.566, 142.984 266.512, 144.696 267.750 C 146.408 268.988, 148.123 270, 148.507 270 C 148.892 270, 151.464 272.030, 154.224 274.511 C 160.229 279.911, 163.305 280.939, 166.040 278.464 C 168.765 275.998, 168.505 274.414, 164.750 270.599 C 160.587 266.370, 149.157 258, 147.545 258 C 146.866 258, 145.495 257.100, 144.500 256 C 143.505 254.900, 142.291 254, 141.803 254 C 141.316 254, 137.898 252.587, 134.208 250.860 C 126.815 247.399, 116.157 243.263, 111.500 242.048 C 97.461 238.385, 95.672 236.593, 100.835 231.369 C 105.598 226.549, 108.588 221.755, 110.333 216.135 C 112.740 208.388, 112.498 205.343, 109.250 202.484 C 105.936 199.567, 103.109 199.505, 96.500 202.204" stroke="none" fill="black" fill-rule="evenodd"/>
</svg>