<svg xmlns="http://www.w3.org/2000/svg" width="300" height="300" viewBox="0 0 300 300" version="1.1">
	<path d="M 116.641 50.383 C 115.068 51.685, 111.018 53.523, 107.641 54.468 C 104.263 55.413, 100.825 56.530, 100 56.950 C 97.579 58.184, 97.645 60.993, 100.159 63.670 C 102.035 65.667, 103.195 66.067, 106 65.683 C 112.181 64.837, 126.171 59.284, 128.835 56.619 L 131.418 54.037 129.359 51.268 C 126.524 47.457, 120.668 47.049, 116.641 50.383 M 52.500 59.988 C 49.750 61.605, 45.925 63.654, 44 64.540 C 42.075 65.427, 38.614 67.045, 36.308 68.137 C 32.267 70.051, 13.267 73.959, 7.872 73.987 C 3.852 74.007, 2.676 76.083, 3.968 80.881 C 4.566 83.100, 5.483 85.180, 6.007 85.504 C 6.835 86.016, 12.363 84.878, 17 83.242 C 17.825 82.951, 20.135 82.598, 22.133 82.457 C 27.085 82.109, 40.668 77.383, 45.229 74.421 C 47.279 73.090, 49.425 72, 49.996 72 C 51.377 72, 50.561 91.839, 49.121 93.279 C 48.368 94.032, 46.254 93.842, 41.901 92.632 C 36.114 91.023, 35.633 91.022, 33.873 92.615 C 32.306 94.033, 32.012 95.716, 32.073 102.905 C 32.113 107.632, 32.485 113.883, 32.900 116.796 C 33.314 119.709, 33.288 128.934, 32.841 137.296 C 32.395 145.658, 31.396 164.200, 30.623 178.500 C 29.346 202.091, 29.363 204.666, 30.803 206.294 C 31.676 207.281, 33.314 207.956, 34.445 207.794 C 36.747 207.465, 37.057 205.871, 38.976 184.500 C 39.568 177.900, 40.224 171.150, 40.432 169.500 C 41.871 158.082, 43.395 134.251, 43.443 122.405 C 43.483 112.505, 43.881 107.850, 44.778 106.768 C 45.542 105.848, 48.617 104.953, 52.412 104.546 C 56.636 104.094, 59.477 103.205, 60.883 101.894 C 63.248 99.691, 63.612 95.389, 61.652 92.810 C 60.791 91.678, 60.445 88.334, 60.603 82.669 C 60.801 75.549, 61.245 73.572, 63.419 70.128 C 66.448 65.331, 66.733 60.974, 64.171 58.655 C 61.528 56.263, 58.183 56.645, 52.500 59.988 M 127.500 89.482 C 125.300 90.188, 120.350 92.637, 116.500 94.922 C 112.650 97.208, 108.825 99.469, 108 99.946 C 107.175 100.423, 102 102.963, 96.500 105.591 C 88.901 109.221, 84.939 110.504, 80 110.934 L 73.500 111.500 73.178 114.859 C 72.749 119.345, 76.089 123, 80.615 123 C 82.412 123, 84.113 122.627, 84.394 122.171 C 84.676 121.715, 87.515 120.724, 90.703 119.968 C 93.892 119.212, 98.501 117.336, 100.946 115.797 C 103.391 114.259, 106.021 113, 106.791 113 C 107.561 113, 109.435 112.114, 110.955 111.032 C 112.475 109.950, 117.495 107.261, 122.109 105.057 C 134.552 99.115, 138.002 96.823, 137.985 94.514 C 137.976 93.406, 137.639 92.005, 137.235 91.400 C 136.537 90.355, 132.488 87.889, 131.816 88.099 C 131.642 88.153, 129.700 88.776, 127.500 89.482 M 186.053 116.250 C 186.082 120.787, 186.792 127.875, 187.631 132 C 188.470 136.125, 189.865 144.088, 190.730 149.695 L 192.302 159.891 189.520 165.195 C 186.386 171.170, 178.710 176.875, 169 180.445 C 159.970 183.766, 137.519 182.774, 132.377 178.828 C 130.242 177.190, 129.119 166.442, 129.415 150.500 C 129.578 141.700, 130.062 132.568, 130.490 130.208 C 131.165 126.488, 130.961 125.587, 128.960 123.458 C 125.883 120.183, 122.245 120.224, 120.981 123.549 C 119.822 126.598, 117.850 160.783, 118.302 170 C 118.645 177.004, 120.079 180.356, 125.234 186.206 C 127.648 188.946, 129.804 190.216, 133.500 191.074 C 136.250 191.713, 139.281 192.633, 140.236 193.118 C 141.191 193.603, 146.981 194, 153.102 194 C 164.377 194, 169.497 192.967, 178.610 188.855 C 180.870 187.835, 183.037 187, 183.426 187 C 186.601 187, 200 171.382, 200 167.682 C 200 166.822, 200.501 165.808, 201.113 165.430 C 201.822 164.992, 202.022 162.882, 201.664 159.621 C 200.987 153.457, 197.597 136.679, 196.183 132.500 C 193.391 124.245, 192.710 121.138, 192.575 116.045 C 192.399 109.417, 191.671 108, 188.441 108 C 186.046 108, 186.001 108.155, 186.053 116.250 M 97.200 123.200 C 96.540 123.860, 96 125.795, 96 127.500 C 96 129.205, 95.496 131.104, 94.880 131.720 C 94.265 132.335, 93.399 134.563, 92.956 136.670 C 90.835 146.767, 88.788 153.484, 86.390 158.217 C 83.663 163.599, 76.236 174, 75.120 174 C 74.769 174, 73.891 174.945, 73.170 176.100 C 71.211 179.236, 72.547 185.420, 75.527 187.014 C 77.647 188.149, 78.313 187.999, 81.321 185.705 C 83.189 184.279, 85.511 181.443, 86.480 179.401 C 87.449 177.360, 90.120 172.722, 92.416 169.095 C 97.243 161.471, 100.934 151.168, 101.721 143.119 C 102.024 140.028, 102.579 137.050, 102.955 136.500 C 103.332 135.950, 104.244 133.582, 104.984 131.239 C 106.254 127.210, 106.200 126.842, 103.989 124.489 C 101.441 121.776, 99.073 121.327, 97.200 123.200" stroke="none" fill="black" fill-rule="evenodd"/>
</svg>