<svg xmlns="http://www.w3.org/2000/svg" width="300" height="300" viewBox="0 0 300 300" version="1.1">
	<path d="M 136.750 21.080 C 134.612 22.325, 134.333 31.479, 136.219 38.527 C 137.535 43.451, 136.898 45.508, 133.461 47.433 C 132.413 48.020, 129.566 49.962, 127.134 51.750 C 123.640 54.318, 121.736 55, 118.056 55 C 110.807 55, 108.596 58.964, 113.635 62.927 C 116.486 65.170, 119.980 65.620, 121.641 63.959 C 122.214 63.386, 125.711 61.859, 129.413 60.566 C 134.423 58.815, 136.266 58.529, 136.618 59.448 C 137.362 61.385, 136.325 94.723, 135.280 102.500 C 134.763 106.350, 133.813 110.483, 133.170 111.684 C 132.526 112.886, 132 115.211, 132 116.852 C 132 125.005, 128.545 125.251, 120.878 117.644 C 119.295 116.074, 118 113.984, 118 113.001 C 118 110.968, 116.086 110, 112.067 110 C 110.544 110, 107.842 109.492, 106.063 108.872 C 103.404 107.945, 102.549 108.023, 101.265 109.306 C 99.950 110.621, 99.899 111.343, 100.943 113.862 C 101.625 115.508, 103.042 117.633, 104.091 118.583 C 105.141 119.533, 106 120.962, 106 121.759 C 106 124.721, 98.846 136.675, 94.006 141.801 C 91.253 144.716, 89 147.993, 89 149.082 C 89 151.582, 91.692 152.673, 94.119 151.158 C 95.139 150.521, 96.576 150, 97.312 150 C 99.721 150, 106.284 141.830, 109.997 134.209 C 113.012 128.020, 115.411 127.252, 121.354 130.574 C 126.762 133.597, 127.740 135.157, 126.208 138.317 C 125.627 139.518, 124.872 141.850, 124.531 143.500 C 122.719 152.263, 122.142 154.258, 121.120 155.280 C 120.504 155.896, 120 157.408, 120 158.641 C 120 159.874, 119.550 161.160, 119 161.500 C 118.450 161.840, 118 163.415, 118 165 C 118 166.585, 117.550 168.160, 117 168.500 C 116.450 168.840, 116 170.392, 116 171.948 C 116 173.505, 114.200 178.424, 112 182.879 C 109.800 187.334, 108 191.632, 108 192.431 C 108 193.229, 107.550 194.160, 107 194.500 C 106.450 194.840, 106 195.907, 106 196.871 C 106 197.835, 105.159 200.396, 104.132 202.562 C 103.104 204.728, 101.492 208.300, 100.548 210.500 C 99.605 212.700, 98.418 215.175, 97.910 216 C 97.403 216.825, 96.724 218.175, 96.403 219 C 96.082 219.825, 95.472 221.400, 95.048 222.500 C 93.846 225.617, 89.680 234.071, 87.081 238.668 C 85.784 240.961, 84.997 243.549, 85.330 244.418 C 86.336 247.040, 90.383 246.235, 93.714 242.750 C 97.160 239.145, 104.106 226.261, 108.404 215.500 C 109.941 211.650, 111.547 207.810, 111.973 206.967 C 112.398 206.124, 113.087 203.874, 113.503 201.967 C 113.920 200.060, 115.102 197.427, 116.130 196.115 C 117.159 194.803, 118 192.496, 118 190.988 C 118 189.479, 118.675 187.685, 119.500 187 C 120.325 186.315, 121 184.712, 121 183.437 C 121 182.161, 121.450 180.840, 122 180.500 C 122.550 180.160, 123 178.810, 123 177.500 C 123 176.190, 123.438 174.847, 123.973 174.517 C 124.508 174.186, 125.431 172.111, 126.025 169.906 C 127.204 165.529, 129.653 163.821, 131.395 166.161 C 132.003 166.978, 134.975 168.852, 138 170.326 C 141.025 171.799, 145.300 174.091, 147.500 175.419 C 149.700 176.747, 153.750 179.032, 156.500 180.496 C 159.250 181.960, 162.175 183.723, 163 184.414 C 163.825 185.105, 166.075 186.271, 168 187.004 C 172.350 188.661, 179.507 192.650, 183.594 195.695 C 185.296 196.963, 186.991 198, 187.359 198 C 188.948 198, 211.452 213.669, 222 222.119 C 235.755 233.138, 243.014 240.639, 245.965 246.883 C 247.165 249.422, 249.261 252.325, 250.622 253.333 C 252.872 255, 253.308 255.028, 255.421 253.644 C 256.700 252.806, 258.703 252.371, 259.873 252.677 C 267.823 254.756, 250.297 233.470, 230.855 217.433 C 215.314 204.614, 177.179 180, 172.860 180 C 172.045 180, 170.336 179.030, 169.063 177.844 C 167.072 175.989, 160.462 172.239, 148.500 166.176 C 146.850 165.340, 144.150 163.641, 142.500 162.402 C 140.850 161.162, 137.700 160.002, 135.500 159.824 C 131.857 159.529, 131.473 159.228, 131.201 156.449 C 130.998 154.370, 131.556 152.807, 132.951 151.544 C 134.078 150.524, 135 149.140, 135 148.467 C 135 147.795, 135.675 146.685, 136.500 146 C 137.325 145.315, 138 143.889, 138 142.831 C 138 141.740, 139.296 140.169, 140.994 139.203 C 144.817 137.028, 144.770 135.749, 140.750 132.597 C 137.879 130.346, 137.646 129.815, 138.750 128.038 C 139.438 126.932, 140 124.698, 140 123.073 C 140 121.448, 140.450 119.840, 141 119.500 C 141.550 119.160, 142 117.363, 142 115.506 C 142 113.649, 142.491 110.863, 143.092 109.315 C 144.420 105.892, 145.744 92.105, 146.890 69.754 C 147.460 58.631, 148.184 52.483, 149.046 51.444 C 150.777 49.359, 157.844 46, 160.501 46 C 162.902 46, 168 41.171, 168 38.895 C 168 33.693, 157.229 33.909, 151.339 39.229 C 147.946 42.295, 145.544 41.213, 145.262 36.492 C 144.809 28.891, 142.917 22.026, 140.993 20.996 C 138.772 19.807, 138.941 19.804, 136.750 21.080 M 61.500 91.543 C 52.700 96.841, 42.526 102.685, 38.892 104.529 C 31.327 108.368, 16.668 111.522, 10.773 110.580 C 4.072 109.508, 1.103 112.846, 4.474 117.660 C 6.612 120.712, 13.139 121.385, 22.603 119.530 C 26.946 118.678, 31.850 117.373, 33.500 116.631 C 35.150 115.888, 37.625 114.833, 39 114.286 C 44.521 112.089, 58.569 104.646, 59.610 103.365 C 60.221 102.614, 61.178 102, 61.738 102 C 62.297 102, 63.315 101.325, 64 100.500 C 64.685 99.675, 65.865 99, 66.622 99 C 68.779 99, 68.365 105.635, 66.065 107.935 C 64.191 109.809, 58.197 111.983, 54.872 111.994 C 53.977 111.997, 52.673 112.690, 51.973 113.532 C 50.687 115.082, 51.401 119.040, 54.222 126 C 56.419 131.421, 57.272 141.555, 57.575 165.832 C 57.898 191.754, 58.463 195.521, 61.633 192.890 C 62.385 192.266, 63 190.669, 63 189.342 C 63 188.015, 63.692 185.873, 64.538 184.582 C 65.836 182.602, 66.084 177.429, 66.125 151.594 L 66.172 120.955 69.336 119.579 C 74.827 117.191, 78 112.817, 78 107.637 C 78 105.138, 78.506 101.835, 79.125 100.297 C 81.799 93.643, 82.365 92.327, 83.876 89.235 C 85.857 85.181, 84.596 82.632, 80.399 82.205 C 78.206 81.983, 73.605 84.256, 61.500 91.543 M 159.406 91.386 C 158.047 94.925, 160.001 99.479, 164.571 103.425 C 170.588 108.620, 171.508 110.436, 169.545 113.240 C 168.695 114.453, 168 116.050, 168 116.789 C 168 118.745, 163.335 124.927, 158.604 129.242 C 155.186 132.360, 154.684 133.278, 155.601 134.742 C 158.589 139.514, 171 135.069, 171 129.226 C 171 127.598, 171.785 125.991, 172.928 125.277 C 173.988 124.615, 175.454 122.825, 176.186 121.299 C 176.917 119.773, 178.303 118.373, 179.265 118.187 C 180.835 117.885, 192.484 125.578, 197.421 130.178 C 198.484 131.168, 200.133 132.225, 201.087 132.528 C 202.041 132.830, 203.547 134.185, 204.434 135.539 C 206.326 138.427, 208.744 138.705, 210.608 136.250 C 213.743 132.120, 211.796 128.662, 203 122.745 C 199.975 120.710, 196.150 117.788, 194.500 116.252 C 192.850 114.717, 189.130 111.738, 186.233 109.632 C 183.336 107.527, 180.508 104.949, 179.948 103.902 C 179.366 102.815, 177.864 102, 176.440 102 C 174.789 102, 173.650 101.242, 173.059 99.750 C 170.414 93.068, 160.978 87.288, 159.406 91.386" stroke="none" fill="black" fill-rule="evenodd"/>
</svg>