<svg xmlns="http://www.w3.org/2000/svg" width="300" height="300" viewBox="0 0 300 300" version="1.1">
	<path d="M 148.465 6.952 C 147.346 7.405, 145.807 8.528, 145.045 9.446 C 144.283 10.364, 142.164 11.740, 140.335 12.504 C 138.507 13.268, 134.678 16.226, 131.826 19.078 C 127.772 23.132, 126.299 24.049, 125.071 23.280 C 124.207 22.738, 123.364 21.385, 123.197 20.272 C 122.673 16.780, 118.621 13.818, 114.859 14.178 C 111.837 14.468, 111.467 14.845, 111.172 17.940 C 110.842 21.414, 112.980 26.285, 117.563 32.500 C 118.779 34.150, 120.040 37.075, 120.363 39 C 120.687 40.925, 121.525 45.921, 122.226 50.102 C 122.927 54.283, 124.118 58.446, 124.872 59.352 C 126.608 61.436, 130.358 61.479, 132.055 59.434 C 134.329 56.694, 138.309 55.281, 145.260 54.748 C 152.657 54.180, 155 52.925, 155 49.533 C 155 46.351, 151.498 43.600, 147.450 43.600 C 143.154 43.600, 143.066 42.272, 147 36.841 C 148.650 34.564, 150 32.051, 150 31.258 C 150 30.464, 150.900 28.671, 152 27.273 C 153.100 25.874, 154 24.171, 154 23.488 C 154 22.804, 154.675 21.685, 155.500 21 C 156.325 20.315, 157 18.550, 157 17.078 C 157 15.605, 157.563 13.830, 158.250 13.133 C 159.253 12.117, 158.854 11.286, 156.234 8.933 C 152.811 5.858, 151.799 5.600, 148.465 6.952 M 136.500 26.534 C 134.300 28.447, 131.695 30.702, 130.712 31.545 C 128.948 33.055, 128.928 34.712, 130.577 42.750 C 131.318 46.364, 133.816 45.397, 134.989 41.042 C 135.575 38.865, 136.520 36.797, 137.089 36.445 C 137.658 36.093, 138.551 34.837, 139.074 33.653 C 139.597 32.469, 140.927 30.007, 142.030 28.183 C 145.659 22.177, 142.568 21.255, 136.500 26.534 M 70.500 68.464 C 63.137 72.940, 58.527 75.409, 55 76.767 C 45.910 80.265, 31.697 83.758, 24 84.386 C 12.630 85.314, 8.106 86.731, 7.388 89.591 C 6.563 92.875, 9.126 97.570, 11.543 97.203 C 12.619 97.040, 17.605 96.478, 22.622 95.954 C 27.640 95.430, 33.659 94.326, 35.998 93.501 C 43.889 90.717, 48.960 92.298, 44.367 96.110 C 42.958 97.280, 42.826 98.976, 43.404 108.483 C 43.773 114.542, 44.497 121.300, 45.013 123.500 C 45.530 125.700, 45.963 134.743, 45.976 143.595 C 45.998 158.486, 46.152 159.828, 48.031 161.528 C 49.896 163.216, 50.193 163.235, 51.669 161.760 C 53.458 159.970, 53.851 155.512, 54.378 131 C 54.562 122.475, 55.066 113.546, 55.498 111.157 C 56.253 106.992, 56.412 106.834, 59.393 107.275 C 64.004 107.958, 71.439 105.449, 72.765 102.764 C 74.347 99.562, 75.875 91.237, 75.291 89.004 C 75.021 87.970, 75.519 86.096, 76.400 84.840 C 77.280 83.583, 78 81.950, 78 81.211 C 78 80.471, 79.125 78.392, 80.500 76.589 C 83.612 72.509, 83.605 72.241, 80.313 68.805 C 77.039 65.388, 75.641 65.339, 70.500 68.464 M 135.164 76.657 C 129.737 80.228, 127 84.482, 127 89.346 C 127 92.888, 124.107 99.205, 122.708 98.718 C 122.043 98.487, 121.559 97.218, 121.630 95.899 C 121.840 92.026, 119.979 81.679, 118.821 80.284 C 117.367 78.533, 113.522 78.666, 111.983 80.521 C 110.672 82.100, 110.784 85.429, 112.970 109.845 C 113.665 117.600, 113.658 124.560, 112.948 131.845 C 110.843 153.455, 110.110 168.337, 111.063 170.118 C 111.685 171.279, 111.610 172.763, 110.844 174.443 C 109.968 176.365, 109.962 177.621, 110.818 179.500 C 112.668 183.561, 117.771 182.908, 126.448 177.500 C 130.419 175.025, 134.362 173, 135.211 173 C 136.060 173, 137.280 172.367, 137.922 171.593 C 139.142 170.123, 148.538 166.086, 155.643 163.979 C 163.001 161.797, 162.507 164.247, 162.432 130.286 C 162.376 104.454, 162.075 98.213, 160.566 91.500 C 157.299 76.971, 154.018 72.950, 145.527 73.073 C 141.532 73.131, 139.405 73.866, 135.164 76.657 M 59.133 85.542 C 57.526 86.894, 55.466 88, 54.556 88 C 52.416 88, 47 90.797, 47 91.903 C 47 93.113, 56.394 97, 59.320 97 C 62.540 97, 65 93.164, 65 88.142 C 65 83.157, 63.013 82.277, 59.133 85.542 M 136.666 89.931 C 133.733 92.706, 131.025 96.314, 130.476 98.181 C 129.710 100.785, 128.853 101.608, 126.500 102 L 123.500 102.500 123.296 114 C 123.184 120.325, 122.787 128.700, 122.415 132.610 C 121.677 140.375, 122.323 141.638, 126.502 140.589 C 127.816 140.259, 131.017 138.149, 133.617 135.899 C 141.327 129.226, 145.438 127.020, 149.693 127.273 C 152.234 127.425, 153.467 127.084, 153.400 126.250 C 153.345 125.563, 153.233 123.200, 153.150 121 C 153.033 117.870, 152.608 117, 151.200 117 C 150.210 117, 148.885 117.515, 148.255 118.145 C 146.855 119.545, 137.261 123, 134.775 123 C 133.784 123, 132.139 123.521, 131.119 124.158 C 128.526 125.777, 126 124.522, 126 121.615 C 126 118.400, 130.891 114.705, 142.737 108.971 C 147.817 106.512, 151.979 104.191, 151.987 103.813 C 151.994 103.436, 151.115 99.422, 150.033 94.893 C 147.219 83.110, 144.820 82.220, 136.666 89.931 M 150.768 139 C 150.081 140.100, 148.920 141, 148.188 141 C 146.824 141, 140.156 144.657, 134.110 148.722 C 130.190 151.357, 127.187 151.609, 124.441 149.532 C 121.016 146.941, 120.004 147.665, 119.940 152.750 C 119.908 155.363, 119.501 159.750, 119.037 162.500 C 118.573 165.250, 118.551 167.879, 118.989 168.342 C 119.676 169.070, 130.103 164.291, 143.461 157.125 C 145.640 155.956, 148.398 155, 149.589 155 C 152.925 155, 153.752 153.146, 154.161 144.750 C 154.442 138.981, 154.217 137, 153.278 137 C 152.584 137, 151.455 137.900, 150.768 139 M 116.021 192.250 C 115.439 192.938, 113.734 195.373, 112.232 197.663 C 104.067 210.105, 85.601 228.083, 78 230.991 C 76.075 231.727, 73.825 232.884, 73 233.561 C 72.175 234.239, 70.605 234.958, 69.511 235.158 C 67.146 235.592, 66.349 238.511, 68.040 240.548 C 69.695 242.542, 76.025 242.374, 79.027 240.256 C 80.387 239.297, 83.525 237.549, 86 236.371 C 88.475 235.193, 93.047 231.928, 96.160 229.115 C 99.273 226.302, 102.198 223.993, 102.660 223.985 C 105.616 223.934, 124 200.354, 124 196.615 C 124 191.885, 118.757 189.017, 116.021 192.250 M 152.786 199.758 C 151.143 201.738, 154.965 204.478, 165.461 208.844 C 169.882 210.684, 173.950 212.532, 174.500 212.952 C 176.011 214.106, 191.398 222.252, 211.500 232.540 C 221.400 237.607, 231.975 243.061, 235 244.660 C 241.705 248.205, 255 256.750, 255 257.515 C 255 257.820, 254.258 259.203, 253.351 260.587 C 252.382 262.066, 252.073 263.463, 252.601 263.978 C 253.096 264.459, 257.100 264.999, 261.500 265.177 L 269.500 265.500 269.771 261.500 C 270.030 257.666, 269.735 257.231, 262.669 251.033 C 255.882 245.079, 246.703 239.283, 238 235.456 C 236.075 234.609, 232.925 233.081, 231 232.059 C 226.834 229.848, 204.470 218.207, 194.276 212.944 C 190.302 210.892, 185.802 208.716, 184.276 208.109 C 182.749 207.501, 178.575 205.115, 175 202.806 C 168.997 198.928, 167.945 198.595, 161.248 198.454 C 155.968 198.342, 153.667 198.697, 152.786 199.758" stroke="none" fill="black" fill-rule="evenodd"/>
</svg>