<svg xmlns="http://www.w3.org/2000/svg" width="300" height="300" viewBox="0 0 300 300" version="1.1">
	<path d="M 157.500 35.249 C 154.750 35.785, 148.450 37.520, 143.500 39.106 C 132.390 42.664, 123.496 45, 121.053 45 C 119.348 45, 111.608 48.694, 106.250 52.065 C 103.448 53.828, 103.391 55.970, 106.069 58.844 C 108.592 61.552, 113.126 61.071, 119.897 57.376 C 122.315 56.056, 126.140 54.709, 128.397 54.381 C 130.654 54.053, 137.152 52.257, 142.838 50.391 C 148.523 48.524, 155.723 46.700, 158.838 46.338 C 165.820 45.525, 172 41.799, 172 38.402 C 172 34.174, 167.759 33.251, 157.500 35.249 M 142.092 66.828 C 140.857 69.136, 140.617 76.284, 141.737 77.404 C 142.143 77.809, 143.234 83.847, 144.163 90.821 C 145.092 97.794, 146.579 107.100, 147.467 111.500 C 149.635 122.230, 150.781 156.151, 150.626 205 C 150.528 235.661, 150.205 245.017, 149.182 246.811 C 148.458 248.082, 147.494 248.982, 147.041 248.811 C 145.725 248.314, 131.681 235.368, 120.650 224.483 C 102.873 206.941, 97.916 203.925, 97.189 210.207 C 96.936 212.391, 97.595 213.354, 100.689 215.322 C 104.961 218.039, 114 227.638, 114 229.458 C 114 230.107, 116.732 233.533, 120.071 237.070 C 123.409 240.606, 128.459 246.124, 131.292 249.332 C 136.777 255.543, 146.558 262, 150.481 262 C 154.269 262, 156.631 257.840, 158.572 247.746 C 160.157 239.500, 160.330 232.568, 160.168 183.644 C 160.069 153.473, 159.652 128.273, 159.244 127.644 C 158.835 127.015, 158.182 122.900, 157.794 118.500 C 155.829 96.251, 151.469 68.135, 149.710 66.377 C 149.514 66.181, 147.966 65.743, 146.269 65.404 C 143.809 64.912, 142.963 65.200, 142.092 66.828 M 60 75.252 C 51.567 79.020, 37.823 85.499, 33.865 87.572 C 31.315 88.908, 28.299 90, 27.162 90 C 26.025 90, 24.060 90.403, 22.797 90.896 C 21.534 91.389, 18.475 92.341, 16 93.012 C 6.131 95.688, 5.733 95.969, 6.360 99.828 C 6.672 101.753, 7.379 103.779, 7.930 104.330 C 9.143 105.543, 19.390 103.516, 22.715 101.406 C 23.933 100.633, 26.014 100, 27.340 100 C 29.778 100, 36.589 97.242, 47.429 91.865 C 50.691 90.247, 53.947 89.149, 54.665 89.425 C 55.624 89.793, 55.870 91.857, 55.589 97.213 C 55.044 107.629, 54.798 108, 48.428 108 C 41.263 108, 40.447 109.490, 42.577 118.677 C 43.445 122.420, 44.521 125.936, 44.968 126.491 C 47.404 129.515, 49.181 144.526, 49.536 165.064 C 49.906 186.529, 50.682 192, 53.353 192 C 56.608 192, 56.938 189.402, 57.051 162.935 C 57.112 148.396, 57.066 133.800, 56.947 130.500 C 56.523 118.669, 56.573 118.505, 61.369 115.960 C 66.570 113.201, 69.729 108.231, 68.154 105.287 C 66.037 101.332, 65.642 93.139, 67.366 88.961 C 68.265 86.782, 69.739 83.210, 70.642 81.023 C 71.976 77.791, 72.046 76.761, 71.019 75.523 C 69.549 73.752, 63.680 73.608, 60 75.252 M 109.189 102.458 C 107.368 103.281, 104.228 105.315, 102.211 106.977 C 98.680 109.888, 96 110.854, 96 109.216 C 96 108.784, 94.688 107.656, 93.084 106.709 C 90.911 105.425, 89.538 105.225, 87.699 105.924 C 85.434 106.786, 85.272 107.260, 85.739 111.681 C 86.019 114.332, 87.003 117.400, 87.925 118.500 C 90.754 121.872, 93.932 130.173, 94.951 136.850 C 95.485 140.342, 96.374 143.746, 96.928 144.413 C 97.482 145.080, 97.681 147.194, 97.370 149.110 C 96.746 152.950, 97.835 154.419, 102.097 155.488 C 104.030 155.973, 105.446 155.496, 107.703 153.597 C 109.363 152.199, 111.797 150.562, 113.111 149.959 C 116.488 148.407, 121.476 145.604, 125.797 142.828 C 127.834 141.520, 130.373 139.979, 131.440 139.404 C 132.508 138.828, 133.788 137.137, 134.285 135.645 C 135.454 132.137, 133.746 130, 129.774 130 L 126.793 130 127.040 123.250 C 127.511 110.351, 127.133 107.265, 124.750 104.525 C 121.888 101.236, 114.162 100.210, 109.189 102.458 M 108.946 115.829 C 102.165 120.144, 101.953 120.600, 103.064 128.446 C 103.598 132.216, 103.752 136.807, 103.406 138.650 C 102.942 141.122, 103.134 141.994, 104.139 141.978 C 110.233 141.878, 120.901 118.301, 116.737 114.137 C 115.050 112.450, 113.845 112.711, 108.946 115.829" stroke="none" fill="black" fill-rule="evenodd"/>
</svg>