<svg xmlns="http://www.w3.org/2000/svg" width="300" height="300" viewBox="0 0 300 300" version="1.1">
	<path d="M 44.407 23.150 C 44.016 23.783, 43.533 28.947, 43.333 34.626 C 43.133 40.305, 42.526 46.117, 41.984 47.541 C 41.443 48.965, 41 51.396, 41 52.943 C 41 54.490, 40.287 57.461, 39.416 59.546 C 37.315 64.574, 38.672 67.976, 42.664 67.695 C 45.255 67.512, 45.484 67.834, 46.440 73 C 47 76.025, 47.467 82.477, 47.479 87.338 C 47.499 95.840, 47.391 96.270, 44.631 98.642 C 43.042 100.009, 40.813 100.972, 39.631 100.804 C 37.613 100.516, 37.500 99.950, 37.500 90.175 C 37.500 81.111, 37.263 79.676, 35.559 78.425 C 33.399 76.840, 30.397 76.548, 29.595 77.846 C 29.308 78.311, 28.866 82.051, 28.615 86.156 C 28.363 90.262, 27.582 96.404, 26.879 99.805 C 25.687 105.578, 25.738 106.173, 27.650 108.745 C 30.337 112.359, 35.251 112.930, 39.113 110.075 C 42.938 107.247, 45.390 107.324, 44.710 110.250 C 41.679 123.284, 41.615 123.831, 42.933 125.419 C 44.900 127.789, 47.150 127.294, 50.652 123.718 C 53.198 121.119, 54.307 118.479, 56.414 110 C 59.712 96.730, 61.188 94.599, 67.364 94.195 C 73.528 93.791, 75.426 91.123, 74.805 83.738 C 74.209 76.658, 72.200 72.888, 67.750 70.500 C 62.535 67.702, 60.730 69.024, 60.491 75.817 C 60.278 81.894, 59.393 83.258, 57.418 80.557 C 56.074 78.719, 55.458 74.200, 55.879 69.268 C 56.134 66.286, 53.318 61, 51.474 61 C 49.461 61, 49.617 58.639, 51.750 56.809 C 54.257 54.659, 61.905 51.285, 66 50.523 C 67.925 50.165, 70.969 49.120, 72.765 48.201 C 76.984 46.040, 79.202 47.327, 80.348 52.598 C 80.815 54.744, 81.617 57.306, 82.132 58.291 C 82.647 59.276, 82.860 60.418, 82.606 60.828 C 82.352 61.239, 82.040 66.283, 81.912 72.038 C 81.516 89.860, 77.004 115.874, 73.164 122.468 C 70.945 126.279, 68.104 126.713, 62.652 124.074 C 57.523 121.591, 56.635 121.530, 54.960 123.548 C 52.993 125.918, 56.088 131.764, 59.721 132.543 C 61.250 132.871, 64.315 133.782, 66.533 134.569 C 73.441 137.019, 76.326 136.488, 80.358 132.025 C 84.300 127.662, 85.501 124.402, 84.704 120.232 C 84.417 118.730, 84.770 116.376, 85.489 115 C 87.305 111.526, 89.036 101.173, 89.585 90.500 C 89.840 85.550, 90.485 79.925, 91.019 78 C 92.637 72.163, 92.257 46.823, 90.499 43.299 C 88.355 39.001, 84.396 34.999, 82.298 35.008 C 76.492 35.032, 67.483 37.434, 61.713 40.497 C 58.082 42.423, 54.594 44, 53.962 44 C 53.128 44, 53.007 41.417, 53.519 34.584 L 54.225 25.168 51.162 23.584 C 47.537 21.709, 45.383 21.571, 44.407 23.150 M 121.372 40.765 C 120.752 41.169, 119.934 43.525, 119.554 46 C 118.919 50.143, 113.985 66.822, 112.011 71.500 C 111.547 72.600, 110.942 74.400, 110.668 75.500 C 110.393 76.600, 109.231 79.969, 108.084 82.986 C 106.938 86.003, 106 89.390, 106 90.513 C 106 91.635, 104.228 94.913, 102.061 97.795 C 99.895 100.678, 97.833 103.950, 97.479 105.067 C 96.662 107.639, 98.580 110, 101.488 110 C 104.337 110, 109 106.380, 109 104.168 C 109 102.329, 112.574 99.619, 113.910 100.444 C 114.366 100.726, 115.063 105.129, 115.460 110.228 C 115.857 115.328, 116.625 120.037, 117.166 120.693 C 118.392 122.180, 116.505 157.427, 114.478 170.897 C 113.700 176.065, 113.261 180.613, 113.502 181.004 C 113.744 181.395, 113.475 184.366, 112.905 187.607 C 110.364 202.045, 106.791 233.875, 106.576 244 C 106.433 250.696, 107.424 252.172, 111.815 251.806 L 115.500 251.500 115.757 245.500 C 116.184 235.562, 116.526 234.820, 120.358 235.539 C 122.999 236.035, 124.271 235.643, 126.723 233.579 C 128.409 232.161, 130.456 231, 131.272 231 C 132.088 231, 134.273 230.379, 136.128 229.621 C 137.983 228.862, 142.156 227.921, 145.403 227.530 C 148.649 227.138, 152.249 226.456, 153.403 226.013 C 160.438 223.313, 163.954 222.717, 165.462 223.969 C 166.382 224.732, 167.886 224.951, 169.245 224.520 C 172.617 223.448, 195.967 222.920, 197.859 223.872 C 198.761 224.326, 203.292 224.354, 207.927 223.933 C 214.098 223.373, 218.249 223.568, 223.427 224.661 C 234.084 226.911, 242.742 227.459, 244.507 225.994 C 246.998 223.927, 246.322 219.169, 243.077 215.923 C 240.465 213.311, 239.428 212.982, 233.327 212.833 C 229.572 212.742, 224.700 212.580, 222.500 212.474 C 220.300 212.369, 204.447 212.192, 187.272 212.081 C 166.815 211.950, 155.821 211.519, 155.397 210.834 C 155.041 210.258, 155.255 208.147, 155.873 206.143 C 156.490 204.140, 157.363 192.883, 157.812 181.129 L 158.629 159.758 164.214 154.629 C 172.283 147.218, 175.750 144.798, 179.331 144.074 C 181.985 143.537, 182.723 142.734, 183.870 139.136 C 187.166 128.799, 176.885 130.828, 163.225 143.212 C 160.874 145.343, 158.511 146.816, 157.975 146.485 C 157.439 146.153, 157 142.514, 157 138.398 L 157 130.914 161.750 125.732 C 164.363 122.882, 167.030 119.977, 167.679 119.275 C 168.327 118.574, 169.255 118, 169.741 118 C 170.228 118, 171.925 116.644, 173.513 114.987 C 178.276 110.015, 176.992 102, 171.433 102 C 169.887 102, 167.671 103.672, 164.805 107 C 160.295 112.237, 157 113.498, 157 109.986 C 157 107.962, 157.238 107.334, 160.362 101.114 C 161.948 97.957, 161.951 97.603, 160.403 95.893 C 158.840 94.166, 158.932 93.842, 161.949 90.406 C 163.712 88.397, 165.606 85.797, 166.156 84.627 C 166.707 83.457, 168.579 81.594, 170.317 80.487 C 174.037 78.117, 174.638 76.072, 172.827 71.944 C 170.462 66.556, 167.858 67.020, 159.527 74.314 C 155.423 77.908, 150.813 81.590, 149.283 82.497 C 147.752 83.404, 145.258 85.878, 143.741 87.996 C 142.052 90.352, 139.862 92.091, 138.095 92.479 C 136.507 92.828, 134.412 93.993, 133.439 95.067 C 131.740 96.944, 131.763 97.119, 134.010 99.510 C 136.693 102.367, 141.515 102.834, 144.559 100.532 C 146.707 98.907, 150 98.509, 150 99.874 C 150 100.355, 149.325 102.662, 148.500 105 C 147.675 107.338, 147 112.515, 147 116.504 C 147 123.475, 146.893 123.802, 144.250 124.892 C 142.738 125.516, 139.475 126.368, 137 126.786 C 132.634 127.522, 132.490 127.662, 132.177 131.482 C 131.677 137.583, 136.102 139.760, 142.364 136.494 C 147.818 133.650, 148 133.967, 148 146.320 C 148 157.041, 147.872 157.750, 145.585 159.739 C 144.257 160.893, 142.148 162.385, 140.898 163.054 C 139.649 163.723, 137.717 165.117, 136.606 166.152 C 135.495 167.188, 132.914 168.485, 130.870 169.035 C 126.733 170.149, 125.833 171.531, 127.314 174.500 C 127.862 175.600, 128.624 177.175, 129.006 178 C 130.228 180.636, 134.399 180.329, 137.342 177.386 C 141.054 173.673, 146.142 170, 147.571 170 C 148.966 170, 148.675 196.836, 147.206 203.625 C 145.472 211.645, 141.355 215.658, 131.500 218.936 C 127.650 220.217, 123.436 221.925, 122.134 222.731 C 120.151 223.961, 119.559 223.980, 118.472 222.849 C 117.455 221.791, 117.380 219.452, 118.125 212 C 118.646 206.775, 119.507 200.581, 120.037 198.236 C 120.567 195.890, 121 192.432, 121 190.551 C 121 188.669, 121.396 186.088, 121.880 184.815 C 122.364 183.542, 123.061 177.325, 123.428 171 C 123.795 164.675, 124.499 156.800, 124.992 153.500 C 126.167 145.638, 126.532 121.698, 125.638 111.224 C 124.825 101.715, 124.088 99.402, 119.886 93.175 C 115.945 87.336, 116.353 84.369, 123.150 69.434 C 124.167 67.198, 125 64.706, 125 63.896 C 125 62.121, 128.401 52.266, 129.336 51.330 C 129.701 50.965, 130 49.167, 130 47.333 C 130 42.119, 125.063 38.360, 121.372 40.765 M 149.635 54.073 C 146.635 56.432, 146.164 60.361, 148.482 63.671 C 149.298 64.835, 149.860 67.460, 149.732 69.503 C 149.567 72.153, 150.011 73.546, 151.282 74.359 C 152.778 75.317, 153.554 74.941, 156.115 72.020 C 162.313 64.949, 163.041 59.495, 158.449 54.540 C 155.593 51.458, 153.125 51.327, 149.635 54.073 M 29.543 130.250 C 29.139 131.530, 28.652 134.194, 26.986 144.224 C 25.698 151.977, 20.872 163.100, 15.265 171.240 C 13.469 173.847, 12 176.581, 12 177.315 C 12 178.050, 10.933 179.654, 9.629 180.879 C 8.325 182.104, 6.441 184.623, 5.443 186.477 C 3.930 189.285, 3.846 190.109, 4.936 191.423 C 6.957 193.858, 10.547 193.299, 13.802 190.044 C 16.612 187.234, 18.269 184.641, 23.100 175.500 C 26.331 169.386, 34.437 163.381, 40.312 162.749 C 43.278 162.430, 45.989 161.420, 47.377 160.116 C 48.615 158.952, 50.517 158, 51.603 158 C 52.689 158, 55.242 157.151, 57.278 156.113 C 59.313 155.076, 62.671 153.910, 64.739 153.524 C 66.808 153.137, 69.023 152.389, 69.663 151.861 C 70.422 151.233, 72.035 151.406, 74.313 152.357 C 76.970 153.468, 77.981 154.610, 78.558 157.157 C 79.558 161.573, 79.234 180.329, 78.011 188.784 C 77.477 192.478, 77.031 197.698, 77.020 200.384 C 77.009 203.070, 76.579 206.895, 76.065 208.884 C 75.550 210.873, 74.382 215.949, 73.468 220.166 C 71.845 227.653, 69.309 232, 66.565 232 C 64.893 232, 59 225.438, 59 223.576 C 59 222.831, 58.185 221.215, 57.188 219.984 C 55.839 218.317, 54.802 217.928, 53.127 218.460 C 51.214 219.067, 50.975 219.644, 51.527 222.337 C 52.477 226.976, 55.693 233.371, 58.259 235.721 C 59.491 236.850, 62.382 238.719, 64.682 239.873 C 66.982 241.027, 69.146 242.428, 69.491 242.986 C 70.554 244.706, 73.549 244.111, 75.715 241.750 C 78.893 238.284, 82.054 231.075, 83.059 225 C 83.560 221.975, 84.469 217.250, 85.079 214.500 C 85.689 211.750, 86.579 206.350, 87.056 202.500 C 87.533 198.650, 88.126 193.925, 88.373 192 C 88.621 190.075, 89.153 181.886, 89.556 173.803 C 90.421 156.482, 89.542 152.003, 84.129 146.140 C 79.174 140.773, 72.427 139.790, 62.368 142.970 C 55.439 145.161, 43.790 150.446, 38.790 153.668 C 37.300 154.628, 35.867 155.201, 35.606 154.939 C 35.345 154.678, 36.014 151.176, 37.092 147.156 C 39.216 139.236, 38.728 134.567, 35.393 130.882 C 33.456 128.742, 30.132 128.383, 29.543 130.250 M 45.897 166.883 C 43.831 168.555, 43.707 169.062, 44.786 171.430 C 45.454 172.895, 46 177.410, 46 181.462 L 46 188.830 41.116 192.415 C 34.391 197.352, 32.793 197.210, 33.621 191.750 C 33.976 189.412, 34.881 186.790, 35.633 185.921 C 36.385 185.053, 37 183.111, 37 181.606 C 37 180.100, 37.494 177.946, 38.098 176.818 C 39.509 174.181, 37.533 172.011, 33.449 171.712 C 30.853 171.523, 30.254 172.085, 27.818 177 C 22.548 187.629, 20.724 201.939, 24.276 204.776 C 24.949 205.314, 28.013 206.057, 31.085 206.428 C 35.505 206.962, 36.938 206.779, 37.957 205.551 C 39.617 203.551, 42 203.552, 42 205.553 C 42 208.164, 38.977 221.391, 37.958 223.236 C 37.431 224.191, 37 225.871, 37 226.969 C 37 228.673, 33.555 236.636, 27.174 249.683 C 25.924 252.239, 25.848 253.370, 26.787 255.433 C 28.080 258.270, 28.697 258.446, 32.407 257.035 C 33.943 256.451, 35.219 254.972, 35.640 253.285 C 36.023 251.753, 38.060 247.680, 40.168 244.232 C 42.276 240.785, 44 237.099, 44 236.041 C 44 234.984, 44.424 233.856, 44.942 233.536 C 45.460 233.215, 46.177 230.826, 46.534 228.227 C 47.255 222.978, 48.983 217.007, 50.204 215.550 C 50.642 215.028, 51 213.395, 51 211.922 C 51 210.450, 51.629 208.723, 52.399 208.084 C 53.168 207.446, 54.039 205.253, 54.334 203.212 C 55.564 194.702, 56.716 190.346, 58.423 187.750 C 60.615 184.414, 62.199 184.257, 63.513 187.244 C 64.853 190.292, 67.092 190.502, 70.409 187.893 C 72.662 186.121, 73.093 185.124, 72.698 182.605 C 71.574 175.441, 68.265 169.486, 63.797 166.586 C 61.233 164.922, 60.944 164.920, 58.170 166.559 C 55.450 168.165, 55.083 168.171, 52.901 166.643 C 49.892 164.536, 48.746 164.575, 45.897 166.883" stroke="none" fill="black" fill-rule="evenodd"/>
</svg>