<svg xmlns="http://www.w3.org/2000/svg" width="300" height="300" viewBox="0 0 300 300" version="1.1">
	<path d="M 132.437 29.102 C 132.062 29.708, 132.037 34.996, 132.381 40.852 C 133.171 54.319, 131.620 68.778, 128.019 81.500 C 127.396 83.700, 126.456 87.203, 125.931 89.284 C 125.405 91.365, 124.577 93.840, 124.090 94.784 C 120.682 101.394, 119.743 104.986, 121.021 106.525 C 123.417 109.412, 126.570 107.910, 128.421 103 C 128.733 102.175, 129.376 100.825, 129.852 100 C 132.454 95.484, 134 92.024, 134 90.718 C 134 89.908, 134.722 88.646, 135.604 87.914 C 136.486 87.181, 137.600 85.551, 138.079 84.291 C 138.676 82.722, 139.762 82, 141.524 82 C 142.939 82, 145.959 81.100, 148.236 80 C 150.513 78.900, 152.693 78, 153.081 78 C 153.469 78, 158.734 74.671, 164.782 70.603 C 177.642 61.951, 179.125 61.329, 181.145 63.736 C 184.761 68.046, 186.539 74.856, 188.131 90.500 C 188.635 95.450, 189.503 104, 190.062 109.500 C 190.620 115, 191.227 122.425, 191.411 126 C 191.678 131.173, 190.639 162.679, 189.681 178.486 C 189.443 182.418, 186.845 182.880, 182.703 179.727 C 177.998 176.146, 158.458 166, 156.266 166 C 155.230 166, 153.568 165.404, 152.572 164.676 C 150.991 163.520, 150.852 162.453, 151.475 156.251 L 152.188 149.149 158.844 145.643 C 170.768 139.363, 175.621 131.900, 168.245 131.187 C 165.910 130.961, 163.395 131.868, 159.233 134.437 C 156.058 136.397, 153.132 138, 152.730 138 C 152.329 138, 152 135.812, 152 133.138 C 152 129.212, 152.594 127.526, 155.084 124.388 C 156.781 122.249, 158.806 120.140, 159.584 119.700 C 160.363 119.260, 161 118.389, 161 117.765 C 161 117.140, 161.966 115.601, 163.147 114.344 C 165.157 112.204, 165.203 111.818, 163.861 108.279 C 161.616 102.357, 158.389 102.589, 152.708 109.084 C 147.183 115.400, 145 115.278, 145 108.654 C 145 103.923, 143.317 101.604, 140.298 102.175 C 138.836 102.451, 138.309 104.103, 137.481 111.007 L 136.463 119.500 132.299 119.190 C 128.970 118.942, 127.920 119.280, 127.067 120.874 C 124.173 126.282, 127.750 132.700, 133.065 131.637 C 136.772 130.896, 137.637 132.434, 135.336 135.676 C 134.326 137.100, 133.050 139.020, 132.500 139.943 C 131.950 140.866, 128.959 144.473, 125.854 147.958 C 119.870 154.673, 117 155.486, 117 150.466 C 117 147.259, 115.340 143.997, 113.715 144.010 C 113.047 144.015, 110.524 145.590, 108.109 147.510 C 105.694 149.429, 103.119 151, 102.385 151 C 101.652 151, 97.482 152.800, 93.119 155 C 88.756 157.200, 84.187 159, 82.966 159 C 80.901 159, 80.787 158.667, 81.334 154.250 C 82.998 140.833, 83.258 139.877, 85.676 138.292 C 87.674 136.983, 88.040 135.992, 87.854 132.393 C 87.707 129.555, 88.185 127.453, 89.243 126.283 C 91.297 124.013, 95 115.427, 95 112.933 C 95 111.887, 93.687 109.562, 92.082 107.766 C 89.420 104.787, 88.651 104.499, 83.332 104.493 L 77.500 104.487 77 100.571 C 76.590 97.357, 75.990 96.487, 73.652 95.712 C 69.630 94.379, 67.782 96.585, 67.217 103.396 C 66.777 108.697, 66.561 109.050, 61.131 113.321 C 57.174 116.433, 54.311 119.866, 51.500 124.872 C 49.300 128.790, 47.163 131.996, 46.751 131.998 C 46.339 131.999, 44.176 130.228, 41.944 128.062 C 33.712 120.073, 25.073 118.049, 22.957 123.613 C 21.515 127.406, 24.617 131.044, 32.676 135.012 C 36.397 136.844, 41.389 140.262, 43.769 142.608 C 46.148 144.954, 49.086 147.014, 50.298 147.187 C 52.031 147.433, 52.507 148.177, 52.535 150.683 C 52.573 154.172, 55.388 158, 57.915 158 C 59.507 158, 62.892 155.203, 66.240 151.121 C 69.179 147.539, 70 148.620, 70 156.066 C 70 163.144, 68.884 167, 66.836 167 C 66.234 167, 61.637 168.946, 56.621 171.324 C 47.062 175.856, 29.488 182, 26.084 182 C 24.990 182, 23.060 182.398, 21.797 182.885 C 20.534 183.372, 16.800 184.546, 13.500 185.493 C 4.171 188.171, 1.672 191.672, 6 196 C 8.053 198.053, 13.430 198.732, 14.458 197.067 C 14.775 196.554, 17.494 195.624, 20.500 195 C 23.506 194.376, 26.225 193.446, 26.542 192.933 C 26.859 192.420, 28.831 192, 30.924 192 C 33.195 192, 35.739 191.206, 37.231 190.033 C 38.607 188.951, 40 188.333, 40.328 188.661 C 40.655 188.988, 42.960 188.299, 45.451 187.128 C 47.941 185.958, 50.584 185, 51.324 185 C 52.064 185, 55.951 183.403, 59.962 181.451 C 63.972 179.499, 67.984 178.043, 68.877 178.216 C 70.340 178.498, 70.480 181.767, 70.300 211.369 C 70.085 246.605, 70.621 251.110, 75.194 252.562 C 79.363 253.885, 79.500 252.627, 79.500 213.017 L 79.500 175.134 82.437 172.067 C 84.052 170.380, 85.852 168.985, 86.437 168.966 C 87.022 168.947, 89.300 168.063, 91.500 167 C 93.700 165.937, 95.954 165.053, 96.508 165.034 C 97.062 165.015, 99.537 163.930, 102.008 162.623 C 104.479 161.315, 107.931 159.936, 109.681 159.559 C 111.430 159.181, 113.398 158.225, 114.053 157.436 C 115.918 155.189, 117.546 155.716, 120.432 159.500 C 124.119 164.334, 127.468 164.057, 134.327 158.351 C 137.458 155.747, 140.787 155.281, 141.576 157.336 C 141.873 158.113, 137.915 162.884, 132.127 168.725 C 126.649 174.253, 121.040 180.515, 119.665 182.638 C 117.414 186.113, 110.259 193.677, 102.020 201.291 C 98.372 204.662, 98.266 205.962, 101.402 208.908 C 105.109 212.390, 107.689 211.295, 114.433 203.378 C 117.770 199.461, 121.542 195.657, 122.815 194.925 C 124.088 194.192, 127.558 190.422, 130.527 186.546 C 139.342 175.039, 139.675 174.681, 140.863 175.415 C 142.349 176.334, 142.416 208.508, 140.940 212.741 C 140.090 215.180, 140.238 216.525, 141.690 219.550 C 144.366 225.124, 146.590 226.111, 149.345 222.945 C 151.380 220.607, 151.546 219.507, 151.313 209.945 C 151.172 204.200, 150.979 198.375, 150.882 197 C 150.786 195.625, 150.866 190.125, 151.059 184.778 C 151.441 174.239, 152.283 172.776, 156.072 176.062 C 157.301 177.128, 158.735 178, 159.259 178 C 159.783 178, 161.548 179.125, 163.182 180.500 C 164.816 181.875, 166.759 183, 167.500 183 C 168.241 183, 170.173 184.116, 171.794 185.480 C 173.415 186.844, 176.712 188.815, 179.121 189.860 C 181.529 190.904, 184.544 192.889, 185.821 194.270 C 187.999 196.626, 188.076 197.136, 187.071 202.574 C 186.482 205.760, 186 209.846, 186 211.653 C 186 213.460, 184.557 219.242, 182.794 224.502 C 178.934 236.017, 177.381 237.008, 171.102 231.962 C 168.286 229.699, 165.955 228.701, 163.294 228.618 C 159.613 228.504, 159.491 228.611, 159.192 232.218 C 158.897 235.770, 159.112 236.059, 164.040 238.718 C 166.876 240.248, 170.840 242.591, 172.848 243.925 C 179.773 248.525, 186.108 246.540, 189.971 238.560 C 192.348 233.650, 193.387 228.544, 195.480 211.500 C 196.223 205.450, 196.869 200.387, 196.915 200.250 C 197.181 199.465, 200.845 200.202, 202.527 201.379 C 205.894 203.733, 212.086 207.180, 223 212.778 C 228.775 215.740, 233.928 218.577, 234.450 219.082 C 234.973 219.587, 236.380 220, 237.578 220 C 238.775 220, 240.315 220.675, 241 221.500 C 242.499 223.306, 245.156 223.444, 246.800 221.800 C 248.128 220.472, 248.452 216, 247.219 216 C 246.790 216, 245.929 214.650, 245.306 213 C 244.453 210.739, 243.541 210, 241.605 210 C 237.619 210, 215.976 199.205, 211.464 194.966 C 210.313 193.885, 208.820 193, 208.146 193 C 207.472 193, 205.182 192.113, 203.058 191.030 C 199.563 189.247, 199.131 188.585, 198.510 184.076 C 198.133 181.335, 198.161 178.549, 198.571 177.885 C 199.391 176.559, 201.008 153.315, 200.999 143 C 200.988 130.910, 199.958 108.512, 199.321 106.500 C 198.973 105.400, 198.354 99.325, 197.945 93 C 197.090 79.783, 195.411 69.011, 193.984 67.584 C 193.443 67.043, 193 65.622, 193 64.426 C 193 63.230, 191.818 60.138, 190.374 57.553 C 187.829 53, 185.635 51.484, 179.931 50.338 C 176.271 49.603, 167.546 53.796, 160.680 59.590 C 158.783 61.190, 154.745 63.995, 151.706 65.821 C 148.667 67.648, 145.396 70.010, 144.436 71.071 C 141.628 74.173, 140 73.486, 140 69.200 C 140 67.110, 140.501 64.899, 141.114 64.286 C 141.727 63.673, 142.576 58.364, 143.001 52.488 C 143.799 41.462, 142.659 32.704, 140.012 29.515 C 138.556 27.761, 133.438 27.482, 132.437 29.102 M 88.098 36 C 84.671 38.750, 81.233 41, 80.457 41 C 79.681 41, 78.294 39.852, 77.375 38.450 C 75.962 36.294, 75.070 35.946, 71.602 36.200 L 67.500 36.500 67.721 41.780 C 67.934 46.889, 67.830 47.113, 64.519 48.693 C 61.708 50.033, 60.819 50.095, 59.548 49.040 C 58.697 48.333, 58 46.941, 58 45.946 C 58 43.511, 52.523 39.699, 50.120 40.462 C 47.721 41.223, 46.747 45.975, 48.159 50.027 C 48.774 51.791, 48.868 53.474, 48.374 53.892 C 47.124 54.950, 40.546 57.484, 33.011 59.809 C 25.088 62.254, 23.447 64.241, 27 67.087 C 31.849 70.972, 33.935 71.276, 39.432 68.895 C 46.051 66.030, 50.473 65.056, 52.148 66.094 C 53.178 66.731, 53.500 70.210, 53.500 80.684 C 53.500 94.347, 53.517 94.447, 56 95.717 C 59.310 97.411, 63.691 96.443, 68 93.067 C 69.925 91.559, 72.545 89.768, 73.822 89.089 C 75.997 87.931, 76.101 87.457, 75.471 81.572 C 74.955 76.752, 75.171 74.571, 76.399 72.195 C 77.280 70.492, 78 66.768, 78 63.918 C 78 60.468, 78.674 57.646, 80.016 55.475 C 82.125 52.062, 88.073 47, 89.974 47 C 90.583 47, 92.300 46.165, 93.790 45.143 C 95.281 44.122, 97.737 42.537, 99.250 41.620 C 104.070 38.700, 101.956 31, 96.335 31 C 95.231 31, 91.524 33.250, 88.098 36 M 64.153 59.605 C 62.103 61.041, 61.875 61.964, 61.989 68.355 C 62.060 72.285, 61.978 76.611, 61.809 77.969 C 61.387 81.339, 64.637 82.019, 65.882 78.821 C 67.570 74.486, 70.190 60.937, 69.625 59.465 C 68.894 57.560, 67.005 57.608, 64.153 59.605 M 79.667 116.667 C 78.379 117.955, 78.984 122, 80.465 122 C 81.922 122, 84 119.099, 84 117.066 C 84 115.899, 80.735 115.598, 79.667 116.667 M 64.419 124.137 C 58.129 128.859, 53 134.476, 53 136.643 C 53 137.868, 53.439 140.024, 53.975 141.435 C 55.141 144.501, 58.724 144.905, 59.782 142.090 C 60.177 141.039, 62.660 138.281, 65.300 135.961 C 69.860 131.953, 70.084 131.516, 69.800 127.200 C 69.445 121.816, 68.345 121.190, 64.419 124.137" stroke="none" fill="black" fill-rule="evenodd"/>
</svg>