<svg xmlns="http://www.w3.org/2000/svg" width="300" height="300" viewBox="0 0 300 300" version="1.1">
	<path d="M 97.667 42.667 C 96.642 43.692, 96.877 47.806, 98 48.500 C 98.550 48.840, 99 49.971, 99 51.015 C 99 52.058, 100.125 54.569, 101.500 56.595 C 103.663 59.783, 104 61.382, 104 68.465 C 104 75.668, 103.730 76.902, 101.750 78.742 C 99.181 81.130, 83.385 87.522, 77.704 88.473 C 72.705 89.309, 70.912 92.691, 73.431 96.535 C 74.992 98.917, 75.518 99.084, 79.323 98.395 C 88.447 96.743, 88.433 96.735, 89.068 104 C 89.380 107.575, 90.165 111.759, 90.811 113.297 C 91.458 114.836, 92.058 119.900, 92.144 124.550 C 92.251 130.261, 92.740 133.369, 93.651 134.125 C 96.230 136.266, 95.143 138.792, 90.750 140.864 C 86.458 142.888, 72.683 147.299, 52.500 153.111 C 33.547 158.568, 32.088 159.470, 34.013 164.534 C 35.402 168.186, 37.538 168.562, 43.871 166.268 C 57.333 161.390, 70.393 156.911, 82.500 153.019 C 89.650 150.720, 97.750 147.767, 100.500 146.456 C 110.653 141.617, 145.160 134.976, 160.059 134.993 C 166.879 135.001, 169.294 133.477, 168.836 129.451 C 168.533 126.788, 168.060 126.436, 164 125.844 C 158.846 125.093, 131.423 127.509, 127.296 129.077 C 125.784 129.652, 121.386 130.782, 117.523 131.587 C 113.660 132.393, 109.713 133.295, 108.750 133.593 C 106.133 134.403, 106.579 131.882, 109.852 127.363 C 112.491 123.720, 113.875 121.021, 116.859 113.703 C 117.487 112.165, 118 108.738, 118 106.089 C 118 103.440, 118.446 98.924, 118.990 96.052 C 120.151 89.931, 119.182 87.335, 115.380 86.381 C 113.521 85.914, 112.247 86.309, 110.736 87.820 C 108.865 89.691, 108.773 90.298, 109.827 93.817 C 111.366 98.954, 111.259 102.922, 109.500 106 C 108.714 107.375, 108.055 109.595, 108.035 110.933 C 107.988 114.159, 104.138 125.119, 102.412 126.940 C 100.337 129.131, 99.864 127.885, 99.333 118.827 C 99.064 114.247, 98.465 109.375, 98.002 108 C 97.538 106.625, 96.887 102.477, 96.555 98.783 L 95.951 92.066 99.894 90.054 C 105.346 87.273, 113 82.023, 113 81.065 C 113 80.629, 115.138 79.474, 117.750 78.499 C 123.385 76.396, 126 74.326, 126 71.967 C 126 69.180, 123.381 67.697, 119.759 68.433 C 111.554 70.102, 111.879 70.374, 111.492 61.500 C 111.057 51.486, 109.119 46.586, 105.032 45.161 C 103.364 44.580, 102 43.631, 102 43.052 C 102 41.895, 98.729 41.604, 97.667 42.667 M 107.500 168.203 C 106.400 168.831, 102.662 171.742, 99.193 174.672 C 95.724 177.602, 92.258 180, 91.490 180 C 90.240 180, 88.222 176.572, 86.650 171.780 C 86.011 169.832, 81.827 168.469, 79.376 169.409 C 78.029 169.926, 77.866 170.940, 78.433 175.267 C 78.811 178.145, 79.768 181.497, 80.560 182.715 C 81.352 183.933, 82 186.100, 82 187.531 C 82 188.961, 82.428 190.931, 82.951 191.909 C 83.991 193.852, 84.963 215.198, 85.312 243.798 C 85.494 258.702, 85.811 262.269, 87.018 263.032 C 92.477 266.484, 93.238 262.376, 93.914 225.798 C 94.346 202.430, 94.829 193.768, 95.750 192.848 C 96.438 192.162, 97 190.855, 97 189.945 C 97 189.035, 99.448 185.975, 102.440 183.145 C 106.403 179.397, 108.664 178, 110.766 178 C 113.932 178, 118 181.551, 118 184.314 C 118 185.242, 118.391 186, 118.870 186 C 120.112 186, 121.002 195.276, 119.890 196.625 C 119.380 197.244, 117.129 198.043, 114.889 198.402 C 109.520 199.260, 103.692 202.304, 101.095 205.607 C 98.627 208.744, 98.366 213.229, 100.546 215.038 C 101.830 216.104, 102.550 215.964, 104.796 214.210 C 106.283 213.049, 110.394 210.712, 113.932 209.017 C 122.828 204.754, 123.243 205.278, 123.581 221.196 C 123.725 227.963, 124.138 234.255, 124.500 235.177 C 125.843 238.599, 124.626 241.399, 121.500 242.079 C 119.850 242.437, 115.119 244.479, 110.986 246.616 C 106.854 248.752, 102.354 250.950, 100.986 251.500 C 95.903 253.545, 98.215 260, 104.031 260 C 105.620 260, 110.359 258.156, 114.563 255.902 C 121.291 252.296, 122.726 251.882, 126.532 252.452 C 130.378 253.029, 131.221 252.774, 134.166 250.143 L 137.477 247.185 135.489 244.990 C 133.654 242.965, 133.459 240.926, 132.967 218.648 C 132.453 195.391, 132.048 192.145, 128.866 185.764 C 128.390 184.809, 127.967 183.234, 127.927 182.264 C 127.887 181.294, 126.991 179.150, 125.938 177.500 C 124.884 175.850, 123.528 173.562, 122.925 172.415 C 120.489 167.780, 112.204 165.517, 107.500 168.203" stroke="none" fill="black" fill-rule="evenodd"/>
</svg>