<svg xmlns="http://www.w3.org/2000/svg" width="300" height="300" viewBox="0 0 300 300" version="1.1">
	<path d="M 94.031 10.467 C 92.181 12.437, 91.714 14.055, 91.714 18.508 C 91.714 24.661, 91.171 25.261, 83.548 27.521 C 78.589 28.991, 77.211 30.973, 78.770 34.395 C 80.336 37.832, 83.968 38.584, 88.534 36.417 C 92.845 34.371, 95.357 35.306, 95.746 39.102 C 95.881 40.421, 96.521 44.571, 97.170 48.323 L 98.349 55.147 95.424 57.538 C 93.816 58.852, 91.825 59.955, 91 59.987 C 90.175 60.020, 87.250 61.274, 84.500 62.773 C 81.080 64.638, 79.397 66.228, 79.173 67.805 C 78.354 73.585, 84.706 74.626, 93.278 70.117 C 100.151 66.501, 101.526 67.142, 100.648 73.550 C 100.290 76.162, 99.465 78.939, 98.815 79.723 C 98.164 80.507, 97.130 83.922, 96.517 87.313 C 95.315 93.960, 95.903 93.387, 85.580 97.960 C 79.707 100.561, 76.012 101.783, 61.500 105.924 C 38.507 112.484, 35 114.037, 35 117.655 C 35 121.210, 36.762 124, 39.008 124 C 40.074 124, 42.871 123.163, 45.223 122.140 C 50.597 119.802, 60.553 116.430, 69 114.087 C 72.575 113.095, 77.300 111.505, 79.500 110.553 C 81.700 109.600, 85.300 108.228, 87.500 107.503 C 93.219 105.619, 107.030 99.370, 108.314 98.086 C 108.911 97.489, 109.969 97, 110.665 97 C 111.360 97, 113.858 95.937, 116.215 94.638 C 118.572 93.339, 122.975 91.477, 126 90.501 C 129.025 89.525, 133.122 87.912, 135.105 86.917 C 139.703 84.609, 148.489 83.365, 149.431 84.888 C 150.242 86.200, 154.299 86.351, 156.764 85.162 C 157.719 84.701, 159.850 83.675, 161.500 82.881 C 165.185 81.107, 166.046 76.820, 163.325 73.793 C 161.688 71.972, 160.624 71.813, 153 72.247 C 141.621 72.894, 124.412 78.074, 115.500 83.536 C 105.629 89.585, 104.729 89.383, 107.972 81.844 C 109.793 77.612, 110.097 75.570, 109.583 71.029 C 108.875 64.769, 109.791 63.146, 116.313 59.115 C 120.560 56.491, 121.231 54.961, 119.860 51.028 C 118.592 47.390, 116.132 47.103, 112.055 50.118 C 108.422 52.803, 107 51.915, 107 46.961 C 107 44.805, 106.289 41.264, 105.421 39.094 C 102.824 32.603, 103.587 31.221, 111.500 28.090 C 118.859 25.178, 125 20.191, 125 17.127 C 125 15.116, 122.031 12, 120.116 12 C 119.441 12, 115.921 13.575, 112.294 15.500 C 108.667 17.425, 104.897 19, 103.917 19 C 101.927 19, 100.636 16.113, 101.555 13.718 C 102.134 12.208, 98.911 8, 97.174 8 C 96.720 8, 95.306 9.110, 94.031 10.467 M 108.203 117.180 C 100.504 122.523, 96 127.918, 96 131.798 C 96 134.850, 94.275 138, 92.604 138 C 91.753 138, 91.059 136.148, 90.666 132.827 C 89.940 126.700, 89.178 125.735, 85.411 126.172 C 81.146 126.666, 80.487 131.573, 82.971 144.340 C 84.058 149.928, 84.865 155.175, 84.765 156 C 84.664 156.825, 84.943 159.572, 85.383 162.104 C 86.312 167.450, 84.497 190.606, 82.450 199.500 C 79.567 212.034, 75.757 224.825, 73.859 228.346 C 73.117 229.721, 73.302 230.677, 74.587 232.096 C 76.741 234.477, 79.213 234.527, 81.290 232.232 C 83.533 229.753, 86.952 221.943, 86.978 219.236 C 86.990 217.991, 87.420 216.191, 87.934 215.236 C 88.447 214.281, 89.454 211.334, 90.170 208.687 C 91.252 204.694, 92.242 203.379, 95.987 200.964 C 98.469 199.363, 100.999 197.632, 101.609 197.119 C 102.219 196.605, 104.694 195.180, 107.109 193.952 C 111.706 191.614, 114.139 189.902, 121.497 183.826 C 126.478 179.712, 129.736 178.336, 131.149 179.749 C 131.671 180.271, 132.296 184.478, 132.540 189.099 C 132.783 193.719, 133.423 201.775, 133.963 207 C 134.502 212.225, 134.844 223.925, 134.722 233 C 134.476 251.311, 133.965 252.467, 129.240 245.406 C 124.322 238.058, 118.154 231.727, 116.522 232.353 C 114.335 233.193, 114.640 236.263, 117.500 242.192 C 118.875 245.042, 120 247.776, 120 248.267 C 120 250.188, 134.320 268, 135.862 267.996 C 136.763 267.994, 138.963 267.101, 140.750 266.011 C 144.492 263.729, 144.166 266.646, 144.439 233 C 144.535 221.175, 144.259 207.450, 143.824 202.500 C 143.390 197.550, 142.347 184.500, 141.505 173.500 C 140.664 162.500, 139.561 152.600, 139.054 151.500 C 138.547 150.400, 137.846 146.920, 137.496 143.766 C 137.146 140.612, 136.442 137.773, 135.930 137.457 C 135.419 137.141, 135 135.865, 135 134.622 C 135 126.916, 127.448 114, 122.943 114 C 121.939 114, 120.840 113.550, 120.500 113 C 119.222 110.932, 115.273 112.274, 108.203 117.180 M 112.732 127.536 C 110.679 128.931, 109 130.459, 109 130.932 C 109 131.405, 106.750 133.235, 104 135 C 101.073 136.878, 99 138.947, 99 139.989 C 99 140.969, 97.873 142.508, 96.496 143.411 C 94.249 144.883, 94 145.692, 94.073 151.276 C 94.118 154.699, 94.375 158.287, 94.645 159.250 C 95.317 161.652, 97.648 161.443, 100.352 158.739 C 101.595 157.496, 104.387 155.753, 106.556 154.866 C 117.116 150.547, 121.938 148.927, 124.833 148.723 C 128.504 148.464, 128.498 148.493, 126.403 141.688 C 122.701 129.659, 120.237 125, 117.577 125 C 116.965 125, 114.785 126.141, 112.732 127.536 M 121.667 160.600 C 119.559 161.371, 116.871 162.677, 115.695 163.501 C 114.518 164.326, 112.643 165.002, 111.527 165.004 C 110.412 165.007, 107.184 166.765, 104.353 168.911 C 101.522 171.058, 98.372 172.973, 97.353 173.167 C 95.878 173.449, 95.324 174.893, 94.636 180.241 C 93.433 189.588, 93.946 190.539, 98.714 187.801 C 100.796 186.606, 104.140 184.361, 106.144 182.814 C 108.148 181.266, 110.068 180, 110.410 180 C 110.752 180, 113.808 177.980, 117.201 175.510 C 120.595 173.041, 124.884 170.737, 126.734 170.390 C 130.082 169.762, 130.095 169.738, 129.798 164.630 C 129.457 158.758, 128.285 158.178, 121.667 160.600" stroke="none" fill="black" fill-rule="evenodd"/>
</svg>