<svg xmlns="http://www.w3.org/2000/svg" width="300" height="300" viewBox="0 0 300 300" version="1.1">
	<path d="M 69.035 26.934 C 68.466 27.998, 68 30.923, 68 33.434 C 68 36.717, 67.600 38, 66.577 38 C 65.794 38, 63.769 39.165, 62.077 40.589 C 59.627 42.650, 59 43.959, 59 47.007 C 59 53.837, 60.687 55.462, 64.989 52.775 C 68.236 50.747, 69.295 52.911, 67.519 57.945 C 66.684 60.314, 66 63.175, 66 64.305 C 66 66.388, 64.362 72.266, 63.020 74.998 C 62.615 75.822, 60.533 76.984, 58.392 77.581 C 55.088 78.502, 54.362 79.212, 53.586 82.282 C 52.935 84.858, 53.027 86.327, 53.905 87.386 C 55.861 89.743, 60.574 90.337, 63.714 88.622 C 66.605 87.044, 69.981 85.388, 78.514 81.364 C 81.272 80.064, 84.743 79, 86.227 79 C 90.128 79, 99.221 72.431, 101.334 68.087 C 104.304 61.980, 102.289 59.910, 95.319 61.909 C 91.227 63.082, 90.591 62.335, 93.035 59.229 C 95.256 56.405, 98 47.985, 98 43.993 C 98 39.535, 94.162 36.950, 86.398 36.178 C 79.592 35.501, 79.577 35.493, 78.869 32.024 C 77.654 26.069, 71.268 22.763, 69.035 26.934 M 162.046 48.108 C 157.050 52.624, 150.698 57.083, 144 60.777 C 137.703 64.250, 136 65.943, 136 68.726 C 136 72.494, 138.364 74.210, 142.489 73.436 C 144.432 73.072, 146.276 72.363, 146.585 71.862 C 146.895 71.360, 150.153 69.405, 153.824 67.517 C 163.429 62.577, 173.417 54.141, 173.825 50.623 C 174.212 47.289, 171.585 43.982, 168.595 44.041 C 167.443 44.064, 164.496 45.894, 162.046 48.108 M 78.946 51.250 C 77.833 53.038, 76.659 55.737, 76.336 57.250 C 76.014 58.763, 75.356 60, 74.875 60 C 73.781 60, 73.715 63.706, 74.798 64.375 C 76.091 65.175, 77.746 63.709, 81.481 58.456 C 85.518 52.778, 86.205 48, 82.985 48 C 81.794 48, 80.143 49.329, 78.946 51.250 M 181.863 83.309 C 180.861 84.072, 179.814 87.260, 179.164 91.527 C 177.351 103.433, 175.971 110.187, 174.966 112.064 C 173.713 114.404, 173.724 118.712, 174.985 119.490 C 175.526 119.825, 176.844 118.614, 177.913 116.799 C 178.982 114.985, 180.516 112.825, 181.321 112 C 183.426 109.844, 185.868 103.667, 188.177 94.663 L 190.186 86.827 187.919 84.413 C 185.377 81.708, 184.240 81.501, 181.863 83.309 M 153.361 88.502 C 152.590 90.511, 153.616 94.405, 156.578 100.715 C 158.422 104.644, 160.136 106.581, 163.525 108.568 C 168.610 111.548, 171 111.226, 171 107.562 C 171 101.575, 160.633 87, 156.375 87 C 155.034 87, 153.678 87.676, 153.361 88.502 M 80.142 100.621 C 77.744 101.948, 73.477 105.052, 70.659 107.517 C 64.934 112.526, 64.200 112.743, 61.439 110.250 C 59.379 108.391, 53.395 106, 50.801 106 C 48.017 106, 46.999 108.381, 47.793 113.035 C 48.493 117.136, 48.793 117.471, 52.442 118.230 C 57.317 119.242, 58.385 120.135, 62.589 126.707 C 64.451 129.618, 66.586 132, 67.333 132 C 68.079 132, 69.523 132.920, 70.541 134.046 C 71.937 135.588, 73.381 136.018, 76.415 135.796 C 80.750 135.477, 81.775 136.826, 80.620 141.329 C 79.300 146.476, 60.648 153.742, 51.777 152.565 C 46.138 151.817, 44 152.936, 44 156.637 C 44 160.182, 49.383 163.226, 54.250 162.434 C 58.488 161.745, 58.896 162.591, 56.062 166.194 C 54.996 167.549, 53.822 169.860, 53.454 171.329 C 53.085 172.798, 52.388 174, 51.905 174 C 51.422 174, 50.411 175.463, 49.658 177.250 C 48.905 179.037, 46.199 182.816, 43.644 185.647 C 40.785 188.816, 39 191.735, 39 193.242 C 39 197.981, 45.217 200.853, 48.061 197.427 C 49.566 195.613, 56.312 192, 58.194 192 C 58.895 192, 61.725 190.912, 64.484 189.582 C 69.536 187.146, 79.469 183.998, 82.088 184.002 C 83.176 184.004, 83.607 186.244, 83.964 193.752 C 84.615 207.452, 84.270 252.395, 83.462 259 C 82.882 263.746, 83.088 264.877, 84.968 267.250 C 87.392 270.311, 90.106 270.783, 92.021 268.475 C 93.630 266.536, 93.679 194.524, 92.073 192.588 C 89.500 189.487, 93.931 177, 97.605 177 C 99.962 177, 107.752 171.058, 108.339 168.812 C 109.682 163.677, 105.048 162.616, 98.938 166.660 C 96.526 168.256, 94.556 168.955, 94.011 168.410 C 93.512 167.909, 92.996 164.125, 92.866 160 C 92.636 152.740, 92.746 152.346, 96.314 147.673 C 100.286 142.472, 100.533 141.532, 98.992 137.479 C 98.066 135.044, 97.661 134.882, 94.031 135.495 C 89.760 136.216, 90.094 136.627, 88.530 128.737 C 88.198 127.060, 90.532 122.163, 94.167 116.909 C 95.780 114.579, 96.447 110.474, 96.145 104.735 C 96.042 102.774, 95.055 101.394, 92.750 99.989 C 88.600 97.459, 85.577 97.610, 80.142 100.621 M 131.726 101.607 C 130.758 102.576, 132.147 112.351, 133.488 114 C 135.727 116.754, 138 122.278, 138 124.965 C 138 128.676, 141.516 132.192, 144.843 131.807 C 147.153 131.540, 147.542 130.984, 147.823 127.545 C 148.364 120.910, 143.972 108.284, 139.199 102.750 C 137.751 101.071, 132.991 100.343, 131.726 101.607 M 78.418 113.858 C 72.271 117.133, 70.146 119.385, 69.818 122.970 C 69.235 129.335, 72.507 127.699, 83.143 116.308 C 85.185 114.121, 84.947 111.903, 82.691 112.108 C 82.036 112.168, 80.113 112.955, 78.418 113.858 M 193.965 138.494 C 191.471 139.749, 188.942 141.389, 188.346 142.138 C 187.002 143.824, 184.643 150.976, 185.234 151.568 C 186.269 152.603, 195.318 150.050, 197.337 148.153 C 203.249 142.599, 207.419 151.155, 207.470 168.945 L 207.500 179.390 203.111 179.688 C 197.328 180.081, 187.363 184.908, 183.056 189.402 C 180.013 192.577, 179.728 193.315, 180.604 195.748 C 181.435 198.052, 182.135 198.474, 184.907 198.341 C 187.034 198.238, 189.340 197.133, 191.359 195.248 C 196.123 190.799, 201.375 188, 204.962 188 L 208.187 188 207.654 197.750 C 207.047 208.849, 206.269 214.613, 204.990 217.500 C 204.502 218.600, 203.960 220.400, 203.784 221.500 C 203.494 223.321, 202.660 223.507, 194.483 223.582 C 189.542 223.626, 181.450 224.388, 176.500 225.274 C 171.550 226.159, 163.450 227.194, 158.500 227.573 C 153.088 227.987, 147.930 229.007, 145.562 230.131 C 143.396 231.159, 141.104 232, 140.467 232 C 138.814 232, 136 235.356, 136 237.329 C 136 238.248, 136.861 239.861, 137.914 240.914 C 139.526 242.526, 140.433 242.680, 143.664 241.892 C 155.896 238.909, 166.567 236.842, 174.500 235.921 C 188.018 234.351, 210.991 233.884, 214.750 235.102 C 219.377 236.601, 225 234.678, 225 231.597 C 225 228.614, 221.025 225, 217.745 225 C 214.469 225, 213.722 223.862, 214.923 220.703 C 215.438 219.347, 215.958 213.571, 216.078 207.869 C 216.198 202.166, 216.711 196.683, 217.218 195.684 C 218.590 192.983, 218.447 170.076, 216.980 157.500 C 215.773 147.150, 215.489 146.264, 212.170 142.500 C 205.868 135.351, 201.930 134.485, 193.965 138.494 M 151.500 142.455 C 148.750 144.895, 144.475 147.893, 142 149.116 C 139.525 150.340, 135.747 152.826, 133.605 154.641 C 131.462 156.456, 128.087 158.463, 126.105 159.101 C 124.122 159.739, 121.938 160.707, 121.250 161.253 C 119.161 162.911, 119.814 166.648, 122.500 168.408 C 124.738 169.875, 125 170.720, 125 176.484 C 125 180.025, 125.882 186.703, 126.959 191.324 C 128.466 197.789, 128.896 203.096, 128.824 214.348 C 128.728 229.506, 129.313 232, 132.967 232 C 133.915 232, 135.521 231.082, 136.536 229.960 C 138.068 228.268, 138.416 226.025, 138.580 216.778 C 138.740 207.847, 139.099 205.401, 140.390 204.457 C 141.275 203.809, 142 202.317, 142 201.140 C 142 199.963, 142.468 199, 143.040 199 C 144.717 199, 150 194.737, 150 193.385 C 150 192.703, 151.683 190.759, 153.739 189.064 C 156.870 186.483, 157.294 185.698, 156.348 184.241 C 155.718 183.269, 154.144 182.572, 152.787 182.664 C 150.457 182.821, 141.685 188.082, 140.467 190.053 C 139.059 192.331, 137.246 190.576, 135.236 184.988 C 134.046 181.681, 133.309 178.358, 133.598 177.604 C 133.888 176.850, 133.404 174.509, 132.523 172.401 C 130.966 168.675, 130.985 168.519, 133.211 166.806 C 134.470 165.837, 136.025 165.034, 136.667 165.022 C 137.308 165.010, 137.983 164.659, 138.167 164.243 C 138.578 163.308, 146.575 157, 147.348 157 C 148.470 157, 161.378 146.905, 162.737 144.965 C 163.506 143.867, 163.992 141.964, 163.818 140.735 C 163.566 138.966, 162.771 138.450, 160 138.260 C 157.104 138.061, 155.637 138.785, 151.500 142.455 M 73.506 157.336 C 71.120 158.635, 68.629 161.120, 67.320 163.506 C 62.693 171.941, 62 173.334, 62 174.194 C 62 174.682, 61.019 176.407, 59.821 178.028 C 58.623 179.649, 57.945 181.278, 58.315 181.648 C 58.685 182.018, 62.028 181.161, 65.744 179.744 C 69.460 178.326, 74.205 176.582, 76.290 175.868 C 78.374 175.154, 80.703 173.879, 81.464 173.035 C 82.653 171.717, 83.409 164.092, 83.079 156.750 C 82.969 154.318, 78.551 154.589, 73.506 157.336" stroke="none" fill="black" fill-rule="evenodd"/>
</svg>