<svg xmlns="http://www.w3.org/2000/svg" width="300" height="300" viewBox="0 0 300 300" version="1.1">
	<path d="M 144.809 44.750 C 141.235 48.582, 140.333 50.682, 139.543 57 C 138.512 65.246, 138.111 66.157, 135.664 65.808 C 133.701 65.529, 133.454 64.756, 133 57.500 C 132.435 48.466, 132.068 47.604, 127.860 45.428 C 125.126 44.014, 124.624 44.017, 122.424 45.458 C 120.365 46.807, 120 47.842, 120 52.332 C 120 55.431, 120.607 58.421, 121.468 59.559 C 122.276 60.626, 122.951 62.936, 122.968 64.691 C 122.986 66.446, 123.450 68.160, 124 68.500 C 124.597 68.869, 125.018 75.643, 125.044 85.309 C 125.068 94.214, 125.551 103.525, 126.117 106 C 126.684 108.475, 127.271 122.306, 127.421 136.735 L 127.694 162.971 125.347 164.508 C 121.343 167.132, 122.937 174, 127.551 174 C 129.961 174, 133.571 171.941, 148.853 161.854 C 152.897 159.184, 156.776 157, 157.472 157 C 158.169 157, 161.079 155.137, 163.940 152.859 L 169.140 148.718 168.611 130.109 C 167.733 99.224, 165.943 66.689, 164.942 63.429 C 164.424 61.740, 164 58.954, 164 57.238 C 164 55.522, 163.550 53.840, 163 53.500 C 162.450 53.160, 162 51.765, 162 50.400 C 162 49.036, 161.015 46.587, 159.812 44.960 C 157.882 42.350, 157.018 42, 152.499 42 C 148.197 42, 146.963 42.441, 144.809 44.750 M 149.284 55.250 C 148.756 55.938, 146.643 59.313, 144.590 62.750 C 141.491 67.936, 140.398 69, 138.172 69 C 134.517 69, 132.225 73.871, 133.750 78.396 C 134.326 80.103, 134.845 86.384, 134.903 92.354 C 134.962 98.323, 135.259 103.611, 135.564 104.104 C 136.482 105.589, 138 105.113, 138 103.341 C 138 100.957, 145.200 91.762, 148.410 90.046 C 151.958 88.150, 154.391 89.604, 154.815 93.875 C 155.086 96.607, 154.338 97.808, 149.431 102.524 C 145.312 106.481, 142.960 108, 140.949 108 C 139.419 108, 137.960 107.438, 137.708 106.750 C 137.375 105.841, 136.931 105.798, 136.082 106.593 C 135.323 107.303, 135.017 110.593, 135.207 115.988 C 135.617 127.617, 136.980 128.298, 144.555 120.662 C 147.687 117.505, 151.865 114.248, 153.840 113.422 C 155.814 112.597, 157.776 111.377, 158.200 110.711 C 159.590 108.523, 159.083 86.738, 157.500 80.661 C 156.675 77.494, 155.993 72.337, 155.985 69.201 C 155.966 62.132, 153.333 54, 151.063 54 C 150.613 54, 149.813 54.563, 149.284 55.250 M 79.500 64.661 C 77.300 65.518, 72.290 67.511, 68.366 69.090 C 64.442 70.669, 56.117 72.911, 49.866 74.071 C 43.615 75.232, 37.825 76.542, 37 76.982 C 35.243 77.918, 35.328 82.486, 37.144 84.673 C 38.029 85.740, 39.553 86.019, 42.443 85.643 C 53.635 84.188, 58 83.798, 58 84.252 C 58 84.526, 56.875 87.295, 55.500 90.404 C 54.125 93.513, 53 97.368, 53 98.969 C 53 100.571, 52.550 102.160, 52 102.500 C 51.450 102.840, 51 104.576, 51 106.359 C 51 108.142, 50.503 110.097, 49.896 110.704 C 48.483 112.117, 45.947 125.256, 46.894 126.255 C 47.840 127.253, 53.201 121.955, 54.895 118.348 C 55.631 116.781, 56.631 114.719, 57.117 113.764 C 57.603 112.809, 58 111.176, 58 110.136 C 58 109.096, 58.675 107.685, 59.500 107 C 60.354 106.291, 61 104.111, 61 101.937 C 61 99.836, 61.450 97.840, 62 97.500 C 62.550 97.160, 63 96.022, 63 94.972 C 63 93.921, 63.937 91.264, 65.082 89.068 C 66.227 86.871, 66.858 84.579, 66.484 83.974 C 65.752 82.789, 68.665 79, 70.308 79 C 72.159 79, 82.480 73.791, 84.750 71.712 C 87.211 69.458, 87.683 66.083, 85.800 64.200 C 84.342 62.742, 84.447 62.734, 79.500 64.661 M 149.622 127.586 C 146.389 130.028, 142.564 132.272, 141.122 132.573 C 135.604 133.723, 135.519 133.921, 135.218 146.357 C 134.970 156.604, 135.134 158, 136.579 158 C 137.483 158, 142.110 155.720, 146.861 152.933 C 151.613 150.146, 156.175 147.510, 157 147.076 C 158.176 146.457, 158.561 143.768, 158.782 134.643 C 159.116 120.825, 158.848 120.618, 149.622 127.586 M 59 124.938 C 54.514 126.312, 42.256 134.887, 39.273 138.738 C 35.691 143.360, 31.786 151.656, 32.196 153.770 C 32.814 156.954, 35.149 156.024, 40.486 150.471 C 43.581 147.249, 46.542 144.994, 47.297 145.284 C 49.496 146.128, 50.998 155.488, 51.904 174 C 52.740 191.063, 52.708 191.559, 50.631 193.845 C 48.508 196.181, 43.903 199, 42.208 199 C 41.113 199, 39 192.210, 39 188.693 C 39 187.277, 38.550 185.840, 38 185.500 C 37.450 185.160, 37 183.820, 37 182.522 C 37 181.224, 36.359 178.888, 35.575 177.331 C 34.792 175.774, 33.609 172.475, 32.946 170 C 31.117 163.171, 28.803 156.996, 27.852 156.408 C 27.383 156.119, 27 155.002, 27 153.927 C 27 152.852, 26.616 151.191, 26.147 150.236 C 25.678 149.281, 24.463 146.700, 23.447 144.500 C 20.786 138.740, 19.051 137, 15.967 137 C 10.539 137, 10.182 140.979, 14.867 149.280 C 16.040 151.360, 17 153.506, 17 154.050 C 17 154.594, 18.125 156.822, 19.500 159 C 20.875 161.178, 22 163.843, 22 164.921 C 22 166, 22.450 167.160, 23 167.500 C 23.550 167.840, 24.014 169.329, 24.032 170.809 C 24.049 172.289, 24.724 174.374, 25.532 175.441 C 26.339 176.509, 27 178.620, 27 180.132 C 27 181.645, 27.450 183.160, 28 183.500 C 28.550 183.840, 29 185.355, 29 186.868 C 29 188.380, 29.661 190.491, 30.468 191.559 C 31.276 192.626, 31.951 194.486, 31.968 195.691 C 31.986 196.896, 32.450 198.160, 33 198.500 C 33.550 198.840, 34 200.240, 34 201.611 C 34 203.495, 34.751 204.366, 37.071 205.175 C 38.767 205.766, 40.548 207.310, 41.047 208.623 C 41.987 211.095, 46.263 212.001, 47.505 209.991 C 48.131 208.980, 60.395 199.036, 62.759 197.623 C 65.049 196.255, 68 197.966, 68 200.663 C 68 204.292, 71.329 208.897, 77.827 214.256 C 83.742 219.134, 88.436 217.157, 90.962 208.724 C 91.659 206.401, 92.559 203.600, 92.964 202.500 C 93.369 201.400, 94.279 198.925, 94.985 197 C 95.692 195.075, 96.480 191.700, 96.737 189.500 C 96.994 187.300, 97.609 185.073, 98.102 184.550 C 98.596 184.028, 99 182.310, 99 180.734 C 99 179.158, 99.508 176.918, 100.130 175.757 C 101.487 173.222, 102.898 164.376, 103.664 153.606 C 104.196 146.112, 103.210 139.824, 100.901 136 C 100.403 135.175, 99.594 133.600, 99.104 132.500 C 98.613 131.400, 97.028 129.398, 95.580 128.052 C 93.241 125.875, 91.702 125.522, 81.724 124.871 C 67.619 123.952, 62.167 123.968, 59 124.938 M 60.750 135.068 C 57.019 137.038, 56.147 138.738, 57.940 140.550 C 58.457 141.072, 59.020 143.715, 59.190 146.422 C 59.547 152.095, 60.663 152.897, 64.070 149.931 C 65.407 148.768, 67.499 147.070, 68.720 146.158 C 70.711 144.671, 70.877 143.907, 70.330 138.750 C 69.758 133.359, 69.557 133.003, 67.110 133.044 C 65.675 133.069, 62.813 133.979, 60.750 135.068 M 79.917 133.415 C 79.688 133.643, 79.822 137.806, 80.215 142.665 C 81.144 154.150, 81.163 156.611, 80.419 168.161 C 79.832 177.280, 79.915 177.884, 81.899 178.946 C 85.206 180.716, 84.418 182.982, 78.500 188.714 C 75.475 191.644, 73 194.829, 73 195.793 C 73 196.756, 74.403 199.246, 76.117 201.326 C 79.980 206.012, 83.321 206.088, 83.838 201.500 C 84.025 199.850, 84.649 197.929, 85.226 197.232 C 86.312 195.919, 87.801 190.092, 88.608 184 C 88.863 182.075, 89.694 178.250, 90.456 175.500 C 93.357 165.020, 94 160.684, 94 151.600 C 94 141.014, 92.862 137.810, 88.064 134.893 C 85.224 133.166, 80.946 132.390, 79.917 133.415 M 233.992 158.510 C 233.044 159.652, 233.023 160.641, 233.900 162.758 C 234.529 164.276, 235.485 168.889, 236.026 173.009 C 236.566 177.129, 237.481 182.975, 238.058 186 C 238.635 189.025, 239.481 194.875, 239.936 199 C 240.392 203.125, 241.342 210.903, 242.047 216.285 C 242.993 223.503, 243.036 226.364, 242.210 227.190 C 240.212 229.188, 222.799 232.938, 210.500 234.019 C 180.046 236.695, 177.326 236.834, 172.667 235.948 C 165.388 234.564, 162.665 232.924, 161.963 229.500 C 161.624 227.850, 160.819 225.517, 160.174 224.316 C 159.388 222.854, 159 215.556, 159 202.240 C 159 182.741, 158.954 182.306, 156.686 180.174 C 153.962 177.616, 151.738 177.405, 149.968 179.538 C 148.974 180.736, 148.845 185.518, 149.382 201.159 C 150.414 231.155, 151.765 235.951, 160.826 241.759 L 166.500 245.396 181.500 245.248 C 196.013 245.104, 208.599 243.860, 229.500 240.504 C 251.160 237.026, 253.696 235.282, 253.221 224.197 C 253.070 220.678, 252.284 216.516, 251.473 214.949 C 250.663 213.382, 250 209.629, 250 206.609 C 250 203.589, 249.550 200.840, 249 200.500 C 248.450 200.160, 248 198.135, 248 196 C 248 193.865, 247.613 191.879, 247.140 191.586 C 246.666 191.294, 245.991 188.950, 245.638 186.378 C 245.286 183.806, 244.605 181.206, 244.124 180.601 C 243.644 179.995, 242.990 178.150, 242.670 176.500 C 242.351 174.850, 241.699 171.475, 241.223 169 C 240.338 164.410, 237.730 158.569, 236.120 157.574 C 235.629 157.271, 234.671 157.692, 233.992 158.510 M 67.945 159.566 C 67.230 160.427, 65.375 161.789, 63.823 162.592 C 60.982 164.061, 59.925 167.013, 62.250 166.985 C 62.938 166.977, 65.300 166.347, 67.500 165.585 C 70.872 164.417, 71.549 163.713, 71.813 161.100 C 72.163 157.642, 70.191 156.860, 67.945 159.566 M 64.241 179.777 C 60.829 182.628, 59.907 186, 62.540 186 C 63.387 186, 65.862 185.091, 68.040 183.980 C 71.046 182.446, 72 181.362, 72 179.480 C 72 176.080, 68.506 176.214, 64.241 179.777 M 126.526 188.950 C 125.687 190.573, 125 192.796, 125 193.891 C 125 194.986, 124.550 196.160, 124 196.500 C 123.450 196.840, 123 197.936, 123 198.937 C 123 199.937, 122.325 201.315, 121.500 202 C 120.675 202.685, 120 204.081, 120 205.103 C 120 206.125, 118.524 209.332, 116.720 212.231 C 114.916 215.129, 112.809 218.748, 112.039 220.272 C 111.268 221.797, 108.470 225.172, 105.820 227.772 C 103.171 230.373, 101.002 232.984, 101.001 233.576 C 100.999 235.226, 105.415 239, 107.348 239 C 109.003 239, 114.999 233.685, 115.001 232.216 C 115.002 231.822, 116.176 230.150, 117.610 228.500 C 121.616 223.891, 127.998 214.265, 128.015 212.805 C 128.030 211.512, 129.637 206.817, 131.714 202 C 134.501 195.536, 135.327 191.014, 134.182 188.499 C 132.532 184.879, 128.509 185.116, 126.526 188.950" stroke="none" fill="black" fill-rule="evenodd"/>
</svg>