<svg xmlns="http://www.w3.org/2000/svg" width="300" height="300" viewBox="0 0 300 300" version="1.1">
	<path d="M 155.500 29 C 155.160 29.550, 153.766 30, 152.401 30 C 151.037 30, 148.156 30.900, 146 32 C 143.844 33.100, 141.512 34, 140.818 34 C 137.821 34, 119.776 40.420, 119.302 41.655 C 118.442 43.895, 121.649 47.680, 124.969 48.344 C 126.708 48.692, 129.847 48.354, 132.104 47.576 C 137.028 45.880, 137.536 46.646, 136.008 53.463 C 133.233 65.845, 128.466 77.321, 124.601 80.924 C 122.381 82.994, 122 84.193, 122 89.115 C 122 92.287, 122.383 95.118, 122.850 95.407 C 124.470 96.408, 126.174 113.550, 125.742 124.500 C 123.442 182.779, 123.082 178.137, 130 179.322 C 131.925 179.652, 134.454 180.202, 135.621 180.544 C 137.137 180.988, 138.743 180.286, 141.253 178.083 C 143.184 176.387, 145.047 175, 145.392 175 C 145.738 175, 148.332 173.375, 151.158 171.389 C 155.621 168.252, 156.414 167.989, 157.198 169.389 C 158.444 171.617, 164.257 171.478, 166.345 169.171 C 167.255 168.165, 168 166.392, 168 165.230 C 168 164.069, 168.450 162.840, 169 162.500 C 170.300 161.697, 170.336 119.571, 169.043 112.060 C 168.517 109.002, 167.650 103.800, 167.118 100.500 C 165.073 87.825, 162.621 81.539, 157.657 76.250 C 153.710 72.044, 150.887 72.094, 143.570 76.500 C 140.373 78.425, 137.587 80, 137.379 80 C 136.393 80, 137.255 77.154, 140 71.344 C 141.650 67.852, 143 64.336, 143 63.531 C 143 62.726, 143.621 60.590, 144.380 58.784 C 145.139 56.978, 146.312 53.700, 146.986 51.500 C 149.592 43, 154.071 38.790, 162.890 36.551 C 166.792 35.561, 167.549 34.968, 167.816 32.691 C 168.067 30.561, 167.585 29.793, 165.501 29 C 162.111 27.712, 156.296 27.711, 155.500 29 M 81.500 49 C 79.424 50.650, 77.371 52, 76.939 52 C 76.507 52, 74.730 50.802, 72.989 49.338 C 70.360 47.125, 69.376 46.832, 67.163 47.606 C 65.096 48.328, 64.427 49.298, 64.174 51.941 C 63.828 55.545, 65.607 59.979, 67.419 60.031 C 69.954 60.105, 71.978 65.156, 73.070 74.134 C 74.695 87.501, 78.750 92.362, 83.594 86.750 C 91.025 78.142, 95.098 69.654, 95.935 61.032 C 96.952 50.570, 96.373 48.982, 90.954 47.362 C 85.214 45.646, 85.862 45.534, 81.500 49 M 25.566 49.893 C 24.246 52.029, 26.334 58.591, 29.630 62.668 C 31.483 64.961, 33 67.479, 33 68.265 C 33 69.050, 33.725 71.145, 34.610 72.920 C 35.563 74.830, 35.989 77.304, 35.654 78.978 C 35.297 80.764, 35.818 83.318, 37.068 85.904 C 39.266 90.454, 41.965 91.192, 46.846 88.578 C 48.306 87.797, 50.291 86.909, 51.259 86.607 C 52.226 86.304, 53.512 84.806, 54.116 83.278 C 54.721 81.750, 55.617 79.719, 56.108 78.764 C 56.598 77.809, 57 76.450, 57 75.746 C 57 75.041, 58.200 72.699, 59.666 70.541 C 62.212 66.795, 62.280 66.366, 61.173 61.088 C 59.883 54.939, 56.831 51.117, 52.986 50.833 C 51.619 50.733, 47.875 51.904, 44.666 53.437 L 38.833 56.224 36.166 53.152 C 33.347 49.904, 26.803 47.892, 25.566 49.893 M 82.054 59.435 C 81.399 60.224, 81.007 62.361, 81.182 64.185 C 81.426 66.727, 81.966 67.500, 83.500 67.500 C 84.874 67.500, 85.608 66.718, 85.846 65 C 86.036 63.625, 86.637 61.957, 87.182 61.294 C 87.727 60.630, 87.882 59.618, 87.527 59.044 C 86.595 57.536, 83.443 57.762, 82.054 59.435 M 46.250 62.745 C 43.265 64.231, 43 64.751, 43 69.122 C 43 71.740, 43.423 74.143, 43.940 74.463 C 45.458 75.401, 51.720 69.244, 52.295 66.249 C 52.782 63.712, 51.612 60.913, 50.128 61.064 C 49.782 61.099, 48.038 61.856, 46.250 62.745 M 141.807 91.400 C 138.205 94.717, 137.245 96.220, 137.675 97.866 C 137.984 99.046, 137.620 100.752, 136.868 101.658 C 135.960 102.752, 135.452 106.363, 135.356 112.403 C 135.276 117.406, 134.885 125.338, 134.486 130.028 C 133.873 137.235, 134.010 138.763, 135.367 139.890 C 137.907 141.997, 141.029 140.551, 149.042 133.556 C 153.144 129.976, 157.287 127.036, 158.250 127.023 C 159.680 127.004, 160 126.086, 160 122 C 160 118.728, 159.568 116.960, 158.750 116.885 C 155.567 116.592, 153.376 117.407, 149.951 120.160 C 147.002 122.529, 145.459 123.071, 142.374 122.818 C 139.032 122.544, 138.458 122.139, 138.195 119.868 C 137.813 116.568, 142.743 112.239, 151.750 107.967 C 155.188 106.337, 158 104.646, 158 104.211 C 158 102.450, 154.897 91.350, 153.818 89.250 C 151.892 85.501, 147.326 86.319, 141.807 91.400 M 59.674 101.617 C 53.986 105.530, 50.923 107, 48.460 107 C 43.705 107, 42.284 109.821, 45.183 113.505 C 47.091 115.931, 47.829 116.175, 52.033 115.771 C 54.624 115.522, 58.039 114.414, 59.622 113.309 C 61.205 112.204, 64.713 110.559, 67.417 109.653 C 73.448 107.635, 76 105.442, 76 102.279 C 76 94.282, 70.652 94.065, 59.674 101.617 M 63.035 123.463 C 61.763 124.817, 60.222 126.880, 59.611 128.046 C 58.183 130.774, 46.182 135.866, 39 136.793 C 34.368 137.390, 33.451 137.848, 33.188 139.692 C 33.017 140.896, 33.631 143.033, 34.553 144.441 C 35.927 146.537, 37.017 147, 40.581 147 C 42.974 147, 46.482 146.261, 48.375 145.358 C 53.673 142.832, 55.374 144.020, 54.529 149.658 C 54.146 152.208, 53.476 155.015, 53.039 155.897 C 48.359 165.338, 47.839 170.074, 51.223 172.443 C 54.242 174.558, 58.326 174.402, 60.417 172.091 C 62.935 169.309, 67.200 167.819, 71.610 168.182 C 75.181 168.476, 75.520 168.770, 76.046 172.034 C 76.359 173.978, 76.964 176.132, 77.390 176.822 C 77.816 177.512, 77.678 180.309, 77.083 183.038 C 76.487 185.767, 75.508 190.363, 74.907 193.250 C 73.488 200.066, 70.726 209.362, 69.931 210 C 69.588 210.275, 69.005 211.738, 68.635 213.250 C 68.265 214.762, 67.520 216, 66.981 216 C 66.441 216, 66 216.677, 66 217.504 C 66 219.443, 63.196 224.657, 59.862 228.917 C 55.930 233.941, 52.213 232.853, 42.644 223.876 C 33.593 215.387, 25.780 203.880, 15.975 184.599 C 13.740 180.204, 11.540 179.201, 9.059 181.447 C 6.439 183.817, 6.473 184.939, 9.286 189.110 C 10.544 190.975, 12.202 194.075, 12.972 196 C 14.145 198.933, 18.739 206.248, 28.672 221 C 31.968 225.894, 42.561 236.186, 46.292 238.119 C 48.377 239.199, 52.892 240.345, 56.326 240.666 L 62.570 241.249 67.285 235.924 C 69.878 232.995, 72 229.815, 72 228.858 C 72 227.901, 72.450 226.840, 73 226.500 C 73.550 226.160, 74 225.192, 74 224.349 C 74 223.505, 74.851 221.733, 75.892 220.411 C 76.932 219.088, 78.536 214.742, 79.456 210.753 C 80.377 206.764, 81.775 202.306, 82.565 200.846 C 83.354 199.386, 84 197.113, 84 195.796 C 84 194.478, 84.387 192.972, 84.859 192.450 C 86.098 191.079, 88 180.470, 88 174.926 C 88 171.737, 87.124 168.496, 85.324 165.026 C 81.449 157.558, 79.040 156, 71.365 156 C 65.421 156, 65.002 155.851, 65.035 153.750 C 65.101 149.526, 67.843 138.552, 68.923 138.192 C 69.515 137.995, 70 137.061, 70 136.117 C 70 135.172, 70.390 133.972, 70.868 133.450 C 71.345 132.928, 72.004 131.064, 72.331 129.308 C 72.835 126.605, 72.461 125.724, 69.887 123.558 C 66.148 120.412, 65.904 120.408, 63.035 123.463 M 153.845 142.833 C 151.835 144.850, 148.092 147.591, 145.527 148.925 C 140.962 151.299, 140.799 151.313, 137.841 149.565 C 134.137 147.377, 132.192 148.622, 134.010 152.019 C 134.858 153.603, 134.908 154.906, 134.184 156.496 C 133.622 157.730, 132.850 160.818, 132.469 163.358 C 131.910 167.084, 132.083 168.095, 133.363 168.586 C 135.021 169.222, 140.723 166.237, 145 162.494 C 146.375 161.290, 150.312 158.629, 153.749 156.581 C 157.708 154.221, 160.157 152.058, 160.433 150.678 C 161.802 143.825, 161.900 141.584, 160.881 140.357 C 159.197 138.327, 157.871 138.794, 153.845 142.833 M 123.941 211.197 C 120.022 217.428, 108.620 231.746, 105.602 234.228 C 104.446 235.178, 102.127 235.966, 100.450 235.978 C 94.920 236.018, 93.590 239.211, 97.068 244.096 C 99.533 247.557, 101.522 247.705, 107.544 244.874 C 111.735 242.904, 125 230.843, 125 229.002 C 125 228.555, 126.468 226.432, 128.263 224.284 C 130.057 222.136, 132.354 218.541, 133.367 216.294 C 134.982 212.715, 135.041 211.856, 133.847 209.355 C 132.953 207.479, 131.592 206.396, 129.881 206.197 C 127.690 205.942, 126.747 206.736, 123.941 211.197 M 154.110 209.367 C 153.257 210.395, 153.289 210.986, 154.238 211.746 C 156.695 213.716, 163.947 217, 165.838 217 C 166.892 217, 168.299 217.656, 168.965 218.457 C 169.937 219.629, 182.840 227.354, 186.354 228.868 C 190.369 230.598, 209.081 242.787, 214.735 247.355 C 221.593 252.896, 223 254.632, 223 257.548 C 223 258.310, 224.590 260.523, 226.533 262.467 C 230.143 266.077, 233.642 266.958, 235.800 264.800 C 237.254 263.346, 237.390 258.359, 236 257.500 C 235.450 257.160, 234.984 255.896, 234.964 254.691 C 234.921 252.067, 231.939 248.473, 226.500 244.490 C 220.751 240.280, 220.835 240.344, 217 237.203 C 215.075 235.627, 212.772 234.074, 211.883 233.751 C 210.993 233.428, 204.693 229.596, 197.883 225.233 C 191.072 220.871, 184.322 216.672, 182.883 215.901 C 181.443 215.131, 177.843 213.042, 174.883 211.259 C 170.160 208.416, 168.626 208.018, 162.372 208.009 C 157.554 208.003, 154.877 208.443, 154.110 209.367" stroke="none" fill="black" fill-rule="evenodd"/>
</svg>