<svg xmlns="http://www.w3.org/2000/svg" width="300" height="300" viewBox="0 0 300 300" version="1.1">
	<path d="M 152.569 44.182 C 151.507 44.798, 146.782 46.311, 142.069 47.543 C 137.356 48.776, 131.475 50.536, 129 51.455 C 122.703 53.794, 102.350 59, 99.504 59 C 94.644 59, 92.233 65.201, 95.406 69.540 C 96.766 71.401, 96.968 71.407, 101.656 69.732 C 106.774 67.902, 117.443 65, 119.049 65 C 120.281 65, 120.274 68.531, 119.039 70.764 C 118.510 71.719, 116.921 75.200, 115.508 78.500 C 114.094 81.800, 111.377 87.677, 109.469 91.559 C 107.561 95.442, 106 99.386, 106 100.323 C 106 101.927, 106.327 102.749, 109.128 108.191 C 112.358 114.466, 113.258 123.637, 113.379 151.500 C 113.500 179.475, 113.502 179.500, 115.682 179.811 C 119.327 180.330, 120.438 176.672, 121.243 161.500 C 121.651 153.800, 122.328 143.971, 122.747 139.657 C 123.167 135.344, 123.161 131.600, 122.736 131.337 C 122.310 131.074, 122.034 129.203, 122.122 127.179 C 122.210 125.156, 121.937 120.326, 121.516 116.447 L 120.749 109.395 127.095 103.652 C 135.230 96.291, 137.617 96.263, 140.204 103.500 C 142.870 110.958, 142.598 114.638, 139.250 116.376 C 137.738 117.161, 134.137 120.072, 131.250 122.845 C 127.162 126.772, 126 128.563, 126 130.944 C 126 133.550, 126.374 134, 128.539 134 C 129.936 134, 133.418 132.425, 136.276 130.500 C 143.200 125.837, 144.502 125.965, 145.881 131.443 C 147.374 137.370, 147.350 137.520, 144.714 138.721 C 143.457 139.293, 140.501 141.503, 138.146 143.631 C 135.790 145.759, 132.243 148.420, 130.263 149.544 C 128.282 150.669, 126.178 152.356, 125.586 153.294 C 124.093 155.662, 125.974 158.413, 129.363 158.818 C 131.807 159.109, 140.250 155.703, 144.114 152.866 C 145.002 152.215, 146.483 151.972, 147.406 152.326 C 148.815 152.866, 149.038 154.216, 148.792 160.721 L 148.500 168.472 145 169.043 C 143.075 169.357, 137.564 171.942, 132.753 174.787 C 127.942 177.633, 122.853 180.250, 121.445 180.603 C 120.037 180.956, 118.164 182.346, 117.283 183.691 C 115.760 186.016, 115.810 186.264, 118.305 188.760 L 120.929 191.384 127.715 188.625 C 131.447 187.108, 136.300 184.668, 138.500 183.204 C 147.402 177.278, 149.598 177, 148.514 181.936 C 147.251 187.688, 155.095 188.455, 156.534 182.720 C 158.014 176.822, 155.420 126.106, 153.477 122.963 C 153.035 122.248, 152.303 118.251, 151.849 114.082 C 150.065 97.676, 147.778 90.022, 144.067 88.036 C 137.439 84.488, 122.970 91.693, 120.543 99.750 C 120.144 101.073, 119.069 102, 117.933 102 C 115.054 102, 115.379 96.502, 118.500 92.411 C 119.875 90.608, 121 88.647, 121 88.053 C 121 87.057, 122.032 84.754, 124.162 81 C 124.630 80.175, 125.276 78.825, 125.597 78 C 126.959 74.504, 128.291 71.387, 129.117 69.764 C 129.603 68.809, 130.002 67.459, 130.005 66.764 C 130.018 63.417, 134.765 59.919, 143.248 57.005 C 148.060 55.352, 152.611 54, 153.363 54 C 155.764 54, 160 49.933, 160 47.627 C 160 43.467, 156.554 41.869, 152.569 44.182 M 42.565 98.160 L 40.504 99.820 42.714 103.660 C 44.912 107.481, 44.955 107.500, 51.299 107.500 C 55.123 107.500, 58.319 108.031, 59.283 108.827 C 61.549 110.698, 65.400 109.921, 65.857 107.500 C 66.064 106.400, 67.061 104.334, 68.072 102.909 C 69.750 100.544, 69.775 100.124, 68.364 98.109 C 66.903 96.023, 66.204 95.918, 55.721 96.201 C 47.208 96.430, 44.146 96.886, 42.565 98.160 M 60.500 131.140 C 59.400 131.760, 57.375 133.273, 56 134.501 C 54.625 135.730, 50.125 139.009, 46 141.787 C 41.875 144.566, 36.475 148.771, 34 151.131 C 29.236 155.674, 21.951 158.323, 16.944 157.333 C 15.290 157.006, 13.901 157.415, 13.008 158.490 C 11.822 159.919, 11.896 160.652, 13.534 163.692 C 14.582 165.639, 16.044 167.463, 16.783 167.747 C 17.522 168.031, 20.997 167.486, 24.505 166.536 C 28.013 165.587, 31.420 165.141, 32.076 165.547 C 32.925 166.072, 33.086 168.480, 32.635 173.892 C 31.789 184.038, 29.107 192.140, 23.495 201.500 C 20.045 207.254, 19.200 209.335, 19.738 210.750 C 21.293 214.835, 30.070 208.763, 33.969 200.905 C 35.636 197.544, 37 194.160, 37 193.384 C 37 192.608, 37.396 191.191, 37.879 190.236 C 40.772 184.524, 42.010 177.808, 42.005 167.849 L 42 157.198 45.250 155.114 C 50.010 152.062, 54.941 148.126, 61.942 141.791 C 67.166 137.064, 68.098 135.723, 67.825 133.337 C 67.574 131.147, 66.930 130.445, 65 130.257 C 63.625 130.123, 61.600 130.521, 60.500 131.140 M 56.705 150.250 C 55.183 151.385, 55.088 153.797, 55.678 176.414 C 56.275 199.304, 56.486 201.486, 58.281 203.281 C 63.224 208.224, 77.706 201.283, 82.864 191.500 C 84.314 188.750, 85.877 186.224, 86.337 185.887 C 86.798 185.550, 87.023 184.204, 86.837 182.897 C 86.231 178.623, 83.317 179.535, 77.395 185.853 C 71.341 192.313, 66.651 195.051, 64.802 193.202 C 64.108 192.508, 63.635 184.822, 63.492 171.893 C 63.290 153.620, 63.093 151.541, 61.443 150.335 C 59.195 148.691, 58.807 148.684, 56.705 150.250 M 115.646 222.452 C 114.191 223.801, 113 225.389, 113 225.982 C 113 227.399, 106.064 236.377, 100.774 241.809 C 94.605 248.142, 85.384 254, 81.586 254 C 78.029 254, 76 255.513, 76 258.165 C 76 262.292, 83.700 263.208, 90.290 259.864 C 96.261 256.834, 100.050 253.748, 110.455 243.439 C 122.510 231.496, 126.279 224.451, 122.250 221.392 C 119.756 219.499, 118.640 219.678, 115.646 222.452 M 155.667 228.667 C 155.300 229.033, 155 230.139, 155 231.124 C 155 232.382, 157.754 234.297, 164.250 237.556 C 182.228 246.575, 189.131 250.759, 197.990 258.010 C 201.020 260.490, 205.300 263.686, 207.500 265.112 C 209.700 266.537, 214.200 270.016, 217.500 272.843 C 220.800 275.670, 224.078 277.986, 224.785 277.991 C 227.132 278.007, 231 274.799, 231 272.837 C 231 270.374, 227.424 267.216, 218 261.353 C 213.875 258.787, 209.600 255.887, 208.500 254.909 C 204.815 251.632, 190.742 241.773, 186 239.147 C 170.972 230.824, 164.536 228, 160.594 228 C 158.251 228, 156.033 228.300, 155.667 228.667" stroke="none" fill="black" fill-rule="evenodd"/>
</svg>