<svg xmlns="http://www.w3.org/2000/svg" width="300" height="300" viewBox="0 0 300 300" version="1.1">
	<path d="M 165.500 25.192 C 158.265 27.554, 154.994 28.418, 147 30.075 C 142.325 31.045, 136.925 32.308, 135 32.883 C 133.075 33.458, 129.364 34.527, 126.754 35.260 C 120.546 37.003, 119.811 37.882, 120.186 43.114 C 120.467 47.045, 120.781 47.532, 123.206 47.812 C 124.744 47.990, 127.119 47.266, 128.706 46.136 C 131.640 44.049, 148.737 39.404, 149.752 40.419 C 150.076 40.743, 149.450 42.019, 148.361 43.254 C 145.249 46.785, 143.238 52.037, 140.990 62.500 C 139.132 71.145, 137.557 75.775, 134.227 82.377 C 130.375 90.013, 130.322 91.415, 133.031 114.500 C 134.683 128.577, 132.541 170.167, 129.903 175.236 C 129.407 176.191, 129 179.464, 129 182.508 C 129 187.510, 129.252 188.158, 131.622 189.237 C 133.992 190.317, 134.460 190.161, 136.496 187.607 C 138.535 185.050, 139.141 184.848, 142.885 185.481 C 147.264 186.220, 149.586 184.946, 156.978 177.750 C 160.330 174.486, 164 174.064, 164 176.943 C 164 179.257, 167.580 182, 170.600 182 C 175.015 182, 175.205 180.640, 174.477 154.299 C 174.100 140.660, 173.631 129.233, 173.434 128.907 C 173.237 128.581, 172.788 122.056, 172.435 114.407 C 172.082 106.758, 171.390 99.742, 170.897 98.816 C 170.404 97.889, 170 95.232, 170 92.911 C 170 89.280, 169.435 88.153, 165.958 84.845 C 158.612 77.857, 151.156 80.276, 146.992 91 C 144.999 96.133, 142.552 97.335, 141.624 93.637 C 141.217 92.018, 141.841 89.516, 143.442 86.337 C 146.483 80.301, 149 72.686, 149 69.524 C 149 68.201, 149.450 66.840, 150 66.500 C 150.550 66.160, 151 64.135, 151 62 C 151 59.865, 151.450 57.840, 152 57.500 C 152.550 57.160, 153.014 55.896, 153.032 54.691 C 153.049 53.486, 153.724 51.626, 154.532 50.559 C 155.339 49.491, 156 47.981, 156 47.203 C 156 46.425, 157.125 44.452, 158.500 42.818 C 159.875 41.184, 161 38.981, 161 37.923 C 161 36.760, 161.692 35.998, 162.750 35.994 C 165.931 35.984, 171.804 33.979, 174.101 32.119 C 176.174 30.441, 176.254 30.026, 175.060 27.144 C 173.647 23.733, 171.384 23.271, 165.500 25.192 M 66.667 30.667 C 66.300 31.033, 66 33.400, 66 35.925 C 66 39.405, 64.890 42.696, 61.419 49.509 C 58.899 54.454, 56.199 59.210, 55.419 60.079 C 54.638 60.947, 54 62.574, 54 63.694 C 54 64.814, 53.100 66.874, 52 68.273 C 50.900 69.671, 50 71.082, 50 71.408 C 50 72.410, 53.844 72.062, 54.500 71 C 54.840 70.450, 55.654 70, 56.309 70 C 57.107 70, 57.548 72.390, 57.646 77.250 C 57.726 81.237, 57.951 85.573, 58.146 86.884 C 58.451 88.936, 57.592 89.729, 52 92.563 C 48.425 94.375, 43.968 96.148, 42.095 96.503 C 36.670 97.532, 26.075 102.957, 24.350 105.589 C 22.906 107.792, 22.911 108.215, 24.408 110.500 C 26.294 113.379, 29.157 113.679, 34.730 111.581 C 36.803 110.800, 42.252 108.754, 46.838 107.035 C 51.423 105.315, 56.049 103.366, 57.118 102.704 C 60.037 100.895, 60.543 102.580, 60.179 112.896 L 59.858 122 56.889 122 C 55.256 122, 52.138 121.091, 49.960 119.980 L 46 117.959 42.052 119.973 C 36.378 122.868, 26.403 138.119, 27.732 141.868 C 29.581 147.083, 33.846 147.486, 37.091 142.750 C 40.942 137.128, 45.173 133.129, 46.663 133.701 C 47.445 134.001, 48.975 135.991, 50.062 138.122 C 51.150 140.254, 53.825 143.179, 56.006 144.623 C 59.708 147.073, 60.131 147.144, 62.335 145.700 C 63.844 144.711, 65.131 142.409, 65.899 139.326 C 68.337 129.536, 68.347 129.518, 71.633 129.197 C 73.336 129.030, 77.743 129.592, 81.427 130.447 C 90.652 132.586, 97.251 132.485, 99.345 130.171 C 101.413 127.886, 101.436 126.068, 99.433 123.208 C 96.689 119.290, 92.465 118.259, 82.725 119.129 C 77.899 119.560, 73.492 120.196, 72.931 120.542 C 72.371 120.889, 71.273 120.642, 70.492 119.993 C 69.378 119.069, 69.176 116.730, 69.556 109.157 C 70.135 97.649, 71.249 94.434, 75.391 92.316 C 77.101 91.441, 80.188 89.400, 82.250 87.779 C 85.564 85.174, 86 84.323, 86 80.451 C 86 77.143, 85.526 75.817, 84.066 75.035 C 81.172 73.487, 79.022 73.780, 78.218 75.834 C 77.151 78.560, 70.230 84.260, 68.949 83.468 C 68.338 83.091, 68.101 81.733, 68.423 80.452 C 68.744 79.171, 68.556 77.843, 68.004 77.502 C 67.452 77.161, 67 74.970, 67 72.632 C 67 70.295, 66.339 67.509, 65.532 66.441 C 63.348 63.555, 63.648 62.229, 67.500 57.729 C 69.425 55.480, 71.001 52.934, 71.003 52.070 C 71.005 51.207, 72.581 47.372, 74.507 43.550 C 78.115 36.386, 78.271 33.658, 75.208 31.250 C 73.528 29.929, 67.796 29.538, 66.667 30.667 M 149.750 99.470 L 144 104.913 144 115.457 C 144 125.392, 144.117 126, 146.034 126 C 147.286 126, 148.837 124.696, 150.070 122.606 C 152.360 118.725, 156.818 116.486, 160.444 117.397 L 162.927 118.020 162.385 111.260 C 162.087 107.542, 161.444 103.600, 160.957 102.500 C 160.469 101.400, 159.942 99.150, 159.785 97.500 C 159.325 92.664, 156.314 93.256, 149.750 99.470 M 55 131.573 C 55 134.436, 55.348 135.081, 56.750 134.815 C 57.903 134.597, 58.607 133.377, 58.813 131.242 C 59.075 128.532, 58.788 128, 57.063 128 C 55.364 128, 55 128.630, 55 131.573 M 159.526 129.739 C 158.441 130.010, 155.661 131.783, 153.349 133.677 C 151.038 135.571, 148.551 137.041, 147.823 136.942 C 144.332 136.470, 144 137.039, 144 143.500 C 144 148.601, 144.322 150, 145.495 150 C 146.920 150, 161.731 139.234, 163.897 136.624 C 165.056 135.227, 163.949 129.744, 162.445 129.437 C 161.925 129.331, 160.612 129.467, 159.526 129.739 M 159.336 152.445 C 157.776 154.400, 155.956 156, 155.290 156 C 154.625 156, 152.982 157.185, 151.639 158.633 C 149.704 160.721, 148.639 161.126, 146.503 160.590 C 142.488 159.582, 141 161.430, 141 167.422 C 141 170.270, 140.467 173.133, 139.817 173.783 C 139.166 174.434, 138.888 175.221, 139.199 175.532 C 140.590 176.923, 145.461 174.338, 151.715 168.891 C 155.447 165.640, 159.985 162.294, 161.801 161.456 C 164.982 159.986, 165.091 159.743, 164.801 154.794 C 164.635 151.969, 163.976 149.485, 163.336 149.274 C 162.696 149.063, 160.896 150.490, 159.336 152.445 M 63.750 169.088 C 61.485 170.397, 61.529 172.264, 63.875 174.387 C 67.474 177.644, 67.136 192.758, 63.142 207.166 C 60.700 215.975, 61.119 220.641, 64.490 222.177 C 66.267 222.987, 67.918 222.534, 72.989 219.841 C 81.347 215.404, 82.160 214.880, 84.769 212.250 C 85.996 211.012, 87.587 210, 88.304 210 C 90.184 210, 95.688 204.035, 98.010 199.481 C 100.398 194.797, 100.543 191.696, 98.456 189.963 C 97.159 188.887, 96.649 189.068, 95.278 191.091 C 93.134 194.253, 84.828 201.989, 83.522 202.041 C 82.960 202.063, 80.941 203.413, 79.037 205.042 C 76.259 207.416, 75.325 207.753, 74.319 206.747 C 73.313 205.741, 73.374 204.602, 74.628 200.996 C 76.289 196.220, 76.629 182.215, 75.233 176.091 C 74.067 170.977, 67.457 166.946, 63.750 169.088 M 34.319 175.250 C 33.880 175.938, 33.447 179.292, 33.357 182.704 C 33.266 186.116, 32.474 190.348, 31.596 192.108 C 30.718 193.867, 30 195.712, 30 196.207 C 30 197.521, 21.216 210.765, 19.722 211.702 C 17.496 213.100, 15.001 217.839, 15.629 219.475 C 15.962 220.344, 17.053 221.493, 18.052 222.028 C 21.893 224.084, 23.909 223.073, 29.074 216.500 C 31.884 212.925, 34.591 210, 35.091 210 C 35.591 210, 36 209.366, 36 208.592 C 36 207.818, 37.575 204.268, 39.500 200.704 C 42.039 196.004, 43 192.973, 43 189.671 C 43 187.167, 43.450 184.840, 44 184.500 C 45.842 183.361, 45.026 179.636, 42.313 176.805 C 39.498 173.866, 35.678 173.123, 34.319 175.250 M 130.404 216.578 C 125.992 223.226, 109.137 240.019, 105.237 241.654 C 103.722 242.289, 101.606 243.778, 100.534 244.963 C 97.860 247.917, 99.481 250.235, 104.979 251.322 C 108.970 252.112, 109.440 251.963, 112.071 249.084 C 113.620 247.388, 115.521 246, 116.296 246 C 120.121 246, 141.041 223.147, 142.176 217.728 C 143.016 213.721, 140.882 211, 136.898 211 C 134.619 211, 133.427 212.024, 130.404 216.578 M 167.250 215.763 C 162.524 216.154, 160.998 219, 165.514 219 C 167.796 219, 169.633 219.685, 174 222.162 C 174.825 222.630, 176.175 223.311, 177 223.675 C 177.825 224.039, 180.351 225.590, 182.613 227.122 C 184.874 228.654, 192.524 232.906, 199.613 236.572 C 219.163 246.682, 225.347 250.066, 227.079 251.601 C 227.947 252.370, 229.001 253, 229.420 253 C 229.839 253, 231.988 254.546, 234.196 256.436 C 236.404 258.326, 239.676 260.567, 241.467 261.418 C 243.259 262.268, 245.292 263.646, 245.985 264.482 C 247.849 266.728, 250.555 266.328, 252.385 263.535 C 255.348 259.014, 254.372 256.977, 246.491 251.235 C 245.937 250.831, 242.337 248.934, 238.491 247.019 C 234.646 245.105, 229.489 242.019, 227.032 240.161 C 222.793 236.957, 207.633 228.970, 202.997 227.499 C 201.810 227.122, 196.488 224.326, 191.169 221.285 C 181.093 215.523, 178.199 214.855, 167.250 215.763" stroke="none" fill="black" fill-rule="evenodd"/>
</svg>