<svg xmlns="http://www.w3.org/2000/svg" width="300" height="300" viewBox="0 0 300 300" version="1.1">
	<path d="M 154.885 22.863 C 148.915 27.525, 138.218 30.941, 113.500 36.078 C 110.200 36.764, 106.713 37.997, 105.750 38.817 C 103.434 40.793, 103.529 44.264, 105.960 46.464 C 108.102 48.402, 112.756 48.048, 118.500 45.508 C 120.150 44.778, 123.862 43.900, 126.750 43.556 C 131.994 42.932, 132 42.934, 132 45.762 C 132 51.091, 126.984 71.698, 124.031 78.500 C 120.990 85.504, 119.715 94.388, 120.260 104.763 C 120.799 115.010, 119.988 136.747, 118.182 160.500 C 117.131 174.326, 117.642 180, 119.939 180 C 120.862 180, 122.491 180.649, 123.559 181.441 C 125.679 183.016, 128.546 182.687, 134 180.245 C 137.289 178.773, 138.526 178.023, 145.960 173 C 147.587 171.900, 150.434 171, 152.285 171 C 156.200 171, 159.022 168.313, 160.688 163 C 161.976 158.890, 162.326 107.126, 161.076 105.537 C 160.627 104.966, 159.953 101.672, 159.577 98.217 C 158.902 92.017, 156.574 86.644, 152.657 82.250 C 149.373 78.565, 140.946 79.745, 137.055 84.434 C 136.340 85.295, 135.115 86, 134.332 86 C 132.550 86, 133.428 80.205, 135.999 75 C 136.950 73.075, 138.282 67.675, 138.960 63 C 139.638 58.325, 140.824 53.306, 141.596 51.846 C 142.368 50.386, 143 48.247, 143 47.092 C 143 44.002, 152.039 35, 155.142 35 C 158.088 35, 161.576 31.609, 162.513 27.837 C 163.001 25.866, 162.630 24.630, 161.087 23.087 C 158.529 20.529, 157.902 20.506, 154.885 22.863 M 72.901 32.106 C 71.306 33.814, 69.986 35.951, 69.968 36.856 C 69.951 37.760, 69.276 39.374, 68.468 40.441 C 67.661 41.509, 67 43.415, 67 44.677 C 67 49.392, 60.794 71.375, 58.878 73.450 C 58.395 73.972, 58 75.633, 58 77.141 C 58 78.649, 57.550 80.160, 57 80.500 C 56.450 80.840, 56 81.998, 56 83.073 C 56 84.148, 55.583 85.809, 55.073 86.764 C 52.633 91.335, 48 102.380, 48 103.626 C 48 104.397, 47.596 105.809, 47.103 106.764 C 46.072 108.758, 44.291 113.357, 40.426 124 C 37.391 132.358, 34.315 139.727, 32.913 142 C 31.880 143.673, 31.803 143.872, 30.003 149.500 C 29.299 151.700, 26.760 157.690, 24.362 162.810 C 21.963 167.931, 20 172.742, 20 173.501 C 20 174.261, 19.583 175.140, 19.073 175.455 C 18.563 175.770, 17.610 177.709, 16.955 179.764 C 15.456 184.462, 10.379 196.642, 8.454 200.154 C 7.655 201.614, 7 203.405, 7 204.135 C 7 204.864, 5.399 208.054, 3.442 211.225 C 0.559 215.895, -0.057 217.796, 0.192 221.244 C 0.449 224.796, 0.876 225.553, 2.771 225.822 C 4.546 226.074, 5.352 225.402, 6.463 222.743 C 7.245 220.872, 8.575 218.768, 9.418 218.068 C 11.169 216.615, 16.577 205.569, 17.613 201.330 C 17.994 199.774, 19.136 197.427, 20.152 196.115 C 21.169 194.803, 22 193.263, 22 192.691 C 22 192.119, 23.726 188.242, 25.835 184.076 C 27.945 179.909, 30.248 174.925, 30.953 173 C 33.682 165.547, 35.796 160.885, 40.408 152.143 C 41.175 150.689, 42.598 146.575, 43.571 143 C 44.545 139.425, 46.121 135.600, 47.074 134.500 C 48.028 133.400, 49.274 130.925, 49.843 129 C 51.216 124.356, 53.788 117.102, 55.161 114 C 56.562 110.835, 57.363 108.726, 59.526 102.500 C 60.481 99.750, 61.654 97.073, 62.131 96.550 C 62.609 96.028, 63 95.027, 63 94.327 C 63 93.627, 64.067 90.680, 65.372 87.777 C 66.677 84.875, 68.324 80.588, 69.032 78.250 C 69.741 75.912, 70.811 74.009, 71.410 74.020 C 72.010 74.031, 74.476 76.030, 76.890 78.461 C 80.844 82.443, 81.223 83.236, 80.704 86.438 C 80.188 89.617, 80.393 90.060, 82.635 90.623 C 85.931 91.450, 92.017 85.859, 91.965 82.054 C 91.884 76.273, 84.011 67.516, 77.978 66.496 L 73.858 65.800 74.481 61.650 C 74.824 59.368, 75.712 55.925, 76.456 54 C 77.199 52.075, 78.331 47.920, 78.971 44.767 C 79.612 41.614, 80.555 38.775, 81.068 38.458 C 82.313 37.689, 82.253 33.342, 80.965 30.934 C 79.448 28.099, 76.204 28.570, 72.901 32.106 M 141 94 C 140.411 95.100, 139.332 96, 138.602 96 C 136.639 96, 131 108.144, 131 112.373 C 131 117.029, 133.514 117.244, 138.347 113 C 140.226 111.350, 142.267 110, 142.882 110 C 143.497 110, 144 109.559, 144 109.019 C 144 108.480, 145.107 107.760, 146.459 107.421 C 150.287 106.460, 151.070 104.888, 149.702 100.910 C 146.947 92.897, 143.188 89.912, 141 94 M 64.655 107.829 C 62.384 110.338, 62.573 112.364, 65.513 117.020 C 67.527 120.211, 68.617 121, 71.013 121 C 73.137 121, 74 120.517, 74 119.329 C 74 118.410, 74.683 116.902, 75.519 115.979 C 76.846 114.512, 76.858 113.956, 75.613 111.556 C 74.229 108.888, 70.033 106, 67.541 106 C 66.864 106, 65.565 106.823, 64.655 107.829 M 144 120.820 C 143.175 121.194, 141.244 122.351, 139.709 123.392 C 137.475 124.906, 136.447 125.069, 134.559 124.209 C 131.697 122.905, 131 123.478, 131 127.132 C 131 128.671, 130.296 132.003, 129.436 134.536 C 128.220 138.119, 128.136 139.459, 129.059 140.571 C 131.393 143.384, 134.500 142.330, 146.250 134.739 C 151.787 131.163, 152 130.865, 152 126.712 C 152 124.341, 151.460 121.860, 150.800 121.200 C 149.503 119.903, 146.405 119.730, 144 120.820 M 67 129.500 C 65.136 130.875, 63.271 132, 62.856 132 C 62.440 132, 60.106 133.346, 57.668 134.991 C 54.738 136.969, 53.059 138.913, 52.711 140.730 C 51.583 146.634, 55.267 148.458, 62.346 145.500 C 64.320 144.675, 66.175 144, 66.468 144 C 68.842 144, 63.092 154.922, 57.384 161.253 C 55.523 163.317, 54 165.679, 54 166.503 C 54 167.326, 53.550 168, 53 168 C 52.450 168, 52 168.675, 52 169.500 C 52 172.683, 56.974 171.103, 61.448 166.500 C 63.854 164.025, 66.392 162, 67.090 162 C 68.913 162, 75 155.072, 75 152.997 C 75 152.033, 75.655 150.702, 76.455 150.038 C 79.515 147.498, 83 140.109, 83 136.161 C 83 132.941, 82.411 131.682, 79.923 129.589 C 75.956 126.251, 71.446 126.220, 67 129.500 M 144.500 147.596 C 142.300 148.920, 138.814 150.524, 136.753 151.159 C 133.580 152.138, 132.724 152.061, 131.174 150.657 C 128.348 148.100, 126.986 148.636, 127.133 152.250 C 127.205 154.037, 126.914 158.988, 126.486 163.250 L 125.707 171 128.231 171 C 129.619 171, 131.279 170.369, 131.918 169.598 C 132.558 168.827, 134.994 167.632, 137.332 166.942 C 139.693 166.244, 143.870 163.645, 146.729 161.093 C 151.905 156.473, 152.690 154.300, 152.093 146.250 C 151.954 144.373, 148.978 144.901, 144.500 147.596 M 71 176.500 C 69.625 177.286, 67.555 177.945, 66.399 177.965 C 63.542 178.013, 55.918 182.172, 52.593 185.498 C 50.011 188.079, 49.541 188.184, 43.435 187.530 C 36.108 186.745, 35.038 187.653, 36.652 193.280 C 37.436 196.017, 38.169 196.567, 42.030 197.319 C 47.737 198.430, 49.292 199.875, 51.779 206.375 C 52.891 209.281, 55.201 213.191, 56.911 215.064 C 59.633 218.044, 60.267 218.315, 61.997 217.234 C 63.084 216.555, 64.454 216, 65.041 216 C 66.698 216, 74.804 212.126, 75.498 211.003 C 75.839 210.451, 77.206 210, 78.536 210 C 81.352 210, 84.356 206.092, 83.419 203.649 C 83.074 202.751, 83.739 200.412, 84.896 198.451 C 86.053 196.490, 87 194.221, 87 193.408 C 87 192.595, 87.702 190.858, 88.561 189.548 C 90.796 186.137, 89.540 180.632, 85.811 177.494 C 82.370 174.599, 75.171 174.115, 71 176.500 M 72.344 187.041 C 67.162 188.067, 60.087 191.610, 59.341 193.553 C 58.570 195.562, 59.737 201.258, 61.379 203.504 C 62.670 205.270, 62.898 205.276, 66.320 203.653 C 70.142 201.839, 76.286 195.050, 77.798 190.968 C 78.723 188.471, 78.390 185.908, 77.167 186.110 C 76.800 186.170, 74.630 186.589, 72.344 187.041 M 122.781 200.750 C 121.941 201.713, 120.685 204.268, 119.990 206.428 C 118.792 210.154, 107.039 222.685, 96.454 231.522 C 93.067 234.350, 92.914 234.718, 94.078 237.272 C 96.551 242.700, 101.227 240.499, 114 227.890 C 122.438 219.561, 126 215.545, 126 214.360 C 126 214.020, 127.575 211.999, 129.500 209.868 C 131.425 207.738, 133 205.525, 133 204.952 C 133 203.196, 128.206 199, 126.200 199 C 125.161 199, 123.622 199.787, 122.781 200.750 M 146.500 211.348 C 143.812 213.387, 144.948 214.234, 154 216.945 C 158.125 218.181, 164.875 220.665, 169 222.466 C 173.125 224.267, 178.166 226.040, 180.202 226.406 C 182.237 226.773, 186.962 228.623, 190.702 230.518 C 194.441 232.412, 198.448 233.971, 199.606 233.981 C 200.765 233.992, 203.775 235.575, 206.296 237.500 C 208.817 239.425, 211.210 241, 211.614 241 C 212.018 241, 215.597 244.150, 219.568 248 C 223.699 252.006, 227.657 255, 228.821 255 C 230.941 255, 235 250.685, 235 248.430 C 235 246.864, 223.499 236.542, 218.248 233.395 C 208.104 227.316, 200.912 223.748, 195 221.863 C 191.425 220.723, 187.150 219.178, 185.500 218.430 C 183.850 217.681, 181.150 216.793, 179.500 216.455 C 177.850 216.118, 173.800 214.670, 170.500 213.239 C 162.988 209.982, 149.682 208.933, 146.500 211.348" stroke="none" fill="black" fill-rule="evenodd"/>
</svg>