<svg xmlns="http://www.w3.org/2000/svg" width="300" height="300" viewBox="0 0 300 300" version="1.1">
	<path d="M 63.583 28.250 C 63.388 28.938, 62.537 32.200, 61.691 35.500 C 58.409 48.308, 53.878 64.335, 52.080 69.500 C 51.506 71.150, 49.887 76.325, 48.483 81 C 47.078 85.675, 45.545 90.400, 45.075 91.500 C 44.605 92.600, 43.439 96.425, 42.484 100 C 40.177 108.638, 37.898 114.945, 36.852 115.592 C 36.383 115.881, 36 117.106, 36 118.313 C 36 119.521, 34.831 123.657, 33.403 127.504 C 31.975 131.352, 29.755 137.650, 28.470 141.500 C 25.715 149.753, 23.990 154.742, 22.938 157.500 C 22.112 159.664, 19.289 167.517, 16.466 175.500 C 11.003 190.946, 9.121 195.972, 7.166 200.333 C 5.975 202.991, 5 205.340, 5 205.553 C 5 205.766, 3.875 208.400, 2.500 211.406 C -0.877 218.790, -0.826 222.735, 2.664 224.062 C 4.991 224.947, 5.737 224.678, 8.565 221.937 C 10.855 219.718, 11.996 217.510, 12.463 214.399 C 12.826 211.980, 13.545 210, 14.061 210 C 14.578 210, 15.004 209.213, 15.009 208.250 C 15.014 207.287, 16.125 204.250, 17.478 201.500 C 18.831 198.750, 19.952 195.725, 19.969 194.777 C 19.986 193.829, 20.858 191.129, 21.906 188.777 C 26.150 179.256, 30 169.678, 30 168.640 C 30 167.452, 33.624 157.684, 35.194 154.641 C 35.721 153.619, 36.961 149.794, 37.948 146.141 C 38.935 142.489, 40.701 137.325, 41.871 134.667 C 43.042 132.009, 44 129.061, 44 128.117 C 44 127.173, 44.407 125.973, 44.905 125.450 C 45.728 124.586, 47.105 120.134, 50.222 108.250 C 51.441 103.603, 52.839 102.911, 54.768 106 C 56.958 109.507, 61.838 108.421, 68.948 102.844 C 71.779 100.623, 72.451 99.311, 73.043 94.844 C 74.277 85.544, 70.216 84.177, 64.595 92 C 62.098 95.476, 60.317 96.995, 58.752 96.985 C 54.396 96.955, 53.974 95.871, 56.027 89.978 C 60.285 77.754, 61.737 73.930, 62.353 73.314 C 62.709 72.958, 63 71.828, 63 70.802 C 63 67.875, 65.829 67.491, 68.551 70.048 C 69.898 71.313, 71 72.875, 71 73.519 C 71 74.163, 71.902 75.506, 73.004 76.504 C 74.660 78.002, 75.442 78.120, 77.504 77.180 C 79.718 76.171, 80 75.431, 80 70.627 C 80 66.029, 79.561 64.742, 77.093 62.099 C 75.494 60.388, 72.794 58.709, 71.093 58.369 C 67.532 57.656, 67.182 55.893, 69.500 50.346 C 70.325 48.371, 71 45.262, 71 43.437 C 71 41.612, 71.450 39.840, 72 39.500 C 72.550 39.160, 73 37.141, 73 35.014 C 73 32.026, 72.400 30.673, 70.365 29.073 C 67.416 26.753, 64.120 26.353, 63.583 28.250 M 113.500 38.250 C 113.204 39.487, 113.939 45, 115.132 50.500 C 118.052 63.948, 118.932 90.928, 116.570 94.534 C 115.706 95.852, 115 98.945, 115 101.408 C 115 104.902, 115.488 106.229, 117.223 107.443 C 121.497 110.437, 120.829 110.978, 132.689 94.936 C 140.357 84.566, 147.615 77, 149.896 77 C 153.240 77, 153.444 87.781, 150.275 97.104 C 148.571 102.117, 149.125 106.727, 151.543 107.655 C 153.668 108.470, 155.770 106.366, 156.511 102.681 C 156.863 100.931, 158.076 97.475, 159.205 95 C 163.619 85.329, 162.443 68.699, 156.995 63.750 C 151.951 59.167, 150.339 59.873, 139.016 71.629 C 131.969 78.945, 128.536 81.868, 128.003 81.005 C 127.577 80.315, 127.463 75.147, 127.750 69.519 C 128.111 62.444, 127.922 59.070, 127.136 58.584 C 126.511 58.198, 126 56.476, 126 54.757 C 126 49.687, 122.906 39.640, 120.763 37.750 C 117.892 35.218, 114.164 35.475, 113.500 38.250 M 72.500 114.758 C 68.703 115.476, 64.483 117.889, 59.372 122.263 C 50.521 129.839, 48.108 133.140, 48.185 137.566 C 48.258 141.704, 50.446 156.525, 52.053 163.764 C 52.574 166.110, 53 170.361, 53 173.212 C 53 179.818, 51.064 194.984, 49.941 197.169 C 49.470 198.087, 48.782 202.835, 48.414 207.720 C 47.749 216.519, 47.767 216.618, 50.363 218.318 C 52.692 219.845, 53.342 219.878, 56.241 218.624 C 60.032 216.984, 76.087 202.866, 77.377 200.038 C 79.836 194.648, 83.752 197.390, 89.469 208.504 C 91.602 212.651, 93.945 216.539, 94.674 217.144 C 96.782 218.894, 96.218 224.215, 93.500 228.215 C 90.406 232.769, 90.363 234.321, 93.288 235.887 C 96.084 237.383, 100.735 235.929, 101.672 233.265 C 102.014 232.294, 103.294 230.375, 104.518 229 C 105.741 227.625, 107.012 225.350, 107.341 223.945 C 107.671 222.540, 109.295 219.390, 110.952 216.945 C 112.608 214.500, 113.986 211.825, 114.014 211 C 114.041 210.175, 114.724 208.626, 115.532 207.559 C 116.339 206.491, 117 205.024, 117 204.298 C 117 203.572, 117.952 200.846, 119.116 198.239 C 120.280 195.633, 121.886 191.925, 122.684 190 C 125.478 183.261, 126.238 181.488, 126.967 180 C 128.218 177.446, 132.458 177.673, 135.785 180.473 C 137.471 181.891, 141.958 184.333, 145.757 185.900 C 152.769 188.791, 161.274 193.219, 164 195.398 C 164.825 196.057, 167.924 197.874, 170.887 199.435 C 179.203 203.818, 186.255 208.043, 194.216 213.414 C 198.222 216.117, 203.300 219.490, 205.500 220.911 C 207.700 222.332, 209.725 223.747, 210 224.055 C 210.275 224.364, 215.714 228.085, 222.086 232.326 C 228.594 236.657, 236.920 243.315, 241.084 247.518 C 247.228 253.720, 249.043 255, 251.691 255 C 255.339 255, 258.264 251.824, 257.175 249.046 C 255.857 245.684, 251.293 241.244, 243.667 235.908 C 239.417 232.933, 234.266 229.249, 232.220 227.719 C 230.174 226.190, 227.375 224.185, 226 223.263 C 224.625 222.342, 222.104 220.443, 220.398 219.044 C 218.691 217.645, 215.802 215.600, 213.977 214.500 C 206.468 209.974, 203.921 208.376, 200.302 205.919 C 183.924 194.801, 176.328 190.361, 153 178.268 C 134.946 168.910, 132.999 167.664, 133.037 165.500 C 133.088 162.542, 135.564 152.683, 136.868 150.247 C 137.490 149.084, 138 145.878, 138 143.125 C 138 140.371, 138.493 137.813, 139.096 137.441 C 140.185 136.768, 139.992 134.279, 138.247 126.500 C 136.398 118.254, 133.264 115.749, 129.058 119.154 C 126.945 120.865, 126.836 121.389, 127.787 125.263 C 129.263 131.274, 129.166 137.563, 127.493 144.500 C 126.697 147.800, 125.372 153.824, 124.548 157.887 C 123.724 161.950, 122.364 166.322, 121.525 167.602 C 120.686 168.882, 120 170.819, 120 171.906 C 120 172.993, 119.550 174.160, 119 174.500 C 118.450 174.840, 118 175.979, 118 177.032 C 118 178.084, 116.821 181.545, 115.380 184.723 C 113.939 187.900, 112.080 192.075, 111.248 194 C 110.417 195.925, 108.896 199.272, 107.868 201.438 C 106.841 203.604, 106 206.136, 106 207.065 C 106 209.169, 103.448 211.395, 102.036 210.523 C 100.717 209.707, 97 202.104, 97 200.221 C 97 199.449, 95.425 196.978, 93.500 194.729 C 91.575 192.480, 90 190.069, 90 189.371 C 90 187.155, 83.647 182.010, 80.905 182.005 C 78.051 182, 76.101 183.826, 73.741 188.713 C 71.681 192.982, 62.859 202.971, 61.136 202.987 C 59.764 203, 59.807 201.828, 61.617 189.738 C 61.949 187.516, 63.985 183.523, 66.590 179.985 C 69.015 176.690, 71 173.556, 71 173.020 C 71 171.229, 76.375 168.500, 79.903 168.500 C 84.024 168.500, 84.745 166.907, 84.900 157.450 C 84.955 154.123, 85.507 150.893, 86.126 150.274 C 87.274 149.126, 87.098 145.556, 85.102 129.500 C 84.555 125.100, 84.084 121.180, 84.054 120.789 C 83.848 118.075, 76.164 114.064, 72.500 114.758 M 69.382 127.285 C 68.216 127.953, 64.654 130.898, 61.466 133.828 C 56.168 138.697, 55.749 139.385, 56.605 141.818 C 57.882 145.449, 60.117 145.612, 64.929 142.428 C 68.213 140.255, 69.769 139.840, 72.998 140.273 L 77 140.810 77 136.040 C 77 132.728, 76.366 130.464, 74.927 128.635 C 72.589 125.662, 72.325 125.598, 69.382 127.285 M 67.226 154.004 C 65.425 155.102, 63.288 156, 62.476 156 C 61.353 156, 61 157.322, 61 161.531 C 61 168.817, 62.946 169.734, 67.272 164.486 C 71.466 159.398, 75 154.125, 75 152.956 C 75 151.325, 70.660 151.910, 67.226 154.004" stroke="none" fill="black" fill-rule="evenodd"/>
</svg>