<svg xmlns="http://www.w3.org/2000/svg" width="300" height="300" viewBox="0 0 300 300" version="1.1">
	<path d="M 140 2.134 C 140 3.308, 139.514 6.120, 138.921 8.384 C 138.327 10.648, 137.396 14.300, 136.851 16.500 C 136.306 18.700, 134.992 23.259, 133.930 26.631 C 132.869 30.003, 132 33.534, 132 34.477 C 132 35.420, 131.325 37.498, 130.500 39.096 C 127.220 45.446, 126.270 47.791, 124.053 55 C 122.784 59.125, 120.705 65.200, 119.433 68.500 C 118.161 71.800, 114.778 80.575, 111.915 88 C 109.053 95.425, 106.326 101.928, 105.856 102.450 C 105.385 102.973, 105 104.195, 105 105.166 C 105 107.765, 94.753 129.869, 90.011 137.500 C 88.985 139.150, 88.113 141.232, 88.073 142.128 C 88.033 143.023, 87.299 144.337, 86.442 145.048 C 85.585 145.759, 84.250 147.727, 83.475 149.420 C 81.459 153.826, 77.900 159.949, 75 164 C 73.625 165.920, 71.777 168.834, 70.893 170.474 C 70.009 172.114, 67.984 174.177, 66.393 175.058 C 62.383 177.278, 61.063 181.307, 63.473 183.970 C 64.483 185.086, 66.045 186, 66.943 186 C 69.822 186, 84.038 167.827, 87.977 159.111 C 88.570 157.797, 90.169 155.400, 91.528 153.784 C 92.888 152.168, 94 150.163, 94 149.328 C 94 148.492, 94.788 146.612, 95.750 145.150 C 96.713 143.688, 98.044 141.593, 98.708 140.496 C 100.290 137.883, 109.955 118.079, 110.907 115.500 C 111.313 114.400, 112.850 111.018, 114.323 107.984 C 115.795 104.950, 117 102.086, 117 101.619 C 117 101.152, 118.575 97.406, 120.500 93.296 C 122.425 89.185, 124 84.823, 124 83.602 C 124 82.381, 124.661 80.509, 125.468 79.441 C 126.276 78.374, 126.951 76.572, 126.968 75.437 C 126.986 74.303, 128.125 71.042, 129.500 68.192 C 130.875 65.342, 132 62.382, 132 61.616 C 132 60.849, 132.872 59.159, 133.937 57.861 C 135.593 55.843, 136.138 55.685, 137.687 56.770 C 138.684 57.469, 140.850 58.669, 142.500 59.438 C 144.150 60.207, 146.822 62.223, 148.437 63.918 C 150.052 65.613, 151.955 67, 152.664 67 C 153.373 67, 154.680 68.107, 155.566 69.461 C 156.453 70.815, 157.955 72.168, 158.903 72.469 C 163.480 73.922, 188.036 101.524, 192.152 109.842 C 193.283 112.129, 194.612 114, 195.105 114 C 195.597 114, 196.002 114.563, 196.004 115.250 C 196.007 115.938, 197.864 118.947, 200.131 121.938 C 203.449 126.314, 204.032 127.680, 203.120 128.938 C 202.497 129.797, 201.703 131.100, 201.355 131.833 C 200.340 133.973, 204.354 137.104, 208.893 137.712 C 217.563 138.875, 221.178 130.277, 214.750 123.783 C 210.498 119.488, 203.862 109.613, 201.119 103.500 C 200.625 102.400, 198.371 99.406, 196.111 96.847 C 193.850 94.287, 192 91.898, 192 91.538 C 192 89.350, 158.341 55.745, 153.796 53.394 C 152.037 52.485, 149.954 51.096, 149.166 50.309 C 148.379 49.522, 145.995 48.181, 143.867 47.330 C 139.159 45.446, 139.110 44.755, 142.880 33.273 C 148.144 17.239, 149.919 10.550, 150.315 5.250 L 150.706 0 145.353 0 C 140.555 0, 140 0.221, 140 2.134 M 63.369 45.560 C 62.192 47.356, 62.106 48.330, 62.981 49.965 C 65.028 53.790, 61.935 75.727, 58.111 84.500 C 57.632 85.600, 56.449 88.525, 55.484 91 C 54.518 93.475, 53.110 96.927, 52.355 98.670 C 51.600 100.414, 50.696 103.339, 50.346 105.170 C 49.996 107.002, 47.975 112.150, 45.855 116.611 C 43.735 121.073, 42 124.986, 42 125.308 C 42 126.823, 34.023 139.268, 28.792 145.914 C 22.209 154.277, 20.971 157.399, 23.310 159.739 C 24.721 161.150, 25.116 161.154, 27.207 159.784 C 28.487 158.945, 31.057 156.738, 32.918 154.879 C 36.696 151.107, 48 136.061, 48 134.806 C 48 134.363, 48.742 134, 49.649 134 C 51.432 134, 58 140.241, 58 141.935 C 58 143.381, 52.915 153.659, 49.690 158.730 C 48.210 161.057, 47 163.256, 47 163.617 C 47 163.979, 44.925 167.423, 42.390 171.272 C 37.114 179.280, 26.331 190.597, 23.447 191.152 C 22.146 191.403, 21.500 192.345, 21.500 193.990 C 21.500 197.131, 26.049 199.075, 29.035 197.210 C 30.101 196.545, 31.478 196, 32.095 196 C 33.737 196, 43.662 185.639, 44.476 183.075 C 44.858 181.871, 46.189 180.499, 47.432 180.026 C 48.676 179.553, 50.436 177.601, 51.344 175.687 C 52.252 173.774, 54.620 169.799, 56.607 166.854 C 59.691 162.284, 67 147.870, 67 146.360 C 67 146.089, 68.125 144.392, 69.500 142.589 C 70.875 140.786, 72 138.656, 72 137.856 C 72 137.055, 72.370 135.973, 72.823 135.450 C 73.276 134.928, 74.494 131.800, 75.529 128.500 C 76.564 125.200, 77.768 122.073, 78.205 121.550 C 78.642 121.028, 79 119.784, 79 118.786 C 79 117.789, 79.386 116.191, 79.857 115.236 C 80.329 114.281, 81.391 112.150, 82.219 110.500 C 83.046 108.850, 83.783 105.562, 83.856 103.194 C 83.930 100.825, 84.481 97.971, 85.080 96.850 C 88.385 90.675, 79.225 82.814, 74.079 87.410 C 73.210 88.185, 71.600 88.973, 70.500 89.160 C 68.818 89.446, 68.549 89.024, 68.808 86.500 C 68.977 84.850, 69.980 80.669, 71.038 77.209 C 73.736 68.378, 74.637 56.009, 72.967 50.711 C 71.260 45.296, 70.488 44.326, 67.409 43.738 C 65.543 43.381, 64.483 43.859, 63.369 45.560 M 141.500 69.887 C 138.003 70.959, 133.339 75.052, 131.125 78.992 C 129.048 82.687, 129.036 82.901, 130.741 85.896 C 131.708 87.596, 132.768 88.990, 133.095 88.994 C 134.845 89.012, 145.694 80.985, 146.839 78.825 C 149.459 73.881, 146.211 68.443, 141.500 69.887 M 134.341 99.948 C 129.854 103.770, 125.890 107.370, 125.532 107.948 C 125.174 108.527, 123.799 109, 122.476 109 C 118.469 109, 117.740 111.874, 119.109 122.281 C 121.142 137.732, 121.007 159.187, 118.624 199.500 C 118.364 203.900, 117.842 210.200, 117.464 213.500 C 116.459 222.282, 118.155 227.629, 122.621 229.759 C 125.977 231.359, 126.318 231.346, 129.822 229.469 C 131.845 228.385, 135.002 225.249, 136.837 222.499 C 138.672 219.750, 140.978 217.198, 141.961 216.829 C 142.944 216.459, 145.477 212.660, 147.589 208.386 C 150.583 202.325, 151.429 199.447, 151.429 195.307 C 151.429 192.388, 151.698 190, 152.026 190 C 153.290 190, 160.905 194.037, 161.520 195.033 C 162.075 195.931, 165.741 198.579, 171.859 202.500 C 173.309 203.429, 185.686 212.546, 195.895 220.203 C 198.312 222.016, 202.613 225.555, 205.454 228.067 C 210.055 232.137, 216.990 236.740, 224.811 240.915 C 226.269 241.694, 228.821 243.604, 230.481 245.161 C 233.952 248.415, 234.989 248.574, 239.050 246.474 C 244.417 243.699, 242.299 238.662, 234 234.463 C 229.261 232.066, 211.223 220.169, 210.463 218.941 C 210.129 218.399, 207.300 216.104, 204.177 213.840 C 201.055 211.577, 196.700 208.033, 194.500 205.964 C 192.300 203.895, 188.025 200.583, 185 198.602 C 161.522 183.233, 157.132 180.115, 156.006 178.011 C 155.172 176.453, 155.937 175.150, 160.521 170.318 C 163.556 167.118, 167.943 161.856, 170.270 158.625 C 172.596 155.394, 176.477 150.259, 178.893 147.214 C 186.755 137.305, 188.050 132.435, 183.473 129.985 C 179.889 128.068, 175.810 129.687, 174.573 133.518 C 174.044 135.158, 170.998 139.990, 167.805 144.255 C 164.612 148.520, 162 152.435, 162 152.955 C 162 153.474, 157.549 158.528, 152.109 164.185 L 142.217 174.471 135.886 174.486 L 129.555 174.500 128.908 170.585 C 127.914 164.570, 129.078 161.668, 132.789 160.909 C 136.868 160.075, 139.970 158.035, 148.253 150.737 C 155.673 144.201, 157.231 141.604, 159.411 132.136 C 160.552 127.179, 160.683 123.401, 160.004 115.043 C 158.953 102.120, 156.658 96.720, 151.258 94.463 C 145.032 91.862, 143.101 92.488, 134.341 99.948 M 66.500 103.602 C 64.850 105.032, 62.825 106.719, 62 107.351 C 60.410 108.569, 57 115.289, 57 117.205 C 57 117.831, 56.275 119.144, 55.388 120.123 C 53.888 121.781, 54.044 122.217, 57.638 126.419 C 59.762 128.903, 61.964 130.949, 62.532 130.967 C 63.099 130.985, 64.141 128.863, 64.848 126.250 C 65.555 123.638, 66.608 120.630, 67.189 119.567 C 68.556 117.066, 72 105.029, 72 102.753 C 72 100.270, 69.987 100.581, 66.500 103.602 M 139.672 112.522 C 137.017 114.966, 133.642 117.539, 132.172 118.240 C 129.971 119.290, 129.445 120.287, 129.186 123.893 C 128.747 130.010, 130.247 131.049, 133.661 126.991 C 137.231 122.748, 144.242 119.524, 146.857 120.923 C 149.385 122.276, 150 121.422, 150 116.556 C 150 112.322, 147.799 107.970, 145.693 108.040 C 145.037 108.062, 142.328 110.079, 139.672 112.522 M 143.552 133.500 C 139.496 137.674, 138.808 138, 134.077 138 L 128.976 138 129.625 142.250 C 130.438 147.583, 131.547 149, 134.907 149 C 139.318 149, 148.441 138.618, 150.505 131.250 C 151.554 127.505, 148.381 128.531, 143.552 133.500 M 127.532 184.250 C 126.652 186.960, 126.258 216.042, 127.094 216.558 C 127.584 216.861, 128.617 216.746, 129.390 216.304 C 131.267 215.231, 139.008 204.731, 142.517 198.500 C 144.065 195.750, 146.191 192.535, 147.241 191.355 C 149.717 188.574, 148.597 187.898, 140.429 187.242 C 135.964 186.884, 133.564 186.175, 132.379 184.866 C 130.438 182.721, 128.123 182.427, 127.532 184.250" stroke="none" fill="black" fill-rule="evenodd"/>
</svg>