<svg xmlns="http://www.w3.org/2000/svg" width="300" height="300" viewBox="0 0 300 300" version="1.1">
	<path d="M 86.024 31.472 C 84.938 32.780, 84.219 34.959, 82.330 42.667 C 81.912 44.373, 82.299 44.905, 84.149 45.167 C 86.950 45.564, 87.338 48.498, 84.591 48.505 C 83.243 48.508, 82.314 49.681, 81.428 52.505 C 80.737 54.702, 79.457 58.750, 78.581 61.500 C 77.706 64.250, 76.992 67.486, 76.995 68.691 C 76.998 69.896, 76.550 71.160, 76 71.500 C 75.450 71.840, 75 73.405, 75 74.978 C 75 76.551, 74.359 79.112, 73.575 80.669 C 72.792 82.226, 71.704 85.300, 71.158 87.500 C 68.784 97.062, 67.722 100.701, 66.404 103.784 C 65.632 105.590, 65 107.734, 65 108.547 C 65 110.037, 64.653 110.874, 61.643 116.654 C 60.739 118.389, 60 120.533, 60 121.418 C 60 122.303, 59.603 123.809, 59.117 124.764 C 58.631 125.719, 57.793 127.625, 57.255 129 C 56.717 130.375, 55.540 133.203, 54.639 135.284 C 53.737 137.365, 53 139.926, 53 140.975 C 53 142.024, 52.550 143.160, 52 143.500 C 51.450 143.840, 51 145.260, 51 146.655 C 51 148.050, 50.356 150.386, 49.569 151.846 C 48.782 153.306, 46.902 157.785, 45.391 161.801 C 43.880 165.817, 42.274 169.331, 41.822 169.610 C 41.370 169.889, 41 170.814, 41 171.664 C 41 172.514, 39.875 175.449, 38.500 178.187 C 37.125 180.924, 36 183.802, 36 184.582 C 36 185.362, 35.550 186, 35 186 C 34.450 186, 33.996 186.563, 33.991 187.250 C 33.986 187.938, 32.875 190.750, 31.522 193.500 C 30.169 196.250, 29.048 199.047, 29.031 199.715 C 29.014 200.384, 27.650 203.059, 26 205.661 C 22.499 211.181, 22.315 212.563, 24.893 213.943 C 26.337 214.716, 27.374 214.494, 29.264 213.007 C 31.845 210.977, 40.687 196.076, 42.916 190 C 43.622 188.075, 45.350 184.025, 46.754 181 C 48.159 177.975, 49.741 174.375, 50.270 173 C 50.799 171.625, 51.632 169.825, 52.122 169 C 52.612 168.175, 53.276 166.825, 53.597 166 C 53.918 165.175, 54.573 163.600, 55.052 162.500 C 55.531 161.400, 56.669 158.131, 57.581 155.235 C 58.494 152.339, 59.636 149.725, 60.120 149.426 C 60.604 149.127, 61 147.585, 61 146 C 61 144.415, 61.450 142.840, 62 142.500 C 62.550 142.160, 63 140.870, 63 139.632 C 63 138.395, 63.661 136.509, 64.468 135.441 C 65.276 134.374, 65.951 132.708, 65.968 131.739 C 65.999 130.033, 68.609 123.464, 71.559 117.669 C 72.352 116.112, 73 114.001, 73 112.978 C 73 111.955, 73.450 110.840, 74 110.500 C 74.550 110.160, 75.007 108.671, 75.015 107.191 C 75.043 102.353, 76.248 101.612, 84.180 101.554 L 91.500 101.500 91.816 97.652 C 92.282 91.982, 89.906 89.742, 84.315 90.580 C 80.419 91.164, 80 91.028, 80 89.173 C 80 88.043, 80.450 86.840, 81 86.500 C 81.550 86.160, 82.003 84.896, 82.006 83.691 C 82.010 82.486, 82.685 80.211, 83.506 78.636 C 84.328 77.060, 85 74.798, 85 73.608 C 85 71.059, 87.619 67, 89.265 67 C 89.898 67, 92.134 68.678, 94.234 70.728 C 97.349 73.770, 98.370 74.258, 99.776 73.377 C 100.738 72.775, 101.620 70.795, 101.772 68.899 C 102.010 65.912, 101.306 64.773, 95.957 59.500 C 91.482 55.089, 90.001 52.970, 90.365 51.500 C 90.638 50.400, 91.331 47.700, 91.907 45.500 C 93.502 39.397, 93.208 35.534, 90.927 32.635 C 88.550 29.613, 87.728 29.418, 86.024 31.472 M 181 49.412 C 174.565 51.848, 167.529 55.252, 164.521 57.386 C 162.882 58.549, 160.804 59.950, 159.903 60.500 C 156.053 62.850, 152.333 65.513, 150 67.590 C 148.625 68.814, 145.925 70.683, 144 71.743 C 139.619 74.156, 139.253 75.902, 142.415 79.314 C 145.395 82.530, 145.986 82.593, 148.770 80 C 149.950 78.900, 151.164 78, 151.467 78 C 151.770 78, 155.727 75.599, 160.259 72.666 C 164.792 69.732, 169.850 66.655, 171.500 65.829 C 173.150 65.003, 176.201 63.353, 178.280 62.163 C 180.360 60.974, 182.622 60, 183.308 60 C 185.206 60, 190 65.932, 190 68.282 C 190 69.424, 190.435 71.740, 190.966 73.429 C 192.915 79.622, 195 93.220, 195.006 99.770 C 195.009 103.472, 195.419 108.987, 195.917 112.027 C 196.415 115.066, 197.111 126.766, 197.463 138.027 C 197.815 149.287, 198.512 165.925, 199.010 175 C 200.522 202.525, 200.269 231.896, 198.433 241.812 C 197.548 246.590, 196.479 250.862, 196.057 251.305 C 194.211 253.243, 188.993 250.197, 181.239 242.657 C 176.267 237.822, 172.628 234.997, 172.101 235.561 C 170.020 237.791, 170.078 240.584, 172.260 243.178 C 173.492 244.643, 176.414 248.320, 178.753 251.349 C 185.791 260.464, 198.595 264.933, 205.226 260.588 C 207.435 259.141, 207.960 257.875, 208.513 252.682 C 209.941 239.253, 209.239 177.814, 207.628 175.207 C 207.358 174.770, 207.045 162.958, 206.932 148.957 C 206.819 134.956, 206.357 120.575, 205.905 117 C 205.453 113.425, 204.880 106, 204.632 100.500 C 204.096 88.619, 202.160 73.198, 200.899 70.764 C 200.405 69.809, 200 67.923, 200 66.573 C 200 65.223, 199.550 63.840, 199 63.500 C 198.450 63.160, 198 62.207, 198 61.381 C 198 58.483, 191.616 50.062, 188.631 49.021 C 185.088 47.786, 185.330 47.774, 181 49.412 M 170 95.702 C 169.175 96.001, 167.150 97.487, 165.500 99.003 C 163.684 100.673, 159.541 102.622, 155 103.943 C 150.875 105.142, 146.466 106.546, 145.203 107.062 C 143.940 107.578, 141.823 108, 140.500 108 C 137.495 108, 132.889 109.992, 131.282 111.988 C 128.363 115.611, 130.924 123.028, 135.079 122.985 C 136.671 122.969, 144.095 120.491, 146.763 119.086 C 147.718 118.582, 152.325 116.727, 157 114.963 C 166.180 111.499, 175.394 106.022, 176.384 103.442 C 178.625 97.602, 175.433 93.732, 170 95.702 M 93.500 110.162 C 91.300 111.303, 85.089 116.795, 79.698 122.368 C 70.362 132.017, 69.922 132.667, 70.459 136 C 73.159 152.766, 72.997 177.260, 70.087 192.500 C 68.412 201.267, 67.052 207.106, 66.463 208.059 C 66.149 208.568, 65.446 211.751, 64.902 215.131 C 63.984 220.828, 64.074 221.450, 66.130 223.639 C 67.350 224.937, 69.188 226, 70.214 226 C 72.665 226, 79.575 222.462, 84.144 218.867 C 86.148 217.290, 88.123 216, 88.533 216 C 89.158 216, 99.330 207.520, 103.821 203.255 C 106.620 200.597, 108.853 201.923, 113.388 208.932 C 115.854 212.745, 119.090 218.352, 120.578 221.392 C 123.573 227.508, 127.274 231.567, 128.926 230.546 C 130.850 229.356, 130.177 218.783, 128 216 C 126.924 214.625, 126.034 212.768, 126.022 211.872 C 126.010 210.977, 125.325 209.685, 124.500 209 C 123.675 208.315, 123 207.324, 123 206.797 C 123 205.337, 116.467 195.812, 111.931 190.658 C 106.804 184.835, 102.134 183.586, 98.444 187.053 C 96.700 188.691, 96 190.416, 96 193.077 C 96 196.504, 95.243 197.500, 86.634 205.403 C 81.483 210.131, 76.718 214, 76.046 214 C 74.705 214, 75.516 206.384, 77.063 204.458 C 77.523 203.885, 78.034 200.290, 78.200 196.468 C 78.486 189.840, 78.639 189.455, 81.500 188.137 C 85.554 186.269, 91.608 180.361, 93.059 176.858 C 93.745 175.202, 95.004 174, 96.053 174 C 98.922 174, 101.736 169.036, 102.291 162.996 C 102.808 157.375, 103.700 152.669, 104.755 150 C 106.356 145.949, 108.314 131.475, 108.402 123.042 L 108.500 113.583 105.500 112.042 C 103.850 111.194, 102.140 109.938, 101.700 109.250 C 100.574 107.489, 98.133 107.760, 93.500 110.162 M 93.500 123.753 C 91.850 125.279, 88.475 128.085, 86 129.988 C 83.525 131.891, 81.169 133.910, 80.765 134.474 C 80.361 135.038, 80.024 138.762, 80.015 142.750 C 80.001 149.453, 80.158 150, 82.100 150 C 83.255 150, 85.775 148.425, 87.700 146.500 C 90.481 143.719, 91.986 143, 95.028 143 L 98.856 143 99.500 137.750 C 99.855 134.863, 100 130.029, 99.822 127.009 C 99.438 120.460, 97.910 119.673, 93.500 123.753 M 156.353 138.628 C 151.141 140.476, 145.381 145.987, 144.508 149.963 C 143.648 153.880, 142.494 153.790, 138.564 149.500 C 135.094 145.712, 132.953 145.147, 130.998 147.502 C 129.292 149.558, 130.376 154.265, 133.858 159.924 C 136.790 164.689, 136.982 165.353, 139.061 177.905 C 139.985 183.485, 140.006 185.761, 139.144 187.141 C 137.552 189.690, 137.716 193.519, 139.479 194.982 C 140.647 195.952, 142.063 195.950, 146.229 194.974 C 149.128 194.294, 151.950 193.404, 152.500 192.995 C 154.873 191.233, 165.967 188, 169.642 188 C 173.618 188, 178 184.989, 178 182.257 C 178 180.190, 174.877 178, 171.929 178 C 169.730 178, 169 177.532, 169 176.122 C 169 175.090, 169.675 173.685, 170.500 173 C 171.325 172.315, 172 171.151, 172 170.413 C 172 169.674, 172.827 168.628, 173.839 168.086 C 176.305 166.767, 179.440 153.563, 178.545 148.266 C 177.892 144.404, 174.714 140.501, 170.316 138.162 C 167.414 136.618, 161.462 136.817, 156.353 138.628 M 97.180 146.284 C 96.493 147.110, 95.601 149.729, 95.195 152.103 C 94.578 155.719, 93.628 157.076, 89.341 160.460 C 83.311 165.221, 81.392 168.092, 82.691 170.412 C 83.460 171.787, 84.524 171.143, 89.470 166.314 C 94.679 161.229, 95.544 159.799, 97.179 153.573 C 99.159 146.028, 99.160 143.898, 97.180 146.284 M 157.418 150.905 C 152.689 153.803, 148.162 158.507, 147.477 161.235 C 147.127 162.631, 147.478 167.537, 148.257 172.137 C 149.594 180.032, 149.807 180.484, 152.061 180.222 C 157.488 179.590, 167.369 165.782, 168.403 157.386 C 169.105 151.684, 168.433 150.646, 163.418 149.699 C 161.363 149.311, 159.364 149.713, 157.418 150.905" stroke="none" fill="black" fill-rule="evenodd"/>
</svg>