<svg xmlns="http://www.w3.org/2000/svg" width="300" height="300" viewBox="0 0 300 300" version="1.1">
	<path d="M 118.186 10.276 C 117.603 10.978, 115.411 12.141, 113.313 12.860 C 111.216 13.580, 107.592 15.030, 105.261 16.084 C 102.929 17.138, 100.286 18, 99.387 18 C 98.487 18, 94.263 19.575, 90 21.500 C 85.737 23.425, 81.765 25, 81.174 25 C 78.208 25, 60.995 33.534, 56.762 37.104 C 51.723 41.353, 49 41.655, 49 37.966 C 49 36.812, 48.543 35.014, 47.984 33.970 C 46.789 31.738, 39.377 29.213, 38.038 30.582 C 37.022 31.620, 38.860 42.493, 41.489 51 C 43.789 58.445, 44.705 88.213, 43.014 100.558 C 42.340 105.476, 41.627 111.525, 41.429 114 C 40.863 121.090, 36.140 142.682, 34.102 147.500 C 33.404 149.150, 31.567 154.325, 30.020 159 C 26.980 168.185, 19.114 186.345, 15.727 192 C 14.574 193.925, 11.878 197.151, 9.737 199.169 C 6.361 202.349, 5.991 203.115, 6.957 204.919 C 7.569 206.064, 8.803 207, 9.698 207 C 12.099 207, 20.262 201.489, 22.654 198.254 C 25.186 194.830, 30 184.812, 30 182.968 C 30 182.231, 30.888 180.684, 31.974 179.528 C 33.059 178.373, 35.482 172.944, 37.357 167.464 C 42.653 151.987, 43.129 150.689, 44.611 147.669 C 45.375 146.112, 46 143.164, 46 141.119 C 46 139.074, 46.382 136.973, 46.848 136.450 C 47.611 135.595, 50.225 120.801, 51.433 110.500 C 51.691 108.300, 52.406 103.125, 53.022 99 C 53.676 94.616, 54.008 82.463, 53.821 69.750 L 53.500 47.999 56 47.985 C 57.375 47.977, 59.625 47.336, 61 46.561 C 62.375 45.785, 65.354 44.268, 67.621 43.189 C 69.887 42.110, 72.030 40.760, 72.383 40.190 C 72.735 39.620, 75.381 38.387, 78.262 37.451 C 81.143 36.515, 84.400 34.953, 85.500 33.980 C 86.600 33.007, 89.410 31.899, 91.745 31.519 C 94.079 31.138, 96.243 30.415, 96.554 29.913 C 96.864 29.411, 98.450 29, 100.077 29 C 101.705 29, 105.276 27.829, 108.013 26.398 C 110.750 24.967, 114.454 23.729, 116.245 23.648 C 118.950 23.525, 119.462 23.838, 119.274 25.500 C 118.791 29.767, 118.916 63.055, 119.418 63.867 C 119.709 64.339, 120.230 70.525, 120.574 77.613 C 120.918 84.701, 121.528 91.175, 121.930 92 C 122.332 92.825, 122.746 96.136, 122.850 99.358 C 122.954 102.580, 123.455 107.080, 123.962 109.358 C 124.469 111.636, 125.182 117.100, 125.546 121.500 C 125.910 125.900, 127.245 132.875, 128.512 137 C 129.780 141.125, 131.836 148.325, 133.082 153 C 134.328 157.675, 135.609 161.725, 135.928 162 C 136.247 162.275, 137.352 165.200, 138.384 168.500 C 141.132 177.294, 147.931 192, 149.248 192 C 149.662 192, 150 192.706, 150 193.570 C 150 194.433, 151.463 197.191, 153.250 199.699 C 158.319 206.811, 162.659 213.054, 166.316 218.500 C 170.644 224.944, 185.561 239.044, 191.161 241.982 C 205.171 249.335, 217.459 251.040, 223.461 246.462 C 225.292 245.066, 227.324 242.478, 227.978 240.712 C 228.632 238.945, 229.600 236.686, 230.129 235.690 C 232.062 232.055, 230.191 197.578, 227.472 186.745 C 226.367 182.341, 229.469 182.013, 233.461 186.112 C 235.276 187.975, 239.094 191.300, 241.945 193.500 C 244.796 195.700, 249.248 199.300, 251.839 201.500 C 254.430 203.700, 259.914 207.746, 264.025 210.490 C 268.136 213.235, 273.750 217.776, 276.500 220.581 C 282.805 227.014, 286.943 228.159, 289.972 224.309 C 292.200 221.476, 291.921 218.231, 289.299 216.500 C 288.466 215.950, 284.871 213.137, 281.310 210.250 C 277.748 207.362, 274.464 205, 274.012 205 C 273.559 205, 271.391 203.537, 269.192 201.750 C 266.994 199.963, 262.345 196.250, 258.861 193.500 C 255.377 190.750, 251.845 187.956, 251.013 187.291 C 250.181 186.627, 245.386 183.027, 240.359 179.291 C 227.177 169.498, 223.380 165.744, 219.612 158.779 C 215.958 152.027, 214.169 150.638, 213.317 153.895 C 213.014 155.053, 212.257 155.979, 211.633 155.954 C 209.669 155.875, 192.514 143.357, 192.202 141.774 C 192.038 140.943, 193.788 138.303, 196.090 135.907 C 198.431 133.470, 201.766 128.235, 203.659 124.025 C 205.520 119.886, 207.483 115.719, 208.021 114.764 C 210.784 109.861, 207.202 103, 201.880 103 C 200.509 103, 196.714 104.797, 193.444 106.992 C 179.774 116.174, 173.914 120, 173.519 120 C 173.289 120, 171.100 121.350, 168.655 123 C 166.210 124.650, 163.789 126, 163.274 126 C 162.759 126, 161.738 127.121, 161.005 128.491 C 159.031 132.180, 160.939 135.623, 165.706 136.975 C 167.792 137.567, 171.282 139.631, 173.459 141.563 C 177.215 144.893, 177.343 145.196, 175.959 147.450 C 175.157 148.756, 171.575 152.928, 168 156.721 C 164.425 160.514, 159.925 165.709, 158 168.267 C 152.347 175.776, 150.915 175.661, 148.543 167.501 C 147.670 164.497, 146.115 160.567, 145.088 158.769 C 144.061 156.971, 142.906 153.700, 142.521 151.500 C 142.136 149.300, 141.470 147.050, 141.041 146.500 C 140.612 145.950, 139.953 143.700, 139.578 141.500 C 138.845 137.208, 135.432 121.746, 133.948 116 C 133.451 114.075, 132.821 109.228, 132.548 105.229 C 132.275 101.230, 131.571 94.094, 130.984 89.372 C 130.397 84.649, 129.700 75.546, 129.435 69.143 C 129.169 62.739, 128.755 54.125, 128.514 50 C 128.273 45.875, 128.588 36.293, 129.214 28.707 L 130.352 14.914 127.114 11.957 C 123.704 8.842, 119.961 8.137, 118.186 10.276 M 209.229 18.669 C 207.427 19.394, 205 24.434, 205 27.450 C 205 29.756, 205.381 30, 208.981 30 C 213.287 30, 213.259 29.958, 214.387 38.343 C 214.811 41.493, 214.479 42.575, 212.547 44.343 C 211.251 45.529, 208.910 47.666, 207.345 49.092 C 203.545 52.553, 198 60.327, 198 62.193 C 198 64.492, 201.568 67.199, 204.113 66.830 C 205.665 66.605, 207.169 64.986, 208.831 61.750 C 212.253 55.085, 214 55.483, 214 62.929 C 214 69.737, 212.477 72, 207.897 72 C 205.965 72, 204.737 72.607, 204.360 73.750 C 204.043 74.713, 201.707 77.377, 199.168 79.670 L 194.553 83.840 196.261 87.420 C 197.666 90.368, 198.505 91, 201.009 91 C 203.332 91, 204.274 90.410, 205 88.500 C 206.308 85.060, 208.623 85.363, 209.364 89.071 C 209.861 91.553, 210.412 92.080, 212.239 91.821 C 215.767 91.320, 219.657 83.098, 220.891 73.536 C 221.462 69.116, 222.172 63.700, 222.470 61.500 C 225.535 38.867, 224.298 26.722, 218.217 19.750 C 216.765 18.086, 212.079 17.522, 209.229 18.669 M 164.512 23.213 C 163.418 23.847, 161.720 25.114, 160.739 26.029 C 159.757 26.943, 156.377 28.989, 153.227 30.576 C 143.116 35.669, 141.811 38.106, 146.546 43.048 C 149.157 45.773, 149.145 45.721, 152.140 67 C 153.513 76.754, 153.717 91.592, 152.561 97.623 L 151.771 101.745 156.448 104.081 C 160.433 106.072, 161.261 106.201, 162.047 104.958 C 162.554 104.156, 162.976 102.791, 162.985 101.924 C 162.993 101.058, 164.125 99.292, 165.500 98 C 166.875 96.708, 168 95.140, 168 94.514 C 168 93.889, 168.800 92.505, 169.777 91.439 C 174.526 86.258, 176.119 83.091, 175.014 81.026 C 173.366 77.947, 171.468 78.559, 167.338 83.500 C 165.269 85.975, 163.222 88, 162.788 88 C 162.355 88, 162.003 84.737, 162.007 80.750 L 162.014 73.500 168.024 68.548 C 171.330 65.825, 174.748 62.508, 175.620 61.177 C 178.711 56.459, 177.225 49, 173.194 49 C 172.335 49, 169.430 51.285, 166.739 54.077 C 160.719 60.322, 159.059 60.050, 158.843 52.781 C 158.757 49.877, 158.599 46.243, 158.492 44.706 C 158.289 41.801, 159.861 40.116, 165.829 36.838 C 167.493 35.924, 170.068 33.343, 171.551 31.102 C 174.129 27.207, 174.175 26.916, 172.601 24.514 C 170.826 21.805, 167.784 21.316, 164.512 23.213 M 181.379 30.544 C 180.006 32.639, 179.826 34.571, 180.357 41.482 C 180.712 46.098, 181.378 50.916, 181.839 52.188 C 182.299 53.459, 182.387 63.050, 182.035 73.500 C 181.534 88.394, 181.682 92.986, 182.721 94.750 C 184.550 97.855, 187.517 97.612, 188.838 94.250 C 190.024 91.230, 191.781 56.026, 191.492 41.084 C 191.328 32.626, 191.079 31.482, 189.044 29.834 C 185.916 27.302, 183.348 27.539, 181.379 30.544 M 101 53 C 100.175 53.533, 98.676 53.976, 97.669 53.985 C 96.663 53.993, 93.466 55.575, 90.566 57.500 C 87.666 59.425, 85.022 61, 84.691 61 C 84.360 61, 82.431 62.125, 80.405 63.500 C 78.379 64.875, 76.100 66, 75.341 66 C 74.581 66, 72.169 67.131, 69.980 68.513 C 66.893 70.461, 66 71.650, 66 73.813 C 66 77.676, 67.695 79, 72.641 79 C 74.974 79, 77.111 79.371, 77.392 79.825 C 78.456 81.546, 79.087 98.538, 78.139 99.926 C 77.340 101.096, 76.503 100.771, 73.483 98.119 C 69.656 94.759, 66.266 94.312, 64.994 97 C 64.604 97.825, 63.506 99.986, 62.555 101.802 C 60.499 105.727, 60.946 107.369, 64.558 109.165 C 68.646 111.197, 72 118.041, 72 124.353 C 72 128.687, 72.447 130.072, 74.457 131.959 C 76.756 134.120, 76.820 134.447, 75.457 137.084 C 74.655 138.633, 74 140.796, 74 141.891 C 74 142.986, 73.550 144.160, 73 144.500 C 72.450 144.840, 72 146.223, 72 147.573 C 72 148.923, 71.564 150.809, 71.032 151.764 C 70.499 152.719, 69.367 155.674, 68.516 158.330 C 67.665 160.987, 65.401 165.214, 63.485 167.724 C 59.095 173.473, 58.656 178.943, 62.423 180.959 C 65.589 182.653, 68.958 181.737, 74.787 177.595 C 77.379 175.754, 81.075 173.454, 83 172.485 C 84.925 171.515, 89.163 168.707, 92.417 166.243 C 99.798 160.654, 103.862 158.856, 106.236 160.126 C 107.206 160.646, 108 161.723, 108 162.520 C 108 163.318, 109.350 166.164, 111 168.846 C 112.650 171.527, 114.010 174.571, 114.022 175.611 C 114.034 176.650, 114.934 179.462, 116.022 181.859 C 117.110 184.257, 118 187.493, 118 189.050 C 118 190.608, 118.373 192.113, 118.829 192.394 C 120.339 193.327, 122.295 203.792, 121.675 207.615 C 121.323 209.786, 121.526 211.928, 122.155 212.687 C 123.796 214.664, 128.451 214.264, 130.530 211.967 C 132.212 210.109, 132.261 209.399, 131.099 203.717 C 130.400 200.298, 129.734 195.700, 129.619 193.500 C 129.504 191.300, 128.642 187.758, 127.705 185.628 C 126.767 183.498, 125.997 181.023, 125.994 180.128 C 125.990 179.233, 125.394 177.363, 124.669 175.973 C 123.943 174.582, 122.839 171.417, 122.215 168.938 C 121.590 166.459, 119.776 161.971, 118.183 158.965 C 116.590 155.959, 114.749 151.848, 114.092 149.829 C 113.435 147.810, 111.549 144.296, 109.901 142.021 C 107.201 138.294, 106.538 137.915, 103.202 138.192 L 99.500 138.500 99.210 145.021 L 98.919 151.541 94.266 154.521 C 91.707 156.159, 88.912 157.786, 88.056 158.136 C 87.200 158.486, 84.092 160.398, 81.150 162.386 C 78.207 164.374, 75.386 166, 74.880 166 C 73.648 166, 74.701 161.781, 77.750 154.500 C 79.132 151.200, 80.541 146.031, 80.881 143.013 L 81.500 137.525 88.349 133.412 C 95.756 128.963, 96.961 127.687, 96.985 124.273 C 96.993 123.013, 98.085 121.335, 99.500 120.408 C 100.875 119.507, 102 118.210, 102 117.525 C 102 116.840, 103.160 114.570, 104.577 112.481 C 107.910 107.570, 108.434 97.242, 105.514 94.016 C 102.995 91.232, 96.924 89.698, 93.532 90.988 C 88.954 92.728, 88.561 92.303, 86.841 83.750 L 85.182 75.500 89.341 71.200 C 93.137 67.275, 96.574 65.186, 104.265 62.129 C 105.785 61.524, 107.544 59.900, 108.173 58.519 C 110.135 54.214, 105.107 50.346, 101 53 M 91.184 105.043 C 88.826 107.240, 86.641 111.807, 85.532 116.857 C 84.443 121.811, 87.302 120.839, 91.958 114.671 C 96.781 108.284, 98.300 103, 95.314 103 C 94.249 103, 92.390 103.919, 91.184 105.043 M 183.750 127.535 C 178.645 131.280, 177.868 133.324, 180.928 134.961 C 184.300 136.766, 185.871 135.142, 190.810 124.750 C 191.676 122.929, 188.110 124.335, 183.750 127.535 M 182 152 C 180.900 153.100, 180 154.374, 180 154.831 C 180 155.288, 178.907 156.247, 177.572 156.962 C 176.236 157.676, 171.725 162.826, 167.547 168.405 C 163.369 173.985, 159.062 179.105, 157.975 179.783 C 156.889 180.462, 156 181.690, 156 182.512 C 156 184.247, 158.527 189.146, 161.750 193.659 C 162.988 195.391, 164 197.112, 164 197.483 C 164 197.854, 166.700 201.461, 170 205.500 C 173.300 209.539, 176.016 213.216, 176.036 213.671 C 176.103 215.199, 185.442 224.603, 191 228.739 C 197.236 233.379, 208.729 238.321, 212.141 237.829 C 213.868 237.580, 214.725 236.443, 215.678 233.141 C 216.370 230.743, 217.350 228.268, 217.856 227.641 C 219.007 226.212, 219.912 220.045, 220.640 208.671 C 221.167 200.430, 218.780 176.504, 217.111 173.313 C 216.770 172.659, 211.543 168.510, 205.495 164.092 C 183.161 147.774, 185.184 148.816, 182 152" stroke="none" fill="black" fill-rule="evenodd"/>
</svg>