<svg xmlns="http://www.w3.org/2000/svg" width="300" height="300" viewBox="0 0 300 300" version="1.1">
	<path d="M 73.500 20.713 C 70.837 21.382, 68.898 23.026, 69.543 24.069 C 69.829 24.533, 69.342 26.619, 68.460 28.706 C 67.578 30.793, 66.668 34.436, 66.438 36.803 C 66.046 40.829, 63.862 47.619, 57.528 64.500 C 56.083 68.350, 54.219 73.525, 53.385 76 C 52.551 78.475, 50.773 82.875, 49.434 85.777 C 48.095 88.680, 47 92.302, 47 93.827 C 47 95.352, 46.630 97.028, 46.177 97.550 C 45.724 98.073, 44.498 101.200, 43.453 104.500 C 42.408 107.800, 40.754 111.573, 39.776 112.885 C 38.799 114.197, 38 116.072, 38 117.052 C 38 118.032, 37.062 121.009, 35.915 123.667 C 34.769 126.325, 33.149 130.525, 32.316 133 C 30.682 137.854, 30.014 139.431, 24.572 151.272 C 22.607 155.546, 21 159.715, 21 160.536 C 21 161.356, 20.614 162.809, 20.143 163.764 C 19.671 164.719, 18.607 166.850, 17.779 168.500 C 16.950 170.150, 15.952 172.837, 15.561 174.471 C 14.955 177.008, 7.884 192.837, 4.945 198.236 C 4.425 199.191, 4 200.853, 4 201.929 C 4 203.005, 3.079 205.447, 1.952 207.356 C 0.326 210.112, -0.034 212.203, 0.202 217.509 L 0.500 224.192 3.250 222.023 C 4.763 220.831, 6 219.188, 6 218.373 C 6 216.829, 9.350 208.607, 11.041 206 C 11.577 205.175, 12.509 203.375, 13.114 202 C 13.719 200.625, 14.618 198.825, 15.113 198 C 15.608 197.175, 16.268 195.825, 16.579 195 C 16.891 194.175, 17.563 192.713, 18.073 191.750 C 18.583 190.787, 19.386 189.212, 19.857 188.250 C 20.329 187.287, 21.402 185.150, 22.242 183.500 C 23.082 181.850, 24.090 178.925, 24.481 177 C 24.873 175.075, 26.050 172.012, 27.097 170.193 C 28.144 168.374, 29 166.185, 29 165.329 C 29 164.473, 29.957 161.911, 31.126 159.636 C 32.295 157.361, 33.645 154.718, 34.126 153.763 C 35.518 150.998, 37.970 143.627, 37.985 142.158 C 37.993 141.419, 38.900 139.671, 40 138.273 C 41.100 136.874, 42 134.752, 42 133.556 C 42 132.361, 42.661 130.509, 43.468 129.441 C 44.276 128.374, 44.951 126.744, 44.968 125.819 C 44.986 124.895, 46.987 119.945, 49.416 114.819 C 51.844 109.694, 54.123 104.069, 54.480 102.319 C 55.370 97.954, 57.315 96.458, 59.394 98.537 C 60.277 99.420, 61 100.561, 61 101.071 C 61 102.928, 65.853 101.929, 71.609 98.886 C 79.214 94.867, 81 93.230, 81 90.279 C 81 85.807, 79.266 84, 74.975 84 C 71.633 84, 70.167 84.774, 65.500 89 C 60.074 93.914, 58 95.011, 58 92.968 C 58 91.409, 62.065 79.643, 62.999 78.500 C 64.332 76.868, 68 65.752, 68 63.344 C 68 62.120, 68.456 60.836, 69.012 60.492 C 70.142 59.794, 79 68.200, 79 69.971 C 79 72.184, 82.076 77, 83.490 77 C 85.639 77, 90 69.972, 90 66.508 C 90 64.650, 89.018 62.420, 87.459 60.739 C 84.486 57.533, 77.966 54, 75.021 54 C 73.297 54, 73.059 53.553, 73.559 51.250 C 73.887 49.737, 74.508 47.600, 74.939 46.500 C 76.316 42.986, 77.791 37.615, 78.474 33.627 C 78.838 31.497, 79.668 28.904, 80.317 27.865 C 81.250 26.369, 81.177 25.406, 79.964 23.245 C 78.379 20.421, 76.928 19.853, 73.500 20.713 M 165.614 28.721 C 163.626 30.767, 162 32.788, 162 33.211 C 162 33.634, 159.489 35.647, 156.420 37.684 C 150.237 41.790, 148.835 41.619, 145.954 36.411 C 145.068 34.810, 143.184 32.847, 141.767 32.048 C 136.975 29.348, 134.823 33.866, 136.620 42.850 C 137.322 46.361, 144.010 51, 148.369 51 C 149.751 51, 151.148 51.431, 151.474 51.958 C 151.799 52.484, 150.095 55.747, 147.686 59.208 C 145.277 62.668, 143.125 66.001, 142.903 66.613 C 142.681 67.225, 141.490 69.025, 140.256 70.613 C 139.022 72.201, 136.650 75.262, 134.984 77.416 C 131.668 81.702, 130.657 84.546, 131.167 88.148 C 131.422 89.949, 132.591 90.862, 136.154 92.045 C 140.170 93.379, 140.671 93.837, 139.805 95.385 C 139.239 96.395, 138.851 103.871, 138.915 112.505 L 139.030 127.832 136.380 129.916 C 134.923 131.062, 132.903 132, 131.892 132 C 130.881 132, 128.129 132.858, 125.777 133.906 C 118.060 137.344, 107.557 141.655, 104.500 142.638 C 101.979 143.449, 101.535 144.074, 101.716 146.551 C 102.109 151.917, 108.294 154.758, 112.559 151.532 C 113.626 150.724, 115.423 150.049, 116.550 150.032 C 117.678 150.014, 119.028 149.620, 119.550 149.156 C 120.073 148.692, 123.200 147.272, 126.500 146 C 129.800 144.728, 132.927 143.308, 133.450 142.844 C 133.972 142.380, 135.210 142, 136.200 142 C 138.344 142, 138.505 144.541, 136.923 153.440 C 136.330 156.773, 135.409 161.975, 134.875 165 C 132.933 176.002, 131.718 180.719, 127.835 192.325 C 124.715 201.654, 124.130 204.451, 125.062 205.575 C 125.713 206.359, 126.859 207, 127.610 207 C 129.243 207, 134 199.771, 134 197.289 C 134 196.326, 134.861 193.280, 135.912 190.519 C 136.964 187.759, 138.539 182.912, 139.412 179.750 C 140.286 176.588, 141.655 171.637, 142.456 168.750 C 144.126 162.728, 145.599 155.492, 146.478 149 C 148.014 137.654, 148.727 136.803, 164.664 127.276 C 173.974 121.711, 173.618 121.491, 174.294 133.230 C 174.836 142.640, 175.179 161.068, 175.340 189.500 C 175.413 202.293, 174.006 236.163, 173.358 237.222 C 173.115 237.619, 172.721 242.344, 172.483 247.722 C 171.916 260.502, 169.573 282.688, 167.305 296.750 L 166.781 300 171.778 300 L 176.774 300 177.274 293.250 C 177.548 289.538, 178.272 282.450, 178.881 277.500 C 179.491 272.550, 180.445 264, 181.001 258.500 C 181.557 253, 182.443 244.450, 182.968 239.500 C 183.893 230.789, 185.511 187.222, 185.400 174 C 185.292 161.242, 183.973 129.434, 183.397 125.710 C 182.607 120.605, 185.159 115.239, 188.793 114.365 C 190.282 114.007, 193.720 112.541, 196.433 111.107 C 199.146 109.673, 205.213 106.475, 209.915 104 C 215.299 101.166, 219.017 98.502, 219.957 96.804 C 221.352 94.285, 221.292 93.940, 219.051 91.554 C 214.735 86.960, 207.902 88.423, 202.221 95.156 C 199.384 98.520, 185.487 106.124, 183.542 105.378 C 182.040 104.801, 178.602 95.366, 177.392 88.500 C 177.005 86.300, 175.970 83.952, 175.094 83.282 C 172.923 81.623, 169.162 81.695, 167.429 83.429 C 165.851 85.006, 165.482 92.052, 166.898 93.550 C 168.208 94.935, 172.170 110.114, 171.606 111.584 C 170.922 113.366, 150.893 123.304, 149.973 122.319 C 149.553 121.868, 149.029 116.093, 148.809 109.485 C 148.453 98.842, 148.143 97.112, 146.086 94.330 C 143.384 90.675, 143.777 89.664, 148.926 87.038 C 151.011 85.974, 156.450 82.605, 161.012 79.552 C 165.574 76.498, 169.764 74, 170.324 74 C 170.884 74, 172.134 73.283, 173.102 72.407 C 174.070 71.532, 176.355 70.069, 178.181 69.157 C 182.349 67.076, 183.013 63.708, 179.908 60.402 C 176.824 57.120, 174.075 57.382, 168.359 61.505 C 165.687 63.433, 162.825 65.299, 162 65.652 C 161.175 66.005, 159.375 67.289, 158 68.505 C 154.548 71.560, 149.188 74.522, 148.450 73.783 C 147.638 72.971, 149.614 69.313, 153.194 65 C 158.603 58.483, 163.490 52.167, 166 48.447 C 167.375 46.410, 170.434 42.594, 172.797 39.967 C 178.199 33.964, 179.337 29.050, 175.887 26.633 C 172.285 24.111, 169.552 24.666, 165.614 28.721 M 69.365 111.382 C 66.598 114.002, 63.543 115.991, 62.280 115.994 C 60.977 115.998, 59.144 117.239, 57.842 119 C 56.622 120.650, 54.864 122, 53.934 122 C 50.341 122, 49.641 124.507, 50.927 132.769 C 51.589 137.021, 52.616 142.438, 53.211 144.808 C 54.993 151.909, 53.399 175.521, 50.548 184.258 C 49.248 188.241, 47.859 193.300, 47.462 195.500 C 47.064 197.700, 46.362 199.980, 45.900 200.566 C 45.438 201.152, 44.759 204.197, 44.391 207.333 C 43.838 212.038, 44.034 213.380, 45.515 215.017 C 48.899 218.756, 57.452 216.693, 59.784 211.575 C 60.429 210.159, 61.468 209, 62.091 209 C 62.715 209, 64.637 207.856, 66.363 206.458 C 77.558 197.387, 83.836 191.675, 84.999 189.501 C 86.653 186.412, 88.556 186.303, 90.112 189.209 C 90.762 190.423, 92.100 192.111, 93.086 192.959 C 96.533 195.924, 102.249 207.093, 105.943 218.080 C 107.652 223.162, 108.858 225.076, 111.243 226.485 C 114.293 228.286, 114.354 228.281, 116.166 226.044 C 118.462 223.208, 118.459 221.929, 116.145 216.695 C 115.125 214.388, 113.272 209.800, 112.027 206.500 C 110.783 203.200, 109.368 199.719, 108.883 198.764 C 108.397 197.809, 108 196.556, 108 195.980 C 108 195.403, 105.805 191.685, 103.121 187.716 C 100.438 183.747, 97.522 179.077, 96.641 177.338 C 94.794 173.691, 90.731 170.221, 87.297 169.360 C 84.508 168.660, 81 171.333, 81 174.159 C 81 175.175, 80.204 177.493, 79.231 179.309 C 76.986 183.496, 66.906 195, 65.480 195 C 64.889 195, 62.648 196.800, 60.500 199 C 58.352 201.200, 56.235 203, 55.797 203 C 54.688 203, 54.795 197.611, 55.926 196.450 C 56.436 195.928, 57.562 191.675, 58.429 187 C 60.162 177.657, 61.433 175.962, 69.750 171.898 C 72.088 170.756, 74 169.517, 74 169.144 C 74 168.771, 76.065 166.105, 78.590 163.219 C 81.114 160.333, 83.347 156.966, 83.553 155.736 C 84.254 151.539, 86.045 142.507, 87.023 138.236 C 88.297 132.674, 88.282 120.292, 87 119.500 C 86.450 119.160, 86 117.412, 86 115.615 C 86 111.534, 82.613 108.136, 77.758 107.348 C 74.589 106.834, 73.735 107.245, 69.365 111.382 M 70.245 123.190 C 68.653 124.789, 66.815 125.455, 63.995 125.455 C 60.316 125.455, 60 125.669, 60 128.168 C 60 129.661, 60.464 131.169, 61.031 131.519 C 61.628 131.888, 61.792 133.592, 61.421 135.570 C 60.019 143.045, 63.684 143.734, 66.441 136.514 C 68.139 132.069, 73.498 127, 76.500 127 C 77.691 127, 78.047 126.257, 77.816 124.250 C 77.393 120.571, 73.408 120.013, 70.245 123.190 M 71.761 144.681 C 69.793 148.832, 68.992 149.569, 65.988 150 C 62.521 150.497, 62.498 150.533, 62.204 156.125 C 61.802 163.759, 63.832 164.618, 69.163 159.070 C 71.274 156.874, 73 154.855, 73 154.583 C 73 154.311, 74.146 152.399, 75.548 150.335 C 78.478 146.016, 78.596 140.724, 75.773 140.189 C 74.550 139.958, 73.379 141.268, 71.761 144.681" stroke="none" fill="black" fill-rule="evenodd"/>
</svg>