<svg xmlns="http://www.w3.org/2000/svg" width="300" height="300" viewBox="0 0 300 300" version="1.1">
	<path d="M 63.280 5.691 C 63.535 8.886, 64.301 13.525, 64.983 16 C 65.664 18.475, 66.201 24.671, 66.176 29.769 C 66.132 38.517, 66.267 39.129, 68.570 40.638 C 71.447 42.523, 73.426 41.423, 74.442 37.376 C 75.673 32.470, 80.018 27.063, 85.981 23.013 C 91.021 19.590, 92 18.453, 92 16.019 C 92 12.977, 88.992 10, 85.917 10 C 85.016 10, 82.588 11.148, 80.521 12.550 C 74.740 16.474, 73.587 15.698, 73 7.491 L 72.500 0.500 67.658 0.191 L 62.816 -0.117 63.280 5.691 M 126.500 16.935 C 122.002 18.030, 117.677 20.520, 112.525 24.979 C 109.978 27.183, 107.018 29.455, 105.947 30.028 C 101.925 32.181, 104.482 38, 109.450 38 C 110.319 38, 114.124 35.750, 117.905 33 C 121.686 30.250, 125.054 28, 125.390 28 C 126.407 28, 126.082 30.005, 124.442 33.849 C 119.833 44.653, 117.375 47.340, 114.017 45.243 C 109.914 42.680, 106 44.373, 106 48.710 C 106 50.908, 107.068 52.214, 111.427 55.347 C 113.285 56.683, 113.292 56.864, 111.621 60.386 C 110.597 62.544, 108.688 64.544, 106.959 65.270 C 104.206 66.426, 94 77.434, 94 79.247 C 94 80.239, 90.579 85.211, 86.750 89.785 C 85.237 91.591, 84 93.497, 84 94.020 C 84 95.332, 79.205 103.176, 69.034 118.501 C 64.288 125.652, 60.123 132.177, 59.778 133.001 C 59.434 133.826, 56.626 138.100, 53.539 142.500 C 50.451 146.900, 46.254 152.975, 44.213 156 C 42.171 159.025, 39.938 162.095, 39.250 162.821 C 38.563 163.548, 38 164.453, 38 164.832 C 38 165.210, 36.983 166.641, 35.741 168.010 C 34.498 169.380, 32.626 171.832, 31.580 173.461 C 29.677 176.422, 10.569 199.553, 6.602 203.696 C 5.446 204.904, 3.487 206.945, 2.250 208.231 C -0.793 211.394, -0.891 217, 2.096 217 C 5.250 217, 8.774 214.047, 16.500 204.933 C 25.205 194.663, 29.180 190.155, 36.356 182.410 C 39.460 179.060, 42 176.017, 42 175.648 C 42 174.599, 49.838 163.379, 51.583 161.931 C 52.443 161.218, 54.021 159.029, 55.091 157.067 C 56.160 155.105, 58.609 151.475, 60.532 149 C 62.455 146.525, 64.671 143.114, 65.456 141.420 C 66.242 139.727, 67.631 137.721, 68.544 136.964 C 70.046 135.717, 75.708 127.540, 78.559 122.500 C 79.181 121.400, 80.951 118.250, 82.493 115.500 C 84.035 112.750, 86.467 109.078, 87.898 107.339 C 89.329 105.600, 91.625 102.532, 93 100.520 C 100.277 89.873, 102.812 88.808, 109.022 93.790 C 112.637 96.689, 125.677 105.756, 128.743 107.500 C 129.709 108.050, 132.606 109.962, 135.180 111.750 C 137.754 113.537, 140.272 115, 140.775 115 C 141.278 115, 142.494 115.889, 143.477 116.974 C 144.460 118.060, 146.153 119.231, 147.239 119.576 C 148.325 119.921, 149.953 120.809, 150.857 121.550 C 154.396 124.451, 168.323 134.116, 170.842 135.418 C 174.919 137.526, 176.956 140.296, 176.717 143.406 C 176.518 145.995, 176.953 146.378, 182 148.048 C 189.410 150.500, 190.516 150.431, 192.927 147.365 C 195.642 143.914, 195.571 139.939, 192.750 137.494 C 187.339 132.805, 181.778 128.934, 178.459 127.547 C 176.489 126.724, 173.668 125.120, 172.189 123.982 C 167.508 120.380, 135.827 99.580, 132.086 97.653 C 130.114 96.637, 127.375 94.791, 126 93.550 C 124.625 92.309, 121.475 89.905, 119 88.206 C 116.525 86.508, 113.150 84.006, 111.500 82.648 L 108.500 80.177 110.605 77.839 C 111.762 76.552, 113.787 73.488, 115.105 71.029 C 118.128 65.385, 120.095 63, 121.727 63 C 125.500 63, 155.419 80.376, 158.080 84.112 C 161.561 89.001, 168 86.880, 168 80.846 C 168 76.849, 164.013 73.879, 143.500 62.593 C 138 59.567, 131.932 55.776, 130.015 54.168 C 126.881 51.539, 126.649 51.007, 127.703 48.873 C 128.347 47.568, 129.145 45.528, 129.476 44.339 C 129.807 43.151, 131.185 41.453, 132.539 40.566 C 133.893 39.680, 135 38.257, 135 37.405 C 135 36.553, 136.183 33.837, 137.630 31.369 C 140.542 26.400, 141.212 20.165, 139.107 17.629 C 137.675 15.903, 132.018 15.592, 126.500 16.935 M 52.076 41.409 C 51.433 42.184, 50.464 48.286, 49.922 54.970 C 49.217 63.686, 48.381 68.162, 46.968 70.798 C 45.553 73.438, 45.176 75.464, 45.630 77.987 C 46.453 82.571, 47.680 84, 50.791 84 C 55.968 84, 66 86.234, 66 87.387 C 66 89.508, 51.765 102.244, 43.683 107.353 C 38.574 110.583, 36.721 112.959, 38.056 114.567 C 40.169 117.113, 43.981 116.048, 55 109.833 C 55.825 109.368, 57.175 108.690, 58 108.326 C 60.121 107.390, 68.900 100.126, 72.705 96.157 C 79.900 88.655, 87 78.516, 87 75.745 C 87 75.313, 88.159 73.124, 89.576 70.879 C 90.993 68.635, 92.573 64.481, 93.086 61.649 C 95.337 49.233, 95.337 49.282, 93.041 45.567 C 90.973 42.220, 90.518 42, 85.668 42.008 C 80.696 42.015, 80.164 42.300, 71.640 49.508 C 66.767 53.629, 62.374 57, 61.878 57 C 61.382 57, 61.041 53.993, 61.121 50.317 C 61.247 44.501, 60.975 43.398, 59.022 41.817 C 56.335 39.641, 53.673 39.485, 52.076 41.409 M 74.204 59.211 C 70.980 62.120, 67.027 65.206, 65.421 66.069 C 62.492 67.642, 59.154 72.487, 60.246 73.580 C 60.567 73.900, 61.774 73.656, 62.929 73.038 C 64.666 72.109, 65.140 72.225, 65.667 73.707 C 66.761 76.785, 69.218 79, 71.540 79 C 73.991 79, 75.649 76.823, 78.395 70 C 79.391 67.525, 80.609 64.719, 81.103 63.764 C 82.296 61.454, 82.250 55.273, 81.033 54.521 C 80.501 54.192, 77.428 56.303, 74.204 59.211 M 104 103.707 C 92.619 107.869, 88.636 111.491, 89.181 117.179 C 89.584 121.373, 92.228 121.944, 97.883 119.059 C 100.104 117.927, 103.704 117, 105.883 117 C 110.696 117, 116 113.060, 116 109.484 C 116 105.059, 109.223 101.796, 104 103.707 M 105 129.573 C 101.975 130.977, 98.250 133.319, 96.723 134.776 L 93.946 137.426 90.499 135.569 C 87.679 134.051, 86.774 133.943, 85.526 134.979 C 83.528 136.637, 83.638 139.534, 86.135 151 C 89.670 167.237, 90.747 214.766, 87.982 232.500 C 87.467 235.800, 86.562 241.929, 85.971 246.120 C 83.844 261.205, 87.839 265.647, 97.533 258.977 C 99.949 257.315, 102.280 255.361, 102.713 254.635 C 103.146 253.909, 104.750 252.509, 106.278 251.524 C 110.022 249.111, 121.788 232.478, 125.218 224.750 C 126.177 222.588, 127.114 222, 129.597 222 C 131.334 222, 133.288 222.642, 133.939 223.426 C 134.590 224.211, 137.682 225.649, 140.811 226.623 C 143.940 227.596, 148.525 229.563, 151 230.992 C 153.475 232.421, 157.655 234.402, 160.289 235.393 C 162.924 236.384, 166.299 238.217, 167.789 239.466 C 169.280 240.714, 172.975 243.004, 176 244.555 C 179.025 246.106, 184.069 249.095, 187.208 251.196 C 190.348 253.298, 193.948 255.428, 195.208 255.929 C 196.469 256.430, 200.604 258.901, 204.398 261.420 C 208.192 263.939, 211.650 266, 212.082 266 C 212.513 266, 215.177 268.250, 218 271 C 220.823 273.750, 223.365 276, 223.647 276 C 223.930 276, 226.582 277.607, 229.540 279.570 C 236.001 283.859, 239.956 283.950, 241.392 279.844 C 242.013 278.065, 241.930 276.248, 241.139 274.344 C 240.088 271.813, 238.502 270.468, 231.761 266.389 C 230.751 265.778, 228.929 264.399, 227.713 263.324 C 226.496 262.249, 223.475 260.518, 221 259.478 C 218.525 258.437, 213.258 255.429, 209.295 252.793 C 205.332 250.157, 201.840 248, 201.534 248 C 201.228 248, 198.376 246.225, 195.197 244.055 C 192.018 241.885, 188.311 239.627, 186.959 239.037 C 185.606 238.447, 182.025 236.392, 179 234.470 C 173.387 230.904, 155.617 222, 154.113 222 C 153.291 222, 139.831 216.105, 135 213.630 C 133.625 212.925, 130.475 211.742, 128 211 C 125.525 210.259, 123.073 209.280, 122.550 208.826 C 122.028 208.372, 120.592 208, 119.359 208 C 116.178 208, 115.354 206.009, 117.750 204.113 C 118.870 203.226, 120.067 201.600, 120.408 200.500 C 120.750 199.400, 122.299 197.825, 123.850 197 C 126.465 195.609, 134.108 187.631, 141.683 178.385 C 143.434 176.248, 146.163 172.925, 147.749 171 C 154.525 162.775, 157.204 158.217, 156.523 156.072 C 154.970 151.179, 146.890 149.399, 144.601 153.446 C 143.995 154.516, 140.227 160.513, 136.226 166.774 C 125.313 183.853, 103.799 205.288, 99.303 203.563 C 97.986 203.057, 97.819 201.840, 98.324 196.432 C 98.810 191.227, 99.697 188.703, 102.717 183.933 C 104.797 180.646, 106.963 177.179, 107.528 176.228 C 108.094 175.278, 111.518 171.523, 115.138 167.885 C 123.846 159.132, 125.163 156.402, 125.750 145.891 C 126.149 138.748, 125.923 136.790, 124.420 134.391 C 119.538 126.601, 114.235 125.286, 105 129.573 M 108.589 139.744 C 108.180 140.153, 105.292 141.866, 102.173 143.550 C 98.313 145.634, 96.398 147.314, 96.180 148.810 C 95.658 152.398, 98.711 152.653, 102.316 149.323 C 104.067 147.706, 107.188 145.148, 109.250 143.640 C 111.313 142.132, 113 140.471, 113 139.949 C 113 138.827, 109.661 138.672, 108.589 139.744 M 100.535 164.104 C 96.709 167.463, 95.823 171, 98.807 171 C 100.283 171, 107 163.187, 107 161.471 C 107 160.025, 103.605 161.408, 100.535 164.104 M 97.750 216.566 C 97.338 216.988, 97 220.551, 97 224.483 C 97 228.415, 96.517 234.247, 95.926 237.442 C 95.284 240.917, 95.216 243.616, 95.759 244.159 C 96.993 245.393, 99.805 244.191, 100.452 242.153 C 100.742 241.238, 103.472 238.543, 106.519 236.163 C 111.970 231.906, 120 222.394, 120 220.194 C 120 219.576, 119.209 218.647, 118.241 218.129 C 115.928 216.891, 98.716 215.578, 97.750 216.566" stroke="none" fill="black" fill-rule="evenodd"/>
</svg>