<svg xmlns="http://www.w3.org/2000/svg" width="300" height="300" viewBox="0 0 300 300" version="1.1">
	<path d="M 145.595 13.168 C 143.322 16.413, 143.575 17.769, 147.321 22.397 C 149.147 24.654, 151.022 27.141, 151.487 27.924 C 152.461 29.563, 154.950 44.118, 154.980 48.346 C 155.004 51.806, 148.128 62.950, 145.951 62.979 C 144.298 63.001, 142 57.842, 142 54.109 C 142 52.872, 143.350 49.898, 145 47.500 C 148.630 42.224, 149.104 35.585, 146.115 31.893 C 144.498 29.897, 143.999 29.756, 142.615 30.905 C 141.727 31.642, 141 33.245, 141 34.467 C 141 35.690, 140.059 37.541, 138.910 38.582 C 136.858 40.438, 136.793 40.437, 135.410 38.546 C 134.634 37.485, 134 35.830, 134 34.868 C 134 33.905, 133.571 32.853, 133.046 32.529 C 132.522 32.204, 131.789 29.260, 131.419 25.986 C 130.664 19.316, 129.407 17.708, 125.310 18.178 C 122.520 18.498, 122.501 18.549, 122.578 25.500 C 122.652 32.192, 124.635 41.047, 127.091 45.659 C 127.989 47.346, 127.934 48.256, 126.838 49.821 C 124.715 52.851, 115.017 59.839, 111.174 61.108 C 107.975 62.163, 107.809 62.438, 108.354 65.795 C 109.185 70.918, 110.927 72.292, 115.499 71.434 C 117.998 70.965, 121.107 69.073, 124.652 65.862 C 127.605 63.188, 130.640 61, 131.396 61 C 133.289 61, 135.308 64.444, 137.418 71.277 L 139.203 77.053 136.270 82.777 C 134.657 85.924, 132.881 89.400, 132.325 90.500 C 131.768 91.600, 130.792 93.506, 130.156 94.736 C 129.520 95.966, 128.993 97.766, 128.985 98.736 C 128.977 99.706, 128.322 102.361, 127.529 104.637 C 126.015 108.983, 125.991 108.825, 129.949 120.603 C 133.048 129.823, 132.891 130.334, 125.750 134.293 C 122.313 136.198, 118.375 138.056, 117 138.421 C 115.625 138.786, 112.122 140.304, 109.217 141.793 L 103.933 144.500 104.582 148.500 C 104.939 150.700, 105.430 152.838, 105.674 153.250 C 106.418 154.506, 112.241 154.086, 113.921 152.655 C 114.790 151.915, 117.300 150.608, 119.500 149.749 C 121.700 148.891, 126.174 146.571, 129.441 144.594 C 136.623 140.249, 138.724 140.082, 140.024 143.750 C 140.560 145.262, 141.460 147.175, 142.024 148 C 142.587 148.825, 144.187 151.975, 145.578 155 C 146.969 158.025, 149.268 162.836, 150.687 165.691 L 153.267 170.881 150.148 175.691 C 142.956 186.782, 129.596 204.945, 118.882 218.198 C 114.692 223.381, 110.133 229.394, 108.750 231.561 C 104.801 237.747, 87.434 257.349, 76.250 268.244 C 70.321 274.019, 69 275.872, 69 278.412 C 69 280.466, 69.698 281.955, 71.060 282.805 C 73.947 284.608, 79.850 281.892, 82.984 277.318 C 84.292 275.409, 89.668 269.403, 94.931 263.971 C 107.868 250.617, 112.350 245.288, 114.915 240.210 C 116.135 237.795, 118.157 235.511, 119.541 234.984 C 120.893 234.470, 122 233.322, 122 232.433 C 122 230.598, 123.608 228.381, 133.582 216.461 C 137.477 211.806, 141.289 206.760, 142.054 205.249 C 142.819 203.737, 144.920 200.811, 146.723 198.747 C 148.525 196.683, 150 194.376, 150 193.620 C 150 192.863, 150.708 191.657, 151.573 190.939 C 152.438 190.221, 154.037 187.888, 155.125 185.754 C 156.645 182.776, 157.614 181.947, 159.296 182.187 C 160.703 182.388, 161.670 183.395, 161.999 185 C 162.771 188.776, 173.987 211.011, 177.132 215 C 178.649 216.925, 181.153 220.779, 182.695 223.564 C 196.715 248.880, 207.229 258.891, 213.555 252.948 C 216.298 250.371, 216.737 245.104, 214.884 237 C 214.318 234.525, 213.613 231.033, 213.317 229.241 C 213.021 227.448, 212.379 225.734, 211.890 225.432 C 211.400 225.129, 211 223.645, 211 222.132 C 211 218.442, 208.408 214.938, 207.123 216.890 C 206.170 218.339, 204.824 231.020, 205.253 234.500 C 205.712 238.217, 201.875 236.849, 199.643 232.500 C 198.514 230.300, 195.658 225.659, 193.295 222.187 C 190.933 218.715, 189 215.607, 189 215.281 C 189 214.955, 187.934 213.291, 186.632 211.584 C 185.329 209.876, 181.812 203.533, 178.817 197.489 C 175.821 191.445, 172.162 184.596, 170.685 182.270 C 169.208 179.943, 168 177.382, 168 176.579 C 168 175.775, 167.550 174.840, 167 174.500 C 165.296 173.447, 165.786 172.559, 173.250 163.164 C 177.238 158.146, 182.850 150.993, 185.721 147.270 C 188.593 143.546, 192.535 138.475, 194.481 136 C 198.540 130.837, 201.732 124.591, 202.645 120.024 C 203.385 116.326, 201.859 111.234, 197.288 102.149 C 195.480 98.555, 194 94.856, 194 93.930 C 194 93.003, 193.325 91.685, 192.500 91 C 191.675 90.315, 191 88.945, 191 87.954 C 191 86.964, 189.425 84.090, 187.500 81.568 C 185.575 79.046, 184 76.402, 184 75.691 C 184 73.477, 181.734 72, 178.335 72 C 174.137 72, 172.817 74.385, 173.651 80.467 C 174.182 84.348, 174.787 85.350, 177.393 86.665 C 181.263 88.619, 185 91.977, 185 93.500 C 185 94.133, 186.153 95.735, 187.562 97.059 C 191.143 100.422, 193.642 104.854, 194.417 109.214 C 195.084 112.967, 194.085 115.610, 189.016 123.500 C 187.956 125.150, 186.301 128.075, 185.337 130 C 183.633 133.403, 177.170 141.766, 168 152.434 C 165.525 155.313, 163.022 158.497, 162.438 159.509 C 160.771 162.401, 159.319 160.667, 153.919 149.330 C 146.876 134.545, 146.792 133.726, 151.867 129.382 C 155.434 126.328, 156 125.296, 156 121.839 C 156 117.139, 157.989 116.989, 159.390 121.582 C 161.704 129.176, 168.696 138, 172.399 138 C 173.596 138, 180 131.695, 180 130.516 C 180 130.289, 179.329 124.981, 178.508 118.721 C 176.898 106.438, 174.917 101, 172.055 101 C 169.741 101, 168.765 106.740, 170.015 113 C 171.243 119.155, 171.203 120, 169.685 120 C 168.348 120, 165 114.011, 165 111.620 C 165 110.898, 164.360 109.001, 163.578 107.404 C 160.117 100.340, 156 90.867, 156 89.970 C 156 89.431, 154.875 86.658, 153.500 83.808 C 152.125 80.958, 151 77.438, 151 75.987 C 151 74.466, 152.058 72.354, 153.500 71 C 154.875 69.708, 156 67.885, 156 66.948 C 156 66.011, 156.745 64.627, 157.655 63.872 C 161.025 61.078, 162.028 56.211, 162.471 40.521 C 162.735 31.133, 162.526 24.825, 161.938 24.462 C 161.405 24.133, 160.302 22.432, 159.487 20.682 C 155.974 13.143, 154.473 11.510, 150.771 11.195 C 147.971 10.957, 146.842 11.388, 145.595 13.168 M 61.655 20.829 C 60.732 21.849, 60 24.323, 60 26.424 C 60 28.496, 59.348 31.386, 58.552 32.846 C 57.755 34.306, 56.360 38.650, 55.452 42.500 C 54.543 46.350, 53.469 49.950, 53.064 50.500 C 52.659 51.050, 51.535 54.200, 50.566 57.500 C 47.033 69.526, 44.757 76.565, 43.450 79.500 C 42.716 81.150, 40.542 87.450, 38.621 93.500 C 36.699 99.550, 33.712 107.875, 31.984 112 C 30.255 116.125, 28.610 120.400, 28.328 121.500 C 27.691 123.981, 23.121 135.882, 21.900 138.236 C 21.405 139.191, 21 140.660, 21 141.500 C 21 142.340, 20.595 143.809, 20.100 144.764 C 18.706 147.453, 14.293 159.048, 12.970 163.500 C 11.869 167.204, 6.445 178.740, 1.920 187 C 0.361 189.847, 0.003 192.544, 0.002 201.450 C -0 212.923, 0.679 213.855, 3.314 206 C 4.144 203.525, 6.438 198.826, 8.412 195.559 C 10.385 192.291, 12 188.830, 12 187.868 C 12 186.905, 12.474 185.825, 13.053 185.467 C 13.633 185.109, 15.676 181.370, 17.594 177.158 C 19.512 172.946, 21.719 168.338, 22.498 166.918 C 23.277 165.498, 24.358 162.573, 24.901 160.418 C 26.154 155.438, 30.195 143.841, 32.713 138 C 33.780 135.525, 35.452 130.575, 36.429 127 C 37.407 123.425, 38.755 119.825, 39.425 119 C 40.096 118.175, 41.255 115.475, 42.002 113 C 42.748 110.525, 44.178 106.830, 45.179 104.790 C 46.181 102.749, 47 99.317, 47 97.162 C 47 94.900, 47.634 92.719, 48.500 92 C 49.325 91.315, 50.014 90.023, 50.032 89.128 C 50.049 88.232, 50.724 86.626, 51.532 85.559 C 52.339 84.491, 53 82.605, 53 81.368 C 53 80.130, 53.450 78.840, 54 78.500 C 54.550 78.160, 55 77.060, 55 76.055 C 55 75.051, 55.679 72.940, 56.509 71.364 C 57.339 69.789, 58.297 66.813, 58.637 64.750 C 58.977 62.688, 59.761 61.014, 60.378 61.031 C 61.790 61.070, 67.524 68.619, 68.910 72.262 C 70.283 75.874, 73.292 75.803, 75.932 72.096 C 78.508 68.478, 78.502 67.994, 75.828 63.307 C 72.506 57.483, 70.926 56, 68.045 56 C 62.738 56, 62.513 53.569, 66.781 42.377 C 71.444 30.150, 70.152 19, 64.073 19 C 63.653 19, 62.565 19.823, 61.655 20.829 M 58.945 87.566 C 58.230 88.427, 56.375 89.789, 54.823 90.592 C 50.138 93.014, 51.249 101, 56.272 101 C 58.735 101, 65.986 96.709, 69.061 93.432 L 71.500 90.832 68.694 88.416 C 65.495 85.661, 60.862 85.257, 58.945 87.566 M 141.110 90.210 C 140.618 91.506, 138.545 94.753, 136.504 97.427 L 132.793 102.288 134.799 105.894 C 135.902 107.877, 137.344 111.326, 138.003 113.558 C 138.662 115.790, 140.014 118.693, 141.008 120.011 C 142.557 122.064, 143.156 122.250, 145.211 121.314 C 146.698 120.636, 148.123 118.658, 148.968 116.097 C 149.717 113.828, 150.930 111.473, 151.665 110.863 C 153.484 109.354, 153.355 108.108, 150.846 102.938 C 149.662 100.497, 147.898 96.250, 146.927 93.500 C 144.968 87.954, 142.499 86.557, 141.110 90.210 M 62.497 106.850 C 61.396 107.207, 57.674 109.257, 54.228 111.404 C 49.938 114.077, 47.759 116.127, 47.322 117.904 C 46.971 119.332, 46.030 121.509, 45.232 122.743 C 43.616 125.238, 43.913 128.481, 46.539 137 C 48.427 143.127, 48.884 156.202, 47.622 168 C 46.800 175.685, 45.587 182.393, 42.029 198.929 C 40.913 204.116, 40 210.310, 40 212.694 C 40 216.512, 40.388 217.266, 43.250 219.011 C 45.038 220.101, 46.867 220.994, 47.315 220.996 C 47.764 220.998, 53.614 215.635, 60.315 209.079 C 67.017 202.522, 73.924 195.772, 75.664 194.079 C 79.177 190.660, 82.726 190.073, 83.700 192.750 C 84.050 193.713, 85.611 196.381, 87.168 198.680 C 88.726 200.979, 90 203.512, 90 204.308 C 90 205.104, 90.624 206.273, 91.388 206.907 C 92.151 207.540, 94.160 210.958, 95.853 214.501 C 98.114 219.234, 99.588 221.110, 101.408 221.566 C 104.474 222.336, 105.845 221.538, 107.091 218.259 C 107.870 216.212, 107.530 214.712, 105.359 210.607 C 103.873 207.798, 102.031 204.150, 101.265 202.500 C 100.500 200.850, 99.467 198.825, 98.971 198 C 98.475 197.175, 96.694 193.800, 95.014 190.500 C 90.655 181.941, 84.036 175, 80.231 175 C 76.982 175, 74.700 177.035, 74.472 180.136 C 74.330 182.057, 64.798 192, 63.098 192 C 62.628 192, 60.334 194.475, 58 197.500 C 53.418 203.440, 52.872 203.756, 51.032 201.539 C 50.160 200.488, 50.093 199.153, 50.794 196.789 C 51.330 194.980, 52.577 189.753, 53.565 185.173 C 55.160 177.782, 55.932 176.181, 60.431 170.928 C 71.091 158.481, 74 154.362, 74 151.714 C 74 151.133, 74.595 149.947, 75.322 149.079 C 76.050 148.210, 77.256 145.475, 78.002 143 C 78.749 140.525, 79.720 138.015, 80.159 137.423 C 81.656 135.405, 83.075 122.009, 82.005 120.008 C 81.452 118.976, 81 117.065, 81 115.761 C 81 114.457, 79.477 111.728, 77.615 109.695 C 74.561 106.362, 73.754 106.010, 69.365 106.100 C 66.689 106.155, 63.599 106.492, 62.497 106.850 M 63.134 117.721 C 61.833 117.968, 60.537 119.054, 60.254 120.136 C 59.944 121.323, 58.569 122.336, 56.784 122.693 C 53.414 123.367, 52.512 124.920, 53.411 128.502 C 54.175 131.545, 57.466 131.866, 58.977 129.044 C 60.224 126.714, 65.655 125.020, 69.514 125.758 C 72.238 126.279, 72.266 126.232, 71.547 122.401 C 71.146 120.264, 70.608 118.174, 70.350 117.758 C 69.862 116.968, 67.176 116.955, 63.134 117.721 M 61.500 137.892 L 57.500 138.500 57.201 145.401 C 56.830 153.964, 58.124 155.771, 61.570 151.500 C 62.901 149.850, 63.992 147.404, 63.995 146.064 C 63.998 144.725, 64.947 142.621, 66.105 141.388 C 67.976 139.397, 68.029 136.764, 66.191 137.142 C 65.811 137.220, 63.700 137.557, 61.500 137.892" stroke="none" fill="black" fill-rule="evenodd"/>
</svg>