<svg xmlns="http://www.w3.org/2000/svg" width="300" height="300" viewBox="0 0 300 300" version="1.1">
	<path d="M 156.379 3.250 C 153.714 6.294, 152.773 8.498, 148.017 22.841 C 145.766 29.628, 142.424 38.403, 140.589 42.341 C 133.576 57.395, 132 61.101, 132 62.541 C 132 63.358, 131.600 64.809, 131.111 65.764 C 130.622 66.719, 129.431 69.300, 128.464 71.500 C 125.826 77.502, 125.629 77.898, 121.180 86.158 C 118.911 90.370, 115.716 95.283, 114.078 97.075 L 111.102 100.334 113.119 103.167 C 115.924 107.106, 118.832 106.768, 122.750 102.049 C 124.537 99.896, 126 97.654, 126 97.067 C 126 96.480, 126.338 95.997, 126.750 95.994 C 127.854 95.984, 131 90.122, 131 88.074 C 131 87.104, 131.860 85.532, 132.910 84.581 C 133.961 83.631, 135.094 81.761, 135.429 80.426 C 135.764 79.092, 136.480 78, 137.019 78 C 137.559 78, 138 76.677, 138 75.059 C 138 73.441, 138.450 71.840, 139 71.500 C 139.550 71.160, 140 69.839, 140 68.563 C 140 67.288, 140.628 65.724, 141.395 65.087 C 142.163 64.450, 143.096 62.304, 143.468 60.318 C 144.419 55.249, 146.797 52, 149.555 52 C 151.797 52, 164.870 56.185, 168.050 57.921 C 168.902 58.386, 172.277 59.341, 175.550 60.043 C 178.822 60.745, 182.429 62.148, 183.564 63.160 C 184.700 64.172, 186.747 65, 188.114 65 C 191.208 65, 193 66.711, 193 69.665 C 193 72.956, 195.856 74.060, 201.897 73.105 C 207.825 72.168, 210.109 69.955, 209.745 65.500 C 209.534 62.916, 208.648 62.068, 203.364 59.386 C 199.989 57.673, 194.364 55.339, 190.864 54.201 C 177.389 49.817, 171.283 47.712, 165.329 45.398 C 161.936 44.079, 157.759 43, 156.048 43 C 152.711 43, 151.063 40.841, 152.794 38.737 C 153.353 38.057, 154.592 34.805, 155.546 31.512 C 157.165 25.921, 158.039 23.741, 160.162 20 C 160.630 19.175, 161.276 17.825, 161.597 17 C 161.918 16.175, 162.556 14.600, 163.013 13.500 C 165.778 6.850, 164.695 1, 160.699 1 C 159.406 1, 157.462 2.012, 156.379 3.250 M 82.130 31.076 C 80.826 31.597, 78.377 33.188, 76.686 34.611 C 74.996 36.033, 72.687 37.634, 71.556 38.168 C 70.425 38.702, 67.250 40.443, 64.500 42.036 C 61.750 43.630, 57.475 45.892, 55 47.064 C 52.525 48.235, 48.864 50.050, 46.864 51.097 C 44.864 52.144, 42.084 53, 40.685 53 C 37.725 53, 35 55.366, 35 57.937 C 35 58.923, 35.923 60.904, 37.052 62.339 C 38.872 64.653, 39.595 64.880, 43.456 64.351 L 47.809 63.754 47.845 75.127 C 47.865 81.382, 48.413 89.650, 49.062 93.500 C 50.450 101.731, 50.559 145.255, 49.209 152.141 C 47.734 159.663, 50.861 162.257, 56.273 158 C 59.619 155.368, 60.188 155.464, 62.203 159.006 C 63.140 160.653, 64.578 162, 65.398 162 C 66.218 162, 68.827 159.663, 71.195 156.807 C 78.845 147.580, 83.366 143.506, 90.162 139.715 C 100.718 133.829, 102.721 134.703, 103.860 145.696 C 104.359 150.517, 104.050 155.414, 102.799 162.500 C 101.828 168, 101.026 172.613, 101.016 172.750 C 100.953 173.717, 96.998 172.702, 95.961 171.453 C 93.857 168.918, 84.577 165, 80.677 165 C 76.665 165, 75.121 166.666, 73.034 173.250 C 71.597 177.783, 69.884 177.975, 66.344 174.002 C 64.145 171.534, 58.876 169.031, 55.827 169.006 C 53.903 168.990, 49 174.437, 49 176.589 C 49 178.657, 49.476 179, 52.352 179 C 55.649 179, 56.367 179.483, 65.423 187.787 C 69.528 191.551, 73.066 193.200, 75.646 192.553 C 77.470 192.095, 77.975 191.044, 78.538 186.542 C 79.221 181.073, 81.659 178, 85.313 178 C 87.090 178, 96 185.976, 96 187.566 C 96 188.229, 94.125 191.636, 91.832 195.136 C 83.819 207.373, 81.975 208.219, 75.430 202.664 C 73.268 200.830, 70.504 199.076, 69.287 198.768 C 64.510 197.556, 63.722 204.274, 68.259 207.527 C 69.492 208.410, 73.596 211.353, 77.380 214.066 C 81.164 216.780, 84.690 219, 85.216 219 C 86.836 219, 96.761 208.085, 99.622 203.159 C 103.671 196.185, 105.354 195.433, 107.252 199.750 C 107.917 201.262, 109.707 204.255, 111.230 206.400 C 115.369 212.227, 115.129 218.592, 110.536 224.810 C 101.574 236.945, 100.556 238, 97.814 238 C 94.219 238, 93.599 239.323, 95.485 242.971 C 96.583 245.095, 97.785 246, 99.506 246 C 102.580 246, 113 239.439, 113 237.504 C 113 236.715, 114.350 234.688, 116 233 C 117.650 231.312, 119 229.512, 119 228.999 C 119 228.486, 121.025 225.787, 123.500 223 C 126.113 220.058, 128 216.950, 128 215.589 C 128 214.300, 128.627 212.725, 129.392 212.089 C 130.158 211.454, 131.338 209.599, 132.014 207.967 C 133.346 204.751, 135.086 204.193, 136.915 206.397 C 137.552 207.165, 142.082 210.108, 146.982 212.935 C 151.881 215.763, 156.150 218.898, 156.469 219.903 C 156.997 221.567, 154.275 227.673, 149.008 236.641 C 146.088 241.611, 146.003 246, 148.826 246 C 151.722 246, 155.221 241.513, 160.769 230.685 C 163.528 225.299, 169.071 225.177, 173.924 230.394 C 175.258 231.827, 176.767 233, 177.278 233 C 177.789 233, 181.357 236.150, 185.207 240 C 191.023 245.816, 192.761 247, 195.481 247 C 197.282 247, 199.241 246.414, 199.836 245.698 C 201.128 244.141, 200.305 240.309, 198.051 237.382 C 195.840 234.511, 183.586 224.092, 177.801 220.164 C 175.217 218.410, 172.878 216.612, 172.605 216.170 C 171.638 214.605, 175.192 206.461, 178.076 203.631 C 179.684 202.054, 181 200.135, 181 199.368 C 181 198.601, 181.520 196.966, 182.155 195.736 C 182.791 194.506, 183.627 192.825, 184.014 192 C 185.192 189.489, 186.560 190.263, 191.086 196 C 196.331 202.647, 209.539 215.433, 213 217.214 C 216.092 218.805, 236.218 236.506, 245 245.359 C 248.575 248.963, 252.299 252.719, 253.276 253.706 C 254.253 254.693, 256.613 257.075, 258.521 259 C 260.429 260.925, 261.993 263.106, 261.995 263.846 C 262.001 265.546, 265.838 271, 267.028 271 C 267.518 271, 269.071 269.762, 270.479 268.250 C 274.970 263.425, 272.427 257.289, 261.782 247.262 C 257.834 243.543, 248.887 235.100, 241.900 228.500 C 234.912 221.900, 225.081 213.125, 220.052 209 C 215.024 204.875, 208.117 198.651, 204.705 195.170 C 201.292 191.688, 196.848 187.768, 194.829 186.457 C 188.932 182.630, 188.923 181.320, 194.703 168 C 195.538 166.075, 196.549 163.825, 196.949 163 C 197.350 162.175, 197.476 159.820, 197.231 157.766 C 196.840 154.495, 197.099 153.913, 199.320 153.069 C 203.406 151.515, 206.984 144.360, 206.885 137.939 C 206.839 134.947, 207.242 129.800, 207.782 126.500 C 208.738 120.647, 208.690 120.426, 205.862 117.500 C 203.409 114.963, 202.199 114.500, 198.023 114.500 C 193.531 114.500, 192.679 114.899, 188.590 118.912 C 183.604 123.805, 181.767 123.587, 180.643 117.967 C 179.897 114.234, 176.241 112.266, 173.138 113.926 C 169.748 115.741, 169.509 119.268, 172.366 125.309 C 174.812 130.480, 177.579 146.323, 176.819 150.809 C 176.418 153.178, 178.690 156, 181 156 C 184.500 156, 185.469 158.629, 184.063 164.311 C 183.357 167.165, 182.154 170.497, 181.390 171.715 C 180.625 172.933, 180 174.869, 180 176.018 C 180 177.166, 178.875 179.762, 177.500 181.785 C 176.125 183.809, 175 185.891, 175 186.412 C 175 188.714, 163.728 210, 162.509 210 C 161.764 210, 159.881 208.970, 158.327 207.711 C 156.772 206.452, 154.375 204.859, 153 204.171 C 151.625 203.484, 149.375 202.270, 148 201.475 C 146.625 200.680, 144.023 200.023, 142.219 200.015 C 138.495 199.998, 137.026 197.790, 138.823 194.911 C 139.450 193.908, 140.255 191.258, 140.613 189.022 C 140.970 186.785, 141.654 184.714, 142.131 184.419 C 142.609 184.124, 143.001 181.771, 143.002 179.191 C 143.003 173.415, 145.725 167.611, 148.626 167.197 C 149.795 167.030, 151.792 165.786, 153.064 164.432 C 156.145 161.152, 154.876 156.664, 150.732 156.184 C 147.469 155.806, 147.489 155.960, 150 150.764 C 151.100 148.487, 152 146.089, 152 145.435 C 152 144.780, 152.674 143.686, 153.498 143.002 C 154.624 142.067, 154.958 139.793, 154.845 133.832 C 154.709 126.674, 154.453 125.715, 152.212 123.952 C 146.782 119.681, 139.631 123.116, 134.391 132.511 C 132.962 135.075, 130.631 135.068, 130.164 132.500 C 129.680 129.837, 126.057 126, 124.026 126 C 123.132 126, 121.860 126.540, 121.200 127.200 C 119.497 128.903, 119.669 137.481, 121.436 138.947 C 126.126 142.839, 129.154 164.725, 125.989 171.855 C 124.522 175.159, 124.549 175.251, 127.787 177.958 C 131.011 180.654, 131.054 180.798, 130.024 185.392 C 129.447 187.968, 128.133 191.971, 127.106 194.288 C 126.078 196.605, 124.670 199.983, 123.978 201.796 C 122.273 206.261, 120.192 205.552, 117.996 199.758 C 117.008 197.150, 114.580 192.762, 112.600 190.006 C 109.200 185.274, 107.973 180.356, 109.750 178.586 C 110.656 177.684, 112.842 167.400, 113.594 160.500 C 113.893 157.750, 114.622 154.508, 115.214 153.296 C 116.575 150.505, 114.638 137.377, 111.959 131.235 C 110.497 127.882, 109.443 126.839, 107.029 126.356 C 105.340 126.018, 103.716 125.350, 103.420 124.871 C 102.047 122.649, 92.603 124.714, 88 128.244 C 82.885 132.165, 74.658 136.907, 73.843 136.403 C 72.674 135.681, 72.784 132.251, 74 131.500 C 74.550 131.160, 75 129.925, 75 128.755 C 75 127.586, 76.800 124.494, 79 121.885 C 81.200 119.276, 83 116.530, 83 115.782 C 83 115.035, 83.839 112.778, 84.864 110.767 C 87.639 105.323, 88.125 101.623, 86.389 99.145 C 85.563 97.965, 84.237 97, 83.443 97 C 81.347 97, 81.664 95.553, 84.500 92.182 C 87.193 88.982, 87.765 84.878, 85.750 83.211 C 85.063 82.642, 83.214 82.025, 81.643 81.838 C 79.253 81.555, 78.484 80.703, 76.947 76.639 C 74.538 70.268, 72.256 67.829, 69.052 68.203 C 66.501 68.500, 66.500 68.503, 66.689 78 C 66.793 83.225, 66.959 89.224, 67.058 91.331 C 67.157 93.438, 66.734 95.666, 66.119 96.281 C 64.655 97.745, 64.690 103.502, 66.188 107.643 C 67.382 110.945, 67.225 111.668, 63.883 118.236 C 62.658 120.646, 62.778 125.378, 64.098 126.698 C 66.147 128.747, 62.832 148.889, 60.308 149.731 C 58.518 150.327, 58.033 145.886, 58.916 136.977 C 59.800 128.044, 59.698 114.844, 58.479 80.775 C 57.622 56.844, 57.582 56.992, 66.181 52.508 C 69.106 50.983, 73.381 48.444, 75.680 46.867 C 77.979 45.290, 80.289 44, 80.814 44 C 81.906 44, 89 36.391, 89 35.220 C 89 34.064, 85.993 29.990, 85.193 30.063 C 84.812 30.098, 83.433 30.554, 82.130 31.076 M 165.947 69.331 C 164.543 69.974, 161.346 72.188, 158.844 74.250 C 156.341 76.313, 153.999 78, 153.638 78 C 153.278 78, 151.119 79.350, 148.841 81 C 146.564 82.650, 143.518 84, 142.072 84 C 140.627 84, 138.423 84.716, 137.173 85.591 C 135.228 86.954, 134.945 87.923, 135.201 92.341 C 135.489 97.317, 135.600 97.493, 138.320 97.302 C 141.413 97.085, 154.743 90.925, 159.500 87.514 C 161.150 86.331, 165.088 83.898, 168.250 82.108 C 173.675 79.037, 174 78.638, 174 75.042 C 174 72.094, 173.441 70.864, 171.535 69.615 C 170.180 68.727, 168.942 68.037, 168.785 68.081 C 168.628 68.126, 167.351 68.688, 165.947 69.331 M 190.035 132.932 C 188.931 135.095, 187.572 137.146, 187.014 137.491 C 185.304 138.548, 185.797 144.985, 187.643 145.693 C 189.853 146.541, 194.937 140.378, 194.973 136.809 C 194.988 135.329, 195.450 133.840, 196 133.500 C 196.550 133.160, 197 132.009, 197 130.941 C 197 129.542, 196.308 129, 194.520 129 C 192.641 129, 191.555 129.952, 190.035 132.932 M 137.750 141.459 C 134.991 144.786, 134.304 148.801, 135.641 153.791 C 136.670 157.632, 137.817 156.403, 143.132 145.764 C 143.610 144.809, 144 142.671, 144 141.014 C 144 136.938, 141.343 137.128, 137.750 141.459 M 30 173.477 C 30 176.699, 34.394 188.340, 36.981 191.974 C 38.092 193.533, 39 195.250, 39 195.789 C 39 197.215, 43.593 200, 45.946 200 C 48.276 200, 48.814 198.293, 49.340 189.218 C 49.728 182.530, 49.133 181.323, 46.217 182.884 C 43.887 184.131, 42.960 183.420, 40.500 178.500 C 38.064 173.629, 35.246 171.078, 32.250 171.033 C 30.513 171.008, 30 171.565, 30 173.477 M 0 190 C 0 195.142, 0.261 196, 1.826 196 C 3.774 196, 8 199.909, 8 201.711 C 8 202.760, 16.193 210.141, 18.147 210.853 C 20.074 211.554, 23 207.695, 23 204.450 C 23 201.807, 21.682 199.810, 15.844 193.609 C 9.391 186.754, 5.122 184.038, 0.750 184.006 C 0.337 184.003, 0 186.700, 0 190" stroke="none" fill="black" fill-rule="evenodd"/>
</svg>