<svg xmlns="http://www.w3.org/2000/svg" width="300" height="300" viewBox="0 0 300 300" version="1.1">
	<path d="M 72.667 0.667 C 71.561 1.773, 71.908 4.972, 73.673 9.943 C 75.729 15.732, 75.105 17.606, 70.818 18.515 C 68.993 18.902, 65.993 20.352, 64.150 21.736 C 61.241 23.923, 60.883 24.663, 61.423 27.363 C 61.765 29.074, 62.693 31.122, 63.486 31.915 C 64.742 33.171, 65.584 33, 70.012 30.590 C 76.787 26.902, 78.397 27.579, 77.551 33.757 C 77.194 36.366, 76.811 40.750, 76.701 43.500 L 76.500 48.500 80.442 48.258 C 82.611 48.124, 84.719 47.674, 85.126 47.258 C 85.534 46.841, 86.235 41.550, 86.684 35.500 L 87.500 24.500 91.191 22.524 C 93.220 21.437, 95.197 20.863, 95.583 21.249 C 95.968 21.635, 95.752 24.774, 95.101 28.225 C 92.652 41.220, 92.292 44.562, 93.106 46.741 C 94.247 49.795, 93.373 51.603, 90.097 52.960 C 87.291 54.122, 80.906 61.067, 79.717 64.250 C 78.729 66.893, 77.390 66.363, 75.927 62.750 C 73.970 57.918, 70.844 54, 68.947 54 C 68.024 54, 66.084 54.933, 64.635 56.073 C 61.637 58.431, 60.987 63.914, 63.461 65.968 C 64.265 66.635, 65.230 68.152, 65.605 69.340 C 65.981 70.528, 67.313 72.850, 68.566 74.500 C 69.819 76.150, 71.166 78.850, 71.560 80.500 C 71.954 82.150, 72.624 83.950, 73.050 84.500 C 73.475 85.050, 73.847 86.625, 73.875 88 C 73.903 89.375, 73.957 92.172, 73.995 94.216 C 74.042 96.794, 74.701 98.378, 76.147 99.390 C 77.293 100.193, 79.072 102.233, 80.100 103.925 C 81.129 105.616, 82.652 107, 83.485 107 C 84.318 107, 85 107.705, 85 108.566 C 85 113.184, 80.526 116.498, 61.962 125.630 C 49.297 131.860, 45.638 133.358, 38.500 135.235 C 32.613 136.782, 31.373 138.219, 31.825 142.964 C 32.126 146.123, 32.692 147.136, 34.395 147.563 C 36.748 148.154, 41.425 146.740, 42.414 145.139 C 42.749 144.597, 44.480 143.851, 46.261 143.480 C 48.043 143.110, 52.295 141.407, 55.710 139.697 C 62.076 136.510, 64.610 136.563, 61.661 139.823 C 60.747 140.832, 60 142.147, 60 142.745 C 60 143.344, 59.636 143.983, 59.192 144.167 C 58.476 144.462, 44.712 163.808, 38 173.953 C 31.865 183.225, 24.282 193.674, 21.861 196.189 C 18.709 199.465, 13.986 205.631, 12.250 208.736 C 10.492 211.881, 10.688 213.688, 13.040 216.040 L 15.080 218.080 18.079 215.943 C 20.846 213.974, 27.992 205.362, 30.611 200.842 C 31.222 199.788, 32.684 197.900, 33.861 196.648 C 35.037 195.396, 36 193.838, 36 193.186 C 36 192.533, 36.340 192, 36.756 192 C 37.172 192, 38.071 190.736, 38.755 189.191 C 39.439 187.646, 42.003 183.934, 44.453 180.941 C 46.903 177.949, 50.039 174.105, 51.421 172.399 C 52.804 170.694, 54.394 168.094, 54.954 166.622 C 55.513 165.149, 57.909 161.820, 60.276 159.222 C 62.643 156.625, 65.655 152.345, 66.967 149.711 C 70.544 142.536, 91.776 120.049, 95 120.022 C 95.825 120.016, 97.801 121.051, 99.392 122.324 C 102.214 124.583, 102.243 124.699, 100.592 127.219 C 99.025 129.610, 91.931 135, 90.350 135 C 89.969 135, 88.947 135.625, 88.079 136.388 C 87.210 137.152, 84.205 138.964, 81.399 140.415 C 75.587 143.422, 72.542 146.408, 71.680 149.948 C 70.931 153.023, 72.513 155, 75.723 155 C 78.097 155, 78.176 155.200, 77.603 159.750 C 77.273 162.363, 76.771 174.625, 76.486 187 C 76.075 204.839, 75.637 210.156, 74.372 212.665 C 72.383 216.611, 73.606 221.345, 76.734 221.807 C 79.650 222.238, 83.996 216.327, 84.014 211.906 C 84.036 206.337, 84.918 204.689, 89.988 200.750 C 92.643 198.688, 95.081 197, 95.407 197 C 96.478 197, 96.027 201.137, 94.606 204.349 C 93.839 206.082, 92.464 209.911, 91.550 212.858 C 90.636 215.805, 88.789 219.958, 87.444 222.088 C 86.100 224.218, 85 226.558, 85 227.289 C 85 229.631, 87.407 231.981, 90.793 232.946 C 93.773 233.796, 94.345 233.593, 96.793 230.818 C 104.004 222.647, 109.909 217.014, 114.016 214.387 C 121.934 209.326, 122.460 209.013, 124.643 208.063 C 125.822 207.550, 128.385 206.831, 130.338 206.464 C 133.274 205.914, 134.304 206.213, 136.284 208.193 C 139.100 211.009, 140.466 217.813, 139.127 222.351 C 138.615 224.083, 137.585 227.525, 136.838 230 L 135.479 234.500 130.603 234.154 C 127.922 233.964, 124.664 234.301, 123.364 234.904 C 122.064 235.507, 119.793 236.563, 118.319 237.250 C 116.844 237.938, 114.932 239.809, 114.069 241.408 C 113.206 243.007, 111.289 245.707, 109.810 247.408 L 107.119 250.500 101.810 245.357 C 95.732 239.469, 91.390 237, 87.115 237 C 83.107 237, 79.083 238.620, 78.351 240.528 C 77.483 242.791, 78.398 243.231, 81.261 241.927 C 83.600 240.861, 84.214 241.214, 89.890 246.890 C 93.250 250.250, 96.008 253.337, 96.018 253.750 C 96.041 254.694, 102.733 260.267, 105.814 261.907 C 107.670 262.895, 108.462 262.878, 109.814 261.819 C 112.649 259.601, 113.924 257.656, 114.966 253.958 C 116.452 248.688, 121.467 244, 125.619 244 C 127.955 244, 129 244.463, 129 245.498 C 129 250.580, 109.360 278.416, 106.213 277.795 C 104.588 277.475, 104.329 277.062, 100.887 269.307 C 98.329 263.545, 94.920 260.935, 92.185 262.647 C 89.698 264.204, 89.494 268.820, 91.799 271.354 C 92.872 272.534, 95.267 276.584, 97.120 280.354 C 99.790 285.788, 101.287 287.616, 104.339 289.173 C 108.068 291.076, 108.258 291.080, 110.335 289.319 C 111.515 288.318, 113.057 286.735, 113.762 285.799 C 114.468 284.864, 115.710 283.433, 116.522 282.621 C 117.335 281.808, 118 280.742, 118 280.252 C 118 279.761, 119.400 277.817, 121.111 275.930 C 125.038 271.601, 131.454 262.973, 132.215 261 C 133.549 257.538, 139.144 251.002, 140.756 251.022 C 141.715 251.034, 143.625 251.953, 145 253.063 C 146.375 254.174, 149.975 256.698, 153 258.674 C 156.025 260.649, 158.725 262.563, 159 262.925 C 159.275 263.288, 164 267.157, 169.500 271.522 C 180.804 280.494, 191 290.623, 191 292.879 C 191 295.182, 196.096 300, 198.532 300 C 201.755 300, 204 296.883, 204 292.409 C 204 289.339, 203.428 288.046, 201.400 286.522 C 199.970 285.448, 197.473 282.641, 195.852 280.285 C 194.231 277.928, 192.346 276, 191.663 276 C 190.981 276, 187.454 273.413, 183.824 270.250 C 180.195 267.087, 174.588 262.603, 171.363 260.284 C 168.138 257.965, 163.925 254.682, 162 252.989 C 160.075 251.297, 155.203 247.838, 151.173 245.304 C 144.937 241.383, 143.946 240.385, 144.518 238.598 C 145.241 236.339, 147.356 228.127, 148.989 221.236 C 150.715 213.955, 150.239 210.584, 146.750 205.363 C 142.524 199.039, 138.378 197.004, 129.721 197.002 C 124.170 197, 121.863 197.545, 116.978 200.011 C 113.698 201.667, 109.397 204.592, 107.421 206.511 C 103.994 209.839, 101.958 210.874, 102.036 209.250 C 102.139 207.078, 104.875 197.149, 105.836 195.458 C 106.449 194.381, 107.594 191.858, 108.382 189.850 C 109.316 187.469, 111.759 184.764, 115.407 182.069 C 120.260 178.484, 121 177.494, 121 174.591 C 121 170.078, 119.192 168.786, 114.035 169.610 L 109.846 170.280 113.478 164.601 C 116.443 159.967, 117.055 158.148, 116.806 154.711 C 116.517 150.732, 116.335 150.507, 113.500 150.632 C 111.850 150.705, 109.522 151.086, 108.326 151.479 C 106.556 152.061, 105.849 151.609, 104.528 149.054 C 103.635 147.327, 101.801 145.495, 100.452 144.982 C 97.182 143.738, 97.361 142.507, 101.034 140.986 C 106.062 138.903, 108.178 135.370, 107.421 130.321 C 106.808 126.233, 107.924 124.450, 109.500 127 C 109.840 127.550, 110.936 128, 111.937 128 C 112.937 128, 114.303 128.660, 114.973 129.467 C 116.264 131.023, 127.326 136.485, 135.236 139.472 C 137.841 140.456, 140.483 141.877, 141.108 142.630 C 141.733 143.384, 142.918 144, 143.740 144 C 144.563 144, 146.774 145.350, 148.653 147 C 150.532 148.650, 152.899 150, 153.912 150 C 154.926 150, 156.305 150.662, 156.977 151.472 C 157.649 152.282, 160.517 154.055, 163.349 155.411 C 170.561 158.866, 172.953 161.190, 172.705 164.505 C 172.528 166.885, 173.057 167.468, 176.570 168.772 C 180.260 170.141, 180.875 170.128, 183.155 168.634 C 184.538 167.728, 186.275 165.856, 187.015 164.473 C 188.196 162.265, 188.125 161.645, 186.430 159.378 C 185.368 157.958, 182.833 155.829, 180.795 154.648 C 178.757 153.467, 173.287 149.912, 168.640 146.750 C 163.993 143.588, 159.573 141, 158.818 141 C 158.063 141, 156.550 140.373, 155.457 139.608 C 153.608 138.313, 135.149 129.005, 114.809 119.113 C 110.028 116.788, 105.528 114.964, 104.809 115.061 C 100.580 115.629, 99.549 113.584, 103.250 111.969 C 104.487 111.429, 108.200 109.431, 111.500 107.528 C 114.800 105.625, 119.300 103.139, 121.500 102.004 C 123.700 100.870, 127.525 98.180, 130 96.028 C 134.812 91.843, 134.875 90.321, 130.361 87.323 C 128.580 86.141, 127.913 86.277, 124.916 88.436 C 119.830 92.099, 109.476 98, 108.135 98 C 106.611 98, 107.613 93.946, 110.615 87.962 C 112.205 84.794, 113.244 80.063, 114.058 72.289 C 115.097 62.368, 115.037 60.663, 113.504 56.650 C 110.813 49.605, 108.126 47.637, 101.997 48.226 L 96.904 48.716 97.533 45.848 C 98.292 42.393, 100.769 37.261, 102.063 36.461 C 102.578 36.142, 103 34.360, 103 32.500 C 103 30.640, 103.450 28.840, 104 28.500 C 104.550 28.160, 105 27.024, 105 25.976 C 105 21.467, 108.374 14.386, 112.006 11.270 C 114.077 9.493, 116.666 6.231, 117.760 4.020 L 119.749 0 110.075 0 L 100.402 0 99.162 3.428 C 98.320 5.757, 96.516 7.680, 93.533 9.428 C 86.580 13.503, 85.295 13.049, 83.839 6 L 82.600 0 77.967 0 C 75.418 0, 73.033 0.300, 72.667 0.667 M 96.098 61.516 C 86.847 66.599, 80.092 71.625, 80.662 73 C 81.003 73.825, 81.495 75.737, 81.755 77.250 C 82.257 80.175, 84.686 80.981, 85.625 78.535 C 86.505 76.241, 96.424 70.088, 100.662 69.208 C 104.848 68.338, 105.641 66.816, 104.065 62.671 C 102.931 59.688, 100.156 59.286, 96.098 61.516 M 95 83 C 93.075 84.054, 89.813 84.935, 87.750 84.958 L 84 85 84 90.500 C 84 93.525, 84.268 96, 84.597 96 C 84.925 96, 87.287 94.141, 89.847 91.868 C 92.406 89.596, 95.908 87.137, 97.629 86.405 C 100.252 85.290, 102 83.295, 102 81.418 C 102 80.391, 98.195 81.251, 95 83 M 91.500 147.476 C 85.816 149.459, 84.834 150.413, 85.748 153.065 C 86.579 155.476, 86.628 160.766, 85.889 168.500 C 85.377 173.858, 86.836 173.627, 91.854 167.554 C 96.288 162.188, 98.478 157.413, 96.940 156.463 C 96.423 156.143, 95.993 154.221, 95.985 152.191 C 95.963 147.067, 95.143 146.205, 91.500 147.476 M 95.993 176.518 C 95.467 177.903, 93.881 179.475, 92.470 180.012 C 89.993 180.953, 86.511 187.034, 87.224 189.173 C 87.641 190.424, 99.267 181.470, 100.180 179.195 C 101.500 175.903, 101.059 174, 98.975 174 C 97.732 174, 96.581 174.972, 95.993 176.518 M 55.250 247.662 C 54.563 247.940, 54 249.439, 54 250.994 C 54 254.511, 58.460 258.508, 64.066 260.018 C 67.378 260.910, 68.539 260.794, 71.021 259.329 C 75.720 256.553, 74.427 252, 68.940 252 C 67.476 252, 64.621 250.875, 62.595 249.500 C 58.936 247.017, 57.648 246.695, 55.250 247.662 M 14.918 253.599 C 13.800 254.945, 13.900 255.776, 15.545 258.849 C 17.251 262.035, 18.240 262.676, 23.312 263.880 C 27.359 264.840, 29.595 265.979, 30.677 267.630 C 31.531 268.933, 32.776 270, 33.443 270 C 34.109 270, 37.271 272.723, 40.468 276.051 C 46.968 282.819, 50.251 283.669, 50.818 278.731 C 51.080 276.456, 49.671 274.358, 42.915 266.967 C 33.560 256.731, 26.395 252, 20.251 252 C 17.799 252, 15.730 252.621, 14.918 253.599" stroke="none" fill="black" fill-rule="evenodd"/>
</svg>