<svg xmlns="http://www.w3.org/2000/svg" width="300" height="300" viewBox="0 0 300 300" version="1.1">
	<path d="M 75.950 13.275 C 68.415 18.615, 64.032 21.166, 47.547 29.807 C 38.970 34.303, 38.519 34.709, 36.796 39.500 C 33.948 47.418, 35.987 49.120, 42.785 44.500 C 44.809 43.125, 46.819 42, 47.252 42 C 47.685 42, 49.793 40.893, 51.937 39.540 C 54.080 38.187, 56.959 36.798, 58.333 36.452 L 60.833 35.825 60.573 44.663 C 60.430 49.523, 60.706 57.100, 61.187 61.500 C 62.201 70.779, 62.269 81.760, 61.370 91 C 61.022 94.575, 60.839 103.147, 60.963 110.049 C 61.136 119.654, 60.868 122.865, 59.823 123.732 C 57.448 125.703, 39.072 131.847, 33.452 132.549 C 26.881 133.370, 25.380 134.849, 26.645 139.258 C 28.384 145.321, 32.511 145.108, 52.709 137.914 C 58.063 136.007, 59.491 136.448, 58.356 139.660 C 57.518 142.031, 54.209 149.672, 52.404 153.404 C 49.478 159.455, 51.341 164.055, 56.684 163.972 C 62.590 163.880, 85 145.641, 85 140.927 C 85 139.832, 85.722 138.660, 86.604 138.322 C 87.741 137.885, 90.672 140.365, 96.685 146.853 C 104.067 154.817, 105.589 156, 108.459 156 C 110.272 156, 112.317 155.323, 113.003 154.496 C 114.975 152.121, 111.205 144.395, 106.965 142.121 C 105.116 141.129, 103.132 139.459, 102.556 138.409 C 100.908 135.407, 93.737 126.605, 92.037 125.500 C 88.959 123.498, 85.665 123.113, 82.604 124.398 C 79.993 125.494, 79.304 126.540, 78.267 130.983 C 76.901 136.838, 73.072 142.555, 69.393 144.231 C 65.867 145.837, 65.638 144.795, 68.437 139.885 C 69.812 137.473, 71.602 134.108, 72.416 132.407 C 75.627 125.695, 84.041 117.427, 90.198 114.933 C 93.139 113.742, 97 108.057, 97 104.918 C 97 102.448, 92.642 100.586, 90.076 101.959 C 89.090 102.487, 87.606 103.950, 86.778 105.209 C 85.950 106.469, 82.051 109.718, 78.114 112.428 C 69.892 118.089, 68.456 117.807, 69.516 110.739 C 70.176 106.341, 71.193 104.907, 78.545 98 C 80.009 96.625, 81.798 94.150, 82.521 92.500 C 83.245 90.850, 85.223 88.178, 86.918 86.563 C 90.567 83.085, 90.682 82.137, 87.885 78.580 C 84.805 74.666, 82.114 75.516, 79.118 81.349 C 76.573 86.304, 72.861 89.650, 71.110 88.568 C 69.631 87.654, 71.056 80.880, 73.415 77.609 C 74.562 76.019, 77.852 73.666, 80.727 72.381 C 86.027 70.013, 92 63.491, 92 60.072 C 92 57.790, 89.168 54, 87.463 54 C 86.680 54, 83.218 56.705, 79.770 60.011 C 76.321 63.317, 72.825 65.899, 72 65.748 C 70.761 65.522, 70.452 62.875, 70.222 50.509 C 70.069 42.278, 69.507 35.107, 68.972 34.572 C 68.437 34.037, 68 33.070, 68 32.422 C 68 30.801, 77.821 24.254, 81.500 23.421 C 85.385 22.542, 90 18.224, 90 15.468 C 90 12.520, 86.948 9.995, 83.421 10.025 C 81.769 10.039, 78.523 11.451, 75.950 13.275 M 117.200 11.200 C 115.694 12.706, 115.646 16.246, 117.111 17.711 C 118.298 18.898, 117.822 34.622, 116.150 49.500 C 115.184 58.096, 115.737 60.281, 120.029 64.830 C 121.648 66.547, 122.878 66.996, 124.702 66.539 C 127.050 65.949, 127.140 66.085, 126.461 69.176 C 126.068 70.968, 125.377 73.124, 124.926 73.967 C 122.819 77.904, 120 87.427, 120 90.603 C 120 100.286, 127.459 103.565, 135.512 97.423 C 139.086 94.697, 143.156 94.279, 144.960 96.452 C 146.160 97.898, 145.272 102.496, 142.877 107.236 C 142.395 108.191, 142 109.406, 142 109.936 C 142 110.866, 139.154 115.119, 132.923 123.500 C 131.287 125.700, 128.446 129.777, 126.609 132.560 C 124.771 135.343, 121.408 139.093, 119.134 140.894 C 114.548 144.526, 114.125 145.899, 116.837 148.353 C 119.973 151.190, 124.373 149.465, 130.180 143.122 C 136.610 136.098, 144 126.026, 144 124.286 C 144 123.563, 145.375 121.741, 147.055 120.236 C 150.442 117.203, 154.761 107.928, 156.013 101 C 157.335 93.686, 156.187 88.335, 152.660 85.367 C 149.952 83.089, 148.904 82.838, 143.550 83.187 C 140.222 83.404, 135.968 84.350, 134.096 85.291 C 129.988 87.354, 130 87.353, 130 85.594 C 130 84.393, 138.200 65.964, 141.049 60.764 C 142.623 57.891, 142.153 56.307, 138.923 53.589 C 135.224 50.476, 133.881 50.369, 131.500 53 C 130.505 54.100, 128.583 55, 127.230 55 C 124.814 55, 124.783 54.896, 125.523 49.250 C 125.937 46.087, 126.400 41.700, 126.550 39.500 C 126.701 37.300, 127.152 31.314, 127.554 26.199 C 128.360 15.916, 127.555 13.029, 123.343 11.110 C 120.217 9.686, 118.692 9.708, 117.200 11.200 M 103.441 161.419 C 101.811 162.610, 101.444 164.332, 101.150 172.169 C 100.958 177.301, 100.362 182.036, 99.827 182.690 C 98.377 184.465, 85.172 189.280, 83.508 188.641 C 82.370 188.205, 82.193 186.739, 82.666 181.674 C 83.255 175.368, 83.204 175.194, 79.690 171.380 C 76.411 167.822, 75.980 167.632, 74.498 169.095 C 73.186 170.389, 72.842 173.310, 72.671 184.595 C 72.489 196.626, 72.182 198.972, 70.392 202 C 66.461 208.649, 66.758 215, 70.999 215 C 72.868 215, 78 208.726, 78 206.442 C 78 204.821, 82.137 201.331, 85 200.535 C 87.489 199.844, 91.252 198.108, 95.989 195.466 C 97.557 194.591, 98.828 194.428, 99.425 195.025 C 100.797 196.397, 96.231 209.634, 93.089 213.399 C 89.402 217.815, 88 220.601, 88 223.508 C 88 225.216, 87.266 226.323, 85.750 226.901 C 84.513 227.373, 76.975 230.266, 69 233.330 C 61.025 236.393, 50.900 239.851, 46.500 241.014 C 36.305 243.708, 26.604 246.832, 21.500 249.062 C 19.300 250.023, 16.262 251.086, 14.750 251.424 C 12.701 251.882, 12 252.639, 12 254.397 C 12 259.197, 17.735 260.661, 25.325 257.800 C 28.171 256.726, 30.927 255.432, 31.450 254.924 C 31.972 254.416, 33.029 254, 33.799 254 C 34.568 254, 36.616 253.347, 38.349 252.549 C 40.082 251.751, 45.185 250.415, 49.689 249.581 C 54.194 248.747, 60.269 247.207, 63.189 246.157 C 66.110 245.108, 70.075 243.683, 72 242.991 C 73.925 242.298, 76.281 241.342, 77.236 240.866 C 78.191 240.390, 80.666 239.998, 82.736 239.996 C 84.906 239.994, 89.041 238.725, 92.500 237 C 95.800 235.354, 99.191 234.006, 100.035 234.004 C 102.238 233.998, 112.798 230.179, 115.495 228.412 C 117.815 226.891, 126.651 224.882, 130.746 224.943 C 131.981 224.962, 135.581 224.247, 138.746 223.356 C 144.038 221.864, 148.771 221.079, 162.604 219.397 C 167.223 218.836, 167.761 218.977, 168.261 220.888 C 168.662 222.423, 169.603 223, 171.706 223 C 173.298 223, 175.027 222.622, 175.550 222.160 C 176.072 221.698, 178.075 220.707, 180 219.957 C 184.154 218.338, 185.925 216.335, 185.968 213.205 C 186.011 210.109, 181.450 205.599, 179.206 206.519 C 178.267 206.903, 171.452 207.837, 164.060 208.593 C 156.667 209.350, 148.342 210.607, 145.560 211.386 C 142.777 212.166, 134.557 213.996, 127.293 215.454 C 120.030 216.911, 109.574 219.623, 104.058 221.480 C 97.900 223.554, 93.792 224.473, 93.414 223.861 C 93.075 223.313, 94.624 221.302, 96.856 219.391 C 103.400 213.790, 107.336 207.232, 111.106 195.654 C 112.371 191.768, 114.019 188.592, 114.917 188.307 C 122.968 185.757, 127.309 183.247, 128.748 180.312 C 130.179 177.394, 130.169 176.907, 128.633 174.562 C 126.515 171.330, 125.712 171.368, 119.098 175.014 C 112.088 178.878, 111 178.074, 111 169.038 C 111 162.811, 110.814 162.236, 108.453 161.161 C 105.336 159.740, 105.768 159.718, 103.441 161.419 M 115.500 251.927 C 112.200 252.269, 108.600 253.072, 107.500 253.712 C 106.400 254.352, 102.290 256.048, 98.366 257.481 C 94.442 258.914, 90.435 260.967, 89.461 262.043 C 86.992 264.772, 84.844 264.490, 81.500 261 C 76.937 256.237, 72 257.396, 72 263.230 C 72 265.192, 73.617 267.968, 77.270 272.280 C 80.168 275.701, 83.614 280.300, 84.929 282.500 C 87.654 287.062, 90.787 289.945, 93.054 289.978 C 93.908 289.990, 96.158 291.614, 98.054 293.588 C 101.351 297.020, 101.716 297.147, 106.500 296.530 C 109.250 296.175, 120.275 295.719, 131 295.517 C 150.064 295.158, 150.537 295.097, 152.168 292.825 C 155.326 288.422, 155.419 286.110, 152.483 284.994 C 151.025 284.439, 149.314 284.306, 148.681 284.697 C 148.047 285.089, 142.460 285.444, 136.264 285.487 C 126.096 285.558, 125 285.392, 125 283.783 C 125 282.802, 125.621 282, 126.380 282 C 128.100 282, 135 273.708, 135 271.641 C 135 270.803, 135.422 269.858, 135.937 269.539 C 137.790 268.394, 140 262.618, 140 258.919 C 140 251.465, 134.659 249.941, 115.500 251.927 M 119.500 261.536 C 107.631 263.962, 100.269 267.470, 96.399 272.544 L 93.717 276.060 96.066 280.780 C 97.358 283.376, 98.483 285.624, 98.566 285.776 C 98.650 285.927, 102.380 284.870, 106.855 283.426 C 113.885 281.159, 115.600 280.126, 119.453 275.841 C 125.700 268.893, 128.766 262.070, 126.250 260.714 C 125.838 260.492, 122.800 260.861, 119.500 261.536" stroke="none" fill="black" fill-rule="evenodd"/>
</svg>