<svg xmlns="http://www.w3.org/2000/svg" width="300" height="300" viewBox="0 0 300 300" version="1.1">
	<path d="M 66 41.974 C 62.884 44.574, 59.791 46.175, 52.250 49.088 C 49.457 50.167, 49.249 54.466, 51.827 57.817 C 53.421 59.889, 53.897 60.004, 56.309 58.905 C 59.905 57.267, 60.462 58.099, 59.189 63.212 C 58.602 65.570, 58.374 70.226, 58.682 73.559 C 59.223 79.405, 59.136 79.703, 56.184 82.059 C 50.573 86.537, 47.591 88.487, 44.031 90.010 C 42.089 90.840, 37.934 93.203, 34.798 95.260 C 31.662 97.317, 28.244 99, 27.203 99 C 24.718 99, 22 102.080, 22 104.894 C 22 108.143, 23.800 111, 25.848 111 C 28.016 111, 39.872 105.128, 42 103 C 42.636 102.364, 46.533 100.099, 50.869 97.845 C 52.723 96.882, 55.068 95.343, 56.082 94.426 C 57.096 93.508, 58.576 93.007, 59.371 93.312 C 61.466 94.116, 62.360 106.200, 61.345 120.007 C 60.509 131.374, 60.473 131.500, 58 131.500 C 55.620 131.500, 55.476 131.164, 55 124.533 C 54.556 118.344, 54.213 117.405, 51.931 116.129 C 50.398 115.272, 48.320 114.954, 46.778 115.341 C 43.970 116.046, 38.919 122.441, 34.796 130.514 C 33.395 133.256, 30.960 137.866, 29.385 140.758 C 26.236 146.539, 26.690 149.202, 30.932 149.830 C 33.464 150.205, 39.131 144.641, 44.253 136.750 C 47.382 131.930, 49.996 130.567, 50.005 133.750 C 50.012 136.388, 55.529 141.738, 59.038 142.508 C 64.069 143.613, 68.059 138.819, 69.405 130.050 C 70.347 123.907, 71.385 123, 77.467 123 C 81.420 123, 83.130 123.486, 84.500 125 C 85.495 126.100, 87.281 127, 88.468 127 C 89.655 127, 91.919 128.350, 93.500 130 C 97.853 134.544, 103 133.626, 103 128.306 C 103 126.758, 101.619 125.011, 98.750 122.930 L 94.500 119.848 82.749 120.174 C 76.285 120.353, 70.974 120.275, 70.945 120 C 70.917 119.725, 70.830 111.936, 70.753 102.692 L 70.613 85.883 73.557 83.473 C 75.176 82.147, 77.400 80.771, 78.500 80.415 C 82.422 79.146, 86.840 75.003, 87.506 71.971 C 88.386 67.967, 86.665 66, 82.284 66 C 79.660 66, 78.686 66.486, 78.293 67.989 C 77.786 69.927, 72.313 74, 70.215 74 C 68.327 74, 67.318 68.752, 68.236 63.703 C 68.799 60.603, 68.756 58.411, 68.116 57.640 C 66.838 56.100, 67.785 54.773, 71.250 53.251 C 72.763 52.587, 74 51.413, 74 50.644 C 74 49.874, 74.675 48.685, 75.500 48 C 77.947 45.969, 77.299 42.608, 74.096 40.716 C 70.336 38.494, 70.133 38.526, 66 41.974 M 142.783 43.422 C 140.845 45.304, 135.939 48.504, 131.880 50.533 C 127.821 52.562, 123.764 54.870, 122.864 55.663 C 121.965 56.455, 118.140 58.584, 114.364 60.394 C 106.342 64.241, 104.739 65.863, 105.178 69.690 C 105.486 72.376, 105.731 72.498, 110.713 72.459 C 114.677 72.428, 116.489 71.889, 118.277 70.209 C 119.571 68.994, 121.349 68, 122.228 68 C 123.624 68, 123.839 70.049, 123.917 84.100 C 123.966 92.956, 124.274 100.635, 124.602 101.165 C 124.930 101.695, 125.560 106.487, 126.002 111.814 C 127.593 130.977, 131.878 145.752, 135.447 144.382 C 136.609 143.936, 136.789 142.139, 136.367 135.164 C 136.080 130.399, 135.410 125.594, 134.880 124.487 C 134.349 123.379, 134.047 118.429, 134.208 113.487 C 134.489 104.838, 134.585 104.509, 136.750 104.738 C 138.651 104.940, 139 104.495, 139 101.871 C 139 98.126, 146.140 90.456, 148.709 91.442 C 151.675 92.580, 149.683 99.728, 145.099 104.399 C 140.276 109.313, 138.889 114.115, 141.468 116.965 C 142.815 118.453, 143.728 118.674, 145.599 117.962 C 147.902 117.087, 148 117.224, 148 121.338 C 148 123.863, 146.972 127.756, 145.500 130.808 C 141.691 138.703, 142.209 143.261, 147.053 144.477 C 149.892 145.190, 155 141.924, 155 139.396 C 155 138.594, 155.787 137.658, 156.750 137.317 C 157.713 136.975, 159.341 135.977, 160.369 135.098 C 162.102 133.616, 162.347 133.664, 163.741 135.750 C 165.530 138.428, 168.834 138.709, 169.628 136.250 C 169.939 135.287, 170.782 133.150, 171.501 131.500 C 173.122 127.781, 175 115.658, 175 108.916 C 175 106.140, 175.452 103.024, 176.005 101.991 C 176.697 100.698, 176.647 99.320, 175.844 97.557 C 174.995 95.693, 174.972 94.356, 175.760 92.627 C 176.544 90.906, 176.520 88.880, 175.671 85.251 C 174 78.111, 169.943 74.926, 161.675 74.262 C 156.141 73.818, 154.731 74.108, 149.459 76.780 C 146.182 78.441, 142.461 80.914, 141.192 82.276 C 138.917 84.717, 135.683 94.350, 136.773 95.440 C 137.081 95.748, 136.863 96, 136.289 96 C 133.498 96, 132.486 92.366, 132 80.599 C 131.531 69.246, 131.361 68.439, 129.250 67.513 C 126.720 66.403, 126.261 65, 128.429 65 C 129.214 65, 130.471 64.438, 131.221 63.750 C 133.115 62.014, 135.957 60.275, 139.582 58.636 C 141.277 57.870, 143.527 56.151, 144.582 54.818 C 145.637 53.485, 147.294 52.092, 148.265 51.722 C 149.236 51.353, 150.472 50.027, 151.013 48.776 C 151.553 47.524, 152.559 45.686, 153.248 44.691 C 154.299 43.173, 154.188 42.651, 152.559 41.441 C 149.476 39.152, 146.574 39.740, 142.783 43.422 M 156 86.875 C 156 91.063, 157.318 95, 158.721 95 C 159.529 95, 161.498 94.069, 163.096 92.932 C 168.166 89.322, 166.370 85, 159.800 85 C 156.751 85, 156 85.371, 156 86.875 M 133.667 97.667 C 132.409 98.925, 133 102, 134.500 102 C 135.433 102, 136 101.056, 136 99.500 C 136 97.072, 135.026 96.307, 133.667 97.667 M 159.989 108.250 C 158.899 110.037, 158.006 113.161, 158.004 115.191 C 158.002 117.221, 157.550 119.160, 157 119.500 C 154.398 121.108, 156.225 122.593, 160.750 122.547 L 165.500 122.500 166.348 115.225 C 166.814 111.224, 166.940 107.287, 166.629 106.475 C 165.628 103.867, 162.084 104.815, 159.989 108.250 M 179.187 140.488 C 178.564 141.857, 178.318 143.665, 178.641 144.506 C 178.964 145.348, 178.719 147.265, 178.097 148.768 C 177.476 150.271, 176.780 153.750, 176.552 156.500 C 176.324 159.250, 175.429 166.665, 174.563 172.978 C 173.165 183.171, 173.156 184.808, 174.476 187.591 C 176.822 192.535, 178.233 193.284, 182.854 192.039 C 185.843 191.234, 187.924 189.631, 191.040 185.730 C 193.339 182.854, 195.609 179.488, 196.085 178.250 C 196.561 177.012, 197.423 176, 198 176 C 199.735 176, 200.615 179.857, 201.930 193.229 C 203.153 205.655, 202.775 213.403, 200.890 214.568 C 199.604 215.362, 186.675 213.292, 180.143 211.245 C 173.728 209.236, 168 203.343, 168 198.754 C 168 197.167, 167.553 195.034, 167.007 194.013 C 165.407 191.024, 163.340 177.085, 163.129 167.865 C 163.016 162.932, 162.667 162.012, 160.328 160.479 C 153.575 156.054, 151.782 166.098, 155.593 187 C 156.946 194.425, 158.457 201.400, 158.949 202.500 C 159.442 203.600, 160.138 205.838, 160.497 207.473 C 161.568 212.347, 168.222 217.607, 176.365 220.014 C 180.289 221.175, 184.534 222.546, 185.797 223.062 C 187.060 223.578, 190.943 224, 194.425 224 C 198.304 224, 201.132 224.484, 201.728 225.250 C 202.325 226.018, 202.396 229.395, 201.912 234 C 201.478 238.125, 201.096 244.711, 201.062 248.636 C 201.025 252.906, 200.400 256.922, 199.506 258.636 C 198.685 260.211, 198.010 263.615, 198.006 266.201 C 197.996 273.617, 194.672 289.017, 192.334 292.473 C 190.592 295.048, 190.650 296.507, 192.571 298.429 C 196.972 302.829, 203.186 297.673, 203.638 289.245 C 203.895 284.445, 205.377 278.321, 207.254 274.305 C 207.818 273.097, 208.006 270.426, 207.672 268.368 C 207.327 266.242, 207.527 264.070, 208.135 263.337 C 208.724 262.628, 209.427 256.299, 209.698 249.274 C 209.968 242.248, 210.485 233.803, 210.845 230.506 L 211.500 224.511 216.500 223.825 C 219.250 223.448, 227.045 222.570, 233.821 221.874 C 245.410 220.684, 246.257 220.448, 248.071 217.900 C 250.220 214.883, 250.550 211.950, 248.925 210.325 C 248.334 209.734, 247.322 207.729, 246.675 205.869 C 245.178 201.561, 237.637 194.646, 232.683 193.039 C 230.584 192.358, 228.685 191.982, 228.464 192.203 C 228.243 192.424, 228.330 194.258, 228.658 196.279 C 229.112 199.076, 230.063 200.429, 232.642 201.951 C 235.853 203.846, 238.568 208.271, 237.541 209.934 C 237.280 210.356, 232.890 211.249, 227.784 211.920 C 222.678 212.591, 217.596 213.315, 216.492 213.528 C 212.380 214.324, 212.027 213.072, 211.397 195.442 C 211.064 186.124, 210.223 176.025, 209.528 173 C 208.833 169.975, 208.199 165.700, 208.120 163.500 C 207.784 154.226, 206.472 151.482, 201.890 150.476 C 198.048 149.632, 196 151.355, 196 155.431 C 196 157.184, 195.339 159.491, 194.532 160.559 C 193.724 161.626, 193.049 163.486, 193.032 164.691 C 193.014 165.896, 192.550 167.160, 192 167.500 C 191.450 167.840, 191 168.837, 191 169.715 C 191 171.696, 186.291 178, 184.811 178 C 184.059 178, 183.963 175.920, 184.500 171.250 C 184.927 167.537, 185.406 163.150, 185.565 161.500 C 185.723 159.850, 186.561 155.350, 187.426 151.500 C 189.376 142.828, 189.453 143.781, 186.548 140.646 C 183.470 137.325, 180.656 137.264, 179.187 140.488 M 64.305 147.750 C 63.957 148.713, 62.689 151.764, 61.488 154.530 C 60.287 157.297, 58.740 162.697, 58.049 166.530 C 56.315 176.163, 54.840 180.100, 52.500 181.351 C 51.400 181.939, 49.368 183.161, 47.984 184.067 C 46.600 184.973, 42.550 187.169, 38.984 188.947 C 18.097 199.364, 9.023 204.153, 8.465 205.056 C 7.566 206.512, 12.199 212, 14.327 212 C 15.401 212, 18.473 210.650, 21.154 209 C 23.836 207.350, 26.586 205.986, 27.265 205.968 C 27.944 205.951, 29.374 205.276, 30.441 204.468 C 31.509 203.661, 33.116 203, 34.013 203 C 34.910 203, 37.411 201.663, 39.572 200.028 C 41.732 198.393, 44.069 197.043, 44.764 197.028 C 45.459 197.013, 46.910 196.449, 47.989 195.775 C 50.837 193.996, 52.390 195.844, 51.037 199.402 C 48.235 206.772, 51.071 214.184, 57.311 215.801 C 59.063 216.255, 60.631 217.321, 60.794 218.170 C 60.959 219.028, 57.093 223.775, 52.097 228.848 C 42.435 238.657, 35.201 243, 28.522 243 C 26.254 243, 24.098 243.768, 22.708 245.070 C 20.537 247.106, 20.532 247.164, 22.441 248.570 C 24.758 250.277, 27.686 250.360, 35.378 248.938 C 45.875 246.997, 57.974 240.414, 63.614 233.573 C 69.112 226.905, 71.503 223.640, 72.218 221.824 C 72.667 220.684, 73.952 220, 75.647 220 C 81.749 220, 95.138 225.863, 97.713 229.663 C 104.812 240.140, 113.205 240.936, 111.613 230.981 C 111.138 228.013, 111.430 226.274, 112.736 224.280 C 117.163 217.524, 124 203.934, 124 201.890 C 124 200.935, 125.063 198.881, 126.363 197.327 C 127.663 195.772, 129.065 193.375, 129.478 192 C 129.892 190.625, 131.019 188.600, 131.984 187.500 C 136.017 182.901, 134.791 175, 130.045 175 C 127.999 175, 124 179.834, 124 182.308 C 124 183.133, 122.535 186.439, 120.744 189.654 C 118.954 192.869, 116.650 197.300, 115.626 199.500 C 110.761 209.943, 108.446 214.063, 105.434 217.632 L 102.171 221.500 99.281 218.750 C 97.691 217.238, 95.740 215.998, 94.945 215.996 C 94.150 215.994, 92.070 215.121, 90.323 214.055 C 88.575 212.990, 85.538 211.816, 83.573 211.448 C 79.434 210.671, 79.189 209.510, 82 204 C 83.100 201.844, 84 199.565, 84 198.935 C 84 198.306, 85.193 195.475, 86.652 192.645 C 88.762 188.552, 89.302 186.108, 89.296 180.694 C 89.291 176.931, 88.776 173.376, 88.144 172.744 C 86.477 171.077, 86.733 169.184, 89.067 165.906 C 91.765 162.117, 91.351 157.621, 88.263 157.182 C 86.041 156.866, 82.557 159.245, 73.513 167.250 C 69.305 170.975, 66.669 171.891, 65.517 170.028 C 65.187 169.494, 65.626 167.974, 66.493 166.651 C 68.241 163.983, 69.763 159.554, 71.011 153.500 C 71.931 149.037, 70.231 146, 66.814 146 C 65.782 146, 64.653 146.787, 64.305 147.750 M 69.250 181.556 C 65.695 184.670, 64 186.918, 64 188.519 C 64 189.818, 63.550 191.160, 63 191.500 C 62.450 191.840, 62 193.645, 62 195.512 C 62 197.379, 61.484 200.039, 60.853 201.423 C 59.280 204.875, 61.255 207.207, 65.407 206.801 C 68.212 206.527, 68.902 205.659, 73.207 197 C 77.168 189.032, 77.895 186.695, 77.715 182.509 C 77.432 175.931, 75.872 175.756, 69.250 181.556" stroke="none" fill="black" fill-rule="evenodd"/>
</svg>