<svg xmlns="http://www.w3.org/2000/svg" width="300" height="300" viewBox="0 0 300 300" version="1.1">
	<path d="M 116.469 47.050 C 116.073 47.690, 115.636 50.781, 115.498 53.918 C 115.360 57.056, 114.516 61.035, 113.623 62.762 C 112.730 64.488, 112 66.796, 112 67.891 C 112 68.986, 111.550 70.160, 111 70.500 C 110.450 70.840, 110 72.130, 110 73.368 C 110 74.605, 109.339 76.491, 108.532 77.559 C 107.724 78.626, 107.049 80.486, 107.032 81.691 C 107.014 82.896, 106.550 84.160, 106 84.500 C 105.450 84.840, 105 86.130, 105 87.368 C 105 88.605, 104.339 90.491, 103.532 91.559 C 102.724 92.626, 102.049 94.084, 102.032 94.798 C 101.996 96.246, 101.332 97.624, 91.151 117.392 C 87.180 125.102, 81.438 134.444, 78.248 138.386 C 75.087 142.292, 71.462 147.011, 70.193 148.873 C 67.991 152.103, 67.848 155, 69.892 155 C 71.053 155, 76.684 150.396, 79.575 147.083 C 82.259 144.007, 84.587 144.828, 85.529 149.182 C 85.923 151.007, 87.766 155.587, 89.623 159.360 C 91.610 163.395, 93 167.739, 93 169.910 C 93 171.939, 93.499 174.099, 94.108 174.708 C 94.718 175.318, 95.404 178.221, 95.632 181.158 C 95.861 184.096, 96.485 188.075, 97.018 190 C 97.552 191.925, 97.991 194.907, 97.994 196.628 C 98.002 201.061, 100.403 202.850, 103.086 200.422 C 104.918 198.764, 105.083 197.718, 104.642 190.534 C 103.922 178.793, 102.353 166.907, 101.097 163.685 C 100.406 161.912, 100.340 160.245, 100.918 159.185 C 103.304 154.807, 116.030 145.414, 118.362 146.309 C 120.037 146.951, 121.689 161.956, 120.347 164.330 C 119.881 165.154, 117.250 167.344, 114.500 169.198 C 110.298 172.029, 109.533 173.021, 109.705 175.405 C 109.961 178.955, 112.858 182.270, 115.174 181.665 C 117.479 181.062, 119.173 183.112, 117.958 185.034 C 117.448 185.840, 117.024 188.080, 117.015 190.010 C 117 193.586, 116.253 194.638, 108.585 201.890 C 104.377 205.870, 104.211 206.910, 107.314 209.826 C 110.368 212.694, 113.531 212.573, 117.248 209.445 C 120.434 206.764, 129.205 202, 130.955 202 C 131.517 202, 131.869 202.994, 131.738 204.209 C 131.348 207.824, 134.697 207.602, 138.303 203.773 C 145.766 195.850, 150.614 180.768, 152.649 159.139 C 153.630 148.704, 150.107 139.689, 143.049 134.576 C 139.321 131.875, 137.992 131.500, 132.152 131.500 C 122.921 131.500, 109.967 136.660, 102.718 143.225 C 99.848 145.824, 97.021 147.962, 96.435 147.975 C 95.850 147.989, 94.597 146.379, 93.653 144.398 C 92.708 142.417, 91.050 140.564, 89.967 140.281 C 87.494 139.634, 87.494 139.639, 90.500 135.215 C 91.875 133.191, 93 131.113, 93 130.597 C 93 130.080, 93.633 128.947, 94.406 128.079 C 95.992 126.298, 100.667 118.124, 104.631 110.201 C 107.347 104.773, 114.409 98, 117.353 98 C 121.448 98, 117.748 106.320, 108.113 118.775 C 104.751 123.121, 102 127.018, 102 127.434 C 102 127.851, 101.072 129.495, 99.937 131.089 C 97.876 133.983, 98.039 136, 100.334 136 C 104.080 136, 125.564 111.326, 128.491 103.663 C 129.484 101.062, 130.680 98.698, 131.148 98.408 C 132.928 97.309, 132.060 88.346, 129.910 85.612 C 127.995 83.179, 127.408 83.010, 122.927 83.604 C 118.899 84.138, 117.921 83.959, 117.396 82.589 C 117.045 81.674, 117.432 80.155, 118.257 79.213 C 119.772 77.483, 120.415 75.003, 121.943 65 C 122.405 61.975, 123.114 58.473, 123.517 57.217 C 124.013 55.674, 123.719 54.347, 122.610 53.121 C 121.707 52.124, 121.088 50.228, 121.234 48.907 C 121.434 47.107, 120.961 46.429, 119.344 46.196 C 118.159 46.025, 116.865 46.410, 116.469 47.050 M 129.529 144.250 C 129.948 145.488, 130.489 149.313, 130.731 152.750 C 130.973 156.188, 131.336 159, 131.538 159 C 131.740 159, 133.084 158.463, 134.525 157.807 C 137.683 156.368, 138.961 157.756, 138.985 162.653 C 138.997 165.112, 137.922 166.872, 134.100 170.653 C 129.458 175.244, 129.172 175.837, 128.684 181.868 L 128.168 188.235 133.334 187.573 C 138.879 186.861, 141 185.110, 141 181.243 C 141 179.937, 141.482 177.968, 142.071 176.867 C 143.658 173.903, 143.458 150.763, 141.821 147.851 C 138.991 142.815, 137.794 142, 133.228 142 C 129.042 142, 128.814 142.139, 129.529 144.250 M 195.451 219.845 C 189.233 223.069, 186.035 225.190, 178.627 231 C 177.576 231.825, 174.486 234.437, 171.762 236.805 C 169.038 239.173, 166.065 240.968, 165.155 240.796 C 164.245 240.623, 161.729 237.747, 159.565 234.404 C 153.356 224.815, 145.848 221.178, 143.051 226.404 C 141.847 228.655, 142.124 229.167, 147.386 234.429 C 150.477 237.520, 154.146 241.856, 155.540 244.063 C 156.933 246.270, 159.147 248.566, 160.460 249.164 C 164.027 250.789, 169.321 249.367, 172.601 245.903 C 185.714 232.053, 197.550 222.609, 201 223.241 C 202.933 223.596, 203.534 229.506, 201.984 232.923 C 200.610 235.953, 198.777 239.700, 197.300 242.500 C 196.720 243.600, 195.688 246.300, 195.007 248.500 C 193.891 252.103, 191.449 256.731, 185.500 266.515 C 182.696 271.127, 178.153 276.114, 173.735 279.432 C 170.762 281.666, 170.210 282.548, 171.108 283.630 C 172.746 285.604, 176.752 285.316, 180.581 282.950 C 185.602 279.847, 193.455 269.701, 199.396 258.643 C 200.620 256.364, 202.104 253.600, 202.694 252.500 C 203.284 251.400, 204.223 249.375, 204.781 248 C 207.816 240.524, 209.193 237.325, 210.048 235.764 C 210.572 234.809, 211 232.923, 211 231.573 C 211 230.223, 211.450 228.840, 212 228.500 C 214.121 227.189, 213.062 221.434, 210.195 218.687 C 206.548 215.193, 204.042 215.390, 195.451 219.845 M 92.523 242.974 C 90.807 244.871, 90.808 245.058, 92.554 247.724 C 93.553 249.251, 97.371 253.567, 101.037 257.315 C 107.491 263.913, 107.843 264.120, 112.101 263.815 C 115.737 263.555, 116.554 263.123, 116.810 261.325 C 117.044 259.679, 116.268 258.747, 113.618 257.489 C 111.693 256.575, 109.345 254.629, 108.402 253.164 C 106.238 249.802, 102.843 246.335, 98.779 243.337 C 94.939 240.504, 94.768 240.494, 92.523 242.974 M 42.667 251.667 C 41.355 252.978, 42.032 257.719, 43.750 259.251 C 44.712 260.110, 47.557 261.867, 50.071 263.156 C 52.585 264.445, 57.535 267.408, 61.071 269.740 C 68.183 274.432, 70.673 274.895, 74.056 272.156 C 76.897 269.856, 76.113 267.301, 72.293 266.404 C 70.757 266.044, 67.925 264.267, 66 262.455 C 57.845 254.780, 51.721 251, 47.444 251 C 45.183 251, 43.033 251.300, 42.667 251.667" stroke="none" fill="black" fill-rule="evenodd"/>
</svg>