<svg xmlns="http://www.w3.org/2000/svg" width="300" height="300" viewBox="0 0 300 300" version="1.1">
	<path d="M 119.073 1.412 C 118.428 2.189, 117.828 4.654, 117.739 6.891 C 117.617 9.936, 118.132 11.474, 119.788 13.017 C 122.200 15.264, 122.696 20.042, 121.077 25.429 C 120.569 27.118, 119.603 30.975, 118.930 34 C 117.756 39.278, 115.963 44.238, 113.688 48.500 C 110.024 55.367, 109 58.405, 109 62.417 C 109 67.314, 110.618 69, 115.319 69 C 118.255 69, 121.113 65.148, 120.348 62.222 C 120.055 61.104, 120.499 58.684, 121.334 56.845 C 126.620 45.190, 127.818 42.025, 128.467 38 C 128.866 35.525, 129.787 32.560, 130.514 31.411 C 131.272 30.212, 132.136 24.443, 132.540 17.883 C 133.244 6.450, 133.243 6.442, 130.533 3.222 C 128.358 0.637, 127.074 0, 124.034 0 C 121.950 0, 119.718 0.635, 119.073 1.412 M 84 11.847 C 81.525 12.768, 79.050 13.794, 78.500 14.129 C 77.950 14.464, 75.700 15.301, 73.500 15.989 C 69.983 17.090, 49.866 26.267, 44.538 29.201 C 37.695 32.970, 34.002 34.766, 32.044 35.278 C 30.104 35.785, 29.901 36.299, 30.499 39.181 C 31.675 44.856, 36.379 46.751, 40.436 43.185 C 41.571 42.187, 44.525 40.566, 47 39.582 C 49.475 38.599, 52.331 37.360, 53.347 36.828 C 54.363 36.296, 55.488 36.154, 55.846 36.513 C 56.204 36.871, 57.266 42.639, 58.206 49.332 C 59.439 58.106, 59.927 68.548, 59.958 86.771 L 60 112.043 57.250 113.264 C 55.737 113.936, 53.679 115.228, 52.676 116.136 C 51.673 117.043, 47.398 118.978, 43.176 120.436 C 27.930 125.700, 25.204 128.691, 30.474 134.378 L 33.044 137.150 40.599 133.075 C 44.754 130.834, 49.271 129, 50.637 129 L 53.121 129 49.735 135.269 C 47.873 138.716, 45.649 142.654, 44.794 144.019 C 41.665 149.008, 41.816 151.269, 45.546 155.341 C 48.263 158.307, 49.503 158.990, 51.258 158.485 C 55.314 157.320, 59.702 155.064, 61.033 153.461 C 61.752 152.594, 63.839 151.258, 65.670 150.493 C 67.502 149.728, 69 148.725, 69 148.264 C 69 147.803, 71.025 145.283, 73.500 142.663 C 76.344 139.652, 78 136.986, 78 135.418 C 78 134.054, 78.692 132.672, 79.537 132.347 C 80.383 132.023, 81.710 130.237, 82.486 128.379 C 83.273 126.496, 84.621 125, 85.531 125 C 86.429 125, 91.392 129.220, 96.558 134.379 C 105.511 143.317, 109.244 145.611, 112.687 144.290 C 113.421 144.008, 114 142.261, 114 140.326 C 114 137.275, 112.908 135.808, 104.750 127.905 C 89.461 113.094, 88.625 112.379, 85.243 111.218 C 82.395 110.240, 81.742 110.360, 80.048 112.179 C 78.982 113.323, 77.633 116.486, 77.049 119.209 C 75.791 125.072, 72.288 130.408, 64.547 138.250 C 59.254 143.613, 56 145.406, 56 142.960 C 56 141.215, 60.111 133.741, 63.120 130.017 C 64.682 128.083, 68.668 122.787, 71.976 118.250 C 75.285 113.713, 78.461 110, 79.035 110 C 79.608 110, 82.404 107.769, 85.247 105.043 C 90.004 100.481, 90.339 99.864, 89.440 97.293 C 88.697 95.168, 87.724 94.428, 85.371 94.197 C 82.830 93.948, 81.260 94.824, 76.579 99.102 C 71.451 103.788, 70.727 104.156, 69.343 102.771 C 67.321 100.750, 69.164 97, 72.178 97 C 73.363 97, 76.354 94.920, 79.010 92.250 C 83.213 88.024, 83.812 86.860, 84.445 81.697 C 85.217 75.409, 84.225 73, 80.866 73 C 79.511 73, 78.127 74.857, 75.969 79.567 C 73.435 85.100, 72.610 86.084, 70.731 85.816 C 65.340 85.049, 70.927 72.865, 77.250 71.600 C 81.138 70.822, 87 65.378, 87 62.544 C 87 59.890, 83.895 57.958, 80.865 58.728 C 79.564 59.059, 76.723 60.838, 74.550 62.681 C 72.378 64.525, 70.140 65.880, 69.576 65.692 C 69.012 65.504, 68.463 61.817, 68.356 57.498 C 68.248 53.179, 67.645 47.805, 67.016 45.557 C 66.386 43.308, 66.013 39.226, 66.186 36.484 L 66.500 31.500 74 27.755 C 78.125 25.695, 82.442 24.008, 83.593 24.005 C 84.744 24.002, 87.669 22.954, 90.093 21.675 C 95.055 19.057, 96.086 16.307, 93.554 12.442 C 91.710 9.627, 90.220 9.534, 84 11.847 M 131.200 54.200 C 130.540 54.860, 130 57.243, 130 59.496 C 130 63.609, 125.571 73.356, 117.274 87.500 C 112.677 95.337, 111.950 100.151, 115.038 102.314 C 117.025 103.706, 117.714 103.729, 120.651 102.501 C 122.493 101.732, 125.519 99.943, 127.376 98.527 C 130.684 96.004, 140.719 92.708, 142.236 93.646 C 143.675 94.535, 141.779 102.486, 138.869 107.765 C 137.272 110.660, 135.283 115.043, 134.448 117.503 C 132.201 124.121, 125.979 134.052, 123.322 135.263 C 120.767 136.427, 120.514 137.590, 121.975 141.435 C 122.750 143.474, 123.628 144, 126.253 144 C 132.229 144, 133.041 142.946, 142.444 123 C 143.870 119.975, 145.442 116.825, 145.938 116 C 148.396 111.906, 151.439 103.855, 152.621 98.317 C 154.374 90.106, 152.831 84.956, 148.220 83.634 C 144.037 82.435, 141.313 83.275, 134.381 87.904 C 128.051 92.131, 123 93.988, 123 92.089 C 123 90.949, 125.408 87.056, 130.964 79.215 C 132.634 76.858, 134 74.270, 134 73.465 C 134 72.659, 134.439 72, 134.977 72 C 136.121 72, 139.591 65.141, 140.469 61.142 C 141.642 55.798, 134.758 50.642, 131.200 54.200 M 135 149.054 C 130.325 150.673, 125.281 152.898, 123.790 153.999 C 122.300 155.099, 120.414 156, 119.600 156 C 118.785 156, 117.840 156.450, 117.500 157 C 116.194 159.112, 113.150 157.827, 109.212 153.500 C 105.143 149.029, 102.872 148.161, 100 149.981 C 98.680 150.817, 98.720 151.506, 100.331 155.716 C 103.793 164.761, 104.111 164.044, 93.831 170.373 C 73.318 183.003, 65.728 187.883, 62.196 190.714 C 55.441 196.127, 54.386 196.403, 49.732 193.977 C 43.374 190.663, 32.752 187.035, 31.563 187.771 C 30.978 188.134, 28.700 188.671, 26.500 188.965 C 21.878 189.583, 20.786 192.218, 23.460 196.299 C 24.805 198.351, 26.131 198.818, 32.222 199.384 C 36.275 199.761, 40.108 200.693, 41.028 201.526 C 41.924 202.336, 43.122 203, 43.689 203 C 44.257 203, 46.310 204.079, 48.253 205.397 C 50.196 206.715, 53.119 208.087, 54.749 208.445 C 57.406 209.028, 58.236 208.522, 62.782 203.548 C 65.664 200.394, 68.707 198, 69.832 198 C 70.920 198, 73.766 196.353, 76.155 194.341 C 78.545 192.329, 83.010 189.048, 86.079 187.052 C 89.147 185.055, 93.915 181.765, 96.674 179.739 C 101.306 176.339, 101.928 176.147, 104.790 177.227 C 107.716 178.331, 108.089 178.185, 111.445 174.627 C 113.400 172.554, 115 170.464, 115 169.983 C 115 169.089, 117.354 167.673, 124.621 164.198 C 126.887 163.114, 129.052 161.726, 129.430 161.113 C 129.808 160.501, 131.329 159.990, 132.809 159.978 C 134.289 159.966, 137.462 159.066, 139.859 157.978 C 144.968 155.660, 149 155.401, 149 157.391 C 149 159.551, 139.764 170.019, 137.316 170.635 C 134.293 171.395, 132.405 176.834, 134.454 178.882 C 136.395 180.824, 139.072 179.444, 146.735 172.547 C 155.760 164.425, 158.740 161.227, 160.420 157.860 C 162.613 153.463, 162.410 151.682, 159.364 148.636 C 157.031 146.304, 155.965 146.006, 150.114 146.055 C 145.498 146.093, 140.932 146.999, 135 149.054 M 106.934 192.472 C 104.423 193.781, 101.780 195.560, 101.062 196.426 C 100.343 197.291, 99.290 198, 98.722 198 C 98.154 198, 96.296 199.060, 94.594 200.356 C 92.892 201.651, 89.643 203.657, 87.373 204.813 C 82.462 207.314, 81.407 209.446, 83.500 212.641 C 85.582 215.819, 89.857 215.714, 95.808 212.338 C 98.388 210.875, 101.850 208.997, 103.500 208.166 C 110.052 204.867, 118 197.991, 118 195.623 C 118 194.156, 113.830 189.977, 112.436 190.047 C 111.921 190.072, 109.445 191.164, 106.934 192.472 M 130.500 205.379 C 127.750 206.676, 123.711 209.179, 121.524 210.939 C 119.338 212.700, 116.261 214.398, 114.688 214.712 C 113.115 215.027, 111.600 215.879, 111.321 216.605 C 111.042 217.332, 107.368 220.184, 103.157 222.943 C 98.946 225.701, 93.250 229.574, 90.500 231.548 C 80.741 238.555, 75.042 242.016, 63.053 248.220 C 42.242 258.989, 42 259.153, 42 262.467 C 42 264.985, 44.862 268, 47.252 268 C 48.129 268, 50.119 266.934, 51.673 265.631 C 53.228 264.328, 57.650 261.615, 61.500 259.602 C 65.350 257.588, 72.100 253.741, 76.500 251.051 C 80.900 248.362, 86.525 245.202, 89 244.029 C 91.475 242.856, 94.459 240.695, 95.632 239.227 C 97.470 236.927, 97.987 236.744, 99.382 237.902 C 100.354 238.709, 101 240.764, 101 243.051 C 101 246.219, 100.178 247.749, 96.092 252.179 C 88.847 260.034, 82.405 267.793, 79.291 272.414 C 77.777 274.661, 71.220 281.788, 64.721 288.250 L 52.904 300 58.521 300 L 64.138 300 77.079 286.920 C 84.196 279.726, 91.194 272.301, 92.629 270.420 C 95.434 266.742, 97.996 266.086, 100.022 268.527 C 100.948 269.643, 101.099 272.130, 100.584 277.777 C 100.196 282.024, 99.676 288.762, 99.429 292.750 L 98.979 300 103.313 300 L 107.647 300 108.895 289.250 C 109.582 283.337, 110.305 277.150, 110.503 275.500 C 110.700 273.850, 110.893 272.163, 110.931 271.750 C 111.053 270.427, 117.433 271.013, 119.441 272.532 C 120.509 273.339, 122.534 274.006, 123.941 274.014 C 125.349 274.022, 131.675 275.843, 138 278.062 C 144.325 280.280, 150.973 282.479, 152.773 282.948 C 154.572 283.416, 157.047 284.437, 158.273 285.216 C 159.498 285.994, 164.100 287.861, 168.500 289.364 C 178.376 292.738, 178.920 292.954, 187.269 296.845 C 193.732 299.857, 194.605 300, 206.578 300 C 214.683 300, 218.899 299.646, 218.500 299 C 218.160 298.450, 217.065 298, 216.066 298 C 214.234 298, 193.246 289.552, 182.904 284.652 C 179.825 283.193, 176.824 282, 176.235 282 C 175.645 282, 173.888 281.369, 172.331 280.598 C 166.733 277.827, 161.900 276, 160.166 276 C 159.195 276, 157.973 275.589, 157.450 275.088 C 154.372 272.131, 131.028 264.442, 122.047 263.426 C 118.792 263.058, 114.692 261.883, 112.937 260.815 C 109.917 258.979, 109.778 258.634, 110.360 254.389 C 110.698 251.922, 110.525 245.567, 109.976 240.268 L 108.977 230.634 111.711 227.780 C 113.214 226.211, 115.567 224.645, 116.939 224.301 C 118.311 223.956, 120.334 222.835, 121.436 221.808 C 125.136 218.361, 136.249 212.832, 138.365 213.385 C 141.276 214.147, 143 212.275, 143 208.353 C 143 205.621, 142.495 204.758, 140.435 203.975 C 136.854 202.614, 136.148 202.714, 130.500 205.379" stroke="none" fill="black" fill-rule="evenodd"/>
</svg>