<svg xmlns="http://www.w3.org/2000/svg" width="300" height="300" viewBox="0 0 300 300" version="1.1">
	<path d="M 148.450 26.906 C 147.928 27.405, 142.550 30.277, 136.500 33.288 C 126.420 38.305, 115.344 42, 110.386 42 C 107.786 42, 106 43.864, 106 46.578 C 106 50.543, 108.040 51.183, 117.077 50.050 C 121.625 49.479, 125.606 49.276, 125.923 49.599 C 126.240 49.921, 126.565 53.406, 126.645 57.342 C 126.725 61.279, 127.354 71.700, 128.042 80.500 C 130.276 109.072, 129.198 152.151, 126.037 160.669 C 124.375 165.148, 125.040 170.396, 127.324 170.829 C 129.784 171.296, 133 168.222, 133 165.404 C 133 164.147, 133.450 162.840, 134 162.500 C 134.550 162.160, 135.005 159.096, 135.011 155.691 C 135.017 152.286, 135.692 147.291, 136.511 144.591 C 137.457 141.471, 138 135.509, 138 128.233 L 138 116.783 140.518 117.415 C 142.309 117.865, 144.110 117.318, 146.750 115.524 C 148.793 114.136, 150.922 112.999, 151.482 112.999 C 152.941 112.997, 158.113 108.374, 160.205 105.202 C 161.754 102.854, 161.988 100.052, 161.993 83.807 C 161.999 66.751, 161.820 64.810, 159.950 61.639 C 155.480 54.064, 148.544 52.780, 143 58.500 C 140.952 60.613, 138.643 62, 137.172 62 C 134.765 62, 134.743 61.912, 135.219 54.494 C 135.726 46.588, 137.220 43.662, 141.382 42.418 C 144.230 41.568, 153.200 35.921, 154.718 34.023 C 156.583 31.691, 156.232 29.276, 153.777 27.557 C 151.243 25.781, 149.812 25.607, 148.450 26.906 M 74.668 62.385 C 72.966 64.982, 62.210 71.322, 57.670 72.404 C 56.113 72.775, 52.063 74.354, 48.670 75.912 C 45.276 77.471, 41.712 79.014, 40.750 79.342 C 38.014 80.273, 38.690 82.788, 42.159 84.582 C 47.029 87.101, 53.713 85.715, 65.759 79.690 C 78.703 73.216, 83 69.825, 83 66.082 C 83 63.113, 80.332 60, 77.786 60 C 76.930 60, 75.527 61.073, 74.668 62.385 M 146.042 68.449 C 145.381 69.246, 143.301 70.406, 141.420 71.026 L 138 72.155 138 79.578 C 138 83.660, 138.369 87, 138.820 87 C 139.271 87, 141.528 85.384, 143.835 83.410 C 146.142 81.435, 149.260 79.493, 150.765 79.094 C 154.125 78.202, 154.844 74.533, 152.534 70.066 C 150.829 66.770, 148.018 66.069, 146.042 68.449 M 56.250 76.031 C 54.311 76.810, 52.958 80, 54.566 80 C 55.950 80, 58.817 77.919, 59.351 76.528 C 60.010 74.811, 59.491 74.728, 56.250 76.031 M 147.234 93.031 C 143.876 96.084, 141.584 96.754, 140.500 95 C 138.907 92.423, 138 94.601, 138 101 C 138 106.023, 138.362 108, 139.281 108 C 141.173 108, 153.149 94.011, 152.800 92.209 C 152.305 89.660, 150.679 89.900, 147.234 93.031 M 62.176 100.642 C 60.347 102.083, 58.454 104.306, 57.969 105.582 C 57.194 107.619, 56.319 107.939, 50.793 108.201 C 45.023 108.475, 44.472 108.698, 44.163 110.886 C 43.977 112.202, 44.762 114.539, 45.913 116.096 C 47.061 117.649, 48 119.297, 48 119.760 C 48 120.222, 48.526 121.126, 49.168 121.768 C 50.760 123.360, 52.967 129.919, 52.985 133.115 C 53 135.794, 56.382 141, 58.106 141 C 58.634 141, 60.629 139.438, 62.538 137.529 C 64.466 135.600, 67.965 133.488, 70.411 132.774 C 76.040 131.133, 82.233 125.644, 81.809 122.672 C 81.547 120.828, 80.820 120.485, 77 120.401 C 69.918 120.245, 69.711 120.176, 70.535 118.250 C 72.553 113.534, 75 105.451, 75 103.500 C 75 97.950, 67.666 96.316, 62.176 100.642 M 26.152 106.868 C 24.312 108.464, 24.071 109.496, 24.496 113.958 C 24.769 116.830, 25.277 119.639, 25.623 120.199 C 25.970 120.760, 26.652 128.032, 27.140 136.359 C 27.628 144.687, 28.296 153.687, 28.623 156.361 C 29.008 159.503, 28.760 162.079, 27.922 163.647 C 26.896 165.563, 26.873 166.760, 27.812 169.357 C 28.551 171.401, 29 178.967, 29 189.387 C 29 207.398, 29.279 208.630, 34.412 213.321 C 37.464 216.109, 37.617 216.136, 47.510 215.641 C 53.015 215.365, 59.540 214.464, 62.010 213.639 C 64.479 212.814, 68.300 211.833, 70.500 211.459 C 72.700 211.084, 77.875 209.860, 82 208.738 C 86.125 207.617, 91.750 206.416, 94.500 206.069 C 97.250 205.723, 100.053 205.095, 100.729 204.674 C 102.427 203.615, 114 211.929, 114 214.209 C 114 214.667, 115.185 216.833, 116.633 219.021 C 119.478 223.320, 122.725 224.241, 125.071 221.414 C 126.187 220.069, 125.847 218.816, 122.830 213.164 C 120.756 209.277, 118.989 204.276, 118.591 201.163 C 118.215 198.227, 117.552 195.077, 117.116 194.163 C 113.371 186.299, 113.582 186.511, 109.209 186.192 C 104.483 185.848, 102.762 187.789, 104.842 191.119 C 107.753 195.780, 105.100 199.231, 100.066 197.331 C 96.930 196.147, 85.029 197.257, 77 199.483 C 69.018 201.695, 47.260 206.003, 44.156 205.985 C 38.801 205.954, 37 202.438, 37 192.014 C 37 187.606, 37.288 184, 37.640 184 C 39.004 184, 40.938 187.631, 40.968 190.250 C 41.006 193.477, 44.152 197, 46.998 197 C 49.167 197, 56.445 192.176, 64.750 185.234 C 70.634 180.316, 71.472 177.195, 67.923 173.418 C 66.178 171.561, 65.957 170.472, 66.537 166.604 C 67.081 162.972, 67.632 162, 69.145 162 C 70.200 162, 71.306 162.787, 71.604 163.750 C 71.901 164.713, 72.555 166.175, 73.057 167 C 75.721 171.377, 77 175.806, 77 180.656 C 77 185.754, 77.198 186.184, 80.411 188.080 C 82.287 189.187, 84.072 190.746, 84.379 191.546 C 85.251 193.819, 87.041 193.306, 93.500 188.933 C 105.068 181.102, 108.404 176.357, 104 174 C 101.899 172.876, 101.295 169.554, 103 168.500 C 103.550 168.160, 104 164.759, 104 160.941 C 104 155.206, 103.632 153.632, 101.883 151.883 C 98.675 148.675, 92.270 149.719, 86.585 154.377 C 81.656 158.416, 79.061 158.951, 78.311 156.082 C 78.035 155.027, 76.505 153.623, 74.911 152.963 C 72.484 151.958, 71.588 152.040, 69.411 153.466 C 66.914 155.103, 66.717 155.083, 64.461 152.963 C 62.430 151.056, 61.461 150.854, 57.319 151.475 C 48.404 152.812, 43.594 157.144, 44.191 163.297 C 44.599 167.507, 47.353 167.994, 51 164.500 C 52.544 163.020, 54.632 161.974, 55.651 162.168 C 59.317 162.867, 58.393 167.493, 52 180.458 C 50.090 184.331, 47.805 184.349, 46.641 180.500 C 44.931 174.849, 41.756 169.013, 38.405 165.360 C 37.784 164.684, 37.001 157.520, 36.596 148.833 C 36.204 140.400, 35.479 131.475, 34.985 129 C 34.491 126.525, 34.068 120.813, 34.044 116.307 C 34.005 109, 33.759 107.945, 31.777 106.557 C 28.975 104.593, 28.761 104.605, 26.152 106.868 M 161.437 117.083 C 159.822 118.779, 154.790 121.993, 150.255 124.224 C 140.006 129.269, 139.400 129.938, 141.463 133.928 C 142.670 136.262, 143.706 136.981, 145.776 136.923 C 149.543 136.816, 164.688 127.308, 168.333 122.761 C 170.959 119.487, 171.189 118.711, 170.187 116.511 C 168.605 113.038, 165.071 113.269, 161.437 117.083 M 58 118 C 58 119.506, 58.522 120.046, 59.750 119.810 C 60.712 119.624, 61.500 118.810, 61.500 118 C 61.500 117.190, 60.712 116.376, 59.750 116.190 C 58.522 115.954, 58 116.494, 58 118 M 166.430 149.393 C 156.800 153.338, 141.396 161.502, 138.250 164.328 C 135.790 166.537, 135.315 169.915, 137.200 171.800 C 139.161 173.761, 141.416 173.198, 146.086 169.583 C 152.141 164.895, 171.002 157.161, 180.315 155.546 C 186.205 154.525, 194.234 156.591, 197.459 159.957 C 199.849 162.452, 200.143 163.408, 199.676 167.167 C 198.709 174.957, 196.393 183.369, 195.097 183.801 C 194.398 184.034, 192.403 182.874, 190.663 181.224 C 184.631 175.502, 176.947 173.256, 176.234 177.005 C 176.077 177.833, 179.559 182.235, 183.974 186.788 C 191.699 194.756, 193.149 197.172, 191 198.500 C 190.450 198.840, 190 199.998, 190 201.073 C 190 202.148, 189.596 203.809, 189.103 204.764 C 186.739 209.338, 183 220.938, 183 223.699 C 183 224.830, 182.350 226.294, 181.556 226.954 C 180.762 227.613, 179.974 229.805, 179.806 231.826 C 179.573 234.619, 179.017 235.569, 177.487 235.788 C 175.977 236.005, 174.421 234.474, 171.253 229.656 C 164.355 219.164, 158.090 214.777, 155.117 218.359 C 154.244 219.411, 154.668 220.482, 156.996 223.109 C 158.650 224.974, 161.787 229.427, 163.968 233.004 C 166.148 236.582, 170.160 241.703, 172.882 244.384 C 176.846 248.288, 178.297 249.136, 180.166 248.639 C 182.262 248.083, 186 242.514, 186 239.948 C 186 239.415, 186.937 236.846, 188.081 234.239 C 192.583 223.988, 193 222.868, 193 221.025 C 193 219.976, 193.450 218.840, 194 218.500 C 194.550 218.160, 195 216.802, 195 215.482 C 195 212.474, 198.126 206.057, 199.608 206.025 C 200.580 206.003, 202.616 208.620, 210.346 219.824 C 215.629 227.480, 227.999 248.716, 228 250.128 C 228 251.023, 228.675 252.315, 229.500 253 C 230.539 253.863, 231 256.156, 231 260.469 C 231 268.046, 232.549 271.441, 239.794 279.750 C 245.580 286.385, 246.867 286.990, 249.529 284.328 C 251.591 282.266, 250.925 276.708, 247.990 271.483 C 246.896 269.534, 246 267.053, 246 265.970 C 246 264.886, 245.637 264, 245.192 264 C 244.213 264, 241 256.940, 241 254.786 C 241 253.939, 240.325 252.685, 239.500 252 C 238.675 251.315, 238 250.148, 238 249.406 C 238 248.665, 235.975 244.632, 233.500 240.446 C 231.025 236.260, 229 232.677, 229 232.484 C 229 232.291, 225.893 227.444, 222.095 221.713 C 218.297 215.981, 214.265 209.539, 213.135 207.396 C 212.005 205.253, 209.460 201.700, 207.479 199.500 C 202.278 193.723, 202.017 192.985, 203.580 188.494 C 204.344 186.297, 204.977 183.706, 204.985 182.736 C 205 180.964, 205.262 180.293, 208.331 174.169 C 209.323 172.189, 210 168.452, 210 164.954 C 210 159.780, 209.620 158.637, 206.852 155.484 C 201.361 149.230, 192.887 146.016, 182 146.058 C 175.848 146.082, 173.049 146.681, 166.430 149.393 M 86.209 163.700 C 84.308 165.303, 84.140 166.184, 84.676 171.750 C 85.442 179.704, 87.603 180.194, 91.462 173.289 C 94.858 167.212, 94.635 162.632, 90.922 162.200 C 89.505 162.035, 87.384 162.710, 86.209 163.700 M 146.039 183.189 C 144.918 184.392, 144 186.206, 144 187.220 C 144 189.470, 146.713 190.687, 148.267 189.133 C 148.890 188.510, 149.962 188, 150.649 188 C 151.899 188, 159.382 198.083, 161.955 203.233 C 165.092 209.514, 169.342 211.703, 172.055 208.434 C 173.082 207.196, 173.108 206.187, 172.177 203.613 C 171.530 201.823, 170.988 199.715, 170.974 198.929 C 170.960 198.143, 167.446 193.787, 163.165 189.250 C 156.178 181.843, 155.009 181, 151.730 181 C 149.261 181, 147.418 181.709, 146.039 183.189 M 129.353 186.523 C 129.031 187.361, 129.309 189.948, 129.970 192.273 C 130.631 194.598, 131.413 197.850, 131.708 199.500 C 132.003 201.150, 132.771 203.175, 133.415 204 C 134.059 204.825, 135.238 206.798, 136.034 208.385 C 136.831 209.972, 138.501 211.937, 139.746 212.753 C 143.044 214.914, 145 212.909, 145 207.367 C 145 203.968, 144.212 201.858, 141.500 198 C 139.575 195.261, 138 192.194, 138 191.185 C 138 188.918, 133.980 185, 131.654 185 C 130.710 185, 129.674 185.685, 129.353 186.523" stroke="none" fill="black" fill-rule="evenodd"/>
</svg>