<svg xmlns="http://www.w3.org/2000/svg" width="300" height="300" viewBox="0 0 300 300" version="1.1">
	<path d="M 110.615 7.490 C 107.928 9.349, 103.878 11.167, 101.615 11.531 C 96.644 12.330, 93 14.482, 93 16.619 C 93 17.484, 93.924 19.489, 95.054 21.076 C 96.888 23.651, 97.035 24.852, 96.431 32.300 C 95.466 44.189, 97.621 67.114, 100.275 73.191 C 101.430 75.836, 102.924 78, 103.595 78 C 104.266 78, 107.068 79.169, 109.821 80.597 C 113.816 82.670, 116.611 83.274, 123.663 83.590 C 128.524 83.807, 133.454 84.207, 134.619 84.479 C 135.785 84.750, 140.060 85.208, 144.119 85.495 C 148.179 85.783, 153.323 86.253, 155.552 86.541 C 161.008 87.244, 166.330 84.880, 169.374 80.400 C 171.651 77.050, 171.792 76.119, 171.381 67.172 C 170.932 57.397, 169.473 52.865, 164.080 44.500 C 163.016 42.850, 162.113 40.768, 162.073 39.872 C 162.033 38.977, 161.325 37.685, 160.500 37 C 159.675 36.315, 159 34.287, 159 32.493 C 159 28.932, 155.353 25.574, 152.191 26.223 C 149.771 26.720, 150.465 33.123, 153.409 37.461 C 154.683 39.338, 156.493 43.931, 157.432 47.668 C 158.370 51.405, 159.492 54.920, 159.925 55.481 C 161.441 57.446, 163.092 66.304, 162.470 69.137 C 161.467 73.704, 158.597 75.002, 149.527 74.988 C 145.112 74.982, 139.025 74.312, 136 73.500 C 132.975 72.688, 128.562 72.018, 126.193 72.012 C 120.710 71.997, 112.979 70.131, 110.873 68.315 C 109.978 67.544, 108.940 64.606, 108.566 61.786 C 108.192 58.967, 107.238 54.170, 106.445 51.128 C 105.486 47.448, 105.338 45.262, 106.002 44.598 C 106.551 44.049, 107 39.250, 107 33.934 L 107 24.268 111.707 20.600 C 118.316 15.451, 119.433 15.978, 119.799 24.411 C 119.968 28.306, 119.642 31.758, 119.049 32.351 C 118.472 32.928, 118 34.570, 118 36 C 118 39.345, 116.298 41, 112.859 41 C 111.351 41, 109.810 41.498, 109.434 42.107 C 107.769 44.801, 113.946 56.998, 117.708 58.441 C 121.635 59.948, 126.204 51.428, 127.597 40 C 127.966 36.975, 128.646 33.764, 129.108 32.865 C 129.570 31.965, 130.042 26.451, 130.156 20.610 C 130.362 10.156, 130.320 9.944, 127.495 6.995 C 123.357 2.675, 117.318 2.852, 110.615 7.490 M 60.698 6.750 C 60.466 7.162, 60.190 13.575, 60.083 21 C 59.976 28.425, 59.293 37.625, 58.564 41.445 C 57.065 49.307, 57.906 53.481, 61.159 54.331 C 63.987 55.071, 65.193 54.436, 67.500 50.992 C 68.600 49.349, 70.063 48.004, 70.750 48.003 C 72.193 48, 72.418 52.211, 71.111 54.764 C 69.461 57.985, 67.219 63.481, 66.357 66.418 C 65.886 68.023, 64.999 69.503, 64.387 69.706 C 63.775 69.909, 60.976 68.258, 58.167 66.038 C 53.513 62.359, 52.537 62, 47.184 62 C 42.576 62, 40.919 62.432, 39.496 64.004 C 35.691 68.209, 41.568 73.734, 48.470 72.440 C 50.685 72.024, 52.171 72.314, 53.225 73.368 C 54.069 74.211, 55.942 75.198, 57.389 75.561 C 61.057 76.482, 61.535 77.767, 59.353 80.845 C 58.318 82.305, 56.819 84.776, 56.021 86.335 C 55.223 87.895, 53.324 89.815, 51.800 90.604 C 47.321 92.920, 46.652 100, 50.912 100 C 53.316 100, 64.639 89.728, 65.588 86.686 C 65.963 85.484, 67.553 83.029, 69.120 81.232 C 70.688 79.434, 72.275 76.734, 72.646 75.232 C 73.016 73.729, 74.373 70.821, 75.660 68.770 C 76.947 66.718, 78 64.186, 78 63.142 C 78 62.099, 78.616 60.733, 79.370 60.108 C 81.546 58.302, 85.945 47.682, 86.651 42.528 C 87.241 38.222, 87.056 37.612, 84.493 35.409 C 81.212 32.590, 77.908 32.351, 74.016 34.650 C 69.793 37.144, 67.620 35.840, 68.468 31.320 C 68.845 29.307, 69.131 24.061, 69.102 19.661 C 69.054 12.360, 68.813 11.414, 66.338 8.831 C 63.677 6.054, 61.532 5.262, 60.698 6.750 M 92.602 83.461 C 88.808 85.957, 85.572 88, 85.411 88 C 84.274 88, 68.083 96.057, 67.577 96.875 C 67.228 97.440, 68.192 99.295, 69.721 100.996 C 72.321 103.889, 72.713 104.013, 75.801 102.928 C 77.617 102.291, 79.274 101.940, 79.483 102.150 C 80.228 102.895, 80.345 129.913, 79.723 157.538 C 79.099 185.217, 79.118 185.592, 81.177 186.879 C 82.962 187.993, 83.641 187.902, 85.882 186.246 C 87.322 185.181, 90.075 183.500, 92 182.511 C 93.925 181.522, 97.779 178.639, 100.565 176.106 C 103.435 173.496, 108.203 170.495, 111.565 169.181 C 114.829 167.905, 118.272 166.448, 119.216 165.943 C 120.160 165.438, 123.318 164.745, 126.234 164.402 C 132.284 163.691, 136.603 165.098, 141.783 169.465 C 147.245 174.071, 149.179 179.219, 149.097 188.937 C 149.058 193.578, 148.570 197.830, 148.013 198.387 C 147.456 198.944, 147 200.180, 147 201.133 C 147 202.086, 146.027 203.174, 144.838 203.551 C 143.114 204.099, 141.995 203.417, 139.305 200.178 C 133.876 193.642, 124.367 187, 120.440 187 C 116.325 187, 113 190.213, 113 194.189 C 113 197.486, 113.228 197.552, 116.709 195.271 C 118.704 193.964, 119.450 193.851, 119.769 194.808 C 120.657 197.471, 125.042 201.711, 131.876 206.513 C 136.045 209.442, 139.241 212.472, 139.622 213.856 C 140.270 216.213, 138.984 219.453, 134.999 225.500 C 133.912 227.150, 132.713 229.175, 132.335 230 C 131.957 230.825, 130.152 233.268, 128.324 235.430 C 126.496 237.591, 125 239.899, 125 240.558 C 125 241.216, 124.331 242.310, 123.513 242.989 C 122.284 244.009, 121.518 243.640, 119.089 240.861 C 117.473 239.013, 114.204 234.575, 111.825 231 C 108.423 225.887, 106.967 224.500, 105 224.500 C 102.841 224.500, 102.458 225.003, 102.194 228.185 C 101.954 231.064, 102.334 232.109, 103.933 232.964 C 105.059 233.567, 106.673 235.283, 107.520 236.780 C 108.367 238.276, 109.934 240.850, 111.002 242.500 C 112.070 244.150, 113.850 247.158, 114.958 249.184 C 118.686 255.999, 125.333 258.243, 128.485 253.750 C 133.453 246.671, 137.996 239.362, 137.998 238.446 C 137.999 237.867, 139.575 235.866, 141.500 234 C 143.425 232.134, 145 229.626, 145 228.426 C 145 225.807, 147.417 223.562, 149.412 224.328 C 153.028 225.715, 159.312 248.509, 160.601 264.914 C 160.878 268.441, 161.547 272.153, 162.088 273.164 C 163.211 275.262, 167.947 275.653, 169.800 273.800 C 171.168 272.432, 171.470 259.409, 170.153 258.595 C 169.688 258.307, 169.034 253.668, 168.700 248.286 C 168.366 242.904, 167.662 237.150, 167.135 235.500 C 166.608 233.850, 165.574 230.308, 164.838 227.629 C 163.553 222.951, 162.389 221.323, 156.622 216.145 C 153.980 213.772, 153.294 211.203, 154.835 209.450 C 159.561 204.071, 160.967 181.673, 157.186 172 C 154.479 165.075, 146.670 157.800, 140.036 156.025 C 128.330 152.892, 116.481 154.041, 108.538 159.078 C 106.004 160.685, 103.545 162, 103.074 162 C 102.603 162, 100.040 163.800, 97.377 166 C 94.715 168.200, 91.721 170, 90.723 170 C 89.172 170, 89.010 169.462, 89.606 166.288 C 90.362 162.257, 93.065 159.372, 97 158.396 C 98.375 158.055, 102.537 155.975, 106.250 153.773 C 113.441 149.509, 114.540 147.359, 111.336 143.818 C 109.775 142.094, 109.807 141.835, 111.836 139.675 C 113.026 138.408, 114 136.414, 114 135.245 C 114 134.075, 114.385 132.880, 114.856 132.589 C 115.900 131.944, 115.802 111.468, 114.750 110.416 C 114.337 110.004, 114 108.564, 114 107.216 C 114 104.278, 107.120 96.992, 104.368 97.016 C 101.676 97.039, 96.638 101.828, 94.125 106.755 C 91.851 111.213, 90 112.283, 90 109.140 C 90 108.116, 89.723 105.257, 89.384 102.786 C 88.700 97.797, 90.251 95.542, 96.385 92.611 C 106.101 87.969, 108.972 81.275, 101.990 79.540 C 100.089 79.068, 97.868 79.995, 92.602 83.461 M 97.500 112.875 C 95.400 113.321, 94.404 114.186, 94.180 115.756 C 93.782 118.557, 95.291 118.602, 99.632 115.918 C 104.982 112.612, 104.172 111.456, 97.500 112.875 M 90 129.500 C 90 133.075, 90.247 136, 90.550 136 C 91.779 136, 96.732 133.028, 97.952 131.558 C 99.057 130.226, 98.855 129.582, 96.629 127.356 C 95.183 125.910, 94 124.339, 94 123.864 C 94 123.389, 93.100 123, 92 123 C 90.205 123, 90 123.667, 90 129.500 M 101 139.640 C 101 143.130, 93.903 145.503, 91.287 142.887 C 89.075 140.675, 87.932 142.997, 88.611 148.324 C 88.974 151.171, 89.426 153.678, 89.615 153.896 C 89.915 154.242, 93.399 151.416, 101.750 144.055 C 104.302 141.805, 104.774 138, 102.500 138 C 101.675 138, 101 138.738, 101 139.640 M 83.737 194.250 C 82.758 197.100, 85.219 201.297, 91.667 207.771 C 95.425 211.545, 99.547 216.065, 100.826 217.816 C 105.308 223.951, 111 222.900, 111 215.937 C 111 211.854, 109.361 209.858, 107.868 212.122 C 107.163 213.191, 106.241 212.602, 103.761 209.500 C 98.507 202.928, 87.760 193, 85.900 193 C 84.947 193, 83.973 193.563, 83.737 194.250 M 48.133 205.340 C 46.682 207.088, 48.277 212, 50.295 212 C 52.017 212, 59.977 218.780, 60.072 220.328 C 60.192 222.267, 66.884 227.258, 68.522 226.630 C 69.351 226.312, 70.501 224.802, 71.076 223.276 C 71.652 221.749, 72.769 219.195, 73.559 217.600 C 75.485 213.714, 73.928 211.735, 69.586 212.550 C 66.890 213.056, 65.890 212.583, 62.474 209.188 C 57.943 204.684, 50.365 202.651, 48.133 205.340 M 6.441 211.441 C 3.596 213.554, 5.391 215.831, 13.189 220 C 21.890 224.652, 22.431 225.174, 26.755 233.081 C 28.804 236.827, 31.208 240.083, 32.098 240.315 C 34.801 241.022, 37 239.090, 37 236.009 C 37 234.419, 37.450 232.840, 38 232.500 C 39.793 231.392, 39.054 228.971, 36.641 228.054 C 35.343 227.560, 33.138 225.205, 31.740 222.819 C 26.263 213.474, 12.213 207.155, 6.441 211.441" stroke="none" fill="black" fill-rule="evenodd"/>
</svg>