<svg xmlns="http://www.w3.org/2000/svg" width="300" height="300" viewBox="0 0 300 300" version="1.1">
	<path d="M 112.357 5.435 C 112.313 8.474, 111.808 11.532, 111.234 12.231 C 110.661 12.929, 110.036 14.620, 109.846 15.989 C 109.608 17.703, 108.254 19.131, 105.500 20.573 C 103.300 21.725, 98.472 24.276, 94.772 26.242 C 91.071 28.208, 86.121 30.134, 83.772 30.521 C 81.422 30.909, 78.938 31.680, 78.250 32.236 C 76.587 33.579, 76.660 38.153, 78.382 40.508 C 79.652 42.245, 80.101 42.287, 83.912 41.029 C 89.566 39.163, 90.404 40.210, 89.620 48.171 C 88.014 64.490, 85.803 77.734, 84.193 80.684 C 83.537 81.886, 83 84.222, 83 85.875 C 83 87.529, 82.550 89.160, 82 89.500 C 81.450 89.840, 80.984 91.329, 80.965 92.809 C 80.945 94.289, 80.286 96.625, 79.500 98 C 78.714 99.375, 78.055 101.711, 78.035 103.191 C 78.016 104.671, 77.550 106.160, 77 106.500 C 76.450 106.840, 76 107.998, 76 109.073 C 76 110.148, 75.606 111.809, 75.124 112.764 C 74.643 113.719, 73.473 117.200, 72.525 120.500 C 71.577 123.800, 70.396 127.281, 69.900 128.236 C 69.405 129.191, 69 130.824, 69 131.864 C 69 132.904, 68.325 134.315, 67.500 135 C 66.675 135.685, 66 136.756, 66 137.380 C 66 138.004, 64 142.533, 61.556 147.443 C 57.118 156.360, 56.813 158, 59.594 158 C 61.408 158, 66 155.082, 66 153.929 C 66 153.467, 67.116 151.444, 68.481 149.433 C 71.122 145.541, 74.617 138.372, 77.466 131 C 78.423 128.525, 79.609 125.719, 80.103 124.764 C 80.596 123.809, 81 121.532, 81 119.705 C 81 115.886, 83.155 112.359, 84.848 113.406 C 85.482 113.798, 86 115.366, 86 116.892 C 86 118.418, 86.308 119.975, 86.685 120.352 C 88.261 121.927, 89.991 128.799, 89.814 132.775 C 89.641 136.657, 90.073 137.506, 94.524 142.025 C 99.931 147.514, 101.014 147.630, 106.750 143.333 C 111.387 139.859, 110.828 134, 105.859 134 C 102.064 134, 102.519 132.223, 108.792 122.554 C 110.556 119.834, 112.014 116.909, 112.032 116.054 C 112.049 115.199, 112.724 113.626, 113.532 112.559 C 116.581 108.528, 114.517 101, 110.363 101 C 107.646 101, 105 103.038, 105 105.131 C 105 106.264, 104.382 108.386, 103.627 109.846 C 102.872 111.306, 101.529 114.188, 100.643 116.250 C 98.839 120.449, 96 121.328, 96 117.687 C 96 115.064, 91.227 110, 88.754 110 C 85.817 110, 85.728 107.938, 88.309 99.657 C 89.707 95.170, 91.307 89.700, 91.865 87.500 C 95.248 74.161, 96.496 71.245, 99.728 69.126 C 101.512 67.957, 103.437 67, 104.004 67 C 104.639 67, 104.977 69.987, 104.881 74.750 C 104.746 81.464, 104.398 82.853, 102.279 85.142 C 99.531 88.110, 99.518 91.680, 102.250 93.393 C 103.548 94.206, 104.452 94.163, 105.750 93.225 C 106.712 92.529, 108.932 91.301, 110.682 90.495 C 112.432 89.689, 114.110 88.632, 114.411 88.144 C 114.712 87.657, 116.205 87.007, 117.729 86.700 C 119.553 86.332, 121.867 84.325, 124.500 80.828 C 126.700 77.906, 129.891 74.106, 131.590 72.384 C 136.802 67.103, 138.857 62.850, 139.573 55.865 C 140.214 49.606, 140.113 49.157, 137.358 46.075 C 135.670 44.185, 133.024 42.546, 130.986 42.126 L 127.500 41.409 127.617 34.955 C 127.770 26.539, 128.707 23.084, 131.709 19.858 C 133.238 18.214, 134.041 16.325, 133.834 14.858 C 133.521 12.647, 133.081 12.500, 126.750 12.500 C 121.320 12.500, 120 12.197, 120 10.950 C 120 10.097, 120.483 8.917, 121.073 8.327 C 121.663 7.737, 122 5.735, 121.823 3.877 C 121.513 0.637, 121.317 0.488, 116.968 0.204 L 112.437 -0.092 112.357 5.435 M 111.752 29.092 C 109.543 30.757, 109.127 31.689, 109.631 33.832 C 109.976 35.300, 110.650 36.927, 111.129 37.450 C 111.608 37.972, 112 39.605, 112 41.078 C 112 44.041, 114.569 46.860, 115.945 45.408 C 116.783 44.524, 117.825 38.083, 118.277 31 C 118.458 28.158, 118.124 27.455, 116.500 27.260 C 115.400 27.128, 113.263 27.952, 111.752 29.092 M 98 45.941 C 98 50.859, 98.363 55.106, 98.806 55.380 C 99.249 55.654, 100.712 55.333, 102.056 54.666 C 105.081 53.166, 105.853 47.868, 103.683 43.500 C 102.864 41.850, 101.939 39.712, 101.628 38.750 C 101.317 37.788, 100.374 37, 99.531 37 C 98.270 37, 98 38.579, 98 45.941 M 126.411 57.500 C 126.066 58.875, 125.382 60, 124.892 60 C 124.401 60, 124 61.575, 124 63.500 C 124 68.041, 126.324 68.157, 129.011 63.750 C 131.672 59.385, 131.676 55, 129.019 55 C 127.740 55, 126.816 55.886, 126.411 57.500 M 114 62.500 C 114 63.417, 114.484 64.005, 115.075 63.808 C 115.666 63.611, 116.150 63.023, 116.150 62.500 C 116.150 61.977, 115.666 61.389, 115.075 61.192 C 114.484 60.995, 114 61.583, 114 62.500 M 170.399 75.403 C 169.764 77.058, 170.208 81.591, 171.977 91.500 C 172.566 94.800, 173.479 100.712, 174.006 104.638 C 174.533 108.563, 175.422 112.980, 175.982 114.453 C 177.553 118.584, 177.220 127.818, 175.389 130.918 C 173.171 134.673, 167.468 136, 153.551 136 C 139.583 136, 136.521 135.097, 137.382 131.232 C 137.717 129.729, 138.288 125.350, 138.650 121.500 C 139.214 115.514, 139.794 113.931, 142.655 110.570 C 144.495 108.409, 146 105.863, 146 104.912 C 146 103.449, 148.309 98.094, 152.102 90.764 C 154.422 86.279, 151.582 81, 146.850 81 C 144.458 81, 141 85.737, 141 89.012 C 141 90.521, 140.351 92.294, 139.558 92.952 C 138.765 93.610, 137.977 95.578, 137.808 97.324 C 137.612 99.344, 136.954 100.500, 136 100.500 C 134.852 100.500, 134.429 98.978, 134.196 94.019 C 133.878 87.238, 132.189 84, 128.967 84 C 126.041 84, 124.701 86.604, 125.500 90.739 C 125.899 92.808, 126.191 104.205, 126.149 116.066 L 126.072 137.633 128.872 140.698 C 133.232 145.472, 142.116 146.630, 162.500 145.080 C 178.385 143.872, 178.523 143.841, 181.760 140.726 C 185.904 136.737, 186.987 132.735, 186.994 121.390 C 186.999 113.471, 186.693 111.826, 184.650 108.817 C 182.140 105.117, 181.290 102.424, 180.131 94.500 C 179.729 91.750, 178.860 88.517, 178.200 87.316 C 177.540 86.114, 176.967 84.089, 176.927 82.816 C 176.841 80.092, 173.937 74.812, 172.207 74.236 C 171.544 74.015, 170.730 74.540, 170.399 75.403 M 215.066 161.327 C 214.140 163.763, 215.255 195.364, 216.359 198 C 216.705 198.825, 217.457 203.100, 218.031 207.500 C 218.605 211.900, 219.524 218.200, 220.074 221.500 C 220.624 224.800, 221.450 232.287, 221.910 238.139 C 222.369 243.990, 223.066 249.297, 223.458 249.933 C 224.676 251.903, 221.928 254, 218.128 254.001 C 216.132 254.002, 211.125 254.706, 207 255.567 C 196.931 257.668, 156.006 258.734, 149.282 257.071 C 138.848 254.489, 129 247.902, 129 243.504 C 129 242.347, 128.522 240.922, 127.937 240.337 C 126.044 238.444, 128.383 203.386, 130.642 199.792 C 131.377 198.623, 131.790 196.200, 133.640 182.227 C 134.412 176.392, 133.520 173.558, 130.477 172.171 C 126.521 170.369, 124.152 170.740, 115.510 174.512 C 111.116 176.430, 107.066 177.999, 106.510 177.997 C 105.955 177.996, 104.600 176.308, 103.500 174.247 C 101.350 170.218, 98.514 169.119, 95.052 170.972 C 93.229 171.948, 93 173.022, 93 180.601 C 93 185.293, 92.518 190.032, 91.929 191.132 C 90.846 193.156, 89.303 200.171, 88.327 207.500 C 88.035 209.700, 87.391 211.927, 86.898 212.450 C 86.404 212.972, 86 214.380, 86 215.578 C 86 216.776, 85.325 219.371, 84.500 221.346 C 83.675 223.320, 83 226.499, 83 228.409 C 83 230.319, 82.550 232.160, 82 232.500 C 81.450 232.840, 81 234.914, 81 237.109 C 81 239.304, 80.386 242.314, 79.636 243.800 C 77.406 248.215, 76.702 256.508, 78.436 257.947 C 81.596 260.569, 85.249 257.141, 86.370 250.500 C 87.097 246.198, 88.638 239.981, 89.840 236.500 C 90.410 234.850, 91.382 231.475, 92 229 C 92.618 226.525, 93.591 223.150, 94.163 221.500 C 94.735 219.850, 95.403 217.375, 95.649 216 C 96.790 209.607, 99.506 200.932, 101.857 196.175 C 104.521 190.785, 118.743 181.920, 122.446 183.341 C 124.200 184.014, 124.464 187.816, 123.076 192.429 C 120.537 200.872, 117.930 220.271, 117.892 231 C 117.828 248.847, 125.632 259.013, 144.092 265.127 C 150.131 267.128, 151.826 267.215, 173.500 266.641 C 186.150 266.306, 199.875 265.587, 204 265.043 C 208.125 264.499, 214.875 263.788, 219 263.463 C 229.707 262.619, 230.245 262.429, 232.849 258.568 C 234.742 255.764, 235.110 254.153, 234.745 250.293 C 233.832 240.667, 231.769 228.476, 230.896 227.550 C 230.403 227.028, 230 225.367, 230 223.859 C 230 222.351, 229.550 220.840, 229 220.500 C 228.450 220.160, 228 217.939, 228 215.563 C 228 213.078, 227.405 210.751, 226.597 210.081 C 225.826 209.441, 224.963 207.023, 224.679 204.708 C 223.318 193.608, 221.918 184.085, 221.047 180 C 220.519 177.525, 220.065 173.475, 220.038 171 C 219.979 165.568, 218.277 159, 216.928 159 C 216.390 159, 215.552 160.047, 215.066 161.327" stroke="none" fill="black" fill-rule="evenodd"/>
</svg>