<svg xmlns="http://www.w3.org/2000/svg" width="300" height="300" viewBox="0 0 300 300" version="1.1">
	<path d="M 88.671 5.190 C 86.944 7.933, 85.560 15.548, 85.525 22.500 L 85.500 27.500 79.316 30.500 C 75.914 32.150, 72.167 34.388, 70.989 35.474 C 69.811 36.560, 67.462 37.910, 65.769 38.474 C 60.590 40.201, 59.650 44.406, 63.322 49.427 C 64.608 51.185, 65.028 51.233, 68.116 49.976 C 69.977 49.218, 74.777 46.621, 78.782 44.204 C 82.788 41.788, 86.682 40.048, 87.436 40.337 C 89.255 41.035, 89.609 47.175, 89.522 76.500 C 89.444 102.678, 89.679 101.469, 83 109.938 C 81.075 112.378, 78.600 115.842, 77.500 117.635 C 73.820 123.633, 64.679 136.469, 62.075 139.294 C 60.659 140.830, 57.250 144.505, 54.500 147.461 C 51.750 150.416, 48.812 153.659, 47.970 154.667 C 47.129 155.675, 44.204 158.998, 41.470 162.051 C 38.737 165.104, 35.055 169.379, 33.290 171.551 C 31.524 173.723, 28.436 177.525, 26.427 180 C 24.418 182.475, 22.065 184.907, 21.199 185.405 C 17.928 187.284, 13 193.010, 13 194.931 C 13 198.887, 19.746 200.374, 22.750 197.082 C 28.874 190.370, 33.350 186, 34.103 186 C 34.581 186, 35.584 184.538, 36.331 182.750 C 37.078 180.963, 39.906 177.025, 42.614 174 C 45.322 170.975, 48.142 167.312, 48.879 165.860 C 49.617 164.408, 51.321 162.631, 52.667 161.911 C 58.156 158.973, 78.795 135.295, 84 125.965 C 84.825 124.487, 87.750 120.625, 90.500 117.384 C 93.250 114.142, 95.950 110.768, 96.500 109.886 C 97.050 109.003, 98.329 107.108, 99.343 105.675 C 101.144 103.126, 101.139 103.004, 99.093 100.130 C 96.787 96.892, 96.415 93.985, 98.091 92.309 C 99.538 90.862, 99.491 48.786, 98.039 46.073 C 96.853 43.857, 96.662 35.032, 97.765 33.441 C 98.169 32.859, 101.650 30.653, 105.500 28.539 C 118.815 21.229, 120.661 18.790, 115.459 15.381 C 112.686 13.564, 113.394 13.358, 103.020 19.013 C 100.006 20.656, 97.210 22, 96.807 22 C 96.405 22, 95.946 17.837, 95.788 12.750 C 95.501 3.538, 95.489 3.499, 92.813 3.190 C 90.882 2.967, 89.716 3.529, 88.671 5.190 M 117.536 40.961 C 116.124 42.520, 115.901 43.855, 116.445 47.479 C 117.204 52.543, 114.475 62.958, 110.308 70.899 C 109.039 73.318, 108 76.251, 108 77.417 C 108 78.582, 106.846 81.234, 105.436 83.309 C 102.674 87.374, 102.547 90.699, 105.093 92.294 C 107.223 93.628, 112.853 89.512, 113.653 86.036 C 113.974 84.641, 115.327 81.588, 116.660 79.250 C 119.161 74.865, 122.279 73.679, 124.768 76.168 C 125.410 76.810, 127.413 77.887, 129.218 78.560 C 147.299 85.302, 148.589 85.412, 148.345 80.184 C 148.065 74.181, 142.770 70.626, 131.003 68.541 C 123.359 67.186, 122.819 66.173, 125.911 58.985 C 128.866 52.117, 128.788 43.478, 125.750 40.944 C 122.826 38.504, 119.753 38.511, 117.536 40.961 M 69.947 63.750 C 69.283 65.813, 67.448 70.294, 65.870 73.708 C 64.291 77.123, 63 80.394, 63 80.978 C 63 81.562, 61.875 83.822, 60.500 86 C 59.125 88.178, 58 90.434, 58 91.013 C 58 92.854, 52.855 102.352, 49.619 106.484 C 46.701 110.211, 44.850 112.013, 37.615 118.172 C 35.101 120.313, 34.881 120.909, 35.901 122.814 C 37.844 126.446, 41.208 125.536, 46.308 120 C 48.841 117.250, 51.568 115, 52.368 115 C 54.832 115, 59.545 108.370, 64.633 97.750 C 65.884 95.138, 67.506 93, 68.236 93 C 68.967 93, 71.974 95.479, 74.919 98.509 C 79.179 102.892, 80.556 103.783, 81.656 102.870 C 83.046 101.717, 82.631 95.719, 81.007 93.500 C 80.605 92.950, 79.988 91.292, 79.635 89.816 C 79.283 88.340, 77.646 86.172, 75.998 84.998 C 72.852 82.758, 72.360 81.120, 73.968 78.236 C 75.397 75.674, 78 67.207, 78 65.120 C 78 62.951, 74.973 60, 72.749 60 C 71.789 60, 70.675 61.491, 69.947 63.750 M 97.250 114.662 C 96.563 114.940, 96 115.946, 96 116.898 C 96 118.709, 101.706 122, 104.846 122 C 105.824 122, 108.487 122.900, 110.764 124 C 113.041 125.100, 115.539 126, 116.317 126 C 117.094 126, 118.887 126.910, 120.300 128.021 C 121.713 129.133, 124.812 130.725, 127.185 131.560 C 132.615 133.468, 139.465 136.717, 144 139.534 C 145.925 140.729, 148.625 142.061, 150 142.492 C 151.375 142.923, 157.510 145.688, 163.633 148.638 C 169.756 151.587, 175.337 154, 176.036 154 C 176.735 154, 178.983 155.815, 181.031 158.034 C 184.326 161.603, 185.328 162.092, 189.724 162.284 C 195.368 162.529, 198 160.974, 198 157.392 C 198 154.810, 192.631 150.640, 187.791 149.463 C 186.301 149.100, 184.558 148.173, 183.919 147.402 C 183.279 146.631, 182.068 146, 181.228 146 C 180.387 146, 176.647 144.240, 172.915 142.088 C 169.183 139.936, 165.182 137.875, 164.025 137.508 C 162.868 137.141, 154.851 133.347, 146.210 129.078 C 137.570 124.809, 128.475 120.747, 126 120.051 C 123.525 119.355, 119.925 118.217, 118 117.524 C 110.115 114.682, 107.147 114.004, 102.929 114.079 C 100.493 114.122, 97.938 114.385, 97.250 114.662 M 98.687 140.805 C 97.209 142.347, 96 144.156, 96 144.825 C 96 145.493, 94.875 147.822, 93.500 150 C 92.125 152.178, 91 154.327, 91 154.776 C 91 155.225, 88.975 158.876, 86.500 162.891 C 84.025 166.905, 82 170.674, 82 171.266 C 82 171.858, 81.371 173.053, 80.602 173.921 C 79.306 175.384, 75.686 181.785, 70.661 191.500 C 68.401 195.870, 61.942 205.444, 55.565 213.876 C 53.329 216.833, 50.600 220.454, 49.500 221.922 C 44.111 229.119, 40.465 233.017, 33.985 238.510 C 28.268 243.356, 26.974 244.978, 27.209 247 C 27.885 252.810, 35.799 249.359, 46.413 238.625 C 52.479 232.491, 54.567 229.968, 59.758 222.500 C 66.655 212.579, 72.422 205, 73.075 205 C 74.666 205, 85.374 211.621, 86.379 213.226 C 87.553 215.101, 85.428 219.811, 81.837 223.295 C 80.820 224.282, 79.210 226.307, 78.261 227.795 C 74.690 233.390, 60.786 248.878, 50.010 259.263 C 43.868 265.183, 39.027 270.583, 39.254 271.263 C 40.114 273.845, 43.337 273.011, 50.040 268.473 C 56.941 263.801, 82 240.022, 82 238.146 C 82 237.605, 84.246 234.538, 86.991 231.331 C 89.736 228.124, 91.986 225.016, 91.991 224.424 C 91.996 223.833, 93.120 222.296, 94.490 221.010 C 96.955 218.694, 97.001 218.690, 99.240 220.586 C 100.483 221.638, 101.725 222.731, 102 223.013 C 102.867 223.904, 116.820 235.402, 119.766 237.653 C 124.297 241.117, 131.725 245, 133.820 245 C 136.530 245, 138.202 242.622, 137.822 239.310 C 137.563 237.053, 136.451 235.959, 132.170 233.754 C 126.828 231.001, 117.760 224.336, 111.072 218.248 C 109.108 216.459, 106.754 214.754, 105.842 214.460 C 102.467 213.369, 102.930 210.872, 107.438 205.858 C 111.906 200.889, 117.430 190.387, 119.988 182 C 120.743 179.525, 121.766 176.960, 122.262 176.299 C 122.758 175.639, 123.186 172.571, 123.214 169.483 C 123.259 164.443, 122.924 163.516, 119.936 160.434 C 115.970 156.342, 113.936 156.190, 107.419 159.496 C 100.048 163.236, 98.124 162.679, 101.857 157.885 C 104.165 154.920, 108 146.312, 108 144.095 C 108 141.607, 105.118 138, 103.130 138 C 102.164 138, 100.165 139.262, 98.687 140.805 M 105 171.002 C 103.075 172.055, 100.514 172.935, 99.309 172.958 C 98.104 172.981, 96.829 173.468, 96.475 174.041 C 96.121 174.613, 94.182 176.137, 92.166 177.429 C 89.985 178.825, 87.502 181.746, 86.037 184.638 C 84.683 187.312, 82.496 190.958, 81.176 192.740 C 78.576 196.253, 78.844 199, 81.789 199 C 82.807 199, 85.480 200.575, 87.729 202.500 C 89.978 204.425, 92.494 206, 93.320 206 C 96.448 206, 106.121 191.057, 108.855 182 C 110.514 176.503, 110.858 169.790, 109.500 169.386 C 108.950 169.223, 106.925 169.950, 105 171.002" stroke="none" fill="black" fill-rule="evenodd"/>
</svg>