<svg xmlns="http://www.w3.org/2000/svg" width="300" height="300" viewBox="0 0 300 300" version="1.1">
	<path d="M 104.358 3.750 C 104.699 5.813, 104.983 9.877, 104.989 12.781 C 105.002 19.141, 106.817 20.455, 110.643 16.877 C 114.572 13.202, 115.188 11.351, 114.450 5.444 L 113.770 0 108.754 0 L 103.738 0 104.358 3.750 M 130 13.690 C 128.478 14.230, 123.853 17.064, 116.371 22.042 C 114.100 23.552, 111.175 25.121, 109.871 25.528 C 108.567 25.934, 103.943 28.017, 99.595 30.155 C 86.502 36.596, 68.505 40.245, 66.426 36.881 C 65.254 34.983, 61.095 36.058, 59.193 38.750 C 56.935 41.944, 57.649 45.206, 60.996 46.998 C 63.862 48.532, 82.567 47.800, 86.712 45.992 C 88.478 45.221, 90.241 44.908, 90.630 45.296 C 91.018 45.685, 91.538 48.589, 91.786 51.751 C 92.034 54.913, 92.840 58.190, 93.578 59.034 C 94.316 59.878, 96.048 63.120, 97.427 66.240 C 98.807 69.359, 101.075 72.658, 102.468 73.571 C 104.419 74.849, 105 76.075, 105 78.915 C 105 80.942, 105.561 83.161, 106.247 83.847 C 107.102 84.702, 107.534 89.240, 107.623 98.297 C 107.695 105.559, 107.809 111.838, 107.877 112.250 C 108.158 113.958, 113.760 112.879, 115.660 110.750 C 118.028 108.098, 120.493 96.093, 118.980 94.580 C 118.441 94.041, 117.997 91.552, 117.994 89.050 C 117.990 86.547, 117.309 83.199, 116.480 81.609 C 115.352 79.447, 115.214 77.935, 115.931 75.609 C 116.459 73.899, 117.632 69.913, 118.538 66.752 C 119.444 63.590, 120.593 60.751, 121.092 60.443 C 121.592 60.134, 122 58.810, 122 57.500 C 122 56.190, 122.400 54.871, 122.889 54.568 C 123.378 54.266, 124.088 52.777, 124.467 51.259 C 124.846 49.742, 125.758 47.825, 126.493 47 C 127.229 46.175, 128.125 43.911, 128.486 41.969 C 129.301 37.575, 126.680 34.678, 122.342 35.175 C 119.406 35.512, 119.663 35.076, 113.871 49.500 C 113.209 51.150, 111.904 54.750, 110.972 57.500 C 109.739 61.137, 108.763 62.500, 107.389 62.500 C 106.132 62.500, 105.386 61.664, 105.159 60 C 104.971 58.625, 104.278 56.825, 103.619 56 C 102.960 55.175, 101.647 52.789, 100.702 50.698 C 99.599 48.259, 97.868 46.427, 95.872 45.588 L 92.762 44.280 95.103 42.640 C 96.391 41.738, 98.038 41, 98.763 41 C 99.924 41, 109.886 36.391, 114 33.951 C 114.825 33.462, 117.500 32.134, 119.945 31.001 C 122.390 29.867, 125.847 27.828, 127.628 26.470 C 129.409 25.111, 131.502 24, 132.278 24 C 134.304 24, 137 20.705, 137 18.228 C 137 17.065, 136 15.413, 134.777 14.557 C 132.404 12.894, 132.298 12.875, 130 13.690 M 142.500 51.040 C 139.200 53.177, 134.549 56.374, 132.164 58.145 C 128.023 61.220, 127.853 61.549, 128.398 65.433 C 128.711 67.670, 129.034 76.925, 129.115 86 C 129.281 104.484, 129.978 107, 134.939 107 C 137.111 107, 138.538 106.066, 140.666 103.250 C 144.882 97.671, 146 95.339, 146 92.121 C 146 88.015, 148.286 87.637, 151.635 91.189 C 154.799 94.544, 161.330 99, 163.083 99 C 163.701 99, 166.458 101.025, 169.211 103.500 C 176.437 109.996, 180 109.299, 180 101.389 C 180 97.914, 179.462 96.725, 176.923 94.589 C 175.231 93.165, 173.379 92, 172.809 92 C 171.590 92, 161.774 85.108, 155.372 79.757 C 147.031 72.784, 144.700 72.754, 143.415 79.600 C 142.684 83.500, 140.355 84.127, 139.143 80.750 C 138.698 79.513, 138.372 76.034, 138.417 73.020 L 138.500 67.540 143.035 65.382 C 145.529 64.195, 148.171 62.499, 148.907 61.612 C 149.643 60.725, 151.035 60, 152 60 C 154.169 60, 155.632 58.313, 156.515 54.795 C 157.044 52.690, 156.634 51.543, 154.641 49.550 C 151.292 46.201, 149.665 46.401, 142.500 51.040 M 63.788 69.500 C 61.205 70.875, 58.451 72, 57.668 72 C 56.885 72, 55.709 72.646, 55.053 73.436 C 54.398 74.225, 52.574 75.154, 51 75.500 C 46.792 76.424, 45.532 78.395, 46.673 82.270 C 47.562 85.292, 47.893 85.488, 51.812 85.311 C 54.115 85.207, 56 85.433, 56 85.813 C 56 86.193, 54.844 91.004, 53.431 96.502 C 52.018 102.001, 50.515 107.853, 50.091 109.507 C 49.667 111.161, 48.853 113.411, 48.283 114.507 C 47.712 115.603, 46.740 118.107, 46.123 120.071 C 43.058 129.819, 46.672 132.303, 51.951 124.077 C 53.688 121.369, 55.760 118.614, 56.555 117.954 C 57.350 117.295, 58 115.980, 58 115.033 C 58 114.085, 58.859 112.533, 59.909 111.582 C 61.685 109.975, 62.037 109.968, 64.959 111.479 C 66.687 112.372, 68.909 112.846, 69.898 112.532 C 72.675 111.651, 78.233 104.132, 79.080 100.110 C 79.499 98.124, 80.543 94.025, 81.401 91 C 82.261 87.969, 82.902 82.224, 82.828 78.202 C 82.709 71.706, 82.422 70.690, 80.212 68.952 C 76.632 66.136, 69.671 66.368, 63.788 69.500 M 68.202 80.257 C 67.589 80.995, 66.796 83.602, 66.440 86.050 C 66.084 88.497, 65.164 92.719, 64.396 95.432 C 63.628 98.144, 63 100.956, 63 101.682 C 63 103.357, 66.619 103.410, 67.683 101.750 C 69.160 99.445, 70.970 93.525, 70.985 90.950 C 70.993 89.547, 71.483 87.917, 72.073 87.327 C 73.684 85.716, 72.802 79.574, 70.908 79.215 C 70.032 79.050, 68.815 79.518, 68.202 80.257 M 139.026 128.432 C 137.998 131.135, 139.028 135.867, 141.448 139.560 C 143.551 142.770, 148 159.937, 148 164.841 C 148 167.064, 148.386 169.121, 148.859 169.413 C 150.045 170.146, 151.282 180.554, 151.603 192.500 C 151.751 198, 152.362 207.900, 152.962 214.500 C 153.561 221.100, 154.511 231.675, 155.071 238 C 155.632 244.325, 155.969 255.575, 155.820 263 C 155.448 281.512, 158.101 287.743, 163.359 280.711 C 165.747 277.518, 165.758 277.377, 165.448 255.811 C 165.277 243.883, 164.686 233.283, 164.137 232.255 C 163.587 231.228, 162.625 220.063, 162 207.444 C 160.179 170.732, 157.288 146.208, 154.391 142.921 C 153.626 142.053, 153 140.590, 153 139.671 C 153 138.752, 152.642 138, 152.205 138 C 151.768 138, 150.606 136.050, 149.623 133.667 C 147.978 129.677, 143.876 126, 141.071 126 C 140.455 126, 139.534 127.095, 139.026 128.432 M 76.052 144.438 C 74.816 145.926, 75.502 154.517, 77.015 156.500 C 77.435 157.050, 78.543 160.674, 79.477 164.554 C 82.471 176.992, 80.068 220.166, 75.499 236 C 74.626 239.025, 73.427 243.188, 72.834 245.251 C 72.017 248.096, 72.057 249.363, 73.001 250.501 C 77.072 255.406, 83.944 246.840, 83.985 236.809 C 83.993 234.779, 84.398 232.872, 84.885 232.571 C 85.703 232.065, 86.433 229.235, 87.351 223 C 87.553 221.625, 88.328 216.450, 89.073 211.500 C 90.635 201.119, 90.737 170.729, 89.253 158.065 C 88.330 150.196, 88.022 149.408, 84.647 146.315 C 80.760 142.753, 77.958 142.141, 76.052 144.438 M 122.977 161.584 C 119.965 163.555, 116.375 166.204, 115 167.471 C 113.625 168.739, 111.536 170.066, 110.358 170.421 C 107.342 171.330, 106.597 175.041, 108.956 177.400 C 110.687 179.132, 111.283 179.187, 115.678 178.019 C 118.330 177.314, 122.099 175.671, 124.054 174.369 C 126.008 173.066, 128.310 172, 129.169 172 C 134.235 172, 138.596 163.421, 135.353 159.837 C 132.850 157.071, 129.055 157.607, 122.977 161.584 M 133.079 181.585 C 130.648 182.348, 125.136 185.284, 120.831 188.111 C 114.206 192.461, 112.516 193.153, 109.838 192.618 C 105.332 191.716, 103 194.105, 103 199.620 C 103 205.433, 105.247 206.711, 112.586 205.068 C 115.479 204.421, 118.385 203.241, 119.045 202.446 C 119.705 201.651, 120.810 201, 121.500 201 C 122.190 201, 123.315 200.325, 124 199.500 C 124.685 198.675, 126.202 197.992, 127.372 197.982 C 128.543 197.972, 131.501 196.608, 133.948 194.950 C 137.730 192.387, 139.010 192.029, 142.505 192.553 C 148.397 193.437, 149.821 191.510, 147.522 185.764 C 146.585 183.422, 145.297 181.174, 144.659 180.768 C 142.939 179.674, 138.077 180.017, 133.079 181.585" stroke="none" fill="black" fill-rule="evenodd"/>
</svg>