<svg xmlns="http://www.w3.org/2000/svg" width="300" height="300" viewBox="0 0 300 300" version="1.1">
	<path d="M 96.563 4.647 C 97.045 9.792, 98.368 12, 100.967 12 C 103.853 12, 106 8.660, 106 4.171 L 106 0 101.064 0 L 96.127 0 96.563 4.647 M 118 6.727 C 116.625 6.978, 114.825 7.764, 114 8.474 C 113.175 9.184, 108.225 12.178, 103 15.127 C 97.775 18.076, 92.600 21.036, 91.500 21.705 C 90.400 22.374, 88.825 23.204, 88 23.549 C 87.175 23.894, 83.539 25.487, 79.920 27.088 C 76.301 28.690, 72.701 30.006, 71.920 30.013 C 71.139 30.020, 67.647 30.920, 64.161 32.013 C 60.674 33.106, 55.847 34, 53.434 34 C 49.857 34, 48.743 34.462, 47.408 36.500 C 45.886 38.823, 45.891 39.184, 47.473 41.599 C 48.959 43.868, 49.642 44.117, 52.838 43.560 C 54.852 43.209, 59.200 42.533, 62.500 42.059 C 65.800 41.584, 70.975 40.266, 74 39.130 C 81.787 36.207, 83 36.342, 83 40.134 C 83 43.146, 83.938 47.532, 86.180 55 C 86.757 56.925, 88.557 59.901, 90.178 61.612 C 92.573 64.142, 93.320 66.110, 94.164 72.112 C 95.239 79.758, 94.676 90.470, 93.097 92.398 C 92.240 93.445, 91.649 97.039, 91.889 99.750 C 92.093 102.055, 95.958 101.030, 98.710 97.941 C 102.958 93.173, 103.971 87.443, 104.028 67.857 C 104.081 49.173, 104.804 45.714, 109.749 40.474 C 115.375 34.511, 116.098 30.193, 111.850 27.920 C 110.220 27.047, 109.136 27.331, 106.168 29.406 C 99.544 34.036, 96.268 37.758, 95.578 41.435 C 94.870 45.212, 93.078 46.004, 90.975 43.470 C 90.043 42.347, 89.983 41.332, 90.749 39.652 C 91.323 38.393, 91.588 36.268, 91.339 34.931 C 90.955 32.875, 91.549 32.184, 95.193 30.449 C 97.562 29.322, 103.100 26.427, 107.500 24.017 C 111.900 21.607, 117.525 18.910, 120 18.024 C 125.773 15.956, 127.982 12.148, 125.557 8.447 C 123.982 6.043, 122.995 5.818, 118 6.727 M 135.734 30.837 C 134.213 31.840, 132.394 33.446, 131.692 34.407 C 130.990 35.367, 128.348 37.356, 125.821 38.826 C 116.842 44.052, 111 49.056, 111 51.521 C 111 54.048, 115.213 58, 117.907 58 C 120.514 58, 122.399 67.814, 122.571 82.289 C 122.706 93.537, 122.952 95.253, 124.612 96.533 C 126.526 98.008, 130.456 97.696, 132.624 95.897 C 133.248 95.379, 134.040 93.503, 134.383 91.728 C 134.726 89.952, 135.647 87.150, 136.430 85.500 C 137.212 83.850, 138.581 80.813, 139.473 78.750 C 141.435 74.212, 143.282 74.035, 147.392 77.993 C 154.184 84.532, 163.951 91.998, 165.676 91.968 C 168.357 91.921, 171 89.574, 171 87.239 C 171 86.014, 167.981 82.264, 163.441 77.850 C 159.284 73.807, 153.383 67.463, 150.328 63.750 C 147.192 59.939, 143.983 57, 142.959 57 C 140.755 57, 137 61.538, 137 64.201 C 137 69.385, 131.491 72.450, 130.622 67.750 C 128.268 55.021, 128.237 54.482, 129.676 51.680 C 130.472 50.128, 132.671 47.947, 134.562 46.831 C 136.453 45.715, 138 44.441, 138 44 C 138 43.559, 139.575 42.268, 141.500 41.133 C 144.586 39.312, 145 38.587, 145 35.009 C 145 31.573, 144.607 30.801, 142.435 29.975 C 139.070 28.696, 138.960 28.710, 135.734 30.837 M 59.500 62.207 C 57.850 62.754, 53.575 64.648, 50 66.417 C 43.917 69.426, 43.480 69.870, 43.189 73.327 C 42.990 75.690, 43.440 77.583, 44.439 78.582 C 45.662 79.805, 46 82.495, 46 91.012 C 46 96.991, 45.585 102.138, 45.078 102.452 C 43.451 103.457, 42.606 115.820, 44.045 117.555 C 45.718 119.571, 49.007 119.025, 50.398 116.500 C 52.599 112.506, 58.164 106, 59.380 106 C 61.461 106, 65.683 100.743, 67.010 96.500 C 67.698 94.300, 68.611 92.050, 69.038 91.500 C 69.466 90.950, 70.067 87.575, 70.374 84 C 70.682 80.425, 71.216 75.151, 71.561 72.280 C 72.160 67.301, 72.036 66.920, 68.872 64.030 C 65.362 60.825, 64.297 60.617, 59.500 62.207 M 52.367 76.487 C 51.998 77.449, 52.636 79.048, 53.945 80.441 C 55.946 82.572, 56.080 83.416, 55.442 89.890 C 54.710 97.318, 55.359 98.498, 58.465 95.392 C 59.755 94.103, 60.016 91.978, 59.786 84.642 L 59.500 75.500 56.243 75.186 C 53.962 74.966, 52.801 75.356, 52.367 76.487 M 135.667 106.667 C 134.625 107.708, 134.885 113.811, 136 114.500 C 136.550 114.840, 137 116.780, 137 118.811 C 137 120.842, 138.380 127.228, 140.066 133.002 C 143.410 144.453, 145.548 157.984, 146.611 174.425 L 147.295 185 144.962 185 C 143.679 185, 141.636 184.067, 140.421 182.926 C 139.207 181.785, 136.850 180.098, 135.184 179.176 C 133.517 178.254, 128.857 175.593, 124.827 173.263 C 120.797 170.933, 116.761 169.020, 115.858 169.013 C 114.918 169.006, 113.930 167.856, 113.545 166.324 C 112.960 163.991, 113.682 162.842, 119.187 157.347 C 124.268 152.275, 126.123 151.041, 128.691 151.023 C 132.271 150.997, 132.490 150.780, 133.447 146.316 C 134.028 143.609, 133.746 142.880, 131.573 141.456 C 128.880 139.691, 128.673 139.734, 122.789 143.270 C 111.518 150.043, 109.091 151.652, 104.828 155.184 C 100.805 158.518, 88.664 165.754, 84 167.598 C 83.175 167.924, 80.308 169.084, 77.630 170.175 C 71.516 172.666, 69.995 171.667, 71.896 166.410 C 72.705 164.173, 73.238 157.449, 73.311 148.561 C 73.438 133.002, 72.629 130.155, 67.401 127.773 C 65.232 126.785, 64.570 126.975, 62.305 129.241 C 59.801 131.744, 59.770 131.913, 61.495 133.638 C 63.133 135.276, 63.233 136.911, 62.648 152.466 C 62.027 168.985, 60.082 186.837, 58.124 194 C 51.989 216.444, 49.717 227.100, 50.587 229.366 C 51.504 231.755, 52.755 231.391, 56.056 227.777 C 58.065 225.578, 59 223.509, 59 221.264 C 59 219.454, 59.395 217.191, 59.877 216.236 C 61.256 213.507, 63 207.538, 63 205.547 C 63 204.551, 63.913 202.258, 65.030 200.452 C 66.243 198.488, 67.307 194.521, 67.674 190.586 C 68.012 186.967, 68.899 183.499, 69.644 182.880 C 70.390 182.261, 71 180.896, 71 179.846 C 71 177.198, 73.468 176.514, 76.176 178.411 C 79.371 180.648, 82.419 180.392, 87 177.500 C 92.177 174.232, 95.401 174.124, 94.450 177.250 C 94.073 178.488, 92.448 181.300, 90.838 183.500 C 89.229 185.700, 85.469 190.875, 82.484 195 C 79.498 199.125, 76.686 202.950, 76.234 203.500 C 75.782 204.050, 73.505 207.088, 71.175 210.250 C 68.844 213.412, 66.517 216, 66.004 216 C 64.393 216, 62.803 220.080, 63.434 222.593 C 64.990 228.793, 73.883 222.372, 83.443 208.145 C 90.923 197.014, 97.933 189, 100.191 189 C 101.501 189, 101.871 191.176, 102.443 202.250 C 102.849 210.102, 102.688 219.285, 102.049 224.789 C 100.834 235.260, 101.607 238.339, 105.318 237.811 C 106.961 237.577, 107.977 236.142, 109.432 232 C 111.168 227.060, 111.343 223.978, 111.154 201.729 C 110.986 181.951, 111.211 176.856, 112.268 176.451 C 112.996 176.171, 115.821 177.994, 118.546 180.501 C 123.392 184.959, 130.981 189.900, 141.988 195.763 C 148.489 199.226, 148.433 199.036, 149.452 221 C 149.822 228.975, 150.538 239.550, 151.045 244.500 C 152.346 257.217, 152.163 265.091, 150.500 268 C 149.714 269.375, 149.055 272.413, 149.035 274.750 C 148.972 282.311, 155.215 285.593, 159.990 280.510 L 162.329 278.021 161.255 259.260 C 160.664 248.942, 160.195 238.925, 160.213 237 C 160.231 235.075, 159.896 226.863, 159.470 218.750 C 158.619 202.564, 158.480 202.920, 164.654 205.500 C 171.422 208.328, 176.412 206.507, 174.040 202.074 C 172.799 199.757, 168.031 197, 165.262 197 C 164.251 197, 161.977 195.762, 160.207 194.250 L 156.991 191.500 156.481 176.500 C 155.991 162.058, 152.822 136.641, 150.996 132.500 C 150.511 131.400, 149.924 128.700, 149.692 126.500 C 149.289 122.685, 148.482 120.069, 145.169 111.841 C 143.396 107.439, 137.892 104.442, 135.667 106.667 M 106.130 121.076 C 104.826 121.597, 102.351 123.151, 100.630 124.527 C 96.524 127.811, 96.081 128.145, 92.194 130.885 C 88.168 133.724, 88.158 137.305, 92.167 140.284 C 94.831 142.264, 94.836 142.264, 98.232 140.165 C 100.102 139.010, 102.459 137.150, 103.471 136.032 C 104.482 134.915, 106.550 134, 108.066 134 C 111.216 134, 116 129.091, 116 125.858 C 116 120.586, 112.088 118.691, 106.130 121.076" stroke="none" fill="black" fill-rule="evenodd"/>
</svg>