<svg xmlns="http://www.w3.org/2000/svg" width="300" height="300" viewBox="0 0 300 300" version="1.1">
	<path d="M 44.240 34.106 C 43.283 35.264, 38.900 37.906, 34.500 39.976 C 30.100 42.046, 25.643 44.699, 24.595 45.870 C 23.547 47.042, 21.860 48, 20.845 48 C 18.275 48, 18.544 50.223, 21.444 52.947 C 23.435 54.818, 24.548 55.120, 27.450 54.575 L 31.012 53.907 30.881 59.704 C 30.809 62.892, 31.256 67.638, 31.875 70.250 C 34.615 81.819, 35.130 85.052, 35.662 94 C 36.271 104.249, 36.987 106, 40.563 106 C 43.647 106, 44.010 105.208, 44.530 97.349 C 44.941 91.133, 45.228 90.437, 48.486 87.751 C 54.116 83.110, 53.160 78, 46.662 78 C 43.724 78, 42.210 74.255, 41.405 65 C 41.046 60.875, 40.080 56.035, 39.259 54.243 C 37.468 50.338, 38.777 48, 42.754 48 C 45.689 48, 52 41.853, 52 38.994 C 52 32.668, 47.678 29.946, 44.240 34.106 M 168.631 37.863 C 166.407 40.184, 164.728 40.848, 159.769 41.366 C 156.404 41.718, 152.942 42.600, 152.076 43.326 C 151.209 44.053, 145.813 47.025, 140.084 49.932 C 130.280 54.907, 129.452 55.152, 125.968 54.109 C 120.414 52.445, 118.166 52.744, 115.395 55.514 C 113.436 57.473, 112.949 58.853, 113.190 61.764 C 113.484 65.307, 113.697 65.516, 117.314 65.814 L 121.128 66.128 120.431 71.814 C 120.048 74.941, 119.344 77.650, 118.867 77.833 C 117.672 78.293, 117.769 102.699, 118.974 104.952 C 120.443 107.696, 120.510 132.681, 119.053 134.436 C 118.398 135.225, 116.430 136.177, 114.681 136.551 C 112.931 136.925, 110.938 137.684, 110.250 138.238 C 108.187 139.900, 108.821 144.515, 111.511 147.418 C 113.985 150.087, 114.687 150.159, 119.750 148.256 C 120.714 147.893, 121 151.124, 121 162.393 C 121 175.667, 120.817 177.183, 119 179 C 116.246 181.754, 116.496 183.826, 119.750 185.228 C 121.263 185.880, 124.369 188.090, 126.654 190.139 C 130.781 193.840, 130.868 193.865, 139.654 193.892 C 148.009 193.918, 160.581 191.987, 165.913 189.858 C 167.240 189.328, 171.290 188.620, 174.913 188.284 C 178.536 187.948, 182.976 186.847, 184.780 185.837 C 186.585 184.826, 189.735 183.968, 191.780 183.930 C 193.826 183.891, 196.364 183.521, 197.419 183.107 C 198.475 182.693, 201.310 182.806, 203.720 183.358 C 207.884 184.310, 208.255 184.207, 211.192 181.270 C 214.651 177.810, 214.491 176.023, 210.487 173.400 C 208.140 171.862, 206.801 171.800, 197.618 172.802 C 191.981 173.418, 186.634 174.203, 185.737 174.547 C 184.665 174.959, 182.910 173.977, 180.612 171.679 C 178.691 169.757, 175.629 167.878, 173.809 167.503 C 171.989 167.128, 168.777 166.084, 166.671 165.183 C 163.176 163.688, 162.892 163.280, 163.422 160.522 C 163.742 158.860, 165.073 156.600, 166.381 155.500 C 168.832 153.438, 169.783 150.287, 170.668 141.298 C 170.949 138.437, 171.717 135.649, 172.375 135.104 C 173.976 133.775, 194.475 131.742, 198.949 132.468 C 203.454 133.199, 208.452 130.319, 209.429 126.429 C 209.976 124.248, 209.589 123.135, 207.593 121.138 L 205.064 118.609 194.282 120.298 C 169.884 124.118, 170.064 124.107, 167.011 121.850 C 164.373 119.899, 164.110 119.882, 161.662 121.486 C 158.489 123.565, 156.789 122.688, 157.615 119.398 C 158.021 117.782, 157.666 116.288, 156.594 115.104 C 154.321 112.593, 155.562 110.174, 159.310 109.807 C 161.759 109.568, 162.919 108.662, 164.577 105.696 C 168.812 98.122, 169.543 81.145, 166.177 68.568 C 165.065 64.413, 161.030 61.727, 155.898 61.727 C 152.298 61.727, 151.162 62.263, 148.569 65.183 C 146.881 67.084, 144.992 69.508, 144.372 70.570 C 143.270 72.457, 143.175 72.449, 140.163 70.250 C 136.564 67.623, 134.720 67.427, 133.008 69.491 C 131.497 71.311, 132.520 76.858, 137.162 92 C 137.752 93.925, 138.457 97.733, 138.728 100.462 C 139.219 105.395, 141.711 109.830, 146.731 114.702 C 149.342 117.236, 149.632 120.877, 147.546 124.912 C 146.050 127.803, 142.361 129.018, 134.037 129.358 C 130.686 129.495, 130.549 129.355, 129.792 125 C 128.728 118.886, 127.287 82.128, 127.779 73.685 C 128.084 68.454, 128.563 66.741, 129.838 66.317 C 132.138 65.552, 153.270 55.004, 154.500 54.007 C 155.050 53.562, 158.513 52.878, 162.195 52.488 C 166.828 51.997, 169.417 51.197, 170.600 49.889 C 171.541 48.850, 172.863 48, 173.540 48 C 175.124 48, 178 43.621, 178 41.209 C 178 39.279, 174.122 35, 172.373 35 C 171.823 35, 170.140 36.289, 168.631 37.863 M 71.674 45.877 C 70.119 46.901, 68.196 48.996, 67.400 50.530 C 66.066 53.101, 66.125 53.504, 68.151 55.660 C 69.359 56.947, 71.305 58, 72.474 58 C 76.231 58, 77 59.916, 77 69.279 L 77 78.159 74.217 77.548 C 70.991 76.839, 66.470 78.806, 63.113 82.379 C 60.928 84.705, 60.902 84.921, 62.504 87.366 C 64.543 90.478, 67.260 91.466, 69.896 90.055 C 72.741 88.533, 75 88.758, 75 90.562 C 75 91.421, 74.272 94.351, 73.382 97.072 C 71.613 102.480, 67.786 106.143, 60 109.884 C 57.525 111.073, 54.375 112.703, 53 113.508 C 51.625 114.312, 49.375 114.999, 48 115.033 C 45.008 115.108, 38.793 118.044, 38.281 119.624 C 38.081 120.242, 39.132 122.192, 40.616 123.956 C 43.018 126.810, 43.711 127.091, 46.908 126.508 C 48.883 126.147, 51.497 125.210, 52.715 124.426 C 53.933 123.642, 55.443 123, 56.070 123 C 57.854 123, 67.274 118.062, 69.564 115.925 C 70.700 114.866, 72.275 113.997, 73.064 113.994 C 75.101 113.985, 78 108.440, 78 104.554 C 78 102.661, 78.953 100.061, 80.250 98.415 C 82.713 95.289, 84.887 88.313, 84.956 83.309 C 84.980 81.554, 85.351 79.901, 85.779 79.637 C 86.945 78.916, 87.137 61.203, 85.986 60.492 C 85.444 60.156, 85 57.971, 85 55.636 C 85 52.206, 84.350 50.681, 81.615 47.695 C 77.813 43.544, 75.776 43.172, 71.674 45.877 M 150.244 77.588 C 145.867 81.038, 144.643 83.464, 146 86 C 147.320 88.467, 149.841 88.601, 150.708 86.250 C 151.557 83.950, 152.993 83.034, 155.781 83.015 C 158.614 82.996, 159.614 80.644, 158.153 77.436 C 156.732 74.318, 154.334 74.365, 150.244 77.588 M 153.500 96 C 149.396 98.910, 148.235 102.229, 151.126 102.786 C 153.136 103.173, 160 96.865, 160 94.632 C 160 92.328, 158.122 92.723, 153.500 96 M 85.200 117.200 C 84.485 117.915, 84 121.365, 84 125.742 C 84 131.794, 84.803 135.494, 88.569 146.792 C 91.082 154.332, 93.557 160.927, 94.069 161.450 C 94.581 161.972, 95 163.150, 95 164.067 C 95 166.247, 98.970 176.055, 100.672 178.079 C 101.402 178.947, 102.014 180.522, 102.032 181.579 C 102.049 182.635, 102.710 184.354, 103.501 185.399 C 104.291 186.443, 105.685 189.593, 106.598 192.399 C 107.510 195.204, 108.874 198.210, 109.628 199.079 C 110.383 199.947, 111 201.005, 111 201.429 C 111 203.781, 129.475 229.228, 136.389 236.401 C 148.028 248.475, 168.960 263.659, 178.469 266.925 C 180.651 267.674, 184.476 269.533, 186.969 271.055 C 189.461 272.578, 194.875 274.825, 199 276.050 C 203.125 277.275, 207.027 278.690, 207.670 279.195 C 208.314 279.700, 214.080 280.373, 220.484 280.691 L 232.128 281.269 235.629 277.884 C 239.070 274.557, 239.118 274.399, 238.463 268.500 C 238.097 265.200, 237.393 262.072, 236.899 261.550 C 236.404 261.028, 236 259.367, 236 257.859 C 236 256.351, 235.550 254.840, 235 254.500 C 234.450 254.160, 234 252.486, 234 250.779 C 234 247.317, 231.616 238.595, 229.003 232.500 C 226.402 226.431, 223.292 215.145, 222.550 209.082 C 221.722 202.318, 219.442 196.683, 217.764 197.254 C 214.590 198.336, 219.382 236.595, 224.549 251.421 C 226.462 256.908, 226.490 268.875, 224.593 269.603 C 220.131 271.315, 193.811 264.382, 186.442 259.554 C 185.138 258.699, 183.298 258, 182.354 258 C 181.411 258, 176.957 255.525, 172.457 252.500 C 167.957 249.475, 163.761 247, 163.132 247 C 162.503 247, 155.333 240.363, 147.200 232.250 C 135.815 220.895, 131.092 215.365, 126.682 208.223 C 120.367 197.997, 112.751 182.982, 110.338 176 C 109.482 173.525, 107.755 169.250, 106.500 166.500 C 105.245 163.750, 103.675 159.475, 103.012 157 C 102.348 154.525, 101.392 151.707, 100.887 150.738 C 99.164 147.433, 97.202 140.508, 96.570 135.500 C 96.223 132.750, 95.447 128.250, 94.845 125.500 C 93.182 117.895, 88.518 113.882, 85.200 117.200 M 153.713 140.190 C 151.218 145.934, 149.654 154.054, 150.818 155.218 C 152.196 156.596, 154.894 155.506, 155.630 153.273 C 155.951 152.298, 156.911 149.934, 157.763 148.019 C 158.616 146.105, 159.355 142.955, 159.406 141.019 C 159.483 138.132, 159.110 137.444, 157.325 137.190 C 155.680 136.956, 154.800 137.686, 153.713 140.190 M 23.087 140.396 C 21.480 142.332, 21.405 147.786, 21.849 230.369 C 21.876 235.277, 24.666 240, 27.539 240 C 29.821 240, 33.840 235.961, 36.002 231.496 C 37.199 229.023, 38.597 227, 39.109 227 C 39.621 227, 42.064 223.872, 44.537 220.048 C 47.011 216.225, 49.477 212.824, 50.017 212.489 C 50.558 212.155, 51 210.109, 51 207.941 C 51 204.667, 50.662 204, 49 204 C 47.900 204, 46.993 204.338, 46.984 204.750 C 46.975 205.162, 45.691 206.948, 44.130 208.718 C 42.570 210.488, 39.764 214.184, 37.896 216.931 C 34.238 222.312, 32.278 223.678, 30.608 222.008 C 29.864 221.264, 29.914 220.368, 30.775 218.989 C 31.449 217.910, 32 215.227, 32 213.028 C 32 209.459, 32.438 208.739, 36.065 206.338 C 38.301 204.858, 40.788 202.377, 41.591 200.824 C 42.394 199.271, 43.407 198, 43.842 198 C 44.942 198, 49 190.588, 49 188.579 C 49 187.672, 49.728 185.818, 50.618 184.460 C 53.830 179.558, 47.659 176.749, 44.297 181.583 C 40.738 186.698, 33.630 194.507, 32.226 194.843 C 31.073 195.119, 30.925 194.337, 31.469 190.843 C 32.499 184.233, 32.779 183.688, 36.530 181 C 48.221 172.620, 51 169.754, 51 166.081 C 51 162.679, 48.778 161, 44.278 161 C 42.114 161, 40.503 162.102, 37.616 165.555 C 31.508 172.862, 30.712 171.819, 30.312 156 C 30.003 143.745, 29.778 142.339, 27.875 140.750 C 25.341 138.635, 24.594 138.580, 23.087 140.396 M 58.910 141.168 C 58.073 142.733, 57.959 147.953, 58.503 159.918 C 59.516 182.201, 59.902 194.980, 60.227 217.095 C 60.432 231.061, 60.842 236.102, 61.872 237.345 C 63.283 239.046, 67.606 239.540, 69.651 238.235 C 71.141 237.283, 78 227.095, 78 225.833 C 78 225.301, 79.125 223.392, 80.500 221.589 C 81.875 219.786, 83 218.012, 83 217.645 C 83 217.279, 84.467 214.847, 86.259 212.240 C 92.002 203.889, 92.628 202.199, 90.696 200.267 C 89.131 198.702, 88.842 198.726, 86.261 200.636 C 84.742 201.760, 81.825 205.114, 79.778 208.089 C 70.019 222.276, 68.820 222.186, 68.698 207.262 L 68.618 197.345 73.494 190.922 C 76.175 187.390, 79.861 182.811, 81.685 180.747 C 85.431 176.507, 85.831 174.062, 83.171 171.655 C 80.320 169.075, 79.226 169.608, 75.538 175.374 C 72.239 180.530, 69.872 182.539, 68.598 181.264 C 68.269 180.936, 68 176.659, 68 171.762 L 68 162.857 73.118 163.178 C 76.913 163.417, 78.424 163.112, 78.962 162 C 79.362 161.175, 80.243 159.440, 80.919 158.144 C 81.989 156.096, 81.847 155.466, 79.835 153.324 C 77.916 151.282, 76.748 150.915, 73.010 151.180 L 68.500 151.500 68.180 147.500 C 67.625 140.567, 61.479 136.369, 58.910 141.168 M 136.500 140.333 C 133.750 140.906, 131.206 141.810, 130.847 142.340 C 130.057 143.507, 130.678 172.670, 131.522 174.035 C 132.597 175.776, 134.431 174.984, 139.334 170.662 L 144.169 166.401 141.892 161.714 C 139.767 157.340, 139.703 156.677, 140.936 151.764 C 141.663 148.869, 142.684 145.962, 143.206 145.305 C 144.369 143.838, 143.872 139.725, 142.500 139.473 C 141.950 139.373, 139.250 139.759, 136.500 140.333 M 149.346 175.865 C 147.171 177.440, 143.728 179.330, 141.696 180.065 C 132.347 183.446, 141.309 183.975, 157.509 180.998 C 168.193 179.035, 171.825 177.617, 168.917 176.541 C 164.618 174.951, 157.224 173.020, 155.400 173.011 C 154.245 173.005, 151.521 174.289, 149.346 175.865" stroke="none" fill="black" fill-rule="evenodd"/>
</svg>