<svg xmlns="http://www.w3.org/2000/svg" width="300" height="300" viewBox="0 0 300 300" version="1.1">
	<path d="M 100.865 46.750 C 97.576 50.735, 96.049 56.386, 94.938 68.683 C 94.302 75.732, 93.406 82.400, 92.947 83.500 C 92.489 84.600, 91.900 87.300, 91.640 89.500 C 91.380 91.700, 90.589 96.993, 89.882 101.263 C 88.731 108.220, 88.769 109.198, 90.245 110.673 C 91.550 111.979, 92.571 112.125, 95.165 111.382 C 97.826 110.619, 98.567 109.793, 99.124 106.971 C 99.502 105.062, 100.303 101.103, 100.905 98.174 C 101.507 95.244, 102 91.108, 102 88.983 C 102 86.857, 102.450 84.840, 103 84.500 C 103.550 84.160, 104.020 81.771, 104.044 79.191 C 104.088 74.481, 105.818 66.584, 107.316 64.250 C 107.757 63.563, 108.850 63, 109.745 63 C 110.639 63, 112.328 62.101, 113.498 61.002 C 115.287 59.321, 117.568 58.899, 127.839 58.347 C 136.010 57.907, 140.788 58.055, 142.276 58.793 C 143.499 59.400, 145.400 60.045, 146.500 60.226 C 148.392 60.538, 148.489 61.254, 148.303 73.440 C 148.195 80.527, 147.212 92.439, 146.118 99.912 C 145.025 107.386, 143.619 118.168, 142.994 123.872 C 142.369 129.577, 141.502 135.202, 141.069 136.372 C 140.635 137.543, 139.968 141.425, 139.587 145 C 139.205 148.575, 138.492 152.850, 138.001 154.500 C 137.510 156.150, 136.582 160.875, 135.938 165 C 135.294 169.125, 134.321 173.055, 133.775 173.734 C 133.229 174.412, 132.604 177.467, 132.387 180.523 C 132.169 183.578, 130.890 191.613, 129.544 198.378 C 128.198 205.142, 126.602 214.654, 125.998 219.515 C 125.394 224.376, 124.708 228.664, 124.472 229.045 C 124.237 229.425, 123.317 233.347, 122.428 237.760 C 120.917 245.258, 120.923 245.953, 122.521 248.391 C 126.305 254.167, 133 249.797, 133 241.551 C 133 236.436, 133.702 231.598, 137.581 210 C 138.914 202.575, 141.148 189.750, 142.545 181.500 C 145.469 164.235, 146.012 161.461, 149.400 146.500 C 150.770 140.450, 152.194 131.900, 152.565 127.500 C 152.936 123.100, 153.897 116.350, 154.702 112.500 C 156.381 104.463, 156.577 103.105, 158.599 85.500 C 159.420 78.350, 160.490 70.925, 160.977 69 C 164.066 56.794, 164.275 53.845, 162.247 51.123 C 160.308 48.520, 160.153 48.494, 141.982 47.663 C 124.869 46.880, 123.238 46.962, 117.057 48.913 C 109.019 51.450, 107.584 51.526, 108.410 49.373 C 109.884 45.532, 103.658 43.367, 100.865 46.750" stroke="none" fill="black" fill-rule="evenodd"/>
</svg>