<svg xmlns="http://www.w3.org/2000/svg" width="300" height="300" viewBox="0 0 300 300" version="1.1">
	<path d="M 90.866 120.750 C 90.792 121.162, 90.680 137.925, 90.616 158 C 90.530 185.187, 90.181 195.057, 89.250 196.684 C 88.447 198.087, 88 203.023, 88 210.484 C 88 227.050, 90.989 231.826, 97.240 225.250 C 99.622 222.744, 99.914 221.525, 100.525 211.500 C 101.117 201.786, 102.488 192.020, 104.597 182.500 C 104.962 180.850, 105.813 178.825, 106.488 178 C 107.163 177.175, 109.162 173.575, 110.930 170 C 112.698 166.425, 114.674 163.045, 115.322 162.489 C 115.970 161.933, 117.814 158.783, 119.419 155.489 C 123.488 147.141, 131.953 136.050, 134.801 135.335 C 136.095 135.010, 138.262 135.338, 139.617 136.062 C 142.068 137.374, 146.532 145.629, 149.040 153.488 C 150.731 158.789, 151.817 196.432, 150.677 210.266 C 149.916 219.507, 150.020 221.381, 151.408 223.500 C 153.892 227.291, 157.664 227.790, 160.722 224.733 C 163.075 222.380, 163.145 222.046, 161.719 220.009 C 160.409 218.139, 160.247 214.207, 160.616 193.274 C 160.854 179.775, 161.217 168.454, 161.422 168.115 C 162.637 166.116, 156.651 141.497, 153.191 134.263 C 150.108 127.818, 148.714 126.577, 143 125.190 C 135.079 123.267, 129.297 125.524, 121.623 133.533 C 117.946 137.370, 109 151.713, 109 153.770 C 109 155.826, 103.160 165.500, 101.918 165.500 C 100.740 165.500, 100.559 162.877, 100.847 150 C 101.116 138.001, 100.851 133.513, 99.674 130.132 C 98.837 127.730, 98.400 125.121, 98.702 124.334 C 99.004 123.548, 98.407 122.265, 97.375 121.484 C 95.384 119.976, 91.091 119.492, 90.866 120.750" stroke="none" fill="black" fill-rule="evenodd"/>
</svg>