<svg xmlns="http://www.w3.org/2000/svg" width="300" height="300" viewBox="0 0 300 300" version="1.1">
	<path d="M 114.427 84.994 C 108.471 85.868, 103.182 88.138, 97.139 92.414 C 89.595 97.752, 84.565 102.696, 82.640 106.665 C 81.617 108.774, 80.386 111.175, 79.905 112 C 75.442 119.650, 73.080 134.617, 75.198 141.828 C 76.809 147.316, 82.553 152.623, 91.853 157.217 C 98.034 160.270, 99.122 160.484, 107.370 160.266 C 114.377 160.081, 117.329 159.517, 121.424 157.579 C 128.569 154.199, 145.671 138.774, 146.510 134.952 C 147.237 131.646, 148.717 130.317, 150.115 131.715 C 150.632 132.232, 151.491 135.546, 152.023 139.078 C 152.555 142.610, 153.401 147.075, 153.903 149 C 155.822 156.359, 156.976 165.030, 158.004 179.807 C 159.011 194.302, 158.950 195.548, 156.859 203.307 C 154.415 212.370, 149.572 220.842, 144.089 225.641 C 142.115 227.369, 139.150 229.956, 137.500 231.391 C 135.850 232.826, 132.982 234.285, 131.127 234.634 C 125.985 235.602, 112.894 234.417, 108.982 232.631 C 100.824 228.905, 91.229 221.368, 88.945 216.893 C 86.498 212.097, 85.220 211.345, 83.427 213.650 C 81.732 215.829, 82.341 220.991, 84.755 224.896 C 86.931 228.417, 91.172 233, 92.254 233 C 92.738 233, 94.642 234.150, 96.485 235.556 C 102.652 240.260, 117.648 244.965, 126.500 244.974 C 134.181 244.981, 143.835 241.625, 148.500 237.327 C 149.600 236.313, 151.758 234.677, 153.295 233.690 C 154.832 232.703, 156.549 230.681, 157.111 229.198 C 157.673 227.714, 158.955 225.600, 159.958 224.500 C 162.073 222.183, 166 213.807, 166 211.614 C 166 210.791, 166.450 209.840, 167 209.500 C 167.550 209.160, 168 207.784, 168 206.441 C 168 205.098, 168.396 204, 168.881 204 C 170.327 204, 168.509 161.774, 166.881 157.551 C 164.263 150.759, 162.045 124.470, 162.976 111.266 C 163.604 102.351, 163.489 101.304, 161.658 99.250 C 160.179 97.592, 158.546 97, 155.448 97 C 152.932 97, 150.745 96.398, 150 95.500 C 149.315 94.675, 148.356 94, 147.869 94 C 147.381 94, 145.112 92.645, 142.826 90.989 C 138.140 87.595, 127.386 83.937, 122.645 84.125 C 120.915 84.193, 117.217 84.585, 114.427 84.994 M 117.500 96.002 C 103.394 98.123, 96.444 103.184, 89.979 116.042 C 86.573 122.816, 86.050 124.789, 85.793 131.833 C 85.502 139.832, 85.522 139.907, 89 143.527 C 94.172 148.911, 96.928 150, 105.379 150 C 112.176 150, 113.432 149.666, 119.178 146.331 C 125.887 142.437, 137 132.429, 137 130.281 C 137 129.577, 137.787 128.169, 138.750 127.154 C 140.960 124.823, 144.993 117.524, 145.022 115.802 C 145.034 115.086, 145.924 113.375, 147 112 C 148.076 110.625, 148.946 109.050, 148.935 108.500 C 148.903 106.931, 139.717 100.241, 133.833 97.502 C 128.320 94.936, 126.002 94.723, 117.500 96.002" stroke="none" fill="black" fill-rule="evenodd"/>
</svg>