<svg xmlns="http://www.w3.org/2000/svg" width="300" height="300" viewBox="0 0 300 300" version="1.1">
	<path d="M 158 57.566 C 155.525 59.517, 152.375 63.028, 151 65.369 C 149.625 67.710, 147.037 71.461, 145.250 73.706 C 143.463 75.951, 142 78.131, 142 78.550 C 142 78.968, 140.978 80.704, 139.730 82.406 C 137.533 85.400, 136.443 87.515, 134.170 93.196 C 133.577 94.679, 131.578 97.604, 129.727 99.696 C 127.877 101.788, 125.344 105.188, 124.100 107.250 C 122.855 109.313, 121.266 111, 120.568 111 C 118.933 111, 109.648 100.345, 104.496 92.554 C 95.254 78.581, 86.102 68, 83.257 68 C 81.472 68, 75 72.943, 75 74.306 C 75 74.652, 78.375 78.354, 82.500 82.532 C 86.625 86.711, 90 90.609, 90 91.194 C 90 91.779, 91.463 93.930, 93.250 95.974 C 100.173 103.891, 102.490 106.742, 107.655 113.697 C 112.854 120.697, 113.943 123.598, 112.106 125.550 C 111.614 126.073, 108.877 131, 106.023 136.500 C 103.170 142, 100.231 147.175, 99.493 148 C 98.288 149.346, 95.073 155.045, 90.749 163.500 C 89.906 165.150, 88.253 168.300, 87.076 170.500 C 84.973 174.432, 79.553 185.614, 73.957 197.565 C 72.395 200.901, 70.433 205.618, 69.596 208.047 C 68.234 212.001, 68.234 212.708, 69.595 214.786 C 71.708 218.010, 73.326 218.400, 76.910 216.547 C 79.088 215.420, 80 214.225, 80 212.498 C 80 211.151, 80.898 208.575, 81.996 206.774 C 83.094 204.973, 83.994 202.635, 83.996 201.579 C 83.998 200.522, 84.599 198.947, 85.332 198.079 C 86.065 197.210, 87.689 194.025, 88.942 191 C 90.195 187.975, 91.759 184.825, 92.417 184 C 94.374 181.547, 101.632 166.815, 103.009 162.500 C 103.711 160.300, 105.587 156.925, 107.178 155 C 108.768 153.075, 110.459 151.005, 110.935 150.399 C 111.411 149.794, 113.013 146.869, 114.495 143.899 C 119.145 134.584, 120.085 133, 120.964 133 C 121.434 133, 123.622 136.262, 125.825 140.250 C 128.029 144.238, 131.669 149.944, 133.916 152.931 C 136.162 155.917, 138 158.885, 138 159.526 C 138 160.166, 138.900 161.505, 140 162.500 C 141.100 163.495, 142 164.760, 142 165.311 C 142 165.861, 143.238 167.879, 144.750 169.795 C 146.262 171.711, 148.625 174.769, 150 176.591 C 151.375 178.413, 155.247 183.188, 158.606 187.202 C 161.964 191.216, 165.696 196.434, 166.901 198.799 C 168.105 201.163, 169.728 203.342, 170.507 203.641 C 171.286 203.940, 172.167 204.949, 172.463 205.884 C 172.760 206.818, 174.802 209.571, 177.001 212.001 C 179.201 214.432, 181 216.924, 181 217.540 C 181 218.722, 189.186 225, 190.726 225 C 191.915 225, 197 219.663, 197 218.416 C 197 217.880, 192.838 212.646, 187.750 206.784 C 182.662 200.922, 176.250 192.878, 173.500 188.908 C 170.750 184.938, 166.074 178.722, 163.108 175.095 C 160.143 171.468, 156.674 166.925, 155.400 165 C 154.125 163.075, 151.264 158.867, 149.041 155.649 C 146.819 152.431, 145 149.496, 145 149.127 C 145 148.758, 143.712 146.891, 142.137 144.978 C 140.563 143.065, 138.053 139.250, 136.561 136.500 C 135.068 133.750, 132.567 129.475, 131.002 127 C 129.437 124.525, 128.122 121.819, 128.079 120.987 C 128.001 119.499, 129.815 116.844, 141.250 101.715 C 144.412 97.530, 147 93.833, 147 93.498 C 147 90.866, 152.103 83.054, 158.597 75.745 C 164.593 68.996, 166.959 67, 168.961 67 C 172.415 67, 176 64.376, 176 61.848 C 176 60.726, 175.069 58.502, 173.932 56.904 C 172.151 54.403, 171.214 54.001, 167.182 54.010 C 163.340 54.018, 161.693 54.656, 158 57.566" stroke="none" fill="black" fill-rule="evenodd"/>
</svg>