<svg xmlns="http://www.w3.org/2000/svg" width="300" height="300" viewBox="0 0 300 300" version="1.1">
	<path d="M 203.920 42.956 C 198.463 45.879, 189.909 55.132, 183.903 64.611 C 180.931 69.301, 177.262 74.744, 175.750 76.706 C 174.238 78.669, 173 80.866, 173 81.588 C 173 82.310, 172.422 83.260, 171.715 83.700 C 169.966 84.788, 163.730 92.871, 162.052 96.225 C 161.302 97.724, 158.578 101.324, 155.999 104.225 C 153.420 107.126, 150.670 110.727, 149.889 112.226 C 149.108 113.725, 144.201 119.528, 138.985 125.122 C 133.768 130.715, 128.579 136.540, 127.453 138.066 C 126.326 139.591, 123.103 143.463, 120.288 146.670 C 117.474 149.876, 110.250 158.350, 104.235 165.500 C 98.220 172.650, 86.895 184.948, 79.068 192.828 L 64.838 207.156 65.683 210.728 C 66.990 216.256, 68.561 216.591, 76.250 212.981 C 82.132 210.219, 83 209.465, 83 207.114 C 83 205.224, 84.373 203.082, 87.586 199.958 C 90.109 197.506, 97.418 189.650, 103.828 182.500 C 110.239 175.350, 116.166 168.825, 117 168 C 117.835 167.175, 123.403 160.425, 129.375 153 C 135.347 145.575, 143.533 135.900, 147.566 131.500 C 156.493 121.760, 172.926 101.282, 174.037 98.514 C 174.481 97.406, 178.367 91.992, 182.672 86.483 C 186.978 80.973, 191.625 74.785, 193 72.731 C 194.375 70.677, 196.273 68.747, 197.218 68.441 C 199.982 67.547, 209.383 56.543, 212.543 50.503 C 214.815 46.160, 215.217 44.564, 214.376 43.221 C 212.866 40.810, 208.150 40.691, 203.920 42.956" stroke="none" fill="black" fill-rule="evenodd"/>
</svg>