<svg xmlns="http://www.w3.org/2000/svg" width="300" height="300" viewBox="0 0 300 300" version="1.1">
	<path d="M 207.313 56.786 C 204.804 58.380, 203.983 63.753, 203.543 81.425 C 203.210 94.822, 202.658 100.888, 201.478 104.107 C 200.592 106.523, 199.639 109.400, 199.359 110.500 C 199.080 111.600, 197.726 116.325, 196.350 121 C 193.653 130.166, 192.970 132.813, 190.574 143.383 C 189.716 147.169, 188.336 151.626, 187.507 153.287 C 186.678 154.948, 186 157.337, 186 158.595 C 186 159.853, 185.550 161.160, 185 161.500 C 184.450 161.840, 184 163.415, 184 165 C 184 166.585, 183.622 168.116, 183.159 168.402 C 182.697 168.688, 181.508 171.977, 180.518 175.711 C 179.528 179.445, 177.822 184.300, 176.727 186.500 C 175.632 188.700, 174.458 192.300, 174.118 194.500 C 173.587 197.935, 173.147 198.500, 171 198.500 C 168.879 198.500, 168.450 197.976, 168.171 195.044 C 167.990 193.143, 166.961 190.350, 165.883 188.836 C 163.736 185.821, 159.073 174.118, 158.274 169.738 C 157.996 168.219, 157.371 166.729, 156.885 166.429 C 156.398 166.128, 156 164.964, 156 163.842 C 156 162.720, 155.388 160.384, 154.641 158.651 C 151.657 151.736, 150.934 149.665, 149.933 145.176 C 149.359 142.604, 147.831 138.250, 146.537 135.500 C 145.242 132.750, 143.953 129.375, 143.672 128 C 143.390 126.625, 142.240 122.800, 141.115 119.500 C 139.990 116.200, 138.820 112.263, 138.516 110.750 C 138.003 108.203, 137.603 108, 133.103 108 C 127.858 108, 127.025 108.621, 125.050 114 C 124.344 115.925, 123.193 118.850, 122.494 120.500 C 121.795 122.150, 120.904 124.625, 120.515 126 C 120.127 127.375, 118.462 131.425, 116.817 135 C 115.172 138.575, 113.464 142.400, 113.023 143.500 C 112.582 144.600, 110.596 148.833, 108.610 152.907 C 106.625 156.982, 105 161.089, 105 162.035 C 105 162.981, 104.325 164.315, 103.500 165 C 102.675 165.685, 102 166.942, 102 167.793 C 102 168.645, 100.675 172.078, 99.055 175.421 C 97.435 178.764, 95.646 182.737, 95.080 184.250 C 92.918 190.020, 90.428 186.714, 87.400 174.053 C 86.669 170.999, 86.055 167.064, 86.036 165.309 C 86.016 163.554, 85.550 161.840, 85 161.500 C 84.450 161.160, 84 159.754, 84 158.375 C 84 156.997, 83.471 154.886, 82.825 153.684 C 82.179 152.483, 81.310 149.925, 80.894 148 C 80.478 146.075, 79.474 141.800, 78.662 138.500 C 77.850 135.200, 76.471 129.350, 75.598 125.500 C 74.725 121.650, 73.723 117.825, 73.371 117 C 72.449 114.839, 68.814 96.202, 65.966 79.039 C 64.310 69.054, 62.071 67.596, 57.532 73.547 C 55.134 76.691, 54.881 77.740, 55.305 82.797 C 55.568 85.933, 56.258 90.300, 56.837 92.500 C 59.263 101.711, 61.094 109.750, 61.622 113.500 C 61.932 115.700, 62.783 118.850, 63.514 120.500 C 64.245 122.150, 65.789 128.417, 66.946 134.427 C 68.102 140.437, 69.448 145.837, 69.936 146.427 C 70.424 147.017, 71.292 149.750, 71.865 152.500 C 72.438 155.250, 73.402 159.525, 74.008 162 C 75.846 169.509, 76.863 174.213, 78.009 180.500 C 78.610 183.800, 79.893 187.850, 80.860 189.500 C 82.604 192.479, 84.364 198.387, 85.444 204.892 C 86.035 208.451, 88.354 210.915, 91.165 210.968 C 93.031 211.004, 101 201.541, 101 199.289 C 101 198.492, 102.967 194.163, 105.372 189.670 C 107.777 185.176, 111.393 177.088, 113.409 171.695 C 115.425 166.302, 118.182 159.383, 119.537 156.320 C 120.892 153.257, 122 149.993, 122 149.067 C 122 148.140, 122.661 146.509, 123.468 145.441 C 124.276 144.374, 124.951 142.874, 124.968 142.110 C 124.986 141.345, 125.864 138.870, 126.919 136.610 C 127.975 134.349, 129.086 131.713, 129.388 130.750 C 129.690 129.787, 130.620 129, 131.455 129 C 132.967 129, 134.648 132.251, 137.542 140.776 C 138.380 143.243, 140.129 147.565, 141.429 150.381 C 142.730 153.196, 144.108 157.750, 144.492 160.500 C 144.876 163.250, 145.823 167.017, 146.595 168.872 C 147.368 170.727, 148 173.108, 148 174.163 C 148 175.218, 149.735 179.326, 151.855 183.291 C 153.976 187.256, 156.012 191.749, 156.381 193.277 C 156.750 194.804, 158.165 198.487, 159.526 201.463 C 160.887 204.438, 162 207.312, 162 207.851 C 162 209.102, 171.875 217, 173.439 217 C 174.088 217, 175.339 216.438, 176.221 215.750 C 178.189 214.215, 182 207.103, 182 204.965 C 182 204.104, 182.498 202.902, 183.107 202.293 C 183.716 201.684, 185.325 197.882, 186.683 193.843 C 188.042 189.804, 189.739 185.825, 190.455 185 C 191.786 183.466, 192.807 179.226, 193.346 173 C 193.513 171.075, 194.901 165, 196.430 159.500 C 198.981 150.331, 200.077 145.730, 201.670 137.500 C 201.990 135.850, 202.603 134.050, 203.033 133.500 C 203.463 132.950, 204.307 129.800, 204.909 126.500 C 205.976 120.646, 208.468 112.070, 210.010 108.940 C 211.485 105.949, 212.858 96.419, 213.460 85 C 213.794 78.675, 214.495 70.575, 215.020 67 C 215.955 60.623, 215.922 60.458, 213.237 58.255 C 210.318 55.861, 209.202 55.584, 207.313 56.786" stroke="none" fill="black" fill-rule="evenodd"/>
</svg>