<svg xmlns="http://www.w3.org/2000/svg" width="300" height="300" viewBox="0 0 300 300" version="1.1">
	<path d="M 135.563 39.225 C 133.947 39.811, 131.503 41.625, 130.131 43.256 C 128.759 44.886, 127.150 46.733, 126.555 47.360 C 119.121 55.197, 117.754 69.991, 119.603 122.641 C 120.408 145.573, 121.513 144, 104.607 144 C 91.257 144, 78.193 145.652, 75.921 147.627 C 75.053 148.382, 73.842 149, 73.230 149 C 71.147 149, 70.824 151.082, 72.507 153.652 C 74.118 156.110, 74.482 156.192, 81.344 155.652 C 85.280 155.343, 95.700 154.957, 104.499 154.795 L 120.498 154.500 121.767 159.500 C 124.153 168.903, 128.427 213.284, 128.136 225.643 C 127.936 234.150, 128.874 237.059, 132.429 238.962 C 134.921 240.296, 135.264 240.197, 138.144 237.318 C 140.736 234.726, 141.037 233.938, 140.103 232.193 C 139.497 231.059, 138.997 227.289, 138.992 223.816 C 138.988 220.342, 138.485 213.675, 137.874 209 C 137.263 204.325, 136.756 199.375, 136.748 198 C 136.686 188.285, 134.737 167.650, 133.498 163.591 C 130.840 154.883, 129.430 155.479, 152.250 155.663 C 178.481 155.875, 179.796 155.688, 183.220 151.267 C 185.267 148.624, 185.707 147.320, 184.998 145.995 C 183.510 143.216, 181.042 142.819, 176.367 144.604 C 172.701 146.004, 169.017 146.190, 152.498 145.812 C 140.499 145.537, 132.549 144.949, 131.889 144.289 C 131.251 143.651, 130.664 136.975, 130.445 127.857 C 130.242 119.411, 129.667 109.575, 129.167 106 C 127.838 96.494, 128.793 68.624, 130.565 65.227 C 131.347 63.727, 131.990 62.026, 131.994 61.446 C 132.002 60.068, 137.476 54.883, 142.390 51.599 C 148.982 47.194, 158.149 49, 162.441 55.550 C 164.665 58.944, 168.332 58.748, 170.932 55.096 C 172.069 53.498, 173 51.248, 173 50.096 C 173 47.798, 169.733 44.002, 167.750 43.996 C 167.063 43.994, 163.800 42.646, 160.500 41 C 155.274 38.394, 153.468 38.017, 146.500 38.083 C 142.100 38.124, 137.178 38.638, 135.563 39.225" stroke="none" fill="black" fill-rule="evenodd"/>
</svg>