<svg xmlns="http://www.w3.org/2000/svg" width="300" height="300" viewBox="0 0 300 300" version="1.1">
	<path d="M 97.500 101.407 C 88.484 105.702, 82.970 110.576, 77.146 119.400 C 72.078 127.079, 70.642 130.921, 69.038 141.082 C 67.358 151.732, 67.711 160.514, 70 165 C 71.100 167.156, 72 169.635, 72 170.508 C 72 172.985, 81.165 181.537, 86.214 183.770 C 93.820 187.135, 100.259 188.098, 107.901 187.014 C 115.775 185.897, 119.087 184.786, 123.136 181.903 C 128.449 178.120, 129.328 179.280, 129.649 190.501 C 129.806 196, 130.423 206.800, 131.020 214.500 C 131.617 222.200, 131.876 230.975, 131.597 234 C 131.318 237.025, 130.775 245.023, 130.391 251.773 C 129.713 263.712, 129.757 264.113, 132.021 266.523 C 134.986 269.679, 137.039 269.652, 140.076 266.419 L 142.500 263.839 142.196 238.669 C 142.027 224.681, 141.422 212.009, 140.833 210.143 C 139.678 206.481, 140.154 171.241, 141.895 131.500 C 143.015 105.928, 143.030 106, 136.506 106 C 134.651 106, 131.800 104.832, 129.447 103.108 C 124.439 99.439, 119.211 98.003, 111 98.041 C 105.738 98.066, 103.166 98.707, 97.500 101.407 M 106 109.932 C 104.075 110.993, 101.438 112.350, 100.139 112.948 C 94.350 115.613, 87 123.287, 83.468 130.355 C 79.328 138.641, 76.715 154.053, 78.742 158.229 C 79.348 159.478, 80.120 161.765, 80.456 163.311 C 81.255 166.979, 89.281 175, 92.153 175 C 93.366 175, 95.794 175.519, 97.550 176.154 C 104.283 178.589, 126.145 170.375, 128.519 164.519 C 129.270 162.664, 129.955 153.535, 130.295 140.844 L 130.849 120.188 127.760 115.988 C 122.430 108.740, 112.950 106.102, 106 109.932" stroke="none" fill="black" fill-rule="evenodd"/>
</svg>