<svg xmlns="http://www.w3.org/2000/svg" width="300" height="300" viewBox="0 0 300 300" version="1.1">
	<path d="M 92.223 74.557 C 90.568 75.716, 90 77.116, 90 80.038 C 90 83.514, 90.314 84.027, 92.750 84.533 C 95.430 85.089, 100.465 87.130, 104.500 89.295 C 105.600 89.885, 107.850 91.037, 109.500 91.855 C 111.150 92.673, 117.031 95.940, 122.569 99.115 C 128.107 102.289, 134.857 105.788, 137.569 106.889 C 140.281 107.990, 144.714 110.041, 147.419 111.446 C 150.125 112.851, 153.073 114, 153.969 114 C 154.866 114, 156.028 114.400, 156.550 114.890 C 157.072 115.379, 160.875 117.232, 165 119.006 C 169.125 120.781, 173.210 122.855, 174.079 123.616 C 174.947 124.377, 176.373 125, 177.247 125 C 178.122 125, 182.124 126.575, 186.140 128.500 C 190.157 130.425, 194.356 132.002, 195.472 132.005 C 196.587 132.008, 198.823 133.068, 200.439 134.362 L 203.379 136.714 196.589 143.107 C 192.854 146.623, 188.944 149.906, 187.899 150.403 C 186.855 150.899, 186 151.669, 186 152.113 C 186 152.558, 182.613 155.426, 178.473 158.488 C 174.332 161.550, 170.154 164.830, 169.187 165.777 C 168.220 166.725, 164.857 169.467, 161.714 171.872 C 158.571 174.276, 156 176.541, 156 176.906 C 156 177.271, 154.565 178.417, 152.811 179.453 C 151.057 180.489, 142.096 188.798, 132.898 197.918 C 123.700 207.038, 114.508 215.948, 112.471 217.718 C 109.306 220.467, 108.868 221.340, 109.461 223.718 C 110.383 227.409, 112.825 229.997, 115.405 230.014 C 116.814 230.024, 124.405 223.070, 138.600 208.764 C 150.205 197.069, 163.871 184.350, 168.970 180.500 C 174.069 176.650, 178.749 173.050, 179.370 172.500 C 179.992 171.950, 183.650 168.946, 187.500 165.825 C 191.350 162.704, 195.400 159.316, 196.500 158.297 C 197.600 157.277, 201.742 154.298, 205.704 151.675 C 214.789 145.662, 223 137.812, 223 135.138 C 223 132.422, 215.699 127.453, 209.393 125.880 C 206.702 125.208, 203.375 123.854, 202 122.870 C 200.625 121.887, 197.250 120.358, 194.500 119.474 C 191.750 118.589, 188.064 117.212, 186.309 116.414 C 184.554 115.615, 178.780 113.412, 173.479 111.518 C 168.178 109.623, 161.739 106.810, 159.170 105.266 C 156.602 103.722, 152.025 101.353, 149 100.001 C 140.857 96.363, 126.790 88.964, 124.500 87.115 C 119.889 83.392, 99.364 73, 96.621 73 C 95.424 73, 93.445 73.701, 92.223 74.557" stroke="none" fill="black" fill-rule="evenodd"/>
</svg>