<svg xmlns="http://www.w3.org/2000/svg" width="300" height="300" viewBox="0 0 300 300" version="1.1">
	<path d="M 122.506 86.632 C 120.435 89.792, 119.924 104.499, 121.693 110 C 122.312 111.925, 123.078 116.313, 123.394 119.750 C 124.077 127.173, 122.952 127.792, 118.223 122.595 C 116.518 120.722, 112.187 117.094, 108.597 114.532 C 103.194 110.677, 101.437 109.929, 98.387 110.188 C 93.277 110.621, 92.026 112.946, 94.920 116.628 C 96.161 118.208, 98.662 120.224, 100.478 121.109 C 104.671 123.154, 121 135.863, 121 137.083 C 121 137.587, 117.951 138, 114.224 138 C 107.773 138, 93.715 139.384, 87.692 140.612 C 85.353 141.089, 84.936 141.628, 85.192 143.842 C 85.684 148.088, 89.960 148.906, 108.250 148.253 C 125.734 147.630, 125.553 147.554, 122.222 154.039 C 120.229 157.918, 101.038 180.952, 93.741 188.224 C 88.602 193.344, 87.941 195.732, 90.917 198.425 C 92.411 199.777, 93.274 199.924, 94.830 199.091 C 95.927 198.504, 96.977 197.600, 97.163 197.083 C 97.348 196.566, 100.875 192.597, 105 188.264 C 111.926 180.989, 114.409 178.137, 121.562 169.250 C 125.188 164.745, 127.432 164.882, 126.556 169.555 C 126.189 171.510, 125.889 178.525, 125.889 185.145 C 125.889 198.114, 127.077 202, 131.044 202 C 134.452 202, 135.502 197.948, 134.227 189.722 C 133.523 185.180, 133.458 182.148, 134.054 181.550 C 134.574 181.027, 135 174.390, 135 166.800 C 135 153.881, 135.122 153, 136.911 153 C 137.962 153, 140.037 154.463, 141.521 156.250 C 143.006 158.037, 146.154 161.561, 148.517 164.079 C 150.880 166.597, 153.687 170.289, 154.755 172.282 C 159.501 181.137, 187.179 210.973, 193.846 214.420 C 197.978 216.557, 200 215.236, 200 210.401 C 200 207.817, 199.368 206.658, 197.250 205.357 C 194.274 203.530, 184.163 193.240, 178.229 186 C 176.200 183.525, 172.169 178.887, 169.270 175.693 C 166.372 172.499, 164 169.283, 164 168.546 C 164 167.810, 160.850 163.739, 157 159.500 C 153.150 155.261, 150 150.940, 150 149.897 C 150 147.900, 149.421 147.983, 167.500 147.380 C 170.250 147.288, 172.950 147.099, 173.500 146.961 C 174.050 146.823, 176.738 146.662, 179.473 146.605 C 183.817 146.513, 184.609 146.164, 185.733 143.842 C 186.673 141.902, 186.743 140.455, 185.993 138.481 C 185.079 136.078, 184.607 135.853, 181.733 136.456 C 176.225 137.612, 146 138.292, 146 137.260 C 146 134.471, 153.849 121.529, 159.500 115 C 164.913 108.746, 165.992 106.897, 165.996 103.871 C 165.999 100.806, 165.549 100.056, 163.091 99.038 C 159.522 97.559, 157.963 98.307, 152.387 104.173 C 147.693 109.112, 144.982 114.054, 138.318 129.819 C 136.660 133.741, 134.579 133.532, 134.308 129.416 C 134.009 124.879, 132.119 109.508, 130.994 102.462 C 130.161 97.247, 130.264 95.380, 131.566 92.127 C 133.691 86.815, 132.311 84, 127.580 84 C 125.066 84, 123.800 84.656, 122.506 86.632" stroke="none" fill="black" fill-rule="evenodd"/>
</svg>