<svg xmlns="http://www.w3.org/2000/svg" width="300" height="300" viewBox="0 0 300 300" version="1.1">
	<path d="M 128.759 94.361 C 121.177 96.864, 118.100 98.456, 114.881 101.539 C 108.047 108.085, 100.869 120.043, 95.996 133 C 95.272 134.925, 94.302 136.928, 93.840 137.450 C 93.378 137.972, 93 139.570, 93 141 C 93 142.430, 92.464 144.136, 91.808 144.792 C 89.806 146.794, 90.212 168.439, 92.372 174.762 C 94.932 182.258, 102.380 190.051, 111.203 194.465 C 115.089 196.409, 118.953 198, 119.790 198 C 120.627 198, 122.920 199.227, 124.885 200.726 C 128.303 203.333, 128.897 203.440, 138.480 203.163 C 150.028 202.831, 155.381 201.501, 162.794 197.125 C 165.706 195.406, 168.464 194, 168.923 194 C 169.383 194, 173.638 190.609, 178.379 186.463 C 185.415 180.312, 187 178.405, 187 176.086 C 187 169.473, 180.754 169.559, 172.670 176.282 C 165.658 182.114, 160.611 185.353, 153.570 188.539 C 148.204 190.968, 146.766 191.185, 138.424 190.820 C 133.217 190.592, 128.565 189.884, 127.732 189.193 C 126.921 188.519, 124.058 187.315, 121.370 186.517 C 116.646 185.114, 105.517 177.135, 103.911 174 C 101.431 169.159, 99.852 161.167, 100.454 156.514 C 101.223 150.574, 103.004 143.881, 104.169 142.550 C 104.626 142.028, 105 140.620, 105 139.422 C 105 138.225, 105.601 136.746, 106.335 136.137 C 107.070 135.527, 108.273 133.110, 109.009 130.764 C 109.745 128.419, 110.720 126.073, 111.174 125.550 C 111.628 125.027, 112 123.790, 112 122.800 C 112 121.810, 112.787 120.194, 113.750 119.209 C 114.713 118.224, 117.218 115.299, 119.317 112.709 C 121.416 110.119, 123.772 108, 124.552 108 C 125.332 108, 128.114 106.695, 130.735 105.100 C 134.905 102.561, 136.186 102.264, 141 102.715 C 145.368 103.124, 147.169 103.864, 149.750 106.311 C 151.537 108.006, 153 109.809, 153 110.319 C 153 112.102, 162.114 124, 163.479 124 C 166.744 124, 169.726 117.185, 167.156 115.596 C 166.691 115.309, 164.850 112.107, 163.064 108.479 C 159.209 100.648, 154.970 96.146, 148.656 93.178 C 142.661 90.361, 140.484 90.490, 128.759 94.361" stroke="none" fill="black" fill-rule="evenodd"/>
</svg>