<svg xmlns="http://www.w3.org/2000/svg" width="300" height="300" viewBox="0 0 300 300" version="1.1">
	<path d="M 154.947 45.564 C 151.737 49.432, 150.263 57.107, 150.128 70.666 C 150.054 78.110, 149.730 84.629, 149.407 85.151 C 149.084 85.673, 148.473 89.911, 148.048 94.569 C 147.173 104.177, 145.282 107.478, 141.112 106.681 C 139.768 106.424, 134.801 107.457, 130.074 108.976 C 125.348 110.495, 118.110 112.304, 113.990 112.996 C 107.055 114.161, 93.276 117.467, 85.007 119.951 C 83.085 120.528, 81.398 121, 81.257 121 C 80.505 121, 81.217 113.732, 82.480 108.500 C 83.277 105.200, 83.945 99.662, 83.964 96.193 C 83.998 90.217, 85.229 82.913, 86.945 78.500 C 90.200 70.130, 90.930 63.330, 88.800 61.200 C 88.140 60.540, 86.453 60.017, 85.050 60.039 C 83.007 60.070, 82.059 61.014, 80.282 64.789 C 75.879 74.142, 74.002 81.669, 73.940 90.218 C 73.908 94.773, 73.434 100.750, 72.887 103.500 C 71.381 111.084, 70.071 118.997, 69.496 124 C 69.211 126.475, 68.719 129.175, 68.404 130 C 67.093 133.422, 64 146.488, 64 148.601 C 64 149.856, 63.550 151.160, 63 151.500 C 62.450 151.840, 62 153.465, 62 155.112 C 62 156.759, 60.877 162.020, 59.505 166.803 C 58.132 171.586, 55.663 182.475, 54.018 191 C 52.373 199.525, 50.747 207.500, 50.404 208.722 C 49.918 210.455, 50.346 211.200, 52.350 212.114 C 56.306 213.916, 59.640 211.279, 60.337 205.795 C 61.239 198.695, 62.676 191.681, 63.882 188.500 C 64.906 185.797, 66.675 177.540, 68.917 165 C 70.006 158.911, 72.322 150.614, 73.104 150 C 73.455 149.725, 74.003 147.925, 74.323 146 C 76.169 134.893, 76.395 134.584, 85 131.319 C 94.724 127.631, 96.395 127.173, 102.434 126.551 C 105.698 126.215, 108.848 125.559, 109.434 125.095 C 110.459 124.284, 113.504 123.557, 121 122.334 C 122.925 122.020, 124.980 121.379, 125.567 120.911 C 126.154 120.442, 130.429 119.933, 135.067 119.779 L 143.500 119.500 143.422 123.500 C 143.300 129.814, 141.015 149.342, 138.802 163 C 136.053 179.965, 135.269 185.669, 133.945 198.336 C 132.834 208.979, 132.854 209.216, 135.081 211.586 C 137.789 214.469, 140.098 214.655, 142.345 212.171 C 143.672 210.706, 144.001 208.175, 144.006 199.421 C 144.009 193.415, 144.404 186.925, 144.884 185 C 145.364 183.075, 146.302 178.800, 146.968 175.500 C 147.635 172.200, 148.597 167.475, 149.107 165 C 150.215 159.626, 151.908 147.608, 152.621 140.058 C 152.904 137.065, 153.544 133.852, 154.044 132.917 C 155.269 130.628, 157.110 115.617, 157.559 104.254 C 157.760 99.169, 158.378 94.162, 158.932 93.127 C 159.486 92.093, 159.934 89.953, 159.929 88.373 C 159.904 81.055, 162.118 58.891, 163.414 53.500 C 164.705 48.126, 164.690 47.317, 163.273 45.750 C 161.308 43.578, 156.681 43.474, 154.947 45.564" stroke="none" fill="black" fill-rule="evenodd"/>
</svg>