<svg xmlns="http://www.w3.org/2000/svg" width="300" height="300" viewBox="0 0 300 300" version="1.1">
	<path d="M 158.032 41.940 C 157.426 43.073, 155.933 44.003, 154.715 44.007 C 153.497 44.010, 151.317 44.798, 149.872 45.757 C 145.754 48.489, 135.900 59.140, 131.500 65.614 C 129.300 68.851, 127.162 71.650, 126.750 71.833 C 126.338 72.017, 126 72.795, 126 73.564 C 126 74.332, 124.508 77.332, 122.684 80.231 C 120.861 83.129, 118.596 87.075, 117.652 89 C 116.707 90.925, 114.308 95.425, 112.319 99 C 104.838 112.449, 102.014 122.549, 100.017 143 C 98.826 155.196, 101.358 182.758, 103.903 185.303 C 104.506 185.906, 105 187.633, 105 189.141 C 105 190.649, 105.402 192.131, 105.894 192.435 C 106.386 192.739, 107.025 194.678, 107.313 196.744 C 108.258 203.514, 109.741 209.141, 110.880 210.280 C 111.496 210.896, 112 211.996, 112 212.725 C 112 216.191, 126.038 236.044, 136.089 246.791 C 142.758 253.922, 155.150 264, 157.249 264 C 157.878 264, 160.003 265.116, 161.971 266.480 C 170.682 272.517, 176.146 269.806, 169.332 262.828 C 167.276 260.722, 165.121 259, 164.544 259 C 161.590 259, 143.555 243.366, 137.262 235.350 C 128.970 224.788, 120 210.158, 120 207.198 C 120 206.124, 119.325 204.685, 118.500 204 C 117.675 203.315, 117 201.487, 117 199.937 C 117 198.386, 116.550 196.840, 116 196.500 C 115.450 196.160, 115 194.595, 115 193.022 C 115 191.449, 114.370 188.888, 113.600 187.331 C 110.948 181.967, 110 177.337, 110 169.738 C 110 165.547, 109.597 161.869, 109.104 161.564 C 108.611 161.260, 108.380 157.746, 108.590 153.755 C 109.647 133.659, 113.613 115.749, 118.500 109 C 119.097 108.175, 120.155 105.823, 120.850 103.772 C 121.545 101.722, 124.997 95.422, 128.522 89.772 C 132.047 84.123, 135.620 78.150, 136.464 76.500 C 137.307 74.850, 140.585 70.296, 143.749 66.380 C 146.912 62.464, 149.976 58.450, 150.558 57.460 C 151.285 56.225, 153.779 55.307, 158.519 54.531 L 165.421 53.402 165.583 49.451 C 165.672 47.278, 165.337 44.985, 164.838 44.355 C 164.338 43.726, 164.058 42.601, 164.215 41.855 C 164.710 39.500, 159.298 39.574, 158.032 41.940 M 145.248 54.663 C 143.638 55.312, 136.578 65.911, 137.284 66.618 C 137.578 66.912, 139.772 65.022, 142.159 62.419 C 144.547 59.816, 147.063 57.114, 147.750 56.415 C 149.930 54.196, 148.641 53.294, 145.248 54.663" stroke="none" fill="black" fill-rule="evenodd"/>
</svg>