<svg xmlns="http://www.w3.org/2000/svg" width="300" height="300" viewBox="0 0 300 300" version="1.1">
	<path d="M 119 53.353 C 115.975 54.016, 111.708 55.783, 109.518 57.280 C 107.328 58.776, 105.156 60, 104.692 60 C 103.230 60, 92.063 69.014, 90.951 71.091 C 90.367 72.183, 90.163 73.938, 90.498 74.992 C 90.839 76.070, 90.357 78.052, 89.395 79.519 C 87.759 82.016, 87.774 82.218, 89.721 84.165 C 92.532 86.976, 96 85.208, 96 80.965 C 96 79.334, 96.498 78, 97.106 78 C 97.714 78, 99.938 76.633, 102.047 74.963 C 112.246 66.885, 128.671 61.133, 133.665 63.890 C 134.674 64.447, 137.075 65.617, 139 66.489 C 140.925 67.362, 143.792 69.131, 145.370 70.421 C 148.095 72.648, 148.246 73.192, 148.349 81.134 C 148.457 89.448, 148.423 89.568, 142.739 100.500 C 135.808 113.829, 130.357 119.331, 119.915 123.534 C 109.588 127.691, 104.277 135.134, 108.571 139.429 C 110.968 141.825, 112.953 141.404, 124.156 136.124 C 132.467 132.206, 135.886 131.139, 141.551 130.698 C 147.912 130.203, 149.185 130.434, 154.551 133.052 C 157.823 134.649, 161.175 135.966, 162 135.978 C 164.043 136.009, 172.775 144.633, 173.492 147.327 C 173.810 148.522, 174.562 151.144, 175.163 153.153 C 175.787 155.237, 175.959 158.790, 175.564 161.424 C 174.798 166.530, 170.142 176.122, 166.546 180 C 165.271 181.375, 163.513 183.918, 162.639 185.652 C 160.855 189.191, 148.359 201.641, 143 205.219 C 137.386 208.967, 123.123 214.825, 115 216.719 C 110.121 217.857, 103.481 218.462, 96 218.451 C 83.427 218.432, 79.744 217.311, 76.625 212.551 C 74.531 209.355, 72.500 209.307, 70.470 212.405 C 69.024 214.613, 69.042 215.116, 70.697 218.545 C 72.727 222.751, 79.354 226.784, 86.332 228.062 C 92.019 229.102, 115.681 227.243, 118.364 225.545 C 119.539 224.801, 122.525 223.870, 125 223.476 C 127.475 223.082, 131.075 221.901, 133 220.850 C 134.925 219.799, 138.866 217.655, 141.757 216.085 C 144.649 214.515, 149.374 211.228, 152.257 208.782 C 155.141 206.335, 158.289 203.902, 159.254 203.375 C 162.095 201.822, 176.986 184.702, 177.628 182.250 C 177.952 181.013, 178.566 180, 178.992 180 C 179.419 180, 181.231 177.057, 183.020 173.459 C 187.199 165.057, 188.152 155.358, 185.498 148.247 C 184.523 145.636, 183.113 142.790, 182.363 141.921 C 181.613 141.053, 181 139.444, 181 138.346 C 181 137.247, 179.986 135.396, 178.748 134.233 C 173.974 129.748, 154.525 120, 150.351 120 C 148.869 120, 146.845 119.264, 145.851 118.365 C 144.120 116.799, 144.162 116.581, 146.863 113.115 C 150.105 108.956, 155.035 98.119, 157.502 89.730 C 158.786 85.363, 159.028 82.261, 158.498 76.976 C 158.112 73.135, 157.392 69.742, 156.898 69.437 C 156.404 69.132, 156 68.097, 156 67.137 C 156 64.380, 150.082 59.380, 143 56.154 C 135.298 52.645, 126.769 51.650, 119 53.353" stroke="none" fill="black" fill-rule="evenodd"/>
</svg>