<svg xmlns="http://www.w3.org/2000/svg" width="300" height="300" viewBox="0 0 300 300" version="1.1">
  <defs/>
  <path d="M124,122.837 C132.015,119.875 133.383,120.325 142.877,129.045 C148.443,134.157 150.358,138.407 150.178,145.248 C150.011,151.618 146.658,158.339 143.081,159.474 C141.985,159.822 140.002,161.397 138.675,162.974 C137.338,164.564 132.973,167.25 128.881,169.002 C121.933,171.977 121.021,172.123 113.343,171.499 C108.613,171.115 106.502,170.836 105.369,171.759 C104.339,172.599 104.119,174.433 103.473,178.086 C102.878,181.453 103.195,182.023 108.669,187.412 C116.433,195.056 120.376,197 128.116,197 C135.703,197 137.675,195.708 150.61,182.266 C160.269,172.228 163.196,170.891 163.814,176.236 C164.143,179.08 160.161,188.052 157.04,191.5 C156.044,192.6 154.93,194.489 154.564,195.699 C154.197,196.908 153.009,198.18 151.922,198.525 C150.836,198.87 149.247,200.22 148.391,201.525 C147.536,202.831 145.186,204.429 143.168,205.076 C141.151,205.723 138.79,206.87 137.923,207.625 C136.933,208.486 133.368,209.091 128.356,209.249 C120.986,209.48 120.085,209.287 116.749,206.75 C114.761,205.238 112.72,204 112.214,204 C111.708,204 107.501,200.451 102.865,196.114 C95.547,189.267 94.265,187.559 93.136,183.152 C92.42,180.361 92.167,177.54 92.572,176.883 C92.978,176.227 93.478,172.057 93.684,167.616 C93.89,163.175 94.495,159.105 95.029,158.571 C95.563,158.037 96,156.589 96,155.353 C96,154.117 97.125,150.99 98.5,148.404 C99.875,145.818 101,143.276 101,142.755 C101,141.058 112.125,129.086 115.86,126.764 C117.862,125.519 121.525,123.752 124,122.837 Z M127,134.508 C125.625,135.29 123.869,135.945 123.098,135.965 C121.646,136.001 114.039,143.854 114.014,145.342 C114.006,145.806 113.1,147.329 112,148.727 C110.9,150.126 110,151.927 110,152.73 C110,153.534 109.072,155.495 107.937,157.089 C106.802,158.682 106.108,160.366 106.394,160.829 C107.08,161.939 118.141,161.043 119.76,159.747 C120.454,159.192 123.133,158.343 125.714,157.861 C133.512,156.404 139.45,148.967 138.816,141.45 C138.325,135.622 131.793,131.785 127,134.508 Z M104.015,71.47 L106.029,67.309 L111.765,68.271 C119.4,69.552 120.926,70.989 120.302,76.311 C119.959,79.241 118.933,81.327 116.89,83.25 C113.69,86.262 111.911,86.562 107.128,84.895 C101.653,82.986 100.612,78.498 104.015,71.47 Z M132.131,67.756 C132.751,66.596 134.255,66 136.56,66 C139.339,66 140.238,66.497 140.977,68.439 C141.487,69.781 142.938,71.423 144.202,72.089 C147.241,73.69 147.787,74.662 147.244,77.505 C146.654,80.59 144.291,82.609 140.272,83.463 C137.589,84.034 136.639,83.713 134.651,81.568 C132.004,78.713 130.545,70.718 132.131,67.756 Z"/>
</svg>

