<svg xmlns="http://www.w3.org/2000/svg" width="300" height="300" viewBox="0 0 300 300" version="1.1">
  <defs/>
  <path d="M121.317,134.25 C122.47,132.45 124.427,132.71 126.435,134.929 C127.953,136.606 128.111,138.332 127.645,148.179 C127.35,154.405 126.914,166.076 126.677,174.114 C126.439,182.151 125.707,190.357 125.05,192.348 C124.393,194.339 124.134,196.848 124.475,197.922 C124.816,198.996 124.657,200.691 124.121,201.687 C123.585,202.684 122.902,204.287 122.604,205.25 C121.946,207.377 118.697,207.545 117.031,205.537 C114.967,203.05 114.605,193.058 116.364,187.141 C117.581,183.048 117.962,177.146 117.98,162.141 C118.003,143.513 118.604,138.484 121.317,134.25 Z M108.75,84.08 C112.043,82.162 118.037,82.904 123.86,85.951 C130.125,89.23 139.9,92.88 144.5,93.66 C146.15,93.939 148.85,94.753 150.5,95.469 C152.15,96.184 155.197,97.366 157.272,98.094 C161.941,99.732 164.576,102.514 165.471,106.75 C166.009,109.293 165.828,110 164.638,110 C163.802,110 162.81,109.502 162.433,108.892 C162.005,108.199 160.265,108.022 157.786,108.418 C154.329,108.971 153.383,108.666 150.377,106.026 C148.481,104.362 145.87,103 144.574,103 C143.279,103 140.257,102.11 137.859,101.022 C135.462,99.934 132.289,99.034 130.809,99.022 C129.329,99.01 127.84,98.55 127.5,98 C127.16,97.45 126.186,97 125.335,97 C124.485,97 122.452,95.875 120.818,94.5 C119.184,93.125 116.869,91.998 115.673,91.996 C112.751,91.991 107,88.389 107,86.564 C107,85.759 107.787,84.641 108.75,84.08 Z"/>
</svg>

