<svg xmlns="http://www.w3.org/2000/svg" width="300" height="300" viewBox="0 0 300 300" version="1.1">
  <defs/>
  <path d="M107.31,136.25 C108.431,135.012 110.372,134 111.622,134 C114.587,134 125.196,142.855 127.382,147.154 C128.318,148.994 129.877,151.85 130.845,153.5 C134.781,160.206 137.973,168.926 139.996,178.5 C140.461,180.7 141.293,184.3 141.844,186.5 C142.396,188.7 143.407,193.783 144.092,197.795 C144.777,201.808 145.712,205.322 146.169,205.604 C146.626,205.887 147.008,207.554 147.017,209.309 C147.035,212.673 149.699,225.542 152.397,235.299 C153.278,238.488 154.02,242.088 154.044,243.299 C154.068,244.509 154.76,247.3 155.581,249.5 C157.468,254.555 158.357,273.379 156.916,277.75 C156.271,279.707 155.18,280.994 154.172,280.985 C150.58,280.952 149.508,279.128 148.764,271.787 C148.358,267.779 147.773,262.025 147.465,259 C147.156,255.975 146.508,252.6 146.025,251.5 C145.542,250.4 144.907,247.475 144.614,245 C144.322,242.525 143.375,237.575 142.51,234 C141.645,230.425 140.451,224.575 139.857,221 C139.262,217.425 138.117,211.575 137.313,208 C136.508,204.425 135.461,199.364 134.986,196.753 C134.51,194.142 133.843,191.554 133.502,191.003 C132.481,189.351 126.017,189.864 119.733,192.095 C116.488,193.247 113.013,193.975 112.011,193.713 C111.008,193.451 108.908,194.08 107.344,195.112 C105.78,196.143 103.15,196.997 101.5,197.009 C99.85,197.021 97.966,197.37 97.314,197.785 C96.662,198.199 95.407,203.255 94.525,209.019 C92.126,224.7 91.244,229.099 89.615,233.5 C88.801,235.7 88.38,238.518 88.679,239.763 C88.979,241.008 88.74,242.609 88.149,243.321 C87.558,244.033 86.658,249.823 86.15,256.187 C85.641,262.551 84.612,269.009 83.862,270.537 C81.995,274.346 79.491,275.801 77.25,274.381 C75.837,273.485 75.525,271.946 75.628,266.386 C75.843,254.826 77.46,241.14 78.765,239.835 C79.444,239.156 80,237.43 80,236 C80,234.57 80.41,232.973 80.912,232.45 C81.414,231.928 82.041,229.025 82.306,226 C82.571,222.975 83.525,217.125 84.427,213 C85.328,208.875 86.288,204.15 86.56,202.5 C87.76,195.225 89.278,188.345 90.091,186.5 C90.575,185.4 91.451,181.8 92.036,178.5 C94.778,163.042 95.26,161.107 98.014,154.5 C101.591,145.919 105.496,138.253 107.31,136.25 Z M119.5,85.889 C129.117,83.445 139.075,83.43 142.068,85.854 L144.358,87.708 L140.526,91.541 C137.234,94.832 136.138,95.34 132.757,95.141 C129.289,94.936 124.345,96.56 117.79,100.055 C116.849,100.557 115.432,100.719 114.641,100.416 C113.85,100.112 112.905,100.344 112.542,100.932 C112.179,101.519 109.633,102 106.884,102 C103.052,102 99.739,103.02 92.693,106.367 C80.246,112.28 79.791,112.386 77.195,109.967 C73.821,106.824 74.395,103.014 78.738,99.718 C80.754,98.189 83.52,96.657 84.884,96.314 C86.249,95.972 88.921,94.636 90.823,93.346 C92.724,92.056 95.164,91 96.246,91 C98.237,91 106.72,89.135 119.5,85.889 Z M109.071,152.25 C107.483,155.688 105.437,161.65 104.525,165.5 C103.612,169.35 102.445,174.127 101.933,176.116 C101.42,178.105 101,181.2 101,182.995 L101,186.258 L106.98,185.582 C110.269,185.21 114.901,184.047 117.273,182.998 C119.644,181.948 123.49,180.785 125.818,180.413 C129.136,179.883 129.938,179.38 129.529,178.091 C129.241,177.185 128.341,173.982 127.528,170.972 C126.715,167.963 125.732,164.375 125.343,163 C124.955,161.625 123.143,158.421 121.318,155.881 C119.493,153.34 118,150.822 118,150.286 C118,148.972 114.637,146 113.15,146 C112.494,146 110.658,148.813 109.071,152.25 Z"/>
</svg>

