<svg xmlns="http://www.w3.org/2000/svg" width="300" height="300" viewBox="0 0 300 300" version="1.1">
  <defs/>
  <path d="M146.5,73.815 C147.6,73.579 150.525,73.586 153,73.829 C156.705,74.194 158.605,75.235 163.753,79.723 C167.529,83.015 170.225,86.229 170.559,87.837 C170.863,89.302 171.987,92.425 173.056,94.777 C174.125,97.129 175,99.728 175,100.552 C175,101.375 176.066,102.455 177.369,102.95 C180.602,104.179 184,108.725 184,111.82 C184,113.223 183.183,115.3 182.184,116.436 C181.185,117.571 179.806,121.364 179.121,124.864 C178.435,128.364 177.486,131.964 177.01,132.864 C174.813,137.024 174.635,137.909 173.609,149.841 C173.309,153.328 172.635,157.603 172.11,159.341 C171.586,161.078 169.573,167.675 167.638,174 C162.843,189.674 161.807,193.822 161.506,198.566 C161.363,200.802 160.812,203.502 160.28,204.566 C159.748,205.63 158.829,207.446 158.239,208.603 C157.649,209.76 156.847,212.91 156.457,215.603 C156.067,218.296 155.327,221.029 154.813,221.676 C154.299,222.323 153.979,223.448 154.102,224.176 C154.375,225.789 153.191,230.776 151.888,233.5 C151.362,234.6 150.61,238.425 150.216,242 L149.5,248.5 L146.147,248.5 C143.362,248.5 142.446,247.901 140.746,244.969 C138.825,241.657 138.795,241.224 140.261,237.969 C141.121,236.061 142.369,231.35 143.035,227.5 C143.701,223.65 145.315,218.321 146.623,215.658 C147.93,212.994 149,209.973 149,208.943 C149,207.913 149.607,205.142 150.348,202.785 C151.09,200.428 152.234,196.025 152.89,193 C154.475,185.698 156.033,179.95 157.093,177.5 C159.404,172.16 160.299,169.017 161.08,163.5 C162.779,151.506 164.141,143.427 165.036,140.025 C165.547,138.085 165.571,136.171 165.09,135.69 C164.17,134.77 157.382,138.63 155.113,141.364 C154.2,142.464 152.178,143 148.937,143 C146.286,143 143.866,143.408 143.557,143.908 C143.249,144.407 140.624,145.561 137.726,146.473 C133.014,147.955 131.98,147.976 127.977,146.675 C125.515,145.874 122.263,144.936 120.75,144.591 C119.237,144.245 118,143.351 118,142.603 C118,141.856 117.255,140.627 116.345,139.872 C113.229,137.288 112.071,132.839 113.116,127.463 C113.647,124.734 114.513,121.719 115.04,120.764 C115.568,119.809 116.01,118.234 116.022,117.264 C116.034,116.294 116.924,114.375 118,113 C119.076,111.625 119.966,109.826 119.978,109.002 C119.99,108.177 121.912,103.724 124.25,99.105 C129.818,88.103 141.434,74.9 146.5,73.815 Z M146.181,86.586 C144.981,87.426 144,88.545 144,89.072 C144,89.6 141.338,93.287 138.085,97.266 C127.753,109.903 119.899,131.203 124.25,134.784 C126.285,136.459 134.916,137.374 137.331,136.171 C138.524,135.576 141.192,134.416 143.26,133.592 C145.328,132.768 149.424,130.498 152.363,128.547 C155.302,126.596 158.115,125 158.614,125 C159.113,125 161.467,123.111 163.846,120.801 C167.787,116.977 168.115,116.286 167.533,113.051 C167.181,111.098 166.646,107.25 166.344,104.5 C166.042,101.75 165.443,99.05 165.013,98.5 C164.583,97.95 163.928,96.084 163.559,94.354 C162.148,87.749 151.387,82.939 146.181,86.586 Z"/>
</svg>

