<svg xmlns="http://www.w3.org/2000/svg" width="300" height="300" viewBox="0 0 300 300" version="1.1">
  <defs/>
  <path d="M122,138.938 C127.548,137.237 128.622,137.627 138.014,144.75 C140.372,146.537 142.838,148 143.495,148 C146.242,148 148.195,151.93 148.556,158.185 C149.136,168.221 149.774,172.709 150.927,174.863 C151.517,175.966 152,177.997 152,179.375 C152,180.754 152.45,182.16 153,182.5 C153.55,182.84 154,184.822 154,186.904 C154,189.42 154.671,191.297 156,192.5 C157.1,193.495 158,195.05 158,195.955 C158,196.86 158.477,198.077 159.06,198.66 C159.644,199.244 160.283,201.71 160.481,204.142 C160.679,206.573 161.59,210.435 162.505,212.722 C164.648,218.078 164.183,220.173 160.641,221.121 C158.207,221.772 157.348,221.411 154.854,218.693 C153.244,216.937 151.658,214.375 151.329,213 C151,211.625 150.166,209.825 149.476,209 C148.786,208.175 147.681,204.239 147.021,200.254 C146.361,196.268 145.411,192.754 144.91,192.445 C144.41,192.135 144,191.098 144,190.14 C144,187.177 141.576,182.96 140.036,183.244 C139.231,183.392 138.15,185.311 137.634,187.507 C136.711,191.434 135.873,192.921 129.108,202.632 C124.892,208.683 117.963,216 116.447,216 C115.822,216 114.549,216.841 113.618,217.869 C112.687,218.898 109.889,220.017 107.393,220.36 C103.342,220.915 102.447,220.65 98.984,217.867 C96.032,215.495 94.713,213.41 93.451,209.126 C92.539,206.032 91.435,202.325 90.997,200.889 C89.777,196.886 90.992,176.871 92.612,174.285 C93.375,173.067 94,171.127 94,169.973 C94,166.873 98.787,157.252 103.352,151.175 C107.192,146.065 114.589,141.211 122,138.938 Z M122.5,149.726 C119.116,150.563 110.298,158.77 107.967,163.252 C106.752,165.588 104.913,169.075 103.881,171 C102.848,172.925 102.002,175.663 102.002,177.083 C102.001,178.504 101.708,179.959 101.351,180.316 C100.371,181.296 100.198,198.004 101.162,198.6 C101.623,198.885 102,200.597 102,202.404 C102,206.585 104.959,209.478 108.362,208.624 C114.266,207.142 127.821,188.007 133.243,173.5 C138.053,160.629 138.154,157.384 133.896,152.535 C130.779,148.984 128.137,148.333 122.5,149.726 Z M114.043,74.386 C114.71,72.633 115.715,72 117.833,72 C120.152,72 122.403,73.751 129.357,80.965 C134.111,85.896 138,90.522 138,91.245 C138,91.968 139.575,94.045 141.5,95.861 C143.425,97.677 145,99.57 145,100.068 C145,100.566 146.463,101.63 148.25,102.432 C155.166,105.537 157.941,110.145 154.576,112.937 C152.654,114.532 146.599,113.319 144.41,110.901 C143.464,109.855 142.177,109 141.551,109 C139.787,109 132,101.347 132,99.613 C132,98.765 131.1,97.589 130,97 C128.9,96.411 128,95.407 128,94.769 C128,92.811 122.815,86 121.325,86 C120.553,86 115.18,90.725 109.384,96.5 C98.749,107.096 95.956,108.655 94.035,105.066 C92.435,102.076 92.686,101.421 97.5,96 C99.975,93.213 102,90.555 102,90.093 C102,89.631 104.506,86.444 107.568,83.012 C110.631,79.58 113.545,75.698 114.043,74.386 Z"/>
</svg>

