<svg xmlns="http://www.w3.org/2000/svg" width="300" height="300" viewBox="0 0 300 300" version="1.1">
  <defs/>
  <path d="M146.926,89.407 C148.043,88.29 160.62,92.543 163.5,95.012 C164.6,95.955 166.223,97.126 167.107,97.613 C167.99,98.101 170.748,101.014 173.235,104.086 C177.248,109.044 177.945,110.676 179.431,118.586 C182.163,133.126 182.126,140.658 179.296,145.979 C177.851,148.697 177.124,151.359 177.461,152.699 C177.767,153.92 177.313,156.85 176.451,159.21 C175.59,161.569 174.172,165.525 173.301,168 C172.429,170.475 171.242,173.102 170.662,173.838 C170.083,174.574 168.831,177.385 167.88,180.084 C166.93,182.783 165.218,186.179 164.076,187.63 C162.934,189.082 161.993,190.772 161.984,191.385 C161.975,191.998 160.738,193.947 159.234,195.715 C156.132,199.364 153.346,203.28 148.716,210.5 C144.343,217.32 138.388,223.055 132.88,225.75 C129.05,227.624 126.626,227.999 118.39,227.994 C111.572,227.99 107.61,227.524 105.636,226.494 C104.06,225.672 101.939,225 100.921,225 C99.903,225 98.64,224.213 98.114,223.25 C97.587,222.287 95.561,219.925 93.61,218 C91.66,216.075 90.049,213.642 90.032,212.594 C90.014,211.546 88.95,209.296 87.666,207.594 C84.439,203.315 83,198.633 83,192.41 C83,189.499 82.591,186.865 82.091,186.556 C81.186,185.997 81.389,177.587 82.514,169 C82.838,166.525 83.275,162.7 83.485,160.5 C83.694,158.3 84.553,153.575 85.393,150 C86.233,146.425 86.912,142.6 86.902,141.5 C86.838,134.333 92.846,118.411 99.186,108.947 C104.7,100.718 106.202,99.617 110.898,100.368 C114.194,100.895 115.339,100.586 117.818,98.5 C119.452,97.125 121.624,95.998 122.644,95.996 C123.665,95.994 125.858,95.164 127.517,94.152 C129.177,93.14 134.099,91.782 138.456,91.134 C142.813,90.486 146.624,89.709 146.926,89.407 Z M141,101.958 C138.525,102.338 134.295,103.853 131.601,105.324 C128.907,106.796 126.134,108 125.44,108 C124.746,108 122.993,109.408 121.544,111.13 C118.617,114.609 114.354,117.899 108.845,120.932 C104.013,123.592 101.315,127.176 100.496,132.024 C100.127,134.205 99.415,136.243 98.913,136.554 C98.411,136.864 98,138.576 98,140.359 C98,142.142 97.503,144.097 96.895,144.705 C96.287,145.313 95.399,148.891 94.923,152.655 C94.447,156.42 93.654,161.418 93.161,163.763 C91.72,170.609 92.556,189.674 94.421,192.52 C95.29,193.845 96,195.824 96,196.918 C96,198.011 96.419,199.94 96.931,201.203 C97.443,202.466 98.118,204.706 98.432,206.181 C98.746,207.655 100.518,210.467 102.37,212.431 L105.736,216 L115.872,216 C124.056,216 126.717,215.62 129.695,214.024 C133.963,211.736 143.699,200.964 145.591,196.436 C146.303,194.733 147.585,192.759 148.442,192.048 C149.299,191.337 150,190.356 150,189.867 C150,189.379 151.575,186.739 153.5,184 C155.425,181.261 157,178.612 157,178.112 C157,177.612 158.35,174.637 160,171.5 C161.65,168.363 163,165.012 163,164.052 C163,163.092 163.71,160.885 164.577,159.146 C165.444,157.407 166.536,153.401 167.002,150.242 C167.468,147.084 168.384,143.019 169.037,141.21 C169.773,139.17 170.08,134.029 169.845,127.683 C169.501,118.39 169.191,117.009 166.483,112.702 C163.558,108.05 161.306,106.515 151.628,102.576 C149.498,101.709 147.248,101.06 146.628,101.134 C146.008,101.207 143.475,101.578 141,101.958 Z M145.75,36.628 C148.314,35.869 160.209,36.809 161.253,37.853 C162.439,39.039 160.45,49.665 158.479,52.672 C155.971,56.499 149.967,55.907 144.44,51.288 C139.601,47.243 138.791,44.236 142,42.232 C143.1,41.545 144,40.12 144,39.065 C144,38.01 144.787,36.913 145.75,36.628 Z M109.969,36.031 C111.074,34.926 111.655,34.307 112.321,34.195 C113.165,34.053 114.146,34.724 116.503,36.25 C122.272,39.986 125.423,49.031 122.293,52.873 C120.008,55.679 109.541,58.357 108.02,56.524 C107.469,55.86 107.299,55.034 107.644,54.689 C107.989,54.344 107.535,52.939 106.635,51.566 C104.858,48.854 104.484,45.437 105.871,44.58 C106.35,44.284 107.011,42.696 107.34,41.052 C107.668,39.408 108.852,37.148 109.969,36.031 Z"/>
</svg>

