<svg xmlns="http://www.w3.org/2000/svg" width="300" height="300" viewBox="0 0 300 300" version="1.1">
  <defs/>
  <path d="M152.547,45.25 C153.074,43.561 156.655,43.658 157.315,45.379 C157.89,46.877 156.891,51.85 155.118,56.315 C154.503,57.863 154,60.232 154,61.579 C154,62.925 153.598,64.809 153.106,65.764 C152.052,67.809 150,80.655 150,85.203 C150,86.944 149.359,90.873 148.576,93.934 C139.999,127.453 135.034,155.842 134.816,172.62 C134.662,184.451 134.453,185.86 132.691,186.961 C131.054,187.983 130.406,187.85 128.694,186.138 C126.826,184.27 126.658,182.917 126.729,170.298 C126.771,162.709 127.318,154.025 127.944,151 C128.57,147.975 129.709,141.675 130.475,137 C133.84,116.455 134.875,111.103 135.82,109.337 C136.822,107.465 138.323,101.031 139.983,91.5 C144.102,67.843 145.073,63.054 146.385,59.92 C147.21,57.952 148.574,55.769 149.416,55.07 C150.258,54.371 151.219,52.157 151.551,50.15 C151.884,48.142 152.332,45.938 152.547,45.25 Z M120.943,243.107 C121.563,241.948 122.854,241 123.812,241 C126.152,241 138.465,253.527 140.986,258.472 C143.517,263.437 143.511,264.656 140.948,266.028 C139.14,266.995 138.13,266.337 132.448,260.484 C128.902,256.831 126,253.337 126,252.719 C126,252.101 124.608,250.159 122.908,248.405 C120.265,245.678 119.979,244.908 120.943,243.107 Z"/>
</svg>

