<svg xmlns="http://www.w3.org/2000/svg" width="300" height="300" viewBox="0 0 300 300" version="1.1">
  <defs/>
  <path d="M155,73.9 C157.314,72.606 159.833,72.845 162.535,74.615 C165.52,76.571 165.734,80.026 163.022,82.48 C160.357,84.892 144.675,87.431 140.797,86.079 C138.818,85.389 135.527,85.529 129.74,86.547 C125.208,87.345 120.251,87.998 118.725,87.999 C116.009,88 115.96,88.102 116.458,92.75 C116.738,95.362 117.222,107.4 117.534,119.5 C117.846,131.6 118.523,141.923 119.04,142.44 C119.627,143.027 121.312,142.745 123.524,141.69 C125.473,140.76 128.138,140 129.445,140 C130.753,140 135.503,138.425 140,136.5 C144.497,134.575 148.824,133 149.614,133 C150.404,133 153.611,132.1 156.74,131 C163.659,128.568 165.794,128.504 168.171,130.655 C172.049,134.164 169.666,137.744 162,139.925 C159.525,140.629 156.375,141.773 155,142.468 C153.625,143.162 150.475,144.039 148,144.415 C143.521,145.096 136.217,147.242 130.5,149.556 C128.85,150.223 125.7,151.361 123.5,152.084 C117.28,154.127 116.869,154.851 116.38,164.624 C116.136,169.506 115.763,175.3 115.552,177.5 C115.34,179.7 114.891,186.225 114.554,192 C113.615,208.086 110.858,239.4 110.301,240.313 C110.028,240.76 110.63,242.038 111.639,243.153 C113.42,245.122 113.417,245.222 111.546,246.59 C108.821,248.582 102.113,248.788 100.95,246.915 C100.127,245.59 101.814,229.353 103.487,222.5 C104.293,219.2 105.169,209.653 105.434,201.284 C105.699,192.916 106.391,182.116 106.971,177.284 C108.547,164.159 109.183,159.769 107.516,158.561 C106.589,157.89 104.949,158.203 102.363,158.546 C96.821,159.281 94.59,157.842 95.173,153.907 C95.534,151.476 96.341,150.934 103.162,148.539 C105.726,147.639 108.135,146.136 108.516,145.201 C109.789,142.072 109.866,123.671 108.677,106.512 C107.63,91.393 107.299,89.485 105.676,89.174 C104.672,88.982 103.022,89.575 102.008,90.493 C100.994,91.41 99.115,92.012 97.832,91.83 C95.942,91.563 95.442,90.803 95.194,87.825 C94.911,84.42 95.212,83.96 99.282,81.575 C102.128,79.907 105.165,79 107.904,79 C110.229,79 113.096,78.484 114.276,77.852 C115.455,77.221 119.363,76.617 122.96,76.509 C136.397,76.107 153.55,74.71 155,73.9 Z"/>
</svg>

