<svg xmlns="http://www.w3.org/2000/svg" width="300" height="300" viewBox="0 0 300 300" version="1.1">
  <defs/>
  <path d="M103.837,114.673 C109.744,113.108 112.543,113.967 117.123,118.75 C121.527,123.349 128,132.511 128,134.144 C128,134.585 129.085,137.32 130.41,140.223 C132.648,145.122 133.202,146.941 134.669,154.218 C134.971,155.713 135.844,157.455 136.609,158.09 C137.374,158.725 138.018,160.877 138.039,162.872 C138.088,167.306 141.28,182.037 143.377,187.5 C144.221,189.7 144.932,192.711 144.956,194.191 C144.98,195.671 145.45,197.16 146,197.5 C146.55,197.84 147,199.837 147,201.937 C147,204.037 147.675,207.371 148.5,209.346 C149.325,211.32 150,214.492 150,216.394 C150,218.296 151.548,224.466 153.44,230.105 C156.083,237.983 156.64,240.803 155.847,242.286 C155.126,243.633 155.144,244.544 155.907,245.307 C156.508,245.908 157,248.769 157,251.665 C157,255.84 156.601,257.143 155.072,257.961 C150.888,260.2 149.412,257.805 147.082,245 C144.639,231.578 144.072,229.073 142.141,223.192 C141.016,219.763 139.817,214.155 139.477,210.729 C138.654,202.437 136.344,192.891 134.039,188.263 C133.009,186.193 131.899,183.666 131.574,182.646 C131.435,182.209 131.377,181.863 131.188,181.618 C130.497,180.723 128.057,181.177 113.5,183.432 C108,184.284 100.913,185.242 97.751,185.562 C92.894,186.053 91.929,186.482 91.534,188.322 C88.954,200.318 86.422,210.477 84.847,215.147 C82.183,223.046 80.005,236.22 79.992,244.5 C79.982,251.159 79.828,251.622 76.818,254 C72.781,257.191 71.835,257.142 70.165,253.659 C69.066,251.365 69.035,250.015 70.003,246.659 C70.663,244.371 71.584,238.488 72.051,233.585 C72.915,224.514 74.774,215.325 76.121,213.479 C77.002,212.27 80.599,195.831 82.461,184.5 C83.184,180.1 84.499,175.15 85.382,173.5 C86.265,171.85 86.99,168.677 86.994,166.45 C86.997,164.222 87.452,161.948 88.004,161.396 C89.142,160.258 92,149.918 92,146.938 C92,145.857 92.397,144.191 92.882,143.236 C94.086,140.865 96,132.5 96,129.608 C96,128.308 96.675,126.685 97.5,126 C98.325,125.315 99,124.091 99,123.279 C99,120.677 102.119,115.128 103.837,114.673 Z M107.571,127.885 C105.969,130.477 102.741,142.203 101.927,148.385 C101.429,152.172 100.583,155.797 100.048,156.442 C99.513,157.087 98.385,160.265 97.541,163.504 C96.697,166.743 95.556,169.844 95.004,170.396 C94.452,170.948 94,172.491 94,173.825 C94,176.03 94.295,176.19 97.25,175.59 C106.471,173.717 116.08,172.566 120.918,172.755 C123.898,172.871 126.879,172.515 127.543,171.964 C129.019,170.739 128.459,162.773 126.597,158.5 C125.878,156.85 124.723,153.7 124.031,151.5 C122.637,147.067 118.223,137.655 114.653,131.5 C112.399,127.615 108.856,125.806 107.571,127.885 Z M115.218,51.76 C117.154,50.797 118.036,50.287 118.952,50.218 C119.99,50.139 121.072,50.626 123.784,51.662 C127.518,53.088 128.055,53.646 127.566,55.592 C127.253,56.84 127.386,58.905 127.862,60.181 C128.466,61.8 128.177,63.782 126.904,66.75 C124.585,72.159 121.638,72.41 116.571,67.632 C113.618,64.847 113,63.562 113,60.214 C113,57.986 112.761,55.54 112.468,54.778 C112.137,53.915 113.174,52.778 115.218,51.76 Z M81.235,54.78 C83.581,52.734 86.032,51.046 86.682,51.03 C87.332,51.013 88.865,52.406 90.088,54.124 C92.032,56.854 92.167,57.65 91.156,60.445 C90.52,62.203 90,64.634 90,65.846 C90,67.291 89.117,68.385 87.435,69.025 C81.007,71.469 77.009,69.009 76.985,62.595 C76.971,59.015 77.505,58.033 81.235,54.78 Z"/>
</svg>

