<svg xmlns="http://www.w3.org/2000/svg" width="300" height="300" viewBox="0 0 300 300" version="1.1">
  <defs/>
  <path d="M111.073,61.635 C112.789,59.452 113.957,59 117.873,59 C120.473,59 123.14,59.54 123.8,60.2 C125.374,61.774 125.311,74.039 123.718,76 C120.519,79.939 119.223,80.295 116.121,78.086 C113.19,75.999 109,68.782 109,65.819 C109,64.967 109.933,63.084 111.073,61.635 Z M77.75,65.165 C82.868,62.393 85.472,62.513 87.927,65.635 C90.217,68.545 90.535,71.132 88.965,74.066 C88.136,75.614 86.845,76 82.49,76 C77.479,76 76.931,75.768 75.526,73.05 C73.26,68.668 73.616,67.404 77.75,65.165 Z"/>
</svg>

