<svg xmlns="http://www.w3.org/2000/svg" width="300" height="300" viewBox="0 0 300 300" version="1.1">
  <defs/>
  <path d="M116.314,84.25 C118.311,81.145 123.097,85.181 123.136,90.003 C123.169,94.086 119.847,111.592 116.494,125 C115.601,128.575 114.25,134.45 113.494,138.055 C112.737,141.66 111.234,147.06 110.152,150.055 C109.071,153.05 107.892,157.3 107.533,159.5 C106.768,164.18 105.313,169.183 103.38,173.784 C102.621,175.59 102,178.826 102,180.975 C102,183.124 101.55,185.16 101,185.5 C100.45,185.84 100,187.141 100,188.392 C100,189.643 99.67,190.997 99.266,191.401 C98.528,192.139 96.184,202.141 96.064,205.064 C96.011,206.355 97.007,206.555 101.782,206.209 C106.29,205.883 108.88,206.328 113.532,208.226 C121.485,211.47 130.011,213.74 146.5,217.003 C154.726,218.631 156.238,218.658 164.084,217.321 C175.356,215.399 179.37,216.29 179.814,220.814 C180.049,223.208 179.671,224.151 178.314,224.558 C177.316,224.857 175.154,225.796 173.508,226.643 C171.863,227.491 167.138,228.543 163.008,228.982 C158.879,229.42 154.758,230.084 153.851,230.458 C152.944,230.831 151.905,230.656 151.542,230.068 C151.179,229.481 149.769,229 148.409,229 C147.049,229 144.263,228.275 142.218,227.388 C138.09,225.598 126,223.003 121.78,223.001 C120.285,223.001 117.458,222.1 115.5,221 C112.739,219.45 110.086,219 103.692,219 C94.573,219 92.046,220.077 89.469,225.061 C88.469,226.993 87.177,228 85.697,228 C82.771,228 79,225.333 79,223.264 C79,221.36 80.681,215.75 82.526,211.5 C87.378,200.321 100,155.518 100,149.474 C100,148.165 100.506,145.835 101.125,144.297 C101.743,142.759 102.605,140.6 103.039,139.5 C105.376,133.585 110.907,107.437 111.923,97.5 C112.558,91.287 113.376,88.82 116.314,84.25 Z"/>
</svg>

