<svg xmlns="http://www.w3.org/2000/svg" width="300" height="300" viewBox="0 0 300 300" version="1.1">
  <defs/>
  <path d="M150.624,73.25 C154.296,68.713 157.937,65 158.716,65 C164.529,65 165.848,71.651 161.257,77.817 C157.753,82.523 149.778,92.617 146.497,96.5 C145.103,98.15 141.687,102.65 138.905,106.5 C136.124,110.35 132.757,114.077 131.424,114.782 C130.091,115.487 129,116.473 129,116.972 C129,117.472 126.824,120.72 124.165,124.19 C120.364,129.15 118.217,131.933 117.181,135.081 C115.827,139.2 116.376,143.943 117.62,155 C118.468,162.539 118.346,190.33 117.411,202.5 C116.989,208 116.681,218.837 116.728,226.583 L116.812,240.666 L113.57,241.838 C110.916,242.798 109.755,242.725 107.164,241.432 C103.786,239.747 103.431,238.628 104.981,234.551 C105.997,231.879 107.111,210.579 107.731,182 C108.092,165.329 106.571,146.628 104.653,144.164 C104.081,143.43 103.583,138.93 103.547,134.164 C103.492,127.008 103.091,124.87 101.24,121.882 C100.008,119.892 98.974,117.642 98.942,116.882 C98.911,116.122 97.775,113.925 96.418,112 C95.061,110.075 93.017,107.038 91.877,105.25 C90.736,103.463 89.374,102 88.85,102 C88.326,102 87.269,100.537 86.499,98.75 C85.73,96.963 82.148,92.008 78.538,87.74 C70.872,78.674 67.934,72.637 70.124,70.448 C72.676,67.896 76.579,70.145 83.232,78 C90.801,86.937 97,95.384 97,96.762 C97,97.308 97.703,98.338 98.562,99.051 C100.569,100.717 106.311,109.412 108.593,114.24 C111.6,120.601 114.895,120.232 119.528,113.015 C120.769,111.082 122.639,108.6 123.684,107.5 C124.728,106.4 127.586,102.8 130.036,99.5 C132.485,96.2 134.727,93.275 135.019,93 C135.311,92.725 137.439,90.025 139.749,87 C142.059,83.975 146.953,77.787 150.624,73.25 Z M119.368,15.948 C128.255,10.432 131.199,9.085 133.965,9.269 C136.999,9.471 137.51,9.901 138.085,12.736 C138.882,16.665 137.915,17.991 132,21.084 C129.525,22.378 126.825,23.95 126,24.578 C125.175,25.206 121.905,27.122 118.733,28.835 C115.561,30.549 111.294,33.087 109.251,34.476 C107.207,35.864 104.931,37 104.191,37 C103.451,37 100.333,38.8 97.26,41 C94.188,43.2 90.678,45 89.46,45 C88.242,45 86.685,45.675 86,46.5 C85.315,47.325 83.244,48 81.397,48 C78.634,48 77.925,47.549 77.401,45.46 C76.584,42.204 78.872,39.605 85.5,36.261 C88.25,34.874 92.075,32.529 94,31.052 C95.925,29.574 99.915,27.125 102.868,25.611 C105.82,24.097 113.245,19.748 119.368,15.948 Z"/>
</svg>

