<svg xmlns="http://www.w3.org/2000/svg" width="300" height="300" viewBox="0 0 300 300" version="1.1">
  <defs/>
  <path d="M135.226,40.438 C140.728,37.649 142.297,37.566 144.454,39.949 C146.158,41.832 146.104,41.966 142.859,43.945 C141.011,45.071 139.162,45.994 138.75,45.996 C138.338,45.998 138,46.443 138,46.985 C138,47.527 136.609,50.23 134.909,52.993 C132.216,57.37 131.827,58.897 131.883,64.873 C131.918,68.645 132.349,72.804 132.84,74.115 C133.33,75.427 134.054,79.12 134.447,82.321 C134.84,85.523 135.8,89.671 136.581,91.539 C138.562,96.282 138.482,114.779 136.468,117.441 C135.661,118.509 134.99,120.984 134.978,122.941 C134.965,124.924 134.09,127.607 133,129 C131.924,130.375 131.034,132.497 131.022,133.716 C131.01,134.935 130.243,137.519 129.318,139.458 C127.698,142.855 127.713,143.067 129.723,145.242 C134.572,150.492 135.137,153.953 135.16,178.558 C135.174,194.474 134.781,202.992 133.891,206.058 C132.966,209.245 132.626,218.325 132.687,238.185 C132.771,265.618 132.793,265.901 135.134,269.185 C136.433,271.008 138.172,273.85 138.998,275.5 C140.252,278.005 141.82,278.923 148.5,281.061 C155.613,283.339 156.5,283.893 156.5,286.061 C156.5,288.459 156.355,288.5 147.896,288.48 C139.996,288.462 138.987,288.227 135.561,285.614 C131.094,282.207 128.009,277.446 128.004,273.95 C128.002,272.547 127.515,270.915 126.921,270.321 C126.328,269.728 125.392,264.575 124.842,258.871 C123.792,247.994 123.521,208.585 124.485,207.025 C124.989,206.209 126.432,176.64 126.146,173 C124.958,157.905 122.018,150 117.593,150 C116.358,150 114.315,148.9 113.052,147.555 C109.969,144.273 110.916,141.321 116.282,137.486 C120.911,134.179 123.382,129.932 125.748,121.218 C127.721,113.95 128.508,95.695 127.058,90.823 C125.56,85.792 123.826,74.002 123.286,65.182 C122.603,54.041 127.205,44.505 135.226,40.438 Z"/>
</svg>

