<svg xmlns="http://www.w3.org/2000/svg" width="300" height="300" viewBox="0 0 300 300" version="1.1">
  <defs/>
  <path d="M144.284,99.25 C146.987,96.304 149.378,96.402 151.437,99.544 C152.975,101.892 152.984,102.723 151.55,110.294 C150.695,114.808 149.31,122.55 148.472,127.5 C146.104,141.481 145.921,142.37 144.981,144.5 C144.495,145.6 143.419,151 142.59,156.5 C141.761,162 140.351,169.875 139.457,174 C138.564,178.125 137.817,182.175 137.798,183 C137.779,183.825 137.154,187.875 136.408,192 C135.663,196.125 134.809,203.775 134.51,209 C134.211,214.225 133.511,221.425 132.954,225 C132.397,228.575 131.681,233.3 131.363,235.5 C130.439,241.877 126.038,245.161 123.123,241.648 C121.847,240.111 122.569,222.822 124.048,219.5 C124.975,217.416 126.629,204.917 128.017,189.5 C128.898,179.711 133.131,156.237 136.852,140.5 C139.015,131.353 140,125.503 140,121.798 C140,119.637 140.447,117.033 140.993,116.012 C141.54,114.992 142.039,111.309 142.103,107.828 C142.194,102.937 142.689,100.989 144.284,99.25 Z"/>
</svg>

