<svg xmlns="http://www.w3.org/2000/svg" width="300" height="300" viewBox="0 0 300 300" version="1.1">
  <defs/>
  <path d="M162.255,77.25 C163.804,75.294 167.446,75.78 169.749,78.25 C171.429,80.053 171.776,81.494 171.496,85.5 C171.13,90.725 170.043,95.463 168.064,100.456 C167.42,102.082 167.019,104.62 167.174,106.097 C167.329,107.573 166.965,109.842 166.366,111.14 C164.243,115.74 163,120.692 162.994,124.571 C162.991,126.732 162.5,130.262 161.902,132.414 C161.304,134.567 160.703,139.517 160.565,143.414 C160.427,147.312 159.796,151.762 159.162,153.303 C157.728,156.79 158.196,195.289 159.696,197.21 C160.989,198.867 163.167,212.401 162.444,214.285 C162.142,215.074 160.854,216.275 159.583,216.956 C157.681,217.973 156.72,217.907 154.151,216.578 C152.434,215.69 150.826,213.959 150.578,212.732 C149.664,208.204 148.763,194.115 148.517,180.5 C148.274,167.072 148.176,166.487 146.132,166.18 C144.875,165.992 143.996,166.402 143.99,167.18 C143.985,167.906 142.522,170.38 140.74,172.677 C138.958,174.974 135.613,179.474 133.308,182.677 C126.171,192.59 121.293,196.635 114.752,198.063 C106.653,199.831 101.679,198.283 99.152,193.21 C94.679,184.229 93.985,167.545 97.667,157.5 C98.473,155.3 99.39,152.6 99.704,151.5 C100.018,150.4 101.338,148.068 102.638,146.317 C103.937,144.566 105,142.459 105,141.635 C105,140.155 109.115,136.738 113.964,134.191 C118.072,132.033 128.145,131.506 131.558,133.271 C134.877,134.988 137.783,137.931 139.441,141.257 C140.056,142.491 141.353,143.5 142.323,143.5 C145.515,143.5 152.223,121.829 155.015,102.5 C156.999,88.763 159.191,81.12 162.255,77.25 Z M124.211,141.538 C123.501,142.342 121.854,143 120.549,143 C117.381,143 113.678,147.563 108.799,157.477 C105.062,165.071 104.879,165.874 105.37,172.5 C106.007,181.076 106.946,186.117 108.203,187.696 C110.391,190.444 119.021,184.086 124.712,175.533 C126.188,173.315 127.891,171.05 128.496,170.5 C129.101,169.95 131.725,165.975 134.327,161.666 L139.059,153.832 L137.012,150.519 C135.886,148.698 133.882,146.497 132.558,145.63 C131.235,144.763 129.862,143.141 129.508,142.027 C128.762,139.675 126.072,139.427 124.211,141.538 Z"/>
</svg>

