<svg xmlns="http://www.w3.org/2000/svg" width="300" height="300" viewBox="0 0 300 300" version="1.1">
  <defs/>
  <path d="M149.5,78.2 C156.681,75.706 160.095,77.854 161.894,86 C164.834,99.307 162.248,119.754 156.101,131.803 C154.945,134.067 154,137.372 154,139.146 C154,140.92 153.168,143.3 152.152,144.436 C151.136,145.571 149.52,148.524 148.561,150.997 C147.603,153.47 146.297,155.817 145.659,156.21 C143.959,157.261 143.588,172.546 145.029,182.224 C145.706,186.776 146.483,192.3 146.755,194.5 C147.027,196.7 147.868,199.388 148.625,200.473 C149.381,201.557 150,203.583 150,204.974 C150,208.126 158.641,220 160.936,220 C161.855,220 164.151,218.407 166.038,216.461 C170.348,212.014 173.365,212.104 173.809,216.695 C173.988,218.54 173.371,221.031 172.348,222.591 C169.943,226.262 163.214,231 160.407,231 C156.917,231 151.116,227.134 149.346,223.63 C148.477,221.908 147.008,219.6 146.082,218.5 C142.527,214.28 138.962,203.878 136.399,190.25 C135.408,184.977 134.167,181 133.514,181 C132.884,181 131.3,182.912 129.995,185.25 C126.732,191.095 117.934,203.226 115.845,204.762 C114.901,205.456 113.087,208.135 111.814,210.715 C108.719,216.991 96.94,228.497 90.483,231.551 C84.33,234.462 82.801,234.573 80.811,232.25 C78.341,229.367 79.962,225.779 84.784,223.452 C89.633,221.112 99.4,211.933 101.707,207.549 C102.561,205.926 103.763,204.047 104.38,203.375 C108.912,198.427 122.339,180.243 125.084,175.334 C126.263,173.225 128.36,169.562 129.743,167.192 C130.315,166.213 130.765,165.452 131.118,164.648 C132.444,161.62 132.371,157.979 132.099,139.715 C131.951,129.77 132.364,122.568 133.359,117.715 C134.174,113.747 135.84,105.016 137.063,98.313 C139.152,86.866 139.506,85.917 142.893,82.684 C144.877,80.791 147.85,78.773 149.5,78.2 Z M150.396,91.75 C150.098,92.713 149.419,94.31 148.888,95.3 C147.885,97.167 146.511,102.897 145.002,111.5 C144.52,114.25 143.647,118.072 143.063,119.993 C142.478,121.915 142,125.312 142,127.543 C142,129.775 141.517,132.083 140.927,132.673 C140.337,133.263 140,135.262 140.177,137.115 C140.641,141.954 143.271,142.046 145.188,137.291 C148.321,129.52 149.282,126.396 149.737,122.5 C149.994,120.3 150.609,118.072 151.102,117.55 C151.596,117.027 152,115.784 152,114.786 C152,113.789 152.402,112.191 152.892,111.236 C154.921,107.29 156.133,96.932 154.976,93.429 C153.769,89.77 151.29,88.861 150.396,91.75 Z"/>
</svg>

