<svg xmlns="http://www.w3.org/2000/svg" width="300" height="300" viewBox="0 0 300 300" version="1.1">
  <defs/>
  <path d="M107.871,86.25 C108.702,85.563 110.152,85 111.092,85 C112.926,85 116.979,91.011 117.032,93.807 C117.049,94.738 117.724,96.374 118.532,97.441 C119.339,98.509 120,100.395 120,101.632 C120,102.87 120.45,104.16 121,104.5 C121.55,104.84 122.007,106.329 122.015,107.809 C122.023,109.289 122.719,112.482 123.563,114.904 C124.406,117.326 124.861,119.921 124.573,120.671 C124.285,121.422 124.778,123.715 125.669,125.768 C126.561,127.82 127.834,130.85 128.5,132.5 C129.166,134.15 130.677,137.525 131.858,140 C133.039,142.475 134.004,145.767 134.003,147.315 C134.001,148.863 134.944,152.463 136.097,155.315 C137.25,158.167 138.895,162.3 139.753,164.5 C142.678,172.005 146.002,178.883 147.002,179.501 C147.551,179.84 148,181.207 148,182.539 C148,183.87 148.621,186.656 149.38,188.73 C150.139,190.803 151.31,194.525 151.983,197 C152.655,199.475 153.834,202.694 154.602,204.154 C155.371,205.614 156,207.789 156,208.986 C156,211.259 160.384,225.223 162.044,228.236 C162.57,229.191 163,230.638 163,231.451 C163,233.681 166.296,235 171.869,235 C180.835,235 185.45,238.521 183.137,243.598 C182.123,245.825 181.576,245.943 172.284,245.947 C166.903,245.95 161.6,245.988 160.5,246.033 C154.622,246.274 141.372,243.922 139.116,242.237 C135.974,239.892 135.644,238.869 137.296,236.61 C138.262,235.289 140.452,234.653 145.402,234.256 L152.185,233.711 L151.648,230.606 C151.101,227.444 149.65,220.727 148.434,215.735 C148.064,214.215 147.365,212.726 146.881,212.426 C146.396,212.127 146,210.81 146,209.501 C146,208.191 144.875,204 143.5,200.189 C142.125,196.377 141.001,192.637 141.003,191.879 C141.004,191.121 140.043,188.475 138.866,186 C130.042,167.446 128.415,163.442 127.077,157 C126.677,155.075 125.821,152.517 125.175,151.316 C124.529,150.114 124,148.125 124,146.895 C124,145.665 122.55,141.697 120.777,138.079 C116.355,129.05 114.071,122.19 114.033,117.815 C113.99,112.981 112.422,109 110.56,109 C108.547,109 107,112.144 107,116.234 C107,118.085 106.573,120.027 106.052,120.55 C105.531,121.072 104.649,123.975 104.092,127 C102.891,133.534 101.397,140.809 99.987,147 C99.423,149.475 98.517,154.425 97.973,158 C97.43,161.575 96.282,167.65 95.422,171.5 C94.561,175.35 93.614,180.3 93.316,182.5 C93.019,184.7 92.428,186.95 92.003,187.5 C91.578,188.05 90.899,190.075 90.493,192 C90.088,193.925 88.911,197.17 87.878,199.21 C86.845,201.251 86,203.973 86,205.26 C86,206.547 85.528,208.072 84.951,208.649 C84.358,209.242 84.032,212.697 84.201,216.599 L84.5,223.5 L88.861,223.219 C93.822,222.9 96,224.218 96,227.541 C96,231.607 90.886,233.678 78.21,234.743 C68.583,235.552 66.163,235.445 61.779,234.016 C55.887,232.096 53.007,228.902 55,226.5 C55.909,225.405 58.319,225 63.922,225 C72.65,225 74,224.203 74,219.05 C74,217.097 74.724,211.9 75.609,207.5 C76.494,203.1 77.427,198.375 77.684,197 C77.941,195.625 78.513,193.6 78.956,192.5 C82.185,184.476 83.098,181.856 84.359,177 C85.144,173.975 86.341,168.125 87.02,164 C88.14,157.197 89.113,152.44 93.567,132 C94.346,128.425 95.401,124.375 95.912,123 C97.952,117.505 100.077,109.092 101.357,101.44 C102.659,93.653 104.714,88.862 107.871,86.25 Z"/>
</svg>

