<svg xmlns="http://www.w3.org/2000/svg" width="300" height="300" viewBox="0 0 300 300" version="1.1">
  <defs/>
  <path d="M122.835,124.25 C125.404,120.775 127.445,120.263 130.25,122.392 C132.377,124.007 132.563,129.288 130.551,130.958 C129.754,131.619 128.591,133.811 127.965,135.83 C126.143,141.708 122.682,150.333 121.287,152.473 C120.579,153.557 120,155.38 120,156.523 C120,157.665 119.584,159.027 119.076,159.55 C117.708,160.957 114.001,171.181 114.001,173.55 C114,174.678 113.464,176.136 112.809,176.791 C112.154,177.446 111.469,180.55 111.285,183.688 C111.074,187.304 110.32,190.094 109.226,191.303 C106.781,194.004 106.82,214.768 109.28,220.158 C113.458,229.312 120.172,230.054 130.15,222.466 C133.38,220.01 136.355,217.999 136.761,217.998 C137.452,217.996 142.258,210.98 144.636,206.5 C145.22,205.4 146.86,203.84 148.28,203.033 C150.618,201.706 151.06,201.744 152.932,203.438 C155.537,205.796 155.559,208.473 153,211.727 C151.9,213.126 151,214.89 151,215.648 C151,221.183 134.594,235 128.021,235 C127.044,235 125.704,235.652 125.042,236.449 C124.381,237.246 122.273,238.415 120.357,239.047 C117.455,240.005 116.58,239.93 115.109,238.598 C114.137,237.719 112.918,237 112.399,237 C110.955,237 104,231.001 104,229.756 C104,229.152 103.217,227.793 102.26,226.735 C100.006,224.244 98.145,215.316 98.064,206.6 C97.97,196.501 103.173,171.009 107.105,162.305 C108.147,159.998 109,157.424 109,156.585 C109,155.747 109.9,153.458 111,151.5 C112.1,149.542 113,147.157 113,146.202 C113,145.246 114.125,142.809 115.5,140.785 C116.875,138.762 118,136.203 118,135.1 C118,132.455 119.868,128.264 122.835,124.25 Z"/>
</svg>

