<svg xmlns="http://www.w3.org/2000/svg" width="300" height="300" viewBox="0 0 300 300" version="1.1">
  <defs/>
  <path d="M136,107.482 C140.956,105.802 165.696,106.769 168.75,108.762 C172.824,111.42 170.457,115.9 164.941,115.968 C159.074,116.041 155.46,122.881 157,130.999 C157.485,133.558 157.882,142.669 157.882,151.245 C157.882,159.82 158.324,169.461 158.863,172.668 C159.402,175.876 159.628,183.675 159.363,190 C158.328,214.797 158.96,234.037 160.983,239.309 C162.267,242.655 162.265,243.433 160.972,245.71 C158.457,250.14 156.449,250.77 153.545,248.042 C152.145,246.727 151,244.974 151,244.145 C151,242.334 143.717,230.959 140.96,228.464 C139.882,227.488 139,226.169 139,225.532 C139,224.895 137.65,223.081 136,221.5 C134.35,219.919 133,217.871 133,216.948 C133,216.025 130.075,212.414 126.5,208.924 C122.925,205.434 120,202.022 120,201.341 C120,200.661 117.859,197.493 115.243,194.302 C108.751,186.384 105,181.283 105,180.371 C105,179.952 103.917,178.46 102.592,177.055 C100.513,174.849 97.855,170.556 93.57,162.486 C91.636,158.845 87.615,153.524 85.791,152.193 C84.806,151.475 84,150.154 84,149.258 C84,148.362 83.029,146.595 81.841,145.331 C80.654,144.067 78.864,140.71 77.864,137.871 C76.865,135.032 75.414,131.987 74.642,131.104 C73.869,130.222 72.928,128.488 72.551,127.25 C72.174,126.013 71.494,125 71.041,125 C69.67,125 68.838,130.1 69.984,131.48 C70.572,132.189 71.29,138.784 71.579,146.135 C72.264,163.576 72.674,168.505 73.915,174.254 C74.479,176.869 75.169,184.576 75.448,191.381 C75.727,198.185 76.434,205.01 77.018,206.547 C77.602,208.084 78.085,211.402 78.092,213.921 C78.126,228.072 78.603,233.805 79.872,235.34 C80.905,236.588 82.926,237 88.024,237 C94.575,237 94.872,237.109 96.849,240.23 C98.676,243.116 98.734,243.637 97.394,245.117 C95.277,247.456 85.077,248.655 68,248.571 L53.5,248.5 L53.5,246.108 C53.5,243.253 57.374,240.08 62.018,239.13 C64.836,238.554 65.476,237.838 66.624,233.98 C67.357,231.516 67.704,228.691 67.395,227.702 C67.087,226.713 67.362,225.269 68.006,224.493 C68.711,223.643 68.91,221.865 68.505,220.022 C68.135,218.339 67.66,213.033 67.448,208.231 C66.907,195.921 64.087,166.192 61.973,150.5 C61.38,146.1 60.635,137.629 60.316,131.675 C59.753,121.157 59.663,120.822 57.129,119.859 C55.694,119.314 53.156,119.123 51.487,119.436 C48.148,120.063 44,117.863 44,115.466 C44,112.293 48.898,110.665 59.839,110.202 C72.254,109.677 76.686,109.434 78.189,111.414 C79.062,112.564 78.946,114.466 78.832,117.5 C78.664,121.953 79.21,123.401 83.822,130.732 C86.67,135.26 89,139.342 89,139.802 C89,140.263 90.575,142.48 92.5,144.729 C94.425,146.978 96,149.225 96,149.721 C96,150.559 102.428,160.238 111.287,172.74 C113.329,175.622 115,178.234 115,178.544 C115,178.854 116.377,180.547 118.059,182.304 C119.742,184.062 123.868,189.477 127.229,194.338 C130.59,199.199 134.37,203.852 135.631,204.678 C136.891,205.503 138.227,207.151 138.6,208.339 C139.449,211.048 147.899,223 148.964,223 C150.322,223 150.613,213.518 150.252,181 C149.883,147.763 149.748,143.631 148.486,127.233 C147.487,114.257 147.013,113.543 140.207,114.781 C134.126,115.886 131.616,114.716 132.155,111.028 C132.398,109.363 133.53,108.319 136,107.482 Z"/>
</svg>

