<svg xmlns="http://www.w3.org/2000/svg" width="300" height="300" viewBox="0 0 300 300" version="1.1">
  <defs/>
  <path d="M158.5,94.877 C168.327,94.002 177.79,94.39 179.124,95.724 C181.157,97.757 179.222,101.727 175.252,103.667 C171.515,105.493 171.498,105.53 170.887,113.029 C170.55,117.171 169.951,121.58 169.555,122.827 C169.152,124.095 169.31,125.668 169.911,126.393 C170.927,127.617 171.263,135.018 170.989,150.151 C170.92,153.971 171.329,157.086 171.951,157.47 C172.546,157.837 172.719,158.646 172.335,159.267 C171.207,161.092 171.128,171.388 172.232,172.75 C172.926,173.607 172.864,174.459 172.032,175.461 C171.137,176.539 171.092,177.785 171.86,180.211 C172.432,182.02 172.916,184.625 172.935,186 C172.954,187.375 173.436,192.325 174.005,197 C174.574,201.675 175.263,210.66 175.536,216.966 C175.809,223.273 176.475,228.875 177.016,229.416 C177.557,229.957 178,231.435 178,232.7 C178,234.809 178.437,235 183.277,235 C191.672,235 195.423,239.304 191.593,244.542 C190.353,246.238 188.719,246.493 177.85,246.69 C169.11,246.848 164.93,246.534 163.508,245.615 C162.387,244.891 159.894,244.511 157.864,244.755 C153.015,245.338 150,243.627 150,240.294 C150,235.471 152.241,234.213 159.862,234.758 L166.66,235.244 L166.3,223.872 C166.102,217.617 165.714,210.925 165.437,209 C162.626,189.459 161.948,181.469 162.047,169 C162.115,160.296 161.706,153.316 161.025,151.538 C160.158,149.28 160.181,148.031 161.118,146.279 C162.519,143.662 161.309,136.916 159.323,136.267 C157.797,135.768 154,144.355 154,148.306 C154,151.321 152.544,156.922 150.916,160.174 C148.223,165.551 145,174.718 145,176.998 C145,178.535 143.948,180.639 142.5,182 C141.125,183.292 140,185.295 140,186.452 C140,187.609 139.408,189.443 138.685,190.527 C137.961,191.612 136.797,194.484 136.097,196.909 C135.397,199.335 133.938,202.518 132.854,203.983 C131.771,205.448 130.57,208.848 130.185,211.538 C129.55,215.975 129.182,216.516 126.219,217.366 C123.449,218.16 122.589,217.963 120.571,216.067 C119.262,214.837 117.887,212.213 117.517,210.237 C116.908,206.99 114.326,200.317 111.918,195.764 C111.413,194.809 111,193.098 111,191.962 C111,190.826 110.136,188.232 109.08,186.198 C108.024,184.164 105.724,179.35 103.97,175.5 C99.659,166.041 98.049,163.033 95.409,159.5 C94.176,157.85 91.55,153.35 89.574,149.5 C87.599,145.65 84.698,141.375 83.128,140 C81.559,138.625 79.695,135.7 78.986,133.5 C77.499,128.887 75.167,125 73.885,125 C72.677,125 72.805,134.002 74.134,142.5 C74.737,146.35 75.201,152.65 75.167,156.5 C75.133,160.35 75.56,165.3 76.116,167.5 C77.504,172.988 77.742,177.393 77.904,200.597 C78.04,220.014 78.12,220.762 80.272,222.727 C81.695,224.026 84.377,224.93 87.693,225.228 C90.549,225.485 94.037,226.449 95.443,227.371 C98.236,229.201 98.868,233.035 96.676,234.854 C94.395,236.747 81.788,237.189 77.113,235.54 C73.727,234.345 71.385,234.259 64.803,235.084 C55.849,236.207 54.688,235.769 53.474,230.817 C52.89,228.431 53.265,227.905 56.869,226.067 C59.097,224.93 62.053,224 63.437,224 C65.038,224 66.568,223.063 67.641,221.426 C69.87,218.023 70.233,201.908 68.461,185 C67.741,178.125 66.626,164.4 65.983,154.5 C65.341,144.6 64.545,135.825 64.215,135 C63.884,134.175 63.363,127.65 63.057,120.5 L62.5,107.5 L60,107.431 C58.625,107.394 56.712,107.008 55.75,106.574 C54.788,106.141 53.337,106.04 52.527,106.351 C50.983,106.944 48,103.567 48,101.226 C48,98.578 54.43,97.253 69.766,96.738 L85.033,96.226 L87.016,98.748 C88.107,100.135 89,101.736 89,102.306 C89,104.511 85.572,107 82.536,107 C80.802,107 78.562,107.6 77.559,108.333 C75.96,109.503 75.881,110.109 76.919,113.253 C77.57,115.226 78.787,117.408 79.624,118.103 C80.461,118.798 82.007,120.971 83.06,122.933 C84.112,124.895 86.268,128.3 87.85,130.5 C92.409,136.838 100.152,148.906 101.646,152 C102.044,152.825 103.636,155.575 105.185,158.111 C106.733,160.646 108,163.264 108,163.927 C108,164.591 109.091,166.566 110.424,168.317 C111.757,170.068 113.829,174.127 115.028,177.337 C116.227,180.547 117.834,184.372 118.598,185.837 C119.362,187.302 119.99,189.443 119.994,190.595 C119.997,191.747 120.941,193.541 122.09,194.582 C124.142,196.438 124.207,196.437 125.59,194.546 C126.366,193.485 127,191.324 127,189.742 C127,188.161 128.125,185.392 129.5,183.589 C130.875,181.786 132,179.593 132,178.715 C132,177.837 132.397,176.873 132.881,176.573 C133.366,176.274 134.981,172.985 136.471,169.264 C139.528,161.628 141.802,156.32 143.111,153.764 C143.6,152.809 144,150.698 144,149.073 C144,147.448 144.42,145.859 144.933,145.542 C145.446,145.225 146.377,142.385 147.002,139.233 C148.061,133.895 149.238,130.958 153.906,122 C156.576,116.876 159.358,107.389 158.567,106.108 C158.19,105.499 157.019,105 155.964,105 C153.527,105 150.745,100.824 151.173,97.808 C151.469,95.72 152.168,95.441 158.5,94.877 Z"/>
</svg>

