<svg xmlns="http://www.w3.org/2000/svg" width="300" height="300" viewBox="0 0 300 300" version="1.1">
  <defs/>
  <path d="M118.402,96.4 C126.131,94.874 131.706,94.716 132.5,96 C132.84,96.55 133.814,97 134.665,97 C137.876,97 143.925,103.003 145.06,107.318 C145.666,109.618 147.025,112.988 148.081,114.807 C149.136,116.626 150,119.637 150,121.498 C150,123.359 150.45,125.16 151,125.5 C151.55,125.84 152,128.09 152,130.5 C152,132.91 152.45,135.16 153,135.5 C154.343,136.33 154.311,164.551 152.964,167.068 C152.394,168.133 151.798,171.392 151.641,174.311 C151.483,177.23 151.039,180.128 150.654,180.751 C150.269,181.374 149.807,183.607 149.629,185.712 C149.45,187.817 148.84,190.431 148.273,191.52 C147.706,192.609 146.449,195.975 145.481,199 C144.513,202.025 143.333,204.928 142.86,205.45 C142.387,205.973 142,207.229 142,208.243 C142,209.844 138.622,214.89 132.299,222.731 C131.158,224.146 127.759,225.722 123,227.044 C118.875,228.189 114.057,229.569 112.294,230.112 C108.855,231.169 107.045,230.474 100.011,225.396 C94.282,221.26 93.146,219.947 92.443,216.646 C92.075,214.916 90.858,211.475 89.739,209 C88.62,206.525 87.355,201.8 86.927,198.5 C86.499,195.2 85.587,190.352 84.9,187.726 C83.444,182.157 84.687,169.677 87.267,163.966 C88.128,162.06 89.058,159.15 89.334,157.5 C89.61,155.85 90.295,152.925 90.856,151 C91.418,149.075 92.846,144.125 94.03,140 C95.214,135.875 96.595,131.825 97.099,131 C100.056,126.157 100.328,124.981 99.044,122.582 C97.976,120.586 98.043,118.903 99.446,112.6 C101.116,105.091 101.185,104.984 106.718,101.312 C110.275,98.951 114.518,97.167 118.402,96.4 Z M124,106.5 C123.255,107.398 121.068,108 118.552,108 C115.361,108 113.783,108.602 112,110.5 L109.651,113 L111.826,115.314 C114.597,118.264 114.559,119.578 111.591,123.469 C108.952,126.93 106,133.396 106,135.718 C106,136.528 105.161,138.386 104.136,139.846 C102.975,141.5 102.007,145.257 101.569,149.816 L100.866,157.133 L118.959,156.766 C135.112,156.439 137.219,156.584 138.613,158.125 C142.47,162.387 137.322,165.838 126.95,165.944 C123.898,165.975 120.875,166.525 120.232,167.168 C119.342,168.058 117.809,168.047 113.782,167.123 C110.877,166.457 105.605,165.819 102.068,165.706 L95.635,165.5 L95.361,169.5 C95.21,171.7 94.778,174.625 94.4,176 C92.639,182.418 94.723,201.091 97.794,206.414 C98.084,206.917 98.42,208.577 98.54,210.103 C98.772,213.053 101.744,217.432 105.119,219.796 C108.237,221.98 117.958,220.972 122.27,218.017 C129.816,212.847 137.697,195.899 141.254,177.194 C143.466,165.567 144.706,140.576 143.167,138.669 C142.648,138.026 141.906,135.025 141.517,132 C141.128,128.975 140.177,125.503 139.405,124.285 C138.632,123.067 138,120.985 138,119.658 C138,118.331 137.325,116.685 136.5,116 C135.675,115.315 135,113.755 135,112.533 C135,110.302 133.423,108.575 129.264,106.25 C126.373,104.634 125.515,104.675 124,106.5 Z"/>
</svg>

