<svg xmlns="http://www.w3.org/2000/svg" width="300" height="300" viewBox="0 0 300 300" version="1.1">
  <defs/>
  <path d="M86.128,77.345 C87.696,75.456 91.418,75.671 93.137,77.75 C93.933,78.713 95.619,81.658 96.885,84.296 C98.836,88.362 99.081,89.993 98.498,95.021 C98.119,98.283 96.952,102.632 95.905,104.687 C94.857,106.742 94,109.431 94,110.663 C94,113.833 85.534,119.688 83.451,117.959 C81.785,116.577 81.524,113.412 83,112.5 C83.55,112.16 84,111.045 84,110.022 C84,108.999 84.63,106.888 85.4,105.331 C89.461,97.119 89.565,91.514 85.735,87.293 C83.618,84.96 83.808,80.141 86.128,77.345 Z"/>
</svg>

