<svg xmlns="http://www.w3.org/2000/svg" width="300" height="300" viewBox="0 0 300 300" version="1.1">
  <defs/>
  <path d="M63.554,144.718 C65.648,144.175 72.08,144.462 92.5,146.008 C103.24,146.821 117.296,147.044 141.5,146.787 C156.234,146.63 179.081,147.374 181.5,148.088 C185.886,149.385 205.971,149.906 209.128,148.806 C211.127,148.109 212.639,148.279 214.917,149.457 C220.92,152.562 217.161,157.782 209.959,156.342 C208.014,155.953 205.479,156.382 202.926,157.534 C199.884,158.905 198.656,159.056 197.767,158.167 C196.337,156.737 191.349,156.626 190.496,158.006 C190.13,158.599 187.541,158.785 184.187,158.46 C181.059,158.157 161.175,157.496 140,156.992 C118.825,156.488 97,155.582 91.5,154.978 C86,154.375 80.375,153.891 79,153.904 C77.625,153.916 74.142,153.462 71.261,152.895 C67.468,152.148 65.122,152.183 62.761,153.022 C59.304,154.251 54,153.049 54,151.037 C54,149.873 60.661,145.468 63.554,144.718 Z"/>
</svg>

