<svg xmlns="http://www.w3.org/2000/svg" width="300" height="300" viewBox="0 0 300 300" version="1.1">
  <defs/>
  <path d="M140.964,81.75 C143.575,78.458 145.063,78.307 147.57,81.077 C147.821,81.354 148.038,81.543 148.228,81.757 C149.609,83.309 149.552,86.139 150.338,133 C150.971,170.759 151.931,186.698 153.66,188.133 C154.728,189.019 157.675,186.452 167.731,175.877 C174.726,168.52 183.049,159.832 186.225,156.571 C189.401,153.31 192,150.309 192,149.903 C192,149.496 194.053,146.764 196.563,143.832 C199.073,140.899 201.824,137.037 202.677,135.25 C204.362,131.719 206.959,131.041 209.067,133.58 C210.138,134.871 210.144,135.741 209.101,138.33 C208.399,140.074 207.446,143.028 206.984,144.896 C206.523,146.764 205.756,148.564 205.28,148.896 C204.804,149.228 200.902,153.897 196.608,159.27 C192.314,164.644 187.76,169.594 186.489,170.27 C185.217,170.947 182.225,174.008 179.839,177.074 C167.665,192.714 153.18,208 150.533,208 C146.154,208 144.581,205.637 143.769,197.843 C142.93,189.794 141.195,144.902 140.626,116.5 C140.427,106.6 139.931,95.35 139.523,91.5 C138.855,85.184 138.995,84.231 140.964,81.75 Z M82.667,79.667 C84.53,77.804 88.706,79.532 90.439,82.882 C91.592,85.111 91.592,87.769 90.439,100.01 C89.688,107.98 88.825,115.506 88.521,116.736 C88.218,117.966 87.734,121.515 87.446,124.624 C87.158,127.732 86.544,131.001 86.081,131.888 C85.617,132.774 84.713,136.875 84.071,141 C82.386,151.831 79.842,160.29 74.07,174.25 C73.558,175.488 72.62,178.3 71.985,180.5 C71.35,182.7 69.744,186.875 68.415,189.777 C67.087,192.68 66,195.916 66,196.968 C66,198.021 65.549,199.161 64.997,199.502 C64.446,199.842 63.101,202.082 62.01,204.479 C60.487,207.821 59.21,209.106 56.532,209.99 C54.611,210.623 52.58,210.859 52.02,210.512 C50.418,209.522 50.819,206.345 52.996,202.774 C54.094,200.973 54.994,198.724 54.996,197.776 C54.998,196.828 56.612,192.778 58.582,188.776 C64.064,177.641 64.816,175.851 66.05,171 C66.68,168.525 67.571,166.041 68.029,165.48 C69.262,163.972 72.608,152.629 74.513,143.5 C75.432,139.1 76.809,132.907 77.574,129.737 C78.339,126.567 79.201,120.374 79.489,115.973 C79.777,111.573 80.45,104.941 80.986,101.236 C81.522,97.531 81.969,91.313 81.98,87.417 C81.991,83.521 82.3,80.033 82.667,79.667 Z"/>
</svg>

