<svg xmlns="http://www.w3.org/2000/svg" width="300" height="300" viewBox="0 0 300 300" version="1.1">
  <defs/>
  <path d="M99.667,90.667 C100.851,89.482 102.649,89.954 104.424,91.916 C105.949,93.601 106.093,95.44 105.619,107.166 C105.322,114.5 104.949,122.3 104.79,124.5 L104.5,128.5 L116.557,128.133 C126.425,127.833 130.418,128.178 138.557,130.031 C144.025,131.276 150.128,133.107 152.118,134.1 C158.727,137.399 166.695,145.666 170.398,153.069 C173.389,159.048 173.818,160.791 173.515,165.75 C173.322,168.913 172.853,172.741 172.472,174.257 C171.673,177.438 174.111,182 176.611,182 C179.808,182 191.165,189.355 199.942,197.111 C204.924,201.512 209,205.518 209,206.013 C209,206.508 210.794,208.845 212.988,211.207 C215.181,213.568 216.981,216.4 216.987,217.5 C216.994,218.6 218.592,220.85 220.537,222.5 C224.94,226.234 226.469,232.399 223.246,233.422 C220.931,234.157 216,232.519 216,231.015 C216,229.265 200.408,210.773 194.798,205.87 C182.945,195.511 175.433,189.989 173.533,190.24 C172.452,190.383 171.04,191.625 170.396,193 C163.567,207.581 160.338,213.547 158.124,215.678 C155.072,218.615 148.385,221.949 145.5,221.972 C140.757,222.011 135.319,219.589 131.75,215.847 C128.655,212.602 128,211.194 128,207.779 C128,203.696 129.09,199.357 131.586,193.5 C132.876,190.474 139.86,184.584 145.621,181.664 C147.337,180.794 151.721,179.777 155.362,179.404 C159.256,179.005 162.488,178.117 163.209,177.249 C163.982,176.317 164.408,172.582 164.364,167.136 C164.308,160.362 163.851,157.722 162.244,154.892 C159.214,149.559 153.162,144.025 147.5,141.408 C140.667,138.251 126.528,136.573 114.414,137.481 C105.768,138.129 104.452,138.488 102.332,140.776 C101.023,142.189 99.703,144.504 99.398,145.922 C99.094,147.34 98.472,149.4 98.018,150.5 C97.563,151.6 95.735,157.133 93.954,162.795 C92.174,168.457 89.881,174.153 88.859,175.452 C85.588,179.61 86.466,182.099 93.911,189.769 C99.139,195.154 102.672,197.766 108.411,200.49 C116.32,204.243 117.72,206.259 113.691,208.095 C111.822,208.946 110.46,208.657 106.542,206.573 C103.88,205.158 100.654,204 99.372,204 C97.828,204 94.423,201.465 89.271,196.479 C80.706,188.191 80.628,188.177 74.445,193.815 C69.59,198.242 64.222,202 62.754,202 C61.995,202 60.086,203.344 58.512,204.988 C53.163,210.571 44.942,209.879 41.009,203.514 C37.922,198.519 38.418,184.165 42.011,174.5 C45.55,164.981 50.678,156.445 55.977,151.252 L61.846,145.5 L60.319,140 C56.976,127.962 55.253,117.413 54.883,106.716 C54.575,97.8 55.097,96 57.988,96 C62.107,96 63,98.512 63,110.104 C63,117.584 63.476,122.204 64.5,124.654 C65.325,126.629 66,129.095 66,130.136 C66,131.176 66.52,133.034 67.155,134.264 C67.791,135.494 68.642,137.175 69.046,138 C69.533,138.993 71.006,139.425 73.4,139.279 C78.163,138.988 93.807,132.229 95.037,129.931 C95.567,128.941 96,126.148 96,123.725 C96,121.301 96.67,117.109 97.489,114.409 C98.333,111.627 98.983,105.565 98.989,100.417 C98.995,95.421 99.3,91.033 99.667,90.667 Z M60.779,157.482 C59.457,158.909 57.787,161.746 57.07,163.788 C56.353,165.83 54.771,168.625 53.556,170 C48.502,175.716 44.892,197.005 48.472,199.977 C49.658,200.961 50.677,200.752 53.722,198.901 C62.337,193.661 74.98,182.038 74.994,179.342 C74.997,178.706 73.925,176.006 72.611,173.342 C71.297,170.679 69.348,165.575 68.281,162 C66.074,154.611 64.385,153.594 60.779,157.482 Z M149.933,189.971 C142.953,193.577 137.548,200.004 136.64,205.779 C136.056,209.491 136.294,210.385 138.438,212.529 C139.797,213.888 141.852,215 143.004,215 C148.465,215 154.418,209.261 157.526,201 C158.457,198.525 159.846,195.079 160.613,193.341 C163.613,186.543 159.241,185.164 149.933,189.971 Z M86.5,143.095 C84.85,143.597 81.25,145.256 78.5,146.78 C72.709,149.99 72.644,150.394 76.297,160.5 C78.191,165.739 79.344,167.579 80.879,167.815 C82.429,168.053 83.08,167.442 83.548,165.315 C83.889,163.767 84.757,161.15 85.478,159.5 C86.199,157.85 87.231,155.375 87.77,154 C88.31,152.625 89.257,150.241 89.875,148.703 C91.16,145.509 91.361,141.957 90.25,142.09 C89.838,142.14 88.15,142.592 86.5,143.095 Z"/>
</svg>

