<svg xmlns="http://www.w3.org/2000/svg" width="300" height="300" viewBox="0 0 300 300" version="1.1">
  <defs/>
  <path d="M114.667,76.667 C115.033,76.3 116.328,76 117.544,76 C121.688,76 122.23,78.041 121.853,92.227 L121.5,105.5 L128.5,105.343 C141.026,105.063 151.6,103.088 160.056,99.452 C172.71,94.009 180.464,94.152 179.81,99.817 C179.549,102.076 178.789,102.68 175,103.642 C172.525,104.27 169.188,105.482 167.585,106.334 C165.89,107.235 163.506,107.651 161.888,107.328 C158.956,106.741 152.657,109.847 151.695,112.353 C151.163,113.74 145.291,113.792 139.25,112.464 C136.393,111.836 136,112.003 136,113.837 C136,115.793 135.605,115.888 129.75,115.346 C124.455,114.856 123.244,115.053 121.827,116.634 C119.364,119.383 117.031,126.854 117.015,132.05 C117.007,134.553 116.596,137.028 116.102,137.55 C115.609,138.073 114.994,140.3 114.737,142.5 C114.321,146.064 113.739,148.061 110.951,155.5 C108.937,160.874 108.114,163.847 107.583,167.663 C107.265,169.952 106.73,172.539 106.395,173.413 C105.353,176.127 108.853,175.248 113.332,171.67 C121.82,164.889 130.845,162.551 146,163.209 C154.35,163.572 156.213,164.008 161.391,166.811 C164.631,168.565 167.809,170 168.454,170 C172.528,170 180,183.555 180,190.947 C180,204.426 166.551,225.422 152.458,233.944 C144.836,238.553 137.632,240.928 131.151,240.967 C126.419,240.996 125.463,240.637 122.856,237.846 C118.902,233.613 120.262,232.468 127.356,234.055 C132.894,235.295 132.959,235.282 140.513,231.4 C148.996,227.041 156.605,220.11 163.476,210.482 C170.772,200.257 173.362,192.746 171.147,188.236 C170.678,187.281 169.524,184.89 168.582,182.922 C166.503,178.577 158.804,173.734 151.21,171.994 C143.88,170.314 131.534,172.105 123.409,176.028 C120.059,177.645 113.46,182.351 108.745,186.484 C100.138,194.029 97.919,195.016 94.835,192.67 C93.036,191.302 93.309,189.033 96.717,177 C97.574,173.975 98.663,170.037 99.137,168.25 C99.612,166.463 100.45,163.506 101,161.679 C101.55,159.852 101.998,157.49 101.995,156.429 C101.99,154.627 104.225,147.042 106.098,142.5 C109.263,134.827 111.641,119.465 110.046,117.002 C109.192,115.685 108.68,115.713 105.788,117.241 C103.98,118.195 98,119.486 92.5,120.108 C87,120.73 81.942,121.687 81.261,122.233 C80.579,122.78 78.466,122.935 76.564,122.578 C74.356,122.164 71.777,122.484 69.431,123.465 C64.151,125.671 59.982,125.38 56.5,122.563 C53.706,120.303 53.613,120.021 55.15,118.454 C56.147,117.438 60.822,116.035 66.948,114.915 C72.529,113.894 77.444,112.843 77.871,112.58 C79.781,111.4 94.3,108.863 102.34,108.306 C107.295,107.962 111.356,107.21 111.58,106.596 C111.8,105.993 112.115,101.807 112.28,97.293 C112.445,92.78 112.899,88.767 113.29,88.377 C113.68,87.986 114,85.342 114,82.5 C114,79.658 114.3,77.033 114.667,76.667 Z"/>
</svg>

