<svg xmlns="http://www.w3.org/2000/svg" width="300" height="300" viewBox="0 0 300 300" version="1.1">
  <defs/>
  <path d="M76.245,65.155 C76.93,64.47 78.825,64.043 80.456,64.205 C84.311,64.589 84.774,66.378 84.9,81.378 L85,93.256 L88.75,92.661 C90.813,92.334 96.637,91.6 101.694,91.03 C106.75,90.46 111.925,89.601 113.194,89.121 C114.462,88.641 117.975,87.917 121,87.512 C124.025,87.107 126.95,86.433 127.5,86.014 C128.05,85.595 130.601,84.948 133.168,84.577 C135.736,84.206 138.378,83.249 139.041,82.451 C139.703,81.653 141.465,81 142.956,81 C144.447,81 145.956,80.71 146.31,80.356 C147.645,79.021 158.599,75.009 160.921,75.005 C164.058,74.999 167,77.698 167,80.582 C167,83.658 163.313,86.339 154.705,89.524 C150.742,90.99 145.575,93.047 143.223,94.095 C140.871,95.143 137.946,96 136.723,96.001 C135.5,96.001 131.125,96.766 127,97.701 C122.875,98.635 117.7,99.448 115.5,99.507 C113.3,99.567 110.6,100.104 109.5,100.702 C108.4,101.3 103.45,102.088 98.5,102.454 C83.879,103.533 84.543,103.203 82.124,110.573 C80.956,114.131 80,117.729 80,118.568 C80,119.407 78.2,123.374 76,127.382 C73.8,131.391 72,135.181 72,135.806 C72,137.791 67.149,147.631 65.494,149.005 C64.618,149.732 63.05,152.166 62.011,154.414 C59.918,158.939 53.615,164.472 50.795,164.26 C48.271,164.069 45.705,161.29 46.639,159.758 C47.061,159.066 48.412,157.702 49.641,156.726 C50.87,155.75 53.086,152.479 54.565,149.457 C56.044,146.434 57.625,143.732 58.079,143.451 C59.446,142.606 64.68,131.074 68.041,121.5 C73.812,105.058 74.867,98.859 74.94,80.95 C74.982,70.744 75.372,66.028 76.245,65.155 Z M127.139,102.74 C128.322,100.531 132.905,100.703 134.039,103 C135.768,106.501 136.796,108.498 137.372,110.617 C138.256,113.866 138.081,117.403 137.749,127.086 C137.397,137.353 136.657,144.336 135.532,148 C134.604,151.025 133.469,155.075 133.011,157 C131.209,164.572 127.743,176.591 126.879,178.262 C126.378,179.231 126.233,181.08 126.557,182.37 C126.881,183.66 126.46,186.356 125.623,188.359 C124.069,192.078 122.355,199.556 121.007,208.5 C120.592,211.25 118.819,218.225 117.067,224 C115.315,229.775 113.637,235.625 113.337,237 C113.037,238.375 111.939,241.33 110.896,243.566 C109.853,245.802 109,248.078 109,248.625 C109,249.171 107.425,252.233 105.5,255.43 C103.575,258.627 102,262.076 102,263.095 C102,264.136 100.707,265.618 99.05,266.474 C91.157,270.556 85.576,265.333 91.5,259.409 C92.875,258.034 94,256.015 94,254.923 C94,253.831 94.707,252.666 95.572,252.334 C98.107,251.361 104.207,235.963 107.006,223.472 C107.608,220.788 108.713,217.221 109.462,215.546 C111.041,212.016 112.628,204.842 113.566,197 C113.928,193.975 114.552,191.05 114.953,190.5 C115.353,189.95 116.218,186.125 116.873,182 C118.184,173.754 119.91,167.106 121.184,165.393 C121.636,164.785 122.424,162.31 122.933,159.893 C123.442,157.477 124.514,152.575 125.314,149 C127.578,138.886 128.194,127.499 127.124,115.55 C126.476,108.309 126.481,103.969 127.139,102.74 Z"/>
</svg>

