<svg xmlns="http://www.w3.org/2000/svg" width="300" height="300" viewBox="0 0 300 300" version="1.1">
  <defs/>
  <path d="M173,88.242 C177.125,87.708 180.635,87.21 180.8,87.136 C180.964,87.061 182.467,87.707 184.138,88.571 C187.035,90.069 187.157,90.385 186.745,95.321 C186.21,101.75 184.456,106.229 180.257,111.894 C178.466,114.31 177,116.715 177,117.238 C177,117.76 174.975,120.851 172.5,124.105 C170.025,127.36 168,130.198 168,130.412 C168,130.627 165.3,133.519 162,136.84 C158.7,140.16 156,143.282 156,143.778 C156,144.273 154.186,146.358 151.968,148.409 C149.75,150.461 146.73,154.021 145.257,156.32 C143.784,158.619 140.648,162.618 138.289,165.207 C135.93,167.796 134,170.745 134,171.761 C134,174.116 139.33,179.121 144.5,181.619 C152.572,185.52 162.751,193.853 164.922,198.339 C166.065,200.7 167,203.403 167,204.347 C167,207.208 164.087,207.447 161.19,204.823 C156.656,200.717 151.208,197 149.722,197 C148.945,197 147.476,196.078 146.456,194.952 C145.437,193.825 141.88,191.282 138.551,189.301 C135.223,187.32 131.15,184.451 129.5,182.925 C127.85,181.399 125.15,180.004 123.5,179.825 C120.775,179.53 120.529,179.204 120.812,176.268 C121.101,173.271 120.665,172.75 114.812,169.1 C106.751,164.073 104.389,161.695 103.616,157.829 C102.834,153.918 104.354,152 108.237,152 C110.4,152 112.928,153.454 117.364,157.25 C120.739,160.137 123.994,163.131 124.598,163.903 C126.132,165.862 127.194,164.944 132.297,157.245 C134.756,153.535 139.858,146.941 143.634,142.592 C150.462,134.726 160,122.432 160,121.495 C160,121.225 161.575,118.812 163.5,116.133 C165.425,113.453 167,110.947 167,110.564 C167,110.18 168.125,108.392 169.5,106.589 C170.875,104.786 172,102.454 172,101.406 C172.001,99.594 171.147,99.514 154.75,99.778 C114.098,100.434 103.57,101.219 91,104.528 C87.425,105.47 82.348,106.368 79.718,106.524 C77.088,106.681 74.388,107.249 73.718,107.787 C73.048,108.326 70.025,109.291 67,109.931 C61.636,111.068 61.443,111.031 59.203,108.438 C57.94,106.976 57.073,105.267 57.277,104.64 C58.17,101.89 65.975,99 76.498,97.523 C82.467,96.685 88.382,95.325 89.641,94.5 C90.9,93.675 92.999,93 94.306,93 C95.612,93 100.916,92.124 106.091,91.053 C114.006,89.415 119.47,89.114 140.5,89.159 C154.25,89.188 168.875,88.775 173,88.242 Z"/>
</svg>

