<svg xmlns="http://www.w3.org/2000/svg" width="300" height="300" viewBox="0 0 300 300" version="1.1">
  <defs/>
  <path d="M69.221,109.25 C70.913,107.184 74.721,107.83 76.857,110.546 C79.07,113.359 78.926,118.092 76.463,123.5 C73.464,130.082 68.895,182.964 70.875,188.172 C71.375,189.487 71.603,193.024 71.382,196.032 C70.811,203.779 72.8,215.699 75.367,219.919 C76.565,221.888 78.183,224.755 78.963,226.29 C79.742,227.824 81.985,230.817 83.946,232.942 C88.348,237.71 95.315,239.303 100.415,236.707 C102.112,235.844 104.431,234.877 105.569,234.559 C106.708,234.24 108.634,232.634 109.849,230.99 C111.065,229.345 112.721,228 113.53,228 C114.338,228 115,227.659 115,227.243 C115,226.827 117.05,224.014 119.556,220.993 C124.372,215.185 132,200.71 132,197.377 C132,196.29 132.54,194.86 133.2,194.2 C134.527,192.873 138.627,192.572 139.33,193.75 C140.735,196.105 135.848,216 133.864,216 C133.389,216 133,216.603 133,217.339 C133,218.075 131.866,220.213 130.479,222.089 C129.093,223.965 125.923,228.288 123.435,231.696 C120.948,235.103 117.245,238.887 115.206,240.105 C113.168,241.322 110.375,243.315 109,244.532 C106.966,246.333 104.845,246.855 97.623,247.333 C88.918,247.909 88.655,247.86 84.123,244.817 C78.841,241.271 72,235.013 72,233.727 C72,233.25 70.62,230.854 68.933,228.402 C67.245,225.95 65.599,222.269 65.274,220.222 C64.949,218.175 64.13,215.6 63.454,214.5 C62.252,212.544 61.173,204.515 60.499,192.5 C60.184,186.904 61.365,162.837 62.511,151.5 C62.789,148.75 63.212,144.475 63.451,142 C64.721,128.879 67.894,110.87 69.221,109.25 Z M131.202,94.257 C131.775,93.566 132.887,93 133.672,93 C135.785,93 141,95.894 141,97.067 C141,98.683 146.872,110.803 147.989,111.493 C148.545,111.837 149,113.126 149,114.359 C149,115.592 149.465,117.065 150.033,117.633 C151.895,119.495 149.982,122 146.698,122 C142.711,122 138,117.639 138,113.948 C138,112.475 137.066,110.082 135.924,108.63 C132.841,104.711 129.915,95.807 131.202,94.257 Z M150.75,88.08 C151.713,87.519 153.182,87.047 154.016,87.03 C155.674,86.997 162,96.823 162,99.431 C162,100.321 163.017,101.436 164.261,101.909 C166.223,102.655 166.52,103.477 166.511,108.134 C166.5,113.486 166.491,113.501 163.156,113.82 C159.428,114.178 156,111.822 156,108.904 C156,107.922 155.55,106.84 155,106.5 C154.45,106.16 154,104.81 154,103.5 C154,102.19 153.543,100.836 152.985,100.491 C151.665,99.675 149,93.279 149,90.928 C149,89.922 149.787,88.641 150.75,88.08 Z"/>
</svg>

