<svg xmlns="http://www.w3.org/2000/svg" width="300" height="300" viewBox="0 0 300 300" version="1.1">
  <defs/>
  <path d="M149.667,85.667 C151.204,84.129 153.842,85.23 157.052,88.75 C161.292,93.399 164,97.591 164,99.507 C164,100.309 165.868,104.01 168.15,107.732 C174.46,118.023 176,120.925 176,122.53 C176,123.339 176.787,124.795 177.75,125.767 C178.713,126.738 180.228,128.651 181.119,130.017 C182.009,131.382 185.631,135.65 189.168,139.5 C192.705,143.35 196.612,148.252 197.85,150.394 C199.992,154.096 200.026,154.478 198.551,158.164 C197.698,160.296 197,163.603 197,165.512 C197,167.9 196.376,169.373 195,170.232 C193.9,170.919 193,172.282 193,173.26 C193,174.239 191.875,176.822 190.5,179 C189.125,181.178 188,183.432 188,184.009 C188,185.345 176.097,211.243 172.837,217 C172.37,217.825 171.832,218.95 171.643,219.5 C171.454,220.05 170.497,222.75 169.518,225.5 C168.539,228.25 167.684,231.475 167.619,232.667 C167.553,233.859 167.162,235.171 166.75,235.584 C166.338,235.996 166,237.435 166,238.782 C166,241.247 159.768,248 157.493,248 C155.876,248 152,242.425 152,240.1 C152,239.01 152.45,237.84 153,237.5 C153.55,237.16 153.993,236.121 153.984,235.191 C153.976,234.261 155.17,231.025 156.639,228 C158.107,224.975 159.643,221.6 160.052,220.5 C161.895,215.545 164.135,211.035 165.027,210.483 C165.562,210.153 166,208.81 166,207.5 C166,206.19 166.45,204.84 167,204.5 C167.55,204.16 168,202.614 168,201.063 C168,199.513 168.675,197.685 169.5,197 C170.325,196.315 171,195.13 171,194.367 C171,193.603 171.932,190.846 173.072,188.239 C174.211,185.633 175.734,182.15 176.456,180.5 C177.178,178.85 179.395,174.04 181.384,169.812 C187.186,157.476 186.096,150.881 176.75,141.771 C175.238,140.297 174,138.595 174,137.988 C174,137.382 172.073,134.099 169.718,130.693 C165.755,124.961 155,104.384 155,102.533 C155,102.086 153.65,99.527 152,96.846 C149.196,92.289 148.134,87.199 149.667,85.667 Z M103.035,85.934 C104.673,82.874 108.533,83.521 111.449,87.344 C112.852,89.184 114,91.139 114,91.689 C114,92.24 114.9,93.505 116,94.5 C117.1,95.495 118,96.83 118,97.466 C118,98.102 119.013,99.68 120.25,100.973 C121.487,102.266 123.85,105.696 125.5,108.596 C130.639,117.628 139.18,130.904 140.622,132.101 C141.38,132.73 142,133.824 142,134.531 C142,135.881 155.403,149.647 161.047,154.094 C163.928,156.364 164.319,157.224 164.172,160.976 C164.073,163.514 162.992,166.945 161.525,169.382 C160.162,171.647 158.094,175.461 156.929,177.857 C155.125,181.57 151.23,188.402 146.303,196.5 C145.634,197.6 144.623,199.525 144.057,200.779 C143.491,202.032 141.886,204.282 140.49,205.779 C137.094,209.42 130,221.425 130,223.53 C130,224.455 128.988,226.486 127.75,228.043 C126.513,229.601 124.691,232.028 123.703,233.438 C121.505,236.573 118.392,236.717 115.314,233.826 C112.374,231.064 112.374,227.918 115.314,224.327 C116.586,222.772 118.365,219.901 119.267,217.947 C120.169,215.993 121.802,213.584 122.897,212.594 C123.991,211.603 125.167,209.514 125.511,207.952 C125.854,206.39 127.675,203.174 129.557,200.806 C131.44,198.438 132.985,195.97 132.99,195.321 C132.996,194.673 133.563,193.548 134.25,192.821 C137.231,189.67 140.777,184.01 143.848,177.5 C145.665,173.65 147.561,169.825 148.063,169 C150.05,165.731 151.201,164.14 151.164,162.576 C151.118,160.624 149.22,158.715 144.783,153.638 C134.284,141.623 129.935,135.951 128.328,132.178 C127.549,130.35 125.357,126.642 123.456,123.938 C121.555,121.233 120,118.367 120,117.569 C120,116.771 119.557,115.844 119.015,115.509 C118.473,115.175 116.234,111.825 114.039,108.066 C111.843,104.308 109.362,100.969 108.524,100.647 C107.686,100.326 107,99.227 107,98.206 C107,97.184 105.875,95.292 104.5,94 C101.821,91.484 101.376,89.034 103.035,85.934 Z"/>
</svg>

