<svg xmlns="http://www.w3.org/2000/svg" width="300" height="300" viewBox="0 0 300 300" version="1.1">
  <defs/>
  <path d="M92.2,67.2 C92.86,66.54 94.57,66 96,66 C100.914,66 102.42,69.903 99.328,74.622 C98.409,76.025 97.323,79.047 96.915,81.336 C96.507,83.626 95.856,86.513 95.469,87.752 C94.769,89.993 94.813,90.003 105.633,89.971 C111.61,89.953 118.975,90.138 122,90.38 C125.025,90.623 134.236,91.091 142.469,91.419 C157.261,92.01 157.465,92.049 159.683,94.758 C161.987,97.572 162.701,101.449 161.098,102.44 C160.003,103.116 156,115.999 156,118.846 C156,119.966 155.55,121.16 155,121.5 C154.45,121.84 153.998,123.104 153.996,124.309 C153.994,125.514 153.146,127.887 152.112,129.583 C151.078,131.279 149.895,134.2 149.484,136.073 C149.072,137.947 147.726,140.835 146.492,142.49 C145.258,144.146 143.955,147.142 143.598,149.15 C143.24,151.157 142.284,153.349 141.474,154.022 C140.663,154.695 140.003,155.977 140.008,156.872 C140.012,157.768 137.566,163.45 134.572,169.5 C131.578,175.55 127.534,183.955 125.585,188.178 C123.636,192.401 121.633,196.109 121.134,196.417 C120.635,196.726 119.929,198.564 119.566,200.502 C118.695,205.144 113.721,216.157 111.761,217.783 C110.911,218.489 109.638,220.514 108.933,222.283 C108.228,224.052 106.717,226.85 105.575,228.5 C104.434,230.15 102.508,233.638 101.296,236.25 C100.084,238.863 98.642,241 98.092,241 C97.542,241 95.509,243.072 93.575,245.606 C87.643,253.374 75.651,266.05 72.8,267.565 C64.786,271.823 58.977,265.468 66.75,260.947 C72.028,257.876 87.592,239.558 93.261,229.743 C95.88,225.209 98.842,220.375 99.843,219 C101.438,216.81 109.713,200.025 111.921,194.5 C112.361,193.4 114.359,189.215 116.36,185.201 C118.362,181.187 120,177.024 120,175.951 C120,174.878 120.441,174 120.981,174 C121.52,174 122.253,172.762 122.609,171.25 C122.965,169.738 124.719,165.575 126.507,162 C128.295,158.425 130.317,153.925 130.999,152 C131.681,150.075 133.27,146.25 134.529,143.5 C137.513,136.984 139.703,131.197 142.629,122.097 C143.938,118.026 145.484,114.121 146.065,113.421 C146.647,112.721 146.982,110.232 146.811,107.89 C146.536,104.125 146.153,103.534 143.5,102.779 C141.85,102.31 134.425,101.674 127,101.367 C119.575,101.059 112.938,100.346 112.251,99.782 C111.395,99.079 110.137,99.099 108.251,99.844 C106.489,100.54 103.248,100.649 99.235,100.147 C92.348,99.286 92.014,99.39 91.968,102.417 C91.951,103.562 91.276,105.374 90.468,106.441 C89.661,107.509 89,109.206 89,110.213 C89,111.219 87.921,113.721 86.601,115.771 C85.282,117.822 83.624,121.167 82.917,123.205 C82.209,125.243 80.139,128.587 78.315,130.637 C76.492,132.686 75,135.155 75,136.123 C75,137.09 74.532,138.171 73.959,138.525 C72.517,139.417 68,146.701 68,148.136 C68,149.966 63.055,156 61.556,156 C60.818,156 59.955,156.675 59.638,157.5 C58.948,159.3 55.87,159.47 54.2,157.8 C52.539,156.139 52.752,148.912 54.532,146.559 C55.339,145.491 56,143.804 56,142.809 C56,141.667 56.737,141 58,141 C59.1,141 60,140.433 60,139.741 C60,139.048 60.884,137.929 61.964,137.254 C63.044,136.58 65.076,133.659 66.479,130.764 C67.881,127.869 70.145,124.15 71.509,122.5 C72.874,120.85 73.994,119.05 73.999,118.5 C74.004,117.95 75.355,115.475 77,113 C78.645,110.525 79.993,107.797 79.996,106.938 C79.998,106.079 80.9,103.513 82,101.236 C83.1,98.959 84,95.976 84,94.606 C84,93.236 85.575,87.307 87.5,81.43 C89.425,75.554 91,70.218 91,69.573 C91,68.928 91.54,67.86 92.2,67.2 Z"/>
</svg>

