<svg xmlns="http://www.w3.org/2000/svg" width="300" height="300" viewBox="0 0 300 300" version="1.1">
  <defs/>
  <path d="M66.115,75.581 C68.484,72.57 71.861,72.257 74.955,74.763 C76.965,76.39 77.16,77.589 77.496,90.393 C77.699,98.126 78.319,104.719 78.898,105.298 C79.615,106.015 81.18,105.963 83.962,105.13 C88.336,103.819 90.218,104.373 93.425,107.917 C94.938,109.588 95.115,110.479 94.288,112.26 C91.011,119.324 90.918,119.498 84.066,131.415 C80.914,136.897 80.648,138.033 80.45,146.915 C80.333,152.187 79.912,157.284 79.514,158.242 C79.032,159.405 79.329,160.189 80.408,160.603 C81.494,161.02 84.189,159.3 88.622,155.362 C97.125,147.808 101.821,144.544 106.329,143.056 C108.327,142.397 113.359,139.64 117.512,136.929 C121.664,134.218 125.472,132 125.974,132 C126.475,132 128.573,131.004 130.635,129.788 C138.463,125.169 158.184,128.919 161.23,135.606 C161.83,136.922 162.696,138 163.155,138 C163.958,138 166.551,143.217 168.871,149.5 C171.671,157.083 174.52,170.682 173.899,173.5 C173.534,175.15 173.183,178.322 173.118,180.55 C173.053,182.777 172.554,185.046 172.01,185.59 C171.465,186.135 170.735,188.655 170.387,191.191 C169.81,195.405 169.999,196.002 172.598,198.15 C174.161,199.443 178.495,203.425 182.228,207 C185.962,210.575 190.267,214.18 191.796,215.01 C193.325,215.841 195.833,217.51 197.37,218.719 C198.907,219.928 200.984,221.178 201.986,221.496 C203.96,222.122 207.439,228.481 206.573,229.882 C204.437,233.338 191.448,230.859 188.554,226.443 C187.672,225.095 185.119,222.838 182.881,221.425 C180.644,220.013 177.393,217.233 175.657,215.248 C167.914,206.396 164.733,204.944 163.535,209.715 C161.903,216.218 158.326,221.764 151.161,228.9 C146.943,233.101 141.825,237.33 139.788,238.296 C137.751,239.263 135.814,240.491 135.483,241.027 C133.536,244.178 122.389,238.503 119.34,232.807 C118.367,230.988 117.011,226.87 116.329,223.656 C114.1,213.166 117.114,204.964 125.567,198.516 C127.455,197.076 129,195.292 129,194.55 C129,193.809 130.868,192.229 133.15,191.039 C136.766,189.154 138.696,188.906 148.147,189.108 C154.113,189.235 159.292,189.041 159.657,188.676 C160.023,188.311 160.76,183.847 161.295,178.756 C162.066,171.438 161.954,167.93 160.765,162 C158.74,151.91 156.015,144.963 153.029,142.278 C150.176,139.713 143.677,138.472 138.257,139.458 C127.932,141.337 107.171,153.43 97.949,162.938 C95.445,165.519 91.283,169.085 88.699,170.863 C86.114,172.641 84,174.567 84,175.144 C84,175.72 82.987,177.605 81.75,179.333 C79.874,181.953 79.332,184.602 78.492,195.253 C77.938,202.281 77.794,208.812 78.172,209.766 C78.55,210.72 78.891,216.312 78.93,222.193 C78.99,231.336 78.696,233.401 76.901,236.443 C74.446,240.604 72.224,240.932 69.089,237.594 C67.373,235.768 67.058,234.745 67.779,233.344 C68.302,232.33 68.804,224.075 68.895,215 C68.986,205.925 69.322,197.037 69.641,195.25 C70.146,192.426 69.946,192 68.111,192 C66.787,192 66,192.637 66,193.708 C66,194.647 61.725,199.56 56.5,204.626 C51.275,209.692 47,214.248 47,214.75 C47,215.251 45.882,216.26 44.517,216.991 C43.151,217.722 41.766,219.163 41.438,220.194 C40.674,222.603 37.033,226 35.216,226 C34.442,226 32.502,225.069 30.904,223.932 C27.277,221.349 27.164,218.285 30.5,213 C31.875,210.822 33,207.906 33,206.52 C33,205.134 33.45,204 34,204 C34.55,204 35,203.074 35,201.942 C35,200.204 45.625,178.557 47.979,175.5 C48.773,174.468 55.601,161.931 59.688,154 C60.963,151.525 62.428,148.825 62.942,148 C66.471,142.343 69,134.633 69,129.531 C69,122.491 67.954,122.009 59.751,125.275 C56.313,126.644 51.475,128.097 49,128.504 C46.525,128.911 43.306,130.089 41.846,131.122 C37.397,134.27 34.863,133.288 33.509,127.893 C32.628,124.382 36.802,120.914 44.613,118.665 C47.851,117.733 52.585,116.302 55.134,115.485 C57.683,114.668 60.642,114 61.71,114 C62.778,114 64.6,112.987 65.759,111.75 C67.804,109.567 67.836,109.082 66.842,95.5 C66.278,87.8 65.427,80.749 64.951,79.831 C64.352,78.677 64.711,77.366 66.115,75.581 Z M136.243,204.258 C130.482,209.999 126.079,215.839 125.364,218.685 C124.795,220.952 126.308,226.155 128.29,228.75 C130.076,231.088 134.482,230.157 137.747,226.75 C139.46,224.963 142.409,222.27 144.3,220.766 C146.191,219.262 148.995,215.437 150.531,212.266 C152.067,209.095 153.755,205.633 154.281,204.573 C155.709,201.696 152.651,199.998 146.059,200.008 C140.861,200.016 140.224,200.292 136.243,204.258 Z M65.526,164.95 C64.687,166.573 63.999,168.486 63.998,169.2 C63.996,169.915 62.624,172.075 60.948,174 C58.323,177.015 54,184.758 54,186.445 C54,188.237 56.839,186.148 63.25,179.64 C70.194,172.59 70.51,172.062 70.741,167.14 C70.954,162.615 70.748,162 69.017,162 C67.852,162 66.43,163.201 65.526,164.95 Z"/>
</svg>

