<svg xmlns="http://www.w3.org/2000/svg" width="300" height="300" viewBox="0 0 300 300" version="1.1">
  <defs/>
  <path d="M121.2,77.2 C122.809,75.591 123.313,75.662 127.391,78.068 C130.924,80.153 136.937,88.213 139.456,94.24 C140.205,96.033 141.862,98.827 143.139,100.45 C146.739,105.027 146.189,112.758 141.599,122.075 C139.619,126.093 138,130.116 138,131.016 C138,131.915 139.115,133.699 140.478,134.98 C144.239,138.513 150.694,149.768 152.82,156.5 C153.863,159.8 155.702,167 156.909,172.5 C158.115,178 159.575,183.85 160.153,185.5 C160.732,187.15 161.43,193.225 161.705,199 C162.141,208.163 161.928,210.2 160.03,215 C155.807,225.683 148.629,230.279 136,230.386 C130.195,230.435 127.483,229.95 124,228.24 C116.868,224.737 112.315,216 117.623,216 C118.549,216 122.217,217.627 125.773,219.616 C133.572,223.977 137.592,223.853 144.285,219.047 C150.866,214.321 152.007,211.079 151.964,197.216 C151.932,186.435 151.011,180.007 148.204,170.947 C147.616,169.051 146.56,165.475 145.857,163 C143.624,155.139 136.262,142.272 132.269,139.25 C131.361,138.563 129.655,138 128.478,138 C123.599,138 123.173,130.093 127.875,126.8 C131.093,124.546 137.349,111.984 137.127,108.221 C136.937,105.003 134.159,99.037 131.399,95.921 C130.629,95.053 130,94.015 130,93.615 C130,93.215 127.75,90.107 125,86.708 C119.706,80.166 119.286,79.114 121.2,77.2 Z M65.416,155.359 C66.129,153.501 70.017,153.944 71.048,156 C72.484,158.866 75.026,172.528 75.013,177.316 C75.006,179.964 75.551,183.114 76.225,184.316 C76.898,185.517 77.751,189.65 78.12,193.5 C79.274,205.533 80.136,208.709 83.285,212.529 C86.308,216.197 86.366,216.217 92.08,215.57 C95.244,215.213 98.079,215.319 98.381,215.807 C99.437,217.516 93.307,222.149 89.274,222.69 C85.022,223.26 81.472,221.826 76.875,217.679 C71.823,213.121 70.67,210.25 69.839,200.145 C69.402,194.84 68.602,187.35 68.061,183.5 C65.986,168.746 64.863,156.799 65.416,155.359 Z M189.907,146.613 C193.58,142.186 202.74,148.031 210.887,160 C224.727,180.334 225.774,193.938 214.172,202.723 C209.018,206.626 205.212,206.919 202.141,203.65 C199.661,201.01 200.411,199.774 205.184,198.635 C208.041,197.954 210.818,194.586 212.968,189.198 C214.811,184.579 212.573,177.028 206.781,168.32 C205.251,166.021 204,163.887 204,163.577 C204,162.757 199.884,158.006 197.077,155.588 C190.561,149.974 188.988,148.681 189.169,147.719 C189.235,147.371 189.531,147.065 189.907,146.613 Z"/>
</svg>

