<svg xmlns="http://www.w3.org/2000/svg" width="300" height="300" viewBox="0 0 300 300" version="1.1">
  <defs/>
  <path d="M90.917,134.41 C92.246,133.084 94.046,132.003 94.917,132.006 C98.183,132.017 103.698,134.063 107.041,136.504 C111.525,139.778 123.873,151.921 131.5,160.558 C134.8,164.295 139.637,169.679 142.25,172.523 C144.863,175.366 147,178.138 147,178.683 C147,180.016 158.72,191.004 168.671,199 C181.168,209.041 188.715,222.142 184.455,226.402 C181.024,229.833 177.74,228.171 174.569,221.399 C172.281,216.511 163.607,207.258 148.886,194 C139.629,185.662 134.401,180.143 132.785,177 C132.078,175.625 130.488,173.68 129.25,172.677 C128.012,171.675 127,170.287 127,169.593 C127,168.899 122.388,163.93 116.75,158.55 C101.526,144.021 101.501,144 99.237,144 C96.064,144 83.589,152.471 77.042,159.071 C67.903,168.285 60.283,174 57.139,174 C53.388,174 52.841,171.359 56,168.5 C57.1,167.505 58,166.158 58,165.509 C58,164.859 63.513,159.421 70.25,153.424 C82.363,142.642 86.211,139.102 90.917,134.41 Z M166.244,90.523 C167.532,89.61 169.358,89.188 170.5,89.538 C171.6,89.876 173.661,90.455 175.08,90.826 C178.578,91.74 183.779,96.288 185,99.501 C185.55,100.947 186,104.488 186,107.369 C186,112.026 185.618,112.978 182.561,115.941 C179.394,119.011 178.744,119.231 174.331,118.734 C170.786,118.334 169.146,117.59 168.02,115.871 C167.184,114.593 165.262,112.127 163.75,110.392 C161.593,107.917 161,106.229 161,102.568 C161,97.29 162.921,92.878 166.244,90.523 Z M170.011,100.487 C167.54,103.465 171.895,110.419 175.021,108.487 C176.557,107.537 176.166,102.309 174.429,100.571 C172.472,98.615 171.579,98.598 170.011,100.487 Z"/>
</svg>

