<svg xmlns="http://www.w3.org/2000/svg" width="300" height="300" viewBox="0 0 300 300" version="1.1">
  <defs/>
  <path d="M152.515,84.976 C152.847,84.439 154.655,84 156.533,84 C159.261,84 160.24,84.563 161.394,86.795 C162.698,89.317 162.601,90.512 160.393,99.045 C157.207,111.356 150.978,130.09 149.435,132 C148.768,132.825 147.896,135.075 147.496,137 C147.096,138.925 146.43,140.95 146.015,141.5 C145.6,142.05 144.684,144.3 143.979,146.5 C143.273,148.7 141.675,151.85 140.426,153.5 C139.177,155.15 137.855,157.704 137.488,159.176 C137.121,160.648 135.961,162.631 134.91,163.581 C133.86,164.532 133,165.851 133,166.511 C133,167.172 131.425,169.775 129.5,172.296 C127.575,174.817 125.992,177.245 125.982,177.69 C125.958,178.763 120.912,186.494 116.969,191.5 C115.235,193.7 112.295,197.75 110.434,200.5 C103.215,211.171 101.261,213.698 95.746,219.5 C92.61,222.8 90.034,225.793 90.022,226.15 C89.987,227.19 83.267,233.631 78.752,236.951 C74.784,239.869 70.986,240.699 67.582,239.393 C65.684,238.665 65.459,236 67.296,236 C68.812,236 82.675,222.227 86.719,216.701 C88.249,214.612 91.451,210.562 93.834,207.701 C96.218,204.841 102.24,196.425 107.217,189 C112.193,181.575 117.021,174.6 117.945,173.5 C118.87,172.4 120.886,169.025 122.424,166 C123.963,162.975 127.872,155.391 131.111,149.146 C134.35,142.902 137,136.963 137,135.949 C137,134.935 138.125,131.99 139.5,129.404 C140.875,126.818 142,124.014 142,123.172 C142,121.394 143.386,116.982 146.663,108.329 C147.948,104.936 149,101.025 149,99.638 C149,98.252 149.386,96.88 149.857,96.588 C150.329,96.297 150.984,93.785 151.313,91.005 C151.642,88.226 152.183,85.513 152.515,84.976 Z M68.058,104.43 C70.307,101.72 73.534,102.89 79.28,108.5 C82.378,111.525 85.283,114 85.734,114 C86.854,114 97,125.611 97,126.893 C97,127.457 98.161,128.996 99.581,130.312 C101.45,132.046 102.07,133.501 101.831,135.594 C101.371,139.614 98.508,139.865 94.644,136.225 C92.915,134.596 90.748,132.867 89.829,132.382 C88.91,131.897 84.882,127.9 80.877,123.5 C76.655,118.861 72.315,115.08 70.548,114.5 C67.952,113.648 67.453,112.934 67.185,109.68 C67.012,107.579 67.405,105.217 68.058,104.43 Z"/>
</svg>

