<svg xmlns="http://www.w3.org/2000/svg" width="300" height="300" viewBox="0 0 300 300" version="1.1">
  <defs/>
  <path d="M121.567,88.25 C122.7,85.62 123.538,85 125.958,85 C128.258,85 129.301,85.681 130.474,87.95 C131.313,89.573 131.993,91.711 131.985,92.7 C131.965,95.084 129.877,100.982 127.97,104.045 C127.129,105.395 125.6,108.3 124.573,110.5 C123.546,112.7 122.379,115.19 121.98,116.033 C121.581,116.876 120.936,119.013 120.548,120.783 L119.841,124 L124.671,124.115 C127.327,124.178 132.301,124.138 135.725,124.025 C139.924,123.887 144.088,124.532 148.515,126.005 C155.61,128.366 154.771,127.349 160.636,140.693 C162.243,144.348 162.288,158.369 160.703,161.468 C159.771,163.289 158.68,169.71 157.358,181.14 C156.946,184.709 156.034,186.544 153.411,189.086 C151.099,191.327 150,193.312 150,195.246 C150,199.45 147.541,203.483 143.537,205.846 C141.591,206.994 140,208.553 140,209.311 C140,213.242 131.118,215.924 126.271,213.457 C121.555,211.057 118.114,207.627 117.4,204.616 C116.728,201.783 116.777,201.744 120.108,202.413 C126.159,203.629 128.341,204.069 130.084,203.387 C131.067,203.002 131.911,202.261 133.233,201.1 C135.166,199.403 137.725,195.874 138.92,193.257 C140.115,190.641 142.339,186.768 143.862,184.651 C145.467,182.421 147.142,178.215 147.845,174.651 C148.512,171.268 149.564,166.256 150.182,163.513 C151.733,156.632 151.427,144.261 149.598,139.885 C148.246,136.652 147.579,136.191 143.293,135.522 C137.854,134.673 133.5,134.552 127,135.068 C124.525,135.264 121.327,135.072 119.894,134.64 C116.62,133.654 114,135.984 114,139.88 C114,141.386 113.339,143.491 112.532,144.559 C111.724,145.626 111.049,147.648 111.032,149.05 C111.014,150.453 110.615,152.028 110.145,152.55 C109.674,153.073 108.532,155.975 107.606,159 C106.68,162.025 105.553,165.4 105.1,166.5 C103.2,171.117 102,175.834 102,178.681 C102,180.353 100.923,183.308 99.607,185.247 C98.291,187.187 96.891,190.737 96.496,193.137 C96.101,195.537 94.732,199.75 93.454,202.5 C92.176,205.25 90.209,209.859 89.083,212.741 C87.957,215.624 85.79,219.86 84.268,222.155 C82.746,224.45 80.6,227.765 79.5,229.521 C74.406,237.656 73.401,238.527 70.347,237.457 C66.508,236.112 66.165,232.784 69.423,228.512 C70.84,226.654 72,224.583 72,223.911 C72,223.239 73.012,221.29 74.25,219.581 C75.487,217.872 77.801,213.78 79.391,210.487 C80.981,207.194 82.686,203.69 83.18,202.701 C84.66,199.737 88.714,187.931 90.556,181.223 C91.503,177.77 92.666,174.706 93.139,174.414 C93.613,174.121 94,172.835 94,171.555 C94,170.276 94.672,167.94 95.494,166.364 C96.315,164.789 96.997,162.825 97.009,162 C97.035,160.14 99.385,153.282 100.315,152.352 C100.692,151.975 101,150.629 101,149.362 C101,148.094 102.089,144.594 103.42,141.585 C106.697,134.175 105.689,133.412 95.907,135.901 C91.833,136.937 83.844,138.082 78.152,138.445 C72.461,138.808 66.943,139.643 65.89,140.301 C64.363,141.254 63.423,141.186 61.245,139.964 C59.743,139.121 58.37,137.683 58.194,136.768 C57.806,134.753 65.749,128.69 67.763,129.463 C68.519,129.753 74.844,129.08 81.818,127.968 C109.428,123.566 107.865,123.977 109.507,120.685 C110.328,119.039 111,116.888 111,115.905 C111,114.922 111.45,113.84 112,113.5 C112.55,113.16 113,111.643 113,110.129 C113,108.615 113.841,105.604 114.868,103.438 C115.896,101.272 117.509,97.7 118.452,95.5 C119.395,93.3 120.797,90.037 121.567,88.25 Z M185.511,90.983 C185.845,90.442 187.213,90 188.55,90 C190.451,90 191.65,91.183 194.036,95.41 C195.716,98.386 197.744,101.072 198.545,101.379 C199.345,101.686 200,102.539 200,103.274 C200,104.009 202.155,106.675 204.788,109.199 C211.792,115.911 216.542,126.475 213.64,128.884 C211.655,130.531 204.304,126.265 203.07,122.75 C202.539,121.237 201.444,120 200.637,120 C199.343,120 192,111.185 192,109.631 C192,109.3 190.704,106.886 189.12,104.265 C186.206,99.445 184.396,92.786 185.511,90.983 Z"/>
</svg>

