<svg xmlns="http://www.w3.org/2000/svg" width="300" height="300" viewBox="0 0 300 300" version="1.1">
  <defs/>
  <path d="M123.189,116.949 C130.432,114.482 132.346,114.578 135.923,117.589 C139.189,120.337 139.821,123.01 137.719,125.179 C135.539,127.427 132.246,133.606 131.558,136.736 C130.577,141.202 122.253,154.022 115.75,161.083 C112.579,164.526 112.475,165.874 114.469,177.75 C116.209,188.108 116.653,203.009 115.596,215.5 C114.338,230.356 114.043,234.134 113.484,242.5 C113.19,246.9 112.526,251.4 112.01,252.5 C111.493,253.6 110.942,255.85 110.785,257.5 C110.543,260.045 110.032,260.546 107.415,260.801 C103.46,261.187 101.399,258.992 102.966,256.064 C103.573,254.929 104.306,249.388 104.594,243.75 C104.882,238.113 105.559,232.15 106.098,230.5 C107.169,227.22 107.438,187.592 106.416,183.521 C105.465,179.731 103.009,180.472 98,186.06 C95.525,188.822 90.759,194.1 87.409,197.79 C84.058,201.481 79.65,207.053 77.612,210.173 C73.388,216.642 67.873,220.237 64.238,218.892 C60.848,217.638 61.499,214.512 66.25,209.228 C68.588,206.627 70.756,204.275 71.068,204 C71.38,203.725 73.41,201.25 75.577,198.5 C80.004,192.884 82.228,190.311 88.128,183.984 C90.376,181.574 92.941,178.454 93.828,177.051 C94.715,175.648 96.804,172.767 98.469,170.649 C100.135,168.531 101.948,164.941 102.499,162.672 C103.146,160.004 104.308,158.145 105.785,157.413 C107.789,156.42 114,148.013 114,146.294 C114,145.944 114.635,144.947 115.41,144.079 C117.259,142.008 123,131.483 123,130.163 C123,128.284 118.973,127.788 116.558,129.37 C114.037,131.022 101.959,133.599 90.264,134.981 C86.285,135.451 81.56,136.286 79.764,136.836 C77.969,137.387 74.143,138.032 71.261,138.271 C64.523,138.828 61.761,137.117 62.194,132.654 L62.5,129.5 L70,128.869 C74.125,128.522 79.3,127.748 81.5,127.149 C83.7,126.551 89.775,125.337 95,124.452 C100.225,123.567 105.985,122.171 107.801,121.35 C109.617,120.529 112.627,119.61 114.49,119.308 C116.354,119.005 120.268,117.944 123.189,116.949 Z M118.011,163.487 C119.852,161.269 121.855,161.666 125.655,165.002 C127.535,166.653 131.291,169.127 134,170.5 C136.709,171.873 140.405,174.279 142.213,175.846 C147.2,180.169 155.166,185.544 160.877,188.438 C165.955,191.011 167.006,192.863 165.099,195.874 C164.377,197.014 163.078,196.875 157.447,195.056 C153.716,193.851 148.746,191.545 146.402,189.933 C144.058,188.32 141.769,187 141.317,187 C140.864,187 139.219,185.65 137.662,184 C136.105,182.35 134.294,181 133.637,181 C132.981,181 131.726,180.213 130.848,179.25 C129.969,178.287 126.721,175.787 123.63,173.693 C117.745,169.708 115.792,166.16 118.011,163.487 Z M109.529,50.614 C111.626,48.517 113.56,49.434 120.176,55.659 C123.297,58.597 126.292,61 126.831,61 C127.369,61 128.931,62.913 130.301,65.251 C131.672,67.589 133.791,70.402 135.011,71.501 C139.512,75.557 139.539,82 135.055,82 C133.179,82 117,66.881 117,65.127 C117,64.616 115.425,63.268 113.5,62.133 C110.999,60.657 110,59.361 110,57.593 C110,56.232 109.55,54.84 109,54.5 C107.588,53.627 107.757,52.386 109.529,50.614 Z"/>
</svg>

