<svg xmlns="http://www.w3.org/2000/svg" width="300" height="300" viewBox="0 0 300 300" version="1.1">
  <defs/>
  <path d="M105.483,117.75 C110.078,112.173 111.561,111 114.022,111 C117.093,111 121,113.982 121,116.326 C121,117.055 122.125,118.708 123.5,120 C124.875,121.292 126,123.144 126,124.115 C126,125.087 126.45,126.16 127,126.5 C127.55,126.84 128.002,127.879 128.005,128.809 C128.008,129.739 129.583,133.565 131.505,137.311 C133.427,141.057 135,144.714 135,145.438 C135,146.163 135.675,147.315 136.5,148 C137.325,148.685 138,150.02 138,150.967 C138,151.915 138.9,153.505 140,154.5 C141.1,155.495 142,157.054 142,157.964 C142,158.873 142.661,160.491 143.468,161.559 C144.276,162.626 144.951,164.952 144.968,166.727 C144.991,169.044 145.705,170.416 147.5,171.592 C148.875,172.493 150.002,173.966 150.004,174.865 C150.007,175.764 152.014,178.712 154.465,181.415 C159.286,186.731 164.428,196.443 163.585,198.64 C163.298,199.388 161.7,200 160.034,200 C156.448,200 150.361,194.943 147.457,189.55 C146.406,187.598 145.198,186 144.773,186 C144.348,186 143.965,185.213 143.921,184.25 C143.878,183.287 142.558,180.475 140.987,178 C137.269,172.141 133.044,163.409 131.794,159 C131.248,157.075 130.204,154.825 129.473,154 C128.742,153.175 126.763,149.715 125.074,146.31 C123.386,142.906 121.553,139.842 121.002,139.501 C120.451,139.161 120,137.695 120,136.245 C120,133.165 115.354,126 113.357,126 C112.604,126 110.977,127.167 109.743,128.594 C107.808,130.832 100.903,135.46 91.181,141.038 C89.706,141.884 86.7,143.711 84.5,145.099 C82.3,146.487 78.973,148.239 77.106,148.992 C73.933,150.273 73.59,150.212 71.856,148.07 C69.3,144.914 69.464,144.364 73.765,141.649 C75.835,140.341 78.159,138.514 78.928,137.587 C79.698,136.659 82.166,135.048 84.414,134.005 C92.327,130.334 99.98,124.429 105.483,117.75 Z"/>
</svg>

