<svg xmlns="http://www.w3.org/2000/svg" width="300" height="300" viewBox="0 0 300 300" version="1.1">
  <defs/>
  <path d="M156.75,66.08 C160.029,64.17 163.663,64.837 165.533,67.691 C167.159,70.173 167.173,70.58 165.704,72.941 C164.828,74.348 162.933,77.854 161.493,80.73 C160.052,83.607 158.465,86.213 157.965,86.521 C157.466,86.83 156.122,89.202 154.979,91.791 C153.836,94.381 151.434,98.075 149.64,100 C147.846,101.925 145.076,105.279 143.484,107.453 C139.645,112.695 128.144,123.815 125,125.325 C122.511,126.52 122.499,126.592 122.319,141.493 C122.219,149.726 122.551,156.959 123.057,157.568 C124.814,159.685 123.972,222.256 122.07,231 C120.634,237.598 121.627,242 124.552,242 C127.981,242 128.314,243.455 125.74,247.181 C121.619,253.146 117.298,257.204 115.451,256.846 C113.01,256.372 109.536,250.064 110.941,248.659 C111.524,248.076 112,243.975 112,239.543 C112,235.112 112.484,229.915 113.076,227.993 C114.479,223.438 114.427,157.856 113.016,153.007 C112.457,151.085 112,145.374 112,140.316 C112,135.257 111.55,130.84 111,130.5 C110.45,130.16 110,127.534 110,124.663 C110,119.18 108.014,115 105.41,115 C104.597,115 103.061,113.537 101.996,111.75 C100.93,109.963 95.945,105.35 90.918,101.5 C85.891,97.65 79.465,92.424 76.639,89.888 C73.812,87.351 70.487,84.747 69.25,84.102 C66.061,82.44 66.24,78.303 69.567,76.788 C72.563,75.423 74.497,76.346 82.5,82.964 C85.25,85.238 90.425,89.351 94,92.103 C102.964,99.005 113.993,109.077 114.036,110.402 C114.056,111.006 115.141,112.807 116.447,114.405 L118.822,117.309 L122.752,114.196 C126.748,111.031 135.129,101.745 140.523,94.504 C144.536,89.116 148,84.008 148,83.475 C148,83.235 149.575,80.577 151.5,77.567 C153.425,74.558 155,70.972 155,69.598 C155,68.224 155.787,66.641 156.75,66.08 Z"/>
</svg>

