<svg xmlns="http://www.w3.org/2000/svg" width="300" height="300" viewBox="0 0 300 300" version="1.1">
  <defs/>
  <path d="M108.201,120.606 C109.181,118.853 111.717,118.535 113.863,119.894 C115.65,121.026 118.926,130.597 118.967,134.807 C118.985,136.626 119.517,141.248 120.15,145.077 C121.461,153.017 121.66,153.074 129.839,147.887 C134.764,144.764 139.075,144.181 140.909,146.39 C142.829,148.704 138.666,154.32 131.872,158.58 C120.911,165.453 121.033,165.098 120.562,191.615 C120.339,204.202 119.711,215.663 119.166,217.083 C118.622,218.504 118.484,220.164 118.859,220.772 C120.063,222.72 208.28,220.819 210.741,218.792 C212.937,216.984 220.638,218.799 222.44,221.549 C223.917,223.803 223.914,224.201 222.408,226.5 C220.43,229.518 221.272,229.395 201.5,229.566 C159.834,229.926 129.415,231.322 91.5,234.614 C81.6,235.474 70.8,236.39 67.5,236.651 C64.2,236.911 60.6,237.534 59.5,238.035 C58.4,238.536 55.7,239.585 53.5,240.367 C51.3,241.148 47.998,242.398 46.163,243.144 C43.031,244.416 42.705,244.351 40.863,242.078 C38.03,238.582 38.765,234.864 42.5,233.796 C44.15,233.325 47.525,232.302 50,231.524 C58.107,228.976 76.212,226.166 91.938,225.015 C100.428,224.394 107.715,223.676 108.13,223.42 C110.142,222.176 113.645,175.661 111.935,172.895 C111.54,172.255 109.436,173.036 106.451,174.929 C103.788,176.618 100.883,178 99.995,178 C99.108,178 97.509,178.661 96.441,179.468 C93.367,181.793 90.349,181.299 88.068,178.096 C86.931,176.498 86.033,174.586 86.073,173.846 C86.208,171.363 89.745,166.496 91.13,166.887 C96.679,168.453 97.765,168.192 106.5,163.198 L111.5,160.34 L111.203,150.061 C111.04,144.408 110.095,135.829 109.104,130.997 C107.959,125.415 107.63,121.626 108.201,120.606 Z M128.991,88.19 C133.121,85.831 135.444,85.158 138.94,85.308 L143.5,85.504 L143.5,89.435 C143.5,93.541 142.861,94.134 133,99.184 C131.625,99.888 127.272,102.61 123.326,105.232 C119.381,107.854 115.769,110 115.299,110 C114.829,110 113.332,110.785 111.973,111.745 C105.863,116.056 88.761,122 82.468,122 C79.102,122 77.76,121.496 76.557,119.777 C73.879,115.955 74.579,114.189 79.25,112.983 C94.247,109.109 110.116,101.928 118.735,95.116 C121.412,92.999 126.028,89.882 128.991,88.19 Z M104.39,55.427 C104.725,54.552 106.347,54 108.584,54 C111.479,54 112.896,54.726 115.46,57.526 C121.258,63.856 125.206,76.518 122,78.5 C121.45,78.84 121,79.961 121,80.991 C121,83.05 115.553,87.46 114.11,86.568 C113.613,86.261 113.247,82.237 113.298,77.626 C113.399,68.301 112.103,65.114 107.269,62.804 C104.529,61.495 103.285,58.307 104.39,55.427 Z"/>
</svg>

