<svg xmlns="http://www.w3.org/2000/svg" width="300" height="300" viewBox="0 0 300 300" version="1.1">
  <defs/>
  <path d="M194,189.426 C195.537,188.599 196.287,188.146 196.982,188.217 C197.769,188.298 198.486,189.049 200.195,190.687 C203.818,194.158 203.718,195.782 199.639,199.744 L196.299,202.989 L188.399,201.95 C173.736,200.023 102.314,204.835 98.491,208.007 C97.891,208.505 95.398,209.204 92.95,209.56 C90.503,209.916 86.025,210.8 83,211.525 C79.975,212.249 71.787,213.402 64.803,214.088 C54.484,215.1 51.816,215.092 50.553,214.044 C48.293,212.168 48.637,210.21 51.777,207.07 C54.427,204.42 55.1,204.269 66.527,203.761 C73.112,203.469 79.821,202.707 81.435,202.069 C84.129,201.004 90.817,199.652 114,195.487 C128.588,192.866 137.658,192.148 165,191.449 C184.207,190.959 192.188,190.402 194,189.426 Z M131,95.082 C131.825,93.978 133.106,93.058 133.846,93.037 C136.469,92.965 141,96.42 141,98.493 C141,101.284 135.619,107 132.991,107 C131.823,107 129.968,107.482 128.868,108.071 C125.423,109.914 116.851,111.077 107.5,110.968 C94.14,110.814 91.926,110.147 89.314,105.49 C88.101,103.327 87.302,101.365 87.538,101.128 C87.775,100.892 95.288,100.636 104.234,100.56 C121.661,100.411 127.984,99.117 131,95.082 Z"/>
</svg>

