<svg xmlns="http://www.w3.org/2000/svg" width="300" height="300" viewBox="0 0 300 300" version="1.1">
  <defs/>
  <path d="M121.5,55.462 C131.628,52.566 134.234,52.496 136.553,55.059 C140.118,58.998 137.116,60.748 114,68.202 L106.5,70.62 L105.898,84.06 C105.566,91.452 104.933,99.928 104.491,102.897 L103.687,108.293 L106.593,107.574 C108.192,107.178 112.425,106.638 116,106.374 C121.369,105.977 123.069,106.25 125.771,107.945 C129.209,110.101 135,118.276 135,120.973 C135,121.843 135.622,123.443 136.383,124.529 C139.592,129.111 139.971,171.302 136.856,177.236 C136.355,178.19 135.548,180.89 135.063,183.236 C131.346,201.202 124.781,214.221 116.833,219.388 C114.583,220.85 113.522,220.948 110.059,220.016 C102.444,217.965 89.404,202.431 88.283,194.074 C87.867,190.973 87.349,190.036 86.279,190.446 C85.486,190.751 84.39,191 83.844,191 C83.298,191 80.297,193.412 77.176,196.359 C70.02,203.115 66.952,204.025 63.995,200.266 C60.009,195.199 62.63,190.095 72.627,183.459 C77.595,180.162 82,173.782 82,169.884 C82,169.068 82.476,167.924 83.057,167.343 C83.639,166.761 83.976,163.859 83.807,160.893 C83.514,155.75 83.364,155.484 80.559,155.165 C75.375,154.575 69.093,156.051 66.11,158.561 C62.455,161.636 61.452,161.619 59.371,158.443 C57.784,156.022 57.8,155.744 59.678,153.23 C66.282,144.384 82.32,141.1 88.764,147.274 C90.527,148.963 91.979,151.865 92.776,155.293 C93.943,160.313 93.838,161.231 91.178,169.298 C88.276,178.095 88.43,180 92.045,180 C92.95,180 94.512,180.908 95.516,182.017 C97.294,183.982 97.271,184.108 94.647,186.846 L91.954,189.658 L94.227,192.192 C95.477,193.586 99.341,197.938 102.813,201.864 C110.171,210.18 112.46,210.809 117.056,205.777 C118.675,204.005 120,201.81 120,200.9 C120,199.99 120.675,198.685 121.5,198 C122.325,197.315 123,195.904 123,194.864 C123,193.824 123.397,192.191 123.882,191.236 C124.8,189.429 126.586,182.724 128.207,175 C129.743,167.684 130.941,148.079 130.347,140 C130.043,135.875 128.875,129.897 127.751,126.716 C125.673,120.836 120.445,114 118.026,114 C115.699,114 104.576,119.687 102.588,121.893 C98.618,126.299 90.547,128.589 89.412,125.632 C89.123,124.879 89.839,121.617 91.003,118.382 C95.425,106.089 96.832,97.842 96.927,83.652 L97,72.804 L90.75,73.505 C87.313,73.891 82.043,74.835 79.04,75.603 C73.384,77.05 67.678,77.229 62.5,76.122 C60.147,75.619 59.5,74.946 59.5,73.004 C59.5,69.939 62.394,69.142 64.991,71.492 C66.453,72.815 67.264,72.929 68.917,72.045 C70.063,71.431 71,70.066 71,69.01 C71,67.567 71.931,66.939 74.75,66.48 C76.813,66.145 80.66,65.449 83.299,64.935 C85.939,64.421 89.539,64 91.299,64 C93.06,64 98.775,62.594 104,60.875 C109.225,59.156 117.1,56.721 121.5,55.462 Z M106.5,245.067 C122.45,244.689 140,244.309 145.5,244.222 C151,244.135 165.85,245.246 178.5,246.691 C191.15,248.136 205.792,249.359 211.037,249.409 C218.367,249.479 221.201,249.91 223.287,251.273 C226.663,253.479 226.813,256.887 223.665,259.845 C221.474,261.903 220.899,261.976 214.415,261.015 C210.612,260.452 205.7,259.548 203.5,259.007 C201.3,258.465 193.2,257.772 185.5,257.467 C177.8,257.161 169.925,256.514 168,256.029 C163.519,254.899 96.203,255.542 76.5,256.903 C68.25,257.473 56.824,258.896 51.11,260.066 C39.675,262.407 37.447,262.073 35.088,257.664 C34.02,255.669 33.969,254.742 34.866,253.661 C38.519,249.26 65.358,246.04 106.5,245.067 Z M174,119.526 C179.708,116.44 181.094,116.431 184.364,119.462 C186.899,121.811 186.994,122.259 186.441,129.212 C185.929,135.632 184.75,140.568 182.072,147.5 C177.164,160.202 177.165,160.291 182.291,167.819 C184.793,171.493 187.399,175.738 188.081,177.25 C188.763,178.762 189.622,180 189.991,180 C190.359,180 192.411,183.488 194.551,187.75 C196.69,192.012 199.832,197.525 201.533,200 C209.163,211.105 210.351,215.161 206.415,216.671 C205.359,217.076 203.834,216.275 202.09,214.398 C197.211,209.149 178,179.401 178,177.096 C178,176.628 177.317,175.678 176.481,174.984 C175.238,173.953 174.603,174.05 172.981,175.517 C171.892,176.503 171,177.921 171,178.669 C171,179.416 170.586,180.809 170.079,181.764 C169.572,182.719 167.025,187.872 164.418,193.216 C158.884,204.559 153.331,211 149.085,211 C145.891,211 144.462,209.69 143.508,205.888 C142.723,202.762 145.058,199.941 147.829,200.666 C150.758,201.431 155.879,192.72 164.681,172 C165.499,170.075 166.58,167.719 167.084,166.764 C169.401,162.372 166.51,156.849 157.002,147.5 C152.561,143.134 151.953,142.056 152.208,139 C152.44,136.214 152.97,135.433 154.804,135.173 C157.614,134.775 165.396,140.862 168.241,145.683 C169.317,147.507 170.759,149 171.445,149 C172.73,149 176.276,135.256 175.37,133.789 C174.589,132.527 171.547,132.875 169.441,134.468 C166.784,136.478 164.633,136.357 162.575,134.082 C158.897,130.019 162.069,125.978 174,119.526 Z M40,153 C42.137,149.007 46.066,150.431 53.098,157.75 C62.7,167.744 66,172.353 66,175.771 C66,181.602 60.593,182.78 58.118,177.488 C57.35,175.844 53.212,171.035 48.923,166.801 C39.744,157.739 38.497,155.809 40,153 Z M77.823,68.709 C75.256,69.102 72.229,71.562 73.164,72.497 C73.928,73.261 81.418,70.903 82.964,69.412 C84.554,67.879 83.864,67.785 77.823,68.709 Z"/>
</svg>

