<svg xmlns="http://www.w3.org/2000/svg" width="300" height="300" viewBox="0 0 300 300" version="1.1">
  <defs/>
  <path d="M162.5,113.456 C163.05,113.251 164.794,113.29 166.375,113.542 C167.956,113.794 170.588,114 172.224,114 C174.272,114 176.116,114.984 178.151,117.161 C180.925,120.131 181.062,120.661 180.423,125.911 C179.52,133.32 176.783,138.479 171.998,141.788 C169.841,143.279 168.059,145.102 168.038,145.837 C167.998,147.246 157.654,157.982 156.293,158.026 C155.857,158.04 153.305,160.29 150.622,163.026 C147.452,166.259 144.903,168 143.341,168 C139.874,168 139.255,165.258 142.108,162.536 C143.424,161.28 146.075,158.435 148,156.212 C149.925,153.99 155.181,148.259 159.68,143.477 C166.223,136.524 167.997,133.98 168.539,130.768 C169.442,125.427 168.235,124.755 159.086,125.505 C153.825,125.937 150.92,126.704 149.086,128.147 C146.035,130.547 140.458,133 138.052,133 C137.115,133 135.314,134.102 134.049,135.448 C132.784,136.795 130.343,138.196 128.624,138.562 C126.906,138.927 123.25,140.244 120.5,141.487 C117.75,142.729 114.825,144.033 114,144.384 C113.175,144.735 111.15,145.91 109.5,146.996 C107.85,148.082 105.575,149.383 104.444,149.887 C103.313,150.391 101.063,151.889 99.444,153.217 C95.127,156.756 89.495,160 87.667,160 C86.789,160 85.588,160.901 84.999,162.002 C84.41,163.103 82.449,164.621 80.641,165.377 C78.834,166.132 75.805,168.11 73.911,169.773 C72.017,171.437 68.633,173.291 66.392,173.894 C61.227,175.285 58.204,178.337 59.931,180.417 C61.374,182.155 59.75,186 57.573,186 C56.828,186 53.955,183.75 51.191,181 C48.426,178.25 45.712,176 45.159,176 C44.606,176 42.881,174.956 41.327,173.679 C39.772,172.402 35.35,170.105 31.5,168.573 C19.13,163.651 16,161.946 16,160.13 C16,157.513 18.044,156 21.578,156 C24.68,156 27.841,157.06 37,161.172 C46.273,165.336 48.329,166.595 51.826,170.25 C55.562,174.157 58.658,175.055 59.632,172.516 C59.946,171.699 62.519,169.675 65.351,168.018 C68.183,166.361 72.519,162.979 74.987,160.502 C77.454,158.026 79.872,156 80.359,156 C80.847,156 85.205,153.311 90.045,150.023 C94.885,146.736 102.484,142.187 106.931,139.914 C111.378,137.642 115.243,135.416 115.519,134.969 C116.501,133.381 149.6,117.347 155.5,115.602 C158.8,114.626 161.95,113.66 162.5,113.456 Z M113.667,187.667 C115.708,185.626 121,190.612 121,194.576 C121,195.547 121.727,197.145 122.615,198.127 C123.503,199.108 124.328,201.169 124.449,202.706 C124.793,207.08 126.132,211.271 128.075,214.055 C129.317,215.834 130.293,220.606 131.29,229.767 C132.54,241.257 132.535,244.229 131.255,253.212 C130.399,259.22 129,264.797 127.894,266.618 C126.852,268.333 126,270.242 126,270.859 C126,273.158 118.61,281.556 113.801,284.723 C107.573,288.825 104.382,288.869 94.961,284.984 C82.874,280 78.047,275.498 65.775,257.768 C63.572,254.585 61.783,253.03 60.309,253.018 C57.875,252.998 56.199,251.132 57.722,250.138 C58.26,249.787 59.234,248.488 59.885,247.25 C61.057,245.025 64.408,244.281 66.571,245.765 C68.247,246.915 78,259.831 78,260.9 C78,261.426 78.563,262.452 79.25,263.18 C79.938,263.907 82.24,266.667 84.367,269.313 C90.041,276.37 94.727,279 101.627,279 C106.595,279 107.807,278.579 111.458,275.588 C114.101,273.422 116.115,270.683 116.971,268.088 C117.713,265.84 118.698,264 119.16,264 C119.622,264 120,263.155 120,262.122 C120,261.089 120.721,258.518 121.602,256.409 C123.78,251.197 123.705,228.264 121.496,223.992 C120.673,222.401 120,220.163 120,219.018 C120,217.873 119.289,215.263 118.42,213.218 C114.649,204.347 111.879,189.455 113.667,187.667 Z M117.5,75 C121.93,71.48 124.752,71.231 128.331,74.045 C132.303,77.17 134.508,88.206 132.072,92.764 C128.835,98.817 126.931,104.207 127.45,105.843 C127.932,107.361 127.426,107.865 124.913,108.367 C123.187,108.713 119.612,110.582 116.969,112.522 C112.679,115.672 111.699,115.984 107.832,115.435 C99.415,114.241 96.96,113.052 96.322,109.86 C95.933,107.915 93.724,105.157 89.865,101.802 C84.878,97.464 84,96.195 84,93.325 C84,90.623 84.511,89.756 86.565,88.975 C88.317,88.309 89.824,88.357 91.315,89.126 C93.851,90.434 100,96.609 100,97.847 C100,98.311 100.9,99.505 102,100.5 C103.1,101.495 104,103.11 104,104.088 C104,105.065 104.917,106.156 106.038,106.512 C108.778,107.382 117.362,101.832 120.562,97.124 C123.119,93.36 123.979,86 121.861,86 C121.235,86 117.697,88.475 114,91.5 C110.303,94.525 106.913,97 106.467,97 C104.581,97 102,93.482 102,90.912 C102,88.934 103.422,86.674 106.935,83.067 C109.649,80.28 112.287,78 112.798,78 C113.308,78 115.424,76.65 117.5,75 Z M102.423,14.34 C102.874,13.164 103.956,12.97 107.252,13.474 C110.55,13.978 112.338,15.059 115.247,18.311 C117.308,20.615 118.996,23.261 118.997,24.191 C118.999,25.121 119.461,26.167 120.025,26.515 C120.649,26.901 120.794,29.073 120.396,32.074 C119.801,36.556 119.923,37 121.749,37 C122.852,37 124.315,36.325 125,35.5 C126.561,33.619 131.016,33.56 133.513,35.386 C135.13,36.568 135.268,37.325 134.454,40.538 C133.929,42.609 132.825,44.616 132,44.997 C124.355,48.526 113.224,54.588 110.106,56.919 C102.935,62.281 82.059,68.103 77.868,65.91 C72.761,63.237 75.66,57.593 82.631,56.637 C88.496,55.833 95.133,53.806 101.25,50.949 C104.403,49.477 111,35.428 111,30.186 C111,26.53 110.583,25.852 106.75,23.283 C102.583,20.49 101.178,17.585 102.423,14.34 Z M112.21,168.623 C117.526,165.55 119.041,165.458 121.811,168.039 C124.947,170.96 124.684,174.764 121.25,176.163 C112.107,179.888 105.596,183.844 100.989,188.476 C99.608,189.864 97.471,191 96.239,191 C93.74,191 90,187.759 90,185.594 C90,183.889 103.048,173.919 112.21,168.623 Z"/>
</svg>

