<svg xmlns="http://www.w3.org/2000/svg" width="300" height="300" viewBox="0 0 300 300" version="1.1">
  <defs/>
  <path d="M133.5,63.601 C138.371,61.758 138.642,61.738 141.066,63.035 C143.553,64.366 143.617,69.132 141.177,71.34 C140.174,72.247 137.178,73.288 134.519,73.652 C131.86,74.017 128.856,75.144 127.842,76.158 C126.829,77.171 124.728,78 123.174,78 C121.447,78 119.428,78.98 117.981,80.52 L115.613,83.041 L117.879,84.628 C119.979,86.099 120.111,86.776 119.674,93.858 C119.083,103.424 117.305,118.807 116.462,121.637 C115.507,124.845 117.446,125.353 124.309,123.692 C132.681,121.666 136.34,120.777 140.026,120.647 C142.914,120.545 145.82,120.908 151.024,121.555 C157.336,122.34 162.774,122.986 163.109,122.991 C163.444,122.996 165.747,124.786 168.226,126.968 C172.746,130.947 176.746,137.962 178.792,145.5 C180.938,153.409 180.107,169.758 176.987,180.987 C176.45,182.919 176.009,185.856 176.006,187.514 C176.003,189.172 175.1,192.991 174,196 C172.9,199.009 172,202.284 172,203.276 C172,204.269 171.135,206.3 170.078,207.79 C169.021,209.281 167.614,213.86 166.951,217.967 C166.289,222.074 165.353,226.236 164.873,227.217 C164.393,228.198 163.55,229.894 163,230.986 C162.45,232.079 161.998,233.991 161.996,235.236 C161.994,236.481 160.737,242.45 159.202,248.5 C156.325,259.843 151.92,269 149.339,269 C146.059,269 138.087,262.857 138.028,260.285 C138.013,259.616 136.65,257.532 135,255.653 C133.35,253.774 132,252.003 132,251.718 C132,251.434 130.425,248.861 128.5,246 C126.575,243.139 125,240.383 125,239.875 C125,239.367 123.425,236.662 121.5,233.864 C117.451,227.977 117.214,226.491 120.078,224.958 C122.544,223.638 125,224.354 125,226.392 C125,227.192 126.041,229.119 127.314,230.673 C128.586,232.228 131.12,236.2 132.944,239.5 C134.768,242.8 138.002,247.402 140.13,249.728 C142.259,252.053 144,254.415 144,254.978 C144,256.941 147.05,255.981 147.899,253.75 C149.21,250.305 152.861,237.416 155.051,228.5 C156.133,224.1 157.44,218.925 157.956,217 C158.472,215.075 159.664,210.35 160.605,206.5 C161.546,202.65 162.695,199.072 163.158,198.55 C163.621,198.027 164.007,196.452 164.015,195.05 C164.023,193.647 164.69,190.604 165.497,188.286 C167.143,183.562 170,162.2 170,154.618 C170,151.9 169.247,147.286 168.326,144.365 C165.946,136.816 161.729,133.674 152,132.202 C143.223,130.873 129.707,131.206 125.685,132.85 C124.137,133.482 122.112,134.02 121.185,134.043 C118.312,134.117 111.515,138.577 111.209,140.589 C110.919,142.497 108.053,149.829 105.38,155.5 C104.603,157.15 103.552,161.061 103.045,164.19 C102.539,167.32 101.309,171.125 100.313,172.646 C98.403,175.56 97.211,178.506 93.766,188.832 C92.232,193.427 90.74,195.859 88.326,197.7 C86.497,199.096 85,201.057 85,202.06 C85,204.781 83.215,205.371 80.456,203.563 C77.296,201.493 77.363,200.285 81,193.657 C82.65,190.65 84,187.51 84,186.677 C84,185.845 85.125,182.924 86.5,180.187 C87.875,177.449 89,174.811 89,174.324 C89,173.838 90.575,169.705 92.5,165.14 C94.425,160.576 96.014,155.64 96.032,154.171 C96.049,152.702 96.724,150.626 97.532,149.559 C99.214,147.335 99.339,146.084 98.077,144.09 C96.795,142.065 91.84,144.219 85.444,149.583 C82.664,151.915 78.164,155.047 75.444,156.544 C72.725,158.041 68.086,161.231 65.135,163.633 C62.184,166.035 58.886,168 57.806,168 C56.112,168 55.938,167.551 56.541,164.75 C56.926,162.963 57.856,160.296 58.607,158.825 C60.881,154.373 82.142,138 85.649,138 C86.501,138 88.616,137.378 90.349,136.619 C92.082,135.859 95.082,134.538 97.015,133.683 C104.111,130.546 106.636,124.901 109.394,106 C112.002,88.126 112.216,84.02 110.569,83.388 C109.768,83.081 106.35,83.811 102.973,85.01 C99.596,86.209 96.047,86.984 95.087,86.733 C94.128,86.482 92.504,86.889 91.48,87.638 C90.456,88.387 88.328,89 86.752,89 C85.175,89 81.812,89.522 79.277,90.161 C74.788,91.291 74.607,91.245 72.339,88.411 C71.058,86.81 70.008,85.176 70.005,84.779 C69.99,82.626 83.78,78.046 94.794,76.547 C97.155,76.225 99.855,75.559 100.794,75.067 C101.732,74.574 108.575,72.133 116,69.643 C123.425,67.153 131.3,64.434 133.5,63.601 Z M37.688,146.792 C38.617,145.766 40.05,145.056 40.872,145.214 C42.183,145.466 45.691,150.617 47.536,155 C47.884,155.825 49.045,158.075 50.117,160 C51.995,163.374 55.138,169.89 56.385,173 C56.716,173.825 57.388,175.175 57.878,176 C59.269,178.343 60.798,182.261 61.39,185 C64.332,198.605 65.15,201.126 69.952,211.398 C71.629,214.983 73,219.264 73,220.911 C73,222.558 73.528,225.064 74.173,226.479 C75.124,228.567 75.032,229.709 73.689,232.526 C72.778,234.437 71.356,236 70.529,236 C68.285,236 64.119,228.83 64.674,225.924 C65.004,224.197 64.388,222.773 62.571,221.066 C60.615,219.23 60,217.664 60,214.526 C60,212.257 59.606,209.972 59.124,209.45 C58.226,208.477 54.576,197.484 53.662,193 C53.045,189.975 46.62,173.122 43.876,167.331 C42.789,165.038 41.247,162.62 40.45,161.958 C39.652,161.297 38.986,160.023 38.968,159.128 C38.951,158.232 38.276,156.626 37.468,155.559 C35.512,152.973 35.61,149.089 37.688,146.792 Z M111.485,157.024 C113.043,154.504 117.363,156 124.702,161.602 C127.15,163.471 129.617,165 130.183,165 C130.75,165 133.474,166.8 136.237,169 C139.001,171.2 141.808,173 142.476,173 C143.144,173 144.505,173.9 145.5,175 C146.495,176.1 147.818,177 148.438,177 C149.523,177 152.405,179.036 157.91,183.689 C159.999,185.455 160.292,186.219 159.423,187.638 C157.712,190.434 153.813,190.959 149.937,188.914 C148.047,187.917 145.825,186.772 145,186.368 C142.52,185.156 137.688,181.711 134.5,178.882 C132.85,177.418 130.487,175.916 129.249,175.543 C128.011,175.17 126.533,173.996 125.966,172.936 C125.398,171.875 123.089,169.993 120.836,168.753 C118.582,167.514 115.706,165.929 114.444,165.232 C112.13,163.952 110.315,158.918 111.485,157.024 Z"/>
</svg>

