<svg xmlns="http://www.w3.org/2000/svg" width="300" height="300" viewBox="0 0 300 300" version="1.1">
  <defs/>
  <path d="M161.388,123.988 C163.526,122.345 166.305,121 167.565,121 C170.291,121 174,125.335 174,128.52 C174,131.014 171.305,140.654 169.952,143 C169.476,143.825 167.954,146.75 166.569,149.5 C165.184,152.25 163.619,155.175 163.091,156 C162.562,156.825 160.436,160.425 158.366,164 C156.295,167.575 154.068,171.175 153.415,172 C150.518,175.665 138,202.26 138,204.752 C138,205.729 137.05,208.997 135.89,212.014 C132.932,219.704 131.579,229.569 133.009,233.021 C135.366,238.712 149.288,241.323 164.868,238.997 C182.752,236.326 212.396,229.936 218.5,227.435 C224.706,224.893 225.263,224.529 227.45,221.595 C229.301,219.112 229.492,217.471 229.422,204.673 C229.367,194.592 228.843,188.623 227.608,184 C226.653,180.425 225.393,175.7 224.808,173.5 C223.686,169.279 219.829,160.643 217.812,157.834 C216.875,156.528 216.9,155.825 217.93,154.584 C219.864,152.254 222.298,152.646 225.171,155.75 C229.352,160.266 230.913,163.979 234.525,178 C235.446,181.575 236.786,185.85 237.503,187.5 C240.679,194.808 242.841,215.849 241.042,221.949 C239.42,227.45 232.549,233.699 226.056,235.58 C223,236.465 220.05,237.54 219.5,237.968 C218.95,238.397 216.25,239.046 213.5,239.411 C210.75,239.775 204.9,240.929 200.5,241.973 C196.1,243.018 188.675,244.567 184,245.416 C179.325,246.264 171.809,247.668 167.298,248.535 C158.889,250.152 142.567,249.726 141.414,247.86 C141.121,247.387 139.124,247 136.976,247 C132.562,247 127.059,242.948 124.345,237.7 C121.81,232.797 122.354,220.455 125.447,212.724 C126.851,209.214 128,205.677 128,204.863 C128,204.048 128.661,202.509 129.468,201.441 C130.276,200.374 130.951,198.913 130.968,198.195 C131.005,196.669 134.12,189.407 137.485,183 C138.786,180.525 141.606,175.125 143.753,171 C149.414,160.127 151.412,156.568 152.187,155.98 C152.566,155.694 153.362,154.343 153.958,152.98 C154.553,151.616 156.346,148.475 157.941,146 C161.001,141.254 161.662,139 159.993,139 C159.439,139 152.801,144.19 145.243,150.533 C134.617,159.45 130.933,162.002 129,161.783 C126.785,161.532 126.466,160.971 126.2,156.868 L125.9,152.237 L133.7,146.742 C137.99,143.72 144.456,138.605 148.068,135.374 C157.414,127.016 157.116,127.271 161.388,123.988 Z M73.25,40.662 C77.548,38.928 82.247,41.34 81.339,44.813 C80.491,48.056 83.138,48.48 88.677,45.989 C94.865,43.205 101.891,41.025 104.715,41.011 C106.742,41.001 109,43.525 109,45.801 C109,47.044 101.445,52 99.551,52 C98.731,52 95.683,53.06 92.78,54.354 C89.876,55.649 86.732,56.978 85.793,57.307 C83.119,58.243 75,71.668 75,75.152 C75,76.104 74.55,77.16 74,77.5 C73.45,77.84 73,78.769 73,79.564 C73,81.453 69.571,88.368 63.166,99.393 C59.737,105.296 58,109.416 58,111.643 C58,115.844 60.582,116.229 62.093,112.254 C65.031,104.527 73.256,98.446 82.141,97.431 C87.262,96.845 87.644,96.968 90.727,100.183 C93.703,103.286 94.006,104.227 94.626,112.302 C95.475,123.347 93.308,131.634 88.296,136.501 C85.973,138.758 85,140.612 85,142.786 C85,147.877 83.301,150.806 79.106,152.946 C76.92,154.061 73.911,156.104 72.42,157.487 C70.928,158.869 68.899,160 67.911,160 C65.836,160 63,156.392 63,153.753 C63,152.762 61.987,151.556 60.75,151.074 C59.113,150.436 58.048,148.604 56.84,144.349 C55.927,141.132 54.239,135.337 53.09,131.472 C51.94,127.606 51,123.639 51,122.655 C51,121.671 49.875,119.392 48.5,117.589 C44.717,112.629 45.293,109.601 51.479,101.944 C53.854,99.005 63.903,78.819 66.534,71.704 C69.006,65.017 67.976,64.461 58.616,67.432 C54.352,68.785 47.47,70.463 43.324,71.159 C36.255,72.347 35.698,72.307 34.392,70.522 C30.887,65.728 33.92,63.086 45.763,60.617 C49.621,59.812 54.61,58.219 56.849,57.077 C59.088,55.935 61.951,54.998 63.21,54.996 C64.47,54.994 66.963,54.101 68.75,53.011 C71.709,51.207 72,50.588 72,46.098 C72,43.089 72.487,40.97 73.25,40.662 Z M81.077,157.407 C82.769,155.368 86.401,155.681 88.545,158.05 C90.091,159.758 90.218,160.583 89.309,162.992 C88.709,164.583 88.469,166.135 88.775,166.442 C89.778,167.445 93.512,167.029 95.527,165.69 C97.803,164.178 103.773,162.362 109.396,161.472 C111.539,161.132 114.348,160.163 115.639,159.317 C120.202,156.327 126.426,160.467 124.048,164.911 C122.33,168.12 116.944,170.669 107.221,172.874 C95.455,175.543 92.446,177.103 91.106,181.233 C90.264,183.827 88.859,215.995 88.757,235 C88.711,243.555 86.663,257.6 85.22,259.25 C83.193,261.568 80.728,261.462 78.463,258.959 C76.772,257.09 76.724,256.398 77.898,250.713 C78.683,246.912 79.391,232.782 79.724,214.253 C80.116,192.426 80.578,185.3 78.248,184.226 C76.878,183.594 74.543,185.054 70.662,186.848 C67.273,188.415 62.7,190.315 60.5,191.071 C58.3,191.827 55.427,193.245 54.115,194.223 C52.803,195.2 50.357,196 48.68,196 C47.002,196 44.673,196.898 43.505,197.995 C42.337,199.093 34.46,202.259 26,205.032 L10.619,210.074 L8.111,207.565 C5.671,205.126 5.647,204.964 7.217,201.671 C8.52,198.939 9.571,198.166 12.666,197.664 C18.999,196.636 24.222,195.33 29.5,193.454 C35.763,191.227 48.841,186.059 50.93,184.985 C51.793,184.541 58.125,181.847 65,178.999 C71.875,176.15 77.906,173.431 78.403,172.957 C78.9,172.482 79.442,169.106 79.608,165.454 C79.774,161.802 80.435,158.181 81.077,157.407 Z M132.06,61.142 C134.248,57.544 136.741,57.16 140.126,59.901 C142.264,61.632 142.368,62.1 141.287,65.151 C139.43,70.392 137.956,80.964 138.24,86.988 C138.618,94.965 140.523,94.801 148.789,86.081 C155.788,78.697 157.863,77.815 161.777,80.557 C164.491,82.457 164.672,86.362 162.157,88.75 C154.189,96.316 148.717,100.788 145.396,102.448 C143.253,103.519 140.444,105.319 139.153,106.448 L136.807,108.5 L133.819,105 C129.522,99.966 129.081,98.275 128.804,85.755 C128.51,72.472 129.439,65.452 132.06,61.142 Z M70.261,114.5 C67.117,117.933 64.407,120 63.051,120 C61.154,120 60.918,120.473 61.19,123.742 C61.603,128.722 64.136,129.181 67.717,124.925 C72.08,119.739 77.917,116 81.65,116 C85.243,116 85.903,114.556 83.965,110.934 C83.219,109.541 81.863,109 79.114,109 C75.767,109 74.681,109.675 70.261,114.5 Z M75.5,131 C72.791,133.75 69.819,136 68.895,136 C66.766,136 66,138.007 66,143.582 C66,147.218 66.328,148 67.855,148 C71.712,148 84,132.255 84,127.312 C84,124.559 80.235,126.193 75.5,131 Z"/>
</svg>

