<svg xmlns="http://www.w3.org/2000/svg" width="300" height="300" viewBox="0 0 300 300" version="1.1">
  <defs/>
  <path d="M146.519,86.52 C153.388,82.41 159.12,84.4 157.621,90.374 C156.935,93.109 155.294,94.08 146,97.254 C134.569,101.158 128.576,103.757 127.977,105.071 C127.618,105.857 126.366,108.3 125.195,110.5 C124.024,112.7 121.843,116.975 120.348,120 C118.854,123.025 117.039,126.095 116.316,126.821 C114.331,128.815 114.731,130.947 117.271,131.913 C118.52,132.388 120.192,134.064 120.985,135.638 C124.505,142.619 125.979,144 129.913,144 C131.99,144 136.347,144.937 139.595,146.082 C142.843,147.227 147.525,148.749 150,149.464 C155.232,150.974 165.69,156.895 168.384,159.871 C170.484,162.192 169.923,165 167.36,165 C165.727,165 156.003,161.451 149.308,158.411 C146.4,157.09 142.613,156.137 133.114,154.336 L129.728,153.694 L130.437,157.097 C131.402,161.731 132.346,194.487 131.6,197.458 C131.27,198.771 129.616,201.23 127.923,202.923 C123.989,206.857 118.36,207.195 114.994,203.698 C112.73,201.346 110.042,194.895 110.015,191.75 C109.987,188.539 113.78,189.734 115.567,193.5 C116.718,195.925 117.899,197 119.413,197 C123.016,197 124.308,191.464 124.131,176.788 C123.979,164.217 122.581,155.871 119.557,149.485 C118.772,147.827 117.643,145.352 117.05,143.985 C113.659,136.18 109.73,132.895 108.308,136.676 C107.93,137.679 106.208,140.75 104.481,143.5 C102.753,146.25 101.041,149.175 100.676,150 C100.311,150.825 99.448,152.4 98.758,153.5 C98.068,154.6 95.537,158.65 93.134,162.5 C90.73,166.35 86.394,173.1 83.498,177.5 C80.601,181.9 77.428,186.927 76.447,188.672 C74.164,192.726 70.5,194.802 68.185,193.353 C65.09,191.416 65.681,187.807 69.932,182.685 C72.13,180.036 75.308,175.457 76.996,172.507 C78.683,169.558 80.405,167 80.823,166.823 C81.24,166.645 84.748,161.325 88.617,155 C94.637,145.159 97.565,140.07 104.438,127.5 C105.039,126.4 106.987,123.52 108.766,121.1 C110.545,118.68 112,115.894 112,114.909 C112,113.924 112.45,112.84 113,112.5 C114.178,111.772 114.358,108 113.215,108 C112.783,108 109.071,109.165 104.965,110.588 C100.837,112.019 92.135,113.833 85.5,114.645 C78.9,115.452 71.32,116.751 68.656,117.531 C64.472,118.755 63.348,118.754 60.406,117.525 C56.833,116.032 56.07,114.016 58.359,112.117 C60.376,110.443 68.996,108.024 73,108.008 C77.996,107.988 103.477,101.567 110,98.685 C113.025,97.348 117.525,95.915 120,95.5 C122.475,95.085 126.808,93.727 129.63,92.481 C132.451,91.236 136.51,89.921 138.649,89.559 C140.788,89.198 144.33,87.83 146.519,86.52 Z M65.179,221.284 C66.116,220.155 67.4,219.976 70.459,220.545 C72.681,220.959 100.074,221.421 131.33,221.572 C162.587,221.724 188.857,222.115 189.709,222.442 C190.561,222.769 192.779,222.486 194.639,221.814 C198.901,220.272 200.985,221.973 201.179,227.152 C201.414,233.387 199.94,234.009 192.3,230.901 C189.51,229.766 188.857,229.819 187.201,231.318 C185.115,233.206 178.433,233.626 169,232.46 C165.975,232.086 147.075,231.716 127,231.637 C94.529,231.509 79.468,230.694 68.421,228.467 C65.572,227.893 63.501,223.306 65.179,221.284 Z"/>
</svg>

