<svg xmlns="http://www.w3.org/2000/svg" width="300" height="300" viewBox="0 0 300 300" version="1.1">
  <defs/>
  <path d="M144,82.5 C145.678,80.478 149.338,80.604 151.245,82.75 C152.385,84.033 152.622,85.567 152.136,88.5 C151.485,92.429 151.282,92.595 140.75,97.843 C134.852,100.782 128.108,103.443 125.763,103.757 C123.419,104.07 119.52,105.378 117.101,106.663 C114.682,107.949 111.919,109 110.962,109 C110.005,109 108.212,109.818 106.978,110.817 C105.062,112.368 104.906,112.955 105.91,114.831 C106.589,116.1 106.815,118.47 106.445,120.443 C106.092,122.322 106.362,126.253 107.045,129.179 C107.727,132.106 108.559,138.325 108.893,143 C109.649,153.584 110.239,153.79 122,147.552 C132.668,141.894 142.981,137 144.237,137 C144.765,137 146.691,136.291 148.516,135.426 C152.509,133.531 156.907,133.875 158.36,136.196 C160.025,138.856 156.877,144.567 153.334,145.314 C151.775,145.642 148.149,147.393 145.277,149.205 L140.053,152.5 L139.893,160 C139.804,164.125 139.835,170.926 139.962,175.113 C140.088,179.3 139.65,188.75 138.987,196.113 C138.055,206.462 137.333,210.142 135.803,212.329 C134.714,213.884 134.013,215.346 134.244,215.577 C134.669,216.002 153.575,214.52 159.958,213.562 C161.86,213.276 174.892,212.574 188.917,212.002 L214.417,210.962 L216.636,213.231 C217.857,214.479 219.001,217.075 219.178,219 L219.5,222.5 L213,222.643 C158.467,223.844 151.928,224.208 144,226.486 C140.975,227.355 135.575,228.029 132,227.982 C121.293,227.844 87.636,230.152 71,232.166 C65.775,232.799 59.025,233.446 56,233.605 C52.975,233.764 48.868,234.186 46.873,234.542 C43.88,235.077 42.988,234.821 41.766,233.076 C38.409,228.284 43.035,222.923 51,222.372 C52.925,222.239 57.425,221.875 61,221.562 C64.575,221.25 74.247,220.511 82.493,219.92 C90.74,219.33 97.658,218.676 97.867,218.467 C98.076,218.257 98.195,216.154 98.132,213.793 C97.86,203.589 97.904,200.104 98.39,193.5 C99.316,180.904 99.082,135.63 98.062,130 C96.013,118.692 95.698,117.483 94.612,116.765 C92.695,115.498 88.03,115.932 84.7,117.686 C81.264,119.497 73.966,121.04 67.5,121.324 C63.712,121.491 63.484,121.335 63.197,118.392 C62.909,115.437 63.182,115.179 68.697,113.166 C71.889,112.001 77.425,110.305 81,109.398 C84.575,108.49 88.918,107.129 90.651,106.374 C92.384,105.618 94.56,105 95.486,105 C96.412,105 101.04,102.975 105.77,100.5 C110.499,98.025 114.98,96 115.726,96 C116.473,96 119.877,94.705 123.292,93.123 C126.706,91.541 130.625,89.914 132,89.507 C133.375,89.101 135.932,87.695 137.683,86.384 C139.434,85.073 141.291,84 141.811,84 C142.33,84 143.315,83.325 144,82.5 Z M129,156.652 C128.175,156.924 126.6,157.509 125.5,157.953 C124.4,158.397 121.475,159.578 119,160.576 C109.169,164.543 109.485,163.928 108.136,181.699 C107.477,190.389 107.064,202 107.218,207.5 L107.5,217.5 L116.5,217.195 C121.45,217.028 125.917,216.476 126.426,215.969 C128.576,213.83 131.705,188.555 132.334,168.25 C132.719,155.822 132.616,155.461 129,156.652 Z"/>
</svg>

