<svg xmlns="http://www.w3.org/2000/svg" width="300" height="300" viewBox="0 0 300 300" version="1.1">
  <defs/>
  <path d="M79.2,87.2 C79.86,86.54 81.12,86 82,86 C84.298,86 86,88.028 86,90.766 C86,92.067 86.466,94.002 87.035,95.066 C87.72,96.345 87.739,97.62 87.091,98.831 C86.552,99.837 85.931,104.568 85.71,109.343 C85.49,114.117 85.015,118.319 84.655,118.679 C84.295,119.039 84,121.268 84,123.633 C84,125.997 83.363,129.41 82.583,131.216 C79.226,139 78.168,141.73 77.048,145.5 C76.395,147.7 75.492,150.4 75.041,151.5 C74.59,152.6 73.467,156.425 72.546,160 C71.624,163.575 70.45,167.882 69.935,169.571 C69.421,171.26 69,173.342 69,174.199 C69,175.055 68.325,176.315 67.5,177 C66.675,177.685 66,179.738 66,181.563 C66,183.389 65.55,185.16 65,185.5 C64.45,185.84 64,186.98 64,188.034 C64,189.088 62.425,192.867 60.5,196.432 C58.575,199.997 57,204.032 57,205.398 C57,206.764 56.55,208.16 56,208.5 C55.45,208.84 55,210.153 55,211.418 C55,214.316 49.513,224.924 46.811,227.25 C44.664,229.098 41.341,229.503 39.244,228.172 C37.823,227.27 40.197,220.695 46.425,208.285 C48.391,204.368 50,200.669 50,200.067 C50,199.465 50.43,198.191 50.956,197.236 C51.895,195.531 60.392,169.827 62.935,161 C63.649,158.525 64.602,155.375 65.053,154 C65.505,152.625 66.184,149.925 66.561,148 C66.938,146.075 68.235,142.475 69.444,140 C70.653,137.525 71.472,134.754 71.266,133.843 C71.059,132.932 71.364,131.893 71.945,131.534 C72.525,131.175 73,129.777 73,128.427 C73,127.077 73.437,125.191 73.972,124.236 C75.011,122.38 78,98.638 78,92.242 C78,90.129 78.54,87.86 79.2,87.2 Z M124.735,109.968 C126.663,107.215 129.474,107.517 132.025,110.75 C134.03,113.291 134.155,114.3 133.666,124 C133.019,136.842 131.786,143.666 128.697,151.5 C127.396,154.8 125.279,160.65 123.992,164.5 C122.705,168.35 120.832,172.85 119.83,174.5 C118.828,176.15 118.006,178.971 118.004,180.77 C118.001,183.496 114.279,191.198 112.095,193 C110.315,194.468 103.114,205.261 100.577,210.262 C98.97,213.431 95.707,218.305 93.327,221.094 C90.947,223.882 89,226.802 89,227.582 C89,228.566 87.795,229 85.065,229 C80.234,229 75.988,227.484 76.034,225.775 C76.053,225.074 79.315,221.026 83.284,216.78 C91.839,207.627 93.784,205.019 96.643,198.873 C97.826,196.327 99.298,193.934 99.912,193.554 C100.527,193.174 101.711,191.432 102.542,189.682 C103.374,187.932 105.366,184.25 106.97,181.5 C108.573,178.75 109.911,175.916 109.943,175.202 C109.974,174.488 110.9,172.041 112,169.764 C113.1,167.487 114,164.835 114,163.871 C114,162.907 114.45,161.84 115,161.5 C115.55,161.16 116,159.739 116,158.342 C116,156.945 116.629,154.384 117.399,152.651 C118.745,149.618 120.599,143.227 121.649,138 C121.925,136.625 122.6,134.567 123.15,133.426 C123.7,132.285 123.971,126.983 123.753,121.644 C123.461,114.484 123.718,111.42 124.735,109.968 Z M143.013,53.749 C146.091,53.19 149.262,53.908 150.235,55.385 C150.639,55.998 150.976,58.118 150.985,60.095 C151.003,64.418 149.06,66.399 143.292,67.934 C140.978,68.55 138.814,69.492 138.483,70.027 C138.153,70.562 136.967,71 135.849,71 C134.73,71 132.671,71.9 131.273,73 C129.874,74.1 127.423,75 125.825,75 C124.227,75 121.589,75.983 119.963,77.185 C117.833,78.761 115.492,79.396 111.582,79.459 C107.946,79.519 105.528,80.117 104.25,81.274 C102.745,82.636 100.462,83.001 93.421,83.006 C88.515,83.009 82.925,83.436 81,83.956 C79.075,84.475 75.267,85.035 72.538,85.2 C68.023,85.473 67.46,85.261 66.278,82.842 C64.844,79.908 65.959,75.219 68.235,74.61 C77.896,72.026 80.048,71.64 96.5,69.533 C107.883,68.076 113.416,66.42 122.384,61.789 C123.42,61.254 125.895,60.616 127.884,60.371 C129.873,60.127 131.65,59.493 131.833,58.963 C132.017,58.433 132.847,58 133.679,58 C134.511,58 136.392,57.145 137.859,56.101 C139.326,55.056 141.645,53.998 143.013,53.749 Z M124.063,174.424 C124.713,173.641 125.655,173 126.156,173 C127.954,173 137.497,178.31 142.539,182.117 C145.368,184.253 148.338,186 149.141,186 C149.943,186 151.027,186.404 151.55,186.897 C152.072,187.391 156.775,190.138 162,193.002 C167.225,195.866 173.826,199.737 176.669,201.605 C179.513,203.472 182.744,205 183.85,205 C185.164,205 185.972,205.769 186.18,207.217 C186.367,208.512 187.746,210.024 189.5,210.855 C201.618,216.599 201.532,216.524 205.022,224.155 C207.57,229.725 203.753,230.465 195.5,226 C192.45,224.35 188.848,223 187.496,223 C185.854,223 182.79,220.893 178.269,216.653 C171.421,210.232 163.983,204.651 158.5,201.82 C145.628,195.175 139.065,191.319 136.452,188.864 C134.776,187.289 132.665,186 131.761,186 C130.858,186 129.84,185.55 129.5,185 C129.16,184.45 128.026,184 126.98,184 C124.484,184 122.238,176.623 124.063,174.424 Z"/>
</svg>

