<svg xmlns="http://www.w3.org/2000/svg" width="300" height="300" viewBox="0 0 300 300" version="1.1">
  <defs/>
  <path d="M141,87.282 C146.143,83.588 150.825,83.044 153.36,85.846 C154.926,87.575 154.904,87.852 153.015,90.253 C151.907,91.663 151,93.554 151,94.457 C151,96.62 148.36,101.649 144.941,106 C143.428,107.925 141.905,110.88 141.556,112.568 C140.913,115.677 134.602,128.773 129.783,137 C128.333,139.475 126.369,143.525 125.418,146 C124.467,148.475 123.134,151.175 122.455,152 C121.776,152.825 120.171,155.975 118.889,159 C117.607,162.025 114.633,167.263 112.279,170.639 C109.926,174.016 108,177.088 108,177.465 C108,177.843 106.011,180.737 103.58,183.896 C101.149,187.056 99.461,190.102 99.83,190.666 C100.198,191.231 102.525,191.97 105,192.308 C110.526,193.064 131.205,199.713 131.992,200.987 C133.193,202.931 144.965,205.24 156,205.697 C166.859,206.147 171.384,205.702 192.245,202.131 C194.855,201.684 197.816,200.572 198.824,199.659 C199.832,198.747 201.348,198 202.192,198 C204.065,198 209,202.771 209,204.581 C209,207.132 204.56,211.02 201.5,211.148 C198.29,211.283 192.674,212.404 187,214.042 C177.914,216.666 152.692,217.819 150.17,215.726 C149.426,215.109 147.274,214.707 145.388,214.834 C142.047,215.06 134.921,213.108 130.631,210.793 C129.459,210.16 125.35,208.858 121.5,207.899 C117.65,206.941 111.635,205.439 108.132,204.562 C99.765,202.468 82.038,204.017 78.55,207.147 C76.922,208.608 72.381,208.083 70.799,206.25 C67.435,202.354 73.997,192.999 80.094,193 C82.9,193.001 95.291,180.391 98.501,174.269 C99.588,172.196 102.319,167.77 104.57,164.434 C106.821,161.097 109.841,155.922 111.281,152.934 C112.721,149.945 118.455,138.172 124.022,126.771 C136.145,101.941 136.242,99.284 124.654,109.34 C108.039,123.759 97.835,129.776 86.5,131.84 C83.2,132.44 79.574,133.202 78.443,133.532 C77.18,133.901 75.501,133.416 74.094,132.277 C72.005,130.586 71.867,129.915 72.523,124.661 C73.515,116.725 77.05,113.502 78.184,119.5 C78.49,121.118 79.32,121.485 82.531,121.42 C84.714,121.377 88.107,121.034 90.071,120.659 C93.944,119.919 109.548,109.924 122.815,99.685 C127.388,96.156 132.338,92.649 133.815,91.891 C135.292,91.134 138.525,89.06 141,87.282 Z M106.75,61.08 C109.041,59.746 109.213,59.757 111.527,61.401 C113.756,62.983 116.174,67.547 117.988,73.591 C119.043,77.107 118.972,78.163 117.489,81.091 C115.176,85.659 108.554,92 106.098,92 C103.175,92 102.43,89.957 104.682,88.113 C105.765,87.226 107.23,84.652 107.938,82.394 C109.349,77.892 108.684,75.622 104.661,71.208 C102.916,69.292 102.772,68.595 103.786,66.971 C104.454,65.902 105,64.368 105,63.563 C105,62.758 105.787,61.641 106.75,61.08 Z"/>
</svg>

