<svg xmlns="http://www.w3.org/2000/svg" width="300" height="300" viewBox="0 0 300 300" version="1.1">
  <defs/>
  <path d="M143.384,58.829 C145.648,57.359 148.596,56.122 149.936,56.079 C152.49,55.996 157,59.49 157,61.552 C157,62.214 157.653,63.297 158.451,63.96 C159.459,64.796 159.813,66.746 159.611,70.332 C159.333,75.255 159.045,76.48 156.919,81.797 C156.413,83.06 156,85.289 156,86.749 C156,88.37 154.78,90.664 152.868,92.636 C148.835,96.797 149.474,99.49 154.249,98.455 C157.419,97.768 157.456,97.799 155.75,99.704 C153.831,101.846 153.425,105.526 155,106.5 C156.509,107.432 156.24,108.261 153.46,111.26 C151.527,113.344 149.985,114 147.019,114 C142.125,114 141.383,115.179 143.486,119.612 C144.818,122.419 144.935,123.748 144.068,126.236 C143.471,127.947 142.54,132.118 141.999,135.504 C141.458,138.891 140.311,143.074 139.45,144.8 C138.589,146.526 137.61,149.64 137.274,151.719 C136.526,156.35 128.136,164.972 124.357,164.993 C122.734,165.003 121.735,161.865 122.967,160.633 C123.535,160.065 124,158.867 124,157.971 C124,157.076 125.437,154.173 127.193,151.522 C134.014,141.225 136.69,114.13 130.013,122.983 C128.43,125.082 128.017,125.161 124.58,124.026 C119.983,122.509 119.127,120.565 121.794,117.699 C122.919,116.49 123.869,114.15 123.904,112.5 C124.078,104.336 123.837,100.236 123.021,97.5 C121.566,92.617 119.943,84.757 119.604,80.95 C119.186,76.256 116.848,66.747 115.817,65.55 C114.595,64.129 114.832,59.568 116.2,58.2 C119.295,55.105 123.696,58.353 124.688,64.463 C125.31,68.3 127.37,69.994 129.486,68.409 C132.142,66.421 139.49,61.355 143.384,58.829 Z M157,159.871 C159.767,158.377 172.633,158.853 174,160.5 C174.685,161.325 175.804,162 176.488,162 C177.171,162 178.885,162.908 180.295,164.018 C183.695,166.692 184.928,175.027 182.584,179.5 C181.72,181.15 180.997,183.4 180.978,184.5 C180.96,185.6 179.607,188.268 177.972,190.428 C176.337,192.589 175,195.15 175,196.119 C175,197.089 174.522,198.177 173.938,198.538 C173.354,198.899 172.466,200.276 171.963,201.597 C171.429,203.002 170.238,204 169.097,204 C168.024,204 166.195,205.208 165.033,206.685 C163.872,208.161 161.589,210.18 159.961,211.17 C158.332,212.16 157,213.618 157,214.41 C157,215.621 159.506,215.78 172.75,215.409 C191.158,214.893 193.733,214.551 196.227,212.294 C197.981,210.707 198.118,210.734 198.65,212.771 C198.961,213.958 200.741,215.83 202.607,216.931 C205.994,218.929 206.803,220.755 205.097,222.55 C204.6,223.072 204.038,224.335 203.847,225.355 C203.523,227.085 201.909,227.24 180,227.645 C167.075,227.884 153.125,228.531 149,229.082 C144.875,229.634 139.475,230.355 137,230.684 C134.258,231.049 131.077,232.399 128.856,234.141 C124.472,237.58 122.619,237.722 120.557,234.777 C117.52,230.442 119.265,224 123.476,224 C124.799,224 126.125,223.607 126.422,223.126 C126.719,222.645 129.333,221.053 132.231,219.588 C139.236,216.046 145.442,211.661 155.008,203.493 C163.061,196.618 168.609,188.945 171.024,181.344 C171.696,179.23 172.682,176.651 173.216,175.614 C173.94,174.208 173.693,173.065 172.246,171.127 C170.499,168.788 169.662,168.532 163.902,168.579 C158.271,168.624 156.236,169.251 147,173.79 C140.758,176.857 134.54,180.784 131.666,183.475 C129.007,185.964 126.165,188 125.35,188 C122.215,188 120,185.932 120,183.005 C120,179.652 123.12,176.282 130,172.203 C132.475,170.736 136.718,168.079 139.429,166.299 C142.14,164.52 146.865,162.527 149.929,161.872 C152.993,161.217 156.175,160.316 157,159.871 Z M73.681,74.289 C75.53,72.885 78.741,74.162 79.71,76.687 C80.813,79.56 78.314,99.343 76.261,104.001 C75.17,106.476 73.707,110.975 73.01,114 C72.313,117.025 71.386,119.954 70.95,120.508 C70.08,121.614 67.787,127.732 65.331,135.5 C64.462,138.25 63.132,141.918 62.375,143.651 C61.619,145.384 60.998,147.634 60.996,148.651 C60.994,149.668 60.094,151.973 58.996,153.774 C57.898,155.575 57,157.944 57,159.038 C57,161.027 56.72,161.746 53.643,167.654 C51.388,171.984 51.573,173.433 54.586,175.046 C60.003,177.945 65,186.555 65,192.988 C65,195.13 65.45,197.16 66,197.5 C66.55,197.84 67,201.54 67,205.723 C67,217.982 62.522,224.958 58.638,218.75 C57.837,217.47 56.931,212.19 56.537,206.5 C56.155,201 55.727,194.973 55.587,193.107 C55.44,191.161 54.514,189.107 53.415,188.29 C51.659,186.984 51.128,187.285 47,191.933 C44.525,194.72 42.016,197.001 41.424,197 C40.833,197 39.315,195.9 38.052,194.556 C36.089,192.465 35.853,191.464 36.427,187.638 C36.796,185.177 37.677,182.683 38.384,182.096 C39.092,181.509 40.247,179.11 40.951,176.764 C43.258,169.084 44.741,165.122 48.5,156.599 C49.325,154.728 50,152.788 50,152.287 C50,151.786 50.848,149.604 51.885,147.438 C52.921,145.272 54.079,141.629 54.457,139.342 C54.835,137.055 55.773,134.355 56.541,133.342 C57.308,132.329 57.965,130.6 58,129.5 C58.035,128.4 58.724,126.626 59.532,125.559 C60.339,124.491 61.003,122.466 61.006,121.059 C61.01,119.651 61.659,117.26 62.45,115.744 C63.709,113.331 65.269,108.514 69.167,95 C69.723,93.075 70.607,87.9 71.132,83.5 C71.759,78.238 72.632,75.085 73.681,74.289 Z M98.211,178.25 C99.625,176.541 101,176.67 106.288,179.009 C112.792,181.886 122.518,192.858 127.84,203.322 C132.781,213.036 132.875,216.68 128.156,215.513 C125.519,214.861 121.105,210.474 121.036,208.437 C121.016,207.852 119.61,206.052 117.911,204.437 C116.212,202.822 113.699,199.595 112.326,197.268 C109.709,192.829 106.267,189.595 101.267,186.877 C98.053,185.13 96.394,180.447 98.211,178.25 Z M146.382,69.265 C145.218,69.944 143.193,71.221 141.882,72.102 C140.572,72.983 137.363,74.914 134.75,76.394 C129.624,79.297 129.16,80.615 131.013,87.007 C131.57,88.928 132.104,93.987 132.2,98.25 C132.351,104.923 132.62,106 134.14,106 C135.349,106 137.209,103.402 140.046,97.75 C142.324,93.213 144.807,88.375 145.564,87 C148.75,81.211 149.91,77.224 149.711,72.75 C149.479,67.532 149.434,67.485 146.382,69.265 Z"/>
</svg>

