<svg xmlns="http://www.w3.org/2000/svg" width="300" height="300" viewBox="0 0 300 300" version="1.1">
  <defs/>
  <path d="M153.148,95.719 C157.547,94.884 158.143,95 162.461,97.53 C164.863,98.937 167.015,101.045 167.311,102.28 C167.604,103.501 168.592,107.2 169.507,110.5 C171.434,117.451 172.716,125.413 173.613,136 C173.963,140.125 174.584,143.95 174.995,144.5 C175.405,145.05 175.806,150.675 175.886,157 C176.021,167.686 177.735,188.702 178.588,190.124 C179.015,190.836 179.9,218.025 180.455,247.5 C180.663,258.5 181.142,269.347 181.521,271.604 C182.178,275.524 182.048,275.807 178.615,277.929 L175.02,280.151 L171.76,277.857 C169.967,276.596 167.15,274.287 165.5,272.726 C163.85,271.164 161.288,269.239 159.806,268.447 C155.776,266.292 152.603,260.023 150.525,250.112 C148.329,239.633 150.689,237.865 155,246.762 C156.375,249.6 158.063,252.479 158.75,253.161 C159.438,253.842 160,255.216 160,256.213 C160,258.589 167.002,265.996 169.25,265.998 C169.615,265.998 169.91,266.066 170.148,265.979 C171.224,265.582 171.122,261.994 170.987,234.5 C170.924,221.85 170.402,207.225 169.826,202 C169.25,196.775 168.491,187.1 168.139,180.5 C167.554,169.51 167.332,168.477 165.5,168.222 C164.12,168.03 162.416,169.372 160,172.554 C147.146,189.483 137.257,198 130.455,198 C127.533,198 126.955,198.398 126.467,200.75 C126.153,202.262 125.292,204.85 124.554,206.5 C123.816,208.15 122.081,213.1 120.698,217.5 C118.794,223.56 117.559,225.864 115.601,227 C113.59,228.167 112.627,228.243 111.259,227.343 C110.291,226.707 109.674,225.582 109.887,224.843 C110.099,224.104 110.471,222.375 110.712,221 C110.953,219.625 111.511,217.6 111.951,216.5 C112.391,215.4 113.287,213.176 113.942,211.558 C118.113,201.249 122.383,170.066 122.451,149.416 L122.5,134.331 L118.25,128.823 C115.912,125.794 114,122.81 114,122.193 C114,120.543 117.37,119.023 119.685,119.628 C121.073,119.991 122.436,119.271 124.097,117.298 C127.557,113.188 150.362,96.248 153.148,95.719 Z M78.702,60.631 C79.049,60.284 80.297,60 81.474,60 C83.021,60 84.119,61.142 85.432,64.117 C87.504,68.814 87.219,76.667 84.475,90.5 C83.602,94.9 82.64,100.19 82.338,102.256 C82.036,104.322 81.386,106.261 80.894,106.565 C80.402,106.869 80,108.64 80,110.5 C80,112.36 79.614,114.12 79.143,114.412 C78.671,114.703 77.711,117.65 77.009,120.96 C76.306,124.27 75.117,127.488 74.366,128.111 C73.615,128.735 73,130.519 73,132.075 C73,133.632 72.595,135.94 72.101,137.203 C71.606,138.466 70.425,142.425 69.475,146 C68.525,149.575 67.184,153.85 66.495,155.5 C61.189,168.198 59.99,177 63.567,177 C66.004,177 69.656,181.652 71.397,186.974 C72.452,190.201 72.963,195.069 72.889,201.191 C72.82,206.863 73.274,211.576 74.05,213.254 C75.62,216.647 75.084,217.237 70.348,217.333 C67.119,217.398 66.369,216.957 64.734,214.031 C63.464,211.758 62.944,209.156 63.143,206.077 C63.533,200.042 62.002,186.119 60.872,185.421 C58.697,184.077 56.371,186.24 55.145,190.748 C53.518,196.726 50.408,203.416 48.533,204.973 C43.92,208.801 40.606,201.217 43.537,193.541 C44.485,191.059 45.877,188.517 46.63,187.892 C47.384,187.267 48,185.487 48,183.937 C48,182.386 48.396,180.873 48.88,180.574 C49.951,179.912 53.001,170.829 52.997,168.312 C52.996,167.315 54.079,163.8 55.405,160.5 C56.731,157.2 58.782,151.125 59.961,147 C61.141,142.875 63.365,135.45 64.902,130.5 C66.44,125.55 68.263,119.475 68.953,117 C69.644,114.525 70.611,111.466 71.104,110.203 C71.597,108.94 72,106.705 72,105.236 C72,103.768 72.62,100.752 73.378,98.533 C75.992,90.88 77,84.946 77,77.208 C77,71.827 77.474,68.769 78.545,67.24 C79.677,65.623 79.82,64.532 79.08,63.149 C78.525,62.112 78.355,60.979 78.702,60.631 Z M141.93,114.908 C136.138,119.257 130.904,123.419 130.3,124.158 C128.977,125.773 130.279,135.427 132.119,137.643 C132.87,138.548 134.673,138.987 136.875,138.801 C139.717,138.56 140.537,138.004 141.006,136 C141.327,134.625 142.225,133.5 143,133.5 C143.775,133.5 144.677,134.625 145.004,136 C145.568,138.37 145.961,138.5 152.55,138.5 L159.5,138.5 L159.815,142.32 C160.307,148.3 159.104,149 148.328,149 C137.883,149 133.595,150.43 132.685,154.215 C131.762,158.057 130.113,172.064 129.62,180.25 C129.06,189.574 129.638,189.848 137.439,183.959 C143.82,179.141 162.697,157.847 164.635,153.282 C166.38,149.168 166.354,146.457 164.5,139.339 C163.675,136.171 163,131.589 163,129.155 C163,121.687 160.815,111.657 158.663,109.25 C157.557,108.013 155.709,107 154.556,107 C153.404,107 147.722,110.558 141.93,114.908 Z M136.299,53.199 C136.865,52.484 138.492,52.034 139.914,52.199 L142.5,52.5 L143.116,67 C143.954,86.749 143.288,94.553 140.486,97.811 L138.282,100.373 L135.641,97.732 C134.189,96.279 133,94.395 133,93.545 C133,91.708 131.042,91.568 127.557,93.156 C125.495,94.095 124.272,93.975 121.039,92.518 C115.529,90.033 113.796,87.844 114.18,83.852 C114.592,79.56 116.677,79.162 121.521,82.45 C125.742,85.314 127.392,85.532 131,83.704 C133.43,82.472 133.502,82.129 133.576,71.468 C133.652,60.476 134.375,55.628 136.299,53.199 Z M158.076,59.408 C158.816,58.516 160.555,58.021 162.321,58.199 C166.44,58.614 168.68,64.531 166.977,70.5 C165.802,74.618 161.93,81.135 158.784,84.289 C157.803,85.273 157,86.724 157,87.513 C157,89.228 151.362,92.353 149.533,91.651 C147.692,90.945 148.791,86.374 152.093,81 C155.993,74.653 158.258,67.452 157.475,63.888 C157.075,62.065 157.307,60.335 158.076,59.408 Z"/>
</svg>

