<svg xmlns="http://www.w3.org/2000/svg" width="300" height="300" viewBox="0 0 300 300" version="1.1">
  <defs/>
  <path d="M141.822,132.492 C144.589,126.419 150,132.026 150,140.968 C150,144.309 150.337,145 151.965,145 C153.045,145 154.369,144.18 154.905,143.177 C156.397,140.39 163.294,136 166.181,136 C169.851,136 171.361,138.263 170.555,142.557 C170.068,145.153 168.995,146.661 166.646,148.046 C164.865,149.097 162.403,151.317 161.174,152.978 C159.945,154.64 158.348,156 157.625,156 C156.902,156 155.6,156.787 154.733,157.75 C153.381,159.251 153.281,161.049 154.033,170.405 C154.516,176.403 155.357,181.757 155.904,182.304 C156.562,182.962 157.796,182.708 159.559,181.553 C162.146,179.858 169.807,175.649 180.959,169.796 C183.962,168.22 187.148,166.271 188.038,165.465 C191.609,162.234 195.481,164.154 196.592,169.708 C197.104,172.27 196.735,173.053 194.141,174.899 C192.462,176.095 189.156,177.971 186.794,179.067 C184.432,180.164 181.825,181.444 181,181.912 C177.691,183.789 170.213,187 169.149,187 C167.219,187 158.698,194.028 157.255,196.81 C156.247,198.753 156.048,201.7 156.501,207.975 C157.314,219.23 157.797,247.869 157.185,248.482 C156.919,248.747 156.575,260.11 156.42,273.732 C156.264,287.354 156.106,298.837 156.068,299.25 C156.031,299.663 154.2,300 152,300 C148.314,300 147.997,299.784 147.956,297.25 C147.827,289.225 148.206,244.706 148.444,239.921 C148.597,236.853 148.447,227.178 148.111,218.421 C147.533,203.352 147.39,202.484 145.445,202.206 C144.314,202.044 142.557,202.832 141.54,203.956 C140.522,205.08 139.197,206.018 138.595,206.041 C137.993,206.063 135.942,207.413 134.038,209.041 C132.134,210.668 130.007,212 129.312,212 C128.617,212 126.575,212.898 124.774,213.996 C122.973,215.094 120.774,215.994 119.888,215.996 C119.001,215.998 116.576,217.35 114.5,219 C112.424,220.65 110.328,222 109.843,222 C109.357,222 107.178,223.125 105,224.5 C102.822,225.875 100.381,227 99.577,227 C98.772,227 97.428,227.979 96.59,229.175 C95.412,230.857 93.549,231.532 88.364,232.156 C80.364,233.12 78.763,232.25 79.199,227.182 C79.488,223.826 79.731,223.629 85.55,222.042 C88.877,221.135 95.801,218.054 100.937,215.196 C106.072,212.338 110.698,210 111.216,210 C112.275,210 126.152,202.684 130,200.097 C131.375,199.172 134.217,197.535 136.316,196.458 C138.414,195.381 141.73,193.041 143.684,191.257 C146.501,188.685 147.091,187.546 146.533,185.757 C146.146,184.516 145.584,179.751 145.285,175.169 C144.677,165.856 143.718,164.67 139.285,167.747 C136.979,169.347 127.466,173 125.603,173 C125.316,173 123.938,171.767 122.54,170.26 C118.382,165.776 119.627,160.995 124.95,161.005 C129.304,161.013 136.845,157.755 139.996,154.504 L143.007,151.397 L141.847,143.191 C140.979,137.054 140.973,134.356 141.822,132.492 Z M137.349,36.25 C138.255,33.657 139.694,33.454 142.441,35.532 C143.509,36.339 145.321,37 146.469,37 C147.616,37 149.503,37.664 150.662,38.476 C153.481,40.45 153.155,44.297 149.67,50.174 C148.146,52.745 146.636,56.468 146.315,58.448 C145.993,60.428 145.341,62.289 144.865,62.583 C143.564,63.387 143.825,68 145.171,68 C147.037,68 150,64.858 150,62.88 C150,60.7 153.411,58.674 155.788,59.443 C156.729,59.748 158.03,61.144 158.679,62.547 C160.116,65.657 158.301,70.798 155.072,72.758 C153.933,73.451 153,74.837 153,75.839 C153,76.842 151.762,78.295 150.25,79.068 C143.555,82.492 140.189,86.143 138.005,92.349 C136.814,95.732 135.425,99.281 134.92,100.236 C133.574,102.776 133.796,105 135.395,105 C136.163,105 143.153,98.7 150.929,91 C158.706,83.3 165.638,77 166.334,77 C169.792,77 171.368,84.576 168.877,89.229 C166.519,93.636 155.378,103.475 147.058,108.5 C146.147,109.05 143.56,110.962 141.307,112.75 C139.055,114.537 136.25,116 135.075,116 C133.899,116 132.65,116.787 132.298,117.75 C131.947,118.713 130.611,120.772 129.33,122.327 C128.048,123.881 127,125.613 127,126.176 C127,126.738 126.279,128.841 125.398,130.849 C123.688,134.747 123.439,135.321 119.534,144.374 C118.14,147.605 117,150.813 117,151.502 C117,152.191 116.372,153.276 115.605,153.913 C114.837,154.55 113.909,156.672 113.542,158.63 C113.175,160.587 111.552,164.789 109.937,167.968 C108.322,171.147 107,174.203 107,174.759 C107,177.949 100.153,186.344 95.648,188.679 C92.989,190.057 92.63,190.001 90.352,187.861 C87.277,184.972 87.458,180.648 90.674,180.19 C93.991,179.718 101.049,167.501 106.959,152 C108.741,147.325 111.095,141.792 112.189,139.705 C114.269,135.737 114.05,133 111.654,133 C110.879,133 109.71,133.645 109.055,134.433 C107.797,135.95 100.12,138.18 96.126,138.19 C94.82,138.193 92.798,137.242 91.632,136.077 C89.677,134.121 89.629,133.756 91.007,131.35 C92.117,129.411 94.726,127.941 101.176,125.621 C105.947,123.904 110.897,121.576 112.176,120.446 C113.454,119.316 116.147,117.187 118.159,115.714 C120.989,113.643 121.977,112.095 122.521,108.879 C122.907,106.592 124.328,102.52 125.679,99.83 C129.161,92.897 128.659,91.719 122.051,91.326 C119.054,91.148 116.296,90.664 115.922,90.251 C115.548,89.838 114.954,87.875 114.602,85.888 C113.787,81.296 115.704,79.523 121.245,79.744 C125.721,79.923 130.459,77.909 131.843,75.24 C132.339,74.283 133.061,71.316 133.449,68.646 L134.154,63.791 L129.327,64.454 C125.22,65.018 124.156,64.796 122.193,62.967 C120.533,61.419 119.973,59.932 120.193,57.658 C120.461,54.901 121.072,54.306 125,52.972 C127.475,52.132 130.96,50.557 132.744,49.472 C135.865,47.575 136.092,47.025 136.453,40.5 C136.514,39.4 136.917,37.487 137.349,36.25 Z M72.572,65.193 C73.591,63.742 74.992,63 76.347,63.193 C78.068,63.438 78.571,64.303 78.853,67.5 C79.256,72.064 76.426,93.987 74.851,98.5 C74.275,100.15 73.466,103.075 73.053,105 C72.64,106.925 71.559,110.242 70.651,112.372 C69.743,114.502 69,117.53 69,119.102 C69,122.152 65.936,131.235 62.883,137.236 C62.397,138.191 61.997,139.991 61.993,141.236 C61.99,142.481 61.093,144.85 60,146.5 C58.907,148.15 58.01,150.107 58.007,150.849 C58.003,151.591 57.379,153.616 56.619,155.349 C55.86,157.082 54.308,161.425 53.17,165 C52.032,168.575 50.179,174.076 49.051,177.225 C46.195,185.197 46.329,185.869 50.914,186.602 C56.864,187.554 61.165,192.526 62.29,199.751 C63.85,209.774 64.053,223.242 62.739,229.5 C61.536,235.223 61.346,235.491 58.618,235.295 C54.023,234.966 51.706,232.203 52.518,228.02 C52.894,226.084 53.351,220.9 53.535,216.5 C53.818,209.707 53.503,207.708 51.447,203.25 C50.115,200.363 48.64,198 48.168,198 C46.798,198 44.484,201.128 42.068,206.244 C40.835,208.854 39.493,211.195 39.084,211.448 C38.676,211.7 37.763,214.515 37.056,217.703 C34.556,228.974 32.968,233 31.024,233 C30.621,233 29.101,231.896 27.646,230.548 C25.491,228.55 25.001,227.206 25.006,223.298 C25.01,220.659 25.587,217.375 26.289,216 C26.991,214.625 28.167,211.475 28.903,209 C29.639,206.525 31.841,200.225 33.798,195 C35.754,189.775 37.686,183.925 38.091,182 C38.814,178.563 44.215,162.429 45.957,158.5 C46.445,157.4 47.134,155.15 47.487,153.5 C47.841,151.85 49.226,148.165 50.566,145.31 C51.905,142.456 53.845,136.606 54.876,132.31 C55.907,128.015 58.399,119.55 60.413,113.5 C65.692,97.643 66,96.582 66,94.238 C66,93.072 66.403,91.869 66.895,91.565 C67.388,91.26 68.098,87.296 68.474,82.756 C69.285,72.972 70.368,68.329 72.572,65.193 Z M147.388,113.688 C154.18,112.352 172.433,114.008 174,116.102 C174.572,116.866 182.941,118.039 187.694,118.022 C189.451,118.015 191.165,118.458 191.503,119.005 C191.841,119.552 193.069,120 194.23,120 C195.392,120 197.053,120.616 197.921,121.37 C198.79,122.123 200.85,123.17 202.5,123.697 C204.981,124.489 205.552,125.26 205.8,128.155 C206.001,130.498 205.449,132.456 204.129,134.077 C202.206,136.442 202.089,136.459 199.238,134.787 C197.632,133.845 194.333,132.758 191.909,132.37 C189.484,131.983 185.16,130.632 182.301,129.368 C173.387,125.428 152.835,122.515 147.397,124.42 C145.875,124.953 144.493,124.465 142.397,122.655 L139.5,120.154 L142.388,117.129 C143.976,115.465 146.226,113.916 147.388,113.688 Z"/>
</svg>

