<svg xmlns="http://www.w3.org/2000/svg" width="300" height="300" viewBox="0 0 300 300" version="1.1">
  <defs/>
  <path d="M153.95,94.503 C155.902,93.78 158.4,93.365 159.5,93.581 C160.6,93.796 162.935,93.979 164.689,93.986 C168.496,94.003 177.024,100.821 178.339,104.899 C179.66,108.999 182.019,120.745 183.314,129.676 C183.966,134.174 184.838,138.186 185.25,138.593 C185.662,139 186.009,142.071 186.02,145.417 C186.031,148.763 186.476,154.425 187.009,158 C188.6,168.68 188.297,224.864 186.581,237.085 C184.879,249.213 184.123,251.484 180.537,255.25 C177.845,258.078 176.11,258.624 174.45,257.165 C173.928,256.706 171.293,255.518 168.596,254.524 C162.442,252.256 156,246.589 156,243.443 C156,242.164 155.55,240.84 155,240.5 C154.45,240.16 154,238.761 154,237.391 C154,236.021 153.287,233.521 152.415,231.835 C151.453,229.975 151.191,228.409 151.748,227.852 C153.394,226.206 155.619,227.994 157.893,232.792 C162.481,242.473 164.002,244.866 166.868,246.906 C172.542,250.946 176.344,248.642 177.435,240.5 C179.103,228.054 180.482,184.588 179.271,182.629 C178.974,182.149 178.583,178.581 178.402,174.7 C178.186,170.081 177.546,167.117 176.549,166.12 C175.184,164.756 174.545,164.936 170.422,167.842 C167.891,169.626 164.442,171.362 162.758,171.698 C159.06,172.438 150.987,176.823 150.454,178.381 C150.026,179.635 149.061,206.155 149.098,215.658 C149.111,219.045 148.605,224.663 147.974,228.143 C147.151,232.68 147.122,236.032 147.869,239.985 C148.442,243.018 149.139,248.214 149.417,251.531 C149.856,256.758 149.618,257.946 147.635,260.433 C145.792,262.745 144.839,263.176 142.74,262.65 C141.274,262.282 139.818,261.012 139.412,259.748 C138.658,257.395 138.704,225.288 139.464,224.058 C140.351,222.624 140.885,184 140.019,184 C137.648,184 133.737,186.306 127.984,191.093 C124.509,193.985 120.054,196.904 118.083,197.581 C114.887,198.678 114.432,199.28 113.867,203.155 C113.519,205.545 112.734,209.3 112.123,211.5 C111.511,213.7 111.009,216.862 111.006,218.528 C111.002,220.313 110.179,222.258 109,223.268 C107.9,224.21 107,225.962 107,227.161 C107,229.855 104.283,233 101.956,233 C101.002,233 99.159,232.135 97.861,231.078 L95.5,229.157 L98.124,226.328 C99.627,224.708 101.003,221.791 101.344,219.5 C101.672,217.3 102.669,212.575 103.559,209 C104.449,205.425 105.573,199.35 106.056,195.5 C106.539,191.65 107.431,186.25 108.038,183.5 C110.517,172.265 111.379,158.803 110.053,152.02 C109.351,148.434 108.666,143.7 108.53,141.5 C108.394,139.3 107.46,135.397 106.454,132.828 C104.053,126.691 105.352,124.713 111.175,125.644 C114.585,126.189 115.187,125.999 115.65,124.23 C115.944,123.106 118.038,120.697 120.303,118.877 C122.568,117.056 127.364,112.802 130.961,109.422 C134.557,106.043 138.85,102.528 140.5,101.611 C142.15,100.694 145.052,99.016 146.95,97.881 C148.847,96.746 151.997,95.226 153.95,94.503 Z M69.786,74.75 C71.723,72.526 73.632,72.519 74.87,74.733 C77,78.538 73.774,103.785 70.934,105.541 C70.42,105.858 70,107.367 70,108.894 C70,111.897 66.652,122.832 64.395,127.2 C63.628,128.686 63,130.787 63,131.869 C63,132.952 62.35,135.112 61.556,136.669 C60.761,138.226 59.466,142.2 58.676,145.5 C56.278,155.525 52.925,166.445 51.935,167.45 C51.421,167.973 50.986,169.548 50.968,170.95 C50.951,172.353 50.276,174.374 49.468,175.441 C47.941,177.46 47.442,182.008 48.75,181.989 C49.163,181.983 51.744,181.298 54.486,180.466 C59.431,178.966 59.506,178.977 63.486,181.766 C66.647,183.981 67.57,185.314 67.828,188.039 C68.009,189.943 68.783,192.196 69.549,193.047 C71.377,195.077 70.755,205.639 68.558,209.888 C66.729,213.424 64.279,213.856 61.02,211.217 C58.981,209.566 58.893,209.03 59.822,203.967 C60.374,200.96 60.581,196.363 60.282,193.75 C59.809,189.604 59.445,189 57.42,189 C54.248,189 46.349,194.497 44.773,197.8 C42.983,201.553 38.693,201.987 36.497,198.636 C35.084,196.48 35.028,195.347 36.07,190.052 C36.73,186.696 37.659,183.711 38.135,183.417 C38.611,183.123 39,181.81 39,180.5 C39,179.19 39.399,177.871 39.887,177.57 C40.374,177.269 41.076,175.33 41.447,173.261 C42.091,169.666 43.446,164.8 45,160.5 C46.916,155.2 48,151.177 48,149.37 C48,148.277 48.661,146.509 49.468,145.441 C50.276,144.374 50.951,142.278 50.968,140.784 C50.986,139.29 51.634,136.59 52.409,134.784 C53.184,132.978 54.51,129.25 55.357,126.5 C56.204,123.75 58.102,118.125 59.576,114 C62.294,106.391 62.705,104.743 65.435,90.5 C67.914,77.573 68.187,76.586 69.786,74.75 Z M128,46.781 C130.052,46.07 140.089,47.061 142.286,48.191 C143.268,48.696 144.339,50.444 144.665,52.075 C144.991,53.707 145.65,55.284 146.129,55.58 C149.458,57.637 143.101,70.981 135.133,78.664 C133.664,80.08 133.003,81.566 133.391,82.577 C133.929,83.978 135.123,84.109 141.886,83.51 C149.349,82.849 149.839,82.932 151.363,85.108 C152.869,87.258 152.834,87.548 150.811,89.701 C149.623,90.966 148.139,92 147.514,92 C146.888,92 144.387,92.961 141.956,94.135 C139.525,95.31 135.373,96.387 132.73,96.53 C130.086,96.673 126.607,97.334 125,98 C122.46,99.052 121.613,98.924 118.539,97.024 C113.405,93.851 113.591,89.762 119.108,84.453 C124.597,79.171 130.892,70.64 132.209,66.698 C132.796,64.939 134.162,62.521 135.243,61.324 C137.895,58.39 136.737,57 131.641,57 C126.772,57 124.994,55.671 125.015,52.05 C125.033,49.064 125.918,47.501 128,46.781 Z M160,103.708 C159.175,104.011 156.612,105.101 154.305,106.129 C151.998,107.158 149.69,108 149.177,108 C146.595,108 146.161,110.8 147.09,121.489 C147.613,127.512 148.409,132.809 148.859,133.259 C149.994,134.394 163.583,129.277 168.782,125.758 C172.829,123.019 173.03,122.658 172.437,119.18 C170.416,107.32 165.802,101.579 160,103.708 Z M160.786,140.162 C153.851,143.042 150.86,144.811 150.33,146.348 C149.649,148.324 149.806,165.075 150.513,165.827 C150.682,166.007 153.898,164.491 157.66,162.458 C161.422,160.425 167.425,158.027 171,157.131 C177.076,155.606 177.517,155.304 177.767,152.5 C177.914,150.85 177.427,146.575 176.685,143 C174.987,134.817 174.059,134.651 160.786,140.162 Z M134.313,154.107 C132.56,154.612 129.797,156.637 128.173,158.607 C125.548,161.791 124.977,162.058 123.025,161.013 C121.817,160.367 120.551,160.116 120.212,160.455 C119.873,160.794 119.437,164.093 119.243,167.786 C119.05,171.479 118.432,176.3 117.87,178.5 C116.15,185.232 116.258,186.54 118.5,186.168 C119.6,185.986 121.85,184.607 123.5,183.105 C125.15,181.603 127.625,179.84 129,179.188 C130.375,178.535 133.476,176.535 135.891,174.743 C140.243,171.514 140.284,171.427 140.468,164.992 C140.669,157.951 139.937,153.757 138.445,153.41 C137.925,153.289 136.066,153.603 134.313,154.107 Z M130.5,122.08 C128.3,124.323 124.343,127.805 121.708,129.817 L116.915,133.475 L117.493,138.988 C117.811,142.019 118.308,146.412 118.597,148.75 C119.105,152.858 120.21,154.087 121.507,151.988 C121.851,151.432 124.69,149.359 127.816,147.381 C138.335,140.727 139.015,139.727 138.9,131.063 C138.719,117.341 136.976,115.477 130.5,122.08 Z"/>
</svg>

