<svg xmlns="http://www.w3.org/2000/svg" width="300" height="300" viewBox="0 0 300 300" version="1.1">
  <defs/>
  <path d="M127.184,112.569 C136.438,103.998 137.853,103.04 140.926,103.258 C144.429,103.505 144.902,104.013 149.725,112.694 C155.249,122.637 158.999,132.811 159.001,137.865 C159.002,139.314 159.697,143.875 160.545,148 C161.527,152.771 162.272,163.505 162.592,177.5 C162.869,189.6 163.502,200.739 163.997,202.253 C164.493,203.768 164.932,216.368 164.973,230.253 C165.014,244.139 165.387,257.975 165.802,261 C167.432,272.884 162.976,281.145 157.64,276.131 C156.186,274.765 154.673,274.188 153.613,274.595 C152.589,274.988 149.017,273.795 144.605,271.585 C135.053,266.801 131,262.238 131,256.266 C131,254.69 130.46,252.86 129.8,252.2 C128.867,251.267 128.875,250.725 129.838,249.762 C130.822,248.778 131.631,249.239 133.779,252.012 C140.386,260.538 144.023,263.704 149.097,265.342 C153.063,266.623 155.115,267.363 156.1,266.644 C157.216,265.829 156.964,263.143 156.58,257.25 C156.23,251.887 155.743,237.695 155.499,225.711 C155.254,213.727 154.605,197.302 154.057,189.211 C153.508,181.12 152.982,171.8 152.889,168.5 C152.795,165.2 152.527,161.713 152.292,160.75 C151.557,157.736 150,158.842 150,162.378 C150,164.235 149.354,166.291 148.565,166.946 C147.776,167.6 146.133,170.018 144.914,172.318 C143.694,174.618 142.134,177.552 141.447,178.837 C140.76,180.122 139.253,181.835 138.099,182.643 C136.944,183.452 136,184.867 136,185.789 C136,187.424 125.401,198 123.763,198 C123.309,198 122.647,198.787 122.292,199.75 C121.938,200.713 120.152,203.268 118.324,205.43 C116.496,207.591 114.986,210.066 114.969,210.93 C114.952,211.793 113.831,214.75 112.478,217.5 C111.125,220.25 110,224.075 109.977,226 C109.955,227.925 109.276,230.374 108.468,231.441 C107.661,232.509 107,234.144 107,235.076 C107,237.395 102.451,240.19 99.293,239.811 C94.973,239.293 94.337,236.869 97.356,232.427 C98.81,230.287 100,227.359 100,225.922 C100,224.484 100.724,221.856 101.609,220.082 C104.198,214.892 109.403,189.417 110.513,176.5 C112.549,152.805 111.91,144.408 106.84,128.251 C105.762,124.814 105.019,120.314 105.19,118.251 C105.469,114.872 105.806,114.47 108.585,114.199 C112.009,113.865 114.208,115.754 114.387,119.185 C114.449,120.367 115.033,121.512 115.684,121.729 C116.336,121.946 121.511,117.824 127.184,112.569 Z M54.04,77.458 C56.9,74.413 57.102,74.416 60.03,77.532 C62.115,79.751 62.378,80.894 62.161,86.777 C62.025,90.47 61.188,95.968 60.302,98.995 C59.416,102.023 58.574,105.524 58.431,106.774 C58.009,110.461 54.979,120.158 52.772,124.886 C51.645,127.299 50.502,131.236 50.232,133.636 C49.961,136.036 49.403,138 48.991,138 C47.799,138 46.051,143.007 45.015,149.388 C44.49,152.627 43.411,156.002 42.619,156.888 C41.826,157.775 40.861,160.642 40.474,163.259 C39.71,168.422 40.705,170.557 44.557,172.022 C47.283,173.058 53.996,183.115 55.133,187.868 C56.603,194.01 57.835,209.283 57.267,214.324 L56.728,219.105 L53.154,218.802 C49.001,218.451 48.259,216.847 48.1,207.877 C48.003,202.432 45.069,188.585 43.432,185.845 C41.446,182.523 36.568,177 35.62,177 C35.045,177 33.59,178.235 32.387,179.745 C30.224,182.457 30.174,182.467 28.099,180.59 C25.407,178.154 25.336,172.602 27.941,168.33 C29.885,165.141 36.765,146.662 37.744,142 C38.032,140.625 38.608,139.05 39.022,138.5 C39.677,137.632 40.769,134.177 45.028,119.5 C45.507,117.85 47.079,112.45 48.522,107.5 C52.391,94.221 53.085,90.123 52.373,84.755 C51.818,80.57 52.043,79.583 54.04,77.458 Z M105.557,57.223 C107.71,54.149 112.451,54.232 114.513,57.38 C115.929,59.54 115.924,60.164 114.458,64.13 C113.569,66.534 112.497,70.075 112.076,72 C111.654,73.925 109.976,77.75 108.346,80.5 C106.716,83.25 104.141,88.617 102.624,92.427 C101.108,96.237 98.997,100.46 97.933,101.812 C96.87,103.164 96,104.903 96,105.677 C96,107.29 94.983,108.654 89.75,114.052 C87.688,116.18 86,118.358 86,118.893 C86,120.482 82.232,121.195 80.038,120.02 C77.014,118.402 77.44,113.924 81.053,109.358 C86.781,102.122 95,88.877 95,86.884 C95,85.791 95.882,83.232 96.96,81.198 C100.321,74.856 102,70.761 102,68.905 C102,67.922 102.45,66.84 103,66.5 C103.55,66.16 104,64.434 104,62.663 C104,60.893 104.701,58.445 105.557,57.223 Z M136.5,152.112 C133.75,152.601 130.081,153.238 128.347,153.528 C122.714,154.468 121.27,158.316 120.29,175 C120.048,179.125 119.434,182.928 118.925,183.45 C117.734,184.673 117.723,189.711 118.91,190.444 C120.583,191.478 122.482,190.013 125.355,185.471 C126.922,182.994 130.634,178.439 133.602,175.349 C136.571,172.259 139,169.074 139,168.27 C139,167.466 139.839,165.614 140.864,164.154 C143.479,160.432 145.427,154.556 144.687,152.626 C144.002,150.84 143.746,150.824 136.5,152.112 Z M137.667,115.667 C137.3,116.033 137,117.173 137,118.199 C137,119.225 136.159,120.387 135.131,120.782 C134.103,121.177 132.048,122.951 130.565,124.723 C129.081,126.496 126.077,128.953 123.888,130.183 C119.987,132.375 119.916,132.517 120.205,137.459 C120.458,141.781 120.814,142.545 122.698,142.813 C123.908,142.985 125.933,142.567 127.198,141.885 C128.464,141.203 131.746,140.528 134.491,140.385 C139.892,140.105 142.493,141.573 144.116,145.819 C144.747,147.468 145.654,148.046 147.252,147.819 C150.693,147.331 150.64,142.252 147.075,131.107 C143.004,118.38 139.956,113.377 137.667,115.667 Z M137.358,72.511 C137.975,70.902 138.93,70.775 146.208,71.336 C150.694,71.682 154.823,72.423 155.383,72.983 C155.942,73.542 157.57,74 159,74 C160.43,74 162.116,74.516 162.747,75.147 C163.377,75.777 167.405,76.508 171.697,76.771 C175.989,77.034 180.014,77.657 180.641,78.156 C182.912,79.963 182.817,85.101 180.463,87.838 C178.462,90.165 177.964,90.305 175.57,89.214 C174.105,88.546 171.24,87.997 169.203,87.994 C164.993,87.988 159.02,86.571 154.25,84.447 C152.463,83.651 149.537,82.346 147.75,81.547 C145.963,80.748 143.39,79.961 142.033,79.797 C139.127,79.447 136.354,75.126 137.358,72.511 Z"/>
</svg>

