<svg xmlns="http://www.w3.org/2000/svg" width="300" height="300" viewBox="0 0 300 300" version="1.1">
  <defs/>
  <path d="M154.667,125.667 C156.351,123.982 160.307,125.294 163.965,128.75 C167.388,131.983 168.025,133.271 168.587,138.094 C169.191,143.282 169.011,144.003 166.098,148.023 C162.277,153.298 163.118,154.88 168.834,153.168 C174.214,151.556 176.407,151.699 179.044,153.835 C181.085,155.487 181.295,156.465 181.158,163.675 C181.001,171.922 179.44,176.804 175.845,180.289 C174.83,181.273 174,182.905 174,183.917 C174,184.928 173.334,186.308 172.521,186.983 C170.787,188.422 168,193.737 168,195.604 C168,196.317 167.396,197.26 166.657,197.7 C164.474,199.001 161.77,203.819 162.532,205.052 C162.989,205.79 164.745,205.965 167.523,205.549 C170.59,205.089 174.612,205.636 181.655,207.469 C187.07,208.879 193.875,210.314 196.778,210.657 C199.681,211.001 202.295,211.669 202.587,212.141 C202.879,212.613 203.922,213 204.904,213 C205.886,213 209.484,214.806 212.899,217.013 L219.108,221.027 L218.804,225.763 C218.511,230.331 218.381,230.511 215.161,230.82 C212.36,231.088 211.232,230.506 208.161,227.206 C205.184,224.007 203.566,223.139 199.5,222.558 C196.75,222.165 193.451,221.17 192.17,220.346 C189.956,218.923 188.222,218.589 176.5,217.322 C167.81,216.383 158.924,216.702 156.419,218.043 C153.305,219.71 149.501,217.869 147.312,213.636 C145.911,210.926 145.956,210.378 147.91,206.465 C149.074,204.135 153.17,198.036 157.013,192.912 C160.856,187.788 164,182.968 164,182.202 C164,181.436 164.841,179.614 165.869,178.154 C166.898,176.694 168.734,173.534 169.95,171.131 C172.886,165.333 171.658,164.173 165.479,166.906 C159.681,169.471 151.51,169.734 150.203,167.398 C149.008,165.262 151.171,159.09 153.884,156.893 C157.213,154.197 161,145.716 161,140.956 C161,137.408 160.419,136.138 157.5,133.303 C154.216,130.114 153.135,127.199 154.667,125.667 Z M87.905,65.75 C88.678,64.787 89.428,64 89.573,64 C91.32,64 93.432,65.927 94.954,68.909 C96.503,71.946 96.664,73.417 95.897,77.524 C94.961,82.533 84.687,114.033 82.945,117.236 C82.425,118.191 82,119.584 82,120.331 C82,121.079 81.1,122.505 80,123.5 C78.9,124.495 78,126.183 78,127.251 C78,128.318 77.352,130.386 76.56,131.846 C75.767,133.306 73.671,139.217 71.902,144.983 C70.132,150.748 67.555,157.713 66.175,160.46 C62.107,168.559 63.261,174 69.046,174 C75.178,174 82.769,184.725 83.628,194.604 C84.056,199.518 83.935,199.812 80.378,202.525 L76.685,205.342 L74.347,202.421 C72.583,200.217 72.009,198.242 72.005,194.372 C72.002,190.891 71.485,188.817 70.396,187.914 C69.514,187.181 68.4,185.551 67.921,184.291 C67.441,183.031 66.701,182.005 66.275,182.011 C65.849,182.017 62.575,185.376 59,189.477 C53.484,195.803 52.015,196.937 49.3,196.966 C45.186,197.01 43.936,194.873 45.468,190.416 C46.107,188.558 46.938,186.729 47.315,186.352 C47.692,185.975 48,184.79 48,183.719 C48,182.647 49.076,179.685 50.392,177.135 C54.034,170.076 56,165.359 56,163.68 C56,162.845 56.627,160.888 57.394,159.331 C58.161,157.774 59.831,153.125 61.105,149 C62.379,144.875 63.776,141.073 64.21,140.55 C64.645,140.028 65,138.743 65,137.695 C65,136.648 66.125,133.551 67.5,130.813 C68.875,128.076 70,125.009 70,123.999 C70,122.989 70.625,120.888 71.388,119.331 C75.845,110.242 78,105.093 78,103.536 C78,102.566 78.867,100.136 79.926,98.136 C82.712,92.877 85.341,80.576 84.7,75.8 C84.168,71.837 84.927,69.46 87.905,65.75 Z M157.237,35.25 C158.565,33.603 162.035,33.712 164.36,35.472 C166.009,36.722 166.105,37.481 165.208,42.19 C162.128,58.351 161.308,61.47 158.883,66.236 C158.397,67.191 158,68.879 158,69.986 C158,71.094 157.55,72 157,72 C156.45,72 156,72.513 156,73.14 C156,74.394 153.594,79.791 148.259,90.5 C146.341,94.35 143.96,100.033 142.967,103.128 C140.461,110.939 137.681,116.659 132.75,124.15 C131.787,125.612 131,127.741 131,128.881 C131,130.021 129.875,131.691 128.5,132.592 C127.053,133.54 126,135.183 126,136.493 C126,137.737 125.325,139.315 124.5,140 C123.675,140.685 123,142.062 123,143.06 C123,145.112 110.371,156.29 108.687,155.729 C108.087,155.529 106.797,153.934 105.819,152.184 C104.377,149.603 104.257,148.53 105.181,146.501 C105.808,145.125 106.845,144 107.486,144 C108.932,144 112.214,140.509 114.655,136.375 C117.653,131.296 124.125,122.041 125.098,121.439 C125.594,121.133 126,120.189 126,119.343 C126,118.496 127.963,113.685 130.361,108.652 C136.175,96.453 138.584,91.01 139.501,88 C139.92,86.625 141.103,84.306 142.131,82.846 C143.159,81.386 144,79.654 144,78.997 C144,78.34 144.601,76.384 145.335,74.651 C146.07,72.918 147.222,69.925 147.895,68 C148.569,66.075 150.177,61.575 151.47,58 C152.762,54.425 154.362,48.125 155.024,44 C155.687,39.875 156.683,35.938 157.237,35.25 Z M150.179,98.499 C152.325,95.771 152.484,95.738 160.429,96.345 C164.868,96.685 172.1,97.923 176.5,99.097 C180.9,100.27 186.3,101.562 188.5,101.966 C190.7,102.371 193.625,103.189 195,103.784 C196.375,104.378 200.2,105.636 203.5,106.578 C206.8,107.521 212.2,109.501 215.5,110.979 C221.864,113.83 234.065,118.517 237.642,119.486 C238.821,119.805 240.352,121.435 241.045,123.108 C242.197,125.89 242.088,126.367 239.765,128.69 C237.446,131.008 236.922,131.129 233.747,130.081 C231.834,129.45 228.511,129.214 226.363,129.558 C222.635,130.154 222.38,130.019 220.74,126.58 C219.587,124.162 217.786,122.447 215.261,121.362 C213.192,120.473 210.306,119.128 208.846,118.373 C207.386,117.618 205.41,117 204.456,117 C201.976,117 187.089,111.954 186.432,110.89 C186.129,110.4 184.659,110 183.163,110 C181.668,110 179.557,109.389 178.473,108.641 C176.428,107.233 163.763,104.559 153.75,103.422 C150.588,103.063 148,102.432 148,102.02 C148,101.607 148.981,100.023 150.179,98.499 Z"/>
</svg>

