<svg xmlns="http://www.w3.org/2000/svg" width="300" height="300" viewBox="0 0 300 300" version="1.1">
  <defs/>
  <path d="M140.658,97.5 C144.991,93.167 148.2,91.897 149.5,94 C149.84,94.55 150.991,95 152.059,95 C154.732,95 154.494,96.83 151.131,102.133 C149.195,105.186 146.819,107.335 143.825,108.742 C136.33,112.265 136.325,112.337 142.558,124.85 C146.688,133.143 148.594,136 149.997,136 C151.034,136 152.16,135.55 152.5,135 C152.84,134.45 153.905,134 154.867,134 C155.829,134 160.19,132.207 164.558,130.015 C175.612,124.468 179,124.845 179,131.622 C179,134.446 178.547,134.995 175.334,136.055 C173.318,136.72 170.153,138.78 168.301,140.632 C165.544,143.389 164.168,144.001 160.717,144.004 C154.852,144.009 150,147.095 150,150.819 C150,152.385 150.338,154.001 150.75,154.41 C151.39,155.045 152.573,161.499 154.434,174.5 C155.438,181.515 156.564,215.712 155.867,218 C155.064,220.632 153.364,229.429 152.195,236.998 C151.525,241.331 151.342,241.529 147.186,242.403 L142.872,243.311 L137.071,237.57 C133.88,234.412 130.301,229.89 129.117,227.519 C126.407,222.093 125.855,215.712 128.056,215.253 C130.191,214.807 133.682,218.033 135.48,222.111 C137.662,227.063 141.559,231.383 143.255,230.732 C145.678,229.803 147.189,218.555 147.11,202.037 C147.04,187.417 146.552,182.062 143.959,167.5 C143.372,164.2 142.578,159.7 142.195,157.5 C141.377,152.792 138.495,151.69 135.54,154.956 C134.522,156.08 133.14,157 132.467,157 C131.795,157 130.635,157.735 129.89,158.632 C129.145,159.53 125.153,161.94 121.018,163.987 C105.485,171.679 103.427,172.88 100.526,175.94 C97.814,178.8 92.766,182 90.965,182 C89.422,182 85.03,175.085 85.611,173.57 C85.943,172.705 88.392,170.904 91.052,169.568 C93.712,168.232 98.646,165.307 102.015,163.069 C105.385,160.831 108.359,159 108.626,159 C110.09,159 118.905,154.397 121.327,152.368 C122.881,151.066 124.739,150 125.454,150 C126.17,150 127.344,149.29 128.065,148.422 C128.785,147.554 131.54,145.747 134.187,144.405 C136.834,143.064 139,141.277 139,140.435 C139,139.593 138.1,137.041 137,134.764 C135.9,132.487 135,129.864 135,128.935 C135,128.005 134.325,126.685 133.5,126 C132.675,125.315 132,123.733 132,122.485 C132,119.105 129.685,118.824 124.311,121.551 C118.391,124.554 117.518,124.577 115.557,121.777 C113.274,118.519 113.581,115.114 116.25,114.075 C117.487,113.594 120.207,112.03 122.294,110.6 C124.381,109.17 126.503,108 127.01,108 C127.516,108 129.468,106.65 131.347,105 C133.226,103.35 135.078,102 135.461,102 C135.844,102 138.183,99.975 140.658,97.5 Z M131.309,28.25 C132.293,26.729 133.521,26.673 136.066,28.035 C138.559,29.369 138.602,33.953 136.152,37.115 C135.136,38.427 133.99,40.85 133.605,42.5 C132.532,47.098 128.038,56.54 124.615,61.391 C123.578,62.86 122.921,64.255 123.157,64.49 C123.392,64.725 126.889,65.43 130.93,66.057 C134.97,66.684 139.676,68.051 141.388,69.095 C143.099,70.138 145.124,70.994 145.886,70.996 C146.648,70.998 153.241,73.925 160.537,77.5 C167.833,81.075 174.11,84 174.485,84 C174.86,84 179.451,86.925 184.687,90.5 C189.922,94.075 194.462,97 194.774,97 C195.087,97 196.053,97.632 196.921,98.405 C197.79,99.177 201.2,101.181 204.5,102.857 C211.351,106.337 217,111.14 217,113.484 C217,115.751 212.909,121 211.142,121 C210.327,121 206.63,118.075 202.927,114.5 C199.224,110.925 195.545,108 194.752,108 C193.959,108 192.495,107.1 191.5,106 C190.505,104.9 188.991,104 188.137,104 C187.283,104 184.99,102.462 183.042,100.581 C179.982,97.627 169.78,91.806 153,83.439 C139.533,76.724 129.888,73 125.965,73 C124.884,73 123.065,72.065 121.923,70.923 C120.78,69.78 119.225,69.083 118.467,69.374 C117.709,69.665 115.475,73.188 113.502,77.202 C111.529,81.216 107.92,87.65 105.482,91.5 C103.044,95.35 101.026,99.175 100.997,100 C100.968,100.825 99.719,102.706 98.222,104.18 C96.725,105.653 94.616,108.578 93.535,110.68 C92.454,112.781 89.079,118.265 86.035,122.867 C82.991,127.469 79.6,132.739 78.5,134.578 C72.929,143.894 70.3,147.882 65.121,154.871 C62.012,159.067 58.879,163.625 58.16,165 C57.441,166.375 54.696,169.881 52.06,172.791 C48.467,176.758 46.362,178.229 43.651,178.669 C40.94,179.109 39.888,178.873 39.448,177.725 C38.796,176.026 42.514,168 43.953,168 C44.455,168 45.179,166.988 45.563,165.75 C45.947,164.512 47.89,161.624 49.88,159.332 C55.173,153.236 62.405,143.192 65.598,137.5 C66.524,135.85 68.343,133.228 69.641,131.673 C70.938,130.119 72,128.31 72,127.655 C72,127 73.8,124.285 76,121.623 C78.2,118.96 80.001,116.269 80.002,115.641 C80.003,115.014 82.062,111.369 84.577,107.543 C87.092,103.717 90.499,97.867 92.147,94.543 C94.938,88.917 98.309,83.859 101.97,79.805 C102.811,78.873 104.607,75.948 105.961,73.305 C107.315,70.662 111.027,64.58 114.211,59.788 C117.395,54.997 120,50.624 120,50.07 C120,48.86 128.156,33.124 131.309,28.25 Z M123.938,174.282 C129.828,169.688 133.864,178.618 128.508,184.396 C127.138,185.875 125.723,188.303 125.365,189.792 C124.659,192.722 116.685,203.992 114.388,205.305 C113.614,205.748 112.357,207.604 111.594,209.429 C110.831,211.255 108.087,214.943 105.496,217.624 C102.905,220.306 99.605,224.075 98.163,226 C96.721,227.925 92.671,232.387 89.163,235.917 C82.829,242.289 82.767,242.322 80.143,240.738 C75.903,238.181 76.089,234.344 80.665,229.902 C82.774,227.855 85.027,225.577 85.671,224.84 C86.315,224.103 89.015,221.379 91.671,218.787 C94.327,216.194 98.075,211.919 100,209.287 C101.925,206.654 104.513,203.38 105.75,202.01 C106.987,200.641 108,199.108 108,198.605 C108,198.101 109.046,196.296 110.324,194.594 C111.602,192.892 112.941,190.704 113.3,189.73 C114.265,187.113 122.13,175.692 123.938,174.282 Z M159.529,179.953 C161.399,176.927 177.621,182.834 202.737,195.689 C207.268,198.007 212.668,200.213 214.737,200.591 C220.677,201.674 230.902,209.633 230.968,213.224 C231,214.955 226.346,218 223.668,218 C222.881,218 221.025,216.411 219.544,214.469 C217.178,211.366 216.461,211.01 213.644,211.539 C211.171,212.003 210.008,211.667 208.564,210.07 C207.533,208.932 205.886,208 204.904,208 C203.922,208 202.857,207.578 202.539,207.063 C201.913,206.051 189.561,200 188.12,200 C187.639,200 186.685,199.325 186,198.5 C185.315,197.675 184.126,197 183.356,197 C182.587,197 180.096,195.762 177.821,194.25 C175.546,192.738 171.171,190.823 168.098,189.996 C163.2,188.678 162.292,188.026 160.726,184.699 C159.744,182.613 159.205,180.477 159.529,179.953 Z"/>
</svg>

