<svg xmlns="http://www.w3.org/2000/svg" width="300" height="300" viewBox="0 0 300 300" version="1.1">
  <defs/>
  <path d="M136.472,51.031 C137.483,49.914 138.62,49 139,49 C140.979,49 143.256,53.535 144.103,59.161 C144.628,62.647 145.629,69.295 146.329,73.933 C147.052,78.731 148.133,82.544 148.836,82.779 C149.516,83.005 152.728,80.417 155.974,77.027 C161.185,71.585 162.263,70.901 165.188,71.182 C168.218,71.473 168.526,71.815 168.808,75.208 C169.234,80.339 167.591,82.851 162.268,85.205 C159.76,86.315 155.979,89.04 153.867,91.261 L150.025,95.299 L149.898,108.235 C149.816,116.575 150.167,121.567 150.886,122.286 C151.568,122.968 152,127.611 152,134.266 C152,140.242 152.455,145.983 153.012,147.023 C153.586,148.094 155.644,149.212 157.762,149.602 C159.818,149.98 162.573,151.125 163.885,152.145 C165.197,153.165 166.949,154 167.78,154 C168.611,154 172.565,155.575 176.567,157.5 C180.569,159.425 184.168,161 184.565,161 C184.962,161 188.485,162.553 192.393,164.451 C202.851,169.529 214.516,174 217.305,174 C222.38,174 226.184,175.351 227.723,177.701 C229.177,179.919 229.173,180.415 227.672,183.562 C226.242,186.56 225.561,187 222.352,187 C220.205,187 215.548,185.518 211.179,183.444 C207.058,181.488 202.43,179.636 200.894,179.329 C199.359,179.022 197.342,177.931 196.414,176.905 C195.485,175.879 193.231,174.759 191.405,174.416 C184.588,173.137 174,167.957 174,165.901 C174,165.406 172.902,165 171.559,165 C170.216,165 168.84,164.55 168.5,164 C168.16,163.45 167.096,163 166.135,163 C165.175,163 162.864,161.875 161,160.5 C154.389,155.622 154.388,155.626 154.67,178.25 C154.809,189.387 155.139,199.4 155.403,200.5 C156.533,205.206 155.809,249.876 154.538,253.88 C153.714,256.477 149.022,259.08 146.403,258.395 C142.326,257.327 136.273,243.327 138.798,240.802 C140.28,239.32 143.082,240.597 143.722,243.046 C144.015,244.166 144.76,244.91 145.377,244.701 C146.977,244.158 146.518,173.567 144.877,167.729 C144.223,165.403 143.789,160.238 143.912,156.25 C144.121,149.461 144.001,149 142.017,149 C140.512,149 139.446,150.087 138.34,152.75 C136.529,157.108 122.161,179 121.111,179 C120.721,179 119.808,180.688 119.081,182.75 C118.355,184.813 116.945,187.4 115.947,188.5 C114.949,189.6 113.635,191.625 113.027,193 C109.876,200.12 105.939,206.258 100.89,211.921 C95.932,217.483 94.768,218.272 90.878,218.71 C87.466,219.095 85.924,218.759 84.021,217.218 C81.983,215.567 81.779,214.971 82.823,213.713 C83.516,212.879 85.145,211.93 86.443,211.604 C87.742,211.278 90.79,208.803 93.216,206.105 C97.601,201.228 108.981,183.143 112.475,175.5 C113.481,173.3 115.585,169.935 117.152,168.022 C118.718,166.109 120,164.165 120,163.702 C120,163.239 121.35,160.898 123,158.5 C124.65,156.102 126,153.709 126,153.182 C126,152.655 127.591,149.912 129.535,147.086 C131.479,144.259 133.503,140.946 134.032,139.723 C134.562,138.501 135.403,136.825 135.901,136 C136.399,135.175 137.374,132.581 138.068,130.236 C138.762,127.89 139.93,125.473 140.665,124.863 C142.195,123.593 142.409,117.139 141.091,112 C140.598,110.075 139.917,107.263 139.578,105.75 C138.834,102.429 136.796,102.23 134.022,105.207 C132.209,107.152 128.496,108.614 120.073,110.7 C118.738,111.031 116.059,112.378 114.12,113.693 C109.43,116.876 107.108,116.363 105.27,111.737 C103.354,106.913 104.358,105.619 111.661,103.496 C118.466,101.518 130.126,95.904 134.741,92.384 L138.205,89.742 L137.588,83.121 C137.249,79.479 136.445,71.226 135.803,64.781 C134.715,53.867 134.761,52.922 136.472,51.031 Z M71.006,77.492 C71.715,76.638 73.009,76.444 74.791,76.925 C77.354,77.615 77.498,77.972 77.468,83.577 C77.43,90.6 75.409,100.921 72.98,106.5 C72.022,108.7 68.732,118.015 65.668,127.2 C62.605,136.386 59.13,146.286 57.946,149.2 C56.762,152.115 55.446,155.4 55.021,156.5 C54.597,157.6 53.755,159.732 53.151,161.238 C51.861,164.458 52.413,166.411 54.957,167.623 C55.969,168.105 58.674,170.215 60.969,172.311 C65.535,176.482 68,183.202 68,191.476 C68,195.015 67.495,196.252 65.365,197.927 C60.297,201.914 57.538,199.54 57.425,191.096 C57.351,185.52 55.488,180.48 52.625,178.104 C51.392,177.08 50.588,177.245 48.204,179.007 C43.866,182.215 39.855,181.429 38.755,177.155 C38.141,174.771 38.29,173.192 39.272,171.655 C40.031,170.47 41.254,167.25 41.991,164.5 C42.728,161.75 43.932,158.612 44.666,157.527 C45.4,156.443 46,154.779 46,153.83 C46,152.882 47.125,149.99 48.5,147.404 C49.875,144.818 51,141.671 51,140.41 C51,139.149 51.392,137.876 51.871,137.58 C52.35,137.284 52.998,135.758 53.312,134.188 C53.626,132.619 55.221,128.447 56.856,124.917 C58.49,121.388 60.064,117.375 60.353,116 C60.642,114.625 62.443,108.775 64.355,103 C67.906,92.277 70.683,81.179 70.199,79.645 C70.051,79.174 70.414,78.206 71.006,77.492 Z"/>
</svg>

