<svg xmlns="http://www.w3.org/2000/svg" width="300" height="300" viewBox="0 0 300 300" version="1.1">
  <defs/>
  <path d="M144.978,47.49 C147.465,46.807 149.7,46.192 149.945,46.124 C151.006,45.829 156,51.527 156,53.032 C156,55.524 153.062,57.581 147.605,58.91 C144.912,59.566 139.997,61.204 136.682,62.551 C133.367,63.898 129.608,65 128.328,65 C125.677,65 125.372,65.78 127.395,67.39 C128.771,68.485 136,85.4 136,87.524 C136,88.126 136.594,89.43 137.32,90.423 C138.58,92.145 138.891,92.111 144.07,89.675 C149.314,87.209 149.704,87.169 155.433,88.513 C159.335,89.428 162.33,90.868 164.181,92.719 C166.822,95.361 167.018,96.145 167.377,105.517 C167.587,111.007 167.32,116.625 166.784,118 C166.247,119.375 165.512,122.525 165.149,125 C164.655,128.374 163.917,129.75 162.198,130.5 C160.152,131.393 159.935,132.092 160.177,137.018 C160.543,144.479 158.398,148.606 150.75,155.151 C142.625,162.105 142.333,162.52 141.005,169 C140.385,172.025 139.206,177.65 138.384,181.5 C137.562,185.35 136.653,190.75 136.364,193.5 L135.839,198.5 L143.669,201.314 C147.976,202.861 152.4,204.536 153.5,205.036 C154.6,205.536 157.938,206.881 160.918,208.024 C163.898,209.168 167.498,210.888 168.918,211.846 C172.093,213.989 182.528,219 183.815,219 C184.332,219 185.27,219.621 185.9,220.379 C186.53,221.138 188.405,222.031 190.068,222.364 C191.731,222.696 194.576,224.101 196.39,225.484 C198.205,226.868 200.189,228 200.8,228 C201.412,228 204.294,229.412 207.206,231.138 C210.118,232.864 214.43,234.5 216.788,234.773 C219.677,235.107 222.091,236.217 224.187,238.174 L227.297,241.08 L224.568,243.929 C222.191,246.41 221.163,246.757 216.601,246.616 C212.346,246.486 210.597,245.849 207.287,243.228 C205.046,241.452 202.874,240 202.46,240 C202.046,240 199.334,238.425 196.434,236.5 C193.534,234.575 190.026,233 188.64,233 C187.253,233 185.809,232.501 185.432,231.891 C185.055,231.28 179.685,228.357 173.498,225.394 C167.312,222.43 161.735,219.386 161.106,218.628 C160.477,217.87 158.077,216.948 155.774,216.58 C151.454,215.889 145.742,213.458 140.5,210.08 C134.188,206.012 130.157,207.688 126.948,215.716 C123.9,223.341 118.07,232.157 115.094,233.64 C113.784,234.293 111.765,235.974 110.606,237.375 C107.036,241.694 99.039,245 92.164,245 C88.839,245 85.865,244.591 85.556,244.09 C84.507,242.393 86.21,239.985 88.86,239.419 C99.832,237.075 110.637,227.543 117.36,214.277 C121.383,206.337 121.02,204.633 114.885,202.652 C112.072,201.743 108.973,201 107.999,201 C107.025,201 102.465,199.652 97.864,198.005 C93.264,196.358 88.138,195.008 86.473,195.005 C79.703,194.994 76.452,188.716 81.502,185.407 C82.909,184.485 84.987,184.007 86.252,184.314 C89.207,185.033 94.227,186.448 101,188.473 C110.793,191.4 121.444,193.984 123.75,193.992 C125.493,193.998 126,193.429 126,191.468 C126,190.075 126.605,187.488 127.343,185.718 C129.414,180.76 130.411,169.999 128.8,170.003 C128.085,170.004 124.028,172.254 119.784,175.003 C115.54,177.751 111.462,180 110.722,180 C108.51,180 104.843,174.189 105.188,171.229 C105.458,168.908 106.096,168.444 109.911,167.797 C112.336,167.386 115.936,165.965 117.911,164.64 C119.885,163.315 122.732,161.946 124.237,161.599 C129.362,160.418 132.259,152.91 131.274,143.364 C130.688,137.693 129.402,136.866 127.389,140.867 C126.777,142.083 125.45,143.681 124.439,144.421 C123.037,145.446 122.59,147.127 122.551,151.517 C122.515,155.625 122.049,157.556 120.922,158.271 C118.65,159.713 114,156.463 114,153.434 C114,150.443 111.322,140.113 110.163,138.631 C109.676,138.009 109.031,135.925 108.73,134 C108.223,130.765 99.295,115.918 97.004,114.503 C96.452,114.161 96,112.559 96,110.941 C96,108.26 96.302,108 99.415,108 C102.357,108 103.338,108.693 106.5,113 C108.519,115.75 110.829,118 111.634,118 C112.439,118 113.878,116.258 114.831,114.129 C115.784,111.999 119.362,107.502 122.782,104.135 C128.288,98.714 129,97.568 129,94.129 C129,91.896 128.362,89.716 127.5,89 C126.675,88.315 125.986,87.248 125.969,86.628 C125.952,86.007 124.831,83.25 123.478,80.5 C122.045,77.587 121.014,73.726 121.009,71.25 C121.004,68.738 121.02,67.57 120.515,67.265 C120.065,66.993 119.2,67.407 117.537,68.165 C115.322,69.174 114.648,69.018 112.49,66.991 C106.785,61.631 110.779,57.189 123.661,54.566 C128.149,53.652 133.764,51.966 136.139,50.819 C138.514,49.671 142.491,48.174 144.978,47.49 Z M70.105,73.914 C75.622,70.421 80.836,79.672 78.132,88.155 C77.545,89.995 76.351,94.2 75.477,97.5 C74.604,100.8 72.789,106.975 71.445,111.223 C70.1,115.471 69,119.999 69,121.285 C69,122.572 68.1,125.487 67,127.764 C65.9,130.041 65,132.643 65,133.547 C65,134.452 64.261,136.611 63.357,138.346 C60.331,144.156 60,144.965 60,146.549 C60,148.782 57.154,157.69 54.744,163 C53.621,165.475 52.487,169.75 52.225,172.5 C51.962,175.25 51.29,178.073 50.731,178.774 C50.172,179.475 49.892,180.169 50.107,180.317 C50.323,180.464 52.587,181.623 55.137,182.892 C57.938,184.285 60.794,186.755 62.348,189.13 C64.664,192.667 64.916,193.998 64.865,202.416 C64.832,207.749 65.31,212.71 65.975,213.953 C66.907,215.695 66.832,216.574 65.605,218.317 C61.49,224.162 61.114,224.426 58.329,223.443 C55.496,222.442 51.868,217.179 52.853,215.5 C53.176,214.95 53.745,212.25 54.118,209.5 C54.491,206.75 55.128,202.795 55.535,200.711 C56.156,197.526 55.906,196.528 53.963,194.461 C51.016,191.324 48.051,191.347 43.342,194.543 C38.722,197.678 35.858,197.406 34.564,193.711 C33.546,190.808 33.828,189.977 39.592,178.853 C40.916,176.297 42,173.345 42,172.294 C42,171.242 42.661,169.509 43.468,168.441 C44.276,167.374 44.951,165.488 44.968,164.25 C44.986,163.012 45.45,162 46,162 C46.55,162 47,161.356 47,160.569 C47,158.86 51.808,143.239 53.097,140.764 C53.593,139.809 54,138.294 54,137.398 C54,135.63 56.751,126.574 58.141,123.764 C58.613,122.809 59,121.207 59,120.205 C59,119.202 59.661,117.509 60.468,116.441 C61.276,115.374 61.951,113.353 61.968,111.95 C61.986,110.548 62.415,108.973 62.923,108.45 C63.431,107.928 64.386,104.575 65.046,101 C65.707,97.425 66.627,93.6 67.091,92.5 C67.556,91.4 68.11,86.967 68.323,82.648 C68.584,77.369 69.167,74.508 70.105,73.914 Z M151.5,99 C151.16,99.55 149.896,100.01 148.691,100.022 C143.771,100.072 139.759,105.743 140.671,111.359 C141.337,115.463 141.636,115.592 145.636,113.506 C149.028,111.737 153.158,111.558 154.713,113.113 C156.713,115.113 158,112.98 158,107.663 C158,104.559 157.369,101.545 156.443,100.223 C154.803,97.88 152.538,97.32 151.5,99 Z M125.387,114.35 C123.674,115.533 121.527,117.792 120.614,119.37 C119.204,121.811 118.508,122.152 115.977,121.645 C112.417,120.933 111.958,122.747 115,125.5 C116.1,126.495 117,128.365 117,129.655 C117,133.909 120.993,132.552 126.308,126.493 C130.634,121.56 131.085,120.592 130.808,116.833 C130.443,111.888 129.547,111.477 125.387,114.35 Z M144.763,126.542 C143.257,127.372 141.824,129.052 141.577,130.275 C140.659,134.826 140.105,143.109 140.626,144.468 C141.435,146.575 144,145.115 144,142.548 C144,141.317 144.9,139.495 146,138.5 C147.1,137.505 148,136.037 148,135.239 C148,134.442 149.144,132.43 150.541,130.768 C151.939,129.107 152.917,127.242 152.714,126.624 C152.15,124.902 147.819,124.857 144.763,126.542 Z"/>
</svg>

