<svg xmlns="http://www.w3.org/2000/svg" width="300" height="300" viewBox="0 0 300 300" version="1.1">
  <defs/>
  <path d="M139.035,36.934 C140.273,34.621 145.186,34.315 146.951,36.44 C147.608,37.233 148.001,38.92 147.823,40.19 C147.543,42.191 147.879,42.46 150.336,42.199 C154.229,41.785 156,43.573 156,47.914 C156,50.942 155.213,52.356 151.5,56 C149.008,58.445 147,61.35 147,62.508 C147,63.659 146.512,65.088 145.916,65.684 C145.319,66.281 144.588,69.633 144.291,73.134 C143.989,76.699 142.926,80.872 141.876,82.618 C140.844,84.333 140,86.477 140,87.382 C140,88.287 139.616,89.809 139.147,90.764 C138.678,91.719 137.612,94.075 136.778,96 C134.058,102.278 132.969,104.44 130.483,108.5 C127.616,113.181 127.47,114 129.505,114 C131.947,114 152.792,103.253 156.28,100.196 C157.633,99.01 158.714,98.864 160.78,99.586 C163.064,100.385 163.549,101.199 163.802,104.663 C164.064,108.234 163.727,109.044 161.302,110.681 C158.484,112.583 154.211,114.672 150.5,115.963 C145.457,117.718 129.222,126.49 126.762,128.79 C125.257,130.198 123.744,132.846 123.401,134.675 C123.058,136.504 122.41,138 121.961,138 C121.511,138 120.827,140.588 120.44,143.75 C120.053,146.912 118.896,150.694 117.868,152.154 C116.841,153.614 116,156.175 116,157.845 C116,159.515 115.55,161.16 115,161.5 C114.45,161.84 113.986,163.554 113.968,165.309 C113.951,167.064 113.276,169.374 112.468,170.441 C111.661,171.509 111,173.127 111,174.037 C111,174.948 110.293,177.109 109.43,178.841 C107.231,183.248 107.942,186.074 111.817,188.331 L115.134,190.262 L118.317,187.265 C121.931,183.862 133.004,177.225 137.5,175.768 C146.981,172.696 158.138,171.425 162.958,172.869 C165.841,173.733 167.042,174.907 168.849,178.626 C170.842,182.728 170.967,183.677 169.87,186.399 C169.184,188.105 167.161,191.235 165.375,193.355 C163.589,195.476 161.403,198.738 160.517,200.605 C159.631,202.472 158.557,204 158.131,204 C156.816,204 151.863,212.266 152.706,213.053 C153.143,213.459 156.333,213.324 159.795,212.751 C164.507,211.972 167.148,212.022 170.295,212.951 C176.691,214.841 177.475,215.449 177.809,218.789 C178.301,223.713 175.224,225.104 166.329,223.981 C160.529,223.248 158.567,223.369 156.07,224.615 C154.149,225.573 151.88,225.913 150.064,225.514 C148.228,225.111 146.025,225.453 144.123,226.437 C142.46,227.296 139.529,228 137.609,228 C135.689,228 133.849,228.435 133.52,228.967 C133.191,229.499 131.644,229.679 130.083,229.367 C128.481,229.046 126.946,229.278 126.562,229.899 C124.882,232.618 119,229.475 119,225.858 C119,224.807 120.707,222.947 123,221.5 C127.665,218.555 127.902,217.497 124.5,214.821 C122.624,213.346 122,211.915 122,209.091 C122,205.754 121.428,204.884 116.956,201.414 C114.182,199.261 110.589,196.453 108.971,195.174 C104.65,191.756 102.603,192.589 102,198.009 C101.725,200.479 100.749,203.625 99.831,205 C98.914,206.375 97.633,209.509 96.985,211.965 C96.337,214.42 94.951,217.519 93.904,218.85 C92.857,220.181 92,222.082 92,223.076 C92,224.069 91.55,225.16 91,225.5 C90.45,225.84 90,227.182 90,228.482 C90,229.783 88.875,232.184 87.5,233.818 C86.087,235.497 85,238.054 85,239.697 C85,241.365 83.702,244.371 81.958,246.742 C80.285,249.017 78.593,252.773 78.198,255.089 C77.361,259.989 73.495,263.609 70.213,262.567 C67.264,261.632 66.832,259.491 68.63,254.72 C71.1,248.166 75.029,240.1 76.064,239.46 C76.579,239.142 77,237.614 77,236.063 C77,234.513 77.714,232.653 78.586,231.929 C80.163,230.62 83.324,224.32 84.321,220.5 C85.557,215.763 90.244,203.394 92.593,198.669 C93.367,197.112 94,195.001 94,193.978 C94,192.955 94.4,191.871 94.89,191.568 C95.379,191.266 96.012,189.552 96.296,187.759 C96.878,184.083 100.71,172.931 103.887,165.667 C105.049,163.009 106,159.29 106,157.404 C106,155.517 106.384,153.191 106.853,152.236 C108.605,148.669 110.75,143.379 111.956,139.651 C113.602,134.564 112.313,133.198 107.931,135.385 C106.15,136.273 104.044,137 103.251,137 C102.458,137 100.538,137.905 98.984,139.011 C97.43,140.118 93.761,141.769 90.83,142.68 C87.898,143.592 84.571,145.162 83.436,146.169 C82.3,147.176 80.643,148 79.754,148 C77.979,148 74,143.018 74,140.796 C74,138.778 76.081,137.001 78.45,136.994 C79.577,136.99 81.671,136.377 83.102,135.63 C84.532,134.884 89.932,132.817 95.102,131.039 C103.464,128.162 108.601,125.545 115.656,120.569 C117.244,119.449 117.95,117.657 118.334,113.774 C119.814,98.82 121.85,94 126.686,94 C128.07,94 129.296,93.269 129.622,92.25 C129.93,91.287 130.565,89.6 131.034,88.5 C131.503,87.4 132.087,84.7 132.332,82.5 C132.577,80.3 133.517,75.601 134.422,72.058 C136.544,63.745 135.974,62.026 132.137,65.163 C130.564,66.448 127.302,68.661 124.889,70.079 C120.798,72.484 120.378,73.137 118.701,79.701 C116.65,87.732 113.524,91.619 110.013,90.504 C108.549,90.039 108.054,89.3 108.475,88.205 C108.816,87.317 109.345,84.764 109.651,82.532 L110.207,78.473 L104.087,78.332 C98.993,78.215 97.796,78.513 96.942,80.109 C95.29,83.196 92,80.808 92,76.522 C92,72.924 94.775,70 98.189,70 C100.302,70 106.839,67.125 109.25,65.135 C111.161,63.558 111.537,59.871 110.067,57.126 C109.555,56.168 108.73,52.364 108.236,48.674 C107.535,43.445 107.631,41.721 108.669,40.86 C109.654,40.043 110.447,40.112 111.718,41.128 C116.225,44.729 117.869,47.672 118.531,53.322 C118.978,57.135 119.738,59.346 120.734,59.728 C121.571,60.049 125.51,58.702 129.487,56.734 C137.323,52.857 138,51.749 138,42.809 C138,40.642 138.466,37.998 139.035,36.934 Z M59.758,65.25 C62.36,61.273 67.345,62.973 68.389,68.194 C69.022,71.362 66.699,81.359 64.843,83.45 C64.379,83.972 64,85.38 64,86.578 C64,87.775 63.325,89.315 62.5,90 C61.675,90.685 61,92.17 61,93.301 C61,95.532 59.487,100.643 57.337,105.67 C56.592,107.414 55.704,110.339 55.365,112.17 C54.516,116.752 51.468,125.879 49.578,129.5 C48.717,131.15 48.01,133.187 48.006,134.027 C48.003,134.868 47.345,136.49 46.545,137.632 C44.591,140.422 42.033,147.927 42.015,150.921 C42.007,152.253 41.387,154.053 40.637,154.921 C39.888,155.79 38.999,157.963 38.662,159.75 L38.05,163 L49.925,163 L53.773,168.75 C55.888,171.912 58.173,176.412 58.85,178.75 C59.527,181.088 60.512,183 61.04,183 C62.614,183 62.13,185.185 60.25,186.561 C58.859,187.58 58.5,189.347 58.5,195.172 L58.5,202.5 L54.618,202.818 C52.483,202.993 50.315,202.715 49.8,202.2 C49.285,201.685 48.656,195.975 48.403,189.512 C47.878,176.137 47.147,174 43.099,174 C38.926,174 30,181.51 30,185.022 C30,186.489 29.1,188.505 28,189.5 C26.9,190.495 26,192.14 26,193.155 C26,194.632 25.224,195 22.107,195 C19.48,195 18.017,194.486 17.607,193.418 C17.383,192.833 17.195,192.359 17.088,191.867 C16.584,189.556 17.857,186.857 25.444,170.5 C27.23,166.65 29.973,159.45 31.539,154.5 C33.106,149.55 34.725,144.825 35.137,144 C35.549,143.175 36.748,139.8 37.801,136.5 C43.637,118.215 45.052,114.057 46.824,110 C47.425,108.625 48.43,105.475 49.058,103 C49.685,100.525 50.789,97.375 51.51,96 C53.769,91.691 57.319,78.739 57.813,73 C58.073,69.975 58.948,66.487 59.758,65.25 Z M151.024,182.096 C149.661,182.65 147.618,182.87 146.483,182.585 C145.348,182.3 142.964,182.952 141.185,184.034 C139.407,185.115 136.665,186 135.092,186 C133.025,186 131.231,187.109 128.616,190.003 C126.627,192.204 125,194.454 125,195.002 C125,195.55 126.8,197.852 129,200.119 C132.43,203.654 133,204.865 133,208.621 C133,211.73 133.41,213 134.415,213 C138.551,213 158.439,188.097 157.813,183.702 C157.456,181.193 154.793,180.563 151.024,182.096 Z"/>
</svg>

