<svg xmlns="http://www.w3.org/2000/svg" width="300" height="300" viewBox="0 0 300 300" version="1.1">
  <defs/>
  <path d="M136.602,46.025 C141.622,43.52 143.613,43.579 148.5,46.376 C155.285,50.26 157.875,55.084 158.639,65.262 C159.301,74.082 157.598,96.695 155.985,100.5 C155.519,101.6 154.856,104.625 154.511,107.223 C153.819,112.446 151.745,114.518 144.174,117.547 C141.858,118.474 139.043,120.402 137.918,121.831 C136.182,124.038 135.169,124.4 131.187,124.232 C123.964,123.928 121.087,123.03 119.834,120.689 C119.201,119.508 118.332,113.582 117.902,107.52 C116.977,94.487 114.361,74.936 112.882,70 C110.151,60.889 109.148,54.527 110.324,53.778 C112.583,52.342 113.801,53.177 116.913,58.297 C119.37,62.338 120.865,62.603 122.532,59.292 C124.279,55.821 132.494,48.075 136.602,46.025 Z M171.748,123.54 C174.912,121.088 178.247,119.063 179.161,119.04 C181.102,118.993 186.244,124.729 185.736,126.376 C185.546,126.994 182.074,129.188 178.022,131.252 C173.969,133.315 169.909,135.678 168.998,136.502 C168.087,137.326 166.745,138 166.016,138 C165.286,138 163.252,139.096 161.496,140.435 C159.741,141.774 156.098,144.094 153.402,145.591 C150.706,147.088 146.55,150.02 144.166,152.106 C141.782,154.193 138.222,156.432 136.255,157.081 C132.941,158.175 121.788,165.915 120.482,168.029 C120.167,168.539 120.372,175.154 120.938,182.728 C121.504,190.303 122.238,201.675 122.57,208 C123.117,218.432 124.458,223.661 125.711,220.242 C125.964,219.551 128.864,216.913 132.154,214.382 C135.444,211.85 139.343,208.649 140.818,207.269 C145.117,203.247 149.596,200 150.844,200 C152.26,200 152.386,203.643 151,204.5 C150.45,204.84 150,205.805 150,206.645 C150,207.484 147.246,210.72 143.881,213.836 C140.515,216.951 134.449,222.725 130.401,226.666 C122.929,233.94 118.006,236.405 115.651,234.052 C114.858,233.259 114.449,225.566 114.335,209.302 C114.164,184.793 112.934,173.572 110.309,172.565 C109.489,172.25 107.622,172.829 106.159,173.851 C104.697,174.872 102.275,176.004 100.779,176.366 C99.282,176.728 97.579,177.918 96.994,179.012 C96.408,180.105 95.383,181 94.715,181 C94.047,181 91.025,182.332 88,183.961 C84.975,185.589 81.69,186.938 80.7,186.96 C79.711,186.982 77.511,187.719 75.812,188.597 C71.746,190.7 68,189.213 68,185.497 C68,184.858 67.993,184.371 68.145,183.94 C68.649,182.512 70.907,181.703 81,178.013 C85.125,176.504 90.525,174.123 93,172.72 C95.475,171.317 101.089,168.307 105.475,166.03 C109.861,163.754 113.686,161.578 113.975,161.196 C114.264,160.813 116.279,159.6 118.453,158.5 C120.628,157.4 123.723,155.399 125.332,154.053 C126.941,152.707 130.337,150.573 132.878,149.311 C135.42,148.049 139.975,145.005 143,142.548 C146.025,140.091 149.004,138.063 149.62,138.041 C150.236,138.018 153.827,135.75 157.599,133 C161.371,130.25 164.803,128 165.227,128 C165.65,128 168.584,125.993 171.748,123.54 Z M68.565,75.25 C69.079,73.525 73.487,73.677 74.976,75.471 C76.118,76.847 76.066,79.508 74.687,90.5 C74.48,92.15 73.568,94.85 72.661,96.5 C71.754,98.15 71.01,100.316 71.006,101.314 C71.003,102.312 69.875,105.588 68.5,108.594 C67.125,111.6 65.997,115.058 65.993,116.28 C65.99,117.501 65.106,119.836 64.029,121.469 C62.911,123.166 62.299,125.342 62.6,126.544 C62.912,127.784 62.486,129.181 61.564,129.947 C60.704,130.661 60,132.445 60,133.911 C60,135.377 59.1,138.342 58,140.5 C56.9,142.658 56,144.971 56,145.64 C56,146.309 55.415,147.452 54.699,148.179 C53.474,149.423 51.846,154.275 48.404,166.943 C47.591,169.936 46.442,172.968 45.851,173.68 C44.2,175.668 45.642,178 48.522,178 C51.466,178 57.001,181.46 59.85,185.082 C67.761,195.139 63.314,227.024 55.044,219.54 C53.648,218.276 53.181,217.006 53.612,215.647 C55.266,210.437 53.559,192.444 51.149,189.68 C49.922,188.272 48.762,188.009 46.031,188.519 C44.089,188.882 41.947,189.636 41.271,190.195 C39.501,191.657 37,196.974 37,199.274 C37,202.283 31.782,209.913 29.252,210.603 C25.094,211.737 23.75,210.422 24.286,205.743 C24.857,200.755 27.036,192.715 28.011,192 C28.385,191.725 29.012,190.15 29.404,188.5 C29.795,186.85 31.439,182.931 33.058,179.791 C34.676,176.651 36.014,173.276 36.032,172.291 C36.049,171.306 36.724,169.626 37.532,168.559 C38.339,167.491 39,165.579 39,164.309 C39,163.039 39.357,162 39.793,162 C40.229,162 41.14,159.924 41.819,157.388 C42.497,154.851 43.908,150.898 44.953,148.603 C45.999,146.308 47.174,143.096 47.565,141.465 C47.956,139.834 48.549,138.05 48.882,137.5 C49.52,136.445 50.582,132.958 53.756,121.5 C54.823,117.65 56.662,112.925 57.844,111 C59.026,109.075 60.009,106.6 60.029,105.5 C60.065,103.543 62.944,94.479 64.159,92.5 C64.497,91.95 65.543,88.125 66.483,84 C67.424,79.875 68.361,75.938 68.565,75.25 Z M170.551,147.604 C173.88,143.972 177.064,141 177.627,141 C178.19,141 179.664,142.078 180.902,143.396 C184.161,146.865 183.469,151.183 179.443,152.5 C177.762,153.05 173.77,156.31 170.572,159.743 C167.374,163.177 163.124,166.968 161.129,168.167 C159.133,169.366 155.963,171.844 154.083,173.674 C152.204,175.503 149.842,177 148.833,177 C145.47,177 146.944,179.666 152.066,182.851 C154.853,184.583 157.584,186 158.136,186 C158.688,186 161.021,187.288 163.32,188.863 C165.619,190.438 168.462,192.027 169.638,192.395 C172.549,193.305 190.672,205.109 195,208.912 C196.925,210.604 199.971,213.371 201.768,215.062 C208.464,221.359 219.213,228 222.709,228 C225.001,228 226.258,228.554 226.68,229.75 C227.02,230.713 228.11,232.407 229.103,233.515 C230.096,234.624 230.591,236.019 230.204,236.616 C227.869,240.215 218.978,241.229 216.807,238.144 C216.088,237.123 213.613,235.327 211.306,234.152 C209,232.978 205.579,230.438 203.705,228.508 C201.831,226.579 199.803,225 199.199,225 C198.594,225 197.74,224.434 197.3,223.743 C195.069,220.237 178.25,207 176.027,207 C175.546,207 173.881,205.948 172.327,204.662 C170.772,203.376 166.501,200.919 162.834,199.203 C159.168,197.487 155.901,195.648 155.573,195.118 C155.245,194.588 153.663,193.865 152.058,193.513 C150.452,193.16 148.63,192.259 148.01,191.512 C146.799,190.053 134.796,184 133.115,184 C130.833,184 127.095,179.353 127.655,177.212 C128.253,174.925 128.784,174.669 136.401,172.999 C139.096,172.408 142.618,170.816 144.228,169.462 C145.837,168.108 147.585,167 148.112,167 C149.769,167 164.237,154.495 170.551,147.604 Z M135.5,54.707 C133.85,55.574 132.095,56.974 131.601,57.819 C131.106,58.665 128.927,60.995 126.757,62.998 L122.813,66.64 L123.337,73.07 C124.561,88.113 125.494,89.323 131.576,83.75 C134.914,80.691 135.073,80.264 134.281,76.5 C133.818,74.3 133.601,69.773 133.799,66.441 C134.082,61.667 134.591,60.112 136.197,59.109 C139.182,57.245 140.263,58.862 142,67.79 C143.645,76.243 144.941,77.298 148.246,72.873 C149.961,70.575 150.1,69.459 149.354,63.976 C148.672,58.973 147.995,57.353 146,55.952 C142.288,53.346 138.864,52.939 135.5,54.707 Z M126.412,99.369 C126.123,100.122 126.024,103.156 126.193,106.11 C126.439,110.408 126.871,111.552 128.356,111.834 C131.081,112.353 131.721,111.181 132.497,104.25 L133.196,98 L130.067,98 C128.34,98 126.702,98.614 126.412,99.369 Z M143.324,87.25 C142.221,89.738 142.786,103 143.994,103 C145.83,103 146.784,99.974 147.226,92.75 C147.641,85.955 147.492,85 146.01,85 C145.081,85 143.872,86.013 143.324,87.25 Z"/>
</svg>

