<svg xmlns="http://www.w3.org/2000/svg" width="300" height="300" viewBox="0 0 300 300" version="1.1">
  <defs/>
  <path d="M140.872,26.661 C143.933,22.957 148,26.377 148,32.655 C148,37.604 149.182,38.075 155.245,35.542 C158.161,34.324 159.032,34.303 160.55,35.413 C162.298,36.691 162.286,36.928 160.255,41.621 C158.527,45.613 157.676,46.508 155.575,46.546 C151.717,46.616 150.635,48.376 150.194,55.295 C149.875,60.302 150.136,61.868 151.473,62.978 C152.924,64.182 153.631,64.115 156.651,62.488 C161.411,59.925 163.404,61.257 163.801,67.264 C164.06,71.176 163.705,72.192 161.308,74.415 C158.935,76.616 158.702,77.269 159.759,78.753 C162.809,83.031 163.085,85.072 161.008,87.989 C159.903,89.54 159,91.697 159,92.782 C159,93.867 158.342,95.301 157.539,95.968 C156.735,96.635 155.784,98.152 155.426,99.34 C155.068,100.528 153.747,102.625 152.49,104 C149.968,106.759 146,113.839 146,115.58 C146,116.191 145.1,117.505 144,118.5 C142.9,119.495 142,120.855 142,121.521 C142,122.187 139.525,125.307 136.5,128.456 C133.475,131.604 131,134.364 131,134.59 C131,135.936 136.646,134.618 140.029,132.482 C142.222,131.097 146.215,129.098 148.901,128.039 C151.587,126.98 156.02,124.738 158.753,123.057 C162.369,120.832 164.951,120 168.238,120 C173.768,120 175.59,121.729 174.263,125.716 C173.514,127.97 172.591,128.604 169.419,129.046 C165.092,129.649 160.431,132.326 158.977,135.043 C158.372,136.174 158.423,137.916 159.122,139.919 C159.719,141.633 159.939,144.108 159.609,145.42 C158.676,149.14 159.991,154 161.931,154 C162.855,154 165.136,152.875 167,151.5 C168.864,150.125 171.097,149 171.962,149 C172.828,149 175.191,147.875 177.215,146.5 C179.238,145.125 181.566,144 182.388,144 C183.21,144 184.136,143.589 184.446,143.088 C185.43,141.495 199.822,134 201.896,134 C202.991,134 204.585,134.997 205.439,136.216 C206.916,138.325 206.786,138.643 202.746,142.765 C198.403,147.195 193.94,149.978 191.096,150.028 C190.218,150.044 187.475,151.159 185,152.508 C178.456,156.073 169.926,159.994 168.626,160.036 C168.007,160.056 166.186,161.146 164.58,162.459 C161.19,165.231 161.155,166.047 163.178,195.278 C164.099,208.596 164.071,214.372 163.044,223.278 C162.331,229.45 161.534,241.025 161.271,249 C160.633,268.4 160.484,270.91 159.723,275 C159.364,276.925 158.856,283.225 158.593,289 C158.33,294.775 158.089,299.613 158.057,299.75 C158.026,299.887 156.018,300 153.595,300 L149.19,300 L149.659,293.75 C149.917,290.313 150.812,280.3 151.647,271.5 C152.862,258.701 153.997,239.573 155.119,213 C155.594,201.745 152.614,171.498 150.927,170.455 C150.493,170.187 145.771,172.225 140.434,174.984 C135.096,177.743 130.046,180 129.211,180 C128.376,180 125.4,181.084 122.596,182.409 C119.793,183.734 115.7,185.143 113.5,185.54 C111.3,185.936 109.05,186.612 108.5,187.042 C107.95,187.471 105.25,188.268 102.5,188.812 C99.75,189.357 96.083,190.378 94.351,191.082 C91.643,192.183 90.838,192.124 88.601,190.658 C83.698,187.446 86.452,180.54 92.178,181.686 C95.35,182.32 100.91,180.974 107.777,177.909 C110.129,176.859 113.003,176 114.164,176 C115.324,176 119.925,174.228 124.387,172.062 C128.849,169.896 136.315,166.495 140.978,164.503 C145.641,162.511 149.796,160.345 150.212,159.69 C151.258,158.047 151.185,153.432 150.045,149.116 C149.52,147.127 148.837,144.262 148.526,142.75 C147.869,139.548 146.016,139.22 143.609,141.88 C142.673,142.913 140.199,144.032 138.111,144.366 C136.023,144.7 132.312,145.859 129.865,146.942 C127.417,148.024 123.565,149.206 121.303,149.568 C117.799,150.128 117.029,149.922 116.095,148.178 C114.383,144.978 114.796,142.099 117.312,139.702 C118.583,138.491 122.482,133.717 125.976,129.093 L132.329,120.686 L128.75,117.814 C126.084,115.676 124.834,113.63 123.852,109.8 C122.827,105.798 121.833,104.244 119.374,102.793 C113.788,99.497 114.173,92.89 120.15,89.5 C126.99,85.62 137.25,77.3 138.743,74.421 C139.291,73.365 140.047,68.154 140.423,62.842 C141.152,52.547 140.405,50.419 137.108,53.402 C136.137,54.281 134.617,55 133.73,55 C132.844,55 131.84,55.45 131.5,56 C130.473,57.661 126.423,57.125 124.575,55.082 C121.132,51.279 122.815,48.939 131.5,45.455 L139.5,42.246 L139.5,35.284 C139.5,30.856 140,27.717 140.872,26.661 Z M66.655,68.829 C68.707,66.561 70.348,66.509 72.128,68.655 C75.137,72.284 72.352,110.649 68.533,118.179 C67.607,120.006 66.595,123.862 66.284,126.75 C65.974,129.637 65.416,132 65.044,132 C64.104,132 60.337,141.474 58.88,147.5 C58.215,150.25 57.113,153.4 56.431,154.5 C55.749,155.6 54.889,158.798 54.521,161.607 C53.868,166.586 53.935,166.769 57.176,168.852 C64.681,173.677 66.39,174.951 67.034,176.195 C70.455,182.811 70.93,207.21 67.706,210.772 C66.768,211.809 66,213.354 66,214.206 C66,215.058 65.331,216.311 64.513,216.989 C60.919,219.972 56.634,213.926 59.086,209.333 C60.099,207.434 60.467,203.319 60.384,194.818 C60.287,184.931 59.969,182.624 58.479,180.977 C57.495,179.889 55.875,179 54.88,179 C52.134,179 46.267,184.662 44.983,188.55 C43.819,192.078 40.61,193.832 37.502,192.639 C35.575,191.9 35.541,186.655 37.44,183.154 C41.257,176.121 44,169.624 44,167.618 C44,166.398 44.374,164.973 44.831,164.45 C45.288,163.928 46.492,160.575 47.506,157 C48.521,153.425 49.667,150.05 50.053,149.5 C50.439,148.95 51.523,145.396 52.461,141.602 C53.4,137.809 54.524,133.984 54.961,133.102 C56.329,130.341 58,124.443 58,122.379 C58,121.291 58.365,119.972 58.811,119.45 C61.159,116.701 65.01,89.726 65.003,76.079 C65.001,72.434 65.542,70.058 66.655,68.829 Z M143.377,88 C140.715,90.2 137.976,92 137.291,92 C136.606,92 135.259,93.237 134.296,94.75 C132.031,98.31 131.183,98.861 128.889,98.261 C126.556,97.651 126.4,99.68 128.595,102.105 C129.472,103.074 130.778,105.585 131.496,107.684 C133.351,113.106 136.173,113.271 139.407,108.147 C140.789,105.959 142.387,103.879 142.959,103.525 C143.532,103.171 144,102.163 144,101.285 C144,100.407 145.148,98.184 146.551,96.344 C149.1,93.003 152,86.982 152,85.032 C152,82.809 147.988,84.19 143.377,88 Z"/>
</svg>

