<svg xmlns="http://www.w3.org/2000/svg" width="300" height="300" viewBox="0 0 300 300" version="1.1">
  <defs/>
  <path d="M102.848,45.75 C104.521,43.748 104.932,43.671 107,44.979 C108.077,45.66 108.509,47.766 108.531,52.445 C108.57,60.473 109.804,62.138 113.914,59.71 C115.506,58.769 117.385,58 118.09,58 C119.954,58 124.005,62.083 123.968,63.924 C123.903,67.168 117.967,71.854 112.521,72.96 C110.288,73.414 109.41,74.217 109.154,76.037 C108.964,77.392 108.36,79.046 107.813,79.713 C106.604,81.185 106.058,91.918 107.157,92.597 C107.588,92.864 109.337,92.36 111.044,91.477 C116.996,88.399 122.077,91.572 120.603,97.445 C120.179,99.134 118.491,100.323 114.263,101.909 C106.884,104.679 104.391,108.935 105.485,116.893 C106.355,123.22 108.756,123.774 111.937,118.382 C113.862,115.119 114.382,114.826 117.238,115.398 C120.944,116.139 125,119.617 125,122.053 C125,122.99 122.412,125.718 119.25,128.114 C104.262,139.472 104,139.772 104,145.6 C104,149.929 104.402,151.168 106.223,152.443 C107.445,153.299 109.582,154.01 110.973,154.022 C113.912,154.048 116.598,156.098 120.113,161 C125.315,168.254 126.653,175.371 124.535,184.506 C123.691,188.146 123,193.017 123,195.33 C123,198.168 122.187,200.732 120.5,203.215 C119.125,205.238 118,207.865 118,209.053 C118,210.24 116.875,212.548 115.5,214.182 C114.125,215.816 113,218.089 113,219.232 C113,220.376 111.852,222.816 110.449,224.656 C108.458,227.267 107.169,228 104.572,228 C102.742,228 100.685,227.325 100,226.5 C99.315,225.675 98.33,225 97.811,225 C97.291,225 95.354,223.846 93.506,222.437 C88.359,218.511 85.214,207.727 88.436,205.053 C90.569,203.283 94,205.439 94,208.55 C94,210.013 95.444,212.561 97.521,214.765 L101.042,218.5 L104.286,214.856 C106.069,212.852 108.348,208.802 109.349,205.856 C110.351,202.91 111.548,199.6 112.01,198.5 C114.212,193.255 115.721,175.563 114.054,174.533 C113.474,174.175 113,172.434 113,170.663 C113,166.572 110.524,162.999 107.693,163.005 C104.267,163.012 98.329,169.139 96.91,174.129 C96.227,176.533 94.393,179.871 92.834,181.548 C91.275,183.224 90,185.306 90,186.175 C90,187.044 89.325,188.315 88.5,189 C87.675,189.685 87,190.798 87,191.474 C87,193.713 80.269,205.428 76.355,210 C75.649,210.825 73.785,213.027 72.213,214.893 C69.634,217.955 69.071,218.191 66.428,217.314 C62.609,216.048 62.237,213.115 65.456,209.642 C66.855,208.132 68,206.486 68,205.983 C68,205.481 69.294,203.591 70.875,201.785 C72.456,199.978 75.695,194.45 78.074,189.5 C80.452,184.55 83.363,178.925 84.542,177 C85.722,175.075 86.951,172.375 87.272,171 C88.224,166.931 91.621,157.689 93.889,152.994 C96.136,148.344 96.55,146 95.126,146 C93.742,146 85.085,151.044 84.253,152.336 C83.839,152.978 82.324,154.108 80.886,154.848 C78.643,156.001 77.827,155.962 75.136,154.57 C73.411,153.678 72,152.16 72,151.197 C72,148.243 74.835,145.194 78.251,144.474 C80.038,144.097 82.709,142.655 84.186,141.269 C85.664,139.882 87.88,138.242 89.111,137.624 C94.08,135.129 97.191,124.399 95.091,117 C94.45,114.74 93.949,114.53 89.867,114.815 C81.095,115.427 80.85,108.723 89.505,104.895 C93.262,103.233 94,102.454 94,100.153 C94,98.639 94.389,96.972 94.865,96.45 C96.071,95.126 98.239,83.196 97.493,81.989 C96.499,80.38 95.275,80.806 89.987,84.605 C85.148,88.081 84.88,88.152 82.485,86.582 C78.047,83.674 79.641,80.633 88.776,74.581 C96.697,69.332 99.568,67.483 100.351,64.98 C100.815,63.499 100.547,61.788 100.162,59.007 C99.242,52.352 99.853,49.336 102.848,45.75 Z M140.309,47.25 C141.506,45.4 142.321,45.681 145.563,49.067 C147.877,51.483 148.534,53.127 148.662,56.817 C148.75,59.393 148.923,62.175 149.044,63 C149.489,66.012 146.811,88.571 145.721,91 C145.104,92.375 144.548,95.075 144.487,97 C144.425,98.925 144.017,101.287 143.58,102.25 C142.278,105.119 145.565,104.374 147.991,101.25 C151.729,96.437 161.222,87 162.326,87 C162.912,87 164.641,85.802 166.169,84.338 C170.127,80.546 180.337,79.114 183.987,81.839 C187.939,84.79 187.199,87.111 181.394,89.978 C178.586,91.365 174.713,94.075 172.788,96 C169.529,99.259 169.172,100.257 167.608,110.5 C166.684,116.55 165.54,123.075 165.066,125 C162.806,134.163 162,138.223 162,140.434 C162,141.756 161.287,145.623 160.415,149.026 L158.83,155.213 L161.645,158.151 C163.193,159.767 166.269,162.001 168.48,163.115 C173.986,165.888 198.131,185.299 214.983,200.5 C229.061,213.198 232.406,215.965 235.403,217.392 C239.199,219.199 247,225.779 247,227.174 C247,229.425 242.762,234 240.676,234 C239.337,234 236.452,231.891 233.244,228.567 C230.359,225.579 227.1,222.849 226,222.5 C224.9,222.151 224,221.465 224,220.975 C224,220.485 222.088,218.961 219.75,217.588 C217.412,216.216 213.267,212.822 210.538,210.046 C207.808,207.271 205.186,205 204.71,205 C204.233,205 200.551,201.512 196.527,197.25 C192.502,192.988 187.475,188.608 185.355,187.518 C183.235,186.427 178.268,182.602 174.319,179.018 C165.371,170.897 158.708,167.065 156.237,168.62 C155.281,169.22 154.181,171.464 153.79,173.606 C152.111,182.817 151.674,183.984 149.33,185.519 C146.652,187.274 143,194.77 143,198.51 C143,199.82 141.897,201.723 140.5,202.821 C139.058,203.956 138,205.817 138,207.22 C138,208.557 136.888,210.696 135.529,211.973 C134.17,213.249 132.569,215.777 131.971,217.589 C130.517,221.992 125.189,224.009 121.462,221.567 C120.108,220.68 119,219.776 119,219.559 C119,218.043 120.429,216 121.488,216 C122.768,216 127.991,209.846 128.01,208.317 C128.016,207.868 130.941,201.681 134.51,194.569 C138.08,187.458 141,180.743 141,179.648 C141,178.553 141.674,176.913 142.498,176.002 C143.322,175.092 144.427,172.357 144.955,169.924 C145.483,167.491 146.198,164.33 146.545,162.901 C147.079,160.701 146.571,159.856 143.242,157.401 C141.079,155.805 136.764,152.17 133.652,149.321 C128.5,144.605 128.082,143.913 128.973,141.571 C130.808,136.744 137.493,139.048 145.194,147.162 C148.086,150.21 149.864,150.753 150.392,148.75 C150.573,148.063 151.479,145.207 152.406,142.404 C153.332,139.602 154.56,132.402 155.135,126.404 C155.71,120.407 156.41,113.588 156.691,111.25 C156.972,108.906 156.78,107 156.263,107 C155.747,107 153.339,109.037 150.912,111.526 C147.87,114.647 145.907,115.904 144.588,115.577 C141.957,114.924 139,116.689 139,118.913 C139,119.926 138.317,121.322 137.481,122.016 C136.241,123.044 135.62,122.966 134.098,121.588 C132.527,120.167 132.386,119.317 133.2,116.2 C134.988,109.358 136.107,102.526 136.038,98.876 C136.001,96.883 136.735,92.158 137.669,88.376 C138.9,83.389 139.385,76.967 139.433,65 C139.47,55.925 139.864,47.938 140.309,47.25 Z M48.641,65.25 C50.358,62.5 53.008,62.376 56.126,64.901 C58.254,66.624 58.365,67.114 57.316,70.151 C56.679,71.993 55.85,77.215 55.474,81.756 C55.098,86.296 54.388,90.26 53.895,90.565 C53.403,90.869 53,92.335 53,93.823 C53,95.311 52.1,98.991 51,102 C49.9,105.009 48.997,108.378 48.994,109.486 C48.99,110.594 48.315,112.789 47.494,114.364 C46.672,115.94 46,118.095 46,119.154 C46,120.213 45.1,122.844 44,125 C42.9,127.156 42,129.868 42,131.026 C42,132.184 41.485,134.094 40.856,135.27 C40.226,136.446 39.139,139.454 38.44,141.954 C36.879,147.538 35.022,152.919 33.85,155.262 C33.365,156.231 32.262,159.156 31.4,161.762 C30.537,164.368 29.153,167.029 28.325,167.677 C27.431,168.375 27.065,169.63 27.426,170.766 C27.759,171.817 27.35,174.311 26.516,176.307 C25.682,178.303 25,181.075 25,182.468 C25,184.778 25.373,185.001 29.25,185.016 C34.3,185.036 41.32,188.665 41.845,191.527 C42.044,192.612 42.881,194.261 43.705,195.192 C44.53,196.122 45.123,197.922 45.023,199.192 C44.924,200.461 44.766,204.6 44.671,208.389 C44.473,216.345 43.003,218.234 38.578,216.217 C36.432,215.24 36,214.372 36,211.036 C36,208.832 35.46,205.01 34.8,202.542 C33.845,198.97 33,197.847 30.651,197.028 C24.812,194.993 23.932,195.473 17.428,204.25 C13.465,209.599 10.87,210.258 8.432,206.536 C6.953,204.279 6.951,203.805 8.409,200.883 C9.284,199.128 10,196.856 10,195.833 C10,194.81 10.41,193.191 10.911,192.236 C15.08,184.29 22,166.617 22,163.916 C22,163.068 23.062,160.153 24.359,157.437 C25.657,154.722 27.293,150.025 27.995,147 C28.697,143.975 30.045,139.925 30.991,138 C31.937,136.075 33.495,130.9 34.454,126.5 C35.413,122.1 36.572,117.6 37.031,116.5 C37.489,115.4 38.843,110.9 40.04,106.5 C41.236,102.1 43.081,95.8 44.139,92.5 C45.197,89.2 46.327,82.225 46.65,77 C46.985,71.571 47.839,66.536 48.641,65.25 Z"/>
</svg>

