<svg xmlns="http://www.w3.org/2000/svg" width="300" height="300" viewBox="0 0 300 300" version="1.1">
  <defs/>
  <path d="M143.628,17.282 C148.523,13.704 151.181,17.756 151.644,29.5 C151.946,37.188 150.222,50.469 148.323,55.082 C147.512,57.051 146.995,60.201 147.174,62.082 C147.432,64.783 147.989,65.569 149.832,65.83 C151.115,66.012 153.013,65.393 154.049,64.455 C156.569,62.175 160.596,62.301 163.844,64.763 C166.183,66.535 166.462,67.357 166.179,71.638 C165.977,74.709 165.148,77.261 163.929,78.564 C162.868,79.7 162,81.77 162,83.164 C162,84.558 160.658,87.679 159.018,90.1 C155.315,95.564 155.271,96.802 158.75,97.564 C160.262,97.896 161.992,98.313 162.592,98.492 C163.193,98.67 164.49,100.513 165.474,102.587 C166.816,105.415 166.992,106.751 166.178,107.929 C164.417,110.475 159,121.573 159,122.633 C159,123.169 157.425,125.134 155.5,127 C153.575,128.866 152,131.178 152,132.137 C152,133.097 151.55,134.16 151,134.5 C149.059,135.7 150.035,137 152.878,137 C154.46,137 156.304,136.339 156.975,135.53 C159.774,132.158 172.654,125.742 178.76,124.68 C188.205,123.036 193.243,124.647 199.326,131.256 C206.551,139.106 207.206,141.262 207.339,157.624 C207.424,168.018 207.104,172.17 206.129,173.344 C205.401,174.222 204.683,176.191 204.534,177.72 C203.921,184.012 202.625,189.617 201.352,191.473 C199.348,194.396 199.706,199.468 202.329,205.312 C203.61,208.165 205.892,214.325 207.4,219 C208.908,223.675 210.515,228.4 210.972,229.5 C212.853,234.034 217,248.071 217,249.906 C217,250.993 217.45,252.16 218,252.5 C218.55,252.84 219,254.351 219,255.859 C219,257.367 219.396,259.028 219.88,259.55 C220.364,260.073 221.063,264.847 221.434,270.16 C222.107,279.818 222.107,279.82 219.314,282.41 C215.676,285.783 213.83,285.676 210.028,281.874 C206.55,278.397 206.386,275.375 209.693,275.721 C213.892,276.16 214.368,273.786 211.988,264.284 C210.778,259.453 209.583,253.925 209.332,252 C209.081,250.075 208.454,247.6 207.938,246.5 C206.415,243.25 202.874,232.722 202.3,229.738 C202.008,228.219 201.371,226.729 200.885,226.429 C200.398,226.128 200,224.703 200,223.262 C200,220.338 197.936,214 196.984,214 C195.995,214 193.069,220.731 192.016,225.43 C190.916,230.336 185.471,242.591 183.981,243.512 C183.441,243.845 183,244.973 183,246.019 C183,247.824 178.374,253 176.761,253 C176.344,253 174.148,251.2 171.881,249 C169.614,246.8 167.208,245 166.534,245 C165.861,245 164.453,244.042 163.405,242.87 C162.357,241.699 159.813,239.668 157.75,238.358 C155.537,236.951 154,235.185 154,234.046 C154,232.986 153.604,231.873 153.119,231.574 C151.711,230.703 151.08,225.618 152.211,224.25 C153.898,222.21 155.739,222.815 156.775,225.75 C157.308,227.263 160.127,230.873 163.038,233.772 C168.153,238.868 171.829,240.842 173.863,239.585 C175.758,238.413 180,229.713 180,226.996 C180,225.483 180.675,223.685 181.5,223 C182.325,222.315 183,220.76 183,219.544 C183,218.328 183.332,217.001 183.739,216.595 C184.145,216.188 185.418,212.668 186.568,208.771 C188.431,202.454 188.512,201.261 187.311,197.777 C186.571,195.628 184.61,191.986 182.953,189.685 C181.297,187.383 177.93,182.738 175.471,179.363 C173.012,175.987 171,172.59 171,171.813 C171,171.036 170.499,169.899 169.887,169.287 C168.315,167.715 169.684,166 172.512,166 C175.28,166 186.542,178.328 187.591,182.505 C187.978,184.048 188.928,185 190.08,185 C191.482,185 192.346,183.618 193.565,179.426 C194.456,176.36 194.936,173.603 194.632,173.299 C194.328,172.995 194.736,171.173 195.54,169.251 C197.354,164.908 197.478,150.542 195.75,144.853 C194.85,141.891 193.443,140.066 190.729,138.343 C187.138,136.063 186.638,136.004 180.229,137.118 C176.256,137.808 172.271,139.221 170.5,140.566 C168.85,141.819 166.286,143.147 164.803,143.517 C163.319,143.888 161.446,145.196 160.641,146.426 C159.835,147.655 157.111,149.45 154.588,150.413 C152.065,151.377 150,152.524 150,152.961 C150,153.399 148.537,154.337 146.75,155.046 C144.963,155.755 142.919,156.78 142.209,157.324 C141.499,157.868 138.685,159.347 135.956,160.612 L130.995,162.911 L129.088,160.864 C126.25,157.818 123.567,158.791 123.179,163.008 C123.002,164.929 122.439,166.928 121.929,167.45 C121.418,167.973 121,170.01 121,171.977 C121,173.945 120.408,176.443 119.685,177.527 C118.039,179.996 116,186.959 115.999,190.116 C115.999,191.427 115.156,194.75 114.126,197.5 C110.725,206.58 110.577,211.099 113.502,216.6 C115.922,221.152 115.977,221.544 114.353,222.731 C113.398,223.429 111.415,224 109.945,224 C107.696,224 107.039,224.675 105.807,228.25 C103.597,234.666 98.729,254.243 98.816,256.367 C98.859,257.393 98.17,259.337 97.286,260.687 C96.401,262.036 94.963,264.571 94.089,266.32 C93.017,268.464 91.658,269.598 89.914,269.801 C85.954,270.261 84.728,268.068 86.036,262.861 C88.487,253.105 88.933,251.306 90.01,246.817 C90.628,244.242 91.778,241.599 92.567,240.945 C93.355,240.29 94,238.262 94,236.437 C94,234.611 94.45,232.84 95,232.5 C95.55,232.16 96,230.645 96,229.132 C96,227.62 96.661,225.509 97.468,224.441 C98.276,223.374 98.951,221.233 98.968,219.684 C98.986,218.136 99.424,216.076 99.943,215.107 C101.688,211.847 98.37,204.956 92.367,199.373 C87.502,194.848 86.893,193.85 87.177,190.873 C87.461,187.911 87.88,187.463 90.622,187.196 C93.337,186.932 94.282,187.568 97.872,192.077 C100.142,194.928 102,197.877 102,198.631 C102,199.384 102.36,200 102.8,200 C104.545,200 106,197.435 106,194.359 C106,192.576 106.45,190.84 107,190.5 C107.55,190.16 108,188.135 108,186 C108,183.865 108.379,181.884 108.842,181.598 C109.305,181.312 111.149,174.873 112.941,167.289 C114.733,159.705 116.552,152.6 116.985,151.5 C117.418,150.4 118.238,147.7 118.807,145.5 C119.376,143.3 120.327,139.648 120.921,137.384 C121.514,135.12 122,132.173 122,130.834 C122,129.495 122.518,127.882 123.151,127.249 C123.784,126.616 124.704,123.938 125.194,121.299 C125.685,118.659 126.713,113.125 127.48,109 C128.798,101.909 129.688,97.816 131.936,88.501 C133.01,84.052 132.631,83.321 129,82.835 C127.268,82.603 126.398,81.783 126.17,80.168 C125.752,77.215 128.277,74.394 132.621,72.96 C137.988,71.189 138.929,63.542 133.791,63.454 C130.365,63.396 127.295,60.618 126.461,56.822 C126.102,55.188 124.473,52.331 122.841,50.472 C120.463,47.763 119.936,46.339 120.187,43.296 C120.438,40.249 120.94,39.438 122.729,39.183 C126.132,38.7 132,43.629 132,46.971 C132,49.864 135.644,56.065 137.75,56.756 C138.565,57.024 139,56.115 139,54.145 C139,52.484 139.629,48.284 140.398,44.812 C141.168,41.34 141.814,34.015 141.836,28.532 C141.868,20.214 142.165,18.353 143.628,17.282 Z M72.866,62.75 C74.288,59.166 76.895,59.237 80.46,62.958 C83.128,65.743 83.257,66.271 82.657,72.004 C82.307,75.353 81.566,78.942 81.011,79.98 C80.455,81.019 80,83.264 80,84.969 C80,86.675 79.276,89.176 78.39,90.527 C77.505,91.879 77.05,93.688 77.38,94.547 C77.709,95.406 77.022,97.404 75.852,98.987 C74.681,100.57 73.091,105.158 72.317,109.182 C71.543,113.207 70.504,118.3 70.009,120.5 C69.514,122.7 68.714,126.3 68.23,128.5 C67.746,130.7 66.821,133.483 66.175,134.684 C65.529,135.886 64.993,138.136 64.985,139.684 C64.969,142.575 62.908,149.425 61.685,150.648 C61.308,151.025 61,153.298 61,155.7 C61,159.357 61.569,160.635 64.5,163.567 C67.131,166.197 68,167.913 68,170.474 C68,172.349 68.45,174.16 69,174.5 C70.551,175.458 70.179,185.754 68.474,189.05 C66.635,192.607 63.189,192.969 60.405,189.899 C59.049,188.403 58.356,185.76 58,180.727 C57.454,173.001 55.809,171.01 53.824,175.671 C52.39,179.036 49.053,183 47.654,183 C45.498,183 43.001,179.553 43.015,176.595 C43.031,173.41 44.762,167.65 46.5,165 C47.579,163.354 49.834,157.648 50.649,154.5 C50.934,153.4 51.523,151.6 51.959,150.5 C52.394,149.4 53.544,145.125 54.515,141 C55.485,136.875 56.667,133.073 57.14,132.55 C57.613,132.028 58,130.34 58,128.8 C58,127.26 58.386,126 58.858,126 C59.329,126 59.992,123.347 60.331,120.105 C60.915,114.521 61.4,112.861 64.641,105.349 C65.388,103.616 66,101.5 66,100.648 C66,99.795 66.726,96.488 67.614,93.299 C70.254,83.818 71.366,74.146 70.006,72.507 C69.099,71.414 69.166,70.458 70.303,68.296 C71.113,66.758 72.266,64.263 72.866,62.75 Z M146.25,166.662 C146.938,166.385 147.872,166.122 148.327,166.079 C150.43,165.878 159,177.566 159,180.635 C159,181.458 159.549,183.114 160.22,184.316 C162.229,187.912 163.969,193.334 163.985,196.05 C163.993,197.452 164.528,199.128 165.174,199.774 C165.819,200.419 166.475,203.896 166.631,207.499 C166.786,211.103 167.153,214.439 167.446,214.912 C167.739,215.386 167.358,216.288 166.601,216.916 C164.338,218.794 159,213.658 159,209.602 C159,207.831 158.339,205.509 157.532,204.441 C156.724,203.374 156.049,201.481 156.032,200.236 C156.014,198.991 155.58,197.191 155.066,196.236 C154.553,195.281 153.622,192.25 152.997,189.5 C152.373,186.75 150.318,181.462 148.431,177.749 C144.808,170.62 144.193,167.492 146.25,166.662 Z M123.357,179.512 C124.14,177.47 127.337,177.6 129.233,179.75 C131.066,181.829 135,190.33 135,192.213 C135,192.941 136.125,195.191 137.5,197.215 C139.135,199.621 140,202.275 140,204.888 C140,207.085 140.45,209.16 141,209.5 C141.55,209.84 142,211.441 142,213.059 C142,215.72 141.685,216 138.7,216 C134.905,216 133,214.5 133,211.512 C133,208.664 129.86,199.962 127.574,196.472 C124.836,192.294 122.326,182.199 123.357,179.512 Z M145.698,116.109 C144.684,116.699 142.195,116.871 140.013,116.502 C136.463,115.902 136.009,116.088 134.7,118.673 C133.913,120.228 132.693,124.65 131.988,128.5 C131.283,132.35 130.097,137.244 129.353,139.376 C128.609,141.507 128,144.095 128,145.126 C128,148.035 131.492,147.413 132.921,144.25 C134.808,140.073 140.995,131 141.957,131 C142.833,131 150,117.563 150,115.92 C150,114.709 147.95,114.799 145.698,116.109 Z M144.461,81.043 C142.285,83.447 140.31,88.811 139.414,94.75 C138.895,98.188 139.067,99 140.313,99 C141.16,99 142.518,97.763 143.33,96.25 C148.847,85.978 150,83.4 150,81.331 C150,78.36 147.029,78.206 144.461,81.043 Z"/>
</svg>

