<svg xmlns="http://www.w3.org/2000/svg" width="300" height="300" viewBox="0 0 300 300" version="1.1">
  <defs/>
  <path d="M146,113.527 C153.639,110.558 158.971,114.033 159,122 C159.043,133.669 158.842,136.524 157.956,136.833 C157.43,137.017 157,138.239 157,139.55 C157,140.94 155.542,143.391 153.5,145.433 C150.186,148.747 148.908,152 150.919,152 C151.424,152 153.216,151.213 154.9,150.25 C158.478,148.205 161.29,149.29 161.829,152.922 C162.302,156.112 155.879,161.445 146,166.067 C144.625,166.71 140.125,168.892 136,170.915 L128.5,174.595 L128.5,185.534 C128.5,195.359 128.687,196.509 130.339,196.827 C131.351,197.022 133.151,196.316 134.339,195.259 C139.326,190.823 154.588,184.284 163.982,182.557 C173.058,180.889 173.383,180.895 175.906,182.771 C179.403,185.372 180.028,191.76 177.048,194.457 C175.922,195.476 175,197.406 175,198.745 C175,200.199 173.791,202.241 172,203.813 C170.35,205.261 169,206.902 169,207.46 C169,208.018 165.287,212.141 160.75,216.622 C151.523,225.734 145.464,232.797 146.224,233.557 C146.501,233.834 149.826,233.581 153.614,232.995 C157.401,232.408 167.892,232.08 176.926,232.265 L193.351,232.602 L195.213,236.986 C197.028,241.26 197.029,241.416 195.214,243.23 C193.461,244.983 192.693,245.017 181.927,243.813 C169.097,242.379 154.553,242.459 150.536,243.986 C149.07,244.544 146.093,245 143.921,245 C139.888,245 138.335,245.62 131.738,249.867 C128.228,252.126 127.855,252.178 126.159,250.644 C123.767,248.479 122.534,248.57 120.872,251.034 C119.612,252.902 119.324,252.943 117.34,251.54 C115.345,250.129 115.199,249.269 115.436,240.256 C115.723,229.326 117.739,207.089 118.858,202.5 C120.378,196.266 118.895,164.244 116.473,151 C115.719,146.875 114.804,138.28 114.44,131.899 C113.863,121.766 113.983,120.221 115.389,119.681 C117.48,118.879 120,119.865 120,121.485 C120,123.569 122.814,125.265 125.237,124.641 C126.482,124.32 129.972,122.02 132.993,119.529 C136.014,117.038 139.389,114.975 140.493,114.944 C141.597,114.913 144.075,114.275 146,113.527 Z M63.584,74.25 C65.339,71.549 67.154,71.388 69.223,73.75 C71.269,76.085 71.994,81.587 70.904,86.5 C70.416,88.7 69.351,94.1 68.538,98.5 C66.91,107.317 64.926,115.603 62.435,124 C61.537,127.025 60.563,130.625 60.271,132 C59.978,133.375 59.191,135.175 58.521,136 C57.852,136.825 56.733,139.75 56.036,142.5 C55.338,145.25 53.919,148.719 52.884,150.21 C51.848,151.7 51,153.782 51,154.837 C51,155.892 50.325,157.315 49.5,158 C48.675,158.685 48,160.047 48,161.028 C48,162.009 47.138,164.541 46.084,166.655 C44.002,170.831 41.128,179.011 40.34,183.002 C39.933,185.063 40.368,185.701 42.817,186.625 C44.451,187.241 46.594,189.041 47.579,190.623 C48.565,192.205 50.283,194.249 51.397,195.164 C53.415,196.821 55.877,204.987 55.958,210.29 C55.981,211.825 56.961,214.38 58.135,215.968 C60.609,219.315 60.256,220.99 56.671,222.908 C54.601,224.016 53.53,224.048 51.171,223.071 C48.672,222.036 48.157,221.168 47.675,217.179 C46.289,205.702 45.662,203.408 43.187,200.75 C38.865,196.109 36.74,196.988 29.891,206.25 C26.536,210.787 23.627,214.673 23.427,214.885 C22.53,215.834 18,211.753 18,209.996 C18,208.92 19.575,205.577 21.5,202.567 C23.425,199.558 25,196.861 25,196.573 C25,196.285 26.305,193.202 27.899,189.72 C30.476,184.095 35.214,172.268 45.217,146.5 C46.924,142.1 48.744,137.95 49.26,137.278 C49.776,136.606 50.563,134.581 51.009,132.778 C53.138,124.18 56.146,113.708 56.924,112.189 C58.071,109.949 59.885,98.849 61.121,86.5 C61.672,81 62.781,75.487 63.584,74.25 Z M153,49.321 C155.475,48.123 158.143,47.223 158.93,47.322 C159.716,47.42 161.866,49.975 163.707,53 C166.685,57.893 167.005,59.107 166.605,64 C166.037,70.966 163.229,76.657 158.055,81.331 C153.636,85.323 152.322,85.687 149.574,83.678 C147.882,82.441 147.869,82.153 149.375,79.241 C150.261,77.528 151.486,75.818 152.097,75.44 C155.273,73.477 158.431,61.002 156.115,59.571 C154.608,58.64 145.188,63.382 144.162,65.588 C143.628,66.736 140.752,68.83 137.771,70.242 C134.789,71.653 130.605,74.65 128.472,76.901 C126.339,79.152 123.786,81.251 122.799,81.564 C120.563,82.274 119.672,85.679 119.575,93.885 C119.518,98.782 119.098,100.525 117.778,101.363 C115.342,102.908 113.961,101.204 112.896,95.337 C111.499,87.642 104.751,74.938 100.057,71.166 C95.406,67.429 94.848,64.482 98.479,62.828 C100.603,61.86 101.523,62.09 104.911,64.438 C107.085,65.945 109.907,68.71 111.182,70.582 C113.796,74.421 116.413,74.965 118,72 C118.589,70.9 119.493,70 120.011,70 C120.893,70 124.22,67.866 141.5,56.218 C145.35,53.623 150.525,50.52 153,49.321 Z M158.226,193.004 C156.425,194.102 154.443,195 153.82,195 C153.198,195 151.296,196.057 149.594,197.348 C147.892,198.64 144.7,200.27 142.5,200.971 C140.3,201.673 137.543,203.117 136.373,204.182 C134.867,205.553 133.122,206.027 130.393,205.809 L126.54,205.5 L125.826,211 C123.732,227.139 123.069,238.379 124.137,239.665 C125.731,241.586 126.726,241.336 129.257,238.377 C130.49,236.934 134.313,233.003 137.75,229.641 C141.188,226.28 144,222.991 144,222.333 C144,221.675 145.35,220.175 147.001,218.999 C151.832,215.559 168,196.989 168,194.88 C168,193.729 166.965,192.557 165.435,191.975 C162.049,190.688 162.016,190.693 158.226,193.004 Z M141.038,127.014 C139.134,128.656 136.659,130.005 135.538,130.01 C134.417,130.016 131.475,131.037 129,132.279 L124.5,134.537 L124.637,140.519 C124.912,152.47 126.185,161 127.695,161 C129.472,161 141.67,148.616 142.514,145.955 C142.856,144.88 143.502,144 143.95,144 C145.806,144 150.1,132.709 149.801,128.615 C149.54,125.049 149.167,124.469 147,124.264 C145.42,124.115 143.225,125.128 141.038,127.014 Z M126.545,38.25 C127.957,37.013 129.445,36 129.853,36 C131.15,36 137.584,43.392 138.815,46.297 C140.338,49.892 140.331,54.269 138.8,55.8 C136.93,57.67 136.208,57.289 133.512,53.019 C132.096,50.775 129.916,48.766 128.518,48.415 C126.74,47.969 125.745,46.758 125.007,44.146 C124.072,40.832 124.212,40.295 126.545,38.25 Z"/>
</svg>

