<svg xmlns="http://www.w3.org/2000/svg" width="300" height="300" viewBox="0 0 300 300" version="1.1">
  <defs/>
  <path d="M137,122.373 C141.486,119.415 147.358,119.506 147.792,122.542 C148.193,125.344 142.495,133 140.008,133 C138.92,133 135.435,134.307 132.265,135.903 C129.094,137.5 125.649,139.086 124.608,139.427 C122.89,139.989 122.777,140.755 123.373,147.773 C124.557,161.696 125.434,162.563 131.269,155.583 C140.07,145.054 151.218,145.467 156.837,156.53 C158.226,159.263 159.843,162.4 160.431,163.5 C161.062,164.681 161.583,173.483 161.703,185 C161.887,202.681 161.73,204.743 160.026,207.11 C158.083,209.809 158.338,213.979 160.725,218.524 C162.154,221.242 160.611,224.843 157.793,225.366 C145.91,227.57 142.638,228 137.737,228 C134.633,228 131.01,228.494 129.686,229.097 C127.807,229.953 126.602,229.846 124.209,228.608 C120.47,226.674 119.421,223.811 121.031,219.926 C121.905,217.815 121.953,216.234 121.203,214.25 C120.074,211.261 119.134,201.444 118.404,185 C118.148,179.225 117.502,172.055 116.969,169.066 C116.436,166.078 116,161.492 116,158.875 C116,156.259 115.552,153.841 115.004,153.502 C114.456,153.164 114.119,151.45 114.254,149.693 C114.497,146.54 114.448,146.504 110.413,146.799 C105.841,147.134 104.579,146.128 103.554,141.331 C102.892,138.234 103.021,138.093 109.188,135.204 C112.66,133.578 116.85,131.931 118.5,131.546 C120.15,131.16 122.901,129.778 124.613,128.475 C126.326,127.173 129.026,125.786 130.613,125.394 C132.201,125.002 135.075,123.643 137,122.373 Z M152.248,48.25 C153.342,46.879 154.987,46.674 157.418,47.607 C159.281,48.322 159.573,55.486 158.016,62.236 C157.475,64.581 156.8,67.703 156.516,69.173 C156.233,70.643 154.873,73.186 153.495,74.823 C152.117,76.461 150.721,79.144 150.393,80.786 C150.051,82.497 148.779,84.315 147.414,85.046 C144.423,86.647 144.049,87.867 143.776,96.903 C143.58,103.408 143.803,104.422 145.781,106.024 C149.427,108.977 154.667,109.215 167.497,107.01 C178.954,105.042 179.639,104.786 182.719,101.325 C184.493,99.331 186.462,96.13 187.095,94.212 C188.59,89.681 187.617,81.711 185.034,77.333 C183.915,75.437 183,73.211 183,72.385 C183,70.94 179.208,63.566 176.409,59.568 C174.981,57.527 176.087,54.97 178.372,55.029 C179.751,55.065 186,60.637 186,61.831 C186,62.303 186.9,63.505 188,64.5 C189.1,65.495 190,66.878 190,67.573 C190,68.267 191.099,71.024 192.443,73.7 C195.144,79.078 196.981,88.52 196.992,97.089 C196.999,101.653 196.502,103.316 194.285,106.161 C190.681,110.785 179.48,117.458 175,117.65 C173.075,117.733 168.933,118.268 165.796,118.84 C158.762,120.123 147.864,119.5 144.221,117.608 C140.475,115.663 137.207,110.938 135.019,104.305 C133.448,99.542 133.336,97.847 134.264,92.854 C135.087,88.429 135.044,85.218 134.089,79.747 C133.393,75.761 132.589,71.037 132.303,69.25 C132.016,67.463 131.452,66 131.049,66 C130.646,66 129.759,64.14 129.078,61.866 C128.031,58.373 128.071,57.5 129.335,56.236 C133.405,52.166 139.881,59.846 140.931,69.99 C141.362,74.146 141.925,75.561 143.25,75.813 C144.448,76.042 145,75.511 145,74.132 C145,73.024 145.402,71.869 145.894,71.565 C146.386,71.261 147.015,69.322 147.292,67.256 C147.569,65.19 148.329,61.7 148.98,59.5 C149.632,57.3 150.409,54.15 150.708,52.5 C151.007,50.85 151.7,48.938 152.248,48.25 Z M65.342,66.896 C66.579,65.744 67.131,65.195 67.736,65.127 C68.302,65.064 68.914,65.419 70.174,66.093 C72.061,67.103 72.163,67.769 71.507,74.77 C71.116,78.941 70.441,83.061 70.007,83.927 C69.573,84.792 68.43,88.875 67.466,93 C66.503,97.125 64.625,103.2 63.293,106.5 C61.96,109.8 60.194,114.525 59.368,117 C58.541,119.475 57.22,122.918 56.433,124.651 C55.645,126.384 55,128.262 55,128.824 C55,129.387 53.976,131.119 52.725,132.673 C49.566,136.598 48.234,139.788 47.667,144.789 C47.399,147.148 46.611,149.764 45.915,150.603 C44.419,152.405 41.079,161.743 41.033,164.254 C41.009,165.503 42.323,166.362 45.602,167.238 C50.454,168.536 55.047,173.094 56.446,178 C56.838,179.375 57.779,181.876 58.536,183.559 C59.293,185.241 60.332,189.291 60.844,192.559 C61.99,199.861 59.951,206 56.379,206 C53.27,206 51.347,202.362 50.552,194.975 C49.821,188.177 45.776,178.235 43.366,177.31 C41.475,176.584 34.475,181.308 32.344,184.748 C29.424,189.464 28.113,190.11 24.867,188.431 C21.56,186.721 21.225,184.28 23.83,180.885 C25.907,178.179 32,165.853 32,164.359 C32,163.818 32.9,161.513 34,159.236 C35.1,156.959 36,154.005 36,152.671 C36,151.337 36.625,149.726 37.389,149.092 C38.153,148.458 39.303,145.816 39.945,143.22 C40.587,140.624 41.947,136.7 42.966,134.5 C47.951,123.745 49.9,119.168 51.056,115.5 C51.75,113.3 53.597,108.182 55.159,104.127 C56.722,100.072 58,95.936 58,94.936 C58,93.936 58.45,92.84 59,92.5 C59.55,92.16 60,90.424 60,88.641 C60,86.858 60.437,84.963 60.972,84.428 C61.506,83.894 62.25,80.157 62.625,76.124 C63.136,70.632 63.817,68.317 65.342,66.896 Z M111.084,72.894 C114.685,68.347 117.275,67.965 119.674,71.625 C121.293,74.096 121.294,74.422 119.697,77.206 C118.764,78.832 118,80.731 118,81.426 C118,82.121 117.1,83.505 116,84.5 C114.9,85.495 114,87.14 114,88.155 C114,89.17 113.594,90 113.098,90 C112.602,90 111.7,91.237 111.095,92.75 C108.897,98.24 106.357,101.37 103.243,102.424 C99.138,103.814 96.565,106.425 97.332,108.422 C98.269,110.865 100.554,110.335 107.717,106.015 C118.521,99.498 126.181,99.375 120.025,105.816 C118.361,107.557 117,109.834 117,110.876 C117,112.879 114.127,115.197 110.042,116.489 C108.69,116.917 105.99,118.778 104.042,120.625 C100.093,124.369 96.123,125.004 93.894,122.25 C90.889,118.537 89.193,114.347 89.196,110.65 C89.198,108.532 88.705,106.305 88.1,105.7 C87.495,105.095 87,103.142 87,101.359 C87,99.576 86.55,97.84 86,97.5 C85.45,97.16 85,95.549 85,93.92 C85,91.706 85.652,90.66 87.578,89.783 C91.155,88.153 93.284,89.721 94.442,94.838 C96.169,102.466 98.891,99.881 107.161,82.764 C107.622,81.809 108,80.073 108,78.907 C108,77.742 109.388,75.036 111.084,72.894 Z M142.485,192.024 C141.434,193.725 133.249,196.997 130.711,196.731 C128.936,196.546 128.433,197.086 128.163,199.467 C127.652,203.955 129.939,214.105 132.164,217.23 C134.034,219.857 134.433,219.969 139.819,219.382 C143.89,218.938 146.209,218.082 148,216.359 C150.352,214.097 150.5,213.34 150.5,203.561 C150.5,197.844 150.275,192.957 150,192.7 C148.686,191.474 143.134,190.975 142.485,192.024 Z M140.91,159.757 C137.224,162.239 132,168.472 132,170.389 C132,171.282 130.867,172.999 129.481,174.203 C127.259,176.136 126.99,177.084 127.195,182.269 C127.322,185.501 127.728,188.332 128.096,188.559 C128.464,188.787 129.901,188.079 131.29,186.986 C132.679,185.894 134.534,185 135.413,185 C136.291,185 139.342,183.875 142.192,182.5 C145.042,181.125 148.479,180 149.83,180 C152.24,180 152.273,179.888 151.642,173.853 C151.289,170.473 151,166.713 151,165.499 C151,163.046 146.82,157.996 144.798,158.007 C144.084,158.01 142.335,158.798 140.91,159.757 Z"/>
</svg>

