<svg xmlns="http://www.w3.org/2000/svg" width="300" height="300" viewBox="0 0 300 300" version="1.1">
  <defs/>
  <path d="M127.241,145.8 C132.884,139.914 138.107,135.077 138.849,135.05 C142.397,134.919 147.206,138.461 149.178,142.656 C150.308,145.059 151.63,147.271 152.116,147.572 C152.602,147.872 153,149.409 153,150.988 C153,152.566 153.675,154.532 154.5,155.357 C155.325,156.182 156,158.448 156,160.393 C156,164.541 157.65,181.304 159.111,192 C159.674,196.125 160.364,206.925 160.643,216 C160.922,225.075 161.524,233.85 161.98,235.5 C162.436,237.15 162.848,244.35 162.895,251.5 C162.943,258.65 163.227,269.526 163.527,275.668 C163.897,283.235 163.72,287.055 162.978,287.514 C162.343,287.906 162.144,289.381 162.505,291.022 C162.89,292.774 162.521,295.026 161.538,296.927 C159.965,299.969 159.868,300 151.952,300 C143.982,300 143.94,299.986 139.516,295.908 C137.074,293.657 134.827,291.029 134.522,290.068 C134.216,289.107 132.925,287.762 131.651,287.081 C129.987,286.19 128.725,283.809 127.168,278.625 C125.975,274.656 125,270.678 125,269.786 C125,267.525 126.059,265 127.008,265 C128.272,265 132,271.902 132,274.243 C132,275.413 132.933,277.364 134.074,278.579 C135.215,279.793 136.902,282.297 137.824,284.143 C139.503,287.506 147.962,294 150.664,294 C151.455,294 152.782,292.372 153.614,290.382 C156.221,284.142 155.324,252.344 151.487,215 C150.668,207.025 149.766,197.35 149.483,193.5 C148.076,174.347 147.868,173 146.311,173 C145.418,173 145.008,173.578 145.321,174.394 C146.003,176.172 142.88,178.979 136.332,182.472 C133.49,183.988 128.54,187.652 125.332,190.614 C119.759,195.76 118.503,196.42 114.917,196.081 C113.336,195.931 112.105,199.993 110.471,210.745 C110.116,213.079 109.415,215.243 108.913,215.554 C107.038,216.712 108.033,219 110.411,219 C111.914,219 113.832,217.776 115.505,215.75 C120.973,209.126 137.593,191.738 140.335,189.774 C142.919,187.922 143.311,187.882 144.751,189.322 C146.191,190.762 146.094,191.259 143.665,194.93 C142.199,197.145 141,199.48 141,200.119 C141,201.538 126.448,216 125.02,216 C124.459,216 124,216.61 124,217.356 C124,219.527 117.224,227.794 114.82,228.557 C113.194,229.073 112.135,228.65 110.74,226.927 C108.374,224.005 105.663,225.304 105.162,229.601 C104.975,231.195 104.442,232.961 103.976,233.525 C103.51,234.089 102.819,236.882 102.441,239.731 C102.03,242.828 100.999,245.596 99.877,246.611 C98.845,247.546 98,248.939 98,249.708 C98,250.477 96.875,252.762 95.5,254.785 C94.125,256.809 93,259.046 93,259.757 C93,261.289 88.229,263.302 86.328,262.572 C84.798,261.985 84.558,258.849 85.936,257.45 C87.708,255.651 93,244.109 93,242.043 C93,240.904 93.424,239.191 93.943,238.236 C95.511,235.35 99.147,223.733 99.651,220 C99.911,218.075 100.491,215.6 100.939,214.5 C104.465,205.844 106.225,175.043 103.645,167.153 C101.718,161.263 101.486,152.914 103.2,151.2 C106.173,148.227 110.126,150.847 110.383,155.959 C110.465,157.594 111.12,159.51 111.837,160.216 C112.902,161.264 113.495,161.041 115.062,159 C116.119,157.625 121.599,151.685 127.241,145.8 Z M118.612,28.25 C119.473,26.898 121.045,26 122.548,26 C125.496,26 127,29.063 127,35.065 C127,37.229 127.202,39 127.45,39 C127.697,39 129.971,37.602 132.503,35.893 C136.907,32.921 137.19,32.862 139.028,34.525 C142.434,37.608 142.407,39.77 138.911,43.78 C137.127,45.826 134.89,47.805 133.939,48.179 C130.208,49.644 126.837,55.703 126.27,61.964 C125.939,65.606 126.11,68 126.701,68 C127.239,68 129.791,65.28 132.373,61.956 C134.954,58.632 137.788,55.635 138.669,55.297 C140.793,54.482 143.427,56.218 143.797,58.677 C144.205,61.396 139.559,70.335 136.236,73.224 C128.366,80.067 126.808,84.102 126.868,97.5 C126.894,103.55 126.413,110.19 125.798,112.256 C125.183,114.322 124.97,116.303 125.325,116.658 C125.68,117.013 128.362,115.715 131.286,113.773 C134.21,111.832 138.38,109.336 140.551,108.228 C142.723,107.12 145.357,105.265 146.405,104.106 C147.453,102.948 149.106,102 150.078,102 C151.051,102 153.119,100.936 154.673,99.637 C158.325,96.584 165.418,92.991 167.71,93.033 C170.339,93.082 174,96.503 174,98.91 C174,101.603 170.599,105 167.903,105 C166.75,105 163.826,106.744 161.405,108.875 C158.984,111.006 155.668,113.016 154.037,113.343 C152.406,113.669 148.917,115.447 146.285,117.295 C141.803,120.441 128.507,127.904 119.542,132.305 C117.365,133.373 114.44,135.068 113.042,136.071 C111.644,137.073 107.575,138.613 104,139.492 C100.425,140.371 94.683,142.195 91.239,143.545 C87.597,144.973 82.917,146 80.048,146 C77.337,146 74.84,146.45 74.5,147 C73.466,148.673 68.366,148.118 65.861,146.061 C63.644,144.239 63.591,143.955 65,141.392 C66.363,138.912 67.44,138.505 76.762,136.943 C82.406,135.998 87.581,134.775 88.262,134.226 C88.943,133.676 91.525,132.894 94,132.487 C96.475,132.081 101.803,129.874 105.841,127.583 C112.697,123.693 113.305,123.068 115.052,118.108 C116.081,115.187 117.228,108.353 117.603,102.921 C118.216,94.013 118.109,92.979 116.505,92.364 C115.528,91.989 114.002,92.204 113.114,92.843 C109.611,95.364 106.638,96.046 102.605,95.254 C99.127,94.571 98.452,94.033 98.184,91.732 C97.931,89.55 98.422,88.792 100.684,87.87 C116.836,81.288 117.441,80.605 117.129,69.284 C116.998,64.525 116.639,60.224 116.331,59.726 C116.023,59.228 114.36,59.078 112.635,59.394 C109.073,60.045 107.791,59.434 106.14,56.298 C105.161,54.438 105.322,53.778 107.179,52.048 C108.388,50.922 109.917,50 110.578,50 C111.238,50 112.782,49.188 114.008,48.195 C115.883,46.676 116.312,45.127 116.707,38.445 C116.967,34.052 117.819,29.494 118.612,28.25 Z M58.769,68.75 C60.985,66.233 64.469,66.54 65.757,69.366 C67.323,72.802 66.199,83.539 63.546,90.5 C62.288,93.8 60.949,98.627 60.571,101.227 C60.194,103.826 59.46,106.215 58.942,106.536 C58.424,106.856 58,107.811 58,108.658 C58,109.505 57.355,111.616 56.567,113.349 C54.418,118.077 52,125.82 52,127.976 C52,129.024 51.598,130.131 51.106,130.435 C50.614,130.739 49.977,132.678 49.69,134.744 C49.072,139.201 44.441,152.764 42.905,154.614 C42.313,155.328 42.134,156.408 42.509,157.014 C42.883,157.62 42.095,159.777 40.757,161.808 C39.42,163.838 38.029,166.696 37.667,168.157 C37.305,169.619 36.733,171.531 36.397,172.407 C35.912,173.673 36.488,174 39.206,174 C44.226,174 50.074,181.031 50.018,187 C49.87,202.971 50.07,207.261 51.044,209.082 C51.869,210.624 51.883,211.517 51.093,212.307 C50.492,212.908 50,215.04 50,217.045 C50,224.125 43.558,226.175 40.967,219.92 C39.743,216.966 39.801,214.716 41.599,195.45 C42.148,189.562 41.976,188.119 40.557,186.7 C39.622,185.765 38.26,185 37.531,185 C36.802,185 33.863,189.725 31,195.5 C26.608,204.361 25.43,206 23.454,206 C18.941,206 16.136,197.777 19.388,194.079 C20.611,192.688 23.156,186.382 27.09,175 C27.755,173.075 28.622,170.6 29.016,169.5 C29.411,168.4 31.634,161.691 33.957,154.591 C36.281,147.492 38.535,140.967 38.968,140.091 C40.331,137.334 42,131.437 42,129.379 C42,128.291 42.387,126.972 42.86,126.45 C44.007,125.184 48.046,112.64 51.539,99.5 C53.032,93.882 55.433,81.974 56.681,74 C56.982,72.075 57.922,69.713 58.769,68.75 Z M136.627,149.351 C135.856,151.195 133.717,153.777 131.872,155.091 C130.027,156.405 127.176,159.059 125.536,160.99 C123.896,162.92 120.681,166.3 118.391,168.5 C114.77,171.979 114.14,173.236 113.554,178.154 C112.738,185.004 114.015,186.318 117.886,182.609 C119.384,181.174 121.131,180 121.77,180 C122.408,180 123.412,179.099 124.001,177.998 C124.59,176.897 126.581,175.366 128.426,174.596 C130.27,173.825 133.571,171.576 135.761,169.597 C140.244,165.547 141.169,165.312 143.493,167.636 C146.339,170.482 147.413,167.928 145.932,161.836 C145.219,158.901 144.267,156.072 143.817,155.55 C143.368,155.028 143,153.205 143,151.5 C143,145.515 138.818,144.106 136.627,149.351 Z"/>
</svg>

