<svg xmlns="http://www.w3.org/2000/svg" width="300" height="300" viewBox="0 0 300 300" version="1.1">
  <defs/>
  <path d="M155.344,43.193 C155.809,42.474 157.384,42.024 158.844,42.193 C161.381,42.486 161.503,42.768 161.562,48.5 C161.597,51.8 161.709,55.063 161.812,55.75 C162.088,57.588 165.049,57.268 168.774,54.996 C174.442,51.541 178.929,52.63 179.289,57.549 C179.464,59.942 178.904,60.726 176,62.158 C169.88,65.174 165.244,67 163.706,67 C161.521,67 161,69.205 161,78.447 C161,85.216 160.634,87.195 159,89.273 C157.069,91.728 156.216,97.001 157.75,96.999 C158.162,96.999 162.251,94.767 166.836,92.039 C171.421,89.312 176.146,86.775 177.336,86.402 C178.526,86.03 180.573,84.887 181.885,83.862 C183.197,82.838 184.968,82 185.82,82 C187.951,82 192,85.97 192,88.059 C192,89.786 188.046,93 185.921,93 C185.289,93 181.523,95.025 177.552,97.5 C173.581,99.975 169.877,102 169.321,102 C168.765,102 167.495,102.9 166.5,104 C165.505,105.1 164.086,106 163.347,106 C162.608,106 158.515,107.795 154.252,109.988 C149.988,112.181 144.588,114.743 142.25,115.68 C139.623,116.734 138,118.024 138,119.058 C138,119.978 137.166,121.803 136.146,123.115 C135.127,124.427 133.712,128.611 133.002,132.413 C132.222,136.595 130.624,140.941 128.958,143.413 C127.443,145.661 126.086,148.625 125.943,150 C125.656,152.766 126.71,159.397 127.931,162.5 C128.364,163.6 128.806,166.75 128.913,169.5 C129.176,176.2 130.098,176.876 135.25,174.147 C146.475,168.198 147.145,167.651 146.458,165 C146.101,163.625 145.584,160.363 145.308,157.75 C144.973,154.578 144.341,153 143.403,153 C142.632,153 142,153.715 142,154.59 C142,156.343 138.997,159.222 134.732,161.555 C132.272,162.902 131.9,162.903 131.387,161.567 C130.274,158.666 134.196,150.997 138.906,146.865 C141.433,144.648 143.744,141.864 144.043,140.677 C144.434,139.122 145.606,138.354 148.244,137.925 C150.256,137.598 153.714,136.131 155.929,134.665 C158.145,133.199 160.328,132 160.782,132 C161.235,132 163.501,130.606 165.817,128.903 C168.134,127.2 171.71,125.607 173.764,125.365 C177.048,124.977 178.009,125.412 181.704,128.955 C186.995,134.028 191.067,140.9 190.994,144.63 C190.963,146.209 191.39,150.2 191.944,153.5 C192.565,157.204 192.709,170.595 192.321,188.5 C191.522,225.398 191.452,227.194 190.751,229 C190.431,229.825 189.865,233.425 189.494,237 C187.027,260.751 185.621,269.072 183.914,270.031 C183.136,270.468 181.419,271.764 180.097,272.912 C177.249,275.386 175.69,275.536 174,273.5 C173.315,272.675 171.663,272 170.328,272 C164.598,272 156,264.252 156,259.088 C156,253.368 161.695,252.471 162.997,257.986 C163.594,260.514 169.205,264 172.678,264 C175.972,264 178,260.318 178,254.337 C178,251.466 178.45,248.84 179,248.5 C179.55,248.16 180,245.457 180,242.492 C180,239.528 180.693,231.816 181.54,225.355 C182.714,216.396 182.813,212.963 181.956,210.894 C181.144,208.934 181.133,207.62 181.916,206.156 C182.512,205.043 183,199.657 183,194.188 C183,180.778 182.543,180.465 172.058,186.692 C167.605,189.336 162.903,192.059 161.609,192.743 C156.93,195.216 156.752,196.027 156.791,214.751 C156.831,233.943 155.808,242.476 153.356,243.417 C149.555,244.875 143.093,236.507 145.873,233.727 C146.6,233 147,227.702 147,218.8 L147,205 L144.122,205 C142.54,205 140.687,205.672 140.006,206.493 C139.325,207.314 137.062,208.445 134.978,209.006 C127.995,210.886 126.93,212.493 126.403,221.942 C125.957,229.946 125.765,230.526 122.516,233.681 C120.637,235.506 118.193,237 117.085,237 C114.555,237 112.325,233.275 113.907,231.693 C114.508,231.092 115.003,228.553 115.006,226.05 C115.01,223.548 115.685,220.211 116.506,218.636 C118.713,214.404 119.261,209.024 120.292,181.5 C120.353,179.85 120.313,176.137 120.202,173.25 C120.033,168.851 119.695,168 118.121,168 C116.917,168 115.807,169.167 115.03,171.25 C112.932,176.873 112.094,178.381 108.501,183 C106.575,185.475 104.734,188.175 104.409,189 C101.85,195.501 96.002,204.424 92.492,207.185 C91.121,208.263 90,210.168 90,211.419 C90,213.909 81.906,222 79.414,222 C78.613,222 77.47,220.932 76.876,219.626 C75.985,217.671 76.164,216.827 77.894,214.837 C79.909,212.519 81.826,209.599 90.398,195.783 C92.543,192.327 95.805,187.174 97.648,184.331 C99.492,181.487 101,178.482 101,177.652 C101,176.822 101.588,175.548 102.306,174.821 C103.731,173.379 106.311,168.536 110.202,160 C114.851,149.803 116.993,145.525 120.421,139.601 C126.018,129.926 126.192,123.051 120.77,125.786 C119.522,126.416 115.575,127.888 112,129.057 C108.425,130.227 103.56,132.066 101.19,133.144 C98.361,134.431 95.269,135.001 92.19,134.802 C87.728,134.515 87.5,134.356 87.5,131.542 C87.5,128.991 88.052,128.389 91.5,127.176 C95.148,125.894 103.16,122.742 115,117.931 C117.475,116.926 120.625,115.796 122,115.42 C123.375,115.045 125.737,113.866 127.25,112.801 C129.609,111.139 130,110.171 130,105.991 C130,103.311 130.469,100.828 131.041,100.474 C131.614,100.12 131.965,97.506 131.82,94.665 C131.676,91.824 131.884,88.576 132.283,87.448 C132.721,86.21 132.465,84.651 131.638,83.52 C130.333,81.735 130.099,81.725 126.733,83.323 C122.13,85.507 119.709,85.441 117.567,83.074 C114.724,79.932 116.073,77.863 123.609,73.809 L130.715,69.987 L131.266,61.957 C131.83,53.716 132.985,51 135.922,51 C138.943,51 140,53.255 140,59.7 C140,67.041 140.756,67.422 148.038,63.75 L152.5,61.5 L153.5,53 C154.05,48.325 154.88,43.912 155.344,43.193 Z M81.305,74.499 C84.329,72.381 85.706,72.622 87.666,75.613 C89.607,78.575 89.899,87.501 88.114,89.286 C87.501,89.899 87,91.633 87,93.141 C87,94.649 86.6,96.129 86.11,96.432 C85.621,96.734 84.979,98.448 84.683,100.241 C83.613,106.716 82.213,111.584 80.148,116 C78.991,118.475 78.034,122.49 78.022,124.921 C78.01,127.353 77.374,130.053 76.608,130.921 C75.059,132.679 70.572,143.85 69.548,148.5 C69.185,150.15 67.844,153.525 66.57,156 C65.295,158.475 63.92,162.525 63.513,165 C63.106,167.475 62.426,169.95 62,170.5 C61.574,171.05 60.898,173.488 60.497,175.917 C60.096,178.346 58.922,181.721 57.888,183.417 C54.794,188.49 55.401,191.179 60.5,195 C62.975,196.854 65,198.572 65,198.817 C65,201.321 68.432,219.92 69.139,221.25 C70.45,223.713 68.456,227 65.652,227 C62.672,227 58,222.065 58,218.918 C58,217.558 57.282,215.42 56.405,214.168 C55.417,212.757 55.046,210.953 55.429,209.425 C56.294,205.98 54.386,202.804 51.682,203.189 C50.223,203.397 49.387,204.328 49.159,206 C48.971,207.375 48.258,209.175 47.574,210 C46.889,210.825 45.757,212.948 45.057,214.717 C43.213,219.38 41.49,220.544 38.47,219.168 C35.079,217.623 35.057,211.925 38.426,207.508 C39.761,205.758 41.626,201.891 42.571,198.913 C43.516,195.936 44.674,193.072 45.145,192.55 C45.615,192.027 46,190.34 46,188.8 C46,187.26 46.45,186 47,186 C47.55,186 48,185.127 48,184.059 C48,182.991 48.45,181.84 49,181.5 C49.55,181.16 50,180.189 50,179.342 C50,178.495 50.605,176.384 51.345,174.651 C52.085,172.918 53.494,168.8 54.478,165.5 C55.461,162.2 57.106,157.592 58.133,155.261 C59.16,152.929 60,150.177 60,149.144 C60,148.112 60.835,145.069 61.856,142.383 C64.045,136.622 65.053,133.675 69.173,121 C70.871,115.775 72.877,110.082 73.63,108.349 C74.384,106.616 75,103.83 75,102.158 C75,100.486 75.402,98.869 75.894,98.565 C76.93,97.925 77.9,92.343 78.642,82.749 C79.06,77.342 79.59,75.7 81.305,74.499 Z M168.683,138.512 C166.033,139.881 163.325,141 162.665,141 C162.005,141 159.785,142.141 157.732,143.536 L154,146.072 L154,154.036 C154,161.707 154.086,162 156.328,162 C158.66,162 169.402,157.984 173.148,155.711 C174.246,155.045 176.312,152.131 177.741,149.236 L180.338,143.973 L178.373,140.241 C177.292,138.189 175.753,136.401 174.954,136.267 C174.154,136.134 171.332,137.144 168.683,138.512 Z M177.5,165 C176.296,166.331 174.42,167 171.895,167 C169.65,167 167.773,167.582 167.3,168.426 C166.86,169.21 164.25,170.698 161.5,171.732 C156.504,173.612 156.5,173.617 156.701,177.924 C156.812,180.295 157.135,182.468 157.42,182.753 C157.705,183.038 159.189,182.428 160.719,181.398 C164.438,178.892 165.962,178.008 172.404,174.616 C175.417,173.03 179.102,170.459 180.593,168.903 C182.859,166.537 183.095,165.82 182.03,164.536 C180.362,162.526 179.675,162.597 177.5,165 Z M136.573,184.926 C130.804,189.496 128.704,192.971 129.585,196.483 C130.591,200.491 135.27,199.371 142.596,193.368 C146.582,190.102 147,189.343 147,185.38 C147,181.266 146.833,181.001 144.25,181.011 C142.572,181.017 139.578,182.544 136.573,184.926 Z M143.638,77.07 C141.132,79.041 141.025,79.506 141.388,86.82 C141.598,91.044 141.363,95.005 140.867,95.623 C139.948,96.768 140.69,100.026 141.857,99.968 C144.568,99.834 149,92.505 149,88.155 C149,86.485 149.45,84.84 150,84.5 C150.55,84.16 151,81.884 151,79.441 C151,75.438 150.767,75 148.635,75 C147.334,75 145.086,75.931 143.638,77.07 Z"/>
</svg>

