<svg xmlns="http://www.w3.org/2000/svg" width="300" height="300" viewBox="0 0 300 300" version="1.1">
  <defs/>
  <path d="M69.571,80.571 C73.383,76.76 76.015,79.598 75.951,87.45 C75.889,95.015 72.75,113.34 70.717,118 C69.877,119.925 68.861,123.704 68.46,126.397 C68.058,129.09 67.118,132.465 66.371,133.897 C65.624,135.329 65.01,137.266 65.006,138.203 C65,139.912 64.265,141.963 60.905,149.64 C59.909,151.916 58.803,154.935 58.449,156.349 C58.094,157.762 57.173,159.442 56.402,160.081 C55.631,160.721 55,161.883 55,162.663 C55,164.465 51.196,176.933 49.944,179.236 C48.275,182.306 48.921,184.485 52.5,187.861 C54.425,189.677 56,192.036 56,193.103 C56,194.17 57.104,196.721 58.454,198.771 C60.691,202.169 60.928,203.608 61.128,215 C61.248,221.875 61.811,228.262 62.379,229.194 C64.362,232.449 57.468,237.463 54.452,234.96 C53.321,234.021 53,230.923 53,220.937 C53,213.47 52.583,207.86 52,207.5 C51.45,207.16 50.986,205.896 50.968,204.691 C50.951,203.486 50.276,201.626 49.468,200.559 C48.661,199.491 48,197.804 48,196.809 C48,195.814 47.363,195 46.584,195 C44.688,195 39,202.289 39,204.72 C39,207.284 34.655,211.271 32.339,210.832 C28.26,210.059 30.247,199.113 36.256,189.259 C37.517,187.191 39.162,183.7 39.911,181.5 C40.661,179.3 42.338,175.278 43.637,172.563 C44.937,169.847 46,166.804 46,165.799 C46,164.795 46.428,163.191 46.952,162.236 C49.615,157.375 56.011,137.905 56.004,134.679 C56.002,133.677 56.657,132.2 57.461,131.396 C58.264,130.593 59.189,128.263 59.515,126.218 C59.842,124.173 60.552,121.69 61.094,120.7 C62.395,118.324 63.913,111.24 65.103,102 C65.635,97.875 66.493,93.6 67.012,92.5 C67.53,91.4 67.893,89.825 67.819,89 C67.476,85.172 68.133,82.009 69.571,80.571 Z M150,135.635 C150,134.5 150.881,134 152.879,134 C155.101,134 155.993,134.627 156.793,136.75 C158.836,142.176 160,146.331 160,148.198 C160,149.242 160.9,151.959 162,154.236 C163.323,156.974 164.001,160.428 164.003,164.438 C164.005,167.772 164.698,174.452 165.543,179.282 C166.387,184.112 166.822,188.48 166.507,188.988 C166.193,189.497 166.616,192.844 167.447,196.428 C168.69,201.788 168.891,209.461 168.583,239.721 C168.377,259.95 167.718,279.65 167.12,283.5 C166.522,287.35 165.913,292.525 165.766,295 L165.5,299.5 L161.11,299.814 L156.719,300.129 L157.347,295.814 C159.997,277.612 160.488,269.077 160.357,243.5 C160.156,204.28 157.953,175.741 153.679,157 C151.982,149.561 150,138.048 150,135.635 Z M138.035,42.934 C138.605,41.87 139.939,41 141,41 C143.453,41 145,43.875 145,48.434 C145,52.623 146.3,52.998 148.609,49.474 C149.827,47.616 150.823,47.109 152.382,47.555 C154.591,48.188 159,52.471 159,53.984 C159,54.977 147.419,64 146.144,64 C143.901,64 141.007,69.735 139.573,77.02 C139.3,78.406 137.664,81.674 135.936,84.282 C131.678,90.711 132.344,91.959 139.685,91.302 C152.715,90.138 166.577,97.957 160.468,103.026 C159.219,104.063 157.861,103.972 153.102,102.531 C149.108,101.322 145.885,100.975 142.884,101.431 C140.473,101.797 136.806,102.187 134.736,102.298 C130.898,102.504 128.304,105.004 125.965,110.75 C124.647,113.989 119.6,113.845 117.413,110.507 C115.84,108.107 115.894,107.885 118.875,104.489 C120.578,102.55 122.238,99.734 122.563,98.232 C122.889,96.729 123.553,94.6 124.039,93.5 C124.525,92.4 125.651,89.025 126.542,86 C127.432,82.975 128.575,79.466 129.08,78.203 C130.735,74.07 130.23,72 127.565,72 C126.226,72 123.955,72.447 122.519,72.993 C119.324,74.208 115,71.818 115,68.837 C115,66.126 119.821,62.284 124.077,61.604 C129.507,60.735 134.437,57.004 134.827,53.468 C135.007,51.835 135.569,50.072 136.077,49.55 C136.585,49.027 137,47.76 137,46.734 C137,45.708 137.466,43.998 138.035,42.934 Z M153,111.516 C163.175,106.401 171.978,102.168 172.563,102.108 C173.148,102.049 174.879,103.308 176.41,104.906 C178.403,106.986 179.008,108.4 178.538,109.88 C177.626,112.753 173.483,115.793 168.737,117.071 C163.664,118.437 154.308,122.693 153.498,124.003 C153.159,124.551 152.06,125 151.055,125 C150.051,125 147.94,125.672 146.364,126.494 C144.789,127.315 142.739,127.99 141.809,127.994 C140.879,127.997 139.849,128.435 139.52,128.967 C138.783,130.16 128.511,135.026 120.671,137.897 C117.466,139.07 113.191,140.907 111.171,141.978 C104.191,145.681 95.749,149 93.313,149 C89.605,149 87,147.193 87,144.62 C87,141.379 89.615,139.456 96,138 C99.025,137.31 102.175,136.162 103,135.449 C103.825,134.736 107.425,132.934 111,131.445 C120.894,127.323 132.651,121.744 153,111.516 Z M123.8,160.421 C127.694,158.389 129.289,158.648 132.313,161.805 C135.415,165.043 135.999,170.926 133.43,173.058 C132.567,173.774 132.075,175.179 132.337,176.179 C132.598,177.179 131.735,179.585 130.419,181.525 C127.147,186.346 126.514,189.352 128.436,190.947 C130.933,193.02 130.282,194.797 126.043,197.473 C123.867,198.847 121.629,200.826 121.069,201.87 C120.51,202.915 118.971,204.041 117.649,204.373 C116.327,204.705 114.505,206.107 113.6,207.488 C111.676,210.424 110.345,210.622 107.829,208.345 C106.502,207.144 106,205.257 106,201.467 C106,198.004 105.486,195.818 104.473,194.978 C102.785,193.577 97,185.275 97,184.254 C97,183.898 95.843,181.938 94.43,179.898 C90.925,174.841 91.293,169.639 95.187,169.19 C98.433,168.815 99.387,170.119 107.98,186.671 C110.403,191.337 112.261,192.486 114.79,190.882 C117.065,189.439 122,181.348 122,179.061 C122,178.062 122.675,176.685 123.5,176 C124.325,175.315 125,173.91 125,172.878 C125,170.118 121.159,170.452 120.074,173.306 C119.591,174.575 117.536,176.879 115.506,178.428 C112.175,180.968 111.664,181.092 110.268,179.696 C108.871,178.3 108.938,177.727 110.953,173.824 C113.41,169.066 119.593,162.616 123.8,160.421 Z M107.684,276.75 C108.492,275.354 114.934,275.989 117.823,277.75 C119.403,278.712 122.676,281.418 125.098,283.762 C127.519,286.106 132.425,290.71 136,293.993 L142.5,299.962 L137.034,299.981 C131.931,299.999 131.268,299.711 127.034,295.637 C124.54,293.237 119.35,288.903 115.5,286.007 C108.872,281.02 106.701,278.449 107.684,276.75 Z"/>
</svg>

