<svg xmlns="http://www.w3.org/2000/svg" width="300" height="300" viewBox="0 0 300 300" version="1.1">
  <defs/>
  <path d="M147.491,32.015 C148.389,30.562 149.571,30.74 153.987,32.994 C156.155,34.099 159.314,37.05 161.081,39.618 C163.807,43.58 164.451,45.746 165.535,54.599 C167.16,67.875 165.384,87.826 161.671,98 C160.768,100.475 160.023,103.737 160.015,105.25 C160.007,106.763 159.626,108 159.169,108 C158.712,108 157.749,109.101 157.028,110.447 C156.256,111.889 154.65,113.019 153.118,113.197 C151.42,113.395 150.409,114.194 150.207,115.5 C150.036,116.6 149.386,118.528 148.761,119.785 C148.136,121.042 147.596,125.26 147.562,129.159 C147.487,137.773 149.004,139.556 153.618,136.275 C155.203,135.148 158.525,133.646 161,132.938 C163.475,132.229 165.95,131.348 166.5,130.98 C171.842,127.402 194.486,127.113 203,130.513 C209.223,132.998 210.662,134.467 212.604,140.312 C214.028,144.599 214.184,147.728 213.612,160.421 C213.159,170.458 212.477,176.149 211.561,177.547 C210.806,178.699 209.869,182.203 209.477,185.334 C209.086,188.465 208.369,191.272 207.883,191.572 C207.397,191.872 207,194.026 207,196.359 C207,198.692 206.542,201.058 205.982,201.618 C205.422,202.178 204.476,205.53 203.879,209.068 C203.283,212.606 201.716,217.835 200.397,220.688 C199.079,223.542 198,226.607 198,227.501 C198,228.395 196.701,231.91 195.113,235.313 C193.525,238.716 191.972,242.267 191.662,243.205 C190.737,246 183.346,249.235 179.709,248.436 C171.739,246.685 168.378,244.338 163.64,237.211 C158.495,229.472 158.213,228.525 160.75,227.523 C162.061,227.006 163.891,228.359 168.043,232.916 C172.488,237.795 174.184,239 176.606,239 C181.752,239 186.173,232.348 190.563,218 C191.489,214.975 192.641,212.073 193.123,211.55 C193.605,211.028 194,209.76 194,208.733 C194,207.373 193.499,207.024 192.157,207.45 C189.996,208.136 185,204.587 185,202.365 C185,201.546 183.838,198.317 182.417,195.188 C180.996,192.06 178.912,187.475 177.784,185 C174.794,178.437 173.297,174.907 171.966,171.283 C169.659,165 166.189,164.922 161.241,171.043 C159.665,172.992 157.436,174.17 153.875,174.933 C151.067,175.536 147.583,176.868 146.134,177.893 C144.685,178.919 141.139,180.08 138.254,180.472 C133.672,181.096 132.936,180.953 132.431,179.343 C132.114,178.329 131.437,176.719 130.927,175.764 C129.429,172.957 129.844,170.776 132.395,168.055 C136.819,163.335 136.631,155.386 132.187,159.284 C131.259,160.098 129.375,161.105 128,161.523 C126.625,161.941 123.813,163.967 121.75,166.024 C117.39,170.373 117.103,172.812 119.487,185.267 C120.304,189.538 121.21,197.97 121.5,204.003 C121.984,214.058 121.86,215.14 120.014,216.986 C118.906,218.094 116.911,219 115.579,219 C113.658,219 113.016,218.33 112.464,215.75 C112.082,213.963 111.39,212.026 110.926,211.447 C110.449,210.851 110.671,209.261 111.438,207.781 C112.222,206.27 112.647,203.129 112.446,200.334 C111.835,191.866 108.888,176.555 107.626,175.293 C107.325,174.991 104.698,176.888 101.789,179.507 C98.88,182.126 95.253,184.706 93.729,185.24 C92.205,185.774 90.49,187.085 89.918,188.153 C89.346,189.222 87.674,190.554 86.202,191.113 C83.943,191.972 83.249,191.791 81.762,189.955 C80.793,188.758 80,187.218 80,186.532 C80,184.935 89.897,175 91.488,175 C92.149,175 93.547,174.053 94.594,172.896 C95.641,171.739 98.37,169.696 100.658,168.355 C105.167,165.712 106.552,163.576 104.975,161.696 C103.012,159.355 99,152.898 99,152.078 C99,151.62 98.325,150.685 97.5,150 C96.647,149.292 96,147.112 96,144.943 C96,142.846 95.607,140.088 95.128,138.815 C93.953,135.697 95.457,132 97.9,132 C100.185,132 104,136.892 104,139.822 C104,141.583 105.907,146.163 110.319,155 C111.994,158.355 115.105,158.618 118.612,155.701 C120.2,154.38 123.653,152.108 126.283,150.651 C132.754,147.068 136.37,144.73 137.15,143.626 C137.773,142.744 138.052,138.563 138.359,125.5 L138.5,119.5 L133.566,119.761 C129.371,119.983 128.21,119.617 125.81,117.318 C124.083,115.663 123.194,113.964 123.519,112.939 C123.812,112.018 123.609,110.102 123.069,108.682 C122.224,106.46 121.268,93.75 120.571,75.5 C120.466,72.75 119.845,69.517 119.19,68.316 C118.536,67.114 118,64.509 118,62.525 C118,60.385 117.111,57.717 115.813,55.961 C114.32,53.941 113.606,51.495 113.563,48.251 C113.502,43.635 113.584,43.5 116.47,43.5 C118.584,43.5 119.777,44.174 120.605,45.834 C123.028,50.695 123.754,50.662 128.845,45.452 C134.685,39.477 138.716,36.434 143.371,34.49 C145.292,33.687 147.146,32.573 147.491,32.015 Z M70.217,58.75 C72.434,55.573 73.628,55.354 76.171,57.655 C78.269,59.554 78.572,64.7 76.898,70.007 C75.762,73.609 74.109,80.981 73.648,84.5 C73.258,87.479 68.43,103.859 66.869,107.5 C65.408,110.907 60.012,128.428 60.006,129.785 C60.003,130.492 59.368,132.067 58.596,133.285 C57.824,134.503 56.884,137.412 56.508,139.75 C56.132,142.088 55.414,144 54.912,144 C54.41,144 54,144.981 54,146.179 C54,147.377 53.58,149.74 53.068,151.429 C52.555,153.118 51.623,156.525 50.997,159 C50.37,161.475 48.71,165.862 47.306,168.75 C44.513,174.498 45.137,176.994 49.372,177.006 C50.543,177.01 53.638,178.845 56.25,181.084 C59.89,184.204 61,185.834 61,188.058 C61,189.654 61.718,192.753 62.595,194.945 C63.472,197.138 63.983,199.509 63.73,200.216 C63.477,200.922 63.731,202.391 64.294,203.481 C66.371,207.501 66.021,211.822 63.362,214.982 C60.294,218.628 56.606,218.959 54.814,215.75 C54.124,214.512 53.301,209.897 52.987,205.494 C52.392,197.177 49.164,188.384 46.301,187.285 C45.464,186.964 43.298,188.256 41.137,190.366 C33.849,197.482 29.896,193.142 33.169,181.616 C33.811,179.352 34.711,177.072 35.169,176.55 C35.626,176.027 36,174.665 36,173.523 C36,172.38 36.605,170.557 37.345,169.473 C38.792,167.349 39.113,166.374 42.072,155.093 C43.141,151.02 44.418,147.195 44.912,146.593 C45.405,145.992 46.57,141.675 47.501,137 C48.431,132.325 49.808,127.334 50.559,125.909 C51.311,124.483 52.226,121.436 52.594,119.137 C52.962,116.837 53.654,114.714 54.131,114.419 C54.609,114.124 55,113.024 55,111.975 C55,110.926 55.737,108.365 56.639,106.284 C60.636,97.054 65.703,79.395 66.452,72.085 C67.114,65.625 68.266,61.545 70.217,58.75 Z M164.5,142.623 C159,145.14 153.029,147.826 151.232,148.592 C147.931,149.999 147.603,150.537 144.617,159.431 C142.364,166.143 143.533,167.045 150.225,163.757 C156.614,160.616 160.35,156.779 161.979,151.683 C163.677,146.373 166.851,145.045 170.921,147.944 C172.614,149.15 174,150.536 174,151.024 C174,151.512 175.35,154.202 177,157 C178.65,159.798 180,163.138 180,164.422 C180,165.705 180.675,167.315 181.5,168 C182.325,168.685 183,169.83 183,170.546 C183,171.261 184.576,173.911 186.502,176.434 C189.368,180.189 189.801,181.345 188.891,182.803 C187.999,184.231 188.297,185.349 190.389,188.432 C191.922,190.691 193,193.666 193,195.64 C193,198.333 193.397,199 195,199 C196.543,199 197,198.333 197,196.081 C197,192.908 199.549,181.721 201.006,178.5 C202.231,175.792 203.142,166.517 203.338,154.771 C203.494,145.42 203.394,144.936 200.784,142.328 C198.407,139.952 197.225,139.596 191.284,139.465 C187.553,139.384 182.25,139.031 179.5,138.681 C174.993,138.109 173.514,138.498 164.5,142.623 Z M131.2,54.2 C130.54,54.86 130,56.408 130,57.641 C130,58.874 129.493,60.195 128.874,60.578 C128.106,61.052 127.987,63.057 128.501,66.887 C128.915,69.974 129.392,74.975 129.561,78 C129.73,81.025 130.367,86.2 130.976,89.5 C132.221,96.25 132.253,97.368 131.408,104.75 C130.72,110.757 131.483,111.223 136.75,108.011 C139.987,106.037 140,105.996 140,97.916 C140,90.065 139.896,89.705 136.776,86.791 C132.469,82.767 131.94,77.345 135.526,73.976 C137.815,71.825 138,70.954 138,62.326 L138,53 L135.2,53 C133.66,53 131.86,53.54 131.2,54.2 Z M145.253,45.25 C142.234,47.361 140.914,50 142.879,50 C144.169,50 145.787,54.761 146.534,60.75 C147.248,66.482 147.27,66.499 151.857,64.9 C155.627,63.586 156.472,61.057 155.132,55.094 C154.596,52.707 154.364,50.216 154.616,49.559 C155.174,48.103 151.321,43 149.663,43 C149.008,43 147.023,44.013 145.253,45.25 Z M151.585,76.314 C149.105,78.127 147.866,98 150.232,98 C152.843,98 153.832,95.72 154.358,88.488 C154.637,84.645 155.152,80.569 155.502,79.43 C156.394,76.533 153.947,74.587 151.585,76.314 Z"/>
</svg>

