<svg xmlns="http://www.w3.org/2000/svg" width="300" height="300" viewBox="0 0 300 300" version="1.1">
  <defs/>
  <path d="M143.376,21.449 C145.963,19.637 146.847,19.914 149.4,23.334 C151.134,25.657 151.258,26.477 150.271,29.094 C148.609,33.496 149.518,35.041 153.34,34.308 C155.078,33.976 157.625,32.936 159,31.997 C160.375,31.059 163.717,29.999 166.427,29.641 C169.137,29.283 172.137,28.281 173.094,27.415 C174.418,26.217 175.303,26.092 176.799,26.893 C179.598,28.39 180.2,30.712 178.595,33.816 C176.31,38.235 173.841,39.77 167,41.024 C163.425,41.679 157.41,43.14 153.633,44.27 C147.264,46.177 146.529,46.697 143.485,51.456 C141.68,54.278 139.482,57.185 138.601,57.916 C137.721,58.647 137,59.81 137,60.5 C137,61.19 136.325,62.315 135.5,63 C134.675,63.685 134,65.252 134,66.483 C134,67.714 132.92,70.312 131.6,72.257 C130.28,74.202 128.872,76.853 128.471,78.147 C128.07,79.441 126.675,82.428 125.371,84.785 C124.067,87.142 123,89.88 123,90.87 C123,91.859 121.132,95.331 118.85,98.584 C114.967,104.118 112,109.835 112,111.783 C112,112.989 118.647,116.002 121.284,115.99 C122.733,115.984 124.192,114.813 125.5,112.605 C128.45,107.627 139.504,98.829 147.5,95.095 C151.35,93.297 155.478,91.357 156.673,90.785 C157.868,90.213 160.086,90.056 161.602,90.436 C165.415,91.393 171.953,96.176 171.979,98.027 C171.99,98.868 172.658,100.494 173.462,101.642 C174.492,103.113 174.902,106.329 174.851,112.532 C174.779,121.228 173.614,125.075 169.563,130 C168.885,130.825 167.755,132.951 167.054,134.725 C165.507,138.635 158.687,145.099 153.099,147.949 C147.828,150.639 147.702,152.806 152.242,162.655 C152.789,163.84 152.919,165.322 152.532,165.948 C152.145,166.575 152.26,167.63 152.788,168.294 C153.317,168.957 154.003,170.85 154.314,172.5 C156.249,182.777 156.99,183.987 161.372,184.032 C163.093,184.049 165.374,184.724 166.441,185.532 C167.509,186.339 169.759,186.998 171.441,186.996 C173.124,186.994 178.325,188.172 183,189.614 C205.636,196.597 213.639,199.303 218.303,201.553 C221.092,202.899 223.954,204 224.663,204 C225.372,204 227.425,204.898 229.226,205.996 C231.027,207.094 233.274,207.994 234.22,207.996 C235.165,207.998 237.64,208.96 239.72,210.133 C248.061,214.84 254.845,218 256.624,218.009 C259.143,218.022 269,223.742 269,225.191 C269,227.251 265.748,230 263.31,230 C262.001,230 259.807,229.264 258.435,228.365 C257.063,227.466 253.946,226.358 251.51,225.903 C249.073,225.448 245.359,223.989 243.257,222.662 C241.155,221.335 237.424,219.919 234.967,219.516 C232.51,219.113 228.025,217.311 225,215.513 C221.975,213.714 217.7,211.676 215.5,210.984 C213.3,210.293 209.925,208.948 208,207.995 C206.075,207.042 203,205.983 201.166,205.64 C199.332,205.297 196.563,204.113 195.011,203.008 C193.46,201.904 191.205,201 190,201 C187.373,201 177.206,198.302 174.764,196.956 C173.809,196.43 172.488,196 171.829,196 C171.17,196 168.707,195.068 166.355,193.93 C164.003,192.791 160.823,192.004 159.289,192.18 C156.996,192.443 156.537,192.945 156.71,195 C157.537,204.831 156.732,226.116 155.102,237.5 C152.728,254.088 152.454,254.394 143.764,250.198 C136.924,246.895 133.704,244.007 132.078,239.714 C131.246,237.519 131.322,236.814 132.433,236.387 C134.294,235.673 137.688,237.549 139.012,240.023 C140.108,242.07 143.445,242.707 144.462,241.062 C146.807,237.268 149.006,192.917 146.971,190.465 C146.351,189.718 144.002,188.971 141.75,188.804 C136.388,188.406 135.818,186.445 140.831,185.643 C142.981,185.299 145.237,184.419 145.844,183.688 C147.335,181.892 146.159,172 144.455,172 C143.157,172 139.25,176.91 130.596,189.414 C127.899,193.311 122.613,199.875 118.849,204 C115.086,208.125 112.005,212.051 112.003,212.724 C111.999,214.283 100.275,227.957 98.29,228.719 C97.471,229.033 95.741,230.35 94.446,231.645 C93.151,232.94 91.48,234 90.734,234 C89.987,234 88.378,235.35 87.158,237 C85.48,239.27 84.144,240 81.67,240 C79.872,240 77.883,240.517 77.251,241.149 C76.386,242.014 75.472,241.884 73.551,240.626 C68.983,237.632 70.753,230.338 75.732,231.64 C76.906,231.947 79.346,231.378 81.179,230.37 C85.381,228.059 95,218.975 95,217.319 C95,216.632 95.853,215.614 96.897,215.055 C100.109,213.336 119.694,188.793 127.663,176.5 C134.916,165.313 136.871,163 139.076,163 C141.88,163 141.747,157.47 138.907,155.95 C136.101,154.448 132.362,155.508 131.713,157.989 C131.075,160.428 128.315,160.595 125.829,158.345 C124.545,157.183 124,155.271 124,151.926 C124,149.306 123.367,145.888 122.593,144.331 C121.818,142.774 120.75,140.375 120.218,139 C119.685,137.625 117.775,133.575 115.972,130 C114.169,126.425 112.407,122.153 112.057,120.506 C110.9,115.064 108.792,116.536 101,128.229 C96.875,134.419 93.199,140.215 92.831,141.11 C91.789,143.642 87.099,144.099 84.884,141.884 C82.438,139.438 82.509,138.151 85.25,135.239 C86.487,133.924 88.625,130.941 90,128.609 C91.375,126.278 94.638,121.171 97.25,117.26 C99.862,113.349 102,109.657 102,109.055 C102,108.453 103.125,106.178 104.5,104 C107.845,98.701 107.671,97.505 103.19,94.987 C99.03,92.649 96.699,88.29 98.186,85.632 C99.491,83.301 101.032,83.619 104.886,87.016 C108.302,90.027 112,90.977 112,88.844 C112,88.209 113.028,86.296 114.284,84.594 C115.54,82.892 117.112,80.375 117.777,79 C119.294,75.862 121.134,72.984 122.75,71.221 C123.438,70.471 124,68.992 124,67.935 C124,66.879 126.025,62.76 128.5,58.783 C135.267,47.909 134.427,46.565 124.57,52.5 C117.975,56.471 117.299,56.598 114.223,54.443 C111.41,52.473 111.408,50.629 114.216,48.013 C116.816,45.591 126.475,41 128.972,41 C135.77,41 139.662,36.653 140.698,27.902 C141.109,24.428 141.923,22.467 143.376,21.449 Z M72.469,57.399 C77.153,53.974 79.316,56.756 78.513,65.173 C77.87,71.909 76.187,78.885 74.826,80.45 C74.372,80.973 74,82.399 74,83.619 C74,84.839 73.359,87.112 72.575,88.669 C71.792,90.226 70.586,93.525 69.895,96 C69.205,98.475 68.288,100.976 67.857,101.557 C67.427,102.139 66.385,105.265 65.541,108.504 C64.697,111.743 63.556,114.844 63.004,115.396 C62.452,115.948 62,117.516 62,118.879 C62,120.242 61.549,122.74 60.999,124.429 C60.448,126.118 59.132,130.2 58.074,133.5 C54.773,143.792 51.878,151.461 50.92,152.45 C50.414,152.973 50,154.605 50,156.078 C50,157.551 49.325,160.371 48.5,162.346 C46.03,168.256 46.412,169.357 50.687,168.663 C54.557,168.035 57,169.206 57,171.689 C57,172.484 58.123,174.606 59.495,176.405 C62.548,180.407 64,187.582 64,198.661 C64,206.841 63.933,207.075 61.317,208.069 C59.032,208.938 58.269,208.724 56.169,206.624 C53.976,204.431 53.683,203.224 53.517,195.705 C53.297,185.711 51.107,180.7 46.736,180.187 C44.569,179.933 43.946,180.368 43.408,182.51 C43.014,184.079 41.687,185.549 40.13,186.141 C37.886,186.994 37.192,186.762 35.257,184.512 C32.884,181.753 32.369,178.149 33.932,175.236 C34.444,174.281 36.073,169.9 37.551,165.5 C39.029,161.1 40.821,156.15 41.533,154.5 C42.244,152.85 44.243,147 45.973,141.5 C47.704,136 49.72,129.925 50.452,128 C51.185,126.075 52.337,122.475 53.012,120 C53.687,117.525 54.806,114.15 55.497,112.5 C57.08,108.724 58.725,103.903 60.614,97.5 C61.426,94.75 62.464,91.6 62.921,90.5 C65.544,84.182 66,82.649 66,80.153 C66,78.639 66.504,76.896 67.12,76.28 C68.434,74.966 70.056,68.12 70.35,62.649 C70.482,60.187 71.246,58.293 72.469,57.399 Z M144.482,59.697 C146.353,55.22 148.962,54.866 151.963,58.68 C153.693,60.879 168.001,70 169.721,70 C170.87,70 176.538,64.558 179.165,60.931 C182.399,56.467 185.61,55.806 188.509,59.01 C190.088,60.755 190.154,61.344 189.009,63.483 C188.28,64.844 186.081,66.474 184.095,67.125 C178.679,68.9 176,70.985 176,73.426 C176,75.14 177.818,76.635 184.269,80.227 C188.816,82.759 193.369,85.751 194.386,86.874 C195.403,87.998 198.545,89.666 201.368,90.582 C204.19,91.497 206.873,92.586 207.329,93.002 C207.784,93.417 207.493,95.724 206.681,98.129 C205.353,102.059 204.816,102.565 201.352,103.145 C197.236,103.835 195.023,102.789 194.964,100.128 C194.887,96.66 189.999,92.903 177.332,86.577 C170.089,82.96 163.441,80 162.557,80 C161.673,80 160.55,78.948 160.061,77.661 C158.895,74.594 153.577,70.162 148.191,67.769 C142.956,65.443 142.498,64.446 144.482,59.697 Z M150.75,104.541 C148.137,105.915 146,107.412 146,107.87 C146,108.945 136.276,115 134.549,115 C133.823,115 132.507,116.104 131.623,117.453 C130.647,118.942 128.636,120.165 126.508,120.565 C124.578,120.926 123,121.33 123,121.462 C123,121.594 123.413,123.006 123.917,124.601 C124.422,126.195 125.105,128.738 125.436,130.25 C126.341,134.383 129,133.8 129,129.469 C129,127.018 129.536,125.74 130.75,125.292 C131.713,124.936 132.725,124.376 133,124.047 C134.228,122.577 141.875,117 142.664,117 C143.145,117 146.23,114.98 149.52,112.511 C156.652,107.156 161.337,106.45 163.161,110.455 C164.468,113.322 162.653,119 160.43,119 C159.699,119 157.9,120.575 156.432,122.5 C154.964,124.425 153.202,126 152.516,126 C151.831,126 150.126,126.9 148.727,128 C147.329,129.1 145.429,130 144.506,130 C143.582,130 140.885,131.394 138.512,133.099 C135.568,135.213 133.557,135.994 132.183,135.558 C129.167,134.601 128.59,136.638 130.476,141.577 C132.527,146.946 134.185,147.146 138.64,142.559 C140.478,140.666 143.041,138.529 144.336,137.809 C155.051,131.851 163.601,123.319 164.563,117.626 C164.939,115.399 165.721,112.819 166.299,111.893 C167.061,110.672 166.948,109.148 165.889,106.354 C164.518,102.74 164.15,102.486 159.964,102.272 C156.806,102.11 154.111,102.774 150.75,104.541 Z"/>
</svg>

