<svg xmlns="http://www.w3.org/2000/svg" width="300" height="300" viewBox="0 0 300 300" version="1.1">
  <defs/>
  <path d="M124.257,51.25 C125.555,49.608 128.038,49.714 130.414,51.512 C132.197,52.861 132.237,53.344 130.994,58.527 C130.259,61.588 129.285,64.324 128.829,64.606 C128.373,64.887 128,66.415 128,68 C128,69.585 127.562,71.153 127.027,71.483 C126.492,71.814 125.546,73.974 124.924,76.283 C124.302,78.592 122.94,81.68 121.897,83.145 C120.853,84.61 120,86.533 120,87.418 C120,88.303 119.446,89.915 118.768,91 C117.67,92.758 118.184,93.628 123.487,98.986 C127.933,103.479 130.143,105 132.228,105 C133.893,105 136.203,106.109 137.957,107.75 C139.573,109.263 142.757,112.058 145.032,113.963 C147.307,115.867 149.817,118.68 150.61,120.213 C152.347,123.571 154.116,123.714 158.04,120.812 C160.316,119.13 161.018,117.8 161.076,115.062 C161.191,109.696 163.355,104.547 165.639,104.206 C169.351,103.652 170.942,106.981 171.428,116.313 C171.676,121.089 172.211,125.533 172.617,126.189 C173.022,126.845 173.253,129.33 173.13,131.71 C173.007,134.091 173.18,136.482 173.515,137.025 C173.85,137.567 174.268,140.971 174.443,144.59 C174.94,154.841 170.729,161.018 165.555,157.628 C163.375,156.199 163.246,155.506 163.269,145.351 C163.3,131.911 162.83,131.43 153.988,135.848 C150.519,137.582 147.071,139 146.327,139 C144.961,139 144.082,139.37 138.346,142.357 C136.611,143.261 134.543,144 133.751,144 C132.958,144 131.538,144.853 130.595,145.895 C129.652,146.937 127.895,148.025 126.69,148.313 C122.781,149.247 115.943,151.991 113.442,153.63 C111.458,154.93 111,156.065 111,159.678 C111,167.175 107.784,185.31 105.839,188.78 C104.827,190.585 104,192.753 104,193.6 C104,194.446 102.72,198.37 101.155,202.32 C99.59,206.269 97.479,212.2 96.463,215.5 C95.447,218.8 94.027,222.388 93.308,223.473 C92.589,224.557 92,226.443 92,227.663 C92,228.884 91.55,230.16 91,230.5 C90.45,230.84 90,232.865 90,235 C90,237.135 89.55,239.16 89,239.5 C88.45,239.84 88,241.147 88,242.404 C88,243.661 87.089,245.515 85.975,246.523 C83.991,248.318 83.866,248.275 79.975,244.475 C77.789,242.341 76,239.849 76,238.938 C76,238.027 77.344,234.631 78.987,231.391 C80.63,228.151 81.98,225.042 81.987,224.482 C81.994,223.922 83.125,221.809 84.5,219.785 C85.875,217.762 87,215.176 87,214.039 C87,212.903 87.422,211.191 87.938,210.236 C89.541,207.268 95,191.908 95,190.365 C95,189.56 95.731,187.487 96.624,185.76 C98.41,182.307 102,166.35 102,161.867 C102,158.246 98.524,157.161 94.157,159.419 C92.281,160.389 88.565,161 84.541,161 C78.747,161 77.647,160.679 75.115,158.25 C73.238,156.45 72.06,154.118 71.705,151.5 C71.407,149.3 70.609,145.475 69.932,143 C69.255,140.525 68.656,134.45 68.601,129.5 L68.5,120.5 L71.25,120.184 C74.539,119.805 76,122.664 76,129.476 C76,131.866 76.894,136.674 77.987,140.161 C79.08,143.647 79.98,147.239 79.987,148.143 C80.007,150.669 81.926,150.898 90.533,149.402 C101.263,147.536 108.843,144.977 121.683,138.885 C139.777,130.302 144.941,128.111 144.831,126.229 C144.776,125.302 143.442,124.45 141.743,122.946 C138.342,119.935 127.339,113 125.963,113 C125.526,113 122.994,110.975 120.336,108.5 C117.679,106.025 114.937,104 114.243,104 C113.55,104 111.175,107.713 108.966,112.25 C106.757,116.787 103.088,124.1 100.812,128.5 C98.537,132.9 96.105,137.625 95.408,139 C94.425,140.94 93.237,141.568 90.108,141.806 C85.873,142.127 82,140.7 82,138.818 C82,138.206 83.575,135.784 85.5,133.435 C87.425,131.085 89,128.758 89,128.262 C89,127.766 90.575,125.52 92.5,123.271 C94.425,121.022 96,118.273 96,117.163 C96,115.253 101.84,104.328 104.683,100.921 C106.833,98.345 106.199,95.345 102.923,92.589 C101.231,91.165 99.449,90 98.964,90 C97.503,90 90.663,82.103 89.285,78.826 C87.451,74.465 87.628,74 91.129,74 C93.3,74 95.443,75.071 98.132,77.5 C100.262,79.425 102.624,81 103.38,81 C104.137,81 105.315,81.675 106,82.5 C107.719,84.571 111.928,84.412 112.634,82.25 C112.948,81.287 114.719,77.298 116.568,73.384 C119.577,67.015 120.848,63.206 122.703,55 C123.014,53.625 123.713,51.938 124.257,51.25 Z M135.667,146.667 C136.748,145.586 138.401,145.892 140.892,147.637 C143.219,149.267 143.225,149.33 142.509,163.887 C142.114,171.924 141.447,178.95 141.026,179.5 C140.21,180.568 138.513,201.161 138.76,207 C139.672,228.535 140.646,231.818 147.829,237.56 C151.308,240.342 152.074,240.513 162.5,240.835 C168.55,241.022 176.65,240.662 180.5,240.035 C184.35,239.407 192,238.484 197.5,237.983 C203,237.482 209.525,236.582 212,235.983 C223.403,233.223 223.777,233.043 226.024,229.236 C227.984,225.915 228.153,224.666 227.538,218 C227.157,213.875 226.49,204.65 226.054,197.5 C225.154,182.72 223.836,176.51 220.58,171.713 C215.531,164.272 216.908,159.662 222.904,163.931 C228.82,168.144 231.962,178.158 233.96,199.171 C234.413,203.94 235.079,208.319 235.439,208.902 C236.415,210.48 236.804,230.261 235.894,232 C235.463,232.825 234.849,235.137 234.531,237.137 C233.996,240.493 233.509,240.938 228.226,242.9 C225.077,244.07 217.775,245.49 212,246.056 C206.225,246.622 197,247.55 191.5,248.118 C159.6,251.411 150.881,250.77 141.331,244.431 C138.322,242.434 135.599,240.058 135.278,239.15 C134.958,238.243 134.086,236.786 133.341,235.914 C132.596,235.041 131.553,230.991 131.024,226.914 C129.8,217.482 129.71,190.297 130.901,189.561 C131.397,189.255 131.788,187.541 131.771,185.752 C131.754,183.963 132.473,177.119 133.37,170.542 C134.266,163.964 135,156.052 135,152.958 C135,149.865 135.3,147.033 135.667,146.667 Z"/>
</svg>

