<svg xmlns="http://www.w3.org/2000/svg" width="300" height="300" viewBox="0 0 300 300" version="1.1">
  <defs/>
  <path d="M121.223,47.841 C123.219,46.574 125.637,46.857 127.016,48.519 C127.94,49.633 128.141,53.128 127.767,61.6 C127.178,74.958 127.859,76.087 133.516,71.12 C135.452,69.42 138.266,67.738 139.768,67.383 C141.271,67.028 143.508,65.823 144.74,64.704 C146.899,62.744 147.05,62.735 148.964,64.467 C152.241,67.433 152.36,69.662 149.444,73.485 C147.705,75.765 145.929,77 144.389,77 C143.005,77 140.885,78.269 139.304,80.043 C137.812,81.717 134.771,83.894 132.546,84.881 C130.321,85.868 127.917,87.381 127.204,88.245 C125.75,90.007 124.212,97.51 123.461,106.5 C123.186,109.8 122.696,113.175 122.373,114 C122.05,114.825 121.609,117.412 121.393,119.75 C121.177,122.088 120.826,125.912 120.614,128.25 C120.402,130.588 119.903,133.738 119.506,135.25 C118.853,137.736 119.036,138 121.411,138 C122.857,138 125.822,136.875 128,135.5 C130.178,134.125 132.307,132.999 132.73,132.998 C133.154,132.997 136.079,131.636 139.232,129.974 C143.302,127.829 145.706,127.139 147.523,127.595 C148.93,127.948 152.118,127.667 154.606,126.97 C160.286,125.38 161.989,126.726 162.741,133.397 L163.26,138 L157.318,138 C153.532,138 149.947,138.689 147.438,139.898 C145.272,140.942 141.564,142.316 139.199,142.95 C136.833,143.585 134.627,144.807 134.298,145.666 C133.969,146.524 134.66,149.501 135.834,152.28 C137.1,155.277 137.618,157.774 137.106,158.416 C136.631,159.012 135.934,162.65 135.558,166.5 C134.608,176.203 131.984,189.222 130.644,190.887 C130.03,191.65 129.475,193.675 129.411,195.387 C129.347,197.099 128.945,201.261 128.517,204.636 C127.262,214.537 128.513,219.847 133.141,224.249 C135.31,226.312 137.988,228 139.092,228 C140.196,228 142.539,228.748 144.3,229.662 C148.247,231.712 169.982,232.667 177.5,231.12 C180.25,230.555 185.425,229.576 189,228.946 C201.8,226.689 202.555,226.177 205.486,217.763 C206.542,214.731 206.975,209.142 206.985,198.409 C207.001,182.413 205.961,176.562 202.149,171.21 C199.858,167.992 200.185,167 203.538,167 C204.936,167 206.613,168.278 208.121,170.493 C209.429,172.414 210.779,173.989 211.12,173.993 C213.091,174.015 216.386,198.986 216.203,212.516 C216.15,216.419 212.577,233.063 211.682,233.573 C205.936,236.845 198.127,239.096 190.5,239.68 C188.3,239.848 184.025,240.24 181,240.551 C177.975,240.861 168.591,241.1 160.147,241.082 C145.967,241.051 144.402,240.861 139.647,238.601 C136.816,237.255 132.918,235.474 130.985,234.642 C126.293,232.623 123.756,229.617 121.127,222.961 C119.148,217.951 119.003,216.326 119.608,205.961 C119.976,199.643 120.887,193.288 121.638,191.8 C122.387,190.314 123,187.529 123,185.609 C123,183.689 123.45,181.84 124,181.5 C124.55,181.16 125.007,178.996 125.015,176.691 C125.023,174.386 125.669,169.79 126.45,166.478 C127.977,160.002 127.882,155.128 126.142,150.75 C124.989,147.849 124.065,147.485 121.236,148.819 C113.993,152.235 107.911,155.757 103.487,159.097 L98.301,163.013 L98.78,170.474 C99.126,175.869 98.84,178.843 97.745,181.217 C96.912,183.023 95.635,186.3 94.908,188.5 C94.181,190.7 93.097,193.175 92.5,194 C91.903,194.825 90.829,196.85 90.114,198.5 C89.4,200.15 88.103,202.85 87.232,204.5 C86.361,206.15 84.755,209.3 83.663,211.5 C82.571,213.7 80.89,216.4 79.928,217.5 C78.966,218.6 77.256,222.331 76.13,225.792 C73.563,233.675 70.435,239.564 66.592,243.75 C63.241,247.399 61.495,247.758 58.829,245.345 C56.452,243.194 56.511,240.437 59,237.273 C60.1,235.874 61,233.961 61,233.02 C61,232.08 61.9,230.495 63,229.5 C64.1,228.505 65,226.594 65,225.254 C65,223.914 66.575,220.978 68.5,218.729 C70.425,216.48 72,214.069 72,213.37 C72,212.672 73.425,209.989 75.167,207.408 C76.908,204.828 78.847,201.318 79.476,199.608 C80.104,197.899 82.482,192.655 84.759,187.956 C89.303,178.579 91.642,170.242 90.147,168.747 C89.072,167.672 85.907,169.127 81.686,172.638 C80.138,173.925 76.011,176.402 72.514,178.143 C66.781,180.996 65.86,181.185 63.15,180.062 C56.676,177.38 58.791,172.997 69.198,167.529 C73.415,165.313 79.01,161.992 81.631,160.15 C84.253,158.307 87.534,156.367 88.923,155.839 C90.313,155.311 95.135,152.565 99.641,149.737 C105.602,145.996 107.98,143.902 108.375,142.048 C110.014,134.355 111.596,128.364 112.257,127.34 C112.669,126.702 112.744,125.496 112.423,124.66 C112.102,123.824 112.515,119.621 113.341,115.32 C115.73,102.872 115.931,100.289 114.647,98.532 C113.121,96.446 110.607,97.372 109.157,100.555 C108.526,101.939 107.192,103 106.08,103 C105.001,103 103.84,103.45 103.5,104 C103.16,104.55 101.446,105.015 99.691,105.033 C93.388,105.099 91.827,108.019 89.483,124.128 C89.193,126.124 87.84,128.959 86.478,130.43 C85.115,131.9 84,133.56 84,134.119 C84,135.253 77.137,142 75.983,142 C75.577,142 74.726,141.374 74.091,140.61 C73.198,139.534 73.42,138.403 75.073,135.602 C76.247,133.611 76.926,131.249 76.581,130.351 C76.237,129.453 76.658,127.644 77.518,126.332 C79.512,123.289 83.671,109.621 84.618,103 C85.625,95.956 87.584,86.371 88.214,85.404 C88.606,84.802 88.872,78.237 88.805,70.816 C88.737,63.395 89.005,56.8 89.4,56.162 C90.407,54.533 94.517,54.713 95.958,56.449 C97.521,58.333 97.402,88.926 95.811,94.236 C95.189,96.313 94.968,98.301 95.32,98.653 C95.671,99.005 99.345,96.077 103.483,92.146 C107.621,88.216 111.595,85 112.316,85 C113.036,85 114.823,83.75 116.286,82.223 C118.456,79.958 118.845,78.806 118.397,75.973 C117.542,70.576 119.731,48.788 121.223,47.841 Z"/>
</svg>

