<svg xmlns="http://www.w3.org/2000/svg" width="300" height="300" viewBox="0 0 300 300" version="1.1">
  <defs/>
  <path d="M201.5,137.074 C207.547,135.813 207.777,135.843 209.348,138.087 C210.418,139.614 210.572,141.005 209.923,143.27 C208.75,147.358 207.846,148.137 203.852,148.502 C202.008,148.67 195.396,149.253 189.158,149.796 C182.919,150.34 177.317,151.283 176.708,151.892 C176.098,152.502 174.565,153 173.3,153 C170.22,153 170.403,154.249 174.012,157.858 C175.669,159.515 177.294,162.221 177.624,163.871 C177.954,165.522 178.926,167.141 179.783,167.47 C181.684,168.2 191.541,163.608 195.067,160.349 C198.8,156.899 203.55,157.986 205.538,162.745 C206.943,166.108 206.889,166.352 203.912,170.112 C201.101,173.66 200.413,174 196.038,174 C192.997,174 190.79,174.548 190,175.5 C189.315,176.325 188.201,177 187.524,177 C186.846,177 185.094,178.11 183.63,179.467 L180.967,181.935 L181.706,197.717 C182.112,206.398 182.353,217.55 182.241,222.5 C181.393,260.118 180.672,274.189 179.269,280.5 C178.413,284.35 177.659,288.901 177.593,290.613 C177.434,294.741 175.404,297 171.853,297 C169.769,297 168.704,296.366 168.076,294.75 C167.595,293.512 165.779,291.152 164.04,289.505 C157.906,283.693 152.995,271.054 155.374,267.203 C156.461,265.445 162,269.524 162,272.082 C162,275.378 166.256,281.064 168.5,280.766 C170.28,280.529 170.581,279.455 171.238,271 C173.248,245.14 173.763,204.294 172.117,201.219 C171.579,200.213 171.388,197.529 171.693,195.255 C172.326,190.53 171.456,186 169.914,186 C169.338,186 167.392,187.125 165.589,188.5 C163.786,189.875 161.393,191 160.27,191 C158.04,191 155.76,192.096 149.17,196.338 C145.084,198.969 144.705,199.037 142.42,197.54 C141.089,196.668 140,195.106 140,194.07 C140,191.88 147.5,185.415 154,182.001 C156.475,180.701 160.75,178.441 163.5,176.979 L168.5,174.321 L168.345,168.911 C167.881,152.748 167.68,152.169 163.758,155.719 C162.032,157.281 152.604,161.28 139.5,166.009 C136.75,167.001 132.985,168.589 131.133,169.538 C129.281,170.487 126.356,171.636 124.633,172.092 C120.58,173.164 109.079,177.309 106.5,178.626 C105.4,179.188 102.475,180.236 100,180.954 C97.525,181.672 94.15,182.828 92.5,183.524 C90.85,184.22 88.043,185.096 86.261,185.471 C84.48,185.847 82.797,186.52 82.52,186.968 C82.243,187.415 79.717,188.984 76.907,190.454 C72.052,192.992 71.702,193.04 69.898,191.408 C66.041,187.918 69.085,180 74.284,180 C75.333,180 77.386,179.173 78.846,178.162 C80.306,177.152 83.75,175.728 86.5,174.999 C89.25,174.27 93.918,172.622 96.874,171.336 C99.83,170.051 103.306,169 104.598,169 C105.89,169 108.871,168.143 111.223,167.096 C113.575,166.048 117.3,164.517 119.5,163.693 C127.874,160.554 134.541,157.738 135.592,156.894 C136.192,156.412 139.342,155.153 142.592,154.096 C145.841,153.039 149.85,151.509 151.5,150.696 C153.15,149.883 156.075,148.506 158,147.636 C162.53,145.589 183.769,140.002 191.5,138.823 C194.8,138.32 199.3,137.533 201.5,137.074 Z M67.462,48.681 C70.735,45.407 76,47.146 76,51.5 C76,52.655 76.501,54.101 77.113,54.713 C78.654,56.254 76.622,68.373 73.123,78.5 C72.553,80.15 71.117,84.875 69.932,89 C68.747,93.125 66.927,98.408 65.888,100.739 C64.85,103.071 64,105.291 64,105.673 C64,106.056 63.142,108.198 62.094,110.434 C61.045,112.67 59.207,117.875 58.009,122 C56.811,126.125 55.419,130.281 54.915,131.236 C54.412,132.191 54,133.809 54,134.831 C54,135.854 53.128,137.479 52.062,138.444 C50.914,139.483 49.414,143.316 48.383,147.849 C47.425,152.057 46.047,156.21 45.321,157.079 C44.594,157.947 44,159.191 44,159.842 C44,160.494 43.438,161.98 42.75,163.144 C41.966,164.473 41.872,165.406 42.5,165.651 C46.399,167.17 53.477,172.676 55.991,176.146 C58.34,179.388 59,181.352 59,185.091 C59,187.726 59.45,190.16 60,190.5 C61.32,191.316 61.291,205.587 59.965,208.066 C59.395,209.13 58.187,210 57.279,210 C54.678,210 51,205.915 51,203.026 C51,201.582 50.532,199.932 49.961,199.361 C49.389,198.789 48.789,194.804 48.627,190.504 C48.373,183.776 48.015,182.431 46.055,180.844 C42.579,178.029 40.81,178.581 36.998,183.669 C32.044,190.282 30.947,190.76 27.157,187.958 C24.114,185.708 22.903,181.796 24.873,180.578 C25.353,180.282 26.964,177.443 28.451,174.269 C29.939,171.096 32.255,166.147 33.599,163.27 C34.943,160.394 36.316,156.672 36.65,154.999 C36.985,153.327 37.65,151.716 38.129,151.42 C38.608,151.124 39,149.874 39,148.641 C39,147.408 39.427,145.973 39.948,145.45 C40.47,144.928 41.56,142.025 42.37,139 C43.181,135.975 44.779,131.609 45.922,129.298 C47.065,126.987 48,124.132 48,122.953 C48,121.773 48.629,119.614 49.398,118.154 C50.166,116.694 51.372,113.475 52.078,111 C52.783,108.525 54.405,104.377 55.68,101.783 C56.956,99.189 58,95.92 58,94.52 C58,93.119 58.418,91.191 58.928,90.236 C60.213,87.831 63,78.463 63,76.549 C63,75.682 63.402,74.191 63.892,73.236 C65.5,70.108 66.903,59.596 66.336,54.931 C65.913,51.447 66.18,49.963 67.462,48.681 Z M165.891,61.332 C167.876,60.689 171.292,60.239 173.481,60.332 C176.87,60.475 177.608,60.915 178.438,63.289 C179.195,65.454 179.002,66.841 177.573,69.495 C176.39,71.69 175.939,73.947 176.312,75.808 C176.791,78.203 176.381,79.082 173.945,80.882 C172.325,82.08 171,83.681 171,84.441 C171,85.201 169.659,86.951 168.02,88.33 C165.678,90.301 164.446,90.679 162.27,90.097 C158.264,89.026 158.334,86.519 162.512,81.42 C167.743,75.036 165.519,71.368 159.154,75.883 C157.694,76.919 153.695,78.551 150.267,79.51 C146.839,80.469 143.521,81.872 142.895,82.627 C142.268,83.382 141.117,84 140.337,84 C139.557,84 137.7,84.892 136.21,85.983 C133.303,88.109 122.801,92 119.966,92 C119.019,92 117.725,92.626 117.09,93.391 C116.455,94.156 114.713,95.015 113.218,95.3 C111.723,95.584 106.967,96.755 102.649,97.902 C92.731,100.536 90,100.006 90,95.448 C90,91.659 92.861,89 96.939,89 C98.311,89 101.248,88.363 103.467,87.585 C105.685,86.807 110.875,85.208 115,84.032 C119.125,82.856 127.934,79.218 134.575,75.947 C141.216,72.676 147.222,70 147.921,70 C148.619,70 150.386,69.159 151.846,68.131 C153.306,67.103 155.625,65.923 157,65.509 C158.375,65.094 160.126,64.248 160.891,63.628 C161.656,63.007 163.906,61.974 165.891,61.332 Z M134.751,12.25 C136.427,9.338 137.777,9.413 141.103,12.598 C143.658,15.047 144.024,15.121 147.452,13.881 C150.091,12.927 151.557,12.859 152.794,13.635 C157.117,16.345 153.993,22.62 147.4,24.47 C143.118,25.671 142.825,26.258 141.132,37 C140.568,40.575 139.806,44.513 139.437,45.75 C138.533,48.783 140.421,48.665 144.244,45.449 C148.28,42.052 150.875,42.593 152.711,47.215 C154.091,50.69 154.048,51.123 152.052,53.927 C150.585,55.987 148.757,57.122 146.209,57.556 C144.169,57.903 141.281,59.045 139.79,60.093 C138.3,61.142 136.448,62 135.675,62 C134.902,62 133.126,62.9 131.727,64 C128.544,66.504 127.504,66.504 125,64 C122.261,61.261 122.289,55.451 125.048,53.974 C127.368,52.732 128.863,49.538 130.182,43 C130.681,40.525 131.333,37.349 131.63,35.943 C132.577,31.464 127.959,29.795 121.875,32.418 C120.838,32.864 119.234,32.245 117.449,30.71 L114.649,28.301 L116.893,25.151 C118.127,23.418 119.916,22 120.868,22 C121.821,22 123.027,21.585 123.55,21.078 C124.073,20.571 126.038,19.765 127.918,19.286 C129.797,18.807 131.812,17.535 132.395,16.458 C132.978,15.381 134.038,13.488 134.751,12.25 Z M136,100.029 C143.992,95.914 146.876,95.276 148.8,97.2 C151.126,99.526 150.107,102.82 146.055,106.076 C141.703,109.574 140,113.273 140,119.233 C140,122.415 140.669,123.817 143.5,126.566 C149.458,132.352 147.289,136.683 138.044,137.46 C135.14,137.704 131.994,138.601 131.053,139.452 C130.112,140.303 128.928,141.008 128.421,141.017 C127.915,141.027 126.419,142.174 125.098,143.566 C123.777,144.958 122.053,145.851 121.266,145.549 C120.48,145.247 118.973,145 117.918,145 C116.362,145 116.007,144.293 116.036,141.25 C116.076,137.085 118.234,134.019 124.297,129.513 C127.928,126.815 128.081,126.468 127.797,121.596 L127.5,116.5 L120.934,116.824 C113.533,117.19 111.632,116.011 112.178,111.393 C112.458,109.023 113.353,108.364 119,106.373 C122.575,105.113 126.175,104.039 127,103.986 C127.825,103.934 131.875,102.153 136,100.029 Z M119.5,189 C119.84,188.45 121.629,188 123.475,188 C128.413,188 133,194 133,200.46 C133,206.829 132.582,207.522 119.521,222.797 C115.753,227.204 110.779,230.284 106.899,230.613 C102.502,230.986 101,229.302 101,224 C101,219.232 98.897,215.944 90.75,207.975 C86.456,203.775 85.764,199.732 89.04,197.978 C90.656,197.114 91.748,197.302 94.29,198.886 C98.354,201.418 108,212.356 108,214.433 C108,217.601 111.535,215.844 117.225,209.845 C123.189,203.558 123.62,202.424 120.735,200.605 C119.467,199.805 118.51,200.112 116.557,201.946 C114.757,203.638 112.793,204.351 109.762,204.413 C105.631,204.497 105.507,204.408 105.721,201.513 C105.989,197.881 113.42,190.113 116.691,190.045 C117.896,190.02 119.16,189.55 119.5,189 Z M136.2,211.2 C139.627,207.773 154.416,211.528 159.683,217.164 C162.211,219.868 164.272,224.751 163.448,226.084 C162.733,227.241 158.521,227.272 156.236,226.138 C146.83,221.469 143.129,219.966 141,219.953 C135.984,219.92 132.972,214.428 136.2,211.2 Z"/>
</svg>

