<svg xmlns="http://www.w3.org/2000/svg" width="300" height="300" viewBox="0 0 300 300" version="1.1">
  <defs/>
  <path d="M114.5,129.364 C120.294,127.292 125.459,126.125 129,126.088 C135.129,126.024 136.15,126.454 137.944,129.86 C139.961,133.686 136.949,139.906 129.936,146.399 C123.934,151.956 122.767,154.313 125.5,155.362 C128.87,156.655 126.426,174.075 121.914,180.921 C117.39,187.786 118.042,188.54 127.212,187.05 C130.671,186.489 143.625,185.778 156,185.472 C182.822,184.808 187.902,184.553 194.571,183.537 C201.702,182.45 206,184.665 206,189.427 C206,192.181 205.397,193.158 202.72,194.738 C197.967,197.542 194.55,198.167 191.791,196.736 C188.646,195.104 140.522,195.332 130.5,197.025 C126.65,197.676 119,198.555 113.5,198.977 C99.101,200.085 93.677,200.792 90.592,201.965 C89.095,202.534 86.41,203 84.626,203 C82.842,203 80.509,203.661 79.441,204.468 C78.374,205.276 76.594,205.951 75.486,205.968 C72.384,206.017 63.374,209.561 60.398,211.902 C56.882,214.667 54.408,214.552 52.429,211.532 C50.38,208.404 51.544,204.373 55.026,202.539 C61.74,199.003 71.958,196.124 89.286,192.887 C93.018,192.189 96.504,191.097 97.033,190.46 C97.663,189.701 97.297,186.574 95.974,181.4 C94.862,177.055 94.214,172.305 94.535,170.845 C94.855,169.385 94.641,167.896 94.059,167.536 C93.476,167.176 93,165.049 93,162.809 C93,157.765 89.896,152.503 85.653,150.355 C80.907,147.953 79,145.943 79,143.345 C79,140.577 82.002,140.214 86,142.5 C89.956,144.762 93.736,144.379 95.218,141.568 C97.309,137.601 104.897,132.799 114.5,129.364 Z M120,211.167 C126.871,208.048 131.128,208.351 134.92,212.229 C138.573,215.965 139.733,219.412 138.029,221.465 C137.372,222.256 137.089,223.713 137.399,224.702 C138.28,227.51 134.454,240.193 128.807,253.188 C126.007,259.629 125.926,260.254 126.603,270.092 C127.41,281.806 128.662,284 134.535,284 C136.48,284 139.091,284.669 140.338,285.486 C143.728,287.707 164.047,286.83 174.5,284.011 C178.9,282.824 184.3,281.466 186.5,280.993 C188.7,280.521 192.3,279.54 194.5,278.815 L198.5,277.497 L199.316,267.998 C199.765,262.774 200.156,257.825 200.184,257 C200.267,254.562 197.935,243.646 196.928,241.764 C196.418,240.809 196,239.061 196,237.88 C196,236.698 195.473,233.973 194.829,231.823 C193.821,228.458 193.896,227.676 195.367,226.207 C196.979,224.597 197.269,224.728 200.45,228.5 C202.802,231.288 203.989,233.864 204.368,237 C205.64,247.528 206.759,253.687 207.906,256.486 C209.838,261.199 208.993,282.483 206.726,286.211 C205.171,288.767 204.542,289.058 201.852,288.467 C200.037,288.069 197.677,288.3 196.131,289.028 C190.634,291.617 181.794,294 177.686,294 C176.429,294 174.972,294.405 174.45,294.9 C172.926,296.345 143.807,297.092 135.275,295.905 C126.766,294.722 120,291.817 120,289.348 C120,288.461 119,286.118 117.778,284.14 C114.891,279.469 113.938,270.857 115.671,265.099 C116.402,262.67 117,259.16 117,257.301 C117,255.441 117.937,252.652 119.082,251.103 C120.42,249.293 121.362,246.104 121.718,242.176 C122.096,238.007 122.865,235.527 124.136,234.377 C125.161,233.449 126,231.439 126,229.91 C126,228.381 126.467,225.903 127.037,224.402 C128.469,220.635 127.038,219.668 122.709,221.477 C120.704,222.315 117.443,223 115.462,223 C112.716,223 110.731,223.951 107.115,227 C104.506,229.2 101.916,231 101.36,231 C100.804,231 99.316,232.099 98.054,233.443 C96.259,235.353 95.707,237.21 95.521,241.957 C95.367,245.909 94.711,248.662 93.642,249.843 C92.739,250.841 92,252.2 92,252.864 C92,253.527 91.288,255.158 90.417,256.486 C89.46,257.947 89.1,259.74 89.507,261.023 C89.925,262.338 89.606,263.781 88.669,264.822 C87.838,265.745 86.193,268.975 85.012,272 C82.62,278.132 75.648,286 72.606,286 C70.339,286 66,282.288 66,280.349 C66,279.632 67.085,278.335 68.41,277.467 C70.512,276.09 72.205,273.147 77.31,262 C77.939,260.625 79.477,257.821 80.727,255.77 C81.977,253.718 83,250.996 83,249.72 C83,248.444 83.374,246.972 83.831,246.45 C85.377,244.685 87,237.3 87.033,231.884 C87.057,228.12 87.631,225.823 88.944,224.25 C90.885,221.922 94.418,221.249 95.5,223 C96.593,224.769 99.586,224.069 102.024,221.474 C103.329,220.085 105.545,218.353 106.949,217.625 C114.056,213.939 115.849,213.051 120,211.167 Z M86.281,56.019 C90.802,53.829 95.4,52.044 96.5,52.051 C103.968,52.099 105.783,64.98 100.085,77.5 C96.865,84.577 94.956,88.431 93.152,91.5 C92.182,93.15 90.779,96.075 90.034,98 C89.29,99.925 87.725,102.85 86.556,104.5 C85.388,106.15 83.881,108.625 83.208,110 C82.535,111.375 79.969,115.65 77.506,119.5 C75.044,123.35 72.132,128.3 71.035,130.5 C69.939,132.7 67.345,136.32 65.271,138.544 C61.123,142.992 55.882,148.926 49.014,156.95 C44.565,162.15 37.713,167 34.817,167 C32.806,167 29.633,163.403 30.461,162.063 C30.822,161.478 31.748,161 32.519,161 C34.35,161 37.174,157.98 48.886,143.5 C59.006,130.988 61.671,127.177 64.969,120.5 C66.056,118.3 67.854,115.15 68.966,113.5 C72.125,108.811 71.592,107.337 65.75,104.594 C62.862,103.239 59.15,101.841 57.5,101.487 C52.051,100.32 50,98.828 50,96.031 C50,89.978 54.99,89.467 64.884,94.51 C68.672,96.44 72.32,98.681 72.991,99.489 C74.497,101.303 78,99.779 78,97.309 C78,96.418 79.039,94.296 80.308,92.594 C81.577,90.892 83.397,87.925 84.352,86 C85.308,84.075 86.936,81.15 87.971,79.5 C89.007,77.85 89.887,75.768 89.927,74.872 C89.967,73.977 90.675,72.685 91.5,72 C92.325,71.315 93,69.403 93,67.75 C93,64.776 92.956,64.751 88.765,65.422 C86.436,65.794 81.994,67.237 78.894,68.628 C72.13,71.663 67.646,71.526 67.183,68.27 C66.938,66.543 67.938,65.361 71.629,63.02 C74.248,61.359 76.768,60 77.227,60 C77.687,60 81.761,58.209 86.281,56.019 Z M128.422,43.126 C129.341,41.639 133.285,41.685 134.8,43.2 C135.528,43.928 136,47.467 136,52.2 C136,58.067 136.333,60 137.345,60 C139.062,60 141.726,57.057 143.843,52.822 C145.916,48.673 148.744,48.024 151.144,51.145 C153.345,54.007 153.459,56.342 151.566,59.846 C146.914,68.458 143.934,75.528 144.198,77.33 C144.426,78.89 146.537,80.21 152.836,82.731 C161.766,86.305 163.671,87.475 174.5,96.031 C178.35,99.073 183.525,102.939 186,104.622 C194.848,110.64 205.197,117.525 207.611,119 C210.228,120.599 211.83,124.622 210.377,125.944 C209.895,126.383 208.312,127.021 206.859,127.362 C204.742,127.86 203.085,127.102 198.495,123.538 C195.347,121.094 188.706,116.71 183.737,113.797 C178.769,110.884 172.05,106.135 168.808,103.245 C158.754,94.282 143.176,88 131.007,88 C125.784,88 123.698,87.551 121.727,86 C120.329,84.9 118.096,84 116.767,84 C114.591,84 111.403,81.464 109.64,78.331 C108.434,76.187 111.95,74 116.603,74 C119.971,74 121.2,73.571 121.622,72.25 C121.93,71.287 122.529,69.6 122.954,68.5 C125.539,61.81 127.008,55.745 127.343,50.376 C127.554,47.008 128.039,43.745 128.422,43.126 Z M115,102.326 C118.827,100.451 122.323,99.369 123.5,99.695 C124.6,99.999 125.524,100.305 125.553,100.374 C125.582,100.443 126.363,101.712 127.288,103.193 C128.812,105.631 128.824,106.033 127.414,107.443 C126.558,108.299 125.089,109 124.151,109 C123.213,109 121.557,109.597 120.473,110.326 C119.388,111.055 115.8,112.707 112.5,113.997 C109.2,115.287 104.475,117.363 102,118.609 C95.298,121.984 90.36,122.636 87.96,120.464 C85.728,118.443 85.41,115.687 87.25,114.31 C87.938,113.795 93,111.605 98.5,109.443 C104,107.28 111.425,104.078 115,102.326 Z M118.166,137.717 C115.078,138.305 104.216,144.608 100.75,147.823 C97.486,150.851 97.338,152.091 99.96,154.464 C102.288,156.571 105.401,156.035 110.867,152.584 C116.22,149.205 126,140.038 126,138.4 C126,137.004 123.193,136.76 118.166,137.717 Z M110.5,162.949 L104.5,164.661 L104.203,170.79 C103.923,176.583 105.8,183 107.776,183 C108.625,183 114,176.437 114,175.4 C114,175.011 115.157,172.246 116.572,169.256 C118.93,164.272 119.23,160.823 117.281,161.118 C116.852,161.183 113.8,162.007 110.5,162.949 Z"/>
</svg>

