<svg xmlns="http://www.w3.org/2000/svg" width="300" height="300" viewBox="0 0 300 300" version="1.1">
  <defs/>
  <path d="M181.5,157.834 C186.008,155.225 187.09,155.002 192.5,155.566 C202.907,156.651 204.112,157.895 208.052,171.621 C209.557,176.865 207.976,188.149 204.882,194.236 C204.397,195.191 204,197.109 204,198.497 C204,200.718 201.651,207.069 198.918,212.236 C198.413,213.191 198,214.584 198,215.331 C198,216.079 197.119,217.488 196.041,218.463 C194.964,219.438 193.355,222.427 192.465,225.106 C191.575,227.785 190.444,230.226 189.95,230.531 C189.457,230.836 188.296,232.682 187.369,234.634 C186.443,236.586 184.968,238.431 184.092,238.734 C183.217,239.036 180.627,241.075 178.338,243.264 C174.21,247.212 174.122,247.241 167.601,246.826 L161.026,246.407 L159.599,250.953 C157.395,257.979 156.886,260.8 156.074,270.504 C155.66,275.457 154.638,280.812 153.804,282.404 C152.618,284.668 152.523,285.927 153.371,288.171 C154.179,290.314 154.143,291.541 153.227,293.008 C152.552,294.089 152,296.104 152,297.486 C152,299.836 151.674,300 147,300 C142.852,300 142,299.693 142,298.2 C142,297.21 142.462,295.938 143.027,295.373 C143.593,294.807 144.123,291.77 144.205,288.622 C144.288,285.474 144.679,282.698 145.073,282.455 C145.468,282.211 146.094,278.296 146.465,273.756 C146.836,269.215 147.761,261.675 148.521,257 C149.28,252.325 150.185,245.125 150.531,241 C150.878,236.875 151.746,231.25 152.46,228.5 C154.952,218.91 157.674,182.535 155.979,181.487 C155.433,181.15 153.682,181.802 152.089,182.937 C150.495,184.072 148.525,185 147.711,185 C146.896,185 145.47,186.16 144.541,187.578 C143.612,188.996 141.536,190.614 139.929,191.175 C137.059,192.175 137.016,192.297 137.576,197.847 C137.89,200.956 138.789,206.514 139.574,210.197 C140.358,213.881 141,218.043 141,219.447 C141,220.851 141.45,222 142,222 C142.55,222 143.045,223.912 143.1,226.25 C143.155,228.588 143.523,231.625 143.918,233 C145.838,239.684 140.801,242.138 135.57,237.068 C132.031,233.637 131.775,232.366 130.126,210 L129.5,201.5 L126,201.773 C120.919,202.169 117.182,204.236 111.226,209.945 C108.326,212.725 105.513,215 104.976,215 C104.439,215 104,215.388 104,215.862 C104,216.727 108.37,222.752 111.715,226.5 C115.903,231.192 117.32,238.66 114.47,241.025 C111.776,243.26 108.227,240.523 103.203,232.335 C96.636,221.632 89.506,214.373 84.669,213.466 C77.566,212.133 72.798,206.072 76.462,203.032 C77.626,202.066 79.207,202.261 84.212,203.989 C87.67,205.183 91.903,207.024 93.618,208.08 C97.696,210.591 99.671,210.504 101.083,207.75 C102.666,204.662 109.145,198 110.565,198 C111.203,198 113.424,196.65 115.5,195 C117.576,193.35 119.716,192 120.255,192 C120.795,192 122.774,190.65 124.653,189 C126.532,187.35 128.5,186 129.026,186 C129.87,186 133.561,183.494 142,177.191 C146.258,174.011 168.36,163.155 174,161.474 C175.375,161.064 178.75,159.426 181.5,157.834 Z M134.37,55.779 C135.794,53.498 139.653,53.481 140.862,55.75 C141.375,56.712 142.122,60.573 142.522,64.329 C143.36,72.192 144.521,73.189 149.067,69.952 C150.793,68.723 155.402,66.878 159.309,65.852 C163.216,64.827 166.86,63.54 167.406,62.994 C169.515,60.885 174.142,61.94 177.216,65.231 C180.148,68.37 180.216,68.662 179.592,75.481 C179.239,79.341 178.306,84.3 177.519,86.5 C176.732,88.7 176.068,91.457 176.044,92.628 C176.02,93.798 175.248,95.373 174.329,96.128 C171.553,98.408 167,106.237 167,108.729 C167,110.035 165.559,112.507 163.735,114.332 C160.542,117.525 160.295,117.592 152.502,117.366 C143.795,117.114 143.04,117.533 143.015,122.628 C142.994,126.926 140.98,128.341 136.065,127.511 C132.126,126.846 132.011,126.913 129.006,131.652 C125.096,137.817 121.994,139.583 118.227,137.787 C114.382,135.953 114.011,131.278 117.453,128.044 C118.854,126.728 120,124.978 120,124.154 C120,123.331 120.768,121.809 121.706,120.773 C123.192,119.131 123.233,118.606 122.028,116.694 C117.881,110.115 117.493,109.049 118.604,107.269 C119.211,106.296 120.841,105.096 122.227,104.601 C124.326,103.853 125.44,104.259 128.892,107.033 C131.439,109.08 133.39,110.005 133.955,109.432 C135.313,108.054 135.548,91.683 134.216,91.239 C133.616,91.039 130.657,92.816 127.639,95.188 C124.622,97.559 119.644,101.207 116.577,103.292 C110.792,107.227 109.395,110.423 112.379,112.9 C114.376,114.557 115.096,119.425 113.867,122.951 C113.019,125.386 112.231,126 109.961,126 C108.397,126 106.758,125.438 106.317,124.75 C104.812,122.402 103.153,116.764 103.614,115.565 C104.181,114.086 99.41,107.897 93.383,102.294 C89.767,98.931 88.923,97.527 89.179,95.294 C89.457,92.876 89.988,92.459 93.128,92.197 C96.156,91.944 97.53,92.564 101.439,95.947 C104.014,98.176 106.259,100 106.427,100 C106.595,100 109.155,97.762 112.116,95.027 C115.077,92.292 117.856,90.042 118.292,90.027 C118.727,90.012 120.077,89.052 121.292,87.892 C122.506,86.733 125.075,84.731 127,83.442 C131.883,80.174 133.908,78.829 134.583,76.988 C135.065,75.672 134.857,74.103 134.508,71.395 C133.241,61.546 133.207,57.642 134.37,55.779 Z M67.223,60.557 C70.846,58.019 72.945,58.625 74.648,62.701 C76.064,66.089 76.045,66.914 74.424,72.451 C73.451,75.778 72.057,79.21 71.327,80.079 C70.597,80.947 70,82.597 70,83.746 C70,84.894 69.1,87.934 68,90.5 C66.9,93.066 66,96.198 66,97.46 C66,98.723 65.325,100.315 64.5,101 C63.675,101.685 63,103.035 63,104 C63,104.965 62.325,106.315 61.5,107 C60.675,107.685 60,108.681 60,109.215 C60,109.748 59.1,111.329 58,112.727 C56.9,114.126 56,116.239 56,117.425 C56,121.484 53.026,130.998 50.513,134.98 C49.131,137.169 47.997,139.982 47.993,141.23 C47.99,142.479 47.093,144.85 46,146.5 C44.907,148.15 44.01,151.01 44.007,152.855 C44.003,154.7 42.875,158.449 41.5,161.187 C40.125,163.924 39,166.854 39,167.696 C39,168.538 38.136,170.864 37.08,172.864 C35.184,176.453 33,182.495 33,184.149 C33,185.816 35.688,184.961 37.921,182.585 C41.054,179.249 44.617,178.532 47.856,180.584 C52.653,183.623 56,187.34 56,189.628 C56,190.868 56.45,192.16 57,192.5 C57.55,192.84 58,194.489 58,196.165 C58,197.84 58.714,201.965 59.586,205.331 C60.907,210.431 60.963,212.082 59.921,215.24 C58.158,220.581 56.998,221.248 53.003,219.216 C50.688,218.038 49.56,216.716 49.406,215 C48.634,206.367 47.731,200.237 46.974,198.5 C46.495,197.4 45.961,195.6 45.788,194.5 C45.518,192.783 44.652,192.483 39.676,192.378 C34.55,192.27 33.692,192.541 32.265,194.719 C31.377,196.074 29.666,197.557 28.463,198.014 C26.977,198.579 25.922,200.252 25.17,203.239 C23.15,211.261 16.762,213.647 15.751,206.758 C15.278,203.536 18.127,194.947 20.672,191.921 C21.402,191.053 22,189.642 22,188.786 C22,187.929 22.672,185.94 23.494,184.364 C24.315,182.789 25,180.375 25.016,179 C25.032,177.625 25.924,175.375 27,174 C28.076,172.625 28.966,170.728 28.978,169.784 C28.99,168.84 29.737,166.365 30.639,164.284 C34.083,156.33 35.683,151.493 36.51,146.534 C36.874,144.352 37.977,141.427 38.962,140.034 C39.946,138.64 41.081,135.925 41.484,134 C41.888,132.075 43.744,126.782 45.609,122.238 C47.474,117.694 49.014,112.969 49.032,111.738 C49.049,110.507 49.724,108.626 50.532,107.559 C51.339,106.491 52,104.984 52,104.209 C52,103.434 53.8,99.011 56,94.381 C58.2,89.75 60.007,85.183 60.015,84.231 C60.033,82.061 63.356,71.311 64.299,70.367 C64.685,69.982 65,67.967 65,65.89 C65,63.121 65.593,61.698 67.223,60.557 Z M184.559,167.532 C183.491,168.339 181.648,169 180.464,169 C179.279,169 177.545,169.846 176.609,170.88 C175.673,171.913 173.241,173.038 171.204,173.379 C164.802,174.45 164.967,173.92 164.513,194.92 C164.284,205.512 163.686,214.7 163.183,215.339 C162.68,215.978 161.969,221.338 161.603,227.25 L160.937,238 L164.318,238 C167.539,238 173.835,234.384 176.651,230.917 C182.717,223.447 194.435,197.411 195.517,189 C195.906,185.975 196.58,183.05 197.015,182.5 C198.825,180.211 197.982,170.066 195.747,167.25 C194.391,165.542 186.942,165.729 184.559,167.532 Z M154,129.358 C160.916,127.604 161.5,127.888 161.5,133.012 C161.5,134.613 161.519,135.676 161.132,136.561 C160.331,138.39 157.792,139.459 149.75,142.949 C146.306,144.443 145,145.572 145,147.053 C145,148.177 144.1,150.959 143,153.236 C141.9,155.513 140.998,158.079 140.996,158.938 C140.991,161.022 135.623,171.717 133.523,173.826 C132.607,174.747 130.996,176.963 129.943,178.75 C128.891,180.537 127.621,182 127.122,182 C124.061,182 125.711,172.639 130.577,162.4 C134.544,154.05 133.733,153.355 124.849,157.49 C121.173,159.202 117.752,159.984 113.911,159.99 C108.881,159.999 108.204,159.744 107.156,157.443 C105.226,153.206 107.95,150 113.479,150 C116.217,150 126.388,145.157 133.669,140.387 C136.513,138.524 139.258,137 139.769,137 C140.281,137 142.68,135.537 145.1,133.75 C147.52,131.963 151.525,129.986 154,129.358 Z M150.2,24.2 C152.933,21.467 155.026,23.145 157.372,29.953 L158.9,34.389 L155.2,38.499 C152.689,41.288 150.054,43.014 147,43.87 C144.525,44.565 141.719,45.553 140.764,46.066 C139.809,46.58 138.062,47 136.882,47 C135.702,47 133.184,47.959 131.287,49.132 C128.445,50.888 126.86,51.162 122.277,50.689 C115.515,49.991 114.271,48.982 115.573,45.255 C116.303,43.168 117.673,42.136 121.224,41 C123.803,40.175 126.472,38.938 127.156,38.25 C127.84,37.563 129.498,37 130.84,37 C133.056,37 136.246,35.766 145.75,31.235 C147.923,30.198 149,28.975 149,27.543 C149,26.364 149.54,24.86 150.2,24.2 Z M162.636,75.506 C161.06,76.328 158.923,77 157.886,77 C156.849,77 155.092,77.908 153.983,79.017 C152.11,80.89 152.075,81.244 153.483,83.967 C155.4,87.674 155.405,91.095 153.5,95.654 C151.625,100.142 151.534,105 153.326,105 C154.988,105 158.296,101.432 160.281,97.498 C161.114,95.846 162.741,93.639 163.898,92.593 C165.054,91.546 166,89.935 166,89.012 C166,88.089 166.322,87.012 166.715,86.618 C167.466,85.868 169.88,77.399 169.956,75.25 C170.016,73.549 166.127,73.685 162.636,75.506 Z"/>
</svg>

