<svg xmlns="http://www.w3.org/2000/svg" width="300" height="300" viewBox="0 0 300 300" version="1.1">
  <defs/>
  <path d="M183.5,67.733 C189.544,66.859 191.381,67.034 193.171,68.655 C194.177,69.565 195,70.938 195,71.705 C195,72.472 195.704,74.461 196.565,76.126 C197.985,78.872 197.985,79.374 196.565,81.541 C195.578,83.048 194.987,86.249 194.964,90.215 C194.945,93.672 194.277,99.2 193.48,102.5 C192.683,105.8 192.024,110.718 192.016,113.429 C192.001,117.899 191.124,121.916 188.941,127.5 C187.509,131.163 186.624,137.417 186.392,145.5 C186.141,154.285 184.51,174.267 183.088,185.99 C182.588,190.11 182.414,193.861 182.701,194.325 C182.988,194.79 182.54,196.594 181.706,198.335 C180.871,200.076 179.55,203.75 178.769,206.5 C177.427,211.226 177.178,211.486 174.227,211.253 C171.129,211.008 171.102,211.048 170.802,216.253 L170.5,221.5 L147,221.607 C118.391,221.736 60.388,221.731 53.463,221.597 C50.397,221.538 47.322,220.778 45.604,219.656 L42.782,217.811 L43.567,204.656 C44.614,187.088 44.64,179.795 43.733,158.5 C42.331,125.593 41.835,117.695 41.035,115.589 C40.599,114.44 39.719,109.225 39.081,104 C38.442,98.775 37.464,93.052 36.907,91.283 C34.892,84.88 40.984,80.994 44.537,86.416 C46.831,89.917 48.212,90.114 54.165,87.787 C59.709,85.62 65.602,84.434 77.5,83.091 C84.636,82.286 88.815,83.287 90.656,86.243 C92.101,88.563 93.209,100.412 92.924,110.5 C92.768,116 92.609,124.1 92.571,128.5 L92.5,136.5 L97,136.397 C106.155,136.187 115.697,135.113 122.759,133.497 C130.865,131.642 132.63,129.86 131.538,124.635 C130.603,120.162 130.676,118.15 131.983,112.5 C132.619,109.75 133.273,101.5 133.437,94.167 C133.696,82.551 133.997,80.49 135.778,78.167 C136.902,76.7 138.424,75.67 139.161,75.877 C141.062,76.413 141.608,76.35 150.338,74.585 C154.649,73.713 160.672,73 163.722,73 C169.746,73 176.619,71.386 179,69.411 C179.825,68.727 181.85,67.972 183.5,67.733 Z M177.382,81.982 C174.105,83.306 156.073,84.109 154.041,83.022 C153.03,82.481 150.34,82.386 147.874,82.805 L143.5,83.547 L143.194,89.489 C143.025,92.757 142.437,95.974 141.886,96.637 C141.209,97.453 141.286,98.485 142.124,99.827 C143.121,101.424 143.032,104.217 141.664,114.155 C139.718,128.294 139.597,131.633 141,132.5 C142.82,133.625 142.065,138.591 139.75,140.726 C137.449,142.848 132.561,143.846 121.5,144.455 C118.2,144.637 113.7,145.335 111.5,146.007 C107.31,147.288 87.342,149.027 85.342,148.286 C82.442,147.211 81.882,142.118 82.19,119.612 C82.432,101.882 82.538,96.935 80.374,95.56 C79.5,95.005 78.256,95.033 76.5,95.037 C71.063,95.048 56.57,97.706 52.706,99.4 C48.085,101.426 47.554,102.628 48.963,107.862 C51.446,117.085 52.616,133.625 53.568,173 C53.933,188.125 54.609,201.219 55.07,202.097 C55.53,202.975 55.536,204.1 55.082,204.597 C54.629,205.094 53.974,206.707 53.627,208.182 C53.125,210.318 53.412,210.996 55.037,211.512 C58.16,212.503 141.339,211.877 157.822,210.738 C162.496,210.415 164.686,209.758 166.228,208.217 C169.08,205.364 170.967,199.501 170.985,193.434 C171.001,188.09 172.739,177.193 173.846,175.5 C174.543,174.434 174.584,173.828 175.38,152.951 C175.664,145.499 176.37,138.158 176.948,136.636 C177.527,135.115 178,132.351 178,130.494 C178,128.637 178.45,126.84 179,126.5 C179.55,126.16 180,123.096 180.001,119.691 C180.001,116.286 180.708,110.125 181.571,106 C182.434,101.875 182.893,97.252 182.59,95.726 C182.288,94.2 182.738,90.895 183.591,88.383 C184.445,85.87 184.9,83.181 184.603,82.407 C184.007,80.854 180.661,80.658 177.382,81.982 Z"/>
</svg>

