<svg xmlns="http://www.w3.org/2000/svg" width="300" height="300" viewBox="0 0 300 300" version="1.1">
  <defs/>
  <path d="M111.703,34.75 C113.225,33.237 114.835,32 115.281,32 C116.431,32 121,36.712 121,37.898 C121,39.328 110.234,51.804 107.94,53.032 C105.461,54.359 105.35,58 107.789,58 C108.772,58 111.342,57.1 113.5,56 C120.163,52.603 126,53.867 126,58.706 C126,62.419 123.304,65 119.427,65 C113.472,65 111.155,67.224 114.349,69.875 C115.246,70.619 115.899,74.546 116.298,81.583 C116.628,87.407 117.426,92.808 118.071,93.586 C118.717,94.364 120.427,95.001 121.872,95.003 C126.25,95.007 132.842,101.573 134.922,108 C135.901,111.025 137.361,113.629 138.166,113.788 C138.971,113.946 141.35,112.708 143.453,111.038 C145.555,109.367 147.833,108 148.515,108 C149.197,108 150.265,107.385 150.888,106.634 C152.433,104.774 160.913,103.683 162.646,105.122 C164.347,106.533 164.418,112.43 162.75,113.728 C160.479,115.497 151.62,119.833 143.678,123.064 C137.587,125.542 135.647,126.827 134.908,128.873 C134.386,130.318 133.444,132.508 132.816,133.74 C131.883,135.568 132.001,136.344 133.455,137.95 C136.224,141.01 134.707,144.414 128.55,148.963 C123.782,152.485 123.047,153.503 122.465,157.386 C122.101,159.815 122.078,162.672 122.416,163.735 C122.753,164.797 123.078,172.154 123.137,180.083 C123.197,188.013 123.686,195.051 124.223,195.724 C124.761,196.396 126.843,197.221 128.85,197.555 C130.858,197.889 135.2,199.223 138.5,200.518 C141.8,201.813 146.864,203.397 149.753,204.037 C152.642,204.677 155.256,205.606 155.562,206.1 C155.868,206.595 157.351,207 158.859,207 C160.367,207 162.104,207.504 162.72,208.12 C163.335,208.735 165.563,209.613 167.67,210.069 C169.776,210.526 176.225,212.509 182,214.475 C192.132,217.925 199.514,220.271 209,223.053 C216.511,225.256 219,227.508 219,232.099 C219,236.785 217.343,237.83 213.302,235.692 C209.275,233.562 198.017,229.197 194.5,228.402 C192.85,228.029 191.05,227.393 190.5,226.988 C188.439,225.472 177.241,221.997 172.461,221.39 C169.732,221.044 166.503,220.14 165.285,219.38 C164.067,218.621 162.431,218 161.649,218 C160.868,218 158.94,217.328 157.364,216.506 C155.789,215.685 153.706,215.01 152.736,215.006 C151.766,215.003 150.191,214.603 149.236,214.117 C148.281,213.631 146.15,212.683 144.5,212.011 C139.002,209.772 134.527,207.782 131.846,206.384 C130.386,205.623 128.032,205 126.615,205 C123.315,205 123.086,206.039 122.648,223 C122.456,230.425 122.065,237.175 121.78,238 C121.028,240.173 118.938,250.803 118.298,255.708 C117.635,260.794 115.42,263.006 110.328,263.666 C106.986,264.099 106.008,263.708 102.626,260.583 C99.431,257.631 98.967,256.745 99.977,255.528 C101.053,254.231 101.575,254.246 104.294,255.652 C107.325,257.219 107.434,257.194 109.681,254.376 C110.943,252.794 111.758,250.815 111.492,249.977 C111.227,249.139 111.458,246.889 112.007,244.977 C113.961,238.17 114.998,199.989 114.133,166.75 C113.939,159.296 113.101,158.56 108.727,162 C107.329,163.1 105.719,164 105.149,164 C104.579,164 103.525,164.795 102.807,165.767 C102.088,166.739 100.329,168.281 98.898,169.193 L96.297,170.852 L95.547,190.176 C94.383,220.181 94.234,222.616 92.424,241.223 C91.671,248.968 90.236,250.884 86.47,249.168 C84.072,248.076 83.4,245.905 83.786,240.5 C84.51,230.386 85.246,224.484 86.047,222.376 C87.392,218.839 87.28,196.291 85.914,195.447 C84.739,194.721 78,200.7 78,202.467 C78,203.881 54.805,228.038 53.469,228.017 C52.901,228.007 49.751,230.745 46.469,234.1 C36.687,244.099 30.847,248 25.665,248 C20.723,248 18.67,246.357 19.173,242.805 C19.432,240.983 20.129,240.5 22.5,240.5 C27.908,240.5 34.317,236.133 46.5,224.147 C60.753,210.125 64.123,206.494 66.594,202.5 C67.615,200.85 70.89,197.103 73.872,194.173 C77.993,190.123 80.278,188.679 83.397,188.149 L87.5,187.453 L87.807,182.084 C88.218,174.898 87.211,174.152 81.447,177.373 C78.863,178.818 75.461,180 73.888,180 C72.316,180 69.017,180.538 66.559,181.195 C62.593,182.256 61.859,182.182 60.045,180.54 C55.996,176.876 57.789,173.699 64.5,172.644 C66.7,172.299 72.55,170.506 77.5,168.661 C87.45,164.952 87.632,164.709 87.882,154.809 C88.028,148.999 86.645,148.008 83.114,151.391 C81.616,152.826 79.326,154 78.024,154 C76.722,154 74.947,154.602 74.079,155.339 C73.21,156.075 69.814,157.498 66.531,158.501 C60.197,160.435 50.233,164.839 45.876,167.63 C42.78,169.612 40.286,168.929 39.094,165.772 C37.294,161.004 40.903,158.432 57.017,153.002 C69.473,148.804 85.097,141.793 86.938,139.575 C87.543,138.846 88.142,134.539 88.269,130.003 C88.468,122.914 88.241,121.598 86.657,120.628 C85.14,119.7 84.543,119.898 83.285,121.75 C82.444,122.988 81.152,124 80.413,124 C78.531,124 76.818,120.406 77.188,117.236 C77.436,115.117 78.179,114.433 80.815,113.899 C82.639,113.529 85.252,112.172 86.623,110.884 C89.035,108.619 89.1,108.216 88.615,98.521 C88.05,87.227 87.085,80.171 86.015,79.509 C85.618,79.264 83.923,79.58 82.247,80.213 C79.726,81.165 78.754,81.069 76.601,79.658 C75.17,78.721 74,77.201 74,76.281 C74,73.379 79.083,67.129 82.357,66.007 C86.947,64.433 91.194,60.668 90.479,58.806 C90.129,57.894 88.177,57.019 85.777,56.697 C78.554,55.728 74.075,50.3 75.506,44.25 C76.24,41.145 77.288,41.391 83.178,46.047 C87.505,49.467 88.778,49.993 91.399,49.445 C97.359,48.2 102.525,45.303 105.718,41.417 C107.488,39.263 110.181,36.263 111.703,34.75 Z M106,70.179 C104.625,70.758 101.475,71.79 99,72.473 C96.008,73.298 94.627,74.181 94.878,75.107 C95.266,76.535 95.495,78.884 96.767,94.489 C97.35,101.633 97.835,103.542 99.131,103.79 C100.855,104.118 108.012,99.721 109.2,97.604 C109.585,96.918 109.455,93.239 108.911,89.428 C108.008,83.096 108.156,79.474 109.633,71.75 C110.204,68.765 109.787,68.585 106,70.179 Z M101.069,112.557 L97,116.233 L97,125.057 C97,129.95 97.452,134.162 98.015,134.509 C98.939,135.08 105.011,131.805 110.12,127.98 C112.006,126.568 112.091,125.857 111.325,117.98 C110.526,109.766 110.416,109.49 107.819,109.19 C105.871,108.965 104.026,109.885 101.069,112.557 Z M107.042,139.45 C106.38,140.247 103.906,141.835 101.545,142.978 C97.907,144.74 97.159,145.623 96.637,148.778 C95.757,154.104 95.859,159 96.851,159 C98.094,159 106.534,154.404 110.009,151.835 C112.578,149.936 113,148.974 113,145.012 C113,138.766 109.962,135.93 107.042,139.45 Z M119.354,107.519 C119.034,108.355 119.083,111.955 119.465,115.519 C120.193,122.319 121.025,123.127 125.066,120.965 C127.77,119.518 127.845,110.074 125.171,107.655 C122.885,105.586 120.121,105.521 119.354,107.519 Z M121.098,135.149 C120.213,137.687 119.907,138.552 120.192,138.847 C120.342,139.003 120.658,139 121.14,139 C122.677,139 124.929,135.911 124.968,133.75 C125.022,130.807 122.264,131.804 121.098,135.149 Z"/>
</svg>

