<svg xmlns="http://www.w3.org/2000/svg" width="300" height="300" viewBox="0 0 300 300" version="1.1">
  <defs/>
  <path d="M150.485,156.105 C155.218,153.605 156.208,153.539 159.947,155.472 C162.278,156.678 162.914,157.812 163.453,161.722 C164.599,170.044 164.454,173.417 162.816,176.5 C161.939,178.15 160.274,181.279 159.115,183.453 C157.957,185.627 155.657,189.088 154.004,191.144 C152.352,193.2 151,195.152 151,195.482 C151,195.811 150.047,197.37 148.882,198.945 C147.717,200.521 147.092,202.341 147.493,202.989 C147.929,203.694 146.868,205.336 144.861,207.068 L141.5,209.967 L144.766,212.983 C146.562,214.643 148.64,216 149.383,216 C150.126,216 156.081,218.695 162.617,221.989 C169.153,225.283 174.783,227.983 175.129,227.989 C176.019,228.005 186.937,234.642 188.882,236.35 C191.373,238.538 213.747,251 215.184,251 C215.884,251 218.102,252.688 220.113,254.75 C222.124,256.813 225.196,259.567 226.94,260.871 C230.673,263.664 230.981,268.288 227.468,268.791 C225.405,269.086 215.47,264.271 211.115,260.865 C209.803,259.839 208.275,259 207.718,259 C207.161,259 204.784,257.425 202.435,255.5 C200.085,253.575 197.507,252 196.704,252 C195.902,252 194.685,251.325 194,250.5 C193.315,249.675 192.383,249 191.928,249 C190.674,249 182.722,243.455 180.578,241.087 C179.54,239.939 177.698,239 176.485,239 C175.272,239 172.601,237.861 170.55,236.469 C166.746,233.888 154.437,228 152.844,228 C152.36,228 148.97,226.181 145.311,223.958 C141.652,221.736 138.129,220.12 137.481,220.369 C136.833,220.617 134.142,223.899 131.501,227.66 C125.408,236.337 122.087,239.973 119.25,241.076 C117.903,241.599 117,242.798 117,244.062 C117,247.01 111.657,254.133 105.639,259.207 C100.872,263.227 100.145,263.504 93.489,263.84 C87.91,264.122 86.128,263.859 85.082,262.599 C83.313,260.467 85.276,258 88.74,258 C90.113,258 92.774,256.65 94.653,255 C96.532,253.35 98.717,252 99.509,252 C100.301,252 101.647,250.65 102.5,249 C103.353,247.35 104.393,246 104.81,246 C105.227,246 106.312,244.762 107.221,243.25 C108.13,241.738 110.14,239.12 111.687,237.433 C113.234,235.746 115.4,233.087 116.5,231.524 C117.6,229.96 119.898,227.065 121.606,225.091 C124.875,221.311 127,217.791 127,216.155 C127,214.99 119.061,211 116.743,211 C115.849,211 114.84,210.55 114.5,210 C114.16,209.45 112.413,209 110.619,209 C107.87,209 106.482,209.989 101.819,215.267 C98.774,218.714 95.965,222.536 95.576,223.761 C95.187,224.986 94.318,226.553 93.644,227.244 C92.97,227.935 91.712,229.522 90.85,230.771 C89.988,232.02 87.733,234.72 85.839,236.771 C83.946,238.822 82.093,241.298 81.721,242.273 C80.389,245.767 77.858,245.513 74.194,241.515 L70.696,237.698 L75.51,233.34 C78.158,230.944 80.814,228.149 81.412,227.13 C82.548,225.195 90.339,214.429 93.923,209.842 C96.232,206.887 96.691,203 94.732,203 C94.035,203 91.809,201.875 89.785,200.5 C87.209,198.749 84.758,198 81.609,198 C73.254,198 68.75,190.566 75.541,187.984 C77.963,187.063 90.712,190.416 97.619,193.79 C101.789,195.827 103.09,195.133 105.9,189.373 C107.208,186.693 110.646,180.45 113.54,175.5 C116.435,170.55 119.117,164.925 119.5,163 C120.916,155.883 125.731,152.561 128.971,156.465 C130.484,158.288 129.447,165.384 127.422,167.065 C125.985,168.257 125.423,172 126.681,172 C127.493,172 141.646,162.428 144.5,159.948 C145.6,158.993 148.293,157.263 150.485,156.105 Z M139.016,7.057 C140.932,5.989 142.751,5.089 143.059,5.057 C144.707,4.888 147.085,7.879 147.279,10.364 C147.536,13.682 144.624,16.344 138.442,18.44 C136.15,19.217 134.023,20.765 133.36,22.138 C129.827,29.455 127.949,34.468 127.36,38.153 L126.697,42.298 L131.951,41.601 C137.318,40.889 142,42.547 142,45.158 C142,45.77 143.125,47.313 144.5,48.588 C146.085,50.056 147.057,52.112 147.156,54.202 C147.242,56.016 147.427,58.625 147.566,60 C149.086,74.961 149.506,84.913 148.718,87.268 C148.209,88.79 148.072,91.152 148.415,92.518 C149.184,95.579 152.016,95.771 156.406,93.058 C159.191,91.337 169.387,89.028 174.295,89.008 C177.254,88.995 181.231,93.668 180.473,96.267 C179.568,99.369 174.09,107.029 170.767,109.839 C168.008,112.171 167.057,116.299 169,117.5 C170.915,118.684 169.981,122.809 167.099,125.894 C163.974,129.24 161.813,129.631 149.445,129.089 C141.292,128.732 139.611,130.49 143.38,135.431 C146.033,138.91 146.83,143.369 145,144.5 C144.45,144.84 144,146.208 144,147.54 C144,150.529 140.873,151.516 134.179,150.64 C130.557,150.165 128.876,149.295 126.741,146.79 C125.224,145.01 124.134,143.092 124.319,142.527 C124.868,140.858 128.651,140.768 131.713,142.352 C135.603,144.363 138,142.924 138,138.578 C138,135.914 137.095,134.421 133.44,131.052 C130.241,128.103 128.973,126.2 129.19,124.674 C129.462,122.77 130.361,122.405 136.439,121.734 C140.256,121.312 144.081,120.365 144.939,119.628 C145.798,118.892 148.662,117.232 151.304,115.94 C156.57,113.366 165,105.053 165,102.436 C165,101.252 164.506,100.993 163.25,101.519 C162.287,101.923 159.25,102.675 156.5,103.19 C153.75,103.706 149.67,104.999 147.434,106.064 C145.198,107.129 142.455,108 141.339,108 C140.223,108 138.495,108.9 137.5,110 C136.505,111.1 135.14,112 134.467,112 C133.795,112 132.685,112.675 132,113.5 C131.315,114.325 129.661,115 128.325,115 C126.988,115 124.238,116.125 122.215,117.5 C120.191,118.875 117.853,120.014 117.018,120.031 C116.183,120.048 113.7,121.171 111.5,122.526 C109.3,123.881 106.782,124.992 105.904,124.995 C102.559,125.006 98,128.108 98,130.373 C98,133.018 96.252,135 93.92,135 C92.997,135 90.582,132.975 88.554,130.5 C86.011,127.398 84.106,126 82.419,126 C76.808,126 67.238,117.404 72.25,116.866 C77.378,116.315 82.709,117.524 87.049,120.221 C89.725,121.885 92.497,122.948 93.208,122.584 C95.581,121.367 98.513,119.521 101.675,117.25 C103.399,116.012 105.287,115 105.87,115 C107.885,115 114,111.627 114,110.515 C114,109.902 113.485,108.885 112.856,108.256 C111.996,107.396 112.013,106.384 112.92,104.193 C113.678,102.364 114.198,94.781 114.314,83.865 C114.492,67.182 114.406,66.336 112.25,63.593 C111.012,62.018 110,59.456 110,57.899 C110,54.837 112.513,48.597 114.914,45.697 C116.289,44.036 119.426,34.296 120.694,27.75 C121.176,25.261 120.955,25.003 118.363,25.032 C116.789,25.049 114.626,25.724 113.559,26.532 C110.871,28.564 107.642,28.367 105.536,26.04 C102.866,23.089 104.243,19.63 109.244,16.726 C114.963,13.405 128.043,9 132.184,9 C134.025,9 137.099,8.126 139.016,7.057 Z M59.099,53.89 C62.152,51.543 62.557,51.557 65.099,54.099 C66.861,55.861 67.096,56.943 66.562,60.849 C65.783,66.551 64.16,74.458 62.923,78.571 C62.415,80.26 62,82.781 62,84.172 C62,85.564 60.949,88.682 59.665,91.101 C58.357,93.565 57.044,98.26 56.678,101.775 C56.319,105.226 55.312,109.43 54.439,111.117 C52.688,114.505 48,128.763 48,130.704 C48,132.199 45.014,138.931 43.433,141 C42.803,141.825 41.706,146.1 40.997,150.5 C40.288,154.9 39.439,158.95 39.11,159.5 C38.782,160.05 37.976,162.525 37.318,165 C36.283,168.898 36.341,169.667 37.753,170.75 C38.649,171.438 39.971,172 40.691,172 C41.411,172 42,172.42 42,172.933 C42,173.446 43.013,174.174 44.25,174.551 C47.634,175.582 50,178.044 50,180.533 C50,181.755 50.722,183.354 51.604,184.086 C52.747,185.035 53.065,186.48 52.711,189.116 C52.438,191.151 52.581,193.194 53.028,193.658 C53.475,194.121 53.602,196.56 53.31,199.079 C52.614,205.077 50.491,206.521 45.458,204.418 L41.802,202.89 L42.505,194.949 L43.207,187.007 L39.704,183.504 C35.48,179.28 34.551,179.185 32.341,182.75 C29.833,186.795 25.8,191 24.428,191 C23.769,191 22.475,189.847 21.551,188.438 C19.951,185.995 19.994,185.542 22.477,178.688 C23.909,174.735 25.738,170.226 26.54,168.669 C27.343,167.112 27.998,165.087 27.995,164.169 C27.99,162.466 30.633,153.74 31.994,150.967 C32.407,150.124 33.057,147.874 33.437,145.967 C33.817,144.06 34.735,141.15 35.476,139.5 C36.218,137.85 37.36,134.475 38.015,132 C38.669,129.525 39.834,126.306 40.602,124.846 C41.371,123.386 42,120.98 42,119.5 C42,118.02 42.618,115.614 43.373,114.154 C45.242,110.539 47,104.795 47,102.303 C47,101.173 48.166,97.611 49.592,94.388 C53.698,85.103 58.446,62.421 57.245,57.828 C56.866,56.378 57.435,55.17 59.099,53.89 Z M146.439,170.801 C145.372,171.791 141.8,173.926 138.5,175.544 C135.2,177.162 130.795,179.967 128.711,181.776 C126.627,183.585 123.59,185.332 121.963,185.657 C119.696,186.111 118.281,187.513 115.909,191.66 C112.594,197.452 112.645,200 116.073,200 C117.248,200 120.352,201.076 122.97,202.391 C125.588,203.706 129.127,205.089 130.835,205.464 C133.601,206.071 134.162,205.782 135.967,202.823 C137.081,200.995 137.994,198.867 137.996,198.094 C137.998,197.321 139.125,195.214 140.5,193.411 C141.875,191.608 143,189.933 143,189.688 C143,189.124 148.926,179.313 151.251,176.027 C153.833,172.378 153.563,169 150.689,169 C149.417,169 147.505,169.81 146.439,170.801 Z M104.52,138.606 C105.628,135.955 106.633,135 108.313,135 C113.048,135 114.136,138.506 111.349,144.782 C110.44,146.827 109.562,150.023 109.397,151.884 C109.232,153.746 108.175,156.25 107.048,157.449 C105.922,158.648 105,160.169 105,160.828 C105,163.815 96.752,174 94.332,174 C92.685,174 91,170.785 91,167.642 C91,166.273 92.572,163.094 94.493,160.577 C98.293,155.599 104.149,144.05 103.448,142.916 C103.209,142.529 103.691,140.59 104.52,138.606 Z M129.5,90.929 C123.551,94.145 122.541,95.073 122.775,97.107 C122.926,98.423 123.083,100.963 123.123,102.752 C123.213,106.657 124.525,107.717 126.813,105.732 C127.741,104.927 129.823,103.953 131.439,103.568 C136.806,102.288 139.583,99.539 139.763,95.325 C139.918,91.718 138.356,86.914 137.081,87.072 C136.761,87.111 133.35,88.847 129.5,90.929 Z M122.306,53.25 C121.79,53.938 121.554,56.87 121.781,59.767 C122.089,63.684 122.693,65.3 124.135,66.072 C126.666,67.427 129.737,66.405 130.516,63.949 C130.856,62.877 131.935,62 132.912,62 C135.261,62 138,58.881 138,56.206 C138,52.595 130.964,50.436 128.2,53.2 C127.267,54.133 126.733,54.133 125.8,53.2 C124.275,51.675 123.48,51.687 122.306,53.25 Z M134.749,73.454 C132.508,76.076 129.792,78.107 127.999,78.5 C125.937,78.953 125,79.759 125,81.079 C125,82.136 125.472,83 126.048,83 C127.657,83 138,76.15 138,75.084 C138,74.566 138.704,73.439 139.564,72.579 C141.013,71.13 140.784,68.957 139.191,69.033 C138.811,69.051 136.812,71.04 134.749,73.454 Z"/>
</svg>

