<svg xmlns="http://www.w3.org/2000/svg" width="300" height="300" viewBox="0 0 300 300" version="1.1">
  <defs/>
  <path d="M154.944,177.344 C156.9,176.159 159.625,175.148 161,175.098 C164.052,174.987 169.841,178.371 170.681,180.756 C171.019,181.715 172.297,183.857 173.52,185.516 C174.744,187.175 176.067,190.435 176.46,192.761 C176.853,195.087 177.585,197.243 178.087,197.554 C178.589,197.864 179,199.141 179,200.392 C179,201.643 179.338,203.005 179.75,203.417 C180.162,203.83 180.504,212.118 180.51,221.834 C180.515,231.55 180.944,240.168 181.463,240.984 C181.982,241.8 182.539,244.688 182.701,247.402 C182.863,250.116 183.671,253.084 184.497,253.997 C185.324,254.91 186,256.185 186,256.829 C186,258.258 183.357,258.387 182.5,257 C181.34,255.124 178.17,255.995 176.133,258.75 C174.101,261.497 174.095,261.498 170.929,259.727 C167.351,257.727 165.507,258.536 163.879,262.819 C163.01,265.104 162.857,265.142 160.733,263.596 C156.876,260.79 155.744,260.61 152.751,262.328 C151.149,263.248 149.064,264 148.119,264 C147.174,264 145.877,264.523 145.238,265.162 C144.598,265.802 141.368,266.298 138.038,266.266 C132.886,266.218 132,266.472 132,267.996 C132,269.053 131.01,270.032 129.579,270.391 C126.968,271.046 124,270.29 124,268.97 C124,268.521 122.861,266.8 121.469,265.145 L118.937,262.137 L121.024,260.193 C122.91,258.435 123.149,256.87 123.513,243.874 C123.734,235.968 123.959,228.6 124.012,227.5 C124.065,226.4 124.081,222.575 124.048,219 C123.914,204.602 125.463,191.69 127.53,189.975 C130.235,187.73 132.361,189.337 133.956,194.829 C134.805,197.754 135.95,200.18 136.5,200.22 C137.05,200.26 138.884,197.556 140.576,194.21 C144.151,187.142 149.884,180.412 154.944,177.344 Z M170,110.5 C172.959,108.808 173.354,108.782 178.334,109.937 C180.638,110.472 183.331,112.131 185.084,114.094 C187.75,117.081 188,117.996 188,124.785 C188,132.891 185.826,138.645 179.967,146.041 C178.335,148.102 177,150.499 177,151.368 C177,152.237 175.65,153.647 174,154.5 C171.451,155.818 171,156.633 171,159.919 C171,164.324 170.444,164.695 162.424,165.638 C156.827,166.296 155.466,167.155 154.858,170.417 C154.302,173.394 152.121,173.449 151.005,170.514 C149.747,167.205 147.654,167.704 142.532,172.535 C140.511,174.441 138.09,176 137.151,176 C136.213,176 134.557,176.59 133.473,177.31 C132.388,178.031 129.548,179.241 127.162,180 C121.403,181.83 119.5,180.636 119.5,175.194 C119.5,171.894 118.864,170.516 116.095,167.818 C114.222,165.993 111.839,162.588 110.798,160.25 C109.316,156.919 108.376,156 106.453,156 C104.271,156 104,155.572 104,152.122 C104,149.896 103.361,147.715 102.5,147 C100.28,145.158 100.564,139.304 102.934,138.035 C105.837,136.482 106.73,136.725 110.157,140 C113.851,143.53 114.577,143.659 115.983,141.031 C116.563,139.949 119.166,137.821 121.768,136.303 C124.371,134.785 129.317,131.621 132.76,129.271 C136.203,126.922 139.627,125 140.369,125 C141.111,125 143.694,123.429 146.109,121.51 C148.524,119.59 150.906,118.015 151.403,118.01 C151.9,118.004 155.164,116.65 158.656,115 C162.148,113.35 165.567,111.984 166.253,111.965 C166.939,111.945 168.625,111.286 170,110.5 Z M139.999,30.347 C143.32,23.317 145.66,22.284 150.107,25.886 L152.436,27.772 L149.718,33.323 C148.223,36.376 147,39.77 147,40.866 C147,41.961 146.324,43.533 145.499,44.359 C144.673,45.184 143.463,48.254 142.811,51.18 C142.158,54.106 140.809,57.573 139.812,58.885 C138.815,60.197 138,62.081 138,63.072 C138,64.569 138.585,64.779 141.46,64.313 C143.64,63.959 146.508,64.4 149.21,65.504 C151.57,66.468 154.85,67.631 156.5,68.089 C159.534,68.93 170.141,72.743 175.315,74.852 C176.863,75.484 178.566,76 179.098,76 C179.631,76 182.258,77.111 184.937,78.468 C187.616,79.825 192.663,81.907 196.154,83.094 C199.644,84.28 203.429,86.095 204.564,87.126 C205.7,88.157 207.084,89 207.64,89 C209.926,89 213.267,94.001 213.382,97.595 C213.484,100.792 213.052,101.533 210.12,103.192 C206.996,104.96 206.494,104.988 203.498,103.566 C201.279,102.513 200.073,101.116 199.679,99.143 C199.242,96.961 198.161,95.881 195.244,94.714 C193.123,93.865 190.795,92.457 190.071,91.585 C189.347,90.713 187.904,90 186.864,90 C185.067,90 184.22,89.689 179.467,87.283 C178.349,86.717 175.874,85.922 173.967,85.515 C172.06,85.108 168.11,83.476 165.188,81.888 C162.267,80.299 159.117,78.996 158.188,78.99 C157.26,78.985 154.093,77.86 151.151,76.49 C148.209,75.121 145.08,74 144.198,74 C143.317,74 141.11,72.561 139.296,70.802 C137.095,68.669 135.663,67.937 134.996,68.604 C133.217,70.383 127,83.207 127,85.097 C127,86.105 126.1,87.411 125,88 C123.9,88.589 123,89.736 123,90.549 C123,91.362 122.596,92.809 122.103,93.764 C121.609,94.719 120.415,97.415 119.448,99.756 C118.482,102.096 117.096,104.505 116.37,105.108 C115.643,105.711 113.947,108.533 112.601,111.378 C111.255,114.223 109.219,117.397 108.077,118.43 C106.935,119.464 106,121.274 106,122.452 C106,123.646 104.193,126.344 101.918,128.547 C99.673,130.721 96.697,134.426 95.306,136.779 C93.275,140.215 92.502,140.831 91.388,139.907 C90.625,139.273 90,137.712 90,136.437 C90,135.161 89.567,133.851 89.038,133.524 C87.465,132.551 89.691,128.069 95.563,120.388 C98.553,116.477 101,112.946 101,112.543 C101,112.139 101.856,110.606 102.903,109.137 C105.634,105.301 112.236,92.466 114.912,85.789 C116.17,82.648 117.83,79.556 118.6,78.917 C119.37,78.278 120,77.005 120,76.089 C120,74.222 123.176,67.628 125.279,65.131 C127.292,62.738 131.68,53.284 133.583,47.235 C134.495,44.339 135.636,41.725 136.12,41.426 C136.604,41.127 137,39.94 137,38.788 C137,37.636 138.349,33.838 139.999,30.347 Z M73.754,60.25 C75.949,58.565 76.664,58.664 78.975,60.975 C81.785,63.785 82.433,67.439 81.173,73.355 C80.569,76.185 79.856,80.224 79.587,82.332 C79.319,84.439 78.194,88.039 77.087,90.332 C75.981,92.624 74.575,96.975 73.962,100 C72.967,104.915 71.704,108.305 69.119,113 C66.982,116.881 64.835,122.276 61.955,131 C60.23,136.225 58.007,141.85 57.014,143.5 C56.022,145.15 54.889,148.975 54.496,152 C54.104,155.025 52.682,159.93 51.337,162.9 C49.991,165.87 48.644,169.695 48.343,171.4 C48.042,173.105 46.942,176.879 45.898,179.788 C44.854,182.696 44,185.274 44,185.517 C44,185.76 45.899,186.928 48.219,188.112 C55.097,191.621 58.064,194.257 60.059,198.632 C61.095,200.905 62.559,203 63.312,203.289 C64.213,203.635 64.525,204.874 64.226,206.917 C63.969,208.661 64.345,210.71 65.083,211.6 C66.733,213.588 66.413,219.494 64.425,223.75 C61.425,230.17 55,226.26 55,218.014 C55,216.318 54.286,213.84 53.414,212.509 C52.541,211.177 52.144,209.575 52.532,208.949 C53.778,206.933 50.765,203.023 46.215,200.751 L41.789,198.54 L37.144,203.79 C34.59,206.677 32.016,209.031 31.424,209.02 C30.833,209.009 29.365,207.953 28.163,206.673 C25.981,204.351 25.981,204.337 27.874,200.423 C32.63,190.588 34.086,187.131 35.632,182 C36.543,178.975 37.674,176.072 38.145,175.55 C38.615,175.027 39.007,173.677 39.015,172.55 C39.032,170.269 41.248,163.418 42.315,162.352 C42.692,161.975 43,160.574 43,159.238 C43,157.902 43.618,155.614 44.373,154.154 C45.127,152.694 46.285,149.7 46.945,147.5 C47.604,145.3 48.758,142.15 49.507,140.5 C50.257,138.85 52.056,133.45 53.504,128.5 C54.953,123.55 57.008,117.7 58.072,115.5 C59.135,113.3 60.004,110.514 60.003,109.309 C60.001,108.104 60.388,106.878 60.863,106.585 C61.337,106.291 62.32,103.902 63.046,101.276 C63.773,98.649 65.481,94.025 66.843,91 C69.65,84.763 70.961,78.63 71.65,68.5 C71.981,63.641 72.625,61.118 73.754,60.25 Z M155.862,190.522 C153.311,192.449 149.104,196.608 146.514,199.763 C143.11,203.91 140.951,205.639 138.725,206 C135.918,206.456 135.533,206.988 134.394,212 C133.615,215.428 133.199,224.043 133.289,234.869 C133.433,251.989 133.469,252.261 135.816,253.799 C137.875,255.148 139.019,255.19 144.267,254.106 C147.605,253.416 152.265,251.946 154.621,250.838 C156.978,249.73 159.326,249.083 159.838,249.4 C161.346,250.332 167,247.934 167,246.362 C167,245.569 167.86,243.235 168.91,241.176 C170.319,238.414 170.556,236.958 169.813,235.63 C169.129,234.408 169.158,232.432 169.903,229.472 C171.86,221.698 170.932,217 167.438,217 C166.798,217 162.951,219.466 158.888,222.48 C154.824,225.494 150.747,227.969 149.827,227.98 C148.906,227.991 146.829,229.114 145.21,230.476 C142.387,232.853 142.201,232.88 140.634,231.148 C139.735,230.155 139,227.691 139,225.673 C139,222.372 139.476,221.711 143.75,219.086 C152.614,213.643 156,210.697 156,208.431 C156,205.187 158.38,203.777 163.211,204.16 C167.092,204.468 167.532,204.272 167.839,202.101 C168.026,200.781 167.69,198.756 167.093,197.601 C166.497,196.445 165.651,193.7 165.214,191.5 C164.168,186.237 161.853,185.995 155.862,190.522 Z M163.885,122.832 C162.573,123.839 158.912,125.958 155.75,127.541 C151.798,129.518 150,131.008 150,132.305 C150,133.342 149.227,135.5 148.282,137.1 C146.626,139.904 146.64,140.084 148.681,142.126 C151.088,144.533 152.284,144.126 154.253,140.23 C160.213,128.433 162.949,126.578 166.927,131.635 C169.717,135.181 169.563,137.836 166.5,139 C165.125,139.523 164,140.422 164,140.998 C164,141.573 162.2,143.997 160,146.384 C157.8,148.771 156,151.011 156,151.362 C156,152.833 163.736,151.91 165.32,150.25 C168.906,146.492 171.888,142.265 173.978,137.977 C175.179,135.515 176.575,132.719 177.08,131.764 C178.386,129.298 178.22,123.62 176.8,122.2 C174.914,120.314 166.635,120.719 163.885,122.832 Z M139.697,80.75 C140.418,79.465 142.035,79.926 142.677,81.601 C143.015,82.481 142.718,83.556 142.018,83.989 C140.381,85 141.596,87 143.847,87 C144.798,87 147.134,85.668 149.038,84.041 C153.12,80.551 153.858,80.444 157.922,82.75 C161.74,84.917 162.703,87.566 160.54,89.956 C158.811,91.866 149.529,97 147.803,97 C147.246,97 144.604,98.098 141.932,99.44 C138.894,100.966 134.907,101.996 131.287,102.19 L125.5,102.5 L125.194,99.344 C124.942,96.75 125.493,95.726 128.288,93.594 C130.158,92.167 132.364,91 133.189,91 C135.281,91 137.711,88.06 138.56,84.5 C138.954,82.85 139.466,81.162 139.697,80.75 Z M119.25,146.22 C116.851,147.377 116.246,149.582 118.152,150.217 C119.589,150.696 121.897,159.229 121.956,164.281 C122.013,169.147 124.203,170.094 127.81,166.812 C129.289,165.466 131.738,163.597 133.25,162.659 C136.661,160.544 136.732,159.229 133.5,158 C132.125,157.477 131,156.544 131,155.926 C131,155.308 129.65,153.541 128,152 C126.35,150.459 125,148.253 125,147.099 C125,144.766 122.924,144.449 119.25,146.22 Z M133.861,140 L131.5,142 L133.901,144.033 C136.387,146.137 138.574,146.202 138.4,144.167 C138.345,143.525 138.233,141.875 138.15,140.5 C137.969,137.477 136.975,137.362 133.861,140 Z"/>
</svg>

