<svg xmlns="http://www.w3.org/2000/svg" width="300" height="300" viewBox="0 0 300 300" version="1.1">
  <defs/>
  <path d="M110.427,177.331 C111.184,175.357 114.069,175.716 116.606,178.1 C118.318,179.708 118.72,180.949 118.323,183.396 C117.451,188.767 119.305,189.33 129.597,186.816 C134.494,185.62 140.3,183.858 142.5,182.901 C145.763,181.481 148.067,181.283 155,181.83 L163.5,182.5 L163.799,185.551 C163.993,187.537 163.469,189.137 162.299,190.136 C160.026,192.074 151.715,193.8 141.867,194.379 C137.668,194.626 132.943,195.482 131.367,196.28 C129.79,197.079 126.7,198.056 124.5,198.451 C122.3,198.845 119.098,200.232 117.385,201.532 C114.717,203.556 114.174,204.747 113.599,209.825 C113.165,213.666 112.277,216.344 111.079,217.429 C110.062,218.349 108.948,220.512 108.603,222.235 C108.258,223.959 107.234,226.189 106.328,227.191 C103.641,230.159 105.317,230.249 113.635,227.585 C117.961,226.199 126.822,224.139 133.327,223.005 C139.832,221.872 146.267,220.216 147.628,219.324 C149.491,218.103 150.386,217.986 151.251,218.851 C151.883,219.483 153.785,220 155.477,220 C158.866,220 163,222.402 163,224.37 C163,225.061 161.762,226.797 160.25,228.228 C158.117,230.247 156.154,230.947 151.5,231.349 C137.691,232.542 123.228,234.998 118.5,236.953 C114.131,238.76 107.816,240.076 106.113,239.536 C105.097,239.213 103.251,239.801 101.872,240.886 C100.529,241.943 97.42,243.34 94.965,243.992 C90.614,245.146 82.63,248.528 72.5,253.507 C69.75,254.859 65.925,256.268 64,256.638 C62.075,257.009 58.932,258.141 57.015,259.156 C55.098,260.17 52.53,261 51.309,261 C50.088,261 47.449,262.113 45.444,263.474 C40.438,266.871 35.646,267.654 32.496,265.589 C31.123,264.69 30,263.389 30,262.699 C30,260.436 33.073,257 35.097,257 C36.187,257 38.749,256.155 40.79,255.122 C42.83,254.089 46.075,252.912 48,252.507 C49.925,252.101 52.625,251.196 54,250.495 C57.852,248.532 68.335,243.736 81,238.143 C87.325,235.35 92.636,232.424 92.802,231.642 C92.968,230.86 92.183,228.708 91.056,226.86 C89.764,224.742 89.006,221.771 89.004,218.821 C89,214.52 87.25,211 85.116,211 C84.708,211 82.042,212.125 79.192,213.5 C76.342,214.875 73.101,216 71.991,216 C70.881,216 69.191,216.405 68.236,216.9 C65.784,218.172 53.989,222.719 51,223.545 C49.625,223.926 47.825,224.804 47,225.496 C43.713,228.257 32.223,229.251 30.724,226.905 C29.162,224.459 30.663,220 33.048,220 C34.153,220 38.527,218.353 42.768,216.341 C47.01,214.328 51.834,212.334 53.49,211.909 C58.726,210.566 65.246,207.968 73.535,203.922 C77.954,201.765 82.346,200 83.294,200 C84.791,200 84.934,199.29 84.383,194.605 C83.785,189.515 83.904,189.109 86.481,187.42 C89.126,185.688 89.25,185.692 90.346,187.565 C90.968,188.629 91.933,190.85 92.489,192.5 C93.999,196.981 97.67,196.87 107,192.06 C107.958,191.566 108.756,189.007 109.208,184.974 C109.597,181.502 110.146,178.063 110.427,177.331 Z M108,109.417 C109.925,108.662 112.625,108.284 114,108.577 C121.346,110.145 124.373,111.361 127.189,113.878 C130.217,116.583 130.303,116.9 130.4,125.676 C130.456,130.754 129.988,135.744 129.328,137.097 C128.683,138.419 127.357,141.75 126.381,144.5 C125.405,147.25 123.795,150.976 122.803,152.78 C121.811,154.585 121,157.146 121,158.471 C121,159.797 120.55,161.16 120,161.5 C119.45,161.84 119,163.179 119,164.475 C119,166.013 117.697,167.846 115.25,169.75 C110.077,173.775 108.339,174.227 104.89,172.443 C102.061,170.98 101.758,171.026 99.025,173.326 C97.44,174.659 94.581,176.044 92.672,176.402 C90.763,176.76 88.651,177.716 87.978,178.526 C86.029,180.875 83.565,180.252 80.944,176.75 C77.868,172.639 75.892,167.619 75.335,162.5 C74.292,152.919 71.833,138.557 70.956,136.917 C70.43,135.935 70,134.196 70,133.052 C70,131.909 69.61,130.191 69.134,129.236 C67.481,125.921 66.066,120.702 66.591,119.853 C67.346,118.631 70.239,118.858 72.046,120.282 C72.896,120.952 74.515,123.3 75.643,125.5 C78.294,130.67 80.485,131.097 82.406,126.815 C85.128,120.749 90.723,116.084 99.168,112.839 C102.101,111.712 106.075,110.172 108,109.417 Z M132.449,28.468 C134.275,24.097 137.341,23.824 139.421,27.847 C140.987,30.875 140.529,34.608 138.319,36.821 C137.594,37.548 136.981,38.898 136.958,39.821 C136.836,44.721 129.8,53.741 117.093,65.29 C111.879,70.029 111.829,70.129 112.39,74.79 C112.701,77.38 113.242,82.082 113.592,85.239 C114.166,90.423 114.564,91.186 117.711,93.131 C120.818,95.051 122.129,95.219 129.847,94.691 C139.749,94.014 153.647,90.617 156.297,88.226 C158.457,86.277 160.603,81.662 161.363,77.327 C161.669,75.581 161.062,69.731 160.014,64.327 C158.851,58.326 158.468,54.139 159.031,53.574 C160.548,52.049 163.794,55.832 165.979,61.674 C168.581,68.628 168.876,87.352 166.464,92.435 C163.193,99.327 149.169,103.464 129,103.486 C117.138,103.499 116.291,103.364 112.402,100.834 C108.856,98.526 107.997,97.212 106.021,91.065 C103.883,84.417 103.78,82.926 104.412,67.732 C104.989,53.848 105.161,50.191 104.929,46.56 C104.831,45.02 104.66,43.485 104.416,41.176 C103.616,33.592 104.637,31.909 108.381,34.637 C110.243,35.994 110.957,37.45 111.011,40 C111.137,45.996 113.521,54.5 115.076,54.5 C118.14,54.5 131,37.154 131,33.022 C131,32.425 131.652,30.375 132.449,28.468 Z M81.595,36.168 C82.473,34.915 83.935,34.032 84.845,34.206 C86.238,34.472 86.615,36.581 87.227,47.511 C87.993,61.199 87.406,73.294 85.83,76.288 C84.654,78.521 85.676,82 87.508,82 C94.657,82 83.897,94.394 67.173,105.424 C60.433,109.869 59.65,110.151 57.396,108.944 C55.267,107.805 53.07,103.522 54.13,102.577 C54.745,102.028 73.543,89.575 75.378,88.5 C77.458,87.282 79.915,77.487 79.964,70.219 C80.006,64.107 78.57,62.914 73.603,64.934 C71.896,65.628 68.925,66.543 67,66.966 C65.075,67.39 62.311,68.058 60.857,68.45 C58.751,69.018 57.539,68.56 54.891,66.194 C50.228,62.027 51.822,60.473 61.677,59.58 C69.604,58.862 75.126,57.101 78.213,54.307 C79.61,53.043 80,51.136 80,45.568 C80,40.666 80.497,37.735 81.595,36.168 Z M106.132,119.54 C102.493,121.12 95.252,126.136 87.861,132.196 C85.31,134.288 82.497,136 81.611,136 C79.187,136 79.458,144.982 82.043,150.298 C83.166,152.609 84.353,156.412 84.679,158.75 C85.207,162.532 85.56,162.995 87.886,162.952 C92.461,162.868 97.466,159.79 97.806,156.851 C97.975,155.397 98.987,153.416 100.056,152.449 C104.133,148.76 101.13,146.1 95.279,148.216 C92.18,149.337 91.668,149.266 90.408,147.543 C87.228,143.194 89.777,139.051 96.646,137.407 C100.978,136.37 102,135.118 102,130.842 C102,126.721 104.381,122 106.46,122 C108.712,122 111,125.614 111,129.17 L111,132.682 L116.25,132.457 C119.138,132.334 121.838,132.18 122.25,132.116 C122.662,132.052 123,129.502 123,126.449 C123,121.06 122.899,120.856 119.532,119.449 C115.171,117.627 110.466,117.659 106.132,119.54 Z M134.75,272.08 C137.171,270.67 137.281,270.684 146.39,273.565 C155.525,276.455 165.464,281.025 171.68,285.196 C173.979,286.738 176.094,288 176.38,288 C176.666,288 178.99,289.462 181.545,291.25 C184.101,293.038 188.061,295.729 190.346,297.231 L194.5,299.962 L186.684,299.981 C179.518,299.998 176.431,299.257 173.563,296.83 C171.028,294.685 157.113,286.196 153,284.285 C150.525,283.135 146.25,281.888 143.5,281.514 C140.131,281.056 137.603,279.985 135.75,278.23 C132.567,275.216 132.29,273.513 134.75,272.08 Z M73.332,271.199 C73.881,270.483 75.718,270.033 77.415,270.199 C80.462,270.496 80.496,270.561 80.164,275.5 C79.905,279.346 79.171,281.192 76.983,283.5 C75.418,285.15 73.831,287.746 73.456,289.269 C73.081,290.792 70.687,293.826 68.137,296.012 C63.775,299.751 63.118,299.987 57.063,299.994 L50.625,300 L55.184,295.75 C61.859,289.528 69.481,280.013 71.006,276 C71.737,274.075 72.784,271.915 73.332,271.199 Z M100.25,205.491 C97.114,206.854 97,207.109 97,212.761 C97,216.028 97.583,219.414 98.318,220.42 C99.552,222.108 99.741,222.116 101.318,220.539 C102.243,219.614 103.007,218.102 103.015,217.179 C103.023,216.255 103.679,213.7 104.471,211.5 C107.194,203.941 106.404,202.816 100.25,205.491 Z M113.385,142.216 C109.315,145.341 109.032,145.925 109.015,151.25 C108.998,156.63 110.406,157.386 113.674,153.75 C115.796,151.389 119,144.007 119,141.48 C119,139.356 116.719,139.655 113.385,142.216 Z"/>
</svg>

