<svg xmlns="http://www.w3.org/2000/svg" width="300" height="300" viewBox="0 0 300 300" version="1.1">
  <defs/>
  <path d="M144.553,72.25 C145.243,70.008 149.562,70.933 152.443,73.94 C154.436,76.02 155.043,77.41 154.52,78.69 C154.114,79.686 153.583,85.9 153.341,92.5 C153.099,99.1 152.5,105.4 152.01,106.5 C150.453,109.995 148.959,119.111 149.744,120.328 C150.235,121.089 153.844,121.5 160.044,121.5 C171.534,121.5 174.288,122.824 176.152,129.246 C176.831,131.586 177.946,134.4 178.629,135.5 C179.313,136.6 179.983,140.425 180.119,144 C180.254,147.575 180.779,151.344 181.285,152.375 C181.864,153.557 181.818,155.036 181.161,156.375 C180.587,157.544 179.907,161.425 179.649,165 C178.914,175.197 177.156,184.747 175.077,189.832 C174.027,192.4 172.902,196.728 172.576,199.452 C172.25,202.175 171.053,206.326 169.916,208.675 C168.778,211.023 168.111,213.371 168.433,213.892 C169.276,215.255 164.216,230.738 161.291,235.75 C159.83,238.253 158.071,240 157.013,240 C154.687,240 147.541,234.223 145.881,231 C145.173,229.625 143.174,226.451 141.439,223.946 C138.324,219.448 137.383,216.555 136.335,208.257 C135.733,203.485 137.039,202.291 141.605,203.437 C143.893,204.011 144.14,204.475 143.661,207.295 C142.728,212.781 149.693,226 153.517,226 C155.174,226 158,221.026 158,218.109 C158,217.014 158.45,215.84 159,215.5 C159.55,215.16 160,213.703 160,212.262 C160,210.821 160.413,208.26 160.918,206.571 C161.423,204.882 162.598,199.9 163.528,195.5 C164.458,191.1 165.651,186.572 166.178,185.439 C166.705,184.305 167.274,181.83 167.442,179.939 C167.61,178.047 168.515,172.9 169.454,168.5 C172.856,152.543 171.142,135.483 165.788,132.02 C164.365,131.1 160.742,130.49 156.205,130.407 C149.161,130.279 148.859,130.371 147.455,133.087 C146.655,134.635 146,136.958 146,138.25 C146,139.543 145.552,141.048 145.004,141.596 C144.456,142.144 143.531,145.272 142.948,148.546 C141.774,155.141 137.13,172.944 133.959,183 C132.832,186.575 131.458,191.975 130.905,195 C129.016,205.333 128.748,206.501 128.038,207.5 C127.648,208.05 126.553,211.2 125.605,214.5 C124.658,217.8 123.459,221.281 122.941,222.236 C122.424,223.191 122,225.254 122,226.82 C122,228.386 121.692,229.975 121.315,230.352 C120.266,231.4 118.196,237.866 117.45,242.421 C117.083,244.665 116.234,247.175 115.564,248 C113.335,250.744 109.051,261.97 109.644,263.514 C109.965,264.35 109.077,267.389 107.67,270.267 C104.252,277.263 102.287,281.975 101.524,285 C101.178,286.375 99.319,289.665 97.393,292.311 C94.501,296.286 93.423,297.068 91.196,296.811 C88.947,296.552 88.447,295.946 88.18,293.158 C88.004,291.32 88.566,288.327 89.43,286.507 C90.293,284.687 91,282.738 91,282.176 C91,281.613 92.064,279.881 93.363,278.327 C96.778,274.243 99.55,268.302 100.982,262 C102.09,257.122 103.376,253.178 106.036,246.5 C107.862,241.916 113.821,222.218 114.43,218.756 C115.069,215.122 114.948,214.926 110.294,212.079 C107.657,210.465 104.375,208.276 103,207.213 C101.625,206.151 99.375,204.932 98,204.506 C96.625,204.079 94.612,203.116 93.527,202.365 C92.443,201.614 90.737,201 89.738,201 C88.739,201 85.729,198.772 83.049,196.05 C79.246,192.186 77.553,191.143 75.338,191.3 C72.983,191.466 72.456,191.075 72.241,189 C72.098,187.625 72.412,185.838 72.937,185.028 C74.264,182.984 81.725,185.026 87.535,189.024 C89.914,190.661 92.348,192 92.944,192 C93.54,192 94.809,192.418 95.764,192.928 C98.943,194.628 106.622,198 107.313,198 C107.688,198 110.188,199.575 112.867,201.5 C115.547,203.425 118.165,205 118.686,205 C119.207,205 120.232,201.963 120.964,198.25 C121.696,194.537 122.633,190.6 123.047,189.5 C123.898,187.234 126.325,177.952 128.014,170.5 C130.017,161.663 133.118,149.627 134.584,145 C135.368,142.525 136.008,139.938 136.005,139.25 C135.996,137.069 132.257,137.889 125.456,141.56 C117.97,145.602 115.216,145.66 113.067,141.818 C111.697,139.37 111.729,138.957 113.438,137.068 C114.468,135.931 115.957,135 116.747,135 C117.538,135 119.329,134.1 120.727,133 C122.126,131.9 124.498,131 126,131 C127.502,131 129.803,130.162 131.115,129.138 C132.427,128.113 134.489,126.965 135.699,126.586 C138.224,125.796 138.536,124.998 140.006,115.605 C140.599,111.813 141.523,107.892 142.058,106.892 C142.593,105.892 143.287,97.97 143.599,89.287 C143.912,80.604 144.341,72.938 144.553,72.25 Z M77.861,81.449 C82.147,78.536 84.658,78.397 87.906,80.894 C90.883,83.183 90.158,85.714 86.293,86.53 C84.757,86.854 82.825,87.554 82,88.086 C71.325,94.966 68.171,97.365 67.314,99.259 C65.605,103.033 63.841,108.323 63.066,112 C62.66,113.925 61.354,117.497 60.164,119.938 C58.974,122.379 58,125.361 58,126.565 C58,127.77 57.325,129.315 56.5,130 C53.682,132.339 54.74,134 59.048,134 C63.789,134 67.461,130.782 68.553,125.671 C68.926,123.927 69.586,122.05 70.02,121.5 C70.453,120.95 70.964,119.384 71.154,118.02 C71.384,116.375 72.432,115.214 74.272,114.569 C76.567,113.765 77.413,113.969 79.199,115.755 C81.346,117.902 81.347,117.935 79.548,123.705 C76.592,133.184 75.996,134.289 69.25,142.814 C66.912,145.767 65,148.742 65,149.424 C65,150.107 63.2,152.112 61,153.88 C58.8,155.648 57,157.79 57,158.639 C57,159.489 56.1,161.329 55,162.727 C53.9,164.126 53,165.806 53,166.461 C53,167.115 51.875,168.708 50.5,170 C49.125,171.292 48,172.988 48,173.77 C48,176.008 44.979,180.897 38.75,188.74 C35.587,192.722 33,196.707 33,197.596 C33,198.485 31.715,200.852 30.145,202.856 C28.574,204.86 26.79,207.453 26.18,208.618 C24.877,211.106 19.34,212.527 17.357,210.881 C14.787,208.748 15.722,203.212 19.25,199.673 C21.038,197.881 25.098,192.542 28.274,187.81 C31.449,183.078 34.712,178.654 35.524,177.98 C36.336,177.307 37,176.24 37,175.61 C37,174.98 38.125,172.809 39.5,170.785 C40.875,168.762 42,166.477 42,165.708 C42,164.939 42.937,163.462 44.083,162.425 C45.228,161.389 46.762,159.181 47.491,157.52 C48.22,155.859 49.983,153.193 51.409,151.594 C52.834,149.996 54,148.07 54,147.313 C54,145.348 51.508,144.658 49.087,145.953 C47.489,146.809 46.322,146.701 43.958,145.478 C39.994,143.429 39.281,141.373 41.406,138.124 C42.35,136.681 44.705,132.125 46.64,128 C48.575,123.875 50.573,120.35 51.079,120.167 C51.586,119.983 52,118.791 52,117.516 C52,116.241 53.121,112.791 54.49,109.849 C55.86,106.907 56.985,103.938 56.99,103.25 C57.005,101.365 52.162,101.75 49.154,103.874 C44.558,107.119 37.244,110 33.602,110 C26.849,110 22.963,106.806 25.027,102.95 C26.428,100.332 28.598,99.352 34.873,98.504 C39.722,97.849 49.655,94.056 63.5,87.573 C66.25,86.285 69.795,84.932 71.379,84.565 C72.962,84.198 75.879,82.795 77.861,81.449 Z M83.608,134.881 C85.681,132.59 89.563,132.419 90.393,134.582 C91.566,137.639 90.972,140.388 88,145.654 C86.35,148.578 85,151.807 85,152.83 C85,153.853 84.1,155.505 83,156.5 C81.9,157.495 81,158.834 81,159.475 C81,160.116 79.425,162.48 77.5,164.729 C75.575,166.978 74,169.479 74,170.287 C74,171.094 73.325,172.315 72.5,173 C71.675,173.685 71,174.804 71,175.488 C71,176.171 70.1,177.874 69,179.273 C67.9,180.671 67,182.497 67,183.331 C67,184.165 65.942,186.119 64.649,187.673 C63.356,189.228 62.118,191.06 61.899,191.745 C61.365,193.412 55.498,200.976 50.23,206.789 C47.882,209.38 44.988,213.525 43.801,216 C41.2,221.418 33.538,230.694 30.996,231.501 C29.99,231.821 28.722,233.358 28.179,234.917 C26.863,238.692 21.07,243 17.311,243 C13.022,243 10.317,239.795 11.82,236.496 C12.445,235.123 13.576,234 14.333,234 C16.363,234 33.502,216.85 35.959,212.361 C37.121,210.237 39.427,206.7 41.083,204.5 C42.74,202.3 45.668,198.25 47.591,195.5 C49.514,192.75 53.059,187.8 55.469,184.5 C57.879,181.2 59.885,178.007 59.926,177.405 C59.967,176.803 60.9,175.495 62,174.5 C63.1,173.505 64,172.136 64,171.459 C64,169.953 65.796,166.464 68.619,162.486 C69.784,160.844 71.078,158.375 71.494,157 C71.911,155.625 73.545,152.565 75.126,150.2 C76.707,147.835 78,145.567 78,145.161 C78,143.873 81.839,136.836 83.608,134.881 Z M60.011,44.487 C62.913,40.989 69.56,44.581 74.311,52.215 C76.802,56.218 76.577,64.997 73.895,68.406 C72.737,69.878 70.792,72.976 69.572,75.291 C67.933,78.401 66.654,79.583 64.676,79.816 C62.617,80.06 62,79.702 62,78.266 C62,77.24 62.385,75.973 62.855,75.45 C64.942,73.133 66.791,64.284 66.267,59.123 C65.799,54.509 65.312,53.517 62.833,52.123 C59.529,50.267 58.2,46.669 60.011,44.487 Z"/>
</svg>

