<svg xmlns="http://www.w3.org/2000/svg" width="300" height="300" viewBox="0 0 300 300" version="1.1">
  <defs/>
  <path d="M68.104,110.375 C68.731,109.619 69.585,109 70,109 C71.429,109 72.823,111.504 72.784,114 C72.717,118.307 74.909,131.962 75.992,133.986 C76.561,135.049 76.968,136.275 76.895,136.709 C76.163,141.097 78.343,140.638 92.674,133.389 C98.534,130.425 104.358,128 105.617,128 C109.155,128 113,130.129 113,132.089 C113,134.412 110.346,137 107.964,137 C106.922,137 105.589,137.9 105,139 C104.411,140.1 103.383,141.006 102.715,141.013 C102.047,141.02 98.849,142.37 95.609,144.013 C92.369,145.656 89.064,147 88.263,147 C85.753,147 80.827,151.165 79.514,154.399 C78.714,156.371 78.371,160.958 78.572,167 C78.799,173.791 78.501,177.096 77.525,178.592 C76.004,180.925 76.554,192.607 78.235,193.645 C79.918,194.685 99.259,197.241 107,197.445 C111.125,197.554 117.547,197.724 121.271,197.822 C127.432,197.984 128.145,198.224 129.176,200.486 C130.184,202.699 129.935,203.356 126.904,206.475 C125.032,208.402 123.231,209.983 122.903,209.989 C122.575,209.995 121.268,209.1 120,208 C117.503,205.834 115.462,205.444 114.529,206.954 C113.74,208.229 103.644,207.766 101.889,206.374 C101.125,205.768 97.35,204.983 93.5,204.63 C89.65,204.277 84.519,203.294 82.098,202.446 C79.676,201.599 77.363,201.264 76.958,201.702 C76.042,202.692 74,220.066 74,226.861 C74,229.623 73.55,232.16 73,232.5 C72.45,232.84 72,235.765 72,239 C72,242.281 71.502,245.19 70.874,245.578 C70.138,246.033 69.926,248.49 70.262,252.68 C70.666,257.705 70.364,259.94 68.865,263.043 C66.726,267.47 65.63,267.771 60.831,265.25 C58.999,264.288 57.342,263.417 57.149,263.316 C56.957,263.215 57.708,262.157 58.818,260.965 C60.353,259.317 61.005,256.779 61.538,250.384 C61.924,245.756 62.635,241.725 63.12,241.426 C63.604,241.127 64,238.246 64,235.024 C64,231.803 64.409,229.017 64.909,228.833 C65.409,228.65 66.295,221.528 66.879,213.006 C67.774,199.937 67.718,197.29 66.52,196.092 C65.356,194.928 64.821,194.904 63.55,195.958 C62.698,196.666 62,197.709 62,198.276 C62,198.843 59.862,201.617 57.25,204.44 C54.638,207.263 51.076,211.132 49.336,213.036 C47.596,214.941 45.121,217.411 43.836,218.524 C42.551,219.637 40.265,222.083 38.756,223.96 C36.1,227.262 35.778,227.374 28.756,227.436 C21.666,227.499 21.5,227.443 21.5,225 C21.5,223.016 22.068,222.435 24.25,222.184 C25.975,221.985 27.975,220.588 29.618,218.434 C31.059,216.545 32.971,214.996 33.869,214.991 C35.562,214.982 40.673,210.361 45,204.925 C46.375,203.197 49.602,199.617 52.171,196.968 C56.464,192.541 61.226,186.051 66.622,177.273 C68.287,174.564 68.766,172.098 68.847,165.808 L68.951,157.795 L66.293,158.463 C64.831,158.83 62.295,160.257 60.659,161.634 C58.654,163.321 56.959,163.955 55.462,163.58 C54.024,163.219 52.24,163.811 50.399,165.261 C47.062,167.89 43.853,169.194 30.366,173.399 C23.638,175.497 20.732,175.419 17.861,173.063 C14.412,170.232 16.26,168.087 24.571,165.274 C42.174,159.315 49.421,157 50.467,157 C51.09,157 54.407,154.957 57.838,152.461 C61.269,149.964 65.247,147.476 66.678,146.932 C69.196,145.975 69.259,145.748 68.639,139.824 C68.288,136.458 67.483,133.082 66.851,132.321 C65.404,130.576 66.442,112.377 68.104,110.375 Z M171.489,24.012 C175.396,19.695 178.826,22.98 178.786,31 C178.741,40.017 180.053,59.207 181.007,63.5 C181.496,65.7 182.166,74.891 182.497,83.925 C182.827,92.958 183.331,100.727 183.616,101.188 C184.408,102.468 184.286,258.728 183.493,260.012 C183.111,260.629 182.622,265.04 182.404,269.815 C182.187,274.59 181.557,280.942 181.005,283.932 C180.452,286.921 180,291.76 180,294.684 L180,300 L171.724,300 L172.359,293.75 C174.789,269.829 175.221,256.108 175.217,203 C175.213,140.552 174.353,81.693 173.326,73.5 C172.981,70.75 172.602,66.7 172.484,64.5 C172.365,62.3 171.684,52.743 170.969,43.262 C169.739,26.96 169.768,25.914 171.489,24.012 Z M87.232,41.498 C91.997,39.428 93.374,39.662 95.812,42.96 C98.466,46.549 98.654,52.057 96.446,61.576 C95.591,65.261 95.122,68.875 95.402,69.606 C95.683,70.338 95.482,71.202 94.956,71.527 C94.43,71.852 94,73.372 94,74.904 C94,76.436 93.161,78.449 92.136,79.377 C90.906,80.49 90.056,83.094 89.636,87.032 C89.286,90.314 88.713,95.692 88.363,98.982 C87.367,108.331 90.876,110.682 97.347,105 C99.226,103.35 101.212,102 101.759,102 C102.823,102 110.523,93.346 112.982,89.386 C114.467,86.993 116.548,86.393 118.596,87.765 C119.199,88.169 119.982,90.664 120.335,93.308 C120.906,97.583 120.702,98.372 118.489,100.423 C117.12,101.691 116,103.41 116,104.242 C116,106.193 114.192,107.663 110.722,108.534 C109.201,108.915 105.996,111.468 103.601,114.206 C99.766,118.59 98.783,119.182 95.373,119.157 C81.455,119.059 78.452,116.168 78.587,103 C78.671,94.92 80.172,84.846 81.941,80.5 C82.954,78.012 85.073,68.942 85.455,65.46 C85.612,64.03 86.249,62.351 86.87,61.73 C88.327,60.273 88.337,54.326 86.885,53.429 C86.237,53.028 81.697,56.977 76.029,62.87 C66.383,72.902 62.953,74.926 61.595,71.387 C60.739,69.157 71.849,52 74.15,52 C74.624,52 77.026,49.957 79.488,47.459 C81.95,44.962 85.435,42.279 87.232,41.498 Z M49.956,46.25 C49.98,46.112 50.84,46 51.867,46 C52.924,46 54.834,47.662 56.268,49.829 C58.725,53.541 58.794,54.102 58.553,68.293 C58.408,76.801 57.858,83.467 57.238,84.214 C56.652,84.921 55.502,89.1 54.682,93.5 C53.202,101.442 48.584,115.629 46.886,117.45 C46.399,117.972 46,119.155 46,120.078 C46,121 45.325,122.315 44.5,123 C43.675,123.685 43,125.02 43,125.967 C43,130.193 35.537,133.065 32,130.201 C30.003,128.584 29.946,128.29 31.397,127.085 C32.279,126.354 33,125.323 33,124.796 C33,124.268 34.575,121.915 36.5,119.565 C38.498,117.127 40,114.183 40,112.706 C40,111.283 40.444,109.844 40.987,109.508 C41.53,109.173 42.682,106.334 43.549,103.199 C44.415,100.065 45.508,96.6 45.978,95.5 C48.072,90.602 49.37,79.225 49.63,63.5 C49.785,54.15 49.931,46.388 49.956,46.25 Z M134.178,98.285 C137.184,94.663 140.537,99.684 142,109.998 C142.564,113.977 143.311,117.694 143.659,118.258 C144.82,120.136 144.082,171.197 142.873,172.653 C141.368,174.467 136.546,174.362 134.985,172.482 C134.12,171.439 133.902,169.013 134.291,164.732 C134.721,159.993 134.498,158.104 133.36,156.846 C132.284,155.657 132.136,154.673 132.834,153.346 C136.398,146.57 136.621,139.263 134.125,111.035 C133.413,102.98 133.428,99.189 134.178,98.285 Z M143.422,283.344 C143.705,282.605 144.155,282 144.422,282 C145.135,282 147.627,287.688 149.809,294.301 L151.724,300.102 L143.5,299.5 L143.203,292.094 C143.04,288.02 143.138,284.083 143.422,283.344 Z"/>
</svg>

