<svg xmlns="http://www.w3.org/2000/svg" width="300" height="300" viewBox="0 0 300 300" version="1.1">
  <defs/>
  <path d="M63.984,23.52 C65.76,21.38 67.297,21.622 69.967,24.465 C72.266,26.912 72.271,26.973 70.642,32.781 C69.739,35.998 69,40.079 69,41.848 C69,43.617 68.325,46.68 67.5,48.654 C65.923,52.428 65.458,59 66.768,59 C67.19,59 69.191,57.875 71.215,56.5 C75.511,53.581 80.017,53.306 84.096,55.716 C85.693,56.659 87.043,57.672 87.096,57.966 C87.149,58.26 87.283,63.45 87.394,69.5 C87.538,77.343 87.206,81.122 86.236,82.669 C85.489,83.861 84.672,86.926 84.422,89.478 C84.172,92.031 83.347,95.105 82.588,96.31 C81.829,97.514 80.887,99.574 80.494,100.886 C79.83,103.102 79.983,103.223 82.639,102.589 C84.213,102.213 86.629,101.094 88.008,100.102 C90.641,98.208 94.061,97.337 102.734,96.35 C107.167,95.846 108.073,96.028 108.653,97.537 C109.137,98.798 108.483,100.029 106.418,101.743 C103.051,104.539 92.912,109.376 86.739,111.132 C84.407,111.795 82.058,112.726 81.518,113.201 C80.206,114.354 80.856,133.881 82.292,136.478 C82.907,137.59 83.43,140.525 83.455,143 C83.512,148.717 85.373,148.913 88.185,143.5 C89.328,141.3 90.638,138.825 91.095,138 C91.553,137.175 93.853,132.787 96.207,128.25 C99.537,121.83 100.96,120 102.621,120 C105.118,120 106.481,121.479 107.352,125.136 C107.753,126.816 107.484,128.183 106.611,128.908 C105.857,129.533 104.988,131.308 104.68,132.851 C103.802,137.238 97.265,147.492 91.338,153.779 C84.345,161.196 84.444,163.217 92,167.254 C95.025,168.871 98.429,171.05 99.564,172.097 C100.7,173.143 102.05,174.007 102.564,174.016 C103.079,174.025 105.075,175.429 107,177.137 C108.925,178.845 111.963,181.366 113.75,182.74 C115.537,184.113 117,185.763 117,186.406 C117,187.049 119.25,189.791 122,192.5 C124.75,195.209 127,198.051 127,198.817 C127,199.583 128.35,202.21 130,204.655 C133.628,210.03 133.689,211.004 130.585,213.92 C126.855,217.425 121.989,214.819 118.127,207.249 C116.973,204.987 115.572,202.854 115.014,202.509 C114.456,202.164 114,200.731 114,199.324 C114,196.756 111.246,193.685 102.05,186 C99.746,184.075 96.205,181.035 94.181,179.245 C91.492,176.867 89.692,176.058 87.5,176.245 L84.5,176.5 L82.852,189.5 C81.946,196.65 80.975,208.855 80.694,216.622 C80.036,234.82 78.094,239 70.298,239 C66.865,239 58,231.01 58,227.915 C58,226.807 57.35,224.643 56.555,223.107 C54.546,219.221 53.471,210.445 54.897,209.564 C57.22,208.128 60,210.037 60,213.067 C60,214.68 60.389,216 60.864,216 C61.339,216 62.017,218.105 62.369,220.677 C63.001,225.284 65.262,229.015 67.405,228.985 C70.634,228.94 71.319,227.052 71.627,217.344 C71.799,211.93 72.629,201.857 73.47,194.961 C75.417,179.004 75.342,168.106 73.269,165.776 C72.048,164.401 71.958,163.487 72.828,161.276 C74.231,157.711 74.567,145.348 73.622,132 C72.589,117.397 72.413,116.744 69.717,117.545 C68.498,117.907 66.675,119.282 65.667,120.602 C64.658,121.921 63.187,123 62.397,123 C61.607,123 59.189,124.118 57.023,125.485 C54.825,126.873 52.383,127.7 51.492,127.359 C50.57,127.005 48.971,127.615 47.699,128.807 C45.161,131.184 40.837,132.997 37.685,133.006 C36.483,133.01 34.346,133.615 32.935,134.351 C30.338,135.706 21.87,135.274 19.246,133.652 C17.503,132.575 17.688,126.504 19.51,124.992 C20.461,124.202 22.546,123.944 25.151,124.293 C28.354,124.723 30.656,124.221 35.391,122.061 C38.751,120.528 42.625,118.921 44,118.491 C50.14,116.568 62.881,109.764 66.831,106.299 C70.26,103.292 71.198,101.77 71.331,99 C71.49,95.7 71.329,95.512 68.5,95.702 C57.439,96.446 56.917,96.372 54.209,93.664 C51.788,91.243 51.564,90.358 51.666,83.631 C51.728,79.574 52.239,74.734 52.803,72.877 C53.366,71.02 54.341,67.475 54.97,65 C57.997,53.078 58.745,49.385 61.296,33.77 C62.08,28.968 63.29,24.356 63.984,23.52 Z M166.519,16.624 C168.578,14.564 169.327,14.584 171.219,16.75 C173.711,19.604 174.834,24.844 175.452,36.5 C176.333,53.138 176.83,59.64 177.972,69.5 C179.569,83.286 179.979,91.787 180.073,113 C180.244,151.933 178.556,242.123 177.518,249.5 C177.286,251.15 177.028,260.375 176.945,270 C176.789,288.05 175.714,294 172.609,294 C171.787,294 168.999,291.549 166.412,288.552 C163.825,285.556 159.163,281.533 156.051,279.613 C148.046,274.672 140.305,266.761 139.049,262.238 C137.691,257.348 137.731,256.468 139.373,255.105 C141.04,253.722 144,254.682 144,256.607 C144,257.373 144.353,258 144.784,258 C145.216,258 146.427,259.462 147.477,261.25 C151.467,268.045 165.675,279.658 167.62,277.713 C169.733,275.6 172.573,108.055 170.81,89.5 C168.903,69.428 168.045,58.315 167.529,47 C166.919,33.588 166.228,25.081 165.407,20.874 C165.084,19.214 165.493,17.65 166.519,16.624 Z M132.38,82.453 C133.522,79.476 138.425,83.658 141.462,90.2 C142.407,92.235 142.935,94.297 142.634,94.783 C142.334,95.268 142.539,99.678 143.089,104.583 C144.479,116.977 145.508,150.059 144.743,157.75 C144.166,163.547 141.007,164.63 136.354,160.628 C133.702,158.347 133.646,158.103 134.892,154.328 C135.875,151.347 135.959,148.24 135.236,141.45 C134.713,136.527 134.655,131.77 135.109,130.878 C135.563,129.985 135.585,127.96 135.159,126.378 C134.733,124.795 134.642,122.15 134.957,120.5 C135.466,117.836 134.035,99.845 132.392,88.246 C132.06,85.906 132.055,83.299 132.38,82.453 Z M51.252,181.79 C57.7,174.865 58.464,174.324 59.482,175.971 C60.38,177.423 57.688,182.018 52.672,187.597 C50.214,190.332 46.796,194.954 45.077,197.869 C43.358,200.784 40.613,204.296 38.976,205.674 C37.339,207.051 36,208.688 36,209.312 C36,209.935 34.163,212.033 31.919,213.973 C29.2,216.322 27.602,218.669 27.133,221 C26.555,223.871 25.93,224.558 23.654,224.822 C17.2,225.572 16.217,220.373 21.816,215.096 C23.914,213.118 28.24,208.238 31.428,204.25 C34.617,200.262 37.528,197 37.899,197 C38.269,197 40.019,195.088 41.788,192.75 C43.557,190.412 47.816,185.48 51.252,181.79 Z M69.854,67.178 C67.849,67.712 65.324,69.128 64.243,70.325 C62.351,72.419 59.699,82.705 60.654,84.249 C61.336,85.353 65.781,85.164 66.5,84 C66.84,83.45 68.611,83 70.437,83 C72.262,83 74.203,82.438 74.751,81.75 C76.897,79.055 78.267,73.236 77.597,69.663 C76.851,65.688 76.215,65.483 69.854,67.178 Z M39.676,159.817 C42.172,157.211 42.725,157.067 47.926,157.674 C53.53,158.328 58.375,160.928 59.513,163.893 C60.505,166.479 56.336,169.154 52.449,168.425 C50.645,168.086 47.594,168.379 45.669,169.075 C42.654,170.165 41.811,170.106 39.584,168.647 C36.256,166.466 36.288,163.353 39.676,159.817 Z"/>
</svg>

