<svg xmlns="http://www.w3.org/2000/svg" width="300" height="300" viewBox="0 0 300 300" version="1.1">
  <defs/>
  <path d="M71,156.93 C81.227,153.135 84.433,153.181 88.168,157.18 C90.212,159.368 90.966,161.006 90.583,162.43 C90.277,163.569 90.021,166.127 90.014,168.114 C90.004,170.691 89.143,172.702 87.016,175.114 C85.051,177.344 84.026,179.588 84.016,181.688 C84.005,183.819 83.005,185.966 81,188.161 C77.743,191.727 77.454,193.135 79.041,197.689 C80.118,200.778 79.476,204.893 76.786,212.136 C75.159,216.518 67.472,225.643 64,227.315 C61.047,228.737 59.95,233 62.536,233 C63.457,233 65.548,231.875 67.182,230.5 C68.816,229.125 70.931,228 71.881,228 C72.831,228 75.691,226.679 78.236,225.065 C80.781,223.451 85.256,221.368 88.182,220.436 C93.909,218.611 96.408,217.615 105.137,213.676 C112.944,210.154 117.802,209.319 118.587,211.365 C119.592,213.986 115.218,219.72 109.694,223.023 C106.837,224.73 102.971,227.224 101.102,228.564 C99.118,229.986 96.308,231 94.348,231 C92.503,231 89.314,231.9 87.261,233 C85.209,234.1 82.848,235.014 82.015,235.031 C81.182,235.048 78.7,236.171 76.5,237.526 C74.3,238.881 71.064,239.992 69.309,239.995 C67.554,239.998 65.84,240.45 65.5,241 C65.16,241.55 63.732,242 62.327,242 C60.922,242 58.136,242.855 56.136,243.901 C54.136,244.947 49.277,246.766 45.337,247.944 C41.398,249.121 37.63,250.741 36.965,251.542 C36.299,252.344 34.348,252.999 32.628,252.998 C30.589,252.996 27.236,254.518 23,257.369 C15.189,262.624 11.4,263.565 8.093,261.07 C6.097,259.564 5.828,258.729 6.387,255.753 C6.906,252.984 7.745,251.949 10.274,250.953 C12.049,250.255 15.3,248.905 17.5,247.953 C19.7,247.001 23.525,245.899 26,245.505 C28.475,245.11 32.075,243.928 34,242.879 C35.925,241.829 39.492,240.404 41.927,239.712 C45.254,238.767 46.82,237.619 48.232,235.091 C50.432,231.154 52.16,222.947 51.094,221.503 C50.687,220.951 49.771,217.444 49.06,213.708 C47.913,207.684 47.949,206.714 49.383,205.129 C51.646,202.629 51.429,201.693 48,199.158 C46.35,197.938 44.998,196.391 44.995,195.72 C44.993,195.049 43.753,193.15 42.241,191.5 C37.44,186.262 31.335,178.58 30.091,176.212 C27.067,170.456 32.413,167.881 37.278,172.75 C44.468,179.946 49.307,185.88 51.214,189.84 C53.744,195.093 55.402,195.89 58.301,193.25 C59.51,192.148 62.3,190.684 64.5,189.997 C66.7,189.309 69.327,188.024 70.337,187.14 C75.706,182.443 83.352,165.952 81.172,163.772 C79.889,162.489 67.89,166.832 62.018,170.704 C60.103,171.967 57.531,173 56.303,173 C55.075,173 53.589,173.9 53,175 C50.954,178.823 47,176.989 47,172.216 C47,170.396 52.808,164 54.461,164 C55.049,164 57.323,163.035 59.515,161.856 C61.707,160.677 66.875,158.46 71,156.93 Z M154.655,43.829 C158.502,39.578 160.751,42.297 161.924,52.619 C162.416,56.954 163.31,62.3 163.911,64.5 C164.511,66.7 165.037,73 165.079,78.5 C165.122,84 165.546,90.564 166.022,93.088 C166.497,95.611 167.157,105.511 167.488,115.088 C167.819,124.664 168.499,136.325 169.001,141 C169.898,149.371 170.795,183.118 171.765,245 C172.468,289.884 172.468,290.011 171.634,295.25 L170.877,300 L147.101,300 L142.721,295.75 C137.945,291.115 135.378,287.05 132.635,279.774 C130.863,275.076 131.06,273 133.277,273 C134.576,273 139,277.81 139,279.222 C139,281.813 150.365,293.923 152.842,293.973 C153.581,293.988 155.329,294.9 156.727,296 C160.052,298.615 160.85,298.525 162.038,295.401 C163.702,291.023 163.102,165.283 161.384,158.5 C161.106,157.4 160.664,149.075 160.402,140 C160.141,130.925 159.505,121.25 158.988,118.5 C158.472,115.75 157.798,105.625 157.49,96 C157.182,86.375 156.513,75.8 156.005,72.5 C152.613,50.493 152.416,46.303 154.655,43.829 Z M60.856,54.75 C61.156,53.188 63.742,54.097 66.076,56.583 C68.718,59.398 68.709,59.326 68.954,78.35 L69.119,91.2 L72.81,90.511 C77.909,89.558 85.336,83.394 84.632,80.7 C83.986,78.23 87.472,73 89.763,73 C92.244,73 97,78.075 97,80.722 C97,82.014 96.309,84.124 95.465,85.412 C94.255,87.26 94.167,88.272 95.049,90.209 C95.925,92.13 95.824,93.486 94.584,96.454 C93.713,98.539 93,102.638 93,105.563 C93,108.488 92.522,111.177 91.938,111.538 C91.354,111.899 90.476,113.248 89.986,114.536 C89.496,115.824 88.19,117.363 87.082,117.956 C85.401,118.856 84.801,118.625 83.448,116.561 C82.557,115.201 82.131,113.598 82.501,112.998 C83.329,111.658 84.188,95 83.429,95 C83.128,95 81.222,96.297 79.191,97.883 C77.161,99.468 74.375,101.029 73,101.35 C71.625,101.672 68.314,103.749 65.641,105.967 C60.396,110.32 59.834,110.517 56.988,108.994 C55.533,108.215 54.273,108.554 51.414,110.494 C49.383,111.872 47.335,113 46.863,113 C46.392,113 44.317,111.473 42.253,109.608 C34.445,102.55 32.815,85 39.967,85 C43.068,85 44.871,88.249 45.193,94.412 C45.604,102.28 47.275,103.394 53.559,99.986 C56.08,98.619 58.674,96.867 59.322,96.094 C60.13,95.131 60.533,88.528 60.606,75.094 C60.664,64.317 60.776,55.163 60.856,54.75 Z M117.934,110.672 C119.064,107.7 121.988,107.131 124.292,109.435 C125.081,110.224 126.038,113.712 126.418,117.185 C126.797,120.658 127.526,125.095 128.037,127.045 C129.797,133.756 130.419,153.655 129.467,172.781 C128.857,185.052 125.926,189.784 121.611,185.468 C119.604,183.461 118.561,177.705 119.778,175.355 C120.902,173.185 120.823,152.076 119.683,150.271 C119.257,149.595 119.311,148.245 119.804,147.271 C120.718,145.464 118.817,117.953 117.568,114.922 C117.211,114.055 117.376,112.142 117.934,110.672 Z M75,128.216 C80.03,126.71 82.032,127.141 84.327,130.226 C86.295,132.872 86.301,133.01 84.522,134.976 C83.514,136.089 81.5,137 80.045,137 C78.59,137 76.874,137.526 76.232,138.168 C74.824,139.576 68.635,141.984 64.5,142.732 C62.85,143.03 60.612,143.888 59.527,144.637 C58.443,145.387 56.592,146 55.415,146 C54.238,146 51.576,147.35 49.5,149 C46.489,151.393 44.753,152 40.922,152 C35.854,152 34.33,150.866 34.873,147.5 C35.38,144.353 36.497,143.513 44.191,140.495 C48.159,138.938 52.887,136.659 54.696,135.431 C56.505,134.204 61.026,132.314 64.743,131.232 C68.459,130.15 73.075,128.793 75,128.216 Z M60.665,204.73 C55.285,207.125 54.881,207.53 55.486,209.914 C55.847,211.336 56.381,213.932 56.673,215.682 C57.218,218.952 58.96,220.336 61.369,219.412 C63.061,218.763 69,206.785 69,204.021 C69,201.443 67.822,201.543 60.665,204.73 Z"/>
</svg>

