<svg xmlns="http://www.w3.org/2000/svg" width="300" height="300" viewBox="0 0 300 300" version="1.1">
  <defs/>
  <path d="M161.518,22.92 C162.077,20.372 162.601,19.934 164.783,20.192 C166.959,20.45 167.613,21.312 168.81,25.5 C169.595,28.25 170.537,34.325 170.903,39 C171.268,43.675 171.935,48.094 172.385,48.819 C173.155,50.06 174.415,63.744 175.532,83 C175.803,87.675 176.463,96.45 176.998,102.5 C177.534,108.55 178.243,120.025 178.574,128 C178.905,135.975 179.419,145.2 179.717,148.5 C181.114,164.027 180.072,230.047 178.035,255 C176.235,277.055 175.936,278.653 172.956,282.202 L170.188,285.5 L166.844,283.612 C162.906,281.389 156,275.02 156,273.612 C156,273.071 155.143,271.7 154.095,270.564 C153.048,269.429 151.36,267.105 150.345,265.401 C149.33,263.696 147.64,260.996 146.59,259.401 C145.539,257.805 143.627,254.901 142.34,252.946 C141.053,250.992 139.986,248.742 139.968,247.946 C139.951,247.151 139.276,245.626 138.468,244.559 C136.647,242.151 136.556,239 138.309,239 C140.467,239 142.523,241.139 147.439,248.5 C165.344,275.308 167.864,277.902 168.156,269.823 C168.389,263.393 168.577,261.145 169.482,254 C169.935,250.425 170.461,245.925 170.651,244 C170.841,242.075 171.204,220.475 171.457,196 C171.815,161.459 171.586,147.919 170.43,135.5 C169.611,126.7 168.682,112.975 168.365,105 C168.047,97.025 167.386,90.073 166.894,89.55 C166.402,89.028 165.996,85.428 165.99,81.55 C165.985,77.673 165.262,68.425 164.384,61 C163.506,53.575 162.655,43.608 162.493,38.851 C162.331,34.093 161.895,29.246 161.525,28.078 C161.154,26.91 161.151,24.589 161.518,22.92 Z M94,157.048 C99.487,155.72 100.995,155.86 103.964,157.974 C106.285,159.627 106.847,160.934 107.421,166.006 C108.12,172.179 106.945,177.841 104.293,181.079 C103.582,181.947 103,183.006 103,183.432 C103,183.858 100.959,186.476 98.466,189.25 C95.972,192.023 94.094,194.79 94.294,195.397 C94.494,196.003 97.005,196.637 99.873,196.804 C103.89,197.038 105.919,196.595 108.695,194.88 L112.3,192.652 L114.211,195.013 C115.529,196.64 115.924,198.168 115.481,199.931 C114.502,203.831 113.079,205 109.312,205 C107.418,205 104.944,205.495 103.815,206.099 C102.685,206.704 98.122,207.375 93.675,207.592 C87.816,207.876 85.355,208.4 84.744,209.492 C84.219,210.431 82.439,211 80.027,211 C77.31,211 75.227,211.78 73.05,213.611 C71.343,215.048 68.496,216.583 66.723,217.024 C64.951,217.464 62.074,218.399 60.33,219.101 C57.741,220.144 56.871,220.138 55.58,219.067 C53.334,217.202 53.575,211.694 56,209.5 C57.1,208.505 58,206.882 58,205.894 C58,204.202 46.771,192 45.213,192 C44.815,192 43.94,190.762 43.27,189.248 C42.6,187.735 41.031,186.047 39.782,185.498 C34.737,183.28 38.013,178.212 43.587,179.611 C46.253,180.28 63.915,197.104 65.957,200.919 C69.329,207.22 80.326,199.306 92.5,181.818 C95.619,177.337 97.959,171.763 97.985,168.75 C98.012,165.563 94.884,166.405 79,173.858 C77.075,174.761 75.101,176.408 74.613,177.518 C74.125,178.627 71.446,181.215 68.661,183.268 C59.939,189.694 56.742,187.447 61.598,178.303 C64.557,172.731 73.981,164.022 77.067,164.007 C77.929,164.003 81.304,162.626 84.567,160.948 C87.83,159.269 92.075,157.514 94,157.048 Z M85.655,75.829 C87.571,73.712 90.324,73.45 91.735,75.25 C93.192,77.107 93.096,87.197 91.601,89.5 C90.886,90.6 89.997,93.142 89.624,95.15 C89.252,97.157 88.284,99.349 87.474,100.022 C86.663,100.695 86,102.272 86,103.526 C86,104.781 84.414,108.615 82.475,112.045 C80.535,115.476 79.137,118.47 79.366,118.7 C80.12,119.454 89.664,114.519 99,108.548 C100.925,107.317 104.447,105.706 106.826,104.969 C111.574,103.499 112.338,103.939 113.656,108.905 C114.53,112.197 112.95,114.309 108.721,115.498 C106.762,116.049 104.111,117.467 102.829,118.649 C101.548,119.831 98.291,121.538 95.591,122.442 C92.89,123.345 89.001,125.416 86.947,127.042 C84.893,128.669 82.76,130 82.207,130 C81.654,130 78.861,131.575 76,133.5 C73.139,135.425 70.39,137 69.891,137 C69.391,137 67.119,138.35 64.841,140 C62.564,141.65 59.935,143 59,143 C58.065,143 55.536,144.278 53.38,145.839 C51.225,147.401 48.345,148.942 46.98,149.263 C39.639,150.993 31.289,153.349 29.764,154.121 C25.216,156.423 18,154.001 18,150.174 C18,147.674 21.127,145 24.05,145 C27.367,145 39.957,141.233 41.878,139.666 C42.636,139.048 45.786,137.383 48.878,135.966 C57.61,131.964 60.987,129.658 60.994,127.691 C60.997,126.697 62.347,124.207 63.993,122.159 C66.716,118.77 66.889,118.123 65.917,114.968 C64.601,110.694 64.645,89.064 65.977,85.56 C66.513,84.152 67.582,83 68.353,83 C71.23,83 72.131,85.945 72.42,96.292 C72.739,107.685 73.318,109.811 75.589,107.926 C76.365,107.282 77,106.224 77,105.574 C77,104.924 78.074,102.167 79.386,99.446 C82.948,92.061 84,88.239 84,82.68 C84,79.41 84.577,77.019 85.655,75.829 Z M74.992,22.51 C76.236,21.011 79.526,21.267 83.202,23.148 C87.366,25.279 91.696,38.902 89.051,41.55 C88.529,42.072 87.797,44.413 87.423,46.75 C86.617,51.799 87.623,52.152 92.411,48.5 C96.048,45.726 101.103,45.215 102.946,47.435 C103.601,48.224 103.993,50.361 103.818,52.185 C103.534,55.151 103.141,55.534 100.092,55.825 C98.217,56.004 94.745,57.579 92.375,59.325 C84.018,65.485 82.471,66.517 79.002,68.244 C77.076,69.204 73.971,70.919 72.103,72.056 C70.235,73.193 66.667,74.816 64.174,75.662 C61.682,76.508 57.932,78.281 55.841,79.6 C53.75,80.92 51.359,82 50.527,82 C48.125,82 44,77.851 44,75.435 C44,73.249 47.707,70.004 50.215,69.995 C52.095,69.989 61.744,65.907 67.417,62.718 C70.121,61.198 73.365,59.696 74.626,59.379 C78.34,58.447 79.529,56.358 77.987,53.476 C76.869,51.387 76.908,50.756 78.244,49.26 C80.344,46.91 81.48,37.225 80.035,34 C78.538,30.661 76.713,27.564 75.089,25.607 C74.025,24.325 74.005,23.698 74.992,22.51 Z M134.993,88.509 C135.681,87.679 136.57,87 136.967,87 C138.573,87 141.304,91.167 142.028,94.721 C142.452,96.8 143.323,100.975 143.965,104 C144.653,107.241 145.086,117.459 145.019,128.882 C144.919,146.066 144.682,148.703 142.933,152.132 C140.744,156.422 139.148,156.926 136.615,154.128 C135.126,152.482 135.054,151.422 136.02,145.378 C137.261,137.609 136.648,112.689 134.876,98.875 C133.982,91.899 134.007,89.697 134.993,88.509 Z"/>
</svg>

