<svg xmlns="http://www.w3.org/2000/svg" width="300" height="300" viewBox="0 0 300 300" version="1.1">
  <defs/>
  <path d="M70.431,49.939 C80.748,47.47 84.226,50.566 87.417,65.059 C89.325,73.725 89.533,77.479 90.55,121.554 L91.314,154.609 L88.657,159.142 C87.196,161.636 86,164.329 86,165.126 C86,167.045 82.538,173.77 80.194,176.405 C79.168,177.557 77.514,180.282 76.518,182.461 C75.521,184.639 70.272,190.887 64.853,196.344 C59.434,201.801 55,207.082 55,208.078 C55,209.075 53.794,210.478 52.321,211.195 C50.847,211.913 48.935,213.703 48.071,215.174 C46.588,217.698 44.995,219.718 37.276,228.865 C35.503,230.966 33.674,233.707 33.211,234.958 C32.433,237.062 26.664,239.946 23.154,239.985 C20.309,240.017 16,235.911 16.015,233.182 C16.04,228.911 17.523,227.242 19.956,228.75 C21.065,229.438 22.368,230 22.852,230 C23.335,230 26.462,226.737 29.8,222.75 C33.138,218.762 37.361,213.882 39.185,211.903 C44.018,206.66 47.04,202.79 48.2,200.36 C48.761,199.183 50.296,197.731 51.61,197.132 C52.925,196.533 54,195.439 54,194.701 C54,193.964 55.488,191.591 57.308,189.43 C62.661,183.069 67.383,176.049 66.74,175.406 C65.359,174.026 59.788,176.369 57.716,179.203 C55.2,182.643 44.889,190 42.585,190 C41.747,190 39.585,190.827 37.78,191.837 C35.976,192.847 32.675,193.963 30.445,194.317 C26.707,194.911 25.317,194.477 21.176,191.425 C20.998,191.293 21.55,189.838 22.402,188.19 C23.708,185.664 24.735,185.087 28.957,184.506 C31.71,184.127 35.054,182.959 36.389,181.909 C37.723,180.859 39.229,180 39.733,180 C40.238,180 41.598,178.988 42.754,177.75 C44.605,175.77 44.925,173.882 45.426,162 C45.74,154.575 46.399,143.325 46.892,137 C48.449,116.99 48.934,87.867 47.865,78.5 C46.844,69.556 46.63,58.037 47.468,57.198 C48.538,56.129 53.26,58.279 53.722,60.046 C54.527,63.124 56.785,62.339 58.885,58.25 C60.905,54.314 65.267,51.175 70.431,49.939 Z M162.915,32.868 C164.228,31.804 165.797,31.086 166.401,31.272 C168.601,31.947 171.133,39.081 172.053,47.194 C172.571,51.762 173.428,59.025 173.958,63.333 C174.488,67.641 174.932,77.091 174.944,84.333 C174.97,99.135 175.66,111.642 176.53,113.049 C177.121,114.005 177.067,143.622 176.463,150 C175.801,156.997 175.047,177.051 174.513,201.893 C174.212,215.859 173.759,228.234 173.505,229.393 C173.251,230.552 172.805,238.025 172.515,246 C172.224,253.975 171.55,262.3 171.017,264.5 C170.484,266.7 170.037,271.304 170.024,274.731 C170.003,280.102 169.525,281.704 166.552,286.351 C162.512,292.667 157.019,296.383 153.02,295.504 C149.917,294.823 140.837,289.086 136.657,285.166 C135.093,283.7 132.7,280.317 131.339,277.649 C127.212,269.56 130.251,267.215 136.253,273.858 C138.17,275.981 139.91,278.118 140.119,278.608 C140.329,279.099 142.414,281.188 144.753,283.25 C155.27,292.524 161.147,284.988 162.513,260.477 C163.55,241.872 163.627,240.7 164.389,232 C166.19,211.405 167.83,132.959 166.855,114 C166.388,104.925 165.771,90.525 165.483,82 C164.791,61.487 163.131,42.297 161.69,38.151 C160.631,35.103 160.741,34.628 162.915,32.868 Z M65.528,62.084 C61.352,64.733 60.317,65.01 58.203,64.047 C56.849,63.43 55.546,63.12 55.308,63.359 C55.069,63.597 55.374,66.547 55.984,69.914 C56.992,75.471 57.54,96.62 56.802,101.5 C56.329,104.63 58.627,103.849 61.217,100 C62.949,97.426 64.489,96.368 67.036,96 C69.678,95.619 70.576,94.966 70.82,93.25 C71.223,90.412 71.704,90.435 76.215,93.5 C80.839,96.642 82.437,96.716 81.594,93.75 C81.242,92.513 80.717,88.125 80.426,84 C79.687,73.52 78.151,61.053 77.461,59.937 C76.256,57.987 70.299,59.059 65.528,62.084 Z M76.174,129.055 C74.895,130.675 73.349,132 72.738,132 C72.128,132 70.7,132.872 69.564,133.938 C68.429,135.004 65.25,136.415 62.5,137.074 C59.75,137.734 56.938,138.422 56.25,138.605 C54.994,138.939 54.9,140.121 54.605,159.371 C54.461,168.801 55.414,170.706 58.787,167.733 C59.729,166.903 62.834,165.016 65.687,163.54 C68.54,162.064 71.408,160.213 72.06,159.428 C72.712,158.643 74.04,158 75.012,158 C75.983,158 77.701,157.213 78.829,156.25 C80.68,154.67 80.91,153.162 81.19,140.76 C81.432,130.02 81.209,126.909 80.168,126.51 C79.555,126.275 79.219,126.092 78.906,126.125 C78.366,126.182 77.892,126.879 76.174,129.055 Z M128.25,97.662 C130.741,96.657 131.891,97.046 133.87,99.562 C136.803,103.291 137.655,106.711 140.061,124.412 C142.626,143.275 142.45,156.921 139.588,161.25 C137.386,164.581 137.25,164.59 133.567,161.643 C130.81,159.437 130.711,159.113 131.909,156.221 C133.396,152.631 132.672,126.124 131.002,123.003 C130.451,121.974 130,119.358 130,117.191 C130,115.024 129.325,111.338 128.5,109 C126.675,103.827 126.554,98.347 128.25,97.662 Z M81.104,192.64 C83.9,190.681 86.918,191.298 93.265,195.126 C95.886,196.707 98.301,198 98.633,198 C98.965,198 100.774,199.35 102.653,201 C104.532,202.65 106.883,204 107.878,204 C109.531,204 118,212.869 118,214.601 C118,215.009 118.678,216.092 119.508,217.008 C121.591,219.311 120.441,224.725 117.682,225.601 C115.495,226.295 115.264,226.076 108.714,217.091 C106.536,214.102 104.211,212.238 101.5,211.307 C99.3,210.551 95.412,207.876 92.86,205.362 C88.833,201.396 87.831,200.878 85.27,201.441 C81.974,202.165 80.548,201.032 79.5,196.857 C78.986,194.806 79.339,193.876 81.104,192.64 Z M71.394,105.865 C69.136,106.764 66.478,108.175 65.487,109 C64.496,109.825 62.321,110.5 60.653,110.5 L57.62,110.5 L57.29,118.774 C56.877,129.156 57.804,129.739 65.73,124.076 C68.903,121.809 73.75,118.461 76.5,116.637 C80.397,114.052 81.566,112.659 81.801,110.325 C82.314,105.223 77.831,103.302 71.394,105.865 Z"/>
</svg>

