<svg xmlns="http://www.w3.org/2000/svg" width="300" height="300" viewBox="0 0 300 300" version="1.1">
  <defs/>
  <path d="M63.25,67.662 C65.754,66.652 67.784,67.042 70.291,69.015 C72.637,70.86 72.805,71.489 72.289,76.493 C71.811,81.119 71.997,82.061 73.498,82.638 C74.474,83.012 75.998,82.803 76.886,82.174 C85.1,76.351 93.637,76.91 98.912,83.615 C101.227,86.558 101.733,92.867 99.809,94.791 C99.154,95.446 98.5,98.013 98.356,100.496 C98.076,105.316 95.564,109.55 89.078,116.132 C87.11,118.129 84.405,120.978 83.067,122.463 C79.843,126.04 73.657,128.732 67.48,129.245 C63.739,129.556 61.13,130.597 57.24,133.331 C51,137.718 47.316,138.03 43.96,134.458 C41.941,132.309 41.76,131.614 42.786,129.97 C46.1,124.664 48.089,114.791 46.092,113.557 C45.384,113.12 39.965,116.781 34.053,121.69 C33.806,121.894 34.317,123.285 35.187,124.781 C36.057,126.276 37.073,128.924 37.445,130.663 C38.023,133.369 37.795,133.93 35.869,134.542 C34.133,135.093 33.075,134.626 31.249,132.504 C28.101,128.844 17.826,121.225 11.014,117.5 C7.301,115.47 5.212,113.594 4.552,111.697 C3.145,107.653 4.865,105.409 9.045,105.836 C12.761,106.216 15.361,107.729 20.695,112.615 C22.728,114.477 24.731,116 25.147,116 C25.563,116 27.432,114.426 29.301,112.502 C33.204,108.484 37.875,104.973 43.25,102.02 C47.721,99.563 48.089,96.837 45.006,89.014 C42.668,83.082 43.705,80 48.041,80 C51.555,80 53,81.751 53,86.009 C53,90.803 55.238,93.895 57.641,92.423 C61.312,90.174 63.367,86.073 63.796,80.141 C64.062,76.462 63.805,73.998 63.111,73.569 C61.599,72.634 61.701,68.287 63.25,67.662 Z M87,155.589 C94.017,152.495 98.454,154.176 97.822,159.69 C97.57,161.892 96.526,162.978 93,164.71 C90.525,165.925 86.25,167.476 83.5,168.156 C80.75,168.837 77.6,170.119 76.5,171.006 C75.4,171.893 73.208,173.169 71.629,173.843 C68.86,175.024 68.774,175.267 69.225,180.7 C69.8,187.634 71.359,189.094 80.693,191.437 C84.437,192.377 88.175,193.712 89,194.404 C91.017,196.095 99.048,199 101.707,199 C102.884,199 105.119,200.057 106.673,201.348 C108.228,202.639 110.722,203.994 112.215,204.358 C116.6,205.428 123.476,210.612 125.504,214.377 C127.057,217.261 127.18,218.31 126.213,220.433 C124.67,223.818 123.206,223.675 117.223,219.56 C114.473,217.668 110.652,215.464 108.733,214.662 C106.814,213.86 104.938,212.708 104.563,212.102 C104.188,211.496 102.853,211 101.596,211 C100.339,211 98.495,210.1 97.5,209 C96.505,207.9 94.695,207 93.48,207 C92.264,207 90.126,206.1 88.727,205 C87.329,203.9 85.796,203 85.32,203 C84.845,203 82.815,201.647 80.809,199.994 C77.642,197.383 76.804,197.124 74.439,198.023 C71.749,199.046 71.724,199.138 72.369,205.779 C73.756,220.056 74.131,235.39 73.144,237.425 C72.59,238.566 71.854,241.636 71.508,244.247 C70.737,250.062 68.657,251.569 64.42,249.382 C60.554,247.386 57.081,243.06 57.036,240.184 C57.016,238.911 56.508,236.95 55.907,235.827 C55.105,234.329 55.123,233.481 55.974,232.643 C56.847,231.782 57.855,232.303 60.053,234.75 C61.658,236.537 63.495,238 64.135,238 C65.638,238 64.682,206.282 63.133,204.733 C61.493,203.093 55.58,205.176 55.182,207.535 C54.862,209.429 48.546,216.272 37,227.234 C33.975,230.106 29.411,234.603 26.857,237.228 C24.09,240.071 21.324,242 20.013,242 C18.666,242 17.613,242.763 17.298,243.967 C16.57,246.751 13.535,247.397 10.505,245.411 C4.324,241.362 5.243,237.012 12.71,234.978 C17.918,233.559 30.181,223.765 35.069,217.119 C36.534,215.129 43.01,207.984 49.462,201.243 C59.544,190.708 61.267,188.427 61.725,185.011 C62.338,180.446 60.44,178.9 56.686,180.905 C55.484,181.547 52.025,183.399 49,185.02 C45.975,186.64 42.62,187.974 41.544,187.983 C40.469,187.992 36.194,189.511 32.044,191.358 C12.283,200.152 4.951,201.044 4.193,194.746 C3.816,191.615 7.102,189.011 11.473,188.975 C14.437,188.951 21.529,186.817 29.5,183.55 C31.7,182.648 34.4,181.546 35.5,181.102 C38.507,179.885 46.296,176.136 48,175.085 C48.825,174.576 51.3,173.284 53.5,172.214 C60.771,168.679 69.475,163.819 71.079,162.398 C71.947,161.629 73.433,161 74.381,161 C75.328,161 77.768,160.13 79.802,159.066 C81.836,158.002 85.075,156.437 87,155.589 Z M160.385,39.75 C161.181,37.229 164.868,37.561 165.937,40.25 C166.826,42.486 170.482,66.563 171.821,79 C172.206,82.575 172.94,86.159 173.452,86.964 C173.964,87.769 174.733,92.719 175.161,97.964 C176.381,112.896 177.622,121.426 178.933,123.874 C179.744,125.39 179.812,126.521 179.142,127.329 C178.495,128.109 178.45,132.386 179.014,139.515 C179.764,149.005 181.241,189.738 181.043,195.5 C181.005,196.6 180.768,204.025 180.516,212 C180.09,225.495 179.491,238.514 178.513,255.5 C178.292,259.35 178.167,265.65 178.236,269.5 C178.435,280.622 177.646,287.249 175.527,292.25 C174.225,295.324 169.566,294.384 164.541,290.035 C157.362,283.822 149.589,274.918 147.107,270.065 C145.86,267.626 143.307,263.84 141.433,261.651 C138.821,258.599 138.286,257.361 139.136,256.336 C139.746,255.601 140.849,255 141.588,255 C143.751,255 149.21,260.331 153.51,266.643 C155.704,269.864 158.287,273.372 159.25,274.439 C160.212,275.505 161,276.712 161,277.12 C161,277.529 162.397,278.858 164.103,280.074 C166.378,281.693 167.406,281.961 167.952,281.078 C168.362,280.415 169.044,273.938 169.468,266.686 C169.892,259.434 170.386,251.025 170.566,248 C171.946,224.755 170.891,142.461 169.023,127.59 C168.408,122.689 167.678,115.939 167.403,112.59 C167.127,109.24 166.514,105.15 166.041,103.5 C165.567,101.85 164.933,96.225 164.632,91 C164.33,85.775 163.636,79.25 163.09,76.5 C162.164,71.839 161.387,66.72 159.275,51.352 C158.81,47.97 158.746,44.37 159.131,43.352 C159.517,42.333 160.081,40.712 160.385,39.75 Z M122.336,100.568 C123.258,98.164 127.372,98.703 130.076,101.581 C132.496,104.157 132.5,104.202 132.524,127.331 C132.538,140.074 132.852,150.983 133.224,151.572 C133.595,152.162 133.49,155.533 132.991,159.064 C132.421,163.095 132.44,165.84 133.042,166.442 C134.376,167.776 134.239,171.361 132.8,172.8 C130.856,174.744 128.248,174.193 124.8,171.113 C122.38,168.95 121.826,167.883 122.594,166.863 C123.836,165.212 123.822,116.219 122.576,107.818 C122.113,104.692 122.005,101.43 122.336,100.568 Z M65.844,136.825 C72.011,133.908 75.769,133.922 79.923,136.877 C86.799,141.769 85.176,144.98 74.894,146.83 C70.827,147.562 66.79,148.799 65.921,149.58 C65.053,150.361 63.392,151 62.23,151 C61.069,151 59.84,151.45 59.5,152 C59.16,152.55 58.18,153 57.323,153 C56.466,153 54.226,154.35 52.347,156 C50.468,157.65 48.419,159 47.794,159 C47.169,159 45.927,159.661 45.035,160.469 C42.584,162.686 37.745,161.054 36.529,157.599 C35.696,155.233 35.904,154.581 37.997,153.002 C39.338,151.991 41.581,150.934 42.981,150.654 C44.382,150.374 46.646,149.169 48.014,147.977 C49.381,146.785 51.85,145.123 53.5,144.284 C55.15,143.445 57.33,142.026 58.344,141.129 C59.358,140.233 62.733,138.296 65.844,136.825 Z M74.733,45.695 C77,43.428 78.902,43.559 81.686,46.174 C85.968,50.198 84.263,53.244 75.667,56.929 C73.009,58.068 68.734,59.02 66.167,59.044 C63.6,59.068 59.475,59.527 57,60.064 C54.525,60.602 50.7,61.317 48.5,61.652 C46.3,61.988 43.711,62.95 42.746,63.79 C40.13,66.068 36,63.962 36,60.35 C36,56.476 38.666,54 42.839,54 C44.78,54 48.198,53.141 50.434,52.09 C52.67,51.04 56.3,49.903 58.5,49.564 C60.7,49.224 64.871,48.596 67.769,48.168 C70.667,47.741 73.801,46.628 74.733,45.695 Z M76.9,93.806 C67.063,98.587 66.423,99.18 64.448,105.327 C63.535,108.172 61.718,112.166 60.411,114.202 C59.005,116.393 58.44,118.154 59.027,118.516 C60.682,119.54 63.752,118.055 64.298,115.967 C64.711,114.388 65.678,114 69.206,114 C71.623,114 74.092,114.492 74.693,115.093 C77.225,117.625 83.886,109.96 88.943,98.695 C93.185,89.245 89.426,87.719 76.9,93.806 Z"/>
</svg>

