<svg xmlns="http://www.w3.org/2000/svg" width="300" height="300" viewBox="0 0 300 300" version="1.1">
  <defs/>
  <path d="M144.5,140.556 C154.374,137.6 164.403,141.346 168.492,149.519 C170.178,152.888 170.473,155.421 170.412,166 C170.338,178.827 169.293,186.837 167.193,190.684 C166.537,191.886 166,194.672 166,196.875 C166,199.079 165.55,201.16 165,201.5 C164.45,201.84 164,203.132 164,204.372 C164,205.611 162.875,208.958 161.5,211.808 C160.125,214.658 159,217.866 159,218.936 C159,220.006 158.55,221.16 158,221.5 C157.45,221.84 157,223.225 157,224.579 C157,229.015 149.137,240 145.962,240 C143.589,240 139.104,235.243 137.007,230.502 C133.655,222.925 132.774,220.032 133.355,218.518 C134.431,215.713 136.663,216.965 139.333,221.871 C140.792,224.55 142.643,227.289 143.448,227.957 C145.222,229.429 147,228.52 147,226.141 C147,225.183 147.376,223.973 147.835,223.45 C148.294,222.928 149.454,220.25 150.412,217.5 C151.371,214.75 152.529,211.6 152.985,210.5 C153.441,209.4 154.325,206.25 154.949,203.5 C156.577,196.322 159.055,187.78 160.086,185.785 C160.574,184.842 161.479,179.776 162.098,174.528 C163.452,163.049 162.05,153.083 158.622,149.819 C156.776,148.062 155.606,147.871 149.64,148.35 C145.867,148.654 141.884,149.497 140.789,150.224 C138.337,151.852 135.896,158.005 135.325,164 C134.894,168.521 134.653,169.323 131.639,176.284 C130.737,178.365 130,180.714 130,181.504 C130,182.293 129.1,184.542 128,186.5 C126.9,188.458 126,190.503 126,191.043 C126,192.07 119.536,206.401 117.901,209 C117.382,209.825 116.164,212.075 115.193,214 C114.223,215.925 111.841,219.975 109.899,223 C107.958,226.025 105.598,230.075 104.655,232 C102.267,236.876 96.299,245.16 93.685,247.228 C91.054,249.308 86.419,249.535 85.684,247.619 C85.18,246.306 88.292,240.826 91.998,236.5 C93.544,234.695 96.733,229.039 105.161,213.148 C106.723,210.205 108,207.164 108,206.391 C108,204.863 110.632,199.364 117.521,186.5 C118.699,184.3 119.952,181.04 120.305,179.256 C120.658,177.472 121.854,174.137 122.961,171.845 C124.068,169.554 125.269,165.45 125.631,162.726 C126.277,157.853 126.249,157.786 123.894,158.501 C122.577,158.901 120.044,160.109 118.265,161.186 C113.778,163.902 110.782,162.871 111.193,158.751 C111.46,156.071 112.401,155.191 118.492,151.927 C122.337,149.866 125.937,147.352 126.492,146.34 C127.046,145.328 127.621,144.304 127.769,144.064 C127.917,143.825 130.617,143.274 133.769,142.841 C136.921,142.407 141.75,141.379 144.5,140.556 Z M99.667,85.667 C100.853,84.48 102.65,84.956 104.436,86.929 C106.215,88.895 106.022,90.414 102.967,98.5 C102.552,99.6 101.43,102.75 100.474,105.5 C99.519,108.25 98.346,110.928 97.869,111.45 C97.391,111.973 97,113.599 97,115.065 C97,116.531 96.162,118.803 95.137,120.115 C94.113,121.427 92.301,124.418 91.111,126.762 C87.011,134.837 65.729,165.411 61.014,170 C60.731,170.275 57.401,174.011 53.613,178.303 C47.902,184.772 46.278,186.054 44.113,185.803 C38.474,185.149 41.297,179.516 54.287,165.5 C55.306,164.4 59.94,158.051 64.585,151.392 C69.229,144.732 73.922,138.475 75.014,137.487 C76.107,136.499 77,135.295 77,134.811 C77,134.328 79.7,129.463 83,124 C86.3,118.537 89,113.572 89,112.968 C89,112.363 89.549,110.886 90.22,109.684 C91.999,106.501 93.968,100.772 93.985,98.73 C93.993,97.757 95.125,95.178 96.5,93 C97.875,90.822 99,88.431 99,87.687 C99,86.942 99.3,86.033 99.667,85.667 Z M140.392,77.422 C140.692,76.64 142.133,76 143.595,76 C145.568,76 147.833,77.669 152.377,82.469 C159.121,89.594 173.04,100.83 180.908,105.5 C183.688,107.15 185.971,108.838 185.981,109.25 C185.992,109.662 186.563,110.024 187.25,110.054 C187.938,110.084 190.975,111.876 194,114.037 C197.025,116.198 201.525,119.291 204,120.911 C206.475,122.53 209.625,124.724 211,125.787 C212.375,126.849 214.625,128.072 216,128.504 C219.974,129.751 222.987,132.075 224.551,135.099 C226.394,138.663 226.388,138.722 224.002,139.999 C222.337,140.89 221.13,140.409 216.752,137.11 C213.863,134.934 210.15,132.83 208.5,132.436 C204.098,131.384 200.179,129.277 194,124.639 C188.952,120.849 178.259,114 177.391,114 C176.604,114 151.146,93.941 150.833,93.074 C150.65,92.568 148.657,90.195 146.405,87.801 C141.538,82.628 139.647,79.363 140.392,77.422 Z"/>
</svg>

