<svg xmlns="http://www.w3.org/2000/svg" width="300" height="300" viewBox="0 0 300 300" version="1.1">
  <defs/>
  <path d="M135.033,105.939 C135.624,104.834 137.119,104 138.51,104 C140.427,104 141.384,104.953 142.975,108.445 C144.089,110.89 145,114.238 145,115.886 C145,117.534 145.45,119.16 146,119.5 C146.55,119.84 147.005,121.554 147.011,123.309 C147.017,125.064 147.692,128.709 148.511,131.409 C149.33,134.109 150,137.61 150,139.19 C150,140.836 150.648,142.311 151.518,142.645 C153.194,143.288 158.621,141.414 161.066,139.347 C161.927,138.619 164.177,137.731 166.066,137.374 C167.955,137.016 170.403,135.633 171.506,134.299 C172.813,132.719 174.954,131.682 177.655,131.319 C181.281,130.833 182.003,131.074 183.426,133.247 C185.255,136.039 184.475,139.526 181.459,142.041 C179.304,143.837 168.666,147.585 160.143,149.549 C156.647,150.355 153.376,151.268 152.874,151.578 C152.371,151.888 151.999,160.36 152.047,170.403 C152.15,192.344 150.417,220.239 148.437,228.5 C147.646,231.8 146.788,236.3 146.53,238.5 C145.808,244.647 142.946,258.961 141.393,264.188 C140.627,266.766 140,270.283 140,272.004 C140,273.724 139.495,276.075 138.878,277.227 C137.248,280.273 134.785,291.887 134.844,296.25 L134.894,300 L124.309,300 L125.67,292.801 C126.419,288.841 127.699,284.582 128.516,283.336 C129.4,281.987 130,278.711 130,275.235 C130,272.026 130.404,268.972 130.898,268.45 C131.391,267.927 132.037,265.7 132.332,263.5 C133.004,258.493 134.787,250.027 136.545,243.5 C138.162,237.499 139.624,226.254 142.009,201.5 C143.232,188.804 143.572,171.144 142.648,168.365 C142.258,167.191 142.328,164.491 142.805,162.365 C144.063,156.749 143.477,155.824 139.157,156.607 C137.146,156.972 133.813,158.119 131.75,159.156 C129.688,160.192 128,160.795 128,160.495 C128,160.194 126.763,160.583 125.25,161.358 C123.737,162.132 119.8,163.342 116.5,164.046 C113.2,164.749 109.825,165.866 109,166.528 C108.175,167.189 105.325,168.013 102.667,168.358 C100.009,168.702 97.421,169.24 96.917,169.551 C96.413,169.863 96,172.241 96,174.835 C96,180.614 94.129,195.982 93.253,197.399 C92.902,197.967 92.532,200.394 92.431,202.792 C92.33,205.19 91.742,207.658 91.124,208.276 C90.506,208.894 90,211.18 90,213.356 C90,216.055 89.19,218.373 87.449,220.656 C84.524,224.491 82.108,224.882 79.455,221.95 C77.811,220.134 77.749,219.535 78.913,216.7 C80.981,211.66 83,203.821 83,200.831 C83,199.328 83.665,195.543 84.478,192.421 C85.321,189.186 85.605,186.116 85.138,185.282 C84.688,184.477 84.777,181.818 85.336,179.372 C86.147,175.83 86.064,174.639 84.927,173.52 C83.7,172.312 82.727,172.383 78,174.024 C74.975,175.075 70.869,175.949 68.876,175.967 C66.882,175.985 63.493,176.62 61.345,177.378 C59.196,178.136 52.502,179.313 46.469,179.993 C40.436,180.673 34.375,181.555 33,181.953 C29.832,182.87 25,179.559 25,176.472 C25,174.861 25.97,174 28.857,173.047 C30.978,172.347 33.681,172.081 34.863,172.456 C36.045,172.832 39.372,172.476 42.256,171.667 C45.14,170.857 50.2,169.901 53.5,169.543 C56.8,169.185 61.75,168.286 64.5,167.545 C67.25,166.805 71.75,165.886 74.5,165.504 C77.25,165.122 80.99,164.189 82.811,163.43 L86.123,162.051 L85.472,147.775 L84.821,133.5 L87.451,130.75 C90.325,127.745 90.801,127.588 92.942,128.943 C94.009,129.618 94.428,132.285 94.55,139.178 C94.802,153.307 94.694,158.308 96.705,159.397 C97.961,160.077 100.044,159.231 103.557,158.128 C107.286,156.958 110.887,156 111.56,156 C113.676,156 137.391,147.929 139.75,146.407 C141.99,144.961 142.786,141.604 141.132,140.581 C140.654,140.286 139.958,137.672 139.584,134.772 C138.989,130.152 138.075,126.435 136.2,121 C135.915,120.175 135.777,119.094 135.892,118.599 C136.007,118.103 135.627,115.488 135.048,112.788 C134.319,109.39 134.314,107.281 135.033,105.939 Z M110.284,43.804 C114.048,41.411 118.687,45.189 117.543,49.715 C115.803,56.601 115.785,59.703 117.481,60.354 C118.396,60.705 119.983,60.544 121.007,59.996 C122.031,59.448 123.826,59 124.996,59 C127.559,59 137.117,56.056 138.45,54.855 C138.973,54.385 140.802,54 142.515,54 C145.096,54 145.918,54.606 147.315,57.535 C148.871,60.798 148.877,61.259 147.385,63.535 C146.043,65.584 144.966,66 141.007,66 C138.004,66 135.787,66.551 135.006,67.493 C134.102,68.582 132.698,68.815 129.816,68.355 C126.774,67.868 125.25,68.172 123.183,69.679 C121.707,70.755 119.713,71.928 118.75,72.286 C117.313,72.821 117,74.184 117,79.91 C117,83.744 116.55,87.16 116,87.5 C115.45,87.84 115,90.76 115,93.988 C115,99.177 114.53,100.565 110.959,105.942 C107.411,111.284 106.679,111.898 104.959,110.978 C102.805,109.825 102.347,106.053 104.143,104.257 C105.456,102.944 107.168,89.786 107.366,79.5 L107.5,72.5 L104,72.399 C102.075,72.343 99.6,72.827 98.5,73.474 C95.676,75.135 72.839,75.346 71.806,73.721 C70.162,71.132 70.977,67.061 73.466,65.43 C75.497,64.099 77.445,63.941 84.528,64.531 C93.447,65.274 104.78,63.733 106.227,61.581 C106.627,60.987 106.712,59.72 106.415,58.767 C105.704,56.482 108.726,44.793 110.284,43.804 Z"/>
</svg>

