<svg xmlns="http://www.w3.org/2000/svg" width="300" height="300" viewBox="0 0 300 300" version="1.1">
  <defs/>
  <path d="M84.557,51.25 C85.225,49.052 89.666,49.842 91.385,52.465 C93.706,56.007 93.357,63.37 90.483,71.5 C89.122,75.35 88.007,78.846 88.004,79.269 C88,80.095 92.229,79.38 95.5,78.002 C96.6,77.538 99.525,76.483 102,75.656 C104.475,74.829 108.814,73.274 111.642,72.202 C114.471,71.129 119.196,69.686 122.142,68.995 C125.089,68.304 128.046,67.305 128.714,66.777 C129.381,66.248 134.331,65.575 139.714,65.282 C147.496,64.859 150.319,65.092 153.5,66.421 C164.904,71.187 168.647,77.112 170.29,93 C171.543,105.12 171.537,105.862 170.06,122 C169.381,129.425 168.51,140 168.125,145.5 C167.74,151 166.865,156.508 166.182,157.74 C165.499,158.973 164.891,161.673 164.831,163.74 C164.771,165.808 164.377,167.95 163.956,168.5 C163.535,169.05 162.96,172.2 162.678,175.5 C162.397,178.8 161.453,185.1 160.581,189.5 C159.709,193.9 158.561,199.975 158.03,203 C156.545,211.463 155.643,214.528 150.372,229.025 C149.067,232.613 148,236.107 148,236.788 C148,237.47 147.594,238.809 147.097,239.764 C146.601,240.719 145.645,243.364 144.973,245.642 C144.147,248.441 142.351,250.955 139.435,253.392 C137.061,255.377 134.809,257 134.431,257 C133.167,257 125.786,250.581 117.76,242.5 C110.22,234.909 105.415,227.756 106.584,225.864 C107.259,224.772 110,224.727 110,225.807 C110,226.252 112.035,228.05 114.523,229.803 C117.011,231.557 119.437,234.02 119.916,235.278 C120.839,237.708 129.528,245 131.499,245 C133.703,245 137.583,239.486 139.245,233.992 C140.158,230.972 142.033,225.35 143.41,221.5 C144.788,217.65 145.934,213.514 145.958,212.309 C145.981,211.104 146.402,209.869 146.894,209.565 C147.386,209.261 148.037,207.322 148.339,205.256 C150.023,193.773 151.229,187.278 152.009,185.5 C152.892,183.487 155.379,168.495 156.985,155.5 C157.462,151.65 158.33,146.25 158.916,143.5 C159.501,140.75 160.201,134.45 160.47,129.5 C160.738,124.55 161.249,116.9 161.605,112.5 C162.797,97.758 158.87,78 154.748,78 C154.168,78 151.268,76.853 148.304,75.451 C142.517,72.713 140.407,72.888 132.222,76.785 C130.419,77.643 127.044,78.489 124.722,78.664 C117.528,79.206 113.606,80.193 110.799,82.167 C107.479,84.502 99.574,86.975 95.385,86.989 C93.672,86.995 91.126,87.9 89.727,89 C88.329,90.1 86.481,91 85.622,91 C84.192,91 83.205,92.712 77.556,105 C75.445,109.591 73.673,112.585 71.789,114.743 C70.945,115.709 69.479,118.3 68.53,120.5 C66.766,124.592 62.756,132.853 59.903,138.27 C56.736,144.287 52.15,145.684 49.391,141.474 C47.932,139.248 47.91,138.745 49.201,137.224 C51.886,134.064 57,124.991 57,123.389 C57,122.52 57.85,120.614 58.889,119.154 C62.291,114.374 72.958,92.741 73.6,89.321 C73.945,87.482 74.626,85.731 75.113,85.43 C75.601,85.129 76,83.874 76,82.641 C76,81.408 76.392,79.973 76.872,79.45 C78.122,78.087 81.712,66.032 83.043,58.728 C83.667,55.303 84.349,51.938 84.557,51.25 Z M133.315,135.25 C134.318,133.689 139.638,133.605 140.583,135.134 C142.007,137.438 142.67,160.05 141.592,169.5 C141.215,172.8 140.902,181.912 140.896,189.75 C140.89,197.998 140.488,204 139.943,204 C139.424,204 139,205.07 139,206.378 C139,209.867 136.333,215.658 134.382,216.407 C133.319,216.815 131.788,216.21 130.268,214.782 C128.079,212.725 127.899,211.934 128.394,206.504 C129.186,197.802 129.515,195.696 130.37,193.855 C130.79,192.951 130.991,190.476 130.817,188.355 L130.5,184.5 L125.56,184.851 C122.843,185.045 119.6,185.871 118.354,186.688 C117.108,187.504 115.598,187.87 115,187.5 C114.402,187.13 112.823,187.541 111.491,188.414 C110.16,189.286 107.506,190 105.594,190 C103.682,190 101.84,190.45 101.5,191 C101.16,191.55 99.36,192 97.5,192 C95.64,192 93.84,192.45 93.5,193 C93.16,193.55 91.135,194 89,194 C86.865,194 84.812,194.495 84.438,195.101 C84.039,195.746 82.5,195.95 80.715,195.593 C78.824,195.215 76.852,195.522 75.504,196.405 C74.058,197.353 70.581,197.814 65.065,197.79 L56.795,197.754 L55.49,194.627 C54.562,192.404 54.231,186.443 54.343,174 L54.5,156.5 L57.086,156.199 C60.613,155.789 62.279,158.153 62.48,163.851 C62.572,166.474 62.942,169.098 63.303,169.681 C63.663,170.264 63.869,173.726 63.761,177.375 C63.6,182.809 63.921,184.364 65.532,185.971 C67.423,187.856 67.872,187.877 77,186.496 C88.593,184.743 98.205,182.293 111.967,177.583 C117.723,175.612 124.312,174 126.61,174 C129.6,174 131.025,173.503 131.628,172.25 C132.091,171.287 132.479,162.85 132.491,153.5 C132.503,144.15 132.874,135.938 133.315,135.25 Z M106.75,120.08 C109.302,118.594 110.368,118.763 112.811,121.039 C115.594,123.631 115.574,123.893 112.125,130.268 C110.544,133.19 108.912,137.138 108.498,139.041 C108.083,140.943 107.127,143.388 106.372,144.473 C104.339,147.395 104.658,148.858 108.25,153.064 C112.154,157.636 114.768,160.972 116.033,163 C117.518,165.378 117.163,171.619 115.464,173.03 C114.179,174.097 113.444,173.841 110.964,171.465 C109.334,169.904 108,168.233 108,167.753 C108,166.028 100.541,158 98.938,158 C98.036,158 95.924,160.212 94.243,162.915 C92.563,165.619 89.908,168.632 88.344,169.612 C86.78,170.591 84.538,172.531 83.363,173.923 C79.01,179.079 69,176.278 69,169.904 C69,166.27 70.364,165.537 73.412,167.534 C75.808,169.104 76.007,169.034 80.19,165.166 C82.561,162.974 86.023,158.655 87.885,155.568 C91.161,150.138 91.213,149.892 89.48,147.978 C88.496,146.89 86.93,146 86,146 C85.07,146 83.472,145.074 82.447,143.941 C80.094,141.341 81.389,138.893 85.784,137.633 C88.222,136.934 89.572,137.19 92.284,138.866 C95.528,140.871 95.789,140.891 97.275,139.241 C98.138,138.283 99.165,136.15 99.556,134.5 C99.948,132.85 100.771,130.825 101.384,130 C103.452,127.22 105,124.036 105,122.563 C105,121.758 105.787,120.641 106.75,120.08 Z"/>
</svg>

