<svg xmlns="http://www.w3.org/2000/svg" width="300" height="300" viewBox="0 0 300 300" version="1.1">
  <defs/>
  <path d="M123,118 C129.983,114.177 141,116.594 141,121.95 C141,122.943 141.603,124.255 142.339,124.866 C144.127,126.35 144.027,153.455 142.221,156.684 C141.55,157.886 140.986,161.036 140.968,163.684 C140.951,166.333 140.276,169.374 139.468,170.441 C138.661,171.509 138,173.16 138,174.11 C138,175.06 136.236,177.673 134.079,179.917 C129.775,184.398 128.699,184.431 123.5,180.243 C118.413,176.145 114.856,170.879 116.134,169.338 C117.69,167.463 118.511,167.642 121.635,170.537 C123.141,171.933 125.04,172.946 125.855,172.787 C127.82,172.407 130.835,167.152 130.927,163.95 C130.967,162.547 131.416,160.972 131.924,160.45 C132.879,159.469 134.498,142.683 134.347,135.338 C134.189,127.671 133.352,126 129.672,126 C127.863,126 125.509,126.661 124.441,127.468 C123.374,128.276 121.69,128.951 120.7,128.968 C117.78,129.02 113.01,131.909 108.869,136.134 L105,140.081 L104.785,150.29 C104.411,168.007 104.143,173.284 103.203,181.482 C102.548,187.198 102.638,190.97 103.521,194.768 C105.599,203.706 107.823,205.008 124.605,207.116 C135.194,208.446 155.883,208.297 161.5,206.85 C163.7,206.284 167.75,205.445 170.5,204.987 C173.25,204.529 179.419,203.509 184.209,202.719 C195.7,200.826 200.177,197.851 204.942,188.942 C207.414,184.32 206.72,174.602 203.41,167.485 C198.42,156.757 196.53,148.027 198.882,146.573 C200.367,145.655 205,150.007 205.004,152.323 C205.006,153.52 205.83,155.85 206.835,157.5 C207.839,159.15 208.998,161.843 209.409,163.484 C209.82,165.126 211.338,168.951 212.782,171.984 C216.149,179.056 216.433,190.094 213.364,194.635 C212.299,196.211 210.779,198.788 209.985,200.362 C209.192,201.936 207.52,203.612 206.271,204.087 C205.022,204.562 204,205.403 204,205.956 C204,206.509 202.893,207.24 201.541,207.579 C200.189,207.919 198.558,208.827 197.919,209.598 C197.274,210.374 194.965,211 192.743,211 C187.813,211 176.722,212.733 172,214.241 C170.075,214.856 166.475,215.47 164,215.606 C161.525,215.743 156.575,216.178 153,216.573 C143.036,217.676 122.363,217.033 114,215.361 C105.852,213.732 99.696,210.255 97.541,206.066 C95.114,201.347 92.732,186.859 93.338,180.5 C93.652,177.2 94.572,167.975 95.382,160 C96.637,147.648 96.651,145.13 95.476,143 C93.31,139.071 92.316,137.495 92.517,136.089 C92.686,134.904 93.706,133.839 95.59,131.586 C98.823,127.718 99.98,127 102.975,127 C105.377,127 108.208,125.867 111.724,123.5 C114.582,121.575 117.501,119.981 118.211,119.958 C118.92,119.935 121.075,119.054 123,118 Z M126,38.869 C129.025,37.306 132.151,36.135 132.946,36.267 C133.741,36.399 135.285,38.035 136.376,39.904 L138.36,43.301 L135.45,45.622 C133.849,46.898 131.33,48.208 129.852,48.532 C128.374,48.857 126.183,49.974 124.983,51.015 C123.783,52.056 120.708,53.176 118.15,53.505 C115.593,53.834 112.6,54.6 111.5,55.207 C110.4,55.815 108.6,56.762 107.5,57.312 C106.4,57.861 104.825,58.672 104,59.114 C98.957,61.814 91.973,65 91.097,65 C88.885,65 88.212,69.042 88.213,82.322 C88.213,93.12 88.514,96.26 89.587,96.672 C91.565,97.431 104.831,90.577 115.894,83.08 C118.978,80.991 122.453,78.981 123.618,78.615 C124.783,78.249 126.54,77.06 127.523,75.974 C129.928,73.317 133.169,73.487 135.92,76.415 C139.024,79.719 138.03,82.061 131.909,85.866 C129.136,87.59 126.603,89 126.28,89 C124.546,89 112.697,95.577 107.5,99.424 C104.2,101.867 100.915,103.896 100.2,103.933 C99.486,103.97 97.461,104.759 95.7,105.688 C93.94,106.616 91.15,107.403 89.5,107.438 C86.923,107.491 86.454,107.923 86.173,110.5 C85.993,112.15 85.431,113.927 84.923,114.45 C84.415,114.972 84,116.785 84,118.477 C84,120.17 83.408,122.443 82.685,123.527 C80.939,126.145 79.001,133.023 78.996,136.616 C78.994,138.202 78.196,140.85 77.224,142.5 C76.251,144.15 73.95,150.225 72.111,156 C70.273,161.775 68.37,167.281 67.884,168.236 C67.398,169.191 67,171 67,172.254 C67,173.509 65.875,176.191 64.5,178.215 C63.125,180.238 62,182.566 62,183.388 C62,184.21 61.55,185.16 61,185.5 C60.45,185.84 60,187.611 60,189.437 C60,191.262 59.325,193.315 58.5,194 C57.675,194.685 57,196.513 57,198.063 C57,199.614 56.616,201.119 56.147,201.409 C55.678,201.699 54.508,204.434 53.548,207.486 C52.575,210.579 50.961,213.486 49.901,214.053 C48.856,214.612 48,215.955 48,217.035 C48,219.601 45.225,219.537 42.056,216.899 L39.612,214.865 L43.153,207.682 C45.1,203.732 47.275,198.7 47.984,196.5 C48.694,194.3 50.338,190.278 51.637,187.563 C52.937,184.847 54,181.846 54,180.894 C54,179.941 54.633,177.888 55.407,176.331 C57.72,171.68 58.793,168.8 60.451,162.801 C61.318,159.666 62.47,156.827 63.013,156.492 C63.556,156.156 64,154.81 64,153.5 C64,152.19 64.411,150.864 64.913,150.554 C65.415,150.243 66.116,148.079 66.47,145.745 C66.824,143.41 67.476,140.6 67.92,139.5 C69.622,135.279 71.942,127.333 72.591,123.5 C72.963,121.3 73.818,118.375 74.491,117 C76.594,112.703 79.557,91.832 79.942,78.611 L80.142,71.722 L75.821,72.442 C67.144,73.89 59.313,75.05 51.059,76.113 C43.363,77.103 42.503,77.041 41.309,75.408 C39.676,73.174 39.622,70.352 41.194,69.38 C41.851,68.974 45.564,68.297 49.444,67.876 C59.243,66.812 62.999,66.057 66.651,64.416 C68.384,63.637 70.634,63 71.651,62.999 C74.463,62.999 82.439,59.711 93.288,54.08 C98.671,51.286 103.621,49.002 104.288,49.004 C105.469,49.009 114.897,44.608 126,38.869 Z"/>
</svg>

