<svg xmlns="http://www.w3.org/2000/svg" width="300" height="300" viewBox="0 0 300 300" version="1.1">
  <defs/>
  <path d="M165.912,92.25 C166.059,90.16 169.511,90.851 171.963,93.461 C173.949,95.575 174.345,97.265 174.774,105.461 C175.291,115.361 175.773,116.194 179.527,113.678 C180.612,112.951 183.075,111.741 185,110.989 C186.925,110.238 189.943,108.544 191.707,107.226 C195.246,104.58 196.637,104.915 198.099,108.761 C198.941,110.976 198.629,111.787 195.819,114.687 C194.028,116.534 192.037,117.845 191.395,117.598 C190.753,117.352 188.59,118.65 186.588,120.483 C184.587,122.316 181.125,124.719 178.895,125.822 C174.505,127.994 171.728,132.151 169.941,139.228 C169.348,141.577 168.634,144.414 168.356,145.531 C167.965,147.101 169.256,148.692 174.039,152.531 C185.488,161.722 194.052,167.808 199.13,170.361 C206.738,174.185 223.15,190.688 230.16,201.561 C231.6,203.795 234.628,207.76 236.889,210.372 C239.15,212.984 241,215.703 241,216.413 C241,217.122 242.238,219.039 243.75,220.671 C248.525,225.825 250.848,228.806 252.344,231.698 C253.142,233.242 254.741,235.361 255.898,236.407 C258.175,238.468 258.609,241.993 256.965,245.066 C255.518,247.769 252.426,247.476 250.297,244.433 C249.309,243.021 247.039,239.983 245.254,237.683 C243.468,235.382 241.103,231.543 239.997,229.152 C238.891,226.76 235.965,222.437 233.493,219.544 C231.022,216.651 229,213.933 229,213.504 C229,213.075 227.313,210.797 225.25,208.442 C223.188,206.086 219.514,201.62 217.086,198.517 C214.659,195.414 210.159,190.766 207.086,188.187 C204.014,185.609 201.169,182.988 200.763,182.363 C200.358,181.738 197.658,179.736 194.763,177.914 C191.869,176.093 188.054,173.371 186.287,171.865 C184.52,170.359 181.145,168.257 178.787,167.193 C176.429,166.13 173.178,163.852 171.563,162.13 C166.603,156.845 162,158.648 162,165.875 C162,167.529 161.562,169.153 161.027,169.483 C159.726,170.287 157.299,175.752 156.522,179.627 C156.177,181.346 154.799,184.239 153.46,186.055 C152.12,187.871 150.725,190.964 150.359,192.928 C149.994,194.893 148.638,198.179 147.347,200.23 C146.056,202.282 145,204.332 145,204.786 C145,205.24 143.836,207.161 142.414,209.056 C140.991,210.95 139.424,213.522 138.931,214.77 C138.438,216.019 136.226,219.435 134.017,222.361 C131.808,225.288 129.993,228.541 129.985,229.591 C129.977,230.641 129.294,233.442 128.467,235.816 C127.641,238.19 127.216,240.54 127.523,241.037 C128.317,242.323 125.198,248 123.697,248 C120.65,248 107.219,236.463 104.622,231.615 C101.205,225.238 105.168,222.23 108.824,228.426 C111.238,232.517 115.378,235.453 117.555,234.617 C118.8,234.139 118.989,233.108 118.467,229.626 C118.049,226.838 118.208,224.989 118.904,224.559 C119.507,224.187 120,221.12 120,217.743 C120,214.367 120.522,205.375 121.16,197.762 C122.014,187.564 122.025,183.625 121.202,182.802 C119.595,181.195 117.39,183.3 116.613,187.183 C116.268,188.908 114.302,191.961 112.243,193.966 C110.184,195.97 107.15,199.535 105.5,201.887 C100.39,209.171 94.886,212.968 87.78,214.113 C81.138,215.183 78,217.127 78,220.175 C78,221.201 76.972,223.718 75.715,225.77 C74.458,227.821 72.941,230.63 72.345,232.011 C71.063,234.979 66.796,237.519 64.545,236.656 C62.065,235.704 61.672,233.364 63.408,229.885 C64.283,228.129 65,226.076 65,225.322 C65,224.568 66.575,221.662 68.5,218.864 C70.425,216.065 72,212.964 72,211.971 C72,210.979 72.392,210.017 72.872,209.833 C74.438,209.235 78.702,198.618 79.433,193.5 C79.825,190.75 80.788,186.572 81.573,184.215 C83.461,178.546 83.384,170.697 81.321,158.455 C79.523,147.781 79.822,145 82.769,145 C85.365,145 87,146.962 87,150.078 C87,151.55 87.708,153.343 88.574,154.061 C89.917,155.176 90.63,154.863 93.424,151.934 C95.226,150.045 99.508,146.25 102.939,143.5 C106.37,140.75 110.588,137.244 112.313,135.71 C114.038,134.175 116.342,133.05 117.433,133.21 C120.263,133.624 124.809,140.636 126.05,146.5 C128.618,158.636 129.169,161.768 129.483,166 C129.666,168.475 130.132,174.775 130.518,180 C130.91,185.293 130.75,194.148 130.157,199.996 C129.5,206.469 129.449,210.849 130.023,211.423 C131.394,212.794 134.347,209.713 135.9,205.29 C136.632,203.205 137.899,199.925 138.717,198 C139.535,196.075 140.661,193.375 141.219,192 C141.777,190.625 142.654,188.681 143.168,187.681 C145.665,182.823 152,167.497 152,166.314 C152,165.576 152.413,164.191 152.917,163.236 C155.251,158.815 157.12,150.092 156.129,148.241 C155.305,146.701 155.666,145.861 158.057,143.763 C160.414,141.695 161,140.366 161,137.09 C161,133.607 160.69,133 158.908,133 C157.757,133 155.678,133.895 154.287,134.989 C152.613,136.305 150.952,136.775 149.372,136.379 C147.923,136.015 145.983,136.436 144.434,137.452 C140.998,139.703 137.889,139.076 136.033,135.759 C133.396,131.044 135.283,129.55 149,125.489 C162.516,121.488 164.418,120.482 165.228,116.905 C165.652,115.032 165.96,109 165.911,103.5 C165.863,98 165.863,92.938 165.912,92.25 Z M160.5,32.103 C168.443,29.228 170.954,30.414 171.743,37.413 L172.26,42 L165.88,42.032 C161.862,42.052 158.781,42.607 157.559,43.532 C156.491,44.339 154.691,45.003 153.559,45.007 C152.426,45.01 150.15,45.907 148.5,47 C146.85,48.093 144.3,48.99 142.833,48.993 C141.366,48.997 138.122,49.876 135.623,50.947 C133.125,52.018 129.375,53.201 127.291,53.576 C125.206,53.951 122.375,54.818 121,55.502 C116.462,57.759 111.022,59.142 109.092,58.529 C108.029,58.192 105.675,58.778 103.746,59.862 C101.85,60.926 97.645,62.068 94.4,62.399 C91.155,62.73 87.15,63.191 85.5,63.424 C83.85,63.656 81.938,63.881 81.25,63.923 C80.326,63.98 80,67.021 80,75.566 C80,81.927 79.528,88.013 78.952,89.09 C78.375,90.167 77.86,93.85 77.806,97.274 C77.724,102.539 76.959,105.076 72.854,113.705 C70.184,119.318 68,124.579 68,125.396 C68,126.213 67.55,127.16 67,127.5 C66.45,127.84 66,129.161 66,130.437 C66,131.712 65.355,133.29 64.567,133.945 C63.778,134.599 62.687,137.017 62.141,139.317 C60.961,144.291 58.369,151.828 55.76,157.875 C54.722,160.281 52.969,164.556 51.865,167.375 C50.76,170.194 49.439,172.928 48.928,173.45 C48.418,173.972 48,175.407 48,176.638 C48,177.87 46.65,181.337 45,184.343 C43.35,187.35 42,190.652 42,191.682 C42,192.712 41.382,194.443 40.628,195.527 C39.873,196.612 38.916,199.075 38.5,201 C38.084,202.925 37.127,205.388 36.372,206.473 C35.618,207.557 35,209.415 35,210.6 C35,211.785 34.373,213.275 33.608,213.911 C32.842,214.546 31.635,216.514 30.925,218.283 C30.215,220.052 28.817,222.573 27.817,223.885 C26.818,225.197 26,227.075 26,228.058 C26,230.863 21.129,236 18.47,236 C15.679,236 14.324,234.276 15.887,232.713 C16.499,232.101 17,230.787 17,229.793 C17,228.799 18.088,225.851 19.417,223.243 C26.05,210.227 29.119,203.399 30.554,198.461 C31.422,195.478 32.552,192.777 33.066,192.459 C33.58,192.142 34,191.002 34,189.927 C34,188.852 34.428,187.191 34.952,186.236 C35.475,185.281 36.66,182.7 37.584,180.5 C38.509,178.3 40.105,174.67 41.133,172.434 C42.16,170.198 43,167.666 43,166.807 C43,165.948 43.628,164.724 44.395,164.087 C45.163,163.45 46.102,161.257 46.482,159.214 C46.862,157.171 48.08,153.25 49.19,150.5 C52.484,142.333 52.715,141.695 54.084,137 C54.806,134.525 55.927,131.6 56.576,130.5 C57.225,129.4 58.038,126.925 58.382,125 C58.726,123.075 59.652,120.15 60.44,118.5 C61.228,116.85 62.123,114.825 62.43,114 C62.736,113.175 63.376,111.825 63.852,111 C68.562,102.825 70.438,94.752 71.65,77.433 C72.275,68.515 71.6,67.814 63.466,68.939 C60.124,69.401 56.76,69.376 55.818,68.883 C53.24,67.533 52.626,64.22 54.44,61.451 C55.751,59.45 56.873,59 60.548,59 C63.024,59 67.611,58.1 70.74,57 C73.87,55.9 77.94,55 79.784,55 C81.628,55 87.719,53.492 93.319,51.649 C98.918,49.806 105.975,48.014 109,47.668 C113.786,47.119 128.617,42.598 131.509,40.805 C132.064,40.461 135.413,39.43 138.95,38.513 C142.487,37.596 146.295,36.206 147.413,35.423 C148.531,34.64 150.807,33.98 152.473,33.956 C154.138,33.932 157.75,33.098 160.5,32.103 Z M104,84.449 C109.124,81.766 111.944,81.489 116.679,83.201 C119.056,84.06 120,85.021 120,86.579 C120,87.776 120.711,90.458 121.581,92.539 C123.22,96.461 123.116,102.757 121.258,112.197 C120.136,117.893 118.698,119.784 115.177,120.191 C112.94,120.449 112.5,120.992 112.5,123.491 C112.5,126.033 111.785,126.869 107.732,129.062 C105.11,130.481 101.449,133.111 99.597,134.906 C95.107,139.258 92.383,138.807 89.268,133.194 C87.291,129.631 86.801,127.056 86.426,118.28 C86.177,112.447 85.587,107.184 85.115,106.587 C84.642,105.989 84.029,101.338 83.753,96.25 C83.187,85.822 83.843,85.007 89.182,89.5 C92.921,92.646 94.062,92.632 97.076,89.402 C98.409,87.973 101.525,85.744 104,84.449 Z M110,148.5 C108.136,149.875 106.064,151 105.395,151 C104.725,151 103.053,152.337 101.678,153.97 C100.304,155.604 97.676,157.78 95.84,158.806 C92.84,160.482 92.5,161.121 92.5,165.086 C92.5,169.386 92.589,169.508 95.939,169.827 C97.83,170.008 101.851,169.377 104.874,168.426 C109.717,166.903 110.675,166.868 112.935,168.132 C117.831,170.871 116.419,177 110.892,177 C109.317,177 105.885,177.518 103.264,178.152 C100.644,178.785 96.854,179.691 94.843,180.165 C90.579,181.17 89,184.378 89,192.035 C89,194.64 88.328,198.06 87.506,199.636 C85.478,203.525 85.596,206 87.81,206 C90.979,206 106.223,192.465 110.552,185.806 C111.873,183.775 114.575,180.491 116.557,178.509 L120.161,174.906 L119.642,162.502 C118.932,145.536 117.276,143.132 110,148.5 Z M198,87.465 C198,84.826 198.417,84.004 199.75,84.015 C202.431,84.039 209.716,91.661 215.029,100 C219.824,107.528 219.932,108.949 215.707,108.985 C213.813,109.001 204,100.418 204,98.745 C204,98.206 202.65,96.226 201,94.347 C198.901,91.957 198,89.889 198,87.465 Z M104.48,95.459 C100.675,99.75 100.436,99.861 98.176,98.38 C95.227,96.447 94.891,96.807 94.82,101.976 C94.747,107.227 96.24,108.998 98.792,106.688 C99.804,105.772 103.302,104.18 106.566,103.15 C112.293,101.342 112.511,101.147 112.815,97.569 C113.131,93.835 111.742,91 109.595,91 C108.958,91 106.656,93.007 104.48,95.459 Z M101,114.01 C95.639,116.913 95,117.769 95,122.039 C95,125.277 95.35,126 96.918,126 C100.232,126 110,115.956 110,112.55 C110,111.311 104.265,112.242 101,114.01 Z"/>
</svg>

