<svg xmlns="http://www.w3.org/2000/svg" width="300" height="300" viewBox="0 0 300 300" version="1.1">
  <defs/>
  <path d="M132.746,46.587 C135.01,44.323 142,49.015 142,52.8 C142,55.945 138.233,58.488 133.37,58.624 C130.939,58.692 127.049,59.459 124.725,60.328 C122.401,61.197 118.7,62.105 116.5,62.345 C112.297,62.805 106.776,64.435 103.639,66.142 C102.615,66.7 99.69,67.54 97.139,68.01 C94.588,68.48 89.125,69.978 85,71.338 C80.875,72.698 73.543,74.603 68.706,75.571 C61.395,77.034 60.032,77.598 60.622,78.915 C61.217,80.246 61.972,89.82 62.285,100 C62.417,104.279 61.378,113.579 60.634,114.783 C60.244,115.414 59.894,118.525 59.856,121.697 C59.818,124.901 59.168,128.35 58.394,129.455 C57.627,130.55 57,133.399 57,135.788 C57,138.177 56.569,140.936 56.043,141.92 C55.517,142.903 54.179,148.611 53.071,154.604 C51.068,165.431 48.839,176.93 46.889,186.5 C46.329,189.25 45.479,193.975 45.001,197 C44.523,200.025 43.682,204.975 43.132,208 C39.721,226.76 39.242,235.416 41.454,238.335 C42.58,239.821 44.525,240.231 51.672,240.491 C60.723,240.819 68.089,239.689 79.187,236.268 C82.659,235.198 89.1,233.265 93.5,231.974 C97.9,230.682 102.04,229.222 102.701,228.731 C104.148,227.653 104.681,223.928 106.095,205 C107.724,183.202 108.379,165.765 108.443,142.514 C108.483,127.921 108.542,122.048 106.544,121.236 C105.169,120.677 102.819,122.515 98.818,125.558 C95.416,128.146 91.247,130.645 89.553,131.113 C84.54,132.497 82.771,137.026 83.107,147.62 C83.407,157.095 81.614,172.931 79.5,179.481 C77.964,184.239 75.764,185.968 73.25,184.394 C71.264,183.15 70.319,176.526 71.862,174.666 C72.712,173.642 73.356,164.676 72.914,160 C72.837,159.175 73.214,155.575 73.754,152 C75.114,142.993 74.799,129.668 73.181,127.718 C72.42,126.802 72.007,124.347 72.189,121.824 C72.439,118.348 72.903,117.442 74.555,117.206 C77.103,116.842 79.377,119.346 80.951,124.25 C81.613,126.312 82.359,128 82.608,128 C82.857,128 84.467,126.398 86.186,124.441 C87.904,122.484 91.153,119.954 93.405,118.82 C95.657,117.686 99.638,115.387 102.25,113.711 C103.859,112.679 104.943,112.153 105.679,111.319 C107.4,109.369 107.215,105.735 107.374,90 L107.5,77.5 L110.551,77.201 C114.716,76.794 117.98,80.201 116.183,83.079 C115.257,84.561 115.232,85.565 116.08,87.15 C116.884,88.653 116.904,89.916 116.147,91.576 C115.432,93.147 115.396,95.78 116.038,99.7 C116.561,102.89 116.991,105.612 116.994,105.75 C117.016,106.675 120.786,105.677 123.42,104.05 C127.223,101.699 138.393,100.385 142.152,101.845 C146.108,103.383 150.252,109.478 151.33,115.346 C152.667,122.619 152.261,137.169 150.476,146 C149.642,150.125 148.546,155.75 148.04,158.5 C145.857,170.378 142.749,181.447 140.669,184.75 C139.733,186.237 133.385,186.431 132.5,185 C132.16,184.45 131.043,184 130.018,184 C127.806,184 122.197,178.648 120.938,175.336 C120.449,174.051 119.224,173 118.216,173 C116.604,173 116.37,173.938 116.28,180.75 C116.224,185.012 115.89,191.425 115.538,195 C114.379,206.761 113.246,224.488 113.612,225.131 C113.809,225.478 116.79,225.159 120.235,224.422 C128.744,222.603 136.069,221.092 145,219.315 C149.125,218.494 154.525,217.149 157,216.327 C162.613,214.462 170.142,213.168 175.936,213.073 C181.301,212.985 185,215.872 185,220.149 C185,224.282 180.695,226.267 174.323,225.07 C169.387,224.143 164.362,224.591 162.397,226.135 C161.791,226.611 157.838,227.293 153.614,227.65 C149.389,228.007 145.697,228.682 145.408,229.15 C145.118,229.617 143.574,230 141.976,230 C140.378,230 137.055,230.684 134.592,231.52 C132.129,232.356 126.831,233.453 122.818,233.957 C113.237,235.16 112.06,236.527 112.339,246.131 C112.515,252.203 112.262,253.404 110.55,254.603 C105.275,258.297 102.077,255.161 102.032,246.25 C101.998,239.703 101.249,238.862 97.236,240.868 C93.719,242.627 85.4,245.299 82,245.761 C80.075,246.023 78.05,246.585 77.5,247.01 C74.087,249.647 65.982,251.074 54.231,251.108 C41.953,251.143 41.686,251.095 38.203,248.277 C36.255,246.7 34.34,244.755 33.946,243.955 C31.11,238.18 30.617,236.254 30.687,231.2 C30.763,225.613 31.626,220.165 34.544,206.857 C35.345,203.203 36,198.472 36,196.343 C36,194.214 36.842,190.168 37.871,187.353 C38.9,184.538 40.071,179.144 40.473,175.367 C40.875,171.59 41.784,166.7 42.493,164.5 C43.201,162.3 43.803,159.825 43.829,159 C43.855,158.175 44.383,155.7 45.001,153.5 C45.62,151.3 46.517,146.575 46.997,143 C47.811,136.919 50.605,121.939 53.058,110.5 C53.648,107.75 53.989,99.875 53.815,93 L53.5,80.5 L47.589,80.195 C44.338,80.028 40.389,80.425 38.814,81.077 C36.386,82.083 35.648,81.991 33.974,80.477 C32.889,79.494 32,78.191 32,77.581 C32,76.13 39.298,72.934 45,71.889 C47.475,71.435 51.975,70.384 55,69.553 C64.898,66.834 73.12,65 75.414,65 C76.653,65 77.924,64.742 78.239,64.427 C79.847,62.82 114.757,51.483 128.829,47.999 C130.66,47.546 132.423,46.911 132.746,46.587 Z M131,111.016 C130.175,111.557 127.7,112.491 125.5,113.09 C123.041,113.759 121.337,114.166 120.157,115.181 C117.411,117.545 117.506,123.211 117.527,143.189 C117.541,157.11 117.905,169.063 118.336,169.75 C118.766,170.438 120.104,171.002 121.309,171.004 C122.514,171.006 124.973,171.906 126.774,173.004 C128.575,174.102 130.701,175 131.498,175 C133.262,175 136,169.981 136,166.75 C136,165.457 136.374,163.972 136.831,163.45 C137.74,162.411 140.249,153.387 141.823,145.5 C143.2,138.598 143.361,118.341 142.044,117.527 C141.47,117.172 141,116.078 141,115.096 C141,111.133 134.722,108.571 131,111.016 Z"/>
</svg>

