<svg xmlns="http://www.w3.org/2000/svg" width="300" height="300" viewBox="0 0 300 300" version="1.1">
  <defs/>
  <path d="M124.2,53.2 C125.967,51.433 126.843,51.69 130.077,54.923 C132.445,57.291 133,58.704 133,62.364 C133,64.849 133.45,67.16 134,67.5 C134.55,67.84 135,70.312 135,72.994 C135,75.675 135.643,80.936 136.428,84.685 C138.265,93.452 139.745,108.001 140.526,124.969 C140.867,132.377 141.487,139.047 141.903,139.792 C142.32,140.536 142.353,143.172 141.977,145.649 C141.601,148.127 141.669,154.056 142.127,158.827 C142.586,163.597 142.702,169.354 142.386,171.619 C142.071,173.885 141.685,184.91 141.529,196.119 C140.906,240.882 136.481,270.629 129.083,279.775 C125.449,284.267 123.677,284.827 120.559,282.468 C119.491,281.661 117.798,281 116.795,281 C115.065,281 114,280.578 108.75,277.816 C107.513,277.165 105.375,276.052 104,275.342 C102.625,274.633 99.192,271.678 96.37,268.776 C76.987,248.84 60.909,233 60.056,233 C59.002,233 56,227.855 56,226.05 C56,224.349 58.987,224.845 61.727,227 C63.126,228.1 64.803,229 65.454,229 C67.211,229 85.391,246.234 98,259.852 C110.443,273.291 120.309,277.68 124.529,271.655 C125.338,270.5 126,268.332 126,266.837 C126,265.341 126.45,263.84 127,263.5 C127.55,263.16 128,261.81 128,260.5 C128,259.19 128.387,257.879 128.86,257.586 C130.136,256.798 130.944,249.611 132.073,229 C133.787,197.699 133.345,129.201 131.36,118.5 C131.054,116.85 130.431,110.775 129.977,105 C129.523,99.225 128.421,89.1 127.53,82.5 C126.638,75.9 125.761,68.779 125.581,66.676 C125.401,64.574 124.746,62.346 124.126,61.726 C122.637,60.237 122.684,54.716 124.2,53.2 Z M85,105.626 C88.866,104.931 95.415,105.746 95.824,106.972 C96.026,107.578 97.323,109.418 98.705,111.062 C100.903,113.674 101.132,114.632 100.527,118.672 C100.145,121.214 99.455,124.015 98.992,124.897 C98.53,125.779 97.615,128.615 96.96,131.2 C96.304,133.785 94.92,136.667 93.884,137.605 C91.335,139.912 91.508,141.997 94.25,142.014 C98.909,142.042 101.093,143.286 102.533,146.733 C104.226,150.784 103.771,152 100.563,152 C99.288,152 97.732,152.618 97.105,153.374 C96.462,154.148 93.93,154.788 91.295,154.841 C87.947,154.908 85.243,155.793 81.746,157.967 C79.062,159.635 76.534,161 76.128,161 C75.721,161 73.864,162.125 72,163.5 C68.053,166.412 66.047,166.593 61.836,164.415 C59.01,162.954 58.819,162.531 59.388,158.976 C59.739,156.778 59.573,154.854 59.002,154.501 C58.451,154.161 58,153.215 58,152.399 C58,151.583 57.544,150.372 56.986,149.708 C55.017,147.363 51,140.9 51,140.078 C51,139.62 50.325,138.685 49.5,138 C48.675,137.315 48,135.948 48,134.961 C48,133.975 45.3,130.724 42,127.738 C37.676,123.825 36,121.601 36,119.777 C36,116.143 38.277,114.642 42.568,115.447 C45.479,115.993 46.738,117.054 49.228,121.06 C53.331,127.66 55.199,127.487 61.33,119.943 C63.986,116.674 66.644,114 67.235,114 C67.827,114 69.704,112.97 71.406,111.711 C74.872,109.146 81.219,106.305 85,105.626 Z M142,25.5 C142.695,24.663 144.875,24 146.935,24 C151.653,24 157.093,29 155.406,31.786 C154.091,33.959 143.001,39.333 136.672,40.865 C134.016,41.508 128.972,43.376 125.463,45.017 C121.954,46.658 118.255,48 117.242,48 C116.229,48 114.972,48.411 114.45,48.914 C112.73,50.569 100.629,54.14 93.585,55.072 C89.781,55.575 85.635,56.665 84.37,57.493 C81.41,59.432 78.552,59.409 76.571,57.429 C74.665,55.522 74.52,51.643 76.3,50.166 C77.413,49.242 86.892,46.491 101.284,42.915 C103.365,42.398 105.84,41.551 106.784,41.033 C110.528,38.978 118.351,36 120.005,36 C120.967,36 122.267,35.383 122.894,34.628 C123.52,33.874 126.71,32.28 129.983,31.087 C133.256,29.893 136.2,28.486 136.526,27.958 C136.851,27.431 137.936,27 138.937,27 C139.937,27 141.315,26.325 142,25.5 Z M78.245,120.958 C73.325,123.588 65.912,129.127 61.668,133.344 C59.358,135.639 60.162,141.551 63.168,144.363 C64.449,145.562 64.968,146.992 64.622,148.372 C64.325,149.551 64.487,151.17 64.981,151.969 C65.751,153.215 66.145,153.179 67.768,151.71 C68.807,150.77 70.088,150 70.613,150 C71.139,150 72.432,148.538 73.488,146.751 C74.543,144.965 77.34,141.485 79.703,139.019 C82.067,136.553 84,134.196 84,133.782 C84,133.369 85.35,130.836 87,128.154 C88.65,125.473 90,122.091 90,120.639 C90,118.313 89.615,118.009 86.75,118.074 C84.963,118.115 81.135,119.413 78.245,120.958 Z"/>
</svg>

