<svg xmlns="http://www.w3.org/2000/svg" width="300" height="300" viewBox="0 0 300 300" version="1.1">
  <defs/>
  <path d="M129.53,51.594 C130.465,50.167 131.34,49 131.474,49 C131.609,49 134.209,50.329 137.253,51.953 C142.152,54.568 143.139,54.774 145.855,53.748 C149.492,52.376 150.333,52.984 150.333,56.987 C150.333,60.422 148.113,63.234 142.674,66.69 C140.543,68.044 138.223,70.616 137.439,72.492 C136.664,74.346 135.565,76.151 134.996,76.502 C134.427,76.854 134.002,78.797 134.051,80.821 C134.152,84.98 131.838,95.565 130.131,98.755 C129.509,99.918 129,101.123 129,101.434 C129,101.745 132.418,102 136.596,102 C147.602,102 153.206,105.996 151.57,112.678 C151.19,114.23 150.632,116.723 150.331,118.218 C150.029,119.713 149.156,121.455 148.391,122.09 C147.626,122.725 147,124.587 147,126.227 C147,127.887 145.669,131.182 144,133.655 C142.35,136.1 141,138.293 141,138.529 C141,139.977 130.562,152.897 128.501,154 C126.241,155.209 126,155.943 126,161.61 C126,165.06 125.55,168.16 125,168.5 C123.792,169.246 123.759,170.072 124.866,171.817 C125.538,172.877 126.365,172.768 129.1,171.26 C130.97,170.229 134.075,168.778 136,168.035 C137.925,167.292 141.413,165.844 143.75,164.817 C146.088,163.79 149.463,162.673 151.25,162.334 C153.038,161.996 154.95,161.393 155.5,160.994 C159.803,157.878 176.637,160.278 183.476,164.983 C190.952,170.127 192.782,175.799 189.5,183.654 C188.675,185.629 187.986,188.202 187.968,189.372 C187.951,190.542 187.276,192.374 186.468,193.441 C185.661,194.509 185,196.287 185,197.394 C185,198.5 183.73,200.776 182.178,202.452 C180.626,204.129 178.124,208.73 176.618,212.677 C175.112,216.625 173.232,220.392 172.44,221.05 C171.648,221.707 171,223.063 171,224.063 C171,225.064 170.55,226.16 170,226.5 C169.45,226.84 168.986,228.554 168.969,230.309 C168.952,232.064 167.831,235.75 166.478,238.5 C165.125,241.25 164.014,244.181 164.009,245.014 C163.99,248.161 159.911,257.543 157.524,259.93 C155.172,262.283 154.837,262.343 151.269,261.063 C142.197,257.806 130.61,247.732 131.199,243.612 C131.604,240.773 136.717,240.038 137.658,242.683 C138.73,245.697 141.037,247.84 145.579,250.038 C150.68,252.507 153.449,251.633 154.321,247.278 C155.763,240.074 156.935,236.184 158.771,232.5 C159.868,230.3 161.094,226.97 161.495,225.1 C162.151,222.043 162.037,221.778 160.362,222.478 C154.737,224.83 151.184,223.229 152.327,218.858 C152.637,217.674 152.079,215.084 151.087,213.102 C150.095,211.121 148.959,208.153 148.562,206.506 C146.998,200.026 144.343,199.434 139.565,204.5 C137.749,206.425 135.389,208 134.32,208 C133.251,208 131.378,209.35 130.158,211 C128.938,212.65 127.166,214.002 126.22,214.005 C125.274,214.008 122.7,215.119 120.5,216.474 C116.409,218.994 109.644,219.851 108.496,217.994 C106.787,215.229 108.443,205.248 112.128,196.098 C114.143,191.096 110.351,191.208 104.243,196.331 C101.291,198.807 99.733,200.023 98.974,201.619 C98.069,203.522 98.3,205.965 98.658,211.725 C99.033,217.755 99.79,222.105 100.633,223.079 C102.435,225.16 102.367,229.878 100.469,234.42 C99.627,236.436 99.064,239.303 99.219,240.793 C99.575,244.221 96.403,244.956 93.032,242.227 C90.882,240.486 90.812,240.101 91.993,236.52 C93.276,232.633 92.372,223.321 89.944,215.429 C89.425,213.74 89,211.377 89,210.179 C89,208.521 88.402,208 86.5,208 C85.125,208 84,208.367 84,208.816 C84,209.828 74.105,214 71.706,214 C70.74,214 69.523,215.125 69,216.5 C67.938,219.292 65.378,219.728 62.481,217.61 C59.513,215.44 61.75,212.057 68.837,207.997 C82.93,199.925 84,199.11 84,196.45 C84,195.049 83.1,192.041 82,189.764 C80.9,187.487 80,184.732 80,183.641 C80,182.55 79.364,180.947 78.586,180.079 C77.007,178.315 76.195,171.111 77.363,169.222 C79.188,166.268 85,169.472 85,173.432 C85,174.6 85.621,176.443 86.379,177.527 C89.407,181.859 92,187.165 92,189.03 C92,191.882 94.894,191.437 98.962,187.959 C100.866,186.332 102.934,185 103.557,185 C104.18,185 105.481,184.126 106.449,183.057 C107.416,181.988 109.503,180.829 111.085,180.481 C114.672,179.694 116.234,174.826 115.797,165.798 C115.458,158.797 114.162,157.648 110.871,161.434 C107.168,165.692 103.912,164.559 102.428,158.494 C102.025,156.847 100.864,154.427 99.848,153.115 C98.831,151.803 98,149.918 98,148.924 C98,147.931 97.55,146.84 97,146.5 C96.45,146.16 96,144.853 96,143.595 C96,140.878 93.565,135.714 91.461,133.967 C89.182,132.077 86.69,126.2 86.783,122.937 C86.888,119.246 87.667,118 89.87,118 C91.769,118 96,121.478 96,123.039 C96,123.568 96.638,124 97.417,124 C98.197,124 99.57,122.075 100.469,119.721 C101.593,116.776 103.025,115.034 105.063,114.132 C106.692,113.411 109.763,111.399 111.888,109.661 C114.013,107.922 116.507,106.05 117.431,105.5 C118.355,104.95 119.498,102.925 119.971,101 C120.444,99.075 121.784,94.189 122.949,90.143 C124.114,86.096 124.796,81.933 124.466,80.893 C122.308,74.095 113,86.084 113,95.66 C113,101.441 109.503,105.393 105.271,104.395 C100.716,103.321 100.338,102.312 102.771,97.718 C105.156,93.216 105.704,89 103.904,89 C103.302,89 101.467,89.787 99.827,90.75 C96.869,92.485 96.824,92.477 94.424,89.697 C92.145,87.057 92.092,86.723 93.512,83.976 C95.154,80.801 97.785,79 100.779,79 C103.903,79 106.353,75.527 105.513,72.29 C103.947,66.255 103.168,56.555 104.107,54.8 C106.297,50.708 111.169,53.653 111.57,59.31 C111.936,64.483 114.598,70.473 116.651,70.744 C120.488,71.25 129.423,60.532 128.437,56.605 C128.063,55.114 128.481,53.195 129.53,51.594 Z M154.5,15.523 C158.963,11.676 161.915,11.14 164.267,13.75 C167.333,17.152 167.344,20.306 164.3,23.102 C160.705,26.403 153.347,30.525 149.5,31.394 C146.828,31.997 139.032,34.739 133.5,37.02 C132.4,37.473 130.15,38.139 128.5,38.499 C126.85,38.86 124.15,39.753 122.5,40.486 C120.85,41.218 118.375,42.057 117,42.35 C111.522,43.515 105.268,45.365 100.815,47.136 C98.238,48.161 94.413,49.032 92.315,49.07 C89.332,49.125 87.491,49.1 86.341,49.978 C84.414,51.449 84.419,55.452 84.229,66.601 C84.08,75.345 83.746,84.3 83.487,86.5 C83.228,88.7 82.852,92.612 82.651,95.194 C82.281,99.957 79.017,111.797 76.423,117.784 C75.64,119.59 75,122.302 75,123.811 C75,125.32 74.299,127.556 73.442,128.779 C72.585,130.003 72.121,131.387 72.411,131.856 C72.701,132.325 71.377,136.41 69.469,140.933 C67.561,145.457 66,150.049 66,151.137 C66,152.225 64.978,155.002 63.728,157.308 C62.479,159.613 60.632,163.975 59.623,167 C57.889,172.203 56.749,174.853 50.583,188.014 C49.163,191.047 48,194.445 48,195.564 C48,196.684 47.49,198.11 46.866,198.734 C46.242,199.358 44.43,203.107 42.84,207.066 C41.249,211.025 39.024,215.562 37.895,217.147 C36.767,218.732 36.043,220.585 36.286,221.265 C36.53,221.944 36.241,223.4 35.645,224.5 C33.907,227.702 32.031,233.339 32.015,235.406 C32.007,236.454 30.762,238.903 29.25,240.848 C27.737,242.793 25.823,245.76 24.995,247.442 C23.357,250.769 19.837,251.94 17.445,249.954 C15.783,248.575 15.51,244.421 17.021,243.487 C18.69,242.456 23.98,232.657 23.991,230.579 C23.996,229.522 24.601,227.947 25.335,227.079 C26.07,226.21 27.25,223.925 27.958,222 C28.667,220.075 30.541,215.716 32.123,212.313 C33.705,208.91 35,205.848 35,205.508 C35,205.168 35.867,202.987 36.927,200.66 C37.987,198.334 39.162,195.204 39.538,193.706 C39.914,192.207 40.622,190.734 41.111,190.432 C41.6,190.129 42,189.212 42,188.393 C42,187.574 42.9,185.041 44,182.764 C45.1,180.487 46,178.025 46,177.292 C46,176.56 47.051,174.282 48.337,172.23 C49.622,170.179 51.496,166.25 52.502,163.5 C53.508,160.75 54.706,158.072 55.165,157.55 C55.624,157.028 56,155.592 56,154.359 C56,153.126 56.45,151.84 57,151.5 C57.55,151.16 58,149.81 58,148.5 C58,147.19 58.45,145.84 59,145.5 C59.55,145.16 60,143.884 60,142.663 C60,141.443 60.59,139.557 61.31,138.473 C62.031,137.388 63.114,134.7 63.718,132.5 C64.321,130.3 65.531,125.985 66.407,122.912 C67.283,119.839 68,116.365 68,115.193 C68,114.02 68.856,111.537 69.902,109.674 C73.154,103.885 78.15,55.479 75.876,51.799 C75.234,50.761 74.423,50.835 71.788,52.169 C69.98,53.085 66.025,54.105 63,54.436 C59.975,54.767 56.143,55.289 54.485,55.598 C51.553,56.143 51.467,56.048 51.365,52.158 C51.264,48.272 51.403,48.099 56.264,46.079 C59.015,44.936 62.355,44 63.686,44 C65.017,44 69.119,43.364 72.803,42.587 C76.486,41.81 85.8,39.941 93.5,38.434 C101.2,36.926 108.388,35.087 109.473,34.347 C110.557,33.606 112.357,32.98 113.473,32.956 C114.588,32.932 117.3,32.215 119.5,31.362 C121.7,30.51 126.587,28.745 130.361,27.44 C134.135,26.135 138.635,23.996 140.361,22.685 C142.087,21.374 145.075,20.003 147,19.637 C148.925,19.271 152.3,17.42 154.5,15.523 Z M151.5,171.318 C148.2,172.451 142.273,174.868 138.328,176.689 C134.384,178.51 130.732,180 130.213,180 C126.316,180 119.913,189.985 122.111,192.634 C122.957,193.653 122.867,194.553 121.749,196.26 C119.336,199.943 118.579,204.901 120.327,205.572 C123.647,206.846 140,193.284 140,189.256 C140,188.15 140.675,186.685 141.5,186 C142.325,185.315 143,184 143,183.078 C143,180.786 144.971,179 147.5,179 C150.225,179 152,180.83 152,183.64 C152,184.872 153.35,188.482 155,191.663 C156.65,194.843 158,198.443 158,199.663 C158,200.884 158.45,202.16 159,202.5 C159.55,202.84 160,204.19 160,205.5 C160,206.81 160.5,208.191 161.11,208.568 C161.758,208.969 161.994,210.65 161.676,212.609 C160.762,218.244 164.915,218.299 166.991,212.678 C167.637,210.93 168.558,208.825 169.039,208 C170.854,204.886 175,195.72 175,194.823 C175,194.309 176.271,191.326 177.825,188.194 C183.728,176.297 182.747,172.257 173.49,170.333 C165.178,168.605 158.532,168.902 151.5,171.318 Z M108.872,122.962 C101.476,127.86 100.685,129.115 101.973,133.901 C103.254,138.656 105.982,139.563 106.032,135.25 C106.072,131.799 107.633,129.723 112.039,127.262 C114.444,125.918 115.5,124.617 115.5,122.997 C115.5,119.601 113.957,119.593 108.872,122.962 Z M131.559,110.504 C130.491,111.327 128.873,112 127.964,112 C125.838,112 122.603,115.548 123.461,116.937 C124.352,118.378 127.32,118.28 128.841,116.759 C129.524,116.076 132.652,115.288 135.791,115.009 C141.078,114.538 141.5,114.315 141.5,112 C141.5,109.791 141.035,109.471 137.5,109.254 C135.136,109.109 132.706,109.62 131.559,110.504 Z M113.028,138.467 C112.328,139.31 110.74,140 109.5,140 C105.75,140 104.677,142.272 106.727,145.873 C108.88,149.655 111.789,149.917 114.897,146.609 C116.494,144.909 117.05,143.271 116.822,140.936 C116.457,137.215 114.905,136.204 113.028,138.467 Z M130.5,128.989 C127.685,130.842 125.422,136.256 126.639,138.225 C127.539,139.682 131.062,139.003 131.702,137.25 C132.053,136.287 133.402,134.212 134.7,132.638 C136.54,130.407 136.805,129.47 135.907,128.388 C134.418,126.594 134.079,126.632 130.5,128.989 Z"/>
</svg>

