<svg xmlns="http://www.w3.org/2000/svg" width="300" height="300" viewBox="0 0 300 300" version="1.1">
  <defs/>
  <path d="M160.5,166.668 C167.362,165.173 176.163,168.67 178.053,173.641 C179.089,176.364 178.457,183.046 176.791,187 C174.956,191.352 171.748,197.445 170.472,199 C169.795,199.825 168.472,202.075 167.531,204 C165.881,207.376 155.366,217.997 153.671,217.999 C153.215,217.999 150.778,220.065 148.254,222.588 C143.273,227.569 143.548,228.954 149.52,228.985 C151.181,228.993 155.906,229.945 160.02,231.1 C168.782,233.56 180.185,233.185 185.11,230.276 C189.12,227.907 191.404,229.419 191.8,234.704 C192.058,238.138 191.704,238.97 189.3,240.585 C183.089,244.756 181.974,245.071 177.626,243.882 C175.357,243.262 170.22,242.591 166.212,242.392 C162.203,242.192 158.029,241.551 156.937,240.966 C155.845,240.382 152.741,240.004 150.04,240.127 C147.339,240.251 144.528,239.853 143.794,239.244 C142.862,238.471 140.357,238.411 135.48,239.046 C131.641,239.546 126.025,240.252 123,240.614 C119.975,240.977 116.67,241.701 115.656,242.223 C114.257,242.942 113.231,242.626 111.406,240.911 C110.083,239.668 109,237.91 109,237.003 C109,234.828 116.088,230.256 120.779,229.405 C130.908,227.57 157.4,204.547 163.391,192.374 C164.981,189.143 166.668,185.719 167.141,184.764 C168.417,182.184 168.181,178.017 166.75,177.885 C162.817,177.522 152.251,180.499 145.298,183.928 C142.987,185.067 140.478,186 139.723,186 C138.967,186 137.262,187.156 135.934,188.57 C133.916,190.718 132.789,191.087 129.06,190.82 C125.114,190.537 124.537,190.763 124.05,192.785 C123.748,194.041 122.394,195.62 121.043,196.293 C119.368,197.127 118.329,198.755 117.777,201.411 C117.048,204.918 117.366,205.94 120.976,211.698 C125.943,219.619 126.661,222.197 124.501,224.356 C123.597,225.26 122.456,226 121.965,226 C120.573,226 104.831,206.089 101.494,200.107 C100.37,198.091 97.782,195.626 95.605,194.496 C89.77,191.468 88.158,184.037 93.003,182.499 C95.316,181.765 98.287,183.685 105.328,190.466 C107.983,193.023 110.68,194.94 111.322,194.726 C111.963,194.512 113.304,192.799 114.3,190.919 C116.159,187.413 121.442,183.039 128.094,179.5 C140.961,172.654 144.396,171.114 149.173,170.046 C152.103,169.392 155.4,168.462 156.5,167.98 C157.6,167.498 159.4,166.907 160.5,166.668 Z M129.537,40.939 C130.367,39.598 135.377,39.777 136.8,41.2 C137.46,41.86 138,43.194 138,44.165 C138,45.135 139.049,47.858 140.33,50.215 C141.612,52.572 143.219,57.2 143.901,60.5 C144.583,63.8 145.593,68.239 146.145,70.365 C146.697,72.491 147.135,79.241 147.119,85.365 C147.072,102.338 148.184,104.334 152.962,95.852 C155.91,90.618 158.919,87.451 164.5,83.71 C166.7,82.236 170.238,79.424 172.362,77.463 C176.836,73.332 178.711,73.341 181.144,77.506 C182.746,80.25 182.764,80.776 181.357,83.682 C180.503,85.446 178.3,87.579 176.403,88.479 C174.524,89.371 170.554,92.553 167.58,95.55 C164.607,98.548 161.717,101 161.16,101 C160.602,101 158.781,102.656 157.113,104.679 C154.358,108.022 153.852,108.254 151.576,107.217 C148.27,105.71 147.771,106.653 147.519,114.88 C147.408,118.521 146.781,125.1 146.127,129.5 C145.472,133.9 144.697,141.954 144.403,147.398 C143.846,157.734 143.06,159.768 138.207,163.429 C135.875,165.187 135.74,165.184 133.89,163.335 C132.183,161.627 132.1,160.901 133.107,156.463 C133.726,153.733 134.447,148.575 134.708,145 C134.97,141.425 135.578,138.022 136.058,137.438 C138.377,134.622 139.291,85.063 137.179,76.743 C136.586,74.409 135.348,68.462 134.427,63.526 C133.506,58.591 132.187,53.641 131.495,52.526 C130.022,50.155 128.695,42.302 129.537,40.939 Z"/>
</svg>

