<svg xmlns="http://www.w3.org/2000/svg" width="300" height="300" viewBox="0 0 300 300" version="1.1">
  <defs/>
  <path d="M153,109.701 C157.282,108.967 158.26,108.989 167.295,110.024 C173.703,110.758 177.158,111.706 180.025,113.516 C182.189,114.882 184.331,116 184.784,116 C186.436,116 191.865,122.616 193.811,127 C198.613,137.816 199.172,140.405 198.691,149.599 C198.226,158.483 197.069,163.221 195.062,164.462 C194.478,164.823 194,166.106 194,167.313 C194,170.288 189.33,182.978 187.485,185.016 C186.668,185.919 186,187.608 186,188.77 C186,189.931 185.55,191.16 185,191.5 C184.45,191.84 183.998,192.879 183.996,193.809 C183.989,196.519 179.397,204.818 175.547,209.08 C173.596,211.239 172,213.521 172,214.15 C172,214.779 170.425,217.216 168.5,219.565 C166.575,221.915 165,224.132 165,224.493 C165,226.043 150.768,240.661 147.78,242.181 C145.976,243.098 141.204,244.05 137.174,244.296 C130.57,244.7 129.572,244.51 127.03,242.372 C124.224,240.01 121.524,239.322 120.669,240.75 C120.422,241.162 119.924,250.24 119.563,260.923 C119.201,271.605 118.594,280.83 118.214,281.423 C117.834,282.015 117.495,283.85 117.461,285.5 C117.427,287.15 117.31,291.087 117.2,294.25 L117,300 L112.625,300 C108.532,300 108.21,299.8 107.629,296.897 C107.288,295.191 107.284,293.349 107.62,292.805 C107.957,292.261 108.37,288.37 108.539,284.158 C109.114,269.855 110.863,244.507 111.38,243 C111.663,242.175 112.151,235.2 112.463,227.5 C112.776,219.8 113.231,209.474 113.474,204.552 C113.751,198.96 113.511,195.116 112.836,194.302 C111.421,192.597 108.543,192.641 107.092,194.39 C106.457,195.154 103.14,196.765 99.719,197.97 C96.299,199.175 92.719,200.575 91.764,201.08 C90.809,201.586 89.362,202 88.549,202 C87.736,202 85.056,203.125 82.593,204.5 C79.532,206.209 76.578,207 73.258,207 C67.35,207 65.991,208.172 66.717,212.641 C67.114,215.089 66.767,216.601 65.48,218.023 C61.913,221.963 57,219.384 57,213.571 C57,211.759 55.426,207.264 53.492,203.555 C51.563,199.854 49.488,194.854 48.881,192.443 C48.274,190.033 47.153,187.542 46.389,186.908 C45.625,186.274 45,184.771 45,183.569 C45,182.366 44.339,180.509 43.532,179.441 C42.724,178.374 42.049,176.749 42.032,175.831 C42.014,174.913 41.363,172.888 40.584,171.331 C39.806,169.774 38.69,167.262 38.106,165.75 C37.473,164.112 36.288,163 35.176,163 C34.15,163 32.473,162.075 31.449,160.944 C29.907,159.24 29.798,158.554 30.809,156.934 C31.815,155.324 31.674,154.282 30.015,151.029 C27.672,146.437 27.373,141.178 29.41,140.396 C31.698,139.518 36.984,142.858 39.169,146.562 C41.41,150.36 42.494,150.657 46.669,148.616 C48.226,147.855 54.675,145.988 61,144.466 C67.325,142.944 74.918,140.642 77.874,139.349 C80.83,138.057 83.857,137 84.6,137 C85.344,137 87.425,136.102 89.226,135.004 C91.027,133.906 93.191,133.006 94.035,133.004 C95.819,132.999 112.551,126.31 115.5,124.422 C116.6,123.718 121.1,121.728 125.5,120 C129.9,118.272 134.4,116.298 135.5,115.614 C137.745,114.217 149.167,110.358 153,109.701 Z M149,120.002 C148.175,120.483 144.575,121.937 141,123.232 C135.03,125.394 134.475,125.843 134.19,128.744 C133.987,130.82 133.215,132.114 131.939,132.519 C130.871,132.858 129.477,134.117 128.84,135.318 C128.204,136.518 126.854,138.088 125.841,138.807 C124.829,139.525 124,140.74 124,141.507 C124,142.273 121.975,144.593 119.5,146.662 C117.025,148.731 115,150.765 115,151.183 C115,151.6 113.562,153.982 111.804,156.475 C109.615,159.581 108.933,161.333 109.637,162.037 C111.05,163.45 113.697,162.268 114.302,159.955 C114.888,157.712 119.808,155.148 120.822,156.557 C123.098,159.722 124.884,160.182 127.927,158.384 C130.898,156.629 130.987,156.639 133.52,159.019 C136.999,162.287 136.632,166.946 132.75,168.798 C129.807,170.201 128.996,173 131.532,173 C132.375,173 134.688,172.321 136.673,171.492 C138.658,170.663 142.619,169.71 145.475,169.374 C150.294,168.808 150.825,168.962 152.834,171.517 C155.591,175.021 155.555,176.13 152.594,178.911 C150.609,180.776 149.825,180.976 148.105,180.056 C146.504,179.199 145.496,179.271 143.76,180.364 C142.517,181.147 138.936,182.09 135.802,182.46 C129.459,183.207 125.555,185.654 124.593,189.484 C124.246,190.868 123.633,192 123.231,192 C122.829,192 122.648,195.487 122.83,199.75 C123.22,208.931 123.178,211.263 122.454,220.5 L121.906,227.5 L125.741,231.644 C130.229,236.495 136.002,238.625 139.462,236.708 C142.073,235.261 162,213.906 162,212.555 C162,212.035 163.063,210.46 164.362,209.055 C166.77,206.451 174,193.573 174,191.888 C174,191.378 175.125,189.178 176.5,187 C177.875,184.822 179,182.354 179,181.515 C179,180.676 180.125,177.658 181.5,174.808 C182.875,171.958 184,168.611 184,167.372 C184,166.132 184.4,164.871 184.89,164.568 C187.423,163.002 188.217,142.967 186.09,134.27 C184.761,128.841 181.177,124.694 175.091,121.547 C171.769,119.829 151.365,118.621 149,120.002 Z M86.504,145.737 C85.407,146.014 83.434,147.087 82.12,148.121 C80.805,149.154 78.243,150 76.425,150 C74.607,150 70.518,151.35 67.337,153 C62.927,155.288 60.226,156 55.952,156 C51.26,156 49.965,156.409 47.988,158.513 C46.166,160.452 45.898,161.298 46.813,162.213 C47.466,162.866 48,164.441 48,165.714 C48,166.986 48.444,168.809 48.986,169.764 C50.88,173.098 55,183.26 55,184.598 C55,185.339 56.145,187.871 57.544,190.223 C58.943,192.575 60.34,195.268 60.649,196.206 C61.13,197.668 62.349,197.859 69.151,197.541 C73.518,197.336 77.633,196.741 78.296,196.218 C78.958,195.694 82.65,194.233 86.5,192.97 C93.66,190.622 109.47,182.899 111.791,180.616 C113.563,178.873 111.691,173.984 109.275,174.044 C106.131,174.122 98.045,176.555 96.804,177.796 C94.798,179.802 92.249,179.159 90.068,176.096 C88.931,174.498 88,172.667 88,172.026 C88,170.283 93.243,163.12 98.423,157.786 C100.94,155.194 103,152.657 103,152.15 C103,151.642 101.036,150.933 98.636,150.573 C95.906,150.163 93.407,148.998 91.962,147.459 C90.691,146.107 89.392,145.052 89.076,145.116 C88.759,145.18 87.602,145.459 86.504,145.737 Z M116.185,33.665 C119.198,32.418 121.226,33.581 122.493,37.283 C123.633,40.615 123.561,41.532 121.893,44.984 C119.811,49.294 119.462,52 120.989,52 C124.151,52 137.967,47.388 141.186,45.258 C144.304,43.195 145.256,42.968 146.493,43.994 C148.388,45.567 148.396,47.333 146.524,50.953 C144.301,55.253 138.791,58.088 128.739,60.105 C123.755,61.104 119.249,62.351 118.726,62.874 C118.202,63.398 117.54,65.901 117.254,68.436 C116.969,70.971 116.344,73.287 115.867,73.582 C115.39,73.877 115,74.922 115,75.905 C115,76.888 114.282,79.133 113.403,80.893 C112.516,82.671 112.068,85.133 112.394,86.432 C112.753,87.863 112.427,89.231 111.555,89.955 C110.77,90.606 109.817,92.57 109.437,94.319 C109.056,96.069 108.127,98.388 107.372,99.473 C106.618,100.557 106,102.155 106,103.023 C106,103.89 105.447,105.153 104.77,105.83 C104.094,106.506 102.857,108.805 102.02,110.939 C100.292,115.349 92.338,124.327 90.93,123.457 C89.258,122.423 89.951,119.212 92.5,116.182 C93.875,114.548 95,112.463 95,111.548 C95,110.633 96.125,107.87 97.5,105.407 C98.875,102.944 100,100.039 100,98.951 C100,97.863 100.405,96.191 100.9,95.236 C101.396,94.281 102.579,90.8 103.53,87.5 C104.481,84.2 105.61,80.556 106.038,79.403 C106.467,78.249 107.136,74.762 107.524,71.653 L108.23,66 L104.936,66 C101.39,66 98.277,66.853 87.751,70.706 C82.724,72.545 80.003,73.007 77.09,72.515 C72.708,71.775 69.65,69.057 70.168,66.364 C70.539,64.441 72.488,63.82 85.5,61.473 C89.9,60.68 94.85,59.409 96.5,58.649 C98.15,57.889 102.2,56.623 105.5,55.837 L111.5,54.408 L112.058,46.954 C112.652,39.025 114.041,34.553 116.185,33.665 Z M116.5,132.19 C115.4,132.812 113.228,134.373 111.673,135.66 C110.119,136.947 108.067,138 107.114,138 C106.162,138 104.526,138.626 103.479,139.392 C101.862,140.574 101.776,141.025 102.91,142.392 C105.341,145.32 110.218,144.393 114.179,140.25 C117.438,136.841 120,133.018 120,131.566 C120,130.708 118.72,130.936 116.5,132.19 Z"/>
</svg>

