<svg xmlns="http://www.w3.org/2000/svg" width="300" height="300" viewBox="0 0 300 300" version="1.1">
  <defs/>
  <path d="M136.145,164.581 C137.079,162.531 137.967,161.972 139.932,162.201 C141.907,162.431 143.116,163.723 145.17,167.799 C146.639,170.713 148.155,174.988 148.539,177.299 C148.922,179.609 149.858,182.715 150.618,184.2 C151.482,185.889 152.003,190.199 152.009,195.7 C152.013,200.54 152.47,209.62 153.024,215.879 C153.628,222.696 153.668,227.707 153.125,228.379 C152.627,228.995 152.301,233.55 152.401,238.5 C152.578,247.26 152.108,253.005 149.866,269.5 C149.267,273.9 148.715,279.3 148.639,281.5 C148.563,283.7 148.214,285.95 147.865,286.5 C147.516,287.05 146.926,289.3 146.553,291.5 C146.181,293.7 145.044,296.512 144.028,297.75 C142.262,299.9 141.516,300 127.312,300 C116.471,300 111.911,299.634 110.473,298.65 C109.388,297.907 106.842,297.04 104.815,296.723 C102.789,296.406 97.927,294.539 94.01,292.573 C90.094,290.608 86.478,289 85.974,289 C84.612,289 70.153,280.302 66.59,277.339 C62.942,274.305 56,266.158 56,264.91 C56,263.391 60.725,262.782 63.013,264.007 C64.223,264.654 69.552,268.477 74.856,272.503 C81.126,277.261 86.288,280.344 89.611,281.316 C92.423,282.137 95.573,283.256 96.611,283.802 C97.65,284.348 100.525,285.557 103,286.489 C105.475,287.422 108.85,288.787 110.5,289.523 C112.15,290.26 114.625,291.18 116,291.568 C117.375,291.956 121.324,293.562 124.775,295.137 C128.226,296.712 131.458,298 131.957,298 C133.531,298 136.723,292.642 137.319,289 C137.634,287.075 138.392,282.8 139.003,279.5 C139.615,276.2 140.853,269.45 141.756,264.5 C144.236,250.902 143.872,193.838 141.279,189.642 C140.928,189.075 140.518,186.155 140.367,183.152 C140.217,180.15 139.622,177.222 139.047,176.647 C138.471,176.071 138,174.488 138,173.129 C138,171.77 137.308,169.893 136.462,168.958 C135.189,167.552 135.135,166.798 136.145,164.581 Z M89,178.706 C100.32,177.459 104.014,178.53 108.448,184.343 C111.432,188.255 111.901,195.043 109.506,199.636 C107.465,203.55 107.623,205.746 110.001,206.5 C111.102,206.85 112.512,208.089 113.136,209.254 C114.111,211.077 113.867,211.709 111.385,213.774 C108.272,216.365 99.265,220.974 97.285,220.99 C96.617,220.996 95.573,221.93 94.965,223.066 C94.357,224.202 91.953,225.949 89.622,226.948 C87.291,227.947 84.597,229.967 83.633,231.437 C82.128,233.735 81.299,234.067 77.716,233.805 C74.051,233.537 73.291,233.036 71.393,229.643 C69.946,227.055 67.848,225.164 65.016,223.896 C62.696,222.857 59.458,220.88 57.822,219.503 C56.185,218.127 53.737,217 52.381,217 C51.024,217 47.478,215.2 44.5,213 C41.522,210.8 38.083,209 36.857,209 C34.213,209 30,205.33 30,203.026 C30,200.708 32.016,199 34.752,199 C37.866,199 52.77,206.458 56.238,209.751 C58.688,212.078 59.23,212.215 61.393,211.058 C63.962,209.682 66,210.28 66,212.409 C66,214.934 71.97,222 74.103,222 C76.812,222 93,211.461 93,209.697 C93,208.955 94.125,207.292 95.5,206 C96.875,204.708 98,202.916 98,202.017 C98,201.118 98.661,199.509 99.468,198.441 C101.432,195.844 101.412,189.587 99.434,187.946 C98.136,186.868 97.368,186.942 94.932,188.381 C93.317,189.335 91.585,189.862 91.083,189.551 C89.52,188.586 76.94,195.783 71.821,200.571 C65.989,206.026 62.678,206.32 62.2,201.426 C61.946,198.83 62.947,197.22 68.638,191.074 C75.662,183.487 82.323,179.441 89,178.706 Z M87.5,70.566 C90.821,68.966 94.368,68.131 98.063,68.079 C102.906,68.01 103.973,68.363 106.313,70.805 C108.439,73.024 109,74.577 109,78.246 C109,80.796 108.611,83.123 108.135,83.417 C107.248,83.965 106.354,88.718 105.498,97.428 C105.038,102.106 102.089,107 99.729,107 C99.222,107 95.889,109.562 92.322,112.694 C85.025,119.1 83.569,119.09 81.103,112.612 C79.805,109.2 79.858,108.781 81.853,106.656 C83.034,105.399 84,103.886 84,103.293 C84,102.699 84.63,101.972 85.4,101.677 C86.169,101.382 88.871,98.237 91.402,94.689 C94.627,90.17 96.195,86.855 96.639,83.619 L97.272,79 L93.291,79 C90.649,79 88.731,79.639 87.59,80.901 C86.643,81.947 84.324,83.092 82.435,83.446 C80.364,83.835 79,84.677 79,85.567 C79,86.379 77.826,87.578 76.39,88.232 C74.14,89.257 73.581,89.151 72.328,87.46 C70.114,84.471 71.451,79.965 75.655,76.25 C77.678,74.463 80.046,72.994 80.917,72.987 C81.787,72.98 84.75,71.891 87.5,70.566 Z M127.189,43.272 C127.814,42.519 129.228,42.038 130.332,42.202 C133.572,42.683 138,52.535 138,59.262 C138,61.253 138.45,63.16 139,63.5 C139.55,63.84 140,65.801 140,67.859 C140,69.917 140.528,72.128 141.173,72.773 C142.841,74.441 142.629,105.537 140.936,107.577 C139.973,108.737 139.967,109.632 140.906,111.694 C141.737,113.517 141.807,115.124 141.135,116.914 C140.6,118.336 139.894,120.729 139.567,122.232 C137.942,129.682 123.167,129.722 118.814,122.288 C116.269,117.941 117.686,116.526 122.991,118.116 C127.096,119.345 127.351,119.293 129.517,116.775 C131.437,114.543 131.879,112.509 132.495,103.077 C133.288,90.944 132.303,70.305 130.89,69.432 C130.401,69.13 130,67.079 130,64.875 C130,62.672 129.571,60.067 129.046,59.087 C127.243,55.716 125.956,44.758 127.189,43.272 Z M151.299,122.5 C152.217,120.575 153.646,119 154.474,119 C155.786,119 162.908,127.465 162.975,129.104 C162.989,129.436 159.063,131.641 154.25,134.004 C145.349,138.375 144.179,138.878 138,141 C136.075,141.661 133.6,142.606 132.5,143.1 C127.731,145.242 119.393,147.657 118.192,147.244 C117.473,146.997 116.123,147.459 115.192,148.271 C114.261,149.082 111.7,150.056 109.5,150.434 C105.484,151.124 100.226,152.594 96.5,154.069 C95.4,154.504 92.086,155.44 89.136,156.149 C83.971,157.389 83.702,157.35 81.886,155.107 C79.318,151.936 79.512,150.559 82.75,148.979 C87.194,146.809 92.366,145.031 94.28,145.015 C95.259,145.007 98.742,143.871 102.02,142.492 C105.298,141.112 110.347,139.485 113.24,138.875 C116.133,138.265 118.95,137.429 119.5,137.017 C120.05,136.605 121.625,136.017 123,135.71 C128.05,134.581 139.547,129.972 142.194,128.015 C143.693,126.907 145.979,126 147.274,126 C148.981,126 150.089,125.037 151.299,122.5 Z M139.166,10.514 C142.789,7.465 142.801,7.464 145.686,10.174 C148.38,12.706 148.593,14.708 146.487,17.716 C144.716,20.244 136.476,26 134.628,26 C133.929,26 131.589,27.337 129.428,28.972 C126.557,31.144 124.378,31.952 121.333,31.972 C119.041,31.987 115.135,32.871 112.653,33.935 C109.933,35.1 104.393,36.144 98.711,36.561 L89.282,37.253 L88.713,34.377 C88.376,32.675 88.661,30.968 89.41,30.197 C90.881,28.684 101.039,26.088 105.691,26.036 C107.446,26.016 109.144,25.576 109.464,25.058 C109.785,24.54 112.174,23.806 114.773,23.428 C117.705,23.001 121.209,21.502 124,19.479 C126.475,17.686 130.228,15.501 132.339,14.623 C134.451,13.745 137.523,11.896 139.166,10.514 Z M48.667,85.667 C53.037,81.297 77,102.65 77,110.914 C77,112.931 75.114,115 73.276,115 C72.547,115 68.633,111.737 64.578,107.75 C60.523,103.763 55.134,98.747 52.603,96.604 C48.91,93.478 48,92.077 48,89.52 C48,87.767 48.3,86.033 48.667,85.667 Z"/>
</svg>

