<svg xmlns="http://www.w3.org/2000/svg" width="300" height="300" viewBox="0 0 300 300" version="1.1">
  <defs/>
  <path d="M136.5,159.939 C139.8,158.951 144.51,158.11 146.966,158.071 C150.986,158.007 151.908,158.47 156.216,162.712 C160.916,167.342 161,167.535 161,173.677 C161,178.765 160.651,180.116 159.127,180.932 C158.053,181.507 156.745,183.975 156.062,186.717 C155.406,189.348 154.188,192.552 153.355,193.837 C152.522,195.122 152.08,196.413 152.372,196.706 C152.665,196.999 152.212,197.931 151.364,198.778 C147.475,202.668 142,210.89 142,212.841 C142,215.621 144.829,215.685 149.226,213.004 C151.027,211.906 153.14,211.006 153.921,211.004 C156.51,210.997 159,214.215 159,217.566 C159,222.862 154.876,225.522 144.306,227.044 C139.463,227.741 134.896,228.78 134.159,229.354 C133.421,229.927 128.621,230.497 123.492,230.619 C118.362,230.741 113.157,231.381 111.924,232.041 C110.691,232.701 106.971,233.407 103.659,233.61 C94.535,234.17 91.504,230.314 96.049,223.931 C97.689,221.628 97.879,220.643 97.003,219.006 C96.401,217.88 96.148,216.57 96.442,216.094 C97.161,214.93 95.038,209 93.902,209 C93.406,209 93,208.127 93,207.059 C93,205.991 92.55,204.84 92,204.5 C91.45,204.16 91,202.81 91,201.5 C91,200.19 90.55,198.84 90,198.5 C89.45,198.16 89,197.022 89,195.971 C89,194.125 85.758,187.493 83.906,185.55 C83.408,185.027 83,183.635 83,182.455 C83,181.275 82.1,179.495 81,178.5 C78.693,176.412 78.391,172.215 80.355,169.529 C82.069,167.186 84.248,167.993 86.087,171.653 C90.25,179.933 96,185.845 96,181.844 C96,180.158 100.904,174 102.247,174 C102.877,174 105.072,172.836 107.125,171.414 C110.765,168.891 124.439,163.549 136.5,159.939 Z M130.911,40.845 C134.535,39.385 137.915,38.147 138.421,38.095 C140.466,37.884 143,41.46 143,44.556 C143,47.216 142.358,48.182 139.443,49.901 C137.486,51.056 135.067,52 134.065,52 C133.064,52 131.692,52.666 131.017,53.479 C129.352,55.486 124.149,58 121.662,58 C119.806,58 112.651,60.85 109,63.043 C103.791,66.172 97.549,69 95.852,69 C93.118,69 90,70.801 90,72.38 C90,73.101 90.9,74.505 92,75.5 C93.598,76.946 93.989,78.536 93.946,83.405 C93.897,88.957 93.563,92.499 91.418,110.229 C90.85,114.918 91.006,116.065 92.276,116.552 C93.624,117.07 101.973,113.948 111.404,109.4 C113.001,108.63 114.828,108 115.465,108 C116.102,108 117.495,107.206 118.561,106.236 C119.628,105.265 123.964,102.726 128.198,100.592 C132.432,98.459 136.13,96.103 136.417,95.357 C137.33,92.976 144.363,93.681 147.354,96.452 C148.809,97.801 150,99.343 150,99.879 C150,101.375 142.815,106.989 140,107.692 C138.625,108.036 136.131,109.353 134.457,110.619 C132.468,112.124 130.65,112.721 129.205,112.343 C127.736,111.959 125.908,112.593 123.748,114.235 C119.326,117.596 114.496,120 112.165,120 C111.101,120 109.534,121.063 108.682,122.362 C107.556,124.082 105.824,124.906 102.317,125.393 C95.231,126.375 85.87,131.787 84.797,135.52 C82.071,145.011 81.105,147.615 77.853,154.236 C77.384,155.191 77,157.064 77,158.397 C77,159.73 75.65,163.673 74.001,167.16 C72.351,170.647 70.998,174.4 70.994,175.5 C70.99,176.6 70.093,178.85 69,180.5 C67.907,182.15 67.016,184.4 67.019,185.5 C67.024,187.486 61.351,205.205 57.835,214.185 C56.826,216.762 56,219.773 56,220.876 C56,221.979 55.592,223.134 55.092,223.443 C54.593,223.751 53.385,226.59 52.407,229.752 C49.59,238.863 45.805,242.743 42.452,239.96 C40.265,238.145 40.724,233.025 43.512,228.148 C44.88,225.754 46,222.792 46,221.565 C46,220.337 46.308,219.025 46.685,218.648 C47.514,217.82 48.637,214.774 55.035,196 C57.753,188.025 59.982,180.683 59.989,179.684 C59.995,178.686 60.547,176.886 61.215,175.684 C62.491,173.392 68.52,156.646 69.922,151.5 C70.372,149.85 71.737,145.8 72.955,142.5 C74.174,139.2 75.696,134.25 76.339,131.5 C76.982,128.75 77.803,126.047 78.163,125.492 C78.523,124.938 79.143,122.688 79.54,120.492 C79.936,118.297 80.578,116.05 80.966,115.5 C82.121,113.862 84.091,96.262 84.364,85.145 C84.647,73.612 84.005,72.436 79.266,75.811 C77.723,76.91 74.219,78.125 71.48,78.513 C68.741,78.9 65.6,79.776 64.5,80.459 C63.4,81.142 60.025,82.269 57,82.963 C53.975,83.657 50.571,84.577 49.436,85.006 C46.405,86.154 44,84.366 44,80.965 C44,78.391 44.709,77.674 49.75,75.152 C52.913,73.569 57.3,71.974 59.5,71.606 C61.7,71.238 65.075,70.333 67,69.595 C68.925,68.857 73.2,67.229 76.5,65.977 C79.8,64.726 83.175,63.144 84,62.462 C84.825,61.78 87.075,60.888 89,60.48 C90.925,60.071 95.477,58.221 99.117,56.369 C102.756,54.516 106.175,53 106.716,53 C107.257,53 109.679,51.658 112.1,50.018 C114.52,48.378 117.078,47.028 117.785,47.018 C118.492,47.008 120.252,46.212 121.696,45.25 C123.14,44.288 127.287,42.305 130.911,40.845 Z M142.706,169.627 C142.361,169.972 140.374,170.622 138.29,171.072 C129.14,173.048 123.209,174.852 119.29,176.852 C116.974,178.033 114.152,179 113.017,179 C111.883,179 109.003,180.8 106.616,183 C104.229,185.2 101.3,187 100.107,187 C97.433,187 96.383,189.409 97.789,192.317 C98.37,193.518 99.599,196.75 100.52,199.5 C101.442,202.25 103.051,206.23 104.098,208.345 C105.144,210.459 106,213.441 106,214.972 C106,219.197 107.83,220.092 114.956,219.347 C121.144,218.7 121.284,218.616 128.976,210.903 C133.25,206.618 138.266,200.513 140.123,197.337 C149.824,180.748 151.734,176.06 150.612,171.591 C150.076,169.455 149.38,169 146.648,169 C144.825,169 143.051,169.282 142.706,169.627 Z"/>
</svg>

