<svg xmlns="http://www.w3.org/2000/svg" width="300" height="300" viewBox="0 0 300 300" version="1.1">
  <defs/>
  <path d="M140.5,75.563 C144.9,74.819 148.635,74.163 148.8,74.105 C148.964,74.047 150.364,74.654 151.909,75.453 C155.005,77.054 157.547,81.999 156.685,84.743 C154.381,92.072 152.293,96.069 148.678,100.073 C141.339,108.199 138,112.291 138,113.157 C138,113.621 137.148,114 136.107,114 C133.917,114 132.817,116.086 133.999,117.999 C134.658,119.065 135.546,118.978 138.657,117.542 C140.771,116.566 143.269,114.807 144.208,113.634 C145.584,111.914 146.264,111.715 147.708,112.609 C149.026,113.425 149.5,114.982 149.5,118.496 L149.5,123.274 L142.155,127.052 C138.116,129.129 133.812,131.768 132.591,132.915 C131.37,134.062 129.212,135 127.796,135 C123.967,135 121.477,137.812 119.507,144.362 C117.683,150.424 118.142,151.942 121.809,151.985 C122.989,151.998 129.211,156.41 132.885,159.838 C133.674,160.574 136.16,162.317 138.41,163.711 C147.533,169.364 166.781,182.476 171,185.911 C173.475,187.927 178.65,191.763 182.5,194.437 C186.35,197.11 190.85,200.527 192.5,202.029 C194.15,203.532 197.147,205.827 199.16,207.13 C201.173,208.434 207.571,213.662 213.378,218.75 C219.184,223.837 224.753,228 225.752,228 C226.751,228 228.351,229.324 229.306,230.941 C230.262,232.559 233.491,235.974 236.482,238.529 C239.474,241.085 242.204,244.068 242.551,245.159 C243.315,247.569 240.512,251 237.778,251 C235.418,251 229.944,246.912 224.565,241.133 C222.329,238.731 219.638,236.031 218.585,235.133 C215.282,232.316 205.877,223.68 201.286,219.25 C198.864,216.912 196.251,215 195.479,215 C194.707,215 191.302,212.525 187.912,209.5 C184.521,206.475 181.286,204 180.722,204 C179.457,204 172.227,198.779 166.527,193.75 C164.189,191.688 162.003,190 161.668,190 C160.523,190 145.506,179.577 141,175.656 C138.525,173.501 135.336,171.235 133.914,170.619 C130.791,169.267 122.841,163.548 118.735,159.701 C114.986,156.188 112.421,156.503 112.709,160.442 C112.824,162.017 112.037,164.544 110.959,166.057 C109.882,167.571 109,169.438 109,170.208 C109,170.978 107.936,173.833 106.635,176.554 C103.158,183.824 101.391,188.014 99.908,192.5 C99.181,194.7 98.004,197.21 97.293,198.079 C96.582,198.947 96,200.305 96,201.097 C96,201.889 94.224,204.686 92.053,207.313 C89.883,209.94 87.813,213.015 87.453,214.148 C86.287,217.822 75.108,232.735 72.317,234.34 C71.374,234.882 70.181,234.569 68.954,233.458 C65.62,230.441 65.601,228.219 68.878,224.487 C70.545,222.588 74.508,217.089 77.684,212.267 C85.057,201.074 85.248,200.748 88.987,193 C90.712,189.425 92.996,184.77 94.062,182.655 C95.128,180.541 96,178.101 96,177.234 C96,176.367 96.611,174.947 97.358,174.079 C98.105,173.21 99.951,169.125 101.46,165 C102.969,160.875 104.608,156.719 105.102,155.764 C105.596,154.809 106,152.89 106,151.5 C106,150.11 106.404,148.191 106.897,147.236 C110.635,140.004 111.354,136.869 110.084,133.355 C108.943,130.2 109.017,129.605 110.788,127.666 C114.309,123.811 115.947,119.335 117.415,109.566 C119.122,98.202 118.534,89.793 115.863,87.376 C113.488,85.227 113.421,80.368 115.75,79.17 C116.713,78.675 120.875,77.965 125,77.593 C129.125,77.22 136.1,76.307 140.5,75.563 Z M41.189,129.052 C43.119,125.937 46.172,126.889 48.495,131.331 C51.411,136.904 53.559,137.779 56.841,134.73 C61.178,130.699 64.195,129.268 69.813,128.572 C74.226,128.026 75.708,128.274 78.564,130.039 C80.454,131.208 82.676,133.127 83.501,134.305 C85.432,137.061 85.468,146.864 83.563,151.216 C78.372,163.076 76.7,166.174 75.196,166.722 C74.263,167.062 72.427,168.164 71.115,169.17 C69.803,170.177 68.116,171 67.365,171 C66.614,171 65.1,171.9 64,173 C62.9,174.1 61.2,175 60.223,175 C59.245,175 57.441,175.703 56.214,176.562 C54.154,178.006 53.756,177.962 50.992,175.994 C47.455,173.476 47.226,171.453 50.127,168.364 L52.255,166.1 L50.046,159.3 C46.806,149.33 46,146.502 46,145.112 C46,144.427 44.924,142.434 43.61,140.683 C40.486,136.524 39.499,131.78 41.189,129.052 Z M139.5,86.057 C137.3,86.512 133.347,86.911 130.716,86.942 L125.931,87 L126.664,92.25 C127.066,95.138 127.412,100.088 127.431,103.25 C127.451,106.412 127.857,109 128.334,109 C129.8,109 137.574,100.702 139.577,97 C140.618,95.075 142.548,92.289 143.865,90.81 C146.043,88.363 146.302,84.818 144.281,85.115 C143.852,85.178 141.7,85.602 139.5,86.057 Z M66.129,140.976 C59.872,144.507 57.989,146.962 58.118,151.424 C58.301,157.732 59.365,161.447 61.082,161.777 C63.402,162.224 67.763,157.366 71.126,150.587 C75.974,140.816 73.806,136.646 66.129,140.976 Z"/>
</svg>

