<svg xmlns="http://www.w3.org/2000/svg" width="300" height="300" viewBox="0 0 300 300" version="1.1">
  <defs/>
  <path d="M102,60.948 C107.433,59.57 109.508,62.95 108.477,71.5 C108.146,74.25 107.622,78.75 107.314,81.5 C107.007,84.25 106.242,87.175 105.616,88 C103.713,90.507 101,95.741 101,96.904 C101,98.872 103.649,98.061 107.612,94.881 C112.901,90.637 118.614,86.993 124,84.427 C126.475,83.248 129.357,81.32 130.405,80.142 C131.453,78.964 133.379,78 134.686,78 C135.993,78 137.314,77.346 137.621,76.546 C138.264,74.87 144.452,71 146.489,71 C147.245,71 148.853,72.389 150.062,74.087 C152.257,77.17 152.257,77.178 150.297,79.837 C148.592,82.149 131.23,92.836 124,96.025 C122.625,96.631 120.375,98.152 119,99.404 C117.625,100.656 114.925,102.289 113,103.033 C106.159,105.675 97.266,111.062 94.404,114.297 C87.363,122.256 82.885,128.111 80.708,132.204 C77.162,138.875 70.994,147.89 69.032,149.271 C68.072,149.947 66.938,151.625 66.512,153 C66.086,154.375 64.965,156.625 64.021,158 C63.077,159.375 60.683,163.429 58.701,167.009 C56.719,170.59 54.288,174.415 53.298,175.509 C52.309,176.604 50.737,179.152 49.804,181.17 C48.871,183.189 46.444,187.014 44.41,189.67 C42.375,192.327 40.214,195.665 39.606,197.09 C36.272,204.898 22,214.221 22,208.591 C22,207.908 23.1,206.315 24.445,205.052 C25.789,203.789 28.366,199.773 30.17,196.128 C31.975,192.482 35.375,186.737 37.726,183.361 C40.077,179.984 42,176.876 42,176.455 C42,176.034 43.125,174.214 44.5,172.411 C45.875,170.608 47,168.721 47,168.217 C47,167.713 48.256,165.545 49.792,163.4 C51.328,161.255 54.079,156.8 55.906,153.5 C57.734,150.2 60.267,146.113 61.537,144.418 C62.807,142.723 64.789,139.657 65.941,137.604 C67.094,135.552 68.729,132.818 69.573,131.529 C72.654,126.827 70.061,127.402 55.5,134.652 C51.328,136.729 41.111,136.144 39.604,133.741 C38.766,132.406 38.87,131.323 40.036,129.245 C41.389,126.834 42.464,126.382 49.036,125.459 C56.817,124.367 68.209,119.392 77.381,113.082 C82.39,109.636 84.297,107.227 88.927,98.5 C90.678,95.2 92.535,92.072 93.055,91.55 C93.575,91.027 94,89.43 94,88 C94,86.57 94.389,84.973 94.864,84.45 C96.658,82.476 98.283,76.242 98.881,69.041 C99.453,62.151 99.69,61.534 102,60.948 Z M121,173.639 C135.12,171.57 142.079,175.575 143.543,186.613 C144.088,190.718 143.809,192.267 141.938,195.54 C140.692,197.718 139.061,200.694 138.312,202.152 C137.563,203.611 136.353,205.034 135.622,205.315 C133.994,205.94 130.175,213.092 130.68,214.57 C130.917,215.26 133.965,215.489 139.273,215.217 C147.102,214.816 147.617,214.921 149.921,217.394 C152.097,219.73 152.207,220.244 151.011,222.48 C149.224,225.818 147.361,226.28 134.5,226.575 C119.72,226.913 106.471,228.714 101,231.128 L96.5,233.114 L93.75,230.041 C92.066,228.16 91,225.825 91,224.019 C91,222.168 89.883,219.797 88,217.653 C86.35,215.774 85,213.412 85,212.406 C85,210.426 83.915,209.149 73.12,198.432 C69.005,194.347 66,190.516 66,189.356 C66,188.252 67.103,186.313 68.45,185.047 L70.9,182.745 L80.945,192.895 C86.655,198.666 92.062,205.163 93.476,207.952 C94.843,210.651 96.421,213.142 96.981,213.488 C97.541,213.835 98,215.006 98,216.09 C98,220.626 105.467,219.659 112.218,214.248 C114.79,212.186 118.483,209.375 120.427,208 C124.538,205.091 131.742,194.542 132.621,190.143 C133.153,187.483 132.813,186.857 129.864,185.058 C126.441,182.972 122.925,182.408 121.599,183.734 C120.675,184.658 110.445,186.85 106.658,186.936 C105.094,186.971 102.671,187.9 101.273,189 C99.874,190.1 98.032,191 97.18,191 C96.327,191 94.567,191.997 93.27,193.217 C90.374,195.937 87.671,194.745 87.172,190.527 C86.93,188.481 87.714,186.847 90.172,184.28 C95.689,178.517 101.58,176.483 121,173.639 Z M105.465,120.951 C106.584,120.497 108.128,120.333 108.896,120.587 C109.664,120.842 113.039,121.461 116.396,121.964 C124.799,123.223 130.672,125.046 143.5,130.38 C149.55,132.895 155.261,134.964 156.191,134.977 C157.121,134.989 158.169,135.464 158.519,136.031 C158.869,136.598 163.283,139.073 168.328,141.532 C173.373,143.991 179.348,147.24 181.607,148.752 C192.038,155.733 193.683,156.968 196.437,159.887 C198.052,161.599 199.857,163 200.447,163 C201.036,163 202.113,163.951 202.838,165.113 C204.01,166.989 203.849,167.549 201.392,170.113 C199.871,171.701 198.104,173 197.467,173 C194.821,173 190,169.755 190,167.975 C190,166.849 188.096,164.813 185.25,162.896 C182.637,161.136 179.306,158.434 177.846,156.891 C176.386,155.348 173.911,153.772 172.346,153.388 C170.781,153.003 167.933,151.634 166.018,150.345 C164.103,149.055 161.801,148 160.903,148 C160.005,148 158.126,147.1 156.727,146 C155.329,144.9 153.906,144 153.565,144 C153.224,144 149.92,142.515 146.222,140.7 C142.525,138.886 136.8,136.83 133.5,136.132 C130.2,135.435 125.7,134.032 123.5,133.015 C117.146,130.077 112.2,128.802 109.942,129.518 C107.395,130.327 102.362,128.385 101.555,126.282 C100.862,124.478 102.596,122.115 105.465,120.951 Z M117.686,35.017 C124.611,32.938 128.39,35.221 127.82,41.137 C127.538,44.071 126.795,44.834 121.5,47.623 C118.2,49.362 114.583,50.583 113.462,50.337 C112.341,50.091 109.266,50.814 106.629,51.945 C103.992,53.075 100.409,54.014 98.667,54.032 C96.925,54.049 94.626,54.724 93.559,55.532 C92.491,56.339 90.563,57 89.274,57 C87.984,57 85.824,57.725 84.472,58.61 C81.713,60.418 77.619,59.853 74.75,57.267 C70.362,53.313 75.319,48.036 84,47.421 C85.375,47.324 89.2,46.249 92.5,45.033 C109.326,38.832 112.595,37.552 113.686,36.742 C114.338,36.258 116.138,35.481 117.686,35.017 Z"/>
</svg>

