<svg xmlns="http://www.w3.org/2000/svg" width="300" height="300" viewBox="0 0 300 300" version="1.1">
  <defs/>
  <path d="M133.485,16.029 C134.555,13.96 135.796,13 137.403,13 C141.151,13 142.477,15.616 142.674,23.4 C142.773,27.305 143.224,33.425 143.677,37 C144.877,46.474 146.681,46.346 156.937,36.063 C163.287,29.696 165.586,28 167.867,28 C171.743,28 173.182,29.898 172.098,33.578 C170.849,37.815 168.791,42 167.957,42 C167.56,42 165.495,43.739 163.368,45.865 C159.231,50 152.591,54 149.865,54 C147.428,54 145.421,62.901 146.901,67.146 C147.505,68.88 148,74.93 148,80.59 C148,86.283 148.441,91.155 148.987,91.492 C149.53,91.828 150.992,91.123 152.237,89.927 C156.224,86.095 162.789,83.712 167.385,84.43 C173.859,85.441 180.452,90.537 183.971,97.25 C185.637,100.429 187.014,103.81 187.032,104.765 C187.049,105.719 187.724,107.374 188.532,108.441 C189.339,109.509 190,111.181 190,112.156 C190,113.132 190.723,116.06 191.607,118.663 C193.049,122.91 193.501,129.615 194.223,157.5 C194.6,172.037 191.414,231.786 190.181,233.315 C189.264,234.452 188.985,235.92 187.427,247.833 C186.962,251.391 186.192,253.355 185.115,253.732 C184.227,254.043 182.463,255.232 181.196,256.374 C179.066,258.294 178.689,258.336 176.196,256.939 C174.713,256.107 172.87,254.094 172.099,252.464 C171.329,250.834 170.057,249.121 169.274,248.659 C167.222,247.446 162,235.693 162,232.288 C162,230.7 161.589,228.972 161.086,228.45 C159.763,227.075 159.322,221.732 160.5,221.354 C163.027,220.542 168.546,227.758 169.377,232.959 C170.14,237.726 174.376,245 176.39,245 C177.141,245 178.186,244.438 178.712,243.75 C179.714,242.443 182.018,225.618 182.543,215.777 C182.711,212.629 183.062,209.704 183.322,209.277 C183.582,208.85 183.953,197.25 184.147,183.5 C184.444,162.484 184.275,158.5 183.09,158.5 C182.314,158.5 180.682,160.3 179.462,162.5 C178.243,164.7 175.679,167.4 173.766,168.5 C171.852,169.6 169.209,171.474 167.893,172.664 C160.93,178.962 157.159,182 156.303,182 C155.778,182 154.258,183.161 152.924,184.579 C150.549,187.106 150.496,187.548 150.297,206.329 C150.186,216.873 149.887,231.125 149.634,238 C149.38,244.875 149.596,252.459 150.114,254.853 C150.771,257.896 150.695,260.202 149.859,262.514 C148.952,265.022 148.93,267.714 149.769,273.66 C151.023,282.557 149.986,294.443 147.76,296.668 C146.761,297.668 145.665,297.811 143.93,297.17 L141.5,296.271 L141.416,253.885 C141.37,230.573 141.631,207.9 141.998,203.5 C142.494,197.533 142.33,195.133 141.352,194.056 C140.219,192.809 139.724,192.911 137.706,194.806 C136.422,196.013 134.853,197 134.22,197 C133.587,197 129.341,199.401 124.785,202.336 C120.228,205.27 115.375,207.951 114,208.292 C108.462,209.668 107.664,211.101 107.697,219.608 C107.714,223.949 107.281,228.065 106.736,228.756 C106.191,229.447 105.455,231.429 105.101,233.161 C104.281,237.172 101.79,238.901 99.532,237.026 C99.401,236.917 99.279,236.82 99.168,236.712 C97.742,235.339 97.893,232.331 100.021,184 C100.638,169.975 101.121,157.825 101.094,157 C100.87,150.217 99.064,135.961 98.141,133.685 C97.514,132.137 97,129.345 97,127.482 C97,125.619 96.486,122.966 95.858,121.588 C94.105,117.74 97.027,113.776 101.312,114.191 C104.261,114.477 104.58,114.875 105.567,119.5 C106.154,122.25 106.911,125.175 107.249,126 C108.052,127.961 108.835,133.243 110.141,145.5 C110.726,151 111.6,155.918 112.083,156.43 C112.622,157.002 113.834,156.959 115.23,156.318 C116.478,155.746 119.3,154.703 121.5,154.002 C126.686,152.349 138.552,144.706 139.93,142.131 C141.333,139.51 141.356,115.338 139.956,114.473 C138.856,113.793 134,116.508 134,117.803 C134,118.219 130.612,122.014 126.47,126.237 C118.368,134.499 116.476,135.056 115.432,129.488 C114.917,126.743 115.376,125.42 118.088,121.835 C119.891,119.451 123.811,115.475 126.799,113 C137.045,104.514 139.637,102.389 139.793,100.099 C139.847,99.302 139.607,98.485 139.291,97.373 C138.687,95.243 138.129,88.1 138.051,81.5 C137.886,67.48 137.428,65 135.006,65 C134.028,65 130.532,66.8 127.238,69 C123.943,71.2 120.612,73 119.836,73 C116.617,73 107.247,77.046 103.817,79.917 C97.704,85.035 93,83.711 93,76.873 C93,72.96 95.712,69.833 100.332,68.419 C107.312,66.283 120.961,60.415 123.683,58.38 C125.434,57.071 127.234,55.987 127.683,55.971 C128.132,55.955 130.02,54.56 131.878,52.871 C135.248,49.807 135.254,49.785 134.552,43.15 C134.165,39.492 133.659,32.972 133.427,28.66 C133.196,24.347 132.761,20.423 132.462,19.939 C132.163,19.455 132.623,17.696 133.485,16.029 Z M22.25,118.031 C25.374,116.776 26.367,116.812 28.281,118.25 C29.931,119.49 34.461,126.892 35.626,130.25 C36.437,132.588 39.64,132.485 40.263,130.1 C40.537,129.056 43.627,126.365 47.13,124.121 C56.323,118.234 62.594,118.441 69.942,124.875 C73.027,127.575 73.458,128.595 74.088,134.686 C74.713,140.722 74.524,141.986 72.396,145.983 C71.078,148.459 70,151.214 70,152.107 C70,153 69.1,154.874 68,156.273 C65.236,159.787 65.493,161 69,161 C71.818,161 72,161.235 72,164.881 C72,168.128 71.438,169.191 68.567,171.381 C66.678,172.822 64.669,174 64.102,174 C63.535,174 62.554,174.965 61.922,176.145 C60.11,179.531 55.721,182.934 53.121,182.968 C51.813,182.986 48.999,184.575 46.868,186.5 C44.738,188.425 42.578,190 42.07,190 C40.332,190 37,184.734 37,181.988 C37,180.479 37.693,178.67 38.54,177.967 C40.783,176.105 39.534,160.361 36.914,157.475 C35.902,156.362 33.889,151.862 32.44,147.475 C30.99,143.089 28.56,137.916 27.04,135.98 C20.221,127.297 18.184,119.666 22.25,118.031 Z M178.971,118.667 C178.938,121.835 175.016,126.667 170.602,128.978 C169.05,129.791 166.141,132.05 164.14,133.997 C162.138,135.945 158.376,139.105 155.781,141.019 C154.092,142.265 152.971,143.009 152.227,144.029 C150.655,146.184 150.768,149.568 150.78,161.5 C150.785,166.45 151.132,170.706 151.552,170.958 C152.479,171.514 158.002,167.68 162.654,163.25 C164.531,161.463 166.486,160 166.999,160 C168.463,160 175,153.93 175,152.571 C175,151.899 176.102,150.313 177.449,149.048 C180.04,146.613 183,146.838 183,149.469 C183,150.311 183.727,151 184.617,151 C185.881,151 186.082,150.401 185.541,148.25 C185.16,146.738 184.428,141.675 183.913,137 C182.008,119.689 181.472,116.652 180.25,116.247 C179.451,115.983 178.989,116.855 178.971,118.667 Z M137.467,157.036 C135.381,159.342 128.854,162.445 123.854,163.509 C122.009,163.901 119.761,164.873 118.858,165.668 C117.889,166.522 115.728,166.988 113.579,166.807 L109.942,166.5 L109.756,182 C109.575,197.087 109.627,197.508 111.686,197.807 C112.944,197.989 115.213,196.874 117.283,195.057 C119.197,193.375 121.662,192 122.76,192 C123.857,192 125.358,191.274 126.095,190.386 C126.831,189.498 129.813,187.429 132.721,185.788 C140.992,181.12 141.938,179.394 141.381,169.977 C141.095,165.137 141.346,161.222 142.025,159.953 C142.856,158.401 142.836,157.507 141.947,156.436 C140.361,154.525 139.654,154.62 137.467,157.036 Z M160,97.673 C154.7,101.817 152.179,103.633 151.012,106.092 C149.853,108.533 150.028,111.607 150.144,118.217 C150.257,124.698 150.681,130 151.088,130 C151.494,130 155.523,126.382 160.042,121.959 C169.522,112.681 173.087,110.441 175.943,111.97 C177.002,112.536 178.075,113 178.328,113 C179.213,113 176.898,104.636 175.232,101.816 C173.64,99.121 166.934,93.911 165.271,94.077 C164.847,94.12 162.475,95.738 160,97.673 Z M188.011,11.487 C188.702,10.654 190.897,10 193.002,10 C196.44,10 197.496,10.778 205.438,19.163 C210.212,24.203 214.82,29.715 215.679,31.413 C216.538,33.111 217.898,35.251 218.702,36.168 C219.505,37.086 220.238,40.011 220.331,42.668 C220.48,46.919 220.24,47.537 218.343,47.807 C216.813,48.025 215.217,46.908 212.847,43.959 C209.778,40.14 209.202,39.844 205.754,40.306 C201.419,40.888 200.111,39.64 202.402,37.108 C204.455,34.839 204.419,33.426 202.25,31.22 C201.287,30.24 199.877,28.245 199.117,26.786 C198.356,25.327 195.559,22.782 192.902,21.13 C187.734,17.917 185.815,14.133 188.011,11.487 Z M47.661,135.75 C41.055,139.8 41.001,140.084 44.982,150 C46.196,153.025 47.503,156.85 47.886,158.5 C48.269,160.15 49.099,161.5 49.732,161.5 C51.699,161.5 59,150.139 59,147.078 C59,145.52 59.627,143.725 60.392,143.089 C61.158,142.454 62.343,140.587 63.024,138.941 C64.092,136.363 64.017,135.676 62.477,133.974 C59.726,130.934 54.493,131.562 47.661,135.75 Z"/>
</svg>

