<svg xmlns="http://www.w3.org/2000/svg" width="300" height="300" viewBox="0 0 300 300" version="1.1">
  <defs/>
  <path d="M158.05,70.074 C164.81,65.591 167.843,64.12 169.389,64.578 C171.805,65.292 174,67.749 174,69.739 C174,73.861 154.092,86.571 139.75,91.605 C134.739,93.363 134.331,94.155 136.098,98.685 C137.626,102.6 139.98,122.013 139.991,130.781 C140.002,139.852 141.353,140.764 146.705,135.315 C148.792,133.19 151.997,130.337 153.827,128.976 L157.155,126.5 L156.43,114.152 C155.789,103.238 155.432,101.478 153.353,99.007 C149.63,94.583 150.711,90 155.477,90 C161.661,90 165,97.847 165,112.379 C165,117.606 165.349,122.098 165.776,122.362 C166.203,122.626 168.453,122.334 170.776,121.714 C176.199,120.267 184.813,121.948 190.184,125.503 C193.917,127.973 199,136.325 199,139.987 C199,140.874 199.49,142.09 200.088,142.688 C201.935,144.535 199.31,238.118 197.324,241.255 C196.89,241.94 196.197,247 195.783,252.5 C193.994,276.285 193.038,280.114 188.358,282.247 C183.877,284.288 175.638,281.788 169.464,276.513 C162.956,270.954 158.359,265.277 157.458,261.691 C156.272,256.964 159.392,258.537 167.762,266.884 C175.305,274.407 180.23,277.212 182.948,275.532 C184.843,274.361 189.432,251.69 188.836,246.448 C188.45,243.063 187.608,242.969 179,245.343 C170.184,247.775 140.346,250.203 134.019,249.004 C127.334,247.736 125.818,246.491 126.199,242.585 L126.5,239.5 L142,239.4 C154.658,239.318 164.449,238.757 174.5,237.539 C175.05,237.472 177.396,236.861 179.713,236.18 C182.029,235.5 185.067,235.23 186.463,235.58 C188.85,236.179 189,235.989 189.006,232.358 C189.009,230.236 189.416,226.925 189.911,225 C191.292,219.632 192.076,184 190.814,184 C190.239,184 188.133,185.746 186.134,187.88 C179.873,194.563 174.219,198 169.485,198 C165.003,198 160,195.053 160,192.414 C160,191.621 159.547,190.191 158.993,189.236 C157.753,187.096 156.129,149.529 157.116,145.802 C157.596,143.989 157.377,142.728 156.447,141.956 C155.348,141.044 153.623,142.111 148.042,147.154 C141.916,152.69 141.016,153.947 140.996,157 C140.916,168.689 138.75,195.667 137.344,202.476 C135.555,211.136 133.475,214.503 130.596,213.399 C129.11,212.828 128.917,211.899 129.396,207.61 C129.71,204.799 130.397,196.2 130.924,188.5 C131.451,180.8 132.128,172.216 132.429,169.425 C133.156,162.68 131.65,160.425 127.47,162.004 C125.837,162.621 123.541,164.322 122.368,165.784 C120.531,168.074 120.013,168.256 118.618,167.098 C115.463,164.479 116.617,160.432 121.75,156.121 C124.362,153.927 127.68,151.089 129.123,149.816 L131.745,147.5 L130.908,130 C129.87,108.297 128.87,99.754 127.122,97.647 C126.101,96.417 124.808,96.167 121.889,96.634 C117.344,97.361 115,95.9 115,92.342 C115,89.754 119.225,87.394 129.335,84.335 C137.593,81.836 148.433,76.453 158.05,70.074 Z M170.612,132.438 C165.481,134.703 165.074,136.639 165.035,158.967 C165.007,175.565 165.309,180.243 166.636,183.717 C169.144,190.285 171.413,189.622 183.671,178.738 C191.233,172.023 193.39,170.114 193.781,167.894 C193.938,167 193.81,166.056 193.632,164.728 C193.321,162.403 192.568,155.775 191.959,150 C191.35,144.225 190.435,139.072 189.926,138.55 C189.417,138.028 189,136.816 189,135.857 C189,131.463 177.613,129.346 170.612,132.438 Z M74.9,151.914 C79.002,150.601 84.158,151.703 86.946,154.49 C89.204,156.747 89.489,157.822 89.406,163.771 C89.294,171.773 88.077,179.835 86.867,180.582 C86.39,180.877 86,181.94 86,182.945 C86,183.949 85.328,186.06 84.506,187.636 C82.168,192.119 82.55,194 85.8,194 C92.094,194 91.997,198.884 85.643,201.875 C83.364,202.948 79.925,204.132 78,204.507 C76.075,204.882 72.825,206.324 70.777,207.712 C67.848,209.696 66.354,210.09 63.777,209.559 C61.975,209.187 59.3,208.796 57.833,208.691 C54.363,208.442 53.531,207.508 53.357,203.664 C52.972,195.123 51.541,188.087 49.383,184.124 C48.072,181.717 47,178.981 47,178.044 C47,175.676 42.957,167.926 39.707,164.064 C38.218,162.294 37,160.261 37,159.546 C37,157.691 39.605,155.776 41.594,156.167 C43.88,156.617 52.407,169.081 55.127,175.947 C56.337,179.001 57.797,182.108 58.37,182.852 C58.944,183.595 59.909,187.42 60.513,191.352 L61.613,198.5 L65.013,198.218 C66.883,198.063 69.274,197.163 70.326,196.218 C75.463,191.606 83.605,166.626 81.641,161.506 C80.271,157.937 72.833,160.817 64.479,168.152 C61.599,170.681 60.457,171.149 59.156,170.335 C56.538,168.696 56.556,164.501 59.193,161.97 C62.359,158.93 71.735,152.928 74.9,151.914 Z M97.975,153.53 C98.673,152.689 100.006,152 100.935,152 C103.315,152 108,157.176 108,159.805 C108,161.012 108.45,162 109,162 C109.55,162 110,163.07 110,164.378 C110,165.686 110.61,168.273 111.356,170.128 C112.101,171.983 113.281,178.795 113.977,185.266 C114.673,191.737 115.638,197.276 116.121,197.575 C116.605,197.874 117.027,200.454 117.06,203.309 C117.092,206.164 117.558,210.75 118.095,213.5 C120.285,224.719 122.662,262.738 121.261,264.139 C119.846,265.554 117.414,264.194 116.001,261.195 C115.302,259.713 114.355,255.575 113.897,252 C113.438,248.425 112.6,242.35 112.034,238.5 C111.469,234.65 110.592,226.325 110.085,220 C109.578,213.675 108.897,207.825 108.571,207 C108.246,206.175 107.537,201.45 106.997,196.5 C106.456,191.55 105.597,185.25 105.087,182.5 C104.577,179.75 103.754,175.025 103.259,172 C102.764,168.975 101.087,163.926 99.532,160.78 C97.195,156.051 96.925,154.795 97.975,153.53 Z"/>
</svg>

