<svg xmlns="http://www.w3.org/2000/svg" width="300" height="300" viewBox="0 0 300 300" version="1.1">
  <defs/>
  <path d="M156.312,163.033 C158.065,162.654 161.165,162.328 163.2,162.308 C166.544,162.276 166.965,162.573 167.568,165.386 C167.935,167.099 169.082,170.272 170.117,172.438 C171.153,174.604 172,176.985 172,177.73 C172,178.474 172.877,180.025 173.948,181.175 C175.294,182.62 175.728,184.11 175.351,185.995 C175.051,187.495 175.454,190.023 176.246,191.612 C177.038,193.2 178.23,198.55 178.895,203.5 C179.56,208.45 180.594,215.875 181.194,220 C182.619,229.796 182.879,272.453 181.607,287.899 L180.611,300 L168.374,300 C161.17,300 157.869,300.117 155.622,298.635 C153.504,297.239 152.322,294.422 149.692,288.75 C148.166,285.459 146.379,283 145.513,283 C143.753,283 143.5,281.427 145.101,280.438 C145.731,280.048 145.952,278.512 145.618,276.841 C145.205,274.775 145.471,273.757 146.53,273.35 C148.336,272.657 151,274.673 151,276.733 C151,277.551 153.268,281.339 156.04,285.15 C158.811,288.96 161.54,293.289 162.102,294.769 C162.665,296.249 163.659,297.799 164.313,298.214 C166.024,299.303 169.776,299.171 170.502,297.997 C172.595,294.61 172.655,221.486 170.566,218.108 C170.19,217.498 169.41,217 168.834,217 C168.257,217 161.872,223.013 154.643,230.363 C146.577,238.564 139.569,244.759 136.5,246.4 C133.75,247.871 129.997,250.023 128.16,251.182 C126.323,252.341 123.4,253.58 121.666,253.935 C119.628,254.351 118.382,255.273 118.144,256.54 C117.942,257.618 116.477,260.276 114.888,262.447 C113.3,264.618 111.982,267.093 111.959,267.947 C111.895,270.398 106.777,275.642 103.729,276.379 C100.937,277.054 97,275.687 97,274.042 C97,273.553 98.125,271.816 99.5,270.182 C100.875,268.548 102,266.682 102,266.034 C102,265.387 102.675,264.182 103.5,263.357 C104.325,262.532 105,260.594 105,259.051 C105,257.508 105.675,255.685 106.5,255 C107.325,254.315 108,252.937 108,251.937 C108,250.936 108.453,249.838 109.007,249.495 C110.294,248.7 114,241.071 114,239.216 C114,238.442 114.618,236.614 115.373,235.154 C117.151,231.714 119,225.833 119,223.613 C119,222.654 119.551,220.886 120.224,219.684 C121.545,217.327 121.943,212.598 122.012,198.44 C122.062,188.224 120.532,183.234 116.548,180.623 C111.637,177.405 114.284,169.101 119.78,170.481 C123.436,171.399 129,175.958 129,178.037 C129,180.825 130.086,183 131.478,183 C132.172,183 134.487,181.177 136.621,178.949 C144.429,170.795 153.2,163.706 156.312,163.033 Z M152.5,41.891 C156.824,40.794 163.987,41.861 167.735,44.16 C171.12,46.236 175,53.398 175,57.568 C175,58.841 175.462,60.168 176.027,60.517 C177.179,61.228 177.11,82.559 175.947,85 C173.961,89.173 173.106,91.859 172.605,95.506 C172.302,97.709 171.142,101.4 170.027,103.708 C168.912,106.015 168,108.755 168,109.797 C168,110.838 167.1,112.505 166,113.5 C163.99,115.319 163.239,119 164.878,119 C165.36,119 166.307,118.334 166.983,117.521 C167.963,116.339 168.641,116.276 170.355,117.206 C171.535,117.846 174.075,118.63 176,118.947 C179.194,119.473 179.527,119.849 179.809,123.243 C180.112,126.88 179.988,127.026 174.309,129.732 C171.114,131.254 167.923,133.271 167.218,134.214 C166.151,135.642 165.513,135.735 163.401,134.773 C161.371,133.848 160.231,133.933 157.683,135.203 C155.932,136.075 151.8,137.585 148.5,138.559 C145.2,139.533 141.024,141.156 139.22,142.165 C137.415,143.174 135.293,144 134.504,144 C132.497,144 126,147.197 126,148.185 C126,148.633 124.65,149 123,149 C120.502,149 120,148.599 120,146.607 C120,145.291 119.325,143.955 118.5,143.638 C117.675,143.322 117,142.158 117,141.052 C117,139.012 121.8,135.948 127,134.669 C130.243,133.871 136.707,125.802 138.025,120.907 C138.591,118.805 139.492,116.814 140.027,116.483 C140.562,116.153 141,114.327 141,112.427 C141,110.527 141.554,108.086 142.23,107.003 C143.246,105.377 143.167,104.738 141.777,103.348 C140.198,101.769 139.849,101.915 136.191,105.684 C132.558,109.427 132.255,110.195 131.778,116.855 C131.363,122.656 130.817,124.451 128.883,126.364 C125.99,129.227 120.489,132.156 119.627,131.293 C118.515,130.181 118.961,121.439 120.193,120.207 C121.117,119.283 120.927,118.392 119.35,116.257 C116.529,112.438 115.685,107.005 117.533,104.559 C119.519,101.931 119.383,96.513 117.25,93.262 C116.287,91.795 114.954,87.926 114.286,84.666 C113.618,81.405 112.381,77.973 111.536,77.04 C110.691,76.106 110,74.871 110,74.294 C110,73.717 109.264,72.634 108.363,71.887 C106.429,70.281 103,62.644 103,59.94 C103,58.898 104.151,57.292 105.557,56.371 C107.975,54.786 108.261,54.801 110.807,56.642 C112.288,57.712 114.754,61.156 116.287,64.294 C118.925,69.696 122,71.899 122,68.389 C122,66.815 129.309,57.241 131.651,55.748 C132.3,55.334 135.456,52.813 138.665,50.147 C145.153,44.755 148.067,43.016 152.5,41.891 Z M65,131.451 C67.918,129.792 71.616,129.57 72.5,131 C72.84,131.55 73.922,132 74.904,132 C75.886,132 77.488,132.882 78.463,133.959 C80.576,136.294 81.747,144.42 80.115,145.429 C79.502,145.808 79,146.94 79,147.945 C79,148.949 78.328,151.06 77.506,152.636 C76.685,154.211 76.01,156.487 76.006,157.693 C76.003,158.9 75.066,160.541 73.924,161.341 C72.468,162.36 71.945,163.645 72.174,165.636 C72.448,168.026 73.06,168.567 76.034,169.046 C81.032,169.851 82,170.694 82,174.239 C82,176.651 80.977,178.313 77.5,181.551 C75.025,183.856 73,186.4 73,187.204 C73,189.521 71.986,189.951 69.351,188.75 C67.52,187.916 66.055,187.94 63.552,188.845 C61.709,189.511 57.344,190.31 53.851,190.621 C47.577,191.178 47.46,191.142 44.218,187.645 C41.632,184.855 41.072,183.561 41.579,181.543 C41.932,180.134 42.622,178.734 43.111,178.432 C44.754,177.416 44.019,175 42.068,175 C39.047,175 36.214,170.142 36.742,165.868 C36.995,163.827 36.711,161.94 36.096,161.559 C35.493,161.187 35,160.041 35,159.012 C35,157.984 34.416,156.548 33.702,155.821 C32.989,155.095 30.948,152.371 29.167,149.769 C26.082,145.261 26.005,144.922 27.525,142.603 C30.197,138.524 31.929,138.6 36.095,142.979 C38.199,145.191 40.5,146.988 41.21,146.973 C41.919,146.958 44.75,144.926 47.5,142.456 C50.25,139.987 54.75,136.82 57.5,135.419 C60.25,134.018 63.625,132.232 65,131.451 Z M154.51,176.983 C154.137,177.587 151.992,179.243 149.743,180.662 C144.405,184.032 136.491,191.47 134.062,195.4 C132.619,197.735 131.96,201.327 131.425,209.786 C131.033,215.987 130.326,221.298 129.856,221.589 C129.385,221.88 129,223.441 129,225.059 C129,226.677 128.65,228 128.222,228 C127.794,228 126.669,230.61 125.722,233.799 C123.981,239.663 123.552,243 124.54,243 C125.702,243 132.901,238.969 133.516,237.974 C133.875,237.394 135.937,235.802 138.099,234.437 C142.914,231.398 155.981,218.022 155.992,216.121 C155.998,215.026 154.762,214.882 149.988,215.422 C145.001,215.986 143.872,215.831 143.367,214.514 C143.032,213.64 141.282,212.309 139.479,211.555 C137.046,210.539 136.014,209.342 135.482,206.916 C134.572,202.774 137.013,200.571 141.5,201.484 C149.857,203.186 150.483,203.16 152.763,201.021 C155.28,198.66 157,199.094 157,202.09 C157,203.175 157.787,204.309 158.75,204.61 C159.713,204.911 161.694,205.797 163.154,206.578 C167.555,208.935 168.255,208.477 167.473,203.75 C167.086,201.412 166.493,199.05 166.154,198.5 C165.816,197.95 165.441,195.191 165.32,192.368 C164.932,183.313 157.306,172.46 154.51,176.983 Z M150.943,53.859 C145.327,56.669 138.845,61.455 134.5,66 C132.3,68.301 128.588,71.515 126.25,73.14 C121.494,76.448 121.128,77.689 123.949,80.941 C125.264,82.457 126.119,85.433 126.578,90.094 C127.381,98.243 128.098,98.544 134.704,93.5 C137.225,91.575 139.673,90 140.144,90 C140.615,90 141,88.902 141,87.559 C141,86.216 141.377,84.885 141.839,84.6 C142.3,84.314 142.733,80.313 142.8,75.708 C142.943,65.913 144.036,62.396 147.416,60.856 C152.155,58.697 153.032,60.088 152.857,69.487 C152.769,74.186 152.983,78.317 153.333,78.666 C154.31,79.643 163.334,76.467 164.053,74.893 C164.403,74.127 165.209,72.494 165.845,71.264 C167.76,67.556 167.312,62.894 164.981,62.285 C163.516,61.902 163.036,61.055 163.231,59.198 C163.436,57.252 162.686,56.083 160.102,54.319 C156.076,51.571 155.568,51.546 150.943,53.859 Z M61,146.465 C59.625,147.242 57.283,148.133 55.795,148.446 C54.307,148.759 51.888,150.592 50.419,152.518 L47.747,156.02 L50.181,159.76 C52.172,162.821 52.436,163.989 51.635,166.19 C50.924,168.143 51.011,169.308 51.95,170.44 C53.881,172.767 54.857,172.368 56.701,168.5 C57.619,166.575 58.682,165 59.064,165 C59.445,165 60.344,163.537 61.061,161.75 C61.778,159.963 63.183,157.427 64.183,156.115 C65.182,154.803 66,152.756 66,151.565 C66,150.374 66.501,148.899 67.113,148.287 C68.521,146.879 67.409,144.992 65.191,145.027 C64.261,145.041 62.375,145.689 61,146.465 Z M156.655,91.829 C155.745,92.835 155,94.833 155,96.27 C155,97.706 154.55,99.16 154,99.5 C153.45,99.84 153,101.862 153,103.994 C153,106.126 152.537,109.087 151.972,110.574 C151.407,112.061 151.148,113.481 151.397,113.73 C152.438,114.771 155.764,112.787 156.84,110.483 C159.765,104.221 161.676,98.541 162.47,93.75 C163.043,90.289 162.906,90 160.7,90 C159.386,90 157.565,90.823 156.655,91.829 Z"/>
</svg>

