<svg xmlns="http://www.w3.org/2000/svg" width="300" height="300" viewBox="0 0 300 300" version="1.1">
  <defs/>
  <path d="M116.932,2.904 L114.864,0 L126.923,0 L128,4 C129.048,7.893 128.05,14.833 126.057,17.5 C124.745,19.257 124.034,22 124.892,22 C125.348,22 127.379,20.875 129.405,19.5 C131.431,18.125 133.821,17 134.716,17 C135.61,17 137.113,16.303 138.054,15.451 C140.814,12.953 144.696,14.502 145.279,18.333 C145.544,20.075 145.366,22.254 144.885,23.176 C143.944,24.975 135.524,31 133.95,31 C132.643,31 132.75,33.728 134.09,34.556 C135.304,35.306 134.44,41.886 132.922,43.45 C132.415,43.972 132,45.338 132,46.484 C132,49.022 126.232,58.167 122.053,62.252 C119.36,64.885 118.185,67 119.415,67 C119.643,67 126.417,63.625 134.467,59.5 L149.104,52 L158.529,52 C167.375,52 168.051,52.148 169.527,54.401 C170.392,55.721 171.355,59.883 171.668,63.651 C172.175,69.765 172.009,70.704 170.118,72.405 C168.953,73.453 168,75.139 168,76.152 C168,77.165 166.485,79.683 164.633,81.747 C162.781,83.811 160.95,86.512 160.565,87.75 C160.18,88.987 159.47,90 158.986,90 C158.503,90 156.515,92.398 154.569,95.329 L151.032,100.659 L153.644,105.728 C157.133,112.499 156.427,119.353 151.444,127.087 C149.55,130.027 148,132.95 148,133.583 C148,134.216 146.088,135.99 143.75,137.524 C141.412,139.059 138.459,141.423 137.186,142.778 C135.136,144.96 134.323,145.168 130.051,144.601 C126.005,144.064 125.114,144.246 124.516,145.731 C123.757,147.617 123.728,176.852 124.482,180.393 C124.73,181.556 123.703,184.741 122.192,187.5 C120.046,191.416 118.916,192.5 116.976,192.5 C114.574,192.5 114.501,192.292 114.536,185.5 C114.556,181.65 114.734,176.025 114.932,173 C115.13,169.975 114.934,159.513 114.496,149.75 C113.704,132.091 113.688,132 111.385,132 C110.098,132 108.598,132.883 108.006,133.99 C107.42,135.084 105.536,136.706 103.819,137.594 C97.01,141.115 91.353,149.777 92.488,154.944 C92.891,156.779 92.582,158.102 91.549,158.959 C89.45,160.701 85.308,157.979 83.505,153.672 C82.775,151.927 80.788,149.474 79.089,148.22 C77.39,146.966 76,145.44 76,144.828 C76,144.216 74.059,141.417 71.688,138.608 C65.404,131.166 64,128.858 64,125.977 C64,123.559 65.574,121 67.062,121 C68.735,121 75.391,127.321 79.566,132.876 C82.098,136.244 84.782,139 85.53,139 C86.821,139 94.649,131.333 96.253,128.497 C96.668,127.765 99.368,125.476 102.253,123.41 C112.281,116.233 112.997,115.287 112.322,110.101 C111.993,107.57 111.252,104.903 110.676,104.173 C110.088,103.429 109.711,98.957 109.817,93.984 C109.934,88.492 109.593,84.867 108.921,84.451 C108.324,84.082 105.477,85.405 102.595,87.39 C99.712,89.376 97.01,91 96.59,91 C96.17,91 92.453,93.89 88.33,97.421 C84.208,100.953 78.959,105.108 76.667,106.655 C71.653,110.039 65,116.376 65,117.767 C65,118.319 63.904,119.488 62.565,120.366 C60.975,121.407 60.02,123.096 59.815,125.231 C59.553,127.946 59.041,128.553 56.791,128.812 C54.632,129.061 52.955,127.998 48.541,123.584 C45.493,120.537 43,117.584 43,117.022 C43,116.46 42.399,116 41.664,116 C40.203,116 30.985,109.259 29.7,107.25 C29.26,106.562 28.33,106 27.632,106 C25.071,106 18,99.62 18,97.309 C18,94.519 21.994,91.694 24.609,92.635 C27.583,93.705 36.226,100.757 45.632,109.789 C50.38,114.348 54.768,117.911 55.382,117.706 C55.997,117.502 56.636,116.472 56.802,115.417 C56.967,114.363 57.626,112.375 58.266,111 C61.456,104.138 64.532,101.345 81.882,89.554 C89.384,84.456 91.351,83.211 101.421,77.189 C108.078,73.207 108.67,72.398 106.598,70.108 C105.719,69.137 104.986,67.703 104.968,66.921 C104.951,66.14 104.276,64.626 103.468,63.559 C102.661,62.491 102,60.38 102,58.868 C102,57.355 101.55,55.84 101,55.5 C100.45,55.16 100,53.585 100,52 C100,50.415 99.573,48.854 99.052,48.532 C98.531,48.21 93.971,49.309 88.92,50.973 C76.714,54.995 73.061,54.972 70.718,50.857 C69.084,47.986 69.068,47.582 70.534,45.963 C71.412,44.992 73.789,43.907 75.815,43.551 C82.248,42.421 97.283,37.02 103.5,33.605 C107.79,31.249 109.598,29.643 109.844,27.968 C110.033,26.681 111.544,24.36 113.201,22.813 C114.892,21.232 115.975,19.378 115.671,18.585 C115.373,17.807 116,15.462 117.064,13.374 C119.526,8.545 119.501,6.512 116.932,2.904 Z M136.181,202.526 C141.661,200.765 149.554,201.572 153.382,204.283 C156.229,206.299 156.257,206.418 155.732,214.087 C155.132,222.837 152.787,227.216 143.793,236.386 C141.157,239.073 139,241.853 139,242.565 C139,243.845 150.288,245.014 162.466,244.995 C169.811,244.984 173.887,246.612 174.563,249.828 C174.872,251.297 175.324,253.486 175.567,254.69 C176.131,257.489 172.48,260.327 170.014,259.007 C169.091,258.514 165.86,258.365 162.832,258.678 C159.438,259.028 156.484,258.794 155.127,258.068 C153.916,257.42 149.905,256.936 146.213,256.993 C142.521,257.05 138.375,257.108 137,257.124 C129.946,257.201 116.948,259.409 112.787,261.237 C108.911,262.94 107.802,263.081 106.537,262.031 C105.692,261.329 105,260.17 105,259.454 C105,258.739 103.835,256.769 102.411,255.077 C100.245,252.502 99.106,252 95.436,252 C91.188,252 91.067,251.914 91.588,249.25 C92.02,247.041 91.278,245.504 87.813,241.431 C83.111,235.904 76.871,230.664 71.154,227.44 C68.42,225.899 67.26,224.423 66.546,221.576 C65.731,218.326 65.868,217.57 67.487,216.386 C71.345,213.565 73.832,214.693 82.06,223 C86.419,227.4 90.796,231 91.787,231 C92.778,231 95.249,228.823 97.278,226.162 C100.644,221.749 116.187,210 118.66,210 C119.221,210 122.421,208.63 125.771,206.957 C129.121,205.283 133.805,203.289 136.181,202.526 Z M153.321,62.961 C151.573,63.378 148.423,64.745 146.321,66 C144.22,67.255 141.15,68.637 139.5,69.072 C132.979,70.791 127.382,73.25 125,75.442 C123.625,76.707 121.263,78.034 119.75,78.39 C116.73,79.102 116.181,81.076 118.474,82.979 C119.599,83.912 119.808,85.548 119.355,89.881 C118.78,95.379 121.367,110 122.914,110 C123.979,110 136.95,104.384 137.754,103.575 C138.164,103.162 139.963,102.211 141.75,101.463 C143.537,100.714 145,99.374 145,98.484 C145,97.595 146.125,95.392 147.5,93.589 C148.875,91.786 150,89.42 150,88.33 C150,87.24 151.125,85.292 152.5,84 C153.875,82.708 155,81.21 155,80.67 C155,80.13 156.028,78.296 157.284,76.594 C161.972,70.243 163.424,63.761 160.418,62.607 C158.564,61.895 157.596,61.944 153.321,62.961 Z M140.5,211.97 C139.4,212.424 134.9,214.233 130.5,215.99 C126.1,217.746 121.825,219.595 121,220.099 C120.175,220.603 118.375,221.556 117,222.217 C115.625,222.879 113.022,224.676 111.215,226.21 C109.409,227.745 107.408,229 106.769,229 C104.647,229 98,234.245 98,235.92 C98,236.827 100.398,239.936 103.329,242.831 L108.657,248.093 L115.436,247.01 C122.379,245.901 123.797,245.116 125.877,241.229 C126.533,240.003 127.939,239 129,239 C130.061,239 131.398,238.125 131.97,237.056 C132.542,235.987 134.388,233.624 136.071,231.806 C142.486,224.875 145.122,220.013 144.801,215.702 C144.479,211.372 143.662,210.663 140.5,211.97 Z M134.5,116.615 C132.3,117.936 129.265,119.561 127.756,120.226 C124.416,121.696 122.792,126.181 123.853,131 C124.546,134.142 124.925,134.467 127.562,134.175 C132.364,133.644 136.99,129.299 140.131,122.371 C141.709,118.891 143,115.584 143,115.022 C143,113.287 138.699,114.093 134.5,116.615 Z M115.746,39.468 C110.241,43.671 109.608,45.315 110.508,53.071 C111.337,60.213 113.537,61.045 116.245,55.24 C117.204,53.183 118.916,50.067 120.049,48.315 C122.27,44.88 123.181,36.957 121.426,36.333 C120.835,36.123 118.279,37.533 115.746,39.468 Z"/>
</svg>

