<svg xmlns="http://www.w3.org/2000/svg" width="300" height="300" viewBox="0 0 300 300" version="1.1">
  <defs/>
  <path d="M118,52 C119.326,49.523 125.14,49.259 127.073,51.588 C127.798,52.462 128.345,54.799 128.289,56.782 C128.178,60.714 125.281,63.602 119.537,65.508 C116.789,66.42 116.514,66.895 116.65,70.508 C116.891,76.938 118.189,84 119.13,84 C119.609,84 120,85.35 120,87 C120,88.65 120.255,90 120.566,90 C122.079,90 125.816,87.39 128.635,84.365 C130.359,82.514 132.187,81 132.697,81 C133.207,81 135.484,81.898 137.756,82.996 L141.888,84.992 L139.266,88.996 C137.824,91.198 136.326,93 135.936,93 C134.734,93 124.293,103.365 123.059,105.783 C122.234,107.401 122.086,112.494 122.553,123.283 C122.914,131.652 123.128,142.438 123.026,147.251 C122.864,154.942 123.063,156.073 124.671,156.592 C125.677,156.916 127.447,157.631 128.604,158.181 C129.761,158.731 131.84,159.033 133.223,158.852 C134.607,158.671 136.922,159.156 138.369,159.93 C140.605,161.127 141.384,161.132 143.562,159.967 C145.587,158.883 146.527,158.848 148.048,159.798 C149.107,160.459 151.014,161 152.286,161 C156.983,161 158.854,166.345 154.709,167.921 C153.449,168.4 151.819,169.514 151.086,170.396 C149.511,172.294 145.745,172.482 143.048,170.798 C141.535,169.853 140.603,169.875 138.687,170.9 C136.679,171.974 135.832,171.971 133.875,170.882 C128.73,168.017 124.575,166.997 123.291,168.283 C122.155,169.422 121.58,178.833 120.409,215.5 C119.553,242.305 119.068,249.214 117.947,250.564 C116.546,252.252 112.411,252.475 111.446,250.913 C110.328,249.104 110.625,217.43 111.9,202.5 C113.586,182.76 114.023,162.756 112.801,161.271 C111.254,159.391 108.328,161.436 105.98,166.04 C104.865,168.225 102.463,170.989 100.643,172.182 C98.822,173.376 96.818,175.511 96.19,176.926 C94.711,180.258 88.759,188.263 81.265,197 C79.142,199.475 76.615,202.758 75.65,204.295 C74.685,205.832 72.888,207.472 71.657,207.94 C70.425,208.409 68.819,209.514 68.086,210.396 C66.422,212.401 64.254,212.422 59.599,210.477 C56.538,209.198 56.11,208.662 56.929,207.132 C57.465,206.13 59.603,204.014 61.68,202.431 C66.079,199.075 69.012,195.843 75.554,187.141 C78.167,183.664 80.839,180.615 81.492,180.365 C82.146,180.114 84.536,177.117 86.804,173.704 C89.071,170.292 94.768,162.679 99.463,156.786 C104.159,150.893 108,145.821 108,145.514 C108,145.208 109.194,143.152 110.654,140.946 C113.154,137.17 113.297,136.309 113.11,126.223 C113,120.331 112.577,115.177 112.168,114.768 C111.76,114.36 109.65,115.258 107.479,116.763 C105.308,118.268 102.127,120.4 100.41,121.5 C98.693,122.6 94.107,125.638 90.219,128.25 C86.331,130.863 82.636,133 82.008,133 C81.38,133 79.392,134.125 77.589,135.5 C75.786,136.875 73.904,137.997 73.406,137.993 C72.908,137.989 71.424,136.407 70.11,134.477 C67.768,131.038 67.757,130.926 69.59,128.901 C70.618,127.765 72.819,126.197 74.48,125.417 C81.274,122.229 93.72,114.345 96.91,111.209 C97.685,110.447 100.16,108.684 102.41,107.291 C111.198,101.85 112.54,97.835 109.529,86 C106.01,72.166 105.211,71.333 98.747,74.756 C93.747,77.404 88.489,77.717 87.607,75.418 C87.273,74.548 87,72.289 87,70.397 C87,66.594 87.715,66.107 96.5,63.925 C101.969,62.567 109.322,58.895 112.564,55.905 C113.7,54.857 115.147,54 115.779,54 C116.412,54 117.411,53.1 118,52 Z M175.667,78.667 C176.82,77.513 180.983,77.94 184.05,79.526 C186.27,80.674 187,81.757 187,83.903 C187,85.472 187.675,87.315 188.5,88 C189.325,88.685 190,90.45 190,91.922 C190,93.395 190.481,95.081 191.068,95.668 C193.121,97.721 193.895,108.131 192.506,115 C189.531,129.717 188.994,132.769 188.375,138.5 C188.019,141.8 187.391,144.95 186.979,145.5 C186.568,146.05 185.901,148.075 185.498,150 C185.095,151.925 183.918,155.272 182.883,157.438 C181.847,159.604 181,162.136 181,163.066 C181,165.267 175.762,178.161 172.496,184 C171.727,185.375 170.131,188.257 168.949,190.405 C167.768,192.553 165.046,196.531 162.9,199.245 C160.755,201.959 159,204.6 159,205.113 C159,207.272 151.115,218.784 146.353,223.576 C143.522,226.425 140.471,229.878 139.572,231.25 C138.477,232.921 136.708,233.92 134.218,234.274 C132.173,234.565 129.825,235.06 129,235.373 C128.175,235.687 126.637,235.289 125.582,234.489 C123.945,233.247 123.835,232.657 124.834,230.465 C125.478,229.052 127.63,227.217 129.618,226.386 C132.963,224.989 143,215.649 143,213.934 C143,213.519 144.691,211.002 146.759,208.34 C148.826,205.678 151.822,201.025 153.416,198 C155.011,194.975 157.82,190.203 159.658,187.396 C161.496,184.59 163,181.925 163,181.475 C163,181.025 163.612,179.947 164.36,179.079 C166.03,177.141 171,164.124 171,161.689 C171,160.716 171.979,158.026 173.175,155.71 C174.371,153.395 175.701,149.7 176.13,147.5 C176.559,145.3 177.645,139.9 178.543,135.5 C179.441,131.1 180.288,125.925 180.424,124 C180.561,122.075 181.211,119.375 181.869,118 C182.765,116.126 182.805,113.496 182.026,107.5 C181.454,103.1 180.842,98.375 180.664,97 C180.487,95.625 179.87,93.6 179.293,92.5 C175.512,85.29 174.168,80.165 175.667,78.667 Z M52.992,108.026 C55.985,106.134 62.557,109.165 66.026,114.036 C68.101,116.95 68.705,123.446 67,124.5 C66.45,124.84 66,126.472 66,128.126 C66,129.793 64.886,132.594 63.5,134.411 C60.477,138.374 60.369,140.119 63,142.5 C65.903,145.127 65.566,148.656 62.248,150.372 C60.734,151.155 58.639,152.741 57.593,153.898 C56.546,155.054 54.964,156 54.077,156 C53.19,156 50.809,157.125 48.785,158.5 C46.762,159.875 44.804,161 44.435,161 C44.066,161 42.158,162.41 40.195,164.134 L36.625,167.268 L34.318,164.384 C31.209,160.5 31.246,156.237 34.397,155.039 C36.823,154.117 47.984,143.171 47.994,141.703 C47.997,141.265 50.025,137.396 52.5,133.105 C56.85,125.564 57.644,122.841 56.422,119.657 C55.993,118.539 54.897,118.296 52.172,118.714 C50.152,119.024 48.05,119.606 47.5,120.008 C46.95,120.41 44.858,121.035 42.85,121.396 C40.843,121.757 38.696,122.662 38.078,123.406 C37.46,124.15 35.583,125.033 33.907,125.369 C31.296,125.891 30.957,126.303 31.547,128.239 C31.926,129.483 32.834,131.183 33.563,132.018 C35.888,134.678 38.955,142.391 38.978,145.635 C39.005,149.434 35.682,152 30.735,152 C26.465,152 24.723,150.386 26.138,147.742 C28.133,144.014 24.492,134.143 19.636,130.113 C18.736,129.366 18,128.29 18,127.722 C18,127.154 16.863,125.198 15.473,123.376 C12.796,119.866 12.84,116.208 15.585,113.929 C17.878,112.026 22.006,113.718 23.162,117.035 C24.587,121.123 27.173,120.827 31.975,116.025 C34.161,113.839 37.198,111.783 38.725,111.456 C40.251,111.129 42.534,110.443 43.797,109.931 C45.06,109.419 47.31,108.993 48.797,108.985 C50.284,108.976 52.171,108.545 52.992,108.026 Z M190.75,161.08 C193.989,159.194 194.671,159.405 206,165.8 C207.925,166.886 211.783,169.064 214.573,170.638 C217.363,172.212 221.638,174.846 224.073,176.491 C230.868,181.081 241.752,187.514 249.495,191.517 C253.343,193.507 257.203,195.779 258.074,196.567 C258.945,197.355 259.968,198 260.349,198 C260.729,198 262.822,199.125 265,200.5 C267.178,201.875 269.444,203 270.036,203 C270.627,203 275.55,207.387 280.975,212.75 C286.401,218.113 292.788,223.867 295.17,225.538 C299.47,228.554 299.502,228.621 299.796,235.288 C300.039,240.803 299.816,242 298.546,242 C297.696,242 296.277,241.148 295.394,240.106 C283.858,226.497 258.877,205 254.6,205 C253.975,205 251.672,203.763 249.482,202.251 C247.292,200.74 242.8,198.127 239.5,196.446 C217.524,185.249 210.254,180.842 203.778,174.793 C202.134,173.257 199.94,172 198.903,172 C197.866,172 196.455,171.1 195.768,170 C195.081,168.9 193.817,168 192.959,168 C189.228,168 187.604,162.913 190.75,161.08 Z M215.277,73.199 C217.059,70.996 221.246,72.231 223.163,75.527 C224.743,78.244 224.787,79.113 223.592,84.027 C221.426,92.933 216.624,102 214.074,102 C213.279,102 211.567,102.997 210.27,104.217 C208.401,105.972 207.555,106.204 206.205,105.331 C203.97,103.888 204.447,99.036 207.04,96.84 C208.118,95.927 209,94.744 209,94.212 C209,93.68 209.629,92.723 210.399,92.084 C211.71,90.996 212.053,89.574 213.612,78.75 C213.949,76.412 214.698,73.915 215.277,73.199 Z M150.455,113.05 C153.327,109.876 155.97,110.569 160.94,115.8 C163.448,118.44 166.768,121.145 168.318,121.81 C171.975,123.379 171.687,127.044 167.8,128.405 C165.684,129.146 163.849,128.818 159.328,126.888 C154.477,124.818 153.162,123.682 151.078,119.763 C148.656,115.207 148.641,115.054 150.455,113.05 Z"/>
</svg>

