<svg xmlns="http://www.w3.org/2000/svg" width="300" height="300" viewBox="0 0 300 300" version="1.1">
  <defs/>
  <path d="M190.71,53.014 C192.118,51.906 193.604,51 194.012,51 C195.846,51 197.063,54.189 199.546,65.5 C199.908,67.15 200.348,73.137 200.524,78.804 C200.708,84.726 201.341,89.706 202.014,90.517 C202.658,91.292 203.427,95.656 203.724,100.213 C204.021,104.771 204.65,108.99 205.121,109.589 C205.592,110.188 205.946,112.438 205.907,114.589 C205.867,116.74 206.532,124.8 207.384,132.5 C214.038,192.644 214.482,200.031 213.63,236.5 C213.248,252.861 212.691,261.388 211.375,271 C211.037,273.475 210.788,277.059 210.824,278.965 C210.859,280.871 210.522,282.896 210.074,283.465 C209.627,284.034 208.961,286.167 208.594,288.203 C208.118,290.847 206.741,292.922 203.783,295.453 C199.818,298.847 199.314,298.999 192.07,298.969 C185.808,298.943 183.809,298.512 180.5,296.474 C178.3,295.119 175.896,294.008 175.158,294.005 C174.42,294.002 172.62,293.075 171.158,291.944 C168.489,289.879 164.84,287.316 157.609,282.428 C153.058,279.351 138,264.032 138,262.479 C138,261.895 135.975,259.429 133.5,257 C131.025,254.571 129,251.766 129,250.767 C129,249.729 127.882,248.525 126.391,247.959 C124.24,247.141 123.997,246.709 125.003,245.496 C126.48,243.717 125.626,241 123.59,241 C121.453,241 120.638,239.141 122.036,237.456 C125.335,233.482 132.743,237.338 136.809,245.146 C138.055,247.541 139.444,250.175 139.896,251 C140.347,251.825 141.536,254.057 142.538,255.959 C143.54,257.861 148.216,263.181 152.93,267.78 C164.926,279.484 172.111,284.884 178.641,287.103 C180.763,287.824 183.208,288.993 184.073,289.702 C184.938,290.41 187.668,291.267 190.139,291.606 C193.961,292.129 195.018,291.869 197.225,289.861 C202.078,285.444 204.5,264.349 204.5,226.5 C204.5,203.825 203.415,180.102 201.938,170.5 C201.43,167.2 201.012,161.208 201.008,157.184 C201.003,153.161 200.462,148.886 199.804,147.684 C199.146,146.483 198.487,143.025 198.341,140 C197.819,129.213 196.613,120.355 195.211,117 C194.866,116.175 194.484,113.7 194.362,111.5 C194.142,107.536 193.623,103.192 190.478,79 C187.708,57.694 187.729,55.358 190.71,53.014 Z M154.628,95.012 C159.749,92.456 162.994,92.521 167.06,95.261 C170.946,97.88 171.763,100.154 171.9,108.727 C171.983,113.873 171.475,115.925 168.979,120.539 C167.317,123.61 166.207,126.525 166.511,127.017 C167.628,128.824 171.499,126.281 172.035,123.387 C172.495,120.908 172.989,120.53 175.535,120.713 C179.84,121.021 183.111,125.136 182.339,129.272 C181.566,133.41 177.311,138 174.247,138 C170.811,138 168,139.779 168,141.954 C168,143.064 166.462,144.757 164.25,146.08 C162.188,147.314 157.948,150.501 154.829,153.162 C151.71,155.823 148.538,158 147.781,158 C147.023,158 144.85,159.561 142.952,161.468 C134.894,169.565 130.365,164.309 129.574,145.94 C129.384,141.525 128.573,137.074 127.624,135.24 C126.718,133.489 126,129.73 126,126.744 C126,121.135 123.6,116.509 119.028,113.307 C117.305,112.1 117.052,111.199 117.586,108.172 C118.539,102.765 119.786,101.826 124.342,103.084 C127.022,103.824 128.745,105.149 130.172,107.567 C132.663,111.789 133.816,111.846 137.563,107.931 C141.677,103.632 150.036,97.304 154.628,95.012 Z M108.149,66.597 C112.205,62.288 113.81,62.149 117.313,65.805 C120.803,69.448 120.712,72.828 117,77.5 C115.35,79.576 114,82.058 114,83.015 C114,83.972 113.303,85.334 112.45,86.041 C109.047,88.866 107.274,95.179 107.643,103.163 C107.989,110.673 107.935,110.877 104.921,113.413 C103.23,114.836 100.643,116.263 99.173,116.584 C97.703,116.905 95.938,117.34 95.25,117.552 C93.842,117.986 93.535,122.595 94.86,123.414 C95.334,123.706 95.741,127.122 95.765,131.005 C95.789,134.888 96.256,138.613 96.802,139.283 C97.348,139.952 98.041,142.75 98.343,145.5 C99.642,157.336 100.699,162.01 102.534,164.037 C104.379,166.077 104.388,166.243 102.705,167.474 C101.234,168.549 101.128,169.186 102.071,171.257 C102.902,173.081 102.911,174.298 102.103,175.808 C101.496,176.941 101,180.864 101,184.524 C101,190.176 100.585,191.768 98.25,195.071 C96.608,197.394 94.118,199.427 92.068,200.118 C88.834,201.208 88.473,201.094 85.844,198.151 C82.639,194.565 82.871,193.098 87.031,190.641 C87.73,190.228 88.285,189.902 88.723,189.46 C90.411,187.755 90.354,184.322 90.098,167.5 C89.978,159.644 89.359,152.917 88.533,150.5 C87.781,148.3 86.408,142.225 85.481,137 C84.554,131.775 83.167,126.503 82.398,125.285 C80.614,122.459 80.481,109.439 82.225,108.361 C82.898,107.945 85.882,107.274 88.856,106.871 C91.83,106.467 94.613,105.769 95.04,105.318 C96.22,104.076 99.496,87.162 98.709,86.376 C98.331,85.997 95.654,87.186 92.761,89.017 C89.867,90.848 83.9,94.098 79.5,96.239 C75.1,98.379 70.825,100.553 70,101.07 C62.664,105.662 50.678,109.76 42.01,110.64 C36.861,111.163 36.316,111.005 33.687,108.229 L30.874,105.259 L33.187,102.599 C34.992,100.524 36.709,99.814 41,99.37 C46.735,98.776 57.343,95.856 62.5,93.452 C64.15,92.682 66.625,91.584 68,91.012 C69.375,90.439 71.85,89.084 73.5,88 C75.15,86.916 77.4,85.627 78.5,85.134 C79.6,84.642 83.212,82.498 86.526,80.369 C89.84,78.241 93.44,75.932 94.526,75.237 C95.612,74.543 98.367,73.116 100.649,72.066 C102.932,71.016 106.307,68.555 108.149,66.597 Z M5.698,130.782 C6.584,129.802 8.557,129 10.082,129 C13.277,129 17.743,133.794 20.998,140.719 C22.105,143.074 23.263,145 23.571,145 C25,145 28.481,142.505 32.722,138.442 C35.272,135.999 38.033,134 38.858,134 C39.683,134 41.806,133.476 43.576,132.836 C48.525,131.047 52.729,133.203 55.106,138.748 C57.154,143.525 57.609,149.506 56,150.5 C54.006,151.732 54.897,159.76 57.444,163.513 L59.888,167.114 L56.446,170.763 C54.553,172.77 52.771,175.145 52.487,176.04 C52.203,176.935 48.847,179.801 45.028,182.41 C41.21,185.019 37.811,188.019 37.476,189.077 C37.135,190.151 35.96,191 34.815,191 C33.687,191 31.221,192.355 29.335,194.01 C26.557,196.45 25.541,196.825 23.976,195.987 C20.077,193.9 19.743,191.441 22.595,185.813 C24.88,181.303 25.164,179.767 24.676,174.545 C23.703,164.128 17.244,150.582 9.536,142.793 C7.907,141.146 6.013,138.171 5.329,136.181 C4.265,133.086 4.318,132.306 5.698,130.782 Z M198.75,8.716 C200.262,8.487 201.543,8.232 201.596,8.15 C202.053,7.44 208.406,11.69 209.59,13.497 C210.969,15.601 210.926,16.145 209.117,19.521 C206.227,24.912 203.959,26.665 194.808,30.582 C186.414,34.175 179.663,37.574 177,39.549 C174.117,41.687 166.444,43.859 159.496,44.503 C152.829,45.122 152.374,45.027 150.021,42.523 C147.7,40.052 147.642,39.729 149.061,37.196 C150.838,34.025 158.654,29.76 161.444,30.44 C164.224,31.118 173.061,28.012 173.774,26.107 C174.787,23.402 177.362,21.951 180.245,22.462 C182.273,22.821 183.839,22.208 186.245,20.113 C188.035,18.553 190.963,16.528 192.75,15.613 C195.056,14.432 196,13.249 196,11.541 C196,9.682 196.627,9.038 198.75,8.716 Z M150.871,110.788 C147.775,112.776 144.075,116.224 142.649,118.451 C141.223,120.678 139.29,123.547 138.355,124.827 C136.896,126.823 136.83,127.641 137.893,130.581 C138.575,132.466 138.853,134.886 138.513,135.96 C137.471,139.243 139.016,145.144 140.826,144.795 C143.151,144.347 147.928,136.942 147.967,133.725 C147.991,131.688 148.677,130.693 150.548,129.982 C152.012,129.425 153.708,127.549 154.533,125.575 C155.323,123.684 156.427,121.854 156.985,121.509 C157.543,121.164 158,119.768 158,118.406 C158,117.044 158.668,114.91 159.484,113.665 C160.801,111.655 160.794,111.151 159.427,109.2 C158.58,107.99 157.575,107.039 157.193,107.087 C156.812,107.135 153.967,108.801 150.871,110.788 Z M39.383,148.272 C36.112,150.169 30,155.821 30,156.949 C30,157.505 30.724,159.769 31.609,161.98 C33.248,166.078 37,167.758 37,164.394 C37,163.511 38.125,161.903 39.5,160.821 C40.875,159.74 42,157.818 42,156.55 C42,155.282 42.697,153.667 43.548,152.96 C45.434,151.395 45.069,147.611 43,147.282 C42.175,147.152 40.547,147.597 39.383,148.272 Z"/>
</svg>

