<svg xmlns="http://www.w3.org/2000/svg" width="300" height="300" viewBox="0 0 300 300" version="1.1">
  <defs/>
  <path d="M113.969,32.059 C115.782,28.67 120.606,29.305 123.011,33.25 C125.333,37.058 125.731,48.278 123.858,57.114 C123.23,60.076 122.602,64.075 122.464,66 C122.325,67.925 121.063,72.336 119.659,75.802 C117.4,81.382 117.292,82.175 118.715,82.721 C119.842,83.153 122.775,80.824 128.539,74.919 C141.85,61.281 144.011,59.967 153.935,59.469 L159.5,59.19 L165.167,65.079 C171.167,71.312 177,80.468 177,83.649 C177,84.697 177.616,86.443 178.37,87.527 C179.123,88.612 180.302,93.55 180.991,98.5 C181.679,103.45 182.725,108.4 183.316,109.5 C183.906,110.6 184.543,118.025 184.731,126 C185.201,145.898 185.202,146.114 184.916,149.5 C184.776,151.15 184.763,154.3 184.887,156.5 C185.156,161.283 184.268,175.607 183.058,186 C182.578,190.125 182.134,197.325 182.072,202 C182.005,206.975 181.375,211.744 180.553,213.5 C179.78,215.15 178.62,219.875 177.975,224 C177.329,228.125 176.427,232.4 175.969,233.5 C175.512,234.6 174.845,237.75 174.489,240.5 C173.553,247.719 166.586,261.368 161.97,265.024 C156.596,269.28 149.841,269.241 144.388,264.921 C138.625,260.357 135.637,257.035 132.621,251.841 C131.134,249.279 129.325,246.955 128.602,246.677 C127.05,246.082 123.665,236.351 124.525,234.959 C125.475,233.422 128.559,233.85 130.224,235.75 C131.068,236.712 132.543,239.046 133.501,240.936 C136.354,246.561 144.262,255.728 147.776,257.483 C151.918,259.551 154.562,258.764 158.796,254.2 C163.076,249.587 162.866,246.395 158.305,246.746 C154.067,247.073 150,245.444 150,243.419 C150,242.522 151.125,240.452 152.5,238.818 C155.196,235.614 155.536,233.044 155.193,218.5 C155.089,214.1 154.329,208.803 153.502,206.73 C152.676,204.656 152,201.913 152,200.633 C152,196.851 149.075,192.057 146.35,191.373 C143.366,190.624 139.265,192.59 138.449,195.16 C138.128,196.172 137.07,197 136.097,197 C135.125,197 132.276,199.025 129.765,201.5 C127.255,203.975 124.794,206 124.296,206 C123.799,206 121.866,207.575 120,209.5 C117.64,211.935 115.714,213 113.672,213 C112.057,213 109.108,214.012 107.118,215.25 C102.537,218.099 95.238,220.043 92.03,219.269 C84.195,217.378 81,212.815 81,203.52 C81,198.981 81.318,198.168 83.565,196.965 C86.982,195.136 89.346,196.657 90,201.105 C90.275,202.975 91.261,205.578 92.19,206.89 C93.57,208.836 94.451,209.16 96.987,208.653 C100.071,208.036 107.618,203.395 109.7,200.834 C111.124,199.085 112.221,175.254 110.915,174.447 C110.379,174.116 108.363,175.23 106.435,176.923 C104.508,178.615 102.466,180 101.898,180 C101.331,180 99.434,181.057 97.683,182.349 C94.065,185.02 88.169,187.429 82.934,188.376 C79.962,188.914 78.984,188.612 77.058,186.562 C73.456,182.728 74.429,181.55 85.621,176.198 C87.887,175.114 90.052,173.726 90.43,173.113 C90.808,172.501 92.415,172 94,172 C95.585,172 97.153,171.561 97.485,171.024 C97.817,170.488 100.468,168.469 103.376,166.538 C111.185,161.355 112.32,159.76 112.49,153.732 C112.572,150.854 112.993,147.264 113.427,145.753 C114.177,143.139 114.077,143.035 111.338,143.582 C108.879,144.074 108.009,143.594 105.346,140.281 C101.966,136.074 101.41,131.868 102.628,119.694 C103.209,113.89 103.21,113.889 106.355,114.194 C108.85,114.437 109.569,115.016 109.835,117 C110.019,118.375 110.581,119.928 111.085,120.45 C111.588,120.973 112,122.633 112,124.141 C112,125.649 112.458,127.165 113.017,127.511 C113.576,127.856 116.889,125.633 120.378,122.57 C127.095,116.673 129.892,115.835 133.777,118.557 C138.1,121.584 136.222,126.129 126.885,135.244 C120.535,141.442 120.476,141.551 120.488,147 C120.499,152.17 120.647,152.5 122.955,152.5 C124.744,152.5 125.576,151.822 126.021,150 C126.42,148.372 127.222,147.603 128.323,147.795 C129.252,147.958 131.653,147.638 133.658,147.084 C136.882,146.194 137.642,146.362 140.228,148.539 C141.837,149.892 143.6,151 144.146,151 C144.692,151 144.995,151.929 144.82,153.064 C144.49,155.192 140.465,157.708 129.707,162.512 C126.113,164.116 123.605,165.934 123.102,167.299 C121.954,170.413 121.744,188.723 122.848,189.406 C123.352,189.718 124.901,189.079 126.29,187.986 C127.679,186.894 129.237,186 129.753,186 C130.268,186 131.478,185.129 132.441,184.065 C133.404,183.001 136.139,181.215 138.518,180.097 C143.884,177.574 144.497,176.613 143.018,173.042 C142.059,170.729 142.139,169.633 143.447,167.103 C144.386,165.286 145.838,164 146.949,164 C149.945,164 155,168.823 155,171.681 C155,173.058 155.9,175.329 157,176.727 C158.219,178.277 159,180.784 159,183.148 C159,185.282 159.395,187.809 159.877,188.764 C161.301,191.582 163,197.489 163,199.621 C163,200.709 163.423,202.028 163.941,202.55 C164.458,203.073 165.008,209.912 165.163,217.75 C165.494,234.491 167.019,236.738 168.895,223.25 C171.234,206.433 173.1,194.647 173.537,193.94 C174.012,193.171 175.524,152.443 175.261,147.5 C173.502,114.496 171.409,96.49 168.706,91.096 C167.768,89.224 167,87.103 167,86.382 C167,85.66 166.064,84.57 164.921,83.958 C163.778,83.346 162.383,81.53 161.823,79.923 C161.263,78.315 160.446,77 160.007,77 C159.569,77 158.15,75.883 156.855,74.517 C153.754,71.248 151.489,71.363 147.347,75 C145.468,76.65 143.368,78 142.681,78 C141.994,78 140.632,79.352 139.656,81.005 C138.68,82.658 136.67,84.637 135.19,85.404 C133.711,86.171 130.868,88.531 128.874,90.649 C123.932,95.897 112.159,105 110.312,105 C109.485,105 107.531,105.755 105.97,106.677 C103.618,108.066 102.863,108.131 101.566,107.054 C99.816,105.603 99.458,101.453 101,100.5 C101.55,100.16 102,99.113 102,98.173 C102,97.233 103.028,94.897 104.285,92.982 C106.763,89.206 108.474,83.449 109.567,75.205 C109.95,72.317 110.654,69.714 111.132,69.419 C111.609,69.123 112,67.199 112,65.141 C112,63.083 112.42,60.973 112.933,60.45 C113.446,59.928 114.053,56.305 114.282,52.399 C114.51,48.494 115.029,44.762 115.435,44.106 C115.84,43.449 115.735,42.37 115.202,41.706 C113.507,39.6 112.818,34.209 113.969,32.059 Z M54,118.949 C56.13,117.769 61.784,117.814 64.055,119.03 C66.567,120.374 69,125.157 69,128.75 C69,130.318 69.472,132.072 70.048,132.648 C70.739,133.339 70.773,134.514 70.147,136.098 C68.626,139.95 66,149.11 66,150.565 C66,151.3 65.41,152.26 64.69,152.7 C62.686,153.923 60,158.232 60,160.223 C60,161.438 60.768,162 62.427,162 C63.85,162 65.701,163.076 66.9,164.6 L68.945,167.2 L65.723,171.082 C63.95,173.217 61.791,174.972 60.924,174.982 C60.058,174.992 58.337,176.076 57.102,177.392 C55.866,178.708 52.75,180.567 50.177,181.523 C47.605,182.48 45.072,183.654 44.55,184.131 C44.027,184.609 42.597,185 41.371,185 C35.866,185 34.005,177.223 38.5,173 C39.875,171.708 41,170.03 41,169.271 C41,167.932 37.921,160.284 35.965,156.764 C35.434,155.809 35,154.285 35,153.378 C35,152.471 33.875,150.687 32.5,149.412 C31.011,148.032 29.986,145.964 29.965,144.298 C29.939,142.235 28.365,139.942 23.977,135.574 C16.858,128.489 16.069,126.62 18.916,123.59 C20.508,121.895 21.803,121.464 24.233,121.821 C27.751,122.337 32.567,126.512 33.152,129.552 C33.805,132.94 36.696,132.285 40.84,127.809 C43.034,125.439 46.556,122.663 48.665,121.64 C50.774,120.617 53.175,119.406 54,118.949 Z M53.408,131.433 C49.107,132.917 41,139.763 41,141.912 C41,142.89 41.9,144.505 43,145.5 C44.1,146.495 45,148.054 45,148.964 C45,149.873 45.661,151.491 46.468,152.559 C47.276,153.626 47.951,155.287 47.968,156.25 C47.986,157.213 48.419,158 48.932,158 C50.31,158 53.994,152.48 54.04,150.346 C54.062,149.331 55.411,146.025 57.039,143 C60.432,136.696 60.733,133.926 58.25,131.838 C56.87,130.678 55.845,130.592 53.408,131.433 Z"/>
</svg>

