<svg xmlns="http://www.w3.org/2000/svg" width="300" height="300" viewBox="0 0 300 300" version="1.1">
  <defs/>
  <path d="M149,2.194 C152.603,0.55 155.642,0.127 164.25,0.071 C171.191,0.025 175,0.375 175,1.059 C175,1.641 173.696,3.778 172.101,5.809 C170.507,7.839 168.879,10.625 168.483,12 C168.087,13.375 167.087,15.271 166.26,16.213 C165.434,17.155 165.035,18.648 165.374,19.532 C166.063,21.328 167.776,21.008 174.673,17.796 C178.634,15.951 178.977,15.939 181.448,17.558 C182.88,18.496 184.875,20.442 185.882,21.882 C188.058,24.997 189.447,32.605 188.002,33.499 C187.451,33.839 187,35.604 187,37.419 C187,39.292 185.918,42.315 184.5,44.405 C183.125,46.431 182,48.728 182,49.509 C182,51.503 178.776,53.002 173.024,53.684 C168.356,54.236 168.072,54.134 167.453,51.669 C166.838,49.217 163.533,47.133 162.268,48.399 C161.948,48.719 162.275,52.698 162.996,57.24 C164.282,65.345 164.465,98.518 163.359,123 L162.884,133.5 L170.692,133.651 C174.986,133.734 180.525,134.515 183,135.386 C185.475,136.258 188.175,136.983 189,136.998 C190.569,137.026 199.233,146.321 202.25,151.212 C203.212,152.772 204,155.297 204,156.824 C204,158.351 204.524,160.124 205.165,160.765 C205.806,161.406 206.461,164.362 206.622,167.334 C206.947,173.363 203.782,193.35 202.198,195.267 C201.637,195.945 200.872,198.3 200.496,200.5 C200.12,202.7 198.955,205.719 197.907,207.21 C196.858,208.7 196,210.325 196,210.822 C196,211.319 194.618,215.049 192.928,219.112 C191.238,223.176 189.168,228.525 188.327,231 C187.486,233.475 185.98,236.4 184.98,237.5 C183.98,238.6 182.84,241.3 182.447,243.5 C182.054,245.7 180.313,249.525 178.579,252 C175.239,256.767 172.014,263.257 171.979,265.284 C171.967,265.953 170.179,267.758 168.005,269.296 C165.352,271.173 163.696,273.31 162.97,275.796 C162.358,277.889 160.413,280.719 158.496,282.303 C155.114,285.098 155.096,285.101 151.926,283.303 C139.597,276.309 136.082,273.167 132.311,265.765 C128.543,258.37 126.976,252 128.925,252 C130.617,252 139.427,260.931 141.256,264.5 C143.039,267.98 150.148,274 152.473,274 C153.347,274 154.345,273.212 154.69,272.25 C155.034,271.288 156.708,268.475 158.408,266 C162.562,259.954 163.554,258.273 166.081,253 C167.267,250.525 168.637,247.825 169.126,247 C169.615,246.175 170.511,244.375 171.117,243 C171.723,241.625 174.345,236.225 176.942,231 C179.54,225.775 182.689,218.35 183.94,214.5 C185.191,210.65 187.225,205.25 188.459,202.5 C191.876,194.885 193.224,190.865 193.741,186.744 C193.999,184.678 194.614,182.739 195.106,182.435 C195.598,182.131 196,177.739 196,172.676 C196,165.381 195.585,162.696 194,159.739 C192.9,157.686 192,155.434 192,154.734 C192,152.714 183.954,144 182.089,144 C181.16,144 179.894,143.494 179.275,142.875 C178.523,142.123 176.008,141.98 171.667,142.445 C161.808,143.501 161.511,144.066 161.451,161.856 C161.424,169.91 161.691,177.625 162.045,179 C162.399,180.375 162.072,183.278 161.318,185.45 C158.684,193.041 154.465,195.165 151.378,190.454 C149.958,188.287 149.831,186.54 150.525,178.704 C150.974,173.642 151.377,165 151.421,159.5 C151.498,149.762 151.439,149.491 149.17,149.17 C146.694,148.819 140.013,152.705 136.298,156.657 C135.087,157.946 133.252,159 132.222,159 C131.192,159 129.292,160.125 128,161.5 C126.708,162.875 125.125,164 124.481,164 C123.837,164 122.495,164.9 121.5,166 C120.505,167.1 118.927,168 117.995,168 C117.063,168 114.436,169.35 112.159,171 C109.881,172.65 107.745,174 107.413,174 C107.081,174 105.399,175.012 103.675,176.25 C101.952,177.487 99.776,178.95 98.84,179.5 C97.904,180.05 94.245,183.088 90.709,186.25 C87.172,189.413 83.933,192 83.51,192 C83.088,192 80.999,193.575 78.868,195.5 C76.738,197.425 74.433,199.009 73.747,199.019 C73.061,199.03 70.705,200.605 68.511,202.519 C66.317,204.434 63.903,206 63.147,206 C61.241,206 62.512,214.152 65.073,218.352 C66.129,220.083 66.994,222.23 66.996,223.123 C67.001,225.196 70.756,233.731 72.002,234.501 C72.522,234.823 72.942,236.754 72.934,238.793 C72.927,240.832 73.202,244.551 73.546,247.057 C74.223,251.993 72.697,254.475 69.379,253.833 C66.949,253.362 62.04,244.983 61.968,241.185 C61.951,240.258 61.276,238.626 60.468,237.559 C59.661,236.491 59,234.219 59,232.509 C59,230.799 58.615,228.972 58.145,228.45 C57.675,227.927 56.04,223.45 54.513,218.5 C52.986,213.55 51.163,208.825 50.463,208 C49.762,207.175 48.021,203.003 46.594,198.728 C44.053,191.115 39.762,183.289 37.26,181.7 C34.075,179.679 37.328,172 41.369,172 C44.208,172 46.69,175.326 53.144,187.784 C55.912,193.128 58.367,197.692 58.599,197.927 C58.831,198.162 60.254,197.236 61.76,195.87 C63.267,194.503 66.184,192.286 68.243,190.943 C70.302,189.599 71.989,188.162 71.993,187.75 C71.997,187.338 72.59,187 73.312,187 C74.034,187 75.622,185.65 76.842,184 C78.062,182.35 79.58,181 80.215,181 C80.851,181 82.3,180.152 83.436,179.115 C84.571,178.078 89.325,174.722 94,171.656 C98.675,168.591 103.696,165.164 105.158,164.041 C106.62,162.919 108.344,162 108.99,162 C109.635,162 112.039,160.472 114.332,158.604 C118.674,155.066 123.058,152.298 129,149.344 C132.551,147.578 136.871,144.809 140.5,141.973 C141.6,141.113 144.3,139.81 146.5,139.078 C153.15,136.864 153.184,136.786 152.994,124.559 C152.899,118.476 152.843,108.55 152.868,102.5 C152.919,90.128 151.284,67.352 148.429,40.668 C147.877,35.501 148.064,34.561 150.074,32.421 C151.689,30.702 152.415,28.586 152.592,25.085 C152.729,22.379 153.327,19.258 153.921,18.148 C155.504,15.189 155.258,12 153.445,12 C152.59,12 149.874,12.918 147.41,14.041 C141.726,16.63 130.657,17.79 128.524,16.02 C127.686,15.324 127,13.449 127,11.853 C127,8.561 128.506,7.736 138.485,5.559 C141.793,4.837 146.525,3.323 149,2.194 Z M88.153,2.991 C89.202,-0.017 89.367,-0.086 94.854,0.203 C100.4,0.496 100.513,0.563 102.807,4.954 C104.686,8.549 104.929,9.86 104.067,11.751 C103.48,13.04 103,15.614 103,17.471 C103,20.825 103.03,20.846 107.436,20.676 C111.127,20.533 112.402,21.008 115.022,23.502 C121.012,29.205 122.301,33.2 122.089,45.417 C121.932,54.436 121.56,56.809 119.949,59.071 C118.877,60.577 118,62.752 118,63.904 C118,65.433 117.369,66 115.669,66 C112.462,66 99.719,79.237 98.061,84.291 C96.69,88.47 97.178,91 99.354,91 C101.109,91 103.874,87.009 106.5,80.682 C107.629,77.961 109.661,75.161 111.168,74.25 C113.725,72.704 113.987,72.753 117.504,75.435 C120.075,77.396 121.025,78.796 120.68,80.116 C120.409,81.151 120.558,82.227 121.012,82.507 C123.047,83.765 137,106.581 137,108.651 C137,108.843 136.127,109 135.059,109 C133.991,109 132.84,109.45 132.5,110 C130.383,113.426 121.611,106.515 117.26,97.993 C115.742,95.021 114.009,92.443 113.41,92.264 C112.81,92.086 109.942,95.137 107.036,99.045 C101.942,105.896 94.388,111.94 90.869,111.981 C86.97,112.026 81.597,100.395 84.116,97.361 C84.803,96.533 85.443,89.208 85.765,78.489 C86.201,63.955 86.023,60.335 84.718,57.236 C82.28,51.445 81.733,45.466 83.507,43.994 C84.328,43.313 85,42.112 85,41.326 C85,40.539 85.841,38.232 86.869,36.198 C92.157,25.733 93.005,23.257 93.003,18.285 C93.001,14.055 92.613,12.863 90.952,11.974 C88.015,10.403 86.861,6.697 88.153,2.991 Z M55.177,6.25 L55.026,0 L60.513,0 C65.999,0 66,0 66.182,3.25 C66.528,9.401 65.811,18.502 64.906,19.45 C64.408,19.973 64,21.422 64,22.67 C64,25.238 59.519,35.561 57.997,36.502 C57.449,36.841 57,38.708 57,40.651 C57,42.67 56.143,45.274 55,46.727 C53.9,48.126 53,50.334 53,51.635 C53,53.586 53.515,54 55.941,54 C57.559,54 59.16,53.55 59.5,53 C60.481,51.413 64.592,51.837 66.782,53.75 C68.96,55.651 70.63,64.492 69.002,65.499 C68.481,65.821 67.553,67.946 66.94,70.222 C66.327,72.498 64.515,75.585 62.913,77.081 C61.311,78.578 60,80.506 60,81.366 C60,82.226 59.1,83.411 58,84 C56.9,84.589 56,85.523 56,86.076 C56,86.629 55.019,88.407 53.821,90.028 C51.228,93.536 51.767,94.519 55.38,92.873 C58.066,91.649 61,87.034 61,84.033 C61,83.121 62.299,81.13 63.886,79.609 L66.773,76.843 L70.743,78.869 C74.596,80.835 74.729,81.075 75.274,87.083 C75.873,93.688 72.996,108.079 70.492,111 C69.785,111.825 69.045,113.38 68.848,114.456 C68.646,115.559 67.401,116.667 65.995,116.996 C64.234,117.407 63.409,118.355 63.191,120.216 C63.02,121.667 62.233,123.392 61.441,124.049 C60.648,124.707 60,125.811 60,126.504 C60,128.394 50.976,136.789 48.194,137.488 C45.651,138.126 42,135.77 42,133.49 C42,132.83 43.238,131.212 44.75,129.895 C48.076,126.999 51.99,121.564 52.028,119.79 C52.043,119.081 53.393,116.732 55.028,114.572 C57.762,110.958 58.958,107 57.316,107 C56.939,107 54.802,107.878 52.566,108.951 C50.33,110.025 46.375,111.465 43.777,112.152 C39.316,113.331 38.915,113.269 36.527,111.026 C32.229,106.988 33.482,99.609 39.405,94.076 C40.832,92.742 42,91.257 42,90.775 C42,90.293 44.739,86.256 48.086,81.805 C51.621,77.104 54.401,72.305 54.717,70.356 C55.336,66.543 54.169,66.051 51.5,69 C50.505,70.1 49.004,71 48.166,71 C47.328,71 45.101,71.557 43.217,72.238 C39.959,73.416 39.675,73.331 37.401,70.488 C34.684,67.092 34.236,61.879 36.5,60 C37.325,59.315 38,58.094 38,57.285 C38,56.477 38.9,54.671 40,53.273 C41.1,51.874 42,49.946 42,48.988 C42,48.029 42.636,46.717 43.414,46.072 C45.368,44.45 48.935,36.621 50.731,30.013 C54.667,15.534 55.317,12.059 55.177,6.25 Z M115.5,193.489 C117.15,192.76 120.646,192.126 123.27,192.082 C128.883,191.986 135.141,195.397 137.33,199.745 C139.07,203.202 138.377,209.605 135.88,213.145 C132.882,217.394 133.067,220.03 136.5,221.968 C138.15,222.9 139.463,224.414 139.417,225.331 C139.177,230.128 138.809,231.079 136.643,232.498 C135.19,233.45 131.262,234.184 126.393,234.412 C116.66,234.868 108.026,235.998 105.888,237.095 C103.603,238.268 100.416,234.456 99.54,229.5 C99.15,227.3 97.97,224.097 96.916,222.382 C95.862,220.667 95,218.446 95,217.446 C95,216.447 94.062,214.631 92.916,213.411 C90.31,210.637 88.695,204.072 90.179,202.284 C92.216,199.83 95.661,200.908 99.654,205.25 C101.803,207.588 104.165,210.963 104.902,212.75 C105.639,214.537 106.638,216 107.121,216 C107.605,216 108,217.35 108,219 C108,221.448 108.416,222 110.26,222 C111.503,222 113.734,220.875 115.217,219.5 C116.699,218.125 118.563,217 119.358,217 C120.796,217 124.234,212.144 126.736,206.575 C128.443,202.778 127.066,201.193 123.48,202.827 C122.064,203.472 120.14,204.01 119.203,204.022 C118.266,204.034 116.375,204.924 115,206 C111.848,208.466 109.351,208.524 108.087,206.162 C106.02,202.299 109.665,196.068 115.5,193.489 Z M95.781,122.75 C96.622,121.787 98.162,121 99.203,121 C101.221,121 106,125.526 106,127.437 C106,128.066 103.3,132.26 100,136.756 C96.7,141.252 94,145.363 94,145.892 C94,146.422 92.787,147.809 91.305,148.975 C87.701,151.81 83.819,151.309 82.611,147.852 C81.829,145.613 82.173,144.613 84.843,141.374 C86.579,139.268 88,137.042 88,136.427 C88,135.813 88.883,134.511 89.962,133.534 C91.042,132.557 92.449,130.125 93.089,128.129 C93.729,126.133 94.941,123.713 95.781,122.75 Z M103.79,37.32 C102.531,38.596 100.263,40.407 98.75,41.343 C97.237,42.28 96,43.909 96,44.964 C96,46.019 95.55,47.16 95,47.5 C93.415,48.48 93.837,50 95.695,50 C96.628,50 98.54,48.931 99.945,47.625 C101.35,46.318 103.829,44.825 105.454,44.307 C110.201,42.792 111.305,35.113 106.79,35.015 C106.4,35.007 105.05,36.044 103.79,37.32 Z M170.836,31.138 C168.642,31.938 166.203,34.849 167.226,35.446 C167.377,35.534 168.813,36.429 170.417,37.435 C173.25,39.212 173.373,39.211 174.709,37.383 C176.22,35.317 176.085,30.797 174.5,30.41 C173.95,30.276 172.301,30.604 170.836,31.138 Z"/>
</svg>

