<svg xmlns="http://www.w3.org/2000/svg" width="300" height="300" viewBox="0 0 300 300" version="1.1">
  <defs/>
  <path d="M136.5,51.684 C145.496,49.65 152.783,56.363 152.927,66.817 C152.986,71.081 152.482,72.813 150.381,75.567 C148.941,77.455 146.898,79 145.841,79 C144.785,79 142.207,80.687 140.113,82.75 C138.019,84.813 134.407,87.85 132.086,89.5 C127.906,92.472 125.948,93.844 125.039,95.723 C124.223,97.409 124.252,99.503 124.278,103.528 C124.326,111.061 124.236,111.359 121.139,113.892 C118.936,115.693 117.758,117.69 117.328,120.348 C116.783,123.721 116.168,124.428 112.353,126.063 C109.471,127.299 108,128.55 108,129.768 C108,130.875 105.647,133.266 102.082,135.78 C96.675,139.593 95.898,139.86 93.082,138.879 C91.387,138.288 90,137.173 90,136.402 C90,135.511 88.907,135 87,135 C84.635,135 84,134.563 84,132.934 C84,130.502 82.463,127.413 79.865,124.624 C78.839,123.524 78,121.812 78,120.82 C78,119.829 76.425,116.954 74.5,114.432 C70.4,109.061 70.335,108.665 73.104,105.896 C75.721,103.279 80.672,103.949 83.186,107.261 C84.808,109.397 85.035,109.425 89.13,107.991 C92.382,106.852 93.992,105.465 95.944,102.117 C97.903,98.758 100.01,96.947 104.961,94.367 C108.514,92.515 112.564,90.997 113.961,90.993 C117.011,90.985 121.07,88.452 124.001,84.725 C125.183,83.223 129.037,79.934 132.567,77.415 C139.285,72.621 143,68.681 143,66.349 C143,65.589 141.401,64.205 139.446,63.273 C136.669,61.949 135.521,61.831 134.196,62.736 C128.487,66.633 120.635,71 119.336,71 C118.5,71 116.62,71.924 115.158,73.054 C106.464,79.771 104.511,81 102.537,81 C101.333,81 99.258,82.17 97.924,83.599 C96.591,85.028 93.402,87.266 90.838,88.571 C88.274,89.877 85.205,92.307 84.02,93.972 C82.834,95.638 80.994,97 79.932,97 C78.869,97 77.99,97.338 77.978,97.75 C77.965,98.162 75.722,100.075 72.993,102 C70.264,103.925 67.737,106.387 67.378,107.471 C67.019,108.556 64.084,112.043 60.856,115.221 C52.826,123.127 51.69,122.984 44.356,113.14 C38.483,105.256 32.047,100 28.268,100 C27.155,100 25.685,99.325 25,98.5 C24.315,97.675 23.055,97 22.199,97 C21.342,97 19.164,96.465 17.357,95.812 C14.507,94.782 13.795,94.875 11.978,96.52 C9.173,99.058 6.918,97.61 5.148,92.134 C2.988,85.455 4.244,84.687 15.938,85.535 C21.756,85.957 26.118,86.771 27.079,87.614 C27.947,88.376 29.549,89 30.638,89 C31.727,89 33.491,89.661 34.559,90.468 C35.626,91.276 37.302,91.951 38.281,91.968 C39.261,91.986 40.352,92.788 40.706,93.75 C41.06,94.713 43.101,97.3 45.242,99.5 C47.382,101.7 49.79,104.737 50.592,106.25 C52.833,110.473 53.565,110.109 60.703,101.225 C62.792,98.626 64.838,96.35 65.25,96.167 C65.662,95.983 66,95.251 66,94.538 C66,93.328 75.901,85 77.34,85 C77.7,85 80.134,83.477 82.748,81.616 C85.361,79.754 90.245,76.857 93.601,75.177 C96.957,73.496 101.011,71.02 102.611,69.674 C104.211,68.327 108.666,65.528 112.51,63.453 C116.355,61.377 120.4,58.942 121.5,58.04 C123.464,56.431 132.566,52.574 136.5,51.684 Z M120,219.467 C124.279,216.053 124.784,215.903 130.275,216.425 C139.881,217.339 142.272,219.232 148.339,230.725 C150.728,235.25 151.157,237.395 151.543,246.725 C151.789,252.651 152.031,258.4 152.083,259.5 C152.384,265.89 150.849,292.82 150.088,294.5 C149.589,295.6 148.93,297.288 148.622,298.25 C147.909,300.481 142.745,300.603 140.943,298.431 C139.919,297.198 138.555,297.008 134.57,297.543 C131.782,297.917 129.05,298.541 128.5,298.928 C127.95,299.316 121.763,299.748 114.75,299.889 C104.448,300.095 102,299.879 102,298.763 C102,296.254 104.429,294.209 110,292.027 C113.025,290.843 116.774,289.227 118.331,288.437 C120.136,287.521 124.303,286.994 129.831,286.985 C134.599,286.976 138.995,286.639 139.599,286.235 C140.579,285.579 140.962,279.47 141.401,257.521 C141.482,253.429 141.17,252.477 139.651,252.178 C138.634,251.979 136.609,252.93 135.151,254.291 C133.693,255.653 131.15,257.008 129.5,257.301 C123.234,258.417 118.585,259.931 113.783,262.423 C111.051,263.84 107.748,265 106.443,265 C103.963,265 101.974,262.435 102.036,259.316 C102.086,256.8 105.994,252.388 108.981,251.476 C110.345,251.06 112.595,249.927 113.981,248.959 C115.366,247.991 118.408,246.925 120.74,246.589 C123.072,246.254 127.628,244.634 130.864,242.99 C134.1,241.345 137.479,240 138.374,240 C140.153,240 140.602,237.49 139,236.5 C138.45,236.16 138,234.816 138,233.514 C138,232.124 136.87,230.256 135.265,228.994 C131.311,225.883 124.956,226.977 120.104,231.604 C112.08,239.257 111.179,240 109.93,240 C109.214,240 107.599,240.967 106.341,242.15 C104.339,244.03 103.975,244.098 103.435,242.691 C101.79,238.404 109.08,228.182 120,219.467 Z M120.194,145.032 C126.715,141.571 127.49,141.49 130,144 C133.364,147.364 132.173,154 128.204,154 C127.437,154 125.399,155.012 123.675,156.25 C120.007,158.884 117.278,160.55 114.5,161.851 C113.4,162.366 111.452,163.915 110.171,165.292 C108.697,166.878 106.25,168.035 103.501,168.448 C100.22,168.94 97.892,170.258 93.97,173.845 L88.779,178.592 L89.394,184.046 C89.732,187.046 90.119,190.813 90.254,192.417 C90.557,196.015 91.99,196.574 95.827,194.589 C97.457,193.747 100.663,192.758 102.952,192.392 C105.241,192.026 108.759,190.888 110.769,189.863 C112.778,188.838 115.34,187.997 116.461,187.994 C117.583,187.99 119.789,187.315 121.364,186.494 C122.94,185.672 124.848,185 125.606,185 C126.363,185 127.545,184.1 128.232,183 C128.919,181.9 130.502,181 131.75,181 C132.998,181 134.803,180.069 135.76,178.93 C137.949,176.326 145.988,172.562 146.992,173.67 C147.406,174.127 148.023,176.355 148.364,178.622 C148.903,182.21 148.632,183.096 146.273,185.455 C143.542,188.186 136.641,192 134.432,192 C133.776,192 129.698,193.743 125.37,195.873 C113.043,201.938 110.77,202.849 109.338,202.299 C108.602,202.017 108,202.284 108,202.893 C108,203.502 107.102,204 106.004,204 C104.906,204 101.419,204.868 98.254,205.929 C95.089,206.99 89.682,208.16 86.238,208.529 L79.976,209.199 L77.969,204.662 C76.254,200.787 76.12,199.497 77.05,195.813 C77.649,193.441 78.315,185.2 78.531,177.5 C79.119,156.551 80.081,151 83.122,151 C84.89,151 88,155.066 88,157.378 C88,161.32 90.509,162.629 94.298,160.663 C102.828,156.236 107.881,153.255 111.225,150.674 C113.24,149.12 117.276,146.581 120.194,145.032 Z M91.954,5.836 C94.954,3.407 96.658,3.52 98.201,6.25 C99.68,8.868 101.843,18.121 102.819,26 C103.383,30.554 103.835,31.5 105.45,31.5 C106.935,31.5 107.741,30.305 108.823,26.5 C110.497,20.613 113.798,13.218 115.853,10.75 C117.525,8.742 122.03,8.43 123.8,10.2 C125.458,11.858 125.303,15.554 123.5,17.357 C122.675,18.182 121.967,19.902 121.927,21.179 C121.887,22.455 120.992,24.85 119.938,26.5 C118.884,28.15 117.751,30.175 117.42,31 C115.497,35.796 114.13,37.373 109.794,39.803 C106.079,41.885 104.618,43.452 103.385,46.673 C102.506,48.968 102.081,51.322 102.44,51.902 C103.435,53.512 101.163,57 99.12,57 C97.216,57 94.42,54.396 92.589,50.918 C91.606,49.051 90.391,48.812 80.08,48.454 C73.798,48.237 68.213,47.613 67.669,47.069 C67.124,46.524 66.638,44.148 66.589,41.789 C66.507,37.855 66.722,37.474 69.18,37.19 C70.653,37.02 74.065,37.536 76.761,38.336 C82.052,39.908 90.985,39.486 92.235,37.605 C93.484,35.725 93.078,26.213 91.343,16.73 L89.686,7.673 Z M87.259,227.25 C88.536,225.631 94.45,225.632 95.795,227.253 C96.515,228.12 96.506,230.041 95.766,233.503 C94.749,238.257 94.671,243.299 95.441,254.5 C95.645,257.47 95.219,260.596 94.392,262.2 C92.759,265.368 92.568,269.615 94.019,270.512 C94.579,270.858 95.015,272.797 94.988,274.821 C94.961,276.844 95.219,283.337 95.563,289.25 L96.188,300 L91.201,300 C87.381,300 86.053,299.591 85.524,298.25 C83.629,293.44 83.194,276.143 84.348,251.518 C85.135,234.741 85.813,229.083 87.259,227.25 Z M108.148,104.129 C107.237,106.592 101.377,111.098 95.25,114.048 C91.097,116.047 91,116.207 91,121.047 C91,125.103 91.317,125.997 92.75,125.985 C94.331,125.971 100.004,121.389 108.656,113.139 C112.279,109.685 113.981,104.236 111.857,102.89 C109.764,101.565 109.003,101.819 108.148,104.129 Z"/>
</svg>

