<svg xmlns="http://www.w3.org/2000/svg" width="300" height="300" viewBox="0 0 300 300" version="1.1">
  <defs/>
  <path d="M162.153,106.867 C163.337,105.84 164.702,105 165.185,105 C167.973,105 172.987,108.244 174.844,111.247 C176.594,114.08 177.463,114.634 179.531,114.239 C182.767,113.62 186,116.435 186,119.872 C186,122.935 183.196,130.865 181.331,133.079 C179.394,135.377 179.677,136.558 182.629,138.492 C184.496,139.716 186.341,140.041 189.004,139.615 C194.122,138.797 198,141.758 198,146.483 C198,149.453 197.501,150.063 193.473,152.013 C187.088,155.104 185.769,158.138 186.388,168.307 C186.663,172.813 186.912,177.063 186.944,177.75 C187.062,180.363 189.778,178.858 190.381,175.845 C191.831,168.595 196.001,167.916 198.975,174.445 C201.501,179.99 201.504,181.233 199,183.5 C197.9,184.495 197,186.131 197,187.136 C197,188.14 195.434,191.409 193.521,194.4 C190.099,199.749 190.032,200.06 189.498,213.17 C188.759,231.286 186.643,246.089 184.276,249.702 C182.502,252.408 183.465,254.305 186.176,253.444 C187.28,253.094 190.504,252.651 193.342,252.461 C198.671,252.103 204.29,250.957 209.5,249.164 C213.715,247.713 226.269,246.126 234.148,246.047 C238.948,245.999 242.36,245.288 246.426,243.49 C249.523,242.121 252.874,241 253.874,241 C258.101,241 261.31,248.895 258.394,252.118 C257.457,253.153 255.897,254 254.928,254 C253.959,254 250.991,254.971 248.333,256.158 C244.316,257.952 241.389,258.347 231,258.496 C224.125,258.595 216.25,259.212 213.5,259.866 C210.75,260.521 205.8,261.475 202.5,261.986 C199.2,262.498 193.35,263.407 189.5,264.008 C185.65,264.608 181.574,265.557 180.442,266.116 C179.225,266.717 174.348,266.911 168.495,266.59 C160.408,266.147 158.291,266.332 156.885,267.604 C155.507,268.851 154.736,268.929 152.998,267.999 C151.805,267.36 150.53,267.138 150.164,267.506 C149.799,267.873 149.615,271.197 149.756,274.892 C149.97,280.498 149.674,281.973 147.967,283.805 C145.37,286.592 142.267,286.6 139.314,283.826 C137.159,281.801 137,280.872 137,270.301 C137,259.114 136.964,258.937 134.5,258 C133.125,257.477 132,256.379 132,255.56 C132,253.384 129.338,252.335 121.842,251.554 C117.17,251.067 114.663,250.285 113.437,248.93 C112.476,247.869 110.844,247 109.81,247 C107.049,247 103,244.039 103,242.02 C103,239.574 106.804,234.997 108.823,235.015 C109.745,235.023 112.525,235.737 115,236.602 C117.475,237.467 121.933,238.573 124.907,239.061 C127.994,239.566 131.259,240.834 132.517,242.016 C133.728,243.154 136.02,244.178 137.61,244.293 C140.395,244.492 140.503,244.334 140.587,239.918 C140.635,237.399 140.941,234.905 141.267,234.377 C142.002,233.188 143.506,200.51 143.171,193 C143.037,189.975 142.321,181.425 141.581,174 C139.516,153.274 135.53,146.607 131.47,157.084 C129.174,163.009 128.468,163.738 124.599,164.175 C122.205,164.445 121.393,163.917 119.758,161.03 C118.234,158.336 118.041,157.164 118.897,155.793 C119.504,154.822 120,153.315 120,152.444 C120,151.573 121.35,148.898 123,146.5 C125.354,143.078 126,141.061 126,137.129 C126,134.373 126.45,131.84 127,131.5 C127.55,131.16 128,128.131 128,124.77 C128,115.377 132.38,111.965 136.786,117.925 C138.727,120.55 138.886,121.667 138.335,128.815 C137.755,136.336 137.844,136.846 139.945,137.971 C141.168,138.625 142.813,140.587 143.6,142.33 C145.392,146.303 147.235,149.308 148.393,150.147 C149.832,151.191 151.135,159.715 151.579,171 C151.807,176.775 152.483,183.525 153.081,186 C154.15,190.419 154.503,214.377 153.522,215.964 C152.251,218.021 151.237,238.609 152.105,244.74 C152.729,249.147 152.701,251.699 152.021,252.379 C151.46,252.94 151,254.262 151,255.317 C151,256.916 151.455,257.113 153.75,256.509 C155.262,256.111 159.081,255.569 162.236,255.305 C167.396,254.872 168.26,254.457 170.853,251.162 C176.387,244.128 177.994,239.704 178.073,231.29 C178.113,227.005 178.474,221.206 178.874,218.403 C179.275,215.6 179.429,212.787 179.218,212.153 C178.564,210.191 175.569,210.871 171.415,213.926 C164.088,219.314 159.815,218.988 158.487,212.939 C157.996,210.705 158.614,208.656 161.106,204.258 C165.423,196.637 167.684,195.074 168.71,199 C169.504,202.035 171.326,201.422 174.962,196.898 C176.063,195.528 176.819,194.732 177.272,193.79 C178.303,191.647 177.763,188.748 176.15,176.603 C175.275,170.01 173.234,168.784 169.029,172.322 C163.951,176.595 161.329,176.791 157.705,173.166 L154.605,170.066 L155.928,164.783 C156.656,161.877 158.995,156.861 161.126,153.636 C165.556,146.931 165.959,144.315 162.75,143.094 C153.339,139.512 153.055,139.294 153.91,136.322 C154.357,134.77 156.16,131.962 157.918,130.083 C159.677,128.203 161.99,124.854 163.06,122.64 L165.005,118.614 L162.502,116.002 C159.43,112.796 159.298,109.343 162.153,106.867 Z M71.564,62.542 C73.648,59.362 77.894,59.373 79.477,62.562 C80.04,63.696 82.214,66.129 84.309,67.967 C89.28,72.331 93.47,78.499 95.054,83.785 C95.752,86.116 96.926,88.524 97.662,89.134 C98.398,89.745 99,92.019 99,94.188 C99,96.357 99.563,99.114 100.25,100.316 C102.659,104.525 102.799,131.344 100.424,133.719 C99.641,134.502 99,136.616 99,138.416 C99,140.361 98.23,142.387 97.102,143.408 C96.058,144.352 94.98,146.56 94.706,148.313 C94.433,150.066 93.884,152.512 93.488,153.75 C92.529,156.742 95.493,156.825 98.613,153.894 L100.854,151.788 L104.927,155.062 C108.799,158.173 109,158.606 109,163.823 C109,168.136 108.465,170.013 106.5,172.589 C105.125,174.392 104,176.55 104,177.386 C104,180.097 101.744,183.946 99.793,184.566 C98.746,184.898 98.083,185.694 98.32,186.335 C98.556,186.976 99.369,187.309 100.125,187.076 C103.707,185.973 107.304,186.591 108.376,188.496 C111.542,194.117 113.584,196.264 117.838,198.445 C129.204,204.27 128.733,211.962 117.104,210.419 C113.28,209.912 111.738,209.137 110.073,206.885 C106.542,202.11 103.563,202.922 95.207,210.936 C91.23,214.752 87.15,218.135 86.14,218.456 C85.13,218.776 82.864,220.83 81.105,223.019 C79.345,225.209 77.448,227 76.888,227 C75.889,227 71.337,222.126 69.633,219.232 C68.783,217.788 70.534,213.622 74.983,206.5 C76.014,204.85 78.734,199.911 81.028,195.525 C83.321,191.139 86.053,186.95 87.099,186.218 C88.145,185.486 89,184.342 89,183.675 C89,183.009 90.125,180.809 91.5,178.785 C96.881,170.866 93.274,170.975 84.419,179 C77.1,185.633 74.154,186.432 70.314,182.826 C67.149,179.851 67.401,177.364 71.5,171.14 C73.425,168.217 75,165.212 75,164.462 C75,163.713 75.595,162.74 76.321,162.3 C77.783,161.415 81.095,154.685 83.112,148.5 C83.83,146.3 84.755,144.026 85.167,143.448 C85.579,142.869 87.359,138.369 89.123,133.448 C91.509,126.786 92.295,122.967 92.198,118.5 C92.126,115.2 92.599,111.019 93.249,109.21 C94.166,106.658 94.158,105.483 93.215,103.973 C92.547,102.903 92,101.373 92,100.573 C92,99.774 90.65,96.518 89,93.337 C87.35,90.157 86,87.228 86,86.828 C86,85.007 79.457,76.689 75.429,73.388 C70.176,69.084 69.155,66.219 71.564,62.542 Z M141,35.177 C144.793,33.597 149.258,33.847 151.613,35.772 C152.775,36.723 154.923,40.001 156.386,43.058 L159.046,48.615 L157.612,58.881 C156.742,65.101 155.551,69.839 154.588,70.902 C153.715,71.868 153,73.212 153,73.891 C153,75.627 148.021,86.146 146.202,88.25 C145.371,89.213 143.635,90 142.345,90 C140.282,90 140,90.473 140,93.941 C140,98.5 138.584,99.96 137.012,97.022 C136.086,95.293 135.294,95.083 131.712,95.62 C129.197,95.997 126.291,97.348 124.5,98.972 C118.87,104.077 114.314,107 111.984,107 C105.853,107 103.831,98.532 108.5,92.411 C109.875,90.608 111,88.23 111,87.126 C111,86.022 111.506,84.805 112.125,84.423 C113.56,83.536 112.72,70.32 111.127,68.727 C110.287,67.887 109.024,68.547 106.206,71.299 C102.239,75.172 100.207,75.807 98.2,73.8 C95.473,71.073 97.041,68.318 106.25,59.654 C120.828,45.938 129.019,40.168 141,35.177 Z M35.2,129.261 C40.376,127.603 44.017,127.83 48.712,130.102 C54.969,133.132 55.8,135.431 55.58,149.125 C55.435,158.206 55.017,161.325 53.674,163.375 C52.728,164.819 51.476,166 50.892,166 C50.308,166 46.278,169.629 41.936,174.065 C34.86,181.296 33.705,182.097 30.772,181.815 L27.5,181.5 L26.494,173 C25.484,164.465 22.072,155 20.005,155 C19.396,155 18.283,153.528 17.532,151.73 C15.989,148.038 13.491,145.538 10.41,144.602 C4.957,142.945 4.815,132.821 10.237,132.188 C12.223,131.956 14.042,132.919 17.317,135.938 C19.741,138.172 22.055,140 22.459,140 C22.864,140 25.153,137.822 27.547,135.159 C29.941,132.497 33.384,129.843 35.2,129.261 Z M140.5,45.696 C139.4,45.97 137.375,47.224 136,48.483 C134.625,49.742 131.925,51.549 130,52.5 C128.075,53.451 125.263,55.386 123.75,56.801 C121.312,59.082 121,60.091 121,65.687 C121,74.64 123.192,74.046 126.638,64.158 C129.343,56.399 133.01,55.033 136.566,60.46 C138.183,62.929 138.147,63.179 135.624,66.992 C134.181,69.173 132.984,71.754 132.965,72.729 C132.945,73.703 132.286,75.625 131.5,77 C128.829,81.672 129.499,83 134.525,83 C138.535,83 139.168,82.689 140.089,80.265 C141.498,76.559 143.838,71.142 145.621,67.455 C146.431,65.78 146.797,63.634 146.433,62.687 C146.07,61.739 146.297,59.698 146.938,58.151 C147.711,56.283 147.827,53.684 147.282,50.419 C146.427,45.294 145.288,44.501 140.5,45.696 Z M22,249.889 C28.125,248.199 31.507,248.956 40.254,253.971 C45.023,256.706 50.022,259.218 51.363,259.555 C52.705,259.892 54.634,260.94 55.651,261.884 C56.668,262.828 58.288,263.902 59.25,264.269 C61.722,265.213 61.593,270.612 59.066,271.965 C55.727,273.752 52.343,273.172 50.602,270.516 C49.707,269.15 47.743,267.745 46.237,267.394 C42.836,266.602 32.067,261.315 29.868,259.356 C28.843,258.444 27.296,258.139 25.711,258.536 C21.679,259.548 18.827,257.442 19.192,253.723 C19.424,251.351 20.114,250.409 22,249.889 Z M63.2,242.2 C63.86,241.54 66.379,241 68.799,241 C72.397,241 73.708,241.546 76,244 C77.541,245.65 79.307,247 79.923,247 C80.539,247 82.83,248.183 85.014,249.628 C88.277,251.787 89.255,252.033 90.493,251.006 C91.322,250.318 92,249.104 92,248.308 C92,247.381 92.804,246.976 94.237,247.18 C95.932,247.423 96.611,248.354 97.044,251.034 C97.358,252.978 97.974,255.148 98.412,255.858 C99.649,257.859 95.165,262 91.761,262 C88.614,262 79.483,258.496 76.869,256.285 C74.429,254.221 67.797,251 65.989,251 C62.401,251 60.476,244.924 63.2,242.2 Z M33.675,142.573 C28.109,147.155 26.923,149.216 29.083,150.551 C29.678,150.919 31.012,153.196 32.047,155.61 C33.294,158.519 34.548,160 35.764,160 C37.925,160 40,158.161 40,156.245 C40,155.5 40.914,152.883 42.032,150.431 C43.149,147.978 44.161,144.29 44.282,142.236 C44.477,138.898 44.225,138.468 41.925,138.2 C40.07,137.985 37.764,139.207 33.675,142.573 Z M170.345,150.543 C170.019,151.392 170.004,152.337 170.31,152.643 C171.186,153.519 173,152.034 173,150.441 C173,148.522 171.092,148.596 170.345,150.543 Z"/>
</svg>

