<svg xmlns="http://www.w3.org/2000/svg" width="300" height="300" viewBox="0 0 300 300" version="1.1">
  <defs/>
  <path d="M149.5,147.52 C153.811,143.928 157.218,144.509 158.173,149 C159.002,152.902 157.048,156.618 153.116,158.611 C151.911,159.222 149.9,160.684 148.648,161.861 C147.396,163.037 145.668,164 144.808,164 C142.578,164 140.996,166.267 141.603,168.591 C141.927,169.83 141.347,171.281 140.062,172.444 C138.928,173.47 138,174.906 138,175.634 C138,176.363 135.412,179.501 132.25,182.607 L126.5,188.256 L132,189.587 C143.076,192.268 147.284,194.462 151.233,199.616 C153.286,202.296 155.398,204.633 155.927,204.809 C156.456,204.985 158.583,203.188 160.654,200.815 C162.725,198.442 166.575,194.411 169.21,191.857 C171.844,189.303 174,186.845 174,186.394 C174,185.944 175.132,184.433 176.516,183.038 C181.223,178.29 185.563,172.51 187.43,168.5 C188.455,166.3 189.61,163.825 189.998,163 C190.385,162.175 192.306,161.363 194.266,161.195 C197.155,160.947 197.956,161.287 198.496,162.987 C199.942,167.543 198.004,172.725 192.922,177.888 C190.215,180.638 188,183.294 188,183.791 C188,184.288 185.412,187.472 182.25,190.868 C179.088,194.263 174.7,199.321 172.5,202.108 C170.3,204.894 167.378,208.262 166.007,209.59 C162.607,212.885 164.001,214.793 171.543,217.165 C174.819,218.196 178.918,219.705 180.651,220.519 C182.384,221.334 184.242,222 184.779,222 C185.316,222 186.267,222.616 186.892,223.37 C187.517,224.123 190.155,225.551 192.755,226.544 C195.355,227.537 199.511,229.79 201.991,231.551 C204.471,233.312 207.85,235.498 209.5,236.409 C211.15,237.319 214.525,239.194 217,240.574 C219.475,241.955 223.764,245.315 226.531,248.042 C229.299,250.769 232.011,253 232.559,253 C233.106,253 235.042,254.359 236.861,256.02 C240.213,259.082 248.628,264 250.514,264 C252.228,264 259,270.044 259,271.573 C259,276.078 250.114,278.949 248.058,275.108 C247.169,273.446 241.265,269.493 233.106,265.096 C231.672,264.323 227.933,261.329 224.796,258.441 C219.987,254.015 214.963,250.716 202.75,243.967 C201.787,243.435 200.213,242.562 199.25,242.028 C198.287,241.493 196.058,240.326 194.296,239.436 C192.534,238.545 190.566,237.182 189.924,236.408 C189.281,235.634 188.077,235 187.247,235 C186.418,235 182.76,233.447 179.12,231.548 C169.301,226.429 165.211,224.751 164.148,225.408 C163.624,225.732 163.176,229.26 163.152,233.248 C163.088,244.007 160.181,256.519 155.952,264.236 C155.428,265.191 155,266.664 155,267.508 C155,272.312 141.531,285.621 135.175,287.098 C133.154,287.568 130.986,287.963 130.358,287.976 C128.347,288.018 118.969,278.86 116.93,274.863 C115.846,272.738 114.58,271 114.116,271 C113.111,271 108,278.18 108,279.592 C108,280.133 106.668,282.134 105.041,284.038 C103.413,285.942 102.063,287.908 102.041,288.408 C102.018,288.907 100.145,291.719 97.878,294.658 C93.802,299.941 93.697,300 88.378,300 C85.42,300 83,299.745 83,299.434 C83,298.16 85.546,294.234 89.161,289.936 C91.273,287.425 93,285.028 93,284.609 C93,284.19 97.578,278.15 103.174,271.186 C108.77,264.222 114.214,257.056 115.273,255.262 C116.331,253.468 117.566,252 118.017,252 C118.468,252 119.872,250.312 121.137,248.25 C122.402,246.188 123.785,244.05 124.211,243.5 C124.637,242.95 126.452,240.605 128.243,238.288 C130.034,235.972 133.243,231.359 135.373,228.038 C137.503,224.717 139.64,222 140.123,222 C140.605,222 141,221.09 141,219.979 C141,218.867 142.182,216.172 143.626,213.989 C145.989,210.419 146.127,209.72 145.004,207.011 C144.319,205.355 143.557,204 143.313,204 C141.736,204 139,206.336 139,207.682 C139,208.569 137.425,211.216 135.5,213.565 C133.575,215.915 132,218.353 132,218.983 C132,219.614 129.606,222.463 126.68,225.315 C123.049,228.853 120.921,231.929 119.979,235 C119.086,237.908 117.226,240.701 114.719,242.896 C112.586,244.764 109.648,248.139 108.191,250.396 C106.733,252.653 105.082,255.197 104.52,256.049 C103.959,256.9 102.604,259.017 101.509,260.752 C100.413,262.487 97.601,265.118 95.259,266.598 C92.265,268.49 91,269.972 91,271.586 C91,274.615 89.711,275.281 86.594,273.861 C82.841,272.151 82.344,269.315 85.243,266.156 C86.584,264.695 88.282,261.925 89.016,260 C89.75,258.075 92.109,254.7 94.259,252.5 C96.408,250.3 98.759,247.375 99.483,246 C100.207,244.625 102.194,242.259 103.899,240.742 C105.605,239.226 107,237.554 107,237.027 C107,236.5 110.263,232.238 114.25,227.555 C123.757,216.39 126,213.425 126,212.022 C126,211.383 127.35,208.898 129,206.5 C130.65,204.102 132,200.934 132,199.461 C132,197.057 131.726,196.852 129.325,197.455 C127.571,197.895 125.516,197.516 123.361,196.355 C120.123,194.611 120.033,194.621 117.559,196.944 C116.178,198.242 113.221,202.378 110.989,206.136 C108.757,209.893 106.046,213.44 104.965,214.019 C103.884,214.597 103,215.948 103,217.02 C103,218.093 100.759,221.339 98.02,224.235 C95.28,227.131 93.023,230.175 93.002,231 C92.967,232.437 89.935,235.787 87.206,237.405 C85.55,238.387 83,236.295 83,233.954 C83,232.964 84.013,230.878 85.25,229.319 C86.487,227.76 87.95,225.729 88.5,224.805 C89.545,223.051 97.944,210.773 105.126,200.5 C107.433,197.2 111.949,191.437 115.16,187.693 C120.521,181.444 122.296,178 120.155,178 C119.69,178 118.495,178.9 117.5,180 C115.023,182.737 112.545,182.508 110.028,179.309 C106.454,174.765 107.589,172.972 117.184,168 C121.96,165.525 129.273,161.296 133.434,158.603 C139.439,154.716 141,153.203 141,151.273 C141,149.144 141.342,148.914 143.75,149.43 C145.792,149.868 147.273,149.376 149.5,147.52 Z M66.475,122.041 C67.465,120.438 68.403,120.739 73.617,124.332 C79.362,128.292 80.019,130.414 79.018,141.799 C78.561,146.995 77.615,150.918 76.288,153.124 C75.171,154.981 73.966,157.738 73.609,159.25 C73.084,161.479 73.306,162 74.781,162 C75.781,162 77.146,161.454 77.814,160.786 C78.765,159.835 79.573,160.118 81.554,162.099 C84.589,165.135 84.174,166.453 78.828,170.75 C76.116,172.929 73.707,174 71.514,174 C69.716,174 67.738,174.611 67.119,175.357 C65.314,177.531 52.927,178.285 48.614,176.483 C46.594,175.639 45,174.266 45,173.371 C45,171.747 43.143,165.598 39.907,156.5 C38.928,153.75 37.816,149.925 37.436,148 C37.056,146.075 35.452,143.022 33.872,141.215 C30.726,137.617 30.172,133.932 32.487,132.011 C34.82,130.074 38.888,131.695 41.099,135.443 C44.26,140.8 45.494,140.625 52.304,133.858 C55.697,130.485 60.129,126.681 62.153,125.404 C64.176,124.126 66.121,122.613 66.475,122.041 Z M183.5,101.021 C188.872,98.903 192.374,99.141 195.353,101.826 C196.816,103.145 197.11,104.501 196.749,108.259 C196.498,110.878 195.604,113.803 194.764,114.76 C193.924,115.717 192.895,117.616 192.478,118.981 C190.949,123.978 181.162,134.913 178.165,134.973 C177.43,134.988 175.435,136.575 173.731,138.5 C170.529,142.116 168.269,142.749 164.934,140.965 C162.744,139.793 162.312,137 164.321,137 C165.048,137 167.41,134.922 169.571,132.381 C171.732,129.841 174.467,126.758 175.648,125.529 C177.928,123.158 181,117.757 181,116.119 C181,115.518 179.939,115.457 178.25,115.963 C172.799,117.595 170.342,118.9 162.653,124.25 C160.479,125.763 157.923,127 156.972,127 C156.022,127 154.653,127.713 153.93,128.584 C152.404,130.423 139.705,137 137.68,137 C136.926,137 135.497,137.898 134.504,138.996 C133.51,140.094 130.403,142.11 127.599,143.477 C121.354,146.52 111.526,153.701 109.432,156.75 C106.766,160.631 103.907,159.577 97.223,152.25 C93.837,148.537 89.977,144.375 88.645,143 C84.117,138.325 84.383,133 89.145,133 C91.453,133 99.89,140.581 101.088,143.731 C102.23,146.736 105.363,146.622 107.408,143.5 C108.309,142.125 109.539,141 110.141,141 C110.743,141 112.802,139.625 114.715,137.945 C116.629,136.265 120.738,133.623 123.847,132.075 C126.956,130.526 131.525,128.082 134,126.643 C136.475,125.204 142.05,122.224 146.389,120.021 C150.728,117.817 154.896,115.502 155.651,114.875 C157.272,113.529 162.107,110.8 167,108.47 C168.925,107.552 172.3,105.945 174.5,104.897 C176.7,103.849 180.75,102.105 183.5,101.021 Z M147.814,65.82 C151.087,64.501 152.895,65.035 156.429,68.368 C160.08,71.811 160.952,75.228 159.082,78.764 C158.577,79.719 157.265,82.55 156.168,85.056 C155.07,87.562 153.458,90.205 152.586,90.929 C151.714,91.653 151,92.81 151,93.5 C151,94.19 150.369,95.279 149.598,95.919 C148.827,96.558 147.907,98.234 147.554,99.641 C146.593,103.47 142.881,108 140.706,108 C139.651,108 137.93,109.09 136.882,110.423 C132.259,116.3 125,114.104 125,106.83 C125,104.389 123.897,101.016 122,97.654 C120.35,94.73 118.997,91.7 118.994,90.919 C118.986,89.232 113.239,85.734 111.868,86.582 C108.761,88.502 106.55,80.448 109.51,77.992 C112.084,75.856 118.809,77.422 122.525,81.024 C124.85,83.278 126.247,83.958 127.313,83.353 C128.141,82.884 132.712,78.9 137.473,74.5 C142.233,70.1 146.886,66.194 147.814,65.82 Z M128.424,18.475 C130.913,14.676 134.096,15.314 139.285,20.653 C143.142,24.621 143.906,26.093 144.476,30.653 C144.843,33.594 145.6,36 146.157,36 C146.715,36 148.565,34.425 150.269,32.5 C151.974,30.575 154.151,29 155.107,29 C157.174,29 163,33.679 163,35.338 C163,37.182 149.359,49.614 145.761,51.049 C143.968,51.764 141.375,53.119 140,54.06 C135.694,57.007 125.438,60.904 119.559,61.825 C114.231,62.661 113.808,62.572 111.959,60.22 C110.881,58.851 110,57.186 110,56.52 C110,54.521 113.411,52.062 117.066,51.428 C123.413,50.326 133,46.466 133,45.012 C133,44.52 132.55,43.84 132,43.5 C130.492,42.568 130.8,38.343 132.5,36.643 C135.093,34.05 134.3,29.711 130.401,25.155 C126.923,21.092 126.857,20.868 128.424,18.475 Z M148.224,223.999 C146.973,225.582 145.302,228.426 144.512,230.318 C143.721,232.21 142.495,233.988 141.787,234.269 C141.079,234.55 139.615,236.517 138.534,238.64 C137.452,240.763 135.202,244.113 133.534,246.085 C131.865,248.056 129.732,250.981 128.793,252.585 C127.854,254.188 125.661,257.159 123.919,259.187 C120.548,263.111 120.419,266.276 123.502,269.359 C124.326,270.183 125,271.339 125,271.929 C125,273.987 129.023,277 131.772,277 C138.852,277 147.886,263.797 151.274,248.5 C152.683,242.137 152.853,221.768 151.5,221.395 C150.95,221.243 149.476,222.415 148.224,223.999 Z M65,136.5 C64.315,137.325 63.203,138 62.528,138 C61.852,138 58.955,140.696 56.088,143.992 C50.865,149.997 48.549,155.985 50.89,157.432 C51.5,157.809 52.007,159.104 52.015,160.309 C52.049,165.173 53.486,165.163 58.71,160.263 C63.608,155.668 71,142.885 71,139.01 C71,135.46 67.187,133.865 65,136.5 Z M142.339,81.935 C140.601,82.995 138.909,84.712 138.579,85.75 C138.25,86.789 136.634,88.634 134.99,89.849 C131.158,92.683 130.792,97 134.385,97 C135.888,97 137.429,95.983 138.551,94.25 C139.531,92.737 142.086,89.786 144.228,87.691 C149.896,82.149 148.577,78.132 142.339,81.935 Z M142,37.5 C142,38.325 142.45,39 143,39 C143.55,39 144,38.325 144,37.5 C144,36.675 143.55,36 143,36 C142.45,36 142,36.675 142,37.5 Z"/>
</svg>

