<svg xmlns="http://www.w3.org/2000/svg" width="300" height="300" viewBox="0 0 300 300" version="1.1">
  <defs/>
  <path d="M139.5,99 C143.806,96.798 146.714,96.011 150.433,96.043 C155.296,96.083 155.651,96.281 159.25,100.95 C163.338,106.253 164.11,110.949 161.468,114.441 C160.661,115.509 160,117.577 160,119.036 C160,120.496 159.111,122.494 158.026,123.477 C156.94,124.46 155.798,126.061 155.489,127.035 C155.18,128.01 153.396,129.533 151.525,130.421 C149.654,131.309 147.818,133.04 147.444,134.268 C147.069,135.495 146.125,137.229 145.344,138.12 C144.195,139.432 144.154,140.244 145.127,142.38 C146.163,144.653 146.048,145.331 144.296,147.26 C143.178,148.492 141.956,150.794 141.581,152.375 C141.152,154.184 136.653,159.513 129.45,166.743 C123.152,173.063 118,178.407 118,178.617 C118,179.674 125.245,178.753 131,176.965 C134.575,175.853 140.425,174.333 144,173.585 C155.806,171.116 164.388,168.834 173.178,165.827 C177.95,164.194 185.375,162.184 189.678,161.359 C193.98,160.534 198.755,159.613 200.289,159.311 C203.87,158.606 207,161.315 207,165.12 C207,168.191 204.689,170 200.766,170 C199.465,170 197.973,170.404 197.45,170.898 C196.928,171.391 194.7,172.041 192.5,172.341 C185.126,173.347 181.514,174.265 179.527,175.637 C178.443,176.387 176.395,177 174.977,177 C173.56,177 171.971,177.429 171.446,177.954 C170.922,178.478 167.344,179.348 163.496,179.886 C159.648,180.423 154.025,181.628 151,182.563 C147.975,183.498 143.7,184.461 141.5,184.704 C139.3,184.947 136.15,185.733 134.5,186.452 C132.85,187.17 129.027,188.068 126.005,188.446 C122.982,188.824 119.832,189.708 119.005,190.409 C118.177,191.11 114.125,192.23 110,192.897 C105.875,193.565 101.15,194.475 99.5,194.92 C97.85,195.365 94.475,196.276 92,196.945 C89.525,197.613 85.25,199.07 82.5,200.183 C79.75,201.296 73.545,202.897 68.711,203.74 L59.921,205.275 L57.461,202.963 C52.328,198.142 55.186,193.636 64,192.651 C67.025,192.313 73.1,191.082 77.5,189.914 C81.9,188.746 89.469,186.966 94.321,185.959 C103.662,184.019 106,182.83 106,180.018 C106,179.063 107.598,176.755 109.552,174.89 C111.505,173.026 113.778,170.241 114.602,168.702 C115.997,166.099 115.919,165.534 113.484,160.556 C108.922,151.233 111.432,143.361 117.739,147.208 C119.949,148.555 120.5,149.626 120.5,152.573 C120.5,156.509 122.58,158.759 125.265,157.729 C126.929,157.09 133,145.884 133,143.451 C133,141.909 129.523,142.242 125.816,144.138 C122.861,145.65 120.277,145.072 118.609,142.526 C117.268,140.48 116.454,140.159 113.897,140.671 C111.384,141.173 110.402,140.814 108.653,138.753 C106.425,136.128 97.878,132.726 95.655,133.579 C94.96,133.846 92.84,133.019 90.945,131.742 C88.142,129.853 87.5,128.783 87.5,125.998 C87.5,122.986 87.895,122.462 90.785,121.633 C93.445,120.87 94.999,121.126 98.96,122.981 C104.143,125.409 106.886,125.153 107.666,122.169 C107.928,121.167 110.429,118.582 113.223,116.424 C116.018,114.266 119.247,111.601 120.399,110.503 C123.153,107.877 131.72,102 132.793,102 C133.255,102 136.274,100.65 139.5,99 Z M161,207.678 C162.375,207.455 165.847,207.211 168.715,207.136 C172.932,207.026 174.128,207.37 174.965,208.934 C176.592,211.975 176.191,220.48 174.25,224.11 C171.653,228.967 171.096,229.637 163.75,236.744 C160.037,240.336 157,243.88 157,244.619 C157,245.704 160.494,245.918 175.094,245.732 L193.187,245.5 L195.589,248.5 C196.909,250.15 197.992,252.063 197.995,252.75 C198.004,255.033 194.051,258 191,258 C189.35,258 188,258.342 188,258.759 C188,259.177 187.08,260.094 185.955,260.796 C184.206,261.888 183.461,261.752 180.796,259.855 C179.005,258.579 176.368,257.695 174.591,257.775 C172.891,257.85 163.65,257.94 154.054,257.975 C138.274,258.031 130.537,258.927 127.5,261.049 C125.914,262.157 117.516,263.135 115.669,262.426 C114.746,262.072 113.253,260.229 112.352,258.33 L110.714,254.877 L114.458,251.043 C116.215,249.243 117.436,248.092 117.645,246.78 C118.076,244.067 114.18,240.666 101.75,229.424 C97.388,225.479 97.082,223.215 100.566,220.677 C103.044,218.873 103.106,218.886 106.57,221.927 C108.495,223.617 110.713,225 111.5,225 C112.286,225 113.411,225.9 114,227 C115.438,229.686 117.167,229.518 120.076,226.408 C123.911,222.309 132.987,217.454 144.176,213.518 C149.854,211.52 155.4,209.48 156.5,208.984 C157.6,208.489 159.625,207.901 161,207.678 Z M129.725,21.752 C131.676,19.596 134.339,19.498 136.018,21.521 C136.897,22.581 137.09,24.869 136.652,29.057 C135.847,36.756 137.507,37.78 142.821,32.863 C144.844,30.99 147.703,28.408 149.174,27.125 L151.848,24.794 L155.384,27.615 L158.92,30.436 L157.159,33.218 C153.988,38.225 147.271,44.574 143.2,46.41 C138.528,48.517 136.413,52.532 135.435,61.15 C134.844,66.362 134.964,66.854 136.982,67.494 C138.532,67.986 139.852,67.548 141.509,65.992 C143.607,64.021 144.215,63.916 147.41,64.97 C151.911,66.456 152.1,66.805 151.212,72.006 C150.467,76.371 150.158,76.685 143.985,79.352 C142.052,80.187 139.386,82.025 138.061,83.435 C136.736,84.846 134.572,86 133.254,86 C130.705,86 122.981,90.114 120.962,92.545 C119.403,94.424 114.594,94.421 113.033,92.539 C112.366,91.736 111.603,89.373 111.338,87.289 C110.932,84.098 111.332,82.987 113.872,80.25 C115.53,78.463 117.503,77 118.257,77 C119.01,77 120.777,75.763 122.185,74.25 C124.311,71.965 124.848,70.189 125.359,63.75 C125.958,56.206 125.915,56 123.734,56 C122.502,56 119.278,57.575 116.571,59.5 C113.863,61.425 110.715,63.002 109.574,63.005 C108.433,63.008 105.7,64.119 103.5,65.474 C98.366,68.636 96.626,68.611 94.051,65.338 C89.399,59.424 90.749,55 97.205,55 C98.757,55 100.809,54.587 101.764,54.082 C106.435,51.611 113.698,48.761 116.466,48.312 C118.166,48.036 121.066,46.578 122.911,45.073 C126.135,42.441 126.26,42.081 126.122,35.759 C125.974,28.89 127.049,24.708 129.725,21.752 Z M54.5,124.973 C58.9,124.624 63.077,124.262 63.781,124.169 C64.486,124.076 65.356,124.787 65.714,125.75 C66.072,126.713 67.149,128.625 68.107,130 C70.273,133.109 71.678,144.463 70.024,145.485 C69.393,145.875 68.455,147.163 67.941,148.347 C67.426,149.531 66.624,151.175 66.158,152 C63.762,156.243 63,158.147 63,159.888 C63,160.941 61.432,163.085 59.516,164.652 C57.6,166.218 53.785,169.637 51.038,172.25 C48.291,174.863 45.405,177 44.625,177 C42.431,177 36.856,170.076 37.096,167.649 C37.452,164.046 35.91,159.685 32.932,155.87 C31.373,153.873 29.821,151.133 29.481,149.782 C28.652,146.477 20.409,138 18.024,138 C15.346,138 14.949,136.911 15.801,131.891 C16.437,128.136 16.922,127.456 19.152,127.195 C21.187,126.957 22.811,128.001 26.545,131.945 C29.178,134.725 31.836,137 32.454,137 C33.071,137 35.293,134.946 37.392,132.436 C42.121,126.778 44.425,125.773 54.5,124.973 Z M141.5,110.563 C139.85,111.333 136.7,113.319 134.5,114.977 C132.3,116.636 129.018,118.684 127.206,119.528 C125.395,120.372 123.652,121.743 123.333,122.574 C123.014,123.405 121.009,124.975 118.877,126.063 C114.664,128.212 114.062,130.216 116.559,133.781 C117.713,135.429 118.557,135.776 119.809,135.115 C120.739,134.625 124.06,133.697 127.189,133.054 C130.318,132.41 133.918,131.068 135.189,130.072 C136.46,129.076 138.941,127.946 140.703,127.561 C144.751,126.677 149,123.382 149,121.127 C149,120.177 149.427,118.973 149.949,118.45 C150.471,117.927 151.203,115.588 151.577,113.25 L152.256,109 L148.378,109.082 C146.245,109.126 143.15,109.793 141.5,110.563 Z M158,220 C157.175,220.533 155.116,220.976 153.424,220.985 C151.451,220.995 149.507,221.896 148,223.5 C146.708,224.875 144.717,226.007 143.576,226.015 C138.699,226.05 131.377,229.964 124.666,236.123 C122.925,237.72 122.921,237.857 124.586,238.788 C125.551,239.328 127.054,241.285 127.926,243.135 C130.057,247.659 133.016,247.958 137.092,244.062 C138.855,242.378 141.103,241 142.087,241 C145.187,241 158.795,228.945 161.593,223.721 C163.764,219.667 161.748,217.578 158,220 Z M46.234,138.035 C42.787,139.623 39.7,141.619 39.373,142.471 C39.035,143.352 39.924,145.522 41.435,147.503 C42.896,149.419 44.017,151.551 43.927,152.243 C43.144,158.247 47.015,157.175 52.925,149.75 C58.308,142.988 59.9,138.79 57.966,136.459 C56.229,134.366 53.36,134.752 46.234,138.035 Z"/>
</svg>

