<svg xmlns="http://www.w3.org/2000/svg" width="300" height="300" viewBox="0 0 300 300" version="1.1">
  <defs/>
  <path d="M152.757,131.387 C155.144,129.574 156.278,129.679 158.697,131.932 C161.209,134.272 163.421,145.549 162.471,151.171 C161.6,156.33 163.424,156.237 170.793,150.75 C177.159,146.009 179.348,144.607 183,142.933 C185.795,141.651 187.15,140.863 191.5,137.989 C193.15,136.899 196.188,136.006 198.25,136.004 C201.741,136 202,136.205 202,138.965 C202,144.189 193.478,151.846 183.979,155.157 C182.118,155.806 178.324,158.071 175.548,160.19 C172.772,162.309 169.6,164.288 168.5,164.587 C167.4,164.886 165.712,166.825 164.749,168.896 C163.28,172.054 163.169,173.454 164.063,177.581 C166.116,187.053 166.184,187.768 165.096,188.441 C164.493,188.813 164,191.774 164,195.02 C164,199.84 164.412,201.314 166.25,203.061 C168.953,205.632 178.834,210.585 183.148,211.532 C184.852,211.907 187.654,213.027 189.373,214.021 C191.093,215.016 194.525,216.399 197,217.096 C199.475,217.793 202.74,219.214 204.256,220.254 C205.772,221.294 209.822,222.963 213.256,223.964 C223.61,226.981 231.69,231.448 240.905,239.25 C242.692,240.762 244.549,242 245.032,242 C245.516,242 247.569,243.125 249.595,244.5 C251.621,245.875 254.159,247 255.235,247 C258.6,247 266.884,253.803 266.967,256.635 C267.014,258.255 262.485,261.002 259.785,260.99 C258.528,260.985 255.599,259.469 253.276,257.623 C250.953,255.776 247.578,253.714 245.776,253.041 C238.702,250.399 238,249.992 238,248.528 C238,247.046 230.597,241 228.783,241 C228.279,241 226.434,239.91 224.683,238.578 C222.932,237.246 220.15,235.821 218.5,235.412 C216.85,235.004 212.289,233.169 208.365,231.335 C204.441,229.501 200.841,227.992 200.365,227.983 C199.889,227.974 196.35,226.399 192.5,224.484 C188.65,222.569 184.669,221.002 183.654,221.001 C181.843,221 169.166,215.158 165.778,212.763 C162.89,210.722 162.139,212.909 162.95,221 C163.364,225.125 163.388,229.175 163.003,230 C162.619,230.825 162.2,242.21 162.071,255.3 C161.899,272.957 162.156,279.483 163.069,280.583 C164.044,281.758 164.03,282.88 163,286 C161.948,289.186 161.943,290.227 162.973,291.468 C164.726,293.58 162.646,296 159.078,296 C155.812,296 154,294.344 154,291.359 C154,290.126 153.498,288.808 152.884,288.428 C152.121,287.957 151.99,285.482 152.469,280.619 C152.855,276.704 153.133,270.35 153.086,266.5 C153.04,262.65 153.033,258.6 153.072,257.5 C153.797,236.787 154.416,207.204 154.143,206.25 C153.516,204.055 150,204.786 150,207.111 C150,209.206 145.028,215.812 137.666,223.497 C133.204,228.155 126.811,237.421 127.209,238.652 C127.36,239.119 124.501,242.425 120.856,246 C117.212,249.575 112.588,254.474 110.58,256.886 C103.051,265.935 89.047,271.32 88.212,265.487 C87.995,263.978 89.52,262.425 94.304,259.279 C97.814,256.972 102.701,252.703 105.165,249.792 C112.077,241.627 120,231.154 120,230.184 C120,229.703 120.965,228.453 122.144,227.405 C123.324,226.357 125.686,223.427 127.394,220.894 C129.102,218.36 132.999,212.96 136.054,208.894 C139.108,204.827 142.238,200.231 143.01,198.68 C143.782,197.129 145.36,194.879 146.516,193.68 C149.214,190.884 153.533,183.266 154.349,179.864 C154.772,178.098 154.478,176.811 153.454,175.962 C152.187,174.91 151.466,175.116 149.214,177.173 C146.385,179.756 136.806,186 135.673,186 C135.314,186 132.429,187.799 129.261,189.999 C126.092,192.198 122.768,193.998 121.872,193.999 C120.977,193.999 119.685,194.675 119,195.5 C118.315,196.325 116.459,197 114.874,197 C113.289,197 110.314,197.9 108.261,199 C106.209,200.1 103.623,201.007 102.515,201.015 C101.407,201.023 98.7,201.679 96.5,202.471 C90.509,204.63 84.307,204.443 83.035,202.066 C80.537,197.397 83.521,193.095 88.352,194.401 C91.481,195.246 107.954,189.501 109.48,187.032 C109.831,186.464 111.33,186 112.81,186 C114.291,186 118.999,184.088 123.273,181.75 C127.547,179.412 132.89,176.507 135.147,175.293 C137.404,174.079 142.561,170.55 146.608,167.45 L153.965,161.815 L153.4,152.657 C153.089,147.621 152.425,141.072 151.924,138.105 C151.143,133.472 151.26,132.523 152.757,131.387 Z M56.407,131.878 C63.909,129.318 66.684,129.53 70.077,132.923 C73.306,136.152 73.815,140.212 71.903,147.5 C71.326,149.7 70.373,153.75 69.785,156.5 C69.198,159.25 68.213,162.175 67.597,163 C64.941,166.56 62.866,171.209 63.36,172.495 C63.687,173.349 65.748,174.005 68.697,174.193 C73.05,174.471 73.5,174.731 73.5,176.96 C73.5,180.272 67.936,184 62.992,184 C60.681,184 57.888,184.944 55.595,186.5 C53.569,187.875 51.346,189 50.656,189 C49.965,189 48.919,189.481 48.332,190.068 C47.744,190.656 45.525,190.993 43.4,190.818 C40.22,190.556 39.367,190.014 38.577,187.755 C37.759,185.416 38.016,184.592 40.309,182.2 C43.501,178.868 43.595,178.029 41.132,174.885 C40.104,173.573 38.737,170.025 38.093,167 C37.449,163.975 35.889,159.925 34.626,158 C33.363,156.075 32.035,153.002 31.674,151.171 C31.24,148.967 29.409,146.373 26.259,143.497 C22.225,139.815 21.668,138.875 22.604,137.327 C23.211,136.322 24.903,135.074 26.365,134.553 C28.722,133.713 29.507,134.081 33.299,137.803 C35.651,140.111 38.43,142 39.473,142 C40.517,142 43.608,140.114 46.343,137.808 C49.077,135.502 53.606,132.834 56.407,131.878 Z M155.368,31.493 C160.732,30.326 162.606,29.895 163.864,30.585 C164.579,30.976 165.095,31.73 165.94,32.916 C170.254,38.975 168.09,52.523 161.344,61.683 C158.588,65.426 158.356,68.63 160.655,71.171 C162.197,72.876 162.188,73.134 160.523,74.974 C159.54,76.06 157.783,77.238 156.618,77.592 C151.504,79.144 143.934,83.119 140.723,85.938 C136.519,89.629 135.949,89.676 132.857,86.584 C130.623,84.35 130.487,83.652 131.061,77.334 C131.403,73.575 131.304,69.742 130.841,68.816 C130.378,67.889 130,65.527 130,63.566 C130,61.605 129.502,60 128.893,60 C128.278,60 128.066,59.271 128.416,58.359 C129.444,55.68 126.893,44.685 124.675,42.235 C122.032,39.318 123.299,34.677 126.878,34.166 C129.384,33.809 135,38.318 135,40.687 C135,41.409 135.188,42 135.418,42 C135.648,42 136.542,42.271 137.404,42.602 C138.473,43.012 139.283,42.386 139.947,40.639 C141.296,37.092 148.055,33.083 155.368,31.493 Z M128.697,101.007 C132.762,100.263 137.618,102.14 139.029,105 C143.376,113.816 143.781,118.909 140.587,124.623 C137.444,130.247 137.342,132.671 140.127,135.635 C142.849,138.533 142.015,140.626 137.658,141.829 C134.091,142.814 126.84,147.553 121.948,152.098 C112.391,160.974 111.455,161.167 108.103,154.95 C106.274,151.558 106.277,151.451 108.281,148.621 C109.929,146.295 110.097,145.385 109.16,143.885 C108.522,142.863 108,140.941 108,139.614 C108,136.734 98.609,127.699 93.317,125.488 C90.173,124.175 89.903,123.733 90.188,120.376 C90.652,114.909 92.5,114.341 99.462,117.525 C104.973,120.046 114,127.648 114,129.767 C114,131.21 117.01,136.888 118.148,137.592 C120.763,139.208 128,132.794 128,128.861 C128,128.286 128.9,126.671 130,125.273 C131.436,123.448 132,121.216 132,117.365 C132,114.414 131.721,112 131.38,112 C129.69,112 122.021,117.781 121.098,119.75 C120.413,121.21 119.157,122 117.521,122 C115.432,122 115.004,121.529 115.022,119.25 C115.077,112.323 122.744,102.096 128.697,101.007 Z M182.499,85.939 C187.492,83.912 190.735,84.84 194.433,89.353 C197.771,93.426 198,94.158 198,100.731 C198,105.755 197.573,108.11 196.5,109 C195.675,109.685 195,111.063 195,112.063 C195,113.064 194.55,114.16 194,114.5 C192.654,115.332 192.722,124.322 194.085,125.685 C194.681,126.281 195.019,127.834 194.835,129.135 C194.592,130.849 193.763,131.585 191.823,131.809 C190.351,131.98 188.608,132.767 187.951,133.559 C187.293,134.352 185.904,135 184.864,135 C183.824,135 182.112,135.537 181.061,136.194 C179.578,137.12 178.559,137.12 176.527,136.194 C175.085,135.537 172.69,134.993 171.203,134.985 C166.34,134.957 165.693,133.839 165.778,125.613 C165.821,121.442 165.439,117.771 164.928,117.456 C164.418,117.14 163.997,116.121 163.994,115.191 C163.99,114.261 163.315,112.211 162.494,110.636 C161.672,109.06 161,106.993 161,106.041 C161,105.089 160.048,103.453 158.885,102.405 C154.062,98.061 154.565,92 159.749,92 C163.403,92 171.678,101.023 173.047,106.5 C173.596,108.7 174.486,111.281 175.023,112.236 C175.56,113.191 176,115.302 176,116.927 C176,118.552 176.524,120.206 177.166,120.602 C178.572,121.472 182.988,116.271 182.995,113.736 C182.998,112.766 183.383,111.191 183.852,110.236 C184.32,109.281 185.754,106.397 187.038,103.828 C188.996,99.91 189.162,98.9 188.064,97.578 C186.408,95.581 182.627,95.54 181,97.5 C180.315,98.325 178.937,99 177.937,99 C176.936,99 175.852,99.43 175.527,99.956 C174.476,101.657 172,99.857 172,97.392 C172,94.873 178.821,87.432 182.499,85.939 Z M151.451,44.25 C149.9,45.487 146.604,47.625 144.125,49 C139.054,51.813 137.416,55.476 138.988,60.49 C139.506,62.146 140.18,64.737 140.484,66.25 C140.839,68.011 141.677,69 142.816,69 C143.794,69 145.599,67.763 146.827,66.25 C152.71,59.006 155.098,55.455 155.681,53.084 C156.03,51.663 156.952,49.518 157.729,48.317 C158.809,46.649 158.881,45.646 158.036,44.067 C156.614,41.41 154.951,41.456 151.451,44.25 Z M56.5,145 C54.839,146.734 52.592,148 51.178,148 C49.831,148 47.709,149.1 46.463,150.446 C44.327,152.751 44.276,153.123 45.587,156.929 C46.353,159.149 47.273,163.47 47.632,166.529 C48.327,172.442 50.147,173.58 52.381,169.5 C52.983,168.4 54.944,165.174 56.738,162.331 C58.532,159.487 60,156.142 60,154.896 C60,153.651 60.934,150.702 62.076,148.343 C65.357,141.565 61.822,139.445 56.5,145 Z"/>
</svg>

