<svg xmlns="http://www.w3.org/2000/svg" width="300" height="300" viewBox="0 0 300 300" version="1.1">
  <defs/>
  <path d="M141.5,46 C144.746,44.605 151.437,44.883 155.096,46.563 C161.128,49.334 161.453,49.638 163.145,54.102 C164.062,56.521 165.775,60.921 166.951,63.88 C169.287,69.753 169.903,74.724 170.593,93.261 C170.878,100.924 171.028,104.667 171.027,108.41 C171.025,112.499 170.842,116.588 170.457,125.787 C170.025,136.101 170.166,141.495 170.889,142.367 C172.016,143.724 171.718,201.029 170.575,202.879 C170.253,203.4 170.464,208.253 171.044,213.663 C171.74,220.152 171.777,226.329 171.153,231.813 C170.524,237.343 170.561,242.405 171.261,246.932 C171.841,250.675 171.955,254.584 171.516,255.619 C171.076,256.653 170.555,260.2 170.357,263.5 C169.841,272.129 169.245,273.931 166.495,275.184 C164.373,276.151 163.673,275.939 161.273,273.602 C159.748,272.118 156.588,269.298 154.25,267.335 C151.912,265.373 150,263.214 150,262.539 C150,261.863 149.141,260.533 148.091,259.583 C147.042,258.633 145.619,256.425 144.93,254.678 C144.24,252.93 142.861,250.583 141.864,249.463 C139.257,246.533 139.02,242.681 141.416,242.186 C143.637,241.726 145.783,244.204 149.562,251.592 C152.363,257.068 159.062,265 160.884,265 C161.498,265 162.068,263.538 162.15,261.75 C162.711,249.615 162.759,242.879 162.314,238.714 C161.85,234.372 161.603,233.989 159.651,234.582 C158.468,234.942 156.745,235.899 155.822,236.708 C154.648,237.738 150.896,238.315 143.338,238.629 C135.037,238.974 131.773,239.527 129.254,241.012 C126.552,242.607 125.535,242.745 123.462,241.801 C121.444,240.881 120.254,240.985 117.44,242.327 C115.51,243.247 111.686,244 108.941,244 C106.196,244 101.374,244.941 98.225,246.091 C95.076,247.241 90.014,248.969 86.977,249.931 C83.939,250.892 79.561,252.764 77.249,254.09 C72.489,256.819 70.177,256.193 68.592,251.746 C67.098,247.556 71.042,243.731 80.5,240.193 C91.707,236.002 95.305,235.099 105,234.047 C109.675,233.539 118,232.248 123.5,231.178 C137.564,228.441 148.92,226.816 155.365,226.617 C158.401,226.524 161.184,226.149 161.548,225.785 C162.308,225.025 162.339,156.501 161.599,113.5 C160.958,76.242 159.416,66.059 153.497,59.997 C149.638,56.045 144.957,54.642 143.5,57 C143.16,57.55 141.973,58 140.861,58 C138.038,58 122.331,63.647 119.139,65.81 C117.687,66.793 115.375,68.135 114,68.793 C112.625,69.45 109.25,71.33 106.5,72.971 C103.75,74.612 99.025,77.173 96,78.662 C92.975,80.15 89.905,81.961 89.179,82.684 C87.678,84.178 79,84.498 79,83.059 C79,82.541 79.468,81.829 80.041,81.475 C80.613,81.121 82.171,79.105 83.503,76.995 C84.835,74.885 86.954,72.845 88.212,72.461 C89.471,72.077 91.252,71.104 92.171,70.298 C93.091,69.492 97.366,66.799 101.671,64.315 C105.977,61.83 111.075,58.877 113,57.753 C118.972,54.265 125.735,51 126.987,51 C127.646,51 129.329,50.1 130.727,49 C132.126,47.9 134.672,46.968 136.385,46.93 C138.098,46.891 140.4,46.473 141.5,46 Z M58.519,71.331 C60.402,68.457 64.06,68.304 66.497,70.997 C68.465,73.171 68.714,81.479 67.23,95.5 C66.823,99.35 66.814,110.6 67.211,120.5 C67.608,130.4 67.706,143.675 67.428,150 C67.151,156.325 66.732,171.754 66.498,184.286 C66.265,196.819 65.814,207.491 65.498,208.004 C65.181,208.516 64.899,218.626 64.87,230.469 C64.823,249.881 64.636,252.225 62.972,254.252 C61.476,256.073 60.781,256.29 59.313,255.394 C57.386,254.218 56.308,249.762 55.35,239 C55.031,235.425 54.304,231.922 53.735,231.216 C53.03,230.343 53.022,229.223 53.711,227.716 C56.083,222.522 56.828,217.839 57.004,207 C57.107,200.675 57.36,191.9 57.567,187.5 C58.705,163.229 59.167,120.895 58.306,119.764 C57.769,119.059 57.266,108.589 57.168,96.081 C57.021,77.447 57.249,73.268 58.519,71.331 Z M109.667,106.667 C110.033,106.3 111.619,106 113.191,106 C115.383,106 116.299,106.641 117.119,108.75 C118.898,113.323 118.447,120.218 116.119,124.036 C114.958,125.941 114.006,128.368 114.004,129.429 C113.997,132.865 111.356,139.992 105.853,151.427 C104.284,154.687 103,158.664 103,160.265 C103,163.094 103.109,163.157 106.9,162.517 C109.045,162.155 111.632,162.274 112.65,162.782 C114.765,163.838 120.164,166.197 124.365,167.9 C125.941,168.539 128.106,168.784 129.178,168.444 C131.509,167.704 141.277,172.28 145.222,175.96 C146.719,177.357 147.957,179.472 147.972,180.661 C147.999,182.717 142.917,188 140.914,188 C140.401,188 138.569,186.65 136.843,185 C135.116,183.35 132.983,181.986 132.102,181.968 C131.221,181.951 129.626,181.276 128.559,180.468 C127.491,179.661 125.986,179 125.213,179 C123.255,179 110.065,172.443 106.837,169.866 C103.58,167.265 99.468,167.943 98.425,171.252 C98.036,172.489 96.656,175.067 95.359,176.982 C94.061,178.897 93,181.266 93,182.246 C93,183.225 92.55,184.921 92,186.014 C91.45,187.106 90.55,188.894 90,189.986 C89.45,191.079 89,192.638 89,193.451 C89,194.264 88.078,195.423 86.951,196.026 C80.727,199.357 75.642,193.134 80.414,188.027 C81.713,186.637 83.103,184.375 83.502,183 C83.902,181.625 85.029,178.925 86.007,177 C86.985,175.075 88.331,171.486 89,169.025 C89.668,166.564 91.561,161.614 93.205,158.025 C98.501,146.468 99.008,145.211 99.638,142.059 C99.979,140.354 100.65,138.716 101.129,138.42 C101.608,138.124 102,136.81 102,135.5 C102,134.19 102.408,132.866 102.908,132.557 C103.407,132.249 104.556,129.41 105.462,126.248 C106.368,123.087 107.535,119.118 108.055,117.429 C108.575,115.74 109,112.777 109,110.846 C109,108.914 109.3,107.033 109.667,106.667 Z"/>
</svg>

