<svg xmlns="http://www.w3.org/2000/svg" width="300" height="300" viewBox="0 0 300 300" version="1.1">
  <defs/>
  <path d="M144.908,190.783 C151.424,186.928 157.539,186.975 161.253,190.91 C162.764,192.511 164,194.666 164,195.699 C164,196.732 164.923,199.36 166.051,201.539 C167.93,205.168 169.204,209.549 170.69,217.5 C170.999,219.15 171.683,221.043 172.212,221.706 C172.74,222.37 172.869,223.404 172.497,224.004 C172.126,224.605 172.165,225.862 172.583,226.798 C173.606,229.089 173.909,232.116 173.998,240.941 C174.039,245.034 174.574,248.987 175.187,249.726 C176.004,250.71 176.005,251.66 175.193,253.284 C174.583,254.503 173.852,259.775 173.569,265 C172.922,276.907 172.166,281.032 170.223,283.25 C166.804,287.153 160.209,284.003 161.518,279.092 C161.898,277.666 162.274,274.7 162.354,272.5 C162.482,268.998 162.204,268.458 160.121,268.164 C156.785,267.692 149.116,270.774 145.215,274.154 C143.409,275.719 141.159,277.013 140.215,277.028 C139.272,277.043 136.732,278.393 134.572,280.028 C132.411,281.663 129.936,283.013 129.072,283.028 C128.207,283.043 125.807,284.337 123.738,285.904 C120.324,288.489 119.354,288.722 113.263,288.427 C107.381,288.142 106.316,287.781 104.66,285.508 C102.924,283.125 102.816,281.511 103.327,265.707 C103.633,256.243 104.601,243.55 105.478,237.5 C106.355,231.45 107.499,222.48 108.021,217.566 C108.542,212.652 109.426,208.174 109.984,207.616 C110.543,207.057 111,205.488 111,204.129 C111,201.19 113.62,198 116.033,198 C119.225,198 120.161,200.458 119.429,206.923 C118.619,214.081 119.567,214.618 123.535,209.25 C129.745,200.85 133.769,197.374 144.908,190.783 Z M148.354,200.381 C146.074,200.997 143.374,202.235 142.354,203.132 C141.334,204.029 139.499,205.068 138.276,205.441 C137.053,205.813 135.03,207.554 133.781,209.309 C130.51,213.905 123.112,220.783 119.92,222.196 C117.62,223.214 116.987,224.38 115.98,229.454 C113.458,242.157 112.635,254.381 112.964,274.25 C113.086,281.623 113.885,282.392 118.115,279.201 C119.427,278.212 123.425,275.693 127,273.605 C130.575,271.516 136.65,267.401 140.5,264.46 C146.604,259.797 148.393,258.971 154.484,258 C163.604,256.546 165.007,255.221 164.974,248.095 C164.928,238.028 163.115,223.378 160.985,215.867 C159.837,211.815 158.515,207.025 158.047,205.222 C157.068,201.444 155.253,198.942 153.628,199.131 C153.007,199.202 150.634,199.765 148.354,200.381 Z M165.5,53.52 C168.8,52.776 171.824,52.13 172.22,52.084 C172.617,52.038 175.449,53.147 178.514,54.549 C184.601,57.334 186,59.479 186,66.03 C186,68.992 185.218,70.836 182.75,73.694 C177.143,80.187 166.425,88.604 162.515,89.586 C161.121,89.935 159.734,90.622 159.432,91.111 C158.464,92.676 152.981,92.113 152.316,90.38 C151.633,88.601 158.637,81.546 165.25,77.353 C167.313,76.045 169,74.354 169,73.594 C169,72.835 169.649,71.965 170.442,71.661 C172.835,70.742 175.223,66.279 174.516,64.049 C173.754,61.651 170.782,61.353 169.003,63.497 C168.319,64.32 164.87,65.886 161.338,66.977 C154.513,69.085 144.07,75.934 127,89.497 C121.775,93.648 116.019,97.724 114.208,98.553 C112.398,99.383 109.671,101.456 108.149,103.159 C105.933,105.64 104.379,106.353 100.352,106.74 L95.322,107.224 L90.411,101.624 C87.71,98.545 85.182,96.02 84.794,96.013 C84.406,96.006 82.431,94.875 80.405,93.5 C78.379,92.125 75.455,91 73.908,91 C70.082,91 66.026,89.024 65.882,87.089 C65.411,80.777 70.138,78.259 76.364,81.506 C77.94,82.328 80.287,83 81.58,83 C84.368,83 90.072,87.762 93.043,92.57 C94.789,95.394 95.767,96 98.582,96 C100.462,96 102,95.594 102,95.099 C102,94.313 107.662,90.319 110.5,89.103 C112.111,88.413 124.367,78.471 125.927,76.59 C126.712,75.643 128.737,74.161 130.427,73.297 C132.117,72.433 135.278,70.325 137.451,68.613 C139.624,66.901 142.154,65.05 143.073,64.5 C143.992,63.95 147.591,61.587 151.071,59.25 C154.551,56.913 157.871,54.971 158.449,54.936 C159.027,54.9 162.2,54.263 165.5,53.52 Z M58.746,106.948 C63.176,105.53 71.273,106.462 72.469,108.527 C73.036,109.505 74.287,111.012 75.25,111.875 C77.872,114.227 77.087,126.372 73.934,132.236 C73.42,133.191 73,134.96 73,136.165 C73,140.252 70.662,144.919 68.061,146.025 C64.116,147.703 59.854,150.238 55.906,153.254 C53.929,154.764 51.102,156 49.623,156 C42.743,156 35.822,150.198 34.538,143.352 C34.147,141.267 32.741,137.708 31.414,135.443 C30.086,133.178 29,130.718 29,129.976 C29,129.235 27.144,126.427 24.875,123.737 C21.222,119.404 20.876,118.567 21.853,116.422 C22.717,114.526 23.723,114 26.48,114 C29.562,114 30.453,114.626 33.595,119 C35.571,121.75 37.753,124 38.444,124 C39.136,124 41.676,121.525 44.09,118.5 C46.504,115.475 48.786,113 49.163,113 C49.539,113 51.229,111.837 52.919,110.415 C54.609,108.993 57.231,107.433 58.746,106.948 Z M141.672,146.873 C146.469,140.357 148.975,139.507 151.596,143.506 C153.017,145.675 153.06,146.448 151.913,149.256 C151.185,151.04 149.295,153.808 147.715,155.406 C146.134,157.005 144.15,159.367 143.306,160.656 C142.461,161.945 141.012,163 140.085,163 C138.307,163 136,164.827 136,166.234 C136,167.513 146.288,165.925 148.079,164.371 C150.949,161.879 160.162,163.261 164.25,166.797 C168.024,170.06 165.428,175.647 160.69,174.458 C159.202,174.085 157.238,174.422 155.844,175.291 C152.852,177.155 126.225,179.416 122.764,178.1 C118.447,176.459 116.194,170.88 115.455,160 C115.324,158.075 114.684,154.7 114.032,152.5 C112.286,146.606 112.313,144.882 114.172,143.685 C117.254,141.7 120.54,144.233 121.92,149.658 C122.597,152.321 123.567,155.281 124.076,156.236 C124.584,157.191 125,159.329 125,160.986 C125,162.737 125.524,163.995 126.25,163.987 C127.683,163.973 135.334,155.483 141.672,146.873 Z M135.649,97.109 C140.628,93.811 146.913,92.918 148.728,95.25 C149.263,95.938 150.268,99.26 150.962,102.632 C152.171,108.512 152.116,108.979 149.612,113.965 C146.587,119.987 146.454,121.237 148.508,124.373 C149.874,126.456 149.85,126.82 148.258,128.211 C147.291,129.056 144.814,130.288 142.753,130.95 C140.692,131.612 138.442,132.947 137.753,133.918 C135.758,136.728 132.284,138.258 131.316,136.753 C127.648,131.048 127.144,127.955 129.555,125.954 C131.798,124.093 139,111.692 139,109.692 C139,106.984 135.585,107.714 132.604,111.06 C129.243,114.832 124.699,114.905 124.173,111.196 C123.749,108.202 129.429,101.229 135.649,97.109 Z M122.485,16.658 C123.397,15.746 124.419,15 124.757,15 C126.173,15 130,19.489 130,21.15 C130,22.141 130.907,24.425 132.015,26.226 C133.78,29.094 133.951,30.553 133.4,38 C132.672,47.822 130.681,57.474 128.953,59.557 C127.406,61.42 123.1,61.423 122.385,59.561 C122.081,58.77 122.36,55.584 123.004,52.482 C124.325,46.119 123.962,45.197 120.748,46.752 C117.883,48.139 111.321,49.06 109.442,48.339 C108.649,48.035 108,46.493 108,44.912 C108,41.663 109.12,41.172 117.87,40.588 C123.602,40.205 125.422,38.789 124.411,35.5 C124.073,34.4 123.423,31.25 122.967,28.5 C122.511,25.75 121.843,22.334 121.482,20.908 C121.035,19.138 121.353,17.79 122.485,16.658 Z M54.5,121.078 C51.2,123.318 48.177,126.017 47.782,127.075 C47.387,128.134 46.136,129 45.001,129 C41.001,129 41.552,134.438 46.243,141.25 C48.672,144.778 49.827,144.711 54.796,140.75 C60.686,136.055 66.205,128.346 67.075,123.598 C68.507,115.779 63.72,114.819 54.5,121.078 Z M148.667,222.815 C149.813,221.549 151.429,221.004 153.449,221.201 C156.398,221.49 156.5,221.666 156.5,226.432 C156.5,231.161 156.308,231.502 151.807,234.734 C149.132,236.656 144.402,238.778 140.807,239.67 C137.165,240.573 133.38,242.28 131.849,243.71 C128.644,246.702 126.083,246.401 124.059,242.797 C122.643,240.274 122.702,239.947 124.999,237.501 C127.645,234.685 128.062,234.427 139.374,228.613 C143.534,226.476 147.716,223.867 148.667,222.815 Z M108.571,112.571 C110.75,110.392 112.232,110.586 117.432,113.726 C122.458,116.762 123.105,118.039 125.431,129.5 C127.745,140.908 127.754,141.386 125.651,141.811 C123.487,142.248 118,137.381 118,135.024 C118,132.468 114.496,126.291 110.597,121.975 C106.691,117.652 106.124,115.019 108.571,112.571 Z M151.04,17.96 C152.899,16.101 153.236,16.071 156.017,17.509 C157.658,18.357 159,19.795 159,20.705 C159,25.1 152.259,40.605 149.196,43.255 C148.263,44.062 145.363,45.953 142.75,47.456 C137.253,50.62 136.474,49.421 140.44,43.898 C143.758,39.277 147,32.21 147,29.595 C147,28.413 147.715,26.424 148.589,25.176 C149.463,23.928 149.923,22.243 149.612,21.431 C149.3,20.619 149.943,19.057 151.04,17.96 Z"/>
</svg>

