<svg xmlns="http://www.w3.org/2000/svg" width="300" height="300" viewBox="0 0 300 300" version="1.1">
  <defs/>
  <path d="M107.96,62.25 C111.717,56.177 116.831,59.403 115.604,67.073 C115.255,69.259 115.429,71.147 116.013,71.508 C117.861,72.65 119.678,78.441 119.305,82 C119.103,83.925 119.373,86.154 119.904,86.954 C120.735,88.205 121.232,88.214 123.464,87.019 C127.528,84.844 133.831,78.211 134.182,75.74 C134.409,74.139 135.285,73.41 137.25,73.184 C138.763,73.009 140.466,71.997 141.036,70.934 C143.217,66.858 147.373,69.135 149.605,75.628 C150.869,79.304 150.805,79.412 146.816,80.364 C144.868,80.829 144.046,81.73 143.816,83.652 C143.642,85.107 142.607,86.794 141.515,87.399 C140.424,88.005 138.93,89.296 138.196,90.268 C137.461,91.241 134.755,93.128 132.18,94.462 C129.606,95.796 126.199,97.956 124.609,99.262 L121.718,101.637 L121.915,113.068 C122.265,133.383 122.851,146.956 123.463,148.884 C123.792,149.919 123.57,152.957 122.969,155.633 C122.368,158.312 121.975,167.693 122.093,176.5 C122.412,200.154 121.945,216.375 120.912,217.45 C119.576,218.842 119.799,221.589 121.355,222.879 C122.316,223.677 124.204,223.72 127.862,223.026 C130.696,222.489 136.612,221.96 141.007,221.852 C148.011,221.68 149,221.429 149,219.828 C149,217.222 150.422,217.554 154.465,221.104 C158.546,224.687 159.139,228.659 156.015,231.486 C154.416,232.934 153.019,233.162 148.816,232.665 C144.254,232.124 132.347,233.272 128,234.67 C127.175,234.936 122.225,235.243 117,235.353 C110.315,235.493 106.491,236.063 104.096,237.276 C102.224,238.224 99.654,239 98.383,239 C96.192,239 89.054,241.444 82.5,244.437 C78.321,246.346 70.171,247.608 66,246.993 C63.01,246.551 62.539,246.125 62.768,244.068 C63.129,240.832 64.795,239 67.379,239 C68.553,239 73.336,237.503 78.007,235.672 C82.678,233.842 89.65,231.531 93.5,230.536 C101.445,228.483 110.112,224.775 111.844,222.688 C112.672,221.69 112.76,219.452 112.149,214.979 C111.511,210.32 111.627,208.02 112.591,206.161 C113.584,204.248 113.889,196.269 113.866,172.823 C113.836,143.62 113.739,142 112.003,142 C110.207,142 105,149.81 105,152.504 C105,153.192 104.303,154.334 103.45,155.041 C102.598,155.748 100.991,158.391 99.878,160.914 C95.655,170.489 94.919,171.932 93.951,172.53 C93.403,172.869 91.629,175.772 90.009,178.983 C88.388,182.193 85.698,185.791 84.031,186.978 C81.902,188.494 81,189.963 81,191.913 C81,198.694 72.186,200.23 68.604,194.074 C66.674,190.758 66.67,190.614 68.46,189.574 C72.432,187.266 76.588,183.017 78.464,179.345 C79.544,177.23 81.582,173.7 82.994,171.5 C84.406,169.3 86.186,166.262 86.95,164.75 C87.713,163.238 88.712,162 89.169,162 C89.626,162 90,161.282 90,160.404 C90,159.527 90.639,157.614 91.419,156.154 C92.199,154.694 94.978,149 97.593,143.5 C100.208,138 102.894,132.825 103.562,132 C104.23,131.175 105.989,128.025 107.471,125 C108.953,121.975 110.578,118.719 111.083,117.764 C111.587,116.809 112,114.657 112,112.982 C112,109.451 109.286,107.737 107.827,110.346 C107.317,111.255 106.282,112 105.527,112 C104.771,112 102.042,113.612 99.461,115.582 C96.868,117.561 93.143,119.393 91.134,119.677 C89.135,119.96 86.073,120.827 84.33,121.604 C78.375,124.26 75.392,124.392 73.104,122.104 C71.893,120.893 71,118.717 71,116.975 C71,113.787 72.822,112.565 79.5,111.275 C81.15,110.956 86.192,108.977 90.704,106.878 C95.216,104.779 99.941,102.801 101.204,102.482 C102.467,102.164 105.115,100.463 107.088,98.702 C110.458,95.695 110.66,95.174 110.405,90.146 C110.256,87.201 109.835,84.051 109.469,83.146 C109.103,82.241 108.421,78.8 107.954,75.5 C107.486,72.2 106.844,68.6 106.527,67.5 C106.194,66.345 106.8,64.127 107.96,62.25 Z M147,27.262 C150.025,26.164 154.06,25.206 155.967,25.133 C159.381,25.002 167.996,27.688 168.004,28.886 C168.006,29.224 168.999,31.075 170.211,33 C176.408,42.842 179.032,54.697 178.178,69 C178.063,70.925 178.216,79.7 178.519,88.5 C178.828,97.507 178.993,101.802 179.028,106.098 C179.068,111.093 178.934,116.09 178.649,128.5 C177.632,172.733 178.003,223.643 179.357,225.794 C179.806,226.505 179.759,227.63 179.255,228.294 C178.75,228.957 178.429,233.1 178.54,237.5 C178.778,246.842 177.204,251.037 172.513,253.563 C169.696,255.08 169.04,255.091 164.964,253.685 C155.742,250.503 147.95,245.873 145.547,242.146 C143.529,239.017 143.393,238.294 144.589,237.045 C145.8,235.78 146.442,236.037 149.514,239.014 C152.732,242.133 153.674,242.473 160.106,242.836 C164.191,243.067 167.601,242.799 168.199,242.201 C169.156,241.244 169.417,224.628 169.101,184.75 L169,172 L165.196,172 C162.687,172 159.781,170.979 156.661,169 C154.059,167.35 151.551,166 151.088,166 C150.624,166 149.652,165.286 148.928,164.414 C148.038,163.341 146.693,163.011 144.776,163.395 C142.382,163.874 141.757,163.536 140.767,161.231 C140.122,159.729 137.435,156.164 134.797,153.31 C129.842,147.948 128.579,143.759 131.572,142.611 C133.467,141.884 136.373,143.315 140.785,147.147 C142.591,148.716 144.659,150 145.38,150 C146.1,150 147.501,150.896 148.492,151.991 C150.791,154.532 158.382,159 160.398,159 C161.246,159 162.949,160.365 164.182,162.032 C168.945,168.474 169.115,167.304 169.054,128.5 C169.023,108.7 168.75,87.775 168.448,82 C168.145,76.225 167.666,66.56 167.383,60.523 C167.1,54.486 166.51,49.086 166.072,48.523 C165.634,47.96 164.996,46.327 164.655,44.894 C164.287,43.347 162.34,41.167 159.865,39.529 C156.301,37.171 155.036,36.86 151.163,37.391 C148.67,37.733 145.701,38.606 144.565,39.332 C143.429,40.057 140.375,41.235 137.777,41.948 C135.179,42.661 130.94,44.315 128.357,45.622 C125.774,46.93 123.076,48 122.361,48 C121.646,48 119.458,48.9 117.5,50 C115.542,51.1 113.333,52 112.592,52 C111.214,52 105.695,54.283 103,55.967 C102.175,56.483 99.925,57.538 98,58.312 C96.075,59.086 93.241,60.232 91.703,60.859 C90.165,61.487 87.915,62.003 86.703,62.007 C85.491,62.01 83.15,62.907 81.5,64 C77.701,66.516 75.776,66.515 73.496,63.996 C69.935,60.06 74.701,55.797 88,51.022 C93.793,48.942 98.412,46.817 100,45.502 C100.825,44.819 104.425,43.034 108,41.535 C111.575,40.037 115.368,38.35 116.429,37.786 C119.572,36.114 134.217,30.84 138,30.018 C139.925,29.599 143.975,28.359 147,27.262 Z M55.569,54.924 C58.124,52.101 60.717,52.553 62.575,56.145 C64.109,59.11 65.145,71.429 65.255,88 C65.313,96.759 63.946,146.707 63.407,155.5 C62.013,178.267 61.267,208.26 61.952,214 C63.627,228.029 61.082,236.72 56.083,234.045 C54.326,233.104 54,231.986 54,226.899 C54,223.582 53.581,220.085 53.068,219.127 C52.127,217.37 51.901,211.108 52.414,201 C52.567,197.975 53.019,188.075 53.417,179 C53.816,169.925 54.357,158.9 54.619,154.5 C56.139,128.939 56.524,107.371 55.493,105.5 C54.749,104.15 54.619,99.764 55.093,92 C55.48,85.675 55.633,80.232 55.435,79.905 C55.236,79.578 54.794,74.256 54.451,68.079 C53.906,58.254 54.046,56.606 55.569,54.924 Z"/>
</svg>

