<svg xmlns="http://www.w3.org/2000/svg" width="300" height="300" viewBox="0 0 300 300" version="1.1">
  <defs/>
  <path d="M153.023,88.647 C156.05,86.468 163.185,87.064 167,89.814 C170.26,92.165 174,99.559 174,103.653 C174,105.429 174.45,107.16 175,107.5 C176.266,108.282 176.316,117.28 175.061,118.55 C174.545,119.072 173.937,124.45 173.711,130.5 C173.461,137.172 172.606,143.664 171.536,147 C170.567,150.025 169.249,154.379 168.608,156.677 C167.967,158.974 166.668,161.709 165.721,162.755 C164.593,164.003 163.992,166.351 163.978,169.579 C163.951,175.532 161.867,178.488 157.066,179.383 C155.177,179.736 152.794,180.781 151.771,181.707 C150.748,182.633 148.918,183.536 147.705,183.713 C146.492,183.891 143.125,185.153 140.223,186.518 C133.892,189.496 132.968,189.549 129.88,187.121 C128.566,186.087 126.642,185.074 125.603,184.871 C123.943,184.545 123.658,183.294 123.239,174.5 C122.977,169 122.776,163.375 122.793,162 C122.822,159.509 120.698,144 119.026,134.5 C118.542,131.75 118.113,127.309 118.073,124.631 C118.033,121.953 117.014,116.889 115.809,113.377 C114.132,108.492 113.843,106.348 114.579,104.255 C116.36,99.191 122.15,100.883 123.323,106.81 C124.312,111.807 126.229,118.489 127.224,120.407 C127.768,121.456 128.375,125.454 128.573,129.292 C128.772,133.129 129.434,137.785 130.046,139.638 C130.657,141.491 130.873,144.303 130.525,145.888 C130.177,147.472 130.555,152.565 131.365,157.205 C132.175,161.846 132.803,166.285 132.761,167.071 C132.719,167.857 132.756,170.412 132.842,172.75 C132.976,176.348 133.322,177 135.096,177 C137.473,177 142.379,174.494 145.823,171.521 C147.1,170.417 150.017,168.612 152.305,167.507 C155.453,165.989 156.61,164.77 157.061,162.5 C157.388,160.85 158.392,157.925 159.292,156 C161.08,152.174 163.254,140.219 162.409,138.853 C161.278,137.023 157.926,138.064 156.986,140.538 C155.717,143.875 144.767,149.223 141.058,148.317 C137.838,147.53 137.035,146.327 137.015,142.263 C137.002,139.483 137.511,138.814 140.622,137.513 C142.614,136.681 145.569,136 147.189,136 C148.808,136 151.608,134.875 153.411,133.5 C155.269,132.083 158.024,131 159.771,131 C162.23,131 163.172,130.362 164.427,127.846 C166.296,124.1 166.578,110.532 164.875,106.297 C162.842,101.238 162.188,99.522 161.622,97.75 C160.884,95.44 157.545,95.508 156.403,97.857 C155.122,100.491 145.227,109 143.445,109 C142.627,109 141.445,110.125 140.818,111.5 C140.192,112.875 139.137,114 138.474,114 C137.812,114 136.124,114.901 134.724,116.003 C130.977,118.95 128.631,117.682 129.359,113.102 C129.764,110.556 131.188,108.348 134.216,105.571 C136.572,103.41 141.21,99.119 144.523,96.037 C147.836,92.954 151.661,89.629 153.023,88.647 Z M235.82,198.058 C248.844,197.652 260.209,197.248 261.076,197.16 C261.942,197.072 263.675,198.09 264.927,199.422 C266.873,201.493 267.098,202.471 266.485,206.172 C265.447,212.438 264.358,214 261.032,214 C259.052,214 257.942,213.391 257.525,212.078 C257.429,211.777 257.364,211.522 257.239,211.301 C256.512,210.012 253.781,209.853 231.5,208.232 C225.45,207.792 220.05,207.743 219.5,208.123 C218.012,209.153 199.186,211.233 197.998,210.499 C197.435,210.151 195.561,210.571 193.834,211.433 C192.106,212.295 189.074,213.014 187.096,213.032 C185.118,213.049 182.626,213.724 181.559,214.532 C180.491,215.339 177.878,216 175.751,216 C169.875,216 157.691,218.142 156,219.471 C154.564,220.601 146.854,222.221 136.773,223.511 C134.174,223.843 131.81,224.499 131.52,224.967 C131.231,225.436 128.952,225.788 126.456,225.751 C123.96,225.713 121.396,226.204 120.759,226.841 C120.122,227.478 118.225,228 116.543,228 C114.862,228 111.915,228.478 109.993,229.063 C104.166,230.836 95.833,232.216 89.468,232.463 C86.15,232.591 82.467,233.215 81.283,233.848 C80.1,234.482 77.864,234.996 76.316,234.992 C74.767,234.987 70.48,235.757 66.789,236.703 L60.079,238.423 L57.487,235.988 C55.516,234.136 55.045,232.948 55.518,231.027 C56.449,227.255 57.414,226.691 63.459,226.387 C66.497,226.234 73.149,225.372 78.241,224.47 C83.334,223.569 90.425,222.433 94,221.946 C97.575,221.458 103.65,220.331 107.5,219.439 C111.35,218.548 116.975,217.45 120,216.999 C123.025,216.548 128.875,215.412 133,214.475 C137.125,213.538 142.525,212.39 145,211.924 C147.475,211.457 156.25,209.658 164.5,207.925 C185.369,203.541 193.292,202.096 202.233,201.047 C206.486,200.547 210.455,199.837 211.053,199.467 C211.651,199.098 222.796,198.463 235.82,198.058 Z M47.654,91.406 C49.365,88.793 52.167,88.262 53.751,90.25 C54.299,90.938 55.055,93.75 55.431,96.5 C56.712,105.88 57.385,106.408 64.346,103.5 C69.476,101.357 71.865,101.609 73.15,104.429 C74.115,106.549 73.89,107.199 71.378,109.535 C69.795,111.007 66.651,113.084 64.39,114.15 C58.592,116.885 57.784,119.331 57.503,135 C57.37,142.425 56.926,151.254 56.516,154.62 C56.009,158.787 56.127,160.96 56.886,161.429 C58.262,162.28 58.338,166.501 57.021,168.961 C56.333,170.247 56.42,171.104 57.316,171.848 C58.272,172.641 60.143,171.438 64.793,167.04 C68.204,163.814 73.901,159.55 77.454,157.563 C81.006,155.577 84.183,153.512 84.515,152.976 C85.392,151.556 89.006,151.779 88.965,153.25 C88.888,155.956 86.035,159.368 76.96,167.606 C71.757,172.329 67.094,177.05 66.597,178.097 C66.101,179.144 64.942,180 64.021,180 C63.101,180 61.258,181.168 59.924,182.595 C58.591,184.023 55.587,186.315 53.25,187.69 C50.912,189.065 49,190.53 49,190.945 C49,192.102 32.262,209 31.116,209 C30.562,209 29.51,210.238 28.778,211.75 C27.602,214.177 26.98,214.459 23.473,214.148 C18.26,213.686 18,213.467 18,209.526 C18,206.689 18.735,205.619 22.75,202.608 C25.363,200.649 30.389,196.111 33.921,192.523 C37.452,188.935 40.917,186 41.62,186 C42.323,186 44.043,184.499 45.442,182.664 L47.987,179.329 L47.732,152.926 C47.491,128.042 47.369,126.502 45.607,126.163 C43.893,125.833 40.826,126.881 37,129.103 C30.641,132.797 29.57,133.142 26.332,132.535 C24.019,132.101 22.54,131.085 21.774,129.404 C20.199,125.947 22.126,124.254 35,117.78 L45.5,112.5 L45.789,103.156 C45.987,96.74 46.572,93.057 47.654,91.406 Z M165.521,39.976 C168.306,36.899 169.994,39.202 167.781,43.059 C166.843,44.694 166.316,46.661 166.611,47.43 C166.949,48.308 165.019,50.438 161.417,53.164 C150.624,61.331 147.926,63 145.524,63 C144.201,63 142.824,63.476 142.464,64.058 C141.777,65.17 124.998,73.485 119,75.686 C117.075,76.392 114.635,76.977 113.579,76.985 C109.134,77.02 106.197,70.741 109.411,68.074 C110.187,67.43 112.547,66.623 114.656,66.281 C116.765,65.939 120.65,64.385 123.289,62.829 C125.929,61.273 129.109,60 130.357,60 C131.605,60 133.919,58.65 135.5,57 C137.081,55.35 138.951,54 139.656,54 C141.533,54 152.96,45.944 154.097,43.818 C154.807,42.492 156.237,42 159.38,42 C162.437,42 164.223,41.412 165.521,39.976 Z"/>
</svg>

