<svg xmlns="http://www.w3.org/2000/svg" width="300" height="300" viewBox="0 0 300 300" version="1.1">
  <defs/>
  <path d="M149.657,9.055 C151.999,7.213 152.563,7.129 154.407,8.347 C158.399,10.984 158.627,15.157 155.099,21 C154.601,21.825 153.593,24.517 152.86,26.982 C152.127,29.446 150.158,33.496 148.484,35.982 C146.811,38.467 144.864,41.821 144.157,43.436 C143.451,45.051 141.552,48.041 139.937,50.08 C138.321,52.119 136.99,54.398 136.978,55.144 C136.966,55.89 136.076,57.625 135,59 C133.924,60.375 133.034,62.065 133.022,62.757 C133.01,63.448 131.9,64.97 130.556,66.138 C129.212,67.307 127.432,69.961 126.602,72.036 C125.667,74.373 123.361,77.052 120.546,79.074 C115.72,82.54 115.081,83.993 117.5,86 C118.325,86.685 119,87.707 119,88.271 C119,88.836 121.025,91.757 123.5,94.764 C126.44,98.335 128,101.192 128,103.006 C128,104.532 128.89,107.743 129.978,110.141 C131.066,112.538 131.966,115.963 131.978,117.75 C132.008,122.234 134.674,122.025 136.612,117.386 C137.443,115.398 140.078,111.992 142.469,109.816 C147.151,105.555 147.309,105.015 148.62,88.75 C149.023,83.749 148.842,82 147.922,82 C147.24,82 144.086,84.475 140.915,87.5 C137.743,90.525 134.735,93 134.229,93 C132.633,93 130.282,89.615 129.724,86.515 C129.251,83.884 129.858,82.908 134.844,78.28 C137.955,75.393 140.857,73.023 141.293,73.015 C141.729,73.007 144.204,71.038 146.793,68.64 C152.395,63.45 154.203,62.447 159.543,61.563 C162.491,61.075 164.794,61.415 168.043,62.818 C171.813,64.446 172.941,65.648 175.365,70.621 C176.94,73.855 178.574,77.195 178.995,78.045 C180.332,80.742 179.254,98.608 177.557,101.891 C176.7,103.546 176,106.964 176,109.486 C176,113.374 174.313,117.828 172.018,120 C171.149,120.822 169,127.508 169,129.388 C169,131.443 164.226,138 162.729,138 C161.017,138 153.093,144.371 152.454,146.261 C152.126,147.229 150.595,148.675 149.051,149.474 C147.507,150.272 144.625,153.365 142.646,156.347 C140.666,159.328 138.362,162.031 137.524,162.353 C136.686,162.674 136,163.825 136,164.91 C136,165.994 135.584,167.139 135.076,167.453 C134.569,167.767 133.429,170.204 132.544,172.868 C131.659,175.533 129.824,178.756 128.467,180.031 C127.11,181.306 126,182.861 126,183.487 C126,184.113 124.65,185.919 123,187.5 C121.35,189.081 120,190.952 120,191.657 C120,192.363 118.65,193.938 117,195.158 C115.35,196.378 114,198.244 114,199.305 C114,199.875 113.98,200.296 114.178,200.544 C114.729,201.235 116.964,200.583 126,198.058 C136.078,195.242 150.792,192 153.497,192 C158.213,192 158.642,189.938 157.961,170.5 C157.365,153.498 157.438,152.403 159.276,150.75 C161.615,148.646 163.012,148.557 165.47,150.354 C167.145,151.579 167.33,153.39 167.411,169.271 C167.46,178.93 167.768,187.101 168.095,187.428 C169.374,188.708 197.472,183.92 201.384,181.757 C203.346,180.671 208.593,179.723 220.148,178.366 C225.725,177.712 229,179.19 229,182.361 C229,186.525 225.242,188.777 217,189.552 C212.875,189.939 208.984,190.665 208.353,191.165 C207.25,192.039 203.346,192.608 181.5,195.081 C176,195.704 170.995,196.622 170.378,197.123 C168.812,198.392 167.808,205.685 167.503,218 C166.603,254.306 165.436,283.481 164.663,289 C164.47,290.375 164.242,293.413 164.156,295.75 L164,300 L155.744,300 L156.378,266.25 C156.727,247.688 157.297,225.412 157.645,216.75 L158.278,201 L155.389,201.017 C153.8,201.027 149.125,201.964 145,203.1 C140.875,204.236 135.7,205.52 133.5,205.953 C131.3,206.386 127.827,207.474 125.782,208.37 C123.737,209.267 121.346,210 120.468,210 C118.363,210 108.37,214.592 107.535,215.943 C107.176,216.525 105.646,217 104.135,217 C102.625,217 99.864,218.125 98,219.5 C96.136,220.875 94.136,222.014 93.556,222.031 C92.975,222.049 89.811,223.399 86.525,225.031 C83.239,226.664 79.977,228 79.275,228 C78.574,228 78,228.45 78,229 C78,230.598 73.829,230.155 71.829,228.345 C68.661,225.478 69.603,222.783 75.006,219.25 C77.74,217.463 80.59,216 81.339,216 C84.27,216 94.704,208.745 98.012,204.408 C99.93,201.891 102.871,198.183 104.546,196.166 C106.221,194.15 108.345,191.375 109.265,190 C110.185,188.625 112.283,185.7 113.927,183.5 C115.57,181.3 117.799,177.689 118.88,175.475 C119.961,173.262 121.78,170.604 122.922,169.57 C124.065,168.536 125,166.876 125,165.88 C125,164.885 126.125,162.056 127.5,159.593 C130.576,154.084 130.603,153.18 127.729,152.087 C124.215,150.751 122.354,146.576 123.946,143.601 C124.721,142.153 124.997,139.677 124.644,137.351 C124.322,135.233 123.658,130.8 123.169,127.5 C122.68,124.2 121.317,118.842 120.14,115.593 C118.963,112.345 118,108.899 118,107.935 C118,105.794 109.644,97 107.609,97 C105.329,97 103,94.121 103,91.302 C103,89.428 105.088,86.713 110.829,81.123 C115.135,76.93 119.36,72.15 120.218,70.5 C121.076,68.85 122.728,65.717 123.889,63.539 C125.05,61.36 126,58.798 126,57.845 C126,56.893 126.808,55.525 127.796,54.807 C128.783,54.088 130.38,51.7 131.343,49.5 C132.307,47.3 133.525,44.825 134.05,44 C134.575,43.175 135.454,41.375 136.003,40 C136.552,38.625 137.451,36.719 138,35.764 C138.55,34.809 139,33.148 139,32.073 C139,30.998 139.432,29.851 139.96,29.525 C140.487,29.199 141.698,26.36 142.649,23.216 C143.601,20.072 144.969,16.79 145.69,15.921 C146.41,15.053 147,13.623 147,12.744 C147,11.865 148.196,10.205 149.657,9.055 Z M56.665,86.828 C59.922,83.429 60.687,83.357 63.686,86.174 C65.666,88.035 66,89.332 66,95.174 C66,98.928 66.421,102 66.937,102 C67.452,102 68.014,103.463 68.187,105.25 C68.67,110.261 71.761,110.041 77.936,104.557 C80.758,102.051 83.471,100 83.965,100 C85.025,100 89,105.366 89,106.797 C89,107.341 88.314,108.049 87.476,108.371 C86.638,108.692 85.625,109.805 85.226,110.844 C84.827,111.882 81.638,114.929 78.14,117.616 C70.124,123.772 68.249,128.074 68.403,139.945 C68.475,145.432 68.093,148.508 67.255,149.203 C66.507,149.824 66,152.634 66,156.154 C66,164.159 67.606,164.605 73.923,158.359 C82.004,150.369 88.811,144.8 90.683,144.645 C92.143,144.525 92.39,145.184 92.124,148.499 C91.738,153.315 90.581,155.645 86.834,159.151 C85.275,160.609 84,162.492 84,163.334 C84,164.176 83.112,165.147 82.026,165.492 C80.94,165.836 79.11,167.442 77.958,169.059 C76.806,170.677 75.259,172 74.52,172 C73.782,172 70.718,175.262 67.713,179.25 C61.231,187.849 57.221,192 55.396,192 C54.664,192 52.196,194.475 49.912,197.5 C47.628,200.525 45.354,203 44.858,203 C44.363,203 43.445,204.125 42.818,205.5 C41.955,207.394 40.918,208 38.539,208 C34.49,208 33,206.428 33,202.156 C33,199.092 34.2,197.541 43.871,188.106 C49.851,182.273 55.248,176.522 55.865,175.327 C57.409,172.339 58.34,155.024 57.128,151.838 C56.467,150.099 56.488,148.912 57.191,148.209 C57.765,147.635 58.233,144.54 58.23,141.332 C58.224,134.352 58.294,132.079 57.265,131.344 C56.703,130.942 55.812,131 54.401,131 C52.422,131 49.384,131.632 47.651,132.405 C45.918,133.178 42.183,134.052 39.351,134.346 C33.024,135.004 31,133.295 31,127.294 C31,122.196 32.829,120.548 37.624,121.326 C40.096,121.728 41.689,121.454 42.687,120.456 C43.488,119.655 45.798,118.998 47.821,118.996 C49.845,118.994 52.993,118.082 54.819,116.969 C58.114,114.96 58.133,114.907 57.462,109.223 C57.09,106.075 56.149,100.385 55.371,96.578 L53.955,89.656 Z M161.216,75.25 C160.65,75.938 160.177,79.894 160.163,84.042 C160.15,88.19 159.995,92.229 159.819,93.018 C159.257,95.544 163.435,95.23 165.945,92.558 C167.88,90.499 168.332,88.908 168.4,83.922 C168.472,78.656 168.158,77.546 166.131,75.905 C163.368,73.668 162.602,73.566 161.216,75.25 Z M160.241,109.777 C158.449,111.275 156.986,113.385 156.991,114.467 C157,116.408 154.745,123.465 152.776,127.655 C151.456,130.466 152.617,132.563 154.589,130.926 C155.365,130.282 156,129.29 156,128.722 C156,128.154 157.125,126.214 158.5,124.411 C159.947,122.514 161,119.803 161,117.974 C161,116.237 161.9,113.671 163,112.273 C165.003,109.726 165.658,106.976 164.25,107.027 C163.838,107.042 162.033,108.279 160.241,109.777 Z M133.667,123.667 C132.435,124.898 132.985,129.743 134.5,131 C135.325,131.685 136,133.352 136,134.706 C136,137.969 138.173,137.186 139.138,133.575 C139.707,131.448 139.298,129.849 137.43,126.89 C134.811,122.741 134.693,122.64 133.667,123.667 Z"/>
</svg>

