<svg xmlns="http://www.w3.org/2000/svg" width="300" height="300" viewBox="0 0 300 300" version="1.1">
  <defs/>
  <path d="M111.297,97.966 C113.281,95.649 117.249,95.39 118.971,97.465 C119.639,98.27 120.084,100.858 119.959,103.215 C119.834,105.572 119.792,109.638 119.866,112.25 C119.986,116.501 120.242,117 122.3,117 C123.565,117 125.028,116.592 125.55,116.094 C126.073,115.596 128.126,114.288 130.113,113.188 C132.1,112.088 134.689,110.587 135.866,109.851 C138.982,107.905 141.5,109.804 141.5,114.1 C141.5,117.607 140.546,118.414 130.5,123.411 C128.85,124.232 125.638,126.629 123.361,128.739 C118.752,133.01 118.133,135.295 115.567,157.5 C114.868,163.55 113.512,170.525 112.553,173 C111.594,175.475 110.597,178.85 110.337,180.5 C110.077,182.15 109.361,184.526 108.747,185.78 C107.868,187.574 107.947,188.375 109.118,189.547 C110.348,190.777 111.897,190.872 118.053,190.096 C122.149,189.579 130.9,188.66 137.5,188.053 C144.1,187.446 151.75,186.738 154.5,186.48 C183.302,183.773 218.193,183.428 222.637,185.806 C225.068,187.107 226.311,189.639 225.354,191.34 C223.674,194.33 220.452,197 218.526,197 C217.357,197 215.893,197.507 215.273,198.127 C214.437,198.963 213.281,198.719 210.795,197.182 C208.952,196.043 205.882,195.039 203.972,194.95 C191.344,194.364 170.906,194.758 162,195.76 C151.127,196.984 142.411,197.839 113.5,200.519 C104.15,201.386 95.15,202.6 93.5,203.216 C91.85,203.833 88.475,204.485 86,204.666 C73.796,205.556 56.811,207.977 55.5,209.013 C54.95,209.448 51.4,210.132 47.611,210.533 C43.822,210.934 39.547,211.876 38.111,212.625 C36.675,213.375 34.514,213.99 33.309,213.994 C32.104,213.997 30.84,214.45 30.5,215 C30.16,215.55 28.754,216 27.375,216 C25.997,216 23.941,216.496 22.808,217.103 C19.981,218.616 16.24,216.805 15.417,213.527 C14.559,210.107 17.3,206 20.44,206 C21.757,206 24.784,205.167 27.167,204.15 C34.202,201.146 47.831,198.545 70,195.975 C74.675,195.433 83.619,194.204 89.876,193.245 L101.252,191.5 L101.543,184.84 C101.703,181.176 102.338,177.236 102.955,176.084 C103.572,174.932 104.322,170.954 104.622,167.244 C104.923,163.535 105.412,159.825 105.711,159 C106.009,158.175 106.393,155.025 106.565,152 C106.736,148.975 107.159,143.853 107.503,140.618 C108.08,135.199 107.986,134.797 106.315,135.509 C105.317,135.934 103.6,136.331 102.5,136.391 C101.399,136.451 99.487,137.512 98.25,138.75 C97.012,139.988 94.932,141 93.626,141 C92.32,141 89.379,141.661 87.091,142.468 C82.227,144.184 77.822,143.566 75.334,140.817 C73.744,139.06 73.714,138.604 75.033,136.283 C76.514,133.68 82.927,131.047 87.866,131.015 C90.426,130.999 98.23,128.661 104.274,126.099 C108.723,124.214 108.896,123.667 109.303,110.216 C109.541,102.352 110.011,99.468 111.297,97.966 Z"/>
</svg>

