<svg xmlns="http://www.w3.org/2000/svg" width="300" height="300" viewBox="0 0 300 300" version="1.1">
  <defs/>
  <path d="M141.393,48.418 C141.692,47.638 143.06,47 144.433,47 C147.074,47 152,52.91 152,56.078 C152,56.966 152.709,59.224 153.576,61.096 C159.006,72.824 160.034,73.436 168.515,69.994 C175.527,67.148 177.314,67.565 178.071,72.224 C178.698,76.081 177.717,77.97 175.05,78.042 C174.197,78.065 171.825,79.564 169.777,81.374 C166.16,84.572 166.072,84.812 166.67,89.862 C167.009,92.72 167.671,95.297 168.143,95.588 C168.614,95.88 169,96.926 169,97.913 C169,98.9 170.085,100.878 171.411,102.309 C172.737,103.74 174.139,106.393 174.526,108.205 C175.205,111.38 177.298,115.866 179.561,119 C180.157,119.825 181.209,122.525 181.898,125 C183.08,129.245 184.171,131.832 186.749,136.5 C187.357,137.6 188.14,139.397 188.489,140.493 C189.097,142.4 189.207,142.379 191.024,139.993 C192.07,138.622 193.198,136.281 193.533,134.791 C194.434,130.776 200.526,117.93 205.747,109.033 C207.534,105.99 209.008,102.825 209.024,102 C209.056,100.385 215.485,93 216.858,93 C217.316,93 218.521,93.918 219.537,95.041 C221.286,96.974 221.294,97.232 219.692,99.945 C218.761,101.52 218,103.77 218,104.946 C218,106.122 217.1,108.05 216,109.23 C214.9,110.411 214,111.985 214,112.729 C214,113.473 213.043,115.375 211.874,116.956 C210.486,118.833 209.663,121.602 209.503,124.931 C209.309,128.968 208.71,130.539 206.629,132.468 C205.183,133.808 204,135.531 204,136.297 C204,137.063 203.1,138.505 202,139.5 C200.9,140.495 200,141.831 200,142.468 C200,143.105 198.875,145.958 197.5,148.808 C194.891,154.216 194.357,157.484 195.923,158.452 C196.431,158.766 197.141,160.366 197.502,162.008 C197.862,163.649 199.697,168.156 201.579,172.023 C203.46,175.889 205,179.478 205,179.997 C205,180.516 206.125,183.4 207.5,186.406 C208.875,189.412 210,192.506 210,193.281 C210,194.056 210.891,195.497 211.98,196.482 C213.07,197.468 214.247,199.9 214.596,201.887 C215.303,205.905 224.725,226.309 226.115,226.833 C226.602,227.017 227,227.962 227,228.933 C227,229.905 228.257,232.455 229.793,234.6 C231.329,236.745 233.421,240.75 234.442,243.5 C235.462,246.25 237.13,249.694 238.149,251.154 C239.167,252.614 240,254.093 240,254.44 C240,255.365 253.002,282 253.454,282 C253.664,282 254.548,282.273 255.418,282.607 C256.637,283.075 257,282.547 257,280.307 C257,278.708 256.615,276.972 256.145,276.45 C254.63,274.766 249.633,259.034 250.377,258.29 C251.947,256.72 254.628,260.025 257.113,266.593 C260.786,276.298 262,280.316 262,282.762 C262,283.928 262.45,285.16 263,285.5 C263.55,285.84 264.003,287.104 264.006,288.309 C264.01,289.514 264.685,291.789 265.506,293.364 C268.267,298.658 267.601,300 262.216,300 C258.004,300 257.228,299.655 255.729,297.118 C254.792,295.533 251.095,290.71 247.513,286.402 C243.931,282.093 241,277.984 241,277.27 C241,276.067 239.942,273.652 237.816,270 C237.335,269.175 236.675,267.701 236.348,266.725 C235.386,263.851 221.768,237.684 220.169,235.637 C219.681,235.012 218.468,232.25 217.474,229.5 C216.48,226.75 214.842,223.571 213.833,222.436 C212.825,221.3 211.998,219.95 211.996,219.436 C211.994,218.921 210.869,216.286 209.496,213.581 C208.123,210.875 207,208.166 207,207.562 C207,206.957 205.2,202.879 203,198.5 C200.8,194.121 199,189.691 199,188.655 C199,187.62 198.1,185.024 197,182.886 C195.9,180.749 194.1,177.251 193,175.114 C191.9,172.976 191,170.501 191,169.614 C191,168.696 190.182,168 189.105,168 C187.168,168 186.855,168.49 179.55,183 C177.474,187.125 175.15,191.694 174.387,193.154 C173.624,194.614 173,196.385 173,197.09 C173,197.795 172.175,199.3 171.167,200.436 C170.158,201.571 168.522,204.702 167.529,207.394 C165.334,213.347 154.362,234.887 152.408,237.079 C151.633,237.947 151,239.16 151,239.775 C151,241.304 144.549,252.194 141.49,255.829 C140.121,257.457 139,259.337 139,260.008 C139,261.465 135.019,268.951 133.25,270.821 C132.563,271.548 132,272.509 132,272.957 C132,274.183 123.945,286 123.11,286 C122.711,286 120.958,288.025 119.213,290.5 C116.104,294.911 115.932,295 110.496,295 C105.405,295 104.867,294.781 103.934,292.327 C103.18,290.344 103.251,289.355 104.209,288.496 C104.919,287.859 108.379,284.899 111.897,281.919 C117.665,277.033 124.017,268.664 128.153,260.5 C130.503,255.862 133.446,250.876 136.351,246.61 C137.808,244.471 139,242.146 139,241.444 C139,240.741 139.395,240.017 139.878,239.833 C141.489,239.222 153.249,216.798 159.457,202.5 C162.958,194.436 168.523,183.348 172.004,177.5 C181.726,161.168 185.185,150.058 181.5,147 C180.675,146.315 180,145.177 180,144.47 C180,143.763 178.942,141.006 177.65,138.342 C170.754,124.134 168,117.951 168,116.681 C168,115.905 167.1,114.126 166,112.727 C164.9,111.329 164,109.458 164,108.571 C164,107.683 162.904,105.279 161.565,103.229 C160.226,101.178 158.379,97.591 157.46,95.257 C155.953,91.431 155.529,91.076 153.144,91.639 C151.69,91.982 149.578,93.096 148.452,94.116 C147.325,95.135 144.85,96.276 142.952,96.652 C141.053,97.027 138.375,98.064 137,98.957 C135.625,99.85 133.6,101.068 132.5,101.664 C130.998,102.478 130.572,103.588 130.789,106.124 C131.714,116.938 131.534,131.688 130.454,133.515 C129.798,134.623 128.943,136.985 128.552,138.765 C127.505,143.53 129.999,143.01 137.252,136.949 C146.632,129.111 148.163,128.532 152.995,130.997 C155.331,132.189 157.002,133.762 157.005,134.77 C157.008,135.722 158.119,138.3 159.474,140.5 C162.041,144.668 162.787,150.396 160.913,151.554 C160.315,151.923 160.076,153.182 160.382,154.351 C160.687,155.52 160.532,158.057 160.037,159.988 C159.542,161.92 158.601,166.2 157.945,169.5 C157.29,172.8 155.684,177.722 154.377,180.437 C153.07,183.153 152,187.064 152,189.128 C152,191.193 151.55,193.16 151,193.5 C150.45,193.84 150,194.936 150,195.937 C150,196.937 149.325,198.315 148.5,199 C147.675,199.685 147,200.884 147,201.664 C147,202.445 146.136,204.011 145.079,205.145 C143.243,207.116 143.033,207.133 140.314,205.526 C135.129,202.463 132.756,197.436 131.666,187.2 C130.804,179.107 130.885,177.686 132.288,176.284 C134.593,173.979 137.112,176.192 136.375,179.875 C135.724,183.128 138.885,187.642 141.194,186.756 C142.574,186.226 143.163,184.323 146.038,171.107 C146.563,168.69 147.52,166.079 148.163,165.304 C148.813,164.52 149.539,159.253 149.798,153.447 C150.257,143.118 150.236,143 147.994,143 C146.72,143 142.826,145.395 139.113,148.462 C130.53,155.551 129.961,156.116 127,160.495 C125.625,162.529 123.487,165.13 122.25,166.277 C121.013,167.423 120,169.349 120,170.558 C120,171.766 119.325,173.315 118.5,174 C117.675,174.685 117,176.229 117,177.431 C117,178.634 116.339,180.491 115.532,181.559 C114.724,182.626 114.049,184.365 114.032,185.421 C114.014,186.478 113.256,188.164 112.347,189.169 C110.734,190.951 110.082,192.511 104.469,208 C102.975,212.125 101.41,215.95 100.991,216.5 C100.573,217.05 99.9,219.075 99.495,221 C99.091,222.925 97.239,227.454 95.38,231.065 C93.521,234.676 92,238.112 92,238.701 C92,240.177 83.026,249.477 80.186,250.944 C78.387,251.873 77.548,251.87 76.414,250.928 C75.143,249.874 75.18,249.381 76.695,247.109 C79.884,242.329 83.651,234.568 85.8,228.353 C86.97,224.972 88.809,220.247 89.887,217.853 C94.657,207.267 96,203.937 96,202.702 C96,201.976 96.661,200.509 97.468,199.441 C98.276,198.374 98.951,196.514 98.968,195.309 C98.986,194.104 99.45,192.84 100,192.5 C100.55,192.16 101,191.093 101,190.128 C101,189.164 102.125,186.042 103.5,183.192 C104.875,180.342 106,177.574 106,177.04 C106,176.507 107.125,174.056 108.5,171.593 C109.875,169.13 111,165.994 111,164.623 C111,163.253 112.053,159.515 113.339,156.316 C118.223,144.171 120.145,136.522 121.022,125.729 C121.516,119.657 121.651,112.735 121.324,110.345 C120.762,106.245 120.547,106 117.519,106 C115.611,106 113.597,106.788 112.551,107.943 C110.806,109.872 100.157,114 96.928,114 C94.61,114 93.006,111.813 92.347,107.754 C91.684,103.663 92.08,103.455 108,99.531 C113.775,98.107 119.4,96.542 120.5,96.052 C121.6,95.562 125.06,94 128.188,92.581 C131.317,91.161 134.165,90 134.519,90 C134.872,90 138.725,87.643 143.081,84.762 C148.026,81.491 151,78.858 151,77.751 C151,75.112 147.067,67.24 145.435,66.614 C144.655,66.314 144.039,65.041 144.066,63.785 C144.093,62.528 143.38,58.876 142.482,55.668 C141.584,52.461 141.094,49.199 141.393,48.418 Z M57.037,104.455 C58.496,102.697 63.59,102.527 64.625,104.202 C65.349,105.374 65.772,111.088 65.925,121.75 C65.966,124.638 66.373,127 66.83,127 C67.286,127 70.483,124.445 73.934,121.321 C81.177,114.767 83,114.895 84.221,122.045 C84.806,125.476 84.602,126.783 83.243,128.284 C81.093,130.659 70.372,137 68.505,137 C66.31,137 66.024,138.169 65.41,149.663 C64.532,166.123 64.262,169.044 63.075,174.94 C61.497,182.777 62.637,183.5 69.5,179.019 C71.15,177.942 73.85,176.309 75.5,175.39 C77.15,174.471 79.772,172.657 81.327,171.359 C86.31,167.2 92.578,168.893 91.827,174.195 C91.574,175.979 90.709,176.613 88,177 C85.345,177.379 84.494,177.983 84.475,179.5 C84.426,183.485 83.022,185.818 80.993,185.288 C79.686,184.946 77.535,186.119 74.388,188.89 C71.821,191.149 68.03,193.453 65.963,194.01 C63.896,194.566 61.946,195.699 61.628,196.526 C61.311,197.353 59.915,198.462 58.526,198.99 C57.034,199.557 56,200.737 56,201.872 C56,204.426 50.538,209.1 43.573,212.508 C40.467,214.028 37.462,216.137 36.895,217.196 C36.189,218.515 35.022,219.022 33.183,218.81 C30.673,218.52 30.5,218.179 30.5,213.521 C30.5,208.961 30.779,208.371 33.802,206.521 C35.618,205.409 40.614,201.693 44.905,198.262 L52.705,192.024 L53.34,182.762 C53.689,177.668 54.429,167.222 54.986,159.548 C55.542,151.875 55.66,145.278 55.248,144.888 C54.837,144.499 51.8,144.848 48.5,145.664 C42.155,147.233 36.985,146.383 37.015,143.775 C37.062,139.668 39.635,137.623 48,135.044 L56.5,132.423 L56.165,119.167 C55.929,109.84 56.187,105.479 57.037,104.455 Z M178.75,40.08 C182.129,38.112 184.222,39.056 190.761,45.5 C194.389,49.075 197.758,52 198.246,52 C198.735,52 198.847,52.907 198.495,54.015 C198.102,55.255 198.648,57.313 199.915,59.362 C201.047,61.194 201.679,62.987 201.32,63.347 C199.81,64.857 196.307,63.802 193.717,61.058 C192.189,59.44 190.162,57.869 189.211,57.567 C188.26,57.265 187.036,56.01 186.491,54.777 C185.946,53.544 184.491,52.038 183.257,51.429 C177.28,48.48 174.847,42.354 178.75,40.08 Z"/>
</svg>

