<svg xmlns="http://www.w3.org/2000/svg" width="300" height="300" viewBox="0 0 300 300" version="1.1">
  <defs/>
  <path d="M105.821,30.323 C107.741,28.401 110.77,28.702 111.965,30.934 C112.534,31.998 113,35.733 113,39.234 C113,42.852 113.518,46.118 114.2,46.8 C115.975,48.575 118.454,48.261 120.5,46 C121.495,44.9 123.004,44 123.851,44 C124.699,44 127.055,42.848 129.086,41.44 C132.584,39.016 132.963,38.958 136.265,40.337 C138.372,41.218 140.393,43.082 141.375,45.051 C143.159,48.625 143.527,53.556 142.077,54.452 C141.569,54.766 140.875,56.291 140.535,57.84 C139.692,61.68 128.933,72.764 125.339,73.495 C121.116,74.354 115.744,77.466 113.655,80.262 C111.927,82.574 111.913,82.931 113.431,85.866 C115.435,89.741 118.002,89.904 124.301,86.555 C126.831,85.21 130.533,83.803 132.529,83.429 C134.524,83.054 136.909,81.969 137.828,81.016 C139.902,78.867 146.354,77.754 147.882,79.282 C150.056,81.456 149.068,85.2 145.411,88.649 L141.821,92.034 L143.914,93.767 C145.815,95.341 145.896,95.854 144.802,99.36 C143.779,102.636 142.758,103.619 138.049,105.86 C134.997,107.312 132.275,108.76 132,109.077 C131.725,109.394 128.836,110.519 125.58,111.577 C118.731,113.802 117.136,115.64 118.554,119.674 C119.389,122.049 120.113,122.472 123.516,122.581 C125.707,122.652 128.454,123.037 129.621,123.437 C131.207,123.982 132.627,123.389 135.253,121.083 C137.184,119.387 139.272,118 139.893,118 C140.514,118 143.04,117.051 145.507,115.892 C151.34,113.15 153.217,113.861 152.811,118.659 C152.55,121.747 151.861,122.711 148.5,124.685 C146.3,125.977 143.524,127.452 142.331,127.962 C141.138,128.472 139.788,129.523 139.331,130.297 C138.507,131.693 125.887,133.273 123.282,132.306 C122.612,132.058 121.774,130.312 121.42,128.427 C120.241,122.141 119,124.896 119,133.8 C119,143.611 119.699,145 124.635,145 C126.414,145 129.022,145.438 130.431,145.974 C133.26,147.049 171.798,152.009 177.138,151.985 C178.987,151.976 181.092,151.594 181.816,151.135 C183.797,149.879 186,145.115 186,142.086 C186,140.609 186.455,138.945 187.012,138.388 C187.694,137.706 187.672,133.977 186.945,126.938 C185.181,109.87 184.09,105.589 179.898,99.281 C177.785,96.101 176.044,92.75 176.028,91.833 C176.013,90.917 175.563,90.017 175.029,89.833 C174.496,89.65 173.933,88.375 173.779,87 C173.551,84.958 173.981,84.444 176.123,84.196 C178.331,83.94 179.19,84.652 181.545,88.696 C183.085,91.338 185.167,94.088 186.172,94.807 C187.177,95.525 188.003,96.65 188.006,97.307 C188.01,97.963 188.743,99.85 189.637,101.5 C191.661,105.238 192.899,110.423 193.989,119.736 C194.454,123.715 195.358,128.555 195.997,130.49 C197.248,134.281 196.443,146.608 194.882,147.573 C194.397,147.873 194,149.619 194,151.453 C194,155.247 189.421,160.98 186.349,161.031 C185.332,161.048 181.195,161.491 177.155,162.015 C172.511,162.618 169.157,162.619 168.034,162.018 C167.057,161.495 162.937,160.812 158.879,160.501 C154.82,160.189 149.025,159.514 146,159.001 C142.975,158.488 136.9,157.57 132.5,156.961 C117.561,154.893 115.247,154.392 112.577,152.643 C109.227,150.447 107.853,146.917 108.506,142.182 C109.838,132.527 109.8,121.457 108.423,118.161 C107.64,116.288 107,112.278 107,109.249 C107,105.89 106.025,101.039 104.5,96.811 C103.125,93 102,88.809 102,87.499 C102,86.19 101.55,84.84 101,84.5 C100.45,84.16 100,81.953 100,79.596 C100,74.361 101.498,72.846 109.25,70.242 C112.412,69.18 115.822,67.566 116.828,66.655 C117.834,65.745 119.072,64.995 119.579,64.989 C120.085,64.983 122.942,62.816 125.928,60.173 C129.745,56.794 131.169,54.883 130.728,53.733 C130.178,52.299 129.415,52.462 124.569,55.048 C116.953,59.113 111.797,59.065 107.901,54.894 C105.898,52.75 104.958,50.66 104.863,48.144 C104.386,35.435 104.595,31.551 105.821,30.323 Z M59.581,90.1 C67.139,83.192 70.65,83.082 77.818,89.526 C81.081,92.46 83.095,95.187 83.542,97.276 C83.921,99.049 84.569,100.95 84.983,101.5 C86.592,103.639 89.106,113.02 88.383,114.189 C87.964,114.867 87.717,127.219 87.834,141.638 C87.973,158.668 87.689,168.074 87.024,168.485 C86.461,168.833 86,169.976 86,171.024 C86,172.863 83.32,175 81.013,175 C80.398,175 76.108,171.23 71.48,166.623 C65.121,160.292 62.841,157.3 62.148,154.373 C61.644,152.243 60.906,149.713 60.509,148.75 C59.006,145.112 62.047,147.223 68.07,154 C71.548,157.914 75.109,161 76.146,161 C77.858,161 78.006,159.947 78.073,147.25 C78.113,139.688 78.31,129.563 78.51,124.75 C78.79,118.001 78.572,116 77.558,116 C76.834,116 75.697,117.317 75.03,118.928 C74.363,120.538 72.937,122.652 71.862,123.625 C70.787,124.598 69.173,126.94 68.277,128.828 C67.381,130.717 63.565,135.419 59.796,139.279 C53.236,145.997 52.83,146.244 50.263,145.074 C47.967,144.028 47.396,144.106 46.291,145.617 C45.581,146.588 45,149.118 45,151.238 C45,154.451 44.268,155.837 40.61,159.547 C35.904,164.321 33.751,164.915 30.189,162.42 L27.933,160.84 L31.034,157.309 C34.777,153.046 35.378,151.548 37.863,140.284 C40.71,127.377 42.326,115.337 41.411,113.855 C40.969,113.141 40.703,111.309 40.82,109.783 C40.939,108.214 39.913,105.238 38.456,102.93 C35.396,98.083 36.326,96 41.55,96 C44.082,96 45.443,96.751 47.367,99.21 C49.839,102.369 49.912,102.39 51.94,100.555 C53.073,99.529 54,97.905 54,96.945 C54,95.986 56.511,92.906 59.581,90.1 Z M81.5,11 C82.588,9.798 83.097,9.221 83.683,9.129 C84.232,9.043 84.847,9.383 86.066,10.035 C87.517,10.812 88,12.142 88,15.361 C88,20.498 85.641,23.05 79.197,24.886 C76.831,25.56 74.649,26.752 74.348,27.535 C73.256,30.382 60.493,38.809 54.75,40.474 C51.587,41.392 49,42.378 49,42.667 C49,42.955 49.739,44.611 50.642,46.346 C51.545,48.081 52.604,50.175 52.994,51 C54.711,54.626 57.924,53.23 66.052,45.326 C70.472,41.028 74.922,37.203 75.942,36.826 C76.961,36.449 78.093,35.659 78.457,35.07 C79.501,33.381 82.496,33.816 85.365,36.073 C88.582,38.603 89.124,44.509 86.223,45.429 C85.246,45.739 83.784,46.981 82.973,48.188 C81.117,50.955 77.999,53.982 74.622,56.297 C71.714,58.289 71.196,60 73.5,60 C74.325,60 75,59.55 75,59 C75,58.45 76.688,58.025 78.75,58.055 C81.679,58.099 83.014,58.762 84.851,61.085 C87.49,64.425 87.182,68.633 84.22,69.713 C83.274,70.058 81.405,71.181 80.066,72.209 C78.431,73.464 76.751,73.885 74.951,73.489 C73.012,73.063 71.474,73.553 69.386,75.259 C66.35,77.741 54.857,83 52.469,83 C51.7,83 50.587,83.904 49.995,85.009 C49.209,86.478 48.287,86.859 46.563,86.427 C44.974,86.028 42.952,86.659 40.353,88.367 C38.234,89.76 34.25,91.425 31.5,92.067 C28.75,92.71 25.825,93.635 25,94.124 C20.522,96.778 19.152,96.424 15.627,91.702 C12.973,88.147 14.599,84 18.648,84 C24.457,84 36.984,74.872 43.668,65.769 C47.248,60.895 47.251,60.221 43.714,56.29 C42.169,54.571 41.847,53.18 42.268,50.04 C42.768,46.309 42.629,46 40.452,46 C39.155,46 37.022,46.488 35.712,47.085 C33.832,47.942 32.523,47.784 29.505,46.335 C24.904,44.127 23.501,42.117 24.316,38.905 C25.092,35.846 28.79,33.39 30.318,34.918 C30.913,35.513 32.882,36 34.693,36 C38.527,36 54.901,29.719 60,26.292 C69.293,20.047 72.042,17.679 72.605,15.436 C73.096,13.482 73.858,13 76.453,13 C78.42,13 80.4,12.215 81.5,11 Z M96.888,235.419 C97.484,234.796 153.962,235.858 155.019,236.512 C155.311,236.693 158.914,237.11 163.025,237.44 C167.136,237.77 172.3,238.262 174.5,238.533 C176.7,238.804 184.8,239.448 192.5,239.965 C206.313,240.892 214.153,242.068 221,244.242 C224.257,245.276 230.723,246.365 250.341,249.18 C256.984,250.134 258.343,250.658 259.233,252.612 C260.049,254.403 259.904,255.497 258.584,257.513 C256.327,260.957 254.344,261.589 250.603,260.056 C248.896,259.356 244.125,258.401 240,257.933 C224.599,256.185 218.981,255.229 217.661,254.134 C212.975,250.245 149.74,245.14 112.5,245.644 C85.338,246.012 66.449,247.416 55,249.92 C43.309,252.476 39.861,253.317 31.222,255.717 C20.733,258.633 17.573,258.131 16.376,253.361 C15.399,249.468 19.68,246.282 26.959,245.485 C30.007,245.152 34.525,244.271 37,243.528 C46.302,240.736 71.086,237.245 86.888,236.5 C92.051,236.257 96.551,235.77 96.888,235.419 Z M101.482,171.035 C102.868,168.355 103.592,167.928 106.306,168.191 C107.356,168.293 108.088,168.298 108.564,168.65 C109.703,169.493 109.37,172.328 108.418,183.25 C107.961,188.487 108.127,190 109.156,190 C111.128,190 125.171,182.994 127.641,180.778 C129.076,179.49 130.888,178.963 133.141,179.178 C135.999,179.452 136.549,179.925 136.826,182.354 C137.321,186.68 133.377,190.298 123,195.037 C118.578,197.056 110.52,201.26 109.864,201.889 C109.514,202.225 109.868,206.19 110.65,210.7 C112.072,218.897 112.071,218.9 109.416,223.979 C106.562,229.438 104.596,231 100.585,231 C97.288,231 96.106,227.114 98.405,223.832 C100.199,221.27 100.53,213.525 99.016,209.542 C98.189,207.366 97.591,207.051 95.266,207.561 C93.745,207.894 90.475,209.198 88,210.458 C85.525,211.717 80.983,213.025 77.906,213.364 C72.612,213.948 72.25,213.844 71.152,211.433 C69.246,207.252 71.956,204 77.346,204 C79.752,204 87.164,201.445 94.9,197.949 L99.909,195.684 L99.88,184.937 C99.858,176.911 100.264,173.391 101.482,171.035 Z M131.28,5.25 C132.658,3.465 134.3,3.7 136.811,6.039 C139.384,8.435 139.617,11.674 137.442,14.779 C136.585,16.003 136.184,17.489 136.551,18.083 C136.918,18.677 136.092,20.363 134.715,21.831 C133.338,23.299 131.901,25.968 131.523,27.762 C130.691,31.712 125.159,36.302 121.805,35.827 C118.392,35.343 118.203,30.963 121.444,27.466 C122.85,25.949 124,23.9 124,22.913 C124,21.926 124.45,20.84 125,20.5 C125.55,20.16 126,18.926 126,17.757 C126,15.685 129.35,7.75 131.28,5.25 Z M59,0.8 C59,0.36 61.876,0 65.391,0 L71.781,0 L72.273,3.75 C72.795,7.729 69.206,16.599 65.842,19.643 C63.37,21.88 59.615,19.754 60.626,16.689 C61.692,13.462 61.315,3.915 60.074,2.674 C59.483,2.083 59,1.24 59,0.8 Z M62.54,115.956 C61.566,117.032 58.791,118.209 56.373,118.571 C53.954,118.934 51.702,119.674 51.367,120.215 C51.032,120.757 50.431,123.742 50.03,126.85 C49.63,129.957 49.122,133.119 48.901,133.875 C48.681,134.631 49.055,135.454 49.734,135.703 C51.008,136.171 69,118.731 69,117.028 C69,116.199 65.893,114 64.721,114 C64.495,114 63.513,114.88 62.54,115.956 Z M63.235,99.509 C59.732,102.8 59.612,103.104 61.302,104.408 C62.294,105.172 64.769,106.103 66.802,106.477 C68.836,106.851 71.733,108.326 73.24,109.755 C74.746,111.185 76.274,112.059 76.635,111.698 C77.617,110.716 74.328,100.02 72.383,97.871 C69.898,95.125 67.432,95.567 63.235,99.509 Z M116.217,98.239 C115.398,99.225 115.421,100.206 116.303,101.96 C117.918,105.173 119.249,105.434 122.099,103.096 C124.053,101.492 124.295,100.788 123.399,99.313 C122.04,97.075 117.719,96.429 116.217,98.239 Z M132.51,93.892 C129.811,94.303 128.412,95.066 128.186,96.25 C127.682,98.901 132.383,98.491 136.785,95.5 C140.688,92.848 140.306,92.704 132.51,93.892 Z M64,65 C64,65.55 64.45,66 65,66 C65.55,66 66,65.55 66,65 C66,64.45 65.55,64 65,64 C64.45,64 64,64.45 64,65 Z"/>
</svg>

