<svg xmlns="http://www.w3.org/2000/svg" width="300" height="300" viewBox="0 0 300 300" version="1.1">
  <defs/>
  <path d="M177.874,167.115 C179.805,165.642 181.949,165.333 189.374,165.456 C199.233,165.62 205.588,167.555 206.611,170.705 C206.931,171.692 207.885,173.884 208.73,175.574 C212.511,183.143 206.425,208.15 199.52,213.417 C195.853,216.214 194.099,220.812 196.192,222.14 C196.911,222.596 200.016,222.976 203.091,222.985 C206.166,222.993 212.241,223.428 216.591,223.951 C220.941,224.474 228.775,225.423 234,226.06 C239.225,226.697 248.63,227.407 254.901,227.638 C261.171,227.869 268.146,228.484 270.401,229.004 C272.655,229.525 276.161,229.962 278.191,229.976 C280.221,229.989 282.16,230.45 282.5,231 C282.84,231.55 284.541,232 286.28,232 C288.019,232 291.817,232.552 294.721,233.227 L300,234.455 L300,244.201 L295.75,243.647 C287.04,242.511 283.446,241.854 281.5,241.041 C276.255,238.85 267.2,237.334 251.5,236.018 C245.45,235.51 235.775,234.66 230,234.127 C224.225,233.594 218.493,233.395 217.263,233.684 C216.033,233.974 211.308,233.69 206.763,233.054 C195.463,231.473 182.338,232.9 180.03,235.96 C178.602,237.853 177.935,237.995 174.311,237.181 C172.055,236.674 169.161,235.526 167.882,234.63 C166.602,233.733 163.673,233 161.373,233 C156.158,233 132.218,235.71 125.5,237.061 C122.75,237.614 117.282,238.682 113.349,239.433 C109.416,240.184 104.579,241.294 102.599,241.899 C100.62,242.505 97.506,243.45 95.679,244 C93.852,244.55 90.815,245.003 88.929,245.008 C86.952,245.012 82.748,246.479 79,248.47 C68.203,254.209 65.909,255.126 63.147,254.806 C60.777,254.532 60.5,254.082 60.5,250.5 C60.5,246.642 60.695,246.405 66,243.827 C69.025,242.358 72.625,240.673 74,240.085 C75.375,239.496 77.175,238.614 78,238.124 C80.27,236.777 88.058,234.823 92,234.613 C95.522,234.424 97.901,233.72 101.39,231.831 C103.125,230.892 108.924,229.78 119.69,228.321 C124.878,227.618 125.64,225.914 122.458,222.133 C121.106,220.526 120,218.692 120,218.058 C120,217.424 118.934,215.913 117.632,214.702 C116.33,213.491 114.372,211.029 113.281,209.231 C112.191,207.433 108.531,203.458 105.149,200.397 C100.275,195.986 99,194.223 99,191.895 C99,189.695 99.659,188.657 101.622,187.763 C103.982,186.687 104.46,186.839 106.409,189.284 C107.601,190.778 108.954,192 109.416,192 C109.879,192 112.001,193.575 114.132,195.5 C116.262,197.425 118.652,199 119.442,199 C120.232,199 123.043,197.121 125.689,194.825 C128.335,192.529 133.875,188.455 138,185.771 C142.125,183.087 146.175,180.037 147,178.993 C147.825,177.948 150.75,176.563 153.5,175.913 C156.25,175.264 160.981,173.727 164.012,172.498 C167.044,171.269 170.869,169.962 172.512,169.594 C174.156,169.226 176.568,168.11 177.874,167.115 Z M163.499,49.391 C165.15,48.781 169.405,48.286 172.955,48.292 C178.831,48.301 179.689,48.58 182.52,51.401 C187.75,56.612 190.67,65.363 191.06,77 C191.253,82.758 189.87,98.375 189.028,99.948 C188.462,101.004 188,103.227 188,104.887 C188,106.547 187.467,109.076 186.815,110.506 C185.842,112.642 185.931,113.613 187.315,115.957 C188.242,117.525 189,119.129 189,119.521 C189,119.913 186.309,122.891 183.019,126.14 C178.036,131.062 176.625,131.944 174.566,131.427 C173.117,131.063 170.769,131.467 168.893,132.403 C167.133,133.282 164.707,134 163.501,134 C162.296,134 160.495,134.9 159.5,136 C158.505,137.1 157.244,138 156.699,138 C156.153,138 153.41,139.511 150.604,141.357 C146.607,143.987 144.036,144.86 138.748,145.386 C132.74,145.982 131.664,145.812 128.998,143.84 C125.432,141.204 125.423,141.089 128.079,132.997 C129.793,127.778 129.945,126.265 128.945,124.398 C128.278,123.151 127.955,121.28 128.227,120.24 C128.717,118.367 126.758,95.014 124.977,81.5 C124.47,77.65 123.689,71.694 123.242,68.265 C122.795,64.835 121.883,61.483 121.215,60.815 C118.356,57.956 121.067,51 125.04,51 C128.211,51 132.948,60.654 132.985,67.191 C133.015,72.53 134.287,71.906 142.034,62.75 C143.779,60.688 145.658,59 146.209,59 C146.76,59 148.548,57.875 150.182,56.5 C151.816,55.125 153.694,54 154.354,54 C155.015,54 156.667,53.212 158.027,52.25 C159.386,51.288 161.849,50.001 163.499,49.391 Z M65.188,100.96 C66.391,99.332 67.897,98 68.533,98 C71.527,98 75.297,105.802 74.503,110.354 C73.857,114.055 75.108,119.203 76.79,119.763 C77.44,119.98 78.465,119.074 79.068,117.75 C80.559,114.478 86.154,112.454 88.924,114.184 C91.978,116.092 92.189,117.71 89.954,122.09 C88.493,124.953 87.12,126.226 85.043,126.641 C83.328,126.984 80.875,128.816 78.989,131.163 C76.201,134.632 75.723,136.155 75.018,143.804 C74.577,148.587 74.435,152.864 74.703,153.308 C74.971,153.753 74.645,157.953 73.98,162.643 C73.107,168.793 73.073,171.473 73.859,172.259 C74.644,173.044 74.366,174.29 72.86,176.727 C71.712,178.585 71.034,180.367 71.354,180.687 C72.564,181.897 77.864,178.707 82.555,173.944 C85.234,171.225 87.808,169 88.277,169 C88.745,169 91.237,167.185 93.814,164.966 C96.391,162.747 99.453,160.384 100.618,159.716 C101.782,159.047 103.943,157.646 105.419,156.601 C108.784,154.221 110.329,155.465 110.571,160.75 C110.728,164.181 110.243,164.917 104.871,169.399 C101.642,172.094 99,174.907 99,175.649 C99,176.392 97.975,177 96.723,177 C94.017,177 90,179.601 90,181.354 C90,183.388 81.397,190.944 73.895,195.5 C72.989,196.05 69.964,198.3 67.172,200.5 C57.276,208.299 54.653,210 52.523,210 C51.317,210 49.003,211.541 47.269,213.5 C45.565,215.425 43.714,217 43.157,217 C41.553,217 39.06,214.086 38.394,211.432 C37.572,208.159 38.483,206.147 41.265,205.089 C42.54,204.605 44.181,203.486 44.914,202.604 C45.646,201.722 46.901,201 47.703,201 C50.378,201 59.757,194.005 60.807,191.227 C65.207,179.583 67.019,144.712 63.298,143.284 C62.438,142.954 60.829,143.25 59.722,143.941 C57.255,145.482 47.086,148.942 44.924,148.975 C44.058,148.989 42.269,147.851 40.949,146.446 C38.704,144.057 38.647,143.719 40.052,141.196 C40.948,139.588 43.763,137.493 47.027,136.005 C50.037,134.633 55.2,132.158 58.5,130.505 L64.5,127.5 L64.79,118.09 C64.961,112.51 64.656,108.256 64.04,107.64 C62.462,106.062 62.778,104.219 65.188,100.96 Z M170.5,60 C169.4,60.473 166.7,60.909 164.5,60.97 C161.619,61.05 159.532,61.909 157.038,64.041 C155.134,65.668 152.985,67 152.263,67 C151.541,67 150.523,68.125 150,69.5 C149.477,70.875 148.433,72 147.68,72 C146.926,72 145.49,72.906 144.487,74.014 C143.091,75.557 141.912,75.887 139.447,75.424 C137.526,75.064 135.952,75.269 135.541,75.933 C135.163,76.546 135.336,80.158 135.926,83.96 C136.645,88.595 136.672,91.734 136.006,93.483 C135.262,95.44 135.388,96.663 136.511,98.376 C137.334,99.632 137.754,100.913 137.445,101.222 C136.447,102.22 136.283,123.057 137.268,123.666 C137.789,123.988 137.945,125.942 137.615,128.009 C137.171,130.784 137.433,132.115 138.619,133.098 C139.988,134.235 141.187,133.921 146.789,130.965 C150.4,129.059 154.536,126.522 155.98,125.327 C157.424,124.132 161.507,122.181 165.053,120.991 C168.599,119.802 172.24,118.165 173.145,117.354 C175.216,115.498 176.107,111.068 174.872,108.761 C173.662,106.5 168.425,106.418 167.181,108.64 C166.174,110.44 164,109.681 164,107.53 C164,106.139 158.501,101 157.012,101 C155.992,101 152,109.057 152,111.116 C152,111.932 151.588,113.028 151.085,113.55 C150.581,114.073 150.019,115.625 149.835,117 C149.55,119.127 148.977,119.5 146,119.5 L142.5,119.5 L142.618,113 C142.823,101.711 144.609,96.138 153.516,79 C154.231,77.625 155.951,75.84 157.339,75.033 C159.621,73.707 160.062,73.746 161.932,75.438 C164.126,77.424 164.663,80.472 163,81.5 C162.45,81.84 162,83.007 162,84.094 C162,85.181 161.264,87.194 160.365,88.566 C158.484,91.436 159.074,92.422 162.833,92.691 C167.836,93.05 171.934,94.216 173.09,95.609 C173.725,96.374 175.54,97 177.122,97 L180,97 L180.22,89.25 C180.697,72.419 179.678,63.678 176.918,60.918 C174.845,58.845 173.601,58.667 170.5,60 Z M190.48,176.033 C190.151,176.565 189.078,177 188.096,177 C184.801,177 183,180.275 183,186.27 C183,189.356 182.626,192.113 182.168,192.396 C181.711,192.679 180.782,196.011 180.105,199.802 C179.183,204.957 178.135,207.502 175.942,209.903 C173.056,213.062 172.226,215.057 171.744,220 C171.517,222.323 171.846,222.522 176.388,222.81 C180.968,223.101 181.469,222.887 184.335,219.41 C188.149,214.783 192,209.145 192,208.188 C192,207.79 193.125,205.809 194.5,203.785 C195.875,201.762 197,199.153 197,197.987 C197,196.822 197.516,194.905 198.146,193.728 C199.475,191.244 199.648,178.208 198.367,177.049 C196.927,175.746 191.12,174.997 190.48,176.033 Z M167.291,183.108 C165.526,183.618 162.151,185.044 159.791,186.277 C155.733,188.397 155.483,188.781 155.191,193.365 C154.969,196.847 155.358,198.739 156.574,200.082 C158.168,201.843 158.138,202.352 156.058,208.819 C153.485,216.82 153.592,222.311 156.329,222.83 C160.786,223.675 162.769,222.142 164.552,216.473 C165.51,213.428 166.678,210.699 167.147,210.409 C167.616,210.119 168,209.151 168,208.257 C168,207.363 168.903,204.767 170.006,202.488 C171.955,198.461 174.361,184.393 173.373,182.795 C172.776,181.829 171.485,181.896 167.291,183.108 Z M138.401,197.905 C136.147,198.929 133.304,201.169 132.083,202.883 C130.862,204.598 128.98,206 127.901,206 C125.233,206 124.396,208.675 126.379,210.866 C127.27,211.851 128.003,213.072 128.006,213.579 C128.01,214.085 129.845,216.637 132.084,219.25 C135.439,223.164 136.746,224 139.51,224 C143.77,224 144.321,222.423 144.231,210.504 C144.193,205.557 144.631,200.944 145.204,200.254 C145.935,199.374 145.874,198.553 145,197.5 C143.452,195.635 143.393,195.638 138.401,197.905 Z"/>
</svg>

