<svg xmlns="http://www.w3.org/2000/svg" width="300" height="300" viewBox="0 0 300 300" version="1.1">
  <defs/>
  <path d="M137.327,54.301 C144.543,48.065 148.258,46.658 150.8,49.2 C151.46,49.86 152,51.345 152,52.5 C152,53.655 152.488,55.088 153.085,55.685 C154.226,56.826 152.697,70.16 150.893,74.797 C150.402,76.06 150,78.161 150,79.466 C150,80.771 149.367,83.112 148.593,84.669 C147.818,86.226 146.641,88.85 145.976,90.5 C145.311,92.15 144.369,94.281 143.883,95.236 C141.878,99.179 142.115,99.535 152.081,107.5 C174.885,125.727 192.94,144.129 192.985,149.191 C192.993,150.121 193.45,151.16 194,151.5 C194.55,151.84 195,154.101 195,156.524 C195,161.416 192.667,163.664 188.848,162.452 C187.125,161.905 186.865,161.219 187.32,158.417 C187.783,155.561 187.208,154.15 183.59,149.27 C178.124,141.897 173.488,137.185 163.24,128.585 C158.708,124.781 155,121.391 155,121.05 C155,120.71 153.762,119.676 152.25,118.753 C150.738,117.831 147.503,115.199 145.062,112.904 L140.624,108.733 L138.277,111.617 C135.747,114.724 134.06,118.19 132.005,124.5 C131.289,126.7 129.561,130.002 128.165,131.838 C125.939,134.767 125.766,135.541 126.751,138.151 C127.713,140.699 127.596,141.368 125.937,142.813 C120.767,147.315 119.527,148.775 116.822,153.542 C115.631,155.64 114.248,156.591 112.065,156.814 C107.594,157.27 107.26,154.924 110.942,148.939 C114.384,143.345 114.299,140.272 110.683,139.598 C93.626,136.418 81.734,134.89 76.046,135.148 C72.996,135.286 69.6,134.911 68.5,134.315 C66.886,133.44 58.227,131.693 54.721,131.535 C54.292,131.516 52.492,134.04 50.721,137.144 C45.526,146.248 25.146,168.264 15.466,175.231 C8.844,179.996 5.943,180.699 3.598,178.108 C1.827,176.151 1.861,176.055 4.992,174.151 C10.871,170.576 23.969,157.922 30.022,149.971 C33.31,145.652 36,141.883 36,141.595 C36,141.308 39.263,136.189 43.25,130.219 C52.123,116.937 53,115.432 53,113.494 C53,112.65 54.013,110.265 55.25,108.192 C56.487,106.12 57.999,103.541 58.609,102.462 C59.311,101.221 60.78,100.5 62.609,100.5 C65.421,100.5 65.495,100.632 65.332,105.325 C65.234,108.126 64.081,112.436 62.582,115.602 C61.162,118.601 60,121.504 60,122.052 C60,123.906 64.933,124.941 76.24,125.46 C87.798,125.99 98.962,127.66 109.46,130.428 C117.999,132.68 118.557,132.546 120.911,127.684 C122.06,125.311 123,123.069 123,122.704 C123,122.338 124.476,119.668 126.281,116.769 C129.634,111.384 132,105.597 132,102.782 C132,101.916 128.85,98.057 125,94.207 C117.941,87.148 116.495,83.905 119.2,81.2 C121.407,78.993 123.462,80.014 128.914,86.028 C131.892,89.312 134.871,92 135.534,92 C136.198,92 137.285,89.862 137.951,87.25 C138.617,84.638 139.8,81.306 140.581,79.846 C141.361,78.386 142,76.113 142,74.796 C142,73.478 142.427,71.973 142.949,71.45 C143.471,70.928 144.202,68.595 144.574,66.267 C145.126,62.813 144.939,61.914 143.56,61.385 C142.317,60.908 139.861,62.901 134.274,68.919 C128.065,75.607 126.208,77.047 124.107,76.801 C122.348,76.595 121.235,75.637 120.58,73.765 C119.78,71.476 120.022,70.603 122.062,68.419 C123.403,66.984 125.737,65.166 127.25,64.379 C128.762,63.592 130.035,62.398 130.077,61.724 C130.12,61.051 133.382,57.71 137.327,54.301 Z M142.572,253.151 C176.778,251.757 191.107,251.866 205.5,253.63 C213.2,254.573 223.865,255.402 229.199,255.472 C237.126,255.575 239.274,255.938 240.949,257.454 C243.388,259.661 243.588,262.267 241.454,264.038 C240.203,265.076 237.486,265.086 227.204,264.091 C220.217,263.415 211.433,262.218 207.685,261.431 C200.126,259.844 176.788,259.674 149,261.004 C120.386,262.373 73.786,265.935 72.62,266.843 C70.613,268.406 50.403,270.745 44.276,270.124 C43.602,270.056 42.366,268.676 41.529,267.057 C40.334,264.746 40.275,263.94 41.254,263.307 C43.765,261.681 57.794,260.164 100,256.955 C107.425,256.39 116.233,255.459 119.572,254.884 C122.912,254.31 133.262,253.53 142.572,253.151 Z M53.006,4.25 C53.003,2.041 53.001,0.98 53.531,0.471 C54.02,0 54.961,0 56.773,0 C60.505,0 60.558,0.057 61.773,5.279 C62.448,8.183 63,12.458 63,14.779 C63,17.864 63.404,19 64.5,19 C65.325,19 66,18.608 66,18.128 C66,17.124 76.538,6.677 78.085,6.147 C79.867,5.538 82.999,9.197 83.014,11.905 C83.031,15.023 73.8,23.9 67.384,26.936 C63.274,28.881 63.269,28.891 63.547,34.055 C63.927,41.096 64.846,41.737 70.585,38.959 C77.447,35.637 83.344,35.862 86.969,39.583 C88.532,41.188 90.106,43.926 90.467,45.668 C91.046,48.465 90.598,49.385 86.647,53.508 C80.339,60.091 77.081,59.064 79.526,51.262 C80.74,47.387 77.409,47.315 70.104,51.057 C66.472,52.918 62.228,55.467 60.673,56.72 C59.119,57.974 57.184,59 56.374,59 C54.69,59 48,65.177 48,66.732 C48,68.516 41.108,73.108 37.569,73.683 C32.692,74.474 25.537,71.477 18.5,65.695 C11.54,59.977 10.64,58.71 11.536,55.887 C12.101,54.106 12.707,53.91 15.836,54.497 C19.354,55.157 26.669,59.761 32.151,64.765 C35.256,67.599 38.37,67.389 38.81,64.315 C39.183,61.707 47.304,53.263 53.614,48.921 C58.12,45.821 58.172,45.722 57.664,41.141 C56.483,30.47 55.093,20.126 54.086,14.5 C53.495,11.2 53.009,6.588 53.006,4.25 Z M70.979,148.25 C77.267,144.488 80.688,144.18 84.331,147.045 C89.09,150.789 89.485,156.784 85.515,165 C84.85,166.375 84.507,169.381 84.752,171.68 C85.186,175.756 85.089,175.914 80.848,178.064 C78.457,179.277 75.139,181.446 73.476,182.885 C71.813,184.323 67.897,186.353 64.774,187.396 C59.379,189.198 58.964,189.207 56.469,187.572 C54.605,186.35 54.055,185.365 54.574,184.176 C56.539,179.67 56.137,176.476 53.071,172.25 C51.375,169.912 49.385,168 48.649,168 C46.386,168 43.817,164.305 43.655,160.816 C43.519,157.916 43.837,157.461 46.181,157.19 C48.117,156.967 49.957,157.87 52.802,160.44 C54.969,162.398 57.363,163.971 58.121,163.935 C58.88,163.899 60.861,161.086 62.524,157.685 C65.038,152.542 66.462,150.953 70.979,148.25 Z M116.667,181.667 C117.728,180.605 120.493,180.893 121.8,182.2 C122.46,182.86 123.007,184.998 123.015,186.95 C123.039,192.509 125.52,198.54 127.679,198.285 C128.681,198.167 131.63,197.773 134.233,197.409 C138.096,196.868 139.081,197.048 139.595,198.386 C140.497,200.738 138.242,202.995 132.407,205.58 L127.314,207.836 L126.657,218.574 C126.296,224.479 126,231.855 126,234.964 C126,238.387 125.421,241.384 124.532,242.559 C123.724,243.626 123.049,245.423 123.032,246.55 C122.992,249.102 121.174,251 118.769,251 C116.437,251 115.355,248.262 116.784,245.975 C118.005,244.019 118.708,213.954 117.575,212.121 C116.588,210.525 114.954,210.72 110.236,213 C107.959,214.1 104.387,215.011 102.298,215.024 C100.209,215.037 96.747,215.454 94.604,215.951 C91.625,216.643 90.164,216.498 88.393,215.338 C83.017,211.816 85.213,205.986 91.905,206.016 C97.87,206.042 115.398,202.781 116.953,201.356 C118.176,200.233 118.216,199.107 117.203,194.202 C115.867,187.738 115.651,182.682 116.667,181.667 Z M65.781,58.826 C70.124,55.704 70.985,55.537 73.456,57.344 C76.731,59.739 74.538,63.821 64.922,73.229 C57.798,80.198 56,82.535 56,84.824 C56,86.4 55.153,88.457 54.117,89.394 C53.082,90.331 51.436,93.213 50.461,95.799 C48.663,100.565 41.104,112.892 37.804,116.439 C36.812,117.505 36,118.726 36,119.153 C36,120.558 28.583,125 26.236,125 C22.029,125 22.751,122.289 29.423,113.032 C33.04,108.013 36.001,103.591 36.002,103.204 C36.004,102.817 37.804,99.852 40.002,96.615 C43.881,90.906 45.139,85.822 43,84.5 C41.018,83.275 41.987,78.882 44.75,76.563 C49.462,72.608 56.657,67.254 58.807,66.103 C59.939,65.498 61.134,64.214 61.464,63.251 C61.793,62.288 63.736,60.297 65.781,58.826 Z M64.25,88.662 C68.179,87.077 81.658,90.548 83.705,93.673 C86.158,97.416 84.31,98.33 74.802,98.079 C68.873,97.922 66.002,97.407 64.751,96.275 C62.733,94.449 62.401,89.408 64.25,88.662 Z M70.91,161.5 C67.97,164.525 65.043,167 64.405,167 C63.767,167 62.666,167.698 61.958,168.55 C60.117,170.768 62.937,173.484 66.225,172.658 C69.285,171.89 75.094,167.95 76.04,166 C78.736,160.445 79.198,158.959 78.664,157.567 C77.711,155.082 76.601,155.645 70.91,161.5 Z"/>
</svg>

