<svg xmlns="http://www.w3.org/2000/svg" width="300" height="300" viewBox="0 0 300 300" version="1.1">
  <defs/>
  <path d="M166.783,71.75 C168.56,69.714 172.3,69.447 173.782,71.25 C175.17,72.939 175.551,77.939 174.524,81 C173.543,83.926 173.489,103.363 174.457,104.93 C175.655,106.869 178.431,106.043 183.5,102.239 C190.579,96.927 193.722,95 195.31,95 C196.069,95 197.505,94.1 198.5,93 C200.972,90.268 204.424,90.471 206.385,93.465 C208.541,96.756 208.444,97.551 205.397,101.547 C203.211,104.412 190.205,112 187.479,112 C186.607,112 180.229,114.768 177,116.548 C175.405,117.427 174.649,118.573 174.913,119.713 C175.861,123.816 174.821,148.986 173.165,162 C172.32,168.64 172.469,179.533 173.453,183.082 C173.997,185.043 173.443,186.809 171.151,190.423 C169.491,193.041 168.344,195.732 168.601,196.404 C168.912,197.214 171.977,197.688 177.71,197.811 C182.461,197.913 187.847,198.538 189.677,199.2 C192.295,200.147 195.087,200.126 202.753,199.104 C208.114,198.389 215.65,197.586 219.5,197.319 L226.5,196.834 L229.314,200.444 C231.175,202.831 232.021,204.969 231.814,206.759 C231.537,209.145 230.851,209.615 226,210.745 C221.173,211.869 220.101,211.821 217.239,210.35 C214.699,209.044 213.484,208.915 211.739,209.766 C207.587,211.792 195.606,212.206 187.8,210.594 C182.681,209.536 175.698,209.149 164.666,209.31 C146.866,209.571 146.245,209.353 147.667,203.338 C148.339,200.499 149.179,199.462 151.261,198.905 C154.807,197.957 159.288,192.594 160.308,188.078 C162.428,178.683 165.183,145.317 164.813,133.5 C164.512,123.872 164.413,123.488 162.152,123.168 C160.801,122.976 158.89,123.688 157.652,124.845 C153.532,128.692 134.011,131.611 131.2,128.8 C129.628,127.228 129.659,122.508 131.25,121.278 C131.938,120.746 136.419,119.747 141.208,119.058 C146.058,118.36 150.433,117.184 151.081,116.403 C151.721,115.631 153.329,115 154.655,115 C155.98,115 158.644,114.34 160.574,113.534 L164.083,112.067 L163.541,94.969 C162.992,77.65 163.25,75.801 166.783,71.75 Z M91.872,53.653 C93.717,51.431 97.296,51.564 99.44,53.934 C100.966,55.62 101.231,58.539 101.502,76.684 C101.673,88.133 102.077,112.35 102.399,130.5 C103.567,196.247 103.174,218.794 100.766,224.236 C99.228,227.714 98.885,227.93 95.807,227.354 C91.382,226.526 90.75,225.788 91.893,222.782 C92.442,221.337 92.539,217.877 92.118,214.771 C91.71,211.763 91.871,204.172 92.476,197.901 C93.101,191.437 93.344,178.49 93.039,168 C92.524,150.341 92.407,149.487 90.458,149.208 C87.822,148.83 79.997,154.484 80.01,156.756 C80.024,159.22 75.275,173.535 72.883,178.236 C72.397,179.191 72,180.644 72,181.465 C72,183.689 67.05,198.164 65.418,200.715 C64.638,201.933 64,203.887 64,205.057 C64,207.288 61.904,210.413 55.881,217.158 C52.778,220.633 51.975,221.057 50.249,220.133 C49.141,219.54 47.992,218.422 47.695,217.647 C46.939,215.677 49.005,210.391 52.833,204.5 C55.003,201.16 55.899,198.766 55.532,197.29 C55.144,195.733 55.575,194.762 56.991,194.005 C58.259,193.326 59,191.91 59,190.165 C59,188.644 59.424,186.973 59.943,186.45 C60.461,185.928 61.313,183.7 61.837,181.5 C62.36,179.3 63.606,175.368 64.605,172.761 C66.917,166.735 65.625,164.698 61.301,167.552 C54.536,172.016 49.697,174 45.57,174 C41.076,174 39.662,173.025 38.75,169.296 C37.966,166.09 39.964,164.02 44.916,162.908 C54.59,160.734 67.824,152.525 72.255,145.95 C73.963,143.415 75.524,142.367 78.257,141.923 C80.304,141.59 83.135,140.137 84.611,138.662 C86.075,137.198 88.021,136 88.936,136 C89.851,136 91.14,135.46 91.8,134.8 C93.533,133.067 93.338,109.791 91.416,88.798 C89.626,69.256 89.796,56.153 91.872,53.653 Z M67.112,77.91 C70.648,75.67 74.193,78.058 75.41,83.5 C75.779,85.15 76.137,89.968 76.207,94.207 C76.342,102.444 77.314,103.973 81.122,101.935 C82.209,101.353 84.314,101.017 85.799,101.188 C88.125,101.457 88.543,102.015 88.808,105.213 C89.095,108.667 88.616,109.399 81.944,115.713 C77.999,119.446 74.204,122.828 73.511,123.229 C71.36,124.475 64.022,120.783 64.01,118.45 C64.005,117.323 64.434,115.966 64.965,115.435 C65.745,114.655 66.188,96.659 65.798,81.644 C65.757,80.074 66.348,78.393 67.112,77.91 Z"/>
</svg>

