<svg xmlns="http://www.w3.org/2000/svg" width="300" height="300" viewBox="0 0 300 300" version="1.1">
  <defs/>
  <path d="M113,4.985 C116.994,1.885 119.397,2.501 123.783,7.75 C129.208,14.242 130.554,23.365 128.1,37 C127.456,40.575 126.565,46.2 126.12,49.5 C124.662,60.3 122.819,63.963 113.934,73.723 C112.32,75.496 111,77.382 111,77.914 C111,79.972 113.133,80.041 115.645,78.065 C118.708,75.655 124.479,75.336 126.602,77.459 C128.732,79.589 126.014,86 122.98,86 C119.553,86 111,93.822 111,96.957 C111,98.41 110.617,100.027 110.148,100.55 C109.037,101.789 106.586,118.92 107.403,119.737 C107.748,120.081 109.507,118.932 111.313,117.182 C113.118,115.432 115.526,114 116.663,114 C117.8,114 119.874,113.1 121.273,112 C125.778,108.456 128.364,109.745 129.233,115.969 C129.828,120.225 128.349,126 126.664,126 C125.982,126 123.658,126.9 121.5,128 C119.342,129.1 116.403,130 114.969,130 C113.433,130 110.678,131.44 108.271,133.5 C106.022,135.425 103.378,137 102.395,137 C101.412,137 98.997,138.116 97.029,139.48 C95.061,140.844 92.025,142.245 90.283,142.593 C87.659,143.118 86.676,142.753 84.557,140.467 C83.151,138.95 82,136.941 82,136.003 C82,135.066 84.475,132.324 87.5,129.91 C90.525,127.496 93,124.723 93,123.747 C93,122.771 93.406,121.191 93.903,120.236 C95.67,116.835 97.261,110.123 96.667,108.574 C95.59,105.767 91.819,106.896 86.897,111.5 C81.632,116.425 79.032,117.032 76.039,114.039 C74.395,112.395 74.246,111.594 75.118,109.09 C75.691,107.447 77.586,105.205 79.33,104.108 C85.567,100.181 95.349,92.792 97.125,90.665 C99.294,88.068 99.563,83.153 97.578,82.392 C95.853,81.729 92.379,83.426 88.973,86.596 C86.908,88.517 85.76,88.835 82.695,88.338 C78.06,87.586 74.05,82.85 76.029,80.466 C77.305,78.928 76.07,74.3 73.504,71 C72.862,70.175 72.281,67.483 72.213,65.019 C72.135,62.252 71.497,60.105 70.544,59.408 C69.386,58.562 69.142,57.181 69.569,53.89 C69.967,50.812 69.519,47.734 68.069,43.593 C66.931,40.345 66,37.029 66,36.225 C66,35.422 64.65,33.226 63,31.347 C59.428,27.279 58.97,22.242 61.928,19.565 C65.738,16.117 72,20.139 72,26.033 C72,32.009 73.953,32.593 78.804,28.069 C81.093,25.935 85.76,22.322 89.175,20.042 C92.591,17.761 95.999,15.019 96.749,13.947 C97.5,12.876 98.918,12 99.902,12 C100.885,12 102.481,11.126 103.449,10.057 C104.416,8.988 106.398,7.846 107.854,7.519 C109.309,7.192 111.625,6.052 113,4.985 Z M107.23,203.489 C107.929,202.68 109.625,202.127 111,202.26 C113.292,202.48 113.542,202.991 114,208.398 C114.668,216.282 115.985,217.012 123.3,213.551 C130.138,210.316 133.108,210.495 134.412,214.22 C135.169,216.38 134.98,217.364 133.495,219.006 C131.249,221.487 123.631,225 120.495,225 C119.258,225 117.805,225.563 117.267,226.25 C116.73,226.938 116.198,233.575 116.086,241 C115.974,248.425 115.796,255.4 115.691,256.5 C115.513,258.366 116.071,258.493 124,258.39 C181.25,257.651 208.781,257.812 210.809,258.898 C214.832,261.051 236.202,262.792 245.869,261.754 C247.755,261.552 248.764,262.433 250.811,266.07 L253.383,270.64 L250.021,275.321 C246.971,279.568 246.506,279.863 244.998,278.498 C244.084,277.671 242.248,277.059 240.918,277.139 C239.588,277.218 237.15,276.547 235.5,275.647 C233.85,274.748 231.233,274.01 229.684,274.006 C228.136,274.003 225.886,273.468 224.684,272.818 C221.118,270.888 209.166,269.112 199,269.002 C193.775,268.946 184.1,268.321 177.5,267.614 C169.918,266.801 164.58,266.663 163,267.238 C161.625,267.739 158.025,268.039 155,267.905 C151.975,267.77 147.475,267.958 145,268.321 C142.525,268.683 134.527,269.199 127.227,269.467 C119.927,269.735 113.074,270.425 111.998,271.001 C110.922,271.577 108.904,271.763 107.513,271.414 C105.923,271.015 104.067,271.381 102.511,272.401 C100.656,273.616 98.719,273.873 94.769,273.426 C91.868,273.098 87.477,273.352 85,273.991 C82.525,274.63 78.23,275.241 75.456,275.35 C70.731,275.535 59.682,278.522 52.216,281.632 C50.41,282.384 48.228,283 47.367,283 C46.506,283 44.384,283.631 42.651,284.403 C40.918,285.174 36.35,286.619 32.5,287.613 C28.378,288.678 24.806,290.26 23.813,291.461 C21.44,294.328 18.753,292.466 17.612,287.165 C16.684,282.854 17.854,280 20.547,280 C21.263,280 25.37,278.579 29.674,276.842 C33.978,275.106 40.517,272.883 44.203,271.902 C47.89,270.922 51.86,269.61 53.025,268.987 C56.479,267.138 64.898,265.231 74.5,264.122 C90.758,262.243 100.48,260.951 101.765,260.498 C104.216,259.633 105.313,254.492 105.071,245 C104.868,237.035 104.511,235.203 102.861,233.661 C101.024,231.945 100.671,231.928 97.546,233.411 C95.704,234.285 93.253,235 92.099,235 C90.944,235 90,235.379 90,235.843 C90,237.851 83.376,240.146 78.5,239.827 C73.843,239.522 73.478,239.306 73.175,236.662 C72.716,232.656 75.314,230.284 81.585,228.982 C87.4,227.775 101.923,221.003 103.96,218.549 C104.652,217.714 105.386,214.315 105.59,210.995 C105.793,207.675 106.532,204.297 107.23,203.489 Z M151.5,149.895 C154.25,149.558 157.192,149.218 158.038,149.141 C161.749,148.801 170.596,152.968 173.496,156.422 C175.148,158.39 177.047,160 177.715,160 C179.873,160 181,163.709 181,170.814 L181,177.759 L176.582,181.38 C174.152,183.371 171.732,185 171.204,185 C170.677,185 169.676,185.685 168.981,186.523 C167.568,188.226 164.55,187.685 161.75,185.227 C159.079,182.881 159.698,180.761 163.903,177.856 C169.317,174.115 170.023,170.527 166.057,166.905 C164.376,165.369 163,163.418 163,162.57 C163,161.721 161.445,160.377 159.544,159.583 C156.22,158.194 155.812,158.28 148.905,161.819 C144.954,163.844 140.997,166.55 140.111,167.833 C139.225,169.116 137.262,171.65 135.75,173.465 C134.238,175.279 133,177.506 133,178.413 C133,179.321 132.213,180.297 131.25,180.582 C130.287,180.868 128.296,181.714 126.824,182.462 C124.441,183.673 123.96,183.613 122.419,181.911 C121.468,180.86 119.625,180 118.324,180 C116.78,180 115.567,179.145 114.837,177.541 C114.221,176.189 111.704,172.926 109.245,170.291 C106.785,167.656 104.388,164.496 103.918,163.269 C103.218,161.439 102.534,161.143 100.125,161.625 C97.701,162.11 96.879,161.745 95.437,159.544 C93.803,157.051 93.796,156.65 95.328,153.438 C96.765,150.426 97.434,149.998 100.734,149.983 C104.22,149.968 105.25,150.75 114.565,160.483 C123.702,170.032 127,172.588 127,170.122 C127,168.831 139.658,155.38 143.339,152.758 C145.077,151.521 148.749,150.232 151.5,149.895 Z M15.819,174.578 C18.953,172.926 23.243,173.476 27.5,176.077 C29.15,177.085 32.413,178.841 34.75,179.98 C37.087,181.118 39,182.622 39,183.322 C39,184.022 40.82,186.371 43.044,188.543 C46.816,192.227 47.068,192.82 46.794,197.393 C46.387,204.177 44.105,205.571 40.09,201.487 C38.475,199.844 36.656,198.05 36.048,197.5 C35.44,196.95 32.567,193.912 29.663,190.75 C24.295,184.905 21.412,183.731 18.813,186.33 C16.866,188.277 15.146,187.286 13.459,183.247 C11.634,178.88 12.3,176.433 15.819,174.578 Z M57,156.288 C59.991,154.782 67.629,154.591 68.5,156 C68.84,156.55 69.945,157 70.956,157 C71.966,157 74.527,159.092 76.647,161.648 C83.778,170.25 83.821,170.269 87.591,166.5 C88.966,165.125 90.52,164 91.045,164 C93.724,164 90.731,177.632 87.374,180.719 C85.037,182.868 84.858,182.885 81.672,181.244 C78.581,179.653 73.433,173.917 69.968,168.204 C67.425,164.012 65.392,163.254 61.958,165.217 C59.69,166.513 58.333,166.697 56.417,165.968 C54.233,165.138 53.922,164.484 54.19,161.275 C54.423,158.473 55.122,157.233 57,156.288 Z M91,31.5 C90.315,32.325 88.98,33 88.033,33 C87.085,33 85.518,33.875 84.551,34.944 C83.583,36.013 81.826,37.026 80.646,37.194 C78.952,37.436 78.47,38.238 78.358,41 C78.279,42.925 78.562,45.4 78.986,46.5 C79.776,48.551 81.681,56.961 82.666,62.75 C82.97,64.537 83.534,66 83.918,66 C86.524,66 91.647,58.129 90.681,55.611 C90.341,54.725 89.218,54 88.186,54 C85.795,54 83,50.942 83,48.326 C83,47.217 83.904,45.492 85.01,44.491 C86.717,42.946 87.372,42.861 89.36,43.925 C90.648,44.614 92.781,45.026 94.101,44.839 C96.376,44.518 96.482,44.19 96.145,38.5 C95.683,30.703 93.794,28.133 91,31.5 Z M111.546,18.23 C109.921,18.82 108.121,19.7 107.546,20.186 C106.971,20.671 105.6,21.697 104.5,22.465 C102.506,23.856 102.507,23.875 104.686,28.18 C105.888,30.556 107.115,33.299 107.414,34.275 C107.815,35.589 108.589,35.89 110.396,35.437 C112.232,34.976 113.112,35.341 113.953,36.912 C116.034,40.801 117.737,39.332 118.901,32.645 C120.409,23.987 118.908,16.849 115.628,17.079 C115.007,17.122 113.171,17.641 111.546,18.23 Z M110.677,51.804 C108.591,54.11 108.513,56.876 110.513,57.643 C112.764,58.507 115.143,56.021 114.801,53.163 C114.418,49.967 112.817,49.44 110.677,51.804 Z M98,66 C98,66.55 98.45,67 99,67 C99.55,67 100,66.55 100,66 C100,65.45 99.55,65 99,65 C98.45,65 98,65.45 98,66 Z"/>
</svg>

