<svg xmlns="http://www.w3.org/2000/svg" width="300" height="300" viewBox="0 0 300 300" version="1.1">
  <defs/>
  <path d="M134.5,30.423 C142.416,25.333 146.633,24.844 148.588,28.787 C149.212,30.046 150.689,32.104 151.87,33.362 C153.052,34.619 153.767,35.9 153.46,36.207 C153.153,36.514 154.058,38.47 155.471,40.553 C157.99,44.265 158.032,44.612 157.563,57.92 C157.299,65.389 157.048,76 157.004,81.5 C156.908,93.608 156.637,94.619 152.991,96.505 C150.235,97.93 149.886,97.83 144.061,93.962 C140.728,91.747 138,89.5 138,88.968 C138,88.435 137.438,87.987 136.75,87.971 C134.602,87.92 128.793,81.981 129.385,80.439 C130.117,78.532 134.91,78.61 138.885,80.592 C140.64,81.468 142.741,81.93 143.553,81.618 C145.986,80.685 147.228,75.886 146.615,69.797 C146.299,66.66 146.44,63.846 146.928,63.544 C147.942,62.918 147.751,50.417 146.712,49.378 C146.336,49.003 145.738,46.504 145.382,43.825 C145.027,41.147 144.326,38.701 143.824,38.391 C143.323,38.081 141.694,38.646 140.206,39.646 C136.809,41.93 135.276,42.809 126,47.792 C121.875,50.008 118.388,52.424 118.251,53.161 C118.114,53.897 119.464,55.175 121.251,56 C124.17,57.348 124.572,58.058 125.21,63 C125.601,66.025 126.156,73 126.445,78.5 C127.118,91.348 127.822,100.523 128.497,105.284 C128.793,107.365 128.575,109.926 128.013,110.976 C127.299,112.31 127.343,113.659 128.16,115.451 C129.066,117.441 129.045,118.547 128.066,120.376 C127.07,122.237 127.052,123.933 127.979,128.401 C128.878,132.73 128.881,136.665 127.991,145.086 C126.442,159.747 127.625,162.681 132.091,155.25 C133.33,153.188 136.273,149.201 138.63,146.39 C140.987,143.58 143.456,140.092 144.118,138.64 C144.78,137.188 145.707,136 146.178,136 C146.65,136 150.625,132.449 155.013,128.108 C168.262,115.001 169.893,113.757 172.873,114.497 C177.027,115.527 180,118.914 180,122.615 C180,124.412 180.45,126.16 181,126.5 C183.411,127.99 180.805,151.208 177.862,154.45 C177.388,154.973 177,156.279 177,157.354 C177,158.428 175.933,161.6 174.628,164.404 C170.94,172.329 168,181.666 168,185.453 C168,188.709 168.357,189.068 174.518,192.009 C181.083,195.142 192.333,203.079 197.041,207.899 C201.445,212.408 225.07,232.441 227.594,233.807 C228.922,234.525 233.362,238.35 237.461,242.307 C241.559,246.263 249.186,253.09 254.409,257.478 C265.829,267.07 266.803,268.546 264.57,272.864 C262.701,276.478 260.118,276.893 257.5,274 C256.505,272.9 254.896,272 253.924,272 C252.764,272 251.926,270.94 251.48,268.907 C250.996,266.705 249.893,265.434 247.65,264.494 C245.918,263.767 240.9,259.423 236.5,254.838 C232.1,250.254 227.33,245.603 225.899,244.502 C224.468,243.401 220.868,240.38 217.899,237.788 C211.18,231.925 195.235,218.932 192.346,216.966 C191.161,216.16 186.604,212.75 182.219,209.389 C177.834,206.029 173.073,202.984 171.639,202.624 C169.959,202.203 168.802,201.059 168.389,199.412 C168.025,197.963 166.664,196.443 165.25,195.905 C162.425,194.831 161.623,195.577 157.888,202.764 C156.669,205.109 155.07,207.527 154.336,208.136 C153.601,208.746 153,210.234 153,211.442 C153,212.651 151.489,215.409 149.643,217.57 C147.796,219.732 145.95,222.625 145.54,224 C144.62,227.089 136.213,235 133.851,235 C132.898,235 131.84,235.45 131.5,236 C130.569,237.506 126.411,237.201 125.02,235.525 C124.01,234.307 124.67,233.068 128.794,228.442 C131.543,225.357 134.739,222.171 135.896,221.36 C137.053,220.55 138,219.238 138,218.446 C138,217.653 139.575,214.812 141.5,212.133 C143.425,209.453 145,206.737 145,206.097 C145,205.457 146.061,202.811 147.357,200.217 C152.156,190.612 151.7,187.298 145.223,184.706 C143.113,183.862 140.795,182.457 140.071,181.585 C139.347,180.713 138.156,180 137.425,180 C136.693,180 134.648,178.2 132.88,176 C128.361,170.377 126.135,170.626 126.152,176.75 C126.171,183.852 121.616,226.722 120.75,227.585 C120.338,227.997 120,229.778 120,231.544 C120,233.31 119.325,235.315 118.5,236 C117.675,236.685 117,237.99 117,238.9 C117,241.815 114.026,245 111.303,245 C108.735,245 108.725,244.967 109.499,239.25 C109.927,236.088 110.359,231.7 110.46,229.5 C110.56,227.3 110.923,224.825 111.266,224 C111.936,222.389 112.744,215.714 113.627,204.5 C113.931,200.65 114.568,197.029 115.044,196.453 C115.519,195.877 116.173,190.252 116.497,183.953 C116.821,177.654 117.465,168.675 117.927,164 C119.035,152.799 118.393,95.97 117.03,84.5 C114.986,67.306 114.827,65.472 114.926,60.329 C114.995,56.785 114.387,54.075 112.994,51.714 L110.961,48.268 L114.831,44.884 C120.242,40.153 126.334,35.674 134.5,30.423 Z M65.2,82.2 C66.864,80.536 68.405,80.697 71.009,82.806 C72.815,84.269 73.334,85.939 73.738,91.588 C74.208,98.153 74.069,98.765 71.379,101.961 L68.52,105.359 L71.01,104.528 C72.38,104.071 75.75,103.653 78.5,103.599 L83.5,103.5 L83.803,108.779 C84.102,113.974 84.051,114.081 80.585,115.529 C78.649,116.338 75.78,117 74.211,117 L71.359,117 L71.81,125.605 C72.059,130.338 72.787,136.526 73.43,139.355 C74.578,144.417 74.653,144.495 78.049,144.216 C79.947,144.06 83.082,143.109 85.016,142.104 C90.205,139.406 104.247,136.763 107.274,137.914 C110.324,139.074 111.44,143.589 109.443,146.69 C108.301,148.463 107.388,148.775 104.644,148.33 C102.654,148.007 100.971,148.238 100.568,148.89 C100.191,149.5 98.756,150 97.379,150 C96.002,150 92.541,150.702 89.688,151.56 C86.835,152.418 82.818,153.613 80.763,154.216 C73.936,156.218 73.852,156.661 74.503,187.273 C74.893,205.633 75.064,212.119 75.01,218.603 C74.969,223.596 74.794,228.588 74.486,239 C73.821,261.416 72.527,266.291 67.732,264.451 C66.01,263.79 63.739,254.02 64.964,252.543 C65.556,251.831 65.529,248.816 64.892,244.454 C64.165,239.476 64.215,234.942 65.067,228.5 C65.721,223.55 66.016,217.025 65.722,214 C65.428,210.975 64.983,198.25 64.733,185.723 C64.483,173.195 64.04,162.707 63.749,162.415 C63.457,162.124 60.807,163.418 57.859,165.292 C54.912,167.166 49.575,169.97 46,171.524 C42.425,173.077 39.073,174.72 38.55,175.174 C38.028,175.628 35.735,176 33.455,176 C30.58,176 28.755,176.613 27.5,178 C26.505,179.1 24.574,180 23.211,180 C20.491,180 13.085,181.935 11.5,183.06 C9.407,184.545 4.048,185.096 2.059,184.031 C-0.299,182.77 -0.837,176.915 1.25,175.245 C1.938,174.695 5.65,173.48 9.5,172.544 C17.785,170.532 25.047,168.188 26.475,167.066 C27.039,166.623 29.3,165.939 31.5,165.546 C33.7,165.153 36.175,164.251 37,163.542 C37.825,162.833 40.181,161.713 42.236,161.053 C44.291,160.394 46.25,159.404 46.59,158.854 C46.93,158.305 50.424,156.387 54.354,154.593 C63.056,150.62 64.482,149.096 63.562,144.748 C63.184,142.961 62.664,139.025 62.406,136 C62.147,132.975 61.739,129.938 61.499,129.25 C60.845,127.377 57.64,127.745 56.33,129.844 C54.404,132.927 48.404,135.286 45.898,133.945 C43.088,132.442 38.076,135.078 33.926,140.242 C30.42,144.605 29.145,144.848 26.203,141.716 C22.857,138.155 24.443,135.169 34.492,126.108 C39.438,121.649 43.772,118 44.124,118 C45.081,118 49.62,111.793 50.348,109.489 C50.821,107.992 49.834,106.244 46.492,102.655 C44.021,100.002 42,97.489 42,97.071 C42,96.652 42.916,95.481 44.036,94.467 C45.82,92.853 46.498,92.778 49.503,93.865 C51.967,94.756 53.489,94.809 54.901,94.053 C55.983,93.474 57.65,93 58.606,93 C61.44,93 64,89.937 64,86.545 C64,84.815 64.54,82.86 65.2,82.2 Z M53.978,27.032 C55.681,24.639 56.847,23.961 58.858,24.194 C61.416,24.49 61.501,24.712 61.54,31.207 C61.562,34.895 61.921,38.254 62.338,38.671 C63.532,39.865 66.466,37.523 66.828,35.087 C67.31,31.835 69.984,31.261 72.156,33.944 C74.616,36.982 74.539,42.202 72,44.5 C70.9,45.495 70,46.831 70,47.467 C70,48.103 68.716,49.573 67.147,50.733 C64.789,52.477 64.177,53.84 63.618,58.592 C63.246,61.755 63.322,64.722 63.787,65.187 C64.606,66.006 69.957,63.895 73,61.553 C73.825,60.918 76.731,59.835 79.457,59.148 C84.179,57.956 84.498,58.006 86.185,60.199 C87.159,61.464 87.957,63.175 87.96,64 C87.964,65.646 80.83,72 78.978,72 C78.341,72 77.073,72.868 76.16,73.929 C75.247,74.99 72.311,76.577 69.636,77.456 C66.961,78.335 60.715,81.292 55.757,84.027 C50.799,86.762 46.529,89 46.267,89 C46.005,89 43.493,90.154 40.685,91.565 C34.553,94.644 31.573,93.886 30.493,88.97 C29.888,86.215 30.226,85.447 33.15,82.942 C34.992,81.363 37.4,79.795 38.5,79.456 C42.24,78.306 46.493,76.007 49.057,73.75 C52.304,70.893 54.827,61.702 52.977,59.472 C51.403,57.575 48.586,57.588 47,59.5 C45.648,61.129 41.301,61.477 39.17,60.126 C38.433,59.659 37.987,58.062 38.17,56.543 C38.432,54.368 39.635,53.212 44,50.939 C47.025,49.365 50.311,47.839 51.303,47.549 C52.929,47.074 53.039,46.193 52.423,38.599 C51.796,30.876 51.925,29.914 53.978,27.032 Z M164.597,132.202 C161.319,136.263 153.232,145.391 146.279,152.878 C143.407,155.97 141.045,159.294 141.029,160.264 C141.013,161.234 140.441,162.923 139.757,164.017 C137.775,167.191 139.27,168.844 149.22,174.48 C150.717,175.327 152.42,176.916 153.006,178.01 C154.57,180.934 158,180.624 158,177.559 C158,176.216 158.405,174.868 158.9,174.562 C159.394,174.256 160.327,171.642 160.971,168.753 C161.616,165.864 162.531,162.6 163.004,161.5 C166.045,154.433 166.872,152.224 167.309,150 C167.579,148.625 168.541,144.81 169.447,141.523 C172.481,130.507 169.927,125.598 164.597,132.202 Z"/>
</svg>

