<svg xmlns="http://www.w3.org/2000/svg" width="300" height="300" viewBox="0 0 300 300" version="1.1">
  <defs/>
  <path d="M78.357,7.203 C83.363,0.007 83.488,-0.09 87.466,0.203 C90.81,0.449 91.556,0.895 91.827,2.805 C92.006,4.073 91.574,5.808 90.866,6.662 C89.199,8.67 87.452,11.655 85.435,15.936 C84.545,17.827 82.733,20.794 81.409,22.531 C80.084,24.268 79,26.364 79,27.189 C79,28.015 78.1,29.505 77,30.5 C75.9,31.495 75,33.14 75,34.155 C75,35.17 74.626,36 74.169,36 C73.712,36 72.699,37.237 71.919,38.75 C71.139,40.263 69.865,41.997 69.088,42.605 C67.903,43.533 68.079,44.253 70.19,47.105 C71.573,48.972 72.982,51.288 73.321,52.25 C73.66,53.212 74.64,54 75.499,54 C77.164,54 82.655,48.304 84.782,44.371 C86.251,41.653 88.867,41.363 92.932,43.465 C95.896,44.998 97.61,49.093 96.279,51.46 C95.149,53.467 86.479,63.384 79.25,70.936 C71.378,79.16 71.205,81.047 77.761,87.18 C80.38,89.629 83.256,92.053 84.153,92.567 C86.6,93.967 91.165,105.729 91.745,112.13 C92.523,120.708 89.183,128.483 81.25,136.558 C79.463,138.377 78,140.318 78,140.87 C78,142.383 70.791,148.961 68.461,149.574 C65.696,150.302 61.091,148.429 60.322,146.265 C59.978,145.294 59.013,143.706 58.179,142.734 C56.737,141.057 56.546,141.078 54.331,143.159 C53.049,144.363 52,145.857 52,146.477 C52,148.822 45.62,156.153 41.951,158.025 C39.85,159.097 36.911,161.104 35.42,162.487 C32.51,165.183 30.021,165.617 26.934,163.965 C23.471,162.112 24.769,159.554 31.75,154.473 C35.462,151.771 39.073,148.781 39.772,147.829 C40.472,146.877 41.71,145.433 42.522,144.621 C43.335,143.808 44,142.674 44,142.101 C44,141.529 45.35,140.062 47,138.842 C48.65,137.622 50,136.014 50,135.269 C50,134.524 51.913,131.401 54.25,128.328 C56.587,125.255 58.949,122.012 59.497,121.121 C60.046,120.229 61.444,118.15 62.604,116.5 C63.763,114.85 65.041,112.46 65.443,111.189 C66.415,108.114 70.405,106.261 72.432,107.943 C76.293,111.148 75.005,115.474 66.664,127.307 C64.51,130.363 65.162,132 68.533,132 C70.206,132 71.426,131.077 72.5,129 C73.353,127.35 74.429,126 74.89,126 C76.535,126 79.385,116.47 79.188,111.632 C79.044,108.089 78.128,105.433 75.826,101.882 C74.087,99.197 72.106,97 71.425,97 C70.745,97 68.577,99.138 66.608,101.75 C64.639,104.362 60.338,109.875 57.051,114 C53.764,118.125 51.057,121.904 51.037,122.397 C51.017,122.89 49.523,125.14 47.717,127.397 C45.912,129.654 43.893,132.744 43.232,134.265 C42.571,135.785 40.849,137.568 39.405,138.225 C37.148,139.254 36.587,139.155 35.39,137.519 C32.739,133.894 34.026,128.612 39.206,121.856 C41.75,118.538 42.886,115 41.408,115 C41.082,115 39.671,115.9 38.273,117 C34.956,119.609 31.373,119.565 29.946,116.898 C29.003,115.137 29.228,114.368 31.339,112.148 C32.798,110.614 33.992,108.031 34.178,106.007 C34.425,103.325 35.153,102.202 37.314,101.172 C38.862,100.433 40.412,99.08 40.759,98.165 C41.106,97.249 44.677,92.733 48.695,88.129 C52.713,83.526 56,79.176 56,78.463 C56,76.858 48.744,71 46.756,71 C44.172,71 37,65.104 37,62.98 C37,60.665 42.715,55.073 45.126,55.029 C46.683,55.001 50.12,51.384 57.219,42.303 C62.791,35.176 67,29.332 67,28.722 C67,26.763 74.071,13.365 78.357,7.203 Z M102.557,158.937 C104.831,156.424 106.007,156.515 108.755,159.413 C110.774,161.543 110.972,162.597 110.646,169.482 C110.235,178.181 111.123,179.384 115.715,176.341 C117.247,175.325 120.671,173.371 123.325,171.997 L128.149,169.5 L130.075,171.861 C131.134,173.159 132,175.142 132,176.266 C132,179.382 127.266,185 124.64,185 C123.398,185 121.509,185.661 120.441,186.468 C119.374,187.276 117.318,187.951 115.872,187.968 C112.064,188.014 110.688,190.192 111.485,194.911 C112.262,199.511 112.196,216.335 111.374,223.165 C110.605,229.547 112.527,230.616 121.828,228.981 C128.479,227.811 142.143,228.491 160.5,230.903 C164.35,231.409 174.433,231.877 182.907,231.943 C191.381,232.008 200.156,232.444 202.407,232.911 C204.658,233.377 209.63,233.816 213.456,233.885 C217.281,233.955 220.859,234.459 221.406,235.006 C221.953,235.553 223.773,236 225.45,236 C227.128,236 231.651,236.696 235.5,237.547 C239.35,238.398 245.328,239.482 248.784,239.955 C258.69,241.31 262.305,244.795 258.345,249.171 C256.132,251.617 244.85,251.727 240.5,249.345 C237.351,247.621 231.53,246.425 221.5,245.439 C218.2,245.115 214.6,244.466 213.5,243.996 C210.283,242.623 189.241,241.186 180,241.708 C175.325,241.972 168.35,241.7 164.5,241.104 C156.715,239.898 136.011,238.605 126,238.699 C94.385,238.998 84.547,239.305 78.5,240.186 C74.65,240.746 69.25,241.341 66.5,241.508 C58.088,242.018 37.482,247.401 33.79,250.053 C29.952,252.811 25.617,252.59 23.615,249.535 C22.727,248.18 22,246.402 22,245.586 C22,242.611 28.631,238.901 36.69,237.368 C45.638,235.665 50.274,234.757 61.5,232.512 C74.037,230.004 84.018,228.986 90,229.604 C101.572,230.801 103.567,227.256 102.441,207.496 C102.056,200.732 101.373,194.604 100.925,193.878 C100.265,192.811 99.463,192.792 96.734,193.779 C94.877,194.451 92.207,195 90.801,195 C89.395,195 86.55,195.708 84.48,196.573 C77.827,199.352 71.63,196.233 72.688,190.638 C73.586,185.889 74.886,184.822 79.434,185.1 C85.972,185.499 95.446,183.926 97.97,182.022 C99.986,180.502 100.403,179.052 101.029,171.381 C101.428,166.496 101.541,162.134 101.279,161.687 C101.018,161.24 101.593,160.002 102.557,158.937 Z M128.292,2.508 C131.305,0.398 131.577,0.488 136.59,5.25 C140.854,9.301 141.115,9.875 142.142,17.5 C143.366,26.586 143.449,28.669 142.983,38.686 C142.75,43.699 143.06,46.368 144.01,47.512 C145.164,48.903 145.136,49.637 143.826,52.327 C142.976,54.072 141.675,56.85 140.936,58.5 C138.803,63.258 135.895,66 132.981,66 C131.512,66 129.495,66.9 128.5,68 C127.505,69.1 125.747,70.012 124.595,70.027 C123.443,70.042 120.926,71.358 119.003,72.953 C115.646,75.736 115.555,75.983 116.745,79.134 C117.564,81.304 117.647,82.753 116.992,83.408 C116.446,83.954 115.973,89.148 115.94,94.95 C115.908,100.753 115.547,107.525 115.138,110 C114.095,116.32 115.877,132.739 117.681,133.431 C119.582,134.161 126.998,129.14 127.007,127.117 C127.011,126.228 128.554,124.451 130.437,123.169 C132.32,121.887 134.321,119.518 134.883,117.906 C136.081,114.47 138.415,113.27 140.513,115.011 C142.578,116.724 142.333,121.018 140,124 C138.924,125.375 138.034,127.094 138.022,127.82 C137.987,129.895 132.637,137.059 127.338,142.126 C123.936,145.379 121.394,146.917 118.771,147.309 C115.386,147.816 114.741,147.515 111.771,144.045 C106.652,138.063 105.651,133.102 106.464,117.726 C106.848,110.452 107.341,94.6 107.56,82.5 C107.779,70.4 108.364,57.575 108.862,54 C109.359,50.425 109.412,46.823 108.98,45.996 C108.547,45.169 108.149,40.359 108.095,35.307 C108.041,30.255 107.547,24.939 106.998,23.495 C105.589,19.788 105.759,13.445 107.302,12.164 C111.817,8.417 115.829,16.163 116.607,30.134 C116.858,34.621 117.281,38.646 117.549,39.079 C117.816,39.512 118.087,44.666 118.149,50.532 L118.263,61.197 L121.382,60.587 C128.364,59.221 131.162,54.653 132.464,42.494 C133.223,35.408 132.432,34.374 129.797,39.006 C127.408,43.203 124.309,42.985 122.43,38.487 C121.152,35.428 121.148,34.615 122.396,32.202 C123.851,29.387 126.887,27.357 130.489,26.79 C132.807,26.425 133.439,24.155 132.547,19.4 C131.797,15.401 129.015,14.768 127.487,18.25 C126.054,21.517 122.299,21.75 120.891,18.66 C120.6,18.021 120.378,17.554 120.288,17.063 C120.018,15.593 120.928,13.906 124.694,6.758 C125.488,5.25 127.107,3.338 128.292,2.508 Z M159,45.636 C160.375,44.765 161.972,44.041 162.55,44.027 C165.753,43.945 167.31,50.668 164.608,52.911 C163.842,53.546 162.644,55.514 161.946,57.283 C161.248,59.052 159.787,61.496 158.699,62.713 C157.612,63.929 156.222,65.91 155.611,67.114 C155,68.318 153.6,69.798 152.5,70.402 C149.852,71.856 149.034,73.072 149.015,75.579 C148.993,78.556 143.131,87 140.352,88.056 C137.369,89.19 137.313,91.656 140.25,92.552 C143.431,93.523 156.365,101.641 158.514,104.016 C159.502,105.107 161.028,106.004 161.905,106.009 C162.782,106.014 165.75,107.125 168.5,108.478 C171.25,109.831 174.963,110.952 176.75,110.969 C178.977,110.99 180,111.478 180,112.52 C180,113.356 181.183,115.914 182.629,118.204 C185.766,123.173 185.024,125.216 179.774,126.071 C175.17,126.82 172.19,125.631 171.031,122.581 C170.363,120.825 169.059,119.914 166.534,119.44 C164.578,119.073 162.731,118.374 162.43,117.887 C162.129,117.399 160.839,117 159.563,117 C158.288,117 156.685,116.325 156,115.5 C155.315,114.675 154.355,114 153.866,114 C153.377,114 150.34,112.2 147.117,110 C143.894,107.8 140.765,106 140.164,106 C139.562,106 138.623,105.164 138.076,104.141 C137.528,103.119 135.018,101.705 132.498,100.999 C127.146,99.501 125,96.934 125,92.03 C125,89.142 125.858,87.669 129.75,83.875 C135.127,78.633 142,70.293 142,69.01 C142,68.014 149.653,56.151 153.709,50.859 C155.244,48.856 157.625,46.506 159,45.636 Z M56,61.8 C56,63.655 57.787,66 59.2,66 C59.64,66 60,64.65 60,63 C60,60.667 59.556,60 58,60 C56.741,60 56,60.667 56,61.8 Z"/>
</svg>

