<svg xmlns="http://www.w3.org/2000/svg" width="300" height="300" viewBox="0 0 300 300" version="1.1">
  <defs/>
  <path d="M87.667,88.667 C88.862,87.472 90.962,87.962 92.885,89.885 C94.318,91.318 94.927,93.894 95.428,100.635 C96.662,117.255 96.933,140.213 95.95,144.862 C95.41,147.413 94.546,153.1 94.029,157.5 C93.512,161.9 92.793,166.963 92.431,168.75 C91.841,171.665 92.01,172 94.072,172 C98.63,172 103.289,164.533 100,162.5 C98.447,161.54 98.822,157.393 100.595,155.921 C101.924,154.818 102.618,154.839 104.747,156.048 C106.152,156.847 107.632,158.175 108.035,159 C108.438,159.825 109.326,161.699 110.007,163.164 C112.316,168.129 111.65,180.643 108.606,189.483 C107.094,193.874 105.402,198.015 104.846,198.685 C103.005,200.903 104.429,202.892 111,207.281 C122.008,214.635 130.985,227.741 127.76,231.75 C125.976,233.968 124.246,233.095 121.65,228.666 C120.254,226.283 117.36,222.795 115.22,220.916 C107.609,214.233 103.544,211 102.75,211 C102.308,211 96.22,216.74 89.223,223.756 C81.205,231.795 74.766,237.357 71.81,238.796 C66.695,241.287 56.465,243.017 57.115,241.281 C57.327,240.715 60.875,237.545 65,234.235 C79.564,222.552 91.466,209.674 90.822,206.297 C90.63,205.29 89.417,204.349 88.063,204.157 C84.584,203.664 81.122,201.138 79.423,197.852 C77.786,194.685 76.433,194.316 74.079,196.392 C73.21,197.158 68.675,199.493 64,201.582 C59.325,203.67 54.375,206.136 53,207.06 C51.625,207.985 47.971,209.47 44.881,210.36 C41.79,211.251 38.698,212.659 38.008,213.49 C36.375,215.459 34.105,215.405 31.829,213.345 C28.802,210.606 29.586,208.323 34.24,206.322 C36.572,205.32 40.285,203.561 42.49,202.414 C76.533,184.706 81.528,181.494 82.338,176.79 C82.65,174.981 83.173,171.925 83.501,170 C83.829,168.075 84.725,163.575 85.493,160 C86.262,156.425 87.427,150.397 88.083,146.603 C89.492,138.455 89.415,103.221 87.979,99.446 C86.865,96.514 86.666,89.667 87.667,88.667 Z M166.056,82.382 C172.248,80.73 179.599,80.74 182.8,82.405 C188.231,85.231 190.391,88.609 190.448,94.369 C190.476,97.295 189.938,100.884 189.25,102.344 C188.563,103.805 187.457,106.237 186.793,107.75 C186.129,109.263 184.92,111.304 184.105,112.286 C182.889,113.754 182.837,114.659 183.812,117.357 C184.465,119.164 185,121.375 185,122.271 C185,124.257 177.868,130.355 171.404,133.896 C167.608,135.976 166.397,137.305 165.391,140.5 C162.827,148.639 159.942,162.174 159.263,169.25 C159.012,171.863 158.4,174 157.903,174 C157.407,174 157,174.879 157,175.953 C157,177.027 156.595,178.94 156.101,180.203 C155.606,181.466 154.452,185.425 153.536,189 C152.62,192.575 150.958,198.2 149.842,201.5 C148.727,204.8 147.6,208.85 147.339,210.5 C147.077,212.15 146.497,214.4 146.049,215.5 C144.211,220.015 140,233.857 140,235.385 C140,236.288 139.606,237.809 139.124,238.764 C138.643,239.719 137.464,243.2 136.504,246.5 C135.545,249.8 134.515,253.175 134.216,254 C131.094,262.611 130.195,264.475 128.714,265.409 C125.11,267.682 121.704,262.9 123.879,258.619 C124.96,256.489 126.635,251.349 128.97,243 C129.662,240.525 130.567,237.6 130.981,236.5 C131.742,234.479 133.404,228.421 134.961,222 C135.427,220.075 136.545,216.025 137.445,213 C140.683,202.119 141.147,200.463 141.645,198 C141.923,196.625 142.536,194.6 143.007,193.5 C143.478,192.4 144.089,190.15 144.365,188.5 C144.64,186.85 145.613,183.025 146.526,180 C147.439,176.975 148.599,172.494 149.102,170.042 C149.605,167.591 150.849,163.091 151.867,160.042 C154.102,153.343 155.511,146.078 157.499,131.009 C159.448,116.227 159.402,106.134 157.345,97.657 C156.046,92.303 155.953,90.647 156.919,90.05 C157.598,89.63 158.932,88 159.883,86.428 C161.084,84.443 162.973,83.205 166.056,82.382 Z M205.035,157.934 C206.54,155.123 210.606,155.469 212.645,158.581 C214.226,160.993 214.227,161.346 212.668,163.985 C211.751,165.538 211,167.385 211,168.089 C211,168.793 210.15,171.198 209.112,173.434 C208.073,175.67 205.997,180.167 204.499,183.427 C201.882,189.119 195.514,199.312 191.958,203.5 C189.566,206.317 187.857,227.325 189.375,235.258 C190.329,240.247 192.594,241.52 204,243.476 C219.156,246.075 235.693,246.6 240.372,244.63 C242.502,243.733 245.92,243 247.967,243 C252.172,243 253.442,241.886 257.651,234.5 C260.481,229.533 260.499,229.394 260.339,213.437 C260.25,204.602 259.68,195.524 259.071,193.264 C258.463,191.004 257.531,186.082 257.001,182.327 C256.472,178.572 255.634,173.553 255.139,171.173 C254.434,167.777 254.54,166.73 255.633,166.311 C257.588,165.56 260,167.831 260,170.422 C260,171.62 260.424,173.027 260.942,173.55 C261.46,174.072 262.401,177.425 263.033,181 C263.665,184.575 264.613,189.525 265.14,192 C265.668,194.475 266.496,199.501 266.98,203.168 C267.464,206.835 268.339,211.56 268.925,213.668 C270.451,219.164 270.235,228.026 268.494,231.364 C267.672,232.94 267,234.993 267,235.927 C267,239.28 261.951,248.059 258.985,249.863 C253.288,253.327 243.837,254.276 219.949,253.78 C199.645,253.359 196.974,253.101 192,251.078 C179.745,246.095 179.782,246.223 179.535,208.047 C179.422,190.696 178.838,173.35 178.237,169.5 C177.3,163.506 177.364,162.329 178.681,161.31 C181.612,159.041 183.498,161.725 185.399,170.867 C186.386,175.615 187.414,181.975 187.685,185 C188.444,193.499 189.8,193.718 193.877,186 C195.185,183.525 197.997,178.233 200.127,174.241 C202.538,169.723 204,165.639 204,163.425 C204,161.469 204.466,158.998 205.035,157.934 Z M171.597,91.034 C164.686,92.223 163.331,93.805 165.548,98.093 C166.629,100.183 167.464,104.735 167.779,110.253 C168.107,116.013 168.662,118.946 169.378,118.707 C169.981,118.506 173.313,114.123 176.784,108.967 C182.531,100.427 183.067,99.188 182.796,95.046 C182.517,90.768 182.323,90.491 179.5,90.345 C177.85,90.26 174.294,90.57 171.597,91.034 Z M92.704,184.687 C89.526,187.815 87.058,191.062 87.22,191.902 C87.486,193.285 93.441,198.009 94.898,197.994 C95.914,197.983 99,191.952 99,189.978 C99,188.955 99.45,187.84 100,187.5 C101.494,186.577 101.263,179 99.741,179 C99.049,179 95.882,181.559 92.704,184.687 Z"/>
</svg>

