<svg xmlns="http://www.w3.org/2000/svg" width="300" height="300" viewBox="0 0 300 300" version="1.1">
  <defs/>
  <path d="M195.413,60.768 C199.436,55.904 202.678,55.811 207.771,60.412 C210.893,63.233 211.774,64.925 212.849,70.162 C213.564,73.648 214.534,77.464 215.005,78.643 C215.475,79.822 215.87,83.965 215.882,87.85 C215.896,92.225 216.493,96.052 217.45,97.902 C218.662,100.246 219.073,105.483 219.36,122.195 L219.726,143.5 L223.488,143.818 C226.372,144.061 227.861,143.566 229.875,141.695 C231.775,139.928 234.138,139.073 238.434,138.597 C241.698,138.235 244.96,137.448 245.684,136.847 C247.177,135.608 250,137.336 250,139.488 C250,140.171 250.943,141.929 252.096,143.395 C254.378,146.296 254.057,148.725 251.273,149.607 C250.298,149.917 247.798,150.881 245.717,151.752 C242.834,152.957 241.656,153.056 240.767,152.167 C239.399,150.799 234.364,150.602 233.571,151.885 C233.271,152.371 230.986,153.075 228.493,153.449 C222.705,154.317 220.424,157.333 221.445,162.769 C221.83,164.821 222.349,171.675 222.598,178 C223.416,198.773 223.699,203.369 224.875,215 C225.515,221.325 226.2,233.139 226.399,241.252 C226.62,250.317 227.199,256.535 227.901,257.381 C228.712,258.358 228.747,259.536 228.021,261.443 C227.46,262.921 227,265.179 227,266.462 C227,269.515 220.444,275.412 218.141,274.43 C217.238,274.046 214.7,273.101 212.5,272.332 C205.147,269.762 201.816,267.533 198.781,263.152 C196.043,259.199 195.912,258.66 197.339,257.232 C198.766,255.805 199.322,256.042 203.432,259.831 C207.159,263.266 208.656,264 211.932,264 C215.706,264 215.944,263.816 216.584,260.405 C217.433,255.878 216.073,216.022 215,214 C214.562,213.175 214.148,207.829 214.08,202.119 C214.012,196.409 213.777,191.448 213.558,191.095 C213.34,190.741 212.891,184.612 212.562,177.476 C211.614,156.949 211.295,156.162 205.5,160 C203.85,161.093 201.514,161.99 200.309,161.993 C199.104,161.997 197.84,162.45 197.5,163 C197.16,163.55 195.446,164.01 193.691,164.022 C191.936,164.034 189.454,164.849 188.175,165.833 C185.882,167.597 185.852,167.872 185.936,186.561 C186.02,205.123 186.525,214.762 187.596,218.246 C187.891,219.206 187.573,221.539 186.889,223.43 C185.899,226.169 185.898,227.173 186.888,228.365 C188.521,230.333 188.025,249.732 186.305,251.161 C184.125,252.971 180.529,251.708 180.154,249 C179.964,247.625 179.416,246.021 178.936,245.436 C178.456,244.851 177.94,238.847 177.789,232.095 C177.638,225.342 177.232,219.643 176.887,219.43 C176.542,219.217 176.234,208.394 176.202,195.379 C176.158,177.136 175.841,171.421 174.822,170.429 C173.744,169.38 172.393,169.422 167.5,170.653 C164.2,171.484 160.938,172.887 160.25,173.773 C158.719,175.744 158.635,183.147 160.086,188.37 C160.854,191.136 160.852,192.548 160.08,193.32 C158.847,194.553 158.626,199.296 159.75,200.41 C160.4,201.054 162.999,233.062 162.964,240 C162.913,250.293 162.42,252.923 160.076,255.419 C157.253,258.424 154.567,258.72 152.555,256.25 C151.771,255.287 148.917,251.8 146.213,248.5 C138.428,238.998 137.304,236 141.525,236 C143.26,236 144.331,236.74 144.95,238.369 C145.445,239.671 147.073,241.699 148.567,242.874 C150.757,244.597 151.567,244.774 152.754,243.789 C153.904,242.835 154.063,241.361 153.483,237.034 C153.076,233.99 152.6,229.025 152.425,226 C152.251,222.975 151.66,214.875 151.111,208 C150.563,201.125 149.923,191.288 149.69,186.141 C149.427,180.359 148.806,176.498 148.064,176.04 C146.982,175.371 143.3,176.237 134.5,179.23 C132.85,179.792 129.925,180.471 128,180.74 C121.995,181.579 120.563,184.011 119.605,195 C119.438,196.925 118.808,200.975 118.205,204 C117.603,207.025 116.816,212.313 116.457,215.752 C116.097,219.19 115.397,222.254 114.902,222.561 C114.406,222.867 114,224.126 114,225.359 C114,226.592 113.477,228.123 112.838,228.762 C112.198,229.402 111.574,232.647 111.45,235.974 C111.326,239.302 110.786,242.581 110.25,243.262 C109.714,243.943 108.982,245.732 108.622,247.237 C107.719,251.016 103.564,253.713 101.404,251.921 C100.16,250.888 99.957,249.499 100.461,245.465 C101.092,240.418 101.031,240.261 97.049,236.663 C94.819,234.648 92.591,233 92.098,233 C91.604,233 87.35,229.175 82.643,224.5 C74.784,216.694 73.761,216 70.11,216 C67.014,216 65.994,216.442 65.501,217.998 C65.152,219.097 62.984,221.296 60.683,222.885 C58.382,224.475 54.25,228.075 51.5,230.886 C48.75,233.697 45.768,235.998 44.872,235.999 C43.977,235.999 42.717,236.636 42.072,237.414 C39.853,240.087 32.654,242.73 28.868,242.26 C26.825,242.006 24.94,242.288 24.559,242.904 C23.552,244.534 16.445,244.242 15.01,242.512 C14,241.295 14.115,240.902 15.637,240.36 C16.662,239.995 18.175,239.124 19,238.425 C19.825,237.727 22.381,236.509 24.68,235.719 C31.422,233.402 45.754,223.055 52.631,215.539 C59.347,208.2 60.273,205.752 57,204 C55.9,203.411 55,202.179 55,201.262 C55,198.775 48.946,193 46.338,193 C45.09,193 42.688,194.35 41,196 C39.312,197.65 37.297,199 36.522,199 C35.747,199 34.525,199.817 33.807,200.816 C33.088,201.815 31.713,202.925 30.75,203.284 C29.788,203.643 29,204.618 29,205.45 C29,206.281 27.893,207.24 26.541,207.579 C25.189,207.919 23.552,208.835 22.903,209.617 C22.255,210.398 20.15,211.784 18.225,212.697 C16.301,213.611 13.55,216.052 12.113,218.124 C7.299,225.062 0.843,225.702 0.198,219.305 C-0.059,216.749 0.815,215.461 6.176,210.497 C9.63,207.3 14.941,203.113 17.978,201.194 C21.015,199.274 25.783,195.57 28.573,192.962 C31.364,190.354 35.414,187.312 37.573,186.202 C39.733,185.092 43.525,182.23 46,179.842 C50.988,175.03 52.123,171.799 54.029,157 C54.631,152.325 55.746,145.125 56.506,141 C58.321,131.157 59.804,118.759 60.579,106.964 C61.063,99.608 60.861,96.603 59.698,93.819 C58.684,91.393 58.52,89.88 59.198,89.202 C59.877,88.523 59.846,86.507 59.104,83.047 C57.048,73.461 57.982,69 62.045,69 C65.399,69 67.286,72.803 68.622,82.253 C70.344,94.429 70.302,116.763 68.543,124.971 C67.78,128.531 67.33,131.724 67.542,132.068 C68.302,133.298 65.262,153.138 64.142,154.258 C62.525,155.875 62.64,165 64.277,165 C64.98,165 67.775,163.046 70.489,160.658 L75.424,156.315 L74.023,152.069 C72.109,146.271 73.361,144.432 79.036,144.704 C82.134,144.852 84.072,145.653 86.147,147.641 C88.958,150.334 89.84,153.363 88.121,154.425 C87.638,154.724 86.982,157.563 86.662,160.734 C86.343,163.905 85.787,168.804 85.426,171.62 C85.029,174.722 85.169,176.987 85.783,177.366 C86.339,177.71 90.553,177.27 95.147,176.389 C99.741,175.508 105.3,174.559 107.5,174.281 C112.777,173.614 113.72,172.704 113.764,168.241 C113.784,166.183 114.236,160.9 114.768,156.5 C115.917,146.996 115.574,130.306 114.101,124 C113.522,121.525 113.038,116.489 113.024,112.809 C113.011,109.129 112.602,105.872 112.115,105.571 C111.246,105.034 110.333,101.426 109.567,95.5 C109.354,93.85 108.764,90.925 108.257,89 C106.872,83.75 107.805,78.197 110.199,77.437 C113.51,76.386 117.64,81.23 118.415,87.073 C119.323,93.913 121.738,93.741 126.549,86.492 C128.56,83.462 131.234,80.174 132.492,79.185 C133.75,78.195 134.944,76.527 135.147,75.477 C135.667,72.775 140.068,70.549 143.292,71.358 C148.666,72.707 150.554,76.702 153.048,92 C153.721,96.125 154.707,100.457 155.24,101.626 C155.94,103.163 155.791,104.41 154.702,106.126 C153.533,107.969 153.377,109.773 154.004,114.194 C154.449,117.325 155.073,120.308 155.391,120.823 C155.709,121.339 156.218,130.026 156.522,140.13 C156.826,150.233 157.314,159.287 157.605,160.25 C158.199,162.212 161.937,162.558 166.601,161.083 C168.195,160.578 170.804,159.878 172.399,159.526 L175.297,158.887 L174.491,148.194 C174.048,142.312 173.581,135.925 173.454,134 C173.327,132.075 173.13,130.275 173.017,130 C172.904,129.725 172.667,124.775 172.49,119 C172.204,109.653 170.538,99.565 165.914,79.182 C164.877,74.609 164.927,73.645 166.269,72.302 C168.524,70.047 172.805,71.393 174.147,74.778 C174.74,76.275 175.791,78.625 176.483,80 C177.174,81.375 178.293,86.325 178.969,91 C179.644,95.675 180.828,101.61 181.599,104.188 C183.31,109.912 183.423,119.978 181.815,123.506 C180.842,125.642 180.931,126.613 182.315,128.957 C183.242,130.525 184,133.175 184,134.845 C184,136.515 184.396,138.127 184.88,138.426 C185.364,138.725 185.616,141.789 185.44,145.235 C185.264,148.681 185.349,152.287 185.628,153.25 C186.263,155.442 190.235,155.547 193.425,153.457 C194.72,152.609 198.866,151.344 202.64,150.647 L209.5,149.38 L209.532,138.44 C209.57,125.634 208.446,110.763 206.061,92.5 C203.633,73.915 203.238,70.67 201.826,70.142 C201.498,70.019 201.116,70.043 200.641,70.055 C198.016,70.123 193.583,75.471 194.396,77.589 C194.72,78.435 194.288,80.476 193.436,82.124 C192.206,84.502 191.329,85.058 189.193,84.811 C186.58,84.509 186.508,84.329 186.763,78.71 C187.038,72.632 189.049,68.46 195.413,60.768 Z M135.178,91.196 C134.049,93.013 131.269,96.3 129,98.5 C122.87,104.443 121.738,107.408 123.064,114.039 C123.665,117.043 124.396,121.525 124.689,124 C125.421,130.186 125.25,157.117 124.431,164.75 C123.717,171.398 124.474,172.332 128.764,170.094 C129.719,169.596 133.425,168.429 137,167.501 C141.833,166.246 144.22,165.779 145.376,164.33 C146.631,162.759 146.436,160.031 146.344,153.888 C146.208,144.843 145.487,134.889 142.188,96.5 C141.573,89.351 141.273,88.468 139.365,88.196 C137.851,87.98 136.634,88.851 135.178,91.196 Z M105.724,185.609 C105.389,185.944 101.835,186.408 97.826,186.641 C93.817,186.873 90.101,187.499 89.568,188.032 C89.036,188.564 87.635,189 86.456,189 C84.132,189 76,196.553 76,198.711 C76,199.435 75.478,200.863 74.84,201.885 C73.896,203.396 74.095,204.325 75.908,206.871 C77.134,208.592 78.846,210 79.715,210 C82.482,210 91.338,216.62 96.308,222.404 C101.423,228.358 102.729,229.045 103.622,226.25 C103.93,225.287 104.55,223.6 105,222.5 C106.843,217.998 107.277,216.211 108.035,210 C108.472,206.425 109.381,200.052 110.055,195.838 C110.73,191.623 111.007,187.461 110.672,186.588 C110.075,185.031 106.925,184.408 105.724,185.609 Z M70,172.294 C68.625,172.989 66.926,174.756 66.224,176.22 C65.522,177.684 64.172,179.141 63.224,179.458 C62.276,179.775 60.711,181.622 59.747,183.564 C58.032,187.017 58.045,187.186 60.326,191.297 C64.842,199.437 67.962,196.608 72.121,180.601 C74.811,170.245 74.724,169.904 70,172.294 Z"/>
</svg>

