<svg xmlns="http://www.w3.org/2000/svg" width="300" height="300" viewBox="0 0 300 300" version="1.1">
  <defs/>
  <path d="M134.837,15.75 C137.856,12.477 139.324,12.324 142,15 C145.098,18.098 144.448,20.821 138.414,30.001 C135.341,34.675 131.776,40.553 130.492,43.063 C129.207,45.572 127.446,48.215 126.578,48.935 C125.71,49.656 125,51.002 125,51.928 C125,52.854 123.875,55.136 122.5,57 C121.125,58.864 120,61.167 120,62.118 C120,63.069 118.875,65.184 117.5,66.818 C116.125,68.452 115,70.402 115,71.152 C115,71.901 112.638,75.314 109.75,78.735 C102.421,87.419 100.699,89.788 97.561,95.5 C96.051,98.25 93.691,101.692 92.318,103.148 C89.963,105.646 89.911,105.934 91.401,108.209 C93.399,111.258 99.976,115 103.336,115 C104.747,115 106.317,114.255 106.827,113.346 C108.509,110.339 111,112.52 111,117 C111,119.997 111.459,121.205 112.75,121.604 C116.623,122.8 117.547,123.929 118.624,128.778 C119.508,132.754 119.454,134.974 118.374,139.137 C117.619,142.051 117,145.436 117,146.659 C117,147.882 116.55,149.16 116,149.5 C115.45,149.84 115,150.998 115,152.073 C115,153.148 114.616,154.809 114.147,155.764 C108.613,167.032 108.753,167.502 117.38,166.561 C120.746,166.194 125.132,165.644 127.126,165.339 L130.753,164.784 L130.626,159.307 C130.521,154.748 130.877,153.524 132.746,152.007 C134.032,150.965 135.857,150.411 137.015,150.714 C139.499,151.364 142.677,155.663 143.149,159.013 C143.457,161.192 144.057,161.534 148,161.771 C150.475,161.92 157,161.101 162.5,159.952 C168,158.802 176.325,157.433 181,156.909 C185.675,156.385 192.425,155.47 196,154.877 C199.575,154.283 203.947,153.571 205.715,153.293 C207.483,153.016 209.451,152.162 210.087,151.395 C210.746,150.601 213.082,150 215.507,150 C218.934,150 220.087,150.483 221.385,152.465 C223.57,155.8 223.422,157.398 220.627,160.648 C218.503,163.117 217.53,163.426 211.377,163.591 C201.401,163.858 188.659,165.147 187.5,166.006 C186.95,166.414 182.699,167.068 178.053,167.46 C168.649,168.252 156.907,170.324 152.655,171.941 C151.123,172.523 148.549,173 146.935,173 C144.368,173 144,173.361 144,175.878 C144,177.46 143.325,179.315 142.5,180 C141.675,180.685 141,182.209 141,183.387 C141,184.566 140.08,187.247 138.955,189.345 C137.83,191.444 136.643,196.019 136.317,199.511 L135.724,205.861 L139.112,207.927 C140.975,209.063 143.047,209.994 143.715,209.996 C144.384,209.998 147.059,211.35 149.661,213 C152.263,214.65 155.026,216 155.801,216 C156.577,216 158.548,217.125 160.182,218.5 C161.881,219.929 164.416,221 166.101,221 C168.278,221 169.284,221.617 169.946,223.357 C170.438,224.653 173.015,227.311 175.671,229.263 C184.833,235.999 186.524,240.388 182.409,246.75 C180.365,249.911 179.408,249.596 176.323,244.75 C172.897,239.367 167.96,234 166.434,234 C165.789,234 163.001,232.2 160.237,230 C157.474,227.8 154.731,226 154.142,226 C153.552,226 150.941,224.65 148.339,223 C145.737,221.35 143.134,219.986 142.554,219.969 C141.974,219.952 139.25,218.831 136.5,217.478 C133.75,216.125 130.974,215.014 130.332,215.009 C129.69,215.004 127.215,217.306 124.832,220.124 C116.668,229.781 107.819,238.5 104.66,240.001 C102.922,240.827 101.066,242.49 100.536,243.696 C100.006,244.903 98.431,246.473 97.036,247.186 C95.641,247.898 92.25,249.88 89.5,251.589 C81.653,256.468 63.111,258.22 58.972,254.475 C56.222,251.986 57.394,251 63.101,251 C68.327,251 79.533,246.583 83.5,242.96 C84.6,241.955 86.625,240.642 88,240.041 C89.375,239.44 92.075,237.805 94,236.408 C98.57,233.09 113.654,218.457 115.659,215.398 C117.638,212.378 116.76,210 113.666,210 C112.348,210 110.197,209.193 108.885,208.206 C107.573,207.22 104.348,205.307 101.719,203.956 C92.525,199.233 91.487,197.934 91.604,191.298 C91.662,188.061 92.266,184.372 92.947,183.099 C94.506,180.187 93.081,178.383 90.368,179.836 C89.341,180.387 85.125,181.376 81,182.035 C76.875,182.694 72.94,183.683 72.256,184.234 C71.571,184.785 69.785,185.001 68.285,184.714 C66.785,184.427 63.97,184.791 62.029,185.521 C60.088,186.252 55.029,187.04 50.786,187.272 C46.544,187.505 42.395,188.257 41.568,188.944 C40.74,189.63 38.137,190.755 35.782,191.443 C32.857,192.297 31.087,193.534 30.195,195.346 C29.478,196.806 28.277,198 27.527,198 C26.212,198 21.998,192.188 22.002,190.382 C22.006,189.032 27.235,183.38 29.606,182.164 C31.961,180.956 50.579,176.938 56,176.467 C57.925,176.3 62.2,175.488 65.5,174.662 C68.8,173.837 74.65,172.677 78.5,172.085 C96.725,169.282 98.96,168.644 100.421,165.821 C101.184,164.347 102.281,161.197 102.859,158.821 C103.437,156.444 105.111,149.915 106.579,144.311 C108.047,138.707 108.98,133.056 108.653,131.753 C108.021,129.234 100.242,125 96.248,125 C95.072,125 93.245,123.748 92.125,122.175 C89.771,118.87 83.227,116.572 78.884,117.526 C75.609,118.245 71,115.941 71,113.585 C71,112.832 73.591,109.804 76.757,106.858 C82.027,101.953 85.936,96.895 93.156,85.64 C94.617,83.363 96.507,80.809 97.355,79.964 C99.218,78.11 104,71.156 104,70.3 C104,69.964 105.125,68.214 106.5,66.411 C107.875,64.608 109,62.709 109,62.189 C109,61.67 109.601,60.746 110.335,60.137 C111.07,59.527 112.263,57.234 112.987,55.04 C113.711,52.847 115.028,50.253 115.915,49.276 C116.801,48.299 118.403,45.475 119.474,43 C120.545,40.525 122.428,37.138 123.658,35.474 C124.888,33.81 127.336,29.31 129.097,25.474 C130.858,21.638 133.441,17.262 134.837,15.75 Z M144.904,71.665 C146.528,70.657 147.362,70.133 148.15,70.195 C148.997,70.261 149.791,71.004 151.456,72.547 C154.992,75.824 154.528,78.655 148.445,90.896 C144.284,99.27 143.669,100.012 140.099,100.973 C137.275,101.734 135.832,102.863 134.702,105.196 C133.256,108.182 132.781,108.403 127.14,108.718 C121.385,109.04 120.965,108.898 117.561,105.494 C115.602,103.536 114,101.083 114,100.043 C114,99.004 112.859,96.798 111.465,95.141 C108.638,91.781 108.828,88.371 112.002,85.499 C115.916,81.956 122.675,86.153 122.927,92.281 C123.039,95.001 124.988,95.204 131.003,93.123 C135.774,91.472 136.851,90.588 139.158,86.432 C141.205,82.743 141.61,81.103 140.92,79.289 C139.853,76.483 141.155,73.992 144.904,71.665 Z M120.5,175.171 C118.85,175.724 115.048,176.965 112.052,177.929 C109.055,178.893 106.307,180.315 105.944,181.091 C105.581,181.866 104.506,183.986 103.555,185.802 C101.722,189.301 102.044,192 104.294,192 C105.041,192 106.73,193.148 108.049,194.552 C110.814,197.495 118.175,201 121.592,201 C124.171,201 126,198.413 126,194.766 C126,193.465 126.504,191.896 127.12,191.28 C128.432,189.968 130.127,182.993 130.346,178 C130.493,174.666 130.334,174.492 127,174.333 C125.075,174.24 122.15,174.618 120.5,175.171 Z"/>
</svg>

