<svg xmlns="http://www.w3.org/2000/svg" width="300" height="300" viewBox="0 0 300 300" version="1.1">
  <defs/>
  <path d="M64.444,43.259 C70.071,38.941 79.957,41.326 82.957,47.725 C83.673,49.251 84.433,55.145 84.646,60.821 C84.989,69.943 84.8,71.472 83.017,73.976 C81.908,75.534 81,77.962 81,79.37 C81,82.473 78.304,88.676 75.621,91.746 C73.891,93.727 73.817,94.289 74.999,96.498 C76.179,98.702 76.07,99.581 74.097,103.793 C71.782,108.735 71.484,116.013 73.568,116.696 C74.156,116.888 76.582,115.573 78.959,113.773 C81.336,111.973 84.484,109.825 85.956,109 C91.265,106.023 95.156,102.721 96.015,100.461 C96.73,98.579 97.903,98.031 102.429,97.466 C109.454,96.588 111,97.198 111,100.846 C111,105.826 108.288,111 105.678,111 C104.415,111 102.509,111.661 101.441,112.468 C100.374,113.276 98.68,113.951 97.678,113.968 C95.311,114.01 88.156,118.223 80,124.377 L73.5,129.282 L72.907,135.802 C72.48,140.498 72.72,143.136 73.765,145.231 C75.102,147.91 75.05,148.318 73.108,150.385 C70.539,153.12 70.355,158.139 72.75,160.186 C76.059,163.014 90.156,170 92.554,170 C93.994,170 95.593,170.975 96.55,172.437 C97.429,173.777 99.57,175.186 101.309,175.568 C103.048,175.95 105.504,176.94 106.768,177.768 C108.031,178.595 110.963,179.257 113.283,179.237 C121.874,179.163 124.316,184.787 117.517,188.989 C113.402,191.533 110.795,191.536 108.5,189 C107.505,187.9 105.47,187 103.98,187 C102.489,187 100.126,186.1 98.727,185 C97.329,183.9 94.97,183 93.486,183 C92.002,183 89.148,181.708 87.144,180.129 C82.387,176.381 73.102,171.565 72.258,172.409 C71.895,172.772 71.47,180.816 71.315,190.285 C71.16,199.753 70.854,209.975 70.636,213 C70.405,216.196 70.793,219.855 71.562,221.734 C72.584,224.233 72.642,226.164 71.818,230.234 C71.232,233.13 70.654,237.75 70.533,240.5 C70.412,243.25 70.243,246.726 70.156,248.224 C69.943,251.944 64.857,254.711 61.253,253.069 L58.782,251.944 L59.514,239.722 C59.916,233 60.622,226.507 61.082,225.293 C62.563,221.383 63.148,207.883 61.901,206.38 C61.04,205.343 61.057,204.277 61.971,202.071 C62.736,200.223 62.97,196.804 62.604,192.82 C61.874,184.877 61.844,183.895 62.098,176.203 C62.212,172.74 61.835,169.435 61.26,168.86 C59.622,167.222 56,169.655 56,172.394 C56,173.904 53.911,176.794 50.04,180.641 C46.762,183.899 43.424,188.134 42.623,190.053 C41.821,191.971 40.253,194.366 39.139,195.374 C38.025,196.382 36.829,198.502 36.481,200.085 C36.129,201.687 33.955,204.633 31.575,206.731 C29.225,208.804 26.549,211.958 25.63,213.741 C24.711,215.523 22.73,217.763 21.229,218.717 C19.728,219.672 18.275,220.728 18,221.063 C17.725,221.399 15.433,222.873 12.907,224.339 C8.561,226.863 8.233,226.912 6.79,225.253 C5.952,224.289 4.983,221.635 4.638,219.355 C3.981,215.018 4.804,214 8.969,214 C11.381,214 26.326,197.261 29.504,191 C30.481,189.075 32.381,186.15 33.726,184.5 C40.968,175.617 47.262,167.265 48.045,165.5 C48.533,164.4 50.717,161.025 52.898,158 C57.849,151.135 62.272,142.15 61.583,140.357 C60.788,138.284 58.6,138.732 56,141.5 C54.708,142.875 52.908,144 52,144 C51.092,144 49.292,145.125 48,146.5 C46.708,147.875 44.942,149.013 44.076,149.028 C43.209,149.043 40.732,150.393 38.572,152.028 C36.411,153.663 33.711,155.007 32.572,155.016 C31.432,155.024 28.475,156.817 26,159 C23.317,161.367 20.48,162.975 18.973,162.984 C17.582,162.993 15.557,163.61 14.473,164.356 C13.388,165.102 9.688,165.959 6.25,166.261 L0,166.81 L0,161.405 C0,156.257 0.123,156 2.588,156 C4.011,156 8.758,154.425 13.136,152.5 C17.515,150.575 21.758,149 22.565,149 C24.546,149 46.738,137.3 50.5,134.273 C52.15,132.945 55.033,130.878 56.906,129.679 C61.435,126.782 62.803,124.523 61.406,122.253 C60.812,121.289 60.253,118.513 60.164,116.084 C60.074,113.655 59.793,111.46 59.539,111.206 C59.285,110.951 56.97,111.274 54.396,111.922 C49.928,113.047 49.588,112.979 46.936,110.438 C44.959,108.545 43.963,106.366 43.485,102.889 C43.115,100.201 42.405,97.75 41.906,97.442 C41.408,97.134 41,94.353 41,91.262 C41,86.013 40.377,82.953 37.79,75.5 C37.218,73.85 36.528,71.008 36.258,69.184 C35.96,67.175 34.433,64.574 32.383,62.583 C27.078,57.432 28.382,50.458 34.517,51.164 C37.758,51.537 42,56.773 42,60.401 C42,61.559 43.575,65.754 45.5,69.722 C47.425,73.69 49,77.401 49,77.968 C49,79.749 50.992,79.099 53.635,76.456 C55.136,74.955 55.938,73.281 55.59,72.374 C55.265,71.528 55,70.031 55,69.046 C55,67.73 53.939,67.086 51,66.616 C47.204,66.009 47,65.795 47,62.422 C47,57.864 48.362,55.381 51.854,53.575 C53.392,52.78 56.191,50.642 58.075,48.824 C59.959,47.006 62.825,44.502 64.444,43.259 Z M155.862,124.75 C157.789,122.421 159.497,122.544 161.961,125.189 C164.144,127.532 164.631,130.492 163,131.5 C162.45,131.84 162,133.415 162,135 C162,136.585 161.55,138.16 161,138.5 C159.535,139.405 159.78,140.978 161.488,141.634 C162.322,141.954 165.18,140.621 167.99,138.602 C170.748,136.621 174.061,135 175.353,135 C176.645,135 179.149,134.495 180.919,133.878 C183.819,132.867 184.406,133.015 186.873,135.378 C188.378,136.82 190.136,138 190.779,138 C191.422,138 192.689,139.463 193.595,141.25 C194.5,143.037 195.905,145.258 196.717,146.185 C197.783,147.403 198.052,149.346 197.686,153.185 C196.822,162.256 195.955,166.416 194.45,168.715 C193.652,169.933 193,171.627 193,172.478 C193,174.276 191.655,177.066 186.54,185.876 C185.143,188.283 184,191.26 184,192.491 C184,193.723 183.1,195.874 182,197.273 C180.9,198.671 180,200.927 180,202.285 C180,203.644 179.342,205.301 178.539,205.968 C177.735,206.635 176.783,208.152 176.423,209.34 C176.063,210.528 174.782,212.85 173.576,214.5 C172.37,216.15 170.652,219.075 169.758,221 C168.864,222.925 167.202,225.494 166.066,226.708 C164.93,227.923 164,229.106 164,229.337 C164,230.639 156.735,241.491 152.705,246.208 C150.117,249.237 148,252.16 148,252.703 C148,253.246 147.165,254.445 146.145,255.369 C145.125,256.292 143.222,259.174 141.916,261.774 C138.469,268.638 132.109,275.905 127.505,278.241 C125.302,279.359 122.228,281.337 120.673,282.637 C117.245,285.503 111.98,285.739 107.011,283.248 C103.986,281.733 103.361,280.768 102.312,276 C100.644,268.413 101.962,267.565 107.292,272.796 C109.648,275.108 112.234,276.997 113.038,276.993 C115.535,276.982 119.908,273.522 123.249,268.914 C125.009,266.486 127.202,263.944 128.123,263.265 C129.043,262.585 132.306,258.257 135.374,253.646 C138.442,249.035 142.313,243.806 143.976,242.026 C145.639,240.245 147,238.078 147,237.209 C147,236.34 147.852,234.7 148.894,233.564 C150.772,231.517 158.26,217.52 160.847,211.22 C162.439,207.345 161.168,205 157.476,205 C155.929,205 154.53,203.869 153.12,201.479 C151.977,199.542 149.446,197.016 147.495,195.865 C145.544,194.714 143.494,192.923 142.939,191.886 C141.732,189.632 138.447,189.392 137.638,191.5 C137.322,192.325 136.399,193 135.588,193 C134.777,193 133.498,193.879 132.745,194.953 C129.933,198.969 122.719,200.212 120.989,196.98 C120.061,195.246 120.339,194.715 122.948,193.23 C124.62,192.278 125.99,190.905 125.994,190.177 C125.997,189.449 127.805,187.233 130.011,185.253 C133.9,181.762 134.003,181.505 133.385,176.843 C133.057,174.367 132.879,173.102 133.411,172.32 C133.976,171.49 135.339,171.202 138.166,170.586 C140.228,170.136 141.529,168.571 143.916,163.673 C145.612,160.191 147,156.005 147,154.371 C147,152.737 147.368,150.973 147.817,150.45 C148.702,149.423 150.567,141.928 151.539,135.5 C152.213,131.043 153.686,127.379 155.862,124.75 Z M128.37,24.478 C129.177,22.376 132.649,22.649 135,25 C136.1,26.1 137.013,27.337 137.029,27.75 C137.404,37.414 137.109,63.082 136.604,64.672 C136.209,65.917 136.394,67.125 137.041,67.525 C138.254,68.275 144,63.327 144,61.532 C144,60.93 146.634,57.831 149.853,54.646 C155.406,49.151 155.894,48.889 159.389,49.545 C162.34,50.099 163.353,50.909 164.487,53.622 C166.303,57.97 166.717,66.683 165.18,68.22 C164.531,68.869 164,70.408 164,71.641 C164,72.874 163.536,74.169 162.969,74.519 C162.377,74.885 162.207,76.585 162.57,78.519 C163.053,81.095 162.475,83.417 160.1,88.444 C158.395,92.053 157,95.238 157,95.523 C157,95.807 155.958,97.718 154.685,99.77 C153.411,101.821 151.323,106.116 150.043,109.313 L147.717,115.126 L149.891,118.067 C152.694,121.858 151.424,124.736 146.749,125.187 C144.263,125.426 143.425,126.027 143.182,127.741 C143.006,128.974 142.055,130.549 141.067,131.241 C140.079,131.934 138.223,134.975 136.942,138 C135.662,141.025 133.576,144.491 132.307,145.702 C131.038,146.913 130,148.428 130,149.068 C130,150.262 124.333,158.362 120.419,162.763 C119.213,164.118 117.501,166.076 116.614,167.114 C114.354,169.755 108.648,169.612 106.074,166.849 C103.655,164.253 103.772,164.039 111.706,156.594 C115.168,153.346 118,149.92 118,148.98 C118,148.041 119.238,146.042 120.75,144.539 C123.552,141.753 124.823,139.651 129.476,130.105 C132.657,123.578 132.594,118.656 129.323,118.19 C128.125,118.019 126.607,117.232 125.95,116.44 C125.293,115.648 123.348,114.993 121.628,114.985 C116.456,114.959 115.595,113.721 115.885,106.718 C116.058,102.533 119.615,101.553 123.646,104.581 C125.376,105.88 128.526,107.354 130.646,107.856 C132.766,108.358 135.175,109.03 136,109.35 C137.058,109.76 138.168,108.542 139.767,105.215 C141.014,102.622 142.027,99.922 142.017,99.215 C142.008,98.508 143.8,94.532 146,90.38 C148.2,86.227 150,82.165 150,81.353 C150,80.54 150.736,77.625 151.636,74.874 C153.69,68.593 152.423,66.588 148.638,70.133 C145.719,72.866 139.222,85.564 138.325,90.288 C136.779,98.423 133.22,100.944 128.223,97.443 C126.515,96.247 126,94.896 126,91.61 C126,89.258 126.301,87.032 126.67,86.664 C127.681,85.652 127.978,77.64 127.863,54.5 C127.722,26.215 127.723,26.164 128.37,24.478 Z M173.647,147.464 C168.285,150.054 159,158.388 159,160.611 C159,161.39 158.578,162.809 158.063,163.764 C157.547,164.719 156.248,167.525 155.177,170 C151.505,178.476 151.013,179.503 149.812,181.172 C148.788,182.595 149.382,183.537 153.814,187.523 C158.475,191.713 165.517,197 166.439,197 C167.43,197 173,191.024 173,189.96 C173,189.279 174.8,184.969 177,180.381 C179.2,175.794 181,171.575 181,171.006 C181,170.438 181.45,169.079 182,167.986 C182.55,166.894 183.45,165.106 184,164.014 C185.256,161.518 185.308,153.717 184.077,152.45 C183.569,151.928 183.007,150.15 182.827,148.5 C182.405,144.633 180.056,144.368 173.647,147.464 Z M68.75,53.724 C66.072,54.122 66,54.304 66,60.675 L66,67.217 L68.74,66.529 C70.247,66.151 71.815,65.315 72.225,64.671 C73.287,63.004 74.247,57.518 73.843,55.433 C73.453,53.423 72.631,53.147 68.75,53.724 Z M52.082,91.846 C51.265,93.373 51.44,94.322 52.859,96.074 C55.488,99.321 58.227,98.04 57.814,93.757 C57.435,89.824 53.811,88.616 52.082,91.846 Z"/>
</svg>

