<svg xmlns="http://www.w3.org/2000/svg" width="300" height="300" viewBox="0 0 300 300" version="1.1">
  <defs/>
  <path d="M162.655,81.829 C165.963,78.174 169.257,79.995 171.763,86.866 C173.876,92.656 174.196,113.752 172.396,128.5 C171.523,135.65 170.457,142.193 170.027,143.04 C169.597,143.887 168.914,148.837 168.509,154.04 C168.104,159.243 167.404,164.2 166.955,165.055 C166.506,165.911 166.397,168.54 166.713,170.897 L167.288,175.184 L171.894,174.535 C179.026,173.53 179.956,173.062 180.541,170.183 C181.628,164.838 183.42,162.5 186.429,162.5 C189.203,162.5 190.226,163.495 191.446,167.379 C191.936,168.938 192.672,169.152 195.768,168.634 C201.809,167.622 208.185,166.339 213,165.167 C215.475,164.564 220.759,163.565 224.742,162.946 C229.259,162.244 233.321,160.914 235.537,159.411 C239.814,156.508 241.074,156.429 244.096,158.876 C246.166,160.553 246.311,161.167 245.457,164.626 C244.717,167.621 243.952,168.577 242.086,168.841 C240.758,169.029 237.955,170.266 235.856,171.591 C233.224,173.253 230.56,174.006 227.27,174.021 C217.646,174.063 199.532,176.761 196.256,178.639 C193.557,180.188 193.012,181.097 193.006,184.059 C193.003,186.016 192.339,188.491 191.532,189.559 C190.724,190.626 190.049,192.486 190.032,193.691 C190.014,194.896 189.55,196.16 189,196.5 C188.45,196.84 188,198.149 188,199.41 C188,200.671 186.889,203.793 185.53,206.348 C184.172,208.902 183.31,211.645 183.616,212.441 C183.921,213.237 186.495,215.672 189.336,217.85 C195.346,222.46 209.374,236.255 213,241.121 C214.375,242.967 217.225,246.372 219.333,248.69 C222.103,251.735 222.991,253.454 222.535,254.889 C222.189,255.981 222.462,257.767 223.142,258.856 C224.134,260.444 224.119,261.152 223.067,262.419 C220.216,265.855 214,262.987 214,258.236 C214,256.521 211.739,253.498 206.5,248.208 C202.375,244.043 199,240.017 199,239.261 C199,237.514 194.064,232.906 186.96,228.02 C183.913,225.925 180.82,223.488 180.087,222.605 C177.948,220.027 175.208,220.698 173.371,224.25 C170,230.769 162.501,240 160.576,240 C159.97,240 159.03,240.995 158.487,242.211 C157.944,243.427 155.025,246.361 152,248.73 C148.975,251.099 144.209,255.274 141.408,258.006 C138.608,260.739 134.585,264.149 132.47,265.585 C128.871,268.027 128.361,268.114 124.561,266.924 C122.328,266.225 120.127,265.335 119.671,264.947 C119.214,264.559 122.364,262.054 126.671,259.382 C133.982,254.844 157,233.342 157,231.05 C157,230.551 157.572,229.548 158.271,228.821 C161.183,225.792 167,217.128 167,215.819 C167,215.042 165.204,212.652 163.009,210.509 C160.626,208.181 158.771,205.294 158.404,203.341 C158.067,201.543 157.163,199.55 156.395,198.913 C155.59,198.245 155,195.903 155,193.378 C155,190.546 154.559,188.998 153.75,188.993 C152.114,188.984 135.682,192.557 125.383,195.161 C116.22,197.477 113.511,196.882 112.361,192.302 C111.459,188.71 114.479,186.392 121.244,185.484 C124.135,185.096 127.984,184.167 129.798,183.42 C131.613,182.673 137.013,181.565 141.798,180.958 C146.584,180.351 151.542,179.646 152.816,179.392 C156.312,178.693 158.28,172.956 159.125,161 C159.533,155.225 160.571,146.675 161.431,142 C162.291,137.325 163.24,127.875 163.54,121 C163.841,114.125 164.245,108.024 164.438,107.442 C165.083,105.501 163.002,88.602 161.993,87.593 C160.527,86.127 160.783,83.897 162.655,81.829 Z M92.339,76.56 C93.117,74.532 96.388,74.557 98.086,76.604 C99.579,78.403 100.465,83.784 102.265,102 C104.059,120.152 103.268,217.869 101.285,223 C100.967,223.825 100.589,227.65 100.447,231.5 C99.876,246.907 98.001,252.43 93.555,251.794 C91.669,251.524 91.527,250.927 91.829,244.536 C92.011,240.705 92.57,236.804 93.072,235.866 C93.573,234.929 93.928,225.687 93.86,215.331 C93.791,204.974 94.072,193.463 94.484,189.75 C95.026,184.866 94.912,183 94.073,183 C93.435,183 90.474,185.588 87.493,188.75 C82.137,194.432 82.072,194.574 82.036,200.764 C82.016,204.209 81.587,207.809 81.083,208.764 C80.579,209.719 79.405,213.2 78.474,216.5 C75.596,226.706 74.225,230.504 71.058,237.042 C69.376,240.514 68,243.736 68,244.202 C68,244.668 66.16,247.963 63.91,251.525 C60.751,256.526 59.28,258 57.446,258 C52.621,258 52.781,254.971 58.028,246.955 C60.712,242.855 62.929,238.739 62.954,237.809 C62.979,236.879 63.396,235.873 63.88,235.574 C64.364,235.275 65.506,232.661 66.419,229.765 C67.331,226.869 68.454,223.6 68.915,222.5 C69.946,220.041 72,209.179 72,206.19 C72,203.264 69.307,203.35 66.055,206.38 C62.937,209.285 52.149,214.995 49.773,214.998 C48.823,214.999 47.308,213.873 46.405,212.495 C44.353,209.364 45.709,207.333 50.444,206.445 C52.228,206.11 56.017,204.073 58.864,201.918 C61.711,199.763 64.211,198 64.42,198 C65.099,198 71.873,190.948 75.061,186.923 C76.77,184.765 79.04,183 80.106,183 C81.172,183 83.948,181.246 86.273,179.102 C88.599,176.958 91.627,175.046 93.001,174.852 L95.5,174.5 L95.5,147.5 L92.5,147.712 C90.448,147.858 88.296,149.209 85.69,151.988 C80.237,157.803 74.599,161.325 72.04,160.513 C67.889,159.195 67.252,156.421 66.708,137.293 C66.272,121.95 66.425,118.892 67.679,117.851 C68.745,116.967 69.64,116.913 70.834,117.661 C72.537,118.729 73.09,121.853 74.575,138.784 C74.975,143.341 75.695,147.311 76.174,147.608 C76.654,147.904 79.223,146.325 81.883,144.098 C84.542,141.872 88.869,139.128 91.497,138.001 L96.276,135.953 L95.56,119.958 C95.165,111.161 94.403,101.16 93.865,97.732 C92.389,88.319 91.667,78.31 92.339,76.56 Z M176.5,182.319 C175.4,183.076 172.955,183.995 171.066,184.36 C165.965,185.346 164,187.605 164,192.485 C164,195.943 164.683,197.42 167.971,201.08 C171.103,204.566 172.278,205.289 173.531,204.5 C176.473,202.648 181.982,189.836 182.345,184 C182.53,181.021 179.605,180.179 176.5,182.319 Z"/>
</svg>

