<svg xmlns="http://www.w3.org/2000/svg" width="300" height="300" viewBox="0 0 300 300" version="1.1">
  <defs/>
  <path d="M59.13,81.343 C60.621,79.547 61.908,79.996 64.248,83.13 C65.908,85.353 66.111,87.533 66.06,102.567 C66.029,111.88 65.563,121.3 65.025,123.5 C64.488,125.7 64.037,129.194 64.024,131.264 C64.011,133.334 63.587,135.809 63.083,136.764 C61.463,139.831 58.478,163 59.703,163 C60.037,163 61.786,161.875 63.589,160.5 C65.392,159.125 67.099,158 67.383,158 C67.667,158 69.943,156.621 72.441,154.935 C74.938,153.25 77.436,152.151 77.991,152.494 C79.781,153.601 79.066,157.768 76.58,160.722 C74.845,162.784 74.019,165.227 73.662,169.35 C73.388,172.513 72.405,176.259 71.478,177.674 C70.135,179.724 70.016,180.741 70.896,182.671 C72.506,186.204 72.317,186.785 69,188.5 C67.35,189.353 66,190.755 66,191.615 C66,192.476 65.1,193.927 64.001,194.84 C62.2,196.335 60,204.106 60,208.97 C60,210.032 62.235,211.819 65.979,213.75 C74.068,217.922 87.986,228.095 90.75,231.857 C93.359,235.407 93.574,237.279 91.564,238.947 C90.026,240.224 87.062,239.192 84,236.313 C79.184,231.786 58.312,220 55.111,220 C54.498,220 52.38,222.25 50.405,225 C48.429,227.75 46.222,230 45.501,230 C44.78,230 42.997,232.035 41.54,234.522 C40.082,237.01 37.152,240.141 35.029,241.482 C32.905,242.822 30.895,244.361 30.561,244.902 C29.682,246.324 21.038,247.438 19.879,246.279 C19.251,245.651 20.197,244.324 22.557,242.524 C28.096,238.3 34.357,231.749 35.704,228.77 C36.366,227.306 38.439,224.396 40.31,222.304 C46.106,215.822 46.512,214.397 43.556,210.884 C42.15,209.214 41,207.239 41,206.496 C41,202.647 43.275,189.372 44.075,188.55 C47.696,184.83 40.944,185.25 36.839,189 C35.032,190.65 33.067,192 32.471,192 C31.876,192 29.839,193.149 27.944,194.554 C24.108,197.398 16.506,201 14.338,201 C13.563,201 11.933,201.65 10.715,202.444 C9.497,203.238 6.565,204.32 4.201,204.849 L-0.098,205.809 L0.201,200.655 L0.5,195.5 L5.241,194.33 C7.849,193.686 11.899,192.024 14.241,190.637 C16.584,189.249 21.2,186.743 24.5,185.068 C27.8,183.392 31.663,181.229 33.084,180.261 C34.505,179.292 38.182,177.015 41.254,175.2 C47.169,171.705 48.52,169.532 50.076,161 C50.528,158.525 51.392,154.025 51.997,151 C54.381,139.082 56.19,128.244 56.671,123 C56.949,119.975 57.508,117.151 57.915,116.723 C58.321,116.296 58.425,110.896 58.146,104.723 C57.461,89.544 57.735,83.024 59.13,81.343 Z M144.571,114.571 C145.789,113.354 148.38,113 156.085,113 C161.553,113 166.809,113.413 167.764,113.919 C169.441,114.806 183.832,117.806 191,118.762 C197.533,119.634 200.69,125.287 195.387,126.618 C193.056,127.203 176.683,125.835 168.324,124.356 L165.147,123.795 L164.663,132.647 C164.04,144.033 162.765,151.149 160.121,157.986 C158.955,161.003 157.978,164.378 157.952,165.486 C157.926,166.594 157.046,169.075 155.998,171 C154.949,172.925 153.214,176.349 152.142,178.609 C151.07,180.869 148.124,186.125 145.596,190.289 C143.068,194.453 141,198.493 141,199.266 C141,200.04 138.985,203.784 136.521,207.586 C134.058,211.389 132.033,214.83 132.021,215.232 C132.01,215.635 130.28,218.785 128.177,222.232 C126.074,225.68 122.912,231.137 121.151,234.359 C119.389,237.582 115.545,243.432 112.609,247.359 C109.673,251.287 104.172,259.166 100.385,264.869 C89.361,281.471 88.481,282.718 84.902,286.819 C83.031,288.963 79.774,292.806 77.663,295.359 L73.827,300 L58.744,300 L61.221,296.788 C62.583,295.021 65.116,293.208 66.849,292.759 C68.582,292.31 70.003,291.618 70.007,291.221 C70.011,290.825 74.294,285.1 79.525,278.5 C87.979,267.832 95.939,256.354 113.503,229.5 C116.381,225.1 120.664,217.9 123.02,213.5 C129.396,201.596 129.337,201.694 131.591,199 C132.741,197.625 135.188,193.006 137.028,188.736 C138.868,184.465 141.19,180.233 142.187,179.331 C143.184,178.428 144,177.069 144,176.31 C144,175.551 144.787,173.728 145.749,172.26 C147.756,169.197 149.963,163.264 149.985,160.872 C149.993,159.977 150.626,158.725 151.391,158.09 C152.156,157.455 153.016,155.713 153.301,154.218 C153.586,152.723 154.76,147.269 155.91,142.098 C158.427,130.774 158.618,123.758 156.457,121.965 C155.609,121.261 152.797,120.717 150.207,120.756 C143.465,120.859 140.995,118.148 144.571,114.571 Z M124.667,78.667 C127.349,75.984 132,80.332 132,85.523 C132,87.215 132.401,89.028 132.891,89.55 C133.381,90.073 134.081,93.425 134.447,97 C136.041,112.607 134.228,126.793 129.622,134.743 C124.774,143.111 117.851,143.345 122.044,135 C123.011,133.075 124.336,129.786 124.987,127.692 C126.432,123.047 126.438,91.687 124.995,88.991 C123.875,86.897 123.645,79.688 124.667,78.667 Z M55.855,178.255 C53.685,180.097 53.104,181.63 52.616,186.796 C52.289,190.259 51.566,193.942 51.011,194.98 C49.419,197.955 49.731,204 51.477,204 C53.02,204 57,196.803 57,194.012 C57,193.125 57.518,191.882 58.151,191.249 C58.784,190.616 59.66,188.163 60.097,185.799 C60.535,183.434 61.194,180.262 61.563,178.75 C62.113,176.492 61.899,176.001 60.367,176.005 C59.34,176.008 57.31,177.02 55.855,178.255 Z M98.733,129.743 C101.204,127.013 104.226,127.987 106.5,132.247 C107.6,134.308 109.063,135.996 109.75,135.997 C111.729,136.002 111.203,139.821 109.066,140.965 C105.902,142.658 103.526,142.164 100.823,139.25 C97.408,135.569 96.636,132.06 98.733,129.743 Z"/>
</svg>

