<svg xmlns="http://www.w3.org/2000/svg" width="300" height="300" viewBox="0 0 300 300" version="1.1">
  <defs/>
  <path d="M82.552,76.538 C84.952,73.949 85.214,73.884 86.94,75.445 C90.481,78.65 91.145,99.545 88.45,122.982 C87.597,130.397 87.132,137.389 87.416,138.52 C87.7,139.651 87.272,142.768 86.466,145.447 C84.734,151.202 84.522,159 86.098,159 C86.702,159 89.341,156.679 91.963,153.841 C96.902,148.498 100,147.781 100,151.982 C100,153.107 100.408,154.809 100.906,155.764 C101.404,156.719 102.581,160.246 103.52,163.603 C104.819,168.246 104.965,170.197 104.13,171.758 C103.526,172.886 102.733,177.115 102.369,181.155 C102.004,185.195 101.097,189.388 100.353,190.473 C99.609,191.557 99,193.37 99,194.5 C99,195.631 98.1,197.326 97,198.268 C94.098,200.753 94.541,203.541 98.25,206.146 C100.037,207.401 101.65,208.782 101.833,209.214 C102.017,209.646 102.649,210 103.239,210 C103.829,210 105.786,211.125 107.589,212.5 C109.392,213.875 111.118,215 111.425,215 C112.456,215 121.48,222.24 122.804,224.13 C123.524,225.158 124.53,226 125.04,226 C126.122,226 131,216.724 131,214.667 C131,213.897 131.945,210.844 133.101,207.883 C134.256,204.923 135.885,200.7 136.721,198.5 C137.556,196.3 138.711,193.488 139.288,192.252 C139.865,191.015 140.035,189.701 139.666,189.333 C139.297,188.964 139.592,187.951 140.32,187.081 C141.049,186.212 142.256,183.475 143.003,181 C143.75,178.525 145.329,174.7 146.513,172.5 C150.342,165.38 150.453,162.147 147.013,157.867 C145.356,155.805 144,153.696 144,153.181 C144,152.666 143.278,151.646 142.396,150.914 C141.514,150.181 140.385,148.512 139.888,147.205 C139.084,145.091 138.558,144.899 135.147,145.475 C131.783,146.044 131.107,145.812 129.655,143.597 C128.745,142.207 128,140.459 128,139.713 C128,138.258 140.296,124.676 148.468,117.103 C151.201,114.572 154.644,111.263 156.119,109.75 C159.263,106.528 160.276,106.397 163.85,108.75 C165.312,109.713 167.407,110.998 168.504,111.606 C170.058,112.466 170.668,114.239 171.258,119.606 C172.418,130.147 171.005,137.336 165.802,147.372 C164.197,150.467 162.022,158.327 162.011,161.074 C162.004,162.778 163.893,165.822 167.598,170.074 C170.677,173.609 173.591,177.512 174.073,178.75 C174.556,179.988 175.358,181 175.855,181 C177,181 184.055,190.302 186.88,195.535 C190.13,201.554 191.218,203.174 194.75,207.253 C196.537,209.317 198,211.395 198,211.87 C198,212.812 206.173,225.571 208.333,228 C209.066,228.825 212.141,232.875 215.165,237 C218.189,241.125 221.414,245.118 222.332,245.872 C223.249,246.627 224,247.808 224,248.496 C224,250.032 230.181,258.708 235.247,264.282 C237.308,266.549 239.245,269.197 239.552,270.165 C240.225,272.284 238.41,276.006 236.715,275.984 C234.366,275.952 227.525,271.432 226.395,269.165 C225.766,267.904 224.122,265.664 222.74,264.186 C221.359,262.709 219.508,260.072 218.629,258.327 C217.749,256.583 215.672,253.67 214.014,251.855 C212.356,250.039 211,247.966 211,247.248 C211,246.181 207.316,240.864 202.113,234.422 C201.634,233.828 200.118,231.578 198.745,229.422 C197.372,227.265 194.28,222.912 191.875,219.748 C189.469,216.585 185.881,211.41 183.901,208.248 C169.457,185.177 161.328,175 157.346,175 C155.892,175 154.578,176.525 152.662,180.437 C151.198,183.427 150,186.38 150,186.999 C150,188.514 146.875,198.245 145.986,199.5 C145.596,200.05 144.295,203.784 143.095,207.798 C141.895,211.812 140.258,215.348 139.457,215.655 C138.592,215.987 138,217.543 138,219.485 C138,221.283 137.325,223.315 136.5,224 C135.675,224.685 135,226.513 135,228.063 C135,229.614 134.608,231.124 134.129,231.42 C133.65,231.716 132.967,233.414 132.611,235.193 C131.832,239.089 127.388,244 124.642,244 C121.482,244 119,241.052 119,237.297 C119,234.849 118.234,233.23 116.25,231.484 C114.737,230.152 112.995,229.049 112.377,229.032 C111.76,229.014 108.385,226.704 104.877,223.899 C101.37,221.093 96.62,217.694 94.321,216.345 C90.709,214.226 89.861,214.07 88.06,215.194 C86.915,215.91 85.7,217.37 85.361,218.439 C84.761,220.328 78.913,228.482 75.292,232.478 C74.306,233.565 72.331,236.054 70.903,238.007 C69.475,239.961 66.1,242.629 63.403,243.937 C56.926,247.077 56.705,247.2 53.661,249.352 C50.278,251.742 43.017,253.417 41.708,252.108 C40.027,250.427 41.714,248.248 45.68,246.978 C50.384,245.473 58.486,239.503 62.5,234.586 C64.15,232.565 66.676,229.628 68.114,228.06 C72.001,223.821 78,213.543 78,211.122 C78,209.892 75.906,206.988 73,204.187 C68.398,199.751 68,198.995 68,194.684 C68,188.271 66.3,188.518 57,196.281 C52.875,199.725 45.675,204.509 41,206.914 C36.325,209.318 31.427,212.121 30.115,213.142 C28.803,214.164 26.814,215 25.694,215 C23.553,215 20,212.35 20,210.753 C20,207.95 26.967,202.084 33.996,198.969 C35.368,198.361 37.926,196.769 39.679,195.431 C41.432,194.094 43.265,193 43.753,193 C45.326,193 61.55,180.854 69.169,173.971 C74.04,169.571 74.205,169.239 74.963,162.333 C75.393,158.423 76.007,154.798 76.327,154.279 C76.648,153.76 77.189,149.097 77.529,143.917 C77.868,138.738 78.973,127.3 79.984,118.5 C81.392,106.24 81.613,100.513 80.929,94 C79.572,81.089 79.71,79.605 82.552,76.538 Z M87.92,168.719 C86.536,170.248 84.804,172.85 84.071,174.5 C83.337,176.15 81.897,179.134 80.871,181.131 C79.37,184.052 79.133,185.975 79.655,190.972 C80.202,196.211 80.675,197.35 82.679,198.264 C84.128,198.924 85.404,198.986 85.951,198.423 C88.105,196.205 93.17,178.567 93.331,172.721 C93.53,165.469 91.929,164.284 87.92,168.719 Z M151.106,128.75 C144.699,135.877 143.599,139.18 147.024,141.013 C148.137,141.608 149.823,143.886 150.771,146.074 C153.165,151.6 155.234,150.855 156.558,143.988 C157.14,140.97 157.928,137.713 158.308,136.75 C162.24,126.804 162.291,122 158.465,122 C157.755,122 154.444,125.037 151.106,128.75 Z"/>
</svg>

