<svg xmlns="http://www.w3.org/2000/svg" width="300" height="300" viewBox="0 0 300 300" version="1.1">
  <defs/>
  <path d="M132.5,38.105 C139.313,35.717 149.508,38.642 155.825,44.797 C161.578,50.402 164,54.096 164,57.265 C164,58.549 164.388,60.028 164.862,60.55 C166.697,62.573 167.61,69.933 167.274,80 C167.081,85.775 166.828,94.189 166.712,98.698 C166.584,103.655 166.006,107.392 165.25,108.148 C164.543,108.856 163.971,112.03 163.934,115.45 C163.863,121.938 162.828,128.88 157.98,155.387 C156.281,164.675 155.144,172.934 155.454,173.741 C155.817,174.688 156.634,174.953 157.758,174.489 C158.716,174.093 160.995,173.411 162.823,172.974 C164.651,172.536 166.936,171.463 167.902,170.589 C170.32,168.4 174.221,168.6 177.365,171.073 C181.197,174.087 180.868,177.864 176.43,181.793 C172.992,184.836 172.767,184.893 170.378,183.328 C168.51,182.104 167.614,181.986 166.749,182.851 C166.117,183.483 163.945,184 161.922,184 C157.258,184 151.376,186.429 150.053,188.901 C149.493,189.948 147.211,192.249 144.982,194.014 L140.93,197.223 L136.987,194.491 C134.369,192.677 132.281,191.942 130.772,192.306 C118.852,195.178 114,197.875 114,201.629 C114,202.868 113.563,204.152 113.028,204.482 C111.744,205.276 108,213.797 108,215.926 C108,216.845 105.531,220.05 102.514,223.049 C99.497,226.047 97.022,229.106 97.014,229.846 C96.99,232.149 89.754,242.816 84.162,248.794 C81.227,251.932 76.794,257.516 74.312,261.202 C71.829,264.888 68.831,268.788 67.649,269.869 C66.467,270.95 63.4,273.919 60.833,276.466 C54.657,282.597 50.644,283.365 46.658,279.181 C42.938,275.277 43.405,272.409 47.705,272.742 C50.345,272.947 51.761,272.047 56.806,266.955 C60.092,263.638 64.067,259.035 65.64,256.725 C70.914,248.979 79.717,237.518 81.869,235.595 C83.041,234.547 84,233.332 84,232.895 C84,231.751 89.662,223.525 91.499,222.001 C93.459,220.374 99,208.503 99,205.93 C99,203.882 98.015,203.459 96.45,204.835 C95.928,205.294 93.25,206.471 90.5,207.451 C87.75,208.431 83.925,210.259 82,211.513 C80.075,212.767 75.575,214.795 72,216.019 C68.425,217.243 64.79,218.865 63.921,219.622 C63.053,220.38 61.627,221 60.752,221 C59.348,221 55.591,222.609 51,225.176 C47.644,227.052 30.269,233.183 22.5,235.231 C20.3,235.811 17.825,236.835 17,237.506 C14.382,239.636 6.398,242.173 3.395,241.83 C0.753,241.529 0.5,241.159 0.5,237.598 C0.5,234.146 0.904,233.489 4,231.906 C5.925,230.921 10.875,229.213 15,228.111 C25.585,225.283 36.767,221.046 49.301,215.113 C55.241,212.301 60.649,210 61.319,210 C61.988,210 64.191,208.875 66.215,207.5 C68.238,206.125 70.411,205 71.043,205 C71.674,205 73.386,204.368 74.846,203.594 C79.445,201.159 88.418,197.183 90.5,196.658 C95.234,195.465 106.429,190.237 107.053,188.928 C110.108,182.515 110.427,180.557 110.178,169.719 C110.031,163.311 109.691,161.828 108.25,161.317 C105.144,160.215 103,157.75 103,155.279 C103,152.386 101.329,149 99.901,149 C99.335,149 96.703,151.358 94.053,154.241 L89.234,159.482 L85.617,157.757 C83.628,156.808 82,155.554 82,154.97 C82,153.284 88.781,139.253 89.943,138.535 C90.521,138.178 92.114,135.437 93.483,132.443 C94.856,129.442 96.634,127 97.446,127 C98.256,127 100.003,128.169 101.329,129.599 C102.721,131.1 104.532,132.044 105.619,131.835 C107.211,131.528 107.5,130.551 107.5,125.486 C107.5,119.896 107.338,119.477 105.053,119.155 C102.742,118.828 93.551,121.215 89.764,123.124 C88.809,123.606 87.398,124 86.629,124 C82.725,124 80.114,112.546 83.75,111.372 C92.632,108.503 103.415,97 97.223,97 C94.411,97 91.144,94.203 88.965,89.932 C87.045,86.167 87.032,85.876 88.685,83.248 C89.635,81.736 91.669,79.022 93.206,77.215 C96.419,73.438 96.717,72 94.288,72 C92.523,72 90.991,73.302 82.589,81.947 C79.888,84.726 77.271,87 76.774,87 C76.277,87 73.657,89.272 70.952,92.049 L66.034,97.098 L67.135,101.799 C67.741,104.385 68.586,107.206 69.014,108.07 C69.442,108.933 69.591,110.733 69.345,112.07 C69.1,113.406 69.729,116.992 70.745,120.037 C71.876,123.429 72.492,127.755 72.336,131.199 C72.157,135.158 72.514,137.182 73.541,138.034 C75.234,139.439 75.611,150.504 74,151.5 C73.45,151.84 73,153.161 73,154.437 C73,157.147 70.942,159.2 69.265,158.164 C68.134,157.465 67.591,155.091 64.423,137 C63.604,132.325 62.484,126.025 61.933,123 C61.383,119.975 60.569,115.025 60.125,112 C59.267,106.153 56.402,97.13 54.902,95.55 C54.406,95.027 54,93.874 54,92.987 C54,92.1 52.65,90.081 51,88.5 C49.35,86.919 48,85.23 48,84.746 C48,84.262 46.825,82.326 45.389,80.443 C42.074,76.097 42.658,72 46.593,72 C48.418,72 50.624,73.609 54.324,77.641 C57.171,80.743 59.743,84.23 60.041,85.391 C60.654,87.782 65,88.979 65,86.757 C65,85.996 66.35,84.081 68,82.5 C69.65,80.919 71,79.072 71,78.394 C71,77.717 72.688,76.12 74.75,74.846 C76.813,73.571 80.844,70.405 83.709,67.811 C86.573,65.217 90.398,62.345 92.209,61.43 C94.019,60.515 96.4,58.97 97.5,57.997 C98.6,57.023 103.843,53.321 109.152,49.77 C117.789,43.991 122.684,41.545 132.5,38.105 Z M131.323,47.668 C130.125,47.917 128.607,48.768 127.95,49.56 C127.293,50.352 125.98,51 125.033,51 C121.802,51 120,54.314 120,60.256 C120,65.503 119.766,66.047 116.272,68.927 C114.222,70.617 111.982,72 111.295,72 C110.608,72 109.288,73.156 108.362,74.57 C106.721,77.075 106.756,77.217 109.759,80.221 L112.841,83.302 L118.62,78.151 C124.807,72.636 127.657,71.859 130.435,74.928 C133.046,77.813 131.69,80.499 123.233,89.201 C118.234,94.345 115.946,97.416 116.343,98.451 C116.67,99.303 117.589,100 118.386,100 C120.9,100 129.446,95.205 130.758,93.058 C131.451,91.926 132.655,91 133.436,91 C135.218,91 139.013,95.728 138.962,97.885 C138.876,101.585 128.406,110.823 121.964,112.883 C118.668,113.937 118.354,114.405 117.346,119.757 C116.629,123.567 116.599,125.922 117.257,126.752 C117.803,127.441 117.969,129.406 117.626,131.119 C117.357,132.464 117.107,133.26 117.396,133.607 C117.837,134.135 119.53,133.62 124.317,132.418 C125.883,132.025 128.33,132.836 131.861,134.918 C134.736,136.613 137.915,138 138.925,138 C139.936,138 142.123,139.391 143.785,141.092 C148.215,145.622 150.306,144.753 151.252,137.988 C151.674,134.969 152.442,130.25 152.957,127.5 C154.947,116.89 157.028,96.004 156.994,87 C156.99,86.175 157.021,81.321 157.062,76.214 C157.174,62.362 152.807,51.157 146.5,49.111 C142.717,47.885 134.186,47.073 131.323,47.668 Z M103.136,227.337 C104.184,226.073 105.738,225.909 111.462,226.459 C125.983,227.852 147.164,233.62 154,238.044 C154.825,238.578 156.625,239.534 158,240.17 C159.375,240.805 163.875,243.053 168,245.165 C172.125,247.277 177.525,249.958 180,251.122 C182.475,252.287 185.496,254.148 186.713,255.259 C187.929,256.369 189.786,257.778 190.838,258.389 C191.89,259 196.239,261.975 200.503,265 C204.767,268.025 209.796,271.379 211.68,272.453 C213.563,273.528 218.059,276.903 221.67,279.953 C225.281,283.004 229.083,285.944 230.118,286.487 C231.153,287.03 232,287.756 232,288.1 C232,288.444 233.35,290.424 235,292.5 C236.65,294.576 238,297.113 238,298.138 C238,299.733 237.195,300 232.398,300 L226.796,300 L217.648,290.99 C212.617,286.035 207.15,281.139 205.5,280.111 C203.85,279.082 201.6,277.384 200.5,276.337 C199.4,275.289 196.475,273.395 194,272.127 C191.525,270.858 188.375,268.784 187,267.518 C184.016,264.769 173.479,258 172.183,258 C171.681,258 170.197,257.159 168.885,256.131 C167.573,255.102 164.025,253.264 161,252.045 C157.975,250.826 154.6,249.34 153.5,248.743 C152.4,248.146 149.25,246.561 146.5,245.222 C143.75,243.882 140.306,242.159 138.846,241.393 C137.386,240.627 135.338,240 134.296,240 C133.253,240 131.973,239.626 131.45,239.169 C129.621,237.568 121.418,235.628 112,234.569 C103.213,233.58 102.475,233.327 102.173,231.195 C101.994,229.927 102.427,228.191 103.136,227.337 Z M118.975,143.565 C118.439,144.976 118,147.252 118,148.622 C118,149.993 117.49,153.139 116.867,155.614 C115.756,160.025 115.801,160.179 119.117,163.402 C122.253,166.45 126.208,171.673 130.11,177.922 C131.473,180.105 132.372,180.469 135.977,180.299 C141.221,180.052 144,177.72 144,173.568 C144,171.85 144.604,169.557 145.343,168.473 C146.957,166.101 149.589,151.255 148.575,150.242 C148.182,149.848 146.429,149.422 144.68,149.294 C135.178,148.602 133.2,148.233 130,146.561 C128.075,145.554 125.306,143.892 123.846,142.866 C120.424,140.461 120.14,140.502 118.975,143.565 Z M99.338,4.476 C102.135,2.517 104.303,2.615 107.03,4.823 L109.281,6.646 L107.063,13.312 C105.842,16.978 104.468,20.211 104.009,20.494 C103.55,20.778 102.875,22.782 102.509,24.948 C102.143,27.113 101.204,29.416 100.422,30.065 C99.64,30.714 99,31.804 99,32.488 C99,33.171 98.1,34.874 97,36.273 C95.9,37.671 95,39.515 95,40.369 C95,41.224 92.978,44.004 90.506,46.547 C88.034,49.091 85.229,52.496 84.273,54.115 C83.17,55.983 81.154,57.473 78.76,58.19 C74.309,59.524 73.227,58.844 74.882,55.754 C77.965,49.998 81.275,44.365 82.376,43 C83.042,42.175 84.241,40.15 85.042,38.5 C85.842,36.85 86.832,35.25 87.243,34.945 C88.349,34.121 95.727,14.097 96.534,9.726 C96.923,7.621 98.164,5.298 99.338,4.476 Z M119.465,180.057 C119.106,180.638 119.095,182.243 119.442,183.623 C120.161,186.491 122.658,186.526 124.393,183.691 C125.279,182.244 125.112,181.595 123.559,180.441 C121.247,178.725 120.341,178.64 119.465,180.057 Z M100,82.499 C99.08,83.608 99.001,84.401 99.736,85.136 C101.381,86.781 104.5,85.709 104.5,83.5 C104.5,81.016 101.741,80.402 100,82.499 Z"/>
</svg>

