<svg xmlns="http://www.w3.org/2000/svg" width="300" height="300" viewBox="0 0 300 300" version="1.1">
  <defs/>
  <path d="M162,47.921 C162.825,47.414 165.52,47.182 167.988,47.404 C171.503,47.72 173.033,48.475 175.044,50.883 C178.447,54.959 180.445,62.699 179.045,66.381 C178.47,67.893 178,70.621 178,72.443 C178,74.265 177.325,77.371 176.5,79.346 C175.675,81.32 175,84.169 175,85.676 C175,89.071 168.565,96 165.412,96 C164.19,96 162.512,97.096 161.598,98.491 C160.497,100.171 158.68,101.187 156.018,101.613 C153.356,102.039 151.538,103.056 150.438,104.735 C149.017,106.904 148.309,107.145 144.942,106.607 C139.832,105.79 138.635,107.931 139.204,116.868 C139.565,122.528 139.296,123.949 137.312,126.872 C136.04,128.746 135,131.09 135,132.081 C135,133.071 134.55,134.16 134,134.5 C133.45,134.84 133,136.236 133,137.604 C133,141.33 130.064,153.111 128.34,156.302 C127.507,157.843 127.1,159.819 127.436,160.693 C127.771,161.567 127.352,163.34 126.505,164.633 C125.657,165.927 124.684,169.024 124.343,171.516 C124.001,174.008 122.434,178.077 120.861,180.558 C119.287,183.039 117.989,186.291 117.975,187.785 C117.962,189.278 117.062,193.157 115.975,196.405 C114.889,199.653 114,203.859 114,205.751 C114,207.643 113.249,210.462 112.332,212.015 C110.775,214.651 110.775,215.007 112.332,217.384 C115.103,221.613 114.453,224.817 110,228.887 C107.686,231.002 106,233.458 106,234.713 C106,235.906 105.576,237.144 105.058,237.464 C104.54,237.785 103.841,240.174 103.507,242.773 C103.172,245.373 102.471,248.281 101.949,249.236 C101.427,250.191 101,252.014 101,253.286 C101,254.559 100.588,256.028 100.085,256.55 C99.581,257.073 99.019,258.625 98.835,260 C98.61,261.679 97.779,262.603 96.305,262.812 C94.476,263.073 93.918,262.411 92.956,258.836 C92.113,255.705 92.098,254.073 92.901,252.788 C93.505,251.819 94,249.248 94,247.073 C94,244.898 94.45,242.84 95,242.5 C95.55,242.16 96,239.921 96,237.524 C96,235.128 96.507,232.998 97.127,232.791 C97.747,232.584 98.667,230.184 99.172,227.458 C99.677,224.731 100.315,221.375 100.59,220 C100.968,218.107 100.29,216.72 97.795,214.288 C87.991,204.733 83.571,201 82.059,201 C80.211,201 75.653,205.478 74.678,208.25 C74.34,209.213 73.631,210 73.102,210 C71.824,210 66,218.693 66,220.601 C66,221.427 64.537,222.72 62.75,223.476 C60.962,224.231 57.72,226.684 55.545,228.927 C53.324,231.216 50.912,232.825 50.045,232.595 C49.195,232.37 47.262,231.91 45.75,231.574 C42.284,230.802 42.224,229.245 45.612,227.957 C47.557,227.218 48.09,226.452 47.7,224.959 C47.293,223.403 47.926,222.64 50.527,221.553 C52.444,220.752 54.96,218.439 56.406,216.149 C57.796,213.948 60.198,210.651 61.745,208.823 C70.182,198.855 72.023,193.243 67.528,191.195 C66.168,190.575 64.391,188.478 63.579,186.534 C61.879,182.467 61.405,182.336 58,185 C56.625,186.076 55.138,186.966 54.697,186.978 C54.255,186.99 50.83,189.475 47.086,192.5 C43.342,195.525 39.557,198 38.675,198 C37.792,198 36.604,198.872 36.033,199.938 C35.462,201.005 32.184,203.288 28.748,205.012 C25.311,206.737 21.774,208.636 20.886,209.233 C17.54,211.483 14.244,208.149 15.372,203.654 C16.067,200.884 20.697,196 22.627,196 C23.371,196 26.874,194.088 30.411,191.75 C33.948,189.412 38.948,186.15 41.522,184.5 C59.977,172.673 60.984,171.668 62.63,163.449 C63.395,159.627 64.718,153.125 65.57,149 C70.71,124.122 73.518,104.34 72.577,99.633 C72.252,98.011 72.506,96.095 73.148,95.321 C74.235,94.012 74.037,85.598 72.436,65.072 C71.979,59.212 73.629,56 77.096,56 C80.309,56 80.49,56.718 82.146,76 C83.014,86.105 82.919,91.565 81.648,104.5 C79.512,126.242 76.748,143.386 73.872,152.744 C71.994,158.855 75.311,159.903 79.432,154.5 C82.974,149.856 86.061,149.842 88.547,154.457 C90.269,157.655 90.323,158.858 89.267,170.558 C88.444,179.685 87.667,183.711 86.473,185.03 C84.88,186.79 85.171,191 86.886,191 C87.299,191 89.406,192.575 91.568,194.499 C93.731,196.424 96.032,197.999 96.682,197.999 C97.332,198 98.825,199.35 100,201 C102.856,205.011 106,205.042 106,201.059 C106,199.441 106.45,197.84 107,197.5 C107.55,197.16 108,195.645 108,194.132 C108,192.62 108.661,190.509 109.468,189.441 C110.276,188.374 110.951,186.481 110.968,185.236 C110.986,183.991 111.421,182.191 111.937,181.236 C113.412,178.501 118,163.092 118,160.873 C118,159.77 118.515,157.906 119.144,156.73 C120.593,154.024 122.786,146.372 124.513,138 C126.401,128.848 127.518,124.769 128.785,122.402 C129.388,121.274 130.128,117.46 130.429,113.926 C130.73,110.392 131.386,103.225 131.887,98 C132.387,92.775 132.693,83.55 132.566,77.5 C132.41,70.086 132.757,65.643 133.631,63.871 C135.047,60.997 137.221,59.764 139.398,60.599 C140.167,60.894 141.629,60.253 142.648,59.175 C144.536,57.175 149.338,54.267 156.5,50.785 C158.7,49.716 161.175,48.427 162,47.921 Z M172.15,125.006 C174.433,123.353 176.866,122 177.558,122 C180.945,122 190.974,134.598 191.015,138.904 C191.023,139.782 191.668,142.3 192.447,144.5 C193.227,146.7 193.626,149.493 193.335,150.707 C192.962,152.259 193.603,153.654 195.493,155.406 C197.146,156.938 197.886,158.375 197.414,159.138 C196.611,160.439 196.314,162.438 195.383,172.803 C194.888,178.313 195.162,179.81 197.558,184.707 C200.016,189.733 200.135,190.428 198.707,191.472 C197.794,192.14 197.111,194.096 197.104,196.068 C197.076,203.599 196.786,207.536 196.19,208.494 C195.146,210.17 195.042,220.98 195.98,230.185 C196.591,236.185 197.578,240.108 199.171,242.876 L201.477,246.884 L199.388,249.692 C198.239,251.236 196.219,252.634 194.9,252.797 C193.58,252.961 191.15,253.715 189.5,254.473 C185.757,256.193 180.389,258.502 176.485,260.07 C173.35,261.329 159.344,263.761 149.998,264.67 L144.497,265.204 L143.418,260.852 C142.324,256.439 142.285,245.417 143.325,234.5 C143.639,231.2 144.158,224.225 144.477,219 C145.115,208.568 146.653,193.716 148.028,184.718 C148.514,181.537 148.539,177.937 148.083,176.718 C147.628,175.498 147.645,173.466 148.121,172.202 C148.597,170.939 149.035,161.939 149.095,152.202 C149.158,141.812 149.625,133.984 150.224,133.25 C151.802,131.317 155.801,131.76 157,134 C158.344,136.511 161.674,136.604 162.452,134.152 C162.774,133.135 164.155,131.795 165.519,131.173 C166.884,130.552 168,129.586 168,129.028 C168,128.469 169.868,126.66 172.15,125.006 Z M183,176.5 C182.477,177.875 181.442,179 180.699,179 C179.956,179 178.292,180.125 177,181.5 C175.708,182.875 174.319,184 173.913,184 C173.507,184 170.798,185.565 167.892,187.479 C163.176,190.585 162.435,190.799 160.976,189.479 C157.207,186.067 156.913,186.957 155.023,207.5 C154.416,214.1 153.488,222.512 152.96,226.193 C152.432,229.874 152,237.363 152,242.836 C152,251.103 152.275,252.892 153.627,253.41 C154.521,253.754 155.759,253.639 156.377,253.155 C156.995,252.671 159.842,252.012 162.705,251.69 C165.568,251.368 168.943,250.461 170.205,249.673 C171.467,248.886 174.665,247.44 177.311,246.462 C184.9,243.654 185.868,240.853 185.423,223 C185.224,215.025 185.047,207.938 185.031,207.25 C184.985,205.376 182.295,205.745 180.807,207.83 C180.088,208.836 178.243,210.476 176.706,211.473 C175.17,212.471 172.369,214.831 170.481,216.719 C167.788,219.412 166.56,219.998 164.775,219.44 C163.524,219.05 162.197,218.258 161.827,217.68 C160.46,215.549 159.906,209.819 160.945,208.567 C162.447,206.756 176.801,198.001 178.277,197.995 C178.95,197.992 180.848,196.912 182.495,195.594 C185.359,193.302 185.414,193.115 183.761,191.289 C182.122,189.477 182.135,189.102 184.017,183.954 C186.187,178.016 186.574,174 184.975,174 C184.412,174 183.523,175.125 183,176.5 Z M169.396,140.299 C160.084,148.426 159,150.725 159,162.334 C159,167.597 158.537,172.063 157.927,172.673 C156.614,173.986 157.097,180.214 158.549,180.689 C159.126,180.878 162.501,178.213 166.049,174.766 C169.597,171.32 174.721,167.375 177.435,166 C184.126,162.611 184.678,161.447 183.231,153.802 C179.881,136.107 179.455,134.52 177.994,134.312 C177.173,134.194 173.303,136.889 169.396,140.299 Z M142,71.066 C142,72.752 142.466,75.002 143.035,76.066 C143.672,77.256 143.725,78.673 143.172,79.75 C142.678,80.713 141.984,84.763 141.63,88.75 C141.128,94.406 141.276,96 142.303,96 C144.449,96 149.962,89.979 149.949,87.65 C149.942,86.468 150.227,84.035 150.583,82.244 C150.938,80.453 150.92,76.515 150.542,73.494 L149.856,68 L145.928,68 C142.211,68 142,68.165 142,71.066 Z M161.091,62.391 C160.456,63.155 159.958,65.068 159.984,66.641 C160.247,82.424 160.826,84.245 164.134,79.685 C165.579,77.692 166.65,68.686 166.148,62.75 C165.97,60.651 162.726,60.42 161.091,62.391 Z M74.051,171.662 C72.899,173.127 71.703,175.335 71.393,176.569 C70.652,179.523 72.583,183 74.963,183 C76.439,183 77.124,181.805 78.068,177.586 C79.923,169.298 78.065,166.559 74.051,171.662 Z"/>
</svg>

