<svg xmlns="http://www.w3.org/2000/svg" width="300" height="300" viewBox="0 0 300 300" version="1.1">
  <defs/>
  <path d="M67.005,71.494 C68.599,69.573 74.39,69.56 75.979,71.474 C77.591,73.417 76.479,103.076 74.403,113.5 C74.075,115.15 73.612,120.069 73.375,124.432 C73.137,128.794 72.563,132.844 72.098,133.432 C71.306,134.432 70.28,139.886 69.356,148 C69.137,149.925 68.691,153.45 68.366,155.834 C67.805,159.939 67.897,160.151 70.104,159.834 C72.219,159.531 73.015,158.478 76.014,152.011 C77.062,149.75 86.047,146.794 87.701,148.167 C89.907,149.997 89.207,163.961 86.775,166.656 C85.175,168.427 85.033,169.193 85.976,170.955 C87.487,173.778 86.417,177.412 80.023,191.173 C76.277,199.235 78.76,204.988 84.685,201.977 C87.413,200.59 102.888,185.627 110,177.5 C111.925,175.3 117.325,169.872 122,165.437 C126.675,161.003 134.55,152.934 139.5,147.505 C144.45,142.077 151.893,133.98 156.04,129.514 C160.187,125.047 165.753,117.591 168.41,112.946 C171.066,108.301 174.527,102.586 176.101,100.247 C177.676,97.907 179.241,94.89 179.579,93.541 C180.178,91.155 185.85,86 187.877,86 C189.385,86 192,90.147 192,92.538 C192,97.754 177.544,121.563 169.833,129.046 C167.725,131.092 166,132.999 166,133.283 C166,133.567 164.537,135.342 162.75,137.226 C147.872,152.909 140.199,160.588 138.5,161.493 C137.4,162.079 136.5,163.44 136.5,164.516 C136.5,165.685 137.305,166.619 138.5,166.836 C139.6,167.036 141.467,168.091 142.65,169.18 C144.832,171.191 145.554,173.922 146.638,184.266 C146.971,187.437 147.658,190.288 148.165,190.602 C149.453,191.398 156,186.223 156,184.407 C156,182.152 163.359,174 165.394,174 C165.916,174 167.081,173.332 167.983,172.516 C169.334,171.292 170.181,171.242 172.797,172.23 C177.195,173.89 178.811,172.269 176.676,168.34 C175.826,166.778 174.868,164.262 174.547,162.75 C174.174,160.996 173.316,160 172.178,160 C170.152,160 162,165.687 162,167.101 C162,169.158 155.456,173.991 153,173.748 C146.909,173.144 151.022,163.422 162.33,151.692 L169.856,143.885 L174.678,144.192 C179.123,144.476 179.581,144.752 180.542,147.723 C181.115,149.495 182.577,152.289 183.792,153.932 C185.006,155.575 186,158.197 186,159.76 C186,161.322 186.558,163.158 187.241,163.841 C188.048,164.648 188.367,167.318 188.153,171.477 C187.968,175.081 188.391,179.441 189.124,181.466 C190.252,184.587 190.196,185.482 188.696,188.279 C187.746,190.051 186.966,192.625 186.962,194 C186.958,195.375 186.695,198.886 186.377,201.802 C186.034,204.952 186.278,208.258 186.979,209.949 C187.94,212.269 187.864,213.362 186.568,215.868 C185.694,217.558 184.084,219.42 182.99,220.006 C181.83,220.626 181,222.098 181,223.535 C181,226.439 178.582,226.836 175.866,224.379 C173.515,222.251 171,223.3 171,226.41 C171,227.769 170.609,229.124 170.131,229.419 C169.654,229.714 168.985,231.69 168.647,233.809 C168.308,235.929 167.123,238.483 166.015,239.486 C164.907,240.489 164,241.85 164,242.509 C164,243.168 162.875,244.922 161.5,246.405 C160.125,247.889 159,249.689 159,250.406 C159,251.123 157.374,253.237 155.388,255.104 C153.401,256.972 150.138,260.233 148.138,262.351 C136.954,274.193 128.786,282 127.581,282 C126.829,282 125.981,282.607 125.697,283.348 C125.039,285.063 115.671,290 113.075,290 C110.466,290 108,286.307 108,282.4 C108,278.482 110.132,276.565 113.538,277.42 C117.794,278.488 125.216,272.555 139.081,257 C144.228,251.225 149.016,245.905 149.72,245.179 C150.424,244.452 151,243.508 151,243.082 C151,242.655 151.9,241.268 153,240 C156.225,236.282 155.539,233.87 150.227,230.25 C147.605,228.463 144.911,227 144.242,227 C142.378,227 138,219.402 138,216.169 C138,214.59 138.49,211.893 139.089,210.176 C139.885,207.892 139.864,205.635 139.011,201.777 C137.114,193.195 135.887,184.959 135.393,177.501 C135.1,173.062 134.371,169.952 133.401,169.001 C132.038,167.662 131.335,168.093 126.883,173 C124.139,176.025 120.662,180.124 119.157,182.11 C117.652,184.095 112.932,188.82 108.668,192.61 C101.272,199.184 93,208.827 93,210.876 C93,211.404 94.688,212.844 96.75,214.075 C101.66,217.006 106.827,221.845 108.542,225.116 C109.788,227.494 109.706,227.928 107.642,229.866 C104.498,232.82 101.03,232.534 97.161,229 C95.355,227.35 93.512,226 93.067,226 C92.622,226 91.187,224.428 89.879,222.507 C87.045,218.346 86.059,218.197 83.187,221.5 C78.664,226.702 73.304,223.129 74.424,215.659 C75.052,211.469 74.947,211.204 72.404,210.565 C70.295,210.036 69.111,210.477 66.861,212.633 C65.287,214.141 64,215.819 64,216.362 C64,218.158 47.37,233.833 42.698,236.441 C39.739,238.094 36.571,239 33.758,239 C26.676,239 24.597,235.152 30.25,232.506 C32.038,231.669 34.987,229.891 36.803,228.556 C42.763,224.175 58.446,207.399 59.802,203.955 C59.968,203.533 58.677,201.563 56.933,199.577 C53.963,196.194 53.79,195.579 54.202,189.882 C54.503,185.726 54.263,183.654 53.445,183.34 C52.414,182.945 37.406,191.352 36,193.112 C35.725,193.456 33.116,194.94 30.203,196.41 C27.29,197.879 24.654,199.738 24.346,200.541 C23.726,202.157 18.458,202.55 17.53,201.049 C17.207,200.526 16.881,198.452 16.805,196.439 C16.689,193.342 17.27,192.259 20.584,189.402 C22.738,187.545 27.425,184.537 31,182.718 C34.575,180.898 40.2,177.643 43.5,175.483 C46.8,173.323 50.847,170.869 52.494,170.028 C55.628,168.429 56.089,167.165 57.977,155 C58.446,151.975 59.551,145.9 60.432,141.5 C61.313,137.1 62.271,130.35 62.561,126.5 C62.851,122.65 63.502,118.15 64.008,116.5 C65.535,111.516 67.199,86.369 66.458,79.457 C65.969,74.884 66.129,72.549 67.005,71.494 Z M141.75,13.08 C144.374,11.552 146.522,11.785 150.29,14.009 C153.401,15.844 155.959,19.545 157.448,24.363 C157.919,25.887 158.294,26.001 159.512,24.99 C160.33,24.311 161,22.743 161,21.505 C161,19.636 161.71,19.142 165.2,18.584 C167.511,18.215 170.028,17.392 170.795,16.755 C172.404,15.42 174.863,18.067 177.526,24 C178.39,25.925 179.559,28.336 180.125,29.359 C180.846,30.664 180.797,32.077 179.958,34.102 C179.301,35.688 179.029,38.002 179.355,39.243 C180.087,42.039 178.041,48 176.349,48 C175.662,48 174.679,48.751 174.165,49.669 C173.344,51.136 172.845,51.178 170.038,50.016 C165.555,48.159 163.666,45.008 164.973,41.57 C165.538,40.085 166,38.224 166,37.435 C166,35.012 163.419,35.843 161.919,38.75 C161.139,40.263 159.479,42.327 158.23,43.338 C156.982,44.349 155.282,46.487 154.454,48.088 C153.626,49.69 152.168,51 151.215,51 C148.606,51 146.708,54.586 148.02,57.038 C148.883,58.65 148.745,59.131 147.293,59.564 C146.307,59.859 143.836,60.977 141.802,62.05 C139.768,63.122 137.666,64 137.13,64 C135.974,64 130.006,52.381 129.986,50.09 C129.961,47.26 122.566,40 119.709,40 C115.118,40 112.09,32.83 115.489,30.009 C117.775,28.112 123.825,29.701 129.123,33.59 C131.678,35.466 134.215,37 134.762,37 C135.308,37 136.315,37.675 137,38.5 C138.718,40.571 141.088,40.379 141.678,38.122 C141.948,37.089 143.273,35.741 144.622,35.126 C146.653,34.201 146.897,33.676 146.041,32.077 C145.472,31.014 145.292,29.402 145.641,28.494 C146.061,27.398 145.221,25.881 143.137,23.978 C139.464,20.623 138.728,14.84 141.75,13.08 Z M169.5,66.722 C172.504,66.005 173.358,66.408 174.998,69.318 C176.22,71.484 176.266,72.345 175.248,73.974 C174.562,75.073 174,76.649 174,77.475 C174,78.753 166.441,84.914 160.368,88.586 C158.722,89.582 158.688,90.042 159.964,94.086 C160.729,96.514 162.01,99.276 162.809,100.224 C164.088,101.74 164.061,102.258 162.591,104.501 C161.449,106.245 161.115,108.094 161.536,110.341 C161.977,112.691 161.704,114.001 160.576,114.937 C159.709,115.656 158.985,117.427 158.967,118.872 C158.948,120.318 158.023,122.594 156.91,123.93 C155.057,126.157 154.609,126.26 151.564,125.159 C149.285,124.335 147.44,124.262 145.691,124.927 C141.373,126.569 136.332,125.124 133.522,121.439 C132.135,119.621 131,117.183 131,116.021 C131,113.861 135.099,109 136.921,109 C137.478,109 140.253,111.06 143.088,113.578 C150.501,120.162 151.057,119 149.817,99.519 C149.419,93.267 147.393,92.57 142.39,96.963 C140.435,98.679 137.514,100.347 135.897,100.671 C134.281,100.994 132.716,101.65 132.42,102.129 C132.124,102.608 129.434,103 126.441,103 C122.333,103 120.51,102.51 119,101 C117.9,99.9 117,98.628 117,98.174 C117,96.001 122.381,92.768 129.083,90.914 C133.162,89.786 137.429,87.994 138.564,86.932 C139.7,85.869 141.131,85 141.745,85 C142.359,85 144.355,84.063 146.181,82.917 C148.006,81.771 151.647,79.525 154.272,77.925 C156.896,76.325 159.483,73.861 160.02,72.448 C160.567,71.008 161.469,70.172 162.072,70.545 C162.664,70.91 164.127,70.307 165.324,69.205 C166.521,68.102 168.4,66.985 169.5,66.722 Z M174,240.29 C176.945,238.805 178.026,238.777 184,240.033 C186.475,240.553 192.311,241.678 196.969,242.532 C201.627,243.387 206.127,244.707 206.969,245.466 C208.517,246.86 213.631,248.934 222.171,251.63 C224.74,252.44 227.382,253.756 228.043,254.552 C228.704,255.348 229.85,256 230.589,256 C232.07,256 239.207,259.131 240,260.129 C240.999,261.385 249.569,267.536 252.243,268.915 C253.752,269.694 255.734,271.471 256.647,272.865 C258.192,275.223 258.193,275.599 256.654,278.281 C255.744,279.865 255,281.977 255,282.974 C255,285.285 252.938,286.072 249.335,285.137 C247.348,284.622 245.752,283.018 244,279.778 C242.625,277.235 240.15,274.078 238.5,272.762 C235.08,270.035 226.111,264 225.48,264 C225.248,264 222.6,262.875 219.594,261.5 C216.588,260.125 213.312,258.998 212.314,258.996 C211.316,258.994 209.027,258.094 207.226,256.996 C205.425,255.898 203.205,255 202.292,255 C201.378,255 198.771,254.099 196.497,252.998 C194.223,251.898 188.874,250.555 184.612,250.014 C175.679,248.882 170.78,246.513 171.212,243.537 C171.37,242.444 172.625,240.983 174,240.29 Z M164.511,209.188 C160.214,211.801 158.862,212.144 154.761,211.658 C150.039,211.099 150,211.118 150,214.012 C150,218.648 152.675,219.341 159.077,216.363 C162.06,214.976 166.45,212.949 168.833,211.858 C171.903,210.453 172.996,209.432 172.583,208.355 C172.262,207.52 172,206.648 172,206.418 C172,205.335 169.055,206.424 164.511,209.188 Z M69.311,172.777 C66.888,174.846 65.963,176.619 65.461,180.158 C64.217,188.927 67.235,194.513 69.384,187.418 C70.477,183.808 71.824,180.439 73.797,176.381 C75.24,173.414 74.96,169.969 73.281,170.027 C72.852,170.042 71.065,171.279 69.311,172.777 Z M173.2,183.461 C172.563,184.857 171.437,186 170.696,186 C168.916,186 164.456,190.789 165.377,191.711 C165.773,192.106 166.862,191.879 167.798,191.207 C168.734,190.535 170.625,189.491 172,188.886 C177.014,186.681 177.5,186.24 177.5,183.905 C177.5,180.61 174.633,180.315 173.2,183.461 Z M150,200 C150,200.55 150.45,201 151,201 C151.55,201 152,200.55 152,200 C152,199.45 151.55,199 151,199 C150.45,199 150,199.45 150,200 Z M173,203 C173,203.55 173.45,204 174,204 C174.55,204 175,203.55 175,203 C175,202.45 174.55,202 174,202 C173.45,202 173,202.45 173,203 Z"/>
</svg>

