<svg xmlns="http://www.w3.org/2000/svg" width="300" height="300" viewBox="0 0 300 300" version="1.1">
  <defs/>
  <path d="M78.114,65.363 C79.607,63.564 83.426,64.083 91.54,67.188 C95.909,68.86 97.454,70.1 99.482,73.56 C100.867,75.923 102,78.762 102,79.869 C102,80.976 102.45,82.16 103,82.5 C105.003,83.738 103.919,89.034 100.503,94.7 C98.579,97.89 97.004,101.203 97.003,102.063 C97.001,102.923 95.65,104.919 94,106.5 C92.35,108.081 91,110.311 91,111.455 C91,113.713 87.238,119.863 83.169,124.255 C81.015,126.58 80.767,127.436 81.582,129.752 C82.112,131.261 83.754,133.074 85.229,133.781 C88.257,135.233 92,139.999 92,142.404 C92,144.753 94.544,144.345 96.264,141.72 C97.086,140.466 99.608,138.157 101.87,136.59 C105.259,134.242 106.248,133.961 107.491,134.993 C109.403,136.579 109.39,141.901 107.468,144.441 C106.661,145.509 106,147.435 106,148.723 C106,150.01 105.346,151.314 104.547,151.62 C103.748,151.927 101.674,154.391 99.939,157.096 C97.338,161.148 96.886,162.673 97.369,165.757 C99.314,178.17 99.469,181.931 98.657,197 C98.114,207.08 97.233,212.862 95.99,214.5 C95.572,215.05 94.905,217.075 94.508,219 C93.618,223.301 90.379,227 87.5,227 C86.317,227 84.292,225.875 83,224.5 C81.708,223.125 79.851,222 78.873,222 C76.226,222 72.038,219.965 67.106,216.282 C64.69,214.477 62.15,213 61.463,213 C60.776,213 59.955,212.325 59.638,211.5 C59.322,210.675 58.359,210 57.498,210 C55.782,210 49,203.67 49,202.068 C49,201.519 51.813,198.23 55.25,194.761 C63.712,186.219 73.986,173.852 76.858,168.75 C78.156,166.445 80.518,162.982 82.108,161.052 C83.739,159.074 85,156.35 85,154.807 C85,151.192 78.389,139.258 75.96,138.487 C73.216,137.616 69.997,132.666 70.016,129.346 C70.025,127.781 71.135,124.7 72.483,122.5 C73.83,120.3 75.502,117.375 76.199,116 C76.896,114.625 78.936,111.421 80.733,108.881 C82.53,106.34 84,103.785 84,103.202 C84,102.62 85.587,99.48 87.526,96.224 C94.945,83.771 94.216,79.408 83.994,75.079 C78.501,72.753 77.45,71.909 77.178,69.604 C77.001,68.105 77.422,66.197 78.114,65.363 Z M182.885,36.814 C184.197,35.816 186.092,35 187.096,35 C189.766,35 193.212,39.092 192.566,41.495 C192.27,42.598 192.021,44.063 192.014,44.75 C192.006,45.438 191.365,46 190.59,46 C189.814,46 186.902,47.8 184.119,50 C181.336,52.2 178.53,54 177.883,54 C177.236,54 174.41,55.504 171.604,57.343 C166.865,60.447 161.189,63.32 154.905,65.794 C152.377,66.789 152.292,67.121 151.605,78.658 C151.216,85.171 150.438,92.525 149.874,95 C149.311,97.475 148.467,102.425 147.999,106 C147.104,112.831 146.365,116.187 145.024,119.5 C144.579,120.6 143.657,125.325 142.976,130 C142.295,134.675 141.386,138.95 140.957,139.5 C140.527,140.05 139.608,144.325 138.914,149 C137.935,155.598 137.02,158.315 134.826,161.144 C132.824,163.725 132,165.932 132,168.711 C132,171.1 130.827,174.928 129,178.5 C127.315,181.794 126,185.938 126,187.951 C126,190.068 125.034,192.961 123.639,195.018 C122.341,196.933 120.502,201.2 119.553,204.5 C116.4,215.46 114.172,221.443 113.111,221.796 C112.535,221.988 111.764,223.8 111.398,225.823 C109.945,233.852 107.794,235.855 102.228,234.364 C100.222,233.826 100.033,233.33 100.62,230.128 C100.985,228.132 101.883,225.63 102.615,224.566 C103.347,223.503 103.7,221.655 103.401,220.46 C103.101,219.265 103.45,217.643 104.178,216.855 C106.489,214.351 108,211.103 108,208.636 C108,207.321 108.675,205.685 109.5,205 C110.325,204.315 111,203.129 111,202.364 C111,201.599 111.426,200.191 111.947,199.236 C112.467,198.281 114.096,193.675 115.567,189 C119.463,176.613 121.188,172.002 122.148,171.408 C122.617,171.119 123,169.854 123,168.598 C123,167.342 124.825,160.731 127.054,153.907 C129.284,147.083 131.376,139.25 131.703,136.5 C132.03,133.75 132.905,130.612 133.648,129.527 C134.392,128.443 135,126.225 135,124.598 C135,122.972 135.427,120.26 135.949,118.571 C136.471,116.882 137.395,110.325 138.002,104 C139.073,92.838 140.078,84.547 141.547,74.75 L142.26,70 L138.156,70 C134.622,70 133.839,69.59 132.526,67.05 C131.687,65.427 131,63.427 131,62.606 C131,60.275 135.067,58 139.233,58 C141.317,58 145.154,57.068 147.761,55.928 C158.232,51.35 159.558,50.745 161,49.888 C161.825,49.397 163.588,48.529 164.919,47.958 C166.249,47.388 167.824,46.305 168.419,45.552 C169.013,44.799 171.975,42.933 175,41.405 C178.025,39.877 181.573,37.811 182.885,36.814 Z M158.035,103.934 C159.424,101.338 162.583,101.492 165.382,104.292 C167.172,106.081 167.822,108.178 168.351,113.865 C168.723,117.87 168.699,121.676 168.298,122.323 C167.897,122.97 167.491,126.925 167.397,131.112 C167.3,135.404 166.561,140.202 165.704,142.112 C164.867,143.975 163.949,146.625 163.663,148 C163.378,149.375 162.423,153.425 161.541,157 C160.658,160.575 159.567,165.075 159.115,167 C158.663,168.925 157.103,173.39 155.647,176.922 C152.643,184.212 152.506,185.002 154.25,184.996 C156.236,184.99 162.896,176.098 164.009,171.968 C164.566,169.898 165.692,167.948 166.511,167.634 C167.33,167.32 168.014,166.261 168.032,165.281 C168.049,164.302 168.724,162.626 169.532,161.559 C170.339,160.491 171,158.052 171,156.138 C171,152.275 173.347,149 176.115,149 C178.948,149 185.411,156.642 186.123,160.833 C186.465,162.85 187.977,167.805 189.481,171.844 C192.064,178.776 193.104,180.761 198.867,189.744 C201.835,194.371 200.935,198.329 196.805,198.809 C195.343,198.98 193.608,199.767 192.951,200.559 C190.745,203.217 189.081,202.278 189.661,198.704 C190.035,196.399 189.715,195.008 188.598,194.081 C187.719,193.352 187,192.19 187,191.5 C187,190.81 186.278,189.646 185.396,188.914 C184.514,188.181 183.39,186.664 182.898,185.541 C182.407,184.418 181.58,182.825 181.061,182 C180.542,181.175 179.528,178.475 178.809,176 C177.164,170.344 174.857,170.055 173.551,175.341 C173.03,177.454 171.117,180.804 169.301,182.787 C167.486,184.769 166,186.982 166,187.705 C166,188.428 165.1,189.79 164,190.732 C162.9,191.674 162,192.945 162,193.557 C162,194.169 160.65,195.872 159,197.342 C157.35,198.813 156,200.453 156,200.987 C156,202.271 148.626,206 146.087,206 C144.991,206 142.895,205.454 141.429,204.786 C138.925,203.645 138.797,203.26 139.297,198.408 C139.59,195.568 140.263,192.402 140.792,191.372 C141.983,189.055 144,182.726 144,181.306 C144,180.728 144.998,178.06 146.218,175.377 C148.24,170.931 150.131,164.381 151.667,156.5 C151.988,154.85 152.622,153.032 153.075,152.459 C154.228,151.001 155.972,142.93 157.171,133.5 C159.046,118.761 159.23,114.83 158.098,113.698 C156.71,112.31 156.673,106.48 158.035,103.934 Z M190.667,91.667 C192.636,89.697 196.934,92.304 201.423,98.19 C203.39,100.77 205,103.295 205,103.803 C205,104.31 206.238,106.311 207.75,108.249 C210.831,112.198 211.174,112.695 217.584,122.5 C222.506,130.029 224.007,133.167 227.146,142.5 C228.256,145.8 229.922,149.4 230.849,150.5 C231.775,151.6 233.946,155.425 235.673,159 C239.798,167.54 246.003,180.979 246.984,183.5 C248.127,186.434 252.177,195.262 253.178,197 C253.653,197.825 255.068,200.525 256.322,203 C257.576,205.475 259.99,209.644 261.686,212.264 C263.382,214.884 266.024,219.609 267.557,222.764 C271.815,231.527 273.29,234.291 275.898,238.394 C278.091,241.844 278.583,242.113 281.648,241.538 C284.537,240.996 285,241.184 285,242.896 C285,243.988 284.549,245.161 283.998,245.501 C283.398,245.872 283.251,248.283 283.631,251.521 C284.235,256.659 284.138,256.98 281.625,258.125 C277.74,259.895 274.767,257.869 271.373,251.139 C269.808,248.038 267.787,244.375 266.881,243 C263.387,237.697 261,232.864 261,231.092 C261,230.076 260.325,228.685 259.5,228 C258.675,227.315 258,225.937 258,224.937 C258,223.936 257.613,222.879 257.141,222.587 C255.891,221.815 249,207.403 249,205.562 C249,204.703 248.546,204 247.992,204 C247.437,204 245.349,200.512 243.351,196.25 C241.354,191.988 239.331,187.825 238.857,187 C238.383,186.175 237.52,184.375 236.939,183 C236.358,181.625 234.785,178.165 233.442,175.312 C232.099,172.458 231,169.862 231,169.542 C231,169.222 229.875,167.178 228.5,165 C227.125,162.822 226,160.186 226,159.142 C226,158.099 225.342,156.699 224.539,156.032 C223.735,155.365 222.784,153.896 222.426,152.766 C222.068,151.637 220.475,148.665 218.887,146.161 C217.299,143.657 216,140.866 216,139.959 C216,139.052 215.06,137.459 213.911,136.419 C212.762,135.38 210.51,131.885 208.907,128.653 C207.303,125.421 204.643,120.78 202.996,118.338 C201.348,115.897 200,113.704 200,113.465 C200,112.27 193.352,102.329 191.793,101.193 C190.014,99.897 189.212,93.121 190.667,91.667 Z M83.917,177.233 C82.038,179.561 79.825,182.824 79,184.483 C75.906,190.706 71.413,196.874 68.861,198.402 C66.399,199.876 64.369,204.198 65.388,205.796 C65.787,206.422 68.247,207.72 78.331,212.623 C83.691,215.23 84.957,214.194 87.44,205.171 C88.928,199.76 89.595,173 88.241,173 C87.742,173 85.797,174.905 83.917,177.233 Z"/>
</svg>

