<svg xmlns="http://www.w3.org/2000/svg" width="300" height="300" viewBox="0 0 300 300" version="1.1">
  <defs/>
  <path d="M80.163,73.352 C89.055,67.86 91.394,67.226 94.391,69.495 C97.088,71.537 98.952,85.166 97.879,95 C97.429,99.125 96.935,110.718 96.78,120.762 C96.561,135.064 96.771,138.912 97.75,138.512 C98.438,138.23 99.629,137.744 100.398,137.432 C102.144,136.723 106,140.732 106,143.255 C106,144.288 104.875,146.608 103.5,148.411 C102.125,150.214 101,152.072 101,152.541 C101,153.397 96.043,161.067 94.886,162 C94.545,162.275 92.519,165.141 90.383,168.369 C88.247,171.598 85.809,175.272 84.964,176.536 C84.12,177.799 82.473,179.657 81.306,180.666 C80.138,181.675 76.168,186.325 72.483,191 C68.798,195.675 65.044,199.909 64.141,200.409 C63.239,200.909 56.541,207.209 49.258,214.409 C41.974,221.609 35.406,227.632 34.66,227.794 C33.915,227.956 31.275,230.44 28.792,233.316 C20.274,243.182 6.471,249.414 1.5,245.637 C-0.102,244.42 -0.281,243.757 0.602,242.309 C1.208,241.314 2.761,240.344 4.053,240.154 C5.344,239.964 9.071,237.714 12.334,235.154 C15.596,232.594 20.125,229.11 22.397,227.412 C24.669,225.713 31.458,219.413 37.485,213.412 C43.511,207.41 49.844,201.37 51.558,199.988 C53.273,198.607 56.865,194.782 59.543,191.488 C62.22,188.195 65.26,184.6 66.299,183.5 C69.534,180.074 87,158.116 87,157.475 C87,157.14 88.09,155.434 89.422,153.683 C90.754,151.932 92.144,149.3 92.51,147.833 C93.159,145.229 93.084,145.179 89.271,145.691 C85.587,146.185 85.004,145.869 78.948,140.107 C75.419,136.748 71.951,134 71.243,134 C70.535,134 68.724,135.912 67.219,138.25 C63.913,143.384 55.341,154.566 52.295,157.718 C51.083,158.973 49.203,160 48.117,160 C43.297,160 41.061,152.472 45.05,149.678 C46.177,148.888 50.282,144.025 54.173,138.871 C58.063,133.717 62.091,128.695 63.123,127.711 C65.501,125.445 65.492,125.316 62.533,118.853 C59.515,112.26 59.997,109.929 65.078,106.567 C71.063,102.607 72.931,103.123 78.735,110.347 C79.415,111.192 80.707,112.297 81.608,112.8 C83.106,113.639 83.112,113.962 81.673,116.608 C77.99,123.383 76.999,125.123 77.206,126.705 C77.289,127.335 77.561,127.941 77.929,128.83 C78.607,130.465 80.236,132.813 81.551,134.048 C85.08,137.363 86.405,135.508 87.801,125.294 C89.523,112.687 90.215,84.964 88.848,83.317 C87.261,81.404 82.99,81.709 79.226,84.004 C75.141,86.494 73.768,86.506 71.565,84.072 C68.993,81.23 70.551,79.287 80.163,73.352 Z M111.04,198.452 C112.67,196.487 115.349,196.623 117.292,198.77 C118.513,200.119 118.701,201.393 118.083,204.131 C116.829,209.693 110.156,222.907 105.525,229 C99.205,237.315 97.384,240.784 98.667,242.067 C99.45,242.85 100.699,242.355 103.127,240.298 C107.21,236.839 116.51,229.893 120.147,227.585 C125.861,223.958 131.533,225.049 135.912,230.615 C137.624,232.791 138,234.674 138,241.065 C138,247.61 137.509,249.955 134.939,255.68 C129.057,268.782 126.5,273.526 123.446,277 C121.754,278.925 118.275,283.2 115.715,286.5 C113.155,289.8 109.324,294.21 107.201,296.3 C103.404,300.037 103.23,300.094 96.536,299.8 L89.731,299.5 L94.949,294.5 C101.836,287.902 120,265.448 120,263.534 C120,263.104 121.82,259.116 124.044,254.673 C127.547,247.673 128.048,245.852 127.794,241.047 C127.395,233.517 125.555,233.386 116.095,240.209 C107.878,246.136 103.388,249.162 96.546,253.382 C92.582,255.827 91.505,256.096 89.437,255.153 C84.424,252.869 86.558,245.933 98.347,226.202 C108.36,209.443 111.106,203.908 110.443,201.82 C110.108,200.766 110.377,199.251 111.04,198.452 Z M119.358,20.775 C125.997,15.668 129.484,14.884 132.809,17.75 C135.231,19.838 137.274,28.62 135.923,31.143 C135.416,32.092 135,33.729 135,34.781 C135,39.246 127.617,50.613 122.913,53.392 C119.905,55.169 115,54.962 115,53.058 C115,52.56 116.028,50.881 117.284,49.327 C120.016,45.946 125,35.763 125,33.563 C125,30.114 120.559,32.453 109.301,41.83 C102.81,47.237 95.659,52.822 93.408,54.243 C91.158,55.663 85.829,59.79 81.565,63.413 C77.164,67.153 72.87,70 71.629,70 C68.989,70 66.116,68.13 59.463,62.08 C56.693,59.561 52.981,56.259 51.213,54.742 C46.103,50.357 46.994,45 52.834,45 C53.752,45 57.847,48.375 61.934,52.5 C66.02,56.625 70.029,60 70.841,60 C71.654,60 74.879,57.638 78.008,54.75 C81.137,51.862 85.565,48.012 87.849,46.194 C91.55,43.246 91.996,42.432 91.965,38.694 C91.945,36.387 91.286,33.375 90.5,32 C88.747,28.934 88.567,21.833 90.2,20.2 C90.86,19.54 92.226,19 93.236,19 C95.501,19 99,26.639 99,31.583 C99,36.352 101.096,36.033 107.75,30.25 C110.756,27.637 115.98,23.374 119.358,20.775 Z M117.5,64.194 C121.365,61.527 123.367,61.516 128.03,64.137 C131.814,66.264 132.672,67.805 135.751,78 C138.731,87.867 140.786,117.866 138.971,125 C138.482,126.925 137.817,130.188 137.495,132.252 C136.837,136.465 132.683,141 129.483,141 C127.297,141 123.267,138.565 121.282,136.046 C119.042,133.203 119.818,132 123.893,132 C126.656,132 127.978,131.499 128.447,130.276 C128.811,129.328 129.571,122.213 130.137,114.464 C131.111,101.106 130.757,94.389 128.422,82 C127.707,78.203 124.478,74 122.278,74 C120.703,74 116.63,78.264 114.514,82.129 C113.722,83.575 112.317,85.048 111.392,85.403 C109.339,86.191 106,83.394 106,80.886 C106,78.235 114.019,66.595 117.5,64.194 Z M112.647,164.838 C113.126,164.308 113.443,163.905 113.845,163.625 C115.135,162.724 117.3,163.079 128.5,164.531 C143.775,166.512 158.372,169.592 163.5,171.917 C165.701,172.915 169.076,174.072 171,174.489 C175.005,175.356 183.658,179.487 186.25,181.769 C188.442,183.699 188.613,189.827 186.498,190.639 C184.627,191.357 177.179,188.47 174.5,185.987 C172.185,183.843 163.619,180 161.155,180 C160.231,180 156.106,178.934 151.988,177.631 C147.87,176.329 140.477,174.695 135.561,174.001 C130.644,173.307 125.146,172.123 123.343,171.37 C121.54,170.616 118.848,170 117.361,170 C115.874,170 113.831,169.252 112.821,168.338 C111.104,166.784 111.093,166.555 112.647,164.838 Z M99.667,180.667 C101.2,179.133 105.944,180.082 107.443,182.223 C109.405,185.023 109.448,190.025 107.532,192.559 C106.724,193.626 106.049,195.146 106.032,195.936 C106.014,196.725 105.036,198.397 103.858,199.651 C102.68,200.905 100.963,204.154 100.043,206.872 C97.815,213.453 91.203,223.372 87.595,225.546 C84.813,227.222 84.633,227.218 83.345,225.457 C81.677,223.177 81.643,220.912 83.221,217.297 C84.317,214.784 89.746,206.051 91.797,203.5 C94.717,199.868 99,189.169 99,185.507 C99,183.211 99.3,181.033 99.667,180.667 Z M113,90.722 C118.409,88.689 123.398,91.74 124.615,97.825 C125.436,101.93 122.84,105.249 119.469,104.403 C118.231,104.092 116.918,104.324 116.55,104.919 C114.442,108.33 106,102.777 106,97.979 C106,95.249 108.869,92.274 113,90.722 Z M114.42,114.265 C117.699,112.319 120.455,113.114 120.803,116.107 C121.183,119.38 110.731,132 107.639,132 C104.923,132 102,129.15 102,126.502 C102,124.435 109.141,117.399 114.42,114.265 Z"/>
</svg>

