<svg xmlns="http://www.w3.org/2000/svg" width="300" height="300" viewBox="0 0 300 300" version="1.1">
  <defs/>
  <path d="M105.494,26.649 C106.401,25.742 107.966,25 108.973,25 C111.268,25 115,31.152 115,34.935 C115,36.486 115.716,38.349 116.59,39.075 C117.955,40.207 118.593,39.922 121.09,37.062 C122.691,35.229 124,33.115 124,32.364 C124,31.614 124.8,31 125.777,31 C126.755,31 128.468,30.36 129.584,29.578 C131.347,28.344 132.03,28.358 134.774,29.688 C140.031,32.233 139.855,34.393 133.866,40.811 C130.947,43.94 126.633,47.521 124.279,48.769 C121.926,50.017 120,51.498 120,52.06 C120,53.63 124.237,59 125.476,59 C126.08,59 128.808,56.698 131.538,53.884 C141.546,43.565 147.675,40.655 150.05,45.093 C151.87,48.494 150.381,51.439 144.265,56.535 C141.094,59.176 135.912,63.835 132.75,66.887 C127.038,72.4 127,72.476 127,78.284 C127,81.5 126.523,85.023 125.94,86.112 C125.357,87.201 125.02,89.467 125.19,91.146 L125.5,94.2 L132.958,88.112 C140.216,82.186 141.6,80.49 143.883,74.722 C145.326,71.077 147.296,70.438 151.272,72.325 C155.082,74.133 157.858,77.623 160.829,84.344 C162.007,87.008 163.93,90.184 165.103,91.403 C166.276,92.622 168.195,96.522 169.368,100.071 C170.54,103.619 172.287,107.63 173.25,108.984 C174.213,110.337 175,112.443 175,113.663 C175,114.884 175.377,116.115 175.838,116.4 C176.786,116.986 176.481,127.018 175.291,134.42 C174.613,138.635 174.09,139.476 171.642,140.289 C169.226,141.092 168.409,140.863 166.355,138.81 C163.974,136.429 163.955,136.272 165.36,130.875 C167.485,122.716 165.12,112.189 158.424,100 C157.668,98.625 156.155,95.587 155.061,93.25 C152.608,88.01 149.5,87.604 144.723,91.898 C139.345,96.734 132.403,101.737 130.026,102.492 C128.79,102.884 126.141,104.649 124.139,106.414 C119.588,110.428 113.447,114 111.098,114 C110.115,114 108.495,114.9 107.5,116 C104.539,119.271 101.324,118.575 99.213,114.205 C97.003,109.63 97.261,98.928 99.745,92.163 C101.112,88.443 101.136,87.699 99.919,86.929 C96.556,84.8 93.497,86.02 87.815,91.759 C81.512,98.124 79.604,101.92 80.547,106.215 C80.921,107.917 80.677,109.684 79.946,110.565 C79.269,111.381 78.978,112.312 79.3,112.633 C80.081,113.414 85.95,109.373 88.702,106.159 C90.786,103.726 90.939,103.692 91.543,105.544 C91.894,106.62 92.655,108.492 93.235,109.704 C94.124,111.564 93.78,112.499 91.027,115.704 C85.975,121.583 83.223,124 81.579,124 C80.749,124 79.612,124.856 79.052,125.903 C77.861,128.127 70.336,132 67.203,132 C65.671,132 64.841,131.196 64.365,129.25 C63.995,127.737 63.235,126.201 62.676,125.836 C62.09,125.453 63.638,122.972 66.33,119.978 C70.2,115.673 71,114.117 71,110.892 C71,105.904 68.882,105.732 63.43,110.274 C58.13,114.691 52.616,117.45 50.622,116.685 C49.72,116.339 48.465,114.92 47.833,113.532 C46.362,110.303 48.404,107.829 55.595,104.124 C61.856,100.899 70.733,94.368 71.952,92.089 C72.48,91.103 72.499,87.523 71.997,83.478 C71.525,79.671 71.382,75.338 71.68,73.85 C72.171,71.393 71.92,71.114 68.96,70.822 C66.81,70.61 65.007,69.57 63.672,67.774 C61.725,65.155 61.716,64.972 63.427,63.081 C64.406,61.999 66.45,60.84 67.97,60.507 C69.489,60.173 73.749,57.411 77.436,54.37 C81.124,51.328 84.758,49.077 85.512,49.366 C87.857,50.266 90.258,54.839 89.647,57.243 C89.331,58.484 87.144,60.747 84.787,62.272 C72.968,69.915 72.49,70.476 76.5,72 C78.577,72.79 79,73.61 79,76.853 C79,79.17 79.634,81.282 80.561,82.051 C81.902,83.163 82.953,82.439 87.99,76.927 C93.707,70.672 93.935,70.537 96.91,71.66 C99.661,72.698 100.32,72.527 103.589,69.929 C107.167,67.086 107.24,67.073 108.858,69.015 C110.488,70.97 110.523,70.969 113.814,68.853 C116.932,66.849 117.089,66.478 116.451,62.611 C115.627,57.609 114.633,56.291 110.33,54.493 C107.111,53.149 106.998,52.908 106.94,47.301 C106.883,41.694 105.883,34.747 104.509,30.399 C104.083,29.052 104.437,27.706 105.494,26.649 Z M103.25,134.05 C111.263,125.099 111.606,124.849 115.203,125.316 C119.314,125.85 125,129.412 125,131.453 C125,132.177 126.052,133.459 127.338,134.302 C129.241,135.549 129.711,136.802 129.861,141.024 C129.962,143.879 130.456,146.984 130.959,147.924 C131.463,148.865 132.025,159.965 132.209,172.592 C132.532,194.776 132.622,195.661 134.878,198.829 C137.078,201.918 137.115,202.215 135.528,203.969 C134.195,205.442 133.848,207.806 133.863,215.313 C133.886,226.54 132.604,228.711 126.613,227.587 C122.745,226.861 121.788,225.434 123.259,222.584 C124.687,219.817 124.168,166.177 122.634,158 C122.273,156.075 121.767,152.925 121.511,151 C120.131,140.638 119.635,138.875 117.825,137.907 C115.773,136.808 112,137.554 112,139.058 C112,139.566 109.975,141.887 107.5,144.216 C105.025,146.545 103,148.946 103,149.551 C103,150.156 101.827,151.742 100.394,153.076 C98.961,154.409 97.397,156.512 96.919,157.75 C96.441,158.988 95.363,160 94.525,160 C93.466,160 93,161.01 93,163.3 C93,165.115 92.481,167.119 91.846,167.754 C90.998,168.602 90.96,170.709 91.706,175.704 C92.263,179.442 92.563,185.2 92.371,188.5 C91.056,211.129 90.986,220.278 92.116,221.64 C93.071,222.79 92.876,223.677 91.157,226.001 C88.287,229.883 88.423,230.365 92.175,229.615 C94.946,229.061 103.132,222.692 111.932,214.244 L114.364,211.909 L116.863,214.409 C119.479,217.024 119.323,218.274 115.765,223.247 C114.768,224.639 114.766,225.396 115.757,226.983 C117.53,229.821 117.299,232.351 115,235.273 C113.9,236.671 113,238.229 113,238.733 C113,239.238 111.875,240.708 110.5,242 C109.125,243.292 108,244.911 108,245.598 C108,246.285 106.937,248.119 105.637,249.673 C104.337,251.228 102.983,253.431 102.627,254.569 C102.271,255.708 100.664,257.612 99.056,258.801 C97.448,259.99 94.546,263.352 92.607,266.272 C90.669,269.193 85.244,275.27 80.551,279.778 C73.669,286.389 71.257,288.095 68.072,288.605 C65.9,288.952 63.885,289.858 63.593,290.618 C62.584,293.248 58.358,292.158 55.614,288.56 L52.99,285.12 L55.218,283.56 C56.443,282.702 58.681,282 60.193,282 C62.086,282 63.63,281.067 65.158,279 C66.378,277.35 68.139,276 69.072,276 C70.004,276 72.41,274.087 74.418,271.75 C76.426,269.413 79.344,266.15 80.902,264.5 C86.885,258.165 101.367,238.034 100.537,237.204 C100.207,236.874 98.039,237.169 95.718,237.861 C87.353,240.355 87.277,240.353 85.469,237.594 C84.026,235.391 83.952,234.53 84.992,232.02 C86.107,229.328 85.97,228.753 83.524,225.846 C81.163,223.041 80.905,222.071 81.453,218.071 C81.797,215.557 82.091,212.037 82.106,210.25 C82.141,206.123 82.161,205.531 82.672,193.5 C83.288,178.989 83.118,161.116 82.32,156.5 C81.939,154.3 81.747,151.87 81.892,151.1 C82.038,150.329 81.404,147.727 80.483,145.317 C78.541,140.232 79.551,138 83.794,138 C87.435,138 90,140.726 90,144.596 C90,146.403 90.47,148.172 91.044,148.527 C92.466,149.406 95,147.154 95,145.01 C95,144.05 98.713,139.118 103.25,134.05 Z M95.8,1.2 C94.867,0.267 99.781,0 117.913,0 L141.227,0 L140.658,2.75 C140.345,4.262 139.68,7.525 139.179,10 C138.678,12.475 137.956,15.233 137.574,16.129 C136.788,17.97 130.024,19.424 128.648,18.048 C128.115,17.515 128.449,14.288 129.468,10.131 C130.414,6.271 130.894,2.637 130.535,2.056 C129.34,0.123 123.491,0.925 120,3.5 C118.136,4.875 115.898,6 115.026,6 C114.154,6 110.906,8.475 107.808,11.5 C104.71,14.525 101.705,17 101.13,17 C99.757,17 88.982,27.938 85.907,32.452 C82.297,37.752 79.418,37.292 72.149,30.25 C63.941,22.299 58.876,18 57.717,18 C57.177,18 55.22,17.063 53.368,15.918 C49.155,13.315 48.758,9.523 52.518,7.81 C55.958,6.242 62.396,9.489 71.086,17.175 C74.709,20.379 78.047,23 78.505,23 C79.931,23 97,5.281 97,3.801 C97,3.031 96.46,1.86 95.8,1.2 Z M136.441,244.38 C137.069,241.877 137.36,241.764 141.802,242.297 C147.204,242.946 157.966,248.191 165.586,253.89 C168.47,256.047 171.85,258.135 173.096,258.531 C174.343,258.926 176.743,260.092 178.431,261.121 C180.119,262.15 182.316,262.994 183.314,262.996 C184.312,262.998 187.687,264.172 190.814,265.604 C193.941,267.037 198.768,269.059 201.541,270.098 C204.351,271.151 208.3,273.747 210.465,275.964 C213.983,279.566 214.24,280.179 213.195,282.47 C211.534,286.117 207.369,285.787 201.165,281.52 C196.524,278.328 187.788,274.198 179,271.043 C170.682,268.057 168.871,267.271 167.768,266.168 C167.126,265.526 165.805,265 164.833,265 C163.862,265 160.787,262.975 158,260.5 C155.213,258.025 152.386,255.982 151.717,255.959 C151.047,255.937 148.942,254.587 147.038,252.959 C145.081,251.286 142.417,250 140.91,250 C137.405,250 135.6,247.73 136.441,244.38 Z M114,181.677 C118.033,178.898 119.461,179.857 119.796,185.568 C120.084,190.49 119.964,190.736 115.043,195.269 C112.266,197.827 109.446,201.121 108.777,202.589 C108.021,204.25 105.86,205.988 103.06,207.189 C98.788,209.02 98.494,209.029 97.28,207.368 C94.677,203.808 95.831,200.734 102.296,194 C105.729,190.425 109.204,186.577 110.018,185.45 C110.833,184.322 112.625,182.624 114,181.677 Z M108.921,158.75 C111.352,156.102 115.321,155.092 116.404,156.845 C116.692,157.31 117.221,159.528 117.58,161.774 C118.162,165.414 117.921,166.138 115.366,168.439 C113.79,169.859 111.6,171.836 110.5,172.834 C103.59,179.104 97,178.686 97,171.978 C97,169.754 98.069,168.235 101.698,165.3 C104.283,163.21 107.533,160.262 108.921,158.75 Z M109.75,83.068 C106.038,85.028 104.767,88.12 107.085,89.553 C107.745,89.96 108.046,92.828 107.852,96.862 C107.557,103.011 107.68,103.476 109.517,103.171 C113.156,102.568 114.389,100.262 114.817,93.262 C115.044,89.543 115.678,85.943 116.227,85.263 C117.459,83.733 116.517,80.984 114.781,81.044 C114.077,81.069 111.813,81.979 109.75,83.068 Z"/>
</svg>

