<svg xmlns="http://www.w3.org/2000/svg" width="300" height="300" viewBox="0 0 300 300" version="1.1">
  <defs/>
  <path d="M107.011,87.486 C108.605,85.567 109.911,85.609 112.171,87.655 C113.255,88.636 114,90.685 114,92.687 C114,94.545 114.675,97.68 115.5,99.654 C116.325,101.629 117,105.384 117,108 C117,115.284 120.999,116.865 125.199,111.242 C125.914,110.284 130.55,107.067 135.5,104.093 C140.45,101.12 146.189,97.182 148.253,95.343 C150.317,93.505 152.37,92 152.814,92 C154.626,92 158,96.239 158,98.516 C158,100.88 157.401,101.447 145,110.821 C143.625,111.86 141.047,113.458 139.27,114.371 C137.494,115.283 133.669,117.941 130.77,120.276 C127.872,122.612 124.263,125.315 122.75,126.284 C120.343,127.826 120,128.679 120,133.115 C120,136.67 120.597,138.944 122,140.727 C124.567,143.99 124.538,147.354 121.913,150.904 C117.985,156.217 119.249,157.844 132.5,164.536 C139.1,167.869 146.75,171.425 149.5,172.438 C152.25,173.452 154.95,174.617 155.5,175.028 C156.05,175.438 161.762,178.476 168.192,181.778 C174.623,185.08 181.364,188.843 183.172,190.141 C187.188,193.024 187.707,193.324 198.936,199.25 C203.886,201.862 208.513,204.008 209.218,204.018 C210.521,204.037 217.332,208.208 222.158,211.943 C223.62,213.074 225.261,214 225.805,214 C227.277,214 233.161,221.017 232.742,222.273 C232.543,222.87 230.482,224.165 228.162,225.15 L223.943,226.942 L220.447,223.644 C218.524,221.831 213.474,218.643 209.225,216.561 C204.976,214.479 200.6,211.999 199.5,211.049 C198.4,210.1 195.925,208.727 194,207.997 C192.075,207.268 189.825,206.135 189,205.48 C187.67,204.424 183.094,201.97 173.5,197.167 C171.85,196.341 169.228,194.615 167.673,193.332 C166.119,192.05 164.163,191 163.328,191 C162.492,191 160.614,190.379 159.154,189.619 C157.694,188.86 152.225,186.115 147,183.519 C141.775,180.923 136.375,177.783 135,176.542 C131.217,173.127 124.53,169.75 122.397,170.176 C121.001,170.455 120.539,171.339 120.647,173.527 C121.051,181.67 121.03,187.924 120.504,217.385 C119.996,245.791 120.109,249.463 121.542,251.046 C124.113,253.887 123.025,258.051 119.147,260.209 C115.155,262.43 113.909,261.736 110.813,255.567 C109.69,253.33 107.698,250.068 106.386,248.317 C105.074,246.566 104,244.496 104,243.717 C104,242.938 102.65,240.436 101,238.159 C99.35,235.881 98,233.788 98,233.509 C98,232.04 101.678,233.369 105.088,236.07 C108.56,238.819 111.956,239.355 110.448,236.916 C109.333,235.111 109.986,174.722 111.136,173.336 C112.646,171.517 111.463,169 109.099,169 C106.67,169 103.516,173.361 102.636,177.937 C102.255,179.917 99.956,183.73 97.208,186.937 C94.586,189.996 91.598,193.827 90.567,195.449 C89.537,197.07 87.666,199.425 86.41,200.681 C85.154,201.937 82.033,205.898 79.475,209.482 C76.917,213.067 74.403,216 73.887,216 C73.372,216 72.547,217.061 72.054,218.358 C71.561,219.655 68.709,223.367 65.717,226.608 C62.725,229.849 59.346,234.3 58.208,236.5 C57.07,238.7 53.604,242.75 50.505,245.5 C47.406,248.25 43.603,251.729 42.053,253.23 C38.765,256.415 34.419,258.283 32.118,257.5 C29.927,256.755 27.054,252.64 26.749,249.81 C26.532,247.797 26.997,247.459 30.371,247.182 C34.819,246.818 39.164,242.778 51.541,227.5 C55.552,222.55 59.979,217.15 61.38,215.5 C62.782,213.85 63.944,212.096 63.964,211.601 C63.984,211.107 66.025,208.243 68.5,205.236 C70.975,202.23 73,199.284 73,198.69 C73,198.096 74.075,196.46 75.388,195.055 C76.701,193.65 80.337,188.686 83.468,184.025 C86.599,179.364 90.375,174.688 91.859,173.634 C93.343,172.579 96.263,168.968 98.348,165.608 C100.433,162.249 103.939,156.915 106.141,153.755 C109.223,149.331 110.274,146.748 110.709,142.526 C111.189,137.884 111.004,136.939 109.505,136.364 C108.532,135.99 106.782,136.288 105.618,137.026 C104.453,137.764 102.271,138.989 100.77,139.747 C99.268,140.506 97.815,141.49 97.541,141.934 C97.267,142.378 93.545,144.441 89.271,146.52 C84.997,148.598 80.028,151.386 78.229,152.716 C75.37,154.829 71.812,156.301 58.5,160.878 C56.85,161.445 52.73,162.868 49.345,164.041 C42.278,166.489 40.036,165.903 37.469,160.941 C35.57,157.268 36.227,156 40.031,156 C41.632,156 45.487,154.875 48.596,153.5 C51.705,152.125 54.699,151 55.249,151 C59.767,151 97.624,131.568 100.977,127.527 C101.675,126.687 102.683,126 103.218,126 C103.753,126 105.553,125.031 107.217,123.846 C110.109,121.786 110.211,121.467 109.544,116.596 C109.161,113.793 108.431,108.125 107.923,104 C107.415,99.875 106.725,94.806 106.389,92.736 C106.005,90.373 106.237,88.42 107.011,87.486 Z M101.714,25.619 C102.107,25.226 103.986,25.039 105.889,25.202 C108.968,25.467 109.662,26.105 112.175,30.98 C113.729,33.994 115,37.877 115,39.608 C115,41.339 115.728,43.359 116.618,44.098 C118.016,45.258 118.548,45.051 120.526,42.57 C122.661,39.892 123.159,39.74 127.943,40.307 C130.763,40.641 134.405,41.864 136.035,43.025 C138.524,44.797 139,45.818 139,49.377 C139,51.709 138.339,54.491 137.532,55.559 C136.724,56.626 136.049,58.677 136.032,60.115 C135.997,62.939 132.965,67.413 130.015,68.992 C128.659,69.718 127.6,69.497 125.924,68.14 L123.663,66.309 L126.354,62.78 C128.613,59.818 128.885,58.829 128.048,56.626 C126.713,53.115 124.924,53.314 119.259,57.602 C113.63,61.863 97.19,75.924 91.61,81.25 C89.45,83.312 86.938,85 86.028,85 C84.122,85 80.077,80.963 77.263,76.251 C74.454,71.547 68.445,65.306 64.061,62.538 C61.567,60.964 60.075,59.172 59.722,57.325 C59.035,53.731 59.531,53 62.655,53 C66.022,53 70.3,55.997 77.112,63.126 C80.199,66.357 83.15,69 83.671,69 C84.192,69 85.474,68.374 86.521,67.608 C88.064,66.48 88.192,65.936 87.198,64.738 C86.184,63.516 86.569,62.803 89.419,60.63 C91.448,59.082 94.157,58 96.003,58 C99.454,58 107.348,53.141 108.415,50.361 C108.775,49.422 108.782,46.593 108.43,44.076 C107.949,40.647 106.938,38.698 104.394,36.301 C101.834,33.888 101,32.27 101,29.718 C101,27.856 101.321,26.012 101.714,25.619 Z"/>
</svg>

