<svg xmlns="http://www.w3.org/2000/svg" width="300" height="300" viewBox="0 0 300 300" version="1.1">
  <defs/>
  <path d="M100.885,153.25 C100.958,152.459 102.598,152 105.35,152 C110.878,152 117.289,156.394 119.568,161.745 C122.855,169.464 118.737,181.794 109.438,192.068 C108.647,192.942 108,194.165 108,194.784 C108,196.378 111.825,201.737 116.667,206.929 L120.798,211.358 L129.649,209.615 C134.517,208.656 141.65,207.209 145.5,206.399 C149.35,205.589 155.549,204.657 159.275,204.327 C163.001,203.997 166.291,203.339 166.584,202.864 C166.878,202.389 168.04,202 169.166,202 C170.292,202 174.203,201.365 177.857,200.588 C181.511,199.812 188.451,198.448 193.28,197.558 C198.109,196.667 203.574,195.217 205.425,194.335 C207.376,193.404 209.778,192.997 211.144,193.366 C214.329,194.227 217.327,198.567 216.632,201.311 C215.929,204.089 210.673,206.431 205.786,206.142 C203.714,206.02 201.113,206.404 200.007,206.996 C198.901,207.588 193.61,208.473 188.248,208.963 C182.887,209.453 174.675,210.588 170,211.486 C165.325,212.383 159.904,213.251 157.953,213.415 C156.002,213.578 153.514,214.19 152.422,214.774 C151.331,215.358 147.197,216.155 143.236,216.545 C139.147,216.948 135.541,217.848 134.894,218.628 C134.268,219.382 132.694,220 131.397,220 C128.483,220 127.508,223.132 128.347,229.803 C128.766,233.14 128.512,235.062 127.469,236.441 C126.661,237.509 125.99,239.534 125.978,240.941 C125.966,242.349 125.13,245.319 124.12,247.543 C121.78,252.693 108.804,266 106.121,266 C105.019,266 103.84,266.45 103.5,267 C102.456,268.689 99.455,268.119 95.595,265.5 C93.569,264.125 91.086,263 90.078,263 C89.07,263 87.746,262.399 87.137,261.665 C86.527,260.93 84.222,259.733 82.014,259.005 C79.806,258.276 78,257.338 78,256.919 C78,256.501 76.537,255.85 74.75,255.472 C71.547,254.794 60.987,249.97 43.659,241.269 C37.817,238.335 34.063,237.018 32.593,237.387 C28.201,238.49 23.302,232.967 24.912,228.731 C25.677,226.72 27.093,226.06 33.662,224.651 C41.425,222.986 43.385,222.709 56,221.494 C59.575,221.149 63.625,220.444 65,219.927 C66.375,219.41 76.238,217.88 86.917,216.526 C97.597,215.173 106.744,213.656 107.245,213.155 C108.235,212.165 105.3,208.856 99.523,204.45 C96.307,201.997 96,201.32 96,196.679 C96,192.432 96.479,191.093 98.906,188.548 C102.433,184.849 108.403,173.734 109.317,169.163 C110.103,165.236 108.658,162 106.12,162 C102.887,162 100.454,157.932 100.885,153.25 Z M49.021,13.987 C50.673,12.966 54.756,14.43 58.43,17.361 L61.359,19.698 L60.237,28.599 C59.556,34.005 58.161,39.463 56.684,42.5 C55.347,45.25 53.287,49.525 52.107,52 C48.637,59.276 44.878,65.441 43.388,66.3 C42.624,66.74 42,67.977 42,69.05 C42,70.689 42.704,71 46.418,71 C53.29,71 54,71.56 54,76.985 C54,80.005 53.45,82.212 52.5,83 C51.675,83.685 51,85.096 51,86.136 C51,87.176 50.465,88.884 49.81,89.932 C48.3,92.35 50.192,95.024 52.91,94.313 C54.11,93.999 56.531,95.419 59.906,98.417 C62.744,100.937 65.692,103 66.457,103 C67.221,103 69.186,104.127 70.824,105.505 C72.461,106.883 75.308,108.298 77.15,108.649 C78.993,109 81.305,110.123 82.289,111.144 C84.795,113.744 85.675,113.487 87.509,109.621 C88.391,107.763 90.1,105.33 91.306,104.214 C96.53,99.383 112.405,93.348 118.687,93.804 C122.45,94.078 123.133,94.552 125.437,98.482 C128.025,102.899 128.864,109.348 127,110.5 C126.45,110.84 126,112.598 126,114.406 C126,116.274 125.124,118.704 123.972,120.033 C122.265,122.001 122.158,122.587 123.298,123.727 C124.331,124.76 125.31,124.833 127.411,124.034 C130.44,122.882 132,123.378 132,125.493 C132,126.249 133.237,127.01 134.75,127.184 C136.833,127.423 137.571,128.106 137.792,130 C137.952,131.375 138.574,133.482 139.174,134.683 C141.679,139.691 137.537,142.367 132.74,138.841 C130.958,137.531 128.311,135.856 126.858,135.119 C125.348,134.352 123.562,132.112 122.688,129.889 C121.848,127.75 120.717,126 120.175,126 C119.28,126 116.179,128.284 107.429,135.39 C103.194,138.829 94.732,139.972 91.975,137.477 C90.889,136.494 90,135.137 90,134.46 C90,133.784 88.987,132.553 87.75,131.725 C86.513,130.897 83.455,128.242 80.957,125.824 C78.458,123.407 74.183,120.596 71.457,119.578 C68.73,118.56 65.753,117.079 64.839,116.289 C63.926,115.498 61.089,114.71 58.536,114.538 C54.403,114.26 53.659,114.542 51.759,117.113 C50.585,118.701 49.095,120 48.449,120 C47.804,120 45.576,121.35 43.5,123 C41.424,124.65 39.105,126 38.348,126 C37.59,126 35.326,124.493 33.317,122.651 C30.501,120.071 29.658,118.523 29.64,115.901 C29.618,112.398 31.98,102.888 33.094,102 C34.244,101.083 37,95.121 37,93.55 C37,91.679 34.81,91.578 30.223,93.236 C27.007,94.399 26.66,94.307 24.402,91.681 C21.14,87.889 21.181,82.728 24.5,79.409 C25.875,78.034 27,76.324 27,75.61 C27,74.895 27.9,73.495 29,72.5 C30.1,71.505 31,70.067 31,69.305 C31,68.542 31.983,66.475 33.185,64.71 C38.226,57.304 39,56.038 39,55.198 C39,54.453 44.004,43.672 47.092,37.764 C47.592,36.809 48,34.698 48,33.073 C48,31.448 48.493,29.813 49.096,29.441 C49.746,29.039 49.949,27.389 49.596,25.382 C49.268,23.522 48.72,20.373 48.377,18.385 C47.96,15.963 48.172,14.511 49.021,13.987 Z M153.123,2.626 C156.122,0.526 156.221,0.541 159.035,3.537 C161.087,5.721 161.421,7.08 161.439,13.287 C161.457,19.598 160.983,21.5 157.65,28.5 C154.058,36.042 152.988,38.429 151.597,42 C151.276,42.825 150.463,44.266 149.792,45.202 C148.336,47.231 149.521,48.879 151.217,47.183 C152.993,45.407 157.48,45.758 160.099,47.879 C162.174,49.56 162.393,50.486 162.167,56.621 C162.022,60.535 161.288,64.438 160.457,65.706 C159.656,66.929 159,68.819 159,69.906 C159,70.993 158.617,72.119 158.148,72.408 C157.68,72.698 156.485,75.087 155.493,77.717 C154.5,80.348 152.859,83.573 151.844,84.885 C150.83,86.197 150,87.884 150,88.635 C150,91.572 153.948,89.753 158.432,84.75 C164.582,77.889 163.971,78.501 168.132,75.03 C170.13,73.363 172.569,72 173.553,72 C175.495,72 179,74.733 179,76.247 C179,76.763 179.9,78.329 181,79.727 C183.235,82.568 183.858,92.742 181.915,94.685 C181.319,95.281 180.981,96.834 181.165,98.135 C181.467,100.267 181.935,100.472 185.915,100.213 C189.742,99.965 190.784,100.364 193.75,103.213 C198.808,108.073 200.004,111.05 199.971,118.7 C199.944,124.849 199.651,125.819 196.915,128.828 C194.172,131.845 193.522,132.095 189.986,131.498 C185.634,130.762 184.182,128.397 185.998,125.004 C186.608,123.864 186.97,120.81 186.803,118.216 C186.541,114.136 186.184,113.455 184.155,113.168 C180.121,112.597 176.319,114.969 171.56,121.028 C169.032,124.245 166.072,127.16 164.982,127.506 C163.892,127.852 163,128.522 163,128.996 C163,130.353 160.001,133 158.463,133 C157.697,133 155.532,131.65 153.653,130 C151.774,128.35 149.778,127 149.219,127 C147.774,127 143.785,119.002 144.414,117.364 C145.336,114.96 156,116.515 156,119.054 C156,119.456 156.724,120.064 157.608,120.403 C158.74,120.837 161.703,118.454 167.608,112.359 C172.224,107.596 176,103.395 176,103.024 C176,102.652 174.875,101.292 173.5,100 C172.125,98.708 171,97.034 171,96.28 C171,93.959 163.953,95.938 159.5,99.509 C155.239,102.927 147.397,106 142.937,106 C138.588,106 136.676,102.1 137.508,94.927 C137.884,91.694 139.048,87.368 140.095,85.313 C141.143,83.258 142,80.927 142,80.133 C142,79.339 143.028,77.296 144.284,75.594 C146.664,72.37 149,67.594 149,65.953 C149,64.372 145.703,64.884 142.226,67.004 C140.425,68.102 138.33,69 137.571,69 C135.241,69 130.848,60.456 131.612,57.41 C132.461,54.029 137.683,44.108 139.987,41.5 C140.959,40.4 142.325,37.7 143.023,35.5 C143.722,33.3 145.296,29.475 146.521,27 C151.614,16.708 152.129,14.88 151.454,9.48 C150.865,4.76 151.027,4.095 153.123,2.626 Z M108.577,222.875 C108.28,223.356 105.666,224.003 102.768,224.313 C99.871,224.623 94.125,225.579 90,226.437 C85.875,227.295 80.25,228.005 77.5,228.014 C72.842,228.029 67.177,229.442 64.247,231.319 C63.558,231.76 60.97,231.818 58.497,231.447 C55.456,230.991 54,231.134 54,231.886 C54,232.499 53.1,233 52,233 C50.889,233 50,233.667 50,234.5 C50,235.356 50.9,236 52.096,236 C53.248,236 55.386,236.821 56.846,237.825 C58.306,238.829 60.962,240.234 62.75,240.947 C64.537,241.659 66,242.608 66,243.054 C66,243.5 67.013,244.144 68.25,244.484 C71.06,245.257 79.624,248.782 83.154,250.619 C84.614,251.379 86.551,252 87.457,252 C88.364,252 90.762,253.125 92.785,254.5 C98.694,258.515 100.779,257.925 108.336,250.097 C112.001,246.301 115,242.337 115,241.288 C115,240.24 115.661,238.509 116.468,237.441 C118.135,235.237 118.456,229.827 117.073,227.236 C116.563,226.281 115.902,224.713 115.604,223.75 C115.032,221.902 109.597,221.225 108.577,222.875 Z M97.536,7.96 C100.328,4.876 104.079,5.49 108.03,9.679 C111.177,13.016 111.502,13.909 111.521,19.281 C111.541,24.706 111.772,25.325 114.271,26.634 C115.772,27.42 117.006,28.612 117.014,29.282 C117.021,29.952 117.282,31.448 117.593,32.607 C118.071,34.387 117.175,35.221 111.829,37.971 C108.348,39.762 104.15,42.025 102.5,43 C100.85,43.974 98.375,45.107 97,45.517 C95.625,45.927 93.306,47.103 91.846,48.131 C90.386,49.159 88.111,50 86.79,50 C85.469,50 82.864,51.125 81,52.5 C79.136,53.875 77.242,55 76.791,55 C75.743,55 72.009,48.917 72.004,47.202 C71.998,45.165 76.844,41.193 80.246,40.446 C81.944,40.073 84.721,38.922 86.417,37.888 C88.113,36.854 90.297,36.006 91.271,36.004 C92.246,36.002 94.833,34.815 97.021,33.367 C100.121,31.316 101.04,30.045 101.183,27.617 C101.524,21.821 101.091,19.726 99.117,17.61 C96.095,14.372 95.427,10.29 97.536,7.96 Z M18.632,130.516 C19.454,128.375 26.293,129.297 30.21,132.077 C31.7,133.135 33.552,134 34.325,134 C35.098,134 36.933,134.946 38.403,136.103 C41.01,138.153 41.207,138.163 46.288,136.524 C49.155,135.599 52.497,134.203 53.715,133.421 C56.461,131.659 60.356,131.632 65.259,133.339 C69.822,134.928 76,140.202 76,142.507 C76,143.43 76.894,145.321 77.986,146.71 C79.079,148.099 79.727,149.632 79.427,150.118 C78.503,151.613 73.398,151.094 70.885,149.25 C62.849,143.353 52.815,141.196 49.363,144.623 C47.001,146.969 42.565,149 39.807,149 C38.652,149 35.543,146.975 32.897,144.5 C29.245,141.085 27.292,139.992 24.793,139.968 C19.071,139.913 16.525,136.007 18.632,130.516 Z M98.104,55.595 C102.604,49.874 109.86,55.095 107.002,61.996 C106.257,63.794 104.515,66.611 103.131,68.256 C100.699,71.147 100.678,71.291 102.499,72.623 C103.535,73.38 105.232,74 106.271,74 C107.879,74 108.054,74.481 107.452,77.25 C106.729,80.574 103.597,84.956 97.778,90.783 C94.934,93.631 94.036,93.985 91,93.449 C86.483,92.651 84,90.371 84,87.019 C84,84.312 86.16,81.822 91.25,78.662 C92.763,77.722 94,76.064 94,74.977 C94,73.423 93.321,73 90.829,73 C89.085,73 86.835,72.255 85.829,71.345 C83.449,69.191 83.399,64.123 85.75,63.396 C86.713,63.098 88.4,62.357 89.5,61.75 C90.6,61.142 92.507,60.117 93.738,59.472 C94.969,58.827 96.934,57.082 98.104,55.595 Z M103.725,111.314 C97.272,114.991 91.685,121.015 92.576,123.336 C93.752,126.403 96.285,126.128 99.964,122.535 C101.955,120.591 104.465,118.99 105.542,118.978 C109.143,118.937 114,113.532 114,109.566 C114,107.05 110.023,107.727 103.725,111.314 Z M0,147.531 C0,143.977 0.418,142 1.169,142 C1.812,142 4.73,143.35 7.654,145 C10.578,146.65 13.625,148 14.426,148 C16.748,148 17.081,149.53 15.464,152.771 C14.289,155.127 13.146,155.889 10.23,156.257 C8.096,156.527 5.858,156.21 5,155.516 C4.175,154.85 2.712,154.025 1.75,153.683 C0.369,153.194 0,151.896 0,147.531 Z M42.667,102.667 C42.3,103.033 42,104.206 42,105.274 C42,106.632 42.474,107.032 43.582,106.607 C44.452,106.273 45.352,106 45.582,106 C45.812,106 46,105.1 46,104 C46,102.073 44.043,101.29 42.667,102.667 Z"/>
</svg>

