<svg xmlns="http://www.w3.org/2000/svg" width="300" height="300" viewBox="0 0 300 300" version="1.1">
  <defs/>
  <path d="M122.694,132.732 C124.787,132.514 126.725,132.278 127,132.208 C127.275,132.137 129.975,133.411 133,135.039 C136.025,136.668 139.047,138 139.715,138 C141.351,138 142.623,140.626 143.474,145.76 C144.131,149.731 143.935,150.265 140.59,153.61 C138.615,155.585 137,158.075 137,159.145 C137,160.902 135.156,163.103 130.595,166.789 C128.529,168.459 128.553,173.388 130.642,176.577 C131.545,177.955 135.344,182.267 139.084,186.158 C145.3,192.625 146.168,193.192 149.192,192.765 C152.995,192.228 161.56,190.097 164.5,188.957 C165.6,188.531 169.536,188.197 173.246,188.216 C176.957,188.235 180.598,187.748 181.338,187.134 C182.079,186.52 182.907,186.24 183.179,186.512 C183.66,186.993 207.16,184.696 217.774,183.13 C220.674,182.702 223.577,181.823 224.224,181.176 C225.976,179.424 233.048,179.734 235.171,181.655 C237.741,183.98 237.456,186.055 234.056,189.777 C231.655,192.406 230.356,193 227.007,193 C224.748,193 221.686,193.604 220.2,194.342 C218.376,195.249 212.83,195.739 203.102,195.853 C193.266,195.969 185.612,196.652 178.945,198.011 C173.578,199.105 167.682,200.015 165.843,200.034 C164.004,200.053 160.7,200.937 158.5,202 C156.3,203.063 153.713,203.947 152.75,203.966 C151.262,203.995 150.996,205.01 150.976,210.75 C150.963,214.463 150.483,219.3 149.91,221.5 C149.336,223.7 148.502,227.218 148.055,229.318 C147.609,231.418 146.047,234.385 144.584,235.912 C143.067,237.496 141.663,240.365 141.316,242.594 C140.981,244.742 139.951,247.625 139.028,249 C138.105,250.375 136.765,252.965 136.051,254.755 C135.338,256.545 133.121,259.343 131.127,260.974 C129.132,262.604 126.553,264.852 125.395,265.969 C124.237,267.086 122.8,268 122.202,268 C120.217,268 113.553,263.728 109.858,260.088 C107.854,258.115 105.737,256.05 105.153,255.5 C104.569,254.95 101.198,251.463 97.664,247.75 C93.818,243.711 90.415,241 89.191,241 C88.066,241 86.26,239.875 85.179,238.5 C84.097,237.125 82.679,236 82.028,236 C81.377,236 77.569,234.425 73.567,232.5 C69.565,230.575 65.662,228.986 64.895,228.968 C64.128,228.951 62.669,228.307 61.653,227.537 C60.637,226.767 59.232,226.357 58.532,226.626 C56.496,227.407 54.241,224.383 53.473,219.843 C52.624,214.817 53.404,214.039 61.757,211.576 C64.916,210.645 68.38,209.398 69.455,208.805 C70.53,208.212 74.13,207.11 77.455,206.354 C87.537,204.064 110.01,199.23 118.5,197.526 C130.871,195.041 131.001,195.007 130.992,194.231 C130.987,193.829 127.612,189.933 123.492,185.574 C117.247,178.968 116,177.093 116,174.309 C116,169.919 120.783,161.581 127.055,155.04 C133.272,148.555 133.017,146.82 125.494,144.454 C120.807,142.98 119.92,142.286 118.945,139.333 C117.402,134.659 118.233,133.195 122.694,132.732 Z M153.222,39.913 C155.994,36.165 157.875,36.239 161.737,40.25 C164.49,43.109 164.721,43.767 163.661,45.725 C162.3,48.238 156.985,52.441 152.5,54.549 C150.85,55.325 148.825,56.367 148,56.864 C147.175,57.361 145.337,58.306 143.916,58.964 C142.494,59.622 140.06,61.174 138.507,62.413 C135.842,64.538 135.665,65.169 135.365,73.582 C135.191,78.487 135.526,84.614 136.111,87.198 C136.971,90.997 136.884,92.432 135.657,94.698 C134.82,96.244 133.67,102.573 133.092,108.815 C131.781,122.963 130.109,126 123.632,126 C119.176,126 117,124.679 117,121.974 C117,121.08 115.827,119.258 114.394,117.924 C112.961,116.591 111.392,114.476 110.909,113.224 C109.098,108.536 107.346,109.502 95.177,121.902 C87.46,129.766 82.569,134 81.202,134 C80.046,134 78.699,134.716 78.209,135.59 C76.953,137.835 72.713,136.987 71.513,134.25 C70.97,133.012 70.182,132 69.763,132 C69.343,132 69,131.143 69,130.095 C69,128.899 71.569,126.285 75.894,123.079 C79.737,120.23 83.469,116.538 84.328,114.734 C85.176,112.955 87.405,110.679 89.282,109.675 C91.159,108.671 94.225,105.991 96.097,103.719 C103.511,94.718 106.778,91.831 109.166,92.17 C111.983,92.57 114.402,97.122 116.183,105.374 C117.156,109.879 117.998,111.498 119.797,112.317 C123.74,114.114 124.251,111.987 124.444,93 C124.475,89.975 124.876,86.918 125.336,86.206 C125.819,85.458 125.692,84.334 125.035,83.542 C124.409,82.788 123.99,81.12 124.104,79.836 C124.652,73.648 123.511,72.784 118.331,75.465 C111.05,79.233 100.244,84.002 98.943,84.022 C98.15,84.034 96.375,84.924 95,86 C93.625,87.076 91.15,87.972 89.5,87.993 C86.445,88.031 79.595,90.072 78.352,91.315 C77.279,92.388 72.19,92.117 71.468,90.948 C71.11,90.37 69.396,90.032 67.659,90.198 C64.65,90.486 64.485,90.316 64.182,86.618 C64.007,84.483 64.254,82.346 64.731,81.869 C65.208,81.392 68.502,80.796 72.049,80.545 C75.597,80.294 80.975,79.13 84,77.958 C87.025,76.786 90.85,75.47 92.5,75.034 C94.15,74.598 96.85,73.514 98.5,72.627 C100.15,71.739 101.95,71.008 102.5,71.002 C103.904,70.987 112.367,66.614 118.053,62.966 L122.834,59.898 L122.277,50.564 C121.728,41.369 121.758,41.205 124.293,39.544 C128.051,37.082 130.952,38.877 131.148,43.785 C131.229,45.828 131.342,48.392 131.398,49.481 C131.565,52.735 134.243,52.296 139.883,48.087 C142.813,45.901 146.528,43.823 148.139,43.469 C149.751,43.116 152.038,41.515 153.222,39.913 Z M126,206.716 C123.525,206.918 119.592,207.965 117.261,209.042 C114.929,210.119 111.005,211 108.541,211 C105.885,211 101.833,212.018 98.594,213.5 C95.576,214.88 91.279,216 88.999,216 C84.335,216 75,219.626 75,221.438 C75,222.093 76.588,223.387 78.528,224.312 C86.008,227.879 96.37,235.538 105.74,244.425 C116.603,254.729 119.578,256.185 122.712,252.73 C125.854,249.267 132.461,237.734 134.384,232.355 C135.338,229.685 136.542,226.719 137.06,225.764 C137.577,224.809 138,222.655 138,220.978 C138,219.302 138.637,216.933 139.416,215.715 C140.652,213.782 140.622,213.022 139.181,209.75 C138.582,208.39 138.222,207.494 137.572,206.938 C136.273,205.83 133.818,206.079 126,206.716 Z M141.168,100.044 C143.005,98.927 145.421,98.306 146.918,98.566 C151.134,99.298 164.862,101.028 174.404,102.029 C179.301,102.543 184.101,103.215 185.07,103.522 C186.039,103.83 187.121,103.613 187.475,103.041 C187.829,102.468 188.991,102 190.059,102 C191.757,102 192,102.725 192,107.8 C192,110.99 191.46,114.14 190.8,114.8 C189.253,116.347 181.512,116.351 178.684,114.807 C177.483,114.151 172.963,113.549 168.641,113.47 C161.69,113.343 160.384,113.009 157.343,110.582 C154.308,108.161 153.543,107.964 150.836,108.907 C147.704,109.999 144.394,108.864 139.75,105.106 C137.298,103.122 137.542,102.249 141.168,100.044 Z M133.203,2.256 C133.776,1.565 135.427,1.015 136.872,1.033 C138.902,1.058 139.89,1.896 141.214,4.716 C142.912,8.334 142.9,8.424 139.812,14.893 C138.099,18.483 135.303,22.802 133.599,24.491 C131.894,26.18 128.477,29.927 126.004,32.816 C123.324,35.949 120.301,38.383 118.519,38.845 C116.141,39.461 115.305,40.424 114.426,43.56 C112.758,49.507 108.996,49.635 107.621,43.792 C107.099,41.579 107.624,40.443 110.491,37.575 C112.421,35.646 114,33.387 114,32.556 C114,31.726 115.125,30.309 116.5,29.408 C117.875,28.507 119,27.235 119,26.581 C119,25.927 120.575,23.866 122.5,22 C124.425,20.134 126,18.237 126,17.784 C126,17.331 127.053,15.282 128.34,13.23 C129.627,11.179 131.013,8.153 131.42,6.506 C131.828,4.859 132.63,2.946 133.203,2.256 Z"/>
</svg>

