<svg xmlns="http://www.w3.org/2000/svg" width="300" height="300" viewBox="0 0 300 300" version="1.1">
  <defs/>
  <path d="M138.786,3.709 L141.319,-0.081 L148.366,0.209 L155.412,0.5 L157.202,5.5 C158.186,8.25 158.994,11.76 158.996,13.3 C158.998,14.839 159.719,17.49 160.598,19.189 C161.815,21.542 162.025,23.617 161.481,27.889 C160.343,36.823 160.066,53.256 161.024,55.045 C161.552,56.032 161.341,60.133 160.491,65.384 C159.412,72.05 159.349,74.72 160.221,76.793 C160.848,78.282 161.42,81.198 161.493,83.274 C161.603,86.434 161.096,87.452 158.379,89.524 C156.594,90.886 154.215,92 153.092,92 C151.646,92 150.459,93.298 149.025,96.445 C147.911,98.89 147,101.563 147,102.386 C147,103.209 146.55,104.16 146,104.5 C145.45,104.84 145,106.206 145,107.536 C145,110.044 147.515,112.2 152,113.537 C153.375,113.947 156.065,115.569 157.978,117.141 C159.891,118.714 161.876,120 162.39,120 C163.311,120 173.027,125.877 174,127.023 C174.275,127.347 176.3,128.509 178.5,129.606 C195.347,138.007 202.597,148.046 194.583,151.875 C190.62,153.769 186.919,152.34 184.939,148.151 C183.89,145.931 181.972,144.219 179.087,142.928 C176.727,141.871 173.098,139.662 171.023,138.018 C168.948,136.375 163.39,133.044 158.672,130.617 C153.954,128.189 148.835,125.341 147.297,124.288 C142.643,121.101 136.348,119.466 134.532,120.973 C133.69,121.673 133,122.886 133,123.67 C133,124.455 131.425,127.558 129.5,130.567 C127.575,133.577 126,136.447 126,136.947 C126,137.446 124.964,138.675 123.697,139.677 C122.43,140.68 121.094,142.287 120.728,143.25 C120.349,144.248 119.028,145 117.654,145 C116.329,145 114.726,145.625 114.092,146.389 C113.458,147.153 111.74,148.008 110.276,148.288 C108.224,148.68 106.968,148.106 104.806,145.793 C103.263,144.14 102,142.049 102,141.144 C102,139.132 96.169,134.332 92.654,133.449 C91.239,133.094 89.558,132.173 88.919,131.402 C88.254,130.601 85.93,130 83.5,130 C80.879,130 78.752,129.406 77.96,128.452 C75.89,125.957 72.765,127.162 70.596,131.291 C67.903,136.417 47.524,156.83 44.289,157.642 C42.864,158 40.918,157.805 39.964,157.21 C39.011,156.614 37.291,156.373 36.144,156.673 C32.691,157.576 31.352,153.234 33.754,148.928 C35.354,146.061 36.38,145.403 40.023,144.908 C43.075,144.493 44.846,143.61 45.939,141.958 C46.798,140.662 49.075,138.228 51,136.55 C56.773,131.519 63,124.628 63,123.272 C63,121.517 60.515,121.674 58.978,123.527 C56.657,126.324 48.753,131.119 47.352,130.582 C45.535,129.884 43.827,125.274 44.202,122.082 C44.366,120.687 45.417,119.086 46.537,118.523 C47.658,117.96 49.803,116.6 51.304,115.5 C53.953,113.559 54.001,113.353 52.93,108.5 C52.323,105.75 51.874,102.6 51.933,101.5 C52.049,99.297 52.596,82.631 53.31,59.5 C53.564,51.25 53.48,38.65 53.123,31.5 C52.375,16.536 52.814,12.15 55.214,10.637 C58.18,8.766 62.398,12.804 63,18.091 C63.698,24.223 66.08,24.426 69.469,18.643 C72.655,13.207 73.567,12.431 77.838,11.517 C80.907,10.86 81.531,11.184 85.588,15.54 C88.015,18.146 90,21.145 90,22.205 C90,23.264 90.52,25.104 91.156,26.292 C93.389,30.464 94.155,35.653 95.099,53 C96.375,76.451 96.365,88.035 95.067,89.333 C94.48,89.92 94,91.289 94,92.375 C94,94.572 87.813,107.626 84.277,112.89 C83.025,114.754 82,117.116 82,118.14 C82,119.741 82.813,120 87.845,120 C92.42,120 94.083,120.435 95.5,122 C96.495,123.1 97.864,124 98.541,124 C100.599,124 104.869,126.566 107.456,129.358 C112.19,134.466 119.196,132.268 120.603,125.235 C120.948,123.512 122.078,121.334 123.115,120.396 C124.152,119.458 125,118.189 125,117.577 C125,116.965 126.125,114.809 127.5,112.785 C130.547,108.301 130.852,104 128.122,104 C125.826,104 124.381,102.365 123.47,98.737 C122.491,94.836 125.184,91 128.901,91 C130.471,91 132.315,90.325 133,89.5 C133.685,88.675 134.752,87.986 135.372,87.968 C137.127,87.919 141.698,83.527 142.446,81.172 C142.816,80.006 144.442,78.11 146.059,76.958 C149.243,74.691 150.214,70 147.5,70 C146.675,70 146,70.403 146,70.895 C146,71.388 144.313,72.655 142.25,73.711 C134.854,77.499 131.207,80.101 130.728,81.934 C130.46,82.958 129.045,84.58 127.583,85.538 C125.013,87.221 124.848,87.206 122.573,85.068 L120.22,82.858 L120.088,51.276 C119.963,21.276 119.852,19.509 117.877,15.994 C115.909,12.493 115.885,12.124 117.424,9.147 C119.541,5.054 124.466,4.738 127.972,8.47 C130.242,10.886 130.358,10.902 133.272,9.22 C134.911,8.274 137.392,5.794 138.786,3.709 Z M109.23,156.551 C112.13,154.52 115.44,154.583 117.566,156.709 C119.059,158.202 119.191,159.808 118.609,169.391 C118.242,175.427 117.562,180.845 117.097,181.432 C116.632,182.02 115.97,183.963 115.626,185.75 C115.282,187.537 114.724,190.35 114.387,192 C113.864,194.557 114.076,195 115.821,195 C116.948,195 118.994,194.573 120.368,194.05 C122.723,193.155 122.833,192.785 122.295,187.569 C121.648,181.296 122.825,179 126.688,179 C130.678,179 132.855,180.785 134.154,185.12 C134.828,187.369 135.969,189.435 136.691,189.712 C137.412,189.988 141.039,189.496 144.751,188.617 C148.463,187.738 155.22,186.576 159.767,186.035 C164.314,185.494 168.944,184.565 170.055,183.97 C171.166,183.376 175.446,182.244 179.565,181.456 C183.684,180.668 188.37,179.343 189.978,178.512 C191.585,177.68 193.865,177 195.043,177 C196.221,177 198.329,176.1 199.727,175 C202.676,172.68 204.558,172.515 208.293,174.25 C210.929,175.474 211.906,178.322 210.077,179.452 C209.569,179.766 208.865,181.337 208.513,182.942 C207.602,187.087 205.913,188.101 199.31,188.465 C192.815,188.823 185.849,190.665 184.828,192.295 C184.448,192.899 180.453,193.434 175.669,193.521 C169.325,193.635 166.773,194.084 165.559,195.298 C163.731,197.127 157.693,198.546 156.054,197.533 C153.137,195.731 132.58,202.665 130.954,206 C126.786,214.547 124.343,219.005 122.358,221.683 C118.588,226.773 119.182,229.137 124.892,231.756 C127.582,232.99 130.62,234.01 131.642,234.022 C132.664,234.034 134.625,234.924 136,236 C137.375,237.076 139.781,237.966 141.346,237.978 C142.911,237.99 145.601,239.012 147.325,240.25 C151.047,242.923 153.765,244.576 156.529,245.848 C159.496,247.214 174,261.102 174,262.576 C174,263.268 174.417,263.983 174.926,264.167 C175.435,264.35 176.145,265.682 176.504,267.127 C177.039,269.284 176.621,270.133 174.168,271.88 C170.632,274.398 168.488,273.843 166.439,269.881 C164.982,267.064 162.382,264.416 154.646,257.871 C150.332,254.221 133.745,246.407 128.145,245.387 C126.14,245.022 123.375,243.97 122,243.051 C118.122,240.457 110.861,237.974 109.5,238.777 C107.597,239.899 101.355,245.065 96.242,249.75 C93.691,252.088 90.796,254 89.809,254 C88.823,254 86.813,255.35 85.342,257 C83.872,258.65 82.139,260 81.49,260 C80.841,260 79.495,260.9 78.5,262 C77.505,263.1 75.886,264 74.904,264 C73.922,264 72.871,264.399 72.57,264.887 C72.269,265.374 70.381,266.081 68.375,266.458 C66.369,266.834 63.476,268.067 61.948,269.197 C59.839,270.756 58.363,271.091 55.834,270.586 C54,270.22 50.748,269.6 48.606,269.21 C41.288,267.876 41.275,262.521 48.592,263.709 C50.896,264.082 52.687,263.649 54.678,262.238 C56.23,261.137 59.75,259.478 62.5,258.55 C65.25,257.622 68.4,256.046 69.5,255.047 C70.6,254.047 72.403,252.958 73.506,252.625 C74.61,252.292 78.21,249.962 81.506,247.446 C84.803,244.931 89.889,241.068 92.81,238.861 C96.793,235.851 98.042,234.305 97.81,232.674 C97.603,231.225 96.666,230.385 95,230.154 C91.238,229.634 89.998,228.133 90.018,224.128 C90.03,221.775 91.084,218.954 93.018,216.1 C94.658,213.679 96,211.303 96,210.818 C96,209.257 93.219,208.812 90.974,210.014 C89.774,210.656 85.576,211.558 81.646,212.017 C77.716,212.476 72.25,213.348 69.5,213.954 C64.095,215.145 56.057,216.42 43.598,218.06 C39.251,218.632 34.173,219.736 32.314,220.513 C26.068,223.123 20.765,218.003 24.257,212.735 C25.52,210.831 27.204,210.331 35.62,209.362 C56.997,206.9 63.752,205.933 70,204.44 C73.575,203.586 78.525,202.756 81,202.594 C83.475,202.433 88.65,201.577 92.5,200.692 C100.186,198.925 103.986,195.705 103.995,190.95 C103.998,189.548 104.404,187.973 104.898,187.45 C105.804,186.49 106.634,181.88 107.639,172.219 C108.046,168.306 107.768,166.294 106.565,164.458 C104.707,161.623 105.547,159.131 109.23,156.551 Z M76.2,26.2 C75.54,26.86 75,27.933 75,28.585 C75,30.33 70.461,33 67.495,33 L64.919,33 L65.21,41.145 C65.442,47.668 65.854,49.509 67.28,50.395 C68.771,51.321 69.593,50.866 72.35,47.593 C75.492,43.862 75.833,43.718 79.936,44.374 L84.232,45.061 L83.508,42.28 C83.111,40.751 82.59,36.824 82.351,33.553 C81.785,25.781 79.432,22.968 76.2,26.2 Z M78.203,83.986 C76.364,87.211 70.755,90 66.109,90 L63.259,90 L63.155,98 C63.098,102.4 63.315,106 63.637,106 C63.959,106 66.31,104.297 68.861,102.215 C71.413,100.133 75.145,97.341 77.155,96.011 C81.747,92.971 84,89.214 84,84.596 C84,81.639 83.636,81 81.953,81 C80.729,81 79.223,82.199 78.203,83.986 Z M142.206,18.605 C139.893,19.985 138,21.684 138,22.382 C138,23.08 136.875,24.708 135.5,26 C132.37,28.941 131.969,35.378 134.821,36.904 C136.31,37.701 137.769,36.823 142.821,32.09 C148.412,26.852 149,25.918 149,22.273 C149,16.456 147.326,15.552 142.206,18.605 Z M143.74,47.657 C140.561,54.267 138.487,55.27 135.544,51.623 C134.266,50.04 132.765,49.027 132.206,49.373 C131.053,50.085 131.098,62.431 132.257,63.591 C133.564,64.897 141.632,60.145 145.395,55.852 C148.358,52.472 149,50.961 149,47.37 C149,41.446 146.667,41.573 143.74,47.657 Z M75.7,62.075 C73.096,63.8 70.057,65.021 68.779,64.856 C67.525,64.694 65.938,64.912 65.25,65.34 C63.513,66.421 63.683,73.209 65.505,75.559 C66.953,77.426 67.193,77.306 71.811,72.392 C74.568,69.458 78.184,66.764 80.306,66.064 C83.444,65.028 84,64.405 84,61.922 C84,58.046 81.719,58.088 75.7,62.075 Z M112.408,204.893 C108.855,207.059 103,216.763 103,220.485 C103,224.407 107.348,223.916 110.235,219.668 C118.159,208.009 120.023,204.847 119.486,203.978 C118.552,202.466 115.806,202.821 112.408,204.893 Z"/>
</svg>

