<svg xmlns="http://www.w3.org/2000/svg" width="300" height="300" viewBox="0 0 300 300" version="1.1">
  <defs/>
  <path d="M214,148.606 C218.259,147.89 222.845,148.781 228.381,151.4 C233.005,153.588 233.971,154.572 235.79,158.948 C237.679,163.495 237.79,164.852 236.944,173.032 C236.429,178.011 235.331,183.393 234.504,184.993 C233.677,186.592 233,188.614 233,189.486 C233,190.357 232.368,192.067 231.596,193.285 C230.824,194.503 229.889,197.387 229.518,199.692 C229.147,201.998 228.204,204.416 227.422,205.065 C226.64,205.714 226,206.931 226,207.769 C226,210.381 219.166,219.734 215.685,221.885 C213.861,223.013 211.541,224.85 210.529,225.968 C209.346,227.276 207.409,228.011 205.095,228.032 C203.118,228.049 200.675,228.689 199.667,229.453 C198.092,230.646 197.22,230.615 193.494,229.234 C187.323,226.947 186.404,228.049 185.751,238.513 C185.394,244.227 184.64,247.9 183.451,249.716 C182.301,251.47 181.563,254.885 181.343,259.458 C180.745,271.95 180.157,278.937 179.633,279.784 C179.352,280.24 179.207,284.994 179.311,290.35 L179.5,300.088 L169.5,299.5 L169.778,294 C171.048,268.84 172.253,258.776 178.073,224.707 C179.084,218.785 179.026,217.686 177.616,216.129 C175.453,213.738 175.539,213.307 178.843,210.004 C181.53,207.317 181.721,206.541 182.338,195.83 C183.608,173.792 182.902,169.669 178.818,175.275 C177.785,176.694 175.495,178.172 173.73,178.559 C169.156,179.564 163.738,183.905 164.562,185.905 C164.923,186.782 165.601,191.325 166.068,196 C167.402,209.343 168.487,215.322 170.006,217.694 C171.247,219.632 171.194,220.128 169.551,221.944 C167.328,224.4 165.87,224.501 161.95,222.474 C159.534,221.225 159,220.314 159,217.442 C159,215.514 158.318,212.303 157.484,210.307 C156.65,208.311 156.21,205.913 156.507,204.978 C157.142,202.977 154.469,192.069 152.979,190.579 C152.274,189.874 151.333,189.936 149.989,190.775 C148.91,191.449 147.566,192 147.002,192 C145.64,192 136.041,198.302 136.018,199.211 C136.008,199.602 136.842,200.727 137.871,201.711 C138.9,202.695 140.312,205.109 141.008,207.075 C142.108,210.179 142.044,211.003 140.523,213.325 C138.489,216.429 134.293,216.966 133.292,214.25 C132.937,213.287 131.691,211.15 130.523,209.5 C129.354,207.85 127.79,205.276 127.046,203.78 C126.302,202.283 122.448,197.963 118.482,194.178 C113.024,188.971 111.141,186.471 110.738,183.899 C109.568,176.44 116.153,176.819 122.511,184.578 C124.503,187.01 126.769,189 127.545,189 C128.321,189 135.154,185.895 142.728,182.1 C150.303,178.305 158.152,174.682 160.17,174.049 C162.189,173.416 164.379,172.248 165.039,171.453 C165.698,170.659 169.548,168.181 173.595,165.948 C177.641,163.714 181.215,161.462 181.535,160.943 C181.856,160.424 182.93,160 183.922,160 C184.913,160 187.424,158.65 189.5,157 C191.576,155.35 194.248,154 195.438,154 C196.627,154 198.028,153.626 198.55,153.169 C199.527,152.314 209.553,149.353 214,148.606 Z M170.885,14.857 C173.578,12.76 179.975,12.375 181.8,14.2 C183.726,16.126 183.188,20.479 180.75,22.706 C179.512,23.836 176.356,25.692 173.736,26.83 L168.973,28.9 L169.355,33.496 C169.598,36.405 170.521,38.925 171.869,40.361 C173.235,41.815 174,43.931 174,46.255 C174,48.25 174.424,50.144 174.943,50.465 C175.462,50.785 181.24,49.462 187.783,47.524 C202.02,43.307 208.696,42.951 211.701,46.25 C212.828,47.487 214.256,49.483 214.875,50.684 C216.269,53.392 216.344,58.669 215,59.5 C214.45,59.84 214,60.81 214,61.655 C214,62.5 213.166,64.386 212.146,65.846 C211.126,67.306 210.017,69.64 209.681,71.034 C209.345,72.427 206.58,76.444 203.535,79.959 C200.491,83.475 198,86.806 198,87.361 C198,87.917 198.841,89.3 199.869,90.436 C200.897,91.571 202.033,93.748 202.394,95.274 C202.919,97.494 202.507,98.553 200.331,100.569 C197.128,103.537 193.897,103.405 192.513,100.25 C191.727,98.458 190.709,97.998 187.513,97.989 C185.306,97.983 181.871,97.709 179.88,97.379 L176.26,96.781 L175.6,101.14 C174.812,106.343 171.076,113.362 168.868,113.787 C168,113.954 166.534,112.938 165.611,111.529 C164.064,109.168 164.056,108.603 165.508,104.325 C167.728,97.785 166.166,97.035 160.892,102.11 C158.476,104.434 154.18,107.822 151.344,109.639 C148.508,111.455 144.695,114.305 142.871,115.971 C141.047,117.637 139.254,119 138.887,119 C138.18,119 133.974,110.552 134.038,109.261 C134.059,108.842 136.084,106.927 138.538,105.005 C143.332,101.25 144.239,99 140.96,99 C138.168,99 133.361,95.278 131.012,91.296 C129.943,89.483 128.432,88 127.656,88 C126.88,88 125.634,87.264 124.887,86.363 C123.301,84.452 115.172,80.776 114.057,81.465 C112.365,82.51 109.566,79.071 109.349,75.68 C109.035,70.766 110.935,69.364 115.898,70.851 C118.007,71.483 120.789,72 122.082,72 C123.526,72 126.207,73.749 129.038,76.537 C133.79,81.218 137,81.778 137,77.925 C137,76.253 145.894,66 147.344,66 C148.27,66 161.681,57.176 163.462,55.395 C165.254,53.603 164.745,48.051 162.452,44.383 C161.724,43.218 160.987,40.293 160.814,37.883 C160.522,33.802 160.317,33.519 157.841,33.774 C154.921,34.074 150.687,29.848 151.212,27.156 C151.518,25.587 156.582,22.285 164,18.817 C166.475,17.66 169.573,15.878 170.885,14.857 Z M75.5,55.736 C78.25,55.051 79.769,55.613 85.151,59.307 L89.802,62.5 L89.803,69.5 C89.804,74.653 89.203,77.819 87.528,81.5 C86.277,84.25 84.938,88.253 84.554,90.396 C84.169,92.539 83.175,95.33 82.344,96.597 C81.5,97.886 81.112,99.778 81.465,100.888 C81.811,101.981 81.676,103.691 81.164,104.687 C76.526,113.72 76.39,119.417 80.625,127.392 C82.485,130.895 84.68,134.32 85.503,135.003 C86.327,135.686 87,136.865 87,137.622 C87,138.38 87.642,139 88.427,139 C89.998,139 94,134.399 94,132.593 C94,131.967 95.383,129.778 97.073,127.728 C100.315,123.795 104.125,122.671 103.781,125.75 C103.673,126.713 103.934,129.08 104.359,131.012 C104.937,133.633 104.618,135.725 103.102,139.262 C101.985,141.868 100.635,144 100.103,144 C99.57,144 98.83,145.012 98.457,146.25 C98.084,147.488 96.428,149.924 94.776,151.664 C92.071,154.515 91.84,155.258 92.448,159.164 C93.266,164.424 93.266,178.825 92.448,185 C91.711,190.569 88.632,197.544 86.56,198.338 C85.708,198.666 84.288,200.74 83.404,202.947 C81.77,207.031 77.256,210.687 72.807,211.53 C71.538,211.77 69.284,212.23 67.797,212.552 C66.29,212.879 63.635,212.486 61.797,211.663 C59.984,210.852 57.375,209.93 56,209.615 C54.625,209.299 51.954,208.02 50.065,206.771 C48.176,205.522 45.556,203.825 44.243,203 C42.929,202.175 41.149,200.331 40.288,198.902 C38.817,196.463 38.868,196.088 41.127,192.763 C42.45,190.816 49.826,182.573 57.517,174.446 C79.64,151.066 80,150.666 80,149.424 C80,147.285 76.864,140.585 73.404,135.331 C71.532,132.487 70,129.505 70,128.703 C70,127.901 69.299,125.568 68.443,123.519 C66.687,119.314 67.35,114.414 71.017,104.5 C71.763,102.484 73.861,93.205 74.408,89.5 C74.571,88.4 75.403,85.925 76.256,84 C81.148,72.966 80.673,68.027 74.715,67.968 C65.472,67.877 66.101,58.075 75.5,55.736 Z M212.5,159 C210.342,160.1 207.574,161 206.348,161 C205.121,161 203.872,161.398 203.572,161.884 C203.271,162.37 201.107,163.708 198.763,164.857 C192.084,168.13 190.643,169.574 191.428,172.204 C192.535,175.916 193.122,197.143 192.151,198.373 C191.662,198.993 190.951,203.472 190.572,208.327 C189.737,219.023 190.293,220 197.22,220 C201.998,220 202.467,219.737 209.097,213.336 C212.894,209.671 216,206.091 216,205.38 C216,204.67 217.125,202.431 218.5,200.405 C219.875,198.379 221,195.524 221,194.06 C221,192.597 221.465,190.935 222.034,190.366 C222.603,189.797 223.471,187.12 223.963,184.416 C224.455,181.712 225.371,177.7 225.998,175.5 C228.146,167.969 228.211,167.098 226.857,163.986 C225.961,161.927 224.587,160.682 222.814,160.322 C221.337,160.021 219.888,159.151 219.595,158.388 C218.868,156.493 217.122,156.644 212.5,159 Z M186.964,111.921 C192.482,109.816 195.216,109.616 196.8,111.2 C198.127,112.527 198.38,116.856 197.235,118.653 C196.632,119.598 190.095,122.942 182,126.446 C176.971,128.623 172.46,131.9 172.199,133.567 C172.033,134.63 171.512,136.4 171.041,137.5 C170.571,138.6 169.493,141.363 168.645,143.64 C166.607,149.116 164.072,153.187 159.86,157.749 C157.955,159.812 156.102,162.274 155.741,163.22 C154.926,165.36 150.249,166.649 148.747,165.147 C147.559,163.959 148.038,162.74 153.24,153.706 C154.758,151.069 156,148.058 156,147.015 C156,145.972 156.453,144.838 157.007,144.496 C157.561,144.153 158.724,142.5 159.592,140.822 C161.607,136.925 160.177,135.062 156.921,137.343 C155.335,138.454 153.436,138.747 150.469,138.341 C147.852,137.982 146.003,138.186 145.573,138.882 C145.193,139.497 143.446,139.986 141.691,139.968 C135.859,139.91 131.725,134.595 134.371,130.556 C135.754,128.446 136.568,128.257 143.808,128.364 C148.167,128.428 152.805,127.968 154.116,127.341 C155.427,126.714 162.334,123.377 169.464,119.926 C176.594,116.475 184.469,112.872 186.964,111.921 Z M75.487,172.687 C72.389,175.884 69.215,179.71 68.433,181.189 C67.651,182.668 66.221,184.468 65.256,185.189 C64.29,185.91 61.28,189.144 58.566,192.375 L53.631,198.251 L57.066,201.098 C62.165,205.327 67.064,205.078 72.326,200.324 C77.033,196.072 79.417,191.898 81.934,183.5 C83.945,176.795 84.151,167.883 82.31,167.27 C81.655,167.052 78.585,169.489 75.487,172.687 Z M199,54.986 C198.175,55.527 196.473,55.976 195.219,55.985 C192.364,56.004 191.069,58.9 193.346,60.173 C195.772,61.531 195.379,64.354 192,69.846 C190.35,72.527 189,75.657 189,76.802 C189,77.946 188.55,79.16 188,79.5 C186.489,80.434 186.802,82 188.5,82 C189.325,82 190,81.341 190,80.535 C190,79.73 190.796,78.644 191.77,78.123 C194.949,76.422 203.281,62.124 203.396,58.174 C203.506,54.343 201.832,53.129 199,54.986 Z M182,59.706 C177.813,61.237 176,64.286 176,69.797 C176,74.479 176.207,75.073 177.471,74.024 C178.953,72.794 185,61.403 185,59.84 C185,58.913 184.26,58.88 182,59.706 Z M145.402,85.395 C145.108,86.162 145.009,88.524 145.183,90.645 C145.459,93.995 145.824,94.5 147.976,94.5 C151.188,94.5 152.901,90.272 151.2,86.54 C149.942,83.778 146.299,83.058 145.402,85.395 Z M161.655,70.829 C159.534,73.172 159.57,74.3 161.829,76.345 C164.397,78.669 165.68,78.41 166.432,75.415 C167.807,69.935 164.948,67.19 161.655,70.829 Z"/>
</svg>

