<svg xmlns="http://www.w3.org/2000/svg" width="300" height="300" viewBox="0 0 300 300" version="1.1">
  <defs/>
  <path d="M110.486,66.657 C114.561,62.582 118.801,66.084 119.485,74.091 C119.739,77.066 120.44,83.1 121.042,87.5 C121.645,91.9 122.519,100.9 122.985,107.5 C123.451,114.1 124.244,121.75 124.748,124.5 C125.821,130.364 125.742,166.99 124.653,168.753 C124.243,169.416 124.42,170.916 125.046,172.087 C125.87,173.626 125.883,174.517 125.093,175.307 C123.765,176.635 123.635,181 124.923,181 C125.431,181 127.184,179.875 128.818,178.5 C130.452,177.125 132.239,176 132.789,176 C133.34,176 134.85,174.883 136.145,173.517 C137.44,172.152 138.806,171.027 139.179,171.017 C140.982,170.971 152.199,162.605 154.497,159.593 C155.928,157.716 158.608,155.465 160.451,154.59 C163.983,152.914 168,147.237 168,143.921 C168,142.841 166.921,140.279 165.602,138.229 C162.185,132.917 161.373,125.995 163.813,122.982 L165.702,120.649 L169.508,122.624 C172.827,124.347 173.581,125.439 175.407,131.175 C176.558,134.792 177.997,138.37 178.605,139.126 C180.116,141.005 182.033,149.876 183.007,159.5 C183.452,163.9 184.564,170.875 185.476,175 C186.389,179.125 187.567,187 188.094,192.5 C189.619,208.4 190.253,241.963 189.123,246.967 C188.456,249.924 188.451,251.838 189.107,252.63 C189.777,253.436 189.612,254.993 188.601,257.413 C187.206,260.75 186.802,260.998 182.801,260.969 C178.155,260.935 175.747,258.826 174.45,253.656 C173.913,251.516 174.246,250.845 176.314,249.903 C178.661,248.834 178.88,248.115 179.538,239.331 C180.78,222.768 179.547,201.943 176.498,188 C174.995,181.125 173.574,174.15 173.339,172.5 C172.045,163.392 171.907,163 170.01,163 C168.965,163 165.948,165.186 163.305,167.857 C160.662,170.529 155.377,174.394 151.561,176.446 C147.744,178.498 142.119,182.412 139.061,185.143 C135.331,188.473 128.821,192.398 119.288,197.064 C106.859,203.146 104.161,204.094 97.788,204.616 C90.57,205.206 90.465,205.18 86.845,201.856 C84.835,200.01 82.641,196.925 81.97,195 C78.874,186.114 77.427,165.844 79.521,160.696 C80.726,157.736 85.034,158.945 87.209,162.853 C88.432,165.051 88.747,166.601 88.124,167.353 C86.96,168.757 89.919,186.12 92.068,190.5 C93.453,193.325 93.83,193.479 98.52,193.139 C101.259,192.941 105.556,191.737 108.068,190.465 C112.476,188.232 112.69,187.911 114.182,181.325 C116.141,172.676 116.152,132.822 114.196,129.29 C113.357,127.775 113.243,125.875 113.832,123.251 C114.879,118.59 113.511,97.696 111.393,86 C108.774,71.538 108.632,68.511 110.486,66.657 Z"/>
</svg>

