<svg xmlns="http://www.w3.org/2000/svg" width="300" height="300" viewBox="0 0 300 300" version="1.1">
  <defs/>
  <path d="M165.429,105.856 C169.056,102.552 170.687,102.389 173.837,105.014 C176.145,106.937 176.154,107.022 174.556,111.832 C173.666,114.511 172.291,117.557 171.501,118.601 C170.71,119.646 170.049,121.556 170.032,122.846 C169.97,127.398 166.827,136.027 163.434,140.96 C161.545,143.706 160,146.611 160,147.417 C160,148.223 159.55,149.16 159,149.5 C158.45,149.84 158,150.797 158,151.626 C158,152.455 156.875,154.608 155.5,156.411 C154.125,158.214 153,160.218 153,160.864 C153,161.511 151.762,163.903 150.25,166.179 C144.854,174.303 144.145,175.516 144.073,176.759 C144.033,177.451 142.65,179.881 141,182.159 C139.35,184.436 138,186.678 138,187.14 C138,187.602 135.975,191.139 133.5,195 C131.025,198.861 129,202.396 129,202.855 C129,203.314 128.1,204.505 127,205.5 C125.9,206.495 125,207.86 125,208.533 C125,209.205 124.288,210.346 123.418,211.068 C121.917,212.314 121.076,213.743 115.955,223.75 C114.758,226.087 113.379,228 112.89,228 C112.4,228 112,228.484 112,229.075 C112,230.481 103.786,243.163 101.294,245.605 C100.229,246.647 98.081,249.728 96.52,252.451 C93.437,257.826 88.701,264.48 84.029,270 C82.4,271.925 79.928,274.85 78.535,276.5 C77.142,278.15 76.002,279.972 76.001,280.548 C76.001,281.125 74.375,283.15 72.389,285.048 C70.402,286.947 67.815,289.57 66.639,290.878 C65.462,292.186 62.925,294.771 61,296.623 L57.5,299.99 L46.25,299.995 C40.063,299.998 35,299.65 35,299.223 C35,297.691 38.139,294 39.442,294 C40.172,294 41.512,295.133 42.419,296.517 C44.517,299.719 45.158,299.378 55.835,289.363 C64.677,281.07 87.518,251.707 96.5,237.086 C97.05,236.191 98.439,234.118 99.587,232.479 C100.735,230.841 101.951,228.734 102.288,227.797 C102.625,226.86 105.961,221.462 109.701,215.801 C118.72,202.146 120.856,198.79 121.663,197 C122.035,196.175 123.905,193.025 125.819,190 C129.306,184.488 150.093,144.09 151.319,140.441 C151.678,139.374 152.795,137.15 153.801,135.5 C155.563,132.611 158.465,123.893 161.1,113.576 C161.906,110.42 163.459,107.649 165.429,105.856 Z M154.5,89.911 C155.6,89.432 160.1,89.331 164.5,89.687 C168.9,90.042 174.75,90.426 177.5,90.54 C180.25,90.654 185.331,91.095 188.791,91.52 C193.225,92.065 195.771,91.925 197.412,91.047 C199.443,89.96 200.258,90.143 203.772,92.468 C208.139,95.358 209.447,98.041 207.644,100.413 C206.227,102.278 188.066,103.264 180.5,101.887 C174.242,100.748 166.077,100.056 159.228,100.083 C155.398,100.099 153.123,99.512 150.912,97.937 L147.868,95.77 L150.184,93.275 C151.458,91.904 153.4,90.39 154.5,89.911 Z M118.433,59.13 C120.358,55.408 123.322,55.036 125.429,58.252 C129.415,64.334 130.596,99.277 126.894,101.565 C126.402,101.869 126,103.109 126,104.319 C126,107.301 121.462,112 118.582,112 C114.772,112 113.495,109.608 115.248,105.757 C118.933,97.657 119.827,81.7 117.453,66.38 C117.006,63.494 117.3,61.321 118.433,59.13 Z M72.515,104.048 C71.936,102.223 72.29,102 75.758,102 C81.38,102 83.723,104.898 84.158,112.389 C84.435,117.153 84.166,118.489 82.75,119.384 C80.716,120.669 78.257,119.495 76.567,116.433 C75.98,115.37 74.943,114.143 74.262,113.707 C71.929,112.213 70.764,108.989 72.013,107.484 C72.647,106.721 72.873,105.174 72.515,104.048 Z"/>
</svg>

