<svg xmlns="http://www.w3.org/2000/svg" width="300" height="300" viewBox="0 0 300 300" version="1.1">
  <defs/>
  <path d="M175,93.732 C179.18,91.011 183.472,91.554 187.008,95.25 C190.597,99.001 194,105.09 194,107.76 C194,108.772 194.42,110.027 194.933,110.55 C195.446,111.073 196.626,115.55 197.555,120.5 C198.484,125.45 199.639,130.281 200.122,131.236 C200.605,132.191 201,135.589 201,138.786 C201,141.984 201.418,145.028 201.928,145.55 C202.439,146.073 203.387,154.375 204.036,164 C205.173,180.859 205.714,187.236 207.942,210 C209.836,229.358 210.074,233.404 210.592,255.124 C211.047,274.2 210.917,276.941 209.483,278.374 C208.589,279.269 207.188,280 206.37,280 C202.985,280 192.016,264.632 192.004,259.872 C192.002,258.977 191.325,257.685 190.5,257 C189.675,256.315 189,255.19 189,254.5 C189,253.81 188.411,252.756 187.69,252.158 C186.97,251.56 185.756,248.777 184.992,245.972 C184.229,243.168 183.243,240.65 182.802,240.378 C182.361,240.105 182,239.024 182,237.976 C182,236.928 181.301,234.01 180.446,231.493 C178.805,226.658 179.244,223 181.466,223 C182.893,223 187,230.084 187,232.544 C187,233.36 187.417,234.809 187.927,235.764 C188.437,236.719 189.109,238.175 189.421,239 C189.99,240.506 191.007,242.223 194.25,247.15 C195.213,248.612 196,251.102 196,252.682 C196,256.33 198.536,260 201.057,260 C202.45,260 203,259.31 203,257.559 C203,256.216 202.507,254.813 201.904,254.441 C201.239,254.029 201.051,252.339 201.427,250.132 C201.615,249.029 201.758,248.21 201.859,247.385 C202.189,244.688 202.059,241.935 201.509,229 C201.171,221.025 200.48,213.15 199.975,211.5 C199.471,209.85 198.81,204.45 198.508,199.5 C198.206,194.55 197.509,187.35 196.96,183.5 C196.412,179.65 195.858,173.8 195.731,170.5 C195.531,165.312 195.224,164.46 193.458,164.208 C191.972,163.995 190.81,164.993 189.191,167.874 C183.521,177.962 171.279,188.98 165.725,188.993 C162.383,189.001 161.073,191.709 160.263,200.278 C159.963,203.457 159.331,206.296 158.859,206.587 C158.386,206.879 158,208.19 158,209.5 C158,210.81 157.55,212.16 157,212.5 C156.45,212.84 156,213.94 156,214.945 C156,215.95 154.163,219.523 151.917,222.886 C148.507,227.993 147.364,229 144.976,229 C140.986,229 140.362,227.3 143.202,224.169 C145.978,221.108 148,216.797 148,213.939 C148,212.858 148.396,211.191 148.879,210.236 C150.569,206.899 153.01,198.479 153.006,196 C153.003,194.625 153.709,190.125 154.574,186 C155.439,181.875 156.242,174.9 156.36,170.5 C156.477,166.1 157.006,161.825 157.536,161 C158.753,159.107 158.366,137.773 156.948,128.5 C155.806,121.037 153.461,111.897 151.771,108.324 C149.991,104.562 150.288,98.9 152.331,97.634 C153.895,96.665 154.73,97.154 158.061,100.985 L161.96,105.471 L167.23,100.415 C170.129,97.634 173.625,94.627 175,93.732 Z M84.228,78.106 C85.478,77.641 87.398,77.59 88.496,77.993 C91.67,79.159 92.881,93.639 92.945,131.191 C92.979,151.384 93.374,164.113 93.979,164.487 C96.724,166.184 105,156.844 105,152.05 C105,150.592 105.442,148.958 105.983,148.417 C106.524,147.876 107.086,142.499 107.233,136.467 L107.5,125.5 L110.201,125.188 C111.686,125.017 113.865,125.393 115.043,126.023 C117.193,127.173 122,136.624 122,139.7 C122,140.603 122.73,142.149 123.621,143.134 C125.664,145.391 126.414,157.227 126.464,188 L126.5,210.5 L119.5,210.5 L118.782,202 C118.388,197.325 117.611,187.875 117.057,181 C115.649,163.549 114.883,158 113.879,158 C113.402,158 111.639,159.896 109.96,162.213 C106.394,167.137 91.883,182.103 86.278,186.639 C79.435,192.176 72.764,195.408 69.742,194.65 C68.065,194.229 66.838,193.116 66.526,191.735 C66.249,190.506 65.56,178.77 64.996,165.656 C64.431,152.541 63.526,140.983 62.985,139.971 C61.52,137.235 61.794,131.416 63.452,130.04 C65.067,128.699 68.231,129.368 69.924,131.408 C71.521,133.333 73.111,147.119 73.854,165.488 C74.595,183.837 74.906,184.341 81.716,178.263 L85.932,174.5 L84.942,156.5 C84.397,146.6 83.964,129.05 83.98,117.5 C84.001,101.805 83.602,94.666 82.401,89.239 C80.612,81.154 80.909,79.341 84.228,78.106 Z M159.521,35.327 C162.511,30.765 167.996,33.724 168.006,39.905 C168.016,46.376 169.904,55.237 171.694,57.215 C173.358,59.053 173.36,59.308 171.724,62.158 C170.776,63.81 170,66.899 170,69.022 C170,71.145 169.55,73.16 169,73.5 C167.165,74.634 167.874,78 169.947,78 C171.266,78 172.672,76.466 174.303,73.25 C175.627,70.638 178.326,65.837 180.3,62.581 C183.015,58.106 183.659,56.232 182.945,54.897 C181.512,52.22 181.736,51.491 185.184,47.596 C188.93,43.365 190.822,43.117 193.952,46.449 L196.253,48.899 L193.542,55.699 C192.051,59.44 188.957,64.975 186.666,68 C184.375,71.025 181.165,75.525 179.532,78 C176.171,83.098 164.166,95 162.386,95 C160.51,95 160,92.42 160,82.918 C160,75.039 159.793,74 158.223,74 C157.245,74 155.452,74.695 154.239,75.545 C153.026,76.395 149.845,77.349 147.171,77.666 C142.551,78.213 142.193,78.08 139.992,74.989 C136.716,70.388 138.108,68.656 145.674,67.919 C148.954,67.599 153.407,66.474 155.569,65.419 C159.274,63.61 159.518,63.213 159.815,58.504 C159.988,55.755 159.65,49.94 159.063,45.581 C158.164,38.898 158.235,37.29 159.521,35.327 Z M171.25,108.623 C165.449,113.791 165.003,114.488 165.044,118.345 C165.068,120.63 165.736,124.3 166.529,126.5 C167.321,128.7 167.977,131.561 167.985,132.857 C167.997,134.755 168.341,135.049 169.75,134.369 C172.47,133.057 183.045,133.737 184.878,135.342 C185.77,136.124 187.581,137.094 188.901,137.497 C190.983,138.133 191.193,137.982 190.483,136.365 C190.033,135.339 189.332,131.575 188.926,128 C188.07,120.452 185.77,109.707 184.165,105.75 C182.341,101.253 178.586,102.088 171.25,108.623 Z M167.941,144.25 C167.795,152.2 166.863,161.738 165.972,164.399 C165.437,165.994 165,169.481 165,172.149 C165,178.564 167.016,178.587 174.077,172.25 C185.654,161.862 193.422,152.429 192.381,150.027 C192.017,149.187 191.662,147.375 191.593,146 C191.5,144.147 190.954,143.548 189.484,143.684 C188.393,143.786 184.346,144.166 180.491,144.529 C174.177,145.124 173.294,144.982 171.586,143.095 C168.945,140.177 168.01,140.473 167.941,144.25 Z"/>
</svg>

