<svg xmlns="http://www.w3.org/2000/svg" width="300" height="300" viewBox="0 0 300 300" version="1.1">
  <defs/>
  <path d="M137.468,85.288 C138.958,83.538 143.531,83.73 145.09,85.608 C146.214,86.963 146.066,88.568 144.155,95.785 C142.906,100.497 141.051,105.524 140.032,106.955 C136.997,111.217 133,119.177 133,120.958 C133,121.871 132.339,123.491 131.532,124.559 C127.853,129.423 131.431,135.2 136.859,133.159 C138.311,132.613 141.243,131.923 143.374,131.626 C145.505,131.329 148.066,130.345 149.066,129.441 C150.065,128.536 153.522,127.485 156.747,127.104 C160.368,126.677 163.847,125.533 165.841,124.113 C167.618,122.848 169.667,122.042 170.396,122.322 C172.03,122.949 173.185,132.055 171.837,133.689 C171.298,134.343 167.626,135.84 163.678,137.015 C150.457,140.952 146.512,142.235 144.605,143.22 C143.563,143.758 140.32,144.987 137.399,145.95 C126.371,149.588 115.51,158.269 113.564,165 C112.195,169.733 110.006,173.784 108.505,174.36 C107.659,174.684 107,176.168 107,177.746 C107,179.448 105.858,181.804 104.102,183.728 C102.508,185.473 100.405,189.061 99.429,191.7 C98.454,194.34 97.342,196.95 96.958,197.5 C96.575,198.05 95.684,200.289 94.978,202.476 C94.273,204.663 92.866,207.813 91.852,209.476 C90.837,211.139 90.006,213.511 90.004,214.748 C90.002,215.984 88.419,219.196 86.487,221.885 C84.555,224.574 82.462,228.287 81.834,230.137 C81.207,231.987 79.863,234.694 78.847,236.154 C77.831,237.614 77,239.472 77,240.282 C77,242.35 74.236,248.736 73.015,249.491 C72.457,249.836 72,251.201 72,252.524 C72,253.906 71.149,255.385 70,256 C68.9,256.589 68,257.928 68,258.976 C68,260.024 67.55,261.16 67,261.5 C66.45,261.84 66,263.161 66,264.437 C66,265.712 65.325,267.315 64.5,268 C63.675,268.685 63,270.108 63,271.163 C63,272.218 62.088,274.315 60.972,275.824 C59.857,277.332 58.657,280.338 58.306,282.504 C57.636,286.629 52.517,293 49.871,293 C44.714,293 42.133,286 46,282.5 C47.1,281.505 48,280.152 48,279.495 C48,278.838 49.278,276.535 50.841,274.378 C52.403,272.222 55.391,266.641 57.479,261.978 C59.568,257.315 62.284,251.7 63.514,249.5 C64.745,247.3 66.282,243.289 66.931,240.587 C67.58,237.885 68.986,234.562 70.055,233.203 C71.125,231.843 72,230.193 72,229.535 C72,228.878 74.293,223.651 77.096,217.92 C87.987,195.65 89.009,193.469 89.009,192.5 C89.008,191.95 91.706,186.129 95.004,179.565 C101.02,167.589 101.899,165 99.95,165 C98.153,165 92.649,168.147 89.215,171.139 C87.409,172.712 84.803,174 83.425,174 C82.047,174 79.659,174.931 78.119,176.07 C76.147,177.528 74.17,178.045 71.428,177.82 C68.217,177.556 67.368,177.019 66.575,174.75 C65.962,172.995 65.96,171.015 66.572,169.275 C67.343,167.083 68.367,166.407 71.81,165.82 C74.164,165.418 80.007,163.082 84.795,160.63 C89.583,158.177 94.175,155.886 95,155.538 C100.427,153.247 104.706,149.953 106.131,146.968 C108.056,142.937 109.224,133.369 108.334,128.922 L107.706,125.781 L102.603,126.452 C99.796,126.821 97.073,127.546 96.55,128.062 C94.15,130.433 87,128.254 87,125.152 C87,122.826 91.588,118.665 96,116.99 C106.854,112.869 111.543,109.143 109.033,106.633 C107.356,104.956 107.82,94.866 109.752,91 C111.658,87.183 114.534,86.145 118.027,88.014 C120.011,89.076 120.109,89.66 119.461,96.577 C118.953,101.998 119.083,104 119.942,104 C121.669,104 131.683,94.254 134.238,90.087 C135.447,88.114 136.901,85.955 137.468,85.288 Z M121.606,29.727 C121.894,29.44 126.214,29.271 131.207,29.352 C139.668,29.49 140.406,29.67 142.064,32 C144.135,34.912 143.705,39.842 141.133,42.671 C136.702,47.544 132,53.827 132,54.874 C132,55.517 130.9,56.544 129.555,57.157 C127.243,58.21 125.45,60.783 126.379,61.712 C126.614,61.947 128.704,61.57 131.024,60.875 C134.871,59.722 135.368,59.782 136.666,61.555 C137.448,62.625 137.956,65.075 137.795,67 C137.531,70.135 137.213,70.48 134.75,70.312 C132.467,70.155 132,70.528 132,72.504 L132,74.885 L122.017,74.315 C112.871,73.793 111.978,73.903 111.363,75.623 C110.428,78.232 105.892,81.921 103.566,81.964 C100.492,82.021 93.305,85.886 91.691,88.349 C90.879,89.588 89.463,93.503 88.544,97.05 C85.203,109.936 84.714,111.559 83.128,115 C82.241,116.925 81.471,118.95 81.416,119.5 C81.105,122.641 79.391,126.886 77.341,129.594 C76.054,131.296 74.994,133.321 74.987,134.094 C74.968,136.159 71.092,148.184 70.036,149.457 C69.537,150.058 68.383,152.788 67.47,155.525 C66.558,158.261 64.509,162.557 62.917,165.071 C61.324,167.584 59.73,171.184 59.372,173.071 C59.015,174.957 58.146,177.625 57.44,179 C56.734,180.375 55.899,182.175 55.585,183 C55.27,183.825 54.637,185.175 54.177,186 C51.15,191.433 49,196.082 48.997,197.198 C48.996,197.914 47.421,201.11 45.497,204.3 C43.574,207.49 42,210.923 42,211.928 C42,212.933 41.325,214.315 40.5,215 C39.675,215.685 39,217.123 39,218.196 C39,219.269 36.188,223.259 32.75,227.064 C27.746,232.601 25.918,233.983 23.579,233.99 C20.591,234 17,231.584 17,229.564 C17,228.944 19.7,225.766 23,222.5 C26.3,219.234 29,216.145 29,215.635 C29,215.125 30.575,212.334 32.5,209.434 C34.425,206.534 36,203.55 36,202.803 C36,202.056 36.614,200.557 37.365,199.473 C38.116,198.388 39.066,196.375 39.476,195 C39.885,193.625 42.646,187.593 45.61,181.596 C48.575,175.6 51,170.016 51,169.188 C51,168.36 52.531,164.492 54.403,160.591 C58.472,152.11 63,141.233 63,139.937 C63,139.424 64.309,136.192 65.91,132.753 C67.51,129.314 69.586,123.8 70.523,120.5 C71.46,117.2 72.851,113.306 73.614,111.846 C74.376,110.386 75,108.233 75,107.061 C75,105.889 75.725,103.824 76.61,102.472 C77.649,100.886 77.987,99.083 77.562,97.39 C77.104,95.567 77.445,94.166 78.676,92.806 C79.651,91.728 80.541,89.194 80.653,87.173 C80.765,85.153 81.364,81.475 81.984,79 C82.604,76.525 83.548,71.8 84.082,68.5 C84.615,65.2 85.504,61.696 86.057,60.714 C86.786,59.418 86.642,58.327 85.531,56.741 C83.049,53.197 83.549,45.69 86.5,42.182 C87.875,40.548 89,38.783 89,38.261 C89,35.781 93.344,33.692 100.223,32.862 C116.51,30.899 121.108,30.225 121.606,29.727 Z M134.25,173.22 C135.488,172.624 137.443,172.105 138.596,172.068 C141.316,171.98 147,174.821 147,176.269 C147,176.886 148.086,178.54 149.414,179.945 C152.593,183.311 155.761,193.284 156.604,202.58 C156.976,206.692 157.668,210.295 158.14,210.587 C158.613,210.879 159.014,214.804 159.032,219.309 C159.054,224.921 159.526,228.111 160.532,229.441 C162.142,231.57 162.495,235.576 161.146,236.41 C160.677,236.7 159.987,240.6 159.614,245.077 C158.884,253.824 159.442,255.457 163.709,257.079 C166.408,258.106 166.563,259.564 164.427,263.846 C163.137,266.431 162.257,267 159.549,267 C157.732,267 155.685,266.325 155,265.5 C154.315,264.675 152.265,264 150.443,264 C148.621,264 145.863,263.516 144.315,262.923 C142.767,262.331 136.852,261.711 131.172,261.545 C125.491,261.379 120.375,260.775 119.804,260.204 C119.232,259.632 117.355,259.367 115.632,259.614 C113.581,259.909 111.725,259.449 110.255,258.282 C108.076,256.551 108.01,255.965 107.993,238 C107.977,220.545 107.235,211.201 104.929,199.427 C103.67,192.996 105.425,186.654 108.588,186.202 C111.881,185.731 113.268,188.494 113.786,196.559 C114.05,200.677 114.656,204.287 115.133,204.582 C115.61,204.877 116,206.161 116,207.437 C116,208.712 116.714,210.348 117.586,211.072 C118.626,211.935 118.987,213.313 118.635,215.076 C118.339,216.554 118.335,218.002 118.626,218.293 C119.522,219.188 130.486,213.282 133.971,210.027 C136.336,207.818 137.863,207.122 139.383,207.562 C142.141,208.359 145,211.71 145,214.146 C145,217.047 142.023,221 139.838,221 C138.767,221 137.183,222.261 136.281,223.833 C134.431,227.056 128.563,229.245 122.998,228.787 C119.953,228.537 119.457,228.816 119.156,230.944 C118.95,232.396 119.487,233.883 120.476,234.606 C122.005,235.724 122.012,236.075 120.571,238.863 C118.681,242.518 118.54,247.036 120.25,249.199 C121.977,251.384 147.354,252.823 148.654,250.81 C149.119,250.09 149.351,240.275 149.169,229 C148.877,210.979 148.62,208.258 147.042,206.5 C145.872,205.197 145.059,202.235 144.708,198 C144.112,190.801 142.359,186.275 139.853,185.464 C138.736,185.102 135.729,187.416 130.51,192.652 C124.195,198.987 122.517,200.185 121.157,199.327 C120.246,198.752 119.545,197.769 119.6,197.141 C119.655,196.513 119.767,194.11 119.85,191.799 C119.983,188.061 120.661,186.955 126,181.763 C129.3,178.554 132,175.563 132,175.117 C132,174.671 133.012,173.817 134.25,173.22 Z M113.5,40.221 C111.3,40.726 108.118,41.557 106.429,42.069 C104.74,42.581 101.997,43 100.334,43 C98.671,43 96.565,43.823 95.655,44.829 C93.728,46.958 93.466,52.066 95.195,53.795 C95.852,54.452 96.44,57.23 96.503,59.969 C96.565,62.708 96.924,65.257 97.301,65.635 C98.719,67.052 105.747,63.897 109.254,60.268 C119.557,49.608 124.997,43.371 124.998,42.219 C125.001,39.973 119.074,38.944 113.5,40.221 Z M120,119 C120,119.55 120.45,120 121,120 C121.55,120 122,119.55 122,119 C122,118.45 121.55,118 121,118 C120.45,118 120,118.45 120,119 Z"/>
</svg>

