<svg xmlns="http://www.w3.org/2000/svg" width="300" height="300" viewBox="0 0 300 300" version="1.1">
  <defs/>
  <path d="M143.356,22.992 C146.789,21.607 147.731,21.842 149.927,24.635 C152.502,27.908 152.479,28.444 149.524,34 C148.207,36.475 146.132,40.52 144.912,42.99 C143.692,45.459 140.968,49.284 138.858,51.49 C134.363,56.188 134.089,57.703 137.5,59 C140.524,60.15 140.762,63.951 138.095,68.5 C136.672,70.926 135.768,71.442 133.371,71.196 C131.455,70.999 129.395,71.688 127.545,73.143 C125.971,74.381 123.765,75.462 122.642,75.545 C121.52,75.627 120.429,76.214 120.217,76.848 C120.006,77.481 119.026,78 118.039,78 C117.052,78 115.705,78.65 115.045,79.445 C114.386,80.24 111.674,81.612 109.02,82.493 C104.435,84.016 104.167,84.307 103.657,88.298 C103.362,90.609 102.98,93.566 102.81,94.869 C102.485,97.352 102.555,97.41 110.11,100.882 C115.847,103.518 118.518,103.542 123.261,101 C125.314,99.9 127.566,99 128.267,99 C129.918,99 140.446,89.176 141.929,86.25 C143.464,83.225 150.398,83.006 151.965,85.934 C154.059,89.847 153.164,93.862 149.215,98.272 C147.133,100.598 142.778,105.875 139.537,110 C136.296,114.125 131.924,119.402 129.822,121.728 C127.72,124.053 126,126.492 126,127.149 C126,127.805 125.246,129.176 124.324,130.195 C121.539,133.272 124.081,134.646 128.348,132.37 C135.851,128.368 144,121.917 144,119.978 C144,118.237 144.574,118.074 149.432,118.444 C156.827,119.006 159,120.317 159,124.214 C159,130.206 157.045,133.568 152.605,135.214 C149.505,136.363 148.585,137.196 148.848,138.617 C149.04,139.653 149.401,142.525 149.651,145 C150.072,149.182 150.911,151.9 153.117,156.236 C153.603,157.191 154,158.879 154,159.986 C154,162.755 155.804,162.471 160.428,158.972 C162.589,157.337 165.311,156 166.478,156 C167.645,156 169.028,155.592 169.55,155.094 C170.073,154.596 173.129,152.779 176.343,151.056 C182.656,147.672 184.842,147.713 188.75,151.289 C192.55,154.767 191.717,157.71 186.25,160.119 C183.637,161.27 180.226,162.839 178.669,163.606 C177.112,164.373 175.4,165 174.864,165 C174.328,165 171.887,165.913 169.439,167.028 C166.99,168.143 163.303,169.606 161.244,170.278 C157.884,171.375 157.468,171.892 157.185,175.32 C157.012,177.421 157.296,179.671 157.815,180.32 C158.334,180.969 158.838,185.521 158.935,190.435 C159.032,195.35 159.312,199.696 159.558,200.094 C160.418,201.486 161.821,244.51 161.038,245.5 C160.603,246.05 160.558,248.84 160.938,251.7 C161.318,254.559 161.273,260.184 160.838,264.2 C160.403,268.215 160.327,272.397 160.668,273.493 C161.493,276.142 161.39,297.561 160.545,298.928 C160.18,299.517 158.09,300 155.9,300 L151.918,300 L152.071,276.75 C152.272,246.175 151.168,204.038 149.968,196.5 C149.443,193.2 148.749,187.463 148.427,183.75 C147.94,178.137 147.538,177 146.043,177 C145.054,177 143.685,177.675 143,178.5 C142.315,179.325 140.947,180 139.959,180 C138.377,180 134.743,181.524 130,184.176 C129.175,184.637 127.375,185.498 126,186.089 C116.136,190.328 116.568,189.826 115.742,198 C115.325,202.125 114.65,210.149 114.242,215.831 C113.628,224.387 113.165,226.406 111.552,227.586 C109.612,229.004 106.646,228.672 104.266,226.769 C102.859,225.643 103.484,206.655 105.096,201.563 C106.851,196.02 104.47,195.847 96.5,200.938 C94.85,201.991 92.801,202.887 91.947,202.927 C91.093,202.967 88.567,204.344 86.333,205.986 C82.605,208.728 78.219,210.517 61.5,216.117 C55.797,218.027 55.342,218.043 52.305,216.435 C48.852,214.608 46,215.049 46,217.411 C46,219.58 42.048,225.904 40.011,226.994 C39.043,227.512 37.329,229.895 36.204,232.289 C34.076,236.817 29.77,240.711 23.683,243.614 C20.349,245.204 19.962,245.205 17.562,243.633 C12.929,240.597 14.758,233.339 19.823,234.664 C21.561,235.119 23.066,234.173 26.771,230.299 C32.093,224.733 38,216.83 38,215.275 C38,214.708 38.701,213.663 39.558,212.952 C40.415,212.241 41.748,210.273 42.522,208.58 C43.295,206.886 45.139,203.475 46.618,201 C52.297,191.501 59.134,178.277 64.973,165.5 C65.978,163.3 68.164,158.555 69.831,154.956 C71.498,151.357 74.04,145.282 75.48,141.456 C76.92,137.63 78.953,133.05 79.998,131.279 C81.043,129.507 82.203,126.357 82.576,124.279 C82.949,122.2 83.821,119.825 84.515,119 C85.209,118.175 86.095,116.007 86.483,114.183 C86.871,112.358 87.818,109.658 88.588,108.183 C89.358,106.707 89.99,104.698 89.994,103.718 C89.997,102.738 90.687,100.29 91.528,98.279 C93.978,92.415 95.43,70.534 93.983,61.271 C91.523,45.52 91.561,43.761 94.422,41.073 C95.84,39.741 97,37.823 97,36.81 C97,35.633 98.355,34.387 100.75,33.362 C102.813,32.478 105.301,31.348 106.281,30.85 C107.943,30.005 111.155,29.344 132.856,25.382 C137.452,24.543 142.177,23.468 143.356,22.992 Z M98.528,102.954 C98.204,103.479 98.221,105.034 98.567,106.409 C99.244,109.108 95.602,122.47 93.499,125 C92.814,125.825 91.677,128.3 90.973,130.5 C89.494,135.12 86.237,141.823 84.412,144 C83.011,145.672 80.037,153.723 80.015,155.906 C80.007,156.679 78.968,158.704 77.707,160.406 C76.446,162.108 73.918,166.65 72.089,170.5 C70.259,174.35 68.141,178.807 67.381,180.404 C66.622,182.001 66,183.922 66,184.674 C66,185.425 64.763,187.893 63.25,190.157 C54.197,203.713 52.079,207.479 52.994,208.394 C53.628,209.028 55.463,208.628 58.235,207.252 C60.581,206.087 64.657,204.596 67.292,203.938 C69.928,203.28 73.736,201.899 75.754,200.871 C77.772,199.842 80.167,199 81.077,199 C81.986,199 83.803,198.188 85.115,197.196 C86.427,196.205 91.438,193.422 96.25,191.013 C101.063,188.603 105,186.14 105,185.539 C105,184.937 104.264,183.394 103.365,182.11 C102.465,180.826 101.591,177.707 101.422,175.179 C101.253,172.651 100.699,169.664 100.191,168.542 C99.683,167.419 98.859,165.15 98.36,163.5 C97.575,160.902 96.958,160.486 93.753,160.394 C86.135,160.177 85.055,156.245 90.946,150.175 C94.442,146.573 95.287,146.172 98.343,146.668 C101.241,147.139 101.9,146.89 102.464,145.113 C102.833,143.95 104.027,142.521 105.116,141.938 C106.205,141.355 107.532,139.893 108.065,138.689 C109.736,134.913 114.332,127.634 118.815,121.66 C124.123,114.586 124.035,112.368 118.465,112.826 C110.392,113.49 103,109.457 103,104.389 C103,102.691 102.439,102 101.059,102 C99.991,102 98.853,102.429 98.528,102.954 Z M131.854,143.706 C130.399,143.93 128.416,144.987 127.449,146.056 C126.482,147.125 124.915,148 123.967,148 C123.02,148 121.634,148.736 120.887,149.637 C120.14,150.537 117.563,152.116 115.161,153.145 C111.733,154.615 110.939,155.393 111.471,156.759 C111.853,157.741 112.081,158.312 112.163,158.904 C112.285,159.784 112.084,160.708 111.587,163.088 C111.071,165.563 111.327,167.847 112.413,170.447 C113.465,172.965 113.776,175.548 113.348,178.223 C112.731,182.085 112.793,182.203 115.104,181.529 C116.422,181.145 118.65,180.02 120.056,179.029 C121.462,178.037 124.837,176.225 127.556,175.002 C135.466,171.443 144,165.974 144,164.463 C144,163.697 142.875,161.056 141.5,158.593 C140.125,156.13 139,152.76 139,151.105 C139,147.433 137.076,142.945 135.589,143.15 C134.99,143.232 133.309,143.483 131.854,143.706 Z M127.5,36.929 C124.75,37.285 121.517,38.121 120.316,38.788 C119.114,39.455 115.739,40.053 112.816,40.118 C109.892,40.183 106.15,40.536 104.5,40.902 C101.66,41.531 101.515,41.802 101.79,45.979 C101.95,48.406 102.499,50.897 103.012,51.514 C103.524,52.131 104.116,56.118 104.327,60.374 C104.538,64.629 105.15,68.55 105.687,69.087 C106.733,70.133 110.312,67.037 114.747,61.25 C116.117,59.462 117.812,58 118.515,58 C119.73,58 121.681,55.937 128.5,47.442 C130.15,45.387 132.738,42.355 134.25,40.704 C138.751,35.793 138.286,35.533 127.5,36.929 Z"/>
</svg>

