<svg xmlns="http://www.w3.org/2000/svg" width="300" height="300" viewBox="0 0 300 300" version="1.1">
  <defs/>
  <path d="M158.192,146.808 C159.186,145.814 160.44,145 160.977,145 C162.889,145 165.502,150.479 165.624,154.746 C165.692,157.131 165.974,159.308 166.251,159.584 C166.527,159.861 168.609,159.508 170.877,158.8 C174.881,157.55 176.395,154.98 174,153.5 C172.887,152.812 172.672,149.019 173.607,146.582 C173.997,145.564 175.439,145 177.648,145 C180.686,145 181.44,145.574 184.175,149.975 C185.876,152.711 188.096,155.213 189.108,155.534 C190.12,155.855 191.886,157.435 193.032,159.045 C195.051,161.88 195.06,162.045 193.315,164.358 C192.325,165.671 190.274,167.213 188.757,167.786 C186.654,168.579 185.992,169.499 185.968,171.663 C185.951,173.223 185.276,175.374 184.468,176.441 C183.661,177.509 183,178.914 183,179.564 C183,180.214 181.993,182.94 180.762,185.623 C179.532,188.305 178.495,190.95 178.46,191.5 C178.424,192.05 177.828,194.165 177.136,196.201 C176.194,198.971 176.158,200.427 176.994,201.989 C178.515,204.83 177.509,207.406 174.233,209.059 C172.73,209.818 169.86,211.69 167.856,213.219 C163.229,216.75 160.086,216.743 156.687,213.195 C154.119,210.515 154,209.924 154,199.879 C154,194.098 154.481,186.766 155.069,183.586 C155.657,180.406 155.915,177.582 155.643,177.31 C154.86,176.526 144.374,179.844 143.22,181.24 C141.781,182.982 140.58,202.867 140.566,225.175 C140.553,247.803 140.639,248 150.615,248 C158.686,248 196.644,244.191 200.202,243.024 C201.908,242.464 203.967,242.539 205.789,243.227 C208.009,244.064 210.846,243.909 218.087,242.555 C231.321,240.081 235.364,240.031 235.819,242.339 C236.306,244.813 232.489,248.7 227,251.32 C223.24,253.115 219.952,253.57 207,254.089 C198.475,254.431 186.775,255.31 181,256.043 C175.225,256.777 163.899,257.404 155.832,257.438 C141.604,257.498 141.085,257.427 138.556,255.051 C135.353,252.043 133,247.489 133,244.297 C133,242.979 132.29,240.527 131.421,238.848 C130.125,236.34 130.057,235.277 131.043,232.896 C131.927,230.761 131.95,229.645 131.131,228.657 C129.74,226.982 130.434,197.618 131.959,193.607 C133.821,188.71 133.227,183.424 130.444,180.116 C128.343,177.619 128.082,176.715 128.979,175.039 C129.579,173.918 130.505,173 131.035,173 C131.566,173 132,172.057 132,170.904 C132,169.752 132.769,167.506 133.71,165.914 C135.197,163.397 135.259,162.416 134.183,158.394 C132.795,153.206 133.724,151 137.294,151 C141.093,151 142.745,153.583 142.263,158.77 C142.022,161.372 142.307,164.748 142.896,166.273 C143.818,168.659 144.354,168.953 146.734,168.381 C148.255,168.015 151.155,166.888 153.177,165.875 L156.855,164.033 L156.619,156.325 C156.426,150.014 156.711,148.289 158.192,146.808 Z M136,53.609 C142.594,52.871 153.334,54.13 157.182,56.093 C159.266,57.156 161.714,59.16 162.622,60.546 C164.166,62.902 164.155,63.329 162.464,67.081 C161.468,69.288 160.1,71.411 159.423,71.797 C158.746,72.184 155.559,74.978 152.34,78.007 C149.121,81.036 144.578,85.049 142.244,86.924 C136.088,91.871 136.537,93.366 143.919,92.509 C149.533,91.858 149.925,91.956 151.534,94.411 C153.072,96.758 153.087,97.219 151.693,99.346 C150.135,101.723 147.329,102.557 127.5,106.539 C114.675,109.114 114.737,109.081 111.859,114.953 C110.406,117.917 108.996,121.994 108.725,124.014 C108.264,127.452 106.195,132.456 102.324,139.5 C99.43,144.767 99,145.921 99,148.427 C99,149.777 98.55,151.16 98,151.5 C97.45,151.84 96.998,153.104 96.995,154.309 C96.992,155.514 95.881,158.3 94.526,160.5 C93.171,162.7 92.034,165.4 92,166.5 C91.966,167.6 90.896,170.525 89.624,173 C88.352,175.475 86.537,179.075 85.591,181 C84.645,182.925 83.45,185.281 82.936,186.236 C82.421,187.191 82,188.599 82,189.364 C82,190.129 81.332,191.31 80.515,191.987 C79.699,192.665 78.064,195.308 76.882,197.86 C73.167,205.881 70.749,210.446 69.351,212.079 C68.608,212.947 68,214.116 68,214.675 C68,215.235 66.473,217.266 64.606,219.188 C61.599,222.285 57.776,227.678 40.014,253.882 C34.896,261.434 27.352,269 24.942,269 C24.044,269 22.506,268.112 21.523,267.026 C19.807,265.129 19.808,264.941 21.552,262.276 C22.551,260.749 25.455,257.25 28.006,254.5 C35.918,245.97 46.63,230.873 53.613,218.408 C57.508,211.455 61.552,204.158 64.092,199.5 C65.292,197.3 67.562,193.619 69.137,191.32 C70.712,189.021 72,186.523 72,185.77 C72,185.016 72.468,183.932 73.04,183.36 C75.346,181.054 84,164.023 84,161.791 C84,160.198 87.961,152.142 89.087,151.447 C89.589,151.136 90,150.002 90,148.927 C90,147.852 90.45,146.079 91,144.986 C91.55,143.894 92.45,142.106 93,141.014 C93.55,139.921 94,138.206 94,137.203 C94,136.2 95.125,132.509 96.5,129 C97.875,125.491 99,121.446 99,120.01 C99,118.575 99.411,116.972 99.912,116.45 C102.409,113.85 105.122,85.722 103.074,83.674 C100.23,80.83 104.063,75.251 108.003,76.501 C110.903,77.421 114,84.952 114,91.083 C114,95.519 114.22,95.999 116.25,95.989 C117.487,95.983 120.3,94.272 122.5,92.187 C124.7,90.101 130.55,85.353 135.5,81.635 C144.507,74.87 152.973,66.506 152.991,64.357 C152.996,63.728 152.402,62.984 151.671,62.704 C148.486,61.482 120.987,66.028 114.661,68.824 C107.18,72.129 105.554,72.218 102.97,69.468 C100.636,66.983 100.634,66.967 102.564,64.437 C105.422,60.691 122.681,55.102 136,53.609 Z M108.44,178.117 C110.335,174.452 112.49,174.172 115.686,177.174 C118.058,179.403 118.841,184.362 117,185.5 C116.45,185.84 116,187.057 116,188.204 C116,189.351 114.425,193.565 112.5,197.567 C110.575,201.569 109,205.499 109,206.299 C109,207.1 108.325,208.315 107.5,209 C106.675,209.685 106,210.854 106,211.597 C106,212.988 99.466,225.751 97.884,227.45 C96.33,229.12 96.893,229.817 102.073,232.636 C108.513,236.141 111,240.836 111,249.488 C111,255.612 109.914,258 107.129,258 C104.052,258 102,254.826 102,250.068 C102,247.422 101.306,244.454 100.378,243.129 C98.711,240.749 96.27,240.62 88.838,242.519 C86.673,243.073 85.861,242.718 84.484,240.616 C82.815,238.068 82.902,237.812 90.748,222.266 C103.871,196.262 104.211,195.575 104.97,193.5 C107.162,187.502 107.769,184.831 107.323,183.127 C107.051,182.086 107.553,179.831 108.44,178.117 Z M106.122,141.354 C107.584,139.592 109.047,139.644 111.777,141.557 C113.662,142.877 114,144.043 114,149.227 C114,155.201 113.664,156.243 106.65,172 C106.038,173.375 104.477,176.157 103.18,178.183 C101.653,180.569 101.052,182.589 101.474,183.918 C101.915,185.308 101.299,187.053 99.563,189.329 C98.153,191.177 96.998,193.321 96.996,194.094 C96.994,194.867 96.006,197.075 94.8,199 C93.594,200.925 91.908,203.85 91.054,205.5 C89.177,209.124 84.808,210.041 81.912,207.42 C78.547,204.375 78.703,203.922 89.475,185.5 C96.105,174.161 104,157.618 104,155.063 C104,153.993 104.503,152.807 105.118,152.427 C105.832,151.986 106.012,150.105 105.617,147.222 C105.237,144.448 105.431,142.185 106.122,141.354 Z M168.342,172.205 C164.86,176.025 164,178.582 164,185.113 C164,188.548 163.46,192.852 162.799,194.678 C161.879,197.225 161.873,198.273 162.776,199.176 C164.266,200.666 168,197.59 168,194.872 C168,193.873 169.052,190.68 170.337,187.777 C176.238,174.452 176.807,170.652 172.967,170.205 C171.329,170.013 169.695,170.72 168.342,172.205 Z"/>
</svg>

