<svg xmlns="http://www.w3.org/2000/svg" width="300" height="300" viewBox="0 0 300 300" version="1.1">
  <defs/>
  <path d="M164.032,46.94 C164.635,45.814 166.12,45 167.571,45 C169.588,45 170.45,45.885 172.036,49.583 C173.116,52.104 174,55.677 174,57.524 C174,59.371 174.408,61.134 174.906,61.442 C175.759,61.969 177.382,70.203 177.463,74.412 C177.52,77.34 179.679,77.42 181.551,74.562 C182.475,73.153 183.671,72 184.21,72 C184.748,72 188.323,69.897 192.153,67.328 C198.19,63.277 199.476,62.781 201.809,63.597 C204.151,64.416 204.54,65.155 204.806,69.3 C205.112,74.054 205.104,74.066 200.744,75.995 C198.341,77.058 195.554,78.835 194.551,79.944 C193.547,81.053 191.28,82.232 189.513,82.564 C187.746,82.895 185.053,84.323 183.528,85.736 C180.857,88.213 180.78,88.564 181.389,95.403 C181.737,99.306 182.437,105.425 182.943,109 C184.454,119.658 186.128,141.903 186.1,150.956 C186.086,155.606 186.502,161.231 187.024,163.456 C188.977,171.772 190.729,246.769 189.044,249.917 C188.245,251.411 188.269,252.457 189.133,253.842 C190.871,256.624 185.128,263.566 180.346,264.463 C176.663,265.154 170.168,263.577 168.5,261.586 C167.95,260.93 165.318,258.902 162.65,257.08 C159.949,255.234 157.217,252.378 156.483,250.633 C155.759,248.91 153.793,245.612 152.115,243.303 C150.438,240.995 148.777,237.958 148.424,236.553 C147.862,234.313 148.097,234 150.345,234 C151.994,234 153.547,234.941 154.703,236.642 C155.691,238.096 157.83,240.458 159.455,241.892 C161.08,243.327 164.005,246.1 165.955,248.056 C171.571,253.689 177.86,257.54 179.22,256.18 C180.863,254.537 181.3,222.372 180.058,194.5 C178.392,157.09 177.968,150.649 176.971,147.635 C176.45,146.059 176.247,144.409 176.52,143.967 C176.95,143.272 175.636,127.411 174.41,118.5 C174.183,116.85 173.473,111.07 172.832,105.655 C172.095,99.434 171.19,95.626 170.372,95.312 C169.66,95.039 166.922,96.587 164.289,98.752 C159.469,102.715 152.632,106.301 147.39,107.617 C145.833,108.008 143.196,109.097 141.53,110.038 C139.863,110.979 136.092,112.585 133.149,113.608 L127.799,115.467 L125.345,112.615 C121.45,108.086 122.487,105.835 129.545,103.5 C132.87,102.4 138.27,100.109 141.545,98.408 C159.11,89.288 163.712,86.777 165.834,85.151 L168.169,83.364 L167.011,71.61 C166.374,65.146 165.21,57.387 164.424,54.368 C163.397,50.428 163.287,48.332 164.032,46.94 Z M76.569,128.326 C79.138,126.448 80.331,126.66 82.963,129.461 C84.802,131.419 85.157,132.644 84.7,135.461 C84.011,139.707 86.018,140.271 89.656,136.853 C92.972,133.738 95.061,135.762 94.839,141.875 C94.699,145.753 94.118,147.01 91.246,149.653 C87.864,152.766 87.815,152.931 87.41,162.653 C86.988,172.748 84.528,189.635 82.86,193.879 C82.346,195.188 82.164,196.497 82.456,196.789 C83.638,197.971 90.872,194.802 96.738,190.534 C100.165,188.04 103.41,186 103.949,186 C104.488,186 105.386,185.147 105.944,184.105 C106.501,183.063 108.417,181.702 110.201,181.08 C111.984,180.458 114.7,178.746 116.236,177.274 C118.664,174.948 119.21,174.788 120.422,176.05 C121.457,177.126 121.622,178.728 121.064,182.27 C120.259,187.367 117.456,191.172 112.675,193.659 C111.121,194.468 107.094,197.35 103.725,200.064 C100.356,202.779 96.867,205 95.972,205 C93.97,205 84.983,210.781 83.193,213.22 C82.475,214.199 81.274,215 80.525,215 C79.775,215 77.677,216.575 75.861,218.5 C73.324,221.19 71.743,222.008 69.03,222.036 C65.243,222.075 61.566,224.619 58.73,229.163 C54.752,235.536 43.803,232.295 45.635,225.287 C46.168,223.25 57.473,214.57 65.333,210.163 C70.501,207.266 71.198,206.113 72.693,198 C73.352,194.425 74.395,189.25 75.011,186.5 C76.921,177.969 77.729,168.563 76.616,167.816 C75.286,166.924 74,167.754 74,169.504 C74,171.243 63.296,179 60.896,179 C59.918,179 58.873,179.396 58.574,179.881 C57.494,181.628 52.615,181.794 50.059,180.171 C46.623,177.989 46.222,177.289 46.77,174.421 C47.34,171.442 48.636,170.547 52.006,170.804 C55.565,171.075 64.173,165.293 71.311,157.839 L77.243,151.643 L76.598,145.072 C76.243,141.457 75.683,136.509 75.355,134.076 C74.872,130.507 75.107,129.395 76.569,128.326 Z M82.229,47.669 C86.223,46.062 89,49.364 89,55.723 C89,60.521 89.848,60.912 93.845,57.956 C97.566,55.205 100,56.23 100,60.548 C100,62.382 99.562,64.153 99.027,64.483 C98.491,64.814 97.345,66.578 96.479,68.404 C95.612,70.229 93.8,72.226 92.452,72.84 C90.29,73.825 89.983,74.64 89.86,79.729 C89.783,82.903 89.623,87.201 89.503,89.28 C89.384,91.358 89.663,93.292 90.123,93.576 C91.798,94.611 95,91.913 95,89.465 C95,88.166 94.974,87.454 95.289,87.235 C95.681,86.964 96.6,87.452 98.749,88.525 C102.484,90.388 103.18,92.021 102.378,97.036 C101.849,100.343 100.667,101.808 94.326,107.013 C90.239,110.368 86.645,113.762 86.34,114.556 C86.035,115.35 85.35,116 84.816,116 C84.283,116 81.333,117.8 78.26,120 C75.188,122.2 71.96,124.014 71.087,124.032 C70.214,124.049 68.626,124.724 67.559,125.532 C65.188,127.325 58.608,127.465 57.267,125.75 C53.564,121.018 57.373,114 63.644,114 C66.044,114 68.937,112.759 73.055,109.963 C76.325,107.742 79.063,105.605 79.141,105.213 C79.218,104.821 79.381,99.4 79.503,93.166 C79.743,80.952 79.176,79.615 74.683,81.791 C73.482,82.372 69.484,83.117 65.797,83.447 C59.821,83.981 58.981,83.834 58.047,82.089 C55.257,76.875 57.381,73.925 65,72.43 C69.668,71.514 77.684,67.267 78.434,65.311 C78.765,64.45 78.754,61.624 78.41,59.031 C77.761,54.14 79.577,48.736 82.229,47.669 Z M134.75,141.299 C138.636,139.764 139.586,139.796 141.01,141.512 C142.37,143.151 150.455,147 152.538,147 C154.354,147 159,152.781 159,155.042 C159,159.639 152.679,159.458 145.398,154.651 C142.523,152.753 140.355,152.124 137.135,152.256 C133.643,152.398 132.393,151.968 130.885,150.106 C128.625,147.315 128.416,144 130.5,144 C131.325,144 132,143.637 132,143.193 C132,142.749 133.238,141.897 134.75,141.299 Z"/>
</svg>

