<svg xmlns="http://www.w3.org/2000/svg" width="300" height="300" viewBox="0 0 300 300" version="1.1">
  <defs/>
  <path d="M103.035,75.457 C104.518,73.671 108.389,73.552 109.778,75.25 C110.723,76.406 112.684,91.389 112.15,93.379 C111.778,94.765 114.225,105.396 115.158,106.45 C115.621,106.973 116,109.306 116,111.635 C116,113.964 116.479,117.129 117.064,118.668 C117.649,120.207 118.223,124.936 118.34,129.176 C118.456,133.416 118.914,137.248 119.357,137.691 C120.485,138.818 123,135.095 123,132.298 C123,131.022 123.855,128.071 124.899,125.739 C125.944,123.408 127.031,120.6 127.315,119.5 C127.599,118.4 128.769,115.031 129.916,112.014 C131.062,108.997 132,104.445 132,101.899 C132,93.084 138.633,88.867 142.954,94.935 C145.568,98.606 144.943,103.962 140.965,112 C139.468,115.025 137.951,118.754 137.593,120.287 C137.236,121.819 135.665,125.869 134.102,129.287 C132.54,132.704 130.943,136.957 130.554,138.739 C130.164,140.52 129.424,142.238 128.909,142.556 C127.591,143.371 123.879,150.823 122.709,155 C122.171,156.925 121.371,165.475 120.933,174 C120.012,191.907 118.649,203.486 117.253,205.259 C115.909,206.966 114.817,216 115.954,216 C116.458,216 118.135,215.519 119.681,214.931 C121.227,214.344 125.643,213.636 129.496,213.358 C133.348,213.081 139.65,212.211 143.5,211.425 C153.768,209.328 184.716,208.565 204,209.933 C213.075,210.576 224.746,211.33 229.935,211.607 C235.124,211.884 239.663,212.291 240.02,212.513 C240.378,212.734 244.232,213.647 248.585,214.542 C257.122,216.297 260,218.054 260,221.509 C260,223.821 255.862,229 254.016,229 C253.422,229 251.364,228.343 249.443,227.541 C247.523,226.738 245.304,226.33 244.514,226.633 C243.723,226.936 241.597,226.415 239.788,225.474 C236.096,223.552 234.107,223.213 222,222.442 C217.325,222.144 211.025,221.676 208,221.403 C196.438,220.36 160.446,220.069 158.5,221.003 C157.4,221.531 150.875,222.437 144,223.018 C122.384,224.842 120.579,225.086 117.18,226.641 C115.354,227.477 113.156,227.89 112.295,227.56 C111.434,227.229 105.728,227.823 99.615,228.878 C93.502,229.934 83.1,231.57 76.5,232.515 C69.9,233.46 62.925,234.613 61,235.079 C50.145,237.702 47.091,238.576 46.416,239.251 C46.004,239.663 44.366,240 42.776,240 C38.195,240 31.033,241.991 24.081,245.197 C16.776,248.566 14.094,248.054 11.953,242.886 C9.708,237.466 11.101,235.767 20.212,232.815 C24.77,231.339 31.425,229.628 35,229.014 C38.575,228.399 43.975,227.287 47,226.541 C57.309,223.999 67.49,222.071 73.5,221.523 C83.611,220.601 101.552,217.691 104.25,216.535 C105.329,216.073 106,214.699 106,212.952 C106,211.393 106.45,209.84 107,209.5 C107.55,209.16 108.011,207.221 108.024,205.191 C108.038,203.161 108.476,199.652 108.998,197.392 C112.099,183.962 111.922,154.823 108.588,130 C107.113,119.019 106.37,114.932 103.903,104.25 C102.183,96.8 101.592,77.197 103.035,75.457 Z M77.251,97.25 C78.62,95.529 79.966,95.682 83.75,97.989 C86.825,99.864 87,100.288 87,105.863 C87,109.754 86.514,112.158 85.569,112.943 C84.782,113.596 83.644,116.433 83.04,119.247 C82.437,122.061 81.562,124.844 81.097,125.432 C80.141,126.639 78.971,132.015 78.689,136.5 L78.5,139.5 L83.641,139.168 C89.619,138.782 92.362,140.016 99.295,146.214 C102.778,149.328 104.145,151.32 104.295,153.499 C104.589,157.803 101.503,157.877 95.429,153.711 C90.763,150.51 85.188,148.734 80.312,148.895 C78.968,148.939 77.882,148.203 77.495,146.984 C77.149,145.893 76.232,145 75.458,145 C73.993,145 71,149.885 71,152.276 C71,153.032 69.875,154.708 68.5,156 C67.125,157.292 66,159.2 66,160.241 C66,161.282 64.875,163.608 63.5,165.411 C62.125,167.214 61,169.333 61,170.121 C61,171.485 57.861,176.06 48.905,187.75 C44.608,193.358 42.058,194.268 38.829,191.345 C36.183,188.95 36.507,187.688 41.28,181.789 C47.342,174.296 49.259,171.436 53.537,163.5 C62.726,146.455 67.958,135.421 69.117,130.647 C69.803,127.816 70.733,125.072 71.183,124.55 C71.632,124.027 72,122.543 72,121.25 C72,119.958 72.639,117.666 73.419,116.156 C74.2,114.647 75.157,110.057 75.547,105.956 C75.937,101.855 76.704,97.938 77.251,97.25 Z M130,41.068 C133.404,40.071 134.706,40.691 135.453,43.668 C136.112,46.296 134.641,49 132.552,49 C131.89,49 130.258,50.166 128.924,51.591 C126.392,54.297 118.426,60 117.178,60 C116.782,60 113.463,62.183 109.805,64.85 C106.146,67.518 101.43,70.51 99.326,71.501 C97.222,72.492 93.933,74.359 92.018,75.651 C90.103,76.943 87.335,78 85.867,78 C84.4,78 79.285,79.8 74.5,82 C69.715,84.2 65.058,86.014 64.15,86.032 C63.243,86.049 61.626,86.724 60.559,87.532 C59.491,88.339 57.219,89 55.509,89 C53.799,89 51.905,89.495 51.301,90.099 C49.565,91.835 46.453,90.256 44.515,86.658 C42.211,82.379 43.594,79.426 48.225,78.737 C53.611,77.936 68.428,73.857 69.45,72.895 C69.972,72.403 71.408,72 72.641,72 C73.874,72 75.139,71.584 75.453,71.076 C75.767,70.569 78.381,69.38 81.262,68.436 C84.143,67.491 87.625,65.972 89,65.061 C90.375,64.149 92.671,62.902 94.101,62.29 C98.018,60.616 113.028,49.631 116.946,45.571 C119.555,42.867 121.255,41.976 123.946,41.9 C125.901,41.845 128.625,41.471 130,41.068 Z M139.2,129.2 C140.638,127.762 142.703,127.684 146.601,128.919 C148.195,129.424 152.024,130.59 155.109,131.511 C159.836,132.922 160.982,133.74 162.402,136.716 C163.958,139.981 163.963,140.384 162.457,142.047 C160.53,144.177 155.344,143.693 150.523,140.935 C148.86,139.984 146.375,138.882 145,138.488 C139.559,136.926 136.451,131.949 139.2,129.2 Z"/>
</svg>

