<svg xmlns="http://www.w3.org/2000/svg" width="300" height="300" viewBox="0 0 300 300" version="1.1">
  <defs/>
  <path d="M130.5,80.722 C138.891,78.12 148.178,77.357 152.317,78.931 C153.664,79.442 155.702,81.177 156.847,82.785 L158.928,85.708 L155.492,91.104 C153.602,94.072 151.409,97.85 150.619,99.5 C149.828,101.15 148.291,103.633 147.202,105.017 C146.113,106.401 144.5,109.101 143.617,111.017 C141.183,116.302 137.587,122.019 134.044,126.24 L130.853,130.041 L134.394,131.52 C136.342,132.334 138.4,133 138.968,133 C140.914,133 144,137 144,139.521 C144,143.265 140.358,144.581 133.456,143.33 C129.205,142.559 127.538,142.629 126.217,143.632 C125.272,144.35 123.754,144.951 122.843,144.968 C121.931,144.986 119.117,147.3 116.589,150.112 C114.061,152.924 110.353,156.527 108.348,158.12 C103.637,161.865 102.003,165.136 101.985,170.864 C101.977,173.414 101.273,178.425 100.42,182 C98.612,189.584 95.905,209.038 96.52,210.033 C96.752,210.408 96.521,212.183 96.007,213.977 C95.069,217.246 96.371,225.095 98.283,227.701 C98.767,228.362 101.264,229.185 103.832,229.532 C106.399,229.878 109.974,230.614 111.777,231.167 C116.506,232.619 141.656,232.309 154.5,230.641 C160.55,229.855 166.4,229.215 167.5,229.219 C169.895,229.228 188.279,227.364 199.641,225.961 C204.119,225.408 209.208,224.244 210.951,223.374 C212.694,222.505 215.883,221.557 218.037,221.268 C221.079,220.86 222.366,220.045 223.796,217.621 C226.317,213.348 228,206.18 228,199.72 C228,187.946 223.417,165.788 219.188,157.114 C216.781,152.176 217.042,151 220.546,151 C223.689,151 226.081,154.633 232.067,168.5 C233.394,171.573 235.161,180.838 235.691,187.5 C235.954,190.8 236.581,193.928 237.084,194.45 C237.588,194.973 238.007,196.773 238.015,198.45 C238.024,200.127 238.389,202.065 238.827,202.755 C239.265,203.445 239.225,207.431 238.739,211.614 C238.054,217.496 237.208,220.11 235.006,223.151 C230.967,228.726 225.559,232.069 219.053,233.013 C215.999,233.457 210.35,234.516 206.5,235.368 C202.65,236.22 195.719,237.176 191.098,237.493 C186.476,237.811 182.305,238.311 181.829,238.606 C181.353,238.9 174.559,239.58 166.731,240.116 C158.904,240.652 151.15,241.239 149.5,241.42 C134.748,243.036 120.661,243.052 109.99,241.464 C96.999,239.531 91.078,236.874 88.256,231.711 C85.108,225.954 86.085,205.416 90.476,185 C93.469,171.088 93.994,168.205 95.118,159.5 C95.864,153.717 96.087,142.457 95.74,128 C95.443,115.625 95.418,104.938 95.684,104.25 C96.344,102.541 99.098,102.68 101.777,104.557 C103.426,105.711 104,107.117 104,109.998 C104,112.134 104.46,114.167 105.023,114.514 C105.659,114.907 105.922,119.683 105.718,127.135 C105.538,133.729 105.761,139.352 106.214,139.632 C107.652,140.521 113.48,136.241 118.954,130.275 C124.979,123.707 132,113.757 132,111.787 C132,111.059 133.125,108.809 134.5,106.785 C135.875,104.762 137,102.83 137,102.493 C137,102.156 138.575,99.817 140.5,97.296 C142.425,94.775 144,91.838 144,90.768 C144,89.045 143.518,88.899 139.75,89.482 C132.739,90.566 106.024,96.988 93.347,100.636 C88.204,102.116 86.933,102.189 85.597,101.081 C83.444,99.294 83.54,95.083 85.75,94.381 C86.713,94.074 89.075,93.001 91,91.996 C92.925,90.991 97.425,89.619 101,88.946 C104.575,88.274 108.936,87.102 110.692,86.343 C112.447,85.583 115.822,84.566 118.192,84.082 C120.561,83.599 126.1,82.087 130.5,80.722 Z"/>
</svg>

