<svg xmlns="http://www.w3.org/2000/svg" width="300" height="300" viewBox="0 0 300 300" version="1.1">
  <defs/>
  <path d="M205.722,35.024 C210.873,29.672 214.192,27 215.688,27 C218.943,27 224.656,32.427 225.432,36.255 C228.058,49.215 228.489,62.131 227.602,101.246 C227.368,111.556 227.557,120.226 228.022,120.514 C228.487,120.801 230.81,120.359 233.184,119.533 C238.826,117.567 240.309,117.62 243.103,119.883 C245.155,121.544 245.288,122.072 244.235,124.383 C243.486,126.027 242.242,127 240.887,127 C237.164,127 230.712,129.294 224.832,132.708 C221.714,134.519 218.408,136 217.486,136 C215.388,136 205.657,138.656 201,140.5 C199.075,141.262 193.225,142.814 188,143.95 C182.775,145.086 176.7,146.533 174.5,147.166 C166.683,149.415 158.485,152.193 157.5,152.927 C156.95,153.337 153.826,154.49 150.557,155.49 C147.289,156.489 142.624,158.827 140.191,160.684 C137.519,162.723 135.088,163.845 134.052,163.517 C132.387,162.988 130.873,163.892 121.936,170.75 C115.428,175.743 111,174.8 111,168.422 C111,165.148 111.995,163.903 116.835,161.118 C125.176,156.32 129.781,153.551 132.21,151.872 C133.7,150.843 135.47,150 136.144,150 C136.817,150 139.198,149.128 141.434,148.062 C148.455,144.716 164.23,139.062 171,137.465 C174.575,136.621 185.495,133.816 195.267,131.232 L213.035,126.533 L215.373,122.016 C216.66,119.532 217.999,115.25 218.349,112.5 C219.471,103.694 219.201,62.451 217.968,54.306 C215.838,40.232 214.307,39.049 208.565,47.042 C204.113,53.24 202.291,54.078 199.844,51.056 C196.275,46.649 197.347,43.727 205.722,35.024 Z M64.681,78.707 C65.492,77.396 70.823,78.681 72.808,80.665 C74.881,82.738 75.39,91.709 75.096,121 C74.879,142.568 74.685,146.547 73.475,154.25 C72.905,157.875 73.038,159 74.035,159 C75.577,159 79,156.089 79,154.778 C79,154.277 80.125,152.392 81.5,150.589 C82.875,148.786 84,146.759 84,146.084 C84,145.409 84.675,144.182 85.5,143.357 C86.325,142.532 87,140.687 87,139.257 C87,135.538 89.706,133 93.67,133 C98.508,133 100.653,136.992 101.541,147.65 C101.925,152.259 102.635,156.275 103.12,156.574 C103.604,156.873 104,160.215 104,164 C104,167.785 104.459,171.165 105.019,171.512 C105.58,171.858 106.027,175.147 106.013,178.821 C105.999,182.494 106.012,186.85 106.042,188.5 C106.188,196.681 101.507,204.291 96.632,203.797 C91.984,203.326 91.152,200.854 93.96,195.857 C96.012,192.206 96.335,190.335 96.272,182.469 C96.144,166.718 93.224,153 89.997,153 C89.471,153 88.122,154.688 86.999,156.75 C80.985,167.798 78.747,170.97 70.557,180.048 C61.51,190.077 55.179,194.457 50.67,193.806 C49.424,193.626 47.624,191.855 46.293,189.5 C44.167,185.736 44.032,184.371 44.016,166.405 C44.001,148.842 44.154,147.171 45.918,145.575 C46.972,144.62 48.873,143.988 50.143,144.17 C53.931,144.712 55.128,148.453 54.422,157.545 C53.133,174.156 53.291,180 55.03,180 C58.186,180 62.313,174.3 63.169,168.759 C66.396,147.864 67.146,102.444 64.396,94.346 C62.889,89.906 63.045,81.355 64.681,78.707 Z M137,15.742 C140.706,13.315 142.612,13.646 145.105,17.147 L147.346,20.295 L143.802,23.397 C140.08,26.655 133.6,31.389 129.14,34.11 C127.48,35.122 126.619,36.422 126.821,37.61 C126.997,38.649 127.347,40.85 127.598,42.5 C128.967,51.495 132.854,69.529 134.139,72.849 C135.005,75.089 135.162,75.124 137.489,73.599 C141.386,71.046 143.58,71.596 145.482,75.604 C146.722,78.217 146.891,79.509 146.096,80.304 C144.315,82.085 144.837,83.838 147.25,84.18 C150.584,84.654 150.737,88.971 147.553,92.755 C146.149,94.423 145,96.212 145,96.729 C145,97.245 143.159,100.297 140.909,103.509 C135.532,111.184 135.152,112.356 134.527,123.186 C134.048,131.482 133.724,132.678 131.268,135.242 C127.561,139.111 123.907,138.704 122.646,134.281 C121.924,131.748 122.118,130.471 123.557,128.281 C125.084,125.958 125.423,123.111 125.613,111 C125.958,88.965 123.788,67.971 120.09,57.565 C118.509,53.118 118.14,50.422 118.619,46.815 C119.17,42.662 119.019,42 117.518,42 C116.561,42 113.628,43.8 111,46 C105.979,50.204 102.624,51.068 101.607,48.418 C100.6,45.795 100.922,41.482 102.25,39.786 C103.594,38.069 116.909,29.148 128.217,22.389 C129.239,21.778 131.071,20.401 132.287,19.328 C133.504,18.256 135.625,16.642 137,15.742 Z M154.336,32.567 C155.257,30.167 158.818,30.7 161.548,33.646 C164.016,36.309 164.2,37.012 164.456,44.714 C164.532,47.032 164.946,49.279 165.375,49.708 C165.804,50.137 168.03,48.466 170.322,45.994 C174.744,41.225 182.14,36 184.467,36 C186.276,36 187.332,39.375 186.423,42.25 C185.482,45.228 175.041,57.953 169.998,62.27 C167.198,64.667 166,66.487 166,68.346 C166,71.711 167.644,71.715 171.149,68.358 C173.116,66.472 175.281,65.588 178.703,65.27 C183.106,64.861 183.765,65.101 186.725,68.184 C191.489,73.147 193.725,84.437 192.145,95.552 C191.515,99.98 191,105.161 191,107.063 C191,109.282 189.83,112.313 187.74,115.511 C185.146,119.481 183.687,120.696 180.598,121.461 C176.903,122.376 176.577,122.256 173.832,118.967 C170.332,114.775 170.493,112.386 174.25,112.782 C176.415,113.01 177.44,112.293 179.589,109.044 C181.823,105.668 182.323,103.62 182.706,96.262 C183.249,85.84 182.207,80.214 179.388,78.342 C177.524,77.104 176.887,77.314 172.91,80.475 C170.485,82.403 167.768,83.985 166.872,83.99 C165.977,83.996 164.685,84.675 164,85.5 C163.315,86.325 161.965,87 161,87 C157.309,87 156.521,84.191 155.841,68.601 C155.479,60.296 154.856,49.143 154.458,43.817 C154.06,38.492 154.005,33.429 154.336,32.567 Z M196.331,189.734 C199.174,189.534 201.95,189.291 202.5,189.194 C203.05,189.097 205.75,190.125 208.5,191.478 C211.25,192.831 214.175,193.959 215,193.986 C215.825,194.012 220.325,196.499 225,199.512 C229.675,202.525 234.4,205.397 235.5,205.894 C241.187,208.466 258.732,221.695 267.75,230.212 C272.351,234.557 272.186,238.218 267.25,241.352 C262.747,244.211 261.382,243.85 259.479,239.296 C258.167,236.156 249.304,227.071 246.607,226.102 C245.998,225.884 243.025,223.614 240,221.059 C234.197,216.157 230.125,213.31 226,211.272 C224.625,210.592 221.323,208.46 218.663,206.533 C216.002,204.606 212.123,202.572 210.043,202.012 C207.963,201.451 205.062,200.05 203.596,198.897 C201.796,197.481 200.15,196.996 198.527,197.404 C197.204,197.736 195.843,197.556 195.502,197.004 C195.161,196.452 194.064,196 193.063,196 C192.063,196 190.685,195.325 190,194.5 C187.969,192.053 190.503,190.145 196.331,189.734 Z M137.43,182.467 C138.6,180.681 139.944,180 142.301,180 C148.709,180 151.9,184.795 148.642,189.527 C147.895,190.612 146.988,193.114 146.627,195.086 C146.266,197.059 144.627,200.177 142.985,202.016 C141.343,203.855 140,205.961 140,206.695 C140,209.004 130.355,221.354 125.9,224.75 C119.395,229.709 115,228.798 115,222.492 C115,219.837 115.572,219.133 118.929,217.651 C121.581,216.481 123.694,214.492 125.43,211.53 C126.844,209.116 128.569,206.547 129.264,205.821 C134.239,200.615 137.253,193.456 136.455,188.736 C136,186.042 136.284,184.216 137.43,182.467 Z M161.099,94.557 C163.675,90.191 167.152,89.777 169.619,93.541 C170.947,95.568 171.059,96.576 170.172,98.522 C169.56,99.864 168.366,105.274 167.518,110.544 C166.67,115.814 165.082,121.88 163.988,124.023 C162.895,126.167 162,128.61 162,129.453 C162,132.007 157.821,136 155.148,136 C152.151,136 149,133.376 149,130.879 C149,129.884 150.285,127.755 151.855,126.148 C153.984,123.971 155.256,120.972 156.856,114.364 C158.037,109.489 159.002,103.838 159.001,101.807 C159.001,99.776 159.944,96.514 161.099,94.557 Z M202.013,92.03 C205.581,89.906 209.175,88.144 210,88.116 C212.508,88.029 215,90.575 215,93.225 C215,96.045 211.534,101 209.562,101 C208.851,101 207.137,101.891 205.752,102.98 C204.368,104.069 201.739,105.082 199.91,105.23 C197.119,105.457 196.362,105.042 195.188,102.644 C193.186,98.556 194.509,96.499 202.013,92.03 Z M206.423,64.967 C211.226,63.024 214.636,64.518 216.341,69.313 C217.347,72.141 214.359,77 211.614,77 C210.33,77 207.547,78.176 205.43,79.612 C200.64,82.863 198.623,81.932 198.199,76.276 C197.944,72.872 198.391,71.762 201.122,69.032 C202.895,67.258 205.281,65.429 206.423,64.967 Z"/>
</svg>

