<svg xmlns="http://www.w3.org/2000/svg" width="300" height="300" viewBox="0 0 300 300" version="1.1">
  <defs/>
  <path d="M160.2,17.2 C161.701,15.699 163.055,15.722 165.087,17.282 C168.399,19.825 169.018,22.887 169.118,37.202 C169.173,45.066 169.601,53.075 170.071,55 C170.54,56.925 170.995,65.25 171.083,73.5 C171.17,81.75 171.681,92.775 172.218,98 C172.754,103.225 173.087,111.55 172.957,116.5 C172.638,128.652 172.759,203.403 173.168,246.374 L173.5,281.248 L171.115,283.124 C168.023,285.556 166.794,285.489 164.298,282.75 C161.161,279.307 159.247,274.204 155.879,260.311 C154.547,254.812 155.953,252 160.035,252 C162.591,252 163.007,251.62 163.05,249.25 C163.142,244.163 162.658,218.543 162.384,214 C161.592,200.862 162.026,118.577 162.921,112.404 C163.647,107.396 163.629,104.307 162.861,101.904 C162.263,100.032 161.634,89.5 161.465,78.5 C161.295,67.5 160.683,54.225 160.105,49 C158.642,35.777 158.693,18.707 160.2,17.2 Z M106.538,73.302 C108.18,70.795 109.58,70.509 113.294,71.922 C115.615,72.804 115.753,73.374 116.507,85.172 C118.284,112.974 116.906,152.051 113.533,169.5 C112.682,173.9 111.565,179.75 111.051,182.5 C108.686,195.136 107.544,198.435 104.217,202.25 C102.045,204.74 99.779,204.423 96.687,201.195 C93.423,197.788 93.385,197.16 96.25,193.99 C101.227,188.482 103.876,178.365 105.937,157 C108.41,131.351 108.416,131.097 106.513,130.367 C105.535,129.991 103.901,130.205 102.881,130.842 C101.861,131.479 99.083,132 96.708,132 C93.671,132 91.383,132.742 89,134.5 C84.604,137.743 83.388,137.652 81.465,133.932 C78.705,128.595 79.719,126.839 87,124.35 C93.756,122.041 104.426,121.262 105.5,123 C107.404,126.08 108,122.656 108,108.649 C108,94.301 107.397,89.745 104.781,84.31 C103.553,81.761 104.377,76.599 106.538,73.302 Z M59.2,80.2 C62.033,77.367 67.435,80.517 69.998,86.495 C72.545,92.437 74.222,106.915 73.462,116.393 C72.627,126.802 70.157,143.937 69.289,145.342 C68.614,146.433 67.323,152.502 66.382,159 C66.104,160.925 65.453,163.4 64.936,164.5 C63.676,167.182 58.103,185.37 56.817,191 C56.252,193.475 55.387,195.928 54.895,196.45 C54.403,196.973 54,198.071 54,198.89 C54,199.71 52.588,203.191 50.861,206.626 C47.401,213.512 43.369,216.381 40.499,213.999 C37.894,211.838 38.913,207.824 44.687,197.5 C45.302,196.4 46.353,193.475 47.022,191 C47.692,188.525 48.861,184.803 49.62,182.73 C50.379,180.656 51,178.063 51,176.966 C51,175.87 51.395,174.191 51.877,173.236 C53.208,170.602 55,164.564 55,162.714 C55,161.81 55.61,159.142 56.356,156.785 C59.397,147.172 60.018,144.085 63.901,119.25 C64.53,115.231 64.539,109.713 63.926,103.791 C63.129,96.093 62.565,94.155 60.487,91.986 C57.75,89.13 57.014,82.386 59.2,80.2 Z M30.684,103.241 C31.683,102.51 33.839,102.044 35.475,102.206 C38.038,102.459 39.014,103.527 42.532,109.928 C44.778,114.014 48.03,118.791 49.76,120.544 C54.345,125.192 56.685,130.47 55.04,132.452 C52.119,135.971 49.16,134.338 38.368,123.25 C28.11,112.71 27.915,112.422 28.386,108.535 C28.657,106.306 29.663,103.988 30.684,103.241 Z M152,104.323 C154.475,103.075 156.929,102.185 157.454,102.345 C158.669,102.716 160.282,108.824 159.62,110.549 C159.344,111.267 154.705,114.002 149.309,116.627 C143.914,119.253 138.375,122.385 137,123.588 C133.119,126.983 130.424,127.424 128.051,125.051 C126.923,123.923 126,121.798 126,120.329 C126,117.556 128.485,114 130.423,114 C131.035,114 133.103,112.963 135.018,111.696 C136.933,110.428 140.525,108.761 143,107.991 C145.475,107.221 149.525,105.571 152,104.323 Z"/>
</svg>

