<svg xmlns="http://www.w3.org/2000/svg" width="300" height="300" viewBox="0 0 300 300" version="1.1">
  <defs/>
  <path d="M71.738,65.522 C74.476,64.516 75.643,64.055 76.651,64.285 C77.482,64.475 78.206,65.134 79.614,66.345 C81.847,68.265 82.31,69.445 82.176,72.872 C82.086,75.173 81.173,78.731 80.148,80.778 C79.123,82.825 77.965,85.823 77.575,87.439 C77.186,89.055 75.997,91.6 74.934,93.093 C73.87,94.587 73,96.289 73,96.876 C73,97.463 71.878,100.479 70.507,103.579 C67.748,109.819 68.017,111.464 71.647,110.553 C75.384,109.615 81.654,111.747 84.058,114.774 C86.046,117.277 86.169,118.231 85.563,126.421 C84.803,136.681 81.565,144.779 73.599,156.343 C68.073,164.366 67.964,166.78 73.049,168.533 C76.887,169.856 91.02,176.759 100.205,181.798 C109.981,187.16 118.313,190.988 120.277,191.019 C120.95,191.03 125.07,193.505 129.433,196.519 C133.796,199.534 137.777,202 138.279,202 C138.781,202 140.386,202.847 141.846,203.883 C143.306,204.918 149,208.341 154.5,211.49 C160,214.638 170.876,221.441 178.668,226.607 C186.461,231.773 193.383,236 194.05,236 C194.718,236 196.829,236.967 198.742,238.15 C200.655,239.332 203.213,240.408 204.427,240.541 C207.773,240.909 215.993,247.123 216.662,249.791 C216.988,251.087 216.756,253.239 216.148,254.574 C214.71,257.731 211.048,257.752 207.327,254.624 C205.772,253.317 202.7,251.332 200.5,250.213 C198.3,249.094 193.35,246.584 189.5,244.634 C177.658,238.637 169.021,233.499 162.199,228.391 C158.606,225.701 154.053,222.666 152.083,221.646 C150.112,220.627 147.766,219.142 146.868,218.348 C145.97,217.553 142.145,215.303 138.368,213.346 C134.591,211.39 130.79,209.162 129.921,208.395 C129.053,207.628 128.009,207 127.601,207 C127.194,207 123.524,204.975 119.447,202.5 C115.37,200.025 111.464,197.997 110.767,197.993 C110.07,197.99 108.15,197.071 106.5,195.951 C104.85,194.831 102.15,193.268 100.5,192.477 C98.85,191.687 96.825,190.646 96,190.165 C95.175,189.683 91.35,187.807 87.5,185.996 C83.65,184.184 79.825,182.151 79,181.478 C78.175,180.804 75.7,179.952 73.5,179.584 C71.3,179.215 67.344,178.163 64.709,177.245 L59.918,175.576 L50.392,185.274 C45.152,190.608 39.344,196.793 37.484,199.019 C33.848,203.371 24.716,210 22.357,210 C20.042,210 10.266,202.125 9.648,199.762 C8.607,195.78 10.671,194.866 15.456,197.191 C18.155,198.502 20.667,199.05 22.209,198.662 C24.851,197.999 49.287,173.955 49.823,171.491 C50.015,170.604 49.008,169.601 47.323,169.002 C45.77,168.451 43.719,167.549 42.764,167 C41.809,166.45 40.148,166 39.073,166 C37.998,166 36.862,165.585 36.548,165.078 C36.234,164.57 32.809,163.434 28.935,162.554 C23.327,161.278 21.05,161.179 17.75,162.067 C14.136,163.04 13.44,162.955 12.303,161.4 C10.249,158.59 10.742,155.215 13.468,153.429 C14.825,152.54 16.513,152.01 17.218,152.252 C17.923,152.494 19.754,152.338 21.287,151.905 C23.037,151.411 25.829,151.65 28.787,152.548 C31.379,153.335 34.625,153.985 36,153.993 C38.982,154.01 52.049,158.966 54.52,161.017 C56.089,162.319 56.596,162.075 59.639,158.555 C61.496,156.406 64.2,152.59 65.647,150.074 C67.094,147.558 68.959,144.714 69.792,143.752 C71.73,141.515 74.925,132.304 74.967,128.832 C75.044,122.593 73.366,121.81 66.764,125 C64.487,126.1 61.957,127 61.141,127 C58.712,127 55.999,123.875 56.015,121.095 C56.031,118.381 58.134,111.532 59.315,110.352 C59.692,109.975 60,108.492 60,107.056 C60,105.62 60.605,103.557 61.345,102.473 C62.084,101.388 63.21,98.385 63.847,95.799 C64.483,93.214 66.128,88.984 67.502,86.4 C71.42,79.032 70.321,75.909 64.983,79.243 C62.483,80.804 59.888,79.381 58.589,75.736 C57.614,73.003 59.508,70 62.206,70 C62.948,70 64.55,69.303 65.765,68.452 C66.981,67.6 69.668,66.282 71.738,65.522 Z M111.975,122.565 C113.821,117.711 121,120.153 121,125.634 C121,127.005 122.436,131.102 124.19,134.74 C127.925,142.485 130.325,153.525 128.866,156.251 C128.331,157.25 128.03,160.19 128.197,162.784 L128.5,167.5 L174.22,167.5 C219.552,167.5 219.957,167.518 222.074,169.632 C224.572,172.127 224.097,174.793 220.761,177.002 C218.862,178.26 212.419,178.521 180.5,178.632 C137.331,178.782 113.118,179.624 109.207,181.111 C106.942,181.972 106.25,181.792 104.762,179.955 C100.551,174.754 105.454,169 114.096,169 C115.164,169 115.879,169.02 116.414,168.719 C117.546,168.085 117.875,166.021 119.043,159.32 C120.158,152.924 120.104,151.723 118.548,148.32 C117.588,146.219 115.914,142.475 114.829,140 C113.744,137.525 112.439,134.719 111.928,133.764 C110.718,131.5 110.742,125.809 111.975,122.565 Z M142.591,42.25 C145.274,38.102 154,39.83 154,44.51 C154,48.482 148.485,59.229 144.512,63 C140.733,66.587 137,72.754 137,75.41 C137,76.23 137.628,77.26 138.396,77.7 C142.043,79.79 144.089,86.63 144.925,99.523 C145.379,106.517 145.529,113.086 145.258,114.12 C144.286,117.838 147.587,115.891 156.5,107.49 C161.45,102.825 166.226,99.006 167.114,99.004 C169.293,98.999 174,103.835 174,106.08 C174,107.074 172.141,109.375 169.869,111.194 C167.597,113.012 162.354,117.994 158.218,122.264 C152.176,128.502 150.187,129.976 148.099,129.764 L145.5,129.5 L144.937,142.876 C144.452,154.417 144.117,156.441 142.496,157.626 C140.087,159.388 139.54,159.355 137.872,157.346 C136.797,156.049 136.48,150.368 136.41,131.096 C136.309,103.744 135.646,95.278 133.175,89.761 C131.296,85.569 130.464,85.118 129.737,87.898 C129.464,88.942 128.003,90.607 126.491,91.598 C123.792,93.366 123.707,93.357 121.871,91.089 C119.664,88.363 119.447,83.819 121.377,80.715 C122.134,79.497 124.766,75.35 127.226,71.5 C133.341,61.929 136.832,55.508 139.165,49.54 C140.25,46.768 141.791,43.487 142.591,42.25 Z"/>
</svg>

