<svg xmlns="http://www.w3.org/2000/svg" width="300" height="300" viewBox="0 0 300 300" version="1.1">
  <defs/>
  <path d="M147.441,28.265 C150.141,26.645 151.112,26.689 153.777,28.557 C158.204,31.657 155.467,35.59 145.5,40.45 C143.3,41.523 140.825,42.934 140,43.585 C139.175,44.237 133.552,47.351 127.505,50.505 C121.457,53.66 115.434,57.087 114.12,58.12 C112.806,59.154 111.305,60 110.785,60 C110.264,60 107.513,61.505 104.669,63.345 C101.826,65.184 97.377,67.997 94.782,69.595 C91.471,71.634 90.257,72.947 90.71,74 C92.936,79.176 91.999,88.381 88.387,96.819 C86.969,100.131 87.231,102 89.113,102 C90.081,102 101.289,93.085 107.664,87.244 L110.829,84.345 L109.339,78.923 C108.002,74.053 108.012,73.118 109.438,69.75 C110.575,67.066 111.64,66 113.185,66 C117.663,66 120.782,71.818 117.867,74.733 C116.499,76.101 117.43,79.015 119.219,78.962 C119.923,78.94 122.722,76.965 125.438,74.572 L130.375,70.222 L128.658,67.601 C125.121,62.203 131.547,57.81 137.04,61.871 C140.803,64.654 141.704,64.573 147.425,60.946 C153.612,57.022 158.342,57.128 158.812,61.201 C159.221,64.751 157.409,68 155.018,68 C153.966,68 150.948,69.147 148.311,70.549 C144.082,72.798 143.377,73.653 142.338,77.799 C139.936,87.38 134.445,104.09 132.366,108.146 C131.497,109.842 131.223,112.356 131.602,115.146 C132.084,118.685 131.785,120.019 130.007,122.273 C127.629,125.286 115.815,131.305 113.254,130.808 C112.383,130.638 110.803,128.946 109.742,127.047 C107.934,123.809 107.906,123.216 109.291,117.547 C111.088,110.189 111.048,99.865 109.22,99.247 C108.516,99.008 106.266,100.609 104.22,102.804 C99.807,107.538 92.666,111.5 88.546,111.5 C86.005,111.5 85.468,111.99 84.707,115 C83.84,118.426 80.645,126.788 78.886,130.236 C78.399,131.191 78,132.473 78,133.085 C78,134.232 76.916,136.835 71.792,147.994 C68.088,156.06 67.69,159.556 70.5,159.361 C74.26,159.1 103.697,146.77 128.5,135.068 C131.8,133.511 136.632,131.516 139.238,130.634 C141.844,129.753 144.769,128.607 145.738,128.088 C146.707,127.568 149.75,126.168 152.5,124.975 C155.25,123.783 158.85,122.211 160.5,121.483 C162.15,120.754 165.655,119.403 168.289,118.481 C170.924,117.559 174.364,115.723 175.934,114.402 C179.111,111.729 182.69,111.322 185.427,113.323 C186.838,114.355 187.079,115.362 186.523,117.896 C185.732,121.497 181.951,124.354 175.718,126.059 C173.637,126.629 169.065,128.423 165.556,130.047 C162.047,131.671 158.768,133 158.268,133 C157.768,133 153.116,134.846 147.929,137.102 C142.743,139.358 136.025,142.229 133,143.481 C119.138,149.218 102.67,156.484 98,158.922 C96.075,159.927 92.94,161.088 91.033,161.502 C89.126,161.916 86.876,162.615 86.033,163.056 C81.144,165.611 75.131,168 73.589,168 C72.61,168 70.561,168.889 69.035,169.975 C67.509,171.061 65.077,172.4 63.631,172.95 C62.057,173.549 61,174.718 61,175.861 C61,176.912 60.328,179.06 59.506,180.636 C58.685,182.211 58.01,184.197 58.006,185.05 C58.003,185.903 57.628,187.028 57.174,187.55 C56.72,188.072 55.726,190.525 54.966,193 C54.206,195.475 53.333,197.725 53.027,198 C52.721,198.275 50.926,203.45 49.038,209.5 C47.151,215.55 45.245,220.927 44.803,221.45 C44.362,221.972 44,223.42 44,224.666 C44,226.696 42.327,231.393 39.878,236.236 C39.395,237.191 39,238.57 39,239.299 C39,240.029 37.875,242.958 36.5,245.808 C35.125,248.658 34,251.491 34,252.103 C34,252.716 32.995,255.407 31.767,258.083 C28.851,264.441 24.669,266.545 21.856,263.07 C19.348,259.973 19.463,259.25 23.474,252.954 C25.385,249.954 26.96,246.739 26.974,245.809 C26.988,244.879 27.415,243.861 27.923,243.548 C28.431,243.234 29.16,241.52 29.544,239.739 C29.927,237.957 30.933,235.15 31.779,233.5 C32.625,231.85 33.66,229.15 34.08,227.5 C35.55,221.714 42.071,202.727 45.069,195.5 C45.526,194.4 46.559,191.475 47.365,189 C48.171,186.525 49.795,182.264 50.974,179.53 L53.117,174.561 L50.559,172.697 C47.794,170.683 47.244,167.356 49.25,164.772 C49.938,163.886 52.593,162.196 55.151,161.017 C59.048,159.22 59.906,158.314 60.449,155.422 C60.986,152.556 63.664,145.388 69.01,132.5 C71.638,126.164 75,116.224 75,114.788 C75,113.869 75.45,112.84 76,112.5 C76.55,112.16 77,110.588 77,109.006 C77,107.424 77.475,104.88 78.057,103.351 C78.638,101.823 79.763,96.506 80.558,91.536 C81.353,86.566 82.28,81.263 82.618,79.75 C83.413,76.195 82.326,76.228 74.623,79.99 C71.255,81.635 66.025,83.852 63,84.918 C59.975,85.984 53.988,88.108 49.696,89.639 C41.219,92.661 38.8,92.324 38.165,88.033 C37.623,84.368 38.246,84.011 55,78.392 C59.125,77.009 63.497,75.23 64.715,74.438 C65.933,73.647 67.627,73 68.48,73 C70.464,73 84.014,66.118 95.11,59.476 C99.845,56.641 104.345,54.017 105.11,53.645 C105.874,53.272 108.525,51.643 111,50.025 C113.475,48.407 117.975,45.86 121,44.366 C124.025,42.873 128.607,40.267 131.183,38.575 C136.231,35.26 144.118,30.259 147.441,28.265 Z M139,154.922 C143.411,153.974 148.606,154.695 151.628,156.676 C154.255,158.397 155.986,163.507 155.994,169.562 C156.001,174.067 152.39,188.961 150.931,190.45 C150.419,190.973 150,192.054 150,192.853 C150,195.183 144.044,207.141 140.711,211.5 C136.545,216.949 135.095,218 131.738,218 C130.154,218 126.243,219.449 123.046,221.22 C118.069,223.977 117.002,224.247 115.617,223.097 C112.908,220.849 113.726,217.253 118,212.616 C120.2,210.229 122,207.554 122,206.672 C122,205.79 122.739,203.518 123.642,201.625 C126.45,195.735 123.6,192.966 118.835,196.954 C117.551,198.029 115.24,199.942 113.701,201.204 C110.904,203.498 110.903,203.504 112.451,207.876 C114.62,214.004 114.448,214.819 110.591,216.658 C105.958,218.867 104,217.928 104,213.496 C104,211.535 103.386,208.933 102.635,207.715 C101.884,206.497 100.688,203.25 99.976,200.5 C98.698,195.557 93.624,187.408 87.179,179.945 C83.087,175.208 83.063,171.039 87.119,169.621 C89.294,168.861 90.354,169.197 93.369,171.603 C95.366,173.196 97,175.218 97,176.095 C97,176.972 97.9,178.505 99,179.5 C100.1,180.495 101,181.683 101,182.14 C101,182.596 102.389,185.227 104.086,187.985 C107.587,193.675 109.532,194.198 113.076,190.405 C114.409,188.978 116.724,187.173 118.22,186.395 C121.491,184.693 122.542,182.862 123.472,177.25 C124.486,171.128 122.337,171.673 116.581,179 C111.927,184.924 109.544,186.144 107.2,183.8 C104.358,180.958 105.864,177.294 112.75,170.296 C119.647,163.287 130.99,156.643 139,154.922 Z M152.072,246.045 C158.747,244.672 167.717,246.235 177.5,250.477 C179.15,251.192 181.625,252.104 183,252.504 C184.375,252.903 187.3,254.141 189.5,255.255 C198.7,259.914 200.681,260.814 204.259,261.959 C206.327,262.62 208.633,263.776 209.385,264.528 C210.137,265.279 215.968,268.587 222.344,271.878 C234.164,277.978 241.632,282.647 243.857,285.328 C245.841,287.718 242.968,293.54 239.358,294.447 C236.843,295.079 236.02,294.632 232.5,290.726 C228.547,286.339 224.567,283.726 212.119,277.344 C208.61,275.545 205.01,273.451 204.119,272.691 C202.102,270.968 195.876,268.056 185.5,263.981 C181.1,262.253 176.15,260.22 174.5,259.464 C168.589,256.755 162.389,254.808 155.672,253.551 C144.703,251.497 142.985,247.915 152.072,246.045 Z M113.39,231.25 C114.467,230.012 116.022,229 116.846,229 C118.79,229 122,231.92 122,233.688 C122,238.931 105.603,261.478 94.684,271.25 C90.536,274.962 86.902,278 86.61,278 C86.317,278 82.442,280.475 78,283.5 C71.273,288.081 69.197,289 65.584,289 C60.518,289 57.97,286.947 60,284.5 C60.685,283.675 61.986,283 62.892,283 C64.885,283 83.517,269.105 90.577,262.355 C96.357,256.827 105.597,244.665 109.08,238 C110.374,235.525 112.313,232.488 113.39,231.25 Z M106.25,6.031 C110.211,4.439 111.504,4.911 115.064,9.25 C122.499,18.31 123.238,20.695 120.352,26.3 C115.667,35.396 111.028,38.349 108.868,33.609 C107.962,31.621 108.173,30.685 110.118,28.054 L112.457,24.89 L110.479,21.195 C109.289,18.973 107.632,17.376 106.323,17.19 C102.989,16.715 101.353,14.266 102.81,11.932 C103.465,10.884 104,9.332 104,8.481 C104,7.631 105.013,6.529 106.25,6.031 Z M124.999,86.501 C122.324,89.261 121.424,91.22 120.749,95.751 C118.981,107.614 118.79,111 119.889,111 C122.132,111 132.705,85.95 131.372,83.793 C130.387,82.199 128.316,83.079 124.999,86.501 Z M138.268,184.25 C132.947,187.987 131.525,194.113 135.613,195.682 C138.231,196.686 140.234,194.758 142.109,189.431 C145.004,181.206 144.182,180.097 138.268,184.25 Z M134.735,166.767 C133.179,167.732 132.196,169.067 132.485,169.822 C132.768,170.56 133,171.802 133,172.582 C133,174.478 137.408,174.418 139,172.5 C139.685,171.675 140.779,171 141.431,171 C142.084,171 143.474,170.374 144.521,169.608 C146.138,168.426 146.224,167.975 145.09,166.608 C143.355,164.518 138.237,164.596 134.735,166.767 Z"/>
</svg>

