<svg xmlns="http://www.w3.org/2000/svg" width="300" height="300" viewBox="0 0 300 300" version="1.1">
  <defs/>
  <path d="M147.132,51.005 C153.318,44.733 154.444,44 157.904,44 C161.138,44 162.352,44.647 165.358,47.975 C167.333,50.161 169.158,52.973 169.414,54.225 C169.67,55.476 170.198,57.85 170.587,59.5 C171.89,65.013 172.189,87.415 171.055,94.5 C168.876,108.114 166.658,112.42 156.816,122.149 L153.125,125.798 L153.65,136.649 C153.939,142.617 154.576,147.918 155.067,148.43 C156.398,149.816 160.059,147.506 167.063,140.862 C170.462,137.638 173.751,135.015 174.371,135.033 C176.638,135.1 180,138.88 180,141.36 C180,145.794 173.306,155.718 162.25,167.678 C159.363,170.802 157,173.558 157,173.804 C157,175.028 163.749,172.674 165.964,170.677 C169.614,167.385 177.374,165.592 180.828,167.242 C187.407,170.385 183.457,175.922 172.036,179.569 C164.412,182.004 160.469,183.956 157,187.012 C147.287,195.571 128.738,206 123.227,206 C120.352,206 119.693,205.51 118.399,202.413 C116.924,198.881 116.953,198.764 120.32,194.663 C122.201,192.374 126.527,188.25 129.934,185.5 C140.806,176.725 145,172.413 145,170.011 C145,167.874 144.719,167.78 140.25,168.408 C126.528,170.339 126.336,170.336 124.116,168.116 C121.777,165.777 121.306,161.55 123.25,160.341 C123.938,159.914 127.875,159.526 132,159.48 C136.452,159.431 140.719,158.794 142.5,157.914 L145.5,156.43 L145.241,146.965 C144.926,135.454 144.001,131.618 141.428,131.147 C139.06,130.713 136,128.104 136,126.519 C136,125.875 134.914,124.329 133.587,123.082 C131.053,120.701 131.019,120.53 129.091,100.5 C128.562,95 127.66,88.7 127.088,86.5 C126.516,84.3 126.037,80.389 126.024,77.809 C126.011,75.229 125.55,72.84 125,72.5 C124.45,72.16 124,70.777 124,69.427 C124,68.077 123.605,66.191 123.122,65.236 C120.33,59.715 119.002,55.502 119.015,52.216 C119.038,46.742 120.101,45.609 124.45,46.425 C127.609,47.017 128.39,47.743 130.06,51.639 C131.127,54.129 132,58.323 132,60.96 C132,63.796 132.559,66.219 133.367,66.89 C134.99,68.236 135.878,67.344 138.48,61.755 C139.438,59.696 143.332,54.859 147.132,51.005 Z M47.63,71.79 C48.456,70.453 52.432,70.914 54.883,72.631 C58.05,74.849 60,79.926 60,85.954 C60,92.082 62.003,100 63.552,100 C64.178,100 65.505,99.1 66.5,98 C69.266,94.943 74.991,95.311 78.16,98.75 C82.793,103.779 84,106.344 84,111.163 C84,113.759 84.408,116.134 84.907,116.442 C86.495,117.424 87.152,135.036 86.121,149 C84.855,166.145 84.417,168.097 80.999,171.839 C77.362,175.822 73.59,176.78 69.968,174.64 C66.27,172.455 65.25,172.57 64.532,175.25 C64.201,176.488 63.424,179.188 62.805,181.251 C61.994,183.954 61.981,185.662 62.758,187.368 C63.605,189.228 63.504,190.068 62.285,191.286 C61.01,192.562 60.672,196.456 60.389,213.169 C59.608,259.2 58.801,270.489 55.882,276.236 C55.397,277.191 55,278.909 55,280.052 C55,285.706 50.848,287.734 47.43,283.75 C44.967,280.878 44.982,274.695 47.465,270 C50.035,265.141 50.9,253.815 51.969,211 C53.592,145.992 53.229,128.238 50.256,127.251 C49.572,127.023 48.606,127.905 48.11,129.21 C47.031,132.048 45.212,133.652 42.5,134.157 C40.568,134.517 40.512,135.175 40.862,153.516 C41.198,171.154 41.086,172.673 39.274,174.91 C36.409,178.448 35,176.787 35,169.875 C35,166.572 34.592,163.106 34.093,162.174 C33.594,161.242 32.656,154.859 32.008,147.989 C30.302,129.898 29.282,121.326 27.989,114.196 C26.674,106.95 27.518,105 31.967,105 C36.766,105 37.916,107.515 38.401,119.058 C38.642,124.801 38.876,129.613 38.92,129.75 C38.964,129.887 39.87,130 40.933,130 C42.972,130 43.477,128.959 44.57,122.5 C44.943,120.3 46.062,117.6 47.057,116.5 C48.052,115.4 49.275,113.375 49.775,112 C50.733,109.361 49.829,91.541 48.128,79.54 C47.586,75.712 47.361,72.224 47.63,71.79 Z M237.762,177.695 C238.827,175.675 241.519,177.71 241.813,180.758 C241.986,182.541 242.473,184 242.896,184 C243.319,184 244.473,187.488 245.461,191.75 C246.448,196.012 247.581,200.4 247.978,201.5 C250.652,208.9 251.255,210.775 251.677,213 C251.937,214.375 252.539,216.4 253.013,217.5 C253.995,219.777 254.658,223.876 256.004,236 C256.523,240.675 257.476,246.566 258.122,249.091 C259.692,255.229 258.921,257.554 253.276,263.694 C248.846,268.511 247.775,269.104 238.5,271.869 C229.521,274.547 226.56,274.919 209.5,275.518 C188.977,276.238 180.227,275.213 172.361,271.169 C161.987,265.834 160.088,259.785 160.035,231.917 C160.016,221.696 159.712,213.045 159.36,212.693 C159.008,212.341 157.437,212.81 155.869,213.736 C153.559,215.101 152.781,215.178 151.76,214.142 C150.746,213.115 150.793,212.634 152,211.683 C152.825,211.032 154.795,208.768 156.377,206.65 C158.903,203.27 159.623,202.875 162.282,203.406 C166.919,204.334 167.741,205.535 169.05,213.295 C169.975,218.783 169.995,222.653 169.131,229.681 C167.735,241.04 167.693,246.692 169,247.5 C169.55,247.84 170,249.751 170,251.747 C170,256.462 173.522,261.58 178.007,263.381 C185.763,266.496 195.631,267.112 213,265.566 C246.369,262.596 249.481,260.514 248.709,241.678 C248.479,236.08 247.741,229.25 247.068,226.5 C246.395,223.75 245.451,219.925 244.97,218 C244.489,216.075 242.974,209.775 241.603,204 C240.231,198.225 238.781,192.15 238.38,190.5 C237.534,187.021 237.14,178.873 237.762,177.695 Z M65.336,111.777 L62.172,114.5 L62.336,137.816 L62.5,161.132 L67.236,163.816 C72.736,166.933 75.312,166.205 75.785,161.399 C75.942,159.805 76.526,157.59 77.083,156.477 C78.224,154.196 77.751,122.631 76.491,117 C74.657,108.806 70.856,107.026 65.336,111.777 Z M125.655,221.829 C127.631,219.646 130.312,219.466 131.924,221.409 C133.86,223.741 132.182,233.808 128.077,244.5 C122.677,258.561 109.882,275.705 105.432,274.842 C102.683,274.309 101.468,269.412 103.416,266.718 C104.298,265.498 107.476,261.125 110.476,257 C115.872,249.584 122,238.144 122,235.489 C122,234.735 122.45,233.84 123,233.5 C123.55,233.16 124,230.806 124,228.27 C124,225.381 124.619,222.974 125.655,221.829 Z M150.415,64.25 C147.073,67.688 142.406,73.3 140.043,76.723 C135.995,82.589 135.774,83.264 136.206,88.472 C136.458,91.511 136.958,94.291 137.316,94.65 C137.675,95.008 141.013,92.148 144.734,88.295 C152.413,80.341 156.993,77.531 160.741,78.471 L163.266,79.105 L162.546,69.894 C161.448,55.867 159.464,54.943 150.415,64.25 Z M151.5,99.058 C147.65,102.375 143.262,105.755 141.75,106.57 C139.265,107.908 139,108.579 139,113.526 C139,120.405 140.439,120.641 148,115 C150.949,112.8 153.73,111 154.181,111 C154.631,111 155,110.395 155,109.655 C155,108.915 155.903,107.492 157.007,106.493 C161.618,102.321 163.863,92.986 160.25,93.013 C159.287,93.02 155.35,95.74 151.5,99.058 Z M159.084,153.894 C156.076,157.692 155.069,161 156.922,161 C158.239,161 165,152.898 165,151.32 C165,148.787 162.145,150.029 159.084,153.894 Z"/>
</svg>

