<svg xmlns="http://www.w3.org/2000/svg" width="300" height="300" viewBox="0 0 300 300" version="1.1">
  <defs/>
  <path d="M145.053,85.946 C145.892,85.415 146.318,85.13 146.762,85.098 C147.278,85.062 147.818,85.368 149.055,86.03 C152.531,87.89 153.999,92.381 154.015,101.2 C154.033,110.852 154.887,113.131 157.662,110.936 C162.821,106.855 167.025,102.492 167.612,100.611 C168.987,96.2 172.826,95.822 176.46,99.74 C177.787,101.171 178.699,102.145 178.837,103.218 C179.135,105.545 175.791,108.337 165.14,117.271 L156.78,124.283 L157.458,134.891 C157.83,140.726 158.556,148.269 159.071,151.654 C159.586,155.038 160.23,168.088 160.503,180.654 C160.775,193.219 161.263,207.775 161.586,213 C162.411,226.319 162.348,275.37 161.497,282.177 C160.486,290.272 156.993,294.264 150.802,294.4 C146.579,294.492 145.897,294.144 142.182,290 C137.122,284.355 128.754,268.752 129.181,265.758 C129.56,263.098 132.204,262.328 134.129,264.318 C135.367,265.598 141.838,273.537 146.912,280 C148.523,282.052 149.199,282.301 150.687,281.387 C152.377,280.349 152.491,278.247 152.371,250.387 C152.119,191.952 150.022,142.344 147.42,133.25 C146.798,131.075 143.589,131.89 139.545,135.25 C135.631,138.503 131.56,141.19 125,144.848 C123.075,145.921 119.475,148.866 117,151.392 C112.259,156.23 109.758,156.996 106.959,154.463 C105.498,153.141 105.429,152.437 106.465,149.425 C108.259,144.205 114.363,138.582 123.172,134.032 C127.49,131.802 134.056,127.812 137.762,125.164 L144.5,120.35 L144.343,113.425 C144.257,109.616 144.056,102.081 143.896,96.681 C143.668,88.966 143.916,86.666 145.053,85.946 Z M126.5,48.435 C134.2,43.901 141.227,40.149 142.115,40.096 C144.199,39.972 149,43.74 149,45.499 C149,46.244 147.762,47.498 146.25,48.286 C143.73,49.599 141.06,51.044 128,58.163 C125.525,59.512 121.596,61.827 119.27,63.308 C116.943,64.789 114.802,66 114.511,66 C114.221,66 112.119,67.35 109.841,69 C107.564,70.65 105.127,72 104.427,72 C103.726,72 101.881,73.063 100.327,74.363 C98.772,75.663 96.375,77.066 95,77.481 C93.625,77.897 91.825,78.823 91,79.541 C90.175,80.258 86.013,82.454 81.75,84.42 C77.487,86.387 74,88.299 74,88.669 C74,89.04 74.75,90.171 75.666,91.183 C77.124,92.794 77.176,93.614 76.085,97.762 C75.399,100.368 74.468,104.975 74.016,108 C72.997,114.815 71.667,119.885 70.156,122.708 C69.52,123.896 69,125.879 69,127.113 C69,130.414 67.002,136.462 62.762,146 C61.417,149.025 59.772,153.705 59.106,156.401 C58.44,159.097 57.304,162.472 56.582,163.901 C55.859,165.33 54.689,168.963 53.981,171.973 C53.273,174.983 51.638,179.548 50.347,182.118 C49.056,184.688 48,187.458 48,188.273 C48,189.088 47.325,190.315 46.5,191 C45.675,191.685 44.999,192.977 44.997,193.872 C44.995,194.768 43.42,198.624 41.497,202.443 C39.574,206.261 38,209.806 38,210.32 C38,211.241 29.747,227.865 26.129,234.232 C19.332,246.193 17.912,247.145 13.314,242.826 C10.071,239.778 10.403,238.065 15.094,233.651 C17.344,231.534 19.825,228.384 20.607,226.651 C21.39,224.918 22.464,222.825 22.996,222 C24.64,219.445 30,207.701 30,206.652 C30,206.105 30.628,204.947 31.396,204.079 C32.163,203.21 33.5,200.386 34.366,197.802 C35.233,195.218 36.825,191.168 37.906,188.802 C39.628,185.031 41.368,179.964 48.657,157.5 C49.549,154.75 50.667,152.072 51.14,151.55 C51.613,151.028 52,149.43 52,148 C52,146.57 52.387,144.972 52.859,144.45 C53.331,143.928 54.953,139.9 56.462,135.5 C57.972,131.1 59.595,126.6 60.069,125.5 C61.229,122.813 63.148,111.679 63.518,105.5 C63.682,102.75 64.756,98.721 65.904,96.546 C67.21,94.074 67.639,92.239 67.051,91.651 C65.857,90.457 57.187,92.713 54.681,94.869 C53.38,95.989 50.057,96.548 43.015,96.83 L33.168,97.226 L31.518,94.036 C29.893,90.893 29.911,90.81 32.684,88.424 C34.934,86.489 36.62,86.002 41.072,86.001 C44.136,86.001 48.636,85.381 51.072,84.625 C53.507,83.869 57.975,82.71 61,82.05 C66.703,80.805 67.543,80.474 80.009,74.561 C84.139,72.603 88.076,71 88.759,71 C89.441,71 90,70.592 90,70.094 C90,69.596 92.813,67.798 96.25,66.098 C99.688,64.398 104.75,61.583 107.5,59.842 C110.25,58.102 118.8,52.969 126.5,48.435 Z M83.068,120.419 C84.661,118.499 90.518,119.089 92.831,121.403 C94.125,122.696 94.103,123.692 92.648,129.686 C91.739,133.434 90.996,137.497 90.997,138.716 C90.999,139.934 89.708,142.252 88.13,143.867 C86.551,145.482 84.964,148.378 84.603,150.301 C84.242,152.225 83.284,154.349 82.474,155.022 C81.663,155.695 80.998,156.752 80.995,157.372 C80.99,158.623 76.187,168.103 70.624,177.846 C65.924,186.077 65.892,188 70.453,188 C73.056,188 74.349,188.646 75.703,190.622 C76.691,192.063 78.501,194.322 79.724,195.641 C81.997,198.092 83.271,205.119 83.232,215 C83.199,223.616 80.767,230 77.519,230 C75.124,230 71.874,225.277 71.925,221.869 C72.187,204.364 71.385,201.397 66.46,201.656 C63.489,201.812 58.018,203.963 54.75,206.26 C53.434,207.185 52.566,207.21 51.25,206.361 C48.276,204.442 49.101,196.433 52.843,190.888 C54.55,188.359 56.633,185.719 57.473,185.022 C58.313,184.325 59,183 59,182.078 C59,181.155 59.414,179.972 59.92,179.45 C61.259,178.069 73,154.417 73,153.102 C73,152.49 74.125,149.658 75.5,146.808 C76.875,143.958 78,140.795 78,139.781 C78,138.766 78.675,136.319 79.501,134.344 C80.326,132.368 81.165,128.79 81.365,126.392 C81.564,123.995 82.331,121.306 83.068,120.419 Z M97.686,18.415 C99.12,17.087 100.496,16 100.745,16 C102.36,16 114.815,31.414 115.543,34.314 C117.12,40.6 110.003,50.676 101.987,53.505 C99.656,54.327 97.58,55 97.374,55 C96.067,55 97.61,51.634 101.5,46 C103.968,42.425 105.991,38.912 105.994,38.194 C106.002,36.55 100.249,31.13 97.224,29.932 C92.882,28.211 93.105,22.661 97.686,18.415 Z M110.354,185.237 C110.792,184.528 113.201,184 115.998,184 C120.277,184 121.472,184.51 125.689,188.136 C131.479,193.114 132.221,194.271 131.814,197.675 C131.306,201.916 128.747,202.788 124.239,200.255 C122.115,199.061 118.38,197.779 115.939,197.405 C113.497,197.032 110.961,196.303 110.302,195.784 C109.026,194.78 109.063,187.325 110.354,185.237 Z"/>
</svg>

