<svg xmlns="http://www.w3.org/2000/svg" width="300" height="300" viewBox="0 0 300 300" version="1.1">
  <defs/>
  <path d="M138.5,142.348 C146.039,139.529 148.076,139.485 151.365,142.073 C153.546,143.788 153.997,144.951 153.985,148.823 C153.964,155.287 152.03,160.234 147.69,164.925 C143.666,169.274 143.16,171.788 145.569,175.465 C146.996,177.643 146.994,178.08 145.541,180.297 C142.9,184.328 134.592,190.764 128.617,193.406 C123.404,195.711 123,196.131 123,199.245 C123,201.09 122.577,203.028 122.059,203.55 C120.809,204.813 120.061,223.646 120.901,232.706 C121.908,243.565 124.578,245.56 142.81,249.069 C151.286,250.701 174.015,248.488 206,242.918 C212.325,241.816 223.753,240.485 231.395,239.96 C239.037,239.435 245.899,238.499 246.645,237.88 C248.414,236.411 248.326,229.195 246.5,226 C245.714,224.625 245.055,221.839 245.035,219.809 C245.016,217.779 244.55,215.84 244,215.5 C243.45,215.16 243,213.195 243,211.132 C243,209.07 242.339,206.509 241.532,205.441 C240.724,204.374 240.049,201.614 240.032,199.309 C240.014,197.004 239.55,194.84 239,194.5 C238.45,194.16 238,192.135 238,190 C238,187.865 237.55,185.84 237,185.5 C236.45,185.16 236,182.209 236,178.941 C236,174.284 236.33,173 237.525,173 C238.363,173 239.498,174.238 240.045,175.75 C240.593,177.262 241.451,179.4 241.952,180.5 C242.454,181.6 243.068,183.85 243.318,185.5 C243.783,188.578 245.596,194.152 247.134,197.236 C247.61,198.191 248,199.852 248,200.927 C248,202.002 248.45,203.16 249,203.5 C249.55,203.84 250.014,205.104 250.032,206.309 C250.049,207.514 250.724,209.374 251.532,210.441 C252.339,211.509 253,213.202 253,214.205 C253,215.207 253.384,216.809 253.853,217.764 C256.461,223.074 257.889,227.076 258.91,231.94 C259.959,236.934 259.885,237.549 258.005,239.44 C256.879,240.573 255.064,242.699 253.973,244.165 C252.217,246.523 251.093,246.905 244.244,247.474 C239.985,247.828 234.475,248.527 232,249.028 C229.525,249.529 219.4,250.878 209.5,252.027 C199.6,253.176 189.025,254.774 186,255.578 C182.715,256.451 172.992,257.296 161.858,257.675 C141.124,258.38 129.892,257.216 124,253.749 C119.102,250.867 113,244.903 113,242.997 C113,242.119 112.525,240.925 111.944,240.344 C110.673,239.073 111.175,218.831 112.983,198.5 C113.668,190.8 114.196,179.019 114.157,172.32 L114.086,160.14 L116.986,159.503 C119.455,158.961 119.933,158.325 120.194,155.241 C120.469,151.98 121.101,151.264 126.5,148.104 C129.8,146.172 135.2,143.581 138.5,142.348 Z M119.035,85.934 C120.208,83.742 124.899,83.299 126.8,85.2 C127.46,85.86 127.975,88.672 127.945,91.45 C127.89,96.601 125.802,110.684 124.492,114.75 C123.554,117.66 125.957,117.81 128.5,115 C129.495,113.9 131.054,113 131.964,113 C132.873,113 136.066,111.512 139.059,109.694 C142.051,107.876 145.625,105.739 147,104.944 C148.375,104.15 149.725,103.26 150,102.967 C150.275,102.674 152.963,100.875 155.974,98.969 C160.852,95.881 162.199,95.504 168.336,95.502 C175.183,95.5 175.246,95.525 179.003,99.756 C181.082,102.097 183.035,105.472 183.343,107.256 C183.651,109.04 184.372,113.2 184.946,116.5 C186.298,124.28 186.118,159.652 184.708,162.977 C183.719,165.312 183.205,169.117 181.428,187.26 C180.855,193.113 180.369,194.353 177.806,196.51 C175.367,198.562 173.784,199 168.805,199 L162.763,199 L155.679,192.096 C149.527,186.1 148.77,184.982 149.92,183.596 C151.926,181.18 154.662,181.65 161,185.5 C169.867,190.886 172.955,190.003 173.06,182.05 C173.092,179.547 173.525,175.25 174.021,172.5 C175.657,163.439 177.262,141.675 177.043,131.542 C176.708,116.059 175.621,111.012 171.9,107.65 C167.412,103.596 165.377,104.081 151.856,112.42 C141.474,118.822 125.077,127 122.623,127 C120.312,127 119.866,127.618 116.491,135.5 C112.663,144.441 110.605,147.878 105.387,154.043 C99.653,160.818 98.37,161.533 96.7,158.886 C95.594,157.133 95.677,156.896 99.952,149.5 C103.704,143.008 108,134.045 108,132.708 C108,132.13 108.595,130.947 109.322,130.079 C110.05,129.21 111.256,126.475 112.002,124 C112.749,121.525 113.745,118.985 114.215,118.356 C114.685,117.727 115.343,114.901 115.677,112.077 C116.012,109.252 116.671,106.703 117.143,106.412 C117.614,106.12 118,101.829 118,96.875 C118,91.922 118.466,86.998 119.035,85.934 Z M95.655,80.829 C97.7,78.569 99.347,78.508 101.105,80.626 C103.025,82.941 102.499,109.135 100.452,113.093 C99.653,114.637 99,117.246 99,118.891 C99,120.536 98.55,122.16 98,122.5 C97.45,122.84 96.986,124.329 96.968,125.809 C96.951,127.289 96.276,129.374 95.468,130.441 C94.661,131.509 94,133.202 94,134.205 C94,135.207 93.587,136.809 93.083,137.764 C92.579,138.719 91.412,142.087 90.491,145.248 C89.569,148.41 88.407,151.249 87.908,151.557 C87.408,151.866 87,153.19 87,154.5 C87,155.81 86.55,157.16 86,157.5 C85.45,157.84 85,159.415 85,161 C85,162.585 84.55,164.16 84,164.5 C83.45,164.84 83,166.13 83,167.368 C83,168.605 82.339,170.491 81.532,171.559 C80.724,172.626 80.049,174.486 80.032,175.691 C80.014,176.896 79.55,178.16 79,178.5 C78.45,178.84 77.986,180.329 77.968,181.809 C77.951,183.289 77.276,185.374 76.468,186.441 C75.661,187.509 75,189.202 75,190.205 C75,191.207 74.595,192.809 74.1,193.764 C73.604,194.719 72.416,198.2 71.46,201.5 C70.503,204.8 69.35,208.4 68.899,209.5 C68.447,210.6 67.333,213.863 66.423,216.75 C65.514,219.637 64.372,222 63.885,222 C63.398,222 63,223.098 63,224.441 C63,225.784 62.55,227.16 62,227.5 C61.45,227.84 61,228.913 61,229.884 C61,232.072 50.706,252.237 47.158,257 C41.951,263.989 37.16,265.83 34.642,261.808 C33.804,260.469 34.117,259.621 36.141,257.745 C39.699,254.448 45.861,244.524 48.403,238 C48.724,237.175 49.37,235.825 49.838,235 C51.938,231.298 53,228.95 53,228.009 C53,227.449 54.023,224.855 55.272,222.245 C56.522,219.635 58.143,215.475 58.875,213 C59.606,210.525 60.834,207.306 61.602,205.846 C62.371,204.386 63,202.467 63,201.582 C63,200.697 63.405,199.191 63.9,198.236 C64.396,197.281 65.613,193.8 66.606,190.5 C67.599,187.2 68.768,184.072 69.205,183.55 C69.642,183.027 70,181.671 70,180.536 C70,179.401 70.945,176.003 72.1,172.986 C73.255,169.969 74.414,166.375 74.675,165 C74.937,163.625 75.513,161.6 75.956,160.5 C78.395,154.44 80.015,150.068 81.143,146.5 C81.839,144.3 82.766,142.073 83.204,141.55 C83.642,141.028 84,139.426 84,137.991 C84,136.556 84.661,134.509 85.468,133.441 C86.276,132.374 86.951,130.289 86.968,128.809 C86.986,127.329 87.45,125.84 88,125.5 C88.55,125.16 89,123.911 89,122.724 C89,121.538 89.62,118.752 90.378,116.533 C93.129,108.479 94,102.776 94,92.814 C94,84.767 94.344,82.278 95.655,80.829 Z M150.928,41.985 C153.972,39.711 154.918,39.622 157.25,41.392 C162.483,45.364 157.992,49.07 132.003,62.224 C110.812,72.95 95.039,77.969 82.45,77.992 C77.913,78.001 76,76.646 76,73.422 C76,70.213 77.729,69.342 85.5,68.638 C101.809,67.158 118.318,60.963 142.428,47.273 C145.689,45.422 149.514,43.042 150.928,41.985 Z M133.359,157.505 C128.617,160.926 127.584,161.505 124.5,162.469 C123.305,162.842 123,164.865 123,172.41 C123,178.081 123.431,182.148 124.074,182.546 C125.442,183.391 129.411,179.689 131.488,175.629 C132.369,173.908 133.964,171.15 135.034,169.5 C136.103,167.85 137.281,165.825 137.652,165 C138.022,164.175 139.152,162.306 140.163,160.846 C142.601,157.323 142.575,154 140.109,154 C139.069,154 136.032,155.577 133.359,157.505 Z M114.571,21.571 C116.43,19.713 117.645,19.632 121.821,21.088 C126.261,22.635 129.919,30.696 127,32.5 C126.45,32.84 126,34.171 126,35.457 C126,37.056 124.222,39.331 120.38,42.648 C111.589,50.237 108.519,48.888 114.467,40.05 C118.219,34.473 118.773,31.984 116.75,29.783 C115.428,28.344 113,24.331 113,23.585 C113,23.342 113.707,22.436 114.571,21.571 Z"/>
</svg>

