<svg xmlns="http://www.w3.org/2000/svg" width="300" height="300" viewBox="0 0 300 300" version="1.1">
  <defs/>
  <path d="M144.304,11.954 C147.512,8.381 148.034,8.149 150.989,8.997 C154.52,10.01 157,11.736 157,13.181 C157,15.572 150.027,22.372 144.28,25.586 L137.917,29.144 L138.59,35.322 C138.96,38.72 139.603,42.175 140.019,43 C140.434,43.825 140.786,48.191 140.799,52.703 C140.813,57.215 141.115,61.378 141.471,61.953 C142.713,63.963 145.642,62.975 148,59.75 C149.306,57.962 151.256,55.866 152.333,55.091 C153.41,54.316 155.013,52.786 155.896,51.69 C156.778,50.594 158.67,48.337 160.101,46.674 L162.701,43.651 L165.791,45.851 C169.729,48.655 170.54,51.246 168.47,54.405 C167.481,55.916 167.097,57.731 167.5,58.999 C168.448,61.988 166.394,64.029 163.098,63.37 C160.82,62.914 159.583,63.621 155.585,67.662 C147.045,76.294 144.281,81.451 143.475,90.25 C143.084,94.513 143.086,98 143.478,98 C143.87,98 145.402,97.138 146.881,96.084 C148.361,95.031 152.072,93.025 155.128,91.627 C160.75,89.056 162.561,87.513 164.482,83.66 C165.065,82.49 166.825,81.082 168.393,80.531 C170.971,79.624 171.517,79.857 174.121,82.976 C175.705,84.873 177,87.36 177,88.504 C177,91.401 169.403,98.367 164,100.423 C161.525,101.365 157.839,103.455 155.809,105.068 C151.445,108.534 147.065,108.963 146.29,106 C146.002,104.9 145.239,104 144.593,104 C143.791,104 143.035,109.294 142.201,120.75 C140.64,142.199 140.649,147.004 142.25,146.986 C142.938,146.978 147.467,143.603 152.315,139.486 C157.163,135.369 161.703,132 162.404,132 C163.105,132 165.082,130.458 166.797,128.574 C168.511,126.689 170.507,124.777 171.231,124.324 C171.955,123.871 173.33,122.27 174.287,120.766 C176.756,116.883 180.818,116.057 183.169,118.96 C186.49,123.062 184.847,127.402 178.114,132.31 C176.461,133.514 170.697,137.875 165.305,142 C159.912,146.125 154.375,150.28 153,151.234 C151.625,152.188 149.097,153.988 147.382,155.234 C142.298,158.928 130.68,166.606 128.183,167.921 C126.08,169.029 125.884,169.759 126.055,175.821 C126.159,179.494 125.979,193.347 125.655,206.604 C125.169,226.455 125.314,231.042 126.474,232.604 C127.498,233.982 128.268,234.227 129.292,233.5 C140.247,225.727 147.724,219.957 150.996,216.75 C154.419,213.395 156,213.254 156,216.303 C156,218.346 151.791,225.158 148.254,228.837 C147.548,229.572 145.768,231.749 144.299,233.675 C139.82,239.547 126.261,247.533 122.41,246.567 C117.738,245.394 116.568,240.992 116.414,224 C116.288,210.028 117.326,182.528 118.169,177.538 C118.632,174.793 115.349,174.341 112.661,176.78 C111.472,177.858 107.776,180.228 104.447,182.046 L98.394,185.351 L95.254,183.029 C92.289,180.838 92.183,180.538 93.356,177.664 C94.397,175.113 97.097,173.342 110.046,166.719 C118.542,162.374 125.721,158.47 125.997,158.044 C126.274,157.618 127.513,156.954 128.75,156.567 C130.553,156.005 130.997,155.134 130.985,152.183 C130.976,150.157 130.558,147.849 130.054,147.054 C129.484,146.153 129.545,144.849 130.217,143.595 C132.48,139.365 133.737,118.34 133.462,89.304 C133.309,73.246 132.819,59.521 132.371,58.804 C131.924,58.087 131.434,55.925 131.283,54 C129.835,35.514 129.755,35 128.334,35 C127.538,35 125.659,36.345 124.158,37.988 C120.667,41.81 112.615,46.927 108.931,47.664 C106.427,48.165 105.877,47.81 104.423,44.76 C102.872,41.508 102.877,41.118 104.498,38.643 C105.451,37.189 106.765,36 107.419,36 C108.073,36 110.134,34.425 112,32.5 C113.866,30.575 115.818,29 116.338,29 C116.858,29 121.157,26.594 125.892,23.654 C130.626,20.713 135.923,17.75 137.662,17.069 C139.401,16.387 142.39,14.086 144.304,11.954 Z M64.25,59.031 C67.684,57.651 69.586,57.832 71.79,59.75 C73.616,61.34 73.739,62.261 73.13,69.814 C72.761,74.386 72.632,79.942 72.844,82.16 C73.216,86.066 73.327,86.176 76.364,85.667 C78.089,85.379 80.635,84.853 82.022,84.498 C86.963,83.236 94.246,91.786 95.531,100.359 C95.916,102.925 96.561,105.228 96.964,105.478 C98.173,106.225 98.156,134.918 96.943,140.924 C96.324,143.991 95.183,147.497 94.408,148.715 C93.634,149.933 93,151.425 93,152.032 C93,154.131 87.844,159.881 85.686,160.19 C83.937,160.44 83.391,161.394 82.859,165.128 C82.497,167.674 81.62,170.824 80.911,172.128 C79.185,175.305 78.856,181.386 80.074,187.587 C80.76,191.078 80.742,193.548 80.016,195.459 C79.311,197.312 79.29,198.644 79.952,199.442 C81.015,200.723 80.782,211.551 79.667,212.666 C79.3,213.033 78.993,217.196 78.985,221.917 C78.968,232.147 77.685,235.378 73.477,235.794 C69.403,236.196 67.07,234.206 66.34,229.707 C65.834,226.588 66.146,225.474 68.113,223.381 L70.5,220.84 L70.5,192.67 C70.5,165.406 70.005,155.236 67.96,140.5 C67.425,136.65 66.797,129.9 66.562,125.5 C66.328,121.1 66.106,117.388 66.068,117.25 C66.031,117.112 65.362,117 64.582,117 C63.801,117 62.175,118.6 60.966,120.554 C59.382,123.118 58.174,124.024 56.635,123.804 C54.731,123.533 54.533,122.959 54.809,118.5 C55.22,111.832 56.587,107.667 60.68,100.615 L64.095,94.73 L62.662,85.115 C61.473,77.142 61.164,67.876 61.865,61.218 C61.939,60.513 63.013,59.529 64.25,59.031 Z M183.104,140.535 C186.421,136.757 187.421,136.449 191.435,137.975 C193.758,138.858 194,139.468 194,144.429 C194,149.201 193.665,150.138 191.4,151.703 C187.498,154.399 170.789,171.705 168.5,175.42 C167.4,177.206 165.682,179.48 164.681,180.474 C161.703,183.432 159.784,186.841 160.471,187.953 C160.825,188.525 163.676,190.158 166.807,191.582 C169.938,193.005 173.4,195.002 174.5,196.018 C175.6,197.034 178.525,198.809 181,199.961 C185.051,201.848 193.019,206.965 197.023,210.25 C197.861,210.938 201.143,213.482 204.317,215.905 C210.214,220.407 225.97,236.5 228.883,240.996 C230.629,243.692 241.849,255 242.778,255 C243.088,255 244.165,254.256 245.17,253.346 C246.891,251.789 247.204,251.903 250.499,255.296 C255.736,260.689 255.428,264.696 249.397,269.638 L244.794,273.41 L240.647,268.631 C238.366,266.003 234.01,261.299 230.967,258.176 C227.923,255.054 222.412,249.032 218.719,244.794 C215.026,240.556 209.416,234.511 206.252,231.362 C200.542,225.677 180.516,210 178.963,210 C178.518,210 176.809,208.869 175.166,207.486 C173.523,206.104 168.753,203.59 164.566,201.899 C156.72,198.731 153.052,198.514 141.736,200.546 C136.893,201.416 135,199.867 135,195.033 C135,190.633 137.007,188.52 142.04,187.621 C144.539,187.174 147.063,185.447 150.627,181.744 C156.761,175.37 166.256,163.533 171.468,155.761 C173.585,152.605 176.371,149.332 177.659,148.488 C178.946,147.644 180,146.305 180,145.512 C180,144.719 181.397,142.479 183.104,140.535 Z M31.512,87.981 C32.494,86.392 39.186,86.859 41.171,88.655 C42.177,89.565 43,91.371 43,92.669 C43,93.966 43.384,95.809 43.853,96.764 C46.979,103.128 47.945,106.085 48.342,110.5 C48.589,113.25 49.554,119.325 50.486,124 C52.531,134.252 52.953,159.351 51.137,162.744 C49.392,166.005 46.449,167.311 43.909,165.951 C41.879,164.865 41.839,164.393 42.535,149.955 C43.125,137.713 42.951,133.7 41.551,127.289 C38.494,113.286 36.851,107.551 34.959,104.275 C32.915,100.736 30.547,89.542 31.512,87.981 Z M76.384,100.536 C74.25,103.794 74.098,111.056 75.833,127 C77.836,145.413 78.152,148.769 79.609,149.372 C79.982,149.526 80.43,149.5 81,149.5 C83.106,149.5 83.702,148.791 84.783,145 C85.489,142.525 86.502,139.118 87.033,137.429 C87.565,135.74 87.987,129.44 87.97,123.429 C87.947,114.786 87.46,111.036 85.644,105.5 C83.647,99.413 83.006,98.46 80.736,98.19 C78.814,97.961 77.666,98.58 76.384,100.536 Z"/>
</svg>

