<svg xmlns="http://www.w3.org/2000/svg" width="300" height="300" viewBox="0 0 300 300" version="1.1">
  <defs/>
  <path d="M153.5,93.36 C155.723,89.967 160.702,90.086 162.025,93.565 C163.542,97.555 163.188,102.039 160.887,108.014 C159.725,111.031 158.534,114.842 158.24,116.482 C157.945,118.123 156.863,120.964 155.833,122.797 C154.804,124.63 154.18,126.482 154.446,126.913 C154.713,127.344 158.797,127.769 163.522,127.857 C173.531,128.044 179.559,130.393 180.592,134.51 C181.461,137.973 180.601,139.638 176.975,141.513 C174.059,143.021 173.667,143.009 171.174,141.334 C166.153,137.963 162.849,137.324 155.869,138.376 C150.031,139.256 149.185,139.671 148.264,142.111 C147.694,143.621 145.419,146.127 143.209,147.678 C139.377,150.369 139.174,150.779 138.845,156.5 C138.353,165.051 138.969,170 140.525,170 C141.248,170 144.689,167.584 148.17,164.63 C151.652,161.677 155.966,158.513 157.758,157.6 C159.55,156.687 163.503,153.453 166.543,150.414 C170.471,146.486 172.592,145.053 173.876,145.461 C176.487,146.289 180.325,150.665 179.546,151.925 C178.136,154.207 162.128,166.922 158.901,168.324 C157.031,169.137 151.787,173.258 147.25,177.481 C140.822,183.465 139,185.762 139,187.881 C139,189.376 138.543,191.057 137.983,191.617 C137.424,192.176 136.505,195.753 135.94,199.567 C135.375,203.38 134.425,209.65 133.828,213.5 C133.231,217.35 132.688,224.55 132.621,229.5 L132.5,238.5 L148.5,238.39 C208.607,237.975 255.25,237.2 259.589,236.545 C264.364,235.824 264.811,235.945 266.817,238.495 C269.275,241.62 268.707,243.51 264.256,247.016 C261.555,249.144 261.123,249.17 242.5,248.343 C202.852,246.583 138.932,247.868 131.756,250.57 C129.015,251.602 125.638,251.811 119.151,251.35 C112.984,250.912 110.076,251.068 109.586,251.861 C109.199,252.487 106.974,253 104.641,253 C102.308,253 99.956,253.444 99.414,253.986 C98.871,254.529 94.844,255.881 90.464,256.991 C86.084,258.102 80.25,259.87 77.5,260.921 C69.37,264.027 65.294,264.258 63.511,261.713 C60.343,257.189 62.929,251 67.987,251 C68.836,251 71.229,250.089 73.306,248.976 C78.391,246.25 86.673,244.5 104,242.488 C111.975,241.563 118.838,240.597 119.25,240.344 C119.662,240.09 120,238.874 120,237.641 C120,236.408 120.5,234.9 121.112,234.288 C121.723,233.677 122.854,228.524 123.623,222.838 C126.444,202.008 127.409,195.293 125.755,194.569 C124.924,194.206 123.434,195.351 121.188,196.979 C118.894,198.641 116.73,200 116.378,200 C116.027,200 113.455,201.641 110.664,203.646 C103.809,208.571 95.225,212.273 92.341,211.549 C89.748,210.899 88.444,207.35 89.399,203.545 C89.834,201.813 91.048,200.805 93.523,200.121 C95.452,199.589 99.186,197.827 101.82,196.206 C104.454,194.585 107.644,192.93 108.908,192.529 C110.172,192.128 112.664,190.832 114.446,189.65 C116.228,188.467 119.514,186.375 121.748,185 C128.489,180.851 128.479,180.895 128.697,156.5 C128.886,135.488 128.509,130.607 125.439,114.36 C124.003,106.762 124.436,100.713 126.541,98.966 C127.461,98.202 128.776,98.297 131.178,99.301 C134.491,100.685 134.545,100.811 135.778,110.101 C136.465,115.27 137.02,123.186 137.013,127.691 C137.005,132.745 137.435,136.151 138.137,136.585 C139.427,137.382 142.954,133.294 142.958,131 C142.959,130.175 144.507,124.55 146.398,118.5 C148.29,112.45 150.313,104.85 150.895,101.61 C151.477,98.371 152.649,94.659 153.5,93.36 Z M85.739,97.305 L90.253,92.594 L92.126,94.908 C94.344,97.647 94.495,99.832 92.65,102.527 C91.274,104.538 90.051,109.716 89.468,116 C88.934,121.758 85.829,133.457 81.505,146 C80.084,150.125 77.778,157.1 76.382,161.5 C74.986,165.9 73.429,170.281 72.922,171.236 C72.415,172.191 72,173.66 72,174.5 C72,175.34 71.605,176.809 71.122,177.764 C69.078,181.806 67,187.162 67,188.386 C67,189.778 59.344,208.397 56.674,213.5 C55.81,215.15 53.474,219.875 51.482,224 C45.658,236.062 40.869,244.243 35.123,251.948 C28.671,260.601 26.272,262.025 22.626,259.368 C21.216,258.34 20.049,256.904 20.031,256.176 C20.014,255.447 22.392,252.297 25.315,249.176 C31.343,242.738 35.419,236.746 39.505,228.315 C41.055,225.117 42.713,221.825 43.191,221 C45.257,217.428 51.114,204.379 53.382,198.293 C54.244,195.978 55.833,192.153 56.912,189.793 C57.991,187.432 59.55,183.25 60.377,180.5 C61.203,177.75 63.304,171.675 65.044,167 C66.784,162.325 68.856,155.575 69.647,152 C70.438,148.425 71.459,144.81 71.915,143.967 C72.372,143.124 73.063,140.992 73.45,139.229 C73.837,137.466 74.569,135.766 75.077,135.452 C75.585,135.139 76,133.585 76,132 C76,130.415 76.45,128.84 77,128.5 C77.55,128.16 78.027,125.546 78.06,122.691 C78.113,118.081 78.61,114.65 80.657,104.758 C80.969,103.25 83.256,99.896 85.739,97.305 Z M160.252,41.706 C165.094,40.773 167.63,41.086 170.784,43.009 C175.362,45.801 175.754,47.603 172.52,50.979 C169.573,54.055 159.17,60 156.734,60 C155.366,60 150.64,61.909 139,67.162 C136.525,68.279 133.15,69.79 131.5,70.521 C129.85,71.251 126.025,72.945 123,74.285 C119.975,75.625 116.375,77.04 115,77.429 C113.625,77.819 111.15,78.757 109.5,79.515 C107.85,80.273 103.125,82.066 99,83.498 C94.875,84.931 87.45,87.645 82.5,89.529 C77.55,91.413 71.7,93.213 69.5,93.529 C67.3,93.844 63.578,94.591 61.229,95.187 C57.556,96.12 56.68,96.021 54.979,94.481 C52.693,92.412 52.423,89.171 54.321,86.576 C55.278,85.267 57.689,84.557 63.071,83.999 C70.841,83.192 71.974,82.9 78.5,80.016 C80.7,79.044 84.075,77.908 86,77.493 C87.925,77.077 91.834,75.671 94.686,74.369 C97.538,73.066 100.25,72 100.713,72 C102.124,72 132.104,60.118 138.5,57.024 C141.8,55.427 146.294,53.398 148.486,52.513 C153.346,50.552 156.635,47.592 157.417,44.475 C157.761,43.106 158.934,41.959 160.252,41.706 Z M106.676,104.25 C109.187,100.126 118,102.607 118,107.438 C118,110.227 114.851,122.525 113.631,124.5 C112.952,125.6 111.776,128.525 111.018,131 C110.26,133.475 109.232,136.043 108.734,136.706 C107.474,138.384 108.707,140 111.247,140 C116.916,140 122.838,147.665 120.969,152.582 C120.039,155.029 116.443,155.907 114.45,154.174 C113.928,153.72 111.528,152.728 109.118,151.97 C104.78,150.607 104.712,150.623 102.3,153.546 C100.96,155.171 98.746,158.886 97.379,161.802 C96.012,164.718 94.13,167.338 93.197,167.625 C92.264,167.911 90.719,168.563 89.764,169.073 C87.19,170.447 84.411,170.2 82.974,168.468 C81.254,166.397 83.311,159.428 86.143,157.73 C89.288,155.844 96.017,144.46 101.057,132.5 C103.677,126.28 105.036,120.057 105.163,113.687 C105.244,109.614 105.9,105.525 106.676,104.25 Z M112.552,24.25 C112.792,23.47 114.799,23 117.885,23 C122.418,23 123.075,23.314 125.738,26.75 C127.336,28.813 129.249,32.013 129.989,33.861 C131.179,36.833 131.119,37.645 129.475,40.861 C125.549,48.544 114.363,57.121 110.302,55.563 C108.034,54.692 108.86,52.662 114.076,46.294 C119.558,39.6 120.179,36.384 116.357,34.486 C111.117,31.885 110.616,30.536 112.552,24.25 Z M222.813,242.683 C223.534,242.972 224.397,242.936 224.729,242.604 C225.061,242.272 224.471,242.036 223.417,242.079 C222.252,242.127 222.015,242.364 222.813,242.683 Z"/>
</svg>

