<svg xmlns="http://www.w3.org/2000/svg" width="300" height="300" viewBox="0 0 300 300" version="1.1">
  <defs/>
  <path d="M99.291,31.25 C100.62,29.509 104.496,29.688 106.052,31.563 C107.123,32.853 107.056,33.944 105.67,37.813 C104.746,40.391 103.992,44.772 103.995,47.55 C103.998,50.327 103.499,53.101 102.887,53.713 C101.21,55.39 102.84,57.184 105.334,56.406 C106.525,56.034 107.725,55.415 108,55.029 C108.275,54.643 111.495,52.664 115.155,50.631 C118.815,48.598 122.358,46.274 123.027,45.467 C123.697,44.66 124.8,44 125.479,44 C126.157,44 128.775,42.425 131.296,40.5 C136.748,36.337 140.303,36.006 142.56,39.451 C145.512,43.957 142.879,47.372 131.5,53.794 C117.336,61.787 109.416,65.75 106.187,66.459 C100.403,67.729 94.947,76.896 92.868,88.839 C92.185,92.762 90.638,97.102 89.104,99.397 C84.791,105.851 80.531,114.271 79.175,119.02 C78.033,123.02 76.456,126.936 73.853,132.236 C73.384,133.191 73,134.618 73,135.405 C73,137.084 69.841,143.348 68.75,143.833 C68.338,144.017 68,145.052 68,146.133 C68,147.214 67.287,149.479 66.415,151.165 C64.585,154.704 64.984,155.232 70.724,156.864 C73.523,157.66 75.839,159.234 77.592,161.532 C80.782,165.714 82.776,165.935 84.07,162.25 C84.612,160.704 87.905,157.312 91.593,154.5 C95.199,151.75 99.515,148.407 101.183,147.071 C102.85,145.735 105.629,143.935 107.358,143.071 C109.895,141.802 110.559,140.798 110.804,137.85 C111.075,134.603 108.826,123.901 105.793,114 C105.203,112.075 104.671,108.25 104.61,105.5 L104.5,100.5 L108.19,100.193 C112.493,99.835 114.339,101.946 115.459,108.5 C115.834,110.7 116.781,114.525 117.563,117 C118.345,119.475 119.245,124.088 119.564,127.25 C120.008,131.655 120.524,133 121.77,133 C123.244,133 127.769,130.242 142.509,120.358 C145.263,118.511 148.021,117 148.636,117 C149.252,117 150.315,116.325 151,115.5 C155.339,110.271 166.397,119.653 163.117,125.781 C162.605,126.738 162.42,128.746 162.706,130.243 C163.055,132.066 162.199,135.094 160.113,139.419 C158.401,142.969 157,146.51 157,147.287 C157,148.746 149.494,163.825 145.693,170 C143.025,174.336 138.929,177.889 133.59,180.5 C128.666,182.908 126.378,187.2 125.541,195.596 C125.217,198.843 124.724,203.075 124.445,205 C123.761,209.721 122.938,229.298 122.68,247 C122.563,254.975 122.072,262.125 121.589,262.889 C121.105,263.654 120.576,270.598 120.412,278.322 C120.248,286.046 119.824,294.083 119.469,296.183 L118.824,300 L113.412,300 C108.039,300 107.022,299.378 109.062,297.338 C109.667,296.733 110.534,287.919 111.073,276.888 C111.595,266.224 112.438,253.675 112.948,249 C113.457,244.325 113.914,234.425 113.963,227 C114.012,219.575 114.477,206.597 114.996,198.161 C115.977,182.225 114.981,160.711 113.025,155.565 L111.98,152.816 L108.848,154.8 C103.947,157.902 91.953,169.212 90.41,172.184 C89.424,174.084 89.201,176.633 89.649,180.913 C90.354,187.665 89.276,190 85.45,190 C82.405,190 79.763,186.476 78.025,180.093 C76.926,176.057 75.591,174.013 72.055,170.95 C69.55,168.78 66.517,166.065 65.316,164.916 C62.506,162.229 59.839,162.771 58.918,166.216 C57.342,172.107 39.751,207.31 36.375,211.327 C35.069,212.881 34,214.758 34,215.498 C34,216.237 31.942,218.901 29.426,221.416 C25.592,225.251 24.54,225.824 22.926,224.96 C20.027,223.409 20.588,220.064 24.75,214.092 C26.812,211.132 29.263,207.538 30.196,206.105 C31.982,203.362 39.744,187.986 44.889,177 C46.564,173.425 48.585,169.375 49.382,168 C50.178,166.625 51.603,163.7 52.547,161.5 C53.491,159.3 55.104,155.728 56.132,153.562 C57.159,151.396 58,149.194 58,148.667 C58,148.141 59.525,144.513 61.388,140.605 C63.252,136.697 66.451,128.775 68.497,123 C70.542,117.225 74.41,107.989 77.091,102.476 C79.772,96.963 82.413,90.213 82.96,87.476 C83.506,84.739 84.24,81.493 84.59,80.262 C85.602,76.707 82.722,76.503 76.809,79.711 C73.889,81.294 69.475,83.183 67,83.908 C64.525,84.633 60.839,86.725 58.81,88.556 C55.202,91.812 49.188,93.852 47.065,92.54 C46.479,92.178 46,89.962 46,87.615 C46,84.482 46.598,82.788 48.25,81.239 C50.852,78.799 64.416,71.898 71,69.665 C80.28,66.517 89.363,62.359 90.03,60.954 C91.962,56.881 94,48.766 94,45.147 C94,41.536 96.548,34.844 99.291,31.25 Z M145.5,131.066 C143.85,132.195 141.375,133.572 140,134.126 C138.625,134.68 134.286,137.24 130.359,139.816 L123.217,144.5 L122.737,150.5 C122.313,155.797 122.535,156.799 124.628,159.055 C125.933,160.46 127,162.547 127,163.694 C127,164.84 127.852,166.83 128.893,168.116 C130.664,170.303 130.962,170.358 133.548,168.976 C136.152,167.584 142.113,156.507 149.882,138.623 C153.786,129.634 152.027,126.6 145.5,131.066 Z"/>
</svg>

