<svg xmlns="http://www.w3.org/2000/svg" width="300" height="300" viewBox="0 0 300 300" version="1.1">
  <defs/>
  <path d="M142.2,17.2 C144.007,15.393 149.465,15.751 151.318,17.799 C152.381,18.974 153.33,23.042 154.053,29.524 C154.662,34.983 155.412,39.858 155.72,40.356 C156.028,40.855 159.158,40.994 162.675,40.666 C168.182,40.152 169.341,40.341 171.034,42.034 C173.798,44.798 173.483,48.494 170,54.154 C168.35,56.836 167,59.678 167,60.471 C167,61.263 165.2,64.481 163,67.621 C158.81,73.603 158.205,75.805 160.201,77.801 C161.029,78.629 161.469,84.518 161.615,96.722 C161.746,107.607 162.218,114.573 162.84,114.78 C163.734,115.078 169.755,111.911 181,105.227 C186.001,102.254 198.523,99.871 203.372,100.968 C208.305,102.085 209.32,103.128 213.122,111 C215.504,115.932 213.706,140.731 210.463,147.67 C209.649,149.414 208.699,152.339 208.354,154.17 C208.008,156.002 207.205,158.175 206.57,159 C205.934,159.825 204.807,162.3 204.065,164.5 C203.323,166.7 201.205,171.742 199.358,175.704 C197.511,179.666 196,183.175 196,183.502 C196,184.653 188.686,195.557 184.734,200.297 C180.877,204.923 174.709,209 171.566,209 C170.733,209 169.402,207.762 168.607,206.25 C166.16,201.588 160.359,195.925 158.688,196.566 C157.407,197.058 157.145,200.013 157.045,215.091 C156.98,224.958 156.525,235.386 156.034,238.265 C155.543,241.144 155.189,244.4 155.249,245.5 C155.308,246.6 155.276,259.313 155.178,273.75 L155,300 L146,300 L145.874,282.75 C145.742,264.69 145.972,251.584 146.554,244 C146.743,241.525 147.147,227.575 147.45,213 C148.311,171.665 149.712,137.275 150.592,135.851 C150.886,135.375 150.453,134.728 149.631,134.412 C147.927,133.758 138.351,140.466 135.114,144.582 C133.88,146.151 132.982,148.774 132.956,150.885 C132.932,152.873 132.474,156.525 131.937,159 C130.923,163.677 127.24,183.265 126.391,188.5 C124.242,201.742 121.039,209.327 116.865,211.056 C111.651,213.216 110.043,209.684 112.97,202.5 C117.153,192.235 118.483,187.266 120.998,172.5 C122.59,163.15 124.199,154.037 124.572,152.25 C125.151,149.473 124.969,149 123.324,149 C121.676,149 109.463,156.132 108,157.948 C106.109,160.296 101.285,163 98.988,163 C97.479,163 95.685,163.675 95,164.5 C93.064,166.833 90.659,166.268 88.829,163.05 C87.214,160.212 87.357,156 89.068,156 C90.24,156 96.778,149.189 99.629,145 C100.938,143.075 103.553,139.475 105.439,137 C107.324,134.525 108.897,132.154 108.934,131.73 C108.97,131.307 110.035,129.282 111.3,127.23 C112.566,125.179 114.23,121.475 114.999,119 C115.767,116.525 116.938,113.6 117.6,112.5 C119.694,109.02 120.207,104.215 118.877,100.536 C117.083,95.574 118.575,92.005 123.523,89.428 L127.5,87.356 L127.443,80.428 C127.412,76.618 126.958,71.025 126.435,68 C125.575,63.033 125.218,62.469 122.752,62.185 C116.841,61.502 115.014,54.007 120.076,51.203 C123.022,49.572 123.128,49.288 122.586,44.5 C122.275,41.75 121.903,37.25 121.76,34.5 C121.531,30.097 121.749,29.464 123.581,29.203 C127.827,28.596 132.94,35.979 132.985,42.781 C133.007,46.128 135.624,46.581 140.696,44.117 L145.179,41.939 L144.464,36.719 C144.07,33.849 143.135,29.475 142.385,27 C140.698,21.431 140.647,18.753 142.2,17.2 Z M188.5,114.936 C186.3,115.314 183.06,116.382 181.3,117.311 C179.539,118.24 177.441,119 176.636,119 C174.573,119 163.494,124.792 161.685,126.816 C160.012,128.689 159.165,139.036 158.334,167.75 C157.841,184.784 157.861,185 159.942,185 C161.218,185 162.393,185.903 162.92,187.289 C163.79,189.577 171.343,197.02 172.753,196.978 C174.407,196.929 177.943,193.175 181.863,187.305 C184.138,183.898 186,180.837 186,180.504 C186,180.171 188.25,175.312 191,169.706 C193.75,164.1 196,158.723 196,157.757 C196,156.791 196.45,156 197,156 C197.55,156 198,154.965 198,153.7 C198,152.435 198.359,150.973 198.798,150.45 C199.237,149.928 200.446,147.03 201.484,144.012 C203.865,137.092 204.292,118.275 202.128,115.659 C200.677,113.906 195.965,113.656 188.5,114.936 Z M61.215,130.846 C63.47,129.415 65.587,129.932 68,132.5 L70.349,135 L68.174,137.314 C66.978,138.587 66,139.972 66,140.391 C66,140.81 63.75,144.502 61,148.596 C58.25,152.689 56,156.515 56,157.097 C56,157.68 54.488,161.384 52.64,165.328 C50.792,169.273 48.714,174.075 48.023,176 C47.331,177.925 46.181,180.85 45.466,182.5 C44.751,184.15 43.84,187.257 43.443,189.404 L42.72,193.307 L46.196,192.743 C49.931,192.137 50.754,192.472 55.748,196.636 C57.664,198.233 59,200.279 59,201.615 C59,202.862 59.457,204.164 60.015,204.509 C64.189,207.089 65.686,226.314 62,230 C59.567,232.433 58.219,232.508 55.829,230.345 C53.859,228.562 53.369,224.508 55.002,223.499 C57.351,222.047 53.915,210.85 49.709,206.25 C47.009,203.297 45.395,203.43 40.067,207.04 C37.628,208.693 35.173,209.891 34.61,209.703 C31.676,208.725 28.816,199.85 31,198.5 C31.55,198.16 32,197.024 32,195.975 C32,194.926 32.623,192.59 33.384,190.784 C34.146,188.978 35.287,185.25 35.92,182.5 C37.129,177.254 38.291,174.613 48.675,153.5 C56.885,136.806 59.627,131.853 61.215,130.846 Z M64.114,51.382 C66.506,48.914 68.201,47.998 69.988,48.207 L72.5,48.5 L72.413,61 C72.365,67.875 71.834,75.3 71.233,77.5 C70.632,79.7 69.624,83.525 68.993,86 C68.361,88.475 66.98,92.23 65.922,94.345 C64.865,96.459 63.986,99.384 63.968,100.845 C63.951,102.305 63.276,104.374 62.468,105.441 C61.661,106.509 61,108.845 61,110.632 C61,112.42 60.569,114.148 60.043,114.474 C59.516,114.799 58.328,117.763 57.403,121.06 C56.478,124.357 55.334,127.294 54.861,127.586 C54.387,127.879 54,128.913 54,129.885 C54,130.856 52.92,132.666 51.6,133.906 C50.28,135.146 48.948,137.587 48.641,139.33 C46.582,150.993 46.191,151.636 36.75,158.899 C32.043,162.52 30.195,153.233 34.5,147.589 C35.875,145.786 37,143.939 37,143.484 C37,143.03 37.603,141.947 38.34,141.079 C39.076,140.21 40.725,136.8 42.003,133.5 C43.281,130.2 44.792,126.898 45.359,126.162 C46.457,124.738 49.502,116.803 51.176,111 C51.731,109.075 52.594,107.073 53.093,106.55 C53.592,106.028 54,104.19 54,102.467 C54,100.743 54.337,98.996 54.749,98.584 C55.161,98.172 56.028,95.734 56.674,93.167 C57.32,90.6 58.362,86.7 58.989,84.5 C62.534,72.056 63.144,65.638 61.489,58.176 C60.843,55.263 61.168,54.422 64.114,51.382 Z M143.357,93.387 C139.007,95.804 138,97.247 138,101.063 C138,103.164 137.621,105.116 137.158,105.402 C135.876,106.195 135.691,128.691 136.96,129.475 C138.323,130.318 148.605,124.472 149.399,122.403 C151.062,118.07 148.663,91.919 146.619,92.098 C146.004,92.152 144.535,92.732 143.357,93.387 Z M142,54.99 C141.175,55.466 139.776,56.075 138.891,56.342 C137.602,56.732 137.178,58.791 136.764,66.665 C136.246,76.515 136.969,81 139.075,81 C139.694,81 141.73,79.47 143.6,77.6 C146.839,74.361 146.994,73.875 146.882,67.35 C146.684,55.905 145.521,52.959 142,54.99 Z M122.973,124.25 C121.912,126.588 121.034,129.011 121.022,129.636 C120.994,131.104 119.088,134.707 116.232,138.694 C114.928,140.514 114.378,142.116 114.938,142.462 C116.281,143.292 122.152,140.684 124.11,138.388 C126.048,136.115 128.214,125.396 127.37,122.25 C126.47,118.895 125.126,119.506 122.973,124.25 Z"/>
</svg>

