<svg xmlns="http://www.w3.org/2000/svg" width="300" height="300" viewBox="0 0 300 300" version="1.1">
  <defs/>
  <path d="M173.43,53.113 C174.294,51.716 177.53,51.678 180.066,53.035 C181.516,53.811 182,55.142 182,58.354 C182,60.71 182.711,65.031 183.58,67.957 C184.725,71.814 185.187,77.929 185.258,90.189 C185.315,100.105 185.763,107.353 186.34,107.71 C186.882,108.045 188.517,107.01 189.973,105.41 C191.429,103.809 194.843,100.945 197.56,99.045 C203.292,95.037 211.569,86.611 213.311,83.012 C213.973,81.644 215.321,80.369 216.306,80.18 C219.499,79.565 221,81.908 221,87.51 C221,92.721 220.921,92.857 213.343,100.638 C202.813,111.45 201.898,113.354 203.297,121.527 C204.16,126.561 204.109,129.5 203.069,134.75 C202.334,138.463 201.642,143.567 201.533,146.092 C201.424,148.618 200.584,151.756 199.667,153.065 C198.75,154.374 198,156.443 198,157.663 C198,158.883 196.875,163 195.5,166.811 C192.546,175.001 192.381,178.073 194.75,180.771 C195.713,181.867 203.25,188.833 211.5,196.251 C219.75,203.669 228.872,212.385 231.772,215.619 C234.671,218.854 238.609,223.242 240.522,225.371 C242.435,227.5 244,229.542 244,229.909 C244,230.276 246.309,233.034 249.131,236.038 C251.953,239.042 256.322,244.2 258.84,247.5 C262.893,252.813 280.536,273.022 284.594,277 C285.436,277.825 287.209,280.19 288.536,282.255 C291.423,286.752 290.598,290.561 286.514,291.586 C284.312,292.138 283.135,291.345 278.023,285.864 C274.759,282.364 272.063,279.05 272.032,278.5 C272.001,277.95 270.068,275.483 267.738,273.018 C257.386,262.07 250,253.5 250,252.435 C250,251.374 247.626,248.48 240.208,240.5 C238.674,238.85 236.575,236.15 235.542,234.5 C233.956,231.964 220.44,217.387 214.778,212.106 C213.831,211.223 210.895,208.475 208.254,206 C205.614,203.525 200.257,198.709 196.351,195.298 C190.104,189.842 189.036,189.253 187.472,190.397 C186.494,191.112 186.006,192.201 186.388,192.819 C187.589,194.762 180.975,209.718 175.75,216.873 C174.787,218.191 174,220.478 174,221.956 C174,224.39 168.889,235.334 161.604,248.5 C157.74,255.482 153.244,259.857 148.664,261.09 C144.064,262.329 139.558,260.911 137.829,257.68 C136.925,255.991 137.125,255.317 138.978,253.817 C140.212,252.818 142.495,252 144.052,252 C146.328,252 147.776,250.839 151.442,246.076 C153.949,242.818 156,239.666 156,239.072 C156,238.479 157.75,234.732 159.889,230.746 C162.028,226.761 164.094,222.375 164.481,221 C165.184,218.502 169.602,208.726 173.131,201.864 C174.159,199.864 175,197.682 175,197.015 C175,195.847 177.183,190.367 179.084,186.764 C180.834,183.446 179.994,181.108 175.866,177.806 C172.247,174.912 169.228,172.088 166.339,168.896 C165.877,168.387 163.186,166.177 160.359,163.986 C152.059,157.556 152.233,150.925 160.663,152.429 C163.79,152.987 166.001,154.695 172.608,161.658 C177.978,167.316 181.313,170.083 182.484,169.851 C183.727,169.604 184.758,167.566 185.949,163 C186.882,159.425 188.175,155.517 188.823,154.316 C189.47,153.114 190,150.947 190,149.5 C190,148.053 190.435,146.055 190.968,145.061 C191.5,144.066 192.168,138.021 192.454,131.626 C192.911,121.368 192.782,120 191.354,120 C188.767,120 183.003,124.006 182.964,125.832 C182.901,128.733 178.583,133.161 176.569,132.388 C175.042,131.802 174.87,130.938 175.413,126.6 C177.124,112.931 177.493,88.849 176.102,81.634 C175.557,78.81 174.633,74.025 174.049,71 C172.794,64.509 172.455,54.692 173.43,53.113 Z M125.062,153.337 C126.09,150.633 126.097,150.631 129.436,152.153 C132.374,153.491 133.654,158.15 132.162,162.074 C131.628,163.478 128.229,167.243 124.609,170.441 C118.216,176.089 118.039,176.374 118.456,180.378 C118.692,182.645 118.911,184.838 118.943,185.25 C119.04,186.518 121.689,186.085 124.815,184.291 C128.801,182.004 131,183.721 131,189.122 C131,193.089 128.356,197 125.674,197 C124.945,197 123.436,198.012 122.32,199.25 C120.756,200.984 120.041,203.894 119.202,211.937 C118.603,217.678 118.33,222.724 118.594,223.152 C118.858,223.58 121.063,222.412 123.493,220.557 C125.923,218.702 130.033,216.131 132.626,214.842 C135.219,213.554 140.497,209.446 144.355,205.714 C148.213,201.982 151.934,199.144 152.623,199.409 C153.312,199.673 154.336,201.557 154.899,203.595 C155.756,206.701 155.615,207.732 154.027,209.963 C151.52,213.482 144.206,220.001 139.96,222.5 C134.224,225.876 130.407,228.397 127.389,230.804 C120.166,236.564 116.633,239 115.506,239 C114.835,239 111.276,241.25 107.597,244 C103.919,246.75 100.637,249 100.304,249 C99.972,249 97.329,250.201 94.431,251.668 C89.368,254.231 89.06,254.27 86.581,252.645 C83.591,250.686 83.244,247.678 85.75,245.431 C86.713,244.568 91.259,241.461 95.853,238.526 C104.019,233.31 108,228.889 108,225.035 C108,223.981 108.45,222.84 109,222.5 C110.552,221.541 110.277,211 108.7,211 C107.985,211 104.69,212.972 101.377,215.383 C94.12,220.663 89.76,223 87.165,223 C83.325,223 80.282,214.632 83.25,212.236 C83.938,211.68 86.387,210.915 88.692,210.535 C90.998,210.155 93.39,209.235 94.007,208.492 C94.624,207.748 97.964,205.058 101.429,202.514 C108.389,197.404 110,194.85 110,188.922 C110,183.941 108.427,183.231 103.379,185.937 C101.262,187.072 98.071,188 96.288,188 C90.23,188 88.385,180.933 92.676,174.166 C94.039,172.017 94.295,171.957 95.907,173.416 C98.362,175.637 100.104,175.407 104.718,172.25 C114.836,165.327 123.602,157.177 125.062,153.337 Z M117.176,52.75 C118.407,50.34 121.249,50.558 123.699,53.25 C125.974,55.75 126.103,57.067 126.346,80.25 C126.431,88.363 126.795,95 127.155,95 C128.532,95 136.423,87.738 137.681,85.313 C138.407,83.915 139,81.505 139,79.957 C139,77.341 141.179,74 142.884,74 C143.292,74 144.894,75.324 146.445,76.942 C149.167,79.783 149.245,80.153 148.719,87.692 C147.132,110.462 144.758,119.167 139.949,119.846 C136.264,120.366 135.273,121.636 135.273,125.836 C135.273,130.377 132.961,134.242 128.647,136.912 C126.916,137.984 124.178,140.241 122.563,141.93 C120.948,143.618 118.871,145 117.948,145 C117.025,145 115.197,145.817 113.885,146.816 C112.573,147.814 109.786,149.667 107.69,150.934 L103.881,153.237 L101.525,151.024 C96.625,146.42 97.729,140.92 103.801,139.677 C107.572,138.905 120.293,129.965 121.487,127.247 C122.03,126.011 123.12,125 123.908,125 C124.697,125 126.169,124.252 127.178,123.339 C128.188,122.425 130.019,121.176 131.248,120.564 C132.477,119.951 133.62,118.561 133.788,117.475 C133.957,116.389 134.716,113.925 135.476,112 C136.235,110.075 137.075,106.558 137.342,104.185 C137.985,98.464 135.774,97.438 132.317,101.854 C129.208,105.827 118.678,113.328 113.769,115.067 C110.569,116.2 109.572,116.166 106.769,114.827 C103.188,113.117 102.357,111.047 99.529,96.792 C97.223,85.166 97.45,82.641 101.077,79.589 C107.245,74.398 108.561,76.243 108.819,90.446 C108.954,97.884 109.415,101.645 110.259,102.18 C112.052,103.318 113.455,102.62 113.802,100.417 C113.967,99.363 114.468,97.6 114.913,96.5 C117.491,90.134 117.912,86.742 117.44,76.124 C117.163,69.867 116.504,63.941 115.976,62.956 C114.986,61.105 115.607,55.821 117.176,52.75 Z M61.474,130.269 C66.162,126.237 70.888,128.264 69.575,133.744 C69.212,135.26 68.497,138.525 67.986,141 C66.708,147.196 64.816,153.311 63.826,154.45 C63.372,154.973 63,156.38 63,157.578 C63,158.775 62.325,160.315 61.5,161 C60.675,161.685 59.986,162.752 59.969,163.372 C59.952,163.993 58.831,166.75 57.478,169.5 C56.125,172.25 55.014,175.261 55.009,176.191 C55.004,177.121 54.55,178.16 54,178.5 C53.45,178.84 53,179.942 53,180.948 C53,181.955 51.193,185.866 48.984,189.639 C45.154,196.18 43.018,201.686 43.006,205.043 C43.002,206.039 44.677,207.034 47.737,207.852 C52.66,209.169 56,211.452 56,213.5 C56,214.155 56.925,215.528 58.057,216.551 C60.303,218.584 60.153,220.569 57.246,227.25 C56.306,229.412 54.915,231 53.963,231 C51.92,231 49.477,228.317 48.5,225 C47.644,222.096 45.147,219 43.659,219 C43.093,219 40.494,220.8 37.885,223 C35.276,225.2 32.225,227 31.106,227 C27.674,227 25.795,221.217 27.932,217.236 C29.92,213.536 36,198.214 36,196.907 C36,196.149 37.085,193.272 38.411,190.514 C44.836,177.153 46,174.511 46,173.29 C46,172.566 46.389,171.191 46.865,170.236 C50.246,163.448 53,156.674 53,155.145 C53,154.148 53.308,153.025 53.685,152.648 C55.095,151.239 57.22,144.302 58.015,138.519 C58.649,133.9 59.437,132.021 61.474,130.269 Z M56.544,64.344 C59.303,62.326 61.801,62.71 64.686,65.595 C67.171,68.08 67.256,68.529 66.669,76.136 C66.316,80.716 65.409,85.006 64.528,86.263 C63.688,87.463 63,89.865 63,91.6 C63,93.335 62.325,95.315 61.5,96 C60.675,96.685 60,98.705 60,100.489 C60,103.736 56.79,112.76 54.315,116.473 C53.592,117.557 53,119.05 53,119.789 C53,120.529 51.875,122.608 50.5,124.411 C49.125,126.214 48,128.815 48,130.191 C48,132.744 45.681,138.301 43.489,141 C42.819,141.825 42.004,144.243 41.678,146.374 C41.352,148.505 40.412,150.992 39.589,151.902 C37.985,153.674 37.418,159.18 38.49,162.582 C38.99,164.172 38.291,165.415 35.538,167.832 C31.428,171.441 31.097,171.523 28.441,169.581 C25.79,167.642 25.913,159.96 28.69,154 C29.843,151.525 31.538,147.025 32.455,144 C33.373,140.975 35.671,135.243 37.562,131.262 C39.453,127.281 41,123.633 41,123.154 C41,122.676 42.575,119.263 44.5,115.569 C46.425,111.876 48,107.958 48,106.862 C48,105.765 48.462,104.005 49.028,102.949 C49.593,101.893 50.519,98.885 51.085,96.264 C51.652,93.644 52.561,89.475 53.105,87 C54.938,78.659 55.88,70.515 55.291,68.094 C54.885,66.427 55.269,65.276 56.544,64.344 Z"/>
</svg>

