<svg xmlns="http://www.w3.org/2000/svg" width="300" height="300" viewBox="0 0 300 300" version="1.1">
  <defs/>
  <path d="M164.921,38.647 C166.049,36.54 166.812,36.158 168.908,36.65 C172.883,37.583 173.41,38.539 173.654,45.264 C174.032,55.661 174.785,62.844 175.639,64.207 C176.085,64.918 176.911,69.325 177.475,74 C178.146,79.563 178.93,82.5 179.744,82.5 C181.089,82.5 187.548,77.738 194.289,71.777 C199.34,67.311 201.113,67.13 204.46,70.74 C207.796,74.338 207.665,75.981 203.75,79.67 C200.558,82.678 187.055,92.241 182.379,94.805 C180.087,96.062 180,96.53 180,107.624 C180,118.994 180.028,119.135 182.25,118.82 C183.792,118.601 186.164,115.982 189.787,110.5 C196.009,101.084 198.381,99.711 202.883,102.916 C204.597,104.137 206,105.803 206,106.618 C206,108.92 203.277,113.631 200.77,115.666 C199.521,116.679 196.739,119.757 194.586,122.504 C192.433,125.252 188.864,129.4 186.655,131.723 L182.637,135.946 L182.404,149.037 C182.231,158.76 182.492,162.252 183.42,162.608 C184.107,162.871 187.781,161.919 191.585,160.492 C207.677,154.452 214.323,153.144 230.311,152.87 C241.898,152.671 242.172,152.718 244.791,155.337 L247.461,158.006 L243.872,161.594 L240.284,165.182 L231.392,164.127 C218.511,162.599 208.693,164.102 198.764,169.122 C197.809,169.605 196.234,170 195.264,170 C194.294,170 190.968,171.796 187.873,173.992 L182.245,177.984 L181.788,187.242 C181.537,192.334 181.638,197.85 182.013,199.5 C182.388,201.15 182.651,222.845 182.598,247.711 C182.511,288.034 182.324,293.098 180.874,294.551 C179.376,296.053 179.004,296.054 176.124,294.564 C174.406,293.676 173,292.15 173,291.174 C173,290.198 172.508,288.908 171.906,288.306 C171.18,287.58 171.061,285.072 171.552,280.856 C172.429,273.328 172.418,155.985 171.538,131.5 C170.701,108.236 169.937,95.707 169.292,94.663 C168.993,94.18 168.396,88.546 167.965,82.143 C167.534,75.739 166.41,67.35 165.468,63.5 C163.307,54.668 163.032,42.177 164.921,38.647 Z M124.811,56.25 C127.483,54.124 130.092,54.849 133.615,58.695 C136.394,61.73 137,63.182 137,66.814 C137,71.976 139.802,87.643 141.217,90.388 C142.842,93.544 142.422,136.304 140.68,145 C139.853,149.125 138.903,155.508 138.568,159.184 C138.232,162.86 137.293,167.751 136.481,170.053 C135.669,172.355 134.798,176.547 134.545,179.369 C133.901,186.556 132.147,196.126 131.038,198.5 C130.524,199.6 129.6,203.08 128.985,206.233 C128.369,209.385 127.446,212.225 126.933,212.542 C126.42,212.859 126,214.426 126,216.024 C126,217.623 124.65,221.059 123,223.661 C121.35,226.263 120,228.78 120,229.254 C120,229.729 118.575,231.891 116.833,234.059 C113.063,238.75 109.538,239.227 105.338,235.615 C102.95,233.56 102.751,233.005 103.905,231.615 C104.642,230.727 105.804,230 106.488,230 C108.38,230 113,226.043 113,224.423 C113,223.635 114.125,220.658 115.5,217.808 C116.875,214.958 118,211.831 118,210.86 C118,209.889 118.42,208.06 118.932,206.797 C119.445,205.534 120.629,201.8 121.563,198.5 C122.498,195.2 123.832,190.7 124.529,188.5 C125.226,186.3 126.114,181.35 126.502,177.5 C126.891,173.65 127.836,169.503 128.604,168.285 C130.24,165.689 130.427,162.382 128.987,161.492 C128.43,161.148 126.292,162.784 124.237,165.128 C115.838,174.706 105.605,185.525 104.586,185.903 C103.989,186.125 100.947,188.262 97.826,190.653 C92.054,195.075 89.393,195.816 85.934,193.965 C84.589,193.245 84,191.867 84,189.44 C84,186.536 84.462,185.787 86.75,184.976 C90.099,183.789 90.085,183.798 98.926,177.091 C105.309,172.25 113.338,163.921 124.168,150.908 C128.049,146.245 130.126,144.081 131.234,141.502 C132.718,138.047 132.464,133.845 132.478,121.887 C132.49,111.592 132.177,102.845 131.782,102.45 C130.965,101.632 125.722,103.57 122,106.066 C120.625,106.987 116.89,108.327 113.7,109.043 C108.33,110.247 107.757,110.201 105.978,108.422 C103.403,105.847 104.343,102.727 108.328,100.616 C110.073,99.692 112.85,98.196 114.5,97.292 C122.995,92.637 125.135,91.871 127.925,92.483 C129.511,92.832 131.051,92.727 131.346,92.25 C132.347,90.629 125.55,67.476 123.307,64.868 C121.631,62.919 122.47,58.113 124.811,56.25 Z M71.655,117.829 C73.56,115.724 74.388,115.602 77.066,117.035 C78.684,117.902 79,119.17 79,124.813 C79,129.479 78.488,132.285 77.338,133.927 C76.424,135.232 75.352,137.92 74.956,139.9 C73.603,146.655 71.032,155.302 69.157,159.404 C68.128,161.657 66.672,165.525 65.922,168 C65.171,170.475 63.313,174.975 61.791,178 C60.27,181.025 59.02,184.103 59.013,184.839 C59.006,185.576 60.913,188.051 63.25,190.339 C66.3,193.325 67.862,195.912 68.783,199.5 C69.489,202.25 70.409,205.625 70.827,207 C71.244,208.375 71.709,212.759 71.859,216.741 C72.117,223.57 71.994,224.046 69.693,225.094 C66.731,226.444 63.008,224.845 62.985,222.215 C62.977,221.272 62.321,218.7 61.529,216.5 C60.736,214.3 60.068,210.193 60.044,207.372 C60.015,203.957 59.471,201.806 58.416,200.93 C56.257,199.139 54.29,200.484 50.164,206.575 C46.707,211.678 45.99,212.303 42.301,213.43 C40.771,213.898 39.479,213.479 38.051,212.051 C34.199,208.199 35.13,205.653 45.25,192.342 C46.763,190.353 48,188.103 48,187.343 C48,186.582 49.125,184.178 50.5,182 C51.875,179.822 53,177.221 53,176.22 C53,175.219 53.358,173.972 53.795,173.45 C54.232,172.927 55.439,169.8 56.477,166.5 C57.516,163.2 58.652,160.05 59.003,159.5 C59.353,158.95 60.199,156.475 60.881,154 C61.564,151.525 62.577,148.15 63.133,146.5 C63.688,144.85 64.797,140.8 65.598,137.5 C66.398,134.2 67.718,129.475 68.532,127 C69.345,124.525 70.008,121.86 70.005,121.079 C70.002,120.297 70.745,118.835 71.655,117.829 Z M69.244,63.344 C71.035,62.159 72.635,61.146 72.8,61.094 C72.964,61.042 74.427,61.687 76.05,62.526 C78.555,63.821 79,64.642 79,67.967 C79,70.12 78.55,72.16 78,72.5 C77.45,72.84 76.998,74.554 76.995,76.309 C76.992,78.064 75.881,81.3 74.526,83.5 C73.155,85.726 72.049,89.074 72.031,91.05 C72.014,93.002 71.592,95.027 71.093,95.55 C70.594,96.072 69.725,98.075 69.162,100 C66.877,107.813 62.203,120.197 61.137,121.263 C60.512,121.888 60,123.216 60,124.214 C60,125.211 59.583,126.809 59.073,127.764 C58.563,128.719 57.891,130.175 57.579,131 C57.268,131.825 56.63,133.175 56.162,134 C53.858,138.062 53,140.11 53,141.553 C53,142.422 51.875,144.608 50.5,146.411 C49.125,148.214 48,149.993 48,150.364 C48,150.736 46.875,152.822 45.5,155 C44.125,157.178 43,159.607 43,160.399 C43,161.999 37.11,166 34.754,166 C33.924,166 32.66,165.295 31.946,164.434 C30.869,163.137 30.934,162.382 32.323,160.03 C33.245,158.469 34,156.473 34,155.596 C34,154.718 34.406,154 34.902,154 C36.191,154 42.937,141.31 48.593,128.25 C49.367,126.462 50.675,123.469 51.5,121.599 C52.325,119.728 53,117.697 53,117.085 C53,116.473 53.391,115.191 53.868,114.236 C54.734,112.506 55.745,109.686 60.947,94.5 C66.257,78.999 67.184,74.989 66.574,70.156 C66.017,65.739 66.155,65.389 69.244,63.344 Z M111.558,131.411 C117.888,125.024 118.942,124.338 121.776,124.754 C125.374,125.282 126.447,126.338 127.39,130.285 C127.984,132.771 127.305,133.79 121.059,139.785 C117.211,143.478 111.592,147.824 108.573,149.443 C103.208,152.318 103.036,152.343 101.041,150.538 C98.082,147.86 98.4,143.472 101.75,140.759 C103.263,139.534 107.676,135.327 111.558,131.411 Z"/>
</svg>

