<svg xmlns="http://www.w3.org/2000/svg" width="300" height="300" viewBox="0 0 300 300" version="1.1">
  <defs/>
  <path d="M153.25,119.584 C157.229,116.448 158.707,116.376 161.686,119.174 C163.381,120.767 164,122.454 164,125.483 C164,127.757 164.595,130.432 165.323,131.427 C166.57,133.132 167.158,132.974 175.573,128.669 C180.483,126.158 187.058,123.109 190.185,121.894 C195.58,119.799 196.002,119.772 198.435,121.366 C199.846,122.29 201,123.901 201,124.945 C201,127.166 193.417,134 190.952,134 C188.007,134 170.575,140.101 168.693,141.79 C167.607,142.765 167.09,144.228 167.396,145.456 C167.676,146.58 168.399,151.775 169.003,157 C169.606,162.225 170.351,167.175 170.657,168 C172.032,171.702 172.823,222.614 171.755,238.616 C171.384,244.179 170.655,249.804 170.135,251.116 C169.616,252.427 168.621,256.2 167.925,259.5 C165.391,271.52 162.116,276.001 153.794,278.835 C150.67,279.899 149.621,279.856 147.108,278.556 C145.468,277.708 143.847,276.561 143.504,276.007 C143.162,275.453 142.121,274.995 141.191,274.989 C138.897,274.973 107.012,249.96 106.993,248.16 C106.989,247.797 105.211,245.7 103.042,243.5 C98.731,239.128 98.277,237.845 100.413,236.073 C102.498,234.342 107.607,236.824 112.75,242.064 C115.088,244.446 117,246.712 117,247.1 C117,247.488 119.455,249.435 122.456,251.427 C125.457,253.419 128.182,255.486 128.513,256.021 C129.166,257.077 136.887,260.758 146.674,264.678 C154.166,267.68 156.573,266.919 157.569,261.238 C157.93,259.182 158.853,256.498 159.62,255.273 C160.419,253.999 161.458,247.796 162.049,240.773 C163.056,228.817 163.165,191.247 162.215,183.764 C161.776,180.312 161.541,180.075 159.12,180.659 C157.679,181.007 155.375,182.075 154,183.031 C152.625,183.988 149.716,185.515 147.537,186.424 C145.357,187.333 142.766,188.807 141.78,189.699 C140.793,190.592 139.108,191.812 138.035,192.411 C136.962,193.01 132.353,195.986 127.792,199.025 C115.134,207.46 113.185,208.399 111.403,206.92 C110.451,206.13 110.009,204.37 110.199,202.128 C110.509,198.482 113.491,195.574 122.113,190.511 C123.976,189.418 127.3,187.453 129.5,186.144 C146.008,176.327 150.207,174.098 155.5,172.339 C161.042,170.498 161.524,170.099 161.818,167.108 C161.993,165.327 161.706,163.336 161.18,162.685 C160.653,162.033 159.9,158.655 159.505,155.178 C159.086,151.486 158.246,148.648 157.487,148.356 C156.771,148.082 153.557,149.631 150.343,151.798 C139.232,159.291 96.422,181.24 88.331,183.592 C80.252,185.941 76.908,184.004 79.098,178.243 C80.73,173.949 82.991,171.96 85.516,172.593 C86.915,172.945 89.948,172.049 93.626,170.199 C96.857,168.574 102.639,165.993 106.475,164.464 C114.282,161.351 125.825,155.448 140,147.32 C145.225,144.324 150.625,141.258 152,140.507 C155.661,138.508 155.918,133.071 152.56,128.667 C149.208,124.273 149.33,122.673 153.25,119.584 Z M142.273,39.698 C144.585,36.18 148.207,36.14 150.478,39.607 C151.714,41.493 151.884,42.516 151.093,43.307 C150.492,43.908 150,45.435 150,46.7 C150,49.679 152.608,49.717 155.73,46.783 C157.574,45.051 158.463,44.8 159.795,45.634 C163.989,48.26 161.497,57.039 155.244,61.662 C152.811,63.461 152.164,64.944 151.11,71.147 C150.423,75.191 149.464,80.075 148.979,82 C148.495,83.925 147.86,87.3 147.569,89.5 C147.278,91.7 146.753,94.737 146.403,96.25 C145.866,98.573 146.09,99 147.849,99 C148.994,99 151.468,97.65 153.347,96 C155.226,94.35 157.019,93 157.331,93 C158.805,93 163.991,99.749 163.995,101.672 C164.002,104.926 156.861,110.487 150.211,112.407 C147.07,113.314 143.968,114.667 143.317,115.414 C142.667,116.16 139.615,117.564 136.536,118.533 C133.456,119.501 130.699,120.678 130.409,121.147 C129.302,122.939 126.893,121.873 124.989,118.75 C122.266,114.284 122.495,112.312 125.945,110.529 C129.222,108.834 135.988,99.346 136.022,96.396 C136.034,95.353 136.89,92.637 137.924,90.361 C138.957,88.084 139.957,83.359 140.144,79.861 L140.486,73.5 L137.602,73.707 C136.017,73.822 133.741,74.834 132.545,75.957 C131.349,77.081 129.75,78 128.99,78 C128.231,78 126.314,79.237 124.73,80.75 C121.924,83.431 121.816,83.451 120.426,81.559 C119.642,80.491 119,78.155 119,76.368 C119,73.557 119.954,72.334 126.059,67.309 C129.941,64.114 134.554,60.823 136.309,59.995 C139.433,58.522 139.51,58.323 140,50.444 C140.331,45.12 141.1,41.483 142.273,39.698 Z M69.314,129.25 C70.338,127.658 75.225,127.625 76.8,129.2 C78.817,131.217 78.141,135.275 75,140 C73.355,142.475 71.991,145.625 71.969,147 C71.947,148.375 71.286,150.625 70.5,152 C69.714,153.375 69.055,155.461 69.035,156.636 C69.016,157.81 68.328,160.06 67.506,161.636 C66.685,163.211 66.01,165.219 66.006,166.098 C66.003,166.976 63.334,173.089 60.076,179.682 C56.818,186.275 53.857,193.243 53.496,195.167 C52.931,198.181 53.19,198.894 55.369,200.322 C57.986,202.037 62.382,210.563 61.642,212.489 C61.411,213.091 61.847,214.438 62.611,215.483 C66.102,220.257 62.647,230 57.463,230 C54.186,230 53.104,227.468 53.318,220.304 C53.538,212.951 51.557,210 46.402,210 C44.137,210 42.629,209.308 41.557,207.777 C39.34,204.613 39.6,202.538 42.986,196.368 C44.629,193.375 47.393,187.456 49.129,183.213 C50.865,178.971 52.671,175.073 53.143,174.55 C53.614,174.028 54,172.655 54,171.5 C54,170.345 54.358,168.973 54.795,168.45 C55.232,167.928 56.409,164.8 57.411,161.5 C58.413,158.2 59.613,154.6 60.078,153.5 C60.543,152.4 61.645,148.921 62.527,145.768 C63.409,142.616 64.552,139.777 65.066,139.459 C65.58,139.142 66,138.06 66,137.055 C66,135.389 67.231,132.49 69.314,129.25 Z M66.667,60.667 C68.056,59.278 71.181,60.09 73.545,62.455 C75.537,64.447 75.998,65.907 75.989,70.205 C75.983,73.117 75.291,77.75 74.451,80.5 C73.611,83.25 72.51,87.975 72.005,91 C70.064,102.614 67.265,112.263 62.723,123 C61.909,124.925 60.018,129.65 58.52,133.5 C57.022,137.35 55.392,140.928 54.898,141.45 C54.404,141.973 54,143.147 54,144.06 C54,144.974 52.875,147.379 51.5,149.405 C50.125,151.431 49,153.505 49,154.015 C49,156.384 43.744,166.067 41.931,167.037 C38.72,168.755 35.549,167.849 35.161,165.101 C34.81,162.622 34.991,162.112 39.381,153.158 C40.821,150.219 42,147.414 42,146.923 C42,146.432 43.313,143.886 44.917,141.265 C46.522,138.644 48.794,133.634 49.968,130.132 C51.141,126.629 52.908,121.904 53.894,119.632 C54.881,117.359 56.481,112.8 57.45,109.5 C58.419,106.2 59.615,102.466 60.106,101.203 C60.598,99.94 61,97.829 61,96.512 C61,95.195 61.45,93.84 62,93.5 C62.55,93.16 63,90.419 63,87.409 C63,84.399 63.675,80.32 64.5,78.346 C65.328,76.365 66,71.748 66,68.045 C66,64.353 66.3,61.033 66.667,60.667 Z"/>
</svg>

