<svg xmlns="http://www.w3.org/2000/svg" width="300" height="300" viewBox="0 0 300 300" version="1.1">
  <defs/>
  <path d="M134.707,60.665 C135.411,59.526 141.123,60.695 142.737,62.308 C144.707,64.278 144.569,88.429 142.56,93.218 C141.702,95.263 141,98.21 141,99.768 C141,101.326 140.642,103.028 140.205,103.55 C139.768,104.073 138.59,107.2 137.587,110.5 C136.584,113.8 134.985,118.3 134.033,120.5 C131.984,125.236 130.467,129.364 127.785,137.5 C126.697,140.8 124.501,146.126 122.904,149.336 C121.307,152.546 120,155.934 120,156.864 C120,157.794 119.401,159.443 118.669,160.527 C117.937,161.612 116.538,164.525 115.559,167 C114.581,169.475 113.557,172.063 113.283,172.75 C112.977,173.519 113.622,174 114.957,174 C117.383,174 135.71,158.648 138.546,154.239 C139.516,152.733 142.059,149.39 144.197,146.81 C148.434,141.7 155,129.815 155,127.256 C155,124.993 157.962,122 160.203,122 C162.576,122 166.561,126.236 169.126,131.484 C170.206,133.693 172.381,137.75 173.961,140.5 C175.54,143.25 177.985,147.603 179.394,150.173 C180.803,152.743 183.09,156.518 184.478,158.562 C185.865,160.607 187,163.418 187,164.811 C187,166.203 187.609,168.053 188.353,168.921 C189.096,169.79 191.415,174.55 193.505,179.5 C195.596,184.45 198.786,191.65 200.596,195.5 C202.405,199.35 204.441,205.548 205.12,209.274 C206.271,215.588 206.217,216.233 204.327,218.774 C201.261,222.896 198.9,222.704 195.143,218.028 C192.078,214.215 191.956,213.765 193.11,210.572 C194.165,207.656 194.044,206.277 192.256,200.837 C191.111,197.352 189.01,192.185 187.587,189.355 C186.164,186.525 185,183.703 185,183.085 C185,182.466 183.875,180.178 182.5,178 C181.125,175.822 179.997,173.468 179.994,172.77 C179.987,171.444 179.054,169.501 174.822,162 C173.425,159.525 171.273,155.7 170.04,153.5 C168.806,151.3 167.168,148.79 166.399,147.921 C165.629,147.053 165,145.963 165,145.5 C165,144.081 161.774,141 160.289,141 C159.518,141 158,143.006 156.915,145.459 C155.831,147.911 154.488,150.199 153.931,150.543 C153.374,150.887 151.741,153.034 150.301,155.315 C147.45,159.831 133.611,173.988 128,178.128 C124.293,180.863 108.812,188 106.586,188 C105.862,188 104.114,187.091 102.701,185.979 C100.516,184.261 100.216,183.402 100.694,180.229 C101.177,177.019 107.184,160.959 111.439,151.5 C112.182,149.85 113.761,146.25 114.949,143.5 C116.137,140.75 117.5,137.6 117.977,136.5 C118.454,135.4 119.597,132.25 120.516,129.5 C121.436,126.75 122.773,123.375 123.489,122 C124.205,120.625 125.252,117.925 125.816,116 C126.38,114.075 127.788,110.025 128.946,107 C132.856,96.779 134.399,87.242 134.282,74.016 C134.221,67.149 134.413,61.141 134.707,60.665 Z M71.5,62.027 C77.022,60.791 81.151,61.429 85.37,64.169 C89.426,66.804 91,70.303 91,76.681 C91,87.754 80.501,99.797 66.472,104.816 L61.532,106.584 L60.327,113.542 C58.917,121.692 58.688,127.689 59.763,128.353 C60.182,128.613 63.083,127.237 66.209,125.297 C70.689,122.516 72.908,121.775 76.696,121.798 C82.758,121.834 88.271,124.156 90.777,127.729 C94.877,133.572 96.517,149.543 94.092,160 C93.518,162.475 93.038,166.006 93.024,167.846 C93.011,169.686 92.384,172.386 91.632,173.846 C88.439,180.041 84.216,189.687 83.659,192.059 C83.328,193.467 81.946,196.167 80.587,198.059 C79.228,199.952 76.669,203.63 74.901,206.232 C73.133,208.835 70.916,211.209 69.975,211.508 C69.034,211.807 67.46,212.94 66.477,214.026 C63.322,217.512 60.697,216.482 53.621,208.981 C49.98,205.121 47,201.451 47,200.826 C47,200.2 45.938,198.296 44.64,196.594 C43.342,194.892 40.816,190.599 39.027,187.054 C35.191,179.454 30.111,172.435 23.375,165.43 C15.593,157.336 15.566,157.291 17.329,155.528 C19.508,153.349 21.826,153.63 25.636,156.536 C30.721,160.414 48,181.877 48,184.314 C48,184.703 49.575,187.261 51.5,190 C53.425,192.739 55,195.346 55,195.794 C55,197.56 61.87,203.172 63.62,202.835 C65.32,202.507 72.825,192.645 72.946,190.579 C72.976,190.072 73.62,188.947 74.378,188.079 C75.136,187.21 76.973,182.9 78.461,178.5 C79.948,174.1 81.531,169.6 81.978,168.5 C84.052,163.396 85.184,154.642 84.858,146.235 C84.514,137.398 84.372,136.909 81.252,133.79 L78.004,130.543 L74.252,132.479 C72.188,133.545 69.306,135.223 67.846,136.208 C66.386,137.194 64.528,138 63.718,138 C62.908,138 61.66,138.705 60.945,139.566 C58.839,142.103 53.956,144.206 51.564,143.605 C50.342,143.299 48.816,141.891 48.171,140.477 C46.701,137.251 46.658,130.016 48.086,126.315 C48.684,124.767 49.392,118.55 49.66,112.5 C49.947,106.028 50.632,101.022 51.324,100.338 C51.971,99.7 55.51,98.26 59.188,97.14 C70.367,93.736 76.326,89.041 79.331,81.271 C80.559,78.097 80.716,76.383 79.96,74.394 C78.955,71.75 78.94,71.747 71.041,72.436 C63.245,73.116 63.103,73.087 61.383,70.462 C58.49,66.046 60.305,64.533 71.5,62.027 Z"/>
</svg>

