<svg xmlns="http://www.w3.org/2000/svg" width="300" height="300" viewBox="0 0 300 300" version="1.1">
  <defs/>
  <path d="M77.432,33.11 C78.544,31.31 84.024,32.73 86.961,35.58 C89.302,37.851 89.358,38.174 88.112,42.234 C87.392,44.58 86.664,48.075 86.494,50 C86.324,51.925 85.694,55.072 85.093,56.993 C83.782,61.184 83.649,68 84.879,68 C85.362,68 88.373,66.425 91.57,64.5 C94.767,62.575 98.084,60.964 98.941,60.919 C99.799,60.875 102.3,59.779 104.5,58.484 C117.105,51.064 125.148,47.931 135.119,46.554 C138.89,46.034 140.581,46.365 144.332,48.359 C152.418,52.659 154.073,55.457 157.452,70.537 C158.664,75.947 158.801,78.778 158.042,82.778 C157.499,85.639 157.328,88.69 157.661,89.558 C157.993,90.425 157.78,92.117 157.186,93.317 C156.592,94.518 155.867,98.875 155.576,103 C154.828,113.567 153.941,119.346 152.898,120.45 C152.404,120.973 152,122.704 152,124.299 C152,127.071 150.555,131.2 147.439,137.331 C146.647,138.888 146,140.806 146,141.592 C146,143.155 143.146,149.869 139.394,157.135 C138.077,159.685 137,162.661 137,163.748 C137,166.686 127.462,175.264 124.978,174.56 C123.89,174.252 122.082,173.739 120.96,173.42 C119.838,173.101 117.115,170.556 114.909,167.765 C111.636,163.625 110.953,162.029 111.199,159.095 C111.614,154.141 114.648,154.211 117.908,159.25 C119.463,161.652 121.101,163 122.468,163 C124.895,163 127,161.251 127,159.233 C127,158.482 128.125,156.392 129.5,154.589 C130.875,152.786 132,150.842 132,150.268 C132,149.694 133.402,146.229 135.116,142.567 C136.829,138.905 138.59,134.467 139.028,132.704 C139.764,129.745 141.186,125.435 143.057,120.5 C144.737,116.07 147,99.806 147.528,88.369 C148.16,74.696 147.169,68.824 143.118,62.252 L140.5,58.004 L134.5,58.079 C122.824,58.225 116.354,62.125 122.692,65.196 L125.5,66.556 L125.14,77.528 C124.942,83.563 124.426,88.95 123.993,89.5 C123.56,90.05 122.985,92.75 122.715,95.5 C122.179,100.96 115.699,126.752 114.127,129.681 C113.591,130.681 112.611,133.629 111.951,136.231 C111.291,138.833 110.132,141.476 109.375,142.103 C108.619,142.731 107.998,144.427 107.996,145.872 C107.994,147.318 107.163,149.861 106.148,151.524 C105.134,153.187 103.727,156.337 103.022,158.524 C102.316,160.711 101.383,162.954 100.948,163.508 C100.513,164.062 99.527,166.344 98.757,168.578 C96.739,174.437 88.129,186.17 86.127,185.791 C83.295,185.255 83.779,180.666 87.453,173.232 C89.404,169.285 91,165.66 91,165.177 C91,164.693 92.125,162.182 93.5,159.596 C94.875,157.01 96,154.279 96,153.528 C96,152.777 96.753,150.663 97.674,148.831 C98.594,146.999 99.903,144.375 100.582,143 C101.261,141.625 102.141,138.7 102.539,136.5 C102.936,134.3 103.673,131.979 104.176,131.343 C104.679,130.706 105.489,128.006 105.974,125.343 C106.46,122.679 107.374,118.7 108.007,116.5 C108.639,114.3 109.529,110.163 109.984,107.306 C110.44,104.45 111.098,101.65 111.448,101.084 C112.725,99.018 114.782,84.295 114.852,76.716 C114.891,72.436 115.204,68.478 115.548,67.923 C115.891,67.367 115.649,66.282 115.01,65.512 C114.088,64.401 113.297,64.346 111.174,65.249 C106.081,67.416 104.841,69.099 105.494,72.962 C105.855,75.101 105.278,80.018 104.047,85.298 C102.921,90.127 102,96.109 102,98.591 C102,104.843 99.1,117.035 96.965,119.762 C95.988,121.009 95.426,122.914 95.712,124.008 C95.998,125.1 95.445,127.682 94.483,129.746 C83.167,154.043 80.904,157.311 75.74,156.813 C72.863,156.535 72.464,156.121 72.176,153.112 C71.701,148.14 72.632,145.517 75.997,142.341 C77.649,140.782 79,139.138 79,138.687 C79,138.236 80.067,136.434 81.371,134.683 C83.486,131.843 85.993,125.506 89.157,115 C89.737,113.075 90.629,106.1 91.138,99.5 C91.648,92.9 92.501,86.466 93.033,85.203 C94.283,82.234 94.282,77 93.031,77 C91.161,77 77.862,86.201 77.361,87.841 C77.082,88.754 76.437,90.281 75.927,91.236 C75.417,92.191 75,93.956 75,95.158 C75,96.359 74.403,98.053 73.673,98.921 C72.942,99.79 71.779,102.525 71.086,105 C70.394,107.475 69.101,110.625 68.213,112 C67.326,113.375 65.518,116.525 64.196,119 C62.874,121.475 60.151,125.402 58.146,127.727 C56.141,130.052 53.344,133.379 51.931,135.119 C49.383,138.258 49.34,138.269 46.681,136.527 C45.207,135.561 44,133.962 44,132.975 C44,131.258 50.747,121.892 52.977,120.514 C54.467,119.593 62.608,102.175 64.026,96.874 C64.669,94.468 65.545,92.05 65.972,91.5 C66.399,90.95 66.996,89.15 67.297,87.5 C67.599,85.85 69.226,79.46 70.913,73.299 C72.601,67.139 74.226,59.489 74.525,56.299 C74.824,53.11 75.271,49.15 75.517,47.5 C75.764,45.85 76.125,42.214 76.32,39.419 C76.514,36.624 77.015,33.785 77.432,33.11 Z M148.741,198.035 C156.596,196.011 167.008,196.273 173.348,198.654 C175.631,199.511 183.446,203.098 190.714,206.624 C197.982,210.15 205.288,213.308 206.95,213.64 C214.342,215.118 217.229,222.275 212,226.16 C209.532,227.993 209.395,227.977 201.501,224.937 C197.101,223.243 192.151,220.845 190.501,219.608 C187.446,217.318 184.594,215.877 170.625,209.561 C162.679,205.968 157.304,205.096 155.321,207.079 C154.727,207.673 152.293,208.596 149.91,209.132 C141.591,211.001 141.223,212.774 147.499,220.769 C150.838,225.021 151.999,227.383 151.999,229.921 C152,231.803 152.748,234.169 153.661,235.178 C154.846,236.487 155.306,238.77 155.265,243.134 C155.214,248.503 154.854,249.608 152.331,252.13 C148.016,256.446 139.866,259.224 129.5,259.914 C121.227,260.464 116.597,259.895 110.5,257.579 C100.459,253.764 96.833,251.748 93.045,247.877 C80.031,234.578 78,231.74 78,226.854 C78,220.604 81.589,222.622 98.07,238.139 C100.034,239.987 103.634,242.529 106.07,243.787 C108.507,245.045 112.068,246.957 113.984,248.037 C120.751,251.849 137.073,249.934 142.849,244.649 C144.955,242.723 145.133,241.93 144.564,237 C144.179,233.668 142.937,230 141.415,227.697 C138.789,223.723 130.825,218 127.923,218 C125.122,218 120.829,211.457 121.188,207.735 L121.5,204.5 L128.284,204.775 C134.304,205.018 135.458,204.752 138.526,202.413 C140.427,200.962 145.024,198.992 148.741,198.035 Z M37.362,206.223 C37.778,205.55 39.634,205 41.486,205 C43.964,205 45.434,205.727 47.044,207.75 C49.038,210.256 49.186,211.305 48.707,219.564 C48.419,224.549 47.466,230.341 46.591,232.436 C45.716,234.53 45,236.912 45,237.728 C45,238.544 43.65,240.917 42,243 C40.35,245.083 39,247.333 39,248 C39,249.318 33.463,256.751 31.015,258.718 C29.023,260.32 22.509,260.341 21.278,258.75 C18.754,255.488 19.109,254.008 23.374,250.01 C25.738,247.795 28.296,244.749 29.06,243.241 C29.823,241.734 31.639,239.088 33.095,237.362 C36.173,233.713 37.281,227.229 36.872,215.247 C36.726,210.957 36.946,206.896 37.362,206.223 Z"/>
</svg>

