<svg xmlns="http://www.w3.org/2000/svg" width="300" height="300" viewBox="0 0 300 300" version="1.1">
  <defs/>
  <path d="M163.404,56.155 C164.356,54.615 168.683,54.678 169.652,56.246 C170.075,56.931 170.779,59.743 171.215,62.496 C173.305,75.678 174.055,80.694 174.268,82.917 C174.603,86.412 176.543,86.568 181.212,83.478 C185.358,80.735 191.986,74.14 191.995,72.75 C191.998,72.338 193.208,72 194.686,72 C197.494,72 202,75.448 202,77.598 C202,79.329 197.121,84.964 194.589,86.156 C190.086,88.275 186.316,90.649 182.131,94.001 L177.762,97.5 L178.449,105 C179.534,116.848 179.94,123.847 181.061,150 C182.561,184.998 182.944,190.229 184.191,192.716 C185.008,194.346 185.004,195.291 184.174,196.29 C183.392,197.233 183.319,199.319 183.938,203.121 C184.428,206.132 184.901,218.249 184.989,230.047 C185.077,241.846 185.252,261.85 185.378,274.5 C185.506,287.436 185.201,298.047 184.681,298.75 C184.169,299.441 181.657,300 179.065,300 C173.507,300 170.876,297.692 166.528,289 C165.014,285.975 163.377,282.719 162.888,281.764 C162.4,280.809 162,279.588 162,279.052 C162,278.515 160.37,274.643 158.378,270.446 C155.127,263.597 154.913,262.658 156.286,261.286 C157.659,259.913 158.233,260.153 161.893,263.628 C164.135,265.758 167.272,269.975 168.864,273 C170.798,276.675 172.379,278.5 173.629,278.5 C175.404,278.5 175.492,277.396 175.34,257 C175.088,223.134 174.252,188.733 173.615,186 C172.741,182.254 171.046,150.311 170.936,135.5 C170.882,128.35 170.401,119.575 169.867,116 C168.781,108.728 168.346,105.593 167.025,105.16 C166.005,104.826 164.455,106.106 161.668,108.337 C158.029,111.25 154.614,113.356 146.5,117.693 C137.948,122.263 127.192,126 122.587,126 C118.962,126 116.639,124.056 117.167,121.464 C117.474,119.958 131.491,111.892 136.375,110.411 C143.161,108.353 163.292,96.667 165.246,93.651 C166.292,92.035 164.972,77.797 163.618,76.096 C162.397,74.562 162.221,58.07 163.404,56.155 Z M75.061,98.426 C76.521,96.667 81.393,96.556 82.775,98.25 C83.336,98.938 84.013,101.75 84.281,104.5 C84.548,107.25 85.24,111.3 85.819,113.5 C87.245,118.924 88.038,134.843 89.51,187.601 C90.087,208.272 89.981,210.876 88.506,212.351 C86.54,214.317 84.619,214.462 83.232,212.75 C82.675,212.063 81.956,204.3 81.633,195.5 C81.311,186.7 80.601,176.35 80.056,172.5 C79.511,168.65 79.049,160.775 79.029,155 C78.984,141.933 77.294,123.117 75.572,116.5 C73.844,109.867 73.572,100.221 75.061,98.426 Z M47.657,145.203 L47.293,136.906 L50.397,137.568 C54.641,138.475 56,139.773 56,142.922 C56,144.395 56.475,146.075 57.056,146.656 C57.71,147.31 58.103,153.679 58.088,163.381 C58.064,178.774 58.017,179.111 55.413,182.525 C53.955,184.436 52.231,186 51.581,186 C49.832,186 48,183.852 48,181.8 C48,180.81 47.55,180 47,180 C45.723,180 45.69,174.71 46.959,173.441 C47.959,172.441 48.281,159.432 47.657,145.203 Z M137.25,165.674 C140.358,163.507 141.824,163.629 145.406,166.356 C147.108,167.652 149.427,169.005 150.561,169.364 C151.695,169.722 154.099,171.538 155.903,173.4 C158.712,176.298 159.023,177.088 158.064,178.881 C156.374,182.039 152.426,182.559 146.203,180.444 C136.418,177.118 131.79,169.483 137.25,165.674 Z M103.275,176.841 C109.644,174.758 111.25,174.65 112.8,176.2 C114.483,177.883 114.295,182.51 112.482,184.015 C110.411,185.733 99.269,184.697 97.161,182.59 C95.036,180.464 96.549,179.041 103.275,176.841 Z"/>
</svg>

