<svg xmlns="http://www.w3.org/2000/svg" width="300" height="300" viewBox="0 0 300 300" version="1.1">
  <defs/>
  <path d="M163,156.936 C165.475,156.568 167.95,156.21 168.5,156.139 C170.079,155.937 177.12,158.055 181.5,160.051 C183.7,161.053 187.153,162.539 189.174,163.353 C191.195,164.168 195.614,166.672 198.995,168.917 C202.375,171.163 205.648,173 206.267,173 C206.886,173 209.104,174.186 211.196,175.636 C216.106,179.039 216.295,182.24 211.75,185.011 C207.27,187.743 205.908,187.532 202,183.5 C200.134,181.575 198.198,180 197.698,180 C197.198,180 195.452,178.875 193.818,177.5 C192.184,176.125 190.276,175 189.578,175 C188.881,175 187.539,174.148 186.596,173.107 C184.584,170.883 173.539,167.31 166.735,166.682 C162.6,166.3 161.407,166.656 157.707,169.371 C155.362,171.092 152.557,172.998 151.472,173.607 C148.696,175.165 148.577,177.216 151.097,180.056 C157.958,187.788 162.421,197.745 163.319,207.323 C163.76,212.029 163.648,212.263 158.686,217.021 C153.02,222.454 146.711,224.691 140.223,223.568 C138.175,223.213 134.7,222.674 132.5,222.37 C130.3,222.066 125.686,220.508 122.247,218.909 C118.808,217.309 115.793,216 115.547,216 C113.205,216 93,198.804 93,196.811 C93,196.292 91.874,194.391 90.499,192.587 C88.864,190.444 87.941,187.857 87.834,185.119 C87.504,176.714 91.962,177.187 98.261,186.224 C100.592,189.569 103.9,194.308 105.612,196.754 C108.416,200.762 110.582,202.471 119.095,207.391 C123.513,209.945 136.196,212.766 142.645,212.63 C152.704,212.417 155.026,208.376 151.463,197.285 C149.973,192.649 147.275,187.022 146.052,186 C145.723,185.725 144.707,184.325 143.795,182.889 C142.633,181.061 140.937,180.086 138.14,179.638 C135.169,179.163 133.358,178.044 131.073,175.272 C129.383,173.222 128,170.736 128,169.747 C128,167.051 132.516,165.696 136.592,167.169 C139.705,168.295 140.261,168.152 144.45,165.144 C150.38,160.885 157.436,157.763 163,156.936 Z M112.025,49.975 C116.03,45.97 118.714,48.051 119.186,55.525 C119.453,59.754 119.826,60.546 121.675,60.81 C123.75,61.105 128.593,58.458 134,54.072 C138.385,50.516 143,51.888 143,56.748 C143,59.856 138.952,63.375 131,67.177 C121.407,71.764 121,72.269 121,79.596 C121,83.053 120.55,86.16 120,86.5 C119.45,86.84 118.995,88.554 118.988,90.309 C118.982,92.064 118.312,95.975 117.5,99 C116.688,102.025 116.018,104.612 116.012,104.75 C115.966,105.718 119.998,104.707 121,103.5 C122.819,101.309 125.151,101.657 128.318,104.594 C132.255,108.244 131.524,110.768 125.5,114.319 C114.345,120.894 100.034,128.561 97.355,129.398 C92.214,131.004 89.93,122.293 94.393,118.1 C95.709,116.864 98.278,115.098 100.102,114.176 C104.206,112.102 107.658,104.242 109.622,92.5 C111.323,82.328 111.342,78.068 109.687,77.433 C108.965,77.156 105.028,78.362 100.937,80.112 C96.847,81.861 92.15,83.644 90.5,84.073 C69.037,89.649 68,89.646 68,84 C68,80.317 69.127,79.584 78.5,77.172 C92.876,73.472 99.962,71.171 104.266,68.802 C108.285,66.591 108.513,66.22 108.761,61.486 C109.129,54.476 109.764,52.236 112.025,49.975 Z M39.604,181.155 C40.546,179.81 41.817,179.1 42.686,179.433 C43.498,179.745 44.769,180 45.509,180 C46.248,180 47.561,181.419 48.427,183.154 C50.52,187.349 50.614,206.703 48.569,212.467 C47.782,214.685 46.894,217.657 46.595,219.072 C46.296,220.486 44.122,224.536 41.763,228.072 C37.969,233.758 37.062,234.535 33.902,234.801 C28.345,235.268 27.106,233.019 29.832,227.409 C31.027,224.948 32.691,222.672 33.529,222.351 C34.367,222.029 36.255,219.231 37.726,216.133 C40.084,211.166 40.383,209.39 40.256,201.106 C40.177,195.94 39.638,191.238 39.056,190.656 C37.476,189.076 37.783,183.755 39.604,181.155 Z"/>
</svg>

