<svg xmlns="http://www.w3.org/2000/svg" width="300" height="300" viewBox="0 0 300 300" version="1.1">
  <defs/>
  <path d="M117.622,21.802 C118.589,20.237 121.683,21.034 123.93,23.426 C125.184,24.76 125.895,26.361 125.511,26.982 C124.366,28.835 123.257,39.041 124.141,39.587 C125.181,40.23 128.982,38.268 131.229,35.928 C132.584,34.518 133.606,34.313 135.947,34.985 C140.393,36.26 141,36.85 141,39.904 C141,43.366 138.597,45.55 133.851,46.4 C125.87,47.828 124.421,50.687 122.143,69.5 C120.667,81.685 119.103,87.876 116.431,92.109 C115.094,94.227 114,96.194 114,96.48 C114,97.908 117.857,96.658 122.348,93.777 C125.111,92.004 131.872,88.614 137.372,86.244 C142.873,83.874 147.851,81.54 148.436,81.057 C149.021,80.574 151.118,79.877 153.096,79.507 C155.774,79.007 157.114,79.257 158.346,80.489 C162.259,84.401 159.149,89.158 151,91.728 C145.323,93.518 132.672,98.995 131.023,100.377 C130.186,101.079 125.981,103.362 121.679,105.449 C116.995,107.721 113.502,110.097 112.971,111.372 C112.483,112.542 110.513,115.525 108.593,118 C106.672,120.475 101.522,127.45 97.148,133.5 C92.774,139.55 88.026,145.591 86.597,146.924 C85.169,148.258 84,149.76 84,150.264 C84,153.155 12.821,223.093 4.948,227.937 L0,230.982 L0,226.094 C0,221.376 0.209,221.02 6.029,215.853 C9.345,212.909 16.473,206.225 21.869,201 C27.265,195.775 35.689,187.67 40.59,182.989 C57.283,167.044 73.674,149.292 79,141.393 C79.825,140.169 82.638,136.425 85.25,133.073 C87.862,129.72 90,126.739 90,126.448 C90,126.157 90.981,124.593 92.179,122.972 C93.377,121.351 94.058,119.725 93.692,119.358 C93.325,118.992 89.982,120.063 86.263,121.739 C82.543,123.414 76.8,125.533 73.5,126.447 C70.2,127.362 66.118,128.535 64.429,129.055 C62.74,129.575 59.223,130 56.613,130 C54.004,130 50.914,130.511 49.748,131.135 C47.92,132.113 47.308,131.872 45.318,129.385 C42.564,125.943 42.491,125.22 44.655,122.829 C45.767,121.6 47.713,121 50.587,121 C56.311,121 76.91,115.624 85,112.019 C88.575,110.426 92.56,108.825 93.855,108.461 C95.937,107.875 96.116,107.434 95.401,104.649 C94.463,100.991 94.49,94.661 95.527,76.116 L96.275,62.733 L93.388,63.316 C91.799,63.637 88.03,64.362 85.012,64.927 C81.993,65.492 78.323,66.452 76.857,67.059 C75.39,67.667 73.135,68.015 71.845,67.832 C69.885,67.554 69.451,66.832 69.201,63.433 C68.941,59.885 69.235,59.214 71.498,58.183 C72.926,57.532 74.883,57 75.847,57 C76.811,57 78.056,56.544 78.613,55.987 C79.17,55.43 82.699,54.331 86.455,53.545 C90.211,52.759 93.766,51.634 94.355,51.045 C94.945,50.455 95.484,47.392 95.553,44.237 C95.72,36.607 97.6,30.285 100.098,28.948 C103.718,27.01 104.998,29.334 105.015,37.872 C105.036,48.049 105.803,49.15 110.42,45.629 C113.784,43.063 114.001,42.554 114.015,37.199 C114.027,32.371 115.82,24.718 117.622,21.802 Z M103.101,161.917 C104.977,160.729 105.212,160.76 107.748,162.536 C108.953,163.38 110.666,165.743 111.554,167.786 C112.442,169.829 113.58,172.281 114.084,173.236 C114.588,174.191 115.011,176.891 115.024,179.236 C115.038,181.581 115.52,185.525 116.096,188 C118.189,196.998 118.739,219.217 117.037,226 C116.554,227.925 115.852,232.333 115.476,235.795 C114.733,242.643 113.275,244.395 107.326,245.585 C104.98,246.054 103.285,245.555 100.129,243.466 C97.858,241.964 96,240.296 96,239.761 C96,239.226 94.902,237.484 93.561,235.89 C92.202,234.275 90.822,230.994 90.445,228.483 C90.073,226.004 89.371,223.729 88.885,223.429 C88.398,223.128 88,221.816 88,220.512 C88,219.209 87.327,217.47 86.504,216.647 C85.681,215.824 84.567,213.992 84.029,212.575 C82.711,209.108 80.133,209.32 78.85,213 C78.275,214.65 77.433,216 76.98,216 C76.526,216 75.647,217.538 75.027,219.418 C74.407,221.298 72.909,223.515 71.699,224.345 C70.49,225.174 67.25,227.957 64.5,230.528 C57.11,237.438 49.557,243 47.563,243 C46.598,243 44.491,243.778 42.88,244.73 C38.885,247.09 36.596,245.576 36.2,240.312 C35.832,235.41 38.037,232.918 41.068,234.81 C42.116,235.465 43.4,236 43.923,236 C47.418,236 69.658,211.479 74.505,202.279 C76.778,197.965 78.781,196.078 81.135,196.032 C83.088,195.994 86,200.123 86,202.93 C86,206.447 89.059,214.099 94.194,223.428 C99.901,233.794 101.994,236.323 104.174,235.487 C105.608,234.936 107.736,229.425 107.837,226 C108.495,203.622 107.912,192.965 105.513,183.5 C102.059,169.874 101.297,163.058 103.101,161.917 Z M126,137.821 C131.911,136.675 141.601,137.756 146.13,140.066 C148.447,141.248 152.628,143.017 155.421,143.997 C158.215,144.977 164.325,147.213 169,148.967 C173.675,150.72 180.2,152.816 183.5,153.624 C187.678,154.647 190.171,155.914 191.714,157.797 C194.602,161.323 194.564,161.572 190.846,163.427 C186.968,165.362 183.736,165.423 180.2,163.63 C178.715,162.877 174.575,161.257 171,160.031 C159.072,155.941 146.545,150.869 142.322,148.422 C139.66,146.879 136.576,145.999 133.822,145.998 C124.554,145.995 118.185,139.337 126,137.821 Z M175.738,191.087 C178.013,189.762 178.266,189.768 183.152,191.25 C186.35,192.22 189.303,194.69 196.34,202.282 C201.327,207.662 205.964,213.388 206.645,215.007 C207.325,216.625 208.656,219.579 209.601,221.571 C212.107,226.852 210.659,230.5 206.057,230.5 C203.343,230.5 202.31,229.899 200.904,227.5 C199.937,225.85 199.113,223.65 199.073,222.612 C199.033,221.573 197.313,218.798 195.25,216.443 C193.188,214.089 190.15,210.24 188.5,207.89 C186.85,205.54 182.907,201.028 179.738,197.864 C174.637,192.771 174.179,191.995 175.738,191.087 Z M145.011,194.487 C147.038,192.045 153.805,192.614 157.656,195.551 C159.495,196.954 161,198.684 161,199.396 C161,200.108 161.878,201.484 162.951,202.455 C165.431,204.7 172.207,218.697 171.804,220.743 C171.637,221.591 170.713,222.782 169.75,223.388 C167.428,224.85 165.135,223.373 162.516,218.727 C158.913,212.338 149.05,200.246 147.004,199.711 C144.439,199.041 143.429,196.393 145.011,194.487 Z M109.573,57.323 C106.513,59.561 105.031,65.856 105.015,76.691 C105.007,82.389 104.559,87.154 104,87.5 C102.325,88.535 102.787,94 104.549,94 C106.153,94 109.939,86.841 109.978,83.736 C109.99,82.766 110.42,81.191 110.934,80.236 C113.901,74.718 115.258,56 112.691,56 C111.971,56 110.568,56.595 109.573,57.323 Z"/>
</svg>

