<svg xmlns="http://www.w3.org/2000/svg" width="300" height="300" viewBox="0 0 300 300" version="1.1">
  <defs/>
  <path d="M108.502,20.25 C111.471,16.669 115.82,15.874 118.009,18.511 C119.854,20.733 116.957,27.531 112.049,32.5 C109.876,34.7 108.076,37.007 108.049,37.628 C108.022,38.248 107.299,39.337 106.441,40.049 C103.467,42.518 96,53.032 95.993,54.761 C95.99,55.718 95.093,57.85 94,59.5 C91.128,63.837 91.387,66 94.777,66 C99.003,66 102.289,63.287 101.563,60.396 C100.838,57.508 103.308,51.203 105.492,50.365 C107.477,49.603 111,52.687 111,55.186 C111,58.156 113.617,58.388 117.201,55.736 C119.015,54.394 121.261,53.028 122.192,52.702 C123.122,52.375 124.666,50.846 125.622,49.304 C126.578,47.762 128.04,45.938 128.871,45.25 C130.909,43.565 135.479,43.667 136.942,45.431 C138.763,47.624 138.583,53.094 136.656,54.173 C135.745,54.682 134.264,56.54 133.364,58.3 C131.315,62.307 126.874,67.806 120.817,73.837 C117.584,77.057 116.067,79.428 115.917,81.5 C115.373,88.971 116.832,89.749 122.809,85.174 C133.575,76.932 141.304,72 143.453,72 C145.016,72 146.653,73.109 148.109,75.153 L150.354,78.306 L147.427,80.708 C145.817,82.029 142.751,84.098 140.614,85.305 C134.542,88.736 133.892,89.168 126.225,94.886 C118.395,100.726 116.356,104.529 117.632,110.912 C117.982,112.662 118.321,121.385 118.384,130.297 L118.5,146.5 L121.5,146.161 C130.162,145.183 140.808,145.694 145.324,147.306 C147.977,148.252 150.552,148.777 151.046,148.472 C151.54,148.167 152.969,148.578 154.222,149.385 C155.475,150.193 160.229,151.171 164.786,151.559 C173.609,152.31 176,153.804 176,158.568 C176,162.455 172.751,164.255 166.815,163.656 C158.765,162.843 153.716,161.97 151.5,161.008 C144.156,157.819 123.508,154.476 119.82,155.878 C117.693,156.687 117.106,157.845 116.125,163.17 C113.403,177.93 112.078,180.434 106.388,181.572 C103.619,182.126 103.01,181.646 97.844,174.834 C92.264,167.478 89,160.091 89,154.822 C89,153.1 88.466,152 87.631,152 C86.878,152 82.648,155.713 78.23,160.25 C60.407,178.557 56.602,181.067 52.679,177.097 C50.516,174.91 50.515,174.885 52.5,173.761 C56.4,171.553 64.988,162.691 68.131,157.632 C79.405,139.478 82.386,136 86.666,136 C90.192,136 91.991,139.647 92.076,146.973 C92.172,155.224 94.756,161.8 100.687,168.887 C102.74,171.34 102.979,171.397 104.586,169.815 C105.932,168.491 106.334,166.128 106.465,158.768 C106.556,153.619 107.005,148.801 107.462,148.061 C108.403,146.539 108.937,122.242 108.205,114.25 C107.607,107.717 106.184,107.489 99.381,112.837 C91.425,119.091 81.637,123.7 67.213,127.985 C55.754,131.389 52.793,131.661 50.98,129.476 C49.037,127.134 50.741,124.597 58.186,118.751 C73.034,107.092 79.752,101.21 91.109,89.932 C102.173,78.946 104.717,75.179 102.148,73.591 C101.679,73.302 99.559,73.95 97.436,75.032 C92.523,77.538 85.877,77.626 83.695,75.215 C80.243,71.402 82.571,59.634 89.178,47.5 C91.435,43.353 103.783,25.941 108.502,20.25 Z M156,207.51 C161.773,205.215 163.562,204.972 172,205.336 C181.224,205.735 181.87,205.925 194.25,211.874 C201.263,215.243 208.11,218 209.467,218 C212.074,218 219,224.063 219,226.346 C219,227.05 217.661,228.908 216.025,230.476 L213.05,233.326 L208.775,231.476 C206.424,230.458 203.79,229.034 202.921,228.312 C202.053,227.591 200.885,227 200.326,227 C199.767,227 198.495,226.1 197.5,225 C196.505,223.9 194.972,222.993 194.095,222.985 C193.218,222.977 191.375,222.336 190,221.561 C182.263,217.197 178.043,215.749 172.222,215.459 C168.768,215.287 164.691,214.871 163.161,214.535 C161.103,214.083 159.898,214.455 158.534,215.962 C157.52,217.083 156.275,218 155.767,218 C153.72,218 139.819,225.307 139.302,226.655 C138.997,227.451 139.66,229.091 140.776,230.301 C143.605,233.367 147,239.699 147,241.908 C147,242.924 147.675,244.315 148.5,245 C149.325,245.685 150,247.288 150,248.563 C150,249.839 150.45,251.16 151,251.5 C152.84,252.637 152.059,257.596 149.687,259.824 C143.655,265.491 120.755,267.669 112.5,263.361 C106.397,260.175 101.096,258 99.435,258 C98.611,258 97.674,257.314 97.353,256.476 C97.031,255.638 94.271,253.295 91.219,251.269 C88.167,249.244 84.956,246.273 84.085,244.667 C83.213,243.062 81.537,240.561 80.359,239.11 C78.926,237.343 78.14,234.823 77.98,231.486 C77.649,224.556 77.734,224.213 80.102,222.946 C81.873,221.997 82.641,222.24 84.99,224.49 C86.523,225.959 88.545,229.604 89.485,232.591 C90.424,235.578 91.945,238.579 92.864,239.261 C93.783,239.942 95.325,241.738 96.29,243.25 C97.256,244.762 98.517,246 99.093,246 C99.669,246 102.021,247.279 104.32,248.842 C106.619,250.406 109.4,251.941 110.5,252.255 C111.6,252.569 115.031,253.749 118.124,254.877 C123.031,256.667 124.561,256.798 130.112,255.905 C137.803,254.666 140.003,252.926 139.991,248.095 C139.982,244.795 138.949,242.618 131.939,231.132 C130.834,229.321 128.593,228.048 124.273,226.776 C119.192,225.279 117.483,224.16 114.084,220.1 C111.248,216.713 110,214.283 110,212.146 C110,206.735 115.112,206.11 119.498,210.984 C125.265,217.395 133.924,217.572 146.5,211.534 C148.15,210.742 152.425,208.931 156,207.51 Z M43.893,217.288 C47.113,214.835 50.674,216.747 51.546,221.396 C52.469,226.314 49.275,240.483 45.91,246.405 C44.317,249.207 42.555,252.558 41.993,253.851 C40.732,256.756 34.764,265.794 32.314,268.51 C31.316,269.616 28.782,272.654 26.683,275.26 C22.593,280.339 19.947,281.167 16.829,278.345 C13.529,275.359 14.564,272.176 20.883,265.877 C24.119,262.651 27.517,258.547 28.434,256.756 C29.351,254.965 31.393,251.475 32.972,249 C34.551,246.525 35.878,243.543 35.921,242.372 C35.965,241.202 36.675,239.685 37.5,239 C38.325,238.315 39,236.712 39,235.437 C39,234.161 39.415,232.862 39.922,232.548 C40.428,232.235 41.168,228.949 41.564,225.245 C42.028,220.912 42.858,218.075 43.893,217.288 Z M99.18,94.01 C97.353,96.149 93.468,99.486 90.546,101.426 C85.504,104.773 83.243,107.577 84.541,108.874 C84.864,109.198 86.563,108.616 88.315,107.58 C90.067,106.545 92.625,105.105 94,104.38 C95.375,103.655 98.75,101.579 101.5,99.767 C105.648,97.033 106.5,95.963 106.5,93.486 C106.5,88.993 103.265,89.225 99.18,94.01 Z M113.693,62.76 C111.744,63.201 111.737,66.08 113.682,66.728 C114.993,67.164 117.45,63.349 116.253,62.737 C115.839,62.525 114.687,62.536 113.693,62.76 Z"/>
</svg>

