<svg xmlns="http://www.w3.org/2000/svg" width="300" height="300" viewBox="0 0 300 300" version="1.1">
  <defs/>
  <path d="M151.258,52.25 C152.914,50.153 155.998,50.844 159.18,54.026 C162.333,57.179 162.466,58.531 160.505,67.5 C159.305,72.99 155.897,80.006 152.332,84.327 C151.05,85.881 150,87.715 150,88.402 C150,89.089 148.875,90.708 147.5,92 C146.125,93.292 145,95.144 145,96.115 C145,97.087 144.55,98.16 144,98.5 C142.18,99.625 142.961,102.035 145.452,102.982 C148.992,104.328 150.671,108.398 151.472,117.571 C152.028,123.939 151.837,126.455 150.565,129.498 C149.467,132.126 149.28,133.68 149.977,134.377 C151.85,136.25 151.042,139.822 148.25,142.01 C145.04,144.527 136.063,155.088 136.025,156.392 C136.011,156.883 133.975,159.655 131.5,162.552 C129.025,165.449 127,168.237 127,168.749 C127,169.26 125.425,171.112 123.5,172.864 C121.575,174.615 120,176.388 120,176.804 C120,177.219 117.525,180.094 114.5,183.192 C108.59,189.245 107.779,191.478 111.107,192.534 C112.266,192.902 113.953,193.801 114.857,194.532 C115.761,195.263 117.99,197.081 119.812,198.572 C122.832,201.043 126.411,207.477 131.591,219.75 C134.254,226.06 136.668,225.561 143.49,217.291 C149.541,209.954 153.5,202.744 152.667,200.574 C152.374,199.812 150.786,198.892 149.137,198.53 C145.532,197.738 144.476,196.53 143.67,192.27 C143.187,189.724 143.462,188.823 144.963,188.02 C147.708,186.551 152.308,186.766 154.559,188.468 C157.864,190.968 158.845,190.238 162.405,182.635 C165.886,175.2 167.164,174 171.607,174 C176.461,174 176.66,179.591 172.138,188.951 C169.308,194.808 169.36,197 172.329,197 C175.185,197 183.063,202.098 186.478,206.157 C189.612,209.881 189.875,215.713 187.063,219.139 C184.522,222.235 182.057,220.843 180.547,215.461 C179.765,212.673 178.594,211.143 176.475,210.137 C174.839,209.361 172.226,208.113 170.669,207.363 C166.052,205.14 164.304,205.697 161.048,210.43 C159.372,212.867 158,215.263 158,215.756 C158,216.248 156.875,217.708 155.5,219 C154.125,220.292 153,221.857 153,222.478 C153,223.851 147.334,229.332 144.316,230.88 C143.114,231.496 140.778,232 139.125,232 C137.471,232 135.833,232.46 135.486,233.023 C135.138,233.586 135.432,237.176 136.14,241.001 L137.426,247.956 L141.463,247.393 C143.683,247.083 147.3,246.151 149.5,245.321 C151.7,244.491 156.185,243.379 159.466,242.849 C162.747,242.32 165.897,241.517 166.466,241.064 C168.715,239.275 179.477,236.867 182.601,237.453 C186.307,238.148 186.729,238.877 186.176,243.618 C185.858,246.345 185.257,247.124 183.14,247.558 C177.998,248.611 172.443,250.191 168,251.864 C161.465,254.325 161.606,256.431 168.806,263.881 C173.56,268.799 175.331,270 177.837,270 C180.146,270 181.407,269.288 182.704,267.25 C183.666,265.738 184.758,264.275 185.13,264 C186.501,262.987 197.796,238.322 199.327,233 C200.197,229.975 201.662,221.875 202.582,215 C203.503,208.125 204.709,199.35 205.264,195.5 C207.73,178.383 205.981,167.23 199.918,161.421 C196.205,157.864 187.054,156.829 181.929,159.386 C180.149,160.274 178.059,161 177.284,161 C175.054,161 165.055,165.959 158.5,170.317 C148.683,176.844 139.625,184.591 134.921,190.486 C129.969,196.692 127.542,197.97 125.184,195.613 C123.841,194.27 123.78,193.497 124.796,190.689 C125.458,188.857 126,186.576 126,185.619 C126,183.226 135.349,173.53 141.9,169.128 C150.539,163.323 159.223,158.078 163,156.383 C164.925,155.52 169.406,153.437 172.958,151.756 C178.265,149.244 181.055,148.614 188.62,148.218 C196.695,147.796 198.39,148.01 202.432,149.967 C210.029,153.645 214.821,162.556 216.713,176.526 C217.162,179.84 217.208,183.665 216.814,185.026 C216.421,186.387 215.657,191.325 215.118,196 C214.578,200.675 213.665,206.75 213.089,209.5 C212.513,212.25 211.549,218.55 210.948,223.5 C210.348,228.45 209.438,232.927 208.928,233.45 C208.418,233.972 208,235.518 208,236.884 C208,238.251 207.136,241.198 206.081,243.434 C205.025,245.67 203.454,249.639 202.591,252.254 C200.059,259.92 194.359,270.487 190.878,273.968 C189.103,275.743 185.86,278.326 183.672,279.707 C179.942,282.062 179.44,282.135 175.639,280.881 C169.68,278.914 160.05,269.449 156.468,262.038 C153.537,255.973 153.457,255.904 150,256.474 C148.075,256.792 143.487,257.988 139.805,259.133 L133.111,261.215 L130.055,259.039 C128.375,257.843 126.955,256.557 126.9,256.182 C126.845,255.807 126.732,250.235 126.65,243.8 C126.549,235.952 126.088,231.688 125.25,230.85 C124.563,230.162 124,228.581 124,227.335 C124,225.17 121.301,219.674 116.411,211.88 C113.995,208.031 107.291,202 105.427,202 C104.813,202 103.495,201.1 102.5,200 C101.505,198.9 99.783,198 98.674,198 C93.071,198 90.973,190.44 95.704,187.297 C103.364,182.206 119.963,163.377 127.926,150.747 C130.267,147.033 135.112,141.35 138.692,138.119 C144.455,132.918 145.075,132.009 144.101,130.188 C143.495,129.057 143,125.42 143,122.106 C143,116.823 142.662,115.768 140.26,113.54 C138.753,112.143 136.971,111 136.299,111 C135.627,111 134.139,109.992 132.992,108.761 C131.292,106.936 131.029,105.778 131.571,102.511 C132.263,98.34 134.314,93.58 136.53,91 C137.238,90.175 140.361,84.55 143.469,78.5 C148.256,69.181 149.208,66.43 149.696,60.5 C150.012,56.65 150.716,52.938 151.258,52.25 Z M59.522,59.977 C62.552,56.815 65.119,56.201 66.751,58.25 C67.758,59.512 68.779,65.158 69.563,73.794 C69.798,76.382 70.461,80.8 71.037,83.611 C71.699,86.84 71.926,101.132 71.654,122.435 C71.284,151.486 71.428,156.227 72.698,156.714 C73.509,157.026 76.851,156.535 80.124,155.625 C86.214,153.932 88.314,154.264 90.849,157.319 C93.582,160.611 89.763,163.53 77.5,167.523 L70.5,169.803 L69.291,178.151 C68.626,182.743 67.404,193.25 66.576,201.5 C65.748,209.75 64.571,218.75 63.96,221.5 C63.349,224.25 62.605,228.075 62.306,230 C62.007,231.925 61.398,233.958 60.953,234.517 C60.507,235.076 59.821,239.497 59.427,244.342 C58.244,258.932 55.351,264.424 50.939,260.458 C48.959,258.678 48.812,257.819 49.315,251 C49.62,246.875 50.736,240.125 51.795,236 C52.855,231.875 54.491,223.1 55.432,216.5 C56.372,209.9 57.57,202.24 58.094,199.477 C59.556,191.775 61.915,142.168 62.009,117.162 C62.098,93.5 60.92,78.203 58.279,68.727 L56.67,62.954 Z M127.088,49.394 C128.82,47.307 131.077,47.699 134.12,50.615 C136.885,53.264 136.957,55.018 134.42,58 C133.719,58.825 132.39,61.75 131.468,64.5 C130.546,67.25 129.233,70.175 128.551,71 C127.869,71.825 126.594,74.351 125.718,76.613 C124.842,78.875 122.954,82.452 121.522,84.563 C117.399,90.639 108.819,109.085 109.405,110.613 C109.698,111.376 110.641,112 111.502,112 C114.321,112 122.85,116.92 124.695,119.611 C125.688,121.059 127.588,123.409 128.917,124.834 C130.525,126.558 131.484,128.982 131.781,132.076 C132.167,136.091 131.909,136.95 129.892,138.363 C125.542,141.41 121,139.908 121,135.422 C121,134.224 120.319,131.614 119.487,129.622 C118.373,126.957 117.369,126 115.687,126 C114.429,126 112.973,125.575 112.45,125.056 C111.928,124.537 108.575,123.073 105,121.803 L98.5,119.494 L98.203,114.399 C97.893,109.088 98.713,107.104 108.073,90.5 C112.171,83.232 117.89,70.611 118.948,66.5 C119.827,63.089 125.343,51.497 127.088,49.394 Z M182.823,55.75 C186.386,51.557 191.248,55.536 190.284,61.858 C189.979,63.861 189.115,66.21 188.365,67.079 C187.614,67.947 187,69.265 187,70.008 C187,71.883 185.019,77.97 183.373,81.154 C181.659,84.467 181.596,89.434 183.25,90.747 C183.938,91.293 186.159,92.038 188.188,92.403 C192.873,93.247 201,101.799 201,105.885 C201,109.525 195.717,115.241 192.744,114.819 C190.957,114.565 190.558,113.944 190.785,111.768 C190.942,110.265 190.4,107.74 189.581,106.156 C187.97,103.041 184.641,102.032 175.905,102.011 C169.427,101.995 167.518,99.714 168.32,92.947 C168.651,90.15 169.615,86.474 170.461,84.778 C171.307,83.081 172,81.15 172,80.487 C172,79.824 173.344,76.631 174.987,73.391 C176.63,70.151 177.98,66.893 177.987,66.151 C178.004,64.326 180.987,57.909 182.823,55.75 Z M31.225,125.75 C32.054,123.713 35.859,123.445 38.327,125.25 C39.666,126.229 40.183,128.781 40.709,137 C41.431,148.308 41.424,148.955 40.437,159.5 C39.68,167.593 36.352,173.342 32.734,172.807 C29.221,172.288 28.437,167.652 30.477,159.462 C31.823,154.057 32.077,150.648 31.526,145.413 C30.508,135.742 30.387,127.811 31.225,125.75 Z"/>
</svg>

