<svg xmlns="http://www.w3.org/2000/svg" width="300" height="300" viewBox="0 0 300 300" version="1.1">
  <defs/>
  <path d="M150.571,42.571 C151.436,41.707 152.979,41 154,41 C156.364,41 159,43.607 159,45.946 C159,46.937 158.325,49.662 157.5,52 C154.696,59.946 156.488,64.083 161.382,60.968 C162.547,60.227 166.65,57.878 170.5,55.749 C174.35,53.62 178.429,51.005 179.564,49.939 C182.357,47.316 185.182,47.501 187.991,50.49 C189.987,52.615 190.165,53.342 189.205,55.449 C188.586,56.807 186.374,58.85 184.29,59.989 C182.205,61.128 178.475,63.223 176,64.644 C173.525,66.066 168.073,68.95 163.884,71.053 C156.619,74.702 156.127,75.17 153.207,81.225 C151.523,84.716 149.853,88.906 149.495,90.536 C149.137,92.166 148.45,94.4 147.967,95.5 C147.485,96.6 145.732,101.775 144.072,107 C139.827,120.362 136.927,129.165 136,131.5 C135.564,132.6 134.233,135.896 133.043,138.825 C131.347,142.999 131.135,144.458 132.062,145.575 C132.713,146.359 133.811,147 134.504,147 C136.128,147 140.383,152.588 142.358,157.314 C143.205,159.341 144.378,161 144.966,161 C145.553,161 147.955,159.087 150.303,156.75 C152.651,154.412 156.302,151.048 158.417,149.273 L162.262,146.046 L161.496,136.773 C160.48,124.475 160.309,123.182 159.09,118.5 C156.831,109.829 158.521,102.968 162.905,103.018 C163.782,103.028 165.89,104.715 167.589,106.768 C170.175,109.893 170.803,111.72 171.449,118 C172.811,131.226 173.192,135.73 174.778,136.205 C175.662,136.469 176.92,135.483 178.93,134.057 C184.524,130.088 199.955,123 203,123 C209.868,123 215.161,127.788 217.011,135.673 C217.992,139.858 216.32,148.742 213.916,152.118 C212.862,153.598 212,155.207 212,155.693 C212,158.138 207.57,164.653 201.95,170.474 C194.848,177.829 187.094,181.615 181.343,180.537 C178.153,179.938 178.128,179.965 177.506,184.717 C177.162,187.348 176.548,191.975 176.141,195 C175.735,198.025 175.509,203.412 175.64,206.972 C175.77,210.531 175.399,214.019 174.816,214.722 C174.08,215.609 174.074,216.384 174.796,217.254 C175.408,217.992 175.674,221.877 175.44,226.685 C174.432,247.395 173.974,258.64 173.549,273.05 C173.297,281.603 172.824,289.296 172.497,290.147 C171.98,291.495 171.508,294.427 171.114,298.75 C171.041,299.554 169.345,300 166.365,300 L161.729,300 L162.416,284.447 C162.794,275.892 163.291,268.355 163.519,267.697 C163.957,266.434 165.33,221.736 165.246,211.5 C165.218,208.2 165.138,195.629 165.067,183.565 C164.944,162.784 164.468,159 161.976,159 C161.548,159 160.272,160.463 159.141,162.25 C158.01,164.037 155.853,167.002 154.347,168.837 C151.81,171.929 151.624,172.772 151.81,180.337 C152.057,190.449 150.78,192.8 145.814,191.375 C142.357,190.384 141.727,188.988 140.106,178.726 C139.692,176.101 138.823,173.423 138.176,172.776 C137.529,172.129 137,170.581 137,169.335 C137,168.089 135.666,165.55 134.035,163.693 C132.405,161.836 130.616,159.12 130.06,157.658 C129.504,156.196 128.45,155 127.717,155 C126.351,155 123,161.5 123,164.149 C123,164.961 121.875,167.958 120.5,170.808 C119.125,173.658 117.967,176.78 117.927,177.745 C117.887,178.71 116.992,180.85 115.938,182.5 C114.884,184.15 113.759,186.175 113.438,187 C113.117,187.825 112.188,190.028 111.373,191.896 C110.559,193.764 108.73,198.714 107.308,202.896 C105.887,207.078 104.111,211.21 103.362,212.079 C102.613,212.947 102,214.115 102,214.675 C102,216.057 99.118,221.875 96.734,225.306 C94.272,228.849 90.538,228.629 88.23,224.805 C86.936,222.66 86.835,221.639 87.739,219.805 C88.363,218.537 89.188,216.392 89.572,215.039 C89.955,213.685 91.558,211.288 93.134,209.712 C94.711,208.136 96,206.325 96,205.687 C96,205.05 97.099,202.272 98.442,199.514 C99.785,196.756 102.519,190.225 104.518,185 C106.517,179.775 108.736,174.375 109.449,173 C110.162,171.625 112.191,166.45 113.957,161.5 C115.723,156.55 117.805,151.082 118.584,149.349 C119.363,147.616 120,145.719 120,145.134 C120,144.549 121.064,142.142 122.364,139.785 C123.664,137.428 125.289,133.025 125.976,130 C126.663,126.975 127.849,123.503 128.613,122.285 C129.376,121.067 130,119.457 130,118.708 C130,117.263 134.368,105.695 136.021,102.764 C136.56,101.809 137,99.953 137,98.639 C137,97.326 137.675,94.338 138.5,92 C139.325,89.662 140,86.672 140,85.355 C140,83.256 139.662,83.04 137.25,83.6 C135.738,83.951 133.503,84.859 132.285,85.619 C131.067,86.379 129.568,87 128.955,87 C128.341,87 125.342,88.657 122.291,90.683 C117.031,94.174 116.606,94.288 114.121,92.875 C111.97,91.651 111.551,90.767 111.787,87.942 C112.212,82.836 116.999,79.427 131.219,74.1 L143.5,69.5 L145.227,64.5 C146.414,61.065 146.777,57.918 146.387,54.448 C145.948,50.546 146.181,49.094 147.409,48.075 C148.284,47.349 149,46.167 149,45.449 C149,44.731 149.707,43.436 150.571,42.571 Z M63.872,99.654 C67.271,95.558 72.481,99.005 73.854,106.258 C77.081,123.31 78.107,130.505 78.521,139 C79.812,165.454 80.063,172.762 82.472,173.561 C83.483,173.896 84.875,173.084 86.884,172.059 C91.491,169.709 98.214,169.348 99.885,171.361 C100.734,172.384 100.637,173.625 99.494,176.361 L97.973,180 L90.546,180 C86.028,180 82.84,180.45 82.407,181.15 C81.582,182.486 80.738,188.384 80.856,192 C81.194,202.405 80.694,209.796 79.451,212.772 C78.653,214.682 78,217.099 78,218.144 C78,219.222 76.868,220.558 75.383,221.235 C73.069,222.289 72.544,222.155 70.863,220.079 C69.415,218.291 69.116,216.865 69.61,214.115 C69.968,212.127 70.591,210.05 70.995,209.5 C72.428,207.55 72.921,192.333 71.935,180.5 C71.385,173.9 70.54,162.425 70.056,155 C68.585,132.431 66.341,117.792 63.835,114.416 C62.369,112.441 62.397,101.432 63.872,99.654 Z M199,134.935 C195.308,136.062 187.938,139.955 184.406,142.644 C182.704,143.94 180.87,145 180.33,145 C179.79,145 178.266,146.153 176.942,147.561 C174.951,149.681 174.503,151.277 174.347,156.811 C174.104,165.375 174.521,166.701 178.021,168.511 C181.823,170.477 185.318,170.392 188.778,168.25 C192.165,166.153 199,158.717 199,157.129 C199,156.508 199.348,156 199.773,156 C200.835,156 203.351,150.636 205.514,143.756 C207.258,138.212 207.258,137.942 205.505,136.006 C203.563,133.859 202.888,133.748 199,134.935 Z M42.949,139.561 C44.673,137.485 48.264,137.584 50.979,139.782 C52.864,141.308 53.29,142.996 53.947,151.532 C54.753,162.006 54.054,176.585 52.639,178.812 C51.429,180.716 47.057,182.153 44.725,181.413 C42.831,180.812 42.751,180.208 43.357,171.137 C43.727,165.606 43.501,157.158 42.828,151.311 C41.881,143.091 41.904,140.82 42.949,139.561 Z"/>
</svg>

