<svg xmlns="http://www.w3.org/2000/svg" width="300" height="300" viewBox="0 0 300 300" version="1.1">
  <defs/>
  <path d="M93.453,14.41 C96.098,12.477 101.626,12.582 102.393,14.582 C103.935,18.6 102.956,28.85 100.5,34.404 C99.125,37.513 97.992,41.057 97.982,42.279 C97.972,43.5 96.613,46.95 94.963,49.945 C92.306,54.766 92.132,55.561 93.45,56.878 C94.767,58.196 95.142,58.19 96.719,56.833 C97.698,55.989 100.835,54.556 103.688,53.649 C117.434,49.279 123.593,53.956 120.955,66.761 C119.567,73.493 117.682,77.524 115.537,78.347 C114.681,78.676 114,80.13 114,81.631 C114,84.937 109.05,92.969 103.295,99 C100.933,101.475 99.001,103.838 99.001,104.25 C99,105.529 102.952,105.076 106.13,103.433 C111.479,100.667 121.127,98 125.786,98 C129.096,98 131.209,98.685 133.656,100.551 C136.954,103.066 137,103.212 137,111.051 C137,117.293 137.308,119 138.436,119 C139.226,119 143.222,117.71 147.316,116.134 C151.409,114.558 156.485,112.944 158.595,112.548 C160.705,112.152 163.662,111.192 165.166,110.414 C169.027,108.418 172.004,108.655 174.686,111.174 C177.2,113.536 177.796,117 175.688,117 C174.966,117 173.384,118.343 172.17,119.983 C168.834,124.496 164.474,126.439 160.955,124.981 C157.049,123.363 151.929,124.471 143.115,128.84 C138.419,131.167 135.294,133.411 134.534,135 C133.877,136.375 132.588,138.999 131.669,140.831 C130.751,142.663 130,145.04 130,146.112 C130,147.185 129.346,148.314 128.546,148.621 C127.746,148.928 126.176,150.732 125.056,152.63 C123.935,154.529 121.598,156.851 119.862,157.791 C118.125,158.731 115.245,160.741 113.461,162.258 C111.677,163.775 108.031,165.974 105.359,167.145 C102.686,168.315 99.375,170.05 98,171.001 C86.884,178.683 73.807,182.882 71.112,179.635 C69.584,177.794 70.768,173.086 73.06,171.892 C73.852,171.479 78.55,168.972 83.5,166.321 C88.45,163.669 93.503,161.204 94.729,160.842 C98.67,159.679 106.286,154.62 110.705,150.231 C114.019,146.939 115.523,146.093 117.281,146.534 C119.178,147.011 119.764,146.541 120.78,143.732 C123.271,136.844 122.702,136.692 112.432,141.5 C108.32,143.425 104.484,145 103.906,145 C103.329,145 100.976,146.075 98.678,147.388 C96.38,148.702 92.7,150.092 90.5,150.478 C88.3,150.863 86.05,151.547 85.5,151.998 C84.292,152.986 76.271,155.887 61.5,160.678 C55.45,162.64 49.823,164.835 48.995,165.556 C48.168,166.276 45.146,167.177 42.28,167.557 C37.344,168.212 37.008,168.112 35.888,165.654 C34.948,163.59 34.984,162.724 36.067,161.419 C37.574,159.604 51.096,153 53.307,153 C54.077,153 57.81,151.845 61.603,150.434 C65.396,149.022 72.1,146.751 76.5,145.387 C80.9,144.023 86.075,142.199 88,141.334 C89.925,140.47 95.55,138.281 100.5,136.471 C105.45,134.66 113.183,131.351 117.685,129.117 C125.707,125.135 125.882,124.969 126.51,120.777 C126.863,118.425 127.005,114.7 126.826,112.5 C126.517,108.704 126.317,108.485 122.914,108.199 C120.595,108.005 118.874,108.446 118.042,109.449 C117.334,110.302 116.01,111 115.1,111 C114.19,111 112.557,111.618 111.473,112.372 C110.388,113.127 107.925,114.082 106,114.495 C104.075,114.907 100.572,116.315 98.215,117.622 C95.858,118.93 93.339,120 92.618,120 C90.927,120 85.213,122.846 84.461,124.063 C84.142,124.578 83.151,125 82.257,125 C81.363,125 78.655,125.957 76.24,127.126 C70.369,129.968 67,128.693 67,123.632 C67,120.539 67.444,120.014 71.75,118.008 C74.362,116.791 77.175,115.247 78,114.576 C78.825,113.905 81.525,112.774 84,112.064 C92.049,109.753 93.148,108.949 92.47,105.863 C91.871,103.136 93.018,100.618 104.708,79 C107.698,73.471 109.658,65.525 108.246,64.652 C106.528,63.59 101.864,65.424 98.107,68.641 C95.903,70.527 92.39,72.661 90.3,73.384 C87.97,74.191 86.374,75.434 86.175,76.599 C85.658,79.625 77.747,95.418 76.307,96.3 C75.588,96.74 75,97.604 75,98.221 C75,98.838 74.252,100.169 73.339,101.178 C72.425,102.188 71.188,103.951 70.589,105.097 C68.881,108.366 64.337,110.701 62.239,109.387 C59.092,107.417 59.497,103.191 63.176,99.611 C66.596,96.283 73.244,83.717 76.727,74 C79.926,65.074 81.04,61.784 82.656,56.5 C83.497,53.75 84.593,50.719 85.092,49.764 C85.592,48.809 86,47.382 86,46.595 C86,45.807 86.641,43.888 87.425,42.331 C89.925,37.362 91.102,31.712 91.316,23.66 C91.487,17.221 91.869,15.569 93.453,14.41 Z M183.5,190.158 C192.211,189.339 207.925,189.903 210.206,191.116 C211.145,191.615 212.372,193.688 212.934,195.721 C213.83,198.968 213.683,199.708 211.73,201.787 C209.309,204.365 208.565,204.355 198.701,201.612 C191.495,199.609 179.413,199.549 176,201.5 C174.625,202.286 172.067,202.945 170.316,202.965 C167.433,202.997 149.321,205.863 141.25,207.565 C137.704,208.312 136.907,210.518 139.846,211.451 C141.778,212.064 150,222.477 150,224.31 C150,224.892 150.957,227.345 152.126,229.76 C153.87,233.362 154.049,234.597 153.124,236.628 C151.633,239.9 146.214,242.064 136.859,243.123 C129.872,243.914 128.356,243.732 119.141,240.994 C113.598,239.347 108.487,237.997 107.782,237.992 C106.603,237.985 100.429,234.923 90.14,229.243 C87.053,227.539 85.411,225.631 83.435,221.455 C80.578,215.416 81.14,213 85.4,213 C88.101,213 90.026,214.352 97.34,221.385 C100.552,224.473 103.887,227 104.752,227 C106.69,227 115.793,229.571 122.5,232.012 C126.438,233.445 128.987,233.69 134.5,233.166 C141.479,232.502 141.501,232.491 141.809,229.308 C142.068,226.63 141.342,225.341 137.299,221.308 C132.435,216.455 126.288,211.34 123.107,209.5 C115.677,205.202 111.91,199.41 115.216,197.367 C115.885,196.953 121.622,196.565 127.966,196.504 C139.059,196.397 159.501,194.218 171,191.917 C174.025,191.311 179.65,190.52 183.5,190.158 Z M39.667,208.667 C40.033,208.3 41.271,208.007 42.417,208.015 C51.279,208.08 49.911,222.21 39.173,241.507 C38.253,243.161 34.73,247.126 31.344,250.32 C25.596,255.74 24.951,256.081 21.629,255.458 C16.8,254.552 15.488,252.781 16.646,248.73 C17.239,246.656 18.649,244.963 20.588,244 C25.38,241.619 27.403,239.812 30.712,234.959 C33.709,230.564 39,215.501 39,211.365 C39,210.248 39.3,209.033 39.667,208.667 Z"/>
</svg>

