<svg xmlns="http://www.w3.org/2000/svg" width="300" height="300" viewBox="0 0 300 300" version="1.1">
  <defs/>
  <path d="M148.655,70.829 C150.733,68.532 151.737,68.542 155.605,70.901 C158.418,72.616 158.785,73.438 159.516,79.647 C161.266,94.504 160.162,113.907 157.146,121.315 C156.516,122.863 156,125.499 156,127.172 C156,129.696 156.298,130.083 157.75,129.445 C158.713,129.021 162.636,127.61 166.47,126.309 C177.284,122.637 178,121.954 178,115.315 C178,110.309 176.98,105.341 173.944,95.562 C172.579,91.165 174.664,85.122 177.82,84.33 C181.705,83.355 183.422,85.163 184.26,91.107 C184.678,94.073 185.451,98.75 185.979,101.5 C186.507,104.25 187.198,108.188 187.515,110.25 C188.221,114.848 190.697,115.231 195.589,111.5 C199.56,108.471 202.332,108.332 205.027,111.027 C206.984,112.984 206.992,113.138 205.277,115.535 C204.299,116.9 201.025,119.432 198,121.161 C193.518,123.723 191.041,125.011 189.675,127.045 C187.868,129.733 188,133.723 188,143.674 C188,154.203 187.995,158.19 189.506,158.887 C190.432,159.314 191.926,158.507 194.339,157.214 C196.172,156.232 199.433,154.056 201.586,152.378 C207.267,147.951 213.438,144.744 215.496,145.148 C218.716,145.781 219.658,148.615 217.458,151.051 C215.434,153.293 206.941,159.369 202.155,162 C200.654,162.825 196.906,165.389 193.826,167.699 L188.225,171.897 L187.583,183.199 C187.231,189.414 186.566,201.025 186.106,209 C185.202,224.673 183.457,232.52 180.066,236.159 C176.874,239.586 175.853,237.148 176.441,227.5 C176.708,223.1 177.367,212.075 177.903,203 C178.44,193.925 179.175,185.091 179.536,183.368 C180.314,179.656 178.745,178.209 176.056,180.161 C175.041,180.897 168.673,185.266 161.906,189.868 L149.601,198.237 L147.305,195.368 C146.043,193.791 145.008,192.207 145.005,191.848 C144.991,190.019 173.199,169 175.668,169 C176.23,169 177.501,168.104 178.492,167.008 C180.06,165.276 180.195,164.005 179.529,157.258 C179.108,152.991 178.479,145.9 178.132,141.5 C177.52,133.753 177.421,133.504 175,133.636 C173.625,133.711 169.194,134.948 165.154,136.386 C161.114,137.824 156.788,139 155.541,139 C153.197,139 152.188,140.729 144.455,158 C142.854,161.575 139.365,167.79 136.701,171.81 C132.841,177.637 131.416,179.057 129.679,178.81 C127.915,178.559 127.561,177.94 127.818,175.559 C127.993,173.942 128.899,171.467 129.832,170.059 C130.765,168.652 132.811,164.8 134.379,161.5 C135.947,158.2 137.628,154.719 138.115,153.764 C138.602,152.809 139,151.207 139,150.205 C139,149.202 139.661,147.509 140.468,146.441 C141.276,145.374 141.951,143.037 141.968,141.25 C141.986,139.463 142.45,138 143,138 C143.55,138 144.016,136.537 144.035,134.75 C144.055,132.963 144.714,130.375 145.5,129 C146.286,127.625 146.945,125.352 146.965,123.95 C146.984,122.547 147.404,120.972 147.898,120.45 C149.136,119.139 149.958,112.597 150.639,98.637 C151.204,87.052 151.048,85.984 147.883,79.764 C146.488,77.02 146.85,72.823 148.655,70.829 Z M85.06,94.67 C86.306,93.798 87.59,93.198 87.913,93.339 C93.881,95.936 94,96.114 94,102.469 C94,105.841 94.528,109.128 95.172,109.772 C95.836,110.436 96.252,113.236 96.131,116.229 C96.013,119.135 96.611,123.479 97.458,125.882 C98.306,128.285 99.009,132.782 99.02,135.876 C99.031,138.969 99.536,144.425 100.142,148 C100.748,151.575 101.362,157.875 101.507,162 C101.651,166.125 101.821,170.988 101.884,172.806 C101.987,175.73 102.528,176.346 106.56,178.13 C112.438,180.73 112.341,183.456 106.25,186.81 L102,189.15 L101.983,199.825 C101.973,205.696 101.3,214.55 100.486,219.5 C99.673,224.45 99.006,230.231 99.004,232.346 C99,236.404 95.848,242 93.567,242 C92.853,242 91.084,241.067 89.635,239.927 C86.186,237.214 86.054,232.666 89.361,230.499 C91.586,229.041 91.768,228.137 92.532,214.726 C93.65,195.102 93.757,174.194 92.761,170 C92.304,168.075 91.461,159.975 90.888,152 C89.047,126.368 88.853,124.516 87.919,123.55 C87.414,123.027 87,121.397 87,119.926 C87,118.455 86.368,115.459 85.595,113.269 C84.822,111.079 83.876,106.355 83.492,102.772 C82.845,96.732 82.96,96.142 85.06,94.67 Z M230.5,235.662 C233.8,235.506 236.822,235.293 237.216,235.189 C237.61,235.085 245.935,235.49 255.716,236.088 C275.091,237.273 277,237.904 277,243.12 C277,247.152 274.14,248.423 268.746,246.787 C258.864,243.791 182.147,246.15 161,250.1 C157.975,250.665 149.101,251.389 141.281,251.709 L127.061,252.291 L126.031,249.58 C124.616,245.859 126.225,243.205 130.262,242.603 C132.043,242.337 142.95,241.611 154.5,240.99 C166.05,240.369 178.65,239.473 182.5,238.998 C188.816,238.219 215.121,236.391 230.5,235.662 Z M61.557,151.586 C63.582,149.561 67.503,150.148 70.304,152.895 C72.466,155.015 72.966,165.327 71.077,168.855 C70.152,170.584 70.146,171.913 71.053,174.659 C72.752,179.807 70.472,192.208 67.274,195.213 C64.973,197.374 64.933,197.376 63.064,195.448 C61.322,193.65 61.253,192.695 62.156,183.036 C63.066,173.296 62.533,164.903 60.433,155.908 C60.023,154.153 60.386,152.757 61.557,151.586 Z"/>
</svg>

