<svg xmlns="http://www.w3.org/2000/svg" width="300" height="300" viewBox="0 0 300 300" version="1.1">
  <defs/>
  <path d="M158.5,105.125 C164.563,102.627 165.915,102.552 168.77,104.551 C171.922,106.759 173.307,109.704 174.155,116 C177.023,137.295 178.17,146.449 178.79,153 C179.47,160.179 179.615,160.513 182.174,160.809 C183.645,160.979 186.57,160.251 188.674,159.192 C190.778,158.133 196.1,156.234 200.5,154.973 C204.9,153.712 208.928,152.302 209.45,151.84 C209.972,151.378 211.34,151 212.489,151 C213.637,151 216.342,150.1 218.5,149 C220.658,147.9 222.942,147 223.577,147 C225.356,147 230,150.979 230,152.504 C230,154.383 224.274,158.289 221.108,158.57 C219.674,158.697 214.225,160.188 209,161.883 C203.775,163.578 198.689,164.973 197.698,164.982 C196.707,164.992 194.232,165.873 192.198,166.94 C190.164,168.008 186.975,169.438 185.11,170.12 L181.72,171.359 L182.396,183.312 C183.224,197.972 183.845,199.437 188.836,198.51 C193.016,197.735 207.132,193.705 211.261,192.109 C214.635,190.804 222.627,191.77 224.575,193.718 C226.547,195.69 226.36,197.593 223.862,200.973 C221.809,203.75 221.626,203.801 219.281,202.264 C217.04,200.796 216.45,200.797 212.169,202.269 C209.601,203.153 205.025,204.183 202,204.558 C198.975,204.934 195.306,206.087 193.846,207.121 C192.386,208.154 190.473,209 189.596,209 C187.003,209 183.912,212.761 184.446,215.265 C186.165,223.321 184.853,266.281 182.389,282.649 C181.632,287.674 177.137,291.598 172.673,291.13 C167.722,290.61 160.622,284.608 155.706,276.785 C153.869,273.862 153.369,265.508 154.972,264.517 C156.521,263.56 160.686,266.828 162.02,270.049 C162.693,271.672 163.541,273 163.906,273 C164.27,273 165.366,274.35 166.341,276 C168.253,279.237 171.025,279.88 172.969,277.538 C174.741,275.402 176.58,217.403 174.938,215.425 C173.457,213.64 170.589,213.585 169.154,215.314 C168.554,216.037 165.687,217.679 162.782,218.962 C144.169,227.187 140.002,228.869 135.736,229.876 C129.178,231.423 126.272,231.291 120.754,229.196 C114.385,226.777 113.188,224.908 113.63,218.074 C114.031,211.859 115.712,202.714 117.1,199.193 C118.533,195.555 115.344,191.016 113.477,194.037 C113.124,194.608 110.735,196.119 108.168,197.396 C105.601,198.672 102.15,200.453 100.5,201.352 C96.928,203.299 94.828,203.428 93.2,201.8 C91.636,200.236 91.663,195.83 93.25,193.719 C95.522,190.697 112.658,182 116.342,182 C117.189,182 118.225,181.445 118.644,180.767 C119.671,179.106 121.152,159.686 121.564,142.5 C121.748,134.8 122.268,126.7 122.72,124.5 C123.54,120.502 123.543,120.5 128.349,120.5 C132.51,120.5 133.548,120.063 136.064,117.25 C137.663,115.463 139.598,114 140.363,114 C141.129,114 142.246,113.409 142.846,112.686 C143.895,111.421 147.816,109.528 158.5,105.125 Z M152.407,116.845 C147.186,119.724 139.319,125.496 137.501,127.781 C136.94,128.485 135.387,128.935 134.05,128.781 C131.743,128.514 131.632,128.745 131.887,133.291 C132.315,140.914 129.845,172.368 128.706,173.8 C127.968,174.729 128.124,175.552 129.252,176.68 C130.691,178.12 131.222,178.071 135.231,176.13 C137.651,174.959 140.588,174 141.757,174 C142.926,174 144.16,173.55 144.5,173 C144.84,172.45 146.108,172 147.317,172 C150.121,172 165.411,166.616 168.669,164.481 C170.859,163.046 171.087,162.326 170.662,158.181 C169.381,145.692 167.864,135.615 167.03,134.056 C166.522,133.106 165.948,129.443 165.756,125.915 C165.357,118.616 162.977,113.99 159.635,114.018 C158.461,114.028 155.208,115.3 152.407,116.845 Z M64.2,97.2 C64.86,96.54 66.671,96 68.225,96 C70.396,96 71.282,96.636 72.054,98.75 C72.607,100.263 73.349,102.175 73.704,103 C74.058,103.825 74.476,106.486 74.633,108.912 C74.789,111.339 75.393,114.69 75.975,116.358 C77.543,120.857 78.92,140.738 78.665,155.228 C78.49,165.234 78.735,168.068 79.811,168.481 C81.462,169.115 83.04,168.26 84.847,165.754 C85.713,164.553 87.141,163.995 88.847,164.193 C91.217,164.467 91.534,164.975 91.817,168.945 C92.08,172.628 91.737,173.696 89.817,175.173 C88.543,176.153 85.868,176.966 83.872,176.978 C81.877,176.99 79.783,177.563 79.218,178.25 C78.653,178.938 77.934,184 77.619,189.5 C76.814,203.594 75.956,210.302 74.775,211.75 C72.983,213.946 68.205,213.243 66.421,210.519 C64.627,207.781 64.805,204.317 67.348,192.5 C69.276,183.543 69.888,155.871 68.599,136 C67.901,125.253 65.61,111.866 63.937,108.764 C62.602,106.29 62.777,98.623 64.2,97.2 Z M126.861,35.25 C127.635,34.615 128.048,34.237 128.518,34.143 C129.193,34.008 129.986,34.458 132.136,35.57 L135.173,37.141 L134.866,49.82 C134.697,56.794 134.121,63.706 133.587,65.18 C132.406,68.435 134.156,73 136.585,73 C137.48,73 140.036,71.537 142.265,69.75 C144.495,67.963 147.53,65.825 149.011,65 C162.711,57.368 166.778,56.417 169.443,60.223 C171.905,63.737 171.427,66.889 168.25,68.086 C166.738,68.656 164.193,69.77 162.596,70.561 C160.999,71.353 159.124,72 158.428,72 C157.732,72 154.764,74.072 151.832,76.605 C148.899,79.138 144.7,82.005 142.5,82.976 C137.196,85.316 135.39,87.587 134.529,93 C133.432,99.899 130.694,107.194 128.75,108.402 C127.485,109.189 126.515,109.181 125.25,108.375 C123.244,107.097 123.068,102.368 124.739,94.617 C125.518,91.002 125.456,87.756 124.501,82.117 C123.791,77.928 123.454,72.025 123.751,69 C124.545,60.926 124.46,53.018 123.534,48.691 C122.615,44.393 124.371,37.296 126.861,35.25 Z M133.269,188.09 C130.943,189.173 128.587,190.903 128.035,191.935 C127.143,193.6 123.975,211.276 123.632,216.5 C123.472,218.92 126.112,219.466 133.508,218.542 C137.818,218.004 139.54,217.106 144.051,213.044 C149.192,208.417 149.434,207.976 149.244,203.61 C149.12,200.762 148.126,197.575 146.613,195.18 C145.276,193.061 144.029,190.242 143.841,188.914 C143.392,185.735 139.055,185.397 133.269,188.09 Z M163.803,177.473 C161.77,178.863 159.477,180 158.708,180 C157.939,180 156.614,180.787 155.763,181.75 C154.146,183.578 154.213,184.008 158.06,196.571 C158.577,198.26 159,201.312 159,203.352 C159,208.138 160.446,208.633 167.697,206.331 L173.5,204.488 L173.224,193.694 C172.742,174.834 171.299,172.35 163.803,177.473 Z M42.873,134.653 C44.8,132.331 47.702,132.598 49.363,135.25 C51.15,138.104 52.316,155.439 51.4,165.54 C50.646,173.86 47.976,179.276 44.37,179.799 C41.354,180.237 38.275,172.164 40.176,168.802 C41.084,167.196 41.481,161.936 41.489,151.403 C41.498,140.093 41.845,135.892 42.873,134.653 Z M144.576,134.195 C146.536,131.397 147.572,131.436 151.535,134.459 C154.227,136.512 154.96,137.989 155.987,143.431 C157.105,149.359 157.044,150.24 155.302,153.223 C153.007,157.153 150.036,157.488 148.414,154 C143.224,142.837 142.205,137.58 144.576,134.195 Z"/>
</svg>

