<svg xmlns="http://www.w3.org/2000/svg" width="300" height="300" viewBox="0 0 300 300" version="1.1">
  <defs/>
  <path d="M195.498,176.345 C196.599,175.564 198.4,175.16 199.5,175.448 C200.6,175.737 202.653,175.979 204.061,175.986 C205.47,175.994 207.663,176.969 208.934,178.153 C211.052,180.127 211.19,180.856 210.591,186.903 C210.183,191.022 209.198,194.518 207.969,196.21 C206.886,197.7 205.995,199.5 205.989,200.21 C205.968,202.876 193.777,217.851 183.25,228.144 C178.081,233.198 178.776,234.006 188.25,233.956 C192.787,233.932 198.525,233.509 201,233.015 C204.068,232.403 206.614,232.495 209,233.303 C214.941,235.316 215.666,238.392 211.011,241.834 C208.33,243.816 206.532,244.087 193.576,244.469 C176.565,244.969 164.807,247.396 155.889,252.247 L149.908,255.5 L147.954,253.139 C144.046,248.417 146.668,242.099 153.209,240.476 C157.919,239.307 158.685,237.325 155.652,234.159 C154.194,232.636 153,230.576 153,229.579 C153,228.107 151.337,222.178 149.331,216.5 C149.137,215.95 148.088,214.15 147,212.5 C145.912,210.85 144.454,208.392 143.761,207.038 C143.067,205.683 141.498,203.491 140.272,202.166 C137.918,199.619 136.603,194.845 137.163,190.881 C137.405,189.171 138.233,188.415 140.101,188.198 C143.08,187.852 148.273,193.016 150.639,198.677 C152.358,202.794 155.361,203.088 157.195,199.321 C158.359,196.932 161.627,194.339 166,192.335 C166.825,191.957 168.85,190.654 170.5,189.44 C172.15,188.226 174.51,186.925 175.744,186.551 C176.978,186.176 178.6,185.257 179.349,184.508 C180.097,183.76 183.587,181.937 187.103,180.457 C190.619,178.977 194.397,177.126 195.498,176.345 Z M177.156,48.75 C180.458,45.587 183.475,43 183.86,43 C184.245,43 186.071,44.602 187.918,46.56 L191.276,50.12 L187.888,53.627 C186.025,55.555 181.575,59.087 178,61.474 C174.425,63.862 170.15,66.969 168.5,68.379 C162.937,73.133 151.433,81.648 144.156,86.398 C138.53,90.071 136.795,91.774 136.334,94.08 C136.008,95.709 135.35,97.284 134.871,97.58 C134.392,97.876 134,103.244 134,109.51 C134,115.775 133.542,123.061 132.982,125.701 C132.421,128.34 131.818,133.2 131.64,136.5 C131.462,139.8 131.031,143.175 130.681,144 C130.332,144.825 129.618,147.975 129.095,151 C128.572,154.025 127.624,158.3 126.988,160.5 C126.351,162.7 125.306,166.975 124.665,170 C124.024,173.025 123.121,176.087 122.657,176.805 C122.194,177.522 121.231,181.347 120.518,185.305 C118.705,195.371 116.98,201.829 114.838,206.566 C113.827,208.802 112.986,211.727 112.968,213.066 C112.951,214.405 112.276,216.374 111.468,217.441 C110.661,218.509 110,220.54 110,221.955 C110,223.37 109.061,226.997 107.914,230.014 C106.766,233.031 105.456,236.85 105.001,238.5 C104.547,240.15 103.724,242.85 103.172,244.5 C102.62,246.15 101.651,249.3 101.018,251.5 C100.385,253.7 99.459,256.4 98.96,257.5 C98.461,258.6 97.2,261.735 96.157,264.466 C93.855,270.498 92.106,271.825 88.578,270.217 C84.544,268.38 85.29,263.18 91.252,251.568 C91.797,250.506 92.598,248.481 93.031,247.068 C93.464,245.656 95.252,240 97.004,234.5 C98.756,229 100.776,222.25 101.493,219.5 C102.851,214.289 104.754,208.572 105.989,205.996 C106.385,205.169 107.513,201.119 108.495,196.996 C109.477,192.873 110.612,188.6 111.016,187.5 C112.183,184.327 115.906,168.078 116.973,161.5 C117.857,156.053 120.456,142.495 123.108,129.5 C123.669,126.75 123.986,118.2 123.814,110.5 L123.5,96.5 L120.739,96.69 C119.22,96.794 116.676,97.807 115.085,98.94 C111.585,101.432 109.261,101.546 106.829,99.345 C102.503,95.43 105.588,88.641 112.171,87.589 C121.773,86.053 139.123,78.84 144.257,74.249 C145.223,73.385 146.846,72.188 147.864,71.589 C156.421,66.553 167.965,57.552 177.156,48.75 Z M61.073,82.635 C62.212,81.186 63.592,80 64.138,80 C66.549,80 69,82.253 69,84.47 C69,85.79 69.502,88.137 70.115,89.685 C70.728,91.233 71.386,94.3 71.578,96.5 C71.769,98.7 72.384,104.1 72.944,108.5 C73.504,112.9 74.191,128.173 74.471,142.44 C74.751,156.707 75.387,168.787 75.883,169.283 C76.419,169.819 77.649,169.723 78.915,169.046 C80.086,168.419 83.847,168.039 87.272,168.203 L93.5,168.5 L93.5,172.455 C93.5,177.006 92.155,177.73 83.372,177.9 C80.245,177.961 77.781,178.56 77.055,179.434 C76.316,180.324 75.713,185.924 75.465,194.184 C74.984,210.236 74.244,224.281 73.43,232.811 C72.906,238.301 72.5,239.271 70.304,240.271 C66.55,241.982 64.692,239.055 65.704,233.022 C66.82,226.369 66.362,162.592 64.979,132 C63.918,108.543 63.506,104.705 61.39,98.58 C58.456,90.084 58.376,86.063 61.073,82.635 Z M154.75,95.893 C156.945,93.668 157.93,93.619 161.794,95.547 C164.829,97.061 166.665,100.115 165.588,101.858 C165.29,102.339 165.711,106.506 166.522,111.117 C167.333,115.728 167.998,122.763 167.999,126.75 C168,133.132 168.221,134 169.846,134 C170.862,134 173.511,132.088 175.733,129.75 C177.955,127.412 183.199,122.829 187.387,119.565 C192.768,115.37 195,112.984 195,111.428 C195,109.586 195.734,109.117 199.497,108.553 C205.004,107.727 206,108.274 206,112.125 C206,117.454 204.486,119.308 187.11,135.261 C182.461,139.529 176.746,145.26 174.411,147.996 L170.164,152.971 L170.071,163.735 C169.957,176.985 169.161,180.384 166.067,180.835 C162.472,181.358 161.777,179.787 161.42,170.327 C160.994,159.058 160.282,148.913 158.342,126.521 C157.083,111.984 156.422,108.081 154.892,106.136 C152.521,103.122 152.453,98.222 154.75,95.893 Z M192,189.5 C191.315,190.325 190.267,191 189.671,191 C189.075,191 185.203,192.688 181.065,194.75 C175.981,197.284 171.351,200.673 166.784,205.203 L160.025,211.906 L160.651,216.703 C160.995,219.341 161.723,222.067 162.269,222.76 C162.814,223.452 163.016,225.844 162.717,228.074 C161.818,234.776 164.133,234.145 172.68,225.363 C193.448,204.022 198.973,196.544 198.994,189.75 C199.002,187.516 193.801,187.33 192,189.5 Z M35.39,144.179 C36.167,142.92 43.2,143.851 44.174,145.341 C45.464,147.314 47.27,162.7 46.61,166.089 C46.245,167.965 45.681,171.975 45.358,175 C44.71,181.056 42.031,185 38.566,185 C34.714,185 33.837,181.859 35.024,172.311 C35.625,167.47 35.799,159.619 35.42,154.45 C35.047,149.377 35.034,144.754 35.39,144.179 Z M138.2,33.2 C140.05,31.35 144.489,31.778 146.5,34 C147.495,35.1 148.836,36 149.478,36 C151.322,36 159,46.034 159,48.443 C159,51.122 157.646,52.816 152.5,56.577 C145.622,61.603 143.859,62.385 142.881,60.842 C141.592,58.808 141.811,57.291 144.015,52.971 C145.705,49.658 145.826,48.695 144.767,46.999 C144.073,45.887 142.719,44.728 141.758,44.423 C137.415,43.045 135.234,36.166 138.2,33.2 Z"/>
</svg>

