<svg xmlns="http://www.w3.org/2000/svg" width="300" height="300" viewBox="0 0 300 300" version="1.1">
  <defs/>
  <path d="M119.101,26.225 C124.214,21.682 125.319,21.1 127.068,22.037 C128.185,22.634 129.591,24.202 130.191,25.521 C131.734,28.907 129.484,31.945 122.337,36.119 C109.861,43.407 108.401,44.331 105.5,46.771 C103.74,48.251 102.433,50.37 102.338,51.897 C102.249,53.329 101.713,57.425 101.148,61 C100.582,64.575 100.26,69.525 100.431,72 C100.602,74.475 100.8,78.188 100.871,80.25 C101.021,84.621 102.885,85.201 105.677,81.745 C106.68,80.505 108.758,78.681 110.295,77.693 C111.832,76.704 113.486,74.851 113.972,73.574 C114.46,72.289 116.041,70.955 117.514,70.586 C120.901,69.736 127.068,72.649 128.626,75.834 C129.254,77.118 130.27,78.67 130.884,79.284 C131.498,79.898 132,81.857 132,83.638 C132,85.419 132.737,89.941 133.637,93.688 C135.797,102.677 136.134,164.929 134.037,167.456 C132.599,169.188 128.448,169.533 127.5,168 C126.143,165.805 122.202,167.047 119.568,170.5 C118.1,172.425 116.351,174 115.681,174 C115.012,174 112.767,175.153 110.693,176.563 C108.366,178.144 105.883,179.006 104.211,178.813 C101.708,178.524 101.477,178.112 101.205,173.446 C100.853,167.441 103.123,164.63 108.472,164.444 C114.779,164.225 125.84,153.417 125.958,147.357 C126.02,144.196 123.286,143.633 121.454,146.43 C119.704,149.101 111.452,153 107.548,153 C104.152,153 100.907,147.022 102.96,144.548 C103.667,143.697 105.132,143 106.215,143 C107.299,143 110.935,140.512 114.295,137.471 C117.655,134.431 121.101,132.007 121.952,132.087 C125.782,132.442 126,132.06 126,125 C126,119.404 125.695,118 124.48,118 C122.839,118 115.134,122.573 113.5,124.518 C111.077,127.4 107.69,128.905 105.845,127.917 C101.621,125.656 104.769,118.401 112.888,111.686 C117.066,108.23 117.906,107.923 121.814,108.425 C125.578,108.909 126.064,108.757 125.625,107.24 C125.349,106.283 124.813,102.35 124.434,98.5 C123.6,90.01 121.401,83.994 119.141,84.017 C117.377,84.034 110.529,90.697 107.502,95.341 C106.484,96.904 104.604,98.58 103.325,99.066 C102.906,99.225 102.56,99.325 102.271,99.513 C100.803,100.466 100.808,103.688 100.304,128.5 C100.181,134.55 99.592,143.325 98.994,148 C98.396,152.675 97.651,159.425 97.339,163 C97.026,166.575 96.353,170.019 95.842,170.654 C95.332,171.289 95.184,172.884 95.514,174.198 C96.353,177.541 93.028,180.475 89.427,179.571 C86.836,178.921 86.785,178.758 87.294,172.702 C87.581,169.291 88.561,162 89.473,156.5 C90.65,149.401 91.181,139.394 91.306,122 C91.504,94.174 90.749,55.995 90,56.012 C89.725,56.019 87.542,57.144 85.148,58.512 C82.754,59.88 80.23,61 79.537,61 C78.845,61 76.621,62.125 74.595,63.5 C72.569,64.875 70.008,66 68.904,66 C67.8,66 65.168,66.995 63.055,68.211 C58.739,70.694 56.6,69.917 55.768,65.565 C55.119,62.173 56.529,60.258 60.256,59.47 C62.04,59.093 64.4,58.023 65.5,57.093 C66.6,56.162 70.2,54.321 73.499,53.002 C88.863,46.857 109.561,34.703 119.101,26.225 Z M189.964,201.305 C192.752,198.82 207.356,200.693 212.225,204.16 C215.375,206.403 216.009,211.238 213.587,214.55 C212.197,216.452 212.099,216.447 207.56,214.241 C201.691,211.39 193.755,211.242 189.392,213.903 C187.682,214.946 183.857,216.058 180.892,216.376 C177.926,216.694 173.025,217.206 170,217.513 C160.547,218.474 159.704,218.809 160.467,221.295 C161.581,224.924 164.105,236.243 164.662,240.105 C165.375,245.044 162.058,251.994 157.122,255.903 C153.607,258.687 152.29,259.069 144.351,259.6 C133.802,260.307 129.828,258.903 120.834,251.294 C117.717,248.657 111.745,243.615 107.562,240.09 C99.564,233.348 97.634,229.938 100.305,227.267 C101.646,225.926 102.317,225.889 105.019,227.008 C106.752,227.726 108.695,228.821 109.335,229.442 C109.976,230.062 113.782,233.209 117.794,236.433 C121.806,239.658 125.534,243.13 126.079,244.148 C126.624,245.167 127.582,246 128.206,246 C128.831,246 130.053,246.62 130.921,247.378 C133.071,249.254 144.528,251.133 147.295,250.064 C148.508,249.596 150.625,248.003 152,246.526 C154.187,244.175 154.499,242.941 154.49,236.669 C154.48,228.99 153.461,226.542 147.676,220.304 C145.316,217.759 144.155,217.219 141.977,217.655 C140.47,217.956 138.937,217.707 138.562,217.101 C138.188,216.495 136.837,216 135.56,216 C132.625,216 127.738,209.858 128.183,206.729 C128.617,203.678 132.642,203.349 139.262,205.823 C146.499,208.529 159.78,209.485 169.564,208.004 C177.748,206.766 187.392,203.599 189.964,201.305 Z M38.655,220.829 C42.659,216.404 48.457,221.336 49.437,230 C50.642,240.658 49.677,249.309 46.901,252.745 C46.121,253.71 44.672,256.107 43.681,258.07 C41.267,262.852 37.035,265.344 33.566,264.025 C28.166,261.972 28.084,253.77 33.449,252.424 C36.792,251.584 39.943,246.273 40.653,240.281 C41.111,236.411 40.799,234.72 39.118,231.962 C36.583,227.804 36.397,223.324 38.655,220.829 Z"/>
</svg>

