<svg xmlns="http://www.w3.org/2000/svg" width="300" height="300" viewBox="0 0 300 300" version="1.1">
  <defs/>
  <path d="M113,39.5 C115.475,38.175 118.971,37.07 120.768,37.045 C124.678,36.991 133.59,41.434 135.504,44.391 C139.768,50.982 143.422,69.408 142.366,79 C142.154,80.925 141.714,84.975 141.387,88 C141.061,91.025 140.45,93.95 140.03,94.5 C139.609,95.05 138.952,99.087 138.571,103.472 C138.189,107.857 137.478,111.925 136.99,112.512 C136.503,113.099 135.891,115.812 135.63,118.54 C134.65,128.776 131.299,135.547 125.914,138.172 C115.17,143.41 106.947,147 105.697,147 C104.912,147 103.197,147.813 101.885,148.806 C100.573,149.799 97.475,151.18 95,151.875 C92.525,152.57 88.475,153.762 86,154.524 C83.525,155.285 79.041,156.042 76.035,156.204 C70.887,156.483 70.489,156.334 69.176,153.637 C68.119,151.466 68.045,150.196 68.87,148.387 C69.812,146.318 70.66,145.995 75.229,145.964 C81.928,145.919 89.979,143.943 97,140.622 C100.025,139.19 103.107,138.015 103.849,138.01 C106.046,137.994 112.148,134.904 117.5,131.097 C124.107,126.398 124.79,125.687 125.532,122.728 C126.12,120.386 125.867,120.176 121.832,119.653 C119.449,119.345 115.809,118.797 113.743,118.436 C109.375,117.673 105,119.91 105,122.907 C105,125.115 97.381,132.305 95.681,131.701 C93.813,131.038 94.666,124.83 97.366,119.434 C98.976,116.215 99.649,113.545 99.301,111.752 C98.979,110.092 99.407,108.027 100.384,106.537 C101.273,105.18 102,103.149 102,102.023 C102,100.213 101.56,100.047 98.202,100.584 C93.457,101.342 91.748,99.595 92.185,94.432 C92.466,91.119 93.033,90.441 97.5,88.067 C102.413,85.455 102.494,85.336 102.18,81.182 C101.574,73.179 105.878,65 110.696,65 C113.496,65 115.902,69.17 114.285,71.22 C112.452,73.544 111.944,77.709 113.352,78.877 C114.364,79.717 115.83,79.223 119.458,76.82 C124.766,73.304 126.764,73.642 128.438,78.339 C129.213,80.514 128.952,81.425 126.938,83.584 C125.597,85.022 122.386,87.274 119.801,88.59 C114.789,91.141 112.709,94.356 111.515,101.396 C110.735,105.995 111.74,106.962 117.316,106.985 C119.414,106.993 122.019,107.475 123.104,108.055 C126.952,110.115 128.606,108.437 129.829,101.232 C132.849,83.447 133.513,72.957 132.054,66.076 C129.427,53.68 128.566,51.651 125.067,49.607 C122.061,47.852 121.134,47.769 116.16,48.812 C109.042,50.305 101.719,55.195 92.98,64.292 C87.066,70.447 85.795,71.336 84.277,70.38 C81.299,68.503 83.523,60.897 89.011,54.193 C92.127,50.387 100.354,44.721 105.189,43.053 C107.01,42.424 110.525,40.825 113,39.5 Z M113.161,176.547 C114.557,173.481 115.087,173.449 122.471,175.99 C126.013,177.209 132.373,178.219 138.877,178.595 C148.251,179.138 150.852,178.893 161,176.508 C178.549,172.383 188.95,173.994 209,183.945 C218.444,188.632 218.502,188.683 218.798,192.632 C219.021,195.606 218.587,197.064 217.069,198.438 C215.086,200.232 214.928,200.186 209.771,196.299 C201.079,189.748 193.077,186.458 182,184.881 C178.369,184.364 176.334,184.042 174.297,184.029 C171.214,184.008 168.127,184.693 159.5,186.478 C146.671,189.132 142.754,189.259 131.75,187.379 C126.794,186.532 126.854,188.122 131.966,193.083 C138.429,199.355 140.771,203.897 141.521,211.613 C142.182,218.41 142.144,218.561 138.592,223.195 L134.992,227.89 L126.891,227.504 C121.399,227.243 118.233,226.616 117.066,225.559 C116.118,224.702 114.818,224 114.177,224 C112.616,224 101,212.029 101,210.42 C101,209.724 99.97,207.881 98.711,206.327 C95.782,202.71 94,198.579 94,195.408 C94,193.069 94.239,192.952 97.75,193.576 C102.308,194.386 102.707,194.735 106.561,201.274 C108.245,204.131 112.44,208.862 115.883,211.786 C121.743,216.763 122.444,217.084 126.822,216.802 L131.5,216.5 L131.809,212.227 C132.253,206.078 129.005,200.346 119.809,191.05 C111.826,182.982 111.025,181.234 113.161,176.547 Z M65.25,48.141 C66.312,47.07 72.616,47.312 73.795,48.468 C74.551,49.208 77.82,65.177 78.367,70.796 C78.703,74.259 79.426,77.928 79.973,78.95 C80.52,79.972 81.158,83.664 81.39,87.154 C81.622,90.644 82.303,96.875 82.903,101 C83.503,105.125 84.108,113.597 84.247,119.827 C84.478,130.148 84.323,131.284 82.507,132.615 C81.411,133.418 79.624,133.946 78.535,133.788 C76.249,133.455 75.798,131.484 74.005,114 C70.443,79.264 68.927,69.594 65.557,60.124 C63.678,54.845 63.551,49.853 65.25,48.141 Z M40.5,194.223 C44.722,192.801 45.296,192.819 47.613,194.442 C48.863,195.317 50.353,198.402 51.408,202.297 L53.144,208.711 L50.572,214.043 C49.157,216.975 48,220.01 48,220.786 C48,224.064 39.847,235.129 31.084,243.744 C21.066,253.591 18.38,254.808 15.557,250.777 C12.12,245.871 14.591,239.675 20.419,238.581 C23.029,238.091 25.382,236.268 29.925,231.215 C33.245,227.522 35.97,223.953 35.981,223.285 C35.991,222.617 37.064,220.142 38.364,217.785 C39.664,215.428 40.946,211.475 41.213,209 C41.677,204.694 41.529,204.379 37.779,201.71 C32.587,198.013 33.053,196.732 40.5,194.223 Z"/>
</svg>

