<svg xmlns="http://www.w3.org/2000/svg" width="300" height="300" viewBox="0 0 300 300" version="1.1">
  <defs/>
  <path d="M110.289,15.649 C116.556,13.106 123.496,18.616 124.222,26.711 C124.651,31.503 124.069,34.011 121.788,37.202 C121.118,38.138 120.893,39.226 121.287,39.62 C122.307,40.641 126.409,38.238 131.206,33.81 C133.476,31.714 135.737,30 136.232,30 C138.349,30 141,32.217 141,33.988 C141,38.724 137.685,42.345 129.514,46.532 C128.14,47.237 127.452,48.666 127.348,51.032 C127.039,58.059 120.905,77.516 117.317,82.849 C116.336,84.307 114.801,87.097 113.906,89.048 C113.011,90.999 110.109,94.705 107.457,97.282 C104.805,99.86 102.933,102.267 103.297,102.631 C103.96,103.294 105.585,102.777 127,95.087 C133.325,92.816 141.2,90.269 144.5,89.426 C147.8,88.584 152.408,87.018 154.739,85.947 C161.945,82.637 171,84.04 171,88.468 C171,90.45 165.647,94.742 162.5,95.284 C151.733,97.14 147.954,98.069 143.667,99.917 C141.009,101.063 138.212,102 137.452,102 C135.526,102 127.012,104.799 124,106.422 C122.625,107.163 119.988,108.093 118.14,108.488 C116.292,108.884 112.467,110.218 109.64,111.453 C106.813,112.688 102.955,113.996 101.066,114.361 C99.177,114.726 96.927,115.639 96.066,116.39 C94.517,117.742 91.266,118.59 83.5,119.669 C81.3,119.975 79.05,120.564 78.5,120.978 C77.95,121.392 74.35,122.726 70.5,123.943 C66.65,125.159 61.475,127.43 59,128.988 C47.935,135.953 43.623,136.029 42.72,129.275 C42.294,126.091 42.628,125.148 44.857,123.248 C46.311,122.01 48.4,120.749 49.5,120.447 C50.6,120.144 53.525,119.078 56,118.077 C58.475,117.075 64.325,115.066 69,113.612 C93.686,105.932 94.393,105.623 95.091,102.209 C95.446,100.471 96.576,97.801 97.601,96.275 C101.369,90.666 102.014,88.895 100.987,86.976 C99.695,84.562 99.706,68.3 101,67.5 C102.3,66.696 102.291,63.298 100.987,62.492 C100.429,62.147 97.463,63.015 94.396,64.419 C90.318,66.286 88.336,66.715 87.026,66.014 C85.284,65.082 83.825,59.657 84.698,57.356 C85.212,56.002 97.292,50.643 104.75,48.459 C109.314,47.123 110,46.588 110,44.366 C110,42.959 110.941,40.487 112.091,38.872 C114.931,34.884 115.033,27.756 112.293,24.733 C109.81,21.994 108.565,16.349 110.289,15.649 Z M120.472,128.397 C124.199,126.774 126.232,126.693 129.203,128.048 C135.014,130.701 140.532,145.915 138.871,154.704 C136.352,168.027 135.686,169.912 132.353,173.142 C130.509,174.93 129,177.396 129,178.624 C129,182 124.494,185 119.424,185 C117.056,185 114.84,185.45 114.5,186 C114.16,186.55 113.087,187 112.115,187 C111.144,187 109.337,188.076 108.102,189.392 C106.866,190.708 103.837,192.554 101.371,193.496 C97.119,195.12 96.788,195.118 94.944,193.449 C92.834,191.54 92.317,186.54 94.115,185.429 C95.945,184.298 94.532,176.83 91.081,169.39 C88.803,164.481 86.139,160.852 81.813,156.769 C76.212,151.48 75.793,150.787 76.39,147.8 C77.123,144.137 77.65,143.48 80.566,142.604 C81.886,142.206 83.222,142.617 84.269,143.741 C85.17,144.709 86.856,146.54 88.015,147.811 C90.668,150.72 94.079,150.342 95.695,146.96 C96.362,145.563 98.841,143.34 101.204,142.02 C103.567,140.7 108.187,137.392 111.472,134.668 C114.757,131.945 118.807,129.123 120.472,128.397 Z M179,204.69 C179.825,204.348 184.775,204.178 190,204.313 C199.749,204.564 206.899,206.763 209.959,210.45 C210.666,211.303 212.028,212 212.985,212 C215.585,212 222.4,217.802 223.192,220.689 C223.986,223.585 222.263,227.001 220.009,226.998 C218.204,226.997 214.074,224.777 206.795,219.897 C199.434,214.962 195.2,213.725 188.262,214.481 C182.745,215.083 169.594,218.574 167.5,219.994 C166.95,220.367 163.8,221.481 160.5,222.47 C153.935,224.437 150.983,226.443 151.031,228.905 C151.048,229.782 152.169,232.75 153.522,235.5 C154.961,238.426 155.986,242.272 155.991,244.772 C155.999,248.386 155.372,249.726 151.929,253.461 C148.665,257.003 146.465,258.309 140.824,260.055 C134.485,262.016 133.033,262.124 126.145,261.141 C106.227,258.3 100.986,256.282 93.947,248.746 C87.235,241.56 84.762,236.297 85.784,231.377 C86.241,229.179 87.245,227.384 88.11,227.217 C90.358,226.784 94.32,230.288 96.527,234.661 C99.373,240.301 107.356,247.755 111.762,248.888 C126.043,252.559 132.334,252.809 138.596,249.956 C143.909,247.536 145.344,244.618 144.435,238.088 C143.369,230.43 140.12,226.536 132.753,224.084 C122.133,220.55 119.604,217.479 124.022,213.48 C125.978,211.71 126.164,211.709 129.772,213.471 C131.96,214.539 136.705,215.49 141.26,215.774 C150.422,216.346 157.479,214.665 169.5,209.05 C173.9,206.995 178.175,205.033 179,204.69 Z M48.2,229.2 C50.132,227.268 52.746,227.801 56.119,230.815 C58.84,233.246 59.114,233.918 58.134,235.749 C57.51,236.915 57,239.367 57,241.198 C57,245.128 53.763,254.452 51.168,258 C50.161,259.375 47.61,262.975 45.498,266 C39.64,274.388 33.129,281.612 30.167,283.009 C25.421,285.248 23.867,286.038 22.672,285.668 C22,285.46 21.442,284.886 20.496,283.997 C19.029,282.618 18,280.538 18,278.948 C18,276.683 18.896,275.78 23.53,273.373 C27.741,271.185 30.597,268.541 35.511,262.283 C44.459,250.888 47,245.299 47,237.013 C47,233.203 47.509,229.891 48.2,229.2 Z M114.34,145.504 C110.951,148.527 107.778,151 107.287,151 C106.796,151 104.505,152.389 102.197,154.087 C98.775,156.603 98,157.768 98,160.395 C98,162.168 98.636,164.488 99.413,165.551 C100.76,167.392 101.132,167.191 107.247,161.318 C114.13,154.709 118.875,152.792 122.951,154.974 C124.669,155.893 125.05,156.88 124.806,159.783 C124.567,162.639 123.798,163.879 121.282,165.468 C119.512,166.586 116.587,168.49 114.782,169.7 C112.977,170.909 109.813,172.831 107.75,173.97 C105.377,175.28 104,176.768 104,178.02 C104,180.75 106.048,180.52 113.424,176.963 C120.173,173.707 122.176,171.913 126.515,165.234 C129.09,161.272 129.245,160.455 128.698,153.734 C127.442,138.298 124.383,136.545 114.34,145.504 Z M108.75,56.573 C104.559,59.318 104.377,59.795 106.468,62.559 C107.345,63.717 107.949,66.775 107.968,70.143 C107.99,74.039 108.434,75.953 109.402,76.324 C111.244,77.031 112,76.177 112,73.392 C112,72.141 112.437,70.848 112.971,70.518 C113.505,70.188 114.239,67.676 114.603,64.936 C114.966,62.197 115.654,59.714 116.132,59.419 C117.585,58.52 117.101,55.253 115.418,54.607 C113.194,53.753 112.943,53.828 108.75,56.573 Z"/>
</svg>

