<svg xmlns="http://www.w3.org/2000/svg" width="300" height="300" viewBox="0 0 300 300" version="1.1">
  <defs/>
  <path d="M103,3.032 C103,0.08 103.125,0 107.773,0 L112.545,0 L113.864,4.75 C114.59,7.362 115.48,12.875 115.842,17 C116.431,23.71 116.73,24.533 118.687,24.811 C120.201,25.027 121.41,24.258 122.619,22.311 C125.019,18.445 129.166,14 130.373,14 C132.135,14 136,18.286 136,20.24 C136,21.28 135.561,22.952 135.024,23.954 C133.744,26.347 124.76,32.771 121.578,33.57 C118.071,34.45 117.343,35.707 116.551,42.25 C115.898,47.649 115.984,48 117.961,48 C119.119,48 122.287,46.875 125,45.5 C131.804,42.052 136.84,42.179 140.393,45.888 C144.682,50.365 144.905,55.378 141.102,61.826 C137.474,67.979 137.381,68.598 139.878,69.935 C140.91,70.487 141.973,72.077 142.238,73.467 C142.639,75.562 141.778,76.801 137.209,80.705 C134.177,83.295 130.42,86.109 128.862,86.957 C123.122,90.082 114.975,96.558 114.341,98.5 C113.389,101.416 113.282,114.056 114.205,114.627 C115.32,115.316 118.925,113.214 125.715,107.914 C133.013,102.218 138.284,100.978 140.543,104.425 C141.644,106.106 141.799,107.4 141.113,109.204 C140.057,111.979 134.54,117 132.546,117 C131.83,117 130.685,117.675 130,118.5 C129.315,119.325 127.876,120 126.801,120 C125.726,120 123.505,121.341 121.867,122.98 C119.168,125.678 111.877,129 108.653,129 C107.951,129 106.342,127.601 105.077,125.891 C102.921,122.974 102.822,122.2 103.483,113.391 C103.955,107.085 103.844,104 103.143,104 C102.569,104 101.74,104.606 101.3,105.346 C99.397,108.548 92.582,113.383 89.194,113.933 C86.217,114.417 85.379,115.082 84.677,117.514 C82.225,126.014 79.615,133.606 78.855,134.45 C78.385,134.973 78,136.478 78,137.796 C78,139.113 77.378,141.386 76.617,142.846 C73.395,149.033 70,156.606 70,157.609 C70,158.204 69.1,159.505 68,160.5 C66.671,161.703 66,163.58 66,166.096 C66,168.178 65.559,170.155 65.019,170.488 C64.043,171.091 59.878,179.63 55.801,189.388 C54.626,192.199 53.065,195.21 52.332,196.079 C51.599,196.947 51,198.262 51,199 C51,199.738 50.383,201.053 49.628,201.921 C48.874,202.79 47.506,205.81 46.587,208.632 C45.669,211.455 44.036,214.562 42.959,215.537 C41.881,216.512 41,217.827 41,218.459 C41,220.235 36.079,229.689 34.452,231.04 C33.653,231.703 33,233.229 33,234.431 C33,235.634 32.339,237.491 31.532,238.559 C30.724,239.626 30.049,241.232 30.032,242.128 C30.014,243.023 29.366,244.281 28.592,244.924 C27.818,245.566 26.434,247.672 25.518,249.604 C24.062,252.671 23.45,253.077 20.676,252.808 C18.053,252.554 17.445,252.024 17.185,249.768 C16.987,248.046 17.775,245.829 19.318,243.768 C20.664,241.971 23.004,237.8 24.519,234.5 C26.034,231.2 30.362,222.18 34.137,214.457 C37.912,206.733 41,200.108 41,199.734 C41,198.598 49.152,180.825 51.428,177 C52.998,174.36 57.775,163.884 58.95,160.5 C59.333,159.4 60.777,156.025 62.161,153 C66.266,144.024 69.185,136.666 69.698,134 C69.963,132.625 71.264,129.125 72.59,126.223 C73.915,123.32 75,119.854 75,118.52 C75,117.186 75.45,115.06 75.999,113.797 C76.958,111.595 79.156,81.909 78.419,81.115 C78.223,80.903 76.939,81.465 75.566,82.365 C70.457,85.712 65.309,83.603 66.547,78.669 C67.432,75.142 69.464,73.622 77.5,70.476 C83.974,67.942 95.27,62.277 102.545,57.916 C105.501,56.143 105.627,55.76 106.893,44.685 C108.393,31.559 107.708,20.3 104.891,11.782 C103.851,8.636 103,4.699 103,3.032 Z M144,131.731 C151.586,130.84 153.846,131.055 156.104,132.883 C158.162,134.55 158.413,135.556 158.281,141.633 C158.024,153.46 156.906,161.834 155.417,163.069 C154.638,163.716 154,165.606 154,167.269 C154,169.054 152.566,172.453 150.5,175.566 C148.575,178.466 147,181.749 147,182.86 C147,183.972 146.541,185.165 145.981,185.512 C145.421,185.858 143.859,188.319 142.51,190.98 C139.615,196.694 132.34,203.018 128.336,203.3 C125.821,203.477 125.521,203.189 125.688,200.75 C125.792,199.238 125.649,198 125.372,198 C124.332,198 117.276,203.649 110.731,209.721 C103.197,216.71 100.097,217.604 97.441,213.55 C96.558,212.203 94.298,210.193 92.418,209.084 C89.978,207.644 89,206.353 89,204.569 C89,203.195 87.875,200.056 86.5,197.593 C85.125,195.13 84,192.603 84,191.977 C84,191.351 82.425,188.466 80.5,185.566 C78.575,182.666 77,179.793 77,179.181 C77,178.57 75.624,176.503 73.943,174.588 C71.295,171.572 70.927,170.464 71.193,166.303 C71.458,162.159 71.816,161.455 73.805,161.173 C76.636,160.772 78.554,162.286 81.101,166.933 C82.177,168.895 83.924,171.85 84.984,173.5 C86.044,175.15 87.681,178.075 88.623,180 C89.565,181.925 90.917,184.191 91.629,185.036 C93.207,186.91 96.969,198.645 96.987,201.75 C97.008,205.411 100.563,204.492 106.65,199.25 C111.646,194.948 115,189.828 115,186.501 C115,185.609 113.726,185.389 110.601,185.742 C106.706,186.181 106.009,185.943 104.518,183.668 C102.045,179.893 102.916,177.975 108.5,174.905 C115.917,170.826 117.988,168.647 118.081,164.826 C118.183,160.622 121.927,153.638 124.326,153.176 C125.329,152.983 126.986,153.582 128.009,154.508 C129.538,155.892 129.674,156.621 128.772,158.6 C126.617,163.33 129.034,162.573 138.647,155.505 C140.616,154.057 143.435,156.154 143.816,159.351 C143.99,160.808 144.711,162 145.417,162 C146.322,162 146.893,159.281 147.354,152.79 C148.146,141.633 147.472,140.386 141.715,142.365 C139.636,143.08 137.41,144.19 136.768,144.832 C136.126,145.474 134.367,146 132.859,146 C131.351,146 129.866,146.407 129.559,146.905 C129.252,147.402 126.412,149.269 123.25,151.053 C120.087,152.838 114.539,157.156 110.92,160.649 C107.301,164.142 103.85,167 103.252,167 C102.654,167 101.34,168.688 100.332,170.75 C97.341,176.872 91.238,176.073 94.011,169.922 C94.611,168.59 96.194,165.7 97.528,163.5 C98.861,161.3 100.371,158.6 100.882,157.5 C102.369,154.301 115.39,143 117.589,143 C117.986,143 119.786,141.875 121.589,140.5 C123.392,139.125 125.333,138 125.903,138 C126.473,138 128.542,137.1 130.5,136 C132.458,134.9 135.082,134 136.33,134 C137.579,134 139.028,133.582 139.55,133.071 C140.072,132.561 142.075,131.958 144,131.731 Z M175,223.004 C179.36,222.187 188.319,222.301 221.17,223.589 C234.772,224.122 237.116,224.459 238.92,226.141 C241.596,228.633 241.543,230.257 238.676,233.591 L236.351,236.293 L229.426,234.985 C225.071,234.163 213.778,233.645 199,233.589 C161.545,233.447 149.573,233.86 147.516,235.365 C145.099,237.132 146.278,238.774 150.54,239.573 C155.392,240.484 161.423,245.137 162.931,249.133 C163.63,250.985 164.682,253.512 165.27,254.75 C166.067,256.43 165.99,257.697 164.965,259.75 C163.133,263.417 159.929,267 158.481,267 C157.837,267 156.495,267.9 155.5,269 C154.505,270.1 152.946,271 152.036,271 C151.127,271 149.509,271.661 148.441,272.468 C143.786,275.989 127.13,273.393 120.398,268.098 C118.931,266.944 117.213,266 116.581,266 C114.479,266 105.325,255.586 102.14,249.572 C98.302,242.326 98.223,241 101.632,241 C105.595,241 110.092,244.257 115.57,251.093 C119.449,255.935 121.885,257.889 127,260.261 C135.074,264.006 143.15,264.425 147.612,261.329 C149.2,260.227 151.287,259.041 152.25,258.694 C153.466,258.256 154,256.988 154,254.544 C154,251.562 153.425,250.662 150.229,248.644 C148.155,247.335 144.144,245.768 141.316,245.161 C127.691,242.239 121.505,234.27 130.291,230.957 C140.621,227.062 145.238,225.92 152.929,225.356 C157.643,225.01 162.058,224.288 162.739,223.75 C163.421,223.213 165.446,223.015 167.239,223.31 C169.033,223.606 172.525,223.468 175,223.004 Z M62.239,240.25 C63.467,238.723 63.877,238.712 67.857,240.1 C73.236,241.975 72.912,246.047 66.423,258.154 C65.64,259.614 65,261.279 65,261.854 C65,263.184 59.546,271.302 57.527,272.978 C56.687,273.675 56,274.796 56,275.469 C56,276.142 53.946,278.562 51.436,280.846 C46.404,285.426 42.076,286.283 38.829,283.345 C35.735,280.545 36.716,278.338 44.643,270.275 C54.336,260.414 58.627,253.945 60.082,247 C60.715,243.975 61.686,240.938 62.239,240.25 Z M94.5,72.719 C91.75,74.141 89.139,75.798 88.698,76.402 C88.257,77.006 88.141,80.114 88.439,83.31 C88.738,86.505 88.57,91.005 88.066,93.31 C86.342,101.202 86.359,105.445 88.114,105.783 C89.122,105.978 90.195,104.943 90.998,103.005 C91.701,101.307 94.965,97.484 98.251,94.511 L104.225,89.105 L103.111,84.303 C102.499,81.661 102.111,77.492 102.249,75.037 C102.56,69.514 101.381,69.162 94.5,72.719 Z M121.5,57.531 C119.85,58.883 118.005,59.992 117.4,59.995 C116.795,59.998 114.436,61.35 112.159,63 C109.881,64.65 107.563,66 107.009,66 C105.335,66 105.865,67.524 108.351,69.86 C109.645,71.075 111.292,73.854 112.011,76.035 C112.731,78.216 113.671,80 114.099,80 C115.132,80 129.132,63.546 130.825,60.342 C131.554,58.963 131.906,57.197 131.607,56.417 C130.728,54.128 124.863,54.774 121.5,57.531 Z M143,163.83 C143,164.287 140.863,166.186 138.25,168.051 C131.632,172.773 124,180.018 124,181.578 C124,183.971 125.671,183.956 128.953,181.535 C131.651,179.544 132.607,179.32 134.573,180.215 C137.305,181.46 140,179.896 140,177.065 C140,176.136 140.844,173.604 141.877,171.438 C144.605,165.713 145.309,163 144.067,163 C143.48,163 143,163.374 143,163.83 Z"/>
</svg>

