<svg xmlns="http://www.w3.org/2000/svg" width="300" height="300" viewBox="0 0 300 300" version="1.1">
  <defs/>
  <path d="M199.5,171.378 C203.807,169.512 211.897,169.696 215.929,171.752 C222.068,174.882 223.508,177.974 223.442,187.884 C223.398,194.394 222.953,197.229 221.692,199.03 C220.761,200.358 220,202.286 220,203.315 C220,204.343 219.1,206.329 218,207.727 C216.9,209.126 216,211.267 216,212.485 C216,213.703 214.65,216.564 213,218.841 C211.35,221.119 210,223.367 210,223.836 C210,224.306 209.1,225.505 208,226.5 C206.9,227.495 206,228.879 206,229.574 C206,231.981 195.59,242.247 191.273,244.097 C187.857,245.561 186.032,245.759 182.32,245.065 C179.756,244.586 177.095,244.41 176.407,244.674 C175.185,245.143 173.8,255.532 173.963,263 C174.006,264.925 173.588,270.325 173.036,275 C172.485,279.675 171.737,287.212 171.376,291.75 L170.718,300 L166.359,300 C164.946,300 163.941,300.334 163.268,300.001 C161.458,299.104 162.039,293.379 163.486,263.348 C164.304,246.382 165.168,227.55 165.407,221.5 C165.646,215.45 166.172,206.267 166.576,201.094 L167.311,191.688 L164.03,192.344 C162.226,192.705 159.924,193 158.914,193 C157.904,193 156.16,193.985 155.039,195.189 C153.206,197.156 153,198.678 153,210.224 C153,219.195 153.404,223.739 154.34,225.285 C155.243,226.777 155.651,230.765 155.59,237.5 C155.503,247.149 155.419,247.511 153.195,247.827 C150.184,248.254 148,246.363 148,243.328 C148,241.993 147.353,239.649 146.562,238.12 C145.771,236.591 145.147,234.025 145.176,232.42 C145.224,229.693 143.778,218.672 142.168,209.5 C141.739,207.058 140.917,205.5 140.057,205.5 C139.282,205.5 135.802,208.759 132.324,212.742 C127.293,218.504 126,220.66 126,223.292 C126,225.111 126.488,227.088 127.085,227.685 C129.069,229.669 127.739,233.472 124.947,233.797 C122.287,234.107 120.121,232.392 114.581,225.586 C112.975,223.614 111.266,222 110.783,222 C110.3,222 107.655,219.75 104.905,217 C102.155,214.25 99.081,212 98.075,212 C95.831,212 94.49,210.396 93.589,206.632 C92.15,200.618 98.375,198.433 103.564,203.131 C104.7,204.159 106.145,205 106.776,205 C107.407,205 109.736,206.832 111.952,209.07 C114.958,212.106 116.493,212.978 117.991,212.503 C119.096,212.152 120,211.419 120,210.873 C120,208.156 139.413,191 142.487,191 C142.815,191 144.061,190.089 145.256,188.976 C146.451,187.863 149.245,186.447 151.464,185.831 C153.684,185.215 157.857,183.64 160.738,182.332 C165.443,180.195 168.556,179.331 178.5,177.4 C180.15,177.08 182.878,176.202 184.563,175.45 C186.248,174.699 189.623,173.767 192.063,173.381 C194.503,172.994 197.85,172.093 199.5,171.378 Z M149.223,63.557 C150.445,62.701 151.92,62 152.5,62 C153.08,62 154.555,62.701 155.777,63.557 C157.557,64.803 158,66.084 158,69.989 C158,73.949 158.367,74.982 159.954,75.486 C161.049,75.833 162.976,75.406 164.334,74.517 C167.689,72.319 179.698,69 184.296,69 C188.551,69 192.573,70.766 195.379,73.866 C196.863,75.506 197.161,77.035 196.809,81.218 C196.564,84.123 195.72,87.748 194.932,89.273 C187.321,104.011 185.561,107 184.496,107 C183.819,107 182.022,108.879 180.502,111.176 C178.387,114.373 177.981,115.739 178.771,117.005 C179.596,118.326 179.131,119.193 176.455,121.329 C174.613,122.798 172.123,124 170.922,124 C168.026,124 162,117.535 162,114.429 C162,113.093 161.648,112 161.218,112 C160.132,112 158.319,119.183 157.33,127.402 C156.753,132.199 155.975,134.633 154.778,135.38 C152.271,136.944 151.053,135.243 150.334,129.173 C149.997,126.328 149.424,124 149.061,124 C147.567,124 146,126.566 146,129.013 C146,132.851 140.899,137.443 137.565,136.606 C135.342,136.048 135,135.424 135,131.931 C135,129.714 135.708,126.532 136.572,124.86 C137.437,123.188 137.901,121.185 137.604,120.41 C136.923,118.636 130.07,118.499 129.605,120.25 C127.091,129.712 125.721,129.949 117.676,122.313 C112.045,116.969 107.422,114.081 99.693,111.081 C97.146,110.092 96.914,109.596 97.193,105.745 C97.496,101.559 97.556,101.496 101.542,101.203 C104.485,100.986 106.227,101.462 107.945,102.953 C109.244,104.079 110.647,105 111.063,105 C111.48,105 114.143,106.836 116.982,109.08 C122.214,113.216 124.576,113.543 125.601,110.273 C127.07,105.588 130.15,101.708 139.817,92.367 C148.247,84.221 150.153,81.868 149.537,80.367 C146.407,72.75 146.274,65.622 149.223,63.557 Z M201.5,181.493 C198.064,182.643 188.575,185.06 183.25,186.143 C180.517,186.698 178.92,186.842 177.971,187.701 C176.448,189.078 176.59,192.296 176.385,202 C176.286,206.675 175.805,214.775 175.315,220 C174.826,225.225 174.611,230.53 174.837,231.788 C175.466,235.293 179.885,237.147 184.542,235.861 C188.606,234.739 195.526,228.659 198,224.039 C198.825,222.498 200.996,218.371 202.824,214.869 C204.652,211.366 206.981,207.15 208,205.5 C209.02,203.85 209.887,201.808 209.927,200.961 C209.967,200.115 210.926,197.64 212.057,195.461 C214.209,191.318 214.102,185.033 211.834,182.3 C210.873,181.142 204.121,180.615 201.5,181.493 Z M61.245,84.25 C63.825,81.024 69.49,84.029 70.889,89.366 C72.78,96.576 75.15,109.33 75.509,114.229 C75.7,116.829 76.131,119.403 76.468,119.949 C77.089,120.953 78.415,149.898 78.202,157.798 C78.068,162.8 79.522,163.855 83.999,162.001 C87.741,160.45 91.6,161.384 93.11,164.206 C94.151,166.15 93.852,166.75 90.389,169.68 C88.169,171.558 85.372,172.977 83.872,172.985 C82.427,172.993 80.762,173.582 80.172,174.293 C79.468,175.141 79.216,181.592 79.44,193.043 C79.628,202.644 79.493,215 79.141,220.5 C78.512,230.319 78.453,230.505 75.914,230.801 C74.492,230.966 72.847,230.516 72.259,229.801 C71.587,228.983 71.015,218.65 70.721,202 C70.463,187.425 69.945,170.325 69.57,164 C69.194,157.675 68.709,146.425 68.491,139 C68.273,131.575 67.649,122.8 67.104,119.5 C65.177,107.837 63.765,101.462 62.39,98.216 C61.626,96.41 61,94.074 61,93.025 C61,91.976 60.532,90.829 59.959,90.475 C58.857,89.794 59.57,86.344 61.245,84.25 Z M169.5,134 C172.25,131.812 175.272,130.016 176.215,130.011 C178.124,129.999 180,132.855 180,135.774 C180,137.944 174.402,143.42 171.117,144.463 C163.7,146.817 157.176,152.779 155.124,159.079 C152.627,166.744 148.359,175.785 145.805,178.82 C143.253,181.852 140.659,182.875 139.651,181.244 C138.902,180.033 141.015,169.91 142.498,167.606 C143.243,166.448 144.16,163.813 144.537,161.75 C145.357,157.265 144.046,156.9 138.261,160 C136.209,161.1 133.728,162 132.749,162 C130.671,162 127.428,155.934 128.296,153.672 C128.998,151.84 139.282,146.944 147.5,144.528 C150.8,143.558 155.469,141.692 157.876,140.382 C160.283,139.072 162.758,137.995 163.376,137.989 C163.994,137.984 166.75,136.188 169.5,134 Z M154.785,32.865 C156.98,30.95 159.167,30 161.38,30 C165.298,30 168.471,32.942 167.58,35.749 C166.28,39.843 154.343,50 150.832,50 C149.804,50 145.984,51.81 142.342,54.023 C134.106,59.027 132,58.719 132,52.51 C132,48.979 132.583,47.571 135.077,45.077 C136.769,43.385 138.993,42 140.018,42 C141.043,42 142.164,41.544 142.509,40.986 C142.854,40.428 145.018,39.017 147.318,37.851 C149.618,36.685 152.978,34.441 154.785,32.865 Z M178.5,81 C177.4,81.473 175.107,81.891 173.404,81.93 C169.78,82.012 165.045,84.188 162.592,86.899 C160.267,89.467 158.935,104.518 161.095,103.808 C161.868,103.554 162.642,102.143 162.816,100.672 C163.226,97.216 166.018,95.676 169.485,96.994 C171.866,97.9 172.074,98.414 171.801,102.71 C171.565,106.407 171.85,107.502 173.113,107.762 C174.283,108.003 176.273,105.051 180.363,97.008 C183.463,90.911 186,85.13 186,84.161 C186,80.54 182.755,79.172 178.5,81 Z M41.674,146.75 C42.422,145.487 49.039,145.915 49.405,147.25 C52.854,159.829 53.417,182.776 50.36,186.155 C49.188,187.449 47.585,187.997 45.551,187.799 L42.5,187.5 L42.368,176 C42.295,169.675 41.702,162.537 41.049,160.137 C40.003,156.292 40.344,148.999 41.674,146.75 Z M145.75,100.051 C142.623,104.572 142.363,106.226 144.5,108 C145.325,108.685 146,110.09 146,111.122 C146,112.285 146.707,113 147.858,113 C149.396,113 149.825,111.946 150.358,106.853 C151.639,94.595 150.593,93.051 145.75,100.051 Z"/>
</svg>

