<svg xmlns="http://www.w3.org/2000/svg" width="300" height="300" viewBox="0 0 300 300" version="1.1">
  <defs/>
  <path d="M144.113,17.524 C148.941,12.025 153,13.212 153,20.122 C153,23.359 152.315,24.448 147.75,28.467 C144.863,31.009 140.072,34.712 137.104,36.695 L131.709,40.3 L132.479,52.4 C132.903,59.055 133.176,66.412 133.085,68.75 C132.944,72.392 133.207,73 134.925,73 C136.027,73 137.462,71.987 138.113,70.75 C141.628,64.071 147.831,59.017 152.527,59.007 C156.504,58.998 159.082,60.938 161.361,65.651 C162.384,67.768 163.734,70.4 164.361,71.5 C165.76,73.956 165.37,131.44 163.936,134.119 C163.421,135.081 163,138.087 163,140.799 C163,147.279 160.26,151 155.49,151 C152.676,151 151.624,151.697 149.072,155.25 C145.128,160.741 131.308,172.469 127.734,173.358 C125.376,173.945 124.823,173.665 123.984,171.458 C123.443,170.034 123,167.472 123,165.764 C123,164.055 122.37,161.947 121.599,161.079 C118.797,157.92 118.214,152.8 119.652,143.959 C120.409,139.306 120.959,133.025 120.876,130 C120.641,121.491 121.882,95.573 123.037,84.855 C123.79,77.876 123.762,73.452 122.938,68.855 C122.311,65.36 121.849,61.6 121.912,60.5 C122.578,48.828 121.806,47.009 117.03,48.988 C114.36,50.093 113.693,50.032 112.031,48.528 C109.679,46.399 108.451,41.366 109.868,39.659 C110.442,38.967 113.181,37.819 115.954,37.108 C118.727,36.398 121.252,35.401 121.566,34.894 C121.879,34.387 123.952,33.045 126.172,31.912 C131.057,29.42 139.883,22.341 144.113,17.524 Z M73.472,63.413 C74.955,59.865 77.555,58.955 79.8,61.2 C80.528,61.928 81,65.467 81,70.2 C81,74.49 81.266,78 81.592,78 C82.224,78 84.242,76.502 93.101,69.455 C99.52,64.35 101.649,63.945 103.026,67.569 C104.772,72.161 103.223,74.702 95.643,79.679 C83.327,87.767 79.655,91.277 77.634,96.897 C76.625,99.703 75.394,102 74.9,102 C74.405,102 73.999,103.013 73.998,104.25 C73.997,106.325 66.542,121.914 63.372,126.473 C61.61,129.005 61.572,134 63.314,134 C64.037,134 66.848,131.061 69.561,127.47 C76.287,118.565 83.861,114.811 87.152,118.75 C91.675,124.166 92.287,133.207 88.57,139.707 C87.247,142.021 86.387,144.765 86.659,145.805 C87.631,149.52 84.484,154.587 79.795,156.857 C77.36,158.036 74.905,159 74.339,159 C73.773,159 72.495,159.9 71.5,161 C67.703,165.196 61,162.212 61,156.325 C61,153.467 59.209,149.368 56.159,145.242 C54.404,142.868 52.687,141.814 49.831,141.357 C43.848,140.4 41.152,134.083 44.617,129.136 C45.724,127.556 46.879,126.997 48.279,127.363 C51.29,128.15 53.515,126.562 56.246,121.676 C59.972,115.009 65.152,102.055 64.508,101.014 C64.005,100.199 54.992,103.325 49.628,106.175 C48.598,106.722 45.223,107.423 42.128,107.731 C39.032,108.04 35.612,108.902 34.527,109.647 C32.085,111.322 27.801,111.401 26.2,109.8 C24.628,108.228 24.659,103.501 26.25,102.305 C26.938,101.788 33.35,99.684 40.5,97.629 C47.65,95.574 57.325,92.005 62,89.696 L70.5,85.5 L71.273,76.163 C71.698,71.028 72.687,65.291 73.472,63.413 Z M174.672,188.433 C182.541,186.318 189.648,187.042 198.5,190.86 C199.6,191.335 202.075,192.414 204,193.26 C205.925,194.105 210.65,197.348 214.5,200.467 C218.35,203.585 224.2,207.429 227.5,209.007 C230.8,210.586 234.837,213.014 236.471,214.403 L239.443,216.928 L236.534,219.964 C233.336,223.303 230.907,223.798 229,221.5 C228.315,220.675 226.798,219.998 225.628,219.996 C224.457,219.993 221.25,218.303 218.5,216.239 C194.514,198.236 185.498,195.03 174.5,200.591 C171.75,201.981 167.902,203.716 165.948,204.445 C160.086,206.634 151,212.914 150.996,214.781 C150.993,215.726 152.169,220.207 153.609,224.738 C156.718,234.521 156.375,237.841 151.682,243.388 C148.481,247.17 148.181,247.289 140.623,247.774 C132.366,248.304 124.284,246.679 116.5,242.924 C114.3,241.863 111.786,240.996 110.914,240.997 C106.045,241.006 88.414,225.848 86.045,219.618 C84.578,215.76 85.597,214.683 90.14,215.292 C93.261,215.711 95.604,217.302 102.094,223.406 C106.533,227.583 110.939,231 111.883,231 C112.827,231 114.076,231.476 114.657,232.057 C115.966,233.366 135.17,239 138.322,239 C141.51,239 144.786,235.657 145.541,231.632 C145.925,229.587 145.439,225.362 144.309,220.917 L142.443,213.577 L137.192,211.539 C130.345,208.881 124.99,204.551 125.033,201.707 C125.07,199.24 128.196,195 129.977,195 C130.613,195 132.566,196.063 134.317,197.362 C137.86,199.991 143.143,202 146.511,202 C149.424,202 160.412,196.742 165.672,192.832 C167.967,191.126 172.017,189.146 174.672,188.433 Z M51.25,208.648 C55.124,206.738 55.169,206.734 58.44,207.977 C59.854,208.515 61.752,210.509 62.658,212.409 C64.268,215.786 64.219,216.131 60.48,227.682 C58.376,234.182 56.109,240.175 55.442,241 C54.774,241.825 53.098,244.75 51.716,247.5 C48.469,253.963 34.518,272.652 31.891,274.059 C29.05,275.579 25,272.847 25,269.411 C25,266.281 26.655,263.021 28.285,262.939 C29.328,262.887 30.804,261.25 37.5,252.72 C42.279,246.632 50.765,229.222 51.669,223.651 C52.056,221.265 51.665,220.007 50.092,218.583 C48.794,217.409 48,215.467 48,213.47 C48,210.832 48.588,209.96 51.25,208.648 Z M147.196,74.298 C145.438,76.111 144,78.038 144,78.579 C144,79.12 141.3,82.234 138,85.5 L132,91.437 L132,97.719 C132,101.701 132.411,104 133.124,104 C133.742,104 136.943,102.2 140.238,100 C146.048,96.12 151.18,94.865 152.5,97 C152.84,97.55 153.766,98 154.559,98 C155.723,98 156,95.967 156,87.434 C156,77.37 155.154,73.47 152.6,71.765 C150.906,70.634 150.615,70.771 147.196,74.298 Z M80.43,33.965 C83.469,32.735 84.771,32.83 88.05,34.526 C89.778,35.42 91,36.855 91,37.991 C91,39.967 85.49,47 83.941,47 C83.472,47 81.381,48.161 79.294,49.579 C77.207,50.998 72.167,53.763 68.093,55.724 C61.059,59.111 60.619,59.199 59.356,57.472 C58.624,56.471 57.731,54.084 57.371,52.166 C56.683,48.498 58.529,46.005 61.941,45.996 C62.799,45.993 65.525,44.645 68,43 C70.475,41.355 73.052,40.007 73.727,40.004 C74.402,40.002 75.72,38.831 76.657,37.401 C77.593,35.972 79.291,34.426 80.43,33.965 Z M147.261,132.806 C143.569,137.184 139.253,139.991 131.75,142.893 C129.112,143.914 129,144.243 129,150.979 C129,160.309 130.383,160.218 139.538,150.291 C145.036,144.329 147.297,142.553 149.513,142.456 C151.818,142.355 152.62,141.663 153.613,138.915 C154.292,137.037 154.882,133.813 154.924,131.75 C155.032,126.42 152.331,126.792 147.261,132.806 Z M150,107.652 C148.781,108.053 139.419,112.387 132,115.985 C128.929,117.474 129.951,131 133.134,131 C133.719,131 137.812,127.175 142.229,122.5 C146.646,117.825 151.011,114 151.93,114 C154.274,114 156,112.007 156,109.3 C156,106.987 153.83,106.391 150,107.652 Z M72.569,139.929 C68.725,143.866 68.238,147 71.469,147 C74.27,147 79,140.678 79,136.935 C79,134.898 76.215,136.195 72.569,139.929 Z"/>
</svg>

