<svg xmlns="http://www.w3.org/2000/svg" width="300" height="300" viewBox="0 0 300 300" version="1.1">
  <defs/>
  <path d="M158.65,119.974 C164.643,118.816 166.495,118.891 170.207,120.442 C174.827,122.372 175.691,123.615 176.503,129.5 C176.883,132.25 178.106,136.3 179.222,138.5 C181.11,142.224 181.204,143.667 180.594,159.396 C180.233,168.688 179.693,176.688 179.394,177.172 C178.716,178.269 177.836,189.083 177.97,194.67 C178.024,196.963 177.604,199.127 177.035,199.479 C176.466,199.83 176,202.244 176,204.843 C176,208.999 175.65,209.776 173.096,211.284 C169.238,213.563 166.931,213.45 166.277,210.952 C165.965,209.757 165.074,209.032 164.141,209.211 C162.951,209.441 162.492,210.841 162.354,214.667 C162.251,217.498 161.471,220.878 160.619,222.179 C159.767,223.479 158.941,226.077 158.785,227.953 C158.501,231.354 158.52,231.37 165.5,233.596 C169.35,234.823 174.975,236.779 178,237.942 C181.025,239.104 187.55,241.416 192.5,243.079 C197.45,244.742 205.656,248.105 210.736,250.552 C215.815,252.998 220.315,255.008 220.736,255.019 C221.887,255.047 235.248,261.929 236.985,263.388 C237.818,264.089 240.75,265.924 243.5,267.466 C246.25,269.009 249.425,271.106 250.556,272.127 C251.686,273.148 255.286,275.292 258.556,276.892 C266.471,280.764 273,286.473 273,289.521 C273,291.923 269.717,295 267.155,295 C266.385,295 262.934,292.361 259.486,289.136 C256.038,285.91 252.059,282.981 250.643,282.625 C247.837,281.921 239.973,276.995 236,273.454 C234.625,272.228 232.375,270.887 231,270.475 C229.625,270.062 227.427,268.887 226.115,267.862 C224.803,266.838 223.177,266 222.5,266 C221.823,266 220.197,265.178 218.885,264.173 C217.573,263.169 214.646,261.621 212.379,260.733 C210.113,259.846 205.215,257.682 201.496,255.924 C197.776,254.167 193.331,252.376 191.617,251.943 C189.902,251.511 184.675,249.719 180,247.961 C160.558,240.649 158.73,240.155 153.192,240.722 L147.883,241.266 L137.821,252.703 C132.287,258.994 126.733,264.531 125.48,265.008 C124.227,265.484 122.513,266.858 121.671,268.06 C120.828,269.262 119.223,270.753 118.104,271.373 C114.743,273.234 100.676,282.792 98.092,284.97 C94.874,287.682 91.846,287.53 89.011,284.511 C86.817,282.177 86.754,281.774 87.996,278.011 C89.391,273.786 90.934,273.011 93,275.5 C93.685,276.325 94.583,277 94.997,277 C96.965,277 114.507,262.552 122.844,254.064 C138.179,238.451 139.503,236.329 133.5,236.99 C131.53,237.207 131.528,237.179 133.405,235.105 C134.47,233.929 136.534,233 138.084,233 C141.19,233 148,227.294 148,224.691 C148,222.207 146.273,221.775 143.528,223.573 C141.198,225.1 140.807,225.104 138.54,223.618 C136.55,222.315 135.595,222.227 133.544,223.162 C131.425,224.127 130.67,224.011 128.95,222.454 C127.039,220.725 126.896,219.51 126.957,205.546 C127.056,182.888 126.114,156.363 124.932,148.5 C122.958,135.382 122.338,126.527 123.301,125.25 C124.741,123.342 128.801,123.759 129.965,125.934 C130.534,126.998 131,128.997 131,130.375 C131,131.754 131.373,133.113 131.829,133.394 C132.285,133.676 133.261,136.421 133.999,139.494 C135.709,146.623 137.966,146.634 139.726,139.521 C141.377,132.847 152.733,121.117 158.65,119.974 Z M184.646,59.441 C189.7,54.91 191.775,54.175 193.8,56.2 C196.882,59.282 192.62,68.037 186.624,70.94 C184.284,72.073 181.793,73 181.089,73 C180.385,73 178.399,74.013 176.675,75.25 C174.952,76.487 172.664,77.95 171.59,78.5 C170.517,79.05 169.335,80.625 168.962,82 C168.589,83.375 166.195,88.417 163.642,93.204 C161.089,97.992 159,102.526 159,103.28 C159,104.034 157.875,105.708 156.5,107 C155.125,108.292 154,109.893 154,110.558 C154,112.269 146.323,119 144.372,119 C141.906,119 143.283,113.994 147.391,108.022 C149.287,105.265 151.156,101.545 151.544,99.755 C151.931,97.965 153.002,95.375 153.923,94 C156.532,90.105 158.01,86.124 157.065,85.54 C155.914,84.829 150,86.051 150,87 C150,87.412 148.686,88.013 147.08,88.334 C143.059,89.138 142.305,92.156 144.988,96.704 C147.626,101.175 147.007,104.709 143.429,105.607 C140.296,106.393 136.326,103.037 135.186,98.637 C133.93,93.789 131.959,93.289 125.861,96.27 C122.912,97.711 118.025,100.065 115,101.5 C111.975,102.936 107.925,104.964 106,106.007 C104.075,107.05 101.513,107.926 100.307,107.952 C97.629,108.011 95,104.503 95,100.873 C95,98.676 95.962,97.648 100.323,95.187 C103.251,93.534 107.863,91.494 110.573,90.653 C113.283,89.812 118.875,87.783 123,86.143 L130.5,83.163 L131.5,75.331 C132.402,68.266 132.725,67.468 134.805,67.173 C138.318,66.675 140,68.728 140,73.515 C140,76.29 140.499,77.978 141.425,78.333 C144.373,79.464 154.506,75.589 158.75,71.709 C160.429,70.173 161,68.538 161,65.26 C161,59.802 162.427,57 165.206,57 C167.598,57 171,59.661 171,61.533 C171,63.716 173.626,65.025 176.753,64.399 C178.424,64.065 181.976,61.834 184.646,59.441 Z M53.084,76.399 C54.347,74.877 59.505,75.278 61.389,77.045 C61.878,77.503 62.855,80.943 63.56,84.689 C64.265,88.435 65.563,94.65 66.445,98.5 C68.313,106.649 69.928,130.177 69.831,147.798 C69.793,154.562 70.07,160.403 70.445,160.778 C70.82,161.154 74.541,161.545 78.713,161.649 C85.775,161.825 86.514,162.055 89.4,164.974 L92.5,168.11 L89.8,170.464 C87.306,172.639 86.488,172.776 79.05,172.266 C74.623,171.963 70.967,171.891 70.926,172.107 C70.886,172.323 70.635,180.15 70.368,189.5 C70.101,198.85 69.46,207.853 68.944,209.507 C68.428,211.161 68.057,217.395 68.12,223.361 C68.225,233.184 68.034,234.41 66.104,236.341 C64.417,238.028 63.61,238.244 62.236,237.377 C60.644,236.373 60.487,233.223 60.34,199.391 C60.099,143.89 59.02,111.829 57.19,105.819 C56.634,103.993 55.891,100.475 55.539,98 C55.187,95.525 54.159,92.375 53.255,91 C51.315,88.05 51.205,78.663 53.084,76.399 Z M148.226,7.25 C149.431,5.771 151.907,5.655 154,6.98 C155.157,7.713 155.5,10.048 155.5,17.192 C155.5,27.828 156.593,29.045 162.297,24.759 C164.059,23.436 166.236,22.082 167.135,21.752 C169.722,20.801 173,23.728 173,26.989 C173,30.227 169.851,32.96 163.897,34.89 C157.905,36.832 155.853,39.878 155.278,47.681 C155.002,51.432 154.151,55.497 153.388,56.715 C152.624,57.933 151.998,60.183 151.995,61.715 C151.992,63.247 150.921,65.837 149.613,67.471 C147.494,70.119 147.05,70.286 145.515,69.012 C143.734,67.535 143.737,66.884 145.595,50.442 C146.4,43.322 145.043,42.405 137.533,44.989 C134.361,46.08 131.473,46.793 131.116,46.572 C130.759,46.351 128.261,46.583 125.564,47.087 C121.52,47.843 120.34,47.713 118.83,46.346 C116.563,44.295 116.527,42.61 118.671,38.98 C120.553,35.793 125.885,34 133.475,34 C135.999,34 139.625,33.348 141.532,32.551 L145,31.102 L145.006,23.801 C145.011,16.435 146.351,9.552 148.226,7.25 Z M152.988,137.826 C149.969,141.03 146.155,144.296 144.512,145.083 C142.869,145.871 141.352,147.412 141.141,148.508 C140.93,149.603 139.687,151.772 138.378,153.327 C135.266,157.026 134.447,160.578 135.824,164.401 C136.438,166.105 137.067,170.537 137.22,174.25 C137.496,180.909 137.538,180.999 140.3,181 C144.654,181 148.373,178.569 155.709,170.928 C162.136,164.234 162.685,163.891 166.49,164.188 L170.5,164.5 L170.807,160.25 C171.136,155.71 169.479,154.513 167,157.5 C166.315,158.325 165.316,159 164.779,159 C162.972,159 156.53,162.34 152.856,165.182 C148.627,168.452 145.977,168.737 143.655,166.171 C140.331,162.499 142.122,157 146.641,157 C147.874,157 149.171,156.532 149.525,155.959 C149.879,155.387 152.033,153.742 154.312,152.303 C156.591,150.864 159.11,149.033 159.91,148.233 C160.945,147.198 162.599,146.947 165.639,147.364 C168.073,147.698 170.179,147.52 170.53,146.951 C171.387,145.565 168.093,136.978 165.659,134.25 C162.258,130.438 159.111,131.326 152.988,137.826 Z M162.75,178.791 C160.688,180.281 158.294,182.521 157.431,183.768 C156.567,185.016 153.551,187.207 150.729,188.637 C145.643,191.215 145.567,191.222 142.224,189.421 C136.45,186.312 135.692,187.698 135.589,201.553 L135.5,213.5 L139.425,213.152 C144.255,212.723 149.9,209.254 155.923,203.014 C158.44,200.406 161.956,197.528 163.736,196.618 C165.524,195.703 167.174,193.966 167.425,192.732 C167.674,191.504 168.171,189.15 168.528,187.5 C168.885,185.85 169.408,182.588 169.689,180.25 C170.131,176.587 169.946,176.006 168.351,176.041 C167.333,176.063 164.813,177.301 162.75,178.791 Z M32.553,139.17 C32.869,138.226 33.941,138.042 36.249,138.536 C41.993,139.764 42,139.787 42,158.515 C42,176.843 41.958,177 37.106,177 C35.076,177 31.007,171.875 30.985,169.29 C30.976,168.306 30.558,166.849 30.054,166.054 C29.481,165.147 29.556,163.842 30.256,162.554 C30.871,161.424 31.539,156 31.741,150.5 C31.943,145 32.309,139.902 32.553,139.17 Z"/>
</svg>

