<svg xmlns="http://www.w3.org/2000/svg" width="300" height="300" viewBox="0 0 300 300" version="1.1">
  <defs/>
  <path d="M138.473,1.355 C139.873,0.393 144.066,0 152.937,0 C164.043,0 165.262,0.166 163.928,1.501 C162.205,3.223 152.011,7 149.084,7 C148.003,7 146.866,7.408 146.558,7.906 C146.25,8.404 141.029,10.724 134.957,13.061 C123.191,17.589 120.899,19.498 119.505,25.932 C119.096,27.82 117.887,30.92 116.82,32.821 C114.011,37.822 115.837,38.476 121.457,34.481 C126.831,30.659 128.49,30.335 132.368,32.347 C135.106,33.768 142.184,42.174 143.361,45.404 C143.995,47.143 145.46,72.807 145.194,77.5 C145.131,78.6 144.645,82.65 144.114,86.5 C142.916,95.186 143.477,98 146.408,98 C147.614,98 149.093,97.507 149.696,96.904 C151.261,95.339 164.4,93.003 171.641,93.001 C178.298,93 185.07,95.392 187.502,98.605 C189.154,100.787 189.479,106.586 188,107.5 C187.45,107.84 187,108.744 187,109.509 C187,111.097 182.082,118.633 179.336,121.252 C171.595,128.636 160.798,134.627 157.507,133.364 C155.052,132.422 158.095,128.007 166.458,120.378 C170.604,116.595 173.997,112.993 173.998,112.372 C173.999,111.752 174.675,110.685 175.5,110 C177.504,108.337 177.396,105.655 175.25,103.786 C173.829,102.549 172.149,102.413 166.31,103.064 C162.356,103.505 158.297,104.306 157.291,104.844 C156.285,105.383 152.546,106.792 148.981,107.977 C140.663,110.74 134.038,113.82 131.472,116.117 C130.357,117.115 127.58,118.959 125.301,120.216 C114.993,125.9 107.119,131.304 102.985,135.534 C100.518,138.057 96.969,140.853 95.097,141.747 C93.226,142.641 87.248,147.789 81.812,153.186 C70.784,164.138 68.881,164.877 62.898,160.533 C61.029,159.176 58.375,157.293 57,156.349 C55.625,155.404 53.6,153.865 52.5,152.929 C50.286,151.045 42.081,148.518 34.724,147.455 C29.266,146.667 27,144.303 27,139.4 C27,135.626 29.148,133.552 32.244,134.337 C38.16,135.837 50.918,140.374 54.5,142.251 C56.7,143.404 60.295,146.069 62.49,148.173 C67.251,152.74 69.442,152.979 71.423,149.148 C72.234,147.58 74.608,144.894 76.699,143.179 C78.79,141.465 81.4,139.216 82.5,138.183 C83.6,137.15 86.975,134.562 90,132.431 C93.025,130.301 95.725,128.25 96.001,127.873 C96.748,126.851 106.849,120 107.609,120 C107.97,120 112.194,117.35 116.996,114.111 C121.798,110.872 126.629,107.935 127.731,107.585 C130.99,106.551 132.616,103.903 134.357,96.794 C136.255,89.049 136.452,85 134.933,85 C134.347,85 132.392,86.125 130.589,87.5 C128.786,88.875 126.968,90 126.55,90 C126.131,90 124.083,91.35 122,93 C119.757,94.776 117.027,96 115.306,96 C111.172,96 110,97.674 110,103.578 C110,113.362 105.355,119.441 100.935,115.441 C99.254,113.92 99.092,112.815 99.643,106.601 C99.989,102.696 100.688,98.971 101.197,98.325 C101.705,97.679 102.206,90.254 102.31,81.825 C102.502,66.358 101.474,59.684 98.322,55.921 C96.066,53.228 96.844,49.29 100.961,42.564 C104.85,36.209 109.508,24.174 108.476,23.143 C108.188,22.854 103.125,23.829 97.226,25.309 C91.327,26.789 84.783,28 82.684,28 C80.586,28 78.111,28.401 77.184,28.891 C76.258,29.382 71.909,29.944 67.52,30.141 L59.54,30.5 L58.934,26.793 C58.601,24.754 58.593,22.658 58.917,22.135 C59.935,20.488 71.201,18.23 78.725,18.165 C83.737,18.122 89.072,17.169 96.149,15.052 C101.759,13.373 107.639,12 109.215,12 C110.79,12 113.749,11.162 115.79,10.138 C117.83,9.114 123.325,7.024 128,5.493 C132.675,3.962 137.388,2.1 138.473,1.355 Z M111.655,185.829 C113.529,183.758 115.27,183.539 118.043,185.023 C122.343,187.324 122.429,191.76 118.32,199.34 C116.166,203.314 118.06,205.22 121.237,202.276 C126.266,197.614 134.567,191.998 136.473,191.968 C137.588,191.951 139.374,191.276 140.441,190.468 C145.003,187.018 151.013,189.916 151.106,195.611 C151.188,200.637 148.418,212.347 146.167,216.485 C144.975,218.677 144,221.209 144,222.113 C144,223.016 143.366,224.281 142.592,224.924 C141.818,225.566 140.435,227.534 139.519,229.296 C136.535,235.038 135.35,236.955 133.574,238.919 C130.806,241.977 131.959,244.257 137.006,245.702 C139.477,246.41 142.85,247.608 144.5,248.365 C146.15,249.122 149.975,250.509 153,251.447 C160.044,253.632 177.637,260.409 181.517,262.432 C183.157,263.288 185.022,263.99 185.659,263.994 C186.719,263.999 202.584,271.458 211,275.907 C212.925,276.925 222.375,281.706 232,286.532 C241.625,291.357 250.824,296.405 252.441,297.749 L255.383,300.193 L244.86,299.847 C235.193,299.528 234.045,299.276 230.735,296.75 C228.754,295.238 226.786,294 226.361,294 C225.935,294 222.418,292.469 218.544,290.598 C214.67,288.726 207.45,285.306 202.5,282.996 C197.55,280.687 192.825,278.414 192,277.945 C187.177,275.207 175.791,269.946 171.5,268.473 C168.75,267.529 165.15,266.181 163.5,265.478 C161.85,264.774 158.261,263.45 155.525,262.535 C152.788,261.619 150.088,260.51 149.525,260.07 C148.17,259.011 126.663,252 124.77,252 C123.959,252 121.174,254.7 118.581,258 C115.989,261.3 113.335,264.003 112.684,264.007 C112.033,264.011 110.432,265.581 109.127,267.497 C107.823,269.414 102.873,273.804 98.127,277.254 C84.789,286.952 77.878,289.88 66.395,290.699 C60.686,291.106 58.073,290.927 57.558,290.095 C56.31,288.075 59.069,286 63.002,286 C69.109,286 78.424,281.191 90.5,271.805 C102.347,262.597 114.483,249.95 113.707,247.622 C113.511,247.033 112.034,246.268 110.425,245.921 C108.816,245.574 104.575,244.077 101,242.594 L94.5,239.897 L89.193,245.698 C86.274,248.889 82.674,253.375 81.193,255.667 C79.712,257.959 76.216,262.234 73.425,265.167 C70.633,268.1 67.513,271.85 66.49,273.5 C61.878,280.941 59.209,282.404 55.829,279.345 C52.894,276.689 53.624,273.467 58.25,268.659 C69.387,257.082 83.452,238.621 82.676,236.597 C81.841,234.423 57.926,227.705 51.773,227.917 C48.381,228.033 47.908,227.715 46.516,224.383 C44.354,219.209 45.684,218 53.54,218 C57.555,218 61.479,218.705 64.377,219.947 C66.875,221.018 70.625,222.208 72.709,222.591 C74.794,222.975 78.834,224.349 81.686,225.644 C84.538,226.94 87.497,228 88.262,228 C93.046,228 109.895,197.813 109.985,189.079 C109.993,188.297 110.745,186.835 111.655,185.829 Z M162.006,138.184 C170.067,131.766 175,132.819 175,140.957 C175,143.185 173.851,145.291 170.873,148.522 C167.031,152.69 166.391,153.002 161.623,153.035 C158.805,153.055 155.424,153.667 154.108,154.397 C152.662,155.198 150,155.529 147.376,155.233 C143.871,154.838 142.905,155.083 142.36,156.504 C141.988,157.473 142.205,159.099 142.842,160.119 C143.479,161.139 144,164.376 144,167.312 C144,171.667 143.554,173.07 141.58,174.925 C139.322,177.046 138.535,177.163 129.83,176.674 C117.185,175.963 113.972,175.209 110.75,172.197 C107.669,169.317 106.989,164.325 109.544,163.345 C110.393,163.019 113.431,163.315 116.294,164.003 C119.157,164.691 124.192,165.309 127.481,165.377 C135.819,165.549 135.823,163.827 127.504,155.467 C122.289,150.226 120.95,148.273 121.192,146.258 C121.707,141.984 123.759,141.478 135.175,142.809 C149.654,144.496 155.301,143.523 162.006,138.184 Z M135.063,203.725 C134.272,204.036 132.565,205.552 131.269,207.092 C129.973,208.633 127.919,210.192 126.706,210.557 C125.493,210.922 123.065,212.583 121.311,214.248 C118.483,216.931 117.66,217.201 114.061,216.626 C111.641,216.239 110,216.371 110,216.953 C110,217.491 108.712,219.409 107.139,221.215 C103.291,225.632 100.977,230.344 101.912,231.857 C102.333,232.538 104.887,233.701 107.589,234.441 C110.29,235.18 114.276,236.552 116.447,237.489 L120.395,239.192 L123.163,235.846 C126.642,231.641 136,214.139 136,211.837 C136,210.892 136.45,209.84 137,209.5 C138.152,208.788 138.379,202.96 137.25,203.079 C136.838,203.122 135.853,203.413 135.063,203.725 Z M95.364,148.457 C98.106,146.537 100.016,146.663 102.75,148.944 C105.097,150.902 105.611,153.807 104.131,156.764 C103.653,157.719 102.078,160.859 100.631,163.743 C99.184,166.626 98,169.716 98,170.608 C98,173.208 89.622,185.02 83.549,190.984 C78.728,195.717 77.727,196.298 76.232,195.231 C75.279,194.551 73.487,193.557 72.25,193.022 C68.778,191.521 69.889,184 73.583,184 C76.13,184 84.333,174.792 87.414,168.475 C89.017,165.189 90.715,161.703 91.186,160.728 C91.658,159.754 92.323,156.922 92.664,154.436 C93.068,151.484 94.006,149.409 95.364,148.457 Z M123.787,45.06 C122.844,45.609 119.829,48.244 117.086,50.916 L112.098,55.775 L112.232,62.989 C112.386,71.304 113.801,72.818 117.253,68.363 C122.737,61.286 126.683,57.812 130.013,57.131 C134.989,56.113 135.451,51.008 131,46.23 C128.766,43.833 126.517,43.468 123.787,45.06 Z M124.72,75.568 C119.238,80.123 117.466,81.083 115.47,80.582 C113.473,80.081 113,80.337 113,81.922 C113,83 113.43,84.148 113.956,84.473 C115.442,85.391 121.141,82.545 124.942,78.986 C126.835,77.213 129.985,75.208 131.942,74.531 C135.804,73.193 136.715,70.672 133.5,70.217 C132.262,70.042 128.917,72.08 124.72,75.568 Z"/>
</svg>

