<svg xmlns="http://www.w3.org/2000/svg" width="300" height="300" viewBox="0 0 300 300" version="1.1">
  <defs/>
  <path d="M195,25.82 C197.716,24.59 198.942,24.961 203.887,28.515 C207.719,31.267 209.118,33.064 210.341,36.803 C211.747,41.103 211.751,42.307 210.38,48.934 C209.2,54.635 208.038,57.27 205.217,60.645 C201.944,64.561 201.137,65 197.222,65 C191.389,65 189.391,66.251 187.061,71.365 C185.982,73.735 184.341,76.302 183.413,77.072 C181.113,78.981 177,85.626 177,87.433 C177,89.386 179.132,94 180.034,94 C180.426,94 182.656,92.256 184.988,90.124 C190.817,84.795 200.771,79.807 203.094,81.05 C205.051,82.098 208.516,86.663 211.35,91.928 C214.3,97.409 215.627,111.467 216.03,141.5 C216.54,179.545 216.842,183.533 214.994,185.598 C214.552,186.092 213.987,186.477 213.272,187.191 C210.166,190.296 209.909,190.369 206.474,189.127 C202.354,187.637 200,188.805 200,192.339 C200,193.491 199.27,196.344 198.379,198.679 C197.487,201.014 197.012,203.589 197.324,204.401 C197.635,205.213 204.327,209.056 212.195,212.941 C220.063,216.826 227.175,220.378 228,220.834 C228.825,221.29 231.075,222.488 233,223.497 C243.64,229.071 247.401,231.659 255.135,238.722 C259.819,243 265.799,248.075 268.424,250 C271.049,251.925 274.84,254.875 276.848,256.555 C278.857,258.235 282.997,261.236 286.049,263.225 C289.101,265.213 293.488,268.891 295.799,271.398 C299.91,275.858 300,276.107 300,283.046 L300,290.136 L297.096,288.068 C295.498,286.931 293.846,286 293.424,286 C291.862,286 289,282.629 289,280.789 C289,278.514 284.812,274.493 276,268.308 C267.434,262.296 263.113,258.739 255.583,251.5 C252.15,248.2 247.802,244.446 245.921,243.158 C242.707,240.958 231.049,233.32 228.61,231.816 C224.23,229.116 195.9,215.908 193.465,215.431 C190.584,214.866 190.311,215.107 188.073,220.168 C186.776,223.101 184.928,226.4 183.966,227.5 C183.004,228.6 181.303,231.536 180.186,234.025 C179.069,236.513 177.22,239.396 176.078,240.43 C174.935,241.464 174,242.727 174,243.237 C174,243.748 171.3,247.655 168,251.921 C164.7,256.187 162,260.174 162,260.782 C162,261.389 161.103,262.515 160.007,263.283 C158.911,264.051 156.773,266.512 155.257,268.753 C151.338,274.544 140.267,286 138.59,286 C137.23,286 131.984,280.553 132.015,279.173 C132.059,277.214 134.849,270.824 136.418,269.09 C137.726,267.646 138.999,267.25 141.031,267.656 C143.47,268.144 144.163,267.702 146.323,264.28 C147.69,262.114 150.539,258.251 152.654,255.695 C158.165,249.036 160.513,245.847 162.004,243 C162.725,241.625 164.052,239.825 164.954,239 C166.88,237.239 170.886,230.466 176.19,220 C180.236,212.018 181.338,205.273 178.413,206.395 C177.539,206.73 175.075,207.284 172.935,207.626 C169.347,208.2 168.962,208.03 167.977,205.44 C165.793,199.694 166.603,198.666 177,193.995 C179.475,192.883 183.023,190.629 184.886,188.986 C186.748,187.344 188.721,186 189.271,186 C189.821,186 191.236,184.987 192.416,183.75 C193.596,182.512 196.12,180.375 198.025,179 C206.218,173.084 206.778,172.102 206.724,163.735 C206.688,158.134 206.3,155.945 205.273,155.551 C203.939,155.039 197.333,159.242 188.413,166.277 C186.165,168.05 183.123,170.4 181.654,171.5 C179.523,173.095 178.899,174.513 178.572,178.5 C177.924,186.397 176.975,189.534 174.829,190.875 C173.182,191.903 172.384,191.826 170.262,190.436 C167.853,188.857 167.512,188.857 164.843,190.433 C163.277,191.359 161.55,191.84 161.006,191.503 C160.461,191.167 157.199,190.439 153.758,189.886 C150.316,189.334 144.928,187.729 141.786,186.32 C133.018,182.391 133.007,182.408 132.957,200.219 C132.908,218.068 132.312,232.94 131.434,238.289 C130.474,244.127 124.342,246.938 122.58,242.348 C122.264,241.524 122.512,237.621 123.131,233.675 C123.751,229.729 124.312,215.978 124.379,203.119 C124.489,181.863 124.341,179.636 122.75,178.624 C120.302,177.066 118.116,178.664 115.026,184.266 C113.637,186.786 111.487,189.924 110.25,191.239 C109.013,192.553 108,193.974 108,194.396 C108,194.818 106.425,197.085 104.5,199.435 C102.575,201.784 101,204.122 101,204.631 C101,205.964 97.676,208.614 93.03,210.984 L89,213.041 L84.943,210.971 C81.205,209.064 80.909,208.617 81.193,205.302 C81.585,200.706 83.919,199.084 87.433,200.964 C88.843,201.719 90.145,202.148 90.327,201.918 C90.508,201.688 91.945,199.7 93.519,197.5 C95.094,195.3 97.578,192.15 99.039,190.5 C101.693,187.504 109.536,174.727 111.624,170 C112.231,168.625 113.64,165.475 114.753,163 C119.496,152.462 122.226,144.893 121.534,144.2 C121.296,143.963 119.647,144.276 117.868,144.896 C114.929,145.921 114.369,145.772 111.728,143.262 C108.288,139.993 106,135.905 106,133.028 C106,129.706 100.936,122.985 97.065,121.169 C94.043,119.752 93.453,118.932 93.192,115.791 C92.489,107.323 97.176,106.094 104.317,112.875 C108.006,116.379 108.181,116.435 109.567,114.559 C110.355,113.491 111,111.836 111,110.88 C111,108.792 116.344,103.271 121.053,100.494 C124.084,98.707 124.465,98 124.555,93.994 C124.675,88.669 122.081,71.878 120.945,70.626 C119.775,69.336 113.977,71.648 110.838,74.655 C105.371,79.893 102.103,74.047 106.123,66.222 C107.761,63.033 109.899,60.782 113,58.981 C117.264,56.505 117.5,56.135 117.5,51.934 C117.5,49.495 117.864,46.938 118.309,46.25 C119.629,44.211 123.632,44.82 126.882,47.554 L129.917,50.108 L133.943,47.804 C137.694,45.658 138.159,45.605 140.728,47.034 C142.245,47.878 143.642,49.381 143.833,50.374 C144.273,52.658 140.605,56.628 135.759,59.113 L132.017,61.032 L132.441,73.766 C132.92,88.16 133.689,93 135.498,93 C136.184,93 138.885,92.054 141.5,90.897 C147.196,88.377 149.946,89.182 152.391,94.083 C154.306,97.921 154.366,99.224 152.846,103.929 C150.723,110.501 149.076,113.47 145.04,118 C142.835,120.475 141.024,123.095 141.016,123.822 C141.007,124.549 139.897,127.026 138.549,129.327 C136.509,132.807 135.9,135.802 134.921,147.154 C133.551,163.058 134.303,173.861 136.837,174.643 C137.751,174.926 142.1,176.443 146.5,178.016 C153.45,180.5 157.801,181.433 166.485,182.301 C168.933,182.546 169.803,178.356 170.49,163 C170.748,157.225 171.382,146.875 171.9,140 C173.459,119.281 172.353,99.798 169.375,95.527 C167.584,92.959 167.63,90.552 169.5,89 C170.325,88.315 171.007,86.798 171.015,85.628 C171.031,83.219 173.364,76.13 175.5,72 C177.534,68.067 179.968,60.823 179.985,58.654 C179.993,57.639 180.931,55.502 182.068,53.904 C185.462,49.139 192,50.321 192,55.7 C192,58.424 195.006,58.851 197.391,56.466 C198.976,54.881 200.985,48.872 200.994,45.684 C201.01,40.69 194.781,37.429 191.229,40.572 C187.151,44.18 179.477,50 178.798,50 C178.391,50 176.033,51.428 173.557,53.173 C169.612,55.954 168.743,56.204 166.528,55.195 C163.179,53.669 163.34,51.292 167.14,46.125 C170.098,42.102 182.277,32 184.169,32 C184.648,32 186.943,30.762 189.27,29.25 C191.596,27.738 194.175,26.194 195,25.82 Z M54.571,74.571 C58.19,70.953 61.636,73.316 63.785,80.89 C69.346,100.49 70.032,107.125 70.084,141.872 L70.131,173.244 L75.884,172.593 C80.766,172.04 81.896,172.227 83.343,173.826 C84.281,174.863 84.807,176.339 84.512,177.108 C83.574,179.553 75.585,183.945 72.493,183.716 C68.333,183.407 67.398,186.029 65.612,203 C62.806,229.656 61.902,233 57.5,233 C53.19,233 52.572,230.001 54.429,218.104 C55.34,212.272 56.5,205.475 57.007,203 C59.131,192.641 61.216,150.354 60.706,128 C60.257,108.331 59.887,104.368 57.765,96.499 C56.429,91.548 54.811,86.515 54.168,85.314 C52.506,82.208 52.723,76.42 54.571,74.571 Z M194.924,97.595 C193.591,99.022 191.227,100.852 189.671,101.661 C186.231,103.451 184.248,107.923 182.961,116.798 C182.427,120.484 181.716,124.963 181.381,126.75 C180.88,129.427 181.087,130 182.553,130 C184.338,130 186.627,128.156 194.652,120.25 C197.025,117.912 199.339,116 199.795,116 C200.25,116 201.646,115.047 202.896,113.882 C204.962,111.957 205.105,111.209 204.46,105.657 C203.274,95.433 199.737,92.443 194.924,97.595 Z M30.108,136.37 C31.604,134.568 34.035,134.636 36.777,136.557 C38.909,138.05 39,138.738 39,153.357 C39,161.741 38.578,169.027 38.063,169.55 C37.548,170.072 36.985,172.525 36.813,175 C36.521,179.204 36.299,179.52 33.449,179.799 C31.412,179.998 29.811,179.449 28.634,178.148 C27.08,176.431 27.016,175.679 28.097,171.849 C28.862,169.139 29.258,161.891 29.148,152.62 C29.031,142.73 29.353,137.28 30.108,136.37 Z M199.308,131.403 C197.002,133.218 192.62,135.966 189.57,137.509 C186.521,139.052 183.393,141.031 182.62,141.907 C180.818,143.949 179.912,158 181.582,158 C182.983,158 186.967,155.025 193.164,149.351 C195.729,147.003 199.104,144.801 200.664,144.457 C202.224,144.114 204.055,143.662 204.734,143.454 C206.259,142.986 206.031,127.973 204.5,128.051 C203.95,128.08 201.613,129.588 199.308,131.403 Z M119.25,116.945 C113.873,122.986 112.888,126.054 115.035,130.066 C116.622,133.031 118.533,132.407 122.433,127.647 C125.663,123.705 126,122.714 126,117.147 C126,113.766 125.662,111.01 125.25,111.023 C124.838,111.036 122.138,113.701 119.25,116.945 Z M136.2,104.2 C134.548,105.852 134.637,112 136.312,112 C138.172,112 142.271,106.147 141.612,104.431 C140.944,102.689 137.843,102.557 136.2,104.2 Z M123,171.559 C123,172.416 123.45,172.84 124,172.5 C124.55,172.16 125,171.459 125,170.941 C125,170.423 124.55,170 124,170 C123.45,170 123,170.702 123,171.559 Z"/>
</svg>

