<svg xmlns="http://www.w3.org/2000/svg" width="300" height="300" viewBox="0 0 300 300" version="1.1">
  <defs/>
  <path d="M139.255,65.25 C140.512,63.662 144.234,63.634 145.8,65.2 C147.248,66.648 147.41,76.628 146,77.5 C145.45,77.84 145,79.069 145,80.23 C145,81.392 144.371,83.053 143.601,83.921 C141.501,86.293 138,92.871 138,94.447 C138,95.21 137.646,95.983 137.214,96.167 C135.772,96.778 132,102.786 132,104.472 C132,106.329 134.91,105.831 138.473,103.365 C141.3,101.408 144.027,101.677 146.686,104.174 C149.517,106.834 149.579,108.539 146.996,112.774 C145.898,114.575 145,116.833 145,117.792 C145,118.751 143.875,121.191 142.5,123.215 C141.125,125.238 139.992,127.255 139.982,127.697 C139.972,128.139 138.622,130.48 136.982,132.9 C135.342,135.321 134,137.908 134,138.65 C134,140.347 136.733,140.409 138.395,138.75 C139.084,138.063 141.154,136.375 142.994,135 C148.821,130.646 152,127.214 152,125.277 C152,120.594 156.65,119.733 161.589,123.5 C163.392,124.875 165.246,126 165.71,126 C166.749,126 176.5,133.225 180.25,136.773 C183.207,139.57 183.986,144.614 181.8,146.8 C179.959,148.641 178.822,148.285 174.627,144.552 C170.325,140.722 163.11,137 159.991,137 C157.185,137 150,141.693 150,143.526 C150,144.352 150.397,145.809 150.883,146.764 C151.369,147.719 152.202,149.625 152.734,151 C153.266,152.375 154.316,155.075 155.067,157 C155.952,159.267 156.55,166.057 156.765,176.278 C157.075,191.032 156.959,192.249 154.98,195.028 C152.065,199.121 148.068,199.058 144.537,194.862 C141.114,190.794 141.494,187.687 145.5,186.993 L148.5,186.474 L148.389,178.487 C148.256,169.018 147.141,161.007 145.703,159.198 C145.134,158.481 144.405,156.28 144.084,154.306 C143.074,148.101 141.347,148.112 132.09,154.379 C127.524,157.471 123.014,160 122.068,160 C121.123,160 119.27,158.852 117.953,157.45 L115.557,154.899 L117.639,150.7 C125.131,135.591 127.387,131.32 128.615,129.921 C129.377,129.053 130,127.829 130,127.202 C130,126.574 130.9,124.458 132,122.5 C134.041,118.866 134.596,115.986 133.25,116.018 C132.838,116.028 130.475,117.411 128,119.09 C124.181,121.683 122.885,122.053 119.431,121.538 C115.934,121.017 114.84,121.345 111.665,123.869 C109.632,125.485 103.712,129.164 98.51,132.046 C93.307,134.929 88.392,138.014 87.588,138.903 C86.343,140.278 86.27,142.981 87.096,157.01 C88.271,176.976 87.447,194.721 85.226,197.25 C82.945,199.848 78.546,199.483 76.615,196.535 C74.532,193.357 74.579,192.488 77.013,189.197 C78.744,186.855 79.058,184.702 79.263,173.774 C79.464,162.979 79.247,160.819 77.812,159.384 C76.227,157.799 75.751,158.018 70.062,162.946 C66.728,165.835 64,168.519 64,168.91 C64,169.302 63.212,170.495 62.25,171.561 C61.288,172.628 58.475,175.948 56,178.941 C42.499,195.266 32.763,200.532 29.019,193.536 C26.889,189.555 28.966,186 33.422,186 C36.296,186 37.884,185.019 42.731,180.25 C49.359,173.727 64,154.571 64,152.42 C64,150.211 60.586,150.748 58.15,153.341 C55.502,156.159 49.799,158.706 36.597,162.967 C26.699,166.161 26.694,166.162 24.097,164.225 C19.513,160.806 20.552,155.997 25.872,156.003 C30.395,156.007 42.427,152.759 44.062,151.092 C44.922,150.217 47.847,148.518 50.562,147.317 C66.442,140.298 75.042,135.749 77.405,133.12 C78.453,131.954 80.253,130.96 81.405,130.912 C82.557,130.864 86.65,129.095 90.5,126.982 C98.965,122.337 110.92,116.353 113.053,115.694 C114.812,115.15 121.208,105.658 130.7,89.5 C136.154,80.217 137.249,77.563 137.714,72.5 C138.018,69.2 138.711,65.938 139.255,65.25 Z M74,48.875 C80.788,47.04 87,52.06 87,59.381 C87,61.85 87.497,65.137 88.105,66.685 C89.967,71.428 93.251,117.414 92.049,121.91 C91.668,123.334 90.568,124.652 89.604,124.838 C87.186,125.303 84,122.18 84,119.345 C84,115.997 81.942,116.446 78.707,120.5 C75.671,124.305 73.929,124.824 72,122.5 C69.427,119.4 68,120.755 68,126.3 C68,129.215 67.46,132.14 66.8,132.8 C65.23,134.37 61.329,134.34 60.344,132.75 C59.918,132.063 59.702,124.969 59.865,116.988 C60.027,109.006 59.707,98.881 59.152,94.488 C58.597,90.094 57.859,82.112 57.511,76.75 C56.903,67.367 56.957,67 58.94,67 C60.333,67 61,66.353 61,65 C61,62.839 59.415,62.254 58.774,64.177 C57.934,66.698 55.816,63.707 56.267,60.637 C56.535,58.806 56.099,56.555 55.214,55.204 C52.885,51.649 54.883,50.311 60.001,52 C63.636,53.2 64.452,53.142 67.781,51.446 C69.827,50.403 72.625,49.247 74,48.875 Z M117.2,230.2 C118.726,228.674 118.995,228.685 126.297,230.577 C131.175,231.841 133.586,231.947 138.442,231.113 C141.774,230.54 150.575,229.813 158,229.498 C169.904,228.993 172.86,229.215 183,231.376 C189.325,232.725 196.675,234.766 199.333,235.914 C201.991,237.061 204.95,238 205.909,238 C206.867,238 208.685,239.1 209.948,240.445 C212.754,243.432 212.123,247.531 208.61,249.132 C206.655,250.022 205.182,249.604 199.543,246.56 C189.965,241.388 179.078,239.016 164.886,239.007 C152.106,238.999 143.296,240.275 141.124,242.448 C139.908,243.663 140.219,244.622 143.356,249.349 C145.36,252.369 147,255.945 147,257.297 C147,258.649 147.675,260.315 148.5,261 C149.413,261.758 150,263.949 150,266.599 C150,270.235 149.552,271.246 147.283,272.727 C141.488,276.508 127.23,273.853 112.18,266.191 C105.178,262.626 94.914,249.505 94.651,243.783 C94.52,240.941 94.851,240.459 97.112,240.197 C99.195,239.955 100.563,240.895 103.862,244.836 C106.138,247.554 108.017,250.165 108.038,250.639 C108.092,251.88 116.278,258.12 121.254,260.713 C127.583,264.012 137.468,266.109 139.542,264.593 C141.07,263.476 141.071,263.104 139.548,259.444 C136.904,253.087 133.04,248.193 127.593,244.3 C116.992,236.723 114.312,233.088 117.2,230.2 Z M92.297,156.069 C94.155,154.157 100.186,155.395 114.432,160.612 L127.29,165.32 L129.895,162.151 C133.055,158.306 137.124,157.911 139.443,161.223 C140.299,162.445 141,163.765 141,164.157 C141,164.548 137.954,168.61 134.23,173.184 C130.507,177.758 126.128,183.3 124.5,185.5 C122.871,187.7 120.52,190.625 119.274,192 C118.029,193.375 114.913,196.871 112.349,199.77 C107.333,205.443 104.399,206.819 101.093,205.05 C97.764,203.268 98.458,199.647 102.75,196.405 C107.231,193.02 107.406,192.844 112.5,186.573 C117.128,180.877 121.99,173.82 121.996,172.79 C121.998,172.4 120.088,171.561 117.75,170.927 C110.549,168.972 103.647,166.759 100.349,165.348 C98.616,164.607 96.896,164 96.527,164 C95.562,164 93.493,161.79 92.205,159.383 C91.375,157.831 91.398,156.993 92.297,156.069 Z M133.175,35.289 C134.698,33.454 136.692,33.692 138.983,35.983 C140.621,37.621 140.86,38.796 140.354,42.733 C140.017,45.355 139.349,47.927 138.87,48.45 C138.392,48.972 138,50.437 138,51.705 C138,52.973 136.875,56.342 135.5,59.192 C134.125,62.042 133,64.956 133,65.666 C133,67.876 128.035,81.873 126.046,85.27 C125.005,87.046 123.016,90.75 121.625,93.5 C118.753,99.179 111.406,107.3 109.661,106.725 C107.076,105.875 108.183,101.665 113.946,90.442 C117.276,83.957 120,77.915 120,77.016 C120,76.118 120.661,74.509 121.468,73.441 C122.276,72.374 122.951,70.509 122.968,69.297 C122.986,68.085 123.392,66.06 123.871,64.797 C124.349,63.534 125.527,59.8 126.487,56.5 C127.447,53.2 128.57,49.6 128.983,48.5 C129.395,47.4 130.267,44.268 130.919,41.539 C131.571,38.811 132.587,35.998 133.175,35.289 Z M51.713,232.621 C53.16,231.173 57.361,232.579 59.272,235.15 C61.344,237.939 61.187,238.933 56.995,249.5 C56.559,250.6 55.632,253.075 54.936,255 C54.24,256.925 53.177,259.175 52.574,260 C51.971,260.825 50.612,263.061 49.553,264.97 C46.046,271.29 32.972,283 29.423,283 C28.261,283 26.514,282.12 25.541,281.045 C23.827,279.151 23.92,278.957 28.538,274.795 C31.159,272.433 34.917,268.775 36.889,266.667 C40.804,262.483 48,249.796 48,247.08 C48,246.146 48.661,244.509 49.468,243.441 C50.276,242.374 50.951,239.662 50.968,237.417 C50.986,235.171 51.321,233.013 51.713,232.621 Z M166.25,183.97 C167.488,183.439 171.2,183.298 174.5,183.658 C177.8,184.017 182.75,184.356 185.5,184.412 C191.476,184.533 193,185.351 193,188.437 C193,191.713 191.348,192.684 184.5,193.434 C177.506,194.2 168.425,192.694 165.82,190.337 C163.334,188.087 163.533,185.136 166.25,183.97 Z M69,60.291 C66.729,61.436 66.473,62.213 66.206,68.79 C65.83,78.038 67.418,79.119 72.966,73.394 C75.042,71.252 77.492,68.902 78.412,68.171 C80.272,66.693 79.789,63.668 77.227,60.75 C75.422,58.695 72.488,58.531 69,60.291 Z M73.25,86.137 C68.522,89.859 68,90.658 68,94.167 C68,98.502 70.526,100.599 72.182,97.639 C73.593,95.118 77.218,91.918 79.81,90.906 C81.745,90.15 82.07,89.394 81.81,86.26 C81.389,81.179 79.581,81.153 73.25,86.137 Z M78.939,103.573 C78.221,104.438 75.931,106.015 73.85,107.076 C68.107,110.006 66.276,115 70.944,115 C73.577,115 84,106.121 84,103.878 C84,101.553 80.777,101.359 78.939,103.573 Z"/>
</svg>

