<svg xmlns="http://www.w3.org/2000/svg" width="300" height="300" viewBox="0 0 300 300" version="1.1">
  <defs/>
  <path d="M134,19.8 C136.873,18.832 142,22.006 142,24.752 C142,26.599 133.002,34.794 127.629,37.841 C125.358,39.129 121.025,42.072 118,44.382 C110.72,49.941 108.054,51.589 98.165,56.639 C93.581,58.98 89.262,61.367 88.567,61.944 C87.054,63.2 84.539,79.944 85.693,81.08 C86.137,81.517 88.638,80.473 91.25,78.759 L96,75.643 L96,67.889 C96,61.063 96.235,60.06 97.962,59.512 C101.033,58.537 103.847,60.668 104.568,64.512 C105.289,68.355 105.823,68.555 110.675,66.801 C114.382,65.46 115.152,63.874 115.251,57.374 C115.299,54.16 115.818,52.632 117.093,51.95 C118.074,51.425 118.662,51.091 119.154,51.2 C119.936,51.372 120.471,52.666 121.947,56.098 C123.858,60.541 124.421,61.106 126.32,60.494 C133.58,58.154 139.251,59.261 141.13,63.385 C142.057,65.42 141.719,66.911 139.026,72.655 C137.262,76.42 134.059,81.606 131.909,84.179 C127.676,89.246 127.177,91.072 129.5,93 C131.572,94.72 131.337,96.85 128.58,101.336 C126.129,105.324 122.197,108 118.79,108 C117.7,108 115.614,108.6 114.154,109.334 C112.694,110.067 109.025,111.825 106,113.239 C102.975,114.654 97.118,117.445 92.985,119.441 C87.855,121.92 84.377,122.981 82.024,122.786 C78.96,122.532 78.39,122.888 76.88,126 C75.947,127.925 74.646,131.3 73.989,133.5 C73.332,135.7 72.166,138.694 71.398,140.154 C70.033,142.746 69.522,146 70.479,146 C70.743,146 77.155,142.808 84.729,138.907 C97.642,132.256 101.554,129.786 111.5,122.004 C122.682,113.256 141.492,100.233 147.485,97.09 C151.73,94.864 158.872,94.326 161.994,95.997 C164.348,97.256 166.764,107.636 165.093,109.307 C164.492,109.908 164,111.633 164,113.141 C164,114.649 163.55,116.16 163,116.5 C162.45,116.84 162,117.882 162,118.815 C162,121.314 155.892,130.58 153,132.467 C151.625,133.365 148.7,135.412 146.5,137.016 C142.345,140.046 139.568,140.728 138.489,138.983 C138.144,138.424 140.367,135.111 143.43,131.622 C146.494,128.133 149,124.342 149,123.198 C149,122.054 149.396,120.873 149.88,120.574 C151.003,119.88 154,110.778 154,108.062 C154,105.007 152.019,105.508 144.382,110.494 C133.36,117.691 131.167,119.252 125.685,123.811 C122.833,126.182 118.025,129.763 115,131.77 C111.975,133.777 107.025,137.258 104,139.506 C100.975,141.754 96.025,144.871 93,146.432 C89.975,147.993 86.375,149.882 85,150.629 C83.625,151.376 81.596,151.99 80.491,151.994 C79.385,151.997 77.919,152.9 77.232,154 C76.405,155.325 74.889,156.005 72.742,156.015 C66.286,156.044 64.487,158.103 60.959,169.5 C60.448,171.15 59.62,173.4 59.118,174.5 C56.659,179.894 54,187.013 54,188.203 C54,188.936 52.875,191.191 51.5,193.215 C50.125,195.238 48.994,197.705 48.986,198.697 C48.974,200.142 40.619,217.731 35.303,227.5 C34.705,228.6 33.719,230.625 33.112,232 C32.505,233.375 29.555,239 26.556,244.5 C23.558,250 20.452,255.908 19.654,257.628 C17.751,261.734 16.839,262.189 13.115,260.89 C9.358,259.581 8.946,256.288 12.003,251.996 C15.354,247.29 39.065,198.671 43.458,187.5 C44.971,183.65 46.816,179.342 47.558,177.926 C48.299,176.51 50.016,172.01 51.374,167.926 C52.732,163.842 55.064,157.575 56.555,154 C58.047,150.425 59.844,145.475 60.548,143 C61.252,140.525 62.759,135.945 63.898,132.821 C66.935,124.489 71.096,110.233 72.165,104.5 C73.811,95.673 73.966,94.636 74.883,86.352 C75.379,81.87 76.1,75.91 76.485,73.106 C77.369,66.684 75.978,65.911 68.86,68.87 C62.7,71.429 46.935,74.573 44.651,73.696 C43.743,73.348 43,72.233 43,71.22 C43,67.69 46.695,65.204 54.531,63.461 C74.048,59.119 95.893,49.4 111.332,38.19 C114.174,36.126 117.85,33.583 119.5,32.538 C121.15,31.494 124.75,28.314 127.5,25.472 C130.25,22.63 133.175,20.078 134,19.8 Z M104.409,180.765 C106.92,179.074 109.875,180.043 111.376,183.051 C113.014,186.335 112.696,188.149 109.83,191.885 C108.823,193.197 108,194.933 108,195.743 C108,198.121 113.152,196.304 115.766,193.005 C117.012,191.432 119.712,189.598 121.766,188.93 C123.82,188.262 126.388,187.104 127.473,186.358 C128.557,185.611 130.184,185 131.088,185 C133.808,185 138,188.95 138,191.514 C138,192.816 138.45,194.16 139,194.5 C139.55,194.84 140,196.415 140,198 C140,199.585 139.55,201.16 139,201.5 C138.45,201.84 138,203.489 138,205.165 C138,206.955 136.969,209.436 135.5,211.182 C134.125,212.816 133,214.838 133,215.676 C133,219.458 127.362,228.326 119.554,236.824 L116.5,240.148 L118.766,241.997 C120.013,243.015 123.163,244.634 125.766,245.596 C128.37,246.557 131.059,247.769 131.743,248.289 C132.427,248.808 135.577,250.522 138.743,252.097 C141.909,253.672 147.262,256.712 150.638,258.852 C154.014,260.991 158.289,263.526 160.138,264.484 C171.183,270.208 179.982,274.432 183.316,275.61 C185.415,276.351 188.559,277.98 190.303,279.229 C194.316,282.102 200.684,285 202.987,285 C203.959,285 205.315,285.675 206,286.5 C206.685,287.325 207.649,288 208.142,288 C208.636,288 210.767,289.091 212.879,290.423 C214.99,291.756 218.588,293.351 220.874,293.966 C223.16,294.582 226.711,296.079 228.765,297.293 L232.5,299.5 L222,299.796 C210.176,300.13 205.64,299.263 196.794,294.978 C193.412,293.34 190.138,292 189.517,292 C188.896,292 186.839,290.831 184.944,289.401 C183.05,287.972 179.7,285.953 177.5,284.914 C175.3,283.875 172.825,282.597 172,282.074 C171.175,281.55 167.575,279.71 164,277.985 C154.601,273.448 145.513,268.66 143.899,267.395 C143.129,266.792 140.027,264.994 137.004,263.399 C133.982,261.805 128.377,258.587 124.55,256.25 C120.723,253.912 116.81,252 115.855,252 C114.9,252 113.84,251.55 113.5,251 C111.942,248.479 108.187,250.152 103.957,255.25 C99.585,260.518 90.907,269.63 72.738,288.028 C62.177,298.721 59.804,299.984 50.25,299.994 C46.606,299.998 45,299.602 45,298.7 C45,296.694 47.156,295 49.71,295 C51.344,295 56.04,290.979 65.769,281.25 C78.332,268.686 93.06,252.936 96.538,248.346 C97.787,246.697 98.554,243 97.647,243 C97.453,243 94.192,241.875 90.401,240.5 C80.736,236.994 79.812,237.154 74.805,243.192 C72.437,246.048 69.135,249.76 67.466,251.442 C65.797,253.124 63.134,256.433 61.549,258.795 C59.963,261.157 56.941,264.517 54.833,266.26 C52.725,268.004 51,269.938 51,270.559 C51,271.18 49.111,273.559 46.803,275.844 C42.054,280.546 37.815,281.392 36,278 C34.676,275.525 35.62,273.649 40.466,269.132 C42.453,267.279 45.296,264.129 46.784,262.132 C48.271,260.134 50.043,258.146 50.722,257.713 C51.4,257.28 53.403,254.805 55.174,252.213 C56.944,249.621 59.542,246.297 60.946,244.827 C62.351,243.356 64.806,240.516 66.402,238.515 C68.94,235.334 69.122,234.694 67.853,233.424 C66.522,232.094 55.727,231.392 49.61,232.238 C47.466,232.535 44.19,227.832 44.073,224.289 C44.015,222.518 44.848,221.839 48.25,220.884 C50.588,220.228 53.908,219.67 55.629,219.645 C58.523,219.603 60.356,220.044 71.5,223.461 C76.229,224.911 77.788,224.539 79.108,221.645 C80.407,218.795 81.44,217.141 88.728,206.241 C92.132,201.149 96.808,193.499 99.118,189.241 C101.429,184.984 103.81,181.169 104.409,180.765 Z M158,137.118 C167.102,133.354 169.937,132.994 172.75,135.245 C174.891,136.958 174.183,141.544 171.339,144.389 C167.449,148.279 157.065,155 154.945,155 C153.94,155 152.84,154.55 152.5,154 C151.636,152.602 146.985,152.764 144,154.295 C142.625,155 139.363,156.385 136.75,157.371 C132.123,159.119 132,159.274 132,163.36 C132,171.924 124.322,178 113.5,178 C110.609,178 106.664,177.34 104.732,176.532 C100.322,174.69 94.778,167.978 96.014,165.978 C96.76,164.77 98.089,164.815 105.193,166.288 C109.762,167.235 114.487,168.007 115.693,168.005 C118.509,167.999 121,164.432 121,160.406 C121,157.944 120.253,156.746 117.57,154.907 C113.469,152.097 111.88,146.691 114.411,144.16 C115.818,142.754 116.632,142.765 122.953,144.282 C129.842,145.935 130.069,145.925 139.22,143.502 C144.324,142.151 152.775,139.278 158,137.118 Z M122.605,200.884 C120.688,203.002 111.504,208 109.53,208 C108.823,208 107.578,209.002 106.765,210.227 C105.648,211.91 104.312,212.455 101.301,212.455 C97.448,212.455 97.145,212.709 92.158,220.134 C89.321,224.357 87,228.299 87,228.893 C87,230.165 92.838,232.851 98.5,234.182 C103.932,235.46 106.019,236.021 107.562,235.343 C108.655,234.863 109.475,233.76 111.019,231.849 C117.372,223.982 124.709,211.381 125.951,206.203 C127.608,199.299 126.144,196.973 122.605,200.884 Z M86.216,157.561 C88.91,155.674 89.462,155.636 90.762,157.25 C92.767,159.739 93.195,164.855 91.637,167.722 C90.807,169.25 88.665,173.584 86.876,177.354 C85.087,181.123 83.052,184.427 82.353,184.695 C81.655,184.963 79.978,187.069 78.626,189.375 C77.274,191.682 73.871,195.717 71.064,198.344 C66.633,202.488 65.48,203.077 62.329,202.809 C59.758,202.59 58.107,201.705 56.672,199.774 C54.705,197.128 54.699,196.99 56.478,195.024 C57.486,193.911 58.839,193 59.484,193 C61.652,193 80,171.143 80,168.56 C80,166.224 84.031,159.092 86.216,157.561 Z M91.25,8.662 C93.371,7.806 97.043,7.953 98.941,8.969 C101.289,10.225 106.657,18.646 107.567,22.5 C107.957,24.15 108.731,26.077 109.287,26.782 C111.169,29.168 108.368,35.585 104.43,37.909 C100.209,40.4 98.673,40.515 96.976,38.471 C95.924,37.203 96.094,36.528 97.975,34.527 C101.281,31.007 100.133,26.479 94.482,20.747 C90.884,17.097 90,15.507 90,12.684 C90,10.749 90.563,8.94 91.25,8.662 Z M88.855,94.288 C83.001,99.597 81.251,102.473 80.833,107.475 C80.564,110.69 80.852,111.52 82.339,111.815 C83.351,112.017 85.151,111.314 86.339,110.255 C87.528,109.196 90.168,107.568 92.208,106.638 C94.247,105.708 96.208,104.473 96.566,103.894 C97.636,102.161 95.973,89.996 94.67,90.038 C94.027,90.06 91.41,91.972 88.855,94.288 Z M107.428,80.47 C105.178,83.904 104.413,98 106.476,98 C108.368,98 110.17,94.717 111.692,88.5 C113.561,80.863 113.378,78 111.023,78 C109.936,78 108.318,79.112 107.428,80.47 Z"/>
</svg>

