<svg xmlns="http://www.w3.org/2000/svg" width="300" height="300" viewBox="0 0 300 300" version="1.1">
  <defs/>
  <path d="M76.106,16.921 C79.447,14.823 85.56,19.588 84.405,23.389 C84.052,24.55 83.192,26.175 82.493,27 C81.794,27.825 80.913,29.957 80.534,31.739 C80.156,33.52 79.431,35.234 78.923,35.548 C78.415,35.861 78,36.886 78,37.824 C78,39.521 76.169,43.324 72.138,50 C70.976,51.925 69.574,54.53 69.023,55.788 C68.471,57.047 66.96,59.072 65.664,60.288 C64.368,61.505 62.068,64.75 60.554,67.5 C59.04,70.25 57.171,73.21 56.401,74.079 C55.63,74.947 55,76.113 55,76.67 C55,77.563 63.877,83 65.334,83 C65.645,83 67.077,81.454 68.519,79.564 C70.494,76.974 70.908,75.682 70.201,74.314 C69.685,73.316 68.963,70.837 68.596,68.804 C68.036,65.698 68.26,64.931 70.002,63.999 C71.599,63.144 72.788,63.247 75.19,64.445 C79.109,66.4 81.41,66.416 83,64.5 C83.685,63.675 84.723,63 85.308,63 C87.04,63 91,67.21 91,69.052 C91,69.989 88.412,73.946 85.25,77.846 C72.837,93.153 69.776,97.105 70.131,97.364 C70.334,97.513 73.169,98.954 76.431,100.567 C81.339,102.994 83.009,104.534 86.122,109.5 C88.19,112.8 90.739,116.625 91.786,118 C94.332,121.345 95.504,128.592 95.263,139.5 C95.019,150.541 93.932,154.836 88.561,166 C82.375,178.857 81.065,179.947 71.768,179.978 C65.189,179.999 64.935,179.903 60.655,175.75 C58.246,173.412 56.058,170.825 55.794,170 C55.448,168.923 53.226,170.456 47.906,175.443 C43.833,179.262 40.336,182.862 40.136,183.443 C39.936,184.024 36.859,187.136 33.298,190.357 C27.526,195.58 26.485,196.147 23.693,195.589 C19.222,194.694 18.504,193.613 19.993,190.017 C21.402,186.616 24.078,184.709 26.263,185.548 C27.187,185.902 31.226,181.69 37.988,173.32 C48.526,160.278 51.069,155.984 47.411,157.405 C45.263,158.24 45.004,158.285 43.25,158.118 C40.726,157.879 42.109,151.25 47.032,140 C49.799,133.675 52.499,127.719 53.032,126.764 C53.564,125.809 54,124.591 54,124.058 C54,123.161 56.71,118.664 60.513,113.25 C64.011,108.27 70.924,112.518 69.544,118.8 C68.832,122.042 70.122,123.613 73.941,124.154 C75.756,124.411 76.606,125.369 77.256,127.89 C77.995,130.758 77.638,132.219 74.931,137.39 C70.974,144.948 65.618,153.242 63.626,154.895 C61.483,156.674 60.625,161.682 61.927,164.816 C62.987,167.369 68.563,172.005 70.562,171.995 C72,171.988 78,166.063 78,164.649 C78,163.962 78.517,162.883 79.149,162.251 C79.781,161.619 81.356,158.077 82.649,154.379 C85.785,145.412 86.063,128.326 83.141,124.154 C82.118,122.694 80.534,119.902 79.621,117.949 C78.708,115.996 76.057,112.921 73.73,111.116 C69.82,108.082 69.05,107.865 63.545,108.246 C58.18,108.617 57.337,108.989 55.045,112.007 C53.645,113.85 50.925,117.048 49,119.115 C47.075,121.182 44.319,124.139 42.876,125.687 C41.432,127.234 39.407,130.101 38.376,132.057 C36.284,136.024 27.997,144 25.967,144 C24.458,144 21,141.102 21,139.836 C21,139.367 23.362,136.365 26.25,133.166 C38.83,119.228 50.79,105.272 52.531,102.5 C53.567,100.85 55.446,98.228 56.707,96.673 C57.968,95.119 59,93.091 59,92.167 C59,89.974 52.702,88 45.707,88 C39.739,88 37.401,86.711 36.489,82.919 C35.975,80.782 36.478,79.873 39.414,77.633 C42.737,75.099 57,58.804 57,57.543 C57,57.225 58.931,53.711 61.291,49.733 C66.739,40.55 67.56,38.821 69.95,31.5 C73.489,20.661 74.694,17.807 76.106,16.921 Z M135.242,30.034 C141.011,27.716 143.667,29.236 147.213,36.886 C150.183,43.293 150.273,43.907 150.088,56.5 C149.825,74.347 149.421,78.787 147.892,80.63 C147.17,81.501 146.111,83.142 145.539,84.278 C144.968,85.413 143.15,86.786 141.5,87.329 C137.987,88.485 135.553,91.496 131.661,99.5 C130.859,101.15 128.807,103.776 127.101,105.335 C123.656,108.484 122.942,113.17 125.396,116.527 C126.719,118.336 127.062,118.15 131.937,112.968 C134.767,109.961 137.803,106.161 138.684,104.524 C139.565,102.887 143.229,97.487 146.828,92.524 C150.427,87.561 154.836,81.25 156.626,78.5 C160.54,72.489 162.897,70 164.675,70 C166.602,70 170,73.703 170,75.803 C170,77.42 161.096,89.412 151.524,100.688 C146.281,106.863 142.384,114.799 143.626,116.769 C144.177,117.643 147.3,119.339 150.564,120.539 C155.942,122.514 161.396,124.639 175.185,130.133 C177.762,131.16 181.084,132 182.567,132 C184.05,132 186.886,133.012 188.868,134.25 C190.85,135.487 193.374,136.961 194.477,137.525 C197.439,139.039 197.47,141.621 194.562,144.529 C192.162,146.929 191.798,147.007 189.243,145.68 C185.524,143.748 179.818,142 177.232,142 C176.063,142 172.99,140.875 170.404,139.5 C167.818,138.125 165.084,137 164.33,137 C163.575,137 161.279,135.891 159.229,134.536 C157.178,133.18 153.931,131.943 152.013,131.786 C148.668,131.512 148.471,131.685 147.203,136 C146.476,138.475 145.458,141.281 144.941,142.236 C144.423,143.191 144,144.859 144,145.942 C144,147.025 142.875,149.569 141.5,151.595 C140.125,153.621 139,155.822 139,156.485 C139,157.148 138.1,158.505 137,159.5 C135.9,160.495 135,161.935 135,162.698 C135,163.461 132.906,166.325 130.346,169.061 C125.359,174.393 123.506,174.717 119.578,170.946 C117.984,169.415 117.498,166.839 116.724,155.801 C115.744,141.822 115.42,133.133 114.567,98 C113.858,68.763 111.43,52.571 106.727,45.717 C105.175,43.456 104.986,42.237 105.719,39.217 C106.554,35.775 106.874,35.513 110.043,35.673 C114.208,35.883 117.584,39.644 118.328,44.903 C118.608,46.881 119.361,50.525 120.001,53 C120.641,55.475 121.472,60.283 121.849,63.684 C122.226,67.085 122.805,70.139 123.137,70.47 C123.468,70.801 126.385,68.899 129.619,66.243 C132.854,63.588 136.738,60.636 138.25,59.684 C141.224,57.813 141.836,54.328 140.025,49.565 C138.651,45.951 136.345,46.37 132.113,51 C128.027,55.469 126.552,55.9 125.035,53.066 C123.249,49.728 123.889,46.389 127.279,41.362 C129.083,38.688 131.104,35.249 131.771,33.721 C132.438,32.192 134,30.533 135.242,30.034 Z M175.5,204.111 C188.45,201.054 201.37,201.713 206.079,205.673 C206.947,206.403 208.325,207 209.142,207 C209.958,207 211.864,208.292 213.377,209.871 C215.672,212.267 216.076,213.467 215.814,217.121 C215.501,221.482 215.483,221.501 211.355,221.802 C207.706,222.069 206.949,221.737 205.021,219.03 C201.603,214.229 196.576,212.161 188.986,212.43 C185.419,212.557 180.433,213.383 177.906,214.266 C175.379,215.148 169.404,216.187 164.629,216.575 C159.853,216.962 155.706,217.667 155.414,218.14 C155.121,218.613 153.645,219 152.132,219 C150.62,219 148.562,219.6 147.559,220.333 C145.824,221.602 145.819,221.794 147.46,224.298 C148.462,225.829 149.749,231.234 150.534,237.215 C151.716,246.218 151.698,247.787 150.384,249.804 C149.559,251.071 148.122,252.349 147.192,252.644 C146.261,252.94 144.534,253.642 143.354,254.204 C140.245,255.686 125.325,254.169 120.562,251.887 C118.396,250.849 116.071,250 115.394,250 C111.575,250 97.735,241.254 85.25,230.953 C83.793,229.751 83.566,224.386 84.936,223.54 C87.399,222.018 94.319,225.012 99.362,229.781 C102.252,232.514 106.048,235.491 107.799,236.396 C114.944,240.091 126.789,244.025 132.543,244.615 C138.373,245.212 138.768,245.11 140.832,242.486 C142.025,240.97 142.992,238.778 142.983,237.615 C142.961,234.771 137.877,224.873 136,224.019 C135.175,223.644 133.001,222.586 131.169,221.669 C129.337,220.751 126.412,219.993 124.669,219.984 C122.926,219.975 119.7,218.948 117.5,217.702 C114.038,215.741 113.5,214.97 113.5,211.968 L113.5,208.5 L119,208.843 C122.025,209.032 131.475,209.257 140,209.343 C152.165,209.466 156.791,209.123 161.5,207.75 C164.8,206.787 171.1,205.15 175.5,204.111 Z M42.56,212.218 C43.765,210.497 44.73,210.133 46.81,210.616 C52.506,211.937 52.923,214.878 49.559,230 C47.568,238.949 45.058,246 43.864,246 C43.389,246 43,246.642 43,247.427 C43,248.213 41.875,249.74 40.5,250.821 C39.125,251.903 38,253.127 38,253.541 C38,254.688 31.139,263.021 26.631,267.348 C22.954,270.878 22.288,271.144 18.561,270.575 C14.515,269.958 11,267.082 11,264.389 C11,262.303 14.718,259 17.066,259 C18.202,259 19.962,258.556 20.976,258.013 C22.769,257.053 33,243.721 33,242.344 C33,241.966 33.77,240.807 34.71,239.767 C36.438,237.858 40.884,221.642 40.959,216.973 C40.982,215.582 41.702,213.443 42.56,212.218 Z M124.646,124.48 C124,126.164 124.69,146.575 125.585,152.25 C125.938,154.492 126.732,156 127.56,156 C129.404,156 136.541,144.899 138.512,138.964 C139.376,136.363 140.964,133.438 142.041,132.463 C143.119,131.488 144,130.156 144,129.503 C144,128.034 137.473,126 132.756,126 C130.825,126 128.685,125.325 128,124.5 C126.425,122.602 125.369,122.596 124.646,124.48 Z M134.182,75.5 C130.78,78.363 128.777,78.642 127,76.5 C124.332,73.285 123,74.757 123,80.918 C123,91.141 124.702,92.309 131.132,86.5 C133.262,84.575 135.41,83 135.904,83 C136.398,83 137.77,81.36 138.953,79.355 C142.592,73.187 139.705,70.853 134.182,75.5 Z M61.309,134.25 C59.491,137.061 58.034,139.612 57.147,141.541 C56.631,142.664 55.486,144.181 54.604,144.914 C52.718,146.479 52.393,151.369 54.215,150.762 C55.707,150.264 65.84,135.985 65.933,134.25 C65.97,133.563 65.127,133 64.059,133 C62.991,133 61.754,133.563 61.309,134.25 Z"/>
</svg>

