<svg xmlns="http://www.w3.org/2000/svg" width="300" height="300" viewBox="0 0 300 300" version="1.1">
  <defs/>
  <path d="M156.331,51.25 C157.605,49.507 162.495,49.687 164.027,51.532 C165.056,52.773 165.053,53.868 164.006,57.282 C162.55,62.035 156.494,74.715 154.589,77 C153.901,77.825 152.131,80.975 150.654,84 C149.178,87.025 146.405,92.425 144.491,96 C142.578,99.575 141.01,103.028 141.006,103.672 C141.003,104.317 143.154,106.792 145.787,109.172 C148.419,111.553 151.195,114.737 151.956,116.25 C153.929,120.177 154.998,119.653 155.015,114.75 C155.034,109.478 155.517,108.748 160.5,106.454 C162.7,105.441 167.691,101.325 171.591,97.306 C177.47,91.249 179.226,90 181.862,90 C184.328,90 185.313,90.592 186.244,92.637 C187.371,95.109 187.152,95.539 182.723,99.549 C177.74,104.06 176.86,105.979 179.75,106.032 C182.443,106.081 185,108.477 185,110.951 C185,112.178 183.146,115.825 180.88,119.056 C174.985,127.459 177.251,131.097 184.795,125.343 C188.661,122.394 191.24,122.953 191.822,126.868 C192.218,129.532 186.911,136.478 182.892,138.556 C180.237,139.929 180,140.5 180,145.526 C180,150.419 180.223,151 182.099,151 C183.253,151 185.725,151.725 187.591,152.61 C189.518,153.524 190.857,154.177 191.846,153.83 C194.126,153.031 194.547,146.926 196.016,126.5 C196.53,119.35 197.24,109.934 197.594,105.576 C198.324,96.563 196.742,87.981 193.869,85.381 C190.119,81.987 181.727,84.976 161.738,96.825 C148.362,104.754 145.176,104.164 149.819,94.617 C151.982,90.17 154.308,88.522 167.5,82.089 C183.266,74.4 188.291,73.37 195.39,76.371 C199.614,78.156 203.997,82.575 203.999,85.05 C203.999,85.902 204.531,87.131 205.18,87.78 C206.606,89.206 206.507,114.657 205.031,126.03 C204.498,130.139 204.048,137.131 204.031,141.568 C204.014,146.006 203.372,151.856 202.604,154.568 C201.837,157.281 200.942,162.988 200.617,167.25 C199.942,176.096 200.717,176.823 206.317,172.598 C210.25,169.631 216.476,167 219.565,167 C220.842,167 222.564,167.967 223.392,169.149 C224.73,171.059 224.731,171.62 223.4,174.193 C221.739,177.405 216.555,180.99 213.564,180.996 C212.5,180.998 210.573,181.992 209.282,183.205 C207.991,184.417 204.599,186.555 201.743,187.955 C197.638,189.967 196.388,191.156 195.777,193.634 C195.051,196.575 192.666,198.855 188.853,200.254 C187.947,200.586 185.586,199.99 183.607,198.929 C181.627,197.868 179.562,197 179.017,197 C177.751,197 174.79,204.011 175.393,205.581 C175.798,206.638 181.87,210.34 190.5,214.791 C193.718,216.451 203.377,223.011 211.5,229.055 C214.25,231.101 218.3,233.72 220.5,234.874 C222.7,236.029 226.975,238.719 230,240.854 C233.025,242.988 238.988,246.897 243.25,249.541 C247.512,252.186 251,254.672 251,255.067 C251,255.461 257.292,260.445 264.981,266.142 C272.671,271.839 279.244,277.343 279.588,278.374 C280.017,279.658 279.3,281.161 277.314,283.148 L274.414,286.047 L267.457,280.73 C263.631,277.806 258.025,273.049 255,270.159 C251.975,267.269 243.861,261.153 236.968,256.567 C230.075,251.982 223.833,247.503 223.096,246.615 C222.358,245.727 221.317,245 220.782,245 C219.955,245 212.485,240.344 200.61,232.427 C189.807,225.225 173.279,216 171.177,216 C169.926,216 168.688,216.772 168.372,217.75 C167.251,221.221 161.523,233.705 159.31,237.5 C152.291,249.539 144.576,261.039 141.567,263.946 C139.605,265.842 137.967,267.867 137.926,268.446 C137.886,269.026 135.619,271.413 132.889,273.75 C126.524,279.2 121.467,279.62 116.923,275.077 C113.616,271.77 113.212,268.931 115.695,266.448 C117.289,264.854 117.516,264.909 119.483,267.376 C122.196,270.779 123.74,270.654 128,266.686 C133.301,261.749 137.079,256.625 144.728,244 C151.333,233.098 152.906,230.072 156.548,221.25 C157.4,219.188 158.525,216.719 159.048,215.764 C160.665,212.814 160.194,210 158.083,210 C157.029,210 156.017,210.356 155.833,210.791 C155.373,211.883 139.906,220.905 132,224.693 C121.162,229.885 106.819,234.943 101,235.623 C93.991,236.443 93,237.294 93,242.5 C93,246.948 90.824,253.372 88.919,254.55 C88.308,254.928 87.222,254.621 86.506,253.868 C85.449,252.758 85.409,248.544 86.297,231.5 C87.795,202.74 87.794,126.32 86.294,113 C85.645,107.225 84.248,99.027 83.192,94.782 C81.295,87.16 81.296,87.043 83.204,85.315 C84.957,83.729 85.386,83.706 87.818,85.07 C89.751,86.154 90.69,87.681 91.179,90.537 C91.553,92.717 92.633,96.975 93.58,100 C95.32,105.563 96.496,120.522 97.606,151.244 C98.172,166.879 98.194,167.002 100.838,168.863 C102.302,169.894 104.524,171.056 105.777,171.445 C107.029,171.834 108.77,173.245 109.645,174.581 C112.058,178.263 110.09,179.849 102.665,180.204 L96.5,180.5 L95.889,197 C95.552,206.075 94.932,215.86 94.511,218.743 C92.981,229.21 95.728,229.174 121.571,218.397 C134.246,213.111 160.378,198.557 163.216,195.203 C165.372,192.656 167.211,183.263 165.998,180.997 C165.449,179.971 165,178.032 165,176.688 C165,173.151 162.689,171.648 158.467,172.44 C154.114,173.257 151.314,172.456 150.012,170.022 C149.469,169.008 148.762,163.751 148.439,158.339 C147.566,143.679 144.35,126.714 141.266,120.5 C140.447,118.85 137.25,115.195 134.161,112.379 L128.545,107.257 L132.773,101.097 C135.098,97.709 137,94.725 137,94.465 C137,94.205 139.025,89.745 141.5,84.553 C143.975,79.362 146,74.414 146,73.557 C146,72.701 146.45,72 147,72 C147.55,72 148,71.142 148,70.092 C148,69.043 149.179,65.781 150.619,62.842 C152.06,59.904 153.729,56.375 154.328,55 C154.927,53.625 155.828,51.938 156.331,51.25 Z M177.667,159.667 C177.3,160.033 177,165.378 177,171.544 C177,185.333 177.762,186.502 184.267,182.689 C189.884,179.398 191.183,176.781 190.806,169.52 C190.504,163.698 190.453,163.607 187,162.724 C185.075,162.232 182.79,161.193 181.921,160.415 C180.208,158.88 178.716,158.617 177.667,159.667 Z M59.063,147.424 C60.695,145.457 61.255,145.602 64.191,148.75 C68.321,153.179 69,155.384 69,164.377 C69,171.263 68.594,173.574 66.869,176.497 C65.161,179.392 64.22,180.047 62.119,179.804 C59.682,179.521 59.518,179.187 59.753,175 C60.374,163.939 60.222,159.143 59.093,154.174 C58.161,150.075 58.154,148.519 59.063,147.424 Z M153,121.809 C153,122.254 153.661,123.491 154.468,124.559 C155.276,125.626 155.951,128.188 155.968,130.25 C156.003,134.356 157.682,135.175 160.429,132.429 C162.856,130.001 162.308,127.252 158.75,124.015 C155.601,121.15 153,120.152 153,121.809 Z M161.972,147.336 C157.948,149.36 158.295,151.174 162.636,150.817 C165.224,150.604 166.584,149.968 166.791,148.876 C167.206,146.681 164.802,145.913 161.972,147.336 Z"/>
</svg>

