<svg xmlns="http://www.w3.org/2000/svg" width="300" height="300" viewBox="0 0 300 300" version="1.1">
  <defs/>
  <path d="M127.474,48.395 C129.746,46.734 130.106,46.71 133.462,47.985 C134.887,48.527 136.392,49.885 136.805,51.003 C137.219,52.121 139.119,53.815 141.029,54.768 C143.679,56.09 144.57,57.214 144.796,59.519 C145.156,63.191 142.137,70.295 138.005,75.493 C136.323,77.61 135.1,79.799 135.286,80.358 C136.024,82.572 138.089,81.978 141.496,78.571 C145.597,74.469 148.398,74.086 151.686,77.174 C153.929,79.282 154.913,84 153.109,84 C152.618,84 151.532,85.713 150.694,87.807 C149.856,89.9 148.492,92.176 147.663,92.865 C146.393,93.918 146.246,96.471 146.728,109.024 C147.122,119.264 146.954,124.351 146.192,125.269 C145.581,126.004 144.842,129.282 144.548,132.553 C144.254,135.824 143.6,140.525 143.094,143 C140.914,153.667 140.804,154.761 141.837,155.399 C142.781,155.983 151.846,151.7 159.241,147.177 C162.707,145.057 165.069,146.327 166.268,150.954 C166.981,153.707 166.745,154.642 164.82,156.692 C162.785,158.858 151.143,165 149.072,165 C147.799,165 134.963,171.884 132.234,174.03 C130.857,175.114 128.434,176 126.849,176 C124.552,176 123.636,175.305 122.333,172.572 C120.183,168.064 121.85,163.64 126.535,161.417 C128.339,160.56 130.311,158.654 130.916,157.18 C134.03,149.598 136.231,131 134.015,131 C133.473,131 130.836,132.35 128.154,134 C125.473,135.65 122.596,137 121.762,137 C118.773,137 117.755,139.928 117.502,149.252 C117.18,161.131 116.003,171.16 114.745,172.75 C114.2,173.438 112.511,174 110.991,174 C108.831,174 107.875,173.257 106.614,170.599 C104.581,166.315 104.589,164.69 106.665,160.7 C108.035,158.067 108.341,154.222 108.394,139 C108.473,115.999 107.292,109.402 101.932,102.904 C98.438,98.669 98.208,98.011 98.998,94.508 C99.47,92.418 100.251,90.436 100.733,90.104 C102.081,89.177 106,77.638 106,74.598 C106,70.153 108.691,66 111.571,66 C115.041,66 119,70.193 119,73.868 C119,76.991 113.802,88.09 111.409,90.076 C109.4,91.743 109.654,94.147 112.423,99.668 C114.907,104.621 118,116.209 118,120.562 C118,124.374 120.222,123.438 123.491,118.248 C125.135,115.637 127.908,111.914 129.653,109.976 C132.994,106.263 134.975,99.721 133.108,98.566 C132.518,98.202 130.348,99.05 128.286,100.452 C121.9,104.791 118,103.461 118,96.944 C118,94.35 118.966,92.011 121.324,88.894 C123.153,86.477 125.413,82.135 126.347,79.244 C128.133,73.715 127.917,72.675 123.752,66.765 C122.764,65.363 122.859,64.403 124.25,61.765 C125.26,59.85 125.888,56.699 125.769,54.145 C125.616,50.858 126.034,49.448 127.474,48.395 Z M140,27.214 C144.482,24.591 147.191,24.518 150.139,26.939 C152.362,28.765 152.412,29.043 151,31.689 C149.939,33.677 146.864,35.77 140.5,38.838 C135.55,41.223 130.825,43.596 130,44.109 C129.175,44.623 126.921,45.821 124.992,46.771 C123.063,47.722 119.87,49.737 117.898,51.25 C115.925,52.763 113.946,54 113.5,54 C113.054,54 111.296,55.024 109.594,56.276 C107.892,57.529 104.025,59.644 101,60.978 C97.975,62.311 94.825,63.902 94,64.512 C91.882,66.08 84.518,69.497 77.66,72.094 C71.663,74.365 70.016,76.094 71.786,78.263 C72.38,78.99 72.632,83.62 72.396,89.5 C71.559,110.41 70.684,115.765 66.883,123.236 C66.397,124.191 66,125.458 66,126.051 C66,126.643 64.94,129.462 63.645,132.314 C62.35,135.166 60.749,139.975 60.089,143 C58.993,148.018 55.704,156.656 52.474,163 C51.774,164.375 50.05,168.939 48.644,173.143 C47.237,177.347 45.167,182.423 44.043,184.424 C42.919,186.424 42,188.765 42,189.626 C42,190.487 41.356,192.386 40.57,193.846 C39.783,195.306 37.975,199.084 36.552,202.241 C30.983,214.599 28.519,219.646 26.305,223.23 C25.037,225.282 24,227.557 24,228.286 C24,229.015 22.865,231.15 21.478,233.029 C20.091,234.909 18.504,238.126 17.952,240.179 C17.399,242.231 16.38,244.493 15.686,245.205 C14.993,245.917 13.361,248.239 12.06,250.365 C10.714,252.565 8.267,254.826 6.38,255.615 C1.16,257.796 0,257.447 0,253.696 C0,251.233 0.891,249.529 3.5,247 C5.425,245.134 7,242.822 7,241.863 C7,240.903 7.489,239.816 8.088,239.446 C8.686,239.076 11.222,234.437 13.724,229.137 C16.225,223.837 20.861,214.1 24.025,207.5 C29.876,195.295 39,173.11 39,171.086 C39,170.474 39.432,169.191 39.961,168.236 C40.813,166.697 44.703,157.995 46.996,152.5 C47.455,151.4 48.598,148.025 49.536,145 C50.474,141.975 51.661,138.681 52.173,137.679 C53.795,134.511 59.136,117.758 60.679,111 C62.065,104.93 63.239,81.901 62.293,79.356 C61.771,77.952 55.407,78.417 53.501,79.999 C52.747,80.625 50.639,80.993 48.815,80.818 C45.811,80.53 45.472,80.167 45.201,76.949 C44.788,72.025 47.119,70.26 55.63,69.052 C59.495,68.504 64.646,67.153 67.078,66.05 C69.51,64.947 72.185,64.034 73.023,64.022 C75.539,63.986 109.891,46.202 118.655,40.4 C123.14,37.43 127.116,35 127.491,35 C127.866,35 130.047,33.709 132.337,32.131 C134.626,30.553 138.075,28.34 140,27.214 Z M176,200.613 C181.407,199.235 188.581,199.393 194.5,201.02 C197.29,201.787 208.476,206.45 219,211.232 C221.475,212.356 225.447,213.502 227.828,213.777 C231.277,214.176 232.346,214.781 233.098,216.756 C233.616,218.12 234.931,220.368 236.02,221.753 C238.663,225.113 238.516,227.432 235.535,229.385 C231.65,231.931 229.266,231.329 224.103,226.5 C221.457,224.025 218.439,221.967 217.396,221.927 C216.353,221.887 214.15,220.994 212.5,219.943 C206.762,216.287 196.933,212 194.291,212 C192.828,212 189.078,211.284 185.958,210.408 C180.51,208.88 180.111,208.9 175.954,210.908 C173.573,212.059 171.229,213 170.745,213 C170.262,213 168.392,214.125 166.589,215.5 C164.786,216.875 162.454,218.019 161.406,218.042 C160.358,218.065 157.806,219.58 155.735,221.41 L151.971,224.737 L152.941,231.119 C153.475,234.628 154.214,239.182 154.585,241.239 C155.201,244.658 154.919,245.317 151.282,248.953 L147.307,252.928 L139.903,252.452 C131.307,251.898 122.805,249.675 121.008,247.51 C120.319,246.68 118.649,246 117.297,246 C113.921,246 105.282,240.058 100.75,234.62 C96.547,229.576 95.902,225.658 99,224 C101.418,222.706 103.347,223.612 107.5,227.991 C109.15,229.73 114.1,233.111 118.5,235.503 C124.732,238.891 128.243,240.092 134.384,240.935 C143.709,242.215 144.431,241.712 145.494,233.203 C146.164,227.838 145.147,225 142.555,225 C139.589,225 130.179,218.836 129.179,216.238 C127.123,210.895 126.712,206.797 128.143,205.89 C130.386,204.469 131.474,204.826 137.615,208.998 C140.852,211.196 144.341,212.996 145.368,212.998 C146.396,212.999 151.571,210.911 156.868,208.358 C169.396,202.321 169.556,202.256 176,200.613 Z M86.749,76.636 C87.536,75.303 95.078,76.65 96.872,78.444 C98.335,79.907 98.316,80.439 96.648,84.77 C95.646,87.372 94.482,91.3 94.061,93.5 C93.23,97.84 89.505,108.082 86.883,113.236 C85.31,116.33 85.936,117.946 89.25,119.349 C95.144,121.843 96.345,124.144 96.788,133.793 C97.286,144.637 94.816,159.914 92.26,161.794 C91.292,162.506 89.15,162.956 87.5,162.794 C84.844,162.534 84.465,162.088 84.199,158.901 C84.033,156.921 84.566,151.145 85.384,146.064 C86.202,140.984 86.627,136.191 86.328,135.414 C84.972,131.88 78.975,135.727 77.62,141 C76.97,143.527 71.085,148 68.409,148 C65.719,148 64.586,143.549 65.996,138.516 C66.699,136.004 67.662,133.709 68.135,133.416 C69.479,132.586 76.891,116.269 79,109.5 C79.685,107.3 80.572,104.825 80.97,104 C81.369,103.175 82.269,100.025 82.971,97 C83.674,93.975 84.704,90.246 85.26,88.714 C85.817,87.181 86.265,84.031 86.256,81.714 C86.246,79.396 86.468,77.111 86.749,76.636 Z M61.429,221.115 C62.617,219.192 69.5,219.79 71.491,221.99 C75.51,226.431 71.617,240.849 62.79,254.21 C61.806,255.7 60.983,257.5 60.962,258.21 C60.907,260.062 51.746,269.628 49.276,270.412 C47.843,270.867 46.326,270.324 44.4,268.668 C41.711,266.355 41.652,266.106 42.842,262.132 C43.523,259.859 44.478,258 44.963,258 C46.678,258 52.113,252.703 54.07,249.124 C55.16,247.131 57.015,243.925 58.192,242 C59.853,239.286 60.379,236.673 60.537,230.365 C60.648,225.891 61.05,221.728 61.429,221.115 Z M99.5,9.351 C101.15,8.725 102.642,8.165 102.816,8.106 C103.449,7.893 107.417,10.313 109.011,11.885 C111.332,14.174 111.453,24.443 109.211,28.909 C106.998,33.318 104.592,34.864 102.25,33.382 C100.875,32.512 100.572,31.189 100.837,27.208 C101.152,22.458 100.988,22.045 98.208,20.608 C96.577,19.764 94.963,18.346 94.621,17.455 C93.077,13.432 94.362,11.299 99.5,9.351 Z"/>
</svg>

