<svg xmlns="http://www.w3.org/2000/svg" width="300" height="300" viewBox="0 0 300 300" version="1.1">
  <defs/>
  <path d="M61.219,68.25 C62.858,66.253 66.805,66.768 68.077,69.143 C68.708,70.322 69.464,76.847 69.757,83.643 C70.149,92.706 70.631,96 71.565,96 C72.266,96 75.301,93.75 78.31,91 C81.319,88.25 84.138,86 84.576,86 C86.089,86 90,90.355 90,92.039 C90,94.826 86.374,98.585 79.496,102.928 C74.239,106.248 73,107.523 73,109.612 C73,111.031 72.273,114.693 71.384,117.75 C70.114,122.121 69.893,125.89 70.352,135.404 C70.672,142.057 70.949,149.188 70.967,151.25 C70.985,153.313 71.435,155 71.967,155 C72.498,155 75.213,152.975 78,150.5 C83.47,145.642 84.009,145.409 85.749,147.149 C87.348,148.748 85.623,151.786 77.732,161.268 C71.22,169.092 69.225,174.193 70.577,179.563 C70.845,180.628 70.578,186.225 69.982,192 C69.386,197.775 68.749,204.3 68.565,206.5 C68.381,208.7 67.737,214.55 67.133,219.5 C66.529,224.45 66.028,231.099 66.018,234.275 C66.002,239.366 65.729,240.153 63.709,240.921 C62.449,241.4 60.819,242.514 60.086,243.396 C59.354,244.278 58.009,245 57.097,245 C56.184,245 49.602,238.835 42.469,231.3 C25.281,213.144 24.074,212 22.094,212 C20.009,212 18,210.1 18,208.129 C18,207.32 17.214,205.789 16.254,204.728 C14.581,202.879 14.612,202.717 17.004,200.859 C23.247,196.01 31.84,189.704 35.411,187.349 C37.563,185.931 42.309,182.01 45.958,178.636 C49.607,175.261 54.485,170.845 56.797,168.823 L61,165.146 L61,141.542 C61,121.242 60.785,117.855 59.465,117.348 C58.603,117.017 55.359,118.346 52.064,120.38 C48.838,122.371 45.344,124 44.299,124 C43.255,124 41.973,124.416 41.45,124.925 C40.378,125.969 24.307,130 21.217,130 C20.112,130 17.789,128.385 16.055,126.41 C12.26,122.087 13.044,120.452 19.292,119.664 C31.849,118.081 36.052,116.814 46.501,111.462 C52.55,108.364 58.065,105.286 58.757,104.622 C59.661,103.753 60.038,98.664 60.103,86.458 C60.156,76.484 60.615,68.985 61.219,68.25 Z M162,140.512 C166.928,136.852 171.381,137.364 175.139,142.022 C177.938,145.492 177.964,145.64 176.843,152.022 C174.993,162.562 171.876,168.051 160.729,180.4 C152.71,189.282 150.172,191.883 146.225,195.258 C144.451,196.774 143,198.626 143,199.372 C143,200.624 150.083,204 152.709,204 C153.338,204 157.897,206.141 162.84,208.757 C170.292,212.701 174.022,215.659 184.664,226.064 C198.071,239.172 210,254.254 210,258.096 C210,261.235 207.19,264 204,264 C200.946,264 198.554,261.706 197.657,257.916 C197.32,256.495 195.685,253.62 194.023,251.528 C192.36,249.437 191,247.298 191,246.775 C191,243.65 164.471,220.634 157,217.277 C153.975,215.918 149.943,214.109 148.04,213.257 C141.393,210.279 136.75,210.443 130.406,213.879 C127.238,215.596 124.067,217 123.361,217 C122.655,217 121.201,217.941 120.13,219.091 C117.651,221.752 114.802,221.222 113.627,217.881 C111.607,212.136 112.695,210.909 136.803,191.772 C145.466,184.895 157.024,171.185 163.56,160.034 C167.246,153.744 167.858,151 165.576,151 C164.172,151 143.069,162.493 137.79,166.132 C136.3,167.159 134.189,168 133.1,168 C132.01,168 130.84,168.45 130.5,169 C129.732,170.242 122.321,170.328 121.564,169.103 C120.48,167.349 123.709,161.882 127.251,159.475 C129.23,158.13 133.246,156.089 136.175,154.939 C142.125,152.602 156.636,144.495 162,140.512 Z M143.526,21.95 C144.696,19.686 145.743,19 148.026,19 C151.524,19 155.325,22.355 154.596,24.801 C154.318,25.736 153.582,28.75 152.962,31.5 C152.341,34.25 151.457,37.4 150.998,38.5 C150.539,39.6 149.377,43.65 148.416,47.5 C147.456,51.35 146.353,54.95 145.965,55.5 C145.578,56.05 144.723,58.3 144.066,60.5 C143.409,62.7 142.171,66.3 141.316,68.5 C140.46,70.7 139.418,73.4 139,74.5 C138.008,77.108 135.025,84.872 133.891,87.797 C131.52,93.911 134.355,94.718 140.069,89.557 C144.262,85.768 149.94,84.158 153.33,85.796 C154.523,86.373 157.75,87.625 160.5,88.578 C163.25,89.531 168.344,91.591 171.82,93.155 C175.296,94.72 178.549,96 179.049,96 C180.281,96 198.741,106.334 206.737,111.5 C211.577,114.627 213.708,118.808 212.046,121.914 C210.666,124.493 204.235,131 203.067,131 C201.89,131 201.73,130.309 201.593,124.624 C201.536,122.236 200.924,120.474 200,120.035 C193.46,116.923 187.172,113.433 185.5,111.988 C183.469,110.232 181.807,109.308 172,104.485 C158.548,97.87 153.086,96.371 140.577,95.861 C133.443,95.57 131.579,95.792 130.991,97 C130.589,97.825 129.163,100.75 127.821,103.5 C126.48,106.25 124.766,110.525 124.013,113 C123.261,115.475 122.05,118.21 121.322,119.079 C120.595,119.947 120,121.383 120,122.27 C120,123.156 119.55,124.16 119,124.5 C118.45,124.84 117.99,125.879 117.978,126.809 C117.966,127.739 117.076,129.625 116,131 C114.924,132.375 114.034,134.017 114.022,134.65 C114.01,135.282 112.425,138.139 110.5,141 C108.575,143.861 107,146.784 107,147.497 C107,148.21 104.635,151.877 101.744,155.647 C98.853,159.416 95.693,163.738 94.721,165.25 C92.87,168.131 90.208,168.717 86.934,166.965 C83.94,165.362 84.615,162.509 89.25,157.181 C93.449,152.353 94.58,150.663 100.545,140.3 C102.22,137.39 104.132,134.468 104.795,133.805 C105.458,133.142 106,132.01 106,131.29 C106,130.569 107.726,126.484 109.836,122.211 C111.946,117.939 114.001,113.132 114.403,111.53 C114.805,109.928 116.454,105.957 118.067,102.706 C119.68,99.455 121,96.386 121,95.886 C121,95.387 121.87,93.071 122.933,90.739 C124.652,86.971 127.374,79.63 130.996,69 C134.454,58.851 134.063,60.288 137.932,43.55 C139.069,38.627 140.45,34.15 141,33.6 C141.55,33.05 142,30.868 142,28.75 C142,26.633 142.687,23.573 143.526,21.95 Z M51.781,185.219 C48.119,188.674 43.487,192.625 41.488,194 C37.974,196.417 28,205.667 28,206.509 C28,207.572 36.27,214.951 38.12,215.538 C40.893,216.418 45.651,219.708 50.358,224 C52.469,225.925 54.715,227.5 55.348,227.5 C56.019,227.5 56.766,224.992 57.136,221.5 C57.486,218.2 58.48,209.425 59.345,202 C61.664,182.092 61.731,179.572 59.949,179.229 C59.119,179.069 55.443,181.764 51.781,185.219 Z M139.881,121.007 C142.885,119.251 144.829,119.983 148.5,124.25 C151.754,128.034 152.088,128.927 151.542,132.395 C150.998,135.855 147.687,142 146.366,142 C144.068,142 142,139.531 142,136.788 C142,134.479 141.155,132.94 138.812,130.984 C135.761,128.437 135.681,128.185 136.943,125.138 C137.669,123.386 138.991,121.527 139.881,121.007 Z"/>
</svg>

