<svg xmlns="http://www.w3.org/2000/svg" width="300" height="300" viewBox="0 0 300 300" version="1.1">
  <defs/>
  <path d="M151.405,82.105 C153.79,79.47 154.164,79.481 156.78,82.266 C158.762,84.376 158.924,85.721 159.126,101.813 C159.245,111.318 159.763,119.354 160.276,119.671 C160.79,119.988 164.875,116.669 169.355,112.295 C183.075,98.899 186.866,96 190.666,96 C193.392,96 194.242,96.507 195.04,98.606 C196.292,101.899 192.923,108 189.853,108 C186.324,108 183.689,110.046 172.637,121.37 C159.611,134.716 158.951,135.646 158.566,141.176 C158.401,143.554 157.335,151.125 156.199,158 C155.063,164.875 153.315,175.45 152.316,181.5 C151.317,187.55 150.59,193.175 150.7,194 C150.811,194.825 150.436,198.556 149.867,202.291 C149.101,207.326 149.159,210.905 150.093,216.13 C152.243,228.163 156.204,231.09 170.94,231.538 C176.198,231.698 182.3,231.443 184.5,230.971 C186.7,230.5 197.029,229.174 207.454,228.027 C218.695,226.789 227.038,225.409 227.954,224.635 C229.848,223.036 234.648,221.195 237.967,220.797 C239.431,220.62 240.915,219.484 241.62,218 C242.273,216.625 243.413,214.187 244.154,212.581 C245.907,208.779 245.791,179.093 243.972,166.5 C242.021,152.985 242.093,151.558 244.74,151.182 C247.186,150.834 247.599,151.559 250.335,161 C252.952,170.03 254.826,181.662 256.061,196.533 C257.27,211.087 256.997,213.349 252.971,222.169 C251.425,225.555 244.548,230.517 240.04,231.498 C238.137,231.912 234.643,233.081 232.277,234.096 C224.21,237.554 176.434,241.666 161.436,240.193 C152.051,239.272 151.663,239.133 147.889,235.36 C141.958,229.429 139.59,219.984 140.402,205.5 C140.742,199.45 141.712,190.9 142.56,186.5 C143.407,182.1 144.33,175.599 144.61,172.052 C145.153,165.178 147.243,153.638 148.467,150.758 C149.863,147.474 145.974,147.348 143.066,150.583 C137.515,156.76 125.717,165.712 120.164,167.962 C116.77,169.338 108.931,169.694 107.091,168.556 C103.544,166.364 106.027,154 110.013,154 C111.344,154 112,154.671 112,156.031 C112,159.997 115.238,159.746 122.179,155.239 C126.465,152.457 143.219,137.907 146.5,134.118 L149.5,130.653 L149.5,107.432 C149.5,86 149.647,84.049 151.405,82.105 Z M75.405,71.104 C77.566,68.717 80.242,68.382 81.833,70.299 C82.426,71.013 83.225,76.454 83.609,82.389 C84.118,90.272 84.687,93.326 85.719,93.722 C87.52,94.413 93.423,88.737 95.537,84.281 C96.425,82.41 97.857,80.608 98.72,80.277 C100.801,79.479 103.275,82.925 102.471,85.5 C102.127,86.6 101.727,88.758 101.581,90.296 C101.303,93.231 94.965,100.559 91.851,101.547 C89.318,102.351 85.872,108.424 85.789,112.231 C85.686,116.966 86.941,133.047 87.812,138.138 C88.523,142.292 88.707,142.485 91.68,142.185 C93.397,142.012 95.11,142.369 95.487,142.979 C96.157,144.062 93.797,148.507 91.495,150.5 C88.96,152.695 87.868,160.552 86.908,183.5 C84.833,233.141 84.936,232.548 77.681,236.373 C74.166,238.226 74.099,238.223 71.429,236.123 C69.945,234.955 68.068,234 67.259,234 C66.451,234 64.47,232.891 62.859,231.535 C61.248,230.179 57.614,227.907 54.783,226.485 C51.953,225.063 48.675,222.91 47.5,221.7 C46.324,220.49 43.947,218.743 42.217,217.817 C39.274,216.243 36.953,211.714 38.365,210.302 C38.698,209.969 42.239,211.297 46.235,213.254 C50.231,215.211 56.634,218.032 60.465,219.524 C64.296,221.015 68.513,222.945 69.836,223.812 C72.066,225.273 72.344,225.251 73.621,223.503 C74.394,222.447 75.009,219.174 75.02,216.059 C75.031,213.001 75.453,207.575 75.959,204 C77.507,193.048 78.236,167.264 77.018,166.511 C75.669,165.677 69.43,171.078 66.195,175.88 C64.854,177.871 63.327,179.662 62.801,179.859 C62.276,180.056 60.623,181.406 59.129,182.859 C52.97,188.845 43.307,196.837 40.498,198.267 C38.846,199.107 36.639,200.741 35.593,201.898 C34.288,203.34 32.482,204 29.845,204 C26.139,204 26,203.877 26,200.6 C26,197.746 26.903,196.375 31.632,192.053 C34.73,189.222 38.926,186.058 40.957,185.022 C42.988,183.986 47.991,180.064 52.075,176.306 C56.159,172.548 63.676,165.706 68.78,161.101 L78.059,152.73 L77.415,134.615 C77.061,124.652 76.571,116.162 76.326,115.75 C75.487,114.334 72.309,115.002 70.529,116.968 C68.197,119.545 51.125,128 48.254,128 C45.638,128 42,125.172 42,123.138 C42,121.408 44.91,119.075 47.121,119.032 C48.012,119.014 53.17,116.3 58.583,113 C63.995,109.7 68.925,107 69.537,107 C70.15,107 71.695,105.889 72.971,104.531 C75.168,102.192 75.248,101.628 74.485,93.781 C73.053,79.046 73.28,73.45 75.405,71.104 Z M160.246,57.689 C162.939,55.09 167.175,55.85 168.783,59.221 C170.642,63.118 168.404,66.866 162.344,70 C156.693,72.923 153.41,75.031 146.319,80.293 C142.294,83.279 140.397,84.066 137.819,83.818 C134.75,83.524 134.512,83.249 134.657,80.164 C134.807,76.97 138.238,72 140.292,72 C140.811,72 142.774,70.65 144.653,69 C146.532,67.35 148.53,66 149.093,66 C150.124,66 156.76,61.055 160.246,57.689 Z"/>
</svg>

