<svg xmlns="http://www.w3.org/2000/svg" width="300" height="300" viewBox="0 0 300 300" version="1.1">
  <defs/>
  <path d="M165,32.481 C169.58,29.822 172.347,30.597 176.684,35.75 C178.882,38.362 180.997,41.85 181.383,43.5 C181.769,45.15 182.504,48.419 183.015,50.764 C183.526,53.11 184.39,55.861 184.935,56.878 C185.479,57.896 186,61.827 186.091,65.614 C186.182,69.401 186.641,73.242 187.109,74.148 C187.578,75.054 188.027,78.983 188.107,82.879 C188.187,86.791 188.82,90.74 189.521,91.698 C190.704,93.316 191.149,93.237 196.135,90.523 C199.075,88.923 203.009,86.576 204.877,85.308 C206.746,84.041 209.994,82.54 212.095,81.974 C214.196,81.409 216.186,80.508 216.517,79.973 C217.485,78.406 223.182,78.855 225.171,80.655 C226.177,81.565 227,83.08 227,84.02 C227,86.844 223.079,91 220.414,91 C217.801,91 216.726,91.419 210.5,94.865 C208.3,96.082 203.674,98.46 200.22,100.148 C190.885,104.71 190.744,105.152 190.239,131.635 C189.792,155.11 190.042,156.473 194.294,153.77 C195.507,152.998 198.975,151.827 202,151.168 C205.025,150.508 208.85,149.078 210.5,147.991 C212.15,146.903 214.821,146.01 216.436,146.007 C219.77,145.999 224,149.435 224,152.151 C224,155.588 219.888,157.229 201.538,161.116 C188.835,163.808 188.239,165.166 187.573,193 C187.29,204.825 186.842,217.425 186.577,221 C186.063,227.918 185.154,247.119 185.058,253.082 C185.007,256.245 184.43,257.033 180.11,259.832 C177.421,261.574 174.591,263 173.821,263 C170.794,263 154.567,247.349 153.676,243.57 C153.408,242.432 152.206,238.892 151.004,235.705 C148.547,229.187 148.865,227 152.269,227 C155.113,227 157,228.737 157,231.356 C157,235.01 167.795,247 171.086,247 C172.004,247 173.278,246.37 173.917,245.6 C175.455,243.747 177.735,218.074 178.412,195 C178.71,184.825 179.249,174.588 179.609,172.25 C180.215,168.311 180.098,168 178.004,168 C176.762,168 172.99,169.288 169.623,170.863 C163.726,173.619 152.897,178.075 146.366,180.432 C144.643,181.053 142.618,182.048 141.866,182.641 C140.383,183.811 135.524,185.548 124.288,188.924 C117.676,190.91 116.832,190.965 114.147,189.576 C108.507,186.66 108.495,184.41 113.991,162 C115.138,157.325 116.673,150.293 117.402,146.374 C118.132,142.455 119.016,138.783 119.367,138.215 C120.329,136.659 118.995,134 117.254,134 C116.411,134 111.536,135.408 106.42,137.13 C95.35,140.855 93.497,140.562 94.454,135.239 C95.181,131.19 97.08,129.206 101,128.398 C102.375,128.115 106.322,127.009 109.771,125.941 C113.22,124.874 116.863,124 117.866,124 C118.869,124 120.374,123.212 121.209,122.25 C123.258,119.891 125.777,105.435 127.004,89 C127.559,81.575 128.457,72.8 129.001,69.5 C129.544,66.2 129.991,60.194 129.994,56.154 C129.999,50.337 130.43,48.204 132.068,45.904 C134.503,42.485 136.03,42.271 138.5,45 C140.768,47.506 141.539,47.499 144.842,44.944 C149.767,41.134 154.477,38.043 158.5,35.982 C160.7,34.854 163.625,33.279 165,32.481 Z M73.371,64.557 C75.229,61.721 77.668,61.306 80.462,63.349 C82.064,64.52 82.333,66.344 82.508,77.208 C82.618,84.09 83.029,90.237 83.42,90.871 C84.561,92.717 88.228,89.543 90.507,84.735 C92.147,81.273 93.076,80.445 95.592,80.199 C99.707,79.796 101.418,81.959 100.568,86.489 C100.206,88.42 99.51,90 99.022,90 C98.534,90 97.857,90.875 97.518,91.944 C97.178,93.013 94.285,96.005 91.088,98.593 L85.275,103.298 L84.607,113.629 C84.24,119.311 83.53,126.332 83.03,129.23 C82.53,132.129 81.981,137.875 81.81,142 L81.5,149.5 L85.75,149.183 C88.146,149.004 90,149.304 90,149.872 C90,150.425 88.2,152.958 86,155.5 C82.977,158.993 82,160.976 82,163.619 C82,168.087 80.238,184.707 78.938,192.5 C78.388,195.8 77.792,204.267 77.616,211.317 L77.294,224.133 L73.646,227.14 C71.64,228.793 69.215,229.995 68.256,229.811 C67.298,229.626 65.556,227.552 64.387,225.202 C62.154,220.715 47.555,204 45.87,204 C44.202,204 36.387,200.171 35.244,198.794 C34.648,198.076 33.865,196.31 33.503,194.868 C32.899,192.46 33.561,191.756 41.673,186.182 C56.087,176.276 56.712,175.792 64.512,168.498 L72,161.497 L72.027,150.498 C72.053,139.955 73.169,125.695 74.591,117.75 C75.563,112.316 73.168,112.792 65.66,119.523 C62.272,122.56 58.375,125.314 57,125.642 C55.625,125.97 53.6,126.79 52.5,127.465 C49.952,129.028 38.468,133 36.496,133 C34.016,133 31,129.191 31,126.059 C31,122.574 32.268,121.61 37.013,121.491 C38.951,121.443 42.553,120.488 45.018,119.37 C47.483,118.252 51.135,116.618 53.134,115.74 C55.132,114.862 58.341,112.761 60.266,111.072 C62.19,109.382 64.09,108 64.488,108 C64.886,108 66.975,106.604 69.13,104.897 L73.049,101.793 L72.372,84.454 C71.776,69.181 71.895,66.81 73.371,64.557 Z M164.5,43.945 C163.4,44.396 161.6,45.775 160.5,47.012 C159.4,48.248 156.735,50.38 154.578,51.751 C152.422,53.121 150.172,54.654 149.578,55.157 C148.985,55.661 146.633,57.412 144.352,59.048 C140.25,61.99 140.19,62.122 139.071,70.762 C138.448,75.568 137.704,80.85 137.418,82.5 C137.133,84.15 136.456,89.1 135.915,93.5 C134.488,105.097 134.111,107.87 133.131,114 C132.647,117.025 132.415,119.683 132.615,119.906 C132.815,120.129 134.671,119.615 136.739,118.764 C143.816,115.852 159.498,108.753 162,107.329 C163.375,106.546 166.525,105.015 169,103.926 C176.31,100.711 178.88,99.621 179.588,97.806 C179.989,96.777 179.792,95.514 179.521,93.5 C179.15,90.75 178.472,83.775 178.014,78 C177.22,67.99 175.157,56.81 173.309,52.5 C171.89,49.189 167.848,42.996 167.151,43.063 C166.793,43.098 165.6,43.495 164.5,43.945 Z M169,114.077 C165.975,115.674 163.05,117.342 162.5,117.783 C160.939,119.035 147.146,125.486 140.5,128.071 C129.851,132.214 128.9,133.788 126.031,152 C125.554,155.025 124.509,159.75 123.707,162.5 C122.906,165.25 121.927,169.861 121.532,172.746 C120.614,179.446 121.668,179.93 130.714,176.957 C140.349,173.792 143.064,172.303 146.75,168.168 C149.35,165.251 150,163.66 150,160.211 C150,157.84 149.276,154.5 148.39,152.788 C146.277,148.701 145.411,138.969 146.911,136.166 C148.191,133.775 151.192,133.306 152.77,135.25 C153.328,135.938 154.551,139.425 155.486,143 C156.422,146.575 157.638,150.449 158.188,151.61 C158.738,152.77 159.258,156.027 159.344,158.847 C159.43,161.668 159.972,164.157 160.549,164.379 C161.127,164.601 164.052,163.725 167.049,162.432 C170.047,161.138 173.175,160.052 174,160.018 C174.825,159.984 176.526,159.166 177.779,158.202 C179.958,156.525 180.083,155.66 180.643,138.474 C181.275,119.059 181.222,113.168 180.406,111.847 C179.404,110.226 174.466,111.192 169,114.077 Z M61.343,182.873 C56.857,187.618 51.77,193.022 50.037,194.883 C46.289,198.91 46.653,200.657 51.429,201.553 C53.418,201.926 56.897,203.918 59.385,206.108 C63.807,210 66.992,211.104 67.009,208.75 C67.025,206.316 71.847,177.474 72.525,175.75 C74.212,171.464 68.978,174.798 61.343,182.873 Z M150.2,82.2 C151.672,80.728 154.492,80.658 157.055,82.03 C162.474,84.93 163.901,97.587 159.411,102.923 C157.071,105.705 153.104,107.129 152.931,105.25 C152.532,100.903 151.871,98.452 150.559,96.45 C148.7,93.612 148.456,83.944 150.2,82.2 Z"/>
</svg>

