<svg xmlns="http://www.w3.org/2000/svg" width="300" height="300" viewBox="0 0 300 300" version="1.1">
  <defs/>
  <path d="M141.2,136.2 C141.86,135.54 143.648,135 145.174,135 C147.235,135 148.341,135.759 149.474,137.95 C150.313,139.573 151,141.823 151,142.95 C151,145.905 154.763,145.615 162.932,142.03 C167.794,139.896 173.137,138.613 181.916,137.471 C193.825,135.921 194.29,135.933 200.353,137.951 C206.594,140.028 207.625,140.814 211.764,146.654 C214.094,149.942 214.722,154.436 213,155.5 C212.45,155.84 212,157.835 212,159.935 C212,162.034 210.86,166.395 209.466,169.626 C208.073,172.857 206.544,176.4 206.069,177.5 C205.594,178.6 203.628,182.875 201.699,187 C199.771,191.125 197.928,195.175 197.603,196 C197.278,196.825 196.607,198.175 196.111,199 C195.616,199.825 191.748,207.475 187.515,216 C183.283,224.525 178.842,232.625 177.645,234 C176.449,235.375 174.606,238.075 173.551,240 C170.354,245.83 164.772,251.917 160.654,254.063 C156.988,255.974 156.651,255.994 154.892,254.402 C152.024,251.807 147.002,243.556 146.985,241.412 C146.977,240.361 146.321,237.7 145.529,235.5 C143.707,230.443 143.467,211.933 145.2,210.2 C147.002,208.398 149.798,208.754 150.965,210.934 C151.534,211.998 152,215.073 152,217.768 C152,220.462 152.322,222.988 152.715,223.382 C153.497,224.164 155.698,231.46 156.823,237 C158.029,242.938 160.861,241.723 167.312,232.5 C172.989,224.383 193.244,184.996 194.567,179.5 C194.964,177.85 197.249,172.415 199.645,167.423 C202.04,162.431 204,157.376 204,156.189 C204,155.002 202.762,152.688 201.25,151.046 C198.702,148.28 197.948,148.049 191,147.9 C180.346,147.672 176.777,148.296 165.627,152.336 C154.851,156.24 152,158.157 152,161.5 C152,162.705 151.1,164.505 150,165.5 C148.9,166.495 148,168.38 148,169.687 C148,170.995 147.325,173.68 146.5,175.654 C145.675,177.629 145,180.372 145,181.751 C145,184.308 140.554,197.588 139.07,199.465 C138.619,200.034 138.015,201.85 137.725,203.5 C137.141,206.834 131.411,222.845 128.122,230.333 C126.955,232.991 126,236.002 126,237.024 C126,238.046 125.588,239.136 125.085,239.448 C124.582,239.759 122.941,243.273 121.438,247.257 C119.936,251.24 117.648,256.34 116.353,258.588 C115.059,260.836 114,263.179 114,263.793 C114,264.408 112.865,266.584 111.478,268.628 C110.091,270.672 108.257,274.854 107.404,277.922 C104.352,288.89 93.992,293.241 94.004,283.55 C94.006,281.872 94.996,278.925 96.205,277 C99.057,272.459 108,254.121 108,252.815 C108,252.261 108.62,250.614 109.378,249.154 C110.136,247.694 111.22,245.375 111.787,244 C112.354,242.625 114.297,238.35 116.106,234.5 C117.915,230.65 119.721,226.375 120.119,225 C120.813,222.607 124.147,213.345 128.941,200.5 C130.172,197.2 131.613,192.718 132.142,190.539 C132.672,188.361 133.47,186.111 133.917,185.539 C135.005,184.147 138.194,167.86 137.512,167.179 C136.945,166.612 134.08,167.993 124.868,173.272 C121.77,175.047 117.72,177.339 115.868,178.364 C114.016,179.389 111.375,181.27 110,182.543 C108.625,183.816 106.372,185.136 104.994,185.476 C102.97,185.975 102.169,185.556 100.834,183.297 C98.716,179.711 99.492,175.545 102.756,172.977 C104.138,171.89 105.684,171 106.19,171 C107.495,171 116.026,167.063 119,165.088 C120.375,164.174 123.3,162.814 125.5,162.065 C127.7,161.316 130.892,159.644 132.594,158.351 C134.296,157.058 136.047,156 136.484,156 C138.677,156 139.939,151.999 139.968,144.95 C139.987,140.452 140.485,136.915 141.2,136.2 Z M59.9,68.687 C60.836,66.289 61.479,65.92 64.249,66.187 L67.5,66.5 L68.5,78.42 C69.752,93.344 70.445,93.811 77.292,84.353 C79.342,81.523 81.693,78.948 82.518,78.631 C84.172,77.997 88.483,79.355 89.37,80.79 C90.541,82.684 85.749,89.729 78.997,96.042 C73.206,101.456 72,103.126 72,105.727 C72,107.456 71.544,110.068 70.988,111.532 C70.288,113.373 70.322,115.476 71.098,118.347 C71.715,120.631 72.508,129.47 72.86,137.989 C73.404,151.16 73.743,153.524 75.122,153.787 C76.116,153.977 77.573,152.694 78.881,150.477 C81.373,146.253 84.591,145.989 84.356,150.027 C84.144,153.661 81.661,159.659 79.299,162.242 C74.235,167.78 73.791,170.708 72.446,207.5 L71.898,222.5 L68.79,225.205 C67.081,226.693 64.357,228.202 62.737,228.558 C54.373,230.395 39,224.539 39,219.515 C39,216.143 42.161,214.578 46.299,215.901 C52.744,217.962 59.491,218.318 60.86,216.669 C61.561,215.824 62.58,210.052 63.128,203.817 C63.675,197.593 64.373,189.688 64.678,186.25 C65.047,182.099 64.87,180 64.153,180 C63.559,180 58.389,184.724 52.664,190.498 C46.89,196.321 40.64,201.67 38.628,202.511 C36.632,203.345 35,204.468 35,205.007 C35,206.556 27.084,211.883 23.179,212.961 C19.253,214.045 16.5,212.746 17.454,210.259 C17.754,209.477 17.335,207.888 16.522,206.728 C15.134,204.746 15.27,204.483 18.772,202.379 C20.823,201.148 25.364,198.711 28.863,196.965 C36.716,193.046 37.652,192.287 52.5,177.773 L64.5,166.044 L64.27,151.958 C64.144,144.211 63.557,134.413 62.967,130.186 C62.377,125.959 61.636,120.362 61.32,117.75 C60.971,114.86 60.245,113 59.467,113 C58.764,113 56.234,114.578 53.845,116.507 C51.455,118.436 49.038,120.385 48.474,120.837 C43.273,125.01 34.174,128.411 29,128.116 C21.938,127.715 19.434,121 26.346,121 C28.221,121 30.267,120.384 30.892,119.63 C31.517,118.877 34.159,117.458 36.764,116.476 C42.6,114.276 48.284,110.462 54.983,104.25 C60.008,99.59 60.106,99.387 60.208,93.5 C60.265,90.2 59.972,83.9 59.556,79.5 C59.063,74.282 59.183,70.521 59.9,68.687 Z M120.302,59.199 C120.867,58.484 122.492,58.034 123.914,58.199 C126.82,58.537 130.364,64.617 131.521,71.25 C132.213,75.211 133.901,76.029 136.049,73.441 C140.086,68.576 149.05,63.152 155.473,61.687 C159.184,60.84 162.85,60.389 163.619,60.684 C167.425,62.145 166.257,69.697 160.424,81.33 C158.541,85.086 157,88.933 157,89.88 C157,90.826 156.541,92.059 155.979,92.621 C155.418,93.182 154.123,95.86 153.101,98.571 C152.079,101.282 150.906,104.311 150.495,105.301 C149.813,106.942 150.191,107.044 154.745,106.439 C158.221,105.978 159.973,106.148 160.497,106.995 C161.55,108.7 158.938,116.1 157.055,116.744 C153.233,118.051 143.021,123.158 142.48,124.033 C141.482,125.648 138.417,125.119 136.5,123 C135.505,121.9 133.886,121 132.904,121 C130.338,121 129.698,119.436 129.456,112.579 C129.014,100.018 125.823,81.627 123.877,80.424 C123.395,80.126 123,79.164 123,78.287 C123,77.411 121.865,74.293 120.477,71.361 C117.946,66.009 117.892,62.254 120.302,59.199 Z M147.5,76.178 C146.4,76.792 144.14,78.691 142.479,80.398 C140.817,82.104 138.604,83.976 137.561,84.557 C135.843,85.515 135.775,86.048 136.833,90.25 C137.475,92.799 138,97.611 138,100.943 C138,109.417 140.293,108.929 143.362,99.802 C144.23,97.218 145.899,92.943 147.07,90.302 C150.577,82.393 150.857,81.634 151.521,78.25 C152.217,74.705 151.135,74.147 147.5,76.178 Z"/>
</svg>

