<svg xmlns="http://www.w3.org/2000/svg" width="300" height="300" viewBox="0 0 300 300" version="1.1">
  <defs/>
  <path d="M111.229,24.643 C111.973,23.198 112.873,22.925 115.293,23.409 C119.017,24.153 119.964,25.436 119.985,29.764 C119.993,31.559 120.384,33.809 120.853,34.764 C122.613,38.346 124.751,43.6 125.631,46.5 C126.235,48.493 127.296,49.608 128.792,49.822 C131.894,50.267 140.563,44.777 146.06,38.886 C148.569,36.199 151.131,34 151.755,34 C152.378,34 154.151,35.094 155.694,36.431 C158.428,38.8 158.458,38.935 156.857,41.681 C155.953,43.232 153.028,46.219 150.357,48.321 C141.15,55.563 135.495,59.638 133.75,60.287 C131.46,61.138 131.562,63.883 134,67 C135.076,68.375 135.966,70.026 135.978,70.669 C135.99,71.312 136.671,73.112 137.492,74.669 C139.69,78.84 148,96.968 148,97.592 C148,97.887 149.125,100.588 150.5,103.594 C151.875,106.6 153,110.101 153,111.375 C153,113.899 156.317,117.54 157.789,116.631 C158.292,116.32 159.472,113.913 160.411,111.283 C161.351,108.652 162.529,105.74 163.03,104.811 C163.531,103.882 165.248,99.157 166.846,94.311 C168.443,89.465 170.707,83.799 171.875,81.72 C173.044,79.64 174,77.317 174,76.556 C174,75.795 175.332,72.546 176.959,69.336 C178.781,65.743 180.031,61.578 180.212,58.5 C180.425,54.856 180.911,53.5 182.002,53.5 C182.826,53.5 184.701,55.75 186.169,58.5 C188.939,63.69 189.728,68.432 188,69.5 C187.45,69.84 186.997,71.104 186.994,72.309 C186.99,73.514 186.315,75.789 185.494,77.364 C184.672,78.94 184,80.866 184,81.646 C184,82.425 183.325,83.322 182.5,83.638 C181.675,83.955 180.997,84.728 180.994,85.357 C180.99,85.986 180.275,87.85 179.403,89.5 C178.532,91.15 176.299,96.677 174.441,101.783 C170.818,111.737 169.144,115.725 165.388,123.342 C162.51,129.179 162.376,133.022 164.883,137.864 C167.092,142.132 169.621,148.469 170.523,152 C170.874,153.375 172.025,156.408 173.081,158.739 C174.136,161.071 175,163.915 175,165.061 C175,166.206 175.663,167.806 176.474,168.616 C177.284,169.427 178.456,171.978 179.077,174.286 C179.698,176.594 181.06,179.68 182.103,181.145 C183.147,182.61 184,184.265 184,184.823 C184,185.381 184.633,187.112 185.407,188.669 C187.667,193.213 188.851,196.173 190.54,201.5 C191.412,204.25 193.601,209.65 195.403,213.5 C197.205,217.35 199.289,222.075 200.033,224 C201.338,227.375 202.673,228.952 204.25,228.985 C204.662,228.993 205,226.112 205,222.582 C205,215.436 205.62,213 207.438,213 C209.428,213 213,221.558 213,226.325 C213,228.101 213.601,230.443 214.334,231.527 C215.129,232.701 215.757,236.887 215.885,241.865 C216.118,250.872 214.789,254 210.729,254 C208.706,254 201,246.375 201,244.373 C201,243.752 200.338,242.696 199.53,242.025 C198.721,241.354 195.536,235.561 192.452,229.152 C189.369,222.743 186.205,216.226 185.423,214.669 C184.64,213.112 184,211.361 184,210.778 C184,210.196 183.051,207.645 181.892,205.11 C180.733,202.574 179.227,199.15 178.545,197.5 C177.863,195.85 176.337,192.35 175.153,189.723 C173.969,187.096 173,184.347 173,183.614 C173,182.881 171.697,179.84 170.104,176.855 C168.512,173.871 166.633,169.42 165.929,166.965 C165.226,164.509 164.352,162.05 163.988,161.5 C163.624,160.95 162.303,157.701 161.052,154.281 C159.802,150.86 158.16,147.547 157.402,146.919 C155.6,145.423 153.02,146.46 152.927,148.719 C152.887,149.698 151.992,151.85 150.938,153.5 C149.884,155.15 148.759,157.175 148.438,158 C148.117,158.825 147.437,160.288 146.927,161.25 C145.598,163.759 144.475,165.984 142.383,170.25 C141.372,172.313 140.188,174 139.751,174 C139.314,174 138.424,175.238 137.772,176.75 C137.121,178.262 135.429,181.075 134.013,183 C132.597,184.925 130.814,187.738 130.05,189.25 C129.287,190.763 128.288,192 127.831,192 C127.374,192 127,192.697 127,193.548 C127,194.399 125.425,197.558 123.5,200.567 C121.575,203.577 120,206.274 120,206.562 C120,206.85 118.092,209.654 115.761,212.793 C113.43,215.932 108.708,222.55 105.269,227.5 C101.83,232.45 97.325,238.891 95.258,241.814 C93.191,244.737 91.05,247.914 90.5,248.875 C86.551,255.772 79.111,260.567 76.5,257.899 C75.747,257.129 74.836,255.295 74.475,253.822 C73.916,251.538 74.679,250.19 79.66,244.666 C82.872,241.103 87.438,235.558 89.807,232.344 C99.933,218.603 102,215.576 102,214.494 C102,213.864 103.049,212.364 104.33,211.16 C105.612,209.956 107.693,206.84 108.955,204.235 C111.65,198.673 113.087,196.301 120.477,185.211 C123.515,180.653 126,176.569 126,176.136 C126,175.703 127.125,174.292 128.5,173 C129.875,171.708 131,170.163 131,169.567 C131,168.147 139.774,150.94 141.488,149 C142.217,148.175 144.464,144.125 146.482,140 C150.916,130.936 150.866,126.769 146.207,117 C144.502,113.425 141.058,106.204 138.553,100.954 C136.049,95.704 133.998,90.529 133.996,89.454 C133.994,88.379 133.17,86.15 132.165,84.5 C131.161,82.85 130.002,80.15 129.591,78.5 C129.18,76.85 128.263,74.825 127.553,74 C126.842,73.175 125.83,71.15 125.302,69.5 C123.99,65.396 120.96,65.189 115.205,68.81 C112.617,70.439 108.848,72.296 106.83,72.937 C101.214,74.72 100.52,76.181 100.335,86.611 C100.244,91.729 99.84,96.45 99.437,97.102 C99.034,97.754 98.542,99.685 98.343,101.394 C98.016,104.205 95.913,115.25 94.372,122.25 C93.994,123.97 94.185,125 94.883,125 C95.498,125 96,124.607 96,124.128 C96,123.042 117.366,108.466 124.35,104.787 C128.723,102.483 129.708,102.282 130.878,103.451 C131.981,104.553 132.026,105.486 131.103,108.135 C129.92,111.529 125.352,117 123.702,117 C123.193,117 120.69,118.734 118.139,120.854 C115.587,122.973 112.477,125.245 111.227,125.901 C108.662,127.248 102.018,134.222 97.684,140.116 C96.095,142.276 92.909,144.903 90.603,145.953 C86.072,148.017 85.493,148.931 82.018,159.5 C80.752,163.35 79.389,166.95 78.989,167.5 C78.588,168.05 77.977,170.075 77.629,172 C77.282,173.925 74.748,179.915 71.999,185.311 C69.25,190.707 67,195.603 67,196.191 C67,196.78 65.512,199.34 63.694,201.881 C61.875,204.421 60.112,207.228 59.775,208.119 C58.943,210.32 50.083,215.156 47.547,214.793 C44.087,214.298 44.298,209.636 47.896,207.074 C51.176,204.739 55.311,199.044 58.843,192 C60.083,189.525 61.511,186.825 62.015,186 C63.305,183.889 66.507,176.24 68.085,171.5 C68.818,169.3 69.733,167.05 70.119,166.5 C70.505,165.95 71.154,163.7 71.561,161.5 C71.969,159.3 73.134,155.55 74.151,153.167 C75.168,150.784 76,147.773 76,146.476 C76,145.179 76.45,143.84 77,143.5 C77.55,143.16 78,142.164 78,141.287 C78,140.411 79.082,137.4 80.405,134.596 C81.728,131.793 83.332,126.575 83.969,123 C84.606,119.425 85.76,114.25 86.534,111.5 C88.457,104.662 89.399,84.185 87.875,82.35 C86.89,81.163 86.351,81.195 84.264,82.563 C81.676,84.259 75.854,86.24 62.228,90.064 C54.471,92.241 53.852,92.281 52.271,90.7 C50.955,89.383 50.85,88.75 51.793,87.807 C52.457,87.143 53.012,85.902 53.026,85.05 C53.06,82.98 58.427,80.632 70.392,77.45 C75.832,76.004 81.907,74.001 83.892,73 C85.876,71.998 90.2,69.975 93.5,68.504 C107.071,62.453 115.747,58.01 117.045,56.446 C118.232,55.016 118.116,54.256 116.211,50.945 C114.995,48.832 113.998,46.518 113.996,45.802 C113.994,45.086 112.874,42.297 111.507,39.603 C108.963,34.589 108.864,29.242 111.229,24.643 Z M151.655,5.829 C153.771,3.491 159.204,3.446 161.224,5.75 C162.068,6.713 163.461,8.888 164.32,10.585 C165.179,12.282 167.933,16.189 170.441,19.268 C173.23,22.692 175,25.867 175,27.446 C175,28.866 175.535,30.884 176.19,31.932 C177.123,33.427 177.097,34.179 176.067,35.419 C173.97,37.946 171.139,37.278 169.003,33.75 C167.921,31.963 165.115,28.318 162.768,25.651 C160.42,22.984 158.14,20.172 157.7,19.401 C157.26,18.631 156.389,18 155.765,18 C155.14,18 153.587,17.022 152.314,15.826 C149.566,13.244 149.252,8.484 151.655,5.829 Z"/>
</svg>

