<svg xmlns="http://www.w3.org/2000/svg" width="300" height="300" viewBox="0 0 300 300" version="1.1">
  <defs/>
  <path d="M147.674,48.75 C148.488,47.374 150.683,47.977 153.134,50.25 C155.053,52.03 155.826,54.277 156.833,61 C157.532,65.675 158.511,71.3 159.008,73.5 C159.504,75.7 160.194,80.567 160.542,84.315 C161.252,91.984 162.25,92.956 166.926,90.538 C169.491,89.212 170.771,89.127 174.266,90.05 C181.299,91.909 189,101.027 189,107.495 C189,108.912 189.695,111.131 190.545,112.428 C193.25,116.556 192.527,144.246 189.094,168 C188.578,171.575 187.468,179.56 186.628,185.744 C185.787,191.928 184.364,198.539 183.464,200.435 C181.423,204.736 182.302,207.798 185.817,208.632 C190.011,209.627 192.128,211.893 190.938,214.116 C188.89,217.943 185.19,218.786 171.5,218.548 C162.253,218.387 157.72,218.708 155.8,219.661 C154.314,220.397 150.939,221.001 148.3,221.001 C142.983,221.002 131.053,223.144 126.685,224.881 C121.419,226.974 118.164,222.912 121.206,218.042 C122.182,216.478 122.108,215.769 120.814,214.306 C119.002,212.258 119.015,209.883 120.963,186.187 C121.656,177.765 121.976,166.29 121.675,160.687 C120.783,144.06 117.241,118.817 115.378,115.802 C115.016,115.217 114.583,113.11 114.416,111.119 C114.249,109.129 113.342,105.313 112.401,102.641 C109.415,94.155 112.865,89.631 118.994,93.996 C121.301,95.639 122,96.908 122,99.454 C122,101.278 122.663,104.048 123.472,105.609 C124.282,107.17 125.233,110.371 125.586,112.723 C125.99,115.418 126.745,117 127.628,117 C128.398,117 131.514,114.976 134.551,112.501 C137.589,110.027 141.851,107.096 144.023,105.988 C150.802,102.53 151.398,100.753 150.663,86.194 C150.294,78.889 149.164,70.103 148,65.5 C146.177,58.289 146.045,51.504 147.674,48.75 Z M64.463,52.783 C67.104,50.558 67.586,50.586 70.116,53.116 C71.875,54.875 72.117,55.931 71.548,59.366 C70.639,64.854 70.615,65.337 70.822,73.75 C70.983,80.323 71.191,81 73.04,81 C75.233,81 82.154,74.249 84.573,69.75 C85.681,67.688 86.803,67 89.057,67 C92.754,67 93.454,68.6 92.045,73.834 C91.225,76.88 88.918,79.863 82.702,85.919 C72.204,96.147 71.957,96.956 72.052,120.75 C72.117,137.185 72.292,138.998 73.812,138.985 C76.191,138.963 77.625,137.837 78.387,135.394 C79.364,132.259 86.037,127.786 87.689,129.157 C89.476,130.64 89.376,131.167 86.5,135.405 C85.125,137.431 84,139.733 84,140.521 C84,141.309 82.876,142.691 81.501,143.591 C80.127,144.491 77.486,147.314 75.633,149.864 C72.416,154.291 72.232,155.019 71.576,166 C71.198,172.325 70.731,179.75 70.539,182.5 C69.287,200.348 68.221,228.07 68.67,231.088 C69.163,234.403 68.876,234.918 64.905,237.838 C60.232,241.275 55.989,241.896 53.952,239.442 C53.241,238.586 50.599,236.71 48.08,235.273 C45.561,233.837 42.35,231.5 40.944,230.081 C32.211,221.264 23.372,214 21.377,214 C16.96,214 14.223,212.205 13.003,208.509 C12.347,206.521 12.066,203.875 12.378,202.629 C12.691,201.384 17.752,195.895 23.626,190.432 C35.844,179.069 34.645,180.275 42.5,171.437 C50.196,162.778 57.976,155 58.942,155 C59.357,155 60.44,153.313 61.349,151.25 C62.742,148.088 62.941,144.608 62.616,129.042 C62.372,117.326 62.62,109.734 63.293,108.255 C64.127,106.425 64.009,105.58 62.739,104.311 C61.252,102.823 60.861,102.911 57.812,105.417 C51.624,110.502 46.728,114 45.798,114 C45.289,114 42.313,115.18 39.186,116.622 C28.261,121.661 24,121.822 24,117.198 C24,114.396 27.511,110 29.749,110 C30.52,110 34.243,107.999 38.024,105.553 C41.805,103.107 48.078,99.46 51.965,97.449 C55.852,95.437 59.7,92.838 60.516,91.673 C62.328,89.087 62.468,79.887 60.819,71.901 C59.39,64.984 61.19,55.542 64.463,52.783 Z M58.212,166.188 C57.546,166.854 57,168.033 57,168.807 C57,169.58 53.929,173.428 50.175,177.357 C38.08,190.014 24,206.926 24,208.794 C24,209.726 29.862,212.969 31.651,213.028 C32.118,213.043 34.268,214.393 36.428,216.028 C38.589,217.663 40.68,219 41.076,219 C41.472,219 44.823,220.84 48.524,223.088 C58.03,228.863 58.04,228.845 59.157,205.501 C59.648,195.237 60.395,184.287 60.817,181.169 C61.877,173.344 61.706,165.745 60.462,165.325 C59.892,165.133 58.879,165.521 58.212,166.188 Z M177.441,142.963 C175.273,144.603 173.115,145.957 172.644,145.972 C172.174,145.987 170.452,147.125 168.818,148.5 C167.184,149.875 165.218,151 164.449,151 C161.37,151 160.221,156.256 159.637,173 C159.321,182.075 158.673,192.65 158.197,196.5 C157.718,200.372 157.713,204.556 158.184,205.863 C158.989,208.095 159.355,208.187 164.768,207.528 C167.921,207.144 170.843,206.503 171.261,206.103 C172.496,204.926 175.725,192.234 177.393,182 C181.445,157.149 183.238,141.838 182.216,140.816 C181.757,140.357 179.608,141.323 177.441,142.963 Z M143,161.114 C135.855,164.992 133.157,166.266 132,168.382 C131.165,169.909 131.132,171.875 130.809,175.576 C130.43,179.934 129.809,189.809 129.429,197.52 C128.63,213.783 129.12,215.085 135.111,212.619 C136.975,211.852 140.387,210.913 142.692,210.534 C144.998,210.154 147.3,209.316 147.808,208.672 C149.535,206.48 151.903,165.733 150.604,160.559 C149.818,157.426 149.792,157.428 143,161.114 Z M140.75,121.077 C135.938,124.995 132,128.775 132,129.478 C132,130.18 131.278,131.355 130.395,132.087 C129.13,133.137 128.912,134.594 129.366,138.96 C130.648,151.291 131.089,155.592 132.61,156.016 C133.43,156.244 134.564,155.345 136.313,153.969 C137.733,152.851 141.385,150.797 144.428,149.404 C147.472,148.011 150.289,146.341 150.69,145.693 C151.09,145.045 151.57,138.886 151.757,132.007 C151.943,125.128 152.187,118.389 152.298,117.031 C152.652,112.709 149.802,113.708 140.75,121.077 Z M165.782,104.062 C162.22,106.138 161.185,110.918 161.18,125.315 C161.174,140.37 161.909,142.229 166.301,138.272 C167.51,137.182 170.525,135.228 173,133.929 C182.518,128.935 183.4,126.823 180.422,116.154 C178.262,108.419 176.308,104.332 174.423,103.609 C172.056,102.7 167.729,102.928 165.782,104.062 Z"/>
</svg>

