<svg xmlns="http://www.w3.org/2000/svg" width="300" height="300" viewBox="0 0 300 300" version="1.1">
  <defs/>
  <path d="M179.217,95.492 C188.552,91.041 195.004,93.664 194.994,101.905 C194.985,109.474 191.105,121.008 187.586,123.929 C186.714,124.653 186,126.028 186,126.986 C186,127.944 184.893,129.834 183.54,131.187 C182.187,132.54 180.211,135.674 179.149,138.152 C176.416,144.527 164.648,154.137 161.76,152.352 C160.074,151.31 161.182,147.8 164.316,144.253 C168.182,139.877 171.746,134.86 174.048,130.554 C178.932,121.417 180.055,118.948 181.978,113.125 C183.136,109.619 183.845,106.511 183.553,106.219 C182.164,104.831 174.362,109.569 162.825,118.807 C150.33,128.813 150.135,129.032 149.049,134.264 C147.214,143.105 146.063,149.948 144.386,162 C143.505,168.325 142.275,174.573 141.651,175.885 C138.917,181.637 132,182.446 132,177.014 C132,175.445 132.641,172.888 133.424,171.331 C134.728,168.74 137,150.867 137,143.204 C137,139.481 136.203,139.231 133.214,142.015 C132.025,143.123 129.971,144.441 128.65,144.943 C125.761,146.041 124.969,150.051 124.389,166.5 C124.176,172.55 123.798,180.2 123.55,183.5 C123.301,186.8 123.632,192.584 124.285,196.353 C125.452,203.091 125.547,203.243 129.986,205.476 C138.697,209.857 160.739,211.039 188.5,208.612 C196.75,207.891 207.595,207.51 212.6,207.766 L221.7,208.23 L223.89,205.155 C225.941,202.274 226.072,201.052 225.958,185.79 C225.891,176.83 225.45,167.7 224.977,165.5 C223.559,158.899 219.087,133.793 218.564,129.5 C218.296,127.3 217.786,123.817 217.43,121.76 C216.924,118.832 217.135,117.885 218.405,117.398 C219.296,117.056 220.645,117.29 221.402,117.919 C222.937,119.192 222.926,119.152 225.924,134.5 C227.106,140.55 228.692,147.75 229.448,150.5 C230.205,153.25 231.585,159.1 232.515,163.5 C233.446,167.9 234.61,173.387 235.103,175.693 C236.356,181.548 236.226,206.053 234.923,209.791 C234.331,211.49 232.26,214.09 230.322,215.568 C226.979,218.118 226.222,218.256 215.648,218.237 C209.517,218.227 197.75,218.671 189.5,219.224 C168.744,220.616 145.753,220.835 138,219.714 C133.995,219.135 129.735,217.706 126.902,215.99 C124.372,214.458 121.474,213.045 120.46,212.85 C119.446,212.655 117.522,210.368 116.184,207.769 C114.026,203.575 113.738,201.664 113.626,190.772 C113.557,184.022 113.804,173.298 114.176,166.939 C114.917,154.275 114.297,151.521 111.311,154.212 C110.315,155.11 108.15,156.171 106.5,156.571 C104.85,156.971 102.612,157.906 101.527,158.649 C97.086,161.691 91,158.952 91,153.912 C91,152.276 91.563,150.789 92.25,150.608 C101.1,148.277 112.146,143.733 113.796,141.746 C114.5,140.897 114.871,136.128 114.791,128.946 C114.72,122.619 115.151,116.331 115.755,114.887 C117.114,111.633 120.184,110.74 123.068,112.76 C125.059,114.155 125.216,114.919 124.74,120.9 C124.028,129.855 124.748,134 127.017,134 C128.001,134 130.965,132.046 133.603,129.658 L138.399,125.315 L138.45,112.311 C138.504,98.293 139.226,96 143.587,96 C146.944,96 148.247,99.217 148.386,107.85 C148.529,116.733 149.494,117.512 154.776,113.012 C163.507,105.574 174.303,97.835 179.217,95.492 Z M57.785,52.25 C59.419,49.39 64.013,49.252 66.49,51.989 C68.034,53.695 68.197,55.087 67.639,61.783 C66.788,71.983 67.802,82 69.685,82 C70.456,82 73.251,79.975 75.897,77.5 C81.167,72.57 82.437,72.181 85.171,74.655 C89.119,78.228 87.07,82.669 79.467,87.019 C76.418,88.763 72.649,91.555 71.091,93.221 C67.564,96.995 66.939,101.549 66.416,127.25 C65.976,148.922 66.041,149.042 74.103,141.5 C78.946,136.97 80.424,136.348 82.784,137.845 C84.159,138.718 83.415,142 81.843,142 C81.324,142 78.08,144.848 74.633,148.328 L68.367,154.656 L67.27,164.578 C66.666,170.035 66.163,175.625 66.152,177 C66.141,178.375 65.975,189.948 65.783,202.719 L65.434,225.938 L62.53,228.969 C60.933,230.636 58.733,232 57.642,232 C55.63,232 52,229.355 52,227.89 C52,227.451 50.988,225.993 49.75,224.65 C48.513,223.308 45.475,219.858 43,216.984 C38.55,211.816 35.615,208.905 31.258,205.336 C30.026,204.326 28.901,202.375 28.758,201 C28.53,198.787 28.921,198.465 32.166,198.195 C35.233,197.939 36.841,198.656 41.999,202.579 C45.391,205.159 48.407,207.896 48.701,208.662 C49.433,210.571 53.028,212.375 54.041,211.343 C54.496,210.879 55.154,202.85 55.503,193.5 C55.852,184.15 56.555,174.925 57.064,173 C58.41,167.905 58.224,165 56.55,165 C55.752,165 54.662,165.781 54.128,166.736 C53.067,168.631 45.409,174.919 37.443,180.436 C34.661,182.362 29.139,187.102 25.171,190.969 C21.203,194.836 17.097,198 16.047,198 C13.804,198 10,193.076 10,190.174 C10,187.809 16.091,182.336 23.846,177.732 C26.839,175.954 30.236,173.915 31.394,173.201 C32.553,172.487 38.9,167.762 45.5,162.701 L57.5,153.5 L57.348,128.648 C57.25,112.678 56.816,103.416 56.135,102.735 C55.389,101.989 53.954,102.453 51.282,104.305 C49.195,105.751 45.915,107.468 43.994,108.12 C42.072,108.772 39.375,110.057 38,110.974 C33.847,113.745 26.287,116.153 22.792,115.817 C20.011,115.549 19.45,115.06 19.175,112.662 C18.742,108.876 20.95,106.646 27.829,103.924 C30.948,102.689 34.175,101.11 35,100.415 C35.825,99.72 40.55,97.519 45.5,95.525 C50.45,93.531 54.95,91.449 55.5,90.898 C56.091,90.306 56.5,82.663 56.5,72.198 C56.5,59.615 56.871,53.85 57.785,52.25 Z M117.043,34.448 C118.578,32.599 120.991,32.605 123.645,34.464 C125.283,35.611 125.797,37.18 126.021,41.714 C126.439,50.168 126.017,73.052 125.385,76.25 C124.955,78.423 125.214,79 126.62,79 C128.454,79 130.098,77.587 142.618,65.25 C146.664,61.263 150.37,58 150.853,58 C152.839,58 157,62.3 157,64.353 C157,65.873 153.386,69.981 145.407,77.531 C139.031,83.564 132.875,88.853 131.727,89.284 C130.579,89.716 129.021,90.953 128.263,92.034 C127.506,93.115 126.419,94 125.848,94 C125.276,94 123.505,94.928 121.911,96.063 C118.635,98.396 117.605,98.071 115.525,94.049 C114.296,91.672 114.249,89.818 115.229,82.362 C115.872,77.471 116.271,65.075 116.118,54.698 C115.919,41.169 116.178,35.49 117.043,34.448 Z"/>
</svg>

