<svg xmlns="http://www.w3.org/2000/svg" width="300" height="300" viewBox="0 0 300 300" version="1.1">
  <defs/>
  <path d="M57.87,76.976 C61.213,73.633 61.361,73.588 64.109,75.058 C65.696,75.907 66.081,77.142 66.058,81.308 C66.042,84.164 66.282,90.213 66.591,94.75 C67.097,102.189 67.352,103 69.182,103 C71.855,103 78.666,97.546 80.556,93.892 C82.766,89.618 86.486,89.914 87.995,94.484 C89.624,99.421 88.779,101.036 81.937,106.059 C78.609,108.501 74.674,111.474 73.193,112.663 L70.5,114.827 L70.464,133.507 L70.428,152.187 L74.214,151.582 C77.5,151.056 78,151.232 78,152.911 C78,153.976 76.978,156.119 75.728,157.673 C70.598,164.056 69.706,167.62 69.389,183 C69.225,190.975 68.621,202.45 68.046,208.5 C67.472,214.55 66.994,223.325 66.986,228 C66.968,237.258 66.811,237.712 62.74,240.303 C59.61,242.295 58.073,241.799 52.022,236.847 C50.109,235.281 48.167,234 47.705,234 C47.244,234 45.434,232.915 43.683,231.59 C41.932,230.264 38.211,228.436 35.413,227.528 C29.566,225.63 24,222.475 24,221.06 C24,219.502 30.535,218.718 34.165,219.84 C35.999,220.407 39.525,221.401 42,222.048 C44.475,222.696 47.738,224.106 49.252,225.182 C50.765,226.258 53.015,226.995 54.252,226.819 C56.757,226.464 56.825,226.099 58.887,202 C60.864,178.887 60.902,176.9 59.386,176.318 C58.522,175.986 54.514,179.457 48.846,185.447 C43.815,190.762 37.63,196.534 35.101,198.275 C32.571,200.015 29.463,202.673 28.193,204.182 C26.924,205.69 23.268,208.515 20.069,210.458 C16.869,212.402 13.665,214.698 12.949,215.562 C10.959,217.96 6.317,220.059 4.526,219.372 C2.998,218.785 0,214.057 0,212.233 C0,211.757 2.813,209.477 6.25,207.167 C22.814,196.035 28.706,191.133 49.25,171.395 L60,161.066 L60.205,146.533 C60.317,138.54 60.43,130.088 60.455,127.75 C60.494,124.043 60.202,123.458 58.168,123.17 C56.885,122.988 55.085,123.495 54.168,124.296 C53.25,125.098 50.475,126.719 48,127.9 C45.525,129.081 41.673,131.148 39.439,132.494 C31.523,137.265 25.341,135.62 27.553,129.331 C28.227,127.415 29.607,126.223 32.014,125.48 C37.184,123.884 40.65,122.106 49.368,116.574 L57.236,111.582 L56.564,104.041 C56.195,99.893 55.668,92.777 55.393,88.226 C54.902,80.094 54.945,79.901 57.87,76.976 Z M159.785,86.389 C164.996,81.051 168.233,80.616 170.474,84.95 C171.313,86.573 172,88.363 172,88.927 C172,89.776 162.263,98.504 152.225,106.653 C148.863,109.382 147.646,118.523 149.155,129.71 C151.717,148.701 150.766,188.994 147.662,193 C142.839,199.225 142.998,201.313 148.25,200.729 C157.645,199.685 175.876,196.87 182,195.519 C187.312,194.347 203.876,193.557 220.285,193.693 C223.188,193.717 228,197.416 228,199.623 C228,200.325 226.424,202.1 224.498,203.57 C221.852,205.588 220.672,205.972 219.672,205.143 C218.087,203.827 196.014,203.798 185,205.097 C177.516,205.98 174.046,206.527 158,209.358 C153.325,210.183 146.8,211.175 143.5,211.563 C140.2,211.951 136.375,212.702 135,213.232 C133.625,213.762 128.225,215.011 123,216.006 C117.775,217.002 110.891,218.533 107.701,219.408 C100.204,221.466 97.686,221.415 95.649,219.165 C94.303,217.677 94.189,216.756 95.048,214.293 C96.028,211.482 96.827,211.066 105.803,208.698 C111.136,207.291 118.856,205.64 122.958,205.029 C127.06,204.417 130.538,203.795 130.688,203.645 C131.629,202.704 136.651,192.567 138.578,187.72 C140.716,182.339 140.881,180.429 140.96,160.043 C141.009,147.531 140.647,137.9 140.116,137.572 C139.605,137.256 138.866,132.723 138.474,127.499 C138.083,122.274 137.544,118 137.278,118 C137.012,118 134.703,119.077 132.147,120.394 C129.591,121.711 125.639,123.736 123.364,124.894 C118.327,127.459 115.371,127.573 114.153,125.25 C112.645,122.371 114.657,119.086 119.227,116.969 C125.543,114.043 127.134,112.933 144.795,99.139 C150.683,94.54 157.428,88.802 159.785,86.389 Z"/>
</svg>

