<svg xmlns="http://www.w3.org/2000/svg" width="300" height="300" viewBox="0 0 300 300" version="1.1">
  <defs/>
  <path d="M70.343,35.257 C72.629,31.82 75.916,30.989 77.878,33.354 C78.578,34.196 78.761,36.462 78.365,39.354 C77.801,43.469 77.944,43.997 79.614,43.978 C80.651,43.966 82.625,43.076 84,42 C85.375,40.924 86.882,40.034 87.349,40.022 C87.816,40.01 89.725,39.275 91.591,38.39 C96.083,36.258 98.008,37.112 97.968,41.219 C97.926,45.546 96.407,47.272 91.132,48.982 C88.73,49.761 84.816,51.633 82.436,53.143 C78.996,55.325 77.873,56.772 76.964,60.194 C76.336,62.562 74.989,65.4 73.972,66.5 C72.954,67.6 71.681,70.3 71.143,72.5 C70.604,74.7 68.777,79.809 67.082,83.854 C62.448,94.909 63.177,96.459 70.428,90.972 C72.589,89.337 75.431,88 76.744,88 C78.057,88 79.992,87.54 81.043,86.977 C84.128,85.326 89.27,88.128 92.828,93.4 L95.949,98.025 L95.472,115.393 C94.975,133.503 94.042,138.323 89.913,144.122 C88.122,146.638 87.326,147.011 84.892,146.476 C82.217,145.889 81.118,146.785 82.644,148.311 C82.999,148.665 83.458,151.778 83.666,155.228 C83.874,158.677 84.167,163.368 84.317,165.651 C84.799,172.963 86.971,173.977 94.441,170.379 C96.059,169.6 99.156,168.679 101.323,168.332 C104.27,167.861 105.672,166.976 106.882,164.823 C108.972,161.103 112.806,160.014 114.699,162.603 C119.211,168.772 115.092,175.282 105.5,177.141 C103.3,177.568 98.364,178.778 94.532,179.831 C88.044,181.614 87.501,181.979 86.663,185.123 C86.165,186.992 86.057,196.987 86.421,207.5 C86.783,217.95 86.971,233.925 86.839,243 C86.707,252.075 86.65,268.613 86.712,279.75 L86.826,300 L82.163,300 L77.5,300.001 L77.5,257.75 C77.5,234.513 77.094,208.863 76.598,200.75 C75.59,184.262 75.376,183.915 68.89,188.282 C67.025,189.538 63.7,191.382 61.5,192.381 C57.563,194.169 54.363,195.765 34.5,205.843 C15.874,215.293 8.594,218.346 4.5,218.424 C0.571,218.499 0.494,218.432 0.185,214.68 C-0.207,209.911 1.02,208.4 6.317,207.131 C12.677,205.606 27.275,200.061 28.985,198.519 C30.676,196.995 49.396,187.493 64.117,180.686 C69.406,178.24 74.046,175.735 74.427,175.118 C74.808,174.501 74.803,168.574 74.415,161.946 L73.711,149.897 L70.105,150.198 C66.616,150.49 66.483,150.649 65.967,155.137 C65.309,160.849 63.507,163.198 60.086,162.801 C57.567,162.508 57.483,162.261 56.847,153.225 C56.489,148.124 55.881,143.174 55.497,142.225 C55.114,141.276 54.603,137.221 54.361,133.213 C54.12,129.205 53.49,124.789 52.961,123.398 C52.433,122.008 52,120.019 52,118.979 C52,117.94 50.875,115.431 49.5,113.405 C46.313,108.708 46.244,103.701 49.311,99.594 C51.68,96.422 55.641,88.454 57.064,84 C57.503,82.625 59.235,77.914 60.912,73.531 C62.589,69.148 63.609,65.209 63.178,64.778 C62.748,64.348 60.844,65.168 58.948,66.602 C57.051,68.036 52.8,70.521 49.5,72.125 C46.2,73.729 42.375,75.664 41,76.424 C32.621,81.06 30.012,81.026 28.647,76.263 C27.558,72.469 28.739,70.533 32.757,69.525 C34.228,69.156 37.472,67.384 39.966,65.588 C42.46,63.792 46.3,61.622 48.5,60.766 C52.441,59.232 61.937,53.463 65.141,50.656 C66.045,49.864 67.098,46.81 67.484,43.859 C67.87,40.911 69.157,37.041 70.343,35.257 Z M141.34,53.769 C143.119,52.637 145.646,52.862 146.747,54.25 C147.293,54.938 147.968,58.491 148.246,62.146 C148.525,65.801 149.142,69.401 149.618,70.146 C151.116,72.489 152.968,78.398 153.02,81 C153.048,82.375 153.714,84.625 154.5,86 C155.286,87.375 155.945,89.963 155.965,91.75 C155.985,93.668 156.512,94.997 157.25,94.993 C157.938,94.989 160.75,92.208 163.5,88.813 C175.689,73.765 176.086,73.501 181.107,77.076 C184.002,79.137 184.01,79.174 182.296,82.076 C181.346,83.684 180.247,85 179.854,85 C178.506,85 162.797,103.499 161.385,106.75 C160.158,109.574 160.176,110.949 161.526,117.25 C162.38,121.237 163.532,126.975 164.087,130 C164.641,133.025 165.748,137.197 166.547,139.27 C167.346,141.344 168,144.355 168,145.961 C168,147.568 168.45,149.16 169,149.5 C169.55,149.84 170,151.19 170,152.5 C170,153.81 170.384,155.119 170.853,155.409 C172.55,156.458 174.93,153.306 180.222,143 C183.187,137.225 187.275,130.087 189.307,127.138 C191.338,124.189 193,120.996 193,120.043 C193,117.623 196.366,114.82 198.355,115.583 C200.236,116.304 200.536,118.551 198.888,119.569 C198.19,120 197.988,121.977 198.345,124.878 C198.811,128.661 198.469,130.226 196.463,133.5 C195.115,135.7 193.501,138.625 192.876,140 C189.807,146.746 188.432,149.534 187.707,150.473 C185.369,153.502 180,162.581 180,163.505 C180,164.095 179.09,166.36 177.978,168.539 C175.909,172.591 176.037,177.021 178.305,179.831 C178.896,180.563 179.706,183.263 180.106,185.831 C180.506,188.399 181.298,192.075 181.867,194 C182.435,195.925 183.876,200.875 185.067,205 C186.259,209.125 187.632,213.281 188.117,214.236 C188.603,215.191 189.003,216.541 189.006,217.236 C189.01,217.931 189.61,219.645 190.34,221.044 C191.07,222.443 191.964,225.068 192.325,226.877 C193.513,232.813 202.981,255.627 207.585,263.645 C210.066,267.965 212.35,272.709 212.66,274.186 C213.249,276.988 215.733,278.667 217.167,277.233 C217.625,276.775 217.057,267.872 215.905,257.45 C213.077,231.871 212.686,228.504 213.642,228.065 C213.804,227.99 214.004,228 214.238,228 C215.021,228 216.241,229.238 216.948,230.75 C217.655,232.262 218.568,234.181 218.977,235.013 C220.226,237.553 225,254.756 225,256.716 C225,257.727 225.713,259.573 226.585,260.818 C228.678,263.806 231.309,280.39 230.525,285.655 C229.702,291.177 226.119,295 221.766,295 C219.033,295 217.429,293.971 212.805,289.25 C206.318,282.628 199.929,271.73 193.312,256 C192.502,254.075 190.553,249.8 188.981,246.5 C187.409,243.2 185.603,238.475 184.968,236 C184.333,233.525 183.405,230.719 182.906,229.764 C182.408,228.809 182,227.148 182,226.073 C182,224.998 181.6,223.871 181.11,223.568 C180.621,223.266 180.003,221.552 179.736,219.759 C179.191,216.098 177.465,210.899 175.389,206.669 C174.625,205.112 174,202.839 174,201.619 C174,200.399 173.58,198.973 173.067,198.45 C172.554,197.928 171.991,195.7 171.817,193.5 C171.563,190.293 171.074,189.439 169.354,189.194 C167.535,188.935 166.426,190.461 162.089,199.194 C155.083,213.299 152.05,218.759 148.3,224.015 C146.54,226.482 143.95,230.75 142.545,233.5 C141.141,236.25 137.509,241.875 134.474,246 C131.44,250.125 128.18,254.804 127.229,256.397 C121.619,265.797 110.24,278.855 107.564,278.962 C105.809,279.033 102,274.656 102.007,272.576 C102.011,271.366 104.481,268.089 107.932,264.718 C112.717,260.044 133.44,231.048 136.319,225 C136.711,224.175 138.375,221.475 140.016,219 C141.657,216.525 145.363,209.887 148.25,204.25 C151.138,198.612 154.85,191.369 156.5,188.155 C158.15,184.94 160.444,181.002 161.598,179.405 C162.752,177.807 163.966,175.415 164.296,174.089 C164.92,171.586 162.63,160.046 160.85,156.72 C160.29,155.673 158.783,149.345 157.501,142.658 C152.585,117.003 152.35,116 151.25,116 C150.803,116 148.141,118.137 145.334,120.75 C137.884,127.684 123.35,138.08 119.42,139.286 C116.955,140.042 115.307,140.005 113.433,139.151 C111.181,138.125 110.932,137.555 111.504,134.737 C112.194,131.335 115.235,128 117.646,128 C121.886,128 149.007,105.578 148.994,102.084 C148.99,101.213 148.315,99.211 147.494,97.636 C146.672,96.06 146,93.88 146,92.79 C146,90.331 143.25,80.113 141.956,77.764 C141.43,76.809 141,74.874 141,73.464 C141,72.054 140.367,69.677 139.594,68.182 C138.495,66.057 138.406,64.27 139.184,59.985 C139.732,56.972 140.702,54.175 141.34,53.769 Z M172.046,33.451 C175.777,29.479 181,30.68 181,35.509 C181,36.669 181.661,38.491 182.468,39.559 C183.276,40.626 183.953,42.175 183.974,43 C183.995,43.825 184.685,45.789 185.506,47.364 C186.328,48.94 187,50.987 187,51.914 C187,52.841 187.408,54.027 187.906,54.55 C188.405,55.072 188.967,58.425 189.156,62 C189.479,68.104 189.363,68.519 187.246,68.82 C185.756,69.032 184.798,68.523 184.423,67.32 C184.11,66.319 183.483,64.793 183.031,63.929 C182.578,63.066 180.978,59.241 179.476,55.429 C177.974,51.618 175.938,47.6 174.953,46.5 C173.967,45.4 172.391,42.565 171.452,40.201 C169.768,35.963 169.776,35.867 172.046,33.451 Z M76,99.791 C74.075,100.738 70.579,102.759 68.231,104.282 C64.87,106.46 63.554,106.831 62.046,106.025 C60.993,105.461 59.841,105 59.486,105 C58.478,105 60.095,111.215 61.767,113.767 C63.158,115.891 63.431,115.948 65.386,114.534 C70.625,110.744 75.377,108.825 78.148,109.38 C81.748,110.1 86,108.535 86,106.49 C86,103.946 81.762,97.984 80,98.049 C79.725,98.059 77.925,98.843 76,99.791 Z M78.785,125.5 C74.504,128.409 73.685,128.53 72,126.5 C70.14,124.259 67.252,124.686 65.426,127.473 C64.189,129.361 63.969,131.137 64.496,134.973 C64.877,137.738 65.618,140 66.143,140 C68.006,140 73.535,136.73 76.064,134.133 C77.475,132.685 80.062,130.733 81.814,129.797 C84.115,128.566 85,127.386 85,125.547 C85,122.343 83.448,122.331 78.785,125.5 Z"/>
</svg>

