<svg xmlns="http://www.w3.org/2000/svg" width="300" height="300" viewBox="0 0 300 300" version="1.1">
  <defs/>
  <path d="M128.536,41.732 C131.293,37.675 132.998,37.141 135.429,39.571 C137.316,41.459 137.339,41.615 137.042,50.631 C136.898,54.975 137.235,58.027 137.903,58.44 C138.506,58.813 139,61.09 139,63.5 C139,65.91 139.45,68.16 140,68.5 C140.55,68.84 141,70.386 141,71.937 C141,76.699 143.365,77.707 148.585,75.171 C151.043,73.977 153.761,73 154.626,73 C155.49,73 157.692,72.291 159.518,71.424 C162.57,69.976 163.048,69.985 165.42,71.539 C166.839,72.469 168,73.994 168,74.928 C168,77.409 163.125,81.458 158.329,82.961 C151.367,85.142 146.534,88.313 146.158,90.946 C145.97,92.261 146.949,96.974 148.334,101.419 C149.718,105.863 151.362,111.525 151.986,114 C154.162,122.623 156.205,129.512 157.1,131.236 C157.595,132.191 158,134.077 158,135.427 C158,136.777 158.45,138.16 159,138.5 C159.55,138.84 160,140.19 160,141.5 C160,142.81 160.47,144.172 161.044,144.527 C162.45,145.396 165,143.164 165,141.064 C165,140.134 167.015,135.351 169.477,130.436 C171.939,125.521 173.965,121.05 173.979,120.5 C173.992,119.95 176.032,115.675 178.511,111 C180.991,106.325 183.736,100.925 184.612,99 C188.352,90.779 188.563,90.5 191.038,90.5 C193.237,90.5 193.534,90.975 193.817,94.941 C193.991,97.383 193.606,100.533 192.962,101.941 C192.317,103.348 191.224,105.85 190.534,107.5 C189.155,110.793 182.337,125.472 180.902,128.236 C180.406,129.191 180,130.654 180,131.486 C180,132.319 179.58,133 179.067,133 C178.554,133 177.844,134.012 177.488,135.25 C176.609,138.306 174.619,142.793 169.231,153.869 C164.768,163.043 164.706,163.303 166.259,166.369 C167.131,168.091 168.375,171.864 169.023,174.753 C169.671,177.642 170.606,180.256 171.1,180.562 C171.595,180.868 172,182.666 172,184.559 C172,187.333 171.613,188 170,188 C168.378,188 168,188.667 168,191.531 C168,193.748 168.559,195.277 169.5,195.638 C170.325,195.955 171,197.039 171,198.048 C171,199.057 171.45,200.16 172,200.5 C172.55,200.84 173,202.441 173,204.059 C173,206.007 173.507,207 174.5,207 C175.325,207 175.993,206.662 175.985,206.25 C175.959,204.959 173.405,198.071 172.685,197.352 C171.743,196.41 171.817,191 172.773,191 C173.547,191 176.202,195.876 178.49,201.5 C179.161,203.15 180.615,206.525 181.722,209 C182.828,211.475 184.517,215.525 185.476,218 C186.434,220.475 187.619,223.534 188.109,224.797 C188.599,226.06 189,228.143 189,229.425 C189,230.706 189.675,232.315 190.5,233 C191.325,233.685 192,234.849 192,235.587 C192,236.325 193.05,238.858 194.334,241.215 C195.618,243.572 197.737,248.2 199.044,251.5 C201.609,257.98 203.893,261.845 209.53,269.25 C215.429,276.998 218.061,275.306 216.919,264.5 C216.512,260.65 215.62,252.191 214.936,245.703 C214.013,236.937 213.984,233.616 214.823,232.777 C216.678,230.922 219.829,234.677 220.571,239.627 C220.934,242.046 221.629,244.271 222.115,244.571 C222.602,244.872 223,246.921 223,249.125 C223,251.328 223.413,253.903 223.917,254.845 C224.422,255.788 224.984,262.246 225.167,269.195 C225.489,281.413 225.42,281.917 223.076,284.416 C219.953,287.744 217.235,287.68 212.4,284.164 C201.027,275.894 194.494,267.045 187.549,250.5 C186.856,248.85 185.323,245.475 184.142,243 C182.961,240.525 181.996,237.953 181.997,237.284 C181.999,236.615 181.263,234.365 180.361,232.284 C179.46,230.203 178.28,227.375 177.74,226 C177.199,224.625 176.094,222.235 175.285,220.688 C174.476,219.142 174.077,216.831 174.397,215.553 C174.767,214.08 174.41,212.755 173.421,211.934 C172.563,211.222 172.075,209.82 172.337,208.817 C172.6,207.815 172.293,206.659 171.657,206.248 C169.856,205.084 167.191,198.932 166.484,194.308 C166.132,192.002 165.218,189.596 164.453,188.961 C163.688,188.326 162.532,185.111 161.884,181.816 C161.236,178.52 160.112,175.597 159.387,175.318 C157.599,174.632 151.656,181.297 150.019,185.825 C148.849,189.062 144.993,194.765 141.25,198.797 C140.563,199.537 140,200.52 140,200.982 C140,201.443 138.2,204.098 136,206.881 C133.8,209.664 132,212.452 132,213.076 C132,213.701 130.988,215.481 129.75,217.032 C128.512,218.584 125.25,222.924 122.5,226.677 C119.75,230.43 116.927,234.105 116.227,234.845 C115.526,235.584 114.33,237.384 113.568,238.845 C112.805,240.305 108.149,245.438 103.22,250.25 C93.629,259.613 90.914,260.772 87.473,256.97 C84.656,253.858 86.509,250.385 94.094,244.56 C99.632,240.305 103.563,236.291 110.006,228.31 C110.534,227.656 113.44,223.381 116.462,218.81 C119.485,214.24 125.122,206.082 128.988,200.683 C132.855,195.283 136.695,189.658 137.522,188.183 C139.554,184.557 140.601,182.886 147.031,173.002 C153.928,162.401 155.716,158.316 154.144,156.744 C153.515,156.115 152.986,154.227 152.968,152.55 C152.951,150.872 152.276,148.626 151.468,147.559 C150.661,146.491 150,144.273 150,142.63 C150,139.501 149.77,138.596 145.584,125.277 C144.163,120.754 143,116.168 143,115.086 C143,114.004 142.55,112.84 142,112.5 C141.45,112.16 141,110.529 141,108.875 C141,107.222 140.462,104.886 139.805,103.684 C139.147,102.483 138.356,99.7 138.046,97.5 C137.527,93.817 137.246,93.509 134.491,93.612 C132.846,93.674 129.25,94.243 126.5,94.877 C123.75,95.511 118.575,96.486 115,97.043 C111.425,97.6 102.876,99.437 96.002,101.126 C83.138,104.287 77.047,104.475 74.366,101.794 C72.386,99.814 75.089,96.339 79.251,95.515 C81.038,95.161 86.1,93.819 90.5,92.532 C110.458,86.697 116.985,85.001 123.749,83.894 C127.736,83.241 131.499,82.104 132.11,81.367 C133.293,79.942 131.492,67.454 129.829,65.55 C129.373,65.027 128.986,63.452 128.968,62.05 C128.951,60.647 128.276,58.626 127.468,57.559 C125.024,54.327 125.58,46.082 128.536,41.732 Z M101.971,118.25 C104.55,115.496 106.16,115.414 108.428,117.921 C109.729,119.358 110.208,121.809 110.333,127.657 C110.466,133.877 110.821,135.535 112.07,135.775 C112.933,135.941 117.082,133.974 121.289,131.403 C128.743,126.849 129.003,126.772 131.469,128.388 C134.249,130.21 134.772,133.562 132.714,136.376 C132.007,137.344 127.629,140.25 122.985,142.836 C118.039,145.589 114.021,148.565 113.285,150.018 C112.464,151.641 112.024,157.186 112.015,166.038 C112,179.536 111.991,179.586 109.077,183.038 C106.622,185.945 105.86,186.321 104.327,185.384 C102.342,184.172 102.242,181.379 103.554,163.758 C104.117,156.197 103.983,154.931 102.565,154.387 C101.663,154.041 100.155,154.427 99.213,155.244 C98.271,156.062 96.348,157.004 94.941,157.337 C93.533,157.67 90.833,158.988 88.941,160.266 C85.589,162.53 85.498,162.769 85.425,169.545 C85.31,180.131 83.97,188.126 81.661,192 C78.766,196.858 77.485,198 74.936,198 C72.88,198 72.773,197.676 73.374,193.29 C73.729,190.7 74.465,188.135 75.01,187.59 C75.554,187.046 76,182.176 76,176.769 C76,169.163 75.676,166.813 74.569,166.388 C73.782,166.086 69.223,167.699 64.437,169.973 C54.265,174.806 50.669,174.979 50.175,170.662 C49.706,166.569 51.926,164.687 62.844,159.918 C68.155,157.599 72.848,155.206 73.274,154.601 C73.699,153.995 73.774,152.375 73.44,151 C73.106,149.625 72.478,144.9 72.045,140.5 C71.399,133.948 71.532,132.183 72.783,130.75 C76.446,126.552 82.987,130.933 81.558,136.626 C80.729,139.926 83.844,149 85.805,149 C87.889,149 99.537,143.263 100.978,141.526 C101.789,140.549 101.985,138.718 101.541,136.264 C101.167,134.194 100.636,129.8 100.362,126.5 C99.935,121.365 100.167,120.176 101.971,118.25 Z M166.655,36.829 C168.648,34.627 170.847,34.504 173.612,36.441 C175.354,37.661 182.797,51.569 186.219,60 C186.777,61.375 187.631,63.281 188.117,64.236 C189.272,66.508 189.254,72.725 188.09,73.444 C186.133,74.654 184.024,72.575 180.602,66.062 C178.64,62.329 176.352,58.707 175.517,58.014 C174.683,57.322 174,56.184 174,55.486 C174,54.788 171.975,51.964 169.5,49.211 C164.612,43.775 163.753,40.036 166.655,36.829 Z M161.015,169.25 C161.051,172.221 163.942,178.527 165.404,178.823 C167.502,179.248 167.577,174.724 165.5,173 C164.675,172.315 164,170.91 164,169.878 C164,168.845 163.325,168 162.5,168 C161.675,168 161.007,168.563 161.015,169.25 Z M89.25,95.662 C88.101,96.126 87.415,99 88.453,99 C89.729,99 94,96.566 94,95.839 C94,94.938 91.295,94.837 89.25,95.662 Z M166,182.335 C166,184.631 167.103,187 168.173,187 C169.572,187 168.726,181.729 167.25,181.244 C166.563,181.018 166,181.509 166,182.335 Z M175.721,210.959 C175.316,212.506 175.666,213 177.167,213 C178.478,213 179.037,212.437 178.823,211.333 C178.343,208.858 176.334,208.616 175.721,210.959 Z"/>
</svg>

