<svg xmlns="http://www.w3.org/2000/svg" width="300" height="300" viewBox="0 0 300 300" version="1.1">
  <defs/>
  <path d="M160.5,37 C163.209,34.25 166.259,32 167.278,32 C170.951,32 173,33.932 173,37.395 C173,40.436 172.211,41.295 163.75,47.458 C158.662,51.164 151.611,56.065 148.081,58.348 C143.176,61.52 141.371,63.35 140.434,66.103 C138.735,71.089 138.023,120.001 139.648,120 C140.28,120 147.017,113.475 154.62,105.5 C166.592,92.942 168.857,91 171.535,91 C173.648,91 175.514,91.927 177.434,93.931 C180.063,96.675 180.207,97.264 179.698,103.181 C178.811,113.485 177.031,125.356 176.05,127.5 C175.547,128.6 174.449,132.356 173.61,135.846 C172.772,139.337 171.579,142.803 170.96,143.548 C170.341,144.294 170.112,145.778 170.451,146.847 C171.021,148.641 169.198,154.988 166.869,159.326 C166.329,160.331 165.634,163.296 165.323,165.917 L164.759,170.68 L169.63,173.781 C178.554,179.464 190.475,187.814 192.5,189.801 C193.6,190.881 196.3,192.924 198.5,194.341 C208.23,200.607 217.353,207.437 238.121,224 C243.983,228.675 251.315,234.058 254.416,235.962 C262.11,240.688 266.232,247.997 262.75,250.74 C262.063,251.281 260.212,252.033 258.638,252.409 C256.117,253.013 255.221,252.505 251.138,248.161 C248.587,245.448 245.187,242.401 243.583,241.39 C241.979,240.378 239.729,238.772 238.583,237.819 C231.997,232.342 226.723,228.205 223.516,226 C221.517,224.625 216.585,220.8 212.556,217.5 C199.975,207.194 195.758,204 194.729,204 C194.182,204 190.211,201.188 185.905,197.75 C172.197,186.807 162.025,179.849 160.237,180.193 C159.283,180.377 157.142,183.221 155.481,186.513 C151.389,194.619 149.336,197.694 144.407,203.093 C142.101,205.619 139.493,209.079 138.613,210.782 C137.732,212.485 136.053,214.55 134.883,215.37 C133.712,216.19 132.247,217.87 131.627,219.104 C130.489,221.369 128.339,222.889 119.821,227.454 C117.247,228.834 114.858,230.421 114.512,230.981 C113.613,232.435 110.787,232.24 108.387,230.559 C105.342,228.425 106.26,223 109.667,223 C111.008,223 113.604,221.982 115.435,220.738 C120.863,217.05 136.734,199.046 141.21,191.5 C143.493,187.65 145.875,183.825 146.503,183 C147.131,182.175 148.266,179.53 149.025,177.122 C150.365,172.869 150.331,172.684 147.839,170.622 C146.428,169.455 143.974,167.732 142.387,166.793 C140.799,165.854 137.827,163.65 135.782,161.894 C130.434,157.303 130.12,157.728 124.496,177.189 C123.592,180.318 122.211,183.41 121.426,184.061 C120.642,184.712 120,186.3 120,187.589 C120,189.702 117.277,196.753 115.98,198 C115.693,198.275 114.891,199.625 114.197,201 C113.503,202.375 110.812,207.415 108.217,212.2 C105.623,216.985 102.079,223.527 100.343,226.738 C95.864,235.019 88.154,243 84.633,243 C81.159,243 78,241.355 78,239.546 C78,238.786 79.688,237.139 81.75,235.886 C83.813,234.634 85.95,232.941 86.5,232.123 C92.302,223.497 114,180.568 114,177.715 C114,176.7 114.547,174.886 115.216,173.684 C116.343,171.658 117.805,166.962 121.652,153 C125.81,137.912 128.837,114.479 129.402,93 C129.67,82.825 130.19,73.037 130.558,71.25 C131.278,67.751 130.103,66.966 127.978,69.527 C126.081,71.812 118.734,76.575 116.002,77.289 C112.665,78.162 111,76.405 111,72.01 C111,68.781 111.524,67.919 114.81,65.744 C116.905,64.358 120.761,62.248 123.378,61.055 C125.995,59.863 130.52,57.363 133.434,55.499 C136.348,53.635 140.93,50.905 143.616,49.432 C146.302,47.959 149.65,45.684 151.055,44.377 C152.46,43.07 154.052,42 154.592,42 C155.133,42 157.791,39.75 160.5,37 Z M62.655,62.829 C64.783,60.477 65.481,60.526 67.974,63.203 C69.803,65.166 69.998,66.493 69.763,75.428 C69.424,88.339 70.424,88.761 79.609,79.576 C83.226,75.959 86.83,73 87.617,73 C89.582,73 91.218,77.732 90.454,81.208 C90.054,83.029 88.216,85.236 85.393,87.284 C76.133,94.002 73.395,95.727 72.473,98.145 C71.968,99.47 72.008,101.003 71.818,103.681 C71.552,107.431 71.597,115.45 71.917,121.5 L72.5,132.5 L75.663,132.5 C77.403,132.5 79.12,132.792 79.479,133.149 C79.838,133.506 78.793,136.206 77.157,139.149 C73.471,145.782 73.104,149.169 72.515,182 C72.263,196.025 71.756,211.235 71.387,215.799 L70.717,224.099 L66.428,227.049 C61.104,230.712 59.367,230.735 54.978,227.198 C53.065,225.656 48.902,223.102 45.727,221.523 C42.552,219.943 39.459,218.054 38.855,217.325 C38.25,216.596 37.214,216 36.554,216 C35.893,216 33.137,214.425 30.429,212.5 C27.722,210.575 24.83,208.997 24.003,208.994 C23.176,208.99 21.161,208.289 19.525,207.436 C17.888,206.583 15.655,206.119 14.561,206.404 C13.468,206.69 11.77,206.197 10.787,205.307 C7.099,201.969 8.477,199.549 19.75,189.571 C33.271,177.603 52.23,158.495 58.997,150.015 L64.173,143.529 L63.577,134.015 C62.236,112.596 61.82,109.095 60.482,107.985 C59.422,107.106 57.182,107.997 50.44,111.979 C35.858,120.592 27.815,122.241 27.183,116.748 C26.995,115.113 27.733,112.779 29.001,110.998 C30.806,108.464 31.801,108 35.433,108 C38.216,108 40.626,107.295 42.273,106 C43.671,104.9 45.059,104 45.358,104 C46.301,104 54.383,98.303 57.378,95.526 L60.256,92.858 L59.79,82.388 C59.534,76.629 59.702,71.684 60.162,71.4 C60.623,71.115 61,69.481 61,67.77 C61,66.058 61.745,63.835 62.655,62.829 Z M59.42,161.314 C58.826,161.995 57.492,163.89 56.456,165.526 C53.261,170.569 46.145,178.623 34.932,189.89 C29.023,195.828 24.483,201.146 24.844,201.708 C25.205,202.27 26.625,203.039 28,203.417 C30.332,204.057 35.676,206.154 44,209.695 C45.925,210.514 49.591,212.267 52.147,213.592 C54.703,214.916 57.426,216 58.198,216 C60.73,216 63.952,191.071 63.983,171.25 C63.998,161.181 63.816,160.004 62.25,160.038 C61.288,160.059 60.014,160.633 59.42,161.314 Z M164.553,109.75 C164.069,111.204 155.22,120.9 151.092,124.5 C147.37,127.745 138.62,137.641 136.494,141.009 C133.414,145.889 133.362,147.595 136.25,149.109 C137.488,149.758 140.177,151.686 142.228,153.394 C150.794,160.531 152.849,162 154.269,162 C155.836,162 157.423,157.345 164.331,132.5 C166.318,125.35 168.234,116.912 168.588,113.75 C169.184,108.413 169.083,108 167.183,108 C166.056,108 164.873,108.787 164.553,109.75 Z"/>
</svg>

