<svg xmlns="http://www.w3.org/2000/svg" width="300" height="300" viewBox="0 0 300 300" version="1.1">
  <defs/>
  <path d="M129.136,40.16 C131.072,34.927 140,40.782 140,47.285 C140,48.713 140.415,50.139 140.923,50.452 C141.431,50.766 142.142,52.372 142.505,54.022 C143.125,56.844 145.814,63 146.427,63 C146.582,63 147.922,61.875 149.405,60.5 C154.107,56.143 160,57.587 160,63.096 C160,66.024 154.797,71.366 150.268,73.088 C148.07,73.924 147.843,74.443 148.442,77.271 C148.818,79.047 149.49,82.525 149.936,85 C151.075,91.323 155.295,106.864 158.761,117.5 C160.374,122.45 162.685,129.875 163.897,134 C165.109,138.125 166.811,143.3 167.68,145.5 C168.549,147.7 170.031,151.525 170.975,154 C173.985,161.902 175.478,165.678 181.845,181.5 C189.386,200.236 192,207.15 192,208.353 C192,209.014 193.35,212.157 195,215.337 C196.65,218.518 198,221.716 198,222.445 C198,223.87 199.292,226.448 202.788,232 C204.001,233.925 204.994,236.264 204.996,237.197 C205.001,239.312 213.465,255.322 214.816,255.772 C216.773,256.424 217.612,244.674 216.477,232.5 C215.98,227.157 216.167,225.047 217.268,223.588 C219.315,220.874 222,222.191 222,225.91 C222,227.544 222.45,229.16 223,229.5 C223.55,229.84 224,231.412 224,232.994 C224,234.576 224.492,237.137 225.094,238.685 C225.696,240.233 226.536,248.025 226.962,256 C227.58,267.597 227.456,271.051 226.342,273.25 C223.721,278.423 218.99,276.431 211.622,267.052 C203.785,257.077 195.971,242.689 190.61,228.366 C189.965,226.643 188.938,224.618 188.328,223.866 C187.717,223.115 186.475,220.25 185.567,217.5 C184.659,214.75 183.035,210.592 181.958,208.261 C180.881,205.929 180,203.58 180,203.041 C180,202.501 178.931,199.683 177.624,196.78 C176.317,193.876 174.71,189.819 174.051,187.764 C173.393,185.709 172.437,183.77 171.927,183.455 C171.417,183.14 171,182.189 171,181.342 C171,180.495 170.375,178.384 169.612,176.651 C166.893,170.48 162.083,157.436 161.074,153.5 C160.511,151.3 159.421,148.6 158.653,147.5 C157.884,146.4 156.916,143.94 156.501,142.033 C156.085,140.126 155.407,137.876 154.994,137.033 C153.667,134.33 151.107,125.625 150.424,121.5 C150.061,119.3 149.215,116.15 148.546,114.5 C145.979,108.172 144.793,104.263 143.385,97.5 C142.584,93.65 141.513,89.6 141.006,88.5 C140.498,87.4 139.952,85.375 139.792,84 C139.342,80.146 136.135,80.437 129.748,84.911 C120.805,91.176 120.134,91.432 117.917,89.425 C115.498,87.235 115.445,82.812 117.813,80.669 C118.81,79.767 122.973,77.255 127.063,75.088 C134.085,71.368 134.495,70.963 134.418,67.824 C134.372,65.996 133.549,61.8 132.588,58.5 C129.181,46.803 128.338,42.32 129.136,40.16 Z M58.914,60.607 C59.747,59.601 61.392,59.022 62.914,59.199 C65.349,59.482 65.55,59.938 66.356,67 C66.827,71.125 67.255,76.862 67.308,79.75 C67.36,82.638 67.7,85 68.064,85 C69.242,85 76.231,79.066 79.48,75.308 C83.249,70.947 85.589,71.29 86.536,76.343 C87.225,80.012 84.922,85 82.54,85 C81.863,85 80.453,85.952 79.405,87.115 C78.357,88.278 76.511,89.608 75.302,90.07 C74.094,90.532 72.294,92.15 71.302,93.664 C69.667,96.162 69.529,98.681 69.808,120.871 C70.041,139.3 70.459,145.988 71.507,148.014 C72.659,150.241 72.673,151.027 71.586,152.601 C70.865,153.645 69.991,156.075 69.644,158 C68.79,162.733 66.674,199.188 66.563,211.079 C66.476,220.299 66.365,220.757 63.59,223.329 C62.005,224.798 60.529,226 60.31,226 C60.091,226 56.444,223.088 52.206,219.53 C42.338,211.244 38.776,206.783 39.186,203.223 C39.708,198.697 42.865,199.275 48.672,204.961 C51.502,207.733 54.257,210 54.794,210 C56.185,210 59.876,180.663 59.984,168.75 C60.012,165.632 56.076,166.826 51.702,171.263 C47.662,175.361 41.713,180 40.498,180 C39.542,180 29.653,187.562 27.595,189.867 C26.547,191.04 24.651,192 23.38,192 C18.645,192 16.961,181.726 21.418,180.031 C22.748,179.525 25.933,177.512 28.495,175.556 C31.057,173.6 33.756,172 34.493,172 C35.23,172 35.983,171.586 36.167,171.08 C36.35,170.574 39.256,168.437 42.624,166.33 C45.992,164.224 51.28,160.769 54.374,158.653 L60,154.806 L60,103 L57.622,103 C56.315,103 54.656,103.71 53.935,104.578 C52.509,106.296 43.743,111 41.967,111 C41.362,111 39.434,112.073 37.683,113.384 C35.932,114.695 33.465,116.082 32.201,116.467 C29.034,117.43 25,114.656 25,111.516 C25,109.453 26.341,108.407 33.75,104.698 C38.563,102.288 44.3,99.285 46.5,98.023 C48.7,96.762 52.2,94.839 54.277,93.75 L58.054,91.77 L57.777,77.043 C57.56,65.505 57.806,61.945 58.914,60.607 Z M131.642,110.843 C132.812,109.551 134.416,109.003 136.449,109.201 C138.929,109.444 139.558,110.006 139.812,112.201 C140.259,116.08 138.46,118.779 134.738,119.808 C132.957,120.3 128.912,122.358 125.75,124.382 C121.432,127.145 120,128.645 120,130.405 C120,131.694 119.413,134.493 118.695,136.624 C116.99,141.685 117.038,155.179 118.762,155.754 C119.456,155.985 122.156,154.058 124.762,151.47 C130.749,145.527 133.594,143.63 135.456,144.345 C137.734,145.219 135.582,150.136 130.402,155.898 C127.981,158.591 126,161.452 126,162.257 C126,164.036 110.417,180 108.681,180 C108.001,180 105.937,181.378 104.094,183.062 C102.25,184.745 99.663,186.83 98.345,187.693 C96.143,189.137 95.789,189.119 93.974,187.477 C90.449,184.286 91.496,181.643 98.962,174.894 C102.791,171.432 106.457,167.31 107.11,165.735 C107.919,163.782 108.095,159.58 107.663,152.52 C107.177,144.587 107.379,141.178 108.525,137.928 C109.348,135.596 109.755,133.422 109.43,133.097 C109.105,132.772 106.625,133.742 103.919,135.253 C95.964,139.695 91.518,138.778 90.825,132.553 C90.535,129.941 90.926,129.478 94.5,128.206 C105.663,124.232 110.347,122.286 119.693,117.74 C125.3,115.014 130.677,111.91 131.642,110.843 Z M175.875,18.651 C179.686,14.284 190.988,20.116 192.557,27.259 C192.914,28.885 194.285,31.804 195.603,33.747 C196.921,35.69 198,37.897 198,38.653 C198,39.409 198.397,40.809 198.883,41.764 C202.711,49.287 203.478,54.468 200.993,56.004 C198.798,57.361 195.389,54.001 191.855,47 C188.268,39.892 183.78,32.879 181.777,31.252 C181.075,30.682 179.6,30.05 178.5,29.849 C175.52,29.303 173.627,21.227 175.875,18.651 Z"/>
</svg>

