<svg xmlns="http://www.w3.org/2000/svg" width="300" height="300" viewBox="0 0 300 300" version="1.1">
  <defs/>
  <path d="M90.667,24.667 C93.468,21.865 103,28.653 103,33.45 C103,34.761 103.338,35.983 103.75,36.167 C104.785,36.626 108,42.876 108,44.427 C108,46.86 111.16,52 112.655,52 C113.485,52 116.085,50.425 118.435,48.5 C124.724,43.346 130.016,43.76 133.355,49.665 C134.251,51.251 129.266,57 126.994,57 C124.103,57 116.016,60.794 115.382,62.448 C115.065,63.274 115.974,67.007 117.403,70.746 C118.831,74.484 120,78.519 120,79.712 C120,80.906 120.396,82.127 120.881,82.426 C121.365,82.726 121.993,83.99 122.276,85.235 C122.56,86.481 124.863,92.413 127.396,98.417 C129.928,104.422 132.007,110.722 132.015,112.417 C132.055,120.396 136.268,119.521 138.976,110.972 C139.929,107.962 141.427,104.15 142.306,102.5 C143.952,99.405 146.421,93.837 149.62,86 C150.63,83.525 153.379,77.696 155.728,73.046 C158.078,68.396 160,64.156 160,63.624 C160,61.962 163.229,59 165.04,59 C167.075,59 170,63.077 170,65.912 C170,67.002 168.875,70.01 167.5,72.596 C166.125,75.182 165,77.722 165,78.241 C165,78.76 164.1,80.329 163,81.727 C161.9,83.126 161,85.014 161,85.923 C161,87.555 158.058,93.952 156.23,96.296 C155.713,96.958 154.807,98.85 154.216,100.5 C149.58,113.443 145.411,123.54 142.317,129.317 C140.922,131.92 141.01,132.795 143.47,140.817 C144.934,145.593 146.552,150.534 147.066,151.797 C147.58,153.06 148,154.777 148,155.611 C148,156.445 149.125,159.588 150.5,162.594 C151.875,165.6 153,168.472 153,168.977 C153,169.481 154.125,172.01 155.5,174.596 C156.875,177.182 158,180.041 158,180.949 C158,181.857 158.385,183.027 158.855,183.55 C159.326,184.072 160.468,186.975 161.394,190 C163.147,195.727 164.48,199.11 166.318,202.5 C166.915,203.6 168.119,205.874 168.994,207.554 C169.869,209.233 171.578,212.003 172.792,213.708 C174.006,215.413 175,217.511 175,218.369 C175,219.227 176.125,221.944 177.5,224.407 C178.875,226.87 180,229.404 180,230.038 C180,230.672 180.842,232.386 181.872,233.846 C182.902,235.306 185.067,238.975 186.685,242 C192.48,252.84 195.415,257 197.265,257 C197.794,257 197.967,252.665 197.674,246.75 C197.213,237.439 196.65,233.013 194.497,221.761 C193.919,218.739 194.108,217.896 195.482,217.369 C198.4,216.249 201.492,220.91 203.876,230.022 C205.097,234.685 206.484,239.4 206.959,240.5 C208.455,243.966 210.106,254.237 210.307,261.326 C210.469,267.063 210.19,268.378 208.559,269.576 C205.101,272.113 199.736,271.342 194.843,267.606 C189.678,263.662 181.928,255.157 179.918,251.225 C179.151,249.726 176.638,245.507 174.332,241.848 C172.026,238.19 169.57,233.24 168.875,230.848 C168.179,228.457 166.647,225.15 165.469,223.5 C164.292,221.85 162.506,218.25 161.501,215.5 C160.496,212.75 158.622,208.821 157.337,206.77 C156.051,204.718 155,202.641 155,202.153 C155,200.584 150.7,190.552 149.328,188.921 C148.598,188.053 148,186.225 148,184.859 C148,183.493 147.1,180.513 146,178.236 C144.9,175.959 144,173.582 144,172.953 C144,172.323 143.403,170.614 142.674,169.154 C141.944,167.694 140.594,165.001 139.674,163.169 C138.753,161.337 138,159.001 138,157.978 C138,156.955 137.55,155.84 137,155.5 C136.45,155.16 136,153.109 136,150.941 C136,147.679 135.659,147 134.019,147 C132.665,147 131.855,147.87 131.459,149.75 C130.9,152.401 130.598,153.127 128.229,157.5 C127.633,158.6 126.87,160.175 126.534,161 C126.197,161.825 125.368,163.4 124.69,164.5 C124.013,165.6 122.343,168.301 120.98,170.503 C119.616,172.704 117.421,176.754 116.102,179.503 C114.783,182.251 113.235,185.4 112.662,186.5 C109.375,192.814 108,196.095 108,197.623 C108,198.569 107.388,200.053 106.64,200.921 C105.892,201.79 103.827,205.2 102.05,208.5 C100.274,211.8 98.186,215.21 97.41,216.079 C96.635,216.947 96,217.937 96,218.279 C96,218.62 94.716,220.835 93.146,223.2 C91.577,225.565 88.941,229.975 87.29,233 C79.861,246.607 71.357,259.759 67.245,264 C65.379,265.925 63.217,268.702 62.441,270.171 C61.665,271.64 59.685,273.8 58.041,274.97 C55.624,276.692 54.657,276.887 52.979,275.989 C50.833,274.84 49,271.199 49,268.083 C49,266.144 53.739,260.698 56.273,259.725 C57.781,259.147 66,247.874 66,246.384 C66,245.984 66.691,244.894 67.536,243.96 C69.005,242.337 73.983,234.446 78.235,227 C79.335,225.075 81.081,222.306 82.117,220.846 C83.153,219.386 84,217.875 84,217.49 C84,217.104 85.35,215.083 87,213 C88.65,210.917 90,208.545 90,207.729 C90,206.913 90.63,205.722 91.401,205.083 C92.611,204.078 98.58,192.498 100.979,186.5 C102.792,181.967 110.505,166.806 111.224,166.361 C111.651,166.098 112,165.241 112,164.459 C112,163.676 113.837,160.033 116.083,156.364 C118.329,152.695 120.559,148.659 121.04,147.395 C121.52,146.131 123.138,143.163 124.634,140.799 C128.241,135.099 128.299,129.269 124.817,122.289 C123.388,119.423 121.661,114.698 120.98,111.789 C120.298,108.88 119.146,105.375 118.418,104 C116.218,99.842 108,73.996 108,71.235 C108,70.226 107.46,68.86 106.8,68.2 C105.379,66.779 102,66.595 102,67.938 C102,68.454 98.513,70.541 94.25,72.576 C89.987,74.611 83.271,77.815 79.324,79.696 C75.378,81.577 71.603,83.773 70.937,84.576 C69.626,86.156 68.32,91.312 67.032,100 C66.583,103.025 65.89,106.513 65.492,107.75 C64.397,111.149 67.264,110.634 71.202,106.726 C76.907,101.064 79.164,100.387 84.292,102.797 L88.702,104.87 L89.481,115.185 C90.217,124.928 90.254,143.442 89.561,154.5 C89.107,161.737 87.514,169.054 85.642,172.5 C84.746,174.15 84.01,176.252 84.006,177.172 C84.003,178.092 82.088,180.485 79.75,182.491 C74.366,187.112 71.256,186.711 65.142,180.608 C61.585,177.057 60.688,175.409 60.264,171.646 C59.548,165.296 61.595,164.642 67.193,169.434 C72.119,173.65 73.688,173.648 76.047,169.424 C78.36,165.283 78.915,162.329 79.698,150 C80.895,131.154 79.946,118.3 77.283,117.278 C74.865,116.351 57,135.908 57,139.483 C57,140.423 56.371,142.386 55.602,143.846 C54.834,145.306 53.628,148.525 52.922,151 C52.217,153.475 51.329,155.95 50.95,156.5 C50.571,157.05 49.686,159.3 48.984,161.5 C48.281,163.7 46.695,167.525 45.459,170 C43.49,173.943 38.348,185.683 36.042,191.5 C34.82,194.583 33.104,198.342 32.163,200 C30.02,203.773 29,206.06 29,207.092 C29,207.708 27.987,209.457 26.75,210.98 C25.512,212.502 23.6,215.252 22.5,217.09 C21.4,218.929 19.672,221.798 18.66,223.467 C13.85,231.398 6.928,236.102 3.091,234.049 C0.205,232.504 0.43,231.47 4.814,226.139 C6.911,223.587 9.79,219.474 11.21,216.999 C12.631,214.523 14.739,211.641 15.896,210.594 C17.053,209.547 18,208.141 18,207.471 C18,206.8 19.096,204.283 20.436,201.876 C21.775,199.469 23.628,195.25 24.554,192.5 C25.479,189.75 27.083,186.306 28.118,184.846 C29.153,183.386 30,181.81 30,181.344 C30,180.284 39.896,156.865 40.92,155.501 C41.334,154.95 42.447,151.8 43.395,148.5 C44.342,145.2 45.541,141.719 46.059,140.764 C46.576,139.809 47,137.755 47,136.201 C47,134.646 48.125,131.042 49.5,128.192 C50.875,125.342 52,122.344 52,121.531 C52,120.718 52.861,116.553 53.913,112.276 C56.906,100.114 58.161,93.793 58.337,90 C58.494,86.626 58.381,86.509 55.198,86.761 C53.382,86.904 50.907,87.646 49.698,88.409 C48.489,89.172 43.067,90.534 37.649,91.437 C27.29,93.162 25.722,92.869 24.717,89.024 C23.994,86.262 26.445,84.677 35.5,82.05 C39.9,80.773 46.875,78.69 51,77.422 C55.125,76.153 60.75,74.578 63.5,73.923 C74.6,71.277 76.562,70.729 78,69.87 C78.825,69.378 81.525,68.081 84,66.989 C86.475,65.896 89.175,64.549 90,63.995 C90.825,63.441 93.075,62.261 95,61.372 C101.185,58.518 101.495,58.309 101.793,56.799 C101.955,55.981 100.042,51.854 97.543,47.627 C95.044,43.401 92.986,39.393 92.968,38.721 C92.951,38.05 92.276,36.626 91.468,35.559 C89.991,33.606 89.425,25.909 90.667,24.667 Z M126.546,0.925 C126.861,0.416 129.563,0 132.552,0 L137.986,0 L143.275,7.25 C149.476,15.749 151.006,18.934 150.985,23.297 C150.948,30.973 145.917,31.088 142.079,23.5 C140.689,20.75 137.043,16.025 133.978,13 C128.434,7.528 125.456,2.69 126.546,0.925 Z"/>
</svg>

