<svg xmlns="http://www.w3.org/2000/svg" width="300" height="300" viewBox="0 0 300 300" version="1.1">
  <defs/>
  <path d="M130.443,19.945 C137.469,16.463 138.144,16.397 140.464,18.96 C142.882,21.632 141.804,27.73 138.696,28.964 C137.488,29.444 132.285,31.468 127.133,33.462 C121.981,35.456 115.346,38.636 112.388,40.529 C109.429,42.421 105.487,44.605 103.627,45.383 C101.766,46.16 99.911,47.334 99.505,47.992 C99.098,48.65 98.591,55.446 98.378,63.094 C98.013,76.182 98.101,77 99.873,77 C100.908,77 102.283,76.364 102.928,75.586 C103.574,74.809 105.991,73.212 108.301,72.038 C110.61,70.864 114.75,68.344 117.5,66.437 C120.25,64.53 124.952,62.049 127.948,60.924 C132.791,59.107 133.789,59.029 136.92,60.22 C142.49,62.341 143.118,66.36 139.15,74.497 C137.417,78.051 136,81.192 136,81.479 C136,81.766 134.2,83.8 132,86 C127.631,90.369 127.256,91.635 129.468,94.559 C130.276,95.626 130.951,97.413 130.968,98.53 C131.004,100.798 126.081,105.86 121.5,108.266 C119.85,109.133 117.671,110.832 116.658,112.04 C114.843,114.206 114.862,114.281 117.942,117.094 C121.143,120.018 125.973,129.113 125.99,132.25 C126.004,134.804 128.084,134.398 132.027,131.07 C151.526,114.615 155.55,112.422 157.965,116.934 C160.283,121.265 159.08,124.479 154.026,127.461 C150.334,129.639 146.172,132.651 136.375,140.236 C127.249,147.3 126.04,148.622 124.125,153.626 C122.801,157.086 121.897,159.145 122.09,161.096 C122.421,164.449 125.992,167.482 136.236,176.75 C138.211,178.537 140.327,180 140.936,180 C141.546,180 143.947,181.724 146.272,183.832 C148.598,185.939 152.75,189.162 155.5,190.994 C160.927,194.608 161.412,195.024 174,206.84 C178.675,211.229 183.85,215.84 185.5,217.087 C189.679,220.246 203.923,233.982 212.675,243.292 C218.69,249.691 220,251.669 220,254.351 C220,256.148 219.357,258.491 218.571,259.559 C217.162,261.473 217.091,261.473 213.571,259.593 C211.607,258.543 210,257.064 210,256.306 C210,255.547 207.3,252.15 204,248.757 C200.7,245.363 198,242.252 198,241.843 C198,240.488 184.596,227.884 179,223.976 C175.975,221.864 168.403,215.438 162.173,209.696 C155.943,203.954 149.643,198.635 148.173,197.878 C146.703,197.12 142.197,193.8 138.159,190.5 C134.122,187.2 128.712,182.925 126.136,181 C123.561,179.075 120.452,176.488 119.227,175.25 C116.432,172.426 114,172.342 114,175.07 C114,176.208 112.538,179.246 110.75,181.82 C108.963,184.394 107.05,187.211 106.5,188.08 C103.494,192.831 100.856,196.764 99.278,198.846 C98.3,200.137 96.492,202.953 95.261,205.104 C94.029,207.256 90.844,211.825 88.184,215.258 C85.524,218.691 81.884,223.799 80.097,226.609 C76.915,231.61 65.168,242 62.695,242 C60.248,242 57,238.86 57,236.494 C57,234.165 62.343,229 64.753,229 C67.26,229 86.956,201.799 96.045,185.783 C98.319,181.777 102.153,175.35 104.565,171.5 C109.509,163.609 109.906,162 106.908,162 C104.912,162 102.913,163.268 95.713,169.105 C93.946,170.537 90.7,172.548 88.5,173.572 C86.3,174.597 82.944,176.483 81.042,177.764 C76.382,180.903 72.608,180.446 72.178,176.691 C71.655,172.128 68.973,173.854 66.259,180.5 C62.012,190.901 58.771,196.99 54.503,202.585 C53.126,204.39 52,206.467 52,207.2 C52,207.934 50.018,210.8 47.595,213.569 C45.173,216.339 43.035,219.66 42.845,220.95 C42.655,222.24 40.841,224.635 38.813,226.272 C34.545,229.716 31.568,229.482 28.684,225.473 C26.916,223.016 26.925,222.857 29.016,219.475 C30.197,217.564 31.542,216 32.005,216 C33.423,216 39.114,210.804 40.124,208.589 C40.647,207.44 42.854,203.8 45.029,200.5 C47.204,197.2 50.52,191.35 52.399,187.5 C60.087,171.749 66,158.739 66,157.578 C66,156.899 67.548,152.4 69.441,147.58 C71.333,142.759 73.168,137.512 73.518,135.919 C73.868,134.326 74.569,132.766 75.077,132.452 C75.585,132.139 76,130.585 76,129 C76,127.415 76.45,125.84 77,125.5 C77.55,125.16 78,123.956 78,122.825 C78,121.694 78.653,118.683 79.45,116.134 C82.58,106.134 85.613,92.434 86.896,82.5 C88.025,73.77 88.672,52.338 87.832,51.499 C87.064,50.731 78.016,54.908 74.253,57.767 C71.161,60.115 70.885,60.155 68.503,58.594 C64.207,55.779 65.193,52.726 71.872,48.167 C76.674,44.89 96.716,36 99.304,36 C99.684,36 102.134,34.508 104.748,32.684 C107.361,30.861 112.875,27.911 117,26.129 C121.125,24.347 127.174,21.564 130.443,19.945 Z M100.55,120.968 C96.177,123.114 92.196,124.621 91.704,124.317 C89.779,123.128 86,126.303 86,129.11 C86,130.635 85.609,132.124 85.131,132.419 C84.654,132.714 83.986,134.653 83.648,136.728 C83.31,138.803 81.027,145.602 78.576,151.839 C74.14,163.125 72.359,169 73.373,169 C74.922,169 79.979,166.233 83.5,163.46 C85.7,161.727 90.545,158.799 94.266,156.954 C97.988,155.109 104.063,151.321 107.766,148.537 L114.5,143.475 L114.413,137.987 C114.276,129.372 111.757,117.56 110,117.294 C109.175,117.169 104.922,118.822 100.55,120.968 Z M184.667,97.667 C187.607,94.726 198,101.24 198,106.023 C198,106.625 199.33,108.778 200.955,110.809 C202.58,112.839 204.644,116.075 205.542,118 C206.439,119.925 208.034,123.075 209.085,125 C210.137,126.925 210.998,130.194 210.998,132.264 C210.999,134.334 211.521,136.861 212.158,137.881 C213.531,140.08 212.703,142.793 210.387,143.682 C207.718,144.706 205.803,142.758 204.086,137.275 C203.203,134.454 202.147,131.814 201.74,131.407 C201.333,131 201,129.926 201,129.02 C201,128.115 199.613,126.052 197.918,124.437 C196.223,122.822 194.232,120.065 193.494,118.31 C192.756,116.556 190.318,113.131 188.076,110.699 C184.734,107.073 184,105.561 184,102.305 C184,100.121 184.3,98.033 184.667,97.667 Z M120.488,77.019 C120.142,77.579 117.6,79.183 114.839,80.582 C112.078,81.981 107.948,84.833 105.66,86.92 C103.372,89.007 100.15,91.15 98.5,91.682 C95.22,92.741 93.157,96.934 93.056,102.75 C92.963,108.106 93.612,107.805 109.322,95.182 C115.718,90.043 126,78.78 126,76.913 C126,75.663 121.27,75.754 120.488,77.019 Z"/>
</svg>

