<svg xmlns="http://www.w3.org/2000/svg" width="300" height="300" viewBox="0 0 300 300" version="1.1">
  <defs/>
  <path d="M122,14.5 C123.62,12.547 125.523,12.605 129.096,14.716 C133.162,17.118 132.875,20.164 128.25,23.693 C126.188,25.267 122.925,27.327 121,28.272 C119.075,29.216 114.714,31.747 111.309,33.897 C107.905,36.047 103.405,38.355 101.309,39.027 C99.214,39.698 96.036,41.341 94.247,42.677 C92.457,44.014 89.307,45.689 87.247,46.399 C83.51,47.688 83.498,47.711 82.835,54.596 C81.931,63.99 81.384,67.835 80.007,74.467 C78.225,83.05 79.151,84.038 84.423,79.178 C86.841,76.949 91.134,73.952 93.963,72.519 C96.793,71.085 104.038,66.557 110.065,62.456 C119.836,55.807 121.528,55 125.697,55 C134.098,55 137.226,60.826 133.214,69 C130.33,74.877 125.855,81.258 121.063,86.327 L116.5,91.154 L119.75,93.9 C124.234,97.688 123.901,104 119.217,104 C115.277,104 95.737,115.546 89.179,121.75 C88.452,122.438 87.471,123 87,123 C86.529,123 85.548,123.568 84.821,124.263 C82.152,126.815 78.202,128.871 74.716,129.525 C71.743,130.083 70.918,129.842 69.829,128.098 C69.109,126.944 68.011,126 67.391,126 C66.77,126 64.363,131.738 62.042,138.75 C59.721,145.762 57.618,152.007 57.369,152.627 C57.119,153.247 57.595,154.014 58.425,154.333 C59.363,154.693 61.937,153.093 65.217,150.112 C68.123,147.472 71.701,144.679 73.17,143.906 C74.638,143.133 78.241,141.068 81.175,139.317 C84.316,137.443 88.656,135.849 91.729,135.442 C96.733,134.778 97.091,134.891 100.372,138.172 C108.173,145.973 109.981,167.154 103.877,179.236 C103.395,180.191 103,184.245 103,188.244 C103,194.082 102.507,196.442 100.5,200.212 C99.125,202.795 98,206.477 98,208.395 C98,210.313 97.55,212.16 97,212.5 C96.45,212.84 96,214.695 96,216.623 C96,218.551 94.875,222.588 93.5,225.594 C92.125,228.6 91,232.072 91,233.31 C91,235.491 85.174,242 83.221,242 C82.697,242 79.916,240.088 77.04,237.75 C71.65,233.37 67.406,227.876 65.123,222.322 C63.269,217.812 60.991,217.271 58.237,220.687 C51.106,229.532 49.081,231.834 45.022,235.717 C40.085,240.438 37.254,241.043 34.473,237.97 C31.882,235.107 33.486,231.133 38.328,228.416 C42.168,226.263 57,210.461 57,208.524 C57,207.946 55.425,205.135 53.5,202.276 C49.492,196.325 48.771,190.361 51.75,187.814 C54.257,185.67 71.266,182.299 71.781,183.843 C71.997,184.492 72.978,185.453 73.961,185.979 C75.383,186.74 76.588,186.112 79.867,182.897 C82.641,180.178 84.698,178.964 86.165,179.18 C89.318,179.643 89.432,181.333 86.541,184.768 C85.144,186.43 83.991,188.399 83.979,189.144 C83.967,189.89 81.38,193.277 78.229,196.672 C75.078,200.066 71.204,205.361 69.62,208.437 L66.74,214.029 L69.323,216.423 C70.744,217.74 73.316,221.109 75.039,223.909 C76.762,226.709 78.718,229 79.386,229 C81.295,229 83,226.81 83,224.359 C83,223.126 83.45,221.84 84,221.5 C84.55,221.16 85,219.842 85,218.571 C85,217.3 85.936,213.389 87.081,209.88 C88.225,206.371 89.536,201.25 89.994,198.5 C90.452,195.75 91.578,190.8 92.496,187.5 C93.414,184.2 94.548,177.9 95.018,173.5 C95.487,169.1 96.324,163.49 96.878,161.033 C97.556,158.026 97.554,156.168 96.873,155.347 C96.317,154.676 95.522,152.862 95.108,151.314 C94.474,148.945 93.813,148.488 90.927,148.427 C87.287,148.35 76.717,154.648 70.229,160.76 C66.027,164.718 58.342,168.5 54.5,168.5 C51.692,168.5 51.339,168.948 48.986,175.5 C47.603,179.35 45.69,183.94 44.736,185.7 C43.781,187.461 43,189.552 43,190.349 C43,191.145 41.65,194.363 40,197.5 C38.35,200.637 37,203.877 37,204.7 C37,206.137 34.925,211.452 32.84,215.359 C32.294,216.381 30.972,219.981 29.901,223.359 C24.686,239.816 20.491,243.953 14.795,238.257 C11.277,234.739 11.549,232.553 16.084,227.914 C17.688,226.274 19,224.194 19,223.294 C19,222.394 19.702,220.882 20.56,219.934 C21.418,218.986 23.15,215.263 24.408,211.661 C25.667,208.059 27.358,204.074 28.165,202.806 C28.973,201.538 30.44,197.8 31.425,194.5 C32.41,191.2 34.292,186.274 35.608,183.554 C36.923,180.833 38,177.917 38,177.073 C38,175.337 41.161,166.958 44.63,159.5 C45.909,156.75 47.826,151.276 48.891,147.335 C49.955,143.394 51.5,138.669 52.325,136.835 C53.149,135.001 54.598,131.025 55.544,128 C56.491,124.975 57.595,122.05 57.998,121.5 C58.402,120.95 58.972,119.375 59.266,118 C59.56,116.625 60.681,113.206 61.758,110.403 C62.835,107.599 64.264,102.199 64.934,98.403 C65.603,94.606 66.766,89.25 67.518,86.5 C68.27,83.75 69.76,76.1 70.828,69.5 C71.896,62.9 73.123,56.641 73.553,55.591 C74.278,53.823 73.986,53.73 69.586,54.333 C66.973,54.691 63.41,55.647 61.668,56.457 C59.925,57.267 56.7,58.365 54.5,58.896 C52.3,59.427 48.538,60.583 46.141,61.464 C40.944,63.373 38.224,62.742 37.394,59.433 C36.019,53.957 37.299,52.704 47.714,49.326 C53.096,47.58 59.47,45.843 61.879,45.466 C64.287,45.089 67.668,43.948 69.392,42.931 C71.116,41.914 75.671,39.783 79.513,38.195 C83.356,36.607 88.975,34.17 92,32.781 C95.025,31.391 98.175,29.967 99,29.616 C99.825,29.265 101.641,28.195 103.035,27.239 C104.429,26.283 107.083,24.6 108.933,23.5 C110.782,22.4 113.751,20.262 115.53,18.75 C117.309,17.238 119.212,16 119.76,16 C120.307,16 121.315,15.325 122,14.5 Z M152.818,99.71 C161.136,98.438 164.326,100.186 168.817,108.478 C171.335,113.128 172.665,118.452 173.569,127.5 C173.679,128.6 174.488,133.325 175.366,138 C177.345,148.532 177.381,161.148 175.472,175.5 C174.668,181.55 173.525,190.55 172.933,195.5 C172.34,200.45 171.438,204.928 170.928,205.45 C170.418,205.973 170,208.858 170,211.862 C170,217.063 168.952,221.629 164.919,234 C163.933,237.025 162.823,241.75 162.454,244.5 C162.084,247.25 160.93,252.641 159.89,256.48 C158.851,260.319 158,264.451 158,265.662 C158,268.004 153.339,272 150.608,272 C149.737,272 147.895,270.313 146.513,268.25 C145.132,266.188 142.205,262.025 140.009,259 C137.791,255.945 135.104,250.498 133.965,246.747 C132.836,243.032 130.63,237.133 129.061,233.636 C125.794,226.355 126.214,224.238 130.634,225.711 C132.21,226.236 133.649,227.432 133.83,228.369 C134.012,229.306 135.693,232.644 137.565,235.786 C139.438,238.929 142.214,244.079 143.735,247.231 C147.426,254.882 151,256.244 151,250 C151,248.415 151.397,246.872 151.883,246.572 C152.369,246.272 153.085,243.433 153.475,240.263 C153.865,237.093 155.079,232.025 156.174,229 C157.268,225.975 158.787,219.9 159.549,215.5 C160.311,211.1 161.671,203.9 162.571,199.5 C163.471,195.1 164.399,187.675 164.634,183 C164.868,178.325 165.542,173.545 166.131,172.377 C166.821,171.01 167.008,165.487 166.656,156.877 C165.782,135.505 163.832,124.795 159.033,115 C158.01,112.913 152.685,112.583 149.314,114.398 C147.766,115.231 142.45,119.526 137.5,123.942 C132.55,128.358 127.953,131.977 127.285,131.985 C126.617,131.993 125.577,131.078 124.974,129.951 C123.439,127.083 125.102,122.761 130.345,116 C134.945,110.067 148.276,100.404 152.818,99.71 Z M113.489,72.403 C110.745,74.275 105.35,77.72 101.5,80.059 C97.65,82.399 91.209,86.505 87.187,89.186 C83.165,91.866 79.143,93.933 78.249,93.779 C76.642,93.503 75.633,96.016 74.347,103.5 C74.064,105.15 73.229,107.85 72.493,109.5 C71.757,111.15 70.846,113.737 70.469,115.25 C69.503,119.123 72.231,118.912 76.919,114.75 C78.933,112.963 82.095,110.375 83.945,109 C91.814,103.152 94.595,100.629 101.821,92.782 C106.016,88.227 110.359,83.428 111.474,82.117 C112.588,80.806 113.96,79.231 114.521,78.617 C119.083,73.628 121.353,69 119.239,69 C118.82,69 116.232,70.531 113.489,72.403 Z M152.75,185.067 C156.818,182.666 159.121,186.399 157.516,192.792 C156.917,195.177 138.949,213.998 137.268,214.001 C136.846,214.002 133.984,215.749 130.91,217.883 C127.835,220.018 124.235,222.103 122.91,222.517 C121.584,222.931 119.612,223.884 118.527,224.635 C115.885,226.464 111.506,226.363 109.571,224.429 C107.577,222.435 107.557,217.757 109.526,213.95 C111.226,210.663 113.46,210.201 116.1,212.59 C118.166,214.46 120.75,213.865 124.229,210.718 C125.577,209.498 128.215,207.398 130.09,206.052 C136.971,201.112 151,188.564 151,187.35 C151,186.662 151.787,185.635 152.75,185.067 Z M130.286,162.971 C136.419,160.943 146.961,160.893 149.355,162.88 C151.584,164.729 151.432,169.299 149.071,171.436 C147.419,172.931 146.667,173.009 143.821,171.982 C139.516,170.429 133.276,172.013 130.011,175.489 C128.713,176.87 127.08,178 126.382,178 C124.386,178 122,173.863 122,170.4 C122,166.566 123.511,165.211 130.286,162.971 Z M61.25,196.584 C57.725,198.126 57.114,200.406 59.392,203.521 C60.599,205.172 61.006,205.24 62.458,204.035 C64.276,202.526 67,197.737 67,196.05 C67,194.674 65.245,194.837 61.25,196.584 Z"/>
</svg>

