<svg xmlns="http://www.w3.org/2000/svg" width="300" height="300" viewBox="0 0 300 300" version="1.1">
  <defs/>
  <path d="M163,124.621 C167.198,123.848 190.752,126.111 193.005,127.503 C194.584,128.479 201,142.518 201,144.996 C201,146.033 201.393,147.125 201.874,147.422 C202.355,147.719 202.594,150.784 202.404,154.231 C202.215,157.679 201.813,170.85 201.51,183.5 C200.701,217.305 200.379,225.332 199.761,227 C199.045,228.934 197.216,240.725 196.384,248.778 C195.51,257.238 191.937,262.551 184.551,266.373 L179,269.245 L173.528,266.38 C168.638,263.82 167.895,263.677 166.54,265.032 C165.706,265.865 164.751,268.787 164.417,271.524 C163.771,276.826 160.385,286.621 158.434,288.836 C157.461,289.94 156.541,289.807 153.128,288.066 C148.505,285.707 148.345,285.382 150.589,282.902 C153.398,279.798 156.552,261.732 157.468,243.5 C157.799,236.9 158.501,228.8 159.026,225.5 C159.552,222.2 160.099,209.712 160.241,197.75 L160.5,175.999 L155.905,176 C152.58,176 150.81,176.553 149.5,178 C148.505,179.1 146.645,180 145.368,180 C140.675,180 137.327,189.798 140.412,194.505 C141.92,196.808 141.932,197.258 140.539,199.247 C138.792,201.741 138.507,205.577 140,206.5 C142.965,208.333 138.683,214 134.333,214 C129.533,214 129,212.637 129,200.359 C129,193.371 128.59,188.865 127.917,188.449 C127.322,188.081 124.886,189.179 122.504,190.89 C117.572,194.431 116.368,194.643 113.892,192.402 C110.784,189.589 109.897,191.635 110.016,201.339 C110.078,206.377 109.65,212.072 109.065,213.993 C108.479,215.915 108,219.946 108,222.951 C108,227.904 107.653,228.771 104.297,232.208 C99.643,236.974 97.464,237.047 95.565,232.501 C94.059,228.898 94.777,224.425 97.395,221.095 C98.027,220.291 98.412,216.46 98.295,212.143 C98.177,207.79 98.558,204.033 99.196,203.264 C100.51,201.681 99.564,180.384 98.101,178.622 C97.589,178.005 96.849,174.125 96.457,170 C96.065,165.875 95.413,162.05 95.01,161.5 C94.606,160.95 93.982,159.269 93.623,157.765 C92.885,154.677 95.703,150.976 98.75,151.032 C101.185,151.076 104,153.397 104,155.36 C104,158.34 106.436,157.048 111.323,151.475 C113.976,148.451 117.801,145.144 119.823,144.126 C121.845,143.109 127.1,140.369 131.5,138.038 C135.9,135.707 141.525,132.767 144,131.504 C148.861,129.024 158.964,125.364 163,124.621 Z M55.402,68.509 C56.627,66.64 57.918,66 60.464,66 C62.344,66 64.23,66.563 64.655,67.25 C65.081,67.938 65.553,73.423 65.704,79.44 C65.856,85.457 66.435,90.835 66.991,91.391 C67.674,92.074 69.253,91.182 71.841,88.655 C74.721,85.843 75.712,84.044 75.809,81.454 C75.881,79.545 75.451,78 74.847,78 C74.119,78 74.164,77.507 74.983,76.521 C75.905,75.41 76.691,75.299 78.143,76.076 C79.206,76.645 80.959,76.831 82.038,76.488 C83.509,76.021 84,76.332 84,77.733 C84,78.76 84.479,80.079 85.064,80.664 C85.649,81.249 85.987,83.667 85.814,86.037 C85.542,89.766 84.943,90.761 81.363,93.423 C79.088,95.115 74.913,98.239 72.085,100.364 L66.944,104.228 L67.018,112.864 C67.058,117.614 66.885,126.45 66.633,132.5 C66.125,144.705 66.648,150.001 68.361,149.999 C68.988,149.998 71.773,147.817 74.552,145.152 C77.33,142.486 80.863,139.481 82.401,138.473 C84.892,136.841 85.131,136.222 84.587,132.82 C84.054,129.488 84.226,129 85.931,129 C88.27,129 91,132.58 91,135.647 C91,137.052 88.109,140.794 83,146 C78.6,150.484 75,154.718 75,155.41 C75,156.102 73.113,159.331 70.807,162.584 L66.614,168.5 L66.342,179 C66.192,184.775 65.867,195.125 65.619,202 C65.187,213.995 66.122,222.01 68.274,224.759 C68.965,225.642 68.438,227.204 66.509,229.986 C61.855,236.703 61.674,236.73 55.669,231.6 C52.707,229.07 49.902,227 49.434,227 C48.967,227 46.99,225.456 45.042,223.568 C43.094,221.68 39.025,219.173 36,217.996 C32.975,216.819 29.299,214.714 27.831,213.319 C26.363,211.923 24.685,211.076 24.102,211.437 C21.988,212.743 16.105,208.197 16.032,205.201 C16.014,204.486 20.226,199.536 25.391,194.201 C30.556,188.865 36.531,182.475 38.668,180 C40.806,177.525 45.351,172.728 48.768,169.339 C52.186,165.951 55.438,161.978 55.996,160.511 C57.177,157.404 57.544,114.21 56.398,113.065 C55.487,112.154 43.448,115.214 41.674,116.808 C40.626,117.748 37.853,118.531 35.174,118.642 C32.603,118.749 29.15,119.09 27.5,119.398 C24.946,119.877 24.064,119.428 21.567,116.383 C17.986,112.016 18.823,109.89 24.598,108.687 C26.744,108.24 29.85,107.389 31.5,106.797 C33.15,106.205 37.324,105.631 40.775,105.522 C45.758,105.365 47.464,104.879 49.064,103.162 C50.171,101.973 51.945,101 53.004,101 C57.202,101 57.478,97.655 54.839,78.759 C53.903,72.052 53.978,70.683 55.402,68.509 Z M184.5,166.938 C182.3,167.936 178.503,169.37 176.063,170.126 C172.514,171.225 171.472,172.083 170.856,174.412 C170.433,176.014 169.818,187.264 169.491,199.412 C169.163,211.561 168.453,224.425 167.912,228 C165.213,245.85 165.118,247.433 166.604,249.75 C167.397,250.988 168.711,252 169.523,252 C170.335,252 171,252.8 171,253.777 C171,256.354 173.836,260.005 175.807,259.967 C176.738,259.948 178.497,259.101 179.716,258.084 C182.328,255.904 187,247.468 187,244.932 C187,243.958 187.641,240.538 188.423,237.331 C189.206,234.124 190.173,223.625 190.572,214 C191.459,192.615 191.367,189.127 189.838,186.23 C188.918,184.486 188.914,183.686 189.82,182.78 C191.498,181.102 191.434,164.978 189.75,165.062 C189.063,165.096 186.7,165.94 184.5,166.938 Z M134.989,32.02 C136.565,29.075 141.649,29.621 144.163,33.004 C145.816,35.229 145.901,36.176 144.931,41.504 C144.33,44.802 143.425,47.927 142.919,48.45 C142.414,48.972 142,50.335 142,51.478 C142,52.621 141.066,54.356 139.924,55.333 C137.058,57.787 139.021,60 144.063,60 C146.164,60 148.144,60.424 148.465,60.943 C148.785,61.461 151.174,61.856 153.774,61.82 C156.373,61.783 159.85,62.481 161.5,63.371 C165.536,65.546 167.596,65.415 169.38,62.869 C171.001,60.554 174,60.906 174,63.412 C174,66.026 178.182,68 183.723,68 C188.219,68 189,68.278 189,69.878 C189,70.91 189.675,72.315 190.5,73 C192.606,74.748 192.365,78.266 189.927,81.365 C187.834,84.027 184.637,84.84 183.5,83 C183.16,82.45 181.81,82 180.5,82 C179.19,82 177.84,81.55 177.5,81 C177.16,80.45 176.229,80 175.43,80 C174.099,80 166.947,77.131 162.764,74.918 C161.809,74.413 158.659,73.98 155.764,73.956 C150.501,73.912 141.731,72.064 140.382,70.715 C139.988,70.322 138.212,70 136.434,70 C133.637,70 132.911,70.572 131.041,74.25 C128.867,78.524 117.512,90 115.457,90 C113.907,90 109.698,81.23 110.386,79.436 C110.699,78.621 111.752,77.673 112.727,77.328 C115.304,76.418 119,72.869 119,71.306 C119,70.566 120.125,68.178 121.5,66 C122.875,63.822 124,61.572 124,61 C124,60.428 125.125,58.178 126.5,56 C127.875,53.822 129,51.763 129,51.424 C129,51.086 129.831,49.614 130.846,48.154 C132.961,45.113 135.089,37.396 134.347,35.461 C134.071,34.743 134.361,33.195 134.989,32.02 Z M145.981,94.317 C149.567,93.117 153.48,92.104 154.679,92.067 C157.68,91.975 160,94.577 160,98.036 C160,101.332 157.715,103 153.201,103 C151.589,103 149.126,103.9 147.727,105 C146.329,106.1 144.752,107 144.222,107 C142.893,107 127.861,114.888 125.921,116.604 C125.053,117.372 123.66,118 122.826,118 C121.992,118 120.495,118.9 119.5,120 C117.351,122.374 114.924,122.529 111.072,120.537 C107.452,118.665 106.987,117.263 108.655,113.25 C109.674,110.798 110.626,110 112.531,110 C113.92,110 117.81,108.537 121.175,106.75 C131.308,101.368 136.42,98.554 137.981,97.5 C138.796,96.95 142.396,95.518 145.981,94.317 Z M52.245,179.502 C51.554,180.286 49.872,182.573 48.507,184.585 C47.141,186.597 43.742,190.49 40.953,193.235 C35.926,198.183 31,204.997 31,207.002 C31,207.574 32.237,208.553 33.75,209.176 C35.263,209.799 38.33,211.139 40.566,212.154 C42.802,213.17 44.919,214 45.271,214 C45.623,214 47.585,215.136 49.631,216.524 C51.677,217.913 53.715,218.685 54.161,218.239 C55.044,217.356 57.118,180 56.352,178.761 C55.619,177.574 53.626,177.934 52.245,179.502 Z M151.788,139.427 C148.21,141.294 144.188,143.329 140.5,145.139 C138.106,146.314 137.53,147.206 137.649,149.556 C137.971,155.943 138.04,165.604 137.777,167.5 C137.3,170.941 142.031,170.472 151.271,166.163 C158.856,162.626 159.789,161.891 160.193,159.136 C160.896,154.345 158.972,141.695 157.245,139.75 C155.374,137.644 155.223,137.635 151.788,139.427 Z M116.343,160.516 L107.922,169.031 L107.863,176.266 C107.802,183.576 109.266,189.572 110.868,188.582 C111.347,188.285 112.299,186.693 112.982,185.043 C113.857,182.931 115.744,181.341 119.362,179.668 C122.188,178.361 125.592,176.392 126.927,175.293 C129.313,173.329 129.335,173.163 128.252,165.398 C127.646,161.054 127.394,156.262 127.692,154.75 C128.665,149.805 125.186,151.572 116.343,160.516 Z M170.138,138.015 C168.13,138.868 167.868,139.504 168.388,142.259 C168.725,144.042 169.29,148.351 169.644,151.837 C170.009,155.428 170.826,158.38 171.53,158.65 C173.509,159.409 186.648,155.046 188.481,153.022 C190.007,151.335 190.014,150.928 188.573,148.141 C187.708,146.468 187,144.187 187,143.073 C187,141.958 185.932,140.346 184.626,139.491 C181.649,137.54 173.266,136.686 170.138,138.015 Z M290.069,210.87 C291.406,208.373 294.401,208.833 294.798,211.598 C295.245,214.711 292.638,216.495 290.608,214.465 C289.371,213.228 289.248,212.406 290.069,210.87 Z"/>
</svg>

