<svg xmlns="http://www.w3.org/2000/svg" width="300" height="300" viewBox="0 0 300 300" version="1.1">
  <defs/>
  <path d="M177.08,87.404 C177.924,86.386 179.065,86.108 180.43,86.587 C181.569,86.986 184.407,87.371 186.737,87.443 C189.067,87.515 191.468,88.068 192.072,88.672 C193.747,90.347 190.497,96 187.859,96 C185.661,96 177.75,98.342 172.25,100.621 L169,101.968 L169,110.425 C169,115.076 169.408,119.134 169.906,119.442 C171.395,120.362 172.33,129.997 171.161,132.362 C170.012,134.687 167.765,159.812 168.588,161.143 C168.866,161.591 168.672,162.755 168.157,163.729 C167.628,164.731 167.554,167.66 167.987,170.476 C168.514,173.909 168.325,176.662 167.376,179.352 C166.619,181.497 166,185.451 166,188.139 C166,190.828 165.479,193.861 164.842,194.881 C164.205,195.901 163.986,197.521 164.354,198.481 C164.941,200.009 165.743,200.119 170.762,199.364 C173.918,198.889 190.224,198.634 206.998,198.797 C239.131,199.111 241.034,199.38 242.44,203.812 C242.766,204.838 242.344,207.325 241.503,209.339 C240.24,212.362 239.467,213 237.07,213 C235.473,213 233.999,212.498 233.795,211.884 C233.373,210.62 224.977,208.851 217.5,208.451 C188.492,206.897 174.871,206.896 169.544,208.444 L163.98,210.062 L164.116,235.281 C164.22,254.488 164.587,261.266 165.655,263.712 C166.868,266.488 166.858,267.403 165.589,270.442 C164.747,272.456 164.351,275.389 164.662,277.305 C165.089,279.939 164.664,281.272 162.661,283.575 C160.218,286.383 160.006,286.439 157.334,284.976 C153.568,282.913 151.645,276.512 153.798,273.203 C155.006,271.346 155.37,265.554 155.7,242.989 C155.972,224.395 155.753,214.408 155.044,213.083 C154.112,211.341 153.203,211.149 147.74,211.537 C131.664,212.681 127.25,213.233 124,214.503 C122.075,215.256 118.25,216.113 115.5,216.409 C104.878,217.553 83.352,223.068 79.399,225.658 C76.264,227.712 75.029,226.636 74.303,221.222 C73.496,215.208 74.633,214.688 100,209.46 C103.575,208.723 109.282,207.25 112.683,206.186 C116.083,205.122 119.968,204.462 121.315,204.72 C124.813,205.389 125.366,203.662 123.136,199.044 C121.287,195.218 121.277,194.915 122.923,192.762 C124.277,190.991 124.7,188.157 124.871,179.697 C124.991,173.756 125.444,167.906 125.877,166.697 C126.31,165.489 126.768,156.4 126.894,146.5 C127.02,136.6 127.37,127.484 127.672,126.241 C128.309,123.62 132.363,122.226 134.41,123.925 C135.171,124.557 135.584,125.876 135.327,126.857 C135.071,127.837 135.522,129.188 136.329,129.858 C137.516,130.843 138.516,130.59 141.538,128.539 C143.596,127.142 146.497,126 147.985,126 C149.473,126 151.482,125.125 152.449,124.056 C153.417,122.987 155.17,121.974 156.344,121.806 C157.519,121.638 158.638,120.668 158.832,119.65 C159.34,116.99 158.162,111.796 156.578,109.709 C155.279,107.996 155.042,108.01 151.178,110.024 C148.955,111.183 146.6,112.776 145.946,113.565 C145.291,114.354 144.023,115.01 143.128,115.022 C142.232,115.034 140.375,115.924 139,117 C137.625,118.076 135.782,118.966 134.904,118.978 C132.55,119.011 127.05,121.909 122.5,125.514 C115.872,130.767 101.524,138.876 98.725,138.952 C96.799,139.004 95,135.378 95,131.445 C95,129.453 96.159,128.456 101.5,125.851 C105.075,124.108 108,122.31 108,121.854 C108,121.399 109.688,120.325 111.75,119.467 C113.813,118.609 117.075,116.831 119,115.516 C122.794,112.924 132.812,107.383 140,103.9 C142.475,102.701 146.075,100.863 148,99.815 C151.432,97.948 153.433,97.003 163.5,92.495 C166.25,91.263 170.142,89.961 172.15,89.601 C174.157,89.242 176.375,88.253 177.08,87.404 Z M57.619,67.61 C59.204,65.625 61.175,64.007 62,64.015 C65.772,64.054 66.25,65.399 68.604,82.576 C68.836,84.268 69.667,86.518 70.451,87.576 C71.854,89.47 71.9,89.469 73.398,87.5 C74.234,86.4 74.694,84.75 74.419,83.834 C73.678,81.366 75.419,80.816 78.646,82.499 C80.216,83.318 82.242,83.99 83.15,83.994 C84.519,83.999 84.756,84.971 84.546,89.707 C84.305,95.156 84.118,95.522 80.397,97.831 C77.136,99.855 75.183,100.949 74.025,102.6 C72.178,105.232 72.351,109.282 72.455,120.782 C72.547,130.908 73.046,138.278 73.719,139.474 C74.473,140.814 74.512,142.044 73.838,143.302 C73.292,144.322 73.099,145.816 73.408,146.621 C74.234,148.774 78,146.509 78,143.859 C78,140.92 83.751,134 86.192,134 C87.901,134 88.11,134.43 87.53,136.75 C87.153,138.262 86.204,140.21 85.422,141.079 C84.64,141.947 84,143.401 84,144.31 C84,145.218 82.93,146.231 81.621,146.559 C79.677,147.047 79.152,147.96 78.747,151.553 C78.412,154.526 77.285,157.051 75.266,159.35 C72.662,162.316 72.183,163.822 71.522,171.125 C71.106,175.731 70.579,181.525 70.351,184 C70.124,186.475 69.818,190.082 69.672,192.016 C69.527,193.95 69.034,196.135 68.579,196.873 C68.109,197.632 68.307,199.9 69.035,202.107 C70.029,205.118 70.056,206.581 69.156,208.558 C68.296,210.444 68.281,211.657 69.099,213.184 C69.839,214.568 69.87,215.462 69.191,215.882 C68.032,216.599 67.341,235.684 68.388,238.072 C69.219,239.967 63.496,243.435 60.493,242.856 C59.432,242.652 56.846,240.013 54.746,236.992 C48.785,228.415 40.231,220 37.474,220 C34.884,220 32,217.077 32,214.452 C32,210.706 37.512,209.698 40.42,212.912 C41.372,213.963 44.11,215.402 46.505,216.109 C49.357,216.951 51.232,218.213 51.939,219.766 C52.693,221.42 53.692,222.04 55.246,221.818 C57.989,221.426 58.716,218.305 59.981,201.5 C60.478,194.9 61.129,186.912 61.427,183.75 C61.921,178.511 61.794,178 59.998,178 C58.684,178 57.531,179.188 56.538,181.563 C55.719,183.523 53.682,186.561 52.012,188.313 C44.505,196.189 40.175,200.956 39.851,201.704 C39.108,203.42 31.317,208.625 27.566,209.913 C23.865,211.183 23.523,211.129 21.816,209.021 C18.372,204.768 20.032,201.135 26.375,199.041 C28.694,198.276 32.417,194.902 38.134,188.385 C42.735,183.14 46.906,177.982 47.403,176.924 C47.899,175.866 48.671,175 49.118,175 C49.565,175 51.279,173.682 52.927,172.071 C54.575,170.46 56.503,168.773 57.212,168.321 C57.92,167.869 59.547,165.577 60.827,163.226 C63.065,159.117 63.145,158.214 62.896,139.726 C62.753,129.152 62.181,118.999 61.624,117.164 C60.735,114.234 60.284,113.893 57.921,114.366 C56.441,114.662 53.541,116.051 51.476,117.452 C49.411,118.853 46.714,120 45.483,120 C44.252,120 42.667,120.697 41.96,121.548 C39.904,124.026 36.855,122.83 34.723,118.71 C32.883,115.153 32.866,114.806 34.443,113.063 C35.367,112.042 38.233,110.676 40.812,110.028 C45.802,108.773 50.218,106.407 56.182,101.79 L59.864,98.939 L59.461,91.22 C58.911,80.68 57.517,72.938 56.001,72.001 C55.061,71.42 55.474,70.299 57.619,67.61 Z M151,39.716 C151.825,39.464 154.407,39.27 156.738,39.287 C161.893,39.323 163.953,41.29 165.047,47.221 C165.679,50.646 165.454,52.122 163.918,54.618 C162.863,56.333 162,58.645 162,59.756 C162,60.867 160.425,64.065 158.5,66.864 C154.755,72.308 154.19,75.376 156.354,78.527 C157.426,80.089 157.478,81.438 156.604,85 C155.68,88.768 155.073,89.549 152.877,89.804 C151.434,89.971 148.628,89.195 146.642,88.08 C142.191,85.58 140,86.259 140,90.138 C140,93.612 137.657,94.885 135.213,92.74 C134.271,91.913 132.6,90.951 131.5,90.602 C130.4,90.253 128.375,89.074 127,87.983 L124.5,86 L126.644,84.25 C129.966,81.537 130.45,78.441 128.072,75.101 C126.604,73.039 126.181,71.345 126.605,69.223 C126.951,67.494 126.739,65.957 126.101,65.562 C125.495,65.188 124.993,63.896 124.985,62.691 C124.977,61.486 124.321,59.375 123.527,58 C118.209,48.786 117.624,47.121 118.799,44.541 C119.436,43.144 120.791,42 121.811,42 C123.776,42 128.611,47.411 131.309,52.629 C133.711,57.276 137.995,58.275 138.003,54.191 C138.007,52.299 148.663,40.432 151,39.716 Z M154.712,164.995 C154.425,166.092 153.585,167.149 152.845,167.343 C152.105,167.538 149.925,168.271 148,168.973 C146.075,169.675 142.475,170.306 140,170.375 L135.5,170.5 L135.223,176 C135.07,179.025 134.662,182.175 134.315,183 C133.218,185.609 134.06,196.367 135.629,199.796 C136.674,202.079 137.654,202.946 138.819,202.617 C139.743,202.357 143.765,201.84 147.757,201.47 C154.109,200.88 155.067,200.528 155.443,198.648 C155.856,196.586 156.932,185.892 157.571,177.5 C157.738,175.3 158.161,171.137 158.51,168.25 C159.085,163.49 158.961,163 157.189,163 C156.076,163 155.008,163.86 154.712,164.995 Z M155.808,135.075 C155.611,135.666 151.636,137.036 146.975,138.119 C136.822,140.478 135.023,141.806 136.995,145.491 C138.043,147.45 138.086,148.314 137.18,149.22 C135.609,150.791 135.672,156.483 137.276,157.814 C138.989,159.235 144.298,156.635 148.727,152.206 C151.988,148.945 152.18,148.888 154.578,150.459 C155.941,151.352 157.494,151.813 158.028,151.483 C158.563,151.152 159,147.084 159,142.441 C159,135.825 158.694,134 157.583,134 C156.804,134 156.005,134.484 155.808,135.075 Z M145.946,55.597 C144.051,57.575 141.545,59.567 140.377,60.024 C137.664,61.085 136.547,65.492 138.064,69.154 C139.519,72.668 141.574,72.832 142.411,69.5 C142.756,68.125 143.716,67 144.544,67 C145.372,67 146.441,65.969 146.921,64.709 C147.4,63.449 148.514,61.819 149.396,61.086 C150.278,60.354 151,59.283 151,58.706 C151,58.129 151.719,56.863 152.598,55.892 C153.477,54.921 153.9,53.648 153.539,53.063 C152.29,51.042 149.379,52.014 145.946,55.597 Z"/>
</svg>

