<svg xmlns="http://www.w3.org/2000/svg" width="300" height="300" viewBox="0 0 300 300" version="1.1">
  <defs/>
  <path d="M150.747,54.586 C151.12,54.213 152.567,54.041 153.963,54.204 C156.02,54.444 156.595,55.16 157,57.989 C157.525,61.651 160.189,63.211 162.306,61.094 C165.12,58.28 171.588,61.706 170.836,65.613 C170.647,66.593 167.945,68.633 164.748,70.209 C159.754,72.672 159,73.419 159,75.9 C159,77.471 159.675,80.371 160.5,82.346 C161.325,84.32 162,87.311 162,88.993 C162,92.491 164.803,94.143 169.287,93.286 C176.281,91.948 184.809,97.296 186.005,103.769 C186.628,107.141 190.057,107.774 197.746,105.936 C202.494,104.801 203.186,104.858 205.04,106.536 C209.587,110.651 205.581,113.897 192,117.104 C185.129,118.727 183,120.046 183,122.683 C183,123.972 182.563,125.809 182.028,126.764 C181.494,127.719 180.179,132.913 179.106,138.307 C176.986,148.967 175.339,152.325 171.01,154.809 C167.681,156.72 167.149,158.951 166.378,174.25 C166.047,180.824 166.209,185 166.796,185 C169.195,185 174.77,181.894 177.5,179.036 C179.15,177.309 182.457,174.007 184.85,171.698 C187.242,169.389 189.841,166.262 190.625,164.75 C193.26,159.669 199,161.932 199,168.052 C199,169.253 197.607,171.87 195.905,173.868 C186.316,185.119 183.487,188 182.026,188 C181.135,188 178.67,189.778 176.549,191.95 C173.495,195.078 171.839,195.963 168.596,196.2 L164.5,196.5 L164.409,226.317 C164.323,254.25 164.438,256.288 166.231,258.567 C167.284,259.905 168.566,261 169.081,261 C169.596,261 174.304,263.475 179.544,266.5 C184.784,269.525 189.437,272 189.885,272 C190.333,272 192.562,273.349 194.838,274.998 C198.99,278.005 215.579,286.214 224,289.428 C226.475,290.372 229.4,291.718 230.5,292.419 C231.6,293.12 234.75,294.453 237.5,295.383 C240.25,296.312 243.625,297.738 245,298.553 C247.293,299.91 246.546,300.011 236,299.766 C225.307,299.519 224.221,299.307 220.518,296.75 C218.328,295.238 215.786,294 214.87,294 C213.306,294 205.583,290.555 196.5,285.806 C194.3,284.655 191.31,283.094 189.855,282.336 C188.401,281.578 186.658,280.293 185.983,279.479 C185.308,278.666 184.203,278 183.528,278 C182.044,278 169.673,271.553 165.513,268.612 C162.009,266.134 152.393,260.831 146,257.851 C134.422,252.454 130.407,250.3 127.241,247.79 C123.27,244.639 120.135,243.446 118.996,244.651 C118.554,245.118 116.378,248.991 114.16,253.259 C111.942,257.526 106.917,265.289 102.993,270.509 L95.86,280 L89.052,280 C84.577,280 81.863,279.54 81.131,278.658 C79.85,277.114 80.612,276 82.948,276 C84.672,276 93.876,266.908 98.31,260.824 C99.783,258.802 103.269,252.502 106.055,246.824 C108.841,241.146 111.544,235.719 112.06,234.764 C112.577,233.809 113,232.344 113,231.509 C113,230.674 114.125,227.658 115.5,224.808 C118.529,218.529 119.074,207.136 116.449,204.958 C115.587,204.242 115.032,202.524 115.199,201.086 C115.452,198.915 116.07,198.452 119.051,198.201 C123.598,197.819 125.303,199.765 126.885,207.143 C128.2,213.272 127.156,223.264 124.497,230 C121.502,237.589 121.534,237.797 125.889,238.97 C128.084,239.561 135.035,242.706 141.337,245.958 C147.639,249.211 153.066,251.6 153.398,251.269 C153.729,250.938 154,249.032 154,247.033 C154,245.035 154.53,242.87 155.177,242.223 C156.323,241.077 156.343,237.878 155.457,199 C155.325,193.225 155.165,187.825 155.102,187 C155.038,186.175 155.273,180.662 155.624,174.75 C156.369,162.194 155.944,161.766 148.432,167.5 C143.267,171.443 142.354,171.637 139.24,169.455 C137.499,168.236 136.586,168.151 134.901,169.053 C133.207,169.959 132.453,169.881 131.247,168.675 C130.411,167.839 130,166.441 130.335,165.569 C130.956,163.952 131.943,163.448 140.184,160.539 C142.76,159.629 147.579,157.133 150.893,154.991 L156.918,151.097 L156.671,144.796 C156.296,135.196 154.875,134.109 148.426,138.486 C146.411,139.853 143.254,141.388 141.41,141.897 C139.566,142.406 136.738,143.763 135.124,144.911 C133.511,146.06 131.615,147 130.91,147 C128.884,147 125.089,142.931 125.68,141.392 C126.15,140.167 134.377,134 135.541,134 C135.784,134 138.003,132.458 140.471,130.574 C142.94,128.689 145.981,126.83 147.23,126.443 C152.302,124.867 154.865,122.084 155.57,117.385 C156.09,113.912 155.883,112.455 154.701,111.273 C153.298,109.87 152.733,109.944 148.824,112.043 C146.446,113.32 142.776,115.248 140.668,116.328 L136.836,118.29 L134.18,115.634 C130.541,111.995 131.698,110.459 141.933,105.339 C146.507,103.051 150.833,100.576 151.546,99.839 C152.542,98.811 152.645,96.59 151.991,90.267 C151.522,85.739 150.856,81.576 150.51,81.017 C149.527,79.426 147.049,79.816 144.273,82 C141.014,84.563 139.186,84.523 136.314,81.826 C133.134,78.838 133.399,76.238 137.092,74.203 C148.336,68.008 148.667,67.659 149.393,61.244 C149.765,57.955 150.374,54.959 150.747,54.586 Z M74.467,88.053 C75.516,86.356 81.7,86.775 82.396,88.59 C82.732,89.465 82.74,90.611 82.415,91.138 C82.09,91.664 82.289,94.211 82.858,96.797 C83.427,99.384 84.177,104.537 84.526,108.25 C85.265,116.128 86.53,116.794 90.607,111.449 C92.678,108.734 93.926,107.969 95.908,108.199 C98.113,108.455 98.454,108.929 98.193,111.372 C97.822,114.843 95.783,118.18 90.782,123.5 C87.544,126.945 87.02,128.151 87.011,132.191 C87.005,134.771 86.619,137.117 86.154,137.405 C84.797,138.243 83.741,171.648 84.998,173.996 C86.707,177.19 88.757,176.39 89.472,172.25 C90.455,166.556 92.249,164.676 95.928,165.484 C99.04,166.168 102,169.277 102,171.862 C102,173.591 99.09,175.925 96.88,175.968 C95.711,175.991 95.12,177.241 94.758,180.454 C94.329,184.262 93.506,185.59 89.08,189.618 C84.1,194.15 83.907,194.522 83.989,199.415 C84.036,202.212 83.9,209.675 83.688,216 C83.475,222.325 83.509,227.876 83.762,228.335 C84.827,230.264 84.905,252.41 83.851,253.679 C81.898,256.033 79.165,255.088 75.797,250.897 C73.984,248.64 71.345,246.196 69.934,245.466 C68.523,244.736 66.071,242.195 64.484,239.82 C62.898,237.444 60.846,234.6 59.924,233.5 C57.837,231.011 56.549,224.397 57.978,223.513 C59.954,222.293 62.51,224.066 65.22,228.538 C67.743,232.701 72.095,235.678 73.968,234.52 C74.407,234.248 74.827,225.92 74.901,216.013 C75.01,201.203 74.786,198 73.638,198 C72.871,198 71.718,199.266 71.077,200.813 C69.174,205.409 61.69,212.437 54.482,216.399 C46.851,220.594 44.565,220.662 41.677,216.779 C39.979,214.496 39.838,213.65 40.805,211.529 C41.439,210.138 42.494,209 43.15,209 C43.806,209 45.13,208.288 46.092,207.417 C47.054,206.546 49.188,205.084 50.835,204.167 C52.482,203.25 58.524,198.384 64.262,193.352 L74.695,184.205 L75.32,176.352 C75.664,172.034 76.247,161.035 76.616,151.912 C77.239,136.511 77.159,135.275 75.488,134.634 C74.364,134.202 72.903,134.629 71.595,135.771 C67.951,138.951 58.393,142.245 54.985,141.497 C53.173,141.099 51.36,141.286 50.555,141.955 C48.81,143.402 44.64,142.365 42.442,139.936 C40.984,138.325 40.917,137.616 41.976,135.059 C43.367,131.699 45.633,130.619 49.336,131.548 C51.042,131.976 52.744,131.526 54.671,130.135 C56.227,129.011 60.547,127.401 64.27,126.556 C67.994,125.711 72.115,124.315 73.429,123.455 C75.742,121.939 75.805,121.556 75.45,111.195 C75.248,105.313 74.798,97.937 74.449,94.803 C74.101,91.67 74.109,88.633 74.467,88.053 Z M168.884,125.877 C166.634,127.647 166.404,128.582 166.182,136.905 C165.998,143.765 166.253,145.996 167.219,145.985 C169.793,145.954 170.736,144.386 171.423,139 C171.809,135.975 172.373,131.773 172.676,129.663 C173.388,124.703 172.061,123.378 168.884,125.877 Z M165.2,105.2 C163.587,106.813 163.684,110.186 165.413,112.55 C166.804,114.452 166.9,114.447 171.413,112.254 C176.414,109.825 177.499,106.872 174.066,105.035 C171.454,103.637 166.674,103.726 165.2,105.2 Z"/>
</svg>

