<svg xmlns="http://www.w3.org/2000/svg" width="300" height="300" viewBox="0 0 300 300" version="1.1">
  <defs/>
  <path d="M151.5,80.215 C157.103,78.867 160.145,78.838 165.916,80.075 C172.973,81.589 175.128,85.177 174.732,94.761 C174.472,101.05 173.99,102.491 169.923,109.126 C167.436,113.182 164.418,118.618 163.216,121.207 C162.014,123.795 160.03,126.449 158.807,127.103 C157.584,127.758 155.871,129.172 155.002,130.246 C154.013,131.467 151.705,132.392 148.84,132.715 C144.566,133.196 144.038,132.988 140.969,129.615 C137.082,125.344 136.246,125.171 135.418,128.469 C135.01,130.096 135.504,132.08 136.869,134.287 C139.115,137.923 140.076,146.87 138.646,150.849 C137.879,152.984 138.016,153.13 140.151,152.457 C141.443,152.049 145.2,149.399 148.5,146.567 C157.575,138.78 161.118,136.372 170.077,131.902 C176.996,128.449 178.652,127.976 180.641,128.882 C186.104,131.371 181.421,142.136 174.293,143.473 C172.298,143.847 169.278,145.177 167.583,146.427 C165.887,147.678 162.36,149.709 159.745,150.942 C157.129,152.175 152.532,155.583 149.528,158.515 C146.524,161.448 142.655,164.669 140.929,165.674 C137.873,167.452 136.081,170.605 130.228,184.5 C129.069,187.25 127.85,191.182 127.518,193.238 C127.155,195.482 126.132,197.394 124.957,198.023 C123.711,198.69 123,200.115 123,201.946 C123,203.879 122.068,205.607 120.158,207.214 C118.595,208.529 116.994,210.888 116.6,212.456 C116.207,214.024 114.561,217.232 112.942,219.584 C111.324,221.936 110,224.713 110,225.756 C110,226.798 108.875,228.708 107.5,230 C106.125,231.292 105,232.908 105,233.593 C105,234.277 103.402,235.824 101.449,237.032 C99.496,238.239 97.179,240.323 96.3,241.664 C95.422,243.005 93.506,244.721 92.043,245.478 C89.517,246.784 89.242,246.676 86.573,243.332 C83.998,240.104 83.878,239.595 85.132,237.23 C85.884,235.811 88.184,233.941 90.242,233.075 C92.668,232.054 94.546,230.326 95.581,228.161 C96.46,226.324 98.002,223.998 99.008,222.992 C100.014,221.986 102.68,217.442 104.932,212.895 C107.185,208.347 109.584,203.923 110.264,203.063 C112.551,200.171 114,197.041 114,194.994 C114,193.875 115.125,191.178 116.5,189 C117.875,186.822 119,184.342 119,183.488 C119,180.769 116.017,180.616 113.19,183.19 C111.711,184.537 105.624,188.073 99.664,191.048 L88.828,196.457 L85.164,194.339 C83.149,193.175 81.364,191.334 81.199,190.249 C80.677,186.836 85.331,182.498 90.891,181.215 C96.144,180.002 111.947,171.973 114.037,169.456 C114.701,168.655 116.029,168 116.988,168 C119.166,168 123.633,164.551 125.181,161.672 C127.325,157.687 127.862,151.577 126.778,143.5 C126.187,139.1 125.135,134.825 124.441,134 C122.729,131.968 122.455,126.149 123.903,122.57 C125.686,118.159 126.479,111 125.184,111 C124.586,111 122.755,112.912 121.116,115.25 C117.92,119.808 113.723,124.243 110.513,126.452 C108.602,127.768 108.594,127.894 110.312,129.792 C111.52,131.127 111.893,132.576 111.467,134.275 C111.092,135.771 111.476,138.02 112.419,139.843 C114.664,144.184 114.412,145.57 110.929,148.051 L107.857,150.238 L104.929,147.432 C102.865,145.455 102,143.664 102,141.372 C102,139.582 101.55,137.84 101,137.5 C100.45,137.16 100,135.949 100,134.808 C100,132.052 88.651,115.249 84.378,111.677 C81.822,109.541 81,108.069 81,105.627 C81,103.852 81.54,101.86 82.2,101.2 C83.637,99.763 90,99.584 90,100.98 C90,101.519 92.704,104.944 96.009,108.59 C99.313,112.237 102.287,116.296 102.617,117.61 C103.766,122.189 106.5,120.389 110.759,112.25 C116.205,101.844 130.546,87.11 137.074,85.216 C139.508,84.509 142.85,83.312 144.5,82.554 C146.15,81.797 149.3,80.744 151.5,80.215 Z M52.91,55.608 C54.843,53.28 58.708,53.612 60.381,56.25 C61.166,57.487 62.12,60.44 62.502,62.812 C63.054,66.24 63.74,67.331 65.847,68.132 C70.457,69.885 72,71.991 72,76.533 C72,79.242 71.407,81.247 70.345,82.128 C67.071,84.843 66.384,88.987 67.138,101.5 C67.639,109.837 67.841,112.6 67.797,115.36 C67.766,117.324 67.61,119.285 67.35,123.25 C66.822,131.305 67.411,132.414 70.439,129.067 C71.401,128.005 72.821,127.378 73.594,127.674 C75.445,128.385 75.391,131.431 73.5,133 C72.654,133.702 72,135.882 72,138 C72,140.065 71.374,142.275 70.609,142.91 C68.596,144.58 67.72,149.28 67.517,159.5 C67.418,164.45 66.99,173.225 66.564,179 C65.478,193.747 65.699,210.959 67.108,221.339 L68.308,230.179 L65.404,232.553 C61.696,235.586 58.639,235.624 56.699,232.664 C55.858,231.379 51.756,226.414 47.584,221.629 C43.413,216.845 40,212.35 40,211.64 C40,210.93 38.875,209.292 37.5,208 C34.665,205.337 34.304,202.823 36.495,201.004 C37.706,199.999 38.514,200.119 40.745,201.632 C42.26,202.659 45.059,203.96 46.963,204.522 C49.689,205.326 50.561,206.197 51.054,208.609 C51.868,212.591 52.785,214 54.559,214 C56.212,214 56.611,205.514 55.073,203.083 C54.58,202.304 54.54,200.711 54.984,199.542 C55.428,198.373 55.951,190.011 56.146,180.959 C56.448,166.904 56.283,164.5 55.014,164.5 C54.196,164.5 53.355,165.4 53.145,166.5 C52.935,167.6 51.635,169.625 50.256,171 C48.878,172.375 46.476,175.75 44.918,178.5 C41.974,183.699 30.128,197.538 25.519,201.164 L22.869,203.248 L19.934,200.437 C18.32,198.891 17,196.716 17,195.604 C17,194.421 19.8,190.869 23.75,187.041 C36.047,175.124 46.796,162.321 49.028,156.932 C49.696,155.319 50.632,154 51.109,154 C51.585,154 53.094,152.228 54.461,150.062 C56.938,146.138 56.945,146.057 56.451,126.812 C55.984,108.65 55.011,102 52.82,102 C51.717,102 43.832,107.987 42.764,109.636 C42.359,110.261 40.334,111.086 38.264,111.471 C36.194,111.855 33.752,112.84 32.839,113.659 C31.6,114.77 30.004,114.973 26.561,114.457 C21.986,113.771 20,111.991 20,108.578 C20,106.569 27.234,102 30.415,102 C34.128,102 37.947,100.265 42.062,96.708 C44.103,94.944 47.625,92.012 49.887,90.194 C53.368,87.395 54,86.318 54,83.187 C54,81.152 53.538,77.915 52.973,75.993 C51.378,70.563 51.337,57.504 52.91,55.608 Z M145.445,183.061 C148.18,180.038 152.103,180.446 155.563,184.112 C158.49,187.213 171.018,196 172.512,196 C172.944,196 175.669,197.912 178.568,200.25 C181.467,202.588 185.143,205.498 186.737,206.717 C188.33,207.936 191.041,210.186 192.76,211.717 C194.48,213.248 199.524,217.425 203.969,221 C208.415,224.575 215.541,230.875 219.806,235 C229.066,243.957 240.818,254.351 245.856,258.039 C247.86,259.507 250.357,261.673 251.405,262.854 C252.453,264.034 253.899,265 254.62,265 C256.414,265 258,268.243 258,271.911 C258,278.516 249.134,279.854 246.182,273.694 C244.508,270.201 233.463,259.339 229.5,257.289 C227.85,256.436 220.627,249.834 213.448,242.619 C199.958,229.06 194.527,224.343 190.085,222.327 C188.663,221.682 184.8,218.567 181.5,215.405 C174.952,209.132 156.688,195 155.128,195 C154.594,195 151.777,192.777 148.868,190.061 C143.644,185.182 143.603,185.097 145.445,183.061 Z M117.28,12.074 C119.642,11.181 120.473,11.423 123.25,13.807 C124.633,14.995 125,16.913 125,22.955 C125,27.16 124.605,31.027 124.122,31.55 C123.639,32.072 123.021,34.625 122.748,37.223 C122.332,41.184 122.548,42.039 124.088,42.528 C126.415,43.266 129.278,41.751 131.254,38.735 C132.099,37.445 134.526,35.818 136.646,35.121 C140.207,33.949 140.862,34.055 145.25,36.512 C150.416,39.404 150.714,40.108 148.537,44.281 C147.739,45.81 147.353,47.756 147.679,48.605 C148.287,50.191 146.795,56.077 144.37,61.651 C143.617,63.384 143,65.286 143,65.878 C143,66.47 141.875,67.691 140.5,68.592 C139.125,69.493 138,71.04 138,72.031 C138,74.1 131.021,80 128.575,80 C126.188,80 125.501,77.208 127.379,75.134 C128.362,74.047 129,71.593 129,68.894 C129,66.29 129.719,63.419 130.734,61.973 C131.687,60.613 133.26,57.946 134.23,56.046 C136.735,51.136 135.111,50.019 129.76,52.971 C121.432,57.565 120.002,58.931 119.973,62.318 C119.956,64.309 118.89,66.774 117.124,68.903 C114.222,72.402 112,72.444 112,69 C112,67.965 111.49,66.803 110.867,66.418 C109.649,65.665 110.191,56.004 112.123,44 C112.699,40.425 113.363,33 113.6,27.5 C114.144,14.83 114.556,13.104 117.28,12.074 Z M153.458,90.685 C150.451,91.091 150.416,91.165 150.458,97.017 C150.493,102.009 150.929,103.427 153.237,106.057 C156.03,109.24 157.802,109.508 159.067,106.94 C164.487,95.944 165.29,93.683 164.324,92.139 C163.28,90.473 159.142,89.919 153.458,90.685 Z M142.949,116.561 C142.197,117.467 140.551,118.6 139.291,119.079 C137.795,119.648 137,120.771 137,122.314 C137,124.363 137.457,124.662 140.428,124.559 C144.82,124.406 148.192,121.433 147.797,118.061 C147.444,115.042 144.871,114.246 142.949,116.561 Z"/>
</svg>

