<svg xmlns="http://www.w3.org/2000/svg" width="300" height="300" viewBox="0 0 300 300" version="1.1">
  <defs/>
  <path d="M58.591,71.25 C60.247,68.689 60.445,68.633 62.99,69.995 C66.012,71.612 68,76.845 68,83.185 C68,87.491 68.402,89.217 69.502,89.639 C72.085,90.63 75.576,89.161 77.011,86.479 C78.196,84.265 78.958,83.946 82.445,84.202 C86.405,84.493 86.507,84.594 86.782,88.5 C87.048,92.269 86.771,92.717 81.982,96.25 C79.186,98.312 76.331,100 75.637,100 C74.942,100 73.063,101.369 71.46,103.041 C68.878,105.737 68.477,107.016 67.93,114.291 C67.59,118.806 67.58,127.225 67.906,133 C68.458,142.766 68.65,143.521 70.651,143.807 C71.924,143.988 74.169,142.925 76.151,141.203 C81.263,136.762 83.843,135.624 85.564,137.053 C86.354,137.709 87,139.139 87,140.233 C87,142.435 80.5,148.991 74.073,153.273 L69.91,156.045 L70.369,171.773 C70.621,180.423 71.108,192.45 71.452,198.5 C72.691,220.316 71.542,227 66.551,227 C65.148,227 63.124,226.124 62.053,225.053 C60.982,223.982 58.844,222.454 57.301,221.656 C55.758,220.858 53.639,219.259 52.593,218.102 C51.546,216.946 49.885,216 48.902,216 C47.918,216 46.525,215.183 45.807,214.184 C45.088,213.185 43.768,212.096 42.874,211.763 C41.489,211.248 41.415,210.629 42.369,207.579 C43.561,203.77 46.299,202.774 48.39,205.388 C50.176,207.621 59.144,212.159 60.637,211.586 C62.023,211.054 61.928,202.168 60.36,185.752 C60.032,182.313 59.704,176.359 59.631,172.52 C59.525,166.873 59.182,165.478 57.835,165.213 C56.806,165.011 55.893,165.766 55.443,167.193 C55.042,168.462 52.191,172.043 49.107,175.152 C46.023,178.26 40.814,183.768 37.53,187.392 C29.095,196.701 22.458,199.374 18.536,195.04 C15.61,191.806 17.238,188.812 24.434,184.191 C28.001,181.901 31.919,178.676 33.141,177.024 C34.362,175.372 36.153,173.769 37.121,173.462 C38.088,173.155 41.223,170.015 44.087,166.486 C46.951,162.956 50.963,158.912 53.003,157.498 C55.043,156.084 57.162,153.931 57.713,152.714 C59.037,149.785 57.232,116.898 55.661,115.327 C55.297,114.964 53.226,116.091 51.058,117.833 C48.891,119.575 46.661,121 46.103,121 C45.545,121 43.431,122.125 41.405,123.5 C38.675,125.352 36.397,126.004 32.61,126.014 C29.8,126.021 26.513,126.292 25.306,126.616 C22.66,127.325 18,123.157 18,120.081 C18,117.318 21.384,115.6 24.033,117.018 C25.449,117.776 27.042,117.797 29.283,117.087 C31.052,116.528 33.625,115.846 35,115.573 C37.107,115.155 46.472,109.643 53.349,104.774 C55.632,103.158 58.064,88.354 57.508,79.458 C57.253,75.394 57.598,72.785 58.591,71.25 Z M150.2,24.2 C151.863,22.537 156.503,22.696 157.972,24.466 C160.139,27.077 157.869,42.638 154.54,47.987 C151.557,52.781 146,64.391 146,65.829 C146,66.473 146.594,67 147.32,67 C148.045,67 149.618,68.125 150.813,69.5 C152.527,71.472 153.934,72 157.47,72 C161.277,72 162.214,72.415 163.676,74.75 C166.206,78.788 171.995,84 173.951,84 C174.886,84 176.708,85.125 178,86.5 C179.377,87.965 181.462,89 183.039,89 C184.519,89 186.942,89.953 188.423,91.118 C189.905,92.284 192.553,93.594 194.308,94.031 C198.515,95.077 204.128,97.05 206,98.141 C207.839,99.212 210.158,100.243 216,102.587 C226.382,106.752 228.75,110.433 224.974,116.542 C223.388,119.109 222.437,119.837 221.673,119.073 C221.083,118.483 219.844,118 218.92,118 C217.997,118 215.551,115.938 213.487,113.418 C210.878,110.235 209.178,108.982 207.916,109.312 C206.917,109.573 204.64,108.71 202.855,107.393 C201.071,106.077 198.66,105 197.497,105 C196.334,105 194.509,104.339 193.441,103.532 C192.374,102.724 190.764,102.049 189.864,102.032 C187.918,101.994 185.375,100.682 178,95.91 C174.975,93.953 170.291,91.509 167.591,90.479 C164.891,89.449 160.429,86.826 157.675,84.649 C154.921,82.472 150.83,80.151 148.584,79.49 C145.657,78.63 144.409,77.682 144.18,76.145 C143.656,72.624 140.313,73.545 137.513,77.98 C136.131,80.169 135,82.341 135,82.806 C135,83.271 133.898,84.686 132.552,85.951 C131.205,87.216 129.805,89.657 129.441,91.376 C129.076,93.094 128.21,95.175 127.517,96 C126.824,96.825 124.778,100.2 122.972,103.5 C118.388,111.874 113.968,118.305 109.387,123.263 C107.233,125.593 104.746,128.637 103.86,130.026 C102.973,131.415 100.618,133.429 98.627,134.501 L95.007,136.451 L92.846,134.29 C90.727,132.171 90.721,132.075 92.513,129.315 C94.535,126.201 101.363,117.84 104.539,114.588 C106.981,112.087 118,94.441 118,93.031 C118,92.486 119.719,89.769 121.82,86.994 C126.107,81.33 144.045,46.431 144.018,43.809 C144.008,42.879 144.396,41.873 144.88,41.574 C146.16,40.783 149,31.607 149,28.262 C149,26.688 149.54,24.86 150.2,24.2 Z M197,184 C198.962,182.732 211.497,182.723 215.429,183.987 C218.736,185.05 230.512,188.12 241,190.654 C245.45,191.729 248.446,193.152 250.5,195.165 L253.5,198.105 L250.234,201.052 C246.288,204.614 243.178,204.768 238.23,201.648 C234.516,199.306 232.012,198.591 222.5,197.155 C219.75,196.74 216.6,195.921 215.5,195.335 C214.4,194.748 211.475,194.187 209,194.086 C206.525,193.986 203.375,193.839 202,193.76 C195.743,193.4 190.906,194.081 190.402,195.394 C190.108,196.161 191.697,199.423 193.932,202.644 C197.065,207.156 197.998,209.437 197.999,212.583 C197.999,214.829 198.325,216.992 198.723,217.39 C199.121,217.787 199.542,219.615 199.659,221.45 C199.823,224.007 199.047,225.754 196.344,228.911 C191.662,234.381 185.773,236.926 176.066,237.674 L168.165,238.284 L161.607,234.142 C158,231.864 154.389,230 153.582,230 C149.634,230 142.236,223.892 139.25,218.167 C137.389,214.599 137.633,208.078 139.657,207.301 C141.892,206.444 146.401,209.101 146.84,211.534 C147.907,217.455 163.504,226.23 175,227.378 C180.655,227.942 182.018,227.73 185.482,225.742 C189.055,223.691 189.6,222.844 190.794,217.478 C191.983,212.138 191.943,211.18 190.423,208.5 C187.122,202.68 182.837,199 179.363,199 C177.578,199 175.84,199.45 175.5,200 C175.16,200.55 173.289,201 171.341,201 C164.03,201 157.473,189.958 163.021,186.989 C164.132,186.394 165.594,186.249 166.27,186.667 C166.945,187.084 170.185,187.743 173.469,188.13 C178.313,188.701 180.189,188.472 183.408,186.917 C185.59,185.863 189.204,184.993 191.438,184.985 C193.672,184.976 196.175,184.533 197,184 Z M147.648,102.685 C148.657,101.676 153.055,103.082 157.737,105.911 C161.3,108.063 162,109 162,111.62 C162,113.344 161.325,115.315 160.5,116 C157.317,118.642 158.784,119.813 165.098,119.667 C170.618,119.541 171.424,119.792 173.598,122.319 C175.582,124.625 176,126.204 176,131.381 C176,136.776 175.651,137.979 173.5,140 C172.125,141.292 171,142.84 171,143.441 C171,145.43 161.26,155.279 160.039,154.524 C159.398,154.128 158.019,154.578 156.974,155.523 C155.929,156.469 154.383,156.977 153.537,156.653 C150.805,155.604 151.885,151.643 156.108,147.227 C160.792,142.329 166.602,131.202 165.205,129.805 C163.916,128.516 159.473,129.819 157.419,132.09 C156.468,133.14 154.807,134 153.727,134 C152.647,134 150.197,135.375 148.283,137.057 C143.558,141.205 140.834,140.721 139.763,135.543 C139.313,133.366 139.174,130.989 139.454,130.259 C139.734,129.53 142.901,127.615 146.492,126.004 C151.167,123.906 153.302,122.335 154.011,120.472 C155.663,116.125 155.223,114.094 152.477,113.405 C151.089,113.056 149.289,111.823 148.477,110.663 C146.967,108.508 146.483,103.85 147.648,102.685 Z M112.175,184.225 C113.825,182.575 118.095,183.757 120.686,186.58 C123.359,189.494 124.694,197.18 123.125,200.625 C122.506,201.983 122,204.432 122,206.067 C122,207.702 120.875,210.822 119.5,213 C118.125,215.178 117,217.589 117,218.358 C117,219.126 116.325,220.315 115.5,221 C114.675,221.685 113.982,222.752 113.959,223.372 C113.892,225.228 106.742,232.566 103.237,234.378 C100.794,235.641 98.718,235.899 94.987,235.404 C92.244,235.04 90,234.57 90,234.36 C90,234.15 91.013,231.943 92.25,229.456 C93.821,226.299 95.278,224.766 97.076,224.377 C100.182,223.705 108,214.935 108,212.123 C108,211.02 108.45,209.84 109.001,209.5 C109.551,209.16 110.506,206.875 111.124,204.424 C111.741,201.972 112.598,199.749 113.028,199.483 C113.999,198.883 113.065,190.846 111.874,189.55 C110.642,188.21 110.789,185.611 112.175,184.225 Z"/>
</svg>

