<svg xmlns="http://www.w3.org/2000/svg" width="300" height="300" viewBox="0 0 300 300" version="1.1">
  <defs/>
  <path d="M110.557,43.223 C112.929,39.836 116.365,40.405 119.774,44.75 C123.211,49.131 125.674,57.974 124.193,60.62 C123.528,61.808 123.655,63.843 124.592,66.997 C125.59,70.357 125.697,72.569 124.984,75.057 C123.649,79.711 123.743,80.964 125.474,81.629 C126.953,82.196 128.163,81.405 138.779,72.936 C141.926,70.426 147.967,66.039 152.205,63.186 L159.91,58 L168.33,58 C175.194,58 177.838,58.477 182.626,60.577 C187.924,62.902 193,67.064 193,69.084 C193,69.509 193.715,70.573 194.59,71.447 C195.464,72.321 197.738,75.302 199.642,78.07 C202.565,82.319 203.149,84.099 203.395,89.51 C203.555,93.034 204.127,96.498 204.665,97.208 C205.25,97.98 205.481,104.938 205.239,114.5 C205.016,123.3 204.871,131.97 204.917,133.766 C204.964,135.562 204.523,139.162 203.937,141.766 C203.352,144.37 202.682,151.758 202.449,158.185 C202.215,164.611 201.37,174.061 200.57,179.185 C199.77,184.308 198.848,193.9 198.521,200.5 C198.194,207.1 197.532,214.075 197.05,216 C196.568,217.925 195.891,228.026 195.546,238.447 C195.2,248.868 194.539,257.868 194.077,258.447 C193.615,259.026 192.997,261.075 192.703,263 C190.94,274.552 190.787,274.942 186.392,278.993 C183.096,282.031 181.222,283 178.644,283 C174.729,283 168,280.452 168,278.969 C168,278.417 164.85,274.993 161,271.361 C154.604,265.328 152.89,262.443 154.653,260.68 C155.49,259.843 161.207,263.247 167.117,268.102 C175.298,274.823 178.559,274.373 182.377,266 C184.605,261.112 185.836,248.925 186.495,225.232 L186.864,211.964 L183.432,208.631 C181.544,206.798 180,204.399 180,203.301 C180,201.943 178.738,200.734 176.055,199.525 C173.885,198.546 171.073,196.637 169.805,195.282 C167.447,192.761 160.61,189 158.385,189 C156.878,189 153,184.247 153,182.4 C153,179.547 156.784,178.829 163.18,180.468 C170.613,182.372 172.135,183.172 180.025,189.322 C184.993,193.194 187.407,195.104 188.662,194.521 C189.873,193.958 190.006,191.077 190.313,185.399 C190.525,181.494 190.96,177.874 191.281,177.354 C191.602,176.835 192.15,166.765 192.498,154.978 C192.846,143.191 193.512,133.086 193.977,132.523 C195.105,131.158 195.302,103.825 194.229,97.5 C193.763,94.75 192.568,90.7 191.575,88.5 C186.691,77.685 185.523,76.058 180.8,73.488 C178.194,72.069 175.796,70.479 175.472,69.954 C174.743,68.775 168.76,68.755 163.768,69.914 C159.352,70.94 149.475,77.282 146.163,81.218 C144.876,82.748 143.3,84.018 142.661,84.041 C142.022,84.063 139.942,85.413 138.038,87.041 C136.134,88.668 133.798,90 132.847,90 C131.896,90 130.84,90.45 130.5,91 C130.16,91.55 128.334,92 126.441,92 C124.035,92 123,92.455 123,93.514 C123,94.346 122.604,95.809 122.121,96.764 C121.637,97.719 120.436,100.975 119.452,104 C117.057,111.363 115.226,114 112.507,114 C109.072,114 107.446,111.511 108.858,108.413 C109.694,106.578 109.712,105.331 108.925,103.86 C108.101,102.321 108.181,101.433 109.255,100.167 C110.788,98.361 113.048,89.041 112.934,85 C112.895,83.625 113.365,79.818 113.978,76.54 C115.468,68.58 114.017,56.237 111.112,52.158 C108.599,48.628 108.45,46.231 110.557,43.223 Z M61.872,77.657 C63.682,75.472 65.158,75.567 67.811,78.039 C70.016,80.093 70.29,82.198 70.459,98.416 C70.51,103.27 71.876,103.817 75.768,100.541 C77.43,99.144 79.541,98 80.46,98 C81.379,98 82.914,97.581 83.87,97.07 C86.481,95.672 88.227,97.245 87.46,100.304 C87.099,101.742 86.173,103.442 85.402,104.081 C84.631,104.721 84,105.703 84,106.262 C84,107.824 80.757,109.933 78.301,109.968 C77.01,109.987 75.056,111.372 73.568,113.322 C71.122,116.528 71.029,117.191 70.888,132.359 C70.807,141.002 71.003,148.336 71.323,148.656 C71.643,148.976 72.633,148.51 73.522,147.621 C75.435,145.708 79.449,144.542 80.943,145.465 C81.524,145.824 82,148.101 82,150.524 C82,153.906 81.535,155.178 80,156 C78.9,156.589 78,157.901 78,158.916 C78,159.932 76.366,162.009 74.369,163.532 L70.739,166.301 L71.329,172.617 C71.653,176.09 71.586,179.138 71.179,179.389 C70.772,179.641 70.569,182.469 70.728,185.673 C70.887,188.878 70.983,194.65 70.943,198.5 C70.826,209.6 70.845,211.066 71.211,219 C71.401,223.125 71.911,227.067 72.343,227.759 C73.482,229.583 72.196,232.803 70.057,233.482 C69.044,233.803 67.984,234.951 67.702,236.033 C66.959,238.874 64.225,238.452 61,235 C59.459,233.35 57.28,232 56.158,232 C55.036,232 53.84,231.55 53.5,231 C53.16,230.45 52.168,230 51.295,230 C50.422,230 47.615,228.043 45.059,225.652 C42.502,223.26 39.755,221.068 38.955,220.78 C37.811,220.369 37.741,219.855 38.628,218.379 C40.272,215.641 45.333,216.451 52.322,220.569 C55.524,222.456 58.519,224 58.978,224 C60.305,224 60.925,215.72 60.873,198.671 C60.846,189.965 61.089,182.578 61.412,182.254 C62.35,181.317 62.092,175.175 61.089,174.555 C59.21,173.393 42,190.487 42,193.514 C42,194.805 39.525,198.412 36,202.259 C32.7,205.86 30,209.152 30,209.575 C30,211.225 26.58,214 24.545,214 C19.257,214 18.501,208.011 22.955,201.412 C30.35,190.455 47.872,171.082 55.919,164.968 C59.706,162.09 61.393,156.157 60.886,147.5 C60.725,144.75 60.616,138.675 60.644,134 C60.674,128.974 60.255,125.214 59.618,124.799 C59.026,124.414 56.089,125.426 53.093,127.049 C50.096,128.672 47.117,130 46.471,130 C45.826,130 43.182,131.125 40.596,132.5 C38.01,133.875 35.355,134.996 34.697,134.992 C33.645,134.985 31,130.677 31,128.969 C31,128.227 40.422,122 41.545,122 C41.967,122 43.704,120.939 45.406,119.642 C47.108,118.345 51.087,116.101 54.25,114.656 L60,112.027 L60.159,105.764 C60.246,102.319 60.359,94.958 60.409,89.407 C60.472,82.44 60.925,78.802 61.872,77.657 Z M122.105,109.75 C123.265,108.791 123.841,108.266 124.484,108.163 C125.266,108.038 126.148,108.538 128.3,109.64 C132.165,111.62 132.907,112.64 132.265,115.095 C131.45,118.212 132.869,122 134.852,122 C136.623,122 140.022,118.995 143.859,114.036 C145.538,111.865 146.068,111.71 148.31,112.731 C149.709,113.369 151.626,115.518 152.57,117.506 C154.234,121.012 154.221,121.21 152.143,124.021 C150.964,125.615 150,127.746 150,128.757 C150,129.767 148.201,132.351 146.001,134.499 C143.802,136.646 142.379,138.779 142.838,139.238 C143.298,139.698 146.664,138.257 150.319,136.037 C153.974,133.817 157.677,132 158.548,132 C161.177,132 164,133.963 163.994,135.785 C163.984,138.482 153.618,148 150.69,148 C148.904,148 147.615,148.987 146.141,151.485 C144.923,153.55 143.539,154.76 142.745,154.455 C142.007,154.173 140.327,155.087 139.012,156.488 C137.053,158.572 136.667,159.926 136.88,163.951 C137.024,166.655 136.628,169.826 136.001,170.998 C135.133,172.619 135.156,173.483 136.096,174.616 C137.333,176.107 137.507,189.557 136.43,200.5 C136.159,203.25 135.743,207.525 135.506,210 C134.506,220.44 134.196,222.768 133.117,227.934 C132.493,230.923 132.219,234.114 132.509,235.027 C132.798,235.939 132.187,237.769 131.15,239.093 C130.113,240.417 128.294,243.637 127.108,246.25 C125.241,250.359 124.551,251 121.994,251 C118.338,251 117.18,247.682 118.869,242.043 C119.491,239.967 120,237.292 120,236.099 C120,234.906 120.657,232.927 121.46,231.702 C122.384,230.291 123.079,225.933 123.355,219.811 C123.594,214.497 124.027,209.765 124.317,209.296 C124.607,208.827 125.075,204.522 125.358,199.73 C125.64,194.939 126.092,190.661 126.361,190.224 C127.238,188.806 124.921,166.61 123.749,165.198 C122.57,163.777 121.2,163.865 111.023,166.016 C105.692,167.142 105.485,167.103 103.273,164.531 C102.023,163.078 101,161.155 101,160.259 C101,157.79 105.047,154 107.684,154 C108.969,154 110.79,153.1 111.732,152 C112.674,150.9 113.954,150 114.576,150 C116.811,150 121,145.096 121,142.48 C121,139.87 120.984,139.865 113.603,140.14 C105.498,140.442 103,139.349 103,135.5 C103,131.757 105.595,130.493 112.542,130.85 C118.132,131.137 118.881,130.951 119.461,129.124 C119.818,127.997 119.615,126.149 119.009,125.016 C117.375,121.964 119.398,111.988 122.105,109.75 Z M109.75,187.08 C112.006,185.766 112.404,185.771 115.453,187.161 C118.869,188.717 118.901,194.021 115.526,199.5 C114.171,201.7 113.048,204.226 113.031,205.112 C113.014,205.999 111.628,208.451 109.952,210.561 C107.103,214.145 106.596,214.378 102.202,214.114 C98.035,213.864 94,211.863 94,210.047 C94,209.693 95.561,207.85 97.468,205.952 C99.376,204.053 100.951,201.728 100.968,200.785 C100.986,199.842 101.866,198.607 102.924,198.041 C104.901,196.983 108,191.705 108,189.396 C108,188.683 108.787,187.641 109.75,187.08 Z"/>
</svg>

