<svg xmlns="http://www.w3.org/2000/svg" width="300" height="300" viewBox="0 0 300 300" version="1.1">
  <defs/>
  <path d="M187.807,134.795 C189.611,132.316 190.528,132.529 192.999,135.998 C196.995,141.61 194.593,145.508 182.663,152.773 C174.015,158.039 168.288,161.99 166.636,163.831 C165.006,165.648 164.928,166.322 166.011,169.204 C167.49,173.141 170.081,187.382 170.017,191.227 C169.981,193.408 170.526,194.077 172.736,194.566 C174.256,194.902 177.525,195.781 180,196.518 C182.475,197.256 185.963,198.152 187.751,198.509 C189.539,198.867 192.914,200.163 195.251,201.389 C197.588,202.615 202.009,204.169 205.076,204.842 C208.143,205.515 212.304,206.951 214.322,208.033 C216.341,209.115 218.839,210 219.874,210 C222.422,210 228.014,212.412 233.989,216.088 C236.71,217.762 240.302,219.171 241.972,219.218 C243.642,219.266 245.511,219.911 246.126,220.652 C246.742,221.394 247.78,222 248.435,222 C249.089,222 251.621,222.986 254.062,224.191 C256.503,225.396 260.975,226.892 264,227.515 C269.369,228.62 269.507,228.734 269.81,232.309 C270.051,235.163 269.55,236.541 267.544,238.547 L264.97,241.121 L262.35,239.061 C260.909,237.927 258.519,237 257.039,237 C255.462,237 253.377,235.965 252,234.5 C250.708,233.125 248.774,232 247.701,232 C245.08,232 234.493,227.281 229.32,223.807 C227.021,222.263 224.63,221 224.008,221 C223.385,221 220.542,219.907 217.688,218.57 C214.835,217.234 209.575,215.396 206,214.486 C202.425,213.576 198.825,212.249 198,211.537 C197.175,210.826 195.15,209.991 193.5,209.682 C186.909,208.449 184.433,207.681 182.968,206.412 C182.126,205.682 179.426,204.954 176.968,204.793 L172.5,204.5 L172.182,208.379 C172.007,210.512 172.389,213.526 173.032,215.076 C173.698,216.686 174.213,223.173 174.232,230.198 C174.25,236.964 174.694,243.043 175.218,243.706 C175.743,244.37 175.834,245.46 175.42,246.129 C174.33,247.893 172.821,255.053 172.871,258.219 C172.895,259.715 172.021,262.96 170.928,265.429 C169.229,269.272 168.411,270.02 165.27,270.609 C161.805,271.259 161.34,271.017 157.049,266.335 C152.332,261.188 151.118,259.118 149.056,252.702 C147.778,248.726 148.757,246 151.462,246 C152.941,246 155,250.263 155,253.325 C155,256.398 157.716,260 160.034,260 C163.986,260 165.173,255.948 165.752,240.471 C166.278,226.418 165.172,216.191 162.839,213.55 C162.378,213.028 162,210.059 162,206.954 C162,203.678 161.298,199.899 160.327,197.954 C158.797,194.887 158.563,194.76 157.577,196.471 C156.985,197.5 155.131,199.952 153.459,201.921 C151.786,203.889 149.92,206.656 149.312,208.069 C148.705,209.482 146.473,212.726 144.354,215.277 C142.234,217.828 138.7,222.487 136.5,225.63 C134.3,228.773 131.488,232.371 130.25,233.627 C129.012,234.882 128,236.438 128,237.084 C128,237.731 124.963,241.247 121.25,244.898 C117.537,248.549 112.7,253.659 110.5,256.255 C108.3,258.85 105.671,260.979 104.658,260.986 C103.644,260.994 101.671,261.9 100.273,263 C97.449,265.221 94.845,265.522 91.934,263.965 C88.964,262.375 89.62,260.242 93.75,258.057 C98.553,255.515 102.637,251.647 112.285,240.497 C125.244,225.522 126,224.599 126,223.74 C126,223.285 128.138,220.269 130.75,217.039 C133.363,213.809 136.625,209.535 138,207.542 C139.375,205.549 141.891,202.024 143.59,199.709 C145.29,197.394 147.927,193.25 149.45,190.5 C150.973,187.75 153.52,183.565 155.109,181.2 C158.07,176.795 158.454,175.347 157.393,172.582 C156.537,170.351 155.724,170.564 150.827,174.302 C141.035,181.775 126.046,188.328 115.082,189.929 C105.798,191.285 103.227,190.661 101.008,186.515 C100.063,184.748 100.06,183.756 100.998,182.003 C102.039,180.058 102.76,179.832 106.36,180.326 C111.232,180.994 117.695,179.71 124,176.822 C136.843,170.94 147.003,165.804 147.552,164.917 C148.145,163.957 152.772,160.71 159.546,156.5 C166.135,152.405 174,146.694 174,146.003 C174,145.611 176.813,143.332 180.25,140.94 C183.688,138.548 187.088,135.783 187.807,134.795 Z M145.5,14.765 C146.961,13.692 147.802,13.824 150.418,15.539 C152.508,16.907 152.738,17.735 152.504,23.039 C152.172,30.565 153.74,30.879 159.966,24.535 C164.236,20.184 170.824,17 175.556,17 C178.474,17 180.656,19.68 184.476,27.957 C186.245,31.792 185.559,34.757 181.575,40.484 C180.434,42.125 179.05,44.819 178.5,46.471 C177.179,50.438 169.496,54.232 163.653,53.801 C160.409,53.562 159.25,52.939 158.046,50.785 C155.933,47.004 157.785,45.012 161.545,47.024 C164.719,48.723 167.343,47.418 167.835,43.898 C168.019,42.579 169.202,40.375 170.463,39 C173.901,35.251 175.375,31.975 174.166,30.766 C171.996,28.596 167.839,31.394 156.607,42.584 C143.357,55.785 140.323,59.472 139.84,62.959 C139.614,64.597 138.685,65.609 137.057,65.991 C134.651,66.555 132.992,70.381 131.294,79.281 C130.772,82.02 130.823,82.052 134.728,81.428 C137.658,80.959 139.696,81.309 142.548,82.773 C145.941,84.513 146.554,85.399 147.641,90.126 C148.748,94.938 148.674,95.925 146.938,99.566 C145.872,101.802 145,104.149 145,104.781 C145,105.413 143.732,107.409 142.182,109.215 C140.632,111.022 138.449,114.3 137.331,116.5 C132.803,125.409 131.739,127.107 128.93,129.916 C127.319,131.527 126,133.469 126,134.23 C126,135.641 123.771,138.589 117.191,145.884 C110.711,153.068 103.06,152.188 107.328,144.751 C108.248,143.149 109,141.203 109,140.427 C109,139.652 109.9,138.455 111,137.768 C112.1,137.081 113,135.727 113,134.759 C113,131.812 106.455,132.377 104.408,135.5 C102.138,138.965 97.807,138.881 95.479,135.328 C93.117,131.723 94.2,130.229 102.069,126.239 C105.606,124.446 110.975,121.442 114,119.564 C117.1,117.639 119.886,116.524 120.384,117.008 C121.437,118.032 116.492,126.874 114.422,127.668 C112.352,128.463 112.68,131 114.852,131 C116.943,131 126,120.085 126,117.566 C126,116.685 127.8,113.001 130,109.38 C132.2,105.758 134.003,102.504 134.006,102.148 C134.01,101.792 134.682,100.216 135.501,98.646 C136.32,97.076 136.74,95.389 136.436,94.896 C135.547,93.459 132.99,93.863 132.345,95.543 C132.02,96.391 129.957,98.002 127.762,99.122 C123.914,101.085 123.792,101.298 124.391,105.041 C124.924,108.377 124.694,109.103 122.756,110.195 C118.997,112.315 109.964,112.11 106.765,109.833 C102.876,107.063 103.031,102.993 107.159,99.52 C111.398,95.953 116,89.471 116,87.068 C116,85.995 116.45,84.84 117,84.5 C117.55,84.16 118,83.175 118,82.31 C118,81.446 119.463,78.649 121.25,76.094 C126.993,67.888 128.318,64.517 127.758,59.548 C127.215,54.729 122.977,48 120.484,48 C119.707,48 118.536,46.987 117.883,45.75 C117.23,44.513 115.415,42.177 113.848,40.56 C110.586,37.193 110.312,35.417 112.655,32.829 C115.623,29.549 118.136,30.654 125.734,38.579 C129.73,42.748 133,46.573 133,47.079 C133,47.586 133.812,48 134.804,48 C135.862,48 138.787,45.134 141.879,41.067 L147.15,34.133 L145.55,27.889 C144.67,24.455 143.457,21.05 142.853,20.323 C141.769,19.017 142.875,16.694 145.5,14.765 Z M60.038,53.454 C61.517,51.672 66.404,51.542 67.715,53.25 C68.242,53.938 69.702,57.313 70.959,60.75 C72.216,64.188 73.68,67 74.212,67 C74.745,67 76.365,65.65 77.813,64 C79.261,62.35 81.133,61.002 81.973,61.004 C83.993,61.009 90,64.705 90,65.943 C90,66.478 87.541,69.316 84.535,72.251 C81.518,75.197 78.096,79.789 76.895,82.505 C74.944,86.916 74.782,88.524 75.327,98.063 C75.662,103.914 76.407,109.941 76.983,111.456 C78.102,114.397 77.774,135.939 76.581,137.868 C75.593,139.468 76.782,141 79.012,141 C80.189,141 81.527,139.692 82.545,137.546 C84.813,132.767 86.587,131.412 88.5,133 C90.535,134.689 90.385,136.342 88,138.5 C86.9,139.495 85.986,141.028 85.968,141.905 C85.951,142.782 85.276,144.374 84.468,145.441 C83.661,146.509 83,148.01 83,148.778 C83,149.545 81.579,152.152 79.842,154.57 L76.684,158.968 L76.518,176.734 C76.427,186.505 76.77,195.345 77.28,196.379 C77.79,197.412 78.185,201.733 78.157,205.981 C78.118,212.027 77.639,214.497 75.955,217.352 C74.771,219.359 73.197,221 72.456,221 C71.716,221 69.235,219 66.944,216.555 C64.653,214.11 61.513,211.832 59.968,211.493 C58.422,211.154 55.999,209.802 54.583,208.489 C53.167,207.177 49.741,205.067 46.971,203.802 C43.1,202.033 41.999,201.039 42.217,199.51 C42.373,198.416 43.341,197.36 44.369,197.164 C46.088,196.836 53.638,200.011 56.866,202.419 C58.46,203.607 64.955,205.963 66.699,205.985 C67.587,205.996 67.912,201.194 67.951,187.5 C68.01,166.914 67.569,165.759 62.301,172.68 C56.847,179.845 53.399,183.266 44.5,190.343 C35.458,197.533 33.905,198.633 28.648,201.566 C25.939,203.077 25.674,203.042 23.356,200.865 C18.908,196.686 20.059,195.205 36,184.596 C37.925,183.315 45.917,176.294 53.761,168.993 L68.021,155.718 L67.59,134.109 C67.175,113.298 66.373,98.872 65.486,96.25 C64.831,94.314 63.403,94.744 59.918,97.928 C58.155,99.538 55.598,101.135 54.237,101.477 C52.875,101.819 50.127,103.382 48.13,104.951 C41.984,109.779 32.733,109.615 31.786,104.659 C31.355,102.404 32.024,101.83 38.905,98.556 C43.082,96.569 47.85,93.833 49.5,92.476 C51.15,91.12 53.027,90.008 53.67,90.005 C54.314,90.002 57.126,87.435 59.92,84.3 C65.075,78.517 66.148,75.15 64.085,71.236 C63.581,70.281 62.193,66.217 61,62.204 C59.282,56.426 59.082,54.606 60.038,53.454 Z M170.869,66.51 C175.403,64.046 178.789,64.604 180.958,68.171 C182.181,70.182 182.592,71.921 182.081,72.921 C181.638,73.79 181.002,77.252 180.667,80.616 C180.066,86.658 180.102,86.771 183.62,89.973 C186.428,92.528 187.774,93.095 189.979,92.654 C192.001,92.25 193.277,92.649 194.585,94.094 C195.58,95.194 197.993,96.785 199.947,97.63 C206.114,100.297 206.432,100.55 209.75,105.438 C213.664,111.204 213.716,111.936 210.457,115.452 C208.444,117.624 207.364,118.057 205.268,117.531 C201.397,116.559 197,113.133 197,111.087 C197,108.587 194.603,106.722 186.085,102.594 C180.739,100.003 177.334,99 173.885,99 C170.224,99 168.057,98.296 164.658,96.002 C162.214,94.353 159.972,92.37 159.675,91.596 C159.112,90.127 161.319,87.72 164.144,86.724 C165.049,86.405 166.948,84.624 168.365,82.766 L170.941,79.388 L168.943,75.349 C166.655,70.724 167.13,68.541 170.869,66.51 Z M164.5,114.538 C166.15,113.793 168.4,113.421 169.5,113.71 C171.9,114.342 175,116.925 175,118.293 C175,120.023 166.733,128.39 161.721,131.734 C159.054,133.513 155.188,136.776 153.128,138.984 C148.716,143.716 145.421,144.238 143.975,140.435 C143.439,139.024 143,136.931 143,135.783 C143,133.318 159.909,116.609 164.5,114.538 Z"/>
</svg>

