<svg xmlns="http://www.w3.org/2000/svg" width="300" height="300" viewBox="0 0 300 300" version="1.1">
  <defs/>
  <path d="M105,67.453 C108.805,65.287 110.637,65.677 114.946,69.571 C117.988,72.318 119.048,74.138 119.547,77.466 C120.268,82.275 118.913,93.613 116.972,99 C114.796,105.043 111.036,112.86 109.997,113.502 C109.449,113.841 109,116.279 109,118.919 C109,122.417 108.308,124.741 106.451,127.478 C105.048,129.544 104.147,131.481 104.448,131.782 C104.75,132.083 107.584,131.094 110.748,129.585 C124.864,122.851 133.654,119 134.908,119 C135.419,119 137.19,118.224 138.842,117.276 C141.712,115.629 141.94,115.636 143.923,117.431 C145.066,118.464 146,120.079 146,121.019 C146,123.19 141.246,128 139.1,128 C136.335,128 127.52,131.575 123.428,134.355 C121.287,135.81 118.853,137.007 118.018,137.015 C115.307,137.042 109.138,139.565 106.957,141.539 C105.787,142.598 103.089,144.373 100.963,145.482 C95.856,148.147 86.707,157.103 80.5,165.511 C77.75,169.237 73.362,174.627 70.75,177.489 C68.138,180.351 66,182.991 66,183.355 C66,184.956 59.7,192.504 56.986,194.155 C55.22,195.229 54,196.815 54,198.037 C54,199.399 53.05,200.435 51.215,201.075 C49.626,201.629 47.603,203.582 46.503,205.625 C45.443,207.593 42.736,210.846 40.489,212.852 C38.241,214.858 35.42,218.075 34.22,220 C32.215,223.217 6.304,248.698 1.906,251.779 C0.09,253.051 0,252.805 0,246.557 C0,241.509 0.332,240 1.443,240 C3.034,240 26.445,216.949 31.991,209.923 C33.911,207.49 38.686,202.125 42.602,198 C46.518,193.875 52.233,187.125 55.302,183 C61.665,174.446 63.281,172.453 69.483,165.5 C74.767,159.577 75.429,156.622 71.25,157.615 C69.737,157.975 67.79,158.883 66.921,159.634 C66.053,160.385 64.392,161 63.23,161 C62.069,161 60.871,161.399 60.57,161.887 C60.269,162.374 58.487,163.061 56.612,163.413 C54.736,163.765 52.642,164.726 51.959,165.549 C51.276,166.372 49.994,166.821 49.109,166.546 C48.224,166.272 43.45,167.193 38.5,168.594 C33.55,169.994 27.7,171.534 25.5,172.016 C23.3,172.498 20.26,173.195 18.744,173.564 C17.072,173.971 15.401,173.748 14.494,172.995 C10.132,169.375 15.978,162 23.211,162 C27.132,162 29.198,161.579 41,158.377 C48.392,156.371 64.116,150.482 71.5,146.954 C74.8,145.378 78.787,143.782 80.361,143.408 C83.479,142.666 89.039,136.108 94.074,127.231 C96.629,122.725 96.833,121.873 95.48,121.354 C94.555,120.999 92.913,121.673 91.524,122.978 C89.465,124.911 88.488,125.117 84.179,124.525 C79.235,123.845 79.21,123.823 79.257,120.171 C79.312,115.933 75.236,104.53 72.42,101.042 C71.364,99.733 68.875,96.827 66.889,94.582 C62.193,89.274 60.159,83.413 62.277,81.294 C63.234,80.337 64.565,80.044 65.954,80.485 C68.749,81.372 75,86.842 75,88.401 C75,89.057 76.732,91.285 78.848,93.352 L82.696,97.109 L88.098,94.708 C91.069,93.388 95.25,91.113 97.39,89.654 C99.976,87.889 102.599,87 105.219,87 C109.14,87 109.156,86.985 108.462,83.75 C108.078,81.963 107.566,80.162 107.323,79.75 C106.491,78.335 104.151,79.002 101.182,81.5 C99.548,82.875 97.618,84 96.893,84 C96.169,84 93.725,85.816 91.463,88.036 C88.644,90.803 86.822,91.869 85.667,91.426 C79.371,89.01 85.801,77.614 96.669,71.927 C99.876,70.249 103.625,68.236 105,67.453 Z M97.5,162.866 C103.309,160.774 109.085,160.485 110.8,162.2 C113.725,165.125 111,170.756 107.147,169.749 C103.848,168.886 102,170.789 102,175.05 C102,179.663 102.78,179.898 106.818,176.5 C108.452,175.125 110.456,174 111.272,174 C115.823,174 115.994,182.31 111.538,186.961 C108.868,189.747 108.128,194.524 110.25,195.276 C111.67,195.779 118.678,193.21 125.98,189.51 C130.293,187.325 131.275,187.162 133.71,188.233 C137.193,189.764 137.965,190.822 137.985,194.089 C138.002,196.972 135.703,198.427 129.339,199.559 C127.228,199.935 124.375,201.274 123,202.536 C121.625,203.798 119.375,204.981 118,205.165 C115.762,205.465 115.522,205.92 115.714,209.5 C116.09,216.502 117.076,223.436 117.99,225.5 C121.056,232.422 122.427,268.824 120.468,291.25 L119.703,300 L110.788,300 L111.561,290.75 C112.765,276.367 112.324,242.095 110.914,240.396 C110.262,239.611 109.118,234.813 108.372,229.734 C106.297,215.607 106.108,215 103.772,215 C102.634,215 99.243,217.025 96.236,219.5 C93.23,221.975 90,224 89.059,224 C88.118,224 86.292,225.125 85,226.5 C83.708,227.875 81.816,229 80.794,229 C79.773,229 78.683,229.663 78.371,230.474 C78.06,231.285 74.362,234.028 70.153,236.569 C63.044,240.861 62.322,241.092 60,239.813 C56.406,237.835 55.873,231.426 59.19,230.062 C70.579,225.378 78.122,221.005 84.737,215.25 C88.056,212.363 91.259,210 91.856,210 C92.452,210 93.935,208.655 95.151,207.01 C96.366,205.366 98.138,203.773 99.088,203.472 C101.433,202.728 102.305,200.072 100.801,198.26 C99.135,196.253 90.988,197.226 86.563,199.961 C82.564,202.433 80.248,202.534 77.829,200.345 C73.936,196.822 76.865,191 82.529,191 C85.718,191 95,186.562 95,185.037 C95,184.601 94.325,183.685 93.5,183 C92.675,182.315 92,180.958 92,179.985 C92,177.997 89.734,176.781 87.574,177.61 C85.528,178.395 82.638,173.578 83.381,170.62 C83.989,168.197 86.446,166.847 97.5,162.866 Z M116.452,7.765 C117.921,6.736 118.269,6.8 120.777,8.557 C123.74,10.632 123.877,16.46 121,18 C119.9,18.589 119,19.786 119,20.66 C119,21.934 119.647,22.108 122.25,21.536 C128.488,20.165 128.523,20.182 128.206,24.5 C127.981,27.566 127.164,29.136 124.706,31.223 C122.943,32.721 120.683,33.958 119.684,33.973 C116.707,34.017 114,35.938 114,38.008 C114,40.176 109.232,50.739 107.874,51.578 C107.393,51.875 106.998,53.329 106.996,54.809 C106.989,59.997 99.841,68.256 96.921,66.451 C95.54,65.597 96.374,56.226 97.973,54.627 C98.538,54.062 99,52.841 99,51.914 C99,50.987 99.663,48.95 100.474,47.388 C102.729,43.041 100.821,42.426 95.059,45.641 C89.95,48.492 89.936,48.515 89.961,53.5 C90,61.301 89.319,65.109 87.572,66.856 C84.21,70.219 81.412,65.739 81.103,56.5 C81.03,54.3 80.628,51.962 80.21,51.305 C79.792,50.648 76.345,49.614 72.551,49.008 C65.364,47.86 63.09,46.275 63.032,42.372 C62.981,39 65.675,37.589 72.355,37.487 L78.5,37.394 L78.201,34.447 C78.037,32.826 77.656,29.114 77.356,26.199 C76.66,19.454 77.503,16 79.845,16 C82.988,16 85.744,20.136 86.508,26 C87.576,34.2 89.638,35.669 95.669,32.524 C97.226,31.712 100.525,30.209 103,29.184 C107.267,27.418 107.597,26.989 109.374,20.911 C111.134,14.888 114.071,9.434 116.452,7.765 Z M105.5,151.359 C107.582,149.773 114.998,150.042 121.5,151.94 C123.15,152.422 127.2,153.577 130.5,154.508 C133.8,155.438 137.281,156.604 138.236,157.1 C139.191,157.595 140.433,158 140.996,158 C144.514,158 189.882,179.379 190.48,181.319 C190.68,181.968 191.134,184.238 191.488,186.361 L192.132,190.223 L188.316,189.65 C179.167,188.276 177.003,187.708 175.913,186.395 C175.276,185.628 173.907,185 172.871,185 C171.835,185 169.977,183.827 168.743,182.393 C167.51,180.959 163.114,178.137 158.975,176.121 C154.836,174.106 150.035,171.449 148.305,170.217 C146.575,168.985 142.761,167.27 139.83,166.406 C136.898,165.542 133.15,164.224 131.5,163.476 C129.85,162.729 125.125,161.446 121,160.624 C106.214,157.679 101.165,154.662 105.5,151.359 Z M24.498,264.003 C25.699,262.06 29.037,262.968 30,265.5 C30.523,266.875 31.53,268 32.238,268 C32.946,268 34.37,269.125 35.403,270.5 C36.435,271.875 37.877,273 38.606,273 C39.897,273 42.834,274.146 50,277.444 C54.023,279.296 55.936,280.397 61.5,284.065 C63.7,285.515 66.645,286.979 68.044,287.318 C69.443,287.657 72.593,289.743 75.044,291.953 C77.495,294.163 79.993,295.978 80.595,295.986 C81.197,295.994 82.505,296.9 83.5,298 C85.292,299.98 85.247,300 78.829,300 C73.21,300 72.037,299.668 70,297.5 C68.708,296.125 67.189,295 66.624,295 C65.011,295 45.234,285.188 44.521,284.034 C44.169,283.465 42.896,282.997 41.691,282.994 C40.486,282.99 38.211,282.315 36.636,281.494 C35.06,280.672 33.26,279.982 32.636,279.959 C32.011,279.937 30.097,278.7 28.382,277.209 C26.037,275.172 25.093,273.323 24.571,269.753 C24.19,267.142 24.157,264.555 24.498,264.003 Z M99,101.713 C96.721,102.556 89,109.006 89,110.067 C89,111.696 91.623,111.074 93.5,109 C94.495,107.9 95.938,107 96.705,107 C99.162,107 104,103.999 104,102.474 C104,101 101.824,100.668 99,101.713 Z"/>
</svg>

