<svg xmlns="http://www.w3.org/2000/svg" width="300" height="300" viewBox="0 0 300 300" version="1.1">
  <defs/>
  <path d="M158.772,119.714 C163.971,118.924 165.081,119.007 168.51,120.44 C173.927,122.703 178.839,127.141 180.487,131.26 C182.415,136.078 182.438,144.038 180.532,146.559 C179.724,147.626 179.049,149.711 179.032,151.191 C179.014,152.671 178.55,154.16 178,154.5 C177.45,154.84 177,156.19 177,157.5 C177,158.81 176.55,160.16 176,160.5 C175.45,160.84 175,161.959 175,162.986 C175,164.014 173.821,165.782 172.381,166.915 C170.358,168.506 169.88,169.592 170.28,171.687 C171.067,175.801 169.481,178.714 165.29,180.853 C158.655,184.239 156.923,187.713 156.64,198.206 C156.459,204.893 157.704,205.69 163.637,202.684 C171.413,198.744 184.879,193.807 185.986,194.492 C186.544,194.836 187,196.222 187,197.571 C187,200.287 181.717,204.138 170.138,209.863 C166.639,211.594 162.119,214.321 160.094,215.925 L156.413,218.841 L155.162,231.445 C154.475,238.377 154.14,244.418 154.419,244.869 C154.698,245.32 162.03,245.957 170.713,246.285 C188.159,246.944 204.513,248.394 219.044,250.57 C224.293,251.357 231.043,252.007 234.044,252.015 C241.986,252.036 244.5,253.602 244.5,258.53 L244.5,262.5 L236,262.182 C231.325,262.006 226.065,261.418 224.311,260.874 C222.557,260.33 218.057,259.694 214.311,259.461 C210.565,259.228 202.937,258.753 197.361,258.407 C190.994,258.011 186.53,258.164 185.362,258.817 C183.983,259.589 183.09,259.486 181.913,258.421 C180.716,257.338 176.207,256.866 163.588,256.505 C154.382,256.241 146.498,255.808 146.068,255.542 C144.913,254.828 122.966,257.703 115.742,259.515 C112.309,260.376 108.08,261.817 106.344,262.717 C103.409,264.239 103.007,264.235 100.594,262.654 C97.496,260.624 97.223,257.486 100.014,255.992 C104.231,253.735 121.945,249.112 132.538,247.503 L143.577,245.827 L144.788,239.44 C146.582,229.985 146.405,226 144.191,226 C143.196,226 141.509,226.661 140.441,227.468 C137.803,229.464 135.664,229.358 132.87,227.096 L130.518,225.191 L134.226,221.693 C136.266,219.77 139.637,217.364 141.717,216.348 L145.5,214.5 L146.678,205.539 C147.327,200.61 147.645,196.234 147.386,195.815 C147.127,195.396 145.361,194.316 143.462,193.415 C139.627,191.595 134.087,183.239 132.247,176.5 C131.647,174.3 130.187,169.125 129.003,165 C127.819,160.875 126.619,156.375 126.336,155 C126.052,153.625 124.72,150.092 123.375,147.148 C120.491,140.837 120.934,137.73 124.65,138.192 C126.43,138.413 127.789,139.769 129.47,143 C133.932,151.577 137,158.399 137,159.746 C137,160.49 137.779,162.539 138.73,164.3 C139.682,166.06 140.694,170.604 140.98,174.397 C141.353,179.34 141.972,181.59 143.166,182.339 C146.292,184.299 148,181.463 148,174.311 C148,168.931 147.576,167.31 145.43,164.498 C142.728,160.954 142.971,158.929 146.445,156.045 C148.664,154.204 148.571,147 146.329,147 C145.41,147 143.851,147.73 142.866,148.621 C140.891,150.409 138,149.849 138,147.68 C138,146.92 139.125,144.182 140.5,141.596 C141.875,139.01 143,136.338 143,135.658 C143,133.224 155.938,120.145 158.772,119.714 Z M67.2,75.2 C68.971,73.429 70.083,73.705 73.195,76.687 C75.873,79.252 76,79.795 76,88.628 C76,93.718 76.446,98.158 76.992,98.495 C77.537,98.832 79.747,97.69 81.902,95.958 C87.031,91.837 90,92.49 90,97.739 C90,100.88 89.102,102.222 83,108.205 L76,115.067 L76,136.475 C76,151.075 76.353,158.1 77.109,158.568 C78.253,159.274 82.495,155.014 83.522,152.128 C84.403,149.654 89.857,145.731 91.526,146.371 C94.834,147.641 92.124,154.239 82.291,168.846 C78.831,173.986 75.941,179.161 75.87,180.346 C75.798,181.531 75.662,185.887 75.567,190.027 C75.472,194.166 75.133,197.991 74.815,198.527 C74.496,199.062 74.295,208.14 74.368,218.7 C74.463,232.574 74.847,238.246 75.75,239.15 C78.003,241.403 77.141,243.965 73.555,245.675 L70.111,247.318 L64.057,241.713 C60.728,238.631 54.447,233.757 50.1,230.881 C44.834,227.399 42.377,225.182 42.737,224.242 C43.818,221.427 53.877,224.776 59.151,229.707 C60.609,231.07 62.634,232.025 63.651,231.829 C65.37,231.499 65.519,229.982 65.77,210.237 C65.918,198.557 65.768,189 65.437,189 C64.855,189 48.317,205.897 36.982,218.073 C33.051,222.296 30.737,224 28.932,224 C25.917,224 24,222.322 24,219.684 C24,217.163 32.089,206.949 40.01,199.469 C43.486,196.186 50.752,189 56.157,183.5 L65.983,173.5 L66.092,163.5 C66.317,142.998 65.813,127.47 64.894,126.522 C64.276,125.886 63.484,125.886 62.622,126.522 C53.478,133.28 45.668,135.856 42.038,133.314 C39.749,131.711 39.362,128.743 41.25,127.268 C41.938,126.73 43.967,125.797 45.76,125.194 C47.553,124.59 52.841,121.059 57.51,117.347 L66,110.597 L66,93.499 C66,81.533 66.36,76.04 67.2,75.2 Z M141.2,26.2 C141.86,25.54 143.124,25 144.009,25 C148.947,25 152.181,32.14 151.796,42.186 C151.654,45.863 151.872,49.205 152.28,49.613 C152.687,50.021 154.254,49.208 155.76,47.807 C157.267,46.405 159.85,44.444 161.5,43.447 C163.15,42.451 165.73,40.516 167.233,39.147 C169.891,36.727 170.02,36.709 171.983,38.484 C175.172,41.371 174.634,45.995 170.75,49.086 C168.962,50.509 166.433,52.241 165.129,52.936 C161.778,54.722 157,59.126 157,60.428 C157,61.032 158.012,61.97 159.25,62.513 C161.244,63.388 161.488,64.183 161.391,69.5 C161.176,81.31 159.463,87.064 154.601,92.302 C149.746,97.532 151.561,100.057 157.518,96.358 C163.485,92.653 185.929,82 187.767,82 C189.913,82 194,85.935 194,88 C194,90.18 190.351,93.361 186,94.974 C184.075,95.687 178.9,97.972 174.5,100.051 C170.1,102.13 164.412,104.776 161.86,105.931 C159.308,107.086 156.665,108.699 155.987,109.515 C155.31,110.332 154.264,111 153.663,111 C152.621,111 141.204,116.27 130.5,121.693 C127.75,123.086 123.118,125.057 120.208,126.073 C117.297,127.09 113.749,128.839 112.323,129.961 C108.965,132.602 106.494,132.544 104.557,129.777 C102.507,126.851 102.584,123.674 104.75,121.779 C105.713,120.937 110.55,118.789 115.5,117.006 C129.216,112.064 135.343,108.513 137.849,104.055 C140.154,99.953 140.619,96.501 139,95.5 C138.45,95.16 138,93.135 138,91 C138,88.865 137.55,86.84 137,86.5 C136.45,86.16 136,83.209 136,79.941 C136,74.456 135.827,73.998 133.75,73.968 C130.924,73.928 128.488,72.112 127.628,69.403 C126.669,66.383 130.161,62.455 136.45,59.48 C141.155,57.254 141.811,56.562 142.36,53.238 C143.554,46.017 143.097,36.325 141.5,35 C139.705,33.51 139.513,27.887 141.2,26.2 Z M159.073,132.635 C157.441,134.709 157,136.705 157,142.012 C157,150.561 158.22,151.908 164.179,149.941 C171.01,147.687 172.26,146.127 172.353,139.749 C172.455,132.676 170.414,130 164.918,130 C162.033,130 160.657,130.62 159.073,132.635 Z M145.114,66.551 C142.702,68.448 140.34,70 139.864,70 C139.389,70 139,70.45 139,71 C139,71.55 139.884,72 140.965,72 C143.679,72 145,74.947 145,81.004 C145,85.757 145.167,86.115 147.25,85.82 C148.916,85.583 149.588,84.721 149.838,82.5 C150.025,80.85 150.577,79.017 151.065,78.426 C151.554,77.835 152.253,74.122 152.62,70.176 C153.236,63.556 153.141,63.004 151.394,63.051 C150.352,63.08 147.526,64.655 145.114,66.551 Z M160.667,161.667 C160.3,162.033 160,164.091 160,166.24 C160,169.42 160.325,170.084 161.747,169.81 C163.246,169.522 166.807,164.007 166.952,161.75 C167.011,160.822 161.583,160.75 160.667,161.667 Z"/>
</svg>

