<svg xmlns="http://www.w3.org/2000/svg" width="300" height="300" viewBox="0 0 300 300" version="1.1">
  <defs/>
  <path d="M159.331,103.25 C160.497,101.655 164.651,101.626 165.627,103.206 C166.335,104.351 167.011,112.92 167.347,125 C167.496,130.365 167.568,130.495 170.289,130.306 C171.822,130.2 174.365,129.075 175.938,127.806 C177.512,126.538 181.073,123.925 183.853,122 C186.632,120.075 188.927,118.162 188.953,117.75 C189.037,116.4 194.503,116.964 196.777,118.557 C198,119.413 199,120.894 199,121.848 C199,124.318 190.859,132 188.242,132 C186.977,132 185.128,133.261 183.842,135 C182.622,136.65 180.827,138 179.854,138 C178.881,138 176.265,139.73 174.042,141.845 C170.62,145.1 169.971,146.366 169.814,150.095 C169.711,152.518 169.524,155.85 169.399,157.5 C169.273,159.15 169.087,165.365 168.985,171.31 C168.837,179.909 169.12,182.475 170.366,183.852 C171.227,184.804 175.435,186.402 179.716,187.404 C183.997,188.406 188.85,189.661 190.5,190.192 C192.15,190.724 195.75,191.548 198.5,192.022 C205.623,193.251 210.329,194.432 219.926,197.397 C224.561,198.829 229.629,200 231.19,200 C232.75,200 234.921,200.45 236.014,201 C237.106,201.55 238.894,202.45 239.986,203 C241.079,203.55 243.007,204 244.271,204 C245.535,204 249.207,204.927 252.431,206.06 C255.654,207.193 259.689,207.981 261.396,207.81 C263.414,207.608 264.465,207.937 264.4,208.75 C264.345,209.438 264.233,211.563 264.15,213.474 C264.028,216.295 263.402,217.258 260.821,218.592 C256.626,220.762 249.101,219.898 244.744,216.746 C241.111,214.118 235.487,212 232.144,212 C230.926,212 228.933,211.378 227.715,210.618 C226.497,209.858 223.475,208.95 221,208.599 C217.03,208.038 214.264,207.046 207.764,203.853 C206.809,203.384 203.884,202.995 201.264,202.988 C198.644,202.982 194.025,202.275 191,201.419 C187.975,200.562 183.963,199.473 182.083,198.998 C180.204,198.524 177.16,197.324 175.318,196.332 C169.96,193.447 168.654,195.017 168.467,204.57 C168.382,208.932 167.986,213.242 167.588,214.149 C167.189,215.056 167.344,216.095 167.932,216.458 C169.304,217.306 169.319,222.281 167.954,223.646 C167.315,224.285 166.743,233.412 166.483,247.096 C166.25,259.418 166.016,271.525 165.964,274 C165.911,276.475 166.053,281.403 166.278,284.952 C166.64,290.652 166.42,291.671 164.389,293.702 C160.747,297.344 158.398,296.688 156.047,291.373 C154.921,288.828 154,285.93 154,284.932 C154,283.934 153.627,282.887 153.171,282.606 C152.715,282.324 151.747,279.613 151.02,276.581 C149.55,270.455 150.332,268.378 154.323,267.81 C156.315,267.526 156.557,266.737 157.172,258.5 C157.541,253.55 158.146,237.103 158.516,221.951 C159.104,197.888 158.995,194.241 157.658,193.131 C155.466,191.312 152.186,193.312 150.417,197.544 C149.639,199.405 148.136,201.392 147.077,201.959 C146.017,202.526 144.023,205.355 142.647,208.245 C141.27,211.135 138.04,215.525 135.47,218 C132.899,220.475 128.753,225.573 126.256,229.329 C123.759,233.085 120.682,236.551 119.418,237.031 C118.155,237.511 116.656,238.774 116.087,239.837 C115.518,240.9 113.946,242.048 112.593,242.387 C111.24,242.727 109.846,243.909 109.496,245.013 C109.145,246.118 107.029,247.905 104.794,248.986 C101.46,250.596 99.989,250.778 96.615,249.999 C94.352,249.476 91.064,249.038 89.309,249.024 C85.163,248.993 84.679,248.012 86.573,243.479 C88.11,239.801 88.197,239.755 92.556,240.353 C94.988,240.686 98.039,240.556 99.334,240.063 C104.668,238.035 124.731,216.894 131.5,206.169 C132.05,205.297 133.063,203.971 133.75,203.221 C134.438,202.471 135,201.293 135,200.603 C135,199.913 136.125,198.292 137.5,197 C138.875,195.708 140,194.125 140,193.481 C140,192.837 140.9,191.495 142,190.5 C143.1,189.505 144,188.233 144,187.674 C144,187.115 144.636,185.947 145.414,185.079 C147.552,182.691 153.99,169.735 153.995,167.809 C153.998,166.879 154.45,165.84 155,165.5 C155.55,165.16 156.014,163.446 156.032,161.691 C156.049,159.936 156.724,157.626 157.532,156.559 C159.223,154.323 159.485,151 157.971,151 C157.406,151 154.13,153.137 150.693,155.75 C141.954,162.391 138.197,165 137.369,165 C136.978,165 135.947,165.628 135.079,166.395 C132.001,169.113 119.539,175 116.861,175 C113.754,175 111,172.689 111,170.082 C111,167.779 114.29,164 116.295,164 C118.088,164 137.217,154.267 138.04,152.936 C138.34,152.45 140.413,151.029 142.647,149.776 C144.881,148.524 149.25,145.573 152.355,143.218 L158,138.937 L157.992,130.718 C157.988,126.198 157.513,119.592 156.937,116.039 C155.899,109.643 156.326,107.36 159.331,103.25 Z M62.807,60.75 C65.423,57.704 70,58.895 70,62.621 C70,63.944 70.422,65.809 70.939,66.764 C71.455,67.719 72.242,73.447 72.689,79.492 C73.343,88.358 73.81,90.543 75.1,90.787 C75.98,90.953 79.702,88.369 83.37,85.044 C87.038,81.72 90.426,79 90.897,79 C92.31,79 93.68,81.298 94.338,84.77 C94.866,87.553 94.452,88.576 91.561,91.642 C89.692,93.623 85.764,96.44 82.832,97.901 C78.373,100.124 77.453,101.045 77.215,103.529 C77.058,105.163 76.479,107.401 75.928,108.503 C75.377,109.605 75.089,114.886 75.289,120.239 C75.525,126.58 75.195,131.284 74.341,133.736 C73.62,135.806 73.023,138.963 73.015,140.75 C73.003,143.35 73.404,144 75.021,144 C76.264,144 77.513,142.941 78.263,141.25 C78.934,139.738 80.5,137.38 81.742,136.01 C82.984,134.641 84,133.178 84,132.76 C84,132.342 84.645,132 85.434,132 C86.223,132 88.135,130.122 89.684,127.827 C92.821,123.178 94.471,122.179 95.327,124.41 C96.225,126.749 91.534,137.135 88.623,139.256 C87.18,140.307 86,141.735 86,142.428 C86,143.122 85.1,144.505 84,145.5 C82.9,146.495 82,147.834 82,148.474 C82,149.115 80.207,152.042 78.015,154.98 C72.773,162.005 72.746,162.19 71.502,199.5 C71.172,209.4 70.587,220.857 70.201,224.961 L69.5,232.422 L65.603,233.903 C61.767,235.36 61.672,235.339 59.603,232.61 C58.446,231.085 56.249,228.476 54.721,226.812 C53.192,225.149 51.323,222.598 50.566,221.144 C49.809,219.69 48.022,217.409 46.595,216.076 C45.168,214.742 44,212.896 44,211.972 C44,209.089 39.321,205.078 34.435,203.771 C31.86,203.083 29.515,201.84 29.224,201.01 C28.934,200.179 28.068,198.765 27.299,197.868 C25.297,195.528 26.622,191.47 30.359,188.491 C40.394,180.495 41.554,179.422 51.279,169.155 C52.5,167.865 55.794,164.598 58.598,161.895 C63.417,157.249 63.699,156.695 63.77,151.74 C63.811,148.858 64.067,144.25 64.339,141.5 C64.777,137.081 65.29,115.633 65.079,110.619 C65.012,109.026 64.449,108.828 61.394,109.324 C59.41,109.645 56.022,110.829 53.863,111.954 C51.705,113.079 48.882,114 47.591,114 C46.3,114 43.629,114.675 41.654,115.5 C37.35,117.299 28.875,117.475 27.2,115.8 C25.264,113.864 25.807,110.167 28.25,108.639 C29.488,107.865 33.508,106.945 37.184,106.595 C46.877,105.671 58.675,101.24 62.386,97.131 C62.728,96.752 63.012,96.458 63.237,96.124 C64.324,94.51 64.042,91.974 62.398,74.5 C62.036,70.65 61.31,66.957 60.784,66.294 C59.787,65.036 60.275,63.698 62.807,60.75 Z M138.667,8.667 C140.898,6.435 150.242,9.869 149.924,12.803 C149.823,13.737 150.08,15.962 150.495,17.75 C151.328,21.334 153.848,22.093 156.061,19.427 C157.859,17.26 164.464,14 167.056,14 C168.23,14 170.498,14.931 172.096,16.068 C174.82,18.008 175,18.563 175,25.021 C175,28.808 174.608,32.94 174.128,34.203 C171.525,41.059 170.723,45.049 170.818,50.665 C170.923,56.773 170.849,56.951 166.96,60.032 C164.779,61.759 162.709,64.371 162.36,65.836 C161.323,70.184 160.367,70.798 155.91,69.984 C153.671,69.574 151.342,68.742 150.734,68.134 C150.126,67.526 149.498,63.48 149.339,59.144 C149.18,54.808 148.524,49.964 147.882,48.38 C147.24,46.796 146.571,43.514 146.395,41.088 C146.219,38.661 145.608,36.208 145.038,35.638 C144.467,35.067 143.997,33.002 143.994,31.05 C143.99,29.097 143.315,26.211 142.494,24.636 C141.672,23.06 141,21.199 141,20.5 C141,19.801 140.328,17.94 139.506,16.364 C137.933,13.348 137.545,9.788 138.667,8.667 Z M187,73.528 C191.125,71.142 194.962,69.146 195.528,69.094 C196.093,69.043 197.443,70.013 198.528,71.25 C203.76,77.219 204.655,87.141 200.458,92.644 C198.376,95.373 198.115,96.346 199.012,98.022 C199.614,99.147 199.97,102.19 199.803,104.784 C199.521,109.169 199.308,109.503 196.764,109.546 C195.042,109.575 192.861,110.786 190.881,112.81 C185.652,118.159 183.393,118.142 177.022,112.709 C174.261,110.355 173.692,109.12 173.392,104.832 C173.196,102.036 172.629,99.242 172.133,98.624 C171.637,98.006 170.928,95.925 170.557,94 C169.911,90.644 168.78,87.492 166.883,83.764 C164.014,78.124 170.15,71.861 174,76.5 C175.966,78.869 178.946,78.188 187,73.528 Z M133,92.121 C138.727,85.759 142.37,84.331 144.95,87.44 C145.607,88.232 147.125,89.019 148.323,89.19 C149.948,89.421 150.461,90.134 150.347,92 C150.263,93.375 150.647,96.383 151.2,98.685 C152.014,102.074 151.9,103.305 150.602,105.157 C149.721,106.416 149,108.103 149,108.907 C149,109.711 148.132,112.198 147.071,114.434 C146.011,116.67 144.629,120.464 144.002,122.865 C142.723,127.758 139.079,132 136.154,132 C131.799,132 120,119.509 120,114.898 C120,113.791 118.028,110.064 115.617,106.615 C110.503,99.298 109.166,94.937 111.455,93.038 C113.81,91.083 118.127,93.335 120.502,97.757 C122.781,102 125.234,102.968 126.579,100.156 C127.086,99.097 129.975,95.481 133,92.121 Z M56.415,178.25 C51.643,184.921 46.925,190 45.5,190 C44.27,190 37.384,196.772 38.068,197.309 C38.306,197.496 40.188,198.423 42.25,199.371 C44.313,200.319 46,201.434 46,201.85 C46,202.265 47.751,204.382 49.892,206.553 C52.032,208.724 54.658,212.075 55.728,214 C58.926,219.757 60.499,218.604 60.503,210.5 C60.505,206.65 61.068,202.517 61.753,201.316 C63.047,199.05 63.559,177.621 62.393,174.582 C61.421,172.05 60.404,172.674 56.415,178.25 Z M183.25,88.119 C180.691,88.858 180,89.593 180,91.578 C180,97.362 185.25,102.673 186.595,98.25 C186.888,97.287 187.831,95.062 188.692,93.305 C190.35,89.918 189.913,86.94 187.781,87.09 C187.077,87.14 185.037,87.603 183.25,88.119 Z M160.837,29.25 C156.301,32.921 154.771,38.795 157.436,42.31 C158.518,43.737 158.986,43.843 159.649,42.81 C161.728,39.57 163,36.639 163,35.086 C163,34.159 163.51,32.89 164.133,32.267 C165.322,31.078 164.665,28 163.223,28 C162.76,28 161.687,28.563 160.837,29.25 Z M134.163,107.75 C130.893,111.657 130.314,113.458 131.992,114.495 C133.77,115.594 136.236,113.355 137.617,109.386 C139.975,102.613 138.892,102.1 134.163,107.75 Z"/>
</svg>

