<svg xmlns="http://www.w3.org/2000/svg" width="300" height="300" viewBox="0 0 300 300" version="1.1">
  <defs/>
  <path d="M140.5,107.805 C145.118,105.637 154.282,106.041 157.037,108.533 C157.928,109.34 159.152,110 159.755,110 C161.764,110 163.843,115.754 163.299,119.808 C162.959,122.343 163.352,124.78 164.441,126.886 C166.023,129.944 166.004,130.258 164.051,133.417 C162.923,135.243 162,138.289 162,140.188 C162,142.623 161.264,144.279 159.5,145.813 C157.712,147.368 157,148.997 157,151.533 C157,158.066 150.059,168.004 146.46,166.623 C145.547,166.273 143.639,166.828 142.159,167.875 C140.697,168.909 137.483,170.093 135.018,170.505 C131.547,171.085 129.687,172.184 126.768,175.377 C124.696,177.644 123,180.367 123,181.429 C123,184 121.158,189.659 118.864,194.136 C117.839,196.136 117.004,198.161 117.009,198.636 C117.013,199.111 120.219,202.849 124.131,206.943 C130.829,213.951 131.323,214.272 132.576,212.443 C135.326,208.431 145.18,200.217 151.679,196.52 C155.233,194.498 160.358,190.785 162.364,188.778 C163.21,187.933 165.56,186.93 167.586,186.55 C170.922,185.924 171.636,186.215 175.12,189.617 C180.153,194.532 181.419,198.585 180.616,207.22 C180.138,212.368 179.149,215.584 176.737,219.839 C171.196,229.613 168.839,233.016 166.886,234.061 C165.849,234.616 165,235.73 165,236.535 C165,238.688 167.759,238.319 169,236 C170.517,233.166 174.435,233.497 177.885,236.75 C180.387,239.109 180.728,240.044 180.283,243.321 C179.845,246.547 179.043,247.596 175.132,250.052 C170.404,253.022 166.606,253.79 165.5,252 C164.719,250.736 152.317,250.677 151.541,251.934 C151.223,252.448 149.397,252.614 147.482,252.303 C145.324,251.953 144,252.145 144,252.808 C144,254.617 135.84,255.152 131,253.66 C126.885,252.391 126.528,252.026 126.829,249.386 C127.009,247.799 127.909,245.784 128.829,244.91 C130.927,242.913 140.188,240 144.437,240 C147.142,240 148.928,238.685 155.823,231.622 C160.506,226.824 164,222.395 164,221.257 C164,220.164 164.816,218.197 165.814,216.885 C168.968,212.739 171,207.337 171,203.099 C171,199.238 170.831,199 168.085,199 C165.1,199 162.081,201.022 156.516,206.75 C154.779,208.538 152.921,210 152.387,210 C151.853,210 149.429,212.025 147,214.5 C143.521,218.045 141.878,219 139.26,219 C134.747,219 134.183,221.167 137.423,226.063 L140.078,230.076 L136.979,233.175 L133.879,236.275 L130.373,232.887 C128.445,231.024 125.902,227.925 124.722,226 C123.542,224.075 120.759,220.549 118.538,218.164 C116.317,215.78 114.14,213.192 113.7,212.414 C112.547,210.375 109.007,210.626 108.968,212.75 C108.951,213.713 108.276,215.374 107.468,216.441 C106.661,217.509 106,219.262 106,220.338 C106,221.414 104.425,224.216 102.5,226.565 C100.575,228.915 99,231.366 99,232.014 C99,232.661 98.182,234.386 97.182,235.846 C95.134,238.835 91,248.624 91,250.484 C91,251.154 89.948,253.682 88.662,256.101 C87.377,258.52 85.562,262.798 84.63,265.606 C83.697,268.415 81.824,271.756 80.467,273.031 C78.885,274.517 77.998,276.452 77.995,278.424 C77.991,280.815 76.658,282.893 72.014,287.75 C68.727,291.188 65.41,294 64.642,294 C62.481,294 60.872,291.462 60.292,287.14 C59.838,283.754 60.108,282.975 62.219,281.592 C64.692,279.972 69.267,273.475 72.496,267 C73.456,265.075 74.774,262.825 75.425,262 C77.034,259.963 84,243.463 84,241.69 C84,240.909 84.924,239.096 86.053,237.66 C87.181,236.225 88.282,234.252 88.498,233.276 C89.493,228.774 90.95,225.064 93.715,219.992 C98.738,210.776 100.683,206.676 102.012,202.5 C102.712,200.3 104.121,197.427 105.142,196.115 C106.164,194.803 107.008,193.003 107.018,192.115 C107.028,191.227 108.378,188.52 110.018,186.1 C111.658,183.679 113,180.472 113,178.972 C113,177.472 113.631,175.722 114.401,175.082 C115.172,174.442 116.769,170.225 117.949,165.709 C120,157.863 120.518,156.357 123.527,149.5 C124.251,147.85 125.083,144.475 125.376,142 C125.67,139.525 126.213,135.601 126.583,133.279 C127.054,130.32 126.782,128.061 125.671,125.72 C124.8,123.884 124.337,121.428 124.642,120.261 C125.269,117.863 134.471,110.635 140.5,107.805 Z M56.456,58.072 C57.415,56.52 61.208,56.757 63.734,58.527 C65.783,59.962 65.907,60.783 65.795,72.223 C65.663,85.708 66.235,86.88 70.722,82.331 C72.25,80.781 74.954,79.004 76.731,78.381 C81.001,76.885 82.381,78.447 81.404,83.674 C80.863,86.57 79.14,89.028 74.316,93.786 C69.174,98.857 67.932,100.693 67.891,103.286 C67.72,113.931 67.223,126.047 66.515,136.85 C65.864,146.777 65.969,149.363 67.049,150.03 C69.1,151.298 71.778,149.356 74.009,144.983 C75.29,142.471 76.948,140.8 78.559,140.396 C82.015,139.528 82.515,140.352 81.197,144.745 C80.577,146.81 79.795,149.524 79.459,150.777 C79.123,152.029 77.734,153.783 76.373,154.675 C73.607,156.487 71,160.913 71,163.795 C71,164.837 70.147,166.462 69.104,167.405 C66.653,169.624 66.007,174.415 65.889,191.255 C65.836,198.82 65.388,205.26 64.893,205.566 C64.398,205.872 64.219,207.107 64.497,208.311 C65.501,212.672 65.811,238.485 64.88,240.224 C64.357,241.201 63.101,242 62.087,242 C61.074,242 59.685,242.675 59,243.5 C58.315,244.325 57.058,245 56.206,245 C53.894,245 51,241.98 51,239.567 C51,238.226 48.788,235.498 44.991,232.156 C39.121,226.989 35.451,221.882 36.707,220.627 C38.321,219.012 42.12,220.353 46.263,224 C48.762,226.2 51.285,228 51.868,228 C54.343,228 55.029,223.219 55.259,204.384 C55.514,183.511 54.841,180.489 51.429,187.186 C50.501,189.009 47.662,192.763 45.121,195.528 C42.579,198.294 37.586,204.031 34.025,208.278 C29.694,213.442 26.847,216 25.43,216 C24.264,216 22.495,216.9 21.5,218 C19.163,220.582 13.884,220.635 11.589,218.098 C9.1,215.348 9.735,208.432 12.454,208.673 C17.395,209.11 28.679,199.871 42.231,184.294 C56.255,168.175 56.121,168.534 56.414,146.141 C56.534,136.936 56.953,128.885 57.346,128.25 C57.738,127.615 57.618,124.354 57.078,121.003 C56.538,117.653 56.287,114.369 56.52,113.706 C56.753,113.043 56.28,111.625 55.47,110.556 C54.037,108.666 53.904,108.7 50.7,111.806 C48.857,113.592 46.324,115.014 44.952,115.032 C43.604,115.049 41.626,115.724 40.559,116.532 C39.491,117.339 37.549,118 36.243,118 C34.937,118 32.916,118.51 31.751,119.133 C29.974,120.084 29.342,119.906 27.817,118.022 C25.975,115.747 25.503,112.458 26.607,109.582 C27.032,108.474 28.521,108 31.576,108 C36.226,108 42.367,105.356 47.679,101.067 C49.427,99.655 51.855,97.801 53.074,96.947 C55.207,95.452 55.3,94.708 55.542,77.268 C55.68,67.3 56.091,58.661 56.456,58.072 Z M139.669,13.474 C142.111,11.031 145.647,11.696 148.032,15.045 C150.129,17.99 150.148,18.252 148.6,22.983 C147.72,25.674 147,28.543 147,29.358 C147,30.174 145.448,33.914 143.551,37.67 C141.654,41.427 139.799,46.84 139.429,49.7 C138.766,54.816 138.802,54.911 141.628,55.567 C144.377,56.206 162.107,66.873 170.5,72.938 C176.811,77.499 197.736,91 198.494,91 C198.871,91 201.683,93.232 204.743,95.959 C207.803,98.686 211.807,101.63 213.64,102.499 C215.473,103.369 217.387,104.85 217.893,105.791 C218.399,106.731 223.176,110.195 228.508,113.488 C238.38,119.586 241.576,122.829 243.681,128.885 C244.659,131.7 244.592,132.693 243.289,134.682 C241.063,138.079 238.498,139.184 234.555,138.444 C230.589,137.7 229.558,135.959 231.537,133.347 C232.307,132.331 232.951,131.181 232.968,130.79 C233.018,129.683 227.659,125 226.342,125 C225.213,125 218.884,119.839 214.554,115.389 C213.424,114.228 211.438,112.944 210.139,112.537 C208.841,112.129 206.141,110.354 204.139,108.593 C202.138,106.832 198.242,103.767 195.482,101.781 C192.722,99.795 189.615,97.232 188.577,96.085 C187.539,94.938 185.94,94 185.023,94 C184.106,94 181.589,92.663 179.428,91.028 C177.268,89.393 174.927,88.043 174.228,88.028 C173.528,88.013 171.053,86.249 168.728,84.108 C166.402,81.968 161.8,78.845 158.5,77.168 C155.2,75.492 150.949,72.518 149.054,70.56 C147.158,68.602 145.084,67 144.443,67 C143.803,67 141.596,65.858 139.538,64.461 C136.584,62.456 135.5,62.17 134.38,63.099 C132.136,64.962 129.719,70.816 130.29,73.003 C130.577,74.1 130.392,75.258 129.878,75.576 C128.147,76.645 119.233,95.661 118.54,99.761 C118.163,101.994 116.987,104.607 115.927,105.566 C114.867,106.525 114,108.109 114,109.086 C114,111.412 105.302,129.504 103.441,131.049 C102.648,131.707 102,133.533 102,135.107 C102,136.682 100.65,140.164 99,142.846 C97.35,145.527 95.993,148.346 95.985,149.111 C95.961,151.353 93.642,157.299 91.75,159.973 C90.788,161.332 90,163.625 90,165.068 C90,166.51 89.169,168.442 88.153,169.361 C87.138,170.28 85.772,172.817 85.119,174.999 C84.465,177.18 82.373,180.66 80.47,182.732 C78.567,184.805 77.007,187.063 77.005,187.75 C76.998,189.531 73.984,189.296 71.829,187.345 C69.351,185.102 69.53,182.126 72.327,179.055 C73.607,177.65 75.274,174.475 76.033,172 C77.764,166.347 84.792,151.246 86.055,150.466 C86.575,150.145 87,149.051 87,148.035 C87,146.44 88.261,143.423 92.134,135.75 C92.62,134.787 94.084,131.187 95.388,127.75 C96.691,124.312 99.568,118.019 101.78,113.764 C103.993,109.51 107.471,101.185 109.51,95.264 C111.548,89.344 114.068,83.012 115.108,81.193 C116.149,79.374 117,77.193 117,76.347 C117,75.501 117.629,73.614 118.397,72.154 C121.895,65.509 126,56.118 126,54.762 C126,53.941 126.9,52.126 128,50.727 C129.1,49.329 130,47.045 130,45.651 C130,44.258 130.45,42.84 131,42.5 C131.55,42.16 132,41.045 132,40.022 C132,38.999 132.63,36.888 133.4,35.331 C135.372,31.344 136.731,26.358 137.518,20.224 C137.89,17.322 138.858,14.285 139.669,13.474 Z M143.508,81.987 C144.207,80.856 145.537,80.769 148.79,81.641 C151.629,82.401 154.564,87.616 153.127,89.347 C152.577,90.009 151.987,92.785 151.814,95.516 C151.566,99.442 151.106,100.557 149.617,100.84 C148.045,101.139 147.84,100.772 148.38,98.621 C148.927,96.442 148.631,95.946 146.458,95.4 C144.596,94.933 143.268,95.339 141.63,96.878 C139.92,98.485 138.096,99 134.12,99 C127.319,99 125,97.733 125,94.016 C125,90.254 129.462,86.811 137.199,84.601 C140.334,83.706 143.173,82.53 143.508,81.987 Z M141.394,141.942 C131.999,152.486 133.733,165.404 143.495,157.594 C146.369,155.294 146.419,155.121 144.745,153.27 C142.352,150.626 142.483,150.114 146.634,145.863 C150.675,141.725 150.637,139 146.539,139 C145.007,139 142.986,140.156 141.394,141.942 Z M143.77,118.966 C141.122,121.049 138.301,126.634 139.361,127.695 C139.708,128.041 141.14,127.802 142.543,127.162 C143.946,126.523 146.922,126 149.155,126 C153.086,126 153.195,125.911 152.53,123.25 C151.741,120.087 149.246,117 147.48,117 C146.814,117 145.145,117.885 143.77,118.966 Z"/>
</svg>

