<svg xmlns="http://www.w3.org/2000/svg" width="300" height="300" viewBox="0 0 300 300" version="1.1">
  <defs/>
  <path d="M197,132.568 C201.583,129.43 202.612,129.458 205.969,132.815 C208.206,135.052 208.857,136.725 209.142,140.97 C209.386,144.619 209.104,146.446 208.25,146.739 C207.563,146.974 207,146.509 207,145.706 C207,144.902 206.341,143.698 205.535,143.029 C204.365,142.058 203.51,142.184 201.281,143.657 C199.747,144.671 197.593,145.992 196.496,146.592 C194.046,147.933 191.635,152.607 192.385,154.561 C192.765,155.55 194.516,156 197.993,156 C202.501,156 203.155,156.278 204.025,158.565 C205.88,163.443 205.197,166.5 201.5,169.864 C199.349,171.821 198,173.977 198,175.459 C198,176.785 197.59,178.949 197.088,180.268 C196.58,181.605 196.553,183.276 197.027,184.044 C198.137,185.84 201.211,183.177 204.231,177.802 C205.407,175.711 206.705,174 207.117,174 C207.528,174 208.18,172.988 208.564,171.75 C208.948,170.512 210.151,168.239 211.237,166.698 C212.94,164.28 213.779,163.937 217.355,164.198 C221.453,164.497 221.503,164.547 221.805,168.701 C221.999,171.372 221.508,173.821 220.457,175.426 C218.068,179.072 206.972,190.295 203.766,192.308 C202.262,193.253 200.738,195.257 200.378,196.763 C200.018,198.268 199.282,200.062 198.74,200.749 C198.085,201.581 198.17,202.996 198.994,204.985 C199.732,206.768 199.947,209.288 199.527,211.236 C199.14,213.031 198.601,217.292 198.328,220.705 C197.862,226.552 198.021,227.143 201.084,230.955 C202.872,233.18 204.952,235 205.707,235 C206.462,235 208.901,235.929 211.127,237.065 C215.16,239.122 220.268,239.253 239,237.776 C243.927,237.388 254.934,233.107 258.5,230.192 C264.471,225.313 265.321,222.191 265.53,204.382 C265.634,195.516 266.028,187.763 266.406,187.152 C266.784,186.541 266.575,185.075 265.943,183.894 C265.083,182.286 265.08,181.12 265.932,179.251 C266.84,177.257 266.754,176.273 265.505,174.367 C263.319,171.031 265.074,167.758 268.817,168.19 C271.405,168.489 271.51,168.743 271.786,175.383 C271.943,179.168 272.53,183.123 273.091,184.17 C273.652,185.218 273.824,186.98 273.473,188.086 C273.122,189.191 273.317,190.677 273.906,191.387 C274.496,192.097 274.909,194.438 274.826,196.589 C274.742,198.74 275.033,204.373 275.473,209.107 C276.042,215.231 275.945,217.916 275.137,218.416 C274.511,218.802 274,221.065 274,223.445 C274,229.067 272.554,231.687 265.762,238.371 C262.021,242.053 258.814,244.242 256.083,244.978 C253.838,245.582 252,246.447 252,246.9 C252,248.044 241.64,249.192 228,249.56 C219.214,249.798 215.97,249.527 214.254,248.415 C212.929,247.556 210.999,247.213 209.545,247.578 C207.183,248.171 198.959,245.767 196.223,243.683 C195.521,243.148 193.546,240.638 191.833,238.105 C188.918,233.792 188.689,232.787 188.221,222.257 C187.675,209.958 186.888,208.183 182.808,210.042 C178.823,211.857 177.703,214.525 179.482,217.965 C180.317,219.58 181,222.471 181,224.391 C181,226.311 181.45,228.16 182,228.5 C182.55,228.84 183,230.626 183,232.47 C183,234.986 182.232,236.468 179.923,238.411 C178.231,239.835 176.008,241 174.982,241 C173.957,241 172.84,241.45 172.5,242 C172.16,242.55 171.064,243 170.063,243 C169.063,243 167.685,243.675 167,244.5 C166.214,245.447 164.008,246 161.012,246 C157.911,246 155.444,246.643 153.885,247.859 C152.241,249.141 148.86,249.956 143,250.482 C138.325,250.901 132.738,251.408 130.585,251.608 C128.432,251.808 126.182,251.589 125.585,251.122 C124.988,250.655 122.986,250.286 121.136,250.303 C116.663,250.343 109.307,246.232 108.139,243.04 C106.224,237.806 104.835,228.691 105.452,225.404 C106.059,222.17 105.946,222 103.2,222 C101.58,222 99.515,222.879 98.5,224 C97.505,225.1 96.101,226 95.38,226 C94.66,226 93.608,226.864 93.043,227.92 C92.478,228.976 90.491,230.343 88.629,230.958 C86.766,231.572 84.443,232.958 83.466,234.038 C80.562,237.246 75,236.072 75,232.25 C75,230.287 81.08,224.338 85.742,221.741 C95.774,216.152 101.039,212.752 101.818,211.36 C102.282,210.531 103.75,209.312 105.081,208.65 C107.305,207.544 107.523,206.784 107.79,199.224 C108.054,191.76 107.909,191 106.215,191 C105.188,191 103.344,192.069 102.116,193.376 C96.763,199.074 85.534,196.441 86.195,189.642 C86.464,186.868 86.968,186.399 90.5,185.636 C97.119,184.206 102.961,181.617 106.036,178.752 C107.618,177.278 108.035,175.841 107.803,172.662 C107.503,168.536 107.463,168.497 103.255,168.193 C99.709,167.936 98.908,167.483 98.396,165.443 C96.968,159.754 100.348,154.686 108.445,150.376 C110.907,149.066 114.577,146.87 116.6,145.497 C118.624,144.123 120.659,143 121.124,143 C121.588,143 123.341,144.238 125.019,145.75 L128.07,148.5 L126.065,152.402 C124.963,154.548 122.585,157.537 120.78,159.044 C117.558,161.737 117.533,161.821 119.354,163.837 C120.374,164.965 122.174,166.026 123.354,166.194 C124.758,166.394 126.183,167.97 127.474,170.75 C128.961,173.952 130.017,175 131.756,175 C133.088,175 134.282,175.739 134.582,176.75 C134.868,177.713 135.711,179.699 136.456,181.165 C137.691,183.597 137.599,184.028 135.405,186.089 C134.082,187.332 133,189.159 133,190.15 C133,191.141 131.425,193.385 129.5,195.136 C127.385,197.061 126,199.257 126,200.685 C126,202.271 125.197,203.355 123.561,203.977 C120.935,204.975 118.551,208.464 119.474,209.957 C119.785,210.461 119.131,213.265 118.02,216.187 C116.058,221.351 115.316,231.054 116.623,234.461 C116.966,235.354 118.911,236.934 120.945,237.972 C123.999,239.53 126.325,239.796 134.305,239.498 C139.619,239.301 144.421,238.858 144.976,238.515 C145.532,238.171 147.902,237.667 150.243,237.395 C157.131,236.592 167.299,233.151 170.078,230.682 C172.573,228.465 172.622,228.201 171.579,222.509 C170.641,217.386 170.022,216.295 166.789,214.063 C162.95,211.413 162.134,209.266 164.186,207.214 C164.9,206.5 165.422,202.52 165.497,197.225 C165.681,184.171 167.256,182.999 171.553,192.716 C172.899,195.759 174,199.093 174,200.124 C174,202.816 175.588,202.468 181.646,198.447 C187.186,194.77 187.349,194.497 187.006,189.5 C186.644,184.234 185.335,182.846 181.423,183.58 C178.332,184.16 177.576,183.83 174.477,180.544 C170.541,176.371 170.143,174.085 172.917,171.575 C174.417,170.218 175.271,170.075 176.844,170.917 C181.13,173.21 184.271,169.56 183.321,163.391 C182.619,158.829 181.402,157 179.069,157 C176.118,157 174.086,154.623 173.431,150.407 L172.795,146.315 L180.074,141.657 C184.078,139.096 188.193,137 189.219,137 C190.245,137 191.628,136.542 192.292,135.983 C192.956,135.423 195.075,133.887 197,132.568 Z M53.241,67.75 C54.283,66.237 55.519,65 55.986,65 C58.352,65 60,66.457 60,68.548 C60,69.832 60.5,71.191 61.11,71.568 C61.78,71.982 61.989,73.68 61.637,75.85 C60.96,80.023 62.763,87 64.519,87 C65.181,87 66.793,84.982 68.102,82.515 C70.6,77.805 72.043,76.695 74.462,77.624 C76.369,78.355 77.425,81.765 76.221,83.298 C75.701,83.959 74.98,85.737 74.619,87.25 C74.258,88.763 73.52,90 72.981,90 C72.441,90 72,90.66 72,91.467 C72,92.273 70.399,94.534 68.442,96.491 L64.884,100.049 L65.019,113.775 C65.093,121.324 65.278,130.425 65.43,134 C65.694,140.201 65.828,140.515 68.354,140.816 C69.81,140.991 71.513,142.091 72.14,143.261 C73.143,145.135 72.814,145.78 69.389,148.662 C66.086,151.442 65.671,152.212 66.633,153.766 C67.409,155.022 67.492,157.31 66.895,161.048 C66.416,164.047 65.96,175.725 65.882,187 C65.689,214.661 64.743,234.989 63.559,236.905 C63.3,237.324 61.245,238.944 58.993,240.505 L54.898,243.343 L52.753,241.197 C51.572,240.017 49.683,237.127 48.553,234.776 C47.424,232.424 45.346,229.953 43.937,229.285 C42.527,228.616 40.552,227.162 39.548,226.054 C38.054,224.403 37.952,223.763 38.984,222.519 C40.778,220.357 41.519,220.571 45.868,224.5 C53.351,231.26 53.909,229.955 55.571,201.778 C56.326,188.975 57.069,177.162 57.222,175.527 C57.41,173.512 57.011,172.456 55.982,172.249 C54.316,171.913 51,176.779 51,179.56 C51,180.523 49.875,182.786 48.5,184.589 C47.125,186.392 46,188.277 46,188.778 C46,189.28 45.132,190.476 44.071,191.436 C43.01,192.396 41.415,194.603 40.526,196.341 C36.611,203.998 35.266,205.533 31.232,206.951 C27.43,208.288 26.94,208.256 25.051,206.546 C22.413,204.159 22.436,200.82 25.106,198.405 C26.265,197.357 28.071,194.819 29.119,192.765 C30.168,190.71 32.145,188.296 33.513,187.4 C34.881,186.503 36,185.185 36,184.47 C36,183.755 37.387,181.894 39.083,180.335 C40.779,178.776 43.5,175.25 45.131,172.5 C46.761,169.75 49.894,165.025 52.093,162 L56.09,156.5 L55.538,147.5 C55.235,142.55 54.948,132.764 54.901,125.752 C54.855,118.741 54.388,112.74 53.864,112.416 C53.34,112.092 50.916,113.666 48.478,115.914 C46.04,118.161 43.269,120 42.32,120 C41.371,120 39.097,121.452 37.266,123.227 C34.658,125.754 33.081,126.455 29.995,126.455 C24.53,126.455 23.478,125.141 25.108,120.349 C26.8,115.374 27.852,114 29.967,114 C30.915,114 32.547,113.039 33.595,111.863 C34.643,110.688 36.625,109.226 38,108.613 C39.375,108.001 43.346,105.265 46.824,102.532 L53.147,97.565 L52.571,90.532 C51.18,73.536 51.266,70.617 53.241,67.75 Z M133.325,31.541 C136.171,28.538 139.209,26.063 140.076,26.041 C142.676,25.973 146.285,30.525 145.527,32.915 C145.163,34.062 144.452,35 143.946,35 C143.44,35 142.404,36.462 141.642,38.25 C140.881,40.038 139.075,42.591 137.629,43.924 C134.831,46.505 134.356,48.928 136.035,52.066 C137.366,54.553 138.629,54.528 139.289,52.003 C139.576,50.904 140.866,49.585 142.156,49.072 C144.11,48.294 144.959,48.63 147.257,51.093 C149.769,53.784 149.889,54.246 148.605,56.274 C147.83,57.498 146.879,60.075 146.49,62 C146.102,63.925 144.907,66.456 143.835,67.625 C142.305,69.294 141.953,70.902 142.193,75.125 C142.462,79.826 142.782,80.54 144.748,80.819 C146.346,81.046 147.253,80.468 147.884,78.819 C149.128,75.564 152.636,72.646 154.463,73.347 C156.233,74.027 156.716,84 154.979,84 C154.417,84 153.412,85.237 152.745,86.75 C152.078,88.263 150.175,90.797 148.516,92.383 C145.684,95.09 145.463,95.851 144.896,104.883 C144.491,111.327 144.656,114.872 145.396,115.627 C146.815,117.075 164.691,118.31 165.491,117.015 C165.816,116.488 168.324,115.761 171.064,115.397 C173.803,115.034 176.286,114.346 176.581,113.868 C176.877,113.391 178.409,113 179.986,113 C184.712,113 187,109.06 187,100.924 C187,97.181 186.55,93.84 186,93.5 C185.45,93.16 185,91.389 185,89.563 C185,87.738 184.342,85.699 183.539,85.032 C182.735,84.365 181.782,82.848 181.42,81.66 C181.059,80.472 180.098,78.741 179.284,77.813 C177.48,75.757 178.377,74 181.23,74 C183.573,74 187,76.661 187,78.481 C187,79.125 188.125,80.708 189.5,82 C190.875,83.292 192,85.328 192,86.525 C192,87.723 193.046,90.682 194.324,93.101 C197.111,98.378 198.975,107.237 198.264,111.836 C197.839,114.579 196.446,116.135 190.427,120.586 C186.401,123.564 182.378,126 181.487,126 C180.597,126 178.886,126.536 177.684,127.191 C176.483,127.846 172.575,128.435 169,128.499 C165.425,128.563 158,128.973 152.5,129.409 C143.406,130.132 142.319,130.031 140.5,128.301 C139.4,127.255 137.751,126.113 136.837,125.764 C135.611,125.296 135,123.335 134.516,118.315 C133.418,106.937 132.852,106.647 126.091,114 C123.563,116.75 121.14,119 120.707,119 C120.274,119 118.549,120.012 116.874,121.25 L113.829,123.5 L111.422,120.703 C106.541,115.031 107.586,109.933 113.887,108.673 C115.419,108.366 118.649,106.464 121.064,104.446 C123.48,102.428 126.409,100.415 127.575,99.972 C130.341,98.92 133.236,92.787 132.448,89.648 C132.112,88.311 132.324,86.918 132.919,86.55 C134.388,85.642 134.277,83.761 132.621,81.497 C131.313,79.707 131.111,79.697 128.656,81.306 C123.584,84.629 118,82.335 118,76.927 C118,74.8 118.865,73.644 121.75,71.912 C128.936,67.597 131.953,61.866 128.532,59.027 C127.471,58.146 127.225,56.635 127.645,53.573 C128.03,50.767 127.722,48.352 126.733,46.419 C125.912,44.813 124.926,42.038 124.541,40.25 C123.921,37.372 124.088,37 125.995,37 C127.306,37 130.176,34.862 133.325,31.541 Z M123.635,178.073 C121.587,179.683 121,181.021 121,184.073 C121,186.233 121.41,188 121.911,188 C123.815,188 128,181.761 128,178.923 C128,175.457 127.167,175.294 123.635,178.073 Z"/>
</svg>

