<svg xmlns="http://www.w3.org/2000/svg" width="300" height="300" viewBox="0 0 300 300" version="1.1">
  <defs/>
  <path d="M143.551,34.25 C144.094,31.744 145.845,31.361 148.129,33.25 C150.455,35.174 152.204,43.981 151.425,49.851 C150.803,54.541 150.918,55 152.716,55 C153.802,55 155.505,54.1 156.5,53 C158.853,50.4 161.799,50.463 164.686,53.174 C168.072,56.356 167.979,66.053 164.5,72.596 C163.125,75.182 162,77.906 162,78.649 C162,80.711 164.53,80.264 167.673,77.646 C175.578,71.064 188.146,62 189.368,62 C191.201,62 192.68,63.878 193.538,67.293 C194.137,69.681 193.687,70.562 190.368,73.501 C183.366,79.702 172.647,87.852 163.25,94.12 C158.162,97.514 154,100.605 154,100.99 C154,101.375 154.938,102.539 156.085,103.577 C158.009,105.318 158.146,106.366 157.868,117.163 C157.621,126.709 157.857,129.197 159.149,130.681 C160.019,131.682 161.044,133.85 161.427,135.5 C161.809,137.15 163.219,140.178 164.561,142.229 C165.902,144.279 167,146.605 167,147.397 C167,149.624 168.113,152 169.156,152 C170.277,152 186.661,140.599 192.879,135.492 C198.028,131.263 201.657,131.051 201.23,135.003 C200.782,139.155 197.996,144.051 195.555,144.979 C194.289,145.46 191.587,147.888 189.55,150.373 C187.513,152.859 184.419,155.803 182.673,156.915 C180.928,158.028 177.25,160.744 174.5,162.951 C165.259,170.367 161.473,172.625 153.968,175.199 C143.284,178.864 137.851,179.991 135.9,178.947 C134.184,178.028 132.89,172.796 133.953,171.075 C134.284,170.541 138.245,168.914 142.756,167.458 C152.867,164.197 159.436,159.776 158.648,156.762 C158.348,155.615 158.513,153.91 159.015,152.972 C159.982,151.166 158.327,145.107 156.5,143.765 C154.28,142.135 153,143.09 153,146.378 C153,150.918 150.787,152.759 147.466,150.982 C144.622,149.46 144.539,148.635 146.409,140.5 C147.168,137.2 147.949,127.975 148.145,120 L148.5,105.5 L145.38,105.633 C143.663,105.707 140.963,106.391 139.38,107.153 C136.267,108.652 136.167,109.404 137.016,125 C137.545,134.719 132.525,164.848 129.943,167.45 C129.424,167.973 129,169.449 129,170.731 C129,172.014 128.374,173.303 127.61,173.596 C126.845,173.89 126.222,175.113 126.225,176.315 C126.23,178.346 124.615,183.286 121.588,190.5 C119.228,196.123 117.772,200.496 117.258,203.5 C116.976,205.15 115.974,207.238 115.031,208.141 C114.089,209.043 112.078,212.868 110.563,216.641 C109.048,220.413 106.76,225.75 105.478,228.5 C104.197,231.25 101.946,236.65 100.477,240.5 C99.008,244.35 97.339,248.625 96.769,250 C96.199,251.375 95.373,253.4 94.934,254.5 C89.255,268.722 86.553,273.897 82.512,278.292 C79.54,281.524 78.728,281.925 77.013,281.007 C74.457,279.639 74.452,277.548 77,275 C78.1,273.9 79.033,272.212 79.073,271.25 C79.113,270.288 79.991,268.15 81.024,266.5 C84.368,261.159 90.136,248.584 90.656,245.501 C90.934,243.851 91.639,241.375 92.221,240 C94.692,234.169 96.348,230.391 97.147,228.764 C97.616,227.809 98,226.43 98,225.701 C98,224.971 99.125,222.042 100.5,219.192 C101.875,216.342 103,213.709 103,213.341 C103,211.847 106.442,205 107.192,205 C107.637,205 108,203.93 108,202.622 C108,201.315 108.671,199.688 109.49,199.008 C110.426,198.232 110.76,196.894 110.389,195.415 C109.997,193.852 110.959,190.607 113.244,185.779 C115.14,181.776 117.243,176.7 117.917,174.5 C118.592,172.3 119.747,169.15 120.484,167.5 C121.222,165.85 122.345,162.475 122.98,160 C123.616,157.525 124.555,154.118 125.068,152.429 C125.58,150.74 126,148.467 126,147.379 C126,146.291 126.563,144.838 127.25,144.15 C128.141,143.259 128.5,138.51 128.5,127.617 L128.5,112.333 L125.25,108.632 C123.462,106.596 122,104.575 122,104.14 C122,102.944 125.843,99.729 132.327,95.502 C137.734,91.977 148.096,82.163 151.418,77.421 C153.752,74.088 151.914,72.577 148.113,74.703 C142.752,77.702 142.318,76.102 142.719,54.815 C142.908,44.742 143.282,35.487 143.551,34.25 Z M75.533,76.352 C78.107,74.47 78.584,74.608 80.932,77.904 C82.658,80.329 83,82.312 83,89.904 C83,98.485 83.119,99 85.106,99 C86.264,99 88.564,97.862 90.218,96.47 C92.567,94.493 93.527,94.192 94.612,95.093 C97.46,97.457 96.184,101.253 90.618,106.971 L85.236,112.5 L84.679,130.805 C84.205,146.377 84.342,149.194 85.598,149.676 C86.41,149.988 87.881,149.513 88.866,148.621 C89.851,147.73 91.425,147 92.363,147 C93.839,147 93.979,147.708 93.401,152.25 C93.034,155.137 92.404,157.95 92.001,158.5 C91.598,159.05 90.082,161.653 88.634,164.285 C86.009,169.055 86,169.148 85.93,192.285 C85.891,205.053 85.514,216.385 85.091,217.466 C84.668,218.547 84.778,221.225 85.334,223.417 C86.041,226.205 85.974,231.175 85.108,239.951 C83.277,258.524 82.999,259.5 79.545,259.5 C77.333,259.5 76.247,258.74 74.826,256.195 C73.81,254.378 71.306,251.082 69.26,248.871 C65.187,244.469 58,232.696 58,230.426 C58,229.642 58.71,229 59.577,229 C61.156,229 64.012,231.758 69.348,238.436 C72.64,242.555 75.517,243.061 76.368,239.671 C76.689,238.39 76.992,226.352 77.04,212.921 C77.089,199.489 77.212,187.389 77.314,186.031 C77.631,181.829 74.488,182.36 71.911,186.945 C70.657,189.175 69.295,191 68.883,191 C68.472,191 67.83,192.012 67.457,193.25 C66.727,195.67 55.529,213.094 50.746,219.25 C48.936,221.579 46.992,223 45.616,223 C40.37,223 39.46,217.338 43.845,211.978 C45.41,210.065 47.892,206.334 49.36,203.688 C53.029,197.074 64.288,179.962 70.538,171.5 C73.381,167.65 76.036,163.464 76.438,162.198 C76.839,160.933 76.843,151.37 76.446,140.948 C75.802,124.031 75.542,122 74.017,122 C73.078,122 71.495,122.9 70.5,124 C69.505,125.1 67.972,125.987 67.095,125.972 C66.218,125.956 62.725,127.41 59.333,129.202 C53.259,132.412 53.135,132.432 51.083,130.575 C47.854,127.653 48.543,125.48 53.75,122.162 C58.446,119.169 64.129,114.937 70.194,109.914 C74.065,106.708 75.124,100.786 74.27,87.102 C73.747,78.714 73.883,77.559 75.533,76.352 Z M192.5,229.485 C204.081,226.156 210.086,227.562 211.485,233.93 C212.22,237.279 210.834,241.118 206.767,247 C203.125,252.267 191.029,263.13 187.467,264.333 C186.11,264.792 185,265.804 185,266.583 C185,267.722 187.108,267.986 195.75,267.927 C201.662,267.887 208.975,267.493 212,267.053 C218.163,266.155 221,267.091 221,270.021 C221,274.444 208.172,279.197 196.551,279.079 C194.93,279.063 192.83,279.749 191.885,280.604 C190.49,281.866 189.747,281.935 187.943,280.97 C186.486,280.19 183.616,280.005 179.61,280.434 C176.25,280.794 171.999,281.065 170.165,281.038 C168.282,281.01 165.727,281.856 164.295,282.983 C160.997,285.577 157.361,284.788 153.75,280.694 C150.257,276.733 150.248,273.715 153.723,271.184 C156.179,269.394 156.32,268.97 155.167,266.85 C154.464,265.558 153.351,263.792 152.694,262.926 C150.832,260.47 141.374,254.279 137.567,253.022 C135.354,252.292 133.376,250.608 132.008,248.288 C130.069,245.003 130.022,244.55 131.468,243.104 C132.914,241.658 133.29,241.662 135.776,243.149 C137.274,244.046 141.254,246.179 144.62,247.888 C151.759,251.515 158.161,257.082 160.749,261.915 C163.453,266.966 165.405,267.862 169.1,265.75 C170.784,264.788 172.557,264 173.041,264 C174.255,264 191.321,251.082 192.265,249.448 C192.686,248.72 194.373,246.78 196.015,245.139 C201.453,239.701 198.947,237.656 190.764,240.855 C187.869,241.987 181.72,244.367 177.101,246.143 C172.481,247.919 167.578,250.414 166.204,251.686 C163.094,254.569 161.268,254.601 158.314,251.826 C153.771,247.557 155.977,244.485 167.5,239.033 C177.168,234.459 183.163,232.169 192.5,229.485 Z M173,170.046 C183.076,160.62 187,160.465 187,169.492 C187,172.436 186.053,173.611 178.809,179.66 C155.474,199.145 147.839,202.175 145.505,192.876 C144.981,190.789 145.395,189.835 147.56,188.132 C149.05,186.959 150.916,186 151.706,186 C153.83,186 164.453,178.041 173,170.046 Z M176.885,195.814 C181.068,192.632 189,194.39 189,198.5 C189,200.827 185.345,203.125 182.699,202.461 C180.584,201.93 180.107,202.206 179.831,204.126 C179.249,208.176 159.548,221 153.908,221 C151.606,221 146,216.493 146,214.642 C146,212.496 149.459,210 152.432,210 C155.657,210 158.185,208.629 163.709,203.887 C165.475,202.372 168.625,200.344 170.709,199.38 C172.794,198.417 175.573,196.812 176.885,195.814 Z M168.605,94.299 C173.073,91.032 175.5,94.642 176.487,106.026 C177.501,117.717 179.146,119.279 185.411,114.5 C188.574,112.088 188.748,112.064 190.345,113.828 C195.783,119.838 185.434,130.344 177.909,126.453 C174.235,124.553 170.064,119.003 168.758,114.275 C168.184,112.199 167.515,107.147 167.271,103.049 C166.896,96.741 167.1,95.4 168.605,94.299 Z"/>
</svg>

