<svg xmlns="http://www.w3.org/2000/svg" width="300" height="300" viewBox="0 0 300 300" version="1.1">
  <defs/>
  <path d="M170.5,122.63 C173.187,120.526 177.586,120.594 179.193,122.765 C179.912,123.736 181.674,125.048 183.11,125.68 C185.496,126.731 185.765,127.455 186.257,134.165 C186.68,139.935 186.367,142.746 184.789,147.34 C182.828,153.047 182.824,153.258 184.626,156.605 C186.803,160.647 186.069,162.421 181.119,165.076 C179.316,166.043 177.054,167.546 176.092,168.417 C175.13,169.288 173.837,170 173.219,170 C172.058,170 172.15,175.816 173.342,177.744 C174.073,178.928 171.56,185.536 170.015,186.491 C169.457,186.836 169,188.388 169,189.94 C169,191.98 169.952,193.489 172.433,195.381 C174.322,196.822 176.459,198.007 177.183,198.016 C179.377,198.044 195.754,208.621 200.5,213.076 C202.15,214.625 206.019,217.043 209.099,218.45 C212.178,219.857 215.553,221.965 216.599,223.134 C217.644,224.303 220.426,226.091 222.78,227.107 C225.134,228.123 228.509,230.313 230.28,231.973 C232.051,233.633 233.808,234.993 234.184,234.995 C235.072,235.001 250.467,247.951 255,252.505 C256.925,254.439 259.715,256.567 261.2,257.233 C264.552,258.737 265.823,261.216 266.204,267 C266.493,271.391 266.424,271.507 263.342,271.806 C260.925,272.041 259.452,271.397 257.058,269.056 C255.338,267.375 253.583,266 253.158,266 C252.733,266 250.958,263.975 249.213,261.5 C247.315,258.807 245.263,257 244.104,257 C242.987,257 241.814,256.022 241.333,254.689 C239.731,250.245 214.887,231 210.753,231 C210.273,231 207.817,229.425 205.296,227.5 C202.775,225.575 200.281,224 199.753,224 C199.225,224 196.252,222.167 193.146,219.926 C184.926,213.994 175.128,208 173.653,208 C172.95,208 171.064,206.632 169.462,204.96 C165.297,200.613 162.752,201.29 161.789,207 C161.372,209.475 160.282,212.897 159.367,214.604 C157.731,217.655 157.756,217.782 160.857,222.104 C162.591,224.522 164.929,227.647 166.051,229.049 C168.488,232.095 167.803,234.744 164.229,236.103 C161.281,237.224 157.529,235.243 156.508,232.027 C155.573,229.081 153.46,229.539 150.859,233.25 C149.607,235.037 147.728,237.121 146.685,237.881 C145.642,238.64 144.155,240.778 143.381,242.631 C142.607,244.484 141.32,246 140.522,246 C139.723,246 138.591,246.895 138.006,247.99 C136.539,250.73 131.262,253.283 128.498,252.589 C126.667,252.129 126.132,251.186 125.814,247.851 C125.453,244.064 125.7,243.52 128.538,241.845 C131.769,239.939 135.611,235.023 140.426,226.636 C142.748,222.591 143.035,221.373 142.135,219.398 C141.129,217.19 133.637,213.061 125.5,210.231 C123.85,209.657 121.6,208.851 120.5,208.439 C119.4,208.028 116.84,207.545 114.811,207.366 C111.719,207.093 111.012,207.401 110.442,209.27 C109.111,213.633 106.076,219.692 104.614,220.906 C103.797,221.584 102.816,223.57 102.434,225.319 C101.743,228.479 95.662,234.877 93.273,234.958 C92.598,234.981 91.297,236.143 90.381,237.541 C87.983,241.202 85.839,242.07 81.893,240.98 C79.199,240.236 78.267,239.297 77.368,236.421 C76.255,232.863 76.294,232.775 79.616,231.387 C83.867,229.611 89.937,223.174 89.973,220.405 C89.988,219.253 90.965,217.453 92.145,216.405 C93.325,215.357 95.152,212.575 96.205,210.221 C97.258,207.868 98.992,205.397 100.059,204.731 C101.412,203.886 102,202.398 102,199.818 C102,197.783 102.45,195.84 103,195.5 C104.967,194.284 103.975,188.753 101,184.345 C99.35,181.9 98,179.333 98,178.641 C98,177.949 97.36,176.509 96.577,175.441 C95.795,174.374 95.378,172.375 95.651,171 C95.924,169.625 95.214,166.325 94.073,163.667 C90.574,155.51 91.63,152 97.585,152 C99.971,152 101.206,151.31 102.51,149.25 C104.833,145.579 108.053,143.057 110.5,142.99 C111.6,142.961 113.374,142.276 114.441,141.468 C117.448,139.194 123.287,139.6 125.701,142.25 C128.682,145.523 130.079,148.63 129.385,150.44 C129.05,151.312 129.33,152.693 130.007,153.509 C131.004,154.71 130.741,156.01 128.619,160.346 C127.179,163.29 126,166.342 126,167.127 C126,167.912 125.213,169.668 124.25,171.027 C120.729,176.002 118.38,184.673 118.46,192.402 C118.497,196.013 118.723,196.32 121.5,196.516 C125.983,196.834 138.031,200.718 139.965,202.468 C140.896,203.311 141.98,204 142.374,204 C142.768,204 144.216,205.125 145.591,206.5 C146.966,207.875 148.448,209 148.885,209 C149.322,209 150.282,207.088 151.018,204.75 C151.753,202.412 152.95,199.79 153.678,198.921 C154.405,198.053 155,196.68 155,195.871 C155,195.062 155.384,193.972 155.853,193.45 C156.688,192.519 158.315,186.698 159.541,180.25 C160.072,177.459 159.876,177 158.156,177 C157.055,177 154.715,175.789 152.956,174.31 C149.794,171.648 149.764,171.542 150.299,164.56 C150.825,157.679 148.129,142.202 145.924,139.446 C145.46,138.866 144.95,136.41 144.79,133.987 C144.529,130.025 144.781,129.446 147.303,128.211 C149.736,127.021 150.43,127.052 152.553,128.443 C153.899,129.325 155,130.684 155,131.464 C155,135.465 160.566,133.543 162.152,128.995 C162.731,127.332 164.26,125.739 165.823,125.171 C167.295,124.635 169.4,123.492 170.5,122.63 Z M135.223,10.262 C136.885,8.493 138.085,8.055 139.973,8.526 C145.42,9.884 147.387,13.783 144.532,17.559 C143.724,18.626 143.049,20.232 143.032,21.128 C143.014,22.023 142.325,23.315 141.5,24 C140.675,24.685 140,26.035 140,27 C140,27.965 139.325,29.315 138.5,30 C137.675,30.685 137,32.738 137,34.563 C137,36.389 136.55,38.16 136,38.5 C135.45,38.84 135,39.903 135,40.863 C135,41.822 133.94,44.833 132.645,47.554 C131.35,50.274 129.701,54.419 128.98,56.764 C128.26,59.11 127.07,61.527 126.335,62.137 C125.601,62.746 125,64.081 125,65.103 C125,65.521 124.982,65.848 125.086,66.129 C125.49,67.218 127.732,67.625 140,70.05 C145.775,71.192 150.928,72.548 151.45,73.063 C151.973,73.578 154.078,74 156.129,74 C158.179,74 160.532,74.675 161.357,75.5 C162.182,76.325 163.768,77 164.882,77 C165.995,77 168.052,77.522 169.453,78.161 C171.41,79.052 172.628,79.035 174.709,78.087 C177.168,76.966 177.59,77.089 179.292,79.426 C180.351,80.881 182.151,82 183.43,82 C187.135,82 191.796,84.885 193.451,88.203 C195.683,92.675 195.413,93.71 191.54,95.548 C186.736,97.828 180.661,96.737 178.096,93.135 C176.527,90.932 175.317,90.405 171.435,90.236 C168.763,90.12 165.923,89.335 164.933,88.439 C163.041,86.727 162.985,86.71 155.5,85.557 C152.75,85.133 148.958,83.903 147.073,82.823 C145.189,81.743 142.757,81.092 141.67,81.376 C140.583,81.66 138.47,81.26 136.974,80.486 C135.478,79.713 134.048,79.286 133.796,79.537 C133.544,79.789 130.797,79.525 127.691,78.951 C121.049,77.723 118,78.812 118,82.413 C118,83.701 117.337,85.305 116.526,85.978 C115.716,86.651 114.76,88.843 114.403,90.85 C114.045,92.858 112.964,95.4 112,96.5 C111.036,97.6 109.926,100.3 109.534,102.5 C109.142,104.7 108.477,106.95 108.057,107.5 C107.637,108.05 106.831,110.3 106.266,112.5 C105.701,114.7 104.912,117.287 104.512,118.25 C103.21,121.389 108.839,120.304 114.887,116.25 C117.964,114.188 121.396,112.05 122.513,111.5 C125.566,109.997 135.731,98.837 136.938,95.664 C137.956,92.985 138.095,92.937 140.747,94.363 C142.261,95.177 144.256,96.077 145.18,96.363 C148.105,97.269 148.577,104.949 146.016,109.969 C144.115,113.694 143.517,114.155 141.174,113.695 C138.922,113.254 138.263,113.671 137,116.336 C135.984,118.48 134.856,119.442 133.503,119.32 C132.404,119.221 130.154,120.169 128.503,121.428 C124.556,124.435 117.713,127.702 113.707,128.492 C111.943,128.84 109.251,129.606 107.724,130.194 C105.461,131.066 104.59,130.939 103.003,129.503 C101.131,127.808 100.924,127.86 97.494,130.871 C94.824,133.216 92.967,134 90.087,134 C86.663,134 86.111,134.356 85.039,137.25 C84.377,139.037 83.421,141.175 82.915,142 C82.409,142.825 81.537,144.625 80.977,146 C79.421,149.82 77.869,153.303 76.801,155.369 C74.598,159.63 73.364,177.889 73.244,208 L73.118,239.5 L70.081,242.216 C67.112,244.872 66.971,244.896 63.772,243.297 C57.838,240.331 57.039,240 55.815,240 C54.371,240 41.843,231.72 40.088,229.606 C39.172,228.502 39.141,227.605 39.966,226.064 C40.573,224.929 41.463,224 41.943,224 C43.581,224 53,229.281 53,230.199 C53,230.703 54.844,230.977 57.099,230.807 C60.883,230.524 61.302,230.197 62.551,226.545 C63.296,224.37 63.536,222.12 63.084,221.545 C62.632,220.97 62.458,218.25 62.697,215.5 C62.936,212.75 63.323,204.2 63.558,196.5 C63.792,188.8 64.471,181.567 65.067,180.427 C66.696,177.305 64.937,171.581 62.226,171.185 C60.576,170.944 59.907,171.53 59.372,173.685 C58.694,176.422 50.756,186.954 45.569,192 C44.156,193.375 39.772,197.762 35.827,201.75 C31.882,205.737 28.048,209 27.306,209 C26.564,209 25.445,210.125 24.818,211.5 C23.208,215.034 18.755,214.953 17.118,211.36 C16.832,210.733 16.574,210.266 16.495,209.77 C16.172,207.75 18.826,205.254 34.75,189.548 C42.588,181.818 49,174.943 49,174.27 C49,173.597 50.125,172.309 51.5,171.408 C52.875,170.507 54,168.96 54,167.969 C54,166.978 55.856,164.698 58.125,162.901 C63.005,159.036 65.31,154.449 63.796,151.618 C63.234,150.568 62.986,147.496 63.246,144.792 C63.506,142.087 63.289,137.766 62.765,135.187 C62.241,132.609 61.689,127.741 61.538,124.369 C61.388,120.997 60.954,117.734 60.573,117.119 C59.481,115.351 55.478,115.814 53.563,117.931 C51.041,120.717 40.297,124.754 33.295,125.546 C27.318,126.222 27.269,126.207 26.574,123.437 C25.486,119.105 28.724,115.408 33.251,115.814 C37.809,116.223 43.403,113.841 45.537,110.584 C46.642,108.898 48.146,107.995 49.865,107.985 C51.365,107.977 54.148,106.576 56.325,104.733 L60.151,101.496 L58.139,89.498 C57.032,82.899 55.56,74.933 54.867,71.796 C53.72,66.605 53.773,65.908 55.458,64.046 C57.686,61.585 59.13,61.499 63.167,63.586 C66.096,65.101 66.207,65.384 65.613,69.858 C65.153,73.329 65.409,75.139 66.602,76.842 C67.563,78.214 68.27,81.429 68.356,84.82 C68.481,89.762 68.771,90.539 70.588,90.798 C71.736,90.962 73.253,90.4 73.96,89.548 C78.001,84.679 81.925,92.681 78.829,99.477 C78.184,100.891 76.597,102.314 75.302,102.639 C74.007,102.964 72.509,104.049 71.974,105.049 C70.852,107.146 70.674,112.34 71.689,113.356 C72.068,113.735 72.441,119.672 72.518,126.551 C72.603,134.156 73.09,139.49 73.761,140.161 C75.453,141.853 77.659,140.501 80.47,136.048 C81.875,133.821 83.649,132 84.412,132 C85.174,132 86.725,130.222 87.858,128.048 C88.991,125.875 91.286,122.207 92.959,119.898 C94.631,117.589 96,114.444 96,112.909 C96,111.374 96.399,109.871 96.887,109.57 C97.374,109.269 98.067,107.459 98.425,105.548 C99.036,102.289 100.706,98.139 106.648,85.111 C108,82.147 109.37,78.322 109.692,76.611 C110.015,74.9 111.116,71.728 112.14,69.562 C113.163,67.396 114,64.984 114,64.202 C114,63.42 115.299,60.242 116.886,57.14 C121.624,47.883 123.862,42.454 125.051,37.339 C126.409,31.497 129.851,22.239 131.674,19.527 C132.403,18.443 133,16.447 133,15.092 C133,13.737 134.001,11.564 135.223,10.262 Z M168.813,136.5 C167.618,137.875 166.025,139 165.274,139 C164.523,139 162.851,140.058 161.559,141.35 C159.609,143.3 159.24,144.621 159.392,149.1 C159.594,155.042 162.131,160 164.969,160 C167.17,160 172,155.588 172,153.578 C172,152.744 172.826,150.585 173.835,148.78 C176.181,144.586 177.205,138.252 175.925,135.859 C174.533,133.26 171.384,133.543 168.813,136.5 Z M108.632,154.626 C103.891,157.092 103.78,157.254 104.371,160.829 C104.705,162.848 104.983,165.738 104.989,167.25 C104.995,168.831 105.551,170 106.297,170 C108.232,170 115.334,162.35 114.561,161.099 C114.193,160.504 115.062,158.847 116.492,157.417 C118.552,155.357 118.85,154.524 117.924,153.408 C116.288,151.438 114.245,151.705 108.632,154.626 Z"/>
</svg>

