<svg xmlns="http://www.w3.org/2000/svg" width="300" height="300" viewBox="0 0 300 300" version="1.1">
  <defs/>
  <path d="M114.107,76.503 C116.523,75.749 119.175,75.38 120,75.682 C120.825,75.983 123.026,76.596 124.891,77.042 C128.864,77.992 130.03,79.104 132.715,84.5 C140.172,99.49 142.053,113.204 141.971,152 C141.94,166.575 142.33,179.884 142.838,181.576 C144.141,185.92 141.819,198.928 139.428,200.676 C136.783,202.61 133.201,202.294 131.768,200 C130.08,197.297 128.626,197.473 123.5,201 C121.102,202.65 118.46,204 117.629,204 C116.798,204 115.836,204.456 115.491,205.014 C112.981,209.076 99.573,211.6 96.997,208.496 C96.182,207.514 94.338,207.08 91.689,207.246 C87.792,207.49 87.598,207.359 86.863,204 C86.441,202.075 86.537,196.9 87.076,192.5 C91.006,160.407 92.224,121.419 89.843,103.974 C88.802,96.34 88.718,92.274 89.372,81 C89.601,77.045 91.648,76.155 96.38,77.954 C98.554,78.781 99.083,79.573 98.913,81.75 C98.547,86.439 98.943,88 100.5,88 C101.325,88 102,87.416 102,86.703 C102,84.336 109.646,77.895 114.107,76.503 Z M109.937,93.841 C105.847,97.603 101.95,100.866 101.277,101.091 C100.36,101.398 99.922,109.877 99.525,135 C99.234,153.425 98.562,171.65 98.031,175.5 C97.5,179.35 97.051,185.094 97.033,188.264 C97.015,191.434 96.449,194.91 95.775,195.989 C94.108,198.658 95.616,199.96 100.605,200.156 C105.074,200.331 110.479,197.581 118.084,191.262 C120.606,189.167 124.715,186.368 127.216,185.041 L131.764,182.629 L132.193,164.064 C132.429,153.854 132.34,144.15 131.995,142.5 C131.435,139.817 131.017,139.529 128.046,139.773 C125.959,139.944 123.009,141.455 120.112,143.837 C108.799,153.14 106.724,153.671 105.576,147.555 C104.717,142.977 106.882,139.754 114.919,133.642 C123.089,127.429 124.485,126.813 128.634,127.591 L132.241,128.268 L131.664,121.384 C130.338,105.568 126.849,92.442 123.124,89.255 C121.681,88.02 119.797,87.008 118.937,87.005 C118.078,87.002 114.028,90.078 109.937,93.841 Z"/>
</svg>

