<svg xmlns="http://www.w3.org/2000/svg" width="300" height="300" viewBox="0 0 300 300" version="1.1">
  <defs/>
  <path d="M119.716,65.761 C121.732,63.534 122.884,63.571 126,65.966 C128.308,67.74 128.5,68.519 128.5,76.108 C128.5,85.189 129.821,87.181 132.459,82.08 C134.528,78.078 140.652,72 142.615,72 C143.467,72 146.085,70.425 148.435,68.5 C150.784,66.575 153.797,65 155.13,65 C158.262,65 162,67.63 162,69.834 C162,71.752 157.097,76.522 152.5,79.077 L149.5,80.744 L149.706,89.622 C149.823,94.662 149.248,101.597 148.375,105.663 C147.53,109.602 146.995,113.877 147.186,115.163 C147.525,117.436 147.631,117.401 151.017,113.911 C152.933,111.937 157.425,106.575 161,101.996 C172.159,87.703 173.832,86.665 176.901,92.132 C179.334,96.468 177.841,98.59 154.532,123.926 C150.699,128.092 146.762,132.228 145.782,133.117 C144.802,134.007 144,135.061 144,135.46 C144,135.858 143.1,137.329 142,138.727 C140.9,140.126 139.996,141.997 139.992,142.885 C139.987,143.773 143.029,147.425 146.752,151 C150.475,154.575 154.437,158.625 155.557,160 C156.676,161.375 159.314,163.85 161.418,165.5 C180.471,180.441 184.643,184.144 190.011,190.877 C191.93,193.285 194.442,196.21 195.593,197.377 C196.744,198.545 198.743,201.075 200.035,203 C201.328,204.925 206.366,210.494 211.232,215.376 C216.098,220.257 220.747,225.545 221.565,227.126 C222.382,228.706 223.435,230 223.905,230 C224.374,230 227.242,233.262 230.279,237.25 C233.315,241.238 239.179,248.179 243.309,252.675 C252.52,262.704 253.221,264.431 249.358,267.591 C245.159,271.025 242.198,270.717 240.507,266.67 C239.742,264.839 238.415,262.759 237.558,262.048 C236.701,261.337 236,260.338 236,259.829 C236,259.32 232.85,255.703 229,251.791 C225.15,247.88 222,244.132 222,243.462 C222,242.793 221.297,241.662 220.438,240.949 C219.579,240.236 217.248,237.2 215.259,234.202 C213.269,231.205 208.909,225.975 205.57,222.58 C199.798,216.71 192.874,209.137 178.984,193.5 C171.024,184.538 166.19,180.046 157.482,173.522 C153.622,170.63 147.374,165.28 143.599,161.632 C139.823,157.984 136.112,155 135.351,155 C134.59,155 133.248,156.688 132.368,158.75 C131.489,160.813 129.73,164.75 128.461,167.5 C124.879,175.259 120,188.083 120,189.737 C120,190.557 119.151,192.864 118.114,194.864 C117.077,196.864 114.992,201.65 113.481,205.5 C109.663,215.225 106.051,223.047 104.015,226 C103.067,227.375 102.012,229.625 101.671,231 C101.33,232.375 99.444,234.585 97.479,235.911 L93.907,238.321 L91.281,236.36 C85.672,232.173 85.741,229.192 91.519,225.989 C94.807,224.167 101.93,211.39 105.73,200.5 C107.073,196.65 109.219,191.208 110.499,188.406 C111.779,185.605 113.398,181.33 114.098,178.906 C114.797,176.483 115.961,173.612 116.685,172.527 C117.408,171.443 118,169.933 118,169.173 C118,168.412 119.049,165.7 120.331,163.145 C122.917,157.992 124.406,153 123.357,153 C121.935,153 113.311,158.415 108.828,162.123 C102.846,167.071 94.405,169.274 92.325,166.429 C90.744,164.268 90.679,162.976 91.975,159.565 C92.513,158.151 93.747,156.995 94.725,156.988 C96.256,156.978 104.624,152.181 114.607,145.59 C116.198,144.539 119.3,142.539 121.5,141.144 C127.379,137.418 132,132.862 132,130.79 C132,129.791 132.395,128.191 132.877,127.236 C135.309,122.423 137.543,111.437 138.471,99.735 C139.002,93.032 138.856,91.882 137.407,91.326 C135.145,90.458 133.039,91.938 130.924,95.881 C129.957,97.684 128.454,99.946 127.583,100.908 C126.712,101.87 126,103.55 126,104.641 C126,107.548 122.164,115 120.668,115 C117.45,115 115.769,112.368 115.769,107.329 C115.769,104.563 116.216,101.445 116.762,100.4 C117.308,99.355 117.837,91.53 117.938,83.011 C118.088,70.424 118.421,67.193 119.716,65.761 Z M59.882,46.25 C59.932,45.715 59.964,45.364 60.155,45.205 C60.522,44.9 61.476,45.3 64.274,46.47 C66.766,47.511 68.407,49.208 69.896,52.286 C72.203,57.051 72.732,65.764 70.919,69.151 C69.354,72.076 70.388,72.462 74.927,70.646 C78.811,69.092 79.02,69.113 81.597,71.329 C85.131,74.369 84.223,77.024 78.742,79.678 C69.105,84.344 66.297,86.072 62.25,89.826 C57.565,94.173 57.065,95.568 59.873,96.46 C61.467,96.966 61.849,98.504 62.437,106.795 C62.874,112.961 62.737,117.561 62.064,119.333 C61.479,120.871 61,123.636 61,125.478 L61,128.825 L68.75,128.662 C75.104,128.529 76.984,128.86 79.187,130.5 C82.505,132.97 85.039,138.32 85.441,143.704 C85.608,145.944 86.05,148.271 86.422,148.875 C87.098,149.968 82.695,173.698 81.111,177.5 C77.816,185.407 76.456,187.667 72.354,192.052 C66.215,198.616 63.085,198.762 57.392,192.75 C52.609,187.699 51.217,184.702 50.392,177.678 C49.902,173.507 50.112,172.152 51.417,171.069 C52.829,169.897 53.376,170.004 55.321,171.831 C56.565,173 58.182,175.654 58.914,177.728 C61.453,184.918 65.117,187.032 67.182,182.5 C67.808,181.125 68.628,180 69.002,180 C69.377,180 70.509,177.188 71.517,173.75 C72.526,170.313 73.675,167.05 74.07,166.5 C74.465,165.95 75.364,161.397 76.067,156.383 C77.287,147.681 77.246,147.054 75.167,142.633 C73.223,138.497 72.636,138 69.686,138 C67.869,138 65.509,138.661 64.441,139.468 C63.374,140.276 61.577,140.951 60.45,140.968 C57.767,141.01 56,142.857 56,145.619 C56,146.839 55.326,149.112 54.503,150.669 C53.679,152.226 52.537,155.412 51.964,157.75 C51.392,160.088 50.49,162 49.961,162 C49.433,162 48.996,163.012 48.991,164.25 C48.986,165.488 47.875,168.75 46.522,171.5 C45.169,174.25 44.048,177.213 44.031,178.085 C44.014,178.956 42.425,182.906 40.5,186.861 C38.575,190.817 37,194.457 37,194.95 C37,195.443 35.425,197.91 33.5,200.432 C31.575,202.954 30,205.642 30,206.405 C30,208.391 23.304,214 20.934,214 C16.587,214 17.404,210.418 23.602,202.298 C25.471,199.85 27,197.357 27,196.759 C27,196.161 28.509,192.483 30.354,188.586 C32.198,184.688 34.288,179.7 34.998,177.5 C35.708,175.3 36.866,172.15 37.57,170.5 C40.804,162.93 41.808,160.161 43.008,155.5 C43.716,152.75 44.679,150.072 45.147,149.55 C45.616,149.027 46,147.592 46,146.359 C46,145.126 46.45,143.84 47,143.5 C47.55,143.16 48,141.613 48,140.063 C48,138.513 48.757,135.502 49.683,133.372 C50.899,130.575 51.441,126.029 51.636,117 C51.784,110.125 52.204,103.263 52.569,101.75 C53.078,99.642 52.869,99 51.674,99 C50.134,99 42.97,102.771 42,104.092 C40.927,105.553 29.409,111.995 27.865,111.997 C25.567,112.001 22.713,107.279 23.388,104.589 C23.912,102.502 24.855,101.846 31.75,98.775 C35.442,97.131 46.335,89.686 52.5,84.594 C55.25,82.322 58.625,79.894 60,79.197 C62.228,78.068 62.519,77.256 62.674,71.715 C62.77,68.297 62.934,64.561 63.04,63.414 C63.146,62.266 62.044,59.445 60.591,57.144 C58.507,53.843 58.169,52.552 58.989,51.021 C59.56,49.954 59.968,48.725 59.895,48.291 C59.823,47.856 59.816,46.938 59.882,46.25 Z M118.615,2.814 C119.573,1.264 124.698,2.009 126.457,3.953 C128.017,5.676 128.181,7.618 127.849,20.453 C127.642,28.454 127.605,35 127.766,35 C128.019,35 131.35,32.292 143.835,21.937 C145.119,20.871 147.286,20 148.651,20 C152.393,20 156.926,22.782 156.985,25.114 C157.01,26.121 151.654,31.164 149.5,32.16 C145.795,33.875 133.832,41.959 132,43.987 C131.725,44.292 130.262,45.084 128.75,45.749 C127.19,46.434 126,47.75 126,48.79 C126,49.798 125.082,51.608 123.961,52.811 C117.797,59.428 113.596,50.863 117.145,38.916 C118.021,35.969 118.4,29.365 118.285,19.064 C118.19,10.574 118.339,3.261 118.615,2.814 Z"/>
</svg>

