<svg xmlns="http://www.w3.org/2000/svg" width="300" height="300" viewBox="0 0 300 300" version="1.1">
  <defs/>
  <path d="M105.475,0.96 C105.126,0.395 106.965,0 109.941,0 C114.848,0 115,0.087 115,2.878 C115,4.461 115.648,7.305 116.439,9.2 C117.571,11.909 117.648,13.549 116.801,16.888 C115.992,20.071 116.037,22.177 116.98,25.316 C117.671,27.617 118.394,30.063 118.587,30.75 C119.231,33.046 121.762,32.037 124.864,28.25 C128.97,23.238 133.284,19 134.281,19 C135.813,19 140,23.911 140,25.708 C140,26.697 137.735,29.906 134.967,32.839 C132.198,35.772 129.25,39.215 128.414,40.491 C127.578,41.766 125.683,43.114 124.203,43.485 C119.347,44.704 117.801,47.711 119.607,52.418 C120.517,54.79 121.464,54.417 127,49.5 C132.571,44.552 133.189,44.317 134.974,46.469 C135.957,47.653 135.786,48.457 134.097,50.604 C132.944,52.07 132,54.318 132,55.599 C132,57.169 130.783,58.755 128.268,60.464 C126.215,61.859 124.113,63 123.597,63 C123.08,63 121.835,63.745 120.829,64.655 C119.355,65.988 119,67.823 119,74.096 C119,78.427 119.463,82.168 120.044,82.527 C122.486,84.036 132.395,74.777 133.327,70.115 C134.004,66.732 136.809,65.86 138.902,68.382 C140.301,70.067 140.172,75.6 138.656,79 C136.697,83.392 126.876,93.415 124.177,93.777 C122.789,93.963 120.859,94.54 119.888,95.06 C117.653,96.256 116.568,103.071 117.483,110.172 C117.86,113.102 118.133,118.732 118.089,122.681 C118.013,129.568 118.137,129.962 121.117,132.295 C124.07,134.606 124.191,134.975 123.543,139.689 C122.99,143.706 122.32,144.97 120.026,146.326 C118.467,147.247 116.562,148 115.792,148 C115.022,148 112.866,149.575 111,151.5 C109.134,153.425 106.833,155 105.886,155 C101.226,155 99.324,158.033 102.813,159.9 C104.45,160.776 104.613,162.316 104.483,175.685 C104.322,192.333 103.517,196.761 99.617,202.458 C96.005,207.733 96.427,210.993 101,213.154 C114.925,219.735 122.841,223.76 125.78,225.755 C127.659,227.03 132.19,229.714 135.848,231.721 C139.507,233.727 144.678,237.085 147.34,239.184 C150.002,241.283 152.557,243 153.018,243 C153.48,243 154.468,243.562 155.214,244.25 C155.961,244.938 157.905,246.271 159.536,247.214 C161.166,248.157 164.667,250.182 167.316,251.714 C169.965,253.246 175.094,256.413 178.714,258.75 C182.335,261.087 186.017,263.003 186.898,263.007 C187.779,263.01 189.85,263.907 191.5,265 C193.15,266.093 195.272,266.99 196.215,266.993 C197.158,266.997 198.411,267.9 199,269 C199.589,270.1 200.867,271 201.841,271 C202.815,271 205.136,272.125 207,273.5 C208.864,274.875 211.191,276 212.171,276 C213.152,276 214.703,277.143 215.619,278.541 C217.66,281.657 216.341,285.432 212.618,287.128 C210.583,288.056 209.264,287.725 204.17,285.01 C200.851,283.241 197.893,281.165 197.599,280.397 C197.304,279.628 195.979,279 194.654,279 C193.329,279 191.657,278.292 190.939,277.427 C189.687,275.917 187.374,274.517 176.98,268.973 C174.375,267.584 171.626,265.951 170.872,265.346 C170.117,264.74 168.375,263.901 167,263.48 C165.625,263.06 162.48,260.941 160.011,258.771 C157.542,256.602 154.167,254.249 152.511,253.542 C150.855,252.836 148.409,251.075 147.076,249.629 C145.702,248.14 143.569,247 142.154,247 C140.781,247 138.793,246.213 137.737,245.25 C135.611,243.313 128.15,238.827 123.5,236.689 C121.85,235.93 119.882,234.565 119.128,233.655 C118.373,232.745 117.198,232 116.516,232 C115.835,232 112.002,230.2 108,228 C103.998,225.8 100.517,224 100.266,224 C100.014,224 98.502,223.07 96.905,221.932 C93.525,219.526 90.384,220.076 88.9,223.336 C86.967,227.581 85.353,229.604 77.478,237.662 C73.09,242.152 68.092,246.522 66.371,247.375 C64.65,248.228 62.977,249.618 62.653,250.463 C62.291,251.406 60.816,252 58.836,252 C56.695,252 54.663,252.906 52.796,254.695 L49.983,257.39 L45.742,255.153 C43.409,253.923 40.375,252.266 39,251.473 C37.625,250.679 35.513,250.023 34.306,250.015 C33.099,250.007 30.906,248.963 29.432,247.695 C26.884,245.504 26.838,245.305 28.495,243.648 C29.986,242.157 30.473,242.103 31.869,243.275 C37.224,247.772 48.682,247.878 55.014,243.49 C56.99,242.121 59.063,241 59.62,241 C62.505,241 81.726,217.984 80.499,215.998 C80.159,215.449 79.294,215 78.574,215 C77.855,215 75.069,214.144 72.383,213.097 C62.872,209.391 56.337,207.934 50.29,208.173 C41.203,208.532 38.499,205.41 43.535,200.374 C45.855,198.054 46.64,197.875 52.785,198.266 C62.831,198.906 72.051,200.787 76.174,203.037 C78.194,204.14 81.538,205.145 83.604,205.271 C85.013,205.357 85.889,205.44 86.611,205.144 C87.903,204.614 88.697,202.872 91.162,197.764 C91.623,196.809 92,194.951 92,193.636 C92,192.321 92.688,190.674 93.529,189.976 C94.782,188.936 95.007,186.433 94.779,176.104 C94.504,163.697 94.463,163.495 92.13,163.165 C90.507,162.935 88.614,163.911 86.13,166.257 C81.522,170.608 73.863,175.194 67.723,177.276 C65.096,178.168 61.773,179.82 60.338,180.948 C55.056,185.104 50.646,182.874 51.185,176.32 C51.44,173.23 52.074,172.212 54.5,170.991 C56.15,170.162 58.613,168.699 59.973,167.741 C61.332,166.784 63.485,166 64.756,166 C68.023,166 76.262,161.622 83.653,155.956 C87.123,153.297 90.749,150.68 91.71,150.142 C93.333,149.234 93.341,149.033 91.82,147.332 C90.867,146.266 89.962,142.991 89.656,139.5 C88.722,128.843 87.911,125.987 85.337,124.301 C83.208,122.906 82.943,122.076 83.203,117.623 C83.47,113.057 83.789,112.438 86.329,111.549 C88.783,110.69 89.406,110.886 91.029,113.029 C94.704,117.884 99.167,127.9 98.538,129.881 C98.197,130.954 98.387,132.121 98.959,132.475 C100.433,133.386 100.249,136.293 98.506,139.636 C95.526,145.35 97.224,146.672 102.182,142.5 C103.816,141.125 105.747,140 106.473,140 C107.479,140 107.813,137.443 107.877,129.25 C107.923,123.338 108.348,109.95 108.82,99.5 C109.823,77.326 109.189,22.262 107.902,19.834 C107.417,18.917 106.805,14.512 106.544,10.043 C106.282,5.575 105.801,1.488 105.475,0.96 Z M65.226,2.75 L64.043,0 L74.754,0 L76.791,4.75 C77.912,7.363 79.352,12.425 79.992,16 C80.632,19.575 81.578,23.902 82.094,25.615 C83.393,29.929 83.422,52.343 82.132,54.754 C81.553,55.836 80.968,59.731 80.832,63.41 C80.685,67.38 80.06,70.536 79.292,71.172 C78.582,71.762 78,74.295 78,76.801 C78,81.33 77.685,82.8 74.607,92.634 C73.723,95.458 73,98.725 73,99.895 C73,101.746 71.397,105.983 67.819,113.586 C67.279,114.734 66.969,116.309 67.131,117.086 C67.292,117.864 66.189,120.427 64.679,122.782 C63.17,125.137 61.004,128.849 59.866,131.032 C58.212,134.207 57.243,135 55.021,135 C49.575,135 48.7,130.038 53.066,123.907 C54.13,122.413 55,120.615 55,119.91 C55,119.205 55.827,117.7 56.838,116.564 C57.848,115.429 59.296,111.8 60.054,108.5 C60.812,105.2 62.46,100.564 63.716,98.197 C64.972,95.83 66,92.589 66,90.994 C66,89.399 66.523,86.946 67.162,85.543 C69.703,79.966 64.525,82.012 61.397,87.82 C60.354,89.758 56.318,94.642 52.429,98.672 C46.754,104.554 44.77,106 42.379,106 C38.539,106 37,104.39 37,100.373 C37,97.434 37.49,96.922 42.505,94.627 C46.098,92.981 48.334,91.252 48.945,89.645 C49.46,88.291 51.145,86.416 52.69,85.477 C54.236,84.538 57.183,81.586 59.241,78.916 C61.735,75.68 64.068,73.783 66.241,73.226 C69.33,72.433 69.541,72.079 70.284,66.445 C70.716,63.175 71.529,57.8 72.091,54.5 C73.43,46.647 73.406,24.627 72.056,22.104 C71.475,21.019 71,19.003 71,17.625 C71,16.246 70.55,14.84 70,14.5 C69.45,14.16 69,12.884 69,11.663 C69,10.443 68.417,8.557 67.705,7.473 C66.992,6.388 65.877,4.263 65.226,2.75 Z M55.408,29.442 C57.078,27.366 57.912,27.118 61.423,27.652 C66.354,28.403 67.606,29.295 68.45,32.659 C69.35,36.243 66.986,38.51 60.151,40.621 C57.043,41.581 53.507,42.997 52.294,43.769 C51.081,44.541 49.615,44.88 49.037,44.523 C47.113,43.334 44.876,37.903 45.19,35.184 C45.461,32.839 46.003,32.459 49.484,32.176 C52.234,31.952 54.07,31.104 55.408,29.442 Z M58.734,51.695 C59.666,50.763 60.682,50 60.992,50 C62.612,50 66,53.358 66,54.964 C66,57.257 56.455,66 53.951,66 C52.943,66 51.84,66.45 51.5,67 C50.627,68.412 46.437,68.244 45.26,66.75 C44.719,66.063 43.992,64.309 43.645,62.853 C42.738,59.049 45.499,56.282 51.769,54.711 C54.667,53.984 57.801,52.627 58.734,51.695 Z"/>
</svg>

