<svg xmlns="http://www.w3.org/2000/svg" width="300" height="300" viewBox="0 0 300 300" version="1.1">
  <defs/>
  <path d="M63.084,29.843 C65.582,25.176 73.767,30.23 72.567,35.697 C71.744,39.444 74.894,43 79.036,43 C82.543,43 90,49.2 90,52.116 C90,54.888 93.412,54.467 95,51.5 C96.07,49.501 97.106,49 100.169,49 C105.36,49 105.544,49.116 105.198,52.159 C105.032,53.621 105.349,55.097 105.901,55.439 C107.594,56.485 101.699,65.452 99.066,65.835 C97.798,66.02 93.495,69.511 89.504,73.594 C82.375,80.886 82.256,81.093 82.738,85.369 C83.078,88.386 82.729,90.484 81.601,92.206 C79.996,94.655 79.402,99.037 78.34,116.25 L77.801,125 L80.247,125 C81.592,125 84.139,124.279 85.906,123.397 C90.93,120.891 96.551,120.476 99.479,122.394 C101.668,123.828 102,124.771 102,129.543 C102,133.683 101.383,136.017 99.5,139 C98.125,141.178 97,143.786 97,144.796 C97,145.806 95.425,148.026 93.5,149.731 C90.996,151.947 90,153.666 90,155.769 C90,158.512 89.295,159.052 79.5,163.814 L69,168.919 L69,173.401 C69,175.865 68.565,178.151 68.033,178.48 C67.501,178.809 67.321,180.356 67.633,181.917 C67.954,183.519 67.722,185.054 67.101,185.438 C66.495,185.812 66,187.441 66,189.059 C66,191.626 66.363,192 68.85,192 C70.43,192 73.546,190.663 75.841,189 C78.119,187.35 80.863,186 81.94,186 C83.016,186 85.061,184.921 86.484,183.603 C88.01,182.188 89.83,181.404 90.924,181.69 C91.959,181.961 94.619,180.957 96.943,179.419 L101.108,176.663 L103.158,178.714 C106.249,181.804 104.795,184.398 96.557,190.49 L89.284,195.868 L88.775,202.214 C88.238,208.903 84.397,217.589 79.661,222.822 C77.345,225.381 77.562,226.453 80.975,229.325 C85.094,232.791 90.341,234.318 96.2,233.755 C100.707,233.322 101.76,232.689 107.583,226.918 C111.112,223.42 114,220.177 114,219.712 C114,219.247 115.079,217.434 116.398,215.683 C119.009,212.216 126,198.848 126,197.321 C126,196.801 126.993,194.379 128.207,191.938 C130.467,187.395 132.958,181.061 132.985,179.789 C133.015,178.358 128.359,174.749 122.899,171.971 C119.818,170.404 115.993,168.057 114.399,166.756 C112.805,165.454 109.577,163.777 107.227,163.027 C102.149,161.408 100.388,157.653 103.603,155.3 C106.828,152.938 112.762,154.748 123.448,161.352 C128.92,164.733 134.265,167.844 135.327,168.265 C138.025,169.335 140,167.363 140,163.6 C140,161.865 140.59,159.557 141.31,158.473 C143.72,154.845 145.023,148.583 145.465,138.5 C145.706,133 146.135,126.18 146.418,123.345 C147.236,115.163 143.211,113.686 138.939,120.599 C137.783,122.47 136.214,124 135.454,124 C132.08,124 130.856,116.078 133.62,112.133 C134.929,110.263 135.019,109.338 134.09,107.298 C133.223,105.394 133.225,104.434 134.1,103.38 C134.756,102.589 135.021,100.518 134.711,98.61 C134.41,96.754 134.592,94.808 135.115,94.285 C136.838,92.562 136.994,69.126 135.326,62.5 C132.878,52.769 132.705,51.061 134.008,49.491 C135.8,47.331 140.012,47.662 142.686,50.174 C144.586,51.96 145,53.38 145,58.115 C145,61.287 145.498,64.19 146.108,64.567 C146.817,65.005 146.97,66.736 146.535,69.376 C146.161,71.644 145.638,76.394 145.374,79.932 C145.109,83.47 144.596,86.845 144.232,87.432 C143.3,88.94 143.007,103 143.908,103 C144.317,103 145.742,101.832 147.076,100.405 C148.409,98.978 150.719,97.176 152.209,96.4 C154.897,95.002 157.26,93 164,86.413 C165.925,84.532 168.302,82.994 169.283,82.996 C170.264,82.998 172.587,81.48 174.445,79.622 C177.036,77.031 178.427,76.359 180.412,76.738 C182.703,77.176 183,77.711 183,81.401 C183,84.987 182.574,85.82 179.949,87.371 C178.27,88.363 174.661,92.019 171.929,95.496 C169.196,98.973 165.732,102.251 164.23,102.781 C162.729,103.31 160.428,104.618 159.118,105.687 C156.924,107.479 156.749,108.294 156.895,116.066 C156.982,120.705 156.5,131.661 155.825,140.413 C154.758,154.228 154.31,156.668 152.424,158.913 C151.23,160.336 149.988,163.3 149.664,165.5 C149.341,167.7 148.786,171.181 148.431,173.235 C147.836,176.673 148.036,177.11 150.946,178.735 C155.877,181.489 166.963,189.638 172.808,194.807 C175.728,197.388 180.453,201.567 183.308,204.094 C186.164,206.621 190.262,209.863 192.416,211.299 C195.78,213.542 202.113,219.326 225.381,241.41 C233.094,248.73 242.526,256.688 245.158,258.096 C249.451,260.391 269,279.633 269,281.563 C269,282.542 268.255,284.165 267.345,285.171 C263.968,288.902 261.603,287.553 248.205,274.25 C241.142,267.238 230.894,257.795 225.432,253.267 C219.969,248.739 214.825,244.254 214,243.301 C213.175,242.349 210.25,239.528 207.5,237.034 C204.75,234.54 200.25,230.134 197.5,227.242 C194.75,224.35 192.105,221.987 191.621,221.992 C191.138,221.996 189.019,220.537 186.913,218.75 C177.769,210.99 176.473,210 175.453,210 C174.861,210 173.378,208.65 172.158,207 C170.938,205.35 169.5,204 168.962,204 C168.424,204 165.173,201.187 161.738,197.75 C158.302,194.313 152.875,190.15 149.676,188.5 L143.86,185.5 L140.957,189 C139.36,190.925 138.039,193.175 138.022,194 C138.004,194.825 136.881,197.3 135.526,199.5 C134.171,201.7 133.048,204.294 133.031,205.264 C132.998,207.158 131.567,210.028 128.721,213.915 C127.742,215.251 126.105,218.179 125.083,220.422 C121.414,228.477 112.964,237.631 107.759,239.19 L103.767,240.386 L104.336,245.193 C104.856,249.581 104.724,250 102.821,250 C101.674,250 99.333,249.141 97.618,248.091 C95.903,247.042 92.475,245.65 90,244.998 C87.525,244.347 84.758,243.152 83.85,242.343 C82.668,241.288 81.141,241.07 78.459,241.574 C75.247,242.176 74.45,241.937 72.835,239.888 L70.954,237.5 L67.893,241 C66.209,242.925 64.431,245.512 63.941,246.75 C63.45,247.988 62.418,249 61.646,249 C60.874,249 58.128,251.475 55.544,254.5 C52.96,257.525 50.288,260 49.607,260 C48.925,260 46.974,261.575 45.269,263.5 C43.227,265.807 41.285,267 39.572,267 C38.142,267 36.139,267.521 35.119,268.158 C32.107,270.039 29.824,268.501 30.186,264.835 C30.42,262.468 31.314,261.204 33.687,259.884 C37.739,257.63 49,246.591 49,244.874 C49,244.16 50.85,241.69 53.112,239.386 L57.223,235.197 L53.099,231.47 C48.263,227.102 47.296,224.29 49.276,220.358 C50.067,218.786 50.992,216.037 51.332,214.25 C51.915,211.185 51.784,211 49.032,211 C47.427,211 42.084,212.35 37.159,214 C32.234,215.65 27.314,217 26.225,217 C25.136,217 23.685,217.675 23,218.5 C21.17,220.705 16.287,220.405 15.005,218.009 C13.648,215.473 15.784,211.027 19.543,208.564 C20.998,207.611 26.448,205.776 31.656,204.486 C36.864,203.197 41.704,201.66 42.413,201.072 C43.122,200.484 45.791,199.716 48.345,199.366 C54.386,198.538 55.759,195.877 56.513,183.534 L57.079,174.269 L52.329,173.734 C49.078,173.367 47.014,172.501 45.789,170.988 C43.467,168.12 43.52,167.62 46.5,164.405 C47.875,162.922 49,161.354 49,160.921 C49,160.489 50.004,159.816 51.231,159.427 C53.588,158.679 59.057,155.111 60.144,153.612 C61,152.432 62.191,144.857 61.611,144.278 C60.459,143.125 44,156.806 44,158.916 C44,159.527 43.583,160.809 43.073,161.764 C42.563,162.719 41.902,164.287 41.604,165.25 C41.225,166.474 40.025,167 37.608,167 C33.307,167 29.451,163.893 24.506,156.442 C21.625,152.103 20.428,151.047 18.929,151.522 C17.88,151.856 16.016,151.424 14.788,150.564 C13.56,149.704 11.323,149 9.816,149 C6.382,149 3,145.486 3,141.918 C3,136.551 9.871,136.615 20.537,142.08 C24.917,144.324 29.181,146.912 30.014,147.83 C34.101,152.339 34.271,152.307 41.152,145.725 C45.001,142.042 49.873,138.539 53.08,137.147 C67.038,131.088 66.961,131.188 67.29,118.581 L67.5,110.5 L63.749,110.5 C61.686,110.5 59.999,110.207 59.999,109.848 C60,109.489 58.698,108.742 57.106,108.187 C54.586,107.308 54.123,106.527 53.519,102.135 C53.137,99.361 53.147,96.571 53.541,95.934 C55.668,92.492 45.045,93.502 41.733,97.056 C40.625,98.245 38.601,99 36.52,99 C34.649,99 32.84,99.45 32.5,100 C32.16,100.55 30.327,101 28.427,101 C26.527,101 24.191,101.485 23.236,102.077 C20.31,103.891 16.331,101.706 15.784,97.985 C15.152,93.674 17.45,91.215 23.25,89.997 C25.863,89.449 29.991,88.57 32.424,88.044 C34.857,87.519 39.807,85.747 43.424,84.107 C49.466,81.367 50,80.874 50,78.031 C50,76.328 49.325,73.32 48.5,71.346 C47.675,69.371 47,66.834 47,65.707 C47,64.58 46.387,62.947 45.637,62.079 C41.471,57.254 40.191,47.884 43.203,44.256 C44.856,42.264 47.96,42.794 49.022,45.25 C49.557,46.487 50.398,48.175 50.891,49 C51.383,49.825 52.275,51.737 52.872,53.25 C54.314,56.905 56.841,56.65 60.285,52.501 C63.214,48.972 63.49,47.217 62.627,37.593 C62.336,34.344 62.542,30.856 63.084,29.843 Z M71.638,203.445 C70.159,205.042 68.637,205.798 67.659,205.423 C65.575,204.623 61,209.553 61,212.599 C61,213.868 60.47,216.069 59.823,217.49 C58.432,220.542 59.996,222.756 63.871,223.218 C65.713,223.438 66.978,222.43 69.617,218.641 C71.478,215.968 73,212.883 73,211.785 C73,210.686 74.149,208.884 75.554,207.779 C78.432,205.515 78.555,201.721 75.767,201.19 C74.814,201.009 72.956,202.023 71.638,203.445 Z M76.728,139.603 C74.592,141.803 73.003,144.591 72.652,146.76 C71.63,153.053 73.679,153.623 79.801,148.75 C83.366,145.912 90,137.95 90,136.509 C90,136.229 87.801,136 85.114,136 C80.818,136 79.806,136.435 76.728,139.603 Z M60.655,67.829 C57.195,71.652 59.995,76.234 64.53,74.168 C67.272,72.919 67.44,72.289 66.025,68.565 C64.877,65.547 62.958,65.284 60.655,67.829 Z M63.345,88.543 C63.019,89.392 63.014,90.347 63.333,90.667 C64.342,91.676 67,90.128 67,88.531 C67,86.535 64.112,86.545 63.345,88.543 Z M76,61.583 C76,64.716 78.348,64.373 78.82,61.172 C79.032,59.729 78.612,59 77.57,59 C76.549,59 76,59.903 76,61.583 Z"/>
</svg>

