<svg xmlns="http://www.w3.org/2000/svg" width="300" height="300" viewBox="0 0 300 300" version="1.1">
  <defs/>
  <path d="M124.034,69.464 C126.941,66.369 127.351,66.387 130.46,69.74 C132.414,71.847 133,73.539 133,77.073 C133,79.6 133.338,82.004 133.75,82.416 C134.441,83.107 134.8,86.634 135.308,97.698 C135.64,104.954 137.065,105.037 144.699,98.25 C148.439,94.924 152.591,91.032 153.924,89.601 C155.258,88.171 156.896,87 157.565,87 C158.235,87 160.96,85.2 163.623,83 C168.973,78.579 170.12,78.263 172.429,80.571 C175.468,83.611 174.278,86.262 166.846,93.007 C155.649,103.17 155,103.968 155,107.587 C155,109.399 155.422,111.143 155.937,111.461 C156.762,111.971 157.256,120.061 157.221,132.5 C157.195,141.682 154.53,155.532 152.228,158.448 C150.979,160.03 149.706,162.489 149.4,163.912 C149.095,165.336 148.324,167.568 147.688,168.873 C146.651,170.999 146.892,171.552 150.015,174.207 C151.932,175.837 155.83,178.68 158.677,180.526 C163.255,183.493 202.346,221.849 218.5,239.223 C221.8,242.772 227.65,248.29 231.5,251.485 C235.35,254.68 238.95,258.27 239.5,259.462 C240.05,260.654 245.563,266.521 251.75,272.499 C263.386,283.742 265.115,286.798 261.066,288.965 C255.946,291.705 252.399,290.044 245.5,281.677 C243.85,279.676 240.8,276.18 238.721,273.908 C236.643,271.636 233.595,267.819 231.948,265.425 C230.301,263.031 226.517,259.087 223.538,256.661 C220.56,254.234 215.058,248.95 211.311,244.918 C199.178,231.857 164.614,197.548 160.5,194.482 C158.3,192.842 155.68,190.488 154.677,189.25 C153.675,188.012 152.228,187 151.463,187 C150.697,187 149.594,186.11 149.012,185.023 C147.408,182.025 144.387,180.723 142,182 C140.9,182.589 140,183.496 140,184.016 C140,184.536 138.425,187.423 136.5,190.433 C134.575,193.442 133,197.012 133,198.367 C133,199.722 132.105,201.881 131.012,203.165 C125.771,209.32 121,215.905 121,216.984 C121,217.643 119.425,220.022 117.5,222.271 C115.575,224.52 114,226.897 114,227.554 C114,228.211 112.537,230.363 110.75,232.335 C108.963,234.308 106.756,237.251 105.846,238.875 C103.627,242.837 100.306,244.859 94.775,245.617 C90.493,246.204 89.945,246.012 86.72,242.787 C84.817,240.884 82.511,238.183 81.594,236.784 C80.037,234.407 80.038,234.199 81.62,233.592 C82.654,233.195 84.149,233.731 85.47,234.972 C86.657,236.087 88.092,237 88.659,237 C90.99,237 101.787,226.192 108.478,217.16 C115.923,207.112 123,195.951 123,194.259 C123,193.72 124.119,191.63 125.487,189.614 C126.856,187.598 128.246,184.868 128.577,183.548 C128.909,182.227 130.039,180.369 131.09,179.419 C133.264,177.451 133.606,173.606 131.75,171.99 C131.063,171.392 128.25,169.348 125.5,167.449 C122.75,165.551 117.141,161.635 113.035,158.749 C108.929,155.862 103.529,152.343 101.035,150.928 C95.944,148.042 94.843,145.177 98.058,143.185 C99.843,142.08 101.039,142.141 105.578,143.568 C108.547,144.502 111.487,145.881 112.11,146.633 C112.734,147.385 113.664,148 114.176,148 C115.043,148 125.361,155.553 132.732,161.584 C136.15,164.381 138.633,164.269 139.643,161.273 C139.972,160.298 141.083,157.678 142.112,155.452 C143.141,153.225 144.274,149.175 144.63,146.452 C144.985,143.728 145.681,140.984 146.175,140.354 C147.141,139.121 147.57,130.636 147.218,119.719 C147.047,114.407 146.634,112.797 145.31,112.289 C144.342,111.917 143.444,112.169 143.207,112.878 C142.981,113.558 141.154,116.077 139.147,118.475 C137.141,120.872 134.176,124.671 132.558,126.917 C130.175,130.224 129.011,131 126.431,131 C121.611,131 120.37,128.855 122.531,124.257 C123.501,122.19 124.696,120.238 125.186,119.918 C125.675,119.597 126.137,113.972 126.212,107.418 C126.341,96.195 125.225,86.038 122.785,76.214 C121.817,72.321 121.932,71.701 124.034,69.464 Z M80,114.345 C80,112.047 82.487,110.978 83.167,112.985 C83.379,113.613 84.868,113.549 87.275,112.809 C92.185,111.3 93.279,112.405 92.388,117.976 C91.68,122.402 90.985,123.276 85,127.266 L81.5,129.599 L81.5,137.549 C81.5,142.47 82.025,146.418 82.878,147.91 C83.811,149.543 84.295,154.135 84.378,162.159 C84.455,169.663 84.883,173.999 85.547,173.999 C86.826,174 98,162.297 98,160.957 C98,159.437 99.447,159.836 101.767,161.997 L103.911,163.995 L101.634,168.747 C97.841,176.665 95.696,179.749 92.781,181.47 C91.252,182.374 90,183.56 90,184.106 C90,184.652 87.304,187.889 84.009,191.299 C80.714,194.71 78.014,198.199 78.009,199.054 C77.998,200.948 72.43,206.467 69,207.982 C67.625,208.589 65.375,209.732 64,210.521 C59.519,213.093 54,209.79 54,204.536 C54,200.894 55.466,198.623 59,196.789 C63.77,194.315 71.748,187.484 73.426,184.439 C74.757,182.021 75.118,178.657 75.141,168.439 C75.157,161.322 74.682,153.928 74.085,152.007 C73.488,150.085 73,146.423 73,143.867 C73,140.916 72.362,138.449 71.25,137.103 C69.63,135.142 69.292,135.094 66.708,136.455 C61.972,138.948 57.517,139.374 55.654,137.511 C54.744,136.601 54,135.073 54,134.116 C54,131.5 58.914,127.392 64.12,125.654 C73.712,122.453 80,117.974 80,114.345 Z"/>
</svg>

