<svg xmlns="http://www.w3.org/2000/svg" width="300" height="300" viewBox="0 0 300 300" version="1.1">
  <defs/>
  <path d="M154.026,75.127 C155.747,73.407 157.762,72 158.504,72 C160.331,72 164,76.808 164,79.202 C164,81.338 159.314,88 157.81,88 C156.293,88 129.213,112.2 124.651,117.632 C122.305,120.426 122.141,121.106 123.131,123.945 C123.918,126.202 123.941,128.634 123.211,132.313 C122.578,135.505 122.538,137.932 123.107,138.622 C124.282,140.047 135.043,144 137.747,144 C139.039,144 143.543,140.067 150.015,133.29 C160.777,122.018 163.135,118.831 169.079,107.532 C171.094,103.7 173.48,100.1 174.38,99.532 C176.919,97.931 181.202,100.839 182.247,104.875 C183.165,108.415 183.036,108.939 180.239,113.065 C179.283,114.476 177.6,116.972 176.5,118.611 C175.4,120.25 171.032,124.872 166.792,128.882 C158.004,137.196 147.649,149.459 148.158,150.951 C148.346,151.503 152.325,156.104 157,161.176 C167.849,172.945 172.364,178.052 178.507,185.5 C181.229,188.8 183.702,191.725 184.004,192 C186.057,193.871 195.47,205.669 199.485,211.402 C205.244,219.626 210.705,225 213.304,225 C216.674,225 221,228.875 221,231.894 C221,235.184 216.816,239.607 214.824,238.422 C208.904,234.902 194.613,221.135 188.038,212.619 C183.741,207.053 178.562,200.7 176.528,198.5 C174.495,196.3 171.601,192.567 170.098,190.205 C166.489,184.535 142.069,160 140.034,160 C139.16,160 137.433,159.291 136.196,158.425 C134.96,157.559 131.414,156.589 128.318,156.269 L122.688,155.688 L123.29,158.698 C123.621,160.354 123.496,162.111 123.012,162.604 C122.528,163.097 121.938,167.775 121.701,173 C121.463,178.225 120.93,183.74 120.517,185.256 C119.524,188.895 121.425,191.378 124.105,189.944 C125.147,189.386 126,188.345 126,187.632 C126,185.477 141.513,169.581 142.824,170.392 C144.74,171.575 144.173,175.084 141.5,178.589 C140.125,180.392 139,182.952 139,184.278 C139,185.605 138.047,187.547 136.881,188.595 C135.716,189.643 132.759,193.302 130.31,196.728 C126.204,202.469 118.463,209 115.764,209 C115.14,209 113.587,208.022 112.314,206.826 C109.757,204.423 109.38,200.777 110.962,193.764 C112.772,185.747 114.119,167.51 114.196,150 C114.294,127.58 114.394,123.844 112.795,122.856 C112.396,122.609 111.889,122.534 111.25,122.381 C107.47,121.478 105.994,120.134 106.032,117.628 C106.071,115.002 108.245,112.001 110.11,111.997 C110.875,111.996 117.125,107.972 124,103.054 C146.575,86.907 149.686,84.32 150.316,81.169 C150.637,79.566 152.306,76.847 154.026,75.127 Z M63.352,109.202 C63.887,108.488 65.264,108.038 66.412,108.202 C68.244,108.463 68.537,109.288 68.802,114.917 C68.968,118.447 68.65,122.497 68.095,123.917 C67.54,125.338 66.954,128.525 66.793,131 C66.472,135.937 66.896,136.162 73.614,134.617 C77.866,133.639 81.754,137.028 85.79,145.225 C88.738,151.214 88.874,152.008 88.411,160.521 C87.929,169.376 87.613,170.835 83.683,182.3 C81.291,189.281 71.337,200.569 66.373,201.932 C60.563,203.526 50.859,196.617 48.955,189.529 C48.192,186.689 45.623,186.995 45.01,190 C44.729,191.375 43.64,193.769 42.589,195.32 C41.538,196.871 39.963,199.571 39.089,201.32 C37.989,203.522 36.669,204.596 34.799,204.812 C27.575,205.645 25.619,199.467 31.313,193.798 C35.242,189.886 39.045,183.404 41.462,176.5 C42.424,173.75 43.578,170.6 44.026,169.5 C44.473,168.4 46.039,164.24 47.505,160.257 C48.971,156.273 50.582,152.759 51.085,152.448 C51.588,152.136 52,150.552 52,148.927 C52,147.302 52.408,145.191 52.906,144.236 C54.023,142.096 56.485,132.522 57.981,124.5 C59.095,118.525 61.501,111.673 63.352,109.202 Z M126.201,10.257 C127.614,8.556 129.577,8.676 132.588,10.65 C134.877,12.149 135.058,12.765 134.576,17.4 C132.199,40.23 131.548,44.829 130.357,47.2 C128.733,50.433 128.601,53 130.059,53 C130.641,53 135.334,49.192 140.488,44.537 C152.554,33.639 156.205,32.657 159.975,39.295 C161.347,41.711 161.277,42.08 158.975,44.575 C157.614,46.051 154.947,47.919 153.048,48.727 C151.149,49.535 146.424,52.76 142.548,55.895 C135.038,61.967 131.952,63.742 128.084,64.208 C126.328,64.42 125.348,65.456 124.496,68 C123.851,69.925 122.538,71.653 121.579,71.839 C120.014,72.144 119.886,71.427 120.323,64.839 C121.205,51.559 122.099,43.538 122.981,41 C123.459,39.625 124.144,32.428 124.504,25.007 C124.863,17.587 125.627,10.949 126.201,10.257 Z M87.192,76.434 C88.85,74.545 90.825,73 91.581,73 C93.924,73 96.153,77.566 95.815,81.674 C95.524,85.206 95.062,85.73 89.795,88.5 C83.946,91.575 69.856,100.207 64.5,103.996 C62.85,105.163 59.102,107.884 56.172,110.042 C53.241,112.201 48.966,114.468 46.672,115.081 C44.377,115.694 40.475,117.059 38,118.114 C31.826,120.745 23.838,122.11 22.262,120.803 C20.729,119.53 21.619,115.131 23.871,112.852 C25.229,111.477 31.567,108.491 42.5,104.074 C48.08,101.82 71.284,90.356 76.74,87.158 C80.173,85.146 83.25,82.683 83.579,81.684 C83.907,80.686 85.533,78.323 87.192,76.434 Z M67.339,151.602 C65.47,153.584 63.303,156.734 62.522,158.602 C61.741,160.471 60.474,162 59.706,162 C57.675,162 55,165.312 55,167.828 C55,169.022 53.814,172.137 52.364,174.749 L49.727,179.5 L53.896,185.75 C57.793,191.594 58.306,191.995 61.782,191.928 C64.703,191.871 66.054,191.174 68.085,188.678 C71.054,185.028 75.185,177.138 76.855,171.929 C78.398,167.118 78.358,150.758 76.8,149.2 C74.545,146.945 70.845,147.884 67.339,151.602 Z M63.587,51.634 C64.84,48.369 75,50.902 75,54.48 C75,55.168 75.803,56.803 76.786,58.115 C79.704,62.013 81.152,69.265 79.792,73.172 C76.935,81.378 66.71,90.793 63.087,88.554 C61.338,87.473 61.834,84.585 64,83.232 C65.1,82.545 66,81.528 66,80.972 C66,80.415 67.125,78.178 68.5,76 C71.818,70.744 71.631,68.267 67.566,63.609 C64.124,59.665 62.444,54.612 63.587,51.634 Z"/>
</svg>

