<svg xmlns="http://www.w3.org/2000/svg" width="300" height="300" viewBox="0 0 300 300" version="1.1">
  <defs/>
  <path d="M124.5,158.668 C128.658,157.762 129.816,158.071 131.415,160.51 C133.485,163.67 132.407,165.973 127.502,168.866 C123.359,171.311 122.271,173.417 124.046,175.555 C124.744,176.397 125.285,179.12 125.247,181.608 C125.2,184.734 125.638,186.307 126.664,186.701 C128.515,187.412 135.971,185.272 138.039,183.437 C139.969,181.725 152.799,175 154.136,175 C154.68,175 157.46,173.892 160.313,172.538 C167.483,169.135 173.727,167.568 178.785,167.903 C181.142,168.059 183.708,167.657 184.487,167.01 C186.26,165.539 189.589,166.521 190.512,168.788 C193.592,176.36 192.605,178.912 185.819,180.92 C183.443,181.622 180.825,182.773 180,183.476 C177.671,185.462 169.492,186.324 167.108,184.836 C165.499,183.83 164.387,183.82 161.719,184.785 C159.871,185.453 157.458,186 156.357,186 C155.257,186 152.589,187.337 150.428,188.972 C148.039,190.78 145.263,191.955 143.345,191.972 C140.038,192.001 132.073,197.692 130.894,200.868 C130.033,203.188 130.541,210.773 131.887,215.667 C132.517,217.958 133.198,222.529 133.4,225.824 C133.602,229.119 134.127,232.396 134.565,233.106 C135.824,235.142 136.063,271.22 134.827,272.708 C134.246,273.409 133.998,275.448 134.277,277.241 C134.555,279.033 134.415,282.75 133.965,285.5 C133.515,288.25 132.862,292.637 132.512,295.25 L131.877,300 L126.404,300 C121.514,300 121.026,299.813 121.831,298.25 C122.326,297.288 123.046,294.036 123.43,291.025 C123.814,288.014 124.605,284.976 125.187,284.275 C126.614,282.555 125.569,229.961 123.999,224.5 C123.367,222.3 122.461,218.7 121.986,216.5 C119.312,204.1 118.23,202.975 112.82,206.975 C111.206,208.168 108.226,209.414 106.197,209.743 C104.169,210.072 100.311,211.638 97.624,213.222 C94.937,214.806 91.438,216.362 89.848,216.68 C88.259,216.998 86.716,217.65 86.42,218.129 C86.124,218.608 84.424,219 82.641,219 C80.858,219 78.973,219.383 78.45,219.851 C77.927,220.319 73.588,221.287 68.807,222.003 C60.94,223.181 59.866,223.143 57.512,221.6 C54.041,219.326 53.095,216.456 53.954,210.803 C55.136,203.017 59.5,200.097 59.5,207.092 C59.5,210.347 59.68,210.515 63.5,210.826 C67.457,211.149 69.815,210.647 81.5,206.994 C89.029,204.64 92.933,203.285 100.5,200.399 C103.8,199.14 107.625,197.807 109,197.437 C113.438,196.242 115,194.063 115,189.068 C115,186.502 114.307,183.456 113.443,182.223 C111.636,179.642 107.484,179.319 104.559,181.532 C101.695,183.698 100.765,183.414 95.652,178.82 C90.565,174.249 89.874,171.604 92.867,168.153 C95.37,165.267 96,165.437 96,169 C96,172.477 97.926,172.894 103.41,170.602 C107.425,168.925 108.46,167.454 108.183,163.821 C107.903,160.143 110.677,158.643 114.982,160.144 C117.261,160.938 118.776,160.947 120.331,160.177 C121.524,159.587 123.4,158.907 124.5,158.668 Z M55,1.826 C55,0.246 55.873,0 61.481,0 C64.697,0 66.417,-0.103 67.426,0.694 C68.71,1.709 68.842,4.182 69.438,10.183 C69.768,13.512 69.527,17.032 68.856,18.683 C68.226,20.232 67.367,23.525 66.947,26 C65.715,33.264 63.476,41.36 61.818,44.541 C59.523,48.947 57.984,54.165 58.657,55.254 C58.984,55.783 60.984,55.938 63.101,55.6 C66.275,55.092 67.651,55.468 70.938,57.742 C74.865,60.459 74.925,60.594 74.962,66.817 C74.994,72.145 74.585,73.678 72.347,76.611 L69.694,80.089 L72.902,83.399 C74.666,85.219 76.872,88.236 77.805,90.103 C78.737,91.97 80.85,94.118 82.5,94.876 C84.15,95.633 86.695,97.365 88.156,98.724 C91.523,101.855 93.886,101.194 98.029,95.963 C102.103,90.819 109.738,86.99 115.832,87.033 C121.489,87.074 124.444,89.238 125.401,94.044 C128.2,108.094 125.478,115.704 114.951,123.259 C113.603,124.226 111.048,126.17 109.274,127.578 C104.611,131.278 101.071,130.61 99.384,125.713 C98.573,123.361 95.425,119.354 91.073,115.139 C83.424,107.728 79.354,105.246 77.648,106.952 C75.322,109.278 73.297,107.933 71.023,102.553 C68.485,96.55 66.578,95.167 64.027,97.476 C61.172,100.059 58.394,99.199 53.091,94.088 C47.505,88.704 47.29,86.792 52.08,85.122 C53.989,84.456 55,83.414 55,82.111 C55,81.015 55.45,79.84 56,79.5 C56.55,79.16 57,78.201 57,77.37 C57,76.538 57.675,75.182 58.5,74.357 C62.129,70.728 58.519,68.898 53.657,71.903 C41.809,79.226 39.26,65.796 49.5,50 C52.872,44.798 59.013,22.722 59.549,13.873 C59.847,8.957 59.581,7.955 57.445,5.948 C56.1,4.685 55,2.83 55,1.826 Z M143.435,2.596 C142.806,0.089 142.938,0 147.283,0 C151.234,0 151.859,0.301 152.403,2.469 C152.986,4.794 152.21,9.995 150.084,18 C149.573,19.925 148.619,25.325 147.964,30 C147.309,34.675 146.149,39.497 145.387,40.715 C141.718,46.575 146.571,46.474 155.657,40.502 C163.791,35.155 167.636,34.636 168.619,38.75 C168.98,40.263 169.695,42.034 170.207,42.686 C170.79,43.428 170.74,44.618 170.073,45.864 C169.487,46.959 169.287,48.586 169.63,49.478 C169.993,50.425 169.417,52.019 168.25,53.301 C167.148,54.51 165.943,57.206 165.571,59.291 C164.85,63.329 162.541,68.749 158.493,75.907 C156.1,80.138 155.082,87 156.848,87 C157.783,87 167.587,76.592 170.061,72.972 C171.766,70.48 174.733,70.621 178.5,73.375 C180.213,74.628 180.516,76.067 180.61,83.403 L180.72,91.968 L177.11,94.155 C175.124,95.357 172.273,96.231 170.773,96.098 C169.273,95.964 167.473,96.223 166.773,96.673 C165.025,97.798 155.217,99.857 151.235,99.936 C148.592,99.988 147.594,99.382 145.989,96.75 C143.875,93.282 143.226,84.596 145,83.5 C145.55,83.16 146,81.81 146,80.5 C146,79.19 146.438,77.847 146.973,77.517 C148.201,76.758 150.411,71.736 151.879,66.369 C152.501,64.096 153.682,61.679 154.505,60.996 C155.327,60.314 156,58.775 156,57.578 C156,56.38 156.501,54.899 157.113,54.287 C158.393,53.007 157.482,51 155.621,51 C154.927,51 152.567,52.535 150.375,54.411 C142.553,61.106 134.141,64.655 132.477,61.962 C131.462,60.32 131.639,50.589 132.723,48.444 C135.845,42.267 137.025,38.827 138.022,33 C138.633,29.425 139.559,25.709 140.08,24.742 C140.601,23.775 141.307,19.5 141.65,15.242 C141.993,10.984 142.682,6.981 143.18,6.346 C143.678,5.711 143.793,4.023 143.435,2.596 Z M36.251,112.491 C41.359,110.27 43.931,110.705 48.132,114.5 C52.627,118.561 53.878,118.722 59.569,115.967 C61.88,114.848 66.009,113.668 68.746,113.344 C73.448,112.787 73.951,112.961 77.861,116.494 C80.138,118.55 82,120.866 82,121.641 C82,122.416 83.125,123.477 84.5,124 C85.875,124.523 87,125.423 87,126 C87,126.577 85.875,127.477 84.5,128 C83.125,128.523 82,129.72 82,130.661 C82,132.942 78.094,137 75.898,137 C72.847,137 69.88,132.157 70.595,128.345 L71.223,125 L66.734,125 C62.14,125 60.488,126.056 59.858,129.393 C59.281,132.443 56.645,133.512 52.328,132.445 C49.492,131.745 48.418,130.922 48.183,129.27 C47.843,126.877 43.183,123 40.647,123 C39.797,123 37.925,124.542 36.488,126.427 C34.244,129.369 33.918,130.669 34.187,135.613 C34.483,141.068 34.348,141.455 31.62,142.936 C29.365,144.161 28.64,144.223 28.278,143.224 C28.024,142.522 25.856,139.652 23.461,136.846 C21.066,134.04 18.403,130.261 17.542,128.447 C16.681,126.634 13.864,123.29 11.281,121.016 C6.094,116.451 6.129,114.457 11.425,112.692 C14.971,111.51 18.302,113.787 22.5,120.263 C26.074,125.777 28.302,126.22 29.97,121.75 C30.637,119.963 31.592,117.466 32.092,116.201 C32.592,114.937 34.464,113.267 36.251,112.491 Z M100.463,2.961 L97.551,-0.078 L107.526,0.211 L117.5,0.5 L118.837,4.724 C120.072,8.628 120.01,9.177 118.019,11.974 C116.632,13.922 114.997,15 113.432,15 C110.541,15 110.119,17.586 112.868,18.458 C118.075,20.111 119.113,27.246 114.407,29.035 C113.124,29.523 110.262,31.122 108.045,32.589 C105.829,34.055 101.875,35.652 99.258,36.136 C96.641,36.621 93.253,37.934 91.729,39.054 C88.926,41.114 87,40.935 87,38.615 C87,37.919 85.929,36.342 84.62,35.113 C82.262,32.898 82.256,32.833 83.9,28.188 C85.132,24.707 86.415,23.069 88.882,21.826 C90.71,20.905 92.861,19.216 93.662,18.072 C94.688,16.607 95.79,16.16 97.387,16.561 C99.054,16.979 101.019,16.052 104.797,13.066 C110.356,8.672 110.842,6 106.08,6 C104.371,6 102.301,4.88 100.463,2.961 Z M47.801,252.741 C53.373,248.456 54.752,248.218 55.938,251.337 C56.427,252.623 61.097,257.327 66.317,261.792 C71.536,266.256 78.431,273.192 81.639,277.204 C84.848,281.217 90.929,287.988 95.154,292.25 L102.835,300 L95.903,300 C89.313,300 88.883,299.856 87.193,297.077 C86.215,295.469 82.734,291.132 79.457,287.44 C76.181,283.748 73.313,280.226 73.084,279.614 C72.355,277.664 64.173,270.19 62.019,269.506 C60.879,269.144 59.235,267.762 58.364,266.433 C57.481,265.086 55.089,263.563 52.951,262.987 C50.596,262.353 48.879,261.194 48.493,259.978 C48.148,258.89 47.022,258 45.992,258 C42.518,258 43.077,256.375 47.801,252.741 Z M100,39.331 C105.029,36.98 107.116,37.955 108.38,43.245 C108.872,45.304 108.531,46.421 107.018,47.717 C105.908,48.667 104.986,50.132 104.968,50.972 C104.951,51.813 104.276,53.374 103.468,54.441 C101.697,56.782 101.533,63.133 103.2,64.8 C103.86,65.46 105.799,66 107.509,66 C109.219,66 111.474,66.626 112.521,67.392 C114.138,68.574 114.224,69.025 113.09,70.392 C112.356,71.276 110.694,72 109.397,72 C107.728,72 106.858,72.716 106.424,74.447 C105.736,77.186 102.061,80 99.17,80 C98.125,80 96.126,79.1 94.727,78 C93.329,76.9 91.714,76 91.139,76 C90.199,76 88.02,70.062 88.006,67.462 C88.003,66.891 89.332,64.866 90.959,62.962 C94.46,58.867 94.479,58.714 92.332,52.065 L90.664,46.9 L94.082,43.7 C95.962,41.94 98.625,39.974 100,39.331 Z M184.59,97.901 C185.536,96.855 187.365,96 188.655,96 C190.459,96 191,96.55 191,98.383 C191,99.926 191.706,100.951 193,101.29 C195.6,101.97 195.562,105.016 192.912,108.385 C188.43,114.083 180.417,115.972 177.261,112.074 C175.506,109.907 175.026,109.795 172.001,110.85 C169.51,111.718 167.768,111.727 165.086,110.883 C159.075,108.993 158.5,108.471 158.5,104.891 C158.5,101.152 158.771,101.091 168.769,102.578 C171.194,102.939 173.569,102.774 174.269,102.196 C174.946,101.637 177.158,100.869 179.185,100.49 C181.211,100.112 183.643,98.947 184.59,97.901 Z M120.469,134.5 C120.968,132.901 122.855,132.557 124.5,133.765 C126.772,135.435 130.039,141.127 129.358,142.23 C126.107,147.489 120.627,151 115.667,151 C114.003,151 111.152,151.539 109.331,152.197 C106.261,153.307 105.802,153.185 103.01,150.51 C101.355,148.924 100,147.266 100,146.825 C100,145.514 113.739,139 116.506,139 C117.912,139 119.274,138.325 119.531,137.5 C119.789,136.675 120.211,135.325 120.469,134.5 Z M132.667,105.667 C134.506,103.827 138.216,106.006 140.852,110.474 C142.124,112.629 143.706,114 144.921,114 C147.911,114 148.948,120.497 146.37,123.075 C144.597,124.847 144.299,124.864 141.491,123.345 C139.846,122.455 137.318,121.108 135.873,120.352 C134.221,119.487 133.014,117.82 132.623,115.863 C131.805,111.777 131.828,106.505 132.667,105.667 Z M110.381,100.531 C105.501,102.671 99.322,116.053 103.25,115.975 C103.938,115.962 106.617,114.397 109.205,112.498 C112.749,109.898 114.18,108.047 115,105 C116.032,101.166 115.722,98.901 114.191,99.082 C113.811,99.126 112.097,99.779 110.381,100.531 Z"/>
</svg>

