<svg xmlns="http://www.w3.org/2000/svg" width="300" height="300" viewBox="0 0 300 300" version="1.1">
  <defs/>
  <path d="M156.959,14.953 C162.21,8.916 164.751,7.79 167,10.5 C167.685,11.325 169.053,12 170.041,12 C172.403,12 176,17.921 176,21.809 C176,23.499 176.411,25.136 176.913,25.446 C177.415,25.757 178.135,27.839 178.513,30.075 C178.89,32.31 179.829,34.381 180.6,34.677 C182.432,35.38 182.384,37.436 180.5,39 C178.738,40.463 178.421,50.049 180.035,53.066 C180.757,54.415 180.739,55.619 179.975,57.047 C179.373,58.172 178.743,62.11 178.576,65.797 C178.409,69.484 177.937,73.289 177.528,74.252 C177.119,75.216 177.04,77.025 177.353,78.272 C177.985,80.789 176.192,86.859 174.056,89.432 C172.082,91.811 168.576,91.034 168.164,88.126 C167.852,85.919 167.512,85.795 163.333,86.368 C160.744,86.723 157.972,86.52 156.794,85.89 C155.095,84.98 154.309,85.236 152.139,87.406 C149.896,89.649 149.703,90.294 150.765,91.995 C151.444,93.083 152,94.824 152,95.864 C152,96.904 152.621,98.27 153.379,98.9 C154.138,99.53 155.04,101.448 155.383,103.164 C155.925,105.876 155.528,106.696 152.332,109.459 C148.194,113.036 148.472,115.256 152.947,114.361 C155.165,113.917 156.061,114.246 156.9,115.813 C158.244,118.324 157.412,125.739 154.999,132.75 C153.042,138.435 153.706,139.298 158.188,136.9 C159.864,136.002 160.634,136.189 162.355,137.911 C164.139,139.695 164.276,140.329 163.234,141.998 C162.555,143.084 162,144.856 162,145.936 C162,147.015 160.416,149.106 158.481,150.582 C156.002,152.473 154.639,154.548 153.87,157.603 C153.269,159.988 152.153,162.458 151.389,163.092 C150.625,163.726 150,165.16 150,166.278 C150,167.396 148.83,169.846 147.399,171.721 C144.498,175.525 144.933,177.143 148.295,175.056 C150.406,173.746 152.757,172.504 156,170.987 C156.825,170.601 157.665,169.434 157.866,168.393 C158.349,165.893 159.827,165.034 163.677,165.015 C166.833,165 171,168.659 171,171.445 C171,173.018 165.515,178.546 160.531,181.996 C158.314,183.53 155.49,185.959 154.257,187.393 C153.023,188.827 151.124,190 150.037,190 C147.293,190 140.242,193.816 138.567,196.208 C136.725,198.838 133.921,197.896 130.589,193.528 C129.165,191.661 128,189.848 128,189.5 C128,189.152 129.071,187.434 130.38,185.683 C131.688,183.932 133.361,180.7 134.096,178.5 C134.832,176.3 136.011,173.612 136.717,172.527 C139.752,167.863 137.236,164.831 132.096,166.96 C129.866,167.884 128.31,167.874 125.107,166.914 C122.841,166.235 120.783,165.883 120.534,166.133 C120.285,166.382 120.735,169.39 121.534,172.816 C122.463,176.798 122.66,179.67 122.08,180.773 C120.878,183.059 119.238,192.374 119.046,198 C118.863,203.388 118.119,204.319 114.689,203.458 C110.096,202.305 104.942,193.39 107.836,191.601 C108.296,191.317 108.771,182.029 108.891,170.962 C109.127,149.318 108.855,148.003 104.128,147.996 C100.39,147.991 95,144.453 95,142.005 C95,140.891 95.9,139.21 97,138.268 C98.1,137.326 99,135.981 99,135.279 C99,134.577 100.8,132.148 103,129.881 C105.2,127.614 107,124.974 107,124.014 C107,123.055 107.9,121.126 109,119.727 C110.1,118.329 111,116.616 111,115.921 C111,115.226 111.595,113.947 112.322,113.079 C115.658,109.097 117.281,94.241 114.481,93.322 C113.92,93.138 112.593,94.6 111.532,96.571 C109.099,101.087 105.219,103.182 100.821,102.352 C94.108,101.086 93.982,100.68 94.152,80.881 C94.24,70.597 93.893,62.529 93.33,61.786 C92.793,61.079 92.245,56.011 92.112,50.524 C91.978,45.037 91.499,40.087 91.046,39.524 C90.593,38.961 89.902,35.676 89.51,32.224 C88.752,25.55 89.703,23 92.948,23 C95.03,23 99.462,27.555 99.602,29.838 C99.658,30.752 99.771,32.737 99.852,34.25 C100.104,38.925 102.684,37.363 105.877,30.604 C108.973,24.051 113.605,19.585 116.688,20.178 C119.269,20.675 125.048,29.436 125.606,33.695 C126.224,38.423 128.096,45.207 129.106,46.382 C129.523,46.867 128.901,48.567 127.723,50.16 C125.856,52.685 125.733,53.455 126.76,56.174 C127.407,57.89 127.614,59.79 127.218,60.397 C126.823,61.003 126.203,65.775 125.839,71 C125.476,76.225 124.683,83.395 124.078,86.934 C123.001,93.229 123.035,93.427 125.656,96.163 C128.243,98.863 128.288,99.102 126.977,103.229 C126.231,105.578 125.031,108.388 124.31,109.473 C123.59,110.557 123,112.08 123,112.857 C123,114.832 115.19,130.063 112.895,132.564 C110.857,134.785 110.346,138 112.031,138 C112.599,138 113.353,138.787 113.708,139.75 C114.063,140.713 115.399,143.179 116.677,145.23 C118.203,147.681 119,150.491 119,153.421 C119,155.875 119.47,158.172 120.044,158.527 C121.396,159.363 126,156.352 126,154.632 C126,153.905 126.9,152.495 128,151.5 C129.864,149.813 130.124,149.802 131.829,151.345 C134.227,153.515 137.947,153.395 140.75,151.056 C144.936,147.565 143.024,137.625 138.501,139.361 C137.663,139.683 135.562,139.156 133.833,138.19 C131.481,136.876 130.337,135.222 129.285,131.613 C128.018,127.27 128.045,126.607 129.561,124.933 C131.307,123.003 131.214,122.521 128.116,117.437 L126.249,114.373 L131.113,110.437 C136.348,106.199 142.674,95.199 141.554,92.28 C141.198,91.353 141.837,89.738 143.085,88.409 C144.468,86.937 145.312,84.6 145.466,81.814 C145.597,79.442 146.053,73.427 146.48,68.449 C147.136,60.802 146.989,58.88 145.532,56.063 C144.155,53.4 144.04,52.294 144.96,50.575 C145.779,49.045 145.814,47.64 145.08,45.712 C144.411,43.95 144.383,42.123 145.002,40.496 C145.574,38.989 145.597,37.098 145.058,35.746 C143.057,30.727 142.69,29.36 142.51,26.259 C142.264,21.999 144.905,19.531 148.864,20.323 C151.47,20.844 152.335,20.27 156.959,14.953 Z M152,194.737 C156.569,192.973 161.107,196.287 164.685,204 C166.364,207.62 167.183,214.769 166.002,215.499 C165.451,215.839 165,217.415 165,219 C165,220.585 164.592,222.134 164.094,222.442 C163.595,222.75 162.874,225.28 162.491,228.065 C161.937,232.093 161.322,233.307 159.482,234.007 C156.391,235.182 146.995,244.912 147.018,246.913 C147.036,248.516 163.527,258 166.296,258 C167.068,258 169.455,259.257 171.6,260.793 C173.745,262.329 177.075,264.359 179,265.304 C185.422,268.457 206.327,281.612 211.117,285.515 C212.557,286.688 215.257,288.259 217.117,289.006 C218.978,289.754 221.573,291.183 222.885,292.183 C224.197,293.182 226.481,294 227.961,294 C229.522,294 231.616,295.027 232.949,296.446 C234.213,297.791 236.654,299.069 238.373,299.286 C240.093,299.503 235.824,299.752 228.888,299.84 C216.313,300 216.264,299.991 212.55,297.04 C210.501,295.411 207.851,293.779 206.662,293.412 C205.473,293.045 201.575,290.655 198,288.101 C194.425,285.547 190.375,282.895 189,282.207 C187.625,281.52 184.952,279.829 183.059,278.45 C181.167,277.071 178.471,275.654 177.067,275.302 C175.664,274.95 172.757,273.388 170.608,271.831 C168.458,270.274 165.923,269 164.972,269 C164.022,269 162.639,268.27 161.898,267.377 C160.012,265.105 138.922,255.093 137.318,255.708 C136.593,255.986 136,256.971 136,257.895 C136,258.82 134.007,261.243 131.57,263.279 C129.134,265.316 126.882,267.796 126.566,268.792 C126.25,269.787 124.375,271.186 122.398,271.901 C120.258,272.675 115.961,276.193 111.775,280.6 C107.909,284.67 104.236,288 103.613,288 C102.991,288 101.919,288.9 101.232,290 C100.545,291.1 98.974,292.016 97.742,292.035 C96.509,292.055 94.375,292.714 93,293.5 C90.541,294.905 80,295.607 80,294.365 C80,293.134 85.547,288.455 91.709,284.488 C98.247,280.28 108.789,271.14 120.292,259.705 C125.149,254.877 127.037,252.302 126.814,250.807 C126.479,248.561 125.966,248.191 119,245.176 C111.024,241.723 109.552,241.011 106.5,239.13 C104.55,237.927 103.612,236.619 103.821,235.39 C104.995,228.469 105.237,228 107.633,228 C110.761,228 116.412,224.381 125.32,216.674 C140.09,203.895 150.547,195.298 152,194.737 Z M39.189,66.039 C41.535,63.853 42.381,63.703 45.5,64.922 C47.032,65.521 47.543,66.732 47.683,70.102 C48.114,80.495 50.79,92 52.775,92 C54.192,92 56,89.678 56,87.859 C56,83.901 60.849,85.177 62.898,89.675 C63.728,91.497 63.442,92.946 61.484,96.844 C60.135,99.531 58.316,102.323 57.442,103.048 C54.039,105.873 51.792,112.047 52.407,116.886 C52.73,119.433 52.931,121.01 53.01,122.592 C53.14,125.163 52.951,127.75 52.456,134.544 L51.723,144.588 L54.361,146.317 C57.362,148.283 57.715,151.105 55.494,155.364 C54.672,156.94 54,158.987 54,159.914 C54,160.841 53.574,162.027 53.053,162.55 C52.502,163.102 52.03,177.32 51.926,196.5 C51.828,214.65 51.324,233.055 50.806,237.399 C50.061,243.643 50.14,245.479 51.182,246.161 C52.177,246.814 51.643,247.75 49,249.986 C47.075,251.614 44.86,252.958 44.079,252.973 C42.281,253.007 39,250.087 39,248.453 C39,247.773 37.079,245.03 34.732,242.358 C30.273,237.283 30.001,236.813 25.017,225.547 C19.906,213.993 22.286,212.985 32.299,222.464 C36.485,226.426 39.656,228.686 40.549,228.343 C41.765,227.876 42,223.588 42,201.81 C42,181.475 41.729,175.923 40.75,176.246 C40.063,176.472 38.978,177.695 38.341,178.963 C36.594,182.437 23.966,199.218 21.005,202 C20.712,202.275 18.494,204.975 16.076,208 C11.254,214.031 8.238,217 6.93,217 C5.308,217 1,211.508 1,209.44 C1,208.291 2.903,205.557 5.25,203.332 C11.334,197.567 22.636,184.938 27.228,178.775 C29.39,175.874 32.853,171.7 34.924,169.5 C42.954,160.97 43.343,159.943 42.732,148.863 C42.431,143.399 41.662,138.298 41.023,137.528 C40.162,136.491 40.149,135.59 40.972,134.051 C41.598,132.883 41.956,128.598 41.792,124.248 C41.439,114.906 40.716,114.51 32.76,119.301 C25.073,123.93 16.44,126.61 14.474,124.979 C12.47,123.315 12.617,119.657 14.766,117.712 C15.737,116.833 19.449,114.713 23.016,113.001 C26.582,111.289 31.726,108.311 34.447,106.383 C37.168,104.456 40.072,102.499 40.9,102.036 C42.155,101.334 42.187,100.93 41.091,99.61 C40.368,98.738 40.064,97.276 40.415,96.36 C41.225,94.251 39.044,73.823 37.873,72.55 C36.362,70.907 36.918,68.154 39.189,66.039 Z M148.486,209.285 C146.828,210.503 144.275,212.625 142.812,214 C136.63,219.812 134.028,222.045 130.857,224.263 C129.01,225.555 125.724,228.327 123.553,230.425 C119.749,234.099 119.676,234.29 121.553,235.662 C122.624,236.446 124.625,237.356 126,237.685 C127.375,238.014 130.17,239.12 132.21,240.142 C134.251,241.164 136.116,242 136.355,242 C136.594,242 139.571,238.738 142.97,234.75 C150.431,225.997 155.243,216.416 154.806,211.181 C154.436,206.746 152.665,206.214 148.486,209.285 Z M160.359,26.25 C155.882,31.313 154.865,33.918 155.559,38.547 C155.927,40.996 156.561,43 156.97,43 C157.378,43 159.753,41.442 162.248,39.537 C166.14,36.565 166.847,35.466 167.236,31.787 C168.023,24.344 164.531,21.532 160.359,26.25 Z M110.251,36.202 C109.66,36.916 109.025,38.85 108.838,40.5 C108.522,43.305 108.25,43.485 104.638,43.267 C101.085,43.053 100.824,43.213 101.374,45.267 C101.703,46.495 101.979,48.288 101.986,49.25 C102.003,51.385 105.264,51.592 106.947,49.564 C107.602,48.775 109.426,47.846 111,47.5 C115.03,46.615 116.169,44.798 115.811,39.824 C115.559,36.324 115.102,35.443 113.412,35.202 C112.264,35.038 110.842,35.488 110.251,36.202 Z M157,68 C157,74.702 157.284,74.894 164.134,72.842 C168.251,71.608 168.603,70.995 166.958,67.922 C166.136,66.385 165.517,66.188 164.024,66.987 C161.417,68.382 161,68.274 161,66.2 C161,64.345 159.213,62 157.8,62 C157.36,62 157,64.7 157,68 Z M108.75,79.299 C106.703,80.108 106,81.072 106,83.071 C106,87.442 108.148,88.374 112.102,85.718 C116.387,82.839 117.491,77.938 113.816,78.106 C112.542,78.165 110.263,78.702 108.75,79.299 Z M109.753,62.869 C105.072,65.463 103.919,67.789 107.608,67.195 C108.648,67.028 110.74,66.763 112.256,66.606 C115.591,66.261 115.661,66.197 116.527,62.748 C117.393,59.297 116.159,59.319 109.753,62.869 Z M156,56.5 C156,57.325 156.45,58 157,58 C157.55,58 158,57.325 158,56.5 C158,55.675 157.55,55 157,55 C156.45,55 156,55.675 156,56.5 Z M140.079,121.583 C140.127,122.748 140.364,122.985 140.683,122.188 C140.972,121.466 140.936,120.603 140.604,120.271 C140.272,119.939 140.036,120.529 140.079,121.583 Z"/>
</svg>

