<svg xmlns="http://www.w3.org/2000/svg" width="300" height="300" viewBox="0 0 300 300" version="1.1">
  <defs/>
  <path d="M105.2,26.2 C107.085,24.315 109.953,24.783 113.182,27.5 C114.816,28.875 116.948,30 117.918,30 C120.714,30 122.526,37.232 120.616,40.768 C116.844,47.751 115.496,60 118.5,60 C119.325,60 120,59.598 120,59.107 C120,57.801 122.485,57.064 123.913,57.946 C124.59,58.365 125.506,60.311 125.949,62.272 C126.69,65.56 126.449,66.132 122.826,69.668 C117.738,74.634 114,81.072 114,84.869 C114,86.526 113.55,88.16 113,88.5 C112.45,88.84 112,90.441 112,92.059 C112,94.438 112.43,95.003 114.25,95.015 C115.487,95.023 118.3,95.679 120.5,96.471 C122.7,97.264 126.01,97.932 127.856,97.956 C129.927,97.983 132.348,98.957 134.182,100.5 C135.816,101.875 137.958,103 138.942,103 C139.925,103 141.874,103.9 143.273,105 C145.041,106.391 147.33,107 150.785,107 C156.688,107 158.436,108.586 158.289,113.804 C158.177,117.739 155.268,121 151.868,121 C148.778,121 147.401,125.313 148.81,130.579 C149.464,133.026 150,135.892 150,136.947 C150,138.002 150.787,139.094 151.75,139.373 C152.713,139.652 155.371,140.364 157.659,140.954 C165.153,142.889 171.129,153.154 168.079,158.853 C167.489,159.954 167.245,161.475 167.536,162.233 C168.133,163.789 162.697,171.795 160.46,172.654 C159.523,173.013 159,174.621 159,177.142 C159,179.303 158.378,182.067 157.618,183.285 C156.858,184.503 155.948,188.139 155.596,191.365 L154.955,197.231 L158.728,196.536 C160.802,196.154 164.47,194.978 166.877,193.921 C169.285,192.864 172.435,191.99 173.877,191.978 C175.32,191.966 178.462,191.066 180.859,189.978 C183.257,188.89 185.957,187.997 186.859,187.994 C187.762,187.99 189.85,187.266 191.5,186.384 C193.15,185.502 196.75,184.635 199.5,184.457 C202.25,184.279 207.65,183.617 211.5,182.986 C215.35,182.356 220.956,181.763 223.957,181.67 L229.414,181.5 L230.291,185.187 C230.914,187.802 230.776,189.693 229.819,191.687 C228.643,194.138 228.02,194.443 224.985,194.06 C217.292,193.088 200.448,194.755 198.881,196.643 C198.214,197.447 195.762,198 192.864,198 C190.174,198 187.191,198.386 186.236,198.857 C185.281,199.329 183.15,200.397 181.5,201.232 C179.85,202.067 176.25,203.073 173.5,203.468 C170.75,203.864 168.05,204.537 167.5,204.965 C166.95,205.392 164.103,206.344 161.174,207.08 C157.954,207.888 155.445,209.169 154.83,210.318 C153.308,213.161 153.225,231.621 154.726,233.124 C155.592,233.992 155.644,234.724 154.904,235.616 C154.05,236.645 153.378,248.651 153.82,255 C153.877,255.825 153.752,261.45 153.541,267.5 C153.331,273.55 153.011,283.336 152.83,289.246 L152.5,299.991 L148.25,299.996 C144.538,299.999 143.987,299.715 143.898,297.75 C143.842,296.512 143.881,279.618 143.985,260.207 C144.114,236.017 143.832,224.502 143.087,223.605 C142.305,222.663 142.309,221.411 143.103,219.136 C144.714,214.513 143.662,212.618 139.9,213.37 C138.213,213.707 135.632,214.832 134.166,215.87 C132.7,216.907 129.475,218.094 127,218.506 C124.525,218.918 121.427,220.098 120.115,221.128 C118.803,222.158 116.693,223 115.424,223 C114.156,223 112.847,223.438 112.517,223.973 C112.186,224.508 110.026,225.454 107.717,226.076 C105.408,226.698 102.309,228.068 100.831,229.12 C99.353,230.172 96.088,231.418 93.575,231.887 C90.323,232.495 87.713,233.932 84.525,236.87 C82.061,239.142 79.438,241 78.697,241 C76.323,241 72.751,236.36 73.444,234.177 C74.383,231.219 82.464,224.156 85.691,223.473 C87.236,223.147 89.281,222.456 90.236,221.94 C91.191,221.423 92.541,220.997 93.236,220.994 C93.931,220.99 95.694,220.365 97.153,219.603 C98.613,218.842 101.538,217.651 103.653,216.956 C107.12,215.817 112.514,213.42 117.236,210.92 C118.191,210.414 119.842,210 120.904,210 C121.965,210 125.009,209.019 127.667,207.821 C130.325,206.622 134.75,204.921 137.5,204.04 L142.5,202.438 L142.806,197.097 L143.113,191.756 L140.306,192.24 C138.763,192.506 135.379,193.325 132.786,194.06 L128.072,195.395 L123.544,190.948 C120.614,188.07 119.004,185.617 118.983,184 C118.921,179.192 111.421,170.906 104.909,168.45 C102.319,167.473 99.677,160.472 100.98,158.038 C102.681,154.859 106.098,155.576 110.242,159.981 C114.821,164.846 118.712,166.119 120.692,163.397 C125.185,157.221 136.534,145.094 138.237,144.648 C139.751,144.252 140.112,143.551 139.698,141.811 C139.396,140.54 138.838,136.912 138.459,133.75 C137.847,128.648 137.515,128 135.507,128 C134.263,128 132.685,128.675 132,129.5 C131.315,130.325 130.297,131 129.737,131 C129.177,131 126.782,131.968 124.413,133.15 C120.331,135.189 119.975,135.214 117.554,133.627 C114.729,131.776 114.58,131.234 115.925,127.696 C116.52,126.133 119.536,123.789 124.36,121.141 C128.49,118.874 132.163,116.546 132.521,115.966 C133.774,113.939 130.067,110.095 125.753,108.946 C123.414,108.323 120.729,107.126 119.787,106.286 C118.835,105.436 117.33,105.043 116.396,105.401 C115.473,105.756 113.62,105.326 112.278,104.447 C109.105,102.368 106.608,103.283 107.335,106.259 C107.636,107.492 107.234,109.374 106.441,110.441 C105.649,111.509 105,113.395 105,114.632 C105,115.87 104.563,117.152 104.028,117.482 C103.494,117.813 102.189,120.045 101.129,122.442 C99.042,127.159 96.26,128.745 93.067,127.036 C91.463,126.178 91.178,125.308 91.651,122.73 C91.977,120.954 92.864,118.503 93.622,117.285 C94.38,116.067 95,113.956 95,112.594 C95,111.232 95.45,109.84 96,109.5 C96.55,109.16 97,107.614 97,106.063 C97,104.513 97.698,102.666 98.551,101.958 C99.495,101.174 99.984,99.463 99.801,97.585 C99.54,94.913 99.066,94.458 96.259,94.187 C94.457,94.014 92.026,94.569 90.786,95.437 C87.722,97.583 85.707,97.398 83.323,94.75 C80.281,91.371 79.767,89.004 81.5,86.359 C82.681,84.558 83.955,84 86.888,84 C89.141,84 91.724,83.219 93.132,82.111 C94.453,81.072 97.184,79.532 99.2,78.69 C103.951,76.705 106.033,72.577 106.294,64.626 C106.536,57.233 105.21,55 100.578,55 C96.576,55 95,53.446 95,49.5 C95,45.879 96.546,44 99.526,44 C102.494,44 106.19,39.915 104.969,37.985 C103.621,35.853 103.783,27.617 105.2,26.2 Z M49.168,54.062 C52.464,52.74 54.594,52.801 55.769,54.25 C56.777,55.492 58.825,69.393 59.268,78 C59.461,81.745 59.833,82.5 61.487,82.5 C62.66,82.5 64.004,81.392 64.77,79.794 C66.373,76.449 68.247,77.029 69.812,81.356 C71.562,86.197 71.375,86.86 67.029,91.207 C64.761,93.474 62.805,96.535 62.47,98.339 C61.939,101.199 62.466,129.662 63.139,134.5 C63.292,135.6 63.095,139.088 62.7,142.25 C61.84,149.14 62.638,149.463 68.169,144.466 C70.321,142.522 72.558,141.227 73.141,141.587 C74.921,142.687 72.908,149.636 69.235,155.065 C63.198,163.991 63.189,164.016 62.575,174.37 C61.69,189.297 62.313,208.713 63.723,210.123 C64.565,210.965 64.609,211.862 63.876,213.231 C63.31,214.29 63.128,215.892 63.474,216.792 C63.819,217.691 64.294,226.518 64.53,236.408 C64.902,252.038 64.744,254.625 63.324,256.194 C61.332,258.396 55.726,258.579 54,256.5 C53.315,255.675 51.965,255 51,255 C50.035,255 48.685,254.325 48,253.5 C47.315,252.675 45.685,252 44.376,252 C40.626,252 29.755,239.578 31.755,237.578 C32.842,236.492 37.611,238.363 42.161,241.661 C45.212,243.873 48.147,245.119 50.661,245.27 L54.5,245.5 L54.35,240 C54.268,236.975 54.156,221.563 54.1,205.75 C54.016,181.672 53.77,177 52.585,177 C51.184,177 42.676,186.237 37.848,193 C30.86,202.788 24.03,211.731 22.693,212.84 C21.868,213.524 19.86,214.466 18.231,214.934 C15.507,215.715 15.135,215.506 13.634,212.358 C11.406,207.687 11.541,206.814 15,203.5 C16.65,201.919 18,200.194 18,199.667 C18,199.139 19.912,196.612 22.25,194.052 C24.587,191.491 28.383,187.169 30.684,184.448 C32.986,181.727 38.723,175.49 43.434,170.588 L52,161.676 L52.149,155.588 C52.299,149.463 52.175,135.077 51.924,129.5 C51.849,127.85 51.895,122.532 52.026,117.682 C52.165,112.499 51.828,108.428 51.207,107.807 C49.684,106.284 44.581,108.284 39.605,112.355 C37.347,114.202 34.375,116.056 33,116.475 C31.625,116.894 29.825,117.795 29,118.477 C27.07,120.074 23.201,121.015 21.404,120.325 C20.597,120.015 20,118.403 20,116.538 C20,113.695 20.774,112.741 26.203,108.895 C29.615,106.478 34.082,103.6 36.13,102.5 C44.623,97.939 48.479,95.987 49.896,92.911 C51.134,90.225 50.514,86.683 49.498,79.799 C48.581,73.585 47.607,65.462 47.333,61.748 C46.865,55.389 46.971,54.942 49.168,54.062 Z M147.073,18.635 C148.212,17.186 149.703,16 150.384,16 C152.537,16 156,19.982 156,22.457 C156,23.766 156.273,25.548 156.607,26.418 C157.311,28.253 161.646,28.563 162.227,26.82 C162.795,25.114 165.618,26.488 167.525,29.397 C169.505,32.419 168.863,34.947 164.999,39.349 C162.693,41.975 162.188,43.458 162.248,47.424 C162.309,51.456 162.525,52.003 163.521,50.641 C165.147,48.416 166.704,48.578 168.061,51.114 C169.187,53.218 169.123,54.094 167.01,65.477 C166.024,70.789 166.095,71.596 167.642,72.727 C168.599,73.427 170.759,74.013 172.441,74.028 C174.124,74.044 178.199,75.506 181.499,77.278 C187.655,80.585 190.847,84.807 190.952,89.781 C191.006,92.326 188.437,93.837 186.815,92.215 C186.237,91.637 184.28,91.405 182.466,91.699 C179.644,92.157 178.634,91.7 175.471,88.537 C172.701,85.767 171.212,84.981 169.535,85.402 C168.304,85.711 166.993,85.66 166.622,85.289 C166.251,84.918 163.992,84.5 161.603,84.362 C157.4,84.117 157.07,84.323 151.456,90.678 C145.432,97.497 139.629,101.029 137.668,99.068 C137.081,98.481 135.603,98 134.383,98 C133.164,98 131.982,97.447 131.757,96.77 C131.021,94.562 133.265,90.337 136.205,88.398 C138.873,86.639 139.04,86.165 138.473,81.927 C137.873,77.444 137.951,77.281 142.432,73.609 C148.35,68.76 149.274,66.936 150.081,58.507 C150.894,50.017 150.565,49 147.008,49 C145.121,49 143.685,48.168 142.53,46.406 C140.321,43.035 141.199,39.652 145.014,36.831 C148.38,34.343 149.007,29.915 146.468,26.559 C144.46,23.904 144.625,21.746 147.073,18.635 Z M135.445,176.061 C133.848,177.825 133.79,178.255 135.04,179.046 C137.083,180.338 137.461,180.254 139.443,178.063 C141.261,176.054 140.833,174 138.596,174 C137.889,174 136.471,174.927 135.445,176.061 Z M154.688,151.646 C153.406,152.927 153.991,155.783 155.667,156.426 C158.04,157.336 159.736,155.39 158.406,153.282 C157.182,151.341 155.661,150.672 154.688,151.646 Z"/>
</svg>

