<svg xmlns="http://www.w3.org/2000/svg" width="300" height="300" viewBox="0 0 300 300" version="1.1">
  <defs/>
  <path d="M106,20.04 C110.909,15.726 114.985,14.9 118.66,17.475 C123.232,20.677 121.7,29 116.539,29 C115.356,29 112.864,30.125 111,31.5 C109.136,32.875 107.3,34 106.92,34 C105.648,34 94.531,41.801 92.076,44.417 C90.742,45.838 89.161,47 88.561,47 C87.961,47 85.791,47.9 83.739,49 C81.686,50.1 79.417,51 78.695,51 C77.973,51 76.564,51.598 75.565,52.329 C73.995,53.477 73.921,53.985 75.024,56.045 C76.579,58.951 76.445,77.173 74.833,82.139 C74.232,83.988 73.378,88.2 72.933,91.5 C71.432,102.654 70.716,107.351 71.874,107.87 C72.76,108.268 74.744,106.221 78.313,102.75 C81.282,99.862 88.545,93.476 94.453,88.559 C100.361,83.641 105.574,78.62 106.038,77.401 C106.544,76.07 108.087,74.92 109.902,74.521 C111.619,74.144 115.307,71.513 118.441,68.429 C121.475,65.443 124.719,63 125.65,63 C128.963,63 131,66.054 131,71.024 C131,75.718 130.974,75.754 124.801,79.619 C121.392,81.754 116.85,84.963 114.707,86.75 C112.564,88.537 110.205,90 109.464,90 C107.13,90 107.029,91.397 108.415,104.604 C109.159,111.697 109.856,130.088 109.964,145.474 C110.071,160.86 110.375,173.797 110.638,174.224 C111.357,175.387 130.834,175.159 133.071,173.962 C135.001,172.929 140.07,173.58 152.5,176.456 C157.255,177.557 157.515,177.788 157.803,181.179 C158.03,183.861 157.658,184.928 156.303,185.48 C153.34,186.687 145.656,186.959 144.382,185.902 C143.088,184.828 137.148,184.64 121,185.161 L110.5,185.5 L109.327,194.5 C108.681,199.45 108.119,208.592 108.077,214.816 C108.034,221.039 107.504,227.058 106.898,228.191 C106.271,229.362 105.833,234.93 105.883,241.1 C105.933,247.396 105.476,253.113 104.791,254.724 C104.143,256.251 103.264,262.45 102.838,268.5 C102.412,274.55 101.773,281.452 101.418,283.837 C101.017,286.534 101.194,288.594 101.887,289.287 C103.326,290.726 103.306,294.234 101.839,297.453 C100.84,299.647 100.039,300 96.064,300 L91.449,300 L91.546,293.011 C91.6,289.168 91.949,285.718 92.322,285.345 C92.695,284.972 93,282.012 93,278.768 C93,275.523 93.537,271.886 94.193,270.684 C94.85,269.483 95.494,265.575 95.625,262 C96.062,250.071 98.067,222.586 99.017,215.5 C99.533,211.65 100.078,202.875 100.227,196 L100.5,183.5 L89.8,183.398 C81.616,183.32 78.5,182.903 76.55,181.625 C73.137,179.388 73.336,176.867 77.15,174.047 C80.198,171.794 80.61,171.752 89.9,172.751 C95.18,173.318 99.755,173.631 100.067,173.445 C100.563,173.151 100.52,157.546 99.9,112.75 C99.712,99.188 99.073,98.468 92.799,104.75 C90.739,106.813 88.029,109.401 86.777,110.502 C85.525,111.602 82.835,114.469 80.8,116.873 C77.689,120.547 76.695,121.14 74.55,120.602 C73.148,120.25 72,119.264 72,118.411 C72,117.375 71.253,116.967 69.75,117.18 C67.775,117.461 67.532,118.012 67.761,121.684 C67.904,123.986 67.567,126.15 67.011,126.493 C66.455,126.837 66,128.645 66,130.512 C66,132.379 65.602,134.94 65.115,136.203 C64.628,137.466 63.44,141.875 62.475,146 C61.51,150.125 60.333,153.928 59.86,154.45 C59.387,154.973 59,156.366 59,157.547 C59,158.728 58.1,160.732 57,162 C55.9,163.268 55,165.059 55,165.979 C55,166.899 53.875,168.708 52.5,170 C51.125,171.292 50,172.861 50,173.486 C50,176.043 45.883,182.902 43.988,183.504 C41.494,184.295 36.266,183.239 35.35,181.758 C34.98,181.159 35.777,179.731 37.121,178.584 C38.465,177.438 40.047,175.375 40.636,174 C41.891,171.071 45.635,163.443 48.559,157.858 C49.692,155.694 51.43,150.454 52.421,146.212 C53.413,141.97 54.605,137.375 55.071,136 C55.537,134.625 56.213,131.808 56.573,129.739 C56.932,127.67 57.615,125.738 58.09,125.445 C58.564,125.151 58.915,122.266 58.87,119.032 C58.824,115.799 59.159,112.556 59.614,111.827 C60.068,111.097 60.74,108.25 61.106,105.5 C63.375,88.457 64.207,83.482 65.051,81.904 C65.573,80.929 66,75.816 66,70.541 C66,61.061 65.969,60.939 63.322,59.932 C61.041,59.065 60.337,59.264 58.572,61.277 C56.794,63.304 52.346,65.769 42.246,70.325 C40.409,71.154 39.532,70.909 37.496,68.997 C32.2,64.021 34.624,60.325 46.625,55.08 C51.506,52.946 58.75,49.581 62.722,47.6 C66.695,45.62 70.391,44 70.937,44 C71.484,44 73.468,42.65 75.347,41 C77.226,39.35 79.431,38 80.246,38 C81.705,38 96.202,27.099 97.469,25.05 C97.826,24.473 98.879,23.999 99.809,23.997 C100.739,23.996 103.525,22.215 106,20.04 Z"/>
</svg>

