<svg xmlns="http://www.w3.org/2000/svg" width="300" height="300" viewBox="0 0 300 300" version="1.1">
  <defs/>
  <path d="M147.5,151.387 C151.637,149.432 158.539,150.218 161.478,152.98 C162.773,154.196 164.658,157.511 165.666,160.346 C167.27,164.853 167.481,168.514 167.348,189.5 C167.2,212.884 166.178,223.876 163.895,226.627 C163.133,227.545 162.826,234.603 162.94,248.634 C163.089,266.972 163.327,269.721 165.067,273.132 C168.967,280.776 182.331,284.702 207.5,285.597 C228.66,286.349 236.19,285.05 249.711,278.31 C258.435,273.961 259.224,272.608 258.726,262.854 C258.315,254.817 256.969,247.716 255.057,243.5 C253.965,241.092 253.145,237.368 252.067,229.927 C251.623,226.862 250.803,223.487 250.246,222.427 C249.688,221.367 248.987,214.875 248.689,208 C248.391,201.125 248.002,194.6 247.824,193.5 C247.599,192.114 248.126,191.411 249.541,191.208 C251.288,190.958 251.757,191.759 252.791,196.768 C253.456,199.987 254,204.224 254,206.184 C254,208.145 254.675,211.662 255.5,214 C256.325,216.338 257,219.524 257,221.079 C257,222.634 257.392,224.94 257.872,226.203 C259.531,230.573 261.34,236.516 262.223,240.5 C262.71,242.7 263.51,246.3 264,248.5 C264.49,250.7 265.286,254.3 265.77,256.5 C266.254,258.7 267.217,261.554 267.91,262.843 C269.131,265.114 269.046,266.087 266.914,274.22 C265.603,279.221 256.766,286.526 250.808,287.532 C248.479,287.926 244.983,289.504 243.037,291.04 C239.727,293.652 238.675,293.877 226.673,294.541 C215.554,295.155 213.59,295.523 211.93,297.306 L210.014,299.362 L207.524,297.022 C205.463,295.087 203.779,294.635 197.767,294.404 C180.796,293.754 163.588,287.508 158.789,280.258 C155.956,275.976 155.703,274.33 154.02,249.16 C152.887,232.214 151.571,227.555 148.105,228.215 C146.086,228.599 145.442,232.623 147.084,234.601 C148.09,235.814 147.924,236.597 146.193,238.796 C145.023,240.283 142.442,243.877 140.458,246.782 C138.474,249.687 133.509,256.339 129.425,261.563 C125.341,266.787 122,271.304 122,271.601 C122,272.655 115.548,281.556 112.288,285 C110.465,286.925 108.452,290.3 107.815,292.5 C106.229,297.969 104.267,300 100.568,300 C96.913,300 93,297.568 93,295.297 C93,294.423 94.912,291.608 97.25,289.041 C99.588,286.475 104.425,280.424 108,275.595 C111.575,270.766 115.175,266.066 116,265.151 C118.513,262.364 127,251.013 127,250.44 C127,250.145 128.8,247.193 131,243.881 C133.2,240.569 135,237.63 135,237.35 C135,237.07 133.62,237.144 131.933,237.515 C127.541,238.479 124.97,235.96 125.708,231.414 C126.012,229.537 125.865,227.999 125.381,227.997 C124.896,227.996 124.431,215.82 124.348,200.94 C124.261,185.514 123.76,172.729 123.182,171.193 C122.625,169.712 121.922,167.063 121.621,165.306 C121.174,162.702 121.448,161.992 123.108,161.466 C126.079,160.523 129.309,161.617 130.833,164.082 C131.721,165.519 132.409,172.04 132.896,183.632 C133.372,194.962 134.046,201.446 134.831,202.231 C136.718,204.118 141.809,200.827 150.439,192.141 L158,184.531 L158,176.414 C158,167.806 156.71,162.275 154.24,160.293 C152.141,158.61 147.512,161.11 145.491,165.017 C142.613,170.583 137.232,167.908 138.432,161.509 C139.151,157.678 142.794,153.611 147.5,151.387 Z M143.506,33.588 C146.007,30.89 146.178,30.851 148.052,32.547 C149.961,34.275 150.758,39.909 149.299,41.367 C148.373,42.293 145.034,53.042 145.015,55.157 C145.007,56.068 146.895,58.318 149.211,60.157 C156.239,65.736 161.978,72.325 161.989,74.828 C161.995,76.109 160.468,80.384 158.596,84.328 C153.392,95.29 153.226,97.202 157.199,100.36 C163.115,105.063 165,107.045 165,108.567 C165,111.211 161.954,111.35 154.875,109.029 L147.961,106.762 L143.138,111.274 C135.34,118.568 129.672,120.719 126.935,117.422 C125.816,116.073 126.077,115.49 128.733,113.412 C130.443,112.074 133.263,108.668 135.001,105.844 L138.161,100.709 L136.016,97.808 C132.914,93.612 133.678,91.568 138.496,91.175 C143.304,90.783 145,89.532 145,86.378 C145,85.07 145.45,84 146,84 C146.55,84 147,83.38 147,82.622 C147,81.865 147.621,80.73 148.379,80.1 C149.138,79.47 150.042,77.539 150.388,75.808 C150.928,73.108 150.555,72.264 147.759,69.871 C145.967,68.337 144.022,67.063 143.438,67.041 C142.052,66.988 138,72.485 138,74.419 C138,76.591 132.889,81 130.371,81 C129.189,81 127.218,80.187 125.991,79.194 L123.761,77.388 L127.38,73.974 C129.44,72.031 131,69.597 131,68.327 C131,67.099 131.507,64.981 132.127,63.621 C133.745,60.07 132.494,56 129.786,56 C128.589,56 126.396,54.838 124.914,53.417 L122.218,50.835 L120.359,53.641 C119.337,55.185 115.413,59.474 111.64,63.173 L104.78,69.898 L105.496,78.956 C105.891,83.938 106.654,88.286 107.193,88.619 C107.732,88.952 109.596,87.881 111.336,86.239 C114.978,82.802 119.2,81.502 121.946,82.971 C123.529,83.818 123.844,85.1 123.813,90.562 C123.779,96.289 123.356,97.757 120.515,101.977 C118.723,104.641 116.935,108.532 116.542,110.625 C115.316,117.165 113.329,120 109.974,120 C107.251,120 107,120.291 107,123.441 C107,125.334 106.55,127.16 106,127.5 C105.45,127.84 105,129.147 105,130.405 C105,134.447 102.038,139.148 99.708,138.806 C97.651,138.505 97.613,138.036 97.29,109 C97.109,92.775 96.738,78.883 96.465,78.128 C96.117,77.165 95.031,76.944 92.822,77.386 C90.601,77.83 89.133,77.525 87.837,76.353 C84.044,72.919 86.276,68.567 94.373,63.607 C98.403,61.139 108.952,52.125 114.096,46.755 C118.054,42.623 119.146,42.266 121,44.5 C121.743,45.395 123.929,46 126.422,46 C128.72,46 131.088,46.488 131.685,47.085 C133.643,49.043 137.47,47.741 137.808,45 C138.257,41.358 140.537,36.792 143.506,33.588 Z M166.327,33.473 C168.237,31.563 170.309,30 170.932,30 C175.596,30 184,37.085 184,41.018 C184,42.043 184.381,43.117 184.847,43.405 C185.587,43.863 187.374,60.947 187.105,65 C187.05,65.825 186.543,72.575 185.978,80 C185.413,87.425 184.597,98.225 184.164,104 C183.731,109.775 183.719,114.904 184.137,115.398 C184.583,115.926 187.258,115.823 190.615,115.148 C198.681,113.529 207.113,113.691 209.719,115.515 C211.101,116.484 212.11,118.56 212.514,121.265 C213.288,126.453 210.549,131.897 203.049,140.074 C200.312,143.058 198.056,145.82 198.036,146.211 C197.992,147.088 184.134,157.376 181.823,158.248 C180.901,158.596 179.7,158.344 179.156,157.688 C177.728,155.967 179.678,152.904 185,148.505 C187.475,146.46 190.249,143.372 191.165,141.643 C192.08,139.914 193.655,137.6 194.665,136.499 C198.563,132.249 202,127.06 202,125.423 C202,123.912 201.193,123.788 195.062,124.358 C186.182,125.183 183.196,126.355 182.007,129.482 C180.898,132.399 179.36,132.641 176.163,130.401 C174.036,128.912 173.287,128.986 165.19,131.48 C148.023,136.768 127.669,145.813 126.586,148.636 C126.298,149.386 125.38,150 124.545,150 C123.711,150 117.865,152.511 111.554,155.58 C99.419,161.481 96,161.93 96,157.62 C96,154.461 100.474,150.69 107.5,147.928 C110.8,146.631 115.371,144.324 117.657,142.801 C123.693,138.781 147.359,128.22 154.435,126.39 C157.771,125.527 160.98,124.425 161.566,123.941 C162.152,123.457 165.202,122.759 168.344,122.389 C171.486,122.02 174.22,121.444 174.421,121.109 C175.355,119.547 175.989,94 175.093,94 C174.557,94 173.84,94.45 173.5,95 C172.641,96.39 167.654,96.254 166.2,94.8 C163.505,92.105 164.893,89.081 171,84.338 C175.858,80.566 177,79.133 177,76.808 C177,73.673 174.589,72.011 172.733,73.867 C169.699,76.901 164,73.895 164,69.262 C164,65.537 165.763,64.004 171.806,62.475 L176.5,61.287 L176.796,55.779 C176.959,52.749 176.724,48.077 176.274,45.395 C175.377,40.046 173.527,38.845 169.5,41 C163.222,44.36 160.914,38.886 166.327,33.473 Z M42.417,89.356 C43.129,87.5 47.02,87.946 48.043,90 C49.298,92.521 51.168,102.153 51.683,108.75 C52.264,116.196 53.192,116.532 60.454,111.927 L65.299,108.854 L67.399,110.978 L69.5,113.101 L65.489,116.801 C63.283,118.835 59.908,121.855 57.989,123.511 C54.711,126.339 54.48,126.945 54.169,133.511 C53.987,137.355 54.141,143.788 54.51,147.808 C55.129,154.545 55.349,155.091 57.331,154.808 C58.514,154.638 60.071,153.265 60.792,151.756 C62.098,149.023 65.954,147.235 67.921,148.451 C68.585,148.861 68.247,150.413 66.978,152.78 C65.89,154.81 65,156.826 65,157.26 C65,157.694 63.151,160.977 60.891,164.555 C56.031,172.25 56.112,171.614 55.476,207.01 C54.958,235.829 53.847,242.12 48.775,244.958 C46.288,246.349 45.75,246.32 42.609,244.629 C39.107,242.743 35.255,236.633 32.449,228.514 C30.153,221.871 34.24,220.772 37.296,227.211 C39.184,231.189 42.48,234.439 43.801,233.623 C45.002,232.881 46.946,214.717 47.422,199.787 C47.705,190.895 47.474,187.809 46.464,186.97 C45.458,186.135 44.73,186.348 43.478,187.844 C40.078,191.903 32.228,199.783 23.581,207.816 C16.006,214.853 14.213,216.056 11.68,215.801 C9.858,215.617 7.936,214.475 6.739,212.865 C4.991,210.513 4.928,209.922 6.148,207.365 C7.056,205.462 8.403,204.397 10.159,204.193 C13.221,203.838 28.458,189.367 39.845,176 L47.086,167.5 L46.755,151.763 C46.536,141.314 46.024,135.624 45.232,134.832 C44.309,133.909 42.9,134.173 38.988,136.006 C36.21,137.307 33.456,138.951 32.868,139.659 C32.28,140.368 30.264,141.235 28.389,141.587 C24.412,142.333 22,140.812 22,137.558 C22,135.777 23.663,134.575 30.783,131.212 C35.614,128.929 40.872,125.699 42.468,124.033 L45.37,121.005 L44.107,113.752 C42.57,104.92 41.633,91.398 42.417,89.356 Z M152.989,201.877 C151.608,203.32 148.458,206.203 145.989,208.285 C142.206,211.475 140.879,212.026 137.553,211.785 C134.084,211.535 133.52,211.803 132.902,214 C132.516,215.375 132.155,218.412 132.1,220.75 C131.967,226.416 133.493,226.307 141.939,220.046 C145.614,217.321 150.755,214.177 153.361,213.059 L158.101,211.028 L157.8,205.343 C157.635,202.216 157.05,199.567 156.5,199.456 C155.95,199.345 154.37,200.435 152.989,201.877 Z M143.811,177.282 C147.539,174.206 152.485,174.284 154.56,177.451 C156.592,180.552 155.685,183.589 152.179,185.426 C150.706,186.198 147.949,188.443 146.054,190.415 C140.609,196.079 136.84,194.659 136.635,186.867 C136.551,183.635 137.022,182.398 138.824,181.124 C140.088,180.231 142.332,178.502 143.811,177.282 Z M77.667,143.667 C80.666,140.667 87.799,146.639 90.009,154 C90.752,156.475 91.758,159.031 92.245,159.68 C92.731,160.329 92.988,162.579 92.815,164.68 C92.564,167.719 92.094,168.5 90.513,168.5 C89.041,168.5 87.616,166.639 85.013,161.319 C83.081,157.37 80.487,153.066 79.25,151.755 C77.105,149.482 76.245,145.089 77.667,143.667 Z M110.5,99.935 C107.868,100.448 107.5,100.938 107.5,103.926 C107.5,108.59 109.292,108.795 112.563,104.507 C115.637,100.476 114.998,99.059 110.5,99.935 Z"/>
</svg>

