<svg xmlns="http://www.w3.org/2000/svg" width="300" height="300" viewBox="0 0 300 300" version="1.1">
  <defs/>
  <path d="M137.598,56.491 C139.062,54.257 139.846,53.919 142.393,54.429 C144.067,54.763 145.764,55.367 146.163,55.769 C147.157,56.772 149.199,73.781 148.572,75.839 C148.294,76.753 147.98,81.1 147.874,85.5 C147.768,89.9 147.3,94 146.834,94.611 C145.554,96.288 143.27,110.819 144.08,112.13 C144.524,112.847 149.789,108.266 158.151,99.888 C165.5,92.525 173.182,85.65 175.221,84.612 C178.704,82.838 179.083,82.824 181.464,84.385 C182.859,85.298 184,86.895 184,87.932 C184,89.892 169.916,104.788 164.244,108.826 C160.234,111.681 160.198,112.534 164,114.5 C166.708,115.9 167,116.524 167,120.904 C167,123.572 167.679,127.38 168.508,129.365 C169.59,131.954 169.856,134.885 169.449,139.737 C168.75,148.062 168.757,148.693 169.582,152.814 C170.003,154.916 169.689,157.476 168.722,159.814 C167.884,161.841 167.187,164.4 167.174,165.5 C167.16,166.6 166.408,170.425 165.504,174 C163.624,181.43 162.861,183.984 163.726,185.731 C164.269,186.826 165.45,187.604 167.397,189.067 C169.911,190.955 173.848,194.22 176.146,196.322 C178.443,198.425 182.838,201.854 185.912,203.943 C191.137,207.494 195.725,211.283 203.537,218.5 C205.322,220.15 208.647,223.075 210.924,225 C217.956,230.946 220.597,233.439 221.567,235.049 C222.08,235.901 227.015,240.626 232.534,245.549 C238.053,250.472 244.293,256.413 246.4,258.75 C248.508,261.087 250.743,263.018 251.366,263.041 C252.971,263.098 258.365,267.979 260.503,271.307 C262.252,274.032 262.246,274.194 260.302,276.807 C256.433,282.009 255.352,281.37 237.034,263.063 C227.644,253.678 219.546,246 219.039,246 C218.532,246 216.184,243.525 213.822,240.5 C211.459,237.475 208.991,235 208.336,235 C207.681,235 206.195,233.792 205.033,232.315 C203.872,230.839 201.702,228.876 200.211,227.954 C198.72,227.033 193.45,222.718 188.5,218.367 C183.55,214.016 178.231,209.811 176.68,209.021 C175.129,208.232 172.317,205.88 170.432,203.793 C168.547,201.707 166.696,200 166.317,200 C165.939,200 164.61,199.043 163.365,197.873 C160.631,195.305 158.38,195.946 156.878,199.722 C154.52,205.649 151.841,210.98 150.941,211.536 C150.424,211.856 149.99,212.879 149.978,213.809 C149.966,214.739 149.076,216.625 148,218 C146.924,219.375 146.034,221.128 146.022,221.896 C145.997,223.457 139.53,233.554 137.917,234.551 C137.336,234.91 137.161,236.457 137.518,238.081 C138.042,240.468 137.618,241.455 135.091,243.736 C133.408,245.256 128.942,249.502 125.169,253.17 C117.611,260.517 111.604,263.205 107.588,261.037 C103.381,258.766 101.149,256.442 100.828,254 C100.562,251.975 100.88,251.563 102.5,251.831 C107.231,252.615 109.222,253.017 110.88,252.449 C112.283,251.967 113.447,250.791 115.829,248.564 C123.816,241.092 124.931,235 118.311,235 C116.966,235 114.271,233.783 112.321,232.296 C110.102,230.603 107.729,229.671 105.976,229.805 C104.187,229.941 102.058,229.078 100.082,227.416 C97.442,225.194 95.563,224.686 87.245,223.942 C81.885,223.463 76.509,223.055 75.298,223.036 C72.581,222.992 63.765,231.581 61.035,236.932 C59.963,239.033 57.492,241.692 55.543,242.842 C53.594,243.992 52,245.51 51.999,246.216 C51.998,246.922 49.825,249.765 47.169,252.534 C42.115,257.803 35.897,260.737 32.243,259.577 C29.247,258.626 28.554,254.447 30.766,250.663 C32.24,248.14 33.282,247.493 35.918,247.467 C38.393,247.443 39.885,246.633 41.861,244.244 C45.257,240.139 56.216,227.145 62,220.366 C71.195,209.59 75.709,203.425 76.364,200.75 C76.735,199.238 76.727,198 76.347,198 C75.749,198 66.036,206.046 62.179,209.736 C61.452,210.431 60.376,211 59.788,211 C59.2,211 56.71,212.003 54.255,213.229 L49.791,215.459 L47.396,212.674 C46.078,211.142 45,209.269 45,208.512 C45,207.183 50,203 51.589,203 C52.018,203 54.338,202.046 56.746,200.881 C60.158,199.229 60.947,198.403 60.327,197.131 C59.043,194.5 59.376,183.576 61.229,167.5 C63.303,149.51 63.733,132.657 62.324,124.593 C61.615,120.534 61.615,117.831 62.324,115.953 C63.12,113.843 62.951,112.16 61.583,108.577 C60.181,104.907 60.062,103.63 61.017,102.48 C61.724,101.627 61.903,100.296 61.448,99.263 C60.739,97.65 60.122,93.877 60.057,90.75 C60.043,90.063 60.301,87.541 60.631,85.147 C60.96,82.753 60.679,78.202 60.007,75.033 C58.595,68.382 59.682,65 63.23,65 C66.685,65 71,69.825 71,73.687 C71,75.533 71.513,77 72.16,77 C72.797,77 75.92,74.519 79.099,71.487 L84.878,65.974 L88.287,67.6 C91.591,69.176 94.877,74.268 97.902,82.5 C99.618,87.171 100.762,101.649 100.439,114.621 C100.277,121.113 100.447,126.892 100.817,127.463 C101.796,128.974 101.953,144.322 101.001,145.5 C100.301,146.366 99.568,155.999 98.603,177 C98.118,187.55 98.016,188.057 96.25,188.683 C92.884,189.877 91,192.317 91,195.484 C91,199.09 86.931,205.759 81.565,210.946 C79.604,212.842 78,214.979 78,215.696 C78,216.413 78.112,216.995 78.25,216.988 C78.388,216.982 80.75,216.399 83.5,215.692 C92.155,213.47 100.519,214.702 108.688,219.404 C110.992,220.729 114.367,222.13 116.188,222.517 C118.01,222.903 120.969,224.323 122.765,225.672 C125.018,227.364 127.033,228.028 129.265,227.812 C132.376,227.512 132.79,226.908 140.079,212 C144.248,203.475 148.242,194.736 148.955,192.58 C150.216,188.77 150.171,188.601 147.376,186.58 C145.794,185.436 142.925,182.867 141,180.869 C139.075,178.872 135.925,176.397 134,175.369 C132.075,174.341 128.524,171.813 126.109,169.75 C123.694,167.688 120.743,166 119.55,166 C118.358,166 116.579,165.412 115.597,164.694 C113.94,163.483 113.923,163.121 115.354,159.694 C116.623,156.659 117.407,156 119.752,156 C122.611,156 128.177,159.471 135.139,165.594 C137.141,167.355 139.841,169.125 141.139,169.528 C142.438,169.931 145.402,172.002 147.728,174.13 C150.053,176.259 152.36,178 152.855,178 C154.71,178 155.926,175.22 156.994,168.541 C157.598,164.756 158.306,161.314 158.567,160.892 C158.828,160.47 159.231,154.265 159.464,147.104 C159.797,136.875 159.566,133.437 158.387,131.074 C157.561,129.419 156.868,125.8 156.847,123.033 C156.826,120.265 156.401,118 155.904,118 C155.407,118 154.997,118.338 154.993,118.75 C154.989,119.162 152.064,122.608 148.493,126.407 C144.922,130.206 142,133.715 142,134.205 C142,135.911 136.692,140 134.476,140 C130.463,140 129.433,137.516 131.237,132.187 C132.11,129.609 133.563,123 134.466,117.5 C135.369,112 136.522,105.25 137.029,102.5 C137.85,98.045 139.132,82.933 139.022,79 C138.902,74.68 137.247,62.278 136.597,60.831 C136.14,59.813 136.531,58.12 137.598,56.491 Z M80.194,82.805 C78.712,84.347 76.319,86.112 74.875,86.726 C72.653,87.672 72.146,88.676 71.573,93.261 C71.14,96.732 71.325,99.618 72.088,101.294 C73.015,103.328 73.008,104.566 72.057,106.863 C70.545,110.514 71.622,120.918 73.591,121.673 C74.852,122.157 77.83,120.636 86.292,115.185 L89.886,112.869 L89.545,101.685 C89.153,88.831 88.384,84.216 86.223,81.75 C84.152,79.386 83.34,79.528 80.194,82.805 Z M85.234,129.029 C83.438,130.663 81.289,132 80.458,132 C79.627,132 77.384,133.422 75.473,135.161 C72.037,138.287 72,138.411 72,146.692 C72,153.353 72.319,155.185 73.56,155.661 C75.5,156.406 80.779,151.545 81.199,148.628 C81.407,147.174 82.232,146.526 83.886,146.515 C88.058,146.488 90.214,142.228 90.423,133.601 C90.539,128.812 90.217,126.011 89.553,126.029 C88.974,126.045 87.03,127.395 85.234,129.029 Z M85.192,160.295 C83.987,161.579 83,163.137 83,163.758 C83,165.53 78.83,168 75.837,168 C74.731,168 73.938,167.982 73.344,168.317 C71.807,169.182 71.598,172.406 70.714,184.402 C70.401,188.65 72.09,188.553 77.233,184.026 C80.384,181.252 82.732,180 84.781,180 C86.417,180 88.186,179.438 88.713,178.75 C90.03,177.031 89.788,158.767 88.442,158.316 C87.861,158.121 86.398,159.012 85.192,160.295 Z"/>
</svg>

