<svg xmlns="http://www.w3.org/2000/svg" width="300" height="300" viewBox="0 0 300 300" version="1.1">
  <defs/>
  <path d="M161.086,178.396 C164.737,173.997 176.265,180.565 177.626,187.819 C178.776,193.948 176.023,205.904 171.829,213 C168.665,218.353 167.188,220.593 164.75,223.733 C163.238,225.681 162,227.585 162,227.964 C162,228.343 165.125,228.619 168.945,228.577 C176.562,228.493 177.469,228.979 178.46,233.684 C179.391,238.108 175.869,240.403 168.448,240.207 C165.494,240.13 162.808,240.501 162.48,241.033 C162.151,241.565 160.896,242.005 159.691,242.012 C158.486,242.018 153.9,242.961 149.5,244.107 C140.175,246.535 137.552,247.254 135.972,246.28 C135.307,245.871 134.827,245.161 134.109,244.153 C132.92,242.484 131.052,240.834 129.957,240.486 C127.617,239.744 125,234.048 125,229.699 C125,224.139 118.814,207.21 114.335,200.513 C107.831,190.789 111.403,180.647 119.129,186.903 C120.421,187.95 121.945,190.72 122.515,193.06 C123.733,198.065 126.051,200.033 128.416,198.07 C129.287,197.347 130,195.963 130,194.994 C130,192.908 137.331,186 139.545,186 C140.391,186 143.971,184.65 147.5,183 C151.029,181.35 155.23,180 156.836,180 C158.441,180 160.354,179.278 161.086,178.396 Z M65.36,88.595 C67.163,87.705 68.028,87.259 68.936,87.135 C69.875,87.007 70.861,87.222 72.978,87.646 C76.666,88.383 79.99,92.905 79.996,97.191 C79.998,98.671 80.396,100.127 80.88,100.426 C81.968,101.098 82.965,114.445 83.5,135.5 C83.724,144.3 84.184,159.15 84.523,168.5 C85.005,181.783 84.834,186.362 83.74,189.442 C81.041,197.038 75.764,196.856 75.193,189.148 C75.009,186.67 74.384,185 73.64,185 C72.479,185 69.867,191.256 68.623,197.015 C68.324,198.399 66.473,201.088 64.509,202.991 C61.579,205.831 60.631,206.252 59.22,205.337 C56.076,203.298 57.472,196.579 62.701,188.578 C65.246,184.685 68.112,180.6 69.071,179.5 C73.651,174.247 74.875,169.876 74.954,158.5 C75.078,140.77 72.524,104.124 71.063,102.663 C69.273,100.873 66.738,102.697 63.923,107.8 C62.315,110.715 61,113.742 61,114.527 C61,115.312 59.908,116.669 58.574,117.543 C56.181,119.111 56.15,119.328 56.263,133.67 C56.355,145.398 56.658,148.315 57.832,148.766 C58.697,149.098 60.075,148.244 61.227,146.662 C62.464,144.965 64.105,144 65.755,144 C68.568,144 72,146.532 72,148.608 C72,151.422 69.492,155.151 66.252,157.153 C63.296,158.98 62.53,159.086 60.424,157.959 C59.091,157.246 58,156.063 58,155.331 C58,154.599 57.615,154 57.144,154 C56.672,154 56.3,155.238 56.316,156.75 C56.331,158.262 56.058,162.425 55.709,166 C55.36,169.575 54.763,176.971 54.382,182.436 C54,187.901 53.086,193.526 52.35,194.936 C51.614,196.346 51.01,198.872 51.006,200.55 C50.999,204.31 49.422,206 45.922,206 C42.113,206 40.389,203.637 41.853,200.423 C42.484,199.039 43,196.838 43,195.534 C43,194.229 43.623,190.538 44.384,187.331 C46.234,179.539 48.068,155.336 47.516,146 C45.789,116.829 44.892,106.492 44.011,105.611 C41.607,103.207 43.403,93.437 46.639,91.317 C48.779,89.915 49.234,89.923 51.5,91.408 C53.053,92.426 54,93.984 54,95.523 C54,99.016 55.416,98.61 59.063,94.072 C60.799,91.911 63.632,89.447 65.36,88.595 Z M132.548,69.25 C133.999,65.437 134.504,65 137.46,65 C142.403,65 143.082,66.472 141.744,74.285 C140.994,78.661 140.935,81.335 141.573,81.973 C142.212,82.612 144.804,82.268 149.026,80.984 C152.587,79.901 156.061,79.012 156.747,79.008 C157.433,79.003 159.747,80.584 161.89,82.52 C164.613,84.98 165.784,86.861 165.78,88.77 C165.768,94.248 163.684,109.077 162.854,109.59 C162.384,109.881 162,111.197 162,112.515 C162,118.618 150.686,132.219 146,131.75 C142.5,131.4 142.131,127.211 145.262,123.39 C151.393,115.909 155.181,106.589 155.378,98.5 L155.5,93.5 L150.5,93.679 C146.18,93.833 145.126,94.304 142.75,97.141 C140.871,99.384 140,101.561 140,104.012 C140,105.986 139.589,108.028 139.087,108.55 C138.585,109.073 137.915,112.65 137.599,116.5 C136.94,124.506 135.974,128.866 133.641,134.372 C130.891,140.862 131.154,141.018 140.25,138.29 C144.787,136.929 150.975,135.117 154,134.264 C157.025,133.412 164.092,130.688 169.705,128.212 C179.661,123.82 179.973,123.752 182.508,125.414 C183.938,126.35 185.383,127.835 185.72,128.712 C186.618,131.052 180.116,136.576 174.334,138.386 C168.078,140.346 161.277,142.809 157.5,144.483 C155.85,145.215 152.546,146.092 150.158,146.433 C147.77,146.774 144.17,147.878 142.158,148.886 C140.146,149.893 135.411,150.994 131.635,151.332 C127.859,151.67 124.226,152.397 123.562,152.948 C122.898,153.5 119.478,154.687 115.963,155.588 C112.447,156.489 108.167,158.296 106.452,159.605 C100.163,164.401 93,163.61 93,158.12 C93,156.574 93.787,154.606 94.75,153.747 C97.075,151.669 106.115,147.684 113.272,145.58 C118.643,144.002 119.189,143.557 121.122,139.192 C126.003,128.169 126.819,125.48 128.013,116.5 C128.598,112.1 129.332,107.058 129.645,105.297 L130.213,102.093 L124.357,102.297 C118.61,102.496 118.494,102.447 118.175,99.662 C117.764,96.074 120.443,93 123.981,93 C127.523,93 131.24,88.979 131.072,85.328 C130.7,77.265 131.082,73.102 132.548,69.25 Z M152,192.835 C149.525,193.758 145.025,195.858 142,197.501 C138.975,199.144 135.382,200.719 134.016,201.001 C132.039,201.409 131.386,202.33 130.817,205.507 C130.025,209.935 131.622,219.415 133.675,222.473 C134.404,223.557 135,225.267 135,226.272 C135,229.156 137.895,234 139.618,234 C144.692,234 157.762,219.332 164.306,206.292 C166.85,201.224 168.215,193.964 166.917,192.4 C165.344,190.504 157.643,190.728 152,192.835 Z M146.5,46 C149.286,44.71 150.396,44.111 151.341,44.307 C152.133,44.472 152.81,45.196 154.26,46.54 C156.999,49.08 157.834,53.138 156.161,55.774 C155.716,56.474 152.719,57.476 149.5,58 C146.281,58.524 143.187,59.413 142.624,59.976 C142.061,60.539 140.356,61 138.835,61 C137.216,61 135.679,61.732 135.125,62.767 C134.605,63.738 132.494,65.143 130.435,65.887 C126.891,67.169 126.593,67.114 124.868,64.871 C121.391,60.35 123.444,54.761 128.987,53.653 C130.67,53.316 133.715,51.907 135.755,50.52 C137.795,49.134 140.147,47.967 140.982,47.926 C141.817,47.885 144.3,47.018 146.5,46 Z"/>
</svg>

