<svg xmlns="http://www.w3.org/2000/svg" width="300" height="300" viewBox="0 0 300 300" version="1.1">
  <defs/>
  <path d="M68.974,89.532 C72.422,85.377 80,89.916 80,96.135 C80,100.403 82.14,99.729 88.37,93.5 C92.599,89.27 94.565,88 96.879,88 C104.462,88 108.922,97.394 109.32,114.203 C109.459,120.09 109.894,125.227 110.287,125.62 C110.679,126.012 111,141.714 111,160.512 C111,193.744 110.943,194.742 108.941,196.553 C105.833,199.366 103.52,197.41 103.424,191.885 C103.319,185.844 101.013,185.596 97.69,191.267 C96.282,193.668 92.577,197.853 89.455,200.566 C84.894,204.531 83.065,205.5 80.146,205.5 C76.878,205.5 76.399,205.851 75.376,209 C74.613,211.345 73.621,212.5 72.369,212.5 C70.646,212.5 70.508,211.599 70.598,201 C70.721,186.618 72.668,153.62 73.56,150.812 C74.438,148.044 71.95,109.087 70.851,108.408 C70.383,108.119 70,105.823 70,103.307 C70,100.791 69.483,97.007 68.851,94.898 C67.953,91.9 67.98,90.729 68.974,89.532 Z M171.845,160.075 C180.764,157.584 184.2,157.583 187.365,160.073 C189.786,161.977 190,162.744 190,169.514 C190,173.566 189.55,177.16 189,177.5 C188.45,177.84 188,178.968 188,180.006 C188,181.045 186.945,183.83 185.656,186.197 C184.366,188.564 182.454,192.075 181.406,193.999 C180.358,195.924 179.183,197.737 178.797,198.03 C177.397,199.086 172.036,207.529 172.018,208.705 C172.008,209.367 173.463,210.126 175.25,210.39 C187.853,212.256 195.4,212.862 196.838,212.124 C199.845,210.582 206.824,210.151 208.534,211.401 C210.983,213.192 210.072,218.154 207,219.762 C204.54,221.05 195.074,220.926 182.5,219.441 C178.024,218.912 153.321,221.802 147.336,223.555 C145.738,224.023 144.865,223.616 144.001,222.001 C142.334,218.886 143.462,215.771 146.972,213.797 C150.563,211.776 150.86,210.261 147.75,209.82 C145.769,209.538 145.381,208.644 144.5,202.326 C143.95,198.381 143.162,194.818 142.75,194.41 C142.338,194.001 142,192.744 142,191.617 C142,186.693 136.561,175.78 131.703,170.957 C126.626,165.917 127.291,160 132.935,160 C137.058,160 143.601,167.794 144.918,174.275 C145.819,178.705 149.643,179.41 150.558,175.315 C150.903,173.767 151.39,171.742 151.639,170.816 C152.272,168.468 163.87,162.302 171.845,160.075 Z M91.762,104.75 C89.537,108.417 83.722,114.593 81.933,115.189 C80.893,115.535 80.548,117.151 80.676,121.083 C81.32,140.879 81.983,152.316 82.516,152.849 C83.123,153.456 90,146.135 90,144.882 C90,144.53 91.361,143.679 93.026,142.989 C95.643,141.905 96.317,141.977 98.026,143.523 C100.441,145.709 100.499,147.803 98.228,150.715 C95.661,154.005 85.902,161 83.878,161 C81.18,161 80.754,162.44 79.916,174.402 C79.489,180.506 78.825,187.18 78.442,189.232 C77.483,194.362 79.821,195.194 84.407,191.356 C92.874,184.269 95.492,182.39 99.121,180.791 L103,179.082 L103.011,156.791 C103.023,133.924 101.571,110.848 99.926,107.764 C99.417,106.809 99,105.121 99,104.014 C99,100.771 93.859,101.294 91.762,104.75 Z M150.5,71.555 C159.986,66.306 160.866,66.021 167.615,66.011 C176.208,65.998 178.932,67.687 180.701,74.128 C182.615,81.091 183.299,88.697 182.079,89.451 C181.486,89.818 181,92.284 181,94.932 C181,97.652 180.084,101.815 178.895,104.504 C176.627,109.632 168.987,118 166.573,118 C162.412,118 156.044,112.355 157.517,109.972 C157.848,109.437 159.859,109 161.988,109 C167.433,109 168.377,107.846 171.86,96.929 C173.129,92.952 173.375,82.107 172.235,80.4 C169.523,76.339 160.854,75.857 155.898,79.492 C154.029,80.863 151.114,82.637 149.42,83.434 C147.727,84.232 145.759,85.585 145.048,86.442 C142.061,90.041 136.529,86.863 137.623,82.178 C138.504,78.406 139.286,77.761 150.5,71.555 Z M173.282,170.118 C172.62,170.78 170.148,172.037 167.789,172.911 C162.071,175.029 155.892,179.643 152.537,184.3 C150.015,187.799 149.902,188.348 151.099,191.24 C151.815,192.967 152.4,198.119 152.4,202.69 C152.4,208.574 152.757,211 153.623,211 C157.176,211 170.498,195.524 176.377,184.568 C179.258,179.2 180.03,176.718 179.799,173.568 C179.542,170.066 179.151,169.459 176.993,169.207 C175.614,169.046 173.944,169.456 173.282,170.118 Z M149.473,87.401 C150.751,85.451 151.82,84.952 154.211,85.191 C158.141,85.584 159.972,88.214 158.243,90.983 C157.559,92.077 157,95.217 157,97.959 C157,101.185 156.081,104.985 154.397,108.723 C152.965,111.9 151.438,115.4 151.003,116.5 C150.569,117.6 149.093,120.975 147.724,124 C146.355,127.025 144.426,131.525 143.438,134 C141.292,139.38 139.583,141.478 138.096,140.559 C136.065,139.304 136.979,132.411 140.5,122.429 C142.425,116.972 144,111.464 144,110.188 C144,108.912 144.461,107.007 145.025,105.953 C145.589,104.9 146.449,100.861 146.936,96.979 C147.424,93.096 148.565,88.786 149.473,87.401 Z"/>
</svg>

