<svg xmlns="http://www.w3.org/2000/svg" width="300" height="300" viewBox="0 0 300 300" version="1.1">
  <defs/>
  <path d="M145.571,18.571 C146.436,17.707 148.136,17 149.349,17 C151.908,17 156,19.601 156,21.228 C156,22.803 149.994,35.155 148.228,37.213 C146.146,39.638 147.4,42 150.769,42 C156.801,42 157.733,46.928 152.636,51.868 C149.919,54.501 149.273,55.899 149.273,59.138 C149.273,62.908 149.421,63.111 151.754,62.526 C154.954,61.723 158,64.388 158,67.991 C158,69.5 156.522,72.601 154.618,75.086 C151.466,79.199 151.202,80.131 150.743,88.75 C150.184,99.255 150.323,99.404 157.084,95.564 C162.185,92.667 164.487,93.387 165.546,98.212 C166.178,101.086 165.854,101.787 162.59,104.608 C160.575,106.351 154.23,110.189 148.491,113.138 C138.513,118.265 135.668,119.635 135.378,121.42 C135.249,122.216 135.628,123.095 136.109,124.426 C137.115,127.206 137.135,128.265 136.201,129.199 C135.54,129.86 135.003,131.323 135.006,132.45 C135.015,135.839 137.022,142 138.117,142 C138.679,142 141.152,140.537 143.613,138.75 C146.073,136.962 150.654,133.672 153.793,131.439 L159.5,127.378 L160,118.939 L160.5,110.5 L163.5,110.5 C166.046,110.5 166.803,111.141 168.5,114.732 C170.454,118.867 172.246,120.029 173.512,117.981 C174.623,116.183 184.094,111.872 186.231,112.191 C192.506,113.129 189.991,119.423 181.513,123.993 C175.498,127.236 174.049,129.248 175.757,131.983 C176.441,133.077 177,135.513 177,137.396 C177,140.941 181.252,154.888 184.908,163.333 C186.059,165.991 187,169.479 187,171.083 C187,172.687 187.45,174 188,174 C188.55,174 189,175.26 189,176.8 C189,178.34 189.517,180.117 190.149,180.749 C190.781,181.381 191.57,183.572 191.903,185.617 C192.72,190.644 194.498,190.909 196.547,186.308 C197.479,184.214 199.26,180.25 200.504,177.5 C201.748,174.75 203.54,170.475 204.486,168 C205.431,165.525 206.609,162.719 207.103,161.764 C207.596,160.809 208,159.34 208,158.5 C208,157.66 208.407,156.191 208.905,155.236 C209.402,154.281 211.54,149.9 213.655,145.5 C218.486,135.449 219.533,134.572 223.299,137.428 C225.413,139.031 225.984,145.661 224.311,149.174 C221.573,154.925 220,158.901 220,160.072 C220,160.771 219.392,162.053 218.649,162.921 C217.905,163.79 216.379,166.3 215.256,168.5 C212.718,173.476 204.394,190.972 203.6,193 C203.277,193.825 202.63,195.175 202.162,196 C198.606,202.268 198.138,205.36 200.156,209.264 C202.527,213.85 203.068,215.136 204.575,219.762 C205.423,222.368 207.488,227.425 209.162,231 C216.52,246.711 220.283,254.604 221.081,256 C221.553,256.825 222.866,259.3 224,261.5 C228.515,270.26 232.053,276.224 237.148,283.663 C238.717,285.953 240,288.451 240,289.213 C240,291.146 242.057,293 244.2,293 C246.14,293 246.748,289.58 245,288.5 C244.45,288.16 244,285.427 244,282.427 C244,279.427 243.598,276.191 243.106,275.236 C242.26,273.595 240.468,263.759 239.263,254.149 C238.787,250.356 238.946,249.844 240.501,250.149 C241.483,250.342 242.643,251.175 243.079,252 C245.408,256.401 247,260.512 247,262.126 C247,263.838 249.852,270.771 254.043,279.246 C255.125,281.435 256.182,286.527 256.585,291.496 L257.275,300 L237.17,300 L232.491,293.776 C229.917,290.352 226.943,285.965 225.88,284.026 C224.818,282.087 223.137,279.15 222.145,277.5 C220.16,274.197 211.532,257.383 210.6,255 C210.277,254.175 209.589,252.825 209.07,252 C207.55,249.58 201,235.005 201,234.043 C201,233.558 200.249,231.663 199.331,229.831 C196.234,223.65 196,223.032 196,221.014 C196,219.667 195.338,219 194,219 C192.9,219 191.999,219.563 191.997,220.25 C191.996,220.938 190.673,222.385 189.059,223.467 C187.445,224.548 185.649,226.348 185.069,227.467 C183.916,229.691 182.892,231.342 178.754,237.658 C177.244,239.963 175.55,242.895 174.989,244.174 C174.429,245.453 173.076,247.85 171.983,249.5 C170.89,251.15 169.315,253.85 168.483,255.5 C166.783,258.871 166.497,259.345 159.411,270.536 C154.194,278.776 144.453,290.687 138.083,296.612 C134.669,299.788 134.134,299.947 126.75,299.973 C122.487,299.988 119,299.587 119,299.082 C119,296.434 120.458,295 123.15,295 C125.255,295 127.557,293.657 131.288,290.25 C134.149,287.637 137.064,284.735 137.767,283.799 C138.47,282.864 139.597,281.514 140.272,280.799 C143.086,277.822 152.723,264.24 154.321,261 C155.27,259.075 157.724,254.733 159.773,251.351 C161.823,247.969 165.487,241.894 167.915,237.851 C170.344,233.808 174.441,227.125 177.02,223 C179.599,218.875 183.443,212.264 185.563,208.309 C189.227,201.472 189.332,201.025 187.708,199.23 C186.769,198.192 186,196.167 186,194.73 C186,193.294 185.55,191.84 185,191.5 C184.45,191.16 184,190.002 184,188.927 C184,187.852 183.605,186.191 183.122,185.236 C180.8,180.644 179,175.748 179,174.025 C179,172.976 178.55,171.84 178,171.5 C177.45,171.16 177,169.87 177,168.632 C177,167.395 176.339,165.509 175.532,164.441 C174.724,163.374 174.049,161.509 174.032,160.297 C174.014,159.085 173.494,156.835 172.875,155.297 C170.492,149.369 170.151,148.439 169.649,146.5 C168.214,140.956 166.027,136.466 164.623,136.182 C163.759,136.007 158.38,139.044 152.669,142.932 C146.958,146.819 141.771,150 141.142,150 C140.514,150 140,150.9 140,152 C140,153.705 140.667,154 144.522,154 C148.432,154 149.652,154.559 153.522,158.127 C156.789,161.138 158,163.017 158,165.071 C158,170.494 149.833,173.32 148.011,168.528 C146.908,165.628 142.661,164.207 140.487,166.011 C139.601,166.746 139,168.95 139,171.467 C139,174.243 138.391,176.241 137.224,177.297 C134.951,179.354 127.501,180.62 126.567,179.108 C125.209,176.912 122.357,178.08 118.861,182.262 C116.901,184.607 113.66,187.407 111.657,188.485 C108.308,190.289 107.888,190.317 106.404,188.833 C104.997,187.426 104.959,186.726 106.104,183.36 C106.826,181.237 107.713,179.05 108.075,178.5 C110.391,174.977 114.019,167.686 113.643,167.31 C113.395,167.062 110.24,167.599 106.632,168.504 C97.128,170.887 95.569,170.452 95.196,165.314 C94.839,160.41 95.57,159.836 105.861,156.948 C109.512,155.923 115.425,153.603 119,151.792 C125.33,148.586 125.508,148.389 125.807,144.25 C126.075,140.557 125.851,140 124.105,140 C122.999,140 120.966,140.514 119.588,141.142 C115.785,142.875 112,140.073 112,135.524 C112,132.47 112.375,131.991 115.421,131.149 C117.302,130.63 120.942,128.76 123.509,126.994 C127.347,124.353 128.055,123.402 127.495,121.641 C125.499,115.373 125.702,114.403 129.659,111.301 C131.772,109.644 134.464,107.784 135.643,107.167 C137.04,106.435 137.984,104.732 138.354,102.272 C138.667,100.197 139.209,96.866 139.557,94.868 C140.404,90.016 138.891,89.322 134.286,92.452 C130.214,95.219 123.328,95.928 121.2,93.8 C119.648,92.248 119.648,85.752 121.2,84.2 C121.86,83.54 123.957,83 125.859,83 C128.36,83 130.825,81.863 134.756,78.895 C139.591,75.244 140.116,74.497 139.495,72.145 C139.111,70.69 138.573,67.1 138.301,64.166 C137.831,59.109 137.679,58.864 135.382,59.44 C131.05,60.527 128.996,58.514 129.032,53.215 C129.049,50.622 129.724,47.626 130.532,46.559 C132.968,43.338 132.352,41.233 128.75,40.471 C124.324,39.535 121,36.271 121,32.861 C121,28.87 124.041,27.453 128.099,29.551 C129.813,30.437 132.233,30.907 133.476,30.595 C135.75,30.025 144,22.466 144,20.954 C144,20.508 144.707,19.436 145.571,18.571 Z M69.367,96.703 C74.14,95.795 77.632,97.938 81.63,104.23 C83.783,107.619 84,109.054 84,119.904 C84,132.167 85.374,141.345 87.609,144.01 C88.558,145.142 88.73,148.793 88.295,158.577 C87.795,169.823 87.95,171.994 89.413,174.226 C91.532,177.461 91.412,192.916 89.232,197.367 C87.97,199.943 87.461,200.174 84.209,199.646 C80.792,199.092 80.189,199.449 73.402,206.03 C66.177,213.035 63.32,214.295 61,211.5 C60.315,210.675 58.515,210 57,210 C52.66,210 51.931,208.296 53.089,200.859 C54.292,193.129 53.607,133.643 52.169,121 C51.285,113.229 50.502,109.081 48.567,101.926 C48.081,100.126 48.355,98.95 49.48,98.016 C50.87,96.863 51.619,97.198 54.976,100.477 L58.864,104.273 L63.048,100.691 C65.35,98.72 68.193,96.926 69.367,96.703 Z M125.5,187.186 C130.45,185.534 135.287,184.141 136.25,184.091 C140.014,183.895 143.839,190.745 140.959,192.525 C140.387,192.879 138.79,194.956 137.41,197.142 C136.031,199.328 133.51,202.36 131.808,203.88 C127.193,208.004 128.46,209.23 134.962,206.931 C141.947,204.461 145.088,204.494 148.365,207.073 C150.712,208.918 150.997,209.821 150.968,215.323 C150.948,219.162 150.381,222.235 149.468,223.441 C148.661,224.509 148,226.202 148,227.205 C148,228.207 147.55,229.921 147,231.014 C146.45,232.106 145.55,233.894 145,234.986 C144.45,236.079 144,238.004 144,239.264 C144,240.524 143.405,242.443 142.678,243.527 C141.951,244.612 140.741,247.075 139.989,249 C138.114,253.801 132.42,260.644 128.797,262.451 C123.699,264.995 119.266,265.405 116.496,263.589 C115.123,262.69 114,261.495 114,260.935 C114,260.374 112.621,258.022 110.936,255.708 C106.367,249.435 100,239.216 100,238.157 C100,237.647 99.335,235.946 98.521,234.379 C97.213,231.857 97.216,231.355 98.548,230.024 C101.066,227.505 104.671,230.509 111.723,241 C115.235,246.225 118.822,251.512 119.694,252.75 C123.141,257.64 127.174,254.709 132.422,243.5 C133.452,241.3 134.678,238.719 135.147,237.764 C135.616,236.809 136,235.115 136,234 C136,232.885 136.404,231.191 136.897,230.236 C139.462,225.273 141.139,220.02 140.837,217.891 C140.557,215.919 139.976,215.538 137.519,215.72 C135.88,215.841 132.64,217.279 130.318,218.916 C127.995,220.552 124.387,222.201 122.298,222.579 C120.209,222.958 117.2,223.926 115.611,224.731 C111.701,226.713 108,225.113 108,221.44 C108,219.511 110.198,216.63 116.5,210.3 C121.175,205.603 125,201.14 125,200.381 C125,199.421 123.69,199 120.7,199 C118.335,199 115.86,198.46 115.2,197.8 C113.62,196.22 113.656,191.04 115.25,190.563 C115.938,190.357 120.55,188.838 125.5,187.186 Z M64.58,111.919 C60.337,116.227 59.826,117.188 60.463,119.669 C60.864,121.226 61.419,124.75 61.698,127.5 C61.977,130.25 62.603,132.988 63.088,133.584 C63.573,134.181 63.751,136.881 63.484,139.584 C62.66,147.916 62.638,148.363 62.822,153.25 C62.924,155.978 63.476,158 64.118,158 C64.733,158 66.774,156.65 68.653,155 C70.532,153.35 72.899,152 73.912,152 C76.918,152 78.297,149.451 77.556,145.264 C77.19,143.194 76.523,136.1 76.075,129.5 C74.878,111.864 73.692,107 70.59,107 C69.949,107 67.245,109.213 64.58,111.919 Z M74.136,166.75 C72.835,167.655 69.916,168.644 67.649,168.948 C63.557,169.496 63.521,169.537 62.853,174.5 C62.483,177.25 61.998,184.787 61.776,191.25 C61.413,201.799 61.545,203 63.071,203 C64.005,203 65.459,201.988 66.301,200.75 C67.144,199.512 70.008,196.159 72.666,193.297 C75.325,190.436 78.287,187.082 79.25,185.844 C81.433,183.036 81.57,175.321 79.506,171.364 C78.685,169.789 78.01,167.713 78.006,166.75 C77.999,164.614 77.206,164.614 74.136,166.75 Z M190.706,85.772 C191.918,84.433 193.149,84.072 194.954,84.525 C196.352,84.876 197.526,85.238 197.564,85.331 C197.601,85.424 199.514,88.307 201.816,91.739 C204.117,95.17 206,98.567 206,99.289 C206,100.01 206.488,101.088 207.085,101.685 C208.617,103.217 207.811,107.42 205.916,107.781 C205.045,107.947 202.345,106.017 199.916,103.492 C197.487,100.966 194.037,97.986 192.25,96.869 C189.564,95.19 189,94.214 189,91.247 C189,89.267 189.765,86.812 190.706,85.772 Z M120.265,161.843 C114.323,164.858 113.06,167.585 118.119,166.474 C120.026,166.055 122.17,166.288 123.639,167.074 C126.628,168.674 127.834,167.606 128.214,163.025 C128.581,158.599 127.093,158.378 120.265,161.843 Z M213,251.351 C213,251.544 213.494,253.119 214.098,254.851 C215.115,257.77 217,259.208 217,257.065 C217,255.078 215,251 214.025,251 C213.461,251 213,251.158 213,251.351 Z M210,246.5 C210,247.325 210.45,248 211,248 C211.55,248 212,247.325 212,246.5 C212,245.675 211.55,245 211,245 C210.45,245 210,245.675 210,246.5 Z"/>
</svg>

