<svg xmlns="http://www.w3.org/2000/svg" width="300" height="300" viewBox="0 0 300 300" version="1.1">
  <defs/>
  <path d="M124.601,60.623 C140.009,55.168 153.157,55.944 160.236,62.726 C162.843,65.223 163,65.873 163,74.128 C163,78.943 162.611,83.123 162.135,83.417 C161.659,83.711 161.026,85.452 160.728,87.287 C159.893,92.433 150.821,105.427 146.632,107.476 C145.46,108.05 143.047,111.408 141.271,114.939 C139.494,118.47 137.602,121.798 137.064,122.336 C136.527,122.873 132.199,123.887 127.446,124.59 C122.693,125.293 118.06,126.499 117.152,127.271 C115.329,128.819 101.145,137 100.283,137 C99.986,137 97.999,138.575 95.868,140.5 C93.738,142.425 91.476,144 90.842,144 C90.208,144 88.214,145.125 86.411,146.5 C82.535,149.457 82.208,149.499 79.829,147.345 C78.623,146.254 78,144.292 78,141.587 C78,137.656 78.272,137.299 84.5,133.076 C88.075,130.652 91,128.38 91,128.027 C91,127.674 93.025,125.958 95.5,124.213 C102.153,119.524 101.297,117 93.055,117 C85.344,117 80.625,107.257 86.479,103.422 C88.861,101.861 89.115,101.923 93.03,105.024 C97.569,108.619 100.74,109.055 104.485,106.602 C107.181,104.835 107.316,104.04 107.44,89.252 C107.489,83.273 107.222,82.003 105.913,82.002 C103.395,81.999 91.298,90.833 81.449,99.867 C73.259,107.378 73.203,107.413 71.5,106 C69.115,104.021 69.703,101.96 74.759,94.572 C78.346,89.33 81.641,86.104 88.295,81.322 C93.132,77.845 97.337,75 97.64,75 C97.944,75 101.906,72.554 106.446,69.564 C111.461,66.261 118.587,62.752 124.601,60.623 Z M120,159.935 C127.874,157.531 133.814,160.92 135.997,169.061 C136.652,171.502 137.679,174.4 138.281,175.5 C141.627,181.618 138.143,242.609 134.183,247.25 C133.362,248.212 131.667,249 130.416,249 C129.166,249 127.548,249.593 126.821,250.317 C126.095,251.042 123.954,252.172 122.065,252.83 C120.176,253.487 117.926,254.633 117.065,255.376 C114.502,257.588 106.347,260.245 104.205,259.565 C103.111,259.218 101.654,257.578 100.968,255.922 C98.94,251.027 100.755,248.583 108.175,246.213 C117.465,243.247 125.867,239.116 127.03,236.944 C127.591,235.896 128.309,229.406 128.627,222.52 C129.313,207.657 129.279,207.628 119.399,214.534 C111.983,219.717 108.022,220.936 106.104,218.625 C104.314,216.468 106.448,210.165 109.348,209.044 C110.532,208.587 112.625,206.976 114,205.465 C115.375,203.954 119.598,200.695 123.384,198.223 L130.268,193.73 L129.727,186.574 C129.175,179.272 125.939,171 123.634,171 C121.713,171 114.695,175.022 111.678,177.852 C110.125,179.309 107.905,182.188 106.744,184.25 C104.546,188.153 103.194,188.794 101.254,186.854 C99.057,184.657 102.729,171.984 106.815,167.658 C109.532,164.783 115.423,161.333 120,159.935 Z M128.273,70.36 C124.299,71.537 120.62,72.95 120.097,73.5 C118.504,75.178 116.581,94.981 117.885,96.285 C119.241,97.641 120.089,96.839 122.862,91.581 C125.263,87.03 126.545,86.036 130.05,86.015 C135.003,85.986 136.767,91.091 132.986,94.513 C131.878,95.515 129.291,98.787 127.236,101.784 C125.181,104.781 122.513,108.643 121.308,110.367 C120.102,112.09 119.089,113.873 119.058,114.329 C118.99,115.304 125.008,114.164 126.578,112.904 C127.172,112.429 128.57,111.9 129.687,111.73 C133.406,111.162 147.393,94.318 151.287,85.716 C153.794,80.177 153.565,72.604 150.811,70.039 C147.879,67.307 138.113,67.446 128.273,70.36 Z M87.396,166.519 C89.175,163.804 93.064,163.133 94.751,165.25 C96.345,167.25 97.274,175.592 98.454,198.5 C98.624,201.8 99.103,211.025 99.518,219 C99.932,226.975 100.649,233.982 101.11,234.571 C101.571,235.16 101.671,237.98 101.333,240.838 C100.802,245.317 100.371,246.12 98.204,246.664 C96.822,247.011 94.973,246.843 94.095,246.291 C91.869,244.891 90.238,234.794 90.066,221.349 C89.987,215.153 89.52,206.558 89.028,202.249 C88.537,197.94 88.388,192.525 88.698,190.217 C89.011,187.881 88.797,185.46 88.216,184.76 C87.641,184.067 86.85,180.246 86.458,176.269 C85.878,170.38 86.052,168.57 87.396,166.519 Z M39.75,83.08 C43.072,81.145 45.62,82.018 51.215,87.004 C56.347,91.578 65,102.771 65,104.836 C65,105.769 67.529,108.966 71.594,113.172 C75.143,116.843 74.473,119.417 69.869,119.803 C66.531,120.082 65.785,119.586 60.127,113.317 C56.757,109.583 54,106.021 54,105.401 C54,104.014 44.491,95 43.028,95 C41.522,95 38.008,88.916 38.004,86.3 C38.002,85.09 38.788,83.641 39.75,83.08 Z M124.084,16.894 C130.229,9.135 137.83,14.759 132.129,22.846 C131.099,24.306 129.123,27.975 127.737,31 C124.495,38.072 112.039,51 108.466,51 C105.907,51 106.845,46.45 110.5,41.136 C112.425,38.338 114,35.642 114,35.147 C114,34.651 114.675,33.685 115.5,33 C116.325,32.315 117,31.094 117,30.285 C117,29.477 117.9,27.671 119,26.273 C120.1,24.874 121,23.068 121,22.259 C121,21.45 122.388,19.036 124.084,16.894 Z M91.317,19.75 C92.03,17.739 95.037,17.437 96.8,19.2 C97.46,19.86 98,22.153 98,24.296 C98,28.475 100.492,32.979 104.885,36.738 C106.982,38.533 107.287,39.316 106.423,40.687 C105.29,42.487 100.288,44.282 98.374,43.574 C96.551,42.9 91.008,34.094 89.371,29.271 C88.062,25.417 88.05,24.59 89.277,23.157 C90.057,22.246 90.975,20.712 91.317,19.75 Z"/>
</svg>

