<svg xmlns="http://www.w3.org/2000/svg" width="300" height="300" viewBox="0 0 300 300" version="1.1">
  <defs/>
  <path d="M106.417,13.285 C107.563,12.617 109.016,12.055 109.646,12.035 C111.694,11.972 116.88,18.858 117.701,22.729 C119.056,29.124 118.613,67.721 117.093,75.633 C115.864,82.034 115.892,83.007 117.362,85.106 C121.351,90.802 118.086,97.199 110.5,98.551 C105.546,99.433 103.598,100.416 98.397,104.655 C96.14,106.495 93.778,108 93.147,108 C91.556,108 91.713,110.239 93.468,112.559 C95.481,115.22 95.356,117.278 93,120.273 C91.9,121.671 91,123.605 91,124.57 C91,125.535 89.832,128.318 88.404,130.755 C86.976,133.191 85.423,136.524 84.954,138.161 C84.111,141.101 84.139,141.128 87.3,140.444 C89.06,140.062 93.639,138.175 97.476,136.249 C111.907,129.005 133.774,123.488 141.328,125.185 C147.217,126.508 148.336,127.243 156.777,135.321 C158.029,136.519 160.054,139.525 161.277,142 C163.221,145.936 163.497,148.067 163.474,159 C163.452,169.813 163.148,172.134 161.224,176.195 C160.001,178.777 159,182.013 159,183.386 C159,184.759 158.55,186.16 158,186.5 C157.45,186.84 157,188.485 157,190.155 C157,191.825 156.373,194.386 155.606,195.846 C154.003,198.899 150.274,207.108 148.495,211.5 C147.827,213.15 146.796,215.625 146.203,217 C145.611,218.375 144.829,220.555 144.466,221.844 C144.103,223.133 142.499,226.123 140.903,228.489 C139.306,230.855 138,233.486 138,234.336 C138,235.186 137.533,236.171 136.962,236.523 C136.391,236.876 134.58,239.546 132.938,242.456 C130.802,246.241 128.715,248.404 125.61,250.051 C121.671,252.141 120.966,252.229 118.003,251.001 C114.553,249.572 104.124,239.894 99.682,234 C97.397,230.967 96.808,230.667 95.272,231.752 C94.298,232.441 92.487,233.443 91.25,233.978 C90.013,234.513 89,235.344 89,235.825 C89,237.313 83.775,244.449 77.61,251.379 C70.15,259.765 62.876,264.459 59.224,263.241 C55.281,261.927 54.206,259.535 56.447,257.059 C57.472,255.926 58.945,255 59.722,255 C62.066,255 67.948,249.94 71.255,245.077 C72.967,242.56 74.662,240.275 75.021,240 C75.379,239.725 76.979,237.25 78.575,234.5 C80.172,231.75 83.191,227.025 85.285,224 C92.116,214.134 101.631,199.567 103.249,196.5 C107.917,187.651 111.059,180.751 113.357,174.299 C114.767,170.339 116.337,166.289 116.844,165.299 C119.906,159.328 121.903,151.654 122.469,143.682 C122.874,137.988 121.416,136.871 116.619,139.201 C110.176,142.33 104.419,144.816 102,145.515 C100.625,145.912 98.825,146.812 98,147.515 C97.175,148.218 93.579,149.534 90.009,150.438 C86.439,151.342 83.086,152.514 82.559,153.041 C82.032,153.568 80.79,154 79.8,154 C78.81,154 78,154.394 78,154.875 C78,155.356 76.746,156.001 75.213,156.307 C73.155,156.719 70.339,159.552 64.463,167.121 C60.083,172.762 55.318,178.53 53.874,179.939 C52.43,181.347 50.101,184.35 48.699,186.611 C45.76,191.351 37.945,196.435 35.023,195.507 C31.084,194.257 31.507,191.075 36.27,186.139 C38.731,183.587 41.14,180.756 41.623,179.846 C42.105,178.937 44.975,175.546 48,172.31 C57.068,162.612 70,145.603 70,143.375 C70,143.008 71.479,140.41 73.287,137.604 C75.095,134.797 77.166,130.7 77.889,128.5 C78.611,126.3 80.282,122.822 81.601,120.771 C82.921,118.721 84,116.577 84,116.008 C84,115.439 84.558,114.079 85.241,112.986 C86.236,111.392 86.219,110.58 85.153,108.873 C83.821,106.741 83.812,106.014 84.477,53 C84.576,45.102 84.133,37.374 83.411,34.377 C79.827,19.513 80.781,14.134 86.769,15.449 C88.909,15.919 90.301,17.059 91.19,19.068 C92.89,22.908 94.368,22.768 99.814,18.25 C102.3,16.188 105.272,13.953 106.417,13.285 Z M133.463,137.059 C133.035,137.753 132.541,141.511 132.367,145.41 C131.989,153.848 130.662,159.782 127.975,165.049 C126.889,167.178 126,169.634 126,170.506 C126,171.378 124.875,174.205 123.5,176.788 C122.125,179.371 121,182.249 121,183.183 C121,184.117 120.599,185.13 120.109,185.433 C119.619,185.735 117.293,189.924 114.94,194.742 C112.587,199.559 109.163,205.633 107.331,208.24 C105.499,210.847 104,213.589 104,214.335 C104,215.08 103.1,216.505 102,217.5 C99.087,220.136 99.512,221.649 104,224.619 C106.2,226.075 108,228.061 108,229.033 C108,230.715 118.281,241 119.962,241 C120.958,241 126,234.478 126,233.189 C126,232.67 126.645,231.709 127.434,231.055 C129.178,229.607 142,204.372 142,202.387 C142,201.609 142.4,200.191 142.89,199.236 C145.276,194.579 150.969,178.775 152.341,173 C155.001,161.804 155.201,160.044 154.502,154.02 C153.962,149.363 153.124,147.336 150.444,144.205 C145.523,138.456 135.267,134.141 133.463,137.059 Z M93.614,154.401 C94.684,152.147 95.926,151 97.299,151 C99.92,151 104,154.767 104,157.188 C104,158.926 103.651,159.816 100.834,165.25 C100.192,166.488 97.859,171.1 95.648,175.5 C93.438,179.9 89.463,186.052 86.815,189.171 C84.167,192.29 82,195.35 82,195.971 C82,200.096 74.78,209 71.435,209 C65.588,209 65.843,202.417 71.973,195.147 C74.174,192.537 77.82,186.824 80.076,182.451 C82.332,178.078 84.774,173.825 85.502,173 C86.964,171.343 92,160.32 92,158.777 C92,158.241 92.726,156.272 93.614,154.401 Z M98.75,32.959 L94,37.915 L94,46.832 C94,56.74 94.764,62 96.202,62 C96.725,62 98.517,60.637 100.183,58.971 C101.849,57.305 104.448,55.303 105.958,54.522 C108.442,53.237 108.755,52.455 109.244,46.301 C109.542,42.56 109.496,37.025 109.143,34 C108.566,29.066 108.243,28.474 106,28.251 C104.135,28.066 102.293,29.262 98.75,32.959 Z M103,68.995 C102.175,69.548 99.879,70.45 97.897,70.999 L94.294,71.998 L93.653,79.249 C93.3,83.237 92.726,88.188 92.375,90.25 C91.825,93.49 91.996,94 93.637,94 C94.681,94 97.191,92.875 99.215,91.5 C101.238,90.125 103.316,89 103.832,89 C106.079,89 107.772,84.06 108.127,76.473 C108.472,69.108 108.347,68.48 106.5,68.244 C105.4,68.104 103.825,68.441 103,68.995 Z"/>
</svg>

