<svg xmlns="http://www.w3.org/2000/svg" width="300" height="300" viewBox="0 0 300 300" version="1.1">
  <defs/>
  <path d="M109.93,129.131 C111.192,126.773 115.394,126.224 116.668,128.25 C117.101,128.938 117.815,132.2 118.256,135.5 C119.647,145.907 119.96,148.291 121.13,148.838 C121.485,149.003 121.918,149 122.483,149 C126.514,149 133.142,145.542 139.253,140.25 C143.763,136.345 145.427,136.196 147.595,139.505 C148.996,141.643 149.036,142.262 147.868,143.73 C144.941,147.411 141.334,150.327 137.5,152.112 C135.3,153.137 132.825,154.387 132,154.89 C131.175,155.393 128.7,156.186 126.5,156.653 L122.5,157.5 L122.657,167 C122.867,179.725 123.944,201.226 124.441,202.624 C124.661,203.242 126.453,204.05 128.423,204.42 C133.448,205.362 143.935,209.796 165.5,220.095 C167.7,221.146 170.084,222.004 170.798,222.003 C171.512,222.001 173.987,222.925 176.298,224.056 C178.609,225.186 184.266,227.681 188.87,229.6 C193.473,231.519 201.628,235.319 206.992,238.045 C212.356,240.77 217.38,243 218.155,243 C219.489,243 221.977,244.701 227.91,249.669 L230.5,251.837 L228.4,254.669 C227.244,256.226 225.398,257.635 224.297,257.8 C221.988,258.147 214.336,254.302 209.892,250.563 C208.217,249.153 206.206,248 205.423,248 C204.64,248 204,247.637 204,247.192 C204,246.748 202.088,245.553 199.75,244.537 C197.412,243.52 191.833,240.959 187.35,238.844 C182.868,236.73 178.738,235 178.173,235 C177.608,235 173.736,233.425 169.569,231.5 C165.401,229.575 161.766,228 161.491,228 C161.215,228 158.658,226.875 155.808,225.5 C152.958,224.125 150.078,223 149.409,223 C148.74,223 143.786,220.75 138.401,218 C127.992,212.684 125.307,212.036 124.323,214.601 C123.985,215.481 123.592,222.569 123.448,230.351 C123.305,238.133 123.122,245.85 123.041,247.5 C122.901,250.381 123.941,290.316 124.317,296.5 C124.49,299.33 124.269,299.517 120.414,299.8 C117.881,299.985 115.902,299.587 115.209,298.752 C115.13,298.657 115.056,298.569 114.987,298.478 C113.875,297.016 113.915,294.677 114.505,249.5 C114.983,212.882 114.929,211.382 113.015,208.25 C109.045,201.752 105.59,204.484 96.502,221.313 C95.072,223.96 91.01,229.165 87.475,232.88 C83.94,236.594 80.025,241.041 78.774,242.761 C74.066,249.236 67.431,256.631 63.301,260.006 C60.95,261.928 57.332,264.94 55.263,266.701 C53.193,268.461 49.859,270.646 47.852,271.556 C44.316,273.161 44.109,273.141 41.068,270.892 C36.413,267.45 35.494,260.904 39.343,258.602 C40.848,257.702 41.467,257.913 42.715,259.75 C44.87,262.921 46.86,262.549 51.854,258.045 C54.248,255.885 57.401,253.079 58.859,251.809 C64.72,246.706 87.835,217.651 90.249,212.353 C90.839,211.059 91.699,210 92.161,210 C92.622,210 92.999,209.438 92.998,208.75 C92.996,207.624 94.669,204.928 104.567,190.11 C106.18,187.695 108.037,184.792 108.693,183.657 C109.35,182.522 110.865,180.856 112.06,179.955 C114.04,178.461 114.169,177.763 113.51,172.086 C113.108,168.623 112.231,165.642 111.536,165.375 C110.848,165.112 107.458,166.607 104.002,168.698 C94.731,174.308 90.901,176.397 87,177.974 C85.075,178.753 82.375,180.178 81,181.141 C77.489,183.601 65.642,187.205 62.33,186.821 C60.171,186.57 59.357,185.774 58.62,183.19 C57.366,178.793 59.642,176.625 67,175.205 C75.797,173.507 108.063,157.296 110.775,153.212 C111.661,151.878 111.772,150.531 111.134,148.852 C109.487,144.521 108.689,131.449 109.93,129.131 Z M119.469,40.5 C120.029,38.705 124.112,38.512 125.8,40.2 C126.46,40.86 127,43.58 127,46.245 C127,52.152 130.136,56 134.948,56 C137.363,56 138.605,56.853 140.994,60.15 C144.391,64.84 145.031,71.572 142.5,76 C141.714,77.375 141.055,79.711 141.035,81.191 C141.016,82.671 140.55,84.16 140,84.5 C139.45,84.84 139,86.165 139,87.445 C139,88.724 138.328,91.06 137.506,92.636 C135.795,95.917 135.476,107.152 137.012,110.023 C138.479,112.764 143.518,113.346 154.988,112.098 C165.98,110.902 169.81,109.466 172.352,105.586 C174.188,102.783 174.536,98.449 173,97.5 C172.45,97.16 172,95.585 172,94 C172,92.415 171.6,90.871 171.11,90.568 C170.621,90.266 170.013,88.552 169.759,86.759 C169.505,84.967 168.688,81.365 167.943,78.756 C166.89,75.068 166.855,73.745 167.788,72.812 C168.72,71.88 169.656,72.254 171.993,74.494 C173.647,76.078 175,77.932 175,78.614 C175,79.297 176.575,82.876 178.5,86.569 C180.425,90.263 182,94.094 182,95.083 C182,96.072 182.45,97.16 183,97.5 C183.55,97.84 184,100.244 184,102.843 C184,107.229 183.623,107.935 178.75,112.67 C171.593,119.626 168.476,120.5 150.825,120.5 C134.526,120.5 133.004,119.995 128.25,113.01 C125.546,109.037 125.099,99.573 127.468,96.441 C128.276,95.374 128.951,93.064 128.968,91.309 C128.986,89.554 129.45,87.84 130,87.5 C130.55,87.16 131.007,85.896 131.015,84.691 C131.023,83.486 131.679,80.7 132.471,78.5 C134.109,73.955 134.449,67.395 133.09,66.556 C131.201,65.388 129,67.267 129,70.048 C129,71.607 128.55,73.16 128,73.5 C127.45,73.84 127,75.689 127,77.609 C127,79.529 126.292,82.468 125.428,84.14 C124.563,85.812 124.113,87.851 124.427,88.672 C124.742,89.492 124.325,91.126 123.5,92.304 C122.675,93.481 122,95.182 122,96.083 C122,96.984 120.875,99.379 119.5,101.405 C118.125,103.431 117,105.942 117,106.985 C117,108.029 116.55,109.16 116,109.5 C115.45,109.84 114.998,111.104 114.996,112.309 C114.992,114.608 112.501,119.227 109.14,123.168 C108.047,124.451 106.247,126.625 105.141,128 C103.226,130.38 103.044,130.416 101.357,128.757 C99.974,127.396 99.85,126.75 100.793,125.807 C101.457,125.143 102,123.395 102,121.922 C102,120.45 102.601,118.746 103.335,118.137 C104.07,117.527 105.276,115.11 106.015,112.764 C106.755,110.419 107.791,107.929 108.318,107.232 C108.844,106.534 109.688,104.059 110.192,101.732 C110.697,99.404 111.562,95.475 112.114,93 C112.667,90.525 113.519,86.025 114.008,83 C114.497,79.975 115.196,76.037 115.562,74.25 C116.148,71.387 115.972,71 114.081,71 C112.901,71 110.32,71.675 108.346,72.5 C103.05,74.713 101.25,74.384 99.436,70.876 C97.286,66.718 98.409,65.653 108.598,62.187 L116.5,59.5 L117.065,52.5 C117.376,48.65 117.939,44.712 118.315,43.75 C118.692,42.788 119.211,41.325 119.469,40.5 Z M45.667,97.667 C46.033,97.3 46.821,97.033 47.417,97.072 C49.392,97.204 61.239,106.438 64.309,110.237 C67.248,113.875 67.328,114.256 67.291,124.507 C67.271,130.299 67.627,135.269 68.083,135.551 C68.539,135.833 69.69,134.812 70.641,133.282 C73.494,128.689 76.246,126 78.091,126 C80.78,126 80.841,127.956 78.315,133.191 C77.042,135.831 76,138.858 76,139.918 C76,142.464 71.605,147.593 66.853,150.593 C62.639,153.253 60.018,153.618 58.2,151.8 C56.748,150.348 56.604,144.363 58,143.5 C58.55,143.16 59,141.874 59,140.641 C59,139.408 59.508,137.892 60.128,137.272 C60.749,136.651 61.486,132.946 61.765,129.038 C62.35,120.871 60.426,115.101 56.4,112.947 C55.08,112.24 54,111.288 54,110.831 C54,110.374 53.281,110 52.401,110 C49.863,110 45,104.126 45,101.061 C45,99.561 45.3,98.033 45.667,97.667 Z M62.2,50.2 C62.86,49.54 65.026,49 67.013,49 C72.349,49 76.482,53.577 76.256,59.238 C76.116,62.748 75.475,63.951 72.294,66.675 C67.238,71.005 66,70.895 66,66.115 C66,63.075 65.457,61.874 63.5,60.592 C61.564,59.323 61,58.102 61,55.177 C61,53.1 61.54,50.86 62.2,50.2 Z M71.5,154 C71.138,153.415 72.176,153 74,153 C75.824,153 76.862,153.415 76.5,154 C76.16,154.55 75.035,155 74,155 C72.965,155 71.84,154.55 71.5,154 Z"/>
</svg>

