<svg xmlns="http://www.w3.org/2000/svg" width="300" height="300" viewBox="0 0 300 300" version="1.1">
  <defs/>
  <path d="M171.261,76.25 C172.55,74.612 173.031,74.684 175.984,76.953 C178.295,78.728 178.474,79.495 178.541,87.904 C178.58,92.877 178.867,97.2 179.177,97.51 C179.716,98.05 184.955,96.126 186,95.004 C188.641,92.171 193.574,89.003 195.327,89.015 C199.385,89.044 200.359,90.383 199.098,94.203 C197.74,98.317 188.674,107.869 184.867,109.196 C183.378,109.715 181.787,110.896 181.33,111.82 C180.874,112.744 180.275,133.616 180,158.201 C179.621,192.075 179.197,203.205 178.25,204.151 C177.499,204.901 177,208.068 177,212.078 C177,220.232 176.191,221.079 166.914,222.643 C163.185,223.272 158.685,224.51 156.913,225.393 C152.484,227.603 150.741,227.418 147.943,224.44 L145.538,221.88 L145.649,178.862 C145.729,147.601 145.449,135.726 144.624,135.409 C143.999,135.169 139.666,136.608 134.994,138.606 C130.322,140.604 125.245,142.464 123.711,142.739 C120.345,143.342 117,140.714 117,137.467 C117,134.889 118.447,133.527 122.114,132.653 C123.551,132.311 129.514,129.795 135.364,127.064 L146,122.097 L146,108.517 C146,94.053 146.515,92.6 150.819,94.903 C152.778,95.952 154.454,101.758 155.68,111.75 C155.967,114.088 156.529,116 156.929,116 C158.056,116 167.367,109.726 168.58,108.149 C169.252,107.276 169.47,103.679 169.157,98.623 C168.384,86.126 169.048,79.062 171.261,76.25 Z M67.655,69.829 C71.156,65.96 75.268,68.556 75.613,74.851 C75.921,80.488 76.723,84.614 77.959,86.923 C78.692,88.293 78.9,92.52 78.552,99.015 C78.137,106.778 78.305,109 79.308,109 C80.018,109 81.143,107.537 81.808,105.75 C82.473,103.963 85.218,100.045 87.907,97.043 C92.155,92.303 93.008,91.761 94.399,92.916 C95.339,93.696 96,95.772 96,97.944 C96,101.264 95.231,102.356 88.516,108.572 L81.032,115.5 L81.082,140.154 C81.119,158.524 80.854,164 83.463,166.724 C84.845,168.167 87.033,168.838 90.5,170.244 C98.37,173.436 116.024,183.57 118.25,186.174 C120.516,188.825 120.575,193 118.347,193 C117.438,193 113.95,191.711 110.597,190.135 C99.19,184.776 85.934,179.869 83.714,180.185 C81.544,180.494 81.49,180.857 81,198.5 C80.725,208.4 80.16,217.023 79.745,217.663 C79.329,218.303 78.755,227.271 78.468,237.593 C77.927,257.076 77.408,259.349 73.625,258.798 C72.178,258.588 71.364,257.469 70.862,255 C70.147,251.483 71.474,206.721 72.375,203.971 C73.191,201.482 74.053,179.302 73.401,177.602 C72.731,175.857 69,175.364 69,177.02 C69,178.147 65.574,183.53 61.284,189.143 C59.753,191.147 55.024,197.447 50.776,203.143 C35.948,223.025 29.995,228.367 23.281,227.812 C18.054,227.381 18.46,225.589 24.905,220.645 C30.221,216.568 42.304,201.109 45.732,194 C46.66,192.075 48.787,188.475 50.46,186 C55.694,178.252 61.806,166.514 65.039,158 C65.978,155.525 67.924,151.475 69.361,149 C71.687,144.998 71.977,143.431 71.988,134.832 C71.995,129.514 71.727,124.452 71.393,123.582 C70.568,121.432 68.678,121.594 66.5,124 C65.505,125.1 64.239,126 63.687,126 C63.136,126 60.393,127.76 57.592,129.911 C48.791,136.67 38.867,139.778 33.939,137.319 C32.344,136.524 30.796,135.48 30.499,134.999 C29.753,133.791 42.34,125.801 50.923,122.034 C54.815,120.326 60.925,117.094 64.5,114.852 C70.295,111.219 71,110.43 71,107.579 C71,105.821 70.339,103.509 69.532,102.441 C68.724,101.374 68.049,99.289 68.032,97.809 C68.014,96.329 67.55,94.84 67,94.5 C66.43,94.148 66,89.099 66,82.77 C66,73.833 66.324,71.299 67.655,69.829 Z M161.5,124.423 C155.5,128.493 155.153,129.841 154.347,152.246 C153.923,164.04 154.085,167.089 155.158,167.473 C155.896,167.738 159.65,167.121 163.5,166.103 L170.5,164.252 L170.819,152.876 C170.994,146.619 170.838,136.887 170.472,131.25 C169.699,119.322 169.378,119.078 161.5,124.423 Z M153.991,180.25 C153.727,183.688 153.508,192.8 153.505,200.5 L153.5,214.5 L156,214.265 C162.863,213.622 167.023,212.677 167.958,211.551 C169.012,210.281 171.19,177.149 170.314,175.71 C170.049,175.275 167.228,175.214 164.046,175.574 C160.208,176.009 158.028,175.854 157.571,175.114 C155.834,172.304 154.449,174.29 153.991,180.25 Z M46.541,128.245 C45.538,129.676 45.358,130.619 46.042,130.847 C47.223,131.241 51,128.191 51,126.845 C51,125.143 48.069,126.063 46.541,128.245 Z"/>
</svg>

