<svg xmlns="http://www.w3.org/2000/svg" width="300" height="300" viewBox="0 0 300 300" version="1.1">
  <defs/>
  <path d="M93.626,89.146 C93.848,88.377 94.696,88.053 95.59,88.396 C96.456,88.728 98.204,89 99.475,89 C102.687,89 103.051,90.71 101.634,99.157 C100.074,108.456 100.648,123.928 102.58,124.669 C103.924,125.185 106.431,123.564 113.803,117.417 C115.836,115.721 118.287,114.048 119.248,113.699 C120.209,113.35 122.433,111.025 124.19,108.532 C125.947,106.039 127.77,104 128.24,104 C129.925,104 134,109.335 134,111.54 C134,113.531 130.86,117.5 126.872,120.549 C122.319,124.029 112.273,130.76 109.412,132.246 C102.607,135.781 102.339,137.241 102.807,168.266 L103,181.032 L106.75,182.627 C112.15,184.922 119.949,188.658 124,190.889 C125.925,191.949 131.1,194.476 135.5,196.504 C146.553,201.599 174.232,215.52 185.5,221.652 C186.6,222.25 189.711,223.811 192.414,225.12 C205.256,231.34 205.957,232.242 201.927,237.365 C199.47,240.489 197.395,240.656 194,238 C192.625,236.924 191.194,236.034 190.821,236.022 C190.447,236.01 187.522,234.264 184.321,232.141 C181.119,230.019 177.375,227.935 176,227.51 C174.625,227.085 172.375,225.968 171,225.028 C169.625,224.087 164.225,221.183 159,218.575 C153.775,215.967 148.825,213.253 148,212.545 C147.175,211.837 144.025,210.466 141,209.5 C137.975,208.534 134.825,207.161 134,206.449 C133.175,205.738 131.281,204.852 129.791,204.48 C128.301,204.108 126.582,203.202 125.972,202.466 C125.361,201.73 123.461,200.821 121.749,200.445 C118.673,199.769 112.393,196.663 110.55,194.906 C109.245,193.661 104.264,193.763 103.469,195.051 C103.111,195.629 102.646,211.266 102.433,229.801 C102.042,263.961 101.357,281.906 100.344,284.546 C99.779,286.018 96.176,286.423 92.481,285.43 C89.28,284.57 86.174,279.055 85.866,273.686 C85.572,268.555 86.647,267.044 90.613,267.015 C92.702,267 92.734,266.655 93.397,236.75 C93.766,220.113 94.165,202.9 94.284,198.5 C94.493,190.768 94.42,190.489 92.125,190.164 C89.503,189.793 82.65,195.725 78.451,202 C77.162,203.925 73.346,209.294 69.97,213.932 C66.594,218.569 61.4,225.994 58.428,230.432 C47.76,246.358 38.061,257 34.213,257 C29.395,257 26.745,250.724 30.061,247.165 C31.17,245.974 32.694,245 33.446,245 C34.199,245 36.769,242.822 39.157,240.16 C43.398,235.433 55,218.997 55,217.715 C55,217.361 55.959,216.042 57.131,214.785 C58.304,213.528 62.016,208.261 65.381,203.081 C79.267,181.706 79.052,182.007 87.75,171.722 L93,165.515 L93.167,157.757 C93.258,153.491 93.371,149.219 93.417,148.264 C93.611,144.207 88.884,145.993 80.215,153.25 C78.409,154.762 76.194,156 75.294,156 C74.394,156 72.947,156.624 72.079,157.386 C69.381,159.755 44.851,169.467 37.14,171.218 C32.217,172.337 30.6,171.412 29.479,166.837 C28.489,162.797 31.965,159.715 36.543,160.574 C38.992,161.034 40.766,160.728 42.591,159.533 C44.01,158.602 47.496,157.163 50.336,156.335 C53.176,155.507 56.4,154.279 57.5,153.606 C58.6,152.933 61.75,151.546 64.5,150.525 C70.085,148.45 74.085,146.016 84.883,138.122 L92.266,132.724 L91.385,123.612 C90.261,111.984 90.545,99.619 92.056,94.5 C92.705,92.3 93.412,89.891 93.626,89.146 Z M58.494,23.653 C60.494,19.439 62.527,19.053 66.454,22.143 C68.924,24.085 69.122,24.717 68.573,28.893 C67.046,40.499 67.877,41.992 75.744,41.785 C80.772,41.653 81.523,41.918 83.645,44.569 C87.46,49.337 86.99,59.452 82.261,74.35 C79.103,84.301 77.835,86.905 74.349,90.6 C72.066,93.02 69.559,95 68.777,95 C67.573,95 62.022,89.272 59.903,85.843 C59.549,85.271 58.426,84.964 57.406,85.16 C56.095,85.413 55.337,86.778 54.817,89.824 C54.413,92.193 53.163,95.618 52.041,97.434 C50.918,99.25 49.993,101.808 49.985,103.118 C49.968,105.85 48.201,111.054 45.713,115.7 C44.771,117.461 44,119.796 44,120.891 C44,121.986 43.6,123.129 43.11,123.432 C42.621,123.734 41.995,125.448 41.719,127.241 C41.442,129.033 39.873,134.343 38.231,139.04 C36.59,143.738 34.927,149.472 34.536,151.784 C34.032,154.77 33.01,156.569 31.009,157.994 C24.581,162.571 21.965,159.064 25.32,150.368 C26.565,147.141 28.171,142.475 28.889,140 C29.607,137.525 30.611,134.703 31.12,133.728 C31.628,132.754 32.322,129.929 32.662,127.451 C33.001,124.973 33.666,122.706 34.14,122.414 C34.613,122.121 35,120.81 35,119.5 C35,118.19 35.408,116.866 35.907,116.557 C36.406,116.249 38.701,110.035 41.005,102.748 C43.31,95.462 45.584,88.6 46.059,87.5 C46.534,86.4 47.65,82.8 48.539,79.5 C49.427,76.2 51.02,70.911 52.077,67.746 C53.135,64.581 54,60.86 54,59.477 C54,57.242 53.693,57.034 51.25,57.612 C49.737,57.97 47.6,59.023 46.5,59.953 C43.123,62.808 35.871,65.138 34.334,63.862 C31.592,61.586 32.882,58.344 38.409,53.621 C41.385,51.08 44.391,49 45.09,49 C45.789,49 48.531,48.019 51.183,46.821 C56.846,44.261 58.343,40.773 57.362,32.426 C56.919,28.653 57.217,26.346 58.494,23.653 Z M117.392,39.777 C119.966,37.521 121.456,37.049 126.072,37.027 C131.501,37.001 131.714,37.105 134.322,41.09 C135.862,43.442 137,46.585 137,48.488 C137,51.674 132.369,61.816 129.425,65.079 C127.423,67.297 127.653,69.767 130,71.232 C131.35,72.075 132,73.564 132,75.811 C132,78.662 130.829,80.283 123.866,87.071 C117.709,93.073 115.065,95 112.988,95 C109.085,95 108.017,93.156 107.54,85.588 C106.944,76.117 102.749,62.199 99.973,60.483 C99.438,60.153 99,59.076 99,58.091 C99,57.106 97.65,54.436 96,52.159 C92.62,47.493 92.318,45.811 94.532,43.974 C95.741,42.97 96.894,42.951 100.002,43.882 C103.387,44.897 104.088,45.614 104.997,48.989 C106.19,53.418 107.084,54.289 109.49,53.365 C110.58,52.947 110.977,52.019 110.631,50.696 C110.016,48.345 112.866,43.742 117.392,39.777 Z M67.195,53.805 C63.975,57.025 61.63,66.191 62.384,72.607 C63.177,79.361 64.561,82.231 66.814,81.797 C70.103,81.164 76.321,63.782 75.804,56.669 C75.521,52.788 75.28,52.479 72.309,52.191 C70.181,51.985 68.477,52.523 67.195,53.805 Z M119,54 C117.258,56.2 115.221,58 114.475,58 C112.392,58 111.899,59.514 112.584,63.801 C113.542,69.791 114.463,70.796 116.939,68.555 C118.073,67.529 119,65.92 119,64.98 C119,64.039 119.825,62.197 120.834,60.885 C123.529,57.381 126.049,51.888 125.425,50.879 C124.295,49.05 122.061,50.135 119,54 Z"/>
</svg>

