<svg xmlns="http://www.w3.org/2000/svg" width="300" height="300" viewBox="0 0 300 300" version="1.1">
  <defs/>
  <path d="M141.769,128.25 C149.492,119.898 151.771,118 154.076,118 C158.446,118 161.987,120.05 162.58,122.921 C162.872,124.34 163.75,127.975 164.53,131 C164.957,132.652 165.263,133.809 165.387,134.985 C165.693,137.893 164.888,140.918 162.042,151.835 C160.732,156.858 158.884,161.089 156.192,165.225 C154.858,167.274 154.007,169.576 154.3,170.34 C154.792,171.623 167.408,181 168.642,181 C168.942,181 171.792,182.981 174.976,185.401 C178.159,187.822 181.829,190.359 183.132,191.038 C184.434,191.717 191.264,196.149 198.31,200.886 C205.355,205.624 213.394,210.886 216.174,212.579 C218.955,214.273 221.652,216.414 222.168,217.336 C222.685,218.259 224.801,219.878 226.871,220.934 C228.94,221.99 231.244,223.59 231.991,224.489 C232.737,225.388 235.857,227.758 238.924,229.755 C241.991,231.752 246.075,234.584 248,236.048 C249.925,237.512 252.848,239.149 254.496,239.687 C256.943,240.485 257.619,241.383 258.179,244.582 C258.925,248.839 256.794,253.204 253.67,253.818 C251.865,254.173 241.143,246.142 241.056,244.369 C240.994,243.115 236.798,239.748 227,233.09 C223.425,230.661 217.978,226.509 214.895,223.863 C211.812,221.218 207.312,218.195 204.895,217.146 C202.478,216.097 199.437,214.3 198.137,213.154 C194.164,209.649 176.29,197.717 169.197,193.834 C165.514,191.818 159.865,188.075 156.644,185.518 C150.534,180.666 148.572,180.401 147.084,184.224 C146.597,185.476 144.692,188.484 142.849,190.908 C138.86,196.158 137.227,198.486 134.319,203.065 C130.222,209.517 127.501,213.244 125.5,215.141 C119.046,221.262 114.027,225 112.261,225 C111.152,225 109.792,225.563 109.239,226.25 C107.999,227.791 108.423,256.147 109.721,258.466 C110.311,259.52 110.093,261.851 109.102,265.082 C107.442,270.488 104.904,272.089 101.164,270.088 C99.206,269.04 99.154,268.266 99.52,245.753 C99.881,223.491 100.466,211.885 101.636,203.75 C102.103,200.504 101.911,200 100.207,200 C99.124,200 96.48,201.964 94.332,204.364 C92.184,206.764 89.093,209.418 87.463,210.262 C85.833,211.105 81.867,213.841 78.649,216.34 C75.431,218.84 71.524,221.165 69.968,221.507 C68.412,221.849 66.572,222.811 65.879,223.646 C65.186,224.48 61.942,226.589 58.669,228.332 C51.615,232.087 49.672,233.22 47.857,234.637 C47.11,235.219 44.475,236.761 42,238.064 C39.525,239.366 36.6,241.202 35.5,242.142 C34.4,243.083 31.496,244.54 29.046,245.38 C23.628,247.237 22,246.273 22,241.206 C22,237.057 24.367,234 27.578,234 C28.826,234 31.119,232.973 32.673,231.717 C37.343,227.947 43.862,224 45.42,224 C46.224,224 47.164,223.544 47.508,222.988 C47.852,222.431 51.663,220.245 55.978,218.13 C69.154,211.672 69.399,211.369 70.103,200.666 C70.435,195.625 71.239,187.225 71.889,182 C73.112,172.182 73.628,145.825 72.63,144.21 C72.319,143.706 72.456,139.797 72.936,135.521 C73.998,126.052 76.317,122.761 80.392,124.942 L82.854,126.26 L82.677,149.796 C82.549,166.811 82.819,173.438 83.652,173.716 C84.286,173.928 86.9,171.379 89.461,168.051 C93.264,163.109 94.649,162 97.02,162 C99.563,162 100.057,161.502 101.006,157.977 C102.941,150.793 99.571,149.805 94.268,156 C88.688,162.518 84.234,160.91 86.312,153.127 C87.183,149.862 88.94,147.419 93.359,143.328 L99.246,137.877 L98.561,130.922 C97.734,122.529 98.298,120.393 101.556,119.575 C105.463,118.595 108,120.525 108,124.476 C108,126.349 108.459,128.165 109.019,128.512 C109.591,128.865 110.02,132.955 109.996,137.821 C109.972,142.594 110.027,153.925 110.117,163 C110.207,172.075 110.173,183.325 110.04,188 C109.497,207.197 109.921,215.033 111.537,215.653 C112.383,215.977 114.018,215.4 115.171,214.371 C117.215,212.546 124.501,203.387 126.5,200.13 C127.05,199.233 128.899,196.475 130.608,194 C134.054,189.01 141,176.405 141,175.142 C141,173.777 129.558,163.633 125.5,161.399 C122.303,159.64 122.464,154.977 125.913,149.39 C127.574,146.7 129.688,143.15 130.612,141.5 C131.535,139.85 136.556,133.887 141.769,128.25 Z M89.195,11.265 C90.717,9.431 95.433,9.714 97.26,11.75 C98.124,12.713 99.145,15.192 99.529,17.261 C99.913,19.33 100.666,21.294 101.204,21.626 C101.741,21.958 103.827,20.673 105.84,18.771 C111.847,13.094 120.316,10.852 126.303,13.353 C128.918,14.446 130.094,15.653 130.522,17.684 C130.848,19.233 131.539,22.387 132.058,24.693 C133.218,29.855 133.228,68.868 132.071,74.858 C130.844,81.21 128.053,84.5 123.892,84.5 C120.939,84.5 120.459,84.146 120.185,81.762 C120.011,80.256 120.574,78.019 121.435,76.79 C123.21,74.255 123.533,70 121.95,70 C120.306,70 115.49,72.705 114.055,74.434 C111.968,76.948 108.104,76.403 106.975,73.435 C105.234,68.854 105.916,66.952 111.122,61.881 C115.794,57.331 116.604,56.919 120.344,57.196 L124.443,57.5 L124.802,50 C124.999,45.875 124.641,39.8 124.007,36.5 C123.373,33.2 122.668,29.544 122.44,28.377 C122.203,27.164 120.694,25.702 118.919,24.966 C116.231,23.853 115.387,23.922 112.656,25.477 C110.92,26.466 107.813,28.88 105.75,30.841 C102.348,34.075 102,34.892 102,39.644 C102,42.525 102.452,45.162 103.006,45.503 C103.559,45.845 105.967,44.522 108.359,42.562 C113.417,38.417 114.203,38.297 118.096,41.068 C121.436,43.447 121.934,47.221 119.387,50.858 C117.942,52.921 117.135,53.121 111.637,52.782 C108.262,52.574 104.845,52.2 104.045,51.952 C102.878,51.589 102.56,52.88 102.436,58.5 C102.351,62.35 102.148,71.725 101.984,79.332 C101.746,90.4 101.356,93.574 100.031,95.21 C98.843,96.677 97.758,97.058 96.187,96.559 C92.396,95.356 91.631,92.509 92.973,84.6 C95.234,71.266 93.199,30.221 89.943,23.5 C88.48,20.481 88.004,12.7 89.195,11.265 Z M155,81.938 C161.325,80.988 167.317,80.163 168.316,80.105 C174.727,79.735 176.394,87.358 170.675,90.892 C168.846,92.022 166.034,92.922 164.425,92.892 C158.676,92.783 145.413,93.985 140.5,95.061 C134.772,96.315 121.031,100.938 119.414,102.155 C118.816,102.605 116.429,103.643 114.11,104.461 C109.76,105.996 103.155,108.996 87.379,116.602 C82.363,119.021 77.97,121 77.618,121 C77.266,121 75.071,121.869 72.739,122.932 C70.408,123.994 64.45,126.511 59.5,128.525 C54.55,130.538 50.05,132.532 49.5,132.955 C48.95,133.378 47.15,134.046 45.5,134.44 C43.85,134.834 41.825,135.739 41,136.451 C40.175,137.163 37.185,138.286 34.356,138.947 C28.093,140.41 25,139.055 25,134.848 C25,131.459 30.083,127 33.946,127 C35.483,127 39.386,126.151 42.62,125.113 C48.117,123.348 50.178,122.527 60.5,117.985 C62.7,117.017 68.238,114.757 72.807,112.963 C77.375,111.169 83.637,108.182 86.72,106.325 C93.016,102.534 99.332,99.584 106,97.319 C108.475,96.478 113.65,94.308 117.5,92.495 C127.05,87.999 141.222,84.01 155,81.938 Z M96.982,174.75 C96.973,175.162 94.738,177.893 92.017,180.819 C87.76,185.394 86.624,186.093 83.886,185.819 C81.017,185.531 80.663,185.796 80.295,188.5 C78.531,201.457 80.311,205.44 85.802,200.82 C87.46,199.425 90.989,197.737 93.645,197.068 C100.872,195.248 101,195.019 101,183.878 C101,174.667 100.865,174 99,174 C97.9,174 96.992,174.338 96.982,174.75 Z M145.349,139.838 C141.582,144.204 137.522,149.042 136.327,150.589 L134.153,153.401 L136.827,156.483 C138.297,158.178 140.808,160.656 142.407,161.989 L145.314,164.412 L146.859,162.086 C148.883,159.037 153.057,149.178 153.669,146 C153.934,144.625 154.636,142.501 155.228,141.28 C156.444,138.775 155.209,132.903 153.334,132.278 C152.71,132.07 149.116,135.472 145.349,139.838 Z"/>
</svg>

