<svg xmlns="http://www.w3.org/2000/svg" width="300" height="300" viewBox="0 0 300 300" version="1.1">
  <defs/>
  <path d="M141.434,34.92 C142.953,32.624 144.823,31 145.946,31 C147.953,31 152,35.808 152,38.192 C152,41.742 138.789,52.009 127.25,57.425 C124.362,58.781 122,60.304 122,60.81 C122,61.316 122.9,62.874 124,64.273 C125.825,66.594 125.996,68.285 125.949,83.658 C125.897,100.615 125.355,107.411 122.989,120.767 C122.281,124.764 122.015,128.348 122.399,128.732 C122.782,129.115 124.909,127.308 127.126,124.715 C129.342,122.122 131.776,120 132.534,120 C134.696,120 147.274,112.306 152.625,107.711 C153.794,106.707 156.207,105.702 157.987,105.476 C161.516,105.03 166.327,101.726 172.077,95.801 C174.106,93.71 176.424,92 177.228,92 C178.032,92 179.505,91.1 180.5,90 C182.916,87.33 185.162,87.479 187.997,90.496 C190.098,92.734 190.204,93.251 189.012,95.477 C187.664,97.996 179.169,104.826 167.217,113 C163.598,115.475 160.338,118.175 159.974,119 C159.609,119.825 158.877,121.4 158.347,122.5 C157.419,124.425 157.445,128.645 158.467,141.5 C159.852,158.937 160.177,164.914 159.963,169 C159.672,174.541 159.708,175.486 160.401,180.5 C161.089,185.471 161.121,211.235 160.494,255.5 C160.229,274.2 160.01,291.863 160.006,294.75 L160,300 L150.926,300 L151.213,239.25 C151.371,205.837 151.152,173.1 150.727,166.5 C149.242,143.462 147.698,126.494 147.017,125.715 C146.223,124.808 140.471,127.362 130.5,133.049 C126.65,135.246 122.727,137.306 121.783,137.629 C119.853,138.289 119.452,139.373 118.5,146.5 C117.778,151.908 114.761,162.509 112.443,167.784 C111.649,169.59 110.985,172.065 110.967,173.284 C110.918,176.517 107.482,180.21 104.882,179.824 C101.728,179.355 100.199,176.513 101.757,174.017 C102.441,172.923 103,171.198 103,170.184 C103,169.17 104.083,165.227 105.408,161.42 C106.732,157.614 108.1,152.025 108.447,149 C108.794,145.975 109.932,139 110.976,133.5 C115.313,110.649 115.501,108.609 115.344,86 C115.188,63.677 115.17,63.502 113.058,63.745 C111.886,63.879 109.959,64.892 108.775,65.995 C106.014,68.568 104.189,68.526 101.314,65.826 C96.777,61.563 98.044,59.475 108.25,54.399 C113.338,51.868 119.558,49.175 122.073,48.413 C128.458,46.479 138.345,39.589 141.434,34.92 Z M50.519,50.612 C53.33,46.321 56.684,47.097 59.036,52.583 C60.116,55.104 61,58.647 61,60.458 C61,69.31 63.39,72.386 66.537,67.584 C68.757,64.196 70.723,63.723 73.023,66.023 C76.296,69.296 75.545,72.813 70.592,77.409 C66.691,81.028 66.112,82.134 65.566,87 C64.276,98.488 64.216,101.647 65.18,107.487 C65.726,110.794 66.246,117.962 66.336,123.416 L66.5,133.333 L69.5,134.311 C71.15,134.85 74.212,136.82 76.304,138.691 C78.396,140.561 81.321,142.618 82.804,143.26 C84.287,143.903 87.3,145.563 89.5,146.95 C91.7,148.336 95.3,149.927 97.5,150.485 C101.331,151.457 101.5,151.669 101.5,155.5 L101.5,159.5 L97,159.343 C93.084,159.207 86.788,156.668 79,152.086 C75.103,149.794 68.945,147.807 67.478,148.37 C66.011,148.933 65.905,151.51 66.411,174.248 C66.72,188.136 67.246,205.276 67.581,212.335 C68.168,224.718 68.109,225.255 65.92,227.585 C61.838,231.93 59.375,230.717 57.001,223.191 C55.944,219.841 55.895,218.172 56.782,215.691 C57.528,213.604 57.917,203.447 57.906,186.336 C57.891,163.766 57.678,160.091 56.357,159.583 C54.717,158.954 51.09,162.536 51.033,164.841 C51.015,165.579 49.425,168.022 47.5,170.271 C45.575,172.52 44,174.852 44,175.453 C44,177.319 28.704,191.515 24.823,193.252 C20.561,195.16 14.187,194.62 12.25,192.187 C9.23,188.395 11.994,182.856 15.871,184.931 C18.909,186.557 21.748,184.982 29.503,177.369 C36.398,170.6 46,156.833 46,153.716 C46,152.837 46.4,151.871 46.889,151.568 C47.378,151.266 48.067,149.867 48.421,148.46 C48.774,147.052 51.027,143.091 53.428,139.656 L57.793,133.411 L56.892,124.525 C56.397,119.637 55.817,110.882 55.603,105.069 C55.193,93.938 55.157,92.276 54.556,92.037 C54.426,91.985 54.269,92 54.077,92 C53.569,92 51.83,93.114 50.212,94.475 C48.594,95.837 44.584,98.424 41.301,100.225 C38.018,102.026 33.144,104.963 30.47,106.75 C22.852,111.842 18,110.871 18,104.255 C18,100.545 21.676,96 24.675,96 C27.526,96 44.536,87.089 49.033,83.239 C53.065,79.788 53.155,79.574 52.67,74.6 C52.396,71.795 51.658,67.25 51.03,64.5 C48.803,54.744 48.751,53.31 50.519,50.612 Z"/>
</svg>

