<svg xmlns="http://www.w3.org/2000/svg" width="300" height="300" viewBox="0 0 300 300" version="1.1">
  <defs/>
  <path d="M156.179,55.032 C158.005,53.919 160.28,53.006 161.234,53.004 C167.353,52.991 174,68.625 174,83.031 C174,87.486 174.426,91.928 174.947,92.901 C175.468,93.874 176.078,97.557 176.303,101.085 C176.528,104.613 176.982,108.175 177.313,109 C177.644,109.825 177.881,111.625 177.841,113 C177.802,114.375 178.016,118.65 178.319,122.5 C180.015,144.095 181.043,171.986 181.452,207.5 C181.891,245.584 182.68,261.826 184.994,280.455 C186.158,289.819 185.876,291.196 182.311,293.532 C178.304,296.157 174.336,294.689 165.795,287.421 C156.956,279.9 152.001,273.445 150.119,267 C149.396,264.525 148.399,261.719 147.903,260.764 C145.906,256.922 147.353,250 150.153,250 C150.567,250 151.653,251.687 152.565,253.75 C153.478,255.813 155.299,259.679 156.612,262.342 C157.926,265.006 159,267.605 159,268.119 C159,269.328 165.062,276 166.161,276 C166.622,276 167.928,276.928 169.061,278.061 C170.195,279.195 171.883,279.974 172.811,279.793 C174.776,279.409 174.97,274.242 173.666,257 C173.23,251.225 172.674,233.675 172.433,218 C172.191,202.325 171.843,179.85 171.661,168.055 C171.409,151.754 171.022,146.507 170.049,146.183 C168.351,145.617 167.034,147.841 167.015,151.308 C167.001,153.847 164.489,159.271 160.523,165.325 C158.51,168.397 152.421,170.595 150.452,168.96 C147.543,166.546 148.825,162.998 155.069,156.183 C158.407,152.541 161.38,148.35 161.676,146.87 C161.972,145.391 164.012,142.309 166.21,140.021 C169.693,136.397 170.123,135.453 169.556,132.681 C169.198,130.931 168.652,128.037 168.343,126.25 C168.034,124.462 167.48,123 167.113,123 C166.205,123 163.516,126.214 162.747,128.218 C160.71,133.525 156.593,138.246 152.452,140.021 C150.003,141.07 147.964,142.507 147.92,143.214 C147.877,143.922 147.442,148.1 146.954,152.5 C146.466,156.9 145.603,164.775 145.037,170 C144.471,175.225 143.573,180.4 143.041,181.5 C141.798,184.069 137.893,198.436 135.294,210 C134.984,211.375 134.247,213.11 133.655,213.857 C133.063,214.603 132.1,216.178 131.516,217.357 C130.033,220.351 124.975,220.735 122.534,218.038 C120.716,216.028 120.717,215.925 122.586,213.74 C125.505,210.324 127,207.268 127,204.714 C127,203.441 127.518,201.882 128.151,201.249 C128.784,200.616 129.646,198.163 130.067,195.799 C130.488,193.434 131.577,188.8 132.488,185.5 C133.398,182.2 134.466,177.473 134.861,174.996 C135.256,172.518 135.857,170.04 136.198,169.488 C137.104,168.022 138.897,145.016 139.595,125.901 C140.064,113.078 139.823,106.709 138.537,97.901 C137.621,91.631 136.451,86.073 135.936,85.55 C135.421,85.028 135,83.657 135,82.504 C135,81.351 133.435,77.503 131.523,73.954 C127.529,66.541 127.076,62.146 130.03,59.473 C131.637,58.019 132.628,57.834 134.78,58.587 C136.976,59.356 137.596,60.304 138,63.51 C138.752,69.48 141.135,69.257 147.514,62.618 C150.453,59.56 154.352,56.146 156.179,55.032 Z M61.491,61.014 C63.506,57.754 71.24,63.863 72.461,69.681 C73.68,75.489 76.018,75.905 79.209,70.882 C81.399,67.436 89.078,63 92.855,63 C96.619,63 101.523,68.562 102.43,73.861 C102.773,75.862 103.502,79.975 104.05,83 C104.598,86.025 105.676,100.65 106.446,115.5 C107.217,130.35 108.367,147.322 109.003,153.217 C109.639,159.111 109.85,164.434 109.471,165.047 C109.092,165.659 108.899,169.387 109.04,173.33 C109.182,177.274 109.249,182.075 109.19,184 C109.131,185.925 109.544,189.234 110.108,191.354 C110.672,193.474 111.341,200.053 111.596,205.975 L112.058,216.742 L108.432,219.925 C104.45,223.422 102.094,223.572 100.525,220.429 C99.961,219.299 97.314,216.22 94.641,213.586 C91.754,210.74 88.188,205.611 85.853,200.946 C82.431,194.11 82.089,192.831 83.202,191.048 C85.092,188.022 87.112,188.626 90.781,193.311 C92.586,195.615 95.214,198.963 96.62,200.75 C98.027,202.537 99.865,204 100.705,204 C102.001,204 102.116,202.973 101.464,197.25 C101.041,193.537 100.644,182.753 100.581,173.284 C100.471,156.532 99.798,152.771 97.201,154.376 C96.666,154.707 95.193,157.908 93.929,161.489 C92.665,165.07 91.263,168 90.815,168 C90.367,168 90,168.65 90,169.443 C90,170.237 88.649,171.685 86.999,172.66 C85.348,173.635 83.733,175.265 83.41,176.282 C82.64,178.711 72.429,188.727 68.823,190.591 C66.467,191.81 66,192.688 66,195.903 C66,198.107 65.358,200.288 64.5,201 C63.539,201.797 63,204.011 63,207.158 C63,209.86 62.374,213.067 61.608,214.285 C60.843,215.503 59.916,218.632 59.549,221.238 C58.868,226.066 56.676,229.397 54.634,228.705 C53.009,228.156 53.323,219.306 55.403,207 C56.379,201.225 57.604,193.8 58.124,190.5 C59.811,179.809 60.816,174.614 62.379,168.5 C65.118,157.79 66.892,145.553 68.565,125.837 C70.744,100.158 69.895,88.674 64.991,77.5 C62.806,72.519 60.651,62.373 61.491,61.014 Z M156.757,67.645 C156.066,68.512 153.137,71.8 150.25,74.951 C145.148,80.519 143.943,83.543 146.003,85.603 C147.686,87.286 149.505,102.852 149.409,114.75 C149.299,128.525 150.505,129.285 156.5,119.217 C159.4,114.348 161.532,111.996 164.25,110.668 C168.157,108.758 169.081,106.005 167.077,102.236 C166.569,101.281 165.642,95.775 165.016,90 C162.978,71.189 160.114,63.437 156.757,67.645 Z M85.112,133.504 C76.658,142.309 75,145.036 75,150.131 C75,151.781 74.489,154.087 73.863,155.255 C73.238,156.423 72.365,160.331 71.923,163.939 C71.481,167.548 70.805,171.552 70.42,172.838 C69.812,174.869 70.026,175.131 72.052,174.838 C74.78,174.442 87.858,159.644 90.963,153.44 C92.081,151.206 94.342,148.088 95.989,146.51 C98.982,143.644 98.984,143.634 98.341,135.071 C97.372,122.157 96.145,122.012 85.112,133.504 Z M83.548,82.75 C78.063,90.241 77.898,90.65 78.61,95 C79.559,100.799 79.636,114.564 78.743,118.75 C77.888,122.759 79.827,123.131 83.967,119.75 C85.483,118.513 88.81,116.274 91.361,114.775 L96,112.049 L96,104.775 C96,94.302 92.132,75 90.034,75 C89.588,75 86.67,78.487 83.548,82.75 Z"/>
</svg>

