<svg xmlns="http://www.w3.org/2000/svg" width="300" height="300" viewBox="0 0 300 300" version="1.1">
  <defs/>
  <path d="M69.161,37.547 C70.375,34.881 72.84,34.309 75.947,35.972 C77.221,36.653 77.976,38.667 78.478,42.722 C78.871,45.9 79.578,48.97 80.048,49.545 C80.519,50.119 81.038,53.944 81.202,58.045 C81.476,64.902 81.68,65.526 83.743,65.819 C85.427,66.058 86.516,65.241 88.107,62.543 C91.984,55.972 96,56.011 96,62.619 C96,66.891 93.521,71.005 88.979,74.27 C85.484,76.782 85.226,77.341 84.618,83.72 C84.263,87.449 84.419,97.25 84.966,105.5 C85.512,113.75 85.968,124.275 85.979,128.89 C86.001,137.808 87.027,139.87 91.5,139.99 C92.6,140.02 94.625,140.924 96,142 C97.375,143.076 98.991,143.966 99.59,143.978 C100.19,143.99 103.34,145.303 106.59,146.896 C109.841,148.489 114.601,150.086 117.168,150.445 C123.194,151.288 124.99,153.245 122.388,156.134 C118.976,159.921 116.311,160.261 108.593,157.892 C104.692,156.695 99.474,154.665 96.997,153.382 C94.521,152.099 91.015,150.753 89.207,150.391 L85.919,149.734 L86.128,183.618 C86.277,207.909 86.006,218.121 85.168,219.686 C84.526,220.886 84,222.841 84,224.03 C84,226.957 80.275,232 78.112,232 C77.149,232 75.38,230.872 74.18,229.492 C71.916,226.889 71.231,223 73.036,223 C73.605,223 75.003,220.862 76.143,218.25 C78.131,213.691 78.185,212.453 77.494,187.5 C77.097,173.2 76.655,160.262 76.512,158.75 C76.368,157.238 76.194,153.75 76.125,151 C76.047,147.882 75.554,146 74.814,146 C73.304,146 69.003,150.004 68.989,151.424 C68.984,152.016 66.959,155.191 64.489,158.48 C62.02,161.77 60,164.992 60,165.641 C60,166.291 58.763,167.89 57.25,169.196 C55.738,170.502 53.013,173.686 51.196,176.273 C45.117,184.929 37.853,191.625 33.706,192.399 C28.474,193.375 26.254,192.435 25.481,188.914 C24.672,185.228 26.312,183 29.834,183 C34.245,183 50.499,164.596 57.968,151.145 C58.776,149.69 60.914,146.144 62.718,143.265 C64.523,140.386 66,137.775 66,137.462 C66,137.15 67.125,135.238 68.5,133.215 C69.875,131.191 71,128.775 71,127.845 C71,126.914 72.125,124.816 73.5,123.182 C75.323,121.016 76.003,119.032 76.011,115.856 C76.032,108.146 73.604,88 72.655,88 C71.509,88 65.177,91.751 62.5,94.015 C60.266,95.905 52.713,98.449 46.239,99.493 C42.124,100.156 41.932,100.067 40.597,96.892 C38.944,92.962 39.489,91 42.232,91 C44.896,91 55.665,86.265 59.683,83.328 C61.434,82.047 63.353,81 63.947,81 C65.469,81 71.864,76.734 72.405,75.358 C73.2,73.337 70.873,52.627 69.413,48.73 C67.696,44.149 67.624,40.92 69.161,37.547 Z M156.518,63.25 C157.147,61.375 161.46,61.746 163.354,63.838 C164.472,65.074 164.944,67.123 164.793,70.088 C164.669,72.515 164.665,77.987 164.784,82.25 C164.981,89.326 165.178,90 167.05,90 C170.591,90 174.392,87.306 177.5,82.593 C179.15,80.091 180.993,78.034 181.595,78.022 C183.354,77.987 185.722,81.24 186.457,84.701 C187.007,87.286 186.714,88.248 184.935,89.701 C174.236,98.443 167.972,104.535 167.803,106.364 C167.694,107.539 167.527,116.6 167.431,126.5 C167.335,136.4 166.772,146.975 166.179,150 C165.586,153.025 164.884,157.3 164.618,159.5 C164.353,161.7 163.646,166.618 163.047,170.429 C162.448,174.24 162.305,177.641 162.729,177.987 C163.536,178.647 187.299,177.89 221.959,176.1 C245.428,174.889 247,175.228 247,181.5 C247,185.839 243.45,188.602 239.248,187.534 C238.948,187.458 238.673,187.387 238.397,187.322 C235.027,186.535 231.442,186.667 178.5,188.49 C171.9,188.717 163.8,189.553 160.5,190.346 C157.2,191.139 150,192.814 144.5,194.067 C138.196,195.503 131.866,197.76 127.372,200.173 C117.782,205.322 115.368,205.165 113.563,199.275 C113.065,197.651 113.506,196.482 115.19,194.952 C120.121,190.474 128.193,186.094 132.762,185.417 C135.368,185.031 139.244,184.105 141.376,183.358 C143.507,182.611 146.518,182 148.067,182 C149.615,182 151.243,181.438 151.684,180.75 C153.083,178.572 154.91,170.649 154.971,166.5 C155.003,164.3 155.662,159.8 156.436,156.5 C157.68,151.189 158.388,133.791 158.094,115.75 C158.018,111.111 157.681,110 156.35,110 C154.344,110 144.41,114.688 141.115,117.19 C138.37,119.273 134.938,119.538 133.2,117.8 C131.835,116.435 131.631,112.13 132.841,110.223 C134.005,108.389 144.051,102.046 146.97,101.302 C150.571,100.385 156,96.987 155.999,95.651 C155.999,95.018 155.537,89.64 154.974,83.7 C154.023,73.666 154.313,69.825 156.518,63.25 Z"/>
</svg>

