<svg xmlns="http://www.w3.org/2000/svg" width="300" height="300" viewBox="0 0 300 300" version="1.1">
  <defs/>
  <path d="M68.463,5.225 L76.425,0 L95.5,0 L95.426,6.519 C95.328,15.167 95.957,19 97.476,19 C98.163,19 100.424,17.65 102.5,16 C106.677,12.681 109.689,12.271 113.901,14.449 C117.319,16.216 119.469,19.358 120.438,24 C121.139,27.36 121.232,29.308 121.056,37 C120.892,44.197 122.237,54.501 123.595,56.439 C124.368,57.542 125,59.491 125,60.77 C125,63.819 120.411,68 117.065,68 C114.422,68 108.292,70.683 105.342,73.131 C104.481,73.846 102.143,74.447 100.147,74.466 L96.519,74.5 L96.509,84 C96.503,90.249 96.876,93.5 97.6,93.5 C98.743,93.5 107.851,86.175 111.587,82.25 C112.765,81.013 114.62,80 115.71,80 C116.799,80 118.497,79.109 119.482,78.02 C120.468,76.93 122.813,75.751 124.693,75.398 C127.432,74.884 128.598,75.213 130.556,77.053 C134.263,80.535 133.756,83.574 129.068,85.965 C126.905,87.069 124.854,88.428 124.509,88.986 C124.164,89.544 123.063,90 122.061,90 C120.405,90 113.455,94.751 105.363,101.416 C103.538,102.919 100.975,104 99.235,104 C95.214,104 94.361,105.357 93.566,113.024 C92.488,123.412 94.099,125.243 99.763,120.07 C104.286,115.938 114.032,108.55 117,107.004 C118.375,106.287 119.725,105.386 120,105.001 C121.489,102.917 137.458,94.841 142.791,93.475 C152.744,90.925 159.002,91.065 163.188,93.93 C169.305,98.116 170.413,101.439 170.148,114.81 C170.021,121.239 169.528,128.075 169.053,130 C168.578,131.925 167.89,136.399 167.523,139.943 C167.157,143.487 166.178,148.212 165.348,150.443 C164.518,152.674 162.768,158.014 161.46,162.309 C158.577,171.772 155.451,178.228 152.33,181.16 C151.049,182.364 150,184.338 150,185.547 C150,186.875 148.198,189.406 145.448,191.941 C141.438,195.638 140.518,196.053 137.708,195.436 C133.909,194.601 128.722,190.822 125.86,186.804 C121.731,181.005 119.537,167.499 122.537,166.347 C124.897,165.442 127.454,168.428 129.292,174.236 C131.032,179.734 135.056,185 137.517,185 C138.307,185 139.741,183.763 140.704,182.25 C141.666,180.738 142.722,179.275 143.05,179 C144.1,178.12 153,159.08 153,157.714 C153,156.991 153.424,155.973 153.943,155.45 C154.461,154.928 155.341,152.7 155.898,150.5 C156.455,148.3 157.593,143.8 158.428,140.5 C159.262,137.2 160.453,129.1 161.073,122.5 C161.988,112.765 161.946,109.745 160.85,106.5 C159.55,102.648 159.321,102.489 154.684,102.193 C150.179,101.905 145.261,103.162 137.349,106.622 C135.616,107.38 133.792,108 133.296,108 C132.379,108 126.106,112.319 120.3,116.949 C118.539,118.352 115.896,120.4 114.426,121.5 C112.956,122.6 110.121,124.906 108.127,126.625 C104.155,130.048 95.073,136 93.822,136 C93.389,136 91.066,134.087 88.66,131.75 C83.427,126.667 82.449,122.536 84.56,114.432 C85.352,111.391 86,106.251 86,103.01 C86,99.77 86.384,96.881 86.853,96.591 C87.925,95.928 88.451,78.06 88.253,49 C88.139,32.178 87.647,24.039 86.304,16.75 C85.316,11.387 84.203,7 83.831,7 C83.458,7 81.851,8.096 80.26,9.435 C78.668,10.774 76.257,12.148 74.903,12.488 C73.549,12.828 70.796,14.657 68.787,16.553 C66.778,18.449 64.345,20 63.381,20 C61.674,20 57,16.322 57,14.979 C57,13.503 60.883,10.199 68.463,5.225 Z M117,136.646 C121.654,134.611 126.377,134.939 126.83,137.329 C127.576,141.264 126.06,143.889 122.47,144.881 C120.537,145.414 116.828,147.62 114.228,149.783 C111.627,151.945 107.867,154.246 105.871,154.895 C101.228,156.405 98.684,159.237 98.827,162.737 C98.889,164.256 98.988,168.982 99.047,173.237 C99.149,180.593 99.298,181.076 102.077,183.055 C105.567,185.54 105.901,189.039 103,192.727 C100.744,195.595 100.275,202.428 102.25,203.666 C104.42,205.026 125.343,213.939 129,215.061 C130.925,215.652 134.75,217.181 137.5,218.458 C140.25,219.736 146.1,222.453 150.5,224.497 C154.9,226.54 159.4,228.58 160.5,229.029 C161.6,229.478 167.225,232.076 173,234.804 C178.775,237.531 184.847,240.077 186.494,240.461 C188.141,240.846 190,241.585 190.625,242.104 C191.25,242.623 196.203,245.317 201.631,248.09 C207.059,250.864 212.598,254.211 213.939,255.528 C216.138,257.688 216.248,258.169 215.049,260.409 C214.317,261.776 213.053,263.149 212.239,263.462 C210.527,264.119 201.53,259.971 195,255.513 C190.428,252.392 177.194,246 175.305,246 C174.736,246 173.197,245.156 171.885,244.124 C170.573,243.093 167.407,241.538 164.849,240.67 C162.291,239.801 158.691,238.172 156.849,237.049 C155.007,235.926 152.893,235.006 152.152,235.004 C151.41,235.002 147.135,233.268 142.652,231.151 C138.168,229.034 133.15,226.818 131.5,226.227 C121.663,222.702 113.857,219.525 109.26,217.177 C100.939,212.925 100.534,213.581 100.34,231.608 C100.251,239.799 99.68,251.675 99.069,258 C98.459,264.325 97.516,274 96.974,279.5 C96.432,285 95.991,291.883 95.994,294.796 L96,300.091 L89.326,299.796 L82.653,299.5 L80.403,295.238 C76.923,288.644 76.566,285.703 78.982,283.516 C80.995,281.694 81.107,281.703 84.099,283.915 C85.781,285.159 87.263,286.024 87.393,285.838 C90.711,281.077 93.203,216.803 90.186,213.786 C88.46,212.06 85.554,214.578 72.365,229.228 C61.678,241.098 49.24,253.969 44.077,258.5 C43.45,259.05 40.732,261.818 38.036,264.651 C34.175,268.709 32.235,269.954 28.89,270.519 C25.415,271.106 24.406,270.908 23.323,269.427 C22.595,268.432 22,267.075 22,266.412 C22,264.591 28.798,259 31.012,259 C32.08,259 33.731,257.762 34.681,256.25 C35.631,254.738 41.914,247.875 48.644,241 C55.373,234.125 62.594,226.309 64.689,223.631 C66.785,220.952 70.56,216.227 73.078,213.131 C75.596,210.034 80.386,203.447 83.721,198.494 C90.25,188.799 90.521,187.759 90.17,173.719 C90.049,168.895 89.589,166.78 88.576,166.391 C87.793,166.09 82.888,168.355 77.676,171.422 C72.463,174.49 67.662,177 67.007,177 C66.352,177 64.671,177.9 63.273,179 C61.874,180.1 60.1,181 59.33,181 C58.56,181 56.876,181.691 55.588,182.535 C54.299,183.379 51.763,184.494 49.951,185.014 C45.883,186.181 44.288,185.052 43.413,180.389 C42.658,176.364 44.195,174 47.565,174 C48.842,174 51.374,173.131 53.193,172.069 C55.012,171.006 59.425,169.034 63,167.686 C66.575,166.337 72.425,163.381 76,161.115 C79.575,158.849 83.563,156.539 84.862,155.98 C86.712,155.184 87.075,154.481 86.538,152.732 C84.799,147.076 83.868,141.786 84.378,140.456 C84.721,139.563 86.297,139 88.454,139 C91.45,139 92.364,139.593 94.619,143 C96.075,145.2 97.824,147 98.507,147 C100.102,147 108.895,142.216 111.5,139.93 C112.6,138.965 115.075,137.487 117,136.646 Z M107.75,45.62 C106.237,46.414 105,47.702 105,48.481 C105,49.26 103.425,51.1 101.5,52.568 C98.432,54.908 98,55.782 98,59.65 C98,64.969 100.015,66.274 103.365,63.127 C104.61,61.957 106.122,61 106.725,61 C108.013,61 111.55,53.848 112.457,49.409 C113.318,45.2 111.436,43.686 107.75,45.62 Z M103.466,26.741 C100.417,28.978 98,33.574 98,37.135 C98,42.27 99.42,42.068 105.333,36.091 C110.83,30.534 111.478,26.705 107,26.241 C105.625,26.098 104.034,26.323 103.466,26.741 Z"/>
</svg>

