<svg xmlns="http://www.w3.org/2000/svg" width="300" height="300" viewBox="0 0 300 300" version="1.1">
  <defs/>
  <path d="M150.644,95.962 C156.549,93.212 160.596,94.299 166.145,100.126 C170.817,105.032 172.061,108.463 172.055,116.429 C172.053,118.04 172.443,119.84 172.921,120.429 C173.399,121.018 174.083,125.325 174.441,130 C175.706,146.506 176.737,160.684 177.858,177 C179.575,201.969 182.612,229.377 185.726,248 C186.6,253.225 187.502,260.703 187.732,264.619 C188.129,271.396 188.019,271.84 185.44,273.869 C182.025,276.555 180.37,276.541 176,273.787 C174.075,272.574 170.869,270.823 168.876,269.896 C166.883,268.969 164.512,267.151 163.607,265.855 C162.703,264.56 160.157,261.025 157.951,258 C153.631,252.077 153.18,248.688 156.644,248.194 C158.217,247.97 160.882,250.051 166.649,256.007 C172.707,262.263 174.927,263.965 176.329,263.427 C177.718,262.894 177.991,262.11 177.482,260.114 C177.116,258.677 176.436,252.55 175.972,246.5 C175.508,240.45 174.414,230.1 173.542,223.5 C172.111,212.677 169.041,183.364 169.012,180.25 C168.986,177.468 166.05,179.264 164.108,183.25 C162.969,185.588 160.09,189.525 157.71,192 C155.329,194.475 152.613,198.16 151.673,200.188 C150.734,202.217 149.185,204.128 148.232,204.435 C147.28,204.743 143.688,207.62 140.25,210.829 C134.816,215.902 134,217.135 134,220.273 C134,222.258 133.576,224.144 133.058,224.464 C132.54,224.785 131.8,227.148 131.415,229.716 C131.03,232.285 129.859,236.662 128.813,239.443 C127.767,242.224 126.654,245.287 126.339,246.25 C125.698,248.21 122.854,248.527 119.934,246.965 C117.951,245.903 117.38,243.141 118.795,241.45 C121.617,238.075 126.332,213.34 127.552,195.5 C127.928,190 128.594,185.05 129.031,184.5 C130.337,182.857 131.801,156.972 130.954,150.5 C130.522,147.2 130.102,141.575 130.02,138 C129.827,129.547 128.059,121.926 124.587,114.584 L121.789,108.668 L124.145,106.856 C127.023,104.642 128.062,104.58 130.559,106.468 C133.751,108.882 135.636,108.255 141.347,102.879 C144.34,100.062 148.523,96.95 150.644,95.962 Z M61.681,65.8 C63.563,63.72 67.287,63.432 68.785,65.25 C69.378,65.971 69.722,70.886 69.596,76.854 C69.341,88.948 70.217,90.123 75.203,84.378 C77.016,82.288 79.287,79.773 80.25,78.789 C82.248,76.747 87.018,76.418 88.8,78.2 C91.376,80.776 89.871,83.465 81.37,91.484 C73.46,98.944 72.672,100.035 71.93,104.562 C70.182,115.209 71.607,148.007 73.917,150.317 C74.513,150.913 75,152.671 75,154.225 C75,156.272 75.649,157.296 77.357,157.946 C78.653,158.438 82.14,160.34 85.107,162.171 C90.831,165.704 95.3,167.999 101,170.33 C107.153,172.847 113.161,177.866 112.813,180.2 C112.36,183.231 109.457,184.817 107.25,183.238 C104.853,181.522 102.291,180.438 97,178.9 C89.997,176.864 83.244,173.521 81.285,171.119 C80.29,169.9 78.173,168.836 76.5,168.716 L73.5,168.5 L73.933,174 C74.618,182.714 74.563,222.921 73.842,240.946 C73.275,255.097 72.934,257.575 71.401,258.696 C69.033,260.428 68.349,260.349 66.083,258.083 C64.483,256.483 64.239,255.116 64.608,249.833 C65.69,234.343 65.965,176.097 64.959,175.475 C63.308,174.454 61.105,176.897 60.011,180.96 C59.459,183.011 56.513,188.825 53.464,193.882 C50.416,198.939 47.512,204.154 47.011,205.47 C45.807,208.637 37.526,220.623 33.608,224.869 C28.027,230.918 19.166,233.046 16.932,228.874 C15.323,225.867 17.211,222 20.287,222 C21.569,222 23.309,221.437 24.154,220.75 C26.67,218.703 34.296,208.06 39.381,199.5 C45.253,189.615 45.48,189.198 47.006,185.5 C47.687,183.85 48.864,181.306 49.622,179.846 C50.38,178.386 51,176.467 51,175.582 C51,174.697 51.391,173.191 51.87,172.236 C52.348,171.281 53.694,168.475 54.861,166 C56.027,163.525 58.374,159.025 60.077,156 C63.112,150.607 63.161,150.306 62.605,140.5 C62.293,135 62.011,129.825 61.978,129 C61.621,119.973 60.657,110.004 60.144,110.021 C59.79,110.033 56.575,112.778 53,116.121 C49.425,119.465 44.626,123.3 42.335,124.645 C40.044,125.99 37.62,127.754 36.947,128.564 C36.275,129.374 34.099,130.749 32.112,131.62 C30.126,132.491 27.547,133.652 26.381,134.201 C20.962,136.75 17.655,131.765 21.426,126.734 C26.838,119.513 28.299,118 29.857,118 C30.78,118 33.191,116.875 35.215,115.5 C37.238,114.125 39.162,113 39.49,113 C39.817,113 42.593,111.087 45.657,108.75 C48.721,106.412 53.089,103.346 55.364,101.935 L59.5,99.371 L59.776,83.485 C60.003,70.48 60.348,67.273 61.681,65.8 Z M152.458,108.047 C151.439,109.172 149.007,110.82 147.053,111.709 C141.194,114.373 138,117.917 138,121.753 C138,123.611 138.541,126.114 139.203,127.316 C140.682,129.999 140.658,177.485 139.177,179.318 C138.437,180.234 136.785,192.179 136.537,198.417 C136.377,202.429 141.101,197.803 160.797,174.658 L168.093,166.084 L167.797,159.292 L167.5,152.5 L163.862,152.466 C161.861,152.447 159.596,151.91 158.828,151.272 C157.853,150.463 156.235,150.391 153.466,151.033 C147.376,152.445 146.296,152.225 144.085,149.12 C142.171,146.431 142.137,146.033 143.58,143.139 C145.65,138.991 146.134,138.78 154.129,138.547 C158.863,138.409 161.389,138.764 162.143,139.673 C163.536,141.351 166.002,141.401 165.994,139.75 C165.991,139.063 165.533,136.857 164.975,134.849 C164.417,132.841 163.748,129.016 163.487,126.349 C162.542,116.662 160.508,109.893 157.952,107.929 C154.87,105.561 154.704,105.564 152.458,108.047 Z M133.982,38.533 C135.69,35.342 138.005,35.312 140.948,38.445 C142.577,40.179 143.069,41.587 142.642,43.291 C142.31,44.611 142.636,49.249 143.366,53.596 C145.178,64.393 145.326,74.099 143.763,79.763 C142.335,84.942 142.549,91.317 144.134,90.789 C145.203,90.432 147.976,85.691 150.443,80 C151.277,78.075 152.369,75.825 152.869,75 C154.445,72.4 161.743,56.602 162.454,54.249 C163.49,50.825 166.741,49.455 168.993,51.494 C173.248,55.345 171.949,61.309 164.921,70.191 C163.314,72.222 162,74.314 162,74.841 C162,76.262 155.243,86.098 152.169,89.152 C150.701,90.61 148.92,92.523 148.211,93.402 C147.487,94.299 145.433,95 143.529,95 C140.901,95 139.655,95.676 138.001,97.999 C136.226,100.491 135.538,100.823 133.933,99.964 C131.543,98.685 131.349,93.493 133.5,88.346 C134.325,86.371 135,84.586 135,84.378 C135,83.329 131.6,84.224 129.21,85.902 C127.719,86.948 124.532,88.037 122.126,88.323 C118.415,88.764 117.377,88.468 115.28,86.371 C113.363,84.454 112.96,83.296 113.484,81.21 C114.38,77.637 115.551,77.033 121.628,77.015 C128.477,76.995 133.616,74.788 134.224,71.608 C134.484,70.249 134.23,62.822 133.661,55.103 C132.819,43.687 132.879,40.594 133.982,38.533 Z"/>
</svg>

