<svg xmlns="http://www.w3.org/2000/svg" width="300" height="300" viewBox="0 0 300 300" version="1.1">
  <defs/>
  <path d="M106.39,158.75 C107.02,156.736 110.995,156.395 112.8,158.2 C113.514,158.914 114,162.356 114,166.7 C114,172.718 114.28,174 115.596,174 C117.912,174 128.387,167.26 134.635,161.75 C140.437,156.633 142.324,156.079 145.171,158.655 C148.792,161.932 146.801,165.621 138.274,171.436 C135.4,173.396 132.76,175 132.409,175 C130.991,175 117.909,184.292 116.505,186.296 C115.553,187.656 115,190.751 115,194.723 C115,199.721 115.418,201.418 117.053,203.053 C118.79,204.79 118.999,205.831 118.407,209.803 C118.022,212.386 117.098,215.433 116.354,216.574 C115.04,218.588 114.678,225.603 115.695,229.349 C116.164,231.073 125.495,236.004 128.279,235.997 C128.95,235.996 131.3,236.871 133.5,237.943 C135.7,239.015 139.525,240.537 142,241.326 C144.475,242.114 150.325,244.425 155,246.461 C159.675,248.497 164.625,250.542 166,251.006 C167.375,251.47 170.975,252.835 174,254.039 C177.025,255.242 181.525,256.887 184,257.693 C186.475,258.499 190.525,260.033 193,261.1 C199.576,263.937 207.769,266.15 213.726,266.7 C218.13,267.106 219.429,267.725 221.976,270.626 C225.5,274.639 225.677,275.943 223.123,279.097 L221.246,281.415 L216.873,279.599 C214.468,278.601 211.306,277.158 209.846,276.392 C208.386,275.626 206.392,275 205.414,275 C204.437,275 200.231,273.7 196.069,272.112 C188.27,269.136 185.763,268.23 175.5,264.68 C172.2,263.539 166.719,261.359 163.319,259.836 C159.92,258.314 154.295,256.114 150.819,254.949 C147.344,253.783 142.475,251.791 140,250.522 C137.525,249.253 133.925,247.649 132,246.959 C130.075,246.268 125.684,244.395 122.243,242.797 C118.801,241.199 115.539,240.167 114.993,240.504 C114.431,240.852 113.967,246.407 113.924,253.309 C113.882,260.014 113.401,270.9 112.853,277.5 C112.306,284.1 111.898,291.863 111.948,294.75 L112.037,300 L93.885,300 L94.193,295.75 C94.449,292.201 94.875,291.447 96.777,291.177 C98.551,290.925 99.289,291.531 100.124,293.927 C100.714,295.617 101.746,297 102.419,297 C103.341,297 103.686,291.708 103.817,275.576 C103.913,263.792 104.444,252.963 104.996,251.511 C106.733,246.942 106.242,239.529 104.072,237.565 C101.448,235.19 98.966,236.196 95.435,241.066 C91.996,245.811 86.621,252.731 78.744,262.559 C71.59,271.483 56.194,287 54.492,287 C53.783,287 50.637,288.35 47.5,290 C40.735,293.559 39.709,293.641 35.902,290.93 C32.31,288.372 30.703,285.51 31.483,283.055 C32.449,280.009 35.006,279.768 38.452,282.396 C41.553,284.761 41.738,284.783 45.071,283.169 C50.168,280.701 71.917,257.79 79.047,247.378 C79.846,246.21 82.515,242.61 84.977,239.378 C87.439,236.145 90.194,232.15 91.099,230.5 C92.004,228.85 93.614,225.925 94.676,224 C95.738,222.075 98.72,217.233 101.303,213.24 C105.455,206.822 106,205.339 106,200.458 C106,194.025 104.498,192.763 100.242,195.623 C98.734,196.637 95.925,198.269 94,199.25 C92.075,200.231 89.375,201.666 88,202.439 C76.198,209.072 60.499,213.853 56.865,211.922 C54.279,210.548 53.51,205.832 55.619,204.289 C56.589,203.58 58.009,203 58.775,203 C62.48,203 91.003,190.287 99.768,184.728 L104.25,181.885 L103.751,173.693 C103.407,168.056 103.655,164.72 104.547,163 C105.26,161.625 106.089,159.713 106.39,158.75 Z M122,46.6 C128.727,43.295 130.066,42.974 134.992,43.495 C140.011,44.024 146.975,47.349 146.993,49.223 C146.997,49.62 148.075,52.32 149.388,55.223 C153.597,64.522 155.433,82.275 153.036,90.5 C152.555,92.15 151.876,95.616 151.527,98.203 C150.894,102.889 150.908,102.917 155.176,105.611 C157.533,107.099 160.31,109.396 161.349,110.716 C162.387,112.036 165.659,114.483 168.618,116.154 C174.657,119.562 175.427,121.852 171.826,125.686 C169.095,128.593 168.444,128.576 164.411,125.5 C162.608,124.125 160.696,123 160.161,123 C159.627,123 157.304,121.425 155,119.5 C152.696,117.575 150.454,116 150.019,116 C149.105,116 148.243,119.805 147.073,129 C146.619,132.575 145.741,136.767 145.123,138.315 C144.505,139.863 144,142.146 144,143.387 C144,145.669 137.341,151 134.49,151 C133.022,151 122.713,139.837 121.158,136.564 C120.619,135.429 119.622,131.667 118.943,128.205 C117.994,123.368 117.339,121.981 116.115,122.216 C115.239,122.385 114.394,123.418 114.236,124.511 C112.3,137.934 101.306,156 95.073,156 C93.603,156 91.912,155.512 91.316,154.916 C90.131,153.731 90.715,150 92.085,150 C93.287,150 101,139.373 101,137.717 C101,136.964 102.125,133.129 103.5,129.193 C104.875,125.258 106,121.123 106,120.005 C106,118.887 106.384,117.191 106.853,116.236 C111.2,107.385 111.506,106.077 113.099,89.5 C114.23,77.729 115.464,75 119.655,75 C122.003,75 126,78.137 126,79.98 C126,82.423 122.784,97.681 121.941,99.236 C121.423,100.191 120.986,102.216 120.968,103.736 C120.951,105.256 120.276,107.374 119.468,108.441 C117.34,111.255 117.534,116 119.777,116 C122.881,116 125.591,118.72 126.93,123.178 C127.644,125.555 128.567,128.4 128.98,129.5 C129.394,130.6 130.141,132.85 130.641,134.5 C131.761,138.204 134.057,138.368 135.736,134.864 C139.286,127.459 145.624,72.733 143.274,69.776 C142.717,69.074 141.939,66.716 141.545,64.535 C140.36,57.976 138.405,55.167 134.518,54.437 C131.657,53.901 130.208,54.336 126.349,56.892 C123.768,58.602 121.218,60 120.682,60 C120.145,60 117.784,61.575 115.435,63.5 C108.788,68.947 105.395,67.638 106.601,60.092 C107.397,55.118 110.883,52.064 122,46.6 Z M43.667,97.667 C45.774,95.559 53.676,98.513 56.943,102.629 C58.95,105.156 59.159,106.28 58.689,112.015 C58.396,115.599 57.221,120.903 56.078,123.803 C53.383,130.639 53.101,143 55.64,143 C57.961,143 59.931,140.024 59.968,136.461 C60.021,131.451 64.899,123 67.739,123 C68.821,123 69.048,123.621 68.562,125.25 C68.193,126.487 67.28,131.618 66.533,136.651 C64.672,149.198 60.365,156 54.28,156 C48.798,156 46.001,152.388 45.993,145.295 C45.985,138.032 47.594,125.617 49.718,116.558 C50.958,111.269 51.057,109.519 50.136,109.212 C46.923,108.141 43,103.669 43,101.078 C43,99.568 43.3,98.033 43.667,97.667 Z M83.655,104.829 C85.905,102.342 88.141,102.43 101.806,105.541 C103.832,106.002 104.075,106.578 103.806,110.283 L103.5,114.5 L97.5,114.551 C93.43,114.585 90.607,115.191 88.724,116.432 C86.058,118.191 85.871,118.193 83.974,116.477 C81.478,114.217 81.292,107.44 83.655,104.829 Z M53.667,50.667 C55.211,49.123 63.027,50.027 64.975,51.975 C67.466,54.466 68.598,58.824 67.295,60.905 C65.3,64.09 62.128,63.354 57.463,58.622 C53.217,54.314 52.184,52.15 53.667,50.667 Z"/>
</svg>

