<svg xmlns="http://www.w3.org/2000/svg" width="300" height="300" viewBox="0 0 300 300" version="1.1">
  <defs/>
  <path d="M62.443,55.063 C64.698,52.572 66.777,52.455 69.902,54.644 C72.071,56.163 72.211,56.804 71.758,63.144 C71.261,70.079 71.74,71.223 74,68.5 C76.356,65.661 80.57,66.808 83.868,71.186 C85.453,73.289 84.421,75.422 79.133,80.981 C73.458,86.946 72.28,94.373 73.931,113.76 C75.09,127.368 75.373,128.658 77.621,130.56 C80,132.573 80.02,132.709 78.465,136.429 C76.954,140.046 76.975,140.345 78.89,142.383 C79.998,143.563 83.418,145.843 86.49,147.45 C92.704,150.701 99.461,156.125 101.091,159.17 C101.938,160.753 101.781,161.459 100.329,162.594 C97.628,164.706 94.075,163.649 86.55,158.497 C82.256,155.557 79.791,153.758 78.389,154.375 C76.41,155.246 76.549,160.93 76.658,175.016 C76.745,186.282 77.142,204.725 77.541,216 C78.164,233.576 78.042,237.035 76.685,240.25 C75.387,243.326 74.599,243.996 72.301,243.978 C70.76,243.966 68.478,243.169 67.23,242.208 L64.959,240.46 L67.086,236.058 C69.099,231.893 69.173,230.763 68.474,215.078 C68.068,205.96 67.681,191.112 67.615,182.082 C67.535,171.258 67.124,165.541 66.407,165.302 C65.81,165.103 63.589,167.766 61.473,171.22 C59.356,174.674 55.572,180.292 53.062,183.703 C50.553,187.115 47.15,191.797 45.5,194.106 C33.625,210.728 22.003,223.005 18.151,222.996 C15.409,222.99 10,219.153 10,217.215 C10,214.617 11.974,213 15.145,213 C18.005,213 25.964,205.884 30.381,199.378 C31.546,197.662 34.413,193.743 36.75,190.671 C39.087,187.599 41,184.701 41,184.231 C41,183.761 41.831,182.485 42.846,181.395 C44.701,179.404 45.3,178.416 50.115,169.398 C66.042,139.566 66.966,135.708 64.651,108.75 C63.686,97.517 62.995,96.949 57.2,102.624 C53.898,105.858 51.229,107.863 43.393,113 C42.134,113.825 39.32,115.771 37.14,117.325 C29.012,123.118 23.59,118.17 29.686,110.523 C31.234,108.582 34.075,106.254 36,105.35 C41.005,103.001 54.807,92.827 59.433,88.078 L63.367,84.04 L62.158,76.27 C60.195,63.657 60.278,57.455 62.443,55.063 Z M141.872,131.663 C143.694,129.456 145.157,129.566 147.896,132.118 C149.761,133.856 150.132,135.157 149.961,139.368 C149.393,153.314 149.977,161.054 151.645,161.694 C152.663,162.084 153.812,161.596 154.662,160.412 C155.417,159.361 157.377,157.022 159.017,155.216 C160.658,153.41 162,151.595 162,151.182 C162,150.117 167.501,147 169.381,147 C170.246,147 171.695,148.131 172.601,149.514 C174.176,151.918 174.128,152.212 171.494,156.264 C169.979,158.594 164.974,164.189 160.37,168.698 L152,176.896 L151.781,183.698 C151.17,202.724 150.022,212.064 147.993,214.508 C146.482,216.329 147.724,218.323 149.851,217.491 C153.1,216.219 188.734,215.159 200.5,215.983 C235.191,218.415 244.706,219.366 247.25,220.656 C250.935,222.526 250.871,225.98 247.101,228.768 C244.486,230.701 243.675,230.81 238.851,229.88 C226.274,227.455 179.615,224.536 167.5,225.416 C146.622,226.932 127.412,231.546 113.255,238.444 C110.37,239.85 107.481,241 106.834,241 C104.606,241 102,237.684 102,234.85 C102,232.424 102.692,231.704 106.75,229.908 C109.362,228.752 113.075,227 115,226.015 C116.925,225.031 122.662,223.433 127.749,222.466 C132.836,221.498 137.37,220.21 137.824,219.603 C141.266,215.001 144.424,183.484 141.554,182.382 C140.846,182.11 138.294,183.198 135.883,184.8 C133.472,186.402 128.461,188.786 124.746,190.098 C116.668,192.953 114.666,192.271 114.181,186.501 C113.818,182.189 114.956,181.038 119.601,181.015 C121.307,181.007 124.907,179.809 127.601,178.353 C134.235,174.768 137.531,173.448 139.147,171.013 C141.069,168.117 140.614,163.644 140.57,151.913 C140.516,137.553 140.812,132.949 141.872,131.663 Z M143.5,41.288 C145.011,39.457 148.477,39.765 150.41,41.901 C151.886,43.531 151.97,44.399 150.998,48.006 C149.583,53.263 150.142,54.77 153.659,55.178 C155.965,55.445 156.59,56.155 157.344,59.364 C158.215,63.067 158.085,63.379 154.218,66.864 C150.035,70.634 149.998,70.734 147.454,85 C146.718,89.125 145.593,95.416 144.954,98.979 C144.315,102.543 143.164,106.356 142.396,107.452 C141.628,108.548 141,110.519 141,111.831 C141,113.93 141.33,114.136 143.75,113.543 C145.262,113.173 148.575,110.84 151.112,108.358 C154.514,105.03 156.744,103.71 159.612,103.327 C163.281,102.837 163.572,102.996 164.777,106.154 C166.045,109.477 166.018,109.532 160.777,114.265 C157.875,116.885 153.025,120.193 150,121.614 C146.975,123.036 144.275,124.502 144,124.873 C143.533,125.502 141.423,127.012 135.101,131.239 C133.67,132.196 131.375,133.49 130,134.114 C128.625,134.738 126.518,135.703 125.317,136.257 C122.218,137.689 120.295,136.62 119.506,133.027 C118.552,128.685 120.602,126.024 127.895,122.137 C133.938,118.916 134,118.838 134,114.52 C134,112.121 134.857,106.41 135.903,101.829 C136.95,97.248 138.07,90.013 138.391,85.75 C138.936,78.511 138.845,78 137.006,78 C135.924,78 132.16,79.419 128.642,81.154 C125.124,82.889 121.561,84.045 120.723,83.724 C119.886,83.403 118.662,81.505 118.002,79.507 C116.967,76.37 117.043,75.61 118.557,73.937 C119.521,72.872 121.326,72 122.567,72 C123.809,72 127.953,70.196 131.777,67.991 C138.498,64.116 138.752,63.829 139.36,59.388 C139.707,56.861 139.729,54.371 139.41,53.854 C138.774,52.826 141.897,43.231 143.5,41.288 Z"/>
</svg>

