<svg xmlns="http://www.w3.org/2000/svg" width="300" height="300" viewBox="0 0 300 300" version="1.1">
  <defs/>
  <path d="M134.96,3.075 C135.571,1.934 136.929,1 137.979,1 C140.966,1 145.085,5.183 145.868,9.01 C146.874,13.929 149.286,13.949 154.155,9.08 C159.722,3.513 165.095,3.482 166.453,9.01 C166.986,11.176 166.194,12.184 160.376,16.75 C156.697,19.637 153.152,22 152.499,22 C151.845,22 150.6,22.788 149.733,23.75 C148.382,25.25 148.284,26.999 149.048,36 C150.351,51.355 150.648,52.062 156.409,53.525 C159.058,54.198 161.588,55.367 162.029,56.124 C163.967,59.446 167.783,64.417 171.25,68.139 C173.313,70.352 175,72.582 175,73.094 C175,73.605 172.789,76.354 170.087,79.202 C164.361,85.237 162.942,89.571 165.995,91.709 C167.098,92.481 168,93.673 168,94.357 C168,95.717 154.754,107 153.158,107 C152.615,107 150.238,108.75 147.875,110.889 C143.857,114.526 143.657,114.951 144.789,117.436 C145.455,118.898 146,122.609 146,125.682 C146,130.359 146.408,131.649 148.5,133.588 C150.676,135.604 151,136.752 151,142.452 C151,148.27 151.217,149 152.943,149 C154.012,149 155.475,148.171 156.193,147.159 C158.297,144.195 161.723,142.857 165.432,143.553 C167.638,143.967 171.241,143.472 175.668,142.146 C183.898,139.682 193.759,137.67 208.5,135.448 C214.55,134.536 221.474,133.078 223.887,132.207 L228.274,130.623 L231.137,133.828 C232.712,135.59 234,137.442 234,137.943 C234,140.116 228.59,143 224.514,143 C222.196,143 218.994,143.449 217.399,143.998 C215.805,144.547 211.125,145.156 207,145.352 C199.85,145.692 198.519,145.955 193.203,148.081 C191.94,148.587 190.009,149 188.912,149 C185.508,149 174.295,153.015 172.709,154.802 C171.88,155.736 170.711,159.425 170.112,163 C168.039,175.377 167.024,179.157 165.017,181.977 C163.908,183.534 163,185.269 163,185.831 C163,186.393 161.138,189.551 158.863,192.849 C154.122,199.719 154.256,201.375 159.736,203.66 C161.806,204.523 164.625,206.008 166,206.961 C167.375,207.914 169.973,209.193 171.774,209.803 C173.574,210.413 179.013,213.34 183.86,216.307 C188.707,219.274 193.875,222.003 195.345,222.372 C198.449,223.151 204,230.273 204,233.476 C204,234.672 202.837,236.742 201.415,238.076 L198.83,240.5 L196.958,238 C195.928,236.625 194.105,234.229 192.905,232.676 C191.706,231.122 188.039,228.55 184.756,226.96 C181.474,225.37 178.232,223.608 177.552,223.043 C176.873,222.479 173.579,221.143 170.233,220.075 C166.888,219.006 160.992,216.497 157.133,214.5 C151.677,211.676 149.713,211.095 148.308,211.887 C147.313,212.448 143.189,216.283 139.142,220.409 C131.563,228.137 131.659,228.085 117,232.4 C110.123,234.424 96.67,234.801 94.535,233.029 C92.54,231.374 92.566,228.38 94.582,227.607 C95.452,227.273 99.517,227 103.615,227 C112.546,227 117.832,224.707 128.315,216.284 C137.057,209.261 138.222,206.926 134.831,203.231 C133.453,201.729 131.595,198.896 130.704,196.936 C129.282,193.811 129.248,192.745 130.428,188.273 C131.168,185.469 133.174,180.209 134.887,176.584 C136.599,172.96 138,169.321 138,168.497 C138,166.105 133.986,166.704 124.57,170.5 C119.795,172.425 115.201,174 114.362,174 C111.544,174 97.584,179.208 88.099,183.797 L78.698,188.345 L76.849,186.062 C74.354,182.98 74.523,180.797 77.471,178.027 C80.743,174.954 92.246,169.183 98.5,167.478 C104.056,165.964 121.383,160.306 124.5,158.988 C125.6,158.523 128.975,157.376 132,156.439 C135.025,155.502 138.033,154.314 138.686,153.799 C140.032,152.735 143,140.607 143,136.167 C143,134.551 142.328,131.94 141.506,130.364 C140.685,128.789 140.01,126.472 140.006,125.215 C139.999,122.438 137.241,118 135.522,118 C134.836,118 132.576,119.35 130.5,121 C128.424,122.65 126.253,124 125.677,124 C123.549,124 120,119.591 120,116.948 C120,113.742 121.355,112.498 125.759,111.664 C127.552,111.324 130.252,110.2 131.759,109.167 C133.267,108.133 135.68,106.575 137.122,105.704 C140.782,103.495 141.816,97 138.506,97 C137.777,97 134.327,98.35 130.84,99.999 C127.353,101.649 123.782,102.999 122.905,102.999 C120.828,103 118.324,100.174 117.51,96.91 C116.731,93.787 119.563,91.527 125.604,90.452 C127.747,90.07 132.088,88.4 135.25,86.74 L141,83.721 L141,72.777 L137.427,73.448 C135.462,73.816 132.425,74.99 130.677,76.055 C127.069,78.255 121.73,78.611 120.253,76.75 C119.707,76.063 118.95,73.778 118.571,71.674 C117.598,66.279 118.986,64.974 124.948,65.68 C128.934,66.152 130.316,65.85 133.123,63.892 C140.781,58.55 141.004,58.185 140.956,51.076 C140.932,47.459 140.264,42.7 139.471,40.5 C138.679,38.3 138.023,34.798 138.015,32.719 C137.995,27.757 135.678,26.789 132.369,30.358 C129.517,33.434 128.334,33.613 125.829,31.345 C122.05,27.925 124.445,21.214 131.045,16.73 C134.261,14.544 134.477,14.062 134.175,9.765 C133.996,7.226 134.349,4.216 134.96,3.075 Z M58.501,41.181 C61.691,37.39 62.032,37.341 64.781,40.267 C66.547,42.146 66.962,43.989 67.206,51.017 C67.47,58.628 67.706,59.528 69.5,59.769 C71.405,60.025 76.261,56.137 80.24,51.172 C82.365,48.52 84.08,48.434 87.04,50.831 C88.813,52.267 89.153,53.255 88.614,55.402 C87.963,57.994 77.381,69.319 73.551,71.523 C70.912,73.041 69.905,81.503 70.521,97 C70.816,104.425 71.254,116.56 71.495,123.966 L71.932,137.432 L80.216,137.703 C103.137,138.453 105.295,138.814 107.103,142.193 C107.985,143.841 107.809,144.771 106.217,146.875 C104.31,149.393 103.888,149.487 95.865,149.19 C89.115,148.94 86.296,148.314 81.263,145.948 C77.833,144.335 74.462,142.112 73.773,141.007 C73.083,139.903 72.165,139 71.732,139 C71.299,139 70.935,145.188 70.924,152.75 C70.896,170.513 70.885,170.742 69.861,175.75 C69.324,178.372 69.387,181.766 70.025,184.611 C70.593,187.148 71.28,197.178 71.55,206.9 C72.018,223.727 71.943,224.684 69.982,226.789 C67.943,228.977 64.437,229.654 62.495,228.235 C60.655,226.89 59.015,220.468 59.487,216.458 C59.744,214.281 60.366,210.25 60.87,207.5 C61.374,204.75 61.79,189.787 61.794,174.25 C61.799,151.768 61.536,146 60.504,146 C59.076,146 53,152.5 53,154.027 C53,154.554 52.098,156.022 50.996,157.289 C49.894,158.557 46.786,163.088 44.09,167.358 C38.571,176.098 31.894,184.235 24.501,191.232 C18.718,196.705 15.563,197.262 11.306,193.561 C7.767,190.484 8.72,188.535 15.459,185.066 C21.553,181.931 27.448,175.137 35.474,162 C39.002,156.225 43.054,149.925 44.478,148 C45.902,146.075 48.697,142.025 50.69,139 C52.683,135.975 55.346,132.448 56.607,131.163 C57.869,129.878 59.663,126.83 60.595,124.39 C62.134,120.36 62.177,118.289 61.066,101.754 C60.392,91.743 59.626,83.204 59.362,82.777 C58.416,81.246 55.871,82.056 50.912,85.467 C48.14,87.373 44.214,89.224 42.186,89.579 C40.159,89.934 37.462,90.876 36.192,91.673 C34.923,92.47 32.673,92.982 31.192,92.811 C28.775,92.532 28.468,92.044 28.182,88.036 C27.817,82.918 29.49,81 34.32,81 C37.725,81 53.965,72.73 57.087,69.407 C58.908,67.469 59.06,66.685 58.171,63.826 C57.602,61.997 56.842,56.869 56.48,52.431 C55.85,44.687 55.931,44.235 58.501,41.181 Z M153.5,159.536 C148.874,161.886 147.2,164.548 146.432,170.776 C146.043,173.924 144.389,179.425 142.754,183 C140.061,188.891 139.913,189.734 141.18,192 C143.141,195.509 144.959,195.124 148.256,190.5 C153.918,182.56 157.861,172.916 158.579,165.25 C159.333,157.206 158.945,156.77 153.5,159.536 Z M151.552,66.25 C148.526,76.072 151.881,81.781 156.916,75.379 C159.975,71.491 158.055,65 153.846,65 C152.796,65 151.764,65.563 151.552,66.25 Z M150.992,89.805 C148.556,91.778 147.573,98.967 149.64,99.693 C151.213,100.246 155,93.845 155,90.632 C155,87.536 154.039,87.338 150.992,89.805 Z"/>
</svg>

