<svg xmlns="http://www.w3.org/2000/svg" width="300" height="300" viewBox="0 0 300 300" version="1.1">
  <defs/>
  <path d="M59.161,58.547 C60.01,56.684 61.087,56 63.175,56 C66.662,56 69.991,60.786 69.996,65.807 C69.998,67.626 70.519,72.259 71.154,76.101 C72.053,81.547 72.654,83.021 73.879,82.785 C74.743,82.618 75.926,81.527 76.509,80.359 C77.091,79.191 79.068,76.972 80.902,75.429 C84.027,72.799 84.403,72.715 86.869,74.093 C88.43,74.965 89.622,76.598 89.8,78.108 C90.098,80.641 88.85,82.009 78.039,91 L75.033,93.5 L74.867,110 C74.776,119.075 74.78,134.035 74.877,143.244 C75.046,159.388 75.132,160.041 77.292,161.456 C81.051,163.919 88.182,166.076 94.564,166.68 C101.782,167.364 104.975,169.205 103.403,171.777 C100.614,176.341 90.168,178.454 85,175.5 C81.96,173.762 76.385,173.567 75.398,175.164 C75.003,175.805 74.733,182.442 74.799,189.914 C74.865,197.386 74.512,204.85 74.014,206.5 C73.516,208.15 72.681,217.945 72.159,228.266 C71.121,248.758 70.209,252 65.483,252 C63.73,252 62.127,250.778 59.964,247.792 C56.455,242.947 56.396,239.656 59.811,239.172 C61.082,238.992 62.291,238.317 62.497,237.672 C62.84,236.599 64.321,215.822 65.533,195.088 C65.803,190.461 66.431,186.186 66.928,185.586 C67.749,184.597 67.985,179.212 67.926,162.75 C67.912,158.545 67.536,157 66.53,157 C65.042,157 59,162.614 59,163.997 C59,164.461 56.525,168.433 53.5,172.825 C50.475,177.216 48,181.135 48,181.533 C48,181.932 46.537,183.926 44.75,185.965 C42.962,188.004 39.992,191.551 38.148,193.846 C36.305,196.142 31.975,200.941 28.527,204.51 C23.384,209.833 21.682,211 19.063,211 C14.237,211 12,209.395 12,205.933 C12,202.919 12.33,202.639 17.114,201.599 C18.551,201.286 21.476,199.323 23.614,197.236 C27.166,193.767 43,173.513 43,172.437 C43,172.184 44.8,169.34 47,166.117 C49.2,162.894 51,159.943 51,159.559 C51,159.175 52.462,156.754 54.249,154.18 C56.035,151.606 57.983,148.6 58.577,147.5 C59.17,146.4 61.308,142.507 63.328,138.848 L67.001,132.196 L65.849,119.348 C64.535,104.696 63.445,102.294 59.706,105.806 C58.422,107.013 57.065,108 56.691,108 C56.317,108 52.508,110.588 48.226,113.75 C34.012,124.247 29.901,125.252 29.206,118.399 C28.81,114.499 35.119,108.388 44.5,103.587 C54.373,98.533 63.354,91.326 62.459,89.174 C62.076,88.253 61.323,83 60.785,77.5 C60.247,72 59.401,67.073 58.904,66.55 C57.656,65.238 57.773,61.593 59.161,58.547 Z M155.028,96.584 C159.512,94.639 161.519,94.639 164.485,96.582 C168.111,98.958 170.649,103.984 172.35,112.156 C174.753,123.699 174.772,124.065 173.903,142.25 C173.386,153.078 173.437,159.837 174.04,160.44 C177.362,163.762 172.228,170.065 164.286,172.416 C161.104,173.358 156.425,175.193 153.89,176.493 C151.354,177.793 147.754,179.14 145.89,179.487 C142.842,180.053 142.097,179.689 138.5,175.879 L134.5,171.641 L134.745,157.86 C134.885,150.02 134.329,138.565 133.455,131.289 C130.37,105.594 130.528,100.886 134.522,99.353 C136.482,98.601 140,101.705 140,104.186 C140,107.946 142.953,107.328 147.3,102.661 C149.641,100.147 153.118,97.413 155.028,96.584 Z M199.5,207.077 C209.3,205.764 231.568,207.182 246.326,210.059 C248.981,210.577 252.581,211.025 254.326,211.055 C256.634,211.096 258.161,211.946 259.922,214.171 C262.632,217.596 262.246,218.98 257.617,222.436 C254.99,224.398 254.778,224.409 251.864,222.737 C250.2,221.781 247.637,220.993 246.169,220.985 C244.701,220.976 238.586,220.076 232.581,218.985 C226.567,217.892 217.302,217 211.959,217 C202.353,217 174.892,219.525 172,220.673 C171.175,221.001 167.125,221.602 163,222.008 C154.583,222.837 141.045,225.339 136.5,226.906 C133.687,227.875 120.817,230.265 109.5,231.919 C106.75,232.321 101.62,233.482 98.1,234.499 L91.7,236.348 L89.85,234.063 C87.701,231.409 87.438,227.711 89.289,226.175 C91.244,224.553 98.187,223.127 112,221.51 C118.875,220.705 126.975,219.344 130,218.484 C134.873,217.1 142.936,215.551 163.5,212.05 C166.8,211.489 174.675,210.351 181,209.522 C187.325,208.693 195.65,207.593 199.5,207.077 Z M150.671,114.263 C145.425,120.238 145.13,120.869 144.258,128.013 C143.756,132.131 143.494,137.75 143.676,140.5 C143.859,143.25 144.204,149.717 144.444,154.871 C144.683,160.025 145.117,164.863 145.408,165.621 C146.128,167.496 148.808,167.279 153,165.006 C154.925,163.963 157.465,162.664 158.644,162.119 C161.13,160.972 164,155.743 164,152.361 C164,151.078 164.525,148.067 165.166,145.669 C165.808,143.27 166.039,140.545 165.681,139.611 C164.878,137.518 163.335,138.297 157.036,143.976 C150.695,149.693 147.191,149.148 147.883,142.552 C148.343,138.164 158.345,127.402 161.569,127.825 C163.893,128.129 164,127.896 164,122.517 C164,115.629 160.878,108 158.06,108 C156.992,108 153.775,110.727 150.671,114.263 Z M159.535,49.822 C167.128,44.198 172.995,45.192 171.532,51.855 C170.78,55.277 168.693,57.316 164.5,58.724 C162.85,59.278 158.458,61.817 154.74,64.366 C151.022,66.915 147.718,69 147.398,69 C147.078,69 145.671,69.9 144.273,71 C142.874,72.1 141.086,73 140.298,73 C139.511,73 137.392,74.125 135.589,75.5 C131.111,78.915 127.466,78.817 126.287,75.25 C125.788,73.737 125.531,71.82 125.717,70.989 C125.903,70.158 130.205,67.295 135.277,64.627 C146.004,58.983 152.606,54.954 159.535,49.822 Z"/>
</svg>

