<svg xmlns="http://www.w3.org/2000/svg" width="300" height="300" viewBox="0 0 300 300" version="1.1">
  <defs/>
  <path d="M43.754,73.58 C44.801,72.533 48.735,72.974 49.728,74.25 C50.956,75.829 53.054,88.695 52.373,90.47 C51.562,92.583 53.955,93.35 55.892,91.598 C58.241,89.472 62.302,89.571 64.323,91.804 C65.855,93.498 65.65,93.929 60.989,98.817 L56.021,104.025 L55.934,124.326 C55.853,143.338 55.983,144.856 57.98,148.242 L60.113,151.857 L57.987,156.026 C56.817,158.318 56.129,160.463 56.458,160.791 C56.786,161.119 62.481,161.413 69.113,161.444 C80.604,161.497 81.264,161.613 83.119,163.901 C85.67,167.048 85.097,168.369 80.884,169.054 C78.985,169.362 76.772,170.026 75.966,170.529 C75.16,171.032 70.9,171.681 66.5,171.972 L58.5,172.5 L58.5,200.69 C58.5,216.194 58.837,233.284 59.249,238.668 C59.975,248.16 59.925,248.53 57.586,250.869 C54.791,253.663 52.41,253.21 51.047,249.623 C50.539,248.287 49.646,246.899 49.062,246.538 C47.429,245.529 47.803,238.726 49.635,236.111 C51.082,234.045 51.215,230.577 50.796,205.883 C50.536,190.542 50.004,177.67 49.613,177.28 C48.675,176.341 45.902,178.147 44.567,180.567 C41.816,185.552 34.812,194.855 31.344,198.131 C29.23,200.128 25.25,204.498 22.5,207.844 C17.151,214.35 12.273,217.703 9.631,216.688 C7.693,215.945 7.45,211.442 9.285,210.3 C13.376,207.755 39,170.416 39,167 C39,166.489 40.197,163.917 41.66,161.285 C45.422,154.518 45.663,153.982 47.035,149.333 C47.768,146.849 47.95,144.023 47.484,142.333 C47.055,140.775 46.52,134.022 46.296,127.326 C45.791,112.261 45.044,111.191 38.681,116.405 C36.268,118.382 33.937,120 33.501,120 C32.169,120 22,127.048 22,127.971 C22,128.775 18.876,130.043 9.807,132.918 C6.897,133.84 5.676,133.814 4.046,132.797 C-0.101,130.207 0.722,125 5.278,125 C6.396,125 8.704,123.973 10.406,122.717 C12.108,121.461 17.325,118.468 22,116.065 C33.255,110.282 37.386,107.619 41.133,103.732 L44.25,100.5 L43.712,87.33 C43.416,80.086 43.435,73.898 43.754,73.58 Z M188.5,76.556 C192.621,72.817 194.098,72.061 196.899,72.26 C202.112,72.628 202.809,74.748 200.209,82.325 C198.994,85.866 198,89.343 198,90.053 C198,90.762 197.364,92.053 196.587,92.921 C195.81,93.79 195.022,96.511 194.837,98.969 C194.548,102.802 194.784,103.483 196.5,103.758 C201.718,104.593 203.209,105.245 206.482,108.118 C208.417,109.817 210,111.884 210,112.711 C210,116.13 206.662,127.697 205.14,129.551 C202.393,132.898 194.691,137.924 191.272,138.602 C186.79,139.49 185.395,141.376 186.853,144.577 C188.296,147.745 188.425,175.619 187,176.5 C186.38,176.883 185.983,186.309 185.956,201.309 C185.932,214.614 185.456,227.525 184.897,230 C183.967,234.121 183.436,242.534 181.407,285.25 L180.706,300 L172.705,300 L173.355,290.25 C173.712,284.887 174.461,274.425 175.018,267 C176.616,245.729 177.589,191.448 176.766,169.5 C175.992,148.884 174.362,138.076 170.83,130.143 C168.235,124.318 168.684,119.615 171.878,119.164 C173.623,118.917 175.537,120.089 179.067,123.566 C183.291,127.727 184.423,128.317 188.334,128.403 C193.548,128.517 195.878,126.816 198.514,120.968 C200.239,117.145 200.238,116.92 198.498,114.998 C197.294,113.667 195.419,113 192.884,113 C187.101,113 185,110.168 185,102.37 C185,98.932 185.45,95.84 186,95.5 C187.29,94.702 187.305,91 186.018,91 C185.478,91 183.392,92.597 181.381,94.549 C175.772,99.996 170.554,102.246 163.367,102.313 C156.713,102.376 154,101.072 154,97.812 C154,94.059 155.905,92 159.376,92 C167.362,92 177.27,86.746 188.5,76.556 Z M112.101,144.209 C113.971,143.013 116.187,142.026 117.027,142.017 C119.013,141.995 123,144.798 123,146.215 C123,146.821 121.483,150.508 119.628,154.409 C113.666,166.949 112.791,171.762 115.517,177.033 C116.351,178.646 118.265,180.603 119.769,181.381 C121.274,182.159 123.361,183.741 124.407,184.898 C126.821,187.564 129.057,187.561 132.097,184.885 C138.723,179.052 142,178.729 142,183.91 C142,185.544 141.55,187.16 141,187.5 C140.45,187.84 140,189.138 140,190.385 C140,191.631 138.919,193.667 137.598,194.908 C135.123,197.233 133,203.657 133,208.821 C133,211.966 131.373,216.507 127.382,224.5 C121.798,235.682 119.565,239.555 118.07,240.647 C117.207,241.278 115.395,242.762 114.043,243.944 C109.958,247.518 107.094,246.363 103.042,239.506 C101.094,236.209 97.795,231.804 95.71,229.716 C91.532,225.531 89.582,221.539 90.745,219.548 C91.744,217.837 106.351,204.557 112.798,199.5 C115.602,197.3 118.16,194.86 118.483,194.077 C118.853,193.18 117.216,191.032 114.052,188.265 C107.21,182.279 105.715,178.817 106.299,170.312 C106.556,166.565 107.091,162.291 107.488,160.813 C108.182,158.226 108.046,158.114 103.855,157.813 L99.5,157.5 L99.5,153.111 C99.5,148.73 99.509,148.719 104.101,147.553 C106.632,146.91 110.232,145.406 112.101,144.209 Z M115.363,101.25 C121.678,97.03 124.198,97.082 127.57,101.502 C130.027,104.725 130.139,105.264 128.966,108.252 C128.264,110.039 126.185,113.826 124.345,116.669 C121.967,120.344 121,122.998 121,125.848 C121,128.163 120.335,130.523 119.425,131.432 C116.259,134.598 109.086,139 107.093,139 C104.465,139 102.282,135.631 101.423,130.25 C101.05,127.912 100.352,126 99.872,126 C99.392,126 99,125.467 99,124.814 C99,122.944 94.836,119 92.861,119 C90.484,119 88.807,115.667 89.19,111.704 C89.489,108.611 89.653,108.503 93.922,108.599 C97.394,108.677 98.833,109.267 100.624,111.349 C103.845,115.093 105.325,114.677 108.085,109.25 C109.692,106.089 112.127,103.413 115.363,101.25 Z M106.36,52.505 C107.151,50.443 111.3,50.613 114.025,52.819 C115.974,54.397 116.286,55.644 116.385,62.236 C116.448,66.415 116.802,70.136 117.171,70.505 C117.541,70.874 119.247,70.138 120.963,68.869 C124.342,66.371 127.166,67.014 127.839,70.436 C128.806,75.357 125.387,78.513 107.882,88.861 C102.055,92.306 98,91.257 98,86.306 C98,84.217 100.601,81.77 107.362,77.5 C108.95,76.497 108.694,71.135 106.419,57.755 C106.069,55.695 106.042,53.332 106.36,52.505 Z M118.297,209.78 C112.274,215.11 105.999,223.126 106.005,225.482 C106.013,228.6 110.173,233.254 112.244,232.46 C113.196,232.094 115.599,228.467 117.582,224.399 C119.565,220.331 121.595,216.75 122.094,216.442 C122.592,216.134 123,214.81 123,213.5 C123,212.19 123.45,210.84 124,210.5 C125.437,209.612 125.235,205.994 123.75,206.03 C123.063,206.046 120.608,207.734 118.297,209.78 Z M113.012,116.469 C112.496,117.826 111.157,119.51 110.037,120.209 C107.472,121.811 107.426,123 109.928,123 C112.231,123 117.026,117.23 116.298,115.334 C115.5,113.255 114.042,113.758 113.012,116.469 Z M17.606,121.584 C17.233,122.557 17.456,123.015 18.187,122.771 C19.682,122.273 20.505,120 19.19,120 C18.653,120 17.941,120.713 17.606,121.584 Z"/>
</svg>

