<svg xmlns="http://www.w3.org/2000/svg" width="300" height="300" viewBox="0 0 300 300" version="1.1">
  <defs/>
  <path d="M122.223,24.557 C125.083,22.553 125.592,22.592 128,25 C129.679,26.679 130,28.333 130,35.3 C130,39.969 129.522,44.078 128.907,44.693 C127.729,45.871 129.292,50 130.918,50 C131.383,50 133.565,48.2 135.765,46 C137.965,43.8 140.067,42 140.435,42 C140.804,42 142.762,40.875 144.785,39.5 C149.231,36.479 153.839,36.299 157.288,39.012 C161.648,42.442 161.729,46.13 157.69,57.368 C156.473,60.756 151.621,63.991 147.75,63.996 C144.472,64.001 144.395,63.505 147.004,59.226 C149.56,55.033 149.695,49.996 147.25,50.011 C144.622,50.027 126,66.677 126,69.01 C126,70.763 124.28,76.077 121.957,81.5 C121.486,82.6 120.374,85.739 119.486,88.475 C118.597,91.212 117.524,93.912 117.099,94.475 C116.675,95.039 115.514,98.162 114.519,101.415 C113.524,104.669 112.103,108.494 111.361,109.915 C109.327,113.814 109.699,115.649 113,118 C114.65,119.175 116,120.979 116,122.009 C116,123.039 116.404,124.132 116.899,124.437 C117.393,124.743 118.53,128.286 119.426,132.311 C121.166,140.132 120.995,158.682 118.896,190 C118.362,197.975 117.926,206.525 117.929,209 C117.931,211.475 117.527,214.4 117.031,215.5 C116.534,216.6 115.377,220.65 114.46,224.5 C112.299,233.562 111.384,235.195 108.682,234.811 C106.883,234.555 106.445,233.741 106.189,230.176 C106.018,227.798 106.302,225.323 106.821,224.676 C109.886,220.853 113.013,155.646 110.929,139 C110.413,134.875 109.703,129.122 109.352,126.215 C108.967,123.029 108.273,121.074 107.606,121.295 C106.388,121.697 106.257,121.934 98.941,137 C96.137,142.775 92.479,148.921 90.814,150.659 C89.148,152.396 87.48,155.308 87.107,157.129 C86.175,161.687 81.577,162.767 70.129,161.115 C65.526,160.451 61.647,160.041 61.511,160.204 C61.375,160.367 61.001,175.067 60.68,192.871 C60.117,224.025 60.009,225.416 57.798,229.871 C55.879,233.736 54.98,234.551 52.346,234.806 C46.639,235.36 43.856,227.911 48.087,223.407 C49.873,221.507 50.275,219.403 50.872,208.843 C51.618,195.644 51.453,161.12 50.64,160.307 C48.755,158.422 42.715,164.472 36.5,174.469 C33.856,178.722 29.264,184.411 25.25,188.407 C23.463,190.186 22,192.15 22,192.77 C22,194.606 15.518,199 12.811,199 C11.435,199 9.504,198.11 8.519,197.021 C6.605,194.906 6.719,194.723 16.464,184.329 C17.584,183.134 20.75,179.102 23.5,175.367 C26.25,171.633 29.288,167.772 30.25,166.789 C31.213,165.805 32,164.325 32,163.5 C32,162.675 32.364,162 32.81,162 C33.836,162 43.727,147.27 45.569,143 C45.924,142.175 47.332,139.123 48.697,136.218 C51.062,131.184 51.162,130.213 50.839,115.516 C50.458,98.187 49.876,96.512 45.301,99.584 C43.761,100.619 41.6,101.959 40.5,102.563 C30.027,108.311 26.208,110.586 24.5,112.097 C23.4,113.071 21.375,114.343 20,114.925 C18.625,115.506 16.246,116.986 14.714,118.213 C10.934,121.24 8.5,119.762 8.5,114.441 C8.5,111.097 9.017,110.235 12.5,107.778 C14.7,106.225 19.036,103.635 22.135,102.021 C25.234,100.408 28.423,98.434 29.221,97.636 C31.087,95.77 40.675,89.771 44.27,88.22 C45.794,87.562 47.496,85.826 48.053,84.361 C49.416,80.777 48.189,70.413 45.851,65.763 C44.482,63.04 44.146,60.942 44.611,58.032 C45.377,53.242 46.93,51.747 50.69,52.178 C53.173,52.462 53.537,52.958 53.821,56.433 C53.998,58.596 54.785,61.283 55.571,62.405 C56.405,63.596 57,66.826 57,70.163 C57,77.87 58.434,78.425 63.493,72.676 C67.935,67.629 69.348,67.154 72.777,69.557 C76.623,72.25 75.565,75.17 68.097,82.476 C63.813,86.667 60.9,90.419 60.421,92.365 C59.996,94.089 59.619,102.32 59.583,110.655 C59.526,124.041 59.734,126.048 61.364,127.85 C62.856,129.499 63.085,130.811 62.556,134.695 C62.196,137.338 61.811,141.75 61.701,144.5 L61.5,149.5 L68.5,150.303 C81.254,151.766 81.465,151.749 81.827,149.193 C82.009,147.911 83.257,146.384 84.639,145.755 C86.319,144.989 88.397,141.954 91.062,136.371 C93.228,131.833 95,127.798 95,127.406 C95,127.014 96.35,123.836 98,120.344 C99.65,116.852 101,113.675 101,113.285 C101,112.546 107.45,96.153 109.26,92.289 C110.109,90.478 109.817,89.449 107.648,86.605 C106.192,84.696 105,82.709 105,82.189 C105,81.67 104.399,80.746 103.664,80.136 C102.93,79.527 101.266,76.962 99.968,74.438 C96.52,67.735 92.494,64.658 88.101,65.371 C85.634,65.771 84.058,65.458 82.796,64.315 C80.375,62.125 80.53,60.712 83.589,57.077 C85.764,54.492 86.888,54 90.615,54 C94.645,54 95.602,54.523 101.026,59.688 C104.312,62.816 107,65.966 107,66.688 C107,69.197 110.616,67.977 114.225,64.25 C117.451,60.919 117.976,59.627 118.928,52.678 C119.518,48.375 120,40.638 120,35.484 C120,26.934 120.195,25.977 122.223,24.557 Z M140.985,86.666 C142.728,85.2 144.94,84 145.902,84 C148.179,84 151.566,87.772 152.379,91.215 C152.82,93.081 153.486,93.751 154.51,93.358 C155.33,93.043 156,92.207 156,91.5 C156,88.457 164.09,88.09 167,91 C168.1,92.1 169,93.613 169,94.363 C169,95.696 162.449,102.246 156.524,106.837 C154.16,108.669 153.505,110.003 153.34,113.322 C153.226,115.62 152.865,118.85 152.538,120.5 C152.21,122.15 152.415,124.175 152.992,125 C153.869,126.254 154.545,125.886 157.118,122.75 C159.387,119.984 160.956,119 163.097,119 C166.002,119 170,121.984 170,124.152 C170,125.433 161.297,134.252 156.259,138.076 C153.415,140.235 152.94,141.283 152.381,146.63 C151.604,154.062 153.045,155.693 156.575,151.377 C157.869,149.795 158.944,148.022 158.964,147.437 C159.021,145.766 164.429,141 166.27,141 C167.183,141 168.428,141.932 169.038,143.071 C170.633,146.051 168.908,150.221 163.428,156.637 C160.908,159.586 157.377,164.136 155.58,166.749 C152.155,171.73 151.78,173.683 150.444,193.5 C150.148,197.9 149.159,203.86 148.247,206.745 C146.918,210.95 146.838,212.238 147.843,213.245 C148.759,214.162 154.946,214.553 170.799,214.698 C201.001,214.973 228.17,216.734 234.36,218.816 C238.33,220.151 239.566,221.107 240.327,223.429 C241.164,225.987 240.944,226.651 238.587,228.679 C235.239,231.558 233.551,231.579 227.938,228.812 C224.336,227.036 221.239,226.543 211.5,226.194 C189.518,225.406 152.026,225.897 148.203,227.022 C146.166,227.622 142.25,228.502 139.5,228.978 C136.75,229.454 132.709,230.305 130.52,230.868 C127.263,231.707 126.218,231.602 124.77,230.292 C120.962,226.846 124.067,219.13 129.3,219.033 C132.723,218.97 136.787,216.052 138.006,212.78 C139.424,208.975 141.881,192.458 141.952,186.25 C141.98,183.781 141.536,182 140.893,182 C140.284,182 137.526,183.8 134.763,186 C126.732,192.394 123.694,191.052 124.198,181.334 C124.507,175.365 125.081,174.775 129.003,176.401 C129.963,176.799 132.418,175.275 135.804,172.179 C140.35,168.022 141.304,166.493 142.516,161.417 C143.293,158.162 143.945,154.713 143.964,153.75 C144.016,151.227 140.751,151.551 136.405,154.5 C132.36,157.245 127.867,157.75 126.128,155.655 C124.316,153.471 123.709,148.413 124.975,146.047 C125.97,144.187 126.715,143.945 129.825,144.469 C133.203,145.039 133.856,144.726 137.913,140.591 C142.26,136.159 142.332,135.975 142.79,128.064 C143.358,118.26 142.499,117.578 135.093,121.945 C128.071,126.085 123.679,126.068 121.596,121.892 C119.548,117.787 120.856,115.437 125.692,114.53 C130.269,113.671 138,109.28 138,107.54 C138,106.841 138.9,105.126 140,103.727 C142.391,100.688 142.529,98.672 140.487,96.629 C139.654,95.797 138.713,93.815 138.395,92.224 C137.917,89.836 138.368,88.868 140.985,86.666 Z"/>
</svg>

