<svg xmlns="http://www.w3.org/2000/svg" width="300" height="300" viewBox="0 0 300 300" version="1.1">
  <defs/>
  <path d="M135.25,30.468 C139.22,28.715 143.007,29.386 144.968,32.191 C147.116,35.261 149.876,46.688 149.942,52.781 C150.02,59.927 151.861,60.528 157.324,55.194 C164.596,48.094 170.686,47.233 179.861,52.008 C188.065,56.277 190.34,60.588 190.656,72.455 C190.877,80.792 190.246,87.304 187.891,101 C187.371,104.025 186.51,110.1 185.979,114.5 C185.448,118.9 184.737,123.175 184.4,124 C182.918,127.621 180.761,138.003 180.32,143.636 C179.868,149.405 179.634,149.882 176.405,151.621 C171.935,154.028 170.329,153.022 166.717,145.548 C164.005,139.936 163.849,139.806 160.607,140.414 C157.691,140.961 156.782,140.554 153.242,137.119 C148.942,132.946 146.187,131.592 144.399,132.773 C143.794,133.173 142.056,135.525 140.536,138 C136.871,143.969 129.823,150.755 126.396,151.616 C123.153,152.429 118.681,150.296 118.18,147.697 C117.949,146.494 118.972,145.492 121.516,144.429 C125.84,142.622 128.877,139.426 133.056,132.285 C136.496,126.404 136.211,124.856 131.07,121.5 C128.711,119.96 128.005,118.766 128.003,116.309 C128.001,114.554 128.45,112.84 129,112.5 C129.55,112.16 130,109.92 130,107.522 C130,103.728 130.62,102.469 134.775,97.831 C137.401,94.899 140.798,90.813 142.325,88.75 C147.7,81.49 154.218,84.891 155.563,95.656 C156.097,99.929 155.744,103.087 154.032,109.354 C152.808,113.834 151.338,118.071 150.765,118.769 C150.017,119.68 150.231,120.598 151.525,122.027 C153.171,123.847 153.522,123.888 155.627,122.508 C159.404,120.034 160.624,120.689 164.926,127.5 C169.467,134.691 172.389,135.999 173.301,131.25 C173.591,129.738 174.498,125.35 175.317,121.5 C176.136,117.65 177.57,108.65 178.504,101.5 C179.439,94.35 180.557,86.298 180.991,83.608 C181.424,80.917 181.379,77.32 180.889,75.614 C180.4,73.909 180,71.238 180,69.68 C180,67.855 178.915,65.761 176.952,63.798 C174.31,61.156 173.381,60.82 169.979,61.276 C167.821,61.565 164.805,62.761 163.278,63.932 C158.02,67.964 146.733,75 145.523,75 C144.856,75 143.501,74.106 142.513,73.014 C141.054,71.402 140.602,68.554 140.108,57.869 C139.601,46.906 139.211,44.529 137.77,43.623 C136.338,42.723 135.196,43.367 131.134,47.368 L126.229,52.2 L126.185,64.85 C126.144,77.045 123.936,94.132 122.109,96.402 C121.623,97.006 121.004,99.3 120.735,101.5 C119.823,108.935 117.772,118.494 116.883,119.45 C116.398,119.973 116,121.858 116,123.641 C116,125.424 115.55,127.16 115,127.5 C114.45,127.84 114,129.426 114,131.025 C114,132.624 113.335,135.41 112.522,137.216 C111.71,139.022 110.315,143.133 109.422,146.35 C107.31,153.966 104.935,156.398 100.434,155.554 C98.237,155.141 96.015,155.458 94.078,156.46 C90.755,158.178 86.858,158.444 84.236,157.13 C77.473,153.742 72.589,152.011 71.856,152.744 C71.384,153.216 70.765,164.379 70.479,177.551 C70.193,190.723 69.481,205.775 68.897,211 C68.312,216.225 67.696,226.624 67.528,234.109 C67.199,248.727 66.305,252 62.639,252 C56.447,252 53.047,239.628 56.868,231 C59.624,224.775 61.061,207.33 61.117,179.427 C61.164,156.279 61.239,153.326 60.364,153.012 C60.173,152.943 59.937,153 59.645,153 C57.871,153 49.557,161.993 44.5,169.383 C42.3,172.598 38.475,177.615 36,180.532 C33.525,183.448 29.827,187.844 27.782,190.3 C22.912,196.15 17.935,197.39 14.223,193.678 C11.216,190.67 11.85,189.396 17.629,186.84 C20.033,185.776 22,184.523 22,184.054 C22,183.585 25.15,179.222 29,174.359 C32.85,169.495 36,165.028 36,164.432 C36,163.836 37.125,162.292 38.5,161 C39.875,159.708 41,158.105 41,157.438 C41,156.77 42.488,154.036 44.306,151.362 C46.124,148.688 48.223,144.925 48.971,143 C49.718,141.075 50.93,138.79 51.665,137.921 C52.399,137.053 53,135.567 53,134.62 C53,133.584 54.453,132.291 56.648,131.374 L60.297,129.849 L59.492,117.175 C59.049,110.204 58.549,101.575 58.382,98 C58.214,94.425 58.06,91.162 58.038,90.75 C57.958,89.19 55.645,90.105 52.347,93 C50.468,94.65 48.317,96 47.568,96 C46.818,96 43.545,97.32 40.294,98.933 C28.981,104.546 25.038,104.342 23.361,98.059 C22.04,93.11 23.389,91.587 29.985,90.584 C35.679,89.717 45.119,85.543 51.272,81.171 L56.045,77.78 L55.555,71.14 C55.285,67.488 54.639,61.42 54.118,57.655 C53.492,53.133 53.517,49.817 54.19,47.884 C55.459,44.246 58.299,42.554 60.848,43.919 C62.324,44.708 62.824,46.567 63.331,53.137 C63.68,57.663 64.423,61.823 64.983,62.383 C65.542,62.942 66,65.11 66,67.2 C66,72.212 68.741,72.34 72.432,67.5 C73.9,65.575 75.443,64 75.86,64 C77.513,64 79.794,66.645 80.404,69.27 C80.97,71.702 80.25,72.851 74.524,78.662 L68,85.283 L68,97.505 C68,104.227 68.417,111.926 68.927,114.615 C69.437,117.303 69.968,124.106 70.107,129.733 C70.246,135.36 70.616,140.357 70.93,140.837 C71.243,141.317 73.3,142.283 75.5,142.984 C77.7,143.685 80.625,144.818 82,145.501 C85.836,147.41 91.367,149 94.166,149 C98.83,149 99.925,146.807 106.152,125 C106.701,123.075 107.529,119.7 107.992,117.5 C108.454,115.3 109.584,110.8 110.503,107.5 C113.21,97.777 115.322,83.154 115.414,73.5 C115.499,64.632 115.463,64.495 113,64.154 C107.488,63.392 106.964,59.318 111.652,53.673 C113.958,50.898 114.661,48.99 115.22,44 C115.443,42.005 116.132,41.439 118.631,41.196 C120.353,41.028 123.238,39.573 125.043,37.961 C126.848,36.35 129.152,34.769 130.162,34.448 C131.173,34.128 132,33.424 132,32.884 C132,32.345 133.463,31.258 135.25,30.468 Z M173.5,167.698 C179.149,166.948 185.5,167.048 189.372,167.946 C193.664,168.942 200,174.422 200,177.137 C200,178.097 200.45,179.16 201,179.5 C201.55,179.84 202,183.034 202,186.599 C202,193.508 199.993,198.89 196.106,202.405 C194.948,203.453 193.998,205.028 193.996,205.905 C193.99,208.539 190.179,213.961 187.463,215.199 C186.007,215.862 185.054,217.028 185.23,217.928 C185.475,219.175 186.983,219.505 192.519,219.523 C206.239,219.569 244.542,222.225 246.777,223.286 C249.872,224.755 250.621,228.475 248.651,232.606 C246.926,236.222 244.126,237.062 242.066,234.58 C241.043,233.347 227.204,231.163 224.668,231.834 C224.211,231.955 217.608,231.339 209.996,230.465 C190.343,228.207 147.994,229.678 139.685,232.906 C138.137,233.508 134.739,234 132.135,234 C129.531,234 126.973,234.423 126.45,234.941 C124.862,236.513 101.964,245.14 100.257,244.809 C98.654,244.499 95.21,239.522 95.073,237.321 C94.959,235.481 103.784,230 106.862,230 C110.374,230 114.002,226.724 113.331,224.159 C112.536,221.117 98.969,205 97.204,205 C94.756,205 90,199.911 90,197.291 C90,195.777 90.871,194.56 92.479,193.828 C94.586,192.868 95.523,193.081 98.729,195.249 C100.803,196.652 103.496,198.095 104.714,198.456 C105.932,198.817 108.689,201.112 110.84,203.556 C112.992,206 115.182,208 115.708,208 C116.234,208 118.527,205.485 120.805,202.411 C123.082,199.337 126.645,195.503 128.723,193.891 C130.8,192.279 137.225,187.158 143,182.513 C148.775,177.867 154.457,174.051 155.628,174.033 C156.798,174.015 158.319,173.32 159.008,172.49 C160.27,170.97 167.932,168.436 173.5,167.698 Z M170.738,179.75 C169.873,180.713 168.646,184.425 168.01,188 C167.375,191.575 166.213,195.497 165.428,196.715 C164.642,197.933 164,199.613 164,200.447 C164,201.282 162.088,203.967 159.75,206.413 C152.256,214.257 150.01,221 154.892,221 C155.967,221 158.184,219.875 159.818,218.5 C161.452,217.125 163.935,216 165.335,216 C166.736,216 168.16,215.55 168.5,215 C168.84,214.45 169.943,214 170.951,214 C175.341,214 187.691,199.962 190.63,191.631 C192.631,185.96 192.334,183.694 189.195,180.687 C186.694,178.291 185.628,178 179.35,178 C173.911,178 171.952,178.398 170.738,179.75 Z M132.712,205.787 C129.02,209.507 126,213.226 126,214.053 C126,214.879 125.271,216.596 124.38,217.867 C123.068,219.741 122.98,220.66 123.915,222.712 C124.95,224.984 125.473,225.18 129.002,224.616 C134.759,223.695 137.229,222.255 139.75,218.348 C141.626,215.442 141.955,213.711 141.726,207.956 C141.575,204.159 140.995,200.595 140.438,200.038 C139.752,199.352 137.249,201.214 132.712,205.787 Z M156,185.706 C155.175,186.008 153.488,187.176 152.25,188.302 C150.37,190.012 150,191.388 150,196.674 C150,201.87 150.293,203 151.64,203 C153.861,203 155.929,200.072 155.968,196.872 C155.986,195.427 156.675,193.685 157.5,193 C158.325,192.315 159,190.235 159,188.378 C159,184.966 158.716,184.713 156,185.706 Z M140.833,106.82 C139.915,107.194 138.16,108.782 136.933,110.348 C135.095,112.692 134.948,113.354 136.1,114.083 C139.94,116.514 143.91,113.824 143.968,108.75 C144.001,105.9 143.638,105.677 140.833,106.82 Z"/>
</svg>

