<svg xmlns="http://www.w3.org/2000/svg" width="300" height="300" viewBox="0 0 300 300" version="1.1">
  <defs/>
  <path d="M51.722,53.255 C53.25,52.02 54.993,51.008 55.595,51.005 C57.827,50.995 59.685,54.692 60.87,61.5 C62.549,71.147 64.143,76.117 65.755,76.736 C66.505,77.024 68.355,76.076 69.864,74.63 C71.374,73.183 73.674,72 74.976,72 C77.681,72 81,74.617 81,76.751 C81,79.033 77.163,83.815 74.724,84.572 C73.501,84.952 71.324,86.09 69.887,87.102 L67.273,88.942 L67.708,109.721 C67.948,121.149 68.23,133.606 68.337,137.401 L68.53,144.303 L76.515,148.142 C80.907,150.254 85.371,151.985 86.436,151.991 C88.37,152 93,155.638 93,157.149 C93,157.589 91.575,158.685 89.834,159.586 C85.677,161.736 77.878,161.025 73.976,158.141 C68.469,154.069 67.54,154.921 66.238,165.236 C65.597,170.316 65.435,174.835 65.879,175.279 C66.323,175.723 66.447,189.904 66.156,206.793 C65.571,240.752 65.565,248.819 66.124,250.908 C66.331,251.682 65.266,253.032 63.759,253.908 C58.916,256.72 55.947,252.678 56.128,243.518 C56.172,241.308 56.397,222.252 56.627,201.172 C57.022,165.093 56.944,162.864 55.299,163.181 C54.337,163.366 53.049,164.523 52.436,165.752 C51.824,166.981 50.575,168.812 49.661,169.822 C48.748,170.831 48,172.03 48,172.484 C48,172.939 46.875,174.786 45.5,176.589 C44.125,178.392 43,180.377 43,181.001 C43,181.624 41.661,183.792 40.024,185.817 C34.127,193.115 30.007,198.61 25.835,204.74 C19.793,213.619 15.182,214.827 8.75,209.217 C7.788,208.377 7,206.876 7,205.88 C7,203.654 10.511,201.639 13.176,202.336 C15.471,202.936 16.936,201.545 22.5,193.484 C24.7,190.296 27.287,186.984 28.25,186.122 C29.212,185.26 30,184.05 30,183.433 C30,182.815 30.889,181.506 31.974,180.523 C33.06,179.54 34.24,177.783 34.596,176.618 C34.951,175.453 36.763,172.361 38.621,169.748 C40.479,167.134 42,164.701 42,164.342 C42,163.983 43.051,162.296 44.336,160.594 C45.621,158.892 49.108,152.55 52.086,146.5 L57.5,135.5 L57.5,117.3 C57.5,104.377 57.149,98.749 56.288,97.888 C55.001,96.601 52.606,97.951 41.21,106.386 C37.16,109.383 34.724,110.416 30.822,110.791 L25.725,111.281 L26.452,107.39 C27.33,102.694 28.307,101.391 31.566,100.573 C32.933,100.23 34.897,99.173 35.931,98.225 C36.964,97.276 39.765,95.124 42.155,93.443 C50.883,87.301 53.317,85.723 53.8,83.682 C54.02,82.753 53.834,81.728 53.654,80.132 C53.134,75.522 52.122,70.031 50.038,60.5 C48.979,55.655 49.031,55.431 51.722,53.255 Z M117.309,157.232 C119.064,156.669 121.099,156.386 121.832,156.604 C122.564,156.822 123.689,157 124.332,157 C126.838,157 131.239,164.258 132.718,170.833 C133.543,174.5 134.672,178.47 135.227,179.655 C135.782,180.84 135.98,182.224 135.667,182.73 C135.353,183.237 135.959,189.696 137.012,197.083 C138.065,204.47 138.904,215.368 138.877,221.3 C138.849,227.253 139.284,232.638 139.848,233.317 C140.41,233.994 140.72,236.112 140.537,238.024 C140.353,239.936 139.864,245.258 139.45,249.851 C138.802,257.023 138.33,258.54 136.108,260.601 C134.685,261.92 133.137,263 132.668,263 C130.959,263 119,250.132 119,248.293 C119,247.252 118.601,245.973 118.112,245.45 C116.262,243.469 115.91,240.248 117.479,239.646 C119.871,238.728 124,240.726 124,242.801 C124,243.819 125.057,245.645 126.35,246.859 C129.47,249.79 130.673,248.128 130.227,241.5 C130.042,238.75 129.578,228.661 129.195,219.081 C128.73,207.413 128.121,201.536 127.352,201.281 C126.704,201.067 122.643,208.107 118.024,217.451 C109.677,234.341 109.713,234.296 103.5,235.219 C102.002,235.442 101.434,236.393 101.236,239.008 C101.019,241.87 98.883,252.319 97.403,257.75 C97.216,258.438 95.979,259 94.654,259 C90.123,259 89.926,257.83 91.874,242.5 C92.363,238.65 93.345,225.292 94.056,212.815 C95.221,192.363 95.183,189.208 93.674,180.757 C91.571,168.983 91.567,165.136 93.655,162.829 C95.631,160.646 99.293,160.443 100.938,162.425 C101.588,163.209 102.318,166.924 102.56,170.681 C102.802,174.438 103.45,179.081 104,180.999 C104.55,182.917 105,186.177 105,188.243 C105,192.737 106.843,193.141 113,190 C118.038,187.43 119.656,187.48 121.115,190.25 C122.318,192.535 123.892,193.957 125.25,193.985 C127.781,194.036 123.754,173.325 120.625,170.197 C119.286,168.858 118.698,168.823 116.575,169.96 C115.208,170.691 113.383,172.78 112.518,174.602 C110.549,178.753 109.191,179.619 107.422,177.851 C106.309,176.738 106.234,175.187 107.038,169.982 C107.859,164.665 108.585,163.029 111.079,160.878 C112.751,159.435 115.554,157.795 117.309,157.232 Z M182.176,126.75 C183.43,124.297 186.246,124.572 189.354,127.452 C191.363,129.314 192,130.864 192,133.893 C192,136.087 192.45,138.16 193,138.5 C193.55,138.84 194,140.64 194,142.5 C194,144.36 194.389,146.123 194.865,146.417 C195.341,146.711 196.002,148.65 196.334,150.726 C196.666,152.802 197.626,157.875 198.468,162 C199.309,166.125 199.998,171.202 199.999,173.282 C199.999,175.362 200.689,178.713 201.531,180.729 C202.374,182.745 202.83,185 202.547,185.739 C202.263,186.479 202.463,192.578 202.991,199.292 C203.52,206.006 204.238,221.4 204.586,233.5 C205.694,271.978 204.894,287.126 201.272,296.25 L199.783,300 L175.33,300 L167.621,292.266 C161.532,286.157 159.974,284.003 160.206,282.016 C160.661,278.125 164.175,278.214 167.442,282.198 C168.931,284.014 171.219,286.175 172.528,287 C173.836,287.825 177.66,290.235 181.026,292.356 L187.145,296.212 L189.544,293.959 C194.433,289.366 196.331,275.142 195.542,249 C195.236,238.825 194.744,222.214 194.451,212.087 C194.157,201.96 193.675,193.283 193.38,192.806 C193.085,192.328 192.435,187.564 191.936,182.219 C191.038,172.588 189.69,165.288 187.741,159.5 C187.185,157.85 186.361,154.25 185.91,151.5 C184.283,141.58 183.691,139.463 181.901,137.168 C180.057,134.803 180.166,130.683 182.176,126.75 Z M125.655,37.829 C129.117,34.003 136.639,37.045 135.656,41.874 C133.92,50.399 133.338,52.141 129.853,59.236 C129.384,60.191 129,62.077 129,63.427 C129,64.777 128.583,66.14 128.073,66.455 C127.563,66.77 126.61,68.709 125.955,70.764 C125.3,72.819 124.175,75.85 123.455,77.5 C122.736,79.15 121.037,83.65 119.681,87.5 C116.598,96.252 113.876,102 112.815,102 C112.367,102 112,102.831 112,103.846 C112,108.758 101.162,122 97.142,122 C94.824,122 90,117.615 90,115.509 C90,114.018 92.665,111.741 96.141,110.264 C98.477,109.272 102,104.197 102,101.826 C102,101.35 103.042,99.282 104.315,97.23 C105.588,95.179 107.883,90.35 109.415,86.5 C110.946,82.65 112.605,78.719 113.1,77.764 C113.595,76.809 114,75.542 114,74.949 C114,74.357 115.125,71.412 116.5,68.406 C117.875,65.4 119.003,62.167 119.006,61.22 C119.01,60.274 119.685,58.211 120.506,56.636 C121.328,55.06 122,52.724 122,51.445 C122,50.165 122.45,48.84 123,48.5 C123.55,48.16 124,46.031 124,43.77 C124,41.347 124.68,38.906 125.655,37.829 Z M134.25,67.491 C136.037,66.714 138.175,66.063 139,66.045 C142.444,65.969 160.226,69.051 167.34,70.957 C173.316,72.559 176.552,72.87 181.983,72.365 C190.066,71.614 192.008,72.586 191.985,77.372 C191.966,81.218 191.354,82.154 187.331,84.493 C184.262,86.277 184.073,86.278 181.38,84.513 C179.375,83.199 176.351,82.626 170.549,82.458 C165.026,82.299 160.061,81.406 154.729,79.613 C150.455,78.176 145.194,77 143.038,77 C140.882,77 138.84,76.55 138.5,76 C138.16,75.45 136.874,75 135.641,75 C130.322,75 129.328,69.63 134.25,67.491 Z M150.918,153.051 C152.725,151.934 156.657,152.963 158.542,155.047 C159.456,156.057 160.57,159.497 161.018,162.692 C161.465,165.886 162.353,170.3 162.99,172.5 C163.628,174.7 164.751,183.925 165.485,193 C166.959,211.2 166.29,218.239 162.915,220.046 C160.747,221.206 157.033,219.755 156.951,217.715 C156.924,217.047 156.74,209.975 156.542,202 C156.207,188.483 154.29,175.279 152.057,171.107 C150.429,168.064 149.535,153.905 150.918,153.051 Z M147.5,101.175 C150.304,99.613 152.054,99.739 154.171,101.655 C157.16,104.36 156.456,107.618 152.268,110.464 C150.215,111.859 148.006,113 147.36,113 C146.713,113 143.78,114.937 140.842,117.304 C137.904,119.671 133.7,122.666 131.5,123.961 C129.3,125.255 126.15,127.557 124.5,129.076 C120.901,132.388 112.409,137 109.908,137 C107.701,137 105,133.332 105,130.334 C105,128.162 108.314,125 110.59,125 C111.89,125 124.431,116.806 127.564,113.909 C128.7,112.859 130.22,112 130.942,112 C131.664,112 135.235,109.815 138.878,107.144 C142.52,104.474 146.4,101.787 147.5,101.175 Z M103.667,202.667 C102.685,203.649 102.854,222 103.845,222 C105.115,222 107.191,219.25 111.818,211.44 C117.389,202.034 117.328,200.784 111.402,203.037 C109.518,203.753 108.353,203.753 107.637,203.037 C106.455,201.855 104.647,201.686 103.667,202.667 Z"/>
</svg>

