<svg xmlns="http://www.w3.org/2000/svg" width="300" height="300" viewBox="0 0 300 300" version="1.1">
  <defs/>
  <path d="M131.888,64.516 C135.088,57.707 140,58.692 140,66.143 C140,69.847 136.641,77 134.901,77 C133.235,77 133.981,81.673 135.929,83.436 C137.438,84.801 137.963,86.959 138.341,93.341 C138.607,97.828 139.296,108.475 139.872,117 C140.448,125.525 141.182,142.85 141.503,155.5 C141.824,168.15 142.542,182.775 143.1,188 C145.175,207.447 145.293,210.879 143.995,214.011 C142.381,217.907 139.692,219.441 137,218 C134.789,216.817 134.339,213.061 136.187,211.213 C137.337,210.063 137.045,205.17 134.339,180.25 C133.709,174.442 132.065,173.445 129.522,177.326 C128.683,178.606 124.961,182.088 121.249,185.064 C117.537,188.039 114.275,190.725 114,191.032 C113.121,192.012 105.73,196.243 98.019,200.18 C89.367,204.598 84.858,205.064 82.557,201.777 C79.344,197.191 81.975,192.396 87.088,193.519 C89.302,194.005 91.805,193.121 98.419,189.516 C103.088,186.97 108.329,183.561 110.066,181.938 L113.223,178.989 L112.58,154.244 C111.794,124.028 110.776,106.927 109.66,105.2 C109.198,104.485 108.519,101.785 108.151,99.2 C107.588,95.247 107.104,94.446 105.104,94.163 C103.796,93.977 102.45,94.237 102.113,94.741 C101.196,96.111 94.949,99 92.903,99 C90.731,99 88,95.343 88,92.432 C88,89.637 90.593,87.404 96.05,85.5 C100.502,83.946 101.566,83.476 116.5,76.449 C127.408,71.316 129.427,69.751 131.888,64.516 Z M51.338,57.562 C52.052,55.701 56.557,55.475 57.652,57.246 C58.668,58.89 59.994,66.716 60.827,75.99 C61.366,81.991 61.846,83.547 63.241,83.812 C64.375,84.028 65.723,82.888 67.105,80.546 C71.627,72.882 76.947,73.831 75.117,81.975 C74.584,84.349 73.777,86.563 73.324,86.895 C72.871,87.228 70.362,89.843 67.75,92.707 L63,97.914 L63,120.492 C63,139.761 63.241,143.438 64.645,145.581 C66.006,147.658 66.077,148.488 65.056,150.396 C62.896,154.431 64.064,156.978 69,159.003 C71.475,160.018 75.096,161.111 77.046,161.432 C81.162,162.108 87.676,167.098 86.637,168.779 C86.149,169.568 82.921,169.729 76,169.307 C69.566,168.915 65.612,169.077 64.782,169.766 C63.784,170.594 63.543,177.334 63.696,200.165 C63.803,216.299 64.088,232.875 64.329,237 C64.668,242.796 64.418,244.898 63.229,246.25 C61.152,248.612 59.341,248.452 57.578,245.75 C56.381,243.915 56.021,236.859 55.627,207.5 C55.362,187.7 55.112,171.387 55.072,171.25 C55.032,171.113 54.378,171 53.619,171 C52.859,171 50.986,172.688 49.456,174.75 C47.926,176.813 45.396,179.546 43.834,180.825 C42.272,182.103 38.888,186.153 36.312,189.825 C29.266,199.87 23.133,206.88 19.95,208.526 C17.309,209.891 13,210.546 13,209.582 C13,209.352 12.745,208.498 12.433,207.685 C12.106,206.834 13.178,204.785 14.961,202.853 C16.664,201.009 18.646,198.825 19.366,198 C21.767,195.25 28.669,185.539 30.384,182.5 C31.315,180.85 33.409,177.7 35.037,175.5 C41.166,167.221 51.405,150.334 52.923,146 C54.215,142.314 54.401,138.47 53.951,124.751 C53.642,115.304 52.951,107.551 52.367,106.967 C51.652,106.252 49.52,107.336 45.49,110.465 C42.278,112.959 39.109,115 38.448,115 C37.786,115 36.666,115.697 35.959,116.55 C34.269,118.586 26.655,122.02 22.24,122.736 C19.343,123.206 18.419,122.889 16.891,120.902 C14.088,117.257 14.444,114.162 17.75,113.426 C23.427,112.163 24.551,111.726 26.5,110.024 C27.6,109.063 29.953,107.791 31.728,107.198 C33.504,106.605 35.529,105.63 36.228,105.033 C37.744,103.739 46.087,98.148 49.838,95.914 C52.363,94.41 52.493,93.945 52.362,86.914 C52.285,82.836 51.889,74.915 51.481,69.312 C51.073,63.708 51.008,58.421 51.338,57.562 Z M185.5,71.998 C191.097,67.534 192.024,67.314 195.535,69.615 C199.279,72.068 198.682,75.685 193.143,84.111 C190.472,88.175 187.675,93.3 186.927,95.5 C186.179,97.7 184.989,100.388 184.283,101.473 C182.673,103.947 182.635,106.656 184.197,107.621 C184.855,108.028 189.611,108.249 194.766,108.111 C205.312,107.83 207.736,108.761 210.408,114.117 C212.178,117.663 212.554,125.54 211,126.5 C210.45,126.84 210,128.01 210,129.101 C210,130.192 209.557,131.628 209.015,132.292 C208.473,132.956 206.845,134.979 205.396,136.786 C202.526,140.365 198.199,143 195.189,143 C194.139,143 191.589,141.853 189.522,140.451 C187.456,139.048 185.648,138.036 185.505,138.201 C185.362,138.365 185.662,148.625 186.173,161 C187.198,185.868 187.225,189.776 186.567,218 C186.316,228.725 186.086,251.563 186.056,268.75 L186,300 L178.096,300 L178.075,236.137 C178.062,194.904 177.69,171.316 177.027,169.572 C176.462,168.086 175.98,164.087 175.956,160.685 C175.932,157.283 175.264,152.7 174.471,150.5 C173.679,148.3 173.023,143.714 173.015,140.309 C173.007,136.904 172.55,133.84 172,133.5 C170.58,132.622 170.747,120.653 172.2,119.2 C172.86,118.54 174.187,118 175.148,118 C176.993,118 181.043,121.358 182.585,124.166 C184.334,127.349 191.22,132 194.185,132 C201.002,132 204.798,120.977 199.648,116.139 C197.481,114.104 196.664,113.981 189.322,114.594 C181.44,115.251 181.323,115.226 179.144,112.456 C177.212,110 177.02,108.903 177.591,103.577 C177.95,100.235 178.638,97.072 179.121,96.55 C180.463,95.099 180.174,90 178.75,89.997 C178.063,89.995 172.917,91.875 167.315,94.173 C156.108,98.772 154.739,98.643 153.47,92.864 C152.518,88.527 154.928,86.459 163.079,84.618 C170.101,83.033 175.41,80.044 185.5,71.998 Z M121.077,86.589 C118.197,89.012 118.003,89.604 118.044,95.839 C118.068,99.503 118.532,104.525 119.076,107 C119.62,109.475 120.334,113.412 120.662,115.75 C121.339,120.563 122.408,120.939 127.172,118.041 L130.393,116.083 L130.164,106.291 C129.972,98.022 129.114,91.482 127.405,85.25 C126.862,83.267 124.408,83.786 121.077,86.589 Z M124.75,156.553 C121.057,158.992 121,159.127 121,165.515 C121,171.295 121.214,172 122.965,172 C124.045,172 125.411,171.1 126,170 C126.589,168.9 127.674,168 128.413,168 C130.713,168 131.785,165.704 132.149,160 C132.461,155.104 132.28,154.477 130.5,154.288 C129.4,154.172 126.813,155.191 124.75,156.553 Z M125.25,132.82 C121.511,136.106 121,137.062 121,140.777 C121,144.352 121.311,145 123.027,145 C124.141,145 126.616,143.578 128.527,141.839 C131.577,139.063 132,138.09 132,133.839 C132,127.93 130.988,127.777 125.25,132.82 Z M33.25,108.706 C30.273,109.279 30.315,112 33.3,112 C35.575,112 38,110.349 38,108.8 C38,107.976 37.129,107.959 33.25,108.706 Z"/>
</svg>

