<svg xmlns="http://www.w3.org/2000/svg" width="300" height="300" viewBox="0 0 300 300" version="1.1">
  <defs/>
  <path d="M165.5,146.57 C175.937,143.666 182.689,145.027 185.33,150.566 C188.825,157.895 186.435,200.585 182.017,209.728 C180.908,212.024 180,215.024 180,216.393 C180,217.762 179.55,219.16 179,219.5 C178.45,219.84 178,221.022 178,222.126 C178,223.23 176.875,225.608 175.5,227.411 C171.046,233.251 171.441,233.468 187.102,233.788 C196.474,233.979 201.658,233.699 202.558,232.952 C203.328,232.313 204.47,232.183 205.206,232.652 C205.918,233.105 209.309,233.521 212.742,233.576 C217.268,233.648 219.535,234.174 220.992,235.492 C223.683,237.928 223.524,239.429 220.25,242.492 C218.03,244.569 216.825,244.961 214,244.525 C210.096,243.921 173.977,242.823 158.5,242.837 C151.607,242.843 146.042,243.491 140.59,244.923 C136.24,246.065 131.439,247 129.921,247 C128.404,247 125.81,247.776 124.158,248.724 C121.288,250.371 121.06,250.364 119.077,248.569 C116.644,246.367 116.369,242.768 118.5,241 C120.593,239.263 120.405,238.738 116.994,236.797 C114.717,235.501 114,234.378 114,232.106 C114,230.462 113.55,228.84 113,228.5 C112.45,228.16 112,225.71 112,223.055 C112,220.401 111.328,216.94 110.506,215.364 C109.685,213.789 109.01,211.33 109.006,209.899 C109,207.394 107.754,202.68 105.992,198.5 C105.529,197.4 103.925,192.45 102.428,187.5 C100.931,182.55 98.847,177.544 97.797,176.375 C96.312,174.723 95.955,173.054 96.193,168.875 C96.477,163.905 96.698,163.477 99.134,163.195 C102.101,162.851 106,166.846 106,170.23 C106,171.309 106.804,173.386 107.786,174.846 C109.835,177.891 111.344,181.207 112.634,185.5 C113.361,187.918 114.163,188.561 116.768,188.813 C120.408,189.166 120.699,190.003 118.402,193.51 C116.687,196.127 116.839,200.697 118.983,211 C119.613,214.025 120.547,218.525 121.058,221 C121.57,223.475 122.058,228.313 122.144,231.75 C122.288,237.553 122.463,238 124.591,238 C125.851,238 127.126,237.605 127.424,237.123 C127.722,236.641 129.955,235.745 132.386,235.133 C140.222,233.16 144.149,225.789 145.375,210.75 C145.851,204.899 145.703,204 144.26,204 C143.344,204 141.19,205.362 139.473,207.026 C137.121,209.306 135.079,210.203 131.196,210.663 C125.534,211.334 124.169,210.173 125.42,205.748 C126.037,203.563 135.179,196.188 141.414,192.845 C144.473,191.204 144.5,191.12 144.5,183.059 C144.5,178.015 144.936,174.656 145.649,174.214 C146.281,173.821 146.956,172.421 147.149,171.102 C147.342,169.783 148.315,168.208 149.311,167.602 C150.802,166.694 151.561,167.005 153.614,169.368 C155.601,171.654 155.971,172.872 155.438,175.368 C155.07,177.091 154.297,179.085 153.72,179.8 C152.963,180.739 153.126,181.554 154.305,182.733 C155.815,184.243 156.309,184.052 160.898,180.183 C167.724,174.427 170.885,174.708 172.518,181.216 C173.09,183.496 172.592,184.483 169.349,187.494 C167.232,189.459 163.633,191.906 161.352,192.932 C156.689,195.029 156.107,196.467 155.625,207.083 C155.464,210.618 154.808,214.491 154.166,215.689 C153.525,216.888 153,220.168 153,222.98 L153,228.091 L156.693,227.398 C161.184,226.555 166.705,223.419 168.019,220.964 C170.493,216.342 173.838,204.898 174.38,199.204 C174.709,195.741 175.434,192.058 175.989,191.02 C176.545,189.981 177,182.655 177,174.74 C177,160.961 176.901,160.255 174.669,158.159 C172.438,156.063 172.154,156.034 168.043,157.485 C165.681,158.318 162.729,159 161.483,159 C160.237,159 155.17,160.999 150.224,163.443 C142.923,167.05 140.157,169.1 135.528,174.34 C131.569,178.822 128.459,181.317 125.352,182.503 C120.305,184.431 119.191,184.01 120.712,180.748 C121.289,179.512 122.521,176.67 123.449,174.434 C124.595,171.675 127.608,168.282 132.819,163.882 C140.872,157.082 155.634,148.014 158.703,147.981 C159.692,147.97 162.75,147.335 165.5,146.57 Z M56.56,46.332 C57.562,45.599 58.971,45 59.691,45 C61.312,45 64.969,48.557 65.088,50.25 C65.137,50.938 65.373,53.975 65.612,57 C65.852,60.025 66.211,64.975 66.41,68 C66.609,71.025 66.824,74.094 66.886,74.82 C67.107,77.382 71.328,75.521 73.283,72 C76.358,66.461 78.667,65.667 82,69 C83.1,70.1 84,71.828 84,72.841 C84,73.853 80.897,77.803 77.106,81.617 C70.448,88.314 70.19,88.758 69.607,94.526 C69.275,97.812 69.045,102.075 69.095,104 C69.145,105.925 69.257,115.757 69.343,125.849 L69.5,144.199 L73,146.005 C74.925,146.998 78.188,148.521 80.25,149.389 C86.244,151.912 84.487,157.947 78.129,156.676 C76.553,156.361 73.969,156.449 72.387,156.872 C68.422,157.932 68.238,158.957 66.519,189.5 C66.178,195.55 65.712,202.3 65.482,204.5 C63.892,219.711 63.474,228.48 64.028,235 C64.527,240.883 64.344,242.877 63.177,244.25 C61.406,246.334 56.707,246.557 55.11,244.632 C53.426,242.603 53.206,229.838 54.705,221.131 C56.991,207.855 60.178,161.662 59.181,156.25 C58.953,155.012 58.22,154 57.551,154 C56.267,154 50,161.266 50,162.754 C50,164.195 46.105,171.794 45.179,172.16 C44.359,172.484 41.623,176.224 32.588,189.374 C30.368,192.604 27.528,195.918 26.276,196.739 C25.024,197.559 24,198.934 24,199.794 C24,202.113 17.716,207.445 13.434,208.759 C9.309,210.025 6.715,209.204 5.058,206.109 C3.776,203.713 4.592,203 8.615,203 C11.574,203 12.514,202.163 18.198,194.469 C21.664,189.777 25.416,184.228 26.534,182.138 C27.653,180.047 29.6,177.023 30.86,175.418 C34.615,170.636 42,158.792 42,157.552 C42,156.918 42.398,155.973 42.884,155.45 C43.371,154.928 45.439,151.35 47.481,147.5 C49.523,143.65 52.063,139.557 53.126,138.405 C58.564,132.508 59.369,129.382 59.619,113.191 C59.815,100.453 59.606,97.786 58.376,97.314 C57.563,97.002 55.909,97.648 54.699,98.75 C48.557,104.344 33.616,110.218 29.523,108.647 C25.43,107.077 29.744,100.549 37,97.333 C38.925,96.48 42.37,94.525 44.656,92.988 C46.942,91.452 49.675,89.92 50.73,89.586 C51.785,89.251 53.779,87.745 55.161,86.238 C57.533,83.653 57.631,83.108 56.912,76.5 C56.493,72.65 55.631,66.8 54.997,63.5 C53.487,55.645 54.176,48.075 56.56,46.332 Z M170.554,56.718 C175.472,55.443 183.3,58.746 185.516,63.032 C187.942,67.723 186.98,79.266 183.603,86 C182.913,87.375 181.74,90.525 180.997,93 C180.253,95.475 179.05,98.21 178.322,99.079 C177.578,99.968 177,103.059 177,106.154 C177,110.692 176.573,112.052 174.555,113.948 C171.138,117.159 167.64,116.051 161.729,109.885 C156.75,104.692 155,104.374 155,108.665 C155,110.959 153.082,114.089 148.475,119.311 C144.679,123.614 141.519,118.764 144.439,113.117 C145.298,111.457 146,108.529 146,106.609 C146,104.689 146.402,102.869 146.894,102.565 C147.386,102.261 148.044,100.322 148.355,98.256 C148.667,96.19 149.299,91.925 149.761,88.778 C150.328,84.903 151.391,82.208 153.05,80.431 L155.5,77.807 L152.038,74.903 C150.134,73.306 148.193,72 147.724,72 C147.256,72 147.014,70.564 147.187,68.808 C147.484,65.776 147.826,65.533 154,63.98 C157.575,63.08 162.324,61.192 164.554,59.783 C166.784,58.374 169.484,56.995 170.554,56.718 Z M126.455,43.081 C130.771,37.684 131.738,36.966 133.955,37.509 C135.355,37.851 137.14,38.758 137.921,39.523 C141.103,42.637 134.874,54.363 125.826,62.29 C116.931,70.084 114.008,73.522 113.32,77 C112.204,82.632 112.468,90.301 113.894,93.745 C114.622,95.502 115.731,99.506 116.359,102.643 C116.986,105.779 118.007,108.512 118.626,108.715 C120.753,109.412 124.139,101.922 124.346,96.066 C124.598,88.899 126.201,86 129.913,86 C131.476,86 133.24,86.584 133.832,87.297 C135.081,88.802 136.541,96.625 138.03,109.789 C139.02,118.544 138.959,119.249 136.972,122.039 C134.32,125.764 133.005,125.757 129.658,122 C128.187,120.35 126.561,119 126.043,119 C125.525,119 123.9,120.575 122.432,122.5 C120.964,124.425 119.219,126 118.556,126 C117.892,126 116.292,127.125 115,128.5 C112.026,131.665 110.653,131.646 108.101,128.401 C106.376,126.209 106.154,124.918 106.678,120.151 C107.795,109.982 107.115,103.883 104.212,98.057 C101.863,93.341 101.52,91.506 101.647,84.341 C101.816,74.845 102.603,73.147 112.443,61.057 C115.774,56.963 119.175,52.637 120,51.444 C120.825,50.252 123.73,46.488 126.455,43.081 Z M168.144,68.327 C165.952,70.967 163.979,77.07 164.564,79.399 C164.893,80.71 164.676,82.082 164.081,82.45 C163.486,82.817 163,84.64 163,86.5 C163,88.36 162.55,90.16 162,90.5 C161.45,90.84 161,93.131 161,95.59 C161,100.515 162.838,102.209 165.649,99.877 C167.908,98.002 172,91.348 172,89.55 C172,88.731 172.828,86.585 173.84,84.78 C174.852,82.976 175.999,79.085 176.39,76.134 C176.964,71.792 176.774,70.408 175.395,68.884 C173.415,66.696 169.732,66.413 168.144,68.327 Z M150.388,230.431 C149.551,232.614 150.455,233.404 152.488,232.267 C153.964,231.441 153.973,231.222 152.575,230.062 C151.287,228.993 150.916,229.056 150.388,230.431 Z"/>
</svg>

