<svg xmlns="http://www.w3.org/2000/svg" width="300" height="300" viewBox="0 0 300 300" version="1.1">
  <defs/>
  <path d="M81.75,71.08 C84.153,69.681 84.374,69.72 87.365,72.073 C89.879,74.05 90,74.579 90,83.573 C90,94.858 90.67,95.26 98.02,88.384 C104.043,82.751 106,83.006 106,89.426 C106,93.347 105.563,94.264 102.541,96.675 C100.639,98.193 97.376,100.389 95.291,101.556 C90.628,104.165 90.273,105.574 90.118,122.115 C90.013,133.322 90.223,135.014 92,137.273 C94.486,140.434 94.487,141.153 92.004,145.226 C89.703,149 89.452,151 91.279,151 C95.574,151 119.082,164.148 125.75,170.28 C128.363,172.682 128.692,175.797 126.425,176.667 C124.684,177.335 116.179,173.807 111.5,170.476 C107.509,167.635 94.095,161 92.341,161 C89.892,161 89.285,165.064 88.607,186 C88.242,197.275 87.5,211.225 86.959,217 C86.418,222.775 85.644,231.145 85.238,235.599 C84.387,244.94 83.025,247.234 78.585,246.801 L75.5,246.5 L75.2,239.579 C74.966,234.153 75.381,231.561 77.122,227.579 C79.886,221.26 81.218,207.717 81.383,184.262 C81.48,170.491 81.229,166.918 80.132,166.497 C78.676,165.938 75.422,169.094 74.519,171.941 C74.221,172.878 72.183,174.653 69.989,175.886 C67.795,177.119 66,178.729 66,179.463 C66,182.81 43.797,210.916 38.63,214.11 C34.703,216.538 27.679,216.355 27.197,213.812 C27.019,212.874 28.314,210.876 30.111,209.312 C39.566,201.09 50.495,187.587 59.31,173.238 C62.44,168.144 65,163.743 65,163.457 C65,163.171 67.435,159.689 70.412,155.718 C80.397,142.402 81,140.67 81,125.32 C81,115.026 80.689,111.818 79.654,111.421 C78.913,111.137 74.301,112.66 69.404,114.806 C64.507,116.953 58.025,119.284 55,119.987 C51.975,120.689 48.725,121.664 47.777,122.153 C46.829,122.642 43.754,123.478 40.943,124.011 C34.282,125.274 32,124.129 32,119.522 C32,114.899 34.91,112.889 40.495,113.654 C43.712,114.095 47.082,113.4 55.254,110.607 C67.38,106.464 77.953,101.679 79.15,99.792 C79.601,99.081 79.976,92.56 79.985,85.3 C79.998,73.793 80.225,71.969 81.75,71.08 Z M198,140.088 C200.782,137.838 207.141,137.343 211.579,139.03 C213.069,139.596 216.023,141.434 218.144,143.114 C222.748,146.76 223.168,150.122 219.727,155.77 C218.477,157.821 216.808,160.771 216.018,162.325 C215.228,163.878 210.853,168.603 206.296,172.825 C201.739,177.046 198.018,180.95 198.027,181.5 C198.037,182.05 198.924,183.625 200,185 C202.529,188.233 202.577,194.637 200.11,199.655 C199.07,201.77 197.158,205.662 195.86,208.305 C194.562,210.948 192.713,213.967 191.75,215.013 C190.787,216.06 190,217.301 190,217.771 C190,218.241 188.636,219.933 186.969,221.53 C185.301,223.128 184.064,224.953 184.219,225.586 C184.373,226.22 187.425,228.973 191,231.704 C198.547,237.469 201.066,241.083 199.393,243.741 C197.405,246.898 195.078,246.237 188.74,240.714 C178.795,232.05 176.612,231.417 170.641,235.469 C168.64,236.827 166.327,237.679 165.501,237.362 C163.388,236.551 163.636,233.639 166,231.5 C167.1,230.505 168,229.294 168,228.809 C168,227.562 160.382,224.453 153.612,222.938 C147.232,221.51 144.165,218.711 146.241,216.21 C148.144,213.916 160.186,215.53 167.643,219.078 C171.022,220.685 174.429,222 175.215,222 C176.002,222 177.773,220.313 179.151,218.25 C191.324,200.04 191.515,199.644 192.421,190.806 C192.981,185.338 192.895,185.058 190.252,183.764 C187.75,182.539 187.523,181.978 187.754,177.592 C187.894,174.938 187.331,170.488 186.504,167.702 C185.677,164.916 185,161.546 185,160.213 C185,158.88 183.875,156.452 182.5,154.817 C177.636,149.037 178.159,143.303 183.512,143.705 C185.014,143.818 187.071,144.659 188.083,145.576 C189.813,147.141 190.092,147.087 192.712,144.676 C194.245,143.265 196.625,141.2 198,140.088 Z M147.701,153.25 C151.421,149.547 152.533,149 156.35,149 C161.253,149 165.546,151.675 167.068,155.679 C168.783,160.19 164.308,173.366 158.977,179.5 C156.877,181.916 155.258,186.852 154.466,193.247 C154.061,196.517 153.275,198.318 151.939,199.033 C150.873,199.603 150,200.738 150,201.555 C150,202.372 148.941,204.718 147.646,206.77 C146.351,208.821 144.964,211.534 144.564,212.797 C143.726,215.44 134.921,226.304 130.623,230 C121.042,238.238 112.239,241.183 109.954,236.914 C109.34,235.767 108.987,234.715 109.169,234.576 C109.351,234.437 111.525,233.347 114,232.154 C119.674,229.419 124.204,225.294 130.845,216.815 C136.507,209.586 143,197.959 143,195.05 C143,194.057 142.349,192.704 141.553,192.044 C140.174,190.899 138.737,187.374 136.035,178.5 C135.365,176.3 133.414,171.734 131.701,168.353 C129.05,163.123 128.783,161.966 129.915,160.603 C131.626,158.541 133.466,158.579 137.205,160.75 C140.18,162.478 140.239,162.468 141.825,160 C142.708,158.625 145.352,155.588 147.701,153.25 Z M174.2,20.2 C176.062,18.338 178.731,18.778 180.447,21.228 C182.268,23.828 181.664,32.071 179.385,35.715 C178.623,36.933 178,38.627 178,39.478 C178,40.33 177.55,41.921 177,43.014 C176.45,44.106 175.55,45.894 175,46.986 C174.45,48.079 174,49.506 174,50.158 C174,50.809 173.372,52.053 172.604,52.921 C171.837,53.79 170.522,56.549 169.683,59.053 C168.844,61.557 166.772,66.631 165.079,70.328 C163.385,74.025 162,77.289 162,77.58 C162,78.325 158.809,85.41 149.652,105 C148.238,108.025 146,112.525 144.678,115 C143.356,117.475 141.808,120.625 141.239,122 C134.838,137.46 124.59,152 120.094,152 C116.57,152 114.33,146.578 117.372,145.411 C119.577,144.565 124.986,136.455 131.04,124.921 C131.739,123.59 132.697,121.825 133.17,121 C133.642,120.175 134.501,118.306 135.078,116.848 C135.655,115.389 137.899,110.732 140.064,106.498 C142.229,102.265 144,97.534 144,95.986 C144,94.437 145.723,89.869 147.828,85.835 C149.934,81.801 152.229,76.925 152.929,75 C155.095,69.044 155.679,67.669 158.381,62.158 C159.821,59.219 161,56.218 161,55.489 C161,54.759 161.633,52.888 162.407,51.331 C163.182,49.774 164.359,47.15 165.024,45.5 C165.689,43.85 166.631,41.719 167.117,40.764 C167.603,39.809 168,37.951 168,36.636 C168,35.321 168.675,33.685 169.5,33 C170.325,32.315 171,30.937 171,29.937 C171,28.936 171.45,27.84 172,27.5 C172.55,27.16 173,25.649 173,24.141 C173,22.633 173.54,20.86 174.2,20.2 Z M203.784,205.137 C204.54,202.888 213.444,204.678 220.877,208.575 C232.867,214.86 270.973,239.46 279.5,246.419 C286.75,252.336 287.574,253.184 289.255,256.458 C290.607,259.091 290.609,259.667 289.272,261.708 C288.446,262.969 287.178,264 286.454,264 C283.476,264 276.369,258.604 269.5,251.129 C263.727,244.847 238.352,227.813 222,219.243 C202.844,209.204 202.505,208.941 203.784,205.137 Z M173.25,77.125 C174.67,75.677 181.06,76.336 184.583,78.295 C185.776,78.958 190.295,81.354 194.626,83.621 C198.957,85.887 207.304,90.612 213.176,94.121 C219.047,97.629 227.066,102.3 230.994,104.5 C239.645,109.345 241.25,111.57 237.994,114.206 C236.533,115.389 234.967,115.812 233.611,115.39 C230.565,114.444 212.994,105.179 202.5,98.987 C189.897,91.55 178.096,85 177.301,85 C176.152,85 172,80.712 172,79.526 C172,78.907 172.563,77.826 173.25,77.125 Z M175,108.157 C181.901,103.712 185.503,103.18 187.399,106.327 C188.333,107.877 187.747,108.841 183.522,112.695 C176.289,119.295 163.024,125.458 156,125.482 C151.012,125.498 150.47,125.285 150.173,123.195 C149.749,120.206 151.632,118 154.607,118 C157.508,118 166.33,113.742 175,108.157 Z M197.38,153.571 C193.145,157.991 191.924,161.217 194,162.5 C194.55,162.84 195,163.991 195,165.059 C195,167.69 196.193,167.523 203.664,163.844 C210.634,160.413 210.906,160.148 212.694,155.045 C214.34,150.351 213.013,149 206.758,149 C202.128,149 201.437,149.337 197.38,153.571 Z M152.174,162.314 C150.978,163.587 150,165.137 150,165.757 C150,166.378 149.081,168.444 147.957,170.348 C145.649,174.259 146.13,179.32 148.76,178.8 C150.575,178.442 159.341,162.361 158.481,160.97 C157.436,159.278 154.424,159.92 152.174,162.314 Z"/>
</svg>

