<svg xmlns="http://www.w3.org/2000/svg" width="300" height="300" viewBox="0 0 300 300" version="1.1">
  <defs/>
  <path d="M160,13.978 C162.066,12.673 162.469,12.747 164.219,14.75 C166.049,16.845 167.605,21.775 168.48,28.25 C168.983,31.967 169.524,33 170.966,33 C172.884,33 177.614,26.063 179.489,20.5 C181.2,15.424 186.981,16.359 190.117,22.219 C191.448,24.706 187.766,30.119 179.454,37.894 L172.618,44.289 L172.76,62.202 C172.838,72.054 173.179,80.988 173.517,82.055 C173.856,83.122 175.341,84.242 176.817,84.543 C185.269,86.269 187.48,87.396 192.67,92.627 C198.554,98.559 198.841,100.237 194.739,104.72 C192.774,106.868 192.613,106.885 189.811,105.229 C188.218,104.288 186.263,102.525 185.468,101.311 C184.212,99.394 176.2,95 173.962,95 C173.531,95 173.25,102.234 173.339,111.075 L173.5,127.149 L176.5,126.535 C186.482,124.492 187.578,124.599 189.884,127.837 L192.069,130.906 L189.835,133.475 C188.607,134.887 185.615,137.208 183.187,138.63 C179.47,140.809 178.384,141.04 176.311,140.096 C173.117,138.641 172,139.423 172,143.116 C172,149.486 169.683,159.977 167.925,161.568 C164.423,164.737 157,160.86 157,155.861 C157,154.929 158.114,153.342 159.477,152.333 C162.543,150.063 163.48,143.781 160.834,143.232 C159.918,143.041 155.046,145.274 150.009,148.193 C138.862,154.651 136.925,155.722 135,156.485 C131.18,157.999 123.536,162.828 122.956,164.093 C122.601,164.867 121.791,166.506 121.155,167.736 C120.52,168.966 120,170.576 120,171.312 C120,172.049 118.911,173.674 117.581,174.924 C116.25,176.174 114.176,179.515 112.97,182.348 C108.307,193.313 105.899,198.202 102.021,204.585 C99.81,208.226 98,211.426 98,211.698 C98,211.969 97.164,213.386 96.142,214.846 C95.12,216.306 92.798,220.192 90.982,223.483 C89.166,226.774 85.727,232.261 83.34,235.676 C80.953,239.091 79,242.366 79,242.953 C79,244.38 68.833,260.348 64.331,265.994 C59.723,271.771 54.562,275.313 51.956,274.486 C49.684,273.765 45,267.325 45,264.923 C45,264.036 45.862,262.53 46.915,261.577 C48.734,259.931 48.969,259.934 51.559,261.631 L54.287,263.418 L57.144,259.997 C58.715,258.115 60,256.168 60,255.67 C60,255.172 61.366,253.13 63.035,251.132 C67.789,245.442 67.971,245.187 69.012,242.776 C69.553,241.524 70.559,239.611 71.248,238.524 C75.935,231.13 79,225.846 79,225.159 C79,224.717 80.337,222.589 81.972,220.428 C83.607,218.268 84.957,216.132 84.972,215.683 C84.987,215.234 86.125,213.392 87.5,211.589 C88.875,209.786 90,207.76 90,207.086 C90,206.412 91.269,203.979 92.82,201.68 C94.371,199.381 96.258,195.925 97.014,194 C97.77,192.075 99.507,188.475 100.874,186 C105.234,178.111 105.988,176.528 105.994,175.25 C106.003,173.359 103.972,173.753 99,176.608 C85.758,184.211 84.118,185.065 76.5,188.324 C59.484,195.604 43.43,199.911 30.471,200.674 L20.442,201.265 L19.244,198.636 C18.428,196.845 18.35,195.211 18.998,193.504 C19.878,191.19 20.439,191 26.387,191 C45.077,191 74.551,180.949 99,166.238 C113.231,157.675 113.02,158.002 113.52,143.824 C113.669,139.602 114.089,135.665 114.454,135.074 C115.56,133.284 120.572,133.87 122.514,136.015 C123.645,137.265 124.513,140.146 124.8,143.597 C125.076,146.929 125.792,149.367 126.584,149.671 C127.312,149.95 132.083,147.595 137.187,144.439 C146.933,138.409 159.566,132 161.703,132 C163.654,132 164.02,128.883 164.381,109.199 C164.714,91.065 164.698,90.901 162.609,91.199 C161.199,91.4 159.709,93.157 158.113,96.5 C153.245,106.7 152.528,108 151.773,108 C151.348,108 151,108.81 151,109.8 C151,112.481 146.006,119.676 143.284,120.917 C139.359,122.705 137.269,122.178 133.697,118.5 C131.828,116.575 128.146,113.856 125.515,112.457 L120.732,109.914 L113.1,117.957 L105.467,126 L99.844,126 C91.631,126 89.774,124.174 89.62,115.949 C89.508,109.981 89.305,109.433 86.75,108.209 C85.237,107.484 84,106.497 84,106.016 C84,104.577 74.883,98.876 73.126,99.217 C71.854,99.465 71.475,100.855 71.383,105.609 C71.319,108.95 70.985,114.568 70.641,118.092 C70.298,121.616 69.753,132.825 69.432,143 C68.897,159.963 68.674,161.687 66.75,163.75 C65.596,164.988 63.908,166 63,166 C59.637,166 55,158.712 55,153.427 C55,150.373 55.44,149.66 57.896,148.733 C60.249,147.845 60.781,147.064 60.731,144.57 C60.602,137.967 62.235,121.973 63.093,121.442 C63.592,121.134 64,114.819 64,107.41 C64,96.306 63.734,93.835 62.487,93.357 C60.315,92.523 57.966,94.83 55.72,100 C54.645,102.475 52.762,105.625 51.536,107 C50.309,108.375 47.575,112.425 45.46,116 C39.14,126.685 33.538,133.231 28.246,136.114 C26.297,137.176 25.656,137.025 23.496,134.997 C20.208,131.908 20.34,129.393 23.885,127.559 C29.162,124.831 35.476,116.549 42.992,102.5 C45.837,97.181 47.446,94.572 50.086,91 C51.508,89.075 53.758,85.475 55.086,83 C56.414,80.525 57.837,78.35 58.25,78.167 C58.663,77.983 59,77.228 59,76.489 C59,75.75 60.172,74.223 61.605,73.096 C64.08,71.149 64.158,70.808 63.166,66.273 C62.591,63.648 61.848,59.813 61.515,57.75 C61.182,55.688 60.592,54.002 60.205,54.004 C59.817,54.006 57.925,54.973 56,56.153 C54.075,57.333 48.675,60.287 44,62.716 C39.325,65.145 34.534,68.037 33.354,69.143 C31.978,70.432 30.184,71.036 28.354,70.826 C25.95,70.551 25.451,69.99 25.187,67.26 C24.845,63.708 27.715,60.263 33.614,57.146 C35.326,56.24 39.476,54.038 42.835,52.25 C46.194,50.462 49.542,49 50.274,49 C51.007,49 53.531,47.584 55.884,45.854 L60.162,42.708 L59.524,36.604 C59.173,33.247 58.388,28.127 57.779,25.226 C56.704,20.111 56.757,19.863 59.523,16.976 C64.671,11.602 66.214,12.773 67.461,23 C67.762,25.475 68.174,28.625 68.376,30 C68.577,31.375 68.8,33.077 68.871,33.781 C68.942,34.486 69.697,35.33 70.548,35.657 C72.183,36.284 74.406,34.083 76.009,30.25 C76.583,28.879 77.814,28 79.161,28 C81.556,28 86,31.605 86,33.549 C86,35.043 79.716,42 78.366,42 C77.821,42 76.183,43.243 74.728,44.762 C72.338,47.256 72.022,48.497 71.478,57.512 C71.147,63.006 70.907,68.4 70.946,69.5 C70.985,70.6 71.125,75.325 71.258,80 C71.493,88.249 71.574,88.508 74,88.788 C77.1,89.144 84,92.055 84,93.006 C84,94.348 88.913,99 90.33,99 C91.114,99 92.288,98.358 92.94,97.573 C94.512,95.678 102.53,93 106.631,93 C108.432,93 111.071,93.531 112.495,94.18 C115.715,95.647 117.27,94.211 122.019,85.39 L125.308,79.279 L122.404,75.64 C118.577,70.843 116.657,71.011 114.064,76.368 C111.368,81.936 109.115,83.945 104.772,84.65 C99.466,85.511 99.178,82.982 103.795,76.07 C105.893,72.928 108.209,68.909 108.942,67.139 C110.163,64.193 110.086,63.72 108.03,61.532 C106.176,59.559 105.948,58.652 106.721,56.321 C107.473,54.053 108.388,53.402 111.386,53 C114.839,52.537 115.286,52.081 117.394,46.88 C118.646,43.789 121.021,39.064 122.67,36.38 C126.212,30.617 129.486,29.829 131.915,34.157 C133.42,36.84 133.186,37.975 130.09,43 C129.197,44.45 127.679,47.973 125.032,54.742 C123.536,58.566 124.4,63.067 128.283,71.684 C128.825,72.886 129.01,74.855 128.694,76.062 C128.373,77.29 128.81,79.307 129.688,80.647 C131.753,83.798 130.939,91.238 128.111,95.064 C126.95,96.634 126,98.589 126,99.409 C126,101.386 131.548,105.447 136.353,106.988 C141.086,108.505 141.379,108.246 146.526,98 C153.748,83.621 154.71,81.463 156.442,75.752 C157.401,72.59 158.593,69.751 159.092,69.443 C159.592,69.134 160,68.078 160,67.096 C160,66.114 160.9,64.495 162,63.5 C164.319,61.401 164.66,56.284 162.662,53.552 C161.395,51.82 160.856,51.971 152.601,56.361 C143.157,61.384 140.643,61.892 137.829,59.345 C135.034,56.816 135.481,53.168 138.75,51.838 C147.049,48.461 148.782,47.709 151.763,46.192 C153.558,45.278 156.196,43.446 157.627,42.12 C159.987,39.931 160.156,39.283 159.451,35.104 C158.029,26.667 158.332,15.031 160,13.978 Z M122,210.182 C123.925,209.644 125.65,209.159 125.833,209.102 C126.017,209.046 129.647,209.889 133.9,210.975 C142.407,213.146 148.69,215.525 151,217.448 C151.825,218.134 154.677,219.284 157.338,220.003 C160,220.721 163.6,222.263 165.338,223.428 C167.077,224.593 171.425,226.841 175,228.423 C178.575,230.005 182.573,232.132 183.885,233.149 C185.197,234.167 186.66,235 187.136,235 C188.544,235 202.943,244.631 206.879,248.205 C208.874,250.017 213.43,253.961 217.003,256.97 C225.563,264.176 235.971,274.273 235.987,275.385 C235.994,275.872 234.852,277.335 233.448,278.635 C230.429,281.434 226.223,281.75 225.27,279.25 C224.903,278.288 222.442,275.301 219.802,272.614 C217.161,269.927 215,267.349 215,266.885 C215,266.42 213.181,265.113 210.959,263.979 C208.736,262.845 206.138,261.148 205.187,260.209 C202.158,257.218 192.609,249.459 189.5,247.462 C184.238,244.082 169.113,236.138 164,234.068 C162.625,233.512 159.25,231.7 156.5,230.041 C146.362,223.927 132.914,219.267 121.338,217.858 C116.477,217.266 111.918,216.613 111.207,216.406 C108.818,215.711 111.765,212.255 115.225,211.692 C117.026,211.399 120.075,210.719 122,210.182 Z M96.57,106.922 C94.117,109.633 93.364,116.227 95.321,117.852 C96.585,118.901 97.541,118.684 100.845,116.598 C104.926,114.022 110,108.234 110,106.156 C110,105.413 107.91,105 104.155,105 C99.659,105 97.909,105.444 96.57,106.922 Z"/>
</svg>

