<svg xmlns="http://www.w3.org/2000/svg" width="300" height="300" viewBox="0 0 300 300" version="1.1">
  <defs/>
  <path d="M64.534,45.963 C66.773,43.489 69.46,43.46 71.885,45.885 C73.317,47.317 73.943,49.958 74.491,56.892 C74.889,61.909 75.647,66.282 76.176,66.609 C76.706,66.936 79.091,66.169 81.477,64.903 C85.107,62.977 86.071,62.814 87.386,63.906 C88.542,64.864 88.699,65.695 87.979,67.039 C87.441,68.045 87,69.738 87,70.801 C87,71.929 85.429,73.774 83.227,75.231 L79.455,77.727 L78.357,88.167 C77.754,93.909 77.436,104.208 77.651,111.053 C77.866,117.899 78.242,139.25 78.487,158.5 C78.732,177.75 78.962,193.95 78.998,194.5 C79.034,195.05 78.831,203.821 78.547,213.991 C78.101,229.99 77.779,232.82 76.16,234.991 C73.569,238.465 71.653,238.573 66.472,235.537 C62.74,233.349 62,232.415 62,229.892 C62,225.928 63.58,223.11 66.406,222.036 C68.45,221.259 68.761,220.288 69.355,212.834 C69.872,206.349 69.492,157.279 68.888,152.5 C68.819,151.95 69.087,150.716 69.485,149.758 C70.692,146.849 66.958,146.178 65.103,148.972 C64.255,150.249 61.804,153.122 59.656,155.358 C56.222,158.932 52.877,163.081 45.5,172.919 C44.4,174.385 40.893,178.829 37.707,182.793 C32.139,189.721 31.749,190 27.612,190 C24.635,190 22.773,189.407 21.567,188.074 C18.509,184.695 20.243,181.793 26.038,180.594 C27.767,180.236 30.672,177.269 35.153,171.284 C41.813,162.388 49.573,151.156 51.586,147.5 C55.211,140.913 57.32,137.44 57.962,137 C58.363,136.725 59.323,135.313 60.096,133.861 C60.868,132.41 62.85,129.035 64.5,126.361 C67.476,121.539 67.5,121.379 67.552,106.5 C67.617,88.032 67.452,87 64.442,87 C63.164,87 61.847,87.438 61.517,87.973 C61.186,88.508 56.997,90.838 52.208,93.151 C47.418,95.463 41.644,98.661 39.377,100.256 C36.591,102.216 34.319,103.051 32.377,102.829 C29.751,102.529 29.526,102.195 29.795,99 C30.181,94.41 35.305,89.764 44.388,85.77 C45.976,85.071 51.376,82.466 56.388,79.98 C64.925,75.745 65.492,75.272 65.373,72.48 C64.868,60.588 64.089,51.227 63.478,49.713 C63.02,48.577 63.405,47.21 64.534,45.963 Z M197.557,135.223 C200.122,131.561 204,133.052 204,137.7 C204,140.761 205.571,140.603 208.487,137.25 C211.67,133.591 214.194,135.033 215.23,141.102 C215.899,145.022 215.655,145.952 212.978,149.681 C211.301,152.015 209.538,156.163 208.987,159.068 C207.74,165.643 207.75,166 209.171,166 C211.405,166 214,162.676 214,159.814 C214,156.249 216.399,155.147 219.012,157.511 C222.339,160.522 222.351,162.689 219.068,167.554 C217.381,170.054 216,172.394 216,172.753 C216,173.111 214.543,174.908 212.763,176.745 C210.386,179.197 209.493,181.069 209.401,183.792 C209.235,188.738 211.976,212.102 212.945,214 C214.499,217.043 222.969,219.219 233,219.153 C245.89,219.067 261.011,216.705 262.603,214.528 C265.64,210.375 265.546,185.305 262.443,172 C261.609,168.425 260.228,162.35 259.372,158.5 C258.517,154.65 256.959,149.612 255.909,147.305 C253.845,142.769 253.341,134.525 255.063,133.461 C256.8,132.388 260,136.087 260,139.169 C260,140.741 260.384,142.809 260.853,143.764 C261.322,144.719 262.497,147.3 263.464,149.5 C264.431,151.7 265.548,154.175 265.947,155 C266.346,155.825 267.466,160.1 268.435,164.5 C269.404,168.9 270.535,173.4 270.949,174.5 C273.64,181.657 274.161,185.238 274.703,200.294 L275.308,217.089 L269.823,222.401 C263.298,228.721 263.04,228.784 240.809,229.508 C227.687,229.935 222.638,229.714 217.2,228.477 C206.514,226.047 204.498,223.199 201.999,207 C201.532,203.975 200.912,200.375 200.62,199 C200.328,197.625 199.824,194.813 199.499,192.75 C198.802,188.315 197.864,188.167 191.598,191.499 C187.272,193.799 186.674,193.883 184.097,192.55 C180.925,190.91 178,186.944 178.001,184.285 C178.002,181.853 181.082,174.137 183.453,170.625 C184.17,169.563 184.646,168.888 184.772,168.154 C185.013,166.753 183.982,165.133 180.928,160.189 C179.644,158.112 179.697,157.732 181.448,156.434 C182.519,155.64 184.187,155.242 185.156,155.549 C186.124,155.857 188.692,155.086 190.862,153.837 C195.003,151.454 195.964,149.044 195.989,140.973 C195.995,139.032 196.701,136.445 197.557,135.223 Z M132.5,138.103 C135.25,135.888 138.175,134.177 139,134.3 C139.825,134.423 141.392,136.184 142.483,138.214 L144.465,141.905 L141.545,144.953 C139.94,146.629 137.9,148 137.013,148 C134.722,148 133,150.016 133,152.7 C133,155.855 136.29,155.733 138.408,152.5 C141.305,148.078 147,150.019 147,155.428 C147,156.285 144.371,159.656 141.159,162.919 C135.648,168.516 135.252,169.249 134.159,175.869 C132.691,184.758 132.699,185 134.482,185 C136.209,185 143.896,177.774 146.505,173.698 C147.843,171.607 148.958,170.973 150.899,171.198 C153.139,171.458 153.628,172.163 154.423,176.28 C155.331,180.978 155.278,181.131 151.423,185.117 C149.265,187.348 145.419,190.238 142.875,191.54 C140.331,192.842 137.983,194.603 137.656,195.454 C137.33,196.304 136.239,197 135.231,197 C131.879,197 130.997,199.114 131.081,206.95 C131.189,217.091 133.739,222.039 139.5,223.287 C144.711,224.416 154.093,223.602 157.673,221.71 C159.228,220.888 162.44,219.411 164.811,218.429 C167.182,217.446 169.544,215.852 170.061,214.886 C171.501,212.195 171.178,200.891 169.447,193.427 C167.55,185.249 167.831,180.643 170.254,180.184 C172.262,179.804 174.522,184.49 177.398,195 C178.376,198.575 179.854,203.863 180.682,206.752 C182.999,214.837 181.775,221.216 177.178,225.005 C175.179,226.652 172.859,228.002 172.022,228.003 C171.185,228.005 167.125,229.417 163,231.14 C156.35,233.917 154.367,234.279 145.5,234.332 C136.664,234.384 135.046,234.114 131.603,232.01 C126.785,229.066 122,219.417 122,212.644 C122,204.929 119.259,204.56 110.856,211.145 C106.352,214.674 103.07,214.767 99.958,211.455 C98.078,209.454 97.795,208.546 98.634,207.205 C99.566,205.716 106.062,201.845 116.659,196.463 C121.637,193.935 122.703,192.014 123.436,184.25 C124.048,177.777 123.935,177 122.389,177 C121.437,177 119.947,177.642 119.079,178.427 C117.547,179.811 105.706,181.04 104.596,179.929 C104.302,179.635 103.935,177.854 103.781,175.971 C103.501,172.562 103.522,172.544 108.521,171.911 C114.017,171.214 120.583,168.266 123.117,165.356 C124.006,164.335 125.033,161.531 125.399,159.125 C126.039,154.914 125.978,154.776 123.782,155.449 C122.527,155.834 119.37,156.396 116.767,156.7 C113.034,157.135 111.906,156.918 111.43,155.677 C110.241,152.579 114.08,148.321 120.901,145.174 C124.53,143.5 129.75,140.318 132.5,138.103 Z M148.655,52.829 C150.423,50.875 155.475,50.341 156.5,52 C156.84,52.55 158.191,53 159.502,53 C161.999,53 165,56.295 165,59.035 C165,59.91 163.65,61.919 162,63.5 C159.568,65.83 159,67.197 159,70.718 C159,76.57 161.355,77.535 164.996,73.174 C167.62,70.031 171.27,69.01 172.54,71.065 C172.902,71.651 172.896,73.741 172.526,75.711 C171.821,79.469 166.002,85.84 160.75,88.604 C157.541,90.293 157.283,92.718 159.448,100.851 C161.896,110.046 165.958,112.231 175.11,109.275 C182.133,107.007 184.283,103.56 183.39,96 C183.032,92.975 181.647,88.325 180.311,85.667 C177.582,80.237 177.596,76.693 180.349,76.168 C183.887,75.493 187.985,80.889 191.995,91.5 C192.411,92.6 193.257,94.759 193.875,96.297 C195.269,99.764 195.357,108 194,108 C193.45,108 193,108.48 193,109.067 C193,111.137 187.701,117.047 184.62,118.414 C180.571,120.21 173.047,122.223 170.5,122.192 C164.612,122.119 159.616,120.039 155.407,115.909 C152.983,113.53 150.993,110.665 150.985,109.542 C150.955,105.443 148.237,99.506 146.252,99.2 C145.181,99.036 141.251,100.948 137.52,103.45 C133.788,105.953 130.414,108 130.023,108 C129.631,108 128.523,107.13 127.561,106.067 C125.338,103.612 126.226,98.881 129.786,94.214 C131.842,91.519 132.792,91.015 134.935,91.486 C136.853,91.907 138.836,91.219 142.281,88.937 L147,85.812 L147,79.874 C147,73.224 145.634,71.788 141.442,74.031 C139.353,75.149 138.743,75.077 137.01,73.509 C134.659,71.382 134.302,65.824 136.404,64.079 C137.214,63.408 138.926,63.194 140.445,63.575 C143.939,64.453 147,61.697 147,57.674 C147,56.015 147.745,53.835 148.655,52.829 Z M201.541,117.634 C208.827,113.282 212.107,113.05 214.965,116.683 C216.126,118.159 216.942,120.062 216.778,120.912 C216.353,123.123 205.292,130.18 200.527,131.28 C198.312,131.792 194.722,132.275 192.549,132.355 C188.806,132.492 188.561,132.318 187.881,129.032 C186.938,124.473 188.183,122.394 192.253,121.734 C194.084,121.437 198.263,119.592 201.541,117.634 Z M85.959,139.45 C87.991,137.438 94.285,138.137 100.476,141.062 C103.896,142.678 107.242,144 107.913,144 C108.653,144 109.008,145.078 108.816,146.738 C108.55,149.04 107.91,149.571 104.797,150.073 C100.549,150.758 87.05,147.679 85.822,145.746 C84.729,144.024 84.803,140.595 85.959,139.45 Z M152.5,29.898 C156.3,27.504 157.52,27.52 160,30 C163.656,33.656 162.254,36.836 155.5,40.203 C153.85,41.025 151.084,42.535 149.354,43.558 C146.703,45.125 145.955,45.208 144.604,44.086 C140.855,40.975 144.059,35.216 152.5,29.898 Z M193.25,164.031 C192.012,164.529 191,165.43 191,166.034 C191,166.639 189.879,168.603 188.508,170.4 C185.208,174.728 184.169,179.744 186.396,180.598 C188.235,181.304 193.588,179.448 196.25,177.18 C198.039,175.657 198.589,169.799 197.37,165.25 C196.706,162.775 196.515,162.719 193.25,164.031 Z"/>
</svg>

