<svg xmlns="http://www.w3.org/2000/svg" width="300" height="300" viewBox="0 0 300 300" version="1.1">
  <defs/>
  <path d="M174.477,49.275 C178.639,45.763 181.595,45.381 183.318,48.132 C184.899,50.655 182.328,55.64 178.132,58.188 C176.135,59.402 174.275,60.644 174,60.95 C173.489,61.518 167.624,65.382 162.832,68.309 C156.121,72.408 146.794,76.995 139,80.029 C134.325,81.849 130.003,83.712 129.396,84.17 C127.044,85.943 124.53,114 126.723,114 C127.948,114 137,103.798 137,102.418 C137,101.703 136.55,100.84 136,100.5 C134.592,99.63 134.751,90.649 136.2,89.2 C139.201,86.199 145,89.508 145,94.223 C145,96.97 147.631,96.327 150,93 C152.547,89.423 155.205,89.146 156.885,92.284 C158.694,95.666 156.823,102.925 153.521,105.33 C152.096,106.369 150.019,109.004 148.905,111.185 C146.726,115.457 147.283,117.32 151.101,118.532 C152.158,118.867 153.72,120.492 154.574,122.143 C156.548,125.96 156.079,126.547 145.369,133.673 C138.816,138.034 136.485,139.074 133.836,138.819 C129.306,138.384 129.211,136.321 133.464,130.752 C138.937,123.584 137.696,117.437 132,123.5 C130.408,125.195 128.58,126 126.326,126 C123.312,126 123,126.276 123,128.941 C123,130.559 122.55,132.16 122,132.5 C121.45,132.84 121,135.512 121,138.437 C121,141.362 120.325,145.371 119.5,147.346 C118.675,149.32 118,152.075 118,153.468 C118,155.634 118.449,156 121.106,156 C123.228,156 124.835,156.792 126.179,158.5 C128.616,161.599 130.571,161.681 132.113,158.75 C132.763,157.512 134.672,155.15 136.354,153.5 C145.138,144.885 149.04,144.003 153.896,149.535 C155.603,151.479 157,153.222 157,153.409 C157,153.596 156.325,155.662 155.5,158 C154.675,160.338 154,163.11 154,164.16 C154,166.823 144.605,180.338 141.658,181.915 C140.077,182.761 137.814,182.975 135.172,182.529 C131.88,181.973 130.489,180.991 127.807,177.334 C125.988,174.855 123.263,171.579 121.75,170.055 C120.237,168.53 119,166.513 119,165.572 C119,164.37 118.331,163.956 116.75,164.18 C114.898,164.443 114.403,165.296 113.954,169 C113.654,171.475 112.866,174.483 112.204,175.684 C111.542,176.886 111,179.222 111,180.875 C111,182.529 110.598,184.131 110.106,184.435 C109.614,184.739 108.98,186.678 108.698,188.744 C108.073,193.316 106.084,200.872 104.882,203.236 C104.397,204.191 104,206.104 104,207.486 C104,208.869 103.55,210 103,210 C102.45,210 101.997,211.688 101.994,213.75 C101.99,215.813 101.315,218.789 100.494,220.364 C99.672,221.94 99,224.083 99,225.128 C99,226.172 98.603,227.809 98.117,228.764 C97.631,229.719 96.767,231.625 96.196,233 C92.158,242.737 89.747,247.391 86.465,251.787 C79.649,260.917 77.614,255.282 83.519,243.63 C85.433,239.851 87,236.132 87,235.366 C87,234.6 87.396,233.191 87.879,232.236 C89.481,229.074 92.01,220.535 92.005,218.309 C92.002,217.104 92.4,215.871 92.89,215.568 C93.379,215.266 94.021,213.552 94.317,211.759 C95.352,205.492 96.659,200.482 97.825,198.316 C98.471,197.114 99,194.553 99,192.625 C99,190.696 99.45,188.84 100,188.5 C100.55,188.16 101,186.956 101,185.825 C101,184.694 101.723,181.458 102.607,178.634 C105.592,169.096 106,167.366 106,164.238 C106,162.522 106.45,160.84 107,160.5 C107.55,160.16 108,157.935 108,155.555 C108,153.176 108.672,149.94 109.494,148.364 C110.315,146.789 110.99,144.284 110.994,142.797 C110.997,141.31 111.403,139.06 111.896,137.797 C112.78,135.532 114.816,122.492 117.877,99.5 C118.316,96.2 119.024,92.707 119.449,91.737 C120.808,88.644 118.445,87.038 114.244,88.198 C110.895,89.123 110.38,88.98 108.289,86.55 C107.03,85.086 106,83.533 106,83.099 C106,81.17 110.314,78.761 117.125,76.888 C121.181,75.772 125.85,74.269 127.5,73.547 C129.15,72.826 132.3,71.673 134.5,70.986 C143.848,68.063 167.309,55.322 174.477,49.275 Z M53.352,62.24 C53.773,61.558 55.41,61 56.988,61 C59.6,61 59.999,61.486 61.429,66.404 C62.293,69.376 63,72.766 63,73.936 C63,75.107 63.675,77.68 64.5,79.654 C65.325,81.629 66,84.314 66,85.622 C66,86.93 66.365,88 66.811,88 C68.175,88 72,84.007 72,82.583 C72,81.847 72.728,80.641 73.618,79.902 C75.018,78.74 75.558,78.961 77.613,81.529 C78.921,83.163 79.959,85.175 79.922,86 C79.791,88.894 76.312,93.527 72.176,96.316 L68,99.132 L67.876,112.316 C67.708,130.132 68.007,136.322 69.089,137.45 C70.326,138.739 70.24,142.36 68.943,143.657 C68.361,144.239 68.024,147.141 68.193,150.107 L68.5,155.5 L73.5,156.057 C76.25,156.364 80.151,157.573 82.168,158.744 C84.186,159.916 88.198,161.575 91.084,162.432 C99.496,164.93 102.775,169.265 97.293,170.641 C94.186,171.421 82.07,169.584 75.456,167.33 C72.63,166.367 70.844,165.712 69.752,166.315 C67.834,167.372 68.053,172.304 68.528,186.243 C69.745,221.943 69.62,247.29 68.215,249.75 C66.806,252.216 62.647,252.818 61.309,250.75 C60.864,250.063 60.5,240.5 60.5,229.5 C60.5,180.304 60.046,164 58.677,164 C57.949,164 55.144,167.233 52.443,171.186 C49.743,175.138 45.489,180.425 42.989,182.936 C40.49,185.446 37.448,189.123 36.229,191.106 C35.011,193.09 31.78,196.803 29.05,199.356 C25.192,202.965 23.341,204 20.743,204 C14.777,204 12.828,199.189 17.75,196.611 C20.972,194.923 25.786,189.976 29.13,184.913 C37.081,172.879 40.702,167.206 41.842,165 C43.455,161.879 45.709,157.925 49.53,151.52 C53.943,144.121 54.331,143.504 56.42,140.549 C58.471,137.647 58.559,136.609 58.22,119.219 C58.048,110.418 57.68,107.815 56.546,107.379 C55.185,106.857 51.833,108.644 36.275,118.183 C32.85,120.282 29.375,122 28.55,122 C27.726,122 26.395,120.731 25.593,119.181 C23.04,114.243 25.028,112.23 39.603,105 C46.81,101.425 53.447,97.882 54.353,97.128 C56.495,95.343 56.542,87.188 54.452,80.149 C52.762,74.459 52.133,64.212 53.352,62.24 Z M197.373,68.47 C198.295,66.067 202.649,66.739 204.927,69.635 C206.689,71.874 207,73.675 207,81.635 C207,87.597 207.387,91 208.066,91 C210.264,91 213.03,88.843 214.515,85.97 C216.399,82.327 220.167,81.972 222.443,85.223 C225.397,89.44 224.429,91.871 216.889,99.176 L209.777,106.065 L210.417,134.283 C211.627,187.594 214.368,247.445 215.963,255.363 C217.227,261.641 216.838,271.842 215.172,276.114 C213.279,280.97 205.847,281.603 201.848,277.25 C197.448,272.46 195,268.276 195,265.546 C195,264.091 194.299,261.546 193.443,259.89 C191.465,256.065 191.917,250.061 194.292,248.601 C195.755,247.702 196.439,247.959 198.02,250 C199.084,251.375 199.966,253.612 199.978,254.97 C199.99,256.329 201.012,259.597 202.25,262.233 C203.956,265.867 204.984,266.962 206.5,266.763 C208.068,266.557 208.444,265.851 208.24,263.5 C208.096,261.85 207.636,252.625 207.217,243 C206.798,233.375 206.074,224.894 205.608,224.152 C204.711,222.725 203.465,202.06 202.041,165 C200.214,117.437 199.927,114 197.773,114 C196.711,114 193.29,116.182 190.171,118.85 C178.361,128.949 172.249,131.849 169.2,128.8 C166.719,126.319 167.907,122.803 172.813,118.107 C178.774,112.401 189.39,104.601 195.158,101.691 L199.5,99.5 L199.212,91.5 C199.053,87.1 198.448,80.449 197.867,76.72 C197.285,72.991 197.063,69.278 197.373,68.47 Z M140.077,185.923 C142.428,183.572 145.534,184.056 148.25,187.198 C150.15,189.395 150.558,192.537 149.063,193.461 C147.529,194.409 145,200.131 145,202.654 C145,206.663 147.447,205.301 155.113,197.025 C162.136,189.444 164.243,187.966 165.387,189.817 C167.089,192.571 158.373,208.033 152.073,213.436 C150.108,215.121 147.228,217.738 145.673,219.25 C144.118,220.762 142.603,222 142.305,222 C142.008,222 140.226,223.35 138.347,225 C136.468,226.65 134.535,228 134.052,228 C133.57,228 130.783,229.575 127.86,231.5 C121.952,235.391 119.536,235.795 116.829,233.345 C113.67,230.487 114.577,227.475 119.965,222.932 C122.696,220.629 125.867,216.949 127.012,214.753 C128.815,211.293 128.906,210.543 127.689,209.13 C122.479,203.083 121.429,201.633 120.85,199.685 C119.538,195.277 119.99,193.053 122.537,191.384 C124.957,189.798 125.185,189.826 127.483,191.984 C128.807,193.228 130.028,195.424 130.195,196.865 C130.653,200.798 133.56,200.766 135.331,196.809 C136.146,194.989 137.091,192.251 137.432,190.725 C137.772,189.198 138.962,187.038 140.077,185.923 Z M169.25,155.662 C173.495,153.949 184,156.47 184,159.201 C184,159.625 185.759,161.136 187.909,162.558 C195.755,167.751 195.572,175.664 187.665,173.055 C185.718,172.412 183.084,171.082 181.812,170.098 C180.541,169.115 177.949,168.009 176.052,167.641 C170.161,166.496 168,164.462 168,160.06 C168,157.881 168.55,155.945 169.25,155.662 Z M138.2,31.2 C138.86,30.54 141.201,30 143.402,30 C146.55,30 148.109,30.683 150.702,33.196 C153.586,35.991 154,37.034 154,41.506 C154,46.211 153.612,47.052 149.138,52.047 C145.066,56.593 144.034,57.273 142.778,56.231 C141.237,54.952 141.463,50.45 143.119,49.426 C143.604,49.127 144,47.446 144,45.691 C144,43.243 143.185,41.85 140.5,39.707 C136.881,36.82 135.966,33.434 138.2,31.2 Z M138.073,165.635 C135.792,168.535 135.537,169.596 136.915,170.448 C138.135,171.202 144,166.204 144,164.411 C144,162.061 140.28,162.829 138.073,165.635 Z M38.75,107.689 C36.12,108.377 36.647,110 39.5,110 C41.056,110 42,109.433 42,108.5 C42,106.961 41.762,106.902 38.75,107.689 Z"/>
</svg>

