<svg xmlns="http://www.w3.org/2000/svg" width="300" height="300" viewBox="0 0 300 300" version="1.1">
  <defs/>
  <path d="M177.276,168.5 C180.135,166.575 182.756,165 183.102,165 C184.387,165 188.999,169.187 188.964,170.323 C188.865,173.558 180.724,180 176.735,180 C175.451,180 173.959,180.441 173.42,180.98 C172.881,181.519 169.979,183.206 166.97,184.73 C160.401,188.057 159.488,190.694 163.589,194.495 C166.173,196.89 166.249,197.215 165.061,200.814 C164.373,202.9 163.965,205.708 164.155,207.054 C164.468,209.271 165.062,209.547 170.5,210 C175.006,210.375 177.395,211.185 180.094,213.25 C182.071,214.762 184.193,216 184.81,216 C185.426,216 187.409,217.29 189.215,218.866 C191.022,220.443 196.516,223.828 201.424,226.389 C206.333,228.949 210.833,231.434 211.424,231.909 C212.016,232.385 214.41,233.089 216.745,233.474 C219.079,233.859 221.221,234.548 221.503,235.005 C221.786,235.462 225.951,237.702 230.758,239.983 C243.097,245.837 245.355,249.246 240.5,254.694 L238,257.5 L235.548,254.75 C234.199,253.238 232.737,251.992 232.298,251.982 C231.859,251.972 229.52,250.622 227.1,248.982 C224.679,247.342 222.032,246 221.217,246 C220.402,246 213.695,243.075 206.313,239.5 C198.931,235.925 192.621,233 192.292,233 C191.963,233 186.377,229.59 179.878,225.422 C173.379,221.254 167.604,218.127 167.044,218.473 C166.441,218.846 166.019,224.281 166.009,231.801 C166,238.785 165.768,246.3 165.493,248.5 C165.218,250.7 164.723,259.475 164.392,268 C163.856,281.798 163.563,283.747 161.721,285.75 C158.321,289.446 155.314,288.7 152.806,283.537 L150.637,279.074 L152.773,272.287 C156.036,261.916 156.128,261.026 156.093,239.986 C156.06,220.033 155.73,217 153.591,217 C152.096,217 140.275,228.557 138.033,232.211 C137.118,233.702 135.16,235.873 133.681,237.037 C132.202,238.2 129.569,241.255 127.831,243.826 C124.229,249.152 113.582,260.102 110.316,261.838 C106.984,263.611 105.326,263.265 101.766,260.057 C99.064,257.622 98.69,256.804 99.6,255.321 C100.205,254.335 102.29,253.152 104.233,252.692 C108.364,251.715 112.402,248.093 120,238.549 C123.025,234.75 128.537,228.15 132.25,223.883 C135.963,219.616 139,215.717 139,215.218 C139,214.718 139.93,213.469 141.066,212.44 C144.627,209.217 152.221,197.017 151.627,195.471 C150.861,193.474 148.36,193.622 144.618,195.888 C142.903,196.926 137.225,199.223 132,200.993 C126.775,202.763 121.082,204.839 119.349,205.606 C114.806,207.616 112.408,207.334 110.205,204.533 C106.574,199.917 109.87,194.176 115.361,195.555 C116.748,195.903 119.821,195.339 122.632,194.22 C125.309,193.155 129.3,191.715 131.5,191.022 C136.145,189.558 139.855,187.777 157.239,178.672 C164.246,175.003 170.451,172 171.029,172 C171.606,172 174.418,170.425 177.276,168.5 Z M156.655,67.829 C157.565,66.823 158.878,66 159.573,66 C164.346,66 166.901,70.429 167.712,80.107 C168.033,83.934 168.627,87.269 169.031,87.519 C169.436,87.77 171.957,87.31 174.634,86.498 C181.297,84.477 186.888,84.634 190.686,86.95 C196.944,90.766 197.964,96.387 194.1,105.757 C188.96,118.223 179.292,130.36 167.75,138.839 C163.212,142.172 158.118,146.02 156.429,147.391 C154.554,148.914 151.438,150.138 148.422,150.538 C144.21,151.097 143.211,150.891 141.621,149.133 C139.938,147.274 139.815,145.872 140.356,134.787 C140.686,128.029 141.233,120.877 141.571,118.893 C142.454,113.71 139.852,112.967 135.847,117.257 C132.829,120.491 132.822,120.525 133.501,129 C134.654,143.415 134.622,144.179 132.809,145.336 C130.476,146.825 127.419,143.935 124.424,137.409 C122.09,132.326 120.261,130.017 107.182,115.642 C103.389,111.475 102.945,110.507 103.532,107.698 C103.9,105.939 104.804,103.868 105.54,103.096 C106.689,101.892 107.233,101.923 109.358,103.315 C110.72,104.208 113.335,106.813 115.168,109.104 C117,111.396 119.643,114.447 121.04,115.885 C122.437,117.323 124.21,119.754 124.979,121.287 C125.778,122.879 127.046,123.945 127.936,123.774 C129.728,123.429 132.881,117.518 132.952,114.37 C132.98,113.109 134.761,110.798 137.319,108.702 C141.583,105.208 141.64,105.078 141.824,98.407 C141.964,93.305 141.495,90.589 139.907,87.309 C137.454,82.242 136.33,75.532 137.783,74.634 C139.638,73.487 145.117,75.249 146.564,77.457 C148.19,79.939 150.106,87.815 150.341,92.985 C150.54,97.339 153.151,98.146 156.589,94.916 C158.73,92.905 158.998,91.804 158.978,85.076 C158.96,79.099 158.543,76.972 157,75 C154.594,71.924 154.511,70.198 156.655,67.829 Z M67.54,72.956 C68.514,71.88 69.803,71.007 70.405,71.015 C73.596,71.06 74.528,73.209 75.589,82.97 C76.189,88.494 76.999,93.332 77.388,93.722 C79.015,95.349 82.266,91.313 86.026,83 C86.903,81.061 90.7,80.506 92.555,82.046 C93.35,82.705 93.998,84.877 93.995,86.872 C93.991,90.078 93.081,91.391 86.171,98.156 L78.351,105.812 L77.038,114.256 C76.222,119.499 75.927,126.831 76.259,133.6 C76.553,139.595 76.308,147.771 75.715,151.768 C74.894,157.297 74.922,159.322 75.833,160.233 C76.539,160.939 80.617,161.525 85.765,161.662 C98.525,162 99.349,162.194 102.827,165.673 C109.81,172.656 105.563,175.428 92.964,172.111 C83.902,169.725 77.728,169.407 76.228,171.25 C75.668,171.938 74.956,178.35 74.646,185.5 C74.335,192.65 73.618,204.8 73.053,212.5 C72.037,226.346 72.449,236.921 74.131,240.183 C74.786,241.454 74.289,242.37 72.095,243.933 C68.468,246.515 66.794,246.535 64.519,244.021 C62.927,242.262 62.795,240.678 63.327,229.771 C64.666,202.337 65.959,181.457 66.573,177.361 C67.084,173.957 66.892,172.896 65.682,172.431 C63.773,171.699 57.54,178.322 53.978,184.866 C48.899,194.197 43.253,201.742 34.607,210.75 C28.857,216.742 26.171,217.327 21.518,213.605 C18.844,211.465 18.643,210.924 19.569,208.36 C20.473,205.857 21.058,205.527 24.254,205.715 C27.512,205.906 28.406,205.366 32.522,200.715 C35.061,197.847 38.036,193.772 39.135,191.66 C40.233,189.549 42.677,185.67 44.566,183.041 C46.455,180.412 48,177.582 48,176.753 C48,175.924 48.671,174.688 49.492,174.007 C50.313,173.326 53.065,168.658 55.609,163.634 C58.152,158.61 60.602,154.039 61.052,153.475 C61.799,152.54 63.64,147.222 65.889,139.5 C67.16,135.137 67.319,114 66.081,114 C65.525,114 63.528,115.354 61.644,117.008 C55.642,122.278 49.623,124.283 38.269,124.797 C26.817,125.316 26.18,124.957 27.748,118.872 C28.575,115.664 28.858,115.488 33.559,115.257 C45.577,114.665 54.105,111.736 64.355,104.68 L67.21,102.714 L66.49,88.813 C65.843,76.302 65.948,74.715 67.54,72.956 Z M174.5,95.669 C169.097,97.078 164.227,104.591 157.43,122 C155.39,127.225 153.334,131.928 152.861,132.45 C151.34,134.128 151.941,136 154,136 C155.1,136 156,135.582 156,135.071 C156,134.561 156.617,133.526 157.37,132.773 C158.124,132.019 159.498,129.938 160.424,128.148 C162.02,125.062 162.323,124.926 166.308,125.524 C170.22,126.11 170.682,125.924 172.995,122.827 C182.513,110.086 187.962,98.331 185.155,96.596 C183.753,95.729 176.639,95.11 174.5,95.669 Z M160.273,149.276 C164.185,145.671 165.629,144.933 168.273,145.188 C171.192,145.47 171.529,145.846 171.803,149.127 C172.079,152.433 171.635,153.145 166.803,157.152 C163.886,159.571 157,164.553 151.5,168.223 C136.932,177.946 130.744,178.362 129.341,169.714 C128.661,165.524 130.04,164.386 136.512,163.796 C140.447,163.438 143.025,162.301 148.512,158.507 C152.355,155.849 157.648,151.695 160.273,149.276 Z M158.701,37.75 C159.608,36.788 161.131,36 162.086,36 C164.109,36 169,41.442 169,43.692 C169,45.254 161.214,53 159.644,53 C159.173,53 157.063,54.366 154.955,56.036 C152.847,57.706 148.918,59.726 146.225,60.526 C143.532,61.326 140.509,62.885 139.509,63.99 C138.509,65.096 137.11,66 136.402,66 C134.508,66 132,61.955 132,58.9 C132,55.618 133.427,54.379 138.245,53.479 C142.938,52.602 149.954,48.012 153.976,43.189 C155.668,41.16 157.794,38.712 158.701,37.75 Z"/>
</svg>

