<svg xmlns="http://www.w3.org/2000/svg" width="300" height="300" viewBox="0 0 300 300" version="1.1">
  <defs/>
  <path d="M151.75,125.392 C152.713,124.661 153.965,124.049 154.534,124.032 C156.134,123.983 158.948,129.39 160.629,135.745 C162.363,142.301 161.729,157.076 159.567,160.5 C157.866,163.193 155.663,172.679 156.333,174.425 C156.719,175.43 157.976,175.679 160.773,175.304 C165.138,174.718 167.232,175.603 178.054,182.603 C181.887,185.083 186.48,187.777 188.261,188.591 C190.043,189.405 195.775,192.339 201,195.11 C206.225,197.881 214.567,202.302 219.538,204.934 C232.761,211.934 233.006,212.087 239,217.098 C242.025,219.626 245.85,222.431 247.5,223.331 C249.15,224.231 253.2,226.983 256.5,229.448 C259.8,231.912 265.516,235.971 269.201,238.467 C277.859,244.331 281,248.415 281,253.809 C281,256.859 280.498,258.198 279.066,258.965 C275.586,260.827 274.199,260.087 268.43,253.287 C261.431,245.036 253.839,239.019 231.161,223.748 C229.325,222.512 226.34,220.262 224.529,218.75 C222.718,217.238 220.534,216 219.677,216 C218.82,216 217.855,215.574 217.533,215.053 C216.531,213.432 208.865,208.683 200,204.193 C195.325,201.825 190.825,199.503 190,199.034 C189.175,198.564 185.575,196.773 182,195.054 C168.622,188.62 158.447,182.828 156.827,180.724 C155.184,178.592 155.114,178.587 153.077,180.431 C151.934,181.464 150.986,183.028 150.968,183.905 C150.951,184.782 150.276,186.374 149.468,187.441 C148.661,188.509 148,189.984 148,190.719 C148,191.979 146.672,194.791 137.478,213 C135.395,217.125 131.913,222.906 129.74,225.846 C125.655,231.375 125.524,231.421 119.389,229.5 C117.546,228.923 117.133,229.414 116.139,233.363 C115.513,235.85 115,239.9 115,242.361 C115,246.364 114.644,247.057 111.632,248.918 C107.31,251.59 105.362,251.547 103.871,248.75 C103.211,247.512 100.328,243.575 97.464,240 C94.6,236.425 91.687,231.7 90.99,229.5 C89.129,223.624 87.79,221 86.654,221 C86.099,221 84.488,222.316 83.073,223.924 C79.039,228.51 76.436,228.764 74.026,224.81 C72.916,222.99 72.006,221.239 72.004,220.92 C72.002,220.602 74.475,217.606 77.5,214.263 C83.666,207.45 84.148,205.265 81.424,196.5 C80.57,193.75 79.521,189.387 79.093,186.803 C78.332,182.204 78.404,182.02 82.588,177.913 C86.181,174.388 87.655,173.643 91.843,173.241 C96.644,172.78 96.887,172.881 98.509,176.017 C100.821,180.488 99.069,184 94.527,184 C88.625,184 81.731,194.561 85.034,198.541 C86.968,200.872 88.719,200.246 89.922,196.793 C92.178,190.323 98,187.035 98,192.232 C98,194.012 94.417,203.421 91.906,208.236 C90.484,210.962 90.777,212.3 94.3,219.18 C98.899,228.16 103.185,233.953 105.25,233.979 C106.213,233.99 107.019,233.887 107.043,233.75 C107.067,233.613 107.543,226.075 108.102,217 C108.661,207.925 109.35,198.475 109.635,196 C111.383,180.786 108.88,161.095 104.5,155.602 C102.359,152.917 102.159,152.867 99.386,154.325 C97.799,155.159 93.704,158.577 90.287,161.921 C83.738,168.328 81.699,169.174 80.082,166.153 C78.094,162.439 80.936,157.268 89.274,149.424 C96.258,142.854 97.607,142 101.001,142 C103.111,142 105.538,142.269 106.395,142.598 C108.386,143.362 115,152.522 115,154.516 C115,155.347 115.397,156.809 115.883,157.764 C119.39,164.656 119.5,165.499 119.5,185.401 C119.5,198.708 119.018,207.978 118.074,212.832 C116.84,219.181 116.84,220.288 118.074,221.081 C119.983,222.308 122.125,221.838 123.001,220 C124.611,216.623 126.969,212.199 129.932,207 C131.656,203.975 134.212,199.025 135.614,196 C137.015,192.975 139.228,188.25 140.531,185.5 C141.834,182.75 143.575,178.475 144.399,176 C145.223,173.525 146.82,169.031 147.949,166.014 C149.077,162.997 150,159.516 150,158.278 C150,157.041 150.548,153.981 151.217,151.477 C152.174,147.901 152.174,146.508 151.217,144.976 C150.52,143.859 150,139.546 150,134.874 C150,128.281 150.335,126.466 151.75,125.392 Z M71.554,4.488 L72.227,0 L78.114,0 C84.243,0 85.709,1.337 82.5,4 C81.675,4.685 81,6.288 81,7.563 C81,8.839 80.55,10.16 80,10.5 C79.45,10.84 79,12.014 79,13.109 C79,14.204 78.309,16.435 77.465,18.068 C76.256,20.405 76.203,21.114 77.215,21.404 C77.922,21.606 80.307,22.26 82.517,22.856 C87.549,24.215 103.563,39.051 104.573,43.29 C105.579,47.517 102.709,50.177 97.552,49.798 C94.24,49.554 93.442,49.095 93.185,47.281 C92.727,44.06 76.38,30 73.093,30 C72.579,30 71.841,31.448 71.452,33.217 C71.064,34.987 70.405,37.124 69.99,37.967 C68.228,41.537 67.031,44.835 65.549,50.199 C64.682,53.334 63.53,56.173 62.987,56.508 C61.698,57.305 61.711,61.703 63.005,62.503 C63.557,62.844 67.911,60.171 72.68,56.562 C77.449,52.953 81.892,50 82.553,50 C84.751,50 86.133,52.815 85.815,56.647 C85.548,59.856 84.739,61.014 80.5,64.247 C71.5,71.113 64.68,74.386 60.931,73.636 C57.647,72.979 55.753,74.859 54.011,80.5 C53.332,82.7 52.208,85.85 51.514,87.5 C50.82,89.15 49.469,92.373 48.513,94.663 C47.557,96.953 47.054,99.279 47.396,99.832 C47.738,100.385 50.358,101.34 53.218,101.953 C56.078,102.567 59.191,103.768 60.135,104.622 C62.438,106.706 65.426,105.996 65.815,103.271 C65.993,102.029 69.275,98.292 73.315,94.732 C85.461,84.029 87.716,83.207 92.923,87.589 C95.953,90.138 95.999,90.319 95.965,99.339 C95.941,105.389 95.444,109.349 94.5,111 C93.714,112.375 93.055,115.096 93.035,117.047 C93.004,120.201 92.275,121.173 86.472,125.797 C82.882,128.659 79.559,131 79.087,131 C78.616,131 75.873,131.761 72.992,132.692 C67.957,134.318 67.7,134.31 66.377,132.501 C65.62,131.465 65,129.595 65,128.344 C65,127.094 64.1,125.589 63,125 C61.9,124.411 61,123.158 61,122.215 C61,120.169 55.355,115.464 50.434,113.408 C48.498,112.599 46.708,111.276 46.456,110.468 C46.205,109.661 45.792,108.333 45.538,107.517 C44.665,104.716 42.498,107.057 40.68,112.764 C39.68,115.906 37.542,121.326 35.93,124.808 C34.319,128.29 33,131.564 33,132.083 C33,132.602 32.588,133.809 32.084,134.764 C31.58,135.719 30.39,138.281 29.438,140.459 C24.896,150.851 16.368,161.341 12.882,160.823 C9.109,160.263 8.25,157.506 10.781,154.082 C12.002,152.431 13,150.458 13,149.695 C13,148.933 13.937,147.462 15.082,146.426 C17.052,144.643 26,127.112 26,125.034 C26,124.499 26.813,122.585 27.807,120.78 C28.801,118.976 30.215,115.925 30.949,114 C32.28,110.513 33.602,107.444 38.27,97 C39.622,93.975 41.76,88.8 43.02,85.5 C44.281,82.2 45.692,79.073 46.156,78.55 C46.62,78.028 47,76.205 47,74.5 C47,72.795 47.438,70.962 47.974,70.426 C49.177,69.223 54.193,55.679 58.13,43 C59.753,37.775 61.78,31.25 62.634,28.5 C63.489,25.75 65.694,20.232 67.535,16.238 C69.375,12.244 71.184,6.956 71.554,4.488 Z M135.655,25.829 C137.987,23.251 139.771,23.543 143.033,27.036 C145.836,30.036 145.872,30.233 146.081,43.786 C146.198,51.329 146.193,64.09 146.072,72.145 C145.95,80.199 146.26,87.042 146.76,87.352 C147.261,87.661 150.308,84.747 153.532,80.877 C156.756,77.006 161.127,72.955 163.246,71.875 C165.364,70.794 167.353,69.243 167.666,68.429 C167.978,67.614 170.71,65.777 173.736,64.345 C179.025,61.843 179.368,61.805 182.625,63.358 C187.199,65.539 189.992,70.374 189.996,76.119 C190,80.958 184.68,97.755 182.59,99.5 C181.932,100.05 179.938,102.631 178.159,105.235 C175.072,109.754 172.385,112 170.066,112 C168.313,112 168.845,109.079 171.588,103.635 C176.654,93.581 177,92.826 177,91.82 C177,91.26 177.703,89.32 178.563,87.509 C180.634,83.144 180.153,75.641 177.773,75.19 C174.308,74.533 161.873,85.886 154.865,96.105 C152.399,99.702 149.461,102.538 146.667,104.021 C142.522,106.22 142.195,106.25 139.906,104.645 L137.5,102.959 L137.409,75.23 C137.318,47.769 136.664,37.388 134.908,35.55 C133.408,33.98 133.884,27.786 135.655,25.829 Z M56.242,145.707 C60.243,144.937 60.52,144.975 62.882,146.63 C66.193,148.949 71,156.907 71,160.07 C71,161.543 71.695,164.718 72.545,167.124 C73.825,170.752 73.911,172.953 73.047,180 C72.474,184.675 72.004,192.636 72.003,197.691 C72.001,202.746 71.616,207.12 71.146,207.41 C70.676,207.7 70,210.728 69.643,214.138 C68.555,224.546 64.883,230 58.963,230 C56.19,230 48.823,222.262 49.183,219.727 C49.512,217.418 50.736,217.209 56.146,218.542 C58.638,219.156 58.83,218.941 59.454,214.847 C59.818,212.456 60.52,208.25 61.014,205.5 C64.971,183.47 65.118,170.14 61.483,162.967 C60.031,160.1 58.283,158 57.351,158 C55.911,158 50.314,163.117 48.274,166.298 C47.217,167.948 39.662,173 38.253,173 C36.878,173 34,169.086 34,167.215 C34,165.201 53.642,146.207 56.242,145.707 Z M40.633,203.088 C49.085,194.11 51.629,192.644 53.937,195.424 C55.482,197.286 53.058,202.109 45.845,211.523 C42.905,215.361 39.825,219.835 39,221.466 C37.202,225.021 25.198,238 23.708,238 C21.489,238 19,234.58 19,231.532 C19,229.302 19.909,227.511 22.093,225.437 C23.795,223.822 26.737,220.177 28.632,217.338 C30.527,214.499 35.927,208.087 40.633,203.088 Z M44.563,180.725 C49.759,179.402 51.934,179.971 53.539,183.076 C54.959,185.822 54.969,186.398 53.631,188.441 C52.07,190.822 45.603,193 40.092,193 C37.082,193 35,190.833 35,187.699 C35,186.17 41.341,181.546 44.563,180.725 Z M79.438,104.253 C72.377,112.012 69,116.749 69,118.894 C69,122.458 71.773,121.244 74.582,116.45 C76.476,113.219 78.067,111.737 80.073,111.335 C83.838,110.582 85.876,108.148 86.218,103.995 C86.63,98.999 84.132,99.094 79.438,104.253 Z"/>
</svg>

