<svg xmlns="http://www.w3.org/2000/svg" width="300" height="300" viewBox="0 0 300 300" version="1.1">
  <defs/>
  <path d="M105.414,65.095 C106.457,63.943 108.085,63 109.033,63 C112.547,63 113.492,65.899 113.725,77.403 C113.849,83.506 114.105,92.55 114.296,97.5 C114.486,102.45 114.352,109.11 113.998,112.301 C113.644,115.491 113.759,118.351 114.252,118.655 C115.222,119.255 120,115.206 120,113.783 C120,113.305 121.8,110.478 124,107.5 C126.2,104.522 128,101.47 128,100.717 C128,99.964 129.125,98.292 130.5,97 C131.875,95.708 133,94.3 133,93.87 C133,93.44 134.3,90.883 135.889,88.189 C137.478,85.494 139.11,81.776 139.516,79.927 C141.353,71.562 146.044,67.92 150.171,71.655 C153.803,74.942 152.295,80.556 144.398,93.14 C143.141,95.143 141.101,98.968 139.864,101.64 C137.02,107.782 123.935,123.382 118.288,127.363 C115.929,129.025 113.936,131.086 113.857,131.943 C113.779,132.799 113.649,137.1 113.569,141.5 C113.489,145.9 113.038,157.442 112.566,167.148 L111.708,184.796 L114.609,187.9 C117.422,190.91 117.9,191.038 130.504,192.16 C141.66,193.153 145.34,193.074 156.5,191.605 C163.65,190.664 175.732,189.28 183.35,188.528 C193.153,187.561 197.882,187.194 200.087,184.644 C202.227,182.17 201.99,177.64 201.709,168.51 C201.471,160.805 200.699,150.9 199.992,146.5 C199.259,141.933 198.663,129.059 198.604,116.5 L198.5,94.5 L200.887,94.163 C202.2,93.977 203.655,94.427 204.122,95.163 C204.588,95.898 204.976,102.004 204.985,108.731 C205,120.854 205.798,128.496 208.566,143.023 C209.355,147.16 210,154.608 210,159.573 C210,164.538 210.419,169.028 210.931,169.55 C211.443,170.072 212.161,174.775 212.526,180 L213.191,189.5 L209.161,193.389 C204.59,197.8 199.972,199.044 186.5,199.494 C182.1,199.641 174.675,200.313 170,200.989 C156.603,202.924 121.675,203.166 117.167,201.356 C102.82,195.594 101.401,193.356 102.532,178.285 C103.254,168.668 103.923,142.347 104.293,109 C104.363,102.675 104.218,90.68 103.969,82.345 C103.557,68.502 103.682,67.009 105.414,65.095 Z M75.543,87.25 C76.021,85.734 78.925,85.641 82.567,87.026 C85.1,87.989 85.227,88.329 84.639,92.616 C84.295,95.127 83.11,99.223 82.007,101.718 C80.903,104.213 80,107.103 80,108.141 C80,109.178 79.61,110.809 79.134,111.764 C78.658,112.719 76.759,116.617 74.915,120.427 C73.07,124.236 70.318,129.186 68.798,131.427 C67.279,133.667 66.028,136.261 66.018,137.191 C66.008,138.121 65.54,139.166 64.978,139.514 C63.643,140.338 56.82,149.788 55.24,153 C54.426,154.654 54.093,159.556 54.255,167.487 C54.47,177.99 54.717,179.516 56.249,179.81 C57.32,180.016 61.775,176.83 67.749,171.587 C73.112,166.88 77.993,163.022 78.595,163.014 C79.197,163.006 80.479,163.872 81.444,164.938 C83.124,166.795 83.089,167.017 80.598,170.282 C79.169,172.156 78,174.247 78,174.928 C78,176.536 65.744,187.991 61.653,190.208 C57.435,192.493 50.823,192.487 47.993,190.195 C45.797,188.417 45.766,188.046 45.897,165.445 C46.024,143.426 45.604,137.979 42.044,115.5 C40.99,108.846 42.149,106.278 45.699,107.405 C47.968,108.125 50.985,114.447 51.035,118.586 C51.055,120.189 51.714,122.625 52.5,124 C53.305,125.408 53.945,129.229 53.965,132.75 C53.984,136.188 54.442,139 54.982,139 C55.89,139 68,114.914 68,113.109 C68,112.668 68.722,110.859 69.605,109.09 C71.201,105.89 73.683,97.228 74.645,91.5 C74.922,89.85 75.326,87.938 75.543,87.25 Z"/>
</svg>

