<svg xmlns="http://www.w3.org/2000/svg" width="300" height="300" viewBox="0 0 300 300" version="1.1">
  <defs/>
  <path d="M82.006,42.494 C83.294,41.122 84.639,40 84.994,40 C86.364,40 92,45.754 92,47.152 C92,48.733 87.97,52.675 84.177,54.804 C81.478,56.319 77.668,58.184 66.227,63.591 C58.587,67.201 57.999,67.691 58.533,70 C58.851,71.375 59.321,75.2 59.576,78.5 C59.831,81.8 60.475,86.915 61.007,89.866 C61.539,92.817 61.716,95.651 61.399,96.164 C61.082,96.676 61.081,97.769 61.397,98.591 C62.228,100.757 66,98.542 66,95.888 C66,94.765 67.315,92.531 68.923,90.923 C71.16,88.686 72.767,88 75.768,88 C80.721,88 82.261,89.669 85.469,98.514 C87.551,104.253 87.987,107.331 88.084,116.952 C88.183,126.729 87.888,129.126 86.16,132.578 C85.038,134.821 83.418,137.238 82.56,137.95 C81.702,138.662 81,140.261 81,141.504 C81,146.389 67.31,152.68 64.914,148.895 C63.076,145.992 64.203,143.813 71,137.137 C77.06,131.184 78,129.784 78,126.712 C78,124.76 78.273,122.452 78.607,121.582 C79.786,118.51 76.486,120.03 71.178,125.002 C66.842,129.065 65.274,129.943 62.711,129.744 C59.706,129.511 59.512,129.725 58.378,134.5 C57.726,137.25 57.149,141.836 57.096,144.691 C57.043,147.546 56.55,150.16 56,150.5 C55.45,150.84 55,152.3 55,153.745 C55,157.167 52.031,169.225 50.887,170.45 C49.552,171.88 49.822,176.001 51.25,175.99 C51.938,175.985 54.51,174.383 56.966,172.431 C62.741,167.84 81.904,158.649 89.089,157.023 C93.296,156.071 95.202,156.037 96.793,156.889 C98.729,157.925 104.799,165.966 107.698,171.335 C109.777,175.187 109.308,193.184 106.989,198.5 C106.058,200.634 104.442,207.432 102.983,215.351 C101.838,221.561 100.186,226.597 97.853,230.985 C96.834,232.902 96,235.476 96,236.704 C96,239.522 92.16,247 90.713,247 C90.117,247 88.616,247.951 87.379,249.114 L85.129,251.228 L82.062,249.044 C80.376,247.843 78.474,245.88 77.837,244.68 C77.199,243.481 74.95,240.446 72.839,237.936 C70.727,235.425 68.999,232.95 68.997,232.436 C68.996,231.921 66.747,228.125 64,224 C61.183,219.771 59.004,215.354 59.003,213.872 C58.999,210.722 61.296,208.498 63.34,209.671 C64.604,210.397 75.767,224.556 78.5,228.902 C82.139,234.688 83.35,236 85.049,236 C86.331,236 87.149,235.093 87.53,233.25 C88.499,228.566 90.376,222.615 91.711,220 C92.413,218.625 92.996,216.6 93.006,215.5 C93.016,214.4 93.716,211.025 94.561,208 C96.286,201.831 98.901,188.69 99.684,182.259 C100.097,178.867 99.665,177.104 97.527,173.456 C96.057,170.948 93.875,168.527 92.677,168.076 C89.618,166.925 83.937,167.94 81.115,170.14 C79.803,171.163 78.228,172.002 77.615,172.005 C77.002,172.008 75.15,173.139 73.5,174.518 C71.85,175.898 69.15,177.63 67.5,178.368 C65.85,179.105 62.317,181.381 59.649,183.425 C55.428,186.659 54.318,187.061 51.106,186.518 L47.415,185.894 L43.59,197.697 C41.486,204.189 39.27,211.075 38.665,213 C38.061,214.925 36.989,217.388 36.283,218.473 C35.577,219.557 34.978,221.357 34.952,222.473 C34.926,223.588 34.138,225.903 33.202,227.619 C28.411,236.398 27.349,238.408 25.822,238.866 C25.328,239.014 24.785,239 24.051,239 C18.149,239 15.775,232.504 20.536,229.384 C23.222,227.624 28,218.643 28,215.354 C28,214.279 28.388,212.972 28.863,212.45 C30.749,210.374 38.168,186.431 43.101,166.5 C44.19,162.1 45.533,157.062 46.085,155.304 C47.081,152.138 48.736,141.34 51.036,123 C52.223,113.533 51.891,90.714 50.469,84.152 C50.031,82.13 50.255,79.258 51.034,76.897 C51.743,74.748 52.008,72.674 51.622,72.289 C50.851,71.518 39.257,77.033 34.5,80.434 C32.85,81.614 29.598,83.412 27.273,84.431 C22.329,86.597 19.965,85.516 20.052,81.128 C20.095,78.944 21.574,77.548 28.802,72.872 C33.586,69.776 39.525,66.259 42,65.055 C44.475,63.851 49.65,61.098 53.5,58.937 C57.35,56.776 64.812,52.753 70.081,49.998 C75.351,47.242 80.717,43.865 82.006,42.494 Z M161.427,136.25 C166.195,132.628 170.809,133.474 175.668,138.863 C177.917,141.357 178.011,141.981 177.406,150.386 C176.863,157.923 176.253,160.2 173.384,165.386 C166.153,178.46 165.511,180.002 166.592,181.715 C167.158,182.613 171.478,185.407 176.191,187.924 C180.904,190.441 185.376,193.009 186.13,193.631 C186.883,194.254 189.831,195.933 192.679,197.362 C195.528,198.792 198.128,200.399 198.458,200.933 C198.788,201.467 202.533,204.413 206.779,207.481 C211.026,210.549 216.525,214.638 219,216.567 C221.475,218.496 227.1,222.494 231.5,225.451 C235.9,228.407 240.85,232.258 242.5,234.008 C244.15,235.757 247.975,238.519 251,240.144 C264.394,247.339 269,251.162 269,255.081 C269,256.977 265.631,259 262.474,259 C261.706,259 258.698,257.071 255.789,254.714 C252.88,252.357 248.5,249.394 246.054,248.128 C243.609,246.863 240.459,244.941 239.054,243.855 C237.65,242.77 233.8,240.09 230.5,237.899 C214.059,226.983 211.131,224.858 206.5,220.488 C201.781,216.034 184.532,203.271 178.81,200 C177.367,199.175 173.029,196.588 169.169,194.25 C165.309,191.912 161.451,190 160.596,190 C159.74,190 158.138,191.769 157.035,193.932 C155.931,196.095 154.569,198.148 154.008,198.495 C153.447,198.842 150.91,202.36 148.37,206.313 C145.831,210.266 143.021,214.572 142.127,215.882 C141.232,217.193 140.002,219.119 139.392,220.163 C138.783,221.208 137.555,222.836 136.662,223.781 C135.77,224.726 132.322,228.65 129,232.5 C122.741,239.753 120.482,240.917 109.189,242.708 C104.508,243.45 101,240.06 101,234.794 C101,229.66 103.201,228.86 107.087,232.583 L110.054,235.426 L113.641,233.494 C119.866,230.142 130.727,216.892 141,200.117 C142.925,196.974 145.501,193.423 146.725,192.226 C149.651,189.365 150.673,185.228 148.88,183.506 C146.325,181.055 131.723,173.979 127.983,173.381 C122.976,172.581 122.135,171.925 121.401,168.255 C120.842,165.462 121.149,164.88 124.136,163.058 C125.986,161.93 128.791,161.006 130.369,161.004 C133.771,160.999 142.383,154.622 151.981,145 C155.547,141.425 159.798,137.488 161.427,136.25 Z M122.502,46.996 C123.639,45.156 127.63,45.978 130.045,48.548 C132.215,50.858 132.452,52.029 132.581,61.076 C132.659,66.565 132.999,71.333 133.337,71.671 C134.536,72.869 136.793,69.88 137.845,65.701 C139.044,60.94 144.743,53.701 149.044,51.477 C152.87,49.499 156.115,50.831 159.054,55.587 C161.043,58.806 161.349,60.571 161.274,68.41 C161.227,73.41 160.471,81.496 159.594,86.381 C158.717,91.266 158,97.848 158,101.009 C158,110.022 160.623,110.887 169.594,104.832 C173.309,102.325 174,101.341 174,98.564 C174,95.216 177.213,90 179.275,90 C181.144,90 187,96.255 187,98.251 C187,104.012 180.496,112.483 174.383,114.686 C160.454,119.705 154.041,120.144 149.84,116.368 C147.601,114.355 147.612,110.528 149.91,93.5 C150.43,89.65 150.975,81.775 151.123,76 C151.373,66.226 151.259,65.5 149.475,65.5 C148.421,65.5 147.091,66.4 146.519,67.5 C142.739,74.77 136.494,84.102 134.561,85.368 C132.649,86.621 132.162,88.074 131.606,94.184 C131.24,98.208 130.514,103.525 129.993,106 C129.471,108.475 128.355,114.243 127.513,118.818 C125.208,131.331 122.085,135.685 118.2,131.8 C116.751,130.351 116.622,124.574 117.981,122.035 C119.14,119.87 121.554,101.108 123.176,81.657 C124.108,70.477 124.075,66.821 123.004,62.657 C121.658,57.419 121.382,48.809 122.502,46.996 Z M160.458,150.75 C158.241,152.813 153.743,156.682 150.463,159.35 C143.51,165.004 142.401,166.574 143.998,168.497 C145.511,170.32 154.378,176 155.711,176 C157.165,176 164.528,161.431 166.497,154.659 C169.025,145.962 167.008,144.657 160.458,150.75 Z M71.443,105.446 C70.318,107.164 68.517,108.214 66.007,108.615 C62.344,109.201 62.239,109.338 61.651,114.299 C61.32,117.095 61.256,119.589 61.509,119.842 C61.762,120.096 64.251,117.985 67.04,115.151 C70.436,111.702 72.929,110 74.587,110 C77.416,110 78.805,107.501 77.302,105.114 C75.678,102.535 73.261,102.672 71.443,105.446 Z"/>
</svg>

