<svg xmlns="http://www.w3.org/2000/svg" width="300" height="300" viewBox="0 0 300 300" version="1.1">
  <defs/>
  <path d="M106.169,124.32 C108.571,121.763 110.96,121.36 112.8,123.2 C114.182,124.582 114.44,134.61 113.115,135.429 C112.629,135.729 111.924,138.023 111.548,140.526 C110.884,144.957 109.797,148.067 105.896,156.695 C104.853,159.002 103.979,161.477 103.953,162.195 C103.927,162.913 102.353,166.2 100.455,169.5 C95.562,178.006 94.615,179.948 95.115,180.448 C95.356,180.69 97.567,180.422 100.027,179.852 C102.487,179.282 107.2,179.057 110.5,179.351 C116.764,179.909 119.289,180.783 132.5,186.972 C136.9,189.034 143.65,192.176 147.5,193.954 C163.479,201.338 171.524,205.306 175.136,207.586 C177.239,208.914 179.574,210 180.325,210 C181.076,210 182.489,210.883 183.466,211.962 C184.443,213.042 186.762,214.427 188.621,215.04 C190.479,215.653 192,216.54 192,217.01 C192,217.48 192.787,218.122 193.75,218.436 C194.713,218.751 197.74,221.076 200.477,223.604 C203.215,226.132 207.94,229.478 210.977,231.039 C217.435,234.359 227,242.601 227,244.847 C227,246.49 221.213,253 219.754,253 C219.284,253 216.101,250.188 212.682,246.75 C209.262,243.313 203.829,238.7 200.609,236.5 C197.388,234.3 193.957,231.487 192.983,230.25 C192.009,229.012 190.763,228 190.215,228 C189.667,228 187.031,226.191 184.359,223.981 C181.686,221.77 178.05,219.56 176.279,219.069 C174.507,218.579 171.807,217.3 170.279,216.229 C168.75,215.157 162.424,211.738 156.221,208.63 C150.017,205.523 144.167,202.53 143.221,201.98 C138.741,199.374 114.446,189.997 112.125,189.978 C110.681,189.966 107.538,189.066 105.141,187.978 C102.743,186.89 100.079,186 99.22,186 C98.36,186 96.863,185.281 95.892,184.402 C93.753,182.466 92.502,183.123 90.347,187.313 C89.446,189.066 87.424,192.065 85.854,193.978 C84.284,195.891 83,197.833 83,198.295 C83,198.756 81.875,200.608 80.5,202.411 C79.125,204.214 78,206.092 78,206.586 C78,207.366 76.489,209.804 69.921,219.623 C65.908,225.622 52.401,240.112 50.34,240.629 C47.659,241.302 44.998,239.556 45.005,237.128 C45.007,236.232 46.685,233.7 48.733,231.5 C52.722,227.215 54.136,225.395 60.75,216.037 C63.087,212.729 65,209.637 65,209.166 C65,208.695 65.877,207.516 66.95,206.546 C68.022,205.575 69.75,203.143 70.791,201.141 C71.831,199.138 75.163,193.45 78.196,188.5 C84.654,177.959 94,160.54 94,159.045 C94,158.473 95.325,155.192 96.945,151.753 C98.565,148.314 100.812,141.256 101.94,136.07 C103.291,129.856 104.733,125.848 106.169,124.32 Z M100.555,40.362 C99.92,37.833 100.024,37.755 103.184,38.387 C104.993,38.749 107.069,39.641 107.798,40.37 C109.887,42.458 109.796,59.076 107.649,67.5 C106.668,71.35 105.402,76.3 104.835,78.5 C104.269,80.7 103.399,83.281 102.903,84.236 C102.406,85.191 102,86.909 102,88.052 C102,89.196 101.508,91.05 100.907,92.173 C98.829,96.056 101.475,96.378 106.328,92.833 C112.275,88.488 117.035,85.524 124.98,81.218 C130.566,78.19 132.388,77.706 138.2,77.706 C145.384,77.706 147.114,78.516 149.984,83.222 C151.369,85.493 151.502,87.152 150.785,93.222 C150.312,97.225 149.267,101.694 148.463,103.154 C147.658,104.614 146.985,106.414 146.967,107.154 C146.924,108.883 143.506,113 142.113,113 C141.526,113 140.297,114.143 139.381,115.541 C136.899,119.329 134.472,120.329 132.512,118.369 C130.591,116.448 130.868,115.553 136.038,106.963 C138.938,102.144 140.042,99.144 140.236,95.55 C140.492,90.828 140.399,90.648 137.296,89.821 C134.593,89.1 133.028,89.531 127.296,92.57 C123.558,94.552 120.05,96.533 119.5,96.972 C118.95,97.412 116.025,98.809 113,100.078 C108.005,102.173 99.511,108.006 97.823,110.5 C97.451,111.05 95.494,113.293 93.475,115.484 C91.455,117.675 88.966,121.107 87.944,123.11 C85.985,126.949 84.372,128 80.437,128 C76.786,128 76.324,124.201 79.263,118.345 C81.659,113.572 88.412,100.152 90.123,96.764 C90.605,95.809 91,94.099 91,92.964 C91,91.829 91.598,89.686 92.328,88.2 C93.058,86.715 94.466,81.9 95.457,77.5 C96.448,73.1 97.684,68.313 98.204,66.863 C98.724,65.412 99.291,60.237 99.465,55.363 C99.638,50.488 100.103,45.711 100.498,44.748 C100.893,43.784 100.918,41.811 100.555,40.362 Z"/>
</svg>

