<svg xmlns="http://www.w3.org/2000/svg" width="300" height="300" viewBox="0 0 300 300" version="1.1">
  <defs/>
  <path d="M59.951,27.559 C61.542,25.642 64.779,26.782 67.258,30.135 C69.841,33.629 70.255,33.654 73.409,30.5 C78.179,25.73 83.863,28.381 87.761,37.194 C89.313,40.7 89.905,44.98 90.439,56.545 C90.816,64.711 91.361,71.775 91.649,72.24 C91.937,72.706 91.753,73.63 91.242,74.294 C89.874,76.066 89.706,91.555 91.031,93.69 C92.75,96.461 90.696,100.797 87.285,101.599 C85.753,101.959 83.15,103.493 81.5,105.008 C79.85,106.523 76.795,108.307 74.711,108.972 C71.66,109.945 71.04,110.552 71.527,112.086 C72.389,114.8 70.067,120.984 66.868,124.5 C65.367,126.15 63.815,128.85 63.42,130.5 C63.025,132.15 62.094,134.388 61.351,135.473 C58.18,140.103 61.247,140.258 66.852,135.75 C73.483,130.417 79.645,126 80.454,126 C80.87,126 82.448,124.96 83.959,123.688 C85.69,122.232 89.367,120.874 93.897,120.019 C100.322,118.807 101.666,118.845 106.51,120.372 C112.736,122.334 117.93,127.799 119.94,134.5 C120.6,136.7 121.54,139.4 122.029,140.5 C123.177,143.078 122.668,168.096 121.254,178.613 C120.125,187.009 115.531,206.187 113.918,209.236 C113.413,210.191 113,212.485 113,214.333 C113,216.181 112.257,219.182 111.349,221.002 C109.849,224.009 107.76,232.236 106.324,240.788 C105.896,243.337 104.915,244.513 101.954,246.023 C99.854,247.095 97.854,248.428 97.509,248.986 C97.164,249.544 96.205,250 95.377,250 C92.41,250 83.389,245.168 77.691,240.526 C72.637,236.409 71.928,235.406 72.194,232.75 C72.617,228.534 75.561,226.832 77.816,229.5 C82.435,234.965 91.589,239.108 94.74,237.16 C96.368,236.154 100.558,224.46 102.501,215.5 C103.455,211.1 104.633,206.466 105.118,205.203 C105.603,203.94 106,202.021 106,200.939 C106,199.858 106.39,198.191 106.866,197.236 C108.826,193.305 110.313,188.239 110.75,184 C111.006,181.525 111.704,178.898 112.302,178.163 C114.041,176.025 113.841,144.329 112.061,140 C109.8,134.498 106.174,130.268 103.215,129.68 C99.443,128.929 87.218,132.689 83,135.897 C77.584,140.016 74.207,142 72.612,142 C71.81,142 69.832,143.112 68.216,144.472 C63.889,148.113 60.354,149.238 57.953,147.739 C56.223,146.658 55.665,146.881 53.548,149.501 C52.214,151.15 50.539,153.625 49.826,155 C49.112,156.375 46.384,161.183 43.764,165.684 C41.144,170.186 39,174.387 39,175.021 C39,176.856 26.704,189 24.846,189 C18.47,189 18.181,183.869 24.25,178.411 C26.588,176.308 29.047,173.443 29.717,172.044 C30.386,170.645 32.055,167.7 33.426,165.5 C34.798,163.3 36.686,159.925 37.622,158 C38.559,156.075 40.289,153.15 41.467,151.5 C42.645,149.85 44.857,146.025 46.383,143 C47.91,139.975 50.698,134.59 52.579,131.033 C54.461,127.477 56.002,124.102 56.004,123.533 C56.007,122.965 57.807,120.128 60.004,117.23 C64.566,111.213 64.779,110.382 61.984,109.495 C60.013,108.869 59.971,108.109 60.069,75.02 C60.14,50.953 59.832,40.554 59.001,39.001 C58.108,37.334 58.111,36.146 59.013,33.97 C59.662,32.403 59.886,30.624 59.51,30.017 C59.135,29.409 59.333,28.304 59.951,27.559 Z M128.248,35.826 C130.62,34.32 132.321,35.011 136.155,39.042 C139.514,42.574 140.024,43.742 140.188,48.292 C140.291,51.156 140.522,55.075 140.702,57 C140.881,58.925 141.296,67.362 141.623,75.75 C142.094,87.823 142.508,91 143.609,91 C144.374,91 145,90.553 145,90.007 C145,88.031 168.642,65 170.67,65 C172.844,65 179.124,69.437 180.889,72.221 C182.448,74.678 183.508,87.67 182.277,89.227 C181.724,89.927 181.013,93.127 180.699,96.339 C180.384,99.55 179.535,102.962 178.813,103.921 C178.091,104.88 175.941,107.779 174.035,110.364 C169.925,115.939 167.361,116.183 167.774,110.961 C167.925,109.058 168.986,105.487 170.134,103.027 C172.72,97.482 173.918,83.811 172.019,81.523 C170.38,79.549 167.423,79.577 165.789,81.583 C162.467,85.662 153.942,94 153.095,94 C152.573,94 151.052,96.362 149.714,99.25 C147.792,103.4 146.326,105.01 142.719,106.937 C135.751,110.657 135.36,109.918 134.403,91.214 C133.96,82.571 133.726,73.619 133.883,71.321 C134.2,66.674 132.317,52.609 130.962,49.5 C130.482,48.4 129.394,45.052 128.543,42.06 C127.317,37.752 127.256,36.456 128.248,35.826 Z M158.441,179.5 C160.779,177.693 167.037,177.555 171.929,179.203 C174.977,180.229 192.396,188.316 197,190.842 C197.825,191.294 202.222,193.555 206.771,195.866 C213.807,199.44 221.002,203.863 231.394,211 C236.283,214.358 241.545,218.559 242.261,219.674 C242.679,220.327 246.158,222.946 249.991,225.494 C253.824,228.042 257.221,230.549 257.539,231.064 C257.858,231.579 259.329,232.014 260.809,232.032 C265.579,232.088 270,237.57 270,243.43 C270,247.935 267.512,249.497 263.584,247.459 C260.781,246.005 249.036,236.427 243.392,230.992 C241.683,229.347 239.926,228 239.488,228 C239.05,228 235.138,225.284 230.795,221.965 C226.451,218.645 221.608,215.672 220.032,215.356 C218.456,215.041 215.92,213.482 214.396,211.892 C212.872,210.301 210.88,209 209.968,209 C209.056,209 207.506,208.111 206.523,207.026 C205.54,205.94 203.783,204.754 202.618,204.391 C201.453,204.027 195.831,201.091 190.124,197.865 C184.417,194.639 179.4,192 178.975,192 C178.551,192 175.637,190.65 172.5,189 C169.363,187.35 165.924,186 164.856,186 C163.789,186 162.372,185.535 161.708,184.966 C161.044,184.397 159.6,183.272 158.5,182.466 C156.523,181.017 156.523,180.983 158.441,179.5 Z M146.655,130.829 C147.565,129.823 148.855,129 149.52,129 C151.925,129 156.155,133.331 158.502,138.197 C160.831,143.024 160.87,143.498 159.857,154.833 C159.283,161.25 158.452,167.4 158.009,168.5 C157.566,169.6 156.483,172.143 155.602,174.151 C154.721,176.159 154,178.254 154,178.807 C154,179.693 151.246,185.773 148.929,190 C148.477,190.825 146.799,194.222 145.2,197.55 C143.601,200.877 140.656,205.827 138.655,208.55 C126.072,225.676 125.173,226.662 120.53,228.435 C115.617,230.312 113,230.001 113,227.54 C113,226.702 115.977,222.981 119.615,219.27 C123.254,215.559 126.628,211.618 127.113,210.512 C127.598,209.405 128.559,207.617 129.248,206.538 C135.718,196.401 146.2,176.138 147.115,172 C147.54,170.075 148.623,165.35 149.522,161.5 C151.299,153.88 150.918,143.818 148.747,141.076 C146.797,138.612 145,135.143 145,133.842 C145,133.191 145.745,131.835 146.655,130.829 Z M48.413,176.14 C48.801,175.513 50.228,175 51.584,175 C54.439,175 55.867,177.813 55.998,183.701 C56.154,190.679 55.241,207.628 54.536,210.834 C53.375,216.12 56.936,216.011 67.154,210.446 C68.614,209.651 70.646,209 71.668,209 C72.691,209 75.991,208.1 79,207 C87.332,203.955 88.988,204.414 90.355,210.147 C91.649,215.572 87.533,217.725 69.5,221.056 C65.65,221.767 61.79,222.945 60.921,223.674 C60.053,224.403 58.68,225 57.871,225 C57.062,225 55.973,225.392 55.45,225.871 C54.928,226.35 53.301,227.024 51.837,227.368 C49.668,227.878 48.678,227.406 46.504,224.823 C44.156,222.032 43.9,221.04 44.373,216.575 C45.268,208.126 46.096,202.581 46.699,201 C47.014,200.175 47.37,194.501 47.491,188.39 C47.611,182.28 48.026,176.767 48.413,176.14 Z M73.26,159.25 C73.802,158.563 75.245,158 76.467,158 C80.295,158 81.823,160.873 82.175,168.731 L82.5,175.963 L87,178.231 C92.518,181.013 93.335,183.895 89.347,186.508 C86.988,188.054 85.873,188.163 81.547,187.267 C75.825,186.083 73,187.005 73,190.055 C73,194.919 64.797,203.903 61.508,202.641 C59.586,201.904 59.6,197.113 61.532,194.559 C62.339,193.491 63,191.859 63,190.931 C63,190.004 63.675,188.685 64.5,188 C65.325,187.315 66,186.107 66,185.316 C66,184.524 67.125,181.499 68.499,178.594 C69.877,175.682 71.285,170.436 71.636,166.905 C71.987,163.382 72.718,159.938 73.26,159.25 Z M72.867,49.25 C69.908,53.95 69.522,55.416 69.182,63.25 C68.855,70.762 69.027,72 70.401,72 C71.28,72 72,71.395 72,70.655 C72,68.567 75.189,66.202 78.5,65.834 C81.412,65.51 81.509,65.328 81.802,59.666 C81.969,56.457 81.672,53.307 81.142,52.666 C80.612,52.025 79.864,49.813 79.478,47.75 C79.093,45.688 78.191,44 77.474,44 C76.758,44 74.684,46.362 72.867,49.25 Z M76.719,82.511 C75.739,83.857 73.489,85.333 71.719,85.789 C68.588,86.597 68.492,86.785 68.206,92.651 C67.998,96.926 68.326,99.025 69.33,99.859 C71.47,101.635 73.092,100.498 77.75,93.959 C81.046,89.333 82,87.096 82,83.997 C82,80.845 81.63,80.007 80.25,80.031 C79.287,80.049 77.698,81.164 76.719,82.511 Z"/>
</svg>

