<svg xmlns="http://www.w3.org/2000/svg" width="300" height="300" viewBox="0 0 300 300" version="1.1">
  <defs/>
  <path d="M18.391,78.424 C19.021,76.783 22.303,76.556 24.947,77.972 C27.831,79.515 28.983,92.299 29.328,126.578 L29.5,143.656 L33.25,147.196 C35.737,149.544 37,151.623 37,153.368 C37,156.391 39.724,157.053 40.625,154.25 C42.546,148.272 43.993,145.948 48.719,141.25 C53.234,136.762 54.545,136.005 57.75,136.032 C61.988,136.068 64.02,137.356 65.644,141.038 C67.272,144.728 65.597,153.694 61.773,161.758 C59.969,165.56 58.698,169.712 58.856,171.28 C59.061,173.315 58.046,175.361 55.068,178.919 C52.831,181.591 51,184.361 51,185.074 C51,187.166 46.831,191.001 44.576,190.985 C41.773,190.964 40.338,189.932 39.008,186.98 C38.394,185.616 37.037,182.925 35.994,181 C34.95,179.075 34.074,176.509 34.048,175.297 C33.979,172.113 31.897,168 30.354,168 C29.313,168 29.043,171.095 29.093,182.47 C29.127,190.428 28.894,197.362 28.575,197.879 C27.577,199.494 30.572,209.181 32.383,210.194 C33.635,210.895 36.914,210.189 44.385,207.609 C50.038,205.657 58.677,203.544 63.582,202.914 C82.098,200.534 84.628,200.157 89.5,199.054 C95.602,197.673 102.884,195.949 105.267,195.32 C106.239,195.064 107.692,193.28 108.496,191.355 C109.644,188.609 110.445,187.925 112.22,188.178 C113.521,188.363 115.052,189.695 115.826,191.314 C116.565,192.862 117.829,194.381 118.633,194.69 C120.429,195.379 122.925,192.28 122.968,189.309 C122.986,188.104 123.415,186.861 123.923,186.548 C124.431,186.234 125.165,184.526 125.554,182.753 C125.944,180.98 126.991,178.418 127.881,177.059 C129.902,173.975 131.965,168.15 131.985,165.473 C131.993,164.357 132.787,162.332 133.75,160.973 C135.26,158.839 135.496,156.084 135.469,140.866 C135.447,128.047 135.089,122.812 134.158,121.69 C133.421,120.802 133.01,118.313 133.189,115.824 C133.494,111.582 133.565,111.503 136.955,111.67 C140.714,111.854 143,114.073 143,117.537 C143,118.723 143.68,121.056 144.511,122.722 C146.553,126.816 146.849,144.446 145.024,153.276 C143.413,161.068 143.725,161.676 150.5,163.937 C152.7,164.671 159.675,167.736 166,170.747 C172.325,173.758 180.425,177.589 184,179.26 C187.575,180.932 192.75,184.168 195.5,186.452 C198.25,188.735 202.15,191.556 204.168,192.72 C206.185,193.883 208.66,195.566 209.668,196.459 C210.675,197.351 215.1,200.757 219.5,204.027 C223.9,207.298 230.245,212.342 233.601,215.237 C236.956,218.131 241.855,222.075 244.488,224 C252.832,230.101 256,233.564 256,236.586 C256,239.744 252.515,244 249.929,244 C248.981,244 245.797,241.265 242.853,237.923 C235.713,229.817 233.026,227.18 223,218.439 C218.325,214.364 213.996,211.023 213.381,211.015 C212.765,211.007 210.065,209.262 207.381,207.137 C204.696,205.012 201.15,202.583 199.5,201.738 C197.85,200.893 195.168,198.919 193.54,197.351 C188.997,192.976 164.188,179.416 153.5,175.466 C150.75,174.45 147.491,172.979 146.257,172.199 C143.308,170.332 139,171.381 139,173.965 C139,175.025 137.2,179.371 135,183.622 C132.8,187.874 131,192.146 131,193.117 C131,194.088 130.578,195.142 130.063,195.461 C129.548,195.779 128.473,197.268 127.674,198.77 C121.241,210.862 117.965,216 116.689,216 C116.076,216 114.658,217.148 113.538,218.551 C110.992,221.737 104.144,223.551 102.147,221.567 C100.184,219.617 101.584,216.415 105.022,214.991 C110.206,212.844 117.676,203 114.122,203 C113.639,203 111.502,203.737 109.372,204.638 C101.724,207.873 95.691,209.193 71,213.029 C58.552,214.963 52.366,216.28 50,217.5 C48.625,218.209 44.069,219.365 39.876,220.068 C33.108,221.204 31.856,221.16 28.725,219.674 C26.785,218.753 24.719,218 24.134,218 C20.79,218 20.521,214.029 20.304,161.5 C20.186,132.9 19.584,102.828 18.967,94.674 C18.349,86.52 18.09,79.207 18.391,78.424 Z M119.366,19.489 C120.913,15.458 128.995,20.262 130.32,26 C130.637,27.375 130.985,40.087 131.092,54.25 C131.301,81.716 131.584,83.076 135.885,77.25 C142.786,67.903 158.247,52.68 163.072,50.483 C166.468,48.937 166.817,48.959 170.165,50.935 C172.634,52.392 174.033,54.168 174.844,56.873 C176.223,61.476 176.364,69.218 175.093,70.55 C174.595,71.072 173.234,74.735 172.069,78.688 C170.408,84.329 169.086,86.698 165.933,89.688 C158.818,96.437 152.951,95.714 158.23,88.74 C159.579,86.958 161.47,82.8 162.432,79.5 C163.394,76.2 164.59,72.466 165.091,71.203 C166.313,68.116 166.246,63 164.984,63 C163.329,63 152.59,71.216 149.299,75 C147.625,76.925 145.948,79.91 145.574,81.633 C143.491,91.21 128.362,100.031 124.791,93.75 C123.382,91.27 123.423,91.817 123.025,70.23 C122.871,61.832 122.351,54.717 121.87,54.42 C121.389,54.122 121.268,52.177 121.601,50.096 C121.933,48.015 121.438,40.612 120.5,33.645 C119.562,26.679 119.051,20.308 119.366,19.489 Z M92.247,131.996 C95.392,130.083 96.369,130.095 101.762,132.113 C105.104,133.364 106.623,137.355 105.259,141.299 C104.65,143.06 103.643,147.2 103.02,150.5 C102.397,153.8 101.471,157.625 100.963,159 C100.454,160.375 99.875,163.11 99.676,165.078 C99.477,167.047 98.437,169.972 97.367,171.578 C96.296,173.185 94.94,175.4 94.353,176.5 C92.932,179.163 90.282,179.565 87.966,177.469 C86.747,176.366 85.232,175.976 83.681,176.365 C79.215,177.486 77.6,174.164 77.275,163.191 C77.09,156.908 76.266,151.23 74.922,146.972 C73.785,143.369 73,138.638 73.177,136.46 C73.486,132.668 73.66,132.487 77.275,132.188 C80.768,131.9 81.161,132.142 82.539,135.438 C83.357,137.397 84.275,139 84.579,139 C86.181,139 89,136.736 89,135.45 C89,134.636 90.461,133.082 92.247,131.996 Z M63.225,74.75 C67.088,71.43 73.781,70.912 76.152,73.75 C79.636,77.922 81.456,87.982 79,89.5 C78.45,89.84 78,91.116 78,92.337 C78,93.557 77.213,95.668 76.252,97.027 C75.29,98.387 72.868,102.65 70.87,106.5 L67.238,113.5 L60.369,113.15 C51.858,112.717 50.613,111.823 51.426,106.736 C52.281,101.392 50.59,95.939 47.016,92.515 C44.012,89.637 43.38,86.917 44.63,82.25 C45.469,79.119 48.066,79.443 51.255,83.078 C54.768,87.081 57.15,86.576 58.763,81.486 C59.458,79.294 61.466,76.263 63.225,74.75 Z M77.699,26.335 C79.458,24.501 81.898,23 83.12,23 C85.797,23 89.014,25.699 88.965,27.905 C88.911,30.324 86.602,33.996 84.304,35.319 C83.175,35.969 79.644,38.3 76.458,40.5 C66.07,47.672 64.561,48.65 59.814,51.286 C53.346,54.879 40.386,59.362 38.53,58.65 C37.38,58.209 37.109,56.995 37.442,53.781 C37.686,51.426 37.911,49.163 37.943,48.75 C37.974,48.337 38.587,48 39.304,48 C40.021,48 42.833,46.913 45.554,45.584 C48.274,44.255 54.1,41.491 58.5,39.441 C67.043,35.462 72.55,31.702 77.699,26.335 Z M50.297,154.534 C49.309,155.928 47.038,159.051 45.25,161.474 C42.686,164.95 42,166.857 42,170.51 C42,174.678 42.214,175.107 44.148,174.82 C45.329,174.644 46.64,173.825 47.062,173 C50.062,167.126 55,154.485 55,152.679 C55,151.021 51.929,152.232 50.297,154.534 Z M63.965,89.25 C62.861,91.037 61.712,93.443 61.41,94.595 C60.607,97.661 61.338,104.033 62.5,104.098 C63.528,104.156 63.652,103.952 66.213,98 C67.042,96.075 68.301,93.278 69.011,91.784 C70.056,89.584 70.06,88.777 69.028,87.534 C67.169,85.293 66.205,85.62 63.965,89.25 Z M88.915,151.699 C86.205,158.019 85.841,166.292 88.25,166.787 C89.524,167.049 90,166.505 90,164.785 C90,163.486 90.9,160.658 92,158.5 C94.449,153.697 94.719,147 92.464,147 C91.587,147 90.065,149.015 88.915,151.699 Z"/>
</svg>

