<svg xmlns="http://www.w3.org/2000/svg" width="300" height="300" viewBox="0 0 300 300" version="1.1">
  <defs/>
  <path d="M80.583,96.513 C85.665,91.99 90.32,91.925 90.828,96.371 C91.363,101.053 90.239,103.723 87.437,104.426 C85.264,104.972 84.941,105.501 85.391,107.787 C85.684,109.279 86.217,112.638 86.576,115.25 C87.248,120.152 88.727,121.239 91,118.5 C92.511,116.679 95.668,116.529 96.271,118.25 C96.512,118.938 95.454,121.103 93.92,123.062 C91.232,126.494 91.129,127.052 91.116,138.283 C91.108,144.695 90.804,151.53 90.439,153.471 C89.861,156.555 90.03,157 91.78,157 C93.18,157 94.26,155.807 95.368,153.038 C96.24,150.86 98.147,148.295 99.606,147.339 C102.166,145.661 102.318,145.675 103.969,147.713 C105.681,149.828 105.67,156 103.954,156 C103.503,156 102.816,157.012 102.426,158.25 C102.036,159.488 99.962,163.2 97.816,166.5 C95.671,169.8 92.396,175.65 90.539,179.5 C88.683,183.35 86.002,187.591 84.582,188.924 C81.393,191.919 81.319,193 84.305,193 C85.654,193 89.443,190.614 93.436,187.25 C97.19,184.088 100.99,181.05 101.88,180.5 C102.771,179.95 103.725,179.23 104,178.9 C105.626,176.948 109.127,175.998 111,177 C113.402,178.286 113.434,179.41 111.201,184 C109.35,187.804 95.809,198.566 85.5,204.427 C82.2,206.303 78.15,209.264 76.5,211.007 C74.85,212.75 69.757,216.7 65.182,219.785 C58.831,224.066 56.045,225.369 53.403,225.294 C45.453,225.069 44.545,218.598 51.43,211.237 C61.121,200.875 74.769,184.413 74.934,182.886 C74.97,182.548 72.952,181.991 70.449,181.648 C60.75,180.319 53.46,173.314 54.163,166 C54.459,162.925 54.868,162.464 57.529,162.203 C60.103,161.951 61.063,162.58 63.917,166.389 C68.148,172.036 71.821,173.731 76.038,171.984 C77.709,171.292 79.475,169.981 79.962,169.071 C80.449,168.161 81.094,161.473 81.396,154.208 C81.918,141.622 81.852,141 80.007,141 C78.942,141 77.596,141.886 77.017,142.969 C75.624,145.572 67.969,150 64.862,150 C61.419,150 60,148.211 60,143.871 C60,138.955 62.214,136.762 66.386,137.545 C69.083,138.051 70.235,137.565 73.843,134.403 C79.295,129.624 80.549,127.367 78.874,125.349 C78.139,124.462 77.587,120.936 77.555,116.913 C77.502,110.23 77.417,110 75,109.969 C71.546,109.924 69,107.747 69,104.84 C69,101.678 70.745,100 74.033,100 C75.625,100 78.215,98.621 80.583,96.513 Z M135.189,113.714 C139.367,112.916 139.706,112.981 142.39,115.092 C147.252,118.917 148.186,122.991 147.664,138.108 C147.36,146.934 146.728,152.462 145.867,153.842 C144.198,156.514 145.533,157.951 152,160.445 C154.475,161.399 158.992,164.502 162.037,167.34 C165.083,170.178 170.195,174.3 173.398,176.5 C176.601,178.7 180.416,181.464 181.876,182.641 C183.336,183.819 186.63,186.069 189.196,187.641 C198.684,193.455 211.48,202.596 214.544,205.75 C216.281,207.537 218.023,209 218.415,209 C218.807,209 223.262,212.66 228.314,217.132 C233.366,221.605 239.09,226.275 241.034,227.509 C242.977,228.743 247.027,231.971 250.034,234.683 C253.04,237.395 257.075,240.691 259,242.007 C264.225,245.58 269.868,251.628 270.565,254.401 C271.483,258.062 268.995,262.5 266.025,262.5 C264.252,262.5 262.775,261.306 260.672,258.176 C259.075,255.797 256.695,253.363 255.384,252.765 C254.073,252.168 252.996,251.189 252.99,250.589 C252.978,249.165 241.014,238.397 234,233.498 C230.975,231.385 226.925,228.197 225,226.414 C223.075,224.631 218.954,221.221 215.842,218.836 C212.73,216.451 206.19,211.125 201.308,207 C196.427,202.875 189.601,197.925 186.141,196 C178.312,191.645 171.107,186.877 164.351,181.581 C161.487,179.336 156.218,175.28 152.641,172.566 C149.064,169.852 145.913,166.776 145.639,165.729 C145.33,164.546 144.457,163.958 143.332,164.175 C142.024,164.426 141.339,165.797 140.865,169.109 C140.505,171.631 139.487,175.091 138.605,176.797 C137.722,178.504 137,180.768 137,181.828 C137,182.888 136.325,184.315 135.5,185 C134.675,185.685 134,187.051 134,188.035 C134,189.02 132.425,192.217 130.5,195.14 C128.575,198.063 127,200.943 127,201.539 C127,203.525 123.213,210.497 121.092,212.417 C119.941,213.458 118.992,215.478 118.981,216.905 C118.953,220.861 103.413,236.644 98.67,237.534 C91.178,238.94 91.128,235.564 98.54,228.789 C104.331,223.497 112.021,212.68 115.453,205 C116.559,202.525 119.385,196.934 121.732,192.577 C124.079,188.219 126,184.142 126,183.518 C126,182.893 126.661,181.509 127.468,180.441 C128.276,179.374 128.951,177.514 128.968,176.309 C128.986,175.104 129.4,173.871 129.89,173.568 C130.379,173.266 131.01,171.552 131.293,169.759 C131.935,165.683 133.9,158.144 135.01,155.5 C137.081,150.564 139.271,131.338 138.256,127 C137.935,125.625 136.338,122.835 134.709,120.801 C131.462,116.745 131.621,114.395 135.189,113.714 Z M77.75,15.088 C79.739,13.939 82.826,14.575 84.921,16.564 C86.085,17.669 86.13,18.622 85.171,21.823 C84.527,23.973 84,27.052 84,28.666 C84,30.28 83.557,32.043 83.015,32.585 C82.218,33.382 79.089,48.083 79.018,51.361 C79.008,51.835 80.573,51.927 82.496,51.567 C85.248,51.051 87.004,51.486 90.746,53.614 C96.666,56.98 98,58.589 98,62.362 C98,68.534 91.561,71.312 88.408,66.5 C87.507,65.125 86.295,64 85.714,64 C83.608,64 81,60.627 81,57.904 C81,56.372 80.482,54.798 79.848,54.406 C78.155,53.359 76,56.886 76,60.705 C76,62.532 75.599,64.809 75.108,65.764 C74.618,66.719 72.979,71.55 71.466,76.5 C68.596,85.892 65.618,94.395 63.409,99.5 C62.695,101.15 61.353,105.177 60.427,108.449 C59.5,111.721 57.973,115.771 57.032,117.449 C56.092,119.127 53.615,125.675 51.529,132 C49.442,138.325 47.095,144.736 46.313,146.246 C44.909,148.958 39.589,162.993 38.003,168.17 C37.553,169.639 35.963,173.239 34.469,176.17 C32.976,179.102 31.171,183.525 30.46,186 C29.748,188.475 28.196,192.975 27.01,196 C25.825,199.025 24.376,202.85 23.791,204.5 C23.206,206.15 22.338,207.927 21.864,208.45 C21.389,208.972 21,210.033 21,210.806 C21,211.579 19.875,213.548 18.5,215.182 C17.125,216.816 16,218.715 16,219.402 C16,221.441 11.252,225.311 9.551,224.658 C7.372,223.822 7.582,218.534 10,213.316 C11.1,210.942 12.932,206.862 14.072,204.25 C15.211,201.637 16.561,198.719 17.072,197.764 C17.582,196.809 18,195.371 18,194.569 C18,193.767 19.558,189.691 21.463,185.512 C23.367,181.333 25.232,176.246 25.607,174.207 C26.261,170.651 28.42,165.272 33.516,154.5 C36.053,149.137 39.46,139.766 42.966,128.5 C44.165,124.65 46.285,119.025 47.677,116 C49.07,112.975 50.551,109.6 50.967,108.5 C52.621,104.133 56.239,93.386 56.689,91.5 C56.952,90.4 57.559,88.6 58.039,87.5 C60.743,81.294 62,77.512 62,75.578 C62,74.38 62.372,72.972 62.826,72.45 C64.075,71.014 66.398,62.361 69.524,47.5 C70.45,43.1 71.61,37.613 72.103,35.307 C72.597,33.001 73.003,29.851 73.006,28.307 C73.01,26.763 73.685,24.211 74.506,22.636 C75.328,21.06 76,18.945 76,17.935 C76,16.926 76.787,15.644 77.75,15.088 Z M123.522,27.36 C127.256,24.63 132,26.574 132,30.835 C132,32.356 132.558,34.158 133.24,34.84 C134.162,35.762 134.482,42.732 134.49,62.04 C134.497,80.856 134.815,88 135.644,88 C136.274,88 140.062,84.822 144.064,80.938 C148.065,77.054 152.637,73.205 154.223,72.385 C155.809,71.565 158.01,69.99 159.115,68.885 C161.753,66.247 169.421,63 173.011,63 C178.021,63 179.336,65.417 178.7,73.451 C177.965,82.743 175.586,89.695 171.135,95.559 C167.207,100.736 162.389,103.247 160.926,100.88 C160.45,100.11 160.5,99.1 161.042,98.558 C161.569,98.031 162,96.702 162,95.605 C162,94.507 163.05,92.46 164.332,91.055 C167.843,87.21 170.696,75 168.085,75 C167.581,75 165.894,76.392 164.335,78.093 C162.776,79.794 159.588,82.028 157.25,83.057 C154.912,84.087 153,85.392 153,85.958 C153,86.524 151.215,88.28 149.034,89.861 C144.122,93.419 136,103.248 136,105.635 C136,107.963 130.101,114 127.827,114 C126.847,114 125.346,112.931 124.49,111.625 C123.196,109.651 123.126,108.512 124.074,104.875 C127.8,90.582 127.066,49.985 122.777,33.11 C121.789,29.22 121.873,28.566 123.522,27.36 Z M75.273,195.82 C72.546,197.24 70.747,200 72.55,200 C74.319,200 79,196.716 79,195.474 C79,194.663 78.888,194.032 78.75,194.07 C78.612,194.109 77.048,194.896 75.273,195.82 Z"/>
</svg>

