<svg xmlns="http://www.w3.org/2000/svg" width="300" height="300" viewBox="0 0 300 300" version="1.1">
  <defs/>
  <path d="M92.448,23.419 C94.579,21.856 97.506,22.364 100.25,24.773 C101.484,25.857 102.002,27.812 102.008,31.405 C102.019,39.269 104.243,52.05 108.331,67.752 C109.582,72.557 112.165,74.066 114.9,71.59 C115.867,70.716 117.029,70 117.482,70 C117.936,70 120.742,68.848 123.719,67.44 C130.388,64.285 133.907,64.532 135.968,68.301 C137.462,71.032 137.408,71.186 133.765,74.551 C131.191,76.928 129.072,78 126.95,78 C125.256,78 121.65,78.955 118.935,80.123 C114.031,82.233 114,82.276 114,86.908 C114,89.472 114.9,94.13 116,97.26 C117.1,100.389 118,103.661 118,104.529 C118,105.398 119.8,111.57 122,118.244 C124.2,124.919 126,131.201 126,132.204 C126,133.207 126.394,134.809 126.875,135.764 C127.356,136.719 130.015,144.25 132.784,152.5 C139.556,172.673 140.036,174.036 141.6,177.5 C142.345,179.15 143.427,182.683 144.004,185.352 C144.582,188.021 145.788,191.621 146.686,193.352 C147.583,195.083 148.659,197.85 149.077,199.5 C149.495,201.15 151.224,205.809 152.918,209.854 C154.613,213.898 156,218.259 156,219.545 C156,220.83 156.416,222.139 156.924,222.453 C157.431,222.767 158.611,225.381 159.546,228.262 C160.48,231.143 162.249,235.525 163.477,238 C166.84,244.778 169,249.937 169,251.19 C169,251.806 170.125,253.786 171.5,255.589 C172.875,257.392 174,259.77 174,260.874 C174,261.978 174.46,263.166 175.022,263.514 C175.585,263.861 177.384,266.799 179.021,270.042 C180.957,273.877 182.468,275.758 183.343,275.422 C185.288,274.675 187.204,257.922 187.93,235.321 C188.01,232.818 190.717,229.707 192.081,230.55 C192.586,230.862 193,234.151 193,237.859 C193,241.567 193.461,245.061 194.024,245.624 C194.646,246.246 195.137,255.312 195.274,268.741 L195.5,290.835 L193.076,293.417 C189.387,297.347 186.833,296.739 181.399,290.639 C176.227,284.834 171.597,277.311 165.005,264 C162.69,259.325 160.391,254.713 159.898,253.75 C159.404,252.787 158.596,251.213 158.103,250.25 C157.609,249.287 156.443,246.475 155.511,244 C154.578,241.525 153.23,238.15 152.514,236.5 C151.304,233.713 146.008,220.727 143.744,215 C143.201,213.625 142.136,211.306 141.378,209.846 C140.62,208.386 139.984,206.136 139.965,204.846 C139.945,203.556 139.286,201.375 138.5,200 C137.714,198.625 137.055,196.572 137.035,195.438 C137.016,194.304 136.1,191.513 135,189.236 C133.9,186.959 133,184.502 133,183.775 C133,183.049 131.612,178.865 129.916,174.477 C128.22,170.09 125.731,163.03 124.385,158.79 C123.039,154.549 121.502,150.81 120.969,150.481 C120.436,150.151 120.006,148.896 120.013,147.691 C120.024,145.756 117.151,135.912 110.909,116.5 C109.848,113.2 108.984,109.503 108.99,108.284 C108.995,107.065 108.349,104.59 107.552,102.784 C106.756,100.978 105.825,97.336 105.482,94.692 C105.097,91.715 104.271,89.657 103.313,89.29 C102.463,88.964 99.457,89.86 96.633,91.283 C78.565,100.388 55.962,109.023 46.045,110.609 C43.841,110.961 41.524,111.868 40.896,112.625 C39.458,114.358 33.944,114.411 31.623,112.714 C30.299,111.745 29.943,110.325 30.182,106.964 C30.489,102.652 30.619,102.49 34,102.219 C43.612,101.449 65.121,95.274 79,89.3 C84.264,87.034 98.326,79.885 99.75,78.751 C101.244,77.561 101.412,73.372 100,72.5 C99.45,72.16 99,70.29 99,68.345 C99,65.001 96.859,55.875 95.049,51.5 C92.83,46.139 90.834,36.862 90.676,31.174 C90.53,25.934 90.835,24.602 92.448,23.419 Z M68.16,108.307 C71.104,104.76 76.5,108.454 75.605,113.404 C74.133,121.536 72.998,139.398 73.895,140.295 C74.514,140.914 76.135,139.265 78.42,135.693 C82.066,129.993 85.328,127 87.894,127 C90.447,127 93,130.203 92.999,133.405 C92.999,135.955 91.825,137.557 86.335,142.5 C82.67,145.8 78.311,149.175 76.649,150 C74.756,150.939 73.333,152.612 72.839,154.476 C71.413,159.867 73.673,159.764 78.813,154.202 C83.324,149.321 86.186,147.873 87.409,149.853 C87.699,150.322 87.29,151.559 86.5,152.603 C85.71,153.646 85.049,156.136 85.032,158.135 C85.009,160.776 84.385,162.176 82.75,163.254 C77.656,166.613 55.883,185.752 47.414,194.314 C38.073,203.758 35.923,205.986 34.081,205.756 C33.472,205.68 32.897,205.335 32.106,204.893 C28.443,202.847 28.102,197.951 31.288,193.155 C36.017,186.037 36.35,184.016 35.661,166.676 C34.97,149.316 35.616,145.78 39.58,145.206 C40.697,145.044 42.463,145.854 43.504,147.005 C45.138,148.81 45.456,151.15 45.823,164.049 C46.077,173.007 46.646,179 47.242,179 C47.789,179 49.714,177.762 51.52,176.25 C53.326,174.738 56.59,172.061 58.773,170.302 L62.742,167.103 L63.484,143.829 C64.199,121.393 65.5,111.513 68.16,108.307 Z M75.072,46.414 C76.578,44.599 78.379,44.628 82.05,46.526 C84.012,47.541 85,48.817 85,50.339 C85,53.076 80.49,57.545 77,58.267 C75.625,58.551 72.118,59.83 69.206,61.109 C62.96,63.852 61.431,63.295 59.457,57.553 C57.833,52.828 58.223,52 62.07,52 C65.352,52 73.253,48.605 75.072,46.414 Z M144.112,35.585 C146.098,33.061 146.798,32.822 151.033,33.229 C157.584,33.859 162,37.154 162,41.413 C162,43.432 161.224,45.393 159.978,46.52 C158.061,48.255 157.773,48.262 154.427,46.667 C151.976,45.498 150.36,45.272 149.136,45.927 C147.97,46.551 146.548,46.461 144.937,45.662 C141.588,44.002 141.202,39.284 144.112,35.585 Z"/>
</svg>

