<svg xmlns="http://www.w3.org/2000/svg" width="300" height="300" viewBox="0 0 300 300" version="1.1">
  <defs/>
  <path d="M76.973,15.644 C80.479,13.313 81.761,13.718 83.935,17.843 C85.515,20.842 83.129,28.858 79.126,34 C76.316,37.608 70,47.655 70,48.515 C70,49.825 73.491,48.728 76.411,46.5 C80.335,43.507 83.552,43.294 84.965,45.934 C87.581,50.822 85.437,54.162 77,58.341 C71.181,61.224 64.797,65.335 63.256,67.191 C62.303,68.34 62.319,70.68 63.329,78.077 C64.614,87.485 64.62,87.5 67.395,87.3 C72.188,86.954 73,85.473 73,77.069 C73,67.951 74.305,65.358 78.38,66.38 C81.235,67.097 83.361,70.897 82.362,73.499 C81.581,75.534 82.784,81.617 84.289,83.245 C87.002,86.178 90.281,91.397 90.964,93.87 C91.61,96.207 92.147,96.48 95.778,96.317 C98.026,96.217 100.908,95.483 102.182,94.686 C106.553,91.955 109.727,91.791 111.954,94.181 C113.079,95.389 114,96.967 114,97.689 C114,100.002 110.224,102.869 106.306,103.532 C99.442,104.691 99.298,104.807 98.629,109.687 C98.012,114.195 93.979,120.685 87.055,128.315 C86.689,128.718 86.371,129.062 86.095,129.438 C84.211,131.998 84.288,136 84.75,169.762 L85,188.024 L88.95,187.392 C92.962,186.751 106.522,189.418 107.529,191.047 C107.81,191.502 110.393,193.035 113.27,194.455 C116.146,195.875 119.287,197.589 120.25,198.263 C122.584,199.899 125.214,198.24 126.376,194.396 C126.858,192.803 129.877,186.1 133.085,179.5 C136.293,172.9 139.197,166.15 139.537,164.5 C139.877,162.85 140.556,160.6 141.046,159.5 C141.535,158.4 142.871,153.675 144.015,149 C148.766,129.57 150.061,118.891 148.116,115.184 C147.63,114.258 146.921,111.62 146.54,109.323 C145.921,105.584 146.112,104.973 148.357,103.502 C150.251,102.261 151.345,102.114 152.819,102.903 C155.238,104.198 159,110.418 159,113.123 C159,114.228 159.434,115.942 159.964,116.932 C160.548,118.023 160.58,119.869 160.045,121.616 C158.237,127.525 156.659,134.677 155.88,140.5 C154.519,150.681 153.814,153.997 152.89,154.568 C152.4,154.871 151.986,156.329 151.968,157.809 C151.951,159.289 151.276,161.374 150.468,162.441 C147.867,165.88 148.585,168 152.351,168 C156.67,168 161.367,169.662 166.446,172.986 C168.676,174.445 173.425,176.896 177,178.433 C188.699,183.461 200.06,190.477 219.207,204.5 C231.547,213.537 256.1,234.701 258.191,238.103 C261.816,244.001 261.008,251.99 256.703,252.819 C254.215,253.298 248.115,246.825 247.323,242.866 C246.608,239.291 238.527,230.739 231.751,226.385 C229.689,225.06 227.439,223.039 226.751,221.893 C226.063,220.747 220.775,216.631 215,212.746 C209.225,208.861 202.7,204.383 200.5,202.794 C192.288,196.865 189.397,194.979 185.5,193.013 C183.3,191.903 179.925,190.036 178,188.864 C170.418,184.248 164.034,181.093 159.866,179.902 C157.465,179.216 154.825,178.145 154,177.521 C151.566,175.681 146.918,173.932 145.988,174.507 C144.986,175.127 142,180.887 142,182.202 C142,182.695 139.75,187.641 137,193.195 C134.25,198.748 132,204.51 132,205.999 C132,207.959 130.483,210.194 126.499,214.103 C123.474,217.071 120.014,220.525 118.81,221.779 C115.731,224.983 112.35,225.627 109.96,223.464 C108.882,222.488 108,221.242 108,220.695 C108,220.148 110.25,217.543 113,214.907 C115.75,212.27 118,209.701 118,209.198 C118,208.167 108.483,203 106.582,203 C105.904,203 104.292,201.875 103,200.5 C101.708,199.125 100.046,198 99.307,198 C98.567,198 95.432,196.65 92.34,195 C89.248,193.35 86.219,192.001 85.609,192.002 C84.852,192.003 84.43,197.153 84.279,208.252 C84.027,226.838 83.062,234.17 80.493,237.008 C78.606,239.093 73.563,239.719 72.5,238 C72.16,237.45 71.078,237 70.096,237 C67.531,237 64.783,233.56 65.17,230.832 C65.455,228.819 65.993,228.538 69.106,228.775 C71.287,228.942 73.176,228.493 73.883,227.641 C75.408,225.803 76.419,140 74.916,140 C72.337,140 66.227,147.71 65.01,152.5 C63.088,160.069 61.933,177.851 61.613,204.787 C61.432,220.111 60.936,229.464 60.27,230.13 C58.929,231.471 55.471,229.749 54.006,227.011 C52.715,224.599 52.811,197.245 54.186,175.648 C55.376,156.959 55.013,155.949 49.041,161.344 C46.815,163.355 44.196,165 43.22,165 C42.244,165 40.438,165.705 39.207,166.568 C37.976,167.43 35.964,167.992 34.735,167.818 C32.739,167.534 32.536,167.019 32.842,163 C33.253,157.576 34.072,156.461 38.787,154.905 C43.606,153.315 54.61,144.585 55.37,141.75 C56.417,137.842 56.08,131 54.841,131 C54.203,131 51.298,132.8 48.384,135 C45.47,137.2 42.533,139 41.857,139 C41.182,139 39.7,139.857 38.564,140.904 C37.429,141.951 34.7,143.3 32.5,143.901 C29.087,144.833 28.317,144.745 27.25,143.305 C26.563,142.377 26,140.85 26,139.912 C26,138.195 32.266,132 34.004,132 C34.816,132 39.512,129.032 52.48,120.324 C54.573,118.919 55.947,117.015 56.36,114.949 C57.281,110.346 57.147,105.209 56.09,104.556 C55.59,104.247 52.911,104.517 50.137,105.158 C44.535,106.451 42,105.413 42,101.827 C42,99.704 47.235,97 51.345,97 C55.34,97 55.847,95.315 54.959,85 C54.062,74.583 52.833,70.257 50.515,69.367 C48.205,68.481 48.536,61.73 51,59.5 C52.1,58.505 53,57.037 53,56.238 C53,55.44 54.8,52.526 57,49.763 C59.2,46.999 61,43.846 61,42.756 C61,41.047 60.551,40.866 57.75,41.448 C48.01,43.47 44,41.263 44,33.88 C44,27.672 46.495,25.845 50.746,28.938 C55.243,32.211 61.058,30.297 68.5,23.095 C71.8,19.901 75.613,16.548 76.973,15.644 Z M131.2,23.2 C132.772,21.628 137.48,21.659 138.766,23.25 C141.484,26.609 144.407,52.118 143.116,61.205 C141.587,71.965 143.435,74.94 147.294,67.933 C152.355,58.743 169.037,47.084 177.223,47.015 C178.194,47.006 180.477,49.273 182.452,52.205 C185.495,56.723 185.877,57.945 185.342,61.455 C185.003,63.68 184.245,66.4 183.658,67.5 C183.071,68.6 182.698,70.21 182.829,71.077 C183.177,73.379 175.65,89.173 173.141,91.405 C171.963,92.453 171,93.877 171,94.571 C171,95.993 163.809,102 162.106,102 C160.769,102 160.628,99.348 161.923,98.548 C162.431,98.234 163.159,96.52 163.541,94.739 C163.924,92.957 166.164,87.45 168.519,82.5 C172.487,74.16 173.329,71.732 174.589,65 C175.212,61.676 173.746,59.629 171.3,60.405 C170.228,60.745 166.623,63.606 163.289,66.762 C155.831,73.824 149.305,79.233 146,81.093 C141.608,83.565 140,85.256 139.999,87.405 C139.998,90.35 136.682,98.747 134.761,100.668 C131.466,103.963 128.491,99.719 130.954,95.236 C132.52,92.386 134.23,74.343 134.15,61.5 C134.073,49.031 132.33,33.198 130.852,31.55 C129.588,30.141 129.82,24.58 131.2,23.2 Z M37.858,180.75 C40.552,177.806 42.37,177.43 46.435,178.975 C50.189,180.403 49.667,183.465 44.732,188.953 C42.385,191.564 38.956,196.805 37.112,200.6 C35.268,204.395 32.126,209.354 30.13,211.62 C28.133,213.886 24.925,218.052 23,220.878 C19.034,226.7 16.159,227.989 12.493,225.587 C9.201,223.431 9.303,219.97 12.75,216.808 C18.864,211.201 29,197.371 29,194.637 C29,193.031 34.475,184.447 37.858,180.75 Z M68.635,122.25 C67.278,124.037 65.855,127.188 65.473,129.25 C64.855,132.584 65.003,133 66.816,133 C69.846,133 75,126.244 75,122.272 C75,117.869 71.969,117.858 68.635,122.25 Z M68.207,100.001 C65.161,101.871 64.964,102.304 65.59,105.762 C65.961,107.818 66.457,109.714 66.692,109.976 C66.927,110.238 68.78,109.562 70.809,108.474 C74.115,106.702 74.5,106.081 74.5,102.512 C74.5,97.723 72.935,97.098 68.207,100.001 Z"/>
</svg>

