<svg xmlns="http://www.w3.org/2000/svg" width="300" height="300" viewBox="0 0 300 300" version="1.1">
  <defs/>
  <path d="M159.655,128.829 C161.677,126.594 162.898,126.54 165.777,128.557 C167.802,129.974 168,130.939 168,139.357 C168,144.799 167.543,149.057 166.89,149.71 C166.279,150.321 165.181,153.224 164.451,156.16 C161.46,168.186 154.568,183.099 147.995,191.77 C145.798,194.669 144,198.156 144,199.52 C144,201.787 144.408,202.015 148.75,202.177 C166.359,202.831 197.737,200.393 209.331,197.47 C217.999,195.285 223.224,195.533 225.711,198.25 C228.848,201.678 229.418,204.714 227.478,207.674 C225.922,210.048 225.386,210.204 220.645,209.654 C217.815,209.325 211.45,209.494 206.5,210.029 C201.55,210.563 193,211.48 187.5,212.065 C182,212.65 173,213.257 167.5,213.414 C162,213.57 155.025,214.234 152,214.887 C148.975,215.541 144.025,216.242 141,216.446 C137.975,216.65 131.307,217.324 126.183,217.945 C117.377,219.011 116.625,218.953 112.481,216.884 C107.365,214.328 106.519,212.785 108.244,209.15 C109.935,205.587 115.441,203.003 121.346,203.002 C124.602,203.001 127.121,202.338 129.027,200.981 C131.844,198.975 131.86,198.903 131.493,189.731 C130.969,176.643 129.38,160.377 128.04,154.396 C127.411,151.589 127.033,146.414 127.198,142.896 C127.459,137.377 127.774,136.463 129.5,136.229 C134.603,135.538 137.224,145.408 138.599,170.5 C138.87,175.45 139.325,181.006 139.61,182.847 C140.111,186.088 140.189,186.139 142.064,184.442 C143.129,183.479 144,182.301 144,181.825 C144,181.349 145.057,179.282 146.35,177.23 C147.642,175.179 149.719,170.575 150.964,167 C152.21,163.425 153.796,159.15 154.489,157.5 C156.56,152.568 158,144.265 158,137.252 C158,132.519 158.467,130.141 159.655,128.829 Z M156,101.151 C158.475,98.913 161.203,97.064 162.063,97.041 C164.509,96.977 169.362,102.546 168.35,104.256 C167.121,106.332 160.421,112 159.195,112 C158.622,112 156.881,113.064 155.327,114.363 C153.772,115.663 150.526,117.801 148.114,119.113 C143.741,121.493 142.73,122.095 138,125.127 C136.625,126.009 133.25,127.283 130.5,127.958 C127.75,128.633 124.6,129.557 123.5,130.01 C118.544,132.054 114.374,133 110.319,133 C105.46,133 104.779,132.185 104.605,126.152 L104.5,122.5 L109.718,122.839 C113.093,123.058 116.062,122.617 118.122,121.589 C119.874,120.715 121.94,120 122.713,120 C124.777,120 140.704,112.299 146.5,108.499 C149.25,106.696 153.525,103.39 156,101.151 Z M82.174,178.835 C84.752,176.854 86.575,176.973 86.359,179.108 C86.008,182.565 83.479,190.649 82.301,192.079 C81.585,192.947 81,194.565 81,195.675 C81,200.714 73.798,209.39 68.435,210.811 C66.821,211.239 63.925,211.344 62,211.045 C58.516,210.503 58.501,210.477 58.636,205.5 C58.849,197.703 60.121,191.144 61.671,189.858 C64.027,187.903 64.993,190.087 63.907,194.918 C61.847,204.085 65.18,204.408 71.433,195.646 C73.927,192.152 76.84,187.342 77.908,184.958 C78.975,182.574 80.895,179.819 82.174,178.835 Z M38.301,149.657 C39.108,147.554 41.364,147.529 43.086,149.604 C45.511,152.525 48.853,153.129 53.624,151.509 C60.467,149.186 65.212,149.532 68.057,152.561 C70.221,154.864 70.448,155.933 70.31,163.152 C70.147,171.663 68.454,180.601 66.812,181.616 C64.67,182.94 64.131,180.217 65.162,173.274 C66.532,164.045 65.692,159.272 62.436,157.789 C60.349,156.838 59.612,157.016 57.532,158.97 C55.476,160.901 54.338,161.185 50.428,160.745 C43.388,159.951 36.698,153.834 38.301,149.657 Z M62.223,92.557 C63.445,91.701 65.887,91 67.65,91 C71.671,91 75,94.884 75,99.576 C75,101.394 75.45,103.16 76,103.5 C77.516,104.437 77.196,108.592 75.5,110 C74.675,110.685 74,111.7 74,112.256 C74,113.553 68.86,117.997 67.357,117.999 C65.525,118.001 65.042,115.432 66.132,111.484 C67.363,107.026 66.717,105 64.067,105 C59.726,105 58.29,95.311 62.223,92.557 Z M128,72.29 C129.34,71.614 130.087,71.203 130.845,71.181 C131.953,71.148 133.085,71.945 136.128,73.961 C139.996,76.524 140.845,77.745 142.429,83.034 C144.433,89.725 144.173,90.873 139.41,96.345 C137.377,98.679 136.668,98.969 135.454,97.962 C134.4,97.087 134.275,96.374 135.018,95.479 C136.613,93.557 134.537,85.792 131.949,84 C124.834,79.073 123.339,74.64 128,72.29 Z"/>
</svg>

