<svg xmlns="http://www.w3.org/2000/svg" width="300" height="300" viewBox="0 0 300 300" version="1.1">
  <defs/>
  <path d="M98.504,20.993 C100.053,18.487 107,21.857 107,25.115 C107,27.095 109.441,27.713 110.5,26 C112.344,23.016 121,28.05 121,32.106 C121,33.058 119.339,35.337 117.309,37.169 C109.03,44.639 108.311,45.696 107.645,51.367 C107.291,54.372 106.713,57.584 106.36,58.505 C105.83,59.884 106.261,60.123 108.796,59.857 C110.977,59.629 112.623,60.237 114.438,61.942 C117.799,65.099 117.673,67.331 113.974,70.174 C107.041,75.502 105.899,76.941 101.062,86.449 C98.278,91.921 96,96.983 96,97.699 C96,99.834 98.356,99.187 102.038,96.041 C103.942,94.413 105.872,93.063 106.326,93.041 C106.78,93.018 109.705,91.07 112.826,88.71 C130.61,75.265 136.233,73.28 136.81,80.246 C137.079,83.493 136.613,84.458 133.31,87.491 C131.215,89.416 128.736,90.993 127.802,90.995 C126.868,90.998 123.493,93.163 120.302,95.807 C114.657,100.483 96.671,112 95.012,112 C92.906,112 84.535,123.133 80.449,131.37 C77.957,136.392 75.539,141.175 75.075,142 C74.611,142.825 73.64,144.85 72.917,146.5 C72.193,148.15 70.656,150.85 69.501,152.5 C68.346,154.15 66.793,157.397 66.052,159.715 C65.31,162.034 63.645,164.925 62.351,166.14 C61.058,167.355 60,168.988 60,169.77 C60,170.552 59.194,172.386 58.208,173.846 C57.223,175.306 55.535,178.215 54.458,180.311 C52.05,184.996 40.175,199.907 33.998,206 C31.489,208.475 27.779,211.35 25.754,212.388 C22.294,214.162 21.917,214.176 19.536,212.615 C17.562,211.322 17,210.116 17,207.177 C17,202.763 18.408,201.003 21.95,200.991 C25.146,200.98 35.263,192.514 39.722,186.12 C41.494,183.579 43.302,181.05 43.74,180.5 C45.332,178.502 53.735,164.386 55.944,160 C60.875,150.209 68.379,136.367 70.057,133.966 C71.805,131.466 73.754,124 72.658,124 C71.541,124 66.429,126.482 62.977,128.701 C61.039,129.947 56.989,131.437 53.977,132.013 C49.012,132.962 48.349,132.875 46.879,131.079 C45.016,128.802 45.446,124.436 47.798,121.736 C48.903,120.468 50.201,120.132 52.418,120.541 C55.619,121.131 63.218,118.943 65.95,116.643 C66.803,115.926 69.525,114.576 72,113.643 C79.881,110.672 81.751,108.093 89.687,89.25 C90.553,87.195 85.511,87.778 83.534,89.962 C82.557,91.042 80.22,92.432 78.34,93.053 C73.728,94.575 72,93.058 72,87.486 C72,81.633 77.037,75.127 81.628,75.052 C83.348,75.023 85.301,74.342 85.968,73.539 C86.635,72.735 88.152,71.782 89.34,71.42 C92.856,70.351 95,67.878 95,64.894 C95,63.356 95.666,59.542 96.479,56.419 C98.077,50.282 97.732,48.491 95.149,49.521 C94.242,49.883 91.025,50.543 88,50.987 C84.975,51.432 80.871,52.106 78.88,52.485 C75.609,53.107 75.045,52.873 73.032,50.045 C69.672,45.326 70.821,42.34 76.244,41.701 C83.318,40.867 95.145,38.125 96.493,37.006 C97.28,36.353 97.784,33.313 97.825,28.97 C97.861,25.129 98.167,21.539 98.504,20.993 Z M125.302,145.25 C127.627,142.694 127.91,142.635 131.435,143.975 C134.849,145.273 134.871,149.973 131.5,157.596 C130.125,160.705 129,163.874 129,164.638 C129,165.402 128.586,166.809 128.08,167.764 C127.575,168.719 126.248,171.382 125.132,173.681 L123.104,177.862 L125.156,180.471 C126.284,181.906 130.234,184.604 133.933,186.466 C143.693,191.381 152.043,198.552 166.5,214.435 C177.302,226.302 193,250.172 193,254.731 C193,256.051 193.454,257.98 194.01,259.018 C194.8,260.495 194.545,261.346 192.833,262.941 C188.953,266.556 187.323,266.427 181.853,262.072 C179.04,259.833 176.133,258 175.392,258 C173.582,258 170.647,253.381 171.539,251.936 C171.993,251.202 173.656,251.009 176.126,251.404 C178.257,251.745 180,251.764 180,251.446 C180,250.571 177.796,246.568 177.002,246 C176.617,245.725 175.059,243.25 173.538,240.5 C169.597,233.375 162.949,225.307 151.847,214.177 C140.104,202.406 133.51,197 130.892,197 C128.078,197 120.935,193.179 118.014,190.111 C114.976,186.921 112.897,179.722 113.649,175 C113.956,173.075 115.429,168.8 116.922,165.5 C120.163,158.337 122.014,153.397 122.729,150 C123.018,148.625 124.176,146.488 125.302,145.25 Z M88.888,153.75 C90.118,150.568 93.912,149.984 96.116,152.64 C98.854,155.939 102.684,173.387 103.461,186.107 C103.782,191.368 104.391,196.983 104.814,198.586 C105.642,201.724 105.566,224.152 104.662,243.364 C104.065,256.064 102.92,259 98.568,259 C96.136,259 92,256.389 92,254.855 C92,254.287 89.96,251.5 87.466,248.661 C84.33,245.091 83.084,242.881 83.424,241.492 C83.695,240.387 83.527,238.853 83.051,238.082 C81.726,235.938 82.944,234 85.617,234 C87.898,234 89.2,235.049 92.329,239.403 C95.446,243.74 96.001,240.351 95.964,217.191 C95.937,199.968 95.553,193.054 94.37,188.5 C93.513,185.2 92.813,181.6 92.814,180.5 C92.816,179.4 91.694,173.55 90.321,167.5 C88.356,158.837 88.052,155.916 88.888,153.75 Z M100.25,125.031 C106.41,122.555 121.303,124.422 131,128.885 C133.475,130.024 136.21,130.966 137.078,130.978 C137.945,130.99 141.545,132.197 145.078,133.659 C148.61,135.122 154.2,136.89 157.5,137.588 C163.29,138.812 171.76,141.45 175.127,143.077 C176.022,143.509 178.392,144.171 180.394,144.546 C186.925,145.771 190.382,153.534 186.116,157.395 C184.597,158.77 183.207,158.964 178.936,158.397 C172.029,157.481 168.561,155.638 168.527,152.866 C168.509,151.401 167.671,150.436 166,149.952 C160.711,148.422 145.357,143.863 142.429,142.954 C140.74,142.429 138.663,142 137.814,142 C136.965,142 135.126,141.1 133.727,140 C132.329,138.9 130.27,138 129.151,138 C128.033,138 126.84,137.55 126.5,137 C126.16,136.45 124.805,136 123.488,136 C122.171,136 120.06,135.598 118.797,135.107 C117.534,134.615 112.9,133.671 108.5,133.008 C104.1,132.345 99.938,131.342 99.25,130.779 C97.256,129.146 97.801,126.016 100.25,125.031 Z M70.5,191.983 C75.305,190.736 75.952,190.861 78.65,193.559 C80.905,195.814 81.13,196.65 80.54,200.58 C79.828,205.327 75.131,215.138 71.929,218.564 C70.868,219.7 70,221.147 70,221.779 C70,223.471 66.283,225.267 65.478,223.965 C64.603,222.549 67.018,213.195 69.212,209.5 C70.191,207.85 70.994,205.938 70.996,205.25 C71.003,203.081 66.447,203.895 64,206.5 C61.259,209.417 59.365,209.641 56.829,207.345 C51.698,202.702 58.456,195.109 70.5,191.983 Z M55.705,242.25 C58.312,239.912 60.945,238 61.556,238 C63.96,238 63.797,239.434 60.918,243.619 C57.704,248.291 53.458,250.294 51.875,247.885 C51.212,246.876 52.251,245.347 55.705,242.25 Z"/>
</svg>

