<svg xmlns="http://www.w3.org/2000/svg" width="300" height="300" viewBox="0 0 300 300" version="1.1">
  <defs/>
  <path d="M152.5,144.852 C164.425,140.961 175.498,155.146 169.506,166.636 C168.685,168.211 168.01,170.294 168.006,171.264 C168.003,172.234 167.588,173.809 167.084,174.764 C165.361,178.03 163,183.801 163,184.746 C163,185.265 162.1,186.505 161,187.5 C159.9,188.495 159,189.981 159,190.802 C159,191.623 157.425,194.216 155.5,196.565 C153.575,198.915 152,201.285 152,201.833 C152,202.382 149.905,204.674 147.345,206.927 C144.785,209.181 142.933,211.266 143.228,211.562 C143.524,211.857 146.631,211.658 150.133,211.12 C153.635,210.581 160.55,209.599 165.5,208.938 C170.45,208.277 176.525,207.125 179,206.379 C185.23,204.5 186.407,204.63 189.923,207.589 C192.362,209.641 193,210.963 193,213.966 C193,219.406 191.23,220.497 185.536,218.564 C179.65,216.565 175.934,216.587 171.621,218.644 C168.803,219.988 167.402,220.091 163.94,219.213 C160.431,218.322 158.833,218.457 154.603,220.004 C151.796,221.03 147.491,222.393 145.035,223.031 C142.58,223.67 139.481,225.049 138.15,226.096 C136.819,227.143 135.118,228 134.369,228 C132.782,228 121.501,231.656 118.327,233.199 C114.849,234.89 111.257,233.447 110.513,230.06 C109.75,226.585 111.179,223.488 114.273,221.91 C119.959,219.011 125.951,214.338 125.974,212.785 C125.988,211.842 125.079,210.578 123.954,209.975 C122.828,209.373 119.984,204.97 117.633,200.19 C115.282,195.411 112.882,190.6 112.299,189.5 C111.715,188.4 110.305,185.466 109.164,182.98 C108.023,180.495 105.72,176.926 104.045,175.05 C100.514,171.095 100.238,168.999 102.928,166.565 C105.945,163.834 113,166.964 113,171.033 C113,171.98 113.675,173.315 114.5,174 C115.325,174.685 116,175.896 116,176.692 C116,177.621 116.806,178.025 118.25,177.82 C119.899,177.585 120.901,176.329 122,173.117 C124.603,165.511 143.85,147.674 152.5,144.852 Z M123.454,28.41 C125.721,26.752 127.906,26.634 131.435,27.975 C133.699,28.836 133.997,29.511 133.978,33.725 C133.96,37.847 132.31,49.47 130.321,59.5 C129.993,61.15 129.112,63.388 128.363,64.473 C127.613,65.557 127,67.476 127,68.736 C127,69.996 126.605,71.809 126.123,72.764 C124.619,75.741 123.002,81.533 122.966,84.071 C122.928,86.775 120.802,91.473 116.889,97.5 C114.537,101.122 113.958,102.495 112.353,108.25 C111.244,112.227 117.014,109.719 131.631,99.872 C141.811,93.012 145.297,88.965 145.955,83.241 L146.5,78.5 L151.5,78.5 C156.5,78.5 156.5,78.5 159.003,83.5 C160.38,86.25 162.967,90.606 164.753,93.18 C166.539,95.754 168,98.205 168,98.625 C168,99.046 169.058,100.54 170.35,101.945 C173.668,105.552 176.231,112.673 175.465,116.159 C174.704,119.626 169.263,123.044 167.933,120.891 C167.492,120.178 167.383,118.335 167.691,116.797 C168.038,115.06 167.824,114 167.125,114 C166.506,114 166,112.971 166,111.714 C166,110.449 164.2,107.432 161.972,104.964 C159.757,102.509 157.271,99.263 156.447,97.75 C153.564,92.458 151.162,93.629 136.354,107.544 C128.84,114.605 123.112,118.932 120.408,119.591 C118.808,119.98 116.612,120.906 115.527,121.649 C113.047,123.348 105.385,123.417 104.317,121.75 C103.041,119.759 101.032,113.664 101.015,111.736 C101.007,110.766 101.402,109.191 101.892,108.236 C102.383,107.281 104.238,103.576 106.014,100.003 C107.791,96.429 110.089,92.431 111.122,91.118 C112.155,89.805 113,87.47 113,85.93 C113,84.39 113.494,81.863 114.097,80.315 C114.7,78.767 115.84,75.25 116.629,72.5 C122.097,53.457 123.261,48.618 124.071,41.569 C124.866,34.643 124.763,33.395 123.254,31.728 C121.613,29.915 121.623,29.748 123.454,28.41 Z M148.242,159.75 C143.437,163.006 133.518,172.439 130.029,177.07 C128.493,179.109 127.666,181.381 127.844,183.076 C128.001,184.575 127.651,186.098 127.065,186.46 C126.479,186.822 126,188.195 126,189.51 C126,193.467 128.795,202.938 130.451,204.594 C131.303,205.446 132,206.561 132,207.071 C132,209.245 134.629,207.656 139.15,202.75 C141.811,199.863 143.99,197.171 143.994,196.769 C143.997,196.367 146.223,192.729 148.94,188.685 C156.626,177.244 159.019,172.116 159.696,165.631 C160.224,160.578 160.043,159.505 158.467,158.352 C155.672,156.308 152.728,156.711 148.242,159.75 Z M66.318,175.217 C69.058,171.637 71.163,179.225 69.083,185.19 C68.342,187.316 68.355,188.794 69.125,190.234 C69.988,191.846 69.728,193.337 67.879,197.385 C65.168,203.319 63.506,205.461 56,212.697 C52.79,215.792 49.593,217.999 48.323,218 C45.817,218 42.21,213.872 41.409,210.088 C41.108,208.664 40.419,206.415 39.878,205.088 C39.124,203.238 39.271,202.306 40.509,201.088 C41.984,199.636 42.246,199.666 43.561,201.441 C44.353,202.509 45,204.453 45,205.761 C45,209.817 48.924,208.112 53.659,202 C56.002,198.975 57.937,195.894 57.959,195.154 C57.982,194.414 58.87,192.587 59.934,191.093 C60.997,189.6 62.159,187.055 62.515,185.439 C63.4,181.422 65.133,176.764 66.318,175.217 Z M46.667,77.667 C47.033,77.3 49.561,77 52.284,77 C56.685,77 57.644,77.417 60.914,80.75 C67.86,87.829 68.71,97.665 62.662,100.979 C60.127,102.368 59.774,102.348 58.582,100.749 C57.865,99.786 57.48,97.937 57.728,96.642 C58.053,94.941 57.421,93.689 55.454,92.143 C53.956,90.964 52.116,90 51.365,90 C48.662,90 46,86.113 46,82.167 C46,80.058 46.3,78.033 46.667,77.667 Z M28.634,143.852 C30.838,141.417 32.26,142.538 31.479,146.095 C30.698,149.652 31.004,149.668 36.635,146.368 C40.404,144.159 41.517,143.915 43.563,144.847 C45.755,145.845 46,146.566 46,152.01 C46,158.5 44.393,160.52 41.114,158.153 C37.874,155.813 36.852,155.79 34.494,158.005 C32.947,159.459 30.737,160.306 28.295,160.382 C24.695,160.494 24.484,160.329 24.18,157.158 C24.004,155.32 24.566,152.327 25.43,150.507 C26.293,148.687 27,146.851 27,146.428 C27,146.004 27.735,144.845 28.634,143.852 Z"/>
</svg>

