<svg xmlns="http://www.w3.org/2000/svg" width="300" height="300" viewBox="0 0 300 300" version="1.1">
  <defs/>
  <path d="M132.5,61.648 C135.568,59.587 137.199,59.112 139.5,59.607 C143.348,60.435 149.701,65.434 150.538,68.291 C150.894,69.506 152.122,72.491 153.266,74.925 C155.069,78.757 155.405,81.767 155.781,97.425 C156.046,108.502 155.762,118.404 155.047,123 C154.405,127.125 153.622,133.773 153.307,137.773 C152.797,144.253 152.413,145.316 149.79,147.523 C148.171,148.885 146.303,150 145.639,150 C143.612,150 131,136.755 131,134.626 C131,133.797 130.552,132.841 130.004,132.502 C128.932,131.84 131.456,126 132.814,126 C133.233,126 135.269,128.025 137.338,130.5 C139.407,132.975 141.752,135 142.55,135 C143.347,135 144.023,134.887 144.051,134.75 C145.099,129.602 146.275,108.905 146.129,98.183 C145.963,86.081 145.606,83.116 143.818,79.023 C140.511,71.447 138.544,70.952 129.793,75.486 C125.782,77.565 121.296,80.383 119.824,81.749 L117.147,84.233 L117.349,105.867 C117.461,117.765 116.987,134.925 116.297,144 C115.606,153.075 115.017,167.412 114.986,175.86 C114.932,190.903 114.984,191.29 117.532,194.631 C121.482,199.809 123.539,200.685 136,202.496 C148.82,204.359 166.551,203.958 178,201.547 C183.809,200.324 189.025,199.53 205.29,197.391 C209.193,196.877 210.562,196.129 212.682,193.351 C215.19,190.063 215.278,189.485 215.14,177.22 C215.062,170.224 214.567,161.575 214.042,158 C210.363,132.987 210.342,131.573 213.622,130.315 C215.769,129.491 218,132.478 218,136.176 C218,137.713 219.125,142.852 220.5,147.597 C221.875,152.342 223,157.722 223,159.553 C223,161.384 223.384,163.119 223.853,163.409 C224.323,163.7 224.999,167.083 225.357,170.929 C225.714,174.774 226.511,179.028 227.128,180.382 C227.852,181.97 227.996,185.211 227.535,189.514 C226.933,195.141 226.327,196.692 223.66,199.427 C218.638,204.579 213.068,207.42 206.5,208.181 C203.2,208.563 197.35,209.327 193.5,209.878 C176.71,212.283 165.929,213.346 158,213.381 C123.946,213.529 113.6,210.423 107.803,198.311 C105.864,194.261 105.475,191.724 105.341,182.273 C105.254,176.098 105.572,166.648 106.049,161.273 C106.525,155.898 107.168,143.85 107.478,134.5 C107.787,125.15 108.27,114.294 108.551,110.376 C109.249,100.614 107.369,89.428 104.244,84.759 C101.132,80.109 102.327,78 108.074,78 C111.488,78 112.24,77.511 115,73.5 C117.203,70.299 118.782,69 120.471,69 C121.778,69 124.119,67.95 125.673,66.667 C127.228,65.384 130.3,63.125 132.5,61.648 Z M83.629,161.644 C84.978,160.19 86.513,159 87.04,159 C88.537,159 88.167,165.617 86.598,166.919 C85.827,167.558 84.906,169.301 84.55,170.791 C83.897,173.531 82.57,176.54 75.141,192.121 C70.778,201.272 64.971,208 61.434,208 C58.601,208 55.759,204.711 56.17,201.908 C56.355,200.643 57.819,198.932 59.5,198.015 C61.15,197.115 62.944,195.394 63.487,194.19 C64.03,192.985 64.818,192 65.237,192 C65.657,192 66,191.413 66,190.695 C66,189.978 68.06,186.49 70.579,182.945 C73.097,179.4 76.512,173.752 78.167,170.394 C79.823,167.036 82.281,163.098 83.629,161.644 Z M64,72.247 C69.309,69.488 76.635,73.122 78.815,79.596 C80.776,85.419 79.369,89.409 75.212,89.814 C72.818,90.047 71.821,89.66 71.344,88.314 C70.337,85.47 66.822,82 64.948,82 C60.404,82 59.674,74.495 64,72.247 Z M38.721,128.756 C40.193,127.129 41.311,126.948 46.471,127.499 C54.309,128.337 58.621,130.367 60.57,134.136 C63.202,139.225 60.745,141.573 55.684,138.806 C54.386,138.096 50.505,137.728 46.117,137.899 C38.187,138.209 37.044,137.603 37.015,133.079 C37.007,131.747 37.774,129.802 38.721,128.756 Z"/>
</svg>

