<svg xmlns="http://www.w3.org/2000/svg" width="300" height="300" viewBox="0 0 300 300" version="1.1">
  <defs/>
  <path d="M144.5,146.064 C147.8,144.998 152.585,144.098 155.134,144.063 C159.306,144.006 160.127,144.398 163.384,148.003 C165.373,150.204 167.078,153.017 167.174,154.253 C167.27,155.489 167.456,157.85 167.589,159.5 C167.721,161.15 168.289,164.269 168.85,166.431 C171.425,176.347 166.981,217.672 162.826,222.45 C162.372,222.972 162,224.389 162,225.597 C162,229.714 151.769,239 147.234,239 C144.235,239 132.976,226.232 131.401,221.044 C128.478,211.413 130.336,205.465 135.53,207.832 C137.483,208.721 138,209.702 138,212.514 C138,214.47 138.787,217.292 139.75,218.785 C141.906,222.129 147.64,228 148.751,228 C149.77,228 153.237,222.35 154.274,219 C157.531,208.478 161.222,183.673 160.443,177.539 C159.035,166.447 157.619,158.325 156.819,156.75 C155.461,154.077 147.1,154.373 142.692,157.25 C139.487,159.342 139.197,159.972 138.564,166.227 C138.19,169.927 137.46,173.216 136.942,173.536 C136.424,173.856 136,175.161 136,176.437 C136,177.712 135.325,179.315 134.5,180 C133.675,180.685 133,182.513 133,184.063 C133,185.614 132.55,187.16 132,187.5 C131.45,187.84 131,188.799 131,189.63 C131,190.462 130.325,191.818 129.5,192.643 C128.675,193.468 128,195.029 128,196.111 C128,197.194 127.1,199.844 126,202 C124.9,204.156 124,206.977 124,208.269 C124,209.561 123.339,211.491 122.532,212.559 C121.724,213.626 121.038,215.175 121.006,216 C120.928,218.052 114.208,231.246 109.697,238.202 C107.664,241.338 106,244.155 106,244.461 C106,245.043 93.172,262.129 92.08,263 C91.736,263.275 90.65,264.763 89.667,266.307 C88.16,268.673 87.307,269.065 84.229,268.807 C81.298,268.56 80.452,268.008 79.935,266 C79.413,263.976 80.096,262.642 83.517,259 C89.08,253.077 102.506,233.287 104.673,227.815 C105.613,225.442 107.6,221.25 109.088,218.5 C110.577,215.75 113.217,209.225 114.957,204 C116.696,198.775 118.542,194.073 119.059,193.55 C119.577,193.028 120,191.616 120,190.414 C120,189.212 120.672,186.94 121.494,185.364 C122.315,183.789 122.99,181.803 122.994,180.95 C122.997,180.097 123.437,178.963 123.972,178.428 C124.506,177.894 125.251,174.151 125.626,170.112 L126.309,162.768 L120.34,163.46 C113.677,164.234 112.688,163.649 111.683,158.337 C110.899,154.193 112.152,153.295 119.5,152.728 C125.484,152.268 132.709,150.647 136.5,148.916 C137.6,148.414 141.2,147.13 144.5,146.064 Z M106.534,99.609 C111.017,95.126 116.599,99.781 115.675,107.231 C114.635,115.617 113.31,120.552 111.175,124 C109.983,125.925 109.006,128.12 109.004,128.879 C109.002,129.637 107.289,132.787 105.197,135.879 C103.106,138.97 100.777,143.02 100.023,144.878 C98.372,148.943 88.339,159 85.934,159 C83.377,159 79.787,155.718 80.454,153.991 C80.772,153.171 82.645,151.398 84.618,150.051 C87.648,147.982 91.499,142.488 97.973,131 C98.781,129.565 103.3,119.908 105.313,115.311 C105.842,114.105 105.97,110.45 105.599,107.17 C105.059,102.396 105.244,100.899 106.534,99.609 Z M145.571,102.571 C147.969,100.174 150.94,100.668 157.341,104.527 C166.108,109.814 176.787,113.965 181.682,113.989 C182.98,113.996 184.772,115.275 186.105,117.147 C188.147,120.016 188.218,120.521 186.903,122.864 C185.955,124.552 184.117,125.752 181.549,126.359 C178.04,127.189 177.426,127.033 175.569,124.844 C173.2,122.05 168.971,120 165.575,120 C164.294,120 162.73,119.379 162.1,118.621 C161.47,117.862 159.678,116.986 158.117,116.673 C156.556,116.361 153.914,114.957 152.245,113.553 C150.577,112.149 148.746,111 148.177,111 C146.5,111 144,108.007 144,106 C144,104.979 144.707,103.436 145.571,102.571 Z M81.82,183.043 C85.357,180.983 88.449,184.742 85.708,187.77 C84.769,188.808 84,190.354 84,191.206 C84,192.058 83.325,193.315 82.5,194 C81.675,194.685 81,195.941 81,196.792 C81,200.786 59.895,225 56.414,225 C53.75,225 52.042,218.66 53.607,214.582 C53.941,213.712 55.087,213 56.155,213 C58.114,213 62.91,208.391 62.968,206.453 C62.986,205.877 64.833,203.627 67.072,201.453 C69.312,199.279 73.169,194.467 75.642,190.761 C78.116,187.054 80.896,183.581 81.82,183.043 Z M53.65,102.758 C53.907,102.341 55.936,102 58.158,102 C63.91,102 68,106.422 68,112.641 C68,118.068 65.641,122 62.385,122 C60.271,122 60,121.548 60,118.019 C60,114.502 59.679,113.962 57.25,113.381 C52.73,112.302 51.773,111.025 52.514,107.072 C52.881,105.116 53.392,103.174 53.65,102.758 Z M27.759,160.121 C28.679,157.551 47,160.71 47,163.438 C47,164.772 43.903,165.596 35,166.629 C30.863,167.108 30.369,166.922 28.883,164.325 C27.993,162.771 27.487,160.879 27.759,160.121 Z"/>
</svg>

