<svg xmlns="http://www.w3.org/2000/svg" width="300" height="300" viewBox="0 0 300 300" version="1.1">
  <defs/>
  <path d="M150,62.165 C154.7,60.229 159.451,60.786 162.076,63.581 C164.233,65.877 164.5,67.061 164.5,74.331 C164.5,83.649 162.841,89.953 159.062,95 C151.333,105.323 151.246,106.609 158.309,106.168 C166.696,105.645 168.89,110.348 161.666,113.366 C159.784,114.153 157.938,115.292 157.563,115.898 C157.188,116.504 155.775,117 154.421,117 C153.068,117 150.282,118.053 148.23,119.339 C146.179,120.626 140.9,123.305 136.5,125.294 C129.449,128.48 128.263,128.748 126.5,127.553 C124.825,126.417 124.544,125.261 124.774,120.435 C125.07,114.201 123.127,106.146 119.605,99 C112.399,84.38 110.189,80.42 107.406,77.143 C105.524,74.927 104.05,71.835 103.644,69.25 L102.976,65 L106.797,65 C108.898,65 111.31,65.563 112.155,66.25 C113.808,67.594 117.135,72.884 120.444,79.433 C122.729,83.954 125.321,84.767 125.836,81.124 C126.532,76.201 138.26,67 150,62.165 Z M145.273,132.927 C146.835,131.769 152.086,133.293 153.107,135.2 C153.759,136.418 154.066,144.064 153.915,155.332 C153.44,190.89 153.514,192.184 156.156,194.36 C160.489,197.929 170.445,201.937 177.5,202.953 C189.594,204.694 207.555,204.265 214.972,202.057 C218.562,200.989 222.741,199.854 224.258,199.536 C225.774,199.218 228.474,197.651 230.258,196.053 L233.5,193.148 L233.252,178.824 C233.115,170.946 232.502,162.025 231.889,159 C231.276,155.975 230.402,151.475 229.947,149 C229.493,146.525 228.579,142.112 227.916,139.194 C226.997,135.139 226.989,133.611 227.884,132.716 C229.758,130.842 232.152,133.068 233.621,138.048 C234.343,140.497 235.401,143.4 235.973,144.5 C236.545,145.6 237.482,148.75 238.055,151.5 C238.629,154.25 239.562,158.3 240.13,160.5 C240.698,162.7 241.377,166.3 241.638,168.5 C241.9,170.7 242.516,173.4 243.009,174.5 C244.049,176.824 245.096,185.358 245.206,192.411 C245.28,197.129 245.052,197.544 239.391,203.005 C233.932,208.273 232.987,208.78 226.5,209.929 C222.65,210.611 217.475,211.768 215,212.501 C206.966,214.88 203.754,215.003 186.5,213.594 C167.718,212.06 163.137,210.793 153.221,204.396 C150.435,202.598 148.486,201.418 147.131,199.755 C143.87,195.752 144.046,188.949 144.25,164 C144.388,147.225 144.848,133.242 145.273,132.927 Z M118.667,139.667 C119.939,138.394 123.207,139.011 126.096,141.068 C128.596,142.848 129,143.79 129,147.833 C129,150.619 128.186,154.048 127,156.261 C125.9,158.314 125,160.62 125,161.387 C125,165.224 113.452,184.229 110.412,185.395 C109.609,185.704 108.623,186.845 108.221,187.933 C107.818,189.02 104.378,193.305 100.574,197.455 C93.397,205.287 91.131,206.334 87.829,203.345 C84.61,200.432 85.579,197.514 91.426,192.519 C97.215,187.574 109.257,172.99 109.867,170.186 C110.068,169.259 111.145,167.216 112.258,165.647 C114.737,162.155 118,150.127 118,144.484 C118,142.201 118.3,140.033 118.667,139.667 Z M148.91,73.371 C145.142,74.718 140.073,78.18 133.693,83.766 C131.185,85.96 129.262,86.901 128.061,86.519 C125.243,85.625 124.833,88.444 127.033,93.578 C128.115,96.101 129,98.786 129,99.543 C129,100.301 129.768,103.414 130.706,106.46 C132.802,113.269 134.432,113.525 139.083,107.776 C149.209,95.258 154.573,85.208 155.376,77.25 C155.973,71.334 155.463,71.029 148.91,73.371 Z M74.068,154.904 C75.206,153.307 76.37,152 76.656,152 C77.621,152 75.793,160.487 74.502,162 C73.799,162.825 72.887,165.073 72.478,166.996 C72.068,168.919 71.056,172.069 70.228,173.996 C67.483,180.386 67.157,181.467 66.663,185.817 C66.079,190.957 59.983,203.728 56.593,206.912 C54.664,208.725 53.798,208.962 52.212,208.113 C49.557,206.692 49.051,205.038 49.728,199.99 C50.136,196.951 50.839,195.593 52.19,195.24 C53.982,194.772 57,190.277 57,188.078 C57,187.516 59.025,182.78 61.5,177.554 C63.975,172.327 66.018,167.702 66.041,167.276 C66.063,166.849 67.413,164.942 69.041,163.038 C70.668,161.134 72,159.178 72,158.692 C72,158.206 72.931,156.502 74.068,154.904 Z M53.75,76.733 C58.61,74.739 58.961,74.731 62.43,76.54 C66.896,78.869 71.034,85.339 70.952,89.864 C70.876,94.026 67.774,99.5 65.491,99.5 C63.978,99.5 63.38,98.66 63,96 C62.725,94.075 61.676,90.989 60.668,89.141 C59.044,86.163 58.489,85.852 55.775,86.395 C51.851,87.18 50,85.615 50,81.513 C50,78.707 50.504,78.065 53.75,76.733 Z M30.667,134.667 C31.686,133.648 33.817,133.869 35.976,135.217 C37.508,136.174 38.901,136.174 42.477,135.217 C50.891,132.967 56.996,134.3 60.376,139.126 C61.709,141.03 61.703,141.524 60.322,143.632 C58.426,146.526 55.711,146.68 53.872,144 C52.623,142.18 52.006,142.091 47,143.01 C37.304,144.79 35.042,145.22 33.538,144.346 C33.059,144.067 32.657,143.657 32.116,143.116 C30.102,141.102 29.243,136.091 30.667,134.667 Z M47.763,187.2 C48.003,186.485 48.718,186.072 49.35,186.283 C50.83,186.777 50.853,191.216 49.377,191.708 C48.127,192.124 47.085,189.215 47.763,187.2 Z"/>
</svg>

