<svg xmlns="http://www.w3.org/2000/svg" width="300" height="300" viewBox="0 0 300 300" version="1.1">
  <defs/>
  <path d="M148.5,67.684 C153.47,66.561 157,68.145 157,71.5 C157,73.458 154.168,76 151.988,76 C150.959,76 149.84,76.45 149.5,77 C149.16,77.55 147.896,78.002 146.691,78.005 C145.486,78.007 141.125,79.319 137,80.919 C132.875,82.52 127.7,84.151 125.5,84.545 C123.3,84.939 121.05,85.571 120.5,85.95 C119.95,86.329 117.475,87.254 115,88.006 C111.557,89.051 110.225,89.435 110.118,90.038 C110.048,90.432 110.501,90.919 111.231,91.744 C112.769,93.484 113.584,97.377 114.633,108 C114.932,111.025 115.586,113.927 116.088,114.45 C116.59,114.972 117.008,118.347 117.017,121.95 C117.027,125.552 117.651,132.325 118.405,137 C120.77,151.681 121.072,191.954 118.91,204.5 C118.341,207.8 117.492,212.975 117.022,216 C116.552,219.025 115.652,223.525 115.021,226 C114.39,228.475 114.141,231.923 114.466,233.661 C114.976,236.389 114.626,237.13 111.911,239.063 C106.591,242.852 103.545,240.577 96.562,227.596 C95.703,225.999 95,224.142 95,223.469 C95,222.796 94.327,221.686 93.505,221.004 C92.682,220.321 91.467,217.904 90.804,215.631 C90.141,213.359 88.749,210.324 87.711,208.886 C85.569,205.917 84.913,199.921 86.663,199.302 C87.302,199.076 89.403,201.053 91.332,203.696 C93.26,206.338 95.915,209.625 97.233,211 C100.346,214.25 103,218.556 103,220.358 C103,221.949 105.68,223.316 107.09,222.444 C107.591,222.135 108,219.183 108,215.884 C108,212.585 108.419,207.999 108.932,205.693 C111.284,195.107 112.328,172.308 111.101,158.32 C107.893,121.733 106.952,115.044 103.429,103.807 C102.492,100.815 102.2,97.603 102.625,94.945 L103.291,90.777 L100.078,91.483 C98.311,91.871 95.67,92.809 94.209,93.566 C92.748,94.324 89.516,95.239 87.027,95.6 C84.537,95.961 81.733,96.653 80.795,97.139 C79.393,97.865 54.818,102 51.904,102 C51.432,102 50.319,100.89 49.431,99.534 C47.918,97.225 47.945,96.885 49.867,94.187 C51.826,91.436 52.368,91.277 61.92,90.651 C67.421,90.29 74.527,89.359 77.711,88.582 C86.328,86.479 94.276,84.073 96.236,82.974 C97.191,82.438 99.809,82 102.052,82 C104.296,82 107.066,81.5 108.208,80.889 C109.35,80.278 113.033,78.962 116.392,77.965 C119.751,76.969 123.85,75.701 125.5,75.149 C127.15,74.596 131.2,73.391 134.5,72.47 C137.8,71.549 141.85,70.197 143.5,69.466 C145.15,68.734 147.4,67.933 148.5,67.684 Z M164.25,93.674 C166.941,91.797 168.483,91.653 171.066,93.035 C173.701,94.446 173.494,97.808 170.5,102.215 C169.125,104.238 168,106.22 168,106.618 C168,107.017 167.371,108.053 166.601,108.921 C164.564,111.221 161,117.852 161,119.342 C161,120.046 160.197,121.495 159.216,122.561 C158.235,123.628 154.693,128.1 151.345,132.5 C147.997,136.9 144.299,141.357 143.129,142.405 C141.958,143.453 141,144.885 141,145.587 C141,147.174 147.963,154.269 163.492,168.506 C181.501,185.017 188.209,192.149 200.694,208.058 C205.2,213.801 209.803,219.519 210.921,220.763 C213.277,223.384 219.506,232.635 222.704,238.262 C223.916,240.395 226.905,244.828 229.347,248.114 C235.039,255.774 236.302,261.985 232.903,265.604 C230.159,268.525 228.414,268.642 227,266 C226.411,264.9 225.296,264 224.522,264 C222.409,264 220,259.965 220,256.426 C220,253.239 216.516,245.758 212.856,241.088 C207.957,234.839 203,227.731 203,226.959 C203,225.909 189.202,209.126 179.664,198.575 C168.126,185.811 152.421,170.386 147.556,167.039 C145.078,165.334 140.896,161.815 138.263,159.219 C135.63,156.624 131.794,153.076 129.738,151.335 C127.028,149.041 126,147.383 126,145.308 C126,141.909 128.489,138 130.654,138 C132.913,138 145.775,125.232 148.787,120 C150.211,117.525 152.192,114.427 153.188,113.115 C154.185,111.803 155,109.941 155,108.977 C155,108.013 156.575,104.935 158.5,102.136 C160.425,99.338 162,96.642 162,96.146 C162,95.65 163.012,94.538 164.25,93.674 Z M72.072,149.531 C79.243,147.524 89.331,148.113 92.87,150.744 C94.833,152.204 95.578,153.745 95.806,156.817 C96.062,160.268 95.491,161.788 92.274,166.217 C87.472,172.828 85.063,176.539 82.678,181 C81.649,182.925 79.083,186.3 76.978,188.5 C72.692,192.977 67,203.303 67,206.6 C67,207.785 66.325,209.315 65.5,210 C64.675,210.685 64,211.956 64,212.825 C64,215.242 57.9,221 55.339,221 C50.845,221 49.895,213.193 53.866,208.901 C55.412,207.23 56.978,204.356 60.075,197.5 C60.821,195.85 63.584,191.229 66.215,187.231 C68.847,183.233 71,179.575 71,179.103 C71,178.631 71.753,177.627 72.673,176.872 C75.275,174.737 82,163.902 82,161.845 C82,159.512 78.275,159.411 72.06,161.575 C64.716,164.132 60.676,161.612 62.87,155.841 C64.166,152.433 65.865,151.268 72.072,149.531 Z M118,23.474 C121.774,21.329 122.875,21.67 124.727,25.554 C125.975,28.172 126.145,29.546 125.372,30.772 C123.956,33.016 119.002,35.837 116.317,35.927 C113.203,36.031 112.839,38.207 113.523,52.669 C114.316,69.465 113.85,70.705 103.906,78.267 C100,81.237 98.039,81.639 96.239,79.839 C94.86,78.46 97.401,73.418 100.25,71.876 C101.213,71.356 102,70.418 102,69.794 C102,69.169 102.747,67.832 103.66,66.823 C105.137,65.192 105.19,64.075 104.141,56.744 C103.492,52.21 102.858,46.925 102.731,45 C102.544,42.163 102.052,41.437 100.135,41.165 C98.834,40.981 97.281,41.319 96.685,41.915 C93.297,45.303 86.934,40.194 89.975,36.53 C90.674,35.688 91.804,35 92.488,35 C93.171,35 94.803,34.183 96.115,33.184 C97.427,32.185 102.325,29.911 107,28.131 C111.675,26.351 116.625,24.255 118,23.474 Z"/>
</svg>

