<svg xmlns="http://www.w3.org/2000/svg" width="300" height="300" viewBox="0 0 300 300" version="1.1">
  <defs/>
  <path d="M147.2,144.2 C148.77,142.63 152.667,142.66 153.675,144.25 C154.879,146.148 153.971,156.204 152.392,158.457 C151.627,159.55 151,161.851 151,163.569 C151,166.729 148.658,172.475 146.937,173.539 C146.422,173.858 146,175.223 146,176.573 C146,177.923 145.48,180.034 144.844,181.264 C142.395,186 142,187.025 142,188.64 C142,189.557 140.89,192.654 139.533,195.522 C136.266,202.428 135.163,209 137.272,209 C142.798,209 163.391,189.453 172.681,175.388 C176.841,169.091 179.224,166.404 180.858,166.17 C183.534,165.786 187,168.53 187,171.033 C187,171.98 187.675,173.315 188.5,174 C189.325,174.685 190,175.874 190,176.642 C190,177.411 191.052,179.718 192.338,181.77 C193.624,183.821 196.838,190 199.481,195.5 C202.123,201 205.796,208.573 207.643,212.33 C209.489,216.086 211,219.708 211,220.38 C211,221.051 211.526,222.126 212.168,222.768 C213.555,224.155 215.964,230.769 215.985,233.25 C215.993,234.213 216.389,235 216.864,235 C217.339,235 218.537,237.137 219.526,239.75 C220.514,242.363 221.854,245.4 222.504,246.5 C223.153,247.6 224.283,250.525 225.016,253 C225.748,255.475 226.72,257.928 227.174,258.45 C227.628,258.973 228,260.349 228,261.509 C228,262.669 228.661,264.491 229.468,265.559 C230.276,266.626 230.951,268.14 230.968,268.921 C230.986,269.703 231.592,271.053 232.316,271.921 C233.493,273.333 234.949,277.602 239.11,291.838 C240.01,294.915 240.074,296.66 239.332,297.838 C235.971,303.176 229.722,297.095 228.428,287.228 C228.048,284.328 227.346,281.714 226.868,281.419 C226.391,281.123 226,280.076 226,279.09 C226,278.104 224.879,275.189 223.508,272.611 C222.137,270.033 220.285,265.691 219.393,262.962 C218.5,260.233 217.372,258 216.885,258 C216.398,258 216,256.869 216,255.486 C216,254.104 215.604,252.191 215.119,251.236 C214.635,250.281 213.23,247.25 211.998,244.5 C210.766,241.75 208.463,236.841 206.879,233.59 C205.296,230.34 204,227.119 204,226.433 C204,225.746 202.913,223.006 201.584,220.342 C200.255,217.679 198.066,213.25 196.72,210.5 C195.374,207.75 193.026,203.25 191.502,200.5 C189.978,197.75 187.834,193.7 186.737,191.5 C183.8,185.609 181.046,182 179.489,182 C178.732,182 177.075,183.724 175.807,185.83 C169.922,195.602 153.144,211.389 143.5,216.226 C137.456,219.259 129.885,220.544 127.038,219.02 C125.34,218.112 125,216.943 125,212.024 C125,208.776 125.45,205.84 126,205.5 C126.55,205.16 127,203.839 127,202.563 C127,201.288 127.675,199.685 128.5,199 C129.325,198.315 130,196.904 130,195.864 C130,194.824 130.45,193.079 131,191.986 C131.55,190.894 132.45,189.106 133,188.014 C133.55,186.921 134.004,185.459 134.009,184.764 C134.014,184.069 135.125,181.25 136.478,178.5 C137.831,175.75 138.952,172.706 138.969,171.736 C138.986,170.766 139.395,169.191 139.878,168.236 C142.693,162.669 144,158.479 144,155.025 C144,152.876 144.45,150.84 145,150.5 C145.55,150.16 146,148.874 146,147.641 C146,146.408 146.54,144.86 147.2,144.2 Z M151.578,48.75 C152.99,47.348 155.926,47.993 156.965,49.934 C157.534,50.998 158,54.598 158,57.934 C158,64.899 159.351,65.739 163.645,61.446 C167.165,57.926 169.423,58.585 169.81,63.246 C170.085,66.563 169.571,67.524 165.164,71.931 L160.209,76.886 L159.616,89.193 C158.884,104.405 158.041,112.195 156.986,113.5 C156.541,114.05 156.04,116.747 155.873,119.493 C155.496,125.653 156.647,126.099 163.73,122.542 C166.513,121.144 169.102,120 169.483,120 C169.865,120 173.141,118.628 176.765,116.951 C185.002,113.138 188.382,113.297 188.796,117.519 C189.317,122.832 184.16,125.997 157.5,136.727 C154.2,138.055 149.7,139.997 147.5,141.043 C145.3,142.089 138.394,145.065 132.153,147.656 C119.89,152.749 117.793,152.75 117.185,147.664 C116.921,145.455 117.487,144.75 120.685,143.298 C122.783,142.345 125.625,140.85 127,139.975 C128.375,139.1 132.499,137.138 136.164,135.616 C139.829,134.094 143.497,132.095 144.315,131.174 C145.134,130.253 146.07,127.025 146.397,124 C147.429,114.433 148.815,89.52 148.343,89.028 C148.093,88.768 145.776,89.378 143.195,90.383 C133.037,94.337 129,93.496 129,87.429 C129,84.321 129.426,83.899 135.463,81.018 C139.018,79.321 143.293,76.783 144.963,75.378 C147.896,72.91 148,72.538 148,64.533 C148,57.008 149.376,50.938 151.578,48.75 Z M92.249,180.25 C92.797,179.563 93.908,179 94.719,179 C95.903,179 96.081,180.033 95.623,184.25 C95.309,187.137 94.86,191.629 94.624,194.232 C94.389,196.834 93.296,200.884 92.197,203.232 C91.097,205.579 89.389,209.3 88.401,211.5 C87.413,213.7 86.334,215.725 86.004,216 C85.674,216.275 84.231,218.532 82.797,221.016 C80.081,225.72 68.659,238 66.999,238 C66.475,238 65.296,236.855 64.378,235.455 C63.085,233.481 62.95,232.414 63.778,230.705 C64.364,229.492 65.616,226.363 66.558,223.75 C67.683,220.633 68.853,219 69.962,219 C72.892,219 79.518,209.79 83.989,199.5 C85.184,196.75 86.578,193.825 87.087,193 C88.125,191.318 88.215,191.086 89.986,185.5 C90.683,183.3 91.702,180.938 92.249,180.25 Z M53.75,145.579 C54.163,145.164 56.075,145.101 58,145.44 C59.925,145.778 63.75,146.329 66.5,146.663 C69.25,146.997 72.702,147.961 74.172,148.805 C79.794,152.032 80.632,158.902 75.238,157.534 C73.732,157.152 68.519,156.27 63.654,155.573 C58.34,154.812 54.453,153.746 53.919,152.903 C52.831,151.185 52.726,146.609 53.75,145.579 Z M70.146,87.254 C72.76,84.64 81.326,88.146 85.91,93.707 C89.644,98.237 89.85,101.853 86.551,104.952 C83.543,107.778 81,107.049 81,103.36 C81,100.181 78.442,97 75.885,97 C73.729,97 69,92.165 69,89.96 C69,89.102 69.516,87.884 70.146,87.254 Z"/>
</svg>

