<svg xmlns="http://www.w3.org/2000/svg" width="300" height="300" viewBox="0 0 300 300" version="1.1">
  <defs/>
  <path d="M113.314,20.25 C114.529,18.361 117.463,18.749 119.569,21.077 C121.392,23.091 121.394,23.249 119.63,26.327 C118.63,28.072 117.115,30.85 116.263,32.5 C115.411,34.15 114.244,36.4 113.668,37.5 C113.093,38.6 111.596,41.605 110.343,44.179 C109.09,46.752 106.779,50.352 105.209,52.179 C103.639,54.005 100.28,58.425 97.745,62 C95.21,65.575 92.206,69.066 91.068,69.758 C89.931,70.451 89,71.515 89,72.124 C89,72.734 87.364,75.461 85.364,78.185 L81.729,83.137 L88.864,89.65 C92.789,93.231 96,96.775 96,97.524 C96,98.756 99.629,102 101.007,102 C101.316,102 102.366,100.65 103.341,99 C104.316,97.35 105.585,96 106.163,96 C106.74,96 108.104,94.866 109.194,93.48 C112.014,89.895 116.457,87.874 120.777,88.21 L124.5,88.5 L124.808,83.672 C125.466,73.357 120.106,73.366 108.793,83.7 C100.951,90.864 97.466,89.07 101.743,80.071 C106.016,71.081 115.384,64.081 123.217,64.026 C126.127,64.006 127.668,64.735 130.319,67.385 C135.139,72.205 136.454,80.585 133.5,87.654 C132.675,89.629 132,92.288 132,93.563 C132,94.838 131.55,96.16 131,96.5 C130.45,96.84 130,97.976 130,99.024 C130,100.072 129.1,101.411 128,102 C126.9,102.589 126,103.592 126,104.23 C126,105.971 120.853,110.999 119.063,111.007 C118.203,111.01 116.15,111.907 114.5,113 C108.987,116.651 106.191,115.028 109.602,110.158 C111.723,107.129 110.792,106.436 106.782,108.059 C102.523,109.782 102.032,110.625 103.314,114.021 C104.104,116.113 104.03,117.879 103.026,120.921 C102.284,123.17 101.963,125.296 102.313,125.646 C102.663,125.996 105.365,124.419 108.317,122.141 C114.897,117.065 120,116.377 120,120.566 C120,121.977 120.456,123.983 121.013,125.025 C122.321,127.468 123.588,157.882 122.824,168.5 C122.321,175.488 124.295,228.646 125.252,233.878 L126.418,240.255 L123.459,242.623 C119.014,246.179 117.197,245.7 114.828,240.343 C113.695,237.782 110.795,233.265 108.384,230.304 C105.973,227.344 104,224.396 104,223.753 C104,223.11 102.365,220.91 100.366,218.863 C96.2,214.597 96.356,212 100.779,212 C102.911,212 104.769,213.25 108.212,217 C110.737,219.75 113.339,222 113.993,222 C114.899,222 115.037,215.604 114.574,195.25 C113.603,152.643 112.942,133.714 112.393,132.826 C111.509,131.397 109.403,131.916 105.595,134.5 C101.256,137.445 100.268,137.552 97.829,135.345 C95.715,133.433 95.442,129.992 97.25,128.075 C98.25,127.015 98.25,126.658 97.25,126.292 C96.511,126.021 96,124.051 96,121.476 C96,119.079 95.55,116.84 95,116.5 C94.45,116.16 94,114.585 94,113 C94,111.415 93.543,109.836 92.985,109.491 C92.427,109.146 91.363,107.411 90.621,105.636 C89.079,101.944 77.741,91.626 74,90.51 C66.904,88.392 66.173,83.74 72.172,78.88 C77.773,74.343 80.559,71.363 84.213,66 C85.899,63.525 87.828,61.046 88.499,60.492 C90.587,58.768 101.602,41.773 106.031,33.44 C110.59,24.864 112.065,22.194 113.314,20.25 Z M164,111.727 C165.737,111.293 166.823,111.723 169.25,113.807 C171.464,115.709 171.484,118.864 169.301,121.981 C168.367,123.315 165.466,128.626 162.856,133.784 C160.246,138.942 157.675,143.688 157.142,144.331 C156.61,144.974 154.505,148.65 152.466,152.5 C150.426,156.35 147.575,160.862 146.129,162.527 C144.683,164.191 142.619,167.213 141.542,169.241 L139.584,172.928 L141.736,175.219 C142.919,176.479 146.5,179.078 149.694,180.995 C152.887,182.911 156.4,185.304 157.5,186.312 C158.6,187.32 162.2,189.938 165.5,192.13 C181.358,202.662 213.709,237.428 221.504,252.313 C222.602,254.41 224.287,256.842 225.25,257.718 C226.213,258.593 227,260.333 227,261.582 C227,263.873 222.81,268 220.484,268 C219.074,268 214,261.737 214,259.997 C214,259.372 212.726,256.979 211.168,254.68 C209.611,252.381 208.068,249.76 207.74,248.856 C206.329,244.963 197.176,234.444 182.862,220.262 C168.062,205.599 158.53,197.829 149,192.658 C146.525,191.315 143.643,189.268 142.595,188.108 C141.547,186.949 140.155,186 139.5,186 C138.845,186 137.542,185.152 136.604,184.115 C135.666,183.078 133.563,181.963 131.932,181.636 C128.894,181.029 127,178.018 127,173.796 C127,172.655 129.475,168.903 132.5,165.457 C135.525,162.012 138,158.544 138,157.751 C138,156.959 138.963,155.453 140.141,154.405 C141.319,153.357 144.016,148.748 146.136,144.162 C148.256,139.575 150.806,134.625 151.803,133.162 C152.8,131.698 154.911,127.35 156.494,123.5 C159.778,115.512 161.849,112.264 164,111.727 Z M80.973,178.677 C86.258,175.092 92,177.671 92,183.628 C92,185.453 91.031,189.096 89.847,191.723 C88.663,194.35 87.138,197.85 86.458,199.5 C83.878,205.759 81.91,209.814 76.538,219.937 C73.492,225.678 71,230.823 71,231.371 C71,235.058 59.44,254 57.189,254 C53.439,254 50.446,248.011 52.917,245.45 C54.166,244.155 62.05,229.544 63.411,226 C63.728,225.175 64.392,223.825 64.887,223 C65.382,222.175 66.307,220.375 66.943,219 C67.578,217.625 69.175,214.475 70.49,212 C71.806,209.525 72.909,206.782 72.941,205.905 C72.973,205.028 73.9,203.495 75,202.5 C77.287,200.431 77.675,197 75.622,197 C74.865,197 73.666,197.698 72.958,198.551 C72.174,199.495 70.463,199.984 68.585,199.801 C65.941,199.543 65.368,198.965 64.574,195.752 C63.765,192.478 63.945,191.687 65.998,189.502 C67.291,188.126 68.944,187 69.671,187 C70.399,187 72.683,185.505 74.747,183.677 C76.811,181.849 79.613,179.599 80.973,178.677 Z"/>
</svg>

