<svg xmlns="http://www.w3.org/2000/svg" width="300" height="300" viewBox="0 0 300 300" version="1.1">
  <defs/>
  <path d="M136.48,83.765 C139.752,81.409 144,85.406 144,90.841 C144,92.953 144.877,98.916 145.948,104.091 C147.604,112.091 147.898,117.681 147.913,141.423 C147.926,162.946 147.615,170.051 146.558,172.423 C145.804,174.115 144.919,177.975 144.59,181 C144.262,184.025 143.719,187.507 143.383,188.738 C142.427,192.245 145.801,192.964 148.41,189.808 C149.559,188.418 152.525,186.114 155,184.69 C164.844,179.023 172.178,168.593 175,156.247 C175.661,153.358 176.606,150.744 177.1,150.438 C177.595,150.132 178,148.37 178,146.523 C178,139.893 180.771,137.205 185.685,139.066 C189.129,140.371 193,143.874 193,145.685 C193,146.42 193.885,148.929 194.968,151.261 C196.976,155.588 198.475,162.419 199.956,174 C200.414,177.575 201.271,181.85 201.862,183.5 C203.816,188.958 204.647,206.109 204.487,237.699 C204.316,271.412 204.222,272 198.993,272 C194.234,272 192.798,268.456 194.045,259.783 C195.138,252.178 195.564,200.722 194.548,199.078 C194.227,198.558 193.295,193.491 192.478,187.817 C190.398,173.379 189.938,170.711 189.237,169 C188.899,168.175 188.141,165.475 187.554,163 C186.73,159.529 186.03,158.5 184.493,158.5 C183.112,158.5 182.411,159.267 182.208,161 C181.869,163.911 181.341,165.248 177.08,174 C171.751,184.945 161.17,194.369 142.23,205.038 C140.728,205.884 137.596,207.796 135.27,209.288 C132.943,210.779 130.538,212 129.924,212 C129.311,212 127.614,212.648 126.154,213.441 C124.694,214.234 121.171,215.609 118.325,216.496 C108.727,219.491 107.412,216.742 108.387,195.736 C110.103,158.778 110.408,151.467 113.234,150.31 C113.965,150.011 114.864,150.123 116,150.241 L118.5,150.5 L118.276,175.5 C118.154,189.25 117.807,201.512 117.507,202.75 C116.738,205.924 119.638,205.716 126.838,202.082 C135.288,197.816 134.477,199.697 137.443,177.5 C140.278,156.293 138.847,114.829 134.656,96.704 C133.071,89.845 133.639,85.811 136.48,83.765 Z M83.2,180.2 C84.649,178.751 87.651,178.626 88.488,179.981 C89.288,181.275 85.515,193.107 82.16,199.83 C78.532,207.098 64.657,223.594 60.52,225.558 C58.675,226.433 55.891,227.003 54.333,226.824 C51.726,226.526 51.509,226.18 51.611,222.5 C51.672,220.3 52.428,216.7 53.291,214.5 C54.79,210.681 55.042,210.512 58.856,210.76 C62.364,210.988 63.13,210.623 65.152,207.76 C66.418,205.967 68.814,202.997 70.477,201.159 C73.954,197.317 82,184.348 82,182.586 C82,181.934 82.54,180.86 83.2,180.2 Z M38.792,146.25 C39.554,145.651 39.909,145.284 40.331,145.172 C40.976,145.002 41.778,145.428 44.431,146.536 C47.449,147.797 49.036,147.871 53.303,146.953 C59.448,145.631 65.526,145.676 68.118,147.063 C71.333,148.784 72.975,153.178 72.007,157.47 C70.599,163.71 67.805,164.254 64.739,158.885 C63.051,155.928 62.782,155.829 58.239,156.488 C55.633,156.865 50.681,157.248 47.236,157.337 C41.396,157.489 40.807,157.297 38.531,154.5 C35.921,151.292 36.012,148.436 38.792,146.25 Z M65,89.307 C68.268,87.637 70.472,87.676 73.928,89.463 C77.203,91.156 78,92.779 78,97.753 C78,104.198 72.389,107.297 68.5,103 C67.505,101.9 65.69,101 64.467,101 C63.245,101 61.644,100.276 60.91,99.392 C59.779,98.029 59.849,97.584 61.365,96.475 C62.417,95.706 63.019,94.223 62.827,92.876 C62.595,91.248 63.224,90.214 65,89.307 Z"/>
</svg>

