<svg xmlns="http://www.w3.org/2000/svg" width="300" height="300" viewBox="0 0 300 300" version="1.1">
  <defs/>
  <path d="M116,62.24 C118.758,60.796 124.384,61.244 126.601,63.084 C128.988,65.065 134,76.58 134,80.083 C134,86.413 131.605,95.523 128.963,99.24 C126.293,102.996 119.14,109.568 115.534,111.577 C114.47,112.17 112.678,113.89 111.55,115.4 C109.772,117.782 109.478,119.762 109.336,130.323 C109.245,137.02 108.683,144.072 108.086,145.993 C107.489,147.915 107,149.827 107,150.243 C107,151.634 109.849,151.021 113.56,148.832 C118.51,145.912 125.801,144.845 130.65,146.333 C135.713,147.886 137.02,148.821 139.972,153 C142.239,156.209 142.441,157.392 142.403,167.222 C142.369,175.82 142.028,178.312 140.68,179.801 C139.699,180.886 139,183.313 139,185.641 C139,187.832 138.1,191.487 137,193.764 C135.9,196.041 135,198.404 135,199.016 C135,199.628 133.875,202.588 132.5,205.594 C131.125,208.6 130,211.337 130,211.676 C130,213.347 122.691,222.999 119.696,225.283 L116.289,227.881 L112.792,225.505 C110.739,224.11 105.743,217.836 100.694,210.314 C95.964,203.266 88.923,194.125 85.048,190 C77.688,182.166 75.974,178 80.111,178 C84.301,178 100.52,193.304 108.727,205 C114.279,212.913 115.88,214.344 117.592,212.924 C119.611,211.248 126.408,196.264 129.578,186.5 C131.896,179.359 132.5,175.698 132.5,168.775 C132.5,160.676 132.31,159.861 129.856,157.404 L127.211,154.757 L121.356,157.471 C109.01,163.194 102.453,164.263 99.529,161.032 C98.055,159.403 97.866,158.065 98.434,153.282 C100.192,138.496 100.462,132.561 99.948,120 C99.645,112.575 99.8,105.952 100.294,105.282 C100.88,104.487 102.645,104.264 105.384,104.639 C108.532,105.071 109.91,104.813 110.911,103.607 C111.645,102.723 112.825,102 113.534,102 C114.242,102 116.057,100.537 117.566,98.75 C124.078,91.036 126.17,79.631 121.75,75.944 C120.513,74.911 118.014,74.052 116.198,74.033 L112.895,74 L113.198,68.774 C113.452,64.374 113.895,63.342 116,62.24 Z M178.6,72.25 C179.678,69.904 180.76,69 182.488,69 C183.805,69 185.118,69.381 185.406,69.847 C187.14,72.654 185.337,93.473 181.409,116 C180.018,123.975 178.644,132.075 178.355,134 C178.066,135.925 177.224,138.85 176.485,140.5 C175.746,142.15 173.934,148 172.458,153.5 C170.982,159 169.426,163.95 169,164.5 C167.821,166.023 166.707,174 167.673,174 C168.14,174 170.317,172.434 172.511,170.519 C174.705,168.605 176.759,167.03 177.075,167.019 C177.392,167.009 180.09,163.963 183.071,160.25 C186.053,156.537 189.056,152.906 189.745,152.18 C191.286,150.556 191.9,147.951 192.239,141.602 C192.597,134.891 194.609,133.701 199.409,137.363 C201.384,138.869 203,140.684 203,141.396 C203,142.108 203.889,143.494 204.974,144.477 C206.06,145.46 207.242,147.217 207.6,148.382 C207.958,149.547 209.545,152.435 211.126,154.8 C212.707,157.165 214,159.534 214,160.064 C214,160.594 214.41,161.809 214.911,162.764 C215.412,163.719 216.926,166.975 218.275,170 C222.822,180.192 223.904,182.487 225.819,186 C230.385,194.373 231.959,197.833 232.892,201.545 C233.439,203.72 234.408,207.3 235.045,209.5 C237.425,217.713 237.4,220.945 234.937,223.567 C229.96,228.865 226.498,225.656 225.697,215 C225.355,210.459 224.318,205.842 223.066,203.298 C221.93,200.987 221,198.595 221,197.982 C221,197.368 219.875,195.392 218.5,193.589 C217.125,191.786 216,189.332 216,188.136 C216,186.939 214.875,184.178 213.5,182 C212.125,179.822 211,177.527 211,176.901 C211,176.274 209.425,173.169 207.5,170 C205.575,166.831 203.998,163.847 203.995,163.369 C203.992,162.891 202.857,161.15 201.472,159.5 L198.954,156.5 L196.227,159.862 C183.787,175.196 175.066,182.91 163.655,188.667 C157.141,191.954 156.74,192.033 155.388,190.311 C154.507,189.189 154.148,187.169 154.445,185 C155.505,177.25 156.264,173.955 157.11,173.432 C157.6,173.129 158,171.81 158,170.5 C158,169.19 158.399,167.871 158.887,167.57 C159.374,167.269 160.061,165.487 160.413,163.612 C160.765,161.736 161.718,158.868 162.531,157.239 C163.344,155.609 164.435,152.301 164.955,149.888 C165.476,147.475 166.628,143.025 167.516,140 C168.405,136.975 169.506,132.25 169.964,129.5 C170.422,126.75 171.53,120.91 172.426,116.521 C173.321,112.133 174.741,101.108 175.58,92.021 C176.439,82.719 177.758,74.08 178.6,72.25 Z M59.585,183.25 C60.493,181.115 61.659,180 62.984,180 C64.652,180 65,180.657 65,183.8 C65,185.89 64.528,188.072 63.951,188.649 C63.373,189.227 62.747,192.283 62.559,195.441 C62.37,198.6 61.718,201.682 61.108,202.292 C60.499,202.901 60,204.666 60,206.214 C60,207.761 59.588,209.809 59.084,210.764 C58.58,211.719 57.392,214.3 56.443,216.5 C53.575,223.153 51.135,225.879 46.918,227.143 C41.723,228.699 40.623,227.576 40.776,220.876 C40.903,215.263 42.953,206 44.067,206 C44.445,206 45.315,206.675 46,207.5 C47.745,209.603 48.909,209.371 49.917,206.718 C50.394,205.464 51.671,202.426 52.755,199.968 C53.839,197.511 55.508,193.475 56.464,191 C57.42,188.525 58.824,185.037 59.585,183.25 Z M17.472,158.087 C18.366,155.273 21.165,155.455 23.813,158.5 C25.34,160.257 27.005,161 29.41,161 C34.018,161 41.087,164.282 43.31,167.453 C44.454,169.085 45.331,172.694 45.695,177.267 C46.012,181.245 46.637,184.968 47.083,185.539 C47.529,186.11 47.394,188.585 46.783,191.039 C44.826,198.886 41.979,198.18 42.156,189.892 C42.284,183.922 39.438,175.07 36.534,172.406 C34.901,170.908 32.335,170.134 27.511,169.683 C23.803,169.337 20.158,168.546 19.411,167.926 C17.71,166.514 16.594,160.854 17.472,158.087 Z M40.441,83.439 C46.443,78.989 54.347,84.507 57.711,95.495 C59.871,102.552 55.321,111.212 50.437,109.338 C49.083,108.818 48.886,107.847 49.39,104.173 C49.99,99.795 49.864,99.514 45.505,95.454 C43.027,93.146 41,90.744 41,90.116 C41,89.487 40.438,88.052 39.75,86.926 C38.686,85.183 38.789,84.664 40.441,83.439 Z"/>
</svg>

