<svg xmlns="http://www.w3.org/2000/svg" width="300" height="300" viewBox="0 0 300 300" version="1.1">
  <defs/>
  <path d="M130.223,63.872 C133.344,59.988 137.116,58.761 138.592,61.148 C138.982,61.78 139.419,67.743 139.562,74.398 C139.89,89.666 141.272,103.67 142.811,107.315 C143.465,108.863 144,111.424 144,113.006 C144,114.588 144.4,116.129 144.89,116.432 C145.379,116.734 146.021,118.448 146.317,120.241 C147.499,127.395 148.816,132.216 149.88,133.28 C150.496,133.896 151,135.633 151,137.141 C151,138.649 151.45,140.16 152,140.5 C152.55,140.84 153,142.426 153,144.025 C153,146.608 154.498,151.046 157.122,156.236 C157.605,157.191 158,159.11 158,160.5 C158,161.89 158.404,163.809 158.897,164.764 C159.391,165.719 160.57,168.525 161.517,171 C162.464,173.475 163.602,176.4 164.044,177.5 C164.487,178.6 165.063,180.625 165.323,182 C165.761,184.308 166.849,187.644 169.239,194 C171.129,199.028 175.603,207.649 179.75,214.252 C182.088,217.975 184,221.385 184,221.832 C184,222.278 186.427,225.169 189.394,228.256 C193.182,232.199 195.821,234.063 198.263,234.521 C202.905,235.392 206.143,234.828 206.992,233 C207.376,232.175 208.209,230.494 208.845,229.264 C209.48,228.034 210.014,226.009 210.032,224.764 C210.049,223.519 210.724,221.626 211.532,220.559 C213.567,217.869 213.481,200.914 211.386,191.643 C209.81,184.67 205.585,172.498 204.047,170.5 C202.763,168.832 202.065,162.078 203.11,161.432 C204.333,160.676 206.922,162.764 208.102,165.459 C208.593,166.582 209.409,168.175 209.914,169 C210.42,169.825 211.558,172.168 212.444,174.208 C213.329,176.247 214.491,178.186 215.027,178.517 C215.562,178.847 216,180.126 216,181.359 C216,182.592 216.358,184.028 216.796,184.55 C218.303,186.349 219.855,192.522 221.056,201.5 C222.097,209.278 222.031,211.586 220.571,218.5 C219.641,222.9 218.623,228.075 218.308,230 C217.616,234.228 213.069,241.102 209.093,243.934 C204.932,246.897 197.641,246.773 194.702,243.689 C193.491,242.418 191.15,240.812 189.5,240.119 C186.214,238.739 178.101,229.512 173.714,222.166 C169.934,215.836 162.582,200.409 161.007,195.5 C160.301,193.3 159.398,190.6 159,189.5 C157.315,184.838 156,180.271 156,179.08 C156,178.377 155.356,176.384 154.568,174.651 C153.78,172.918 152.978,170.6 152.784,169.5 C152.47,167.718 151.782,167.536 146.466,167.826 C143.054,168.013 139.804,168.781 138.874,169.619 C137.98,170.426 135.624,171.349 133.64,171.671 C131.656,171.993 129.52,172.874 128.894,173.628 C128.267,174.383 127.196,175 126.512,175 C125.829,175 124.084,175.933 122.635,177.073 C120.517,178.738 120,179.99 120,183.45 C120,185.818 119.325,189.371 118.5,191.346 C117.675,193.32 117,195.991 117,197.281 C117,198.571 115.2,202.611 113,206.258 C107.764,214.94 107.84,216.408 113.701,219.788 C119.523,223.147 136.928,240.482 139.11,245.096 C139.995,246.968 141.301,249.722 142.011,251.216 C143.056,253.416 143.06,254.223 142.028,255.466 C140.05,257.85 138.323,257.31 135.293,253.362 C126.657,242.111 120.479,235.84 113.362,231.1 C103.437,224.491 101.974,224.606 96.02,232.468 C83.261,249.316 71.68,256.64 58.555,256.163 C53.505,255.979 49,253.227 49,250.326 C49,248.796 49.665,248.677 56.618,248.96 C63.088,249.223 69.612,246.067 76.323,239.429 C82.693,233.128 90,223.563 90,221.525 C90,220.63 88.528,219.283 86.73,218.532 C81.517,216.353 79.758,213.808 80.549,209.589 C80.922,207.603 81.626,205.731 82.113,205.43 C82.601,205.129 83,203.864 83,202.619 C83,201.375 83.729,198.216 84.621,195.599 C85.665,192.534 85.898,190.498 85.274,189.874 C84.215,188.815 72.403,191.483 60.5,195.471 C34.649,204.132 32.973,204.415 30.446,200.558 C27.266,195.704 28.665,194.002 38,191.368 C42.675,190.049 51.225,187.432 57,185.552 C62.775,183.673 69.975,181.646 73,181.047 C76.025,180.448 80.518,178.953 82.984,177.724 C88.033,175.209 88.486,174.023 89.96,159.5 C90.407,155.1 91.347,150.104 92.05,148.397 C93.322,145.307 92.868,142 91.171,142 C90.68,142 88.854,144.674 87.112,147.941 C82.308,156.954 80.531,156.908 70.5,147.504 C67.75,144.926 63.199,141.308 60.386,139.465 C56.456,136.888 55.12,135.349 54.612,132.811 C53.836,128.928 55.647,127.019 59.421,127.74 C61.913,128.217 62.602,128.759 72.113,137.742 C78.35,143.632 80.061,143.776 82.644,138.629 C86.211,131.516 96.682,122.798 111.319,114.752 C116.1,112.124 121.556,112.465 124.679,115.588 C127.063,117.972 127.218,118.644 126.646,124.113 C125.924,131.021 124.119,134.974 120.325,137.959 C117.238,140.387 112.677,140.344 112.211,137.883 C112.042,136.994 113.051,134.904 114.452,133.239 C117.103,130.089 117.857,125.452 115.83,124.777 C113.367,123.956 106.259,127.263 101.516,131.436 L96.571,135.788 L98.386,139.159 C100.216,142.557 100.245,144.639 98.769,166.477 C98.45,171.199 99.923,171.894 105.402,169.605 C108.132,168.465 109,167.516 109,165.673 C109,161.545 111.351,160.48 116.295,162.368 C122.501,164.739 130.206,164.535 132.556,161.938 C133.609,160.774 135.198,160.08 136.206,160.344 C137.927,160.794 146.159,158.174 147.622,156.711 C148.015,156.318 147.874,154.985 147.308,153.748 C145.899,150.666 143.4,141.724 141.928,134.5 C141.256,131.2 140.163,127.6 139.499,126.5 C138.31,124.529 137.401,120.873 136.391,114 C136.108,112.075 135.514,109.6 135.072,108.5 C133.518,104.63 131,93.135 131,89.907 C131,85.414 128.9,80 127.157,80 C126.364,80 123.216,82.137 120.161,84.75 C117.106,87.362 113.872,89.95 112.973,90.5 C112.074,91.05 109.8,92.518 107.92,93.762 C100.097,98.937 93.23,98.794 90.775,93.405 C89.746,91.148 89.845,90.587 91.481,89.39 C92.527,88.626 94.534,87.986 95.941,87.969 C97.349,87.952 100.532,86.939 103.015,85.719 C108.778,82.887 126.156,68.933 130.223,63.872 Z M84.566,5.75 C85.162,0.21 85.292,0 88.093,0 C90.304,0 91,0.465 91,1.941 C91,3.009 91.48,4.179 92.067,4.541 C92.755,4.967 93.055,9.958 92.912,18.612 C92.79,25.988 92.921,32.255 93.204,32.537 C94.009,33.342 101.998,29.629 110.289,24.596 C114.453,22.068 118.113,20 118.422,20 C118.732,20 120.102,20.971 121.467,22.158 C123.26,23.717 123.86,25.121 123.631,27.215 C123.226,30.921 121.584,32.368 116,33.941 C109.617,35.739 91.966,44.549 88.726,47.553 C87.227,48.943 86,50.936 86,51.981 C86,53.027 85.55,54.16 85,54.5 C84.45,54.84 84,55.955 84,56.978 C84,58.001 83.344,60.112 82.543,61.669 C81.741,63.226 78.78,69.225 75.961,75 C69.645,87.941 67.514,91.358 62.804,96.098 C58.414,100.516 53.554,101.983 51.178,99.607 C49.711,98.139 49.926,97.652 53.762,93.743 C57.943,89.483 71,68.667 71,66.262 C71,65.563 72.161,62.63 73.579,59.745 C75.251,56.346 76.183,52.74 76.227,49.5 C76.274,45.996 76.954,43.603 78.501,41.5 C81.156,37.891 81.906,34.602 83.063,21.5 C83.549,16 84.225,8.912 84.566,5.75 Z M113.297,49.592 C114.285,48.166 115.717,47 116.479,47 C118.075,47 122,52.128 122,54.215 C122,56.698 115.888,61.975 106.571,67.535 C94.977,74.453 91.822,75.184 89.412,71.505 C86.926,67.711 88.054,66.393 98.828,60.5 C108.475,55.223 110.397,53.774 113.297,49.592 Z M101.248,183.107 C97.503,185.289 95.843,186.932 95.463,188.834 C95.17,190.3 94.536,192.85 94.055,194.5 C93.573,196.15 92.892,199.999 92.542,203.052 C92.004,207.744 92.2,208.871 93.808,210.326 C96.8,213.034 98.709,211.416 102.878,202.641 C107.679,192.537 110.035,181.184 107.5,180.369 C106.95,180.192 104.137,181.424 101.248,183.107 Z M90.667,105.667 C91.843,104.491 95.717,104.954 96.93,106.416 C97.623,107.25 97.981,110.222 97.802,113.656 C97.558,118.359 97.149,119.547 95.676,119.828 C92.264,120.477 90,117.16 90,111.512 C90,108.664 90.3,106.033 90.667,105.667 Z"/>
</svg>

