<svg xmlns="http://www.w3.org/2000/svg" width="300" height="300" viewBox="0 0 300 300" version="1.1">
  <defs/>
  <path d="M154.417,129.092 C156.738,126.527 157.492,126.492 159.845,128.845 C161.427,130.427 161.706,132.463 161.8,143.095 C161.958,160.943 165.648,201.283 167.823,208.949 C170.034,216.738 169.604,216.555 190.062,218.413 C210.663,220.283 238.985,217.765 241.065,213.879 C242.899,210.451 240.384,159.866 237.911,150.438 C236.54,145.211 237.052,139.5 238.892,139.5 C242.589,139.5 246.919,152.72 246.98,164.191 C246.991,166.221 247.45,168.16 248,168.5 C248.55,168.84 249,171.688 249,174.829 C249,177.97 249.888,183.746 250.974,187.665 C252.06,191.584 253.233,199.784 253.579,205.889 L254.21,216.988 L249.855,221.332 C247.46,223.722 244.639,225.988 243.588,226.369 C239.357,227.901 211.624,229.695 198,229.318 C181.571,228.863 168.374,226.277 163.5,222.558 C159.177,219.261 157.356,211.801 155.428,189.5 C151.6,145.206 151.386,132.441 154.417,129.092 Z M162.526,66.538 C164.162,65.671 167.075,65.083 169,65.231 C172.069,65.467 172.797,66.084 174.912,70.244 C177.159,74.663 177.231,75.279 175.971,79.244 C174.15,84.97 172.058,88.877 168.214,93.73 C166.446,95.962 165,98.23 165,98.771 C165,100.683 162.005,102.405 160.791,101.191 C159.394,99.794 161.318,90.312 164.118,84.79 C168.752,75.654 164.636,75.767 152.804,85.101 C147.853,89.006 141.377,93.312 138.412,94.669 C134.042,96.67 132.867,97.739 132.203,100.318 C131.581,102.736 130.759,103.574 128.78,103.808 C126.653,104.059 125.59,103.264 122.977,99.466 C116.356,89.844 114.192,88 109.519,88 C104.423,88 102.745,86.364 103.182,81.822 C103.915,74.198 114.749,74.441 122.75,82.262 C125.088,84.547 127,87.223 127,88.208 C127,91.263 130.511,90.242 135.642,85.695 C144.378,77.955 154.227,70.936 162.526,66.538 Z M124.507,140.25 C125.126,138.452 130.023,138.711 132.171,140.655 C136.061,144.175 133.884,162.164 128.07,174.554 C123.506,184.281 122.552,186.532 119.537,194.677 C118.076,198.624 116.233,202.392 115.44,203.049 C114.648,203.707 114,205.178 114,206.318 C114,209.057 109.183,214 106.513,214 C102.375,214 100.304,208.653 103.436,206.053 C104.225,205.398 105.154,203.574 105.5,202 C105.846,200.426 106.775,198.602 107.564,197.947 C108.354,197.291 109,196.304 109,195.753 C109,195.201 110.084,192.219 111.41,189.125 C112.735,186.031 114.647,181.364 115.66,178.754 C116.672,176.143 117.838,174.006 118.25,174.004 C118.662,174.002 119,172.902 119,171.559 C119,170.216 119.395,168.874 119.877,168.576 C121.414,167.626 123.212,158.777 123.651,150 C123.885,145.325 124.27,140.938 124.507,140.25 Z M79.088,165.616 C83.299,160.261 85.158,164.222 82.513,172.917 C79.322,183.41 79,184.644 79,186.356 C79,187.299 78.294,189.147 77.432,190.464 C76.569,191.78 74.657,195.085 73.182,197.808 C68.864,205.778 65.194,210.827 62.374,212.675 C59.794,214.365 59.692,214.343 57.317,211.582 C55.519,209.492 54.972,207.826 55.197,205.132 C55.471,201.851 55.783,201.5 58.432,201.5 C60.958,201.5 61.789,200.727 64.432,195.916 C66.119,192.846 68.705,188.346 70.177,185.916 C72.953,181.336 75.42,175.383 76.393,170.912 C76.703,169.489 77.916,167.106 79.088,165.616 Z M37.665,142.734 C37.989,142.209 39.885,142.049 41.877,142.379 C43.87,142.708 48.452,142.983 52.06,142.989 C58.049,142.999 58.898,143.272 61.81,146.119 C64.278,148.531 65,150.088 65,152.996 C65,157.042 62.976,159.589 60.513,158.643 C59.681,158.324 59,157.389 59,156.567 C59,154.027 55.117,152.815 48.033,153.142 C43.67,153.344 40.72,153.012 39.755,152.212 C38.144,150.875 36.695,144.303 37.665,142.734 Z M62.655,88.25 C66.588,84.647 69.62,85.521 73.338,91.329 C76.337,96.012 73.372,107.146 68.809,108.34 C65.746,109.141 65,108.365 65,104.376 C65,101.71 64.283,100.267 62.003,98.349 C58.457,95.365 58.682,91.889 62.655,88.25 Z"/>
</svg>

