<svg xmlns="http://www.w3.org/2000/svg" width="300" height="300" viewBox="0 0 300 300" version="1.1">
  <defs/>
  <path d="M172.739,62.75 C175.063,60.161 178.471,60.543 179.839,63.547 C181.423,67.022 181.325,67.922 178.869,72.505 C177.509,75.043 176.652,78.654 176.499,82.491 C176.367,85.796 175.925,91.082 175.516,94.238 C174.874,99.196 175.01,100.067 176.522,100.647 C177.485,101.016 178.998,100.808 179.886,100.185 C182.487,98.358 193.493,93.251 198.475,91.56 C201.002,90.702 206.379,90 210.423,90 C217.19,90 218.181,90.279 222.864,93.5 C225.662,95.425 228.351,97 228.838,97 C229.725,97 236.171,101.686 239,104.386 C239.825,105.174 241.738,106.381 243.25,107.07 C246.675,108.628 246.926,112.385 243.826,115.686 C240.852,118.851 239.637,118.628 234.616,114 C232.229,111.8 229.804,110 229.227,110 C228.65,110 226.972,108.567 225.498,106.816 C222.176,102.867 214.492,100.077 206.82,100.033 C202.559,100.008 199.509,100.754 194.617,103.019 C191.03,104.679 187.853,106.428 187.558,106.906 C187.263,107.383 185.465,108.065 183.562,108.422 C179.247,109.232 174.971,113.653 173.419,118.91 C172.315,122.649 172.422,123.183 174.99,126.712 C176.506,128.795 179.604,134.026 181.873,138.335 C185.277,144.797 186,147.146 186,151.739 C186,156.99 185.763,157.526 181.834,161.154 C178.347,164.372 176.966,165 173.371,165 C171.008,165 166.562,164.06 163.491,162.911 C157.198,160.556 155.742,160.783 153.835,164.414 C148.822,173.959 141.056,190.101 139.602,194 C139.294,194.825 137.92,197.3 136.549,199.5 C135.177,201.7 133.438,204.85 132.683,206.5 C131.928,208.15 130.565,210.118 129.655,210.872 C128.745,211.627 128,212.902 128,213.704 C128,214.507 126.425,217.085 124.5,219.435 C122.575,221.784 121,224.392 121,225.231 C121,226.069 120.325,227.315 119.5,228 C118.675,228.685 118,229.764 118,230.399 C118,231.034 116.313,233.814 114.25,236.575 C112.188,239.337 109.834,242.925 109.019,244.549 C104.004,254.542 89.317,268.408 84.371,267.818 C80.136,267.313 79.091,264.596 81.958,261.545 C83.273,260.145 84.875,259 85.518,259 C86.723,259 95,249.734 95,248.385 C95,247.969 96.819,245.471 99.043,242.834 C101.266,240.197 103.768,236.568 104.603,234.77 C106.486,230.712 107.297,229.349 113.394,220 C116.085,215.875 119.684,209.954 121.393,206.843 C123.102,203.732 126.862,197.032 129.75,191.956 C132.637,186.879 135,182.379 135,181.956 C135,181.213 140.08,170.063 141.814,167 C144.197,162.791 146.329,158.209 147.056,155.734 C147.768,153.312 147.255,152.265 142.935,147.328 C140.221,144.227 138,141.342 138,140.918 C138,140.494 135.71,136.689 132.911,132.462 C127.604,124.448 127.46,122.146 132.345,123.372 C135.131,124.071 147,135.453 147,137.425 C147,139.401 150.756,142.308 152.463,141.653 C153.308,141.328 154,140.205 154,139.156 C154,138.107 155.125,134.705 156.5,131.596 C157.875,128.487 159,124.377 159,122.462 C159,119.534 158.37,118.545 155.038,116.24 C150.593,113.166 149.909,110.298 152.96,107.536 C154.408,106.226 155.809,105.929 158.322,106.401 C160.55,106.819 162.075,106.601 162.745,105.769 C164.31,103.824 166,94.582 166,87.965 C166,79.169 169.392,66.478 172.739,62.75 Z M102.447,118.059 C107.678,112.278 115.997,119.444 116.003,129.736 C116.004,132.356 115.286,137.65 114.406,141.5 C112.53,149.711 112.562,149.624 109.977,153.5 C108.877,155.15 107.688,157.35 107.335,158.389 C106.983,159.427 105.638,162.264 104.347,164.691 C103.056,167.119 102,169.892 102,170.853 C102,174.65 96.431,176.371 91.934,173.965 C89.209,172.506 89.495,170.951 93.607,164.85 C99.281,156.434 102.975,147.398 104.992,137 C106.291,130.303 105.607,127.035 101.812,121.809 C100.807,120.424 100.922,119.744 102.447,118.059 Z M69.595,171.168 C72.426,167.126 74.462,168.782 74.804,175.405 C74.972,178.643 74.634,181.766 74.054,182.346 C73.474,182.926 72.978,184.322 72.952,185.45 C72.878,188.627 67.257,198.844 59.466,209.962 C55.254,215.972 52.867,218.37 49.443,220.027 C42.391,223.441 41.789,222.372 42.27,207.294 C42.671,194.704 43.446,192.19 46.559,193.384 C47.96,193.922 48.139,194.853 47.591,198.767 C46.445,206.963 46.466,207.416 48,207.731 C48.934,207.922 50.603,206.05 52.422,202.769 C54.029,199.871 56.784,195.7 58.545,193.5 C61.703,189.556 68,177.003 68,174.653 C68,173.988 68.718,172.42 69.595,171.168 Z M42,145 C47.61,139.477 50.717,138.707 53.843,142.062 C55.981,144.357 57.258,150.298 56.355,153.75 C55.721,156.176 53.122,156.722 51.228,154.828 C50.331,153.931 49.166,154.108 46.278,155.578 C44.2,156.635 42.275,157.78 42,158.122 C41.011,159.352 32.066,163 30.039,163 C28.652,163 27.41,161.83 26.278,159.457 C24.704,156.155 24.701,155.73 26.244,153.207 C27.479,151.189 28.74,150.478 31.2,150.412 C36.583,150.269 36.713,150.204 42,145 Z M51.686,90.017 C56.976,88.429 58.681,88.904 62.384,93.003 C65.49,96.441 66,97.689 66,101.848 C66,105.358 65.47,107.17 64.074,108.433 C61.093,111.131 58.557,110.087 58.169,106.001 C57.777,101.888 56.715,101.036 51.95,101.015 C47.706,100.997 46,99.537 46,95.922 C46,92.896 47.588,91.247 51.686,90.017 Z M165.82,135.75 C164.113,137.754 162.407,142.067 161.5,146.672 C160.94,149.518 161.264,150.107 164.67,152.422 C168.735,155.184 172.855,155.745 174.8,153.8 C176.763,151.837 176.201,146.898 173.262,140.277 C170.369,133.758 168.49,132.615 165.82,135.75 Z"/>
</svg>

