<svg xmlns="http://www.w3.org/2000/svg" width="300" height="300" viewBox="0 0 300 300" version="1.1">
  <defs/>
  <path d="M181.29,32.25 C182.503,30.662 186.233,30.633 187.8,32.2 C188.638,33.038 189,38.467 189,50.2 C189,70.281 189.151,70.437 199,60.5 C202.543,56.925 206.232,54 207.198,54 C208.164,54 209.694,55.129 210.598,56.509 C212.076,58.765 212.091,59.328 210.747,62.104 C209.925,63.801 208.354,65.71 207.256,66.345 C206.158,66.98 202.276,69.904 198.63,72.841 L192,78.183 L191.885,83.841 C191.823,86.954 191.801,95.575 191.838,103 L191.905,116.5 L196.202,120.254 C198.566,122.319 202.911,125.469 205.858,127.254 C220.944,136.394 229.808,142.865 239.752,151.998 C245.113,156.921 252.378,162.874 255.896,165.225 C259.414,167.576 263.23,170.758 264.376,172.296 C266.299,174.877 266.342,175.299 264.945,177.789 C264.112,179.272 262.686,180.629 261.774,180.805 C260.855,180.982 257.531,178.752 254.309,175.797 C251.114,172.867 246.925,169.365 245,168.014 C243.075,166.663 237.138,161.659 231.806,156.894 C226.475,152.129 220.035,146.941 217.495,145.365 C214.955,143.789 211.602,141.487 210.044,140.25 C208.486,139.012 206.754,138 206.195,138 C205.637,138 202.902,136.2 200.119,134 C197.139,131.645 195.183,129.608 193.902,129.969 C191.169,130.739 191.512,142.429 191.551,185.251 C191.601,238.883 191.544,240.566 189.627,242.75 C187.076,245.655 184.932,245.593 181.614,242.518 C180.141,241.153 178.13,239.605 177.144,239.077 C174.831,237.839 171.747,227.629 172.171,222.614 C172.395,219.968 173.197,218.268 174.684,217.286 C176.72,215.941 176.974,216.049 178.434,218.872 C179.295,220.538 180,222.823 180,223.95 C180,225.078 180.45,226 181,226 C181.55,226 182.006,225.438 182.013,224.75 C182.019,224.063 182.27,212.475 182.569,199 C183.714,147.386 183.606,130.786 182.122,130.217 C180.244,129.496 177.05,133.882 177.022,137.22 C177.007,139.067 176.037,140.652 174,142.158 C172.35,143.378 171,145.016 171,145.798 C171,147.047 166.419,156.836 163.887,161 C163.385,161.825 162.142,164.306 161.124,166.514 C160.106,168.722 158.537,171.14 157.637,171.887 C156.736,172.634 155.995,173.752 155.99,174.372 C155.977,175.749 152.426,182.369 148.882,187.62 C143.165,196.094 138.21,199.253 134.093,197.05 C131.021,195.406 131.497,193.594 136.3,188.653 C138.665,186.219 142.152,181.442 144.05,178.035 C145.947,174.629 148.956,169.29 150.735,166.171 C152.514,163.052 154.706,158.925 155.606,157 C161.159,145.124 162.79,142.004 165.728,137.638 C167.528,134.964 169,132.186 169,131.465 C169,130.743 170.125,128.816 171.5,127.182 C172.875,125.548 174.011,123.376 174.024,122.356 C174.037,121.335 175.172,117.8 176.546,114.5 C178.623,109.511 180.802,96.594 180.974,88.25 C181.013,86.387 177.16,86.739 173.618,88.921 C169.236,91.621 160.387,94.988 155.056,95.984 C149.282,97.063 145.062,95.067 145.015,91.235 C144.994,89.504 150.454,86.325 154.868,85.498 C158.524,84.814 165.235,82.163 170.154,79.459 C171.614,78.656 173.502,78 174.349,78 C175.195,78 177.069,76.985 178.512,75.743 C180.716,73.847 180.984,73.088 180.187,70.991 C179.665,69.618 179.182,63.165 179.113,56.65 C179.045,50.135 178.715,43.714 178.381,42.383 C177.798,40.059 179.287,34.872 181.29,32.25 Z M108.504,51.994 C109.277,50.743 113.025,50.73 114.988,51.971 C115.806,52.488 116.562,54.394 116.669,56.206 C117.197,65.178 118.325,71 119.534,71 C120.241,71 122.821,68.677 125.267,65.838 C130.798,59.419 133,59.641 133,66.617 C133,70.981 132.637,71.64 127.603,76.398 C124.634,79.204 121.483,82.659 120.601,84.077 C118.814,86.948 117.569,101.886 118.15,113.5 C118.343,117.35 118.453,123.537 118.396,127.25 L118.292,134 L124.599,134 C128.068,134 131.94,134.403 133.203,134.896 C134.466,135.389 137.525,136.32 140,136.966 C146.565,138.678 148.602,139.14 149.228,140.338 C149.549,140.951 149.5,141.758 149.5,143.024 C149.5,146.428 149.407,146.507 145,146.83 C142.439,147.017 139.207,146.534 137.5,145.708 C135.85,144.91 132.025,143.699 129,143.018 C125.975,142.336 122.503,141.154 121.285,140.39 C120.067,139.625 118.675,139 118.192,139 C117.708,139 117.006,147.438 116.63,157.75 C114.717,210.331 114.5,213.692 112.904,215.615 C111.338,217.503 107.055,217.359 104.829,215.345 C101.87,212.667 102.435,203.405 106.1,194.5 C106.553,193.4 107.16,185.975 107.45,178 C107.739,170.025 108.269,160.417 108.627,156.65 C109.231,150.296 109.141,149.825 107.389,150.15 C106.35,150.342 104.578,152.323 103.452,154.552 C102.326,156.78 100.188,160.198 98.702,162.146 C97.216,164.095 96,166.121 96,166.648 C96,167.75 90.678,172.911 87.027,175.349 C84.136,177.28 78.919,177.519 77.2,175.8 C75.187,173.787 75.853,171.128 78.75,169.611 C85.124,166.273 88.883,160.613 101.461,135.419 C103.405,131.524 105.305,128.028 105.683,127.65 C107.879,125.454 108.971,118.377 108.985,106.25 C108.994,97.986 109.067,94.13 107.492,93.261 C106.076,92.48 103.326,94.115 98,97.134 C87.252,103.226 84.682,104.168 82.293,102.889 C80.391,101.871 80.011,101.063 80.487,99.05 C80.818,97.647 81.632,96.155 82.295,95.733 C87.917,92.154 100.275,85 100.835,85 C101.22,85 103.278,83.816 105.407,82.37 L109.277,79.739 L108.584,66.363 C108.202,59.007 108.166,52.54 108.504,51.994 Z M63.307,153.231 C65.683,150.636 67.593,150.813 67.301,153.601 C65.017,175.456 58.784,188.867 50.864,188.967 C47.595,189.008 45,184.198 45,178.099 C45,173.521 46.436,172.618 47.428,176.571 C47.783,177.985 48.6,178.967 49.244,178.752 C50.576,178.308 53.817,173.127 53.927,171.265 C53.967,170.586 55.3,167.886 56.888,165.265 C58.477,162.644 60.103,159.375 60.503,158 C60.903,156.625 62.165,154.479 63.307,153.231 Z M30.725,124.609 C31.123,124.21 32.361,124.228 33.475,124.648 C34.589,125.068 39.286,125.432 43.914,125.456 C52.185,125.499 52.357,125.551 54.091,128.5 C56.319,132.291 56.418,135.291 54.441,139.113 C52.529,142.811 50.857,142.429 49.379,137.958 C47.936,133.587 45.677,132.096 43.017,133.757 C41.923,134.441 39.755,135 38.201,135 C33.363,135 27.911,127.422 30.725,124.609 Z M49.823,75.709 C56.612,74.671 57.964,75.162 64.25,80.952 C68.374,84.75 69.072,88.158 66.345,91.171 C63.969,93.797 62.249,93.458 57.868,89.5 C55.285,87.166 53.011,86 51.044,86 C48.654,86 47.778,85.334 46.43,82.493 C44.483,78.39 45.492,76.372 49.823,75.709 Z M45.667,163.667 C46.797,162.536 47.887,162.92 48.895,164.804 C50.12,167.092 48.703,169.484 46.601,168.677 C44.998,168.062 44.413,164.921 45.667,163.667 Z"/>
</svg>

