<svg xmlns="http://www.w3.org/2000/svg" width="300" height="300" viewBox="0 0 300 300" version="1.1">
  <defs/>
  <path d="M95.635,72.073 C99.762,68.826 102.388,69.416 106.579,74.531 C109.893,78.575 110.169,79.334 109.146,81.578 C108.516,82.962 107.986,85.085 107.968,86.297 C107.951,87.509 107.276,89.374 106.468,90.441 C105.661,91.509 105,93.018 105,93.796 C105,94.574 103.695,97.143 102.1,99.506 C98.892,104.261 96.296,110.629 97.198,111.532 C97.518,111.852 99.651,112.299 101.937,112.527 C107.213,113.052 107.615,113.326 110.014,118.028 C112.104,122.124 112.639,127.945 111.074,129.55 C109.551,131.111 103,143.924 103,145.34 C103,146.061 101.875,147.708 100.5,149 C99.125,150.292 98,152.358 98,153.591 C98,154.824 97.524,155.992 96.943,156.186 C94.688,156.937 97.336,159.809 102.3,161.997 C105.16,163.258 109.3,165.109 111.5,166.111 C113.7,167.114 122.243,170.926 130.485,174.582 C138.726,178.239 148.626,183.046 152.485,185.264 C156.343,187.482 163.1,191.267 167.5,193.674 C171.9,196.081 175.999,198.377 176.61,198.775 C177.22,199.174 179.02,200.367 180.61,201.427 C182.199,202.486 186.637,205.374 190.471,207.843 C194.305,210.313 198.327,213.158 199.409,214.167 C200.492,215.175 201.714,216 202.125,216 C202.537,216 205.94,218.115 209.687,220.7 C213.434,223.286 218.75,226.87 221.5,228.665 C231.539,235.22 238,241.292 238,244.172 C238,247.104 235.709,250 233.39,250 C232.583,250 230.028,248.153 227.711,245.896 C225.395,243.639 221.744,240.602 219.598,239.146 C213.131,234.762 196.868,225 196.029,225 C195.598,225 194.669,224.306 193.965,223.458 C193.261,222.61 189.718,219.982 186.093,217.619 C176.625,211.45 175.915,210.982 168.347,205.92 C160.452,200.64 155.894,197.919 147.5,193.473 C144.2,191.725 140.15,189.576 138.5,188.696 C136.85,187.816 131.45,185.233 126.5,182.955 C121.55,180.677 115.25,177.761 112.5,176.476 C106.255,173.557 89.23,168.74 87.951,169.53 C87.428,169.853 87,170.703 87,171.418 C87,174.122 76.773,191.852 70.308,200.356 C67.859,203.577 65.609,206.856 65.307,207.643 C63.617,212.047 54.087,212.899 51.915,208.841 C50.42,206.047 51.25,204.584 55.462,202.585 C57.527,201.605 60.709,198.625 62.804,195.711 C67.981,188.504 80,167.038 80,164.997 C80,161.86 64.351,156.55 57.79,157.461 C55.43,157.788 52.833,157.615 52.019,157.076 C49.398,155.342 53.856,150.719 59.597,149.217 C63.812,148.115 65.342,148.17 70.5,149.607 C73.8,150.526 78.446,152.172 80.825,153.264 C85.666,155.488 85.892,155.374 89.306,149 C98.884,131.117 100.542,127.142 99.047,125.647 C97.778,124.378 92.792,126.528 89.924,129.58 C87.096,132.591 85.349,132.634 82.944,129.75 C80.938,127.346 80.344,121.524 82,120.5 C82.55,120.16 83.022,119.121 83.048,118.191 C83.074,117.261 83.862,115.083 84.798,113.35 C89.704,104.271 98,86.423 98,84.948 C98,84.151 96.879,83.988 94.483,84.437 C89.456,85.38 88.581,84.414 90.967,80.553 C92.085,78.744 93,76.562 93,75.705 C93,74.847 94.186,73.212 95.635,72.073 Z M169.789,49.82 C172.764,48.638 173.526,48.927 175.284,51.904 C176.228,53.502 177,55.049 177,55.343 C177,55.638 175.313,57.892 173.25,60.353 C165.177,69.988 162.433,73.588 160.703,76.816 L158.903,80.173 L162.549,83.611 C164.868,85.798 165.979,87.613 165.601,88.597 C165.274,89.448 165.502,91.069 166.106,92.198 C166.711,93.328 167.413,99.258 167.666,105.376 C167.92,111.494 168.538,116.917 169.04,117.426 C170.2,118.604 173.685,115.522 175.739,111.502 C178.723,105.666 183.079,101 185.545,101 C188.343,101 192,104.563 192,107.289 C192,108.34 188.412,113.372 184.026,118.47 C178.209,125.231 175.24,127.902 173.054,128.339 L170.057,128.939 L170.278,139.474 C170.455,147.855 170.807,150.096 172,150.429 C172.825,150.659 187.225,151.124 204,151.463 C220.775,151.802 235.673,152.308 237.107,152.588 C238.54,152.867 240.282,154.158 240.977,155.457 C242.11,157.573 241.9,158.242 238.953,161.909 C237.145,164.159 235.272,166 234.792,166 C234.312,166 232.7,165.104 231.21,164.01 C228.792,162.234 226.072,161.926 206,161.148 C193.625,160.668 182.15,160.26 180.5,160.24 C175.447,160.18 150,163.059 141,164.709 C136.325,165.566 129.887,166.319 126.693,166.383 C121.334,166.491 120.756,166.283 119.193,163.68 C117.551,160.944 117.572,160.8 119.869,158.923 C121.172,157.858 124.772,156.305 127.869,155.472 C135.201,153.5 137.497,152.964 138.137,151.631 C138.47,150.94 138.356,150.034 138.269,148.602 C138.112,146.034 137.066,143.7 135.033,141.385 C131.505,137.366 130.543,134.248 131.409,129.631 C132.108,125.907 135.221,122.487 137.216,123.253 C137.926,123.525 139.12,125.492 139.869,127.624 C142.323,134.612 144.286,138.458 146.792,141.19 C148.149,142.67 149.007,144.539 148.699,145.343 C147.445,148.61 150.509,150.472 157.16,150.486 L163.5,150.5 L163.192,145 C163.022,141.975 162.415,136.8 161.843,133.5 C161.271,130.2 160.439,123.9 159.994,119.5 C158.593,105.633 155.83,87.535 154.976,86.627 C153.901,85.486 149.024,90.38 148.919,92.705 C148.808,95.179 144.859,102.102 142.851,103.343 C140.683,104.683 136,101.719 136,99.007 C136,96.169 140.902,87.653 146.714,80.397 C148.521,78.14 150,75.841 150,75.288 C150,74.734 151.571,72.306 153.49,69.891 C155.41,67.476 156.991,65.05 157.004,64.5 C157.04,62.988 167.83,50.598 169.789,49.82 Z M51.2,173.2 C52.814,171.586 55.493,171.684 56.926,173.411 C57.766,174.423 57.787,175.014 57.001,175.5 C56.318,175.921 56.139,177.748 56.525,180.339 C57.637,187.786 51.214,198.576 42.306,204.225 C37.106,207.523 33.44,207.093 31.201,202.921 C29.747,200.214 30.322,189.278 32.006,187.594 C32.553,187.047 33,184.99 33,183.023 C33,179.134 35.529,174.591 37.139,175.586 C37.72,175.945 37.867,177.828 37.489,180.066 C37.13,182.189 37.211,184.506 37.668,185.213 C38.126,185.921 38.5,188.064 38.5,189.976 C38.5,194.477 41.576,195.537 42.616,191.394 C42.994,189.888 44.81,185.99 46.652,182.732 C48.493,179.474 50,176.266 50,175.604 C50,174.942 50.54,173.86 51.2,173.2 Z M20.557,132.223 C22.558,129.365 23.825,129.41 24.955,132.381 C25.7,134.341 26.969,134.957 32.139,135.868 C39.371,137.141 41.261,138.737 42.959,145 C44.375,150.222 44.378,150.556 43.089,158.5 C41.74,166.808 40.979,169 39.442,169 C37.386,169 37.224,168.007 38.05,160.5 C38.971,152.141 38.456,148.867 35.767,145.981 C34.181,144.277 33.058,143.954 30.438,144.446 C25.576,145.358 22.125,144.142 20.465,140.932 C18.589,137.305 18.613,134.997 20.557,132.223 Z M40.685,81.378 C41.484,79.296 49.874,79.626 53.58,81.885 C55.274,82.918 57.273,85.246 58.024,87.057 C59.28,90.09 59.186,90.713 56.842,94.925 C54.767,98.652 53.712,99.558 51.148,99.813 C47.7,100.157 47.586,99.932 48.892,95.377 C50.013,91.469 49.277,90.269 45.497,89.84 C43.172,89.576 42.425,88.939 42.165,87 C41.981,85.625 41.454,84.108 40.993,83.628 C40.533,83.149 40.394,82.136 40.685,81.378 Z"/>
</svg>

