<svg xmlns="http://www.w3.org/2000/svg" width="300" height="300" viewBox="0 0 300 300" version="1.1">
  <defs/>
  <path d="M117.385,39.009 C124.504,36.547 126.719,36.628 129.545,39.455 C133.063,42.972 132.944,43.693 126.66,56.947 C126.022,58.292 124.037,60.865 122.25,62.663 C118.678,66.257 117.783,69.725 120.75,68.478 C124.821,66.767 126.978,66.779 127.645,68.517 C128.889,71.759 121.57,82.615 115.425,86.641 C112.018,88.874 112.384,89.654 117.138,90.292 C123.366,91.127 124.303,92.535 122.843,98.861 C121.888,102.996 121.896,104.823 122.88,107.543 C123.565,109.438 123.83,111.467 123.468,112.051 C122.394,113.79 123.913,118 125.615,118 C126.482,118 128.482,117.081 130.06,115.957 C133.968,113.174 141.564,112.373 146.093,114.265 C151.243,116.417 153.484,121.551 153.165,130.468 C153.008,134.861 152.377,138.031 151.458,139.046 C150.656,139.933 149.998,141.747 149.996,143.079 C149.991,146.265 147.425,150.308 141.249,156.857 L136.197,162.215 L131.293,161.54 L126.39,160.866 L125.167,173.183 C124.494,179.957 123.506,187.525 122.971,190 C122.437,192.475 121.799,200.393 121.555,207.595 C120.782,230.351 119.378,235.462 114.991,231.492 C112.925,229.622 112.899,226.751 114.426,170 C114.801,156.058 113.9,145 112.388,145 C110.218,145 109,148.515 109,154.779 C109,159.383 108.566,161.083 107.037,162.466 C104.859,164.438 102,163.905 102,161.528 C102,158.251 89.5,139 87.372,139 C86.639,139 85.737,140.238 85.368,141.75 C85,143.262 83.641,146.834 82.349,149.686 C81.057,152.538 80,155.549 80,156.377 C80,157.205 79.55,158.16 79,158.5 C78.45,158.84 78,159.907 78,160.871 C78,161.835 77.1,164.487 76,166.764 C74.9,169.041 74,171.488 73.999,172.202 C73.998,173.816 70.681,182.652 69.713,183.621 C69.321,184.013 68.993,185.271 68.985,186.417 C68.945,192.126 60.227,212.027 56.677,214.514 C53.924,216.442 53.394,216.394 51,214 C48.241,211.241 48.494,208.523 51.915,204.191 C54.95,200.349 57.828,194.337 59.906,187.5 C60.994,183.92 62.66,179.388 65.052,173.5 C65.499,172.4 66.551,168.644 67.39,165.154 C68.228,161.663 69.29,158.288 69.749,157.654 C70.208,157.019 71.156,154.7 71.858,152.5 C73.346,147.829 74.639,144.598 76.593,140.669 C77.367,139.112 78,136.776 78,135.478 C78,134.18 78.45,132.84 79,132.5 C79.55,132.16 80,130.74 80,129.345 C80,127.95 80.651,125.614 81.447,124.154 C82.243,122.694 84.081,117.9 85.53,113.5 C86.979,109.1 88.547,104.6 89.014,103.5 C89.481,102.4 90.092,100.15 90.371,98.5 C91.299,93.013 92.141,89.521 93.023,87.5 C94.519,84.072 95.97,74.8 96.138,67.602 C96.442,54.524 99.256,49.926 105.056,53.03 C107.029,54.086 107.169,54.76 106.681,60.843 C106.386,64.504 105.836,68.737 105.456,70.25 C104.915,72.41 105.118,73 106.402,73 C107.443,73 109.305,70.368 111.531,65.75 C113.454,61.763 115.695,57.626 116.513,56.559 C118.029,54.579 118.55,51 117.321,51 C116.948,51 115.177,51.53 113.387,52.177 C109.208,53.688 107,52.068 107,47.493 C107,43.705 109.347,41.787 117.385,39.009 Z M193.2,18.2 C194.808,16.592 195.408,16.669 199.191,18.97 C203.099,21.346 204.293,25.797 206.336,45.592 C207.079,52.793 207.99,59.176 208.361,59.776 C208.732,60.376 209.476,66.634 210.014,73.683 C210.551,80.733 211.492,92.35 212.104,99.5 C213.145,111.673 213.482,243.952 212.5,255 C211.797,262.895 209.814,271.446 208.28,273.193 C207.462,274.125 205.529,275.164 203.984,275.504 C200.305,276.312 193.553,271.264 187.448,263.142 C185.023,259.916 182.355,256.71 181.519,256.016 C180.684,255.323 180,254.38 180,253.922 C180,252.805 175.369,245.996 172.912,243.5 C169.517,240.051 165.037,232.593 165.018,230.357 C164.999,228.056 167.12,226.725 169.408,227.603 C170.182,227.9 173.438,231.823 176.644,236.322 C179.85,240.82 185.067,247.02 188.237,250.099 C191.406,253.179 194.014,256.104 194.032,256.599 C194.091,258.294 199.132,263.268 199.893,262.383 C201.35,260.689 202.91,253.442 203.528,245.5 C204.251,236.214 204.255,124.554 203.533,109 C203.265,103.225 202.366,93.325 201.534,87 C200.703,80.675 199.323,68.75 198.467,60.5 C196.891,45.314 194.853,33.374 193.01,28.527 C191.64,24.922 191.736,19.664 193.2,18.2 Z M162.406,79.149 C163.318,77.676 168.363,78.226 170.544,80.036 C172.351,81.536 174,89.03 174,95.743 C174,98.964 174.412,102.027 174.915,102.55 C175.418,103.072 175.981,112.489 176.165,123.475 L176.5,143.449 L173.728,144.425 C171.419,145.238 170.588,145.032 168.745,143.19 C166.823,141.268 166.574,140.097 166.843,134.239 C167.013,130.533 166.402,123.225 165.484,118 C164.542,112.636 164.059,106.382 164.374,103.635 C164.742,100.436 164.456,97.849 163.54,96.077 C161.946,92.995 161.154,81.172 162.406,79.149 Z M107.243,91.976 C104.42,93.258 102.644,94.851 101.972,96.704 C101.415,98.242 100.518,100.513 99.979,101.75 C98.068,106.142 97.213,108.555 95.994,113 C95.315,115.475 94.033,118.969 93.145,120.765 C91.853,123.376 91.771,124.377 92.739,125.765 C93.405,126.719 95.296,130.313 96.942,133.75 C98.588,137.188 100.406,140 100.98,140 C101.555,140 103.545,137.637 105.403,134.75 C107.26,131.863 109.955,128.409 111.39,127.076 C113.549,125.071 114,123.765 114,119.526 C114,116.707 113.438,113.837 112.75,113.15 C111.897,112.297 111.512,108.422 111.539,100.95 C111.56,94.934 111.56,90.022 111.539,90.022 C111.517,90.034 109.584,90.914 107.243,91.976 Z M132.5,126.61 C124.806,130.546 124,131.582 124,137.533 C124,145.964 126.843,151 131.602,151 C134.956,151 143,135.466 143,128.988 C143,126.062 141.349,123.988 139.05,124.026 C138.197,124.04 135.25,125.203 132.5,126.61 Z M20.2,142.2 C21.674,140.726 22.3,140.7 23.657,142.057 C24.238,142.638 27.187,143.689 30.21,144.391 C35.844,145.701 43.577,150.885 44.395,153.902 C47.222,164.317 47.372,165.932 45.682,167.799 C44.757,168.821 44,170.86 44,172.329 C44,173.798 43.591,175 43.09,175 C42.59,175 42.211,173.016 42.247,170.591 C42.284,168.166 41.538,164.547 40.59,162.549 C38.542,158.234 32.111,153.299 27.376,152.411 C25.392,152.038 22.956,150.548 21.494,148.811 C18.721,145.515 18.42,143.98 20.2,142.2 Z M55.643,171.391 C59.155,167.105 61,166.531 61,169.723 C61,170.606 59.425,174.647 57.5,178.703 C55.575,182.758 54,187.395 54,189.008 C54,194.654 46.734,204.603 43.514,203.367 C40.153,202.077 40.85,193.033 44.632,188.854 C45.453,187.947 47.46,184.63 49.093,181.483 C50.726,178.336 53.673,173.794 55.643,171.391 Z M46.7,71.094 C48.79,69.991 51.078,69.069 51.785,69.044 C54.204,68.961 58.095,72.291 59.496,75.644 C60.812,78.793 60.714,79.341 57.881,84.747 C54.018,92.117 53.618,92.475 51.553,90.41 C50.309,89.166 50.004,87.791 50.448,85.424 C51.135,81.764 49.869,80.385 46.252,80.852 C44.586,81.067 43.735,80.433 42.962,78.399 C41.563,74.721 42.206,73.465 46.7,71.094 Z"/>
</svg>

