<svg xmlns="http://www.w3.org/2000/svg" width="300" height="300" viewBox="0 0 300 300" version="1.1">
  <defs/>
  <path d="M177.523,79.54 C182.605,76.847 185.869,77.86 188.671,83 C190.859,87.013 191.054,88.258 190.477,94.5 C190.121,98.35 189.439,101.971 188.96,102.547 C188.189,103.477 187.059,108.522 185.33,118.759 C185.027,120.552 184.379,122.266 183.89,122.568 C183.4,122.871 183,124.341 183,125.837 C183,127.332 182.392,129.443 181.649,130.527 C180.906,131.612 180.013,133.676 179.664,135.114 C179.104,137.422 180.11,138.769 188.265,146.631 C200.123,158.062 218.259,177.079 232.669,193.192 C238.911,200.173 245.857,207.148 248.103,208.692 C254.989,213.427 265,222.061 265,223.265 C265,224.781 258.923,231 257.442,231 C256.21,231 228.432,203.892 223.767,198.139 C220.187,193.723 202.977,175.191 191,162.853 C185.775,157.471 180.432,151.918 179.126,150.514 C176.15,147.313 174.729,148.292 172.95,154.769 C172.236,157.371 169.48,163.817 166.826,169.094 C164.172,174.37 162,179.365 162,180.194 C162,182.294 156.596,189.532 151.277,194.557 C145.967,199.573 140.93,200.833 135.409,198.526 C130.314,196.397 131.004,195.08 139.09,191.509 C144.029,189.328 147.421,184.656 145.998,181.996 C145.311,180.713 143.904,180 142.058,180 C140.479,180 136.294,178.702 132.758,177.116 C124.954,173.614 118.526,172.339 117.451,174.08 C117.036,174.751 116.596,178.045 116.474,181.4 C116.351,184.755 115.684,193.236 114.991,200.248 C113.868,211.624 113.463,213.264 111.23,215.498 C109.853,216.874 107.822,218 106.717,218 C104.777,218 95.984,211.577 96.015,210.183 C96.059,208.222 98.196,206.653 101.569,206.105 C105.247,205.507 105.351,205.374 105.548,200.996 C105.659,198.523 106.313,191.451 107.001,185.28 C107.689,179.108 107.955,171.458 107.592,168.28 C107.229,165.101 106.907,161.6 106.877,160.5 C106.703,154.048 103.857,151.451 102.572,156.571 C101.963,158.994 100.25,161.902 91.272,175.75 C89.222,178.912 86.951,182.604 86.226,183.953 C82.333,191.198 67.076,207.348 61.562,210.062 C56.441,212.582 56.086,212.54 52.25,208.945 C48.742,205.656 48.043,202.039 50.519,199.984 C51.757,198.957 52.372,199.027 53.847,200.362 C54.843,201.263 56.072,202 56.579,202 C58.774,202 69.451,190.482 76.402,180.615 C78.106,178.197 80.88,174.256 82.566,171.859 C84.252,169.462 86.432,165.25 87.41,162.5 C92.05,149.458 93.285,148.078 100.367,148.032 C105.171,148 105.224,147.965 104.543,145.25 C104.163,143.738 103.493,139.575 103.053,136 C101.444,122.912 100.317,121.809 93.368,126.525 C91.321,127.914 88.488,129.34 87.073,129.695 C85.658,130.049 83.15,131.161 81.5,132.165 C77.768,134.438 74.215,134.504 71.829,132.345 C68.179,129.042 70.807,123.009 75.905,122.99 C79.763,122.976 87.769,118.928 100.309,110.651 C106.464,106.589 113.075,102.414 115,101.373 C116.925,100.333 121.022,97.798 124.104,95.741 C130.303,91.602 132.455,91.196 135.171,93.655 C137.91,96.133 137.416,98.866 133.88,100.797 C125.265,105.499 114.634,113.008 112.929,115.593 C110.88,118.702 110.14,130.35 111.922,131.452 C112.428,131.765 113.132,135.054 113.485,138.761 C113.838,142.467 114.593,147.926 115.163,150.89 C115.734,153.855 116.2,157.775 116.2,159.601 C116.2,163.905 117.365,164.684 123.872,164.732 C128.929,164.77 131.344,165.547 143.5,171.051 C150.131,174.053 152.403,174.319 154.202,172.307 C155.633,170.705 159.346,163.143 162.209,156 C164.049,151.407 165.708,147.524 166.962,144.875 C167.839,143.022 167.903,141.699 167.181,140.375 C164.939,136.266 157.616,130.368 151.817,128 C144.603,125.055 143.104,123.261 144.783,119.578 C146.504,115.8 152.801,116.001 160.322,120.075 C163.445,121.766 166,123.549 166,124.036 C166,125.596 170.173,128.871 171.508,128.358 C172.217,128.086 173.017,126.432 173.287,124.682 C173.556,122.932 175.125,116.775 176.773,111 C180.468,98.056 181.314,92.058 179.543,91.378 C177.437,90.57 171.181,94.999 158.903,105.99 C155.825,108.745 152.711,111 151.982,111 C150.01,111 147,107.94 147,105.935 C147,103.718 162.715,88.935 168.872,85.36 C171.417,83.882 173.735,82.323 174.023,81.895 C174.31,81.467 175.885,80.407 177.523,79.54 Z M94.161,52.547 C95.004,50.695 96.09,50 98.137,50 C102.832,50 105.538,56.182 106.563,69.25 C107.224,77.683 108.376,78.88 111.728,74.619 C112.758,73.31 115.737,69.862 118.349,66.957 L123.097,61.676 L126.548,63.322 C132.237,66.034 131.34,68.521 121.013,78.669 C116.07,83.526 110.67,88.766 109.013,90.313 C106.681,92.49 106,93.987 106,96.94 C106,101.259 104.192,103.307 100.805,102.827 C98.57,102.51 98.481,102.102 97.884,89.5 C97.212,75.317 95.501,63.101 93.972,61.572 C92.651,60.251 92.747,55.649 94.161,52.547 Z M58.153,168.696 C61.466,163.854 64.699,160.066 65.338,160.279 C66.822,160.774 66.775,161.315 64.633,168.25 C63.657,171.412 62.44,174 61.929,174 C61.418,174 61,174.948 61,176.106 C61,177.264 59.875,179.548 58.5,181.182 C57.125,182.816 55.998,184.906 55.996,185.827 C55.991,188.288 52.539,193.536 46.227,200.681 C40.471,207.196 38.063,208.229 34.574,205.678 C32.859,204.423 32.853,204.186 34.457,201.083 C35.388,199.283 38.218,195.146 40.746,191.891 C45.135,186.239 45.257,185.909 43.444,184.583 C41.869,183.431 41.716,182.71 42.547,180.347 C43.751,176.922 45.381,176.983 45.816,180.469 C46.411,185.227 47.66,184.036 58.153,168.696 Z M36,91 C39.28,87.72 45.26,88.295 49.643,92.312 C52.643,95.061 53.336,96.464 53.718,100.562 C54.139,105.074 53.857,105.91 50.455,110.25 C45.997,115.938 43.662,116.52 44.437,111.75 C45.956,102.408 45.809,101.84 41.5,100.34 C37.903,99.088 34.081,95.72 34.022,93.75 C34.01,93.338 34.9,92.1 36,91 Z M18.852,144.426 C19.982,141.946 23.346,141.132 24.532,143.052 C24.953,143.733 27.623,143.863 32.117,143.42 C38.096,142.831 39.341,142.996 41.155,144.618 C44.663,147.756 48,153.782 48,156.98 C48,161.561 45.46,160.73 42.709,155.25 C40.777,151.402 39.866,150.537 37.912,150.694 C33.992,151.009 26.516,152.563 25.297,153.316 C24.676,153.7 23.018,153.577 21.612,153.043 C18.57,151.886 17.283,147.868 18.852,144.426 Z"/>
</svg>

