<svg xmlns="http://www.w3.org/2000/svg" width="300" height="300" viewBox="0 0 300 300" version="1.1">
  <defs/>
  <path d="M135.068,41.264 C137.817,39.877 141.341,39.022 144.349,39.014 C148.444,39.002 149.628,39.461 151.969,41.967 C153.494,43.599 155.496,46.636 156.419,48.717 C157.342,50.798 158.48,53.209 158.948,54.076 C159.932,55.897 159.701,74.632 158.682,75.651 C158.307,76.026 158,77.724 158,79.423 C158,81.123 157.538,84.085 156.972,86.007 C156.407,87.928 155.891,93.55 155.826,98.5 C155.691,108.787 154.534,110.924 147.432,114.007 C143.461,115.731 143.331,115.945 142.01,122.947 C140.335,131.825 141.29,135.678 145.036,135.157 C146.391,134.968 148.175,134.268 149,133.6 C149.825,132.933 151.821,131.821 153.436,131.13 C155.051,130.439 157.976,128.619 159.936,127.085 C164.91,123.194 168.268,122.533 170.504,125.004 C172.226,126.907 172.193,127.114 169.556,130.92 C167.3,134.175 160.065,139 157.439,139 C157.119,139 156.182,139.675 155.357,140.5 C154.532,141.325 153.016,142 151.988,142 C150.959,142 149.823,142.478 149.462,143.062 C149.101,143.646 147.724,144.534 146.403,145.037 C144.939,145.593 144,146.756 144,148.01 C144,149.143 143.27,151.185 142.377,152.547 C141.142,154.433 140.552,159.136 139.904,172.262 C139.436,181.743 138.816,191.155 138.526,193.178 C137.757,198.55 139.936,200.4 145.911,199.447 C155.303,197.948 208.442,199.101 218.5,201.022 C222.215,201.731 247.896,202.919 261.179,202.996 C262.597,203.004 265,206.225 265,208.119 C265,209.206 263.771,211.235 262.268,212.627 C260.075,214.66 258.942,215.022 256.518,214.465 C254.858,214.083 246.525,213.431 238,213.016 C229.475,212.601 220.7,211.98 218.5,211.637 C209.529,210.239 192.904,209.335 183.5,209.735 C178,209.969 170.864,209.735 167.643,209.215 C160.459,208.055 137.564,209.433 127,211.662 C122.875,212.532 117.475,213.4 115,213.592 C109.698,214.003 96.789,216.68 77,221.472 C73.425,222.338 68.823,223.775 66.773,224.665 C61.756,226.843 59.78,225.321 60.2,219.605 C60.447,216.257 60.942,215.405 63,214.792 C78.326,210.223 90.993,207.532 115,203.744 L129.5,201.456 L129.223,197.856 C129.07,195.875 129.633,190.314 130.473,185.497 C132.382,174.545 132.552,157.052 130.75,156.882 C128.295,156.649 126.498,157.221 123.919,159.058 C122.48,160.083 119.096,161.628 116.401,162.492 C113.705,163.356 110.719,164.499 109.764,165.032 C106.933,166.61 104.491,166.152 102.084,163.589 C99.637,160.985 99.602,158.173 102,156.949 C102.825,156.529 107.449,154.724 112.276,152.939 C117.103,151.154 123.461,148.187 126.404,146.346 L131.755,142.999 L132.241,133.749 C132.508,128.662 132.383,124.117 131.963,123.65 C131.543,123.182 129.202,123.969 126.762,125.4 C119.287,129.78 115.152,128.746 114.726,122.388 C114.571,120.078 113.495,117.173 112.168,115.487 C110.57,113.455 110.101,111.959 110.617,110.538 C112.196,106.182 112.154,85.977 110.55,78.67 C109.133,72.217 106.225,64.034 103.914,60 C100.077,53.301 99.707,51.916 101.071,49.368 C104.773,42.45 110.811,45.403 113.302,55.35 C114.15,58.733 115.661,63.3 116.66,65.5 C118.415,69.362 118.767,71.419 119.299,80.925 C119.656,87.291 121.696,87.193 126.812,80.566 C129.157,77.529 129.161,76.698 126.879,67.75 C126.005,64.323 125.625,64 122.461,64 C119.05,64 119,63.938 119,59.707 C119,55.823 119.556,54.844 124.818,49.457 C128.018,46.18 132.63,42.494 135.068,41.264 Z M71.692,143.915 C74.173,138.943 75.494,140.881 75.56,149.585 C75.597,154.611 74.968,159.507 73.834,163 C72.852,166.025 72.038,169.032 72.025,169.683 C71.969,172.362 61.635,187.836 56.953,192.25 C54.183,194.863 51.597,196.993 51.208,196.985 C48.538,196.927 45.568,191.048 46.33,187.331 C46.649,185.774 47.31,182.475 47.798,180 C50.088,168.394 53.181,161.701 54.575,165.335 C54.932,166.264 54.95,168.482 54.615,170.262 C52.693,180.501 52.682,181 54.393,181 C55.304,181 56.499,179.988 57.049,178.75 C57.599,177.512 59.364,174.25 60.971,171.5 C65.285,164.117 67,160.302 67,158.091 C67,157.006 67.411,155.864 67.913,155.554 C68.415,155.243 69.132,153.177 69.507,150.961 C69.881,148.745 70.864,145.574 71.692,143.915 Z M30.83,127.797 C33.376,125.654 34.403,125.456 41.08,125.818 C48.78,126.236 55,128.1 55,129.989 C55,130.59 55.99,132.42 57.199,134.056 C59.278,136.867 59.304,137.124 57.68,138.748 C56.478,139.95 55.56,140.171 54.622,139.483 C50.961,136.799 49.418,135.608 47.715,135.296 C46.283,135.035 44.738,135.394 41.725,136.01 C38.301,136.711 35.072,137.67 34.55,138.142 C32.909,139.624 30.112,139.079 29.035,137.066 C27.207,133.649 27.855,130.299 30.83,127.797 Z M137.225,51.04 C135.317,51.807 135.073,52.401 135.714,54.727 C136.134,56.252 136.375,60.778 136.249,64.785 C135.993,72.902 137.216,74.558 141.264,71.581 C142.494,70.676 144.963,69.006 146.75,67.869 C151.658,64.748 151.214,58.843 145.576,52.25 C143.553,49.885 141.016,49.518 137.225,51.04 Z M50.2,80.2 C52.47,77.93 57.717,78.812 61.453,82.093 C65.753,85.869 67.6,91.303 66.362,96.54 C65.303,101.015 63.279,102.538 59.615,101.618 C57.151,101 56.977,100.642 57.579,97.431 C58.072,94.8 57.793,93.429 56.464,91.96 C55.488,90.882 54.233,90 53.674,90 C50.037,90 47.515,82.885 50.2,80.2 Z M120.947,91.193 C120.918,91.362 120.71,97.237 120.485,104.25 C120.017,118.831 120.175,119.054 127.172,113.67 L131.5,110.34 L131.198,103.801 C130.695,92.887 130.057,91.551 125.183,91.193 C122.883,91.023 120.976,91.023 120.947,91.193 Z M142.838,81.853 C139.635,84.715 139.573,84.935 139.174,94.882 C138.791,104.419 138.881,105 140.737,105 C144.426,105 150.248,81.507 147.048,79.53 C146.525,79.206 144.631,80.252 142.838,81.853 Z"/>
</svg>

