<svg xmlns="http://www.w3.org/2000/svg" width="300" height="300" viewBox="0 0 300 300" version="1.1">
  <defs/>
  <path d="M162.5,156.055 C172.407,154.386 181.196,157.538 185.845,164.425 C187.58,166.997 189,170.113 189,171.35 C189,172.588 189.488,174.088 190.084,174.684 C191.356,175.956 190.73,197.681 189.197,205.5 C187.639,213.444 183.194,225.09 179.786,230.154 C177.348,233.778 177.461,234 181.757,234 C189.629,234 197.206,237.842 194.874,240.652 C194.062,241.631 190.793,242 182.943,242 C176.996,242 170.863,242.514 169.315,243.142 C167.767,243.77 161.325,244.384 155,244.507 C148.675,244.629 137.812,245.325 130.861,246.052 C115.439,247.666 113.687,247.029 112.645,239.423 C112.289,236.827 111.617,234.206 111.151,233.601 C109.936,232.019 107,222.487 107,220.121 C107,219.019 106.55,217.84 106,217.5 C105.45,217.16 105,215.645 105,214.132 C105,212.62 104.339,210.509 103.532,209.441 C102.724,208.374 102.049,206.481 102.032,205.236 C102.014,203.991 101.55,202.079 101,200.986 C100.45,199.894 99.543,198.095 98.984,196.988 C97.783,194.608 95.746,188.386 93.975,181.684 C92.864,177.477 92.907,176.664 94.315,175.257 C95.638,173.933 96.384,173.854 98.491,174.814 C99.902,175.457 101.317,176.774 101.635,177.741 C101.954,178.709 102.841,180.918 103.607,182.651 C104.373,184.384 105,186.303 105,186.915 C105,187.527 105.395,188.809 105.878,189.764 C108.2,194.356 110,199.252 110,200.975 C110,202.024 110.45,203.16 111,203.5 C111.55,203.84 112,205.64 112,207.5 C112,209.36 112.45,211.16 113,211.5 C113.55,211.84 114.003,213.329 114.006,214.809 C114.01,216.289 114.685,218.789 115.506,220.364 C116.328,221.94 117,224.212 117,225.414 C117,226.616 117.412,228.028 117.915,228.55 C118.419,229.072 118.981,230.58 119.165,231.9 C119.349,233.219 120.625,235.11 122,236.101 C124.272,237.739 125.229,237.794 132.5,236.698 C136.9,236.036 141.063,235.131 141.75,234.688 C143.675,233.447 143.504,210.131 141.564,209.386 C140.774,209.083 136.721,210.011 132.556,211.449 C124.481,214.236 122.126,213.973 120.027,210.05 C118.356,206.928 119.864,205.181 125.691,203.488 C128.722,202.606 133.684,200.788 136.718,199.446 C141.856,197.174 142.191,196.818 141.605,194.253 C141.259,192.739 140.692,188.012 140.345,183.75 C139.966,179.098 139.272,176.013 138.607,176.031 C136.469,176.092 126.132,181.73 119.553,186.425 C114.149,190.281 112.635,190.942 111.453,189.961 C106.64,185.967 113.749,177.3 127.307,170.632 C141.39,163.706 158.054,156.804 162.5,156.055 Z M158.529,166.539 C151.481,169.493 151.024,169.889 149.482,174.374 C148.113,178.357 149.711,191.07 151.663,191.721 C152.292,191.931 154.762,190.123 157.153,187.705 C160.457,184.362 162.771,183.004 166.798,182.042 C171.532,180.912 172.302,180.963 174.023,182.521 C179.21,187.215 177.611,190.175 165.754,197.824 C151.475,207.036 151.015,207.589 150.918,215.686 C150.873,219.434 150.645,225.066 150.412,228.201 L149.987,233.902 L153.743,234.946 C160.226,236.746 163.635,236.259 167.344,233.003 C170.887,229.892 179,215.181 179,211.866 C179,210.825 179.402,209.191 179.894,208.236 C180.81,206.458 182.955,194.811 183.749,187.297 C184.03,184.641 183.606,181.917 182.597,179.894 C181.719,178.133 180.99,175.749 180.978,174.596 C180.933,170.329 175.055,165.65 168.478,164.645 C165.486,164.188 163.019,164.658 158.529,166.539 Z M115.2,66.2 C118.287,63.113 124.483,67.395 122.206,71.042 C121.543,72.104 121,74.302 121,75.927 C121,77.552 120.55,79.16 120,79.5 C119.45,79.84 119,81.116 119,82.337 C119,83.557 118.423,85.443 117.717,86.527 C117.011,87.612 115.822,90.3 115.075,92.5 C113.602,96.838 107.813,109.874 105.458,114.156 C104.029,116.756 104.109,116.904 109.249,121.156 C116.675,127.3 117.302,127.95 120.837,133.18 C124.198,138.154 124.749,140.851 122.8,142.8 C120.654,144.946 117.985,144.088 115.92,140.589 C114.186,137.651 101.166,127 99.307,127 C98.95,127 97.835,126.255 96.829,125.345 C94.885,123.586 94.42,119.112 95.883,116.236 C96.369,115.281 97.311,113.15 97.976,111.5 C98.641,109.85 99.818,107.226 100.593,105.669 C101.367,104.112 102,102.001 102,100.978 C102,99.955 102.45,98.84 103,98.5 C103.55,98.16 104,97.002 104,95.927 C104,94.852 104.395,93.191 104.878,92.236 C107.2,87.644 109,82.748 109,81.025 C109,79.976 109.45,78.84 110,78.5 C110.55,78.16 111,76.839 111,75.563 C111,74.288 111.675,72.685 112.5,72 C113.325,71.315 114,70 114,69.078 C114,68.155 114.54,66.86 115.2,66.2 Z M139.872,69.938 C140.687,67.599 141.487,67 143.793,67 C145.408,67 147.481,67.874 148.477,68.975 C150.201,70.879 150.167,71.154 147.52,76.725 C146.01,79.901 144.376,83.281 143.888,84.236 C143.399,85.191 143,86.909 143,88.053 C143,89.197 141.875,91.608 140.5,93.411 C139.125,95.214 138,97.443 138,98.364 C138,99.286 136.875,101.822 135.5,104 C134.125,106.178 133,108.683 133,109.566 C133,110.449 135.363,113.51 138.25,116.368 C144.927,122.976 147.772,127.803 148.178,133.211 C148.466,137.041 148.253,137.535 146.195,137.827 C143.262,138.243 141.667,136.892 138.962,131.702 C137.769,129.414 134.714,125.732 132.172,123.521 C125.266,117.511 121,112.787 121,111.149 C121,110.346 122.029,108.296 123.287,106.594 C126.602,102.11 135,84.183 135,81.591 C135,80.948 135.866,78.725 136.924,76.65 C137.982,74.574 139.308,71.554 139.872,69.938 Z M171.364,70.25 C174.985,66.364 175.952,66.256 178.911,69.406 C181.601,72.269 181.096,73.647 174.473,81.5 C172.154,84.25 169.519,87.95 168.617,89.722 C167.715,91.495 165.857,94.595 164.489,96.612 C160.833,101.999 161.101,107.056 165.25,110.945 C167.037,112.62 168.829,113.993 169.231,113.995 C170.711,114.005 181.573,121.348 183.796,123.842 C186.914,127.34 186.451,131.39 182.885,131.803 C179.627,132.181 163.645,121.403 154.707,112.799 C151.003,109.233 150.888,108.923 151.554,104.299 C151.934,101.66 152.865,98.79 153.622,97.921 C154.38,97.053 155,95.911 155,95.383 C155,94.856 156.332,92.866 157.959,90.962 C159.587,89.058 160.937,86.421 160.959,85.103 C160.998,82.795 165.011,77.067 171.364,70.25 Z M75.352,181.816 C75.931,181.44 76.763,181.354 77.202,181.625 C78.342,182.33 78.19,186.765 77,187.5 C76.45,187.84 76,190.315 76,193 C76,195.685 75.55,198.16 75,198.5 C74.45,198.84 74,201.51 74,204.435 C74,207.95 73.142,211.691 71.468,215.477 C68.749,221.624 59.061,236.874 56.551,238.957 C54.564,240.606 52.26,239.665 50.883,236.642 C49.922,234.534 50.346,233.353 54.21,227.363 C56.645,223.589 59.251,218.925 60.001,217 C60.752,215.075 62.408,212.228 63.683,210.673 C64.957,209.119 66,207.008 66,205.982 C66,204.957 66.399,203.871 66.887,203.57 C67.374,203.269 68.081,201.33 68.456,199.261 C69.795,191.888 73.232,183.194 75.352,181.816 Z M51,152.5 C54.222,150.658 58.435,150.614 59.923,152.407 C60.566,153.182 61.484,155.994 61.963,158.657 C62.443,161.321 63.128,164.431 63.487,165.57 C63.912,166.918 63.552,168.127 62.455,169.037 C60.656,170.53 59.82,169.89 55.953,164.059 L54.407,161.727 L49.576,163.863 C46.919,165.038 43.47,166 41.912,166 C36.003,166 32.807,158.193 37,154 C39.212,151.788 40.565,151.487 41.5,153 C42.401,154.458 48.1,154.158 51,152.5 Z M51.669,100.165 C52.587,99.651 55.134,99.206 57.33,99.176 C65.142,99.068 71.078,108.942 66.345,114.171 C63.954,116.814 62.444,116.449 59.432,112.5 C57.819,110.386 55.899,109 54.581,109 C53.382,109 51.86,108.46 51.2,107.8 C49.439,106.039 49.733,101.249 51.669,100.165 Z"/>
</svg>

