<svg xmlns="http://www.w3.org/2000/svg" width="300" height="300" viewBox="0 0 300 300" version="1.1">
  <defs/>
  <path d="M153,91.854 C159.366,89.471 161.615,89.109 167.875,89.456 C174.282,89.811 175.63,90.23 178.154,92.647 C184.275,98.512 186.783,108.166 189.955,138.073 C191.001,147.926 189.809,164.475 187.912,166.45 C187.411,166.972 187,168.68 187,170.244 C187,176.541 179.1,203.864 176.35,207.079 C175.608,207.947 175,208.951 175,209.309 C175,209.668 173.425,212.423 171.5,215.433 C169.575,218.442 168,221.373 168,221.946 C168,223.397 160.068,229 158.013,229 C155.627,229 145.061,221.23 143.94,218.65 C143.425,217.468 142.598,215.825 142.101,215 C141.604,214.175 140.422,210.8 139.474,207.5 C138.527,204.2 137.318,200.655 136.788,199.623 C136.103,198.288 136.231,197.34 137.233,196.338 C139.382,194.189 143.126,197.667 145.364,203.893 C146.378,206.711 147.734,209.35 148.377,209.758 C149.021,210.166 150.335,211.738 151.297,213.25 C153.817,217.212 158.002,217.002 161.232,212.75 C163.95,209.172 169,200.012 169,198.659 C169,198.188 169.606,196.384 170.346,194.651 C172.322,190.026 174,184.581 174,182.793 C174,181.933 174.672,179.94 175.494,178.364 C176.315,176.789 176.997,173.925 177.009,172 C177.021,170.075 177.672,166.7 178.456,164.5 C179.247,162.28 179.642,158.914 179.343,156.935 C179.046,154.975 179.217,151.825 179.722,149.935 C180.306,147.752 180.199,140.487 179.428,130 C178.372,115.647 177.857,112.719 175.466,107.5 C172.37,100.738 169.393,97.593 167.058,98.616 C166.201,98.992 163.25,99.636 160.5,100.046 C155.301,100.823 147.331,103.481 145.403,105.081 C143,107.075 134.223,111.317 129,113.009 C123.332,114.846 107.784,123.481 100.206,129.002 C92.259,134.791 89.308,130.552 95.565,122.335 C99.217,117.539 110.737,109.625 116,108.296 C117.375,107.949 120.575,106.39 123.111,104.832 C125.646,103.275 128.299,102 129.006,102 C129.712,102 133.712,100.349 137.895,98.33 C142.078,96.312 148.875,93.397 153,91.854 Z M132.445,135.016 C134.125,134.498 137.945,134.214 140.933,134.385 C145.854,134.666 146.678,135.063 149.669,138.597 C151.507,140.77 152.977,143.635 152.985,145.06 C153.001,147.837 148.774,159.363 146.919,161.597 C145.146,163.734 146.613,166 149.769,166 C152.729,166 155,167.56 155,169.594 C155,170.251 153.694,172.186 152.099,173.894 C149.611,176.558 148.494,177 144.258,177 C138.743,177 132.859,178.579 125.717,181.976 C121.119,184.163 120.859,184.182 118.967,182.47 C116.268,180.027 116.492,178.001 120,173.159 C123.312,168.587 123.535,167.405 121.859,163.297 C118.812,155.823 117.877,154.255 114.566,151.054 C112.107,148.678 111,146.717 111,144.738 C111,138.693 114.4,136.322 118.559,139.468 C121.444,141.65 124.361,141.309 127.021,138.478 C128.324,137.091 130.765,135.533 132.445,135.016 Z M73.098,120.816 C73.853,119.407 74.987,118.967 77.285,119.192 C80.893,119.545 82.26,121.698 83.83,129.5 C84.384,132.25 85.777,137.084 86.927,140.241 C88.077,143.399 89.96,151.949 91.112,159.241 C92.264,166.534 93.857,173.531 94.653,174.79 C95.448,176.05 96.215,179.075 96.356,181.514 C96.498,183.952 96.926,186.259 97.307,186.64 C97.688,187.021 98,189.926 98,193.094 C98,198.126 97.667,199.117 95.365,200.927 C93.916,202.067 92.278,203 91.725,203 C89.544,203 88.062,199.248 88.032,193.644 C88.014,190.424 87.37,185.249 86.6,182.144 C85.83,179.04 84.656,172.675 83.993,168 C83.329,163.325 82.392,158.6 81.911,157.5 C81.065,155.568 79.686,150.299 78.111,142.985 C77.695,141.052 76.586,138.297 75.646,136.863 C73.336,133.338 71.749,123.338 73.098,120.816 Z M117.054,42.435 C118.749,40.393 121.934,41.518 125.136,45.29 C127.663,48.268 127.761,48.829 127.526,58.948 C127.184,73.684 126.273,78.213 122.804,82.422 C120.28,85.484 119.569,85.84 117.83,84.909 C116.123,83.995 115.916,83.244 116.524,80.162 C117.396,75.735 117.371,60.044 116.476,50.708 C116.021,45.957 116.195,43.47 117.054,42.435 Z M146.249,51.25 C148.048,48.992 153.777,49.73 155.56,52.451 C156.947,54.568 156.987,55.418 155.859,58.701 C155.141,60.79 153.528,63.772 152.276,65.327 C151.024,66.881 150,68.464 150,68.843 C150,69.817 140.585,80 139.684,80 C139.276,80 136.689,81.78 133.937,83.956 C129.18,87.716 126,88.353 126,85.546 C126,84.247 127.433,82.433 134.333,75 C142.196,66.529 144.291,63.042 144.787,57.606 C145.043,54.798 145.701,51.938 146.249,51.25 Z M63.788,161.75 C67.309,157.702 68.512,160.425 66.424,167.718 C65.513,170.898 63.517,178.354 61.988,184.287 C59.702,193.159 58.612,195.688 55.854,198.527 C51.843,202.655 49.627,202.887 47.353,199.416 C45.907,197.208 45.84,196.332 46.896,193.412 C47.576,191.531 47.848,189.098 47.502,188.005 C46.623,185.236 47.79,183.581 49.576,185.063 C51.618,186.758 54,185.439 54,182.612 C54,181.265 54.637,178.888 55.416,177.331 C56.194,175.774 57.341,173.375 57.965,172 C60.063,167.372 62.256,163.511 63.788,161.75 Z M45.2,73.2 C47.567,70.833 53.683,71.782 57.465,75.104 C60.624,77.877 61,78.737 61,83.195 C61,88.183 60.785,88.625 54.497,96.59 C53.125,98.328 51.944,98.916 50.747,98.456 C48.576,97.623 48.519,94.816 50.585,90.462 C52.671,86.067 52.133,83.901 48.493,82.034 C46.847,81.19 45.169,80.05 44.765,79.5 C43.631,77.956 43.867,74.533 45.2,73.2 Z M28.25,131.977 C29.488,131.449 32.724,131.181 35.442,131.381 C39.444,131.674 40.817,132.287 42.663,134.602 C45.945,138.718 46.698,143.017 44.427,144.677 C41.803,146.596 39.821,146.319 36,143.5 C34.136,142.125 31.664,141 30.506,141 C27.609,141 26,139.131 26,135.768 C26,133.781 26.672,132.649 28.25,131.977 Z M130.901,147.106 C127.613,150.626 127.386,151.806 129.468,154.559 C130.276,155.626 130.951,158.188 130.968,160.25 C130.99,162.858 131.445,164 132.461,164 C134.453,164 138,160.037 138,157.811 C138,156.815 138.422,156 138.939,156 C140.511,156 141.396,147.182 139.992,145.491 C137.955,143.036 134.057,143.728 130.901,147.106 Z M93.684,68.796 C95.795,66.464 96.275,66.519 99.818,69.5 C101.452,70.875 103.911,72 105.284,72 C106.656,72 108.758,72.793 109.956,73.763 L112.133,75.526 L109.76,77.756 C108.371,79.061 105.544,80.22 102.943,80.55 C99.256,81.019 98.037,80.722 95.78,78.808 C92.412,75.949 91.435,71.282 93.684,68.796 Z"/>
</svg>

