<svg xmlns="http://www.w3.org/2000/svg" width="300" height="300" viewBox="0 0 300 300" version="1.1">
  <defs/>
  <path d="M160,127.709 C162.269,126.875 171.362,126.927 172.5,127.781 C177.789,131.751 182.256,141.144 179.951,143.449 C179.428,143.972 178.981,145.548 178.958,146.95 C178.91,149.878 176.978,153.596 172,160.339 C166.543,167.731 155.871,180.414 154.362,181.3 C153.613,181.74 153,182.553 153,183.107 C153,183.661 148.613,189.315 143.25,195.671 C137.887,202.027 132.811,208.261 131.968,209.524 C126.358,217.932 100.808,243.408 87.5,253.862 C82.55,257.751 76.7,262.434 74.5,264.268 C72.3,266.103 68.7,268.39 66.5,269.351 C64.3,270.311 61.719,271.525 60.764,272.048 C58.142,273.485 51.269,273.19 48.002,271.501 C42.112,268.455 38.187,260.735 41.25,258.217 C44.009,255.95 46.292,256.416 47.115,259.415 C48.12,263.075 49.52,263.965 54.3,263.985 C59.22,264.005 62.824,262.09 72,254.58 C76.125,251.205 81.975,246.575 85,244.292 C90.72,239.975 107.207,223.72 111.159,218.5 C112.409,216.85 113.687,215.275 113.999,215 C114.642,214.435 127.288,199.835 133.055,193 C151.205,171.49 154.745,167.234 156.03,165.382 C165.749,151.373 167.577,148.74 167.913,145.929 C167.991,145.276 167.989,144.613 167.986,143.795 C167.972,139.686 167.757,139.382 163.019,136.769 C160.295,135.267 157.376,134.302 156.533,134.626 C155.478,135.03 155,134.605 155,133.262 C155,131.267 157.314,128.697 160,127.709 Z M135.379,28.417 C141.297,19.119 145.135,29.853 145.416,56.486 C145.518,66.224 146.994,67.202 152.106,60.924 C153.973,58.632 156.722,55.442 158.216,53.835 C160.826,51.029 161.047,50.973 163.845,52.42 C165.447,53.248 167.004,54.569 167.306,55.354 C168.351,58.079 164.463,63.469 157.25,69.293 L150,75.147 L150,84.073 C150,89.248 150.413,93 150.982,93 C151.522,93 155.85,91.205 160.599,89.01 C170.004,84.665 173.381,84.548 175.184,88.505 C176.779,92.006 173.888,95.48 167.7,97.499 C164.84,98.432 158.065,100.951 152.644,103.098 C147.223,105.244 141.911,107 140.839,107 C139.767,107 136.777,107.947 134.195,109.106 C131.613,110.264 127.925,111.898 126,112.738 C124.075,113.578 120.475,115.149 118,116.229 C115.525,117.309 112.118,118.883 110.429,119.727 C105.063,122.409 101.342,118.484 103.621,112.545 C104.362,110.615 109.106,108 111.867,108 C112.948,108 113.983,107.6 114.167,107.112 C114.35,106.623 116.3,105.385 118.5,104.359 C122.335,102.572 122.512,102.28 122.8,97.303 C123.1,92.124 120.427,84 117.913,82.446 C116.665,81.675 117.576,75.23 119.212,73.25 C122.046,69.82 128,73.369 128,78.488 C128,80.236 128.308,81.975 128.685,82.352 C129.964,83.631 131.97,90.485 131.985,93.628 C132.004,97.668 134.113,99.545 136.936,98.034 C138.518,97.187 139.047,95.829 139.201,92.215 C139.506,85.026 139.012,79.612 137.954,78.554 C137.429,78.029 136.977,71.053 136.95,63.05 C136.914,52.879 136.351,45.979 135.079,40.125 C133.264,31.771 133.264,31.74 135.379,28.417 Z M63.67,160.812 C65.576,158.707 67.007,158.464 66.985,160.25 C66.959,162.306 63.131,176.887 62.121,178.774 C61.606,179.737 61.22,182.093 61.264,184.012 C61.307,185.93 60.188,189.975 58.777,193 C57.366,196.025 55.68,200.184 55.031,202.242 C53.613,206.737 49.422,214.825 47.254,217.25 C45.306,219.43 44.155,219.45 41.829,217.345 C38.598,214.421 39.484,209.477 44.5,202.448 C46.975,198.979 49,195.651 49,195.051 C49,194.451 50.038,192.282 51.306,190.23 C52.574,188.179 54.347,184.25 55.245,181.5 C58.748,170.781 62.101,162.545 63.67,160.812 Z M137.411,114.098 C139.668,111.604 139.942,111.571 142.637,113.458 C144.236,114.578 144.892,116.493 145.462,121.708 C147.454,139.918 144.46,149.102 136.445,149.369 C133.098,149.48 132.453,149.168 132.188,147.309 C132.017,146.104 132.658,143.926 133.613,142.468 C135,140.351 135.366,137.439 135.431,128.007 C135.501,117.881 135.783,115.897 137.411,114.098 Z M41.532,141.119 C44.373,138.984 46.672,138.118 49.628,138.068 C54.104,137.994 55.465,139.019 56.531,143.269 C57.555,147.348 55.484,149.333 50.958,148.609 C48.466,148.211 46.086,148.617 43.409,149.898 C38.023,152.476 31.64,153.413 29.018,152.01 C27.329,151.105 26.951,150.106 27.194,147.185 L27.5,143.5 L32.532,143.8 C36.821,144.057 38.149,143.661 41.532,141.119 Z M104.228,140.23 C108.274,138.281 109.901,138.825 111.764,142.75 C113.524,146.457 113.612,146.5 119.522,146.543 C128.381,146.607 130.001,146.871 129.994,148.25 C129.982,150.466 123.869,153.067 116.086,154.168 C109.235,155.136 108.161,155.051 105,153.291 C102.522,151.912 101.404,150.527 101.172,148.551 C100.672,144.292 101.719,141.439 104.228,140.23 Z M50.978,81.25 C52.51,77.706 56.029,78.429 60.714,83.25 C65.776,88.458 67.494,95.692 64.464,99.039 C62.263,101.472 59.128,101.58 58.362,99.25 C56.384,93.238 54.829,91.121 51.922,90.483 C48.431,89.716 47.145,87.474 48.843,85.114 C49.482,84.226 50.443,82.487 50.978,81.25 Z"/>
</svg>

