<svg xmlns="http://www.w3.org/2000/svg" width="300" height="300" viewBox="0 0 300 300" version="1.1">
  <defs/>
  <path d="M130.591,46.25 C131.391,45.013 132.881,44 133.901,44 C137.287,44 138.3,46.655 138.3,55.533 C138.3,62.826 138.535,64 139.995,64 C140.927,64 142.505,63.1 143.5,62 C144.495,60.9 146.217,60 147.326,60 C149.826,60 153,62.76 153,64.934 C153,67.356 146.368,73.724 142.523,74.993 C139.04,76.142 135.696,79.951 132.858,86 C129.324,93.535 128,96.859 128,98.201 C128,98.971 127.604,100.028 127.121,100.55 C126.637,101.073 125.714,103.152 125.07,105.17 C124.425,107.189 123.246,109.381 122.449,110.042 C121.652,110.704 121,111.87 121,112.633 C121,113.397 120.057,116.027 118.906,118.478 C115.106,126.561 117.42,125.899 126.905,116.19 C131.907,111.069 136,106.301 136,105.594 C136,102.812 139.269,97.971 141.53,97.403 C145.887,96.31 149.412,98.556 157.25,107.419 C163.215,114.165 165,116.868 165,119.157 C165,122.774 163.4,126 161.607,126 C160.88,126 157.058,122.426 153.114,118.058 C149.17,113.69 145.024,109.825 143.9,109.468 C141.581,108.732 138.044,111.36 137.927,113.905 C137.887,114.782 136.991,116.85 135.938,118.5 C134.884,120.15 133.528,122.4 132.925,123.5 C131.274,126.513 122.219,133.442 115.885,136.539 C109.449,139.686 105.963,139.399 103.418,135.515 C101.933,133.249 101.947,132.699 103.607,128.281 C104.595,125.652 106.211,122.15 107.198,120.5 C108.185,118.85 108.994,116.782 108.996,115.905 C108.998,115.028 109.891,113.503 110.98,112.518 C112.07,111.532 113.252,109.1 113.607,107.113 C113.963,105.126 114.839,102.825 115.555,102 C116.962,100.379 121,91.418 121,89.917 C121,88.178 118.345,89.008 114.428,91.972 C112.268,93.607 109.993,94.957 109.372,94.972 C108.752,94.987 107.646,95.722 106.914,96.604 C106.181,97.486 104.483,98.626 103.14,99.137 C101.19,99.878 100.226,99.621 98.349,97.858 C93.47,93.274 96.75,87.087 105.391,84.575 C108.332,83.72 111.33,82.308 112.052,81.437 C112.775,80.566 115.143,78.874 117.314,77.677 C119.485,76.48 122.27,74.941 123.503,74.257 C127.512,72.033 128.081,70.374 128.613,59.344 C128.951,52.349 129.653,47.701 130.591,46.25 Z M165.2,155.2 C165.86,154.54 167.124,154 168.009,154 C171.062,154 172.759,156.492 173.456,162 C176.306,184.499 177.952,194.315 179.067,195.45 C179.58,195.972 180,198.101 180,200.18 C180,203.602 180.39,204.158 184.128,206.065 C186.398,207.223 190.56,208.352 193.378,208.573 C196.195,208.794 203.9,209.484 210.5,210.106 C235.646,212.479 240.569,212.702 244.129,211.633 C246.584,210.896 246.864,211.152 248.334,215.467 C249.84,219.887 249.82,220.18 247.89,222.11 C246.29,223.71 245.206,223.973 242.685,223.374 C240.933,222.958 238.375,222.688 237,222.774 C235.625,222.86 229.55,222.287 223.5,221.501 C217.45,220.715 206.65,219.799 199.5,219.466 C192.35,219.134 184.572,218.218 182.215,217.431 C179.858,216.644 177.032,216 175.934,216 C174.836,216 173.658,215.213 173.317,214.25 C172.975,213.287 172.149,211.825 171.479,211 C170.81,210.175 169.97,205.9 169.613,201.5 C169.255,197.1 168.271,190.35 167.425,186.5 C163.908,170.49 162.979,157.421 165.2,155.2 Z M33.227,135.25 C37.504,129.997 51.728,145.354 55.483,159.276 C57.536,166.886 56.983,172.253 52.419,189 C51.007,194.184 50.462,197.86 51.024,198.423 C52.821,200.223 56.623,197.214 59.061,192.063 C61.338,187.253 66.941,182.274 68.416,183.75 C70.473,185.807 67.368,195.042 62.387,201.683 C61.074,203.434 60,205.277 60,205.778 C60,206.28 59.14,207.468 58.09,208.419 C57.039,209.369 55.883,211.331 55.519,212.779 C54.615,216.382 48.158,221.907 44.789,221.958 C40.523,222.024 37.713,218.345 38.45,213.658 C39.123,209.374 42.286,202.551 45.014,199.5 C46.486,197.854 46.977,194.487 47.788,180.5 C48.361,170.611 48.402,163.103 47.887,162.55 C47.399,162.027 47,160.656 47,159.502 C47,158.348 45.398,155.85 43.44,153.952 C35.276,146.037 33.476,143.691 32.855,140.165 C32.496,138.126 32.661,135.945 33.227,135.25 Z M96.277,155.25 C97.692,153.423 98.606,153.676 102.21,156.896 C105.429,159.773 105.453,159.862 105.579,169.646 C105.657,175.678 105.181,181.003 104.353,183.376 C103.609,185.507 103,189.213 103,191.611 C103,194.655 102.127,197.408 100.106,200.735 C98.514,203.356 96.897,207.075 96.512,209 C96.128,210.925 94.73,214.835 93.407,217.688 C92.083,220.542 91,223.431 91,224.109 C91,225.659 88.035,229 86.659,229 C84.743,229 81,224.666 81,222.448 C81,221.236 81.675,219.685 82.5,219 C83.325,218.315 84,216.859 84,215.764 C84,214.668 84.865,212.136 85.923,210.136 C88.456,205.344 92.526,193.826 94.02,187.222 C94.676,184.318 95.235,176.218 95.261,169.222 C95.287,162.225 95.745,155.938 96.277,155.25 Z M129.953,155.087 C130.568,153.939 131.889,153 132.889,153 C135.581,153 140.108,157.556 139.357,159.511 C139.015,160.404 139.206,162.117 139.784,163.317 C142.198,168.338 144.5,192.834 142.724,194.609 C142.365,194.969 142.518,196.099 143.065,197.121 C143.778,198.453 143.648,199.62 142.608,201.24 C141.809,202.483 140.863,205.75 140.506,208.5 C139.132,219.061 136.19,222.194 132.23,217.312 C130.818,215.572 130.158,213.738 130.497,212.5 C132.024,206.94 132.956,200.437 132.454,198.854 C132.143,197.876 132.418,196.088 133.064,194.881 C134.866,191.514 134.368,180.094 132.128,173.417 C129.471,165.499 128.548,157.713 129.953,155.087 Z M54.2,81.2 C55.774,79.626 62.205,79.658 64.129,81.25 C68.733,85.059 70.994,94.176 68.521,98.96 C65.172,105.436 59.418,106.161 60.66,99.95 C61.518,95.662 60.275,91.681 58.314,92.433 C54.329,93.962 50.874,84.526 54.2,81.2 Z"/>
</svg>

