<svg xmlns="http://www.w3.org/2000/svg" width="300" height="300" viewBox="0 0 300 300" version="1.1">
  <defs/>
  <path d="M158.785,133.861 C160.591,132.288 163.031,131 164.206,131 C166.468,131 170,133.628 170,135.311 C170,137.24 164.88,143 163.165,143 C162.212,143 158.396,145.286 154.686,148.079 C148.423,152.795 147.974,153.386 148.429,156.329 C149.004,160.053 150.985,189.604 151.29,199 L151.5,205.5 L161.5,205.369 C167,205.296 183.2,205.018 197.5,204.75 C222.908,204.274 235.804,204.818 253,207.091 C257.675,207.708 262.808,208.178 264.408,208.135 C266.007,208.091 268.819,208.77 270.658,209.642 C275.161,211.779 275.334,216.348 271.066,220.437 C267.625,223.734 264.876,223.554 256.069,219.453 C249.917,216.588 245.77,216.258 208,215.624 C182.498,215.196 157.979,216.259 144,218.4 C114.572,222.907 101.336,225.855 93.669,229.613 C89.964,231.428 88.059,231.363 85.829,229.345 C81.687,225.597 84.652,218.479 90.779,217.462 C92.825,217.123 96.525,216.233 99,215.484 C104.56,213.802 111.09,212.579 126.289,210.374 C132.773,209.433 138.837,208.109 139.764,207.431 C141.176,206.398 141.446,204.357 141.426,194.849 C141.413,188.607 141.026,179.422 140.565,174.438 C139.952,167.793 140.056,164.764 140.957,163.081 C143.475,158.376 139.41,158.598 131,163.625 C121.359,169.388 114.238,170.335 109.922,166.43 C107.713,164.431 107.245,157.155 109.2,155.2 C110.911,153.489 113.742,153.717 114.826,155.653 C117.457,160.356 135.704,152.549 147.5,141.674 C148.6,140.66 150.85,139.131 152.5,138.276 C154.15,137.422 156.978,135.435 158.785,133.861 Z M117.229,75.25 C117.788,74.563 118.717,74 119.294,74 C121.172,74 124,77.259 123.985,79.405 C123.968,81.722 121.762,88.572 120.685,89.648 C120.308,90.025 120,91.143 120,92.133 C120,93.911 117.05,101.032 115.912,102 C115.589,102.275 115.075,103.4 114.771,104.5 C114.467,105.6 113.487,108.187 112.595,110.25 L110.973,114 L114.968,116.75 C117.853,118.736 119.27,120.611 120.071,123.5 C120.68,125.7 122.113,128.508 123.254,129.74 C125.265,131.91 125.273,132.041 123.509,133.99 C120.826,136.955 119.131,136.494 114.345,131.5 C110.719,127.715 109.431,127 106.239,127 C100.473,127 98,124.768 98,119.566 C98,117.031 98.593,114.752 99.436,114.053 C100.225,113.398 101.183,111.442 101.564,109.707 C101.945,107.972 103.324,104.863 104.629,102.796 C105.933,100.73 107,98.575 107,98.006 C107,96.953 107.385,96.048 110.331,90.169 C111.249,88.337 112,86.213 112,85.449 C112,84.064 115.305,77.618 117.229,75.25 Z M142.193,73.867 C144.517,72.406 150,74.955 150,77.496 C150,78.958 145.457,87.43 142.82,90.885 C141.819,92.197 141,94.298 141,95.554 C141,96.81 140.213,99.263 139.25,101.005 C137.519,104.137 137.527,104.19 139.978,105.836 C148.692,111.687 151.56,119.393 145.777,121.415 C142.675,122.5 138,120.615 138,118.28 C138,117.52 136.467,116.257 134.592,115.474 C130.748,113.868 127,109.641 127,106.912 C127,105.912 127.506,103.835 128.125,102.297 C128.743,100.759 129.597,98.6 130.023,97.5 C132.021,92.332 134.2,87.319 135.238,85.5 C135.866,84.4 137.393,81.517 138.632,79.094 C139.872,76.671 141.474,74.319 142.193,73.867 Z M139.401,35.629 C143.196,33.633 146.767,32 147.336,32 C149.046,32 153,36.225 153,38.052 C153,40.295 152.035,40.998 142,46.067 C137.325,48.428 132.825,50.901 132,51.562 C131.175,52.223 129.375,53.105 128,53.523 C126.625,53.941 122.652,56.271 119.17,58.701 C111.475,64.071 108.638,64.143 108.203,58.977 C107.929,55.729 108.418,55.028 114.472,49.977 C118.084,46.965 123.158,43.682 125.748,42.683 C128.338,41.683 130.917,40.504 131.478,40.062 C132.04,39.619 135.605,37.625 139.401,35.629 Z M164.513,69.622 C165.748,66.668 166.549,66 168.858,66 C170.424,66 172.503,66.898 173.507,68.008 C175.248,69.931 175.251,70.259 173.594,75.758 C169.315,89.954 169.396,95 173.9,95 C176.996,95 180,97.97 180,101.031 C180,103.26 179.293,104.314 177.007,105.496 C174.178,106.959 173.646,106.888 167.257,104.187 C161.883,101.916 160.429,100.836 160.154,98.915 C159.964,97.587 159.334,95.922 158.753,95.216 C158.012,94.314 158.022,93.273 158.785,91.716 C160.006,89.227 163,77.215 163,74.808 C163,73.948 163.681,71.614 164.513,69.622 Z M75.25,170.915 C78.717,165.618 81.614,164.721 81.346,169.027 C81.261,170.387 80.249,174.157 79.096,177.405 C77.943,180.653 77,184.634 77,186.251 C77,187.868 75.987,190.609 74.75,192.342 C73.513,194.074 71.778,196.833 70.895,198.471 C70.012,200.109 67.609,202.81 65.555,204.473 L61.82,207.496 L59.91,205.137 C57.876,202.625 57.339,197.527 59,196.5 C59.55,196.16 60,193.714 60,191.063 C60,185.773 62.098,182.698 64.242,184.842 C64.879,185.479 65.754,186 66.187,186 C67.152,186 72,178.46 72,176.96 C72,176.366 73.463,173.646 75.25,170.915 Z M39.39,128.217 C40.666,126.418 42.276,127.188 43.807,130.329 C44.897,132.564 45.561,132.903 47.807,132.366 C49.288,132.013 51.21,131.361 52.077,130.919 C52.944,130.477 55.893,129.818 58.628,129.455 C63.078,128.865 63.941,129.079 66.801,131.486 C70.289,134.421 71.114,138.831 68.57,140.942 C67.424,141.893 66.912,141.704 65.994,139.989 C65.004,138.139 64.285,137.938 60.675,138.505 C55.463,139.324 50.105,141.04 47.527,142.717 C42.712,145.85 35,142.887 35,137.904 C35,136.009 37.012,131.568 39.39,128.217 Z M56.095,77.607 C58.489,74.562 62.759,74.166 68.285,76.475 C72.168,78.097 76.041,82.36 75.927,84.885 C75.827,87.089 72.798,92.094 70.802,93.353 C68.628,94.725 66,92.56 66,89.397 C66,87.635 65.304,86.887 63.25,86.441 C55.597,84.78 52.987,81.558 56.095,77.607 Z"/>
</svg>

