<svg xmlns="http://www.w3.org/2000/svg" width="300" height="300" viewBox="0 0 300 300" version="1.1">
  <defs/>
  <path d="M176.827,60.676 C180.814,57.469 182.894,57.321 185.811,60.039 C189.697,63.659 187.684,71.11 182.466,72.419 C181.13,72.755 178.566,74.315 176.768,75.887 C174.971,77.459 171.25,80.169 168.5,81.909 L163.5,85.073 L163.495,105.286 C163.492,116.404 163.092,127.862 162.605,130.75 C161.503,137.3 162.757,137.591 170.034,132.476 C172.792,130.538 177.283,128.071 180.015,126.994 C182.747,125.917 186.778,123.903 188.971,122.518 C191.165,121.133 193.395,120 193.927,120 C194.459,120 197.867,117.75 201.5,115 C205.133,112.25 208.778,110 209.598,110 C211.79,110 216,114.583 216,116.969 C216,119.325 210.31,124.927 207.872,124.971 C206.977,124.987 205.685,125.675 205,126.5 C204.315,127.325 203.383,128 202.928,128 C201.817,128 193.546,133.617 192.293,135.223 C191.627,136.076 191.734,141.645 192.616,152 C193.343,160.525 194.01,169.975 194.099,173 C194.188,176.025 194.679,180.222 195.189,182.326 C195.843,185.018 195.77,186.572 194.944,187.567 C194.173,188.497 194.047,190.099 194.579,192.241 C195.023,194.033 195.462,219.012 195.553,247.75 L195.719,300 L187,300 L186.881,265.25 C186.729,220.775 185.387,171.764 184.041,161.5 C183.464,157.1 182.719,150.238 182.386,146.25 C181.722,138.282 180.678,137.378 176.036,140.75 C174.711,141.712 170.673,144.116 167.063,146.092 L160.5,149.684 L159.759,157.092 C159.352,161.166 158.601,165.625 158.091,167 C157.58,168.375 156.882,171.499 156.539,173.942 C155.742,179.612 153.068,188.059 151.454,190 C150.768,190.825 150.042,192.395 149.842,193.489 C149.408,195.854 146.489,196.651 144.452,194.96 C142.824,193.609 142.547,189.864 143.882,187.236 C145.602,183.849 148.243,171.739 149.93,159.5 C150.385,156.2 151.53,149.45 152.475,144.5 C153.544,138.9 154.345,128.699 154.596,117.5 C154.817,107.6 155.282,97.362 155.628,94.75 C156.204,90.401 156.082,90 154.173,90 C153.027,90 150.431,91.125 148.405,92.5 C143.616,95.75 141.215,95.695 139.927,92.309 C138.007,87.257 139.088,84.763 144.5,81.766 C147.25,80.243 150.625,78.536 152,77.972 C158.422,75.339 164.89,71.371 169,67.543 C171.475,65.238 174.997,62.148 176.827,60.676 Z M103.259,48.689 C103.814,47.302 104.863,46.951 107.742,47.189 L111.5,47.5 L111.523,53 C111.613,74.471 112.145,75.566 119.467,69.346 C123.084,66.273 123.886,65.028 123.454,63.154 C123.157,61.864 123.438,60.177 124.079,59.404 C127.087,55.78 133,59.969 133,65.724 C133,70.223 130.678,73.48 124.587,77.525 C121.789,79.383 118.281,81.939 116.791,83.206 L114.082,85.51 L114.291,115.442 L114.5,145.373 L121.5,147.245 C125.35,148.274 129.86,149.469 131.521,149.901 C133.183,150.333 136.472,151.904 138.831,153.393 C142.608,155.777 143.082,156.482 142.81,159.3 C142.553,161.956 142.032,162.554 139.746,162.817 C138.231,162.991 134.181,162.01 130.746,160.638 C120.637,156.597 114.855,154.811 114.155,155.512 C112.759,156.91 111.959,219.063 113.166,232.387 C113.952,241.062 113.855,242.502 112.376,244.137 C108.531,248.386 105.623,245.135 103.4,234.099 C101.986,227.082 101.9,224.501 102.858,217.733 C103.483,213.313 104.067,198.403 104.157,184.599 C104.292,163.69 104.084,159.461 102.91,159.268 C101.566,159.047 99.358,161.931 92.375,173.028 C88.011,179.963 78.445,190.65 76.038,191.28 C74.777,191.61 72.537,190.723 70.012,188.894 C66.791,186.56 66.178,185.637 66.924,184.241 C67.435,183.284 68.098,181.713 68.396,180.75 C68.785,179.492 70.001,178.995 72.719,178.982 C75.856,178.967 77.027,178.328 79.59,175.232 C81.29,173.179 83.315,170.375 84.09,169 C84.866,167.625 86.231,165.6 87.125,164.5 C88.019,163.4 90.231,159.8 92.04,156.5 C93.849,153.2 96.44,148.475 97.798,146 C99.156,143.525 100.568,141.05 100.936,140.5 C101.303,139.95 102.605,136.568 103.829,132.984 C105.816,127.165 106.025,124.811 105.777,110.996 C105.454,92.941 104.885,92.086 97.638,98.766 C92.811,103.215 85.795,107.545 81.831,108.52 C79.67,109.051 78.84,108.685 77.471,106.595 C74.743,102.433 76.186,99.553 82.755,96.042 C85.915,94.354 91.2,90.746 94.5,88.025 C100.892,82.754 103.141,81.137 103.739,79.048 C104.132,77.674 103.811,76.095 103.483,73.14 C102.49,64.17 102.368,50.913 103.259,48.689 Z M54.8,163.75 C56.663,161.137 58.569,159 59.035,159 C60.758,159 60.747,160.602 58.998,164.5 C57.174,168.567 55.499,174.291 54.023,181.5 C52.647,188.22 51.409,191.305 48.158,196.116 C44.468,201.578 37.618,208 35.482,208 C33.357,208 29.993,202.085 30.08,198.5 C30.178,194.445 32.333,188.722 33.968,188.177 C34.991,187.836 35.169,188.706 34.736,191.931 C34.134,196.422 35.742,198.289 38.348,196.126 C40.151,194.63 45.242,184.115 50.029,172 C50.789,170.075 52.936,166.363 54.8,163.75 Z M14.557,133.223 C16.385,130.613 16.915,130.542 20.669,132.405 C22.226,133.177 25.75,134.815 28.5,136.043 C34.23,138.604 38.52,142.239 40.669,146.355 C41.923,148.757 41.981,150.553 41.035,157.666 C39.949,165.821 37.506,173 35.815,173 C34.705,173 34.792,169.493 36.074,162.559 C36.893,158.127 36.844,155.722 35.865,152.407 C34.715,148.515 34.057,147.853 29.541,146.052 C26.768,144.946 22.475,143.746 20,143.384 C17.525,143.023 14.938,142.283 14.25,141.741 C12.523,140.379 12.684,135.896 14.557,133.223 Z M44,83 C45.995,81.711 46.02,81.715 49.674,83.943 C51.42,85.007 53.621,87.507 54.565,89.497 C56.033,92.588 56.106,93.725 55.071,97.307 C54.405,99.613 53.543,102.625 53.156,104 C52.607,105.949 51.796,106.5 49.476,106.5 C46.684,106.5 46.481,106.234 46.19,102.203 C45.947,98.834 45.398,97.722 43.649,97.057 C40.705,95.937 39.407,94.237 38.262,90 C37.064,85.567 37.602,84.004 40.333,83.985 C41.525,83.976 43.175,83.533 44,83 Z"/>
</svg>

