<svg xmlns="http://www.w3.org/2000/svg" width="300" height="300" viewBox="0 0 300 300" version="1.1">
  <defs/>
  <path d="M151.5,47.17 C157.858,45.639 160.212,45.85 162.686,48.174 C164.477,49.857 165,51.426 165,55.115 C165,57.737 164.639,60.105 164.198,60.378 C163.757,60.65 162.763,63.199 161.989,66.041 C160.973,69.77 159.944,71.451 158.291,72.08 C157.031,72.559 156,73.495 156,74.161 C156,74.826 155.017,76.418 153.815,77.697 C151.658,79.993 151.647,80.178 152.93,92.261 C153.645,98.993 154.392,104.676 154.59,104.891 C154.787,105.106 157.323,103.455 160.225,101.222 C167.332,95.751 180.693,89.132 185,88.947 C192.477,88.627 194.086,89.052 197.606,92.278 C200.82,95.223 201.283,96.315 202.173,103.028 C203.36,111.982 203.36,112.819 202.167,120.5 C200.651,130.256 196.11,142.511 192.408,146.836 C188.667,151.206 181.551,155 177.093,155 C173.197,155 164.361,150.48 162.397,147.483 C159.363,142.852 162.112,142.163 172.701,144.902 C175.404,145.601 177.775,145.656 179.352,145.056 C182.424,143.888 187,137.999 187,135.215 C187,134.062 187.45,132.84 188,132.5 C188.55,132.16 189.003,131.121 189.006,130.191 C189.01,129.261 189.685,127.211 190.506,125.636 C191.328,124.06 192,120.594 192,117.933 C192,115.271 192.473,112.057 193.05,110.789 C194.518,107.567 191.824,101.245 188.642,100.446 C185.336,99.616 175.953,102.558 170.829,106.03 C168.448,107.643 166.176,108.972 165.779,108.982 C165.383,108.992 163.029,110.431 160.548,112.18 C155.475,115.755 153.827,119.406 154.536,125.5 C154.792,127.7 155.236,142.775 155.522,159 C155.809,175.225 156.441,192.775 156.927,198 C157.413,203.225 157.674,214.025 157.507,222 C157.341,229.975 157.097,246.625 156.967,259 C156.772,277.449 156.455,281.815 155.21,283.25 C153.039,285.749 150.501,285.413 148.501,282.362 C146.926,279.957 146.847,277.72 147.611,257.112 C148.744,226.584 148.026,157.692 146.56,156.226 C146.335,156.001 145.258,156.101 144.166,156.447 C142.4,157.008 139.212,161.63 131,175.542 C129.625,177.872 125.575,184.613 122,190.523 C118.425,196.434 114.67,202.671 113.655,204.385 C112.64,206.098 110.952,208.429 109.905,209.564 C108.857,210.7 108,212.022 108,212.503 C108,212.984 105.412,217.396 102.25,222.307 C95.887,232.189 86.96,242.416 82.8,244.589 C78.961,246.594 74.622,246.345 72.496,243.996 C69.847,241.068 71.794,237.616 77.69,234.787 C80.944,233.226 84.274,230.279 88.184,225.5 C91.334,221.65 93.931,218.164 93.956,217.752 C93.98,217.341 95.575,214.812 97.5,212.133 C99.425,209.453 101,206.96 101,206.591 C101,206.223 102.575,203.582 104.5,200.724 C106.425,197.865 108,195.106 108,194.592 C108,194.078 108.641,192.947 109.425,192.079 C110.208,191.21 112.157,188.025 113.755,185 C116.261,180.256 130.212,156.354 133.016,152 C135.828,147.634 139,140.834 139,139.173 C139,138.131 140.101,135.657 141.446,133.675 C145.754,127.327 146.257,126.015 144.979,124.474 C144.004,123.3 142.921,123.556 138.194,126.078 C135.101,127.729 131.878,129.705 131.033,130.47 C130.188,131.235 128.262,132.33 126.753,132.904 C123.692,134.068 108.688,144.014 108.167,145.225 C107.983,145.651 107.257,146 106.552,146 C105.847,146 104.159,146.874 102.802,147.941 C101.444,149.009 98.39,150.661 96.014,151.611 C91.737,153.322 91.675,153.317 89.847,151.059 C88.831,149.805 88,147.878 88,146.776 C88,145.025 91.854,139.085 99.081,129.698 C101.983,125.929 111.806,106.724 114.015,100.5 C118.1,88.992 119.601,85.667 121.011,85 C136.177,77.825 138,76.569 138,73.298 C138,69.34 135.824,63 134.466,63 C133.797,63 130.705,64.125 127.596,65.5 C120.806,68.503 118.858,68.606 116.575,66.082 C113.363,62.534 114.892,59.975 122.495,56.175 C126.342,54.252 130.842,52.337 132.495,51.919 C143.314,49.183 147.978,48.018 151.5,47.17 Z M133.291,91.417 C130.976,92.748 128.294,93.989 127.331,94.175 C126.342,94.365 125.278,95.816 124.886,97.506 C124.051,101.113 122.309,106.021 119.834,111.739 C118.825,114.071 118,116.672 118,117.52 C118,118.369 117.308,119.328 116.463,119.653 C114.912,120.248 112,125.009 112,126.95 C112,127.528 112.679,128 113.51,128 C115.223,128 128.585,121.384 137.36,116.19 L143.22,112.721 L142.604,107.111 C141.23,94.616 140.755,89.988 138.837,89.283 C137.682,88.858 136.004,89.857 133.291,91.417 Z M146.2,18.2 C149.376,15.024 155,18.561 155,23.733 C155,29.945 146.587,42.981 140.932,45.531 C136.986,47.31 136.62,47.319 133.805,45.703 C132.166,44.762 128.737,44 126.141,44 C119.6,44 116.802,41.865 117.195,37.173 C117.58,32.576 121.121,30.919 126.445,32.844 C129.24,33.855 130.485,33.824 133.229,32.678 C136.658,31.245 145,22.657 145,20.559 C145,19.922 145.54,18.86 146.2,18.2 Z M74.589,173.294 C80.211,165.924 82.412,171.795 77.396,180.78 C76.078,183.14 75,186.35 75,187.913 C75,189.476 74.325,191.315 73.5,192 C72.675,192.685 72,194.26 72,195.5 C72,196.74 71.32,198.32 70.488,199.01 C69.657,199.7 68.137,202.117 67.111,204.382 C64.746,209.604 57.864,216.312 55.361,215.835 C53.823,215.541 53.448,214.395 53.202,209.221 C52.912,203.135 52.989,202.914 56.006,201.231 C58.928,199.601 67.595,186.889 70.788,179.549 C71.497,177.921 73.207,175.106 74.589,173.294 Z M37.2,139.2 C39.118,137.282 40.828,137.795 42.377,140.75 C43.695,143.266 44.318,143.504 49.699,143.542 C57.176,143.595 61.563,145.417 63.484,149.268 C66.88,156.075 64.088,160.302 59.19,155.771 C57.121,153.856 54.706,153.041 48.722,152.237 C38.687,150.89 36,149.187 36,144.177 C36,142.1 36.54,139.86 37.2,139.2 Z M57.635,74.073 C61.406,71.107 63.894,71.49 68.208,75.703 C71.54,78.957 72,79.979 72,84.132 C72,88.575 70.256,92 67.994,92 C64.958,92 62,89.84 62,87.624 C62,85.911 60.971,84.59 58.5,83.133 C54.147,80.564 53.814,77.078 57.635,74.073 Z M148.067,59.874 C146.578,62.657 146.725,67 148.309,67 C151.08,67 153.175,64.435 152.836,61.459 C152.433,57.93 149.61,56.992 148.067,59.874 Z"/>
</svg>

