<svg xmlns="http://www.w3.org/2000/svg" width="300" height="300" viewBox="0 0 300 300" version="1.1">
  <defs/>
  <path d="M153.243,146.015 C156.134,144.987 159.857,144.113 161.516,144.073 C164.87,143.992 171.023,146.913 172.083,149.091 C175.227,155.553 175.264,155.803 174.026,162.362 C173.106,167.236 171.945,169.873 169.416,172.827 C167.557,174.999 165.582,177.97 165.027,179.43 C164.472,180.889 162.594,182.852 160.853,183.791 C159.112,184.731 154.881,187.377 151.451,189.67 C148.021,191.964 142.7,195.03 139.627,196.483 C136.554,197.937 133.815,199.49 133.541,199.934 C133.266,200.378 131.795,200.994 130.271,201.302 C123.25,202.723 119.749,211.404 120.213,226.245 L120.5,235.427 L124,237.793 C127.453,240.127 127.761,240.152 147,239.673 C180.676,238.833 220.071,235.061 225.59,232.148 C232.932,228.272 240.2,223.63 240.529,222.606 C240.724,221.997 241.087,215.65 241.336,208.5 C241.754,196.462 240.729,186.314 237.446,170 C237.169,168.625 237.409,166.825 237.979,166 C238.861,164.723 239.304,164.871 240.959,167 C243.395,170.133 247,179.857 247,183.294 C247,184.717 247.45,186.16 248,186.5 C248.55,186.84 249.003,187.879 249.006,188.809 C249.01,189.739 249.685,191.789 250.506,193.364 C251.328,194.94 252,198.176 252,200.555 C252,202.935 252.45,205.16 253,205.5 C254.107,206.184 254.258,222.56 253.18,225.106 C251.608,228.818 246.211,234.305 241.452,237.027 C229.381,243.934 216.663,246.457 188.5,247.533 C182.45,247.764 173.675,248.526 169,249.225 C158.601,250.779 130.589,250.85 126.478,249.332 C124.84,248.727 121.537,247.641 119.138,246.919 C114.12,245.409 110.712,240.952 109.694,234.573 C109.15,231.156 112.047,206.682 113.576,201.786 C115.224,196.51 115.69,182.784 114.476,175.263 C113.828,171.249 113.96,170.933 116.972,169.263 C118.721,168.293 122.705,165.535 125.826,163.134 C135.843,155.425 147.839,147.935 153.243,146.015 Z M150.964,29.39 C152.842,27.607 154.398,27.637 158.05,29.526 C159.768,30.414 161,31.856 161,32.978 C161,34.946 154.444,40.118 150.309,41.412 C148.327,42.032 128.143,52.664 127.038,53.67 C126.784,53.902 127.121,54.964 127.788,56.032 C129.296,58.447 129.346,64.739 127.903,70.472 C127.251,73.061 127.161,75.466 127.682,76.397 C128.797,78.39 130.85,77.338 145.519,67.257 C157.694,58.891 161.953,57.602 166.253,60.984 C167.764,62.173 169,63.632 169,64.227 C169,65.838 157.184,81.143 153.871,83.822 C151.004,86.142 150.11,89.332 152,90.5 C152.55,90.84 153,91.972 153,93.016 C153,94.431 150.033,96.43 141.349,100.867 C134.94,104.142 129.093,106.589 128.354,106.305 C127.386,105.934 127.178,104.631 127.61,101.645 C128.08,98.4 129.104,96.74 132.33,94 C137.976,89.203 148,78.865 148,77.839 C148,76.102 144.224,77.106 139.507,80.098 C135.458,82.665 133.971,83.091 130.811,82.586 C127.027,81.981 127,82.001 127,85.358 C127,87.218 126.084,91.607 124.964,95.111 C123.845,98.616 122.269,106.185 121.462,111.931 C119.921,122.911 120.156,123.948 124.193,123.985 C125.125,123.993 126.684,125.35 127.659,127 C128.634,128.65 129.923,130 130.524,130 C131.125,130 132.94,128.163 134.558,125.918 C136.176,123.673 138.859,119.96 140.52,117.668 C143.595,113.424 148.229,110.499 153.543,109.448 C160.655,108.041 163.496,117.644 158.575,126.458 C157.242,128.847 154.992,132.637 153.575,134.881 C152.159,137.124 151,139.814 151,140.858 C151,144.229 146.668,146.083 138,146.42 C135.525,146.516 132.696,146.965 131.713,147.418 C129.811,148.295 126,145.71 126,143.542 C126,142.911 124.611,140.505 122.913,138.197 C119.482,133.531 116.292,132.681 115.605,136.25 C115.367,137.488 114.215,142.325 113.046,147 C110.951,155.374 110.038,159.573 108.14,169.57 C107.611,172.358 106.463,176.35 105.589,178.442 C104.715,180.533 104,183.089 104,184.122 C104,185.155 103.55,186 103,186 C102.45,186 102,187.035 102,188.3 C102,189.565 101.622,191.028 101.161,191.55 C100.7,192.073 99.727,195.2 99,198.5 C97.793,203.98 94.951,211.315 91.384,218.154 C90.623,219.614 90,221.288 90,221.875 C90,222.899 87.416,228.894 82.404,239.5 C81.104,242.25 78.935,245.85 77.583,247.5 L75.125,250.5 L72.49,247.905 L69.856,245.311 L72.928,239.633 C74.618,236.51 76,233.284 76,232.464 C76,231.644 76.427,230.191 76.95,229.236 C77.472,228.281 79.772,223.559 82.059,218.742 C84.347,213.924 86.557,209.774 86.972,209.517 C87.386,209.261 88.266,206.902 88.926,204.276 C90.96,196.187 93.372,188.547 94.205,187.55 C94.642,187.027 95,185.535 95,184.234 C95,182.933 95.529,180.886 96.175,179.684 C96.821,178.483 97.681,175.925 98.086,174 C98.49,172.075 99.491,167.8 100.31,164.5 C101.129,161.2 102.258,156.475 102.819,154 C103.845,149.474 105.224,144.108 109.627,127.5 C110.94,122.55 112.01,117.33 112.007,115.899 C112.003,114.469 112.436,111.994 112.969,110.399 C114.958,104.447 119,77.841 119,70.702 C119,66.63 119.502,61.858 120.116,60.098 C121.535,56.027 120.729,55.266 116.712,56.883 C114.945,57.595 111.745,58.604 109.6,59.127 C107.455,59.65 104.46,60.96 102.946,62.039 C97.876,65.648 95.356,64.248 96.447,58.429 C97.169,54.581 97.624,54.32 114,48.346 C119.225,46.44 126.425,43.272 130,41.306 C133.575,39.341 139.425,36.168 143,34.256 C146.575,32.344 150.159,30.154 150.964,29.39 Z M58.765,181.867 C61.224,178.945 63.403,178.224 64.485,179.976 C65.338,181.356 63.056,192.84 61.121,196.904 C58.057,203.34 47.783,211.989 43.193,211.996 C41.096,212 40.913,211.612 41.193,207.75 C41.452,204.162 41.865,203.448 43.843,203.168 C45.218,202.974 46.872,201.578 47.843,199.792 C48.755,198.118 50.43,195.567 51.567,194.124 C52.704,192.681 54.246,189.978 54.994,188.117 C55.741,186.257 57.438,183.444 58.765,181.867 Z M25.75,149.08 C28.498,147.479 29.317,147.771 32.195,151.378 C33.677,153.236 36.152,155.068 37.695,155.449 C42.51,156.639 46,160.808 46,165.366 C46,167.562 46.53,170.823 47.177,172.613 C48.108,175.187 48.082,176.196 47.055,177.434 C45.331,179.511 43.072,179.422 42.378,177.25 C42.07,176.287 41.47,174.6 41.043,173.5 C40.616,172.4 39.87,170.189 39.384,168.587 C38.369,165.244 31.539,160.798 28.702,161.635 C25.668,162.53 24,160.15 24,154.927 C24,151.384 24.466,149.828 25.75,149.08 Z M139.5,165.038 C137.85,166.151 135.022,167.782 133.215,168.662 C129.067,170.681 128.329,172.108 127.035,180.605 C126.457,184.397 125.739,188.574 125.439,189.886 C124.93,192.113 125.11,192.228 128.149,191.62 C131.359,190.978 136,187.507 136,185.748 C136,185.25 137.602,181.514 139.559,177.444 C143.155,169.968 145.001,162.994 143.381,163.007 C142.896,163.01 141.15,163.924 139.5,165.038 Z M48.046,93.445 C48.815,92.518 51.144,92 54.546,92 C58.79,92 60.46,92.516 62.923,94.589 C64.615,96.013 66,98.051 66,99.117 C66,102.06 60.271,112.785 58.07,113.962 C54.519,115.863 54.07,115.202 54.288,108.386 L54.5,101.771 L51,100.636 C47.205,99.404 45.846,96.096 48.046,93.445 Z M154,155.974 C152.625,157.064 151.147,157.966 150.715,157.978 C150.283,157.99 148.722,158.787 147.245,159.75 L144.561,161.5 L148.53,162 C152.18,162.46 152.526,162.769 152.82,165.836 C153.003,167.745 152.254,171.055 151.07,173.575 C147.79,180.552 148.789,182.482 152.842,177 C154.062,175.35 155.699,174 156.479,174 C158.332,174 162.253,168.527 163.907,163.632 C165.084,160.15 165.02,159.502 163.258,157.132 C160.813,153.842 157.253,153.397 154,155.974 Z M143.05,127.449 C140.564,129.982 137.568,132.027 136.092,132.199 C134.002,132.442 133.553,132.972 133.772,134.938 C133.921,136.279 134.237,137.571 134.475,137.808 C136.587,139.92 150,128.903 150,125.056 C150,121.851 147.802,122.607 143.05,127.449 Z"/>
</svg>

