<svg xmlns="http://www.w3.org/2000/svg" width="300" height="300" viewBox="0 0 300 300" version="1.1">
  <defs/>
  <path d="M174.5,42.477 C179.955,40.687 185.987,41.605 188.546,44.615 C189.671,45.938 191.177,49.829 191.891,53.261 C192.606,56.692 193.562,60.85 194.017,62.5 C194.472,64.15 195.075,71.459 195.357,78.741 C195.64,86.024 196.079,92.324 196.332,92.741 C196.585,93.159 197.074,101.6 197.418,111.5 C198.01,128.552 198.845,139.924 201.015,160.5 C201.537,165.45 201.943,178.275 201.917,189 C201.891,199.725 202.149,226.785 202.49,249.134 L203.109,289.769 L200.42,291.884 C196.604,294.886 192.039,294.635 188.875,291.25 C187.462,289.738 184.415,286.994 182.104,285.152 C177.272,281.303 175.391,278.514 167.454,263.437 C164.287,257.422 161.09,251.79 160.348,250.921 C158.587,248.859 158.616,244.361 160.394,243.679 C162.277,242.957 168.928,250.809 171.678,257 C173.47,261.036 189.013,279.162 190.312,278.731 C190.965,278.514 191.773,276.123 192.106,273.418 C192.964,266.456 192.371,181.121 191.356,165.5 C190.892,158.35 190.572,149.912 190.645,146.75 C190.761,141.732 190.537,141 188.889,141 C187.85,141 186.998,141.563 186.995,142.25 C186.993,142.938 185.455,145.172 183.578,147.216 C181.701,149.259 178.507,153.617 176.481,156.9 C172.8,162.863 167.459,167.345 162.571,168.571 C159.183,169.422 159.041,169.714 156.797,180.387 C154.001,193.685 153.818,194.39 152.837,195.637 C152.346,196.262 151.299,199.862 150.511,203.637 C148.368,213.906 146.612,220.246 145.234,222.684 C144.555,223.886 144,225.589 144,226.469 C144,227.35 143.247,229.22 142.326,230.625 C141.405,232.03 139.89,234.602 138.959,236.34 C138.028,238.078 136.532,239.645 135.633,239.823 C133.266,240.292 133.503,231.669 136,226.5 C137.063,224.3 137.947,221.931 137.966,221.236 C137.985,220.541 138.406,219.191 138.903,218.236 C140.036,216.057 141.496,210.622 143.535,201 C144.409,196.875 145.536,191.925 146.038,190 C148.763,179.561 150,173.493 150,170.568 C150,168.77 150.404,165.994 150.897,164.399 C151.391,162.805 152.283,158.35 152.88,154.5 C153.478,150.65 154.466,144.35 155.076,140.5 C155.686,136.65 156.16,123.822 156.129,111.994 C156.074,91.101 155.984,90.161 152.942,78.994 C151.22,72.672 149.583,66.065 149.304,64.31 C149.024,62.556 147.266,59.335 145.398,57.151 C139.894,50.722 141.41,43 148.176,43 C150.435,43 151.712,43.951 154.213,47.5 C157.727,52.486 159.192,52.992 161.318,49.956 C162.951,47.625 168.631,44.403 174.5,42.477 Z M106.75,72.08 C111.124,69.533 116,72.449 116,77.612 C116,78.803 116.834,80.808 117.852,82.066 L119.704,84.353 L122.041,82.177 C124.652,79.744 127.004,79.404 128.8,81.2 C131.736,84.136 129.076,89.358 123.059,92.469 C119.301,94.413 116,98.671 116,101.576 C116,102.844 115.55,104.16 115,104.5 C114.45,104.84 114,106.134 114,107.376 C114,108.618 112.65,112.274 111,115.5 C109.35,118.726 108,122.157 108,123.124 C108,124.091 107.55,125.16 107,125.5 C106.45,125.84 106,126.981 106,128.035 C106,129.089 105.102,131.425 104.004,133.226 C102.906,135.027 102.006,137.438 102.004,138.585 C102.002,139.732 99.75,145.049 97,150.402 C94.25,155.754 92,160.554 92,161.067 C92,163.045 95.036,161.871 96.698,159.25 C99.812,154.338 106.759,148.298 110.05,147.64 C116.734,146.303 120.612,146.885 123.364,149.636 C124.814,151.086 126.058,153.449 126.129,154.886 C126.407,160.516 125.775,167.547 124.91,168.45 C124.409,168.973 124,170.408 124,171.641 C124,172.874 123.562,174.153 123.027,174.483 C122.492,174.814 121.594,176.793 121.032,178.882 C119.776,183.545 112.341,190.133 103.747,194.197 C100.487,195.739 97.635,197 97.409,197 C97.183,197 95.198,195.146 92.999,192.879 C89.362,189.132 89,188.282 89,183.494 C89,178.983 88.643,177.996 86.5,176.592 C85.125,175.691 84,174.289 84,173.477 C84,172.665 83.351,172 82.557,172 C80.7,172 78,168.152 78,165.505 C78,164.378 79.265,161.891 80.81,159.978 C82.356,158.065 84.719,154.7 86.06,152.5 C88.672,148.218 93.99,135.318 93.996,133.25 C93.998,132.563 94.45,132 95,132 C95.55,132 96.003,131.213 96.006,130.25 C96.01,129.287 96.745,127.15 97.642,125.5 C99.333,122.386 101.83,113.889 102.711,108.25 C103.443,103.566 100.997,103.987 95.025,109.573 C91.201,113.151 89.523,114.076 87.318,113.823 C84.781,113.532 84.469,113.078 84.194,109.274 C83.894,105.139 84.01,104.965 89.544,101.274 C92.656,99.198 96.666,96.6 98.456,95.5 C104.979,91.493 105,91.449 105,81.927 C105,74.575 105.292,72.929 106.75,72.08 Z M171.5,57.559 C169.85,58.896 167.745,59.992 166.823,59.995 C165.9,59.998 164.191,61.213 163.025,62.695 C161.225,64.984 160.998,66.229 161.519,70.945 C161.856,74 162.506,77.4 162.963,78.5 C164.288,81.694 166,97.96 166,107.363 C166,112.114 166.364,116 166.808,116 C167.253,116 168.94,114.211 170.558,112.025 C174.085,107.26 180.608,102.331 184.026,101.849 C184.627,101.764 185.106,101.714 185.468,101.482 C186.893,100.567 186.503,96.826 184.609,77 C182.827,58.336 182.303,56.868 177,55.685 C175.252,55.295 173.597,55.859 171.5,57.559 Z M182.37,116.25 C181.282,117.487 179.136,120.213 177.601,122.307 C174.235,126.9 169.987,127.242 168.994,123 C168.673,121.625 167.755,120.5 166.955,120.5 C165.789,120.5 165.34,123.285 164.693,134.5 C164.25,142.2 163.462,149.281 162.943,150.236 C161.774,152.389 161.709,156 162.839,156 C164.069,156 174.626,143.753 179.877,136.235 C181.131,134.439 183.472,132.29 185.079,131.459 C187.937,129.981 188,129.775 188,121.974 C188,114.92 187.789,114 186.174,114 C185.17,114 183.458,115.013 182.37,116.25 Z M45.904,200.784 C47.882,198.74 49.852,197.052 50.281,197.034 C51.959,196.961 52.139,200.139 50.592,202.5 C49.676,203.898 48.854,207.504 48.714,210.743 C48.513,215.363 47.822,217.43 45.215,221.206 C41.031,227.264 38.461,229 33.679,229 C30.617,229 29.182,228.336 26.849,225.839 C24.09,222.884 23.938,222.312 24.53,217.089 C25.417,209.27 25.887,208 27.898,208 C29.705,208 31.653,210.939 32.209,214.5 C32.387,215.645 33.429,216.63 34.645,216.804 C37.362,217.194 40.717,213.035 41.627,208.149 C42.036,205.957 43.743,203.016 45.904,200.784 Z M12.667,154.667 C12.882,154.452 13.03,154.282 13.217,154.192 C13.832,153.895 14.867,154.47 20.066,157.195 C27.588,161.138 29.561,163.569 31.046,170.724 C32.601,178.21 31.455,193.246 29.364,192.805 C28.295,192.58 27.806,190.436 27.491,184.598 C27.16,178.473 26.535,175.887 24.712,173.098 C23.418,171.119 22.068,168.713 21.711,167.75 C21.264,166.542 19.983,166 17.578,166 C14.404,166 14.001,165.667 13.053,162.25 C11.845,157.901 11.728,155.605 12.667,154.667 Z M39,99.732 C43.454,98.913 44.036,98.977 46.44,100.553 C51.257,103.709 50.266,110.662 44.183,116.38 C40.187,120.136 38,119.36 38,114.186 C38,111.58 37.345,109.717 36,108.5 C32.255,105.11 33.766,100.694 39,99.732 Z M108.569,160.945 C105.56,162.929 102,168.985 102,172.12 C102,173.089 101.55,174.16 101,174.5 C99.75,175.272 99.677,181.683 100.91,182.444 C102.592,183.484 105.05,181.787 107.933,177.597 C113.598,169.364 115.828,164.552 115.288,161.728 C114.667,158.477 112.667,158.244 108.569,160.945 Z"/>
</svg>

