<svg xmlns="http://www.w3.org/2000/svg" width="300" height="300" viewBox="0 0 300 300" version="1.1">
  <defs/>
  <path d="M181.5,111.081 C183.15,110.581 187.36,110.133 190.855,110.086 C202.118,109.934 213.105,117.541 219.02,129.589 C221.791,135.233 222.053,136.736 222.614,150.184 C223.435,169.908 220.591,188.097 214.387,202.784 C213.624,204.59 213,206.734 213,207.547 C213,208.361 212.565,209.809 212.033,210.764 C211.502,211.719 209.894,215.65 208.461,219.5 C202.514,235.479 198.63,243.242 192.992,250.416 C189.376,255.017 187.049,256.994 184.106,257.965 C177.067,260.288 173.697,258.967 165.512,250.675 C157.163,242.217 153,236.176 153,232.52 C153,228.574 155.094,229.498 161.535,236.284 C167.193,242.245 173.798,246.91 178.739,248.436 C180.438,248.961 181.612,248.449 183.613,246.314 C188.889,240.681 193.006,233.277 197.688,221 C211.385,185.09 213.22,177.309 213.373,154.5 C213.459,141.764 213.212,139.127 211.737,137.027 C210.782,135.668 210,133.823 210,132.928 C210,129.21 203.918,122.856 197.472,119.84 L191.078,116.848 L180.789,119.095 C175.13,120.331 167.925,122.616 164.779,124.171 C161.632,125.727 158.369,127 157.529,127 C156.688,127 156,127.395 156,127.879 C156,128.362 154.537,129.313 152.75,129.992 C150.963,130.672 147.475,132.273 145,133.551 C142.525,134.828 136.969,137.698 132.652,139.928 C128.336,142.157 121.902,146.011 118.355,148.491 C111.019,153.619 108.324,154.137 107.434,150.593 C106.791,148.031 108.404,144 110.072,144 C110.623,144 113.753,141.394 117.028,138.209 C126.521,128.978 150.538,118.149 172,113.422 C175.575,112.635 179.85,111.582 181.5,111.081 Z M156,53.93 C157.925,53.545 160.227,53.178 161.115,53.115 C163.52,52.944 167.9,56.774 171.136,61.875 C173.639,65.822 173.999,67.344 173.994,73.946 C173.991,78.101 173.476,84.2 172.851,87.5 C172.225,90.8 171.791,95.621 171.885,98.213 C171.98,100.805 171.407,104.482 170.612,106.385 C167.879,112.928 160.133,115.343 161.423,109.251 C161.743,107.738 162.46,102.028 163.015,96.562 C164.248,84.416 163.498,83.036 158.419,88.114 C155.135,91.398 154.828,92.229 154.294,99.294 C153.664,107.63 151.54,111.373 147.763,110.807 C144.996,110.393 143.035,103.602 143.015,94.369 C143,87.455 143.102,87.16 146.332,84.696 C153.216,79.445 156.836,77.95 161.04,78.622 L165,79.256 L165,75.75 C165,67.252 159.53,61.114 154.867,64.38 C153.596,65.271 151.961,66 151.235,66 C148.904,66 139.623,73.709 135.609,78.979 C132.132,83.545 131.841,84.356 132.872,86.618 C133.506,88.011 133.772,89.56 133.462,90.062 C133.152,90.563 133.408,92.667 134.031,94.737 C134.654,96.806 135.334,102.622 135.543,107.66 C135.908,116.451 135.825,116.884 133.497,118.41 C128.341,121.788 127.683,120.433 125.038,101 C122.442,81.917 122.087,80.515 118.101,73.617 L114.701,67.734 L117.101,65.875 C120.994,62.859 128,65.311 128,69.691 C128,72.083 131.833,71.044 133.943,68.08 C137.413,63.206 150.005,55.129 156,53.93 Z M162.5,149.202 C166.852,147.687 172.555,147.787 176.532,149.449 C179.851,150.836 180,151.118 180,156.037 C180,161.889 176.684,169.753 169.834,180.15 C168.874,181.607 167.792,183.981 167.429,185.426 L166.77,188.052 L174.961,187.776 C182.101,187.535 183.334,187.749 184.576,189.441 C186.19,191.642 186.467,195.593 185.067,196.459 C183.11,197.668 174.16,199.063 165.744,199.471 C160.043,199.747 156.214,200.437 154.771,201.448 C151.335,203.855 146.34,203.449 144.481,200.611 C143.169,198.609 143.103,197.478 144.07,193.636 C144.705,191.114 144.974,187.577 144.668,185.775 C142.856,175.119 142.095,172.704 139.767,170.215 C136.714,166.95 134,161.79 134,159.25 C134,155.059 139.514,153.57 143.832,156.595 C146.749,158.638 149.461,157.927 155.044,153.656 C157.495,151.781 160.85,149.777 162.5,149.202 Z M34.223,146.862 C35.64,145.986 37.645,146.328 47.067,149.049 C51.97,150.466 53.976,151.586 54.986,153.473 C55.729,154.863 56.703,156 57.149,156 C57.595,156 58.897,157.838 60.044,160.086 C61.746,163.423 62.131,166.033 62.147,174.336 C62.157,179.926 61.674,186.947 61.073,189.939 C60.472,192.93 60.26,196.98 60.602,198.939 C61.248,202.637 63.51,207.005 64.773,206.994 C66.012,206.983 69,200.964 69,198.478 C69,197.18 69.391,195.876 69.869,195.581 C70.346,195.286 71.013,193.321 71.35,191.214 C71.998,187.158 76.096,182.323 77.926,183.454 C79.28,184.291 79.334,190.266 78,191.6 C77.45,192.15 76.953,195.278 76.896,198.55 C76.812,203.393 76.207,205.427 73.646,209.484 C67.667,218.956 62.224,222.115 58.663,218.18 C57.241,216.609 57.04,213.77 57.195,197.43 C57.489,166.242 54.752,159.804 39.962,156.895 C36.408,156.196 32.976,155.235 32.335,154.76 C30.933,153.72 32.287,148.059 34.223,146.862 Z M87.2,134.2 C87.86,133.54 89.009,133 89.753,133 C91.647,133 98,138.227 98,139.785 C98,140.492 98.656,142.071 99.457,143.295 C100.259,144.518 102.108,149.115 103.566,153.51 C105.024,157.904 106.618,161.928 107.109,162.45 C107.599,162.973 108,164.441 108,165.714 C108,166.986 108.429,168.809 108.954,169.764 C109.479,170.719 110.355,173.975 110.901,177 C111.447,180.025 112.347,184.3 112.901,186.5 C113.455,188.7 114.416,192.525 115.036,195 C117.885,206.374 117.248,210 112.403,210 C110.84,210 109.587,209.078 108.666,207.25 C107.179,204.298 105.575,198.955 105.824,197.785 C105.908,197.391 105.467,195.816 104.843,194.285 C104.22,192.753 103.37,189.475 102.954,187 C100.65,173.294 99.771,169.511 98.455,167.632 C97.655,166.49 96.993,164.418 96.985,163.027 C96.977,161.637 96.344,159.375 95.579,158 C94.813,156.625 93.167,153.475 91.921,151 C90.674,148.525 88.832,145.427 87.827,144.115 C85.751,141.405 85.409,135.991 87.2,134.2 Z M60.152,94.606 C61.413,93.723 63.587,93 64.983,93 C67.817,93 73,97.26 73,99.59 C73,100.42 73.689,102.431 74.53,104.059 C76.307,107.495 75.769,108.949 70.184,115.799 C67.746,118.789 66.044,120.006 64.59,119.798 C62.426,119.488 62.37,119.03 63.663,112.154 C64.189,109.361 63.869,108.453 61.724,106.654 C60.059,105.259 58.926,103.04 58.507,100.356 C57.947,96.769 58.168,95.996 60.152,94.606 Z M161,160.427 C159.075,161.723 155.948,164.409 154.05,166.396 C150.83,169.768 150.676,170.222 151.736,173.254 C152.361,175.039 153.177,178.637 153.549,181.25 C153.922,183.863 154.586,186 155.025,186 C157.647,186 168.642,166.786 169.221,161.192 C169.453,158.958 169.074,158.463 167,158.285 C165.625,158.166 162.925,159.13 161,160.427 Z"/>
</svg>

