<svg xmlns="http://www.w3.org/2000/svg" width="300" height="300" viewBox="0 0 300 300" version="1.1">
  <defs/>
  <path d="M131.5,113.285 C132.6,112.616 134.591,112.166 135.925,112.285 C138.263,112.492 138.349,112.772 138.307,120.046 C138.284,124.196 137.95,128.584 137.565,129.796 C136.541,133.023 138.212,132.568 145.084,127.75 C153.607,121.774 155.095,121.031 158.581,121.015 C160.85,121.004 162.014,121.657 162.995,123.491 C165.16,127.537 163.123,130.436 156.327,132.979 C153.136,134.173 149.952,135.625 149.252,136.206 C148.552,136.787 146.082,138.277 143.763,139.517 C138.415,142.378 137.103,144.334 138.757,146.983 C139.441,148.077 140,151.056 140,153.603 C140,157.95 140.138,158.19 142.25,157.518 C158.615,152.314 164.955,152.448 171.415,158.134 C173.875,160.299 176.19,163.068 176.559,164.286 C176.928,165.504 178.014,167.4 178.972,168.5 C180.025,169.71 181.133,173.617 181.776,178.39 C182.83,186.218 181.569,198.553 177.981,215.5 C177.399,218.25 176.574,222.3 176.148,224.5 C175.722,226.7 174.726,229.702 173.936,231.171 C173.146,232.64 171.397,236.015 170.049,238.671 C167.154,244.376 160.526,253.53 157,256.693 C153.51,259.824 145.606,262.336 141.606,261.586 C137.449,260.806 126.966,251.059 124.109,245.318 C122.965,243.018 121.572,240.854 121.014,240.509 C120.456,240.164 120,239.002 120,237.927 C120,236.852 119.465,235.116 118.81,234.068 C117.873,232.567 117.908,231.816 118.975,230.531 C121.152,227.907 125.03,229.036 127.091,232.895 C129.748,237.87 137.556,247.663 140.298,249.459 C144.089,251.943 148.409,250.457 153.274,244.996 C157.866,239.841 166,225.325 166,222.286 C166,221.249 166.406,219.973 166.903,219.45 C167.4,218.928 168.046,216.475 168.339,214 C168.632,211.525 169.379,206.391 169.999,202.591 C171.422,193.867 170.806,177.651 168.867,172.793 C165.436,164.197 158.913,161.42 150.571,165.005 C137.452,170.644 136.756,171.205 132.77,179.364 C130.719,183.564 128.633,187 128.135,187 C127.637,187 125.28,190.262 122.896,194.25 C113.088,210.661 105.424,216.441 100.577,211.085 C98.936,209.272 98.935,209.028 100.563,206.544 C101.509,205.1 103.126,203.468 104.156,202.916 C105.186,202.365 107.15,200.246 108.52,198.207 C109.89,196.168 112.64,192.288 114.631,189.584 C116.621,186.88 118.245,183.505 118.24,182.084 C118.234,180.663 119.865,177.263 121.865,174.529 C125.527,169.522 132,152.755 132,148.275 C132,145.488 131.129,145.609 121.879,149.682 C114.354,152.996 110.889,152.562 109.757,148.164 C108.668,143.934 109.91,142.36 115.016,141.497 C121.801,140.351 128.433,137.363 129.734,134.867 C131.002,132.435 130.493,126.295 128.879,124.55 C127.818,123.403 127.737,116.9 128.765,115.5 C129.169,114.95 130.4,113.953 131.5,113.285 Z M144.259,45.659 C146.423,44.785 147.497,44.959 149.777,46.557 C153.39,49.087 152.355,54.525 146.243,65.122 C144.459,68.214 143,71.156 143,71.659 C143,72.163 140.75,74.791 138,77.5 C135.25,80.209 133,82.97 133,83.636 C133,84.302 131.875,86.184 130.5,87.818 C127.606,91.257 127.429,92 129.504,92 C131.625,92 136.528,89.258 148.5,81.375 C156.849,75.879 168.573,71.705 174.157,72.241 C182.41,73.034 185.285,79.601 181.03,87.942 C178.866,92.183 167.314,101 163.921,101 C160.261,101 160.395,97.893 164.198,94.582 C168.036,91.24 171.781,85.447 170.761,84.428 C169.585,83.251 152.922,89.537 148.704,92.748 C148.042,93.252 145.925,94.275 144,95.021 C142.075,95.767 139.108,97.417 137.406,98.689 C135.704,99.96 133.679,101.009 132.906,101.02 C131.606,101.038 128.318,103.418 107.717,119.25 C103.524,122.472 99.209,125 97.9,125 C96.29,125 93.198,122.535 87.937,117.058 C83.255,112.184 79.186,108.847 77.404,108.42 C73.297,107.436 72,106.151 72,103.066 C72,99.69 75.344,96 78.404,96 C81.477,96 84.274,98.321 91.5,106.866 C94.8,110.768 98.183,113.97 99.018,113.981 C99.854,113.991 102.779,111.8 105.518,109.11 C108.258,106.421 112.075,103.348 114,102.281 C116.567,100.86 117.582,99.564 117.806,97.421 C117.999,95.585 119.536,93.16 121.945,90.892 C124.054,88.908 126.088,85.876 126.466,84.154 C126.844,82.432 127.569,80.766 128.077,80.452 C129.511,79.566 129.165,76.382 127.482,74.985 C126.646,74.292 125.251,72.099 124.38,70.112 C123.509,68.126 122.344,65.539 121.791,64.365 C120.686,62.02 121.611,54.261 123.236,52.25 C126.128,48.668 130.626,52.834 131.181,59.61 C131.435,62.71 131.938,63.562 133.657,63.807 C135.464,64.065 136.16,63.174 137.95,58.307 C141.085,49.786 142.862,46.223 144.259,45.659 Z M142.992,26.507 C147.831,22.464 149.929,22.158 152.595,25.108 C157.129,30.124 152.82,34.954 138,41.467 C136.075,42.313 132.9,43.867 130.944,44.921 C128.988,45.974 124.736,47.529 121.495,48.375 C114.428,50.221 113,49.46 113,43.853 C113,39.539 114.283,38.643 122.732,37.059 C125.059,36.622 128.434,35.152 130.232,33.791 C132.029,32.43 134.691,31.024 136.147,30.665 C137.603,30.307 140.683,28.435 142.992,26.507 Z M29.127,135.623 C30.706,134.517 33.232,134.236 38.925,134.533 C47.801,134.996 52.36,136.639 56.333,140.809 C59.075,143.687 59.148,144.034 58.609,151.641 C58.304,155.964 58.039,160.933 58.021,162.684 C57.986,166.073 55.513,169.435 53.823,168.391 C53.222,168.019 53.105,166.485 53.536,164.632 C54.989,158.388 54.59,149.544 52.727,146.704 C50.982,144.042 50.785,144 40.177,144 C33.128,144 28.985,143.585 28.2,142.8 C26.319,140.919 26.791,137.259 29.127,135.623 Z M43.606,77.152 C44.994,75.171 45.773,74.947 49.356,75.499 C54.372,76.273 59.922,81.535 60.151,85.735 C60.609,94.145 58.473,100.187 54.273,102.359 C52.687,103.179 50.861,105.009 50.216,106.425 C48.972,109.156 46,109.971 46,107.582 C46,106.802 47.125,103.924 48.5,101.187 C49.875,98.449 51,95.185 51,93.934 C51,91.123 48.306,88 45.88,88 C42.181,88 40.759,81.217 43.606,77.152 Z M66.655,174.829 C67.565,173.823 68.889,173 69.596,173 C71.761,173 72.284,175.029 70.598,176.892 C69.719,177.863 69,179.354 69,180.206 C69,181.058 68.325,182.315 67.5,183 C66.675,183.685 66,184.83 66,185.546 C66,186.261 64.875,188.184 63.5,189.818 C62.125,191.452 61,193.24 61,193.791 C61,195.617 53.971,201 51.588,201 C48.236,201 46.97,198.962 47.663,194.687 C48.247,191.089 48.813,190.609 52.1,190.922 C52.98,191.006 55.335,189.145 57.335,186.787 C59.334,184.429 61.876,181.553 62.985,180.395 C64.093,179.237 65,177.922 65,177.474 C65,177.025 65.745,175.835 66.655,174.829 Z M129.897,7.624 C131.829,5.296 136.29,5.612 138.747,8.25 C141.999,11.741 140.497,17.4 134.464,24.387 C128.919,30.811 126,31.689 126,26.934 C126,25.248 126.533,22.886 127.184,21.684 C127.836,20.483 128.409,17.193 128.459,14.374 C128.509,11.554 129.156,8.517 129.897,7.624 Z"/>
</svg>

