<svg xmlns="http://www.w3.org/2000/svg" width="300" height="300" viewBox="0 0 300 300" version="1.1">
  <defs/>
  <path d="M180.635,21.073 C185.151,17.52 189.912,18.411 192.805,23.349 C194.887,26.902 195.78,38.4 194.057,39.465 C193.476,39.824 193,41.506 193,43.202 C193,46.325 188.796,51.086 179.713,58.249 C175.952,61.215 175.137,63.561 174.327,73.749 C173.679,81.886 175.146,82.608 182.305,77.68 C189.849,72.487 194.414,70.804 198.803,71.598 C204.012,72.541 207.436,74.47 210.154,77.993 C211.444,79.665 213.512,82.328 214.75,83.911 C215.988,85.494 217,87.759 217,88.944 C217,90.129 217.751,92.539 218.669,94.3 C220.07,96.986 220.309,100.393 220.158,115.5 C220.059,125.4 219.571,139.35 219.074,146.5 C218.576,153.65 217.925,163.325 217.625,168 C216.166,190.804 213.195,211.76 211.032,214.5 C210.598,215.05 210.034,219.279 209.778,223.898 C209.33,231.999 209.193,232.395 205.907,235.121 C204.033,236.675 201.6,237.956 200.5,237.968 C197.521,238.001 189.335,231.361 183.277,224 C180.335,220.425 177.325,216.825 176.587,216 C174.909,214.122 171,206.03 171,204.435 C171,203.78 170.325,202.685 169.5,202 C167.643,200.459 167.54,197.114 169.328,196.428 C171.739,195.502 176,197.812 176,200.045 C176,201.197 177.355,204.109 179.01,206.515 C182.396,211.436 196.389,224.5 198.274,224.5 C198.948,224.5 199.628,223.15 199.785,221.5 C199.942,219.85 200.477,217.6 200.973,216.5 C201.47,215.4 202.076,212.925 202.32,211 C202.565,209.075 203.912,202.1 205.314,195.5 C206.716,188.9 208.143,178.325 208.484,172 C208.826,165.675 209.351,157.125 209.652,153 C210.943,135.307 211.119,103.447 209.947,99.5 C207.9,92.601 205.632,88.932 201.553,85.917 C197.009,82.559 194.699,82.38 190.5,85.062 C188.85,86.116 186.825,87.281 186,87.652 C185.175,88.022 183.375,89.068 182,89.976 C177.808,92.745 171.05,94.519 169.162,93.347 C166.183,91.498 164.807,86.973 164.438,77.811 C163.834,62.836 166.912,54.059 174.167,50.068 C180.672,46.489 185,40.793 185,35.811 C185,32.284 184.655,31.754 181.5,30.436 C178.635,29.239 178,28.444 178,26.059 C178,24.102 178.865,22.464 180.635,21.073 Z M118.075,27.306 C119.959,26.65 122.556,26.087 123.846,26.056 C127.118,25.978 131.651,29.461 133.588,33.544 C135.857,38.326 135.099,49.93 132.121,56 C127.971,64.46 127.006,65.752 121.256,70.552 C118.09,73.196 115.081,75.719 114.569,76.161 C112.742,77.734 111.319,93.875 111.916,106.25 C112.03,108.626 115.257,108.479 117.504,105.996 C121.885,101.154 133.06,101.374 140.755,106.453 C147.835,111.126 150,113.795 150,117.851 C150,118.941 150.418,119.983 150.93,120.167 C152.377,120.685 152.262,141.466 150.792,145 C150.45,145.825 149.921,149.232 149.619,152.57 C149.316,155.909 148.339,161.309 147.447,164.57 C146.556,167.832 145.451,172.018 144.991,173.872 C144.531,175.727 143.67,177.73 143.078,178.322 C142.485,178.915 142,180.113 142,180.984 C142,181.855 140.425,185.012 138.5,188 C136.575,190.988 135,194.181 135,195.096 C135,196.01 133.15,198.666 130.888,200.996 C127.138,204.86 126.436,205.188 122.912,204.715 C116.159,203.809 106.884,194.229 105.472,186.701 C104.74,182.799 102.732,180.429 101.044,181.473 C100.47,181.828 100,182.938 100,183.94 C100,186.174 82.339,203 79.995,203 C77.278,203 75.103,199.834 75.7,196.75 C75.993,195.238 76.526,194 76.885,194 C78.424,194 87.234,185.749 95.891,176.199 C104.559,166.636 107.68,164.533 108.692,167.574 C108.888,168.165 107.91,170.327 106.518,172.378 C104.516,175.329 104.205,176.514 105.029,178.054 C105.602,179.124 106.432,180 106.875,180 C107.317,180 108.2,181.143 108.836,182.54 C110.171,185.469 116.705,192.77 119.178,194.094 C120.1,194.588 121.596,194.709 122.501,194.361 C124.141,193.732 131.415,179.545 134.479,171 C139.826,156.088 143.604,134.289 142.382,125.403 C141.789,121.091 138.535,116.095 136,115.604 C135.175,115.444 133.195,114.952 131.599,114.51 C127.942,113.498 122.449,115.393 118.865,118.902 C111.023,126.581 105.77,128.105 103.88,123.25 C103.229,121.578 102.806,111.309 102.8,97.045 L102.79,73.59 L107.145,69.825 C109.54,67.754 111.99,66.046 112.589,66.03 C113.664,66 120,59.568 120,58.507 C120,58.206 121.125,56.178 122.5,54 C127.526,46.038 124.758,37 117.294,37 C113.416,37 112.387,35.349 113.731,31.283 C114.352,29.403 115.761,28.113 118.075,27.306 Z M197.195,126.816 C203.356,120.112 205.272,120.564 200.5,127.595 C199.125,129.621 197.982,132.229 197.959,133.39 C197.937,134.55 196.587,137.058 194.959,138.962 C193.332,140.866 192,143.384 192,144.557 C192,145.73 191.1,147.505 190,148.5 C188.9,149.495 188,150.734 188,151.252 C188,151.769 186.169,154.273 183.931,156.815 C181.693,159.358 179.622,162.642 179.327,164.113 C179.033,165.584 177.002,168.954 174.814,171.602 C172.626,174.25 170.198,177.651 169.417,179.161 C167.545,182.78 159.567,188.22 156.724,187.816 C154.824,187.546 154.518,186.917 154.62,183.5 C154.789,177.863 156.541,174 158.927,174 C160.852,174 168.697,164.387 186.269,140.5 C189.911,135.55 194.827,129.392 197.195,126.816 Z M110.176,135.483 C116.009,133.663 116.33,133.685 119.44,136.131 C123.203,139.091 124.497,142.794 122.528,144.969 C121.688,145.897 121,147.193 121,147.849 C121,148.504 119.933,150.718 118.63,152.77 C113.088,161.491 108.548,162.176 111.643,153.825 C114.11,147.169 113.144,145.579 107.238,146.576 C98.038,148.13 95.689,147.788 94.185,144.677 C92.992,142.209 93.03,141.624 94.491,140.01 C95.433,138.969 98.271,137.875 101.006,137.499 C103.671,137.133 107.798,136.225 110.176,135.483 Z M46.049,79.351 C47.704,77.696 57.193,78.959 59.602,81.155 C62.352,83.662 64.301,90.325 63.453,94.326 C62.715,97.81 58.501,104 56.867,104 C56.3,104 53.853,105.625 51.429,107.611 C46.479,111.668 42.967,111.78 45.227,107.81 C45.927,106.58 47.48,104.763 48.679,103.771 C49.877,102.779 51.822,100.406 53.001,98.499 C55.653,94.207 54.919,91.134 51.058,90.362 C46.984,89.547 43.503,81.897 46.049,79.351 Z M172.5,113.208 C176.869,110.702 183.231,112.357 187.669,117.155 C190.248,119.944 191.73,126.431 190.028,127.483 C189.395,127.874 188.454,129.305 187.938,130.664 C187.203,132.597 186.404,133.064 184.258,132.816 C182.45,132.608 181.392,131.819 181.151,130.5 C180.548,127.209 178.951,126 175.206,126 C170.905,126 167.989,123.6 168.032,120.095 C168.068,117.177 169.542,114.904 172.5,113.208 Z M59.615,162.465 C60.627,160.92 61.023,160.263 61.552,160.129 C61.969,160.023 62.468,160.242 63.418,160.607 C65.4,161.367 65.482,165.355 63.549,166.959 C62.751,167.622 61.799,170.157 61.434,172.594 C61.068,175.031 60.384,177.263 59.914,177.553 C59.443,177.844 58.76,180.326 58.397,183.067 C57.82,187.418 57.102,188.622 52.76,192.526 C45.776,198.805 41.595,198.523 41.787,191.787 C41.888,188.251 43.579,186 46.135,186 C47.469,186 48.791,184.307 50.623,180.25 C54.844,170.902 56.409,168 57.227,168 C57.652,168 58,167.309 58,166.465 C58,165.62 58.727,163.82 59.615,162.465 Z M32.089,134.835 C33.237,132.688 34.371,132.71 41,135.013 C47.716,137.346 49.485,138.587 51.719,142.53 C55.26,148.783 54.676,161 50.835,161 C49.241,161 48.018,157.127 48.884,154.824 C50.126,151.525 47.999,147.93 43.212,145.239 C41.021,144.008 37.916,143 36.314,143 C31.444,143 29.613,139.461 32.089,134.835 Z"/>
</svg>

