<svg xmlns="http://www.w3.org/2000/svg" width="300" height="300" viewBox="0 0 300 300" version="1.1">
  <defs/>
  <path d="M122.068,17.904 C123.803,15.468 124.83,15 128.446,15 C135.082,15 135.709,16.631 131.972,24.169 C130.246,27.651 127.573,31.625 126.031,33 C122.586,36.073 121.12,42 123.805,42 C124.77,42 127.045,43.575 128.861,45.5 C130.677,47.425 132.524,49 132.966,49 C133.408,49 134.507,47.875 135.408,46.5 C138.473,41.822 147.134,44.354 144.19,49.068 C143.535,50.116 143,51.901 143,53.036 C143,54.171 141.425,56.721 139.5,58.703 C137.575,60.685 136,62.961 136,63.759 C136,64.558 134.875,66.097 133.5,67.179 C132.125,68.26 131,69.844 131,70.698 C131,71.889 130.303,72.111 128,71.65 C125.211,71.092 125,71.257 125,73.99 C125,75.906 124.304,77.302 123,78 C121.875,78.602 121,80.094 121,81.409 C121,87.002 116.545,101.379 112.395,109.181 C111.323,111.196 111.261,112.043 112.145,112.59 C113.242,113.267 115.468,111.203 121.743,103.687 C125.41,99.296 131.996,100.428 132.003,105.45 C132.005,107.23 131.133,109.39 126.842,118.236 C126.379,119.191 126,120.406 126,120.936 C126,121.466 124.426,124.51 122.503,127.7 C120.579,130.89 119.004,134.14 119.003,134.921 C119.001,135.703 118.27,137.149 117.379,138.134 C116.473,139.135 116.037,140.654 116.391,141.577 C117.386,144.169 120.903,141.333 124.665,134.907 C131.065,123.972 132.331,123.747 141.763,131.865 C145.511,135.091 150.113,138.524 151.99,139.495 C157.183,142.18 157.98,143.345 157.338,147.305 L156.764,150.841 L160.738,150.308 C164.926,149.747 169,151.225 169,153.307 C169,154.76 163.22,162 162.06,162 C160.775,162 137.653,177.533 135.854,179.605 C134.949,180.647 133.691,184.031 133.059,187.125 C132.427,190.219 130.58,194.847 128.955,197.41 C127.33,199.973 126,203.404 126,205.035 C126,206.666 126.14,208 126.312,208 C126.484,208 128.487,207.1 130.764,206 C136.967,203.003 140.551,203.276 158,208.076 C170.376,211.481 179.522,215.08 184.573,218.532 C187.363,220.44 189.939,222 190.296,222 C190.653,222 193.32,223.072 196.223,224.382 C199.125,225.693 204.425,227.685 208,228.81 C211.575,229.935 217.425,232.4 221,234.286 C225.957,236.903 228.355,237.61 231.1,237.267 C234.503,236.841 234.817,237.052 236.833,241.128 L238.966,245.439 L235.787,248.72 C232.668,251.938 229.68,252.909 228.546,251.074 C227.473,249.339 215.779,242 214.086,242 C213.159,242 211.973,241.641 211.45,241.202 C210.928,240.763 208.025,239.575 205,238.562 C201.975,237.55 197.124,235.659 194.22,234.361 C191.317,233.062 188.664,232 188.325,232 C187.71,232 175.842,226.495 168.719,222.905 C166.64,221.857 163.94,220.995 162.719,220.988 C161.499,220.981 158.542,219.856 156.148,218.488 C153.754,217.12 150.701,216 149.363,216 C148.025,216 145.768,215.239 144.349,214.309 C142.692,213.223 139.487,212.567 135.395,212.474 C130.778,212.37 128.467,211.827 127.005,210.505 C125.896,209.5 124.82,208.864 124.615,209.089 C124.41,209.315 123.056,212.2 121.607,215.5 C118.533,222.503 119.085,221.588 111.795,231.736 C106.302,239.381 94.4,251 92.061,251 C91.439,251 89.82,250.273 88.465,249.385 C84.198,246.589 85.618,240 90.488,240 C91.674,240 94.537,237.949 97.118,235.25 C106.684,225.247 110.957,217.968 115.592,203.781 C117.079,199.226 118.719,194.957 119.234,194.294 C121.311,191.623 117.382,189.815 114.821,192.263 C112.035,194.926 101.551,201 99.74,201 C99.28,201 97.041,201.9 94.764,203 C92.487,204.1 89.895,205 89.003,205 C88.112,205 86.509,205.661 85.441,206.468 C84.374,207.276 82.706,207.951 81.736,207.968 C80.766,207.986 79.191,208.405 78.236,208.9 C77.281,209.396 73.872,210.627 70.66,211.638 C64.937,213.439 64.792,213.437 63.41,211.546 C61.589,209.056 61.601,204.576 63.432,203.056 C64.22,202.402 67.483,201.494 70.682,201.037 C81.479,199.496 99.084,192.2 113,183.498 C116.025,181.607 119.175,179.657 120,179.167 C121.213,178.445 121.452,176.191 121.249,167.387 C120.964,155.022 121.872,152.624 126.633,153.175 C129.972,153.562 131.677,156.477 132.527,163.25 C133.26,169.097 134.769,169.345 140.132,164.5 C142.262,162.575 144.601,161 145.329,161 C146.056,161 147.681,159.904 148.938,158.565 C150.99,156.381 151.094,155.842 149.943,153.315 C148.186,149.456 143.103,145.313 137.644,143.29 L133.086,141.6 L126.793,147.621 C120.036,154.086 108.738,161.289 106.141,160.789 C103.828,160.343 101.866,155.969 102.423,152.5 C103.591,145.233 104.327,143.014 106.105,141.405 C107.147,140.462 108,139.141 108,138.471 C108,137.8 109.177,135.147 110.615,132.574 C113.184,127.976 113.174,125.637 110.592,127.535 C102.331,133.61 100.653,133.91 96.972,129.97 C95.338,128.22 94,126.17 94,125.414 C94,124.658 95.464,121.668 97.254,118.769 C104.959,106.291 111.014,91.343 111.005,84.823 C111.001,82.045 111.639,80.642 113.614,79.089 L116.229,77.032 L111.364,72.499 C107.102,68.527 106.072,68.026 103.046,68.453 C100.745,68.778 99.013,68.417 97.858,67.372 C95.602,65.33 96.661,62.447 101.983,56.135 C105.768,51.647 107.378,48.968 113.186,37.5 C118.037,27.923 120.006,23.491 120.003,22.154 C120.001,21.414 120.931,19.502 122.068,17.904 Z M67.69,167.75 C70.042,163.071 72,161.585 72,164.479 C72,165.904 68.628,177.389 67.002,181.5 C64.834,186.984 62.999,192.721 62.995,194.033 C62.987,196.172 49.802,210 47.771,210 C45.418,210 42.598,205.421 42.61,201.62 C42.625,196.502 45.365,185.797 46.8,185.246 C49.589,184.176 50.284,186.69 48.494,191.377 C46.64,196.232 46.989,199 49.456,199 C51.1,199 56,191.955 56,189.591 C56,188.795 56.652,187.491 57.448,186.695 C58.244,185.899 60.337,182.379 62.099,178.874 C63.86,175.368 66.376,170.363 67.69,167.75 Z M28.035,139.934 C30.131,136.018 43.63,137.896 48.229,142.744 C51.428,146.116 52.788,152.101 50.74,153.8 C49.614,154.736 48.474,154.241 45.103,151.356 C41.074,147.907 40.628,147.768 35.51,148.37 C31.345,148.859 29.792,148.649 28.572,147.429 C26.758,145.615 26.55,142.709 28.035,139.934 Z M51.25,77.989 C55.354,75.487 56.457,75.501 58.867,78.088 C60.464,79.802 61.741,84.877 61.989,90.5 C62.089,92.753 60.71,98.061 59.894,98.566 C58.823,99.227 54.075,95.904 54.031,94.462 C54.014,93.891 52.668,91.866 51.041,89.962 C46.845,85.054 46.922,80.628 51.25,77.989 Z M116,50.346 C116,51.087 115.297,53.102 114.438,54.824 C112.579,58.549 113.048,59.567 118.845,64.387 C124.986,69.494 127.05,69.028 128.336,62.244 C128.885,59.344 128.58,58.743 125.553,56.759 C123.684,55.533 121.419,53.286 120.52,51.765 C118.822,48.89 116,48.004 116,50.346 Z"/>
</svg>

