<svg xmlns="http://www.w3.org/2000/svg" width="300" height="300" viewBox="0 0 300 300" version="1.1">
  <defs/>
  <path d="M153.412,27.882 C167.562,21.188 177.959,26.813 179.514,42.005 C180.097,47.695 179.877,49.109 177.752,53.3 C176.417,55.935 172.249,61.445 168.492,65.545 C162.715,71.849 161.164,73 158.452,73 C156.688,73 154.678,73.683 153.985,74.518 C153.292,75.354 151.099,76.791 149.112,77.714 C147.126,78.636 143.818,80.484 141.762,81.82 C138.721,83.797 138.134,84.685 138.611,86.586 C139.046,88.32 138.269,90.055 135.599,93.314 C133.619,95.73 132,98.386 132,99.218 C132,100.05 131.058,101.927 129.908,103.39 C127.052,107.021 121.757,117.77 122.188,119.063 C122.383,119.648 124.076,119.018 126.019,117.636 C146.842,102.823 160.456,94.744 167.575,92.974 C172.498,91.75 180,92.275 180,93.844 C180,94.259 181.468,95.129 183.262,95.778 C186.405,96.914 199,110.004 199,112.134 C199,112.684 200.125,114.608 201.5,116.411 C203.132,118.55 204,120.981 204,123.41 C204,125.457 204.477,128.023 205.06,129.112 C206.749,132.267 206.323,160.149 204.534,163.598 C203.727,165.152 203.302,167.355 203.588,168.494 C203.874,169.633 203.6,172.576 202.979,175.033 C202.358,177.49 201.461,181.3 200.986,183.5 C200.51,185.7 199.399,189.975 198.517,193 C197.499,196.495 197.133,200.14 197.514,203 C198.082,207.267 203.294,224.516 205.139,228.236 C205.613,229.191 205.998,231.216 205.995,232.736 C205.992,234.256 206.628,237.525 207.407,240 C209.513,246.692 211,253.666 211,256.857 C211,259.051 210.233,260.098 207.577,261.529 C202.944,264.024 201.44,262.605 200.571,254.922 C200.195,251.597 199.012,245.458 197.943,241.279 C196.875,237.099 196,232.492 196,231.04 C196,229.588 195.582,227.972 195.071,227.45 C194.561,226.927 193.998,224.925 193.821,223 C193.485,219.34 191.36,218.241 189.953,221 C188.958,222.953 184.47,236.595 181.893,245.5 C180.779,249.35 178.772,254.757 177.434,257.516 C176.095,260.275 175,263.04 175,263.662 C175,265.15 168.709,270.64 166.028,271.491 C162.714,272.543 157.319,268.65 143.865,255.5 C137.112,248.9 130.33,242.959 128.794,242.298 C125.82,241.019 125.239,239.161 127.2,237.2 C128.972,235.428 132.167,235.777 135,238.054 C136.375,239.159 139.975,241.717 143,243.738 C146.025,245.76 151.841,250.246 155.925,253.707 C163.697,260.295 165.712,261.153 166.595,258.25 C167.11,256.556 168.511,253.181 170.847,248 C171.467,246.625 172.629,243.025 173.43,240 C174.23,236.975 176.025,231.8 177.419,228.5 C178.812,225.2 179.963,221.75 179.976,220.833 C179.989,219.916 180.936,216.991 182.079,214.333 C184.774,208.071 185.051,201.818 182.747,199.272 C181.786,198.211 181,196.768 181,196.066 C181,195.363 179.988,193.494 178.75,191.911 C177.512,190.328 175.453,187.676 174.174,186.016 C172.895,184.357 171.112,183 170.212,183 C169.312,183 166.759,184.747 164.538,186.882 C162.317,189.017 158.25,191.993 155.5,193.495 C152.75,194.998 150.275,196.516 150,196.869 C149.187,197.915 136.826,204 135.515,204 C134.852,204 133.453,204.948 132.405,206.106 C130.217,208.526 123.812,212 121.54,212 C120.693,212 120,212.45 120,213 C120,213.55 118.434,214 116.52,214 C114.606,214 111.232,214.723 109.022,215.608 C104.011,217.613 102.46,217.049 101.634,212.922 C100.78,208.65 102.868,205.529 107.633,203.956 C113.852,201.904 117.842,199.024 121.047,194.276 C124.632,188.963 124.844,183.762 121.5,183.151 C116.211,182.183 115.309,176.163 119.676,170.973 C121.91,168.318 122.158,167.482 121.176,165.91 C120.529,164.874 120,163.424 120,162.688 C120,160.584 115.841,157.25 112,156.274 C109.119,155.542 108.442,154.864 108.173,152.442 C107.522,146.584 106.933,146.869 97.068,157.814 C92.507,162.874 92.068,163.114 87.897,162.814 C81.647,162.366 81.819,160.341 88.7,153.361 C94.862,147.111 97.218,144.31 98.293,141.956 C98.659,141.155 100.089,138.7 101.472,136.5 C102.855,134.3 104.247,131.825 104.565,131 C104.884,130.175 105.555,128.825 106.057,128 C106.56,127.175 108.56,123.125 110.503,119 C112.445,114.875 114.477,110.719 115.017,109.764 C115.558,108.809 116,107.504 116,106.865 C116,106.225 118.002,101.607 120.449,96.601 C122.896,91.595 125.161,85.842 125.482,83.815 C125.903,81.157 127.43,78.789 130.963,75.315 C136.234,70.133 136.621,68.599 136.159,54.75 C135.977,49.317 135.096,48.959 130.644,52.505 C124.407,57.475 124.307,57.657 124.766,63.248 C125.12,67.566 124.803,68.999 122.983,71.304 C121.549,73.121 120.018,74.002 118.635,73.804 C116.716,73.531 116.534,72.974 116.837,68.302 C117.067,64.763 116.622,62.05 115.444,59.802 C112.361,53.917 112,53.05 112,51.531 C112,50.708 110.014,47.962 107.586,45.428 C102.373,39.988 101.02,36.189 103.619,34.289 C107.256,31.63 110.641,32.713 115.195,37.992 C117.563,40.738 119.745,43.998 120.044,45.237 C120.964,49.047 123.795,48.473 129.418,43.335 C135.288,37.973 144.159,32.259 153.412,27.882 Z M163,106.442 C161.075,107.158 156.724,109.376 153.332,111.372 C149.939,113.367 146.93,115 146.645,115 C145.891,115 132.845,124.012 131.161,125.696 C129.923,126.934 130.017,127.324 131.866,128.619 C133.04,129.441 134,130.777 134,131.588 C134,134.135 136.792,134.279 141.544,131.979 C144.872,130.367 147.139,129.92 149.814,130.346 C153.993,131.011 158.012,134.93 157.978,138.306 C157.946,141.523 154.761,148.02 149.044,156.53 C146.27,160.66 144,164.235 144,164.475 C144,164.715 142.875,166.569 141.5,168.595 C140.125,170.621 138.997,173.454 138.994,174.89 C138.988,177.535 138.483,178.711 133.68,187.285 C132.206,189.917 131,192.505 131,193.035 C131,194.969 134.645,193.92 139.655,190.546 C142.476,188.647 146.07,186.773 147.642,186.384 C150.603,185.65 161.211,177.645 161.88,175.639 C162.09,175.013 162.844,173.825 163.557,173 C164.269,172.175 164.998,169.7 165.176,167.5 C165.473,163.834 165.761,163.475 168.623,163.196 C171.236,162.942 172.257,163.537 174.873,166.84 C176.593,169.011 178,171.131 178,171.55 C178,171.968 179.037,173.704 180.305,175.406 C181.573,177.108 183.842,180.637 185.347,183.25 C186.853,185.863 188.732,188 189.523,188 C191.105,188 192.566,183.725 191.548,182.078 C191.196,181.508 191.354,180.207 191.9,179.187 C193.993,175.277 196.171,157.149 196.189,143.5 L196.207,129.5 L192.69,122.402 C188.332,113.606 183.025,108.832 175.146,106.621 C168.397,104.727 167.642,104.716 163,106.442 Z M67.397,161.258 C68.75,158.508 72,158.238 72,160.876 C72,161.907 70.895,165.25 69.544,168.305 C68.193,171.36 66.791,176.253 66.428,179.179 C65.618,185.718 59.583,195.944 51.633,204.25 C43.503,212.744 38.057,211.895 39.367,202.337 C40.136,196.727 41.422,195 44.829,195 C47.377,195 53.937,188.856 53.981,186.43 C53.991,185.842 55.35,183.848 57,182 C58.65,180.152 60,177.867 60,176.921 C60,175.976 61.416,172.57 63.147,169.352 C64.877,166.133 66.79,162.491 67.397,161.258 Z M20.634,135.633 C24.428,133.577 25.352,133.627 27.5,136 C28.495,137.1 30.253,137.998 31.405,137.995 C35.388,137.986 43.419,141.512 46.576,144.656 C51.162,149.223 51.826,153.544 50.242,168.5 C49.717,173.456 49.094,175.5 48.109,175.5 C45.699,175.5 44.342,172.284 45.78,169.98 C46.682,168.536 46.752,167.405 46.023,166.043 C45.46,164.992 45,162.631 45,160.798 C45,158.931 43.949,155.918 42.612,153.95 C40.119,150.281 36.579,148.924 25.832,147.514 C20.482,146.813 19.131,145.581 18.336,140.682 C17.834,137.591 18.101,137.005 20.634,135.633 Z M157.823,41.773 C157.506,46.153 156.359,49.803 153.577,55.284 C151.48,59.415 149.93,63.282 150.132,63.879 C150.362,64.555 152.382,64.041 155.5,62.513 C158.25,61.165 161.041,60.048 161.702,60.031 C162.363,60.014 164.388,57.862 166.202,55.25 C168.904,51.359 169.5,49.557 169.5,45.286 C169.5,39.032 167.916,37.067 162.266,36.309 L158.257,35.771 Z M51.25,77.234 C54.954,75.011 55.701,75.241 59.487,79.777 C61.622,82.334 62.072,83.652 61.535,85.777 C61.157,87.275 60.9,90.554 60.963,93.065 C61.041,96.13 60.464,98.431 59.209,100.065 C58.181,101.404 57.063,103.261 56.724,104.192 C56.385,105.122 54.935,106.652 53.502,107.59 C49.546,110.183 48.662,108.395 50.469,101.459 C52.475,93.757 52.402,91.781 50,88.727 C48.865,87.284 48,84.67 48,82.684 C48,79.802 48.574,78.84 51.25,77.234 Z M120,132.5 C119.315,133.325 118.086,134 117.269,134 C115.777,134 107.031,142.792 107.011,144.311 C107.005,144.757 108.99,144.824 111.423,144.459 C114.789,143.955 116.582,144.23 118.922,145.613 C121.642,147.22 122.17,147.258 123.483,145.946 C124.641,144.788 124.829,142.979 124.339,137.73 C123.699,130.878 122.523,129.46 120,132.5 Z M140.149,144.75 C138.826,145.868 137.973,147.946 137.789,150.5 C137.545,153.878 137.799,154.5 139.419,154.5 C141.566,154.5 146.395,146.471 145.558,144.292 C144.867,142.49 142.598,142.682 140.149,144.75 Z M44,190 C44,189.45 44.45,189 45,189 C45.55,189 46,189.45 46,190 C46,190.55 45.55,191 45,191 C44.45,191 44,190.55 44,190 Z"/>
</svg>

