<svg xmlns="http://www.w3.org/2000/svg" width="300" height="300" viewBox="0 0 300 300" version="1.1">
  <defs/>
  <path d="M142,25.287 C146.981,23.746 149.693,23.79 152.928,25.463 C157.484,27.819 158.361,32.703 155,37 C153.924,38.375 153.034,40.014 153.022,40.643 C153.01,41.272 152.325,42.045 151.5,42.362 C150.675,42.678 150,43.669 150,44.564 C150,46.392 146.292,52.075 144.3,53.3 C142.682,54.295 142.58,58 144.171,58 C144.815,58 146.165,58.745 147.171,59.655 C152.019,64.042 145.783,71 137.002,71 C132.053,71 131.85,71.114 130.31,74.75 C129.436,76.813 128.35,81.65 127.896,85.5 C127.441,89.35 126.767,93.788 126.397,95.361 C125.775,98.006 125.9,98.166 128.049,97.485 C129.327,97.079 131.802,95.232 133.548,93.38 C135.295,91.529 138.284,89.361 140.191,88.565 C142.099,87.768 144.241,86.415 144.952,85.558 C145.663,84.701 146.639,84 147.12,84 C147.601,84 150.745,81.975 154.107,79.5 C157.469,77.025 161.195,75 162.388,75 C165.118,75 169,77.661 169,79.532 C169,81.727 162.43,87.229 156.501,90 C151.102,92.523 140.122,101.057 132.588,108.586 C130.34,110.833 127.331,113.386 125.901,114.26 C124.159,115.324 122.962,117.274 122.269,120.174 C117.598,139.725 114.479,150.169 110.647,159.091 C108.641,163.761 107,168.069 107,168.664 C107,170.586 110.931,178.698 112.488,179.99 C113.32,180.68 114,182.063 114,183.063 C114,184.064 114.45,185.16 115,185.5 C115.55,185.84 116,186.922 116,187.905 C116,188.888 116.62,190.999 117.377,192.596 C118.135,194.193 119.327,199.678 120.027,204.784 C120.727,209.89 121.705,214.318 122.2,214.624 C126.413,217.228 146.113,198.228 143.531,194.05 C142.654,192.63 137.422,192.719 135.061,194.194 C131.955,196.134 128,193.807 128,190.042 C128,187.539 128.675,186.696 132.068,184.965 C137.845,182.018 145.27,181.292 148.433,183.364 C153.058,186.395 153.325,185.83 152.742,174.25 C152.445,168.338 151.883,162.713 151.494,161.75 C150.22,158.599 150.151,158.635 131.879,172 C124.222,177.601 122.041,179.21 120.621,178.7 C120.041,178.492 119.588,177.929 118.939,177.139 C117.873,175.841 117,174.481 117,174.118 C117,172.415 132.216,159.486 137.5,156.699 C139.15,155.829 141.7,154.078 143.166,152.809 C144.632,151.539 146.623,150.022 147.592,149.438 C149.147,148.499 149.331,146.821 149.168,135.047 C149.021,124.371 148.558,120.474 146.841,115.471 C144.84,109.641 144.799,108.966 146.231,105.362 C147.995,100.921 150.58,100.02 153.856,102.703 C155.691,104.205 156.134,105.833 156.558,112.62 C156.837,117.086 157.501,122.258 158.033,124.114 C158.565,125.969 159,130.091 159,133.275 C159,137.449 159.411,139.22 160.473,139.628 C161.305,139.947 164.81,138.191 168.536,135.586 C188.532,121.608 205.41,124.854 214.88,144.5 C220.021,155.164 220.33,156.57 219.647,166.193 C218.932,176.266 215.914,188.453 212.919,193.365 C211.868,195.089 211.006,197.232 211.004,198.128 C211,199.69 218.104,208.622 226.736,217.908 C233.239,224.905 236.167,231.592 235.804,238.621 C235.528,243.963 235.281,244.531 233.101,244.839 C231.781,245.026 229.644,244.612 228.351,243.92 C226.37,242.86 226,241.884 226,237.72 C226,233.407 225.469,232.124 221.825,227.639 C215.642,220.029 205.727,210 204.386,210 C203.741,210 202.985,210.598 202.704,211.329 C202.424,212.06 200.463,215.276 198.347,218.476 C196.231,221.677 193.6,225.746 192.5,227.52 C188.005,234.766 181.787,240 177.671,240 C176.113,240 169.219,231.444 166.592,226.25 C163.824,220.775 162,222.012 162,229.365 C162,239.885 156.738,243.793 150.532,237.883 C148.682,236.121 148.661,235.843 150.177,233.254 C152.012,230.121 154,218.577 154,211.058 C154,206.721 153.724,206 152.063,206 C150.966,206 148.036,208.382 145.313,211.487 C142.666,214.505 140.115,216.98 139.644,216.987 C139.173,216.994 137.083,218.35 135,220 C129.503,224.353 122.729,224.047 120.948,219.364 C120.272,217.586 119.287,217 116.974,217 C114.409,217 113.657,216.424 112.449,213.532 C111.652,211.625 111,208.438 111,206.45 C111,201.281 106.235,187.947 103.335,185 L100.875,182.5 L98.443,185.5 C97.105,187.15 96.008,189.056 96.005,189.736 C95.998,191.37 89.852,202.901 86.014,208.48 C82.829,213.109 72.151,222 69.776,222 C68.081,222 66,220.016 66,218.4 C66,217.74 68.925,214.376 72.5,210.924 C76.075,207.473 79,204.222 79,203.7 C79,203.179 80.687,200.219 82.75,197.122 C89.135,187.537 93.425,177.213 93.991,170.076 C94.456,164.2 94.756,163.511 97.5,162.005 C100.804,160.191 104.534,153.606 105.587,147.728 C105.959,145.653 106.654,143.714 107.131,143.419 C107.609,143.124 108,141.645 108,140.132 C108,138.62 108.661,136.509 109.468,135.441 C110.276,134.374 110.951,132.458 110.968,131.184 C110.986,129.911 111.467,127.995 112.038,126.928 C114.633,122.081 117.976,97.373 118.185,81.5 C118.377,66.977 118.183,64.91 116.083,59.108 C112.14,48.217 113.437,39.783 119,40.135 C122.308,40.345 123.054,39.856 124.742,36.369 C126.55,32.635 134.271,27.677 142,25.287 Z M183.354,139.465 C182.204,140.27 181.001,140.668 180.681,140.348 C180.362,140.028 177.94,141.063 175.3,142.648 C172.66,144.233 169.375,146.11 168,146.821 C165.914,147.899 164.513,148.506 163.578,149.536 C161.524,151.799 161.721,156.105 161.847,171.929 C161.938,183.465 162.394,193.938 162.859,195.202 C163.325,196.466 163.499,199.179 163.246,201.231 C162.879,204.202 163.418,205.915 165.893,209.652 C167.602,212.232 169,214.782 169,215.318 C169,217.66 176.213,227 178.022,227 C180.036,227 183.039,223.312 190.595,211.557 C194.122,206.071 195.785,203.499 195.402,201.28 C195.06,199.303 193.096,197.607 189.38,194.38 C179.789,186.052 170.314,176.042 168.526,172.349 C166.115,167.369 166.67,165.191 171.824,159.409 C174.477,156.432 177.633,152.023 178.837,149.611 C181.434,144.411 184.382,143.205 188,145.862 C191.954,148.765 191.733,152.23 187.277,157.205 C185.16,159.567 182.588,163.126 181.56,165.114 L179.691,168.729 L182.346,172.114 C183.806,173.976 188.565,179.049 192.922,183.387 C201.046,191.477 204,192.636 204,187.731 C204,186.449 204.507,184.893 205.127,184.273 C207.264,182.136 209.888,166.41 209.053,160.747 C207.98,153.469 206.896,151.211 201.731,145.485 C195.692,138.792 187.941,136.252 183.354,139.465 Z M25.7,147.148 C27.903,145.915 42.023,153.05 45.458,157.132 C49.849,162.35 49.787,176.178 45.333,185.2 C44.6,186.686 44,189.978 44,192.516 C44,195.055 43.549,197.975 42.997,199.005 C42.327,200.257 42.327,201.084 42.997,201.498 C43.549,201.839 44,203.006 44,204.09 C44,205.175 44.698,206.331 45.551,206.658 C48.523,207.799 53.119,201.753 60.533,186.951 C65.509,177.014 68.537,178.786 65.585,189.907 C64.622,193.533 63.197,197.21 62.417,198.079 C61.638,198.947 61,200.958 61,202.547 C61,204.689 59.65,206.804 55.784,210.719 C51.392,215.165 49.995,216 46.939,216 C44.732,216 42.68,215.304 41.703,214.224 C39.59,211.889 38.441,204.483 39.76,201.691 C41.01,199.042 43.347,181.076 43.166,175.5 C43.095,173.3 42.405,169.7 41.633,167.5 C40.427,164.067 39.332,163.054 33.907,160.353 C30.43,158.622 26.779,156.21 25.793,154.992 C23.53,152.198 23.485,148.388 25.7,147.148 Z M47.39,83.519 C50.21,80.699 51.312,80.516 55.881,82.108 C63.55,84.782 64.935,99.289 57.881,103.063 C54.595,104.822 53,103.507 53,99.039 C53,95.369 52.67,94.861 49.25,93.256 C44.424,90.991 43.701,87.208 47.39,83.519 Z M138.621,36.804 C138.348,37.246 134.947,39.152 131.062,41.04 C125.487,43.751 124,44.938 124,46.678 C124,47.89 124.45,49.16 125,49.5 C125.55,49.84 126,52.116 126,54.559 C126,60.122 127.71,60.371 131.646,55.382 C133.216,53.392 136.088,49.905 138.029,47.632 C142.35,42.573 144.46,38.553 143.559,37.095 C142.774,35.825 139.351,35.623 138.621,36.804 Z"/>
</svg>

