<svg xmlns="http://www.w3.org/2000/svg" width="300" height="300" viewBox="0 0 300 300" version="1.1">
  <defs/>
  <path d="M81.25,61.584 C83.191,60.735 84.171,60.269 85.168,60.23 C86.361,60.183 87.579,60.748 90.5,62 C93.066,63.1 96.652,64 98.468,64 C103.257,64 105,67.176 105,75.906 C105,79.743 104.55,83.16 104,83.5 C103.45,83.84 103,85.246 103,86.625 C103,89.697 101.587,92.487 97.853,96.785 C96.284,98.591 94.981,100.841 94.957,101.785 C94.909,103.683 84.371,111 81.684,111 C79.775,111 79.437,112.534 81.118,113.573 C81.885,114.047 82.02,116.73 81.548,122.137 C80.75,131.289 81.648,132.404 87.127,129.064 C93.055,125.45 100.614,126.71 105.683,132.155 C110.671,137.515 113.988,150.9 111.169,154.297 C110.572,155.016 110.322,156.516 110.614,157.631 C111.42,160.713 108.414,170.996 103.857,180.75 C97.231,194.929 96,198.034 96,200.56 C96,203.549 86.981,211 83.362,211 C79.073,211 73.177,203.311 64.443,186.328 C61.38,180.373 58.452,175.072 57.937,174.55 C56.381,172.972 56.856,168.269 58.641,167.584 C60.713,166.789 64.646,169.309 65.492,171.973 C65.845,173.088 66.518,174 66.986,174 C67.454,174 69.988,177.643 72.618,182.096 C75.247,186.549 79.105,192.061 81.19,194.346 C84.852,198.358 85.033,198.434 86.491,196.559 C87.321,195.491 88,194.042 88,193.339 C88,192.12 91.999,182.456 94.038,178.75 C97.68,172.127 100,166.203 100,163.525 C100,162.201 100.45,160.84 101,160.5 C101.55,160.16 102,156.463 102,152.285 C102,145.683 101.666,144.251 99.449,141.344 C95.561,136.247 91.758,136.758 86,143.153 C72.196,158.482 71.368,159.017 68.417,154.514 C66.916,152.223 66.915,151.657 68.403,147.264 C69.291,144.644 70.72,137.325 71.577,131 C74.008,113.074 74.042,112.938 76.408,111.86 C78.087,111.095 78.617,109.919 78.742,106.685 C78.908,102.392 78.97,102.312 86.844,96.281 C88.485,95.025 90.193,92.423 90.784,90.281 C91.358,88.202 92.267,85.097 92.806,83.382 C93.697,80.544 93.445,79.892 90.008,76.132 C87.235,73.098 85.456,72 83.316,72 C79.521,72 78,70.37 78,66.303 C78,63.541 78.528,62.775 81.25,61.584 Z M163.098,21.783 C167.289,18.435 168.868,18.609 171.246,22.681 L173.1,25.856 L170.3,28.951 C167.539,32.003 160.071,36.578 152.75,39.703 C148.333,41.588 148.153,42.209 151.5,44 C152.875,44.736 154.07,45.824 154.157,46.419 C154.81,50.932 155.049,53.182 155.384,58 C155.595,61.025 155.82,64.737 155.884,66.25 C156.043,70.027 159.225,69.897 162,66 C164.549,62.42 166.093,62.27 170.073,65.212 C172.615,67.092 172.971,67.882 172.434,70.462 C172.087,72.133 169.652,75.75 167.023,78.5 C161.291,84.495 156.637,93.237 158.294,94.894 C158.902,95.502 160.125,96 161.011,96 C162.779,96 167,92.473 167,90.996 C167,90.487 167.9,89.589 169,89 C171.669,87.572 174.775,89.256 175.61,92.584 C176.402,95.738 173.687,98.84 166.57,102.915 C158.189,107.713 158.157,107.76 156.574,117.5 C155.769,122.45 154.808,127.737 154.439,129.25 C153.844,131.683 154.049,132 156.209,132 C157.552,132 159.706,130.877 160.995,129.505 C162.285,128.133 165.738,125.358 168.67,123.339 C171.601,121.32 174,119.303 174,118.857 C174,118.411 175.142,117.298 176.537,116.384 C178.961,114.796 179.185,114.825 181.537,117.035 C182.892,118.307 184,120.254 184,121.36 C184,123.381 180.386,128 178.804,128 C177.419,128 169.86,133.147 164.519,137.726 C161.779,140.075 157.729,142.848 155.519,143.889 C153.308,144.929 150.643,146.73 149.595,147.89 C148.547,149.051 146.972,150.016 146.095,150.035 C145.218,150.055 141.575,151.625 138,153.525 C123.349,161.313 121.168,162.278 119.593,161.674 C114.053,159.548 118.468,153.288 129.344,147.849 C137.42,143.809 147,138.055 147,137.242 C147,137.01 146.019,136.026 144.819,135.054 C142.909,133.508 142.779,132.929 143.772,130.394 C144.396,128.802 145.208,124.8 145.576,121.5 C145.945,118.2 146.751,114.871 147.368,114.103 C149.227,111.786 148.584,77.991 146.519,69.5 C144.585,61.549 144.273,50.227 145.904,47.18 C148.728,41.903 146.062,40.394 141.176,44.505 C139.539,45.883 136.826,47.285 135.148,47.62 C132.489,48.152 132.015,47.907 131.465,45.717 C129.941,39.644 130.666,38.914 145.598,31.5 C153.352,27.65 161.227,23.277 163.098,21.783 Z M182.166,145.968 C184.106,142.778 188.217,141.976 192.066,144.035 C194.61,145.397 194.506,147.067 191.51,152.98 C189.112,157.713 183.991,162.412 177.097,166.203 C174.689,167.528 174,168.582 174,170.94 C174,173.5 174.585,174.218 177.75,175.54 C179.813,176.401 182.625,178.109 184,179.335 C185.375,180.561 188.75,183.111 191.5,185.002 C194.25,186.893 197.372,189.241 198.439,190.22 C199.505,191.199 200.826,192 201.374,192 C201.923,192 204.506,193.8 207.115,196 C209.724,198.2 212.398,200 213.057,200 C215.887,200 245,226.67 245,229.262 C245,230.25 256.014,242.922 260.25,246.808 C261.762,248.195 263,249.908 263,250.614 C263,252.335 256.779,257 254.484,257 C252.324,257 249,254.225 249,252.422 C249,251.724 247.938,249.881 246.641,248.327 C245.343,246.772 243.431,243.979 242.391,242.119 C238.99,236.04 238.574,235.541 231.5,229.083 C227.65,225.568 223.6,221.856 222.5,220.835 C220.744,219.206 203.91,206.047 194.565,199 C192.742,197.625 188.489,194.363 185.114,191.75 C181.739,189.137 178.549,187 178.024,187 C177.5,187 173.792,184.961 169.785,182.469 C161.09,177.062 160.304,176.608 156.735,174.939 C154.29,173.795 151,169.161 151,166.859 C151,165.564 158.046,161.521 162.611,160.196 C167.706,158.717 179.735,149.964 182.166,145.968 Z M139.2,158.2 C140.788,156.612 142.938,156.675 143.572,158.328 C144.066,159.613 142.989,166.735 140.901,176 C140.344,178.475 139.455,184.529 138.927,189.453 C138.399,194.378 137.525,200.049 136.985,202.055 C136.445,204.062 136.051,208.133 136.111,211.102 C136.17,214.071 135.894,218.188 135.498,220.25 C134.941,223.148 135.097,224 136.185,224 C137.472,224 150,210.905 150,209.56 C150,209.239 151.8,206.34 154,203.117 C156.2,199.894 158,196.749 158,196.129 C158,195.508 158.93,194.07 160.067,192.933 C161.701,191.299 162.431,191.113 163.555,192.046 C164.769,193.053 164.686,193.633 162.988,196.017 C161.895,197.552 161,199.571 161,200.503 C161,202.076 159.064,207.164 156.916,211.236 C156.412,212.191 156,213.57 156,214.301 C156,215.031 153.407,218.75 150.239,222.564 C142.826,231.488 139,236.647 139,237.722 C139,239.052 130.299,246 128.633,246 C126.537,246 124,240.415 124,235.802 C124,233.662 124.641,229.119 125.425,225.706 C127.728,215.678 129.139,205.664 129.247,198.598 C129.302,194.969 129.661,192 130.045,192 C130.429,192 131.03,188.512 131.381,184.25 C132.39,171.991 133.102,168.161 134.601,166.916 C135.371,166.277 136,164.91 136,163.878 C136,162.845 136.45,162 137,162 C137.55,162 138,161.415 138,160.7 C138,159.985 138.54,158.86 139.2,158.2 Z M42.024,182.633 C43.745,181.185 45.542,180 46.018,180 C47.548,180 48.26,182.14 47.113,183.287 C46.501,183.899 46,185.633 46,187.141 C46,188.649 45.532,190.171 44.959,190.525 C44.387,190.879 44.17,191.96 44.477,192.927 C46.036,197.838 31.06,213.789 27.185,211.345 C23.921,209.286 22.721,196.306 25.576,193.937 C26.866,192.867 27.298,192.864 27.954,193.925 C28.394,194.638 28.533,196.072 28.261,197.111 C27.953,198.286 28.283,198.994 29.133,198.985 C31.518,198.958 32.665,197.653 35.818,191.383 C37.51,188.019 40.302,184.082 42.024,182.633 Z M13.667,143.667 C15.136,142.198 17.705,143.213 21.75,146.862 C24.087,148.971 26,151.072 26,151.532 C26,151.992 26.956,154.343 28.124,156.757 C29.903,160.431 30.174,162.425 29.793,169.017 C29.528,173.596 28.762,177.582 27.961,178.547 C26.694,180.074 26.443,180.03 24.792,177.992 C23.807,176.774 22.993,174.141 22.985,172.139 C22.96,166.183 20.667,160.272 16.716,155.974 C13.789,152.791 13,151.125 13,148.133 C13,146.043 13.3,144.033 13.667,143.667 Z M32.225,88.647 C32.926,88.352 35.297,88.198 37.493,88.305 C40.843,88.469 41.722,88.982 42.961,91.5 C45.961,97.597 43.896,108.815 39.396,110.865 C35.815,112.497 35,111.589 35,105.967 C35,101.54 34.708,100.9 32.063,99.533 C30.448,98.698 28.876,97.609 28.57,97.113 C27.81,95.883 30.647,89.311 32.225,88.647 Z"/>
</svg>

