<svg xmlns="http://www.w3.org/2000/svg" width="300" height="300" viewBox="0 0 300 300" version="1.1">
  <defs/>
  <path d="M125.2,30.2 C127.029,28.371 129.7,28.761 131.961,31.189 C134.256,33.652 134.8,41.636 132.914,45.161 C132.029,46.814 132.229,47.565 133.987,49.203 L136.147,51.215 L133.947,53.556 C132.396,55.208 131.899,56.692 132.263,58.593 C132.546,60.075 132.207,62.686 131.509,64.394 C128.633,71.431 128.664,71.747 132.385,73.512 C137.163,75.78 138.305,79.412 136.909,87.894 C136.31,91.527 135.411,95.281 134.91,96.236 C134.41,97.191 134,98.852 134,99.927 C134,101.002 133.55,102.16 133,102.5 C132.45,102.84 132,104.661 132,106.547 L132,109.976 L137.294,109.738 C144.275,109.424 148.006,111.705 147.985,116.273 C147.97,119.594 146.034,125.99 143.282,131.808 C140.752,137.157 142.5,137.704 152.334,134.637 C170.074,129.106 178.988,132.148 185.028,145.795 C187.182,150.661 187.237,154.115 185.423,170.574 L184.754,176.649 L190.377,182.951 C193.47,186.417 196,189.871 196,190.626 C196,191.382 196.352,192 196.782,192 C197.674,192 202.719,201.845 206.006,210 C207.226,213.025 208.848,216.978 209.612,218.784 C210.375,220.59 211,223.403 211,225.034 C211,226.665 211.45,228 212,228 C212.55,228 213,229.791 213,231.98 C213,234.169 213.637,237.656 214.415,239.73 C215.193,241.803 216.095,249.135 216.419,256.022 C216.908,266.424 216.743,268.922 215.447,270.772 C213.726,273.229 210.806,273.688 209.225,271.75 C208.664,271.063 207.971,266.675 207.685,262 C206.919,249.475 205.3,237.428 204.075,235.141 C203.484,234.036 202.993,232.089 202.985,230.816 C202.971,228.492 200.798,221.485 199.085,218.237 C198.581,217.282 197.4,214.7 196.461,212.5 C192.068,202.208 185.527,190.139 183.639,188.843 C181.837,187.605 180,189.213 180,192.026 C180,193.573 179.367,196.112 178.593,197.669 C177.818,199.226 176.755,201.625 176.228,203 C173.767,209.433 165.573,226.414 159.935,236.766 C157.448,241.334 152.367,245 148.525,245 C146.059,245 133.071,233.173 129.514,227.69 C127.849,225.123 127.829,224.743 129.28,223.291 C131.535,221.036 135.09,222.725 142.387,229.519 C145.625,232.534 148.63,235 149.066,235 C150.492,235 153,231.895 153,230.129 C153,229.178 153.406,227.972 153.902,227.45 C155.182,226.1 162,212.773 162,211.618 C162,211.09 162.582,209.947 163.293,209.079 C164.004,208.21 165.157,205.7 165.854,203.5 C166.99,199.916 168.691,195.331 171.048,189.5 C171.492,188.4 172.126,185.855 172.456,183.844 C172.971,180.703 172.681,179.894 170.393,178.094 C168.928,176.942 166.71,176 165.463,176 C163.819,176 162.894,175.134 162.098,172.851 C161.494,171.119 161,169.319 161,168.851 C161,167.625 168.139,167.804 171.927,169.124 C176.01,170.548 176.724,169.821 178.21,162.732 C179.251,157.773 179.189,156.866 177.697,155.217 C176.764,154.186 176,151.963 176,150.277 C176,148.247 174.98,146.12 172.98,143.979 C170.041,140.832 169.801,140.764 163.964,141.425 C156.631,142.254 137.781,148.329 133,151.403 C123.33,157.621 120.033,159.837 114.747,163.67 C108.286,168.356 103.247,169.997 101.89,167.857 C101.418,167.111 101.024,165.005 101.015,163.177 C100.991,157.954 97.922,159.358 96.41,165.284 C95.739,167.914 94.741,170.613 94.191,171.283 C93.641,171.952 92.433,174.826 91.507,177.668 L89.823,182.837 L94.768,187.679 C97.488,190.342 100.058,193.641 100.479,195.01 C101.59,198.621 102.956,200 105.422,200 C107.903,200 110,201.739 110,203.796 C110,204.563 109.069,206.498 107.932,208.096 C103.625,214.144 97.453,210.392 93.164,199.119 C90.669,192.56 87.419,189.473 86.412,192.707 C86.105,193.693 85.437,195.281 84.927,196.236 C84.417,197.191 84,199.049 84,200.364 C84,201.679 83.325,203.315 82.5,204 C81.675,204.685 81,206.096 81,207.136 C81,208.176 80.616,209.809 80.147,210.764 C79.678,211.719 78.537,214.086 77.611,216.024 C75.358,220.742 70.33,226 68.072,226 C67.067,226 65.695,225.338 65.023,224.528 C64.041,223.344 64.221,222.379 65.944,219.591 L68.086,216.125 L59.994,208.372 C55.543,204.107 50.349,199.562 48.451,198.273 C45.892,196.534 45,195.202 45,193.119 C45,189.451 48.154,186.571 51.305,187.362 C53.377,187.882 60.021,194.57 68.248,204.417 C71.101,207.833 74,207.416 74,203.59 C74,202.231 74.45,200.84 75,200.5 C75.55,200.16 76,198.585 76,197 C76,195.415 76.45,193.84 77,193.5 C77.55,193.16 78.014,191.671 78.032,190.191 C78.049,188.711 78.724,186.626 79.532,185.559 C80.339,184.491 81,182.982 81,182.204 C81,181.427 82.125,178.551 83.5,175.813 C84.875,173.076 86,170.192 86,169.404 C86,168.617 86.391,167.191 86.869,166.236 C87.347,165.281 88.922,162.141 90.369,159.257 C91.816,156.374 93,153.083 93,151.944 C93,150.806 94.182,147.315 95.628,144.187 C98.979,136.935 99.443,135.713 101.492,128.752 C102.423,125.59 103.593,122.751 104.092,122.443 C104.592,122.134 105,120.552 105,118.927 C105,117.302 105.394,115.191 105.876,114.236 C106.357,113.281 107.53,109.8 108.482,106.5 C109.434,103.2 110.588,99.525 111.046,98.334 C112.426,94.752 109.293,94.603 104,98 C98.925,101.256 96.539,101.168 95.63,97.691 C94.886,94.847 100.654,88.843 106.926,85.932 C112.816,83.199 117,79.228 117,76.372 C117,75.132 117.369,73.89 117.82,73.612 C118.27,73.333 119.446,69.594 120.432,65.303 C121.418,61.011 122.624,56.719 123.112,55.764 C123.601,54.809 124,48.936 124,42.714 C124,35.247 124.408,30.992 125.2,30.2 Z M129.5,126.072 C127.85,127.127 125.825,127.995 125,128.001 C124.175,128.007 122.211,128.685 120.636,129.506 C116.978,131.414 114.095,131.412 113.362,129.5 C113.045,128.675 112.417,128 111.966,128 C110.861,128 108,133.857 108,136.12 C108,137.754 106.18,142.671 103.897,147.206 C103.424,148.145 102.747,150.732 102.391,152.956 C101.811,156.587 101.956,157 103.813,157 C104.951,157 106.162,156.547 106.505,155.993 C106.847,155.439 108.786,154.147 110.814,153.123 C119.866,148.55 121.389,147.523 125.613,143.143 C130.195,138.392 133.727,131.888 134.222,127.291 C134.576,124.001 133.269,123.664 129.5,126.072 Z M152.221,177.727 C152.925,177.475 154.033,177.689 154.684,178.202 C155.565,178.896 155.327,179.759 153.756,181.565 C150.931,184.815 149.002,190.05 146.411,201.5 C144.947,207.968 140.984,208.848 136.285,203.75 C124.352,190.805 120.528,187 119.452,187 C118.775,187 117.174,186.152 115.893,185.115 C113.897,183.498 113.756,182.999 114.905,181.615 C116.763,179.376 120.026,179.594 126.32,182.378 C129.772,183.905 133.079,186.41 135.56,189.378 C139.891,194.56 141.634,195.094 142.946,191.643 C144.367,187.905 150.815,178.232 152.221,177.727 Z M95.351,54.527 C96.018,52.789 100.56,52.502 104.387,53.957 C105.771,54.483 107.601,56.262 108.454,57.91 C109.306,59.558 111.654,62.51 113.671,64.469 C117.202,67.899 117.268,68.086 115.42,69.484 C114.364,70.283 112.461,70.951 111.19,70.968 C106.577,71.032 94.02,57.997 95.351,54.527 Z M121.989,92.25 C120.899,94.037 119.991,96.625 119.972,98 C119.952,99.375 119.276,101.374 118.468,102.441 C117.661,103.509 117,105.202 117,106.205 C117,107.207 116.604,108.809 116.121,109.764 C115.078,111.823 111.988,121.175 111.995,122.25 C112.005,123.783 114.56,122.933 115.513,121.08 C116.056,120.024 118.188,116.101 120.25,112.363 C122.313,108.624 124,104.853 124,103.983 C124,103.112 124.399,101.972 124.887,101.45 C125.375,100.927 125.975,97.912 126.219,94.75 C126.743,87.987 125.159,87.051 121.989,92.25 Z"/>
</svg>

