<svg xmlns="http://www.w3.org/2000/svg" width="300" height="300" viewBox="0 0 300 300" version="1.1">
  <defs/>
  <path d="M154,66.884 C157.575,65.886 162.3,65.166 164.5,65.284 C168.212,65.484 168.5,65.712 168.5,68.444 C168.5,72.246 165.285,74.156 154,77.059 C141.779,80.202 140.414,81.404 139.605,89.724 C139.242,93.457 139.487,100.992 140.151,106.5 C140.814,112 141.282,118.614 141.191,121.199 C141.099,123.783 141.485,126.182 142.048,126.53 C142.611,126.878 145.199,125.798 147.798,124.13 C165.656,112.67 176,118.358 176,139.636 C176,142.036 175.55,144 175,144 C174.45,144 174,145.52 174,147.378 C174,149.235 173.325,151.315 172.5,152 C170.531,153.634 170.6,156.459 172.685,159.642 C174.311,162.124 174.286,162.277 171.935,164.085 C170.596,165.114 167.925,166.229 166,166.561 C160.79,167.462 153.103,170.024 152.453,171.076 C151.423,172.743 147.101,172.057 146.031,170.057 C144.393,166.997 146.779,163.148 151.949,160.509 C160.882,155.95 166.104,147.98 166.245,138.692 C166.298,135.21 165.979,131.774 165.535,131.057 C164.22,128.93 155.682,130.529 148.73,134.205 L142.5,137.5 L141.332,151 C140.689,158.425 140.127,168.288 140.082,172.918 C140.037,177.548 139.557,184.073 139.016,187.418 C138.475,190.763 137.913,199.062 137.766,205.86 L137.5,218.219 L142.906,217.583 C145.879,217.232 151.729,216.014 155.906,214.876 C170.747,210.83 175.655,210.007 188.5,209.405 C202.718,208.74 208.141,209.763 210.656,213.588 C211.878,215.446 211.764,215.963 209.624,218.272 L207.219,220.867 L201.359,219.323 C193.651,217.291 186.118,217.986 168.5,222.352 C160.8,224.26 152.025,226.367 149,227.035 C145.975,227.703 141.925,229.431 140,230.875 C136.929,233.178 135.376,233.542 127.334,233.844 C118.4,234.179 118.126,234.122 116.466,231.589 C114.261,228.223 115.886,226 120.551,226 C124.352,226 126.744,224.02 127.582,220.18 C127.904,218.706 128.402,216.825 128.688,216 C130.217,211.599 131.379,179.997 131.262,146 C131.111,102.122 130.45,87.002 128.684,86.995 C128.033,86.992 125.362,87.757 122.748,88.693 C117.108,90.715 115.799,89.936 115.62,84.455 C115.489,80.417 115.677,80.252 123.5,77.584 C126.25,76.647 132.775,74.264 138,72.29 C143.225,70.315 150.425,67.883 154,66.884 Z M69.479,80.664 C72.794,77.349 78,79.168 78,83.641 C78,84.874 78.383,86.119 78.851,86.408 C80.338,87.327 80.991,107.062 79.946,119.5 C77.961,143.11 77.415,147.53 76.216,149.684 C75.547,150.886 75,153.029 75,154.448 C75,155.866 74.455,157.901 73.788,158.968 C73.121,160.036 72.784,161.058 73.038,161.24 C73.292,161.422 76.878,163.249 81.008,165.3 C95.269,172.382 101.271,180 92.59,180 C90.681,180 88.839,179.549 88.498,178.997 C87.591,177.53 80.097,174.359 75.65,173.562 C71.482,172.815 68.014,174.78 67.985,177.905 C67.97,179.612 65.585,186.895 64.103,189.763 C63.609,190.718 62.404,193.439 61.425,195.808 C58.876,201.975 52.576,210.038 47.802,213.245 C43.665,216.023 38.653,216.865 37.487,214.978 C37.139,214.416 39.791,211.12 43.379,207.654 C47.964,203.223 50.808,199.395 52.951,194.764 C54.628,191.141 56,187.687 56,187.088 C56,186.49 56.45,186 57,186 C57.55,186 58,185.019 58,183.821 C58,181.676 59.04,177.892 61.524,171 C62.217,169.075 63.311,165.475 63.954,163 C64.597,160.525 65.604,157.15 66.191,155.5 C66.778,153.85 67.627,150.025 68.078,147 C68.529,143.975 69.127,140.15 69.407,138.5 C70.592,131.536 70.718,126 69.692,126 C69.107,126 67.605,126.962 66.354,128.138 C64.367,130.004 63.724,130.123 61.289,129.075 C56.681,127.091 46.063,116.708 45.058,113.201 C44.278,110.481 44.459,109.792 46.294,108.507 C49.411,106.324 56,106.739 56,109.119 C56,111.767 62.846,120.17 66.25,121.7 C68.313,122.627 70,123.748 70,124.192 C70,124.637 70.474,125 71.054,125 C71.762,125 71.966,120.644 71.675,111.75 C71.283,99.749 70.693,94.809 68.527,85.414 C68.006,83.155 68.262,81.881 69.479,80.664 Z M95.29,89.164 C96.522,87.664 101.406,88.262 103.739,90.199 C107.01,92.913 102.864,106.394 97.877,109.256 C92.196,112.516 89.91,111.006 92.616,105.779 C93.691,103.704 94.292,100.297 94.253,96.5 C94.219,93.2 94.686,89.899 95.29,89.164 Z"/>
</svg>

