<svg xmlns="http://www.w3.org/2000/svg" width="300" height="300" viewBox="0 0 300 300" version="1.1">
  <defs/>
  <path d="M149,35 C154.561,31.406 164.91,38.616 164.971,46.128 C165.014,51.428 167.092,52.724 171.34,50.099 C175.579,47.479 176.058,47.487 180.388,50.25 C182.416,51.543 183.43,52.154 183.703,53.004 C183.984,53.876 183.48,55.001 182.487,57.378 C181.476,59.797 180.321,61 179.01,61 C177.93,61 176.309,62.125 175.408,63.5 C174.507,64.875 173.138,66 172.365,66 C171.592,66 169.231,67.092 167.118,68.426 C163.529,70.691 163.229,71.255 162.583,76.971 C162.02,81.942 161.478,83.273 159.695,84.06 C151.356,87.742 149.654,90.804 151.961,97.97 C152.587,99.911 153.259,105.775 153.455,111 C153.652,116.225 154.292,124.775 154.878,130 C155.465,135.225 155.979,144.881 156.022,151.458 C156.065,158.035 156.556,163.965 157.113,164.637 C157.904,165.589 159.155,165.494 162.813,164.202 C165.391,163.291 167.641,162.47 167.813,162.377 C167.985,162.284 167.612,159.377 166.985,155.918 C166.358,152.459 165.456,144.875 164.982,139.064 C164.507,133.254 163.817,127.045 163.448,125.267 C162.846,122.365 163.07,121.923 165.639,120.94 C167.447,120.247 169.048,120.187 169.989,120.774 C172.466,122.321 174.572,130.039 174.803,138.41 C175.027,146.528 175.988,149 178.922,149 C182.182,149 182.676,147.122 182.281,136.216 C181.987,128.098 181.381,124.351 179.781,120.762 C177.735,116.171 177.726,115.96 179.489,114.012 C181.559,111.724 182.9,111.542 186.288,113.085 C190.364,114.942 192,119.027 192,127.345 C192,131.49 192.37,135.111 192.823,135.391 C193.578,135.857 193.576,161.405 192.819,195 C192.652,202.425 192.849,213.9 193.257,220.5 C194.747,244.58 194.919,247.117 193.888,248.995 C193.753,249.242 193.596,249.478 193.419,249.75 C191.351,252.927 187.472,252.687 185.338,249.25 C184.399,247.737 182.701,245.451 181.565,244.169 C179.728,242.096 179.671,241.71 181.051,240.669 C182.004,239.951 182.654,237.765 182.736,235 C183.361,214.157 183.388,200.628 182.808,199.69 C182.319,198.898 180.416,199.176 176.308,200.64 L170.5,202.709 L169.753,211.104 C168.843,221.32 168.793,223.128 169.241,229.5 C169.435,232.25 169.347,234.95 169.046,235.5 C168.746,236.05 168.469,238.817 168.431,241.649 C168.318,250.107 164.416,253.899 158.878,250.935 C155.938,249.361 154.994,245.983 156.61,242.819 C158.089,239.924 158.787,210.107 157.456,206.708 C155.243,201.059 153.324,209.44 153.109,225.691 C153.049,230.196 152.598,234.131 152.106,234.435 C150.236,235.59 148.758,252.981 150.253,256.231 C150.795,257.407 150.193,259.318 148.376,262.197 C146.575,265.049 145.615,268.077 145.436,271.467 L145.17,276.5 L141.224,276.801 C137.361,277.095 137.265,277.021 136.65,273.301 C135.668,267.356 135.892,259.508 137.078,258.322 C139.523,255.877 142.932,237.994 144.412,219.847 C144.665,216.738 145.158,212.674 145.507,210.816 C145.855,208.958 146.279,203.851 146.449,199.469 C146.618,195.086 147.091,188.787 147.498,185.471 C148.107,180.516 147.95,179.204 146.619,178.099 C145.325,177.025 144.7,177.004 143.506,177.995 C142.684,178.677 140.794,179.003 139.306,178.718 C137.819,178.434 135.453,178.68 134.051,179.266 C132.648,179.851 128.8,180.669 125.5,181.084 C122.2,181.498 118.24,182.156 116.699,182.545 C114.542,183.09 113.352,182.74 111.523,181.022 C108.549,178.228 107.411,178.899 106.749,183.834 C106.463,185.969 105.554,189.243 104.73,191.108 C103.906,192.974 102.495,196.984 101.595,200.019 C100.695,203.054 99.068,207.003 97.98,208.793 C96.891,210.584 96,213.136 96,214.465 C96,215.794 95.55,217.16 95,217.5 C94.45,217.84 94,218.814 94,219.665 C94,220.515 92.875,222.548 91.5,224.182 C90.125,225.816 89,228.009 89,229.054 C89,230.099 87.928,231.656 86.617,232.515 C85.307,233.374 83.98,235.351 83.668,236.908 C83.084,239.83 80.947,240.96 75.95,240.986 C74.548,240.994 72.86,241.54 72.2,242.2 C70.208,244.192 68.192,241.523 69.775,238.989 C70.449,237.91 71,236.421 71,235.681 C71,234.941 72.654,233.247 74.675,231.918 C78.774,229.22 83.34,221.473 88.07,209.189 C89.698,204.96 91.925,199.7 93.018,197.5 C94.111,195.3 95.004,192.128 95.003,190.45 C95.001,188.773 95.421,186.973 95.935,186.45 C97.824,184.531 102,159.76 102,150.472 C102,142.607 101.643,140.627 99.5,136.596 C96.31,130.596 96.3,127.505 99.466,125.431 C101.782,123.913 102.115,123.946 104.966,125.976 C106.635,127.164 108,128.758 108,129.518 C108,130.279 108.694,131.289 109.542,131.764 C110.538,132.321 111.236,134.554 111.512,138.063 C112.557,151.335 113.01,153 115.575,153 C116.231,153 116.721,153.012 117.121,152.827 C118.349,152.261 118.725,149.847 120.417,139.578 C121.372,133.779 121.559,130.044 120.95,128.906 C120.195,127.497 120.708,126.725 123.58,124.951 C125.988,123.462 127.475,123.075 128.159,123.759 C129.179,124.779 129.965,157.583 129,158.846 C127.203,161.198 124.158,162.381 119.271,162.627 C112.776,162.953 111.169,164.181 110.31,169.475 L109.688,173.312 L113.594,172.582 C115.742,172.18 123.8,171.095 131.5,170.171 C139.2,169.246 146.121,168.092 146.881,167.605 C147.953,166.918 148.11,165.131 147.585,159.61 C147.214,155.7 146.689,148.45 146.42,143.5 C146.151,138.55 145.272,129.248 144.466,122.83 C143.659,116.411 143,109.549 143,107.58 C143,105.563 142.501,104 141.858,104 C141.23,104 138.345,106.025 135.448,108.5 C132.551,110.975 129.751,113 129.225,113 C126.832,113 123,108.722 123,106.05 C123,102.66 124.246,101.531 129.548,100.114 C133.57,99.039 137.731,95.495 139.878,91.316 C141.387,88.379 141.305,81.306 139.751,80.346 C137.881,79.19 133.628,79.895 129.369,82.067 C127.283,83.13 124.648,84 123.513,84 C122.378,84 118.761,85.336 115.475,86.969 C109.004,90.184 103,90.96 103,88.582 C103,87.802 102.746,86.501 102.435,85.691 C101.637,83.612 107.7,77 110.404,77 C111.612,77 113.027,76.628 113.55,76.173 C114.072,75.718 119,74.102 124.5,72.582 C134.098,69.93 137.19,69.215 138.351,67.318 C138.999,66.261 139.046,64.837 139.287,62.505 C139.609,59.385 139.628,56.195 139.329,55.416 C138.502,53.259 134.402,53.721 130.063,56.46 C127.92,57.813 124.891,59.225 123.333,59.598 C121.775,59.971 119.965,60.696 119.31,61.21 C118.656,61.724 116.856,61.999 115.31,61.822 C112.839,61.539 112.462,61.035 112.184,57.652 C111.868,53.806 113.969,50 116.408,50 C118.525,50 131.735,43.085 136.354,39.56 C139.459,37.189 142.1,35.995 144.259,35.985 C146.041,35.976 148.175,35.533 149,35 Z M29.301,125.204 C29.862,124.492 31.036,124.209 31.91,124.576 C32.785,124.943 35.588,126.031 38.14,126.995 C45.597,129.811 54,135.84 54,138.375 C54,139.574 54.613,141.443 55.362,142.527 C57.859,146.143 58.58,155.651 57.428,169.75 C56.937,175.764 57.102,177.102 58.396,177.599 C59.784,178.131 66,173.216 66,171.586 C66,170 73.486,161.5 74.882,161.5 C78.048,161.5 77.376,167.225 73.435,173.842 C71.417,177.229 69.374,180 68.896,180 C68.417,180 66.843,181.872 65.399,184.16 C62.206,189.218 57.129,194 54.951,194 C54.07,194 52.328,192.914 51.082,191.587 C48.847,189.208 48.825,188.936 49.544,172.516 C50.169,158.249 50.025,154.971 48.544,149.679 C46.179,141.232 45.819,140.696 41.918,139.798 C30.589,137.19 26.776,134.464 27.691,129.623 C28.016,127.905 28.74,125.917 29.301,125.204 Z M126.491,1.25 C126.736,0.563 128.498,0 130.405,0 C133.587,0 133.899,0.268 134.187,3.25 C134.424,5.712 135.031,6.576 136.691,6.812 C139.385,7.195 143.71,4.49 144.528,1.911 C145.049,0.271 146.122,0 152.086,0 L159.038,0 L158.39,2.75 C158.034,4.263 156.679,6.646 155.378,8.047 C153.94,9.597 152.554,12.925 151.837,16.547 C150.68,22.399 147.741,28.31 144.758,30.786 C143.62,31.73 142.54,31.776 140.416,30.968 C137.814,29.979 137.328,30.195 134.296,33.697 L131.003,37.5 L128.514,34.5 C126.975,32.645 126.246,30.803 126.604,29.675 C127.125,28.031 126.737,27.917 122.68,28.525 C118.76,29.113 118.034,28.931 117.065,27.121 C114.854,22.99 118.012,17.522 123,16.841 C125.365,16.518 125.515,16.122 125.772,9.5 C125.922,5.65 126.245,1.938 126.491,1.25 Z M118.5,189.842 C122.053,187.873 127.686,188.346 130.229,190.827 C131.491,192.058 132.105,194.805 132.503,201.007 C132.802,205.678 133.288,210.274 133.582,211.221 C133.876,212.167 133.575,217.342 132.914,222.721 C132.252,228.099 131.788,233.85 131.882,235.5 C132.108,239.481 130.064,245.761 128.325,246.429 C127.511,246.741 126.539,246.039 125.977,244.731 C125.449,243.504 124.125,241.375 123.035,240 C120.801,237.184 120.709,235.851 121.437,217.046 C121.997,202.607 121.643,201.425 117.268,203.088 C113.878,204.377 112.372,204.229 110.571,202.429 C106.864,198.721 109.218,194.985 118.5,189.842 Z M172.616,171.99 C171.03,173.005 167.092,174.141 163.864,174.516 C160.637,174.89 157.667,175.715 157.265,176.348 C156.862,176.982 156.448,179.75 156.345,182.5 C156.242,185.25 155.898,190.988 155.582,195.25 C155.265,199.512 155.343,202.991 155.753,202.98 C156.164,202.968 158.02,200.493 159.878,197.48 C162.023,193.999 163.937,192 165.125,192 C166.153,192 168.805,190.364 171.018,188.364 C174.86,184.894 175.129,184.807 176.939,186.445 C177.982,187.389 179.885,188.012 181.168,187.83 C183.351,187.521 183.513,187.023 183.705,180.048 C183.82,175.875 183.436,172.026 182.833,171.298 C181.306,169.459 176.014,169.817 172.616,171.99 Z M57.604,63.886 C59.955,61.288 64.096,61.778 65.611,64.834 C66.248,66.118 67.27,67.67 67.884,68.284 C68.498,68.898 69,71.743 69,74.608 C69,80.781 64.796,90 61.98,90 C58.86,90 58.061,87.841 59.575,83.5 C61.476,78.05 61.349,75.626 59.057,73.551 C56.129,70.902 55.435,66.282 57.604,63.886 Z M149.483,53.75 C149.877,58.013 150.361,61.668 150.557,61.874 C151.852,63.23 153.962,60.439 154.536,56.611 C155.092,52.898 154.829,51.568 153.038,49.053 C149.491,44.072 148.685,45.137 149.483,53.75 Z M182.079,161.583 C182.127,162.748 182.364,162.985 182.683,162.188 C182.972,161.466 182.936,160.603 182.604,160.271 C182.272,159.939 182.036,160.529 182.079,161.583 Z"/>
</svg>

