<svg xmlns="http://www.w3.org/2000/svg" width="300" height="300" viewBox="0 0 300 300" version="1.1">
  <defs/>
  <path d="M159.405,32.108 C162.102,29.124 167.468,29.258 169.501,32.361 C170.941,34.558 170.86,35.084 168.348,39.928 C165.811,44.817 165.741,45.295 167.195,47.816 C169.709,52.178 172.82,75.058 173.947,97.49 C174.574,109.96 175.564,111.227 181.062,106.601 C186.496,102.029 198.458,99.623 203.316,102.125 C208.724,104.911 214.167,113.514 218.104,125.5 C218.826,127.7 219.886,130.131 220.459,130.902 C222.915,134.209 224.957,179.75 223.153,191 C222.129,197.385 220.296,218.859 219.104,238.42 L218.5,248.34 L214.263,250.692 C211.497,252.227 209.189,252.835 207.619,252.44 C205.207,251.835 194.497,241.694 191.312,237 C190.379,235.625 189.273,234.262 188.855,233.97 C188.436,233.679 187.79,231.541 187.419,229.22 C186.853,225.681 187.013,225 188.407,225 C191.218,225 194.775,227.945 200.015,234.614 C203.568,239.135 205.701,241 207.319,241 C209.214,241 209.619,240.442 209.696,237.73 C209.747,235.931 210.288,229.293 210.898,222.98 C212.769,203.614 213.268,200.479 212.047,199.51 C211.65,199.195 211.072,199.108 210.3,198.768 C208.76,198.089 205.297,195.975 202.605,194.069 L197.71,190.604 L194.605,194.213 C191.434,197.899 184.778,202 181.965,202 C180.28,202 178,200.133 178,198.753 C178,198.287 180.025,195.851 182.5,193.341 C184.975,190.83 187,188.011 187,187.075 C187,186.14 185.65,184.081 184,182.5 C178.255,176.996 181.534,172.629 189.129,175.668 C193.313,177.343 193.365,177.337 194.925,175.008 C195.791,173.716 197.175,170.148 198,167.079 C199.309,162.211 199.844,161.46 202.201,161.188 C208.992,160.405 211.257,166.126 207.471,174.5 C203.852,182.505 203.853,182.545 207.633,185.985 C209.555,187.734 211.686,188.951 212.369,188.689 C213.157,188.386 214.018,184.07 214.731,176.856 C216.891,154.993 212.023,128.694 203.469,116.014 C198.177,108.17 195.34,108.336 181.75,117.287 L176,121.075 L175.903,143.287 C175.85,155.504 175.55,170.9 175.237,177.5 C174.925,184.1 174.713,192.537 174.768,196.25 C174.804,198.708 174.831,200.411 174.84,202.114 C174.861,206.499 174.76,210.883 174.379,228.13 C173.963,246.948 173.752,248.914 171.982,250.516 C170.23,252.102 169.823,252.126 167.771,250.764 C165.52,249.269 165.5,249.056 165.499,226.378 C165.498,205.079 165.36,203.312 163.499,200.781 C160.261,196.378 157.902,197.252 154.684,204.045 C153.135,207.315 151.335,210.56 150.684,211.256 C144.085,218.312 141.999,221.312 141.995,223.753 C141.992,225.264 140.932,227.823 139.639,229.439 L137.287,232.378 L134.643,229.734 L132,227.091 L131.959,204.795 C131.913,180.065 130.045,156.403 127.475,148 C126.55,144.975 125.432,140.25 124.99,137.5 C124.549,134.75 123.416,129.384 122.473,125.575 C120.829,118.942 120.833,118.595 122.57,117.325 C124.924,115.604 126.064,115.692 128.5,117.783 C130.99,119.92 133,125.495 133,130.262 C133,132.253 133.45,134.16 134,134.5 C134.55,134.84 135,136.637 135,138.494 C135,140.351 135.522,143.137 136.159,144.685 C137.662,148.337 138.957,157.224 139.637,168.551 L140.18,177.603 L145.84,178.821 C155.409,180.881 155.464,180.873 155.808,177.324 C155.977,175.578 156.765,173.61 157.558,172.952 C158.351,172.294 159,170.903 159,169.861 C159,168.677 160.328,167.334 162.546,166.276 C165.37,164.93 166.032,164.087 165.796,162.144 C165.308,158.116 162.536,157.147 159.545,159.958 C158.145,161.273 157,163.076 157,163.964 C157,166.687 149.933,174 147.301,174 C144.286,174 143.28,171.453 145.379,169.134 C146.27,168.149 147,166.455 147,165.371 C147,164.287 147.392,162.973 147.871,162.45 C148.35,161.928 149.03,160.277 149.382,158.781 C149.929,156.46 149.573,155.831 146.949,154.474 C142.707,152.28 143.213,148.934 148,147.528 C152.999,146.06 154,145.204 154,142.396 C154,138.671 158.197,135 162.455,135 C165.547,135 166,134.688 166,132.559 C166,131.216 165.526,129.825 164.947,129.467 C164.368,129.109 160.583,130.271 156.536,132.049 C148.891,135.409 146,135.429 146,132.12 C146,130.231 147.567,128.723 156,122.5 C158.236,120.85 161.461,118.396 163.167,117.048 L166.27,114.595 L165.649,105.548 C164.657,91.102 163.194,76.748 161.826,68.057 C160.791,61.475 160.233,60 158.779,60 C157.801,60 157,60.65 157,61.444 C157,62.239 155.44,64.592 153.533,66.674 C150.566,69.911 147.861,74.365 143.003,84.008 C142.452,85.104 141.467,87.013 140.816,88.25 C140.165,89.487 139.009,91.734 138.247,93.242 C134.999,99.671 129.995,99.905 130.005,93.628 C130.009,90.673 131.742,86.83 140.358,70.667 C142.361,66.909 144,62.998 144,61.976 C144,60.954 144.422,59.858 144.937,59.539 C146.055,58.848 149,53.13 149,51.65 C149,51.077 147.818,48.902 146.373,46.817 L143.746,43.026 L146.123,40.989 C147.43,39.868 150.525,37.886 153,36.584 C155.475,35.282 158.357,33.268 159.405,32.108 Z M94.514,70.977 C94.897,70.358 97.566,70.031 100.838,70.203 L106.5,70.5 L108.796,75.307 L111.092,80.115 L109.046,83.425 C107.921,85.246 106.99,87.583 106.978,88.618 C106.943,91.658 103.479,98.43 100.375,101.528 C97.282,104.615 95.83,110.147 94.085,125.5 C93.585,129.9 92.885,134.229 92.53,135.121 C91.489,137.736 94.295,138.01 100.937,135.942 L107.085,134.029 L111.091,136.557 C113.293,137.948 115.332,139.854 115.621,140.793 C115.91,141.732 116.586,143.317 117.123,144.316 C118.272,146.453 118.446,162.47 117.339,164.26 C116.921,164.937 116.223,167.631 115.789,170.246 C113.695,182.86 113.304,184.649 112.193,186.684 C111.537,187.886 111,189.997 111,191.375 C111,192.754 110.55,194.16 110,194.5 C109.45,194.84 109,196.796 109,198.848 C109,200.899 108.134,204.275 107.076,206.35 C106.018,208.426 104.727,211.343 104.208,212.834 C103.671,214.373 101.671,216.398 99.578,217.522 L95.892,219.5 L90.534,213.93 C86.02,209.236 85.066,207.583 84.473,203.43 C83.999,200.106 82.869,197.523 81.003,195.5 C77.861,192.093 73,184.534 73,183.055 C73,182.513 73.93,181.573 75.067,180.964 C76.668,180.107 77.666,180.206 79.492,181.403 C83.733,184.182 87.974,189.372 92.082,196.812 C94.907,201.928 96.615,204.028 97.769,203.806 C99.589,203.455 103.792,193.21 103.921,188.809 C103.965,187.329 104.402,185.869 104.894,185.565 C105.386,185.261 106.044,183.322 106.355,181.256 C106.667,179.19 107.409,174.8 108.004,171.5 C110.177,159.454 110.358,150.476 108.486,147.618 C106.548,144.66 104.69,144.406 99.27,146.357 C88.206,150.338 87.929,150.373 85.634,148.078 C83.82,146.263 83.541,144.966 83.775,139.416 C83.926,135.826 84.706,130.101 85.51,126.694 C87.304,119.085 87.429,108.659 85.757,105.983 C84.263,103.59 85.679,100.691 88.607,100.15 C91.521,99.612 94.903,96.007 97.052,91.15 C99.524,85.56 99.526,81.786 97.057,79.551 C94.931,77.628 93.463,72.678 94.514,70.977 Z M191.035,120.934 C192.598,118.015 196.433,118.538 199.411,122.077 C202.293,125.502 202.543,127.455 200.832,133.166 C199.942,136.138 199.942,137.342 200.832,138.232 C202.261,139.661 202.373,149.889 200.998,153.504 C200.258,155.451 199.41,156.055 197.748,155.819 C195.936,155.562 195.439,154.762 195.186,151.694 C195.014,149.601 194.267,147.656 193.527,147.372 C192.787,147.088 190.273,148.238 187.941,149.928 C180.369,155.413 176.934,153.385 181.89,146.354 C184.481,142.678 184.834,141.558 183.932,139.873 C182.809,137.775 183.645,136.627 188.25,133.948 C189.55,133.192 190,131.635 190,127.899 C190,125.132 190.466,121.998 191.035,120.934 Z M58.209,175.75 C59.269,174.238 60.833,173 61.685,173 C62.878,173 63.072,173.63 62.528,175.75 C62.141,177.262 61.526,183.473 61.162,189.551 C60.429,201.795 59.623,203.76 52.679,210.25 C47.894,214.722 45.994,214.902 42.096,211.25 C39.395,208.721 39.126,207.834 38.742,200.202 C38.345,192.298 38.422,191.918 40.371,192.202 C41.901,192.425 42.811,193.867 43.982,197.925 C44.843,200.908 46.02,203.507 46.597,203.699 C48.484,204.328 50.646,200.613 51.949,194.5 C53.911,185.296 56.087,178.778 58.209,175.75 Z M182.75,63.105 C184.746,61.971 187.755,62.542 193.5,65.144 C195.7,66.141 198.255,66.966 199.177,66.978 C201.134,67.004 204.793,71.327 205.609,74.578 C206.505,78.147 203.245,84 200.361,84 C198.483,84 197.818,83.338 197.351,81.005 C196.704,77.772 192.662,74.669 187.5,73.444 C183.272,72.44 181,70.15 181,66.895 C181,65.278 181.738,63.68 182.75,63.105 Z M42.306,84.645 C42.998,82.843 46.515,82.406 47.5,84 C47.84,84.55 49.194,85 50.508,85 C54.274,85 58,90.649 58,96.358 C58,98.926 57.598,101.809 57.108,102.764 C56.617,103.719 55.712,105.768 55.098,107.318 C54.262,109.426 53.416,110.056 51.74,109.818 C50.123,109.588 49.597,108.943 49.848,107.5 C51.472,98.182 51.331,97.355 47.651,94.547 C45.437,92.858 44.33,91.303 44.685,90.379 C44.996,89.568 44.446,88.316 43.463,87.597 C42.38,86.804 41.924,85.641 42.306,84.645 Z M140.667,185.667 C140.3,186.033 140,191.208 140,197.167 C140,207.333 140.123,208 142,208 C143.333,208 144,207.333 144,206 C144,204.9 144.441,204 144.981,204 C145.52,204 146.265,202.792 146.635,201.317 C147.006,199.841 147.912,197.478 148.648,196.067 C150.905,191.742 150.327,189.39 146.443,187.099 C142.631,184.849 141.712,184.622 140.667,185.667 Z M29.838,136.456 C31.733,132.297 32.227,132.744 37.825,143.677 C39.127,146.22 42.011,155.239 42.005,156.75 C42.002,157.438 41.109,158 40.019,158 C38.685,158 37.822,157.102 37.378,155.25 C37.014,153.738 34.917,149.443 32.718,145.706 C29.243,139.8 28.866,138.59 29.838,136.456 Z M163.213,184.188 C161.645,185.755 161.672,187.483 163.284,188.82 C165.132,190.354 167.232,188.667 166.837,185.965 C166.439,183.242 164.909,182.491 163.213,184.188 Z"/>
</svg>

