<svg xmlns="http://www.w3.org/2000/svg" width="300" height="300" viewBox="0 0 300 300" version="1.1">
  <defs/>
  <path d="M183.161,22.158 C187.198,17.638 187.507,17.493 193.578,17.257 C199.425,17.03 199.998,17.208 202.336,19.987 C204.125,22.114 205.599,26.31 207.512,34.73 C208.984,41.203 210.649,47.47 211.212,48.655 C211.775,49.84 211.911,51.336 211.513,51.979 C211.113,52.626 211.769,54.189 212.98,55.479 C215.063,57.695 215.089,57.935 213.514,60.338 C212.243,62.277 212.107,63.332 212.929,64.867 C213.518,65.968 214,68.492 214,70.476 C214,72.461 214.646,77.328 215.436,81.292 C216.769,87.989 217.173,93.454 218.588,123.926 C218.88,130.211 219.558,136.173 220.094,137.176 C220.743,138.388 220.711,139.671 220,141 C219.257,142.389 219.246,143.591 219.966,144.936 C220.535,146 221.241,156.238 221.534,167.686 C221.827,179.134 222.44,191.875 222.896,196 C223.352,200.125 223.738,204.4 223.755,205.5 C223.771,206.6 223.855,214.7 223.941,223.5 C224.027,232.3 224.508,240.85 225.011,242.5 C225.756,244.947 226.912,267.513 227.081,282.918 C227.133,287.647 223.4,291.39 219.586,290.432 C218.075,290.053 216.573,289.013 216.249,288.121 C215.448,285.92 207.362,274.545 205.499,272.999 C204.675,272.315 204,271.092 204,270.282 C204,269.472 203.068,267.5 201.929,265.9 C200.79,264.301 199.412,261.531 198.867,259.746 C193.898,243.47 191.954,234.747 193.043,233.601 C194.299,232.28 198.887,235.63 199.427,238.263 C199.679,239.493 200.144,242.126 200.462,244.113 C200.779,246.1 201.93,248.532 203.02,249.518 C204.109,250.503 205,251.96 205,252.754 C205,253.548 206.575,257.064 208.5,260.567 C210.425,264.07 212,267.595 212,268.401 C212,270.086 215.443,271.462 217.099,270.439 C217.795,270.009 217.982,268.291 217.597,265.879 C216.44,258.648 214.889,232.567 214.459,213.121 C214.224,202.462 213.634,193.237 213.148,192.621 C212.663,192.004 211.936,182.05 211.533,170.5 C211.129,158.95 210.674,147.475 210.52,145 C210.366,142.525 209.958,134.875 209.613,128 C209.268,121.125 208.587,111.45 208.1,106.5 C207.613,101.55 207.179,96.15 207.136,94.5 C206.984,88.705 206.864,88.034 205.873,87.422 C204.193,86.383 201,90.139 201,93.155 C201,96.345 199.899,96.788 197.914,94.396 C195.932,92.008 192.002,90.754 190.474,92.022 C189.769,92.607 188.017,92.791 186.583,92.431 C183.579,91.677 180.626,93.582 181.454,95.739 C181.885,96.865 181.326,97.015 178.749,96.464 C173.26,95.29 173.013,94.707 173.267,83.545 C173.435,76.167 173.097,72.553 172.059,70.611 C170.89,68.427 170.824,66.834 171.706,62.208 C173.118,54.808 172.011,46.217 168.612,38.196 L165.94,31.893 L168.038,28.946 C170.52,25.461 171.11,25.359 173.5,28 C175.667,30.394 179,30.642 179,28.408 C179,27.533 180.872,24.72 183.161,22.158 Z M149,96.978 C151.004,95.713 153.681,95.759 156.191,97.102 C157.728,97.925 158.849,97.883 160.615,96.938 C163.964,95.146 166.997,97.976 167.009,102.905 C167.016,105.718 166.342,107.055 163.912,109.053 C160.901,111.529 160.828,111.779 161.519,117.303 L162.23,123 L169.365,123.015 C173.289,123.024 177.069,123.392 177.765,123.834 C181.557,126.241 184.225,136.619 182.117,140.764 C178.621,147.635 178.505,148.931 180.526,158.538 C181.408,162.731 178.074,167.136 175.583,165.069 C173.411,163.266 166.494,165.209 164.974,168.048 C164.392,169.135 164.048,173.507 164.208,177.762 L164.5,185.5 L168.5,186.566 C170.7,187.152 174.975,188.835 178,190.306 C181.025,191.777 184.175,192.988 185,192.997 C185.825,193.006 187.836,193.894 189.469,194.971 C191.268,196.156 193.322,196.706 194.678,196.366 C196.099,196.009 198.037,196.602 199.987,197.991 C201.676,199.193 204.589,200.6 206.46,201.117 C210.918,202.348 213.079,207.705 210.626,211.447 C209.227,213.584 208.428,213.798 202.57,213.607 C196.367,213.405 195.96,213.236 193.749,209.947 C192.342,207.854 190.463,206.385 188.966,206.208 C186.139,205.874 182.666,204.356 178.846,201.786 C177.386,200.804 175.457,200 174.56,200 C173.663,200 171.791,199.254 170.4,198.343 C167.999,196.769 167.763,196.792 165.753,198.802 C163.816,200.739 163.65,201.919 163.795,212.697 C163.882,219.174 164.381,225.605 164.903,226.987 C165.425,228.369 166.082,232.65 166.362,236.5 C166.642,240.35 167.162,244.453 167.518,245.618 C168.033,247.305 167.431,248.189 164.556,249.966 C161.161,252.064 160.801,252.1 158.474,250.575 C156.48,249.269 156,248.123 156,244.677 C156,242.325 155.449,239.849 154.775,239.175 C153.808,238.208 153.816,237.525 154.809,235.934 C155.501,234.826 155.787,233.464 155.443,232.908 C155.1,232.352 154.654,226.158 154.452,219.143 C154.251,212.128 153.835,205.734 153.528,204.935 C153.222,204.135 153.334,201.46 153.779,198.99 C155.286,190.622 152.694,187.834 148.282,193.077 C140.293,202.571 138,205.57 138,206.523 C138,207.107 135.975,209.571 133.5,212 C131.025,214.429 129,217.242 129,218.251 C129,219.26 126.879,222.353 124.286,225.125 C120.138,229.559 119.214,230.093 116.589,229.568 C112.647,228.779 109,226.322 109,224.456 C109,223.631 110.153,222.432 111.563,221.789 C113.153,221.065 114.345,219.525 114.703,217.733 C115.071,215.893 116.175,214.504 117.741,213.908 C120.559,212.837 123.066,210.119 126.188,204.75 C127.387,202.688 128.671,201 129.041,201 C129.411,201 132.89,196.837 136.772,191.75 C140.654,186.662 145.219,181.178 146.915,179.563 C148.612,177.948 150,176.035 150,175.313 C150,172.977 147.12,173.919 144.842,177 C141.11,182.048 135.629,180.453 134.53,174 C133.961,170.659 134.231,170.255 140.467,165.119 C144.06,162.159 147,159.222 147,158.591 C147,157.96 147.934,156.644 149.076,155.667 C152.075,153.1 149.972,151 144.403,151 C140.51,151 139.875,151.34 138.38,154.232 C137.461,156.009 136.747,158.816 136.794,160.47 C136.898,164.1 134.512,167 131.422,167 C128.787,167 123.379,162.77 122.509,160.029 C121.985,158.378 119.597,156.501 112.818,152.411 C107.25,149.052 105.021,143.697 108.616,142.317 C110.401,141.632 121.896,147.179 126.35,150.875 C128.466,152.631 130,151.468 130,148.107 C130,145.847 131.067,144.609 135.75,141.437 C138.912,139.295 143.179,136.183 145.232,134.521 C148.864,131.581 148.964,131.32 148.982,124.809 C149.002,117.411 148.077,116.085 144.304,118.105 C142.085,119.292 141.639,119.227 140.399,117.532 C137.749,113.906 138.873,109.745 143.069,107.653 C144.621,106.879 145.759,105.047 146.454,102.206 C147.029,99.851 148.175,97.498 149,96.978 Z M106.616,42 C109.003,39.8 111.503,38 112.173,38 C114.127,38 119,43.198 119,45.283 C119,46.332 119.883,48.431 120.961,49.946 C124.065,54.304 125.194,60.529 125.414,74.5 C125.716,93.689 123.487,103.15 115.989,114.5 C114.899,116.15 114.006,118.434 114.004,119.576 C114.002,120.717 112.899,122.686 111.553,123.95 C110.208,125.214 108.97,127.205 108.803,128.374 C108.577,129.962 107.678,130.579 105.25,130.813 C102.374,131.091 101.98,131.493 101.823,134.313 C101.662,137.216 101.132,161.315 100.818,180.028 C100.749,184.168 101.212,188.528 101.849,189.717 C102.515,190.962 102.62,192.117 102.096,192.44 C100.874,193.196 99.551,202.428 99.867,208 C100.252,214.777 98.587,216.406 92.177,215.524 C86.517,214.746 86.128,214.054 88.585,209.131 C89.588,207.119 90.313,202.388 90.561,196.227 C90.992,185.494 93.075,112.537 93.029,109.75 C93.013,108.787 93.006,106.987 93.014,105.75 C93.17,79.787 92.83,66.551 91.963,64.931 C91.386,63.854 91.209,61.401 91.569,59.482 C92.014,57.111 91.68,54.844 90.525,52.411 C88.453,48.045 89.151,44.602 92.561,42.368 C94.993,40.775 95.195,40.813 97.849,43.356 C99.367,44.81 100.984,46 101.443,46 C101.901,46 104.229,44.2 106.616,42 Z M60.416,167.676 C60.752,166.615 61.727,165.992 62.747,166.185 C64.107,166.444 64.568,167.71 64.805,171.841 C64.973,174.768 64.685,177.688 64.165,178.331 C63.645,178.974 63.227,180.752 63.235,182.283 C63.243,183.814 62.518,185.875 61.623,186.864 C60.728,187.853 60.264,188.931 60.593,189.26 C61.979,190.646 59.566,196.288 55.999,200.001 C52.529,203.613 51.677,204 47.193,204 C43.022,204 41.972,203.607 40.615,201.535 C38.323,198.037 38.607,194.526 41.595,189.428 C44.324,184.772 48,183.308 48,186.878 C48,189.356 50.538,191.556 51.536,189.942 C53.99,185.972 57.977,177.23 57.987,175.797 C57.994,174.86 58.413,173.06 58.919,171.797 C59.424,170.534 60.098,168.679 60.416,167.676 Z M22.485,141.848 C22.753,141.581 26.221,141.302 30.194,141.228 C35.78,141.125 38.133,141.537 40.576,143.047 C42.314,144.121 44.426,145 45.269,145 C46.113,145 47.795,146.683 49.009,148.74 C51.802,153.473 52.141,160.603 49.748,164.259 C47.456,167.761 45,166.877 45,162.548 C45,160.58 44.216,158.6 43,157.5 C41.9,156.505 41,155.095 41,154.368 C41,152.175 36.574,149.972 30.876,149.33 C27.919,148.997 24.712,148.32 23.75,147.827 C22.156,147.01 21.313,143.021 22.485,141.848 Z M188.25,31.035 C187.012,31.53 186,32.345 186,32.846 C186,33.347 184.641,34.32 182.979,35.009 C180.191,36.163 180.009,36.539 180.613,39.88 C180.973,41.871 181.907,44.762 182.688,46.305 C184.101,49.097 184.144,49.107 191.304,48.425 C195.262,48.048 198.708,47.553 198.962,47.324 C199.216,47.096 198.879,46.036 198.212,44.968 C197.545,43.901 196.993,42.009 196.984,40.764 C196.965,38.22 193.039,30.796 191.5,30.395 C190.95,30.251 189.488,30.539 188.25,31.035 Z M45.617,88.479 C47.62,86.623 48.656,86.281 50.038,87.02 C53.016,88.614 57.98,95.248 59.184,99.241 C60.218,102.673 60.108,103.169 57.852,105.241 C54.558,108.267 50.494,110.331 48.886,109.795 C48.008,109.503 47.666,107.89 47.849,104.911 C48.075,101.231 47.681,100.049 45.561,98.058 C42.284,94.979 42.304,91.55 45.617,88.479 Z M193.469,62.5 C192.576,65.359 192.255,66.566 191.716,66.673 C191.292,66.756 190.734,66.16 189.659,65.15 C188.401,63.967 186.613,63 185.686,63 C182.98,63 183.686,66.904 186.943,69.946 L189.885,72.695 L187.304,74.623 C185.278,76.135 184.881,77.049 185.458,78.868 C186.108,80.917 186.618,81.109 189.847,80.519 C194.557,79.659 197.86,77.5 198.983,74.545 C199.474,73.252 200.354,71.899 200.938,71.538 C202.909,70.32 202.025,66.104 199.26,63.54 C196.156,60.662 194.155,60.303 193.469,62.5 Z M105.5,53.881 C102.561,54.513 102.502,54.647 102.58,60.513 C102.691,68.87 103.876,75.739 105.298,76.279 C105.959,76.53 107.898,76.529 109.606,76.275 L112.712,75.815 L112.88,65.79 C113.045,55.973 112.242,52.844 109.628,53.118 C109.007,53.183 107.15,53.527 105.5,53.881 Z M105.737,90.75 C104.735,91.865 103.971,95.222 103.634,100 C103.342,104.125 102.81,109.638 102.451,112.25 C102.092,114.862 102.181,116.981 102.649,116.957 C103.117,116.934 105.293,114.592 107.484,111.754 C111.455,106.608 111.467,106.568 111.178,98.571 C110.842,89.266 109.197,86.901 105.737,90.75 Z M166.2,134.2 C165.54,134.86 165,135.969 165,136.665 C165,138.382 168.489,140.133 170.428,139.389 C171.205,139.091 171.659,138.93 171.822,138.617 C172.052,138.174 171.695,137.425 170.839,135.547 C169.574,132.77 168.067,132.333 166.2,134.2 Z"/>
</svg>

