<svg xmlns="http://www.w3.org/2000/svg" width="300" height="300" viewBox="0 0 300 300" version="1.1">
  <defs/>
  <path d="M149.555,22.5 C154.252,17.097 157.241,16.631 159.474,20.95 C160.313,22.573 161,24.668 161,25.606 C161,28.607 156.073,33.904 148.055,39.522 C138.251,46.392 137.52,47.235 138.992,49.986 C139.614,51.148 140.629,57.477 141.248,64.05 C142.075,72.838 142.728,76 143.717,76 C144.457,76 145.313,75.213 145.619,74.25 C146.793,70.562 150.319,64.426 152.228,62.75 C156.84,58.702 163.986,62.603 165.51,70 C165.907,71.925 166.589,73.95 167.027,74.5 C167.465,75.05 167.975,76.85 168.162,78.5 C168.407,80.676 169.092,81.584 170.654,81.807 C172.373,82.052 173.055,81.347 174.034,78.307 C174.709,76.213 175.592,74.05 175.996,73.5 C176.401,72.95 176.982,71.375 177.288,70 C177.594,68.625 178.538,64.8 179.386,61.5 C180.235,58.2 180.945,53.839 180.964,51.809 C180.984,49.779 181.439,47.847 181.975,47.516 C183.266,46.718 182.144,38.115 180.38,35.285 C179.621,34.067 179,32.302 179,31.364 C179,29.138 181.874,25.999 183.905,26.005 C186.363,26.012 192,31.823 192,34.351 C192,35.588 192.468,37.068 193.04,37.64 C194.56,39.16 192.253,56.602 189.904,61.345 C188.857,63.459 187.993,66.159 187.985,67.345 C187.977,68.53 187.294,71.442 186.467,73.816 C183.97,80.987 186.112,81.879 192.891,76.49 C195.744,74.223 196.914,73.248 198.126,73.195 C199.066,73.153 200.031,73.667 201.826,74.563 C206.143,76.717 206.252,77.165 203.456,81.28 C202.105,83.268 200.986,85.93 200.968,87.197 C200.951,88.464 200.276,90.374 199.468,91.441 C198.661,92.509 198,94.845 198,96.632 C198,98.42 197.55,100.16 197,100.5 C196.45,100.84 196,101.766 196,102.559 C196,103.562 197.16,104 199.813,104 C204.6,104 208.678,107.966 208.552,112.5 C208.427,117.028 207.33,118 202.349,118 C199.33,118 196.966,118.668 195.273,120 C193.874,121.1 191.873,122 190.825,122 C188.581,122 180.824,118.224 179.765,116.616 C178.096,114.081 179.027,106.63 181.55,102.324 C182.953,99.93 183.827,97.528 183.491,96.986 C182.575,95.504 179.411,95.8 178,97.5 C176.068,99.828 173.69,99.279 171.5,96 C170.4,94.353 169.162,93.004 168.75,93.003 C168.338,93.001 167.933,95.138 167.852,97.75 C167.633,104.77 167.56,105.406 166.854,106.5 C166.498,107.05 166.332,110.274 166.485,113.664 C166.724,118.977 166.504,119.896 164.893,120.318 C163.865,120.587 162.603,121.914 162.089,123.267 C161.225,125.54 159.192,127 156.893,127 C156.375,127 155.523,125.875 155,124.5 C153.58,120.766 152.331,121.424 149.507,127.393 C148.104,130.36 146.033,133.96 144.905,135.393 C140.953,140.418 134.366,137.418 135.617,131.163 C136.12,128.65 135.916,128 134.625,128 C133.712,128 133,128.809 133,129.845 C133,130.86 132.095,132.509 130.989,133.51 C129.267,135.068 128.455,135.168 125.331,134.209 C122.057,133.205 121.393,133.333 118.87,135.456 C116.379,137.552 115.29,137.774 109.335,137.4 C105.638,137.167 101.619,136.325 100.404,135.529 C98.386,134.207 98.284,133.71 99.228,129.791 C101.136,121.868 101.069,121.717 95.6,121.602 L90.701,121.5 L90.348,115.5 C90.154,112.2 90.43,108.6 90.963,107.5 C91.495,106.4 92.373,103.25 92.914,100.5 C93.455,97.75 94.78,91.675 95.858,87 C100.311,67.695 101.11,63.349 101.538,56.099 C101.875,50.381 101.578,47.638 100.337,45.019 C99.429,43.105 98.645,39.955 98.594,38.019 C98.508,34.806 98.761,34.479 101.5,34.255 C103.15,34.12 105.175,34.571 106,35.256 C108.468,37.307 112.363,45.612 111.685,47.378 C111.339,48.281 111.488,51.303 112.018,54.094 C112.959,59.054 111.964,65.98 108.916,75.688 C108.366,77.442 107.503,81.407 107,84.5 C106.497,87.593 105.391,91.515 104.542,93.216 C102.323,97.665 102.519,101 105,101 C106.167,101 107,100.333 107,99.4 C107,97.606 113.202,91 114.886,91 C115.483,91 117.156,92.79 118.604,94.978 C120.949,98.522 121.161,99.555 120.548,104.46 C120.056,108.401 119.231,110.467 117.643,111.732 C115.018,113.825 111.654,123.286 113.317,123.9 C113.913,124.12 114.577,123.77 114.792,123.123 C115.257,121.729 122.268,118 124.425,118 C125.253,118 126.383,118.847 126.937,119.882 C128.359,122.539 131.086,123.343 132.814,121.614 C134.072,120.357 134.096,118.859 132.988,110.79 C132.134,104.567 132.028,100.766 132.672,99.462 C133.706,97.371 133.62,85.534 132.42,64.658 C131.599,50.373 131.129,49.539 125.576,52.529 C121.274,54.846 119.429,54.033 118.693,49.496 C117.997,45.206 119.377,42.475 122.979,41.013 C125.746,39.89 132.891,36.034 137.335,33.266 C138.894,32.295 140.571,30.488 141.06,29.25 C141.55,28.012 142.781,27 143.796,27 C144.812,27 147.403,24.975 149.555,22.5 Z M188.242,128.978 C190.874,128.354 191.995,128.077 193.041,128.249 C193.86,128.384 194.634,128.793 196.05,129.526 C197.992,130.53 199,131.821 199,133.303 C199,136.389 196.292,140 193.978,140 C192.928,140 190.591,141.276 188.785,142.836 C186.978,144.396 183.025,146.971 180,148.558 C176.975,150.144 173.03,152.903 171.233,154.689 C168.161,157.742 167.921,158.497 167.207,167.364 C166.79,172.549 166.847,178.301 167.333,180.146 C167.907,182.321 167.802,185.145 167.035,188.178 C165.613,193.801 166.666,196.451 170.724,197.46 C172.251,197.84 176.2,199.181 179.5,200.44 C182.8,201.698 188.305,203.534 191.734,204.518 C195.163,205.502 198.72,207.138 199.639,208.153 C200.558,209.169 201.895,210 202.611,210 C203.326,210 205.551,211.113 207.556,212.474 C209.561,213.834 212.736,215.235 214.612,215.587 C216.487,215.939 218.274,216.634 218.582,217.132 C219.398,218.454 228.659,223 230.533,223 C231.413,223 233.608,224.125 235.411,225.5 C237.214,226.875 239.367,228 240.195,228 C241.024,228 243.818,229.125 246.404,230.5 C248.99,231.875 251.62,233 252.248,233 C254.292,233 259,238.315 259,240.622 C259,243.563 257.19,248.259 255.687,249.214 C252.954,250.952 250.423,249.703 245.373,244.123 C242.448,240.891 238.13,237.271 235.777,236.079 C233.425,234.888 230.375,233.322 229,232.599 C221.071,228.432 202.026,220 200.543,220 C199.865,220 198.495,219.1 197.5,218 C196.505,216.9 194.777,216 193.661,216 C192.545,216 189.802,215.167 187.566,214.148 C183.804,212.434 171.309,208.323 168.116,207.749 C165.065,207.2 163.776,217.381 163.413,244.902 C163.074,270.509 162.997,271.374 160.857,273.652 C158.09,276.598 155.923,276.626 153.282,273.75 C150.193,270.386 149.655,266.068 151.622,260.413 C153.509,254.986 153.761,251.612 155.124,213.5 L155.445,204.5 L152.766,204.188 C149.622,203.821 144,207.566 144,210.028 C144,210.936 142.875,212.192 141.5,212.818 C140.125,213.445 139,214.391 139,214.922 C139,215.453 136.3,218.638 133,222 C129.7,225.362 127,228.73 127,229.484 C127,230.238 125.936,231.692 124.636,232.715 C123.335,233.737 121.576,235.908 120.725,237.537 C119.874,239.167 117.788,241.822 116.089,243.437 C114.39,245.052 113,246.812 113,247.347 C113,247.882 109.518,251.857 105.262,256.179 C97.387,264.176 93.642,266.228 88.655,265.274 C85.635,264.697 84.512,263.49 83.658,259.906 C82.815,256.368 86.795,252.481 90.345,253.372 C92.203,253.838 93.495,253.302 95.651,251.171 C100.51,246.367 108.53,236.86 114.883,228.371 C118.229,223.9 122.092,219.175 123.466,217.871 C124.841,216.567 125.973,214.991 125.983,214.369 C125.992,213.746 127.575,212.036 129.5,210.568 C131.425,209.1 133,207.236 133,206.427 C133,205.617 134.743,203.053 136.873,200.728 C143.084,193.949 151,183.768 151,182.559 C151,181.946 152.35,180.261 154,178.813 C156.515,176.606 157,175.439 157,171.59 C157,167.662 156.711,167 154.993,167 C153.89,167 152.009,168.125 150.813,169.5 C149.618,170.875 147.89,172 146.975,172 C146.059,172 144.458,172.941 143.417,174.092 C141.552,176.152 134.544,180 132.657,180 C132.124,180 130.296,181.05 128.594,182.334 C126.892,183.617 124.15,185.13 122.499,185.695 C120.848,186.26 117.895,187.81 115.936,189.139 C112.096,191.745 108.485,192.967 97.357,195.423 C87.777,197.538 87.388,197.485 85.553,193.806 C83.526,189.743 84.528,188.625 92,186.609 C95.025,185.793 101.325,183.706 106,181.97 C110.675,180.235 116.084,178.294 118.02,177.657 C119.956,177.021 122.95,175.488 124.674,174.25 C126.398,173.012 128.23,172 128.746,172 C129.261,172 133.466,169.525 138.09,166.5 C142.715,163.475 146.835,161 147.248,161 C147.66,161 149.798,159.253 151.999,157.117 C156.498,152.751 156.943,150.03 154.859,139.651 C153.845,134.603 153.918,133.748 155.514,131.985 C157.83,129.425 159.165,129.482 161.765,132.25 C163.27,133.852 163.968,136.082 164.189,139.991 C164.589,147.05 166.498,147.596 172.38,142.333 C174.736,140.225 177.528,137.812 178.586,136.97 C179.643,136.129 181.515,134.16 182.746,132.596 C183.977,131.031 186.45,129.403 188.242,128.978 Z M22.207,152.193 C23.823,150.577 29.91,151.711 32.564,154.124 C33.7,155.156 35.084,156 35.64,156 C37.64,156 40.801,160.612 42.837,166.5 C45.145,173.176 45.537,178.831 44.693,193.31 C44.179,202.13 44.317,203.317 46.06,205.06 C47.127,206.127 48.727,207 49.615,207 C51.787,207 55.688,202.591 58.906,196.5 C60.714,193.078 62.171,191.5 63.524,191.5 C66.541,191.5 66.923,201.011 64.053,204.66 C62.924,206.095 62,208.072 62,209.053 C62,212.331 60.817,213.982 56.266,217.053 C51.275,220.422 48.154,220.4 42.5,216.958 C36.617,213.376 35.517,209.495 35.743,193.116 C35.994,174.879 36.288,170.933 34.573,168.292 C33.863,167.198 32.807,166.327 31.26,164.757 C28.684,162.141 26.18,160 25.698,160 C24.578,160 21.077,155.835 21.033,154.45 C21.015,153.873 21.543,152.857 22.207,152.193 Z M43.536,95.945 C50.505,94.625 54.883,98.318 55.208,105.792 C55.439,111.085 53.605,114.954 49.7,117.418 C46.754,119.275 44.445,116.882 44.824,112.365 C45.112,108.938 44.717,108.138 41.324,105.277 C37.583,102.122 37.533,101.992 39.036,99.279 C39.994,97.552 41.69,96.295 43.536,95.945 Z M151.537,79.25 C149.617,83.836 148.978,84.216 146.223,82.41 C143.588,80.684 141.142,81.802 142.554,84.088 C142.983,84.782 143.227,87.971 143.096,91.175 C142.885,96.351 143.074,97 144.794,97 C145.859,97 147.818,96.144 149.148,95.098 C150.478,94.052 152.676,93.039 154.033,92.848 C156.276,92.532 156.566,91.909 157.227,86 C157.627,82.425 157.709,78.713 157.41,77.75 C156.485,74.779 153.041,75.659 151.537,79.25 Z M149.852,109.426 C149.209,110.836 147.134,112.903 145.24,114.021 C142.252,115.784 141.887,116.412 142.479,118.774 C142.855,120.271 143.268,121.601 143.397,121.731 C143.904,122.237 150,119.514 150,118.781 C150,118.351 150.9,118 152,118 C153.259,118 154,117.333 154,116.2 C154,115.21 154.488,113.912 155.085,113.315 C156.923,111.477 155.751,107.536 153.26,107.182 C151.654,106.954 150.689,107.589 149.852,109.426 Z"/>
</svg>

