<svg xmlns="http://www.w3.org/2000/svg" width="300" height="300" viewBox="0 0 300 300" version="1.1">
  <defs/>
  <path d="M138.847,25.437 C140.888,20.956 144.835,22.7 148.344,29.632 C149.585,32.084 149.842,35.067 149.527,43.382 C149.164,52.954 149.296,54 150.862,54 C151.818,54 153.028,53.628 153.55,53.174 C154.073,52.72 156.302,51.784 158.505,51.095 C162.005,49.999 163.136,50.087 167.465,51.787 C171.307,53.296 172.603,54.38 173.243,56.617 C174.4,60.664 173.166,69.931 170.994,73.5 C169.989,75.15 168.858,78.171 168.479,80.214 C168.101,82.257 167.163,84.45 166.395,85.087 C165.628,85.724 165,87.011 165,87.948 C165,88.885 163.849,90.732 162.443,92.054 C160.97,93.438 160.077,95.186 160.336,96.178 C160.584,97.125 159.71,99.36 158.393,101.145 C154.419,106.532 155.009,107.473 165.496,112.473 C170.719,114.963 175.332,117.002 175.746,117.004 C176.161,117.006 179.2,118.354 182.5,120 C185.8,121.646 189.133,122.994 189.906,122.996 C190.679,122.998 192.786,124.125 194.589,125.5 C196.392,126.875 198.333,128 198.903,128 C199.473,128 201.64,128.974 203.72,130.163 C208.313,132.792 211.053,134.162 217.25,136.929 C219.863,138.096 222,139.446 222,139.93 C222,140.675 227.302,144.008 235.509,148.42 C240.098,150.887 244.918,155.308 246.382,158.393 C247.664,161.094 247.73,162.254 246.752,164.845 C245.52,168.109 244.908,168.477 239,169.499 C236.106,169.999 234.914,169.611 232.115,167.258 C228.924,164.574 228.828,164.314 230.438,162.704 C233.011,160.132 231.952,157.75 227.177,155.374 C224.813,154.198 221.865,152.282 220.625,151.118 C219.385,149.953 217.725,148.99 216.936,148.978 C216.146,148.966 214.375,148.076 213,147 C211.625,145.924 210.121,145.034 209.658,145.022 C209.194,145.01 207.671,144.1 206.273,143 C204.874,141.9 202.961,141 202.02,141 C201.08,141 199.495,140.1 198.5,139 C197.505,137.9 195.631,137 194.338,137 C193.044,137 189.851,135.904 187.243,134.565 C164.455,122.866 156.942,119.732 151.4,119.617 C146.727,119.52 145.575,119.842 144.66,121.5 C144.052,122.6 141.856,126.102 139.778,129.281 C137.7,132.461 136,135.545 136,136.134 C136,136.724 133.975,139.458 131.5,142.211 C129.025,144.964 127,147.901 127,148.737 C127,149.573 125.425,152.001 123.5,154.132 C121.575,156.262 120,158.816 120,159.805 C120,160.795 117.853,163.831 115.229,166.553 C112.605,169.274 109.925,172.716 109.272,174.202 C108.62,175.688 106.742,177.599 105.1,178.449 C103.457,179.298 101.52,181.229 100.796,182.739 C99.707,185.012 98.565,185.63 94.162,186.331 C83.269,188.065 80.782,184.691 89.5,180.007 C92.25,178.529 94.985,176.362 95.577,175.19 C96.17,174.018 97.858,172.113 99.327,170.957 C105.796,165.869 100.42,165.645 91.884,170.647 L85.662,174.294 L81.796,169.897 C79.504,167.29 78.046,164.686 78.215,163.5 C78.457,161.805 79.262,161.5 83.5,161.5 C86.25,161.5 89.067,161.133 89.759,160.685 C90.451,160.237 91.935,160.162 93.057,160.518 C94.178,160.874 95.744,160.628 96.535,159.971 C98.486,158.351 100.829,159.42 101.983,162.455 C103.271,165.843 105.242,164.906 108.933,159.153 C110.574,156.594 114.679,150.45 118.054,145.5 C121.429,140.55 125.498,134.137 127.095,131.25 C134.624,117.642 136.04,115.321 135.397,114.309 C135.198,113.995 134.801,113.807 134.327,113.448 C133.322,112.687 131.008,112.049 129.184,112.032 C124.774,111.989 122.362,110.579 121.616,107.606 C120.671,103.84 121.846,102.119 126.152,100.959 C130.296,99.843 132.125,100.107 138.227,102.699 C141.253,103.985 142.24,104.045 143.477,103.019 C144.315,102.324 145,101.105 145,100.311 C145,99.516 146.125,97.392 147.5,95.589 C148.875,93.786 150,91.402 150,90.29 C150,89.179 150.898,87.128 151.995,85.734 C155.211,81.645 160.437,67.037 159.146,65.746 C157.516,64.116 153.166,66.433 151.975,69.566 C151.124,71.804 150.583,72.067 148,71.5 C145.406,70.93 144.877,71.193 144.005,73.487 C143.452,74.941 143,77.621 143,79.443 C143,81.265 142.325,83.315 141.5,84 C140.675,84.685 140,85.844 140,86.575 C140,91.634 133.832,95.765 130.459,92.966 C128.177,91.072 128.708,85.519 131.575,81.294 C133.411,78.589 133.991,76.706 133.596,74.733 C133.231,72.906 133.941,70.016 135.685,66.233 C137.357,62.604 138.445,58.298 138.65,54.5 C138.828,51.2 139.493,47.243 140.126,45.707 C141.045,43.478 140.92,41.393 139.507,35.394 C138.136,29.57 137.987,27.324 138.847,25.437 Z M165.957,154.336 C169.556,152.596 172.95,151.146 173.5,151.114 C174.05,151.082 176.864,151.841 179.753,152.8 C189.044,155.884 192.155,163.9 188.174,174.5 C187.554,176.15 186.806,179.108 186.511,181.074 C186.006,184.441 182.325,189.606 173.862,198.822 C172.184,200.649 171.017,202.35 171.268,202.602 C172.697,204.031 183.48,202.437 187.684,200.175 C188.886,199.529 190.765,199 191.862,199 C194.653,199 198,203.646 198,207.52 C198,211.962 194.794,213.863 185.203,215.107 C175.942,216.308 171.514,216.272 167.449,214.96 C165.213,214.239 163.074,214.377 159.449,215.477 C156.727,216.303 153.669,216.983 152.654,216.989 C151.639,216.995 149.548,217.898 148.006,218.995 C144.618,221.409 139.485,220.775 137.862,217.743 C136.281,214.788 139.497,211.103 145.72,208.738 C151.715,206.461 152.86,204.544 150.028,201.53 C148.913,200.343 147.997,198.725 147.994,197.936 C147.99,197.146 147.403,195.375 146.689,194 C145.974,192.625 144.81,189.25 144.102,186.5 C142.842,181.608 142.488,180.562 140.058,174.558 C138.03,169.544 137.066,162.626 138.205,161.253 C140.159,158.899 143.805,159.863 146.707,163.5 C149.654,167.193 151,167.872 151,165.667 C151,163.653 158.605,157.892 165.957,154.336 Z M75.2,68.2 C78.34,65.06 83.259,67.914 84.333,73.5 C84.651,75.15 85.329,78.525 85.84,81 C88.974,96.168 90.174,106.323 89.108,108.662 C88.499,109.999 88,113.448 88,116.325 C88,119.201 87.381,122.443 86.624,123.527 C85.868,124.612 84.932,127.975 84.545,131 C83.669,137.839 82.354,142.429 79.901,147.198 C78.856,149.232 78,151.764 78,152.826 C78,153.887 77.299,155.337 76.442,156.048 C74.633,157.55 72,163.447 72,166 C72,166.965 71.325,168.315 70.5,169 C69.675,169.685 69,171.076 69,172.093 C69,173.989 65.408,182.668 61.946,189.136 C60.876,191.136 60,194.387 60,196.36 C60,199.294 59.48,200.218 57.148,201.423 C55.58,202.234 53.545,204.046 52.625,205.449 C51.352,207.392 50.107,208 47.397,208 C43.907,208 43.854,207.939 44.545,204.75 C44.932,202.963 46.034,200.375 46.993,199 C47.953,197.625 49.052,195.487 49.436,194.25 C49.82,193.012 50.493,192 50.931,192 C51.822,192 57,180.934 57,179.029 C57,178.358 57.636,176.614 58.413,175.154 C61.051,170.198 64,163.028 64,161.57 C64,160.771 64.45,159.84 65,159.5 C65.55,159.16 66,157.965 66,156.845 C66,155.725 66.648,153.614 67.441,152.154 C69.428,148.495 72.63,138.416 73.514,133.038 C73.917,130.585 74.604,127.885 75.041,127.038 C75.477,126.192 76.362,122.35 77.007,118.5 C78.729,108.221 77.268,81.902 74.894,80.435 C73.562,79.611 73.813,69.587 75.2,68.2 Z M170.796,164.68 C163.737,166.538 156.702,173.192 155.654,179 C155.307,180.925 155.507,184.975 156.1,188 C156.692,191.025 157.202,194.738 157.232,196.25 C157.319,200.602 160.071,199.631 165.559,193.31 C171.784,186.142 175.311,179.979 178.004,171.566 C179.174,167.91 179.104,167.503 177.021,165.816 C174.772,163.995 173.962,163.847 170.796,164.68 Z M98.093,73.388 C100.926,69.975 113.024,73.752 110.302,77.2 C109.737,77.915 109.015,80.815 108.697,83.645 C108.284,87.324 107.39,89.519 105.56,91.35 C104.152,92.757 103,94.308 103,94.796 C103,96.133 95.793,98.02 93.238,97.352 C90.378,96.604 90.41,95.246 93.364,92.055 C96.086,89.114 98.112,81.77 97.312,77.744 C96.995,76.15 97.324,74.314 98.093,73.388 Z M46.531,95.352 C49.677,93.049 52.906,94.628 59.502,101.693 C64.4,106.941 66.397,108.379 69.481,108.881 C74.251,109.656 74.775,110.988 71.711,114.55 C69.381,117.258 69.218,117.292 64.414,116.085 C57.439,114.332 49.915,108.223 46.959,101.913 C44.588,96.849 44.583,96.778 46.531,95.352 Z"/>
</svg>

