<svg xmlns="http://www.w3.org/2000/svg" width="300" height="300" viewBox="0 0 300 300" version="1.1">
  <defs/>
  <path d="M123.655,30.829 C125.405,28.895 128.613,28.468 130.831,29.875 C132.645,31.024 132.245,54.089 130.329,58.904 C129.583,60.775 129.215,62.548 129.509,62.842 C129.803,63.136 132.094,62.381 134.599,61.164 C140.335,58.377 148.312,58.992 150.487,62.388 C152.762,65.943 153.308,74.88 151.623,81 C150.79,84.025 149.625,88.3 149.034,90.5 C146.437,100.161 145.66,102.686 144.37,105.651 C143.617,107.384 143,109.72 143,110.842 C143,111.964 142.55,113.16 142,113.5 C141.45,113.84 141,115.19 141,116.5 C141,117.81 140.601,119.129 140.113,119.43 C139.626,119.731 138.942,121.495 138.594,123.35 C137.769,127.746 130.488,141.785 127.464,144.808 C125.712,146.561 123.87,147.21 120.303,147.334 C115.926,147.485 115.47,147.285 115.158,145.077 C114.909,143.315 115.768,141.815 118.309,139.577 C120.23,137.885 123.422,133.477 125.401,129.782 C131.619,118.174 129.264,115.212 122.453,126.075 C120.41,129.334 118.388,132 117.961,132 C117.533,132 114.78,133.929 111.842,136.287 C108.904,138.645 103.19,142.55 99.145,144.965 C90.892,149.893 88.739,149.714 88.18,144.056 C87.78,140.006 89.691,137.792 96.401,134.529 C102.186,131.716 108.494,127.295 116.589,120.38 C121.875,115.864 122.119,115.449 121.487,112.063 C120.512,106.845 119.384,105.915 114.9,106.632 C110.604,107.319 109.915,106.554 109.649,100.802 C109.522,98.044 110.012,97.318 113,95.834 C116.566,94.063 121.585,93.52 124.398,94.599 C125.257,94.929 126.906,96.73 128.062,98.601 C129.95,101.656 130.052,102.531 129.056,107.176 C127.976,112.211 128.518,113.926 131.208,113.985 C131.947,114.001 135.989,101.312 136.015,98.892 C136.034,97.151 138.147,91.24 139.827,88.228 C141.68,84.906 140.994,73.614 138.916,73.219 C137.195,72.891 128.372,81.442 126.249,85.495 C123.649,90.456 115.388,87.3 117.551,82.172 C117.939,81.252 118.62,77.35 119.065,73.5 C119.51,69.65 120.325,64.25 120.877,61.5 C121.429,58.75 121.908,51.135 121.94,44.579 C121.989,34.948 122.318,32.306 123.655,30.829 Z M56.693,69.7 C57.687,69.443 58.752,69.18 59.06,69.116 C59.368,69.052 60.977,70.326 62.634,71.947 C65.618,74.864 68.362,80.17 69.384,85 C70.174,88.734 72.471,91.417 74.282,90.722 C75.147,90.39 76.744,88.106 77.833,85.645 C79.879,81.02 82.348,79 85.956,79 C88.816,79 90.844,83.42 89.194,86.061 C88.537,87.112 87.993,88.541 87.983,89.236 C87.964,90.704 80.257,98.34 77.906,99.22 C76.881,99.604 75.886,102.081 75.117,106.159 C74.46,109.646 72.78,116.325 71.384,121 C67.411,134.303 67.159,135.254 66.494,139.5 C65.487,145.931 63.82,153.068 61.842,159.415 C59.213,167.858 59.271,168.051 64.25,167.44 C67.067,167.094 69.343,167.424 71,168.419 C75.123,170.896 84.221,175 85.587,175 C86.018,175 87.413,175.978 88.686,177.174 C92.731,180.975 91.224,189 86.465,189 C85.109,189 84,188.632 84,188.182 C84,187.024 70.289,180 68.028,180 C65.7,180 60,175.322 60,173.411 C60,170.307 57.239,172.26 55.986,176.25 C55.253,178.588 54.28,180.928 53.826,181.45 C53.372,181.973 53,183.348 53,184.506 C53,185.664 51.875,188.136 50.5,190 C49.125,191.864 48,194.165 48,195.113 C48,196.66 45.268,202.729 44,203.999 C43.725,204.275 42.487,206.652 41.248,209.281 C40.009,211.911 36.077,218.013 32.509,222.841 C25.746,231.993 21.647,235 15.935,235 C10.701,235 11.164,230.029 16.59,227.966 C20.936,226.313 35.504,203.293 41.565,188.5 C42.241,186.85 43.713,183.25 44.837,180.5 C45.961,177.75 47.622,173.025 48.528,170 C49.434,166.975 50.836,163.031 51.642,161.235 C52.449,159.439 53.71,154.714 54.445,150.735 C55.987,142.391 58.353,130.555 60.49,120.5 C61.309,116.65 62.063,109 62.167,103.5 C62.366,92.966 61.638,90.379 56.54,83.5 C52.415,77.933 52.494,70.789 56.693,69.7 Z M177.444,50.625 C177.945,49.03 178.666,48.849 182.267,49.414 C184.595,49.78 187.175,50.927 188,51.963 C188.825,52.999 190.53,53.994 191.79,54.174 C193.049,54.353 194.061,54.837 194.04,55.25 C194.018,55.663 194,57.778 194,59.952 C194,63.154 193.336,64.548 190.5,67.303 C188.575,69.172 187,71.697 187,72.913 C187,74.129 185.924,77.458 184.61,80.312 C182.154,85.643 181.423,88.205 180.131,96 C179.721,98.475 178.849,101.483 178.193,102.684 C177.537,103.886 177,106.634 177,108.792 L177,112.715 L183.195,113.363 C189.768,114.05 197.857,117.678 208,124.49 C214.146,128.618 215.913,131.071 215.965,135.55 C216.041,142.13 211.091,142.791 205.426,136.958 C203.267,134.734 199.475,131.719 197,130.256 C194.525,128.793 192.275,127.285 192,126.904 C191.219,125.824 178.864,121 176.878,121 C175.132,121 170.869,125.867 169.7,129.195 C169.072,130.985 162.885,132.665 161.065,131.54 C159.247,130.416 159.871,127.118 163.437,119.007 C165.327,114.708 167.18,109.46 167.555,107.345 C167.93,105.23 168.898,101.025 169.705,98 C170.513,94.975 171.557,90.95 172.025,89.055 C173.652,82.479 171.356,82.346 164.205,88.602 C159.997,92.283 158.451,93.079 156.473,92.582 C154.37,92.055 154,91.377 154,88.052 C154,84.512 154.443,83.843 158.679,80.984 C161.252,79.247 165.977,75.548 169.179,72.763 L175,67.7 L175,61.836 C175,58.611 175.417,55.191 175.927,54.236 C176.437,53.281 177.119,51.656 177.444,50.625 Z M170.5,189.719 C178.615,187.742 184.563,190.564 194.242,200.982 C198.444,205.505 202.33,209.047 202.878,208.853 C203.425,208.659 206.719,205.746 210.199,202.379 C213.678,199.013 218.312,195.301 220.497,194.129 C224.755,191.847 230.918,191.351 234.067,193.036 C237.135,194.678 239.224,200.816 239.33,208.5 C239.43,215.776 237.384,232.387 236.066,235 C235.65,235.825 234.721,238.975 234.003,242 C233.284,245.025 232.119,248.4 231.414,249.5 C230.708,250.6 229.582,253.75 228.912,256.5 C227.687,261.53 223.176,266.871 220.079,266.959 C218.284,267.011 215,264.092 215,262.446 C215,261.761 216.575,258.861 218.5,256 C220.425,253.139 222,249.871 222,248.737 C222,246.217 224.774,236.421 226.457,233 C228.439,228.968 230.193,217.022 229.833,210 C229.502,203.53 229.485,203.499 226.368,203.195 C223.689,202.935 222.14,203.907 215.66,209.916 C211.493,213.78 206.937,217.229 205.535,217.581 C200.645,218.808 196.409,217.181 192.353,212.516 C190.234,210.078 185.578,204.69 182.007,200.542 C175.269,192.714 173.128,191.68 169.441,194.468 C166.994,196.319 165,196.403 165,194.655 C165,192.951 167.893,190.354 170.5,189.719 Z M99.2,202.2 C101.766,199.634 105.816,200.87 110.976,205.791 C113.739,208.427 116,211.271 116,212.111 C116,212.951 117.463,214.283 119.25,215.07 C122.346,216.432 122.498,216.754 122.451,221.866 C122.397,227.804 120.303,230.489 116.552,229.429 C114.271,228.784 109,223.211 109,221.443 C109,220.82 108.1,219.495 107,218.5 C105.9,217.505 105,215.845 105,214.811 C105,213.724 103.525,212.062 101.5,210.867 C98.873,209.318 98,208.128 98,206.101 C98,204.616 98.54,202.86 99.2,202.2 Z M211.25,52.662 C213.413,51.789 215.818,51.96 218.485,53.175 C221.283,54.45 228,63.11 228,65.443 C228,66.235 228.41,67.135 228.911,67.445 C229.412,67.755 229.718,69.694 229.591,71.754 C228.911,82.785 220.012,88.836 219.99,78.281 C219.979,72.707 216.546,64.68 212.632,61.076 C209.841,58.505 209.028,53.559 211.25,52.662 Z M29.2,100.2 C31.936,97.464 35.494,98.856 40.457,104.604 C45.043,109.916 45.483,110.176 48.898,109.584 C55.755,108.394 56.414,108.456 56.798,110.319 C57.319,112.843 50.29,118.905 46.78,118.958 C43.951,119.002 39.507,116.821 32.255,111.831 C28.525,109.265 28,108.441 28,105.152 C28,103.088 28.54,100.86 29.2,100.2 Z M137.667,182.667 C138.79,181.543 142.952,181.924 145.831,183.413 C149.26,185.186 158,194.443 158,196.302 C158,197.065 158.9,198.505 160,199.5 C162.416,201.686 162.532,203.796 160.403,206.835 C158.058,210.183 153.613,209.485 153.179,205.701 C152.955,203.754 150.443,200.529 144.929,195.11 C137.656,187.963 135.708,184.626 137.667,182.667 Z"/>
</svg>

