<svg xmlns="http://www.w3.org/2000/svg" width="300" height="300" viewBox="0 0 300 300" version="1.1">
  <defs/>
  <path d="M142.986,11.517 C146.198,7.646 151,11.324 151,17.655 C151,21.428 151.282,22 153.14,22 C155.545,22 157.417,20.033 159.567,15.25 C160.37,13.462 161.44,12 161.945,12 C163.194,12 167,17.46 167,19.251 C167,21.987 163.629,27.511 159.812,31.03 L155.982,34.56 L155.584,51.815 C155.366,61.305 154.756,69.617 154.231,70.285 C153.705,70.953 153.015,73.818 152.696,76.651 C152.179,81.26 152.424,82.206 155.031,85.651 C159.4,91.423 158.795,94.009 152.718,95.535 C149.597,96.318 147.259,99.659 148.772,101.172 C149.332,101.732 149.521,106.876 149.227,113.543 C148.773,123.823 148.899,125.024 150.497,125.637 C151.473,126.012 152.836,125.909 153.526,125.409 C161.938,119.31 170.104,112.49 171.445,110.444 C172.895,108.23 173.718,107.935 177.705,108.198 C183.382,108.572 185.079,110.616 182.975,114.547 C182.187,116.019 180.633,117.579 179.521,118.013 C178.41,118.447 173.82,121.66 169.322,125.151 C164.824,128.643 159.127,132.695 156.662,134.156 C152.256,136.766 152.167,136.923 151.484,143.302 C151.102,146.872 151.131,151.752 151.548,154.146 C152.607,160.226 152.829,163.109 153.096,174.265 C153.23,179.846 153.801,184.42 154.429,184.941 C155.032,185.442 157.771,186.417 160.513,187.107 C163.256,187.798 166.85,189.145 168.5,190.101 C170.15,191.057 173.478,192.36 175.896,192.997 C178.313,193.634 181.463,195.013 182.896,196.061 C184.328,197.108 188.875,198.626 193,199.433 C197.125,200.24 202.893,201.832 205.817,202.972 C208.742,204.111 213.242,205.197 215.817,205.386 C229.254,206.37 234.69,214.106 228.424,223.327 C226.361,226.363 225.315,227.057 223.174,226.809 C221.166,226.577 220.43,225.878 220.22,224 C219.547,217.987 219.006,217 216.385,217 C214.968,217 212.614,216.346 211.154,215.546 C209.694,214.746 206.25,213.596 203.5,212.989 C200.75,212.383 196.925,211.533 195,211.101 C193.075,210.67 187.978,208.895 183.674,207.158 C179.37,205.421 175.32,204.004 174.674,204.008 C174.028,204.013 169.815,202.379 165.312,200.377 C160.808,198.376 156.418,197.01 155.555,197.341 C154.177,197.869 153.991,201.617 154.025,228.221 C154.055,251.334 154.081,257.916 153.718,264.475 C153.55,267.51 153.299,270.539 152.926,275.198 C151.885,288.209 150.175,293 146.574,293 C144.992,293 143.443,292.079 142.434,290.539 C140.963,288.295 140.957,287.483 142.369,281.278 C145.586,267.131 146.898,193.498 143.984,190.584 C142.885,189.485 138,191.435 138,192.974 C138,194.179 126.883,208.891 124.002,211.498 C122.901,212.495 122,213.687 122,214.147 C122,215.783 112.973,225.562 106,231.481 C97.499,238.697 89.06,241.187 85.921,237.405 C83.898,234.967 86.677,230.601 90.532,230.162 C95.981,229.542 104.856,221.372 115.504,207.173 C116.606,205.703 119.419,202.097 121.754,199.16 C124.089,196.223 126,193.22 126,192.487 C126,191.754 127.05,189.881 128.332,188.327 C129.615,186.772 131.356,184.15 132.202,182.5 C133.047,180.85 134.697,177.639 135.869,175.364 C137.041,173.089 138,170.639 138,169.919 C138,169.199 139.124,167.436 140.497,166.003 C142.886,163.51 142.956,163.087 142.109,156.34 C141.622,152.46 141.44,148.148 141.706,146.759 C142.298,143.66 140.462,142.32 138.187,144.192 C133.075,148.396 114.789,154.097 102,155.474 C97.516,155.957 95,153.767 95,149.38 C95,145.168 97.071,144.01 104.684,143.967 C107.92,143.949 112.94,143.047 116,141.934 C119.025,140.834 125.1,138.759 129.5,137.324 C133.9,135.888 138.378,133.888 139.452,132.878 C141.19,131.241 141.29,130.49 140.368,125.988 C139.195,120.262 139.213,112.822 140.409,108.75 C141.105,106.382 140.932,106 139.167,106 C138.04,106 136.84,106.45 136.5,107 C135.574,108.499 132.885,108.206 130.876,106.388 C129.606,105.239 129.263,103.934 129.681,101.845 C130.119,99.656 129.709,98.319 128.064,96.568 C125.949,94.317 125.859,93.421 125.8,74.125 C125.728,50.722 125.657,50.531 118.346,53.967 C114.374,55.834 113.324,55.976 111.337,54.913 C110.008,54.202 109,52.741 109,51.527 C109,48.846 114.601,43.36 118.259,42.459 C121.902,41.561 122.701,38.125 120.567,32.536 C119.504,29.752 119.005,26.038 119.198,22.33 L119.5,16.5 L123,16.5 C126.289,16.5 126.578,16.771 127.799,21 C131.12,32.505 132.51,36 133.766,36 C134.509,36 136.907,34.562 139.095,32.804 L143.072,29.607 L142.4,21.32 C141.91,15.284 142.069,12.621 142.986,11.517 Z M54.5,61.155 C55.6,60.553 56.99,60.047 57.589,60.03 C59.307,59.982 64.352,66.025 68.03,72.538 L71.398,78.5 L71.802,95.366 C72.198,111.893 70.667,126.029 67.917,131.236 C67.413,132.191 67.002,133.991 67.005,135.236 C67.008,136.481 66.368,139.525 65.584,142 C61.364,155.323 60.779,158.245 62.157,159.123 C62.896,159.594 64.175,159.704 65,159.368 C65.825,159.033 68.615,158.532 71.2,158.256 C75.592,157.788 75.943,157.923 76.544,160.321 C77.684,164.862 75.163,166.5 64.008,168.465 C56.684,169.755 56.235,170.267 53.449,180.5 C52.551,183.8 50.957,188.23 49.908,190.345 C48.859,192.459 48,194.717 48,195.362 C48,196.008 46.875,198.191 45.5,200.215 C44.125,202.238 43,204.489 43,205.217 C43,207.002 34.977,217.627 32.115,219.632 C28.798,221.955 23.611,220.374 23.203,216.915 C22.971,214.952 23.968,213.495 27.703,210.342 C32.549,206.249 40,194.093 40,190.279 C40,189.246 40.374,187.973 40.831,187.45 C41.288,186.928 42.484,183.688 43.489,180.25 C44.494,176.813 45.695,174 46.158,174 C46.621,174 47,173.092 47,171.983 C47,170.873 48.336,166.036 49.969,161.233 C58.092,137.341 63.201,112.249 63.048,97 C62.99,91.263 61.32,83.185 59.853,81.55 C59.384,81.027 59,79.921 59,79.092 C59,78.263 57.508,75.99 55.685,74.042 C49.544,67.48 49.228,64.038 54.5,61.155 Z M30.78,92.703 C33.793,89.35 37.195,90.893 40.258,97 C43.777,104.017 48.634,109.677 52.204,110.921 C53.742,111.457 55,112.108 55,112.366 C55,114.499 53.175,116.145 49.803,117.053 C46.264,118.006 45.42,117.865 42.369,115.814 C33.798,110.051 27.133,96.76 30.78,92.703 Z M87.655,68.829 C91.023,65.107 98,67.686 98,72.652 C98,76.293 92.267,87.547 88.184,91.92 C83.768,96.649 79.68,98.525 78.056,96.567 C76.641,94.863 77.787,91.984 82.431,85.574 C85.389,81.491 86,79.793 86,75.653 C86,72.408 86.58,70.017 87.655,68.829 Z M139.253,45.75 C136.358,48.261 136.049,49.108 135.691,55.5 C135.476,59.35 134.955,63.513 134.534,64.75 C133.37,68.163 135.794,67.55 140.893,63.143 C145.232,59.392 145.29,59.257 145.681,52.006 C145.965,46.746 145.713,44.434 144.789,43.848 C142.923,42.664 142.739,42.728 139.253,45.75 Z M134.432,76.902 C133.667,77.666 133.973,93.865 134.761,94.352 C135.758,94.969 138.012,93.193 140.773,89.615 C142.425,87.476 143,85.377 143,81.493 L143,76.256 L138.932,76.363 C136.694,76.422 134.669,76.664 134.432,76.902 Z"/>
</svg>

