<svg xmlns="http://www.w3.org/2000/svg" width="300" height="300" viewBox="0 0 300 300" version="1.1">
  <defs/>
  <path d="M164.5,20.805 C169.45,18.197 173.915,16.049 174.421,16.032 C175.807,15.984 179,19.136 179,20.551 C179,22.004 172.435,28 170.844,28 C169.603,28 153.7,37.104 150.137,39.855 L147.774,41.679 L148.508,57.339 C149.064,69.194 149.56,73 150.55,73 C152.037,73 155,70.311 155,68.961 C155,67.268 165.504,60.327 171.339,58.164 C178.858,55.377 182.105,55.418 184.844,58.333 L187.036,60.667 L183.018,69.719 C180.808,74.697 179,79.696 179,80.826 C179,81.957 178.55,83.16 178,83.5 C177.45,83.84 177,84.9 177,85.856 C177,88.099 170.99,93.847 164,98.289 C160.975,100.212 157.15,102.958 155.5,104.391 C153.85,105.825 151.577,106.998 150.45,106.999 C147.053,107.001 146,109.046 146,115.641 C146,119.074 145.55,122.16 145,122.5 C143.519,123.415 143.787,127 145.336,127 C146.071,127 148.793,125.348 151.385,123.328 C155.162,120.385 157.182,119.567 161.563,119.203 C166.81,118.768 167.167,118.898 170.512,122.445 C172.429,124.476 174.25,127.345 174.559,128.819 C174.868,130.294 175.544,132.281 176.06,133.236 C176.577,134.191 177,136.004 177,137.264 C177,138.524 177.725,140.59 178.611,141.855 C180.019,143.866 180.21,148.375 180.127,177.728 C180.053,204.189 179.745,211.746 178.674,213.401 C177.928,214.555 177.014,216.729 176.644,218.231 C175.597,222.483 169.513,228 165.871,228 C160.19,228 153.087,221.499 153.033,216.25 C152.992,212.208 154.419,212.158 158.962,216.041 C166.688,222.644 168.94,218.777 170.636,196 C172.729,167.88 172.229,156.635 168.387,145.467 C167.624,143.248 167,140.462 167,139.276 C167,138.089 166.55,136.84 166,136.5 C165.45,136.16 165,135.057 165,134.048 C165,132.248 163.154,131 160.489,131 C158.871,131 153.517,136.077 149.68,141.25 C147.583,144.077 146.187,145 144.008,145 C142.419,145 140.843,145.445 140.507,145.988 C139.581,147.487 137,157.833 137,160.049 C137,162.392 137.103,162.402 141.654,160.5 C143.629,159.675 147.049,159 149.254,159 C153.964,159 160,162.347 160,164.959 C160,165.947 160.675,167.315 161.5,168 C163.857,169.956 163.347,175.856 160.5,179.589 C159.125,181.392 157.992,183.684 157.983,184.683 C157.974,185.682 156.399,189.65 154.484,193.5 C152.569,197.35 151.002,200.846 151.001,201.27 C151,201.693 149.792,203.943 148.315,206.27 C146.838,208.596 143.906,213.779 141.8,217.787 C136.297,228.259 135.712,229.252 133.576,231.75 C130.105,235.809 123.997,233.477 124.002,228.095 C124.005,225.363 140.053,197.547 148.866,184.998 L153.916,177.806 L151.713,174.826 C149.686,172.084 149.166,171.898 145.193,172.494 C140.403,173.212 138,171.979 138,168.804 C138,167.486 137.433,166.962 136.25,167.187 C134.981,167.429 134.311,168.893 133.814,172.51 C132.662,180.889 131.427,186.393 130.184,188.684 C129.533,189.886 129,191.804 129,192.948 C129,194.091 128.613,195.809 128.141,196.764 C127.668,197.719 126.512,200.975 125.571,204 C123.444,210.833 119.621,218.946 115.417,225.543 C111.545,231.619 109.533,233.418 107.488,232.634 C105.448,231.851 106.338,228.35 110.657,220.167 C112.496,216.684 114.014,212.859 114.032,211.667 C114.049,210.475 114.724,208.626 115.532,207.559 C116.339,206.491 117,204.723 117,203.63 C117,201.5 118.693,195.597 120.11,192.784 C120.948,191.121 122.608,185.115 123.644,180 C123.923,178.625 124.531,176.6 124.996,175.5 C125.461,174.4 126.102,171.295 126.422,168.601 C126.741,165.906 127.399,163.206 127.883,162.601 C128.367,161.995 129.019,159.925 129.333,158 C131.28,146.039 131.891,142.986 132.549,141.92 C132.955,141.264 133.687,137.751 134.176,134.114 C134.665,130.476 135.524,124.8 136.085,121.5 C136.646,118.2 137.485,111.675 137.949,107 C138.413,102.325 139.342,96.025 140.012,93 C142.321,82.582 139.415,48 136.231,48 C135.482,48 133.961,48.486 132.851,49.08 C131.264,49.929 130.415,49.781 128.873,48.385 C126.315,46.07 126.838,43.047 130.136,41.076 C131.586,40.209 137.886,36.361 144.136,32.524 C150.386,28.687 159.55,23.414 164.5,20.805 Z M211,94 C213.526,91.474 214.259,91.496 218.42,94.224 C221.99,96.564 225,102.003 225,106.114 C225,107.456 225.613,109.443 226.363,110.527 C228.486,113.601 229.007,117.009 231.857,146.5 C232.283,150.9 233.164,155.767 233.815,157.315 C235.665,161.71 235.454,220.57 233.569,226.215 C232.782,228.572 231.994,231.817 231.819,233.426 C231.458,236.734 227.224,239.806 222.858,239.927 C219.193,240.028 207.644,229.244 204.988,223.239 C202.595,217.83 202.501,216.129 204.55,215.343 C205.601,214.939 208.298,217.081 212.93,221.997 C219.895,229.389 222.219,230.309 222.846,225.922 C223.036,224.59 223.539,223.05 223.963,222.5 C224.988,221.171 226.502,195.433 226.405,181 C226.325,169.025 224.734,153.954 223.319,151.767 C222.869,151.07 222.195,145.55 221.822,139.5 C221.45,133.45 220.662,126.362 220.072,123.75 C219.483,121.138 218.632,117.088 218.183,114.75 C217.253,109.911 215.082,106 213.328,106 C212.018,106 206.31,111.858 197.493,122.25 C191.466,129.353 191.023,129.618 187.934,127.965 C183.752,125.727 185.822,119.766 193.891,110.807 C195.756,108.737 197.992,106.02 198.86,104.771 C201.863,100.449 206.327,96 207.661,96 C208.397,96 209.9,95.1 211,94 Z M73.671,62.811 C75.744,60.52 76.275,60.542 78.506,63.007 C82.44,67.353 85.747,74.419 87.638,82.517 C89.511,90.542 89.659,111.53 87.933,124.5 C87.347,128.9 86.638,135.227 86.357,138.561 L85.846,144.621 L89.673,147.086 C91.778,148.441 94.4,150.038 95.5,150.634 C96.789,151.332 97.5,152.746 97.5,154.609 C97.5,157.349 97.291,157.489 93.5,157.297 C91.3,157.186 87.691,156.811 85.481,156.464 C81.609,155.857 81.417,155.959 80.231,159.238 C79.554,161.11 79,163.586 79,164.74 C79,165.894 78.351,168.112 77.558,169.669 C76.764,171.226 75.17,175.008 74.014,178.073 C71.266,185.358 60.407,196.581 57.117,195.537 C54.701,194.77 54.455,193.719 56.25,191.821 C58.91,189.01 66.002,177.607 66.032,176.094 C66.049,175.217 66.724,173.626 67.532,172.559 C68.339,171.491 69,169.798 69,168.795 C69,167.793 69.408,166.191 69.908,165.236 C71.245,162.679 74,153.056 74,150.944 C74,149.94 74.45,148.84 75,148.5 C75.55,148.16 76,145.685 76,143 C76,140.315 76.45,137.84 77,137.5 C77.55,137.16 78,134.644 78,131.909 C78,129.174 78.675,125.32 79.5,123.346 C81.697,118.088 81.607,92.319 79.368,85.5 C77.509,79.837 76.449,76.995 74.985,73.75 C72.389,67.996 71.99,64.669 73.671,62.811 Z M216.68,156.282 C217.568,155.612 218.678,155.301 219.147,155.591 C220.273,156.287 220.248,169.539 219.117,171.764 C218.631,172.719 217.618,174.85 216.867,176.5 C216.115,178.15 214.977,180.055 214.337,180.734 C213.698,181.413 211.111,185.072 208.589,188.866 C203.556,196.437 196.933,203 194.326,203 C191.329,203 189,199.912 189,195.938 C189,192.665 189.633,191.657 193.956,188.037 C200.863,182.254 209.064,170.908 213.499,161 C214.36,159.075 215.792,156.952 216.68,156.282 Z M199.112,149.75 C204.605,145.908 207.662,145.214 211.066,147.035 C212.37,147.733 212.994,149.118 212.982,151.285 C212.962,154.823 210.28,157.504 199.841,164.416 C192.803,169.075 189.897,168.966 188.802,164 C187.752,159.234 188.56,156.352 191.382,154.802 C192.685,154.086 196.164,151.813 199.112,149.75 Z M165.5,72.247 C163.85,73.447 162.275,74.692 162,75.013 C160.285,77.014 154.987,79.876 152.469,80.162 C149.582,80.491 149.479,80.692 148.734,87.434 C147.668,97.09 148.801,97.834 155.658,91.978 C160.492,87.85 171.256,73.11 170.63,71.478 C169.88,69.524 169.076,69.644 165.5,72.247 Z M54.375,86.466 C54.899,85.1 55.806,84.867 58.768,85.337 C63.129,86.031 65.78,88.807 71.314,98.476 C74.359,103.797 74.889,105.429 73.942,106.57 C71.765,109.193 69.475,108.053 63.464,101.359 C56.264,93.341 53.484,88.786 54.375,86.466 Z M97.062,71.426 C98.504,69.688 102.165,69.565 103.8,71.2 C107.049,74.449 103.687,84.228 98.465,86.718 C94.135,88.783 91.966,87.429 93.742,83.77 C95.165,80.839 96.388,75.868 96.102,74.176 C95.979,73.448 96.411,72.21 97.062,71.426 Z"/>
</svg>

