<svg xmlns="http://www.w3.org/2000/svg" width="300" height="300" viewBox="0 0 300 300" version="1.1">
  <defs/>
  <path d="M61.121,44.354 C61.781,43.559 62.96,43.154 63.742,43.454 C64.524,43.755 65.802,44 66.582,44 C67.593,44 68,45.273 68,48.435 C68,59.266 72.351,61.215 75.381,51.741 C75.691,50.774 77.063,49.473 78.431,48.849 C80.431,47.938 81.411,48.039 83.438,49.368 C86.572,51.421 90,58.741 90,63.38 C90,65.299 90.452,68.059 91.005,69.513 C92.582,73.661 92.804,129.594 91.25,131.149 C90.563,131.837 90,133.38 90,134.578 C90,137.974 87.463,139.586 84.561,138.033 C81.527,136.409 80,137.381 80,140.937 C80,142.487 79.325,144.315 78.5,145 C77.675,145.685 77,147.063 77,148.063 C77,150.13 75.905,150.991 71.164,152.653 C68.221,153.686 67.634,153.588 66.164,151.82 C65.249,150.719 63.543,149.441 62.374,148.981 C59.511,147.854 59.11,144.281 60.138,129.059 C60.605,122.151 60.747,100.592 60.454,81.15 C60.052,54.468 60.216,45.445 61.121,44.354 Z M122.263,11.25 C123.674,9.454 125.249,9.693 129.102,12.288 C132.176,14.359 132.576,15.193 133.297,21.038 C133.735,24.592 133.824,32.337 133.493,38.25 C132.794,50.761 133.122,51.096 140.82,45.75 C151.948,38.022 159.037,37.722 164.665,44.742 C170.794,52.385 172.59,60.378 173.374,83.5 C173.913,99.399 171.129,129.979 168.723,134.594 C167.836,136.295 166.79,140.1 166.399,143.05 C165.837,147.287 164.927,149.228 162.064,152.297 C158.828,155.766 157.89,156.199 153.303,156.341 C149.083,156.472 147.68,156.053 145.447,154 C139.811,148.816 137,143.931 137,139.319 C137,132.158 141.01,132.286 144.46,139.557 C148.481,148.031 154.608,147.609 156.871,138.702 C162.723,115.665 163.198,111.727 163.1,87.114 C163.03,69.541 161.883,61.629 158.544,55.674 C156.035,51.201 153.992,50.205 150.619,51.811 C149.453,52.366 146.455,53.756 143.956,54.9 C141.342,56.096 137.347,59.321 134.554,62.49 C131.882,65.52 129.084,68 128.335,68 C127.586,68 126.116,68.535 125.068,69.19 C123.573,70.123 122.821,70.097 121.581,69.067 C119.885,67.66 119.362,60.512 120.887,59.57 C121.374,59.269 122.09,57.33 122.476,55.261 C122.863,53.192 123.657,50.922 124.241,50.215 C124.936,49.374 125.089,44.952 124.684,37.386 C124.195,28.27 123.637,25.149 122.031,22.551 C119.95,19.183 120.055,14.062 122.263,11.25 Z M193,181.939 C196.253,180.807 203.269,181.571 206.906,183.451 C212.305,186.243 219,194.804 219,198.914 C219,199.841 219.51,201.11 220.133,201.733 C222.091,203.691 219.413,226.818 216.453,233.51 C215.104,236.561 213.994,239.607 213.987,240.279 C213.968,242.118 208.584,252.367 205.541,256.358 C202.321,260.579 197.606,262.035 195.141,259.569 C193.623,258.052 193.641,257.695 195.381,254.716 C196.414,252.947 198.349,249.475 199.682,247 C201.014,244.525 202.531,242.073 203.052,241.55 C203.574,241.028 204,239.826 204,238.881 C204,237.936 204.636,235.888 205.413,234.331 C206.849,231.453 209.428,220.885 210.534,213.345 C211.2,208.806 209.552,202.744 206.027,196.771 C204.295,193.835 202.997,192.959 198.936,191.985 C196.202,191.329 192.96,191.059 191.732,191.385 C190.505,191.712 185.023,196.037 179.552,200.997 L169.603,210.016 L164.552,209.365 C160.626,208.859 158.765,207.966 156.202,205.357 C154.388,203.511 152.495,202 151.995,202 C151.496,202 149.155,200.181 146.793,197.958 C144.432,195.735 141.035,193.282 139.244,192.506 C136.078,191.136 133.393,186.792 134.552,184.916 C134.863,184.412 137.225,184 139.8,184 C143.547,184 145.534,184.724 149.741,187.622 C152.634,189.614 155,191.615 155,192.068 C155,192.934 165.182,200 166.429,200 C167.45,200 178.099,191.69 180.488,189.03 C182.447,186.849 188.111,183.639 193,181.939 Z M133.152,78.275 C134.993,77.686 136.693,77.158 136.929,77.102 C137.165,77.046 138.838,77.535 140.647,78.189 C143.772,79.319 144.806,80.838 147.049,87.597 C148.185,91.019 146.148,100.815 142.967,107.226 C139.79,113.629 139.367,115.967 141.078,117.678 C141.671,118.271 142.009,120.049 141.828,121.628 C141.547,124.093 140.366,125.095 133.5,128.693 C129.1,130.999 124.501,133.428 123.28,134.09 C120.329,135.69 118.279,134.002 117.385,129.239 C116.785,126.041 117.058,125.401 120.073,122.941 L123.428,120.202 L120.208,117.194 C118.436,115.539 116.712,112.812 116.376,111.132 C116.041,109.453 114.019,106.186 111.883,103.873 C105.314,96.757 106.951,90.097 114.956,91.377 C118.451,91.936 119.106,91.707 120.7,89.365 C124.031,84.473 129.779,79.354 133.152,78.275 Z M32.61,195.751 C39.471,195.068 43.477,196.745 49.256,202.715 C53.842,207.454 61,220.896 61,224.769 C61,227.746 59.437,230 57.373,230 C56.699,230 54.747,227.637 53.037,224.75 C47.747,215.821 40.69,207.695 37.481,206.837 C35.826,206.394 32.849,206.502 30.691,207.083 C25.901,208.373 24,207.069 24,202.493 C24,198.565 26.865,196.322 32.61,195.751 Z M76.73,105.068 C75.756,105.648 74.111,105.853 73.074,105.524 C70.997,104.864 70.338,107.207 69.565,118 C69.348,121.025 68.856,126.695 68.471,130.599 C67.844,136.96 67.964,137.772 69.627,138.41 C71.517,139.136 74.982,136.068 75.016,133.639 C75.024,133.013 76.829,130.475 79.027,128 C83.866,122.549 84.178,121.502 83.799,111.988 C83.513,104.823 83.392,104.49 81,104.257 C79.625,104.123 77.703,104.488 76.73,105.068 Z M75,62.455 C75,64.31 74.279,65.323 72.473,66.01 L69.946,66.971 L70.056,81.986 C70.176,98.308 70.819,99.872 75,94 C76.577,91.785 77.938,91 80.197,91 L83.257,91 L82.534,79.75 C82.136,73.563 81.443,68.05 80.994,67.5 C80.545,66.95 80.025,65.15 79.838,63.5 C79.588,61.279 78.916,60.417 77.25,60.18 C75.413,59.92 75,60.337 75,62.455 Z M83.655,183.829 C87.262,179.843 94.957,182.299 112.435,193.018 C117.146,195.907 121,198.623 121,199.053 C121,202.823 118.033,204.033 114.473,201.717 C113.388,201.011 110.7,199.856 108.5,199.151 C103.499,197.547 101.888,196.897 94.813,193.628 C91.685,192.182 88.063,191 86.763,191 C82.26,191 80.61,187.193 83.655,183.829 Z M129.074,94.546 C126.227,98.764 126.032,99.612 126.37,106.296 C126.678,112.39 127.008,113.5 128.508,113.5 C130.404,113.5 130.481,113.387 134.256,105 C138.826,94.845 138.906,90 134.503,90 C132.817,90 131.264,91.301 129.074,94.546 Z M125.481,189.263 C128.005,187.092 128.435,187.006 129.824,188.396 C131.214,189.785 131.184,190.139 129.528,191.969 C128.517,193.086 126.886,194 125.904,194 C122.756,194 122.557,191.778 125.481,189.263 Z"/>
</svg>

