<svg xmlns="http://www.w3.org/2000/svg" width="300" height="300" viewBox="0 0 300 300" version="1.1">
  <defs/>
  <path d="M153,1.878 C153,0.285 153.778,0 158.131,0 L163.262,0 L162.544,3.75 C162.149,5.813 161.49,9.389 161.079,11.697 C160.669,14.005 159.878,16.48 159.322,17.197 C158.765,17.914 157.742,20.75 157.047,23.5 C156.352,26.25 155.157,29.918 154.391,31.651 C153.626,33.384 153,35.432 153,36.201 C153,36.971 152.499,38.101 151.887,38.713 C150.496,40.104 151.577,42 153.763,42 C156.045,42 173.134,50.418 176.631,53.265 C178.209,54.549 181.797,57.045 184.605,58.812 C187.413,60.578 190.521,62.918 191.51,64.011 C192.5,65.105 193.743,66 194.273,66 C195.468,66 204.023,73.049 216.349,84.191 C222.713,89.943 231.975,101.635 231.99,103.936 C232.004,105.969 227.98,110 225.936,110 C224.993,110 223.212,109.182 221.978,108.183 C220.085,106.651 219.913,106.031 220.878,104.227 C221.916,102.288 221.175,101.27 212.921,93.294 C207.915,88.457 202.397,83.704 200.659,82.731 C198.922,81.758 195.475,79.401 193,77.495 C186.956,72.838 178.148,67 177.168,67 C176.731,67 175.062,65.63 173.458,63.956 C170.069,60.419 165.253,60.068 165.828,63.4 C166.211,65.614 157.223,74.509 152.5,76.592 C150.85,77.319 148.15,78.831 146.5,79.951 C142.864,82.419 139.425,82.582 138.173,80.346 C136.967,78.19 134,79.302 134,81.91 C134,82.994 133.61,84.123 133.133,84.418 C132.656,84.713 132.041,86.948 131.766,89.386 C131.491,91.823 130.337,95.122 129.202,96.716 C128.067,98.311 126.371,101.531 125.434,103.872 C123.952,107.578 123.91,108.477 125.114,110.815 C127.876,116.178 129.918,115.768 135.5,108.727 C137.7,105.952 143.265,101.082 147.868,97.904 C152.47,94.727 157.195,91.236 158.368,90.146 C163.596,85.287 181.844,82.012 186.72,85.057 C189.414,86.74 191,90.169 191,94.311 C191,104.235 176.993,126.892 170.811,126.967 C168.294,126.998 168.133,127.269 168.311,131.191 C168.499,135.363 168.472,135.397 162.365,138.586 C158.99,140.349 154.911,142.08 153.3,142.434 C151.688,142.788 147.699,145.299 144.435,148.013 C137.87,153.473 136.163,153.943 133.515,151.017 C132.065,149.414 131.84,148.02 132.342,143.746 C132.878,139.189 132.694,138.29 131.011,137.239 C129.938,136.569 128.155,134.103 127.051,131.76 C124.31,125.945 119.616,120.55 117.877,121.217 C117.102,121.514 115.849,123.05 115.094,124.629 C114.338,126.208 112.995,129.036 112.11,130.913 C111.224,132.791 108.85,136.087 106.834,138.238 C104,141.261 102.547,142.075 100.435,141.825 C97.161,141.436 95.046,138.64 96.505,136.629 C97.052,135.875 99.325,132.838 101.555,129.879 C103.786,126.921 106.657,122.475 107.935,120 C109.214,117.525 112.247,111.675 114.675,107 C117.104,102.325 120.213,95.125 121.585,91 C122.957,86.875 124.787,81.925 125.65,80 C126.514,78.075 128.133,74.475 129.247,72 C132.337,65.132 132.795,63.928 134.565,58 C135.469,54.975 137.286,50.125 138.604,47.223 C139.922,44.32 141.002,41.395 141.004,40.723 C141.006,40.05 142.131,37.286 143.504,34.581 C144.877,31.875 146,28.532 146,27.152 C146,24.568 147.573,18.83 149.123,15.764 C149.605,14.809 150,12.276 150,10.136 C150,7.897 150.637,5.716 151.5,5 C152.325,4.315 153,2.91 153,1.878 Z M156,162.722 C156.825,162.412 160.297,162.122 163.715,162.079 C169.224,162.009 170.311,162.334 173.276,164.937 C180.14,170.964 181.922,178.381 182.419,203 C182.627,213.308 182.622,216.171 183.738,216.709 C184.223,216.943 184.921,216.737 185.941,216.513 C188.922,215.858 193,217.296 193,219.002 C193,219.514 190.982,222.205 188.516,224.982 C183.931,230.144 180,237.083 180,240.014 C180,240.914 178.88,242.704 177.51,243.99 C175.093,246.261 174.962,246.276 173.01,244.509 C171.905,243.509 171,242.111 171,241.404 C171,240.697 170.599,239.87 170.109,239.567 C169.077,238.93 160.376,242.583 159.482,244.028 C159.152,244.563 158.156,245 157.27,245 C151.553,245 149.977,235.295 154.815,229.881 C157.27,227.133 157.906,226.879 159.794,227.89 C162.933,229.57 166.537,228.291 170.101,224.232 C172.865,221.085 173.172,220.138 172.773,215.99 C172.222,210.251 169.399,206.074 166.042,206.031 C164.536,206.012 162.143,207.408 159.863,209.634 C155.78,213.621 154.098,213.605 151.443,209.553 C149.804,207.052 149.848,206.909 153.548,202.749 C158.628,197.039 163.785,193.889 167.5,194.227 C170.332,194.485 170.519,194.275 170.837,190.5 C171.202,186.178 169.283,176.308 167.67,174.202 C167.042,173.382 164.984,173.014 162.088,173.202 C158.127,173.459 157.295,173.91 155.998,176.5 C155.172,178.15 153.54,180.85 152.371,182.5 C151.163,184.207 149.768,188.517 149.137,192.5 C148.132,198.836 146.591,226.689 146.89,233.115 C147.024,235.996 144.601,242.511 143.036,243.478 C142.489,243.816 141.069,243.572 139.881,242.936 C137.73,241.785 137.723,241.667 138.262,215.64 C138.559,201.263 138.361,184.476 137.821,178.335 C136.682,165.392 137.339,163 142.035,163 C143.686,163 145.904,163.904 147.04,165.04 C149.052,167.052 149.117,167.053 151.79,165.182 C153.28,164.139 155.175,163.032 156,162.722 Z M69.238,53.162 C71.582,50.818 74.425,52.363 77.227,57.5 C78.726,60.25 79.967,63.175 79.983,64 C79.999,64.825 80.65,66.723 81.43,68.218 C82.21,69.713 83.152,73.538 83.524,76.718 C83.896,79.898 84.611,84.433 85.114,86.795 C87.08,96.026 83.078,124.279 76.93,144.571 C76.419,146.26 75.986,148.51 75.968,149.571 C75.951,150.632 75.276,152.374 74.468,153.441 C73.661,154.509 73,156.871 73,158.691 C73,161.843 73.177,162 76.717,162 C83.038,162 96.952,168.33 99.397,172.318 C100.278,173.754 100.108,174.408 98.559,175.559 C96.454,177.122 90,177.549 90,176.125 C90,175.644 88.763,174.998 87.25,174.69 C85.737,174.382 82.7,173.351 80.5,172.399 C78.3,171.448 74.592,170.54 72.26,170.382 C67.627,170.069 66,171.61 66,176.312 C66,177.656 65.325,179.315 64.5,180 C63.675,180.685 63,182.096 63,183.136 C63,184.176 62.603,185.809 62.117,186.764 C61.631,187.719 60.678,189.85 60,191.5 C54.092,205.87 42.021,221.327 34.09,224.677 C30.56,226.169 28.854,226.454 28.08,225.68 C26.099,223.699 26.956,222.079 33.061,216.269 C36.395,213.096 41.112,207.461 43.544,203.746 C48.427,196.287 54,184.963 54,182.502 C54,181.632 54.888,179.18 55.973,177.053 C58.412,172.272 60.966,165.047 60.985,162.872 C60.993,161.977 61.675,160.685 62.5,160 C63.325,159.315 64,157.712 64,156.437 C64,155.161 64.4,153.871 64.89,153.568 C65.379,153.266 66.012,151.552 66.296,149.759 C66.581,147.967 67.333,144.7 67.968,142.5 C69.998,135.462 72.004,125.711 72.979,118.147 C73.5,114.103 74.425,110.193 75.034,109.459 C76.852,107.269 76.481,83.832 74.571,80.138 C73.707,78.467 73,76.396 73,75.536 C73,74.676 72.564,73.191 72.032,72.236 C68.521,65.943 66.98,55.42 69.238,53.162 Z M170,97.591 C162.479,99.587 158,101.81 158,103.547 C158,105.253 161.113,105.487 162.699,103.901 C164.257,102.343 167.456,103.616 168.936,106.38 C170.328,108.981 169.041,112.457 164.382,118.683 C163.072,120.434 162,122.199 162,122.605 C162,123.01 161.281,124.137 160.402,125.108 C157.952,127.815 159.456,128.951 163.603,127.526 C166.401,126.564 167.783,125.184 169.664,121.474 C171.004,118.831 172.88,115.506 173.833,114.084 C174.787,112.663 176.862,108.709 178.445,105.297 C180.838,100.138 181.107,98.833 180.039,97.547 C178.494,95.686 177.157,95.692 170,97.591 Z M49.75,90.324 C53.784,87.021 56.441,87.393 59.699,91.717 C61.24,93.761 63.07,96.124 63.767,96.967 C70.675,105.324 71.12,106.045 70.526,107.919 C69.073,112.497 64.309,111.366 58.415,105.043 C56.812,103.323 53.587,101.06 51.25,100.014 C47.731,98.44 47,97.636 47,95.344 C47,93.536 47.954,91.794 49.75,90.324 Z M144.609,56.02 C143.724,58.231 143,60.754 143,61.625 C143,62.497 141.875,65.449 140.5,68.187 C139.125,70.924 138,73.352 138,73.582 C138,75.881 150.039,67.871 152.909,63.662 C153.721,62.473 154.68,61.275 155.042,61 C156.427,59.948 158.065,55.915 157.487,54.979 C157.154,54.441 156.035,54 155,54 C153.965,54 152.84,53.55 152.5,53 C152.16,52.45 150.607,52 149.05,52 C146.676,52 145.957,52.651 144.609,56.02 Z M92.003,68.75 C92.855,66.973 94.106,66 95.538,66 C99.328,66 100.307,68.305 99.544,75.431 C98.917,81.29 98.531,82.12 95.288,84.594 C92.55,86.682 91.347,87.073 90.111,86.276 C89.225,85.705 88.601,84.397 88.724,83.369 C89.43,77.493 90.852,71.153 92.003,68.75 Z M135.579,121.75 C135.274,122.713 135.466,126.201 136.006,129.5 C136.546,132.8 136.991,135.613 136.994,135.75 C137.022,136.957 140.241,135.525 141.487,133.75 C144.52,129.432 148,123.907 148,123.41 C148,123.135 146.458,123.199 144.574,123.552 C141.834,124.066 140.788,123.775 139.351,122.097 C137.163,119.542 136.305,119.463 135.579,121.75 Z M145.345,110.543 C145.019,111.392 144.969,112.302 145.233,112.567 C146.124,113.458 149,111.798 149,110.393 C149,108.501 146.083,108.62 145.345,110.543 Z"/>
</svg>

