<svg xmlns="http://www.w3.org/2000/svg" width="300" height="300" viewBox="0 0 300 300" version="1.1">
  <defs/>
  <path d="M77.5,38.659 C83.725,36.816 89.226,36.626 90.8,38.2 C92.127,39.527 92.392,44.836 91.223,46.673 C90.813,47.318 88.457,48.668 85.989,49.673 C77.836,52.991 77.717,53.125 79.571,56.841 C80.684,59.073 81.079,61.987 80.843,66.231 L80.5,72.385 L85.589,72.127 C90.319,71.887 90.901,72.123 93.839,75.469 C96.606,78.621 97,79.789 97,84.844 C97,89.669 96.425,91.573 93.5,96.43 C91.575,99.627 90,103.45 90,104.925 C90,107.712 85.224,113.103 81.634,114.368 C79.968,114.956 79.84,115.745 80.441,121.763 C81.43,131.657 81.465,134.317 80.633,136.121 C79.549,138.47 81.846,138.999 88.644,137.968 C91.865,137.479 99.317,136.587 105.204,135.987 C114.696,135.018 116.197,135.083 118.454,136.562 C121.316,138.437 121.678,140.69 119.581,143.559 C118.356,145.234 116.814,145.519 108.331,145.638 C102.924,145.714 96.475,146.354 94,147.061 C91.214,147.856 83.215,148.374 73,148.42 C54.049,148.505 51.365,147.659 47.873,140.5 C47.454,139.641 47.117,139.006 46.872,138.338 C45.899,135.682 46.384,132.491 48.961,112.5 C49.734,106.505 49.497,78.917 48.593,69.534 C48.086,64.279 49.107,62 51.967,62 C54.75,62 56.554,65.027 58.347,72.705 C59.273,76.668 59.97,80.268 59.897,80.705 C59.161,85.09 61.451,84.942 66.208,80.297 L70,76.594 L70,67.356 C70,62.021 69.559,57.846 68.957,57.473 C68.383,57.119 66.321,58.044 64.374,59.529 C60.873,62.199 60.792,62.21 57.098,60.544 C53.581,58.958 53.148,58.962 49.703,60.605 C46.2,62.275 45.958,62.272 44.022,60.52 C40.31,57.161 41.409,54.702 48.721,50.007 C56.724,44.869 62.33,42.289 68.185,41.051 C70.558,40.55 74.75,39.473 77.5,38.659 Z M143.758,46.545 C146.366,45.832 148.749,45.192 149.054,45.124 C149.358,45.056 151.042,46.48 152.796,48.289 L155.984,51.578 L154.582,58.039 C153.213,64.345 151.457,68.364 146.516,76.5 C143.703,81.132 143.222,84.513 145.5,83.638 C147.499,82.871 150,83.902 150,85.493 C150,86.976 135.773,99.691 132.386,101.234 C129.466,102.564 128.615,106.475 130.026,112.083 C130.638,114.512 131.382,117.501 131.681,118.725 C133.377,125.677 140.128,127.689 158.596,126.746 C166.908,126.322 169.693,125.767 173.184,123.835 L177.5,121.449 L177.369,115.474 C177.297,112.188 176.46,103.875 175.508,97 C173.101,79.61 173.266,77 176.769,77 C179.717,77 180.998,79.088 181.031,83.95 C181.05,86.707 182.032,90.471 183.522,93.5 C184.875,96.25 185.986,99.069 185.991,99.764 C185.996,100.459 186.52,102.034 187.156,103.264 C187.792,104.494 188.692,106.281 189.156,107.236 C189.62,108.191 190,112.042 190,115.792 C190,121.525 189.595,123.16 187.46,126.055 C184.315,130.317 178.416,133.988 174.7,133.995 C173.161,133.998 170.686,134.613 169.2,135.361 C167.484,136.227 162.38,136.793 155.188,136.916 C145.106,137.089 143.003,136.807 135.837,134.321 C120.674,129.061 118.842,124.201 120.422,93.434 C120.878,84.546 120.716,78.951 119.914,75.934 C116.923,64.687 118.974,58.8 124.759,62.031 C126.903,63.229 127.571,64.424 127.825,67.519 C128.003,69.694 128.555,71.964 129.052,72.562 C129.548,73.161 130.061,76.204 130.192,79.325 C130.335,82.741 130.88,85 131.561,85 C133.077,85 144.007,63.14 144.003,60.114 C144,57.857 143.753,57.762 139.441,58.353 C134.385,59.046 128,57.036 128,54.751 C128,52.594 130.179,51 133.129,51 C134.629,51 136.568,50.289 137.437,49.42 C138.305,48.552 141.15,47.258 143.758,46.545 Z M187.532,183.028 C197.449,178.101 205.756,179.485 210.397,186.837 C215.176,194.408 217.263,210.294 215.017,222 C211.87,238.403 205.362,250.838 200.661,249.432 C199.472,249.076 197.914,248.232 197.198,247.555 C195.817,246.25 196.036,245.407 200.06,236.5 C203.234,229.476 205.194,219.01 205.135,209.402 C205.07,198.745 203.182,193.129 198.793,190.537 C196.089,188.939 195.736,188.974 190.54,191.353 C186.843,193.046 182.45,196.542 176.769,202.313 C170.631,208.548 167.379,211.079 164.463,211.889 C156.538,214.089 150.735,212.8 144.922,207.548 C142.762,205.597 140.369,204 139.604,204 C138.84,204 137.955,203.324 137.638,202.499 C137.321,201.673 135.36,200.22 133.281,199.271 C131.201,198.321 128.228,196.522 126.673,195.272 C122.952,192.281 116.091,192.137 113.503,194.996 C112.125,196.52 111.377,196.728 110.348,195.874 C106.364,192.567 111.383,186.886 120.682,184.178 C124.429,183.087 125.312,183.189 129.182,185.162 C134.659,187.954 141.44,192.468 146.241,196.519 C151.681,201.11 158.198,204.238 160.54,203.383 C163.395,202.341 169.705,197.432 176.032,191.329 C179.075,188.394 184.25,184.659 187.532,183.028 Z M81,85.027 C80.175,85.575 77.625,86.512 75.332,87.11 C73.04,87.707 70.149,89.277 68.908,90.598 C67.667,91.919 66.237,93 65.73,93 C65.223,93 63.462,93.959 61.817,95.131 C59.013,97.127 58.862,97.568 59.412,102.131 C59.736,104.809 60.265,109.195 60.588,111.879 C61.077,115.931 60.84,117.074 59.186,118.629 C57.785,119.946 56.99,122.449 56.5,127.079 C55.811,133.588 55.837,133.685 58.979,136.329 C62.328,139.146 66.672,139.781 70.092,137.951 C71.815,137.029 72.033,135.911 71.9,128.701 C71.752,120.723 71.665,120.446 68.686,118.5 C65.593,116.48 63.657,112.057 64.689,109.369 C64.997,108.565 67.418,106.808 70.069,105.465 C72.719,104.122 75.25,102.42 75.694,101.683 C76.137,100.947 77.919,99.52 79.653,98.513 C83.138,96.491 87.657,88.155 86.667,85.575 C85.985,83.798 83.249,83.533 81,85.027 Z M20.342,203.382 C21.865,202.072 23.776,201 24.588,201 C29.268,201 37,207.023 37,210.668 C37,213.06 43.797,219.093 46.254,218.882 C50.681,218.502 53,219.023 53,220.398 C53,222.834 44.941,231 42.537,231 C40.134,231 32,223.503 32,221.289 C32,218.119 27.424,212.962 23.706,211.941 C21.191,211.25 19.517,210.033 18.741,208.332 C17.698,206.042 17.871,205.508 20.342,203.382 Z M75.717,190.616 C76.056,190.277 76.654,190 77.046,190 C78.139,190 89.19,195.131 91.941,196.916 C93.284,197.787 96.166,198.95 98.345,199.5 C103.848,200.889 105.282,203.464 102,206.065 C99.012,208.434 92.8,207.959 86.813,204.905 C84.76,203.857 81.963,203 80.599,203 C79.234,203 77.856,202.576 77.536,202.058 C77.215,201.54 74.933,200.813 72.464,200.442 C67.194,199.652 66.835,199.262 67.857,195.442 C68.446,193.24 69.397,192.399 71.865,191.894 C73.645,191.53 75.379,190.955 75.717,190.616 Z"/>
</svg>

