<svg xmlns="http://www.w3.org/2000/svg" width="300" height="300" viewBox="0 0 300 300" version="1.1">
  <defs/>
  <path d="M122,88 C126.301,85.645 129.363,85.506 131.429,87.571 C134.372,90.515 132.497,95.031 127.062,98.085 C124.114,99.742 123,101.012 123,102.716 C123,104.008 122.325,106.68 121.5,108.654 C120.675,110.629 120,113.288 120,114.563 C120,115.838 119.55,117.16 119,117.5 C117.684,118.313 117.707,125.701 119.027,126.517 C119.593,126.866 121.505,126.244 123.277,125.135 C130.391,120.681 146.366,112 147.448,112 C150.407,112 152.337,118.595 150.235,121.523 C149.207,122.955 144.289,126 143.005,126 C142.418,126 138.833,127.76 135.036,129.911 C131.24,132.063 127.098,134.152 125.832,134.553 C123.221,135.382 114.337,141.777 111.852,144.617 C110.946,145.652 109.173,148.75 107.913,151.5 C106.653,154.25 104.582,158.179 103.311,160.23 C102.04,162.282 101,164.674 101,165.547 C101,166.419 99.947,168.566 98.66,170.317 C94.645,175.78 89.765,186.165 90.75,187.15 C92.174,188.574 94.926,187.043 96.535,183.932 C98.806,179.54 114.289,163.756 122.481,157.482 C134.212,148.497 144.941,146.284 148.105,152.197 C149.413,154.641 148.788,164.267 147.013,169 C146.291,170.925 145.364,173.4 144.952,174.5 C143.004,179.707 140.536,184.717 138.852,186.885 C137.834,188.197 137,189.897 137,190.664 C137,191.43 134.75,194.957 132,198.5 C125.774,206.523 125.493,209.35 130.75,211.077 C132.813,211.754 140.575,215.462 148,219.316 C155.425,223.17 163.159,227.147 165.186,228.154 C167.214,229.161 169.155,230.442 169.5,231 C169.845,231.558 171.786,232.855 173.814,233.883 C175.841,234.911 181.1,237.803 185.5,240.311 C189.9,242.819 195.553,245.99 198.063,247.357 C200.572,248.725 203.215,250.554 203.935,251.422 C204.656,252.29 205.704,253 206.264,253 C206.825,253 210.134,254.8 213.617,257 C217.101,259.2 220.218,261 220.545,261 C220.872,261 223.102,262.35 225.5,264 C227.898,265.65 230.272,267 230.775,267 C231.278,267 232.547,267.952 233.595,269.115 C234.643,270.278 236.4,271.639 237.5,272.139 C242.848,274.569 247.521,277.76 249.338,280.221 C251.022,282.501 251.16,283.352 250.195,285.471 C249.245,287.556 248.348,288 245.09,288 C241.906,288 240.75,287.458 239.152,285.214 C238.061,283.682 235.893,281.789 234.334,281.007 C232.775,280.226 230.825,279.069 230,278.437 C229.175,277.805 225.575,275.727 222,273.819 C213.078,269.057 210.772,267.717 208.819,266.157 C207.895,265.419 205.795,264.069 204.153,263.157 C202.511,262.246 198.767,259.657 195.834,257.406 C192.9,255.154 188.475,252.329 186,251.128 C178.875,247.671 172.787,244.092 169,241.134 C165.319,238.258 147.273,228.803 143,227.511 C141.625,227.095 139.898,226.272 139.162,225.682 C138.426,225.091 135.548,223.807 132.766,222.827 C129.985,221.848 126.987,220.414 126.104,219.642 C125.222,218.869 123.511,217.935 122.302,217.567 C120.52,217.025 119.79,217.505 118.447,220.103 C115.49,225.821 99.122,241.872 95.112,242.986 C89.469,244.553 86.532,244.195 84.141,241.65 C82.193,239.576 82.112,239.152 83.454,238.038 C84.3,237.336 86.032,237.042 87.36,237.376 C89.121,237.817 90.922,237.076 94.235,234.547 C100.441,229.808 111,216.287 111,213.078 C111,210.522 94.354,203 88.697,203 C87.268,203 85.642,202.213 85.083,201.25 C84.163,199.667 83.833,199.786 81.62,202.5 C79.364,205.266 75.701,211.921 73.089,218 C72.498,219.375 71.599,221.175 71.09,222 C69.813,224.073 67,230.64 67,231.548 C67,232.672 60.29,242.699 54.834,249.729 C52.175,253.154 50,256.259 50,256.628 C50,256.996 48.416,258.836 46.481,260.716 C39.401,267.591 34.642,261.976 41.481,254.817 C43.417,252.791 45,250.723 45,250.222 C45,249.72 45.889,248.506 46.974,247.523 C48.06,246.54 49.24,244.819 49.596,243.698 C49.952,242.576 51.716,239.356 53.517,236.541 C57.693,230.013 61.703,222.531 70.423,205 C73.022,199.775 76.465,193.25 78.075,190.5 C80.922,185.634 81.999,183.474 85.408,175.792 C86.313,173.753 87.491,171.814 88.027,171.483 C88.562,171.153 89,170.071 89,169.081 C89,168.09 90.125,165.621 91.5,163.595 C92.875,161.569 94,159.463 94,158.915 C94,158.367 94.987,156.584 96.193,154.953 C97.803,152.775 98.09,151.69 97.274,150.874 C96.457,150.057 94.611,150.632 90.331,153.036 C87.124,154.837 83.749,156.952 82.831,157.737 C81.913,158.521 78.48,160.432 75.201,161.982 C71.923,163.533 68.906,165.343 68.497,166.005 C68.088,166.667 65.919,168.029 63.678,169.033 C58.462,171.368 56,170.28 56,165.639 C56,161.737 58.353,159.273 65.5,155.689 C68.25,154.31 73.875,151.346 78,149.102 C82.125,146.858 86.175,144.741 87,144.398 C99.313,139.277 105,135.754 105,133.246 C105,132.452 105.638,130.384 106.418,128.651 C107.199,126.918 108.327,122.575 108.925,119 C109.524,115.425 110.288,111.487 110.623,110.25 C111.567,106.768 108.376,107.42 102,112.011 C98.975,114.189 95.175,116.709 93.557,117.611 C90.689,119.209 90.553,119.182 88.307,116.57 C84.199,111.795 85.922,108.529 95,103.882 C99.558,101.549 110.181,94.282 113.084,91.512 C113.955,90.68 115.53,89.981 116.584,89.958 C117.638,89.935 120.075,89.054 122,88 Z M121.25,11.662 C123.06,10.932 126.588,10.905 128.418,11.607 C131.651,12.847 129.472,20.329 124.526,24.976 C123.137,26.281 122,27.688 122,28.104 C122,28.519 119.673,32.603 116.83,37.179 C109.548,48.899 107.392,52.09 104.519,55.406 C103.133,57.004 102,58.665 102,59.099 C102,59.532 99.49,62.597 96.421,65.911 C93.353,69.225 91.135,72.41 91.492,72.987 C91.849,73.565 94.275,75.119 96.884,76.441 C99.492,77.763 102.237,79.581 102.985,80.482 C104.917,82.81 103.158,87.221 99.83,88.391 C97.643,89.16 96.378,88.776 92.395,86.138 C89.755,84.39 85.774,82.473 83.548,81.879 C76.175,79.912 75,79.183 75,76.578 C75,75.223 75.829,73.525 76.843,72.807 C83.239,68.271 88.915,62.554 93.378,56.152 C102.064,43.693 105.958,37.683 108.381,33 C112.394,25.242 115.117,20.61 117.6,17.317 C118.92,15.566 120,13.691 120,13.15 C120,12.609 120.563,11.94 121.25,11.662 Z M128.698,163.877 C125.507,166.531 122.199,169.698 121.347,170.915 C120.495,172.131 118.753,173.524 117.476,174.009 C116.177,174.503 115.009,175.897 114.827,177.171 C114.647,178.424 113.418,179.987 112.096,180.644 C110.774,181.301 107.941,183.787 105.802,186.169 C103.663,188.551 101.201,191.266 100.331,192.203 C98.285,194.406 99.227,196.735 102.722,198.112 C104.25,198.714 107.788,200.362 110.584,201.774 C115.91,204.463 118.572,204.317 119.705,201.273 C120.067,200.298 121.857,197.312 123.682,194.638 C125.507,191.964 127,189.367 127,188.868 C127,188.369 128.076,186.255 129.392,184.172 C132.643,179.022 137.102,167.66 137.74,162.9 C138.189,159.557 137.994,159.004 136.382,159.025 C135.347,159.039 131.889,161.223 128.698,163.877 Z M131.851,49.129 C135.673,47.728 135.794,47.756 137.567,50.462 C138.91,52.512 138.985,53.516 138.013,56.462 C137.37,58.408 136.43,60 135.922,60 C135.415,60 135,60.62 135,61.378 C135,62.135 134.325,63.315 133.5,64 C132.675,64.685 132,65.935 132,66.779 C132,67.622 129.529,70.535 126.509,73.251 C123.489,75.967 120.448,79.384 119.75,80.845 C119.015,82.383 117.485,83.641 116.113,83.836 C113.878,84.154 113.784,83.958 114.446,80.336 C114.832,78.226 115.796,75.181 116.588,73.568 C118.043,70.605 117.315,69.057 114.446,69.015 C113.867,69.007 111.923,67.484 110.128,65.632 C107.39,62.807 106.915,61.638 107.182,58.382 C107.457,55.021 107.857,54.459 110.157,54.193 C112.25,53.95 113.513,54.756 116.112,57.989 C121.221,64.347 124.388,63.1 128.016,53.3 C128.733,51.363 130.248,49.716 131.851,49.129 Z M88,192 C88,192.55 88.675,193 89.5,193 C90.325,193 91,192.55 91,192 C91,191.45 90.325,191 89.5,191 C88.675,191 88,191.45 88,192 Z"/>
</svg>

