<svg xmlns="http://www.w3.org/2000/svg" width="300" height="300" viewBox="0 0 300 300" version="1.1">
  <defs/>
  <path d="M116.5,27.659 C121.132,25.222 124.508,25.629 128.465,29.104 C131.462,31.734 132,32.849 132,36.422 C132,42.874 129.32,50.686 126.405,52.727 C125.014,53.702 122.562,55.545 120.958,56.822 C119.354,58.099 117.541,58.835 116.931,58.457 C115.356,57.484 116.595,51.911 119.527,46.783 C124.145,38.706 121.93,36.097 114.262,40.58 C108.874,43.729 97.828,54.922 92.436,62.696 C89.052,67.573 88.906,68.098 90.052,71.268 C91.481,75.218 89.851,100.549 88.052,102.348 C86.568,103.832 86.745,106 88.35,106 C91.165,106 102.046,98.666 102.619,96.382 C102.935,95.121 102.437,89.58 101.512,84.069 C99.249,70.592 100.649,66 107.023,66 C109.64,66 110.376,67.581 111.21,75 C112.811,89.249 113.047,90.067 115.86,91.137 C119.154,92.389 122,94.911 122,96.578 C122,97.276 120.92,99.13 119.6,100.699 C117.124,103.641 116.834,105.303 115.402,124.75 L114.795,133 L117.355,133 C119.465,133 134.924,125.703 138.5,123.02 C139.05,122.607 142.618,121.037 146.429,119.531 C150.241,118.025 154.066,116.432 154.929,115.991 C155.793,115.549 158.908,114.693 161.852,114.088 C168.42,112.738 172.341,114.154 172.795,118.04 C173.237,121.818 168.959,125.278 162.173,126.632 C154.043,128.254 146.323,131.232 131.339,138.529 C120.533,143.79 117.894,145.506 116.592,148.115 C115.038,151.231 114.032,164.114 112.505,200.467 C112.205,207.599 111.449,215.249 110.824,217.467 C110.079,220.11 109.656,233.967 109.597,257.673 L109.507,293.846 L111.753,296.237 C112.989,297.553 114,298.937 114,299.314 C114,299.692 111.061,300 107.469,300 C102.121,300 100.839,299.683 100.396,298.25 C100.098,297.288 99.437,295.719 98.927,294.764 C97.721,292.505 97.728,283.676 98.936,282.45 C99.46,281.919 99.983,269.371 100.123,254 C100.261,238.875 100.714,222.45 101.131,217.5 C101.548,212.55 102.361,199.05 102.938,187.5 C103.515,175.95 104.253,163.238 104.579,159.25 C105.162,152.111 105.134,152 102.785,152 C101.473,152 99.911,152.489 99.314,153.086 C98.089,154.311 83.828,160.818 80,161.899 C78.625,162.287 74.35,164.074 70.5,165.87 C54.229,173.46 47.757,176.067 34.468,180.386 C17.792,185.807 5.831,187.934 3.395,185.913 C1.025,183.946 -0.296,179.898 1.005,178.587 C1.598,177.989 4.878,176.96 8.292,176.299 C22.695,173.513 33.802,170.83 38.5,169.002 C39.6,168.573 43.256,167.048 46.625,165.612 C49.994,164.175 53.097,163 53.52,163 C53.944,163 57.487,161.475 61.395,159.611 C72.76,154.19 77.814,152 78.959,152 C79.546,152 80.809,151.589 81.764,151.086 C82.719,150.583 87.818,148.125 93.096,145.623 C98.375,143.122 103.226,140.433 103.877,139.648 C104.689,138.67 104.973,134.178 104.781,125.373 C104.529,113.845 104.312,112.488 102.671,112.174 C99.683,111.601 96.565,112.77 92.528,115.977 C89.606,118.3 87.713,119 84.353,119 C81.026,119 79.564,119.531 78.24,121.219 C74.89,125.49 69.755,130.085 68.718,129.739 C68.142,129.547 67.087,128.511 66.373,127.436 C66.029,126.918 65.746,126.577 65.614,126.185 C65.192,124.926 66.332,123.143 72.069,113.322 C74.582,109.02 77.214,103.498 77.919,101.051 C79.469,95.667 80.151,81.211 78.892,80.433 C78.395,80.126 76.432,80.437 74.53,81.125 C71.595,82.187 70.803,82.139 69.286,80.808 C68.304,79.946 65.925,78.45 64,77.483 C62.075,76.516 56.112,71.915 50.75,67.258 C40.797,58.614 39.658,56.662 41.607,51.582 C42.864,48.305 47.569,49.729 52.157,54.776 C58.063,61.272 68.158,69 70.736,69 C71.913,69 73.878,67.653 75.174,65.958 C89.183,47.638 103.176,34.67 116.5,27.659 Z M81.076,19.408 C81.816,18.517 83.554,18.021 85.316,18.199 C89.443,18.615 92.51,22.957 92.466,28.323 C92.429,32.899 90.144,38.5 88.315,38.5 C86.916,38.5 81.469,28.412 80.51,24.044 C80.075,22.064 80.283,20.364 81.076,19.408 Z"/>
</svg>

