<svg xmlns="http://www.w3.org/2000/svg" width="300" height="300" viewBox="0 0 300 300" version="1.1">
  <defs/>
  <path d="M64.49,32.011 C66.225,30.094 68.953,30.497 70.432,32.89 C71.472,34.572 73.176,47.543 73.238,54.25 C73.29,59.766 73.596,61 74.914,61 C75.8,61 76.97,59.987 77.513,58.75 C78.094,57.425 79.55,56.378 81.055,56.202 C83.886,55.873 89,59.313 89,61.547 C89,62.318 86.366,66.009 83.146,69.75 C76.758,77.173 76.556,77.763 74.894,93.862 C73.448,107.869 74.078,108.273 83.083,99.124 C88.864,93.251 90.705,91.945 92.853,92.194 C95.324,92.48 95.483,92.799 95.237,97 C95.012,100.855 94.367,102.059 90.737,105.402 C88.407,107.548 83.975,111.633 80.889,114.481 C77.417,117.684 75.052,120.772 74.688,122.579 C72.634,132.753 72.095,138.424 71.652,154.5 C71.378,164.4 70.928,173.175 70.65,174 C70.051,175.78 68.598,220.815 68.856,229.613 C69.058,236.469 67.65,238.631 63.642,237.625 C61.982,237.208 60.611,235.523 59.129,232.078 C56.49,225.943 56.487,224.812 59.099,217.986 C61.047,212.893 61.245,209.777 61.859,174.5 C62.334,147.174 62.868,135.886 63.76,134.316 C66.732,129.08 64.198,128.609 57.9,133.225 C50.423,138.706 42.533,143.995 41.831,143.998 C41.462,143.999 34.658,147.15 26.709,151 C11.985,158.131 9.323,158.923 7.2,156.8 C5.753,155.353 5.597,148.367 6.993,147.504 C7.539,147.167 10.127,146.288 12.743,145.552 C20.116,143.478 30.954,138.644 37.217,134.638 C40.345,132.637 43.318,131 43.825,131 C44.662,131 51.471,125.896 61.25,117.939 L65,114.887 L65,101.444 C65,89.243 64.836,88 63.228,88 C60.473,88 54.407,93.548 52.024,98.249 C47.606,106.964 46.396,108.495 43.67,108.817 C40.276,109.218 39.267,106.916 40.881,102.452 C41.537,100.638 43.119,92.708 44.397,84.827 C46.805,69.985 46.717,61.763 44.039,51.139 C43.222,47.898 43.236,46.42 44.092,45.389 C45.856,43.264 47.541,43.7 51.289,47.25 C54.151,49.96 54.918,51.637 55.907,57.346 C56.7,61.93 56.776,65.234 56.137,67.346 C55.612,69.081 54.925,72.638 54.61,75.25 C53.875,81.353 55.191,81.419 60.934,75.567 L65.285,71.134 L64.656,59.817 C64.311,53.593 63.735,45.228 63.378,41.229 C62.83,35.092 63.003,33.654 64.49,32.011 Z M187,115.219 C195.52,113.699 198.383,113.839 203.312,116.02 C208.289,118.222 214.72,124.96 215.675,128.973 C216.005,130.363 216.682,132.018 217.177,132.65 C218.803,134.724 219.026,154.019 217.51,161.5 C216.73,165.35 215.589,171.088 214.974,174.25 C214.36,177.412 213.447,180 212.947,180 C212.447,180 211.768,181.238 211.438,182.75 C211.108,184.262 210.487,186.625 210.06,188 C209.632,189.375 208.491,193.2 207.525,196.5 C206.558,199.8 205.307,203.625 204.744,205 C204.18,206.375 203.158,208.85 202.472,210.5 C200.543,215.136 199.003,220.443 198.969,222.571 C198.952,223.632 197.831,226.75 196.478,229.5 C195.125,232.25 194.014,235.512 194.009,236.75 C194.004,237.988 193.55,239 193,239 C192.45,239 192,240.04 192,241.312 C192,242.584 191.096,245.495 189.991,247.782 C186.757,254.477 182.703,255.645 176.743,251.6 C174.798,250.28 172.147,248.87 170.853,248.465 C169.559,248.061 168.275,247.454 168,247.115 C167.725,246.777 165.337,244.762 162.694,242.638 C158.899,239.587 157.953,238.242 158.194,236.238 C158.794,231.258 161.042,231.39 169.137,236.883 C177.005,242.221 180.676,243.211 181.622,240.25 C181.93,239.287 182.538,237.6 182.974,236.5 C186.667,227.181 189.093,220.379 191,214 C192.232,209.875 194.063,204.25 195.068,201.5 C196.073,198.75 197.873,193.35 199.068,189.5 C200.264,185.65 202.053,180.025 203.044,177 C207.925,162.107 209.885,146.733 207.894,138.964 C206.92,135.165 205.509,132.88 202.318,129.939 C195.616,123.761 190.66,124.408 170.852,134.048 C157.36,140.613 147.482,145.861 142.444,149.14 C137.653,152.259 116,173.196 116,174.71 C116,175.285 115.373,176.276 114.606,176.912 C113.53,177.805 112.846,177.703 111.606,176.463 C110.723,175.58 110,174.601 110,174.288 C110,173.627 113.819,165.209 115.121,163 C115.607,162.175 116.414,160.564 116.913,159.42 C117.946,157.055 130.016,146.151 137.5,140.823 C142.413,137.326 164.391,125.017 165.787,124.982 C166.179,124.972 168.48,123.622 170.9,121.982 C173.321,120.342 175.985,119 176.822,119 C177.658,119 179.053,118.37 179.921,117.6 C180.79,116.83 183.975,115.758 187,115.219 Z M161.049,162.154 C164.597,161.031 168.466,160.087 169.646,160.056 C171.953,159.996 178,166.089 178,168.474 C178,169.247 176.427,172.943 174.505,176.689 C172.583,180.435 171.008,184.014 171.005,184.643 C171.002,185.272 170.325,186.045 169.5,186.362 C168.623,186.698 168,188.197 168,189.969 C168,192.565 168.372,193 170.596,193 C176.392,193 182.112,199.288 179.077,202.323 C178.409,202.99 174.948,203.509 171.084,203.521 C165.23,203.54 163.684,203.947 160.134,206.407 C157.86,207.983 156,209.628 156,210.063 C156,210.498 154.563,211.57 152.808,212.446 L149.615,214.039 L145.236,209.769 C140.989,205.629 136,196.956 136,193.713 C136,192.836 135.55,191.84 135,191.5 C134.45,191.16 134,189.862 134,188.615 C134,187.369 132.863,185.281 131.474,183.976 C123.624,176.601 124.727,167.747 132.966,172.006 C134.909,173.011 137.066,174.771 137.758,175.917 C139.676,179.091 142.746,178.544 144.332,174.747 C146.316,169.999 153.601,164.511 161.049,162.154 Z M154.5,66.474 C158.553,64.576 164.026,65.395 166.204,68.224 C168.062,70.638 168.571,76.865 167.147,79.764 C166.678,80.719 165.612,83.075 164.778,85 C160.996,93.729 160.891,94.164 162.193,95.733 C163.234,96.987 162.981,97.602 160.698,99.371 C159.187,100.542 155.697,103.412 152.942,105.75 C147.931,110.002 145.66,110.876 144.5,109 C143.367,107.167 141.907,107.968 140.85,111 C138.789,116.914 134.077,113.773 133.51,106.108 C132.595,93.733 131.75,90.498 128.519,87 C124.564,82.719 123.777,80.665 125.319,78.652 C127.558,75.728 131.279,75.7 135.515,78.574 L139.466,81.256 L141.483,78.391 C144.495,74.113 151.101,68.065 154.5,66.474 Z M138.975,15.565 C139.732,13.575 140.644,13 143.041,13 C144.741,13 147.031,13.482 148.131,14.07 C150.77,15.482 154.447,23.953 153.035,25.365 C151.412,26.988 151.815,30 153.656,30 C154.566,30 156.829,28.842 158.685,27.427 C161.246,25.474 162.749,25.006 164.925,25.484 C169.021,26.383 171.442,29.305 170.128,31.762 C168.714,34.403 162.972,38.652 157.796,40.886 C155.433,41.906 152.643,43.699 151.595,44.87 C150.547,46.042 149.149,47 148.489,47 C147.828,47 145.31,48.493 142.894,50.318 C137.284,54.555 130.084,58 126.839,58 C123.525,58 120.614,54.79 121.474,52.083 C122.071,50.2 123.997,48.761 136.673,40.72 C140.528,38.275 140.9,37.651 141.536,32.559 C142.112,27.947 141.879,26.461 140.112,23.466 C137.697,19.372 137.65,19.05 138.975,15.565 Z M86.079,149.404 C88.217,146.828 91.828,147.821 96.016,152.136 C98.224,154.411 100.261,157.449 100.544,158.886 C101.117,161.807 105.866,177.398 107.127,180.5 C108.057,182.786 108.968,195.674 109.284,210.984 C109.462,219.635 109.238,221.515 108,221.733 C105.115,222.242 104.006,220.338 103.463,213.944 C102.804,206.181 100.073,192.869 98.868,191.55 C98.39,191.028 98,189.346 98,187.814 C98,182.502 95.749,175.452 91.034,166 C85.509,154.924 84.448,151.37 86.079,149.404 Z M155.653,176 C153.774,177.65 151.928,179 151.551,179 C151.174,179 149.321,180.638 147.433,182.64 C144.06,186.216 143.09,189.674 144.933,191.55 C145.446,192.072 146.009,194.265 146.183,196.423 C146.357,198.58 146.95,200.469 147.5,200.62 C148.877,200.999 156.425,191.581 159.618,185.5 C161.062,182.75 162.864,179.79 163.622,178.921 C164.38,178.053 165,176.365 165,175.171 C165,171.814 159.906,172.266 155.653,176 Z M152.405,82.116 C151.357,83.28 148.7,85.475 146.5,86.993 C142.877,89.492 142.484,90.189 142.326,94.376 C142.191,97.994 142.496,99 143.73,99 C146.697,99 158,85.154 158,81.52 C158,79.302 154.614,79.663 152.405,82.116 Z"/>
</svg>

