<svg xmlns="http://www.w3.org/2000/svg" width="300" height="300" viewBox="0 0 300 300" version="1.1">
  <defs/>
  <path d="M157.5,25.396 C162.629,23.143 164.755,23.652 167.341,27.75 C170.689,33.054 171.112,34.868 171.505,45.587 C171.749,52.26 171.426,56.128 170.427,58.522 C169.642,60.399 169,64.174 169,66.909 C169,69.644 168.589,72.136 168.087,72.446 C167.585,72.757 166.854,74.906 166.462,77.222 C165.498,82.93 161.656,88.719 157.525,90.689 C152.684,92.998 147.344,101.302 147.096,106.909 C146.988,109.334 146.473,112.117 145.95,113.093 C145.428,114.07 145,116.592 145,118.698 C145,120.805 144.1,124.991 143,128 C141.449,132.245 140.915,133.509 141.279,133.872 C141.477,134.07 141.942,134 142.655,134 C143.565,134 145.973,132.252 148.005,130.115 C150.038,127.979 152.684,125.704 153.887,125.061 C155.977,123.942 156.05,123.433 155.54,113.502 C155.21,107.084 155.387,102.879 156.003,102.498 C156.551,102.159 157,101.15 157,100.255 C157,98.104 160.919,94 162.974,94 C163.868,94 165.14,94.54 165.8,95.2 C167.248,96.648 167.41,106.628 166,107.5 C164.696,108.306 164.71,111.703 166.02,112.512 C167.043,113.145 180.356,102.306 182.807,98.845 C184.579,96.343 188.9,96.529 192.3,99.255 C195.003,101.421 195.048,101.606 193.589,104.526 C191.788,108.129 187.972,111.83 182.5,115.281 C180.3,116.668 175.932,120.434 172.793,123.651 L167.087,129.5 L165.943,139 C165.314,144.225 164.622,148.79 164.405,149.145 C164.189,149.5 164.727,150.065 165.601,150.4 C166.661,150.807 169.607,148.847 174.458,144.505 C181.675,138.045 184.735,136.771 186.865,139.338 C189.274,142.24 183.499,150.006 171.5,160.001 C166.463,164.197 164.831,167.673 164.283,175.375 C163.521,186.096 163.377,187.371 162.747,189 C162.428,189.825 161.93,193.762 161.641,197.75 C161.339,201.931 161.159,203.883 162.003,204.559 C162.769,205.173 164.377,204.734 167.5,203.957 C171.198,203.036 193.233,202.743 202.5,203.491 C208.538,203.978 245.102,206.003 256.77,206.497 C268.871,207.009 274.428,208.457 277.04,211.779 C278.943,214.197 278.942,214.204 275.723,218.082 C272.376,222.114 270.266,222.866 268.174,220.774 C265.941,218.541 255.714,216.841 238.5,215.842 C229.15,215.3 220.15,214.867 218.5,214.881 C216.85,214.894 212.35,214.444 208.5,213.88 C199.713,212.593 178.065,212.735 170.343,214.131 C167.129,214.711 161.125,215.561 157,216.019 C152.875,216.477 146.8,217.343 143.5,217.944 C108.182,224.373 106.685,224.422 106.182,219.185 C106.007,217.361 106.368,215.261 106.986,214.517 C108.073,213.207 114.506,211.934 137.5,208.479 C149.331,206.701 151.433,205.762 150.611,202.622 C150.321,201.512 150.436,200.131 150.867,199.552 C152.305,197.619 153.847,190.577 154.544,182.75 C155.135,176.127 155.01,175 153.689,175 C152.839,175 151.527,175.616 150.775,176.368 C150.022,177.121 148.303,178.066 146.953,178.468 C145.604,178.871 142.803,180.348 140.729,181.751 C137.514,183.925 136.589,184.134 134.464,183.166 C133.093,182.541 131.456,180.9 130.827,179.519 C129.879,177.439 129.994,176.664 131.496,175.004 C132.494,173.902 134.114,173 135.096,173 C136.078,173 137.16,172.55 137.5,172 C137.84,171.45 138.959,171 139.988,171 C141.016,171 142.46,170.437 143.197,169.75 C143.934,169.063 146.103,167.648 148.018,166.606 C155.743,162.403 156.009,161.836 155.882,149.827 C155.757,138.046 155.125,136.983 150.79,141.26 C144.083,147.878 141.808,149.391 137.755,149.932 C133.999,150.433 133.265,150.975 131.5,154.546 C125.701,166.277 113.255,177.912 109.226,175.371 C106.738,173.801 107.031,172.782 111.5,167.447 C117.406,160.396 117.933,159.634 117.968,158.094 C117.986,157.321 119.036,155.296 120.303,153.594 C125.761,146.258 132.192,129.906 133.938,118.924 C134.513,115.307 135.388,111.032 135.884,109.424 C138.541,100.796 139.308,94.972 138.127,92.38 C137.041,89.997 133.384,72.795 132.413,65.5 C131.106,55.689 128.538,46.204 126.685,44.352 C126.308,43.975 126,42.703 126,41.524 C126,40.346 125.339,38.509 124.532,37.441 C122.689,35.005 122.607,31.919 124.323,29.573 C125.34,28.182 126.372,27.923 128.785,28.453 C132.253,29.215 134.414,32.467 136.411,39.933 C137.063,42.371 138.06,44.52 138.627,44.709 C139.194,44.898 140.727,42.975 142.033,40.436 C144.631,35.384 152.763,27.476 157.5,25.396 Z M79.4,57.765 C81.118,56.618 85.474,56.874 86.8,58.2 C88.454,59.854 88.304,65.214 86.5,68.919 C85.675,70.614 84.325,73.386 83.5,75.081 C82.675,76.776 82,78.822 82,79.629 C82,80.436 81.1,82.959 80,85.236 C78.9,87.513 78,89.915 78,90.574 C78,91.232 77.328,93.06 76.506,94.636 C75.685,96.211 75.01,98.233 75.006,99.128 C75.003,100.023 74.317,102.389 73.483,104.386 C71.74,108.558 72.316,112.071 75.168,114.652 C76.261,115.641 78.031,118.262 79.101,120.475 C80.171,122.689 82.603,127.335 84.505,130.801 C91.994,144.441 94.452,163.07 91.582,184.426 C89.679,198.589 87.477,204.58 82.694,208.604 C78.603,212.047 74.697,211.705 69.505,207.451 C65.319,204.02 61.091,197.148 60.009,192.012 C59.055,187.488 56.519,188.555 51.237,195.702 C48.474,199.441 44.976,204.75 43.463,207.5 C41.951,210.25 39.878,213.694 38.857,215.154 C37.836,216.614 37,218.218 37,218.717 C37,219.217 35.613,220.948 33.918,222.563 C32.223,224.178 30.184,227.051 29.387,228.946 C26.834,235.018 23.175,239 20.149,239 C14.037,239 13.376,234.124 18.553,227.231 C22.995,221.316 36,201.296 36,200.373 C36,199.997 37.125,198.214 38.5,196.411 C39.875,194.608 41,192.857 41,192.519 C41,192.181 42.575,189.442 44.5,186.433 C46.425,183.423 48,180.704 48,180.389 C48,180.075 50.312,176.709 53.137,172.909 C58.87,165.2 61.031,164.402 65.579,168.314 C67.876,170.29 68.104,170.938 67.135,172.748 C65.322,176.136 65.764,183.564 67.996,187.226 C69.094,189.027 69.994,191.331 69.996,192.346 C70.001,194.83 73.779,200 75.59,200 C77.568,200 78.569,197.269 81.045,185.122 C82.839,176.321 83.052,172.935 82.45,162.85 C82.06,156.309 81.349,150.716 80.87,150.42 C80.392,150.124 80,148.81 80,147.5 C80,146.19 79.55,144.84 79,144.5 C78.45,144.16 78,143.184 78,142.33 C78,140.026 71.019,126.328 68.84,124.355 C66.6,122.328 66.009,122.799 62.509,129.385 C58.183,137.526 49.091,147.898 46.219,147.968 C43.966,148.024 43.598,144.761 45.499,141.582 C49.834,134.332 59,115.567 59,113.941 C59,112.967 56.862,110.598 54.25,108.676 C51.638,106.754 48.421,104.029 47.103,102.62 C45.064,100.44 44.904,99.82 46.033,98.46 C47.08,97.198 48.427,97.002 52.43,97.526 C55.218,97.891 58.561,98.864 59.857,99.688 C61.591,100.79 62.509,100.891 63.329,100.071 C64.623,98.777 68.909,86.662 72.93,72.935 C75.849,62.971 77.539,59.008 79.4,57.765 Z M154.705,39.392 C149.833,44.677 145,50.898 145,51.885 C145,52.459 144.1,53.411 143,54 C141.412,54.85 141,56.094 141,60.035 C141,66.481 143.04,66.64 148.759,60.639 C152.521,56.692 154.493,55.493 160.386,53.573 C162.08,53.021 162.202,52.279 161.587,46.273 C160.621,36.84 158.766,34.986 154.705,39.392 Z M153.032,69.087 C149.576,72.648 148.676,73.088 146.033,72.507 L143,71.841 L143,79.421 C143,84.821 143.359,86.998 144.25,86.993 C144.938,86.989 148.526,83.878 152.224,80.081 C157.605,74.555 159.079,72.36 159.602,69.088 C160.478,63.612 158.346,63.611 153.032,69.087 Z"/>
</svg>

