<svg xmlns="http://www.w3.org/2000/svg" width="300" height="300" viewBox="0 0 300 300" version="1.1">
  <defs/>
  <path d="M164.248,83.25 C165.765,81.347 168.597,81.75 171.546,84.286 L174.204,86.573 L172.602,91.968 C170.81,98.004 170.524,105.723 172.009,108 C172.822,109.247 173.422,108.952 175.566,106.25 C178.758,102.228 181.68,102.029 183.091,105.74 C184.99,110.733 183.393,114.721 177.923,118.651 C175.188,120.615 172.522,123.025 171.997,124.006 C171.472,124.987 170.592,131.714 170.04,138.956 C168.882,154.183 166.8,162.04 161.878,169.765 C158.455,175.138 159.607,176 170.219,176.001 C175.323,176.002 183.1,175.572 187.5,175.046 C191.9,174.52 200,173.594 205.5,172.989 C211,172.383 216.989,171.42 218.809,170.847 C225.149,168.852 229.751,172.663 228.833,179.148 C228.525,181.327 227.801,181.589 219,182.707 C213.775,183.372 205.225,184.146 200,184.428 C194.775,184.71 188.475,185.353 186,185.856 C183.525,186.36 173.865,186.808 164.534,186.854 C155.203,186.899 146.203,187.258 144.534,187.652 C138.188,189.151 134,186.739 134,181.586 C134,177.498 136.098,176.394 143.5,176.584 C150.196,176.757 154,174.533 154,170.448 C154,169.236 154.675,167.685 155.5,167 C156.325,166.315 157,164.937 157,163.937 C157,162.936 157.386,161.879 157.858,161.588 C159.392,160.64 161.539,143.047 161.134,134.75 C160.965,131.274 160.25,131.305 154.216,135.057 C148.306,138.731 144.334,138.394 143.408,134.139 C143.092,132.688 142.635,130.872 142.392,130.105 C141.637,127.714 145.044,125 148.8,125 C152.743,125 160.915,120.364 161.139,118 C161.217,117.175 161.362,110.875 161.462,104 C161.645,91.365 162.429,85.531 164.248,83.25 Z M115.558,37.25 C116.113,35.422 120.466,35.724 122.761,37.75 C125.516,40.183 128.532,60.184 127.663,70.266 C127.32,74.244 126.386,85.375 125.588,95 C124.79,104.625 123.489,114.075 122.697,116 C121.905,117.925 120.712,124 120.047,129.5 C119.382,135 118.008,142.425 116.995,146 C115.982,149.575 113.068,163.3 110.52,176.5 C107.973,189.7 105.499,201.4 105.024,202.5 C104.191,204.428 103.599,207.378 102.116,217.004 C101.734,219.482 101.036,222.133 100.564,222.897 C100.092,223.66 99.626,226.218 99.527,228.58 C99.321,233.537 97.678,236 94.578,236 C89.965,236 88.728,231.38 91.436,224.27 C92.226,222.197 93.569,216.675 94.42,212 C96.666,199.657 97.771,194.075 98.97,189 C99.555,186.525 100.387,182.239 100.819,179.475 C101.251,176.711 101.946,173.897 102.363,173.221 C102.781,172.545 103.492,168.957 103.943,165.246 C104.697,159.046 108.779,137.516 112.426,120.5 C116.556,101.228 119.012,67.427 117.004,57.5 C114.19,43.589 114.084,42.102 115.558,37.25 Z M60.273,94.706 C61.248,93.218 62.639,92 63.363,92 C65.282,92 67,96.45 67,101.422 C67,107.171 68.018,112 69.231,112 C69.77,112 71.548,110.875 73.182,109.5 C77.294,106.04 80,106.178 80,109.846 C80,112.749 77.403,118.982 76.177,119.022 C75.805,119.034 74.46,119.845 73.188,120.823 C70.485,122.903 69.497,126.751 68.066,140.766 C67.49,146.413 66.732,152.826 66.381,155.016 C65.989,157.473 66.135,159 66.764,159 C67.325,159 70.036,156.975 72.789,154.5 C75.542,152.025 78.529,150 79.428,150 C81.813,150 82.497,152.793 80.621,154.866 C79.73,155.851 79,157.432 79,158.378 C79,161.419 76.105,165.821 72.251,168.641 C70.188,170.151 68.05,171.864 67.5,172.449 C61.613,178.708 56.296,180.483 52.829,177.345 C50.467,175.208 50.51,172.496 52.961,169.055 C55.301,165.768 58.011,158.12 58.405,153.688 C58.561,151.935 58.947,149.825 59.262,149 C59.797,147.599 60.905,140.92 61.318,136.601 C61.641,133.234 59.567,133.877 54.42,138.742 C51.652,141.359 46.425,145.059 42.805,146.965 C35.304,150.914 33.693,150.51 32.545,144.389 C31.696,139.863 33.217,137.893 36.979,138.646 C39.425,139.135 40.981,138.124 49.121,130.761 L58.458,122.315 L58.479,109.863 C58.496,99.652 58.819,96.925 60.273,94.706 Z M162.281,57.064 C166.801,53.215 171.187,50.051 172.027,50.033 C174.829,49.973 178,53.01 178,55.753 C178,58.511 173.438,66 171.758,66 C171.225,66 169.452,67.125 167.818,68.5 C166.184,69.875 164.319,71.01 163.673,71.022 C163.028,71.034 161.375,71.924 160,73 C154.749,77.107 150.952,74.44 152.882,67.999 C153.791,64.964 155.944,62.459 162.281,57.064 Z M67.229,61.25 C69.713,58.613 72.233,58.375 74.429,60.571 C77.182,63.324 76.294,66.331 71.56,70.288 C69.117,72.33 66.824,74 66.464,74 C66.104,74 64.614,74.845 63.154,75.879 C61.694,76.912 57.936,78.561 54.803,79.545 C48.69,81.462 46,80.708 46,77.078 C46,76.155 45.49,74.89 44.867,74.267 C43.027,72.427 44.601,70.273 48.173,69.744 C54.798,68.762 64.029,64.648 67.229,61.25 Z M95.2,83.2 C97.388,81.012 100.798,81.867 103.366,85.25 C106.244,89.041 108.27,94.2 110.061,102.3 C111.274,107.788 111.228,108.216 109.207,110.237 C107.09,112.355 107.051,112.356 104.897,110.437 C103.702,109.372 102.093,107.009 101.322,105.186 C100.55,103.363 98.588,100.033 96.96,97.786 C94.69,94.653 94,92.616 94,89.05 C94,86.492 94.54,83.86 95.2,83.2 Z"/>
</svg>

