<svg xmlns="http://www.w3.org/2000/svg" width="300" height="300" viewBox="0 0 300 300" version="1.1">
  <defs/>
  <path d="M183.787,42.302 C190.265,37.032 194.661,36.63 197.048,41.09 C198.566,43.926 200.991,62.785 201.988,79.5 C203.025,96.891 203.718,100.955 205.781,101.746 C207.624,102.453 217,99.371 222.826,96.142 C226.631,94.033 227.448,93.902 229.603,95.055 C230.951,95.777 232.303,97.361 232.608,98.576 C233.281,101.254 230.543,106.891 228.198,107.659 C227.264,107.964 225.082,108.841 223.349,109.607 C221.616,110.373 219.141,111.014 217.849,111.032 C216.557,111.049 214.626,111.724 213.559,112.532 C212.491,113.339 210.611,114 209.381,114 C208.151,114 206.273,115.108 205.208,116.463 C203.422,118.733 203.249,120.947 203.006,144.713 C202.861,158.896 202.708,172.075 202.668,174 C202.627,175.925 202.976,185.825 203.443,196 C203.945,206.947 204.194,211.386 204.228,215.828 C204.264,220.445 204.066,225.064 203.677,237 C203.044,256.44 203.034,256.507 200.423,258.786 C197.376,261.446 194.703,261.042 191.209,257.392 C189.949,256.076 187.249,254.108 185.209,253.019 C179.964,250.219 176.658,247.15 173.627,242.27 C168.524,234.053 171.365,225.958 176.908,232.919 C183.741,241.499 188.889,246.153 191.185,245.828 C193.463,245.505 193.502,245.291 193.612,232.5 C193.673,225.35 193.789,214.775 193.87,209 C193.95,203.225 193.836,196.7 193.617,194.5 C193.182,190.142 193.055,173.654 193.193,139.5 L193.282,117.5 L189.412,117.176 C183.675,116.696 174.277,119.076 171.893,121.613 C170.762,122.818 169.67,125.535 169.466,127.652 C167.807,144.933 166.525,153.828 164.516,162 C163.232,167.225 161.66,175.55 161.022,180.5 C160.384,185.45 159.614,191.3 159.31,193.5 C158.647,198.301 155.553,203 153.054,203 C149.926,203 148.672,200.384 149.331,195.232 C150.184,188.575 153.61,168.406 156.505,153 C158.368,143.089 159.85,131.921 159.938,127.137 C159.996,123.992 159.821,123.808 157.25,124.316 C150.727,125.604 142.797,127.924 141.642,128.882 C140.716,129.651 140.337,136.212 140.181,154.21 C140.065,167.569 139.714,182.099 139.4,186.497 C139.087,190.895 138.719,197.828 138.584,201.903 C138.361,208.621 138.078,209.537 135.55,211.71 C132.287,214.517 128.985,214.377 127.491,211.368 C126.909,210.195 125.098,208.112 123.466,206.739 C119.111,203.074 116.086,196.656 114.955,188.684 C113.873,181.055 114.393,179.63 118.065,180.165 C119.781,180.415 120.843,181.764 122.265,185.5 C124.926,192.491 125.506,193.459 127.236,193.8 C128.134,193.977 128.993,193.157 129.331,191.8 C130.533,186.979 131.259,132 130.122,132 C127.658,132 118.646,136.034 115.207,138.676 C113.185,140.229 110.649,141.951 109.571,142.502 C107.58,143.519 105.772,150.548 104.359,162.768 C104.024,165.666 103.356,168.28 102.875,168.577 C102.394,168.875 102,170.471 102,172.125 C102,173.778 101.467,176.114 100.816,177.316 C100.164,178.517 99.294,181.3 98.881,183.5 C97.62,190.217 94.58,199.605 93.082,201.405 C90.944,203.975 88.153,205.183 85.962,204.488 C83.075,203.572 83.317,197.991 86.368,195.124 C88.033,193.56 88.92,191.339 89.353,187.649 C89.693,184.762 90.866,179.722 91.961,176.45 C93.055,173.177 93.962,168.864 93.975,166.865 C93.989,164.865 94.734,160.957 95.631,158.178 C97.626,152.002 97.016,150 93.138,150 C89.998,150 88.99,148.574 89.015,144.168 C89.036,140.538 89.756,139.718 95.198,137.117 C99.554,135.035 99.952,134.53 100.651,130.186 C101.066,127.609 101.427,112.675 101.453,97 C101.499,69.316 101.43,68.29 99.041,61.168 C96.786,54.447 96.706,53.614 98.079,51.168 C99.175,49.215 100.37,48.5 102.538,48.5 C105.126,48.5 105.686,49.037 106.969,52.75 C107.777,55.087 108.732,57 109.091,57 C109.45,57 112.815,54.061 116.57,50.469 C124.237,43.135 126.487,42.166 130.744,44.368 C135.951,47.06 136.738,49.423 137.813,65.578 C138.36,73.785 138.79,81.625 138.769,83 C138.652,90.722 140.357,116.631 141.03,117.362 C141.466,117.836 146.095,116.801 151.315,115.062 L160.807,111.9 L161.153,107.7 C162.036,97.01 159.249,65.849 157.23,63.83 C156.553,63.153 156,61.184 156,59.454 C156,57.723 155.276,54.856 154.391,53.083 C152.969,50.231 152.948,49.433 154.21,46.179 C155.506,42.839 155.95,42.526 159.025,42.782 C163.889,43.186 166,45.506 166,50.445 C166,52.719 166.614,57.037 167.365,60.04 C169.415,68.236 171.345,90.485 170.809,99.743 C170.419,106.467 170.608,108.019 171.872,108.504 C173.609,109.171 190.809,105.202 192.794,103.676 C193.542,103.101 193.875,101.587 193.582,100.091 C193.303,98.666 192.813,92.55 192.494,86.5 C192.174,80.45 191.486,72.8 190.964,69.5 C190.442,66.2 190.012,61.418 190.008,58.872 C189.998,52.759 187.908,50.799 184.656,53.853 C183.399,55.034 181.843,56 181.198,56 C180.553,56 178.913,57.762 177.553,59.916 C174.665,64.491 173.839,65.137 172.183,64.113 C171.232,63.525 171.272,62.492 172.368,59.429 C175.127,51.716 178.578,46.54 183.787,42.302 Z M54.064,80.631 C62.812,75.351 66.218,74.877 68.658,78.601 C70.9,82.022 69.865,83.558 62.707,87.436 C53.8,92.261 50.382,96 54.878,96 C58.586,96 59.184,98.256 58.435,109.438 L57.727,120 L61.805,120 C64.047,120 66.142,120.421 66.46,120.936 C67.782,123.074 65.116,130.025 61.755,133.208 C58.732,136.071 54.786,143.06 52.572,149.476 C52.196,150.562 51.661,154.725 51.381,158.726 C51.008,164.077 51.197,166 52.099,166 C54.109,166 62.135,161.015 67.739,156.286 C71.676,152.963 73.663,151.944 75.739,152.182 C78.024,152.445 78.452,152.93 78.223,155 C78.07,156.375 77.95,158.475 77.955,159.666 C77.961,161.16 76.651,162.601 73.731,164.312 C71.402,165.676 68.641,167.739 67.594,168.896 C66.547,170.053 65.14,171 64.467,171 C63.795,171 62.643,171.725 61.907,172.612 C61.172,173.498 56.099,177.6 50.635,181.727 C39.191,190.37 34.45,191.909 31.636,187.891 C28.782,183.816 29.551,180.799 34.5,176.662 C36.975,174.593 39,172.049 39,171.009 C39,169.969 39.402,168.869 39.894,168.565 C40.386,168.261 41.033,166.322 41.332,164.256 C43.138,151.767 43.229,150 42.061,150 C40.431,150 37.038,151.886 34.624,154.135 C33.392,155.283 31.148,156 28.787,156 C24.406,156 22.802,153.603 23.735,148.449 C24.567,143.85 25.873,142.803 29.923,143.487 C33.64,144.115 35.837,142.847 43.042,135.917 C45.895,133.173 46.143,132.022 47.994,113 C48.502,107.775 49.214,102.263 49.575,100.75 C50.12,98.473 49.901,98 48.304,98 C47.242,98 45.081,99.35 43.5,101 C39.049,105.646 35.679,104.681 34.437,98.405 C34.017,96.278 34.427,94.897 35.97,93.25 C37.129,92.013 38.495,91 39.004,91 C39.514,91 41.438,89.677 43.28,88.059 C45.122,86.442 49.975,83.099 54.064,80.631 Z M120.428,61.75 C118.882,63.813 116.113,67.075 114.273,69 C111.047,72.375 110.953,72.696 111.662,78 C112.066,81.025 112.337,84.4 112.263,85.5 C112.19,86.6 111.848,95.15 111.505,104.5 C111.161,113.85 110.476,122.75 109.982,124.278 C109.488,125.806 109.339,127.719 109.649,128.528 C110.366,130.395 113.396,130.433 114.922,128.594 C115.564,127.821 119.043,126.145 122.654,124.87 C130.261,122.185 131.402,120.404 130.541,112.559 C130.236,109.776 129.512,97.444 128.932,85.154 C128.352,72.863 127.466,61.726 126.963,60.404 C125.671,57.004 123.676,57.415 120.428,61.75 Z"/>
</svg>

