<svg xmlns="http://www.w3.org/2000/svg" width="300" height="300" viewBox="0 0 300 300" version="1.1">
  <defs/>
  <path d="M106.233,81.344 C108.546,77.947 113.085,76.71 114.549,79.079 C114.915,79.672 115.206,87.162 115.194,95.723 C115.183,104.284 115.408,111.899 115.694,112.644 C116.494,114.73 118.651,114.259 120.799,111.528 C127.341,103.212 135.659,99.626 138.05,104.093 C139.958,107.658 138.349,110.243 129.524,117.785 C124.836,121.791 120.332,126.09 119.514,127.338 C118.504,128.88 117.722,134.393 117.072,144.553 C116.106,159.672 114.985,168.802 113.09,177 C112.517,179.475 112.038,183.357 112.024,185.628 C112.011,187.898 111.398,190.255 110.662,190.866 C109.926,191.476 108.764,193.894 108.079,196.238 C107.395,198.582 105.522,202.161 103.917,204.191 C99.84,209.351 100.118,210.164 105.75,209.554 C125.966,207.365 209.342,206.987 220,209.037 C227.737,210.525 229,211.362 229,215.004 C229,218.727 223.451,223 218.616,223 C213.435,223 204.738,220.984 202.884,219.353 C201.535,218.167 196.329,218.018 171.428,218.449 C152.088,218.784 140.217,218.597 137.69,217.916 C134.61,217.087 132.968,217.196 129.875,218.433 C127.456,219.401 122.885,220 117.914,220 C113.489,220 109.036,220.445 108.019,220.99 C107.002,221.534 101.499,222.635 95.79,223.436 C90.081,224.238 84.08,225.401 82.455,226.02 C75.055,228.841 66,224.158 66,217.509 C66,211.89 68.642,210.579 80.229,210.451 C90.108,210.341 90.368,210.278 92.704,207.42 C95.277,204.272 100,195.037 100,193.154 C100,192.519 100.45,192 101,192 C101.55,192 102,190.002 102,187.559 C102,185.116 102.45,182.84 103,182.5 C103.55,182.16 104,180.218 104,178.184 C104,176.151 104.457,172.915 105.016,170.993 C105.574,169.072 106.475,161.002 107.017,153.06 C108.152,136.437 107.601,134.95 102.276,140.275 C97.039,145.514 95.332,146.803 89.535,149.896 C82.036,153.898 78.513,154.566 75.459,152.565 C70.428,149.269 73.805,138.269 79.12,140.64 C82.457,142.13 87.196,139.936 93.925,133.786 C96.931,131.038 100.541,128.056 101.946,127.159 C107.61,123.542 108.052,120.657 105.341,105 C103.115,92.144 103.364,85.558 106.233,81.344 Z M124.785,51.88 C128.484,48.636 131.488,48.252 134.834,50.596 C136.539,51.79 137.035,52.983 136.806,55.333 C136.531,58.158 135.747,58.84 129,62.126 C124.875,64.134 118.35,66.79 114.5,68.027 C110.65,69.265 105.475,70.926 103,71.718 C100.525,72.511 97.306,73.798 95.846,74.58 C94.386,75.361 92.361,76.01 91.346,76.022 C90.331,76.034 88.375,76.924 87,78 C85.625,79.076 83.782,79.966 82.905,79.978 C80.338,80.014 77.816,76.473 78.175,73.338 C78.433,71.087 79.431,70.06 83,68.373 C90.882,64.648 105.239,59.289 113.5,56.988 C118.605,55.566 122.689,53.718 124.785,51.88 Z M149.823,141.709 C151.295,141.484 153.199,141.232 154.054,141.15 C156.403,140.923 161.238,146.71 164.908,154.14 C168.329,161.067 168.276,162.866 164.56,165.951 C162.522,167.641 159.26,165.576 155.341,160.113 C153.779,157.935 151.157,155.556 149.516,154.826 C147.138,153.769 146.362,152.624 145.695,149.188 C144.727,144.2 145.758,142.331 149.823,141.709 Z"/>
</svg>

