<svg xmlns="http://www.w3.org/2000/svg" width="300" height="300" viewBox="0 0 300 300" version="1.1">
  <defs/>
  <path d="M155.3,73.393 C156.242,71.752 157.917,71.638 161.435,72.975 C164.633,74.191 164.642,75.083 161.5,78.818 C160.125,80.452 159,82.469 159,83.301 C159,84.133 156.75,86.698 154,89 C148.857,93.306 147.882,95.357 150.5,96.362 C151.694,96.82 152,98.961 152,106.846 C152,115.526 153.39,122.566 155.558,124.87 C155.749,125.073 158.202,123.554 161.007,121.495 C166.301,117.609 169.896,116.839 172.53,119.025 C173.897,120.16 173.843,120.538 172.033,122.465 C170.915,123.655 170,125.366 170,126.268 C170,127.169 168.823,128.715 167.385,129.703 C165.947,130.691 163.082,133.252 161.019,135.394 C157.913,138.618 157.068,140.426 156.117,145.894 C155.484,149.527 155.043,154.975 155.136,158 C155.23,161.025 154.778,168.225 154.132,174 C153.487,179.775 152.572,188.55 152.098,193.5 C151.169,203.214 150.115,206.83 147.604,208.914 C144.693,211.329 145.915,212 153.25,212.013 C157.238,212.02 168.375,212.76 178,213.658 C187.625,214.556 199.55,215.404 204.5,215.543 C209.45,215.681 219.575,216.529 227,217.425 C234.425,218.322 243.65,219.328 247.5,219.66 C255.003,220.308 257.446,221.655 258.462,225.704 C258.935,227.589 258.499,228.904 256.806,230.707 C254.788,232.855 253.959,233.071 250.017,232.48 C247.547,232.109 244.305,231.175 242.813,230.403 C241.32,229.631 238.135,229 235.733,229 C233.332,229 228.922,228.558 225.934,228.018 C221.232,227.168 213.811,226.552 180.5,224.245 C162.066,222.969 146.271,222.907 142.5,224.095 C138.254,225.434 136.098,225.736 126.427,226.353 C119.777,226.777 117.176,227.838 112.215,232.147 C107.909,235.887 106.339,235.746 104.547,231.458 C102.667,226.96 103.481,222.84 106.858,219.749 C109.45,217.378 114.974,216.196 133.421,214.068 C137.82,213.56 138.437,213.182 139.244,210.5 C139.74,208.85 140.53,206.6 140.999,205.5 C141.468,204.4 142.349,199 142.956,193.5 C143.563,188 144.726,178.775 145.54,173 C148.368,152.937 147.01,149.272 139.266,156.072 C137.341,157.761 134.132,159.881 132.134,160.782 C130.135,161.684 127.745,163.042 126.822,163.801 C124.477,165.728 121.284,164.45 119.416,160.838 C117.981,158.063 117.994,157.664 119.582,155.909 C120.533,154.859 122.072,154 123.004,154 C125.07,154 142.456,139.292 143.69,136.5 C144.177,135.4 144.247,130.225 143.847,125 C143.447,119.775 142.812,111.338 142.437,106.25 C141.779,97.322 141.671,97 139.338,97 C138.008,97 135.156,97.9 133,99 C128.239,101.429 127.181,101.474 124.829,99.345 C122.735,97.451 122.397,92.722 124.25,91.256 C124.938,90.713 129.325,88.564 134,86.481 C142.973,82.484 153.956,75.735 155.3,73.393 Z M69.704,101.418 C72.277,98.438 74.728,96 75.152,96 C75.575,96 76.84,96.985 77.961,98.189 C80.185,100.576 80.656,104.944 78.88,106.72 C77.161,108.439 75.737,115.75 75.613,123.5 L75.5,130.5 L79.895,130.15 L84.29,129.8 L83.747,133.853 C83.448,136.082 82.164,139.366 80.894,141.15 C77.66,145.691 75,151.108 75,153.152 C75,154.104 74.55,155.16 74,155.5 C73.45,155.84 73,158.146 73,160.625 C73,163.103 72.568,165.939 72.039,166.927 C71.511,167.914 70.887,171.372 70.654,174.611 C70.42,177.85 69.916,181.688 69.533,183.141 C68.375,187.539 70.801,187.6 75.343,183.286 C80.801,178.103 89.466,172.751 91.701,173.181 C97.097,174.22 92.978,180.642 75.364,198.653 C68.289,205.887 59.207,215.674 55.183,220.403 C49.798,226.729 47.238,229 45.492,229 C42.644,229 42.254,228.46 41.457,223.405 C40.707,218.646 43.119,214.684 53.25,204.037 C59.095,197.894 60.001,196.443 60.008,193.221 C60.012,191.175 60.429,186.8 60.935,183.5 C61.44,180.2 62.158,174.238 62.529,170.25 C63.164,163.415 63.087,163 61.178,163 C60.065,163 57.881,164.027 56.327,165.281 C54.772,166.536 50.941,168.826 47.813,170.369 C41.681,173.395 38.748,173.267 36.944,169.895 C35.177,166.593 36.694,164.346 41.621,162.966 C47.439,161.337 63.618,148.225 64.735,144.234 C65.777,140.511 65.345,120.945 64.195,119.795 C63.629,119.229 61.28,119.522 58.135,120.551 C54.385,121.777 51.498,122.043 47.438,121.535 C38.338,120.399 38.988,115.913 48.518,114.076 C55.898,112.654 64.377,107.589 69.704,101.418 Z"/>
</svg>

