<svg xmlns="http://www.w3.org/2000/svg" width="300" height="300" viewBox="0 0 300 300" version="1.1">
  <defs/>
  <path d="M174.627,43.52 C186.786,39.194 192,40.688 192,48.498 C192,50.909 191.55,53.16 191,53.5 C190.45,53.84 190,55.161 190,56.437 C190,57.712 189.295,59.34 188.434,60.055 C187.573,60.77 186.211,62.625 185.408,64.177 C184.606,65.73 183.462,67 182.868,67 C181.013,67 174.142,72.976 173.435,75.205 C173.064,76.372 171.197,79.505 169.285,82.166 C165.112,87.975 163.997,93.82 166.371,97.444 C167.267,98.811 168,101.697 168,103.858 C168,109.844 173.19,110.802 174.344,105.029 C174.796,102.771 176.067,101.64 180.529,99.53 C187.41,96.274 190.818,96.761 194.446,101.518 C201.744,111.087 203.912,126.84 201.943,156 L200.694,174.5 L197.347,178.603 C195.506,180.86 194,183.467 194,184.398 C194,185.329 191.637,189.51 188.75,193.689 C185.863,197.868 182.111,203.361 180.414,205.894 C178.716,208.427 176.579,211.118 175.664,211.872 C174.749,212.627 173.997,213.752 173.993,214.372 C173.982,215.937 165.07,227 163.82,227 C163.26,227 161.553,228.238 160.025,229.75 C154.502,235.218 149.195,240 148.648,240 C148.34,240 146.401,241.145 144.338,242.545 C141.32,244.594 139.605,245.033 135.553,244.795 C131.993,244.586 130.434,244.052 130.229,242.971 C129.797,240.698 133.592,237.08 135.801,237.658 C137.895,238.206 150.397,228.811 155.5,222.855 C160.302,217.251 170.077,203.427 171.661,200 C172.042,199.175 172.837,198.162 173.427,197.75 C174.163,197.236 174.084,196.731 173.176,196.145 C172.355,195.615 170.456,196.006 168.176,197.175 C163.52,199.56 161.231,199.213 158.636,195.725 C156.614,193.007 156.61,192.881 158.398,189.559 C160.053,186.486 160.202,183.7 159.989,159.834 C159.859,145.35 159.569,131.025 159.344,128 C158.111,111.45 157.034,102.745 156.074,101.59 C154.674,99.903 155.745,91.731 158.052,86.5 C159.022,84.3 160.061,81.375 160.361,80 C160.661,78.625 161.908,73.819 163.134,69.32 C165.013,62.42 165.152,60.888 164.023,59.528 C163.095,58.409 162.366,58.234 161.642,58.958 C159.796,60.804 156.391,60.1 155.051,57.595 C154.343,56.273 154.062,54.709 154.426,54.12 C155.546,52.308 167.379,46.099 174.627,43.52 Z M105.223,42.557 C109.346,39.669 112.732,41.473 113.621,47.032 C114.285,51.182 115.536,51.854 119.075,49.96 C120.56,49.165 121.599,49.342 123.484,50.71 C128.4,54.279 127.839,57.974 122.035,60.254 C118.257,61.738 118.171,61.887 117.506,68.133 C117.01,72.798 117.249,75.703 118.4,79 C119.264,81.475 119.977,84.346 119.985,85.381 C119.998,86.966 120.544,87.173 123.456,86.701 C129.633,85.699 136.672,92.728 133.085,96.315 C132.488,96.912 131.986,98.097 131.969,98.95 C131.952,99.802 130.781,102.75 129.367,105.5 C127.102,109.907 126.71,112.221 126.067,125 C125.666,132.975 124.812,140.483 124.169,141.684 C122.804,144.235 122.559,170.756 123.882,172.843 C124.35,173.582 127.381,174.561 130.617,175.019 C140.123,176.363 145.592,177.971 147.868,180.092 C152.94,184.817 147.9,189.145 139.864,186.964 C137.464,186.313 134.6,185.405 133.5,184.947 C129.346,183.216 123.025,182.763 122.566,184.162 C122.325,184.898 121.895,193.375 121.611,203 C121.328,212.625 120.659,222.75 120.125,225.5 C119.592,228.25 119.111,237.126 119.056,245.224 C118.95,261.027 118.719,262.51 116.222,263.468 C112.225,265.002 107.532,257.677 109.622,253.166 C110.536,251.193 110.511,251.561 111.359,228 C111.725,217.825 112.546,201.965 113.185,192.756 C113.823,183.547 114.107,175.774 113.816,175.482 C112.577,174.243 110.008,176.451 108.175,180.329 C106.02,184.888 92.099,199 89.756,199 C84.971,199 79.001,194.425 80.539,191.937 C80.873,191.397 83.787,189.622 87.014,187.993 C94.408,184.261 96.847,180.836 109.546,156.357 C113.977,147.817 114.928,143.064 113.37,137.25 C112.515,134.06 110.655,134.436 104.937,138.956 C99.8,143.016 97.767,143.249 95.282,140.062 C93.737,138.081 93.682,135.482 95.136,133.154 C96.742,130.582 93.691,121.681 89.368,116.332 C86.813,113.169 86,111.208 86,108.204 C86,103.098 87.83,101.557 92.926,102.372 C96.604,102.96 97.248,102.652 103.517,97.3 C110.176,91.616 110.19,91.592 109.467,87.551 C109.069,85.323 108.463,80.355 108.121,76.51 C107.426,68.691 105.672,67.136 101.661,70.785 C97.484,74.584 95.267,75.221 92.51,73.415 C88.44,70.748 89.158,67.133 94.581,62.995 C102.96,56.603 103,56.541 103,50.057 C103,45.049 103.35,43.868 105.223,42.557 Z M56.899,65.622 C57.987,64.31 66.187,63.853 67.371,65.037 C68.624,66.291 65.89,78.661 63.064,84.521 C61.379,88.015 60,91.522 60,92.315 C60,93.107 59.374,94.275 58.609,94.91 C57.844,95.545 56.971,97.287 56.669,98.782 C56.368,100.277 55.827,102.68 55.468,104.123 C54.948,106.214 55.747,108.078 59.414,113.324 C61.943,116.943 64.488,121.153 65.069,122.681 C70.44,136.808 70.442,187.242 65.072,197.95 C64.673,198.747 63.126,200.31 61.637,201.422 C57.961,204.166 56.499,203.078 51.195,193.651 C48.348,188.59 46.288,186 45.109,186 C44.129,186 41.669,188.137 39.641,190.75 C35.251,196.406 29,205.907 29,206.923 C29,208.038 15.32,222.15 12.352,224.097 C9.525,225.952 7,225.638 7,223.432 C7,222.07 15.661,210.789 17.184,210.167 C17.633,209.983 18,209.049 18,208.091 C18,207.133 19.125,205.292 20.5,204 C21.875,202.708 23,201.289 23,200.845 C23,200.402 24.505,197.668 26.344,194.769 C28.184,191.871 32.483,183.65 35.898,176.5 C39.313,169.35 42.466,162.825 42.905,162 C44.084,159.781 48.853,159.557 51.125,161.613 C52.871,163.193 53.005,164.229 52.409,171.568 C51.845,178.518 52.024,180.232 53.588,182.879 C54.602,184.596 56.234,186 57.216,186 C58.803,186 59.006,184.922 59.051,176.25 C59.078,170.887 59.222,164.25 59.37,161.5 C59.939,150.935 57.782,133.74 55.107,127.5 C54.635,126.4 53.753,124.263 53.146,122.75 C51.769,119.318 48.313,119.045 47.087,122.272 C46.612,123.522 44.598,126.489 42.611,128.867 C40.625,131.244 39,133.55 39,133.991 C39,134.431 36.498,137.201 33.441,140.146 C26.89,146.456 23.426,147.257 23.629,142.417 C23.746,139.643 25.147,137.287 32.802,127 C33.825,125.625 35.941,122.126 37.504,119.223 C40.616,113.447 40.483,112.984 34.895,110.195 C32.233,108.866 31.432,107.798 31.187,105.249 C30.924,102.529 31.298,101.837 33.472,101.01 C34.902,100.467 38.13,100.13 40.646,100.261 C43.858,100.429 45.476,100.053 46.076,99 C47.368,96.736 51.176,87.834 52.065,85 C52.497,83.625 53.73,80.18 54.804,77.344 C55.879,74.509 56.535,71.018 56.262,69.588 C55.988,68.158 56.275,66.373 56.899,65.622 Z M189.25,213.989 C191.037,212.899 194.178,212.006 196.229,212.004 C199.881,212 210.399,214.842 216.649,217.522 C218.381,218.264 221.403,219.173 223.364,219.54 C225.324,219.908 227.45,220.837 228.087,221.605 C228.724,222.372 230.288,223 231.563,223 C232.839,223 234.161,223.451 234.502,224.003 C234.842,224.554 237.045,225.882 239.397,226.953 C241.749,228.024 244.252,229.598 244.959,230.45 C245.666,231.303 247.22,232 248.411,232 C249.602,232 252.24,232.848 254.273,233.884 C256.305,234.92 259.963,236.067 262.402,236.433 C265.95,236.965 267.664,237.996 270.981,241.595 C275.722,246.739 275.905,249.254 271.762,252.336 L269.025,254.372 L266.698,252.186 C265.418,250.984 263.691,250 262.86,250 C262.029,250 260.292,248.875 259,247.5 C257.708,246.125 255.946,245 255.085,245 C253.551,245 249.232,243.044 228,232.733 C216.57,227.182 215.665,226.814 209,225.01 C206.525,224.34 203.466,223.389 202.203,222.896 C200.94,222.403 198.796,222 197.439,222 C196.083,222 194.191,221.55 193.236,221 C192.281,220.451 190.262,219.562 188.75,219.025 C185.146,217.746 185.278,216.411 189.25,213.989 Z M183,111.115 C183,111.728 181.421,113.677 179.491,115.444 C176.458,118.223 176.068,119.089 176.616,121.829 C177.193,124.714 177.588,125 181.003,125 C185.773,125 187.201,126.76 186.811,132.158 C186.538,135.931 186.129,136.589 183.5,137.481 C181.85,138.042 179.471,139.709 178.214,141.187 C176.957,142.665 174.707,144.015 173.214,144.187 C170.622,144.486 170.487,144.782 170.202,150.75 C169.871,157.701 170.542,158.278 175.309,155.134 C178.628,152.946 183.901,146.986 183.959,145.357 C184.019,143.692 186.588,142.968 190.011,143.652 L193,144.25 L193,137.567 C193,129.359 191.299,117.96 189.394,113.401 C188.318,110.826 187.369,110 185.487,110 C184.119,110 183,110.502 183,111.115 Z M188.297,155.612 C184.509,161.118 178.672,167 176.995,167 C176.032,167 174.685,166.325 174,165.5 C171.198,162.124 170.16,163.803 169.826,172.25 C169.39,183.277 169.737,185 172.388,185 C173.573,185 177.233,183.213 180.521,181.028 C183.81,178.844 187.299,177.044 188.275,177.028 C189.251,177.013 190.438,175.978 190.913,174.728 C191.65,172.79 192.525,158.057 192.13,154.25 C191.918,152.213 190.219,152.817 188.297,155.612 Z M105.7,108.911 C102.527,112.423 102.217,113.264 102.666,117.161 C103.374,123.32 103.696,124 105.901,124 C109.17,124 112.001,118.8 112.678,111.549 C113.249,105.435 113.154,105 111.261,105 C110.145,105 107.643,106.76 105.7,108.911 Z M176.655,54.829 C174.423,57.295 174.414,62.262 176.643,61.823 C177.546,61.645 178.601,60.825 178.987,60 C179.373,59.175 180.183,57.536 180.786,56.358 C182.627,52.761 179.556,51.624 176.655,54.829 Z M169.701,126.632 C168.629,127.704 168.867,131.8 170.044,132.527 C171.651,133.52 174.132,130.924 173.798,128.598 C173.499,126.513 171.013,125.32 169.701,126.632 Z M168,116 C168,118.743 168.436,120 169.387,120 C171.121,120 172.182,113.786 170.623,112.765 C168.507,111.38 168,112.005 168,116 Z"/>
</svg>

