<svg xmlns="http://www.w3.org/2000/svg" width="300" height="300" viewBox="0 0 300 300" version="1.1">
  <defs/>
  <path d="M151.259,31.939 C153.042,31.496 155.758,31.322 157.296,31.551 C160.588,32.042 167,36.665 167,38.547 C167,39.268 167.619,40.477 168.376,41.234 C169.133,41.991 170.04,44.61 170.39,47.055 C171.451,54.454 170.924,71.247 169.526,74.593 C168.811,76.304 167.893,79.673 167.486,82.08 C167.08,84.487 166.097,87.448 165.302,88.661 C164.167,90.393 164.105,91.328 165.013,93.024 C166.343,95.51 164.779,100.442 161.849,103 C159.199,105.313 158.8,124 161.4,124 C162.17,124 166.558,122.487 171.15,120.637 C182.23,116.175 189.391,114.138 196.663,113.377 C204.388,112.57 207,113.842 207,118.413 C207,122.727 205.865,123.533 198,124.804 C189.429,126.19 179.182,128.58 174.373,130.316 C172.243,131.084 168.7,132.281 166.5,132.974 C161.45,134.565 157,138.666 157,141.729 C157,143.025 157.717,147.553 158.592,151.792 C160.09,159.042 160.079,159.697 158.4,162.815 C156.74,165.897 156.729,166.318 158.241,168.815 C160.117,171.914 160.89,172.373 167,174.018 C171.271,175.167 178.658,178.051 187.5,182.021 C189.7,183.009 193.3,184.586 195.5,185.525 C197.7,186.464 203.1,189.028 207.5,191.223 C211.9,193.417 217.3,196.081 219.5,197.142 C221.7,198.203 224.175,199.493 225,200.008 C227.807,201.761 232.487,203.677 239.843,206.087 C243.882,207.41 247.396,208.831 247.652,209.246 C247.908,209.661 248.945,210 249.955,210 C251.714,210 258,216.173 258,217.9 C258,218.357 257.067,219.916 255.927,221.365 C252.798,225.344 249.214,224.84 242.659,219.5 C239.621,217.025 236.431,215 235.57,215 C234.709,215 230.967,213.606 227.253,211.902 C223.539,210.199 218.925,208.134 217,207.314 C215.075,206.494 210.35,204.209 206.5,202.235 C191.414,194.5 188.256,193.016 181.5,190.481 C177.65,189.037 171.658,186.471 168.184,184.779 C164.91,183.184 162.778,181.931 161.394,182.5 C158.627,183.637 158.858,192.066 158.946,219.639 C159.069,258.024 158.245,268.451 154.865,271.263 C151.388,274.156 148.139,274.494 145.163,272.272 C141.69,269.679 141.802,267.995 145.611,265.521 C148.628,263.562 148.745,263.209 149.439,254 C149.833,248.775 150.319,243.15 150.521,241.5 C150.722,239.85 150.62,225.113 150.293,208.75 C149.742,181.134 149.572,179 147.923,179 C146.062,179 141.25,184.225 138.884,188.815 C136.895,192.674 128.837,203 127.815,203 C127.339,203 126.541,204.078 126.04,205.396 C124.68,208.971 113.042,220.902 108.771,223.101 C106.719,224.156 104.345,226.365 103.495,228.01 C102.604,229.732 101.146,231 100.056,231 C99.015,231 97.564,231.225 96.832,231.501 C96.099,231.777 94.205,230.963 92.622,229.693 C88.844,226.662 89.642,223.477 94.404,222.584 C96.787,222.137 100.068,219.664 105.885,213.933 C110.364,209.52 115.035,204.42 116.264,202.601 C120.155,196.844 129.943,184.153 130.992,183.505 C131.546,183.162 132,182.203 132,181.373 C132,180.543 135.825,173.786 140.5,166.356 C148.477,153.679 149,152.512 149,147.393 C149,141.403 147.312,139.577 144.213,142.215 C141.665,144.382 126.125,151.651 121.292,152.936 C118.978,153.551 116.836,154.456 116.533,154.947 C116.022,155.773 105.876,159.099 99.934,160.389 C96.76,161.078 93,158.631 93,155.878 C93,152.108 94.891,150.001 98.285,149.987 C103.881,149.963 119.339,144.107 136.5,135.51 L146.5,130.5 L146.5,122.014 C146.5,111.745 145.489,111.063 139.095,117.025 C133.838,121.927 130.562,122.066 127.897,117.5 C125.907,114.09 125.48,109.439 127.067,108.459 C128.238,107.735 127.651,86.754 126.117,74.5 C125.237,67.476 121.644,55.327 119.921,53.55 C119.415,53.028 119,51.652 119,50.494 C119,49.336 117.875,46.864 116.5,45 C111.246,37.878 115.058,31.75 122.526,35.311 C124.744,36.369 126,37.675 126,38.925 C126,40.001 126.399,41.129 126.887,41.43 C127.374,41.731 128.07,43.558 128.432,45.489 C129.188,49.52 131.37,50.115 133.059,46.75 C133.68,45.513 135.209,43.6 136.457,42.5 C144.357,35.538 148.408,32.647 151.259,31.939 Z M71.655,58.829 C75.96,54.071 79.908,60.172 77.074,67.203 C76.565,68.466 74.79,73.775 73.131,79 C71.471,84.225 69.249,90.3 68.193,92.5 C64.913,99.33 64.63,104.366 67.305,108.308 C73.158,116.933 78.866,132.603 82.128,149 C84.502,160.938 83.059,187.401 79.401,199 C77.616,204.661 73.667,210 71.265,210 C69.712,210 60.685,200.75 59.157,197.593 C58.6,196.442 57.862,193.789 57.517,191.697 C56.808,187.399 54.222,185.67 52.564,188.386 C51.979,189.344 50.263,191.53 48.75,193.244 C47.238,194.958 46,196.955 46,197.682 C46,198.409 43.78,200.598 41.067,202.547 C38.08,204.693 35.327,207.75 34.089,210.296 C30.299,218.085 20.444,223.566 18.101,219.188 C17.163,217.437 17.926,216.091 23.759,209.208 C33.169,198.101 39.137,190.263 42.189,185 C43.624,182.525 47.583,177.463 50.988,173.75 C55.856,168.441 57.786,167 60.03,167 C63.76,167 64.464,168.287 64.679,175.5 C64.778,178.8 65.228,184.875 65.679,189 C66.458,196.114 66.629,196.5 69,196.5 C71.346,196.5 71.54,196.097 72.148,189.946 C74.428,166.9 73.942,156.171 69.954,141.5 C69.356,139.3 68.498,135.925 68.048,134 C67.597,132.075 65.904,127.35 64.286,123.5 C60.562,114.642 58.537,114.226 55.533,121.7 C54.383,124.56 52.443,127.964 51.221,129.264 C50,130.565 49,132.45 49,133.454 C49,136.007 38.352,147.865 34.343,149.776 C27.913,152.842 28.819,149.005 36.972,138.63 C39.738,135.111 42,131.532 42,130.675 C42,129.819 42.45,128.84 43,128.5 C43.55,128.16 44,127.192 44,126.349 C44,125.505 44.833,123.756 45.852,122.461 C47.652,120.173 50.758,108.425 49.813,107.48 C49.554,107.221 46.494,106.433 43.014,105.728 C33.348,103.772 32.301,99.893 40.262,95.531 C43.71,93.641 44.003,93.631 47.462,95.281 C49.445,96.226 52.123,97 53.413,97 C56.035,97 56.181,96.711 60.947,82 C62.641,76.775 64.47,71.719 65.013,70.764 C65.556,69.809 66,68.416 66,67.669 C66,66.921 66.9,65.495 68,64.5 C69.1,63.505 70,62.233 70,61.674 C70,61.115 70.745,59.835 71.655,58.829 Z M150.512,43.98 C150.179,44.519 150.571,46.915 151.382,49.304 C152.245,51.846 152.633,55.321 152.316,57.68 C151.53,63.542 153.194,66.107 157.27,65.314 C161.308,64.528 161.966,63.55 161.985,58.297 C162.011,51.185 157.466,43 153.491,43 C152.186,43 150.846,43.441 150.512,43.98 Z M135.652,57.002 C133.593,59.449 133.233,60.696 133.702,63.752 C134.019,65.813 134.666,68.258 135.139,69.184 C135.613,70.111 136,72.248 136,73.934 C136,77.392 137.393,77.814 140.841,75.399 C142.998,73.888 143.097,73.314 142.614,65.149 C142.332,60.392 142.078,55.938 142.051,55.25 C141.957,52.943 138.202,53.971 135.652,57.002 Z M139.313,87.464 C136.145,88.842 136.127,88.893 136.313,95.675 C136.481,101.794 136.719,102.531 138.617,102.802 C141.444,103.206 146,97.767 146,93.988 C146,90.659 144.397,85.982 143.275,86.039 C142.849,86.061 141.066,86.702 139.313,87.464 Z M156.446,78.087 C156.077,78.685 156.236,79.636 156.8,80.2 C158.062,81.462 160,80.396 160,78.441 C160,76.757 157.426,76.501 156.446,78.087 Z"/>
</svg>

