<svg xmlns="http://www.w3.org/2000/svg" width="300" height="300" viewBox="0 0 300 300" version="1.1">
  <defs/>
  <path d="M66.8,61.75 C68.705,59.543 72.786,59.496 75.171,61.655 C77.598,63.851 77.481,65.629 74.5,71.808 C73.125,74.658 72,78.027 72,79.295 C72,80.563 71.626,82.027 71.169,82.55 C69.598,84.345 65,96.133 65,98.366 C65,99.595 64.505,101.095 63.901,101.699 C62.433,103.167 63.45,106.033 67.04,110.55 C68.668,112.599 70,114.911 70,115.689 C70,116.467 70.859,118.768 71.909,120.802 C76.484,129.663 76.501,129.773 76.453,148.905 C76.424,160.316 75.901,169.818 75.098,173.5 C74.379,176.8 73.446,181.495 73.026,183.933 C72.445,187.299 71.277,189.285 68.169,192.183 C65.919,194.282 63.626,196 63.074,196 C62.521,196 60.458,194.585 58.488,192.855 C54.722,189.549 52,184.339 52,180.437 C52,175.441 47.236,176.239 43.845,181.802 C42.606,183.836 40.783,186.088 39.796,186.807 C38.808,187.525 38,188.568 38,189.123 C38,189.679 36.875,191.608 35.5,193.411 C34.125,195.214 33,197.139 33,197.689 C33,198.24 32.048,199.547 30.885,200.595 C29.722,201.643 28.392,203.489 27.93,204.698 C27.468,205.906 25.832,207.687 24.295,208.655 C22.758,209.623 20.228,211.446 18.673,212.707 C15.22,215.509 12.413,215.64 11.035,213.066 C9.29,209.805 9.859,208.016 13.282,205.996 C17.389,203.573 25.334,192.481 35.624,174.803 C36.242,173.741 37.823,171.664 39.136,170.186 C40.45,168.709 42.413,165.7 43.497,163.5 C44.582,161.3 46.939,157.159 48.735,154.298 C50.531,151.437 52,148.469 52,147.703 C52,146.937 52.896,145.499 53.991,144.508 C55.607,143.046 56.598,142.887 59.241,143.664 C62.418,144.598 62.495,144.751 62.283,149.796 C62.164,152.642 61.343,156.369 60.459,158.08 C59.204,160.506 58.933,163.407 59.226,171.278 C59.586,180.938 60.226,182.85 62.559,181.234 C64.214,180.087 66.128,165.876 66.727,150.287 C67.276,136.01 67.209,135.525 63.451,126.5 C62.764,124.85 61.596,122.037 60.857,120.25 C59.007,115.78 56.685,116.141 54.42,121.25 C53.383,123.588 52.077,126.008 51.518,126.628 C50.958,127.249 48.475,130.266 46,133.334 C41.268,139.201 38.515,140.915 36.717,139.117 C35.942,138.342 36.504,136.957 38.699,134.225 C40.383,132.129 42.664,128.409 43.768,125.957 C48.68,115.048 50.155,111.048 49.839,109.484 C49.489,107.753 44.124,105.333 38.006,104.146 C35.497,103.659 34.122,102.654 33.129,100.584 C31.847,97.909 31.918,97.57 34.103,95.923 C37.701,93.208 40.422,93.093 46.947,95.379 C51.15,96.851 53.241,97.159 53.984,96.416 C55.389,95.011 59.108,85.274 59.681,81.5 C59.931,79.85 60.494,77.6 60.932,76.5 C61.369,75.4 62.528,72.025 63.508,69 C64.488,65.975 65.969,62.712 66.8,61.75 Z M152.257,75.25 C153.734,73.382 157.456,73.741 159.45,75.944 C160.908,77.556 161.09,78.914 160.515,83.873 C159.789,90.126 160.418,94 162.159,94 C163.179,94 166.11,91.933 172.341,86.818 C176.877,83.095 180.576,82.306 183.04,84.536 C184.118,85.512 185,87.331 185,88.578 C185,90.814 179.766,97 177.874,97 C177.339,97 175.274,98.58 173.285,100.512 L169.668,104.024 L173.791,107.553 C176.749,110.085 177.91,111.846 177.902,113.791 C177.884,118.369 179.441,125.318 180.57,125.692 C181.158,125.887 184.421,123.334 187.82,120.018 C192.158,115.786 194,113.239 194,111.473 C194,107.915 198.026,106.132 201.267,108.255 C203.203,109.524 203.628,110.692 203.692,114.918 C203.767,119.857 203.612,120.155 199.385,123.19 C196.973,124.922 195,126.673 195,127.081 C195,127.49 191.625,130.662 187.5,134.132 C183.375,137.601 180,140.96 180,141.597 C180,142.234 179.348,143.296 178.551,143.958 C177.754,144.619 176.598,146.811 175.981,148.83 C175.365,150.848 174.487,153.4 174.031,154.5 C173.575,155.6 172.632,158.075 171.936,160 C171.24,161.925 170.127,164.175 169.462,165 C168.797,165.825 167.723,168.152 167.075,170.17 C166.428,172.189 165.246,174.381 164.449,175.042 C163.652,175.704 163,176.781 163,177.436 C163,178.09 161.255,181.523 159.121,185.063 C156.988,188.603 154.484,193.739 153.557,196.475 C152.629,199.212 151.483,201.917 151.01,202.488 C150.537,203.058 149.177,206.219 147.987,209.512 C145.036,217.681 143.131,221.801 141.973,222.517 C141.438,222.847 141,223.733 141,224.486 C141,225.238 138.749,229.253 135.997,233.408 C130.746,241.337 127.965,243.122 124.093,241.05 C121.055,239.424 121.523,236.601 125.31,233.713 C127.501,232.041 129.587,228.875 131.481,224.344 C133.054,220.58 135.071,216.375 135.963,215 C137.568,212.524 139.852,207.826 141.797,203 C142.351,201.625 144.648,196.554 146.902,191.731 C149.156,186.909 151,182.471 151,181.871 C151,181.27 152.53,177.566 154.399,173.639 C162.415,156.803 163.297,154 160.577,154 C159.794,154 157.852,155.095 156.261,156.434 C154.669,157.773 150.964,159.782 148.026,160.898 C145.089,162.014 141.462,164.099 139.967,165.532 C137.818,167.591 136.445,168.069 133.406,167.818 C129.864,167.525 129.494,167.202 128.668,163.686 C127.891,160.382 128.077,159.547 130.06,157.436 C131.319,156.096 133.141,155 134.108,155 C135.791,155 146.858,150.782 150,148.944 C159.37,143.46 162.328,141.496 165.063,138.941 L168.267,135.948 L167.54,122.227 C167.14,114.681 166.603,108.167 166.347,107.753 C165.664,106.647 161.22,106.835 160.5,108 C160.16,108.55 158.82,109 157.523,109 C150.753,109 149.131,105.662 149.508,92.5 C149.804,82.142 150.56,77.396 152.257,75.25 Z M111.75,41.392 C115.931,38.219 120,40.991 120,47.012 C120,49.141 119.55,51.16 119,51.5 C118.45,51.84 118,53.448 118,55.073 C118,56.698 117.605,58.809 117.122,59.764 C114.999,63.962 113.216,68.769 112.58,72.004 C112.202,73.927 111.252,77.075 110.469,79 C109.686,80.925 108.148,87.099 107.051,92.719 C105.954,98.339 104.593,103.852 104.028,104.969 C103.463,106.086 102.55,107.894 102,108.986 C101.45,110.079 101,112.577 101,114.537 C101,117.605 101.453,118.298 104.25,119.504 C106.037,120.274 108.718,121.939 110.206,123.202 C113.407,125.919 120,138.294 120,141.583 C120,142.847 120.408,144.134 120.906,144.442 C122.212,145.249 122.337,189.674 121.035,190.478 C120.466,190.83 120,192.351 120,193.859 C120,197.259 118.35,199 115.129,199 C109.549,199 107.066,192.178 110.75,186.973 C112.279,184.813 112.489,182.061 112.415,165.215 C112.357,151.973 111.965,145.565 111.165,144.765 C110.524,144.124 110,142.751 110,141.713 C110,140.676 108.54,137.794 106.756,135.31 C103.573,130.877 103.423,130.801 98.798,131.245 C94.644,131.645 93.769,131.368 91.419,128.916 C90.622,128.084 90.034,127.471 89.673,126.744 C88.658,124.698 89.449,121.755 92.47,110.5 C93.946,105 95.561,98.561 96.058,96.192 C96.555,93.822 97.576,90.447 98.327,88.692 C100.034,84.702 101.393,80.31 103.492,72 C104.395,68.425 105.779,63.311 106.567,60.635 C107.355,57.96 108,54.049 108,51.944 C108,49.84 108.45,47.84 109,47.5 C109.55,47.16 110,45.946 110,44.801 C110,43.657 110.787,42.123 111.75,41.392 Z M173.39,166.427 C174.362,163.893 181.882,165.046 185.095,168.222 C185.868,168.986 191.675,173.033 198,177.215 C204.325,181.398 212.2,187.577 215.5,190.947 C218.8,194.317 222.846,197.8 224.492,198.688 C229.385,201.327 237.27,208.468 256.401,227.586 C267.898,239.076 276.78,247.061 280.75,249.478 C284.188,251.572 287,253.835 287,254.507 C287,255.18 287.9,256.874 289,258.273 C290.1,259.671 291,261.39 291,262.093 C291,263.764 287.001,268 285.423,268 C284.748,268 278.864,262.79 272.348,256.423 C265.831,250.056 257.476,242.127 253.779,238.804 C250.083,235.48 246.797,231.935 246.476,230.925 C245.916,229.161 236.95,221.078 223.821,210.5 C187.258,181.041 183.263,177.957 177.107,174.438 C173.575,172.42 172.215,169.488 173.39,166.427 Z M158.942,26.948 C162.839,25.766 162.95,25.797 166.069,28.916 C168.712,31.558 168.931,32.283 168.413,36.666 C167.805,41.804 166.476,45.422 164.172,48.213 C162.495,50.243 163.278,53 165.531,53 C166.407,53 169.458,51.904 172.312,50.565 C179.599,47.145 182.373,46.638 186.447,47.982 C189.573,49.014 190,49.556 190,52.488 C190,55.437 189.509,56.047 185.75,57.775 C183.412,58.849 177.675,60.499 173,61.44 C168.325,62.382 162.145,64.253 159.266,65.598 C151.658,69.152 148.343,69.621 145.973,67.475 C143.383,65.131 143.459,60.793 146.133,58.405 C150.173,54.798 156.144,45.885 156.659,42.696 C157.068,40.157 156.643,39.002 154.587,37.076 C149.961,32.741 151.478,29.213 158.942,26.948 Z"/>
</svg>

