<svg xmlns="http://www.w3.org/2000/svg" width="300" height="300" viewBox="0 0 300 300" version="1.1">
  <defs/>
  <path d="M143.09,77.964 C149.389,76.945 149.663,76.934 151.453,77.62 C153.985,78.592 158.636,86.088 159.445,90.5 C159.849,92.7 160.527,94.95 160.953,95.5 C161.785,96.576 162.218,100.224 165.822,136.5 C166.617,144.503 166.692,152.739 166.157,173.639 C165.968,181.016 164.1,183.805 158.774,184.657 C155.45,185.19 154.943,184.981 154.085,182.724 C152.525,178.621 151.16,178.61 146.521,182.664 C140.483,187.941 136.54,190.86 134.351,191.673 C133.333,192.051 130.819,193.46 128.764,194.804 C125.311,197.062 124.851,197.132 122.702,195.724 C121.423,194.886 119.842,192.416 119.188,190.234 C117.742,185.408 117.622,175.352 119,174.5 C119.55,174.16 120.009,170.646 120.02,166.691 C120.031,162.736 120.463,156.575 120.98,152.999 C121.498,149.424 122.127,137.11 122.378,125.635 C122.732,109.506 122.516,103.72 121.429,100.136 C119.502,93.787 119.558,84.612 121.534,82.972 C123.742,81.139 127.934,83.602 129.668,87.75 C131.461,92.039 132.693,91.852 133.975,87.095 C135.542,81.272 138.028,78.782 143.09,77.964 Z M62,96.501 C62.684,95.675 64.524,95 66.087,95 C69.457,95 71.435,97.946 70.688,101.854 C70.411,103.3 70.649,107.119 71.217,110.342 L72.249,116.2 L75.374,115.488 C81.946,113.99 82.475,114.194 82.817,118.364 C83.047,121.162 82.582,122.817 81.134,124.364 C77.824,127.897 77.026,131.51 76.617,144.805 C76.366,152.976 75.657,159.104 74.628,162 C73.749,164.475 73.023,167.063 73.015,167.75 C72.983,170.482 76.733,168.741 81.091,164 C83.834,161.017 86.544,159 87.809,159 C90.421,159 92.372,162.381 91.581,165.535 C90.769,168.768 75.745,183.643 68.469,188.416 C65.186,190.57 60.849,193.418 58.832,194.745 C54.338,197.702 51.733,196.752 50.008,191.525 C48.511,186.988 49.014,183.973 51.496,182.602 C59.405,178.234 61.036,175.877 65.402,162.509 C68.07,154.341 69.006,141.74 67.036,140.522 C66.505,140.194 62.955,142.193 59.146,144.963 C55.337,147.733 51.737,150 51.145,150 C50.554,150 49.589,150.9 49,152 C47.698,154.432 45.284,154.567 42.829,152.345 C39.278,149.132 40.506,146.484 48.25,140.654 C52.237,137.652 57.637,133.314 60.248,131.014 C64.818,126.99 64.973,126.676 64.369,122.666 C64.023,120.375 62.846,115.861 61.753,112.636 C59.63,106.372 59.739,99.224 62,96.501 Z M172.067,220.419 C175.046,216.83 191.279,220.049 198,225.561 C198.825,226.238 201.631,227.506 204.237,228.379 C208.384,229.77 221.507,236.312 237.5,244.962 C242.766,247.811 257.103,255.581 260.5,257.428 C263.488,259.052 274.239,266.497 277.448,269.164 C285.83,276.131 286.474,277.548 282.811,280.961 C279.47,284.074 276.596,283.515 272.732,279 C270.849,276.8 268.867,275 268.328,275 C267.79,275 266.258,273.83 264.924,272.4 C263.591,270.97 260.025,268.485 257,266.879 C253.975,265.272 249.7,262.833 247.5,261.459 C245.3,260.085 241.129,257.788 238.231,256.354 C235.333,254.921 232.719,253.355 232.422,252.874 C232.125,252.393 231.076,252 230.091,252 C229.106,252 226.436,250.65 224.159,249 C221.881,247.35 219.424,246 218.7,246 C217.975,246 216.509,245.339 215.441,244.532 C214.374,243.724 212.768,243.049 211.872,243.032 C210.977,243.014 209.746,242.399 209.137,241.665 C208.527,240.93 206.229,239.736 204.029,239.009 C201.829,238.283 199.278,236.859 198.359,235.845 C197.441,234.83 196.227,234 195.661,234 C195.095,234 192.763,233.095 190.479,231.99 C188.195,230.884 183.98,229.422 181.112,228.741 C174.542,227.18 169.957,222.961 172.067,220.419 Z M130.98,22.537 C132.699,19.325 136.44,19.18 138.362,22.25 C139.137,23.488 140.068,26.907 140.433,29.849 C140.797,32.79 141.79,36.934 142.639,39.057 C143.897,42.199 143.981,43.862 143.092,48.007 C142.166,52.322 141.871,53.537 142.287,53.875 C142.477,54.029 142.817,54 143.313,54 C145.309,54 148.636,45.275 149.35,38.165 C149.701,34.681 150.242,31.418 150.553,30.915 C150.864,30.412 152.856,30 154.98,30 C158.45,30 158.907,30.301 159.495,32.975 C159.931,34.962 159.625,36.698 158.574,38.198 C157.708,39.434 157,41.853 157,43.573 C157,47.749 155.185,52.814 152.334,56.594 C151.05,58.296 150,60.05 150,60.491 C150,60.933 148.425,63.216 146.5,65.565 C144.575,67.915 142.971,70.211 142.936,70.668 C142.83,72.055 133.974,79 132.311,79 C131.2,79 131.727,77.794 134.168,74.75 C140.41,66.968 143.477,56.262 137.463,63.25 C133.338,68.043 129.501,65.809 131.728,59.91 C133.222,55.953 132.28,55.646 127.407,58.502 C120.716,62.423 117.968,61.705 116.445,55.637 C115.608,52.302 117.255,50.775 120.745,51.651 C123.387,52.314 131.696,50.071 133.168,48.297 C133.852,47.473 133.846,46.01 133.148,43.789 C132.581,41.98 131.555,37.029 130.869,32.787 C129.838,26.41 129.858,24.635 130.98,22.537 Z M131.695,206.785 C133.955,204.287 137.091,204.888 138.928,208.171 C140.076,210.224 140.171,211.382 139.336,213.171 C138.738,214.452 137.759,216.625 137.16,218 C135.429,221.974 129.96,231.334 128.245,233.257 C127.383,234.223 126.188,235.846 125.589,236.864 C122.6,241.942 117.312,247.93 112.43,251.765 C109.443,254.11 107,256.451 107,256.967 C107,258.763 98.154,264 95.121,264 C92.872,264 91.451,263.146 89.551,260.656 C85.303,255.086 86.817,251.618 93.063,252.612 C96.302,253.128 96.981,252.674 104.851,244.729 C112.978,236.525 123.467,222.747 126.479,216.318 C127.299,214.568 128.427,212.854 128.985,212.509 C129.543,212.164 130,211.156 130,210.27 C130,209.383 130.763,207.815 131.695,206.785 Z M147.5,150.284 C140.942,156.9 136.911,159.267 133.61,158.438 C130.218,157.587 129.363,159.852 128.873,170.976 C128.542,178.493 128.703,179.493 130.289,179.807 C131.297,180.007 133.755,178.647 135.915,176.696 C138.025,174.79 141.944,171.963 144.625,170.413 C147.306,168.864 149.725,167.328 150,167 C150.275,166.672 151.963,165.382 153.75,164.134 C156.879,161.948 157,161.61 157,155.014 C157,143.209 155.334,142.38 147.5,150.284 Z M74.21,72.944 C79.167,69.584 80.648,69.371 83.171,71.655 C85.395,73.667 85.494,75.85 83.492,78.708 C82.015,80.817 76.704,84 74.662,84 C73.167,84 65.111,88.011 64.447,89.087 C64.136,89.589 62.853,90 61.595,90 C60.337,90 57.891,90.706 56.161,91.57 C52.043,93.624 49.414,92.675 47.387,88.402 C46.48,86.492 45.91,84.772 46.119,84.581 C47.66,83.173 60.878,77.791 64.925,76.923 C67.672,76.333 71.851,74.543 74.21,72.944 Z M146.5,121.539 C143.75,124.012 139.828,126.93 137.783,128.021 C133.066,130.541 132.417,131.883 131.63,140.75 C130.882,149.166 131.903,149.982 136.975,145.025 C141.475,140.625 150.333,134.274 152.558,133.852 C154.023,133.574 154.58,132.503 154.826,129.492 C155.283,123.885 154.103,116.996 152.689,117.021 C152.035,117.032 149.25,119.065 146.5,121.539 Z M138.824,96.316 L133.148,101.572 L132.704,108.786 C132.449,112.922 132.66,116 133.197,116 C134.735,116 141.962,109.604 141.982,108.225 C142.007,106.461 146.91,104.761 149.847,105.498 C152.204,106.089 152.253,105.985 151.585,101.808 C150.781,96.779 148.007,91.601 145.946,91.283 C145.151,91.161 141.946,93.425 138.824,96.316 Z"/>
</svg>

