<svg xmlns="http://www.w3.org/2000/svg" width="300" height="300" viewBox="0 0 300 300" version="1.1">
  <defs/>
  <path d="M191.667,146.667 C193.912,144.422 198.988,149.979 198.996,154.691 C198.998,155.896 199.45,157.16 200,157.5 C200.55,157.84 201,159.162 201,160.437 C201,161.712 201.675,164.371 202.5,166.346 C203.325,168.32 204,171.981 204,174.481 C204,176.982 204.52,180.034 205.156,181.264 C205.792,182.494 206.692,184.281 207.156,185.236 C209.748,190.57 207.057,204.278 201.448,214.314 C198.925,218.828 190.991,226.233 187.486,227.346 C186.387,227.694 180.091,228.433 173.494,228.986 C166.897,229.54 159.025,230.664 156,231.484 C147.078,233.904 137.7,233.405 129.214,230.057 C119.238,226.121 115.27,222.854 112.275,216.11 C109.604,210.096 109.59,207.073 112.163,192 C112.773,188.425 113.324,179.425 113.386,172 C113.449,164.575 113.864,157.938 114.309,157.25 C115.569,155.304 119.777,155.777 122.13,158.13 C124.145,160.145 124.227,160.913 123.64,172.38 C123.3,179.046 122.904,185.611 122.76,186.969 C122.347,190.884 125.143,190.506 130.323,185.947 C134.604,182.179 140.606,174.406 143.743,168.569 C146.601,163.252 151.427,162.692 153.939,167.387 C155.111,169.575 154.907,170.419 151.969,175.554 C150.167,178.703 147.37,182.787 145.754,184.628 C141.24,189.768 130.453,198 128.231,198 C125.59,198 124.351,199.658 122.879,205.163 C121.821,209.118 121.889,210.246 123.37,213.368 C124.315,215.359 126.748,218.115 128.776,219.494 C131.995,221.681 133.548,222.001 140.982,222.01 C158.678,222.03 183.075,218.218 186.63,214.878 C187.848,213.734 190.56,209.355 192.656,205.149 L196.467,197.5 L196.325,182.969 C196.189,169.004 194.455,158.291 191.889,155.55 C190.855,154.445 190.685,147.648 191.667,146.667 Z M125.459,52.406 C130.256,48.898 134,52.123 134,59.763 C134,65.094 134.057,65.203 136.522,64.584 C140.413,63.607 140.583,66.146 137.094,73.127 C135.365,76.587 133.998,80.904 133.996,82.91 C133.994,84.884 133.276,90.55 132.401,95.5 C131.526,100.45 130.658,105.85 130.472,107.5 C130.287,109.15 129.682,112.275 129.129,114.445 C128.575,116.614 128.347,118.752 128.62,119.195 C129.482,120.589 134.98,120.077 143.135,117.842 C152.301,115.33 156,116.081 156,120.456 C156,123.533 153.175,125.485 146.5,127.018 C143.75,127.65 140.6,128.539 139.5,128.993 C131.78,132.18 117.17,134.429 114.269,132.876 C110.885,131.065 111.386,127.575 115.502,124.293 C119.818,120.851 121.654,115.453 122.32,104.25 C122.877,94.891 122.087,94.066 116.818,98.5 C111.708,102.8 108.049,101.024 107.713,94.082 C107.521,90.126 107.757,89.62 110.095,88.973 C112.692,88.255 115.801,85.921 121.067,80.737 C123.857,77.989 123.872,77.903 123.705,65.893 C123.553,55.016 123.728,53.672 125.459,52.406 Z M70.489,68.385 C73.072,66.495 74.644,66.644 77,69 C78.722,70.722 79,72.333 79,80.607 C79,89.363 79.155,90.15 80.75,89.496 C84.976,87.762 85.49,88.274 85.776,94.5 C86.034,100.129 85.833,100.743 82.526,104.432 C80.587,106.594 79,109.317 79,110.482 C79,111.647 78.611,113.028 78.136,113.55 C77.662,114.073 76.756,116.047 76.123,117.937 C74.674,122.27 75.961,123.841 79.138,121.616 C82.101,119.541 86,119.497 86,121.54 C86,124.552 82.005,130.84 77.811,134.43 C73.28,138.308 70.64,139.369 66.852,138.833 C64.691,138.527 64.509,138.052 64.614,133 C64.677,129.975 65.073,125.588 65.496,123.25 C65.918,120.912 65.911,119 65.481,119 C65.051,119 62.264,120.192 59.287,121.648 L53.874,124.296 L51.187,122.299 C49.468,121.022 48.387,119.169 48.187,117.158 C47.847,113.739 48.191,113.493 57,110.867 C59.873,110.01 62.852,108.074 65.239,105.513 L68.978,101.5 L68.787,85.635 C68.611,71.095 68.753,69.653 70.489,68.385 Z M89.557,165.223 C91.541,162.389 94.215,162.398 97.407,165.25 C99.864,167.445 99.892,167.621 98.559,172.5 C96.431,180.291 92.774,187.425 88.092,192.918 C84.947,196.608 79.281,204.935 77.284,208.804 C75.997,211.297 75.844,212.524 76.663,213.804 C77.834,215.635 78.375,215.645 92,214.1 C97.425,213.485 100.854,213.484 101.478,214.096 C103.175,215.761 100.575,218.424 95.908,219.799 C93.484,220.514 88.691,222.42 85.257,224.036 C81.824,225.652 77.324,227.241 75.257,227.568 C72.019,228.079 71.137,227.77 68.872,225.331 C65.82,222.044 64.069,215.064 64.197,206.693 C64.246,203.499 63.771,200.371 63.143,199.743 C62.514,199.114 62,195.82 62,192.422 C62,185.656 63.542,183.085 66.58,184.785 C68.43,185.82 70.961,192.163 70.985,195.823 C70.995,197.439 71.501,198.048 72.643,197.823 C74.325,197.492 74.856,196.722 77,191.5 C77.677,189.85 78.609,187.825 79.069,187 C83.403,179.239 88,169.86 88,168.779 C88,168.045 88.701,166.445 89.557,165.223 Z M71.171,48.943 C75.202,46.803 79.596,45.041 80.936,45.026 C84.209,44.991 88,48.726 88,51.987 C88,54.669 83.483,60 81.211,60 C80.563,60 77.245,61.35 73.839,63 C63.99,67.771 60,66.681 60,59.221 C60,55.607 61.889,53.87 71.171,48.943 Z M120.861,34.25 C125.699,29.163 130.34,25 131.174,25 C134.644,25 137.644,31.176 136.121,35.182 C134.448,39.582 120.031,53 116.976,53 C114.52,53 112,49.735 112.032,46.595 C112.058,44.091 113.743,41.735 120.861,34.25 Z"/>
</svg>

