<svg xmlns="http://www.w3.org/2000/svg" width="300" height="300" viewBox="0 0 300 300" version="1.1">
  <defs/>
  <path d="M147.554,43.5 C150.458,39.956 151.889,39 154.292,39 C155.97,39 158.165,39.745 159.171,40.655 C162.211,43.406 161.398,46.203 156.452,50.005 C153.95,51.927 150.623,54.513 149.058,55.75 C147.492,56.987 145.862,58 145.435,58 C145.008,58 141.884,59.351 138.494,61.003 L132.331,64.005 L132.13,73.091 C131.998,79.1 131.432,82.936 130.461,84.419 C129.654,85.651 129.216,86.883 129.489,87.155 C129.968,87.635 131.151,101.838 131.474,111 C131.719,117.936 131.922,119 133,119 C133.55,119 134,117.803 134,116.34 C134,114.398 135.583,112.171 139.863,108.09 C148.059,100.274 160.668,90.595 166.791,87.419 C171.313,85.073 172.314,84.888 174.836,85.932 C176.42,86.588 178.702,88.458 179.906,90.087 C181.994,92.911 182.044,93.452 180.98,101.774 C179.276,115.101 178.194,122.154 177.261,126 C176.795,127.925 176.482,131.525 176.567,134 C176.652,136.475 176.149,139.639 175.448,141.032 C174.509,142.898 174.254,148.867 174.478,163.724 C174.764,182.618 174.957,184.421 177.567,192.439 C180.797,202.366 186.826,210.094 194.109,213.646 C199.05,216.055 213.061,217.358 221.465,216.19 C225.93,215.57 226.737,215.046 229.465,211 C232.48,206.53 232.498,206.417 232.27,194.131 C232.038,181.61 229.094,165.288 226.476,162 C225.055,160.215 224.647,158.819 221.357,144.5 C217.523,127.818 217.373,126 219.822,126 C221.776,126 225,130.688 225,133.531 C225,134.204 225.675,135.315 226.5,136 C227.325,136.685 228.007,138.652 228.015,140.372 C228.029,143.49 229.915,149.805 232.532,155.5 C235.624,162.229 239.043,173.14 240.991,182.5 C241.678,185.8 242.861,189.918 243.62,191.651 C245.471,195.878 245.403,208.759 243.512,212 C242.71,213.375 241.39,215.891 240.58,217.591 C237.25,224.575 229.752,227.598 214.5,228.107 C207.815,228.329 196.72,225.98 190.261,222.973 C187.929,221.888 185.607,221 185.101,221 C184.595,221 182.341,219.07 180.093,216.711 C174.605,210.953 168.594,198.308 166.921,189 C164.88,177.65 165.106,146.37 167.343,130.5 C168.351,123.35 169.58,114.125 170.074,110 C170.567,105.875 171.156,101.729 171.383,100.787 C171.609,99.844 171.131,98.523 170.32,97.851 C169.101,96.839 168.041,97.49 164.174,101.622 C161.603,104.368 157.475,107.901 155,109.473 C152.525,111.044 148.207,115.069 145.405,118.415 C140.625,124.124 140.053,124.495 136.155,124.414 L132,124.327 L132,130.964 C132,137.694 133.018,140 135.989,140 C136.862,140 139.342,140.9 141.5,142 C143.658,143.1 146.367,144 147.522,144 C148.676,144 151.079,145.426 152.861,147.168 C155.364,149.616 156.033,151.036 155.801,153.41 C155.438,157.119 153.287,157.788 148.846,155.573 C147.112,154.708 144.974,153.993 144.096,153.985 C143.218,153.977 140.53,153.285 138.122,152.446 C135.715,151.608 133.466,151.201 133.124,151.542 C132.783,151.883 132.409,155.613 132.293,159.831 C132.177,164.049 131.818,171.438 131.495,176.25 C130.933,184.632 130.996,185 132.988,185 C134.131,185 137.287,183.875 140,182.5 C142.713,181.125 145.589,180 146.39,180 C147.191,180 149.196,178.65 150.846,177 C155.913,171.933 159.263,173.622 158.305,180.76 C157.847,184.179 156.933,185.633 153.452,188.486 C151.093,190.419 148.671,192 148.068,192 C147.466,192 146.191,192.391 145.236,192.87 C144.281,193.348 141.475,194.701 139,195.875 C131.39,199.485 123.654,204.103 120.324,207.023 C115.987,210.827 111.32,211.786 108.981,209.355 C107.999,208.335 106.902,206.088 106.543,204.363 C105.933,201.43 106.284,200.927 111.957,196.613 C115.293,194.076 118.423,192 118.913,192 C122.927,192 124.794,156.951 122.429,126 C121.525,114.175 120.65,100.45 120.484,95.5 C120.163,85.941 121.487,74.129 123.056,72.55 C124.268,71.331 124.276,68.289 123.07,67.543 C122.558,67.227 119.204,67.932 115.617,69.109 C108.307,71.509 106.413,71.215 104.985,67.46 C103.543,63.668 105.231,61.388 110.744,59.682 C113.36,58.872 117.975,57.198 121,55.963 C124.025,54.727 127.4,53.39 128.5,52.992 C129.6,52.593 132.984,51.307 136.019,50.134 C139.055,48.96 142.062,48 142.702,48 C143.342,48 145.525,45.975 147.554,43.5 Z M101,104.056 C106.215,99.859 110.472,102.455 109.131,109.013 C108.428,112.452 104.846,115.39 87.636,126.642 L83.773,129.169 L84.636,139.834 C86.484,162.651 84.736,207.748 81.635,217.274 C80.781,219.9 80.323,222.678 80.618,223.447 C81.266,225.137 78.102,227 74.585,227 C70.936,227 70.439,223.603 72.983,216.049 C74.997,210.071 75.63,203.19 77.215,170 C77.815,157.449 74.935,138 72.477,138 C71.641,138 66.305,141.536 63.424,144 C59.706,147.179 55.796,156.7 55.271,163.851 C55.048,166.894 54.415,170.224 53.866,171.251 C53.316,172.277 53.098,174.328 53.381,175.809 C54.037,179.241 47.287,193.355 44.767,193.82 C43.814,193.996 41.935,192.954 40.592,191.505 C38.44,189.183 38.277,188.49 39.22,185.685 C39.809,183.933 40.596,182.05 40.97,181.5 C41.587,180.592 43.769,173.053 46.035,164 C47.394,158.57 48.15,153 47.527,153 C47.217,153 41.234,155.752 34.232,159.117 C11.276,170.145 10.149,170.479 7.699,166.981 C6.17,164.797 6.524,160.61 8.361,159.164 C8.987,158.67 12.2,157.281 15.5,156.076 C18.8,154.872 23.3,153.061 25.5,152.053 C40.523,145.164 46.788,141.96 47.934,140.58 C48.86,139.464 49.067,137.302 48.634,133.248 C46.743,115.536 46.703,111.491 48.403,110.081 C49.624,109.067 50.643,108.973 52.28,109.723 C53.981,110.502 55.049,112.743 56.847,119.308 C58.139,124.02 58.941,128.287 58.63,128.79 C58.319,129.294 58.66,130.521 59.389,131.517 C60.641,133.229 61,133.143 65.932,129.947 C70.522,126.973 71.072,126.261 70.502,124.033 C70.146,122.64 69.616,118.555 69.326,114.956 C68.899,109.673 69.113,108.151 70.433,107.056 C71.812,105.912 72.494,105.918 74.784,107.098 C78.431,108.977 78.967,109.874 78.985,114.143 C79.007,119.487 81.097,119.557 86.667,114.399 C89.325,111.938 93.075,109.057 95,107.996 C96.925,106.936 99.625,105.163 101,104.056 Z M70.544,37.172 C80.045,31.081 84.693,30.531 86.275,35.308 C86.986,37.452 86.827,38.534 85.603,39.887 C84.721,40.861 84,42.305 84,43.097 C84,43.889 82.313,46.649 80.25,49.231 C76.057,54.479 71.073,61.347 69.389,64.196 C68.778,65.229 67.388,67.071 66.301,68.287 C65.213,69.504 63.721,72.075 62.984,74 C62.247,75.925 61.049,78.388 60.322,79.473 C56.861,84.636 61.55,85.731 67.038,81.041 C68.942,79.413 71.045,78.063 71.711,78.041 C72.378,78.018 74.701,76.204 76.875,74.008 C83.518,67.299 87.992,66.879 91.093,72.674 C92.19,74.723 91.882,75.382 87.908,79.482 C85.489,81.978 82.658,84.291 81.618,84.621 C80.578,84.951 77.784,86.705 75.408,88.519 C73.032,90.332 69.381,92.372 67.294,93.053 C65.207,93.733 62.2,95.373 60.61,96.698 C56.468,100.15 52.251,99.524 49.217,95.005 C46.534,91.011 46.794,86.822 50.073,81.193 C51.133,79.374 52,77.549 52,77.137 C52,76.725 54.676,71.494 57.947,65.513 C61.218,59.532 63.693,54.312 63.447,53.914 C63.201,53.516 60.329,53.432 57.066,53.728 C51.182,54.261 51.115,54.238 49.049,50.883 C45.376,44.92 46.372,43.592 55.044,42.886 C61.928,42.326 63.286,41.826 70.544,37.172 Z"/>
</svg>

