<svg xmlns="http://www.w3.org/2000/svg" width="300" height="300" viewBox="0 0 300 300" version="1.1">
  <defs/>
  <path d="M142.055,130.25 C144.682,127.523 145.915,127 149.711,127 C153.352,127 154.946,127.616 157.868,130.151 C162.99,134.595 164.903,138.582 164.994,145 C165.036,148.025 165.69,151.618 166.446,152.984 C167.381,154.673 167.518,156.032 166.875,157.234 C166.277,158.351 166.286,159.667 166.9,160.814 C167.434,161.812 168.099,175.52 168.377,191.276 C168.859,218.556 168.986,220.062 171.022,222.816 C175.842,229.336 170.537,235.596 161.114,234.507 C158.702,234.229 155.102,234.42 153.114,234.932 C133.618,239.953 124,239.606 124,233.88 C124,231.465 126.079,230.555 135,229.067 C139.125,228.379 145.775,227.098 149.779,226.219 C156.206,224.808 157.122,224.322 157.61,222.06 C157.914,220.652 158.572,218.375 159.073,217 C160.01,214.431 159.738,196.405 158.749,195.415 C158.445,195.111 155.961,196.468 153.229,198.431 C150.496,200.394 147.959,202 147.59,202 C147.221,202 145.7,202.888 144.21,203.973 C142.708,205.067 139.508,206.07 137.031,206.223 C132.81,206.485 132.453,206.298 130.577,202.849 C128.904,199.774 128.8,198.946 129.918,197.599 C130.648,196.72 132.558,196 134.162,196 C137.38,196 143.923,193.003 145.897,190.624 C146.592,189.787 148.727,188.585 150.643,187.953 C153.545,186.995 154.42,187.07 155.891,188.402 C159.384,191.562 160.341,190.467 159.52,184.25 C159.102,181.088 158.618,176.25 158.444,173.5 C157.851,164.117 154.88,145.507 153.455,142.25 C152.657,140.428 151.29,139 150.343,139 C149.414,139 144.232,143.513 138.827,149.028 C130.974,157.042 129,159.637 129,161.945 C129,163.826 128.158,165.473 126.586,166.667 C124.3,168.402 124.139,169.231 123.57,182.209 C123.239,189.75 122.7,196.618 122.372,197.472 C122.044,198.326 122.246,199.591 122.82,200.283 C123.518,201.124 123.566,203.849 122.964,208.52 C122.47,212.359 122.051,217.997 122.033,221.05 C121.997,227.071 120.855,229 117.326,229 C113.263,229 111.909,224.552 113.024,214.86 C114.317,203.61 114.299,162.303 113,161.5 C112.444,161.156 112,156.553 112,151.132 C112,140.039 113.101,137.307 117.161,138.326 C120.806,139.24 122.407,143.165 122.457,151.303 C122.493,157.307 122.783,158.52 124.25,158.806 C125.689,159.086 126,158.413 126,155.024 C126,148.678 129.492,143.289 142.055,130.25 Z M59.391,71.54 C61.396,69.593 63.746,68 64.614,68 C66.725,68 72,71.825 72,73.356 C72,74.026 69.75,76.791 67,79.5 C64.25,82.209 62,84.896 62,85.472 C62,86.048 62.944,87.108 64.098,87.829 C66.065,89.058 66.147,89.649 65.407,97.32 C64.973,101.819 64.701,106.937 64.804,108.694 C64.906,110.451 64.542,112.165 63.995,112.503 C63.448,112.841 63,114.923 63,117.129 C63,120.716 63.237,121.105 65.25,120.819 C66.863,120.59 67.411,119.933 67.185,118.5 C66.357,113.244 66.528,112.496 68.625,112.197 C72.069,111.706 74,114.549 74,120.111 C74,125.141 72.343,129.162 67.552,135.761 C65.235,138.953 64.752,141.251 63.463,155.25 C62.918,161.159 63.051,162 64.526,162 C65.453,162 69.003,158.995 72.415,155.323 C76.281,151.161 79.066,148.923 79.809,149.382 C81.411,150.372 81.32,157.3 79.653,161.282 C78.304,164.504 70.861,172 69.011,172 C68.47,172 67.401,173.498 66.636,175.33 C65.87,177.161 62.675,180.874 59.534,183.58 C56.394,186.286 52.434,189.719 50.733,191.21 C46.231,195.157 42.412,195.735 39.418,192.923 C35.031,188.802 35.786,187.357 47.301,177.844 C52.559,173.5 53.632,170.863 54.358,160.5 C55.125,149.562 54.518,148.152 49.842,150.005 C48.004,150.733 45.79,151.93 44.921,152.665 C44.053,153.399 41.942,154 40.23,154 C38.519,154 36.84,154.45 36.5,155 C35.59,156.473 32.424,156.216 31.048,154.558 C29.088,152.197 29.228,144.343 31.267,142.304 C32.731,140.84 33.368,140.749 35.003,141.77 C38.145,143.732 41.579,143.216 46.216,140.087 C49.222,138.058 51.109,136.865 52.304,135.181 C54.419,132.199 54.361,127.677 54.491,114.25 C54.59,103.883 55.159,94.053 55.762,92.263 C56.416,90.323 56.483,88.798 55.929,88.456 C55.421,88.142 52.392,89.058 49.197,90.492 C44.463,92.617 42.891,92.909 40.695,92.074 C38.472,91.229 38,90.432 38,87.525 C38,84.762 38.4,84 39.85,84 C40.867,84 43.498,82.697 45.696,81.105 C47.894,79.513 51.054,77.506 52.719,76.645 C54.384,75.784 57.386,73.487 59.391,71.54 Z M142.182,26.758 C149.839,22.961 150.346,22.939 157.719,26.096 C160.866,27.443 162.092,28.613 162.546,30.701 C162.881,32.24 163.53,34.4 163.988,35.5 C165.867,40.014 167.162,52.241 167.004,63.979 C166.911,70.842 166.637,76.778 166.396,77.169 C166.154,77.56 165.808,86.02 165.626,95.968 C165.31,113.29 165.198,114.161 162.974,116.528 C159.959,119.737 158.603,119.645 153.894,115.916 C149.308,112.284 148.739,108.896 152.431,107.213 C154.299,106.362 154.983,105.11 155.387,101.803 C156.381,93.67 156.781,59.491 155.99,50.226 C155.075,39.501 153.396,36 149.165,36 C145.14,36 138.667,39.416 135.487,43.217 C133.976,45.023 131.561,46.725 130.12,47 C128.051,47.395 126.693,49.077 123.662,55 C119.866,62.419 119.832,62.587 120.541,70.5 C120.935,74.9 121.218,80.412 121.17,82.75 C121.122,85.088 121.062,88.125 121.035,89.5 C121.009,90.875 121.096,95.62 121.23,100.045 C121.419,106.266 121.137,108.305 119.987,109.043 C117.801,110.446 115.936,109.816 113.938,107 C112.439,104.887 112.07,101.401 111.558,84.5 C111.198,72.582 110.255,60.661 109.226,55 C106.918,42.295 107.021,34.189 109.515,32.365 C111.562,30.868 114.638,31.394 117,33.644 C118.093,34.685 118.5,37.278 118.5,43.203 C118.5,53.083 120.038,54.449 123.155,47.339 C124.322,44.678 127.434,39.774 130.071,36.443 C133.876,31.636 136.375,29.638 142.182,26.758 Z M133.75,82.354 C142.521,74.032 145.555,72.554 147.95,75.44 C149.669,77.511 148.837,82.111 146.512,83.399 C145.419,84.005 143.169,86.075 141.512,88 C133.555,97.247 129.168,99.768 126.2,96.8 C123.265,93.865 124.884,90.766 133.75,82.354 Z M145,165.967 C149.543,163.529 150.508,163.556 152.961,166.189 C156.257,169.726 155.558,172.483 150.356,176.454 C147.802,178.404 145.133,180 144.424,180 C143.716,180 142.175,181.35 141,183 C138.482,186.536 136.507,186.817 134.927,183.863 C132.202,178.772 136.991,170.266 145,165.967 Z M138.297,53.7 C142.891,52.809 143.999,53.068 145.523,55.394 C147.998,59.172 146.47,62.522 140.002,67.499 C129.555,75.537 126,75.939 126,69.081 C126,65.586 126.55,64.64 130.5,61.338 C132.975,59.269 135.246,56.801 135.547,55.852 C135.848,54.903 137.086,53.934 138.297,53.7 Z"/>
</svg>

