<svg xmlns="http://www.w3.org/2000/svg" width="300" height="300" viewBox="0 0 300 300" version="1.1">
  <defs/>
  <path d="M136,123 C139.49,119.7 142.74,117 143.222,117 C143.705,117 145.427,117.687 147.05,118.526 C151.059,120.599 150.894,123.949 146.5,129.704 C144.575,132.225 143,134.819 143,135.469 C143,136.12 141.933,137.654 140.629,138.879 C139.325,140.104 137.412,142.77 136.379,144.803 C135.345,146.837 133.713,149.573 132.75,150.885 C129.62,155.151 130.361,155.779 137.893,155.24 C143.038,154.872 145.613,155.159 148.046,156.373 C149.84,157.268 151.876,158 152.571,158 C153.266,158 155.404,159.89 157.323,162.2 C160.338,165.83 161.029,166.221 162.406,165.078 C163.283,164.35 164,163.119 164,162.342 C164,161.565 164.753,159.78 165.674,158.375 C168.523,154.027 170.824,149.792 174.574,142 C176.558,137.875 178.524,133.825 178.942,133 C180.809,129.313 188.038,131.394 189.514,136.043 C190.246,138.351 184.504,150.623 178.617,159.328 C176.078,163.084 174,167.231 174,168.543 C174,169.856 175.463,172.61 177.25,174.663 C181.112,179.099 209.57,207.057 216,212.733 C218.475,214.918 224.29,220.372 228.923,224.853 C233.555,229.334 237.896,233 238.569,233 C240.282,233 246,239.718 246,241.73 C246,243.595 241.207,249 239.553,249 C238.437,249 236.02,246.639 210.89,221 C202.534,212.475 194.559,204.74 193.168,203.811 C191.776,202.883 185.353,196.92 178.894,190.561 C172.435,184.203 166.998,179 166.812,179 C166.625,179 166.64,185.48 166.845,193.4 C167.122,204.121 166.819,209.422 165.656,214.15 C164.798,217.642 163.815,223.425 163.472,227 C162.71,234.929 161.64,238.036 157.445,244.5 C149.173,257.245 142.127,258.068 132,247.469 C130.075,245.455 127.479,243.408 126.232,242.921 C124.985,242.434 123.533,240.903 123.007,239.518 C122.48,238.133 121.424,237 120.659,237 C119.895,237 116.511,240.262 113.141,244.25 C109.77,248.238 106.587,251.95 106.067,252.5 C96.658,262.454 94.033,264.679 90.209,265.936 C86.417,267.183 85.737,267.166 84.356,265.785 C82.182,263.611 83.453,260.334 87.227,258.383 C88.924,257.505 90.935,256.273 91.695,255.644 C93.042,254.53 107.496,237.497 110.486,233.5 C119.276,221.75 126.779,210.244 130.702,202.5 C132.931,198.1 136.385,191.826 138.378,188.559 C140.37,185.291 142,181.869 142,180.955 C142,178.799 146.452,174 148.452,174 C149.342,174 150,173.135 150,171.964 C150,170.499 148.717,169.379 145.417,167.964 C142.896,166.884 139.971,166 138.917,166 C136.652,166 136.338,168.532 138.5,169.362 C142.056,170.726 138.588,179.202 129.79,190.649 C128.299,192.589 126.778,195.124 126.41,196.283 C126.042,197.442 123.655,201.115 121.106,204.445 C118.557,207.775 115.378,212.669 114.043,215.319 C111.586,220.195 107.47,224 104.652,224 C102.884,224 100,220.292 100,218.018 C100,217.173 102.463,213.336 105.473,209.491 C114.808,197.567 121.648,187.671 123.439,183.5 C126.416,176.565 128.86,171.591 130.66,168.801 C132.324,166.222 132.319,166.01 130.546,164.051 C129.525,162.923 128.173,162 127.542,162 C126.367,162 118.869,172.101 117.71,175.244 C117.356,176.204 115.616,177.871 113.843,178.949 C112.069,180.028 110.142,181.776 109.559,182.834 C108.326,185.075 101.794,192.391 100.083,193.449 C98.557,194.392 96,192.24 96,190.013 C96,189.055 97.363,186.748 99.03,184.886 C104.338,178.953 112.508,166.786 117.417,157.5 C120.034,152.55 123.286,147.035 124.643,145.244 C127.331,141.698 127.072,140.358 123.431,138.974 C119.902,137.632 119.093,133.153 121.96,130.831 C123.204,129.824 125.444,129 126.938,129 C128.887,129 131.449,127.304 136,123 Z M144,42.599 C154.285,37.154 157.539,36.865 161.539,41.041 L164.453,44.082 L162.008,48.791 C159.253,54.097 149.29,64.559 145.689,65.928 C143.706,66.682 143.308,67.551 143.252,71.256 C143.151,77.967 144.291,79.053 147.854,75.64 C153.795,69.948 157.666,75.639 152.479,82.439 C147.103,89.487 143.822,98.154 146.015,99.51 C146.638,99.895 148.127,99.311 149.324,98.213 C151.89,95.858 156.926,94.634 158.879,95.89 C160.037,96.635 159.997,97.3 158.629,100.042 C157.733,101.838 157,103.828 157,104.464 C157,106.371 144.771,113.818 141.057,114.172 C137.382,114.522 137.189,114.206 135.316,104.738 C135.015,103.219 134.409,101.753 133.969,101.481 C133.529,101.209 129.732,104.368 125.53,108.502 C119.296,114.636 117.539,117.073 115.97,121.759 C114.914,124.917 114.038,128.486 114.025,129.691 C114.011,130.896 113.601,132.129 113.113,132.43 C112.626,132.731 111.91,134.67 111.524,136.739 C111.137,138.808 110.466,140.95 110.031,141.5 C109.597,142.05 108.481,145.2 107.552,148.5 C106.623,151.8 104.994,156.33 103.932,158.566 C102.869,160.802 102,163.167 102,163.821 C102,164.475 100.875,167.342 99.5,170.192 C98.125,173.042 97,175.974 97,176.707 C97,177.44 95.875,179.822 94.5,182 C93.125,184.178 92,186.487 92,187.131 C92,187.775 89.75,192.977 87,198.692 C84.25,204.407 82,209.296 82,209.557 C82,209.818 80.522,212.386 78.716,215.265 C73.763,223.162 73.153,224.228 71.567,227.748 C69.542,232.243 65.886,233.811 62.541,231.619 C59.552,229.661 59.318,227.682 61.782,225.218 C64.205,222.795 70,214.13 70,212.93 C70,212.397 71.125,210.178 72.5,208 C73.875,205.822 75.001,203.693 75.002,203.27 C75.004,202.846 77.029,198.47 79.502,193.545 C81.976,188.619 84,184.244 84,183.822 C84,183.4 85.079,180.68 86.399,177.777 C89.786,170.325 94.622,158.132 95.83,154 C96.393,152.075 98.294,146.9 100.054,142.5 C101.815,138.1 103.47,132.81 103.733,130.744 C103.996,128.678 104.614,126.739 105.106,126.435 C105.598,126.131 106,124.585 106,123 C106,121.415 106.45,119.84 107,119.5 C107.55,119.16 108,117.777 108,116.427 C108,115.077 108.414,113.191 108.92,112.236 C110.378,109.485 113.028,97.108 113.681,90 C114.01,86.425 114.924,82.221 115.713,80.657 C117.468,77.178 116.762,76.254 113.63,77.93 C112.328,78.627 110.416,79.032 109.381,78.83 C107.792,78.519 107.544,77.689 107.786,73.481 C108.059,68.728 108.402,68.187 115.286,61.663 C122.588,54.743 128.598,50.752 144,42.599 Z M55.439,94.453 C57.139,91.858 61.328,91.103 62.6,93.162 C62.995,93.801 63.283,100.547 63.24,108.153 C63.194,116.283 63.57,122.234 64.151,122.594 C64.696,122.93 66.662,121.495 68.522,119.404 C71.848,115.666 71.938,115.634 73.952,117.457 C77.039,120.251 76.482,122.312 71.022,128.286 C64.789,135.105 62.153,141.172 61.442,150.335 C61.136,154.276 60.396,159.437 59.797,161.805 C58.365,167.472 59.573,168.773 64.135,166.476 C65.986,165.545 69.375,162.974 71.667,160.764 L75.835,156.746 L78.916,158.94 C82.157,161.248 82.065,163.041 78.555,165.955 C77.7,166.664 77,167.826 77,168.536 C77,170.257 65.278,179.992 63.163,180.028 C62.248,180.044 59.334,182.069 56.687,184.528 C54.04,186.988 51.47,189 50.975,189 C50.48,189 47.302,191.475 43.912,194.5 C40.521,197.525 37.424,200 37.029,200 C36.633,200 35.512,199.118 34.536,198.04 C32.215,195.475 33.15,191.696 37.08,187.766 C38.718,186.128 40.782,183.373 41.665,181.644 C42.549,179.915 44.786,176.811 46.636,174.747 C48.486,172.683 50.003,170.433 50.006,169.747 C50.009,169.061 50.684,164.039 51.506,158.587 C52.328,153.135 53,147.848 53,146.837 C53,144.308 48.838,144.417 46.493,147.007 C44.515,149.193 39.433,152 37.453,152 C35.642,152 34.869,149.215 35.6,145.32 C36.143,142.426 37.095,141.463 41.87,138.976 C44.966,137.364 48.782,134.969 50.35,133.655 L53.199,131.266 L53.516,114.086 C53.768,100.379 54.157,96.41 55.439,94.453 Z M152,179.953 C152,181.577 151.587,183.94 151.081,185.203 C150.576,186.466 149.892,188.175 149.561,189 C149.231,189.825 147.858,192.3 146.511,194.5 C145.164,196.7 142.921,200.794 141.527,203.599 C140.133,206.403 138.094,209.51 136.996,210.504 C135.898,211.497 135,212.707 135,213.192 C135,213.677 132.75,217.278 130,221.194 C125.298,227.889 123.764,232 125.967,232 C126.498,232 128.417,233.463 130.23,235.25 C141.391,246.252 146.683,246.317 150.618,235.5 C152.723,229.712 154.773,219.873 156.033,209.5 C156.92,202.208 156.57,184.768 155.428,179.25 C154.722,175.842 152,176.4 152,179.953 Z M132.498,18.427 L132.091,-0.101 L137.295,0.199 L142.5,0.5 L142.142,9.25 C141.833,16.816 142.005,18 143.414,18 C144.31,18 145.569,16.845 146.212,15.434 C147.376,12.879 152.597,10 156.065,10 C158.081,10 161.023,13.59 160.959,15.973 C160.936,16.813 158.016,19.644 154.47,22.265 C147.513,27.407 140,36.079 140,38.967 C140,41.178 137.805,43.127 136.366,42.193 C133.559,40.37 132.89,36.256 132.498,18.427 Z M63.522,67.619 C69.577,62.003 73.273,60.673 75.8,63.2 C78.12,65.52 77.067,68.985 72.721,73.331 C66.24,79.812 58.249,85.37 50.505,88.782 C42.646,92.244 41,91.842 41,86.463 C41,83.678 41.754,82.617 45.892,79.579 C48.583,77.604 52.305,75.353 54.165,74.576 C56.024,73.799 60.235,70.668 63.522,67.619 Z M140.713,55.389 C138.271,57.253 135.282,59.093 134.071,59.478 C130.973,60.461 125,65.904 125,67.743 C125,68.588 125.659,69.779 126.463,70.39 C127.741,71.359 127.678,72.77 125.967,81.5 C124.889,87 124.005,91.838 124.003,92.25 C123.994,94.339 127.278,92.491 130.915,88.359 L135,83.718 L135,73.55 C135,61.823 135.741,60.237 141.426,59.801 C144.571,59.56 145.699,58.904 147.103,56.5 C148.066,54.85 148.887,53.163 148.927,52.75 C149.107,50.901 144.766,52.296 140.713,55.389 Z"/>
</svg>

