<svg xmlns="http://www.w3.org/2000/svg" width="300" height="300" viewBox="0 0 300 300" version="1.1">
  <defs/>
  <path d="M162.24,143.024 C171.287,141.165 176.276,144.145 179.374,153.261 C182.176,161.504 180.684,178.395 176.777,182.676 C175.684,183.873 175.068,185.301 175.408,185.851 C175.934,186.703 172.822,191.049 166.529,198.25 C165.688,199.213 164.087,200 162.972,200 C161.856,200 157.329,202.475 152.912,205.5 C148.495,208.525 144.398,211 143.807,211 C141.945,211 134.555,208.692 133.25,207.702 C132.563,207.181 132,205.712 132,204.437 C132,203.161 131.55,201.84 131,201.5 C130.45,201.16 130,199.313 130,197.395 C130,193.782 125.433,178.221 123.882,176.55 C123.397,176.027 123,174.651 123,173.491 C123,172.331 122.339,170.509 121.532,169.441 C120.724,168.374 120.049,166.514 120.032,165.309 C120.014,164.104 119.55,162.84 119,162.5 C117.599,161.634 117.749,154.651 119.2,153.2 C122.366,150.034 127.98,153.342 128.032,158.405 C128.049,160.107 128.724,162.374 129.532,163.441 C130.339,164.509 131.01,166.534 131.022,167.941 C131.034,169.349 131.934,172.462 133.022,174.859 C134.11,177.257 135.016,180.407 135.035,181.859 C135.055,183.312 135.714,185.625 136.5,187 C137.305,188.408 137.945,192.229 137.965,195.75 C137.996,201.237 138.235,202 139.922,202 C140.979,202 143.454,200.119 145.422,197.82 C148.453,194.279 149,192.903 149,188.82 C149,186.169 148.662,183.943 148.25,183.872 C147.838,183.802 146.496,183.639 145.268,183.51 C139.545,182.907 137.983,176.534 142.75,173.231 C144.262,172.183 146.312,171.032 147.305,170.673 C149.85,169.753 149.372,160.684 146.753,160.186 C145.638,159.974 144.666,160.748 144.066,162.326 C143.184,164.645 139.48,168 137.801,168 C137.386,168 136.34,166.922 135.477,165.605 C134.144,163.571 134.103,162.758 135.204,160.196 C136.717,156.676 143.978,150.383 149,148.24 C150.925,147.418 153.733,146.105 155.24,145.323 C156.746,144.54 159.896,143.505 162.24,143.024 Z M147.974,50.532 C149.488,48.707 154.111,48.511 155.8,50.2 C156.46,50.86 157,52.408 157,53.641 C157,57.347 158.672,57.313 166.767,53.442 C176.602,48.738 181.78,47.995 184.416,50.908 C187.627,54.455 185.124,57.464 176.878,59.969 C169.609,62.176 163.993,65.014 160.153,68.419 C157.144,71.086 154,77.21 154,80.401 C154,81.766 153.602,83.128 153.115,83.429 C151.177,84.627 151.215,90.493 153.182,93.735 C156.026,98.422 154.917,100.74 149.437,101.562 C146.983,101.93 144.729,102.629 144.429,103.115 C144.128,103.602 142.835,104 141.556,104 C140.178,104 138.562,105.019 137.592,106.5 C135.843,109.169 132.64,109.806 131.309,107.75 C130.864,107.063 130.275,101.1 130,94.5 C129.701,87.326 129.637,83.786 127.938,82.612 C126.229,81.431 122.863,82.647 115.935,84.968 C107.255,87.876 106.611,87.958 104.86,86.373 C103.769,85.386 103,83.338 103,81.419 C103,78.457 103.497,77.91 108.25,75.641 C111.138,74.262 116.2,72.091 119.5,70.816 L125.5,68.497 L126.043,60.85 C126.754,50.85 129.033,47.91 133.171,51.655 C134.384,52.752 135,54.71 135,57.464 C135,59.748 135.589,62.423 136.308,63.407 C137.458,64.98 138.092,65.053 141.564,64.012 C148.421,61.958 149.329,60.83 147.918,56.122 C146.949,52.886 146.96,51.753 147.974,50.532 Z M75.173,94.872 C76.945,93.749 77.389,93.789 78.8,95.2 C82.072,98.472 78.499,106.227 72.049,109.852 C69.822,111.104 67.947,112.662 67.882,113.314 C67.817,113.966 67.579,115.85 67.354,117.5 C66.508,123.677 65.887,140 66.497,140 C67.626,140 71.321,137.778 73.376,135.865 C75.563,133.827 76.062,133.703 78.418,134.607 C81.73,135.878 78.958,142.092 72.911,146.952 C67.701,151.138 66,155.216 66,163.518 C66,167.36 65.387,171.285 64.526,172.949 C62.39,177.081 64.396,178.568 69.329,176.507 C73.987,174.561 77.418,174.594 79.084,176.601 C80.237,177.99 79.689,178.882 74.938,183.351 C71.927,186.183 67.692,189.85 65.528,191.5 C63.363,193.15 59.782,196.412 57.571,198.75 C52.977,203.605 49.979,204.143 47.615,200.535 C45.228,196.892 45.624,194.437 49.274,190.253 C54.38,184.4 55.788,180.31 56.103,170.405 L56.387,161.5 L53.451,161.721 C50.827,161.919 48.616,163.652 47.778,166.165 C47.617,166.65 45.913,167.298 43.992,167.605 C40.789,168.116 40.345,167.871 38.622,164.636 C36.194,160.077 36.95,158.379 42.456,156.019 C44.93,154.958 49.482,152.473 52.572,150.497 L58.19,146.903 L57.596,137.202 C56.76,123.521 56.801,120.271 55.496,119.585 C54.89,119.267 53.996,119.5 52.591,119.5 C49.991,119.5 48.525,118.998 48.214,118 C47.956,117.175 46.805,115.467 45.656,114.205 C42.952,111.234 44.361,108.698 49.102,108 C50.971,107.725 54.408,106.206 56.741,104.623 C59.725,102.599 62.381,101.688 65.709,101.547 C69.719,101.378 70.697,100.92 72.142,98.531 C73.079,96.981 74.443,95.335 75.173,94.872 Z M180.5,114.037 C187.1,113.633 198.159,113.235 205.076,113.152 C217.324,113.004 217.713,113.066 220.026,115.527 L222.4,118.055 L219.675,120.777 L216.95,123.5 L199.725,123.555 C190.251,123.585 178.45,124.134 173.5,124.775 C168.55,125.417 160.9,126.354 156.5,126.86 C148.139,127.82 133.188,131.817 128.079,134.459 C126.44,135.307 124.179,136 123.054,136 C121.929,136 118.419,136.894 115.254,137.987 C109.674,139.914 102.899,141.591 96.284,142.681 C93.363,143.162 92.908,142.876 91.323,139.552 C88.662,133.971 89.847,133.065 104.058,129.822 C110.901,128.261 118.975,126.268 122,125.393 C146.67,118.263 162.891,115.114 180.5,114.037 Z M160.306,241.645 C160.822,240.3 162.449,240.002 169.219,240.012 C173.773,240.018 179.75,240.636 182.5,241.383 C189.718,243.346 210.511,251.861 214.284,254.399 C216.053,255.589 219.975,257.844 223,259.41 C226.025,260.977 232.385,264.913 237.133,268.158 C241.881,271.403 248.406,275.362 251.633,276.955 C254.86,278.548 260.16,282.266 263.411,285.217 C268.46,289.801 269.229,290.951 268.688,293.108 C268.339,294.497 266.911,296.245 265.514,296.993 C263.167,298.248 262.753,298.127 260.089,295.402 C254.426,289.609 218.678,266.253 212.684,264.428 C211.483,264.062 209.825,263.224 209,262.565 C207.142,261.079 189.3,253 187.878,253 C187.308,253 184.064,251.933 180.671,250.63 C177.277,249.326 171.894,247.675 168.709,246.96 C161.818,245.414 159.438,243.908 160.306,241.645 Z M125.866,231.327 C132.36,224.873 136.022,223.422 138.8,226.2 C141.865,229.265 140.053,231.901 123.25,248.807 C98.524,273.685 89.501,279.526 84.438,273.932 C82.736,272.051 82.701,271.624 84.05,269.219 C84.976,267.57 86.742,266.328 88.742,265.919 C93.639,264.917 95.819,263.114 108.119,249.889 C114.379,243.16 122.365,234.806 125.866,231.327 Z M160.25,153.839 C155.765,155.527 155.396,156.28 156.993,160.482 C157.881,162.817 158.356,163.024 161.482,162.437 C164.888,161.798 165.029,161.902 166.989,166.474 C169.891,173.244 171.516,171.975 171.429,163.007 C171.368,156.654 171.062,155.469 169.069,153.854 C166.412,151.703 165.93,151.703 160.25,153.839 Z M161.302,176.25 C159.49,178.241 158.428,181.133 157.719,186 C157.556,187.117 158.702,187.577 162.214,187.803 C166.714,188.093 166.991,187.956 168.3,184.803 C169.055,182.986 169.471,179.813 169.226,177.75 C168.834,174.446 168.458,174 166.065,174 C164.521,174 162.465,174.971 161.302,176.25 Z M139.573,78.154 C137.693,81.924 137.39,92.37 139.179,91.774 C141.137,91.121 143.602,85.245 144.434,79.25 C144.953,75.509 144.792,75 143.085,75 C141.909,75 140.527,76.241 139.573,78.154 Z"/>
</svg>

