<svg xmlns="http://www.w3.org/2000/svg" width="300" height="300" viewBox="0 0 300 300" version="1.1">
  <defs/>
  <path d="M180,31.257 C181.375,30.556 183.625,30.099 185,30.241 C187.04,30.452 187.559,31.115 187.82,33.842 C187.996,35.68 187.434,38.673 186.57,40.493 C185.707,42.313 185,44.452 185,45.246 C185,46.04 184.133,47.475 183.073,48.434 C181.247,50.086 179.224,57.557 180.308,58.641 C180.586,58.92 182.184,58.439 183.857,57.574 C194.262,52.193 200.706,60.071 196.789,73.384 C195.445,77.952 188.388,89.445 185.11,92.405 C183.95,93.453 183,95.381 183,96.691 C183,98 181.988,99.973 180.75,101.074 C179.512,102.176 176.25,105.116 173.5,107.607 L168.5,112.136 L168.694,139.818 C168.8,155.043 168.913,171.213 168.944,175.75 C168.999,183.815 169.055,184 171.441,184 C172.784,184 174.139,183.585 174.452,183.077 C174.766,182.569 176.372,181.858 178.022,181.495 C179.671,181.133 182.253,180.237 183.76,179.505 C192.117,175.444 209.174,169.145 213.5,168.522 C216.25,168.126 219.277,167.387 220.227,166.878 C222.298,165.77 225.652,167.562 226.325,170.136 C227.247,173.66 224.424,175.729 218.066,176.189 C214.291,176.462 211.367,177.263 210.162,178.354 C209.109,179.306 206.505,180.361 204.374,180.699 C202.243,181.036 198.933,182.367 197.018,183.656 C195.103,184.945 192.268,186 190.718,186 C187.546,186 183.006,188.083 181.055,190.434 C180.34,191.295 178.999,192 178.075,192 C177.15,192 174.456,193.425 172.087,195.168 L167.78,198.335 L168.457,204.418 C169.003,209.319 169.726,211.115 172.183,213.667 C174.787,216.372 176.547,217.076 184.224,218.487 C194.942,220.457 226.468,220.891 229.787,219.114 C230.932,218.501 233.136,217.98 234.684,217.956 C239.629,217.878 246.413,215.595 251.53,212.286 C262.462,205.217 264.8,198.043 262.541,178.5 C260.265,158.805 256.123,143.592 250.035,132.564 C247.816,128.543 246,124.972 246,124.627 C246,124.282 246.858,124 247.907,124 C250.121,124 258.359,132.786 260.442,137.369 C262.17,141.171 265,149.686 265,151.083 C265,151.641 265.93,153.987 267.068,156.298 C268.422,159.05 269.448,163.95 270.04,170.5 C270.537,176 271.372,184.775 271.894,190 C272.917,200.228 272.637,203.461 270.232,209.169 C268.637,212.955 262.579,218.58 257.75,220.759 C244.857,226.577 236.196,228.353 214.866,229.555 C203.324,230.205 177.463,228.189 173.8,226.353 C172.314,225.609 170.224,225 169.153,225 C166.335,225 161.559,219.07 160.057,213.704 C158.917,209.63 158.979,187.79 160.147,182 C160.314,181.175 160.092,167.45 159.654,151.5 C159.122,132.12 159.216,119.349 159.938,113 L161.018,103.5 L166.259,98.467 C169.142,95.699 172.628,92.549 174.006,91.467 C179.126,87.448 186,76.634 186,72.599 C186,71.945 186.005,71.496 185.784,71.294 C185.301,70.854 183.734,71.601 178.656,74 C171.628,77.321 169.489,77.66 168.3,75.646 C167.86,74.901 166.506,73.77 165.291,73.133 C160.169,70.445 157.199,56.679 160.615,51.465 C162.46,48.649 164.204,48.336 166,50.5 C167.992,52.9 170.002,52.249 171.403,48.75 C172.119,46.962 173.069,44.6 173.514,43.5 C173.959,42.4 175.038,39.482 175.911,37.016 C176.894,34.242 178.453,32.046 180,31.257 Z M120.096,113.088 C123.389,111.771 123.449,111.777 126.833,113.719 C130.581,115.87 132.401,118.99 133.996,126 C134.685,129.025 135.689,132.719 136.228,134.208 C136.767,135.698 137.597,139.523 138.072,142.708 C138.547,145.894 139.396,151.425 139.959,155 C140.523,158.575 141.33,163.975 141.755,167 C142.179,170.025 142.52,185.699 142.513,201.832 L142.5,231.163 L139.156,234.152 C135.96,237.008 135.728,237.063 133.899,235.409 C132.847,234.457 130.977,233.181 129.743,232.574 C128.509,231.967 126.414,229.227 125.087,226.485 C123.76,223.743 122.216,220.6 121.657,219.5 C120.139,216.517 118.163,204.017 119.116,203.428 C120.623,202.497 125.014,206.201 125.572,208.873 C125.874,210.318 126.544,212.281 127.06,213.236 C127.577,214.191 128.014,215.766 128.032,216.736 C128.072,218.949 130.329,222 131.927,222 C133.358,222 132.516,172.2 130.971,165.5 C130.464,163.3 130.038,159.813 130.024,157.75 C129.997,153.498 127.573,152.469 126.491,156.25 C125.524,159.63 120.006,169.981 116.816,174.4 C115.267,176.545 114,179.106 114,180.091 C114,181.076 113.55,182.16 113,182.5 C112.45,182.84 112,184.156 112,185.424 C112,186.693 111.05,188.938 109.889,190.414 C108.272,192.47 107.056,193.028 104.695,192.799 C101.36,192.475 101.06,193.06 99.105,203.697 C98.193,208.655 96.943,210.367 93.058,211.976 C90.915,212.864 89.648,212.882 88.091,212.049 C85.331,210.572 85.451,208.441 88.5,204.818 C89.875,203.184 91.023,201.094 91.051,200.173 C91.079,199.253 91.557,193.55 92.114,187.5 C92.67,181.45 93.282,174.7 93.473,172.5 C93.665,170.3 93.89,162.759 93.973,155.743 C94.101,145.019 93.787,142.032 91.999,136.997 C89.225,129.185 89.613,125.046 93.308,123.031 C95.987,121.571 96.218,121.62 98.308,124.106 C99.514,125.539 101.059,127.564 101.741,128.606 C102.933,130.423 103.053,130.399 104.717,128 C107.733,123.651 117.596,114.088 120.096,113.088 Z M52.245,81.25 C53.545,79.625 57.459,79.643 58.818,81.281 C59.403,81.985 60.076,87.048 60.314,92.531 C60.599,99.084 61.133,102.466 61.874,102.4 C64.564,102.161 64.884,101.857 65.184,99.25 C65.426,97.139 66.101,96.43 68.086,96.199 C71.373,95.817 73.511,98.176 72.162,100.697 C71.625,101.7 71.421,103.754 71.709,105.261 C72.098,107.291 71.833,108 70.687,108 C69.837,108 67.759,110.048 66.069,112.552 C63.392,116.519 62.929,118.223 62.469,125.802 C62.178,130.586 61.728,135.196 61.467,136.047 C61.207,136.898 60.816,140.161 60.598,143.297 C60.062,151.013 61.562,150.721 67.376,141.977 C71.517,135.75 72.27,135.074 74.023,136.012 C76.364,137.265 76.634,141.229 74.5,143 C73.675,143.685 73,145.023 73,145.974 C73,146.924 71.875,149.818 70.5,152.404 C69.125,154.99 68,157.696 68,158.417 C68,159.935 60.738,167.506 52.677,174.393 C46.532,179.643 44.253,179.842 41.332,175.383 C39.452,172.515 40.192,170.195 44.901,164.176 C48.004,160.212 50.157,154.009 51.731,144.5 C53.078,136.369 53.322,127 52.188,127 C51.678,127 49.001,128.8 46.237,131 C39.922,136.028 36.726,136.224 33.965,131.75 C32.861,129.963 32.081,127.375 32.229,126 C32.461,123.861 33.005,123.5 36.003,123.5 C38.68,123.5 40.979,122.345 45.753,118.602 L52,113.705 L52,107.075 C52,102.733 51.47,99.689 50.465,98.254 C49.158,96.387 49.102,95.058 50.088,89.281 C50.725,85.552 51.696,81.938 52.245,81.25 Z M117.229,53.669 C121.99,51.754 128,55.294 128,60.014 C128,61.591 127.55,63.16 127,63.5 C126.45,63.84 126,64.797 126,65.626 C126,66.455 124.934,68.566 123.631,70.317 C122.329,72.068 120.97,74.737 120.612,76.25 C119.812,79.635 121.234,79.812 127.261,77.076 C134.535,73.774 137.569,73.546 139.403,76.164 C141.713,79.462 141.402,81.282 137.75,85.84 C135.011,89.259 133.908,89.905 130.73,89.948 C128.613,89.977 125.325,91.013 123.23,92.311 C121.179,93.583 117.925,95.252 116,96.021 C114.075,96.79 109.681,99.799 106.237,102.709 C97.874,109.773 95.069,109.655 93.651,102.179 C93.089,99.212 93.534,98.304 97.813,93.679 C102.867,88.215 106,83.76 106,82.035 C106,81.466 104.975,81 103.723,81 C100.93,81 97.419,78.643 95.825,75.699 C94.032,72.385 93.865,59.357 95.598,57.919 C97.432,56.397 99.477,58.054 102.093,63.183 C103.164,65.282 104.66,67 105.417,67 C107.041,67 112.33,61.197 114.46,57.077 C115.284,55.484 116.53,53.951 117.229,53.669 Z M104.365,21.669 C105.517,18.911 106.485,18 108.262,18 C111.198,18 116.256,23.105 115.822,25.629 C115.552,27.2 116.303,27.58 120.5,28 C125.2,28.47 125.518,28.681 125.796,31.516 C126.048,34.09 125.156,35.419 119.714,40.573 C116.206,43.895 111.123,47.897 108.418,49.466 C105.713,51.035 102.424,53.149 101.109,54.164 C98.147,56.45 96.328,55.266 95.427,50.465 C94.667,46.409 96.353,40.896 99.12,38.391 C101.882,35.892 103.882,30.835 103.305,27.813 C103.044,26.452 103.522,23.688 104.365,21.669 Z M57.096,59.048 C62.761,55.327 66.237,55.187 68.465,58.587 C70.145,61.151 70.115,61.227 65.233,66.837 C62.523,69.952 58.99,72.95 57.382,73.5 C55.775,74.05 52.731,75.527 50.619,76.781 C44.725,80.283 42.979,80.092 40.624,75.69 C38.135,71.039 38.975,69.229 44.514,67.312 C46.657,66.57 49.374,65.057 50.552,63.951 C51.729,62.845 54.674,60.639 57.096,59.048 Z M194.5,142.662 C196.56,141.576 197.446,141.087 198.268,141.177 C198.942,141.251 199.574,141.714 200.777,142.557 C204.396,145.091 203.723,149.259 199.106,152.916 C196.964,154.612 194.316,156 193.221,156 C192.126,156 190.555,157.012 189.73,158.25 C188.906,159.488 186.173,161.605 183.658,162.956 C179.21,165.345 178.99,165.365 175.543,163.722 C170.017,161.087 170.852,158.949 179.75,152.952 C184.012,150.08 188.4,146.945 189.5,145.986 C190.6,145.028 192.85,143.531 194.5,142.662 Z M189.371,114.087 C191.092,113.589 193.002,113.14 193.615,113.09 C195.099,112.97 200,116.87 200,118.171 C200,119.122 180.679,138.177 179.12,138.763 C177.561,139.35 175.186,136.289 174.602,132.942 C174.059,129.832 174.432,128.889 177.564,125.442 C179.534,123.274 182.293,120.036 183.694,118.247 C185.095,116.458 187.65,114.586 189.371,114.087 Z M116.259,131.25 C107.888,139.844 105.437,143.834 104.281,150.75 C103.491,155.482 105.64,154.951 111.538,148.957 C115.613,144.816 117.035,143.967 119.493,144.207 C121.633,144.417 122.868,145.301 123.825,147.308 C124.646,149.029 125.805,149.992 126.821,149.796 C128.977,149.381 129.477,146.62 127.715,144.858 C126.954,144.097 126.025,140.866 125.65,137.678 C125.023,132.346 122.737,127 121.084,127 C120.707,127 118.535,128.912 116.259,131.25 Z M107.799,164.726 C103.737,165.153 103.523,165.515 102.478,173.75 C102.055,177.091 102.184,179 102.834,179 C104.114,179 108,174.141 108,172.539 C108,171.885 109.125,170.292 110.5,169 C112.838,166.803 113.929,163.792 112.25,164.168 C111.838,164.261 109.835,164.511 107.799,164.726 Z"/>
</svg>

