<svg xmlns="http://www.w3.org/2000/svg" width="300" height="300" viewBox="0 0 300 300" version="1.1">
  <defs/>
  <path d="M104.13,35.87 C106.27,33.73 109.051,33.451 110.8,35.2 C112.229,36.629 112.378,40.215 111.065,41.55 C110.485,42.14 110.649,44.716 111.497,48.345 C112.249,51.56 112.621,54.824 112.324,55.598 C112.027,56.371 112.066,58.128 112.411,59.502 C113.135,62.386 116.034,62.767 120,60.5 C122.541,59.047 130.342,58.722 135.148,59.868 C139.106,60.813 145.477,69.152 146.959,75.329 C148.359,81.165 147.982,87.458 145.481,100 C143.818,108.339 143.289,109.966 140.605,115 C138.4,119.137 134.994,126.462 134.997,127.063 C134.999,127.372 137.08,127.597 139.621,127.563 C145.183,127.487 147.149,129.484 145.165,133.192 C143.469,136.36 137.933,140 134.811,140 C133.399,140 131.687,140.672 131.006,141.493 C130.325,142.314 128.111,143.432 126.086,143.977 C124.061,144.522 121.175,146.252 119.671,147.821 C116.964,150.647 116.933,150.832 116.5,167.087 C116.259,176.114 115.813,190.25 115.508,198.5 C115.204,206.75 114.852,229.518 114.727,249.096 C114.548,277.132 114.777,285.025 115.802,286.261 C116.635,287.265 116.996,289.935 116.802,293.666 L116.5,299.5 L110.644,299.803 L104.787,300.106 L105.144,240.337 C105.351,205.487 105.98,175.759 106.651,169.034 C107.284,162.69 107.595,157.162 107.342,156.75 C106.51,155.393 104.353,155.964 101.676,158.25 C100.226,159.488 96.894,161.309 94.27,162.298 C91.647,163.286 87.836,164.974 85.802,166.048 C83.768,167.121 81.12,168 79.918,168 C77.296,168 70.401,169.795 67.185,171.314 C63.584,173.015 61.445,171.079 61.745,166.392 C62.085,161.095 64.271,159.527 73.323,158.088 C82.18,156.681 87,155.214 87,153.928 C87,153.446 85.733,152.396 84.184,151.595 C81.26,150.083 79.913,146.59 77.978,135.5 C77.499,132.75 76.659,128.475 76.112,126 C75.566,123.525 74.271,117.675 73.236,113 C72.2,108.325 70.824,103.517 70.177,102.316 C69.529,101.114 69,99.063 69,97.757 C69,96.451 68.339,94.509 67.532,93.441 C66.724,92.374 66.049,90.557 66.032,89.405 C66.014,88.253 65.1,86.495 64,85.5 C62.9,84.505 61.997,83.197 61.994,82.595 C61.99,81.993 61.283,80.15 60.421,78.5 C59.559,76.85 58.774,73.042 58.677,70.039 C58.512,64.945 58.693,64.484 61.363,63.18 C65.214,61.301 69,62.922 69,66.451 C69,68.583 71.984,76.333 75.067,82.206 C75.559,83.145 76.26,85.771 76.623,88.042 C76.986,90.313 77.9,92.408 78.654,92.698 C80.69,93.479 83,91.106 83,88.234 C83,86.429 85.005,83.75 90.054,78.811 C93.933,75.015 98.145,71.515 99.414,71.033 C101.239,70.339 101.858,69.131 102.372,65.256 C103.026,60.322 102.423,54.885 100.888,51.87 C99.65,49.439 101.96,38.04 104.13,35.87 Z M122.453,70.395 C121.348,71.169 119.331,71.96 117.972,72.151 C115.916,72.441 115.351,73.271 114.615,77.076 C114.128,79.593 114.056,84.7 114.455,88.425 C115.256,95.903 115.283,95.918 122.7,92.901 C125.547,91.743 126.135,91.813 128.04,93.536 C129.809,95.137 130.069,96.165 129.542,99.46 C128.618,105.243 126.566,107.114 121.959,106.377 C118.441,105.815 118.173,105.956 117.653,108.639 C117.006,111.979 116.569,122.617 116.823,128.823 C117.066,134.767 119.362,134.094 123.042,127 C124.611,123.975 126.256,121.038 126.698,120.473 C127.139,119.908 128.327,117.658 129.337,115.473 C130.347,113.288 131.81,110.226 132.587,108.669 C133.364,107.112 134,105.001 134,103.978 C134,102.955 134.395,101.874 134.879,101.575 C135.911,100.937 137.112,90.619 136.974,83.571 C136.828,76.112 134.982,72.629 130.384,71.133 C128.248,70.439 126.042,69.671 125.481,69.429 C124.921,69.186 123.558,69.621 122.453,70.395 Z M98.98,121.537 C95.416,125.14 91.226,128.774 89.669,129.612 C87.648,130.699 87.029,131.617 87.505,132.818 C88.754,135.967 89.719,149.488 88.821,151.25 C87.28,154.274 90.536,153.318 99.03,148.25 L106.992,143.5 L106.867,131 C106.798,124.125 106.913,117.881 107.121,117.125 C108.034,113.811 104.988,115.462 98.98,121.537 Z M97.201,85.509 C94.401,88.027 91.103,91.755 89.872,93.794 C88.642,95.832 86.388,98.625 84.864,100 C83.339,101.375 81.994,103.175 81.874,104 C81.379,107.407 83.332,117.19 84.604,117.678 C85.383,117.977 90.021,114.461 95.52,109.404 L105.082,100.61 L104.754,91.126 C104.562,85.585 103.982,81.494 103.359,81.286 C102.773,81.091 100.002,82.991 97.201,85.509 Z"/>
</svg>

