<svg xmlns="http://www.w3.org/2000/svg" width="300" height="300" viewBox="0 0 300 300" version="1.1">
  <defs/>
  <path d="M123.929,33.856 C125.28,32.763 125.864,32.225 126.507,32.142 C127.155,32.058 127.863,32.436 129.477,33.171 C132.08,34.357 133.24,36.856 132.881,40.5 C132.772,41.6 132.754,44.236 132.842,46.358 C132.992,50.021 133.136,50.183 135.683,49.544 C137.158,49.173 140.168,47.999 142.37,46.935 C148.775,43.841 154,44.948 154,49.4 C154,52.387 150.391,57 148.055,57 C145.15,57 137.109,60.928 136.081,62.849 C135.533,63.873 135.145,80.833 135.158,103.224 C135.171,124.458 134.856,148.818 134.459,157.356 C133.829,170.92 133.941,173.083 135.346,174.489 C136.432,175.575 136.677,176.651 136.1,177.799 C135.629,178.735 134.522,181.188 133.638,183.25 C131.553,188.118 128.117,188.378 124.933,183.906 C123.055,181.269 122.271,180.896 119.615,181.377 C117.902,181.688 114.7,182.231 112.5,182.585 C110.3,182.939 107.825,183.778 107,184.45 C104.443,186.531 98.942,188.349 98.092,187.394 C97.653,186.902 96.717,184.353 96.012,181.729 C94.87,177.483 94.919,176.747 96.462,175.042 C98.932,172.313 97.552,170.806 93.313,171.601 C90.862,172.061 89.53,171.857 88.961,170.936 C87.892,169.207 88.782,160.766 90.666,154.762 C93.858,144.591 91.841,85.644 88.254,84.267 C86.626,83.642 79.196,85.805 77,87.542 C76.175,88.195 73.757,88.996 71.626,89.322 C69.495,89.648 66.985,90.609 66.047,91.457 C63.947,93.358 59.631,93.466 58.128,91.655 C57.514,90.915 56.742,88.96 56.412,87.31 C55.879,84.647 56.29,83.96 60.072,81.178 C62.982,79.039 65.032,78.221 66.539,78.599 C68.643,79.127 73.755,77.853 82.5,74.62 L86.5,73.141 L86.2,67.862 C86.035,64.959 85.53,62.115 85.077,61.542 C84.15,60.367 84.306,55.314 85.439,49.815 C86.331,45.487 89.01,42.683 91.383,43.594 C93.362,44.353 95.325,47.666 94.544,48.929 C93.816,50.107 95.907,64.957 97.119,67.223 C98.139,69.128 100.997,69.581 102.55,68.085 C103.073,67.581 107.1,65.29 111.5,62.993 C115.9,60.695 120.287,58.113 121.25,57.253 C123.342,55.385 123.506,52.183 121.649,49.473 C119.521,46.366 121.002,36.227 123.929,33.856 Z M114.5,74.061 C110.65,76.168 106.572,77.917 105.439,77.946 C102.319,78.028 98.892,81.682 99.485,84.296 C100.218,87.532 101.106,103.714 100.867,109.5 C100.435,119.982 101.648,129 103.491,129 C104.167,129 108.046,126.286 112.11,122.969 C116.175,119.652 120.85,116.585 122.5,116.154 L125.5,115.371 L125.272,94.065 C125.059,74.099 124.479,69.685 122.128,70.115 C121.782,70.177 118.35,71.953 114.5,74.061 Z M120.752,130.734 C117.95,133.655 114.448,135.712 106.893,138.877 C102.667,140.647 102.23,141.161 101.599,145.103 C101.222,147.467 100.526,149.873 100.055,150.45 C99.583,151.028 99.014,153.975 98.79,157 C98.565,160.025 98.184,163.164 97.941,163.976 C97.66,164.916 98.317,165.577 99.75,165.796 C102.072,166.15 102.914,169.317 101,170.5 C100.45,170.84 100,171.991 100,173.059 C100,175.296 102.898,175.66 106.284,173.848 C107.469,173.214 111.777,172.116 115.86,171.407 C119.942,170.698 123.641,169.754 124.08,169.309 C125.337,168.035 125.694,128.732 124.452,128.318 C123.876,128.126 122.211,129.213 120.752,130.734 Z"/>
</svg>

