<svg xmlns="http://www.w3.org/2000/svg" width="300" height="300" viewBox="0 0 300 300" version="1.1">
  <defs/>
  <path d="M132.462,144.053 C137.79,138.629 140.926,137.718 144.171,140.655 C146.737,142.977 146.712,150.549 144.134,151.928 C143.049,152.509 142.006,154.514 141.645,156.714 C140.857,161.506 137.938,167.162 130.441,178.426 C127.174,183.335 123.445,189.41 122.156,191.926 C120.867,194.442 119.213,197.175 118.481,198 C117.749,198.825 116.611,201.645 115.952,204.267 C115.293,206.889 114.359,209.278 113.877,209.576 C112.515,210.418 112.828,220.62 114.25,221.735 C116.347,223.378 131.42,226.913 141.231,228.061 C149.626,229.044 165.853,228.819 186.5,227.433 C190.35,227.175 196.425,226.279 200,225.442 C203.575,224.606 208.841,223.448 211.702,222.869 C218.377,221.52 222.445,217.975 221.684,214.171 C221.386,212.678 220.826,207.417 220.44,202.479 C220.054,197.54 219.36,193.019 218.898,192.432 C218.014,191.309 214.396,177.668 212.949,170 C212.482,167.525 211.36,161.925 210.456,157.555 C208.896,150.021 208.903,149.544 210.586,148.314 C212.069,147.229 212.659,147.287 214.18,148.663 C215.181,149.569 216,151.339 216,152.596 C216,153.853 216.373,155.113 216.829,155.394 C217.285,155.676 218.232,158.515 218.934,161.703 C220.817,170.26 222.997,178.103 224.436,181.5 C225.135,183.15 226.305,186.975 227.036,190 C227.767,193.025 228.733,195.927 229.183,196.45 C229.632,196.972 230,198.932 230,200.805 C230,202.677 231.125,206.449 232.5,209.187 C233.875,211.924 235,215.275 235,216.632 C235,222.348 229.754,228.038 220.945,231.877 C216.456,233.834 205.998,235.401 189.5,236.589 C184.55,236.946 180.022,237.619 179.438,238.085 C177.789,239.401 130.915,238.56 128.314,237.168 C127.114,236.526 124.864,235.985 123.316,235.966 C117.999,235.901 104.821,230.687 102.686,227.803 C100.839,225.309 100.777,224.574 101.862,218.006 C102.507,214.1 103.986,208.788 105.148,206.202 C108.137,199.55 113.331,189.283 116.379,184 C117.807,181.525 119.528,178.375 120.204,177 C120.879,175.625 122.46,173.108 123.716,171.406 C124.972,169.704 126,167.349 126,166.173 C126,164.165 125.467,164.306 117.239,168.486 C110.914,171.7 107.786,172.767 105.989,172.324 C101.969,171.334 101.033,170.108 101.666,166.663 C102.333,163.035 104.437,161 107.522,161 C110.504,161 126.482,150.143 132.462,144.053 Z M142.5,60.629 C144.15,59.74 146.146,59.01 146.936,59.006 C148.491,58.999 153,62.835 153,64.166 C153,65.896 146.68,70.911 143.665,71.573 C141.924,71.955 138.214,73.557 135.419,75.134 C132.625,76.71 129.835,78 129.219,78 C128.604,78 126.1,79.35 123.655,81 C121.21,82.65 118.661,84 117.991,84 C116.076,84 108.803,88.151 105.5,91.129 C103.85,92.617 101.375,93.984 100,94.167 C97.805,94.459 97.5,94.989 97.5,98.5 C97.5,100.7 97.063,103.175 96.529,104 C95.627,105.394 95.047,110.308 94.935,117.5 C94.91,119.15 94.186,123.65 93.327,127.5 C91.663,134.956 89.282,146.553 88.399,151.5 C88.105,153.15 87.486,155.4 87.025,156.5 C86.563,157.6 85.636,160.75 84.965,163.5 C84.294,166.25 82.744,170.75 81.52,173.5 C80.297,176.25 78.716,180.75 78.008,183.5 C77.3,186.25 76.062,190.075 75.258,192 C74.454,193.925 73.435,196.4 72.993,197.5 C72.551,198.6 70.856,202.425 69.226,206 C64.4,216.587 63.305,219.335 62.557,222.743 C62.166,224.522 61.431,226.234 60.923,226.548 C60.415,226.861 60,227.772 60,228.571 C60,229.37 58.538,232.26 56.75,234.994 C53.866,239.405 53.099,239.966 49.939,239.982 C44.362,240.01 39.425,234.486 43.965,233.299 C46.53,232.628 56.813,215.551 56.941,211.75 C56.973,210.787 57.45,210 58,210 C58.55,210 59,209.057 59,207.904 C59,206.752 59.636,204.614 60.413,203.154 C62.936,198.414 66,191.054 66,189.733 C66,189.025 66.621,187.557 67.38,186.473 C68.139,185.388 69.984,180.9 71.48,176.5 C72.976,172.1 74.57,167.6 75.022,166.5 C75.474,165.4 76.121,163.229 76.46,161.676 C77.003,159.185 76.814,158.889 74.863,159.176 C73.478,159.379 71.854,160.998 70.523,163.5 C67.353,169.462 61.036,177.91 58.889,179.06 C57.85,179.616 57,180.684 57,181.433 C57,182.183 54.3,185.625 51,189.082 C47.7,192.539 45,195.765 45,196.251 C45,198.55 39.61,204 37.336,204 C34.714,204 30,199.957 30,197.708 C30,196.947 33.938,192.839 38.75,188.578 C51.958,176.884 60.135,168.919 63.264,164.703 C64.813,162.614 66.901,160.589 67.903,160.203 C68.905,159.816 71.951,157.025 74.673,154 C78.826,149.384 79.966,147.214 81.766,140.5 C82.992,135.925 84.21,127.408 84.611,120.607 C85.18,110.935 85.749,107.89 87.655,104.304 C89.198,101.402 90.191,99.627 89.673,98.817 C88.849,97.527 84.197,98.683 71.847,101.631 C63.465,103.632 60.746,103.934 59.097,103.052 C57.943,102.435 57,101.371 57,100.687 C57,98.369 59.942,95.231 62.727,94.578 C65.813,93.855 72.955,91.24 83.5,86.973 C87.35,85.415 92.3,83.609 94.5,82.96 C96.7,82.31 100.3,80.968 102.5,79.977 C104.7,78.986 109.65,76.767 113.5,75.047 C117.35,73.327 121.287,71.487 122.25,70.96 C123.213,70.432 124.787,69.568 125.75,69.04 C126.713,68.512 130.2,66.768 133.5,65.163 C136.8,63.559 140.85,61.519 142.5,60.629 Z M108.329,104.585 C109.504,101.524 116.986,103.419 117.015,106.785 C117.023,107.728 117.702,110.431 118.524,112.79 C119.345,115.15 119.74,118.187 119.401,119.54 C118.227,124.214 121.387,122.121 130,112.518 C138.737,102.776 140.819,101.621 144.171,104.655 C146.84,107.07 146.497,108.257 141.425,114.168 C138.909,117.101 136.25,120.919 135.516,122.654 C134.783,124.388 133.256,126.101 132.123,126.461 C130.99,126.82 129.086,128.854 127.891,130.98 C125.548,135.149 116.793,141.518 114.576,140.667 C112.143,139.734 110,133.844 110.001,128.096 C110.002,125.018 109.489,118.826 108.862,114.335 C108.234,109.844 107.994,105.457 108.329,104.585 Z M103.308,25.092 C103.908,24.492 105.807,24 107.526,24 C111.399,24 114.417,27.063 115.899,32.5 C117.212,37.32 117.344,48.351 116.117,50.764 C115.01,52.94 113.352,56.964 112.633,59.22 C112.137,60.779 107.458,62.792 106.518,61.851 C106.304,61.637 106.546,58.147 107.054,54.094 C108.142,45.434 107.423,39.285 104.999,36.5 C102.883,34.071 101.779,26.621 103.308,25.092 Z M58.502,136.575 C62.414,134.536 67.87,134.573 70.171,136.655 C74.333,140.422 71.448,147.714 66.326,146.375 C65.067,146.046 63.197,146.805 61.27,148.426 C55.964,152.891 52,151.092 52,144.221 C52,141.099 53.731,139.063 58.502,136.575 Z"/>
</svg>

