<svg xmlns="http://www.w3.org/2000/svg" width="300" height="300" viewBox="0 0 300 300" version="1.1">
  <defs/>
  <path d="M150,150.614 C151.375,150.388 153.758,150.376 155.296,150.586 C158.894,151.078 167.877,158.749 168.664,162 C168.996,163.375 169.817,165.175 170.486,166 C171.156,166.825 172.191,171.775 172.787,177 C173.976,187.433 172.803,198.109 169.67,205.372 C168.752,207.502 168,210.548 168,212.141 C168,214.783 163.214,225.169 160.945,227.45 C159.752,228.649 159.711,232.703 160.884,233.428 C161.37,233.729 166.319,233.541 171.882,233.011 C184.473,231.812 187,232.537 187,237.353 C187,238.957 187.005,240.171 186.486,241.089 C184.869,243.95 178.158,243.933 150.322,243.898 C129.905,243.872 125.386,244.136 121.28,245.594 C118.38,246.624 115.357,247.055 113.791,246.662 C110.542,245.847 106.601,239.832 107.487,237.041 C108.578,233.603 112.903,231 117.524,231 C123.105,231 125.258,228.944 127.473,221.5 C128.455,218.2 129.656,214.454 130.142,213.175 C132.029,208.207 127.843,207.467 123.5,212 C121.919,213.65 120.09,215 119.435,215 C118.781,215 117.685,215.675 117,216.5 C113.697,220.48 108,216.533 108,210.264 C108,207.258 108.463,206.761 113.342,204.529 C116.28,203.186 119.26,201.392 119.964,200.543 C120.669,199.694 122.024,199 122.976,199 C123.929,199 125.943,197.856 127.452,196.457 C129.631,194.438 130.058,193.367 129.527,191.252 C129.16,189.788 128.695,185.762 128.495,182.306 C128.136,176.108 127.55,174 126.186,174 C125.379,174 111.692,184.125 108,187.453 C106.625,188.693 104.713,189.984 103.75,190.322 C102.61,190.723 102,191.981 102,193.933 C102,195.906 101.317,197.295 100,198 C97.662,199.251 97.483,201.455 99.34,206.128 C100.077,207.983 101.234,213.325 101.913,218 C102.591,222.675 103.654,227.54 104.275,228.812 C105.125,230.553 105.107,231.599 104.202,233.048 C103.541,234.107 103,235.599 103,236.364 C103,237.129 102.327,238.313 101.505,238.996 C100.3,239.996 99.524,239.918 97.505,238.595 C95.32,237.164 95,236.23 95,231.298 C95,225.548 93.845,220.627 91.373,215.846 C90.618,214.386 90,212.084 90,210.731 C90,207.796 80.908,189.858 77.149,185.376 C71.272,178.368 70.909,177.612 71.208,173 C71.493,168.604 71.585,168.493 75.157,168.195 C78.311,167.932 79.172,168.359 81.407,171.29 C82.833,173.159 84,175.05 84,175.491 C84,175.932 85.575,178.666 87.5,181.566 C89.425,184.466 91,187.525 91,188.363 C91,189.808 94.581,193 96.202,193 C97.184,193 101,185.526 101,183.603 C101,181.16 120.087,165 122.973,165 C123.459,165 124.524,164.333 125.339,163.518 C126.154,162.703 129.747,160.032 133.324,157.584 C139.341,153.464 143.672,151.655 150,150.614 Z M128.669,5.25 C129.426,4.012 130.906,3 131.958,3 C135.235,3 139,4.879 139,6.515 C139,8.809 135.538,15.206 133.106,17.405 C131.948,18.453 131,19.96 131,20.754 C131,22.379 124.766,33.011 121.282,37.327 C118.368,40.936 118.403,42.743 121.433,45.126 C122.771,46.179 124.009,48.043 124.183,49.27 C124.694,52.864 127.058,51.859 130.7,46.5 C136.077,38.587 136.739,38 140.29,38 C143.898,38 146,39.482 146,42.025 C146,44.12 138.718,53.473 133.25,58.402 C129.166,62.083 129,62.462 129,68.116 C129,71.498 129.439,74 130.033,74 C130.602,74 133.389,72.823 136.228,71.385 C143.787,67.554 151.855,64.824 157.207,64.286 C161.645,63.84 161.954,63.967 162.589,66.497 C163.462,69.977 161.376,71.904 153.5,74.896 C150.2,76.149 146.6,77.59 145.5,78.097 C144.4,78.604 141.025,79.877 138,80.925 C133.263,82.568 132.453,83.225 132.162,85.666 C131.975,87.225 131.408,89.002 130.901,89.615 C130.336,90.298 130.418,94.749 131.114,101.115 C133.385,121.892 130.218,144.065 124.869,144.846 C123.566,145.036 122.05,145.56 121.5,146.011 C120.95,146.461 119.007,146.202 117.182,145.434 C114.404,144.266 113.915,143.589 114.182,141.274 C114.431,139.109 115.129,138.4 117.403,138.005 C120.175,137.523 120.392,137.093 122.196,128.5 C123.512,122.23 123.944,117.073 123.621,111.5 C123.06,101.837 121.226,90.845 119.962,89.57 C119.395,88.998 116.241,90.012 111.77,92.202 C104.425,95.801 96.539,99.47 89.849,102.401 C87.841,103.28 85.401,104 84.428,104 C83.454,104 81.947,104.634 81.079,105.408 C78.122,108.045 63.715,115.105 62.355,114.583 C61.61,114.297 61,113.239 61,112.231 C61,111.224 60.535,109.935 59.967,109.367 C59.399,108.799 59.194,107.697 59.511,106.917 C60.395,104.743 68.793,99.783 75.725,97.341 C79.149,96.135 82.962,94.44 84.198,93.574 C85.434,92.708 87.37,92 88.5,92 C91.238,92 95,89.279 95,87.299 C95,86.426 96.544,84.314 98.43,82.606 C103.803,77.741 103.869,75.736 98.812,70.97 C96.44,68.735 93.299,66.259 91.831,65.469 C89.063,63.979 86,58.98 86,55.953 C86,53.965 87.939,53 91.932,53 C95.288,53 101.315,48.786 106.316,42.944 C110.402,38.17 119.3,23.782 120.496,20.014 C121.16,17.921 123.491,13.71 128.669,5.25 Z M146.5,161.21 C144.85,161.788 142.79,162.877 141.921,163.63 C141.053,164.384 139.646,165 138.794,165 C137.942,165 136.678,165.683 135.984,166.519 C134.952,167.763 135.057,168.405 136.564,170.071 C137.611,171.227 138.496,173.883 138.616,176.228 C138.733,178.496 139.41,182.973 140.12,186.176 C141.571,192.715 141.872,192.853 149.591,190.511 C152.291,189.692 155.974,189.017 157.775,189.011 C160.317,189.002 161.256,188.457 161.973,186.57 C164.322,180.392 157.949,161 153.569,161 C152.796,161 151.564,160.811 150.832,160.579 C150.099,160.348 148.15,160.632 146.5,161.21 Z M150.5,199.935 C144.217,201.465 141.272,203.735 140.545,207.611 C140.165,209.636 139.207,212.281 138.415,213.489 C137.624,214.697 137.001,217.218 137.031,219.092 C137.061,220.967 136.8,224.124 136.45,226.109 C135.887,229.306 136.081,229.79 138.157,230.345 C144.156,231.952 147.294,230.595 150.411,225.049 C155.074,216.754 156.488,213.83 158.128,209.093 C159.158,206.12 160,202.632 160,201.343 C160,199.345 159.521,199.015 156.75,199.102 C154.963,199.159 152.15,199.533 150.5,199.935 Z M95.399,112.976 C96.555,112.509 97.558,112.098 97.628,112.063 C97.698,112.029 99.369,112.674 101.342,113.498 C107.378,116.02 109.26,122.506 104.25,123.517 C100.566,124.261 94.71,127.435 93.892,129.131 C93.529,129.884 92.649,131.745 91.938,133.267 C91.226,134.789 89.091,137.218 87.194,138.665 C84.373,140.817 83.267,141.129 81.122,140.378 C77.273,139.03 77.293,135.787 81.184,130.774 C83.008,128.423 84.838,126.35 85.25,126.167 C85.662,125.983 86,125.369 86,124.801 C86,122.956 93.239,113.849 95.399,112.976 Z M147.921,110.595 C149.768,108.37 152.899,108.592 162.691,111.645 C169.38,113.731 171.414,114.814 172.304,116.767 C173.306,118.966 173.1,119.514 170.466,121.656 C166.87,124.581 163.218,124.237 155,120.201 C148.665,117.09 145.78,113.175 147.921,110.595 Z M108.208,53.288 C103.436,58.15 103.199,59.166 106,62.727 C107.1,64.126 108,66.082 108,67.076 C108,71.358 111.769,70.441 114.423,65.513 C115.986,62.611 116.086,61.623 115.068,59.164 C114.354,57.44 114.139,54.774 114.542,52.626 C115.476,47.649 113.544,47.851 108.208,53.288 Z M113.915,74.75 C112.523,76.263 108.795,79.46 105.631,81.856 C96.754,88.578 98.469,88.449 113.75,81.241 C118.561,78.973 119,78.482 119,75.383 C119,71.225 117.348,71.019 113.915,74.75 Z"/>
</svg>

