<svg xmlns="http://www.w3.org/2000/svg" width="300" height="300" viewBox="0 0 300 300" version="1.1">
  <defs/>
  <path d="M152.5,50.136 C161.877,47.122 170.419,51.272 173.204,60.195 C175.14,66.399 176.713,76.298 177.532,87.423 C177.852,91.781 178.539,96.138 179.057,97.107 C179.576,98.076 180,103.597 180,109.375 C180,115.154 180.429,120.147 180.952,120.471 C181.514,120.817 181.97,132.854 182.064,149.78 C182.305,193.451 182.715,212.525 183.461,214.877 C183.834,216.051 183.446,219.394 182.6,222.305 C181.299,226.78 180.432,227.951 176.989,229.886 C173.035,232.108 172.837,232.123 170.208,230.402 C164.053,226.372 155.83,216.808 152.895,210.266 C151.261,206.623 150.151,203.048 150.43,202.321 C151.657,199.123 154.674,201.307 164.144,212.25 C172.343,221.725 174.421,218.152 173.596,196 C173.278,187.475 172.745,170.15 172.411,157.5 C172.077,144.85 171.409,134.084 170.927,133.575 C170.402,133.021 168.923,133.823 167.238,135.575 C163.142,139.834 149.25,151 148.048,151 C146.813,151 144,158.018 144,161.1 C144,162.767 143.461,165.114 142.802,166.316 C141.603,168.504 140.578,180.171 139.447,204.5 C138.825,217.879 137.624,222 134.344,222 C133.459,222 131.845,220.988 130.758,219.75 C128.978,217.724 128.848,216.603 129.458,208.5 C129.831,203.55 130.512,192.525 130.972,184 C131.432,175.475 132.118,167.315 132.498,165.867 C133.56,161.817 131.359,161.403 126.667,164.772 C124.375,166.418 120.925,168.484 119,169.362 C117.075,170.241 114.825,171.387 114,171.909 C113.175,172.43 110.088,173.59 107.141,174.485 C102.134,176.005 101.657,175.999 99.891,174.401 C98.851,173.46 98,172.102 98,171.384 C98,169.444 101.688,166.362 106.892,163.955 C109.426,162.782 112.595,161.075 113.934,160.161 C115.272,159.248 120.222,156.475 124.934,154 L133.5,149.5 L133.8,138.5 C134.14,126.041 133.505,121 131.595,121 C130.873,121 128.32,122.552 125.922,124.45 C120.608,128.655 105.863,134.434 102.562,133.605 C98.408,132.562 97.823,134.64 96.218,156.101 C95.823,161.382 94.984,166.332 94.353,167.101 C93.722,167.871 92.994,170.75 92.735,173.5 C92.058,180.688 90.065,191.009 88.954,193.087 C88.429,194.067 88,196.254 88,197.948 C88,199.641 87.603,201.809 87.117,202.764 C86.631,203.719 85.655,205.738 84.948,207.25 C83.504,210.338 81.859,210.74 79.971,208.465 C78.971,207.26 78.941,205.812 79.831,201.715 C80.953,196.556 81.368,193.653 82.79,181 C83.192,177.425 83.873,173.949 84.304,173.275 C84.735,172.601 85.536,168.101 86.084,163.275 C86.633,158.449 87.52,151.125 88.055,147 C88.59,142.875 89.451,134.775 89.968,129 C90.486,123.225 91.369,116.7 91.931,114.5 C93.518,108.284 93.242,84.256 91.529,79.5 C90.736,77.3 90.068,73.839 90.044,71.809 C90.02,69.779 89.55,67.84 89,67.5 C87.494,66.569 87.799,63.412 89.534,61.972 C91.685,60.187 95.581,62.41 98.784,67.25 C101.2,70.901 103.62,71.922 105.55,70.105 C106.073,69.613 109.656,68.086 113.514,66.712 C121.98,63.696 131.488,59.166 135.531,56.222 C137.164,55.032 140.975,53.394 144,52.58 C147.025,51.766 150.85,50.667 152.5,50.136 Z M151.607,60.115 C149.466,60.617 140.466,64.559 131.607,68.875 C122.748,73.191 113.422,77.696 110.882,78.887 C103.493,82.349 103.192,82.996 102.928,96 C102.8,102.325 102.001,110.54 101.153,114.255 C100.081,118.949 99.929,121.329 100.655,122.055 C101.38,122.78 105.179,121.542 113.099,118 C127.138,111.721 131.868,109.71 133.089,106.403 C133.751,104.611 133.383,102.439 132.908,99 C132.415,95.425 131.333,90.39 130.505,87.812 C128.63,81.971 128.62,79.846 130.449,75.468 C131.558,72.814 132.488,72 134.414,72 C137.595,72 139,74.565 139,80.375 C139,82.854 139.45,85.16 140,85.5 C140.55,85.84 141,89.643 141,93.952 C141,100.191 141.324,101.91 142.59,102.396 C144.114,102.981 150,100.239 150,98.945 C150,97.763 155.102,96 158.524,96 C161.088,96 162.372,96.637 163.609,98.526 C165.165,100.9 165.151,101.176 163.382,103.134 C162.347,104.279 159.475,106.263 157,107.543 C154.525,108.822 150.588,111.647 148.25,113.819 L144,117.769 L144,129.884 C144,136.548 144.36,142 144.8,142 C145.24,142 148.392,139.75 151.805,137 C155.218,134.25 158.303,132 158.661,132 C159.018,132 160.849,130.827 162.727,129.394 C164.606,127.961 167.349,126.461 168.822,126.061 C169.592,125.852 170.158,125.785 170.547,125.487 C171.673,124.625 171.316,121.823 170.134,108 C169.64,102.225 168.744,95.7 168.142,93.5 C167.54,91.3 167.037,85.589 167.024,80.809 C167.011,76.029 166.55,71.84 166,71.5 C165.45,71.16 165,69.82 165,68.522 C165,65.234 161.925,60.217 159.513,59.568 C157.081,58.915 156.568,58.95 151.607,60.115 Z M94.184,75.673 C94.644,79.566 97,79.909 97,76.083 C97,73.951 96.517,73 95.434,73 C94.323,73 93.959,73.779 94.184,75.673 Z"/>
</svg>

