<svg xmlns="http://www.w3.org/2000/svg" width="300" height="300" viewBox="0 0 300 300" version="1.1">
  <defs/>
  <path d="M173,181.173 C180.222,179.174 183.195,179.72 187.75,183.884 C191.906,187.683 191.999,187.91 191.976,194.134 C191.963,197.636 191.467,202.3 190.874,204.5 C190.281,206.7 189.569,210.19 189.292,212.256 C189.015,214.322 188.386,216.261 187.894,216.565 C187.402,216.869 187,217.837 187,218.715 C187,221.588 181.976,226.978 176.9,229.55 C168.732,233.69 167.718,231.065 174.318,222.865 C179.897,215.934 184.421,201.799 183.032,195.64 C181.918,190.701 181.247,190 177.635,190 C173.414,190 161.989,193.866 161.359,195.507 C161.09,196.207 161.997,197.906 163.374,199.283 C165.643,201.552 165.825,202.335 165.312,207.643 C165.001,210.864 164.353,213.928 163.873,214.45 C163.393,214.973 163,216.419 163,217.665 C163,220.31 158.548,225.688 153.531,229.105 C148.773,232.345 148.631,235.925 153.25,236.178 C155.037,236.276 157.4,236.263 158.5,236.148 C161.341,235.851 212.075,234.719 217,234.842 C218.375,234.876 222.855,234.962 226.956,235.033 C231.174,235.106 235.598,235.775 237.146,236.575 C239.461,237.773 255.606,239.894 264,240.104 C265.375,240.139 267.288,240.874 268.25,241.738 C272.281,245.358 268.729,251.166 262.471,251.186 C258.268,251.199 247.702,249.552 246.255,248.657 C245.783,248.366 240.47,247.626 234.448,247.014 C228.427,246.403 222.45,245.378 221.166,244.737 C218.646,243.479 212.4,243.386 178.5,244.1 C166.4,244.355 155.933,244.915 155.241,245.346 C154.549,245.777 153.182,245.875 152.205,245.565 C151.228,245.255 147.069,245.475 142.964,246.055 C134.642,247.23 132.009,247.557 100,251.403 C87.625,252.889 74.35,254.763 70.5,255.566 C60.592,257.632 59.447,257.494 58.025,254.06 C55.666,248.366 59.828,246.334 76.701,244.946 C83.741,244.366 93.325,243.273 98,242.516 C102.675,241.76 109.425,240.834 113,240.459 C116.575,240.083 120.731,239.059 122.235,238.182 C124.519,236.85 125.521,236.787 128.32,237.799 C130.823,238.704 132.472,238.731 134.836,237.907 C137.555,236.959 138,236.324 138,233.389 C138,231.51 137.605,229.191 137.122,228.236 C133.617,221.303 133.121,219.217 134.533,217.352 C135.305,216.334 135.951,214.488 135.968,213.25 C136.023,209.375 132.463,210.628 126.44,216.603 C121.486,221.517 120.864,222.568 121.378,225.141 C122.161,229.054 120.304,229.664 114.435,227.422 C111.165,226.173 109.098,224.531 107.391,221.827 C106.062,219.722 104.509,218 103.939,218 C103.37,218 101.913,216.872 100.702,215.493 C99.491,214.115 96.04,211.752 93.033,210.243 C88.722,208.08 87.371,206.817 86.644,204.27 C85.986,201.965 86.083,200.605 86.983,199.52 C88.599,197.574 92.392,197.563 94,199.5 C94.685,200.325 95.78,201 96.433,201 C97.087,201 100.745,203.685 104.561,206.967 C108.377,210.249 112.127,212.949 112.894,212.967 C113.661,212.985 117.036,210.956 120.394,208.457 C125.572,204.605 132.809,199.744 141.53,194.261 C145.734,191.618 161.7,184.274 165.5,183.235 C167.7,182.634 171.075,181.706 173,181.173 Z M177.577,66.94 C180.983,64.695 182.155,64.555 183.8,66.2 C185.554,67.954 185.274,70.74 182.925,74.92 C180.661,78.949 178.599,80.533 172.5,82.932 C170.3,83.797 166.138,85.854 163.251,87.503 L158.002,90.5 L158.001,97.691 C158,101.646 157.55,105.16 157,105.5 C155.415,106.479 155.837,108 157.693,108 C158.624,108 163.461,106.696 168.443,105.101 C183.618,100.245 196.169,97.932 200.643,99.167 C204.822,100.321 211,106.109 211,108.871 C211,109.822 211.501,111.101 212.113,111.713 C213.878,113.478 210.648,131.025 206.953,139.75 C204.26,146.109 203.001,147.963 197.129,154.216 C190.864,160.887 190.672,161 185.629,160.996 C180.767,160.993 179.004,160.278 172.786,155.792 C171.345,154.753 170.621,154.989 168.232,157.278 C165.155,160.225 161,160.939 161,158.521 C161,157.707 163.537,151.97 166.639,145.771 C169.74,139.572 172.665,133.719 173.139,132.764 C174.265,130.492 174.253,123 173.122,123 C171.107,123 168.004,130.938 167.996,136.116 C167.991,139.525 164.38,145 162.137,145 C159.53,145 158.202,143.115 157.436,138.328 C156.996,135.575 157.283,133.161 158.32,130.878 C159.165,129.02 160.155,125.138 160.522,122.25 C161.171,117.133 161.124,117 158.676,117 C157.294,117 155.505,116.747 154.7,116.438 C153.223,115.872 147.157,123.059 141.988,131.5 C133.328,145.643 124.603,148.931 130.376,135.876 C131.718,132.842 134.828,127.466 137.287,123.93 C144.274,113.883 148,105.743 148,100.529 C148,98.038 147.785,96 147.523,96 C147.26,96 144.223,97.058 140.773,98.351 C131.06,101.991 127.659,102.386 125.601,100.112 C123.5,97.79 123.763,91.075 126,89.943 C126.825,89.526 132.9,87.49 139.5,85.419 C151.99,81.5 160.738,77.747 165.826,74.124 C167.467,72.956 169.729,72 170.855,72 C171.98,72 173.295,71.295 173.777,70.433 C174.259,69.572 175.969,68 177.577,66.94 Z M157.323,2.25 C158.776,0.637 160.469,0 163.308,0 C172.114,0 175,8.961 175,36.308 C175,53.751 174.883,54.873 172.75,57.97 C171.414,59.909 168.949,61.76 166.684,62.523 C164.585,63.231 162.11,64.459 161.184,65.253 C160.258,66.047 158.684,66.986 157.687,67.341 C155.791,68.015 150.642,65.848 149.413,63.859 C149.02,63.223 148.585,55.823 148.447,47.414 C148.309,39.006 147.816,31.535 147.352,30.813 C145.776,28.362 143.783,18.525 143.641,12.5 L143.5,6.5 L146.75,6.187 C148.576,6.011 150,6.339 150,6.937 C150,8.713 154.019,8.123 154.68,6.25 C155.02,5.287 156.209,3.488 157.323,2.25 Z M190.655,110.829 C189.745,111.835 189,113.868 189,115.349 C189,116.829 187.762,119.898 186.25,122.169 C184.738,124.441 183.202,126.794 182.838,127.4 C182.473,128.005 181.624,131.043 180.951,134.151 C180.019,138.459 179.166,140.059 177.364,140.88 C175.897,141.548 174.995,142.819 174.986,144.229 C174.979,145.478 174.701,147.513 174.369,148.752 C173.866,150.629 174.363,151.254 177.351,152.502 C179.322,153.326 182.04,154 183.39,154 C188.358,154 201,136.022 201,128.956 C201,127.395 201.45,125.84 202,125.5 C202.55,125.16 203,122.053 203,118.596 C203,113.776 202.573,111.924 201.171,110.655 C198.7,108.418 192.747,108.517 190.655,110.829 Z M106.296,112.217 C108.064,109.957 109.505,111.566 109.321,115.592 C108.625,130.749 102.876,145.904 95.905,150.954 C93.592,152.629 91.24,154 90.679,154 C86.421,154 84.088,144.741 88.031,143.49 C90.964,142.559 95,137.874 95,135.4 C95,134.233 96.125,131.621 97.5,129.595 C98.875,127.569 100,125.678 100,125.394 C100,124.523 105.227,113.584 106.296,112.217 Z M147.732,201.536 L144,204.072 L144,213.914 C144,220.704 144.398,224.085 145.284,224.82 C147.559,226.709 149.233,224.869 153.937,215.305 C156.071,210.965 156.45,207.498 155.375,202.125 C154.605,198.273 152.745,198.13 147.732,201.536 Z M89.339,56.061 C90.898,54.502 95.564,54.769 97,56.5 C97.685,57.325 99.299,58 100.586,58 C103.105,58 108,64.045 108,67.155 C108,69.341 103.086,75.195 101.653,74.718 C101.049,74.516 100.3,73.27 99.987,71.947 C99.675,70.624 97.756,68.408 95.723,67.021 C91.413,64.081 87.697,57.703 89.339,56.061 Z M87.034,100.476 C93.234,96.479 94.494,96.436 97.246,100.125 C98.839,102.261 98.992,103.146 98.067,104.875 C97.441,106.044 96.383,107.006 95.715,107.013 C95.047,107.02 91.806,108.392 88.512,110.061 C81.765,113.483 78.563,113.33 76.819,109.502 C75.544,106.703 77.061,104 79.906,104 C80.82,104 84.027,102.414 87.034,100.476 Z M159.815,13.25 C156.117,19.877 154.574,31.326 157.25,32.278 C157.938,32.522 160.181,31.879 162.236,30.848 L165.972,28.974 L165.349,21.237 C164.546,11.266 162.539,8.369 159.815,13.25 Z M160.25,43.653 C158.694,44.753 158,46.26 158,48.539 C158,52.806 159.706,53.29 163.801,50.187 C169.735,45.689 166.303,39.375 160.25,43.653 Z M292.605,240.83 C292.925,240.312 294.608,240.025 296.344,240.194 C298.731,240.425 299.5,240.987 299.5,242.5 C299.5,244.059 298.949,244.423 297,244.152 C293.957,243.729 291.814,242.11 292.605,240.83 Z M174,114.573 C174,115.505 174.68,116.015 175.667,115.823 C178.176,115.337 178.52,113 176.083,113 C174.855,113 174,113.646 174,114.573 Z"/>
</svg>

