<svg xmlns="http://www.w3.org/2000/svg" width="300" height="300" viewBox="0 0 300 300" version="1.1">
  <defs/>
  <path d="M138.316,135.164 C139.002,134.309 140.455,134.041 142.349,134.42 C147.201,135.39 148.288,136.881 147.632,141.668 C146.949,146.649 148.103,147.818 151.503,145.59 C152.831,144.72 157.071,143.467 160.925,142.806 C172.46,140.828 182.925,144.748 186.485,152.38 C190.743,161.511 193.659,181.023 192.107,190 C191.489,193.575 190.547,200.1 190.013,204.5 C188.855,214.052 186.282,224.65 184.377,227.715 C183.62,228.933 183,230.609 183,231.44 C183,233.742 177.432,245.397 175.609,246.91 C174.724,247.644 174,249.041 174,250.014 C174,251.146 172.552,252.362 169.98,253.391 C165.395,255.226 163.694,255.367 161.236,254.117 C160.281,253.631 158.262,252.655 156.75,251.948 C155.238,251.241 154,250.144 154,249.511 C154,248.878 152.397,246.488 150.438,244.199 C147.515,240.784 146.933,239.377 147.188,236.346 C147.36,234.316 148.034,232.479 148.688,232.265 C149.341,232.05 151.628,233.591 153.769,235.688 C160.277,242.058 162.013,243.808 163.498,243.616 C164.095,243.539 164.652,243.147 165.463,242.616 C166.858,241.702 168,240.324 168,239.554 C168,238.784 169.047,236.881 170.327,235.327 C173.059,232.007 175.916,225.039 175.279,223.25 C175.034,222.562 173.567,222 172.019,222 C169.145,222 156.77,216.43 156.167,214.865 C155.983,214.389 155.43,214 154.936,214 C153.097,214 143,206.888 143,205.592 C143,201.243 152.672,201.165 158.433,205.468 C160.12,206.728 163.734,208.73 166.463,209.918 C169.193,211.105 172.194,212.77 173.131,213.619 C174.068,214.467 175.885,215.012 177.168,214.83 C179.215,214.54 179.53,213.89 179.747,209.5 C179.883,206.75 180.727,200.252 181.624,195.059 C183.501,184.185 183.113,177.383 179.909,165 C177.113,154.193 175.838,153 167.089,153 C163.41,153 159.972,153.396 159.45,153.879 C158.928,154.363 156.801,155.301 154.725,155.965 C149.77,157.549 145.568,161.172 143.98,165.23 C143.276,167.028 142.148,169.85 141.473,171.5 C137.731,180.655 136,185.404 136,186.518 C136,188.185 131.223,191.256 129.901,190.439 C128.755,189.73 129.321,185.048 131.688,175.663 C132.498,172.453 132.903,169.57 132.59,169.256 C131.472,168.139 127.886,170.616 118.508,178.983 C111.169,185.53 109,188.051 109,190.033 C109,191.445 108.502,193.098 107.893,193.707 C106.798,194.802 107.667,202.756 110.076,213.693 C111.424,219.812 111.214,223.106 109.345,225.171 C105.463,229.461 102.242,225.504 101.88,216 C101.743,212.425 101.04,208.285 100.316,206.8 C99.592,205.314 99,203.397 99,202.538 C99,199.87 92.098,186.475 88.617,182.388 C82.199,174.851 80.263,167.102 84.185,164.647 C86.816,163 90.743,165.705 94.872,172.008 C100.386,180.428 100.928,181.323 101.978,183.75 C103.894,188.182 108,185.316 108,179.546 C108,177.678 110.012,174.922 115.25,169.618 C119.237,165.58 123.85,161.572 125.5,160.711 C127.15,159.85 130.003,157.872 131.84,156.316 C134.865,153.753 135.212,152.898 135.518,147.258 C135.883,140.52 136.638,137.256 138.316,135.164 Z M138.775,27.461 C149.561,21.318 155.094,21.736 154.967,28.684 C154.924,31.009 151.617,35 149.733,35 C148.938,35 143.958,37.279 138.667,40.065 C127.875,45.746 113.502,52.136 104.516,55.246 C101.225,56.385 96.423,58.377 93.844,59.672 L89.156,62.027 L89.69,85.263 C90.142,104.953 89.979,109.187 88.626,113 C87.748,115.475 87.023,118.486 87.015,119.691 C87.007,120.896 86.55,122.16 86,122.5 C85.45,122.84 85,124.036 85,125.158 C85,126.28 84.376,128.616 83.614,130.349 C82.851,132.082 81.237,136.2 80.027,139.5 C78.816,142.8 77.011,147.3 76.016,149.5 C75.021,151.7 73.92,154.625 73.569,156 C71.813,162.872 70.539,166.64 69.51,168 C68.886,168.825 67.57,171.525 66.585,174 C65.6,176.475 64.391,179.281 63.897,180.236 C63.404,181.191 63,182.697 63,183.582 C63,184.467 62.182,186.386 61.181,187.846 C58.404,191.898 54.126,201.213 52.45,206.855 C51.624,209.637 50.503,212.189 49.96,212.525 C49.416,212.861 48.028,214.985 46.875,217.244 C44.496,221.909 36.693,231.679 30.897,237.25 C26.872,241.119 23.603,241.928 19.934,239.965 C16.748,238.26 17.705,236.164 23.305,232.582 C29.017,228.927 31.332,225.915 37.967,213.5 C40.319,209.1 42.788,204.825 43.454,204 C44.12,203.175 45.686,200.025 46.935,197 C48.183,193.975 50.509,188.736 52.102,185.357 C53.696,181.978 55,178.896 55,178.508 C55,178.12 55.641,176.384 56.424,174.651 C60.974,164.581 64.36,156.129 65.648,151.625 C66.454,148.806 68.85,142.225 70.972,137 C73.094,131.775 75.607,123.9 76.556,119.5 C77.505,115.1 78.687,110.708 79.181,109.741 C80.486,107.188 80.342,77.117 79.018,75.521 C78.424,74.806 78.065,72.259 78.219,69.861 C78.49,65.65 78.394,65.49 75.415,65.199 C73.537,65.016 71.826,65.505 71.042,66.449 C67.698,70.479 60.044,65.645 61.927,60.692 C63.02,57.818 70.021,53.687 72.31,54.566 C73.095,54.867 76.383,54.174 79.618,53.027 C82.853,51.879 87.75,50.267 90.5,49.444 C93.25,48.621 96.281,47.509 97.236,46.974 C98.191,46.438 99.683,46 100.551,46 C103.648,46 123.166,37.56 127.775,34.228 C129.577,32.925 134.527,29.88 138.775,27.461 Z M109.768,71.25 C112.84,66.522 118,69.84 118,76.544 C118,80.548 118.18,80.811 121.325,81.401 C125.564,82.196 129.599,86.504 130.315,91 C131.046,95.591 129.181,110.18 126.451,121.219 C126.081,122.715 125.153,124.458 124.389,125.092 C123.625,125.726 123,126.942 123,127.794 C123,130.447 119.849,133.001 116.595,132.985 C108.759,132.948 105.253,126.772 111.814,124.563 C116.988,122.821 120,114.82 120,102.819 C120,96.544 119.677,94.813 118.413,94.328 C115.697,93.286 112.183,97.946 111.119,104 C109.729,111.906 108.083,117.919 106.053,122.5 C103.97,127.2 102,133.169 102,134.777 C102,135.401 100.745,138.069 99.211,140.706 C97.678,143.343 95.808,147.406 95.056,149.736 C93.235,155.381 90.859,157.53 88.083,156.045 C85.433,154.626 85.402,151.125 88,146.5 C89.1,144.542 90,142.421 90,141.788 C90,141.155 91.314,137.231 92.92,133.069 C94.526,128.906 96.605,122.8 97.541,119.5 C98.477,116.2 99.863,112.022 100.622,110.216 C101.38,108.41 102,105.822 102,104.466 C102,102.393 101.522,102 99,102 C96.168,102 96,101.776 96,98.013 C96,94.452 96.426,93.756 99.975,91.516 C105.169,88.237 106.728,85.676 107.593,79 C107.985,75.975 108.964,72.487 109.768,71.25 Z M156.323,81.25 C157.437,80.013 159.193,79 160.224,79 C163.26,79 167.804,81.807 168.545,84.14 C169.763,87.978 169.255,95.387 167.47,99.815 C166.173,103.034 166.019,104.419 166.865,105.265 C168.577,106.977 168.227,111.492 166.25,113.218 C165.287,114.059 162.7,115.069 160.5,115.463 C155.355,116.384 154,117.57 154,121.154 C154,124.41 151.672,125.911 149.114,124.305 C148.226,123.747 147.23,121.313 146.9,118.896 C146.243,114.084 144.199,105.653 142.925,102.5 C142.48,101.4 141.84,99.084 141.502,97.354 C141.163,95.623 140.012,93.416 138.943,92.449 C136.53,90.265 136.223,83.235 138.502,82.361 C140.901,81.44 144.965,82.874 147.696,85.605 C150.385,88.294 152.649,88.168 153.672,85.273 C154.016,84.298 155.209,82.487 156.323,81.25 Z M138.318,186.199 C138.874,185.484 140.492,185.034 141.914,185.199 C144.383,185.486 144.488,185.749 144.235,191 C143.992,196.039 143.348,198.391 140.883,203.236 C140.397,204.191 140,206.258 140,207.829 C140,209.4 138.873,212.669 137.496,215.093 C136.118,217.517 134.061,221.437 132.925,223.804 C130.816,228.197 127.292,230.71 124.658,229.699 C123.369,229.204 123.366,228.603 124.634,224.817 C125.43,222.443 126.928,218.7 127.964,216.5 C129,214.3 130.367,210.475 131.003,208 C132.971,200.335 137.256,187.566 138.318,186.199 Z M109.315,3.25 L107.994,0 L116.843,0 C122.896,0 126.691,0.498 128.852,1.576 C132.456,3.374 134.273,6.125 133.385,8.44 C133.05,9.312 133.299,10.655 133.937,11.425 C135.27,13.031 133.517,17 128.549,23.625 C125.548,27.628 119.59,31.483 117.961,30.476 C117.178,29.992 119.579,23.385 122.132,19 C125.008,14.058 124.989,13.143 121.94,10.094 C119.769,7.923 117.829,7.03 114.797,6.806 C111.159,6.539 110.469,6.091 109.315,3.25 Z M43.5,155.287 C49.472,151.15 52,150.153 52,151.935 C52,154.71 49.451,158.428 43.297,164.631 C39.524,168.434 35.084,173.561 33.43,176.023 C30.844,179.874 29.943,180.5 26.986,180.5 C24.143,180.5 23.382,180.028 22.588,177.771 C21.693,175.224 22.16,174.518 29.564,167.242 C33.929,162.952 40.2,157.572 43.5,155.287 Z M45.5,127 C51.279,125.53 53.878,125.884 55.504,128.365 C57.509,131.427 56.042,135.756 52.785,136.387 C51.528,136.63 47.934,137.345 44.798,137.975 C37.997,139.343 35.706,138.464 34.106,133.873 C32.672,129.762 34.043,128.039 38.872,127.882 C40.868,127.817 43.85,127.42 45.5,127 Z M150.075,168.752 C156.845,165.295 162,167.005 162,172.706 C162,178.618 157.064,182.192 154,178.5 C153.315,177.675 151.221,177 149.346,177 C143.178,177 143.616,172.049 150.075,168.752 Z M154.101,93.031 C151.62,97.79 151.417,101.271 153.519,103.016 C154.762,104.047 155.397,103.95 157.019,102.483 C158.108,101.497 159,99.881 159,98.892 C159,97.903 159.545,95.899 160.21,94.438 C161.257,92.141 161.163,91.592 159.519,90.39 C156.784,88.39 156.43,88.563 154.101,93.031 Z"/>
</svg>

