<svg xmlns="http://www.w3.org/2000/svg" width="300" height="300" viewBox="0 0 300 300" version="1.1">
  <defs/>
  <path d="M155.472,165.506 C162.417,163.957 171.365,164.52 175,166.735 C181.119,170.464 183,173.15 183,178.157 C183,182.482 180.371,190.233 176.778,196.5 C176.148,197.6 175.032,199.687 174.299,201.137 C172.881,203.942 166.329,210 164.713,210 C164.182,210 160.994,211.399 157.629,213.109 C150.164,216.902 142.5,217.65 142.5,214.584 C142.5,213.236 144.403,211.697 148.923,209.388 C153.798,206.898 156.822,204.346 161.465,198.804 C171.187,187.198 174.161,179.266 170.152,175.637 C168.455,174.102 167.461,174.083 158.034,175.4 C152.386,176.19 147.273,177.327 146.672,177.928 C145.883,178.717 146.067,179.843 147.336,181.991 C148.667,184.244 148.838,185.434 148.045,186.915 C147.47,187.99 147,189.761 147,190.851 C147,195.782 138.424,209.932 135.406,209.982 C134.804,209.992 131.74,212.25 128.597,215 C125.455,217.75 122.235,220 121.442,220 C120.649,220 120,220.726 120,221.614 C120,222.936 120.768,223.123 124.25,222.651 C126.588,222.334 139.975,221.794 154,221.45 C203.49,220.237 262.715,224.199 268.643,229.119 C273.054,232.78 266.658,241.815 260.57,240.522 C258.881,240.164 255.475,239.631 253,239.338 C250.318,239.021 247.49,237.891 246,236.542 C243.778,234.529 241.71,234.134 227.383,232.986 C218.518,232.276 209.724,231.945 207.84,232.251 C205.955,232.557 202.408,232.415 199.957,231.936 C193.647,230.703 147.19,230.791 130.5,232.068 C122.8,232.657 111.661,233.469 105.747,233.873 C99.708,234.285 94.469,235.131 93.797,235.803 C93.139,236.461 91.453,237.013 90.05,237.029 C85.448,237.082 74.577,240.604 70.61,243.329 C65.789,246.64 63.596,246.687 60.455,243.545 C57.165,240.256 57.357,238.728 61.454,235.603 C68.675,230.095 77.386,227.887 102.88,225.099 C108.039,224.535 112.323,223.945 112.4,223.787 C112.477,223.629 114.218,220.992 116.27,217.927 C118.321,214.862 120,212.07 120,211.722 C120,211.375 118.875,209.966 117.5,208.591 C115.657,206.748 115,205.027 115,202.045 C115,199.82 114.533,198 113.963,198 C113.392,198 111.03,199.94 108.713,202.311 C106.396,204.682 103.077,207.456 101.338,208.475 C98.302,210.254 98.182,210.569 98.338,216.414 C98.495,222.313 98.425,222.492 96.057,222.228 C94.65,222.071 90.768,219.208 86.904,215.478 C83.214,211.915 79.536,209 78.732,209 C77.927,209 74.959,207.12 72.135,204.823 C68.322,201.721 67,199.971 67,198.023 C67,194.477 68.724,193 72.863,193 C75.622,193 77.798,194.218 83.579,199 C91.522,205.57 94.512,206.413 95.999,202.502 C98.07,197.055 114.594,183.897 130.443,175.074 C137.744,171.009 147.475,167.289 155.472,165.506 Z M131.498,43.382 C136.999,40.567 142.482,38.205 143.682,38.132 C145.065,38.048 146.655,39.111 148.025,41.035 C150.679,44.763 149.609,46.552 144.176,47.47 C142.137,47.815 138.225,49.657 135.484,51.563 C126.907,57.528 116.962,64 116.373,64 C116.063,64 114.399,65.012 112.675,66.25 C109.161,68.773 106.23,70.585 104,71.613 C103.175,71.993 101.825,72.856 101,73.53 C100.175,74.204 96.35,76.428 92.5,78.471 C83.639,83.175 83.51,83.312 85.323,86.143 C86.536,88.037 86.763,91.317 86.48,102.853 C86.286,110.747 85.874,117.46 85.564,117.77 C85.254,118.08 85,119.807 85,121.608 C85,123.409 84.585,125.139 84.077,125.452 C83.569,125.766 82.857,127.48 82.495,129.261 C81.817,132.593 80.278,137.973 78.995,141.5 C78.595,142.6 77.362,145.975 76.255,149 C75.148,152.025 73.454,156.75 72.492,159.5 C71.529,162.25 69.74,166.525 68.516,169 C65.126,175.854 63,180.944 63,182.205 C63,182.831 62.377,184.053 61.615,184.921 C60.853,185.79 59.101,189.875 57.722,194 C55.174,201.622 48.619,215.462 44.352,222.23 C43.058,224.282 42,226.589 42,227.358 C42,228.126 41.325,229.315 40.5,230 C39.675,230.685 39,231.923 39,232.751 C39,233.58 37.425,236.001 35.5,238.132 C33.575,240.262 32,242.423 32,242.932 C32,243.441 30.004,245.205 27.564,246.852 L23.129,249.845 L21.564,247.458 C19.447,244.226 19.597,241.918 21.965,241.299 C23.045,241.016 25.249,238.696 26.861,236.143 C30.183,230.882 44,203.785 44,202.53 C44,202.079 45.504,198.513 47.342,194.605 C53.032,182.51 54,180.238 54,178.985 C54,178.318 54.957,175.911 56.126,173.636 C57.295,171.361 58.645,168.719 59.126,167.764 C59.607,166.809 60,165.303 60,164.418 C60,163.533 60.631,161.614 61.403,160.154 C62.174,158.694 63.495,155.25 64.339,152.5 C66.474,145.542 68.764,138.956 70.875,133.703 C71.494,132.165 72,129.892 72,128.653 C72,127.414 72.504,125.896 73.121,125.279 C73.737,124.663 74.654,121.085 75.159,117.329 C75.663,113.573 76.335,108.773 76.651,106.663 C76.979,104.48 76.767,102.367 76.16,101.76 C75.54,101.14 75.437,100.026 75.915,99.097 C76.367,98.219 77.048,95.778 77.428,93.674 C78.497,87.758 74.921,84.952 70.923,88.569 C69.793,89.592 66.998,90.202 62.903,90.319 L56.616,90.5 L55.648,87.196 C54.378,82.864 55.906,81.345 62.863,80.026 C65.793,79.47 70.735,77.694 73.845,76.08 C76.955,74.465 83.013,71.554 87.307,69.611 C91.602,67.667 96.841,64.71 98.951,63.039 C101.061,61.367 103.216,60 103.739,60 C104.262,60 105.467,59.141 106.417,58.091 C107.367,57.042 109.575,55.62 111.322,54.932 C113.07,54.243 116.074,52.515 117.998,51.09 C119.921,49.666 125.996,46.197 131.498,43.382 Z M132,92.428 C138.891,90.448 141.215,90.728 145.209,94.021 C150.609,98.472 153.756,105.797 151,107.5 C150.45,107.84 150,109.611 150,111.437 C150,113.262 149.325,115.315 148.5,116 C147.675,116.685 147,118.006 147,118.935 C147,119.865 145.65,121.919 144,123.5 C142.35,125.081 141,127.325 141,128.487 C141,129.649 140.545,131.055 139.988,131.612 C139.432,132.168 137.97,134.571 136.738,136.951 C135.028,140.258 133.556,141.621 130.5,142.728 C128.3,143.525 125.47,144.141 124.212,144.097 C122.615,144.04 121.306,145.063 119.882,147.476 C116.989,152.378 111.567,155.58 108.513,154.188 C105.328,152.737 104.456,149.48 106.44,146.451 C107.931,144.176 107.909,143.714 106.13,140.034 C105.038,137.772 103.903,132.507 103.491,127.784 C102.642,118.055 99.591,105.313 97.574,103.074 C95.405,100.667 94.592,96.197 96.011,94.487 C97.858,92.262 102.348,92.678 104.814,95.302 C106.01,96.575 107.432,100.006 107.995,102.976 C108.556,105.93 109.217,108.55 109.464,108.797 C110.702,110.035 112.824,107.753 113.428,104.535 C113.902,102.008 114.819,100.639 116.457,100.016 C117.749,99.525 119.105,98.639 119.471,98.047 C120.295,96.714 126.027,94.144 132,92.428 Z M50.819,153.782 C54.641,151.261 56,151.553 56,154.894 C56,156.74 54.895,158.971 52.95,161.054 C51.272,162.85 49.407,165.26 48.805,166.409 C48.203,167.559 46.492,170.075 45.002,172 C43.513,173.925 40.928,177.975 39.259,181 C35.653,187.533 32.202,189.398 29.03,186.527 C27.914,185.517 27,183.833 27,182.785 C27,181.738 30.262,177.047 34.25,172.361 C38.237,167.675 42.993,161.975 44.819,159.695 C46.644,157.415 49.344,154.754 50.819,153.782 Z M106.25,19.22 C109.794,17.511 113.961,17.824 116.737,20.008 C119.673,22.317 123.923,30.417 123.969,33.79 C124.004,36.397 120.227,42 118.434,42 C117.78,42 116.685,42.675 116,43.5 C115.315,44.325 113.91,45 112.878,45 C110.534,45 110.408,42.046 112.573,37.859 C114.029,35.043 114.012,34.671 112.343,32.827 C111.352,31.731 109.069,30.22 107.27,29.468 C104.37,28.256 104,27.662 104,24.204 C104,21.149 104.487,20.071 106.25,19.22 Z M133,103.574 C128.155,105.119 122,110.066 122,112.416 C122,113.211 122.967,114.005 124.148,114.18 C125.329,114.356 126.679,115.287 127.148,116.25 C127.617,117.213 128.395,118.787 128.878,119.75 C129.513,121.015 130.69,121.408 133.128,121.169 C134.983,120.986 136.924,120.427 137.442,119.926 C138.815,118.6 141.998,109.852 141.999,107.405 C142,105.596 139.149,101.867 137.921,102.07 C137.69,102.108 135.475,102.785 133,103.574 Z M45.15,132.997 C53.398,130.03 59.165,130.792 60.509,135.028 C61.458,138.02 57.522,142.169 54.463,141.401 C53.213,141.088 49.992,141.808 47.119,143.044 C41.666,145.39 39,144.744 39,141.078 C39,140.155 38.531,138.931 37.958,138.358 C36.512,136.912 38.606,135.351 45.15,132.997 Z M129.24,186.85 C125.844,189.78 125.368,191.701 125.798,200.75 C125.95,203.94 126.409,205 127.64,205 C129.56,205 131.923,202.203 131.968,199.876 C131.986,198.983 133.158,196.181 134.573,193.649 C139.17,185.423 135.829,181.163 129.24,186.85 Z M112.437,118.492 C110.586,122.392 111.141,125.316 113.638,124.824 C114.884,124.579 117.81,118.134 117.985,115.25 C117.993,115.112 117.121,115 116.047,115 C114.799,115 113.496,116.26 112.437,118.492 Z"/>
</svg>

