<svg xmlns="http://www.w3.org/2000/svg" width="300" height="300" viewBox="0 0 300 300" version="1.1">
  <defs/>
  <path d="M144.5,43.006 C151.627,38.394 155.543,37.903 157.146,41.421 C158.06,43.428 157.872,44.37 156.046,46.935 C154.001,49.807 147.129,54 144.467,54 C143.831,54 142.462,54.937 141.425,56.083 C140.389,57.228 138.069,58.78 136.27,59.532 C132.869,60.952 131.99,63.59 134.185,65.785 C135.098,66.698 134.836,68.062 133.043,71.735 C131.764,74.356 129.92,77.4 128.945,78.5 C126.465,81.298 121,91.497 121,93.328 C121,94.163 119.949,96.119 118.665,97.673 C117.38,99.228 115.194,103.473 113.806,107.106 C112.418,110.739 109.194,116.699 106.641,120.351 C104.088,124.003 102,127.356 102,127.801 C102,128.247 100.875,130.136 99.5,132 C95.054,138.026 96.284,138.392 105.877,133.897 C113.749,130.209 114.604,129.777 127.5,122.969 C133,120.065 138.727,116.783 140.227,115.674 C142.538,113.965 143.349,113.838 145.545,114.839 C148.826,116.333 148.536,119.711 144.939,121.924 C143.53,122.791 138.411,126.2 133.562,129.5 C123.305,136.481 123.152,136.568 112,141.798 C94.759,149.884 93.094,150.291 89.71,147.25 C87.844,145.574 87.699,145.595 86.259,147.75 C84.494,150.393 79.271,150.87 78.351,148.473 C77.787,147.003 78.793,145.221 87.17,132.841 C89.277,129.729 91,126.939 91,126.641 C91,126.344 92.458,123.94 94.24,121.3 C97.883,115.904 111,90.556 111,88.913 C111,88.328 112.8,84.767 115,81 C117.2,77.233 119,73.667 119,73.076 C119,71.274 115.423,71.875 113.5,74 C112.505,75.1 110.747,76.035 109.595,76.079 C108.443,76.122 105.475,77.448 103,79.026 C100.525,80.603 96.481,82.84 94.012,83.996 C85.487,87.989 85.276,88.432 84.565,103.832 C84.217,111.349 83.475,119.3 82.915,121.5 C80.961,129.182 77.634,139.51 76.724,140.719 C76.22,141.389 75.655,143.571 75.469,145.567 C75.284,147.563 74.484,149.94 73.693,150.848 C72.901,151.757 71.97,154.075 71.623,156 C71.277,157.925 69.87,161.714 68.497,164.419 C67.123,167.125 66,169.907 66,170.601 C66,171.296 64.682,174.482 63.07,177.682 C61.459,180.882 58.505,186.875 56.506,191 C54.507,195.125 52.501,199.175 52.048,200 C51.595,200.825 48.811,206.388 45.862,212.362 C42.913,218.336 39.45,224.055 38.166,225.072 C36.882,226.088 34.632,229.301 33.166,232.21 C31.018,236.471 29.953,237.563 27.689,237.822 C24.404,238.199 22,236.534 22,233.883 C22,232.853 24.241,229.229 26.98,225.829 C29.72,222.43 32.486,218.058 33.127,216.114 C33.769,214.17 35.721,210.311 37.466,207.54 C39.21,204.768 41.264,200.925 42.03,199 C42.796,197.075 44.902,192.869 46.711,189.654 C48.52,186.439 50,183.596 50,183.338 C50,183.08 52.025,178.829 54.5,173.893 C56.975,168.957 59,164.486 59,163.959 C59,162.47 57.217,162.828 55.789,164.604 C55.08,165.486 52.45,168.523 49.944,171.354 C47.438,174.184 43.858,178.525 41.988,181 C36.16,188.713 22.72,202 20.747,202 C17.462,202 15,200.045 15,197.436 C15,195.566 19.487,190.263 32.953,176.221 C42.827,165.925 54.056,154.832 57.907,151.571 C65.208,145.387 67.1,142.252 70.318,131 C72.031,125.011 72.561,121.16 73.968,104.5 C74.565,97.423 74.549,93.152 73.922,92.524 C73.29,91.89 71.25,92.152 68.097,93.272 C64.779,94.45 61.825,94.801 58.754,94.38 C55.892,93.987 54.013,94.17 53.573,94.882 C52.262,97.003 47.462,96.092 44.687,93.195 C43.209,91.653 42,89.863 42,89.218 C42,86.64 47.099,84.836 57.036,83.901 C62.63,83.375 68.398,82.353 69.853,81.629 C71.309,80.905 75.425,79.516 79,78.541 C85.482,76.774 97.913,71.177 105.5,66.611 C107.7,65.287 114.675,60.997 121,57.077 C127.325,53.158 133.85,49.262 135.5,48.42 C137.15,47.578 141.2,45.142 144.5,43.006 Z M109.756,154.75 C111.497,152.789 114.209,152.506 116.991,153.995 C119.301,155.231 124,164.958 124,168.504 C124,169.949 124.459,171.99 125.021,173.039 C126.737,176.245 127.819,183.89 128.476,197.428 C128.82,204.538 129.322,210.712 129.59,211.146 C129.859,211.581 129.408,214.505 128.589,217.643 C127.769,220.782 127.326,223.718 127.603,224.167 C128.449,225.535 126.07,240.153 124.486,243.329 C123.669,244.967 123,247.563 123,249.098 C123,252.447 119.457,256.703 116,257.505 C111.063,258.651 99.04,244.461 99.009,237.45 C99.004,236.323 98.493,234.893 97.873,234.273 C96.127,232.527 97.676,228 100.019,228 C101.166,228 102,228.672 102,229.596 C102,230.473 103.013,232.591 104.25,234.302 C105.487,236.013 107.233,239.232 108.13,241.456 C109.37,244.533 110.308,245.5 112.054,245.5 C113.997,245.5 114.566,244.657 115.766,240 C117.349,233.857 118.94,214.184 118.475,206.5 C118.309,203.75 118.127,199.25 118.071,196.5 C117.921,189.098 116.959,188.167 112.764,191.366 C110.865,192.815 108.402,194 107.29,194 C106.179,194 104.197,194.828 102.885,195.841 C101.573,196.853 98.42,198.887 95.878,200.361 C91.796,202.727 91.186,203.535 90.659,207.27 C90.331,209.597 89.771,212.738 89.415,214.25 C88.559,217.88 89.694,217.749 96.163,213.469 C101.96,209.633 105.168,208.467 107.481,209.354 C109.744,210.223 108.426,212.264 102.865,216.505 C99.806,218.838 95.486,223.816 91.928,229.107 C88.693,233.918 85.189,238.455 84.14,239.189 C83.092,239.924 81.207,242.708 79.953,245.377 C78.634,248.182 76.37,251.023 74.586,252.111 C70.701,254.48 70.32,254.466 68.95,251.906 C68.048,250.22 68.187,249.39 69.664,247.656 C72.536,244.284 73.696,241.76 74.463,237.217 C74.854,234.903 75.585,232.757 76.087,232.446 C76.589,232.136 77,230.531 77,228.879 C77,227.227 77.664,223.766 78.475,221.188 C81.055,212.982 82.805,197.118 81.968,189.5 C81.546,185.65 81.387,182.194 81.615,181.821 C81.843,181.448 81.479,179.083 80.806,176.566 C79.743,172.589 79.798,171.774 81.225,170.346 C82.635,168.937 83.305,168.884 85.934,169.973 C87.62,170.671 89,171.962 89,172.842 C89,173.722 89.552,176.817 90.227,179.721 C91.865,186.767 94.342,186.954 96.352,180.185 C98.106,174.281 106.414,158.515 109.756,154.75 Z M164.709,148.624 C167.594,145.739 172.747,152.377 175.479,162.5 C176.221,165.25 177.744,170.2 178.862,173.5 C182.569,184.443 183.285,194.47 182.719,227.517 C182.344,249.416 181.704,261.432 180.535,268.5 C179.626,274 178.471,281.65 177.969,285.5 C176.652,295.597 176.399,298.692 174.848,299.623 C174.019,300.12 172.82,300 170.891,300 C166.454,300 166,299.786 166,297.7 C166,296.435 166.379,294.973 166.842,294.45 C167.306,293.928 168.424,289 169.328,283.5 C170.231,278 171.514,270.575 172.178,267 C173.869,257.905 174.459,204.933 172.997,193.5 C171.807,184.185 170.523,177.954 169.083,174.5 C166.467,168.225 166,166.637 166,164.012 C166,162.42 165.55,160.84 165,160.5 C163.868,159.8 163.621,149.713 164.709,148.624 Z M123.25,98.623 C125.075,97.83 135.785,98.596 141,99.893 C148.395,101.732 155.015,102.996 164,104.283 C168.675,104.953 172.95,105.778 173.5,106.116 C174.05,106.455 176.667,106.752 179.316,106.776 C182.777,106.809 185.239,107.554 188.066,109.425 C190.23,110.857 192,112.402 192,112.859 C192,114.278 188.687,116.617 184.23,118.345 C178.55,120.546 177.319,120.446 173.818,117.5 C171.716,115.731 169.626,114.988 166.673,114.96 C159.733,114.894 133.464,109.281 128.709,106.849 C127.724,106.345 126.523,106.177 126.04,106.475 C124.646,107.337 122,104.086 122,101.512 C122,100.222 122.563,98.922 123.25,98.623 Z M140.064,158.423 C140.714,157.64 141.629,157 142.098,157 C143.905,157 149.538,164.366 150.767,168.336 C152.156,172.822 152.855,213.808 151.577,215.875 C150.46,217.683 145.465,217.171 143.547,215.052 C142.031,213.377 141.878,211.937 142.459,204.802 C143.426,192.903 143.167,185.359 141.553,178.5 C139.366,169.205 138.689,160.08 140.064,158.423 Z M105.035,13.934 C106.751,10.729 112.025,11.382 115.67,15.25 C119.283,19.085 121,23.688 121,29.541 C121,32.851 120.286,34.652 117.75,37.732 C111.942,44.787 100,52.469 100,49.15 C100,48.683 101.342,46.321 102.982,43.9 C104.622,41.48 105.972,39.115 105.982,38.644 C105.992,38.174 107.125,36.452 108.5,34.818 C111.819,30.873 111.66,29.112 107.51,23.891 C103.851,19.288 103.318,17.143 105.035,13.934 Z M125.175,282.59 C126.423,281.716 128.84,281 130.544,281 C134.867,281 142.455,283.74 144.554,286.06 C145.52,287.127 146.717,288 147.215,288 C148.883,288 157.485,295.12 158.782,297.574 L160.064,300 L154.219,300 C149.013,300 148.056,299.668 145.461,296.959 C141.111,292.419 134.035,288.284 129.308,287.521 C123.74,286.622 122.142,284.715 125.175,282.59 Z M38.457,140.476 C42.526,136.638 46.159,136.022 49.777,138.557 C51,139.413 52,140.846 52,141.742 C52,143.658 48.17,148 46.481,148 C45.837,148 44.495,148.9 43.5,150 C40.217,153.628 36.855,152.256 35.466,146.72 C34.879,144.38 35.341,143.415 38.457,140.476 Z M104.1,176.581 C97.055,184.29 97.268,187.687 104.564,183.968 C106.686,182.885 109.692,182 111.243,182 C114.834,182 115.63,179.939 113.975,174.926 C112.201,169.548 110.225,169.88 104.1,176.581 Z"/>
</svg>

