<svg xmlns="http://www.w3.org/2000/svg" width="300" height="300" viewBox="0 0 300 300" version="1.1">
  <defs/>
  <path d="M152.449,118.958 C155.989,117.524 162.226,117.895 164.171,119.655 C166.967,122.185 166.622,130.37 163.488,135.852 C162.054,138.36 161,141.792 161,143.952 C161,149.285 156.048,156 152.116,156 C150.537,156 148.669,155.306 147.965,154.458 C147.11,153.427 146.352,153.248 145.683,153.917 C145.013,154.587 145.585,156.285 147.404,159.034 C149.474,162.162 149.972,163.849 149.484,166.075 C148.745,169.436 151.114,171.119 153.886,169.202 C159.086,165.607 176.971,156.096 179.528,155.566 C185.183,154.394 189.335,161.02 185.178,164.58 C184.176,165.438 180.275,167.216 176.51,168.532 C172.745,169.847 169.403,171.278 169.083,171.712 C168.762,172.145 165.882,173.809 162.682,175.408 C154.346,179.575 147.389,186.114 146.553,190.567 C145.866,194.229 142.905,200.249 140.399,203.079 C139.629,203.947 139,205.139 139,205.728 C139,206.317 137.425,209.139 135.5,212 C133.575,214.861 132,217.761 132,218.446 C132,219.13 131.063,220.538 129.917,221.575 C128.772,222.611 127.242,224.819 126.516,226.48 C125.791,228.141 124.028,230.718 122.599,232.206 C121.17,233.695 120,235.304 120,235.782 C120,236.26 118.866,237.716 117.481,239.018 C116.095,240.32 113.573,243.548 111.877,246.192 C110.167,248.856 108.03,251 107.083,251 C106.143,251 104.081,252.35 102.5,254 C100.919,255.65 99.09,257 98.435,257 C97.781,257 96.685,257.675 96,258.5 C94.14,260.741 87.805,260.399 85.138,257.914 C82.355,255.321 83.528,253.499 88.59,252.549 C93.296,251.666 99.727,246.682 104.552,240.178 C106.723,237.251 109.443,233.651 110.596,232.178 C114.102,227.698 120,219.059 120,218.404 C120,218.065 121.278,216.148 122.841,214.144 C126.68,209.219 133.131,197.021 132.466,195.944 C131.726,194.748 127.315,196.558 123.835,199.485 C118.213,204.216 92.971,215.946 88.321,215.989 C86.388,216.007 84,213.019 84,210.584 C84,207.555 86.455,205.497 92.5,203.458 C95.25,202.53 100.425,200.08 104,198.013 C107.575,195.946 114.157,192.44 118.627,190.223 C123.097,188.005 128.677,184.798 131.027,183.095 C133.377,181.393 135.877,180 136.583,180 C138.529,180 139.026,177.229 138.618,168.653 C138.203,159.93 137.295,158.174 134.199,160.108 C132.542,161.142 131.865,161.133 130.569,160.057 C129.584,159.24 129.311,158.308 129.853,157.617 C130.335,157.003 130.973,154.588 131.27,152.25 C131.746,148.505 131.575,148 129.839,148 C128.755,148 126.97,148.481 125.871,149.069 C124.116,150.008 123.954,150.782 124.536,155.438 C125.119,160.11 124.933,160.984 122.967,162.816 C120.844,164.794 120.623,164.812 118.4,163.197 C116.974,162.162 116.051,160.453 116.031,158.815 C115.976,154.119 114.09,150.614 109.357,146.417 C105.632,143.112 104.687,141.594 104.406,138.458 C104.019,134.149 105.019,133.039 109.306,133.015 C111.379,133.004 113.366,134.307 116.907,138 C119.543,140.75 122.106,142.974 122.6,142.943 C123.095,142.912 125.71,140.168 128.411,136.845 C132.879,131.35 146.047,121.551 152.449,118.958 Z M126.249,53 C143.979,44.2 159.579,37 160.914,37 C165.562,37 168.801,42.26 165.725,44.813 C165.024,45.395 162.212,46.597 159.475,47.486 C153.677,49.368 150.818,50.658 146,53.569 C144.075,54.732 136.65,58.732 129.5,62.46 C122.35,66.187 115.825,69.781 115,70.446 C114.175,71.112 111.127,72.395 108.228,73.298 C105.279,74.217 101.956,76.102 100.687,77.578 C98.663,79.93 98.5,80.825 99.173,85.858 C99.588,88.961 100.179,96.675 100.486,103 C100.793,109.325 101.242,115.711 101.485,117.19 C102.106,120.977 100.257,136.143 99.024,137.376 C98.461,137.939 98,139.863 98,141.651 C98,145.566 96.04,153.034 92.528,162.5 C88.36,173.734 80.447,190.565 78.273,192.821 C77.573,193.548 76.999,194.673 76.997,195.321 C76.987,198.802 57.306,223 54.485,223 C53.839,223 52.536,223.855 51.59,224.901 C49.415,227.304 43.347,228.533 41.445,226.955 C39.339,225.207 41.136,222.759 46.581,219.959 C54.356,215.96 62.849,204.883 71.516,187.436 C75.632,179.15 79,171.703 79,170.886 C79,170.069 79.369,168.973 79.82,168.45 C81.209,166.842 85.781,154.875 87.824,147.5 C91.006,136.012 92.326,124.292 91.604,113.941 C91.242,108.748 90.681,99.853 90.357,94.174 C89.953,87.103 89.36,83.692 88.474,83.352 C87.763,83.079 84.735,84.013 81.744,85.428 C78.754,86.843 75.557,88 74.64,88 C73.723,88 72.191,88.45 71.236,89 C70.281,89.55 65.916,91.107 61.536,92.461 C54.175,94.737 53.438,94.801 51.786,93.307 C47.476,89.406 51.296,82.642 58.358,81.675 C62.312,81.133 67.082,79.484 72.236,76.878 C73.191,76.395 74.862,76 75.948,76 C77.035,76 81.242,74.425 85.297,72.5 C89.353,70.575 92.973,69 93.341,69 C93.71,69 108.518,61.8 126.249,53 Z M148.25,202.977 C152.82,201.029 162.769,202.96 169,207.003 C169.825,207.539 174.325,209.667 179,211.733 C183.675,213.799 189.75,216.744 192.5,218.277 C195.25,219.81 200.425,222.404 204,224.042 C212.242,227.817 213.33,228.441 222.228,234.5 C226.266,237.25 230.274,239.95 231.135,240.5 C237.258,244.411 241.216,247.329 246,251.459 C249.025,254.07 253.265,257.34 255.423,258.725 C262.695,263.393 269,270.03 269,273.014 C269,276.88 266.921,278.263 262.39,277.413 C259.466,276.865 256.607,274.741 249.564,267.885 C241.1,259.647 233.405,253.391 226.642,249.25 C225.07,248.288 220.12,245.076 215.642,242.114 C205.808,235.608 170.876,217 168.497,217 C167.822,217 166.197,216.167 164.885,215.149 C163.573,214.13 161.375,213.036 160,212.718 C151.934,210.847 148.435,209.776 147.289,208.825 C145.266,207.146 145.778,204.03 148.25,202.977 Z M127.009,69.95 C128.379,69.6 130.283,69.707 131.24,70.187 C134.025,71.584 136.253,76.837 135.581,80.42 C135.214,82.375 135.499,84.3 136.321,85.424 C137.581,87.147 137.992,87.021 143.619,83.18 C150.662,78.372 154.58,76.732 157.106,77.534 C159.927,78.429 163,82.935 163,86.177 C163,91.72 157.278,101.587 147.509,112.887 C137.132,124.891 136.545,125.423 134.542,124.654 C133.511,124.259 134.212,122.108 137.424,115.816 C142.869,105.148 144.13,102.942 146.176,100.5 C147.098,99.4 148.159,97.263 148.534,95.75 C149.538,91.704 146.587,92.136 142.665,96.608 C138.762,101.058 129.375,107.218 127.147,106.792 C126.241,106.618 124.6,104.801 123.5,102.753 C121.831,99.645 121.707,98.699 122.75,97.029 C123.438,95.928 124,94.148 124,93.073 C124,91.998 124.45,90.84 125,90.5 C126.604,89.509 126.153,82.067 124.299,78.928 C122.103,75.211 123.414,70.868 127.009,69.95 Z M52.159,126.461 C54.848,125.807 58.909,125.724 62.982,126.24 C66.567,126.695 71.412,126.799 73.75,126.472 C77.162,125.995 78,126.18 78,127.412 C78,129.714 73.983,136.326 69.711,141.055 C65.847,145.332 63,149.993 63,152.04 C63,152.667 60.527,155.951 57.504,159.34 C54.482,162.728 52.007,165.872 52.004,166.326 C52.002,166.78 50.041,169.705 47.646,172.826 C45.251,175.947 42.58,179.884 41.71,181.575 C39.827,185.239 32.591,192 30.554,192 C28.767,192 26,188.186 26,185.723 C26,183.167 32.893,173.383 38.485,168 C43.795,162.89 57,146.698 57,145.298 C57,144.79 58.35,143.081 60,141.5 C65.426,136.302 62.859,133.376 55.896,136.822 C50.945,139.271 50.003,138.976 47.794,134.287 C45.603,129.634 46.62,127.81 52.159,126.461 Z M108.134,14.338 C109.072,13.208 110.673,12.906 114.02,13.228 C123.886,14.176 134.322,26.69 130.82,33.373 C129.016,36.817 119.273,45 116.977,45 C114.441,45 113.705,43.49 115.511,41.991 C116.33,41.311 117,39.98 117,39.033 C117,38.085 117.9,36.495 119,35.5 C123.291,31.617 120.875,27.245 111.952,22.745 C107.191,20.344 105.762,17.197 108.134,14.338 Z M150.872,131.655 C150.118,132.565 148.053,133.915 146.284,134.654 C143.071,135.997 136,142.342 136,143.881 C136,144.33 137.819,145.517 140.043,146.519 C143.689,148.163 144.238,148.191 145.631,146.798 C146.9,145.528 146.954,144.898 145.93,143.259 C143.912,140.029 145.408,138 149.808,138 C152.986,138 153.887,137.544 154.839,135.453 C155.478,134.052 156,132.252 156,131.453 C156,129.478 152.566,129.613 150.872,131.655 Z"/>
</svg>

