<svg xmlns="http://www.w3.org/2000/svg" width="300" height="300" viewBox="0 0 300 300" version="1.1">
  <defs/>
  <path d="M154.667,70.667 C155.831,69.502 159.479,69.946 161.738,71.529 C162.971,72.393 164.223,74.675 164.617,76.779 C165,78.825 165.86,81.85 166.527,83.5 C168.409,88.155 168.353,105.965 166.432,113.624 C163.403,125.701 165.74,124.779 184.279,106.581 C192.175,98.831 195.728,96 197.561,96 C203.856,96 200.634,104.255 190.7,113.574 L183.712,120.129 L184.556,128.815 C185.936,143.017 185.146,158.206 182.428,169.708 C180.9,176.174 179.708,179.745 180.194,183.07 C181.003,188.606 186.459,193.462 202.75,209.867 C215.262,222.466 228.65,236.735 232.5,241.576 C241.665,253.1 254.078,265.489 258.949,267.974 C261.084,269.063 263.8,271.315 264.984,272.977 C266.168,274.64 267.708,276 268.408,276 C270.361,276 271.969,280.469 271.136,283.584 C270.213,287.036 268.025,288.474 264.891,287.688 C261.202,286.762 228.102,255.261 228.026,252.603 C228.004,251.849 223.178,245.464 219.521,241.352 C218.959,240.721 215.125,236.162 211,231.221 C206.875,226.28 202.516,221.621 201.313,220.869 C200.111,220.116 194.13,214.622 188.022,208.659 C176.516,197.427 174.588,196.507 173.446,201.707 C172.747,204.89 171.425,208.153 167.649,216.016 C166.192,219.05 165,222.257 165,223.143 C165,224.03 164.325,225.315 163.5,226 C162.675,226.685 162,228.47 162,229.967 C162,231.465 161.1,233.505 160,234.5 C158.9,235.495 158,236.728 158,237.239 C158,239.031 149.051,249.539 145.979,251.353 C144.039,252.499 141.963,252.957 140.438,252.574 C138.442,252.073 138,251.335 138,248.501 C138,245.513 138.512,244.776 141.75,243.103 C143.813,242.038 146.138,240.116 146.918,238.833 C151.029,232.068 154.062,225.827 156.069,220 C157.3,216.425 158.883,212.6 159.585,211.5 C160.287,210.4 161.817,206.575 162.984,203 C164.152,199.425 165.533,195.719 166.053,194.764 C168.499,190.277 167.263,188.086 156.408,177.679 C145.213,166.945 141.312,161.155 143.066,157.876 C144.111,155.924 145.338,155.67 148.18,156.82 C149.795,157.474 159.431,166.519 165.335,172.924 C169.322,177.25 172,177.053 172,172.434 C172,170.473 172.45,168.029 172.999,167.002 C174.372,164.437 175.144,149.144 174.376,139.75 C173.839,133.191 173.465,132 171.943,132 C170.954,132 169.207,133.192 168.061,134.65 C161.834,142.566 150.565,141.287 154.915,133.159 C155.418,132.218 156.575,125.289 157.487,117.761 C158.872,106.309 158.953,102.474 157.977,94.286 C157.336,88.904 156.179,82.983 155.406,81.128 C153.934,77.598 153.525,71.808 154.667,70.667 Z M133.041,147.619 C136.747,144.501 137.19,144.447 139.369,146.855 C141.447,149.151 140.873,150.925 135.865,157.692 C132.342,162.453 132.074,163.264 132.647,167.442 C133.216,171.592 133.517,172 136.013,172 C139.658,172 141.842,174.541 140.168,176.834 C136.967,181.219 133.979,189.519 133.537,195.258 C133.272,198.691 132.769,203.188 132.419,205.25 C131.901,208.292 132.085,209 133.388,209 C135.399,209 143.229,203.294 148.473,198.006 C152.767,193.676 155.305,193.061 158.171,195.655 C160.33,197.608 160.43,198.394 158.75,200.204 C158.063,200.945 155.258,204.014 152.517,207.025 C147.645,212.378 144.181,215.464 138.518,219.5 C136.974,220.6 134.254,222.738 132.474,224.25 C130.693,225.763 128.874,227 128.432,227 C127.99,227 126.7,227.812 125.564,228.803 C121.898,232.007 111.593,237.747 108.209,238.472 C100.933,240.031 99.614,233.681 106.25,229.041 C116.251,222.048 119,219.664 119,217.985 C119,217.006 120.12,214.246 121.488,211.852 C123.17,208.91 123.98,205.961 123.988,202.75 C124.002,197.144 122.459,196.554 119.5,201.033 C118.4,202.698 116.484,204.321 115.243,204.64 C112.508,205.343 108.41,202.868 107.486,199.955 C106.717,197.532 109.373,194 111.964,194 C112.874,194 115.954,191.749 118.809,188.997 C123.563,184.415 124,183.612 124,179.465 C124,173.558 122.227,172.924 116.821,176.9 C110.177,181.786 107,180.686 107,173.5 C107,168.762 108.349,167 111.977,167 C113.395,167 115.668,166.251 117.027,165.335 C120.394,163.067 126.844,156.083 128.54,152.869 C129.303,151.422 131.329,149.06 133.041,147.619 Z M69.162,82.305 C70.607,80.563 70.983,80.636 73.686,83.174 C74.958,84.37 76,86.425 76,87.74 C76,89.055 76.478,91.024 77.062,92.116 C79.647,96.946 77.818,128.642 74.501,136.5 C73.804,138.15 72.676,141.975 71.993,145 C71.31,148.025 70.383,151.625 69.933,153 C69.482,154.375 68.612,158.2 67.999,161.5 C67.012,166.813 65.858,170.118 62.853,176.236 C62.384,177.191 62,178.852 62,179.927 C62,181.002 61.602,182.128 61.115,182.429 C60.629,182.729 60.005,184.219 59.73,185.738 C59.454,187.257 58.66,190.075 57.965,192 C57.27,193.925 56.395,196.4 56.02,197.5 C54.75,201.233 46.458,217.355 37.17,234.155 C32.801,242.056 23.461,251 19.578,251 C15.254,251 14.898,243.279 19.129,241.261 C22.492,239.657 25.835,235.242 31.155,225.379 C45.376,199.014 45.703,198.335 49.401,187.5 C50.902,183.1 52.495,178.6 52.941,177.5 C53.386,176.4 54.506,172.8 55.429,169.5 C56.352,166.2 57.505,162.6 57.992,161.5 C58.478,160.4 59.601,155.746 60.487,151.158 C61.373,146.57 62.476,142.07 62.937,141.158 C64.67,137.732 67.251,124.137 66.635,121.681 C66.282,120.276 66.632,116.391 67.412,113.047 C68.471,108.509 68.568,106.022 67.795,103.234 C66.59,98.884 67.546,84.252 69.162,82.305 Z M89.805,94.75 C91.786,92.447 94.533,92.533 96.975,94.975 C99.968,97.968 100.532,101.816 98.731,106.958 C97.856,109.456 97.376,112.685 97.664,114.133 C97.953,115.581 97.696,117.07 97.094,117.442 C96.492,117.814 96,119.865 96,122 C96,124.135 95.586,126.138 95.081,126.45 C94.575,126.762 93.671,129.308 93.071,132.107 C92.028,136.967 92.092,137.285 94.495,139.175 C98.931,142.664 100,144.091 100,146.522 C100,147.83 99.395,149.26 98.655,149.7 C97.916,150.14 96.488,152.75 95.483,155.5 C94.478,158.25 93.171,161.123 92.578,161.884 C91.985,162.645 90.6,164.973 89.5,167.057 C84.161,177.173 82.027,180.733 80.578,181.935 C78.315,183.813 78.633,186.737 81.25,188.111 C82.487,188.76 83.86,189.901 84.3,190.646 C84.74,191.391 85.722,192 86.482,192 C87.978,192 88.523,193.324 89.573,199.5 C89.947,201.7 90.904,204.247 91.699,205.159 C92.964,206.61 92.941,207.213 91.516,209.97 C90.208,212.499 89.353,213.06 87.193,212.811 C84.587,212.51 84.06,211.794 79.979,203 C79.591,202.164 77.282,201.212 74.763,200.85 C65.234,199.481 64.202,197.239 68.903,188.127 C70.499,185.032 72.32,181.375 72.95,180 C74.578,176.448 78.196,169.875 80.25,166.741 C82.557,163.22 82.533,160 80.2,160 C74.573,160 74.602,153.596 80.285,140.909 C81.17,138.934 82.865,133.309 84.051,128.409 C85.237,123.509 86.618,118.1 87.118,116.389 C87.619,114.678 88.09,109.503 88.164,104.889 C88.259,99.02 88.752,95.974 89.805,94.75 Z M120.607,83.582 C122.765,77.959 132,88.056 132,96.038 C132,99.399 132.316,100.086 133.735,99.813 C134.862,99.596 135.68,98.186 136.069,95.792 C136.754,91.575 138.546,89 140.794,89 C142.969,89 146,91.967 146,94.096 C146,95.078 146.505,96.194 147.122,96.575 C149.624,98.121 145.538,116.465 141.756,120.668 C140.296,122.291 139.974,123.604 140.476,125.889 C141.008,128.313 140.582,129.681 138.409,132.53 C136.904,134.503 134.509,136.749 133.086,137.521 C131.664,138.293 128.7,140.528 126.5,142.487 C121.546,146.9 115.779,148.892 113.481,146.984 C111.244,145.128 111.907,139.029 114.5,137.601 C117.19,136.12 125.421,129.25 131.25,123.621 C134.443,120.537 136,118.209 136,116.517 C136,112.798 133.381,113.395 131.402,117.565 C129.445,121.69 121.687,128.007 118.606,127.985 C115.631,127.963 114.648,127.129 111.241,121.737 C108.466,117.345 108.272,116.451 108.743,110.237 C109.276,103.189 110.951,100 114.12,100 C116.706,100 117.947,102.973 117.319,107.661 C116.793,111.582 118.172,116 119.922,116 C120.876,116 121.883,111.864 122.671,104.703 C123.006,101.661 122.614,98.116 121.6,95.015 C119.915,89.865 119.598,86.211 120.607,83.582 Z M137.737,36.983 C145.675,32.35 148.134,32.084 150.871,35.564 C152.823,38.045 152.831,38.229 151.123,41.287 C149.992,43.311 148.305,44.671 146.429,45.069 C143.359,45.721 127.74,52.175 117.5,57.022 C109.241,60.932 104.351,63 103.368,63 C102.912,63 100.28,63.867 97.519,64.928 C94.759,65.988 89.8,67.608 86.5,68.527 C83.2,69.447 79.15,70.623 77.5,71.142 C75.85,71.66 68.875,72.677 62,73.402 C51,74.562 49.29,74.538 47.75,73.205 C46.788,72.372 46,70.72 46,69.534 C46,67.291 49.335,63 51.078,63 C55.487,63 73.102,60.525 80,58.936 C93.06,55.929 114.429,48.311 120.59,44.467 C121.74,43.75 124.547,42.661 126.827,42.047 C129.107,41.433 134.017,39.154 137.737,36.983 Z M46.197,155.087 C50.925,151.61 51.145,151.545 52.774,153.174 C54.14,154.54 49.738,163.082 44.579,169.077 C42.885,171.044 40.825,173.668 40,174.908 C39.175,176.148 36.008,179.794 32.962,183.01 C29.917,186.227 26.421,190.868 25.195,193.324 C22.92,197.878 17.333,203 14.639,203 C12.861,203 9,198.363 9,196.227 C9,194.484 12.691,190.3 29.673,172.79 C36.453,165.8 42,159.651 42,159.127 C42,158.602 43.889,156.784 46.197,155.087 Z M93.597,6.844 C93.883,6.38 96.028,6 98.363,6 C101.854,6 103.177,6.587 105.814,9.308 C113.071,16.795 114.833,24.73 110.5,30.411 C109.125,32.214 108,34.174 108,34.767 C108,36.014 101.456,38.4 100.186,37.615 C99.142,36.97 99.889,31.186 101.115,30.429 C101.602,30.128 102,28.2 102,26.144 C102,23.119 101.259,21.682 98.116,18.614 C94.458,15.041 92.186,9.126 93.597,6.844 Z M33.899,136.431 C34.755,135.571 42.151,136.88 43.7,138.166 C45.688,139.816 45.192,143.315 42.717,145.109 C41.451,146.027 37.27,147.021 32.982,147.423 C25.844,148.092 25.352,148.003 23.152,145.661 C21.741,144.16 20.965,142.278 21.168,140.849 C21.459,138.791 22.226,138.412 27.399,137.768 C30.644,137.365 33.569,136.763 33.899,136.431 Z"/>
</svg>

