<svg xmlns="http://www.w3.org/2000/svg" width="300" height="300" viewBox="0 0 300 300" version="1.1">
  <defs/>
  <path d="M116.249,145.698 C120.492,143.402 122.156,143.016 125.463,143.557 C129.958,144.293 133,146.467 133,148.944 C133,149.842 133.934,152.36 135.075,154.539 C137.228,158.647 138.283,163.554 140.122,178 C140.717,182.675 141.81,188.538 142.55,191.03 C143.462,194.099 144.076,204.416 144.452,223.03 L145.007,250.5 L148.504,252.765 C152.164,255.135 152.393,255.783 151.375,260.875 C150.962,262.938 150.159,264 149.01,264 C148.053,264 146.086,264.931 144.638,266.07 C141.383,268.63 137.923,268.251 136.391,265.166 C134.401,261.16 133.385,260.602 130.306,261.826 C128.763,262.439 123,263.395 117.5,263.95 C102.39,265.475 90.63,267.607 86.485,269.574 C78.772,273.234 77.321,268.744 79.03,246.5 C79.706,237.7 80.312,217.45 80.377,201.5 C80.475,177.242 80.226,171.601 78.85,167 C75.076,154.378 75.543,151 81.063,151 C84.486,151 84.841,151.528 86.66,159.335 C90.056,173.913 91.03,181.673 90.506,190 C89.943,198.952 89.424,210.295 88.39,236.254 C87.682,254.03 88.107,255.576 93.436,254.58 C95.121,254.265 100.775,253.783 106,253.509 C118.756,252.839 133.212,250.942 134.75,249.736 C137.142,247.859 135.962,212 133.508,212 C132.849,212 131.495,212.9 130.5,214 C129.505,215.1 128.042,216 127.25,216 C125.532,216 116.554,220.835 110.37,225.09 C105.404,228.506 99.733,229.853 97.637,228.113 C95.781,226.574 94.782,219.967 96.155,218.313 C96.754,217.591 98.005,217 98.935,217 C99.864,217 104.196,214.989 108.562,212.531 C123.056,204.372 127.105,202.727 129.74,203.927 C131.035,204.517 132.523,205 133.047,205 C134.31,205 134.252,200.114 132.897,192.332 C131.658,185.212 130.003,184.24 126.135,188.356 C124.917,189.652 121.445,191.966 118.418,193.497 C115.391,195.029 111.472,197.94 109.707,199.968 C103.962,206.57 100,206.367 100,199.47 C100,194.491 102.811,190.47 108.792,186.894 C110.832,185.674 113.4,183.88 114.5,182.906 C115.6,181.933 119.356,179.721 122.848,177.992 C129.156,174.867 129.192,174.825 128.699,171.174 C127.35,161.185 124.521,155 121.301,155 C119.007,155 101.629,172.049 99.84,176.054 C98.048,180.064 96.471,181.571 95.578,180.126 C94.75,178.786 98.64,161.142 100.178,159.262 C103.867,154.755 111.645,148.189 116.249,145.698 Z M119.5,65.539 C122.25,63.66 124.822,62.095 125.215,62.061 C126.826,61.923 127.834,65.803 127.068,69.197 C125.944,74.184 125.507,74.697 119.499,78.088 C116.564,79.744 113.621,81.752 112.959,82.55 C112.297,83.347 111.336,84 110.824,84 C110.312,84 106.78,86.515 102.975,89.59 C97.233,94.229 95.961,95.802 95.491,98.84 C95.18,100.853 94.508,104.048 93.998,105.94 C93.374,108.255 93.426,109.809 94.158,110.69 C95.685,112.531 97.027,112.336 101.018,109.697 C102.933,108.43 107.425,106.126 111,104.576 C114.575,103.027 118.985,101.076 120.8,100.242 C125.166,98.235 129,99.772 129,103.53 C129,105.574 128.23,106.405 125.25,107.575 C123.188,108.386 120.825,109.48 120,110.007 C119.175,110.534 116.689,111.838 114.475,112.905 C112.262,113.972 109.604,115.78 108.57,116.922 C107.536,118.065 106.349,119 105.932,119 C105.516,119 102.786,120.573 99.866,122.496 C93.789,126.499 88.702,127.827 86.489,125.991 C84.502,124.342 84.508,113.309 86.5,105.661 C87.325,102.494 88,99.699 88,99.451 C88,98.527 84.696,99.056 78.687,100.942 C67.717,104.386 62.512,105.671 61.242,105.247 C59.613,104.704 59.637,98.546 61.275,97.187 C61.976,96.605 64.788,95.378 67.525,94.46 C70.261,93.542 73.21,92.163 74.079,91.396 C74.947,90.628 76.163,90 76.781,90 C78.696,90 102.606,77.272 108.712,73.002 C111.896,70.777 116.75,67.418 119.5,65.539 Z M101.194,30.266 C103.426,27.577 112.634,30.693 113.578,34.456 C114.78,39.243 113.618,52.658 111.83,54.648 C110.915,55.667 109.11,58.525 107.818,61 C106.527,63.475 104.802,65.5 103.985,65.5 C101.873,65.5 101.597,60.901 103.444,56.481 C105.342,51.936 105.453,44.391 103.671,40.976 C100.796,35.468 99.942,31.775 101.194,30.266 Z"/>
</svg>

