<svg xmlns="http://www.w3.org/2000/svg" width="300" height="300" viewBox="0 0 300 300" version="1.1">
  <defs/>
  <path d="M170.961,51.073 C172.994,47.274 178,49.404 178,54.067 C178,55.716 178.652,58.625 179.449,60.532 C181.109,64.506 183.061,64.892 188.466,62.315 C191.744,60.752 192.247,60.748 195.415,62.258 C199.425,64.17 200.687,67.202 199,70.869 C194.362,80.949 192.306,83.826 188.25,85.913 C186.452,86.838 186,87.923 186,91.313 C186,93.646 185.364,96.463 184.586,97.574 C183.809,98.684 182.94,102.946 182.655,107.046 C182.094,115.136 180.628,125.234 179.521,128.637 C178.373,132.167 180.761,132.349 185.217,129.072 C187.514,127.382 190.318,126.002 191.447,126.004 C194.441,126.009 199.28,129.261 200.946,132.387 C203.06,136.355 200.966,152.199 197.509,158.391 C196.129,160.863 195,163.784 195,164.883 C195,165.983 194.55,167.16 194,167.5 C193.45,167.84 193,168.744 193,169.509 C193,170.274 191.65,172.9 190,175.345 C188.35,177.79 187,180.506 187,181.381 C187,182.329 189.524,184.245 193.25,186.124 C196.688,187.858 203.55,191.848 208.5,194.99 C213.45,198.133 219.75,201.805 222.5,203.15 C225.25,204.495 232.225,208.117 238,211.197 C253.19,219.3 253.584,219.502 264,224.493 C269.225,226.996 277.55,231.955 282.5,235.512 C287.45,239.068 292.902,242.61 294.615,243.382 C298.802,245.268 300.675,250.321 298.448,253.72 C296.027,257.415 293.968,257.698 291.553,254.668 C290.382,253.201 289.108,252 288.721,252 C288.334,252 285.97,250.438 283.469,248.528 C280.967,246.618 277.418,244.343 275.581,243.472 C273.745,242.6 271.21,240.788 269.947,239.444 C268.684,238.1 267.077,237 266.375,237 C265.674,237 264.74,236.438 264.3,235.75 C263.86,235.063 260.8,233.241 257.5,231.703 C254.2,230.164 250.375,228.268 249,227.49 C247.625,226.711 241.361,223.559 235.08,220.484 C228.798,217.409 222.429,214.017 220.925,212.947 C219.422,211.876 217.537,211 216.736,211 C215.936,211 213.307,209.438 210.894,207.528 C203.964,202.044 182.398,191.683 179.452,192.423 C178.103,192.761 177,193.483 177,194.026 C177,195.295 162.44,209.956 158.5,212.654 C156.85,213.784 154.262,215.008 152.75,215.373 C151.238,215.739 150,216.425 150,216.899 C150,217.372 152.137,219.467 154.75,221.554 C164.053,228.986 165.802,232.352 162.345,236.171 C159.894,238.879 158.727,238.481 153.792,233.25 C149.654,228.865 143.62,223.696 140,221.436 C139.175,220.921 136.078,220.5 133.117,220.5 C128.988,220.5 127.533,220.092 126.867,218.75 C126.39,217.787 125.62,216.223 125.156,215.274 C124.692,214.325 122.048,212.637 119.281,211.524 C116.513,210.411 111.993,208.038 109.235,206.25 C106.038,204.178 102.968,203 100.765,203 C98.58,203 96.645,202.265 95.5,201 C93.316,198.586 90.718,198.43 88.914,200.604 C88.181,201.486 86.551,202.6 85.291,203.079 C83.898,203.609 83,204.781 83,206.069 C83,208.433 75.047,219.395 71.081,222.497 C69.673,223.599 67.729,225.287 66.761,226.25 C65.792,227.213 64.751,228 64.447,228 C64.143,228 62.238,229.125 60.215,230.5 C55.682,233.58 50.061,233.83 47.557,231.063 C45.332,228.604 46.302,227 50.015,227 C51.608,227 54.619,225.856 56.706,224.458 C61.541,221.219 73.578,207.709 76.215,202.563 C77.324,200.397 78.855,198.003 79.616,197.241 C82.081,194.776 81.167,192.579 76.937,190.802 C74.713,189.868 72.356,189.313 71.697,189.57 C71.039,189.826 68.7,192.827 66.5,196.239 C64.3,199.651 61.487,203.324 60.25,204.402 C59.013,205.479 58,207.095 58,207.993 C58,210.885 52.557,215.192 49.364,214.827 C45.608,214.398 45.123,211.237 48.224,207.388 C49.503,205.8 51.194,203.15 51.98,201.5 C52.767,199.85 55.343,195.719 57.705,192.321 C62.429,185.525 62.638,185 60.619,185 C59.859,185 58.036,183.425 56.568,181.5 C54.798,179.179 53.073,178 51.449,178 C47.782,178 44.675,174.439 45.484,171.163 C46.335,167.714 46.935,167.163 50.637,166.423 C53.103,165.929 54.383,166.38 57.106,168.698 C62.624,173.396 65.944,175.153 68.046,174.486 C69.121,174.144 70,172.989 70,171.919 C70,170.849 70.384,169.191 70.853,168.236 C71.83,166.248 74.248,160.671 75.726,157 C76.28,155.625 77.29,153.316 77.971,151.869 C78.653,150.422 78.948,148.397 78.627,147.369 C78.067,145.575 79.892,138.775 81.315,137.352 C81.692,136.975 82,135.765 82,134.662 C82,132.141 84.773,129 87,129 C87.93,129 89.498,129.893 90.486,130.985 C91.926,132.576 92.162,133.985 91.675,138.092 C91.089,143.046 91.142,143.191 93.284,142.475 C94.503,142.068 96.931,141.676 98.68,141.605 C100.429,141.533 102.191,141.142 102.596,140.737 C105.598,137.736 114,144.742 114,150.246 C114,152.176 113.325,154.315 112.5,155 C111.675,155.685 111,157.096 111,158.136 C111,159.176 110.623,160.809 110.162,161.764 C109.701,162.719 108.028,166.2 106.444,169.5 C104.859,172.8 102.088,177.975 100.284,181 C98.481,184.025 97.004,187.056 97.003,187.736 C97.001,188.415 99.588,190.365 102.75,192.068 C113.374,197.79 121.575,202.487 124.019,204.25 C125.353,205.212 126.988,206 127.651,206 C129.852,206 132,202.901 132.032,199.679 C132.049,197.93 132.724,195.626 133.532,194.559 C134.339,193.491 135,191.573 135,190.295 C135,189.018 135.405,187.191 135.9,186.236 C136.396,185.281 137.562,181.8 138.492,178.5 C139.423,175.2 140.593,171.118 141.092,169.429 C141.591,167.74 142,165.404 142,164.238 C142,163.072 142.45,161.84 143,161.5 C143.55,161.16 144,159.311 144,157.391 C144,155.471 144.651,152.642 145.446,151.104 C146.952,148.192 146.528,144 144.728,144 C144.157,144 144.435,143.177 145.345,142.171 C146.255,141.165 147,138.942 147,137.23 C147,135.519 147.45,133.84 148,133.5 C148.55,133.16 149,131.16 149,129.055 C149,126.951 149.672,123.94 150.494,122.364 C151.579,120.284 151.989,116.171 151.994,107.332 C152.001,93.536 151.66,92 148.593,92 C143.182,92 142.531,86.816 147.354,82.142 C150.819,78.783 151.895,78.108 164.011,71.685 C170.803,68.085 171.166,67.719 170.465,65.185 C169.393,61.314 169.668,53.489 170.961,51.073 Z M88.75,27.08 C91.294,25.598 91.821,25.73 94.645,28.554 C96.735,30.644 97.107,31.781 96.692,34.804 C96.071,39.331 94.076,46.888 92.882,49.236 C92.397,50.191 92,52.302 92,53.927 C92,55.552 91.55,57.16 91,57.5 C90.45,57.84 90,58.949 90,59.964 C90,60.98 88.425,63.696 86.5,66 C84.575,68.304 83,70.899 83,71.766 C83,72.633 82.246,74.176 81.324,75.195 C78.658,78.14 81.02,79.362 84.535,76.856 C88.169,74.265 95.013,65.874 96.631,62.027 C99.02,56.345 105.104,57.556 110.892,64.864 C114.178,69.012 114.778,71.822 112.8,73.8 C111.025,75.575 108.546,75.261 106.5,73 C103.577,69.771 100.814,70.53 96.486,75.75 C92.674,80.347 90.251,82.696 85,86.878 C82.825,88.611 82.662,89.136 83.75,90.921 C85.457,93.723 85.323,101.982 83.5,106.346 C82.675,108.32 82,111.287 82,112.937 C82,114.588 81.145,117.462 80.1,119.322 C78.896,121.465 78.514,123.214 79.057,124.092 C79.63,125.02 79.143,126.312 77.588,127.99 C76.309,129.37 74.467,132.638 73.495,135.251 C70.956,142.075 67.767,145.201 63.74,144.813 C59.191,144.374 58.944,141.196 63.06,136.075 C64.978,133.689 66.013,131.475 65.651,130.533 C65.068,129.015 66.23,125.675 70.13,117.655 C71.159,115.541 72,113.054 72,112.128 C72,111.202 72.627,109.55 73.393,108.457 C74.159,107.363 75.112,102.988 75.51,98.734 L76.235,91 L72.689,91 C69.036,91 66,88.931 66,86.443 C66,84.951 72.491,72.172 74.074,70.55 C74.583,70.028 75,68.79 75,67.8 C75,66.81 75.45,66 76,66 C76.55,66 77,65.137 77,64.083 C77,63.029 78.575,59.197 80.5,55.569 C82.425,51.94 84.003,48.19 84.006,47.236 C84.01,46.281 84.685,44.211 85.506,42.636 C86.333,41.049 87,37.167 87,33.935 C87,29.432 87.4,27.867 88.75,27.08 Z M166.848,81.255 C164.651,83.115 164.007,84.838 163.098,91.291 C162.494,95.576 161.986,103.901 161.968,109.791 C161.945,117.619 161.541,121.022 160.468,122.441 C159.573,123.625 159,126.625 159,130.132 C159,133.295 158.55,136.16 158,136.5 C157.45,136.84 157,138.471 157,140.125 C157,141.778 156.457,144.114 155.794,145.316 C155.131,146.517 154.448,149.457 154.276,151.85 C154.104,154.242 153.522,157.025 152.982,158.034 C152.442,159.043 152,161.637 152,163.798 C152,167.698 152.029,167.727 155.895,167.727 C158.813,167.727 161.728,168.935 167.508,172.537 C175.357,177.43 177.278,177.662 179.046,173.933 C179.42,173.145 180.855,170.025 182.236,167 C183.617,163.975 185.952,158.892 187.426,155.705 C189.398,151.442 190.026,148.666 189.803,145.205 C189.516,140.746 189.337,140.484 186.385,140.197 C183.554,139.921 183.071,140.318 181.083,144.546 C179.88,147.106 177.75,150.392 176.35,151.85 C174.95,153.307 172.46,156.637 170.817,159.25 C166.741,165.729 162.549,165.759 160.578,159.323 C159.891,157.078 161.197,153.644 165.455,146.5 C166.766,144.3 167.889,141.375 167.951,140 C168.013,138.625 168.724,136.626 169.532,135.559 C170.339,134.491 171,131.93 171,129.868 C171,127.805 171.45,125.84 172,125.5 C172.55,125.16 173,123.361 173,121.503 C173,119.645 173.705,115.083 174.567,111.366 C175.885,105.684 175.957,102.958 175.018,94.24 C173.333,78.59 172.173,76.747 166.848,81.255 Z M148.526,175.95 C147.687,177.573 147,180.246 147,181.891 C147,183.536 146.55,185.16 146,185.5 C145.45,185.84 145,187.13 145,188.368 C145,189.605 144.339,191.491 143.532,192.559 C142.724,193.626 142.049,195.873 142.032,197.55 C142.014,199.227 141.605,201.027 141.121,201.55 C140.638,202.072 139.947,204.163 139.586,206.196 C139.044,209.25 139.272,210.075 140.899,210.946 C141.982,211.526 143.635,212 144.571,212 C147.23,212 159.352,203.579 160.926,200.639 C161.702,199.188 162.637,198 163.003,198 C163.368,198 165.379,195.516 167.47,192.479 C171.188,187.081 171.232,186.913 169.437,184.93 C168.427,183.815 164.372,181.369 160.425,179.497 C156.478,177.624 152.982,175.396 152.656,174.546 C151.746,172.174 150.208,172.697 148.526,175.95 Z M95.727,152 C94.329,153.1 92.529,154 91.727,154 C89.682,154 85,157.86 85,159.546 C85,160.317 83.425,164.183 81.5,168.139 C76.899,177.594 76.97,179.097 82.142,181.724 C86.808,184.094 88.024,183.932 89.598,180.732 C90.202,179.504 92.335,175.464 94.339,171.754 C99.173,162.8 103.16,152.859 102.552,151.276 C101.827,149.386 98.617,149.727 95.727,152 Z M95.797,88.25 C97.8,86.671 98.187,86.685 100.559,88.42 C102.224,89.638 102.5,91.083 102.5,98.579 C102.5,103.586 102.933,107.465 103.513,107.663 C104.07,107.853 106.73,106.188 109.423,103.962 C114.889,99.445 117.349,99.216 117.809,103.181 C118.041,105.183 117.22,106.671 114.503,109.172 C107.298,115.804 102.427,117.306 97.085,114.544 C94.816,113.371 94.125,112.159 93.522,108.294 C92.073,99.009 93.048,90.418 95.797,88.25 Z M183.345,75.543 C183.019,76.392 183.014,77.347 183.333,77.667 C184.342,78.676 187,77.128 187,75.531 C187,73.535 184.112,73.545 183.345,75.543 Z"/>
</svg>

