<svg xmlns="http://www.w3.org/2000/svg" width="300" height="300" viewBox="0 0 300 300" version="1.1">
  <defs/>
  <path d="M135.5,163.218 C138.57,161.442 144.49,161.766 147.065,163.851 C150.078,166.291 151.152,176.799 148.605,178.913 C147.722,179.645 147,181.513 147,183.063 C147,184.614 146.55,186.16 146,186.5 C145.45,186.84 145,187.837 145,188.715 C145,189.593 143.978,191.704 142.73,193.406 C141.481,195.108 139.804,197.786 139.003,199.357 C137.633,202.046 137.693,202.333 140.02,204.218 C141.381,205.319 144.97,207.529 147.997,209.129 C151.024,210.728 155.75,213.37 158.5,214.999 C161.25,216.628 165.75,219.153 168.5,220.609 C171.25,222.065 174.85,224.21 176.5,225.375 C179.748,227.67 187.124,231.821 193.5,234.944 C195.7,236.022 201.325,239.63 206,242.964 C210.675,246.297 215.792,249.806 217.37,250.762 C218.949,251.718 222.774,254.559 225.87,257.075 C228.967,259.592 233.532,263.028 236.015,264.712 C238.499,266.396 242.324,269.884 244.515,272.464 C246.707,275.045 252.887,281.608 258.25,287.05 C263.613,292.492 268,297.632 268,298.472 C268,299.699 266.602,300 260.901,300 C254.249,300 253.62,299.804 250.901,296.894 C249.306,295.186 248,293.126 248,292.316 C248,289.935 235.083,276.239 227.569,270.653 C217.998,263.536 199.596,250.794 193.136,246.809 C187.39,243.265 184.793,241.752 168.795,232.628 C163.133,229.399 156.925,225.733 155,224.482 C145.039,218.009 134.688,212 133.497,212 C132.757,212 131.105,213.385 129.826,215.077 C128.547,216.769 126.487,219.183 125.25,220.441 C124.013,221.7 123,223.085 123,223.52 C123,223.955 121.875,225.786 120.5,227.589 C119.125,229.392 118,231.318 118,231.87 C118,232.841 111.136,243.281 106.347,249.594 C105.056,251.296 104,253.147 104,253.708 C104,255.781 94.105,264 91.608,264 C87.653,264 84.564,262.423 83.078,259.646 C81.106,255.961 83.14,253.616 87.585,254.45 C90.453,254.988 91.194,254.592 94.467,250.776 C98.715,245.823 111.69,226.987 112.696,224.314 C113.071,223.316 114.868,220.159 116.689,217.298 C118.51,214.437 120,211.68 120,211.17 C120,210.661 120.675,209.685 121.5,209 C123.518,207.325 123.396,205.062 121.25,204.384 C118.95,203.657 112.556,201.106 107.25,198.798 C100.952,196.059 101.351,193.213 108.75,188.104 C114.507,184.129 127.824,171.755 131.529,166.937 C132.613,165.528 134.4,163.854 135.5,163.218 Z M68.75,126.068 C70.813,124.979 72.976,124.069 73.559,124.044 C75.635,123.958 77.624,126.576 79.388,131.718 C81.041,136.537 81.056,137.181 79.589,140.122 C78.715,141.874 78,143.931 78,144.694 C78,145.457 77.047,147.37 75.882,148.945 C74.717,150.521 74.092,152.339 74.491,152.986 C75.4,154.456 70.243,160 67.968,160 C65.837,160 63.4,162.807 62.759,166 C62.483,167.375 61.926,169.287 61.522,170.25 C60.521,172.63 62.586,172.519 67.539,169.927 C70.732,168.256 72.624,167.963 77.296,168.416 C84.719,169.137 86.378,170.083 89.469,175.356 C91.566,178.936 92,180.957 92,187.154 C92,198.071 89.63,210.454 86.289,217 C85.587,218.375 85.01,220.421 85.006,221.546 C85.003,222.672 83.437,226.047 81.526,229.046 C79.615,232.046 78.04,235.219 78.026,236.097 C78.012,236.975 77.128,238.7 76.061,239.929 C74.995,241.159 73.828,243.508 73.467,245.15 C73.106,246.792 72.186,248.375 71.421,248.669 C70.657,248.962 67.957,252.109 65.422,255.661 C58.322,265.611 53.845,266.473 46.776,259.25 C41.482,253.84 39.845,249.954 36.377,234.557 C33.475,221.676 33.549,219.5 36.891,219.5 C39.573,219.5 39.85,219.896 43.521,229 C44.963,232.575 46.786,236.774 47.571,238.331 C48.357,239.888 49.033,242.363 49.073,243.831 C49.165,247.171 52.156,252.402 54.202,252.799 C55.705,253.09 61.695,245.992 65.157,239.817 C66.069,238.192 67.532,236.07 68.407,235.102 C69.283,234.134 70,232.958 70,232.487 C70,231.696 71.135,229.052 76.006,218.5 C78.272,213.589 80.308,208.122 82.391,201.349 C83.677,197.169 83.793,194.752 83.004,188.529 C81.855,179.466 81.79,179.332 78.162,178.536 C73.16,177.437 66.579,181.367 57.71,190.75 C53.283,195.433 52.104,195.769 48.465,193.385 C45.788,191.631 45.344,188.724 46.967,183.571 C47.499,181.882 48.675,177.8 49.58,174.5 C54.581,156.255 55.113,155.043 59.49,151.9 C62.317,149.87 64.399,147.227 65.924,143.735 C68.033,138.906 68.076,138.398 66.589,135.882 C63.86,131.261 64.51,128.306 68.75,126.068 Z M75.5,46.506 C79.35,45.151 82.797,44.033 83.161,44.021 C84.218,43.987 89,50.03 89,51.399 C89,52.802 83.365,63.694 81.447,66 C79.457,68.391 75,76.767 75,78.114 C75,78.79 74.213,80.212 73.25,81.276 C70.712,84.079 64.688,94.264 60.024,103.638 C57.796,108.114 55.305,112.332 54.487,113.011 C53.669,113.69 53,115.02 53,115.967 C53,116.915 52.1,118.505 51,119.5 C49.9,120.495 49,121.865 49,122.542 C49,124.766 38.374,142.003 32.996,148.505 C29.274,153.004 26.324,155.475 22.93,156.935 C14.185,160.697 10.356,159.326 8.615,151.811 C7.778,148.197 9.447,147.42 12.645,149.935 C16.104,152.656 17.001,152.553 20.527,149.029 C25.426,144.133 27.269,141.834 31.357,135.521 C33.501,132.209 36.038,128.361 36.995,126.969 C39.421,123.443 43,116.3 43,114.987 C43,114.386 44.125,112.238 45.5,110.215 C46.875,108.191 48,106.058 48,105.473 C48,104.356 34.973,104.28 33.182,105.387 C32.649,105.717 29.128,106.641 25.357,107.441 C18.639,108.866 18.465,108.851 16.772,106.698 C9.896,97.951 25.622,91.501 44.369,95.378 C48.684,96.27 52.573,97 53.013,97 C53.803,97 61,82.994 61,81.456 C61,81.017 61.632,79.947 62.405,79.079 C63.177,78.21 65.225,74.7 66.955,71.278 C68.684,67.856 70.527,64.792 71.05,64.469 C72.599,63.512 72.136,60 70.46,60 C69.613,60 67.095,60.931 64.865,62.069 C60.983,64.049 60.726,64.062 58.861,62.374 C57.789,61.404 57.044,59.734 57.206,58.663 C57.632,55.842 67.381,49.363 75.5,46.506 Z M118,32.936 C118,30.496 118.335,30.273 121.991,30.273 C127.616,30.273 128.458,31.719 126.558,38.115 C124.734,44.259 125.318,45.035 131.167,44.251 C134.324,43.827 135.554,44.172 137.54,46.037 C140.619,48.93 140.614,50.068 137.5,55 C136.125,57.178 135,59.435 135,60.015 C135,60.595 131.82,64.249 127.932,68.137 C124.045,72.024 121.065,75.728 121.311,76.368 C121.557,77.009 122.825,78.033 124.129,78.645 C126.869,79.93 152.103,88.44 159.5,90.574 C162.25,91.367 166.408,92.912 168.739,94.008 C171.071,95.104 173.253,96 173.588,96 C173.923,96 175.841,96.724 177.849,97.609 C202.029,108.266 204.702,110.557 199.419,116.101 C196.869,118.777 196.058,119.077 193,118.471 C191.075,118.09 187.548,117.654 185.163,117.502 C179.968,117.171 178.117,115.769 179.954,113.555 C181.768,111.37 180.645,109.379 177.21,108.692 C175.581,108.366 170.413,106.277 165.724,104.05 C161.036,101.822 156.925,100 156.589,100 C155.973,100 147.831,96.526 144.945,95.031 C144.089,94.588 138.239,92.78 131.945,91.012 C125.65,89.244 120.096,87.416 119.601,86.95 C119.107,86.484 115.957,86.342 112.601,86.633 C107.016,87.119 106.268,86.942 103.75,84.541 C101.908,82.785 101.201,82.144 101.116,81.428 C101.06,80.957 101.272,80.455 101.607,79.582 C101.999,78.561 103.441,78 105.673,78 C107.575,78 110.032,77.518 111.132,76.929 C113.319,75.759 120.259,68.44 120.899,66.629 C121.118,66.008 122.356,64.228 123.649,62.673 C125.862,60.013 126.774,57 125.366,57 C125.017,57 122.933,57.539 120.735,58.197 C117.038,59.305 116.6,59.225 114.898,57.123 C113.481,55.373 113.179,53.777 113.581,50.175 C114.189,44.734 115.987,37.915 117.174,36.55 C117.628,36.027 118,34.401 118,32.936 Z M106.465,105.039 C110.437,100.65 115.741,103.731 116.196,110.691 C116.559,116.254 118.588,117.481 120.126,113.069 C122.198,107.125 127.622,106.327 131.489,111.396 C134.397,115.21 134.693,118.058 133.71,132.799 C133.177,140.794 133.316,142.184 134.701,142.716 C135.014,142.836 135.266,142.941 135.524,142.958 C136.743,143.037 138.09,141.15 146.5,129.564 C152.467,121.344 153.869,119.963 156,120.21 C158.177,120.463 158.54,121.056 158.81,124.806 C159.066,128.352 158.508,130.028 155.649,134.306 C153.74,137.163 150.563,141.051 148.589,142.946 C146.615,144.842 145,146.922 145,147.569 C145,148.922 137.351,156.207 134.107,157.943 C131.571,159.3 129.193,158.727 125.582,155.886 C123.267,154.065 123,153.165 122.999,147.177 C122.998,143.505 123.514,136.801 124.146,132.28 C125.058,125.756 125.033,123.744 124.025,122.53 C122.204,120.336 120.095,120.643 119.088,123.25 C118.61,124.487 117.452,127.355 116.515,129.621 C115.579,131.888 114.429,136.388 113.96,139.621 C111.297,157.972 108.641,165.55 104.507,166.588 C99.099,167.945 97.436,164.442 100.538,158.225 C104.047,151.191 106.104,129.821 104.959,112.289 C104.698,108.291 105.049,106.603 106.465,105.039 Z M131.995,181.462 C130.073,183.916 128.19,185.941 127.812,185.962 C127.433,185.983 125.671,187.327 123.896,188.948 C121.245,191.369 120.887,192.159 121.892,193.37 C123.434,195.228 128.405,197.007 129.656,196.148 C130.783,195.375 136.052,186.652 137.778,182.703 C140.844,175.685 137.143,174.891 131.995,181.462 Z"/>
</svg>

