<svg xmlns="http://www.w3.org/2000/svg" width="300" height="300" viewBox="0 0 300 300" version="1.1">
  <defs/>
  <path d="M149.5,159.004 C151.993,156.75 159.915,158.945 163.399,162.855 C165.05,164.709 165.218,166.012 164.69,172.862 C164.099,180.533 162.299,185.442 157.637,192.104 C151.812,200.427 148.944,205.592 149.203,207.293 C149.436,208.826 152.403,210.27 163,214.009 C180.045,220.023 181.625,220.564 186.5,222.056 C199.279,225.968 220.693,237.953 234.111,248.703 C237.748,251.616 241.076,254 241.508,254 C241.94,254 244.59,255.518 247.396,257.374 C250.203,259.229 254.975,261.988 258,263.505 C261.025,265.021 264.281,266.653 265.236,267.131 C266.191,267.609 268.05,268 269.366,268 C272.713,268 279.4,276.163 278.466,279.107 C277.535,282.042 274.837,285 273.092,285 C272.287,285 269.575,283.286 267.064,281.192 C264.554,279.097 259.575,275.643 256,273.515 C252.425,271.387 248.076,268.423 246.336,266.929 C244.595,265.434 241.445,263.647 239.336,262.958 C235.584,261.731 232.234,259.591 217,248.688 C209.814,243.545 203.545,239.737 196,235.93 C191.183,233.5 175.026,227 173.801,227 C173.252,227 171.384,226.351 169.651,225.558 C162.565,222.315 144.46,217 140.499,217 C138.777,217 137.22,218.274 135.001,221.498 C133.299,223.973 127.747,230.279 122.664,235.513 C114.394,244.029 112.814,245.202 107.643,246.673 L101.863,248.318 L99.308,245.763 C96.222,242.676 96.858,241.298 101.785,240.402 C104.826,239.848 107.45,237.711 116.256,228.613 C126.275,218.261 128.972,214.638 127.647,213.313 C126.632,212.298 113.901,210.296 111.447,210.765 C107.11,211.594 104.405,207.066 106.892,203.141 C108.442,200.694 116.141,200.658 126.489,203.049 L136.317,205.32 L140.128,200.91 C142.225,198.484 143.954,196.007 143.97,195.406 C143.987,194.804 145.135,193.004 146.523,191.406 C149.692,187.756 153.84,178.854 154.607,174.056 C155.029,171.418 154.757,170.043 153.628,169.106 C152.288,167.995 150.877,168.861 143.782,175.154 C139.227,179.194 132.312,185.762 128.416,189.75 C124.519,193.738 120.868,197 120.302,197 C118.551,197 114,191.831 114,189.842 C114,188.772 115.149,187.433 116.659,186.745 C118.122,186.079 122.734,181.999 126.909,177.679 C131.084,173.359 135.85,169.128 137.5,168.276 C140.002,166.984 144.629,163.41 149.5,159.004 Z M148,35.874 C155.118,32.814 157.211,31.891 158.74,32.466 C159.413,32.719 159.977,33.261 160.811,34.039 C164.774,37.731 163.378,42 158.208,42 C156.108,42 151.918,43.394 148.065,45.374 C144.454,47.229 140.375,49.088 139,49.505 C137.625,49.922 135.306,51.103 133.846,52.131 C132.386,53.159 130.528,54 129.718,54 C128.908,54 127.68,54.68 126.99,55.512 C126.3,56.343 123.778,57.889 121.385,58.948 C118.991,60.007 115.521,62.026 113.672,63.436 C111.824,64.846 109.721,66 109,66 C108.279,66 106.296,67.028 104.594,68.284 C102.892,69.54 100.263,71.105 98.75,71.762 C96.128,72.902 96,73.28 96,79.92 C96,83.749 96.401,87.13 96.89,87.432 C97.38,87.735 98.1,92.88 98.491,98.866 C99.252,110.508 97.81,126.205 95.495,131.5 C94.773,133.15 93.948,135.625 93.661,137 C92.647,141.862 88,154.578 85.073,160.5 C81.006,168.728 76,179.979 76,180.892 C76,182.272 69.99,192.763 68.484,194.013 C67.668,194.691 67,195.895 67,196.689 C67,197.484 65.947,199.566 64.66,201.317 C63.373,203.068 61.724,206.075 60.995,208 C60.267,209.925 59.07,212.21 58.335,213.079 C57.601,213.947 57,214.939 57,215.282 C57,215.626 54.638,218.428 51.75,221.51 C44.139,229.633 38.083,231.986 36.358,227.49 C35.961,226.457 37.852,223.803 41.984,219.594 C45.406,216.108 49.013,211.453 49.999,209.251 C50.985,207.049 52.295,204.935 52.911,204.555 C53.527,204.175 54.689,202.432 55.495,200.682 C56.301,198.932 57.349,196.825 57.824,196 C62.114,188.559 75.536,161.507 78.167,155 C79.612,151.425 81.539,145.575 82.448,142 C83.357,138.425 84.466,134.6 84.912,133.5 C88.635,124.321 89.653,110.485 87.928,92.509 C87.013,82.971 86.24,78.922 85.265,78.548 C84.509,78.258 81.328,79.095 78.195,80.408 C72.836,82.655 58.46,86.059 53.055,86.363 C51.046,86.475 50.485,85.904 49.913,83.162 C49.327,80.355 49.677,79.299 52.109,76.529 C54.772,73.495 55.613,73.182 62.75,72.57 C71.144,71.85 82.072,68.647 85.885,65.788 C87.197,64.805 89.085,64 90.082,64 C91.798,64 100.018,60.056 102.395,58.091 C104.499,56.352 135.535,41.233 148,35.874 Z M158.414,78.902 C163.1,74.509 168.076,74.841 173.118,79.882 C176.17,82.935 177,84.524 177,87.317 C177,89.271 177.375,91.912 177.833,93.185 C178.292,94.458 178.306,100 177.866,105.5 C177.425,111 176.984,118.65 176.885,122.5 C176.786,126.35 176.384,129.95 175.991,130.5 C175.597,131.05 174.994,132.684 174.649,134.131 C174,136.851 168.062,140.551 165.705,139.703 C163.561,138.933 161,141.006 161,143.512 C161,148.752 152.179,150.94 150.971,146 C150.503,144.09 149.765,143.539 147.841,143.666 C146.456,143.758 144.139,142.858 142.693,141.666 C140.078,139.513 140.069,139.454 141.077,131.61 C142.382,121.452 142.587,105.053 141.56,93 C140.805,84.153 140.889,83.375 142.784,81.677 C144.68,79.979 145.028,79.963 147.909,81.453 C149.731,82.395 151,83.837 151,84.967 C151,88.193 152.696,88.147 154.048,84.885 C154.752,83.186 156.716,80.494 158.414,78.902 Z M113.25,71.499 C119.438,65.18 124.972,60.007 125.55,60.005 C127.624,59.995 129,62.468 129,66.205 C129,69.652 128.193,70.813 120.413,78.558 C115.633,83.317 112.084,87.636 112.407,88.303 C112.726,88.961 113.37,90.175 113.838,91 C116.742,96.119 117.013,97.107 116.023,98.957 C114.884,101.085 114.638,107.305 115.653,108.32 C116.012,108.679 118.252,107.179 120.631,104.986 C125.212,100.764 127.467,100.158 130.461,102.348 C131.952,103.438 132.192,104.537 131.717,108.098 C131.363,110.754 130.442,112.897 129.394,113.5 C122.744,117.331 115.186,127.715 116.519,131.189 C116.859,132.074 116.656,133.095 116.068,133.458 C114.48,134.44 114.776,137.7 116.515,138.367 C117.437,138.721 119.049,137.805 120.633,136.028 C123.496,132.814 128.564,131.164 130.286,132.886 C131.069,133.669 130.817,134.606 129.382,136.237 C126.167,139.891 122,146.829 122,148.528 C122,149.392 121.286,151.48 120.414,153.167 C118.977,155.946 118.49,156.179 115.227,155.649 C113.24,155.327 111.053,155.541 110.347,156.127 C106.873,159.01 106.521,156.875 106.771,134.421 C106.906,122.365 107.284,108.417 107.613,103.428 L108.211,94.355 L105.106,91.742 C99.449,86.983 100.398,84.623 113.25,71.499 Z M157.557,89.223 C156.701,90.445 156,92.454 156,93.687 C156,94.921 155.159,96.38 154.131,96.93 C152.092,98.021 150.559,107.295 151.985,109.905 C152.408,110.678 152.401,112.703 151.97,114.405 C151.54,116.107 150.958,122.787 150.676,129.25 C150.073,143.11 150.805,143.885 156.816,135.75 C158.949,132.863 161.892,129.86 163.355,129.077 C165.105,128.141 166.379,126.308 167.074,123.726 C168.294,119.195 167.704,118.079 164.988,119.776 C162.312,121.447 158.413,119.782 157.622,116.63 C156.614,112.616 158.792,109.236 163.369,107.71 C166.79,106.57 167.57,105.797 168.199,102.925 C169.017,99.192 168.281,91.535 166.837,88.75 C165.469,86.111 159.524,86.414 157.557,89.223 Z M54.132,157.698 C59.945,152.018 60.536,154.165 55.198,161.57 C52.614,165.154 49.746,169.465 48.824,171.15 C47.902,172.835 46.215,175.083 45.074,176.146 C43.933,177.208 43,178.801 43,179.685 C43,182.187 36.075,192.009 33.477,193.193 C28.917,195.27 23.182,191.826 25.591,188.457 C28.353,184.594 42.311,168.837 45.969,165.452 C48.318,163.278 51.991,159.789 54.132,157.698 Z M100.034,17.459 C100.768,16.575 103.022,16 105.754,16 C109.63,16 110.737,16.502 113.632,19.571 C116.107,22.195 117,24.052 117,26.571 C117,28.457 116.55,30 116,30 C115.45,30 115,30.962 115,32.138 C115,34.503 107.688,43.052 104.614,44.28 C100.625,45.875 100.638,42.849 104.665,33.349 C106.539,28.926 106.382,28.249 103.083,26.543 C99.739,24.813 98.066,19.83 100.034,17.459 Z M46.682,126.242 C49.726,124.014 55.99,125.083 58.33,128.23 C59.976,130.443 60.154,131.388 59.271,133.23 C58.672,134.478 57.91,136.339 57.579,137.363 C57.125,138.765 56.421,139.053 54.738,138.526 C53.507,138.141 50.925,137.522 49,137.151 C45.691,136.513 45.483,136.233 45.182,132.024 C44.939,128.627 45.295,127.257 46.682,126.242 Z"/>
</svg>

