<svg xmlns="http://www.w3.org/2000/svg" width="300" height="300" viewBox="0 0 300 300" version="1.1">
  <defs/>
  <path d="M143.723,3.669 C144.318,2.671 148.953,3.716 150.825,5.27 C151.773,6.057 152.066,8.432 151.833,13.44 C151.533,19.869 151.682,20.524 153.502,20.773 C155.662,21.068 159.026,16.515 159.983,12 C160.331,10.358 161.302,9.388 162.811,9.173 C166.453,8.656 168,10.712 168,16.072 C168,20.413 167.648,21.167 164.5,23.568 C162.575,25.036 160.974,26.746 160.943,27.369 C160.912,27.991 158.774,30.12 156.193,32.1 C151.874,35.413 148.465,40.654 145.201,49 C142.827,55.07 138.828,64.631 138.076,66.033 C137.624,66.876 136.932,69.034 136.538,70.829 L135.821,74.093 L140.868,73.423 C144.95,72.882 146.693,73.159 149.988,74.877 C152.229,76.045 154.852,77 155.817,77 C156.844,77 159.159,74.614 161.396,71.25 C164.563,66.487 165.307,64.384 165.733,59 C166.3,51.831 168.674,48 172.552,48 C179.756,48 178.183,60.781 169.489,72.883 C164.514,79.807 165.049,80.343 182.5,85.935 C200.216,91.612 208,95.948 208,100.14 C208,104.318 203.8,111 201.174,111 C198.68,111 196,107.876 196,104.967 C196,103.47 195.438,101.821 194.75,101.304 C194.063,100.786 188.775,98.861 183,97.026 C177.225,95.191 170.475,92.689 168,91.465 C165.525,90.241 161.043,88.906 158.04,88.497 C155.037,88.089 151.887,87.404 151.04,86.975 C150.193,86.546 147.475,85.667 145,85.022 C142.525,84.377 139.226,83.208 137.669,82.425 C133.325,80.239 132.355,80.636 129.963,85.576 C128.246,89.123 127.976,90.651 128.761,92.374 C129.643,94.311 129.134,95.235 124.808,99.549 C120.111,104.231 117.064,108.885 115.612,113.59 C115.081,115.309 115.86,116.236 120.004,118.812 C122.774,120.534 125.343,122.743 125.711,123.721 C126.08,124.7 127.646,127.255 129.191,129.4 C130.736,131.545 132,133.859 132,134.543 C132,136.881 135.015,137.009 136.778,134.746 C137.725,133.53 140.794,130.164 143.598,127.267 C148.865,121.825 151.692,120.835 154.357,123.5 C156.536,125.679 157.695,125.352 158.45,122.344 C158.899,120.553 158.612,119.184 157.568,118.139 C155.292,115.864 149.873,118.112 142.784,124.273 C135.08,130.969 131.076,129.318 136.058,121.5 C137.11,119.85 138.393,117.549 138.909,116.386 C140.291,113.272 146.559,108.449 150.922,107.141 C157.52,105.165 163.338,105.666 165.94,108.436 C167.891,110.513 168.235,111.973 168.276,118.337 C168.321,125.265 166.724,132 165.036,132 C164.639,132 163.457,133.615 162.407,135.59 C161.358,137.564 159.269,139.823 157.764,140.608 C156.205,141.422 154.758,143.211 154.399,144.768 C154.053,146.271 152.637,149.185 151.253,151.244 C149.351,154.073 148.875,155.783 149.306,158.244 C149.619,160.035 150.637,165.55 151.569,170.5 C153.593,181.263 153.998,218.476 152.177,226.509 C151.555,229.254 150.822,232.66 150.547,234.078 C150.273,235.496 148.934,237.858 147.572,239.328 C142.494,244.808 134.178,241.389 129.669,231.967 C127.747,227.951 127.542,226.795 128.597,225.919 C129.593,225.093 130.956,225.968 134.357,229.619 C139.393,235.026 140.924,234.792 143.071,228.284 C145.077,222.208 144.674,184.289 142.49,173.5 C141.488,168.55 140.18,164.169 139.584,163.765 C137.519,162.366 136.044,163.014 134.5,166 C133.41,168.107 132.212,169 130.474,169 C127.971,169 124,165.893 124,163.934 C124,161.736 126.157,158.97 129.03,157.485 C132.655,155.61 132.766,154.069 129.5,151 C128.125,149.708 126.99,147.942 126.978,147.076 C126.933,143.869 123.173,137.369 118.813,132.961 C116.343,130.464 113.523,127.201 112.546,125.711 C111.569,124.22 110.379,123 109.902,123 C109.424,123 107.886,125.265 106.483,128.034 C105.079,130.803 102.064,134.881 99.781,137.096 C96.4,140.378 95.157,141.005 93.071,140.482 C87.337,139.043 86.561,136.293 90.909,132.822 C94.413,130.026 100.827,121.826 103.287,117 C104.268,115.075 106.172,111.7 107.519,109.5 C110.859,104.043 110.759,101.402 107.188,100.688 C105.642,100.378 103.337,99.284 102.066,98.255 C100.154,96.706 99.88,95.823 100.473,93.125 C101.408,88.867 103.194,88.315 109.131,90.45 C111.818,91.416 114.641,91.968 115.404,91.675 C117.028,91.052 122.946,79.485 124.959,73 C125.727,70.525 126.95,67.79 127.678,66.921 C128.405,66.053 129,64.665 129,63.838 C129,63.01 129.291,62.042 129.647,61.686 C130.314,61.019 133.909,51.086 133.967,49.75 C134.03,48.321 130.979,49.012 126.251,51.497 C117.012,56.353 109.983,59.137 107.755,58.82 C104.786,58.399 102.833,51.693 105.066,49.587 C106.512,48.223 115.952,44.485 121.5,43.078 C126.765,41.743 136.068,36.288 138.637,33.029 C139.811,31.539 141.358,22.868 142.566,11 C142.93,7.425 143.45,4.126 143.723,3.669 Z M34.5,65.108 C37.369,63.713 41.751,63.789 42.661,65.25 C43.09,65.938 43.495,70.325 43.562,75 C43.674,82.764 43.863,83.527 45.74,83.806 C47.183,84.021 48.05,83.371 48.648,81.626 C49.699,78.56 59.661,68 61.503,68 C63.777,68 69,73.058 69,75.26 C69,76.405 69.65,78.061 70.445,78.939 C71.522,80.13 72.294,86.898 73.475,105.518 C74.347,119.258 75.483,134.673 76,139.773 C76.516,144.873 77.165,152.748 77.441,157.273 C77.717,161.798 78.369,168.596 78.891,172.38 C80.252,182.264 77.386,187.478 73.113,182.891 C71.187,180.823 69.305,170.934 70.476,169.038 C70.815,168.49 70.593,167.109 69.983,165.969 C69.373,164.829 68.79,160.658 68.687,156.698 C68.518,150.177 68.299,149.471 66.362,149.195 C64.843,148.979 63.168,150.179 60.58,153.337 C56.746,158.016 53.157,159.982 49,159.681 L46.5,159.5 L46.5,169 C46.5,178.208 46.572,178.51 48.848,178.832 C51.68,179.233 55.624,175.814 57.504,171.328 C58.235,169.583 59.992,167.396 61.409,166.468 C64.458,164.47 67.495,165.22 66.648,167.762 C66.33,168.718 65.27,171.916 64.294,174.87 C62.122,181.439 54.373,190 50.599,190 C49.004,190 47.383,191.057 46,193 C43.411,196.635 42.05,196.747 39.065,193.569 C38.731,193.214 38.444,192.939 38.196,192.631 C36.578,190.622 36.68,187.229 36.9,151 C36.958,141.375 36.562,128.325 36.019,122 C35.477,115.675 35.025,105.528 35.016,99.45 C35.007,93.373 34.588,87.973 34.084,87.45 C33.581,86.928 33.018,81.906 32.834,76.29 C32.527,66.892 32.659,66.003 34.5,65.108 Z M53.25,91.511 C50.913,95.069 49,98.59 49,99.335 C49,100.08 48.039,101.547 46.864,102.595 C44.784,104.451 44.746,104.966 45.383,122.5 C46.152,143.636 46.795,148.984 48.655,149.698 C49.408,149.987 52.43,148.167 55.372,145.654 C58.313,143.141 61.908,140.544 63.36,139.882 C65.759,138.789 66,138.164 66,133.039 C66,124.444 61.796,122.188 56.893,128.153 C55.043,130.404 53.777,131.128 52.528,130.649 C51.036,130.077 50.831,128.989 51.181,123.504 C51.524,118.111 52.054,116.553 54.363,114.143 C55.887,112.552 58.566,110.841 60.317,110.341 L63.5,109.431 L63.788,101.369 C64.013,95.078 63.738,93.028 62.538,92.031 C61.692,91.329 61,89.46 61,87.878 C61,82.955 57.923,84.398 53.25,91.511 Z M193.38,198.452 C193.797,197.365 195.765,197.004 201.219,197.015 C207.848,197.029 209.485,197.486 219.5,202.115 C225.55,204.912 232.969,208.068 235.986,209.127 C242.614,211.456 249,217.272 249,220.98 C249,224.676 246.337,228 243.378,228 C239.886,228 237,226.262 237,224.161 C237,221.217 230.661,215.934 225.871,214.884 C217.837,213.124 207.633,208.566 204.328,205.262 C201.898,202.831 200.181,202 197.592,202 C193.888,202 192.475,200.81 193.38,198.452 Z M100.848,205.25 C104.186,200.71 107.787,200.862 112.711,205.75 C117.685,210.688 121.132,215.8 119.971,216.518 C118.78,217.254 116.001,215.764 113.584,213.093 C111.682,210.991 108.458,210.396 106.391,211.765 C105.781,212.169 104.714,214.3 104.019,216.5 C102.081,222.638 101.463,223.5 99,223.5 C95.092,223.5 94.386,220.873 96.538,214.335 C97.594,211.126 99.533,207.037 100.848,205.25 Z M143.073,143.635 C140.679,146.678 140.451,148 142.32,148 C144.091,148 148.217,143.16 147.473,141.956 C146.499,140.381 145.26,140.854 143.073,143.635 Z"/>
</svg>

