<svg xmlns="http://www.w3.org/2000/svg" width="300" height="300" viewBox="0 0 300 300" version="1.1">
  <defs/>
  <path d="M32.502,69.641 C36.354,65.789 42.033,69.223 42.191,75.5 C42.247,77.7 42.114,80.148 41.896,80.941 C41.678,81.733 42.175,82.523 43,82.697 C43.914,82.889 45.827,80.892 47.895,77.586 C52.114,70.842 56.099,68.45 60.998,69.72 C63.389,70.339 64.941,71.554 65.909,73.563 C66.688,75.178 67.701,77.281 68.162,78.236 C68.623,79.191 69.002,82.341 69.004,85.236 C69.006,88.131 69.671,97.707 70.482,106.515 C71.292,115.323 72.011,129.273 72.08,137.515 C72.15,146.024 72.645,153.04 73.224,153.75 C73.93,154.614 73.859,155.464 72.998,156.503 C72.102,157.582 71.798,162.367 71.919,173.451 L72.087,188.897 L69.484,190.603 C67.123,192.149 66.734,192.163 65.318,190.746 C63.814,189.242 63.362,185.337 62.657,167.763 C62.326,159.507 60.84,158.559 56.223,163.654 C54.175,165.913 50.363,169.445 47.75,171.501 L43,175.241 L43,182.12 C43,189.821 44.032,190.724 48,186.5 C50.813,183.506 53.082,183.328 55.425,185.917 C57.72,188.453 56.6,190.478 49.59,196.467 C46.603,199.019 43.696,202.432 43.132,204.051 C42.568,205.67 40.938,207.527 39.511,208.177 C37.269,209.199 36.624,209.068 34.776,207.22 C32.977,205.421 32.657,203.997 32.763,198.269 C32.832,194.522 33.4,189.216 34.024,186.478 C35.119,181.673 35.489,128.29 34.499,118 C33.766,110.385 31.963,87.939 31.398,79.391 C30.956,72.715 31.151,70.992 32.502,69.641 Z M154.049,78.448 C155.314,77.102 156.945,76 157.674,76 C160.028,76 163,79.907 163,83.002 C163,85.458 162.092,86.656 158,89.595 C152.689,93.411 152.254,94.136 154.274,95.813 C155.194,96.576 155.506,100.223 155.395,108.935 C155.311,115.571 155.64,121 156.127,121 C156.615,121 157.991,119.875 159.187,118.5 C161.722,115.585 163.629,115.354 166.171,117.655 C169.618,120.774 168.5,124.477 162.222,130.738 C155.75,137.192 155.02,138.999 152.424,155 C150.207,168.662 149.694,171.603 150.383,171.918 C150.601,172.018 150.941,171.853 151.385,171.683 C156.352,169.777 170.783,168.96 179.91,170.069 C185.185,170.709 191.282,171.242 193.46,171.253 C198.937,171.28 202.842,173.141 204.622,176.572 C206.034,179.294 205.992,179.588 203.954,181.239 C201.454,183.263 198.341,183.475 194.315,181.895 C186.559,178.851 159.634,179.224 153.426,182.462 C151.817,183.301 149.904,183.99 149.176,183.994 C148.447,183.997 145.22,186.51 142.004,189.577 C136.904,194.442 135.894,195.014 134.102,194.054 C128.956,191.301 128.934,183.608 134.06,179.957 C137.474,177.526 141,171.251 141,167.605 C141,166.244 141.447,163.955 141.993,162.518 C143.486,158.592 144.213,146.25 142.996,145.497 C142.428,145.146 140.411,145.819 138.513,146.992 C136.209,148.416 133.828,149.021 131.347,148.812 C128.186,148.547 127.515,148.06 126.848,145.544 C125.885,141.92 127.805,139.421 132.314,138.431 C135.402,137.753 139.391,135.36 143.811,131.536 C146.06,129.591 146.114,129.134 145.825,114.768 C145.484,97.854 145.063,97.238 138.132,103.5 C136.001,105.425 133.847,107 133.344,107 C132.842,107 131.617,105.622 130.623,103.938 C127.11,97.992 130.366,93.237 142.907,86 C147.77,83.193 152.784,79.795 154.049,78.448 Z M111.248,76.25 C112.794,74.311 115.808,74.773 117.077,77.144 C117.749,78.399 117.968,80.991 117.605,83.394 C117.264,85.652 116.739,93.125 116.437,100 C116.136,106.875 115.743,114.3 115.563,116.5 C115.383,118.7 114.948,126.125 114.596,133 C114.243,139.875 113.528,148.65 113.006,152.5 C112.484,156.35 111.846,162.2 111.588,165.5 C111.33,168.8 110.546,177.125 109.845,184 C108.017,201.953 108.106,211.539 110.121,213.552 C113.336,216.763 127.974,216.427 151.5,212.603 C153.15,212.335 159.9,211.613 166.5,210.999 C173.1,210.385 180.3,209.388 182.5,208.784 C188.169,207.227 201.731,207.778 204.638,209.683 C206.474,210.885 206.848,211.793 206.362,213.859 C205.429,217.831 204.953,218.044 196.926,218.085 C192.842,218.105 184.202,219.021 177.727,220.121 C171.251,221.22 163.601,222.303 160.727,222.527 C153.097,223.121 139.598,224.715 131,226.037 C126.875,226.671 121.025,226.936 118,226.625 C114.975,226.314 110.617,225.901 108.315,225.707 C103.41,225.293 101.194,223.706 99.345,219.282 C97.739,215.439 97.592,202.715 99.038,192.693 C101.221,177.562 102.078,171.805 103.047,165.754 C104.493,156.73 106.026,135.111 106.611,115.5 C107.227,94.854 109.108,78.934 111.248,76.25 Z M53.038,87.454 C51.086,89.806 48,96.289 48,98.037 C48,98.925 46.871,100.712 45.491,102.009 C44.092,103.322 43.201,105.06 43.477,105.933 C44.296,108.519 45.035,126.43 45.059,144.25 C45.076,157 45.38,161 46.335,161 C47.025,161 49.29,158.77 51.369,156.044 C53.447,153.318 55.975,150.825 56.985,150.505 C60.441,149.408 61.926,145.474 62.622,135.574 C63.257,126.547 63.185,126 61.363,126 C60.286,126 58.663,127.3 57.695,128.939 C55.914,131.953 52.802,133.614 51.009,132.506 C48.9,131.202 50.291,122.111 52.923,120 C53.266,119.725 54.334,118.263 55.296,116.75 C56.289,115.19 57.948,114 59.13,114 C60.726,114 61.043,113.591 60.483,112.25 C60.082,111.287 59.531,105.775 59.259,100 C58.909,92.54 58.321,88.993 57.228,87.75 C55.357,85.621 54.604,85.568 53.038,87.454 Z M144.257,38.437 C145.491,37.754 147.487,37.152 148.693,37.098 C151.005,36.995 154,40.341 154,43.026 C154,46.929 140.008,56 133.987,56 C132.498,56 130.371,57.041 129.104,58.389 C127.87,59.703 125.525,61.045 123.893,61.371 C120.968,61.956 113.521,66.931 109.374,71.072 C108.204,72.239 106.429,73.037 105.428,72.844 C102.946,72.366 99.685,66.566 100.484,64.051 C101.082,62.166 113.495,53.037 115.552,52.969 C116.073,52.952 118.75,51.831 121.5,50.478 C124.25,49.125 127.039,48.014 127.697,48.009 C129.29,47.997 137.936,43.368 140.21,41.31 C141.202,40.412 143.023,39.119 144.257,38.437 Z"/>
</svg>

