<svg xmlns="http://www.w3.org/2000/svg" width="300" height="300" viewBox="0 0 300 300" version="1.1">
  <defs/>
  <path d="M37.75,56.689 C40.664,55.928 40.853,55.955 41.691,57.25 C42.136,57.938 42.95,62.77 43.5,67.989 C44.605,78.475 46.159,80.399 49.192,75.034 C51.375,71.172 56.607,68.008 60.82,68.004 C65.683,67.998 72.531,73.08 75.019,78.541 C76.134,80.99 77.574,87.404 78.219,92.796 L79.391,102.6 L82.668,102.6 C84.668,102.6 86.858,103.457 88.287,104.8 C89.575,106.01 91.093,107 91.661,107 C92.229,107 94.225,108.466 96.097,110.257 C99.955,113.949 104.424,117 105.975,117 C107.375,117 116.947,110.271 119.681,107.364 C120.881,106.089 123.635,103.798 125.802,102.273 C127.969,100.748 133.963,96.534 139.121,92.909 C156.391,80.773 168.533,75 176.789,75 C180.28,75 181.739,75.585 184.077,77.923 C185.685,79.531 186.999,81.668 186.997,82.673 C186.996,83.678 184.1,87.538 180.563,91.25 C175.407,96.661 173.535,98 171.125,98 C167.058,98 166.446,96.554 168.544,91.903 C169.517,89.745 169.997,87.664 169.611,87.277 C168.456,86.123 148.818,96.931 144.462,101.118 C142.241,103.253 139.916,105 139.294,105 C138.672,105 136.365,106.688 134.167,108.75 C131.969,110.813 127.406,114.75 124.027,117.5 C111.561,127.645 105.139,129.32 98.962,124.041 C97.058,122.413 94.773,121.063 93.885,121.041 C92.997,121.018 91.126,120.1 89.727,119 C88.329,117.9 86.558,117 85.792,117 C85.027,117 83.879,116.479 83.242,115.842 C82.366,114.966 81.693,115.01 80.471,116.024 C79.049,117.204 78.931,119.572 79.482,135.932 C80.304,160.402 80.304,162.791 79.471,167.5 C78.279,174.239 74.972,176.227 72.818,171.5 C71.338,168.251 70.497,168.343 66.008,172.25 C63.954,174.037 59.5,177.473 56.11,179.884 C52.719,182.295 49.027,185.557 47.905,187.134 C45.445,190.588 44.003,190.723 41.31,187.75 C39.374,185.614 39.285,184.44 39.55,164.5 C39.704,152.95 39.424,138.1 38.928,131.5 C38.432,124.9 37.527,112.525 36.917,104 C36.306,95.475 35.385,85.125 34.87,81 C32.774,64.224 32.755,63.448 34.418,62.068 C35.288,61.346 36,59.943 36,58.951 C36,57.959 36.788,56.941 37.75,56.689 Z M170.375,109.75 C171.135,107.385 172.306,107.545 175.809,110.492 C177.952,112.296 178.956,114.223 179.442,117.465 C179.951,120.853 180.831,122.456 183.055,124.039 C186.729,126.655 187.551,129.741 185.736,134.108 C184.118,138.004 184.327,162.727 185.993,164.393 C187.345,165.745 191.463,163.402 196.795,158.245 C203.546,151.715 208.241,151.269 209.508,157.036 C210.116,159.805 209.726,160.696 206.431,164.07 C204.356,166.196 201.273,168.594 199.579,169.4 C194.394,171.869 188.122,177.897 187.197,181.299 C186.719,183.06 186.689,188.325 187.131,193 C187.572,197.675 188.68,215.675 189.593,233 C191.813,275.107 192.798,290.656 193.568,295.75 L194.21,300 L184,300 L183.988,290.25 C183.982,284.887 183.087,270.6 182,258.5 C180.913,246.4 180.018,232.361 180.012,227.301 C180.005,222.242 179.301,212.792 178.447,206.301 C177.581,199.721 177.18,192.401 177.54,189.754 C178.422,183.278 176.863,182.954 168.919,187.965 C165.389,190.192 161.375,192.52 160,193.138 C158.625,193.756 156.054,194.971 154.286,195.839 C151.205,197.351 150.966,197.317 148.536,195.034 C144.913,191.63 145.171,187.349 149.295,182.43 C151.107,180.268 154.188,176.025 156.143,173 C164.335,160.32 167,155.91 167,155.033 C167,154.523 168.125,151.99 169.5,149.404 C172.285,144.165 172.864,137.269 170.59,136.396 C168.594,135.63 163.451,138.49 156.663,144.141 C150.215,149.508 149.483,149.747 146.829,147.345 C144.334,145.088 144.533,142.796 147.5,139.595 C148.875,138.111 150,136.481 150,135.972 C150,135.463 151.238,134.276 152.75,133.336 C154.262,132.395 156.327,130.922 157.337,130.063 C158.348,129.203 161.273,127.775 163.837,126.889 L168.5,125.279 L168.21,120.943 C168.05,118.559 168.346,115.459 168.866,114.054 C169.387,112.649 170.066,110.713 170.375,109.75 Z M113.75,132.08 C118.83,129.121 125.893,134.605 122.082,138.55 C121.578,139.072 120.852,141.632 120.47,144.238 C119.588,150.262 121.52,151.423 126.062,147.601 C133.111,141.67 141,145.827 141,155.472 C141,161.343 137.789,172.895 134.542,178.703 C133.144,181.205 132,183.774 132,184.411 C132,185.049 129.3,189.703 126,194.755 C122.7,199.807 120,204.413 120,204.992 C120,205.571 118.262,207.947 116.139,210.272 C114.015,212.598 111.652,215.668 110.889,217.095 C109.564,219.569 96.824,231.647 92.403,234.62 C89.974,236.252 80.011,239 76.519,239 C73.71,239 72.214,235.652 74.04,233.452 C74.703,232.653 76.796,232 78.692,232 C83.45,232 89.269,227.754 97.876,218.003 C101.794,213.564 104.993,209.609 104.985,209.216 C104.952,207.684 103.392,206.237 101,205.52 C99.625,205.108 97.6,204.034 96.5,203.135 C93.354,200.563 90.192,199 88.136,199 C87.096,199 85.646,198.278 84.914,197.396 C83.963,196.251 82.52,195.935 79.864,196.291 C75.321,196.901 72,194.863 72,191.466 C72,186.983 81.944,183.631 87.021,186.403 C88.384,187.147 91.567,188.886 94.093,190.267 C100.922,193.999 106.748,197.783 107.475,198.959 C109.424,202.113 114.791,196.26 120.733,184.5 C132.172,161.863 132.934,153.328 122.657,162.961 C120.333,165.139 116.197,169.882 113.466,173.502 C108.32,180.321 105.116,182.171 102.381,179.901 C100.23,178.116 101.08,170.628 103.767,167.688 C104.867,166.484 106.488,164.07 107.371,162.323 C108.946,159.205 112,141.876 112,136.056 C112,134.295 112.708,132.687 113.75,132.08 Z M139.284,3.75 C140.354,0.885 149,2.084 149,5.097 C149,6.222 144.866,15.741 142.31,20.5 C140.316,24.211 139.312,26.237 134.006,37.25 C131.687,42.063 129.448,46 129.031,46 C128.613,46 127.469,48.138 126.487,50.75 C125.506,53.363 123.87,56.694 122.851,58.154 C120.445,61.605 120.461,61.694 124.106,65.099 C127.815,68.564 128.676,68.653 131.635,65.873 C135.22,62.506 137,64.006 137,70.396 C137,75.102 136.637,76.141 134.365,77.927 C132.916,79.067 130.832,80 129.733,80 C127.737,80 121.673,76.718 119.179,74.287 C117.792,72.937 115.382,72.549 110.689,72.921 C106.581,73.247 105,71.415 105,66.327 C105,62.256 105.268,61.786 108.322,60.51 C112.23,58.877 115.498,54.383 120.499,43.765 C122.502,39.511 124.56,35.772 125.071,35.456 C125.582,35.14 126,34.168 126,33.296 C126,32.424 127.575,28.435 129.5,24.433 C131.425,20.431 133,16.608 133,15.939 C133,15.269 134.267,12.646 135.815,10.111 C137.364,7.575 138.924,4.713 139.284,3.75 Z M65.438,138.071 C64.372,139.251 61.264,141.35 58.532,142.736 C53.935,145.066 53.486,145.127 52.532,143.541 C49.753,138.924 49.099,138.412 48.009,140 C47.443,140.825 47.275,142.625 47.634,144 C47.994,145.375 48.189,151.787 48.066,158.25 C47.844,169.968 47.85,170 50.172,169.927 C51.452,169.887 53.689,169.099 55.142,168.177 C56.596,167.255 60.255,165.035 63.275,163.244 C66.295,161.453 69.29,159.355 69.932,158.582 C70.7,157.656 70.996,153.659 70.799,146.851 C70.556,138.443 70.21,136.469 68.938,136.225 C68.08,136.061 66.505,136.891 65.438,138.071 Z M151.194,42.996 C155.402,39.049 157.114,38.068 159.468,38.259 C161.849,38.452 162.613,39.119 163.328,41.626 C165.031,47.606 157.554,63.76 151.609,66.941 C150.176,67.709 148.678,68.012 148.281,67.615 C146.985,66.319 148.145,59.631 150.095,57.152 C153.792,52.453 151.137,51.331 146.182,55.5 C142.878,58.281 138.868,58.751 137.058,56.57 C136.405,55.783 136.012,53.421 136.185,51.32 L136.5,47.5 L141.194,47.737 C145.58,47.958 146.238,47.647 151.194,42.996 Z M56.83,82.75 C55.43,84.263 53.262,87.525 52.012,90 C50.761,92.475 49.122,95.694 48.369,97.154 C46.433,100.907 46.526,110 48.5,110 C49.325,110 50,109.36 50,108.578 C50,107.796 52.138,105.324 54.75,103.084 C58.698,99.701 60.223,99.012 63.781,99.006 C69.325,98.998 69.732,97.768 67.08,89.038 C64.241,79.689 61.319,77.898 56.83,82.75 Z M58.586,116.452 C53.438,122.415 51.681,123.141 50,120 C47.836,115.957 47.104,118.094 47.687,126.75 C48.012,131.563 48.447,135.695 48.655,135.933 C48.863,136.172 49.566,135.834 50.217,135.183 C50.867,134.533 52.12,134 53.001,134 C53.881,134 57.863,131.235 61.848,127.855 L69.094,121.71 L68.797,116.605 C68.527,111.963 68.268,111.473 65.938,111.202 C63.898,110.964 62.4,112.034 58.586,116.452 Z M171.241,161.986 C170.558,163.079 170,164.589 170,165.343 C170,166.096 168.425,168.775 166.5,171.296 C164.575,173.817 163,176.357 163,176.94 C163,178.508 165.568,178.226 167,176.5 C167.685,175.675 168.804,175 169.488,175 C170.171,175 171.916,174.067 173.365,172.927 C175.633,171.143 176,170.1 176,165.427 C176,160.914 175.704,160 174.241,160 C173.273,160 171.923,160.894 171.241,161.986 Z"/>
</svg>

