<svg xmlns="http://www.w3.org/2000/svg" width="300" height="300" viewBox="0 0 300 300" version="1.1">
  <defs/>
  <path d="M44.145,73.325 C45.517,71.672 51.19,71.59 52.8,73.2 C53.46,73.86 54,76.11 54,78.2 C54,80.29 54.417,82 54.927,82 C55.437,82 57.182,80.39 58.804,78.421 C61.01,75.745 62.745,74.71 65.682,74.316 C69.171,73.848 70.021,74.187 73.274,77.347 C75.289,79.303 77.239,82.163 77.607,83.702 C77.975,85.241 78.615,86.95 79.031,87.5 C79.446,88.05 80.038,90.525 80.347,93 C80.656,95.475 81.354,100.65 81.899,104.5 C82.443,108.35 83.178,116.668 83.53,122.984 C83.883,129.301 84.345,134.749 84.556,135.091 C84.768,135.433 85.047,146.776 85.178,160.298 C85.398,183.069 85.278,185.035 83.553,186.941 C80.84,189.939 78.381,189.532 77.106,185.873 C76.07,182.901 75.904,182.82 73.768,184.238 C72.532,185.059 71.126,187.4 70.643,189.442 C70.16,191.483 69.109,193.405 68.306,193.713 C67.503,194.021 66.442,195.336 65.948,196.636 C64.831,199.574 62.33,199.659 59.352,196.861 C57.171,194.812 56.965,194.793 54.478,196.422 C53.05,197.358 50.896,197.983 49.691,197.812 L47.5,197.5 L47.5,160.5 C47.5,124.518 46.367,103.062 43.829,91 C42.447,84.432 42.612,75.172 44.145,73.325 Z M157.788,169.5 C161.212,167.677 164.024,167 168.169,167 C173.181,167 174.111,167.326 176.018,169.75 C179.083,173.645 181,178.662 181,182.784 C181,187.858 177.9,196.983 175.794,198.11 C174.807,198.638 174,199.661 174,200.382 C174,201.104 173.073,202.775 171.939,204.097 C170.806,205.419 169.006,207.516 167.939,208.758 C166.873,209.999 166,211.446 166,211.972 C166,212.499 165.1,213.411 164,214 C162.9,214.589 162,215.912 162,216.94 C162,219.006 162.649,219.004 178.5,216.889 C182.9,216.302 189.108,215.974 192.296,216.161 C197.536,216.467 198.281,216.8 200.066,219.626 L202.039,222.752 L199.609,225.091 C197.294,227.32 196.593,227.418 184.839,227.17 C171.902,226.896 157.575,228.278 155.502,229.998 C153.748,231.454 143.088,235 140.466,235 C137.075,235 135.995,232.879 135.559,225.372 C135.34,221.592 134.452,217.15 133.587,215.5 C132.721,213.85 132.01,211.929 132.006,211.23 C131.995,208.969 126.816,201.652 120.75,195.327 C116.045,190.421 114.719,188.32 114.286,185.095 C113.861,181.927 114.099,180.899 115.373,180.41 C118.983,179.025 122.716,181.128 127.789,187.405 C129.622,189.672 130.903,189.386 132.015,186.46 C133.303,183.072 137.257,179.796 144.224,176.345 C147.382,174.78 149.974,173.162 149.984,172.75 C149.993,172.338 150.696,172 151.546,172 C152.396,172 155.205,170.875 157.788,169.5 Z M135.93,58.75 C137.177,56.688 138.728,55 139.376,55 C141.751,55 144.878,58.094 145.185,60.749 C145.449,63.038 146.095,63.572 149.198,64.072 C153.48,64.762 156,66.547 156,68.89 C156,69.794 154.041,72.777 151.647,75.517 C149.253,78.258 147.066,81.85 146.788,83.5 C146.51,85.15 145.946,87.287 145.534,88.25 C144.362,90.991 146.808,90.376 150.712,86.948 C154.662,83.479 156.366,83.54 156.801,87.164 C157.03,89.074 155.659,91.204 151.059,96.087 C147.592,99.766 145.013,103.407 145.008,104.628 C145.004,105.798 144.358,107.288 143.573,107.939 C142.744,108.627 141.882,111.927 141.516,115.812 C141.169,119.49 140.236,124.315 139.443,126.533 C138.649,128.752 138,131.763 138,133.224 C138,134.686 137.55,136.16 137,136.5 C136.45,136.84 136,137.815 136,138.667 C136,140.62 138.972,139.975 148,136.06 C156.795,132.247 174.531,125.474 179.747,123.937 C183.557,122.814 184.21,122.88 186.089,124.581 C187.703,126.042 188.059,127.246 187.641,129.828 C186.901,134.386 185.33,135.999 181.628,136.004 C179.907,136.006 177.045,136.895 175.267,137.979 C173.489,139.063 171.327,139.679 170.463,139.347 C169.599,139.016 167.229,139.428 165.196,140.262 C163.163,141.097 158.35,142.993 154.5,144.475 C150.65,145.957 146.306,147.807 144.846,148.585 C143.386,149.363 141.536,150 140.734,150 C139.933,150 136.002,151.8 132,154 C127.998,156.2 124.529,158 124.292,158 C124.054,158 121.979,159.273 119.68,160.83 C117.381,162.386 114.99,163.955 114.368,164.316 C112.657,165.308 107.995,161.158 108.033,158.677 C108.086,155.245 111.363,152.142 119.675,147.657 C128.148,143.085 128.261,142.904 130.136,131 C132.085,118.622 132.717,113.498 132.347,113.071 C132.143,112.835 130.649,113.623 129.028,114.821 C127.407,116.019 125.414,117 124.6,117 C123.785,117 122.84,117.45 122.5,118 C121.476,119.658 117.425,119.127 115.585,117.094 C114.49,115.884 113.976,113.98 114.18,111.883 C114.466,108.931 114.915,108.492 118.392,107.775 C120.533,107.334 124.864,105.405 128.016,103.49 C133.855,99.944 135,97.956 135,91.375 C135,88.258 133.711,88.379 128.345,92 C122.481,95.958 118.555,95.974 116.526,92.05 C114.674,88.47 114.572,86.06 116.25,85.579 C122.631,83.749 127.352,81.36 130.362,78.437 C133.767,75.13 133.941,74.638 133.805,68.727 C133.693,63.851 134.154,61.686 135.93,58.75 Z M128.668,16.253 C131.098,14.477 131.441,14.599 134.822,18.45 C137.552,21.56 137.847,22.551 137.813,28.504 C137.792,32.136 138.057,35.39 138.402,35.736 C138.748,36.081 140.507,34.932 142.313,33.182 C144.118,31.432 146.335,30 147.239,30 C148.142,30 149.16,29.55 149.5,29 C151.208,26.236 160.223,29.977 161.493,33.977 C161.976,35.501 161.233,37.328 158.832,40.521 C154.709,46.002 152.754,46.713 148.299,44.351 L144.808,42.5 L143.154,44.955 C142.244,46.306 139.055,49.793 136.068,52.705 C128.213,60.361 124.919,59.887 119.842,50.369 C118.707,48.241 117.132,45.286 116.342,43.802 C115.552,42.319 113.346,40.141 111.44,38.963 C106.184,35.714 104.306,30.651 107.404,28.079 C110.845,25.224 120.487,32.163 124.318,40.25 C126.197,44.218 129.289,45.295 130.411,42.373 C131.462,39.631 129.832,30.663 127.74,27.678 C125.408,24.352 125.901,18.277 128.668,16.253 Z M163.5,178.655 C159.597,179.548 155.46,181.407 152.5,183.598 C150.85,184.82 148.386,185.972 147.025,186.16 C145.664,186.347 144.049,187.509 143.436,188.743 C142.824,189.977 141.617,191.777 140.756,192.743 C138.977,194.738 139.015,203.445 140.825,208.5 C141.416,210.15 142.275,213.072 142.735,214.993 C143.195,216.914 144.23,218.612 145.035,218.766 C148.168,219.366 167.911,196.683 167.982,192.404 C167.992,191.801 168.728,189.847 169.619,188.063 C170.821,185.652 171.005,184.006 170.335,181.659 C169.42,178.455 167.692,177.695 163.5,178.655 Z M62.619,90.433 C61.178,92.322 60,95.177 60,96.778 C60,98.42 59.128,100.479 58,101.5 C56.191,103.137 56,104.58 56,116.596 C56,123.903 56.399,130.129 56.887,130.43 C58.032,131.138 59.562,129.17 60.331,126 C60.665,124.625 62.453,121.759 64.304,119.63 C66.902,116.644 68.145,115.911 69.751,116.421 C72.768,117.378 73.078,116.142 72.024,107.37 C69.422,85.721 68.07,83.286 62.619,90.433 Z M69.725,131.719 C68.301,133.799 66.578,136.748 65.896,138.274 C65.159,139.925 63.614,141.274 62.079,141.607 C60.66,141.915 58.99,142.32 58.367,142.507 C56.638,143.027 55.979,157.157 57.602,158.919 C58.715,160.127 59.582,159.719 63.432,156.169 C68.51,151.489 69.058,151.337 72.566,153.635 C73.939,154.535 75.175,155.097 75.313,154.885 C76.132,153.625 74.339,128.607 73.407,128.299 C72.806,128.101 71.149,129.64 69.725,131.719 Z M73.023,160.439 C72.513,161.781 71.09,163.417 69.861,164.074 C68.632,164.732 66.725,166.11 65.624,167.135 C64.397,168.279 62.148,169 59.811,169 L56,169 L56,179.5 C56,189.118 56.158,190 57.884,190 C59.919,190 63.318,186.311 70.968,175.8 C74.885,170.418 75.98,168.01 76.537,163.55 C77.132,158.791 76.997,158 75.59,158 C74.688,158 73.533,159.098 73.023,160.439 Z"/>
</svg>

