<svg xmlns="http://www.w3.org/2000/svg" width="300" height="300" viewBox="0 0 300 300" version="1.1">
  <defs/>
  <path d="M130.127,120.077 C131.432,119.554 132.627,119.098 132.782,119.063 C132.937,119.029 134.512,119.617 136.282,120.371 C140.212,122.046 143.115,125.144 146.011,130.755 C147.219,133.095 148.611,135.259 149.104,135.564 C149.597,135.869 150,137.162 150,138.437 C150,139.712 150.633,142.273 151.406,144.128 C153.946,150.222 155.04,165.896 154.724,191.683 L154.415,216.866 L157.207,220.611 C160.187,224.608 160.625,226.963 158.965,230.066 C157.713,232.405 155.142,232.576 153.569,230.425 C152.541,229.019 150.873,228.981 137.959,230.074 C130.006,230.747 122.6,231.837 121.5,232.498 C117.026,235.184 112.495,235.166 107.07,232.441 C101.578,229.683 99.416,226.381 100.636,222.618 C101.014,221.453 101.363,200.6 101.411,176.278 C101.5,132.196 101.507,132.048 103.685,129.87 C105.796,127.759 105.961,127.744 108.522,129.423 C111.016,131.057 111.154,131.552 110.837,137.747 C110.586,142.655 110.848,144.449 111.866,144.788 C113.551,145.35 114.964,143.265 114.985,140.186 C115.029,133.453 122.933,122.956 130.127,120.077 Z M124.975,47.53 C126.747,45.395 138.053,45.459 142.244,47.626 C144.644,48.867 146.926,49.109 151.868,48.648 C159.19,47.964 161,48.82 161,52.967 C161,57.249 157.746,59.385 150.162,60.081 C146.498,60.417 143.072,60.311 142.55,59.846 C142.028,59.381 140.067,59 138.193,59 C135.34,59 134.903,59.285 135.506,60.75 C137.442,65.452 137.204,66.119 131.376,72.314 C123.588,80.591 121.796,82.838 119.669,87 C115.789,94.588 111.707,101.772 108.021,107.5 C104.439,113.065 101.333,118.759 97.531,126.729 C96.684,128.505 93.968,133.38 91.495,137.562 C89.023,141.744 87,145.367 87,145.614 C87,145.86 82.612,152.625 77.25,160.646 C71.888,168.667 66.913,176.303 66.195,177.615 C65.478,178.927 64.465,180 63.945,180 C63.425,180 62.998,180.563 62.996,181.25 C62.99,182.934 56.23,191.799 47.745,201.25 C40.424,209.406 37.101,210.926 35.035,207.066 C32.968,203.204 34.118,201.052 43.971,190.34 C49.455,184.378 53.955,178.993 53.971,178.372 C53.987,177.752 54.708,176.657 55.573,175.939 C56.438,175.221 58.031,173.029 59.113,171.067 C60.195,169.105 62.173,165.925 63.51,164 C75.642,146.52 78.228,142.236 88.258,123 C89.549,120.525 91.893,116.25 93.469,113.5 C98.238,105.175 101.109,99.884 105.41,91.5 C110.981,80.641 118.804,70.23 125.593,64.641 C128.693,62.088 131.628,60 132.115,60 C134.095,60 132.79,58.074 129.492,56.128 C125.148,53.565 123.14,49.741 124.975,47.53 Z M127.837,137.559 C125.487,140.067 122.865,143.63 122.01,145.478 C119.944,149.945 117.084,153 114.967,153 C114.02,153 112.85,153.563 112.368,154.25 C111.885,154.938 111.493,164.5 111.495,175.5 C111.5,195.206 111.532,195.505 113.651,195.807 C114.922,195.988 118.811,194.155 123.151,191.329 C127.193,188.697 131.774,185.898 133.332,185.108 C137.269,183.11 141.111,184.579 142.154,188.482 C143.132,192.141 140.935,194.23 130.533,199.532 C126.701,201.485 122.78,203.794 121.818,204.665 C120.634,205.736 119.172,206.035 117.285,205.592 C114.594,204.959 113.158,204.552 112.364,205.091 C111.384,205.756 111.382,207.86 111.21,212.753 C110.926,220.797 110.985,221.036 113.524,222.193 C115.488,223.088 117.161,223.104 120.316,222.26 C122.619,221.645 128.552,220.613 133.501,219.969 C138.451,219.325 142.9,218.421 143.389,217.96 C144.34,217.064 146.218,198.464 146.112,191 C146.013,184.026 145.147,170.964 144.466,166.16 C143.884,162.054 143.707,161.856 141.175,162.475 C139.704,162.835 137.559,164.129 136.409,165.35 C135.259,166.571 131.053,169.801 127.064,172.527 L119.81,177.483 L117.905,175.131 C116.857,173.837 116,171.869 116,170.757 C116,168.328 121.305,163.146 128.51,158.537 C131.408,156.683 134.081,154.679 134.449,154.083 C135.516,152.356 138.181,152.821 140.682,155.171 C141.952,156.364 143.246,157.088 143.555,156.778 C144.241,156.092 141.133,144.879 139.889,143.55 C139.4,143.028 139,141.825 139,140.877 C139,139.027 134.383,133 132.966,133 C132.495,133 130.187,135.052 127.837,137.559 Z M103.75,17.088 C106.789,15.332 112,17.783 112,20.969 C112,21.917 112.705,24.106 113.567,25.834 C114.429,27.561 114.848,29.437 114.499,30.002 C114.15,30.567 114.383,33.53 115.018,36.587 C116.232,42.436 114.823,61.58 112.909,65.236 C112.409,66.191 112,67.599 112,68.364 C112,70.546 109.892,71.754 104.75,72.52 C99.252,73.338 98.87,72.578 101.922,66.885 C106.29,58.734 107.449,39.411 104.022,31.859 C101.47,26.236 101.328,18.488 103.75,17.088 Z M67.993,65.508 C68.844,64.484 71.09,64 75,64 C81.802,64 83.57,65.371 82.021,69.443 C81.46,70.921 81,73.176 81,74.454 C81,75.733 80.186,77.784 79.19,79.013 C77.484,81.12 77.212,81.161 74.438,79.726 C72.819,78.89 70.69,77.315 69.705,76.226 C67.345,73.619 66.363,67.472 67.993,65.508 Z"/>
</svg>

