<svg xmlns="http://www.w3.org/2000/svg" width="300" height="300" viewBox="0 0 300 300" version="1.1">
  <defs/>
  <path d="M148.5,81.011 C152.481,79.778 157.803,80.511 160.124,82.612 C161.329,83.703 162,85.663 162,88.096 C162,90.178 162.509,92.197 163.132,92.581 C163.904,93.059 164.047,95.375 163.581,99.89 C163.206,103.526 162.518,110.617 162.052,115.648 C161.177,125.081 158.66,131.283 153.991,135.508 C152.374,136.971 152,138.59 152,144.12 C152,153.845 153.407,154.332 163.003,147.931 C167.069,145.219 170.992,143 171.719,143 C172.447,143 173.552,141.884 174.173,140.519 C176.463,135.494 182.251,136.506 183.376,142.128 C184.329,146.893 182.144,149.302 172.607,154.005 C167.957,156.297 163.374,159.034 162.422,160.087 C161.469,161.139 160.108,162 159.396,162 C157.568,162 152.01,168.16 152.005,170.191 C152.002,171.121 151.55,172.16 151,172.5 C150.45,172.84 149.993,174.329 149.985,175.809 C149.971,178.567 147.459,186.688 146.063,188.492 C144.716,190.233 142.293,198.442 142.74,199.75 C143.019,200.567 145.281,201 149.268,201 C153.211,201 156.806,201.68 159.434,202.923 C161.67,203.981 165.075,205.303 167,205.862 C173.175,207.654 179.173,210.024 187.748,214.06 C192.352,216.227 196.504,218 196.976,218 C197.447,218 197.983,218.342 198.167,218.759 C198.35,219.176 200.75,220.688 203.5,222.118 C214.248,227.706 217.979,229.872 227.563,236.086 C239.94,244.111 240.459,244.428 246.179,247.472 C248.753,248.842 251.142,250.421 251.488,250.981 C251.835,251.541 253.357,252 254.872,252 C256.613,252 258.66,253.08 260.438,254.935 C262.704,257.3 263.115,258.416 262.557,260.685 C260.733,268.101 256.804,269.933 252.836,265.217 C250.34,262.251 233,250.536 219.55,242.729 C217.873,241.756 213.8,239.198 210.5,237.046 C207.2,234.895 198.425,230.101 191,226.393 C171.896,216.854 170.017,216 168.128,216 C167.202,216 165.557,215.399 164.473,214.665 C162.777,213.517 158.798,212.165 141.635,206.902 C140.059,206.419 138.348,206.285 137.832,206.604 C137.317,206.922 135.096,210.854 132.898,215.342 C130.7,219.829 126.751,226.65 124.123,230.5 C121.495,234.35 117.419,240.531 115.065,244.235 C112.711,247.939 109.363,251.849 107.625,252.923 C105.888,253.997 103.383,256.028 102.059,257.438 C99.353,260.318 98.954,260.393 93.849,258.975 C88.274,257.426 87.473,252 92.82,252 C94.687,252 96.926,250.414 100.713,246.409 C103.621,243.334 106,240.321 106,239.714 C106,239.106 107.085,237.46 108.412,236.055 C111.33,232.964 120,220.09 120,218.848 C120,218.36 121.182,216.088 122.626,213.8 C124.071,211.512 125.878,208.258 126.641,206.57 C127.405,204.881 128.436,202.825 128.932,202 C129.428,201.175 130.502,198.925 131.32,197 C132.137,195.075 133.686,191.475 134.761,189 C138.471,180.463 139,178.897 139,176.453 C139,173.152 137.962,173.352 132.845,177.641 C130.455,179.644 125.328,182.751 121.451,184.546 C117.574,186.341 113.807,188.528 113.079,189.405 C112.351,190.282 110.72,191 109.454,191 C108.189,191 105.09,192.575 102.568,194.5 C97.394,198.449 90.488,199.434 89.319,196.39 C88.223,193.534 90.302,187.55 92.5,187.234 C94.322,186.973 101.297,183.966 105,181.846 C105.825,181.374 107.175,180.732 108,180.421 C108.825,180.109 110.4,179.344 111.5,178.72 C113.897,177.362 122.944,172.463 128.5,169.516 C130.7,168.349 134.423,166.114 136.774,164.548 L141.048,161.702 L140.76,155.101 L140.472,148.5 L137.259,148.811 C134.569,149.071 133.734,148.611 132.138,145.986 C131.089,144.261 129.318,142.211 128.204,141.43 C125.936,139.841 124.717,134.646 124.469,125.5 C124.258,117.724 123.508,114.939 119.396,106.67 C117.528,102.914 116,98.371 116,96.575 C116,89.988 123.572,87.497 125.347,93.5 C126.693,98.055 127.568,99.471 129.236,99.8 C130.341,100.018 130.939,98.894 131.418,95.7 C132.322,89.669 138.955,83.965 148.5,81.011 Z M43.394,68.765 C44.002,68.361 45.908,68.024 47.629,68.015 C50.134,68.003 50.993,68.569 51.939,70.854 C52.59,72.423 53.024,74.786 52.905,76.104 C52.13,84.69 54.5,88.036 57.03,81.928 C57.73,80.238 60.295,76.863 62.73,74.428 C66.456,70.702 67.777,70 71.065,70 C74.481,70 75.288,70.477 77.489,73.803 C78.873,75.895 80.128,79.383 80.278,81.553 C80.428,83.724 80.982,86.175 81.51,87 C82.068,87.872 82.561,103.992 82.688,125.5 C82.808,145.85 83.349,165.575 83.889,169.334 C84.43,173.092 84.627,176.809 84.326,177.592 C83.342,180.157 79.107,180.449 76.63,178.122 C75.388,176.955 74.123,176 73.821,176 C73.518,176 69.722,179.611 65.385,184.025 L57.5,192.051 L52,191.775 L46.5,191.5 L46.604,183.5 C46.662,179.1 46.923,166.725 47.184,156 C47.75,132.745 45.97,102.71 43.124,87.5 C41.09,76.629 41.182,70.235 43.394,68.765 Z M152.327,32.974 C158.179,28.851 160.132,28 163.741,28 C167.165,28 168.619,28.565 170.548,30.646 C173.165,33.47 173.539,35.525 172.104,39.203 C171.611,40.466 170.627,43.449 169.917,45.831 C168.97,49.008 167.182,51.405 163.199,54.831 C160.214,57.399 157.252,59.991 156.615,60.592 C154.538,62.554 150.98,64.106 149.979,63.487 C147.506,61.959 149.272,58.143 156.328,49.775 C161.118,44.093 162.004,40.817 158.911,40.221 C157.068,39.866 141.448,55.361 138.766,60.204 C137.762,62.017 136.087,64.85 135.043,66.5 C134,68.15 133.113,70.322 133.073,71.327 C132.974,73.791 127.63,79 125.199,79 C124.124,79 122.641,78.273 121.904,77.384 C120.327,75.484 118.037,69.24 118.015,66.784 C117.99,63.963 110.471,47.636 108.408,45.924 C106.142,44.043 104.702,37.875 105.837,34.911 C106.676,32.72 107.309,32.392 109.954,32.78 C113.123,33.245 117.967,38.231 118.032,41.094 C118.049,41.867 118.724,43.374 119.532,44.441 C120.339,45.509 121,47.069 121,47.908 C121,50.379 124.188,58 125.222,58 C125.745,58 130.469,53.488 135.72,47.974 C140.971,42.46 148.445,35.71 152.327,32.974 Z M66.275,150.422 C64.692,151.754 61.845,152.991 59.949,153.172 L56.5,153.5 L56.189,165.653 C56.008,172.688 56.281,178.056 56.836,178.399 C57.719,178.945 61.346,176.46 69.182,169.94 C72.146,167.474 72.278,167.023 72.766,157.69 C73.251,148.409 73.186,148 71.213,148 C70.08,148 67.858,149.09 66.275,150.422 Z M64.174,88.314 C62.978,89.587 61.998,91.5 61.996,92.564 C61.994,93.629 61.094,95.973 59.996,97.774 C58.898,99.575 58,101.911 58,102.965 C58,104.019 57.55,105.16 57,105.5 C55.495,106.43 55.723,116.002 57.25,115.993 C57.938,115.989 60.525,113.518 63,110.5 C66.017,106.821 68.241,105.011 69.75,105.007 C71.816,105.001 72,104.54 72,99.366 C72,92.034 70.202,86 68.016,86 C67.099,86 65.37,87.042 64.174,88.314 Z M147.518,92.972 C147.187,93.506 144.949,94.814 142.543,95.878 C140.137,96.942 137.435,98.933 136.538,100.302 C135.641,101.671 134.028,103.021 132.953,103.302 C130.895,103.84 130.302,106.451 132,107.5 C132.55,107.84 133,109.404 133,110.976 C133,115.508 135.11,115.078 140.709,109.404 C144.898,105.16 146.661,104.064 149.709,103.813 C153.321,103.515 153.515,103.319 153.816,99.652 C154.248,94.392 149.652,89.518 147.518,92.972 Z M68.356,119.774 C67.178,120.723 65.933,122.4 65.59,123.5 C65.247,124.6 63.174,126.824 60.983,128.442 C57.48,131.029 56.982,131.903 56.85,135.692 C56.768,138.061 56.655,140.563 56.6,141.25 C56.391,143.859 61.069,143.147 64.784,140.005 C69.759,135.797 71.742,134.251 72.476,132.247 C73.023,130.754 72.877,129.008 72.757,125.72 C72.616,121.84 72.05,118.526 71.5,118.356 C70.95,118.186 69.535,118.824 68.356,119.774 Z M148.356,115.992 C147.176,116.468 145.187,118.908 143.935,121.415 C142.683,123.922 140.824,126.239 139.803,126.563 C135.637,127.885 133.625,135 137.418,135 C139.004,135 144,129.061 144,127.175 C144,126.55 145.143,125.751 146.539,125.401 C149.629,124.625 154.444,118.599 153.642,116.51 C153,114.835 151.57,114.695 148.356,115.992 Z"/>
</svg>

