<svg xmlns="http://www.w3.org/2000/svg" width="300" height="300" viewBox="0 0 300 300" version="1.1">
  <defs/>
  <path d="M133.92,16.25 C133.964,16.113 134.983,16 136.186,16 C138.866,16 143,19.71 143,22.115 C143,24.85 144.512,25.179 148.94,23.407 C152.705,21.901 153.2,21.901 155.506,23.412 C156.878,24.311 158,25.875 158,26.888 C158,29.626 154.119,34.052 150.332,35.635 L147,37.027 L147,60 L152.95,60 C158.778,60 158.978,60.092 162.662,64.5 C164.731,66.975 166.778,69 167.212,69 C167.645,69 168.9,68.1 170,67 C172.344,64.656 175.825,64.42 178.559,66.42 C180.071,67.526 180.46,68.905 180.317,72.665 C180.163,76.706 179.616,77.953 176.954,80.333 C175.028,82.053 173.047,82.984 171.933,82.693 C168.94,81.91 167.36,84.084 165.566,91.458 C163.712,99.08 159.394,106.593 155.004,109.839 C152.424,111.746 152.126,112.644 151.475,120.461 C150.55,131.568 151.694,146 153.501,146 C154.227,146 155.749,144.088 156.882,141.75 C158.015,139.412 160.38,135.928 162.137,134.007 C167.172,128.501 175,117.371 175,115.717 C175,112.187 181.692,112.06 183.025,115.565 C185.118,121.072 184.253,124.982 180,129.235 C177.8,131.435 176,133.631 176,134.115 C176,134.598 174.522,136.683 172.716,138.747 C170.91,140.811 168.548,144.216 167.466,146.313 C164.626,151.822 160.121,157 158.168,157 C156.007,157 153.596,160.65 153.213,164.5 C152.36,173.082 152.205,181.779 152.698,193.506 L153.244,206.512 L160.372,209.32 C164.292,210.865 170.65,214.353 174.5,217.071 C178.35,219.788 183.075,222.73 185,223.606 C186.925,224.483 190.975,226.676 194,228.479 C197.025,230.283 201.207,232.36 203.294,233.096 C205.381,233.832 207.856,235.139 208.794,236.002 C209.732,236.864 214.466,240.029 219.313,243.035 C224.16,246.041 231.135,250.393 234.813,252.708 C238.491,255.022 242.002,256.934 242.615,256.958 C243.228,256.981 244.874,257.9 246.273,259 C247.671,260.1 249.298,261 249.888,261 C250.478,261 253.355,262.532 256.282,264.403 C263.462,268.997 268.515,271 272.922,271 C277.288,271 279,272.432 279,276.086 C279,278.158 278.222,279.141 275.599,280.386 C270.862,282.634 263.181,282.501 260.564,280.126 C258.328,278.096 251.39,274.035 243.595,270.192 C240.897,268.862 236.622,266.362 234.095,264.637 C227.739,260.298 225.981,259.247 222.311,257.591 C220.557,256.8 216.638,254.318 213.603,252.076 C210.569,249.834 207.63,248 207.073,248 C205.599,248 198.954,244.137 195.655,241.362 C194.09,240.046 189.815,237.546 186.155,235.808 C179.808,232.793 172.825,228.481 168.5,224.906 C167.4,223.997 162.675,221.59 158,219.556 C153.325,217.523 148.6,215.453 147.5,214.955 C146.4,214.458 142.8,213.07 139.5,211.871 C136.2,210.672 132.6,209.14 131.5,208.466 C130.4,207.792 125.225,206.469 120,205.526 C114.775,204.583 109.762,203.614 108.859,203.373 C107.78,203.084 106.824,203.887 106.066,205.717 C104.069,210.538 100.864,216.424 99.106,218.5 C98.174,219.6 96.412,222.588 95.19,225.14 C93.969,227.692 92.301,230.335 91.485,231.013 C90.668,231.69 90,232.711 90,233.282 C90,236.955 68.245,260.384 65.348,259.832 C62.27,259.245 62.484,255.14 65.775,251.635 C69.46,247.71 77,237.371 77,236.242 C77,235.777 78.913,232.542 81.25,229.052 C87.184,220.191 88.633,217.73 89.471,215.092 C89.872,213.828 91.246,211.252 92.525,209.369 C96.23,203.908 101.533,191.992 105.371,180.5 C106.841,176.1 108.587,170.925 109.253,169 C109.918,167.075 110.695,162.171 110.981,158.103 C111.59,149.427 113.203,147.471 117.661,150 C121.231,152.025 123.705,160.136 122.107,164.571 C121.498,166.26 121,168.208 121,168.9 C121,169.593 119.843,173.161 118.428,176.829 C114.872,186.051 114.565,186.808 111.961,192.747 C110.696,195.633 109.91,198.243 110.213,198.547 C110.517,198.851 113.781,198.574 117.467,197.932 C125.566,196.522 129.653,197.086 136.224,200.522 C138.969,201.957 141.841,202.891 142.607,202.597 C143.737,202.164 143.996,198.132 143.98,181.281 C143.969,169.852 143.519,157.444 142.979,153.709 C142.438,149.975 141.898,142.61 141.776,137.343 C141.523,126.306 140.753,125.361 135.509,129.644 C133.586,131.215 130.485,133.738 128.619,135.25 C124.418,138.654 122.024,138.719 119.01,135.51 C116.699,133.051 116.694,132.996 118.584,130.907 C119.637,129.744 121.9,128.052 123.615,127.146 C125.329,126.241 129.65,122.8 133.217,119.5 C138.177,114.912 139.863,112.636 140.382,109.828 C140.78,107.675 140.644,105.898 140.053,105.532 C139.498,105.19 133.746,109.224 127.272,114.497 C120.797,119.771 114.449,124.35 113.165,124.672 C110.102,125.442 107.9,123.173 107.785,119.128 C107.69,115.813 111.201,112.053 119.845,106.212 C121.855,104.854 125.075,102.435 127,100.836 C132.562,96.219 132.868,96 133.783,96 C137.16,96 142.106,83.166 138.838,82.885 C135.78,82.622 133.684,83.275 130.373,85.522 C128.448,86.828 124.797,88.208 122.259,88.588 C118.219,89.194 117.419,89 115.823,87.029 C112.33,82.716 114.024,78 119.065,78 C120.531,78 122.803,77.184 124.115,76.186 C125.427,75.188 128.099,73.634 130.053,72.733 C137.342,69.37 137.85,67.59 137.162,47.857 C136.967,42.268 135.088,41.089 131.005,43.997 C127.39,46.57 125.19,46.527 122.314,43.826 C118.178,39.94 120.168,36.201 127.307,34.445 C131.417,33.434 133.472,29.591 133.67,22.545 C133.764,19.22 133.877,16.387 133.92,16.25 Z M48.273,78.641 C48.894,77.098 49.657,76.901 52.753,77.481 C57.805,78.429 58,78.618 58,82.559 C58,84.951 58.457,86 59.5,86 C60.325,86 61,85.592 61,85.094 C61,83.477 70.269,77.999 72.921,78.048 C74.34,78.074 77.075,78.866 79,79.807 C81.873,81.211 82.619,82.233 83.164,85.509 C83.53,87.704 84.347,91.3 84.98,93.5 C86.188,97.698 88.124,127.567 87.8,137 C87.696,140.025 87.658,144.075 87.715,146 C87.773,147.925 88.025,158.275 88.275,169 C88.526,179.725 89.065,189.291 89.475,190.258 C90.478,192.625 87.517,197 84.911,197 C83.788,197 82.053,196.563 81.055,196.03 C79.388,195.137 79.262,193.534 79.494,176.133 C79.632,165.723 79.365,156.597 78.901,155.853 C78.263,154.831 77.261,155.478 74.804,158.5 C70.353,163.973 62.766,170.976 61.273,170.989 C60.598,170.995 59.396,172.012 58.601,173.25 C56.748,176.135 55.39,185 56.801,185 C57.366,185 61.471,181.353 65.922,176.896 C74.26,168.547 77,167.458 77,172.491 C77,174.041 75.505,176.707 73.197,179.272 C71.105,181.598 67.443,186.78 65.059,190.789 C62.674,194.798 59.936,198.499 58.972,199.015 C58.009,199.53 56.342,201.65 55.268,203.726 C53,208.111 49.703,209.182 48.039,206.073 C46.662,203.5 46.383,193.182 47.376,181.56 C48.055,173.613 48.239,125.257 47.716,92.5 C47.61,85.9 47.861,79.663 48.273,78.641 Z M68,93.001 C66.625,94.076 64.948,94.966 64.273,94.978 C61.869,95.021 59.84,99.63 60.553,103.428 C60.973,105.671 60.785,107.555 60.051,108.439 C58.701,110.066 57.591,157.629 58.885,158.429 C60.01,159.124 65.708,154.873 67.095,152.303 C68.859,149.036 70.831,148.733 74.714,151.133 C78.604,153.536 80.458,152.455 79.085,148.583 C78.679,147.438 78.253,143.581 78.138,140.014 C78.023,136.447 77.522,133.122 77.025,132.625 C76.486,132.086 74.853,132.787 72.984,134.36 C69.519,137.275 67.998,137.598 66.2,135.8 C64.746,134.346 64.61,129.359 66,128.5 C66.55,128.16 67.016,127.121 67.036,126.191 C67.081,124.083 70.591,119.961 74.343,117.612 C77.159,115.849 77.179,115.765 76.476,108.765 C75.698,101.011 73.072,91.822 71.5,91.349 C70.95,91.183 69.375,91.927 68,93.001 Z M150.618,74.525 C147.512,77.631 147.356,83 150.371,83 C152.561,83 156.419,76.888 155.324,75.153 C153.904,72.9 152.438,72.705 150.618,74.525 Z M151.87,95.197 C149.547,97.054 148.511,102 150.446,102 C152.313,102 154.225,98.534 153.813,95.895 C153.546,94.187 153.261,94.085 151.87,95.197 Z"/>
</svg>

