<svg xmlns="http://www.w3.org/2000/svg" width="300" height="300" viewBox="0 0 300 300" version="1.1">
  <defs/>
  <path d="M64.441,104.419 C66.996,102.551 68.358,102.629 70.254,104.75 C71.8,106.479 73.053,115.193 72.998,123.826 C72.975,127.353 73.281,128.092 74.654,127.826 C75.58,127.647 77.083,126.15 77.993,124.5 C80.005,120.854 84.338,119.894 85.869,122.755 C86.973,124.818 85.913,131.195 84.104,133.375 C83.502,134.1 80.532,136.67 77.505,139.086 C74.477,141.502 72,143.864 72,144.335 C72,144.806 71.065,146.504 69.923,148.108 C68.723,149.793 67.44,153.871 66.886,157.763 C65.99,164.055 66.068,164.616 68.074,166.25 C69.255,167.213 70.959,167.996 71.861,167.991 C72.762,167.986 79.575,171.021 87,174.734 C98.257,180.364 101.778,182.705 108.195,188.823 L115.891,196.161 L123.461,194.476 C131.477,192.693 134,190.715 134,186.215 C134,184.928 134.876,181.09 135.946,177.687 C137.016,174.284 138.64,168.125 139.554,164 C141.743,154.122 145.893,141.951 147.837,139.706 C148.691,138.719 150.314,138.044 151.445,138.206 C153.258,138.465 153.474,139.127 153.275,143.829 C152.998,150.398 149.3,168.399 146.768,175.5 C145.274,179.692 144.614,188.014 145.691,189.091 C146.682,190.082 159.537,186.863 161.192,185.208 C161.747,184.653 162.287,181.05 162.392,177.203 C162.615,169.055 164.043,166.551 167.926,167.502 C171.701,168.426 172.793,169.93 173.735,175.5 L174.58,180.5 L178.54,180.426 C180.718,180.385 188.35,178.964 195.5,177.269 C202.65,175.574 211.864,173.416 215.975,172.473 C220.087,171.53 224.854,169.688 226.57,168.379 C230.574,165.325 232.367,165.38 234.927,168.635 C239.404,174.326 236.045,179.206 226.81,180.431 C223.917,180.815 221.067,181.529 220.478,182.019 C219.888,182.508 216.726,183.398 213.453,183.997 C204.528,185.628 200.477,186.54 189.5,189.392 C178.029,192.371 175,193.539 175,194.983 C175,195.548 173.875,198.342 172.5,201.192 C171.125,204.042 169.996,207.303 169.99,208.437 C169.985,209.572 168.398,212.49 166.465,214.923 C164.531,217.356 163.104,219.812 163.294,220.381 C163.484,220.951 165.633,222.148 168.069,223.042 C178.803,226.979 188.322,231.548 193.482,235.239 C195.692,236.82 198.945,239.022 200.71,240.132 C202.476,241.243 205.56,244.432 207.563,247.221 C210.739,251.641 211.092,252.689 210.321,255.396 C209.599,257.932 208.848,258.557 206.222,258.813 C203.484,259.08 202.714,258.629 201.032,255.778 C198.054,250.732 189.34,243.705 179.707,238.582 C174.969,236.062 170.515,234 169.81,234 C169.105,234 166.173,232.808 163.293,231.351 L158.057,228.702 L148.278,237.6 C142.9,242.493 138.275,246.736 138,247.028 C136.37,248.757 126.674,255.058 122.136,257.338 C112.028,262.415 105.453,264.001 94.585,263.985 C84.207,263.97 79.5,262.717 79.5,259.97 C79.5,258.824 81.594,258.361 89,257.868 C94.225,257.52 100.525,256.687 103,256.016 C108.963,254.4 119.324,249.519 120.949,247.562 C121.662,246.703 122.65,246 123.146,246 C124.561,246 141.515,231.389 143.351,228.587 C145.948,224.623 145.475,222.345 141.906,221.631 C140.204,221.291 135.877,219.611 132.289,217.899 L125.766,214.786 L126.236,209.893 C126.495,207.202 126.541,205 126.339,205 C126.137,205 124.685,206.441 123.111,208.201 C120.281,211.369 120.207,211.388 116.123,210.041 C112.688,208.907 110.528,208.894 103.248,209.966 C98.436,210.674 92.7,211.675 90.5,212.19 C88.3,212.706 84.7,213.52 82.5,214 C80.3,214.48 75.575,215.795 72,216.923 C68.425,218.051 64.982,218.98 64.348,218.987 C62.777,219.005 59.071,212.979 59.679,211.395 C60.352,209.641 70.814,206.397 83.724,203.938 C102.834,200.299 104.323,199.556 100.25,195.688 C95.045,190.746 88.679,186 87.254,186 C86.36,186 84.552,184.988 83.235,183.752 C81.042,181.691 78.98,180.978 66.21,177.866 C60.788,176.545 59.846,177.278 55.873,185.912 C54.205,189.535 52.337,193.4 51.721,194.5 C51.105,195.6 49.278,198.975 47.66,202 C43.406,209.955 36.341,217 32.616,217 C29.199,217 26,214.514 26,211.858 C26,210.73 27.272,209.495 29.314,208.642 C32.75,207.206 37.945,200.776 42.523,192.291 C43.944,189.656 45.475,186.825 45.924,186 C48.055,182.089 51,174.788 51,173.418 C51,172.578 51.849,170.002 52.887,167.695 C55.075,162.83 56.476,157 55.456,157 C55.07,157 51.772,159.137 48.127,161.75 C44.482,164.363 38.35,168.332 34.5,170.572 C30.65,172.811 25.159,176.128 22.297,177.942 C18.438,180.388 16.436,181.075 14.547,180.601 C12.314,180.041 12,179.434 12,175.681 C12,171.453 13.306,169 15.557,169 C18.801,169 42.272,154.122 53.67,144.84 C62.166,137.922 62.236,137.718 62.389,119.169 C62.489,107.2 62.698,105.693 64.441,104.419 Z M146.271,26.5 C152.583,21.097 158,21.795 158,28.01 C158,31.186 157.396,32.291 154.3,34.774 L150.601,37.742 L152.385,40.465 C153.5,42.167 153.943,44.091 153.566,45.594 C152.191,51.073 155.945,55.901 157.578,50.754 C158.463,47.966 160.857,46.074 163.55,46.032 C166.573,45.985 168,47.934 168,52.109 C168,55.259 167.15,56.698 162.357,61.659 L156.713,67.5 L155.868,80 C154.871,94.732 154.57,106.903 155.186,107.519 C155.427,107.76 158.522,106.91 162.062,105.63 C165.681,104.321 171.15,103.225 174.553,103.127 C179.699,102.977 180.918,103.292 182.695,105.226 C185.907,108.722 186.374,112.923 183.985,116.816 L181.949,120.132 L178.225,117.82 C175.658,116.227 172.168,115.291 167,114.809 C162.875,114.424 158.234,113.802 156.687,113.426 L153.874,112.743 L154.074,121.854 C154.297,132.004 153.453,134 148.937,134 C145.609,134 145.23,133.49 142.241,125.013 C139.489,117.206 137.706,115.07 135.231,116.615 C134.279,117.21 133.043,118.596 132.484,119.696 C131.446,121.738 128.494,125.778 123.956,131.367 C122.557,133.09 120.672,135.68 119.767,137.122 C117.877,140.134 113.775,141.287 111.324,139.495 C109.753,138.346 109.755,138.036 111.349,134.676 C112.287,132.701 113.498,130.81 114.041,130.475 C114.584,130.139 115.935,128.207 117.042,126.182 C118.15,124.157 119.922,121.15 120.981,119.5 C122.039,117.85 123.771,114.7 124.83,112.5 C128.8,104.247 137.743,96.5 143.302,96.5 C144.861,96.5 145.169,95.334 145.593,87.834 C145.91,82.205 145.704,78.935 145.003,78.502 C144.41,78.135 142.14,79.447 139.959,81.418 C137.779,83.388 135.516,85 134.93,85 C134.012,85 127.441,89.446 126,91.042 C124.215,93.02 118.847,96 117.071,96 C113.273,96 111.535,86.711 115,84.931 C122.101,81.284 133.574,74.046 138.5,70.106 C144.043,65.671 144.494,65.009 144.419,61.403 C144.273,54.414 143.407,45.073 142.852,44.519 C142.554,44.221 140.328,45.553 137.905,47.479 C135.482,49.405 132.764,50.985 131.865,50.99 C130.184,51 127,47.001 127,44.879 C127,43.514 140.002,30 141.315,30 C141.792,30 144.022,28.425 146.271,26.5 Z M52.258,65.225 C53.083,64.202 53.621,64.252 54.972,65.475 C55.899,66.314 57.174,67 57.806,67 C60.082,67 62.111,71.938 62.695,78.901 C63.432,87.694 64.35,87.891 72.5,81 C78.792,75.68 82.041,74.822 85.171,77.655 C89.185,81.287 87.408,84.164 76,92.5 C73.742,94.15 70.456,96.67 68.697,98.1 C66.939,99.529 64.22,101.329 62.655,102.1 C61.09,102.87 59.244,104.625 58.552,106 C56.041,110.995 54.208,115.586 53.107,119.647 C51.939,123.95 49.293,126.013 47.8,123.784 C46.214,121.416 47.75,110.94 51.697,97.194 C52.536,94.276 52.999,91.666 52.727,91.394 C52.456,91.122 52.558,89.458 52.956,87.695 C53.354,85.932 53.128,80.442 52.454,75.495 C51.612,69.306 51.551,66.102 52.258,65.225 Z M153.536,198.659 C150.256,199.946 146.388,201 144.941,201 C141.832,201 138.683,204.094 139.165,206.676 C139.353,207.679 140.855,209.179 142.503,210.009 C144.151,210.838 146.613,212.301 147.973,213.259 C152.541,216.476 153.795,215.638 158.046,206.522 C160.221,201.859 162,197.857 162,197.629 C162,196.225 158.718,196.624 153.536,198.659 Z"/>
</svg>

