<svg xmlns="http://www.w3.org/2000/svg" width="300" height="300" viewBox="0 0 300 300" version="1.1">
  <defs/>
  <path d="M163.546,92.736 C174.633,91.099 179.814,95.448 182.983,109.052 C183.681,112.048 184.418,115.094 184.621,115.819 C185.091,117.498 188.249,116.611 193.229,113.403 C195.279,112.081 198.442,111 200.256,111 C204.211,111 208,113.416 208,115.938 C208,117.767 202.098,123 200.035,123 C196.698,123 186.421,127.454 184.594,129.692 C180.151,135.135 175,145.228 175,148.49 C175,151.089 174.23,152.424 171.438,154.664 C167.996,157.425 167.877,157.741 167.944,164.011 C167.982,167.58 168.244,172.075 168.526,174 C173.316,206.686 174.54,239.013 171.896,263 C170.84,272.574 170.468,273.787 167.673,276.75 C165.058,279.522 163.916,280 159.9,280 C155.521,280 154.569,279.485 146.304,272.644 C141.416,268.598 132.26,260.157 125.958,253.886 C112.446,240.44 102.808,232.989 93,228.406 C91.075,227.507 88.244,225.879 86.709,224.788 C85.173,223.697 82.733,222.488 81.285,222.101 C74.829,220.374 76.346,214.3 82.936,215.492 C91.311,217.007 116.371,232.365 127,242.497 C135.362,250.469 146.701,259.63 150.345,261.359 C152.138,262.21 154.439,263.828 155.458,264.953 C157.884,267.634 160.615,267.552 162.215,264.75 C164.249,261.19 163.799,213.758 161.531,192.5 C160.533,183.15 159.33,175.072 158.858,174.55 C158.386,174.027 158,172.115 158,170.3 C158,166.183 155.781,165.922 150.898,169.465 C133.523,182.071 125.431,184.483 126.186,176.832 C126.449,174.168 127.476,173.029 132.5,169.832 C135.8,167.732 139.175,165.695 140,165.305 C141.914,164.402 146.469,161.295 151.254,157.631 C153.984,155.541 155,154.014 155,152.004 C155,147.322 152.765,146.492 148.095,149.44 C145.865,150.848 143.784,152 143.471,152 C143.159,152 140.193,153.8 136.881,156 C133.569,158.2 130.709,160 130.525,160 C130.342,160 127.406,161.575 124,163.5 C116.787,167.577 115.938,167.694 113.454,164.949 C111.715,163.028 111.701,162.728 113.232,160.199 C114.131,158.715 115.684,157.066 116.683,156.536 C117.682,156.005 120.482,154.24 122.904,152.613 C125.326,150.986 130.726,147.884 134.904,145.719 C146.713,139.601 149.326,138.397 149.876,136.571 C150.08,135.895 150,135.133 150,134.005 C150,131.922 149.11,128.257 148.022,125.859 C146.934,123.462 146.034,120.037 146.022,118.25 C145.997,114.566 144.597,114.129 141.564,116.858 C138.236,119.853 129.234,124.304 127.698,123.714 C126.177,123.131 124.741,117.831 125.543,115.761 C126.038,114.483 129.036,112.392 136.424,108.171 C138.666,106.89 141.429,104.978 142.564,103.921 C143.7,102.864 145.05,101.982 145.564,101.959 C146.079,101.937 148.058,100.587 149.962,98.959 C151.866,97.332 154.129,96 154.99,96 C155.851,96 157.463,95.364 158.574,94.586 C159.684,93.808 161.921,92.976 163.546,92.736 Z M49.008,68.995 C49.705,68.564 51.675,68.801 53.387,69.52 C57.645,71.309 59.082,76.449 58.124,86.471 C57.272,95.397 57.941,97.268 60.996,94.504 C62.472,93.167 62.936,91.882 62.528,90.255 C61.587,86.506 64.059,80.155 67.707,76.952 C71.406,73.704 76.604,73.038 80.861,75.265 C83.522,76.657 85.959,82.708 85.991,88 C86.002,89.925 86.431,93.075 86.945,95 C88.37,100.341 89.129,109.863 89.575,128 C89.798,137.075 90.131,146.525 90.315,149 C90.499,151.475 90.693,160.025 90.746,168 C90.799,175.975 90.868,184.199 90.9,186.276 C90.951,189.607 90.559,190.243 87.57,191.668 C82.899,193.895 81.265,192.951 80.456,187.558 C79.668,182.303 78.739,181.898 76.317,185.75 C75.366,187.262 73.443,189.946 72.044,191.713 C70.645,193.481 68.468,196.275 67.208,197.922 C65.225,200.514 64.575,200.789 62.393,199.959 C58.579,198.509 58.16,198.698 56.22,202.75 C54.705,205.913 53.973,206.467 51.545,206.289 C49.962,206.173 48.297,205.498 47.846,204.789 C47.394,204.08 47.332,183.025 47.708,158 C48.084,132.975 48.349,111.375 48.297,110 C47.551,90.036 47.904,69.677 49.008,68.995 Z M146.167,21.75 C147.214,19.723 149.832,19.511 153.453,21.161 C156.846,22.707 156.865,27.566 153.5,33.593 C152.125,36.056 151,38.714 151,39.5 C151,40.286 150.155,41.382 149.122,41.935 C148.09,42.487 147.002,43.966 146.704,45.22 C145.592,49.915 142.866,56.304 140.473,59.825 C139.113,61.827 138,64.311 138,65.346 C138,66.381 137.023,68.966 135.829,71.09 C133.67,74.932 133.669,74.971 135.567,78.726 C138.068,83.672 141.979,88.002 143.937,87.992 C146.028,87.982 150,80.854 150,77.111 C150,75.465 150.45,73.84 151,73.5 C152.946,72.297 151.956,70.172 148.5,68.133 C145.747,66.508 145,65.432 145,63.093 C145,59.254 146.306,58.5 152.957,58.5 C157.533,58.5 158.589,58.154 159.496,56.357 C161.353,52.677 163.169,51 165.294,51 C169.932,51 172.842,57.226 169.5,60 C168.675,60.685 168,62.26 168,63.5 C168,64.74 167.325,66.315 166.5,67 C165.675,67.685 165,68.839 165,69.565 C165,71.779 161.047,77.739 158.45,79.441 C157.102,80.324 156,81.485 156,82.021 C156,82.557 154.376,85.256 152.391,88.018 C149.438,92.129 148.303,92.992 146.141,92.771 C143.682,92.519 143.519,92.748 143.775,96.106 C144.12,100.621 142.211,102.425 138.055,101.512 C135.267,100.9 131,96.495 131,94.23 C131,92.142 126.734,88 124.582,88 C118.341,88 117.8,80.117 123.596,73.605 C125.468,71.501 127,69.148 127,68.376 C127,67.604 127.42,66.191 127.932,65.236 C129.185,62.902 136.072,48.009 137.058,45.5 C137.491,44.4 138.632,41.25 139.595,38.5 C140.557,35.75 141.658,33.05 142.042,32.5 C142.425,31.95 143.307,29.7 144.001,27.5 C144.695,25.3 145.67,22.712 146.167,21.75 Z M67.51,95.273 C58.513,104.697 58.731,104.231 58.363,114.85 C58.179,120.158 57.737,131.842 57.38,140.816 C56.94,151.906 57.075,157.475 57.803,158.203 C58.564,158.964 61.216,158.077 66.969,155.137 C71.421,152.862 76.241,151 77.68,151 L80.296,151 L79.668,142.853 C79.323,138.373 78.84,134.507 78.595,134.262 C77.488,133.155 73.543,135.55 69.466,139.804 C65.591,143.848 64.839,144.257 63.632,142.973 C62.869,142.163 61.959,138.893 61.609,135.706 C60.995,130.123 61.088,129.807 64.151,127.009 C67.206,124.219 68.951,123.35 75.5,121.356 C78.278,120.511 78.511,120.075 78.647,115.472 C78.817,109.713 76.115,93.089 74.71,91.25 C73.291,89.392 72.934,89.592 67.51,95.273 Z M70.772,163.993 C66.802,166.69 63.741,167.977 60.794,168.191 L56.544,168.5 L56.459,179.75 C56.36,192.87 56.83,193.33 63.241,186.386 C69.516,179.587 74.616,174.912 78.001,172.853 C80.75,171.181 81,170.57 81,165.515 C81,160.447 80.818,160.004 78.75,160.052 C77.513,160.081 73.923,161.854 70.772,163.993 Z M163,104.931 C156.258,106.804 154,108.211 154,110.539 C154,111.828 154.45,113.16 155,113.5 C155.55,113.84 156,115.865 156,118 C156,120.135 156.45,122.16 157,122.5 C157.55,122.84 158,124.355 158,125.868 C158,127.38 158.642,129.491 159.426,130.559 C160.816,132.451 160.924,132.431 163.73,129.75 C165.314,128.238 167.087,127 167.67,127 C168.253,127 169.916,126.067 171.365,124.927 C173.467,123.274 173.997,122.009 173.985,118.677 C173.968,114.1 172.196,108.146 170.096,105.616 C168.692,103.924 167.159,103.776 163,104.931 Z M164.2,140.2 C162.611,141.789 162.669,144 164.3,144 C165.015,144 166.14,143.46 166.8,142.8 C167.46,142.14 168,141.015 168,140.3 C168,138.669 165.789,138.611 164.2,140.2 Z"/>
</svg>

