<svg xmlns="http://www.w3.org/2000/svg" width="300" height="300" viewBox="0 0 300 300" version="1.1">
  <defs/>
  <path d="M154.584,26.907 C156.788,24.472 158.496,24.496 161,27 C162.758,28.758 163,30.333 163,40 C163,46.05 163.338,51.046 163.75,51.101 C164.162,51.157 166.162,51.355 168.193,51.541 C172.12,51.901 177,54.53 177,56.286 C177,56.867 177.756,58.178 178.681,59.2 C180.983,61.744 180.983,85.582 178.681,90.37 C177.853,92.091 176.599,95.525 175.895,98 C173.418,106.705 163.119,119.905 158.75,119.973 C157.787,119.988 157,120.675 157,121.5 C157,123.206 159.197,123.457 161.764,122.044 C167.745,118.752 178.333,114.651 183.225,113.732 C190.245,112.413 194,113.676 194,117.356 C194,120.519 192.888,121.25 184,123.93 C174.881,126.68 167.433,130.004 146.31,140.75 C137.391,145.287 129.654,149 129.116,149 C128.579,149 125.296,150.31 121.82,151.912 C118.344,153.513 112.616,155.386 109.09,156.073 C102.893,157.282 102.619,157.248 100.84,155.051 C96.861,150.136 99.917,147.027 112.043,143.651 C119.56,141.559 130.812,137.245 133.303,135.5 C135.121,134.227 135.4,132.85 135.643,123.962 C135.891,114.896 135.745,113.902 134.209,114.196 C132.982,114.431 132.345,115.865 131.952,119.282 C131.36,124.42 128.209,128.678 125.709,127.719 C124.216,127.146 123.862,124.866 122.1,104.5 C121.624,99 120.732,93.233 120.117,91.685 C119.503,90.137 119,87.351 119,85.494 C119,83.637 118.55,81.84 118,81.5 C117.45,81.16 116.996,80.121 116.99,79.191 C116.985,78.261 115.41,75.524 113.49,73.109 C109.524,68.12 109.018,64.199 111.991,61.508 C114.993,58.792 119.938,60.516 122.082,65.028 C125.356,71.915 127,76.095 127,77.534 C127,79.801 129.793,79.265 131.09,76.75 C131.728,75.513 133.154,73.507 134.258,72.294 C136.116,70.253 136.211,69.282 135.525,59.294 C135.117,53.357 134.72,44.9 134.642,40.5 L134.5,32.5 L137.338,32.175 C141.177,31.736 144,34.457 144,38.596 C144,40.403 144.503,42.193 145.118,42.573 C145.858,43.03 146.088,46.097 145.798,51.632 C145.296,61.199 145.933,61.814 151.751,57.377 C154.89,54.982 155.13,54.437 154.503,51.127 C154.126,49.132 153.601,43.296 153.338,38.157 C152.933,30.268 153.127,28.517 154.584,26.907 Z M73,67.854 C79.915,63.505 84,64.136 84,69.556 C84,72.171 83.272,73.453 80.656,75.449 C78.816,76.852 76.766,78 76.099,78 C74.342,78 69,84.143 69,86.164 C69,87.109 68.61,88.123 68.133,88.418 C67.656,88.713 67.047,90.877 66.781,93.227 C66.514,95.577 65.329,99.497 64.148,101.938 C62.967,104.379 62,107.165 62,108.129 C62,109.093 61.55,110.16 61,110.5 C60.45,110.84 59.986,112.104 59.968,113.309 C59.951,114.514 59.276,116.374 58.468,117.441 C57.661,118.509 57,120.395 57,121.632 C57,122.87 56.55,124.16 56,124.5 C55.45,124.84 55,126.26 55,127.655 C55,129.05 54.38,131.386 53.622,132.846 C52.864,134.306 51.739,136.738 51.122,138.25 C50.505,139.762 49.585,142.012 49.078,143.25 C48.571,144.488 47.887,146.738 47.559,148.25 C47.021,150.727 47.237,151.003 49.731,151.032 C51.254,151.049 53.374,151.724 54.441,152.532 C57.021,154.483 58,154.383 58,152.169 C58,150.26 60.731,148.5 65,147.657 C66.375,147.386 69.525,146.401 72,145.469 C74.475,144.536 78.923,143.726 81.885,143.667 C86.853,143.569 87.492,143.826 90.135,146.992 C92.556,149.892 93,151.313 93,156.153 C93,159.304 92.55,162.16 92,162.5 C91.45,162.84 91,163.998 91,165.073 C91,166.148 90.459,167.893 89.798,168.952 C88.851,170.468 88.878,171.403 89.926,173.361 C91.691,176.659 90.699,180.12 87.285,182.576 C83.385,185.382 68.489,192 66.074,192 C63.649,192 62,189.203 62,185.093 C62,181.662 57.791,172.02 54.321,167.5 C50.503,162.527 49.049,160.588 47.717,158.696 C45.912,156.131 43.297,157.505 42.727,161.318 C42.18,164.973 39.112,173.855 36.883,178.236 C36.397,179.191 36,181.049 36,182.364 C36,183.679 35.325,185.315 34.5,186 C33.675,186.685 33,187.871 33,188.636 C33,190.041 32.692,190.799 29.669,196.831 C28.751,198.663 28,201.026 28,202.081 C28,203.136 27.55,204 27,204 C26.45,204 26,205.323 26,206.941 C26,208.559 25.55,210.16 25,210.5 C24.45,210.84 24,212.386 24,213.937 C24,215.487 23.325,217.315 22.5,218 C21.675,218.685 21,219.786 21,220.448 C21,221.11 19.917,222.668 18.594,223.911 C16.604,225.781 15.827,225.978 14.094,225.05 C11.382,223.599 11.454,221.961 14.6,213.496 C16.03,209.648 17.45,205.6 17.755,204.5 C18.061,203.4 18.916,201.612 19.655,200.527 C20.395,199.443 21,197.557 21,196.337 C21,195.116 21.45,193.84 22,193.5 C22.55,193.16 23,192.024 23,190.975 C23,189.252 24.8,184.356 27.122,179.764 C27.605,178.809 28,177.148 28,176.073 C28,174.998 28.45,173.84 29,173.5 C29.55,173.16 30,171.87 30,170.632 C30,169.395 30.661,167.509 31.468,166.441 C32.276,165.374 32.951,163.289 32.968,161.809 C32.986,160.329 33.45,158.84 34,158.5 C34.55,158.16 35,156.82 35,155.522 C35,154.224 35.639,151.888 36.419,150.331 C37.2,148.774 38.859,144.125 40.105,140 C41.352,135.875 42.734,132.009 43.177,131.408 C43.62,130.808 44.838,127.658 45.883,124.408 C47.723,118.693 48.814,115.83 51.566,109.5 C53.62,104.775 56.14,96.805 56.703,93.25 C57.376,89.009 55.427,88.95 48.823,93.014 C46.129,94.672 41.937,96.559 39.507,97.209 C35.6,98.254 34.853,98.177 33.045,96.54 C28.615,92.531 31.545,89.499 46.527,82.589 C54.098,79.098 63.034,74.124 73,67.854 Z M175.342,179.551 C176.031,177.756 177.759,177.658 184,179.06 C189.9,180.385 193.967,182.329 199.21,186.33 C201.57,188.13 206.875,191.894 211,194.694 C215.125,197.494 222.988,203.434 228.473,207.893 C233.958,212.352 238.743,216 239.106,216 C239.47,216 240.002,216.9 240.29,218 C240.577,219.1 241.642,220.003 242.656,220.007 C245.398,220.017 256.45,228.842 260.214,234.028 C264.826,240.383 265.774,241.92 268.099,246.812 C269.999,250.809 270.033,251.301 268.562,253.546 C266.435,256.791 262.638,257.648 259.498,255.591 C256.817,253.834 254,248.151 254,244.5 C254,242.11 241.748,228.008 239.656,227.99 C239.02,227.985 236.475,226.364 234,224.388 C213.754,208.224 193.651,193.667 186,189.631 C178.568,185.711 174.467,181.832 175.342,179.551 Z M135.379,166.25 C137.848,163.429 138.127,163.442 141.016,166.518 L143.382,169.035 L141.191,173.544 C139.986,176.024 139,178.72 139,179.534 C139,180.348 137.932,183.149 136.626,185.757 C135.321,188.366 133.498,192.075 132.576,194 C129.173,201.104 127.592,203.643 122.615,210 C116.523,217.781 116.458,217.85 111.906,221.286 C104.965,226.526 98,223.525 98,215.294 C98,209.756 100.37,208.416 103.227,212.338 C105.516,215.48 107.533,215.74 108.958,213.078 C109.524,212.021 110.567,210.558 111.276,209.828 C114.401,206.61 124,191.55 124,189.865 C124,189.374 124.41,188.191 124.911,187.236 C125.848,185.45 130.424,175.441 132.334,171 C132.925,169.625 134.295,167.488 135.379,166.25 Z M76.912,155.617 C76.136,156.56 73.138,158.845 70.25,160.696 C65.209,163.928 63.545,166.983 66,168.5 C66.55,168.84 67,170.681 67,172.59 C67,176.409 69.136,178.032 71.886,176.304 C72.774,175.746 75.642,172.187 78.259,168.395 C82.043,162.914 82.965,160.782 82.759,158 C82.56,155.317 82.013,154.43 80.412,154.202 C79.264,154.038 77.689,154.675 76.912,155.617 Z M148.174,71.314 C146.39,73.214 146,74.827 146,80.314 C146,86.146 146.236,87 147.845,87 C150.465,87 152.67,84.114 153.386,79.75 C153.723,77.688 154.274,74.425 154.609,72.5 C155.168,69.291 155.016,69 152.784,69 C151.444,69 149.37,70.042 148.174,71.314 Z M145.902,104.75 C145.325,106.263 144.625,109.75 144.347,112.5 C144.069,115.25 143.436,118.4 142.939,119.5 C140.169,125.633 140.15,132.262 142.906,130.558 C144.312,129.689 147.182,121.095 148.103,115 C148.56,111.975 149.223,107.813 149.576,105.75 C150.102,102.684 149.921,102 148.585,102 C147.686,102 146.478,103.237 145.902,104.75 Z M164.25,64.707 C163.563,66.188 163,69.559 163,72.199 C163,76.207 163.306,77 164.854,77 C167.82,77 172.004,72.469 171.967,69.298 C171.93,66.227 168.954,61.995 166.84,62.008 C166.103,62.012 164.938,63.227 164.25,64.707 Z M166,89.729 C163.93,90.517 163.033,92.074 163.015,94.912 C163.007,96.239 161.936,99.164 160.635,101.412 C157.767,106.368 156.22,113.427 158.142,112.786 C160.424,112.025 167,99.547 167,95.976 C167,94.954 167.45,93.84 168,93.5 C169.155,92.786 169.371,88.961 168.25,89.079 C167.838,89.122 166.825,89.415 166,89.729 Z M132.725,84.695 C131.605,86.649 129.885,96.005 130.471,96.953 C131.461,98.555 133.505,98.205 135.404,96.106 C137.716,93.552 137.297,84.669 134.843,84.204 C133.932,84.031 132.979,84.252 132.725,84.695 Z"/>
</svg>

