<svg xmlns="http://www.w3.org/2000/svg" width="300" height="300" viewBox="0 0 300 300" version="1.1">
  <defs/>
  <path d="M188.537,113.548 C191.18,111.549 191.978,111.631 194.686,114.174 C196.307,115.697 197,117.472 197,120.098 C197,125.382 199.058,134.044 201.017,137 C202.156,138.72 202.532,140.854 202.223,143.838 C201.975,146.224 202.094,152.887 202.487,158.645 C203.165,168.602 203.305,169.098 205.35,168.806 C206.838,168.594 207.595,167.676 207.809,165.823 C208.211,162.35 210.367,160.624 213.365,161.377 C215.216,161.841 216.028,163.054 216.956,166.738 C218.075,171.183 218.012,171.598 216.006,172.999 C207.46,178.969 207.489,178.914 206.167,191.682 C205.494,198.182 205.02,206.2 205.113,209.5 C205.206,212.8 204.991,222.7 204.635,231.5 C204.278,240.3 203.787,258.75 203.544,272.5 C203.3,286.25 203.078,298.063 203.05,298.75 C203.019,299.533 201.506,300 199,300 C197.493,300 196.509,300.049 195.876,299.602 C194.627,298.72 194.74,295.91 194.897,287 C195.809,235.374 195.905,190.242 195.104,189.047 C194.261,187.788 193.351,187.843 188.315,189.451 C185.117,190.472 181.375,191.466 180,191.66 C174.382,192.452 165.308,193.937 162.385,194.542 C159.694,195.1 158.972,194.77 157.085,192.119 C153.776,187.473 155.009,183.498 162.62,174.267 C173.347,161.257 181.079,150.737 180.715,149.645 C180.525,149.075 179.076,148.263 177.495,147.84 C175.913,147.417 174.233,146.38 173.76,145.536 C173.287,144.691 172.303,144 171.573,144 C169.146,144 167.744,141.346 168.966,139.064 C169.926,137.27 171.019,137 177.313,137 C182.249,137 185.263,136.504 186.777,135.443 C189.113,133.807 189.726,130.126 187.957,128.357 C187.383,127.783 186.837,124.551 186.744,121.173 C186.604,116.118 186.921,114.77 188.537,113.548 Z M147.028,18.186 C148.642,15.539 149.596,14.935 151.77,15.186 C153.892,15.431 154.602,16.142 154.995,18.418 C155.63,22.087 157.126,22.623 159.478,20.024 C161.701,17.567 163.74,17.455 166.171,19.655 C169.188,22.385 168.353,25.664 163,32.096 C158.57,37.419 157.999,38.639 157.989,42.802 C157.983,45.386 157.7,49.18 157.361,51.232 C156.874,54.176 157.098,55.1 158.421,55.608 C160.588,56.44 166,50.536 166,47.339 C166,45.687 166.744,44.851 168.638,44.376 C172.216,43.478 174.948,47.036 174.978,52.634 C174.984,53.846 175.016,54.688 174.818,55.473 C174.3,57.52 172.212,59.171 164,65.947 L160.5,68.835 L160.354,91.94 C160.249,108.529 159.862,115.461 158.981,116.522 C157.358,118.478 154.097,118.397 151.829,116.345 C149.464,114.205 149.338,105.94 151.617,102.462 C152.957,100.416 153.133,98.159 152.643,89.247 C151.865,75.091 151.13,72.589 147.623,72.178 C146.114,72.001 144.219,72.403 143.413,73.072 C142.165,74.108 142.398,74.564 144.973,76.13 C150.061,79.224 149.171,82.256 140.75,90.516 C136.762,94.428 131.437,100.299 128.917,103.564 C123.071,111.135 120.035,112.908 116.679,110.709 C112.338,107.865 112.683,105.494 118.2,100.256 C120.955,97.64 126.071,91.856 129.569,87.402 C133.067,82.948 136.619,78.731 137.464,78.03 C140.252,75.716 139.078,75 132.5,75 C121.264,75 119.102,70.055 126.043,60.226 C128.267,57.077 131.131,52.918 132.407,50.985 C133.684,49.052 135.464,46.86 136.364,46.113 C139.11,43.834 138.439,41 135.155,41 C133.549,41 131.495,40.099 130.438,38.932 C128.729,37.044 128.697,36.63 130.066,34.182 C131.362,31.864 132.303,31.458 137.003,31.19 C143.655,30.811 144.999,29.793 145.004,25.128 C145.006,23.132 145.917,20.009 147.028,18.186 Z M117.457,123.07 C117.82,122.482 119.431,122 121.036,122 C125.323,122 127.209,125.317 125.867,130.5 C125.297,132.7 124.431,136.975 123.942,140 C123.452,143.025 122.61,147.525 122.07,150 C121.529,152.475 121.068,155.287 121.044,156.25 C120.99,158.401 123.309,158.538 125.013,156.485 C126.669,154.489 135.663,150 138.005,150 C140.548,150 146,154.779 146,157.008 C146,158.014 145.37,160.112 144.6,161.669 C142.367,166.186 141,171.355 141,175.286 C141,177.91 140.159,179.888 137.998,182.349 C136.347,184.23 134.714,187.18 134.369,188.905 C134.024,190.63 133.35,192.284 132.871,192.58 C132.392,192.876 132,194.216 132,195.559 C132,196.902 131.637,198 131.192,198 C130.748,198 129.573,199.84 128.581,202.089 C127.589,204.338 125.019,208.275 122.87,210.839 C120.72,213.403 114.914,220.329 109.967,226.232 C105.019,232.134 99.668,237.637 98.076,238.461 C96.484,239.284 95.028,240.386 94.84,240.909 C94.653,241.432 91.305,241.988 87.4,242.143 C81.931,242.361 79.676,242.018 77.587,240.649 C73.871,238.214 74.801,236.556 80.078,236.208 C82.51,236.048 86.366,235.055 88.646,234.002 C93.094,231.948 102.285,222.35 111.47,210.165 C116.865,203.009 118.092,199.793 115.938,198.462 C115.354,198.101 114.445,196.67 113.917,195.282 C113.116,193.174 112.491,192.852 110.124,193.325 C106.681,194.014 103.264,191.872 102.818,188.748 C102.591,187.149 101.646,186.367 99.5,186.002 C96.962,185.57 96.451,184.982 96.182,182.18 C95.741,177.6 97.415,176 102.647,176 C107.693,176 108.26,175.172 109.488,166 C109.893,162.975 110.567,160.05 110.986,159.5 C111.88,158.327 112.768,154.006 113.963,145 C116.232,127.902 116.844,124.062 117.457,123.07 Z M77.404,84.521 C82.664,82.214 84.183,82.896 85.504,88.161 C86.23,91.052 83.718,96 81.525,96 C80.84,96 77.3,97.912 73.659,100.25 C67.294,104.336 67.059,104.629 67.584,107.853 C68,110.409 67.504,112.151 65.497,115.183 C64.05,117.371 61.992,121.895 60.924,125.238 C59.856,128.581 58.534,131.857 57.986,132.517 C57.438,133.177 56.143,136.144 55.108,139.109 C54.072,142.074 51.825,147.498 50.113,151.162 C48.401,154.826 47,158.244 47,158.758 C47,160.325 44.05,165.713 42.479,167.017 C41.666,167.692 41,169.001 41,169.926 C41,172.139 32.571,189.149 28.334,195.487 C26.5,198.229 25,200.865 25,201.344 C25,201.822 22.074,206.411 18.498,211.54 C11.613,221.415 8.63,223.57 6.27,220.373 C4.052,217.367 5.538,211.975 9.543,208.5 C11.444,206.85 13,205.007 13,204.405 C13,203.803 13.901,202.495 15.002,201.499 C16.102,200.502 18.379,196.945 20.06,193.594 C21.741,190.242 25.806,182.325 29.092,176 C32.379,169.675 36.653,160.45 38.591,155.5 C42.218,146.235 44.114,141.709 46.551,136.5 C47.324,134.85 49.578,129.467 51.561,124.538 C53.544,119.609 56.029,114.364 57.083,112.883 C58.137,111.403 59,109.647 59,108.982 C59,107.68 58.193,107.777 46.5,110.483 C34.968,113.151 34.265,113.237 33.547,112.077 C33.168,111.463 33.378,109.385 34.014,107.458 C35.444,103.125 39.367,101.277 56.385,96.923 C62.474,95.366 71.093,90.788 72.777,88.218 C73.62,86.932 75.702,85.268 77.404,84.521 Z M75,161.953 C80.723,160.77 81.557,160.895 83.679,163.25 C85.334,165.087 85.729,166.984 85.832,173.594 C85.956,181.516 85.882,181.778 82.364,185.888 C80.387,188.198 76.233,191.428 73.134,193.067 C70.036,194.705 66.043,196.923 64.263,197.995 C61.043,199.935 61.017,199.934 59.131,197.91 C58.089,196.791 56.713,193.316 56.074,190.188 C55.436,187.06 53.566,182.25 51.92,179.5 C50.274,176.75 48.226,172.95 47.369,171.056 C45.923,167.86 45.94,167.517 47.597,166.306 C48.579,165.588 50.641,165 52.179,165 C54.378,165 55.552,165.907 57.676,169.25 C59.162,171.588 60.924,175.069 61.592,176.987 C63.535,182.57 65.58,183.123 69.039,179 C72.887,174.415 72.527,172.5 67.819,172.5 C63.445,172.5 62.905,172.079 63.647,169.242 C64.32,166.669 70.083,162.97 75,161.953 Z M188.655,155.829 C187.745,156.835 186.996,158.072 186.992,158.579 C186.988,159.085 184.175,162.749 180.742,166.72 C168.057,181.391 167.618,182.47 174.75,181.43 C181.525,180.443 191.562,177.233 192.894,175.628 C193.675,174.686 193.821,171.116 193.363,164.131 C192.673,153.593 191.904,152.238 188.655,155.829 Z M174.5,83.386 C182.643,81.778 194.177,83.749 196.298,87.11 C198.516,90.627 193.225,99.791 189.747,98.456 C188.786,98.088 188,97.186 188,96.452 C188,94.548 186.269,93.724 181.589,93.402 C172.098,92.747 166,90.414 166,87.437 C166,85.543 167.717,84.725 174.5,83.386 Z M122.409,170.25 C117.945,174.642 115.031,178.328 115.019,179.6 C114.999,181.85 120.409,190 121.923,190 C122.924,190 128.033,179.536 129.735,174 C131.67,167.704 132.183,163 130.935,163 C130.3,163 126.463,166.262 122.409,170.25 Z M142.903,52.25 C142.261,53.487 140.22,56.376 138.368,58.668 C136.516,60.961 135,63.098 135,63.418 C135,64.713 142.699,63.736 145.5,62.087 C148.226,60.48 148.468,59.917 148.146,55.91 C147.951,53.484 147.587,51.163 147.337,50.75 C146.426,49.248 144.042,50.055 142.903,52.25 Z M184.909,299.077 C185.684,298.587 186.922,298.417 187.659,298.7 C189.774,299.511 189.236,300.001 186.25,299.985 C184.249,299.974 183.884,299.727 184.909,299.077 Z"/>
</svg>

