<svg xmlns="http://www.w3.org/2000/svg" width="300" height="300" viewBox="0 0 300 300" version="1.1">
  <defs/>
  <path d="M153.337,50.565 C153.79,49.383 154.698,49.118 156.728,49.575 C160.978,50.531 164,54.447 164,58.997 C164,61.134 164.416,63.139 164.925,63.453 C165.433,63.768 167.333,62.669 169.148,61.012 C173.444,57.088 178.513,56.837 180.167,60.466 C181.152,62.63 180.813,63.638 177.395,68.687 C175.253,71.852 172.262,75.507 170.75,76.809 C168.413,78.822 167.999,79.953 167.994,84.339 C167.991,87.178 167.511,91.22 166.928,93.322 C165.372,98.925 165.239,108.953 166.705,110.17 C168.733,111.853 181.695,103.4 191.877,93.752 C193.185,92.514 194.887,90.018 195.659,88.206 C197.31,84.335 199.06,83.427 201.922,84.958 C203.624,85.869 204,87.028 204,91.358 C204,96.621 203.969,96.672 197.325,102.572 C193.653,105.833 187.422,110.525 183.477,113 C172.03,120.183 168.222,122.831 167.378,124.197 C165.972,126.473 165.568,145.303 165.534,210.2 C165.507,259.863 165.775,274.175 166.75,275.15 C167.494,275.894 168.002,279.051 168.006,282.95 C168.01,286.555 168.631,290.686 169.389,292.138 C170.146,293.589 170.541,295.952 170.266,297.388 C169.811,299.768 169.344,300 165.006,300 C162.369,300 159.822,299.442 159.298,298.75 C157.146,295.912 156.093,288.774 156.013,276.5 C155.967,269.35 155.875,262.15 155.809,260.5 C155.697,257.715 155.713,242.585 155.907,168 C155.948,152.325 156.246,137.411 156.57,134.858 C157.32,128.94 155.996,128.075 151.124,131.299 C147.669,133.586 137.118,138.245 127.63,141.674 C125.501,142.444 122.417,143.767 120.777,144.615 C118.392,145.849 117.241,145.928 115.031,145.013 C111.603,143.593 109.555,139.977 110.497,137.008 C110.887,135.781 116.897,128.848 123.853,121.601 C140.79,103.956 153,88.814 153,85.456 C153,83.612 151.54,83.605 148.715,85.434 C147.497,86.223 143.8,87.165 140.5,87.528 C134.979,88.136 134.316,87.992 132.198,85.725 C130.182,83.567 129.98,82.629 130.571,78.174 C131.29,72.758 133.857,69.347 136.463,70.347 C137.308,70.672 138,71.796 138,72.846 C138,77.307 143.024,77.867 150.773,74.269 L154.047,72.75 L153.382,62.465 C153.016,56.808 152.996,51.453 153.337,50.565 Z M89.169,61.057 C92.967,57.518 100,58.976 100,63.302 C100,64.947 98.491,66.447 94.25,69.016 C91.088,70.932 87.803,72.725 86.952,73 C83.265,74.191 76.003,79.641 76.002,81.22 C76.001,82.165 75.139,84.472 74.086,86.346 C73.034,88.22 71.494,92.171 70.665,95.127 C66.121,111.324 64.74,115.771 63.437,118.404 C62.647,120.001 62,122.391 62,123.717 C62,125.736 59.554,131.98 55.973,139.103 C55.529,139.985 54.853,142.797 54.47,145.353 C53.845,149.519 53.973,150 55.705,150 C56.767,150 59.406,151.575 61.568,153.499 C66.308,157.717 68.402,157.89 70.659,154.25 C71.597,152.738 73.464,150.291 74.808,148.814 C76.152,147.336 77.762,145.105 78.385,143.855 C79.099,142.423 81.179,141.1 84.009,140.276 C87.978,139.121 88.89,139.175 91.849,140.735 C93.691,141.706 95.829,143.388 96.599,144.473 C98.207,146.737 98.492,154.578 97,155.5 C96.45,155.84 96,157.91 96,160.1 C96,162.347 95.189,165.261 94.137,166.79 C93.112,168.281 90.819,171.857 89.041,174.737 C85.292,180.81 77.185,188 74.086,188 C72.672,188 71.604,187.071 70.923,185.25 C65.792,171.51 61.758,164.813 57.029,162.183 C51.697,159.217 48.994,160.131 46.055,165.892 C44.94,168.077 43.572,170.146 43.014,170.491 C42.456,170.836 42,171.978 42,173.029 C42,174.079 41.1,176.542 40,178.5 C38.9,180.458 38,182.481 38,182.995 C38,183.509 36.033,187.208 33.628,191.215 C31.224,195.222 28.635,199.84 27.876,201.477 C26.258,204.965 21.766,206.972 19.197,205.354 C16.451,203.625 16.619,201.061 19.766,196.644 C21.391,194.365 23.827,190.25 25.179,187.5 C26.532,184.75 29.231,179.521 31.177,175.88 C33.124,172.24 36.393,165.04 38.443,159.88 C40.492,154.721 42.77,149.15 43.503,147.5 C44.237,145.85 46.489,140 48.508,134.5 C50.526,129 52.554,123.6 53.014,122.5 C53.473,121.4 54.082,119.375 54.365,118 C55.288,113.531 57.136,106.631 59.089,100.369 C60.14,96.997 61,93.564 61,92.741 C61,91.918 61.675,90.685 62.5,90 C64.556,88.294 64.381,87 62.095,87 C60.416,87 54.337,89.579 50,92.132 C47.793,93.431 45.07,94.519 39.806,96.207 C34.304,97.971 33,97.218 33,92.275 C33,89.719 33.536,88.747 35.316,88.07 C36.59,87.586 39.828,85.797 42.512,84.095 C45.196,82.393 48.057,81 48.871,81 C51.106,81 86.637,63.416 89.169,61.057 Z M150.107,23.642 C158.461,19.439 166.354,16 167.648,16 C169.976,16 174,19.128 174,20.937 C174,21.452 172.332,23.448 170.293,25.372 C167.533,27.976 165.359,29.038 161.787,29.529 C158.305,30.008 155.727,31.232 152.388,33.991 C145.961,39.302 137.856,40.709 134.575,37.083 C131.624,33.822 134.055,31.718 150.107,23.642 Z M152.057,101.349 C149.932,106.938 139.642,120 137.364,120 C136.164,120 131,125.96 131,127.344 C131,129.318 136.18,127.729 148.604,121.941 L154.708,119.098 L155.332,111.299 C155.675,107.009 156.078,102.617 156.228,101.538 C156.65,98.492 153.203,98.336 152.057,101.349 Z M76.75,156.412 C74.138,159.408 72,162.271 72,162.775 C72,164.148 74.991,169.876 76.048,170.53 C77.431,171.385 82.417,165.836 84.93,160.644 C87.724,154.873 87.4,151.596 84,151.233 C82.059,151.026 80.438,152.184 76.75,156.412 Z"/>
</svg>

