<svg xmlns="http://www.w3.org/2000/svg" width="300" height="300" viewBox="0 0 300 300" version="1.1">
  <defs/>
  <path d="M155,52.718 C161.062,49.829 162.79,49.713 164.29,52.095 C166.022,54.846 164.296,58.465 160.137,60.803 C155.292,63.526 154.88,64.557 155.659,72.011 C156.021,75.474 155.862,78.488 155.279,79.229 C154.096,80.73 153.074,86.962 153.717,88.75 C153.964,89.438 154.939,90 155.883,90 C159.813,90 161.063,93.987 158.641,98.8 C157.869,100.335 157.487,103.137 157.756,105.294 L158.229,109.088 L162.603,108.432 C166.141,107.902 167.098,108.091 167.61,109.425 C167.963,110.345 167.526,111.867 166.621,112.866 C165.73,113.851 165,115.268 165,116.014 C165,116.761 164.068,118.363 162.929,119.576 C160.705,121.943 159.353,128.342 158.346,141.271 C158.013,145.545 157.349,149.284 156.87,149.58 C155.664,150.326 155.771,158 156.988,158 C158.431,158 168.225,148.995 170.528,145.551 C171.613,143.929 174.879,140.666 177.787,138.301 C182.226,134.691 183.779,134 187.461,134 C192.635,134 197.023,137.139 199.682,142.743 C201.785,147.175 202.018,169.293 200.036,176.372 C199.336,178.873 199.053,181.95 199.407,183.209 C199.765,184.479 203.339,187.898 207.426,190.879 C211.481,193.838 215.858,197.213 217.153,198.379 C237.198,216.444 238.072,217.4 247.786,231.88 C260.302,250.536 264.226,258.444 263.81,264.17 C263.565,267.538 262.959,268.739 260.931,269.872 C257.076,272.026 253.92,270.66 249.704,265.013 C245.82,259.811 245.654,258 249.059,258 C253.113,258 251.243,253.006 242.25,239.814 C237.438,232.755 232.978,226.023 232.34,224.854 C231.703,223.686 230.616,222.38 229.925,221.954 C229.234,221.527 224.979,217.65 220.47,213.339 C215.961,209.027 208.994,203.058 204.987,200.074 L197.703,194.648 L195.852,196.935 C194.833,198.193 194,200.72 194,202.552 C194,204.383 193.55,206.16 193,206.5 C192.45,206.84 192,208.18 192,209.478 C192,210.776 191.359,213.112 190.575,214.669 C189.792,216.226 188.636,219.525 188.006,222 C186.085,229.555 183.89,236.289 181.898,240.739 C180.854,243.071 179.981,245.546 179.958,246.239 C179.868,248.955 174.262,257.06 169.729,261.029 C166.111,264.197 164.42,265.058 162.729,264.591 C161.503,264.253 156.297,259.932 151.16,254.988 C146.024,250.045 141.202,246 140.446,246 C138.7,246 136.672,242.296 137.392,240.422 C137.711,239.59 139.299,239.003 141.219,239.008 C143.713,239.014 146.752,240.693 153.885,246.008 C163.761,253.366 163.824,253.4 165.665,252.228 C167.139,251.291 174,238.432 174,236.608 C174,235.858 174.675,234.685 175.5,234 C176.325,233.315 177,231.679 177,230.364 C177,229.049 177.405,227.191 177.9,226.236 C178.396,225.281 179.577,221.8 180.525,218.5 C181.473,215.2 182.643,211.719 183.124,210.764 C183.606,209.809 184,208.265 184,207.335 C184,205.638 185.057,201.9 187.605,194.584 C189.24,189.891 188.813,189.225 181.853,185.614 C177.082,183.138 176.557,183.06 174.361,184.499 C173.063,185.35 172,186.486 172,187.023 C172,188.546 168.003,188.17 167.396,186.59 C166.536,184.348 169.842,179.012 172.798,177.872 C174.284,177.299 177.188,177.093 179.25,177.415 C181.313,177.737 184.73,178.275 186.844,178.611 L190.688,179.222 L191.948,172.861 C192.64,169.362 193.421,162.988 193.681,158.696 C194.125,151.392 193.983,150.666 191.451,147.347 C189.108,144.276 188.341,143.882 185.718,144.406 C181.946,145.161 180,146.723 180,148.996 C180,151.002 163.429,167.233 156.545,171.969 C154.014,173.71 150.42,175.382 148.558,175.684 C145.517,176.178 145.002,175.905 143.504,173.007 C141.863,169.835 141.882,169.733 144.592,166.904 C148.786,162.527 149.968,157.779 149.985,145.25 C150.002,132.218 149.452,131.634 142.914,137.75 C139.145,141.276 138.884,141.889 138.56,148 C137.788,162.545 136.681,173.598 135.83,175.25 C134.791,177.269 131.946,177.546 130.2,175.8 C128.654,174.254 128.606,158.294 130.124,150.736 C131.146,145.649 131.054,144.824 129.124,141.701 C126.46,137.391 126.466,136.197 129.163,133.327 C131.274,131.08 131.324,130.365 131.295,103.262 C131.27,80.169 131.032,75.55 129.882,75.798 C129.122,75.961 126.193,77.244 123.373,78.649 C119.103,80.776 117.881,81.007 116.059,80.032 C114.245,79.061 113.988,78.319 114.551,75.68 C115.523,71.131 116.707,70.016 124,66.771 C127.575,65.18 132.3,63.046 134.5,62.029 C136.7,61.011 140.975,59.089 144,57.759 C147.025,56.428 151.975,54.159 155,52.718 Z M73.5,97.422 C83.4,93.976 92.14,91.121 92.921,91.078 C94.715,90.98 98,93.896 98,95.587 C98,97.542 93.137,100.511 86.629,102.529 C80.748,104.353 77.013,108.047 77.004,112.05 C77.002,112.902 76.474,114.126 75.832,114.768 C74.404,116.196 72.047,122.767 71.983,125.5 C71.957,126.6 71.276,128.374 70.468,129.441 C69.661,130.509 69,132.395 69,133.632 C69,134.87 68.55,136.16 68,136.5 C67.45,136.84 67,138.035 67,139.155 C67,140.275 66.261,142.611 65.357,144.346 C62.339,150.141 62,150.964 62,152.5 C62,153.34 61.616,154.809 61.147,155.764 C60.678,156.719 59.62,159.075 58.796,161 C57.973,162.925 55.585,168.1 53.49,172.5 C51.395,176.9 49.251,181.625 48.725,183 C48.199,184.375 47.383,186.175 46.912,187 C46.441,187.825 45.33,190.075 44.444,192 C43.557,193.925 42.344,196.4 41.747,197.5 C41.151,198.6 39.354,201.975 37.753,205 C36.153,208.025 33.516,212.75 31.893,215.5 C30.271,218.25 28.477,221.618 27.907,222.985 C25.357,229.101 23.766,232.61 22.914,234 C22.409,234.825 21.581,236.451 21.074,237.614 C19.896,240.317 17.384,241.276 14.928,239.961 C12.336,238.574 12.507,235.488 15.504,229.581 C16.877,226.875 18,224.35 18,223.969 C18,223.588 19.865,219.952 22.144,215.888 C24.423,211.825 27.369,206.475 28.692,204 C30.014,201.525 31.507,198.825 32.009,198 C32.511,197.175 35.018,192 37.579,186.5 C40.14,181 43.494,173.8 45.031,170.5 C46.567,167.2 48.764,162.503 49.912,160.062 C51.061,157.621 52,155.212 52,154.707 C52,154.203 53.125,151.551 54.5,148.813 C55.875,146.076 57,142.967 57,141.904 C57,140.842 57.404,139.191 57.897,138.236 C59.306,135.51 61.67,128.923 63.007,124 C63.678,121.525 64.686,118.518 65.247,117.317 C65.807,116.117 66.015,114.481 65.708,113.681 C65.231,112.439 64.155,112.52 58.325,114.235 C48.757,117.05 45.793,117.349 43.603,115.721 C42.245,114.712 41.882,113.608 42.326,111.839 C43.201,108.35 46.538,106.807 73.5,97.422 Z M74.174,170.314 C77.458,166.819 85.078,167.012 87.949,170.662 C90.952,174.48 91.428,177.418 89.515,180.337 C87.918,182.774 87.95,182.921 90.43,184.546 C91.844,185.472 93,186.819 93,187.538 C93,189.605 88.309,194.648 81.637,199.753 C78.262,202.336 74.628,205.248 73.561,206.225 C68.594,210.773 63.477,205.012 67.196,199.058 C68.837,196.43 65.852,190.893 60.339,186.34 C55.44,182.296 54.729,180.844 56.003,177.491 C57.5,173.556 60.895,174.306 66.231,179.75 C68.791,182.363 71.351,185.738 71.918,187.25 C73.511,191.493 76.164,190.724 78.681,185.291 C79.88,182.703 80.641,180.228 80.372,179.792 C79.581,178.513 77.344,178.881 75.99,180.512 C74.107,182.781 72,180.5 72,176.192 C72,173.91 72.782,171.797 74.174,170.314 Z M82.389,213.98 C85.55,212.703 87.094,212.86 91.632,214.92 C96.81,217.272 109.992,230.699 109.997,233.628 C110.001,236.513 107.537,238.352 104.641,237.625 C103.33,237.296 100.544,235.108 98.45,232.763 C93.854,227.615 91.401,226.082 87.684,226.035 C83.624,225.984 81.359,224.469 80.147,220.993 C78.864,217.311 79.563,215.121 82.389,213.98 Z M133.278,196.25 C135.719,193.095 146.511,196.304 151.618,201.703 C155.602,205.916 158.374,205.961 160.427,201.846 C161.292,200.112 162,198.054 162,197.273 C162,196.47 162.745,195.997 163.716,196.184 C165.114,196.453 165.378,197.441 165.139,201.507 C164.978,204.253 164.43,206.927 163.923,207.45 C163.415,207.972 163,209.57 163,211 C163,214.095 161.338,216 158.637,216 C157.558,216 153.356,213.255 149.3,209.9 C143.586,205.173 140.977,203.679 137.713,203.265 C131.249,202.444 130.006,200.478 133.278,196.25 Z M138.25,70.36 C135.649,71.648 135.379,73.24 137.469,74.974 C138.491,75.822 138.882,77.915 138.755,81.847 C138.465,90.815 139.937,101 141.523,101 C144.86,101 146,96.854 146,84.712 C146,69.411 144.769,67.131 138.25,70.36 Z M112.004,204.495 C114.316,201.709 117.26,202.892 123.246,209.009 C128.311,214.185 129.082,215.466 128.813,218.259 C128.569,220.786 127.983,221.573 126.152,221.832 C123.674,222.183 119,218.632 119,216.398 C119,215.709 117.958,214.325 116.685,213.323 C115.412,212.32 113.559,210.26 112.567,208.745 C111.109,206.517 111.001,205.704 112.004,204.495 Z M142.75,113.226 C141.238,114.988 139.994,117.121 139.986,117.965 C139.979,118.809 139.703,120.507 139.373,121.738 C138.273,125.842 141.714,125.685 146.071,121.431 C150.127,117.47 151.168,113.568 148.8,111.2 C146.946,109.346 145.73,109.753 142.75,113.226 Z"/>
</svg>

