<svg xmlns="http://www.w3.org/2000/svg" width="300" height="300" viewBox="0 0 300 300" version="1.1">
  <defs/>
  <path d="M141.689,60.75 C142.367,59.565 143.612,59.862 145.889,61.75 C147.478,63.067 148.236,65.354 148.958,71 C150.252,81.112 151.068,84.924 152.074,85.546 C153.159,86.216 161.999,74.998 161.999,72.95 C162,70.385 164.061,68.962 166.153,70.082 C168.279,71.22 168.625,75.817 166.845,79.264 C166.209,80.494 165.422,82.021 165.095,82.657 C164.768,83.293 162.588,86.607 160.25,90.021 C157.298,94.333 156,97.267 156,99.633 C156,103.121 159.129,112.988 162.777,121 C163.903,123.475 165.368,127.3 166.031,129.5 C167.49,134.344 168.854,137.503 175.146,150.619 C177.816,156.185 180,161.482 180,162.391 C180,163.299 181.079,165.721 182.399,167.771 C183.718,169.822 185.362,173.3 186.053,175.5 C187.672,180.663 189.478,184.535 192.58,189.5 C193.954,191.7 196.007,195.525 197.142,198 C198.276,200.475 200.283,204.835 201.602,207.688 C202.921,210.542 204,213.16 204,213.508 C204,213.855 205.324,216.064 206.942,218.416 C208.561,220.768 210.18,223.869 210.541,225.305 C211.311,228.374 213.163,230.172 214.544,229.193 C215.426,228.568 218.987,214.874 220.575,206 C222.069,197.647 222.047,186.535 220.513,175.445 C219.616,168.957 218.42,162.785 217.856,161.731 C216.433,159.072 217.641,154.784 219.7,155.184 C222.993,155.823 227.116,166.982 229.056,180.5 C230.733,192.19 228.531,232.623 225.843,239.5 C222.886,247.066 218.866,247.913 212.621,242.288 C208.611,238.675 203,231.706 203,230.337 C203,229.963 202.353,228.943 201.562,228.069 C199.654,225.96 180,187.035 180,185.364 C180,183.746 176.115,176.189 174.896,175.436 C174.403,175.131 174,174.148 174,173.251 C174,172.353 172.029,167.542 169.619,162.56 C163.346,149.587 162,146.408 162,144.567 C162,143.671 161.319,142.676 160.487,142.357 C158.453,141.576 156.007,143.749 155.968,146.372 C155.951,147.543 155.276,149.374 154.468,150.441 C153.661,151.509 153,153.196 153,154.191 C153,155.186 152.555,156 152.01,156 C151.466,156 149.608,158.897 147.882,162.437 C145.538,167.245 142.068,171.546 134.168,179.437 C127.82,185.777 122.796,190 121.601,190 C120.505,190 118.347,188.791 116.805,187.313 L114,184.626 L114,148.021 C114,120.624 114.392,108.428 115.558,99.534 C116.416,92.998 117.495,86.941 117.957,86.075 C118.419,85.209 119.12,81.912 119.514,78.75 C119.962,75.155 120.705,73 121.497,73 C123.994,73 125.052,81.501 124.36,96 C123.595,112.031 124.019,112.732 130.763,106.604 C132.818,104.737 136.451,101.499 138.836,99.41 C140.505,97.949 141.607,96.985 142.207,95.772 C143.376,93.406 142.631,90.095 140.435,80.299 C138.815,73.071 138.755,71.47 139.928,66.799 C140.661,63.885 141.453,61.163 141.689,60.75 Z M75.421,58.75 C82.197,54.498 83.968,54.202 86.418,56.909 C87.999,58.656 88.015,59.071 86.604,61.799 C85.019,64.864 75.605,72.183 70.791,74.093 C67.472,75.409 66.713,77.512 67.972,81.901 C68.501,83.746 68.561,85.985 68.105,86.878 C67.649,87.77 66.994,91.33 66.649,94.788 C66.099,100.309 63.761,107.829 60.914,113.236 C60.411,114.191 60,115.814 60,116.841 C60,117.869 58.202,122.262 56.004,126.605 C53.807,130.947 52.007,135.261 52.004,136.191 C52.002,137.121 51.55,138.16 51,138.5 C49.181,139.624 49.91,143.164 52.077,143.73 C53.219,144.029 54.558,145.337 55.052,146.637 C56.273,149.849 58.182,149.611 63.447,145.592 C71.516,139.433 78.786,138.571 83.702,143.19 C85.625,144.997 86,146.371 86,151.615 C86,155.062 85.55,158.16 85,158.5 C84.45,158.84 84,160.641 84,162.502 C84,167.609 77.497,178 74.301,178 C73.558,178 72.535,179.094 72.026,180.431 C71.259,182.449 66.873,186.324 58.371,192.495 C56.548,193.818 53.768,192.044 52.619,188.823 C51.99,187.06 52.237,185.303 53.48,182.683 C55.102,179.265 55.11,178.733 53.602,174.964 C52.706,172.725 52.255,169.832 52.592,168.489 C52.99,166.904 52.472,164.882 51.101,162.663 C49.945,160.793 49,158.62 49,157.832 C49,157.044 48.481,155.881 47.847,155.247 C45.792,153.192 43.371,155.68 41.562,161.704 C39.994,166.924 37.093,173.97 34.852,178 C30.436,185.941 28.302,190.042 27.017,193.054 C26.182,195.009 23.55,198.358 21.166,200.496 C17.711,203.596 16.494,204.173 15.166,203.341 C12.941,201.948 12.518,197.645 14.449,196.042 C15.302,195.334 16,194.29 16,193.722 C16,193.154 17.04,191.296 18.311,189.594 C21.005,185.986 23.485,180.771 29.2,166.699 C31.478,161.09 33.715,156.35 34.171,156.167 C34.627,155.983 34.993,155.083 34.985,154.167 C34.972,152.719 39.366,141.115 43.626,131.349 C44.382,129.616 45,127.697 45,127.085 C45,126.473 45.399,125.191 45.888,124.236 C49.092,117.969 52,111.277 52,110.171 C52,108.943 52.967,106.38 58.546,92.818 C59.832,89.693 61.197,85.466 61.58,83.425 C62.243,79.893 62.161,79.741 59.888,80.263 C58.575,80.565 53.9,82.249 49.5,84.005 C45.1,85.761 39.7,87.863 37.5,88.676 C35.3,89.489 32.729,90.85 31.787,91.699 C29.598,93.672 27.241,92.763 25.985,89.461 C24.406,85.308 24.78,84.396 28.75,82.72 C30.813,81.849 33.625,80.47 35,79.656 C38.623,77.511 47.909,73.402 52.188,72.051 C54.216,71.41 56.975,70.021 58.32,68.963 C59.664,67.905 61.83,66.582 63.132,66.022 C64.435,65.463 66.388,64.441 67.472,63.752 C68.557,63.064 72.134,60.813 75.421,58.75 Z M139.464,112.965 C133.712,118.897 132.077,120.016 128.348,120.575 C125.943,120.936 123.743,121.607 123.459,122.066 C123.175,122.525 122.843,133.562 122.722,146.592 C122.515,168.723 122.622,170.355 124.353,171.391 C125.855,172.29 126.424,172.126 127.353,170.527 C127.984,169.441 132.138,164.941 136.585,160.527 C144.003,153.163 152.949,140.27 153.032,136.826 C153.049,136.096 153.737,134.609 154.561,133.519 C156.032,131.573 155.744,126.796 154.017,124.5 C153.603,123.95 152.475,121.025 151.509,118 C150.544,114.975 149.359,112.073 148.877,111.55 C148.395,111.027 148,109.817 148,108.859 C148,105.256 146.012,106.212 139.464,112.965 Z M146.084,31.894 C150.052,26.883 153.423,26.847 156.171,31.786 C157.797,34.707 157.838,35.317 156.547,37.286 C154.851,39.872 146.536,47 145.215,47 C144.717,47 143.496,47.899 142.501,48.999 C141.506,50.098 138.007,52.911 134.725,55.249 C131.443,57.587 127.35,60.675 125.629,62.111 C123.908,63.548 121.149,65.414 119.498,66.259 C117.846,67.104 115.639,68.741 114.593,69.898 C112.21,72.53 110.95,72.535 107.635,69.927 C105.709,68.412 105,66.938 105,64.444 C105,61.397 105.506,60.764 109.75,58.504 C123.693,51.078 140.83,38.528 146.084,31.894 Z M145.5,203.033 C152.615,199.545 153.149,199.479 155.893,201.75 C157.802,203.33 157.893,203.864 156.836,207.25 C155.806,210.547 154.644,211.552 147.219,215.566 C142.575,218.077 137.958,220.89 136.959,221.816 C135.961,222.742 133.748,224.321 132.042,225.324 L128.941,227.148 L125.97,223.968 C124.337,222.219 123,220.203 123,219.487 C123,216.788 134.302,208.523 145.5,203.033 Z M66.717,156.593 C61.699,160.502 60.852,163.1 63.468,166.559 C64.276,167.626 64.951,169.287 64.968,170.25 C64.986,171.213 65.205,172 65.455,172 C66.503,172 71,166.802 71,165.589 C71,164.864 71.927,163.092 73.059,161.652 C74.192,160.212 75.205,157.789 75.309,156.268 C75.597,152.097 72.329,152.22 66.717,156.593 Z"/>
</svg>

