<svg xmlns="http://www.w3.org/2000/svg" width="300" height="300" viewBox="0 0 300 300" version="1.1">
  <defs/>
  <path d="M167.411,191.496 C168.686,189.549 169.894,189 172.901,189 C175.072,189 177.288,189.642 177.975,190.47 C179.442,192.237 178.565,200.933 176.45,205.604 C174.714,209.439 163.658,221.45 158.137,225.5 C155.888,227.15 154.037,228.797 154.024,229.16 C153.985,230.245 178.175,233.553 193,234.49 C203.125,235.129 231.651,239.281 241.5,241.548 C245.35,242.435 251.748,243.513 255.718,243.944 C262.495,244.68 268,246.919 268,248.938 C268,250.549 258.286,257 255.866,256.996 C254.565,256.994 252.143,256.165 250.485,255.154 C248.827,254.143 244.327,252.751 240.485,252.062 C236.643,251.372 232.15,250.427 230.5,249.962 C225.16,248.457 188.375,243.944 179,243.644 C176.525,243.565 174.05,243.213 173.5,242.863 C171.522,241.603 152.341,240.774 150.393,241.864 C149.352,242.447 142.425,243.638 135,244.511 C127.575,245.385 120.009,246.571 118.187,247.148 C113.706,248.567 110.552,245.988 111.426,241.618 C112.471,236.393 114.943,234.722 124.241,232.956 C126.849,232.46 130.871,231.143 133.179,230.028 C135.487,228.912 137.933,228 138.615,228 C140.776,228 144.183,222.767 143.475,220.538 C140.91,212.468 138.503,193.097 139.893,191.707 C141.325,190.275 145.316,191.629 146.816,194.055 C147.539,195.225 148.75,199.418 149.507,203.372 C152.291,217.923 154.293,219.236 160.753,210.75 C166.388,203.348 167.183,201.49 166.431,197.482 C165.972,195.036 166.265,193.244 167.411,191.496 Z M168.291,34.25 C172.583,29.557 180.838,33.06 179.637,39.065 C178.849,43.006 180.27,43.48 184.893,40.819 C188.719,38.617 188.94,38.601 192.417,40.259 C194.833,41.411 196,42.646 196,44.05 C196,46.742 194.171,50.153 191.841,51.807 C190.829,52.525 190,53.693 190,54.402 C190,55.11 187.065,59.022 183.478,63.095 C179.891,67.168 177.082,71.16 177.235,71.966 C177.539,73.563 177.527,73.557 193.419,81.229 C199.425,84.128 206.4,88.306 208.919,90.512 C214.838,95.697 228.468,106.157 231.3,107.69 C234.077,109.191 246.727,121.425 250.019,125.791 C251.384,127.601 253.738,130.514 255.25,132.264 C258.435,135.95 258.704,138.081 256.25,140.204 C253.037,142.983 250.04,143.061 247.748,140.425 C246.588,139.091 245.207,138 244.679,138 C244.151,138 241.87,137.116 239.61,136.035 C237.349,134.955 233.757,133.38 231.628,132.535 C228.358,131.239 227.949,130.766 229,129.5 C229.715,128.639 231.896,128 234.122,128 C236.255,128 237.991,127.662 237.979,127.25 C237.94,125.848 226.518,115.386 222.503,113.076 C220.304,111.811 217.604,109.913 216.503,108.858 C210.891,103.483 203.249,97.564 200.059,96.121 C198.087,95.23 195.13,93.567 193.487,92.428 C191.844,91.288 188.7,89.543 186.5,88.55 C184.3,87.557 181.816,86.151 180.98,85.426 C180.117,84.677 175.472,83.805 170.234,83.41 C160.175,82.651 158.889,81.924 158.65,76.862 C158.524,74.174 159.212,73.126 163,70.238 C165.475,68.35 168.149,65.49 168.942,63.882 C170.278,61.17 170.228,60.848 168.255,59.466 C166.302,58.098 166.131,57.09 166.18,47.238 C166.226,37.838 166.489,36.22 168.291,34.25 Z M74.5,90.59 C78.998,87.833 82.659,87.425 85.25,89.392 C87.304,90.951 87.506,93.305 85.75,95.221 C85.063,95.971 84.005,97.465 83.399,98.542 C82.794,99.619 81.061,100.647 79.549,100.826 C75.672,101.286 70.703,104.257 69.366,106.915 C68.742,108.154 67.73,109.67 67.116,110.284 C66.502,110.898 66,113.024 66,115.009 C66,116.994 65.339,119.491 64.532,120.559 C63.724,121.626 63.049,123.711 63.032,125.191 C63.014,126.671 62.585,128.139 62.077,128.452 C61.569,128.766 60.836,130.48 60.447,132.261 C60.058,134.043 58.898,136.573 57.87,137.885 C56.841,139.197 56,141.273 56,142.5 C56,143.727 55.128,145.839 54.062,147.194 C52.996,148.549 51.828,150.972 51.467,152.579 C51.106,154.186 48.828,159.423 46.405,164.218 C43.982,169.013 42,173.824 42,174.909 C42,175.994 41.549,177.161 40.997,177.502 C40.446,177.842 39.088,180.006 37.98,182.311 C36.871,184.615 35.563,187.175 35.072,188 C33.879,190.003 30,200.041 30,201.125 C30,201.597 28.537,203.928 26.75,206.305 C24.962,208.682 20.8,215.899 17.5,222.342 C11.721,233.625 11.39,234.046 8.5,233.778 C5.588,233.508 5.505,233.357 5.672,228.628 C5.812,224.671 6.423,223.158 8.922,220.58 C10.615,218.834 12,216.665 12,215.761 C12,214.858 12.478,213.823 13.062,213.462 C13.646,213.101 14.552,211.837 15.077,210.653 C15.601,209.469 16.916,207.15 18,205.5 C20.387,201.866 22,198.297 22,196.651 C22,195.205 36.029,166.875 37.804,164.736 C38.479,163.922 40.089,160.161 41.382,156.378 C42.674,152.595 44.631,147.475 45.729,145 C46.827,142.525 48.517,138.475 49.483,136 C50.449,133.525 51.603,130.6 52.048,129.5 C52.493,128.4 53.62,125.025 54.552,122 C55.483,118.975 56.641,116.073 57.123,115.55 C58.514,114.044 58.143,110.992 56.492,110.359 C55.663,110.04 53.795,110.56 52.341,111.512 C50.526,112.702 47.472,113.285 42.599,113.372 L35.5,113.5 L35.816,109.5 C35.99,107.3 36.534,105.092 37.024,104.593 C38.041,103.557 54.767,97.641 63,95.405 C69.62,93.607 69.493,93.66 74.5,90.59 Z M138.991,50.035 C140.921,49.576 142.838,49.156 143.25,49.1 C144.63,48.916 148,52.978 148,54.826 C148,55.83 146.875,57.708 145.5,59 C144.125,60.292 143,62.23 143,63.306 C143,64.383 142.102,66.716 141.005,68.492 C139.908,70.267 138.342,73.612 137.526,75.926 C136.71,78.239 135.077,81.488 133.897,83.145 C132.717,84.802 130.734,89.071 129.489,92.632 C128.245,96.193 126.951,99.382 126.614,99.72 C126.276,100.057 126,101.583 126,103.11 C126,104.638 125.188,106.474 124.194,107.193 C122.316,108.552 114,123.974 114,126.099 C114,126.766 112.94,128.704 111.644,130.406 C110.349,132.108 108.361,135.322 107.227,137.548 C106.093,139.775 102.934,143.974 100.207,146.878 L95.248,152.16 L90.374,151.463 C84.815,150.668 83.671,149.933 84.156,147.463 C84.546,145.482 86.257,144.381 90.255,143.539 C93.286,142.901 98.534,136.489 102.155,129 C103.351,126.525 105.156,123.306 106.165,121.846 C107.174,120.386 108,118.528 108,117.718 C108,116.908 108.698,115.666 109.551,114.958 C110.413,114.242 110.968,112.524 110.801,111.086 C110.552,108.949 110.066,108.566 108,108.882 C100.389,110.047 99.019,109.044 100.447,103.355 C101.2,100.354 107.103,97.571 111.044,98.359 C114.832,99.116 117.968,95.479 122.991,84.5 C125.256,79.55 128.236,73.364 129.615,70.753 C133.459,63.474 131.666,62.195 124.111,66.826 C118.445,70.299 115.012,71.255 113.302,69.836 C111.434,68.285 111.697,63.567 113.75,61.822 C117.051,59.015 126.03,54 127.765,53.994 C128.719,53.99 130.846,53.286 132.491,52.428 C134.136,51.57 137.061,50.493 138.991,50.035 Z M164.465,135.473 C170.568,133.544 172.551,133.751 176.033,136.681 C178.94,139.127 179.179,139.763 178.759,143.931 C178.186,149.611 174.695,157.248 170.27,162.5 C165.343,168.347 165.1,168.686 163.835,171.462 C163.199,172.858 162.013,174 161.2,174 C160.387,174 157.646,175.262 155.111,176.804 C152.575,178.345 148.985,180.222 147.133,180.974 C143.962,182.26 143.657,182.199 141.905,179.92 C140.882,178.589 140.034,176.884 140.022,176.132 C140.01,175.38 138.762,173.279 137.25,171.465 C135.738,169.65 133.691,167.003 132.703,165.583 C131.611,164.013 129.958,163 128.488,163 C124.157,163 122.45,155.989 126.208,153.634 C127.437,152.864 129.195,152.905 132.468,153.78 L137.019,154.997 L143.26,148.639 C149.386,142.396 156.463,138.002 164.465,135.473 Z M76.441,162.882 C78.123,162.542 79.883,162.204 80.35,162.132 C80.817,162.059 82.791,163.591 84.735,165.535 C88.045,168.845 88.234,169.376 87.702,173.872 C87.389,176.512 86.105,180.788 84.849,183.374 C82.969,187.243 82.779,188.416 83.77,190.004 C85.376,192.575 83.955,196.185 80.319,198.769 C76.769,201.292 64.746,207 62.982,207 C59.552,207 56.715,201.714 58.929,199.45 C59.502,198.864 59.428,196.635 58.735,193.636 C57.885,189.956 56.198,187.213 51.805,182.366 C48.612,178.843 46,175.519 46,174.98 C46,173.223 49.948,170 52.1,170 C53.255,170 55.775,171.575 57.7,173.5 C59.625,175.425 61.628,177 62.151,177 C62.674,177 63.801,175.313 64.655,173.25 C66.519,168.75 72.22,163.735 76.441,162.882 Z M155.485,105.132 C160.461,102.47 163.432,102.432 166,105 C169.306,108.306 168.298,113.06 163.296,117.75 C160.589,120.289 158.84,120.542 156.048,118.798 C153.61,117.275 151.509,118.334 143.635,125.054 C136.127,131.46 133.121,131.669 130.603,125.961 C128.573,121.36 129.556,119 133.5,119 C134.74,119 136.352,118.281 137.082,117.401 C138.57,115.608 149.399,108.389 155.485,105.132 Z M160.659,147.494 C155.715,150.072 149.922,155.163 147.419,159.128 C145.075,162.842 144.058,170 145.875,170 C147.502,170 161.485,159.227 163.587,156.353 C167.505,150.998 168.254,149.011 166.947,147.436 C165.445,145.626 164.219,145.637 160.659,147.494 Z M71.47,174.814 C69.804,175.748 67.196,177.419 65.675,178.527 C62.947,180.514 62.931,180.59 64.455,184.238 C65.305,186.272 66,188.85 66,189.968 C66,191.086 66.605,192 67.345,192 C68.889,192 72,188.854 72,187.294 C72,186.717 72.708,185.657 73.573,184.939 C74.438,184.221 76.04,181.882 77.132,179.741 C78.689,176.689 78.863,175.54 77.937,174.424 C76.443,172.623 75.248,172.695 71.47,174.814 Z"/>
</svg>

