<svg xmlns="http://www.w3.org/2000/svg" width="300" height="300" viewBox="0 0 300 300" version="1.1">
  <defs/>
  <path d="M145.454,45.688 C147.679,43.464 149.571,43.558 153.096,46.068 C154.956,47.393 156,49.022 156,50.599 C156,54.034 158.122,54.489 162.863,52.07 C167.977,49.461 171.188,49.445 173.516,52.017 C175.295,53.983 175.269,54.11 172.495,57.005 C170.93,58.638 168.183,60.25 166.39,60.587 C164.597,60.923 162.36,62.05 161.418,63.09 C159.865,64.806 159.837,65.471 161.111,70.237 C162.324,74.776 163.058,75.772 166.508,77.56 C171.371,80.081 174.504,84.494 175.397,90.084 C177.101,100.736 172.644,117.066 166.395,123.073 C162.359,126.952 159.625,131.584 160.518,133.029 C161.497,134.614 162.53,134.202 168.123,130 C171.051,127.8 174.392,126 175.549,126 C179.122,126 184,133.132 184,138.356 C184,139.6 184.661,141.491 185.468,142.559 C186.276,143.626 186.951,145.218 186.968,146.096 C186.986,146.974 187.759,149.214 188.687,151.074 C191.189,156.089 191.645,164.22 189.523,165.981 C186.923,168.138 184.798,166.123 182.582,159.399 C181.512,156.155 179.23,150.8 177.511,147.5 C175.011,142.701 173.846,141.437 171.693,141.184 C169.647,140.943 168.78,141.423 168.079,143.184 C166.699,146.651 158.23,155.83 153.871,158.581 C148.658,161.872 145.052,161.707 141.517,158.017 C140.248,156.693 139.447,156.035 139.337,155.277 C139.171,154.14 140.559,152.777 144.25,148.602 C145.213,147.514 146,145.834 146,144.87 C146,143.907 146.416,142.861 146.924,142.547 C147.432,142.233 147.732,139.619 147.589,136.738 C147.343,131.752 147.19,131.486 144.407,131.205 C141.422,130.903 138,126.649 138,123.24 C138,119.319 134.91,111.786 129.727,103.067 C125.129,95.335 125.015,91.67 129.354,91.174 C131.251,90.957 132.995,91.586 134.553,93.05 C137.508,95.826 139.2,95.181 141.67,90.336 C142.881,87.961 145.03,85.802 147.312,84.668 L150.998,82.836 L150.376,77.168 C149.454,68.765 148.635,68.258 139.61,70.506 C131.154,72.611 129,71.906 129,67.033 C129,63.399 131.664,61.189 137.316,60.133 C144.027,58.88 144.997,57.77 144.327,52.113 C143.895,48.464 144.154,46.989 145.454,45.688 Z M170.667,153.667 C173.035,151.298 178,154.974 178,159.096 C178,160.628 178.45,162.16 179,162.5 C179.55,162.84 180,164.689 180,166.609 C180,170.405 182.43,176 184.08,176 C184.645,176 189.696,174.495 195.304,172.656 C218.253,165.129 219.009,164.934 221.049,166.026 C223.106,167.127 223.342,168.124 222.385,171.691 C221.911,173.46 219.844,174.488 211.649,177.032 C196.612,181.699 186.655,185.178 185.283,186.244 C183.949,187.281 184.233,199.953 185.641,202.223 C186.511,203.627 187.828,216.27 188.63,230.935 C188.946,236.717 189.698,241.159 190.573,242.408 C191.712,244.034 192,249.249 192,268.245 L192,292.044 L187.406,294.958 C183.41,297.492 182.466,297.723 180.156,296.731 C175.528,294.743 161.654,283.447 157.536,278.314 C155.355,275.596 151.643,271.828 149.286,269.941 C143.982,265.694 143.601,263 148.304,263 C151.889,263 159.131,267.106 164.345,272.095 C166.08,273.755 168.664,275.736 170.086,276.497 C171.509,277.259 173.894,279.484 175.387,281.441 C178.145,285.057 182.329,286.288 183.23,283.75 C183.474,283.063 183.782,276.017 183.914,268.094 C184.138,254.72 183.635,249.409 180.778,235 C179.303,227.561 178.049,216.65 177.203,203.904 C176.314,190.508 174.604,188.152 167.797,190.941 C166.534,191.459 158.975,194.405 151,197.487 C128.943,206.013 121.838,209.058 117.902,211.672 C113.85,214.363 104.085,218.17 102.983,217.489 C102.585,217.244 101.688,215.661 100.988,213.971 C98.954,209.06 100.845,206.894 110.827,202.701 C119.542,199.04 127.646,196.016 136,193.308 C138.475,192.506 142.975,190.783 146,189.479 C149.025,188.174 153.3,186.602 155.5,185.984 C157.7,185.366 160.4,184.464 161.5,183.979 C162.6,183.495 165.525,182.442 168,181.64 C172.408,180.211 172.493,180.103 172.147,176.341 C171.953,174.228 171.39,171.742 170.897,170.816 C169.862,168.872 169.671,154.662 170.667,153.667 Z M88.5,114.375 C101.523,107.645 106.406,106.553 107.537,110.118 C108.42,112.898 106.337,114.913 96.445,120.848 C89.018,125.305 88.431,125.917 86.191,131.538 C84.885,134.817 83.215,138.85 82.48,140.5 C81.745,142.15 80.59,145.3 79.913,147.5 C79.235,149.7 77.221,154.65 75.437,158.5 C73.653,162.35 71.928,166.175 71.603,167 C71.278,167.825 70.613,169.175 70.125,170 C68.194,173.262 62,186.742 62,187.682 C62,188.231 63.649,189.854 65.664,191.288 C69.764,194.205 72.412,193.676 73.949,189.633 C75.933,184.417 87.276,178.505 93.076,179.665 C96.71,180.392 98.377,183.508 99.463,191.605 C100.115,196.467 99.932,197.042 95.617,203.713 C91.345,210.317 85.017,217 83.037,217 C82.545,217 81.387,216.244 80.462,215.319 C78.888,213.745 78.676,213.778 77.117,215.845 C75.716,217.702 75.193,217.849 73.814,216.776 C72.913,216.074 71.271,213.771 70.165,211.659 C67.396,206.369 60.297,199 57.97,199 C56.16,199 55.408,200.248 51.038,210.5 C47.036,219.89 34.645,243.63 32.522,245.976 C30.063,248.693 26.608,248.261 26.172,245.182 C25.869,243.049 29.332,234.157 30.916,233 C32.785,231.634 38,221.655 38,219.443 C38,218.053 38.9,215.95 40,214.77 C41.1,213.589 42,211.988 42,211.213 C42,210.437 42.721,208.159 43.602,206.151 C44.483,204.143 45.569,201.6 46.016,200.5 C46.949,198.2 51.549,188.288 59.01,172.5 C63.799,162.367 64.745,160.255 66.403,156 C66.724,155.175 67.388,153.825 67.878,153 C68.368,152.175 69.224,150.375 69.782,149 C70.34,147.625 71.48,144.925 72.315,143 C73.151,141.075 74.148,137.808 74.53,135.74 C74.842,134.057 75.149,133.046 74.804,132.713 C74.286,132.215 72.302,133.238 66.667,135.801 C64.009,137.011 61.309,138.002 60.667,138.004 C60.025,138.006 58.018,138.911 56.206,140.016 C52.765,142.114 50.701,141.755 48.085,138.603 C46.403,136.576 47.592,133.261 50.301,132.42 C53.851,131.319 75.517,121.084 88.5,114.375 Z M118.865,227.563 C121.139,225.29 124.578,225.62 134.59,229.073 C139.491,230.763 145.525,232.705 148,233.388 C151.746,234.422 152.5,235.035 152.5,237.042 C152.5,239.157 151.885,239.557 147.5,240.294 C143.417,240.981 140.482,240.626 131.5,238.357 C125.45,236.829 119.987,235.21 119.361,234.759 C117.464,233.394 117.179,229.25 118.865,227.563 Z M146.213,97.273 C144.996,98.569 144,100.239 144,100.986 C144,101.732 143.27,103.149 142.379,104.134 C140.584,106.118 141.154,109 143.341,109 C145.751,109 153.163,100.161 152.813,97.703 C152.375,94.625 148.914,94.399 146.213,97.273 Z M79.928,197.086 C75.798,202.009 75.436,204.618 78.938,204.228 C80.279,204.079 81.409,203.854 81.449,203.728 C81.488,203.603 82.979,201.614 84.76,199.309 C88.605,194.334 88.799,193 85.678,193 C84.187,193 82.129,194.462 79.928,197.086 Z M163.187,94.25 C163.387,96.333 164.039,97.5 165,97.5 C165.961,97.5 166.613,96.333 166.813,94.25 C167.078,91.504 166.797,91 165,91 C163.203,91 162.922,91.504 163.187,94.25 Z M153,140.5 C153,141.333 153.889,142 155,142 C156.111,142 157,141.333 157,140.5 C157,139.667 156.111,139 155,139 C153.889,139 153,139.667 153,140.5 Z M60.98,130.524 C60.284,131.362 59.993,132.327 60.333,132.667 C61.06,133.393 64,131.156 64,129.878 C64,128.5 62.37,128.849 60.98,130.524 Z"/>
</svg>

