<svg xmlns="http://www.w3.org/2000/svg" width="300" height="300" viewBox="0 0 300 300" version="1.1">
  <defs/>
  <path d="M147.946,77.6 C151.771,73.604 153.463,73.204 156.171,75.655 C158.966,78.184 158.421,82.055 154.742,85.808 C151.249,89.373 141.05,97 139.777,97 C138.015,97 139.151,100.913 141.091,101.529 C142.635,102.019 143.036,102.755 142.622,104.338 C141.959,106.875 143.903,120.08 145.141,121.45 C145.613,121.972 146,124.055 146,126.078 C146,132.614 151.149,134.062 152.728,127.97 C153.527,124.887 154.49,124.196 166.231,118.284 C169.306,116.736 173,117.958 173,120.524 C173,121.323 169.87,124.956 166.045,128.597 C158.136,136.123 154.706,141.74 155.542,145.795 C157.595,155.764 158.65,158.41 172.406,188.1 C173.833,191.179 175,194.415 175,195.291 C175,196.166 175.436,197.152 175.969,197.481 C176.502,197.811 179.23,202.615 182.031,208.158 C184.832,213.701 188.221,219.974 189.562,222.098 C190.903,224.222 192,226.449 192,227.047 C192,227.644 193.073,229.566 194.384,231.317 C195.695,233.068 197.11,235.625 197.528,237 C197.946,238.375 199.296,240.85 200.528,242.5 C201.76,244.15 203.057,246.455 203.411,247.622 C204.591,251.517 209.974,260.701 212.639,263.366 C216.217,266.944 218.468,266.89 217.508,263.25 C217.109,261.738 216.934,258.7 217.119,256.5 C217.799,248.392 217.473,209.132 216.629,197.5 C215.37,180.144 215.374,178.734 216.686,178.283 C220.222,177.069 224.319,194.605 225.382,215.5 C225.753,222.782 226.49,226.853 228.094,230.479 C230.109,235.034 230.298,237.083 230.326,254.563 L230.355,273.668 L227.549,277.347 C223.759,282.315 220.88,282.908 216.557,279.611 C214.674,278.175 212.695,277 212.159,277 C211.624,277 209.231,274.824 206.843,272.166 C202.798,267.662 199.769,262.538 186.65,238 C177.269,220.452 175.512,217.312 172.786,213.223 C171.293,210.984 169.167,206.579 168.061,203.433 C166.955,200.287 165.433,196.99 164.677,196.107 C163.922,195.223 162.597,192.475 161.732,190 C158.739,181.427 154.295,169.486 152.986,166.5 C152.263,164.85 150.958,161.477 150.086,159.004 C148.046,153.22 146.003,152.885 142.749,157.803 C139.087,163.337 128.562,174 126.762,174 C124.744,174 123.387,172.153 122.727,168.509 C122.173,165.451 122.867,164.515 138.25,147.582 C141.624,143.867 141.652,142.397 138.526,132.965 C137.165,128.859 136.04,124.289 136.026,122.809 C136.012,121.329 135.58,119.859 135.067,119.542 C134.554,119.224 133.821,115.373 133.438,110.983 C132.662,102.085 131.897,101.426 126.5,105 C124.85,106.093 122.739,106.99 121.809,106.993 C119.468,107.003 118.712,108.593 119.949,110.906 C121.338,113.5 121.419,145.505 120.073,159.5 C118.203,178.943 117.996,181.291 117.035,194 C116.515,200.875 115.817,208.412 115.484,210.75 C114.622,216.791 116.346,216.32 124.634,208.25 C133.939,199.19 140,191.666 140,189.176 C140,185.904 141.828,182 143.36,182 C144.136,182 145.566,183.215 146.54,184.701 C148.825,188.188 148.591,194.886 146.025,199.455 C144.947,201.374 137.562,209.482 129.612,217.472 C114.641,232.521 112.017,234.148 108.872,230.336 C106.932,227.984 107.319,197.557 109.575,175 C110.538,165.375 111.469,148.598 111.645,137.718 C111.838,125.754 112.403,117.116 113.075,115.861 C114.758,112.715 112.929,111.535 108.725,113.055 C104.083,114.733 102,113.799 102,110.038 C102,107.608 102.836,106.432 106.25,104.064 C108.588,102.442 111.648,100.229 113.051,99.147 C114.453,98.064 118.379,96.05 121.773,94.67 C129.278,91.621 143.242,82.513 147.946,77.6 Z M57.5,128.217 C60.25,126.469 63.815,125.029 65.421,125.019 C68.52,124.999 72,127.434 72,129.622 C72,130.77 69.501,136.038 59.341,156.306 C58.015,158.95 54.962,163.53 52.556,166.485 C50.149,169.439 47.882,172.796 47.518,173.943 C46.831,176.108 49.448,181.404 53.368,185.785 C54.952,187.554 55.45,189.583 55.574,194.785 C55.662,198.478 56.081,204.535 56.504,208.245 C57.385,215.952 55.572,226.843 53.261,227.73 C52.476,228.031 50.886,227.33 49.728,226.172 C47.734,224.178 47.615,222.985 47.496,203.737 C47.426,192.555 47.035,182.866 46.626,182.204 C45.179,179.862 42.249,180.956 40.587,184.458 C39.685,186.359 38.574,188.145 38.12,188.426 C36.882,189.191 30.178,203.091 29.533,206.232 C29.224,207.734 27.74,210.436 26.236,212.235 C24.731,214.034 23.006,216.405 22.401,217.503 C21.797,218.601 20.152,220.153 18.747,220.952 C15.312,222.903 13,221.031 13,216.299 C13,213.614 13.892,211.933 17,208.762 C19.2,206.518 21,204.294 21,203.819 C21,203.345 22.028,202.489 23.284,201.916 C25.478,200.917 28.282,197.056 33.027,188.5 C34.247,186.3 36.315,183.228 37.623,181.673 C38.93,180.119 40,177.84 40,176.61 C40,174.289 44.27,164.622 46.454,162 C48.747,159.246 56,144.06 56,142.011 C56,140.305 54.187,140.846 46.193,144.938 C41.962,147.104 37.15,149.191 35.5,149.576 C33.85,149.961 31.966,150.695 31.314,151.207 C30.57,151.792 29.359,151.727 28.064,151.034 C23.528,148.607 27.363,140 32.98,140 C34.427,140 37.136,138.875 39,137.5 C40.864,136.125 43.106,135 43.983,135 C45.85,135 50.511,132.661 57.5,128.217 Z M65.25,190.648 C67.037,189.767 69.972,189.035 71.771,189.023 C75.79,188.995 81.913,192.89 84.359,197.031 C86.035,199.868 86.05,200.275 84.561,202.547 C82.356,205.912 78.389,205.747 74.548,202.13 C70.887,198.683 65.725,197.421 63.965,199.542 C63.299,200.344 62.135,201 61.378,201 C59.797,201 59.498,197.428 61,196.5 C61.55,196.16 62,195.065 62,194.066 C62,193.012 63.365,191.577 65.25,190.648 Z M71.255,77.218 C74.168,75.813 74.748,75.795 77.066,77.035 C78.13,77.605 79.016,79.067 79.035,80.285 C79.055,81.503 79.714,83.625 80.5,85 C82.704,88.855 82.339,90.173 77.585,95.527 C72.475,101.284 70.713,101.084 68.418,94.487 C65.961,87.428 67.327,79.113 71.255,77.218 Z"/>
</svg>

