<svg xmlns="http://www.w3.org/2000/svg" width="300" height="300" viewBox="0 0 300 300" version="1.1">
  <defs/>
  <path d="M117.137,14.909 C122.551,7.629 124.767,6.574 128.171,9.655 C130.667,11.914 130.523,12.571 126.5,17.271 C124.575,19.52 123,21.744 123,22.214 C123,22.684 120.691,26.456 117.869,30.598 C113.281,37.329 112.857,38.391 113.869,40.611 C114.491,41.977 115,45.908 115,49.347 C115,52.786 115.493,56.093 116.096,56.696 C117.501,58.101 126.204,53.657 134.313,47.394 C140.586,42.549 142.776,42.345 144.949,46.404 C147.111,50.445 144.583,53.815 136,58.331 C131.875,60.501 126.177,63.759 123.337,65.57 C118.202,68.846 118.17,68.899 117.497,75.186 C116.57,83.843 117.085,87.404 119.324,87.829 C120.328,88.02 121.903,87.525 122.824,86.731 C124.299,85.459 128.133,84.148 135.758,82.309 C141.794,80.852 147.834,87.74 146.545,94.61 C145.708,99.074 147.524,99.793 152.815,97.094 C161.092,92.872 170.412,89.985 177.21,89.538 C183.556,89.121 184.385,89.294 186.586,91.495 C189.399,94.308 189.645,97.086 187.385,100.535 C186.296,102.197 184.845,103 182.932,103 C181.371,103 178.936,103.528 177.52,104.173 C175.551,105.07 174.67,105.07 173.773,104.173 C170.161,100.561 149.121,106.106 145.82,111.54 C142.828,116.465 142.639,117.192 143.842,119.119 C145.873,122.371 145.103,125.69 141.166,130.66 C139.057,133.322 136.582,136.118 135.666,136.872 C134.75,137.627 134,139.223 134,140.419 C134,141.638 132.245,144.308 130.009,146.492 C126.806,149.619 125.891,151.343 125.377,155.217 C125.025,157.872 124.388,160.26 123.961,160.524 C123.045,161.09 123.629,209.591 124.571,211.114 C124.973,211.765 127.069,211.903 130.145,211.48 C134.747,210.847 148.432,212.607 158.116,215.078 C160.105,215.585 162.939,216 164.414,216 C167.623,216 189.063,222.118 197.5,225.442 C202.063,227.239 204.711,227.683 208.56,227.294 C213.171,226.827 214.147,227.127 219.56,230.669 C222.827,232.806 226.4,235.038 227.5,235.629 C230.42,237.195 230.622,241.709 227.902,244.604 C225.08,247.608 223.189,247.618 218.817,244.65 C216.913,243.358 214.262,242.043 212.927,241.729 C203.136,239.42 198.662,237.96 192.857,235.181 C189.203,233.431 185.581,232 184.807,232 C184.033,232 182.973,231.599 182.45,231.108 C181.467,230.185 166.198,226.218 150.5,222.808 C139.224,220.358 127.221,218.701 125.511,219.358 C124.248,219.842 122.806,226.833 122.49,234 C122.34,237.403 120.821,247.826 118.848,259 C118.313,262.025 117.629,265.969 117.327,267.765 C116.751,271.189 112.924,275 110.061,275 C109.143,275 107.027,273.538 105.359,271.75 C103.048,269.275 102.299,267.505 102.218,264.326 C102.103,259.794 103.145,258.38 106.993,257.846 C109.238,257.534 109.656,256.705 111.204,249.5 C112.149,245.1 113.236,236.621 113.619,230.657 C114.43,218.049 114.423,218.038 105.809,218.015 C99.696,217.999 97.838,216.734 100.304,214.267 C101.33,213.241 102.456,213.001 103.672,213.548 C107.036,215.061 111.889,214.78 113.519,212.979 C114.739,211.631 115.018,209.404 114.776,202.951 C114.605,198.388 114.002,194.501 113.437,194.312 C112.871,194.124 110.179,195.989 107.454,198.457 C104.729,200.925 101.825,203.197 101,203.506 C100.175,203.816 97.583,206.641 95.24,209.785 C92.897,212.928 89.522,217.114 87.74,219.086 C85.958,221.058 82.957,224.619 81.07,227.001 C79.184,229.382 75.81,232.943 73.572,234.915 C71.335,236.887 68.297,239.751 66.822,241.281 C65.347,242.81 61.521,245.649 58.32,247.589 C53.167,250.713 51.984,251.043 48,250.47 C42.714,249.709 40,247.62 40,244.313 C40,241.257 43.299,239.972 47.688,241.319 C50.346,242.135 51.333,242.009 52.818,240.665 C53.83,239.749 55.079,239 55.594,239 C56.983,239 70.858,225.466 77.123,218 C85.651,207.837 98.004,190.571 101.028,184.587 C101.837,182.985 103.816,180.872 105.423,179.892 C108.259,178.164 108.434,178.173 111.25,180.178 C112.87,181.331 114.516,181.86 114.972,181.373 C115.421,180.893 115.381,177.8 114.881,174.5 C114.382,171.2 114.083,165.491 114.217,161.814 C114.351,158.137 114.148,154.815 113.765,154.432 C113.383,154.049 110.52,156.066 107.404,158.914 C99.349,166.275 82.157,178.923 79.193,179.666 C75.48,180.598 72.479,175.71 74.765,172.453 C75.169,171.878 78.425,169.192 82,166.485 C85.575,163.779 91.678,158.85 95.563,155.532 C99.448,152.214 104.69,147.747 107.212,145.604 C111.232,142.189 111.942,140.972 112.973,135.729 C114.417,128.393 113.392,126.618 109.215,129.219 C103.449,132.809 92.978,138 91.503,138 C90.652,138 86.979,139.35 83.34,141 C79.701,142.65 76.105,144 75.348,144 C74.592,144 73.191,144.39 72.236,144.866 C69.93,146.016 64.054,148.076 61.244,148.719 C58.67,149.308 56,147.507 56,145.182 C56,143.402 60.826,138 62.416,138 C63.479,138 75.881,133.585 79.5,131.919 C80.6,131.412 84.425,130.053 88,128.9 C95.054,126.623 106.152,120.892 109.75,117.668 C112.216,115.458 112.541,112.489 110.947,106.75 C109.76,102.474 108.966,102.244 104.618,104.917 C101.372,106.912 96.466,108.868 89.282,111.03 C84.248,112.544 82,111.324 82,107.078 C82,103.87 83.648,102 86.473,102 C88.893,102 103.465,96.549 106.75,94.415 C108.789,93.091 109,92.166 109,84.536 C109,79.906 108.573,75.854 108.051,75.532 C107.53,75.209 104.717,76.11 101.801,77.533 C94.371,81.16 81.924,85.178 74.296,86.413 C71.679,86.837 70.709,86.446 69.008,84.283 C65.667,80.036 66.686,78.91 76.141,76.402 C86.23,73.725 99.088,68.884 103.819,65.982 L107.137,63.946 L106.756,54.723 C106.417,46.521 106.16,45.468 104.437,45.214 C103.23,45.036 102.123,45.76 101.5,47.136 C99.989,50.471 95.257,53.657 93.872,52.272 C92.303,50.703 95.829,43.734 101.092,38.002 C105.26,33.463 112,23.919 112,22.555 C112,22.15 114.312,18.709 117.137,14.909 Z M127.25,95.11 C124.362,96.226 121.933,97.671 121.852,98.32 C121.771,98.969 121.637,100.175 121.556,101 C121.475,101.825 120.807,103.709 120.073,105.186 C117.572,110.216 121.376,113.864 125.301,110.201 C126.51,109.072 128.704,107.849 130.176,107.484 C134.575,106.393 136.158,103.831 135.809,98.365 C135.441,92.59 134.597,92.269 127.25,95.11 Z M127.5,118.842 C123.237,121.448 122.244,122.965 121.849,127.475 C121.368,132.957 123.816,133.282 127.791,128.264 C130.725,124.56 133.123,116.996 131.361,117.004 C130.888,117.006 129.15,117.833 127.5,118.842 Z"/>
</svg>

