<svg xmlns="http://www.w3.org/2000/svg" width="300" height="300" viewBox="0 0 300 300" version="1.1">
  <defs/>
  <path d="M92.826,130.25 C95.028,128.482 97.418,128.699 99.359,130.844 C100.877,132.521 100.891,133.017 99.514,136.312 C98.681,138.305 98,140.4 98,140.968 C98,142.233 102.085,142.316 105.203,141.115 C106.466,140.628 110.2,139.489 113.5,138.585 C116.8,137.68 122.54,135.95 126.255,134.741 C132.648,132.661 133.157,132.632 135.755,134.208 C137.265,135.124 138.5,136.267 138.5,136.748 C138.5,137.229 136.846,139.074 134.824,140.849 C131.986,143.342 129.936,144.201 125.824,144.622 C120.402,145.178 113.124,147.132 107.216,149.618 C105.41,150.378 102.844,151 101.513,151 C97.789,151 94.504,152.878 92.606,156.09 C91.657,157.696 89.625,159.66 88.089,160.454 C86.553,161.248 84.48,163.158 83.482,164.699 C80.613,169.125 67.697,184.872 61.088,192 C55.061,198.5 54.11,200 56.015,200 C58.687,200 69.166,196.499 70.732,195.084 C73.057,192.982 77.595,191 80.082,191 C81.176,191 83.091,190.331 84.339,189.514 C85.586,188.696 89.058,187.177 92.053,186.137 C95.049,185.098 99.705,183.066 102.399,181.624 C108.081,178.58 110.626,178.352 113.171,180.655 C116.902,184.031 115.135,185.86 101.251,193 C93.635,196.916 92.457,197.873 92.171,200.377 C91.991,201.959 89.966,205.926 87.671,209.193 C85.377,212.46 82.709,216.678 81.742,218.566 C80.775,220.455 79.538,222 78.992,222 C78.446,222 78,222.508 78,223.129 C78,223.75 76.41,226.017 74.467,228.168 C72.524,230.319 70.665,233.427 70.335,235.075 C70.005,236.723 68.81,238.72 67.678,239.513 C65.011,241.381 66.208,242.485 70.986,242.561 C73.8,242.607 75.762,243.462 78.438,245.811 C82.967,249.788 84.254,249.797 87.174,245.875 C93.998,236.709 103.068,231.586 111.386,232.201 C114.71,232.446 115.842,233.106 117.708,235.884 C119.535,238.604 119.854,240.063 119.332,243.325 C118.975,245.556 118.082,248.533 117.348,249.941 C116.613,251.348 116.01,253.232 116.006,254.128 C116.003,255.023 115.325,256.315 114.5,257 C112.758,258.446 112.516,261.583 114.074,262.545 C116.034,263.757 133.426,264.044 138.13,262.943 C143.632,261.654 149.731,262.94 152.47,265.967 C154.201,267.88 154.153,268.062 150.94,271.721 L147.622,275.5 L131.99,275.148 C114.124,274.746 103.063,276.069 94.875,279.585 C91.781,280.913 88.363,282 87.28,282 C82.973,282 79.671,274.143 82.439,270.481 C84.844,267.299 84.239,263.817 80.575,259.75 C78.717,257.688 76.877,256 76.487,256 C76.097,256 73.589,254.167 70.913,251.927 C65.092,247.054 62.516,247.07 59.251,252 C57.976,253.925 56.374,256.175 55.691,257 C55.009,257.825 51.88,262.325 48.74,267 C34.664,287.952 25.657,297.907 20.434,298.287 C17.934,298.468 17.454,298.105 17.192,295.834 C16.945,293.701 18.194,291.826 23.442,286.447 C27.049,282.75 30,279.398 30,278.998 C30,278.598 31.343,276.748 32.984,274.886 C34.625,273.023 35.975,271.092 35.984,270.594 C35.993,270.096 37.238,268.075 38.75,266.104 C40.263,264.132 42.85,260.401 44.5,257.814 C46.15,255.227 49.685,249.847 52.357,245.859 C55.028,241.871 57.467,237.909 57.778,237.054 C58.088,236.199 61.078,231.607 64.421,226.849 C67.765,222.09 71.288,216.915 72.251,215.349 C73.214,213.782 75.127,210.971 76.501,209.102 C77.876,207.233 79,205.272 79,204.744 C79,203.364 74.086,204.787 71.31,206.971 C70.019,207.986 66.608,209.122 63.731,209.493 C60.854,209.865 56.482,211.123 54.015,212.288 C51.548,213.453 47.861,214.34 45.823,214.258 C43.319,214.159 40.899,214.936 38.365,216.656 C34.981,218.952 34.247,219.091 30.849,218.073 C26.277,216.703 25.705,215.906 26.949,212.634 C27.613,210.888 29.091,209.779 31.706,209.067 C34.617,208.274 37.176,206.11 42.707,199.767 C46.67,195.22 52.245,189.025 55.095,186 C60.908,179.829 71.985,165.671 72.028,164.357 C72.043,163.885 73.393,162.188 75.028,160.583 C80.426,155.286 79.11,155.16 65.219,159.648 C61.215,160.941 56.629,162 55.028,162 C53.428,162 51.84,162.45 51.5,163 C51.16,163.55 48.97,164 46.632,164 C44.295,164 41.509,164.661 40.441,165.468 C37.522,167.676 36.309,167.324 34.521,163.75 C32.936,160.58 32.959,160.445 35.449,158.297 C38.335,155.807 41.457,154.798 55,151.975 C82.582,146.226 84.333,145.689 85.895,142.487 C86.696,140.844 88.233,137.7 89.31,135.5 C90.388,133.3 91.969,130.938 92.826,130.25 Z M109.75,17.572 C113.242,15.677 113.487,15.677 115.055,17.566 C116.082,18.804 116.108,19.813 115.177,22.387 C114.53,24.177 114,26.586 114,27.74 C114,28.894 113.249,31.337 112.331,33.169 C109.999,37.823 108.931,39.861 109.181,41.721 C109.392,43.288 110.54,44.73 112.658,47.503 C117.252,53.519 117.91,60.034 114.226,63.018 L111.951,64.86 L114.579,67.488 C116.958,69.868 117.062,70.274 115.68,71.807 C114.334,73.301 111.053,81.317 111.015,83.208 C110.996,84.094 119.278,89 120.791,89 C122.018,89 123.827,85.329 126.638,77.134 C128.651,71.266 131.561,69.16 135.065,71.035 C137.788,72.492 137.832,83.01 135.131,86.846 C134.103,88.306 132.932,90.625 132.529,92 C131.636,95.046 118.601,116.256 116.604,117.914 C115.632,118.72 114.101,118.826 111.836,118.243 C106.815,116.951 106.846,113.443 111.937,106.699 C114.172,103.74 116,100.887 116,100.36 C116,99.329 110.339,97 107.834,97 C105.951,97 103.473,99.725 102.521,102.844 C101.372,106.607 96.335,113.491 93.818,114.737 C92.543,115.367 90.097,116.157 88.381,116.492 C85.745,117.007 84.863,116.626 82.673,114.024 C80.042,110.896 80.007,108.595 82.577,107.609 C83.36,107.308 84,106.604 84,106.044 C84,104.806 76.583,100 74.674,100 C73.922,100 71.871,99.283 70.115,98.408 C68.36,97.532 66.332,97.042 65.61,97.32 C64.068,97.911 63,104.643 63,113.774 C63,125.739 59.55,132.277 54.22,130.414 C52.118,129.68 51.428,128.715 51.182,126.167 C51.007,124.353 51.319,122.32 51.876,121.65 C53.565,119.614 55.299,99.065 53.921,97.405 C52.476,95.663 49.001,95.554 48.996,97.25 C48.994,97.938 47.927,100.598 46.626,103.161 C45.326,105.725 43.987,108.918 43.651,110.256 C42.669,114.168 35.11,123 32.744,123 C30.164,123 27,120.259 27,118.025 C27,117.109 28.343,114.856 29.984,113.018 C31.625,111.179 33.255,108.736 33.605,107.588 C33.955,106.439 36.26,101.225 38.726,96 C43.81,85.23 48.975,78.286 52.248,77.818 C55.117,77.408 55.935,72.789 55.107,61.671 C54.635,55.329 54.147,53.454 52.907,53.218 C52.031,53.051 48.206,55.329 44.407,58.281 C40.608,61.233 34.575,65.126 31,66.932 C27.425,68.739 22.25,71.492 19.5,73.051 C12.454,77.045 10.724,78.109 9.53,77.681 C9.041,77.506 8.641,77.081 8.004,76.504 C3.538,72.462 5.978,68.731 17,62.748 C34.462,53.269 51.651,42.335 52.483,40.178 C52.763,39.45 52.544,38.017 51.996,36.993 C51.448,35.969 51,32.868 51,30.101 C51,25.153 52.496,23 55.934,23 C58.073,23 61,27.062 61,30.031 C61,33.672 63.333,34.914 65.866,32.621 C68.16,30.546 70.854,30.558 73.171,32.655 C76.697,35.846 74.659,40.611 68.39,43.835 C66.671,44.719 66.164,46.178 65.652,51.71 C64.495,64.207 64.379,86.072 65.466,86.939 C66.035,87.394 68.34,87.757 70.589,87.746 C73.23,87.734 76.271,88.661 79.177,90.364 C81.651,91.814 84.63,93 85.797,93 C86.964,93 89.021,94.189 90.369,95.642 C93.46,98.975 96,98.238 96,94.007 C96,91.7 95.411,90.727 93.597,90.037 C90.028,88.68 89.531,87.104 91.741,84.15 C93.204,82.195 94.612,81.5 97.112,81.5 C100.155,81.5 100.772,80.991 103.169,76.5 C104.636,73.75 105.874,70.557 105.919,69.405 C105.963,68.253 106.9,66.495 108,65.5 C111.92,61.952 109.758,54 104.873,54 C103.035,54 101.723,55.244 99.314,59.273 C95.571,65.529 93.774,67.154 88.679,68.884 C85.281,70.037 84.636,69.981 82.859,68.372 C80.872,66.574 80.877,66.548 83.819,64.032 C87.076,61.245 94,50.753 94,48.603 C94,47.856 93.302,46.666 92.449,45.958 C91.506,45.175 91.016,43.465 91.199,41.597 C91.464,38.886 91.949,38.451 95.301,37.911 C99.867,37.175 100.268,36.762 102.021,31 C102.773,28.525 104.201,25.427 105.194,24.115 C106.187,22.803 107,21.13 107,20.397 C107,19.664 108.237,18.393 109.75,17.572 Z M140.342,12.6 C142.269,9.659 144.572,9.311 147.683,11.491 C149.574,12.815 149.751,13.654 149.267,18.991 C148.685,25.414 149.453,26.367 152.5,23 C154.74,20.525 156.831,20.509 159.75,22.944 C163.492,26.065 162.662,29.28 157,33.598 C154.25,35.695 151.996,37.881 151.99,38.455 C151.985,39.03 151.519,45.93 150.956,53.79 C150.392,61.649 150.242,68.583 150.622,69.197 C151.718,70.971 151.979,81.895 150.94,82.537 C149.44,83.464 149.853,87.006 151.538,87.653 C152.383,87.977 155.009,87.505 157.372,86.602 C160.891,85.258 162.894,85.135 168.438,85.92 C176.086,87.003 178.546,88.696 179.972,93.86 C181.108,97.976 179.492,101.363 175.531,103.168 C173.52,104.084 172.504,103.768 168.711,101.044 C166.142,99.199 162.474,97.605 160.048,97.28 C156.831,96.848 155.632,96.161 154.946,94.358 C154.453,93.061 153.701,92.007 153.275,92.015 C150.679,92.067 150.054,94.241 149.639,104.665 C149.211,115.422 148.417,118.581 145.217,122.25 C142.989,124.804 140.812,124.414 136.505,120.691 C133.028,117.685 132.684,116.943 132.75,112.58 C132.84,106.606 134.538,104.539 136.717,107.75 C137.557,108.987 138.9,110 139.701,110 C140.86,110 141.176,108.207 141.245,101.25 C141.464,79.23 141.066,50.397 140.512,48.192 C139.965,46.014 139.515,45.822 136.201,46.356 C134.165,46.683 130.717,47.862 128.539,48.976 C122.554,52.034 120.177,51.668 118.399,47.413 C116.801,43.588 117.72,41 120.676,41 C121.464,41 124.534,39.65 127.5,38 C130.466,36.35 133.559,35 134.375,35 C137.807,35 138.872,32.227 138.753,23.595 C138.666,17.225 139.049,14.574 140.342,12.6 Z M103.122,163.558 C106.08,162.214 110.3,161.115 112.5,161.115 C116.163,161.115 125.034,163.186 132.5,165.783 C140.071,168.417 155.103,173.027 161,174.523 C167.027,176.053 174.227,178.649 179.827,181.314 C183.189,182.913 184.15,185.273 182.899,188.86 C181.655,192.428 180.696,192.758 172,192.61 C165.713,192.504 165.451,192.396 164,189.307 C162.352,185.8 158.771,183.846 149.863,181.594 C146.763,180.81 142.739,179.399 140.922,178.459 C136.741,176.298 133.345,175.293 124.134,173.492 C120.082,172.7 116.156,171.544 115.408,170.924 C114.644,170.289 108.926,169.613 102.339,169.379 C95.898,169.149 90.441,168.775 90.214,168.547 C89.102,167.436 91.479,166 94.431,166 C96.253,166 100.164,164.901 103.122,163.558 Z M103.952,246.051 C103.154,246.556 101.6,246.984 100.5,247.003 C98.342,247.039 92,253.96 92,256.279 C92,259.032 95.164,264 96.918,264 C99.959,264 105.189,256.137 106.383,249.771 C107.114,245.878 106.269,244.585 103.952,246.051 Z"/>
</svg>

