<svg xmlns="http://www.w3.org/2000/svg" width="300" height="300" viewBox="0 0 300 300" version="1.1">
  <defs/>
  <path d="M170.919,43.25 C173.114,39.773 175.976,39.061 177.992,41.49 C178.765,42.422 179.312,46.931 179.452,53.528 C179.588,59.947 180.133,64.533 180.843,65.243 C181.733,66.133 184.694,65.055 193.306,60.705 C199.519,57.567 205.443,55 206.472,55 C208.603,55 212,57.74 212,59.459 C212,61.032 206.064,66.635 203,67.954 C201.625,68.545 199.15,69.89 197.5,70.942 C195.85,71.993 193.367,72.887 191.982,72.927 C186.27,73.093 179.351,80.522 181.568,84.11 C181.984,84.783 182.589,89.191 182.912,93.906 C183.64,104.521 184.329,104.813 193.901,98.565 C197.747,96.054 201.56,94 202.374,94 C203.188,94 204.561,95.417 205.425,97.15 C207.15,100.607 206.576,101.999 202.498,104.257 C194.867,108.48 193.143,109.555 189.882,112.116 C186.933,114.433 186.139,115.84 185.585,119.729 C183.982,130.984 183.817,135.218 184.829,139.235 C185.473,141.794 185.574,144.958 185.08,147.144 C184.628,149.148 184.538,154.52 184.879,159.082 L185.5,167.376 L190.453,168.636 C193.177,169.329 198.577,171.463 202.453,173.378 C210.523,177.366 211.692,177.842 226.109,183.006 C231.944,185.097 237.569,187.245 238.609,187.781 C242.297,189.682 248.083,192 249.139,192 C249.728,192 252.502,193.151 255.303,194.558 C259.773,196.803 272.123,201.771 277.305,203.409 C278.769,203.872 279.053,204.861 278.805,208.637 C278.336,215.803 276.808,216.106 266.615,211.057 C261.867,208.705 257.735,206.38 257.432,205.89 C257.13,205.401 255.772,205 254.416,205 C253.06,205 248.823,203.425 245,201.5 C241.177,199.575 237.476,197.997 236.775,197.994 C236.074,197.99 234.278,197.35 232.786,196.572 C230.287,195.268 225.775,193.655 212.5,189.321 C209.75,188.423 206.375,186.925 205,185.992 C203.625,185.058 198.786,182.79 194.248,180.95 C187.656,178.278 185.744,177.856 184.748,178.851 C183.865,179.734 183.417,185.42 183.215,198.299 C182.81,224.221 182.904,234.036 183.569,235.112 C184.686,236.918 184.23,249.018 182.99,250.512 C181.207,252.661 178.251,252.342 175.628,249.719 L173.348,247.439 L173.769,212.469 C174.132,182.405 174.234,176.187 171.45,174.353 C170.696,173.856 169.73,173.681 168.5,173.44 C165.65,172.883 164.826,173.636 152,188.533 C144.575,197.157 137.08,206.124 135.345,208.46 C132.109,212.816 119.065,225.824 116.485,227.268 C115.013,228.092 109.679,225.908 108.499,223.998 C107.294,222.048 109.217,218.807 112.357,217.495 C115.645,216.122 118.241,213.544 128.75,201.219 C134.561,194.404 136.329,191 134.059,191 C133.541,191 132.813,191.493 132.441,192.096 C132.039,192.746 130.389,192.949 128.382,192.596 C126.522,192.268 123.313,191.716 121.25,191.368 C119.188,191.02 116.228,189.67 114.673,188.368 C111.571,185.77 105.272,185.128 103.2,187.2 C102.478,187.922 102,191.417 102,195.977 C102,200.774 101.496,204.279 100.628,205.527 C99.873,206.612 98.94,208.95 98.554,210.723 C97.931,213.589 93.06,219 91.103,219 C89.642,219 81.923,211.75 80.615,209.15 C79.075,206.086 79.638,199 81.421,199 C82.947,199 87,204.419 87,206.46 C87,208.329 89.351,208.487 90.821,206.715 C91.408,206.008 91.842,203.871 91.787,201.965 C91.731,200.059 92.19,196.025 92.807,193 C93.503,189.586 93.847,177.644 93.714,161.514 C93.518,137.758 93.351,135.5 91.767,135.194 C90.733,134.995 86.831,137.682 82.094,141.856 C77.727,145.704 72.882,149.643 71.327,150.608 C69.772,151.574 67.375,153.369 66,154.598 C64.625,155.827 59.232,158.962 54.016,161.566 C46.395,165.371 43.235,166.393 37.922,166.773 C31.48,167.234 31.257,167.169 29.156,164.219 C24.964,158.331 26.75,156.581 37,156.531 C43.196,156.501 43.883,156.243 51.703,151 C56.215,147.975 61.924,144.246 64.39,142.713 C66.856,141.18 70.59,138.585 72.687,136.946 C74.784,135.308 79.425,131.8 83,129.151 C89.156,124.589 89.513,124.1 89.737,119.917 C90.283,109.762 93.335,101 96.326,101 C96.885,101 98.139,101.721 99.112,102.601 C100.526,103.881 100.765,105.187 100.302,109.101 C99.746,113.791 99.826,114 102.172,114 C103.52,114 105.544,113.141 106.671,112.092 C108.798,110.11 116.286,106 117.769,106 C118.236,106 119.436,106.598 120.435,107.329 C121.953,108.439 122.058,109.022 121.072,110.866 C119.777,113.285 112.961,119.93 111.73,119.973 C111.307,119.988 109.234,121.09 107.124,122.422 L103.288,124.843 L103.68,149.672 C103.895,163.327 104.287,175.119 104.552,175.876 C104.907,176.889 106.359,177.124 110.063,176.768 C113.873,176.402 115.631,176.708 117.313,178.032 C120.327,180.402 126.732,183 129.563,183 C130.838,183 132.142,183.422 132.461,183.937 C132.779,184.452 134.429,185.567 136.128,186.414 C139.489,188.091 143,187.132 143,184.537 C143,183.772 144.158,182.234 145.574,181.12 C146.99,180.007 149.375,177.387 150.874,175.298 C159.139,163.783 164.938,154.897 166.454,151.423 C167.396,149.265 168.576,146.825 169.077,146 C173.861,138.124 176.3,126.436 173.393,125.32 C172.488,124.973 170.573,125.944 168.684,127.706 C166.933,129.34 163.337,131.908 160.693,133.414 C155.109,136.594 153,135.823 153,130.6 C153,126.098 154.883,123.939 164.089,117.88 C168.567,114.933 172.619,111.503 173.092,110.258 C174.124,107.543 173.105,86.239 171.824,83.743 C170.969,82.077 170.728,82.085 167.211,83.9 C161.286,86.956 152.676,90 149.953,90 C148.574,90 146.441,90.703 145.214,91.563 C143.978,92.428 141.545,92.986 139.759,92.813 C137.273,92.572 136.315,91.866 135.567,89.728 C134.224,85.884 136.536,83.938 146.5,80.53 C150.9,79.025 155.4,77.427 156.5,76.979 C157.6,76.531 160.055,75.669 161.955,75.063 C163.856,74.457 166.476,73.263 167.778,72.41 C170.116,70.878 170.138,70.71 169.506,58.679 C168.92,47.493 169.035,46.235 170.919,43.25 Z M68.675,177.399 C71.389,171.471 73.431,170.609 76.564,174.07 C79.123,176.898 79.427,191.999 76.924,192 C75.137,192 71.968,195.287 70.174,199 C68.246,202.988 63.745,208.692 60.596,211.135 C57.218,213.755 51.571,214 49.199,211.627 C47.78,210.209 48.152,209.522 53.192,204.237 C56.249,201.033 59.7,196.549 60.861,194.273 C62.022,191.998 63.393,189.875 63.909,189.556 C64.424,189.238 65.152,187.587 65.525,185.887 C65.898,184.188 67.316,180.368 68.675,177.399 Z M100.889,57.75 C103.21,52.553 105.785,51.591 109.171,54.655 C112.026,57.238 111.893,57.819 105.367,71.331 C104.615,72.888 104,75.026 104,76.081 C104,77.136 103.662,78.001 103.25,78.002 C102.838,78.004 101.232,80.606 99.681,83.786 C96.398,90.522 83.608,103.008 81.822,101.222 C80.566,99.966 82.414,93.512 84.891,90.5 C87.938,86.795 90.593,82.524 92.35,78.5 C93.311,76.3 94.525,73.719 95.048,72.764 C95.572,71.809 96,70.527 96,69.915 C96,68.829 96.532,67.505 100.889,57.75 Z M170,166.073 C170,168.636 173.31,168.345 173.812,165.739 C174.043,164.539 173.504,164 172.073,164 C170.642,164 170,164.642 170,166.073 Z"/>
</svg>

