<svg xmlns="http://www.w3.org/2000/svg" width="300" height="300" viewBox="0 0 300 300" version="1.1">
  <defs/>
  <path d="M99.066,88.827 C107.677,84.444 108.936,84.076 113.5,84.612 C120.326,85.415 124.559,89.399 125.268,95.688 C125.871,101.036 124.298,115.087 122.944,116.45 C122.425,116.973 122,118.175 122,119.123 C122,120.071 120.875,122.184 119.5,123.818 C118.125,125.452 117,127.935 117,129.335 C117,130.736 116.602,132.128 116.115,132.429 C114.891,133.186 114.041,137.803 112.976,149.5 C111.755,162.901 111.369,165.831 112.277,166.31 C112.627,166.495 113.17,166.315 113.931,166.23 C115.268,166.081 118.193,165.102 120.431,164.055 C122.669,163.008 130.056,159.657 136.847,156.609 C143.637,153.56 151.631,149.448 154.61,147.471 C158.598,144.823 160.88,143.958 163.263,144.188 C166.264,144.477 166.521,144.792 166.787,148.5 C167.067,152.397 166.913,152.607 160.787,156.689 C157.329,158.993 151.125,162.297 147,164.032 C142.875,165.766 138.719,167.594 137.764,168.093 C136.809,168.592 135.148,169 134.073,169 C132.998,169 131.878,169.388 131.585,169.863 C131.291,170.337 129.003,171.299 126.5,172 C123.997,172.701 121.709,173.663 121.415,174.137 C121.122,174.612 119.884,175 118.663,175 C117.443,175 115.449,175.698 114.232,176.55 C112.109,178.037 112.028,178.659 112.259,191.8 L112.5,205.5 L119,205.216 C124.185,204.99 126.613,205.434 131,207.41 C134.025,208.773 140.325,211.308 145,213.044 C149.675,214.78 157.325,218.267 162,220.791 C170.786,225.536 178.295,229.316 183.5,231.613 C194.188,236.331 201.141,239.007 205.5,240.082 C211.232,241.495 224.892,246.737 226.75,248.236 C228.502,249.65 228.306,253.005 226.345,255.171 C224.2,257.541 220.154,257.467 217,255 C215.625,253.924 214.175,253.034 213.777,253.022 C213.38,253.01 210.68,251.937 207.777,250.639 C199.303,246.847 197.011,246 195.203,245.994 C194.266,245.99 192.211,245.315 190.636,244.494 C189.06,243.672 187.267,243 186.65,243 C186.033,243 183.047,241.829 180.014,240.398 C176.981,238.967 172.7,237.011 170.5,236.051 C168.3,235.091 161.325,231.803 155,228.744 C148.675,225.686 141.876,222.445 139.89,221.544 C133.901,218.825 113.645,212.021 113.116,212.551 C112.313,213.354 113.001,240.813 114.042,249.526 C114.569,253.94 115.042,262.94 115.092,269.526 C115.142,276.112 115.669,282.924 116.262,284.666 C117.139,287.238 117.023,288.315 115.647,290.416 C114.716,291.837 113.125,293 112.112,293 C109.596,293 104.999,289.235 105.003,287.177 C105.004,286.255 103.992,283.56 102.753,281.189 C100.555,276.984 100.546,276.843 102.392,275.475 C103.432,274.703 104.77,273.91 105.364,273.712 C106.627,273.291 103.502,211.102 102.15,209.75 C101.137,208.737 98,209.851 98,211.224 C98,212.676 87.758,228 86.787,228 C86.341,228 84.459,230.363 82.605,233.25 C77.649,240.971 56.621,260.189 48.186,264.708 C46.913,265.39 43.632,266.245 40.894,266.608 C35.086,267.379 33.085,265.753 33.032,260.219 C32.993,256.224 34.919,255.245 38.37,257.507 C39.762,258.419 41.541,259.016 42.322,258.833 C44.078,258.421 59.245,244.761 67.672,236.002 C71.11,232.428 75.403,227.09 77.211,224.139 C79.02,221.188 81.513,217.634 82.75,216.241 C83.987,214.848 85,213.305 85,212.813 C85,212.322 85.833,210.7 86.851,209.21 C93.06,200.121 95.913,195.128 96.471,192.376 C96.819,190.657 98.205,188.216 99.552,186.951 C102.164,184.497 102.845,181 100.711,181 C100.003,181 97.64,181.922 95.461,183.048 C82.938,189.522 44.049,203.518 35.5,204.627 C32.75,204.984 30.041,205.633 29.48,206.069 C28.92,206.506 25.439,207.854 21.746,209.067 C13.697,211.709 11.712,210.885 12.199,205.103 C12.465,201.955 13.09,201.22 17.5,198.867 C20.586,197.221 23.457,196.38 25,196.671 C27.831,197.205 45.437,192.79 51.5,190.026 C60.188,186.065 67.81,183 68.971,183 C69.642,183 71.386,182.366 72.846,181.591 C74.306,180.816 77.975,179.217 81,178.037 C84.025,176.858 87.4,175.465 88.5,174.943 C89.6,174.421 92.975,173.156 96,172.133 L101.5,170.273 L101.301,160.973 C101.069,150.158 99.857,147.833 95.49,149.823 C91.824,151.493 89.352,151.286 87.289,149.136 C86.305,148.11 84.507,146.755 83.293,146.123 C81.936,145.418 80.833,143.628 80.43,141.477 C80.069,139.552 79.374,137.731 78.887,137.43 C78.399,137.129 78,135.54 78,133.899 C78,132.259 76.65,128.029 75,124.5 C73.35,120.971 71.992,117.727 71.983,117.292 C71.946,115.561 62.935,107 61.15,107 C56.41,107 55.756,100.998 60.141,97.737 C62.417,96.044 63.257,95.93 66.232,96.912 C69.488,97.986 74,102.018 74,103.853 C74,104.313 74.941,105.541 76.09,106.582 C78.142,108.438 78.207,108.437 79.59,106.546 C80.366,105.485 81,103.835 81,102.879 C81,100.124 88.814,94.047 99.066,88.827 Z M85.035,1.934 C86.349,-0.521 91.13,-0.629 93.249,1.75 C94.767,3.454 94.515,8.594 92.514,16.75 C91.671,20.187 94.089,19.554 99.289,14.977 C105.717,9.319 114.448,5.428 117.547,6.84 C121.369,8.581 123.303,13.449 122.534,19.389 C121.961,23.818 121.082,25.368 115.946,31 C110.365,37.122 110.02,37.791 110.025,42.5 C110.033,51.392 114.008,55.19 119.523,51.577 C122.403,49.69 126.891,49.506 127.497,51.25 C127.736,51.938 127.604,54.012 127.203,55.861 C126.674,58.305 125.524,59.726 122.988,61.073 C117.034,64.233 112.76,66 111.069,66 C108.573,66 103.156,60.531 102.497,57.346 C102.173,55.781 101.281,52.025 100.514,49 C99.747,45.975 98.586,41.371 97.935,38.769 C96.513,33.089 94.698,31.176 92.477,33.019 C91.64,33.714 91.183,35.006 91.461,35.891 C91.975,37.526 90.96,44.309 89.136,51.43 C88.236,54.945 85.727,60.836 82.719,66.5 C82.135,67.6 79.977,71.896 77.924,76.046 C73.585,84.817 70.403,87.15 66.377,84.511 C63.004,82.301 63.398,79.782 68.31,72.175 C76.714,59.157 78.175,54 73.457,54 C71.653,54 69.544,52.473 66.207,48.751 C63.618,45.864 58.583,40.612 55.017,37.079 C51.309,33.404 49.062,30.479 49.767,30.244 C51.237,29.754 51.435,27 50,27 C49.45,27 49,26.325 49,25.5 C49,24.404 50.134,24 53.208,24 C56.711,24 58.05,24.62 61.208,27.703 C63.294,29.74 65,31.842 65,32.374 C65,32.907 65.748,34.169 66.661,35.178 C67.575,36.188 68.826,38.023 69.441,39.257 C71.183,42.752 72.745,41.955 75.819,36 C77.583,32.583 80.142,29.488 82.579,27.828 C86.423,25.209 86.493,25.052 86.145,19.828 C85.949,16.898 85.387,13.742 84.895,12.816 C83.683,10.535 83.763,4.311 85.035,1.934 Z M95.437,123.102 C95.062,123.708 93.236,124.839 91.378,125.615 C87.678,127.161 87.149,129.26 89.07,134.771 C90.723,139.514 94.39,139.85 97.931,135.583 C99.847,133.275 100.968,127.045 99.949,124.367 C99.008,121.89 96.603,121.216 95.437,123.102 Z M89.841,107.804 C84.575,114.857 82.605,119.005 83.906,120.306 C84.673,121.073 85.772,120.527 87.741,118.4 C89.258,116.76 91.722,114.65 93.215,113.709 C97.083,111.274 98.468,108.322 97.124,105.374 C95.531,101.878 93.845,102.44 89.841,107.804 Z M109.04,97.452 C107.238,99.623 108.204,102.455 110.876,102.835 C114.029,103.283 115.251,101.849 114.447,98.645 C113.71,95.709 110.985,95.108 109.04,97.452 Z M106.75,22.392 C104.304,24.249 104.57,25.854 107.443,26.575 C110.64,27.378 112,26.442 112,23.441 C112,20.679 109.63,20.206 106.75,22.392 Z"/>
</svg>

