<svg xmlns="http://www.w3.org/2000/svg" width="300" height="300" viewBox="0 0 300 300" version="1.1">
  <defs/>
  <path d="M141.064,122.25 C142.677,118.813 144.612,116 145.364,116 C146.115,116 147.916,116.933 149.365,118.073 C152.012,120.155 152.927,124.309 151,125.5 C150.45,125.84 150,126.972 150,128.015 C150,129.058 148.65,132.202 147,135 C142.437,142.738 143.153,145.181 148.673,140.711 C154.539,135.961 159.429,134.924 163.472,137.574 C167.72,140.357 167.589,143.87 162.888,153.152 C160.563,157.743 158.399,161.725 158.08,162 C157.761,162.275 156.642,164.187 155.593,166.248 C153.809,169.757 153.794,170.115 155.358,171.843 C156.277,172.859 158.867,174.296 161.114,175.038 C168.968,177.63 210.226,199.038 219.323,205.242 C230.951,213.171 245.149,224.993 260.648,239.649 C267.33,245.967 274.292,252.24 276.121,253.589 C280.656,256.935 284.967,261.783 286.132,264.847 C286.89,266.84 286.686,267.944 285.192,269.945 C282.636,273.368 277.078,273.541 275.437,270.249 C273.896,267.159 241.583,235.201 238.769,233.983 C237.521,233.444 233.8,230.739 230.5,227.972 C227.2,225.206 223.192,222.168 221.593,221.221 C219.995,220.274 217.954,218.825 217.058,218 C213.579,214.797 204.373,208.084 201.998,207.018 C200.624,206.401 197.7,204.815 195.5,203.492 C193.3,202.169 187.374,199.059 182.332,196.581 C177.29,194.102 172.876,191.608 172.523,191.037 C172.17,190.467 170.896,189.99 169.691,189.978 C168.486,189.966 166.375,189.076 165,188 C163.625,186.924 161.635,186.034 160.579,186.022 C159.522,186.01 157.947,185.384 157.079,184.632 C156.21,183.88 153.012,183.022 149.972,182.727 C144.57,182.203 144.375,182.274 141.429,185.845 C135.517,193.011 126,205.689 126,206.397 C126,207.035 120.368,214.708 118.952,216 C118.65,216.275 117.322,218.075 116,220 C109.571,229.362 105.717,233.007 100.657,234.509 C96.168,235.842 95.396,235.835 93.261,234.436 C90.083,232.353 90.527,228.614 94,228.208 C99.592,227.556 99.572,227.578 115.961,205 C126.385,190.641 129.379,186.628 130.75,185.179 C131.438,184.452 132,183.284 132,182.584 C132,181.883 132.9,180.495 134,179.5 C137.19,176.613 136.504,175.019 132,174.85 C129.8,174.767 127.574,174.655 127.054,174.6 C125.961,174.484 116.02,187.001 116.014,188.5 C116.012,189.05 114.248,191.3 112.093,193.5 C103.916,201.851 95.481,211.145 95,212.334 C94.156,214.42 85.368,222 83.793,222 C82.977,222 81.475,221.077 80.455,219.95 C78.646,217.952 78.649,217.806 80.54,214.2 C81.607,212.165 82.721,210.275 83.014,210 C83.306,209.725 84.334,208.262 85.296,206.75 C86.259,205.238 87.666,204 88.423,204 C90.936,204 112.567,179.454 115.931,172.784 C118.403,167.885 115.212,166.348 100,165.11 L92.5,164.5 L92.5,156.5 L98.444,155.608 C103.139,154.903 105.872,155.096 111.444,156.528 C115.325,157.525 119.289,158.823 120.253,159.413 C123.62,161.472 125.543,158.966 132.846,143 C134.985,138.325 137.048,133.15 137.432,131.5 C137.816,129.85 139.45,125.688 141.064,122.25 Z M142.667,0.667 C143.033,0.3 145.733,0 148.667,0 L154,0 L154,5.441 C154,8.434 153.581,11.141 153.068,11.458 C152.555,11.775 151.582,14.507 150.906,17.529 C150.23,20.551 149.074,23.523 148.338,24.134 C147.602,24.745 147,26.513 147,28.063 C147,29.614 146.607,31.125 146.127,31.422 C145.647,31.718 144.047,34.557 142.572,37.731 C141.098,40.904 139.253,44.85 138.472,46.5 C135.416,52.96 134.949,55 136.526,55 C138.576,55 145.761,47.389 148.172,42.664 C151.279,36.572 154.587,33.976 158.348,34.676 C161.943,35.345 168,38.721 168,40.056 C168,40.547 169.344,41.644 170.987,42.493 C178.63,46.446 182.922,52.605 180.085,55.55 C179.581,56.073 179.019,57.625 178.835,59 C178.601,60.743 177.784,61.601 176.135,61.835 C173.267,62.24 171.934,61.029 170.551,56.759 C169.458,53.386 164.545,50.143 160.386,50.048 C159.072,50.018 155.123,53.001 149.944,57.935 L141.615,65.87 L143.459,69.294 C145.386,72.873 145.103,74.682 140.874,85.797 C140.393,87.06 140,89.204 140,90.561 C140,91.917 139.588,93.809 139.084,94.764 C138.58,95.719 137.434,98.3 136.536,100.5 C135.638,102.7 134.475,105.281 133.952,106.236 C133.428,107.191 133,108.76 133,109.722 C133,110.684 131.928,113.728 130.617,116.486 C129.306,119.244 127.426,123.439 126.439,125.809 C123.743,132.279 117.801,135.875 115.128,132.655 C112.608,129.618 112.77,125.618 115.58,121.5 C119.988,115.041 124.681,105.511 125.436,101.488 C125.822,99.434 126.51,97.022 126.966,96.127 C130.293,89.597 133.561,77.906 132.693,75.642 C132.043,73.949 127.589,74.585 125.908,76.611 C123.094,80.001 118,76.6 118,71.331 C118,69.484 118.424,67.191 118.943,66.236 C119.461,65.281 121.537,60.9 123.556,56.5 C125.575,52.1 128.384,46.025 129.798,43 C131.211,39.975 132.927,36.15 133.61,34.5 C134.293,32.85 135.574,29.828 136.457,27.784 C139.773,20.106 142,11.569 142,6.536 C142,3.675 142.3,1.033 142.667,0.667 Z M72.25,57.527 C74.893,55.664 77.994,55.88 79.027,58 C83.835,67.869 85.086,77.156 82.456,83.45 C81.655,85.367 81,87.4 81,87.968 C81,90.175 84.025,88.834 86.568,85.5 C89.866,81.175 91.498,81.121 95.702,85.196 C99.445,88.824 99.933,91 97.003,91 C95.904,91 93.317,92.519 91.253,94.375 C81.855,102.828 66.176,115.364 63,116.965 C61.075,117.936 57.7,119.023 55.5,119.382 C53.3,119.74 48.714,120.553 45.309,121.189 C38.168,122.521 36,121.557 36,117.052 C36,112.14 42.71,108.066 53.452,106.455 C55.993,106.074 59.65,104.691 61.58,103.381 C63.51,102.071 65.487,101 65.973,101 C66.46,101 68.567,99.388 70.656,97.417 C73.947,94.313 74.233,93.71 72.793,92.904 C70.879,91.833 71.305,86.44 73.675,81.734 C75.273,78.561 74.08,72.141 71.493,69.994 C70.547,69.209 70,66.989 70,63.934 C70,60.072 70.447,58.798 72.25,57.527 Z M55.975,133.565 C56.704,131.647 57.663,131 59.775,131 C63.77,131 65,132.695 65,138.2 C65,141.042 65.451,143 66.107,143 C66.715,143 69.326,140.75 71.908,138 C74.49,135.25 77.092,133 77.69,133 C78.289,133 79.805,133.831 81.06,134.847 L83.341,136.695 L80.656,141.5 C79.179,144.142 78.2,146.534 78.481,146.815 C78.762,147.095 80.169,146.788 81.608,146.133 C84.906,144.63 87,146.103 87,149.925 C87,152.5 81.661,161 80.044,161 C79.268,161 78.112,161.955 64.5,173.849 C60.65,177.213 57.067,179.973 56.538,179.983 C56.009,179.992 53.661,181.879 51.321,184.176 C47.445,187.98 46.841,188.249 44.533,187.197 C42.449,186.248 42,185.348 42,182.122 C42,178.645 42.623,177.631 47.5,173.174 C50.525,170.409 53,167.466 53,166.633 C53,165.8 53.45,164.84 54,164.5 C54.55,164.16 55,163.064 55,162.063 C55,161.063 55.675,159.685 56.5,159 C57.346,158.298 58,156.118 58,154 C58,151.934 57.325,148.629 56.5,146.654 C54.776,142.529 54.565,137.273 55.975,133.565 Z M154.229,62.725 C155.701,62.198 158.185,63.314 159.757,65.207 C160.366,65.941 160.808,70.06 160.756,74.512 C160.648,83.644 162.25,90.498 164.711,91.443 C166.934,92.295 170.783,89.376 174.316,84.159 C177.489,79.473 179.719,78.964 182.677,82.25 C186.488,86.484 186.308,87.764 181.235,92.541 C178.631,94.992 175.375,98.064 174,99.366 C172.625,100.668 169.32,102.456 166.656,103.338 L161.812,104.943 L157.776,101.721 C151.732,96.898 150,91.917 150,79.367 C150,68.847 151.288,63.779 154.229,62.725 Z M146.987,152.552 C145.619,153.31 143.135,153.945 141.466,153.965 C135.717,154.032 132.569,163.572 137.547,165.839 C141.643,167.706 142.527,167.287 146.22,161.724 C151.899,153.17 152.192,149.672 146.987,152.552 Z M72.75,151.08 C70.97,152.117 70.304,155 71.845,155 C72.31,155 73.435,154.177 74.345,153.171 C77.083,150.146 76.243,149.045 72.75,151.08 Z"/>
</svg>

