<svg xmlns="http://www.w3.org/2000/svg" width="300" height="300" viewBox="0 0 300 300" version="1.1">
  <defs/>
  <path d="M73.896,96.104 C75.053,94.947 76.59,94 77.312,94 C79.428,94 83.176,99.892 83.741,104.108 C84.094,106.737 84.768,108 85.817,108 C87.696,108 92,104.13 92,102.441 C92,101.366 96.123,98 97.439,98 C98.748,98 101.102,104.457 100.568,106.583 C100.242,107.886 97.315,111.644 94.064,114.935 C87.185,121.9 87.336,121.238 86.536,148.017 C86.265,157.102 85.752,165.988 85.397,167.765 C84.415,172.676 86.083,174.082 90.919,172.416 C95.889,170.704 109.842,172.642 112.978,175.48 C119.156,181.071 110.646,183.584 94.086,181.058 C85.521,179.752 84.544,180.231 84.413,185.802 C84.365,187.836 83.759,195.125 83.067,202 C82.003,212.569 81.429,215.002 79.353,217.75 C76.122,222.028 71.689,222.186 67.206,218.184 C62.968,214.401 61.357,210.088 60.506,200.25 C60.113,195.713 59.406,192 58.935,192 C57.864,192 56.7,193.37 53.185,198.763 C48.216,206.388 42.461,208.673 39.073,204.366 C37.933,202.916 37,201.171 37,200.488 C37,199.805 39.257,197.329 42.015,194.987 C44.773,192.645 47.318,189.583 47.669,188.181 C48.021,186.78 49.364,184.079 50.654,182.177 C51.944,180.276 53,178.251 53,177.676 C53,177.102 53.94,174.689 55.089,172.316 C57.519,167.297 60.595,166.586 64.034,170.25 C65.769,172.098 66.023,173.214 65.457,176.5 C64.464,182.272 64.794,196.157 65.979,198.5 C66.536,199.6 67.349,202.3 67.786,204.5 C68.394,207.558 69.102,208.575 70.791,208.82 C72.765,209.105 73,208.699 73,205.011 C73,202.741 73.441,197.872 73.981,194.192 C75.319,185.056 75.939,175.532 76.499,155.5 C76.76,146.15 77.219,137.073 77.518,135.328 C78.154,131.617 76.675,130.249 74.094,132.161 C73.099,132.897 69.431,135.637 65.943,138.25 C62.454,140.862 59.215,143 58.745,143 C58.275,143 55.777,143.998 53.195,145.218 C45.366,148.916 33,147.573 33,143.024 C33,141.976 32.55,140.84 32,140.5 C30.212,139.395 30.942,137.347 33.547,136.161 C34.948,135.522 38.66,134.997 41.797,134.994 C44.934,134.991 49.3,134.501 51.5,133.904 C55.965,132.694 63.871,127.989 68.633,123.708 C70.356,122.159 72.593,120.287 73.604,119.548 C75.491,118.168 75.325,115.581 72.431,101.354 C71.938,98.928 72.273,97.727 73.896,96.104 Z M153.631,37.512 C154.462,36.68 156.452,36 158.052,36 C161.423,36 162.617,38.811 161.685,44.554 C160.993,48.816 163.204,49.281 166.179,45.5 C169.435,41.36 174,42.77 174,47.916 C174,50.558 165.682,60 163.355,60 C162.684,60 161.824,60.979 161.444,62.175 C160.911,63.857 161.457,64.935 163.849,66.925 C166.393,69.041 167.172,70.728 168.222,76.39 C169.877,85.311 171.073,86.134 180.5,84.832 C185.681,84.117 188.164,83.233 190.055,81.433 C194.761,76.952 198,78.832 198,86.045 C198,93.21 196.372,94.139 182.263,95.024 C172.797,95.618 169.719,95.465 166.5,94.239 C160.682,92.023 159.232,90.173 158.478,84 C157.702,77.66 157.413,77 155.416,77 C153.603,77 152,81.007 152,85.541 C152,87.417 151.102,90.425 150.004,92.226 C148.906,94.027 148.006,96.314 148.004,97.31 C148.002,98.305 146.272,102.805 144.159,107.31 C142.047,111.814 139.736,116.978 139.024,118.784 C137.572,122.467 133.631,126 130.976,126 C130.011,126 128.27,125.213 127.108,124.25 L124.994,122.5 L127.554,118.25 C128.961,115.912 130.538,114 131.057,114 C131.576,114 132,113.282 132,112.404 C132,110.869 134.3,106.128 136.563,103 C137.159,102.175 139.115,96.775 140.909,91 C142.703,85.225 144.62,79.15 145.169,77.5 C145.719,75.85 146.243,73.842 146.334,73.038 C146.636,70.379 143.248,70.843 139.715,73.945 C137.802,75.625 135.94,77 135.577,77 C135.215,77 133.641,77.945 132.079,79.099 C128.483,81.758 125.548,80.489 124.625,75.876 C124.274,74.118 124.102,72.604 124.243,72.511 C124.384,72.418 127.765,69.768 131.756,66.623 C135.747,63.478 141.359,59.689 144.227,58.202 C149.809,55.31 149.823,55.282 151.45,43.762 C151.818,41.156 152.799,38.344 153.631,37.512 Z M165.248,165.106 C167.586,163.949 170.753,163.001 172.285,163.001 C175.235,163 180,165.582 180,167.182 C180,167.705 181.231,169.748 182.736,171.72 C184.893,174.549 185.637,176.913 186.251,182.904 C186.68,187.082 187.518,195 188.115,200.5 C188.712,206 189.361,219.5 189.559,230.5 C189.916,250.38 189.903,250.522 187.445,254.25 C184.577,258.599 181.78,259.081 178.314,255.826 C175.481,253.164 175.426,251.968 178,249 C179.142,247.683 180,245.259 180,243.347 C180,238.761 178.075,238.933 166.439,244.555 C158.615,248.335 156.21,249.058 152.296,248.805 C147.692,248.507 147.561,248.407 146.774,244.597 C145.693,239.363 147.736,236.921 152.543,237.701 C154.994,238.098 156.95,237.623 159.707,235.96 C168.691,230.54 172.308,229 176.053,229 L180,229 L180.159,224.75 C180.68,210.771 177.316,186.424 173.989,180.102 C173.525,179.221 172.902,177.713 172.604,176.75 C171.489,173.146 168.184,175.048 160.443,183.75 C149.643,195.891 147.577,195.928 150.518,183.928 C151.874,178.394 153.122,175.968 156.609,172.09 C159.022,169.407 162.909,166.264 165.248,165.106 Z M161.557,113.223 C163.4,110.591 166.625,110.35 169.171,112.655 C171.742,114.981 171.401,117.861 168.006,122.5 C166.396,124.7 164.442,127.85 163.663,129.5 C162.884,131.15 160.841,133.822 159.123,135.437 C156.143,138.24 155.021,141 156.862,141 C157.335,141 161.564,139.2 166.259,137 C170.954,134.8 175.484,133 176.326,133 C180.353,133 182.478,139.596 179.683,143.419 C178.958,144.41 174.12,146.695 168.933,148.497 C163.745,150.299 156.8,152.939 153.5,154.363 C142.243,159.221 136.906,157.144 135.256,147.263 C134.727,144.093 134.565,139.034 134.897,136.02 C135.425,131.218 135.833,130.424 138.19,129.598 C141.948,128.282 144,130.233 144,135.122 C144,137.255 144.338,138.993 144.75,138.985 C146.361,138.952 148.107,137.217 149.837,133.932 C153.628,126.727 157.312,120.44 158.63,118.921 C159.383,118.053 160,116.916 160,116.394 C160,115.872 160.701,114.445 161.557,113.223 Z M133.29,176.25 C133.815,175.563 135.035,175 136,175 C140.033,175 140.389,177.141 140.627,202.843 C140.753,216.404 141.249,232 141.729,237.5 C142.209,243 142.242,248.257 141.802,249.182 C140.845,251.196 137.672,252.352 135.25,251.57 C133.116,250.881 129.747,245.218 130.626,243.796 C131.443,242.473 131.403,230.664 130.494,204.74 C129.767,184.033 130.124,180.394 133.29,176.25 Z M83.546,57.545 C86.439,54.423 89.388,54.288 91.416,57.184 C93.239,59.786 92.581,63.57 89.767,66.673 C88.683,67.868 86.779,71.042 85.535,73.728 C83.369,78.403 75.24,87.502 66.301,95.259 C63.991,97.263 61.407,100.246 60.558,101.888 C58.657,105.563 57.165,106.565 55.728,105.128 C53.872,103.272 62.565,87.609 67.64,83.667 C68.938,82.658 70,81.441 70,80.961 C70,80.481 71.046,78.547 72.325,76.663 C73.604,74.778 76.121,70.278 77.919,66.663 C79.717,63.047 82.249,58.944 83.546,57.545 Z M165.5,198.155 C168.779,196.361 171.934,196.843 174.641,199.55 C177.403,202.312 177.325,205.243 174.367,209.815 C173.15,211.696 172.312,212.008 169.903,211.479 C167.347,210.917 166.423,211.371 163.219,214.762 C161.173,216.926 158.805,219.725 157.956,220.981 C156.795,222.7 155.866,223.092 154.206,222.565 C149.597,221.103 152.156,208.471 157.935,204.159 C159.896,202.697 161.95,200.993 162.5,200.374 C163.05,199.755 164.4,198.756 165.5,198.155 Z M187.046,29.971 C188.258,29.222 192.269,29.491 195.748,30.555 C196.435,30.764 198.119,33.473 199.491,36.575 L201.984,42.213 L199.924,45.107 C197.342,48.733 195.354,48.776 193.325,45.25 C192.455,43.737 190.339,41.825 188.622,41 C185.807,39.648 185.509,39.073 185.593,35.156 C185.647,32.662 186.266,30.454 187.046,29.971 Z"/>
</svg>

