<svg xmlns="http://www.w3.org/2000/svg" width="300" height="300" viewBox="0 0 300 300" version="1.1">
  <defs/>
  <path d="M166.252,71.638 C166.938,71.348 169.053,71.198 170.951,71.305 C175.366,71.554 178.401,76.219 178.149,82.365 C178.056,84.639 178.486,89.987 179.105,94.25 C180.011,100.494 180.566,102 181.959,102 C184.04,102 195.362,89.887 197.779,85.075 C201.452,77.764 206.283,78.409 206.802,86.279 L207.104,90.853 L193.857,103.878 L180.611,116.904 L180.501,136.202 C180.413,151.523 180.683,155.851 181.81,157.205 C183.254,158.941 183.211,159.695 181.015,171 C178.65,183.177 178.295,254.119 180.566,260.831 C182.52,266.608 180.941,270.358 176.367,270.804 C173.76,271.058 172.654,270.414 169.624,266.874 C166.575,263.312 166,261.896 166,257.947 C166,255.366 166.891,251.24 167.98,248.779 C169.769,244.734 169.98,241.762 170.171,217.902 C170.331,197.972 170.091,191.525 169.192,191.6 C166.479,191.828 166,192.051 166,193.091 C166,194.501 158.784,205.04 153.285,211.659 C150.928,214.497 149,217.244 149,217.764 C149,218.284 146.637,220.948 143.75,223.684 C140.863,226.419 137.883,229.819 137.129,231.239 C135.837,233.672 129.373,237 125.939,237 C123.261,237 120,233.961 120,231.466 C120,228.789 122.445,226.874 128.185,225.056 C131.955,223.861 133.927,221.873 143.826,209.284 C152.611,198.112 154,196.234 154,195.522 C154,195.158 155.269,192.979 156.821,190.68 C162.416,182.39 167.747,171.406 168.424,166.773 C168.804,164.174 169.54,161.785 170.058,161.464 C171.408,160.63 171.298,125 169.945,125 C169.365,125 166.327,126.723 163.195,128.83 C160.063,130.936 155.7,133.588 153.5,134.723 C144.598,139.316 132.429,141.37 128.039,139.021 C125.519,137.672 123.852,132.52 124.977,129.56 C126.32,126.029 127.701,125.651 130.911,127.937 C132.505,129.072 134.512,130 135.37,130 C138.608,130 158.659,120.211 165.313,115.382 C169.928,112.033 170,111.894 170,106.411 C170,99.104 168.107,82.044 167.015,79.5 C165.31,75.531 164.984,72.174 166.252,71.638 Z M89,121.935 C90.375,121.515 94.08,121.133 97.234,121.086 C102.148,121.012 103.406,121.393 106.025,123.75 C108.76,126.21 109.093,127.133 109.178,132.5 C109.23,135.8 108.786,140.525 108.19,143 C107.595,145.475 106.817,148.85 106.462,150.5 C105.672,154.171 101.222,163.745 99.936,164.54 C99.421,164.858 99,167.086 99,169.491 C99,173.176 98.543,174.189 96.096,175.932 C94.498,177.069 92.811,178.013 92.346,178.028 C91.881,178.043 89.732,179.393 87.572,181.028 C84.509,183.345 82.608,184 78.944,184 C75.987,184 73.783,183.444 73,182.5 C72.305,181.663 70.126,181 68.069,181 C66.041,181 63.564,180.402 62.565,179.671 C60.918,178.467 60.875,177.987 62.109,174.576 C63.445,170.881 63.409,170.755 60.22,167.905 C58.431,166.307 56.301,165 55.484,165 C53.695,165 53.57,163.83 55.187,162.213 C56.102,161.298 55.846,160.464 54.062,158.566 C50.913,155.214 49.623,148.102 51.737,145.75 C53.567,143.714 57.313,143.447 58.755,145.25 C59.305,145.938 60.101,147.625 60.524,149 C61.188,151.157 73.784,171 74.49,171 C74.631,171 76.828,170.079 79.373,168.953 C82.979,167.358 84,166.389 84,164.56 C84,161.737 81.612,160.557 79.951,162.559 C78.371,164.463 76.08,164.382 73.829,162.345 C70.603,159.426 71.527,156.467 76.592,153.499 C80.408,151.262 81.072,150.445 80.526,148.654 C80.165,147.469 79.744,145.375 79.591,144 C79.162,140.141 79.092,140 77.607,140 C76.841,140 75.952,140.684 75.631,141.52 C75.31,142.355 73.462,143.975 71.524,145.118 C69.048,146.579 68,147.911 68,149.599 C68,152.181 65.897,152.828 64.261,150.75 C63.604,149.915 63.79,147.387 64.821,143.134 C66.237,137.299 66.857,136.36 72.254,131.868 C78.081,127.019 84.161,123.412 89,121.935 Z M78.218,45.25 C79.623,43.54 82.101,43.682 84.888,45.634 C86.999,47.113 87.167,47.802 86.654,52.884 C85.716,62.172 84.502,67.332 82.076,72.344 C79.531,77.6 79.936,79.155 83.295,77.028 C90.296,72.595 93.32,72.323 97.25,75.773 C99.163,77.454 99.703,84.448 98,85.5 C97.45,85.84 97,86.793 97,87.618 C97,88.444 95.096,92.997 92.769,97.737 C89.635,104.121 86.496,108.513 80.66,114.678 C76.327,119.255 72.367,123 71.86,123 C68.55,123 70.928,115.797 76.977,107.5 C82.237,100.285 86.541,90 84.3,90 C83.795,90 82.509,90.661 81.441,91.468 C80.374,92.276 78.27,92.951 76.767,92.968 C74.498,92.995 73.566,93.892 71.283,98.25 C69.771,101.138 67.848,105.075 67.01,107 C64.768,112.149 56.837,123.988 51.85,129.628 C49.458,132.335 46.792,135.629 45.928,136.95 C44.077,139.776 41,139.194 41,136.018 C41,133.692 41.806,132.097 47.58,123 C53.325,113.947 58,106.069 58,105.439 C58,105.147 59.575,101.543 61.5,97.432 C63.425,93.32 65,89.753 65,89.505 C65,89.257 66.172,86.455 67.603,83.277 C69.035,80.1 70.658,76.375 71.209,75 C71.76,73.625 72.808,71.15 73.538,69.5 C75.007,66.178 75.863,61.52 76.66,52.5 C76.952,49.2 77.653,45.938 78.218,45.25 Z M187.25,189.277 C191.354,187.401 200.948,187.827 204.03,190.021 C205.558,191.11 207.385,192 208.089,192 C209.43,192 210.19,192.339 229.5,201.543 C236.1,204.689 244.425,208.365 248,209.711 C251.575,211.058 255.903,213.024 257.618,214.08 C259.333,215.136 261.674,216 262.821,216 C268.192,216 274,220.177 274,224.04 C274,229.692 264.835,231.766 260.246,227.152 C259.286,226.187 256.475,224.581 254,223.585 C251.525,222.589 245.9,220.208 241.5,218.294 C237.1,216.381 232.6,214.427 231.5,213.954 C220.601,209.263 215.536,206.78 213.336,205.049 C211.903,203.922 209.952,203 209,203 C208.048,203 206.186,202.148 204.862,201.106 C203.538,200.065 200.215,198.544 197.477,197.728 C192.194,196.152 185,192.304 185,191.054 C185,190.642 186.012,189.843 187.25,189.277 Z M11.5,229.217 C14.356,227.647 14.841,227.736 21.478,231.033 C25.12,232.843 30.299,236.827 34.728,241.227 C42.331,248.779 43.691,252.025 40.066,253.965 C35.903,256.193 33.45,255.162 27.202,248.555 C20.928,241.922 19.695,241.346 10.5,240.757 L6.5,240.5 L6.5,236.109 C6.5,233.184 7.001,231.484 8,231.017 C8.825,230.631 10.4,229.821 11.5,229.217 Z M173,50.211 C176.928,47.738 178.275,47.542 181.066,49.035 C184.738,51.001 182.519,61 178.41,61 C177.598,61 174.786,62.088 172.162,63.418 C165.002,67.046 160.835,67.58 158.638,65.153 C155.566,61.758 156.906,59.128 163.5,55.613 C166.8,53.854 171.075,51.423 173,50.211 Z M53.347,212.538 C54.699,209.016 64.161,212.662 65.962,217.4 C67.226,220.725 70.873,223.07 73.684,222.365 C75.565,221.892 76,222.185 76,223.924 C76,226.522 73.588,232.519 72.197,233.378 C70.713,234.295 63.251,230.018 59.371,226.026 C55.662,222.21 52.421,214.952 53.347,212.538 Z M76.2,211.2 C77.989,209.411 86.997,209.687 89.105,211.595 C90.074,212.472 92.585,213.777 94.684,214.495 C97.668,215.516 98.571,216.386 98.825,218.488 C99.229,221.829 96.52,225 93.263,225 C91.929,225 88.915,223.425 86.565,221.5 C84.216,219.575 81.476,218 80.476,218 C78.39,218 75,215.242 75,213.545 C75,212.915 75.54,211.86 76.2,211.2 Z M118.667,200.667 C119.033,200.3 120.353,200 121.6,200 C123.973,200 129.637,206.206 131.701,211.069 C132.971,214.059 132.357,218.459 130.45,220.042 C128.657,221.53 123.868,220.86 123.006,219 C122.624,218.175 121.791,216.494 121.155,215.264 C120.52,214.034 120,212.148 120,211.073 C120,209.998 119.55,208.84 119,208.5 C117.885,207.811 117.625,201.708 118.667,200.667 Z M90.75,133.054 C89.499,133.801 89,135.378 89,138.581 C89,144.254 91.026,145.307 94.864,141.63 C96.374,140.183 98.401,139 99.368,139 C100.75,139 101.06,138.303 100.813,135.75 C100.522,132.726 100.222,132.483 96.5,132.255 C94.3,132.12 91.713,132.48 90.75,133.054 Z M94,156.5 C94,157.325 94.45,158 95,158 C95.55,158 96,157.325 96,156.5 C96,155.675 95.55,155 95,155 C94.45,155 94,155.675 94,156.5 Z M78.606,61.584 C78.233,62.557 78.456,63.015 79.187,62.771 C80.682,62.273 81.505,60 80.19,60 C79.653,60 78.941,60.713 78.606,61.584 Z"/>
</svg>

