<svg xmlns="http://www.w3.org/2000/svg" width="300" height="300" viewBox="0 0 300 300" version="1.1">
  <defs/>
  <path d="M140.022,108.32 C141.728,105.944 143.623,104 144.233,104 C146.314,104 149,107.304 149,109.863 C149,112.458 142.671,120 140.493,120 C139.887,120 137.263,121.35 134.661,123 C132.059,124.65 129.249,126 128.416,126 C127.582,126 125.515,126.717 123.821,127.593 C120.77,129.17 120.747,129.243 121.335,135.343 C121.662,138.729 122.355,144.558 122.874,148.297 C123.393,152.035 123.704,160.022 123.565,166.047 C123.309,177.148 124.002,179.112 126.93,175.584 C127.577,174.805 131.344,172.01 135.303,169.373 C139.261,166.736 143.978,163.323 145.785,161.789 C147.591,160.255 149.806,159 150.706,159 C153.46,159 156,162.11 156,165.481 C156,169.124 153.612,171.725 147.25,175.008 C144.912,176.215 143,177.616 143,178.122 C143,178.627 140.964,180.477 138.475,182.231 C135.986,183.985 133.048,186.949 131.946,188.816 C130.113,191.922 129.647,192.156 126.471,191.561 C123.205,190.948 122.991,191.075 122.844,193.705 C122.758,195.242 122.531,197.625 122.34,199 C121.021,208.499 120.432,216.621 121.012,217.298 C121.82,218.241 126.664,216.322 129.5,213.935 C130.6,213.009 139.6,208.079 149.5,202.98 C159.4,197.881 168.21,193.099 169.079,192.354 C169.947,191.609 171.565,191 172.674,191 C175.34,191 178.22,194.263 177.412,196.369 C176.736,198.129 165.605,207 164.072,207 C162.774,207 149.877,213.886 147.5,215.849 C145.356,217.619 143.259,218.863 136.677,222.271 C134.379,223.46 130.975,225.461 129.11,226.717 C127.246,227.972 124.209,229 122.36,229 C119.85,229 118.984,229.443 118.938,230.75 C118.536,242.042 116.214,272.446 115.023,282 C114.509,286.125 114.068,291.863 114.044,294.75 L114,300 L106,300 L106.008,292.25 C106.012,287.988 106.448,280.734 106.977,276.13 C107.507,271.527 108.185,260.277 108.485,251.13 C108.784,241.984 109.475,230.675 110.019,226 C110.563,221.325 111.18,214.8 111.39,211.5 C111.6,208.2 112.324,199.875 112.999,193 C115.154,171.043 112.874,137 109.248,137 C108.535,137 104.555,140.375 100.403,144.5 C92.643,152.21 89.265,153.728 88.276,149.948 C87.474,146.88 83.902,147.854 82.584,151.5 C81.407,154.759 77.192,160.944 69.75,170.334 C67.137,173.631 64.996,176.817 64.991,177.414 C64.985,178.011 60.744,182.919 55.566,188.319 C46.927,197.327 45.876,198.112 42.825,197.819 C40.079,197.555 39.447,197.043 39.195,194.871 C38.965,192.889 39.67,191.66 42.06,189.871 C47.59,185.734 56.468,175.534 62.426,166.472 C64.586,163.187 67.624,158.626 69.176,156.337 C70.729,154.047 72,151.85 72,151.455 C72,151.059 72.998,149.122 74.217,147.149 C76.359,143.682 84,121.961 84,119.336 C84,118.627 85.103,117.323 86.451,116.44 C91.278,113.278 96.239,117.594 93.998,123.006 C92.135,127.502 91.132,132.964 92.064,133.539 C92.534,133.83 94.625,132.547 96.71,130.688 C100.703,127.126 113.418,120.571 118.5,119.454 C120.15,119.091 124.97,117.409 129.21,115.717 C135.55,113.186 137.471,111.872 140.022,108.32 Z M103.035,10.934 C103.698,9.695 105.127,9 107.01,9 C110.42,9 113,12.868 113,17.982 C113,22.152 114.821,22.556 120.077,19.553 C125.953,16.194 129.345,16.251 131.769,19.75 C134.733,24.028 134.964,25.468 133.479,30.403 C131.831,35.878 127.446,42.512 123.089,46.122 C119.139,49.394 118,53.313 118,63.636 C118,70.469 118.283,71.897 119.75,72.474 C121.044,72.983 122.692,71.839 126.079,68.081 C128.598,65.286 131.125,63 131.695,63 C132.264,63 133.916,63.933 135.365,65.073 C139.654,68.446 139.01,72.732 133.525,77.317 C128.683,81.365 120.186,86 117.608,86 C116.727,86 114.159,84.332 111.903,82.293 L107.799,78.586 L108.15,62.998 C108.527,46.214 109.717,42 114.079,42 C116.731,42 122,36.197 122,33.277 C122,29.434 118.639,30.608 114.414,35.926 C112.261,38.635 109.547,41.104 108.382,41.412 C107.217,41.72 104.563,44.047 102.484,46.584 L98.705,51.197 L98.536,63.848 C98.34,78.571 98.118,79.746 93.502,90.5 C91.966,94.078 90.621,98.068 89.118,103.5 C88.437,105.964 85.955,109.708 82.654,113.25 C76.617,119.73 73.564,120.613 71.942,116.349 C71.107,114.152 71.368,113.042 73.467,109.87 C74.86,107.765 76,105.764 76,105.424 C76,105.083 77.77,101.136 79.933,96.652 C85.16,85.815 87.901,77.946 88.23,72.831 C88.494,68.73 88.376,68.559 83.254,65.566 C80.368,63.879 76.708,60.664 75.12,58.419 C73.532,56.175 70.694,53.608 68.813,52.716 C63.873,50.371 61.749,47.585 61.616,43.273 C61.503,39.605 61.605,39.491 65.281,39.188 C69.721,38.821 73.644,40.967 79.453,46.937 C84.11,51.723 85.438,51.959 86.856,48.25 C88.073,45.065 90.009,42.502 91.641,41.912 C93.348,41.295 101.731,33.34 103.469,30.687 C104.821,28.624 104.824,27.744 103.494,22.637 C101.729,15.864 101.639,13.544 103.035,10.934 Z"/>
</svg>

