<svg xmlns="http://www.w3.org/2000/svg" width="300" height="300" viewBox="0 0 300 300" version="1.1">
  <defs/>
  <path d="M175.735,41.954 C180.404,36.885 180.706,36.83 186.5,40.015 C189.215,41.507 190.886,43.753 192.439,48 C192.74,48.825 193.376,50.175 193.852,51 C196.796,56.11 198,59.113 198,61.345 C198,62.74 198.45,64.16 199,64.5 C199.55,64.84 200,66.972 200,69.238 C200,71.504 200.425,74.74 200.944,76.429 C202.437,81.281 205,98.165 205,103.141 C205,105.63 205.338,108.004 205.75,108.416 C206.162,108.829 206.56,115.316 206.634,122.833 C206.809,140.568 207.939,167.092 208.563,168.102 C208.831,168.536 209.283,176.003 209.566,184.696 C209.849,193.388 210.509,203.2 211.033,206.5 C211.556,209.8 212.006,214.975 212.032,218 C212.058,221.025 212.737,226.875 213.54,231 C214.344,235.125 215.257,244.478 215.57,251.784 L216.139,265.068 L212.915,268.079 C210.278,270.543 209.149,270.972 206.714,270.437 C200.592,269.093 190.015,259.448 182.674,248.518 C179.927,244.428 179.014,237.728 181.032,236.48 C182.023,235.868 192,245.612 192,247.192 C192,247.614 193.8,248.878 196,250 C198.2,251.122 200.015,252.369 200.033,252.77 C200.052,253.172 200.954,254.565 202.039,255.868 C203.699,257.86 204.258,258.03 205.57,256.942 C206.586,256.098 206.917,254.804 206.519,253.221 C206.184,251.887 205.273,243.078 204.495,233.647 C203.716,224.216 202.581,213.19 201.973,209.145 C201.365,205.099 201.12,201.129 201.43,200.322 C201.739,199.515 201.59,198.1 201.098,197.178 C199.958,195.041 199.194,182.046 198.001,144.5 C197.105,116.3 196.284,107.537 192.475,85.5 C191.62,80.55 190.692,74.475 190.414,72 C189.642,65.129 187.906,59.842 185.216,56.17 C182.425,52.361 180.12,52.41 174,56.409 C172.075,57.666 166.9,59.956 162.5,61.496 C151.757,65.257 146.968,68.163 141.279,74.372 C135.02,81.204 134.502,81.455 132.06,78.834 C128.903,75.445 129.549,72.646 135.003,66.092 C140.555,59.42 145.667,56.031 155.622,52.42 C159.293,51.088 162.792,49.601 163.398,49.115 C164.004,48.629 166.028,47.904 167.896,47.504 C170.118,47.028 172.827,45.111 175.735,41.954 Z M76.75,57.689 C80.073,56.821 82.604,57.004 83.8,58.2 C85.593,59.993 85.249,66.583 83.142,70.79 C82.12,72.83 80.999,75.686 80.652,77.135 C80.304,78.584 78.44,82.117 76.51,84.985 C74.579,87.854 73,90.39 73,90.62 C73,90.851 71.875,92.822 70.5,95 C69.125,97.178 68,99.347 68,99.82 C68,100.292 69.125,101.192 70.5,101.818 C72.204,102.595 73,103.759 73,105.479 C73,108.881 76.667,108.867 82.089,105.444 C87.118,102.269 93.329,102.305 93.788,105.511 C94.164,108.131 89.279,114 86.723,114 C85.63,114 83.279,114.9 81.499,116.001 C77.28,118.608 77.107,120.081 78.221,144 C78.72,154.725 79.091,166.251 79.046,169.613 C78.942,177.4 80.059,178.473 87.332,177.564 C92.402,176.931 98,178.225 98,180.031 C98,180.422 94.868,181.05 91.041,181.427 C80.779,182.439 80.331,183.044 78.894,197.854 C77.863,208.486 77.356,210.612 75.259,213.104 C73.778,214.864 71.85,216 70.344,216 C67.34,216 60.043,210.18 60.018,207.764 C60.008,206.81 59.457,204 58.794,201.52 C57.84,197.953 57.849,196.751 58.836,195.764 C60.36,194.24 61.961,196.248 61.985,199.715 C62.001,202.108 64.628,204 67.934,204 C69.962,204 70,203.577 70,181.039 C70,168.411 69.547,153.673 68.994,148.289 C68.441,142.905 67.873,136.48 67.733,134.012 C67.41,128.341 65.701,127.899 60.867,132.239 C47.866,143.91 29.24,155.074 25.295,153.56 C24.583,153.286 24,151.701 24,150.037 C24,147.337 24.939,146.398 32.75,141.291 C47.117,131.898 59.855,121.979 61.842,118.637 C63.144,116.448 63.572,114.251 63.26,111.367 C63.001,108.973 63.272,106.95 63.906,106.558 C65.019,105.87 65.467,102 64.434,102 C62.933,102 60,104.215 60,105.348 C60,106.051 58.647,107.922 56.993,109.506 C50.301,115.918 50.896,106.36 57.671,98.602 C59.777,96.19 62.378,92.481 63.45,90.359 C64.523,88.236 65.906,85.825 66.523,85 C67.14,84.175 68.256,81.475 69.002,79 C69.749,76.525 70.732,74.001 71.186,73.391 C72.383,71.782 74.977,62.871 74.989,60.323 C74.995,59.097 75.764,57.947 76.75,57.689 Z M156.945,153.378 C162.632,150.59 164.082,150.284 169.439,150.741 C177.839,151.458 179,152.723 179,161.155 C179,164.92 178.626,168 178.169,168 C177.712,168 176.699,169.238 175.919,170.75 C175.139,172.262 173.262,175.365 171.75,177.645 C170.238,179.925 169,182.761 169,183.947 C169,186.012 169.368,186.092 177.589,185.814 C185.144,185.558 186.35,185.758 187.602,187.471 C188.386,188.542 188.879,189.887 188.697,190.46 C188.219,191.967 179.156,194.806 170.758,196.078 C162.953,197.26 161.024,197.89 153.853,201.598 C148.077,204.583 145.553,204.628 143.557,201.777 C141.167,198.366 141.652,196.547 146,192.619 C150.343,188.695 150.705,187.516 148.468,184.559 C147.661,183.491 147,181.989 147,181.22 C147,180.452 143.852,176.375 140.003,172.161 C132.719,164.185 131.45,160.9 134.934,159.035 C137.884,157.457 140.5,157.79 142.5,160 C145.019,162.784 147.654,162.495 149.201,159.266 C150.064,157.467 152.712,155.453 156.945,153.378 Z M110.5,58.713 C114.049,57.859 114.664,57.971 116.242,59.75 C118.885,62.73 122.322,78.819 123.559,94 C124.589,106.647 124.859,113.464 125.483,142.5 C126.008,166.968 125.826,172.645 124.042,187.5 C120.115,220.2 119.148,223 111.779,223 C109.902,223 109.773,222.568 110.305,218.076 C110.625,215.368 111.315,212.331 111.836,211.326 C113.602,207.926 115.153,196.684 115.943,181.561 C116.276,175.194 116.488,171.629 116.576,168.061 C116.728,161.84 116.503,155.609 115.878,134.5 C114.961,103.496 113.53,87.15 110.844,77 C106.489,60.543 106.473,59.682 110.5,58.713 Z M153.08,76.404 C155.802,73.124 159.783,75.973 160.199,81.5 C160.448,84.808 160.899,85.557 162.808,85.827 C164.077,86.007 166.237,85.42 167.607,84.522 C169.18,83.491 171.646,83.002 174.299,83.195 C178.218,83.479 178.521,83.715 178.809,86.697 C179.075,89.445 178.582,90.248 175.293,92.425 C173.189,93.817 169.9,95.255 167.984,95.619 C162.562,96.65 162,97.545 162,105.154 C162,113.064 163.018,114.135 168.115,111.592 C169.871,110.717 171.897,110 172.618,110 C174.555,110 176.164,113.648 175.81,117.238 C175.547,119.909 174.655,120.843 169.886,123.441 C158.251,129.78 153.117,133.172 151.56,135.548 C150.617,136.988 148.993,138 147.626,138 C146.346,138 143.807,138.52 141.984,139.155 C138.988,140.2 138.489,140.087 136.785,137.982 C133.266,133.637 134.674,130.224 142.75,123.52 C149.567,117.862 150,117.26 150,113.451 C150,111.223 150.543,108.857 151.207,108.193 C152.15,107.25 152.075,106.646 150.865,105.436 C149.465,104.037 148.808,104.202 144.081,107.14 C137.679,111.12 135.656,110.417 135.188,104.046 C134.85,99.449 136.563,96.59 140.382,95.379 C141.547,95.01 144.099,93.699 146.053,92.466 C149.189,90.487 149.741,89.496 150.76,84.016 C151.395,80.602 152.439,77.176 153.08,76.404 Z M46.673,169.809 C47.47,168.928 47.921,168.384 48.481,168.228 C49.366,167.98 50.524,168.703 53.755,170.597 C57.918,173.036 58.148,173.397 57.556,176.551 C57.177,178.575 57.423,180.704 58.175,181.909 C59.839,184.574 58.847,185.343 55.633,183.879 C53.399,182.861 52.692,182.967 50.884,184.591 C48.078,187.113 42,196.642 42,198.519 C42,199.334 41.566,200 41.035,200 C40.504,200 38.532,201.35 36.653,203 C32.759,206.419 31.768,206.631 29.945,204.434 C28.353,202.515 29.978,197.237 33.649,192.406 C34.942,190.704 36,188.566 36,187.656 C36,186.745 36.406,186 36.902,186 C37.398,186 38.301,184.762 38.907,183.25 C40.483,179.32 44.752,171.932 46.673,169.809 Z M159.225,165.004 C154.743,167.737 153.401,171.521 155.415,175.745 C156.269,177.535 157.607,179 158.389,179 C160.019,179 165.2,170.819 166.113,166.804 C166.536,164.943 166.278,163.937 165.281,163.554 C163.154,162.738 162.805,162.821 159.225,165.004 Z"/>
</svg>

