<svg xmlns="http://www.w3.org/2000/svg" width="300" height="300" viewBox="0 0 300 300" version="1.1">
  <defs/>
  <path d="M97.703,54.25 C100.007,52.535 103.539,52.682 105.429,54.571 C108.079,57.222 108.01,73.072 105.321,79.26 C104.422,81.328 103.981,83.314 104.339,83.673 C105.116,84.449 108.529,82.814 112.015,79.994 C115.206,77.414 128.145,73 132.519,73 C134.64,73 136.962,73.939 138.923,75.589 C141.634,77.87 142,78.798 142,83.389 C142,86.255 141.622,89.027 141.16,89.55 C140.698,90.072 139.705,92.075 138.954,94 C136.969,99.083 127.281,108 123.743,108 C122.163,108 120.684,107.34 120.358,106.49 C119.804,105.048 123.099,99.907 126.939,96.221 C129.481,93.78 132.327,87.296 131.641,85.508 C130.485,82.494 123.432,83.641 117.201,87.858 C114.066,89.98 109.565,92.926 107.201,94.405 C104.836,95.884 102.633,97.86 102.304,98.797 C101.976,99.734 100.703,101.625 99.477,103 C98.25,104.375 96.023,107.75 94.528,110.5 C91.072,116.855 88.165,120 85.747,120 C83.888,120 76.107,112.987 74.652,110 C71.779,104.101 61.064,90 59.455,90 C57.367,90 55.847,86.369 56.192,82.208 C56.495,78.556 56.561,78.503 60.5,78.725 C63.625,78.901 65.117,79.667 67.321,82.225 C70.895,86.375 78.708,97.908 80.858,102.21 C83.323,107.141 85.254,106.851 87.73,101.18 C88.904,98.492 91.274,95.106 92.997,93.656 C95.341,91.684 96.059,90.324 95.848,88.26 C95.692,86.742 96.185,82.91 96.943,79.745 C98.057,75.091 98.101,72.22 97.172,64.745 C96.138,56.424 96.191,55.375 97.703,54.25 Z M128.228,154.039 C129.478,153.537 130.635,153.098 130.8,153.063 C131.918,152.827 138.278,156.988 142.279,160.574 C144.907,162.93 150.082,166.901 153.779,169.399 C166.973,178.316 169.937,180.639 181.977,191.5 C188.684,197.55 194.92,202.907 195.836,203.404 C197.347,204.224 201.162,207.349 209.5,214.595 C211.15,216.028 216.487,220.869 221.36,225.351 C226.233,229.833 230.7,233.676 231.285,233.892 C231.871,234.107 234.296,236.286 236.675,238.733 C241.879,244.088 242.389,247.763 238.365,250.927 C235.092,253.502 234.437,253.506 232.25,250.971 C228.873,247.057 220.446,238.772 213.629,232.665 C209.844,229.274 205.928,225.654 204.927,224.619 C203.926,223.584 202.231,222.234 201.16,221.619 C197.611,219.58 180.567,205.427 176.544,201.178 C174.368,198.88 172.192,197 171.708,197 C171.223,197 168.504,194.619 165.664,191.71 C162.824,188.8 157.575,184.304 154,181.718 C150.425,179.132 144.158,174.425 140.074,171.258 C135.99,168.091 131.378,164.959 129.825,164.299 C126.697,162.968 124.404,158.995 125.346,156.54 C125.681,155.666 126.978,154.541 128.228,154.039 Z M72.655,172.829 C74.785,170.475 77.242,170.504 79.42,172.911 C81.575,175.293 80.735,182.656 77.7,187.984 C76.599,189.918 74.586,193.621 73.226,196.214 C67.678,206.793 59.355,213.461 48.156,216.304 C41.573,217.974 38.53,217.548 36.097,214.617 C33.728,211.762 35.515,210.252 42.178,209.483 C46.832,208.946 49.602,207.964 52.676,205.76 C57.558,202.261 62.345,196.573 64.386,191.845 C65.18,190.005 66.993,185.9 68.415,182.723 C69.837,179.545 71,176.431 71,175.801 C71,175.172 71.745,173.835 72.655,172.829 Z"/>
</svg>

