<svg xmlns="http://www.w3.org/2000/svg" width="300" height="300" viewBox="0 0 300 300" version="1.1">
  <defs/>
  <path d="M92.712,5.25 C95.007,3.533 98.491,3.682 100.054,5.565 C101.136,6.869 100.906,8.416 98.676,14.845 C95.54,23.887 95.225,28 97.671,28 C98.59,28 100.069,27.343 100.956,26.54 C103.206,24.503 112.763,19.526 117.185,18.087 C121.84,16.572 128.257,18.101 130.463,21.251 C135.243,28.075 127.483,43 119.157,43 C115.801,43 115.57,40.655 118.424,35.544 C119.841,33.006 121,30.495 121,29.965 C121,28.111 114.467,29.053 110.5,31.479 C108.3,32.824 105.487,34.381 104.25,34.938 C103.013,35.495 102,36.637 102,37.475 C102,39.194 103.56,39.521 104.5,38 C105.492,36.394 109.556,36.847 111.227,38.75 C112.823,40.568 114.893,54.972 115.287,67 C115.474,72.713 115.749,73.536 117.555,73.794 C118.686,73.956 120.443,73.168 121.46,72.044 C124.478,68.709 129,69.982 129,74.165 C129,77.038 123.24,82.743 118.52,84.546 L114.132,86.221 L109.897,83.361 L105.662,80.5 L105.31,64 C104.913,45.42 103.272,38.583 100.33,43.25 C99.289,44.901 96.313,56.516 94.371,66.5 C93.516,70.9 92.182,75.918 91.408,77.651 C90.634,79.384 89.997,81.409 89.994,82.151 C89.99,82.893 89.279,84.85 88.412,86.5 C86.139,90.829 84.031,97.153 84.015,99.693 C83.999,102.038 80.605,105 77.932,105 C77.04,105 75.512,104.118 74.536,103.04 C72.542,100.836 72.876,98.055 75.921,91.5 C79.034,84.801 86.547,58.214 85.597,57.264 C85.32,56.986 83.556,58.388 81.678,60.38 C79.8,62.371 77.78,64 77.189,64 C75.417,64 68.826,59.876 63.5,55.435 C60.75,53.142 57.294,50.643 55.82,49.883 C52.996,48.426 48,41.843 48,39.578 C48,37.07 50.636,35.918 54.837,36.59 C58.205,37.129 60.107,38.498 65.984,44.62 C69.882,48.679 73.64,52 74.335,52 C76.065,52 77.996,49.93 78.02,48.05 C78.031,47.198 80.281,43.635 83.02,40.132 C85.759,36.63 88,32.722 88,31.447 C88,30.173 88.465,27.906 89.034,26.41 C89.603,24.914 90.287,19.823 90.555,15.095 C90.92,8.636 91.456,6.189 92.712,5.25 Z M126,234.627 C131.775,234.437 143.25,234.448 151.5,234.65 C159.75,234.853 180,234.928 196.5,234.818 C236.815,234.55 239.932,234.459 241.221,235.95 C241.388,236.143 241.524,236.362 241.706,236.611 C243.326,238.823 242.613,242.947 240.307,244.711 C239.098,245.636 228.401,245.799 195.112,245.399 C110.482,244.383 104.152,244.569 73.549,248.971 C67.068,249.903 66.443,249.825 64.299,247.811 C63.035,246.623 62,244.841 62,243.851 C62,240.575 65.986,239.332 82.5,237.461 C88.563,236.775 116.975,234.923 126,234.627 Z M124.012,101.712 C126.772,98.203 128.578,98.283 130.5,102 C132.183,105.255 133.546,105.62 137.423,103.853 C142.886,101.364 145.361,108.998 140.365,112.927 C138.916,114.067 137.264,115 136.694,115 C134.839,115 132,118.258 131.985,120.405 C131.977,121.557 131.321,124.3 130.529,126.5 C128.431,132.324 128.561,136 130.865,136 C131.891,136 133.874,135.1 135.273,134 C138.367,131.567 140.749,131.462 143.171,133.655 C145.291,135.573 145.543,138.896 143.75,141.279 C143.063,142.193 138.45,145.04 133.5,147.607 C128.55,150.174 120.279,154.463 115.119,157.137 C109.96,159.812 105.138,162 104.404,162 C101.67,162 99.827,154.395 101.806,151.279 C102.233,150.608 104.575,149.355 107.012,148.496 C114.484,145.859 117.539,141.871 119.952,131.602 C120.703,128.408 120.763,126.363 120.125,125.725 C118.724,124.324 114.638,125.592 111.183,128.5 C105.922,132.926 102,131.333 102,124.769 C102,122.018 102.494,120.765 103.75,120.328 C104.713,119.994 108.657,118.252 112.517,116.457 C119.123,113.385 119.602,112.938 120.706,108.809 C121.351,106.397 122.839,103.203 124.012,101.712 Z M123.36,159.062 C124.924,158.484 125.901,158.875 127.286,160.637 C128.3,161.926 128.848,163.436 128.504,163.993 C128.16,164.55 128.182,167.03 128.553,169.503 C129.391,175.095 130.702,175.226 137.686,170.416 C143.574,166.361 145.763,166.323 147.959,170.237 C149.341,172.698 149.33,173.219 147.848,175.662 C146.946,177.148 144.68,179.294 142.811,180.432 C140.942,181.569 137.746,183.557 135.707,184.849 L132,187.198 L131.956,198.349 C131.928,205.436 131.387,210.958 130.471,213.5 C129.679,215.7 129.015,218.4 128.996,219.5 C128.945,222.514 123.3,230.906 120.452,232.204 C116.788,233.873 115.144,231.956 117.351,228.587 C118.258,227.203 119,225.125 119,223.969 C119,222.814 119.467,220.996 120.038,219.929 C121.566,217.074 123.488,195.088 122.313,193.913 C121.697,193.297 120.118,193.781 117.926,195.257 C111.233,199.761 103.792,203.112 101.158,202.808 C98.865,202.542 98.457,201.976 98.185,198.68 C97.804,194.052 99.305,192 103.072,192 C104.627,192 107.9,190.65 110.345,189 C112.79,187.35 115.232,186 115.773,186 C118.319,186 119.335,182.512 119.503,173.2 C119.696,162.431 120.307,160.192 123.36,159.062 Z M70.2,186.2 C71.469,184.931 74.263,184.597 75.261,185.594 C75.588,185.921 74.99,187.609 73.932,189.344 C72.873,191.08 72.006,193.486 72.004,194.691 C72.002,195.896 71.63,197.111 71.178,197.39 C70.726,197.669 69.087,201.183 67.536,205.199 C65.985,209.215 64.159,213.175 63.477,214 C62.795,214.825 61.932,216.5 61.56,217.722 C60.689,220.582 50.152,230 47.823,230 C45.696,230 43.216,226.467 42.91,223 C41.995,212.645 44.138,208.625 48.232,213.018 L50.351,215.293 L52.426,212.689 C58.463,205.11 69,189.447 69,188.052 C69,187.693 69.54,186.86 70.2,186.2 Z M30.665,165.991 C32.234,164.231 33.002,163.364 33.9,163.198 C34.772,163.037 35.767,163.536 37.735,164.518 C39.936,165.616 41.467,165.773 43.273,165.086 C46.278,163.944 53.583,167.11 54.482,169.944 C55.687,173.738 54.188,174.774 47.439,174.813 C42.481,174.842 40.401,175.326 38.368,176.925 C34.988,179.584 32.591,179.551 30.039,176.811 C27.217,173.783 27.46,169.588 30.665,165.991 Z M49.694,128.026 C54.325,124.384 61.576,126.345 64.519,132.037 C66.002,134.905 65.953,135.195 63.417,138.52 C60.494,142.352 59.444,142.65 56.559,140.468 C55.491,139.661 53.364,139 51.832,139 C49.979,139 48.508,138.179 47.44,136.549 C45.481,133.559 46.223,130.757 49.694,128.026 Z"/>
</svg>

