<svg xmlns="http://www.w3.org/2000/svg" width="300" height="300" viewBox="0 0 300 300" version="1.1">
  <defs/>
  <path d="M179,81.704 C181.722,80.713 184.59,80.979 186.536,82.403 C188.316,83.704 188.346,84.036 186.951,86.982 C185.679,89.666 183.747,90.885 174.473,94.853 C164.373,99.175 163.527,99.745 163.838,102.024 C164.024,103.386 164.398,107.537 164.67,111.25 C164.942,114.963 165.579,118 166.087,118 C166.594,118 169.82,116.035 173.255,113.634 C180.56,108.529 184.322,107.471 189.871,108.965 C195.476,110.475 199.436,114.128 201.545,119.735 C203.793,125.71 204.703,145.662 202.943,150.352 C201.819,153.346 201.037,156.647 199.177,166.25 C198.269,170.936 196.238,177.542 194.877,180.236 C194.395,181.191 194,182.813 194,183.84 C194,186.114 189.655,191 187.633,191 C186.828,191 185.057,189.763 183.696,188.25 C182.336,186.738 179.369,183.475 177.102,181 C172.353,175.814 171.354,173.484 173.018,171.478 C174.028,170.262 174.59,170.254 176.853,171.424 C178.311,172.178 180.361,173.741 181.407,174.898 C183.997,177.759 185.671,177.538 186.293,174.25 C186.58,172.738 187.795,168.575 188.995,165 C193.2,152.468 194.01,149.475 194.005,146.493 C194.002,144.84 194.464,141.915 195.031,139.993 C196.325,135.607 194.468,124.716 191.749,120.75 C190.265,118.585 189.076,118 186.164,118 C182.003,118 177.773,120.532 170.05,127.646 L165.041,132.26 L164.577,174.88 C164.065,221.83 162.819,257.564 161.6,260.216 C161.167,261.161 160.517,268.811 160.156,277.216 L159.5,292.5 L156.5,292.5 C153.648,292.5 153.472,292.257 152.933,287.556 C152.62,284.837 152.721,276.512 153.156,269.056 C154.513,245.79 156.367,198.94 156.324,189 C156.251,172.198 155.047,139.713 154.475,139.142 C153.678,138.345 147.483,141.857 144.973,144.529 C143.041,146.585 142.746,148.544 141.861,165.15 C140.778,185.485 140.142,188.302 136.74,187.818 C134.514,187.502 134.496,187.361 133.921,164.5 C133.573,150.674 132.853,139.991 132.115,137.718 C131.44,135.637 131.026,132.037 131.194,129.718 C131.466,125.975 131.803,125.465 134.189,125.189 C137.526,124.804 141,128.023 141,131.5 C141,134.981 143.655,134.749 149.637,130.746 L154.5,127.492 L154.304,120.996 C154.196,117.423 153.815,112.138 153.457,109.25 C152.819,104.095 152.747,104 149.469,104 C147.632,104 145.088,104.389 143.815,104.864 C142.542,105.339 139.388,106.037 136.808,106.416 C132.502,107.048 131.976,106.893 130.426,104.527 C128.851,102.123 128.849,101.825 130.398,100.113 C131.4,99.005 135.322,97.599 140.28,96.569 C152.067,94.122 172.069,87.18 175,84.519 C176.375,83.271 178.175,82.004 179,81.704 Z M98.45,91.929 C99.746,90.662 101.363,90.763 102.8,92.2 C105.936,95.336 103.066,98.863 91.161,106.502 C84.888,110.528 83.918,111.523 84.484,113.356 C84.847,114.535 85.095,115.95 85.035,116.5 C83.589,129.665 83.616,129.733 88.49,125.01 C92.689,120.94 99.181,120.063 103.775,122.946 C109.295,126.41 110.08,131.372 106.265,138.7 C104.706,141.694 104.709,142.021 106.3,143.779 C108.734,146.469 108.469,147.361 104.113,151.134 C92.164,161.482 91.322,161.87 85.826,159.551 C84.346,158.926 84.113,159.871 83.82,167.672 C83.638,172.527 83.602,176.686 83.74,176.912 C84.054,177.428 87.066,175.918 93.5,172.017 C105.963,164.461 108.685,163.69 112.777,166.557 C115.399,168.393 115.76,173.31 113.593,177.669 C112.818,179.226 111.615,181.742 110.918,183.26 C110.221,184.778 105.242,190.603 99.852,196.203 C94.463,201.804 90.248,206.581 90.486,206.819 C90.723,207.057 94.424,206.697 98.709,206.019 C109.518,204.308 113.812,204.841 116.311,208.204 C119.498,212.49 117.703,213.448 103.787,214.887 C88.822,216.435 81.689,217.667 76.73,219.561 C71.567,221.532 71.403,221.487 68.584,217.338 L66.095,213.676 L68.548,210.761 C70.665,208.245 71,206.84 71,200.488 C71,196.441 71.497,191.863 72.105,190.315 C73.993,185.503 75.177,169.548 75.672,142.25 C76.016,123.26 76.261,116.796 74.304,116.042 C73.199,115.615 71.39,117.011 68.5,119 C63.162,122.673 61.722,122.733 59.095,119.393 C56.301,115.841 57.719,113.456 64.378,110.512 C67.242,109.245 73.392,105.977 78.043,103.249 C82.694,100.521 88.975,97.068 92,95.574 C95.025,94.08 97.927,92.44 98.45,91.929 Z M77.972,24.534 C79.55,22.632 79.878,22.633 84.491,24.56 L88.225,26.121 L87.68,32.31 C87.38,35.715 86.674,40.3 86.112,42.5 C83.688,51.982 83.687,52 85.383,52 C86.273,52 87.802,51.213 88.783,50.25 C89.764,49.288 92.126,47.306 94.033,45.848 C95.94,44.389 99.425,41.323 101.778,39.034 C105.035,35.865 106.703,34.947 108.769,35.186 C113.679,35.754 112.644,39.295 104.615,49.409 C101.921,52.802 101.838,53.164 103.365,54.851 C104.264,55.844 105,57.804 105,59.206 C105,60.608 105.675,62.315 106.5,63 C109.533,65.517 107.707,71 103.836,71 C101.653,71 97,64.355 97,61.236 C97,57.586 94.835,57.657 87.16,61.556 C80.153,65.115 76,68.874 76,71.655 C76,75.083 65.46,88.954 62.833,88.982 C59.572,89.017 59.816,86.965 64.259,77 C67.482,69.772 68.661,66.919 71.49,59.5 C72.958,55.65 74.573,51.719 75.08,50.764 C75.586,49.809 76,47.741 76,46.169 C76,44.596 76.859,42.532 77.909,41.582 C79.432,40.204 79.645,39.251 78.963,36.87 C78.492,35.228 78.368,33.206 78.686,32.375 C79.005,31.545 78.688,29.786 77.982,28.467 C76.942,26.524 76.94,25.777 77.972,24.534 Z M127.943,13.107 C129.396,10.392 134.068,10.313 136.466,12.962 C137.981,14.637 138.188,16.421 137.871,25.121 C137.634,31.64 137.877,35.445 138.545,35.673 C139.12,35.869 140.92,34.775 142.545,33.242 C151.052,25.217 155.987,23.239 158.022,27.04 C158.89,28.663 158.685,29.773 157.019,32.469 C155.867,34.333 154.383,36.039 153.722,36.259 C152.873,36.542 152.517,40.304 152.51,49.08 C152.501,60.656 152.37,61.5 150.581,61.5 C147.994,61.5 144,53.817 144,48.843 C144,43.662 142.449,43.903 136.435,50.017 C132.748,53.764 130.868,54.966 129,54.767 C126.9,54.543 126.451,53.91 126.193,50.81 C126.024,48.781 126.587,45.766 127.443,44.11 C129.325,40.472 129.698,18.098 127.907,16.307 C127.117,15.517 127.127,14.631 127.943,13.107 Z M97.976,179.846 C95.488,181.306 90.938,183.97 87.866,185.766 C80.035,190.346 79.284,191.465 78.813,199.25 C78.433,205.535 78.547,206 80.47,206 C83.774,206 92.051,197.964 98.261,188.727 C101.417,184.032 104,179.724 104,179.154 C104,177.067 102.4,177.251 97.976,179.846 Z M95,131.716 C94.175,132.036 92.228,133.356 90.673,134.649 C89.119,135.942 87.265,137 86.554,137 C85.837,137 84.986,138.671 84.642,140.75 C83.766,146.046 83.852,154 84.784,154 C85.216,154 86.429,152.537 87.479,150.75 C88.53,148.963 91.799,145.047 94.742,142.048 C98.818,137.897 100.023,135.991 99.797,134.057 C99.497,131.495 97.759,130.647 95,131.716 Z"/>
</svg>

