<svg xmlns="http://www.w3.org/2000/svg" width="300" height="300" viewBox="0 0 300 300" version="1.1">
  <defs/>
  <path d="M136.36,123.413 C142.959,120.34 146.111,120.381 149.923,123.589 C152.845,126.048 153,126.548 153,133.53 C153,137.574 152.55,141.16 152,141.5 C151.45,141.84 151,143.054 151,144.198 C151,145.343 149.65,148.473 148,151.154 C144.954,156.105 144.348,158 145.811,158 C147.432,158 151,162.126 151,164 C151,166.47 147.226,169.996 144.561,170.015 C143.428,170.023 141.375,170.674 140,171.463 C138.625,172.251 135.582,173.871 133.237,175.064 C130.893,176.257 128.729,177.63 128.428,178.116 C128.128,178.602 125.996,179.007 123.691,179.015 C121.386,179.024 118.899,179.412 118.165,179.877 C116.344,181.031 115.822,207 117.62,207 C118.277,207 121.893,204.976 125.657,202.502 C129.421,200.028 132.875,198.003 133.332,198.002 C133.79,198.001 137.241,196.65 141,195 C148.546,191.688 154.508,191.177 158.928,193.463 C162.236,195.173 163,196.772 163,201.979 C163,207.462 158.12,216.563 150.916,224.511 C145.167,230.856 144.862,231.426 146.558,232.666 C147.733,233.525 151.428,234.01 156.941,234.029 C162.408,234.048 168.028,234.779 172.5,236.054 C176.35,237.152 182.135,238.577 185.355,239.221 C194.185,240.987 196.793,246.58 189.625,248.379 C188.364,248.696 183.77,248.278 179.416,247.452 C158.363,243.456 136.847,243.567 124.795,247.735 C120.887,249.087 119.624,249.15 117.336,248.107 C114.427,246.782 114.284,246.867 111.436,251.592 C110.766,252.703 109.748,253.117 108.686,252.71 C107.221,252.148 107,250.31 107,238.687 C107,223.957 108.608,196.823 110.028,187.603 C110.528,184.36 110.632,181.213 110.26,180.611 C109.888,180.009 109.557,173.213 109.526,165.508 C109.494,157.804 108.887,147.999 108.176,143.719 C106.676,134.68 107.187,132 110.412,132 C114.608,132 117.149,137.325 116.993,145.788 C116.96,147.596 117.623,149.765 118.466,150.609 C119.549,151.692 120,154.178 120,159.071 C120,165.291 120.201,166 121.964,166 C124.098,166 136.631,154.747 138.112,151.5 C138.614,150.4 139.827,148.15 140.808,146.5 C143.344,142.231 145.377,135.424 144.667,133.574 C143.68,131.004 139.63,131.772 135.43,135.326 C125.227,143.961 120,146.036 120,141.45 C120,135.611 127.192,127.681 136.36,123.413 Z M126.491,75.373 C128.601,72.153 131.429,72.39 134.002,76.003 L136.14,79.006 L134.07,81.638 C129.913,86.922 132.724,92.487 137.353,88.138 C141.659,84.093 162.464,82.3 166.171,85.655 C170.036,89.153 167.913,95.434 159.548,105.25 C155.839,109.601 152.798,111.146 151.673,109.25 C151.428,108.838 152.5,105.8 154.055,102.5 C157.179,95.871 157.35,95.101 156.13,93.176 C155.441,92.09 154.613,92.135 151.523,93.426 C149.451,94.292 146.94,95 145.944,95 C143.935,95 117.576,108.239 109.096,113.508 C103.103,117.231 96,123.411 96,124.902 C96,126.769 91.855,127.159 88.571,125.601 C85.632,124.206 78.898,117.775 77.881,115.392 C77.026,113.388 69.192,108.999 66.446,108.985 C62.065,108.962 60.808,107.748 61.176,103.895 C61.496,100.542 61.566,100.496 66.859,100.194 C71.418,99.934 72.985,100.357 77.359,103.032 C80.442,104.919 84.018,108.343 86.292,111.589 C88.378,114.565 90.52,117 91.052,117 C91.584,117 92.803,116.023 93.76,114.829 C98.094,109.423 99.546,108.434 121.526,95.925 C127.958,92.264 128.578,91.49 127.258,88.77 C125.19,84.511 124.814,77.934 126.491,75.373 Z M81.667,13.667 C83.176,12.157 87.165,13.176 90.135,15.83 L93.302,18.659 L92.039,28.58 C91.344,34.036 90.144,39.821 89.372,41.435 C87.628,45.083 89.06,47.133 91.726,44.804 C92.702,43.952 95.075,42.512 97,41.604 C98.925,40.696 102.3,38.329 104.5,36.343 C110.964,30.51 113.001,29.389 114.07,31.079 C116.054,34.214 115.02,38.023 111,42.384 C108.8,44.771 107,46.958 107,47.244 C107,47.53 108.8,49.565 111,51.765 C115.092,55.857 116.107,59.493 113.8,61.8 C110.878,64.722 106.427,61.66 103.534,54.736 C101.795,50.575 101.217,50.412 95.5,52.471 C93.3,53.264 89.864,53.932 87.865,53.956 C83.987,54.003 81.917,56.057 80.68,61.088 C79.825,64.564 76.531,68.603 71.693,72.108 C63.577,77.987 61.957,74.612 68.677,65.823 C73.262,59.825 74.418,57.838 76.717,52 C79.391,45.206 80.311,41.993 81.226,36.25 C81.773,32.813 82.566,30 82.987,30 C83.994,30 83.015,20.78 81.878,19.55 C80.845,18.433 80.708,14.625 81.667,13.667 Z M134.973,11.532 C135.602,10.774 135.884,10.339 136.276,10.185 C136.828,9.97 137.597,10.312 139.857,11.1 C143.816,12.48 144.462,14.856 143.67,25.121 C143.336,29.455 143.386,32.997 143.781,32.993 C145.323,32.979 149.99,29.265 154.767,24.25 C160.069,18.684 161.416,18.037 162.393,20.582 C163.863,24.413 162.994,29.657 160.5,32 C157.732,34.6 157.428,36.776 159.161,41.57 C160.155,44.317 160.01,45.448 158.156,49.391 C154.947,56.217 151.71,55.292 150.413,47.178 C150.041,44.856 149.321,42.698 148.812,42.384 C146.788,41.133 142.8,43.283 137.445,48.511 C134.353,51.53 131.187,54 130.411,54 C128.774,54 128.424,48.474 130,47.5 C130.55,47.16 131,45.993 131,44.906 C131,43.819 131.613,41.933 132.363,40.715 C133.113,39.497 134.31,34.564 135.024,29.752 C136.091,22.557 136.089,20.3 135.011,17.035 C133.95,13.82 133.943,12.774 134.973,11.532 Z M143.5,203.98 C140.75,204.956 135.575,207.547 132,209.736 C128.425,211.924 123.138,214.912 120.25,216.375 L115,219.034 L115,228.017 C115,236.132 115.181,237 116.874,237 C122.793,237 130.888,231.592 144.568,218.5 C149.259,214.011 153.206,207.481 152.83,204.83 C152.412,201.878 150.029,201.661 143.5,203.98 Z"/>
</svg>

