<svg xmlns="http://www.w3.org/2000/svg" width="300" height="300" viewBox="0 0 300 300" version="1.1">
  <defs/>
  <path d="M136.886,110.637 C138.69,108.463 139.318,108.555 142.826,111.507 C144.528,112.939 146.194,115.618 146.714,117.757 C147.423,120.675 148.051,121.429 149.562,121.177 C150.628,121 153.975,120.474 157,120.01 C160.025,119.545 163.889,118.861 165.587,118.49 C168.016,117.959 169.265,118.324 171.449,120.203 C173.787,122.213 174.237,123.403 174.303,127.735 C174.373,132.415 173.569,134.976 169.669,142.5 C169.099,143.6 167.978,145.85 167.179,147.5 C166.379,149.15 164.033,152.552 161.964,155.059 C156.295,161.93 154.008,166.152 154.004,169.75 C154,173.222 155.842,174.1 157.908,171.611 C158.542,170.847 161.184,169.695 163.78,169.052 C171.076,167.242 180.368,162.346 182.832,159.013 C185.489,155.42 186.282,155.313 188.961,158.189 C191.391,160.797 191.523,163.095 189.489,167.381 C188.317,169.851 186.47,171.207 181.239,173.436 C177.533,175.016 172.612,177.139 170.305,178.154 C167.998,179.169 165.465,180 164.677,180 C163.889,180 162.685,180.675 162,181.5 C161.315,182.325 159.88,183 158.811,183 C156.296,183 150,187.798 150,189.714 C150,190.527 149.382,192.386 148.626,193.846 C147.87,195.306 146.561,199.2 145.718,202.5 C143.663,210.54 141.765,215.331 140.25,216.3 C139.563,216.74 138.998,218.09 138.996,219.3 C138.994,220.51 138.094,222.973 136.996,224.774 C135.898,226.575 135,228.605 135,229.285 C135,230.444 129.385,238.943 123.223,247.109 C117.254,255.019 104.022,263.99 100.383,262.594 C98.431,261.845 98.663,257.589 100.75,255.862 C101.713,255.065 103.792,253.766 105.371,252.973 C108.957,251.174 114.944,244.472 120.533,236 C125.247,228.853 127.312,224.529 131.036,214 C131.717,212.075 133.284,208.25 134.518,205.5 C138.092,197.534 138.367,196.078 136.438,195.338 C134.122,194.449 128.484,197.643 127.132,200.609 C125.611,203.947 121.682,205.632 118.645,204.248 C114.031,202.146 114.772,192 119.54,192 C120.216,192 121.472,190.929 122.33,189.619 C123.234,188.239 126.961,185.958 131.195,184.193 C136.044,182.171 138.6,180.535 138.797,179.324 C138.961,178.321 139.79,175.872 140.639,173.882 C141.868,171.005 142.114,167.096 141.842,154.784 C141.472,138.049 140.857,136 136.206,136 C130.025,136 127.8,129.189 133.087,126.455 C136.105,124.895 136.167,124.715 135.851,118.566 C135.633,114.319 135.969,111.742 136.886,110.637 Z M160.222,199.178 C160.894,198.506 162.131,198.223 162.972,198.548 C163.812,198.874 165.85,199.393 167.5,199.702 C169.15,200.011 171.625,201.254 173,202.464 C175.694,204.834 187.915,212.875 192,214.965 C193.375,215.669 195.625,217.245 197,218.467 C199.329,220.538 202.686,222.566 214,228.738 C216.475,230.088 219.068,231.658 219.761,232.228 C221.307,233.497 225.724,236.049 233.06,239.91 C236.118,241.52 239.21,243.549 239.932,244.418 C240.654,245.288 241.682,246 242.215,246 C242.749,246 246.262,248.363 250.023,251.25 C253.783,254.137 259.861,258.3 263.528,260.5 C275.595,267.738 278.467,270.247 278.818,273.858 C279.165,277.428 277.647,280 275.193,280 C272.347,280 265.102,275.898 264.479,273.933 C264.141,272.87 263.524,272 263.107,272 C262.691,272 259.815,270.087 256.717,267.75 C253.619,265.413 248.928,262.163 246.292,260.53 C243.656,258.896 239.553,256.083 237.173,254.28 C234.794,252.476 232.408,251 231.871,251 C231.334,251 227.206,248.596 222.697,245.659 C214.273,240.169 205.467,234.974 193.903,228.669 C190.274,226.691 186.732,224.382 186.03,223.536 C185.329,222.691 183.98,222 183.033,222 C182.085,222 180.495,221.1 179.5,220 C178.505,218.9 177.095,218 176.368,218 C175.641,218 174.324,216.898 173.441,215.551 C172.558,214.203 170.394,212.625 168.631,212.043 C164.782,210.773 159,204.916 159,202.286 C159,201.249 159.55,199.85 160.222,199.178 Z M77.714,118.619 C78.107,118.227 79.791,118.039 81.456,118.203 C83.95,118.448 84.862,119.299 86.63,123.035 C88.75,127.514 90.773,136.769 91.758,146.5 C92.235,151.207 91.665,166.688 88.868,225 C87.039,263.146 86.891,267.853 85.092,268.604 C84.762,268.742 84.376,268.747 83.914,268.801 C78.502,269.43 78.496,269.361 80.218,226.679 C81.087,205.131 81.71,176.7 81.602,163.5 C81.426,141.755 81.201,138.889 79.217,133 C77.037,126.533 76.352,119.981 77.714,118.619 Z M67.34,37.768 C69.534,36.373 73.693,37.003 75.506,39.007 C77.838,41.584 78.471,53.364 76.371,55.107 C74.667,56.521 74.427,69 76.104,69 C77.667,69 89.206,59.2 90.458,56.809 C91.031,55.715 92.707,54.099 94.183,53.219 C96.358,51.921 97.352,51.839 99.433,52.788 C101.563,53.758 102,54.635 102,57.936 C102,61.285 101.446,62.357 98.5,64.707 C94.534,67.872 94.225,69.161 96.821,71.711 C99.408,74.252 102.19,82.324 101.817,86.208 C101.569,88.78 100.99,89.572 99.168,89.83 C97.885,90.012 95.937,89.348 94.84,88.355 C92.643,86.367 89,79.005 89,76.555 C89,74.109 87.06,74.713 82.928,78.446 C79.723,81.341 78.578,81.806 75.768,81.35 C72.602,80.836 72.265,81.081 69.461,85.944 C67.833,88.769 65.146,93.425 63.49,96.29 C59.868,102.561 53.946,109 51.801,109 C50.945,109 49.682,108.322 48.994,107.493 C47.967,106.255 48.213,105.277 50.372,102.014 C51.817,99.83 53,97.221 53,96.216 C53,95.211 54.125,92.864 55.5,91 C56.875,89.136 58,86.799 58,85.806 C58,84.813 58.45,84 59,84 C59.55,84 60,82.677 60,81.059 C60,79.441 60.408,77.866 60.906,77.558 C61.405,77.25 62.13,74.636 62.517,71.749 C62.905,68.862 63.799,65.096 64.505,63.381 C65.584,60.758 66.219,52.32 66.188,41.003 C66.184,39.63 66.703,38.174 67.34,37.768 Z M117.247,28.153 C118.896,26.504 122.957,27.554 125.59,30.311 C127.924,32.755 131,43.088 131,48.485 C131,50.418 131.382,52 131.85,52 C134.181,52 146.536,41.125 151.059,35.093 C153.178,32.265 154.052,31.796 156.196,32.334 C157.617,32.691 159.013,33.592 159.299,34.336 C160.435,37.297 151.767,51.397 146.62,54.962 C138.591,60.523 125.998,73.322 125.999,75.921 C126.001,80.635 120.731,83.791 118.117,80.641 C116.981,79.272 117.539,73.664 119.884,62.89 C121.04,57.579 120.467,42.741 119,40 C118.454,38.98 118.251,37.509 118.549,36.733 C118.847,35.956 118.396,34.743 117.546,34.038 C115.68,32.49 115.546,29.854 117.247,28.153 Z M56.667,170.667 C57.934,169.399 64.755,170 65.99,171.489 C67.325,173.096 68.306,183.696 67.275,185.364 C66.929,185.924 66.586,189.734 66.512,193.83 C66.391,200.63 66.141,201.482 63.634,203.639 C60.475,206.356 59.249,206.503 56.584,204.486 C54.846,203.171 54.788,202.674 55.959,199.125 C56.669,196.973 56.937,194.707 56.555,194.089 C56.173,193.471 56.407,189.573 57.076,185.428 C57.99,179.764 58.007,177.607 57.146,176.746 C55.897,175.497 55.6,171.733 56.667,170.667 Z M141.313,61.626 C142.309,59.03 146.649,59.968 150.685,63.652 C151.379,64.286 153.487,65.756 155.369,66.919 C158.926,69.117 160.532,72.747 159.454,76.146 C158.89,77.922 158.252,78.053 153.163,77.436 C150.048,77.058 147.498,76.693 147.497,76.625 C147.495,76.556 146.552,75.15 145.402,73.5 C142.559,69.422 140.555,63.603 141.313,61.626 Z M93.569,184.326 C94.566,183.597 96.203,183 97.206,183 C100.762,183 111.219,186.407 111.727,187.731 C112.551,189.877 109.148,192.799 105.01,193.498 C97.652,194.741 88.909,187.733 93.569,184.326 Z M155,131.874 C152.56,132.573 152.5,132.819 152.5,142.031 C152.5,149.642 152.791,151.523 154,151.731 C154.899,151.886 156.169,150.49 157.17,148.245 C158.089,146.185 159.814,142.387 161.004,139.806 C162.194,137.224 163.014,134.299 162.825,133.306 C162.449,131.321 159.08,130.704 155,131.874 Z"/>
</svg>

