<svg xmlns="http://www.w3.org/2000/svg" width="300" height="300" viewBox="0 0 300 300" version="1.1">
  <defs/>
  <path d="M133.51,47.983 C134.393,46.556 138.315,46.779 140.506,48.381 C141.996,49.47 142.339,50.815 142.13,54.748 C141.784,61.28 143.38,61.884 150.686,57.986 C159.266,53.407 166.887,53.932 172.608,59.496 C173.763,60.619 175.047,64.203 177.179,72.25 C177.871,74.862 178.988,77 179.661,77 C180.335,77 182.471,76.065 184.408,74.922 C189.415,71.968 205.764,70.96 209.455,73.379 C212.335,75.265 212.717,78.468 210.425,81.5 C209.124,83.221 207.697,83.509 200.206,83.566 C192.155,83.626 190.9,83.927 183.533,87.566 C175.801,91.384 173.917,93.218 171.05,99.723 C170.511,100.946 168.479,104.259 166.535,107.086 C162.724,112.625 161.952,115.616 164.593,114.603 C170.438,112.36 175,113.373 175,116.915 C175,119.527 167.413,125.391 161.5,127.349 C158.75,128.26 155.037,129.897 153.25,130.988 C150.337,132.765 150,133.45 150,137.602 C150,139.55 149.829,140.786 150.364,141.336 C151.301,142.301 154.409,141.158 164.412,138.054 C178.463,133.696 183.76,133.212 187.25,135.971 C192.959,140.484 189.01,145.15 179.207,145.477 C173.472,145.668 156.621,150.734 152.25,153.581 C150.14,154.955 150,155.736 150,166.137 L150,177.227 L152.75,176.682 C154.262,176.382 164.275,173.593 175,170.484 C185.725,167.374 197.65,164.155 201.5,163.329 C210.247,161.453 218.095,159.422 224.268,157.438 C226.891,156.594 229.366,156.114 229.768,156.37 C230.171,156.625 231.367,158.463 232.427,160.454 C234.162,163.713 234.201,164.227 232.815,165.613 C231.936,166.493 228.109,167.546 223.888,168.07 C219.825,168.575 215.37,169.45 213.989,170.016 C212.609,170.582 207.434,172.128 202.489,173.453 C197.545,174.777 190.8,176.736 187.5,177.805 C184.2,178.874 178.35,180.481 174.5,181.377 C164.294,183.752 152.087,187.504 151.088,188.573 C150.611,189.083 149.983,200.975 149.691,215 C149.4,229.025 148.697,242.075 148.13,244 C147.258,246.96 145.825,276.862 145.699,294.75 L145.662,300 L136.683,300 L137.351,280.25 C137.718,269.387 138.455,257.575 138.989,254 C139.523,250.425 139.97,239.4 139.983,229.5 C139.995,219.6 140.495,207.513 141.092,202.639 C142.376,192.173 141.774,190.829 136.736,192.907 C123.13,198.518 102.033,204.948 80,210.198 C66.721,213.362 66.642,213.367 64.637,211.152 C60.572,206.66 65.428,203.346 81.5,199.642 C85.35,198.755 92.421,197.122 97.214,196.014 C102.006,194.907 106.86,194 107.999,194 C109.138,194 111.067,193.358 112.285,192.573 C113.503,191.788 119.225,189.299 125,187.043 C130.775,184.786 137.003,182.186 138.84,181.264 L142.18,179.588 L141.489,170.544 C141.11,165.57 140.436,161.114 139.992,160.642 C138.887,159.469 132.625,161.651 130.565,163.928 C129.643,164.946 126.102,167.112 122.695,168.74 C107.42,176.038 105.184,177.127 103.255,176.728 C102.89,176.653 102.536,176.525 102.108,176.375 C100.378,175.77 99.4,174.614 99.204,172.942 C98.939,170.688 99.839,169.949 107.704,165.96 C112.542,163.507 119.65,159.448 123.5,156.939 C127.35,154.431 132.181,151.6 134.236,150.649 C138.344,148.747 140,146.444 140,142.633 C140,139.089 136.814,138.398 130.448,140.562 C125.442,142.264 125.056,142.266 122.531,140.612 C118.894,138.23 119.497,135.003 124,132.745 C125.925,131.779 130.2,129.754 133.5,128.245 C140.231,125.166 140.64,124.282 139.513,115.26 C138.704,108.786 137.137,107.866 132.938,111.399 C131.238,112.829 128.938,114 127.828,114 C126.717,114 124.614,114.843 123.154,115.874 C120.367,117.842 110.331,120.392 100.948,121.516 C96.595,122.037 95.121,121.851 94.128,120.654 C91.271,117.212 96.088,113.29 106,110.987 C120.3,107.665 122.661,106.635 133.963,98.793 L137.864,96.086 L137.369,90.293 C136.566,80.892 136.234,80 133.54,80 C132.208,80 130.894,80.362 130.62,80.806 C130.346,81.249 127.655,82.859 124.639,84.385 C117.974,87.758 114.627,87.592 114.195,83.868 C113.833,80.743 118.096,76.827 127.06,72.049 C133.235,68.757 134.569,66.932 132.975,63.953 C131.956,62.049 132.365,49.836 133.51,47.983 Z M89.305,7.647 C90.368,4.877 95.731,5.577 99.077,8.923 C101.793,11.639 102,12.382 102,19.423 C102,23.59 102.338,26.99 102.75,26.979 C103.162,26.967 106.439,25.054 110.032,22.729 C121.412,15.361 125.767,13.364 127.747,14.604 C130.647,16.42 130.474,20.48 127.373,23.355 C125.118,25.446 124.797,26.305 125.566,28.198 C126.08,29.464 126.275,35.45 126,41.5 C125.546,51.495 125.325,52.5 123.586,52.5 C120.328,52.5 116.689,43.506 116.542,35.092 C116.479,31.512 114.851,31.58 110.45,35.346 C108.277,37.205 104.925,39.676 103,40.836 C101.055,42.009 97.934,45.513 95.975,48.723 C93.211,53.254 91.917,54.5 89.975,54.5 C87.16,54.5 86.121,51.211 87.797,47.601 C91.665,39.267 92.987,18.842 90.075,12.397 C89.304,10.691 88.957,8.554 89.305,7.647 Z M149.185,17.259 L149.5,0.017 L154.25,0.009 L159,0 L159,11.5 C159,18.408 159.395,23 159.988,23 C160.532,23 165.676,19.811 171.421,15.914 C182.315,8.523 185.323,7.703 185.744,12.009 C186.026,14.902 184.91,16.447 179.75,20.301 C174.909,23.917 174.96,26.278 180.012,32.392 C187.514,41.47 186.072,46.876 177.315,42.507 C174.522,41.114 172.737,38.446 170.118,31.75 C168.839,28.479 166.989,28.249 164.458,31.047 C163.439,32.172 161.178,33.771 159.433,34.599 C157.463,35.533 155.391,37.796 153.966,40.566 C151.353,45.647 149.552,47.459 148.044,46.527 C146.747,45.726 146.659,36.746 147.935,35.45 C148.449,34.928 149.012,26.741 149.185,17.259 Z M150.956,69.254 C145.785,72.337 145.483,72.74 145.182,76.974 C144.847,81.668 146.617,89.645 148.211,90.63 C148.726,90.949 153.39,89.132 158.574,86.592 L168,81.975 L168,75.643 C168,70.778 167.576,68.926 166.171,67.655 C163.167,64.936 157.133,65.57 150.956,69.254 Z M155,98.43 C149.12,102.315 148.236,103.917 147.853,111.377 C147.566,116.962 147.813,118.455 149.166,119.319 C151.67,120.919 154,118.461 154,114.222 C154,111.994 154.924,109.478 156.5,107.411 C157.875,105.608 159,103.709 159,103.189 C159,102.67 159.675,101.685 160.5,101 C162.591,99.265 162.425,95.986 160.25,96.059 C159.287,96.091 156.925,97.158 155,98.43 Z M34,238.5 C34,237.125 34.45,236 35,236 C35.55,236 36,237.125 36,238.5 C36,239.875 35.55,241 35,241 C34.45,241 34,239.875 34,238.5 Z"/>
</svg>

