<svg xmlns="http://www.w3.org/2000/svg" width="300" height="300" viewBox="0 0 300 300" version="1.1">
  <defs/>
  <path d="M112.5,84.741 C114.15,84.509 118.737,84.248 122.693,84.16 C132.32,83.946 136.07,86.095 139.623,93.862 C142.316,99.747 142.454,104.425 140.233,114.536 C139.33,118.647 134.522,129.075 131.028,134.5 C129.966,136.15 128.506,138.624 127.785,139.998 C126.76,141.953 124.083,143.321 115.487,146.284 C102.512,150.757 96.712,151.002 96.161,147.101 C95.654,143.517 98.062,139.87 102,138.256 C106.399,136.453 113,130.177 113,127.797 C113,125.534 109.735,125.41 107.914,127.604 C107.181,128.486 105.583,129.588 104.363,130.052 C102.942,130.592 102.027,131.905 101.821,133.698 C101.594,135.679 100.867,136.59 99.342,136.808 C97.683,137.044 96.343,135.849 93.556,131.65 C91.561,128.645 89.27,125.639 88.464,124.971 C87.659,124.302 87,123.066 87,122.224 C87,120.169 77.259,109.918 73.5,108.017 C70.852,106.678 70.5,105.984 70.5,102.109 C70.5,95.975 72.499,94.872 78.413,97.745 C80.885,98.946 83.712,101.182 84.694,102.715 C87.607,107.254 90.718,110.293 91.78,109.636 C92.326,109.298 93.08,107.387 93.455,105.388 C94.144,101.717 94.448,100.924 97.244,95.5 C99.128,91.845 108.384,85.318 112.5,84.741 Z M93,1.878 C93,0.124 93.994,0 108.073,0 L123.147,0 L120.073,5.372 C118.383,8.326 117,11.265 117,11.903 C117,14.487 120.06,13.941 124.478,10.569 C129.68,6.598 131.131,6.274 133.429,8.571 C137.211,12.354 134.129,17.116 124.744,21.993 C122.128,23.353 119.72,25.307 119.393,26.336 C118.228,30.009 116.949,39.642 116.452,48.5 C116.175,53.45 115.284,59.197 114.474,61.27 C113.663,63.344 113,66.078 113,67.346 C113,68.614 111.954,70.634 110.675,71.836 C108.834,73.565 107.636,73.886 104.925,73.378 C101.167,72.674 96,68.485 96,66.142 C96,63.831 92.929,61 90.422,61 C87.573,61 82.434,65.256 80.316,69.369 C79.429,71.091 76.919,74.236 74.739,76.359 C71.235,79.768 70.495,80.091 68.387,79.13 C64.707,77.454 65.031,71.302 69,67.5 C70.65,65.919 72,64.214 72,63.71 C72,63.206 74.034,60.531 76.521,57.766 C80.482,53.36 80.966,52.335 80.431,49.483 C80.07,47.56 80.266,45.954 80.91,45.556 C81.51,45.185 82,43.806 82,42.492 C82,40.946 83.208,39.18 85.421,37.493 C87.302,36.058 90.687,31.872 92.944,28.192 C95.201,24.511 98.913,18.859 101.193,15.631 C105.991,8.84 105.633,6.5 99.794,6.5 C95.81,6.5 93,4.588 93,1.878 Z M123.217,148.561 C125.44,147.004 127.611,147.608 131.272,150.803 C132.873,152.201 133.382,152.188 136.556,150.675 C143.48,147.373 149,148.649 149,153.55 C149,157.227 146.163,160 142.4,160 C138.081,160 133.065,162.886 132.394,165.756 C131.118,171.219 127.822,180.416 126.427,182.408 C125.642,183.528 125,185.298 125,186.34 C125,187.383 123.65,189.774 122,191.653 C120.35,193.532 119,195.531 119,196.094 C119,196.658 117.33,199.117 115.288,201.56 C112.136,205.331 111.024,206 107.911,206 C102.325,206 101.605,204.395 101.374,191.435 C101.262,185.193 100.881,179.616 100.526,179.043 C99.703,177.711 96,177.676 96,179 C96,179.55 95.135,180 94.077,180 C93.019,180 90.881,181.067 89.327,182.371 C87.772,183.674 84.965,185.076 83.088,185.486 C81.212,185.895 77.162,187.538 74.088,189.137 C63.932,194.42 58,193.986 58,187.959 C58,184.815 61.58,182.117 68.5,180.045 C75.318,178.003 96.942,166.978 97.998,165.004 C98.549,163.974 99,161.318 99,159.101 C99,156.052 99.503,154.801 101.064,153.966 C103.706,152.552 105.542,153.96 106.354,158.022 C106.817,160.334 107.487,161 109.353,161 C110.674,161 112.317,160.323 113.003,159.496 C113.69,158.669 115.657,157.63 117.376,157.188 C119.945,156.527 120.555,155.82 120.812,153.205 C120.992,151.378 122.015,149.403 123.217,148.561 Z M144.375,193.949 C152.877,189.686 154.562,189.351 157.25,191.392 C161.593,194.689 156.663,201.87 148.961,203.466 C147.058,203.86 143.822,205.267 141.771,206.591 C139.721,207.916 137.617,209 137.096,209 C136.575,209 132.427,210.8 127.877,213 C123.328,215.2 119.054,217 118.38,217 C117.705,217 115.881,218.063 114.327,219.363 C112.772,220.663 110.375,222.063 109,222.474 C107.625,222.886 105.15,223.773 103.5,224.447 C94.623,228.069 84.112,231 79.998,231 C78.401,231 76.06,231.407 74.797,231.905 C73.534,232.402 69.935,233.369 66.8,234.052 C61.798,235.143 60.788,235.091 58.55,233.625 C56.751,232.446 56,231.067 56,228.941 C56,226.315 56.588,225.677 60.583,223.964 C63.104,222.884 65.916,222.003 66.833,222.007 C74.486,222.037 99.785,215.442 105.618,211.896 C107.333,210.853 109.322,210 110.038,210 C111.276,210 127.328,202.497 144.375,193.949 Z M139.641,239.239 C140.933,238.271 143.483,237.965 148,238.236 C153.303,238.554 156.526,239.591 165.5,243.87 C171.55,246.754 177.85,249.713 179.5,250.445 C190.428,255.294 197.485,259.249 204.488,264.451 C213.526,271.164 231,285.969 231,286.913 C231,287.254 233.25,289.993 236,293 C238.75,296.007 241,298.812 241,299.234 C241,299.655 238.13,300 234.621,300 C228.493,300 228.194,299.884 227.014,297.033 C226.338,295.402 224.989,293.814 224.015,293.505 C223.042,293.196 220.238,290.818 217.784,288.222 C215.33,285.625 211.205,281.925 208.616,280 C206.028,278.075 201.568,274.56 198.705,272.189 C193.785,268.114 189.576,265.819 175.5,259.539 C172.2,258.066 165.9,255.143 161.5,253.042 C157.1,250.942 150.128,248.16 146.006,246.861 C137.984,244.334 136.005,241.964 139.641,239.239 Z M88.837,235.25 C92.994,230.756 93.966,230.376 97.066,232.035 C99.731,233.462 99.486,236.618 96.421,240.356 C93.014,244.509 90.766,247.375 85.705,254.021 C83.392,257.057 80.6,260.469 79.5,261.602 C78.4,262.735 74.19,267.304 70.145,271.754 C61.32,281.462 58.476,282.951 52.632,280.925 C50.168,280.071 48.382,278.769 48.173,277.676 C47.756,275.494 50.666,272.002 52.905,271.996 C53.782,271.994 55.878,271.152 57.563,270.125 C62.062,267.381 76.219,252.425 80.873,245.5 C83.091,242.2 86.675,237.588 88.837,235.25 Z M138.5,51.721 C147.45,51.254 151.254,52.089 154.75,55.289 C157.711,58 157.599,61.492 154.45,64.641 C151.425,67.666 147.984,67.269 143.945,63.429 C141.991,61.571 140.297,61 136.734,61 C133.232,61 131.573,60.458 130.039,58.811 C128.918,57.608 128,56.109 128,55.48 C128,53.554 132.203,52.049 138.5,51.721 Z M101.525,40.112 C99.515,41.877 96.46,44.077 94.737,45.001 C88.91,48.127 88.99,49.208 95.602,56.625 C98.91,60.336 102.123,63.541 102.741,63.747 C104.657,64.386 105.976,60.453 106.404,52.822 C106.63,48.795 107.121,44.125 107.494,42.444 C107.971,40.294 107.729,39.02 106.676,38.146 C105.441,37.121 104.541,37.464 101.525,40.112 Z M103.25,102.952 C97.091,108.768 97,108.933 97,114.227 C97,121.859 100.487,124.847 102.664,119.08 C103.362,117.231 105.293,115.381 107.932,114.035 C112.689,111.608 112.672,111.642 113.324,103.25 C113.782,97.361 113.686,97.001 111.655,97.025 C110.42,97.039 106.831,99.57 103.25,102.952 Z M116.294,168.326 C111.5,170.082 110.942,171.081 110.822,178.13 C110.719,184.199 112.063,189 113.866,189 C115.532,189 119.369,178.855 120.579,171.25 C121.308,166.671 121.135,166.553 116.294,168.326 Z M124.526,117.95 C122.394,122.073 122.55,125 124.902,125 C126.826,125 129,120.677 129,116.851 C129,113.984 126.224,114.666 124.526,117.95 Z M126.649,97.473 C126.128,98.829 129.332,102 131.223,102 C132.663,102 132.015,99.324 130.171,97.655 C127.924,95.621 127.37,95.592 126.649,97.473 Z"/>
</svg>

