<svg xmlns="http://www.w3.org/2000/svg" width="300" height="300" viewBox="0 0 300 300" version="1.1">
  <defs/>
  <path d="M160.607,154.582 C160.941,153.712 162.273,153 163.568,153 C167.735,153 171.987,159.654 169,161.5 C167.311,162.544 167.89,166.59 170,168.5 C173.152,171.353 172.57,175.597 168.5,179.435 C166.243,181.564 165,183.66 165,185.338 C165,186.768 164.1,189.542 163,191.5 C161.9,193.458 161,195.722 161,196.53 C161,197.339 160.637,198 160.192,198 C159.166,198 156,205.106 156,207.409 C156,208.512 156.626,209.026 157.716,208.816 C159.222,208.526 160.335,206.882 163.004,201 C163.378,200.175 164.904,198.901 166.396,198.17 C168.726,197.027 169.458,197.07 171.607,198.478 C175.025,200.718 175.523,202.55 173.733,206.305 C170.262,213.589 169.813,215.165 168.338,225.25 C167.59,230.37 169.885,230.256 174.961,224.92 C177.739,222 179.501,220.934 181.161,221.17 C184.247,221.609 184.615,224.327 182.072,227.899 C180.932,229.499 180,231.489 180,232.321 C180,233.153 179.662,233.983 179.25,234.167 C178.838,234.35 176.564,237.1 174.197,240.278 C170.161,245.697 169.809,246.699 168.531,256.436 C167.782,262.145 166.681,267.728 166.084,268.843 C165.488,269.957 165,272.255 165,273.95 C165,276.478 165.584,277.28 168.25,278.41 C172.481,280.204 182.424,282 188.127,282 C190.605,282 195.078,282.435 198.066,282.966 C201.055,283.497 213.85,284.844 226.5,285.959 C254.491,288.425 261.294,289.563 263.654,292.17 C265.27,293.956 265.296,294.383 263.933,296.818 C262.068,300.153 259.66,300.532 249.5,299.087 C235.281,297.065 214.043,294.938 197.576,293.887 C164.055,291.749 163.159,291.804 153.749,296.586 C147.994,299.51 147.532,299.532 145,297 C141.018,293.018 143.064,285.627 148.959,282.702 C153.432,280.482 156.984,274.05 158.485,265.451 C159.995,256.798 159.379,254.658 155.989,256.775 C153.483,258.34 148.753,258.353 147.2,256.8 C145.75,255.35 145.595,247.368 147,246.5 C147.55,246.16 148,244.81 148,243.5 C148,242.19 148.45,240.84 149,240.5 C149.55,240.16 150,238.614 150,237.063 C150,235.513 150.675,233.685 151.5,233 C152.325,232.315 153,230.937 153,229.937 C153,228.936 153.45,227.84 154,227.5 C155.685,226.459 155.143,221.988 153.25,221.317 C149.492,219.984 148,217.735 148,213.404 C148,211.047 148.398,208.872 148.885,208.571 C149.371,208.271 149.998,206.781 150.277,205.262 C150.938,201.671 154.992,190.775 156.123,189.55 C157.764,187.772 157.006,186.167 153.5,184 C149.778,181.7 149.145,179.645 151.367,177.079 C156.934,170.652 160,164.796 160,160.592 C160,158.156 160.273,155.452 160.607,154.582 Z M127.479,107.292 C132.276,104.706 134.685,104.041 139.327,104.023 C144.449,104.003 145.507,104.353 148.077,106.923 C150.79,109.636 151,110.387 151,117.37 C151,123.996 150.558,125.812 147.296,132.59 C145.258,136.823 141.503,142.584 138.951,145.393 C136.399,148.202 134.017,151.699 133.658,153.164 C132.411,158.254 119.38,166.262 108.5,168.626 C99.176,170.652 96.564,170.422 94.965,167.435 C93.05,163.857 94.67,161.723 100.102,160.67 C104.599,159.798 109,156.675 109,154.356 C109,153.644 108.1,151.458 107,149.5 C105.9,147.542 105,144.693 105,143.17 C105,140.52 103.457,138 101.835,138 C101.414,138 99.456,139.417 97.483,141.149 C95.455,142.93 93.546,143.907 93.088,143.399 C91.26,141.37 94.249,135.815 100.163,130.247 C103.52,127.086 106.769,123.924 107.384,123.221 C114.244,115.363 117.933,112.438 127.479,107.292 Z M81.035,175.934 C82.623,172.968 88.969,173.333 91.291,176.523 C92.801,178.599 92.914,179.605 92.014,182.95 C91.426,185.131 90.547,187.162 90.06,187.463 C89.573,187.764 88.871,189.806 88.5,192 C88.129,194.194 87.415,196.243 86.913,196.554 C86.411,196.864 86,197.998 86,199.073 C86,200.148 85.607,201.809 85.126,202.764 C79.839,213.27 79.458,215.637 83.214,214.654 C85.862,213.962 89.818,215.852 90.551,218.16 C90.875,219.181 90.598,222.439 89.935,225.401 C89.272,228.363 89.021,231.946 89.376,233.364 C89.952,235.655 90.307,235.834 92.577,234.971 C99.964,232.162 105.985,234.841 106.793,241.295 C108.195,252.499 108.167,253.616 106.449,255.042 C104.904,256.324 104.266,255.94 100.116,251.234 C97.577,248.355 95.016,245.999 94.425,246 C93.833,246 90.752,248.017 87.577,250.483 C81.633,255.098 79.118,255.356 77.64,251.504 C76.767,249.229 78.022,240.849 79.62,238.285 C81.62,235.076 81.33,234 78.469,234 C76.972,234 75.672,234.715 75.288,235.75 C73.747,239.901 64.242,246.275 60.271,245.818 C55.549,245.276 56.004,240.732 61.909,229.48 C64.676,224.208 67.853,218.611 68.97,217.043 C70.086,215.474 71,213.735 71,213.177 C71,212.619 71.633,210.888 72.407,209.331 C74.444,205.236 75.633,202.036 76.807,197.5 C77.376,195.3 78.327,191.648 78.921,189.384 C79.514,187.12 80,183.603 80,181.568 C80,179.533 80.466,176.998 81.035,175.934 Z M130.245,163.25 C131.717,161.41 134.443,161.727 136.478,163.975 C137.914,165.562 138.132,166.891 137.586,170.725 C137.211,173.351 136.672,177.975 136.387,181 C136.102,184.025 135.479,187.4 135.002,188.5 C134.526,189.6 133.897,191.85 133.605,193.5 C133.313,195.15 132.792,197.884 132.449,199.576 C131.972,201.922 132.438,203.557 134.412,206.466 C135.835,208.563 137,211.251 137,212.44 C137,213.628 137.55,215.15 138.221,215.821 C139.151,216.751 139.349,225.32 139.05,251.771 C138.835,270.872 138.722,289.538 138.8,293.25 L138.942,300 L134.721,300.001 L130.5,300.001 L130.815,261.307 C131.009,237.562 130.754,221.818 130.156,220.556 C129.62,219.425 128.93,217.713 128.622,216.75 C127.849,214.33 126.369,214.561 123.813,217.5 C121.099,220.621 119.477,220.658 117.5,217.641 C115.751,214.97 115.953,214.106 120.477,204.952 C124.07,197.684 124.208,197.125 127.16,178 C128.306,170.575 129.694,163.938 130.245,163.25 Z M122.667,36.667 C123.995,35.339 127.671,36.045 129.811,38.039 C131.806,39.897 132,41.051 132,51.039 C132,57.068 132.365,62 132.811,62 C133.91,62 136.733,59.243 141.353,53.658 C145.627,48.492 149.154,47.55 151.038,51.071 C152.457,53.722 150.952,58.321 147.553,61.72 C145.282,63.99 145.138,64.695 145.684,70.84 C146.009,74.503 146.682,78.294 147.18,79.264 C148.364,81.571 147.206,87.584 145.268,89.193 C143.989,90.254 143.283,89.904 140.872,87.016 C139.293,85.124 138,82.798 138,81.847 C138,80.896 137.55,79.84 137,79.5 C136.45,79.16 136,77.784 136,76.441 C136,75.098 135.641,74 135.203,74 C133.714,74 127.413,81.483 125.704,85.281 C124.769,87.36 123.282,89.338 122.401,89.677 C118.809,91.055 118.116,85.191 120.432,73.023 C124.335,52.519 124.882,46.663 123,45.5 C121.888,44.813 121.62,37.714 122.667,36.667 Z M78.507,51.33 C80.009,47.735 82.386,46.956 83.443,49.713 C84.212,51.716 83.214,66.14 82.005,70.5 C81.548,72.15 80.894,75.862 80.552,78.75 C79.727,85.726 81.492,85.707 86.328,78.686 C88.341,75.763 91.003,72.42 92.244,71.258 C93.485,70.096 96.288,67.312 98.473,65.072 C102.985,60.448 103.962,60.196 106.5,63 C108.187,64.864 108.198,65.124 106.655,66.829 C105.745,67.835 105,69.121 105,69.688 C105,70.255 103.13,72.843 100.844,75.44 L96.688,80.161 L98.859,86.831 C101.431,94.735 101.484,95.6 99.448,96.382 C97.839,96.999 93,94.409 93,92.93 C93,92.469 91.87,90.961 90.49,89.581 C87.8,86.891 85.579,87.05 83.974,90.048 C83.441,91.045 82.006,92.004 80.786,92.18 C78.696,92.481 77.552,94.082 75.198,100 C72.221,107.486 70.772,109.938 68.991,110.503 C67.906,110.847 66.607,110.875 66.104,110.564 C64.869,109.801 65.962,101.982 67.646,99.527 C68.391,98.443 69,96.557 69,95.337 C69,94.116 69.395,92.874 69.879,92.575 C70.362,92.276 71.017,89.437 71.335,86.266 C71.653,83.095 72.356,78.25 72.897,75.5 C73.438,72.75 73.908,67.518 73.94,63.872 C73.983,59.148 74.447,56.874 75.558,55.952 C76.415,55.241 77.742,53.161 78.507,51.33 Z M55.25,274.116 C57.744,271.553 68.831,274.931 72.05,279.235 C73.054,280.578 78.732,281.243 79.438,280.101 C80.41,278.527 86.447,278.742 90.654,280.5 C92.629,281.325 96.632,282 99.551,282 C104.203,282 105.298,282.416 108.429,285.368 C112.342,289.059 112.97,292.271 110.345,295.171 C107.853,297.925 104.392,297.449 101.842,294 C100.622,292.35 99.185,291 98.648,291 C96.924,291 90,287.643 90,286.808 C90,285.101 82.516,286.669 77.072,289.517 C75.075,290.561 73.746,290.52 69.588,289.285 C66.807,288.459 63.315,286.82 61.828,285.642 C60.341,284.464 57.972,282.691 56.562,281.703 C53.806,279.77 53.193,276.229 55.25,274.116 Z M127.479,118.895 C123.618,121.605 118.498,125.561 116.103,127.686 C111.907,131.411 111.774,131.704 112.462,135.775 C113.513,141.998 115.511,141.088 119.499,132.571 C123.254,124.551 125.52,122.87 129.619,125.064 C130.929,125.765 132,126.65 132,127.03 C132,127.411 130.2,130.998 128,135 C125.8,139.002 124,142.47 124,142.705 C124,142.941 122.812,144.691 121.361,146.594 C119.909,148.497 119.027,150.36 119.4,150.733 C121.72,153.054 134.655,141.061 138.644,132.891 C142.842,124.293 143.13,123.33 142.817,118.941 C142.502,114.531 142.472,114.498 138.5,114.234 C135.105,114.008 133.438,114.713 127.479,118.895 Z M10.2,279.2 C12.336,277.064 14.749,277.905 21.098,283 C24.524,285.75 28.042,288.004 28.914,288.01 C29.786,288.015 32.975,289.176 36,290.589 C40.206,292.555 42.409,293.016 45.362,292.55 C50.732,291.703 52.446,293.236 50.448,297.101 C49.05,299.805 48.55,300 43.024,300 C35.706,300 28.369,298.482 23.373,295.935 C21.285,294.871 18.872,294 18.011,294 C12.46,294 6.566,282.834 10.2,279.2 Z M63.75,135.08 C67.283,133.023 70.62,134.005 77.915,139.25 C81.931,142.137 86.326,145.175 87.681,146 C90.875,147.944 93.481,152.304 92.687,154.374 C91.299,157.989 84.473,155.48 73.651,147.379 C70.434,144.97 67.319,143 66.73,143 C64.953,143 62,139.812 62,137.895 C62,136.907 62.788,135.641 63.75,135.08 Z"/>
</svg>

