<svg xmlns="http://www.w3.org/2000/svg" width="300" height="300" viewBox="0 0 300 300" version="1.1">
  <defs/>
  <path d="M114.667,3.667 C115.789,2.545 118.945,2.92 122.099,4.551 L125.1,6.103 L124.493,15.551 C123.817,26.078 124.684,27.349 129.145,22.373 C130.44,20.928 133.511,17.89 135.969,15.623 C138.427,13.355 141.564,10.262 142.942,8.75 C146.315,5.045 149.503,5.135 150.84,8.972 C152.351,13.305 150.818,17.269 145.929,21.668 C143.588,23.776 141.055,26.11 140.302,26.855 C138.707,28.433 139.406,31.572 142.005,34.5 C145.66,38.617 141.398,47.235 137.363,43.886 C136.533,43.197 134.978,40.916 133.907,38.817 C132.836,36.718 131.325,35 130.551,35 C129.161,35 123,43.203 123,45.054 C123,48.517 112.149,61 109.138,61 C107.097,61 107.94,63.731 110.5,65.408 C114.611,68.102 113.813,72.541 107.849,80.152 C104.585,84.317 104.907,86.704 108.86,87.648 C112.912,88.616 123.678,92.834 132,96.715 C147.145,103.778 168.582,114.504 171.492,116.474 C174.399,118.442 182.161,122.873 186.774,125.197 C189.885,126.765 190.704,130.565 188.464,133.04 C186.562,135.142 183.509,135.633 182.5,134 C182.16,133.45 180.324,133 178.42,133 C175.733,133 174.712,132.461 173.861,130.595 C173.259,129.273 170.582,127.002 167.914,125.55 C165.245,124.097 162.818,122.514 162.519,122.031 C162.221,121.549 160.633,120.859 158.99,120.498 C157.347,120.137 155.394,118.973 154.65,117.911 C153.907,116.849 150.893,115.267 147.954,114.394 C145.015,113.521 138.535,110.786 133.555,108.317 C128.575,105.847 120.225,102.263 115,100.353 C109.775,98.442 104.424,96.437 103.11,95.897 C101.175,95.102 100.27,95.337 98.36,97.132 C97.062,98.351 96,99.848 96,100.459 C96,101.581 87.231,114.808 84.04,118.5 C83.089,119.6 80.567,123.425 78.437,127 C76.306,130.575 72.887,135.3 70.84,137.5 C64.038,144.808 60,149.731 60,150.716 C60,151.252 59.1,152.505 58,153.5 C55.095,156.129 55.479,158 58.923,158 C60.608,158 63.148,159.095 64.919,160.585 C66.608,162.007 68.421,163.019 68.947,162.835 C69.473,162.651 71.616,160.045 73.708,157.044 C77.727,151.281 82.659,147.303 89.877,144.002 C95.51,141.426 96.956,141.481 101.309,144.435 C104.797,146.802 104.96,146.82 107.198,145.072 C111.822,141.462 116.13,141.775 122.147,146.16 C123.519,147.16 124.601,146.694 128.647,143.362 C135.67,137.577 139.893,135.322 145.093,134.58 C148.725,134.062 150.113,134.298 151.73,135.712 C154.369,138.019 156.399,144.001 155.013,145.387 C154.456,145.944 154,147.13 154,148.022 C154,148.915 152.604,152.223 150.897,155.374 C148.966,158.939 148.003,161.904 148.348,163.221 C148.652,164.386 148.367,167.336 147.715,169.777 C146.802,173.188 145.541,174.924 142.264,177.277 C137.65,180.59 136.934,182 139.865,182 C140.891,182 142.904,182.923 144.339,184.052 C146.69,185.901 146.887,186.567 146.339,190.802 C146.004,193.386 145.116,196.21 144.365,197.079 C142.06,199.745 142.808,200.702 147.723,201.375 C150.895,201.81 154.313,203.333 158.132,206.011 C161.259,208.205 164.434,210 165.186,210 C165.939,210 167.668,210.786 169.027,211.746 C172.186,213.978 178.774,217.726 182,219.128 C183.375,219.725 185.175,220.611 186,221.096 C186.825,221.582 189.249,222.996 191.386,224.24 C196.912,227.454 198.167,228.239 201.521,230.575 C203.159,231.717 206.075,233.258 208,234 C209.925,234.742 212.69,236.168 214.145,237.168 C215.6,238.168 217.645,239.327 218.69,239.743 C221.704,240.944 229.65,246.137 235.312,250.607 C238.173,252.866 243.191,256.427 246.464,258.52 C252.35,262.285 267.42,276.477 271.728,282.311 C273.292,284.429 273.772,286.099 273.34,287.914 C271.759,294.555 268.549,294.578 261.594,288 C258.686,285.25 255.936,283 255.482,283 C253.778,283 251,279.609 251,277.529 C251,275.982 247.994,272.973 240.416,266.934 C234.595,262.295 229.307,258.035 228.666,257.467 C226.17,255.256 221.165,252.025 215.46,248.943 C212.182,247.172 206.312,243.76 202.416,241.361 C198.52,238.963 194.609,237 193.725,237 C192.841,237 191.871,236.6 191.568,236.111 C191.266,235.622 189.828,234.923 188.373,234.557 C186.917,234.192 184.326,232.849 182.613,231.573 C179.459,229.223 173.765,225.896 164.275,220.861 C161.402,219.336 156.452,216.638 153.275,214.865 C143.97,209.672 142.584,209.013 140.95,209.006 C137.543,208.993 135.556,214.013 138.3,215.7 C140.661,217.152 144,222.766 144,225.282 C144,229.719 141.862,230.309 135.88,227.524 C132.921,226.147 129.691,225.015 128.702,225.01 C126.859,225 122.088,229.672 122.032,231.542 C121.984,233.098 114.042,240.37 109.693,242.839 C107.215,244.246 104.167,245 100.962,245 C96.574,245 95.971,244.734 95.425,242.557 C94.571,239.155 95.583,238 99.419,238 C102.744,238 109.454,234.215 111.633,231.109 C112.257,230.221 114.619,227.528 116.883,225.124 C121.258,220.479 121.805,218.913 119.671,217.142 C117.229,215.115 105.566,211.214 99.793,210.493 C95.369,209.941 93.74,209.252 92.546,207.43 C90.694,204.604 92.108,200.418 95.251,199.42 C98.22,198.478 106.125,199.946 109.618,202.088 C111.333,203.14 114.13,204 115.833,204 C117.866,204 120.135,205.058 122.435,207.077 C124.363,208.77 126.405,209.868 126.973,209.517 C127.541,209.166 128.854,206.994 129.89,204.689 C137.498,187.781 137.58,186.652 131.226,186.192 C127.994,185.958 126.578,185.285 125.34,183.396 C123.94,181.259 123.9,180.556 125.053,178.4 C126.29,176.089 126.175,175.715 123.596,173.658 C121.415,171.919 120.727,170.439 120.483,166.963 C119.886,158.47 116.568,153.871 110.756,153.484 C108.965,153.364 106.487,152.929 105.25,152.517 C103.244,151.848 103,152.098 103,154.824 C103,156.506 102.55,158.16 102,158.5 C101.45,158.84 101,159.785 101,160.6 C101,162.558 96.567,168.79 88.622,178 C86.053,180.979 85.853,182.127 87.475,184.601 C89.005,186.937 89.003,187.448 87.455,191.808 C84.578,199.908 83.768,201.275 76.323,210.596 C67.461,221.69 55.889,232.833 49.358,236.564 C46.686,238.09 43.825,239.86 43,240.497 C40.264,242.61 32.871,244.271 31.648,243.048 C30.839,242.239 31.343,241.286 33.521,239.506 C35.159,238.167 36.981,237.056 37.569,237.036 C39.494,236.971 49.383,229.038 55,223.052 C62.234,215.342 65.676,210.395 71.467,199.384 L76.261,190.268 L71.124,183.384 C63.133,172.674 59.887,169.565 54.618,167.576 L49.735,165.734 L47.618,168.451 C46.453,169.946 43.813,173.184 41.75,175.645 C39.688,178.107 38,180.573 38,181.125 C38,181.677 36.634,183.279 34.964,184.684 C33.294,186.089 31.258,188.535 30.438,190.119 C29.619,191.704 28.369,193 27.661,193 C26.953,193 25.061,194.371 23.455,196.047 C21.126,198.478 19.842,199.033 17.096,198.797 C15.203,198.633 13.467,197.93 13.239,197.234 C13.01,196.538 15.59,193.41 18.973,190.284 C25.573,184.185 32.324,175.768 43.556,159.635 C47.437,154.061 54.997,143.741 60.356,136.702 C65.715,129.663 70.418,123.138 70.807,122.202 C71.196,121.266 74.462,116 78.066,110.5 C81.669,105 84.934,99.825 85.321,99 C85.709,98.175 87.192,95.475 88.617,93 C90.043,90.525 92.639,85.8 94.386,82.5 C96.134,79.2 98.051,75.6 98.648,74.5 C100.93,70.291 102.269,65.357 102.112,61.734 C101.974,58.535 102.636,57.235 106.515,53.088 C112.008,47.215 112.7,45.045 113.596,30.883 C114.121,22.588 113.967,19.307 112.965,17.435 C111.947,15.533 111.914,14.686 112.82,13.78 C113.469,13.131 114,10.74 114,8.467 C114,6.193 114.3,4.033 114.667,3.667 Z M62.2,15.2 C63.997,13.403 67.752,13.752 69.918,15.918 C72.794,18.794 74.184,34.067 72.633,45.75 C71.943,50.95 72.05,52 73.269,52 C75.42,52 88.147,41.566 89.767,38.475 C90.919,36.276 91.614,35.935 93.828,36.482 C95.298,36.845 96.914,37.546 97.42,38.041 C99.013,39.598 96.012,46.421 91.778,50.871 C87.577,55.287 87.551,55.597 91.232,57.422 C92.691,58.145 93.602,59.608 93.785,61.523 C93.942,63.16 94.464,65.4 94.945,66.5 C96.992,71.185 96.932,71.998 94.423,73.643 C92.232,75.078 91.577,75.112 89.32,73.903 C84.656,71.408 83.622,68.754 85.086,63.043 C85.792,60.289 86.105,57.771 85.781,57.448 C85.458,57.125 82.338,58.593 78.847,60.71 C75.356,62.828 71.037,65.164 69.25,65.901 C67.463,66.639 66,67.637 66,68.118 C66,69.647 58.821,77.007 57.891,76.433 C56.507,75.577 56.886,72.009 59,66 C60.064,62.975 60.949,58.617 60.967,56.315 C60.985,54.013 61.512,50.863 62.137,49.315 C63.951,44.824 64.139,32.209 62.476,26.608 C60.687,20.584 60.596,16.804 62.2,15.2 Z M102.594,112.073 C108.566,105.887 112.083,104.483 114.8,107.2 C117.776,110.176 116.162,113.698 108.28,121.428 C104.034,125.593 100.146,129 99.64,129 C99.135,129 96.497,130.369 93.778,132.041 C88.21,135.467 85.355,135.263 84.378,131.368 C83.662,128.516 86.958,124.4 93.115,120.459 C95.104,119.186 99.369,115.412 102.594,112.073 Z M136.785,150.832 C132.021,155.798 130.268,159.35 129.794,165 C129.53,168.142 129.755,168.5 131.992,168.5 C133.868,168.5 134.899,167.619 136.16,164.94 C137.082,162.982 138.548,160.79 139.418,160.068 C140.288,159.346 141,158 141,157.078 C141,156.155 141.39,154.972 141.868,154.45 C142.345,153.928 143.001,152.078 143.325,150.34 C144.246,145.402 141.819,145.584 136.785,150.832 Z M86.595,157.5 C84.569,158.875 82.289,160 81.528,160 C79.116,160 75.877,165.135 76.201,168.447 C76.439,170.876 77.02,171.561 79.043,171.796 C81.993,172.14 84.175,170.398 89.304,163.606 C95.26,155.72 93.862,152.569 86.595,157.5 Z"/>
</svg>

