<svg xmlns="http://www.w3.org/2000/svg" width="300" height="300" viewBox="0 0 300 300" version="1.1">
  <defs/>
  <path d="M78.119,94.357 C79.301,92.932 82.74,92.579 85.42,93.608 C86.291,93.942 88.39,96.27 90.085,98.781 C92.396,102.205 93.003,103.992 92.511,105.924 C90.935,112.123 91.302,113.481 94.645,113.806 C96.375,113.974 98.559,114.96 99.499,115.999 C101.126,117.797 101.045,118.052 97.8,121.395 C95.926,123.324 92.391,125.784 89.946,126.861 C87.501,127.937 84.32,129.949 82.878,131.331 C80.423,133.684 80.287,134.285 80.753,140.786 C81.079,145.35 80.864,147.966 80.125,148.423 C79.506,148.805 79,150.94 79,153.166 C79,156.628 79.253,157.11 80.75,156.497 C81.713,156.102 84.424,155.544 86.775,155.257 C93.838,154.394 96.952,158.693 98.901,172 C100.881,185.525 99.441,196.404 94.378,206.154 C93.62,207.614 93,209.697 93,210.782 C93,211.867 92.325,213.315 91.5,214 C90.675,214.685 90,216.143 90,217.242 C90,222.043 77.467,238.036 73.747,237.982 C71.56,237.95 66.339,230.642 65.571,226.537 C65.163,224.357 65.148,217.468 65.538,211.229 C66.196,200.704 66.423,199.769 68.675,198.293 C73.014,195.45 73.539,197.209 73.884,215.75 C73.984,221.12 74.26,222 75.848,222 C77.578,222 78.618,220.208 82.109,211.203 C82.599,209.94 83,208.082 83,207.075 C83,206.069 83.651,204.705 84.446,204.045 C85.241,203.385 86.437,200.293 87.104,197.173 C87.771,194.053 88.695,191.072 89.158,190.55 C91.391,188.03 89.331,169.35 86.568,167.056 C84.69,165.498 74.923,166.97 74.333,168.9 C74.063,169.78 73.203,171.694 72.422,173.154 C71.64,174.614 70.997,176.414 70.994,177.154 C70.99,177.894 69.426,181.425 67.518,185 C65.61,188.575 63.071,193.525 61.876,196 C60.68,198.475 58.666,201.625 57.4,203 C56.133,204.375 53.336,207.457 51.185,209.85 C48.633,212.687 46.621,214.074 45.398,213.838 C42.333,213.248 42.628,210.268 46.301,204.722 C50.34,198.624 60,180.117 60,178.478 C60,177.86 61.35,174.568 63,171.161 C64.65,167.755 66,164.046 66,162.918 C66,161.791 66.509,159.918 67.131,158.755 C67.753,157.593 68.894,153.91 69.666,150.571 C70.438,147.232 71.331,143.488 71.651,142.25 C72.404,139.338 69.963,139.242 65.487,142.008 C62.05,144.132 55.78,145.751 47.465,146.661 C42.51,147.203 42.398,147.155 40.507,143.642 L38.584,140.072 L40.93,137.574 C42.938,135.437 43.881,135.159 47.462,135.65 C50.901,136.121 53.041,135.58 59.464,132.612 C63.764,130.625 67.646,129 68.091,129 C69.181,129 77.454,123.378 78.72,121.777 C79.276,121.075 80.017,118.7 80.369,116.5 C80.72,114.3 81.262,111.15 81.574,109.5 C81.978,107.358 81.597,105.921 80.24,104.474 C77.819,101.893 76.618,96.165 78.119,94.357 Z M180.301,139.958 C185.887,136.552 190.552,138.12 189.827,143.159 C189.525,145.255 181.79,152.162 177.891,153.817 C177.006,154.193 172.921,157.65 168.814,161.5 C162.558,167.364 160.593,170.042 156.707,178 C154.155,183.225 151.924,188.688 151.748,190.139 C151.572,191.591 150.917,193.395 150.292,194.148 C148.911,195.812 142,210.637 142,211.935 C142,216.678 116.313,247.086 109.001,250.999 C105.35,252.954 97.369,252.793 95.297,250.724 C93.671,249.099 93.649,248.715 95.049,246.224 C96.323,243.957 97.262,243.5 100.64,243.5 C103.963,243.5 105.493,242.783 109.082,239.543 C115.107,234.103 122.802,225.21 125.127,221 C126.191,219.075 128.397,215.25 130.031,212.5 C131.664,209.75 133.719,205.925 134.598,204 C135.477,202.075 137.75,197.188 139.65,193.14 C144.039,183.789 143.835,181.457 138.998,185.678 C137.074,187.357 133.475,189.741 131,190.975 C128.525,192.21 125.375,194.253 124,195.515 C122.625,196.778 118.893,199.209 115.706,200.917 C109.193,204.408 106.54,203.998 105.365,199.316 C104.606,196.292 105.776,193.967 108.841,192.411 C110.021,191.812 111.777,190.625 112.743,189.773 C113.709,188.921 116.525,187.256 119,186.073 C126.878,182.309 131.387,179.618 137.522,175.019 C146.963,167.942 147.669,166.939 148.938,158.808 C149.565,154.788 150.643,149.025 151.334,146 C152.417,141.255 152.938,140.459 155.13,140.199 C158.696,139.778 159.771,141.572 160.258,148.76 C160.491,152.2 160.969,155.303 161.321,155.654 C161.672,156.005 165.367,153.056 169.531,149.1 C173.696,145.145 178.542,141.03 180.301,139.958 Z M154.25,193.662 C154.938,193.385 157.603,193.122 160.173,193.079 C163.773,193.018 165.529,193.574 167.818,195.5 C169.452,196.875 171.127,198 171.541,198 C171.955,198 174.216,199.575 176.565,201.5 C178.915,203.425 181.248,205 181.75,205 C182.252,205 186.677,208.134 191.582,211.964 C196.487,215.794 203.65,221.022 207.5,223.582 C211.35,226.142 214.95,228.783 215.5,229.453 C216.437,230.593 219.05,232.164 230.75,238.622 C233.363,240.063 238.2,243.225 241.5,245.648 C250.826,252.495 254.256,254.794 257.5,256.373 C259.15,257.176 262.75,259.573 265.5,261.7 C271.164,266.08 272.588,270.588 269.415,274.094 C266.731,277.06 264.964,276.444 257.923,270.089 C254.32,266.837 248.743,262.754 245.528,261.015 C242.314,259.276 236.042,255.316 231.592,252.215 C220.633,244.578 212.199,239 211.613,239 C211.347,239 207.387,236.276 202.814,232.946 C198.241,229.616 192.7,225.726 190.5,224.302 C188.3,222.878 184.836,220.314 182.803,218.606 C177.406,214.072 173.828,211.472 171,210.03 C169.625,209.329 167.375,207.74 166,206.498 C164.625,205.257 161.808,203.701 159.741,203.04 C157.673,202.379 155.311,201.168 154.491,200.348 C152.678,198.536 152.528,194.357 154.25,193.662 Z M67,24.441 C67,21.917 69.607,21.043 71.55,22.915 C72.073,23.419 73.625,23.981 74.999,24.165 C79.741,24.8 80.974,34.29 78.389,50.25 C78.009,52.593 78.176,54 78.834,54 C79.413,54 82.275,51.466 85.193,48.368 C90.295,42.954 96.872,38 98.957,38 C100.799,38 103.242,42.902 102.624,45.36 C102.297,46.666 100.575,49.156 98.798,50.893 C95.59,54.03 95.58,54.07 97.338,56.776 C101.402,63.028 102.131,65.818 100.865,70.287 C99.239,76.033 97.616,77.756 95.49,75.992 C94.605,75.257 92.991,72.821 91.904,70.578 C90.331,67.33 90.064,65.402 90.597,61.109 C90.924,58.472 91.174,56.957 90.655,56.618 C89.96,56.164 87.885,57.822 82.765,61.723 C76.437,66.546 72,71.768 72,74.394 C72,78.996 63.464,88.776 60.454,87.621 C59.064,87.087 58.896,86.165 59.477,82.238 C59.862,79.632 60.763,76.825 61.479,76 C63.368,73.822 66.687,65.282 67.891,59.5 C71.117,44.013 71.825,35.628 70,34.5 C69.45,34.16 69,32.585 69,31 C69,29.415 68.55,27.84 68,27.5 C67.45,27.16 67,25.784 67,24.441 Z M123.885,15.25 C124.092,13.005 128.089,13.935 131.077,16.923 C133.741,19.587 134,20.456 134,26.723 C134,30.505 133.535,34.065 132.967,34.633 C131.803,35.797 132.696,39 134.186,39 C134.72,39 137.034,37.156 139.329,34.902 C141.623,32.648 144.85,30.119 146.5,29.282 C148.15,28.444 150.289,27.067 151.254,26.221 C153.726,24.053 158,26.024 158,29.333 C158,31.808 156.032,34.278 149.702,39.743 C146.116,42.84 146.015,43.093 147.476,45.323 C148.318,46.608 148.715,47.951 148.359,48.308 C148.003,48.664 148.478,50.964 149.416,53.419 C150.365,55.905 150.983,59.792 150.81,62.191 C150.548,65.833 150.139,66.551 148.168,66.83 C143.672,67.467 137.538,58.562 138.648,53.012 C139.472,48.888 137.115,49.007 133.956,53.25 C129.411,59.353 125,65.951 125,66.647 C125,67.922 121.709,71 120.345,71 C118.013,71 118.703,60.698 121.595,52.316 C123.969,45.438 124.173,43.59 123.98,30.648 C123.865,22.867 123.822,15.938 123.885,15.25 Z M127.019,79.784 C129.829,77.508 131.269,77.534 133.409,79.899 C134.907,81.555 134.983,82.483 134.002,87.149 C130.374,104.408 130.065,107.155 131.691,107.716 C132.347,107.942 133.593,106.754 134.461,105.074 C135.33,103.395 137.944,99.841 140.27,97.176 C142.597,94.511 145.545,91.09 146.822,89.575 C148.689,87.359 149.668,86.95 151.822,87.488 C155.199,88.33 158,90.814 158,92.965 C158,95.112 141.7,111.902 136.316,115.3 C134.035,116.741 131.879,118.387 131.525,118.959 C131.171,119.532 130.035,120 129,120 C126.789,120 125.911,121.202 125.051,125.407 C124.344,128.862 121,130.403 121,127.273 C121,126.243 120.464,124.864 119.809,124.209 C118.887,123.287 118.892,121.941 119.83,118.259 C120.498,115.641 121.244,111.25 121.49,108.5 C121.736,105.75 122.585,98.565 123.376,92.534 C124.567,83.463 125.197,81.259 127.019,79.784 Z M147.723,125.643 C151.235,121.979 152.86,121 155.432,121 C158.447,121 160.501,122.404 162.425,125.779 C163.55,127.753 132.004,158.849 128.082,159.634 C123.145,160.621 122.897,158.037 127.133,149.738 C129,146.079 130.834,139.223 132.074,131.261 C133.07,124.865 133.764,122.892 135.178,122.443 C138.515,121.384 141,122.906 141,126.008 C141,130.724 142.956,130.618 147.723,125.643 Z"/>
</svg>

