<svg xmlns="http://www.w3.org/2000/svg" width="300" height="300" viewBox="0 0 300 300" version="1.1">
  <defs/>
  <path d="M110.5,10.685 C112.557,9.585 113.442,9.089 114.264,9.177 C114.939,9.249 115.572,9.713 116.777,10.557 C119.783,12.662 119.637,16.68 116.448,19.635 C115.045,20.936 113.463,22 112.933,22 C111.138,22 101.06,29.235 100.574,30.873 C100.032,32.7 99.974,41.023 100.408,54.717 C100.748,65.428 101.614,67 107.17,67 C112.096,67 121.537,72.757 123.163,76.752 C123.778,78.263 124.893,80.918 125.641,82.651 C127.443,86.829 127.358,88.271 125.141,91.115 C122.273,94.796 120,99.668 120,102.136 C120,103.365 119.107,105.322 118.015,106.484 C116.924,107.646 115.732,110.088 115.368,111.912 C114.757,114.963 114.875,115.174 116.838,114.551 C118.012,114.179 120.294,112.552 121.909,110.937 C123.524,109.322 125.556,108 126.423,108 C129.023,108 132,111.77 132,115.062 C132,118.352 126.065,131.525 122.299,136.594 C121.035,138.296 120,140.379 120,141.222 C120,142.065 119.29,143.344 118.422,144.065 C117.554,144.785 115.763,147.508 114.441,150.116 C113.119,152.725 111.579,155.142 111.019,155.488 C110.459,155.835 110,156.854 110,157.754 C110,158.654 108.926,160.54 107.612,161.945 C106.299,163.35 104.9,165.572 104.503,166.882 C103.818,169.144 103.956,169.231 107.237,168.615 C109.138,168.259 112.564,167.063 114.852,165.957 C117.14,164.852 120.435,163.663 122.174,163.315 C126.341,162.482 136.688,155.56 137.475,153.078 C137.816,152.004 137.545,150.244 136.873,149.168 C136.004,147.777 135.927,146.24 136.607,143.855 C137.452,140.89 138.009,140.463 141.389,140.183 C144.819,139.899 145.68,140.352 149.709,144.557 C152.181,147.136 157.87,151.262 162.351,153.726 C174.781,160.558 177.688,165.403 172.481,170.61 C169.704,173.387 165.204,173.594 164.012,171 C160.801,164.012 160.398,163.568 156.535,162.766 C154.371,162.316 151.867,161.285 150.971,160.474 C148.515,158.251 147.056,158.64 142.064,162.847 C139.554,164.962 136.014,167.461 134.199,168.399 C130.474,170.323 129.188,172.588 130.867,174.267 C131.49,174.89 132,176.441 132,177.714 C132,178.986 132.39,180.809 132.866,181.764 C133.342,182.719 134.151,184.85 134.663,186.5 C135.887,190.447 135.614,218.976 134.285,226 C131.37,241.405 130.691,243.534 127.665,246.75 C123.352,251.334 120.066,251.094 113.994,245.75 C109.024,241.376 102,231.835 102,229.459 C102,228.721 101.55,227.84 101,227.5 C100.45,227.16 100,226.034 100,224.998 C100,223.962 99.036,221.481 97.858,219.484 C96.024,216.375 95.343,215.946 93.108,216.49 C91.674,216.84 88.7,219.219 86.5,221.777 C78.678,230.872 58.466,250.732 56.358,251.394 C55.18,251.764 54.003,252.882 53.742,253.879 C53.186,256.005 45.461,260 41.907,260 C40.553,260 38.445,259.299 37.223,258.443 C35.387,257.157 35,255.935 35,251.419 C35,246.469 35.243,245.858 37.565,244.975 C39.379,244.285 40.211,243.953 40.754,244.217 C41.236,244.451 41.489,245.156 42,246.5 C42.523,247.875 43.62,249 44.437,249 C46.395,249 55.243,240.971 67.547,228.031 C73.021,222.274 79.117,215.861 81.094,213.781 C84.642,210.048 87.296,209.051 88.5,211 C89.574,212.737 92.297,212.09 95.063,209.439 C97.448,207.155 97.899,207.042 99.247,208.39 C100.079,209.222 101.066,211.537 101.441,213.535 C101.816,215.534 103.445,219.318 105.061,221.945 C106.678,224.572 108,227.152 108,227.678 C108,229.409 118.766,240.245 120.058,239.814 C123.226,238.758 126.414,217.648 125.694,202.5 C125.101,190.032 124.307,185.164 122.513,183 C121.828,182.175 120.975,180.262 120.615,178.75 C119.807,175.349 116.375,175.078 109.877,177.902 C104.711,180.147 94.112,181.453 92.059,180.098 C91.073,179.447 90.697,177.643 90.865,174.383 C91.061,170.592 92.02,168.319 95.556,163.261 C98,159.765 100,156.702 100,156.454 C100,156.207 101.516,153.866 103.368,151.252 C105.221,148.639 107.857,144.475 109.227,142 C110.597,139.525 112.703,135.76 113.908,133.632 C115.112,131.505 115.856,129.523 115.56,129.227 C115.264,128.931 112.716,129.434 109.896,130.344 C103.253,132.49 103.105,132.475 99.805,129.313 C96.326,125.98 96.234,122.693 99.5,118.411 C100.875,116.608 102,114.869 102,114.547 C102,114.224 103.236,112.057 104.747,109.73 C111.328,99.595 115.437,91.056 116.276,85.771 C116.792,82.519 116.524,81.803 114.184,80.173 C111.8,78.513 103.895,76 101.057,76 C100.476,76 100,76.691 100,77.535 C100,78.38 99.286,80.16 98.414,81.491 C97.541,82.823 97.108,84.365 97.45,84.92 C98.3,86.295 94.622,89.806 91.514,90.586 C89.524,91.085 87.794,90.33 83.491,87.081 C80.474,84.803 77.398,82.706 76.655,82.421 C75.834,82.106 73.073,84.664 69.617,88.941 C63.373,96.669 60.424,98.163 56.493,95.587 C53.538,93.651 53.156,89.522 55.8,88.107 C56.79,87.577 60.235,83.264 63.457,78.521 C69.089,70.229 73.096,66 75.32,66 C77.531,66 81,70.41 81,73.22 C81,76.063 84.794,81 86.979,81 C89.924,81 91.47,67.985 90.508,51.301 C89.756,38.264 88.851,36.171 85.114,38.83 C84.226,39.462 81.7,40.944 79.5,42.124 C77.3,43.304 73.358,46.054 70.74,48.236 C60.081,57.119 56.022,58.779 54.035,55.066 C52.155,51.553 52.817,48.164 55.75,46.28 C57.263,45.308 60.75,42.825 63.5,40.761 C66.25,38.697 68.823,37.007 69.219,37.004 C70.409,36.997 83.543,28.256 84.999,26.502 C85.841,25.486 86.38,22.158 86.426,17.685 L86.5,10.5 L90.824,10.189 C95.499,9.852 97.689,11.051 99.079,14.709 C100.177,17.596 101.144,17.585 104.673,14.645 C106.228,13.35 108.85,11.568 110.5,10.685 Z M132.344,9.546 C133.408,6.773 137.698,7.737 140.47,11.372 C142.586,14.146 143.15,16.229 143.651,23.122 C144.039,28.456 144.243,30.949 144.234,33.441 C144.224,36.12 143.968,38.797 143.43,45 C142.929,50.775 142.523,60.105 142.528,65.732 C142.533,72.116 142.452,75.512 144.102,77.378 C146.057,79.59 150.442,79.654 160.282,80 C184.414,80.849 188.882,77.568 185.482,61.5 C184.667,57.651 184,53.284 184,51.797 C184,50.311 183.608,48.06 183.128,46.797 C182.648,45.534 181.721,42.7 181.067,40.5 C179.644,35.711 177.292,29.612 175.283,25.5 C173.365,21.575 173.917,16.628 176.324,16.171 C178.851,15.691 182,18.806 182,21.785 C182,23.147 183.51,27.24 185.357,30.88 C191.738,43.466 193.583,48.798 196.473,63 C199.025,75.549 198.796,76.682 192.529,82.515 C185.336,89.209 180.922,90.333 162,90.291 C150.851,90.267 146.836,89.901 144.626,88.709 C143.045,87.856 141.106,87.406 140.317,87.709 C139.498,88.023 137.555,86.902 135.794,85.1 C133.053,82.297 132.672,81.185 132.411,75.22 C132.249,71.524 132.759,59.649 133.543,48.83 C134.567,34.718 134.681,27.796 133.949,24.33 C132.282,16.439 131.712,11.192 132.344,9.546 Z M162.685,206.957 C164.267,204.278 164.925,204 169.682,204 C172.569,204 176.635,204.744 178.716,205.652 C182.366,207.246 187.778,209.627 193,211.935 C194.375,212.542 197.3,214.133 199.5,215.468 C201.7,216.804 204.624,218.402 205.998,219.018 C207.372,219.635 209.172,220.722 209.998,221.435 C210.824,222.148 212.668,223.008 214.097,223.346 C215.525,223.684 219.323,225.545 222.538,227.481 C225.752,229.416 228.98,231 229.71,231 C230.44,231 233.436,232.28 236.366,233.843 C239.297,235.407 242.551,236.987 243.597,237.354 C247.635,238.769 263.163,247.72 269.429,252.245 C275.65,256.737 276,257.203 276,261.016 C276,264.369 275.57,265.239 273.433,266.212 C271.321,267.175 270.391,267.074 268.183,265.643 C266.707,264.686 264.375,263.466 263,262.93 C261.625,262.395 259.55,260.504 258.39,258.729 C256.86,256.388 253.285,254.01 245.39,250.082 C239.4,247.102 233.108,243.614 231.406,242.332 C229.704,241.049 227.855,240 227.298,240 C226.154,240 213.147,233.357 211.296,231.826 C209.211,230.104 202.921,227.141 199.971,226.494 C198.413,226.151 196.602,225.225 195.947,224.436 C195.291,223.646 194.199,223 193.518,223 C192.838,223 189.739,221.643 186.632,219.985 C180.656,216.796 174.773,214.63 169,213.493 C167.075,213.114 164.474,212.153 163.219,211.359 C160.988,209.945 160.976,209.849 162.685,206.957 Z"/>
</svg>

