<svg xmlns="http://www.w3.org/2000/svg" width="300" height="300" viewBox="0 0 300 300" version="1.1">
  <defs/>
  <path d="M188.5,153.519 C194.6,151.337 197.585,151.657 201.195,154.883 C204.154,157.527 204.455,158.357 204.825,164.901 C205.07,169.24 204.732,173.303 203.964,175.268 C202.385,179.305 200.138,184.728 198.688,188 C197.285,191.166 191.744,199.09 186.604,205.281 C183.057,209.553 182.796,210.224 184.15,211.578 C185.6,213.029 200.639,215.249 209,215.247 C220.098,215.244 230.191,216.334 231.538,217.681 C233.548,219.691 233.385,220.706 230.604,223.487 C228.248,225.843 227.882,225.885 208.854,225.978 C198.209,226.03 187.925,226.038 186,225.996 C172.15,225.693 167.672,225.923 161.502,227.253 C153.456,228.987 150.362,228.291 149.42,224.535 C148.372,220.361 149.713,217.103 152.765,216.406 C156.738,215.498 163.957,213.093 166.013,211.993 C173.493,207.99 186.217,193.116 190.47,183.403 C191.41,181.257 192.814,178.306 193.59,176.846 C195.499,173.253 195.425,165.597 193.465,163.971 C189.809,160.937 172.631,167.753 164.833,175.332 C160.391,179.649 157,184.96 157,187.601 C157,188.312 158.125,191.01 159.5,193.596 C160.875,196.182 162,199.587 162,201.163 C162,202.738 162.535,204.884 163.19,205.932 C164.906,208.68 162.581,211.194 158.686,210.801 C155.393,210.469 155.032,209.959 152.468,202 C149.975,194.263 143.718,182.566 139.806,178.33 C138.704,177.137 136.543,175.639 135.003,175.001 C129.344,172.657 130.911,164 136.994,164 C138.959,164 140.957,165.406 144.452,169.25 C147.077,172.137 149.614,175.512 150.088,176.75 C150.563,177.988 151.803,179 152.845,179 C154.352,179 154.845,178.069 155.253,174.451 C155.643,170.987 156.569,169.119 159.133,166.626 C163.827,162.061 172.543,157.445 179.027,156.092 C182.037,155.464 186.3,154.306 188.5,153.519 Z M89.667,43.667 C91.049,42.285 95.758,43.075 97.481,44.979 C98.983,46.639 99.171,48.05 98.646,53.729 C97.459,66.567 95.451,76.142 92.877,81.236 C92.395,82.191 92,84.302 92,85.927 C92,87.552 91.55,89.16 91,89.5 C90.45,89.84 90,91.18 90,92.478 C90,93.776 89.367,96.112 88.593,97.669 C87.818,99.226 86.74,101.625 86.196,103 C85.652,104.375 84.047,108.075 82.629,111.223 C78.963,119.362 78.41,122 80.369,122 C81.24,122 82.666,120.913 83.537,119.584 C85.71,116.268 87.614,115.749 91.063,117.533 C93.708,118.9 94,119.54 94,123.967 C94,126.67 93.55,129.16 93,129.5 C92.45,129.84 92,131.126 92,132.359 C92,133.592 91.605,135.027 91.122,135.55 C89.599,137.198 89.075,146 90.5,146 C92.168,146 93.308,144.324 94.918,139.5 C96.659,134.287 97.762,133 100.488,133 C107.38,133 113.622,145.08 109.561,150.559 C108.336,152.211 107.817,152.314 106.074,151.25 C102.816,149.26 101.317,149.719 95.447,154.5 C88.63,160.053 85.488,160.334 80.951,155.797 C77.854,152.7 77.768,152.387 78.337,146.297 C79.006,139.135 78.327,138.61 72.774,141.996 C68.146,144.818 66.337,144.512 64.476,140.591 C62.994,137.468 62.992,136.791 64.445,132.511 C65.317,129.942 66.924,125.992 68.015,123.732 C69.107,121.473 70,119.231 70,118.75 C70,118.269 71.086,115.542 72.413,112.688 C73.74,109.835 75.526,105.475 76.381,103 C79.536,93.866 80.645,91.021 81.315,90.352 C81.692,89.975 82,88.643 82,87.392 C82,86.141 82.45,84.84 83,84.5 C83.55,84.16 84.016,82.446 84.035,80.691 C84.055,78.936 84.714,76.375 85.5,75 C86.286,73.625 86.945,71.289 86.965,69.809 C86.984,68.329 87.45,66.84 88,66.5 C88.567,66.15 89,61.212 89,55.108 C89,49.182 89.3,44.033 89.667,43.667 Z M160.546,37.57 C161.926,35.464 162.958,34.96 165.399,35.198 L168.5,35.5 L168.346,42.25 C168.241,46.809 168.569,49 169.356,49 C169.997,49 173.63,46.915 177.429,44.366 C183.291,40.434 184.726,39.869 186.908,40.637 C192.662,42.66 189.106,49.097 178.557,55.758 C171.918,59.949 171.011,60.901 170.062,64.668 C169.478,66.988 169,71.3 169,74.252 C169,77.422 168.399,80.412 167.532,81.559 C166.724,82.626 166.049,85.667 166.032,88.316 C166.014,90.964 165.524,94.021 164.942,95.108 C164.36,96.195 164.023,98.604 164.192,100.46 L164.5,103.836 L170.5,101.372 C173.8,100.017 177.456,98.433 178.625,97.852 C181.012,96.666 183.402,97.577 186.299,100.778 C187.803,102.439 187.889,103.149 186.863,105.4 C185.538,108.31 172.673,115.005 159.691,119.541 C155.816,120.894 151.617,122.676 150.358,123.501 C149.1,124.325 147.296,125 146.35,125 C143.824,125 140,121.004 140,118.366 C140,116.208 144.482,111 146.339,111 C146.811,111 148.672,110.3 150.475,109.445 C153.163,108.169 153.878,107.136 154.458,103.695 C154.846,101.388 155.581,97.025 156.091,94 C158.746,78.257 159.376,70.158 158.069,68.583 C156.559,66.764 152.872,67.346 149,70.015 C147.625,70.962 145.476,72.056 144.223,72.445 C142.971,72.834 141.217,74.266 140.324,75.628 C137.989,79.192 133.027,78.626 131.709,74.646 C130.213,70.127 133.233,67.231 146.46,60.5 L158.251,54.5 L158.522,47.372 C158.702,42.645 159.384,39.344 160.546,37.57 Z M94.487,185.373 C101.666,180.517 106.722,180.633 110.96,185.75 C113.779,189.154 114.039,190.054 113.783,195.5 C113.505,201.385 113.444,201.5 110.609,201.5 C107.565,201.5 107.386,201.288 104.076,193.75 C101.389,187.632 99.387,187.612 93.235,193.64 C83.827,202.859 78.179,204.378 73.589,198.923 C72.165,197.231 71,195.448 71,194.962 C71,194.475 69.2,193.592 67,193 C64.8,192.408 63,191.559 63,191.115 C63,189.304 66.154,184.155 67.604,183.598 C70.838,182.357 78,185.614 78,188.326 C78,190.204 81.29,193 83.5,193 C84.705,193 86.547,192.043 87.595,190.873 C88.643,189.703 91.744,187.228 94.487,185.373 Z M26.25,189.125 C27.832,187.511 33.841,188.368 38.845,190.921 C40.858,191.948 44.979,195.558 48.003,198.944 C53.011,204.551 53.779,205.048 56.634,204.526 C58.957,204.101 59.927,204.368 60.384,205.558 C62.425,210.877 59.539,216 54.502,216 C51.627,216 50.339,215.115 45.94,210.118 C41.048,204.56 34.185,200 30.713,200 C28.626,200 25,195.281 25,192.565 C25,191.374 25.563,189.826 26.25,189.125 Z"/>
</svg>

