<svg xmlns="http://www.w3.org/2000/svg" width="300" height="300" viewBox="0 0 300 300" version="1.1">
  <defs/>
  <path d="M124.257,35.25 C126.529,32.806 129.039,32.415 132.066,34.035 C134.005,35.073 134.655,38.02 133.25,39.407 C132.838,39.814 131.931,44.051 131.235,48.824 C128.895,64.876 128.889,65 130.432,65 C131.218,65 132.005,63.999 132.18,62.775 C132.356,61.551 133.409,60.089 134.521,59.525 C135.632,58.961 137.952,57.487 139.675,56.25 C144.909,52.492 149.298,53.384 151.5,58.654 C152.518,61.089 152.65,62.791 151.963,64.598 C151.433,65.991 151,69.04 151,71.374 C151,73.708 150.339,76.491 149.532,77.559 C148.724,78.626 148.049,81.386 148.032,83.691 C148.014,85.996 147.55,88.16 147,88.5 C146.45,88.84 146,90.19 146,91.5 C146,92.81 145.55,94.16 145,94.5 C143.605,95.362 143.743,101 145.159,101 C145.797,101 148.609,99.299 151.409,97.22 C158.953,91.62 161.725,90 163.765,90 C168.262,90 169.549,96.266 165.75,99.664 C163.064,102.067 154.17,108 153.254,108 C152.405,108 145.089,112.884 142.352,115.278 C140.459,116.934 140.267,117.89 140.735,123.329 C141.027,126.723 141.693,130.04 142.214,130.701 C143.644,132.51 145.326,153.588 145.391,170.5 C145.446,184.941 144.434,205.484 143.6,206.844 C143.378,207.205 142.676,214.475 142.04,223 C141.403,231.525 140.424,240.878 139.864,243.784 C138.786,249.369 135.969,253 132.713,253 C128.758,253 121,241.364 121,235.432 C121,234.159 120.55,232.84 120,232.5 C119.45,232.16 119,230.859 119,229.608 C119,228.357 118.663,226.996 118.251,226.584 C117.232,225.565 115.062,215.708 115.648,214.76 C117.648,211.525 122.787,217.769 125.927,227.25 C127.653,232.461 128.601,234 130.082,234 C132.096,234 132.336,233.329 132.015,228.598 C131.78,225.147 133.645,204.543 135.137,194.098 C136.632,183.635 136.327,160.351 134.527,147.53 C133.687,141.547 133,133.116 133,128.795 C133,119.84 131.902,118.509 127.246,121.825 C125.693,122.931 121.514,124.566 117.961,125.459 C114.407,126.352 109.392,127.964 106.815,129.041 C100.728,131.586 100.535,131.56 97.88,127.832 L95.624,124.664 L99.265,121.517 C101.925,119.217 105.677,117.604 113.203,115.526 C118.866,113.962 124.53,112.056 125.789,111.292 C127.049,110.528 129.809,106.362 131.923,102.035 C136.719,92.221 135.881,90.461 128.827,95.529 C123.056,99.675 122.07,99.768 118.964,96.462 C116.82,94.18 116.605,93.145 116.827,86.212 C116.963,81.97 117.695,74.675 118.453,70 C119.212,65.325 120.357,56.1 120.999,49.5 C121.948,39.731 122.554,37.082 124.257,35.25 Z M72.571,34.571 C74.529,32.613 79.978,32.531 82.559,34.421 C84.094,35.545 84.467,36.934 84.344,41.062 C84.191,46.179 82.938,49.858 80.226,53.153 C79.477,54.063 78.23,57.839 77.455,61.544 C76.68,65.25 75.393,69.277 74.596,70.495 C73.798,71.712 72.837,74.461 72.46,76.604 C72.084,78.747 71.151,81.497 70.388,82.715 C69.624,83.933 69,86.044 69,87.406 C69,88.768 68.551,90.16 68.002,90.499 C67.123,91.042 63.881,97.572 60.803,105 C60.233,106.375 59.294,108.4 58.717,109.5 C54.822,116.92 50.886,124.18 48.523,128.302 C47.009,130.943 46.009,133.342 46.3,133.633 C47.1,134.434 50.907,132.161 56.842,127.34 C62.793,122.505 65.482,122.018 69.365,125.073 C72.341,127.414 72.677,130.178 70.494,134.364 C69.672,135.94 69,137.895 69,138.71 C69,139.525 68.096,141.46 66.992,143.011 C65.887,144.563 64.709,147.206 64.373,148.885 C64.037,150.564 62.241,153.504 60.381,155.419 C58.522,157.334 56.99,159.486 56.978,160.2 C56.966,160.915 56.076,162.625 55,164 C52.994,166.565 52.294,171 53.896,171 C54.744,171 55.738,169.908 63.854,160.067 C66.296,157.106 67.928,156.02 69.854,156.073 C73.838,156.183 78.391,159.296 79.372,162.58 C79.852,164.186 80.865,166.694 81.622,168.154 C83.727,172.21 83.32,173.614 79.357,175.952 C74.79,178.647 71.771,178.305 70.997,175.005 C70.111,171.225 67.863,171.511 62.976,176.022 C54.863,183.512 50.06,186.125 45.016,185.795 L40.51,185.5 L39.653,180.783 C38.927,176.789 39.118,175.545 40.898,172.665 C42.054,170.795 43,168.666 43,167.936 C43,167.205 44.047,165.008 45.327,163.054 C50.927,154.502 57.008,143.814 57.588,141.507 C58.405,138.252 56.045,138.13 52.623,141.25 C47.187,146.204 43.759,148.223 39.898,148.74 C36.302,149.223 35.533,148.934 32.984,146.144 C30.29,143.194 30.203,142.838 31.552,140.252 C32.342,138.738 32.998,136.825 33.01,136 C33.034,134.415 35.108,130.785 41.25,121.581 C43.313,118.49 45,115.385 45,114.681 C45,113.976 45.412,112.972 45.917,112.45 C46.421,111.927 47.911,109.475 49.227,107 C50.544,104.525 52.129,101.6 52.749,100.5 C55.126,96.284 60,84.931 60,83.612 C60,82.851 61.348,78.465 62.995,73.864 C64.642,69.264 65.992,64.893 65.995,64.151 C65.998,63.409 66.606,61.384 67.346,59.651 C70.15,53.09 71,49.156 71,42.75 C71,38.077 71.46,35.683 72.571,34.571 Z M182.062,122.25 C183.663,120.282 185.809,120.779 187.616,123.537 C189.207,125.965 189.159,126.296 186.497,131.287 C184.967,134.154 182.992,137.4 182.108,138.5 C179.9,141.247 178,144.75 178,146.076 C178,146.682 176.04,149.083 173.645,151.411 C169.371,155.565 167.223,160.882 168.511,164.116 C169.089,165.566 175.686,170.565 179.987,172.813 C181.369,173.536 183.65,175.223 185.055,176.563 C186.46,177.903 188.2,179 188.923,179 C190.913,179 208.819,197.497 215.06,206 C218.087,210.125 221.843,216.425 223.406,220 C224.969,223.575 226.642,226.928 227.124,227.45 C227.606,227.973 228,229.721 228,231.335 C228,232.949 228.539,237.193 229.197,240.767 C230.392,247.251 230.389,247.269 227.641,249.632 C223.898,252.852 221.207,252.711 220.385,249.25 C220.025,247.738 219.172,245.825 218.488,245 C217.804,244.175 216.933,239.771 216.551,235.212 C215.943,227.964 215.391,226.208 212.151,221.212 C210.113,218.071 207.857,214.331 207.136,212.903 C206.416,211.475 201.253,205.583 195.663,199.809 C186.198,190.033 181.303,186.009 173.775,181.815 C172.111,180.888 168.151,178.526 164.974,176.565 C161.798,174.604 158.737,173 158.172,173 C156.246,173 153,167.738 153,164.615 C153,162.302 153.836,160.829 156.25,158.895 C158.038,157.462 161.117,153.862 163.094,150.895 C170.549,139.702 173,135.619 173,134.389 C173,133.692 174.81,130.957 177.023,128.311 C179.235,125.665 181.503,122.938 182.062,122.25 Z M61.032,206.112 C62.389,205.57 66.175,205.098 69.445,205.063 C74.555,205.009 75.778,205.371 78.145,207.639 L80.899,210.277 L78.929,214.139 C76.206,219.477 72.415,219.516 68.173,214.25 L65.153,210.5 L57.826,214.251 C49.442,218.543 49.044,218.59 40.49,216.311 L34.152,214.622 L29.946,217.537 C27.632,219.141 24.667,222.151 23.357,224.226 C20.455,228.824 17.546,229.122 9.78,225.617 C6.876,224.307 3.488,222.927 2.25,222.55 C0.254,221.943 0,221.21 0,216.074 L0,210.282 L4.311,212.391 C6.682,213.551 11.002,216.259 13.912,218.409 L19.202,222.319 L23.945,217.159 C26.623,214.246 29.559,212 30.689,212 C31.79,212 33.443,211.168 34.362,210.152 C35.726,208.645 38.114,208.193 47.3,207.7 C53.495,207.368 59.675,206.653 61.032,206.112 Z M119.845,194.547 C124.4,190.828 125.506,190.392 126.463,191.94 C127.88,194.233 118.836,204.79 105.899,215.945 C101.83,219.454 96.971,224.285 95.102,226.681 C89.656,233.662 83.795,233.719 83.199,226.797 C82.95,223.918 83.379,222.982 85.615,221.517 C88.867,219.386 104.861,206.999 111.076,201.797 C113.509,199.761 117.455,196.498 119.845,194.547 Z M114.478,174.431 C118.906,170.003 126.344,173.017 123.243,177.983 C122.559,179.077 122,181.343 122,183.018 C122,185.024 121.403,186.266 120.25,186.658 C119.287,186.986 116.108,188.349 113.183,189.688 C106.151,192.907 103.598,192.522 103.181,188.179 C102.798,184.186 104.949,180.595 108.968,178.516 C110.591,177.677 113.07,175.839 114.478,174.431 Z M127.976,70.25 C127.962,72.037 127.494,75.484 126.935,77.909 C126.305,80.639 126.274,82.674 126.852,83.252 C128.429,84.829 131.893,82.192 132.796,78.727 C133.498,76.032 134.119,75.494 136.562,75.464 C138.577,75.439 139.596,74.861 139.837,73.607 C140.328,71.058 138.361,69.239 136.8,70.8 C134.892,72.708 133.028,72.203 132,69.5 C130.589,65.789 128.005,66.27 127.976,70.25 Z"/>
</svg>

