<svg xmlns="http://www.w3.org/2000/svg" width="300" height="300" viewBox="0 0 300 300" version="1.1">
  <defs/>
  <path d="M149.266,127.25 C150.717,125.397 153.733,125.733 156,128 C158.133,130.133 158.649,133.481 157,134.5 C156.45,134.84 156,136.269 156,137.676 C156,139.863 156.326,140.135 158.25,139.553 C162.251,138.343 168.819,137.738 171.27,138.353 C172.6,138.687 174.481,140.477 175.51,142.389 C177.187,145.502 177.238,146.376 176.052,151.663 C173.244,164.177 170.59,171.307 167.321,175.115 C166.558,176.003 165.241,179.464 164.393,182.805 C162.88,188.768 162.894,188.938 165.176,192.057 C166.454,193.804 168.969,196.24 170.765,197.469 C173.891,199.609 180.131,205.013 195.462,218.855 C199.333,222.35 203.625,225.927 205,226.803 C207.335,228.291 210.701,231.112 222.887,241.789 C225.579,244.148 231.544,248.736 236.141,251.983 C240.739,255.231 245.155,258.476 245.955,259.194 C246.755,259.912 248.59,261.008 250.033,261.629 C251.475,262.25 254.353,264.249 256.428,266.071 C259.752,268.989 260.134,269.786 259.648,272.78 C258.998,276.786 257.387,279.002 255.128,278.996 C254.232,278.994 249.939,275.619 245.587,271.496 C241.235,267.373 237.28,264 236.799,264 C235.522,264 218.113,250.894 206.279,241.024 C200.658,236.336 193.732,230.7 190.889,228.5 C188.046,226.3 184.569,223.375 183.162,222 C181.755,220.625 178.685,217.925 176.34,216 C173.994,214.075 168.897,209.688 165.012,206.25 C161.127,202.813 157.324,200 156.56,200 C155.797,200 153.593,202.824 151.662,206.276 C149.732,209.728 147.218,213.397 146.076,214.431 C144.934,215.464 143.995,217.028 143.99,217.905 C143.975,220.261 132.115,232.699 127.596,235.097 C122.756,237.666 114.16,239.141 111.689,237.827 C110.617,237.257 110.005,236.007 110.189,234.761 C110.488,232.735 112.002,231.943 118.171,230.588 C122.418,229.655 134.769,216.787 139.371,208.5 C145.739,197.033 148,192.739 148,192.113 C148,190.785 139.703,183 138.288,183 C137.518,183 136.036,184.925 134.996,187.277 C133.955,189.629 131.968,192.621 130.58,193.925 C129.192,195.229 127.364,198.675 126.519,201.582 C125.607,204.719 123.969,207.666 122.491,208.828 C121.121,209.906 120,211.333 120,212 C120,212.667 118.537,215.075 116.75,217.353 C114.963,219.63 112.825,222.384 112,223.472 C108.345,228.293 101.861,234 100.038,234 C98.943,234 97.308,232.874 96.406,231.497 C94.833,229.096 94.882,228.85 97.633,225.395 C106.566,214.176 112.397,206.147 113.532,203.5 C114.239,201.85 115.678,199.375 116.729,198 C117.78,196.625 119.898,193.25 121.436,190.5 C130.139,174.935 130.209,174.704 126.75,172.891 C125.513,172.242 122.808,170.314 120.741,168.606 C109.935,159.679 109.894,159.632 109.286,155.097 L108.696,150.696 L112.993,151.383 C116.284,151.909 119.137,153.609 125.167,158.639 C131.686,164.076 133.298,164.997 134.522,163.982 C135.335,163.307 136,162.377 136,161.916 C136,161.454 137.575,157.758 139.5,153.703 C141.425,149.647 143,145.477 143,144.436 C143,142.272 147.79,129.134 149.266,127.25 Z M80,44.613 C81.925,43.751 83.817,43.035 84.205,43.023 C87.236,42.925 85.578,71.445 82.399,74.084 C81.589,74.756 81,77.094 81,79.636 C81,82.051 80.573,84.809 80.05,85.764 C79.528,86.719 78.433,90.2 77.618,93.5 C76.803,96.8 74.56,103.1 72.635,107.5 C70.71,111.9 68.83,117.188 68.456,119.25 C67.868,122.499 68.03,123 69.666,123 C70.705,123 72.555,123.701 73.777,124.557 C76.687,126.595 76.766,133.678 74.007,145.187 C72.911,149.759 72.011,153.897 72.007,154.382 C72.003,154.867 73.725,155.032 75.834,154.749 C77.943,154.466 80.418,154.654 81.334,155.167 C84.049,156.687 86,161.562 86,166.828 C86,173.323 84.611,174.432 77.577,173.553 C72.563,172.926 72.045,173.054 70.944,175.187 C69.007,178.94 65.788,182 63.778,182 C60.406,182 57,177.183 57,172.413 C57,170.051 57.45,167.84 58,167.5 C58.55,167.16 59,165.805 59,164.488 C59,163.171 59.414,161.06 59.92,159.797 C60.973,157.165 63.462,148.81 64.402,144.75 C64.938,142.431 64.714,142 62.969,142 C61.832,142 59.569,142.689 57.941,143.53 C54.711,145.201 52.811,144.658 49.645,141.16 C47.192,138.45 47.952,135.379 53.811,124.34 C63.847,105.43 71.953,81.289 73.735,65 C74.199,60.764 74.19,55.537 73.71,50.131 C73.495,47.709 73.923,47.333 80,44.613 Z M146.298,31.25 C147.729,29.361 151.342,29.75 153.268,32 C154.21,33.1 155.869,34 156.955,34 C159.052,34 161,36.711 161,39.63 C161,40.598 159.814,42.628 158.365,44.141 C156.408,46.184 155.355,48.896 154.27,54.695 C151.637,68.758 152.087,69.309 160.561,62.407 C167.171,57.023 169.293,57.257 169.815,63.428 C170.266,68.759 168.234,71.135 159.217,75.826 C154.854,78.096 150.673,80.69 149.926,81.589 C149.18,82.488 147.668,83.557 146.567,83.964 C145.102,84.507 144.241,86.287 143.357,90.603 C140.978,102.222 139.905,106.526 138.96,108.236 C138.432,109.191 138,111.13 138,112.544 C138,115.497 136.246,123.552 134.961,126.5 C134.482,127.6 133.417,130.188 132.596,132.25 C131.443,135.144 130.548,136 128.673,136 C124.704,136 123.656,133.756 124.431,126.91 C124.809,123.569 125.503,119.86 125.974,118.668 C128.091,113.305 130.991,102.009 131.567,96.882 C132.193,91.301 132.177,91.257 129.134,90.197 C125.75,89.017 123.983,84.837 125.71,82.098 C126.262,81.223 129.078,79.794 131.967,78.923 C134.856,78.052 138.525,76.251 140.119,74.92 C142.714,72.753 143.112,71.613 143.924,64.017 C144.422,59.351 144.617,55.189 144.356,54.767 C143.358,53.152 140.161,54.106 138.602,56.484 C135.314,61.502 129,60.579 129,55.081 C129,52.31 133.312,47.496 139.725,43.107 C141.887,41.627 143.345,39.516 144.15,36.7 C144.81,34.39 145.776,31.938 146.298,31.25 Z M157.75,80.08 C160.287,78.602 160.782,78.738 162.517,81.385 C163.935,83.55 163.933,84.36 162.493,90.135 C161.383,94.586 161.157,97.703 161.743,100.5 C163.005,106.523 165.528,106.281 171.698,99.545 C177.252,93.481 180.056,92.63 182.45,96.284 C185.319,100.662 184.778,102.237 178.314,108.341 C172.461,113.868 170.099,115.068 161.906,116.673 C158.317,117.376 153,110.805 153,105.665 C153,103.714 152.55,101.84 152,101.5 C149.724,100.093 151.805,87.795 154.832,84.768 C155.474,84.126 156,83.037 156,82.35 C156,81.662 156.787,80.641 157.75,80.08 Z M78,198.999 C80.05,197.675 80.062,197.678 84.18,200.476 C86.377,201.969 88.93,205.137 90.609,208.452 L93.394,213.952 L91.022,216.476 C89.718,217.864 88.115,219 87.461,219 C85.16,219 81.152,214.946 78.945,210.385 C76.884,206.13 72.688,203 69.041,203 C68.478,203 66.106,205.929 63.769,209.509 C59.358,216.265 57.691,217.38 52.293,217.182 C47.846,217.019 39,212.251 39,210.018 C39,207.044 41.627,205.677 46.01,206.37 C48.204,206.716 51.688,207.269 53.75,207.598 C56.835,208.089 57.968,207.761 60.14,205.747 C65.304,200.959 69.861,198.752 73.287,199.379 C75.054,199.702 77.175,199.531 78,198.999 Z M154.187,155.139 C151.265,157.352 148.605,159.914 148.275,160.831 C147.945,161.749 146.848,163.694 145.837,165.154 C142.587,169.85 143.389,173.442 148.568,177.397 C153.585,181.227 155.698,181.159 156.628,177.14 C156.963,175.688 157.77,173.6 158.421,172.5 C159.072,171.4 160.195,168.475 160.919,166 C161.642,163.525 162.631,160.195 163.117,158.601 C165.743,149.98 162.604,148.763 154.187,155.139 Z M1.192,209.804 C3.421,208.294 9.467,209.632 13.977,212.633 C16.347,214.21 20.189,216.481 22.515,217.679 C26.918,219.949 31,224.267 31,226.656 C31,227.419 29.94,228.526 28.645,229.116 C26.763,229.973 25.466,229.768 22.185,228.094 C19.927,226.942 17.231,226 16.195,226 C15.158,226 13.515,225.122 12.544,224.048 C11.323,222.7 9.19,222.005 5.639,221.798 L0.5,221.5 L0.192,216.095 C-0.014,212.467 0.315,210.398 1.192,209.804 Z"/>
</svg>

