<svg xmlns="http://www.w3.org/2000/svg" width="300" height="300" viewBox="0 0 300 300" version="1.1">
  <defs/>
  <path d="M174,76 C174,73.885 178.801,75.047 180.448,77.561 C182.668,80.949 181.351,85.02 177.426,86.904 C175.817,87.677 174.275,88.577 174,88.904 C172.718,90.432 165.013,96 164.181,96 C163.666,96 162.654,96.712 161.933,97.581 C160.903,98.821 160.877,99.573 161.81,101.068 C162.465,102.116 163,105.652 163,108.927 C163,112.202 163.451,115.161 164.003,115.502 C164.555,115.843 168.806,113.62 173.451,110.561 C178.095,107.502 182.515,105 183.273,105 C184.031,105 185.714,106.132 187.014,107.515 C188.981,109.609 189.216,110.485 188.417,112.755 C187.89,114.254 186.568,115.645 185.479,115.845 C184.391,116.045 181.124,117.287 178.22,118.605 C175.317,119.922 172.591,121 172.165,121 C168.441,121 158.78,133.027 156.464,140.546 C155.779,142.772 154.271,146.147 153.113,148.046 C151.955,149.946 151.006,152.422 151.004,153.55 C151.002,154.677 150.58,156.027 150.066,156.55 C149.553,157.072 146.846,161.946 144.052,167.38 C140.106,175.053 139.225,177.566 140.108,178.63 C141.913,180.805 142.816,180.285 145.1,175.75 C149.468,167.079 163.678,152.01 171.262,148.006 C176.196,145.401 182.175,144.488 184.867,145.929 C186.613,146.863 187,147.988 187,152.134 C187,158.244 185.434,161.766 179.503,168.996 C177.026,172.015 174.999,174.939 174.997,175.493 C174.996,176.047 173.421,179.11 171.497,182.3 C166.412,190.733 166.606,191.284 176.25,195.842 C180.787,197.986 187.108,200.701 190.296,201.874 C193.484,203.047 197.984,204.997 200.296,206.207 C202.608,207.417 206.75,209.352 209.5,210.507 C214.504,212.608 226.605,220.442 243.5,232.518 C248.45,236.056 253.175,239.273 254,239.667 C254.825,240.06 258.051,241.872 261.168,243.691 C264.286,245.511 267.371,247 268.023,247 C268.676,247 271.21,248.35 273.655,250 C276.1,251.65 278.544,253 279.085,253 C280.775,253 292.481,261.113 294.235,263.5 C295.77,265.589 295.035,270.911 293.066,271.965 C289.444,273.903 286.73,273.033 281.478,268.25 C274.405,261.808 268.895,258.026 260,253.507 C247.793,247.305 241.84,243.977 238.575,241.53 C236.884,240.263 231.425,236.923 226.444,234.11 C221.463,231.297 215.862,227.421 213.998,225.498 C212.133,223.574 210.03,222 209.323,222 C208.617,222 205.668,220.531 202.769,218.737 C195.423,214.187 174.214,204 172.089,204 C171.519,204 169.064,203.034 166.633,201.852 C161.382,199.301 159.534,199.788 157.687,204.206 C156.929,206.018 155.565,208.118 154.655,208.872 C153.745,209.627 152.986,211.202 152.968,212.372 C152.951,213.543 151.376,216.053 149.468,217.952 C147.561,219.85 146,221.746 146,222.165 C146,223.431 134.244,231 132.277,231 C129.05,231 126,228.097 126,225.027 C126,221.681 127.427,220.937 131.296,222.267 C133.505,223.026 134.501,222.856 136.046,221.459 C137.121,220.486 138,219.069 138,218.31 C138,217.551 140.925,213.052 144.5,208.312 C148.075,203.573 151,198.869 151,197.86 C151,196.805 149.291,194.946 146.981,193.488 C143.703,191.419 142.58,191.154 140.897,192.055 C139.264,192.929 138.442,192.805 136.954,191.458 C134.458,189.2 132.342,190.165 131.513,193.941 C131.141,195.632 130.077,197.424 129.148,197.921 C128.218,198.418 126.631,201.125 125.62,203.936 C124.61,206.746 122.932,209.501 121.891,210.058 C120.851,210.615 120,211.63 120,212.314 C120,212.998 117.112,216.42 113.583,219.918 C106.807,226.633 104.594,227.215 103.433,222.587 C102.936,220.609 103.678,219.055 107.001,215.114 C109.308,212.378 111.827,209.897 112.598,209.601 C114.948,208.699 114.162,207 111.394,207 C109.961,207 107.148,205.734 105.144,204.186 C94.671,196.099 89.72,195.138 85.323,200.339 C83.77,202.175 81.057,204.721 79.293,205.995 L76.085,208.313 L66.543,203.7 C56.707,198.945 55.011,196.895 58.51,193.992 C60.583,192.271 67.645,193.338 70.348,195.78 C74.097,199.167 76.92,199.212 80.881,195.946 C82.847,194.326 84.916,192.997 85.478,192.994 C86.04,192.99 87.821,192.299 89.435,191.457 C95.721,188.179 106.174,189.954 110.844,195.093 C112.548,196.967 113.955,199.319 113.971,200.32 C113.992,201.628 114.632,202.049 116.25,201.82 C119.362,201.378 124.384,191.669 123.58,187.649 C123.094,185.22 123.76,183.948 127.881,179.44 C130.563,176.506 133.058,172.907 133.425,171.442 C134.277,168.049 139.77,155.803 143.94,148 C146.795,142.658 144.364,142.994 134.247,149.337 C121.729,157.186 118.479,157.522 116.528,151.165 C116.001,149.447 116.411,148.191 118.08,146.415 C119.328,145.087 120.961,144 121.709,144 C123.402,144 126.893,141.822 134.062,136.291 C137.121,133.931 140.056,132 140.584,132 C141.112,132 143.611,130.088 146.138,127.75 C150.53,123.688 150.805,123.102 152.368,114.5 C153.268,109.55 154.003,105.162 154.002,104.75 C153.998,103.386 152.136,103.968 148.405,106.5 C146.379,107.875 144.334,109 143.86,109 C141.756,109 139,104.797 139,101.587 C139,98.734 139.69,97.665 143.197,95.087 C145.505,93.389 147.986,92 148.711,92 C150.606,92 153.331,90.299 162.726,83.25 C167.308,79.813 171.719,77 172.528,77 C173.338,77 174,76.55 174,76 Z M85.837,29.009 C87.657,27.189 88.492,26.321 89.428,26.194 C90.294,26.076 91.248,26.594 93.151,27.578 C96.005,29.054 96.164,29.428 95.59,33.328 C95.253,35.623 94.549,42.041 94.027,47.591 C93.143,56.991 92.048,63.179 89.977,70.5 C89.51,72.15 88.841,75.75 88.49,78.5 C88.139,81.25 87.254,84.85 86.524,86.5 C85.794,88.15 83.981,94 82.497,99.5 C81.012,105 78.042,112.705 75.898,116.623 C72.114,123.539 71.099,127 72.856,127 C73.327,127 75.775,125.425 78.296,123.5 C83.805,119.293 87.682,118.968 90.942,122.439 C92.818,124.435 93.12,125.567 92.608,128.689 C92.263,130.785 91.706,134.853 91.369,137.729 C91.032,140.605 90.136,143.472 89.378,144.101 C88.62,144.73 88,146.288 88,147.563 C88,148.839 87.55,150.16 87,150.5 C85.787,151.249 85.658,155 86.845,155 C87.31,155 88.545,154.056 89.589,152.901 C93.388,148.704 104.225,153.301 107.144,160.347 C109.563,166.189 105.727,167.802 97.113,164.564 C95.504,163.959 94.603,163.48 93.678,163.427 C91.792,163.317 89.802,164.974 81.487,170.936 C76.76,174.326 72.77,174.106 70.289,170.318 C68.78,168.015 68.885,167.522 72.35,160.605 C74.357,156.597 76,152.436 76,151.359 C76,150.281 76.389,148.973 76.864,148.45 C78.529,146.618 79.805,141.302 78.917,139.894 C78.182,138.729 77.501,138.808 74.769,140.377 C72.971,141.41 70.024,143.097 68.22,144.127 C66.415,145.157 63.88,146 62.585,146 C59.51,146 56.624,141.672 57.342,138.137 C59.393,128.032 62.015,120.727 64.038,119.476 C65.568,118.531 69.297,109.735 71.871,101 C73.086,96.875 74.461,92.6 74.926,91.5 C75.392,90.4 76.228,87.7 76.785,85.5 C77.342,83.3 78.333,79.475 78.986,77 C80.574,70.986 83.874,50.008 84.256,43.5 C84.353,41.85 84.071,38.592 83.63,36.259 C82.893,32.367 83.074,31.772 85.837,29.009 Z M157.2,10.2 C158.674,8.726 161.493,8.658 164.066,10.035 C166.148,11.15 166.789,16.394 164.98,17.513 C163.618,18.354 153,40.426 153,42.416 C153,43.275 151.075,46.57 148.723,49.739 C146.371,52.907 143.699,57.143 142.786,59.152 C141.235,62.564 141.237,62.902 142.813,64.302 C143.741,65.127 146.112,66.466 148.082,67.279 C154.889,70.088 158.043,77.085 154.345,81.171 C152.085,83.668 150.626,83.477 146.785,80.182 C143.798,77.62 135.118,73.007 133.261,72.995 C132.842,72.992 131.18,71.934 129.567,70.643 C126.822,68.447 126.715,68.103 127.89,65.266 C128.58,63.599 130.501,60.945 132.157,59.367 C133.814,57.79 137.618,51.325 140.61,45 C143.603,38.675 146.561,32.6 147.182,31.5 C149.164,27.993 149.834,26.641 152.949,19.857 C154.627,16.203 156,12.806 156,12.307 C156,11.808 156.54,10.86 157.2,10.2 Z M170.16,44.88 C172.516,43.387 173.837,43.919 176.53,47.451 C179.026,50.723 179.105,51.177 178.056,56.231 C177.361,59.577 175.48,63.598 173.005,67.031 C170.835,70.039 168.381,73.995 167.551,75.822 C166.388,78.382 165.52,79.071 163.771,78.822 C161.675,78.525 161.526,78.076 161.837,73 C162.022,69.975 162.81,66.79 163.587,65.921 C164.364,65.053 165,63.314 165,62.058 C165,59.928 164.704,59.817 160.654,60.425 C155.356,61.219 153.427,59.637 154.917,55.719 C156.121,52.552 157.484,51.707 162.471,51.035 C165.346,50.648 166.771,49.841 167.631,48.115 C168.284,46.803 169.422,45.348 170.16,44.88 Z M20.523,197.282 C21.61,196.612 23.4,196.269 24.5,196.518 C25.6,196.768 27.449,196.979 28.61,196.986 C29.77,196.994 34.27,199.953 38.61,203.563 C42.949,207.173 47.619,210.663 48.988,211.321 C52.399,212.959 52.643,215.533 49.576,217.542 C47.185,219.109 46.748,219.097 42.404,217.355 C39.859,216.335 37.115,214.51 36.306,213.299 C35.496,212.089 32.779,210.103 30.266,208.887 C26.541,207.083 25.184,206.869 22.913,207.727 C20.771,208.535 19.652,208.444 18.064,207.332 C14.566,204.882 15.698,200.254 20.523,197.282 Z M166.292,163.823 C148.351,181.913 148.221,182.133 153.402,185.528 C156.508,187.563 157.644,186.902 160.088,181.64 C162.084,177.342 163.287,175.387 168.75,167.557 C174.231,159.703 172.694,157.368 166.292,163.823 Z"/>
</svg>

