<svg xmlns="http://www.w3.org/2000/svg" width="300" height="300" viewBox="0 0 300 300" version="1.1">
  <defs/>
  <path d="M158.646,67.75 C159.577,65.928 160.845,65 162.403,65 C166.255,65 167.49,67.588 167.605,75.905 C167.739,85.668 168.767,90.194 170.762,89.8 C171.598,89.635 172.85,87.573 173.545,85.218 C175.249,79.439 176.647,78 180.554,78 C184.372,78 188,82.066 188,86.345 C188,87.74 188.481,89.179 189.068,89.542 C189.656,89.905 189.837,90.944 189.471,91.851 C189.105,92.758 188.634,96.2 188.425,99.5 C188.112,104.431 187.585,105.901 185.466,107.75 C180.422,112.153 178.571,109.929 179.158,100.174 C179.467,95.053 179.305,94.5 177.5,94.5 C175.967,94.5 175.08,95.766 173.701,99.925 C171.607,106.24 169.267,125.609 169.463,135 C169.685,145.638 168.129,166.275 166.876,169.298 C165.282,173.149 167.043,175.088 170.275,173.041 C171.499,172.266 173.85,170.976 175.5,170.174 C177.15,169.372 179.85,167.739 181.5,166.546 C183.15,165.353 185.941,163.797 187.701,163.088 C191.688,161.481 193.978,158.068 195.418,151.584 C196.254,147.82 197.206,146.18 199.208,145.057 C201.744,143.633 202.081,143.715 205.691,146.628 C208.255,148.697 209.593,150.649 209.785,152.601 C210.059,155.379 210.384,156.388 212.816,162 C214.752,166.47 221.645,184.403 222.874,188.171 C227.349,201.884 230.862,228.71 230.942,249.786 L231,265.071 L226.544,266.981 C222.493,268.718 221.817,268.756 219.097,267.398 C217.451,266.577 215.819,265.005 215.47,263.905 C214.77,261.7 216.487,259 218.587,259 C220.771,259 221.621,255.985 221.827,247.5 C222.046,238.443 220.08,222.136 217.043,207.823 C213.272,190.055 204.869,167.654 201.488,166.357 C200.437,165.954 198.554,166.934 196.179,169.12 C194.156,170.983 190.25,173.603 187.5,174.942 C184.75,176.282 181.825,177.907 181,178.554 C180.175,179.202 178.314,180.012 176.864,180.356 C174.341,180.954 162.535,191.954 156.746,199.1 C154.132,202.326 153.918,202.405 152.564,200.653 C151.779,199.637 151.38,198.174 151.676,197.403 C152.704,194.723 146.414,196.586 143.04,199.96 C140.446,202.554 137.962,202.544 134.635,199.927 C132.392,198.164 132.001,197.084 132.007,192.677 C132.01,189.83 131.491,184.068 130.852,179.873 C130.207,175.633 130.056,171.414 130.513,170.373 C130.964,169.343 131.371,166.98 131.417,165.121 C131.53,160.509 133.676,159.287 138.907,160.854 C142.749,162.005 143,162.31 143,165.818 C143,167.873 142.28,170.583 141.4,171.839 C140.274,173.447 139.988,175.215 140.434,177.811 C142.298,188.656 142.33,188.675 150.696,183.888 C158.815,179.243 159.668,175.698 160.561,142.898 C161.076,124 160.956,121.197 159.612,120.681 C158.678,120.323 157.332,121.034 156.187,122.489 C154.097,125.147 147.526,130.321 141.724,133.88 C138.213,136.033 137.78,136.086 135.563,134.633 C130.81,131.519 129.859,122.848 131.574,98.272 C132.386,86.649 133.458,85.322 139.277,88.741 L142.5,90.634 L142.091,98.067 C141.257,113.198 141.617,119.999 143.25,120.002 C143.938,120.004 147.813,116.529 151.862,112.281 L159.223,104.557 L158.528,95.528 C158.145,90.563 157.409,84.25 156.893,81.5 C155.887,76.145 156.396,72.153 158.646,67.75 Z M84.25,48.491 C89.097,46.384 92.729,46.626 94.077,49.144 C95.763,52.293 94.605,67.326 92.124,74.5 C90.983,77.8 90.042,81.175 90.033,82 C90.018,83.291 88.835,86.541 82.751,102 C82.209,103.375 81.369,105.281 80.883,106.236 C80.397,107.191 80,108.901 80,110.036 C80,111.171 79.395,113.314 78.656,114.8 C77.916,116.285 76.723,119.75 76.004,122.5 C75.284,125.25 74.146,128.175 73.474,129 C72.803,129.825 71.692,132.3 71.006,134.5 C70.32,136.7 69.363,138.928 68.879,139.45 C67.631,140.799 67.79,143 69.135,143 C69.76,143 71.356,141.829 72.683,140.398 C74.757,138.159 75.612,137.892 78.797,138.487 C84.367,139.528 85,140.484 85,147.858 C85,154.188 84.1,157.04 78.888,167.236 C76.716,171.485 79.747,174.21 81.988,170.023 C83.891,166.466 86.543,165.769 90.708,167.73 C95.449,169.963 99.692,177.247 98.115,180.447 C97.559,181.576 96.964,183.4 96.793,184.5 C96.291,187.741 90.739,187.777 88.626,184.552 C86.63,181.505 83.253,181.236 79.885,183.855 C76.633,186.383 70.465,188.282 68.022,187.507 C65.171,186.602 63,184.184 63,181.914 C63,180.846 65.025,175.781 67.5,170.659 C73.667,157.897 73.376,155.187 66.411,160.5 C62.841,163.223 56.318,163.918 54.2,161.8 C51.464,159.064 52.818,151.257 57.861,140.688 C64.806,126.135 68.117,117.627 71.556,105.5 C73.091,100.089 74.022,97.658 78.452,87.5 C82.298,78.68 84.522,61.226 82.334,57.033 C80.057,52.67 80.642,50.059 84.25,48.491 Z M7.039,213.189 C9.921,210.095 13.948,210.222 27,213.818 C28.375,214.197 32.313,216.304 35.75,218.501 C40.337,221.432 42,223.084 42,224.712 C42,227.288 39.325,229.002 35.316,228.995 C32.668,228.99 30.943,228.126 24.663,223.659 C22.897,222.403 20.013,221.752 15.585,221.607 C10.888,221.454 8.529,220.884 7.047,219.543 C4.475,217.215 4.473,215.942 7.039,213.189 Z M61.019,202.45 C62.777,197.825 67.366,199.754 70.545,206.454 C71.423,208.303 73.359,210.32 74.848,210.937 C76.337,211.554 78.162,213.03 78.904,214.218 C80.106,216.143 79.997,216.584 77.899,218.283 C74.797,220.795 69.635,219.983 65.889,216.393 C62.252,212.91 59.758,205.767 61.019,202.45 Z M91.75,208.08 C94.063,206.733 94.477,206.755 98.497,208.434 C103.199,210.399 104.178,214.277 100.819,217.635 C97.788,220.667 95.978,220.076 92.583,214.946 C89.532,210.335 89.423,209.436 91.75,208.08 Z"/>
</svg>

