<svg xmlns="http://www.w3.org/2000/svg" width="300" height="300" viewBox="0 0 300 300" version="1.1">
  <defs/>
  <path d="M133.304,23.164 C134.391,21.824 139.686,22.234 141.121,23.769 C141.669,24.355 142.85,35.834 142.974,41.769 C143.006,43.32 146.43,42.585 151.714,39.891 C156.463,37.47 158.109,37.511 161.447,40.137 C163.977,42.127 164.126,42.661 163.61,47.887 C162.226,61.927 161.781,64.698 160.436,67.651 C159.646,69.384 159,71.657 159,72.701 C159,73.746 158.596,75.028 158.102,75.55 C157.608,76.073 156.895,78.83 156.518,81.678 C155.848,86.736 155.886,86.843 158.166,86.287 C159.45,85.974 161.175,85.15 162,84.456 C162.825,83.762 165.851,82.503 168.725,81.659 L173.951,80.122 L176.137,83.193 C178.849,87.001 178.13,88.372 171.428,92.187 C166.465,95.012 165.765,95.341 160.75,97.215 C159.238,97.78 158,98.779 158,99.434 C158,100.09 156.683,101.888 155.073,103.43 C153.463,104.973 151.629,107.645 150.999,109.367 C149.183,114.329 146.715,119.299 144.782,121.885 C142.281,125.231 142.537,127 145.521,127 C148.828,127 155.225,131.296 158.698,135.848 C162.057,140.252 167,150.483 167,153.031 C167,154.049 167.45,155.16 168,155.5 C168.55,155.84 169,157.666 169,159.559 C169,163.842 171.489,164.245 173.267,160.25 C175.034,156.28 186.497,136.09 189.203,132.181 C196.149,122.145 198.701,120.924 203.051,125.554 C205.363,128.015 205.389,128.206 203.769,130.804 C202.844,132.287 201.112,135.426 199.919,137.78 C198.727,140.135 196.84,142.699 195.726,143.479 C192.182,145.962 183.431,162.074 184.34,164.443 C184.649,165.25 186.812,166.884 189.146,168.074 C196.965,172.064 209.445,180.646 215.5,186.2 C231.069,200.478 256.08,226.207 260.507,232.5 C263.216,236.35 265.673,239.725 265.969,240 C266.514,240.508 272.455,249.161 277,256.068 C278.375,258.158 282.068,263.61 285.207,268.184 C288.346,272.758 291.207,277.738 291.565,279.25 C291.924,280.762 292.618,282 293.108,282 C294.461,282 294.174,286.616 292.75,287.755 C289.9,290.036 287.126,290.129 285.301,288.007 C284.311,286.855 281.095,283.474 278.156,280.494 C273.058,275.326 272.842,274.895 273.477,271.137 C274.109,267.394 273.777,266.713 266.821,257.497 C262.795,252.162 258.825,246.805 258,245.592 C256.701,243.683 253.847,240.14 241.813,225.497 C237.635,220.414 231.605,214.477 225,208.945 C221.425,205.95 218.136,202.931 217.692,202.235 C217.248,201.54 216.348,200.556 215.692,200.05 C215.036,199.543 211.562,196.512 207.972,193.314 C198.34,184.736 196.666,183.547 182.522,175.23 C179.463,173.432 176.053,171.053 174.944,169.944 C173.835,168.835 172.56,168.154 172.112,168.431 C171.664,168.708 171.297,176.622 171.297,186.018 C171.297,197.549 170.924,203.476 170.149,204.251 C169.517,204.883 168.986,206.997 168.969,208.95 C168.952,210.902 167.831,214.75 166.478,217.5 C165.125,220.25 164.014,222.852 164.009,223.282 C163.988,225.091 154.621,238.11 150.963,241.414 C147.638,244.419 146.259,245 142.457,245 C138.408,245 137.502,244.547 134.03,240.787 C131.722,238.288 129.464,234.424 128.477,231.287 C127.562,228.379 126.444,226 125.993,226 C125.086,226 119,235.503 119,236.92 C119,237.409 115.136,242.15 110.413,247.454 L101.826,257.098 L96.663,256.799 C92.121,256.536 91.46,256.22 91.17,254.168 C90.738,251.118 93.004,248.733 99.338,245.574 C104.628,242.936 110.291,236.331 116.066,226.062 C117.477,223.553 121.142,217.675 124.21,213 C136.168,194.781 150.812,165.53 149.238,163.009 C148.369,161.617 148.72,160.658 151.021,158.138 C152.598,156.412 154.314,155 154.837,155 C156.399,155 157.066,151.992 155.961,149.928 C154.552,147.295 152.342,147.503 151.631,150.334 C151.309,151.618 149.711,154.347 148.081,156.399 C146.45,158.45 144.167,162.089 143.008,164.484 C141.849,166.879 140.247,169.38 139.45,170.042 C138.652,170.703 138,171.71 138,172.278 C138,172.846 136.875,174.786 135.5,176.589 C134.125,178.392 133,180.283 133,180.793 C133,181.302 131.477,183.644 129.615,185.996 C127.753,188.349 125.633,192.125 124.903,194.387 C123,200.291 118.316,207.966 114.312,211.742 C112.412,213.534 110.552,214.986 110.179,214.968 C108.503,214.89 106.007,212.106 106.073,210.39 C106.144,208.555 106.614,207.696 112.078,199.41 C113.496,197.259 116.814,191.45 119.453,186.5 C122.091,181.55 125.255,176.15 126.483,174.5 C129.227,170.813 136.182,158.412 139.663,151 C141.084,147.975 142.936,144.038 143.78,142.252 C145.193,139.258 145.171,138.847 143.502,137.002 C142.505,135.901 140.558,135 139.174,135 C136.695,135 133,137.494 133,139.166 C133,139.637 131.2,142.66 129,145.883 C126.8,149.106 124.992,152.138 124.982,152.621 C124.973,153.105 122.61,155.863 119.732,158.75 C116.855,161.638 112.833,165.673 110.795,167.717 C107.226,171.299 106.966,171.389 103.666,170.196 C101.217,169.311 99.476,169.249 97.555,169.979 C94.506,171.138 92.736,170.415 89.145,166.541 C86.25,163.417 86.139,163.416 81.595,166.5 C79.569,167.875 77.594,168.993 77.206,168.984 C76.818,168.976 74.145,170.192 71.266,171.687 L66.032,174.405 L63.016,171.516 C59.632,168.273 59.048,163.844 61.564,160.514 C62.39,159.422 63.909,155.822 64.941,152.514 C65.973,149.206 67.758,144.325 68.909,141.667 C71.072,136.669 71.609,133 70.178,133 C69.726,133 67.589,134.337 65.428,135.972 C58.957,140.869 49,139.751 49,134.129 C49,133.178 50.913,129.702 53.25,126.405 C58.708,118.706 60,116.405 60,114.383 C60,113.479 61.516,109.76 63.369,106.12 C66.941,99.101 68.901,94.093 69.677,90 C69.937,88.625 70.627,86.375 71.209,85 C71.791,83.625 72.649,81.6 73.116,80.5 C73.582,79.4 74.461,76.475 75.068,74 C75.675,71.525 76.831,66.8 77.637,63.5 C78.443,60.2 79.092,53.132 79.079,47.794 C79.053,37.054 79.985,35 84.88,35 C90.144,35 91.239,36.808 90.665,44.552 C89.877,55.194 88.52,62.88 87.197,64.203 C86.539,64.861 86.002,66.323 86.005,67.45 C86.008,68.578 85.35,71.525 84.543,74 C80.719,85.734 78,95.298 78,97.017 C78,98.059 76.928,100.491 75.618,102.422 C74.307,104.353 72.919,107.62 72.532,109.682 C72.145,111.745 70.997,114.6 69.981,116.027 C67.321,119.762 66.394,124 68.237,124 C69.036,124 70.505,123.1 71.5,122 C73.826,119.43 77.426,119.455 81.096,122.068 C84.375,124.403 84.809,127.388 82.591,132.349 C81.816,134.082 80.953,136.625 80.673,138 C79.835,142.105 77.635,147.32 75.396,150.506 C72.59,154.499 71.498,159 73.335,159 C74.88,159 78.598,155.553 81.297,151.619 C83.527,148.367 87.064,148.215 89.872,151.25 C95.571,157.41 98.193,160.703 99.031,162.75 C99.537,163.988 100.323,165 100.778,165 C103.442,165 117.431,148.045 123.469,137.5 C125.043,134.75 128.186,130.25 130.453,127.5 C132.72,124.75 135.213,121.15 135.994,119.5 C136.775,117.85 137.963,115.825 138.634,115 C139.304,114.175 139.999,111.703 140.177,109.506 L140.5,105.512 L137,105.84 C135.075,106.021 133.073,106.581 132.55,107.084 C132.028,107.588 130.671,108 129.535,108 C128.4,108 125.791,108.9 123.739,110 C119.104,112.484 118.484,112.484 116,110 C111.713,105.713 114.342,100.761 121.5,99.639 C123.7,99.295 128.865,97.76 132.977,96.228 C140.616,93.384 140.761,93.244 144.403,85.199 C145.971,81.737 145.548,78.579 143.627,79.393 C143.007,79.655 140.752,80.439 138.614,81.134 C134.86,82.355 134.647,82.299 132.306,79.449 C131.753,78.776 131.314,78.313 130.989,77.781 C129.735,75.731 130.171,72.648 132.28,52.5 C133.108,44.591 133.363,36.563 132.93,32 C132.463,27.069 132.591,24.042 133.304,23.164 Z M157.174,169.75 C156.68,170.713 155.954,172.85 155.56,174.5 C155.166,176.15 154.297,178.175 153.629,179 C152.961,179.825 151.836,182.203 151.13,184.284 C150.424,186.365 146.622,192.89 142.682,198.784 C133.819,212.042 132.998,213.574 133.006,216.864 C133.016,220.947 139.28,232.444 141.69,232.801 C146.314,233.487 157.028,217.39 159.865,205.497 C161.531,198.512 162.728,182.791 162.205,174.75 C161.833,169.009 161.491,168 159.919,168 C158.902,168 157.667,168.787 157.174,169.75 Z M45.667,198.667 C47.6,196.734 51.601,198.269 55.655,202.5 C59.916,206.947 62.274,207.984 63.525,205.959 C66.164,201.69 83.652,196.252 86.283,198.883 C86.897,199.497 88.098,200.006 88.95,200.014 C89.803,200.022 93.087,202.309 96.25,205.097 C101.061,209.338 102,210.704 102,213.46 C102,218.478 99.847,219.655 95.809,216.844 C93.989,215.577 91.313,213.483 89.863,212.191 C86.611,209.294 78.277,205 75.907,205 C73.575,205 68.296,209.526 66.438,213.119 C65.187,215.539 64.331,216 61.089,216 C58.108,216 56.869,215.448 55.642,213.576 C54.768,212.243 53.141,210.862 52.027,210.508 C50.912,210.155 50,209.299 50,208.607 C50,207.915 48.875,206.292 47.5,205 C45.077,202.724 44.299,200.034 45.667,198.667 Z M0,209.965 L0,206 L4.154,206 C8.35,206 11.263,207.213 26.438,215.28 C35.559,220.129 37.515,222.363 34.559,224.559 C32.036,226.432 25.588,226.413 24.024,224.529 C22.252,222.394 11.388,217.159 7.139,216.393 C1.06,215.297 0,214.343 0,209.965 Z M141.641,53.783 C141.4,54.177 140.881,57.532 140.487,61.237 C139.669,68.919 140.868,70.443 145.396,67.476 C149.86,64.551 152.904,55.519 149.75,54.555 C146.507,53.564 142.034,53.138 141.641,53.783 Z"/>
</svg>

