<svg xmlns="http://www.w3.org/2000/svg" width="300" height="300" viewBox="0 0 300 300" version="1.1">
  <defs/>
  <path d="M174.872,139.652 C176.629,137.538 179.4,137.543 181.52,139.662 C182.913,141.056 183.096,142.794 182.647,150.412 C181.989,161.599 181.106,166.886 179.46,169.496 C178.765,170.598 177.903,172.911 177.544,174.635 L176.891,177.771 L191.158,185.635 C199.005,189.961 206.342,194.029 207.463,194.675 C208.583,195.321 211.405,196.755 213.733,197.861 C216.062,198.968 219.437,200.977 221.233,202.327 C223.03,203.677 228.325,206.882 233,209.449 C244.427,215.725 248.014,217.866 250.864,220.108 C252.187,221.149 253.725,222 254.281,222 C254.838,222 257.666,223.575 260.566,225.5 C263.466,227.425 266.091,229 266.4,229 C266.709,229 269.557,230.647 272.731,232.66 C281.63,238.305 292.796,248.051 293.478,250.769 C294.219,253.72 291.697,258.004 289.227,257.99 C288.277,257.984 284.35,255.055 280.5,251.48 C273.128,244.634 266.783,240.037 258.5,235.54 C255.75,234.047 250.35,230.845 246.5,228.423 C242.65,226.002 238.825,223.713 238,223.337 C237.175,222.961 232.225,220.173 227,217.142 C212.169,208.54 196.583,200.014 195.674,200.006 C195.219,200.003 191.545,197.782 187.51,195.071 C183.474,192.36 178.525,189.687 176.511,189.131 C172.867,188.124 170,188.506 170,189.998 C170,190.972 159.032,207.737 155.846,211.632 C149.011,219.987 138.972,228.915 135.725,229.524 C129.617,230.67 126.822,229.797 124.765,226.099 C123.113,223.132 123.057,222.515 124.32,221.252 C125.434,220.137 126.238,220.057 127.818,220.902 C131.319,222.776 133.782,222.138 138.042,218.25 C143.55,213.225 154.972,198.071 159.458,189.837 L163.088,183.175 L160.821,181.587 C159.575,180.714 158.196,180 157.758,180 C157.319,180 155.282,178.944 153.23,177.653 C151.179,176.362 147.874,175.003 145.887,174.633 C140.07,173.551 136.635,168.165 139.643,164.842 C140.956,163.391 142.138,163.115 144.918,163.611 C148.075,164.174 157.76,168.859 163.51,172.606 C164.615,173.326 165.975,173.597 166.533,173.208 C168.621,171.749 171,166.972 171,164.235 C171,162.676 171.41,160.973 171.911,160.45 C172.412,159.928 172.974,155.406 173.161,150.402 C173.377,144.609 173.999,140.704 174.872,139.652 Z M103.083,45.4 C104.275,43.964 109.391,44.044 110.844,45.522 C111.778,46.471 111.201,65.101 110.164,67.5 C109.209,69.708 108.255,72.422 104.013,85 C102.436,89.675 100.213,95.391 99.073,97.702 C97.933,100.013 97,102.418 97,103.047 C97,103.677 96.261,105.611 95.357,107.346 C92.331,113.156 92,113.965 92,115.548 C92,116.415 90.839,119.683 89.419,122.812 C88,125.94 86.471,129.4 86.023,130.5 C81.827,140.781 81,143.076 81,144.435 C81,146.971 83.262,146.223 86.89,142.489 C90.944,138.318 95.027,137.811 96.864,141.25 C97.754,142.915 97.809,145.31 97.078,150.462 C96.535,154.291 96.272,157.605 96.493,157.826 C96.714,158.047 98.098,157.282 99.568,156.125 C102.299,153.977 105.948,154.051 108.812,156.312 C110.911,157.969 116.147,169.959 115.809,172.334 C115.566,174.037 114.714,174.565 111.821,174.806 C108.702,175.066 107.799,174.648 105.883,172.056 C104.641,170.375 103.003,169 102.245,169 C101.486,169 98.296,171.7 95.156,175 C92.016,178.3 88.756,181 87.912,181 C84.747,181 82,177.125 82,172.661 C82,170.317 82.394,167.973 82.876,167.45 C84.035,166.193 85.292,155.994 84.284,156.022 C83.853,156.034 82.375,156.924 81,158 C79.625,159.076 77.522,159.966 76.327,159.978 C73.379,160.008 67.679,154.239 68.559,152.117 C69.313,150.302 70.862,144.781 71.68,141 C71.977,139.625 73.295,136.165 74.61,133.312 C75.924,130.458 77,127.713 77,127.211 C77,126.709 78.125,124.182 79.5,121.596 C80.875,119.01 82,116.045 82,115.006 C82,113.968 82.45,112.84 83,112.5 C83.55,112.16 84,110.839 84,109.563 C84,108.288 84.675,106.685 85.5,106 C86.325,105.315 87,104.129 87,103.364 C87,102.599 87.422,101.191 87.938,100.236 C90.349,95.772 94,86.971 94,85.621 C94,84.794 94.45,83.84 95,83.5 C95.55,83.16 96.014,81.896 96.032,80.691 C96.049,79.486 96.724,77.626 97.532,76.559 C98.339,75.491 99,73.549 99,72.243 C99,70.937 99.43,69.066 99.955,68.085 C100.48,67.103 101.022,63.034 101.159,59.041 C101.323,54.267 101.846,51.613 102.686,51.29 C103.634,50.926 103.693,50.294 102.912,48.836 C102.151,47.414 102.198,46.466 103.083,45.4 Z M156.485,47.25 C157.598,44.172 165.966,47.29 166.032,50.807 C166.049,51.738 166.724,53.374 167.532,54.441 C168.35,55.523 169,58.511 169,61.191 C169,65.168 169.314,66 170.813,66 C171.81,66 173.919,64.65 175.5,63 C180.068,58.232 184.812,59.865 182.234,65.317 C181.666,66.518 180.66,68.943 179.997,70.708 C179.335,72.472 175.152,77.551 170.702,81.994 L162.612,90.074 L164.364,93.039 C165.373,94.748 165.778,96.533 165.318,97.252 C164.88,97.938 164.204,101.425 163.817,105 C162.672,115.578 161.389,121.243 159.129,125.702 C157.958,128.013 157,130.32 157,130.829 C157,131.338 156.325,132.315 155.5,133 C154.675,133.685 154,135.096 154,136.136 C154,137.176 153.55,138.921 153,140.014 C152.45,141.106 151.55,142.894 151,143.986 C150.45,145.079 150,146.451 150,147.034 C150,147.618 148.431,150.549 146.512,153.548 C143.848,157.713 142.448,159 140.58,159 C139.057,159 137.908,158.284 137.532,157.102 C137.018,155.483 139.565,148.45 143.086,141.764 C143.589,140.809 144,139.207 144,138.205 C144,137.202 144.661,135.509 145.468,134.441 C146.276,133.374 146.951,131.514 146.968,130.309 C146.986,129.104 147.45,127.84 148,127.5 C148.55,127.16 149,125.956 149,124.825 C149,123.694 149.723,120.458 150.607,117.634 C153.592,108.096 154,106.366 154,103.238 C154,101.522 154.45,99.84 155,99.5 C155.55,99.16 156,97.956 156,96.824 C156,95.151 155.58,94.897 153.75,95.464 C148.484,97.096 147.247,97.104 145.658,95.515 C141.753,91.61 144.242,86.465 151,84.471 C152.375,84.065 155.188,82.405 157.25,80.782 L161,77.832 L161,69.875 C161,63.222 160.636,61.427 158.778,58.913 C156.681,56.077 155.488,50.008 156.485,47.25 Z M98.381,206.265 C102.661,203.77 116.786,205.66 121.032,209.296 C123.961,211.803 123.531,215.255 120.033,217.322 C117.123,219.04 116.927,219.015 109.928,216.037 C106.002,214.367 102.164,213 101.398,213 C100.632,213 98.165,214.663 95.915,216.696 C91.122,221.026 87.045,221.427 81.662,218.1 C79.793,216.945 77.515,216 76.601,216 C74.134,216 73.557,213.325 75.413,210.492 C77.356,207.526 81.273,207.209 86.306,209.609 C87.493,210.175 88.24,210.569 89.023,210.66 C90.629,210.848 92.383,209.761 98.381,206.265 Z M31.75,218.045 C34.363,216.47 39.881,217.793 44.448,221.089 C46.677,222.698 50.525,225.47 53,227.25 C55.947,229.37 58.67,230.489 60.889,230.493 C65.776,230.503 67.166,233.13 64.042,236.455 C60.916,239.783 56.423,239.777 51.501,236.436 C45.902,232.637 36.936,228 35.188,228 C30.775,228 28.097,220.246 31.75,218.045 Z M198,107.718 C205.332,106.884 207.793,107.046 208.947,108.436 C211.168,111.113 206.542,116.571 200.823,118.02 C198.995,118.483 193.912,119.779 189.527,120.9 C182.293,122.749 181.339,122.797 179.223,121.411 C175.585,119.027 175.328,116.975 178.343,114.382 C181.073,112.034 191.684,108.436 198,107.718 Z"/>
</svg>

