<svg xmlns="http://www.w3.org/2000/svg" width="300" height="300" viewBox="0 0 300 300" version="1.1">
  <defs/>
  <path d="M160.5,162.906 C164.701,160.436 166.506,160.598 168.489,163.624 C171.33,167.96 169.265,170.744 160,175.069 C154.362,177.701 150.529,179.915 150.279,180.684 C150.133,181.133 151.283,182.222 152.834,183.104 L155.655,184.709 L155.706,199.443 C155.738,208.948 156.196,215.121 156.994,216.838 C159.373,221.954 159.644,222.372 161.067,223.12 C167.122,226.303 170.395,227.35 176.5,228.056 C180.35,228.501 186.2,229.339 189.5,229.918 C211.402,233.763 230.615,235.6 232.959,234.073 C234.925,232.793 236.292,206.771 235.46,186.437 C234.915,173.104 235.036,171.215 236.516,169.986 C237.979,168.773 238.425,168.906 240.072,171.049 C241.463,172.859 241.963,175.2 241.983,180 C241.999,183.575 242.434,188.075 242.95,190 C243.466,191.925 244.601,200.511 245.472,209.081 C246.884,222.971 246.894,225.353 245.568,231.038 C242.449,244.41 239.035,245.905 217,243.55 C208.475,242.639 199.475,241.493 197,241.005 C194.525,240.516 188.45,239.601 183.5,238.971 C161.325,236.151 152.266,232.49 149.398,225.189 C148.602,223.16 147.473,220.658 146.891,219.629 C146.266,218.525 145.843,211.255 145.857,201.879 C145.878,188.551 145.646,186 144.41,186 C143.6,186 142.698,186.787 142.405,187.75 C139.256,198.101 125.564,222.213 116.604,233.184 C109.636,241.717 107,245.26 107,246.095 C107,246.593 105.906,247 104.568,247 C101.49,247 97.15,241.45 98.877,239.723 C99.495,239.105 100,237.903 100,237.05 C100,236.197 101.588,234.233 103.53,232.684 C105.471,231.135 108.258,227.985 109.723,225.684 C111.187,223.383 113.37,220.375 114.574,219 C117.088,216.126 128,198.125 128,196.85 C128,195.236 124.678,196.008 121.594,198.339 C117.039,201.783 112.433,202.433 109.979,199.979 C107.775,197.775 107.355,193.045 109.2,191.2 C109.86,190.54 112.039,190 114.043,190 C116.98,190 120.476,188.14 132.093,180.397 C140.017,175.115 148.975,169.416 152,167.732 C155.025,166.049 158.85,163.877 160.5,162.906 Z M73.757,58.75 C76.844,55.507 79.993,55.23 82.485,57.983 C84.004,59.662 84.174,60.999 83.591,66.69 C83.212,70.388 82.488,73.912 81.983,74.521 C81.477,75.13 80.422,78.378 79.638,81.739 C78.854,85.1 77.315,89.571 76.218,91.675 C75.121,93.779 73.641,97.525 72.929,100 C72.218,102.475 70.174,107.266 68.387,110.646 C66.601,114.027 64.456,119.093 63.621,121.905 C62.786,124.717 61.434,128.251 60.616,129.759 C59.799,131.267 58.367,134.631 57.435,137.236 C56.502,139.841 55.123,142.483 54.37,143.108 C53.616,143.733 53,145.035 53,146 C53,147.471 53.685,147.678 57.25,147.282 C60.847,146.883 61.863,147.199 63.864,149.341 L66.228,151.871 L64.114,154.84 C62.951,156.473 62,158.343 62,158.997 C62,159.65 61.087,161.345 59.971,162.764 C58.498,164.637 58.245,165.638 59.046,166.421 C59.84,167.198 60.769,166.73 62.362,164.75 C64.076,162.62 65.433,162 68.377,162 C71.574,162 72.881,162.723 76.597,166.546 C80.289,170.346 80.912,171.536 80.389,173.796 C78.709,181.046 74.277,183.053 70,178.5 C68.708,177.125 67.289,176 66.846,176 C66.403,176 63.669,178.442 60.771,181.426 C54.12,188.273 50.577,189.372 47.329,185.596 C46.048,184.107 45,182.036 45,180.993 C45,179.061 47.26,169.881 48.495,166.799 C49.079,165.341 48.689,165.176 45.783,165.648 C42.77,166.137 42.079,165.793 39.632,162.584 C36.577,158.579 36.676,157.184 40.49,150.5 C45.828,141.144 47,138.886 47,137.957 C47,137.418 48.526,133.719 50.392,129.738 C55.888,118.011 63.023,100.003 65.004,92.861 C66.017,89.21 67.816,84.321 69.002,81.996 C70.69,78.687 71.156,76.006 71.149,69.635 C71.141,62.221 71.372,61.256 73.757,58.75 Z M148.656,33.384 C153.822,26.611 157.251,30.598 157.359,43.5 C157.409,49.513 153.966,64.131 151.919,66.598 C150.49,68.32 151.594,70 154.155,70 C156.984,70 161.884,73.061 162.584,75.264 C162.94,76.385 162.183,78.382 160.632,80.415 C158.51,83.198 157.303,83.813 153.18,84.209 C149.376,84.574 146.51,85.852 140.546,89.841 C132.626,95.138 130.288,95.888 128.2,93.8 C126.881,92.481 126.604,87.139 127.765,85.399 C128.169,84.794 130.428,83.091 132.784,81.615 C139.18,77.609 141,75.413 141,71.7 C141,69.885 141.415,67.973 141.922,67.45 C142.832,66.513 144.562,58.986 143.861,59.015 C142.476,59.073 136.017,61.863 133.757,63.38 C130.199,65.768 126.442,64.898 125.586,61.488 C124.617,57.627 126.488,55.287 133.288,51.855 C143.262,46.821 146,44.335 146,40.315 C146,38.123 146.968,35.597 148.656,33.384 Z M170.204,88.283 C172.766,85.556 172.841,85.547 175.178,87.661 C176.188,88.575 178.004,89.816 179.214,90.419 C180.611,91.116 181.705,92.918 182.212,95.358 C182.893,98.637 182.656,99.62 180.59,102.076 C179.259,103.658 177.88,106.425 177.526,108.226 C177.173,110.027 176.492,112.4 176.012,113.5 C173.097,120.194 171.13,127.53 172.014,128.414 C172.652,129.052 173.429,128.837 174.246,127.797 C176.497,124.934 179.441,124.776 181.893,127.387 C185.802,131.547 184.52,134.587 176.5,140.179 C162.673,149.82 157.379,151.181 155.802,145.5 C155.067,142.856 155.367,142.144 158.327,139.5 C161.327,136.82 161.867,135.497 163.39,127.097 C165.385,116.094 164.716,114.378 159.984,118.36 C156.466,121.32 154.267,121.647 151.497,119.621 C149.804,118.384 149.736,117.825 150.829,114.175 C151.782,110.994 153.615,108.837 159.234,104.279 C165.201,99.44 166.56,97.782 167.24,94.509 C167.69,92.34 169.024,89.539 170.204,88.283 Z M120.557,108.223 C123.555,103.942 129,106.255 129,111.809 C129,113.159 129.9,113.93 131.957,114.341 C134.883,114.927 134.908,114.988 134.319,120.216 C133.993,123.122 133.4,125.95 133.003,126.5 C131.134,129.09 130.999,134.583 132.726,137.817 L134.5,141.141 L131.75,143.154 C130.238,144.261 129,145.834 129,146.65 C129,147.466 127.765,149.753 126.254,151.733 C122.083,157.202 111.526,168 110.35,168 C109.778,168 108.478,168.92 107.46,170.044 C105.082,172.672 102.282,172.204 100.252,168.84 C98.657,166.198 98.689,166.133 105.227,159.072 C111.038,152.796 118,141.311 118,138.002 C118,137.236 116.567,137.092 113.512,137.551 C109.796,138.108 108.909,137.927 108.362,136.501 C107.255,133.616 109.291,127.654 111.811,126.402 C117.426,123.614 119,121.277 119,115.729 C119,112.565 119.625,109.553 120.557,108.223 Z M0,222.488 L0,216.976 L4.25,217.616 C6.588,217.967 9.625,219.23 11,220.422 C14.006,223.026 20.359,226 22.917,226 C26.248,226 26.316,230.166 23.034,233.25 C21.686,234.517 20.828,235.386 19.797,235.715 C17.642,236.403 14.733,234.726 5,229.384 C3.625,228.63 1.938,228.01 1.25,228.006 C0.402,228.002 0,226.228 0,222.488 Z M32.2,212.2 C34.062,210.338 41.39,210.737 44.115,212.848 C45.427,213.864 47.706,214.989 49.18,215.349 C54.463,216.638 56.708,221.015 53.082,222.956 C50.863,224.143 46.614,223.451 39.516,220.744 C36.757,219.692 33.712,218.592 32.75,218.299 C30.746,217.69 30.413,213.987 32.2,212.2 Z M64.5,209.714 C69.669,208.419 81,213.599 81,217.257 C81,220.226 78.137,223 75.072,223 C71.497,223 60,216.088 60,213.939 C60,211.978 61.651,210.428 64.5,209.714 Z"/>
</svg>

