<svg xmlns="http://www.w3.org/2000/svg" width="300" height="300" viewBox="0 0 300 300" version="1.1">
  <defs/>
  <path d="M81.404,8.765 C82.956,7.725 84.776,7.829 85.5,9 C86.288,10.274 90.584,10.293 92.94,9.032 C94.293,8.308 95.173,8.533 96.432,9.925 C97.931,11.581 97.962,12.156 96.713,15.143 C95.941,16.989 94.565,19.118 93.655,19.872 C91.142,21.956 91.224,39.789 93.75,40.679 C94.713,41.018 96.963,42.377 98.75,43.699 C103.52,47.226 103.3,49.873 97.142,63 C96.239,64.925 94.713,67.305 93.75,68.289 C88.163,74 95.801,73.222 101.786,67.47 C106.993,62.467 110.272,61.891 110.837,65.881 C111.434,70.106 107.914,74.929 101.5,78.675 C92.441,83.965 90,86.639 90,91.27 C90,95.824 91.572,95.887 94.031,91.431 C96.437,87.069 100.792,86.946 104.967,91.121 C108.454,94.608 112.746,100.845 114.69,105.25 C115.357,106.762 116.566,108 117.375,108 C119.339,108 128.349,94.352 127.627,92.471 C127.207,91.375 125.322,91 120.231,91 C112.962,91 111,90.027 111,86.422 C111,82.615 113.281,81.741 121.731,82.309 C126.004,82.596 130.693,83.138 132.151,83.513 C134.58,84.138 135.176,83.621 139.249,77.348 C143.574,70.686 145.867,65 144.229,65 C143.784,65 141.431,66.8 139,69 C132.638,74.757 128.137,74.379 126.524,67.951 C125.63,64.39 129.195,60 132.982,60 C135.142,60 137.193,58.569 141.582,54 C146.327,49.06 147.924,48 150.622,48 C153.162,48 154.471,48.751 156.449,51.344 C159.122,54.848 159.687,57.457 158,58.5 C157.45,58.84 157,59.829 157,60.699 C157,61.568 154.525,67.182 151.5,73.175 C148.475,79.168 146,84.903 146,85.92 C146,87.754 148.759,89.107 162.5,94.011 C165.25,94.992 171.1,97.152 175.5,98.812 C179.9,100.471 185.035,102.319 186.912,102.918 C191.628,104.426 201.966,110.313 205.265,113.37 C208.201,116.091 208.686,118.828 206.85,122.316 C205.332,125.201 204.059,125.966 200.75,125.985 C198.01,126 197.633,125.384 197.941,121.404 C198.303,116.722 190.65,112.76 166.211,104.973 C159.22,102.746 150.8,100.04 147.5,98.961 C137.94,95.836 137.846,95.875 130.189,106.25 C126.434,111.338 121.764,118.875 119.811,123 C114.969,133.23 112.803,137.639 110.798,141.35 C108.686,145.259 108.625,146 110.416,146 C111.195,146 113.258,144.2 115,142 C118.687,137.344 120.731,137.02 124.058,140.562 C126.456,143.114 126.458,143.137 124.603,146.312 C123.579,148.065 121.75,151.3 120.539,153.5 C114.461,164.54 109.462,172.441 105.988,176.5 C105.046,177.6 104.031,179.512 103.732,180.75 C102.813,184.546 106.442,183.463 110.157,178.831 C111.996,176.539 115.975,171.938 119,168.608 C122.025,165.277 125.625,161.226 127,159.604 C133.156,152.343 133.69,152 138.852,152 C144.079,152 152.242,155.424 158.944,160.428 C160.839,161.843 162.792,163 163.286,163 C163.779,163 166.344,165.137 168.985,167.75 C172.619,171.343 173.951,173.502 174.459,176.614 C175.282,181.661 173.131,184.676 169.931,182.963 C168.869,182.395 167.985,181.383 167.967,180.715 C167.948,180.047 167.105,178.508 166.093,177.295 C163.815,174.566 143.788,164 140.893,164 C138.609,164 124,178.206 124,180.427 C124,181.122 124.9,182.505 126,183.5 C127.227,184.61 128,186.58 128,188.596 C128,190.403 128.45,192.16 129,192.5 C129.55,192.84 130,194.637 130,196.494 C130,198.351 130.522,201.137 131.159,202.685 C134.14,209.922 136.16,263.581 133.598,267.49 C131.617,270.514 127.67,271.398 124.19,269.598 C120.273,267.572 113,259.437 113,257.081 C113,256.002 112.55,254.84 112,254.5 C111.45,254.16 111,252.178 111,250.096 C111,245.911 108.082,242.243 105.813,243.575 C105.091,243.998 101.125,247.094 97,250.453 C76.891,266.832 68.407,270.341 58,266.585 C52.361,264.549 53.287,261.912 60.5,259.463 C63.8,258.343 68.525,256.367 71,255.072 C75.526,252.705 89.578,242.551 90.178,241.214 C90.874,239.663 106.345,228 107.706,228 C108.502,228 110.436,229.282 112.002,230.848 C114.482,233.329 114.779,234.232 114.295,237.839 C113.989,240.117 114.167,242.548 114.689,243.24 C115.212,243.933 116.268,246.525 117.035,249 C119.045,255.484 121.915,260 124.027,260 C125.498,260 125.993,258.904 126.557,254.393 C127.835,244.163 123.715,201.073 120.968,195.941 C120.436,194.946 120,192.513 120,190.534 C120,185.096 117.752,185.023 112.135,190.277 C103.576,198.283 98.657,199.748 94.455,195.545 C92.437,193.528 92,192.101 92,187.532 C92,184.474 92.399,181.191 92.886,180.236 C93.373,179.281 94.807,176.123 96.073,173.217 L98.373,167.933 L94.687,164.353 C89.259,159.081 89.3,158.859 99.702,137 C102.188,131.775 104.622,126.719 105.111,125.764 C105.6,124.809 106,122.923 106,121.573 C106,120.223 106.45,118.84 107,118.5 C109.277,117.093 107.991,111.317 104.366,106.664 C102.368,104.099 100.199,102 99.548,102 C98.896,102 96.594,103.614 94.432,105.586 C92.269,107.558 86.9,111.525 82.5,114.401 C70.246,122.412 64.55,123.805 60.314,119.826 C57.419,117.106 57.312,112.8 60,107.236 C61.1,104.959 62,102.85 62,102.548 C62,101.186 59.489,102.242 56.514,104.854 C53.755,107.276 51.796,107.902 43.569,108.991 C37.945,109.735 33.525,109.902 33.042,109.387 C32.585,108.899 31.909,107.067 31.54,105.316 C30.973,102.623 31.26,101.876 33.394,100.477 C35.041,99.398 36.903,99.039 38.751,99.445 C42.175,100.197 51.412,96.9 62.66,90.91 C66.972,88.613 71.771,86.07 73.324,85.257 C76.841,83.417 77.848,81.054 75.64,79.818 C73.638,78.698 73.381,78.403 66.669,69.5 C63.766,65.65 60.228,61.937 58.807,61.249 C55.573,59.683 54.04,53.531 56.316,51.255 C58.109,49.463 60.639,50.179 64.206,53.489 C67.76,56.786 68.675,56.664 71.087,52.577 C72.198,50.694 75.108,47.513 77.554,45.51 L82,41.866 L82,34.555 C82,26.372 80.678,24.031 77.13,25.931 C74.613,27.278 70.314,27.317 69.5,26 C69.16,25.45 67.994,25 66.91,25 C64.456,25 63.37,22.464 64.989,20.514 C65.655,19.71 67.843,18.756 69.85,18.393 C75.524,17.367 78.903,15.24 79.639,12.232 C80.007,10.729 80.801,9.169 81.404,8.765 Z M121.975,1.53 C123.797,-0.666 127.993,-0.355 130.686,2.174 C132.463,3.844 133,5.431 133,9.008 C133,11.57 133.269,13.936 133.598,14.264 C134.822,15.489 137.061,13.67 138.672,10.141 C139.587,8.139 141.005,5.713 141.823,4.75 C143.788,2.437 148.257,2.522 150.421,4.913 C152.132,6.803 152.207,11.073 150.807,27 C150.545,29.982 150.833,30.547 152.754,30.82 C154.218,31.028 155.247,30.502 155.687,29.32 C158.517,21.724 163.975,19.782 166.661,25.415 C168.24,28.727 168.209,28.967 165.628,33.372 C163.131,37.632 153.09,46.041 150.587,45.968 C149.155,45.927 144.828,41.932 143.25,39.195 C142.563,38.003 142,34.066 142,30.447 C142,23.882 141.994,23.868 139.292,24.184 C137.046,24.446 136.278,25.354 134.796,29.5 C133.812,32.25 133.006,36.89 133.004,39.812 C133,44.644 131.041,53.223 129.078,57 C128.082,58.916 123.318,59.509 121.44,57.95 C119.687,56.495 119.542,50.858 121.215,49.185 C123.353,47.047 125.974,18.72 124.139,17.586 C123.512,17.199 123,14.905 123,12.488 C123,10.071 122.484,6.961 121.853,5.577 C120.968,3.634 120.996,2.71 121.975,1.53 Z M167.189,224.728 C169.01,224.504 172.229,224.248 174.343,224.16 C179.026,223.965 197.845,229.747 211.741,235.65 C217.373,238.042 222.548,240.003 223.241,240.006 C223.933,240.01 225.674,240.625 227.108,241.373 C228.542,242.122 232.33,243.061 235.525,243.46 C241.338,244.186 246.877,246.925 250.318,250.775 C251.85,252.488 251.944,253.178 250.913,255.154 C250.24,256.444 249.376,258.175 248.994,259 C248.611,259.825 247.078,260.645 245.586,260.823 C243.512,261.069 242.032,260.253 239.303,257.359 C235.46,253.285 231.786,251 229.077,251 C226.969,251 212.193,245.649 207.037,243.019 C204.931,241.945 199.719,240.131 195.454,238.988 C191.189,237.845 186.782,236.419 185.66,235.818 C184.539,235.218 180.5,234.384 176.686,233.966 C169.175,233.141 164.714,230.732 164.189,227.218 C163.937,225.527 164.501,225.059 167.189,224.728 Z M73.311,95.632 C72.966,96.53 73.233,98.143 73.903,99.216 C74.888,100.794 74.823,101.621 73.56,103.548 C71.212,107.132 71.512,109.277 74.25,108.48 C78.228,107.324 79.538,104.844 79.157,99.193 C78.838,94.453 78.594,94 76.372,94 C75.033,94 73.655,94.735 73.311,95.632 Z M76.345,56.543 C76.019,57.392 76.004,58.337 76.31,58.643 C77.186,59.519 79,58.034 79,56.441 C79,54.522 77.092,54.596 76.345,56.543 Z"/>
</svg>

