<svg xmlns="http://www.w3.org/2000/svg" width="300" height="300" viewBox="0 0 300 300" version="1.1">
  <defs/>
  <path d="M174.969,113.625 C180.36,108.583 183.066,107.949 188.093,110.548 C191.652,112.389 192.512,114.373 193.488,123 C193.892,126.575 194.597,129.965 195.055,130.534 C195.972,131.674 198.344,156.627 197.644,157.78 C197.404,158.176 197.597,160.945 198.072,163.933 C198.548,166.922 199.212,175.685 199.548,183.406 C199.883,191.128 200.386,197.815 200.665,198.267 C200.944,198.718 200.633,199.737 199.974,200.531 C199.315,201.325 199.057,202.707 199.401,203.602 C200.615,206.766 201.05,224.573 200.042,229.834 C199.445,232.95 199.383,235.861 199.893,236.834 C200.382,237.766 200.397,241.151 199.929,244.517 C199.468,247.826 198.885,254.576 198.632,259.517 C197.9,273.827 196.258,283.102 193.511,288.451 C190.45,294.411 190.018,294.717 185.427,294.181 C179.583,293.499 176.143,288.918 165.519,267.666 C154.791,246.204 153.212,240.5 158,240.5 C159.903,240.5 160.739,241.23 161.5,243.556 C162.05,245.237 163.375,247.937 164.444,249.556 C165.513,251.175 168.118,255.859 170.233,259.965 C172.348,264.071 174.736,268.156 175.539,269.044 C176.343,269.931 177,270.987 177,271.389 C177,271.791 178.455,274.343 180.234,277.06 C184.182,283.091 186.505,283.481 187.322,278.25 C187.645,276.188 188.671,269.775 189.602,264 C190.995,255.37 191.286,246.579 191.236,214.638 C191.196,188.804 190.822,175.422 190.121,174.721 C188.951,173.551 181.846,176.276 179.877,178.648 C179.266,179.385 176.313,181.39 173.316,183.105 L167.866,186.223 L165.619,184.112 C164.383,182.95 162.923,182 162.376,182 C161.829,182 160.889,184.588 160.287,187.75 C159.686,190.912 158.658,195.3 158.004,197.5 C157.349,199.7 156.583,202.947 156.302,204.715 C156.02,206.483 155.162,208.451 154.395,209.087 C153.628,209.724 153,211.024 153,211.976 C153,214.895 148.524,218.95 146.024,218.296 C142.719,217.432 142.459,215.275 145.043,210.144 C148.628,203.024 149.846,199.16 151.077,191 C151.699,186.875 153.061,179.529 154.104,174.674 C157.28,159.891 156.229,138.506 152.049,132.853 C150.716,131.05 149.656,128.149 149.6,126.15 C149.519,123.301 150.025,122.327 152.241,121.063 C155.684,119.1 157.788,120.207 160.332,125.319 C161.34,127.344 162.75,129 163.465,129 C164.18,129 165.949,126.581 167.395,123.625 C168.841,120.669 172.25,116.169 174.969,113.625 Z M119.454,127.669 C123.966,122.393 124.729,121.895 127.47,122.431 C137.032,124.3 139.299,131.717 139.417,161.5 C139.509,184.656 138.421,230.47 137.381,247.256 C136.782,256.921 136.462,258.266 134.221,260.506 C131.139,263.589 130.21,263.606 126.21,260.655 C122.027,257.569 119.471,254.187 118.536,250.5 C117.268,245.499 116.76,234.84 117.743,233.857 C120.183,231.417 124,237.189 124,243.321 C124,245.512 124.455,246 126.5,246 L129,246 L129.015,232.25 C129.024,224.688 129.488,211.786 130.046,203.58 C130.604,195.374 130.709,188.317 130.28,187.897 C129.851,187.477 125.45,191.618 120.5,197.1 C110.351,208.339 106.139,211.503 102.53,210.597 C99.784,209.908 99.191,210.585 96.952,216.978 C95.294,221.712 90.331,225.725 87.485,224.632 C85.633,223.922 85.565,219.665 87.348,216.154 C93.743,203.564 96.863,192.621 100.51,170 C102.103,160.115 101.885,157.631 98.387,145.812 C96.533,139.545 96.63,138.268 99.064,136.966 C101.182,135.832 103.437,136.839 105.3,139.75 C106.7,141.938 108.817,141.109 111.682,137.25 C113.214,135.188 116.711,130.876 119.454,127.669 Z M72.2,37.2 C73.893,35.507 79.513,35.708 81.013,37.516 C82.476,39.278 81.86,51.255 80.204,53.26 C79.64,53.942 78.886,56.3 78.529,58.5 C77.942,62.106 76.738,65.496 72.388,75.784 C71.625,77.59 71,80.178 71,81.534 C71,82.89 70.55,84 70,84 C69.45,84 68.986,85.013 68.968,86.25 C68.951,87.487 68.276,89.374 67.468,90.441 C66.661,91.509 65.986,93.309 65.968,94.441 C65.951,95.574 65.276,97.374 64.468,98.441 C63.661,99.509 63,101.352 63,102.536 C63,103.721 62.1,105.505 61,106.5 C59.825,107.563 58.997,109.587 58.993,111.405 C58.99,113.107 58.093,115.85 57,117.5 C55.907,119.15 55.003,121.4 54.992,122.5 C54.969,124.599 53.17,130.104 51.396,133.5 C50.822,134.6 49.751,137.412 49.016,139.75 C48.281,142.088 47.399,144 47.056,144 C45.914,144 42.874,149.988 43.501,151.002 C44.544,152.688 45.727,152.19 54.178,146.5 C62.948,140.595 63.571,140.392 67.453,142.161 C69.23,142.97 69.999,144.104 69.995,145.911 C69.99,148.888 66.316,158.328 63.745,161.973 C62.785,163.332 62,165.408 62,166.584 C62,168.506 62.533,168.717 67.25,168.659 C73.048,168.587 76.68,170.346 81.248,175.437 C84.453,179.011 84.568,179.715 82.345,182.171 C80.412,184.308 74.768,184.618 72.821,182.694 C69.72,179.629 67.855,179.879 63.438,183.951 C58.005,188.958 55.093,189.749 50.951,187.343 L47.779,185.5 L48.331,178.752 C48.635,175.041 49.585,171.004 50.442,169.78 C51.299,168.556 52,166.766 52,165.802 C52,164.837 52.898,162.575 53.996,160.774 C55.094,158.973 55.994,157.162 55.996,156.75 C56.002,155.625 52.213,155.847 51.491,157.014 C50.276,158.98 43.037,162 39.54,162 C34.338,162 31.614,158.913 32.301,153.795 C32.594,151.609 33.915,147.724 35.237,145.161 C41.855,132.325 42.851,130.169 44.094,126 C44.832,123.525 46.009,120.375 46.711,119 C47.413,117.625 47.99,115.908 47.994,115.185 C47.997,114.462 48.946,111.537 50.103,108.685 C53.181,101.097 54.021,98.788 58.716,85 C60.121,80.875 61.885,76.79 62.635,75.921 C63.386,75.053 64,73.313 64,72.055 C64,70.798 64.657,67.683 65.46,65.134 C68.782,54.589 71.006,45.286 71.003,41.95 C71.001,39.998 71.54,37.86 72.2,37.2 Z M132.086,49.397 C132.723,48.628 134.338,48 135.673,48 C139.747,48 141.256,53.369 141.365,68.25 C141.416,75.263 141.751,81 142.109,81 C142.467,81 146.189,77.691 150.38,73.647 C155.147,69.047 158,65.504 158,64.183 C158,61.91 160.662,60 163.831,60 C164.91,60 167.126,61.518 168.755,63.373 C171.219,66.18 171.836,67.958 172.427,73.952 C173.756,87.443 173.968,96 172.972,96 C172.438,96 172,97.334 172,98.965 C172,100.937 171.309,102.3 169.936,103.034 C166.476,104.886 165.259,102.747 164.634,93.711 C163.876,82.75 162.98,77.105 161.891,76.433 C161.053,75.915 151.339,83.988 143.115,92.038 C135.912,99.089 126.597,105 122.69,105 C118.966,105 114.14,101.915 113.559,99.165 C112.583,94.538 114.683,76.312 116.659,72.268 C118.24,69.033 119.032,68.456 122.258,68.189 C127.093,67.789 127.852,69.592 125.708,76.388 C124.821,79.2 123.822,82.85 123.487,84.5 C123.153,86.15 122.63,88.737 122.326,90.25 C121.924,92.247 122.173,93 123.233,93 C124.333,93 129.757,90.801 131.694,89.569 C131.8,89.501 131.451,87.504 130.918,85.13 C130.173,81.814 130.332,79.448 131.605,74.91 C133.036,69.812 133.103,67.76 132.094,59.899 C131.209,52.994 131.207,50.456 132.086,49.397 Z M51.942,210.037 C55.595,209.054 63.824,209.868 68.5,211.674 C70.7,212.523 73.522,213.614 74.772,214.098 C76.635,214.819 76.928,215.474 76.398,217.739 C75.269,222.561 73.584,223.6 69.26,222.138 C64.087,220.39 60.805,218.838 58.817,217.199 C56.801,215.536 51.142,216.467 50.325,218.595 C49.143,221.675 36.981,225.397 35.568,223.111 C35.266,222.622 33.827,221.922 32.37,221.557 C30.371,221.055 29.082,221.475 27.111,223.273 C23.394,226.662 17.052,228.416 11.342,227.633 C8.723,227.274 6.135,226.535 5.59,225.99 C5.046,225.446 3.565,225 2.3,225 C0.156,225 0,224.594 0,219 C0,213.544 0.193,213 2.13,213 C3.302,213 7.316,214.65 11.051,216.667 L17.84,220.335 L20.67,218.435 C24.536,215.84 31.313,214.017 38.527,213.631 C41.842,213.454 45.641,212.727 46.969,212.017 C48.297,211.306 50.534,210.415 51.942,210.037 Z M121.908,139.25 C121.268,140.488 118.51,143.484 115.779,145.909 L110.813,150.319 L111.503,159.041 C111.974,164.987 111.845,167.978 111.097,168.44 C109.701,169.303 109.652,175 111.04,175 C111.612,175 113.792,173.2 115.885,171 C120.038,166.635 122.677,166.061 127.364,168.506 C128.94,169.328 130.446,170 130.712,170 C130.979,170 130.928,167.412 130.6,164.25 C130.272,161.088 129.749,154.236 129.438,149.025 C129.126,143.814 128.395,138.977 127.813,138.275 C126.161,136.284 123.187,136.774 121.908,139.25 Z M178.297,125.501 C177.309,126.876 173.894,130.798 170.709,134.216 L164.918,140.431 L165.209,146.955 C165.438,152.091 165.853,153.547 167.159,153.795 C168.071,153.969 169.301,153.524 169.893,152.806 C170.485,152.088 172.114,150.071 173.512,148.324 C176.709,144.328 181.363,143.113 184.073,145.566 C187.01,148.224 187.525,146.614 186.105,139.219 C185.395,135.523 184.578,130.925 184.289,129 C183.75,125.412 182.397,123 180.924,123 C180.467,123 179.285,124.125 178.297,125.501 Z M177.985,160.099 C173.868,164.003 168.931,167.941 167.013,168.85 C165.096,169.759 163.375,171.29 163.19,172.252 C162.69,174.846 167.231,174.51 171.819,171.614 C175.238,169.456 182.519,166.163 187.362,164.584 C188.973,164.059 189.128,163.338 188.514,159.238 C187.761,154.205 187.31,153 186.176,153 C185.788,153 182.102,156.194 177.985,160.099 Z M126.3,176.364 C125.86,177.114 123.299,179.619 120.61,181.932 C116.197,185.727 115.279,186.106 111.196,185.819 C106.135,185.462 105.974,185.696 104.681,195.25 C103.894,201.063 105.307,201.495 109.19,196.628 C114.129,190.439 122.878,183.705 126.802,183.073 C130.225,182.521 130.523,182.199 130.81,178.738 C131.074,175.557 130.821,175 129.11,175 C128.004,175 126.74,175.614 126.3,176.364 Z"/>
</svg>

