<svg xmlns="http://www.w3.org/2000/svg" width="300" height="300" viewBox="0 0 300 300" version="1.1">
  <defs/>
  <path d="M139.557,105.223 C142.507,101.01 150,103.43 150,108.596 C150,109.853 150.45,111.16 151,111.5 C151.55,111.84 152.02,113.329 152.044,114.809 C152.068,116.289 152.687,119.75 153.418,122.5 C154.984,128.385 155.172,128.417 167.676,124.919 C174.482,123.015 176.115,122.851 177.426,123.938 C179.316,125.507 179.474,128.366 177.75,129.781 C175.367,131.738 166.987,135.844 164.07,136.485 C159.479,137.493 158.546,139.252 159.951,144.249 C160.609,146.587 161.38,149.625 161.666,151 C161.951,152.375 163.043,155.408 164.092,157.739 C165.142,160.071 166,162.397 166,162.908 C166,163.419 166.633,165.112 167.407,166.669 C169.508,170.895 170.782,174.208 171.379,177 C171.673,178.375 172.559,180.383 173.348,181.462 C174.569,183.132 175.024,183.225 176.392,182.09 C177.276,181.356 178,179.712 178,178.437 C178,177.161 178.45,175.84 179,175.5 C179.55,175.16 180,173.87 180,172.632 C180,171.395 180.661,169.509 181.468,168.441 C182.276,167.374 182.951,165.481 182.968,164.236 C182.986,162.991 183.408,161.191 183.906,160.236 C184.405,159.281 185.344,156.516 185.994,154.091 C186.644,151.666 188.195,148.066 189.442,146.091 C190.688,144.116 192.029,141.488 192.421,140.25 C192.814,139.012 193.554,138 194.067,138 C194.58,138 195,137.319 195,136.486 C195,135.654 195.52,133.966 196.155,132.736 C196.791,131.506 197.624,129.825 198.006,129 C198.389,128.175 199.781,127.368 201.101,127.208 C202.94,126.984 203.917,127.69 205.288,130.235 C207.075,133.554 207.074,133.559 203.499,141.528 C201.532,145.912 199.49,150.281 198.962,151.236 C198.433,152.191 198,153.956 198,155.158 C198,156.359 197.366,158.053 196.591,158.921 C194.427,161.346 190,170.096 190,171.949 C190,172.857 189.628,174.027 189.174,174.55 C188.72,175.072 187.766,177.525 187.056,180 C185.516,185.366 185.268,186.049 184.162,188 C180.707,194.091 180.232,196.589 181.927,199.764 C182.437,200.719 183.109,202.175 183.421,203 C183.732,203.825 184.402,205.175 184.909,206 C186.901,209.243 195,226.914 195,228.019 C195,228.664 195.617,230.386 196.372,231.846 C197.127,233.306 199.311,237.65 201.225,241.5 C205.136,249.364 212.78,263.827 215.624,268.744 C218.309,273.387 221,273.098 221,268.167 C221,266.058 221.284,264.049 221.631,263.702 C222.738,262.595 226,264.999 226,266.921 C226,267.939 226.672,270.06 227.494,271.636 C228.315,273.211 228.99,276.611 228.994,279.191 C228.997,281.771 229.389,284.123 229.865,284.417 C230.341,284.711 231.003,286.629 231.335,288.68 C232.038,293.006 230.043,296 226.458,296 C224.009,296 222.809,294.648 214.027,282 C210.781,277.325 207.284,272.375 206.256,271 C205.228,269.625 203.115,265.8 201.561,262.5 C200.006,259.2 196.72,252.225 194.258,247 C187.272,232.174 184.818,226.702 182.597,221 C182.276,220.175 181.612,218.825 181.122,218 C180.632,217.175 179.618,215.15 178.867,213.5 C177.549,210.602 176.168,209.047 174.883,209.015 C173.596,208.983 169,217.062 169,219.356 C169,220.676 168.325,222.315 167.5,223 C166.675,223.685 166,224.795 166,225.467 C166,226.14 165.1,227.505 164,228.5 C162.9,229.495 162,230.924 162,231.675 C162,232.426 160.875,234.822 159.5,237 C158.125,239.178 156.992,241.307 156.982,241.73 C156.946,243.232 149.588,253.812 141.5,263.991 C139.85,266.067 137.64,268.956 136.59,270.41 C135.539,271.864 133.739,274.106 132.59,275.391 C131.44,276.677 129.078,279.477 127.34,281.614 C125.602,283.751 121.102,288.796 117.34,292.825 L110.5,300.15 L103.659,299.825 L96.818,299.5 L101.669,294.5 C108.177,287.793 124.128,269.371 131.976,259.5 C135.474,255.1 138.84,251.05 139.456,250.5 C143.081,247.263 153.538,229.241 162.955,210 C165.782,204.225 168.721,198.352 169.486,196.949 C170.786,194.566 170.486,193.605 164.955,182.449 C161.697,175.877 159.024,169.768 159.016,168.872 C159.007,167.977 158.325,166.685 157.5,166 C156.675,165.315 156,163.904 156,162.864 C156,160.891 155.435,159.498 152.603,154.5 C151.669,152.85 150.431,150.262 149.854,148.75 C149.277,147.238 148.193,146 147.447,146 C145.512,146 140.832,149.365 130.377,158.274 L121.254,166.047 L120.571,173.877 C119.699,183.869 120.424,187 123.608,187 C125.599,187 126,187.503 126,190 C126,191.65 125.637,193 125.192,193 C124.748,193 123.539,194.912 122.506,197.25 C120.878,200.933 120.616,204.235 120.543,222 C120.454,243.456 120.028,245.844 115.897,248.055 C114.24,248.942 112.832,248.656 108.67,246.591 C102.327,243.443 92.68,235.038 89.343,229.751 L86.863,225.823 L89.035,222.662 C90.23,220.923 93.277,217.925 95.807,216 C102.856,210.637 109.837,203.586 110.75,200.909 C112.069,197.04 111.072,175 109.578,175 C108.428,175 87.321,188.387 84.089,191.166 C81.441,193.443 75.582,196 73.011,196 C68.911,196 66,193.361 66,189.643 C66,185.47 67.543,184.003 71.95,183.987 C74.241,183.978 77.983,182.554 82.5,179.973 C91.852,174.627 92.294,174.34 100.947,168 C105.075,164.975 108.883,162.198 109.409,161.828 C110.438,161.105 112.203,149.352 112.387,142 L112.5,137.5 L107.03,137.19 C100.269,136.807 99,135.806 99,130.853 C99,127.519 99.401,126.796 101.75,125.892 C105.041,124.624 113.172,125.521 117.178,127.592 C117.963,127.998 118.54,128.246 118.967,128.653 C120.235,129.861 120.174,132.465 120.28,144.75 C120.319,149.287 120.673,153 121.066,153 C122.251,153 134.054,144.03 139.191,139.225 C143.867,134.85 144,134.566 144,128.922 C144,125.73 143.55,122.84 143,122.5 C142.45,122.16 142,121.104 142,120.152 C142,119.201 141.1,116.658 140,114.5 C137.592,109.777 137.514,108.139 139.557,105.223 Z M139.02,8.076 C141.725,5.284 144.627,3 145.469,3 C147.39,3 151,6.531 151,8.41 C151,10.158 145.948,18 144.822,18 C144.37,18 144,18.613 144,19.361 C144,20.275 144.824,20.565 146.506,20.244 C149.957,19.584 152,21.601 152,25.669 C152,28.485 151.439,29.395 148.842,30.797 C143.358,33.755 140.213,37.29 139.544,41.25 C139.001,44.458 139.176,45 140.755,45 C141.77,45 143.088,44.512 143.685,43.915 C144.281,43.319 145.834,42.981 147.135,43.165 C150.94,43.704 150.587,47.597 146.028,55.361 C142.334,61.653 142,62.817 142,69.411 C142,73.365 141.597,77.028 141.105,77.55 C140.613,78.073 139.888,80.028 139.494,81.896 C138.812,85.127 138.892,85.255 141.139,84.532 C146.544,82.794 150.965,82.744 151.605,84.414 C153.206,88.585 146.376,97.132 137.697,101.819 C134.966,103.293 131.583,105.127 130.179,105.894 C128.776,106.66 125.732,107.501 123.415,107.763 C119.728,108.178 118.991,107.916 117.518,105.668 C116.592,104.255 115.984,102.37 116.167,101.481 C116.482,99.949 117.496,99.264 124.416,95.912 C126.906,94.706 127.519,93.58 128.614,88.199 C129.906,81.845 129.878,75.545 128.552,74.219 C128.157,73.823 125.849,73.445 123.423,73.377 C117.622,73.216 116,71.729 116,66.573 C116,62.057 119.534,55.505 124.359,51.076 C127.993,47.74 127.692,47 122.7,47 C117.761,47 116,45.686 116,42 C116,38.407 117.744,37 122.2,37 C124.883,37 126,36.566 126,35.524 C126,34.712 126.898,32.575 127.996,30.774 C130.807,26.164 130.493,24 126.444,20.065 C124.208,17.892 123.018,15.872 123.205,14.565 C123.468,12.726 124.08,12.536 128.801,12.826 C134.013,13.147 134.183,13.068 139.02,8.076 Z M168.48,85.033 C168.831,84.465 170.582,84 172.372,84 C176.075,84 177.93,85.695 186.049,96.5 C192.691,105.338 195.79,112.343 194.007,114.491 C191.841,117.102 190.26,116.188 185.311,109.463 C181.726,104.592 178.911,102.034 174.263,99.422 C170.832,97.494 167.585,95.093 167.046,94.086 C166.126,92.368 166.877,87.625 168.48,85.033 Z M106.034,220.068 C100.157,228.916 100.122,229.726 105.381,234.885 C112.19,241.565 113,240.624 113,226.031 C113,211.641 112.128,210.894 106.034,220.068 Z M127,59 C127,59.55 127.9,60 129,60 C130.1,60 131,59.55 131,59 C131,58.45 130.1,58 129,58 C127.9,58 127,58.45 127,59 Z"/>
</svg>

