<svg xmlns="http://www.w3.org/2000/svg" width="300" height="300" viewBox="0 0 300 300" version="1.1">
  <defs/>
  <path d="M95.495,151.765 C98.976,149.221 102.483,152.53 102.538,158.412 C102.692,174.803 103.017,178 104.534,178 C105.377,178 106.969,176.472 108.07,174.605 C109.172,172.738 112.102,169.63 114.581,167.698 C118.151,164.917 120.362,164.038 125.203,163.476 C131.891,162.7 132.666,163.173 136.726,170.5 C139.987,176.387 142.001,202.132 140.16,214.402 C139.575,218.306 138.808,224.721 138.456,228.658 C137.882,235.071 138.033,236.033 139.908,237.908 C141.058,239.058 143.289,240 144.865,240 C150.617,240 155.391,246.785 151.75,249.785 C151.063,250.352 143.75,251.064 135.5,251.367 C121.115,251.896 108.567,253.039 100.906,254.518 C97.76,255.125 97.042,254.869 95.156,252.471 C91.041,247.24 92.891,244 99.99,244 C102.514,244 107.171,243.325 110.339,242.5 C113.506,241.675 117.06,241 118.237,241 C121.163,241 126.985,236.884 126.993,234.809 C126.997,233.879 127.408,232.866 127.907,232.558 C128.406,232.249 129.115,227.61 129.484,222.249 C129.853,216.887 130.376,211.713 130.645,210.75 C131.031,209.372 130.516,209 128.221,209 C126.229,209 124.136,210.137 121.607,212.594 C117.328,216.749 111.644,218.78 109.432,216.943 C107.933,215.7 107.501,210.221 108.765,208.5 C110.348,206.346 119.99,198.954 122.425,198.029 C124.1,197.392 125.896,197.39 127.565,198.025 C128.976,198.561 130.501,199 130.954,199 C131.408,199 131.534,195.084 131.236,190.297 C130.308,175.428 125.951,171.517 117.816,178.25 C108.103,186.289 106.895,187.735 107.587,190.491 C108.071,192.419 107.675,193.717 106.087,195.408 C104.301,197.308 104.043,198.418 104.591,201.847 C105.002,204.414 104.825,206.506 104.125,207.349 C103.331,208.306 103.277,210.186 103.943,213.699 C104.464,216.444 104.997,222.868 105.128,227.975 C105.335,236.062 105.124,237.436 103.492,238.63 C100.892,240.53 97.254,240.343 96.134,238.25 C95.619,237.287 95.143,225.436 95.076,211.913 C95.009,198.389 94.558,185.945 94.074,184.259 C93.591,182.572 93.168,176.859 93.136,171.563 C93.104,166.267 92.806,161.496 92.476,160.961 C91.761,159.805 94.056,152.817 95.495,151.765 Z M91.436,31.154 C96.302,26.017 96.669,25.826 100.812,26.288 C107.215,27.001 109.495,29.702 110.968,38.316 C111.871,43.589 111.917,46.605 111.141,49.516 C110.026,53.697 108.086,76.836 107.494,93 C107.303,98.225 106.631,103.85 106.001,105.5 C105.37,107.15 105.089,109.676 105.375,111.113 C105.768,113.09 105.201,114.391 103.046,116.455 C99.921,119.449 96.725,119.527 96.166,116.622 C95.969,115.601 94.389,112.824 92.654,110.451 C90.919,108.078 88.691,104.98 87.703,103.568 C85.199,99.988 83.164,100.363 81.335,104.741 C79.189,109.878 64.83,124 61.754,124 C58.465,124 57,122.183 57,118.105 C57,114.525 61.008,109 63.604,109 C64.28,109 68.05,105.512 71.981,101.25 C77.365,95.413 79.025,92.95 78.708,91.272 C78.428,89.794 78.861,88.861 79.997,88.501 C80.938,88.202 83.686,86.174 86.104,83.993 C91.025,79.555 91.298,79.449 92.885,81.361 C93.75,82.404 93.4,83.822 91.385,87.427 C88.78,92.088 88.772,92.167 90.503,96.007 C92.254,99.891 94.68,101.749 96.084,100.283 C96.985,99.343 98.954,81.209 99.59,68 C99.842,62.775 100.547,54.982 101.157,50.682 C102.036,44.486 101.996,42.36 100.964,40.432 C99.314,37.35 97.945,37.365 95,40.5 C92.266,43.411 90.828,43.588 87.525,41.425 C84.448,39.408 85.006,37.943 91.436,31.154 Z M146.338,14.77 C149.105,13.009 153.24,14.045 156.237,17.25 C161.633,23.02 161.86,23.799 162.58,39 C162.957,46.975 163.597,53.95 164.001,54.5 C164.701,55.45 164.643,57.112 163.46,70 C161.459,91.809 159.641,106.821 158.778,108.655 C158.22,109.84 158.061,111.289 158.423,111.875 C159.286,113.271 156.843,117.89 153.68,120.844 C150.562,123.757 147.273,123.009 146.375,119.183 C146.029,117.708 144.494,115.15 142.964,113.5 C137.632,107.751 134.48,96.521 137.836,95.233 C139.677,94.526 146,101.447 146,104.167 C146,105.289 146.723,106 147.866,106 C149.448,106 149.815,104.974 150.284,99.25 C150.588,95.537 151.597,87.775 152.527,82 C156.232,58.996 153.322,27 147.526,27 C146.766,27 145.1,28.275 143.822,29.834 C140.692,33.654 134.546,37.216 131.766,36.822 C130.062,36.58 129.426,35.746 129.202,33.458 C128.94,30.782 129.88,29.523 137.04,22.963 C141.515,18.863 145.699,15.176 146.338,14.77 Z M118.961,124.786 C121.144,123.66 121.997,123.132 122.836,123.154 C123.595,123.174 124.342,123.643 126.05,124.526 C128.314,125.696 129,126.743 129,129.026 C129,130.662 128.513,132 127.918,132 C127.323,132 124.915,133.575 122.565,135.5 C120.216,137.425 117.73,139 117.041,139 C116.352,139 114.53,140.059 112.993,141.353 C111.455,142.647 107.79,144.49 104.848,145.448 C101.907,146.407 99.05,147.546 98.5,147.98 C97.95,148.414 96.084,149.072 94.354,149.441 C92.623,149.811 90.416,150.988 89.449,152.057 C87.296,154.436 85.238,154.525 82.829,152.345 C78.881,148.772 81.879,142.874 88.295,141.591 C90.031,141.244 94.466,139.169 98.151,136.98 C101.835,134.791 105.266,133 105.775,133 C106.284,133 108.68,131.554 111.1,129.786 C113.52,128.019 117.058,125.769 118.961,124.786 Z M129.533,83.533 C133.19,79.877 135.518,79.087 136.265,81.25 C136.729,82.594 133.99,89.282 132.75,89.833 C132.338,90.017 132,90.649 132,91.239 C132,91.829 130.875,93.786 129.5,95.589 C128.125,97.392 127,99.727 127,100.78 C127,106.021 118.751,115.391 114.651,114.807 C112.829,114.547 112.451,113.735 112.183,109.5 C111.89,104.889 112.13,104.267 115.272,101.5 C119.461,97.811 126,89.692 126,88.18 C126,87.568 127.59,85.477 129.533,83.533 Z M126.223,63.557 C129.289,61.409 138.758,61.471 141.171,63.655 C143.04,65.346 143.551,68.662 142.235,70.558 C139.025,75.18 128.877,76.674 125.722,72.989 C123.262,70.115 123.509,65.457 126.223,63.557 Z M70.984,67.861 C72.901,66.838 76.396,66 78.751,66 C82.629,66 83.184,66.318 84.641,69.374 C86.845,73.995 85.401,78.64 81.899,78.196 C77.369,77.621 75.495,77.664 72.894,78.404 C69.395,79.398 66.786,76.802 67.196,72.736 C67.425,70.47 68.364,69.261 70.984,67.861 Z"/>
</svg>

