<svg xmlns="http://www.w3.org/2000/svg" width="300" height="300" viewBox="0 0 300 300" version="1.1">
  <defs/>
  <path d="M141.63,50.25 C142.106,48.475 142.952,48 145.641,48 C148.428,48 149.248,48.501 150.141,50.75 C150.741,52.263 151.244,54.85 151.258,56.5 C151.272,58.15 151.895,64.126 152.642,69.78 C153.389,75.434 154,80.272 154,80.53 C154,80.789 154.825,81 155.833,81 C157.542,81 165,74.486 165,72.994 C165,72.164 169.619,70 171.39,70 C172.102,70 173.487,71.489 174.467,73.309 C176.115,76.369 176.13,76.849 174.66,79.69 C173.011,82.88 167.585,88 165.853,88 C165.307,88 162.947,89.317 160.608,90.926 C157.001,93.408 156.162,94.66 155.085,99.176 C153.554,105.594 154.256,124.836 156.131,127.837 C157.095,129.381 157.122,130.437 156.247,132.358 C155.025,135.04 155.634,154.728 157.059,158.591 C158.016,161.187 166.505,165.287 174.5,167.015 C177.8,167.728 182.075,169.082 184,170.024 C191.009,173.454 205.042,178.55 209.765,179.381 C212.789,179.914 232.284,187.077 236.236,189.108 C237.191,189.598 238.576,190 239.312,190 C240.049,190 241.674,191.088 242.923,192.418 C245.766,195.444 245.033,200.277 241.367,202.679 C239.335,204.011 238.266,204.094 235.204,203.161 C233.167,202.54 230.375,201.913 229,201.766 C227.241,201.579 226.402,200.808 226.169,199.165 C225.943,197.569 224.678,196.349 222.169,195.308 C220.151,194.471 215.228,192.259 211.228,190.393 C207.229,188.527 202.954,186.992 201.728,186.982 C200.503,186.972 195.696,185.397 191.047,183.482 C186.397,181.567 181.967,180 181.201,180 C180.435,180 178.614,179.38 177.154,178.622 C173.983,176.976 161.006,173 158.803,173 C156.79,173 156.293,179.283 156.984,196 L157.5,208.5 L160,208.373 C161.375,208.304 165.2,207.479 168.5,206.54 C171.8,205.602 177.425,204.759 181,204.667 C187.341,204.504 187.508,204.565 187.807,207.157 C188.249,210.972 185.159,213.348 177.793,214.859 C174.332,215.569 170.466,216.566 169.203,217.075 C167.94,217.584 166.005,218 164.903,218 C163.802,218 161.625,218.66 160.065,219.467 L157.229,220.933 L156.639,234.717 C155.51,261.07 154.339,264.849 147.684,263.601 C144.776,263.055 143.84,262.192 142.069,258.423 C139.921,253.854 140.027,252 142.437,252 C143.162,252 144.373,251.262 145.128,250.361 C146.852,248.301 148.798,233.225 148.057,227.67 L147.5,223.5 L142.129,223.194 C138.928,223.011 135.494,223.47 133.629,224.331 C131.908,225.125 127.889,226.086 124.697,226.466 C117.856,227.281 116,226.234 116,221.563 C116,218.893 116.579,218.095 119.534,216.685 C121.494,215.75 125.468,215 128.458,215 C134.408,215 143.78,213.2 145.789,211.671 C146.797,210.904 147.033,204.504 146.869,182.345 C146.684,157.25 146.479,154.004 145.08,154.032 C142.289,154.088 140,156.63 140,159.672 C140,162.678 136.775,170.403 135.084,171.448 C134.572,171.765 133.377,174.381 132.43,177.262 C130.264,183.844 124.461,195.372 122.49,197.008 C121.671,197.688 121,198.721 121,199.303 C121,199.885 119.126,203.237 116.836,206.752 C114.546,210.267 111.958,214.43 111.086,216.002 C109.169,219.458 96.493,232.814 92.422,235.667 C88.985,238.075 81.676,239.276 80.092,237.692 C79.492,237.092 79,235.388 79,233.907 C79,231.244 80.502,230.022 83.832,229.978 C84.749,229.966 86.623,229.093 87.995,228.038 L90.491,226.121 L87.772,223.284 C85.436,220.846 85.14,219.887 85.665,216.473 C86.002,214.288 86.603,212.05 87.001,211.5 C88.097,209.984 87.3,191.9 86.084,190.684 C84.541,189.141 78,192.446 78,194.77 C78,198.108 53.349,216 48.75,216 C47.979,216 46.382,214.971 45.2,213.713 C43.123,211.502 43.08,210.975 43.93,197.963 C45.042,180.925 45.835,177.606 48.902,177.165 C52.522,176.645 53.491,178.523 53.615,186.301 C53.815,198.866 53.839,199 55.889,199 C60.342,199 61.688,196.101 63.382,182.863 C65.174,168.867 65.435,161.387 64.158,160.598 C63.696,160.312 61.807,161.635 59.962,163.539 C58.117,165.443 56.11,167 55.501,167 C54.892,167 52.563,168.347 50.325,169.992 C45.518,173.527 29.127,181.985 27.064,181.994 C24.817,182.004 21,177.884 21,175.448 C21,172.455 22.602,171.339 29.463,169.552 C32.679,168.714 36.029,167.394 36.906,166.619 C37.783,165.844 42.325,162.927 47,160.138 C51.675,157.348 58.066,152.689 61.203,149.783 L66.905,144.5 L65.997,139.152 C65.498,136.21 65.351,132.497 65.67,130.902 C66.372,127.389 64.274,126.935 61.5,130 C59.326,132.402 55.444,132.616 54.204,130.401 C53.632,129.378 53.94,126.405 55.06,122.151 C57.682,112.188 58.611,97.352 56.747,95.2 C55.937,94.265 55.001,92.05 54.668,90.278 C54.139,87.469 54.486,86.731 57.375,84.528 C60.917,81.826 66.339,81.154 67.684,83.25 C68.539,84.582 68.704,85.483 69.62,93.847 C69.986,97.181 69.791,99.609 69.103,100.297 C68.496,100.904 68,103.11 68,105.2 C68,109.812 70.499,110.454 72.091,106.25 C73.469,102.613 76.932,99 79.039,99 C81.76,99 86,102.929 86,105.45 C86,106.718 85.325,108.315 84.5,109 C83.675,109.685 83,110.877 83,111.649 C83,112.421 80.989,115.064 78.531,117.522 L74.062,121.991 L74.679,129.995 C75.307,138.138 76.608,140.091 78.513,135.75 C79.899,132.589 83.179,132.887 84.826,136.324 C86.774,140.387 85.515,143.846 80.369,148.57 L75.891,152.681 L75.31,162.091 C74.99,167.266 74.386,172.175 73.966,173 C73.546,173.825 72.88,177.088 72.486,180.25 C71.32,189.612 74.267,187.562 82.55,173.25 C85.621,167.945 90.838,169.245 95.593,176.501 C96.461,177.827 96.916,179.327 96.602,179.835 C96.289,180.342 96.741,182.179 97.608,183.916 C99.103,186.914 99.14,194.378 97.745,211.5 C97.551,213.874 97.899,214.5 99.416,214.5 C100.737,214.5 102.317,212.639 104.51,208.5 C107.485,202.882 112.876,193.395 115.02,190 C118.852,183.935 123,175.887 123,174.519 C123,172.342 128.091,162 129.162,162 C129.623,162 130,161.185 130,160.188 C130,159.191 130.847,156.604 131.882,154.438 C132.917,152.272 134.776,148.25 136.014,145.5 C137.252,142.75 139.647,137.575 141.335,134 C144.226,127.881 144.409,126.787 144.453,115.333 C144.479,108.642 144.171,102.837 143.768,102.435 C143.366,102.032 141.316,102.895 139.214,104.351 C137.112,105.808 135.084,107 134.706,107 C134.328,107 131.062,109.025 127.447,111.5 C117.957,117.997 112.459,117.347 113.182,109.815 C113.429,107.235 114.214,106.143 116.721,104.891 C118.493,104.005 121.536,102.066 123.484,100.58 C125.432,99.094 129.383,96.931 132.263,95.774 C135.143,94.617 138.963,92.306 140.75,90.639 C143.505,88.069 143.997,86.915 143.983,83.054 C143.973,80.549 143.298,75.35 142.483,71.5 C140.962,64.322 140.558,54.25 141.63,50.25 Z"/>
</svg>

