<svg xmlns="http://www.w3.org/2000/svg" width="300" height="300" viewBox="0 0 300 300" version="1.1">
  <defs/>
  <path d="M160.923,215.212 C163.273,213.276 166.346,214.175 167.37,217.098 C168.603,220.622 167.303,226.96 165.195,227.699 C164.263,228.026 162.375,229.329 160.999,230.595 C157.675,233.655 142.022,242.182 135.851,244.295 C134.944,244.606 133.643,246.579 132.961,248.68 C132.279,250.781 130.209,254.797 128.361,257.604 C126.512,260.41 125,263.358 125,264.154 C125,264.949 124.49,266.11 123.867,266.733 C123.244,267.356 123.003,268.566 123.332,269.422 C123.788,270.611 125.212,270.922 129.359,270.739 C133.366,270.563 135.293,270.956 136.714,272.242 C137.773,273.2 141.083,274.842 144.07,275.892 C147.056,276.941 153.686,280.095 158.802,282.9 C163.918,285.705 168.368,288 168.691,288 C170.043,288 188.09,297.404 189.121,298.645 C190.054,299.77 188.436,300 179.569,300 C169.83,300 168.571,299.781 165.215,297.5 C163.191,296.125 161.072,295 160.505,295 C159.939,295 154.086,292.3 147.5,289 C140.914,285.7 134.914,283 134.167,283 C133.42,283 131.614,282.163 130.154,281.141 C128.694,280.118 125.81,278.49 123.743,277.524 C119.296,275.443 118.216,276.033 114.973,282.318 C113.786,284.618 112.013,287.4 111.032,288.5 C110.052,289.6 108.744,291.482 108.126,292.682 C107.508,293.883 106.102,295.15 105.001,295.5 C103.9,295.849 103,297.004 103,298.067 C103,299.769 102.262,300 96.826,300 L90.651,300 L92.647,297.75 C95.239,294.828 102,285.172 102,284.393 C102,284.061 103.35,281.79 105,279.345 C106.65,276.9 108,274.627 108,274.294 C108,273.961 109.125,272.214 110.5,270.411 C111.875,268.608 113,266.738 113,266.254 C113,265.77 114.15,262.99 115.556,260.076 C116.962,257.162 117.919,254.585 117.683,254.35 C116.968,253.635 108.04,258.742 104.151,262.091 C97.034,268.219 88.463,274.076 85.764,274.656 C84.26,274.98 81.841,276.345 80.39,277.69 C78.938,279.035 75.444,281.244 72.625,282.6 C69.806,283.955 65.7,286.138 63.5,287.451 C61.3,288.764 58.332,289.875 56.905,289.919 C55.478,289.964 53.495,290.9 52.5,292 C51.505,293.1 50.069,294 49.31,294 C48.551,294 46.857,294.703 45.546,295.561 C44.06,296.536 41.547,297.006 38.868,296.811 C34.923,296.525 34.518,296.237 33.919,293.283 C33.34,290.428 33.966,288.544 36.636,285.116 C36.801,284.904 38.637,284.553 40.718,284.334 C45.038,283.88 57.717,279.284 60.079,277.316 C60.947,276.592 62.016,276 62.455,276 C63.281,276 75.755,268.661 86.855,261.645 C90.351,259.436 95.934,255.451 99.263,252.79 C104.816,248.351 111.525,244.645 121.25,240.645 C124.65,239.246 125.001,238.747 125.015,235.301 C125.023,233.21 125.706,229.558 126.533,227.184 C127.359,224.81 127.764,222.427 127.432,221.89 C126.497,220.376 128.989,218 131.512,218 C132.758,218 134.8,218.827 136.049,219.838 C138.188,221.571 138.249,221.953 137.108,226.487 C136.344,229.519 136.247,231.647 136.845,232.245 C137.841,233.241 147.201,227.799 150.966,224.034 C152.084,222.916 153.665,222 154.477,222 C155.289,222 156.72,220.762 157.657,219.25 C158.594,217.738 160.063,215.921 160.923,215.212 Z M97.006,1.25 C97.002,0.305 100.602,0.005 111.75,0.022 L126.5,0.044 L120.964,5.272 C117.919,8.147 114.095,12.3 112.465,14.5 C110.835,16.7 108.264,19.772 106.751,21.327 C105.238,22.882 104,24.508 104,24.941 C104,25.373 102.799,26.928 101.332,28.395 C99.324,30.404 98.948,31.348 99.812,32.212 C101.377,33.777 104.33,32.117 114.866,23.75 C119.542,20.037 124.043,17 124.869,17 C126.703,17 131,20.892 131,22.552 C131,23.214 128.308,26.415 125.018,29.664 C121.112,33.522 118.812,36.689 118.393,38.787 C117.786,41.819 117.915,42 120.675,42 C122.284,42 124.14,42.54 124.8,43.2 C126.218,44.618 126.406,48 125.067,48 C123.503,48 122.788,51.849 122.676,60.879 C122.57,69.494 122.572,69.501 125.535,70.904 C131.199,73.587 131.417,76.565 126.396,82.692 C119.438,91.184 107.145,98.133 101.982,96.494 C98.678,95.446 95.841,90.548 96.91,87.737 C97.703,85.651 103.23,81.446 110.509,77.391 C113.157,75.916 113.351,68.255 110.78,66.633 C109.388,65.755 108.428,66.162 105.733,68.774 C103.902,70.548 101.665,72 100.761,72 C99.858,72 98.84,72.45 98.5,73 C98.16,73.55 96.16,74 94.056,74 C91.093,74 89.866,73.444 88.615,71.535 C85.919,67.421 86.66,63.973 91.394,58.602 C96.087,53.276 98.59,52.977 96.707,57.966 C96.093,59.593 95.866,61.199 96.202,61.536 C97.185,62.518 102.221,59.461 105.865,55.669 L109.23,52.168 L107.442,47.486 C105.258,41.769 103.75,41.07 99.84,43.96 C97.491,45.697 96.058,46.046 93.356,45.539 C89.296,44.777 86,41.841 86,38.985 C86,36.038 92.494,24.723 99.242,15.913 C100.75,13.944 102.266,10.918 102.612,9.189 C103.166,6.42 102.87,5.834 100.127,4.273 C98.414,3.298 97.01,1.938 97.006,1.25 Z M112.5,134.469 C116.611,131.099 120.333,131.255 122.932,134.904 C124.069,136.502 125,138.348 125,139.007 C125,139.667 122.975,142.458 120.5,145.211 C118.025,147.964 116,150.832 116,151.585 C116,152.338 114.875,153.691 113.5,154.592 C110.635,156.469 110.33,158.199 112.541,160.034 C113.811,161.088 114.823,160.959 118.291,159.301 C123.879,156.629 133.825,154.402 134.903,155.582 C135.365,156.087 136.03,157.723 136.382,159.219 C136.935,161.565 136.576,162.165 133.761,163.604 C131.968,164.521 130.14,165.885 129.7,166.635 C129.26,167.386 128.009,168 126.919,168 C124.115,168 123.481,170.558 125.516,173.664 C126.996,175.923 127.149,177.702 126.558,185.75 C126.177,190.94 125.633,195.793 125.348,196.535 C124.967,197.527 126.092,197.965 129.607,198.192 C134.073,198.48 134.438,198.713 135.229,201.785 C136.38,206.253 134.397,210.154 130.46,211.166 C128.788,211.596 125.567,213.535 123.301,215.474 C121.036,217.413 118.793,219 118.318,219 C117.843,219 115.021,220.602 112.047,222.561 C105.226,227.053 101.608,227.86 98.973,225.475 C94.847,221.742 97.334,217.939 107.177,212.932 C110.3,211.344 113.221,209.472 113.669,208.772 C115.652,205.676 116.971,200.053 116.985,194.639 L117,188.777 L113.25,189.473 C111.188,189.856 108.825,190.771 108,191.507 C104.946,194.23 101.065,194.409 98.445,191.948 C95.018,188.729 95.245,185.525 99,184.121 C100.65,183.505 103.41,182.471 105.133,181.824 C109.464,180.198 114,176.19 114,173.991 C114,172.472 112.875,172.039 107.424,171.455 C101.261,170.795 100.751,170.546 99.292,167.487 C97.39,163.497 98.25,157.472 100.928,156.039 C101.941,155.496 103.058,153.904 103.411,152.5 C103.913,150.5 103.459,149.439 101.312,147.592 C98.892,145.511 98.706,144.942 99.715,142.726 C100.771,140.409 105.838,137.048 108.404,136.964 C109.007,136.944 110.85,135.821 112.5,134.469 Z M153.5,96.985 C157.753,95.006 161.764,94.603 166.923,95.635 C173.317,96.913 176.114,109.43 171.868,117.758 C170.841,119.774 170,121.9 170,122.484 C170,123.068 168.425,125.937 166.5,128.86 C164.575,131.783 163,134.395 163,134.664 C163,135.825 149.292,149.21 147.259,150.035 C144.624,151.103 142,150.33 142,148.485 C142,147.769 143.944,144.78 146.321,141.842 C150.772,136.339 151.557,135.001 158.776,120.634 C161.613,114.99 162.755,108.585 161.107,107.566 C160.49,107.185 157.064,106.712 153.494,106.514 C147.308,106.173 146.802,106.322 142.751,109.674 C140.413,111.609 138.093,114.052 137.595,115.102 C137.097,116.153 134.356,118.56 131.505,120.453 C126.332,123.887 126.309,123.891 119.911,122.801 C116.385,122.201 111.298,121.724 108.606,121.742 C104.015,121.773 103.421,122.092 99.012,126.888 C96.427,129.699 93.551,132 92.621,132 C90.755,132 87.359,130.018 81.942,125.766 C79.086,123.525 77.753,123.099 75.192,123.612 C72.592,124.132 72,123.931 72,122.529 C72,121.583 72.931,119.502 74.068,117.904 C75.765,115.522 76.86,115 80.164,115 C84.016,115 90,117.565 90,119.216 C90,120.819 94.753,119.93 96.5,118 C97.495,116.9 99.114,116 100.096,116 C101.078,116 102.16,115.55 102.5,115 C102.84,114.45 106.89,114 111.5,114 C116.321,114 120.16,113.55 120.536,112.941 C120.896,112.358 122.161,111.958 123.346,112.052 C127.555,112.383 128.76,111.967 131.461,109.25 C134.739,105.953 137.347,104.502 153.5,96.985 Z M32.365,128.122 C35.539,126.513 39.983,127.436 48.276,131.424 C52.364,133.391 56.113,135 56.605,135 C57.097,135 58.887,133.348 60.582,131.329 C62.819,128.664 64.151,127.844 65.438,128.338 C67.626,129.177 67.052,132.092 63.142,140 C60.608,145.125 60.187,145.494 56.961,145.418 C53.84,145.343 47.081,143.318 41.357,140.741 C40.179,140.211 37.704,139.651 35.857,139.498 C34.011,139.345 31.926,139.17 31.225,139.11 C30.524,139.049 29.487,137.78 28.92,136.288 C27.697,133.073 29.085,129.783 32.365,128.122 Z"/>
</svg>

