<svg xmlns="http://www.w3.org/2000/svg" width="300" height="300" viewBox="0 0 300 300" version="1.1">
  <defs/>
  <path d="M135.273,137.706 C137.306,134.603 138.65,134.366 141.777,136.557 C143.568,137.811 144.014,139.123 144.074,143.307 C144.115,146.163 144.457,150.525 144.835,153 C145.111,154.804 145.226,155.976 145.868,156.63 C147.091,157.875 150.222,157.244 160,155.528 C165.225,154.611 173.372,153.493 178.103,153.044 C182.835,152.595 187.643,151.726 188.788,151.114 C189.932,150.501 194.716,150 199.418,150 C207.393,150 208.182,150.191 211.138,152.832 L214.307,155.664 L210.483,158.582 C206.695,161.472 206.487,161.507 189.079,162.199 C170.836,162.925 161.381,163.973 152,166.309 C146.832,167.596 146.511,167.854 146.68,170.589 C147.103,177.453 147.054,229.103 146.623,229.801 C145.811,231.115 144.651,253.98 144.828,265.192 C144.921,271.072 144.57,276.147 144.049,276.47 C143.522,276.795 143.365,279.286 143.695,282.072 C144.234,286.622 144.025,287.364 141.457,290.044 C137.959,293.696 137.062,293.717 133.718,290.227 C131.068,287.462 131.064,287.43 131.989,277.977 C132.498,272.765 133.365,266.475 133.914,264 C134.464,261.525 134.943,256.575 134.981,253 C135.018,249.425 135.489,244.591 136.028,242.258 C137.212,237.124 137.688,181.233 136.598,175.25 C135.931,171.586 135.479,171 133.316,171 C131.937,171 129.614,171.634 128.154,172.408 C120.8,176.311 99.961,182.316 79,186.573 C74.875,187.411 69.925,188.511 68,189.017 C61.272,190.787 44.224,193.133 40.379,192.818 C35.201,192.394 34.59,189.257 38.853,184.993 C41.194,182.652 42.731,182 45.905,182 C50.942,182 62.7,180.273 70,178.462 C73.025,177.711 77.075,176.864 79,176.579 C83.92,175.852 93.937,173.445 97.5,172.134 C99.15,171.527 105.9,169.436 112.5,167.488 C119.1,165.54 126.525,163.155 129,162.187 L133.5,160.429 L133.5,150.421 C133.5,142.523 133.874,139.841 135.273,137.706 Z M125.975,18.53 C127.51,16.68 128.72,16.634 132,18.298 C134.056,19.342 134.529,20.36 134.663,24.034 C134.753,26.49 135.331,32.325 135.947,37 C138.379,55.441 138.806,65.767 137.831,82.5 C136.366,107.623 136.27,111.049 137.013,111.508 C137.722,111.946 147.245,108.691 150.236,106.988 C151.191,106.445 152.766,106.002 153.736,106.004 C156.696,106.01 162,109.817 162,111.934 C162,114.776 156.151,118.806 150.966,119.537 C148.51,119.883 145.15,120.763 143.5,121.491 C141.85,122.22 138.7,123.489 136.5,124.311 C134.3,125.133 130.167,126.75 127.315,127.903 C124.463,129.056 121.127,130 119.902,130 C118.678,130 115.697,131.159 113.279,132.577 C109.099,135.026 108.759,135.072 106.381,133.514 C104.558,132.319 103.963,131.154 104.19,129.22 C104.595,125.756 109.376,122.568 118.036,119.989 C121.739,118.887 125.21,117.425 125.75,116.742 C127.652,114.337 130.549,59.42 129.032,54.536 C125.331,42.622 123.535,21.47 125.975,18.53 Z M156.667,18.667 C157.981,17.353 162.72,18.033 164.283,19.761 C165.342,20.931 166.231,25.041 166.934,32.011 C168.687,49.4 169.026,51 170.964,51 C171.919,51 175.001,48.489 177.813,45.419 C183.423,39.294 185.126,38.942 188.333,43.242 C190.297,45.875 190.311,46.124 188.691,49.523 C187.762,51.469 186.215,53.341 185.251,53.683 C184.288,54.025 181.361,55.811 178.748,57.652 C176.134,59.494 173.377,61 172.62,61 C170.687,61 169.092,63.192 168.548,66.595 C168.293,68.193 167.82,71.186 167.497,73.248 C166.477,79.76 159.894,81.408 156.941,75.89 C156.115,74.347 156.216,73.319 157.365,71.566 C159.412,68.442 159.458,43.113 157.433,34.188 C155.924,27.542 155.542,19.792 156.667,18.667 Z M96.336,31.567 C97.157,29.427 101.32,29.591 103.359,31.844 C105.553,34.268 107.74,42.879 109.01,54.086 C109.853,61.532 109.766,63.922 108.517,67.601 C107.683,70.059 107,72.581 107,73.206 C107,75.067 103.83,78 101.82,78 C99.057,78 97.83,73.587 98.502,66.072 C99.302,57.133 98.251,55.773 93.478,59.57 C91.452,61.182 88.903,63.01 87.813,63.634 C86.723,64.258 85.33,65.27 84.716,65.884 C83.075,67.525 79.235,67.242 78.207,65.405 C76.55,62.445 78.197,59.075 83.521,54.526 C86.435,52.037 89.115,50 89.476,50 C89.838,50 91.634,48.855 93.468,47.457 C96.725,44.973 96.79,44.776 96.268,39.024 C95.975,35.785 96.005,32.429 96.336,31.567 Z"/>
</svg>

