<svg xmlns="http://www.w3.org/2000/svg" width="300" height="300" viewBox="0 0 300 300" version="1.1">
  <defs/>
  <path d="M79.854,37.706 C81.309,37.483 82.921,37.232 83.436,37.15 C83.95,37.067 85.413,37.978 86.686,39.174 C88.55,40.926 89,42.397 89,46.742 C89,52.393 88.904,52.567 79.609,63.641 C77.083,66.651 76.862,67.401 77.859,69.59 C80.382,75.127 78.523,78.733 71.25,82.409 C67.891,84.106 66.928,86 69.423,86 C70.206,86 72.184,87.125 73.818,88.5 C75.452,89.875 77.363,91 78.066,91 C81.791,91 84.754,98.738 82.105,101.55 C81.597,102.089 81.559,104.981 82.018,108.239 C82.575,112.205 82.411,115.546 81.487,119.049 C79.857,125.23 81.164,126.352 86.235,123.122 C92.183,119.332 93.827,118.74 96.524,119.417 C98.825,119.994 99.107,120.462 98.563,122.794 C96.922,129.823 95.825,131.102 88.503,134.53 C77.899,139.495 76.111,142.458 72.829,160.5 C72.129,164.35 70.315,169.836 68.799,172.691 C67.283,175.547 65.738,179.783 65.367,182.106 C64.996,184.429 63.417,188.843 61.859,191.915 C60.3,194.987 59.02,197.882 59.013,198.349 C59.006,198.816 58.345,200.616 57.545,202.349 C54.742,208.422 52,216.091 52,217.857 C52,219.388 47.884,224 46.518,224 C46.261,224 45.333,222.61 44.454,220.911 C42.988,218.075 42.99,217.54 44.489,214.383 C45.942,211.321 53.254,190.236 56.066,181 C56.653,179.075 57.539,176.6 58.036,175.5 C59.504,172.249 63.787,155.9 64.559,150.598 L65.273,145.695 L61.934,146.363 C60.098,146.73 57.675,147.844 56.548,148.838 C55.422,149.833 50.064,152.799 44.642,155.43 C33.969,160.608 32.881,160.562 31.486,154.863 C31.019,152.958 31.379,151.71 32.784,150.363 C33.854,149.339 35.277,147.448 35.947,146.162 C36.906,144.321 37.698,143.958 39.678,144.455 C42.255,145.102 45.531,143.874 57.763,137.674 C68.565,132.199 68.958,131.69 69.672,122.25 C70.387,112.796 69.798,112.215 64.347,117 C62.468,118.65 60.449,120 59.86,120 C59.271,120 57.452,121.125 55.818,122.5 C54.184,123.875 51.817,125 50.559,125 C48.599,125 48.182,124.342 47.641,120.397 C47.137,116.718 47.41,115.233 49.005,112.993 C50.102,111.452 51,109.753 51,109.218 C51,106.985 53.714,105.913 56.338,107.108 C58.699,108.184 59.217,107.935 62.95,103.932 C67.364,99.198 67.835,97.204 65.412,93.505 C64.342,91.873 64.041,90.088 64.491,88.041 C65.132,85.121 65.024,85 61.779,85 C58.024,85 56,83.525 56,80.79 C56,79.175 62.22,69.267 64.029,68 C65.588,66.908 70.143,56.982 69.83,55.357 C69.643,54.387 68.095,53.263 66.307,52.8 C62.428,51.795 58.598,46.843 59.5,44.001 C60.053,42.259 61.012,42 66.912,42 C72.354,42 74.037,41.617 75.449,40.056 C76.416,38.987 78.399,37.93 79.854,37.706 Z M178.484,47.299 C182.057,44.691 185.052,44.459 188.971,46.485 C193.898,49.033 197.072,55.245 199.04,66.188 C199.565,69.11 200.426,73.525 200.954,76 C201.481,78.475 201.932,82.386 201.956,84.691 C201.98,86.996 202.38,89.117 202.844,89.404 C206.4,91.601 205.519,205.341 201.893,212.184 C201.402,213.111 201,218.748 201,224.712 C201,236.272 200.745,236.925 195.041,239.978 C192.78,241.188 189,240.507 189,238.889 C189,238.352 186.75,235.209 184,231.904 C181.25,228.6 179,225.314 179,224.602 C179,223.89 178.257,221.818 177.349,219.998 C175.378,216.047 173.371,205.627 173.822,201.691 C174.466,196.076 179.992,197.578 180.009,203.372 C180.014,205.093 181.125,208.75 182.478,211.5 C183.831,214.25 184.952,217.222 184.969,218.104 C185.012,220.312 189.944,225.467 190.973,224.379 C191.43,223.895 192.044,218.775 192.338,213 C192.632,207.225 193.521,197.244 194.314,190.819 C195.189,183.723 195.613,173.517 195.393,164.819 C195.193,156.944 195.361,144.425 195.765,137 C196.169,129.575 196.196,120.8 195.825,117.5 C195.454,114.2 194.838,106.556 194.456,100.512 C194.074,94.469 193.145,87.494 192.391,85.012 C191.638,82.531 191.017,79.064 191.011,77.309 C191.005,75.554 190.55,73.84 190,73.5 C189.45,73.16 188.98,71.446 188.957,69.691 C188.908,66.085 185.316,59.211 182.63,57.581 C181.118,56.663 179.892,57.555 174.521,63.477 C168.514,70.099 168.048,70.402 165.346,69.441 C162.779,68.527 162.531,68.04 162.817,64.464 C163.064,61.373 163.971,59.73 166.933,57 C171.903,52.421 174.801,49.987 178.484,47.299 Z M116.75,69.398 C120.114,66.424 121.135,66.079 126.666,66.042 C132.656,66.001 132.92,66.111 135.916,69.894 C137.612,72.036 139,74.742 139,75.907 C139,77.073 139.425,78.809 139.944,79.764 C141.107,81.902 143.206,96.857 142.503,97.995 C142.222,98.449 141.815,113.598 141.598,131.66 C141.38,149.722 140.676,169.9 140.032,176.5 C139.388,183.1 138.637,190.844 138.364,193.71 C137.918,198.377 137.494,199.149 134.296,201.126 L130.727,203.332 L125.113,197.372 C115.259,186.909 113.653,184.295 114.61,180.271 C115.299,177.373 117.728,174 119.126,174 C119.865,174 123.834,181.832 125.369,186.32 C126.258,188.921 130.575,188.201 130.286,185.5 C130.168,184.4 130.486,179.9 130.993,175.5 C133.465,154.024 132.495,93.528 129.465,80.216 C128.586,76.357 124.979,75.48 119.958,77.906 C113.887,80.839 113,80.642 113,76.356 C113,73.401 113.709,72.085 116.75,69.398 Z M113.354,116.704 C115.839,116.233 118.472,116.741 122,118.373 C124.427,119.496 124.505,119.848 124.66,130.428 C124.806,140.371 124.609,141.659 122.41,145.143 C121.084,147.242 120,149.835 120,150.903 C120,151.972 118.943,154.119 117.652,155.673 C116.361,157.228 114.976,159.842 114.575,161.483 C114.173,163.124 111.94,166.724 109.612,169.483 C107.283,172.242 104.771,176.075 104.029,178 C103.287,179.925 101.679,182.864 100.455,184.532 C99.232,186.2 98.063,188.434 97.858,189.498 C97.653,190.561 96.282,192.107 94.811,192.932 C92.375,194.3 91.956,194.271 90.116,192.605 C86.21,189.07 87.022,187.42 108.642,154.939 C118.647,139.908 120.134,136.819 118,135.5 C117.45,135.16 117,134.042 117,133.016 C117,131.854 115.396,130.268 112.75,128.812 C109.536,127.044 108.421,125.785 108.175,123.649 C107.805,120.43 110.127,117.317 113.354,116.704 Z M187.286,122.25 C188.529,120.629 190.471,120.658 191.848,122.316 C193.054,123.77 191.685,130.459 189.963,131.523 C189.433,131.85 189,133.165 189,134.445 C189,135.724 188.328,138.06 187.506,139.636 C186.685,141.211 186,143.4 185.984,144.5 C185.968,145.6 185.076,147.625 184,149 C182.924,150.375 182.034,152.149 182.022,152.942 C181.992,154.934 174.673,167.081 172.103,169.407 C170.946,170.454 170,171.82 170,172.443 C170,173.067 167.988,175.259 165.528,177.314 C159.734,182.157 156.59,181.702 154.811,175.762 C153.501,171.392 153.68,171.122 161.498,165.65 C163.707,164.104 168.484,157.527 174.68,147.5 C176.034,145.309 178.651,139.997 183.302,130 C184.966,126.425 186.758,122.938 187.286,122.25 Z M169.469,108.029 C176.08,103.672 184.079,109.437 182.571,117.473 C181.738,121.912 179.707,122.849 175.853,120.572 C173.043,118.913 172.79,118.926 169.407,120.922 C165.506,123.224 160.051,123.651 158.2,121.8 C157.54,121.14 157,119.53 157,118.223 C157,115.421 162.052,110.003 164.673,109.993 C165.678,109.99 167.836,109.106 169.469,108.029 Z"/>
</svg>

