<svg xmlns="http://www.w3.org/2000/svg" width="300" height="300" viewBox="0 0 300 300" version="1.1">
  <defs/>
  <path d="M75.077,2.081 C77.826,0.607 80.945,0.221 90.917,0.123 C97.746,0.055 103.134,0.199 102.891,0.443 C100.804,2.529 93.912,6.297 87.045,9.104 C77.854,12.862 76.539,14.528 77.263,21.5 C77.491,23.7 77.326,31.8 76.895,39.5 C76.464,47.2 76.489,53.879 76.949,54.343 C77.41,54.807 78.847,54.523 80.143,53.712 C81.439,52.901 83.732,51.952 85.237,51.603 C90.873,50.296 92.622,42.875 87.592,41.612 C84.642,40.872 84,37.882 84,24.894 C84,15.148 84.029,15.031 86.565,14.394 C90.467,13.415 95,18.14 95,23.187 C95,25.284 95.41,27 95.911,27 C97.171,27 102,21.129 102,19.598 C102,17.495 106.541,13.886 108.325,14.571 C110.056,15.236 111.985,20.76 111.994,25.081 C111.998,26.91 110.399,29.19 106.5,32.911 C101.304,37.87 99.769,41.121 101.979,42.487 C103.067,43.159 106.677,41.466 108.903,39.239 C110.523,37.62 116.227,38.114 118.594,40.078 C119.771,41.055 119.123,42.179 114.755,46.738 C111.865,49.754 108.007,52.866 106.181,53.653 C103.913,54.631 102.396,56.257 101.387,58.792 C100.575,60.831 99.516,63.4 99.033,64.5 C98.55,65.6 97.904,67.669 97.597,69.098 C96.931,72.195 99.483,73.694 107.698,75.032 C111.659,75.677 113.879,76.785 117.024,79.689 C119.295,81.785 121.557,84.513 122.051,85.75 C123.536,89.465 126.23,88.372 130.5,82.321 C132.7,79.204 135.963,74.99 137.75,72.956 C141.591,68.585 141.772,67.031 138.75,64.359 C134.32,60.441 131.075,58.943 128.449,59.602 C125.455,60.354 121,56.86 121,53.76 C121,49.725 122.877,48.001 127.285,47.987 C130.97,47.975 132.332,47.253 138.122,42.237 C141.764,39.082 146.429,34.587 148.488,32.25 C151.419,28.923 152.913,28.007 155.366,28.032 C161.61,28.095 165.454,33.971 163.896,41.072 C162.654,46.729 160.349,53.332 157.696,58.827 C156.128,62.073 155.869,63.571 156.659,64.827 C157.237,65.747 162.388,69.745 168.105,73.711 C173.822,77.677 180.075,82.059 182,83.449 C183.925,84.839 187.579,87.445 190.12,89.238 C204.997,99.741 205.05,99.797 204.392,104.342 C203.844,108.128 201.08,112 198.925,112 C198.456,112 196.988,110.405 195.663,108.454 C192.68,104.064 187.959,100.037 177,92.532 C172.325,89.33 167.6,85.929 166.5,84.974 C162.111,81.164 150.774,74.002 149.187,74.038 C147.647,74.073 145.523,76.495 139.274,85.347 C138.05,87.081 135.913,89.63 134.524,91.011 C133.136,92.392 132,94.281 132,95.21 C132,97.609 119.631,106.228 116.772,105.822 C113.364,105.339 113.471,102.007 117.018,98.133 C118.713,96.282 119.965,94.674 119.8,94.561 C116.308,92.171 109.667,89 108.152,89 C107.056,89 103.311,91.413 99.83,94.361 C96.348,97.31 92.15,100.029 90.5,100.404 C80.189,102.746 78.19,103.025 75.368,102.517 C73.645,102.207 70.44,100.653 68.246,99.063 C64.391,96.271 64.223,95.907 63.294,88.351 C62.765,84.049 62.677,79.173 63.1,77.515 C64.689,71.28 68.01,35.939 68.345,21.689 C68.725,5.573 68.76,5.47 75.077,2.081 Z M163.329,113.96 C170.012,112.368 171.122,112.766 176.697,118.75 C183.297,125.833 186.235,131.701 186.806,138.946 C187.047,142.001 187.633,144.988 188.107,145.584 C189.666,147.543 188.345,179.755 186.108,194.358 C184.94,201.98 183.806,208.505 183.589,208.858 C183.371,209.211 182.673,214 182.038,219.5 C180.255,234.947 177.06,254.31 175.976,256.236 C175.439,257.191 175,259.406 175,261.158 C175,262.909 174.255,265.165 173.345,266.171 C171.155,268.591 165.532,268.588 163.807,266.166 C163.088,265.157 159.83,261.337 156.566,257.678 C153.302,254.019 149.665,249.019 148.482,246.566 C147.3,244.113 145.869,241.52 145.303,240.803 C143.418,238.418 142.867,231.355 144.463,230.031 C146.775,228.112 147.219,228.612 152.663,239.25 C153.578,241.037 156.115,244.661 158.301,247.303 C161.437,251.093 162.816,252.042 164.839,251.803 C167.271,251.516 167.465,251.039 168.629,242.5 C169.304,237.55 170.414,229.9 171.096,225.5 C171.777,221.1 172.47,216.375 172.634,215 C172.798,213.625 173.331,209.076 173.819,204.892 C174.307,200.707 175.071,196.695 175.516,195.975 C177.011,193.555 178.856,174.523 177.707,173.374 C176.663,172.329 174.119,174.389 173.524,176.761 C173.163,178.201 171.997,180.6 170.934,182.093 C169.87,183.587 169,185.682 169,186.749 C169,187.817 168.1,189.505 167,190.5 C165.9,191.495 165,192.846 165,193.502 C165,194.157 163.537,196.28 161.75,198.219 C156.552,203.857 153.27,207.708 152.871,208.637 C152.556,209.37 149.921,211.586 139,220.302 C138.174,220.961 136.207,222.334 134.627,223.354 C131.819,225.165 131.695,225.163 129.127,223.246 C127.2,221.807 126.5,220.388 126.5,217.918 C126.5,214.844 126.995,214.289 132.2,211.526 C135.335,209.862 140.417,206.25 143.493,203.5 C149.208,198.391 160,185.801 160,184.242 C160,183.766 160.792,182.505 161.759,181.439 C165.654,177.146 169.771,171.377 170.414,169.312 C170.789,168.108 172.685,165.728 174.627,164.022 C177.947,161.107 178.161,160.55 178.191,154.711 C178.261,141.544 176.258,134.504 170.664,128.25 C168.062,125.341 163.93,125.365 160.327,128.31 C157.397,130.704 147.052,136 145.305,136 C144.758,136 143.525,135.132 142.565,134.072 C140.358,131.633 141.178,128.828 144.986,125.794 C152.665,119.675 160.466,114.642 163.329,113.96 Z M84.662,127.75 C90.241,123.758 92.025,123 95.834,123 C99.965,123 100.796,123.444 105.184,127.997 C108.099,131.021 110,133.903 110,135.297 C110,136.564 110.509,138.109 111.131,138.731 C113.913,141.513 113.573,197.309 110.747,201.66 C110.332,202.298 109.368,208.494 108.604,215.429 C107.839,222.363 106.657,228.709 105.975,229.53 C105.294,230.351 103.958,232.48 103.006,234.261 C100.388,239.16 97.225,239.839 92.277,236.565 C85.536,232.104 80.063,224.805 78.744,218.516 C77.187,211.095 78.666,209.347 82.993,213.494 C84.647,215.078 86,216.88 86,217.499 C86,218.117 86.787,219.52 87.75,220.616 C88.712,221.712 89.996,223.485 90.602,224.555 C91.208,225.625 92.631,226.639 93.764,226.808 C95.479,227.064 96.077,226.226 97.33,221.808 C100.181,211.751 102.178,194.451 102.705,175.238 C103.388,150.318 102.611,141.52 99.447,138.356 C95.843,134.752 92.69,135.393 83.754,141.549 C79.323,144.601 75.084,146.863 74.334,146.575 C72.638,145.924 70.875,141.489 71.581,139.649 C71.87,138.897 73.2,137.696 74.536,136.98 C75.873,136.265 77.204,134.964 77.495,134.09 C77.785,133.215 81.011,130.363 84.662,127.75 Z M90.307,175.632 C94.718,173.795 95.832,179.264 92.004,183.969 C90.872,185.361 89.297,187.912 88.506,189.637 C87.715,191.363 85.035,194.738 82.55,197.137 C80.066,199.537 78.026,202.047 78.017,202.715 C78.007,203.384 76.763,205.41 75.25,207.218 C73.737,209.027 72.008,211.405 71.408,212.503 C70.807,213.601 69.091,215.101 67.594,215.835 C66.097,216.57 64.591,217.92 64.247,218.835 C63.904,219.751 62.47,221.656 61.061,223.069 C59.653,224.483 55.885,228.645 52.688,232.319 C49.491,235.994 46.082,239 45.112,239 C44.142,239 42.366,237.954 41.164,236.675 C38.001,233.307 39.116,229.309 44.336,225.308 C51.308,219.965 64.41,206.889 69.949,199.748 C72.83,196.034 75.707,192.659 76.343,192.248 C76.979,191.836 80.113,188.042 83.307,183.814 C86.5,179.587 89.65,175.905 90.307,175.632 Z M123.985,5.75 L124,0 L134,0 L133.98,5.75 C133.969,8.912 133.471,14.425 132.874,18 C132.276,21.575 131.716,25.625 131.629,27 C131.385,30.821 130.191,32 126.563,32 C121.518,32 120.69,30.289 122.455,23.511 C123.413,19.834 123.624,17.167 123.044,16.083 C122.503,15.071 122.507,13.812 123.054,12.946 C123.558,12.151 123.976,8.912 123.985,5.75 Z M144.002,160.751 C146.476,160.538 149.099,160.506 149.832,160.682 C150.564,160.857 152.286,161 153.659,161 C155.095,161 157.421,162.267 159.141,163.987 C162.925,167.771 162.955,173.294 159.195,173.827 C157.927,174.006 156.352,173.72 155.695,173.19 C153.777,171.643 146.295,170.714 145.544,171.929 C144.646,173.381 138.689,173.289 137.2,171.8 C135.416,170.016 135.749,164.538 137.752,162.725 C138.715,161.853 141.528,160.965 144.002,160.751 Z M144.607,1.582 C145.117,0.253 147.27,0 158.076,0 C168.394,0 170.836,0.264 170.425,1.336 C170.143,2.07 168.343,3.42 166.425,4.334 C164.507,5.249 162.679,6.674 162.361,7.5 C161.553,9.607 153.312,15 150.902,15 C146.207,15 142.494,7.087 144.607,1.582 Z M85.154,62.314 C84.554,63.037 81.799,64.689 79.032,65.985 C74.884,67.928 73.825,68.971 73.005,71.921 C71.887,75.946 71.728,81.384 72.63,84.75 C73.292,87.219 76.134,87.749 77.82,85.717 C80.097,82.974 89,64.875 89,62.991 C89,60.732 86.79,60.343 85.154,62.314 Z M77,165.752 C81.718,163.395 85.499,163.545 87.961,166.189 C90.855,169.295 90.506,172.397 86.923,175.411 C83.296,178.463 82.884,178.503 77.232,176.345 C73.121,174.775 72.913,174.504 73.199,171.095 C73.448,168.12 74.103,167.199 77,165.752 Z M145.616,49.003 C141.406,53.663 141.321,54.076 144.059,56.553 C146.729,58.97 149.09,57.595 150.298,52.918 C150.783,51.038 151.628,48.957 152.176,48.294 C153.354,46.868 152.435,45 150.557,45 C149.829,45 147.605,46.801 145.616,49.003 Z M91.378,79.75 C91.07,80.713 90.329,82.522 89.73,83.77 C88.914,85.47 88.954,86.35 89.887,87.27 C90.877,88.246 91.742,87.822 94.084,85.216 C96.498,82.528 96.842,81.574 95.982,79.966 C94.677,77.528 92.126,77.409 91.378,79.75 Z"/>
</svg>

