<svg xmlns="http://www.w3.org/2000/svg" width="300" height="300" viewBox="0 0 300 300" version="1.1">
  <defs/>
  <path d="M64.2,76.2 C65.82,74.58 65.97,74.615 70.451,77.66 L74.366,80.321 L80.597,78.66 C88.81,76.472 92.179,76.566 95.365,79.073 C97.4,80.673 98,82.026 98,85.014 C98,87.141 98.45,89.16 99,89.5 C99.55,89.84 100,91.19 100,92.5 C100,93.81 100.45,95.16 101,95.5 C101.55,95.84 102,98.11 102,100.545 C102,102.979 102.432,106.89 102.959,109.236 C103.9,113.419 105.383,124.623 107.099,140.5 C108.252,151.172 109.466,157.9 110.855,161.315 C111.485,162.863 112,168.144 112,173.051 C112,177.957 112.429,183.89 112.952,186.236 C115.907,199.466 117.213,225.834 115.042,228.449 C112.851,231.09 109.706,230.14 104.363,225.225 C99.302,220.569 94,211.426 94,207.354 C94,206.279 93.512,204.912 92.915,204.315 C91.335,202.735 92.215,198.575 94.209,198.195 C95.34,197.979 96.428,198.991 97.425,201.185 C100.25,207.405 103.677,212.5 105.035,212.5 C106.108,212.5 106.333,210.312 106.11,202.016 C105.955,196.249 105.532,191.074 105.169,190.516 C104.807,189.957 104.195,186.35 103.81,182.5 C103.426,178.65 102.606,171.225 101.99,166 C101.373,160.775 100.632,154.137 100.342,151.25 C99.988,147.723 99.364,146 98.443,146 C96.8,146 95,149.08 95,151.89 C95,153.002 93.987,155.455 92.75,157.341 C89.95,161.611 86.926,166.61 85.123,169.949 C84.366,171.352 82.566,173.774 81.123,175.332 C78.986,177.639 77.901,178.069 75.271,177.648 C72.222,177.161 71.983,177.35 70.994,181.024 C70.417,183.164 69.508,185.186 68.973,185.517 C68.438,185.847 68,187.415 68,189 C68,190.585 67.55,192.16 67,192.5 C66.45,192.84 66,193.967 66,195.005 C66,197.314 59.033,210.957 55.466,215.633 C52.374,219.688 48.488,222.42 47.064,221.54 C46.037,220.905 47.239,217.967 49.582,215.385 C52.764,211.879 61,191.044 61,186.499 C61,185.19 61.45,183.84 62,183.5 C62.55,183.16 63,181.739 63,180.342 C63,178.945 63.637,176.384 64.415,174.651 C65.193,172.918 66.075,169.25 66.374,166.5 C67.343,157.583 68.879,147.596 69.936,143.342 C70.504,141.055 71.054,130.03 71.159,118.842 C71.321,101.536 71.095,97.934 69.643,94.706 C68.704,92.619 68.183,90.513 68.484,90.026 C68.785,89.539 67.674,86.839 66.016,84.026 C62.618,78.265 62.527,77.873 64.2,76.2 Z M163.5,84.491 C167.934,83.012 173.702,85.368 177.005,90.007 C178.965,92.76 179.162,94.262 179.102,106.037 C179.054,115.594 178.635,119.805 177.518,121.965 C176.683,123.58 176,125.604 176,126.464 C176,130.043 171.765,135.525 167,138.116 C161.644,141.027 150.755,148.047 144.687,152.5 L139.236,156.5 L139.668,168 C139.906,174.325 140.69,180.85 141.41,182.5 C142.131,184.15 143.132,186.85 143.634,188.5 C144.403,191.024 145.574,191.874 151.024,193.857 C157.349,196.158 158.06,196.2 181.5,195.637 C198.381,195.232 207.131,194.609 211,193.536 C214.025,192.696 220.19,191.718 224.701,191.361 C231.955,190.787 233.212,190.388 235.599,187.897 C238.003,185.388 238.284,184.365 238.184,178.504 C238.123,174.886 237.735,171.381 237.323,170.714 C236.582,169.515 235.782,164.556 233.98,150 C233.47,145.875 232.617,140.25 232.086,137.5 C230.541,129.507 230.72,116 232.37,116 C233.155,116 234.177,117.816 234.763,120.25 C235.325,122.588 236.317,126.525 236.967,129 C237.617,131.475 238.553,135.975 239.048,139 C240.58,148.363 241.683,152.912 242.744,154.232 C243.693,155.413 244.198,157.68 245.644,167.256 C245.956,169.322 246.614,171.261 247.106,171.565 C247.598,171.869 248,175.482 248,179.594 C248,187.363 246.256,192 243.333,192 C242.543,192 241.427,193.344 240.855,194.987 C239.639,198.474 238.648,198.805 219.5,202.128 C208.222,204.085 202.857,204.391 179,204.442 C159.729,204.483 150.273,204.127 147.401,203.252 C139.138,200.737 133.236,194.789 133.073,188.815 C133.033,187.338 132.487,184.863 131.859,183.315 C130.35,179.59 130.658,113.118 132.193,111.268 C133.626,109.541 137.48,109.669 138.995,111.494 C139.781,112.441 139.964,113.998 139.494,115.744 C139.086,117.26 138.618,123.761 138.454,130.192 C138.094,144.265 139.105,146.24 143.991,141.009 C145.646,139.238 147,136.951 147,135.928 C147,134.905 147.623,132.59 148.384,130.784 C150.775,125.112 152,118.236 152,110.486 C152,106.369 151.76,103 151.467,103 C151.173,103 148.713,104.125 146,105.5 C139.797,108.643 137.946,108.636 134.958,105.455 C131.813,102.107 132.876,100.403 140.57,96.463 C143.832,94.793 148.922,91.749 151.883,89.699 C154.844,87.649 158.444,85.713 159.883,85.398 C161.322,85.083 162.95,84.675 163.5,84.491 Z M82.081,89.525 C78.096,91.713 77.68,93.552 80.487,96.58 C81.789,97.985 82.512,98.704 82.747,99.559 C83.048,100.652 82.549,101.966 81.441,105.219 C80.584,107.736 80.021,111.978 80.191,114.647 L80.5,119.5 L85.165,119.176 C89.387,118.883 90.047,119.144 92.103,121.926 C95.212,126.13 97.439,126.043 96.567,121.75 C96.205,119.963 95.519,115.284 95.045,111.354 C94.57,107.424 93.691,103.291 93.091,102.17 C92.491,101.049 92,99.032 92,97.688 C92,96.344 91.319,93.614 90.487,91.622 C88.83,87.658 86.527,87.083 82.081,89.525 Z M165,94.5 C163.625,95.286 161.797,95.945 160.937,95.965 C159.363,96 154,100.954 154,102.372 C154,102.792 154.837,102.869 155.859,102.545 C156.882,102.22 158.442,102.232 159.326,102.572 C160.711,103.103 160.849,104.53 160.319,112.844 C159.97,118.331 159.121,123.352 158.352,124.473 C157.609,125.557 157,127.47 157,128.723 C157,131.616 159.664,131.722 164.926,129.038 C168.046,127.446 168.907,126.36 169.488,123.288 C170.812,116.271 171.175,97.196 170.025,95.046 C168.741,92.648 168.32,92.602 165,94.5 Z M83,131.962 L78.5,132.5 L77.905,142 C77.577,147.225 77.043,152.4 76.717,153.5 C76.391,154.6 75.9,157.188 75.625,159.25 C75.199,162.45 75.406,163 77.037,163 C78.136,163 79.588,161.764 80.453,160.09 C81.281,158.49 82.305,157.028 82.729,156.84 C84.484,156.065 89.788,148.218 91.069,144.5 C91.827,142.3 93.472,139.228 94.724,137.673 C97.751,133.915 97.596,133 93.934,133 C92.248,133 90.111,132.646 89.184,132.212 C88.258,131.779 85.475,131.667 83,131.962 Z"/>
</svg>

