<svg xmlns="http://www.w3.org/2000/svg" width="300" height="300" viewBox="0 0 300 300" version="1.1">
  <defs/>
  <path d="M128.039,76.189 C129.16,74.985 130.533,74 131.09,74 C132.392,74 135.273,80.847 134.651,82.466 C134.391,83.144 134.625,85.792 135.17,88.35 C136.191,93.135 137.782,94.173 140,91.5 C141.759,89.381 154.73,89.422 157.777,91.557 C160.037,93.139 160.893,98.532 159.205,100.55 C158.768,101.073 157.564,104.2 156.529,107.5 C155.494,110.8 154.276,113.927 153.823,114.45 C153.37,114.973 153,116.408 153,117.641 C153,118.874 152.55,120.16 152,120.5 C150.131,121.655 150.99,123.959 153.526,124.596 C158.27,125.787 159.686,132.722 155.75,135.487 C150.988,138.832 145.737,142.094 142.192,143.909 C138.794,145.65 135.332,149.335 132.285,154.458 C131.617,155.581 131.055,158.836 131.035,161.691 C131.016,164.546 130.55,167.16 130,167.5 C128.51,168.421 128.789,169.705 130.634,170.413 C131.585,170.778 134.591,169.729 137.827,167.903 C145.152,163.768 155.291,160 159.089,160 C165.071,160 169.94,164.302 169.978,169.62 C170.006,173.634 166.62,184.232 163.823,188.884 C162.627,190.873 157.854,197.618 153.216,203.874 C146.969,212.3 145.123,215.458 146.093,216.058 C146.814,216.503 150.8,217.122 154.952,217.433 C159.103,217.745 167.45,218.503 173.5,219.118 C179.55,219.733 187.309,220.446 190.742,220.703 C196.184,221.11 197.242,221.531 198.992,223.989 C201.493,227.501 201.514,229.144 199.097,232.129 L197.193,234.48 L191.847,232.776 C188.906,231.838 184.925,230.849 183,230.576 C181.075,230.304 176.575,229.652 173,229.128 C163.724,227.767 144.145,227.526 139.878,228.719 C137.886,229.276 134.21,230.754 131.708,232.003 C127.369,234.17 126.449,234.182 123,232.113 C122.175,231.618 120.263,230.725 118.75,230.128 C116.066,229.069 116,228.848 116,220.956 C116,216.508 116.529,211.886 117.175,210.684 C118.239,208.706 119.059,200.73 120.588,177.5 C120.878,173.1 121.375,168.825 121.692,168 C122.009,167.175 122.439,163.35 122.648,159.5 C122.856,155.65 123.448,146.2 123.964,138.5 C124.479,130.8 125.122,114.6 125.393,102.5 C125.663,90.4 125.91,80.022 125.942,79.439 C125.974,78.855 126.918,77.392 128.039,76.189 Z M57.25,51.031 C60.404,49.763 60.489,49.778 62.425,51.917 C63.741,53.371 63.913,54.294 63.139,55.741 C61.811,58.223 64.056,67.5 65.984,67.5 C67.625,67.5 70.826,62.288 70.927,59.45 C71.033,56.478 72.943,55 76.677,55 C79.031,55 80.396,55.675 81.523,57.395 C83.032,59.698 82.889,60.086 77.796,67.458 C74.883,71.675 71.263,76.734 69.75,78.7 C67.362,81.805 67,83.182 67,89.169 C67,96.937 67.905,97.973 72.566,95.542 C76.343,93.573 81.4,93.573 83.035,95.542 C84.726,97.58 83.652,98.601 75.741,102.474 L69.5,105.529 L69.204,112.265 C69.042,115.969 69.18,119 69.511,119 C69.842,119 73.359,115.69 77.326,111.645 C85.752,103.053 90.041,100.417 93.009,102.005 C94.334,102.714 95,104.098 95,106.145 C95,109.452 94.333,110.205 77.799,125.555 L69.123,133.61 L68.464,142.055 C68.101,146.7 67.736,155 67.652,160.5 L67.5,170.5 L74.32,171.618 C78.07,172.233 82.12,173.21 83.32,173.789 C89.143,176.598 97.362,180.002 98.371,180.022 C100.693,180.068 104.299,183.828 105.572,187.531 C106.735,190.913 106.693,191.504 105.219,192.582 C102.425,194.625 96.46,193.532 92.263,190.209 C90.154,188.538 86.644,186.857 84.464,186.473 C82.284,186.089 79.456,185.12 78.18,184.319 C75.314,182.519 66.92,179.931 65.931,180.543 C65.18,181.007 64.237,189.29 63.546,201.5 C63.328,205.35 62.699,209.68 62.148,211.122 C61.598,212.564 61.001,219.077 60.823,225.595 C60.553,235.503 60.167,237.942 58.468,240.473 C55.926,244.259 51.933,244.933 49.061,242.061 C46.512,239.512 46.444,236.99 48.841,233.885 C52.102,229.661 53.481,220.229 54.525,195 C54.696,190.875 55.149,186.037 55.531,184.25 C56.091,181.634 55.911,181 54.606,181 C53.097,181 41.232,192.32 29.417,205.031 C18.302,216.99 11.184,220.293 5.747,216.016 C0.523,211.907 3.17,206.978 11.004,206.226 C15.837,205.761 16.407,205.377 23.035,198.119 C26.862,193.929 29.995,189.978 29.997,189.339 C29.998,188.7 31.251,187.125 32.78,185.838 C34.31,184.551 36.969,181.474 38.689,178.999 C45.641,169.001 51.452,164.686 53.5,168 C53.84,168.55 54.766,169 55.559,169 C56.571,169 57,167.822 57,165.049 C57,162.876 57.418,158.939 57.929,156.299 C58.439,153.66 59.093,149.137 59.382,146.25 C59.848,141.582 59.696,141 58.014,141 C56.973,141 54.081,142.766 51.588,144.924 C49.094,147.082 46.049,149.167 44.82,149.557 C43.591,149.947 39.428,152.231 35.569,154.633 C31.709,157.035 27.779,159 26.835,159 C25.891,159 24.84,159.45 24.5,160 C23.564,161.514 17.408,161.197 16.054,159.565 C14.479,157.667 15.104,151.92 17,150.874 C17.825,150.419 23.65,147.784 29.944,145.018 C36.239,142.252 41.639,139.617 41.944,139.161 C42.25,138.706 45.273,136.866 48.663,135.074 C57.738,130.274 59.179,128.366 59.635,120.551 C59.985,114.566 59.847,114 58.044,114 C56.958,114 54.591,115.238 52.785,116.75 C46.242,122.228 42.817,124.144 37.624,125.233 C30.225,126.785 28.811,126.035 29.192,120.759 C29.492,116.614 29.674,116.411 36,113.17 C39.575,111.338 43.85,109.31 45.5,108.663 C50.521,106.692 59,100.913 59,99.461 C59,98.709 58.462,96.912 57.803,95.468 C56.6,92.828 55.158,92.625 50.75,94.478 C48.052,95.612 48.543,92.346 51.346,90.509 C55.365,87.875 57.727,79.186 54.899,77.438 C54.282,77.056 54.046,75.522 54.361,73.947 C54.67,72.402 54.318,68.806 53.579,65.957 C52.446,61.589 52.451,60.362 53.611,58.138 C54.368,56.687 54.99,54.698 54.994,53.718 C54.997,52.738 56.013,51.529 57.25,51.031 Z M149.903,173.889 C145.433,175.507 136.364,180.631 131.434,184.323 C129.439,185.816 129,187.022 129,191.007 C129,193.682 128.481,197.137 127.848,198.685 C127.214,200.233 126.351,203.75 125.93,206.5 C125.509,209.25 124.843,213.412 124.45,215.75 C123.864,219.239 124.016,220 125.297,220 C126.155,220 127.452,219.432 128.179,218.739 C128.905,218.045 132.114,215.268 135.31,212.566 C140.923,207.821 148.197,199.148 151.451,193.321 C152.317,191.769 153.446,189.825 153.96,189 C156.775,184.481 160.054,176.377 159.797,174.575 C159.415,171.907 156.026,171.672 149.903,173.889 Z M141.5,98.223 C134.355,100.63 134.287,100.828 134.118,119.75 C134.02,130.725 134.249,133 135.453,133 C136.252,133 137.636,131.313 138.527,129.25 C139.419,127.188 140.736,124.15 141.454,122.5 C142.173,120.85 143.35,117.475 144.07,115 C144.79,112.525 145.969,109.612 146.69,108.527 C147.41,107.443 148,105.332 148,103.837 C148,102.341 148.43,100.852 148.956,100.527 C149.482,100.202 149.659,99.275 149.349,98.468 C148.715,96.815 145.939,96.728 141.5,98.223 Z"/>
</svg>

