<svg xmlns="http://www.w3.org/2000/svg" width="300" height="300" viewBox="0 0 300 300" version="1.1">
  <defs/>
  <path d="M88.5,10.58 C91.131,8.585 93.915,8.613 96.171,10.655 C98.514,12.775 98.474,13.405 95.75,17.29 C93.036,21.162 92.02,21.965 89.808,21.985 C88.878,21.993 83.703,24.972 78.308,28.604 C72.914,32.236 66.546,36.353 64.158,37.753 C60.131,40.113 59.868,40.522 60.52,43.399 C60.906,45.104 61.232,50.212 61.245,54.75 C61.258,59.678 61.678,63 62.287,63 C62.848,63 65.009,61.157 67.088,58.904 C70.65,55.047 71.149,54.829 75.685,55.154 C80.247,55.482 80.5,55.368 80.5,53 C80.5,51.046 79.927,50.434 77.875,50.196 C75.344,49.902 75.25,49.661 75.25,43.422 C75.25,36.796 77.428,32 80.438,32 C82.777,32 87,36.101 87,38.373 C87,39.598 87.525,41.125 88.168,41.768 C90.325,43.925 92.939,99.372 91.112,104.231 C89.688,108.017 89.309,133.253 90.669,133.715 C91.312,133.934 93.495,131.275 95.52,127.806 C97.546,124.338 100.845,119.493 102.851,117.039 C104.858,114.586 106.961,111.661 107.525,110.539 C108.731,108.141 112.5,107.34 114.555,109.046 C116.735,110.855 116.295,115.102 113.5,119.215 C112.125,121.238 110.988,123.48 110.973,124.197 C110.959,124.914 109.159,127.451 106.973,129.836 C104.788,132.22 103,134.714 103,135.377 C103,136.041 100.975,138.571 98.5,141 C94.128,145.29 92.75,149.109 95.057,150.535 C96.509,151.433 105,163.186 105,164.299 C105,164.793 105.65,166.616 106.444,168.349 C110.203,176.549 110.975,182.173 110.523,198.078 C110.28,206.646 109.613,214.888 109.041,216.393 C108.468,217.899 108,220.676 108,222.565 C108,230.657 114.3,224.057 122.335,207.547 C125.292,201.471 128.72,193.575 129.953,190 C132.162,183.596 133.072,181.186 134.955,176.75 C137.883,169.854 139,166.547 139,164.779 C139,163.692 139.606,161.384 140.346,159.651 C142.831,153.836 144,149.384 144,145.738 C144,143.747 144.45,141.84 145,141.5 C145.55,141.16 146,138.932 146,136.548 C146,131.844 146.93,131 152.113,131 C154.043,131 155.256,131.605 155.622,132.75 C155.93,133.713 156.658,135.497 157.241,136.716 C158.012,138.327 157.977,139.323 157.112,140.365 C156.458,141.153 154.795,146.453 153.418,152.143 C152.04,157.832 150.483,162.917 149.956,163.444 C149.43,163.97 149,165.666 149,167.214 C149,168.761 148.596,170.809 148.103,171.764 C147.609,172.719 146.431,175.525 145.486,178 C144.54,180.475 142.694,184.756 141.383,187.514 C140.072,190.272 138.999,193.422 138.997,194.514 C138.995,195.606 137.42,199.624 135.497,203.443 C133.574,207.261 132,211.047 132,211.856 C132,212.666 129.381,216.291 126.181,219.914 C122.98,223.536 120.048,227.343 119.665,228.373 C119.069,229.974 118.173,230.179 113.462,229.788 C108.496,229.377 107.914,229.537 107.535,231.416 C104.833,244.82 103.463,247.892 96.889,255.291 L93.278,259.356 L86.88,257.777 C80.268,256.146 72,251.531 72,249.472 C72,248.828 70.611,246.382 68.912,244.038 C66.881,241.234 66.162,239.438 66.812,238.788 C68.307,237.293 71.039,238.563 75.895,243.01 C83.252,249.746 87.776,249.744 92.497,243 C96.399,237.428 96.866,235.843 98.107,224 C100.589,200.309 99.97,175.336 96.853,173.409 C96.384,173.119 96,171.816 96,170.514 C96,168.033 91.443,163.608 89.882,164.573 C89.397,164.873 89,166.184 89,167.486 C89,169.889 84.865,174 82.449,174 C81.744,174 80.284,172.788 79.204,171.306 C77.285,168.671 77.184,168.649 74.621,170.329 C73.179,171.273 72,172.429 72,172.898 C72,173.366 67.702,178.193 62.448,183.625 C52.358,194.057 46.305,200.675 37.868,210.5 C29.244,220.544 27.508,222.607 25.532,222.872 C24.982,222.945 24.414,222.88 23.673,222.808 C16.103,222.074 19.978,214.611 37.076,197 C49.379,184.327 72,158.794 72,157.579 C72,157.215 72.84,156.014 73.867,154.912 C78.145,150.321 78.84,147.04 79.787,127 C80.301,116.134 80.329,107.078 79.85,106.546 C79.33,105.967 77.306,107.246 74.708,109.796 C72.352,112.108 69.919,114 69.302,114 C68.685,114 66.002,115.69 63.34,117.755 C55.342,123.96 47.885,128.526 38.642,132.876 C33.824,135.144 29.659,137 29.386,137 C28.547,137 19.708,140.912 15.802,143.012 C9.214,146.554 5.589,144.979 6.182,138.834 C6.493,135.607 6.776,135.425 19.5,130.254 C26.65,127.348 33.021,124.64 33.657,124.235 C34.293,123.831 37.607,121.588 41.021,119.25 C44.435,116.913 47.557,115 47.959,115 C48.361,115 49.542,114.059 50.582,112.909 C52.299,111.012 52.495,108.819 52.7,89.22 C52.824,77.34 52.548,65.944 52.087,63.894 C51.529,61.409 51.708,58.399 52.625,54.865 C53.381,51.95 54,48.031 54,46.157 C54,42.85 53.905,42.769 50.75,43.385 C48.962,43.734 44.385,44.977 40.578,46.146 C32.272,48.698 30.632,48.072 30.194,42.181 C29.911,38.378 30.101,38.022 32.694,37.485 C39.436,36.089 55.799,30.562 59,28.6 C60.925,27.419 63.706,25.789 65.18,24.977 C69.683,22.496 86.375,12.191 88.5,10.58 Z M139.627,29.511 C141.207,28.687 143.744,28.01 145.265,28.006 C148.916,27.998 152.125,32.975 151.334,37.418 C150.518,41.999 144.31,54.634 139.355,61.798 C136.96,65.262 135,68.741 135,69.53 C135,71.142 146.546,80.021 152.167,82.732 C154.184,83.704 157.014,86.3 158.457,88.5 C161.893,93.741 161.564,97.731 157.5,100.103 C153.043,102.704 151,102.494 151,99.434 C151,95.245 149.4,93.392 141.58,88.517 C137.494,85.971 133.612,83.238 132.953,82.444 C132.294,81.65 130.573,81.001 129.128,81.003 C126.385,81.006 125.008,82.591 120.719,90.687 C117.808,96.181 109.115,106.482 106.203,107.89 C100.108,110.835 97.28,107.8 101.397,102.732 C108.503,93.982 118,78.655 118,75.934 C118,75.413 116.875,74.009 115.5,72.813 C112.596,70.288 112.228,66.484 114.756,65.131 C115.722,64.614 118.534,64.389 121.006,64.631 C125.363,65.057 125.599,64.934 128.75,60.577 C130.537,58.106 132,55.574 132,54.95 C132,54.326 132.932,52.63 134.072,51.182 C136.307,48.34 135.332,47.217 132.121,48.935 C129.536,50.319 121.311,50.312 120.454,48.926 C120.089,48.335 120.738,46.844 121.895,45.612 C123.053,44.379 124,42.872 124,42.262 C124,41.651 125.367,40.105 127.037,38.826 C128.707,37.547 131.577,35.265 133.413,33.755 C135.25,32.245 138.046,30.335 139.627,29.511 Z M147.75,187.08 C150.051,185.74 152.883,185.812 156.174,187.295 C160.152,189.088 184.031,211.359 196.118,224.551 C198.108,226.723 203.396,232.043 207.868,236.373 C212.341,240.703 216,244.642 216,245.125 C216,245.608 219.825,250.238 224.5,255.415 C229.912,261.407 233,265.651 233,267.098 C233,269.671 229.38,274 227.229,274 C224.353,274 216.542,265.952 215.503,261.918 C214.186,256.802 198.286,239.072 183,225.671 C179.975,223.019 172.1,215.574 165.5,209.127 C158.9,202.679 151.813,195.977 149.75,194.233 C145.647,190.762 145.056,188.649 147.75,187.08 Z M62.174,194.314 C64.928,191.384 65.048,191.397 68.5,195 C70.505,197.093 72.329,198 74.532,198 C78.484,198 80.506,200.183 82.97,207.107 C84.025,210.073 85.757,214.3 86.818,216.5 C87.879,218.7 89.249,223.414 89.863,226.975 C90.783,232.312 90.731,233.697 89.567,234.861 C87.27,237.159 85.268,235.491 82.042,228.589 C80.369,225.011 79,221.848 79,221.561 C79,221.274 77.446,218.609 75.546,215.639 C71.147,208.762 67.75,207.561 64.372,211.69 C63.107,213.235 62.056,215.253 62.036,216.173 C62.016,217.094 60.875,219.184 59.5,220.818 C58.125,222.452 57,224.208 57,224.72 C57,225.232 55.815,226.742 54.367,228.076 C52.919,229.409 50.955,231.757 50.002,233.292 C49.049,234.828 44.125,240.566 39.059,246.042 C32.222,253.435 29.218,256 27.4,256 C25.734,256 24.658,256.768 24.037,258.403 C22.752,261.781 21.457,262.306 17.569,261.023 C11.693,259.084 11.958,255.333 18.236,251.571 C32.827,242.829 43.498,230.173 54.553,208.5 C56.517,204.65 58.546,201.072 59.062,200.55 C59.578,200.028 60,198.932 60,198.114 C60,197.297 60.978,195.587 62.174,194.314 Z M75.358,87.099 C72.798,89.662 71.322,90.283 67.386,90.449 L62.555,90.652 L62.276,97.326 C61.934,105.487 62.394,105.61 72.085,99.95 C80.03,95.31 82.27,92.521 81.819,87.829 C81.396,83.438 79.256,83.196 75.358,87.099 Z M74,66.48 C71.098,68.162 66.396,68.45 65.5,67 C64.599,65.542 61.3,65.777 60.7,67.341 C60.417,68.078 60.587,69.316 61.077,70.091 C61.568,70.866 61.976,73.188 61.985,75.25 C62.004,79.944 64.057,80.221 67.949,76.054 C70.035,73.822 71.961,72.941 75.904,72.418 C81.001,71.742 81.1,71.665 80.803,68.614 C80.449,64.98 77.943,64.194 74,66.48 Z"/>
</svg>

