<svg xmlns="http://www.w3.org/2000/svg" width="300" height="300" viewBox="0 0 300 300" version="1.1">
  <defs/>
  <path d="M118.967,120.25 C124.447,115.325 126.601,114 129.132,114 C132.747,114 136,116.414 136,119.096 C136,120.078 136.45,121.16 137,121.5 C137.55,121.84 138,123.816 138,125.892 C138,127.968 138.338,130.004 138.75,130.416 C139.162,130.829 139.612,132.141 139.75,133.333 C140.875,143.101 142.177,157.855 142.985,170 C143.515,177.975 144.431,187.875 145.02,192 C146.434,201.911 147.104,236.937 145.921,239.147 C145.412,240.099 144.941,246.192 144.876,252.689 C144.738,266.236 143.955,268 138.074,268 C134.994,268 133.56,267.111 128.403,262.001 C123.309,256.954 121.713,254.456 118.338,246.251 C111.849,230.472 110.916,226.788 113.074,225.454 C114.5,224.573 119,228.872 119,231.115 C119,232.087 119.45,233.16 120,233.5 C120.55,233.84 121,234.809 121,235.654 C121,237.228 129.578,250.621 131.247,251.653 C131.757,251.968 132.553,251.837 133.016,251.363 C134.338,250.009 136.907,209.899 135.993,204.894 C135.551,202.478 134.868,196.113 134.476,190.75 C133.965,183.77 133.392,181 132.459,181 C130.862,181 124,188.852 124,190.68 C124,191.406 123.633,192 123.185,192 C122.737,192 121.566,193.688 120.583,195.75 C119.6,197.813 117.154,201.42 115.148,203.767 C104.179,216.596 101.647,218.967 97.145,220.627 C91.351,222.763 89.005,224.711 88.983,227.405 C88.974,228.557 87.631,231.75 86,234.5 C84.369,237.25 83.026,240.474 83.017,241.665 C83.008,242.856 82.094,244.881 80.986,246.165 C79.879,247.449 78.364,249.368 77.619,250.429 C76.611,251.864 75.017,252.376 71.383,252.429 C67.096,252.491 66.462,252.233 66.189,250.313 C65.984,248.872 66.716,247.577 68.336,246.516 C69.688,245.63 71.947,243.239 73.357,241.203 C77.217,235.626 83.522,216.795 85.484,204.98 C86.442,199.216 87.85,192.983 88.613,191.128 C89.589,188.755 90,183.209 90,172.406 C90,158.018 89.837,156.695 87.397,151.279 C85.416,146.88 84.759,143.708 84.647,138 C84.503,130.657 84.554,130.494 87.055,130.202 C90.908,129.754 95,133.435 95,137.35 C95,139.113 96.088,143.918 97.418,148.028 C98.748,152.137 99.986,156.625 100.168,158 C100.532,160.74 104.362,162.038 106.315,160.085 C107.938,158.462 116.236,158.776 118.777,160.557 C121.057,162.153 121.802,166.386 120,167.5 C119.45,167.84 118.988,168.879 118.973,169.809 C118.958,170.739 117.686,173.02 116.145,174.877 C113.74,177.777 113.053,178.099 111.29,177.155 C110.16,176.55 108.971,175.368 108.649,174.528 C108.002,172.841 102.491,172.397 101.528,173.954 C101.204,174.479 100.494,178.866 99.95,183.704 C99.407,188.542 98.224,194.8 97.321,197.612 C94.669,205.872 97.687,209.072 102.167,202.75 C103.434,200.963 106.727,196.998 109.485,193.939 C112.243,190.881 115.738,186.831 117.251,184.939 C118.764,183.048 121.689,179.389 123.751,176.809 C131.255,167.419 132.999,164.629 132.952,162.089 C132.833,155.609 130.221,138.821 129.169,137.769 C128.526,137.126 128,135.326 128,133.769 C128,129.654 125.626,129.367 120.821,132.9 C118.503,134.605 116.107,136 115.498,136 C114.888,136 112.233,138.25 109.598,141 C106.962,143.75 104.23,146 103.525,146 C101.279,146 99.78,143.35 100.882,141.328 C101.431,140.323 102.123,138.328 102.422,136.896 C102.72,135.464 105,132.539 107.489,130.396 C109.977,128.253 115.142,123.688 118.967,120.25 Z M82.25,77.662 C82.938,77.385 84.459,77.122 85.631,77.079 C89.595,76.932 96.464,88.481 97.627,97.246 C97.986,99.954 98.881,102.401 99.616,102.683 C101.149,103.271 122.884,97.951 134,94.267 C143.622,91.077 166.946,88.88 169.417,90.931 C171.353,92.538 171.494,97.345 169.65,98.876 C168.907,99.492 163.244,100.254 157.065,100.568 C148.75,100.992 143.97,101.794 138.666,103.655 C134.725,105.038 129.81,106.404 127.744,106.69 C125.678,106.977 123.739,107.614 123.435,108.106 C123.131,108.598 121.671,109.013 120.191,109.028 C118.711,109.043 113.675,110.425 109,112.098 C104.325,113.771 97.831,115.811 94.569,116.632 C91.306,117.452 87.791,118.577 86.756,119.131 C85.721,119.684 83.441,120.167 81.687,120.203 C79.934,120.24 77.274,120.889 75.776,121.647 C73.461,122.818 59.526,127.005 52.328,128.694 C50.664,129.084 49.794,128.502 48.605,126.203 C47.164,123.416 47.191,123.026 48.993,120.736 C51.411,117.662 53.555,116.854 68.5,113.39 C83.409,109.933 89.398,107.716 89.845,105.488 C90.036,104.543 89.504,102.359 88.665,100.635 C81.063,85.014 79.338,78.837 82.25,77.662 Z M106.874,30.459 C107.127,30.207 108.606,30 110.162,30 C112.518,30 113.313,30.709 114.93,34.25 C117.141,39.093 119.348,56.97 117.918,58.45 C116.58,59.834 116.794,64 118.202,64 C119.656,64 126,58.006 126,56.633 C126,54.47 129.465,52 132.5,52 C136.8,52 139.325,54.842 138.39,58.632 C137.526,62.138 135.257,65.775 133.673,66.191 C133.028,66.361 128.6,70.586 123.834,75.58 C117.454,82.265 114.876,85.748 114.058,88.785 C112.989,92.754 110.737,96 109.051,96 C108.608,96 107.692,95.334 107.017,94.52 C106.06,93.368 106.033,90.537 106.894,81.717 C108.134,69.024 108.248,49.211 107.146,38.209 C106.744,34.199 106.622,30.712 106.874,30.459 Z"/>
</svg>

