<svg xmlns="http://www.w3.org/2000/svg" width="300" height="300" viewBox="0 0 300 300" version="1.1">
  <defs/>
  <path d="M104.504,45.218 C105.602,44.581 107.365,44.047 108.421,44.03 C110.614,43.996 114,46.717 114,48.514 C114,50.01 106.18,59 104.879,59 C104.356,59 100.982,61.257 97.383,64.016 C93.784,66.775 89.412,69.765 87.669,70.662 C85.926,71.558 82.935,73.576 81.022,75.146 C79.109,76.716 77.042,78 76.427,78 C75.813,78 74.572,78.815 73.671,79.811 C72.35,81.271 72.225,82.291 73.029,85.061 C73.578,86.953 73.747,89.797 73.405,91.381 C73.063,92.966 73.362,98.478 74.07,103.631 C75.44,113.61 76.932,115.501 78.925,109.784 C79.542,108.015 81.887,104.799 84.137,102.638 L88.228,98.707 L88.065,87.752 C87.871,74.666 89.068,71.683 94.312,72.191 L97.5,72.5 L97.659,80 C97.746,84.125 98.319,94.25 98.932,102.5 C100.599,124.938 101.379,196.839 99.974,198.532 C99.197,199.468 98.969,205.353 99.24,217.456 C99.585,232.814 99.427,235.208 97.988,236.511 C95.716,238.567 93.649,238.374 91.405,235.897 C89.739,234.057 89.504,232.209 89.534,221.147 C89.553,214.191 90.128,199.76 90.812,189.078 C92.209,167.276 91.779,165.117 87.182,170.837 C82.042,177.233 68.457,190.364 62.5,194.696 C55.28,199.946 39.273,215.564 38.448,218.164 C37.686,220.565 32.44,223.275 30.034,222.511 C27.895,221.832 25.791,216.709 26.689,214.369 C27.657,211.844 43.931,196.48 51.011,191.406 C58.053,186.358 68,177.13 68,175.644 C68,175.136 67.241,174.165 66.313,173.487 C64.81,172.388 64.761,171.647 65.863,166.72 C67.369,159.99 67.481,122.094 66.01,117.007 C65.455,115.085 65,111.399 65,108.816 C65,106.232 64.55,103.84 64,103.5 C62.438,102.535 62.818,97.843 64.962,91.611 C66.678,86.623 66.734,85.835 65.409,85.327 C63.837,84.724 54.516,88.32 45.028,93.191 C37.899,96.85 33.306,96.936 31.975,93.435 C30.436,89.387 30.801,88.036 33.75,86.867 C35.263,86.267 40.101,84.026 44.502,81.888 C48.902,79.75 53.177,77.986 54.002,77.969 C56.974,77.907 65.159,73.266 81.401,62.435 C82.996,61.371 85.687,59.664 87.38,58.642 C91.176,56.351 94.445,53.81 99.004,49.606 C100.931,47.829 103.406,45.854 104.504,45.218 Z M154.083,46.4 C154.722,45.63 156.202,45.007 157.372,45.015 C161.932,45.048 162.114,45.761 161.651,61.843 C161.362,71.87 161.572,77.236 162.27,77.667 C162.85,78.026 164.524,76.977 165.99,75.338 C171.897,68.726 175.861,67.53 180.299,71.021 C182.46,72.72 182.788,73.633 182.366,76.771 C180.645,89.58 176.815,98.431 168.951,107.772 C167.238,109.807 165.763,108.038 166.333,104.632 C167.196,99.475 168.103,95.619 168.951,93.5 C169.391,92.4 170.257,90.241 170.875,88.703 C172.44,84.81 172.295,84 170.032,84 C167.662,84 160.825,92.727 158.673,98.5 C157.852,100.7 156.393,106.55 155.429,111.5 C154.465,116.45 153.354,120.95 152.959,121.5 C151.913,122.958 149,133.471 149,135.79 C149,136.88 148.328,139.06 147.506,140.636 C146.685,142.211 145.998,144.175 145.982,145 C145.947,146.665 143.775,153.198 138.998,166 C137.253,170.675 135.354,175.85 134.776,177.5 C134.199,179.15 133.338,180.928 132.864,181.45 C132.389,181.973 132,184.083 132,186.141 C132,188.199 131.603,190.127 131.117,190.427 C130.632,190.727 128.617,194.241 126.64,198.236 C122.093,207.421 119.615,211.679 117.252,214.371 C116.223,215.542 114.841,217.768 114.181,219.318 C113.291,221.409 112.402,222.054 110.74,221.818 C107.192,221.314 107.197,216.587 110.751,212.138 C116.147,205.381 121.509,192.263 130.632,163.5 C132.331,158.143 133.708,154.535 135.104,151.784 C135.583,150.84 136.399,148.365 136.918,146.284 C140.423,132.219 142.968,122.861 143.537,121.94 C143.902,121.35 142.58,119.247 140.6,117.267 C138.62,115.287 137,112.769 137,111.671 C137,108.798 131.411,100.211 126.255,95.165 C120.805,89.83 118.21,84.361 120.189,82.383 C121.693,80.879 127.586,81.454 130.032,83.343 C132.668,85.378 138,92.734 138,94.335 C138,95.186 138.45,96.16 139,96.5 C139.55,96.84 140,98.216 140,99.559 C140,101.333 140.546,102 142,102 C143.505,102 144,101.333 144,99.305 C144,97.754 145.122,95.439 146.642,93.852 C149.914,90.436 151.074,84.255 151.116,70 C151.151,58.117 152.364,48.471 154.083,46.4 Z M239.317,120.25 C239.767,119.013 240.707,118 241.407,118 C243.784,118 245,123.07 245,132.982 C245,138.42 245.394,143.912 245.875,145.185 C246.357,146.458 247.033,154.454 247.378,162.952 C247.722,171.451 248.454,178.854 249.002,179.402 C249.551,179.951 250,184.07 250,188.556 C250,196.281 249.821,196.946 246.623,201.135 C242.269,206.838 236.768,210.573 230.5,212.084 C227.75,212.746 225.05,213.593 224.5,213.964 C223.95,214.336 221.475,215.193 219,215.87 C216.525,216.546 212.415,217.752 209.866,218.55 C207.317,219.347 203.267,220.014 200.866,220.032 C198.465,220.049 195.669,220.693 194.653,221.463 C193.637,222.233 192.223,222.639 191.512,222.366 C190.8,222.093 187.886,222.294 185.035,222.812 C180.72,223.596 178.899,223.413 174.175,221.717 C167.384,219.28 161.4,214.711 159.537,210.54 C157.483,205.943 155.715,194.573 156.499,191.002 C157.647,185.779 157.852,161.851 156.794,156.689 C156.041,153.015 155.24,151.661 153.404,150.964 C151.557,150.261 151,149.308 151,146.853 C151,142.864 153.492,140 156.964,140 C160.385,140 162.407,141.651 164.311,146 C167.094,152.355 167.947,164.37 166.689,179.5 C166.157,185.9 167.657,203.491 168.939,205.886 C170.392,208.601 179.786,212.397 185,212.376 C189.338,212.358 192.424,211.838 207.453,208.592 C218.317,206.246 230.939,200.955 234.563,197.228 C237.422,194.288 237.824,193.117 238.513,185.728 C239.437,175.835 239.606,157.86 238.969,137.5 C238.711,129.25 238.868,121.487 239.317,120.25 Z M86.82,140.75 C86,141.713 84.262,144.3 82.957,146.5 C81.651,148.7 79.986,150.955 79.257,151.512 C77.994,152.476 75.111,162.541 75.036,166.25 C74.982,168.9 76.294,168.429 83.403,163.25 C90.405,158.15 90.767,157.595 91.076,151.5 C91.681,139.6 90.449,136.488 86.82,140.75 Z M86.664,113.75 C85.737,114.713 84.112,116.625 83.054,118 C81.359,120.203 80.88,120.347 79.024,119.216 C75.92,117.324 75.241,118.345 75.699,124.22 C76.558,135.245 77.399,136.194 80.855,130.045 C82.077,127.869 84.86,124.563 87.039,122.699 C90.854,119.433 91.727,117.059 90.393,113.582 C89.612,111.547 88.749,111.586 86.664,113.75 Z"/>
</svg>

