<svg xmlns="http://www.w3.org/2000/svg" width="300" height="300" viewBox="0 0 300 300" version="1.1">
  <defs/>
  <path d="M100.82,13.75 C104.547,9.373 107.33,12.942 107.426,22.227 C107.506,29.947 109.178,32.293 111.063,27.333 C113.383,21.231 117.495,19.328 121.171,22.655 C124.344,25.526 123.383,28.713 117.252,35.653 C112.061,41.529 111.395,42.807 110.383,48.83 C109.767,52.499 109.599,55.95 110.009,56.5 C110.42,57.05 110.961,60.103 111.213,63.285 C111.789,70.575 112.988,71.95 116.541,69.399 C117.994,68.354 120.605,66.704 122.342,65.73 L125.5,63.96 L128.25,66.996 C129.762,68.666 131,70.67 131,71.45 C131,72.925 125.216,77.425 118.75,80.979 L115,83.041 L115,90.552 C115,99.539 116.543,101.051 120.817,96.252 C124.466,92.154 135.16,84.249 139.518,82.428 C141.476,81.61 145.252,79.379 147.909,77.47 C153.423,73.509 156.147,73.147 159,76 C162.738,79.738 161.461,82.714 155.218,84.814 C153.413,85.421 149.992,87.512 147.615,89.459 C145.239,91.407 142.919,93 142.461,93 C141.174,93 137,97.208 137,98.506 C137,99.841 129.161,105.101 123.96,107.256 C121.755,108.17 120.268,108.771 119.284,109.836 C117.229,112.063 117.371,116.319 117.747,129.698 C118.022,139.489 118.657,148.287 119.159,149.25 C119.772,150.427 121.287,151.012 123.785,151.035 C125.828,151.055 128.625,151.714 130,152.5 C131.375,153.286 133.625,153.948 135,153.971 C136.375,153.994 138.85,154.719 140.5,155.584 C142.15,156.448 147.1,158.503 151.5,160.15 C155.9,161.798 160.4,163.55 161.5,164.045 C162.6,164.54 165.975,165.893 169,167.052 C172.025,168.21 176.525,170.187 179,171.445 C188.305,176.173 195.217,179.132 201.459,181.06 C206.133,182.504 208.473,183.856 209.993,185.99 C211.958,188.749 211.99,189.118 210.518,191.965 C209.655,193.634 208.398,195.001 207.724,195.003 C206.241,195.007 184.065,185.151 182.119,183.622 C181.36,183.026 176.635,181.122 171.619,179.391 C157.298,174.447 151.843,172.413 147,170.209 C144.525,169.083 141.375,167.841 140,167.449 C138.625,167.058 136.375,165.953 135,164.993 C133.625,164.034 130.925,162.942 129,162.566 C127.075,162.191 124.478,161.379 123.23,160.762 C121.71,160.011 120.628,159.972 119.956,160.644 C118.882,161.718 118.347,202.134 119.384,203.812 C119.709,204.338 119.557,207.183 119.047,210.134 C118.536,213.085 117.853,220.225 117.529,226 C117.204,231.775 116.276,243.447 115.467,251.938 C114.201,265.214 113.69,267.701 111.823,269.688 C108.904,272.795 106.681,272.599 103.621,268.962 C100.517,265.273 100.94,261.324 105.008,256 C107.489,252.755 107.701,251.7 107.922,241.5 C108.053,235.45 108.573,228.308 109.077,225.629 C109.882,221.353 110.372,176.522 109.736,165.363 C109.564,162.352 108.819,160.659 107,159.146 C102.468,155.376 100.561,156.256 94.849,164.75 C89.687,172.426 61.532,202.335 57.305,204.631 C56.098,205.287 52.996,207.439 50.411,209.412 C44.949,213.583 43.47,213.79 40.314,210.826 C37.506,208.187 37.175,203.215 39.75,202.348 C45.997,200.245 51.122,196.767 59.185,189.159 C69.78,179.161 68.838,180.193 78.017,168.5 C81.902,163.55 86.177,158.15 87.516,156.5 C97.341,144.392 100.548,139.981 102.153,136.368 C103.181,134.055 104.872,132.005 105.995,131.712 C107.765,131.249 108,130.353 108,124.062 C108,118.713 107.633,116.796 106.529,116.373 C105.716,116.061 102.022,117.789 98.279,120.232 C80.94,131.546 77.06,133.946 71.962,136.512 C65.495,139.766 65.062,140.002 58.164,144.012 C54.558,146.108 51.803,147.014 49.664,146.807 C46.718,146.521 46.479,146.21 46.194,142.279 C45.893,138.135 45.975,138.016 50.694,135.705 C53.337,134.41 59.571,131.073 64.547,128.289 C69.523,125.506 76.723,121.657 80.547,119.737 C84.371,117.816 91.662,114.095 96.75,111.468 L106,106.69 L106,98.345 C106,90.76 105.824,90 104.065,90 C100.707,90 97.184,91.804 90.432,96.978 C86.829,99.74 83.264,102 82.511,102 C81.758,102 79.802,100.015 78.165,97.589 C75.45,93.567 75.317,92.993 76.65,91.089 C77.455,89.94 78.496,89 78.964,89 C79.775,89 97.853,80.903 101,79.131 C103.181,77.902 103.393,75.384 101.957,67.772 C100.442,59.74 98.994,59.163 94.135,64.651 C91.747,67.349 90.61,68.01 89.781,67.181 C88.377,65.777 90.493,58.828 93.472,55.063 C98.057,49.269 99.323,45.376 98.607,39.277 C96.491,21.253 96.724,18.559 100.82,13.75 Z"/>
</svg>

