<svg xmlns="http://www.w3.org/2000/svg" width="300" height="300" viewBox="0 0 300 300" version="1.1">
  <defs/>
  <path d="M97.5,124 C99.576,122.35 102.128,121 103.17,121 C106.485,121 111.794,123.75 113.142,126.165 C115.001,129.498 117.968,139.084 117.985,141.816 C117.993,143.089 118.411,144.899 118.913,145.838 C119.415,146.776 119.948,152.259 120.096,158.022 C120.245,163.785 120.788,169.062 121.304,169.749 C121.82,170.435 122.396,177.185 122.583,184.749 C122.771,192.312 123.365,203 123.904,208.5 C124.444,214 125.174,226.825 125.528,237 C125.881,247.175 126.259,257.136 126.368,259.136 C126.476,261.135 126.284,265.86 125.941,269.636 C125.599,273.411 125.663,277.196 126.085,278.047 C127.118,280.127 124.288,285.765 121.195,287.792 C118.783,289.372 118.641,289.315 115.376,285.456 C113.536,283.28 112.023,281.092 112.015,280.594 C112.007,280.096 110.875,278.214 109.5,276.411 C108.125,274.608 107,272.801 107,272.395 C107,271.99 106.298,270.882 105.44,269.934 C101.853,265.97 96.374,247.733 92.842,228 C91.623,221.189 91.278,219.261 91.991,218.715 C92.273,218.5 92.72,218.5 93.343,218.5 C95.271,218.5 97.955,224.394 97.985,228.691 C97.993,229.896 98.391,231.124 98.869,231.419 C99.346,231.714 100.031,233.79 100.389,236.033 C100.748,238.275 102.55,243.348 104.395,247.305 C106.24,251.262 108.474,256.075 109.359,258 C110.245,259.925 111.873,262.625 112.977,264 C114.686,266.127 115.138,266.276 116.01,265 C116.977,263.584 116.709,246.812 115.521,234.5 C115.256,231.75 114.778,223.2 114.459,215.5 C113.716,197.554 113.245,192.845 112.079,191.679 C110.407,190.007 108.426,191.68 107.014,195.957 C106.257,198.25 104.369,201.194 102.819,202.499 C101.269,203.803 99.996,205.237 99.992,205.685 C99.979,206.993 91.953,214.753 86.271,218.952 C80.542,223.187 73.898,224.99 71.465,222.971 C69.622,221.442 69.631,220.58 71.529,216.581 C72.536,214.459 74.484,212.73 77.241,211.514 C79.842,210.366 85.722,205.326 92.79,198.185 C106.113,184.726 112.363,176.719 111.548,174.152 C111.238,173.173 110.532,167.676 109.981,161.936 C108.416,145.647 107.956,142.724 106.427,139.349 C105.642,137.616 105,135.478 105,134.599 C105,133.719 104.541,133 103.98,133 C102,133 94.936,138.088 90.769,142.516 C85.979,147.607 83.014,148.196 80.615,144.535 C79.727,143.18 79,141.845 79,141.57 C79,140.588 92.137,127 93.086,127 C93.437,127 95.424,125.65 97.5,124 Z M93.34,24.475 C96.075,22.559 96.609,22.609 99,25 C101.347,27.347 101.369,27.59 99.794,33.48 C98.12,39.741 99.379,40.788 105.325,38.08 C107.836,36.936 110.124,36 110.41,36 C110.696,36 113.059,34.65 115.661,33 C121.148,29.52 125.895,29.121 128.434,31.927 C131.409,35.214 128.748,38.764 120.973,41.882 C117.384,43.322 113.346,45.288 112.001,46.25 C110.656,47.212 108.737,48 107.738,48 C104.452,48 97.959,52.02 95.961,55.29 C93.776,58.866 89.942,66.559 87.53,72.208 C86.659,74.247 85.509,76.186 84.973,76.517 C84.438,76.847 84,77.814 84,78.665 C84,79.515 82.875,81.548 81.5,83.182 C80.125,84.816 79,86.992 79,88.018 C79,89.043 78.55,90.16 78,90.5 C77.45,90.84 77,91.913 77,92.885 C77,93.856 75.875,95.708 74.5,97 C73.125,98.292 72,99.752 72,100.246 C72,100.739 71.296,101.847 70.436,102.707 C69.341,103.802 69.187,104.587 69.924,105.324 C72.557,107.957 98,86.814 98,81.992 C98,79.811 102.498,76 105.072,76 C106.063,76 108.14,77.384 109.687,79.076 C115.024,84.914 116.782,86.51 120.884,89.24 C123.148,90.748 125,92.703 125,93.586 C125,96.382 121.012,101 118.598,101 C116.543,101 111.671,96.919 106.727,91.056 C105.303,89.367 104.566,89.162 102.977,90.012 C101.89,90.594 101,91.617 100.999,92.285 C100.999,92.953 99.139,95.3 96.866,97.5 C94.593,99.7 91.615,102.963 90.248,104.75 C88.881,106.537 87.254,108.018 86.631,108.041 C86.009,108.063 83.942,109.413 82.038,111.041 C80.134,112.668 78.151,114 77.632,114 C77.113,114 75.233,115.11 73.454,116.467 C70.181,118.964 63.597,121.787 58.974,122.676 C56.852,123.084 56.171,122.583 54.724,119.547 C52.462,114.804 52.495,114.538 55.993,109.355 C57.64,106.915 59.889,102.94 60.991,100.52 C62.093,98.101 63.445,95.843 63.995,95.503 C64.545,95.163 66.194,92.436 67.66,89.443 C69.125,86.449 70.702,84 71.162,84 C71.623,84 72,83.316 72,82.48 C72,81.644 73.125,79.178 74.5,77 C75.875,74.822 77,72.505 77,71.851 C77,71.197 78.365,68.244 80.033,65.288 C84.419,57.515 83.261,56.422 74.91,60.451 C68.704,63.445 55.827,66.424 52.598,65.614 C50.874,65.181 50.09,64.132 49.717,61.76 C49.432,59.942 49.713,57.998 50.352,57.365 C50.984,56.74 55.1,55.456 59.5,54.51 C63.9,53.564 68.175,52.201 69,51.481 C69.825,50.76 73.803,49.49 77.839,48.659 C87.199,46.732 88.696,45.367 89.332,38.172 C90.115,29.313 91.065,26.068 93.34,24.475 Z M62.651,130.833 C64.804,128.454 65.262,128.508 68.904,131.573 C70.745,133.122 72.4,135.809 73.063,138.323 C73.668,140.62 74.733,143.4 75.43,144.5 C76.72,146.535 78.151,154.071 78.278,159.5 C78.461,167.32 76.578,184.691 75.355,186.473 C74.61,187.557 74,189.942 74,191.771 C74,193.6 73.107,196.944 72.016,199.202 C70.926,201.46 69.75,204.813 69.405,206.654 C69.06,208.494 68.46,210 68.071,210 C67.683,210 66.607,212.407 65.679,215.348 C64.752,218.289 63.095,221.509 61.997,222.503 C60.899,223.497 60,224.883 60,225.583 C60,227.29 53.332,238.406 51.197,240.259 C49.049,242.123 44.295,243.287 43.577,242.125 C42.848,240.944 45.643,235.486 49.698,230.173 C51.514,227.794 53,225.19 53,224.388 C53,223.586 53.642,221.933 54.426,220.715 C55.21,219.497 57.056,215.125 58.528,211 C61.044,203.952 62.248,199.552 64.957,187.5 C65.575,184.75 66.545,180.7 67.111,178.5 C69.456,169.39 67.749,153.45 63.523,145 C62.835,143.625 61.984,140.287 61.632,137.583 C61.134,133.757 61.36,132.259 62.651,130.833 Z M93.5,163.167 C98.79,160.241 103.492,163.199 104.418,170.036 C104.936,173.864 104.623,175.069 102.216,178.495 C98.263,184.124 96,184.334 96,179.073 C96,175.743 95.655,175 94.107,175 C93.066,175 91.955,175.675 91.638,176.5 C90.771,178.76 88.314,178.301 87.63,175.75 C86.042,169.824 87.634,166.411 93.5,163.167 Z"/>
</svg>

