<svg xmlns="http://www.w3.org/2000/svg" width="300" height="300" viewBox="0 0 300 300" version="1.1">
  <defs/>
  <path d="M107.552,24.25 C108.054,22.622 109.283,22.674 113.676,24.509 L117.289,26.018 L116.713,32.878 C116.044,40.859 116.733,42 122.22,42 C128.145,42 138,49.286 138,53.666 C138,56.08 140.802,56.273 145.23,54.164 C152.573,50.665 156.257,50.455 159.598,53.343 L162.5,55.852 L160.602,59.408 C158.167,63.972 155.628,65.573 149.797,66.221 C142.197,67.066 136.071,73.879 136.015,81.55 C136.007,82.678 135.469,84.131 134.82,84.78 C134.113,85.487 133.713,88.571 133.821,92.479 C134.023,99.841 133.508,100.647 125.667,105.225 C121.74,107.518 121,108.431 121,110.975 C121,115.237 123.648,114.938 129.623,110 C136.326,104.461 141,104.877 141,111.013 C141,113.432 136.541,119 134.604,119 C134.172,119 131.222,120.821 128.048,123.047 L122.278,127.094 L121.616,134.224 C121.251,138.145 121.33,141.73 121.79,142.19 C122.695,143.095 155.355,137.802 163.432,135.441 C166.144,134.649 171.908,134 176.24,134 C180.572,134 187.155,133.529 190.868,132.952 C199.114,131.673 203,132.752 203,136.32 C203,140.939 200.528,141.828 184.526,142.965 C170.899,143.932 158.736,145.495 145.5,147.978 C142.75,148.493 138.25,149.226 135.5,149.605 C129.615,150.416 122.152,153.41 121.495,155.224 C121.24,155.926 120.804,163.25 120.526,171.5 C120.018,186.559 118.395,211.598 117.382,220 C116.082,230.785 115.856,264.239 117.064,267.155 C118.042,269.516 118.021,270.593 116.957,272.581 C115.912,274.532 115.858,276.387 116.703,281.281 C117.727,287.209 117.665,287.616 115.378,289.988 C112.357,293.121 110.111,292.013 108.105,286.402 C105.951,280.374 105.59,253.244 107.442,236.5 C108.293,228.8 109.178,213.5 109.408,202.5 C109.638,191.5 110.374,177.625 111.045,171.667 C112.13,162.018 112.088,160.659 110.661,159.233 C109.192,157.763 108.663,157.804 104.28,159.721 C96.851,162.969 88.841,166 87.682,166 C86.441,166 79.422,169.071 72.749,172.534 C70.137,173.891 66.898,175 65.552,175 C64.207,175 60.99,176.125 58.404,177.5 C55.818,178.875 52.855,180 51.819,180 C50.783,180 48.305,180.681 46.312,181.514 C43.004,182.896 42.524,182.879 40.8,181.319 C36.334,177.278 39.397,174.677 56.5,167.988 C60.9,166.267 65.4,164.45 66.5,163.949 C67.6,163.448 74.125,160.971 81,158.444 C87.875,155.917 97.325,152.353 102,150.524 L110.5,147.199 L110.796,140.6 C111.136,133.008 110.998,132.927 103.6,136.381 C93.995,140.864 91.492,141.798 85.642,143.081 C79.915,144.338 79.743,144.312 77.893,141.933 C74.351,137.379 75.617,135.92 85.346,133.343 C90.297,132.032 97.892,128.983 102.596,126.419 C110.943,121.869 111,121.811 111,117.888 C111,112.78 109.594,112.325 102.895,115.265 C99.928,116.567 95.351,118.227 92.724,118.954 C90.098,119.68 87.709,120.663 87.415,121.137 C87.122,121.612 86.318,122 85.63,122 C84.144,122 80,118.32 80,117.002 C80,114.912 86.177,110.589 97.25,104.929 L109,98.923 L109,93.43 C109,87.407 107.326,85.578 104.213,88.201 C102.43,89.702 92.343,94.257 88,95.521 C86.625,95.921 84.699,97.088 83.721,98.113 C81.025,100.94 76.124,103.174 74.058,102.518 C71.825,101.81 70.757,98.323 72.039,95.927 C73.753,92.724 80.923,87.342 88.395,83.649 C92.456,81.642 96.191,80 96.694,80 C97.197,80 99.74,78.648 102.345,76.996 L107.081,73.993 L106.79,65.757 C106.555,59.084 106.191,57.463 104.869,57.211 C103.971,57.039 99.795,58.989 95.587,61.544 C88.199,66.029 87.852,66.133 85.468,64.571 C83.798,63.477 83,62.031 83,60.099 C83,56.969 84.198,55.629 88,54.506 C89.375,54.1 91.879,52.736 93.564,51.475 C95.248,50.214 98.173,48.536 100.064,47.746 C105.266,45.572 106.034,44.002 106.625,34.347 C106.923,29.481 107.34,24.938 107.552,24.25 Z M119.223,52.557 C117.315,53.893 117,55.031 117,60.588 C117,68.369 118.398,69.459 123.443,65.611 C125.326,64.175 127.347,63 127.933,63 C128.52,63 129,61.448 129,59.551 C129,56.815 128.309,55.574 125.656,53.551 C123.437,51.859 122.567,51.133 121.732,51.172 C121.082,51.202 120.452,51.696 119.223,52.557 Z M122.883,77.502 C120.566,78.761 120.185,79.743 119.563,86.059 C119.176,89.983 119.155,93.487 119.515,93.847 C120.51,94.839 124.909,89.269 125.553,86.203 C125.865,84.716 126.544,82.719 127.06,81.764 C128.4,79.287 128.222,75.993 126.75,76.04 C126.063,76.062 124.322,76.72 122.883,77.502 Z M114,175 C114,176.65 114.45,178 115,178 C115.55,178 116,176.65 116,175 C116,173.35 115.55,172 115,172 C114.45,172 114,173.35 114,175 Z M114,191 C114,192.1 114.45,193 115,193 C115.55,193 116,192.1 116,191 C116,189.9 115.55,189 115,189 C114.45,189 114,189.9 114,191 Z M114.229,158.188 C114.847,160.042 117,160.349 117,158.583 C117,157.713 116.287,157 115.417,157 C114.546,157 114.011,157.534 114.229,158.188 Z M114,164 C114,164.55 114.45,165 115,165 C115.55,165 116,164.55 116,164 C116,163.45 115.55,163 115,163 C114.45,163 114,163.45 114,164 Z"/>
</svg>

