<svg xmlns="http://www.w3.org/2000/svg" width="300" height="300" viewBox="0 0 300 300" version="1.1">
  <defs/>
  <path d="M68.335,52.793 C70.076,51.301 72.646,50.063 74.047,50.041 C77.717,49.982 83.574,56.42 84.472,61.5 C84.861,63.7 85.53,65.95 85.959,66.5 C86.793,67.568 87.515,74.024 89.034,94 C91.268,123.369 92.101,145.526 92.227,179 C92.328,205.614 91.503,212 87.964,212 C85.528,212 78.31,205.603 77.441,202.672 C77.086,201.477 75.753,198.25 74.477,195.5 C71.071,188.157 68.338,181.069 67.051,176.235 C65.857,171.754 62.288,165 61.114,165 C60.735,165 58.237,167.221 55.564,169.935 C51.731,173.827 50.513,175.889 49.805,179.685 C46.489,197.481 45.491,200.326 40.834,205.263 C37.961,208.308 36.555,209.079 34.334,208.825 C30.655,208.403 30.025,204.986 33.099,202.123 C35.967,199.45 40.035,188.267 41.146,180 C41.626,176.425 42.458,170.575 42.994,167 C46.321,144.816 47.351,87.513 44.521,82.04 C43.684,80.423 43,77.592 43,75.75 C43,73.907 42.524,71.924 41.943,71.343 C41.361,70.761 41.024,67.859 41.193,64.893 C41.496,59.568 41.548,59.488 45.269,58.569 C49.944,57.414 50.786,58.167 51.992,64.584 C52.501,67.288 53.642,72.875 54.529,77 C55.415,81.125 56.32,87.2 56.539,90.5 C57.288,101.768 57.125,101.443 62.263,102 C65.042,102.302 67.888,103.39 69.435,104.743 C71.641,106.672 72,107.807 72,112.838 C72,117.475 71.573,119.077 69.941,120.553 C67.326,122.92 64.718,121.534 63.994,117.393 C63.64,115.372 62.823,114.405 61.284,114.186 C57.815,113.691 56.39,118.727 55.559,134.418 C55.154,142.052 54.572,148.951 54.266,149.75 C53.877,150.764 54.281,151.097 55.604,150.851 C56.706,150.647 58.547,148.39 60,145.459 C61.375,142.687 63.85,138.635 65.5,136.455 C69.059,131.754 69.904,130.377 74.066,122.5 C75.81,119.2 77.901,115.742 78.714,114.816 C79.897,113.467 80.056,111.378 79.515,104.316 C78.366,89.303 76.277,73.429 75.187,71.419 C74.614,70.364 73.902,68.713 73.604,67.75 C72.782,65.091 71.231,65.645 69.405,69.25 C67.1,73.801 64.986,76 62.918,76 C60.841,76 57.996,70.84 58.01,67.096 C58.02,64.316 63.103,57.274 68.335,52.793 Z M160.483,50.477 C164.482,47.56 166.054,46.961 168.451,47.44 C172.929,48.336 173.516,49.406 172.019,53.942 C170.993,57.05 169.977,58.183 167.47,59.01 C165.695,59.596 163.48,60.917 162.549,61.946 C161.617,62.975 159.538,64.363 157.928,65.03 C155.037,66.227 153.889,69.463 156.094,70.198 C156.696,70.399 157.326,72.574 157.495,75.031 C158.602,91.181 159.437,97.837 160.659,100.25 C161.425,101.763 162.287,103 162.575,103 C163.657,103 169.695,99.579 175.243,95.823 C181.416,91.644 187.717,88.66 192.666,87.573 C199.112,86.158 201.791,94.461 195.846,97.427 C194.112,98.292 192.065,99 191.298,99 C190.531,99 187.193,100.8 183.881,103 C180.569,105.2 177.553,107.002 177.179,107.004 C176.806,107.007 174.475,108.385 172,110.066 C169.525,111.748 166.482,113.537 165.238,114.042 C161.054,115.74 160.563,118.714 161.903,134.255 C162.919,146.036 162.992,172.963 162.099,207 C162.077,207.825 162.079,210.075 162.103,212 C162.127,213.925 161.608,219.55 160.951,224.5 C160.293,229.45 159.647,238.9 159.515,245.5 C159.383,252.1 158.938,259.342 158.527,261.594 C158.068,264.104 158.42,270.384 159.435,277.824 C161.417,292.339 160.961,294 154.99,294 C151.694,294 150.826,293.551 149.672,291.25 C147.161,286.241 147.524,269.91 151.413,213 C152.339,199.446 152.596,188.359 152.108,183 C151.683,178.325 151.697,173.198 152.139,171.608 C152.581,170.017 152.756,168.414 152.528,168.046 C152.301,167.678 152.064,162.23 152.003,155.938 C151.941,149.647 151.629,139.438 151.309,133.25 C150.777,122.941 150.564,122 148.768,122 C147.691,122 145.614,122.837 144.154,123.859 C137.903,128.238 117.771,133.912 112.86,132.68 C110.641,132.123 110.121,131.294 109.534,127.377 C108.583,121.035 110.42,119.027 115.494,120.862 C119.131,122.177 120.73,121.931 127.5,119.017 C129.7,118.07 133.975,116.29 137,115.06 C149.352,110.04 149.471,109.946 149.795,104.987 C149.957,102.505 149.591,97.105 148.981,92.987 C148.372,88.869 147.635,83.25 147.344,80.5 C147.053,77.75 146.452,75.117 146.007,74.649 C145.563,74.181 143.536,74.4 141.504,75.135 C137.891,76.441 137.745,76.398 134.848,73.156 C133.219,71.333 132.058,69.325 132.269,68.694 C132.479,68.062 137.792,64.523 144.076,60.829 C150.359,57.134 157.742,52.476 160.483,50.477 Z M78.667,126.667 C78.3,127.033 78,128.038 78,128.9 C78,130.379 76.703,133.265 68.175,150.758 C66.491,154.212 65.482,155.925 65.398,157.682 C65.284,160.072 66.884,162.544 70.832,169.594 C72.401,172.395 73.968,175.545 74.313,176.594 C74.659,177.642 75.517,179.398 76.221,180.496 C80.341,186.925 81.328,188.072 82.088,187.312 C83.574,185.826 83.082,149.895 81.454,141 C81.203,139.625 81.366,136.23 81.817,133.455 C82.268,130.68 82.456,127.867 82.235,127.205 C81.8,125.901 79.743,125.59 78.667,126.667 Z"/>
</svg>

