<svg xmlns="http://www.w3.org/2000/svg" width="300" height="300" viewBox="0 0 300 300" version="1.1">
  <defs/>
  <path d="M51.602,67.835 C52.538,66.321 54.616,66.962 57,69.5 C59.9,72.587 60.327,72.587 66.419,69.496 C72.42,66.452 79.962,66.093 82.095,68.75 C85.381,72.842 86.001,75.283 86.033,84.236 C86.051,89.331 86.505,96.65 87.043,100.5 C89.72,119.677 91.422,151.496 92.598,204.379 C93.101,226.999 93.081,227.285 90.879,229.629 C89.654,230.933 88.153,232 87.545,232 C86.936,232 83.658,228.841 80.261,224.98 C75.866,219.986 73.908,216.883 73.478,214.23 C73.145,212.178 72.451,209.466 71.936,208.203 C70.73,205.243 70.717,193.293 71.919,192.55 C73.222,191.745 76,194.783 76,197.012 C76,198.041 76.45,199.16 77,199.5 C77.55,199.84 78,201.351 78,202.859 C78,205.794 79.587,208 81.7,208 C82.74,208 82.978,202.049 82.891,178.25 C82.778,147.098 82.171,136.5 80.5,136.5 C79.472,136.5 72.28,149.534 72.1,151.723 C71.823,155.1 66.037,165.021 62.025,169 C55.805,175.167 54.858,177.406 52.508,191.5 C52.141,193.7 51.465,196.4 51.005,197.5 C50.546,198.6 49.388,201.975 48.433,205 C47.478,208.025 46.053,211.85 45.266,213.5 C41.67,221.043 40.889,222 38.334,222 C35.93,222 35.816,221.776 36.43,218.25 C36.788,216.188 37.688,213.15 38.429,211.5 C40.576,206.719 42,201.58 42,198.613 C42,197.104 42.497,194.941 43.104,193.806 C43.711,192.672 44.631,189.214 45.15,186.122 C45.668,183.03 46.48,178.25 46.953,175.5 C47.427,172.75 48.311,167.411 48.919,163.635 C49.527,159.859 50.349,156.259 50.746,155.635 C51.886,153.841 52.865,143.277 54.171,118.679 C55.145,100.328 55.132,94.55 54.104,89.179 C52.263,79.554 51.003,68.804 51.602,67.835 Z M155.174,94.314 C157.89,91.423 159.218,91.412 162.454,94.25 C164.829,96.334 165.027,97.165 165.139,105.5 C165.282,116.255 165.972,117.583 170.263,115.364 C178.511,111.099 189,118.433 189,128.464 C189,130.424 188.614,132.809 188.143,133.764 C187.671,134.719 186.546,136.919 185.643,138.654 C184.739,140.389 184,142.508 184,143.364 C184,145.509 192.453,153.391 198.927,157.281 C201.874,159.051 204.742,161.226 205.302,162.114 C206.833,164.545 205.415,167 202.481,167 C199.699,167 184.843,159.796 181.405,156.781 C180.253,155.77 178.625,155.207 177.787,155.528 C175.641,156.352 169.707,165.793 170.324,167.402 C170.605,168.135 175.71,171.331 181.668,174.504 C191.46,179.719 194.651,181.661 204.5,188.403 C206.15,189.532 211.1,192.893 215.5,195.871 C219.9,198.849 228.89,205.609 235.477,210.893 C242.064,216.177 249.462,221.945 251.918,223.711 C259.523,229.179 276.674,245.798 277.989,248.973 C279.044,251.519 278.984,252.375 277.606,254.478 C273.348,260.976 262.126,257.773 263.322,250.4 C263.815,247.368 263.231,246.553 254.675,238.31 C249.629,233.449 243.025,227.77 240,225.691 C233.99,221.561 228.167,217.255 213.868,206.368 C208.715,202.445 200.45,196.721 195.5,193.647 C184.595,186.875 165.645,177 163.556,177 C162.722,177 161.09,178.863 159.928,181.141 C158.766,183.418 157.401,185.781 156.894,186.391 C155.14,188.501 150.974,195.131 149.091,198.808 C143.589,209.554 134.724,217.983 130.591,216.397 C128.142,215.457 128.63,213.953 133.489,207.48 C135.959,204.191 137.984,201.085 137.989,200.579 C137.995,200.072 138.629,198.947 139.399,198.079 C140.168,197.21 141.669,194.925 142.734,193 C146.683,185.864 149.787,180.398 151.972,176.733 C155.19,171.335 154.773,171.006 140.007,167.305 C136.256,166.365 135.007,163.901 137.04,161.452 C138.717,159.431 145.596,159.619 152.877,161.885 C157.467,163.313 159.271,163.495 160.33,162.635 C162.382,160.968 170,150.483 170,149.326 C170,148.78 168.15,146.345 165.889,143.916 L161.777,139.5 L159.139,142.9 C152.042,152.043 150.5,153.338 148.184,152.098 C145.473,150.648 145.426,149 148,145.727 C149.1,144.329 150,142.298 150,141.215 C150,140.131 150.675,138.685 151.5,138 C152.325,137.315 153.003,135.573 153.006,134.128 C153.01,132.682 153.677,130.227 154.488,128.67 C155.3,127.114 155.931,124.864 155.891,123.67 C155.85,122.477 156.15,118.439 156.558,114.698 C157.219,108.634 157.066,107.58 155.149,104.988 C152.403,101.273 152.412,97.255 155.174,94.314 Z M122.75,111.088 C126.319,109.026 132.023,112.627 131.965,116.905 C131.945,118.332 131.286,120.625 130.5,122 C129.714,123.375 129.055,126.386 129.035,128.691 C129.016,130.996 128.602,133.128 128.115,133.429 C127.629,133.729 127.005,135.219 126.73,136.738 C126.273,139.255 124.99,143.212 122.917,148.5 C122.485,149.6 121.598,152.3 120.946,154.5 C120.294,156.7 119.139,159.978 118.38,161.784 C117.621,163.59 116.986,165.84 116.968,166.784 C116.951,167.728 116.276,169.374 115.468,170.441 C113.311,173.293 113.567,173.786 118.37,176.044 C123.239,178.333 124.854,181.217 127.026,191.5 C129.141,201.512 129.36,207.497 127.674,209.183 C126.853,210.004 126.028,211.715 125.841,212.986 C125.37,216.174 122.64,217.776 120.584,216.07 C119.317,215.018 119,212.588 119,203.937 C119,197.986 118.608,192.876 118.129,192.58 C117.65,192.284 116.98,190.652 116.641,188.953 C116.107,186.287 115.646,185.908 113.261,186.182 C111.191,186.421 109.586,187.868 106.846,191.968 C104.836,194.975 102.684,197.605 102.062,197.813 C99.136,198.788 96.351,192.137 99,190.5 C99.55,190.16 100,188.81 100,187.5 C100,186.19 100.45,184.84 101,184.5 C101.55,184.16 102.014,182.896 102.032,181.691 C102.049,180.486 102.724,178.626 103.532,177.559 C104.339,176.491 105,174.605 105,173.368 C105,172.13 105.45,170.84 106,170.5 C106.55,170.16 107,169.006 107,167.936 C107,166.866 108.125,163.658 109.5,160.808 C110.875,157.958 112,154.836 112,153.872 C112,152.907 112.45,151.84 113,151.5 C113.55,151.16 114,149.884 114,148.663 C114,147.443 114.611,145.557 115.358,144.473 C116.105,143.388 116.986,140.475 117.317,138 C117.647,135.525 118.595,130.575 119.424,127 C120.252,123.425 120.946,118.61 120.965,116.3 C120.989,113.378 121.533,111.792 122.75,111.088 Z M171,63.952 C175.056,62.686 176.588,62.888 178.435,64.928 C180.755,67.492 179.64,70.812 176.183,71.633 C174.708,71.984 170.125,74.092 166,76.318 C161.875,78.544 152.238,83.491 144.585,87.311 C133.005,93.091 129.61,94.342 124.351,94.764 C117.326,95.328 115,94.252 115,90.437 C115,87.484 116.215,86.772 122.773,85.882 C127.312,85.266 131.285,83.657 139.928,78.936 C145.416,75.938 168.936,64.596 171,63.952 Z M68.226,80.13 L64.952,82.227 L65.226,98.348 L65.5,114.468 L69.272,115.08 C71.346,115.417 74.075,116.661 75.336,117.846 C78.764,121.067 80.303,120.657 79.446,116.753 C79.053,114.967 78.644,108.555 78.536,102.503 C78.371,93.261 77.526,86.984 75.405,79.25 C74.897,77.396 71.927,77.76 68.226,80.13 Z M134.667,42.667 C136.271,41.063 140.381,42.196 142.956,44.952 C144.985,47.125 145.865,49.305 146.286,53.202 C147.535,64.748 144.079,72.99 138.569,71.607 C136.487,71.084 136.138,70.6 136.85,69.225 C137.342,68.276 138.052,65.376 138.429,62.78 C139.019,58.713 138.76,57.541 136.557,54.298 C134.127,50.723 133.076,44.257 134.667,42.667 Z M65.75,131.213 C62.013,133.158 62,133.187 62,139.535 C62,143.039 61.477,147.054 60.838,148.457 C60.198,149.86 59.929,151.263 60.24,151.574 C61.21,152.543 64.726,149.778 66.145,146.93 C66.89,145.434 68.98,141.382 70.788,137.926 C75.462,128.993 73.931,126.954 65.75,131.213 Z M169.75,129.541 C164.329,134.58 164.592,135.37 172.062,136.488 L176.624,137.171 L177.961,133.118 C179.045,129.833 179.058,128.774 178.027,127.532 C176.078,125.184 173.855,125.724 169.75,129.541 Z"/>
</svg>

