<svg xmlns="http://www.w3.org/2000/svg" width="300" height="300" viewBox="0 0 300 300" version="1.1">
  <defs/>
  <path d="M72.759,95.423 C75.858,94.317 76.869,93.945 77.617,94.239 C77.999,94.389 78.312,94.712 78.8,95.2 C81.036,97.436 80.015,99.801 75,104 C71.775,106.7 70,108.97 70,110.393 C70,111.607 69.528,113.072 68.952,113.648 C68.222,114.378 68.277,115.514 69.135,117.397 C70.092,119.498 70.103,120.826 69.183,123.37 C68.532,125.17 68,128.102 68,129.887 C68,131.671 67.514,134.04 66.919,135.151 C65.421,137.951 66.228,138.347 70.142,136.731 C74.345,134.995 83.271,135.15 85.497,136.997 C87.262,138.462 87.188,140.62 85.095,148.714 C84.095,152.583 82.341,156.279 78.853,161.863 C77.782,163.579 77.763,164.391 78.759,165.986 C80.893,169.403 80.146,171.64 75.633,175.337 C72.996,177.498 71.057,180.021 70.738,181.708 C70.446,183.243 70.724,189.675 71.354,196 C72.394,206.438 72.692,207.527 74.575,207.797 C77.191,208.171 102.867,204.467 103.745,203.589 C104.103,203.23 103.072,200.49 101.454,197.499 C98.713,192.432 98.625,191.946 100.171,190.4 C101.34,189.231 102.642,188.944 104.574,189.429 C107.826,190.246 114,196.121 114,198.4 C114,201.417 117.549,200.137 118.804,196.666 C120.269,192.613 127.574,187.106 132.556,186.297 C136.731,185.62 140.658,187.393 141.663,190.41 C143.498,195.915 142.328,209.632 139.547,215.206 C138.696,216.912 138,219.865 138,221.769 L138,225.23 L143.335,224.564 C150.168,223.71 152.096,225.354 149.34,229.683 C147.013,233.338 146.485,233.667 141.735,234.426 C139.536,234.778 136.129,236.396 134.145,238.032 C132.165,239.664 129.799,241 128.887,241 C127.976,241 126.493,242.125 125.592,243.5 C124.691,244.875 123.143,246 122.151,246 C119.815,246 115.734,241.639 115.368,238.751 C115.211,237.513 114.917,235.15 114.715,233.5 C114.513,231.85 113.618,228.025 112.727,225 C111.836,221.975 110.833,217.789 110.498,215.697 C109.709,210.767 107.347,209.827 104.553,213.332 C102.819,215.506 101.599,216 97.962,216 C95.508,216 89.973,216.675 85.662,217.5 C81.351,218.325 75.929,219 73.612,219 C71.295,219 68.972,219.419 68.45,219.931 C67.927,220.443 63.127,221.179 57.782,221.566 C41.232,222.764 39.201,220.59 39.965,202.5 C40.414,191.858 40.317,157.356 39.768,132.292 C39.5,120.096 39.497,120.083 37,119.792 C35.041,119.563 34.302,118.7 33.586,115.8 C32.405,111.019 33.731,109.403 39.354,108.769 C43.688,108.281 62.381,101.107 66.709,98.271 C67.979,97.439 70.702,96.157 72.759,95.423 Z M154.667,172.667 C157.484,169.849 168,176.933 168,181.648 C168,184.277 170.561,185.863 172.459,184.409 C180.928,177.924 194.203,172.978 199.029,174.509 C203.032,175.78 206.96,184.421 206.985,192.014 C207.001,196.915 204.008,206.229 201.54,208.956 C200.693,209.892 200,211.191 200,211.842 C200,213.227 198.168,216.659 195.912,219.5 C194.079,221.808 191.534,227.868 192.143,228.476 C192.369,228.702 194.552,228.439 196.994,227.89 C199.437,227.341 202.523,227.165 203.853,227.499 C205.184,227.833 209.583,227.326 213.629,226.372 L220.985,224.638 L223.493,226.993 C228.382,231.586 225.189,236 216.977,236 C214.46,236 211.973,236.412 211.45,236.916 C210.928,237.419 207.8,238.065 204.5,238.35 C192.522,239.385 187.467,240.689 181,244.411 C177.425,246.469 173.505,249.08 172.289,250.214 C170.318,252.051 169.744,252.137 166.999,251 C164.059,249.782 161,246.554 161,244.669 C161,244.182 163.118,241.839 165.707,239.462 C169.959,235.557 170.303,234.917 169.275,232.82 C168.649,231.544 167.934,226.225 167.685,221 C167.368,214.328 166.454,209.215 164.617,203.824 C163.177,199.602 162,195.425 162,194.542 C162,193.66 161.325,192.678 160.5,192.362 C159.675,192.045 159,191.003 159,190.047 C159,188.456 157.295,184.142 154.936,179.764 C153.851,177.751 153.695,173.638 154.667,172.667 Z M117.993,52.508 C118.619,51.754 118.973,51.306 119.422,51.169 C120.077,50.97 120.934,51.431 123.128,52.566 C124.874,53.469 126.828,55.694 127.738,57.816 C129.736,62.47 130.805,83.595 129.129,85.271 C127.639,86.761 127.632,97 129.12,97 C132.401,97 158,76.452 158,73.818 C158,72.367 162.286,72.948 164.171,74.655 C168.358,78.444 164.077,91 158.599,91 C157.318,91 155.197,91.831 153.885,92.848 C152.573,93.864 150.247,95.001 148.716,95.375 C147.18,95.75 145.442,97.13 144.84,98.452 C144.191,99.875 141.259,102.076 137.624,103.868 C128.908,108.164 122.556,112.933 118.986,117.861 C115.834,122.212 112.831,123.076 112.203,119.813 C111.844,117.951 115.442,109.463 116.997,108.502 C117.549,108.161 118,106.079 118,103.875 C118,101.672 118.444,99.04 118.986,98.027 C119.528,97.014 120.023,89.471 120.086,81.265 C120.173,69.888 119.789,64.88 118.471,60.181 C117.075,55.206 116.983,53.726 117.993,52.508 Z M149.142,114.829 C154.746,111.393 159.549,111.293 163.5,114.529 C166.38,116.888 166.495,117.289 166.374,124.578 C166.304,128.753 165.787,133.144 165.224,134.335 C162.627,139.834 161.818,143.219 162.381,146.233 C163.747,153.551 155.215,160.194 144,160.546 C136.526,160.781 135,159.339 135,152.045 C135,148.94 134.606,145.973 134.124,145.45 C129.077,139.98 126.136,127.653 129.564,126.337 C133.778,124.72 137.929,130.312 143.971,145.75 C145.669,150.089 147.297,149.846 150.679,144.75 C154.235,139.392 155.469,136.625 156.772,131.085 C158.526,123.627 156.985,122.476 150.072,126.08 C146.555,127.913 146.148,128.488 146.637,130.936 C147.285,134.176 145.033,135.623 141.928,133.961 C137.077,131.365 141.56,119.477 149.142,114.829 Z M184.946,188.87 C182.501,190.449 178.982,193.34 177.127,195.294 L173.754,198.849 L175.53,207.674 C176.507,212.529 177.504,218.863 177.746,221.75 C178.01,224.91 178.661,227 179.38,227 C180.71,227 186.838,218.293 189.058,213.25 C189.845,211.463 190.828,210 191.244,210 C191.66,210 192,208.93 192,207.622 C192,206.315 192.675,204.685 193.5,204 C194.325,203.315 195,201.937 195,200.937 C195,199.936 195.45,198.84 196,198.5 C197.408,197.63 197.249,188.649 195.8,187.2 C193.801,185.201 189.636,185.842 184.946,188.87 Z M67.23,148.591 C64.332,149.349 60.642,150.651 59.03,151.485 C57.418,152.318 54.952,153 53.55,153 C51.011,153 51,153.039 50.994,161.75 C50.991,166.563 50.509,172.23 49.922,174.344 C48.716,178.686 49.038,179.44 51.733,178.585 C58.585,176.41 76.576,151.03 73.385,148.041 C72.898,147.585 70.129,147.832 67.23,148.591 Z M50.141,115.61 C45.43,117.761 44.868,118.326 45.499,120.278 C46.32,122.82 47.732,131.832 48.628,140.25 C49.36,147.119 50.141,147.333 56.867,142.5 C59.547,140.575 62.248,139 62.869,139 C64.475,139 64.283,138.175 62,135.273 C60.307,133.121 60,131.216 60,122.865 C60,113.277 59.937,113.002 57.75,113.082 C56.513,113.127 53.088,114.265 50.141,115.61 Z M49,197.152 C49,207.933 49.17,209.021 51.014,210.008 C53.177,211.165 59.663,210.404 61.75,208.747 C63.118,207.662 63.365,200.788 62.377,191.334 L61.754,185.375 L49,185.375 Z M125.373,201.25 C123.407,203.037 120.91,205.322 119.822,206.327 C118.547,207.506 118.099,208.749 118.56,209.827 C118.952,210.747 119.947,214.425 120.769,218 C122.712,226.448 125.008,229.452 126.308,225.25 C126.606,224.287 127.958,220.35 129.312,216.5 C133.347,205.03 133.748,198 130.366,198 C129.585,198 127.338,199.463 125.373,201.25 Z"/>
</svg>

