<svg xmlns="http://www.w3.org/2000/svg" width="300" height="300" viewBox="0 0 300 300" version="1.1">
  <defs/>
  <path d="M59.836,45.75 C64.65,41.759 68.929,42.016 72.896,46.535 C75.902,49.958 76.002,50.375 76.049,59.785 C76.077,65.128 76.326,74.675 76.605,81 C76.883,87.325 77.222,96.1 77.358,100.5 C78.532,138.337 79.273,153.94 80.015,156.5 C80.493,158.15 81.183,166.475 81.548,175 C81.913,183.525 82.488,190.95 82.826,191.5 C83.163,192.05 83.503,196.979 83.58,202.453 C83.733,213.38 84.584,214.846 88.251,210.505 C89.488,209.041 91.752,206.416 93.282,204.672 C94.812,202.927 97.247,199.7 98.693,197.5 C100.139,195.3 102.568,191.671 104.09,189.436 C105.612,187.201 108.054,182.755 109.518,179.555 L112.179,173.738 L109.839,171.285 C101.029,162.047 96.041,157.611 93,156.304 C87.921,154.122 86,152.069 86,148.82 C86,144.838 90.24,143.099 94.331,145.404 C99.296,148.202 100.911,147.472 109.584,138.5 C118.981,128.78 121.605,127.891 126.333,132.826 C128.732,135.33 128.996,136.268 128.657,141.076 C128.252,146.812 125.795,154.856 123.274,158.705 C122.024,160.612 121.975,161.525 122.989,163.974 C124.16,166.799 123.983,171.257 122.464,177.25 C121.807,179.842 121.961,180.001 125.133,180.015 C130.209,180.036 136.756,182.666 141.584,186.622 C143.962,188.571 146.636,190.015 147.527,189.832 C149.204,189.488 152.908,180.281 152.967,176.309 C152.985,175.104 153.45,173.84 154,173.5 C154.55,173.16 155,171.81 155,170.5 C155,169.19 155.45,167.84 156,167.5 C157.722,166.436 157.092,161.393 155,159.5 C153.9,158.505 153,156.915 153,155.967 C153,155.02 152.325,153.685 151.5,153 C150.675,152.315 150,150.752 150,149.527 C150,144.927 147.681,140.37 143.286,136.336 C138.059,131.537 137.31,127.787 140.986,124.81 C144.028,122.347 146.215,122.536 149,125.5 C150.292,126.875 152.06,128 152.93,128 C154.425,128 155.055,126.915 157.954,119.349 C160.1,113.747 163.041,111.846 169.023,112.193 C176.019,112.6 178.596,115.692 178.298,123.323 C177.987,131.305 177.339,144.312 177.16,146.162 C177.072,147.076 174.188,149.733 170.75,152.067 C163.108,157.254 162.682,157.866 164.639,160.853 C165.78,162.594 166.016,164.458 165.528,167.862 C164.722,173.476 160.13,187.802 158.89,188.568 C158.4,188.871 158,190.84 158,192.944 C158,195.94 158.552,197.132 160.547,198.439 C164.099,200.766 170,210.325 170,213.752 C170,220.288 165.325,220.672 160.893,214.5 C159.115,212.025 157.322,210 156.907,210 C156.493,210 154.742,208.812 153.016,207.36 C149.667,204.542 149.576,204.577 145.89,210.048 C142.582,214.958 128.408,227.86 125.526,228.583 C121.281,229.648 119.5,228.733 119.5,225.486 C119.5,223.026 119.951,222.447 122.061,222.202 C126.338,221.704 142.038,204.217 141.979,200.018 C141.954,198.256 136.068,193.959 131,192.002 C129.075,191.259 126.306,189.829 124.846,188.825 C119.372,185.061 116.179,186.404 110.476,194.868 C100.652,209.449 90.697,221 87.955,221 C87.422,221 86.009,222.125 84.813,223.5 C82.348,226.335 79.197,226.671 75.072,224.537 C72.244,223.075 71,221.175 71,218.319 C71,217.485 69.762,215.531 68.25,213.978 C62.036,207.595 60.306,204.553 59.655,198.868 C59.138,194.355 59.331,192.97 60.623,191.898 C62.016,190.742 62.571,190.966 64.676,193.529 C66.017,195.163 67.88,198.075 68.815,200 C69.75,201.925 71.187,203.5 72.008,203.5 C73.094,203.5 73.432,202.549 73.248,200 C73.11,198.075 72.985,193.8 72.971,190.5 C72.947,184.74 71.494,164.059 70.23,151.5 C69.615,145.391 69.589,135.516 70.175,131 C70.443,128.94 70.079,128.5 68.111,128.5 C66.123,128.5 65.452,129.344 64.111,133.526 C63.225,136.29 61.51,139.928 60.3,141.61 C59.09,143.292 57.206,148.006 56.115,152.084 C54.537,157.979 53.422,160.115 50.68,162.5 C47.455,165.305 46.78,166.809 45.302,174.5 C44.985,176.15 44.112,178.388 43.363,179.473 C42.613,180.557 42,183.327 42,185.627 C42,187.927 40.832,193.114 39.405,197.154 C37.977,201.194 36.464,206.3 36.042,208.5 C34.825,214.838 33.115,218.253 29.688,221.189 C26.128,224.237 23.806,224.676 22.101,222.622 C20.978,221.269 21.512,218.994 23.888,215 C24.782,213.496 26.926,208.678 28.781,204 C30.365,200.006 34.714,183.048 35.833,176.5 C36.397,173.2 37.532,166.675 38.354,162 C39.177,157.325 40.378,150.35 41.024,146.5 C41.827,141.707 42.057,129.094 41.751,106.5 C41.315,74.236 41.244,73.277 38.545,63.5 C37.027,58 35.573,52.365 35.313,50.977 C34.685,47.63 37.849,44.739 41.662,45.175 C43.902,45.432 44.905,46.395 46.421,49.75 C48.686,54.761 50.82,55.174 54.171,51.25 C55.462,49.737 58.012,47.263 59.836,45.75 Z M134,7.476 C134,4.291 141.476,6.756 143.183,10.503 C144.154,12.634 144.021,13.488 142.362,15.773 C141.272,17.273 139.344,21.2 138.077,24.5 C136.809,27.8 135.182,31.85 134.46,33.5 C133.738,35.15 132.134,39.65 130.895,43.5 C129.657,47.35 128.049,51.388 127.322,52.473 C125.057,55.852 125.745,56.312 132.083,55.649 C141.538,54.661 150.577,57.397 169.5,66.977 C175,69.761 182.425,73.014 186,74.205 C189.575,75.396 193.512,77.013 194.75,77.8 C197.698,79.674 197.698,83.996 194.748,86.767 C192.725,88.667 191.785,88.812 185.51,88.191 C179.262,87.573 178.39,87.22 177.259,84.857 C176.563,83.404 174.308,81.457 172.247,80.53 C170.186,79.604 166.25,77.552 163.5,75.97 C156.333,71.847 149.191,68.484 143.496,66.55 C140.775,65.626 138.088,64.505 137.525,64.059 C136.961,63.612 133.987,62.943 130.915,62.572 C126.455,62.033 125.065,62.216 124.015,63.482 C122.728,65.032 118.492,76.053 117.283,80.994 C116.948,82.366 115.849,84.841 114.84,86.494 C113.832,88.147 113.006,90.356 113.004,91.402 C113.002,92.448 111.037,96.723 108.638,100.902 C106.24,105.081 103.357,110.599 102.233,113.164 C100.082,118.071 97.692,120 93.766,120 C87.966,120 87.348,114.282 92.626,109.448 C96.005,106.354 98.001,103.636 99.568,100 C99.923,99.175 100.809,97.149 101.536,95.498 C105.41,86.704 106.74,83.194 107.314,80.256 C107.662,78.472 108.884,75.097 110.028,72.756 C112.976,66.727 117.832,53.291 124.427,32.917 C127.557,23.246 130.992,13.898 132.059,12.143 C133.127,10.388 134,8.288 134,7.476 Z M171.228,183.08 C173.855,182.072 178.406,182.706 182,184.582 C183.375,185.299 188.891,187.762 194.258,190.056 C199.625,192.349 205.025,194.991 206.258,195.927 C207.491,196.863 210.075,198.343 212,199.217 C213.925,200.091 217.75,201.823 220.5,203.068 C223.25,204.312 226.176,205.899 227.002,206.596 C227.828,207.292 229.628,208.462 231.002,209.196 C233.506,210.534 245.797,217.992 250.822,221.222 C252.295,222.169 255.158,223.85 257.184,224.958 C261.804,227.485 264,230.566 264,234.523 C264,237.96 262.465,240 259.88,240 C258.934,240 255.311,237.616 251.83,234.701 C248.348,231.787 244.375,228.916 243,228.321 C241.625,227.726 237.63,224.935 234.123,222.119 C230.615,219.304 227.393,217 226.962,217 C225.356,217 211.375,210.014 208.056,207.553 C206.161,206.149 204.121,205 203.522,205 C202.923,205 199.988,203.425 197,201.5 C194.012,199.575 190.566,198 189.343,198 C188.119,198 186.88,197.615 186.59,197.145 C186.299,196.675 182.715,195.07 178.625,193.578 C168.11,189.743 165.078,185.44 171.228,183.08 Z M58.429,59.756 C56.74,61.265 54.153,63.4 52.68,64.5 C50.04,66.472 50.016,66.594 50.993,73.221 C51.538,76.918 52.055,83.78 52.143,88.471 L52.302,97 L56.376,97 C59.812,97 60.963,97.578 63.733,100.691 C68.334,105.862 69.162,104.403 67.825,93.487 C67.219,88.544 66.448,78.425 66.112,71 C65.545,58.482 65.354,57.482 63.5,57.256 C62.4,57.122 60.118,58.247 58.429,59.756 Z M136.644,89.546 C139.198,87.596 141.761,86 142.339,86 C144.075,86 149,91.246 149,93.094 C149,95.142 140.565,102.936 133.36,107.545 C130.533,109.354 127.937,111.293 127.591,111.853 C127.244,112.414 123.826,113.862 119.995,115.071 C111.74,117.676 110,116.955 110,110.928 C110,107.767 110.565,106.687 113.25,104.715 C115.037,103.403 118.638,101.543 121.25,100.582 C123.862,99.621 126,98.476 126,98.039 C126,97.601 127.35,96.683 129,96 C130.65,95.317 132,94.383 132,93.924 C132,93.466 134.09,91.496 136.644,89.546 Z M52.534,112.25 C52.312,112.938 51.964,119.013 51.761,125.75 C51.417,137.149 51.52,138 53.246,138 C54.368,138 55.692,136.714 56.593,134.75 C57.412,132.963 59.385,129.25 60.976,126.5 C65.439,118.784 65.483,118.661 63.954,118.151 C63.181,117.894 61.217,116.179 59.59,114.341 C56.592,110.954 53.27,109.97 52.534,112.25 Z M162.635,126.073 C161.186,127.212 160,128.986 160,130.014 C160,131.041 159.55,132.16 159,132.5 C158.45,132.84 158,136.193 158,139.952 C158,148.433 159.661,149.69 164.577,144.925 C167.711,141.888 168.755,138.978 169.575,131 C170.304,123.896 167.728,122.067 162.635,126.073 Z M112.686,150.527 C109.657,154.324 109.288,159.273 112,159.743 C113.624,160.024 119.365,149.4 118.418,147.867 C117.367,146.166 115.459,147.052 112.686,150.527 Z"/>
</svg>

