<svg xmlns="http://www.w3.org/2000/svg" width="300" height="300" viewBox="0 0 300 300" version="1.1">
  <defs/>
  <path d="M124.5,37.67 C126.15,36.796 128.703,36.062 130.173,36.04 C133.228,35.994 138.441,39.986 140.398,43.869 C143.113,49.258 144.761,80.756 143.609,105.25 C143.343,110.891 143.577,113 144.467,113 C146.084,113 148.704,109.981 149.147,107.607 C149.691,104.688 152.428,103.413 155.688,104.559 C158.778,105.646 159.709,108.151 158.223,111.381 C155.847,116.549 155.088,119.065 155.545,120.256 C155.815,120.959 158.985,122.38 162.59,123.412 C166.195,124.445 170.783,126.124 172.784,127.145 C174.785,128.165 177.227,129 178.209,129 C179.848,129 189.503,133.016 196.331,136.539 C197.888,137.343 199.653,138 200.252,138 C200.852,138 202.053,138.616 202.921,139.369 C203.79,140.122 208.55,141.948 213.5,143.426 C218.45,144.904 225.425,147.396 229,148.963 C232.575,150.529 236.484,152.1 237.687,152.453 C241.031,153.434 250,162.315 250,164.646 C250,165.77 249.208,167.407 248.24,168.283 C246.686,169.689 245.479,169.732 237.99,168.649 L229.5,167.421 L229.795,163.696 C230.022,160.831 229.676,159.839 228.295,159.395 C225.601,158.53 221.82,156.922 218.846,155.378 C217.386,154.62 215.586,153.985 214.846,153.966 C214.106,153.947 211.7,153.063 209.5,152 C207.3,150.937 204.923,150.053 204.217,150.034 C203.511,150.015 200.737,148.887 198.051,147.526 C195.366,146.165 189.194,143.944 184.335,142.591 C174.331,139.804 160.838,135.182 153.667,132.086 C147.25,129.316 146.345,129.43 144.378,133.25 C142.813,136.289 137.855,142.886 133.675,147.49 C132.671,148.595 129.863,152.479 127.435,156.119 C125.007,159.759 122.341,163.302 121.51,163.991 C120.68,164.681 120,165.706 120,166.269 C120,166.832 117.966,169.589 115.48,172.396 C112.993,175.203 110.406,178.197 109.73,179.049 C109.053,179.901 104.728,184.606 100.118,189.505 L91.736,198.412 L92.358,208.956 C92.699,214.755 93.275,223.723 93.636,228.885 C94.272,237.976 94.218,238.328 91.896,240.113 C88.103,243.03 85.122,242.537 83.532,238.73 C82.78,236.931 81.237,234.619 80.102,233.592 C78.967,232.566 77.754,230.207 77.406,228.352 C77.058,226.496 76.374,224.731 75.887,224.43 C75.399,224.129 75,222.993 75,221.906 C75,220.819 74.301,218.863 73.447,217.56 C72.377,215.927 71.989,213.372 72.197,209.345 C72.46,204.268 72.763,203.5 74.5,203.5 C76,203.5 76.75,204.5 77.5,207.5 C78.73,212.42 79.705,214 81.512,214 C83.802,214 82.195,204.099 79.349,200.673 C76.149,196.823 75.854,189.54 78.717,185.079 C78.909,184.779 79.079,184.525 79.225,184.257 C80.307,182.276 80.105,179.594 78.361,152.75 C77.884,145.414 77.385,143 76.342,143 C75.58,143 74.465,144.238 73.865,145.75 C73.264,147.262 71.248,151.691 69.386,155.591 C67.524,159.492 66,163.247 66,163.937 C66,164.627 65.364,166.386 64.587,167.846 C63.81,169.306 62.234,172.634 61.086,175.243 C59.937,177.851 58.06,180.551 56.915,181.243 C53.765,183.145 51.349,188.766 50.571,196 C49.681,204.284 48.257,210.445 46.063,215.5 C45.109,217.7 43.731,222.768 43.001,226.763 C41.559,234.658 41.025,235.444 36.439,236.422 C34.079,236.926 32.954,236.607 31.525,235.027 C29.718,233.031 29.721,232.922 31.631,230.74 C34.267,227.727 35.513,224.64 36.972,217.5 C37.646,214.2 38.622,209.475 39.14,207 C39.658,204.525 40.47,200.25 40.944,197.5 C41.418,194.75 42.3,191.233 42.903,189.685 C43.506,188.137 44,184.881 44,182.449 C44,180.018 44.43,176.11 44.956,173.764 C47.149,163.991 49.516,126.158 49.447,102 C49.395,83.752 49.35,83.373 46.13,74.146 C42.848,64.742 42.686,62 45.411,62 C47.528,62 53.721,65.83 54.379,67.546 C55.247,69.807 57.864,69.276 62,66 C68.99,60.464 75.83,62.648 79.225,71.5 C81.168,76.567 83.191,86.168 83.544,92 C85.724,128.061 87.702,154.005 88.429,156.073 C88.927,157.491 89.83,171.617 89.942,179.75 C89.984,182.805 90.415,184 91.477,184 C92.97,184 107.227,167.984 110,163.193 C111.258,161.019 123.628,144.711 128.549,138.739 C129.347,137.77 130,136.74 130,136.449 C130,136.159 131.56,133.604 133.467,130.773 C137.042,125.464 136.917,123 133.073,123 C130.589,123 122.384,117.516 120.449,114.563 C118.335,111.336 116.361,111.319 113.412,114.5 C110.735,117.389 107.445,117.713 104.829,115.345 C102.053,112.833 102.58,110.88 107.496,105.458 C111.426,101.123 119,88.21 119,85.843 C119,85.379 117.405,85 115.455,85 C111.792,85 107,81.467 107,78.768 C107,75.268 113.983,70 118.622,70 C120.979,70 124,73.863 124,76.878 C124,78.46 124.695,80.332 125.544,81.037 C127.699,82.825 126.618,87.99 122.378,96.154 C121.62,97.614 121,100.594 121,102.777 C121,106.205 121.619,107.316 125.55,110.939 C128.052,113.246 130.64,114.955 131.3,114.736 C134.126,113.801 134.991,77.447 132.589,60.567 C130.978,49.245 130.053,46.949 127.792,48.667 C127.082,49.208 124.545,50.21 122.155,50.894 C118.338,51.986 117.577,51.928 115.905,50.414 C114.857,49.466 114.013,48.422 114.028,48.095 C114.093,46.738 121.723,39.142 124.5,37.67 Z M146.819,144.536 C150.438,142.571 151.649,142.649 154,145 C156.52,147.52 156.519,149.637 153.996,153.774 C152.898,155.575 152,157.76 152,158.63 C152,159.5 150.619,161.956 148.93,164.088 C147.242,166.22 146.131,168.403 146.462,168.939 C147.377,170.42 149.599,169.176 150.819,166.499 C151.56,164.872 153.074,163.889 155.555,163.424 C158.754,162.824 159.579,163.117 162.278,165.817 C165.329,168.868 165.343,168.93 163.931,173.197 C163.148,175.564 162.646,177.921 162.816,178.436 C163.298,179.899 162.125,183.724 160.748,185.18 C160.062,185.906 158.232,189.08 156.683,192.232 C155.133,195.385 153.446,198.224 152.933,198.541 C152.42,198.859 152,199.991 152,201.059 C152,204.208 155.008,203.324 158.995,199.005 C163.303,194.339 170.078,190.471 178.5,187.869 C185.868,185.593 190.572,185.602 194.496,187.902 C197.907,189.901 198.848,193.331 198.942,204.1 C198.992,209.825 198.605,211.282 196.018,215.1 C194.378,217.52 193.002,220.175 192.961,221 C192.867,222.872 189.002,229.51 182.5,238.967 C175.045,249.81 173.466,251.939 168.009,258.5 C165.265,261.8 161.142,267.2 158.848,270.5 C153.685,277.928 148.562,283.608 140.972,290.322 C134.287,296.235 131.717,298.579 128.72,299.441 C126.643,300.038 124.361,299.923 120.361,299.79 L111.633,299.5 L118.067,295.578 C128.056,289.487 135.214,282.796 145.546,269.891 C150.779,263.356 157.521,255.25 160.53,251.878 C163.538,248.506 166,245.283 166,244.715 C166,244.147 167.8,241.298 170,238.384 C172.2,235.47 174,232.798 174,232.447 C174,232.096 174.848,230.614 175.885,229.154 C176.921,227.694 179.015,224.25 180.536,221.5 C182.058,218.75 183.642,216.275 184.057,215.999 C184.471,215.724 185.761,212.679 186.922,209.232 C188.871,203.446 188.915,202.736 187.491,199.982 C186.256,197.594 185.297,197 182.674,197 C180.873,197 178.914,197.486 178.321,198.079 C177.727,198.673 175.297,199.595 172.921,200.129 C170.137,200.755 166.271,202.99 162.05,206.414 C150.377,215.883 142.207,219.403 138.882,216.394 C136.323,214.078 136.518,210.989 139.5,206.595 C140.875,204.569 142,202.311 142,201.578 C142,200.845 142.685,199.676 143.523,198.981 C144.36,198.286 144.803,196.954 144.506,196.02 C144.179,194.99 145.346,192.588 147.475,189.911 C150.691,185.866 152.98,179.647 151.718,178.385 C151.431,178.098 149.014,179.407 146.348,181.295 C139.277,186.302 136.628,186.691 134.069,183.097 C131.528,179.529 131.501,178.525 133.851,175.154 C136.319,171.616 141.759,157.899 142.546,153.23 C143.607,146.933 144.045,146.042 146.819,144.536 Z M164.129,29.918 C170.425,27.716 176.225,28.031 179.901,30.776 C183.095,33.16 185.991,40.965 185.996,47.203 C185.998,49.79 186.537,53.085 187.194,54.527 C188.124,56.567 188.119,57.58 187.171,59.097 C186.32,60.46 186.257,61.611 186.96,62.925 C187.584,64.091 187.743,70.441 187.379,79.652 C187.057,87.818 186.861,96.787 186.945,99.583 C187.12,105.455 184.602,118.569 182.908,120.61 C181.281,122.572 179.037,122.35 172.874,119.617 C166.886,116.961 164.936,115.133 162.62,110 C161.751,108.075 160.581,105.712 160.02,104.75 C159.459,103.787 158.62,102.223 158.155,101.273 C157.691,100.323 156.232,99.291 154.913,98.98 C152.353,98.375 150.016,94.78 150.051,91.5 C150.063,90.4 152.539,86.883 155.553,83.685 C160.013,78.953 161.542,77.929 163.763,78.185 C166.222,78.469 166.574,79.02 167.324,83.761 C168.104,88.693 167.963,89.286 165.078,93.208 C163.385,95.511 162.021,98.318 162.047,99.447 C162.073,100.576 164.736,104.375 167.965,107.888 C175.876,116.496 177.087,116.003 176.834,104.277 C176.729,99.45 176.942,88.075 177.307,79 C178.093,59.464 176.247,43.781 172.807,40.772 C171.001,39.191 170.523,39.173 167.206,40.558 C165.212,41.392 162.757,42.957 161.751,44.037 C159.552,46.397 159.069,46.437 156.287,44.489 C154.516,43.248 154.229,42.307 154.687,39.239 C155.417,34.349 157.588,32.207 164.129,29.918 Z M63.194,79.581 C59.75,83.759 59.221,87.279 59.977,101 L60.5,110.5 L63.687,110.181 C66.822,109.868 70.885,111.356 72.138,113.278 C74.74,117.266 75.342,104.704 72.966,96 C72.441,94.075 72.009,90.356 72.006,87.736 C72.003,85.116 71.583,82.191 71.073,81.236 C70.563,80.281 69.902,78.713 69.604,77.75 C68.756,75.01 66.409,75.68 63.194,79.581 Z M59.672,120.75 C59.427,121.162 58.919,126.675 58.543,133 C58.168,139.325 57.217,147.744 56.431,151.708 C55.201,157.903 54.842,159.315 55.371,159.856 C55.589,160.078 55.956,160.153 56.474,160.352 C57.513,160.75 59.029,158.937 61.608,154.209 C63.62,150.519 66.332,145.822 67.634,143.771 C68.935,141.721 70,139.203 70,138.176 C70,137.15 70.9,135.495 72,134.5 C73.107,133.498 74,131.42 74,129.845 C74,127.515 73.569,127 71.619,127 C70.072,127 68.301,125.773 66.568,123.5 C64.111,120.279 60.749,118.939 59.672,120.75 Z M156.622,59.127 C159.218,57.407 161.767,56 162.285,56 C162.804,56 164.976,56.983 167.114,58.184 C171.491,60.644 172.033,63.022 169.455,68.454 C167.362,72.864 163.963,74.622 160.3,73.189 C158.76,72.586 156.375,71.96 155,71.797 C152.788,71.534 152.465,70.967 152.2,66.877 C151.908,62.361 152.01,62.182 156.622,59.127 Z"/>
</svg>

