<svg xmlns="http://www.w3.org/2000/svg" width="300" height="300" viewBox="0 0 300 300" version="1.1">
  <defs/>
  <path d="M145.655,49.829 C146.565,48.823 147.604,48 147.964,48 C149.881,48 151.88,50.969 152.339,54.5 C153.966,67.006 156.919,76.347 159.399,76.833 C160.333,77.016 162.186,76.453 163.516,75.582 C164.845,74.711 168.011,72.838 170.551,71.42 C174.953,68.962 175.257,68.923 177.084,70.576 C181.302,74.393 177.669,80.238 169,83.581 C166.525,84.536 163.938,85.75 163.25,86.281 C161.459,87.662 161.708,92.347 163.834,97.261 C166.552,103.542 168.167,108.16 168.73,111.262 C169.005,112.781 169.629,114.271 170.115,114.571 C170.602,114.872 171,116.386 171,117.937 C171,119.487 171.675,121.315 172.5,122 C173.325,122.685 174,123.984 174,124.887 C174,125.789 174.9,128.991 176,132 C177.1,135.009 178,138.069 178,138.8 C178,139.53 179.125,142.588 180.5,145.594 C181.875,148.6 183,151.694 183,152.471 C183,154.539 185.08,155.477 186.121,153.878 C186.614,153.12 187.261,151.375 187.558,150 C188.665,144.88 190.374,139.47 191.174,138.55 C191.628,138.027 192,136.522 192,135.204 C192,133.887 192.614,131.614 193.364,130.154 C194.114,128.694 195.516,125.25 196.48,122.5 C201.211,109.002 201.477,108.512 204.229,108.19 C206.187,107.96 207.327,108.569 208.614,110.534 C210.226,112.994 210.236,113.419 208.749,116.344 C207.866,118.08 206.604,121.3 205.945,123.5 C205.285,125.7 204.127,128.694 203.373,130.154 C202.618,131.614 202,133.95 202,135.345 C202,136.74 201.55,138.16 201,138.5 C200.45,138.84 200,140.223 200,141.573 C200,144.018 199.758,144.672 196.643,150.654 C195.739,152.389 195,154.533 195,155.418 C195,157.038 194.724,157.735 191.669,163.831 C189.64,167.881 189.554,175.595 191.5,179 C192.286,180.375 192.945,182.711 192.965,184.191 C192.984,185.671 193.45,187.16 194,187.5 C194.55,187.84 195,189.386 195,190.937 C195,192.487 195.675,194.315 196.5,195 C197.325,195.685 198,197.096 198,198.136 C198,199.176 198.397,200.809 198.883,201.764 C199.369,202.719 200.213,204.625 200.759,206 C201.305,207.375 202.3,209.85 202.97,211.5 C203.641,213.15 204.874,216.525 205.71,219 C207.177,223.341 209.646,228.88 218.193,247 C225.423,262.327 226.305,264 227.157,264 C227.621,264 228,264.501 228,265.114 C228,266.051 233.42,272.837 240.151,280.327 C241.107,281.391 242.791,282.025 244.151,281.832 C246.748,281.465 246.779,281.088 245.433,266.263 C245.071,262.283 245.068,258.266 245.425,257.336 C246.023,255.776 246.199,255.77 247.697,257.269 C252.909,262.48 256.783,284.65 253.569,290.866 C252.073,293.76 251.668,293.927 246.492,293.791 C241.438,293.658 240.577,293.267 235.623,288.852 C229.974,283.817 217.749,267.317 214.617,260.5 C212.161,255.156 209.537,249.31 207.565,244.792 C206.675,242.753 205.509,240.814 204.973,240.483 C204.438,240.153 204,239.036 204,238.002 C204,236.968 202.427,233.057 200.505,229.311 C198.583,225.565 197.008,221.931 197.005,221.236 C197,219.957 196.666,219.15 193.669,213.169 C192.751,211.337 192,209.001 192,207.978 C192,206.955 191.55,205.84 191,205.5 C190.45,205.16 190,204.002 190,202.927 C190,201.852 189.582,200.191 189.071,199.236 C188.56,198.281 187.323,195.354 186.321,192.732 C184.503,187.972 182.453,186.917 181.014,190 C178.615,195.139 175.622,201.858 174.776,204 C173.295,207.754 170.892,213.279 169.889,215.236 C169.4,216.191 169,217.559 169,218.275 C169,219.864 165.614,226.63 163.699,228.869 C162.932,229.766 162.007,231.175 161.643,232 C161.28,232.825 160.028,235.075 158.861,237 C157.695,238.925 155.302,243.2 153.544,246.5 C151.786,249.8 149.144,254.404 147.674,256.73 C146.203,259.057 145,261.418 145,261.977 C145,262.537 143.511,264.683 141.692,266.747 C139.872,268.811 135.547,274.325 132.081,279 C122.245,292.265 113.4,298.531 107.263,296.584 C101.91,294.884 99.507,289.424 102.382,285.492 C103.658,283.747 104.089,283.709 107.996,284.999 L112.227,286.395 L120.465,277.913 C124.996,273.248 129.968,267.421 131.513,264.965 C133.059,262.509 136.003,258.475 138.055,256 C140.108,253.525 142.668,249.7 143.745,247.5 C144.822,245.3 146.895,241.185 148.352,238.355 C149.808,235.525 151,232.268 151,231.118 C151,229.128 150.619,229.052 143.25,229.564 C138.988,229.86 133.864,230.584 131.863,231.174 C129.863,231.763 126.601,231.965 124.613,231.623 C122.626,231.28 119.423,230.725 117.495,230.39 C112.391,229.502 110.658,225.36 111.397,215.812 C111.708,211.79 112.333,197.7 112.787,184.5 C113.429,165.799 113.974,159.672 115.254,156.75 C117.857,150.812 123,152.107 123,158.7 C123,161.641 123.299,161.997 125.75,161.968 C130.623,161.912 132,159.967 132,153.14 C132,149.763 131.732,147 131.404,147 C131.076,147 128.385,147.704 125.425,148.565 C118.019,150.718 113.945,150.185 112.064,146.818 C110.697,144.371 110.73,143.956 112.438,142.068 C113.468,140.931 115.318,140 116.55,140 C120.587,140 132.401,135.882 137.322,132.759 C142.12,129.714 142.153,129.709 144.115,131.671 C146.938,134.493 145.193,138.352 139.545,141.78 C137.08,143.276 135.049,144.849 135.032,145.275 C135.014,145.701 136.125,146.477 137.5,147 C139.732,147.849 140,148.517 140,153.248 C140,158.276 140.178,158.641 143.5,160.43 C147.336,162.496 147.584,163.093 145.794,165.958 C144.802,167.546 144.916,168.249 146.436,169.929 C148.205,171.884 148.21,172.161 146.561,176.48 C145.522,179.199 145.087,182.118 145.463,183.833 C145.967,186.127 145.515,187.24 143.125,189.588 C140.356,192.31 140.219,192.794 141.037,197 C142.625,205.161 142.229,209.436 139.662,211.847 L137.325,214.043 L134.662,211.949 C132.423,210.187 132,209.072 132,204.927 C132,200.774 131.705,200 130.122,200 C129.09,200 127.696,200.662 127.024,201.471 C126.353,202.28 124.835,202.842 123.652,202.721 C121.578,202.508 121.5,202.863 121.5,212.5 L121.5,222.5 L127.5,222.775 C130.8,222.927 135.75,222.42 138.5,221.65 C141.25,220.88 146.65,219.459 150.5,218.494 C159.508,216.234 160.384,215.77 161.075,212.893 C161.984,209.107 164.364,204 165.219,204 C165.649,204 166,203.17 166,202.155 C166,201.14 168.25,195.853 170.999,190.405 C173.748,184.957 175.998,179.739 175.999,178.809 C176,177.879 176.45,176.84 177,176.5 C178.241,175.733 178.332,166.323 177.106,165.565 C176.614,165.261 175.999,163.322 175.741,161.256 C175.285,157.618 173.645,152.33 171.866,148.764 C171.39,147.809 171,146.207 171,145.205 C171,144.202 170.339,142.509 169.532,141.441 C168.724,140.374 168.049,138.632 168.032,137.571 C167.999,135.562 166.302,129.618 165.004,126.967 C164.592,126.124 163.937,123.992 163.55,122.229 C163.163,120.466 162.431,118.766 161.923,118.452 C161.415,118.139 161,116.81 161,115.5 C161,114.19 160.55,112.84 160,112.5 C159.45,112.16 158.986,110.896 158.968,109.691 C158.951,108.486 158.276,106.626 157.468,105.559 C156.661,104.491 156,102.798 156,101.795 C156,100.793 155.603,99.191 155.118,98.236 C154.632,97.281 153.826,95.15 153.326,93.5 C152.513,90.815 152.055,90.536 148.959,90.843 C147.056,91.031 145.05,91.545 144.5,91.983 C141.776,94.156 111.512,103.518 94.328,107.504 C90.804,108.321 86.579,109.684 84.938,110.532 C82.187,111.954 81.608,111.92 77.478,110.093 C75.015,109.004 73,107.653 73,107.091 C73,105.784 76.532,103.865 77.379,104.712 C77.732,105.066 78.895,104.417 79.962,103.271 C81.03,102.125 83.613,100.663 85.702,100.024 C87.791,99.384 90.4,98.471 91.5,97.995 C93.336,97.2 99.631,95.772 114,92.891 C117.025,92.284 120.281,91.386 121.236,90.894 C122.191,90.402 123.419,90 123.964,90 C124.51,90 128.234,88.466 132.239,86.59 C136.245,84.715 141.189,82.868 143.226,82.485 C147.647,81.656 149.898,79.498 148.158,77.758 C147.521,77.121 146.984,75.002 146.965,73.05 C146.945,71.097 146.286,68.375 145.5,67 C143.438,63.392 143.539,52.167 145.655,49.829 Z M90.357,112.512 C90.989,110.866 94.685,110.515 96.863,111.894 C97.612,112.369 99.06,115.174 100.08,118.129 C102.501,125.141 102.892,156.281 100.6,159.554 C99.83,160.653 98.971,164.24 98.691,167.526 C97.929,176.48 95.699,185.556 92.866,191.236 C92.39,192.191 92,194.077 92,195.427 C92,196.777 91.55,198.16 91,198.5 C90.45,198.84 89.986,200.329 89.968,201.809 C89.951,203.289 89.276,205.374 88.468,206.441 C87.661,207.509 87,210.07 87,212.132 C87,214.195 86.55,216.16 86,216.5 C85.45,216.84 84.995,218.329 84.988,219.809 C84.981,221.289 83.856,224.458 82.488,226.852 C81.12,229.246 80,232.032 80,233.043 C80,234.054 79.55,235.16 79,235.5 C78.45,235.84 78,236.991 78,238.059 C78,239.127 77.559,240 77.019,240 C76.48,240 75.745,241.169 75.386,242.597 C73.61,249.673 65.267,264.124 61.552,266.558 C59.145,268.135 55,267.786 55,266.006 C55,265.533 57.25,261.749 60,257.597 C62.75,253.444 65,249.488 65,248.807 C65,247.083 68.029,239.164 70.197,235.22 C71.189,233.415 72,230.854 72,229.529 C72,228.203 72.403,226.869 72.896,226.564 C74.806,225.384 78.391,217.203 79.716,211 C80.48,207.425 81.559,202.7 82.114,200.5 C84.917,189.388 84.495,188.894 77.168,194.699 C70.822,199.727 70,200.867 70,204.632 C70,206.42 69.55,208.16 69,208.5 C68.45,208.84 68,210.685 68,212.601 C68,222.194 53.833,240.393 50.528,235.045 C50.203,234.52 51.752,230.307 53.969,225.684 C56.186,221.06 58,216.405 58,215.339 C58,214.272 58.392,212.973 58.872,212.45 C59.352,211.928 60.006,209.7 60.326,207.5 C60.872,203.749 60.709,203.407 57.704,202 C55.236,200.845 54.429,199.773 54.193,197.335 C53.954,194.871 54.339,194.027 55.934,193.521 C57.06,193.163 58.366,193.108 58.835,193.398 C60.923,194.688 67.137,191.527 74.429,185.464 C78.778,181.849 83.155,178.452 84.157,177.916 C86.646,176.584 89,171.755 89,167.982 C89,165.208 88.752,164.943 86.75,165.567 C85.513,165.954 84.275,166.548 84,166.888 C82.928,168.213 75.382,172.835 73.267,173.462 C70.171,174.38 65.539,169.81 66.407,166.694 C67.871,161.433 68.273,146.072 67.025,143.061 C65.511,139.404 66.889,137 70.5,137 C74.282,137 75.306,139.45 75.58,149.166 C75.867,159.306 76.842,161.358 80.012,158.489 C81.145,157.464 83.968,156.372 86.286,156.062 L90.5,155.5 L91.303,148.5 C92.147,141.138 91.659,122.767 90.474,117.262 C90.09,115.482 90.038,113.344 90.357,112.512 Z M178.174,32.314 C179.37,31.042 180.875,30 181.519,30 C183.581,30 186.248,33.834 187.597,38.737 C188.318,41.357 189.632,46.14 190.516,49.368 C192.376,56.157 191.936,58.272 188.754,57.82 C186.747,57.535 183.59,53.09 180.358,46 C179.982,45.175 178.848,43.306 177.837,41.846 C175.404,38.33 175.517,35.143 178.174,32.314 Z M128.5,172.358 C126.3,173.536 124.169,174.95 123.765,175.5 C123.361,176.05 123.024,179.319 123.015,182.764 C123.007,186.209 122.449,189.91 121.775,190.989 C120.832,192.498 120.823,193.223 121.733,194.133 C123.396,195.796 125.186,194.104 131.357,185.029 C138.595,174.387 139.253,173.01 137.888,171.365 C136.333,169.492 133.244,169.819 128.5,172.358 Z M89.352,100.993 C86.631,102.091 85.494,103.894 86.738,105.138 C87.76,106.16 98.996,102.138 98.999,100.75 C99,99.737 92.029,99.913 89.352,100.993 Z"/>
</svg>

