<svg xmlns="http://www.w3.org/2000/svg" width="300" height="300" viewBox="0 0 300 300" version="1.1">
  <defs/>
  <path d="M143.25,35.662 C147.444,33.97 151.067,36.238 150.982,40.502 C150.949,42.151 150.682,47.663 150.39,52.75 L149.858,62 L152.426,62 C153.839,62 158,60.58 161.674,58.844 C167.824,55.939 168.558,55.802 170.927,57.126 C174.902,59.346 174.851,63.258 170.807,66.296 C168.988,67.663 165.925,69.11 164,69.513 C158.212,70.722 153.088,73.802 152.417,76.473 C152.079,77.82 152.185,84.227 152.651,90.711 L153.5,102.5 L156.5,102.221 C158.15,102.067 162.529,101.842 166.231,101.721 C172.722,101.508 173.084,101.625 176.409,105 C183.96,112.666 189.327,126.484 190.585,141.5 C190.769,143.7 191.416,150.9 192.022,157.5 C192.627,164.1 193.043,178.95 192.946,190.5 C192.849,202.05 192.824,216.303 192.89,222.174 L193.01,232.847 L189.812,235.35 C186.934,237.602 186.359,237.719 184.057,236.521 C182.651,235.789 177.984,231.801 173.686,227.66 C166.363,220.605 165.891,219.896 166.186,216.393 C166.359,214.337 167.054,212.472 167.732,212.25 C168.41,212.027 171.155,214.13 173.833,216.923 C176.527,219.733 179.6,222 180.714,222 C182.69,222 182.726,221.438 182.614,192.25 L182.5,162.5 L178.539,162.633 C176.361,162.706 174.411,163.268 174.206,163.883 C174.001,164.497 173.254,165 172.546,165 C170.591,165 158.105,174.409 155.061,178.176 C152.565,181.266 152.289,182.59 151.149,197 C150.474,205.525 149.494,216.55 148.971,221.5 C148.448,226.45 147.781,233.875 147.49,238 C146.972,245.343 144.714,254.265 142.745,256.75 C141.104,258.822 138.022,258.188 137.028,255.574 C136.459,254.077 136.481,250.344 137.084,245.824 C137.622,241.796 138.477,235.35 138.984,231.5 C139.491,227.65 140.374,221.8 140.947,218.5 C141.52,215.2 142.002,209.35 142.019,205.5 C142.035,201.65 142.506,196.516 143.065,194.091 C144.308,188.702 143.059,186.732 140.098,189.411 C136.595,192.581 134.538,191.134 134.199,185.263 L133.897,180.045 L138.846,177 C143.304,174.257 143.839,173.536 144.248,169.728 C144.79,164.669 143.953,163.419 141.061,164.967 C139.876,165.601 137.015,166.441 134.703,166.834 L130.5,167.547 L129.692,174.523 C129.247,178.361 128.876,183.75 128.866,186.5 C128.83,196.527 126.793,218.533 125.788,219.75 C124.218,221.651 122.167,221.258 119.444,218.535 C117.132,216.223 117.019,215.62 117.617,208.785 C117.968,204.778 118.648,201.073 119.128,200.55 C119.607,200.028 120,186.602 120,170.717 C120,144.898 119.783,140.983 117.955,133.823 C115.466,124.075 115.598,114.275 118.239,112.616 C119.564,111.784 120.637,111.922 122.739,113.192 C125.006,114.562 125.555,115.679 125.805,119.43 C126.185,125.135 128.549,125.585 132.09,120.625 C133.416,118.769 136.525,115.699 139,113.804 L143.5,110.358 L143.146,97.615 C142.952,90.607 142.461,83.664 142.054,82.186 C141.046,78.519 140.338,78.659 125.904,85.39 C117.193,89.452 114,88.608 114,82.243 C114,79.035 114.334,78.734 121.53,75.455 C125.672,73.567 130.284,71.73 131.78,71.371 C133.276,71.013 135.738,70.096 137.25,69.334 L140,67.949 L140,56.033 C140,49.168 140.424,43.856 141,43.5 C141.55,43.16 142,41.371 142,39.524 C142,37.678 142.563,35.94 143.25,35.662 Z M68.965,58.82 C73.871,56.648 79.356,61.152 80.439,68.243 C81.631,76.049 83.46,92.384 84.873,107.849 C85.444,114.091 86.375,120.616 86.943,122.349 C88.017,125.624 88.785,134.434 89.485,151.5 C89.711,157 90.164,166.225 90.492,172 C91.241,185.178 91.279,191.622 90.757,216.266 C90.374,234.281 90.167,236.166 88.419,237.533 C84.9,240.285 83.34,240.902 81.267,240.36 C79.182,239.814 74.54,233.971 71.846,228.5 C71.033,226.85 69.901,224.6 69.331,223.5 C66.454,217.95 65.082,214.128 64.664,210.5 C64.411,208.3 63.683,204.49 63.048,202.033 C61.81,197.247 62.332,193 64.159,193 C65.807,193 67.932,196.174 67.968,198.691 C67.986,199.896 68.45,201.16 69,201.5 C69.55,201.84 70,203.049 70,204.187 C70,205.325 71.35,208.561 73,211.378 C77.431,218.942 78.843,220.557 80.01,219.39 C81.531,217.869 82.163,185.925 80.908,174 C80.3,168.225 79.734,158.025 79.651,151.333 C79.52,140.763 78.89,136.557 77.666,138.083 C76.347,139.728 64,165.371 64,166.466 C64,168.801 58.947,173.999 56.661,174.015 C55.472,174.024 53.873,174.428 53.106,174.913 C51.686,175.812 49.244,181.485 48.333,186 C47.363,190.805 43.699,201.517 42.355,203.473 C41.61,204.557 41,206.402 41,207.572 C41,210.539 36.319,217.112 31.155,221.396 C26.385,225.353 25.921,225.521 24.278,223.878 C22.918,222.518 23.591,220.335 26.397,217 C29.042,213.855 31.018,210.373 32.031,207.068 C32.464,205.656 33.997,201.35 35.437,197.5 C38.139,190.275 39.555,185.411 40.967,178.5 C41.417,176.3 42.696,170.9 43.809,166.5 C46.671,155.192 49.348,126.308 48.647,114.299 C47.766,99.206 45.288,87.528 41.425,80.263 C39.389,76.434 39.086,74.83 39.628,70.744 L40.28,65.83 L43.888,66.507 C47.594,67.202 48.934,68.376 49.016,71 C49.084,73.138 51.462,76 53.172,76 C54.52,76 59,70.929 59,69.402 C59,68.341 67.251,59.579 68.965,58.82 Z M66.089,77.267 C65.584,78.594 63.046,81.55 60.447,83.837 L55.723,87.996 L56.968,94.248 C57.652,97.687 58.502,105.225 58.856,111 L59.5,121.5 L62.726,121.812 C64.924,122.024 66.606,123.043 68.008,125.011 C70.018,127.834 70.024,127.982 68.261,131.699 C66.62,135.162 66.105,135.5 62.48,135.5 L58.5,135.5 L57.834,140.5 C57.467,143.25 56.77,148.246 56.284,151.603 C55.799,154.959 55.574,158.222 55.784,158.853 C56.572,161.216 58.871,159.862 61.051,155.75 C62.29,153.412 63.907,150.375 64.646,149 C65.384,147.625 65.99,145.938 65.994,145.25 C65.997,144.563 66.42,144 66.933,144 C67.446,144 68.155,143.088 68.509,141.973 C68.862,140.858 70.953,137.865 73.155,135.321 C77.06,130.809 77.146,130.549 76.688,124.598 C75.71,111.877 74.837,104.383 73.94,101 C73.429,99.075 72.981,95.475 72.944,93 C72.824,84.962 70.582,75.543 68.703,75.181 C67.65,74.979 66.657,75.771 66.089,77.267 Z M159.263,114.115 C157.172,114.719 155.84,115.838 155.501,117.275 C154.518,121.453 155.44,141.316 156.637,141.714 C157.262,141.921 159.89,140.259 162.478,138.019 C165.065,135.78 168.963,133.039 171.14,131.929 C176.181,129.357 176.65,127.99 174.46,122.255 C171.206,113.735 167.483,111.741 159.263,114.115 Z M142.5,122.765 C141.95,123.169 138.643,127.234 135.15,131.797 L128.8,140.093 L129.504,148.047 C130.335,157.437 130.949,157.739 139.451,152.941 C145.483,149.536 144.945,151.082 146.489,132.738 C147.188,124.437 145.606,120.483 142.5,122.765 Z M181.035,39.463 C182.695,37.696 184.407,37 187.094,37 C190.385,37 191.472,37.699 196.041,42.75 C202.191,49.548 208.236,61.58 206.843,64.25 C205.188,67.422 201.24,66.38 198.24,61.98 C194.092,55.895 186.782,48.379 184.223,47.569 C182.971,47.173 181.221,45.741 180.334,44.387 C178.809,42.06 178.848,41.791 181.035,39.463 Z M171.955,143.823 C170.554,144.745 167.254,146.85 164.62,148.5 C156.208,153.77 155.036,155.111 154.356,160.25 C153.529,166.503 154.898,166.484 163.729,160.122 C167.453,157.439 172.525,154.591 175,153.793 C179.499,152.343 179.5,152.342 179.802,147.171 C180.099,142.087 180.058,142.001 177.302,142.073 C175.761,142.113 173.355,142.901 171.955,143.823 Z"/>
</svg>

