<svg xmlns="http://www.w3.org/2000/svg" width="300" height="300" viewBox="0 0 300 300" version="1.1">
  <defs/>
  <path d="M88,17.936 C95.223,16.941 101.197,17.665 102.75,19.724 C104.238,21.699 104.428,30.618 103,31.5 C102.45,31.84 101.995,32.879 101.989,33.809 C101.984,34.739 100.188,37.75 98,40.5 C95.508,43.632 94.017,46.55 94.011,48.31 C94.003,50.302 92.544,52.659 89,56.406 C86.25,59.314 84,62.161 84,62.732 C84,63.303 85.139,64.516 86.531,65.428 C88.37,66.633 88.985,67.818 88.781,69.758 C88.42,73.189 90.792,73.774 93.779,70.992 C95.217,69.652 96,67.745 96,65.583 C96,61.817 98.429,59.07 100.444,60.558 C104.38,63.464 105.766,64.554 107.14,64.538 C108.016,64.528 108.886,64.068 110.409,63.342 C113.947,61.655 114.109,61.665 116.125,63.681 C117.862,65.418 118.011,66.111 117.037,67.932 C116.396,69.128 114.511,70.935 112.848,71.946 C110.033,73.658 107,77.945 107,80.213 C107,81.115 105.644,84.477 102.648,91 C102.017,92.375 100.263,95.365 98.75,97.645 C96.224,101.452 95.083,106 96.654,106 C97.014,106 100.173,104.398 103.675,102.439 C110.374,98.693 114,98.536 114,101.991 C114,104.768 109.725,109.313 104.665,111.915 C100.798,113.904 99.604,115.349 96.035,122.362 C93.703,126.943 89.298,133.341 85.956,137 C82.691,140.575 80.015,143.984 80.01,144.576 C80.004,145.167 78.875,146.708 77.5,148 C76.125,149.292 75,151.14 75,152.107 C75,154.452 62.555,167 60.229,167 C57.405,167 56,164.958 56,160.851 C56,157.775 56.815,156.239 60.533,152.303 C63.026,149.664 66.158,146.153 67.492,144.502 C68.827,142.851 71.737,139.258 73.959,136.518 C79.555,129.62 79.151,126.376 73.273,131 C70.18,133.433 67.267,133.552 64.829,131.345 C62.58,129.31 62.525,127.654 64.601,124.486 C66.52,121.558 74.584,115.618 79.339,113.632 C83.683,111.817 84.595,110.315 82.655,108.171 C81.726,107.145 80.992,104.09 80.807,100.484 C80.501,94.528 80.486,94.501 77.531,94.718 C71.397,95.169 67.333,100.733 61.989,116 C61.315,117.925 59.873,121.525 58.784,124 C57.696,126.475 56.137,130.075 55.32,132 C54.502,133.925 53.415,136.175 52.902,137 C52.39,137.825 51.484,139.738 50.888,141.25 C50.292,142.762 49.398,144 48.902,144 C48.406,144 48,145.064 48,146.365 C48,147.666 47.1,149.874 46,151.273 C44.9,152.671 44,154.219 44,154.712 C44,155.206 42.45,157.301 40.556,159.37 C37.59,162.607 36.826,162.977 35.056,162.03 C32.643,160.739 32.37,157.768 34.5,156 C35.325,155.315 36,154.155 36,153.422 C36,152.689 37.053,150.537 38.34,148.64 C39.628,146.743 42.363,141.661 44.419,137.346 C46.475,133.03 48.796,128.226 49.578,126.669 C50.36,125.112 51,123.001 51,121.978 C51,120.955 51.45,119.84 52,119.5 C52.55,119.16 53.004,118.121 53.009,117.191 C53.014,116.261 54.125,113.25 55.478,110.5 C56.831,107.75 57.952,104.739 57.969,103.809 C57.986,102.879 58.45,101.84 59,101.5 C59.55,101.16 60,99.839 60,98.563 C60,97.288 60.675,95.685 61.5,95 C62.325,94.315 63,92.712 63,91.437 C63,90.161 63.45,88.84 64,88.5 C64.55,88.16 64.998,86.671 64.995,85.191 C64.992,83.711 65.707,80.25 66.584,77.5 C70.062,66.587 70.089,66.399 68.577,63.485 C67.224,60.877 67.282,60.566 69.447,58.863 C73.185,55.923 75.156,49.624 74.854,41.58 C74.65,36.131 74.175,34.199 72.794,33.193 C71.807,32.475 71,31.399 71,30.804 C71,30.208 70.252,29.173 69.338,28.505 C66.731,26.599 68.409,24.386 73.415,23.126 C75.937,22.491 78,21.558 78,21.053 C78,19.864 81.158,18.879 88,17.936 Z M132.06,165.24 C141.862,160.25 148.278,166.703 151.209,184.5 C151.753,187.8 152.563,190.95 153.009,191.5 C153.456,192.05 154.121,194.3 154.488,196.5 C154.855,198.7 155.417,201.175 155.736,202 C156.055,202.825 156.466,206.173 156.648,209.439 C156.83,212.706 157.434,215.834 157.989,216.389 C158.545,216.945 159,219.981 159,223.135 C159,226.289 159.452,230.057 160.003,231.509 C160.909,233.891 161.682,248.234 162.588,279.5 C162.764,285.55 163.008,291.4 163.132,292.5 C163.256,293.6 163.276,295.738 163.178,297.25 C163.004,299.945 162.871,300 156.606,300 C150.963,300 149.876,299.673 147.356,297.217 C144.303,294.242 141.83,290.241 138.546,282.968 C137.421,280.475 135.488,277.031 134.25,275.313 C132.146,272.394 131.237,267.096 132.606,265.728 C133.263,265.071 142,273.91 142,275.232 C142,277.016 150.415,289 151.668,289 C152.717,289 152.892,287.513 152.462,282.25 C152.159,278.538 151.75,267.4 151.552,257.5 C151.049,232.225 150.014,219.943 148.335,219.298 C146.546,218.612 144,220.783 144,222.997 C144,223.96 140.512,229.339 136.25,234.949 C131.988,240.56 126.668,247.671 124.428,250.752 C122.189,253.832 118.91,257.037 117.143,257.875 C114.644,259.058 113.689,260.347 112.853,263.668 C112.262,266.017 111.153,268.458 110.389,269.092 C109.625,269.726 109,271.096 109,272.136 C109,273.176 108.577,274.809 108.06,275.764 C107.544,276.719 106.853,278.764 106.527,280.309 C106.2,281.854 104.069,285.139 101.792,287.61 C98.409,291.28 97.109,292.046 94.677,291.8 C93.041,291.635 91.206,290.671 90.601,289.657 C89.698,288.145 89.924,287.526 91.861,286.211 C95.015,284.07 98.263,278.706 100.466,272 C101.46,268.975 102.631,265.6 103.068,264.5 C103.506,263.4 104.058,261.15 104.296,259.5 C104.534,257.85 105.575,252.9 106.61,248.5 C108.172,241.858 108.492,236.493 108.496,216.901 C108.499,200.475 108.134,192.571 107.295,190.901 C106.632,189.58 104.922,185.649 103.496,182.164 C101.25,176.678 101.053,175.369 102.029,172.414 C102.954,169.61 103.655,169 105.955,169 C109.464,169 110.253,170.043 112.395,177.5 C113.342,180.8 114.541,184.281 115.059,185.236 C115.576,186.191 116,187.852 116,188.927 C116,190.002 116.45,191.16 117,191.5 C117.55,191.84 118,194.701 118,197.859 C118,204.768 119.038,206.136 123.345,204.901 C128.937,203.297 132.546,203.818 135.364,206.636 C138.605,209.878 138.763,213.46 135.75,215.41 C134.001,216.542 132.053,216.687 127,216.062 C123.425,215.62 120.217,215.419 119.87,215.614 C119.524,215.81 118.941,220.364 118.575,225.735 C118.209,231.106 117.669,236.738 117.375,238.25 C116.985,240.258 117.243,241 118.331,241 C120.781,241 143.975,214.742 143.991,211.95 C143.996,211.097 144.501,209.899 145.114,209.286 C145.917,208.483 145.939,206.679 145.192,202.836 C143.815,195.745 142.039,188.961 140.917,186.5 C140.415,185.4 139.396,182.7 138.652,180.5 C137.909,178.3 136.629,176.368 135.808,176.207 C134.987,176.046 131.882,177.744 128.908,179.98 C125.933,182.217 122.873,183.923 122.106,183.773 C121.339,183.623 119.764,182.221 118.606,180.658 L116.5,177.816 L122.06,172.658 C125.117,169.821 129.617,166.483 132.06,165.24 Z M167.289,69.328 C171.621,65.63 174.078,65.884 177.434,70.379 C179.381,72.987 179.388,73.216 177.706,79.776 C176.759,83.474 175.987,87.277 175.992,88.227 C176,89.921 170.69,100.578 168.906,102.45 C166.848,104.608 168.243,106.891 173.592,110.122 C176.667,111.98 181.405,115.208 184.121,117.296 C190.337,122.075 196.337,125.737 206.5,130.95 C210.9,133.208 215.577,135.954 216.893,137.054 L219.287,139.053 L217.393,142.6 C216.352,144.55 214.97,146.592 214.322,147.136 C212.603,148.58 207.215,145.51 206.821,142.863 C206.463,140.458 206.483,140.471 196,135.536 C191.875,133.594 187.6,131.451 186.5,130.775 C183.508,128.935 180.014,126.707 177.101,124.78 C175.67,123.835 173.15,122.309 171.5,121.39 C169.85,120.471 167.228,118.657 165.673,117.359 C164.119,116.062 162.422,115 161.903,115 C161.384,115 158.992,118.037 156.586,121.75 C154.181,125.463 150.815,129.741 149.106,131.258 C147.398,132.774 146,134.418 146,134.909 C146,135.4 144.394,136.75 142.431,137.908 C139.763,139.483 138.943,140.577 139.181,142.247 C139.367,143.551 140.332,144.623 141.5,144.824 C145.53,145.519 147.182,150.001 144.672,153.434 C142.743,156.073 138.557,155.662 134.302,152.417 C130.585,149.581 129.997,149.494 120.131,150.305 C118.769,150.417 117.281,149.734 116.631,148.699 C115.68,147.183 116.049,146.446 118.961,144.052 L122.423,141.207 L116.106,134.454 C112.631,130.74 108.938,126.306 107.898,124.601 C105.602,120.835 105.439,115.71 107.56,113.95 C109.561,112.29 114.039,113.737 115.499,116.517 C119.88,124.858 129.426,136 132.191,136 C134.408,136 142.018,128.06 147.756,119.759 C151.744,113.99 153.761,111.596 153.301,109.859 C152.865,108.212 150.206,107.155 144.895,104.375 C142.246,102.987 141.23,102.934 137.97,104.01 C133.454,105.5 131.267,104.879 130.094,101.772 C128.797,98.336 130.515,96 134.339,96 C139.016,96 145.181,91.649 155,81.419 C159.675,76.549 165.205,71.108 167.289,69.328 Z M134.2,10.2 C136.152,8.248 137.996,8.796 141.6,12.4 C144.019,14.819 145,16.704 145,18.931 C145,22.718 147.057,23.774 150.176,21.589 C153.331,19.38 156.459,19.605 159.336,22.25 C162.208,24.891 164.339,32.498 162.939,35.114 C161.592,37.632 161.736,49 163.115,49 C164.499,49 170.325,42.728 171.731,39.724 C172.304,38.501 173.354,35.56 174.066,33.189 C175.584,28.133 177.708,26.582 180.408,28.556 C181.998,29.719 182.198,30.793 181.708,35.543 C181.389,38.629 180.312,42.314 179.314,43.731 C178.316,45.147 176.552,47.925 175.393,49.903 C172.769,54.382 161.688,63 158.553,63 C157.271,63 155.181,62.157 153.908,61.127 C151.711,59.347 151.603,58.67 151.754,47.563 C151.91,36.04 151.88,35.877 149.706,36.186 C147.141,36.551 146.139,40.898 145.37,55 C145.116,59.675 144.253,64.918 143.454,66.651 C142.654,68.384 142,70.753 142,71.915 C142,73.077 141.603,74.809 141.117,75.764 C140.631,76.719 139.623,78.796 138.878,80.38 C135.888,86.735 129.372,85.688 126.99,78.47 C125.808,74.888 126.359,68.493 128.023,66.477 C130.232,63.802 135,53.537 135,51.457 C135,50.171 135.45,48.84 136,48.5 C137.873,47.343 137.182,28.853 135.025,22.405 C132.747,15.596 132.497,11.903 134.2,10.2 Z M85.5,29.737 C84.4,30.014 82.445,30.642 81.156,31.132 L78.812,32.022 L81.99,34.991 C84.67,37.494 85.064,38.433 84.504,40.98 C83.405,45.986 86.106,44.541 90.25,37.905 C94.938,30.399 95.02,28.964 90.75,29.116 C88.963,29.18 86.6,29.459 85.5,29.737 Z M159,92.022 C153.666,96.726 153.56,96.918 155.5,98.404 C157.948,100.28 160.432,100.418 161.722,98.75 C162.861,97.278 165.452,88.118 164.888,87.557 C164.675,87.345 162.025,89.354 159,92.022 Z M90.607,87.582 C89.802,89.679 89.827,96 90.64,96 C92.103,96 93.939,92.278 93.968,89.25 C94.002,85.793 91.727,84.663 90.607,87.582 Z M76.534,75.963 C74.45,78.265 75.208,81.297 77.747,80.816 C78.903,80.597 79.607,79.379 79.813,77.242 C80.171,73.543 79.101,73.125 76.534,75.963 Z"/>
</svg>

