<svg xmlns="http://www.w3.org/2000/svg" width="300" height="300" viewBox="0 0 300 300" version="1.1">
  <defs/>
  <path d="M41.64,50.845 C42.793,49.572 44.057,49.217 45.89,49.654 C49.642,50.548 50.53,51.487 51.878,55.988 C52.539,58.195 53.625,60.004 54.29,60.009 C54.956,60.014 56.705,58.551 58.178,56.759 C60.793,53.578 61.046,53.5 68.816,53.5 C76.056,53.5 76.954,53.721 78.759,55.951 C80.67,58.311 81.9,66.52 82.512,81 C82.616,83.475 83.012,92.925 83.391,102 C83.77,111.075 84.458,122.325 84.92,127 C85.382,131.675 85.847,138.86 85.955,142.968 C86.063,147.075 86.32,150.709 86.527,151.044 C87.261,152.231 88.5,176.697 88.5,190 C88.5,207.02 89.613,208.327 97.494,200.558 C99.972,198.115 102,195.891 102,195.615 C102,195.34 104.457,191.601 107.459,187.307 C110.462,183.013 114.392,176.68 116.194,173.234 C119.996,165.959 119.602,164.386 113.378,162 C111.225,161.175 108.36,159.713 107.01,158.75 C105.66,157.787 103.64,157 102.522,157 C101.05,157 100.167,155.97 99.32,153.262 C97.746,148.235 98.955,147 105.448,147 C109.705,147 111.078,147.455 113,149.5 C114.292,150.875 115.885,152 116.539,152 C117.194,152 118.874,152.9 120.273,154 C121.671,155.1 123.471,156 124.272,156 C125.472,156 133,142.437 133,140.276 C133,139.936 133.601,138.947 134.335,138.079 C135.07,137.21 136.283,134.925 137.032,133 C137.78,131.075 139.655,127.425 141.196,124.889 C144.965,118.692 144.836,117.843 140.236,118.578 C137.199,119.064 136.104,118.772 134.56,117.067 C132.577,114.875 132.506,113.782 133.57,101.83 C134.182,94.955 133.101,84.053 130.753,73.426 C128.944,65.236 129.789,56.657 132.454,56.148 C133.694,55.911 135.226,56.8 136.645,58.58 L138.882,61.384 L143.767,56.815 C150.328,50.678 152.193,50.2 157.048,53.413 C161.118,56.107 161.47,56.918 162.504,65.975 C162.847,68.986 163.562,71.972 164.091,72.61 C164.62,73.247 165.283,78.208 165.563,83.635 C165.844,89.061 166.284,94.485 166.541,95.689 C166.797,96.893 166.556,98.157 166.004,98.498 C165.452,98.839 165,100.822 165,102.905 C165,109.974 160.7,115.492 155.695,114.845 C154.488,114.689 152.938,114.912 152.25,115.34 C150.516,116.419 150.682,119.941 152.5,120.638 C154.399,121.367 154.383,124.91 152.468,127.441 C151.661,128.509 151,129.68 151,130.044 C151,130.407 154.411,130.659 158.579,130.603 C165.064,130.515 166.374,130.789 167.654,132.5 C169.324,134.734 168.789,142.731 166.722,146.423 C164.851,149.765 163.104,155.177 162.409,159.786 C162.053,162.143 160.736,165.584 159.481,167.433 C154.889,174.199 155.311,175.508 163.5,179.924 C169.33,183.067 173.403,186.126 183.63,195.043 C188.651,199.421 196.301,205.482 200.63,208.512 C207.972,213.651 210.519,215.449 218.668,221.246 C220.41,222.486 226.71,227.416 232.668,232.203 C251.953,247.696 253.642,248.952 257.176,250.429 C259.092,251.229 261.248,252.594 261.967,253.461 C262.687,254.328 264.744,255.734 266.539,256.586 C270.626,258.525 271.892,263.373 269.514,267.972 C266.835,273.153 264.163,272.244 256.243,263.457 C254.734,261.783 251.7,259.34 249.5,258.027 C247.3,256.715 242.8,253.552 239.5,251 C236.2,248.448 231.924,245.41 229.997,244.251 C228.07,243.091 225.076,240.648 223.344,238.821 C219.43,234.694 215.263,231.527 208.077,227.216 C205.01,225.376 201.15,222.621 199.5,221.092 C197.85,219.564 194.917,217.372 192.983,216.219 C191.049,215.067 188.383,212.972 187.059,211.562 C185.735,210.153 184.139,209 183.513,209 C182.887,209 181.081,207.65 179.5,206 C177.919,204.35 176.295,203 175.89,203 C175.485,203 173.432,201.28 171.327,199.177 C169.222,197.075 164.634,193 161.132,190.122 C152.315,182.878 150.835,183.18 145.564,193.302 C141.31,201.47 135.12,208.651 129.075,212.432 C122.321,216.657 110.236,218.355 106.479,215.608 C103.38,213.342 106.184,211 111.996,211 C115.904,211 117.613,210.353 121.623,207.354 C126.761,203.513 132.869,195.855 137.461,187.5 C138.973,184.75 140.674,181.929 141.243,181.231 C142.651,179.502 139.946,176.636 134.343,173.924 C128.992,171.334 128.449,171.67 123.045,180.923 C120.929,184.547 118.253,188.366 117.098,189.411 C115.944,190.455 115,191.821 115,192.447 C115,193.65 110.963,198.42 103.318,206.25 C99.193,210.475 98.2,211 94.34,211 C90.249,211 90,211.161 90,213.813 C90,215.62 88.949,217.633 87.06,219.443 C83.937,222.434 81.435,222.371 80.313,219.273 C79.96,218.298 77.96,215.614 75.869,213.309 C73.778,211.004 71.76,207.854 71.385,206.309 C71.009,204.764 70.094,202.612 69.351,201.527 C68.608,200.443 68,198.501 68,197.212 C68,195.923 67.606,194.111 67.125,193.184 C66.644,192.258 65.937,188.912 65.553,185.75 C64.909,180.435 65.007,180 66.855,180 C69.024,180 72.543,183.86 73.539,187.332 C76.216,196.66 81.417,201.938 80.357,194.25 C80.073,192.188 79.451,189.6 78.976,188.5 C78.006,186.256 77.297,174.493 76.443,146.5 C76.124,136.05 75.686,126.945 75.47,126.267 C74.241,122.423 69.67,129.845 68.425,137.704 C68.059,140.016 66.913,142.673 65.88,143.609 C64.846,144.545 64,146.545 64,148.053 C64,151.052 59.003,161.275 55.929,164.564 C54.729,165.849 53.98,168.116 53.947,170.564 C53.887,175.073 51.715,187.063 50.155,191.5 C49.575,193.15 48.158,197.723 47.007,201.663 C45.857,205.602 44.259,209.37 43.458,210.035 C42.656,210.701 42,211.723 42,212.308 C42,214.005 37.807,218 36.026,218 C32.006,218 30.725,213.06 33.838,209.564 C34.849,208.429 36.245,205.925 36.939,204 C37.634,202.075 38.578,199.6 39.039,198.5 C39.91,196.417 43.035,182.855 45.029,172.5 C45.664,169.2 46.563,161.775 47.026,156 C47.49,150.225 48.388,138.975 49.024,131 C50.431,113.33 50.362,87.64 48.886,79.5 C48.287,76.2 46.779,71.25 45.534,68.5 C39.186,54.473 39.023,53.737 41.64,50.845 Z M117.151,1.265 C121.247,-0.705 123.629,-0.18 126.165,3.25 C130.143,8.63 131.304,12.113 131.916,20.49 C132.584,29.634 133.913,30.827 138.971,26.826 C140.589,25.547 144.234,22.7 147.072,20.5 C149.91,18.3 152.614,15.5 153.08,14.278 C153.547,13.056 155.147,11.75 156.636,11.377 C158.814,10.83 159.797,11.226 161.671,13.404 C162.952,14.893 164,16.925 164,17.919 C164,20.082 154.754,29 152.511,29 C151.646,29 150.693,29.638 150.394,30.417 C149.828,31.89 144.16,35.975 137.827,39.472 C134.026,41.571 126,49.991 126,51.88 C126,52.471 124.905,53.671 123.567,54.548 C119.878,56.966 117,55.045 117,50.165 C117,48.094 117.395,45.972 117.877,45.45 C120.106,43.035 122.38,33 122.432,25.345 C122.485,17.573 122.332,16.997 119.177,13.071 C117.356,10.805 115.627,7.476 115.334,5.672 C114.891,2.94 115.193,2.206 117.151,1.265 Z M61.451,68.481 C58.3,71.453 57.868,72.368 58.498,74.731 C58.904,76.254 59.521,81.55 59.868,86.5 C60.47,95.074 60.615,95.516 62.941,95.845 C64.283,96.034 66.883,97.334 68.718,98.734 C70.553,100.134 72.225,101.104 72.433,100.889 C73.237,100.064 70.981,68.832 69.983,66.968 C68.428,64.062 65.606,64.562 61.451,68.481 Z M145.189,146.57 C142.839,148.582 139.334,152.701 137.401,155.722 C133.338,162.073 133.589,162.764 141.459,166.895 C145.868,169.209 146.09,169.229 148.011,167.49 C149.105,166.5 150,164.936 150,164.015 C150,163.094 151.157,159.119 152.571,155.181 C155.658,146.584 155.512,143.618 151.982,143.206 C150.252,143.004 148.124,144.058 145.189,146.57 Z M61.258,111.25 C60.715,111.938 59.976,116.888 59.615,122.25 C59.052,130.625 59.176,132 60.491,132 C61.413,132 63.245,129.311 65.089,125.25 C66.776,121.537 68.795,117.193 69.578,115.596 C70.577,113.557 71.037,112.673 70.772,112.29 C70.555,111.977 69.851,112 68.559,112 C67.216,112 65.84,111.55 65.5,111 C64.646,109.618 62.444,109.748 61.258,111.25 Z M148.74,91.73 L144,94.212 L144,100.106 C144,106.745 145.337,107.677 149.231,103.75 C150.459,102.513 152.371,101.039 153.481,100.476 C154.983,99.715 155.577,98.273 155.8,94.852 C156.178,89.041 154.929,88.489 148.74,91.73 Z M145.734,67.929 C142.534,70.738 142.294,71.351 142.548,76.061 C142.699,78.863 143.076,81.409 143.386,81.719 C143.696,82.029 146.008,80.595 148.525,78.533 C152.896,74.951 153.087,74.577 152.8,70.151 C152.424,64.339 150.508,63.737 145.734,67.929 Z"/>
</svg>

