<svg xmlns="http://www.w3.org/2000/svg" width="300" height="300" viewBox="0 0 300 300" version="1.1">
  <defs/>
  <path d="M116.59,124.056 C118.899,122.918 121.524,122.356 123,122.684 C133.537,125.022 137.415,134.152 139.062,160.5 C139.945,174.625 141.774,195.414 144.032,217 C144.579,222.225 145.245,236.482 145.512,248.681 C145.779,260.881 146.448,272.048 146.999,273.496 C148.757,278.12 148.224,283.713 145.811,285.961 C144.608,287.082 143.09,288 142.439,288 C139.876,288 129.004,276.702 126.526,271.462 C123.495,265.056 123.061,257.297 125.678,256.293 C127.742,255.501 129.563,257.979 133.072,266.359 C136.415,274.34 138.628,274.619 138.169,267 C137.986,263.975 137.435,259.7 136.943,257.5 C136.451,255.3 136.038,245.712 136.024,236.193 C136.011,226.674 135.57,215.874 135.044,212.193 C134.518,208.512 133.581,200.1 132.961,193.5 C131.288,175.674 129.836,173.691 125.248,182.964 C124.202,185.077 121.806,188.717 119.923,191.053 C113.168,199.433 110.474,202.519 108.861,203.729 C107.96,204.404 105.574,207.442 103.558,210.479 C100.863,214.539 99.278,216 97.569,216 C94.471,216 93.387,217.57 92.565,223.25 C92.187,225.863 91.527,228 91.099,228 C90.078,228 88,232.605 88,234.867 C88,235.842 86.39,238.521 84.422,240.82 C81.795,243.889 80.096,245 78.029,245 C74.317,245 73.321,242.352 75.972,239.53 C77.087,238.343 78,236.668 78,235.808 C78,234.948 78.675,233.685 79.5,233 C80.325,232.315 81,231.129 81,230.364 C81,229.599 81.401,228.191 81.891,227.236 C83.269,224.553 86,214.571 86,212.221 C86,211.064 86.392,209.876 86.871,209.58 C87.35,209.284 88.053,206.67 88.434,203.771 C88.814,200.872 89.569,195.575 90.11,192 C91.785,180.937 92.644,166.588 91.744,164.709 C91.272,163.725 90.749,159.225 90.582,154.709 C90.415,150.194 89.469,144.077 88.48,141.115 C86.421,134.95 87.145,132.686 91.338,132.185 C93.154,131.968 94.715,132.668 96.352,134.435 C99.217,137.527 100.438,137.64 102.297,134.986 C104.237,132.216 111.864,126.384 116.59,124.056 Z M87.5,19.668 C88.6,19.428 89.733,19.18 90.018,19.116 C90.303,19.052 92.215,20.141 94.268,21.536 C98.515,24.422 98.919,26.832 95.938,31.5 C94.884,33.15 93.712,35.175 93.334,36 C92.956,36.825 91.59,39.196 90.298,41.269 C88.4,44.317 88.161,45.433 89.052,47.097 C89.901,48.684 89.782,49.939 88.534,52.57 C86.646,56.548 74.777,66.416 70.707,67.391 C67.872,68.07 67.62,68.423 66.582,73.18 C66.26,74.654 65.377,76.48 64.619,77.238 C63.861,77.997 62.924,80.916 62.538,83.725 L61.835,88.834 L66.622,90.951 C69.254,92.115 72.083,92.938 72.908,92.779 C73.733,92.62 75.328,90.714 76.454,88.543 C78.549,84.501 85.22,77.397 89.637,74.502 C90.998,73.611 93.513,73.021 95.228,73.191 C97.697,73.436 98.817,74.351 100.612,77.588 C102.797,81.529 102.82,81.834 101.276,86.088 C100.395,88.514 99.635,92.736 99.587,95.47 C99.513,99.712 99.138,100.62 97.029,101.672 C95.67,102.35 93.195,104.052 91.529,105.455 C77.65,117.137 73.751,117.723 72.316,108.339 C71.994,106.228 71.062,103.731 70.247,102.791 C67.999,100.2 59.519,97.652 57.226,98.879 C56.193,99.432 53.42,103.623 51.063,108.192 C48.707,112.761 45.253,119.135 43.389,122.357 C41.525,125.578 40,128.771 40,129.452 C40,130.133 39.1,131.505 38,132.5 C36.9,133.495 36,134.686 36,135.145 C36,136.526 27.377,149.382 25.323,151.063 C21.882,153.88 20.931,154.188 19.456,152.964 C17.466,151.312 17.628,147.757 19.824,144.885 C25.635,137.284 33.085,125.345 36.91,117.5 C39.323,112.55 42.935,105.575 44.936,102 C46.937,98.425 49.379,93.25 50.364,90.5 C52.386,84.855 53.824,81.305 55.117,78.764 C55.603,77.809 56,76.302 56,75.415 C56,74.528 56.713,72.159 57.583,70.151 C58.454,68.143 59.804,65.022 60.583,63.216 C61.363,61.41 62,58.849 62,57.525 C62,56.201 62.45,54.84 63,54.5 C63.569,54.149 64,49.134 64,42.875 C64,32.039 64.892,28 67.285,28 C67.953,28.001 71.425,26.583 75,24.85 C82.613,21.159 84.785,20.259 87.5,19.668 Z M131.421,2.186 C131.344,0.074 131.691,0 141.649,0 L151.957,0 L150.909,2.25 C150.333,3.488 145.955,7.118 141.181,10.318 C131.596,16.742 129.194,18.187 129.273,19.482 C129.307,20.033 129.79,20.557 130.36,21.427 C131.262,22.804 132,25.295 132,26.965 C132,30.945 135.145,31.127 136.924,27.25 C137.617,25.738 138.818,23.226 139.593,21.669 C140.367,20.112 141,18.269 141,17.574 C141,16.879 141.888,15.506 142.974,14.523 C144.836,12.838 145.095,12.832 147.528,14.426 C152.086,17.413 152.024,18.236 146.532,27.5 C145.228,29.7 144.111,32.625 144.049,34 C143.987,35.375 143.276,37.374 142.468,38.441 C138.673,43.458 143.607,43.201 151.479,37.972 C158.129,33.553 160.859,33.082 163.418,35.909 C165.023,37.683 165.031,38.04 163.529,40.944 C162.64,42.663 159.191,46.183 155.865,48.766 C149.925,53.38 149.829,53.531 150.446,57.386 C150.791,59.544 151.282,61.647 151.538,62.061 C152.087,62.949 156,62.081 156,61.071 C156,59.615 161.962,56.048 163.445,56.617 C166.449,57.77 164.828,64.411 160.544,68.5 C154.56,74.213 153.5,76.221 152.728,83.31 C152.297,87.264 151.576,93.875 151.126,98 C149.417,113.66 147.741,125.572 146.976,127.5 C146.539,128.6 145.917,130.321 145.594,131.324 C144.77,133.879 141.777,133.017 140.999,130 C140.402,127.685 141.035,111.608 142.345,95.837 C143.036,87.514 141.807,86.717 134.868,90.986 C132.174,92.644 129.397,94 128.696,94 C127.996,94 125.658,94.9 123.5,96 C118.508,98.545 115.789,98.529 113.447,95.941 C111.045,93.287 112.174,91.394 118.086,88.159 C125.155,84.291 133.981,78.086 137.697,74.37 C141.028,71.039 141.114,70.758 140.443,65.386 C140.021,62.016 139.189,59.626 138.32,59.292 C137.533,58.991 134.552,60.273 131.695,62.143 C121.342,68.918 118.245,69.616 115.557,65.777 C113.254,62.489 113.657,59.47 116.75,56.839 C122.96,51.557 126,46.748 126,42.206 C126,39.821 125.535,37.001 124.968,35.94 C124.4,34.879 123.866,30.628 123.782,26.493 C123.663,20.634 123.228,18.612 121.814,17.332 C120.816,16.429 120,14.881 120,13.892 C120,12.122 121.05,11.171 128,6.649 C130.318,5.141 131.473,3.634 131.421,2.186 Z M115.884,135.812 C110.389,139.039 102.773,145.688 101.195,148.636 C100.517,149.903 100.373,151.893 100.835,153.622 C101.894,157.589 100.241,192.997 98.873,195.655 C97.783,197.773 98.328,200 99.937,200 C100.387,200 102.849,197.412 105.409,194.25 C107.968,191.088 110.86,187.6 111.834,186.5 C112.808,185.4 114.682,182.925 115.999,181 C117.316,179.075 121.023,174.952 124.238,171.838 C129.425,166.814 130.006,165.857 129.403,163.338 C129.03,161.777 128.305,159.966 127.793,159.314 C127.209,158.571 127.268,157.368 127.951,156.092 C129.48,153.234 125.921,136.146 123.413,134.313 C122.599,133.717 122.102,133.329 121.552,133.223 C120.561,133.031 119.394,133.75 115.884,135.812 Z M110.233,160.85 C113.648,159.87 114.69,159.902 117.236,161.062 C120.612,162.6 122.595,167.519 121.024,170.455 C120.029,172.314 118.665,172.855 113.652,173.381 C107.154,174.062 105,172.952 105,168.923 C105,165.97 107.882,161.524 110.233,160.85 Z M78.75,33.658 L74,36.212 L74,42.047 C74,45.256 73.55,48.16 73,48.5 C71.499,49.428 71.786,54 73.345,54 C74.656,54 78,50.941 78,49.743 C78,48.632 85.16,37.112 86.587,35.928 C87.364,35.283 88,33.91 88,32.878 C88,30.241 84.567,30.53 78.75,33.658 Z M83.25,93.898 C79.713,97.017 78.964,100.033 81.75,99.945 C83.487,99.89 87.422,95.671 88.6,92.601 C89.575,90.06 86.855,90.719 83.25,93.898 Z"/>
</svg>

