<svg xmlns="http://www.w3.org/2000/svg" width="300" height="300" viewBox="0 0 300 300" version="1.1">
  <defs/>
  <path d="M40.241,40.75 C41.314,38.054 44.228,38.651 47.111,42.158 L49.722,45.335 L53.325,43.108 C55.919,41.505 58.128,40.968 61.214,41.191 C64.91,41.457 65.723,41.946 67.118,44.738 C68.007,46.519 69.192,48.544 69.749,49.238 C70.307,49.932 70.975,52.075 71.235,54 C71.495,55.925 72.432,60.875 73.318,65 C74.203,69.125 75.141,75.875 75.401,80 C77.148,107.692 78.134,123.699 79.034,139 C79.601,148.625 80.479,160.325 80.985,165 C81.492,169.675 82.102,183.479 82.341,195.675 L82.775,217.851 L79.769,220.925 C78.115,222.616 76.418,224 75.998,224 C74.624,224 68.227,216.288 66.751,212.853 C65.04,208.871 61.98,196.374 61.992,193.417 C61.996,192.271 61.663,190.996 61.25,190.583 C60.133,189.467 60.099,180.97 61.196,177.25 C63.127,170.704 65.487,173.784 67.491,185.465 C68.284,190.085 70.623,195 72.03,195 C73.178,195 72.499,174.298 70.785,157 C70.158,150.675 69.612,140.589 69.572,134.587 C69.522,127.066 69.128,123.55 68.304,123.272 C66.952,122.817 63,129.921 63,132.805 C63,133.842 62.211,135.404 61.247,136.277 C60.282,137.15 58.605,140.152 57.52,142.949 C56.434,145.746 53.676,150.536 51.389,153.593 C48.013,158.107 46.808,160.968 44.977,168.825 C42.411,179.835 39.536,188.896 36.99,194 C36.03,195.925 34.941,198.906 34.57,200.624 C34.2,202.343 32.741,204.818 31.328,206.124 C29.916,207.431 27.684,210.188 26.368,212.25 C23.986,215.982 21.731,216.992 20.441,214.905 C19.831,213.917 20.475,211.957 23.117,206.764 C23.603,205.809 24,204.528 24,203.918 C24,203.308 24.834,201.614 25.854,200.154 C29.208,195.352 36.718,169.466 39.099,154.5 C40.234,147.36 41.629,140.743 42.365,139 C43.499,136.316 45.218,119.751 45.478,109 C45.737,98.315 43.069,68.386 40.887,57.5 C39.509,50.624 39.226,43.301 40.241,40.75 Z M172.099,89.619 C178.255,83.432 179.247,82.799 181.947,83.339 C185.528,84.056 191,88.665 191,90.965 C191,91.864 191.436,93.036 191.969,93.569 C193.994,95.594 195.28,125.545 193.856,137.5 C192.158,151.754 190.847,156.216 187.315,159.75 C185.528,161.537 183.412,163 182.611,163 C180.673,163 174.083,155.213 173.325,152.027 C172.995,150.637 172.399,149.05 172.001,148.5 C171.603,147.95 171.026,145.861 170.719,143.858 C170.08,139.689 172.059,136 174.934,136 C177.618,136 178.824,137.993 179.181,143.02 C179.443,146.693 179.88,147.554 181.611,147.801 C183.356,148.05 183.83,147.445 184.35,144.301 C185.396,137.968 185.105,103.183 184,102.5 C183.45,102.16 183,100.994 183,99.91 C183,95.549 180.056,96.963 172.332,105.036 C162.929,114.865 163.388,112.822 162.607,148.296 C162.307,161.934 161.779,173.548 161.435,174.105 C161.091,174.662 161.125,178.263 161.511,182.106 C162.374,190.703 163.725,191.834 174.757,193.194 C179.016,193.719 187,194.835 192.5,195.674 C210.897,198.482 219.415,199.157 231.712,198.783 C243.606,198.421 244.022,198.332 247.712,195.343 L251.5,192.274 L251.464,179.887 C251.438,170.916 250.944,165.983 249.673,162 C248.708,158.975 247.557,155.15 247.116,153.5 C246.675,151.85 244.872,147.598 243.109,144.051 C239.801,137.395 239.109,130.113 241.703,129.26 C243.264,128.747 256.49,156.092 258.661,164.322 C259.558,167.72 261.379,172.895 262.709,175.821 C266.006,183.079 265.217,190.293 260.307,197.788 C256.235,204.003 251.359,207.491 244.666,208.975 C238.592,210.321 208.085,209.647 201.97,208.031 C191.592,205.289 190.061,204.999 185.884,204.98 C178.391,204.946 165.758,202.399 159.811,199.723 C151.655,196.054 151.4,194.755 153.018,165.192 C153.837,150.209 154.004,137.172 153.484,128.692 C152.536,113.245 152.162,109.843 153.681,108.279 C154.261,107.682 155.117,107.353 156.323,106.723 C158.428,105.625 161.295,102.879 162.7,100.614 C164.105,98.351 168.334,93.404 172.099,89.619 Z M122.24,83.225 C125.324,81.738 126.301,81.768 128.559,83.419 C130.247,84.654 130.471,85.923 130.274,93.169 C130.15,97.751 129.925,103.263 129.774,105.418 L129.5,109.336 L134.647,109.42 C138.303,109.479 140.433,110.082 142.001,111.501 C144.017,113.326 144.153,114.108 143.562,120.5 C142.892,127.742 139.322,137.887 135.298,143.982 C134.034,145.897 133,148.233 133,149.173 C133,150.113 132.547,151.162 131.993,151.505 C130.88,152.192 127,159.822 127,161.323 C127,161.844 128.121,163.309 129.49,164.579 C131,165.978 131.744,167.503 131.38,168.452 C130.547,170.623 126.113,171.551 123.718,170.056 C121.939,168.945 121.155,169.463 116.007,175.16 C108.796,183.139 107.794,184.084 100.671,189.621 C94.836,194.157 88.865,196.208 87.574,194.12 C87.186,193.492 91.429,188.511 97.447,182.53 C103.251,176.76 108,171.551 108,170.953 C108,170.356 109.125,168.392 110.5,166.589 C111.875,164.786 113,162.844 113,162.272 C113,160.194 98.657,150.523 94.085,149.519 C91.8,149.017 90.431,147.806 89.017,145.034 C87.159,141.39 87.153,141.172 88.869,139.619 C91.116,137.585 96.355,137.517 98,139.5 C98.685,140.325 99.883,141 100.663,141 C102.754,141 108,136.85 108,135.196 C108,134.411 109.517,131.683 111.371,129.134 C113.224,126.585 115.469,123.071 116.358,121.324 C119.048,116.039 121.297,100.446 120.6,91.907 C120.012,84.713 120.098,84.258 122.24,83.225 Z M141.655,25.829 C144.735,22.425 149.983,24.071 150.015,28.45 C150.042,32.129 152.769,38.492 154.465,38.835 C155.376,39.019 157.625,38.457 159.462,37.585 C164.935,34.988 169.404,35.503 172.411,39.077 C175.308,42.52 175.464,43.74 173.919,50.942 C173.064,54.928 171.98,56.717 168.739,59.491 C162.14,65.14 155.737,63.19 161.181,57.19 C162.524,55.711 164.181,53.19 164.864,51.588 C165.904,49.146 165.855,48.427 164.559,47.131 C163.353,45.924 162.75,45.85 161.807,46.793 C161.143,47.457 159.845,48 158.922,48 C158,48 156.653,48.713 155.929,49.585 C155.205,50.457 152.898,51.857 150.802,52.696 C146.464,54.432 134.153,67.051 131.647,72.331 C130.699,74.33 128.772,76.266 127.003,76.999 C124.284,78.125 123.588,77.993 120.111,75.692 C117.983,74.284 113.6,70.178 110.371,66.567 C107.142,62.956 103.713,60.001 102.75,60.001 C101.787,60 100.073,59.073 98.94,57.94 L96.88,55.88 L100.635,52.44 C102.701,50.548 104.691,49 105.058,49 C106.453,49 113.657,55.356 117.336,59.832 C119.446,62.399 121.578,64.922 122.073,65.437 C123.059,66.462 128,62.406 128,60.57 C128,58.901 135.473,51.358 139.887,48.571 C142.062,47.198 144.125,45.181 144.472,44.087 C145.102,42.103 142.914,36.683 141.007,35.504 C139.397,34.509 139.844,27.83 141.655,25.829 Z M53.947,57.075 C52.138,59.614 51.886,60.878 52.499,64.325 C52.907,66.621 53.524,74.108 53.87,80.962 L54.5,93.424 L57.658,94.067 C59.394,94.42 62.06,95.688 63.58,96.885 C67.033,99.601 67.997,98.365 66.92,92.601 C66.484,90.267 65.878,84.38 65.574,79.519 C64.862,68.143 60.653,54 57.979,54 C56.966,54 55.151,55.384 53.947,57.075 Z M128.174,126.314 C126.978,127.587 126,128.969 126,129.385 C126,129.801 124.229,132.247 122.064,134.821 C119.899,137.394 117.65,140.625 117.066,142 C116.482,143.375 115.462,145.258 114.799,146.185 C113.847,147.514 113.882,148.412 114.965,150.435 C117.811,155.753 120.838,152.695 128.263,137 C132.557,127.923 133.593,124 131.693,124 C130.954,124 129.37,125.042 128.174,126.314 Z M54.921,106.25 C54.877,106.388 54.651,109.875 54.417,114 C54.183,118.125 53.493,123.662 52.883,126.304 C51.015,134.401 54.182,134.136 58.377,125.844 C61.45,119.771 62.762,117.533 65.25,114.127 C67.816,110.613 67.461,109 64.122,109 C62.54,109 60.685,108.325 60,107.5 C58.978,106.269 55.209,105.341 54.921,106.25 Z M66,103 C66,103.55 66.45,104 67,104 C67.55,104 68,103.55 68,103 C68,102.45 67.55,102 67,102 C66.45,102 66,102.45 66,103 Z"/>
</svg>

