<svg xmlns="http://www.w3.org/2000/svg" width="300" height="300" viewBox="0 0 300 300" version="1.1">
  <defs/>
  <path d="M152.42,120.265 C155.987,118.146 158.454,119.043 160.629,123.25 C162.085,126.066 162.051,126.44 160.093,129.089 C157.93,132.014 157.119,140.338 158.891,141.432 C159.876,142.041 170.999,133.754 172.287,131.451 C172.734,130.653 174.406,130 176.003,130 C178.339,130 179.231,130.685 180.569,133.504 C182.2,136.942 182.182,137.073 179.565,140.504 C178.098,142.427 176.022,144 174.951,144 C173.881,144 170.812,145.575 168.133,147.5 C165.453,149.425 162.828,151 162.3,151 C160.926,151 158.985,155.059 158.951,158 C158.936,159.375 159.335,167.228 159.839,175.451 C160.343,183.674 160.527,192.111 160.246,194.201 C159.808,197.464 160.009,198 161.668,198 C162.731,198 164.107,197.493 164.726,196.874 C167.309,194.291 186.924,196.528 191.5,199.927 C192.05,200.335 195.65,201.466 199.5,202.439 C207.632,204.495 213.083,206.162 214.5,207.028 C215.05,207.365 217.525,208.212 220,208.911 C227.672,211.079 238.975,215.847 252,222.409 C266.302,229.614 268.286,231.938 264.014,236.485 C262.714,237.868 260.893,239 259.965,239 C258.351,239 251.042,234.581 250,232.976 C249.191,231.728 239.839,227 238.18,227 C237.343,227 235.788,226.213 234.724,225.25 C233.661,224.288 229.8,222.751 226.145,221.834 C222.49,220.917 218.15,219.716 216.5,219.164 C204.057,215.004 199.757,213.616 194.5,212.067 C191.2,211.094 185.874,209.114 182.665,207.666 C177.29,205.242 162.219,202.447 161.016,203.652 C160.732,203.935 160.5,215.132 160.5,228.533 C160.5,246.692 160.182,253.217 159.25,254.149 C158.563,254.837 158,256.073 158,256.895 C158,258.777 153.074,264 151.299,264 C150.57,264 149.104,264.543 148.042,265.206 C146.458,266.195 145.756,266.089 144.123,264.612 C141.867,262.57 142.221,260.685 145.554,257 C150.072,252.002 150.924,247.963 151.098,230.706 C151.349,205.879 150.952,198 149.452,198 C148.745,198 145.701,201.488 142.687,205.75 C139.673,210.012 134.003,216.425 130.087,220 C126.171,223.575 119.712,229.515 115.734,233.2 C106.84,241.438 104.586,243.137 99.5,245.438 C97.3,246.434 94.6,248.037 93.5,249.001 C90.375,251.739 84.197,252.489 81.9,250.409 C80.855,249.464 80,247.968 80,247.086 C80,245.242 83.625,242.65 85.008,243.505 C86.286,244.295 93.016,240.916 97.654,237.156 C99.769,235.442 103.525,232.422 106,230.447 C112.019,225.643 126,211.867 126,210.74 C126,209.858 132.355,201.144 140.75,190.516 C143.088,187.556 145,184.687 145,184.14 C145,183.593 146.053,182.317 147.34,181.304 C151.652,177.913 152.058,161 147.828,161 C145.318,161 133.149,169.322 130.178,173.07 C128.781,174.832 126.91,176 125.487,176 C124.184,176 122.84,176.45 122.5,177 C121.319,178.911 119.042,177.982 117.474,174.95 C115.609,171.342 116.33,168.246 119.336,166.959 C120.526,166.449 126,162.839 131.5,158.938 C137,155.036 143.01,151.178 144.855,150.364 C148.151,148.911 148.198,148.803 147.511,144.193 C146.671,138.545 145.783,137.331 141.867,136.471 C138.115,135.647 136.492,132.465 137.916,128.722 C138.623,126.863 139.671,125.999 141.225,125.996 C142.476,125.994 145.039,124.982 146.92,123.746 C148.8,122.511 151.275,120.944 152.42,120.265 Z M146.328,12.588 C146.818,11.311 147.926,10.957 150.711,11.189 C154.442,11.5 154.778,11.857 157.948,18.884 C158.291,19.646 160.581,21.051 163.036,22.007 C169.085,24.363 169.587,27.637 164.603,32.241 C162.116,34.539 160.89,36.686 160.447,39.521 C159.843,43.381 159.962,43.611 163.409,45.255 C166.029,46.505 167,47.604 167,49.323 C167,52.324 162.164,58.804 159.347,59.577 C156.878,60.255 151.616,68.182 150.735,72.551 C150.408,74.173 149.835,76.287 149.463,77.25 C148.972,78.519 149.28,79 150.584,79 C152.746,79 170.132,61.587 172.117,57.433 C173.77,53.975 177.422,53.022 178.801,55.689 C179.316,56.685 180.043,59.199 180.418,61.275 C181.083,64.957 180.905,65.245 173.157,73.025 C168.788,77.411 164.828,81.009 164.357,81.019 C163.886,81.03 161.7,82.648 159.5,84.616 C157.3,86.584 154.15,88.788 152.5,89.515 C146.578,92.123 143.552,96.794 136.961,113.5 C135.659,116.8 134.105,120.175 133.508,121 C132.91,121.825 131.609,124.3 130.617,126.5 C128.402,131.411 121.173,142.219 119.399,143.272 C118.684,143.697 117.514,144.615 116.799,145.313 C113.832,148.211 110.388,150 107.777,150 C105.362,150 105,149.611 105,147.019 C105,144.71 105.539,143.903 107.39,143.438 C110.998,142.533 114.331,138.443 119.563,128.5 C124.362,119.379 130,106.543 130,104.737 C130,103.356 124.007,104.683 121.987,106.512 C120.007,108.304 115.857,108.457 114.2,106.8 C111.413,104.013 114.443,98 118.635,98 C120.538,98 133.395,90.281 135.657,87.781 C137.576,85.659 139.41,80.523 140.722,73.598 C141.217,70.982 141.05,70.754 139.029,71.282 C137.795,71.605 135.709,71.46 134.393,70.959 C132.324,70.173 132,69.394 132,65.212 C132,61.18 132.483,59.912 134.898,57.597 C137.736,54.878 137.852,54.857 140.45,56.559 C141.995,57.572 143.455,57.922 143.946,57.399 C145.035,56.238 147,46.808 146.366,45.783 C145.583,44.516 143.342,44.883 142,46.5 C141.315,47.325 139.451,48 137.856,48 C131.962,48 131.953,39.326 137.844,36.39 C139.134,35.747 141.849,33.6 143.878,31.619 L147.568,28.016 L146.62,21.157 C146.099,17.384 145.967,13.528 146.328,12.588 Z M62.872,127.654 C63.627,126.744 65.524,126 67.087,126 C70.487,126 72.159,128.562 71.842,133.281 C71.337,140.769 74.9,140.846 81.911,133.5 C84.798,130.475 87.542,128 88.009,128 C89.865,128 92,131.309 92,134.186 C92,137.558 87.365,142.42 78.75,148.085 C75.759,150.052 74,151.935 74,153.17 C74,154.249 73.6,155.889 73.112,156.816 C71.605,159.672 71.263,174 72.701,174 C74.046,174 82.241,168.583 85.183,165.75 C87.585,163.436 90.271,163.537 92.521,166.024 C93.925,167.575 94.078,168.322 93.176,169.224 C92.529,169.871 91.986,171.322 91.968,172.45 C91.927,175.106 89.956,177.652 86.919,178.973 C83.457,180.478 77.833,183.902 75.5,185.923 C72.024,188.935 58.589,197.678 56.339,198.392 C55.152,198.769 53.635,199.735 52.968,200.539 C52.301,201.342 50.91,202 49.878,202 C48.845,202 48,202.481 48,203.07 C48,203.658 46.988,203.995 45.751,203.82 C44.005,203.571 43.305,202.562 42.621,199.309 C41.469,193.827 42.139,192.384 46.19,191.624 C51.587,190.612 58.238,183.475 60.365,176.415 C62.572,169.088 62.286,160.667 59.814,160.198 C58.887,160.022 55.91,161.404 53.198,163.27 C50.487,165.135 45.554,167.423 42.238,168.353 C38.921,169.284 35.656,170.71 34.981,171.523 C34.268,172.382 32.056,173 29.692,173 C24.717,173 21,169.947 21,165.861 C21,162.444 23.376,161 28.996,161 C33.351,161 42.653,158.371 43.574,156.88 C43.873,156.396 45.126,156 46.359,156 C47.592,156 49.158,155.438 49.839,154.75 C50.521,154.063 53.423,152.375 56.289,151 L61.5,148.5 L61.5,138.904 C61.5,132.24 61.919,128.802 62.872,127.654 Z M79.039,52.458 C81.97,49.339 84.931,49.602 86.92,53.157 C88.954,56.794 87.338,60.098 81.518,64.201 C78.635,66.233 77,68.136 77,69.46 C77,70.602 75.875,73.191 74.5,75.215 C73.125,77.238 72,80.005 72,81.364 C72,82.722 71.538,83.987 70.973,84.176 C70.408,84.364 69.332,86.764 68.58,89.509 C67.229,94.447 65.626,98.208 61.977,105 C60.092,108.507 59.38,113 60.708,113 C61.735,113 69,105.752 69,104.727 C69,102.912 75.285,94.827 77.469,93.832 C80.4,92.497 85.64,94.844 89.567,99.252 C91.742,101.694 92.417,103.542 92.64,107.675 C92.939,113.218 91.659,115 87.38,115 C84.8,115 81,111.006 81,108.294 C81,106.998 80.267,105.656 79.372,105.313 C77.275,104.508 74.505,108.103 72.798,113.847 C72.087,116.238 70.752,118.597 69.831,119.09 C68.91,119.583 67.558,120.552 66.828,121.243 C64.74,123.219 58.337,125.922 54.166,126.589 C50.842,127.121 50.147,126.873 48.68,124.634 C47.756,123.224 47.007,120.817 47.015,119.285 C47.033,115.665 49.587,108.389 52.054,104.924 C53.124,103.421 54,101.43 54,100.5 C54,99.57 54.648,97.614 55.441,96.154 C56.858,93.543 61.16,82.577 62.432,78.334 C63.111,76.07 61.599,74.221 60.51,75.984 C60.165,76.543 58.896,77.007 57.691,77.015 C56.486,77.023 53.721,77.649 51.547,78.406 C46.448,80.18 45.372,79.68 44.644,75.196 C44.148,72.136 44.459,71.13 46.48,69.256 C47.818,68.015 49.532,67 50.29,67 C51.047,67 51.956,66.71 52.31,66.356 C53.211,65.455 64.26,61.01 65.612,61.005 C66.224,61.002 68.424,59.65 70.5,58 C72.576,56.35 74.81,55 75.463,55 C76.117,55 77.726,53.856 79.039,52.458 Z M163.5,100.357 C166.25,99.886 176.15,99.531 185.5,99.57 C204.924,99.65 208.564,100.538 207.506,104.938 C206.77,108 204.401,110 201.509,110 C200.349,110 198.917,110.483 198.327,111.073 C197.563,111.837 196.05,111.821 193.075,111.02 C190.776,110.401 182.35,109.686 174.349,109.43 C166.349,109.174 158.947,108.507 157.902,107.947 C155.766,106.805 155.289,102.143 157.25,101.576 C157.938,101.377 160.75,100.829 163.5,100.357 Z"/>
</svg>

