<svg xmlns="http://www.w3.org/2000/svg" width="300" height="300" viewBox="0 0 300 300" version="1.1">
  <defs/>
  <path d="M99.861,72.915 C102.553,70.731 102.983,70.663 106.24,71.901 C108.6,72.798 108.609,72.866 108.318,86.937 C108.072,98.785 108.268,101.166 109.53,101.65 C110.864,102.162 117.653,99.822 132,93.906 C139.898,90.649 143.197,90.516 145.857,93.348 C150.412,98.197 146.267,102.254 135.696,103.295 C132.436,103.616 128.271,104.826 126.196,106.055 C124.163,107.259 120.424,108.863 117.888,109.62 C111.412,111.552 108.235,114.373 106.982,119.304 C106.396,121.612 105.511,124.4 105.016,125.5 C104.521,126.6 103.221,131.174 102.127,135.665 C101.034,140.156 99.496,145.106 98.71,146.665 C97.924,148.224 96.962,150.823 96.573,152.441 C96.185,154.058 94.546,157.048 92.933,159.084 C91.32,161.121 90,163.755 90,164.936 C90,167.154 89.11,168.564 85.25,172.459 C82.309,175.427 82.409,176.563 85.923,180.077 C89.725,183.879 92,183.903 92,180.141 C92,173.187 108.156,161.43 117.436,161.629 C125.213,161.797 128.33,163.202 130.5,167.52 C133.66,173.809 133.19,181.282 129.224,187.794 C127.451,190.706 126,193.464 126,193.923 C126,194.905 119.423,205.977 117.987,207.413 C115.231,210.169 117.274,210.642 132.491,210.766 C145.704,210.874 148.347,211.158 150.466,212.696 C153.879,215.175 154.419,217.431 152.353,220.584 C150.617,223.233 150.525,223.251 143.05,222.429 C131.744,221.185 111.968,221.859 109.285,223.579 C108.067,224.361 106.492,225.014 105.785,225.031 C105.078,225.048 102.25,226.169 99.5,227.522 C93.123,230.659 90.474,230.652 88.404,227.494 C87.011,225.368 86.953,224.527 88.022,221.947 C88.715,220.274 90.568,218.24 92.141,217.427 C95.498,215.691 95.753,213.991 93.026,211.523 C91.94,210.54 90.773,208.783 90.433,207.618 C90.094,206.453 88.401,202.629 86.671,199.119 C83.357,192.394 74.821,183.634 69.813,181.821 C68.007,181.167 66.912,179.875 66.474,177.883 C65.602,173.91 67.386,172 71.967,172 C76.359,172 77.836,170.602 81.475,163 C82.923,159.975 84.476,156.81 84.927,155.967 C85.377,155.124 86.063,152.992 86.45,151.229 C86.837,149.466 87.569,147.766 88.077,147.452 C88.585,147.139 89,146.131 89,145.212 C89,144.294 90.057,140.608 91.349,137.021 C96.117,123.788 96.34,122.828 94.865,121.917 C94.043,121.408 92.725,121.658 91.506,122.554 C90.403,123.365 88.825,124.282 88,124.593 C83.027,126.464 75.755,129.667 70.887,132.13 C67.8,133.693 62.4,135.705 58.887,136.602 C55.374,137.5 51.36,139.043 49.966,140.031 C46.47,142.511 40.371,143.552 38.489,141.991 C36.644,140.46 36.545,135.598 38.323,133.821 C39.05,133.095 44.338,130.971 50.073,129.103 C63.21,124.823 65.588,123.846 76.677,118.176 C77.679,117.663 82.42,115.393 87.21,113.131 C92.001,110.869 96.382,108.155 96.947,107.1 C97.552,105.969 97.876,98.955 97.737,90.006 C97.505,75.131 97.547,74.793 99.861,72.915 Z M112.806,173.82 C110.065,174.92 94,188.017 94,189.152 C94,189.724 94.64,191.386 95.423,192.846 C98.839,199.219 101,204.826 101,207.316 C101,208.792 101.359,210 101.797,210 C102.866,210 112.711,197.585 115.212,193.084 C116.307,191.113 117.898,188.717 118.747,187.76 C120.798,185.45 121.648,176.486 120.004,174.505 C118.704,172.938 115.713,172.654 112.806,173.82 Z M106.269,51.5 C107.974,49.575 109.872,48 110.488,48 C112.57,48 118.28,54.737 117.402,56.158 C115.522,59.201 111.575,63 110.295,63 C109.539,63 107.251,63.837 105.21,64.86 C103.17,65.882 98.291,67.006 94.369,67.356 C86.487,68.059 85.458,67.538 84.413,62.315 C83.888,59.691 84.167,59.192 86.657,58.295 C90.789,56.805 98.701,55 101.1,55 C102.239,55 104.565,53.425 106.269,51.5 Z"/>
</svg>

