<svg xmlns="http://www.w3.org/2000/svg" width="300" height="300" viewBox="0 0 300 300" version="1.1">
  <defs/>
  <path d="M107.993,90.508 C109.664,88.496 112.35,88.601 114.18,90.75 C116.985,94.044 118.128,98.726 118.247,107.415 C118.312,112.196 118.756,116.349 119.233,116.644 C120.312,117.311 124.712,115.096 132.5,109.965 C141.07,104.319 142.553,103.671 145.316,104.364 C148.464,105.154 149.175,107.075 147.735,110.891 C146.878,113.163 145.035,114.693 140.422,116.964 C137.03,118.634 133.795,120 133.234,120 C132.673,120 131.95,120.687 131.628,121.526 C131.306,122.366 128.961,123.945 126.418,125.035 C119.494,128.003 116.594,130.675 115.788,134.831 C113.765,145.264 112.828,152.162 113.362,152.696 C113.691,153.024 115.765,152.098 117.972,150.637 C123.47,146.999 130.264,144.842 136.403,144.787 C140.482,144.751 142.617,145.398 146.697,147.909 C150.928,150.512 152.469,152.304 155.345,157.965 C160.286,167.691 161.605,176.579 160.33,191.546 C159.71,198.824 158.873,203.542 158.16,203.78 C157.522,203.993 157,205.49 157,207.108 C157,208.726 156.061,212.626 154.913,215.775 C153.764,218.924 152.57,222.4 152.258,223.5 C151.945,224.6 150.474,227.075 148.988,229 C147.502,230.925 145.496,234.188 144.529,236.25 C143.563,238.313 142.367,240 141.871,240 C140.588,240 137.008,246.145 137.004,248.356 C137,249.972 134.08,254.406 130.979,257.5 C124.401,264.065 124.072,264.238 119.496,263.552 C115.771,262.993 114.326,262.052 110.528,257.71 C108.037,254.863 106,251.759 106,250.812 C106,249.864 104.875,247.431 103.5,245.405 C102.125,243.379 100.992,240.996 100.983,240.11 C100.974,239.225 99.399,235.35 97.484,231.5 C94.056,224.609 93.409,221.704 94.607,218.582 C96.111,214.662 100.453,218.472 104.415,227.186 C105.837,230.313 107,233.184 107,233.565 C107,233.946 108.575,236.001 110.5,238.132 C112.425,240.262 114,242.686 114,243.516 C114,244.347 114.417,245.809 114.927,246.764 C115.437,247.719 116.102,249.298 116.404,250.273 C116.707,251.248 117.721,252.339 118.657,252.699 C121.799,253.904 130.719,242.196 139.76,225 C148.45,208.472 151.724,193.066 150.024,176.706 C149.464,171.319 148.346,165.635 147.539,164.075 C145.722,160.563 140.418,155.996 138.173,156.012 C131.414,156.06 112.292,165.041 107.739,170.307 C106.221,172.063 104.235,175.075 103.327,177 C102.418,178.925 100.679,181.625 99.46,183 C98.242,184.375 96.491,187.828 95.568,190.673 C94.368,194.372 92.642,196.937 89.511,199.673 C79.332,208.568 76.943,209.529 74.607,205.671 C73.677,204.134 74.095,203.322 77.231,200.581 C81.682,196.692 89.709,185.024 91.599,179.699 C92.34,177.608 93.594,174.683 94.385,173.199 C95.176,171.714 96.38,168.925 97.061,167 C97.743,165.075 98.841,162.15 99.502,160.5 C101.11,156.483 102.714,149.636 103.586,143.062 C104.231,138.202 104.131,137.736 102.569,138.335 C101.616,138.701 100.008,139 98.995,139 C97.982,139 95.847,140.1 94.249,141.444 C91.649,143.632 82.314,147.736 74.682,150.046 C70.559,151.294 67.312,149.695 66.504,146.019 C65.636,142.066 67.068,140.325 72.369,138.892 C80.025,136.823 88.62,133.197 109.94,123.043 C112.13,122 112.333,120.211 110.305,119.819 C108.732,119.514 108.49,118.316 108.424,110.485 C108.382,105.543 107.987,99.366 107.545,96.758 C106.976,93.399 107.107,91.576 107.993,90.508 Z M127.586,27.25 C128.437,25.939 130.056,25 131.466,25 C134.193,25 137.14,28.473 136.291,30.685 C135.839,31.861 136.414,32.013 139.28,31.475 C142.262,30.916 143.01,31.15 143.969,32.943 C145.502,35.807 144.491,38.514 140.945,41.039 C136.041,44.531 133.377,50.485 132.012,61 C130.682,71.258 128.616,78.665 126.46,80.912 C125.302,82.119 124.921,81.922 123.844,79.557 C122.803,77.273 122.838,76.33 124.042,74.145 C126.026,70.545 125.496,57.127 123.336,56.299 C122.514,55.983 119.915,56.687 117.561,57.862 C115.207,59.038 112.778,60 112.164,60 C110.17,60 108.251,64.366 107.591,70.402 C107.09,74.996 106.149,77.391 103.352,81.202 C99.072,87.032 96.378,87.347 96.723,81.977 C96.846,80.065 97.232,76.321 97.581,73.658 C98.369,67.652 97.142,66.022 93.587,68.351 C89.961,70.727 88.258,70.4 86.495,66.991 C84.773,63.66 85.841,60 88.535,60 C89.341,60 90,59.599 90,59.108 C90,58.618 91.118,57.936 92.485,57.593 C94.032,57.205 95.209,56.017 95.603,54.444 C96.183,52.133 95.758,49.665 92.895,38.729 C91.696,34.152 92.287,33 95.837,33 C100.024,33 102.738,35.487 103.505,40.029 C104.442,45.573 106.81,50.004 108.823,49.978 C111.024,49.949 117.947,46.616 120.581,44.316 C121.733,43.31 123.434,39.601 124.394,36 C125.346,32.425 126.783,28.488 127.586,27.25 Z"/>
</svg>

