<svg xmlns="http://www.w3.org/2000/svg" width="300" height="300" viewBox="0 0 300 300" version="1.1">
  <defs/>
  <path d="M54.2,76.2 C54.86,75.54 56.425,75 57.677,75 C61.819,75 64.737,82.188 65.305,93.795 C65.538,98.566 66.184,101.613 67.171,102.6 C68.517,103.945 69.142,103.723 72.943,100.548 C81.044,93.78 86.114,94.64 87.926,103.091 C89.215,109.1 90.524,128.018 90.188,135.774 C90.017,139.721 90.342,141.194 91.48,141.631 C93.303,142.33 94.288,141.879 99.5,137.952 C107.871,131.646 107.899,131.633 110.541,132.837 C112.372,133.671 113,134.737 113,137.014 C113,141.344 110.622,144.439 105.728,146.478 C97.936,149.724 96.841,150.414 94.695,153.429 C92.055,157.136 91.896,160.198 93.527,176 C94.237,182.875 94.854,192.775 94.898,198 C94.942,203.225 95.199,211.76 95.468,216.967 C95.944,226.168 95.882,226.513 93.292,229.217 C91.825,230.748 89.848,232 88.897,232 C85.823,232 76.094,220.163 74.55,214.544 C72.187,205.94 71.693,197.5 73.467,196.027 C75.626,194.236 77.762,196.217 78.624,200.808 C79.442,205.172 83.828,215 84.957,215 C86.656,215 86.803,209.023 85.43,195.823 C84.647,188.3 84.226,181.55 84.493,180.823 C84.76,180.095 84.523,178.825 83.966,178 C83.114,176.739 82.559,176.978 80.481,179.5 C79.122,181.15 78.008,182.921 78.005,183.436 C77.998,184.813 73.841,189 72.481,189 C70.289,189 67.843,185.238 68.175,182.378 C68.413,180.331 70.382,178.004 75.5,173.721 C80.043,169.92 82.611,167.009 82.817,165.427 C83.191,162.548 80.554,161.093 78.114,162.832 C77.226,163.465 74.303,165.149 71.619,166.574 C63.028,171.137 62.864,171.459 60.962,187.5 C60.44,191.9 59.56,196.805 59.006,198.399 C58.453,199.994 58,202.867 58,204.783 C58,208.578 56.161,215.931 54.831,217.45 C54.374,217.973 54,219.345 54,220.5 C54,225.013 48.742,226.583 45.527,223.03 C43.812,221.135 43.828,220.851 45.947,215.631 C47.159,212.646 48.273,208.649 48.424,206.75 C48.575,204.852 49.048,202.731 49.477,202.037 C49.905,201.344 50.62,197.789 51.065,194.138 C51.51,190.487 52.19,185.137 52.576,182.25 C53.256,177.171 53.2,177 50.862,177 C49.532,177 47.674,177.9 46.732,179 C45.79,180.1 44.115,181 43.01,181 C40.72,181 37,177.679 37,175.635 C37,173.52 40.95,169.003 42.823,168.977 C43.745,168.964 46.748,167.726 49.496,166.225 C55.408,162.996 55.48,162.752 56.711,141.5 C57.623,125.77 56.706,105.762 54.484,92.914 C52.687,82.515 52.606,77.794 54.2,76.2 Z M139,119.967 C139.825,119.436 141.175,119.12 142,119.263 C144.081,119.625 146.744,128.522 147.191,136.606 C147.396,140.318 147.999,143.486 148.532,143.648 C149.064,143.809 150.625,142.364 152,140.437 C157.137,133.239 164.604,132.273 174.724,137.499 C182.206,141.362 186.075,146.169 189.184,155.466 C191.228,161.576 191.523,180.622 189.944,204.517 C188.658,223.977 186.466,238.803 184.033,244.5 C181.891,249.514 181.223,251.302 179.621,256.306 C177.225,263.793 171.342,269.908 166.5,269.944 C162.725,269.972 140.799,244.866 137.874,237.166 C137.317,235.7 135.317,232.174 133.43,229.331 C129.728,223.751 129.172,221.255 131.439,220.385 C134.155,219.343 136.226,221.423 145.49,234.5 C147.438,237.25 152.604,243.325 156.97,248 C165.465,257.096 166.548,257.442 169.482,252 C176.82,238.392 179.937,218.728 180.273,183.935 C180.497,160.695 180.466,160.305 178.057,155.616 C175.349,150.344 171.741,147.319 166.404,145.846 C163.066,144.924 162.606,145.109 158.276,149.1 L153.686,153.331 L151.922,151.152 C150.952,149.954 149.983,148.45 149.77,147.81 C148.851,145.052 147,148.521 147,153 C147,155.685 146.55,158.16 146,158.5 C145.45,158.84 145,160.935 145,163.155 C145,167.286 142.671,177.122 140.956,180.236 C140.43,181.191 140,183.009 140,184.275 C140,185.541 139.151,188.242 138.113,190.278 C137.076,192.313 135.926,195.581 135.559,197.539 C135.191,199.498 133.851,203.056 132.58,205.446 C131.309,207.836 129.95,211.076 129.56,212.646 C128.118,218.457 122.308,221.908 119.2,218.8 C117.238,216.838 117.812,212.266 120.33,209.79 C122.527,207.63 129.872,186.607 133.008,173.5 C133.666,170.75 134.933,165.575 135.823,162 C136.995,157.298 137.45,150.72 137.471,138.216 C137.495,123.969 137.764,120.762 139,119.967 Z M81.625,40.284 C82.881,39.028 84.605,38 85.455,38 C87.458,38 91,41.552 91,43.56 C91,45.547 81.706,55.449 76.62,58.882 C69.055,63.986 54.488,72.937 53.695,72.968 C52.705,73.007 44.517,76.493 40.669,78.513 C35.116,81.429 30,79.508 30,74.506 C30,72.699 30.823,71.884 33.558,70.981 C37.319,69.74 52.1,62.344 60.5,57.501 C66.579,53.996 77.156,46.047 78.421,44.034 C78.927,43.228 80.369,41.54 81.625,40.284 Z M156.327,89.341 C159.666,86.575 161.679,86.399 164.171,88.655 C167.469,91.639 165.427,99 161.302,99 C160.539,99 157.467,100.808 154.476,103.018 C151.485,105.227 147.992,107.433 146.713,107.919 C145.434,108.405 143.033,109.943 141.377,111.336 C137.749,114.389 132.011,116.658 126.241,117.322 C122.724,117.727 121.727,117.448 120.518,115.722 C117.52,111.442 121.195,105 126.635,105 C130.834,105 137.746,102.36 141,99.514 C142.375,98.311 145.75,96.057 148.5,94.505 C151.25,92.952 154.772,90.628 156.327,89.341 Z M72.758,115.75 C72.099,117.263 70.533,119.491 69.28,120.702 C67.645,122.281 67,124.05 67,126.952 C67,130.867 67.109,131 70.309,131 C75.162,131 76.72,132.75 77.251,138.796 C77.619,142.994 77.315,144.601 75.785,146.546 C73.33,149.667 71.475,149.654 69.408,146.5 C66.871,142.628 65.232,143.339 65.376,148.25 C65.444,150.588 65.181,153.629 64.792,155.008 C64.402,156.388 64.46,158.126 64.92,158.87 C65.566,159.916 67.431,159.048 73.128,155.05 C77.183,152.205 80.806,149.117 81.18,148.189 C82.252,145.524 82.105,137.406 80.928,134.315 C80.338,132.767 79.673,127.761 79.45,123.19 C79.227,118.62 78.783,114.457 78.463,113.94 C77.254,111.985 73.942,113.036 72.758,115.75 Z M136.655,62.829 C140.683,58.378 144.815,62.238 147.398,72.866 C148.982,79.382 148.984,80.173 147.432,84.92 C146.284,88.429 145.235,90 144.04,90 C141.445,90 139.283,86.984 138.665,82.5 C137.68,75.36 136.791,72 135.887,72 C134.328,72 134.938,64.726 136.655,62.829 Z"/>
</svg>

