<svg xmlns="http://www.w3.org/2000/svg" width="300" height="300" viewBox="0 0 300 300" version="1.1">
  <defs/>
  <path d="M137.189,11.159 C142.778,8.309 150,9.911 150,14 C150,14.965 150.736,16.366 151.637,17.113 C152.537,17.86 154.196,20.503 155.323,22.986 C157.238,27.205 157.38,29.528 157.491,58.5 C157.556,75.55 157.698,91.412 157.805,93.75 L158,98 L162.929,98 C167.999,98 171,99.724 171,102.637 C171,107.437 164.675,111.235 160.449,108.973 C158.307,107.826 157.022,108.006 150.249,110.399 C145.987,111.904 140.7,113.563 138.5,114.086 C136.3,114.608 133.6,115.432 132.5,115.917 C130.362,116.859 130.026,116.971 114,122.084 C106.17,124.582 102.038,126.56 97.75,129.864 C94.588,132.301 92,134.69 92,135.174 C92,135.657 89.488,138.691 86.417,141.916 C83.346,145.142 79.752,149.373 78.429,151.319 C77.107,153.265 75.119,155.145 74.012,155.496 C72.906,155.847 72,156.566 72,157.093 C72,157.619 69.3,160.953 66,164.5 C62.7,168.047 59.989,171.298 59.976,171.725 C59.963,172.151 58.163,173.824 55.976,175.442 C53.789,177.06 51.997,179.085 51.993,179.942 C51.989,180.799 50.394,182.585 48.447,183.911 C46.5,185.236 43.998,187.599 42.886,189.161 C41.774,190.722 40.391,192 39.814,192 C39.236,192 37.226,193.35 35.347,195 C33.468,196.65 31.265,198 30.452,198 C29.638,198 28.131,198.526 27.101,199.169 C24.311,200.912 19,198.507 19,195.501 C19,192.757 21.187,190.751 23.295,191.56 C25.439,192.382 28.113,190.767 34.641,184.705 C44.157,175.87 79,135.971 79,133.909 C79,132.505 72.685,132.835 70.473,134.355 C67.868,136.144 56.658,139.694 51,140.521 C48.525,140.883 44.533,141.827 42.129,142.618 C39.725,143.41 37.025,143.826 36.129,143.542 C35.233,143.258 33.211,143.695 31.636,144.513 C30.06,145.331 27.767,146 26.539,146 C25.312,146 22.776,146.774 20.904,147.719 C18.999,148.681 15.167,149.452 12.202,149.469 C7.487,149.497 6.72,149.199 5.227,146.761 C3.651,144.187 3.655,143.916 5.296,142.275 C6.257,141.315 9.395,139.948 12.271,139.238 C23.615,136.436 30.608,135 32.912,135 C35.277,135 37.887,134.353 53,130.025 C67.186,125.962 76.506,122.977 79.651,121.49 C81.384,120.67 83.348,120 84.015,120 C84.682,120 86.864,119.123 88.864,118.051 C90.864,116.979 96.55,115.126 101.5,113.933 C109.355,112.041 120.932,108.644 137.134,103.478 C139.683,102.665 142.694,102 143.825,102 C147.165,102 147.55,99.87 144.66,97.384 C141.3,94.494 141.3,92.677 144.661,90.228 C147.159,88.409 147.343,87.721 147.66,79.047 C147.845,73.963 147.73,69.373 147.405,68.846 C146.794,67.858 146.354,68.22 136.901,77.502 C133.821,80.526 130.574,83 129.686,83 C127.538,83 126,79.933 126,75.65 C126,72.626 126.834,71.437 132.361,66.585 C138.955,60.795 142.606,59.615 145,62.5 C146.42,64.211 149,64.513 149,62.968 C149,62.4 148.334,60.342 147.52,58.394 C146.262,55.382 145.701,54.958 143.77,55.561 C142.522,55.951 140.612,56.884 139.527,57.635 C136.887,59.462 132.082,59.378 131.359,57.492 C131.041,56.663 131.061,54.489 131.404,52.661 C132.183,48.505 138.522,44 143.59,44 C146.972,44 147,43.963 147,39.434 C147,36.923 146.472,33.886 145.826,32.684 C145.181,31.483 144.376,29.158 144.039,27.517 C143.671,25.729 142.352,23.933 140.747,23.031 C138.327,21.673 137.784,21.696 135.124,23.268 C132.577,24.772 131.671,24.838 128.416,23.754 C126.346,23.064 124.483,21.981 124.276,21.348 C123.844,20.03 130.722,13 132.442,13 C133.066,13 135.202,12.171 137.189,11.159 Z M103.655,143.829 C105.915,141.332 107.486,141.531 109.917,144.621 C111.051,146.063 113.419,147.975 115.18,148.871 C117.03,149.812 118.77,151.697 119.303,153.337 C120.097,155.782 119.81,156.61 117.223,159.337 C114.837,161.851 114.085,163.73 113.553,168.5 C113.185,171.8 112.637,176.454 112.334,178.842 C111.655,184.202 112.964,185.892 116.199,183.832 C117.464,183.026 121.119,181.795 124.321,181.096 C127.522,180.397 132.148,178.937 134.6,177.853 C137.052,176.768 143.433,175.204 148.779,174.378 C154.126,173.551 159.85,172.284 161.5,171.561 C163.15,170.839 167.106,169.961 170.291,169.61 C179.348,168.613 181.905,171.099 178.525,177.614 C176.709,181.115 174.971,181.84 168.184,181.93 C165.261,181.968 161.886,182.528 160.684,183.174 C159.483,183.819 155.575,184.411 152,184.489 C148.425,184.566 144.6,184.977 143.5,185.401 C142.4,185.825 138.248,187.483 134.273,189.086 C130.298,190.689 126.248,192.007 125.273,192.015 C122.733,192.037 116.152,194.448 114.718,195.882 C113.031,197.569 113.283,267.431 114.983,269.48 C115.659,270.294 116.026,273.486 115.868,277.185 C115.72,280.658 115.963,287.235 116.408,291.801 L117.217,300.101 L110.859,299.801 L104.5,299.5 L104.774,296 C105.872,281.968 106.064,266.54 105.17,264.203 C103.963,261.046 102.862,240.426 102.65,217.016 C102.513,201.999 102.34,200.5 100.698,200.182 C99.707,199.99 94.757,201.436 89.698,203.396 C84.639,205.355 76.949,207.865 72.608,208.974 C68.267,210.083 64.118,211.487 63.386,212.094 C62.655,212.701 60.581,213.572 58.778,214.03 C56.975,214.487 53.25,215.531 50.5,216.349 C47.75,217.168 42.125,218.787 38,219.948 C33.875,221.109 29.096,222.791 27.381,223.686 C23.275,225.829 21.26,224.905 20.434,220.501 C19.897,217.636 20.141,216.607 21.629,215.478 C23.51,214.052 50.544,205 52.924,205 C53.624,205 55.616,204.341 57.349,203.535 C59.082,202.729 62.3,201.643 64.5,201.122 C66.7,200.6 70.975,199.196 74,198 C77.025,196.805 80.85,195.456 82.5,195.001 C84.15,194.547 87.075,193.613 89,192.924 C90.925,192.236 94.457,190.994 96.848,190.163 C99.239,189.333 101.429,188.047 101.713,187.305 C101.998,186.563 101.913,182.561 101.524,178.411 C100.58,168.334 99.322,167.97 89.042,174.796 C84.012,178.137 80.733,177.442 79.584,172.794 C78.773,169.511 78.944,168.853 81.084,167.019 C82.413,165.88 86.2,163.561 89.5,161.864 C99.932,156.501 102,154.501 102,149.778 C102,147.347 102.679,144.908 103.655,143.829 Z M90.908,15.625 C91.053,14.251 97.369,15.851 98.667,17.591 C99.309,18.451 100.138,21.37 100.511,24.077 C101.304,29.848 102.881,30.38 106.039,25.945 C107.514,23.873 108.902,22.987 110.347,23.195 C113.414,23.634 113.583,26.772 110.705,29.849 C109.341,31.307 107.94,33.444 107.593,34.598 C107.246,35.752 105.845,37.205 104.481,37.827 C101.635,39.123 101.094,43.378 103.377,46.501 C104.705,48.318 104.868,48.289 107.954,45.692 C112.053,42.243 116.268,42.177 119.601,45.51 C122.022,47.932 122.093,48.364 121.6,57.843 C120.783,73.578 119.856,81.357 118.542,83.5 C117.868,84.6 117.016,86.722 116.648,88.215 C115.723,91.973 110.157,100 108.476,100 C106.032,100 102,97.721 102,96.339 C102,94.742 99.618,94.599 96.934,96.035 C95.686,96.703 95,98.128 95,100.05 C95,102.028 93.888,104.242 91.694,106.637 C88.78,109.816 88.008,110.161 85.184,109.54 C80.967,108.614 79,106.517 79,102.948 C79,100.75 79.56,99.898 81.288,99.464 C84.022,98.778 87,92.567 87,87.552 C87,85.663 87.391,83.876 87.869,83.581 C88.347,83.286 89.055,79.407 89.443,74.962 C89.929,69.391 90.591,66.71 91.574,66.333 C93.288,65.675 93.444,62.844 91.853,61.253 C91.057,60.457 90.722,53.436 90.76,38.303 C90.791,26.311 90.857,16.106 90.908,15.625 Z M63.322,10.75 C64.124,8.469 69.689,8.409 72.171,10.655 C75.342,13.525 74.432,16.492 69.099,20.665 C66.404,22.774 62.707,25.4 60.885,26.5 C52.608,31.495 52.494,31.607 52.707,34.595 C53.066,39.624 54.091,45.424 54.989,47.5 C55.812,49.404 56.215,52.088 57.651,65.25 C58.056,68.964 58.736,71 59.572,71 C60.961,71 61.51,69.661 62.569,63.693 C63.44,58.781 66.952,56.201 70.541,57.837 C74.368,59.58 73.808,64.066 68.849,71.379 C66.567,74.745 64.151,77.827 63.481,78.226 C61.833,79.209 59.554,84.887 60.448,85.781 C60.843,86.176 62.498,84.924 64.128,82.999 C75.006,70.148 77,68.672 77,73.47 C77,76.109 74.307,81.502 70.4,86.683 C69.08,88.434 68,90.655 68,91.619 C68,92.583 66.229,95.472 64.064,98.039 C60.353,102.44 60.088,103.197 59.431,111.293 C58.815,118.895 58.418,120.183 55.975,122.524 C50.241,128.017 46.205,123.943 49.421,115.906 C52.098,109.215 50.932,83.745 46.806,58.8 C46.192,55.085 45.981,48.758 46.332,44.599 C46.712,40.1 46.577,36.857 45.995,36.497 C44.4,35.511 36.771,39.407 32.607,43.335 C30.469,45.351 28.198,47 27.56,47 C24.171,47 22.652,40.364 25.5,38 C26.325,37.315 27,36.158 27,35.428 C27,33.361 32.82,29.423 40.5,26.293 C44.35,24.724 49.404,22.216 51.73,20.72 C54.057,19.224 56.335,18 56.793,18 C57.955,18 62.578,12.867 63.322,10.75 Z M108.25,130.506 C112.468,128.542 117.173,127.103 119.5,127.065 C125.691,126.964 142.92,130.877 148.124,133.565 C149.567,134.311 154.517,135.889 159.124,137.072 C166.391,138.939 174.571,142.024 180.127,144.994 C181.022,145.472 183.355,146.164 185.312,146.531 C187.268,146.898 189.622,148.03 190.542,149.047 C192.108,150.777 192.096,151.138 190.357,154.697 C188.511,158.476 188.464,158.499 182.704,158.381 C178.275,158.29 176.373,157.759 174.639,156.131 C173.392,154.959 171.628,154 170.721,154 C169.813,154 168.618,153.155 168.065,152.122 C167.513,151.09 166.034,150.002 164.78,149.704 C162.579,149.183 160.892,148.57 149,143.969 C145.975,142.799 141.925,141.38 140,140.817 C138.075,140.253 136.008,139.392 135.406,138.903 C134.129,137.866 107.177,136.052 103.496,136.756 C101.638,137.111 101,136.805 101,135.557 C101,134.454 103.477,132.728 108.25,130.506 Z M105.694,60.509 C104.151,61.879 102.104,63 101.144,63 C97.969,63 97.099,64.891 98.75,68.201 C99.885,70.475 100.106,72.948 99.632,78.046 C99.022,84.609 99.098,84.932 101.73,87.002 L104.46,89.15 L106.23,86.964 C107.204,85.762 108,83.343 108,81.589 C108,79.835 108.546,77.854 109.212,77.188 C109.879,76.521 110.756,72.943 111.161,69.238 C111.566,65.532 112.033,61.6 112.199,60.5 C112.646,57.529 109.045,57.534 105.694,60.509 Z"/>
</svg>

