<svg xmlns="http://www.w3.org/2000/svg" width="300" height="300" viewBox="0 0 300 300" version="1.1">
  <defs/>
  <path d="M102.203,74.256 C103.635,72.531 104.962,72.679 108.75,74.989 C112.403,77.216 112.823,79.508 110.428,84.14 C108.484,87.899 109.179,90 112.368,90 C114.992,90 120.014,93.14 132.391,102.52 C136.732,105.809 141.136,109 142.179,109.611 C143.222,110.222 145.071,111.601 146.287,112.676 C148.311,114.464 151.713,116.89 155.882,119.52 C156.772,120.082 159.457,121.882 161.848,123.52 C164.239,125.159 170.587,129.2 175.955,132.5 C191.911,142.31 196,145.704 196,149.139 C196,153.94 192.113,157 186.014,157 C180.401,157 178.717,155.284 180.9,151.789 C181.834,150.293 181.843,149.515 180.936,148.423 C179.35,146.512 167.369,138 166.265,138 C165.783,138 163.839,136.836 161.944,135.414 C160.05,133.991 157.478,132.424 156.23,131.931 C154.981,131.438 151.565,129.226 148.639,127.017 C145.712,124.808 142.852,123 142.282,123 C141.711,123 140.662,122.297 139.949,121.438 C139.236,120.579 136.171,118.229 133.138,116.216 C130.104,114.202 124.681,110.144 121.085,107.197 C117.49,104.249 113.075,101.222 111.274,100.47 C109.473,99.718 108,98.404 108,97.551 C108,94.788 104.103,95.739 103.365,98.683 C102.54,101.969 101.384,104.186 97.462,110 C95.793,112.475 93.119,117.2 91.52,120.5 C89.921,123.8 86.9,129.119 84.806,132.321 C82.713,135.522 81,138.49 81,138.916 C81,139.342 80.1,140.505 79,141.5 C77.9,142.495 77,143.711 77,144.202 C77,145.763 67.877,160.976 63.996,165.886 C61.939,168.488 59.91,171.716 59.488,173.058 C58.728,175.47 57.614,177.1 51.25,185.102 C49.462,187.35 48,189.616 48,190.137 C48,190.659 46.072,193.204 43.716,195.793 C41.359,198.382 38.147,202.414 36.577,204.754 C31.362,212.526 21.966,215.796 21.163,210.119 C20.908,208.313 22.201,206.396 26.526,202.173 C31.969,196.859 36.564,191.145 43.733,180.774 C45.53,178.175 47,175.843 47,175.592 C47,175.342 50.041,170.493 53.758,164.818 C61.983,152.261 62.507,151.404 64.64,147 C65.572,145.075 66.951,142.772 67.703,141.882 C69.271,140.028 76,128.998 76,128.283 C76,128.022 76.854,126.609 77.898,125.143 C78.942,123.677 82.127,118.009 84.975,112.548 C87.823,107.087 90.794,101.705 91.577,100.587 C92.359,99.469 93,97.937 93,97.182 C93,96.427 93.844,94.614 94.876,93.154 C95.907,91.694 97.084,88.925 97.491,87 C97.898,85.075 98.567,83.05 98.978,82.5 C99.388,81.95 100.047,80.153 100.443,78.506 C100.838,76.859 101.63,74.946 102.203,74.256 Z M108.5,167.358 C116.147,161.83 120.54,161.477 124.411,166.077 C125.575,167.461 126.297,168.313 126.611,169.295 C127.122,170.895 126.552,172.841 125.055,178 C121.78,189.282 117.808,198.511 113.776,204.202 C113.113,205.138 112.805,206.139 113.092,206.425 C113.378,206.712 116.844,207.626 120.794,208.457 C124.743,209.287 128.768,210.391 129.737,210.909 C132.523,212.398 141.079,215.088 146,216.022 C154.598,217.654 156.518,218.337 159.75,220.911 C163.668,224.032 163.769,225.302 160.449,229.656 C157.399,233.655 154.268,233.978 151.114,230.621 C149.884,229.313 147.266,227.98 145.296,227.661 C143.325,227.341 140.765,226.232 139.607,225.196 C138.361,224.082 131.926,221.973 123.86,220.034 C111.048,216.955 109.813,216.827 103.494,217.928 C97.524,218.967 96.555,218.907 94.884,217.395 C93.848,216.457 93,214.415 93,212.858 C93,210.656 93.863,209.48 96.875,207.579 C100.226,205.463 101.978,203.659 105.739,198.445 C107.472,196.044 109.036,193.301 110.556,190 C111.443,188.075 112.58,185.719 113.084,184.764 C114.301,182.457 114.252,179 113.003,179 C112.454,179 110.317,180.513 108.253,182.362 C106.189,184.211 102.378,186.653 99.784,187.79 C95.858,189.511 94.434,189.685 91.284,188.825 C86.053,187.397 84.85,186.163 85.199,182.585 C85.486,179.645 85.745,179.477 90.73,179 C95.027,178.589 96.543,177.893 99.23,175.098 C101.028,173.227 105.2,169.744 108.5,167.358 Z M121.664,19.669 C122.944,18.39 127.233,19.396 128.392,21.247 C129.198,22.534 129.159,23.516 128.243,24.983 C126.052,28.491 126.687,29.169 131.488,28.449 C135.241,27.887 136.088,28.066 136.656,29.545 C137.594,31.99 135.117,36.01 130.974,38.767 C127.177,41.293 124.067,46.902 124.026,51.3 C123.992,54.972 121.347,60 119.45,60 C117.604,60 115.735,55.41 116.543,52.863 C117.494,49.867 114.18,49.352 109.88,51.827 C107.803,53.022 105.466,54 104.687,54 C103.907,54 102.084,54.933 100.635,56.073 C98.38,57.846 98,58.91 98,63.45 C98,72.545 93.269,73.427 90.937,64.767 C89.875,60.821 89.808,60.775 86.047,61.377 C81.521,62.1 79.695,60.523 80.178,56.31 C80.416,54.236 81.37,53.117 83.822,52.039 C86.906,50.682 87.097,50.328 86.489,47.09 C86.129,45.172 85.197,42.692 84.417,41.579 C83.638,40.466 83,37.849 83,35.764 C83,33.679 82.465,31.116 81.81,30.068 C80.119,27.36 82.344,25 86.587,25 C90.441,25 91.35,26.237 92.854,33.522 C94.541,41.698 96.352,46 98.106,46 C99.685,46 113.012,39.065 115.665,36.863 C116.399,36.254 117,34.292 117,32.505 C117,29.479 119.937,21.396 121.664,19.669 Z M99.229,127.171 C99.99,126.41 101.61,126.188 103.479,126.588 C107.534,127.456 108,127.807 108,129.981 C108,131.229 109.172,132.232 111.546,133.015 C115.541,134.334 120,140.368 120,144.457 C120,147.535 115.987,150.448 113.038,149.512 C111.905,149.152 110.326,147.597 109.529,146.055 C108.731,144.514 105.811,141.354 103.04,139.033 C98.912,135.577 98,134.234 98,131.607 C98,129.843 98.553,127.847 99.229,127.171 Z"/>
</svg>

