<svg xmlns="http://www.w3.org/2000/svg" width="300" height="300" viewBox="0 0 300 300" version="1.1">
  <defs/>
  <path d="M149.472,114.397 C152.18,112.417 155.387,112.666 157.519,115.021 C159.294,116.982 159.287,117.153 157.297,120.771 C152.396,129.683 147.467,137.267 146.281,137.722 C145.577,137.993 145,138.862 145,139.655 C145,140.447 143.96,142.087 142.689,143.298 C141.418,144.509 139.751,147.075 138.983,149 C138.215,150.925 134.319,155.698 130.326,159.607 L123.064,166.713 L121.919,178.107 C119.585,201.328 119.272,204.023 120.25,206.115 C120.415,206.468 120.617,206.803 120.852,207.218 C122.066,209.359 123.361,210.061 126.947,210.52 C129.451,210.841 132.344,211.279 133.376,211.492 C135.6,211.95 161.124,209.508 169,208.083 C186.539,204.909 200.177,203 205.32,203 C207.759,203 210.198,202.437 210.74,201.75 C212.161,199.947 213.128,188.528 211.959,187.359 C211.423,186.823 210.769,180.11 210.507,172.442 C210.245,164.774 209.804,154.9 209.527,150.5 C207.929,125.136 207.884,118.5 209.297,116.588 C210.088,115.518 211.367,114.927 212.199,115.246 C214.135,115.989 215.997,125.351 216.011,134.417 C216.017,138.313 216.654,143.583 217.427,146.13 C218.32,149.072 218.633,152.958 218.286,156.787 C217.954,160.449 218.221,164.125 218.969,166.157 C219.645,167.995 220.818,172.65 221.577,176.5 C222.335,180.35 223.433,185.75 224.017,188.5 C224.618,191.329 224.793,196.653 224.421,200.761 C223.835,207.228 223.432,208.3 220.731,210.573 C218.043,212.835 216.894,213.104 210.599,212.945 C206.695,212.846 199.9,213.278 195.5,213.906 C181.62,215.886 173.582,217.146 171,217.747 C169.625,218.066 168.128,218.243 167.673,218.138 C167.219,218.034 163.619,218.688 159.673,219.592 C149.371,221.951 141.816,222.575 131,221.959 C120.233,221.346 116.936,220.061 112.735,214.836 C109.995,211.428 109.793,210.596 109.843,202.944 C109.899,194.452 111.269,180.518 113.201,168.788 C114.426,161.353 113.707,134.554 112.144,129.351 C111.498,127.203 111.548,125.852 112.299,125.101 C113.788,123.612 118.85,123.705 120.383,125.25 C121.831,126.709 124.119,146.217 123.315,150.25 C122.544,154.117 124.952,153.832 127.601,149.743 C131.293,144.046 141.397,127.103 144.53,121.354 C146.197,118.296 148.421,115.166 149.472,114.397 Z M116.573,30.57 C119.31,27.833 121.707,28.622 122.434,32.5 C123.229,36.738 124.442,36.823 128.962,32.959 C132.862,29.626 134.21,29.343 135.989,31.487 C138.155,34.097 136.142,37.958 128.959,44.972 L122,51.767 L122,58.325 C122,61.931 121.602,65.128 121.115,65.429 C120.629,65.729 119.991,67.219 119.699,68.738 C118.599,74.449 114.193,85.313 112.619,86.193 C109.541,87.916 108.714,86.094 109.425,79.158 C109.795,75.544 110.465,72.117 110.913,71.543 C112.262,69.817 113.046,56 111.795,56 C111.197,56 108.401,57.531 105.581,59.402 C100.72,62.629 100.388,63.131 99.139,69.152 C97.313,77.956 97.293,78 95.155,78 C93.818,78 92.602,76.502 91.095,73 C88.75,67.549 88.328,67.285 85.441,69.468 C82.465,71.719 80.198,71.284 78.579,68.153 C76.31,63.766 77.562,61.244 83.213,58.813 L88.179,56.677 L87.537,52.588 C87.184,50.34 86.769,45.575 86.614,42 C86.215,32.763 88.283,30.753 93.354,35.452 C95.222,37.184 96,38.91 96,41.327 C96,51.987 98.132,53.146 107.246,47.445 C112.112,44.401 113.015,43.358 113.523,40.195 C114.624,33.327 114.999,32.144 116.573,30.57 Z M78.655,109.829 C82.099,106.023 88,108.972 88,114.498 C88,116.359 87.55,118.16 87,118.5 C86.45,118.84 85.989,120.554 85.976,122.309 C85.963,124.064 84.84,128.2 83.481,131.5 C82.121,134.8 81.007,138.15 81.005,138.945 C81.002,139.74 79.95,141.54 78.667,142.945 C77.384,144.35 75.573,147.946 74.644,150.936 C73.715,153.925 71.8,157.885 70.389,159.734 C67.793,163.138 67.771,166 70.341,166 C72.546,166 79.89,174.577 82.099,179.732 C83.572,183.168 84.112,186.693 84.143,193.068 C84.199,204.991 81.841,208.378 76.223,204.443 C73.793,202.741 73.338,200.062 75.168,198.232 C76.035,197.365 76.057,196.092 75.252,193.282 C74.655,191.202 73.876,187.651 73.52,185.391 C73.053,182.432 72.039,180.666 69.9,179.085 C66.405,176.5 64.968,176.8 58.051,181.559 C52.276,185.531 52.251,185.537 49.829,183.345 C47.302,181.058 47.542,177.698 50.483,174.203 C55.354,168.414 59.677,161.229 65.794,148.76 C69.207,141.802 72,135.677 72,135.15 C72,134.623 73.122,130.886 74.493,126.846 C75.864,122.806 76.989,117.735 76.993,115.579 C76.997,113.342 77.711,110.872 78.655,109.829 Z"/>
</svg>

