<svg xmlns="http://www.w3.org/2000/svg" width="300" height="300" viewBox="0 0 300 300" version="1.1">
  <defs/>
  <path d="M118.5,100.863 C124.996,97.908 129.332,98.402 134.012,102.629 C136.221,104.626 138.735,107.888 139.599,109.879 C140.462,111.871 141.663,114.4 142.267,115.5 C142.871,116.6 143.734,119.412 144.183,121.75 C145.078,126.406 146.116,131.091 148.448,141 C149.29,144.575 150.235,153.575 150.548,161 C150.861,168.425 151.552,176.43 152.083,178.79 C153.717,186.049 153.303,229.04 151.484,241 C149.76,252.335 147.964,255.53 141.904,258.04 C139.22,259.152 138.728,258.94 133.914,254.612 C131.092,252.076 128.415,250 127.965,250 C126.997,250 124,244.259 124,242.405 C124,240.019 122.151,239.948 114.81,242.055 C110.79,243.209 103.675,244.965 99,245.958 C87.092,248.488 80.945,250.006 77.756,251.206 C75.59,252.02 74.46,251.877 72.395,250.523 C70.956,249.581 68.704,249.015 67.391,249.266 C66.077,249.517 64.395,249.222 63.652,248.611 C60.517,246.031 59.052,218.926 60.916,198 C61.884,187.133 60.491,154.76 58.441,140.5 C55.858,122.532 57.285,116.674 63.443,119.97 C66.765,121.747 67.557,125.001 69.047,143 C70.362,158.87 70.474,180.709 69.428,217.25 C68.725,241.804 68.726,241.811 72.5,241.03 C73.05,240.916 75.75,240.41 78.5,239.905 C86.824,238.376 97.134,236.211 104,234.55 C113.901,232.154 119.611,231.256 130,230.459 C135.225,230.058 140.583,229.325 141.907,228.83 L144.315,227.93 L143.64,205.411 C143.269,193.025 142.489,179.471 141.907,175.29 C141.326,171.109 140.72,164.496 140.561,160.594 C140.191,151.522 138.177,137.2 136.949,134.904 C136.427,133.929 136,132.003 136,130.625 C136,129.246 135.609,127.876 135.131,127.581 C134.654,127.286 133.974,125.24 133.622,123.035 C132.97,118.959 129.976,112.696 127.403,110.027 C126.154,108.732 125.536,108.793 122.284,110.527 C120.249,111.612 115.185,115.65 111.031,119.5 C106.876,123.35 101.325,128.075 98.695,130 C96.064,131.925 91.524,135.412 88.605,137.75 C85.686,140.088 82.787,142 82.162,142 C81.538,142 80.352,143.615 79.528,145.588 C78.03,149.172 75.422,149.885 75.583,146.667 C75.629,145.75 75.742,143.351 75.833,141.335 C75.983,138.053 77.196,136.515 87.478,126.585 C102.034,112.526 109.402,106 110.719,106 C111.289,106 112.373,105.254 113.128,104.342 C113.882,103.429 116.3,101.864 118.5,100.863 Z M99.831,134.25 C101.717,132.73 102.563,132.696 105.069,134.037 C106.806,134.966 106.94,135.798 106.36,142.037 C105.727,148.847 105.764,149 108.042,149 C109.323,149 111.3,148.173 112.436,147.162 C113.571,146.151 116.106,144.364 118.07,143.191 C121.357,141.229 121.816,141.183 123.86,142.615 C125.475,143.746 125.903,144.76 125.43,146.335 C124.526,149.341 119.308,154.63 114.415,157.497 C109.29,160.501 103.159,169.259 101.379,176.118 C99.826,182.106 100.66,183.991 104.872,184.015 C106.318,184.023 108.625,184.65 110,185.407 C116.71,189.106 122.788,191.872 125.5,192.463 C133.473,194.199 140.308,201.092 137.17,204.23 C136.28,205.12 135.483,205.159 134.225,204.378 C133.276,203.788 130.025,202.739 127,202.046 C123.975,201.353 120.719,200.385 119.764,199.893 C118.809,199.402 117.305,199 116.421,199 C115.538,199 113.661,198.092 112.251,196.982 C110.84,195.873 108.916,195.209 107.975,195.508 C105.419,196.319 101.26,194.395 100.518,192.057 C100.159,190.926 99.236,190 98.468,190 C96.445,190 94.802,193.247 90.372,206 C87.711,213.658 78.585,221.561 75.428,218.94 C73.249,217.132 73.675,215.443 77.611,210.287 C80.939,205.927 86,195.997 86,193.827 C86,193.319 86.9,191.041 88,188.764 C89.1,186.487 90,184.034 90,183.312 C90,181.353 87.671,181.726 85.13,184.094 C82.054,186.959 78.537,185.979 77.1,181.857 C76.495,180.121 76,178.268 76,177.737 C76,177.207 80.293,172.662 85.54,167.637 L95.08,158.5 L95.598,151.5 C96.27,142.413 97.889,135.815 99.831,134.25 Z M109.371,34.557 C111.256,31.68 112.77,31.38 115.464,33.35 C116.877,34.383 117.16,35.448 116.672,37.888 C115.894,41.779 117.825,42.937 121.176,40.589 C124.214,38.461 127.314,38.584 129.425,40.917 C131.781,43.52 130.359,45.953 124.831,48.777 C117.391,52.578 115.682,54.374 115.454,58.632 C115.137,64.55 113.048,75.056 111.722,77.402 C111.069,78.556 110.078,81.3 109.518,83.5 C108.898,85.936 107.914,87.5 107,87.5 C105.778,87.5 105.5,85.833 105.5,78.5 C105.5,73.55 105.877,67.588 106.338,65.252 C107.467,59.522 105.512,58.837 99.816,62.965 C97.442,64.686 93.932,67.099 92.015,68.327 C87.643,71.128 84.038,77.372 84.016,82.183 C84.004,84.973 83.518,86.018 82.009,86.497 C79.474,87.302 78,86.391 78,84.023 C78,79.998 76.921,78.924 73.519,79.562 C70.575,80.115 70.052,79.821 67.96,76.435 L65.65,72.698 L68.208,70.599 C69.615,69.444 72.258,67.345 74.081,65.934 L77.396,63.367 L75.568,56.614 C72.286,44.49 73.085,40.056 78.559,40.015 C82.103,39.989 84.079,42.29 84.58,47.026 C85.434,55.108 86.208,58 87.517,58 C88.905,58 99.413,52.266 103.964,49.025 C106.197,47.435 106.834,46.076 107.218,42.081 C107.481,39.349 108.449,35.963 109.371,34.557 Z M134.75,239.08 C132.579,240.344 132.512,242.369 134.571,244.429 C136.836,246.693 138.876,246.365 140.168,243.53 C142.042,239.417 138.776,236.735 134.75,239.08 Z"/>
</svg>

