<svg xmlns="http://www.w3.org/2000/svg" width="300" height="300" viewBox="0 0 300 300" version="1.1">
  <defs/>
  <path d="M116.486,60.023 C116.743,59.607 119.951,59.32 123.616,59.384 C128.475,59.468 130.471,59.906 130.985,61 C131.372,61.825 132.209,63.506 132.845,64.736 C134.194,67.348 134.434,89.148 133.143,91.764 C132.671,92.719 131.604,94.85 130.772,96.5 C129.939,98.15 128.961,101.152 128.598,103.172 C128.124,105.811 126.37,108.412 122.361,112.422 C119.293,115.49 116.157,118 115.391,118 C113.563,118 113.62,119.763 115.509,121.652 C116.684,122.827 116.987,125.495 116.877,133.69 C116.779,141.018 117.106,144.448 117.954,144.971 C118.623,145.385 123.97,144.422 129.836,142.832 C144.554,138.84 154.523,137.859 175.632,138.324 C190.83,138.658 194.39,139.028 197.632,140.611 C202.625,143.049 202.917,145.51 198.777,150.256 C195.281,154.264 193.008,154.92 191,152.5 C190.263,151.612 188.071,150.998 185.628,150.994 C183.357,150.991 179.925,150.56 178,150.036 C169.333,147.675 143.723,149.401 136.7,152.819 C134.39,153.944 130.007,155.394 126.961,156.041 C117.102,158.136 116.472,159.596 118.125,176.5 C118.945,184.886 120.577,246.009 120.394,261.5 C120.335,266.45 120.223,277.161 120.144,285.302 L120,300.105 L114.75,299.802 C109.566,299.504 109.496,299.456 109.173,296.061 C108.992,294.17 109.61,290.19 110.545,287.217 C111.926,282.828 112.116,279.81 111.557,271.156 C111.178,265.295 110.414,243.175 109.859,222 C109.303,200.825 108.545,179.229 108.174,174.01 C107.416,163.344 106.671,162.505 100.538,165.415 C98.701,166.287 96.574,167 95.811,167 C95.048,167 90.616,168.327 85.962,169.949 C81.308,171.571 75.025,173.567 72,174.384 C66.103,175.976 60.427,177.835 58,178.969 C57.175,179.354 53.35,180.465 49.5,181.437 C45.65,182.408 41.6,183.546 40.5,183.965 C35.229,185.972 28.049,187.912 23.773,188.484 C21.174,188.831 18.773,189.558 18.439,190.098 C18.105,190.639 16.971,190.808 15.92,190.475 C14.868,190.141 12.427,190.439 10.494,191.138 C6.295,192.657 4.364,191.318 3.831,186.519 C3.433,182.937 5.893,181.442 14.743,179.884 C17.91,179.327 22.585,178.226 25.134,177.436 C27.683,176.646 30.754,176 31.958,176 C33.162,176 37.499,174.875 41.595,173.5 C45.691,172.125 49.955,171 51.071,171 C52.186,171 54.314,170.375 55.8,169.611 C57.285,168.847 64.575,166.191 72,163.71 C86.002,159.03 92.808,156.442 101.75,152.397 C106.563,150.219 107,149.744 107,146.678 C107,144.838 106.662,142.991 106.25,142.572 C105.838,142.153 105.471,140.391 105.437,138.655 C105.277,130.698 105.306,128.163 104.142,127.362 C103.523,126.936 102.568,127 101.068,127 C97.869,127 96.751,126.458 95.068,124.096 C93.931,122.498 93,120.768 93,120.251 C93,119.733 92.1,118.495 91,117.5 C89.9,116.505 89,114.866 89,113.86 C89,110.046 82.771,93.494 79.456,88.5 C76.532,84.094 76,82.419 76,77.615 C76,73.576 76.419,71.777 77.451,71.38 C79.701,70.517 85.833,75.734 86.191,78.815 C86.754,83.672 93,82.431 93,77.462 C93,75.801 94.723,73.916 99.25,70.623 C102.688,68.122 106.663,65.186 108.085,64.099 C109.507,63.011 111.874,61.819 113.345,61.45 C114.815,61.08 116.229,60.438 116.486,60.023 Z M116.622,4.865 C120.607,0.462 124.575,3.683 123.554,10.491 C122.804,15.488 123.591,16.02 128,13.5 C133.12,10.573 137.857,12.629 136.612,17.237 C136.005,19.487 128.12,25 125.511,25 C123.304,25 120.001,30.012 119.985,33.385 C119.961,38.519 110.029,57 107.294,57 C106.242,57 106.01,56.471 106.527,55.25 C108.427,50.765 110.806,34 109.543,34 C106.068,34 98,42.242 98,45.792 C98,46.836 97.074,48.528 95.941,49.553 C93.298,51.945 90.641,50.498 90.16,46.402 C89.973,44.81 89.36,43.223 88.799,42.876 C87.401,42.012 84.31,42.921 82.91,44.608 C80.121,47.969 74,44.804 74,40 C74,36.715 76.013,34.885 82.355,32.401 C85.025,31.355 87.413,29.996 87.662,29.381 C87.91,28.765 85.81,23.951 82.995,18.681 C78.726,10.692 78.057,8.762 78.967,7.062 C79.567,5.941 81.075,4.768 82.318,4.456 C85.313,3.705 89.914,5.527 90.599,7.735 C90.9,8.706 91.563,10.281 92.073,11.236 C92.583,12.191 93,13.789 93,14.786 C93,15.784 93.54,17.14 94.199,17.799 C94.859,18.459 95.871,20.461 96.449,22.249 C97.632,25.908 100.88,27.055 102.96,24.548 C103.667,23.697 105.04,23 106.012,23 C109.258,23 111.79,19.602 113.374,13.115 C114.232,9.603 115.694,5.891 116.622,4.865 Z M117.5,71.168 C116.4,71.777 113.025,74.391 110,76.977 C106.975,79.563 103.375,82.255 102,82.96 C97.837,85.092 93,90.258 93,92.572 C93,93.77 94.125,97.295 95.5,100.404 C96.875,103.513 98,107.199 98,108.594 C98,111.753 99.671,115 101.297,115 C101.971,115 106.118,112.063 110.512,108.473 C114.905,104.883 119.063,101.49 119.75,100.933 C121.178,99.777 121.46,95 120.1,95 C119.606,95 116.805,96.8 113.877,99 C107.635,103.691 104.925,103.992 102.035,100.317 C99.234,96.756 99.734,95.091 104.319,92.713 C106.419,91.624 109.119,89.399 110.319,87.769 C112.894,84.27 116.89,82 120.475,82 C123.439,82 125.223,78.659 124.29,74.857 C123.13,70.132 121.233,69.101 117.5,71.168 Z"/>
</svg>

