<svg xmlns="http://www.w3.org/2000/svg" width="300" height="300" viewBox="0 0 300 300" version="1.1">
  <defs/>
  <path d="M104.338,132.002 C107.271,130.824 108.249,131.215 109.961,134.252 C111.226,136.495 111.232,137.198 110.007,139.486 C107.649,143.893 110.398,144.477 116.907,140.951 C123.422,137.422 128.62,137.127 132.365,140.073 C134.724,141.928 135,142.819 135,148.586 C135,152.129 134.586,155.809 134.08,156.764 C132.33,160.065 127,171.876 127,172.452 C127,172.77 125.385,175.463 123.411,178.436 C121.438,181.408 119.975,184.616 120.161,185.564 C120.364,186.594 124.723,189.452 131,192.672 C143.315,198.988 147.914,201.992 165.887,215.465 C173.25,220.984 180.222,226.175 181.381,227 C186.15,230.394 196.576,238.034 197.602,238.887 C198.208,239.39 201.808,241.496 205.602,243.566 C209.396,245.635 214.067,248.38 215.982,249.664 C217.897,250.949 220.118,252 220.918,252 C221.717,252 223.3,252.853 224.436,253.895 C227.152,256.388 234.045,260 236.086,260 C236.975,260 240.694,262.265 244.351,265.034 C252.061,270.87 252.733,273.254 248.075,278.238 L245.15,281.368 L241.226,277.934 C234.38,271.943 227.042,267.047 219.652,263.54 C215.708,261.669 210.911,259.094 208.991,257.819 C207.071,256.543 204.15,254.841 202.5,254.036 C200.85,253.231 198.152,251.656 196.504,250.536 C194.856,249.416 191.931,247.657 190.004,246.628 C188.077,245.598 184.598,243.01 182.272,240.878 C179.947,238.745 177.385,237 176.579,237 C175.773,237 174.423,236.014 173.578,234.808 C172.223,232.873 168.391,229.898 160,224.266 C158.625,223.343 156.022,221.331 154.215,219.794 C152.409,218.257 150.497,217 149.968,217 C148.988,217 139.592,210.583 137.171,208.26 C136.44,207.559 131.715,204.719 126.671,201.95 C121.627,199.181 116.689,196.372 115.697,195.708 C115.266,195.419 114.969,195.158 114.63,195.082 C113.426,194.811 111.695,196.88 101.504,208.361 C98.206,212.076 95.056,215.92 94.504,216.903 C91.716,221.863 74.643,235.657 70.277,236.476 C68.314,236.844 65.761,237.762 64.604,238.516 C61.454,240.569 54.402,239.326 52.021,236.3 C48.972,232.423 50.386,230.728 56.024,231.503 C58.637,231.863 61.614,231.72 62.638,231.186 C63.662,230.652 65.625,229.695 67,229.059 C68.375,228.423 70.755,227.216 72.288,226.378 C76.281,224.196 88.22,211.881 92.305,205.732 C94.217,202.854 96.734,199.64 97.898,198.588 C99.899,196.782 103,191.543 103,189.97 C103,189.168 95.809,186.047 89.266,184.009 C85.138,182.723 84.975,182.761 82.766,185.491 C81.52,187.031 79.6,189.775 78.5,191.589 C74.866,197.582 70.664,203.427 65.985,209 C63.446,212.025 60.3,215.963 58.996,217.75 C55.93,221.951 50.911,222.32 48.425,218.526 C46.901,216.2 46.936,215.839 49.015,212.475 C50.231,210.508 52.324,208.179 53.665,207.3 C55.675,205.983 59.657,201.133 70.742,186.5 C72.669,183.956 74.218,180.011 73.759,178.816 C73.075,177.032 53.457,171 48.34,171 C43.298,171 41.691,169.263 41.582,163.695 L41.5,159.5 L46.5,159.636 C49.25,159.712 54.65,160.926 58.5,162.335 C77.071,169.131 79.61,169.992 81.108,169.996 C83.466,170.002 96,149.136 96,145.203 C96,144.37 97.06,142.296 98.356,140.594 C99.652,138.892 101.042,136.458 101.444,135.185 C101.847,133.912 103.149,132.48 104.338,132.002 Z M122.601,1.75 C123.074,0.44 124.353,0 127.682,0 C130.129,0 132.975,0.451 134.005,1.003 C135.257,1.673 136.084,1.673 136.498,1.003 C137.344,-0.366 147,-0.293 147,1.082 C147,3.576 139.557,10.957 134.121,13.855 C126.891,17.708 126.386,18.337 125.751,24.274 C125.382,27.721 124.512,29.723 122.62,31.476 C121.179,32.812 120,34.418 120,35.045 C120,35.672 119.1,37.329 118,38.727 C114.283,43.453 116.386,44.475 122.456,40.894 C125.81,38.915 126.177,38.886 128.513,40.417 C132.552,43.063 131.167,50 126.6,50 C122.296,50 119.452,53.389 117.626,60.694 C116.69,64.437 115.491,68.882 114.962,70.571 C114.433,72.26 114,73.948 114,74.321 C114,75.312 118.436,75.152 119.55,74.121 C120.072,73.637 122.131,72.721 124.125,72.084 C126.119,71.448 129.942,69.369 132.622,67.464 C138.036,63.615 140.458,63.199 143.171,65.655 C146.392,68.57 145.378,70.683 138.946,74.452 C135.617,76.403 132.615,78 132.275,78 C130.093,78 128,81.719 128,85.596 C128,87.953 127.55,90.16 127,90.5 C125.683,91.314 125.71,102.589 127.035,105.066 C128.782,108.329 133.202,107.487 139.182,102.75 C146.558,96.908 148.388,96 152.786,96 C160.352,96 161.273,101.029 154.587,105.83 C152.159,107.574 149.7,109 149.121,109 C148.543,109 146.532,110.35 144.653,112 C142.774,113.65 140.649,115 139.932,115 C139.215,115 137.591,115.975 136.323,117.167 C132.908,120.374 125.73,120.185 122.343,116.797 C119.103,113.558 116.679,103.956 116.537,93.798 C116.478,89.562 116.149,85.816 115.807,85.473 C115.464,85.131 113.348,86.065 111.104,87.55 C107.754,89.767 107.129,90.667 107.61,92.583 C107.99,94.098 107.46,95.949 106.098,97.863 C104.944,99.483 104,102.175 104,103.845 C104,105.515 103.55,107.16 103,107.5 C102.45,107.84 102,108.785 102,109.601 C102,110.416 100.705,113.877 99.123,117.292 C97.541,120.706 95.908,124.625 95.495,126 C94.281,130.035 90.044,137.358 87.828,139.25 C85.137,141.548 82.323,141.471 81.035,139.066 C79.358,135.932 79.764,134.206 84.5,124.341 C86.975,119.184 89,114.353 89,113.605 C89,112.857 89.626,111.725 90.391,111.09 C91.156,110.455 91.994,108.713 92.252,107.218 C92.511,105.723 93.929,101.856 95.404,98.625 L98.085,92.751 L95.793,93.316 C88.835,95.032 84.132,96.455 81.128,97.753 C78.606,98.842 77.171,98.944 75.44,98.154 C72.216,96.686 70.745,93.695 72.289,91.751 C73.443,90.298 84.009,86.543 94.277,83.937 C99.113,82.71 104.636,77.838 103.42,75.871 C103.094,75.344 103.503,73.882 104.328,72.623 C105.152,71.364 106.142,68.234 106.527,65.667 C107.305,60.48 106.264,59.726 102.23,62.551 C99.835,64.229 89.532,68 87.343,68 C85.396,68 82,64.304 82,62.184 C82,59.924 87.498,56.798 95.487,54.517 C105.486,51.66 106.968,50.58 106.325,46.615 C106.022,44.746 106.309,41.593 106.964,39.608 C107.894,36.792 108.684,36 110.564,36 C112.393,36 113.342,35.117 114.505,32.333 C116.415,27.763 116.854,22.844 115.399,22.325 C113.469,21.637 104.539,29.801 103.99,32.755 C103.569,35.023 102.96,35.5 100.49,35.5 C98.359,35.5 97.22,34.861 96.524,33.277 C95.806,31.639 94.809,31.112 92.74,31.277 C90.598,31.447 89.524,30.828 88.216,28.671 L86.5,25.842 L90.477,22.48 L94.454,19.119 L94.147,11.748 C93.762,2.518 95.118,0.732 100.548,3.322 C103.644,4.798 104,5.385 104,9.015 C104,11.454 104.527,13.265 105.326,13.571 C106.055,13.851 109.487,12.739 112.954,11.099 C118.795,8.337 120.988,6.212 122.601,1.75 Z M115.653,152 C113.774,153.65 111.962,155 111.627,155 C108.952,155 92,171.499 92,174.102 C92,174.62 93.012,175.441 94.25,175.928 C95.487,176.415 98.886,177.778 101.803,178.957 C104.72,180.136 107.893,180.851 108.856,180.546 C109.819,180.24 111.585,178.08 112.781,175.745 C113.977,173.41 116.091,169.575 117.478,167.223 C118.865,164.871 120,162.144 120,161.164 C120,160.184 120.661,158.509 121.468,157.441 C123.263,155.068 123.413,151.813 121.8,150.2 C120.076,148.476 119.462,148.655 115.653,152 Z"/>
</svg>

