<svg xmlns="http://www.w3.org/2000/svg" width="300" height="300" viewBox="0 0 300 300" version="1.1">
  <defs/>
  <path d="M140.636,102.127 C146.356,99.866 150.644,99.595 153.711,101.3 C157.448,103.377 164.981,111.067 165.51,113.345 C166.502,117.618 168.254,138.861 169.068,156.5 C170.894,196.028 171.542,205.563 172.5,207 C173.857,209.035 175.103,224.45 175.32,241.89 L175.5,256.28 L172.783,258.311 C170.272,260.187 169.745,260.236 165.857,258.953 C157.644,256.242 153.181,251.652 151.553,244.244 C150.323,238.641 150.225,238.624 122.557,239.315 C100.54,239.864 97.035,239.747 95.937,238.424 C94.906,237.181 94.957,236.614 96.215,235.357 C99.258,232.314 111.652,230.803 139,230.141 L165.5,229.5 L165.398,223.5 C165.259,215.368 163.942,205.77 162.759,204.271 C160.675,201.629 141.652,193.536 139.483,194.368 C138.291,194.826 138,197.202 138,206.488 C138,217.102 137.796,218.363 135.487,222.02 C132.91,226.102 132.315,226.442 129.582,225.393 C127.825,224.719 127.385,219.498 129,218.5 C130.159,217.784 130.396,193.336 129.25,192.706 C127.446,191.714 122.029,194.259 119.863,197.116 C118.563,198.831 114.421,203.781 110.659,208.117 C104.315,215.427 103.536,216 99.944,216 C95.079,216 94,217.793 94,225.875 C94,229.179 93.55,232.16 93,232.5 C92.45,232.84 92,235.511 92,238.437 C92,244.272 89.997,247.397 87.717,245.117 C86.246,243.646 86.514,218.519 88.062,212.768 C89.504,207.414 89.428,137.587 87.975,131.813 C87.36,129.372 87.002,125.611 87.178,123.456 C87.443,120.226 87.979,119.369 90.22,118.586 C94.788,116.989 96.733,119.741 97.464,128.836 C98.728,144.558 99.133,181.267 98.054,182.346 C97.44,182.96 97,188.112 97,194.7 C97,205.939 97.499,207.44 100.5,205.235 C101.973,204.152 109.161,195.176 112.7,190 C118.51,181.502 120.725,179.694 124.564,180.317 C127.995,180.873 128,180.869 128,176.906 C128,171.012 125.914,170.894 117.832,176.329 C116.028,177.542 113.76,178.022 110.832,177.811 C106.714,177.515 106.484,177.333 106.177,174.123 C106,172.265 106.337,170.263 106.927,169.673 C107.517,169.083 108,167.17 108,165.422 C108,163.675 108.675,161.685 109.5,161 C110.325,160.315 111,159.102 111,158.303 C111,154.643 129.596,129.581 133.147,128.453 C135.876,127.587 140,130.534 140,133.349 C140,134.615 138.833,136.742 137.408,138.076 C135.154,140.183 134.903,141.023 135.485,144.5 C135.853,146.7 136.232,149.85 136.327,151.5 C136.499,154.479 136.537,154.498 141.805,154.173 C150.987,153.608 152.602,157.207 145.433,162.26 C139.679,166.316 137.796,170.173 138.194,177.089 C138.497,182.375 138.535,182.431 142.522,183.581 C144.734,184.219 149.334,186.149 152.743,187.87 C161.885,192.485 162.241,192.338 161.517,184.25 C161.185,180.537 160.768,173.841 160.59,169.37 C160.412,164.898 159.906,160.657 159.467,159.946 C159.027,159.235 158.554,152.544 158.416,145.077 C158.277,137.609 157.688,129.475 157.106,127 C156.525,124.525 156.038,121.078 156.024,119.339 C156.007,117.055 155.147,115.46 152.923,113.589 C149.242,110.491 148.519,110.448 141.494,112.918 C135.758,114.934 132.15,117.555 117.578,130.294 C106.906,139.625 104.664,140.043 104.197,132.79 C103.946,128.888 104.289,127.743 106.197,126.123 C124.154,110.87 131.547,105.719 140.636,102.127 Z M139.174,40.314 C141.619,37.712 142.313,37.562 145.066,39.035 C147.158,40.155 147.843,46.361 146,47.5 C144.885,48.189 144.613,52 145.679,52 C146.052,52 147.852,51.46 149.678,50.799 C153.998,49.237 155.367,50.528 154.468,55.318 C153.929,58.192 152.737,59.626 148.41,62.607 C142.346,66.783 140.992,68.568 139.008,75 C138.245,77.475 137.031,80.388 136.31,81.473 C135.59,82.557 135,84.176 135,85.069 C135,87.535 132.353,92.32 129.513,94.988 C127.524,96.856 126.711,97.111 125.762,96.162 C124.813,95.213 124.855,94.468 125.958,92.725 C126.732,91.501 127.754,88.475 128.228,86 C128.702,83.525 129.345,80.263 129.658,78.75 C130.33,75.503 129.065,75.239 123.658,77.498 C119.631,79.181 118.001,81.538 117.998,85.684 C117.996,89.893 114.867,95.5 112.521,95.5 C110.77,95.5 110.539,94.805 110.521,89.5 L110.5,83.5 L106.192,83.824 C101.125,84.205 99,82.789 99,79.033 C99,75.897 101.318,73.451 105.209,72.48 C109.243,71.473 110.461,69.559 109.17,66.251 C108.58,64.738 107.543,60.045 106.866,55.823 C105.864,49.577 105.878,47.852 106.94,46.573 C107.658,45.708 108.752,45 109.372,45 C111.136,45 115.64,51.199 116.283,54.51 C118.679,66.866 119.675,67.6 127.642,62.887 C133.473,59.436 133.505,59.392 134.5,53.288 C135.05,49.915 135.838,46.821 136.25,46.411 C136.662,46.002 137,44.983 137,44.148 C137,43.312 137.978,41.587 139.174,40.314 Z M159.25,238.639 C157.92,239.201 157.485,242.998 158.75,243.003 C159.162,243.004 160.4,244.353 161.5,246 C162.754,247.877 164.359,248.995 165.802,248.997 C167.952,249 168.084,248.651 167.802,243.75 C167.501,238.517 167.489,238.499 164,238.305 C162.075,238.198 159.938,238.348 159.25,238.639 Z M121.605,156.89 C118.568,160.06 119.059,161.094 123.225,160.297 C126.561,159.66 128.239,157.787 127.41,155.627 C126.496,153.244 124.73,153.628 121.605,156.89 Z"/>
</svg>

