<svg xmlns="http://www.w3.org/2000/svg" width="300" height="300" viewBox="0 0 300 300" version="1.1">
  <defs/>
  <path d="M98.253,125.25 C99.827,123.266 103.744,123.796 105.443,126.223 C106.325,127.481 107,130.517 107,133.223 C107,137.737 107.148,138 109.679,138 C111.152,138 113.798,137.479 115.557,136.843 C118.333,135.839 119.23,135.979 122.336,137.899 C128.816,141.903 130.639,145 131.319,153.152 C131.656,157.195 131.461,162.524 130.884,165 C130.308,167.475 129.53,172.249 129.157,175.609 C128.784,178.97 127.937,182.371 127.276,183.167 C126.615,183.963 123.359,185.939 120.04,187.558 C116.72,189.176 114.004,190.803 114.002,191.172 C114.001,191.542 112.479,192.347 110.621,192.96 C104.132,195.102 103.699,196.33 103.843,212.172 C103.918,220.484 104.402,226.802 105.011,227.411 C105.662,228.062 117.715,228.646 137.275,228.976 C154.449,229.265 169.034,229.848 169.687,230.271 C171.2,231.251 183.749,232.436 191.306,232.312 C205.416,232.08 209.512,230.767 212.551,225.504 C213.331,224.153 214.276,223.852 216.213,224.339 C220.01,225.292 221.005,231.638 218.094,236.348 C216.143,239.505 215.59,239.751 209.069,240.357 C205.249,240.712 200.977,241.438 199.576,241.971 C196.647,243.085 184.999,242.465 170.36,240.416 C162.688,239.342 152.906,239.114 130.165,239.479 L100.109,239.962 L98.193,237.231 C95.522,233.424 94.71,228.378 94.534,214.5 L94.382,202.5 L91.975,202.776 C90.651,202.929 88.653,203.713 87.534,204.52 C86.415,205.326 84.579,206.658 83.454,207.48 C81.635,208.808 81.162,208.802 79.204,207.43 C76.184,205.315 76.381,201.256 79.671,197.822 C82.185,195.197 82.244,194.927 80.671,193.188 C79.752,192.173 79,190.792 79,190.119 C79,189.447 78.138,187.232 77.085,185.198 C76.032,183.164 74.355,179.813 73.358,177.75 C72.361,175.688 71.198,174 70.773,174 C70.348,174 70,173.155 70,172.122 C70,171.09 69.35,169.705 68.555,169.046 C65.853,166.803 61,158.335 61,155.862 C61,152.892 62.701,151 65.371,151 C67.358,151 71,153.645 71,155.089 C71,155.517 72.428,158.165 74.174,160.973 C78.044,167.198 80.125,167.234 81.42,161.099 C82.347,156.704 85.744,152.481 92.761,147 C95.824,144.608 95.99,144.112 96.612,135.5 C96.969,130.55 97.708,125.938 98.253,125.25 Z M111.79,13.964 C113.842,10.972 115.088,10.072 116.923,10.257 C120.024,10.568 121.889,15.346 120.056,18.282 C117.97,21.622 120.371,22.4 123.817,19.5 C126.374,17.349 127.282,17.081 128.961,17.979 C133.557,20.439 130.364,27.545 122.874,31.527 C121.43,32.295 119.556,34.653 118.709,36.768 C117.863,38.883 116.457,41.205 115.585,41.929 C114.67,42.689 114,44.782 114,46.88 C114,48.88 112.894,52.593 111.542,55.132 C109.719,58.559 109.233,60.658 109.657,63.276 C110.016,65.488 109.674,67.864 108.739,69.651 C106.407,74.108 103,81.652 103,82.36 C103,83.679 106.355,82.922 110.853,80.589 C129.758,70.78 132.441,69.841 134.8,72.2 C137.172,74.572 136.123,77.653 132.021,80.367 C129.833,81.815 127.584,83 127.024,83 C126.464,83 123.148,84.35 119.656,86 C116.164,87.65 112.392,89 111.276,89 C110.159,89 108.657,89.708 107.939,90.573 C107.221,91.438 104.804,93.078 102.567,94.216 C94.872,98.132 86.069,107.542 77.431,121.085 C75.882,123.513 74.139,125.95 73.557,126.5 C72.976,127.05 70.938,129.75 69.03,132.5 C67.121,135.25 65.191,137.95 64.742,138.5 C64.292,139.05 61.804,142.377 59.212,145.892 C46.662,162.918 44.189,166.24 40.118,171.553 C37.708,174.698 33.771,179.209 31.368,181.578 C28.966,183.946 27,186.359 27,186.939 C27,188.852 16.669,198 14.509,198 C12.127,198 10,196.249 10,194.287 C10,193.565 14.387,187.98 19.75,181.876 C25.113,175.772 32.564,166.665 36.309,161.639 C40.054,156.612 43.654,151.789 44.309,150.921 C44.964,150.052 45.95,148.657 46.5,147.821 C50.946,141.057 53.212,137.916 56.362,134.155 C58.363,131.766 60,129.377 60,128.846 C60,128.316 62.7,124.335 66,120 C71.866,112.294 73.283,109 70.731,109 C70.033,109 66.321,110.305 62.481,111.899 C48.91,117.536 43,116.798 43,109.467 C43,105.638 44.298,104.403 49,103.754 C53.386,103.149 71.506,98.317 75.436,96.705 C85.19,92.703 86.176,91.774 91.104,81.957 C100.323,63.593 102.982,57.433 104.435,51.076 C105.243,47.544 105.674,44.281 105.393,43.826 C104.657,42.636 101.59,42.81 100.284,44.116 C99.67,44.73 98.153,45.742 96.911,46.366 C95.669,46.99 93.93,48.81 93.045,50.411 C90.148,55.652 85.466,56.498 84.288,51.995 C83.93,50.625 82.923,50 81.074,50 C77.589,50 75.273,48.178 74.457,44.794 C73.9,42.479 74.288,41.794 77.153,40.048 C78.994,38.926 81.287,38.006 82.25,38.004 C83.629,38.001 84,37.138 84,33.934 C84,31.698 83.551,29.029 83.002,28.003 C81.494,25.186 81.371,14.463 82.827,12.709 C84.416,10.793 87.718,11.624 89.481,14.383 C90.224,15.548 91.582,19.65 92.497,23.5 C94.987,33.977 94.997,34 96.945,34 C99.408,34 105.422,31.414 106.697,29.808 C107.267,29.088 108.037,26.118 108.407,23.207 C108.82,19.963 110.129,16.385 111.79,13.964 Z M105.468,100.035 C106.921,98.43 108.546,98 113.159,98 C118.111,98 120.194,98.637 126.754,102.159 C131.014,104.447 135.679,107.136 137.119,108.134 C138.56,109.133 140.81,110.41 142.119,110.973 C143.429,111.535 145.175,112.435 146,112.973 C146.825,113.511 149.075,114.645 151,115.493 C152.925,116.342 155.85,117.775 157.5,118.68 C159.15,119.584 161.349,120.744 162.387,121.256 C163.425,121.769 165.9,123.113 167.887,124.244 C169.874,125.374 175.55,128.295 180.5,130.735 C185.45,133.175 190.175,135.515 191,135.937 C191.825,136.358 192.638,138.315 192.806,140.286 C193.182,144.675 191.337,145.884 185.243,145.239 C181.974,144.893 180.507,144.117 178.925,141.894 C177.791,140.302 176.42,139 175.877,139 C174.754,139 166.265,135.415 164,133.984 C163.175,133.463 160.025,131.876 157,130.457 C153.975,129.039 150.825,127.467 150,126.964 C149.175,126.462 143.438,123.496 137.252,120.373 C131.066,117.251 124.239,113.184 122.08,111.337 C119.408,109.049 116.459,107.656 112.836,106.969 C109.91,106.414 106.64,105.085 105.571,104.015 C103.68,102.124 103.677,102.014 105.468,100.035 Z M109.25,149.989 C106.563,151.627 106,152.587 106,155.531 C106,159.039 106.049,159.081 109.408,158.451 C112.578,157.857 112.936,158.063 114.519,161.398 C116.641,165.872 116.134,167.234 111.531,169.418 C107.499,171.332 107.421,171.468 106.513,178.25 C105.956,182.41 106.103,182.996 107.689,182.965 C116.864,182.785 125.581,161.826 120.537,152.072 C118.171,147.497 114.461,146.812 109.25,149.989 Z M90.904,161.927 C88.944,163.543 86.095,166.497 84.574,168.492 C82.03,171.827 81.909,172.377 83.068,175.31 C83.762,177.064 84.918,179.196 85.636,180.047 C86.355,180.899 87.705,183.955 88.637,186.839 C89.83,190.532 90.792,191.994 91.89,191.783 C93.982,191.38 95.967,187.244 95.985,183.25 C95.999,180.311 95.716,180 93.035,180 C90.219,180 88,177.825 88,175.066 C88,174.48 89.767,172.233 91.926,170.074 C94.541,167.459 95.96,165.071 96.176,162.923 C96.606,158.641 95.211,158.378 90.904,161.927 Z"/>
</svg>

