<svg xmlns="http://www.w3.org/2000/svg" width="300" height="300" viewBox="0 0 300 300" version="1.1">
  <defs/>
  <path d="M67.777,83.908 C71.377,80.692 75.98,80.066 78.013,82.516 C79.233,83.986 79.023,89.79 77.373,100.25 C76.604,105.125 77.882,105.072 83.384,100 C85.771,97.8 88.268,96 88.933,96 C89.598,96 92.697,94.659 95.821,93.02 C118.368,81.187 128.818,80.286 140.025,89.209 C146.784,94.591 149.07,99.889 151.546,115.913 C153.373,127.738 153.355,136.062 151.47,152.5 C150.649,159.65 149.508,170.225 148.933,176 C148.359,181.775 147.189,189.249 146.334,192.609 C144.469,199.936 145.384,202.493 150.242,203.539 C152.034,203.925 156.2,205.273 159.5,206.535 C165.007,208.641 180.793,213.583 190.5,216.239 C192.7,216.841 195.963,218.196 197.75,219.249 C200.395,220.807 201,221.791 201,224.532 C201,226.538 200.372,228.252 199.446,228.77 C197.241,230.004 187.195,227.926 182.998,225.368 C181.074,224.196 177.925,222.774 176,222.209 C163.414,218.517 153.784,215.316 149.182,213.298 C146.258,212.015 143.487,211.199 143.026,211.484 C142.565,211.769 141.864,214.364 141.469,217.251 C141.075,220.138 140.132,223.388 139.376,224.473 C138.619,225.557 138,227.443 138,228.663 C138,229.884 137.55,231.16 137,231.5 C136.45,231.84 136,232.922 136,233.905 C136,236.521 133.257,241.636 127.904,249 C119.894,260.018 114.742,261.359 106.739,254.509 C104.485,252.579 102.095,251 101.428,251 C100.762,251 96.743,247.512 92.498,243.25 C80.143,230.843 79.461,228.664 88.078,229.121 C90.76,229.264 93.162,229.171 93.417,228.916 C94.214,228.12 96.91,199.928 96.333,198.425 C95.723,196.835 95.199,196.725 89.52,196.996 C84.992,197.212 81.357,198.843 78.593,201.898 C77.546,203.054 76.291,204 75.802,204 C75.314,204 72.401,205.912 69.328,208.25 C66.255,210.588 63.03,212.95 62.16,213.5 C61.29,214.05 58.792,216.443 56.61,218.817 C52.129,223.692 48.269,226 44.597,226 C41.328,226 38.51,220.509 39.489,216.05 C40.141,213.082 40.825,212.613 44.062,212.916 C48.383,213.32 54.829,208.985 67,197.488 C84.63,180.835 87.274,178.153 90.036,178.026 C90.749,177.993 91.469,178.131 92.457,178.242 C96.622,178.712 96.828,178.608 97.396,175.768 C98.143,172.037 97.173,168 95.531,168 C94.843,168 92.754,169.012 90.89,170.25 C86.696,173.033 83.903,174.356 77.5,176.588 C74.75,177.546 72.073,178.706 71.55,179.165 C71.028,179.624 69.191,180 67.469,180 C65.748,180 62.125,181.123 59.419,182.496 C51.513,186.507 48.904,185.485 49.753,178.709 C50.171,175.377 50.794,174.631 54.898,172.552 C57.466,171.251 62.477,169.646 66.033,168.985 C72.048,167.869 86.227,161.769 93.75,157.063 C96.415,155.396 97,154.396 97,151.515 C97,146.349 94.979,146.967 86.16,154.828 C75.464,164.362 72.501,166.309 71.155,164.687 C70.341,163.706 72.467,160.9 80.043,152.955 C85.519,147.212 90,141.915 90,141.185 C90,140.156 88.746,140.013 84.449,140.55 C79.699,141.143 78.694,140.973 77.481,139.372 C75.589,136.873 75.636,133.06 77.586,130.905 C78.753,129.615 80.086,129.302 82.645,129.717 C84.555,130.027 87.936,129.681 90.157,128.948 C94.524,127.507 96,125.154 96,119.635 C96,114.297 99.523,112.353 103.187,115.669 C104.915,117.233 105.302,117.204 109.312,115.201 C115.535,112.093 119.385,113.26 119.814,118.385 C120.129,122.138 118.188,125.298 110.425,133.676 C108.392,135.869 106.169,146.502 107.47,147.804 C108.414,148.748 112.924,146.111 117.36,142.022 C123.249,136.594 125.807,136.823 127.304,142.912 C128.138,146.303 126.572,148.668 121.918,151.042 C119.709,152.169 117.651,153.745 117.344,154.545 C117.037,155.345 116.047,156.014 115.143,156.032 C114.239,156.049 112.15,157.247 110.5,158.695 C107.515,161.313 107.497,161.391 106.985,174.413 C106.401,189.23 106.866,190.579 112.887,191.534 C118.553,192.432 127.228,194.981 130.296,196.648 C132.393,197.788 133.431,197.887 134.445,197.046 C135.874,195.859 135.927,195.577 138.394,176 C139.26,169.125 140.683,157.875 141.557,151 C143.158,138.409 143.049,128.64 141.161,115.632 C140.613,111.855 139.678,108.278 139.082,107.682 C138.487,107.087 138,105.418 138,103.974 C138,99.666 132.726,95.766 125.385,94.647 C121.343,94.031 109.825,96.897 107.55,99.086 C107.027,99.589 105.987,100 105.238,100 C102.756,100 93.154,105.048 86.952,109.614 C82.003,113.258 80.566,113.885 79.396,112.914 C78.602,112.255 77.817,111.892 77.652,112.107 C75.54,114.873 72.296,120.042 70.151,124.055 C62.277,138.792 44.547,153.796 43.211,146.855 C43.039,145.962 45.544,142.142 48.778,138.366 C52.012,134.59 55.68,129.475 56.93,127 C58.18,124.525 59.902,121.15 60.757,119.5 C65.414,110.517 66.219,108.082 67.223,99.924 C68.237,91.691 68.176,90.852 66.422,88.914 C64.542,86.837 64.556,86.786 67.777,83.908 Z M107.609,11.88 C108.705,10.669 110.383,10.02 111.948,10.203 C114.302,10.477 114.539,10.966 115,16.5 C115.44,21.781 115.77,22.538 117.75,22.82 C118.987,22.995 120,22.658 120,22.07 C120,20.331 124.554,20.849 126.307,22.787 C128.874,25.623 127.337,28.796 122.113,31.443 C116.618,34.227 112,38.592 112,41.002 C112,41.952 111.1,43.874 110,45.273 C108.9,46.671 108,48.237 108,48.753 C108,50.401 104.169,53.223 102.953,52.471 C102.232,52.025 101.994,50.425 102.335,48.321 C102.74,45.825 102.485,44.74 101.395,44.321 C99.584,43.626 95,47.692 95,49.994 C95,50.899 93.39,53.521 91.422,55.82 C88.721,58.976 87.12,60 84.891,60 C81.432,60 80.103,57.667 81.911,54.77 C82.586,53.689 82.946,52.613 82.712,52.378 C82.477,52.143 79.633,52.693 76.392,53.599 C67.435,56.104 65.748,55.975 64.577,52.697 C63.513,49.717 64.407,47.272 67.067,45.888 C70.644,44.025 77.713,41 78.487,41 C80.081,41 83,37.7 83,35.898 C83,34.912 81.875,31.99 80.5,29.404 C77.649,24.043 77.134,17.27 79.508,16.359 C80.337,16.041 82.586,16.075 84.505,16.435 C88.201,17.128 91,20.839 91,25.046 C91,27.981 94.737,33 96.922,33 C100.046,33 103.998,28.436 104.024,24.798 C104.061,19.727 105.632,14.064 107.609,11.88 Z M105.951,201.25 C105.67,202.7 103.805,223.522 103.342,230.397 L102.741,239.294 L106.914,243.147 C109.209,245.266 111.968,247 113.045,247 C115.927,247 122.436,239.777 124.504,234.282 C125.494,231.652 126.911,228.612 127.652,227.527 C128.393,226.443 129,224.557 129,223.337 C129,222.116 129.4,220.871 129.89,220.568 C130.681,220.079 131.564,216.345 132.263,210.53 C132.55,208.145 127.643,205.508 121.036,204.497 C118.58,204.121 115.668,203.18 114.563,202.407 C112.923,201.258 106.127,200.345 105.951,201.25 Z"/>
</svg>

