<svg xmlns="http://www.w3.org/2000/svg" width="300" height="300" viewBox="0 0 300 300" version="1.1">
  <defs/>
  <path d="M136.384,96.769 C141.489,93.382 146.476,93.159 149.686,96.174 C150.958,97.37 152,99.08 152,99.974 C152,100.868 152.461,102.061 153.024,102.624 C154.76,104.36 154.38,110.278 152.228,115 C151.101,117.475 149.882,121.243 149.521,123.373 C149.159,125.503 148.453,127.978 147.951,128.873 C145.423,133.379 139.146,151.217 139.638,152.498 C139.948,153.306 145.985,158.936 153.053,165.007 C160.121,171.079 166.488,176.631 167.202,177.344 C167.916,178.057 172.83,182.488 178.122,187.19 C183.414,191.893 194.199,202.436 202.089,210.62 C209.979,218.804 219.858,228.875 224.042,233 C233.816,242.637 236.481,248.602 232.066,250.965 C228.14,253.066 226.238,252.082 220.335,244.903 C209.021,231.143 173.658,194.905 164,187.174 C161.525,185.193 157,181.306 153.945,178.536 C146.158,171.477 136.963,163.655 135.29,162.666 C133.299,161.49 131,162.605 131,164.746 C131,165.741 130.362,167.466 129.581,168.58 C126.513,172.961 119,188.085 119,189.881 C119,191.126 119.951,192.017 121.75,192.459 C124.297,193.086 129,197.358 129,199.045 C129,199.448 128.158,200.818 127.129,202.089 C125.37,204.261 125.114,204.305 122.857,202.826 C121.537,201.961 118.583,200.936 116.294,200.55 C112.314,199.877 112.056,199.992 110.418,203.159 C109.476,204.981 106.859,208.629 104.602,211.267 C101.177,215.27 100.005,216.015 97.5,215.781 C93.229,215.381 92.899,211.768 96.757,207.635 C100.801,203.301 104,198.477 104,196.711 C104,194.909 99.783,192 97.17,192 C96.125,192 94.126,191.1 92.727,190 C91.329,188.9 89.612,188 88.913,188 C88.214,188 86.127,187.452 84.276,186.783 C81.51,185.783 80.962,185.113 81.205,183.033 C81.482,180.654 81.889,180.482 87.898,180.198 C91.465,180.03 94.762,180.362 95.348,180.948 C95.927,181.527 97.219,182 98.22,182 C99.221,182 101.811,183.118 103.977,184.485 C108.462,187.317 110.198,187.036 111.948,183.197 C112.625,181.714 114.033,178.925 115.078,177 C116.122,175.075 119.086,169.244 121.663,164.042 L126.349,154.584 L117.358,146.042 C107.118,136.313 104.928,132.947 106.844,129.878 C107.53,128.779 109.705,124.87 111.677,121.19 C115.144,114.721 123.447,105.465 129.384,101.45 C130.97,100.378 134.12,98.271 136.384,96.769 Z M88.5,127.753 C91.25,125.716 93.725,124.048 94,124.047 C94.275,124.046 95.625,124.917 97,125.984 L99.5,127.923 L97.5,131.712 C96.295,133.994 94.647,135.622 93.354,135.806 C92.174,135.974 90.417,136.987 89.449,138.056 C88.482,139.125 87.155,140 86.5,140 C85.845,140 84.519,140.874 83.551,141.943 C82.584,143.012 80.514,144.167 78.952,144.511 C76.796,144.984 75.817,146.023 74.895,148.817 C73.401,153.343 73.4,157.386 74.886,176.5 C76.432,196.391 74.898,211.803 70.893,216.629 C69.413,218.412 62.646,218.39 59.2,216.589 C53.244,213.477 51.225,210.061 50.333,201.58 C49.875,197.224 48.989,193.491 48.364,193.285 C47.739,193.078 44.139,196.147 40.364,200.104 C36.589,204.062 30.831,209.82 27.57,212.9 C24.308,215.98 19.638,220.443 17.192,222.818 C12.539,227.335 6.613,231.436 2.451,233.018 C0.079,233.92 0,233.808 0,229.543 C0,225.965 0.39,225.011 2.067,224.479 C6.905,222.943 36.981,191.463 43.367,181.25 C46.392,176.413 48.841,175.848 52.033,179.25 C53.672,180.997 54.013,182.283 53.559,185 C52.068,193.911 54.083,201.988 58.84,206.164 C61.665,208.645 62.48,208.936 63.519,207.834 C66.02,205.181 66.79,195.027 65.742,178.5 C65.184,169.7 64.757,161.037 64.793,159.25 C64.875,155.148 62.331,154.883 57.589,158.5 C55.786,159.875 53.802,161 53.18,161 C52.557,161 50.575,161.898 48.774,162.996 C46.973,164.094 44.775,164.994 43.89,164.996 C43.004,164.998 40.712,166.064 38.796,167.363 C35.084,169.883 33.246,170.362 20.129,172.229 L11.758,173.42 L9.379,170.654 C4.89,165.435 7.065,163.477 18.176,162.737 C24.573,162.31 28.56,161.342 35.397,158.554 C40.291,156.559 45.535,154.043 47.052,152.963 C48.568,151.883 50.267,151 50.828,151 C51.388,151 53.119,149.942 54.673,148.648 C57.532,146.269 61.988,143.535 72,138.016 C80.871,133.125 83.218,131.665 88.5,127.753 Z M107.809,24.75 C109.93,22.277 113.634,22.493 114.324,25.13 C114.745,26.741 115.322,27.069 116.69,26.477 C119.759,25.15 123.197,25.423 124.26,27.079 C125.613,29.185 123.276,34.055 120.168,35.604 C116.68,37.342 111,43.167 111,45.005 C111,45.892 110.339,47.491 109.532,48.559 C108.724,49.626 108.049,51.502 108.032,52.726 C108.014,53.95 107.102,56.425 106.004,58.226 C104.906,60.027 104.004,62.625 103.999,64 C103.987,67.443 99.805,72.523 97.66,71.7 C95.548,70.889 95.485,65.506 97.5,58 C99.277,51.381 99.376,49 97.875,49 C96.873,49 85.194,53.836 84.042,54.728 C83.79,54.923 83.097,58.064 82.5,61.709 C81.802,65.975 80.807,68.719 79.708,69.413 C76.992,71.125 74.552,68.919 74.176,64.412 C73.783,59.713 72.652,58.88 67.724,59.664 C64.892,60.114 63.456,59.818 61.974,58.477 C57.678,54.588 61.032,49 67.663,49 C69.434,49 71.177,48.523 71.537,47.94 C72.194,46.877 70.933,42.682 68.55,38 C67.85,36.625 67.327,33.483 67.389,31.018 C67.508,26.214 68.791,25.229 73.418,26.39 C75.935,27.022 78.956,32.771 79.922,38.769 C80.431,41.924 80.951,42.549 83.296,42.82 C86.249,43.16 93.438,40.783 98.692,37.727 C100.605,36.615 102.77,33.994 104.096,31.185 C105.313,28.608 106.984,25.712 107.809,24.75 Z M61.805,96.75 C65.346,92.632 71,96.439 71,102.941 C71,108.267 72.756,109.055 75.99,105.181 C77.439,103.445 79.993,101.751 81.665,101.417 C84.176,100.915 85.078,101.284 86.852,103.539 C88.034,105.041 89,106.863 89,107.588 C89,110.49 86.605,113.854 83.147,115.811 C77.049,119.26 71.177,126.017 70.817,130 C70.549,132.958 70.084,133.548 67.813,133.81 C63.094,134.355 62.018,131.155 61.109,113.862 C60.422,100.815 60.528,98.236 61.805,96.75 Z M136.425,108.128 C134.267,109.982 131.906,112.063 131.179,112.75 C130.452,113.438 129.53,114 129.131,114 C128.027,114 118.288,126.517 117.527,128.914 C117.006,130.556 118.135,132.432 122.68,137.476 C125.881,141.028 129.074,143.949 129.775,143.967 C130.476,143.985 131.516,142.772 132.087,141.272 C132.657,139.771 134.222,136.357 135.564,133.686 C136.906,131.014 138.281,126.954 138.62,124.664 C138.959,122.374 139.788,119.6 140.463,118.5 C142.337,115.445 142.988,108.365 141.572,106.429 C140.462,104.912 139.982,105.071 136.425,108.128 Z"/>
</svg>

