<svg xmlns="http://www.w3.org/2000/svg" width="300" height="300" viewBox="0 0 300 300" version="1.1">
  <defs/>
  <path d="M67.557,108.223 C69.418,105.566 73.561,105.293 76.171,107.655 C78.738,109.978 78.492,111.32 74.448,117.074 C71.154,121.76 70.953,122.467 71.67,126.813 C72.096,129.391 72.311,132.946 72.148,134.712 C71.894,137.466 72.232,138.02 74.51,138.592 C76.766,139.158 77.915,138.523 82.104,134.397 C87.57,129.014 89.7,129.046 91.167,134.532 C92.113,138.071 90.907,139.553 82.872,144.726 C75.678,149.359 75.027,151.053 74.891,165.524 C74.834,171.561 74.35,177.038 73.817,177.695 C73.283,178.352 72.994,179.918 73.173,181.176 C73.446,183.083 74.492,183.68 79.5,184.785 C83.582,185.685 86.468,187.044 88.527,189.034 C90.193,190.644 93.014,192.253 94.797,192.609 C98.075,193.265 103,198.008 103,200.509 C103,203.831 92.562,203.383 89.434,199.927 C88.475,198.867 87.163,198 86.519,198 C85.875,198 84.326,196.911 83.076,195.58 C80.294,192.619 75.2,190.371 74.071,191.606 C73.621,192.098 72.5,196.325 71.58,201 C70.216,207.932 69.327,210.099 66.758,212.75 C65.025,214.537 62.83,216 61.881,216 C58.792,216 53.993,210.902 50.944,204.38 C49.303,200.871 47.329,198 46.556,198 C44.54,198 37.024,206.151 37.011,208.35 C37.005,209.367 35.47,211.73 33.6,213.6 C30.657,216.543 29.54,217 25.291,217 C19.097,217 16.718,215.375 17.164,211.451 C17.423,209.177 17.959,208.554 19.5,208.737 C23.735,209.239 25.703,207.961 28.442,202.929 C29.975,200.113 32.527,196.33 34.114,194.523 C35.701,192.715 37,190.888 37,190.462 C37,188.665 42.25,183 43.916,183 C44.914,183 46.916,183.933 48.365,185.073 C50.568,186.805 51,187.945 51,192.022 C51,195.812 51.685,197.914 54.071,201.45 C55.76,203.952 57.298,206 57.489,206 C57.68,206 58.503,206.256 59.318,206.569 C60.349,206.964 61.111,206.129 61.824,203.819 C63.91,197.063 66.193,161.74 64.7,159.324 C63.708,157.718 60.566,158.768 57.912,161.594 C56.668,162.917 55.248,164 54.756,164 C54.263,164 51.936,165.324 49.583,166.943 C47.23,168.561 40.399,172.188 34.403,175.002 C19.754,181.877 20.23,181.686 14.136,183.149 C8.971,184.389 8.702,184.35 6.886,182.107 C3.169,177.517 5.296,173.007 11.184,172.995 C13.827,172.99 28.737,167.418 31,165.59 C31.825,164.924 35.425,162.882 39,161.053 C48.366,156.262 61.571,148.132 63.564,145.929 C64.819,144.542 64.989,143.692 64.202,142.743 C63.611,142.032 62.987,139.211 62.814,136.475 C62.641,133.739 62.009,131.5 61.41,131.5 C60.81,131.5 58.119,133.412 55.429,135.75 C50.282,140.224 49.489,140.6 48.518,139.029 C47.613,137.566 50.767,132.085 55.646,126.642 C58.04,123.97 60,121.335 60,120.786 C60,120.237 61.35,118.083 63,116 C64.65,113.917 66,111.815 66,111.329 C66,110.843 66.701,109.445 67.557,108.223 Z M139.103,89.89 C140.618,88.903 144.791,89.582 146.639,91.115 C147.753,92.04 148.085,93.424 149.492,103 C149.856,105.475 150.545,108.4 151.024,109.5 C151.504,110.6 152.127,113.525 152.41,116 C152.694,118.475 153.338,123.65 153.843,127.5 C155.405,139.415 156.908,155.079 157.419,164.771 C157.688,169.87 158.158,174.447 158.465,174.943 C158.771,175.439 158.958,189.717 158.88,206.672 C158.711,243.28 158.665,245.206 157.939,246.5 C157.63,247.05 157.284,251.1 157.169,255.5 C156.959,263.609 154.655,278.842 153.086,282.5 C152.614,283.6 151.673,286.525 150.994,289 C150.315,291.475 149.037,294.962 148.153,296.75 L146.545,300 L127.598,300 L122.049,294.25 C116.837,288.85 106.583,274.772 102.812,267.842 C101.884,266.136 100.027,263.561 98.685,262.12 C93.132,256.159 92.824,252 97.933,252 C99.96,252 101.296,252.684 102.062,254.115 C102.684,255.278 105.4,258.968 108.097,262.315 C110.794,265.662 113,268.997 113,269.727 C113,272.36 134.596,294.231 136.763,293.793 C139.241,293.292 143.502,283.998 144.462,277 C144.801,274.525 145.485,271.15 145.981,269.5 C147.927,263.034 149.174,237.921 149.216,204.365 C149.24,185.041 148.94,168.712 148.549,168.079 C148.157,167.445 147.451,161.881 146.98,155.714 C145.626,137.977 142.122,113.988 140.129,108.809 C139.56,107.328 138.782,102.671 138.4,98.458 C137.853,92.425 138.002,90.607 139.103,89.89 Z M104.174,37.291 C106.812,34.112 111,38.022 111,43.663 C111,48.033 112.444,48.6 115.738,45.524 C119.665,41.858 122.418,42.513 122.808,47.208 C123.211,52.067 121.749,54.6 118.122,55.326 C116.5,55.65 113.334,57.665 111.087,59.803 C107.602,63.117 107,64.294 107,67.786 C107,70.039 106.578,72.142 106.063,72.461 C105.548,72.779 104.506,74.268 103.747,75.77 C102.989,77.271 101.868,79.4 101.257,80.5 C100.646,81.6 99.902,83.287 99.604,84.25 C99.306,85.213 98.327,86 97.427,86 C95.991,86 95.878,85.028 96.499,78.008 C97.349,68.405 96.08,67.025 90.645,71.644 C88.797,73.215 86.321,75.283 85.143,76.24 C83.964,77.197 83,78.976 83,80.193 C83,82.562 77.423,89 75.371,89 C73.53,89 72.727,85.378 74.03,82.945 C75.436,80.316 74.434,75.62 72.615,76.318 C71.899,76.592 68.84,77.126 65.818,77.504 C60.373,78.184 60.31,78.162 59.042,75.101 C57.95,72.464 58.003,71.645 59.404,69.506 C60.307,68.128 61.92,67 62.989,67 C64.058,67 66.536,66.235 68.497,65.3 C72.866,63.217 73.994,59.797 71.656,55.723 C70.744,54.134 69.727,50.509 69.395,47.667 C68.858,43.065 69.071,42.2 71.348,39.75 C74.446,36.418 75.076,36.368 77.7,39.25 C80.065,41.848 84.297,52.71 83.467,54.053 C83.159,54.551 83.421,55.919 84.049,57.092 C85.036,58.936 85.754,59.135 89.345,58.562 C96.991,57.342 99.597,54.222 102.026,43.382 C102.618,40.742 103.584,38.001 104.174,37.291 Z M104.073,137.635 C105.549,135.758 107.076,135 109.38,135 C112.158,135 112.848,135.53 114.267,138.75 C116.652,144.166 117.785,150.987 118.4,163.652 C118.898,173.902 118.773,175.019 116.856,177.456 C113.672,181.504 110.575,180.59 110.223,175.5 C110.071,173.3 109.528,170.6 109.017,169.5 C108.506,168.4 107.955,163.069 107.794,157.654 C107.514,148.271 107.371,147.705 104.75,145.617 C101.46,142.995 101.304,141.155 104.073,137.635 Z"/>
</svg>

