<svg xmlns="http://www.w3.org/2000/svg" width="300" height="300" viewBox="0 0 300 300" version="1.1">
  <defs/>
  <path d="M68.073,95.635 C74.139,87.922 80.025,99.824 75.5,110.654 C72.713,117.323 73.843,118.686 78.742,114.564 C83.343,110.692 102.531,99.229 109.311,96.302 C114.748,93.954 116.858,93.621 126.673,93.565 C140.905,93.482 142.09,94.196 147.331,106 C150.182,112.422 151.093,123.7 150.526,145.521 C149.916,168.924 149.62,171.846 143.935,210.5 C141.867,224.557 137.898,244.502 136.987,245.413 C136.444,245.956 136,247.163 136,248.096 C136,250.712 129.128,256.274 126.612,255.694 C118.751,253.882 107.11,247.874 103.015,243.516 C99.687,239.974 98,240.286 98,244.443 C98,247.845 95.282,251 92.351,251 C89.908,251 88.194,245.458 89.053,240.338 C89.5,237.677 90.033,229.988 90.237,223.25 C90.63,210.327 90.133,208.986 86.457,213.047 C85.439,214.173 82.914,216.045 80.847,217.206 C78.78,218.368 75.876,221.237 74.394,223.582 C71.872,227.572 68.73,229.569 66.826,228.393 C66.372,228.112 66,222.965 66,216.955 C66,210.946 65.574,204.11 65.053,201.764 C62.678,191.065 60.852,179.204 61.161,176.483 C61.448,173.954 61.981,173.453 64.658,173.193 C66.886,172.977 68.413,173.527 69.84,175.059 L71.864,177.231 L76.918,172.177 C79.698,169.397 83.554,165.917 85.486,164.443 C88.818,161.902 89,161.451 89,155.75 L89,149.738 L85.462,150.313 C83.516,150.628 80.528,152.061 78.823,153.495 C76.489,155.46 74.83,156.03 72.111,155.802 C68.859,155.53 68.408,155.129 67.578,151.769 C66.82,148.701 66.981,147.678 68.483,146.019 C69.488,144.908 70.87,144 71.555,144 C72.239,144 75.657,142.264 79.15,140.143 L85.5,136.286 L85.794,129.143 C85.983,124.54 85.706,122 85.014,122 C84.424,122 81.592,123.8 78.721,126 C66.699,135.21 66.526,135.404 61.317,145.5 C60.75,146.6 59.471,149.075 58.475,151 C56.109,155.575 53.039,158.654 49.508,159.997 C43.185,162.401 42.549,158.736 47.91,150.785 C49.499,148.428 51.584,144.7 52.544,142.5 C58.044,129.898 59.648,125.891 60.952,121.5 C61.605,119.3 62.527,116.6 63.002,115.5 C63.934,113.337 64.968,108.285 65.457,103.5 C65.626,101.85 65.817,99.998 65.882,99.385 C65.947,98.772 66.933,97.084 68.073,95.635 Z M118.5,103.576 C117.4,104.408 115.546,104.85 114.381,104.558 C112.998,104.212 110.829,105.065 108.14,107.014 C105.872,108.656 103.652,110 103.204,110 C102.757,110 100.223,111.375 97.574,113.055 L92.756,116.111 L94.745,118.305 C96.235,119.949 96.615,121.442 96.258,124.25 C95.699,128.649 96.314,128.818 102.553,125.976 C106.719,124.078 107.153,124.054 109.498,125.591 C112.776,127.738 112.699,130.955 109.25,135.981 C107.116,139.091 106.012,139.877 104.319,139.492 C102.719,139.129 101.575,139.789 100.021,141.971 C98.299,144.388 97.959,146.119 98.202,151.222 L98.5,157.5 L103.5,157.558 C113.221,157.671 118.119,161.973 120.481,172.473 C122.045,179.425 122.047,193.394 120.486,201.728 C119.606,206.422 119.118,210.864 119.4,211.6 C119.682,212.336 119.261,214.19 118.463,215.719 C117.665,217.249 117.01,219.677 117.006,221.115 C117.003,222.553 116.067,224.916 114.927,226.365 C113.253,228.493 112.015,229 108.486,229 C106.084,229 103.84,228.55 103.5,228 C102.682,226.676 99.292,226.719 98.461,228.063 C97.699,229.296 100.738,233 102.511,233 C103.172,233 105.69,234.509 108.106,236.354 C110.523,238.199 113.625,240.052 115,240.472 C116.375,240.893 118.254,241.898 119.176,242.706 C121.158,244.445 123.982,244.105 125.039,242 C132.035,228.061 133.342,222.994 135.999,199.5 C136.497,195.1 137.403,188.575 138.014,185 C139.045,178.957 140.846,157.667 140.953,150.25 C140.993,147.494 140.644,147 138.655,147 C135.926,147 134.037,145.032 131.549,139.599 C130.567,137.454 128.115,133.854 126.101,131.599 C113.832,117.864 112.121,113.399 119.209,113.61 C123.631,113.742 129.379,118.253 132.619,124.133 C135.609,129.56 136.973,131 139.122,131 C141.42,131 141.435,130.183 139.341,118.643 C137.507,108.538 136.071,105.605 131.901,103.449 C128.276,101.574 121.056,101.643 118.5,103.576 Z M111.77,23.75 C112.617,22.788 113.871,22 114.556,22 C116.515,22 120,28.758 120,32.557 C120,35.724 120.243,36 123.031,36 C128.531,36 128.258,41.71 122.491,47.312 C120.571,49.176 119,51.428 119,52.316 C119,53.203 118.201,54.357 117.225,54.879 C116.113,55.475 114.933,58.162 114.065,62.075 C112.59,68.722 109.602,73.002 107.738,71.138 C107.154,70.554 106.702,67.359 106.734,64.038 C106.8,57.024 105.835,56.498 100.785,60.794 C98.978,62.331 96.263,64.366 94.75,65.317 C92.649,66.638 92,67.83 92,70.368 C92,76.848 85.086,79.25 84.172,73.087 C83.753,70.255 81.788,69.53 78.06,70.829 C75.601,71.686 74.66,71.521 72.548,69.859 C71.146,68.757 70,67.135 70,66.256 C70,64.071 72.933,61 75.02,61 C75.961,61 77.916,60.067 79.365,58.927 C81.4,57.327 82,55.974 82,52.986 C82,50.859 81.55,48.84 81,48.5 C80.45,48.16 80,47.104 80,46.152 C80,45.201 79.1,42.658 78,40.5 C75.513,35.622 75.466,32.793 77.837,30.647 C79.829,28.845 85.21,29.278 86.829,31.371 C88.055,32.954 90.824,41.76 91.524,46.303 C91.847,48.394 92.672,50.321 93.359,50.584 C94.877,51.167 105.149,46.746 106.671,44.855 C107.272,44.11 108.318,39.45 108.996,34.5 C109.69,29.431 110.902,24.736 111.77,23.75 Z M105.332,196.942 C100.794,201.072 100.049,202.958 99.837,210.846 C99.631,218.521 100.899,221.304 104.372,220.798 C105.996,220.562 106.794,219.055 108.237,213.5 C109.237,209.65 110.252,204.925 110.494,203 C110.736,201.075 111.226,198.262 111.583,196.75 C112.116,194.495 111.897,194.005 110.367,194.029 C109.34,194.045 107.074,195.356 105.332,196.942 Z M82.693,179.32 C80.599,181.122 78.255,183.699 77.483,185.048 C73.96,191.202 73.66,192.06 74.67,193.07 C75.358,193.758 78.015,192.263 82.899,188.442 C89.421,183.339 90.082,182.498 89.806,179.657 C89.395,175.436 87.322,175.338 82.693,179.32 Z M99.2,170.2 C97.973,171.427 97.562,175.228 98.549,176.216 C99.248,176.915 107.226,175.157 108.332,174.061 C108.79,173.607 108.569,172.283 107.842,171.118 C106.358,168.742 101.205,168.195 99.2,170.2 Z M74.615,201.739 C75.25,206.859 76.2,207.474 80.396,205.482 C84.684,203.448 85.069,201.522 81.25,201.216 C79.737,201.095 78,200.321 77.39,199.498 C75.392,196.802 74.129,197.823 74.615,201.739 Z M109.336,183.567 C108.548,185.621 110.13,187.156 111.904,186.059 C113.415,185.125 112.719,182 111,182 C110.415,182 109.667,182.705 109.336,183.567 Z"/>
</svg>

