<svg xmlns="http://www.w3.org/2000/svg" width="300" height="300" viewBox="0 0 300 300" version="1.1">
  <defs/>
  <path d="M128.219,83.25 C129.996,81.085 132.882,81.871 134.477,84.955 C136.531,88.927 135.129,98.971 131.594,105.611 C130.167,108.291 129,111.445 129,112.62 C129,113.794 128.372,115.276 127.605,115.913 C126.837,116.55 125.925,118.585 125.578,120.435 C125.231,122.285 124.284,124.349 123.474,125.022 C121.551,126.618 121.489,133 123.396,133 C124.647,133 126.788,130.856 132.24,124.143 C134.399,121.484 135.066,121.477 138.371,124.078 C142.97,127.694 143.179,129.105 140.054,135.392 C138.49,138.536 136.489,141.907 135.606,142.883 C134.723,143.859 134,145.331 134,146.154 C134,146.978 132.834,148.742 131.409,150.076 C129.984,151.409 127.456,154.525 125.791,157 C124.126,159.475 122.141,161.86 121.382,162.3 C120.622,162.74 120,163.941 120,164.969 C120,166.964 117.082,173.075 115.622,174.137 C114.393,175.032 115.8,177 117.669,177 C118.522,177 123.375,172.804 128.455,167.675 C137.422,158.62 143,150.014 143,145.236 C143,144.198 144.1,142.315 145.444,141.053 C147.482,139.138 148.521,138.874 151.694,139.462 C153.787,139.851 156.901,141.232 158.613,142.531 C160.326,143.83 162.914,145.191 164.365,145.555 C166.236,146.025 167.566,147.492 168.944,150.606 L170.886,154.995 L168.265,158.998 C165.298,163.529 163.354,164.061 162.073,160.693 C161.583,159.403 158.974,157.233 156.156,155.771 C150.612,152.895 149.723,153.209 148.429,158.506 C147.553,162.09 142.752,169.36 139.977,171.303 C138.426,172.39 138.127,173.383 138.615,175.826 C138.959,177.547 139.862,179.47 140.621,180.1 C141.379,180.73 142,182.625 142,184.312 C142,188.057 143.933,198.939 144.964,201 C145.425,201.922 147.948,202.782 151.506,203.233 C154.692,203.636 158.244,204.577 159.399,205.324 C160.555,206.072 162.834,207.013 164.465,207.415 C166.096,207.817 169.334,209.013 171.66,210.073 C173.987,211.133 176.421,212 177.069,212 C178.503,212 196.38,219.709 200,221.888 C201.367,222.712 209.211,226.37 219.5,230.983 C228.756,235.134 230.711,236.079 234.83,238.397 C237.211,239.738 239.911,241.494 240.83,242.299 C241.748,243.104 243.625,244.093 245,244.496 C248.16,245.421 253.823,248.718 256.75,251.336 C259.37,253.68 259.659,257.614 257.443,260.777 C255.299,263.84 253.489,263.574 248.729,259.5 C246.48,257.575 243.913,256 243.023,256 C242.134,256 240.528,255.32 239.453,254.488 C229.367,246.68 225.611,244 224.755,244 C224.202,244 214.571,239.5 203.353,234 C192.134,228.5 182.231,224 181.346,224 C180.46,224 178.333,223.151 176.618,222.114 C174.903,221.077 172.375,219.919 171,219.542 C169.625,219.165 164.341,217.28 159.257,215.353 C154.174,213.427 149.224,212.004 148.257,212.193 C146.651,212.505 146.491,214.343 146.399,233.517 C146.343,245.058 146.251,256.413 146.195,258.751 C146.085,263.303 143.464,267.937 141,267.937 C138.638,267.937 134.148,263.447 133.394,260.332 C133.017,258.774 131.917,255.925 130.949,254 C128.429,248.988 126.7,240.9 127.894,239.706 C129.382,238.218 132,239.683 132,242.004 C132,244.735 134.853,249 136.68,249 C137.871,249 138.101,246.988 137.966,237.75 C137.749,222.982 136.303,209.451 133.942,200.082 C132.891,195.912 132.024,190.137 132.015,187.25 C132.001,182.414 131.815,182 129.655,182 C128.365,182 126.453,182.952 125.405,184.116 C122.419,187.434 115.378,191.974 112.249,192.6 C109.945,193.061 108.793,192.546 106.201,189.895 C102.337,185.943 101.951,181.075 105,174.764 C106.1,172.487 107,170.14 107,169.549 C107,168.957 108.575,166.135 110.5,163.276 C112.425,160.418 114,157.666 114,157.162 C114,156.658 114.675,155.685 115.5,155 C117.713,153.164 117.363,152.239 113.75,150.372 C108.728,147.777 107.872,146.157 108.534,140.5 C108.856,137.75 109.768,134.503 110.56,133.285 C111.352,132.067 112,130.421 112,129.627 C112,128.834 113.084,126.006 114.41,123.342 C122.907,106.265 125.514,99.188 126.507,90.5 C126.884,87.2 127.654,83.938 128.219,83.25 Z M62.737,99.596 C64.122,98.212 75.413,100.103 77.437,102.058 C79.254,103.814 79.304,104.526 78.246,113.571 C77.625,118.874 76.501,123.953 75.748,124.856 C73.528,127.521 69,137.03 69,139.027 C69,140.04 71.737,144.313 75.081,148.522 L81.163,156.174 L86.816,155.837 C93.974,155.41 94.326,156.556 89.502,164.566 C86.022,170.345 85.947,170.682 86.649,177.5 C87.044,181.35 87.351,185.175 87.329,186 C87.23,189.849 83.789,206.825 82.567,209.5 C77.994,219.51 76.19,222.638 72.711,226.591 C67.409,232.614 64.457,232.576 58.463,226.408 C56.008,223.883 54,221.169 54,220.377 C54,219.585 53.362,218.693 52.583,218.394 C51.804,218.095 50.021,216.119 48.621,214.003 C47.221,211.888 43.625,208.531 40.631,206.543 C32.835,201.369 32.343,200.601 34.253,196.597 C35.478,194.026 36.616,193.162 39.36,192.716 C41.627,192.349 45.328,190.132 49.696,186.527 C56.082,181.256 62.156,176.366 69.75,170.383 C71.537,168.974 73,166.977 73,165.944 C73,164.911 69.411,159.889 65.025,154.783 C60.639,149.677 56.772,144.233 56.431,142.684 C55.938,140.441 56.645,138.655 59.906,133.903 C62.158,130.622 64,127.501 64,126.969 C64,126.436 64.397,126 64.881,126 C65.884,126 68.943,118.016 69.676,113.483 C70.096,110.891 69.591,110.006 66.082,107.186 C62.261,104.115 61.024,101.309 62.737,99.596 Z M106.94,29.701 C107.957,28.447 109.473,27.993 111.949,28.201 C115.28,28.482 115.5,28.716 115.5,31.982 C115.5,35.068 115.841,35.523 118.5,35.986 C120.981,36.418 121.552,37.042 121.801,39.594 C122.107,42.717 120.193,45.333 113.775,50.567 C110.734,53.047 108.012,58.032 107.968,61.2 C107.951,62.465 107.276,64.374 106.468,65.441 C105.661,66.509 105,68.112 105,69.003 C105,72.389 100.996,79 98.945,79 C96.56,79 95.263,76.337 96.867,74.733 C97.49,74.11 98,72.205 98,70.5 C98,68.795 98.488,66.912 99.085,66.315 C100.66,64.74 99.788,60.575 97.804,60.197 C95.031,59.669 88.969,66.081 87.084,71.536 C84.942,77.735 82.097,78.356 80.374,73 C79.286,69.617 79.053,69.483 73.374,69 C68.156,68.556 67.463,68.239 67.17,66.168 C66.776,63.385 69.548,60 72.221,60 C75.132,60 78,58.129 78,56.229 C78,55.294 76.928,52.272 75.617,49.514 C70.484,38.714 69.575,35.898 70.661,34.164 C72.137,31.809 75.562,31.561 77.169,33.693 C77.918,34.687 79.38,35.972 80.418,36.548 C81.457,37.124 83.495,40.724 84.949,44.548 C86.547,48.751 88.167,51.5 89.046,51.5 C89.846,51.5 92.863,50.15 95.75,48.5 C100.158,45.981 101.093,44.938 101.578,42 C102.214,38.145 104.678,32.493 106.94,29.701 Z M118.81,199.75 C119.635,198.787 121.07,198 122,198 C125.606,198 128.621,203.882 126.761,207.29 C124.741,210.992 120.671,217.349 118.528,220.152 C117.413,221.61 115.375,224.3 114,226.129 C112.625,227.958 110.037,231.094 108.25,233.098 C106.463,235.102 105,237.092 105,237.518 C105,238.499 99.6,245.178 90.274,255.731 C86.273,260.258 83,264.376 83,264.882 C83,266.052 77.25,269.47 73.841,270.325 C72,270.787 70.476,270.376 68.621,268.916 C65.361,266.352 65.362,265.703 68.634,261.413 C70.883,258.464 71.724,258.034 74.384,258.465 C77.214,258.925 77.867,258.476 81.5,253.581 C83.7,250.616 89.532,243.31 94.46,237.345 C104.39,225.325 109.491,217.734 114.179,208 C115.901,204.425 117.985,200.713 118.81,199.75 Z M70.25,181.481 C67.912,183.889 65.985,186.229 65.967,186.68 C65.948,187.131 62.915,189.77 59.225,192.544 C50.167,199.356 49.58,201.309 54.881,206.995 C57.147,209.424 59,211.79 59,212.254 C59,213.768 64.248,218 66.126,218 C69.852,218 74.792,204.756 76.546,190.062 C78.312,175.273 77.435,174.077 70.25,181.481 Z M114.667,65.667 C116.354,63.98 120.018,65.257 122.896,68.535 C126.29,72.4 126.732,74.891 124.625,78.285 C123.869,79.503 122.722,82.698 122.077,85.384 C120.936,90.135 118.966,94.352 115.016,100.5 C113.956,102.15 112.335,104.978 111.414,106.785 C109.61,110.322 106.194,113.238 104.837,112.399 C102.594,111.013 104.069,105.089 109.669,93 C112.301,87.319 113.945,78.898 113.98,70.917 C113.991,68.396 114.3,66.033 114.667,65.667 Z"/>
</svg>

