<svg xmlns="http://www.w3.org/2000/svg" width="300" height="300" viewBox="0 0 300 300" version="1.1">
  <defs/>
  <path d="M109.2,92.2 C111.199,90.201 114.735,90.848 116.909,93.612 C119.162,96.476 122.348,96.555 128.752,93.905 C131.728,92.674 132.187,92.743 134.16,94.715 C136.216,96.772 136.238,96.987 134.637,99.431 C133.714,100.839 130.252,103.359 126.942,105.029 C119.93,108.569 118.964,110.389 120.061,118 C120.497,121.025 120.887,127.213 120.927,131.75 C120.986,138.46 121.286,140 122.531,140 C123.374,140 124.31,139.213 124.612,138.25 C125.189,136.411 127.634,130.831 130.374,125.096 C131.268,123.224 132,120.512 132,119.069 C132,112.29 138.843,109.648 141.959,115.225 C143.555,118.08 143.532,118.169 138.889,127.236 C138.4,128.191 138,130.157 138,131.604 L138,134.235 L145.25,133.598 C152.943,132.922 156.318,133.875 158.402,137.311 C159.305,138.799 158.995,139.56 156.664,141.587 C153.919,143.973 153.5,144.031 143.552,143.388 C137.544,142.999 135.175,142.665 133.316,143.486 C131.69,144.204 130.454,145.806 127.514,149.027 C124.708,152.101 123.822,156.816 123.272,171.601 C122.814,183.888 122.97,186.866 124.105,187.578 C124.872,188.059 128.2,188.48 131.5,188.512 C136.199,188.559 141.218,189.89 154.642,194.653 C164.07,197.999 172.833,201.47 174.115,202.368 C175.396,203.265 177.03,204 177.745,204 C178.46,204 186.572,207.635 195.773,212.078 C204.973,216.52 217.107,222.377 222.737,225.093 C228.736,227.987 233.639,231.045 234.58,232.481 C236.084,234.778 236.049,235.122 234.024,237.966 C232.836,239.635 231.099,241 230.164,241 C229.228,241 226.285,239.2 223.623,237 C220.96,234.8 218.211,233 217.514,233 C216.816,233 215.704,232.349 215.044,231.553 C214.383,230.757 211.74,229.32 209.171,228.36 C206.602,227.4 202.925,225.666 201,224.506 C197.642,222.482 168.838,210 167.527,210 C167.177,210 164.796,209.046 162.236,207.88 C157.553,205.746 151.561,203.542 140.522,199.891 C136.699,198.626 132.555,198.019 129.022,198.207 L123.5,198.5 L123,229.216 C122.549,256.905 122.325,260.106 120.724,261.706 C119.102,263.326 118.71,263.348 116.224,261.959 C113.242,260.294 111.958,254.961 113.958,252.55 C115.611,250.559 116.051,237.141 115.345,210.25 C114.672,184.609 114.305,183.025 110.24,188.227 C109.283,189.451 106.213,192.714 103.418,195.477 C100.623,198.24 97.049,202.3 95.474,204.5 C91.659,209.833 75.051,225.62 65.453,233.037 C59.135,237.919 57.048,239 53.939,239 C48.042,239 44.671,234.317 48.928,232.039 C49.988,231.471 51.468,231.242 52.217,231.53 C53.979,232.206 66.95,222.496 72.558,216.304 C84.347,203.284 99.428,184.268 104.919,175.5 C107.082,172.047 108.872,170.345 110.705,170 L113.36,169.5 L113.099,152.524 C112.956,143.187 112.648,135.239 112.414,134.861 C112.18,134.483 111.593,130.265 111.109,125.487 C110.02,114.745 108.739,112.975 103.844,115.451 C102.005,116.381 97.251,118.212 93.281,119.519 C89.311,120.827 85.196,122.36 84.138,122.926 C82.647,123.724 81.627,123.495 79.607,121.905 C76.486,119.45 75.967,114.277 78.75,113.362 C85.145,111.26 92.623,108.199 99.75,104.764 C107.877,100.847 108,100.733 108,97.094 C108,95.062 108.54,92.86 109.2,92.2 Z M125.766,39.071 C128.9,37.245 131.863,37.896 134.082,40.897 C135.26,42.491 137.524,44.055 139.112,44.372 C143.431,45.236 142.878,48.355 137.75,52.051 C133.231,55.309 126,67.205 126,71.382 C126,72.602 125.46,74.14 124.801,74.799 C124.141,75.459 123.129,77.418 122.551,79.153 C121.253,83.049 118.576,84.976 116.855,83.255 C115.931,82.331 115.924,81.462 116.827,79.48 C118.466,75.884 118.37,68 116.687,68 C115.965,68 113.062,69.115 110.236,70.479 C105.695,72.669 105.026,73.395 104.471,76.729 C103.557,82.224 103.223,82.977 101.387,83.682 C98.708,84.71 96.537,82.58 96,78.398 C95.531,74.744 95.272,74.481 91.856,74.196 C84.164,73.554 82.836,66.831 90.275,66.194 C94.883,65.8 96.216,64.193 95.063,60.423 C94.571,58.816 93.681,55.893 93.084,53.929 C91.501,48.715 91.714,44.047 93.567,43.336 C95.827,42.469 100.098,45.06 101.238,47.989 C101.775,49.37 102.617,51.281 103.108,52.236 C103.598,53.191 104,55.056 104,56.379 C104,59.734 106.45,60.321 110.924,58.039 C117.781,54.541 120.775,51.285 122.456,45.502 C123.323,42.521 124.812,39.627 125.766,39.071 Z M86.02,129.96 C88.2,125.688 91.617,124.629 93.991,127.489 C95.553,129.371 94.562,135.283 91.927,139.807 C89.376,144.186 89.497,145.657 92.47,146.403 C95.919,147.269 103.252,154.461 102.837,156.571 C102.167,159.978 99.34,160.628 95.984,158.147 C90.047,153.757 82.09,154.056 79.575,158.764 C78.772,160.269 76.74,163.075 75.059,165 C73.379,166.925 72.004,168.819 72.002,169.208 C71.998,170.57 63.3,175 60.631,175 C55.963,175 56.17,172.156 61.168,167.6 C65.609,163.552 72,155.846 72,154.539 C72,154.169 73.171,152.332 74.602,150.456 C77.975,146.033 84,136.022 84,134.839 C84,134.334 84.909,132.138 86.02,129.96 Z"/>
</svg>

