<svg xmlns="http://www.w3.org/2000/svg" width="300" height="300" viewBox="0 0 300 300" version="1.1">
  <defs/>
  <path d="M108.309,83.25 C109.701,81.1 112.777,81.878 114.95,84.93 C116.611,87.262 117.118,89.76 117.432,97.152 C117.649,102.261 118.272,106.591 118.817,106.772 C119.361,106.954 121.779,105.101 124.191,102.655 C126.851,99.956 130.216,97.716 132.75,96.957 C136.692,95.776 137.123,95.856 140.463,98.404 C143.24,100.522 144,101.804 144,104.369 C144,108.044 141.3,117.996 139.909,119.45 C139.409,119.973 139,121.209 139,122.199 C139,123.188 137.393,127.152 135.428,131.006 C133.464,134.861 132.001,138.749 132.178,139.645 C132.381,140.674 134.421,141.766 137.706,142.606 C144.286,144.288 154.393,149.031 156.031,151.205 C156.324,151.593 159.249,153.079 162.531,154.508 C165.814,155.936 170.3,157.94 172.5,158.96 C174.7,159.98 178.525,161.619 181,162.603 C183.475,163.587 186.694,165.204 188.154,166.196 C189.614,167.188 191.125,168 191.51,168 C191.896,168 193.917,169.35 196,171 C198.083,172.65 200.144,174 200.579,174 C202.218,174 206,178.427 206,180.346 C206,187.783 195.112,187.755 190.007,180.305 C187.483,176.622 181.128,172.76 173,169.968 C166.902,167.873 146.397,157.603 143.921,155.403 C143.053,154.631 141.617,154 140.73,154 C139.844,154 138.873,153.604 138.574,153.12 C137.709,151.72 128.024,148.856 126.177,149.454 C124.314,150.057 120,155.928 120,157.86 C120,159.368 114.087,168.542 110.852,172.053 C109.558,173.457 108.007,175.482 107.404,176.553 C105.152,180.552 96.114,186.864 90.29,188.507 C81.682,190.934 81.715,190.895 76.328,204.802 C74.729,208.931 71.644,214.3 69.227,217.16 C66.877,219.941 64.499,223.068 63.942,224.108 C61.75,228.204 55.91,225.522 54.472,219.76 C53.842,217.237 54.151,216.864 58.369,215.056 C62.077,213.467 63.396,212.177 65.284,208.296 C66.566,205.658 68.733,201.7 70.099,199.5 C71.464,197.3 73.438,193.475 74.486,191 C76.855,185.404 80.575,182.083 84.527,182.036 C86.193,182.016 88.668,181.248 90.027,180.329 C93.484,177.993 101.997,169.679 101.999,168.637 C101.999,168.163 103.163,166.363 104.585,164.637 C108.886,159.417 114.107,149.741 113.794,147.569 C113.453,145.198 110.017,144.363 97.5,143.609 C90.224,143.171 89.364,142.896 88,140.572 C85.594,136.473 87.518,134.674 95.567,133.494 C101.768,132.586 102.569,132.2 103.877,129.494 C104.673,127.847 105.814,125.6 106.412,124.5 C107.088,123.258 107.5,115.297 107.5,103.5 C107.5,93.05 107.864,83.938 108.309,83.25 Z M139,181.519 C145.229,179.664 146.521,179.715 150.991,181.995 C156.655,184.885 158.561,189.364 157.047,196.23 C156.408,199.129 155.695,202.442 155.463,203.594 C155.013,205.825 144.206,222.272 142.822,222.833 C142.37,223.017 142,224.029 142,225.083 C142,226.859 142.867,227.006 153.75,227.088 C160.213,227.136 167.75,227.473 170.5,227.838 L175.5,228.5 L175.41,232.805 C175.268,239.542 173.849,240.328 164.416,238.893 C151.548,236.935 131.33,238.134 125.223,241.217 C123.685,241.994 122.074,242.061 120.262,241.423 C117.453,240.435 117.203,239.819 114.593,227.443 C113.032,220.038 108.364,211.311 102.442,204.724 C98.88,200.763 98,199.052 98,196.092 C98,191.966 99.419,190 102.395,190 C104.569,190 110,194.665 110,196.532 C110,197.169 110.892,198.497 111.981,199.483 C113.603,200.95 114.238,201.047 115.481,200.016 C116.317,199.322 117,198.006 117,197.09 C117,194.618 126.325,185.89 130.698,184.269 C132.789,183.494 136.525,182.256 139,181.519 Z M116.02,17.96 C117.511,15.038 118.659,14 120.398,14 C124.072,14 125.5,16.632 125.5,23.408 L125.5,29.5 L128.5,29.5 C131.379,29.5 131.512,29.696 131.809,34.356 C132.126,39.332 130.253,43 127.396,43 C125.347,43 120.01,49.275 120.005,51.691 C120.002,52.896 119.55,54.16 119,54.5 C118.45,54.84 118,56.13 118,57.368 C118,58.605 117.339,60.491 116.532,61.559 C115.724,62.626 115.049,64.711 115.032,66.191 C115.014,67.671 114.608,69.124 114.129,69.42 C113.65,69.716 112.986,71.318 112.654,72.979 C111.891,76.794 109.311,76.94 107.896,73.25 C107.153,71.313 107.16,68.898 107.921,65.083 C109.213,58.597 109.226,57.905 108.088,56.108 C107.362,54.961 106.678,55.093 104.199,56.858 C102.545,58.036 100.792,59 100.304,59 C99.816,59 97.497,60.956 95.151,63.347 C91.729,66.833 91.006,68.177 91.499,70.14 C91.94,71.898 91.517,73.127 89.998,74.502 C86.966,77.245 84.631,75.454 84,69.898 C83.585,66.245 83.109,65.445 81.191,65.173 C79.921,64.993 77.514,65.322 75.842,65.905 C71.59,67.387 69,65.831 69,61.794 C69,57.419 71.508,55 76.044,55 C78.245,55 80.748,54.21 82.139,53.076 L84.5,51.152 L82.634,47.326 C81.608,45.222 80.205,42.375 79.516,41 C78.828,39.625 78.473,37.923 78.727,37.218 C78.98,36.513 78.423,34.769 77.489,33.342 C76.087,31.203 76.027,30.598 77.145,29.89 C79.849,28.176 81.888,29.09 85.761,33.75 C90.622,39.601 92,42.157 92,45.327 C92,49.797 96.468,50.175 102.355,46.203 C104.635,44.664 107.202,43.136 108.061,42.807 C109.755,42.157 112,35.824 112,31.693 C112,30.277 112.45,28.84 113,28.5 C113.55,28.16 114,26.541 114,24.901 C114,23.262 114.909,20.138 116.02,17.96 Z M139.174,193.076 C136.795,193.541 132.626,195.289 129.909,196.961 C127.193,198.632 124.302,200 123.485,200 C122.588,200 122,200.942 122,202.378 C122,203.685 121.298,205.337 120.441,206.049 C119.263,207.027 119.046,208.338 119.554,211.421 C119.924,213.665 120.592,215.956 121.039,216.513 C121.485,217.07 121.997,219.32 122.175,221.513 C122.44,224.767 122.879,225.5 124.561,225.5 C126.986,225.5 136.57,215.174 139.524,209.377 C140.611,207.245 142.536,204.2 143.802,202.611 C145.437,200.56 146.017,198.698 145.802,196.189 C145.455,192.125 145.04,191.93 139.174,193.076 Z M51.676,113.805 C52.82,112.542 53.678,112.278 54.376,112.976 C54.939,113.539 56.83,114 58.578,114 C62.51,114 63.491,115.174 64.806,121.451 C65.775,126.077 65.639,126.783 62.73,132.201 C60.319,136.693 59.097,138 57.309,138 C54.732,138 54.22,135.183 55.962,130.599 C56.674,128.727 56.557,127.7 55.515,126.658 C53.667,124.81 50,118.254 50,116.798 C50,116.171 50.754,114.824 51.676,113.805 Z M36.945,158.566 C38.57,156.608 41,156.526 41,158.429 C41,159.214 40.281,160.576 39.403,161.454 C36.651,164.206 38.411,166 43.863,166 C47.95,166 49.333,166.508 51.983,168.984 C56.961,173.634 55.814,174.381 43.605,174.444 C31.352,174.508 30,173.751 30,166.835 C30,163.695 30.48,162.803 32.823,161.592 C34.375,160.789 36.23,159.427 36.945,158.566 Z M126.229,112.171 C125.553,112.847 125,113.812 125,114.316 C125,114.82 122.521,117.91 119.491,121.183 C110.848,130.519 109.308,135.044 114.319,136.388 C118.762,137.579 120.086,137.026 121.824,133.25 C122.773,131.188 124.776,127.596 126.275,125.27 C127.774,122.943 129,120.446 129,119.72 C129,118.994 129.488,117.912 130.085,117.315 C131.592,115.808 130.824,111.582 128.979,111.231 C128.143,111.072 126.905,111.495 126.229,112.171 Z"/>
</svg>

