<svg xmlns="http://www.w3.org/2000/svg" width="300" height="300" viewBox="0 0 300 300" version="1.1">
  <defs/>
  <path d="M106.09,86.018 C116.376,80.278 121.251,86.097 121.075,103.906 C121.019,109.638 120.581,114.817 120.102,115.414 C119.623,116.011 118.901,118.075 118.498,120 C118.095,121.925 116.918,125.272 115.883,127.438 C114.847,129.604 114,132.588 114,134.07 C114,135.86 112.707,138.064 110.15,140.632 C105.32,145.485 103.696,150.23 104.582,156.907 C105.342,162.637 106.511,163.196 111.019,159.987 C114.516,157.496 128.936,152.087 135,150.99 C139.006,150.266 149.032,150.959 157.5,152.545 C162.85,153.547 167.427,156.158 170.956,160.221 C174.154,163.903 174.411,164.694 174.404,170.85 C174.398,176.896 172.206,186.113 169.851,190 C169.351,190.825 168.655,192.372 168.305,193.438 C167.955,194.503 166.399,197.878 164.847,200.938 C163.295,203.997 162.02,206.995 162.013,207.601 C162.006,208.207 160.875,210.818 159.5,213.404 C156.35,219.328 156.32,223.986 159.399,228.771 C160.718,230.822 162.358,234.3 163.043,236.5 C163.729,238.7 164.865,241.85 165.569,243.5 C168.731,250.914 170.838,256.769 171.507,260 C171.905,261.925 172.642,264.012 173.145,264.638 C173.648,265.264 173.759,267.657 173.391,269.956 C172.595,274.935 169.662,277.283 164.821,276.819 C161.909,276.539 161.546,276.192 161.872,274 C163.013,266.345 162.195,261.21 158.29,251.5 C156.078,246 153.74,239.588 153.094,237.25 C151.479,231.404 149.5,231.844 146.352,238.75 C144.91,241.912 142.441,246.381 140.865,248.68 C139.289,250.979 138,253.314 138,253.869 C138,254.423 135.266,258.505 131.925,262.938 C124.014,273.438 123.142,273.459 115.07,263.347 C111.71,259.137 108.718,254.525 108.42,253.097 C108.123,251.669 107.45,249.709 106.926,248.742 C105.162,245.488 103.266,235.425 103.383,229.941 C103.482,225.355 103.791,224.5 105.35,224.5 C106.651,224.5 107.765,225.986 109.099,229.5 C110.144,232.25 110.999,235.353 110.999,236.395 C111,237.437 112.564,241.543 114.476,245.518 C116.388,249.493 118.402,253.928 118.952,255.373 C120.744,260.087 123.344,258.674 127.458,250.75 C129.528,246.762 131.96,242.6 132.861,241.5 C136.508,237.049 144,222.24 144,219.48 C144,218.251 143.325,216.685 142.5,216 C141.675,215.315 141,214.167 141,213.449 C141,212.731 140.299,211.442 139.442,210.585 C138.585,209.728 135.323,203.959 132.192,197.764 C128.457,190.373 125.865,186.383 124.654,186.158 C123.429,185.931 121.132,187.697 117.824,191.408 C115.083,194.484 112.445,197 111.963,197 C111.48,197 108.372,199.561 105.056,202.69 C101.586,205.965 97.005,209.155 94.263,210.205 C89.537,212.015 89.486,212.012 87.75,209.904 C85.532,207.21 85.547,205.263 87.817,201.5 C90.367,197.274 93.378,185.978 92.255,184.855 C91.434,184.034 71.029,203.598 70.175,206.025 C69.997,206.533 70.559,207.96 71.425,209.197 C72.291,210.433 73,213.174 73,215.288 C73,217.402 73.537,220.114 74.194,221.316 C74.924,222.651 75.312,227.114 75.194,232.8 C74.968,243.593 73.237,248.316 69.692,247.812 C67.853,247.55 67.46,246.776 67.248,243 C66.768,234.403 64.788,222 63.897,222 C63.404,222 63,220.473 63,218.607 C63,212.591 60.583,213.252 51.142,221.853 C42.971,229.296 32.952,236 29.998,236 C28.006,236 25,232.945 25,230.921 C25,229.948 26.387,228.105 28.081,226.826 C29.776,225.547 32.387,223.259 33.885,221.742 C35.382,220.226 38.19,218.178 40.125,217.191 C44.604,214.908 52.197,208.577 54.993,204.796 L57.15,201.878 L53.953,195.248 C52.194,191.601 48.634,186.069 46.042,182.955 C41.783,177.838 41.337,176.819 41.414,172.396 C41.493,167.881 41.704,167.476 44.125,167.196 C46.224,166.952 47.676,167.95 51.375,172.178 C53.919,175.086 56,177.841 56,178.3 C56,178.758 57.125,180.608 58.5,182.411 C59.875,184.214 61,186.14 61,186.691 C61,188.708 64.182,194 65.395,194 C66.082,194 69.882,190.963 73.838,187.25 C77.795,183.537 84.155,178.087 87.972,175.138 C95.451,169.358 94.97,170.383 96.36,157.25 C96.909,152.061 95.461,151.716 89.749,155.674 C86.57,157.877 85.416,158.182 83.195,157.405 C79.179,156.001 78.908,151.317 82.662,148.182 C84.232,146.871 85.005,145.615 84.392,145.37 C80.954,143.999 79.93,142.216 79.579,136.995 C79.201,131.379 77.99,127.463 73.679,117.914 C72.334,114.936 70.903,111.414 70.498,110.086 C70.093,108.758 68.276,105.605 66.46,103.078 C62.473,97.528 61.552,94.309 62.92,90.711 C63.648,88.796 64.66,88 66.364,88 C69.889,88 72.491,90.628 76.748,98.49 C78.83,102.334 81.205,105.608 82.025,105.766 C82.879,105.931 84.333,104.537 85.429,102.503 C87.533,98.595 97.007,90 99.209,90 C99.974,90 101.068,89.532 101.64,88.96 C102.212,88.388 104.214,87.064 106.09,86.018 Z M108.086,17.138 C110.686,14.347 112.783,14.429 114.124,17.374 C114.903,19.083 114.897,20.323 114.103,21.808 C112.635,24.55 112.705,27 114.25,27 C114.938,27 116.931,25.313 118.679,23.25 C121.348,20.101 122.15,19.677 123.679,20.601 C124.789,21.273 125.622,23.145 125.813,25.4 C126.098,28.759 125.59,29.62 120.271,34.799 C116.593,38.38 113.379,42.731 111.627,46.5 C104.689,61.428 102.373,65.497 100.62,65.835 C99.005,66.146 98.846,65.664 99.303,61.844 C99.589,59.455 100.139,56.27 100.525,54.767 C100.911,53.263 100.937,51.279 100.584,50.358 C100.025,48.903 99.565,49.043 97.079,51.425 C95.505,52.933 93.955,55.367 93.635,56.833 C92.859,60.394 92.168,61.202 87.673,63.806 C82.767,66.649 81.637,65.906 82.465,60.382 C83.056,56.446 82.919,56 81.12,56 C80.019,56 78.84,56.45 78.5,57 C77.45,58.698 73.405,58.105 71.473,55.97 C68.455,52.636 70.453,48.951 76.493,46.709 C85.066,43.526 85.632,42.04 81.451,33.716 C79.681,30.192 78.994,27.398 79.201,24.571 C79.46,21.044 79.841,20.46 82.055,20.202 C85.422,19.81 90,23.447 90,26.514 C90,27.816 90.45,29.16 91,29.5 C91.55,29.84 92,30.942 92,31.948 C92,32.955 92.806,34.774 93.791,35.99 C95.509,38.111 95.733,38.138 99.291,36.652 C102.53,35.298 103,34.675 103,31.729 C103,27.267 105.601,19.806 108.086,17.138 Z M133.161,162.621 C130.013,163.995 129.905,164.206 131.267,166.289 C132.062,167.505 133.922,172.1 135.401,176.5 C136.88,180.9 138.491,185.4 138.981,186.5 C142.165,193.64 147.241,204.729 147.882,205.94 C149.317,208.656 150.852,208.114 152.497,204.308 C153.403,202.214 155.455,197.691 157.058,194.258 C160.632,186.607 164,176.776 164,173.999 C164,172.864 163.393,170.482 162.65,168.706 C161.526,166.014 160.234,165.101 154.9,163.228 C147.521,160.636 138.298,160.378 133.161,162.621 Z M113.5,169.132 C105.757,172.265 102.939,175.797 101.634,184 C101.328,185.925 100.783,188.512 100.422,189.75 C99.156,194.095 102.437,192.053 110.074,183.742 C119.037,173.989 121.424,170.548 120.641,168.508 C119.92,166.628 119.626,166.653 113.5,169.132 Z M103.827,99.7 C101.997,101.185 100.351,102.496 100.169,102.614 C99.987,102.732 100.34,103.767 100.954,104.914 C102.218,107.276 107.768,107.832 109.8,105.8 C112.111,103.489 110.693,97 107.877,97 C107.479,97 105.656,98.215 103.827,99.7 Z M86.973,111.529 C85.472,113.126 84.516,115.399 84.442,117.548 C84.338,120.525 84.641,121 86.638,121 C89.683,121 92.224,117.025 91.819,112.898 C91.409,108.726 89.984,108.323 86.973,111.529 Z M90.667,131.667 C89.63,132.703 89.882,139.809 90.979,140.487 C91.518,140.82 92.868,140.606 93.979,140.011 C95.485,139.205 96,137.92 96,134.965 C96,131.478 95.719,131 93.667,131 C92.383,131 91.033,131.3 90.667,131.667 Z M105.583,122.866 C105.152,123.563 105.07,124.403 105.4,124.733 C106.295,125.628 107.271,124.312 106.787,122.862 C106.449,121.846 106.213,121.846 105.583,122.866 Z"/>
</svg>

