<svg xmlns="http://www.w3.org/2000/svg" width="300" height="300" viewBox="0 0 300 300" version="1.1">
  <defs/>
  <path d="M114.345,60.25 C115.785,57.922 118.819,58.984 121.921,62.901 C124.935,66.706 124.982,66.926 123.835,71.897 C123.188,74.699 122.989,77.323 123.394,77.727 C123.798,78.132 125.487,77.683 127.146,76.731 C131.069,74.48 133.53,74.546 137.52,77.013 C140.157,78.642 140.905,79.882 141.452,83.526 C142.259,88.913 141.877,90.384 137.263,99.642 C133.329,107.537 133.44,110 137.733,110 C139.271,110 142.209,110.9 144.261,112 C146.314,113.1 149.27,114 150.831,114 C152.392,114 156.332,114.862 159.585,115.915 C162.838,116.969 170.225,119.011 176,120.455 C194.481,125.074 201.445,127.118 203.75,128.6 C206.532,130.388 206.668,134.085 204.04,136.464 C201.816,138.477 196.827,137.996 191.535,135.26 C186.254,132.529 173.88,129 169.583,129 C167.307,129 164.517,128.35 163.383,127.556 C161.595,126.303 153.434,124.624 150.5,124.904 C149.95,124.957 149.455,126.284 149.4,127.853 C149.264,131.727 148.345,132.958 144.334,134.634 C140.157,136.379 138.905,138.953 141.513,140.436 C142.541,141.021 144.442,142.513 145.738,143.751 L148.093,146.002 L145.099,149.751 C142.589,152.894 141.996,154.731 141.427,161.113 C140.976,166.181 141.11,168.95 141.828,169.394 C143.307,170.308 159.223,161.568 164.678,156.846 C167.122,154.731 169.621,153 170.232,153 C172.509,153 175,156.385 175,159.481 C175,163.339 172.22,166.161 166,168.617 C163.525,169.594 159.424,171.878 156.886,173.693 C154.348,175.507 150.245,177.889 147.768,178.984 C145.291,180.08 142.859,181.544 142.364,182.238 C141.869,182.932 141.472,190.216 141.482,198.423 L141.5,213.347 L144.5,214.218 C146.15,214.697 150.65,215.483 154.5,215.965 C158.35,216.446 164.425,217.591 168,218.508 C171.575,219.426 179,220.833 184.5,221.636 C190,222.438 199.45,223.981 205.5,225.064 C211.55,226.147 217.851,227.025 219.502,227.016 C221.153,227.007 227.228,227.91 233.002,229.023 C238.776,230.135 244.435,230.821 245.577,230.547 C247.025,230.2 248.576,231.026 250.694,233.274 C254.808,237.642 255.392,240.553 252.667,243.108 C250.877,244.785 249.717,245.024 246,244.481 C243.525,244.119 240.15,242.809 238.5,241.569 C236.377,239.973 233.494,239.13 228.635,238.684 C224.859,238.337 221.221,237.598 220.55,237.041 C219.879,236.484 215.543,235.813 210.915,235.549 C200.535,234.957 185.843,233.16 180.5,231.829 C178.3,231.281 173.575,230.391 170,229.85 C166.425,229.309 163.072,228.447 162.55,227.933 C162.027,227.42 159.76,227 157.511,227 C155.263,227 151.667,226.105 149.52,225.01 C145.974,223.203 145.406,223.159 143.309,224.533 C141.108,225.975 140.393,228.793 140.779,234.5 C140.853,235.6 141.166,245.95 141.473,257.5 C141.781,269.05 142.272,279.262 142.566,280.194 C143.414,282.887 138.581,285.586 135.459,284.163 C133.059,283.07 132.997,282.759 132.895,271.271 C132.837,264.797 132.689,257.7 132.566,255.5 C132.444,253.3 132.23,245.427 132.091,238.005 C131.953,230.583 131.39,223.97 130.842,223.31 C129.872,222.141 126.392,221.302 113,219.009 C85.86,214.363 81.223,213.538 74.114,212.094 C66.557,210.559 60.827,210.732 58.196,212.575 C55.322,214.589 45.601,215.623 42.704,214.224 C41.492,213.638 38.378,212.909 35.785,212.603 C33.001,212.275 30.032,211.145 28.535,209.844 C23.461,205.432 26.052,201.692 36.396,198.501 C43.21,196.399 44.587,196.28 50.472,197.288 C59.335,198.806 60.123,197.931 56.766,190.294 C52.284,180.095 51.682,177.32 52.899,172.486 C54.509,166.092 54.254,162.266 52.014,159.21 C50.921,157.719 49.744,155.059 49.398,153.298 C48.848,150.498 49.073,150.02 51.194,149.487 C52.528,149.153 55.618,149.574 58.06,150.425 C64.105,152.53 66.631,152.398 73.56,149.613 C84.241,145.322 86.64,144.138 88.013,142.485 C88.757,141.588 90.971,140.031 92.933,139.025 C96.577,137.157 108.358,125.499 113.425,118.748 C116.945,114.057 115.795,112.007 109.628,111.985 C100.76,111.954 96.926,106.325 102.883,102.083 C108.951,97.763 114.39,81.13 113.864,68.507 C113.703,64.653 113.92,60.938 114.345,60.25 Z M124.893,119.809 C124.009,120.739 121.618,123.709 119.58,126.41 C117.541,129.11 114.214,132.616 112.187,134.202 C110.159,135.787 107.81,137.628 106.966,138.292 C106.122,138.956 102.972,141.575 99.966,144.112 C96.96,146.649 92.475,149.631 90,150.739 C77.637,156.274 75.144,157.176 70.758,157.705 C65.107,158.386 64.391,159.12 63.639,165 C63.323,167.475 62.782,171.357 62.439,173.627 C61.887,177.268 62.285,178.503 65.821,184.127 C68.25,187.99 70.102,192.358 70.523,195.218 C70.905,197.813 71.791,200.412 72.493,200.994 C73.195,201.576 77.533,202.712 82.134,203.519 C86.735,204.325 94.1,205.842 98.5,206.89 C108.458,209.263 128.907,211.493 130.067,210.333 C130.539,209.861 131.23,205.157 131.601,199.881 C132.324,189.594 131.493,187.339 128.108,190.402 C127.137,191.281 125.885,192 125.326,192 C124.767,192 123.546,192.845 122.612,193.877 C121.677,194.909 118.513,196.508 115.58,197.431 C112.647,198.354 109.213,200.209 107.949,201.554 C106.401,203.202 104.561,204 102.31,204 C99.465,204 98.715,203.471 97.273,200.446 C94.6,194.842 95.242,194.251 113,185.967 C121.355,182.069 122.736,181.319 128.246,177.682 C130.72,176.049 131,175.28 131,170.132 C131,164.96 129.863,162 127.877,162 C127.479,162 125.881,163.055 124.327,164.345 C118.38,169.279 111.184,167.853 109.569,161.42 C108.686,157.899 110.494,156 114.729,156 C117.058,156 119.42,155.045 121.856,153.119 C123.86,151.534 126.4,150.067 127.5,149.86 C128.834,149.609 129.608,148.542 129.825,146.657 C130.436,141.334 129.559,140.755 124.562,143.182 C120.187,145.308 120.008,145.317 118.032,143.529 C115.133,140.905 115.441,137.392 118.75,135.343 C123.074,132.665 128,127.753 128,126.118 C128,125.299 128.947,123.621 130.105,122.388 C131.262,121.156 131.911,119.665 131.546,119.074 C130.552,117.465 126.718,117.889 124.893,119.809 Z M119.607,3.582 C121.132,-0.392 130,3.783 130,8.474 C130,9.643 130.415,11.027 130.923,11.55 C131.431,12.072 131.993,13.805 132.173,15.399 C132.732,20.358 134.906,20.7 142.463,17.018 C147.96,14.34 149.378,13.986 150.092,15.114 C151.462,17.278 151.148,19.181 148.705,23.5 C146.779,26.906 145.499,27.825 140.085,29.686 C136.589,30.888 133.261,32.339 132.69,32.91 C132.12,33.48 131.522,36.96 131.363,40.642 C131.084,47.096 130.185,48.948 127.309,48.985 C125.545,49.007 124.614,47.031 124.026,42.011 C123.194,34.915 121.162,35.314 110.076,44.75 C107.976,46.538 105.576,48 104.744,48 C103.32,48 100.845,50.964 98.483,55.5 C97.052,58.246 93.587,58.113 93.187,55.297 C92.691,51.815 89.4,51.458 85.465,54.459 C81.314,57.625 78.601,56.756 77.641,51.954 C76.749,47.493 78.269,45.429 84.771,42.277 L90.5,39.5 L90.146,35.069 C89.952,32.632 88.89,29.418 87.787,27.926 C85.2,24.427 83.587,16.202 85.125,14.35 C86.792,12.341 89.651,12.713 92.043,15.25 C94.928,18.312 97.995,24.82 98.022,27.938 C98.034,29.347 98.887,31.596 99.916,32.935 C101.724,35.286 101.875,35.312 104.362,33.683 C105.777,32.755 109.538,31.053 112.718,29.9 C115.898,28.747 119.287,26.898 120.25,25.791 C122.351,23.375 122.465,18.437 120.5,15 C119.021,12.412 118.546,6.346 119.607,3.582 Z M61.2,116.2 C61.86,115.54 63.65,115 65.177,115 C68.793,115 70.652,117.951 71.51,125.052 C72.26,131.26 70.959,133.417 66.819,132.827 C65.057,132.576 64.394,131.676 63.951,128.937 C63.635,126.978 62.616,124.29 61.688,122.965 C59.7,120.127 59.537,117.863 61.2,116.2 Z M122.632,95.083 C119.955,97.237 117.336,99 116.812,99 C116.289,99 116.005,100.013 116.18,101.25 C116.423,102.958 117.26,103.574 119.656,103.806 C122.263,104.059 123.275,103.506 125.474,100.622 C127.295,98.235 128.036,96.189 127.818,94.149 L127.5,91.165 Z M133,120.965 C133,122.381 136.927,124.242 138.578,123.608 C139.36,123.308 140,122.374 140,121.531 C140,120.448 138.976,120 136.5,120 C134.575,120 133,120.434 133,120.965 Z"/>
</svg>

