<svg xmlns="http://www.w3.org/2000/svg" width="300" height="300" viewBox="0 0 300 300" version="1.1">
  <defs/>
  <path d="M164.407,162.15 C164.837,161.454 166.384,161.024 167.844,161.193 C170.461,161.495 170.509,161.64 171.112,171 C171.862,182.637 172.704,186.006 174.858,185.982 C176.338,185.966 180.589,183.191 194.354,173.253 C199.896,169.252 202,169.74 202,175.025 C202,178.251 201.498,179.147 198.733,180.856 C196.936,181.967 194.383,184.028 193.059,185.438 C191.704,186.88 189.525,188.01 188.076,188.022 C184.584,188.051 176.733,196.237 175.062,201.59 C173.801,205.631 174.008,211.593 175.685,219.5 C176.473,223.217 176.815,223.539 180.516,224.047 C184.395,224.579 191.2,227.536 199.669,232.369 C201.961,233.677 205.111,235.245 206.669,235.853 C213.644,238.577 247.914,257.839 251.5,261.052 C252.6,262.037 256.875,264.746 261,267.072 C271.125,272.781 275.04,275.693 279.354,280.725 C281.18,282.855 281.158,282.948 277.854,286.925 C276.009,289.147 273.868,290.972 273.096,290.982 C271.565,291.002 264.938,283.778 263.782,280.83 C263.387,279.824 262.379,279 261.541,279 C260.703,279 257.954,277.425 255.432,275.5 C252.91,273.575 250.369,272 249.786,272 C249.202,272 246.424,270.17 243.612,267.933 C234.795,260.919 225.012,255.013 209.5,247.341 C201.25,243.26 193.375,239.239 192,238.406 C183.938,233.52 176.314,232.57 176.693,236.5 C177.479,244.656 178.836,292.01 178.34,294 C177.394,297.801 175.002,300 171.814,300 C169.947,300 168.747,299.386 168.396,298.25 C168.098,297.288 167.437,295.719 166.927,294.764 C165.25,291.623 165.89,288.302 168.5,286.592 C170.79,285.092 170.998,284.345 170.976,277.727 C170.962,273.752 170.504,268.563 169.958,266.195 C169.412,263.828 168.572,254.378 168.091,245.195 C167.609,236.013 166.693,227.17 166.054,225.543 L164.892,222.587 L162.155,225.543 C160.649,227.17 158.847,229.895 158.15,231.6 C157.452,233.305 155.05,236.435 152.812,238.556 C150.574,240.677 146.256,246.257 143.217,250.956 C133.243,266.375 131.107,269.458 127.945,273 C126.226,274.925 124.171,277.982 123.378,279.794 C122.586,281.605 121.164,283.366 120.218,283.706 C119.273,284.047 117.306,285.152 115.846,286.163 C112.22,288.672 110.103,288.473 106.805,285.313 C104.684,283.281 104,281.688 104,278.782 C104,274.709 106.143,272.743 108.267,274.867 C108.89,275.49 110.192,276 111.16,276 C113.179,276 121.431,267.576 124.72,262.158 C125.942,260.146 127.692,257.488 128.609,256.252 C130.898,253.167 138.586,241.164 140.62,237.5 C141.536,235.85 144.222,231.523 146.59,227.884 C151.536,220.283 153.028,216 150.731,216 C149.914,216 148.697,216.661 148.026,217.468 C147.356,218.276 144.714,220.127 142.154,221.583 C139.594,223.038 135.613,225.302 133.308,226.614 C131.002,227.926 128.259,229 127.213,229 C125.216,229 122.709,226.647 121.719,223.844 C121.038,221.914 123.85,219 126.393,219 C129.055,219 137.881,214.461 144,209.944 C147.025,207.712 151.819,204.35 154.653,202.474 C163.882,196.365 164.029,195.979 163.814,178.571 C163.71,170.235 163.978,162.845 164.407,162.15 Z M146.206,37.465 C148.357,34.731 149.23,34.518 152.066,36.035 C154.226,37.191 154.606,39.994 152.842,41.758 C151.966,42.634 151.995,43.289 152.965,44.458 C154.66,46.5 155.08,46.435 159.49,43.443 C163.673,40.604 166,40.832 166,44.082 C166,48.107 162.052,53.414 156.949,56.25 C153.661,58.077 152,59.651 152,60.941 C152,62.008 151.55,63.16 151,63.5 C150.45,63.84 150,65.19 150,66.5 C150,67.81 149.562,69.153 149.027,69.483 C148.491,69.814 147.341,71.753 146.47,73.792 C145.599,75.832 143.837,79.75 142.554,82.5 C141.271,85.25 139.961,88.287 139.642,89.25 C138.912,91.455 136.141,91.531 135.311,89.368 C134.966,88.47 135.205,86.901 135.842,85.881 C136.479,84.861 137,83.048 137,81.851 C137,80.655 137.759,77.268 138.687,74.325 C141.15,66.51 139.683,65.675 132.316,70.7 L126.5,74.667 L126.204,80.749 C125.75,90.093 122.145,91.717 119.537,83.751 C118.412,80.314 117.458,80.081 110.477,81.532 C108.189,82.008 107.016,81.675 105.647,80.163 C102.541,76.731 103.891,74.018 110.472,70.469 L116.444,67.247 L116.472,57.374 L116.5,47.5 L119.193,47.189 C121.331,46.942 122.206,47.498 123.443,49.889 C124.299,51.546 125,54.287 125,55.982 C125,60.373 127.23,60.699 132.659,57.102 C135.235,55.396 137.915,54 138.615,54 C140.713,54 142.947,49.877 143.627,44.751 C143.979,42.1 145.14,38.821 146.206,37.465 Z M143.291,141.509 C146.072,139.561 148.46,139.6 151.583,141.646 C156.383,144.791 158.712,155.355 155.532,159.559 C154.724,160.626 154.022,162.625 153.97,164 C153.852,167.189 147.312,177.723 143.875,180.264 C141.742,181.84 140.851,181.991 139.125,181.067 C137.956,180.441 137,179.448 137,178.859 C137,178.27 135.91,176.93 134.577,175.882 C133.244,174.833 131.865,172.662 131.512,171.057 C131.16,169.452 130.225,167.602 129.436,166.947 C128.646,166.291 128,165.18 128,164.476 C128,163.773 126.404,161.915 124.453,160.348 C117.424,154.705 116,153.059 116,150.581 C116,147.869 118.47,146 122.052,146 C123.266,146 126.011,147.776 128.235,150 C130.435,152.2 132.824,154 133.544,154 C134.264,154 136.267,151.529 137.995,148.509 C139.723,145.489 142.106,142.339 143.291,141.509 Z M151.2,83.2 C153.664,80.736 162,82.625 162,85.647 C162,86.579 162.75,88.171 163.667,89.184 C165.271,90.957 165.455,90.894 168.552,87.513 C172.843,82.828 177.854,82.582 180.932,86.904 C183.108,89.96 183.626,94.84 182.085,97.764 C181.581,98.719 180.218,102.705 179.055,106.621 C176.32,115.836 170.637,124.099 166.15,125.386 C161.787,126.637 161.035,125.38 161.015,116.809 C161.007,113.129 160.55,109.84 160,109.5 C159.45,109.16 159,107.645 159,106.132 C159,104.62 158.339,102.509 157.532,101.441 C156.724,100.374 156.031,98.825 155.991,98 C155.951,97.175 154.587,94.942 152.959,93.038 C149.881,89.437 149.135,85.265 151.2,83.2 Z M191,133.294 C192.412,132.58 193.155,132.195 193.927,132.121 C194.83,132.035 195.773,132.373 197.872,133.105 C199.616,133.713 201.514,135.092 202.091,136.17 C203.296,138.422 202.261,155.721 200.869,156.581 C200.391,156.876 199.986,158.104 199.968,159.309 C199.917,162.859 197.315,165.428 193.732,165.466 C190.943,165.495 190.456,165.885 190.178,168.309 C190.001,169.854 189.2,171.37 188.398,171.678 C186.515,172.4 183,168.357 183,165.469 C183,164.246 182.325,162.685 181.5,162 C180.675,161.315 180,159.685 180,158.378 C180,157.07 179.55,156 179,156 C178.45,156 178,155.266 178,154.368 C178,152.183 174.329,146.173 170.833,142.631 C166.042,137.78 167.488,133 173.745,133 C177.039,133 182,136.579 182,138.955 C182,141.175 185.936,139.906 187.195,137.279 C187.913,135.783 189.625,133.989 191,133.294 Z M110.816,194.282 C112.523,192.876 114,193.471 114,195.564 C114,196.359 112.875,199.342 111.5,202.192 C110.125,205.042 108.986,208.078 108.968,208.937 C108.951,209.797 108.276,211.374 107.468,212.441 C106.661,213.509 106,215.62 106,217.132 C106,218.645 105.55,220.16 105,220.5 C104.45,220.84 104,222.19 104,223.5 C104,224.81 103.55,226.16 103,226.5 C102.45,226.84 102,228.18 102,229.478 C102,230.776 101.247,233.337 100.326,235.169 C99.406,237.001 97.977,239.85 97.151,241.5 C93.014,249.766 90.962,252.13 88.206,251.811 C84.154,251.343 82.826,247.647 83.744,239.394 C84.428,233.236 84.738,232.532 87,231.999 C89.62,231.382 91.659,228.226 98.632,214 C102.789,205.519 108.609,196.101 110.816,194.282 Z M82.166,130.786 C84.944,128.584 89.733,128.967 93.396,131.683 C96.824,134.224 98.652,141.012 96.989,145.026 C95.156,149.452 92.521,150.581 90.559,147.781 C89.702,146.557 89,145.014 89,144.352 C89,143.691 87.088,142.098 84.75,140.812 C79.494,137.921 78.42,133.754 82.166,130.786 Z M65.418,182.917 C65.647,182.688 69.853,182.5 74.764,182.5 C83.589,182.5 87,183.583 87,186.387 C87,189.54 69.503,193.492 66.516,191.013 C65.16,189.888 64.358,183.974 65.418,182.917 Z M142.652,154.389 C141.194,156.302 140,158.482 140,159.233 C140,159.985 139.515,161.085 138.922,161.678 C137.039,163.561 138.233,168.462 140.659,168.808 C142.429,169.06 143.39,167.954 145.993,162.666 C149.299,155.951 149.633,151.736 146.902,151.216 C146.015,151.047 144.126,152.457 142.652,154.389 Z M189.2,145.2 C187.723,146.677 187.601,158.386 189.035,161.066 C190.814,164.39 192,163.196 192,158.081 C192,155.312 192.731,151.889 193.672,150.249 C194.591,148.648 195.055,146.586 194.703,145.668 C193.957,143.726 190.932,143.468 189.2,145.2 Z M169.174,99.315 C167.048,101.578 167.024,101.814 168.554,105.476 C169.912,108.724 170.348,109.079 171.53,107.892 C173.209,106.204 173.929,97.869 172.442,97.339 C171.861,97.131 170.39,98.021 169.174,99.315 Z"/>
</svg>

