<svg xmlns="http://www.w3.org/2000/svg" width="300" height="300" viewBox="0 0 300 300" version="1.1">
  <defs/>
  <path d="M129.123,132.75 C137.333,126.346 140.822,125.544 144.686,129.174 C145.958,130.37 147,131.846 147,132.453 C147,134.309 140.212,140.672 136.244,142.537 C134.185,143.504 132.275,144.568 132,144.901 C131.725,145.233 129.7,146.742 127.5,148.254 C125.3,149.765 121.311,153.062 118.635,155.581 C113.89,160.047 113.789,160.263 114.556,164.33 C114.988,166.623 115.454,170.3 115.591,172.5 C116.04,179.696 118.082,189.452 119.64,191.842 C121.011,193.945 130.505,199 133.083,199 C135.353,199 156.552,209.434 170.014,217.178 C177.492,221.479 180.647,223.794 198.259,237.902 C203.342,241.973 209.77,246.765 212.543,248.551 C215.317,250.336 218.185,252.518 218.916,253.399 C219.647,254.279 220.752,255.005 221.372,255.012 C223.584,255.035 238,268.179 238,270.172 C238,273.767 236.084,276 233,276 C230.365,276 227.055,273.822 221.091,268.162 C220.316,267.426 217.166,264.985 214.091,262.736 C211.016,260.488 207.15,257.387 205.5,255.846 C199.781,250.503 192.874,245 191.886,245 C190.82,245 175.804,234.874 172.5,231.927 C166.511,226.584 145.743,214.696 132.5,209.03 C129.75,207.853 126.547,206.421 125.381,205.847 C124.216,205.273 122.425,204.964 121.402,205.161 C119.678,205.493 119.554,206.593 119.728,220.01 C119.928,235.439 118.558,254.072 116.769,260.25 C115.739,263.81 115.472,264 111.516,264 C105.895,264 102.709,260.703 102.587,254.762 C102.498,250.38 103.23,249.841 107.107,251.441 C109.307,252.349 109.895,247.041 109.426,230.5 C109.223,223.35 109.073,214.267 109.094,210.315 C109.124,204.358 108.778,202.778 107.065,201.065 C103.946,197.946 98.692,198.285 96.452,201.75 C95.474,203.262 90.922,208.602 86.337,213.616 C81.752,218.63 78,223.338 78,224.078 C78,224.819 76.878,226.567 75.507,227.962 C74.136,229.358 70.874,232.919 68.257,235.876 C65.641,238.833 61.25,242.696 58.5,244.46 C55.75,246.225 52.882,248.418 52.128,249.334 C50.231,251.636 44.811,251.426 41.635,248.927 C38.353,246.346 38.068,240.699 41.039,237.132 C42.659,235.187 43.278,234.986 44.506,236.005 C45.328,236.687 46,237.865 46,238.622 C46,239.387 47.001,239.996 48.25,239.99 C50.779,239.979 57.486,232.905 70.997,216 C75.612,210.225 81.232,203.475 83.485,201 C85.739,198.525 90.939,191.64 95.041,185.7 C103.84,172.96 105.383,170.761 104.815,169.559 C104.686,169.287 104.449,169.066 104.164,168.785 C103.098,167.736 102.55,167.874 101.179,169.538 C99.467,171.616 90.658,178 89.503,178 C89.153,178 87.392,179.125 85.589,180.5 C83.786,181.875 81.904,183.001 81.406,183.002 C80.908,183.004 77.854,184.802 74.62,186.999 C71.387,189.195 66.967,191.47 64.8,192.054 C62.633,192.637 59.428,193.987 57.68,195.054 C53.546,197.574 51.696,197.503 48.433,194.696 C46.242,192.811 45.873,191.853 46.406,189.426 C46.765,187.795 48.085,185.172 49.341,183.597 C51.502,180.886 51.806,180.8 55.062,181.974 C58.332,183.152 59.014,182.949 69,177.824 C74.775,174.861 80.624,171.775 81.998,170.968 C85.69,168.799 101.137,156.449 112.126,146.881 C117.42,142.271 125.068,135.912 129.123,132.75 Z M73.844,63.25 C76.349,61.214 77.833,61.783 80.362,65.75 C82.543,69.17 82.64,69.808 81.462,73 C78.893,79.963 78.77,82 80.922,82 C82,82 83.16,81.55 83.5,81 C84.553,79.297 90.601,79.898 93.232,81.968 C96.018,84.16 97.653,90.912 96.1,93.814 C95.586,94.774 94.713,98.823 94.16,102.81 C93.147,110.124 91.77,113.424 82.712,130.258 C80.121,135.074 78,139.664 78,140.458 C78,144.463 63.397,164 60.403,164 C59.587,164 57.11,164.924 54.898,166.052 C52.123,167.468 49.421,168.011 46.187,167.802 C41.935,167.528 41.5,167.268 41.5,165 C41.5,163.013 42.116,162.385 44.5,161.941 C54.662,160.048 62.23,151.047 71.356,130 C71.952,128.625 73.916,125.129 75.72,122.231 C77.524,119.332 79,116.395 79,115.703 C79,115.011 79.63,113.545 80.4,112.446 C82.292,109.745 83.635,99 82.081,99 C80.963,99 68,111.458 68,112.533 C68,112.828 68.744,114.205 69.653,115.592 C71.213,117.974 71.191,118.265 69.262,120.807 C68.039,122.419 66.473,123.367 65.359,123.169 C57.666,121.798 56.844,121.831 54.897,123.593 C52.533,125.733 50.364,124.825 48.033,120.72 C45.792,116.774 48.485,114.452 57.087,112.915 C63.748,111.725 65.205,110.863 62.929,109.456 C61.785,108.749 62.604,101.283 64.021,99.5 C65.954,97.068 68.955,86.191 70.561,75.797 C71.675,68.578 72.861,64.049 73.844,63.25 Z M114.557,6.223 C115.413,5 116.732,4 117.489,4 C119.591,4 122.979,9.366 122.363,11.721 C121.629,14.527 123.719,15.564 125.981,13.518 C127.001,12.595 128.885,11.988 130.168,12.17 C134.178,12.738 133.623,16.342 128.5,23 C125.95,26.314 121.944,32.732 119.597,37.263 C116.508,43.228 114.803,45.5 113.416,45.5 C111.99,45.5 111.37,44.605 110.99,42 C110.534,38.866 110.179,38.522 107.607,38.707 C103.039,39.035 97,43.75 97,46.988 C97,49.917 93.571,55.646 90.778,57.384 C88.295,58.928 86.877,57.09 86.249,51.513 C85.744,47.037 85.62,46.883 83.112,47.617 C81.675,48.037 78.7,48.408 76.5,48.44 C72.681,48.497 72.486,48.349 72.18,45.156 C71.791,41.105 73.894,38.471 78.206,37.609 C79.913,37.267 81.915,36.486 82.655,35.872 C84.177,34.608 84.421,30.83 83.147,28.236 C76.824,15.362 76.708,11 82.688,11 C87.884,11 89.545,13.06 93.571,24.5 C94.539,27.25 95.651,29.873 96.044,30.328 C96.78,31.184 105.401,27.224 110.25,23.804 C112.784,22.016 113,21.337 113,15.154 C113,10.7 113.523,7.698 114.557,6.223 Z M119.689,63.791 C121.961,61.281 126.662,62.249 130.116,65.938 C133.206,69.237 134.489,75.906 133.013,80.993 C132.456,82.915 132,84.625 132,84.794 C132,84.964 133.531,85.742 135.402,86.523 C144.055,90.139 165.719,109.501 168.091,115.738 C170.057,120.911 166.928,123.842 158.514,124.711 C152.353,125.347 150.368,123.74 153.841,120.928 C157.099,118.289 156.496,115.734 151.838,112.442 C149.548,110.824 146.511,108.344 145.088,106.932 C140.984,102.859 129.874,96.801 125.5,96.251 C120.604,95.635 116,91.667 116,88.063 C116,86.332 117.137,84.593 119.5,82.707 C123.662,79.387 123.811,78.117 120.5,74.182 C117.604,70.741 117.271,66.463 119.689,63.791 Z M113.21,120.129 C117.663,118.845 120.373,118.811 123.498,119.999 C125.704,120.838 126.076,121.521 125.813,124.249 C125.552,126.958 125.042,127.553 122.75,127.816 C121.237,127.99 120,128.523 120,128.999 C120,129.475 118.987,130.173 117.75,130.549 C116.513,130.926 112.923,132.782 109.773,134.675 C105.193,137.427 103.195,138.055 99.805,137.809 C95.934,137.527 95.479,137.203 94.592,134.091 C93.687,130.918 93.856,130.484 97.022,127.841 C98.893,126.278 101.116,124.998 101.962,124.996 C102.808,124.994 104.945,124.112 106.71,123.035 C108.476,121.959 111.401,120.651 113.21,120.129 Z M52,136.711 C54.503,135.709 60.318,136.417 60.765,137.778 C61.374,139.631 47.38,152.443 41.445,155.466 C36.589,157.94 36.262,157.977 33.141,156.42 C30.253,154.98 29.925,154.395 30.196,151.168 C30.452,148.11 30.974,147.396 33.5,146.645 C38.793,145.073 41.108,143.876 47.5,139.408 C49.15,138.255 51.175,137.041 52,136.711 Z"/>
</svg>

