<svg xmlns="http://www.w3.org/2000/svg" width="300" height="300" viewBox="0 0 300 300" version="1.1">
  <defs/>
  <path d="M70.054,136.32 C79.252,131.768 83.011,131.103 85.128,133.654 C86.767,135.63 86.784,143.616 85.153,145.247 C84.519,145.881 84,147.38 84,148.578 C84,149.775 83.325,151.315 82.5,152 C81.675,152.685 81,154.063 81,155.063 C81,156.064 80.55,157.16 80,157.5 C79.45,157.84 78.986,159.554 78.968,161.309 C78.951,163.064 78.276,165.374 77.468,166.441 C75.341,169.254 75.663,172.868 78.356,176.406 C79.652,178.108 81.032,180.512 81.424,181.75 C82.904,186.433 87.443,183.521 90.777,175.75 C92.44,171.875 96.42,171.978 98.474,175.95 C101.11,181.048 100.393,183.159 93.001,192.067 C89.152,196.705 86.002,201.287 86.001,202.25 C86.001,203.213 85.55,204 85,204 C84.45,204 84,204.873 84,205.941 C84,207.009 84.45,208.16 85,208.5 C85.55,208.84 86,212.031 86,215.59 C86,220.882 86.319,222.161 87.75,222.604 C91.066,223.628 92.501,224.719 92.847,226.478 C93.614,230.382 66.545,254 61.304,254 C57.994,254 56,252.422 56,249.803 C56,248.815 58.329,245.761 61.176,243.017 C65.828,238.533 66.239,237.798 65.227,235.764 C64.607,234.519 63.441,231.475 62.635,229 C61.001,223.985 59.779,221.567 55.567,215.021 C52.662,210.505 50.944,205.601 50.656,201 C50.528,198.951 51.012,198.441 53.338,198.175 C56.522,197.811 60,200.341 60,203.02 C60,203.961 60.9,205.874 62,207.273 C63.1,208.671 64,210.126 64,210.507 C64,211.245 66.567,217.36 68.084,220.236 C68.588,221.191 69,224.174 69,226.864 C69,232.445 70.997,235.119 73.834,233.337 C75.062,232.566 75.657,230.215 76.097,224.395 C76.426,220.053 77.002,214.454 77.378,211.953 C77.985,207.916 77.778,207.14 75.531,205.029 C72.822,202.484 72.372,200.042 74.037,196.93 C75.489,194.217 73.842,188.73 69.554,181.999 C65.78,176.074 65.089,171.586 67.468,168.441 C68.276,167.374 68.951,165.481 68.968,164.236 C68.986,162.991 69.39,161.191 69.866,160.236 C71.38,157.2 73.212,151.57 73.358,149.5 C73.504,147.449 73.153,147.402 66.997,148.648 C65.172,149.017 63.826,148.444 62.03,146.532 C58.622,142.904 59.812,141.389 70.054,136.32 Z M137.2,110.2 C137.86,109.54 139.12,109 140,109 C142.822,109 144,111.269 144,116.7 C144,123.212 144.935,123.399 153,118.5 C159.192,114.739 162.077,114.183 163.915,116.397 C165.791,118.658 162.165,124.153 157.285,126.441 C155.009,127.509 152.669,129.431 152.086,130.712 C151.502,131.992 149.812,133.501 148.33,134.065 C143.252,135.995 134,148.949 134,154.128 C134,155.093 133.55,156.16 133,156.5 C132.45,156.84 132,158.232 132,159.594 C132,160.956 131.372,163.067 130.604,164.285 C129.836,165.503 128.906,167.512 128.537,168.75 C127.401,172.555 131.42,171.52 134.916,167.106 C136.612,164.964 138,162.77 138,162.229 C138,161.688 138.675,160.685 139.5,160 C140.325,159.315 141,158.065 141,157.222 C141,156.379 142.185,154.135 143.634,152.235 C145.943,149.208 146.681,148.849 149.61,149.324 C151.447,149.622 154.818,151.359 157.1,153.183 C162.393,157.415 170.01,164.88 169.968,165.797 C169.899,167.322 167.194,170 165.723,170 C162.901,170 155.544,166.289 153.076,163.621 C150.087,160.39 147.233,160.256 146.079,163.291 C145.6,164.551 144.413,166.239 143.442,167.041 C142.47,167.843 140.852,170.356 139.846,172.625 C137.132,178.746 127.485,185.432 122.262,184.81 C118.75,184.392 115.664,178.919 116.517,174.622 C117.03,172.041 121.079,162.69 125.116,154.764 C126.877,151.304 126.202,150.831 120.518,151.541 C115.226,152.202 115.001,152.133 114.017,149.544 C112.155,144.648 113.639,142.517 123.191,136.377 C132.671,130.283 134,128.515 134,121.994 C134,119.862 134.45,117.84 135,117.5 C135.55,117.16 136,115.649 136,114.141 C136,112.633 136.54,110.86 137.2,110.2 Z M120.578,45.75 C121.72,44.615 124.451,44.851 125.8,46.2 C126.498,46.898 127,50.244 127,54.2 C127,57.94 127.434,61 127.965,61 C128.496,61 130.468,59.65 132.347,58 C137.877,53.145 144,54.236 144,60.078 C144,63.207 142.628,64.57 138.494,65.547 C134.437,66.507 125.661,72.343 123.642,75.424 C122.739,76.802 122,79.044 122,80.406 C122,81.768 121.55,83.16 121,83.5 C120.45,83.84 120,85.249 120,86.63 C120,88.012 119.325,89.818 118.5,90.643 C117.675,91.468 117,93.631 117,95.449 C117,99.543 114.848,101.727 113.005,99.506 C112.127,98.449 111.885,95.554 112.207,89.993 C112.54,84.234 112.338,82 111.483,82 C110.438,82 107.892,84.02 101.75,89.725 C100.46,90.923 99.994,92.946 99.978,97.425 C99.953,104.22 97.559,108.812 94.628,107.687 C93.339,107.193 93,105.609 93,100.09 C93,96.256 92.524,92.824 91.941,92.464 C91.359,92.104 89.122,93.029 86.971,94.52 C82.353,97.72 78.939,97.357 77.171,93.477 C74.641,87.922 76.481,84.99 83.705,83.067 C89.401,81.55 91.275,79.528 90.453,75.785 C90.094,74.153 89.716,71.157 89.611,69.129 C89.507,67.1 88.665,64.359 87.739,63.038 C86.087,60.679 86.823,58 89.122,58 C90.974,58 98.001,66.092 98.022,68.25 C98.034,69.487 98.875,71.58 99.889,72.899 L101.734,75.299 L107.617,71.994 C116.769,66.853 117,66.545 117,59.467 C117,53.841 118.597,47.719 120.578,45.75 Z M167.035,190.934 C167.605,189.87 168.617,189.014 169.285,189.032 C172.427,189.114 177,195.13 177,199.18 C177,200.253 177.526,202.114 178.17,203.316 C178.813,204.517 179.72,208.875 180.184,213 C181.664,226.14 182.206,229.476 183.023,230.5 C183.462,231.05 184.131,233.158 184.51,235.185 C184.888,237.211 185.958,239.557 186.888,240.398 C188.943,242.258 202.824,244.628 216.884,245.52 C227.88,246.218 237.052,248.154 240.715,250.551 C243.359,252.281 246.377,252.404 249.193,250.897 C250.94,249.962 251.731,250.269 254.374,252.913 L257.494,256.032 L254.164,259.144 C251.029,262.074 250.515,262.218 245.358,261.612 C242.346,261.258 238.896,260.343 237.691,259.579 C236.486,258.814 232.8,257.657 229.5,257.008 C226.2,256.359 222.795,255.464 221.934,255.02 C221.072,254.576 214.547,253.926 207.434,253.575 C186.386,252.538 183.222,252.058 180.091,249.423 C176.967,246.795 175.371,242.094 174.003,231.5 C173.506,227.65 172.646,222.475 172.093,220 C171.54,217.525 170.65,213.25 170.117,210.5 C169.583,207.75 168.438,203.531 167.573,201.124 C165.735,196.013 165.608,193.601 167.035,190.934 Z M137.005,198.493 C138.917,196.19 142.834,196.718 145.548,199.646 C147.935,202.222 148,202.709 148,218.063 C148,228.629 148.362,233.954 149.098,234.199 C150.939,234.813 151.485,243.79 149.802,245.775 C148.997,246.724 147.103,249.664 145.593,252.309 C142.549,257.638 140.313,258.139 138.301,253.942 C137.331,251.919 137.394,249.402 138.611,241.454 C140.661,228.064 140.151,208.95 137.604,203.743 C136.121,200.714 136.006,199.698 137.005,198.493 Z M103.357,204.512 C104.032,202.753 108.236,202.521 111.15,204.08 C112.261,204.675 113.863,206.812 114.71,208.83 C116.668,213.494 117.777,233.402 116.135,234.417 C115.511,234.802 115,236.882 115,239.039 C115,242.733 113.662,247.248 110.344,254.75 C108.017,260.01 102,258.764 102,253.023 C102,251.605 102.616,249.557 103.37,248.473 C105.265,245.743 106.12,240.331 106.664,227.623 C107.072,218.095 106.86,216.082 104.953,211.385 C103.756,208.436 103.038,205.343 103.357,204.512 Z M91.446,70.087 C90.416,71.755 92.733,73.667 94.113,72.287 C95.267,71.133 94.545,69 93,69 C92.515,69 91.816,69.489 91.446,70.087 Z"/>
</svg>

