<svg xmlns="http://www.w3.org/2000/svg" width="300" height="300" viewBox="0 0 300 300" version="1.1">
  <defs/>
  <path d="M131.447,82.885 C140.35,78.841 146.101,81.985 147.986,91.927 C149.912,102.081 149.375,107.96 144.63,128.687 C143.852,132.089 142.887,141.427 142.486,149.437 C141.885,161.465 141.997,163.996 143.129,163.978 C143.883,163.965 147.2,162.597 150.5,160.937 C158.651,156.836 166.173,154.858 174.358,154.663 C181.186,154.501 181.231,154.517 184.7,158.5 C191.688,166.521 192.369,168.872 192.372,185 C192.374,199.417 190.793,210.781 188.079,215.853 C187.392,217.136 187.095,219.242 187.419,220.532 C187.742,221.822 187.556,223.157 187.004,223.498 C186.452,223.839 186,226.947 186,230.404 C186,236.867 184.961,238.822 180.727,240.325 C179.752,240.671 178.699,241.752 178.387,242.727 C178.074,243.702 177.45,245.4 177,246.5 C176.55,247.6 175.93,249.175 175.623,250 C175.316,250.825 173.781,253.75 172.211,256.5 C169.576,261.118 169.038,261.524 165.159,261.808 C161.843,262.052 159.965,261.472 156.23,259.052 C152.178,256.426 151.022,254.877 148.164,248.243 C146.329,243.985 144.416,239.719 143.914,238.764 C142.487,236.053 142.837,233 144.653,232.303 C146.589,231.56 153.922,239.404 153.97,242.27 C154.011,244.701 158.741,252.004 160.263,251.985 C160.943,251.976 162.019,251.639 162.653,251.235 C164.655,249.958 171.076,236.139 172.236,230.609 C173.257,225.744 173.165,225.04 171.134,222.189 C169.916,220.477 168.091,216.697 167.079,213.789 C164.118,205.277 160.454,197.608 158.628,196.099 C157.185,194.907 156.527,194.903 154.216,196.072 C151.624,197.383 149.872,198.883 140.29,207.996 C137.171,210.963 135.248,212 132.869,212 C126.638,212 124.16,206.909 128,202 C129.076,200.625 129.966,198.91 129.978,198.188 C129.99,197.466 130.725,194.659 131.611,191.949 C133.356,186.615 132.888,183.445 130.491,184.365 C128.289,185.21 120.434,190.943 115.401,195.377 C111.099,199.168 111,199.392 111.008,205.377 C111.012,208.745 111.421,214.2 111.916,217.5 C112.412,220.8 113.099,227.647 113.442,232.717 C114.012,241.118 113.887,242.113 112.033,243.967 C110.915,245.085 109.622,246 109.161,246 C107.766,246 105.703,240.755 105.422,236.5 C105.278,234.3 104.622,229.35 103.966,225.5 C103.309,221.65 102.695,216.475 102.6,214 C102.432,209.626 102.33,209.492 98.963,209.217 C93.195,208.747 89.717,208.654 85,208.845 C82.525,208.946 77.971,208.745 74.879,208.401 C71.189,207.989 69.021,208.156 68.569,208.888 C68.191,209.501 67.436,217.078 66.892,225.726 C65.862,242.102 64.966,245 60.927,245 C55.204,245 52.901,240.514 56.028,235.455 C57.776,232.627 58.163,229.96 58.588,217.829 C58.927,208.173 58.721,202.847 57.955,201.415 C57.074,199.77 57.176,198.247 58.41,194.613 C59.593,191.129 60,185.97 60,174.465 C60,159.823 59.897,159 58.059,159 C56.991,159 55.847,159.439 55.515,159.976 C54.724,161.256 42.646,168 41.145,168 C40.506,168 38.119,169.35 35.841,171 C29.108,175.878 25,174.693 25,167.873 C25,163.451 28.57,160 33.143,160 C35.799,160 55.994,150.227 58.684,147.639 C59.336,147.013 60.171,145.267 60.54,143.759 C61.32,140.578 58.833,138.916 56.114,140.8 C51.261,144.163 40.979,149.647 37.5,150.727 C32.429,152.302 30.942,152.271 28.659,150.542 C25.753,148.34 27.481,145.436 33.804,141.897 C36.937,140.143 41.75,137.259 44.5,135.486 C47.25,133.714 50.513,131.949 51.75,131.565 C52.987,131.18 54,130.446 54,129.933 C54,129.42 54.605,129 55.345,129 C56.085,129 57.438,128.173 58.353,127.163 C60.508,124.782 59.523,118.95 56.848,118.25 C54.609,117.664 54.498,115.138 56.5,110.346 C57.331,108.357 58,103.743 58,100 C58,95.79 58.471,92.873 59.25,92.257 C59.938,91.713 63.279,91.256 66.675,91.24 C71.877,91.215 73.196,91.58 75.047,93.55 C77.851,96.535 77.266,98.897 72.022,105.77 C66.652,112.807 66.648,115.995 72,120.887 C76.661,125.148 76.884,126.468 73.533,129.965 C70.071,133.579 69.812,141 73.148,141 C73.715,141 76.176,138.944 78.618,136.432 C84.102,130.79 86.378,130.846 86.802,136.637 C87.077,140.399 86.736,141.07 82.872,144.378 C80.544,146.37 78.116,148 77.475,148 C75.517,148 73.056,151.444 72.428,155.066 C72.1,156.955 71.399,159.655 70.87,161.067 C70.341,162.48 69.73,168.105 69.513,173.567 C69.295,179.03 68.891,186.094 68.616,189.265 C67.961,196.804 69.266,197.697 82.269,198.611 C91.057,199.229 92,199.129 92,197.582 C92,196.64 91.55,195.028 91,194 C89.517,191.229 91.408,187.187 94.557,186.396 C96.919,185.804 97.135,185.37 96.69,182.118 C96.418,180.128 95.23,175.166 94.05,171.09 C92.831,166.882 92.032,161.697 92.202,159.09 C92.476,154.875 92.732,154.473 95.338,154.175 C99.382,153.712 101.728,156.29 102.301,161.822 C102.567,164.395 103.692,169.65 104.802,173.5 C105.912,177.35 107.081,181.688 107.401,183.14 C108.201,186.771 110.405,187.318 113.174,184.573 C115.37,182.396 125.172,175.733 129.47,173.496 C133.408,171.447 134.328,168.094 133.541,158.654 L132.811,149.883 L129.918,150.518 C126.34,151.304 120.529,147.67 121.465,145.231 C121.79,144.383 121.192,142.747 120.135,141.595 C118.325,139.621 117.147,134.25 115.507,120.5 C114.922,115.594 114.033,112.49 111.494,106.5 C110.795,104.85 109.409,100.278 108.413,96.341 C106.905,90.371 106.823,88.918 107.924,87.591 C109.911,85.198 111.585,85.631 116.091,89.701 L120.187,93.402 L123.79,89.064 C125.772,86.678 129.217,83.898 131.447,82.885 Z M109.153,20.75 C110.442,18.291 114.578,18.56 116.443,21.223 C118.406,24.024 118.426,26.402 116.5,28 C114.557,29.612 114.519,35.878 116.448,36.619 C117.245,36.924 119.212,36.397 120.821,35.447 C124.116,33.501 128.713,34.09 129.669,36.581 C130.352,38.361 127.113,42.111 123.219,44.048 C118.944,46.175 114.003,51.192 113.965,53.446 C113.945,54.576 113.286,56.625 112.5,58 C111.714,59.375 111.055,61.457 111.035,62.628 C111.016,63.798 110.278,65.354 109.396,66.086 C108.514,66.819 107.4,68.449 106.921,69.709 C106.315,71.303 105.242,72 103.395,72 C100.848,72 100.76,71.821 101.237,67.591 C101.51,65.165 102.704,61.178 103.889,58.73 C105.982,54.406 105.902,51 103.709,51 C102.142,51 93.796,55.054 91.75,56.809 C90.736,57.679 90,59.707 90,61.632 C90,64.074 89.336,65.389 87.495,66.595 C84.494,68.562 82,67.15 82,63.485 C82,60.262 79.315,59.642 75.519,61.988 C69.727,65.568 65.535,63.918 66.178,58.31 C66.444,55.991 67.514,55.01 72.305,52.694 L78.11,49.889 L77.427,42.694 C77.051,38.738 76.285,34.924 75.725,34.221 C74.992,33.3 75.358,32.248 77.028,30.471 C79.908,27.404 80.143,27.408 83.923,30.589 C86.481,32.741 87,33.904 87,37.478 C87,40.092 87.686,42.618 88.75,43.919 L90.5,46.059 L96,43.899 C99.025,42.71 102.409,41.404 103.521,40.995 C105.183,40.384 105.782,38.673 106.889,31.376 C107.629,26.494 108.648,21.712 109.153,20.75 Z M165,166.571 C161.425,167.904 157.768,168.996 156.872,168.998 C155.977,168.999 154.656,169.71 153.935,170.578 C153.215,171.446 150.492,173.237 147.884,174.559 C145.275,175.881 142.821,177.481 142.429,178.115 C142.037,178.749 141.116,182.418 140.383,186.269 C138.482,196.242 139.364,197.083 145.804,191.437 C148.04,189.478 150.138,186.647 150.468,185.147 C151.522,180.347 154.768,176 157.298,176 C160.569,176 164.709,180.715 166.415,186.385 C167.211,189.03 168.932,192.838 170.24,194.847 C172.924,198.974 174.415,202.577 175.992,208.75 C177.743,215.607 179.453,214.046 180.921,204.25 C184.151,182.691 183.006,171.498 177.036,166.286 C173.893,163.542 173.068,163.562 165,166.571 Z M45.498,179.918 C48.703,178.583 57.016,181.371 56.993,183.773 C56.983,184.792 50.252,191.443 45.658,194.975 C43.544,196.599 39.944,200.076 37.658,202.702 C35.371,205.327 32.15,208.606 30.5,209.988 C27.617,212.402 23.893,216.343 18.865,222.302 C16.23,225.425 9.828,227.428 8.077,225.677 C7.485,225.085 7,223.339 7,221.798 C7,219.596 8.031,218.256 11.817,215.536 C14.467,213.632 19.953,207.925 24.009,202.853 C33.271,191.269 42.888,181.006 45.498,179.918 Z M132.783,93.75 C131.944,94.713 130.733,96.513 130.093,97.75 C129.093,99.684 129.184,100 130.742,100 C131.739,100 133.574,100.714 134.82,101.587 C136.633,102.856 137.382,102.928 138.566,101.946 C139.379,101.27 139.852,99.994 139.616,99.109 C139.379,98.224 138.91,96.263 138.574,94.75 C137.862,91.551 135.115,91.077 132.783,93.75 Z M126.336,123.567 C126.005,124.429 126.244,125.644 126.867,126.267 C127.49,126.89 128,128.918 128,130.773 C128,133.446 128.364,134.078 129.75,133.815 C131.885,133.41 132.774,125.638 130.939,123.426 C129.375,121.542 127.086,121.612 126.336,123.567 Z M123.39,103.427 C122.556,105.6 123.346,109.293 124.744,109.753 C126.173,110.224 128.334,105.314 127.572,103.328 C126.895,101.562 124.079,101.63 123.39,103.427 Z"/>
</svg>

