<svg xmlns="http://www.w3.org/2000/svg" width="300" height="300" viewBox="0 0 300 300" version="1.1">
  <defs/>
  <path d="M129.131,77.342 C130.568,75.611 134.104,75.624 136.49,77.369 C138.114,78.556 138.372,80.187 138.432,89.619 L138.5,100.5 L144,101.011 C150.527,101.616 151.509,102.15 153.625,106.242 C155.433,109.739 155.205,122.901 153.274,126.5 C151.363,130.061 149.816,143.385 150.962,146.401 C151.533,147.902 152,150.871 152,152.998 C152,156.361 152.579,157.341 156.433,160.498 C159.917,163.354 162.003,164.245 166.183,164.664 C171.125,165.159 171.702,164.983 174.372,162.166 C179.328,156.937 180.342,145.669 176.81,135.07 C174.847,129.181 170.714,121.387 168.798,119.965 C168.402,119.671 167.352,117.694 166.466,115.573 C165.007,112.081 165.002,111.57 166.413,110.158 C167.825,108.746 168.257,108.872 170.986,111.487 C172.644,113.075 174,114.736 174,115.178 C174,115.621 175.556,118.022 177.459,120.514 C182.228,126.761 185.376,133.409 186.924,140.5 C187.644,143.8 188.886,147.773 189.683,149.328 C190.842,151.59 190.919,153.153 190.066,157.128 C188.681,163.586 186.981,166.721 182.562,170.969 C179.299,174.106 178.311,174.472 172.227,174.801 C161.109,175.402 147,171.537 147,167.889 C147,167.449 145.955,165.549 144.678,163.667 C142.993,161.184 141.991,157.488 141.026,150.196 C139.692,140.12 140.035,135.619 143.019,124 C145.245,115.333 144.643,109 141.593,109 C139.347,109 136.32,114.01 135.55,119 C134.812,123.778 130.318,136.855 128.865,138.45 C128.389,138.972 128,140.216 128,141.214 C128,142.211 127.603,143.809 127.117,144.764 C124.97,148.983 123.987,151.67 123.752,153.961 C123.524,156.192 123.958,156.489 128.403,157.15 C134.025,157.985 135.711,159.304 136.556,163.529 C136.996,165.732 136.583,167.26 135.006,169.266 C133.823,170.77 132.499,172 132.065,172 C131.63,172 129.576,170.65 127.5,169 C125.424,167.35 123.178,166 122.509,166 C120.402,166 116,170.808 116,173.108 C116,174.32 114.914,176.735 113.587,178.474 C112.26,180.214 110.673,183.499 110.061,185.774 C109.448,188.049 108.284,190.573 107.474,191.384 C106.663,192.194 106,193.763 106,194.87 C106,195.976 105.532,197.171 104.959,197.525 C104.387,197.879 102.812,199.921 101.459,202.064 C96.993,209.139 98.814,210.001 105.861,204.146 C114.586,196.898 118.832,196.128 123.457,200.955 C126.154,203.77 126.213,204.026 124.695,206.342 C122.698,209.391 116.395,213.362 114.961,212.476 C114.369,212.11 112.094,212.996 109.905,214.444 C107.716,215.893 104.929,217.509 103.712,218.037 C102.496,218.564 100.719,219.552 99.765,220.233 C98.349,221.243 97.407,221.135 94.64,219.645 C91.438,217.921 91.069,217.913 88.001,219.5 C85.079,221.011 84.597,221.025 83.216,219.644 C81.835,218.263 81.973,217.739 84.59,214.441 C86.19,212.424 87.95,210.084 88.5,209.241 C89.05,208.398 90.932,205.524 92.683,202.854 C94.433,200.183 96.18,196.986 96.564,195.749 C96.947,194.512 99.494,188.775 102.222,183 C104.951,177.225 107.437,170.969 107.747,169.097 L108.311,165.695 L104.217,166.244 C99.266,166.908 96.672,164.733 97.175,160.338 C97.487,157.609 97.769,157.47 104.486,156.729 C112.204,155.876 113.022,155.308 114.885,149.5 C115.591,147.3 117.03,143.592 118.084,141.261 C119.138,138.929 120,136.357 120,135.545 C120,134.732 120.768,132.456 121.708,130.487 L123.415,126.906 L120.569,124.637 C117.818,122.443 117.766,122.238 119.012,118.434 C119.721,116.27 121.969,112.597 124.009,110.27 C128.208,105.48 129.64,98.816 128.021,91.594 C127.472,89.146 127.462,85.885 127.995,83.522 C128.487,81.341 128.693,79.36 128.453,79.12 C128.214,78.88 128.519,78.08 129.131,77.342 Z M76.716,84.904 C77.659,83.307 78.977,82 79.644,82 C81.92,82 84,85.137 84,88.571 C84,92.077 85.174,92.808 87.966,91.042 C92.074,88.444 93.492,96.249 89.58,99.924 C86.7,102.63 84.555,107.398 85.32,109.392 C85.765,110.552 86.643,110.624 89.989,109.775 C101.696,106.803 102.099,118.204 90.421,121.972 C84.621,123.843 82.881,126.106 85.238,128.711 C86.33,129.917 86.996,132.742 87.196,137.019 C87.486,143.191 87.626,143.515 90.142,143.806 C92.14,144.037 93.315,143.367 94.96,141.056 C96.157,139.375 97.936,138 98.913,138 C101.076,138 103.513,140.662 104.301,143.885 C104.927,146.449 102.834,148.906 95.468,154.25 C85.613,161.401 78,153.897 78,137.032 C78,130.705 77.694,129 76.559,129 C74.363,129 73.614,130.92 73.247,137.487 C73.062,140.788 72.481,143.919 71.956,144.444 C71.43,144.97 71,146.574 71,148.009 C71,149.444 70.339,151.491 69.532,152.559 C67.437,155.328 67.632,155.976 70.906,157.117 C72.645,157.723 74.303,159.316 75.036,161.086 C76.725,165.164 77.518,165.416 80.864,162.942 C84.194,160.481 87.541,160.977 88.525,164.079 C89.367,166.731 86.186,172.004 82.24,174.5 C78.937,176.589 77.883,180 80.54,180 C81.388,180 83.325,179.08 84.845,177.956 C90.07,174.094 93.668,178.167 89.034,182.699 C87.458,184.239 84.782,186.85 83.086,188.5 C81.39,190.15 80.002,192.032 80.001,192.682 C80.001,193.332 78.634,194.837 76.964,196.026 C75.294,197.215 73.151,199.833 72.203,201.844 C70.68,205.075 70.046,205.504 66.761,205.533 C63.956,205.557 62.23,206.354 59.724,208.783 C57.899,210.552 55.78,212 55.017,212 C53.001,212 49,207.945 49,205.903 C49,203.949 54.503,198.006 56.327,197.989 C56.972,197.983 59.75,195.871 62.5,193.295 C66.549,189.501 67.153,188.536 65.676,188.218 C64.672,188.001 63.062,188.539 62.097,189.412 C61.132,190.286 59.617,191 58.73,191 C57.844,191 56.84,191.45 56.5,192 C55.646,193.382 51.656,193.256 50.2,191.8 C49.54,191.14 49,189.361 49,187.847 C49,185.53 49.741,184.766 53.67,183.028 C56.239,181.891 60.289,179.365 62.67,177.414 C66.441,174.324 67,173.359 67,169.933 C67,165.336 66.491,165.107 63.821,168.5 C61.341,171.654 58.979,171.671 56.053,168.556 C53.283,165.608 53.732,161.203 57.562,153.768 C58.903,151.166 60,148.183 60,147.141 C60,146.098 60.675,143.629 61.5,141.654 C62.325,139.68 63,137.6 63,137.032 C63,135.21 59.785,135.927 56.411,138.5 C54.608,139.875 52.647,141 52.053,141 C51.459,141 50.104,141.543 49.042,142.206 C46.445,143.828 43,140.8 43,136.894 C43,134.471 43.901,133.609 49.75,130.43 C53.462,128.413 57.625,125.901 59,124.848 C60.375,123.795 63.818,121.811 66.651,120.439 C73.123,117.304 73.845,116.407 74.656,110.491 C75.304,105.766 75.274,105.697 72.908,106.41 C71.583,106.809 68.982,107.52 67.128,107.99 C65.273,108.46 63.27,109.33 62.678,109.922 C60.857,111.743 58.245,111.127 56.073,108.365 C53.459,105.042 53.479,104.43 56.299,101.61 C57.804,100.106 60.367,99.076 63.718,98.632 C66.533,98.258 70.224,97.469 71.919,96.879 C74.668,95.92 75,95.373 75,91.806 C75,89.608 75.772,86.502 76.716,84.904 Z M124,222.702 C124.825,222.377 127.3,222.198 129.5,222.305 C133.412,222.496 133.494,222.576 133.222,225.932 C132.845,230.578 132.148,231.229 122.529,235.928 C113.386,240.395 105.347,248.015 104.311,253.196 C103.998,254.761 103.35,256.284 102.871,256.58 C102.392,256.876 102,258.029 102,259.142 C102,260.255 100.156,264.841 97.903,269.333 C92.675,279.755 91.68,282.94 93.438,283.615 C96.118,284.643 104.016,279.991 118.162,269.052 C121.336,266.598 126,257.657 126,254.026 C126,250.645 128.613,247 131.037,247 C135.726,247 148.416,257.843 164.813,275.86 C166.636,277.862 169.368,280.85 170.885,282.5 C173.867,285.743 180.015,294.291 181.902,297.817 C183.047,299.957 182.942,300 176.556,300 C170.045,300 170.039,299.998 168.067,296.25 C166.982,294.188 162.871,288.9 158.932,284.5 C154.993,280.1 150.644,275.038 149.266,273.25 C147.889,271.462 146.232,270 145.584,270 C144.936,270 142.648,268.2 140.5,266 C136.061,261.454 133,260.756 133,264.289 C133,266.623 120.807,281 118.828,281 C118.272,281 115.978,282.575 113.729,284.5 C111.48,286.425 109.081,288 108.397,288 C107.713,288 105.881,289.041 104.327,290.314 C100.914,293.107 95.276,295.795 91.059,296.638 C89.354,296.979 87.716,297.65 87.42,298.129 C86.44,299.715 80.364,299.059 78.667,297.184 C75.54,293.729 75.624,289.908 78.942,284.715 C80.624,282.084 82,279.712 82,279.445 C82,279.179 83.052,277.282 84.338,275.23 C87.21,270.647 94.114,254.78 93.502,254.169 C92.909,253.575 83.757,256.065 82.55,257.147 C80.408,259.07 76.956,257.975 74.989,254.75 C72.579,250.797 72.475,248.238 74.629,245.858 C75.964,244.382 77.27,244.158 81.879,244.615 C86.848,245.108 87.9,244.873 90.944,242.587 C92.839,241.164 95.024,240 95.8,240 C96.577,240 98.852,238.71 100.856,237.133 C102.86,235.556 107.134,233.027 110.354,231.511 C113.574,229.996 117.624,227.527 119.354,226.025 C121.084,224.523 123.175,223.028 124,222.702 Z M110.862,19.75 C111.628,17.815 112.663,17 114.353,17 C117.185,17 118.677,18.554 119.154,22 C119.436,24.034 120.059,24.5 122.5,24.5 C126.929,24.5 127.21,28.858 123.085,33.556 C121.404,35.471 119.815,38.041 119.554,39.268 C119.293,40.496 118.574,44.112 117.957,47.305 C115.781,58.566 104.039,77.539 98.224,79.192 C96.091,79.798 95.854,79.612 96.313,77.692 C97.353,73.337 100.185,66.466 101.577,64.921 C102.36,64.053 103.014,62.703 103.032,61.921 C103.049,61.14 103.724,59.626 104.532,58.559 C106.353,56.151 106.516,48.995 104.75,49.012 C104.063,49.019 101.686,50.707 99.469,52.762 C97.252,54.818 94.214,57.298 92.719,58.273 C90.172,59.934 90,60.506 90,67.323 C90,75.103 89.084,77 85.326,77 C82.772,77 79.631,72.126 80.584,69.641 C81.489,67.282 79.175,64 76.606,64 C75.327,64 71.752,65.35 68.66,67 C65.568,68.65 62.199,70 61.174,70 C58.66,70 56.162,67.058 55.387,63.184 C54.752,60.008 54.76,60 58.967,60 C61.67,60 64.097,59.282 65.727,58 C67.126,56.9 69.234,56 70.412,56 C73.051,56 77,53.35 77,51.578 C77,50.859 76.113,49.143 75.03,47.765 C73.419,45.717 73.195,44.462 73.802,40.88 C74.432,37.164 74.932,36.455 77.1,36.2 C80.786,35.768 84.141,38.933 84.892,43.551 C85.718,48.63 87.899,49.053 92.727,45.073 C94.778,43.383 96.916,41.982 97.478,41.959 C98.04,41.937 100.058,40.587 101.962,38.959 C103.866,37.332 105.995,36 106.693,36 C108.06,36 108.63,34.052 109.328,27 C109.573,24.525 110.264,21.262 110.862,19.75 Z"/>
</svg>

