<svg xmlns="http://www.w3.org/2000/svg" width="300" height="300" viewBox="0 0 300 300" version="1.1">
  <defs/>
  <path d="M138.55,79.25 C138.763,78.563 140.061,78 141.433,78 C144.141,78 146.526,81.186 145.608,83.578 C144.773,85.754 146.005,88 148.034,88 C150.008,88 156,81.385 156,79.206 C156,78.335 156.962,77.978 158.75,78.184 C160.833,78.423 161.571,79.106 161.792,81 C161.952,82.375 162.606,84.542 163.245,85.815 C164.772,88.856 163.622,90.646 157.565,94.661 C154.942,96.399 151.52,99.044 149.961,100.538 L147.125,103.254 L147.369,117.377 L147.612,131.5 L154.556,132.659 C176.654,136.346 185.326,144.173 176.881,152.81 C175.166,154.565 173.196,156 172.504,156 C170.407,156 168.74,153.17 169.367,150.675 C170.132,147.626 168.262,145.337 164.5,144.718 C162.85,144.447 158.829,143.483 155.564,142.577 C152.3,141.67 149.037,141.156 148.314,141.433 C147.339,141.807 147,144.779 147,152.969 C147,160.231 146.954,162.874 148.176,163.753 C148.917,164.287 150.126,164.172 152.096,164.047 C154.847,163.872 158,167.382 158,170.62 C158,173.84 153.117,179 150.072,179 C147.013,179 145.435,180.355 144.831,183.5 C144.499,185.234 143.653,185.5 138.474,185.5 C130.349,185.5 125,188.655 125,193.447 C125,195.253 124.1,197.874 123,199.273 C121.9,200.671 121,202.316 121,202.928 C121,203.539 119.875,205.822 118.5,208 C117.125,210.178 116,212.65 116,213.494 C116,214.884 115.248,216.681 112.859,221 C111.284,223.848 109,229.247 109,230.122 C109,230.605 110.015,231 111.255,231 C112.735,231 114.71,229.468 117.005,226.538 C119.391,223.492 121.269,222.064 122.921,222.038 C124.253,222.017 126.122,221.295 127.075,220.432 C128.027,219.57 131.906,218.405 135.694,217.843 C141.946,216.915 142.908,217.013 146.121,218.909 C150.901,221.729 152.701,225.166 151.164,228.539 C150.524,229.944 150,232.564 150,234.36 C150,236.683 149.134,238.455 147,240.5 C142.955,244.375 143.047,246.244 147.25,245.568 C149.037,245.281 153.123,244.923 156.329,244.773 C162.122,244.502 162.177,244.526 165.181,248.643 C168.618,253.356 168.395,256.04 164.343,258.695 C162.026,260.213 161.632,260.214 159.076,258.704 C157.386,257.706 153.828,257.023 149.907,256.944 C142.139,256.789 128.569,259.028 126.849,260.75 C123.73,263.872 115.525,259.61 114.539,254.357 C113.75,250.152 106.99,240 104.979,240 C103.611,240 97,247.984 97,249.636 C97,249.954 95.2,252.474 93,255.237 C90.8,258.001 89,260.713 89,261.266 C89,261.819 87.987,263.251 86.75,264.45 C83.127,267.958 79.038,273.399 79.018,274.737 C78.998,276.083 72.828,279 70,279 C69.035,279 67.709,278.354 67.053,277.564 C65.473,275.661 66.761,273.319 72.801,267.114 C75.385,264.458 78.67,260.309 80.1,257.893 C81.53,255.477 85.617,248.775 89.183,243 C92.749,237.225 95.972,231.825 96.346,231 C96.72,230.175 98.37,227.034 100.013,224.02 C101.656,221.006 103,218.153 103,217.682 C103,217.21 104.285,214.047 105.856,210.653 C109.893,201.931 110.419,200 108.759,200 C108.002,200 106.509,200.661 105.441,201.468 C104.374,202.276 102.747,202.951 101.827,202.968 C100.906,202.986 98.881,204.041 97.327,205.313 C95.772,206.585 92.25,208.42 89.5,209.39 C86.75,210.361 83.6,211.532 82.5,211.992 C81.4,212.453 78.6,213.267 76.278,213.801 C71.506,214.9 70.619,214.319 69.571,209.409 C68.785,205.73 69.833,204.641 75.655,203.085 C83.934,200.872 105.533,190.382 114.712,184.116 C118.029,181.852 121.195,180 121.749,180 C122.302,180 123.346,179.288 124.068,178.418 C124.79,177.549 127.987,175.521 131.172,173.913 C135.015,171.973 137.144,170.234 137.499,168.745 C138.546,164.342 137.558,135.684 136.345,135.281 C135.151,134.884 128,148.666 128,151.363 C128,152.198 127.55,153.16 127,153.5 C126.45,153.84 126,154.92 126,155.899 C126,158.656 120.004,170 118.547,170 C117.834,170 115.885,170.273 114.217,170.607 C111.758,171.098 110.96,170.794 110,168.999 C108.977,167.089 109.238,166.196 111.907,162.479 C113.608,160.111 115,157.723 115,157.172 C115,156.622 113.399,154.523 111.442,152.508 C106.593,147.515 107.154,145.632 113.678,145 C117.736,144.607 119.283,143.932 120.919,141.842 C122.064,140.381 123,138.535 123,137.741 C123,136.493 127.425,127.292 128.615,126.065 C128.847,125.825 130.941,125.375 133.269,125.065 L137.5,124.5 L137.5,118 C137.5,112.21 137.276,111.468 135.451,111.207 C134.01,111.001 132.468,112.189 130.259,115.207 C123.692,124.178 120.245,127.151 116.801,126.813 C114.15,126.553 113.475,125.955 112.78,123.253 C112.01,120.259 112.386,119.478 117.604,113.253 C124.057,105.553 127.8,102 129.459,102 C130.091,102 132.032,100.53 133.773,98.734 C136.42,96.003 136.923,94.733 136.843,90.984 C136.759,87.022 137.306,83.261 138.55,79.25 Z M94.004,57.992 C95.755,54.72 100.043,55.427 103.314,59.526 C105.839,62.691 106.098,63.711 105.839,69.469 C105.681,72.997 105.853,76.187 106.223,76.556 C106.592,76.926 108.039,76.328 109.438,75.228 C110.836,74.127 115.023,72.455 118.74,71.512 C122.458,70.568 126.526,69.309 127.78,68.713 C130.596,67.375 132.674,69.105 133.546,73.513 C134.22,76.918 131.241,81 128.083,81 C127.072,81 124.629,81.675 122.654,82.5 C120.68,83.325 118.08,84 116.877,84 C115.673,84 113.245,85.101 111.481,86.447 C109.717,87.792 107.13,89.18 105.732,89.531 C102.615,90.313 98.547,94.458 99.454,95.926 C99.819,96.517 101.405,97 102.977,97 C104.55,97 106.548,97.273 107.418,97.607 C109.574,98.434 109.476,104.344 107.25,107.741 C105.777,109.99 105.457,113.264 105.227,128.456 C104.677,164.878 104.347,166.972 98.461,171.462 C93.265,175.425 90.811,174.286 93.025,168.939 C93.927,166.763 93.953,165.648 93.125,164.651 C92.273,163.623 92.481,162.875 94.004,161.497 C96.117,159.584 96.714,154.559 94.956,153.473 C93.119,152.338 91.299,154.875 89.595,160.945 C87.265,169.251 85.212,171.512 80.323,171.159 C75.516,170.812 74.024,172.37 71.649,180.216 C70.698,183.36 69.487,186.199 68.96,186.525 C68.432,186.851 68,188.031 68,189.147 C68,190.263 66.425,194.758 64.5,199.136 C62.575,203.515 60.967,207.863 60.927,208.798 C60.887,209.734 59.992,211.85 58.938,213.5 C57.884,215.15 56.759,217.175 56.438,218 C56.117,218.825 55.437,220.287 54.927,221.25 C53.415,224.104 52.339,226.295 50.628,230 C49.739,231.925 48.567,234.175 48.022,235 C46.755,236.918 42.719,246.177 40.612,252 C39.716,254.475 37.502,258.247 35.693,260.381 C33.06,263.487 31.962,264.123 30.2,263.564 C28.242,262.942 28.07,262.401 28.643,258.682 C28.998,256.382 30.093,253.349 31.075,251.942 C32.058,250.536 33.638,247.386 34.586,244.942 C35.534,242.499 36.915,239.79 37.655,238.921 C38.395,238.053 39,236.852 39,236.252 C39,235.653 39.653,233.888 40.451,232.331 C42.332,228.661 45.408,221.433 46.976,217 C48.331,213.167 55.706,195.543 57.118,192.764 C57.603,191.809 58,190.148 58,189.073 C58,187.998 58.45,186.84 59,186.5 C59.55,186.16 60.014,184.671 60.032,183.191 C60.049,181.711 60.724,179.626 61.532,178.559 C62.339,177.491 63,176.001 63,175.247 C63,174.493 64.161,171.317 65.581,168.188 C69.676,159.161 69.848,158.689 70.388,155 C70.669,153.075 71.43,148.711 72.079,145.302 C73.173,139.555 73.1,138.835 71.076,135.405 L68.893,131.705 L71.845,128.603 C74.35,125.968 74.963,124.226 75.903,117.055 C77.145,107.58 76.473,105.697 72.797,108.354 C71.534,109.267 69.375,110.767 68,111.687 C66.625,112.607 64.07,114.686 62.322,116.307 C58.43,119.915 55.296,119.47 52.75,114.947 C49.171,108.589 50.807,106.422 62.01,102.682 C66.141,101.303 72.822,98.223 76.856,95.838 C80.891,93.452 85.386,90.791 86.846,89.925 C93.393,86.04 96.005,77.59 94.078,66.525 C93.266,61.864 93.245,59.411 94.004,57.992 Z M116.272,5.25 C118.27,2.683 123,4.536 123,7.886 C123,11.577 129.837,15.691 131.5,13 C131.84,12.45 133.656,12 135.536,12 C141.487,12 144.018,18.715 138.933,21.015 C138.145,21.371 136.001,22.414 134.169,23.331 C132.337,24.249 130.116,25 129.233,25 C126.899,25 123.002,29.009 122.989,31.424 C122.96,36.957 118.05,48.585 112.797,55.561 C109.187,60.354 105.275,61.697 106.418,57.75 C106.777,56.513 107.525,52.847 108.08,49.604 C108.636,46.362 109.745,42.774 110.545,41.632 C111.345,40.49 112,38.53 112,37.277 C112,34.41 109.645,34.309 105.25,36.989 C102.753,38.511 102,39.662 102,41.951 C102,48.378 97.523,53.846 94.45,51.174 C93.609,50.442 90.253,49.331 83.351,47.5 C80.682,46.791 76,42.216 76,40.316 C76,38.57 80.708,34.083 83.776,32.904 C86.829,31.731 87.6,29.32 85.621,27.134 C83.787,25.108 83.534,21.356 84.975,17.565 C85.758,15.505 86.621,15 89.353,15 C93.266,15 94.129,15.882 95.988,21.773 C97.8,27.518 100.598,28.223 106.279,24.366 C111.956,20.512 112.631,19.484 114.065,12.506 C114.744,9.203 115.737,5.938 116.272,5.25 Z M88.836,128.701 C86.734,131.649 84.563,136.633 83.207,141.62 C81.309,148.604 80.799,150.391 81.363,150.846 C81.576,151.018 81.943,151 82.445,151 C83.24,151 85.378,147.963 87.195,144.25 C89.917,138.691 90.973,137.445 93.179,137.19 C95.783,136.889 95.852,136.711 95.679,130.704 C95.445,122.633 93.557,122.08 88.836,128.701 Z M128.5,233 C121.581,236.919 120.844,237.751 121.194,241.241 C121.654,245.837 124.206,246.938 128.749,244.5 C132.425,242.528 139.326,233.495 138.675,231.508 C138.03,229.535 133.425,230.211 128.5,233 Z M88.2,100.2 C87.54,100.86 87,103.083 87,105.141 C87,107.199 86.543,109.165 85.984,109.51 C84.567,110.386 85.765,112 87.832,112 C89.404,112 91.908,108.248 93.421,103.623 C94.557,100.151 90.747,97.653 88.2,100.2 Z"/>
</svg>

