<svg xmlns="http://www.w3.org/2000/svg" width="300" height="300" viewBox="0 0 300 300" version="1.1">
  <defs/>
  <path d="M131,52.949 C136.399,50.079 140.349,50.438 143.411,54.077 C144.835,55.769 146,57.772 146,58.528 C146,61.238 143.769,70.519 142.893,71.45 C142.402,71.972 142,73.65 142,75.177 C142,77.039 141.173,78.496 139.489,79.599 C138.108,80.504 136.232,82.817 135.32,84.738 C133.775,87.995 133.775,88.295 135.331,89.165 C136.589,89.869 137,91.521 137,95.871 L137,101.643 L128.504,109.88 C123.832,114.41 119.803,119.103 119.551,120.308 C118.459,125.538 116.94,143.094 117.502,144.003 C118.331,145.345 124.602,145.27 127.316,143.886 C128.517,143.274 131.975,140.411 135,137.525 C141.683,131.149 143.574,130.336 145.097,133.182 C147.216,137.14 140.943,149 136.731,149 C135.971,149 134.284,150.133 132.983,151.518 C127.973,156.851 116.145,157.912 111.914,153.409 C109.146,150.462 107.787,141.795 108.86,133.93 C109.751,127.397 109.444,126 107.117,126 C102.375,126 101.45,119.301 105.75,116.094 C108.332,114.169 109.896,113.107 110.81,111.641 C112.306,109.24 112.061,105.754 111.688,95.62 C111.385,87.395 110.674,80.274 110.097,79.697 C109.372,78.972 107.442,79.512 103.777,81.467 C96.491,85.351 96.296,85.621 98.823,88.312 C100.569,90.17 100.886,91.354 100.369,94.075 C100.011,95.959 99.247,98.099 98.67,98.831 C97.67,100.099 97.047,103.221 95.186,116.269 C94.733,119.441 93.831,122.569 93.181,123.219 C92.532,123.868 92,125.666 92,127.214 C92,128.761 91.586,130.809 91.08,131.764 C90.574,132.719 89.403,136.65 88.478,140.5 C87.553,144.35 86.406,149.075 85.93,151 C85.453,152.925 84.422,157.2 83.639,160.5 C82.145,166.789 81.403,169.188 79.927,172.5 C79.437,173.6 78.615,176.3 78.1,178.5 C76.802,184.048 71.065,200.938 69.386,204.154 C68.624,205.614 68,207.59 68,208.545 C68,209.5 67.051,212.355 65.891,214.89 C64.732,217.426 62.865,221.525 61.743,224 C60.621,226.475 59.32,229.281 58.852,230.236 C58.383,231.191 58,232.573 58,233.306 C58,235.203 53.351,239 51.028,239 C48.534,239 47,236.136 47,231.48 C47,228.565 47.705,227.205 50.5,224.731 C52.425,223.026 54,220.905 54,220.016 C54,219.127 54.446,217.954 54.99,217.41 C56.501,215.899 65.708,189.621 70.901,172 C72.117,167.875 74.213,160.9 75.56,156.5 C76.906,152.1 78.006,147.481 78.004,146.235 C78,143.859 80.637,132.928 82.041,129.5 C82.492,128.4 83.384,125.025 84.024,122 C84.664,118.975 85.82,114.311 86.594,111.635 C87.367,108.96 88,105.112 88,103.085 C88,101.058 88.411,98.973 88.912,98.45 C89.414,97.927 89.977,95.7 90.162,93.5 L90.5,89.5 L85.201,89.5 C80.558,89.5 79.704,89.176 78.296,86.876 C76.055,83.215 77.179,81 81.277,81 C83.115,81 85.491,80.339 86.559,79.532 C87.626,78.724 89.443,78.049 90.595,78.032 C91.747,78.014 93.505,77.1 94.5,76 C95.495,74.9 96.733,74 97.251,74 C97.768,74 99.386,73.166 100.846,72.146 C102.306,71.126 104.625,70.015 106,69.678 C107.375,69.34 111.2,67.029 114.5,64.542 C117.8,62.056 120.984,60.016 121.576,60.011 C122.167,60.005 123.742,58.832 125.076,57.404 C126.409,55.977 129.075,53.972 131,52.949 Z M225.336,173.567 C226.055,171.692 229.385,171.494 230.671,173.25 C231.623,174.548 233.879,181.235 235.987,189 C236.659,191.475 237.575,194.454 238.023,195.62 C238.472,196.786 239.152,199.829 239.535,202.382 C239.917,204.935 240.629,207.271 241.115,207.571 C241.602,207.872 242,212.957 242,218.872 C242,229.474 241.958,229.666 239.051,232.451 L236.102,235.277 L209.301,234.226 C194.56,233.648 179.125,232.688 175,232.092 C170.875,231.497 162.325,230.293 156,229.417 C149.675,228.541 144.072,227.414 143.55,226.912 C143.027,226.41 141.528,226 140.218,226 C138.908,226 135.929,224.437 133.597,222.526 C129.446,219.125 129.333,218.869 128.205,210.276 C127.571,205.449 126.59,199.25 126.026,196.5 C125.462,193.75 124.639,189.239 124.198,186.475 C123.757,183.711 123.061,180.908 122.652,180.245 C121.644,178.614 123.696,175 125.631,175 C127.632,175 133.17,178.916 132.562,179.9 C132.308,180.311 133.001,184.214 134.102,188.574 C135.203,192.933 136.518,200.051 137.024,204.391 C138.369,215.919 140.418,217.599 156.5,220.355 C169.233,222.537 206.539,225.203 219,224.821 L229.5,224.5 L229.388,212.5 C229.259,198.602 227.429,180.48 225.834,177.317 C225.229,176.117 225.005,174.43 225.336,173.567 Z M107.14,17.332 C110.683,13.062 116,18.644 116,26.635 C116,31.257 116.266,32 117.918,32 C119.141,32 120.499,30.643 121.668,28.25 C123.041,25.44 124.204,24.419 126.31,24.178 C130.34,23.716 132,25.562 132,30.507 C132,33.951 131.519,35.085 129.5,36.408 C128.125,37.309 127,38.898 127,39.94 C127,40.981 125.836,42.681 124.413,43.717 C122.991,44.754 120.851,48.054 119.658,51.051 C117.006,57.715 114.532,58.563 111.136,53.97 C109.345,51.547 108.624,48.717 107.879,41.179 C106.147,23.641 105.994,18.712 107.14,17.332 Z M97.573,182.57 C99.414,180.729 100.438,180.629 103.066,182.035 C104.563,182.836 105,184.148 105,187.835 C105,190.456 104.622,193.028 104.161,193.55 C103.7,194.072 102.715,197.2 101.973,200.5 C101.232,203.8 99.584,208.179 98.312,210.23 C97.041,212.282 96,214.338 96,214.8 C96,215.262 94.39,217.521 92.422,219.82 C88.165,224.794 84.596,225.402 82.799,221.459 C82.544,220.899 82.336,220.471 82.233,220.019 C81.84,218.285 83.003,216.198 89.045,205 C91.741,200.004 93.824,194.058 95.414,186.82 C95.738,185.346 96.709,183.433 97.573,182.57 Z M128.97,66.532 C127.662,67.924 124.654,70.031 122.286,71.214 C119.918,72.397 117.244,74.178 116.343,75.173 C114.814,76.863 114.88,77.118 117.353,79.063 C119.721,80.925 120,81.818 120,87.514 C120,91.016 120.45,94.16 121,94.5 C121.55,94.84 122,96.216 122,97.559 C122,101.363 124.526,100.501 128.454,95.356 C132.665,89.841 132.804,89 129.5,89 C126.509,89 126.348,87.39 129,84 C130.076,82.625 130.966,80.578 130.978,79.45 C130.99,78.322 131.476,76.924 132.058,76.342 C132.639,75.761 133.377,72.746 133.697,69.642 C134.37,63.13 133.008,62.234 128.97,66.532 Z"/>
</svg>

