<svg xmlns="http://www.w3.org/2000/svg" width="300" height="300" viewBox="0 0 300 300" version="1.1">
  <defs/>
  <path d="M102.339,90.25 C103.354,88.621 108.132,88.645 110.382,90.29 C111.694,91.249 112.284,93.497 112.679,99.04 C112.971,103.143 113.378,106.677 113.583,106.894 C113.788,107.111 115.893,106.549 118.261,105.644 C120.629,104.74 125.318,104 128.68,104 C134.426,104 134.979,104.212 137.896,107.535 C141.446,111.578 141.636,113.52 139.163,120.5 C137.891,124.09 135.151,127.849 129.446,133.831 C125.076,138.412 121.05,143.137 120.5,144.331 C119.95,145.524 118.359,147.625 116.964,149 C115.336,150.605 113.957,153.647 113.11,157.5 C112.384,160.8 111.407,164.4 110.937,165.5 C110.468,166.6 109.592,169.525 108.991,172 C108.39,174.475 107.246,178.197 106.449,180.27 C105.652,182.344 105,184.706 105,185.52 C105,187.381 107.74,187.399 111,185.56 C115.722,182.896 125.786,178 126.54,178 C127.403,178 136.125,171.095 137.235,169.534 C138.335,167.986 138.148,163.548 136.932,162.332 C135.662,161.062 138.246,154 139.981,154 C140.577,154 142.512,154.621 144.282,155.38 C146.827,156.472 148.302,158.406 151.334,164.63 C153.443,168.959 155.805,173.694 156.584,175.154 C157.363,176.614 158,178.662 158,179.704 C158,180.747 158.392,182.027 158.871,182.55 C159.663,183.413 160.521,186.069 164.507,200 C167.05,208.888 169.494,220.192 170.993,230 C171.624,234.125 172.571,239.075 173.099,241 C173.626,242.925 174.517,246.75 175.078,249.5 C175.639,252.25 176.562,256.3 177.13,258.5 C179.387,267.243 179.321,269.35 176.715,271.798 C174.43,273.945 173.947,274.019 169.384,272.917 C166.698,272.269 163.876,271.157 163.113,270.447 C161.356,268.81 162.398,265.97 165.005,265.288 C166.714,264.842 167,263.921 167,258.87 C167,255.626 166.599,252.191 166.109,251.236 C164.836,248.754 162.246,236.849 160.946,227.5 C160.334,223.1 159.447,218.6 158.975,217.5 C158.503,216.4 157.821,213.925 157.46,212 C156.532,207.049 152.047,193.685 150.933,192.55 C150.42,192.027 150,190.602 150,189.383 C150,186.258 146.305,178 144.907,178 C144.267,178 141.106,179.8 137.883,182 C134.66,184.2 131.785,186 131.494,186 C131.204,186 127.711,187.966 123.733,190.368 C119.755,192.771 113.575,196.167 110,197.914 C106.425,199.661 103.05,201.648 102.5,202.328 C101.95,203.009 99.475,204.216 97,205.01 C94.525,205.804 90.063,208.152 87.084,210.227 C84.106,212.302 80.87,214 79.893,214 C78.917,214 77.851,214.432 77.525,214.96 C77.199,215.487 74.482,216.691 71.489,217.635 C66.279,219.277 65.959,219.273 64.023,217.52 C60.152,214.018 61.358,211.538 69.25,206.768 C73.237,204.357 78.75,201.371 81.5,200.13 C87.523,197.413 98.233,191.949 99.185,191.106 C99.561,190.773 99.936,185.775 100.017,180 C100.098,174.225 100.619,167.475 101.173,165 C101.977,161.412 101.857,159.74 100.578,156.75 C99.05,153.179 96.788,151.915 95.54,153.935 C94.539,155.555 83.883,160 81.002,160 C77.837,160 75.679,157.906 76.177,155.319 C76.365,154.342 79.102,151.833 82.26,149.744 C85.417,147.654 88,145.503 88,144.962 C88,144.422 86.51,141.847 84.688,139.24 C82.866,136.633 81.061,133.825 80.677,133 C79.732,130.973 77.251,127.125 72.703,120.636 C68.497,114.634 67.591,110.372 70.164,108.7 C73.687,106.411 84,113.735 84,118.526 C84,120.639 88.882,127 90.504,127 C91.2,127 92.531,125.838 93.462,124.418 C94.393,122.997 96.718,120.105 98.629,117.989 L102.103,114.143 L101.832,102.822 C101.683,96.595 101.911,90.938 102.339,90.25 Z M120.93,115.555 C116.719,117.819 113,121.764 113,123.968 C113,125.328 114.151,126.581 116.372,127.641 C119.597,129.178 119.878,129.15 122.779,127.005 C127.003,123.882 129.804,118.501 128.383,116.235 C127.006,114.038 124.224,113.785 120.93,115.555 Z M96.068,130.874 C94.553,133.704 94.698,140 96.277,140 C96.98,140 98.58,139.282 99.832,138.405 C102.979,136.201 102.614,129.659 99.318,129.189 C97.94,128.993 96.742,129.614 96.068,130.874 Z"/>
</svg>

