<svg xmlns="http://www.w3.org/2000/svg" width="300" height="300" viewBox="0 0 300 300" version="1.1">
  <defs/>
  <path d="M125.96,58.831 C129.007,57.914 133.784,57.126 136.576,57.081 C142.762,56.982 145.479,59.391 146.266,65.676 C147.019,71.677 143.059,79.375 133.781,89.95 C131.152,92.947 129,96.109 129,96.977 C129,98.77 126.805,100.836 121.012,104.492 L117,107.025 L117,114.513 C117,123.015 117.396,123.325 123.913,119.928 C126.099,118.789 129.151,118.001 130.694,118.178 C133.069,118.451 133.549,119.016 133.822,121.859 C134.162,125.415 131.027,130 128.256,130 C126.453,130 118.016,135.796 117.37,137.478 C117.098,138.187 117.579,140.449 118.438,142.505 C119.297,144.562 120,147.764 120,149.622 C120,151.48 120.423,153 120.939,153 C121.456,153 123.966,151.194 126.517,148.986 C129.068,146.778 132.403,144.326 133.929,143.537 C135.455,142.748 137.455,140.954 138.375,139.551 C139.617,137.655 140.908,137 143.401,137 C148.428,137 149.353,138.788 147.255,144.449 C145.918,148.058 144.734,149.502 142.268,150.532 C140.49,151.275 137.311,153.597 135.203,155.692 C133.096,157.786 130.537,159.976 129.517,160.558 C127.753,161.564 127.744,161.781 129.34,164.98 C132.025,170.362 132.591,180.832 130.51,186.622 C127.574,194.791 125.843,198.399 123.771,200.676 C121.25,203.446 122.042,204.663 127.292,206.083 C129.606,206.708 132.4,207.626 133.5,208.122 C134.6,208.617 137.75,209.646 140.5,210.409 C154.078,214.171 179.293,226.703 187,233.519 C188.375,234.735 193.325,238.099 198,240.995 C202.675,243.892 207.625,247.085 209,248.092 C210.375,249.1 213.525,251.139 216,252.624 C218.475,254.109 223.003,257.276 226.062,259.662 C229.121,262.048 232.097,264 232.674,264 C234.103,264 242.03,270.249 249.684,277.409 C256.646,283.921 257.424,286.417 253.407,289.343 C249.739,292.015 246.675,290.795 241.909,284.765 C239.647,281.904 236.38,278.498 234.648,277.195 C229.762,273.518 221.052,268 220.136,268 C219.681,268 218.453,267.034 217.405,265.854 C216.357,264.673 213.167,262.204 210.316,260.365 C207.465,258.527 204.847,256.561 204.498,255.996 C204.149,255.432 202.432,254.311 200.682,253.505 C198.932,252.699 196.713,251.581 195.75,251.02 C194.787,250.459 193.387,249.662 192.637,249.25 C190.159,247.887 178.546,240.184 176,238.215 C174.625,237.151 172.375,235.933 171,235.507 C169.625,235.081 166.925,233.503 165,232 C163.075,230.497 160.375,228.929 159,228.515 C157.625,228.102 155.825,227.211 155,226.536 C152.903,224.819 145.266,221.491 140.5,220.216 C138.3,219.627 133.575,218.253 130,217.163 C117.058,213.217 116.253,213.237 112.139,217.618 C102.512,227.869 87.643,240.393 80.668,244.125 C70.225,249.714 65.194,250.879 59.551,249.017 C55.532,247.69 55.329,245.875 59.082,244.82 C60.412,244.446 63.478,243.565 65.895,242.862 C70.372,241.56 78.518,235.934 87.493,227.945 C95.534,220.787 104,211.798 104,210.418 C104,209.658 101.674,208.698 98.25,208.045 C95.088,207.442 90.925,206.48 89,205.907 C87.075,205.334 82.355,204.558 78.512,204.182 C72.111,203.557 71.409,203.26 70.16,200.652 C68.252,196.666 69.542,195.817 78.175,195.378 C85.273,195.018 90.628,195.809 100,198.602 C102.475,199.34 106.349,200.229 108.61,200.577 C112.683,201.205 112.737,201.172 114.726,196.855 C120.096,185.203 121,182.063 121,175.065 C121,167.208 120.116,166.416 115.154,169.822 C109.779,173.513 93.258,180 89.234,180 C82.982,180 80.915,171.67 86.861,170.434 C94.761,168.792 103.051,165.554 107.25,162.469 C112.21,158.827 112.955,156.808 110.587,153.428 C108.91,151.034 108.699,142.432 110.24,139.26 C111.112,137.463 110.97,136.625 109.526,135.029 C108.031,133.377 107.734,131.32 107.783,122.957 C107.852,111.283 107.104,110.294 101.461,114.597 C98.415,116.921 97.516,117.179 95.926,116.186 C93.458,114.645 91,114.67 91,116.236 C91,116.915 89.915,119.728 88.588,122.486 C87.262,125.244 85.915,128.175 85.595,129 C85.275,129.825 84.602,131.175 84.1,132 C83.598,132.825 81.971,136.425 80.485,140 C78.998,143.575 76.481,149.159 74.891,152.41 C73.301,155.66 72,158.865 72,159.533 C72,161.276 68.055,170.033 65.864,173.154 C64.839,174.614 64,176.345 64,177 C64,177.656 62.425,181.511 60.5,185.568 C58.575,189.624 57,193.576 57,194.349 C57,195.122 56.354,196.291 55.564,196.947 C54.775,197.602 53.826,199.518 53.455,201.204 C53.085,202.891 51.706,206.412 50.391,209.03 C49.076,211.648 48,214.297 48,214.915 C48,215.534 46.786,217.943 45.302,220.27 C43.818,222.596 41.493,226.75 40.135,229.5 C35.044,239.811 32.684,241.683 28.569,238.674 C26.322,237.031 26.928,234.793 31.384,228.276 C34.228,224.118 40,212.984 40,211.658 C40,211.402 41.575,208.406 43.5,205 C45.425,201.594 47,197.988 47,196.985 C47,195.982 47.648,193.888 48.441,192.331 C50.514,188.258 54,180.134 54,179.375 C54,179.019 55.754,175.077 57.897,170.614 C61.476,163.163 65.967,152.155 70.592,139.5 C71.597,136.75 73.713,132.025 75.294,129 C78.785,122.324 80.541,117.684 83.052,108.5 C85.802,98.44 85.637,95.413 82.25,93.797 C80.086,92.765 79.434,91.686 79.189,88.731 C78.913,85.4 79.237,84.781 82.065,83.239 C83.818,82.282 86.433,80.566 87.876,79.424 C89.319,78.282 93.425,75.938 97,74.215 C103.029,71.31 105.945,69.629 116.46,62.997 C118.638,61.624 122.913,59.749 125.96,58.831 Z M103.425,11.444 C103.99,9.191 104.515,8.92 107.784,9.192 C111.266,9.481 111.607,9.814 113.206,14.5 C114.171,17.326 114.931,22.652 114.956,26.75 C114.99,32.346 115.326,34 116.429,34 C118.404,34 121,31.219 121,29.103 C121,28.138 122.1,26.315 123.445,25.052 C126.396,22.28 129.988,22.807 132.312,26.353 C133.641,28.382 133.684,29.355 132.607,33.002 C131.914,35.351 130.481,37.895 129.423,38.654 C124.39,42.268 115,52.561 115,54.465 C115,59.368 108.56,63.295 106.333,59.75 C105.901,59.063 105.666,52.425 105.811,45 C105.955,37.575 105.58,29.025 104.976,26 C102.989,16.049 102.775,14.034 103.425,11.444 Z M126.636,70.482 C125.06,71.317 123.319,72 122.765,72 C122.212,72 119.78,73.237 117.36,74.75 C113.346,77.259 113.019,77.763 113.624,80.5 C113.989,82.15 114.56,85.971 114.894,88.99 C115.679,96.105 117.99,96.9 120.96,91.078 C122.096,88.851 124.257,86.235 125.763,85.265 C127.268,84.295 129.26,82.601 130.19,81.5 C131.96,79.405 135.472,71.138 134.854,70.521 C133.543,69.21 129.074,69.189 126.636,70.482 Z M101.364,84.026 C99.09,85.013 96.926,86.311 96.555,86.911 C95.496,88.624 94.989,106 95.997,106 C96.494,106 98.882,104.662 101.304,103.028 L105.708,100.055 L106.391,91.865 C106.767,87.36 106.72,83.349 106.287,82.952 C105.854,82.556 103.639,83.039 101.364,84.026 Z"/>
</svg>

