<svg xmlns="http://www.w3.org/2000/svg" width="300" height="300" viewBox="0 0 300 300" version="1.1">
  <defs/>
  <path d="M140.146,40.541 C145.633,37.121 147.65,36.545 150.418,37.607 C153.78,38.897 152.162,43.04 146,48.922 C141.525,53.193 140,55.344 140,57.384 C140,58.889 138.244,65.38 136.097,71.81 C133.95,78.239 131.624,86.108 130.927,89.296 C130.231,92.483 129.288,95.322 128.831,95.605 C128.374,95.887 128,97.246 128,98.625 C128,100.003 127.559,101.955 127.021,102.961 C126.322,104.266 126.431,105.113 127.402,105.919 C128.48,106.814 130.566,105.083 137.471,97.559 C144.922,89.442 146.26,87.452 146.728,83.786 C147.332,79.059 149.796,76 153,76 C155.76,76 158.346,78.604 160.45,83.5 C161.395,85.7 162.659,88.4 163.259,89.5 C164.607,91.972 167.055,97.008 169.945,103.255 L172.145,108.009 L169.807,112.255 C166.036,119.105 161.05,118.552 161.015,111.28 C160.992,106.456 154.014,94.674 151.705,95.56 C151.032,95.818 149.37,98.124 148.012,100.683 C146.654,103.243 144.071,106.206 142.272,107.267 C138.484,109.502 138.141,111.285 141.101,113.358 C143.002,114.69 143.11,115.29 142.238,119.665 C141.707,122.324 141.4,125.85 141.555,127.5 C141.711,129.15 141.874,131.512 141.919,132.75 C142.038,136.061 143.783,135.521 150.868,129.98 C154.37,127.241 157.64,125 158.134,125 C159.522,125 162.356,131.629 161.7,133.34 C161.039,135.062 152.822,141.644 148.168,144.179 C144.371,146.247 141.88,151.852 142.039,157.967 C142.104,160.46 141.672,165.2 141.079,168.5 C140.486,171.8 139.947,178.55 139.882,183.5 C139.816,188.45 139.535,192.885 139.258,193.355 C138.98,193.825 138.578,196.45 138.364,199.188 C138.097,202.6 137.144,205.256 135.334,207.629 C131.616,212.503 133.101,213.743 140.635,212.057 C149.407,210.094 216.079,210.413 225.833,212.465 C229.847,213.309 235.966,214 239.431,214 C249.75,214 254.732,219.539 249.41,225.094 C246.207,228.437 245.896,228.483 239.365,226.589 C229.179,223.634 218.865,221.859 211.814,221.848 C148.666,221.747 125.174,222.157 123.173,223.393 C122.716,223.675 115.853,224.141 107.921,224.427 C99.989,224.714 89.182,225.238 83.904,225.592 C73.136,226.314 70,225.409 70,221.576 C70,220.281 70.787,218.288 71.75,217.146 C73.399,215.191 74.601,215.061 92.5,214.912 C112.515,214.744 127.754,213.646 129.13,212.27 C129.581,211.819 129.438,209.779 128.811,207.737 C127.951,204.934 127.961,203.102 128.85,200.262 C129.498,198.193 130.198,190.061 130.405,182.192 C130.613,174.323 131.056,167.61 131.391,167.276 C132.426,166.24 132.061,156 130.989,156 C130.432,156 127.34,157.8 124.117,160 C120.894,162.2 117.471,164 116.511,164 C115.55,164 113.226,165.35 111.347,167 C106.936,170.873 103.757,170.871 100.996,166.994 C97.783,162.483 98.682,160.872 106.009,158.012 C112.029,155.662 119.001,151.879 128.281,145.926 L132.063,143.5 L131.627,130.5 C131.228,118.598 131.028,117.475 129.258,117.202 C128.195,117.038 126.747,117.6 126.04,118.452 C123.192,121.884 116.725,119.756 114.657,114.707 C113.478,111.828 113.582,111.024 115.672,106.855 C116.952,104.3 118,101.29 118,100.167 C118,99.043 119.081,94.608 120.402,90.312 C121.723,86.015 123.54,79.8 124.441,76.5 C125.341,73.2 126.962,68.7 128.042,66.5 C129.122,64.3 130.004,62.163 130.003,61.75 C129.999,60.705 126.242,60.806 125.833,61.861 C125.395,62.995 111.766,70 109.999,70 C107.637,70 104,65.772 104,63.026 C104,59.497 105.72,58 109.775,58 C112.125,58 115.33,56.56 120.325,53.259 C124.271,50.652 128.391,48.153 129.479,47.707 C130.568,47.26 132.209,46.216 133.125,45.387 C134.042,44.557 137.201,42.377 140.146,40.541 Z M54.75,97.08 C57.165,95.673 58.206,95.756 60.777,97.557 C62.65,98.868 63,100.049 63,105.057 C63,108.326 63.232,111 63.515,111 C63.798,111 66.428,109.647 69.358,107.993 C73.409,105.707 75.424,105.135 77.772,105.604 C85.997,107.249 87.691,115.89 81.642,125.345 C79.773,128.268 77.929,131.648 77.546,132.856 C77.162,134.065 75.718,135.794 74.336,136.699 C72.094,138.168 71.893,138.804 72.465,142.615 C73.039,146.44 72.84,147.059 70.553,148.557 C69.149,149.477 67.992,150.741 67.983,151.365 C67.974,151.989 66.399,155.65 64.484,159.5 C62.569,163.35 60.999,167.175 60.995,168 C60.991,168.825 60.302,170.814 59.465,172.421 C56.711,177.702 59.444,177.481 65.64,171.923 C71.194,166.94 77.928,157.878 77.977,155.321 C78.016,153.291 81.035,151 83.67,151 C86.748,151 91.544,155.841 92.319,159.731 C94.071,168.526 95.098,172.413 95.935,173.421 C96.872,174.551 98.026,181.879 98.466,189.5 C98.593,191.7 99.014,195.32 99.402,197.545 C100.197,202.108 98.837,206.742 96.432,207.665 C93.358,208.844 91.358,204.947 90.158,195.44 C89.529,190.457 87.886,183.603 86.507,180.21 C85.128,176.816 84,172.892 84,171.488 C84,167.366 81.126,167.177 77.883,171.088 C76.327,172.965 75.042,175.194 75.027,176.042 C74.985,178.434 65.583,186.804 51.242,197.217 C46.942,200.338 43.45,200.717 40.829,198.345 C37.929,195.721 38.548,191.506 42.471,187.164 C47.972,181.075 54.954,166.337 54.985,160.75 C55.003,157.454 54.657,157.396 50.905,160.068 C47.451,162.527 44.672,161.955 42.271,158.291 C40.643,155.806 40.675,155.671 43.415,153.486 C46.116,151.332 46.182,151.077 44.997,147.369 C42.494,139.537 35.916,127.314 33.072,125.211 C30.276,123.144 27,117.915 27,115.521 C27,114.876 28.123,113.293 29.496,112.003 C31.793,109.846 32.208,109.772 34.682,111.079 C36.161,111.861 38.724,114.412 40.378,116.75 C42.032,119.088 44.064,121 44.895,121 C45.725,121 47.889,119.562 49.702,117.804 C52.908,114.697 53,114.378 53,106.354 C53,99.547 53.307,97.921 54.75,97.08 Z M52.175,126.59 C50.167,127.996 49.982,128.719 50.578,132.84 C50.949,135.403 51.609,137.952 52.044,138.504 C52.48,139.056 52.986,141.047 53.168,142.927 C53.58,147.173 55.585,148.005 57.147,144.578 C58.057,142.579 58.024,140.084 57,133.499 C56.273,128.825 55.4,125 55.061,125 C54.722,125 53.423,125.716 52.175,126.59 Z M68.25,119.534 C66.379,120.847 66,122.044 66,126.63 C66,131.34 66.256,132.099 67.75,131.823 C69.79,131.446 73.019,125.356 73.303,121.35 C73.54,118.013 71.474,117.271 68.25,119.534 Z"/>
</svg>

