<svg xmlns="http://www.w3.org/2000/svg" width="300" height="300" viewBox="0 0 300 300" version="1.1">
  <defs/>
  <path d="M154.072,64.413 C155.596,62.577 156.357,62.631 158.777,64.75 C161.473,67.112 163,72.172 163,78.748 C163,83.557 163.366,84.539 166.11,87.103 C168.921,89.728 169.145,90.371 168.438,93.754 C168.008,95.814 167.516,100.875 167.346,105 C167.175,109.125 166.604,114.75 166.077,117.5 C164.144,127.589 164.961,128.078 173.761,122.104 C181.33,116.966 190.635,112 192.694,112 C194.705,112 198,114.84 198,116.573 C198,117.895 193.927,120.69 186.584,124.407 C184.197,125.616 178.646,129.281 174.247,132.552 C163.2,140.769 160.127,147.952 165.5,153 C168.693,155.999 168.662,159.083 165.371,165.986 C161.43,174.25 161.174,175.063 160.716,180.749 C160.464,183.877 160.74,186.36 161.397,186.893 C162.696,187.946 171.305,192.689 182.5,198.52 C192.197,203.571 197.892,206.741 204.5,210.765 C207.25,212.44 215.291,217.115 222.368,221.155 C229.446,225.195 236.581,229.737 238.224,231.25 C239.867,232.762 241.844,234 242.617,234 C244.602,234 255.845,241.834 257.515,244.38 C258.28,245.546 260.523,247.37 262.5,248.433 C265.911,250.267 266.079,250.599 265.797,254.933 C265.525,259.123 265.266,259.527 262.662,259.825 C259.48,260.189 256.493,258.014 255.593,254.676 C255.27,253.479 253.401,251.375 251.44,250 C249.478,248.625 245.457,245.587 242.504,243.25 C239.551,240.912 236.534,239 235.8,239 C235.065,239 232.809,237.875 230.785,236.5 C228.762,235.125 226.814,234 226.457,234 C226.101,234 224.544,233.099 222.998,231.999 C218.631,228.889 208.61,223.26 174.935,205 C168.849,201.7 162.999,199 161.935,199 C159.588,199 159.553,199.847 159.521,256 L159.5,294.5 L156.813,294.81 C154.795,295.043 153.679,294.44 152.336,292.39 C150.012,288.844 148.986,277.503 150.174,268.504 C150.682,264.652 151.269,247.982 151.477,231.46 C151.686,214.938 152.162,200.204 152.534,198.719 C153.053,196.653 152.795,195.859 151.438,195.338 C149.451,194.575 146.14,197.999 138.226,209 C135.654,212.575 130.164,219.69 126.025,224.812 C121.886,229.934 117.375,235.63 116,237.47 C111.147,243.963 101.633,255.522 99.718,257.25 C95.766,260.816 90,258.459 90,253.279 C90,251.486 91.546,249.218 95.078,245.832 L100.157,240.963 L99.7,233.731 C99.166,225.266 97.699,218.299 96.12,216.72 C95.504,216.104 95,214.592 95,213.359 C95,212.126 94.55,210.84 94,210.5 C93.45,210.16 93,208.87 93,207.632 C93,206.395 92.339,204.509 91.532,203.441 C90.724,202.374 90.049,200.706 90.032,199.736 C90.014,198.766 89.583,197.191 89.073,196.236 C88.563,195.281 87.902,193.713 87.604,192.75 C86.756,190.01 84.256,190.674 80.078,194.75 C65.55,208.922 55.501,217 52.398,217 C50.701,217 46,213.034 46,211.602 C46,210.254 47.678,208.463 52.661,204.491 C56.475,201.451 58.752,194.603 59.308,184.5 C59.52,180.65 60.02,176.751 60.421,175.835 C60.926,174.68 60.055,172.96 57.574,170.214 C55.608,168.038 54,165.294 54,164.115 C54,162.937 53.603,161.191 53.117,160.236 C52.631,159.281 51.668,157.15 50.976,155.5 C46.927,145.835 43.044,139.163 39.25,135.351 C38.012,134.108 37,132.428 37,131.617 C37,129.843 39.672,127 41.339,127 C43.359,127 50,131.985 50,133.501 C50,135.832 53.817,137.376 55.814,135.852 C56.741,135.145 57.725,134.401 58,134.2 C58.275,133.999 58.539,130.379 58.586,126.157 C58.634,121.935 59.212,117.472 59.871,116.24 C61.389,113.404 65.871,113.257 69.139,115.935 C71.182,117.609 71.332,118.146 70.25,119.921 C67.537,124.374 70.277,125.459 75.5,122 C79.646,119.254 81.725,119.494 85.099,123.106 C87.535,125.713 88,127.05 88,131.441 C88,137.108 84.734,148.409 82.429,150.713 C81.643,151.5 81,152.628 81,153.22 C81,153.813 78.975,156.757 76.5,159.764 C72.34,164.817 72,165.658 72,170.892 C72,174.012 71.393,177.441 70.648,178.527 C69.904,179.612 68.999,182.412 68.636,184.75 C68.065,188.432 68.219,189 69.792,189 C73.141,189 81,179.257 81,175.106 C81,170.188 86.277,167.219 89.06,170.572 C90.437,172.231 94.804,182.107 95.662,185.5 C95.94,186.6 96.528,188.4 96.969,189.5 C97.411,190.6 98.344,193.525 99.044,196 C99.743,198.475 100.831,201.4 101.46,202.5 C102.089,203.6 103.171,206.525 103.863,209 C104.556,211.475 105.616,214.85 106.219,216.5 C106.821,218.15 107.51,221.863 107.749,224.75 C107.989,227.637 108.587,230 109.078,230 C110.368,230 117.711,220.415 127.755,205.618 C141.148,185.889 148,174.655 148,172.427 C148,171.707 148.45,170.84 149,170.5 C149.55,170.16 150.014,168.896 150.032,167.691 C150.049,166.486 150.724,164.626 151.532,163.559 C153.124,161.453 153.609,151 152.114,151 C151.216,151 142.801,156.551 135.5,161.96 C133.3,163.59 130.15,165.68 128.5,166.604 C126.85,167.529 122.408,170.358 118.628,172.892 C108.872,179.434 108,179.868 103.162,180.599 C98.031,181.373 96.506,180.21 95.715,174.914 C95.012,170.211 95.67,169.408 100.768,168.743 C103.115,168.436 107.205,166.794 109.855,165.093 C112.506,163.392 115.274,162 116.007,162 C116.739,162 119.804,160.608 122.818,158.908 C128.705,155.585 153.009,138.302 154.25,136.556 C154.663,135.975 154.888,129.431 154.75,122.012 C154.524,109.798 154.326,108.491 152.651,108.17 C151.634,107.975 149.609,108.927 148.151,110.286 C146.693,111.645 143.88,113.506 141.899,114.422 C139.108,115.712 137.565,117.544 135.042,122.565 C131.462,129.69 128.815,131.921 126.36,129.884 C124.643,128.459 125.274,122.574 127.419,120 C129.53,117.467 130.996,108.191 131.765,92.5 C132.486,77.795 132.546,77.493 134.832,77.17 C137.879,76.738 140.996,79.63 141.015,82.905 C141.023,84.332 141.665,87.3 142.441,89.5 C143.674,92.992 143.662,93.796 142.35,95.831 C140.783,98.262 141.146,101 143.035,101 C143.639,101 145.608,99.875 147.411,98.5 C149.214,97.125 151.193,96 151.809,96 C153.765,96 154.985,92.435 154.094,89.326 C152.743,84.618 152.727,66.034 154.072,64.413 Z M74.535,133.549 C73.192,134.564 72.338,136.849 71.837,140.767 C71.433,143.92 70.804,147.963 70.438,149.75 C70.072,151.537 70.174,153 70.664,153 C72.369,153 76,149.877 76,148.41 C76,147.598 77.16,144.644 78.578,141.846 C82.509,134.088 80.171,129.288 74.535,133.549 Z M57.556,147.91 C56.693,149.306 58.044,152 59.607,152 C60.426,152 61,150.97 61,149.5 C61,147.044 58.737,145.999 57.556,147.91 Z M45.533,137.947 C44.653,139.37 45.775,141 47.632,141 C48.508,141 49.01,140.297 48.823,139.333 C48.434,137.324 46.437,136.484 45.533,137.947 Z"/>
</svg>

