<svg xmlns="http://www.w3.org/2000/svg" width="300" height="300" viewBox="0 0 300 300" version="1.1">
  <defs/>
  <path d="M106.968,8.539 C108.862,6.256 111.305,6.662 114.242,9.75 C117.468,13.14 119.966,20.101 119.985,25.75 C119.998,29.335 120.314,30 122.01,30 C123.115,30 124.803,29.032 125.76,27.85 C131.103,21.247 133.713,20.443 137.686,24.174 C141.862,28.098 140.255,31.72 130.872,39.536 C123.403,45.758 119.669,52.036 120.204,57.473 C120.605,61.547 123.066,61.807 127.724,58.267 C133.42,53.939 144,50.441 144,52.887 C144,53.499 144.686,54 145.525,54 C147.475,54 149.197,58.417 149.156,63.317 C149.122,67.318 143.856,83.884 141.39,87.75 C140.131,89.722 140.148,90.297 141.53,92.405 C142.966,94.597 142.964,95.152 141.502,98.655 C139.672,103.039 136.352,106.138 130.301,109.11 C127.991,110.244 125.574,111.809 124.928,112.586 C124.283,113.364 123.151,114 122.413,114 C120.159,114 118.799,117.926 118.646,124.878 C118.51,131.062 118.651,131.521 120.781,131.824 C122.095,132.01 125.03,130.844 127.703,129.074 C130.255,127.383 132.63,126 132.98,126 C134.483,126 136.805,128.695 137.356,131.077 C138.183,134.655 133.25,139.225 125.5,142.062 C122.2,143.27 118.79,144.875 117.921,145.629 C115.493,147.737 114.443,147.335 110.578,142.82 C107.032,138.678 105.689,132.928 107.942,131.536 C109.454,130.601 108.613,123.547 106.954,123.247 C106.154,123.103 103.025,125.306 100,128.143 C94.475,133.326 90.026,140.666 90.009,144.628 C90.004,145.798 89.325,147.315 88.5,148 C87.675,148.685 87,150.454 87,151.931 C87,153.409 86.339,155.491 85.532,156.559 C84.724,157.626 84.049,159.37 84.032,160.434 C84.014,161.498 83.059,164.423 81.91,166.934 C78.519,174.341 78.149,175.333 77.443,178.914 C77.072,180.792 75.732,184.28 74.464,186.664 C73.196,189.048 71.864,192.344 71.503,193.988 C71.142,195.632 70.431,197.234 69.923,197.548 C69.415,197.861 69,198.756 69,199.536 C69,202.005 52.124,236.609 48.835,240.885 C47.826,242.197 47,243.884 47,244.635 C47,245.386 46.59,246 46.089,246 C45.588,246 44.21,248 43.027,250.444 C40.319,256.037 37.232,260 35.582,260 C34.883,260 33.494,259.098 32.496,257.996 C31.936,257.377 31.514,256.984 31.333,256.501 C30.866,255.255 32.001,253.407 36.477,245.5 C38.345,242.2 41.748,235.675 44.039,231 C56.861,204.833 60,198.163 60,197.077 C60,196.417 61.096,193.542 62.435,190.688 C63.774,187.835 65.174,184.258 65.546,182.741 C65.917,181.223 66.622,179.734 67.111,179.432 C67.6,179.129 68,178.083 68,177.106 C68,176.13 69.845,170.869 72.101,165.415 C78.65,149.58 87,119.517 87,111.774 C87,109.076 87.43,106.065 87.956,105.083 C88.501,104.063 88.609,100.552 88.206,96.899 L87.5,90.5 L83.034,90.5 C79.114,90.5 78.454,90.178 77.632,87.867 C76.133,83.649 77.423,82.293 85.189,79.928 C89.21,78.704 94.408,76.869 96.739,75.851 C99.071,74.833 101.186,74 101.439,74 C101.692,74 103.947,72.618 106.45,70.929 L111,67.858 L111.091,60.179 C111.366,36.998 110.857,30.379 107.907,18.789 C106.089,11.644 105.92,9.801 106.968,8.539 Z M85.246,174.25 C86.419,172.783 90.857,172.624 92.991,173.973 C94.181,174.726 94.483,177.433 94.491,187.408 C94.496,194.716 94.932,200.332 95.541,200.941 C97.343,202.743 101,199.325 101,195.838 C101,194.044 102.03,191.565 103.5,189.818 C105.116,187.897 106,185.619 106,183.374 C106,175.668 110.624,171.877 115.5,175.585 C115.812,175.822 116.075,175.955 116.3,176.137 C117.682,177.252 117.6,180.179 118.149,220 L118.5,245.5 L130,245.222 C136.325,245.069 149.825,244.439 160,243.823 C170.175,243.207 180.975,242.815 184,242.953 C187.025,243.09 199.4,243.553 211.5,243.982 C241.319,245.039 250.012,247.223 251.507,254.033 C252.004,256.297 251.716,257.656 250.439,259.067 C248.073,261.682 244.148,261.498 238.342,258.499 C230.766,254.586 216.377,253.299 183,253.548 C151.2,253.784 125.326,254.681 123.844,255.597 C123.306,255.929 116.484,256.592 108.683,257.071 C100.882,257.551 91.575,258.388 88,258.933 C84.425,259.478 75.471,260.471 68.103,261.14 L54.706,262.355 L52.853,260.067 C50.677,257.379 50.545,255.99 52.25,253.714 C53.243,252.389 56.481,251.828 68,250.984 C75.975,250.4 88.7,249.171 96.277,248.253 C108.02,246.831 109.944,246.357 109.303,245.042 C108.889,244.194 108.419,236.075 108.259,227 C108.099,217.925 107.764,209.938 107.515,209.25 C106.683,206.95 103.954,207.965 100.115,212 C95.193,217.174 90.482,217.55 86.713,213.07 C84.3,210.204 84.248,209.771 84.248,192.82 C84.247,182.789 84.668,174.974 85.246,174.25 Z M165.922,153.146 C167.634,149.947 171.43,150.391 174.07,154.099 C176.077,156.916 176.209,157.892 175.53,164.849 C175.12,169.057 174.437,176.1 174.014,180.5 C173.008,190.967 171.076,195.921 167.383,197.507 C165.797,198.188 163.409,199.927 162.076,201.373 C160.742,202.818 159.167,204.016 158.576,204.036 C157.984,204.056 156.178,205.152 154.563,206.472 C151.677,208.831 151.624,209.054 151.451,219.409 C151.294,228.831 150.97,230.557 148.388,235.723 C145.36,241.779 142.473,243.48 140.092,240.61 C139.111,239.428 139.147,237.99 140.272,233.576 C142.213,225.954 141.534,194.318 139.24,185.5 C138.668,183.3 138.275,177.172 138.368,171.882 C138.609,158.122 140.867,156.005 148.105,162.757 L152.133,166.515 L152.192,180.776 C152.254,195.646 152.943,198.024 156.072,194.159 C157.034,192.972 158.118,192 158.482,192 C159.29,192 160.814,190.442 163.862,186.5 C166.124,183.575 166.165,183.148 165.478,169.396 C164.981,159.453 165.112,154.66 165.922,153.146 Z M129.911,67.539 C122.993,72.689 119.318,74.985 111.5,79.039 C107.1,81.321 102.068,84.063 100.318,85.134 C97.233,87.02 97.176,87.178 98.473,90.29 C99.484,92.715 99.62,95.945 99.031,103.5 C98.602,109 98.417,113.686 98.621,113.912 C99.017,114.353 101.673,113.089 106.465,110.177 C109.424,108.38 109.43,108.357 109.136,99.84 C108.659,86.03 111.35,79.472 116.527,81.83 C118.925,82.923 118.988,83.221 118.748,92.391 C118.611,97.581 118.817,102.145 119.203,102.533 C120.556,103.892 124.54,101.976 129.5,97.582 C134.013,93.584 134.378,92.951 133.25,91.089 C131.382,88.007 131.729,85.111 134.339,82.009 C136.781,79.107 139.728,67.988 138.558,66.093 C137.405,64.228 133.477,64.885 129.911,67.539 Z"/>
</svg>

