<svg xmlns="http://www.w3.org/2000/svg" width="300" height="300" viewBox="0 0 300 300" version="1.1">
  <defs/>
  <path d="M138,40.5 C138.536,39.854 138.811,39.436 139.198,39.251 C139.903,38.915 140.98,39.356 144.69,40.616 C147.307,41.505 149.994,42.967 150.66,43.866 C152.122,45.838 151.319,53.586 149.351,56.5 C146.433,60.82 142.269,65.627 137.25,70.47 C132.494,75.06 130.74,78 132.759,78 C133.177,78 134.053,78.855 134.706,79.901 C137.029,83.621 134.54,88.438 127.154,94.514 C121.528,99.142 120.083,100.973 118.588,105.373 C115.359,114.872 118.107,117.608 124.802,111.56 C126.969,109.602 129.449,108 130.312,108 C131.176,108 132.16,107.55 132.5,107 C133.359,105.61 138.346,105.746 139.8,107.2 C142.152,109.552 141.108,113.207 136.958,117.155 C134.735,119.27 132.095,121 131.093,121 C130.09,121 128.197,121.817 126.885,122.816 C125.573,123.815 122.573,125.615 120.219,126.816 C116.189,128.872 115.72,128.91 112.254,127.462 C107.595,125.515 107.034,124.582 107.015,118.75 C107.002,114.599 106.736,114 104.904,114 C103.752,114 101.502,114.93 99.905,116.068 C98.13,117.331 96.245,117.895 95.056,117.518 C93.041,116.878 92.968,116.997 86.085,132.066 C84.938,134.577 84,137.263 84,138.036 C84,138.808 81.566,144.404 78.591,150.47 C75.616,156.537 72.369,164.2 71.374,167.5 C70.38,170.8 67.864,176.932 65.783,181.126 C63.702,185.32 62,189.203 62,189.754 C62,190.304 61.325,191.315 60.5,192 C59.675,192.685 59,193.845 59,194.578 C59,195.311 57.929,197.49 56.619,199.42 C55.309,201.35 53.939,204.918 53.575,207.349 C53.21,209.78 52.032,212.566 50.956,213.54 C49.88,214.513 49,215.978 49,216.795 C49,218.855 44.871,227.063 42.75,229.22 C41.788,230.199 41,231.845 41,232.878 C41,233.91 40.325,235.315 39.5,236 C38.675,236.685 38,237.795 38,238.467 C38,239.14 37.1,240.505 36,241.5 C34.9,242.495 34,243.837 34,244.481 C34,245.125 32.875,246.708 31.5,248 C30.125,249.292 29,250.919 29,251.615 C29,253.769 27.375,254.034 24.121,252.411 C21.356,251.031 21,250.366 21,246.582 C21,242.276 22.498,240.013 26.218,238.696 C27.164,238.361 28.603,236.493 29.417,234.544 C30.231,232.595 31.956,229.538 33.25,227.75 C34.543,225.963 36.105,223.375 36.721,222 C37.337,220.625 40.071,214.775 42.796,209 C45.521,203.225 48.08,197.375 48.481,196 C48.883,194.625 50.691,190.35 52.499,186.5 C59.572,171.44 64,161.787 64,161.432 C64,161.227 65.125,158.6 66.5,155.594 C67.875,152.588 69,149.479 69,148.687 C69,147.894 69.675,146.685 70.5,146 C71.325,145.315 72,144.23 72,143.589 C72,142.948 72.829,140.796 73.843,138.808 C74.857,136.82 76.275,133.012 76.995,130.346 C77.714,127.681 78.872,124.375 79.566,123 C82.416,117.359 89.305,96.188 88.879,94.379 C88.765,93.896 88.945,92.375 89.278,91 C89.612,89.625 90.153,86.827 90.482,84.782 C90.81,82.737 91.765,80.378 92.603,79.54 C95.04,77.103 93.305,75.832 88.521,76.549 C84.265,77.187 84.206,77.155 83.011,73.534 C81.966,70.366 82.039,69.614 83.557,67.937 C84.521,66.872 86.028,65.999 86.905,65.997 C88.932,65.993 99.441,60.649 108.5,55.016 C117.537,49.396 132.545,42 134.912,42 C135.926,42 137.315,41.325 138,40.5 Z M138.739,175 C141.079,173.746 142.086,173.174 143.119,173.124 C144.008,173.081 144.917,173.424 146.713,174.05 C150.892,175.507 152.445,179.194 150.619,183.323 C149.846,185.071 148.936,187.175 148.596,188 C148.256,188.825 147.116,190.85 146.062,192.5 C143.738,196.138 143.521,198 145.42,198 C146.201,198 150.433,195.525 154.825,192.5 C159.216,189.475 163.682,187 164.75,187 C167.801,187 170.185,190.354 169.82,194.134 C169.546,196.981 168.927,197.672 165.48,198.978 C163.27,199.815 160.345,201.303 158.98,202.285 C153.289,206.381 137.972,216 137.142,216 C136.649,216 135.678,216.683 134.985,217.518 C134.292,218.354 132.246,219.738 130.44,220.595 C128.375,221.575 126.561,223.518 125.556,225.827 C124.676,227.847 123.099,230.85 122.051,232.5 C121.003,234.15 120.113,236.318 120.073,237.317 C120.033,238.316 118.812,240.691 117.361,242.594 C115.909,244.497 114.974,246.308 115.284,246.617 C115.593,246.927 113.744,249.76 111.173,252.913 C85.211,284.763 81.607,287.99 71.991,287.996 C67.668,287.999 66.227,287.593 65.3,286.109 C63.396,283.059 65.909,280.518 70.524,280.829 C73.956,281.06 74.809,280.52 80.882,274.276 C87.78,267.183 98.54,253.493 100.944,248.75 C101.711,247.238 102.712,246 103.169,246 C103.626,246 104,245.467 104,244.814 C104,244.162 104.814,242.7 105.809,241.564 C106.804,240.429 108.145,238.262 108.788,236.75 C110.476,232.779 108.512,233.141 102,238 C99.051,240.2 95.89,242 94.974,242 C94.059,242 92.458,242.941 91.417,244.092 C89.45,246.265 82.508,250 80.435,250 C79.78,250 78.745,250.602 78.135,251.337 C77.525,252.073 74.525,253.274 71.469,254.008 C66.567,255.183 65.725,255.154 64.326,253.755 C60.9,250.329 63.241,247.751 75.218,241.764 C81.423,238.663 89.293,234.297 92.707,232.063 C96.121,229.828 99.431,228 100.063,228 C100.695,228 102.852,226.71 104.856,225.134 C106.86,223.557 109.524,221.948 110.777,221.558 C114.352,220.444 115.788,217.099 116.157,209.022 C116.455,202.533 116.268,201.499 114.747,201.199 C113.783,201.008 111.695,202.151 110.107,203.739 C108.52,205.326 105.99,207.497 104.485,208.563 C95.296,215.07 93.679,215.362 89.719,211.228 C87.54,208.954 86.897,207.023 86.138,200.478 C85.63,196.09 84.715,191.233 84.107,189.685 C81.525,183.117 83.657,176.676 87.697,178.838 C91.32,180.777 93.175,183.946 94.907,191.158 C95.977,195.615 97.226,198.607 98.085,198.773 C99.347,199.017 104.822,195.464 113.423,188.819 C117.85,185.399 127.08,180 128.499,180 C129.19,180 130.315,179.325 131,178.5 C131.685,177.675 132.866,177 133.626,177 C134.386,177 136.686,176.1 138.739,175 Z M122.75,247.203 C124.813,246.655 127.783,246.16 129.35,246.103 C132.621,245.985 154.288,253.309 173.5,261.027 C187.308,266.574 191.12,268.332 202.968,274.62 C220.908,284.142 223.673,285.712 229.786,289.849 C232.929,291.976 237.525,295.017 240,296.608 L244.5,299.5 L235.545,299.792 C227.747,300.046 226.26,299.819 224.045,298.033 C222.645,296.905 220.425,295.524 219.112,294.963 C217.799,294.403 213.074,291.576 208.612,288.68 C201.036,283.764 186.299,276.039 184.361,275.969 C183.887,275.952 181.25,274.831 178.5,273.478 C175.75,272.125 172.919,271.014 172.208,271.009 C171.498,271.004 168.123,269.705 164.708,268.122 C161.294,266.54 155.35,264.21 151.5,262.946 C147.65,261.682 143.612,260.052 142.527,259.324 C141.443,258.596 139.62,258 138.477,258 C137.335,258 135.972,257.628 135.45,257.174 C134.928,256.72 132.475,255.776 130,255.078 C118.604,251.862 115.972,249.003 122.75,247.203 Z M124.946,131.859 C130.168,128.5 133.769,128.244 137.251,130.982 C139.966,133.118 141.741,139.367 140.188,141.326 C139.676,141.972 138.649,144.923 137.905,147.884 C136.635,152.943 136.068,153.63 128.527,159.253 C124.112,162.544 119.375,165.725 118,166.321 C116.625,166.917 115.351,167.5 115.169,167.617 C114.987,167.733 115.293,168.679 115.849,169.718 C117.016,171.898 116.365,173.246 113.39,174.81 C111.652,175.725 110.692,175.486 107.938,173.454 C106.099,172.097 103.789,169.715 102.804,168.159 C101.729,166.461 98.854,164.418 95.612,163.048 C89.891,160.629 87.605,157.826 88.161,153.909 C89.004,147.964 98.707,148.102 103.973,154.134 C107.391,158.049 108.963,157.295 111.002,150.764 C113.693,142.149 117.977,136.341 124.946,131.859 Z M132.492,54.622 C129.746,56.064 126.79,57.864 125.921,58.622 C125.053,59.38 123.302,60 122.029,60 C120.757,60 116.967,61.722 113.608,63.827 C110.249,65.931 104.858,68.737 101.629,70.061 C98.4,71.385 95.511,73.11 95.21,73.894 C94.894,74.718 95.853,76.268 97.483,77.568 C100.006,79.58 100.328,80.513 100.538,86.42 C100.667,90.051 100.374,93.269 99.886,93.57 C99.399,93.871 98.997,94.879 98.994,95.809 C98.99,96.739 98.318,98.784 97.499,100.354 C95.947,103.329 96.252,105 98.347,105 C99.424,105 105.376,98.586 107.319,95.332 C107.702,94.69 108.207,90.413 108.44,85.827 C108.979,75.204 110.138,72 113.44,72 C116.664,72 118,74.6 118,80.875 C118,86.361 118.962,87.665 121.732,85.935 C124.086,84.465 126,80.347 126,76.754 C126,74.641 126.769,73.468 128.986,72.203 C130.633,71.264 132.623,68.88 133.423,66.887 C134.221,64.9 136.027,61.575 137.437,59.498 C140.186,55.447 140.786,52 138.742,52 C138.05,52 135.238,53.18 132.492,54.622 Z M110.291,1.202 C115.648,-1.385 116.751,0.249 117.249,11.513 C117.556,18.436 117.987,20.566 119.129,20.786 C121.143,21.174 124.691,17.943 125.984,14.542 C126.978,11.929 127.31,11.794 131.223,12.42 C135.917,13.17 137.637,14.28 138.545,17.143 C139.036,18.687 137.124,21.067 129.581,28.303 C122.346,35.243 119.994,38.129 119.997,40.061 C120.001,43.1 116.677,47 114.083,47 C111.003,47 109.985,44.605 109.565,36.378 C109.344,32.045 108.651,24.45 108.024,19.5 C106.597,8.222 107.287,2.653 110.291,1.202 Z M127.726,191.644 C123.197,195.044 122.985,195.414 123.597,198.864 C123.952,200.864 124.638,202.928 125.121,203.45 C125.605,203.972 126,205.691 126,207.27 C126,209.634 126.376,210.083 128.138,209.82 C129.78,209.574 130.713,208.114 132.162,203.526 C133.2,200.24 134.488,197.112 135.024,196.576 C135.561,196.039 136,193.89 136,191.8 C136,186.88 134.121,186.844 127.726,191.644 Z M124.25,144.603 C123.013,146.015 122,148.032 122,149.085 C122,151.812 124.875,151.459 125.963,148.597 C126.466,147.276 127.354,145.899 127.938,145.538 C129.413,144.627 129.272,141.996 127.75,142.018 C127.063,142.028 125.487,143.191 124.25,144.603 Z M117,154.122 C117,155.896 117.247,156.04 118.5,155 C119.325,154.315 120,153.36 120,152.878 C120,152.395 119.325,152 118.5,152 C117.638,152 117,152.902 117,154.122 Z"/>
</svg>

