<svg xmlns="http://www.w3.org/2000/svg" width="300" height="300" viewBox="0 0 300 300" version="1.1">
  <defs/>
  <path d="M95.515,108.984 C97.787,106.473 99.477,106.477 102,109 C103.339,110.339 104,112.333 104,115.031 C104,117.56 104.521,119.263 105.397,119.599 C106.166,119.894 110.328,119.621 114.647,118.992 C118.966,118.363 127.225,117.219 133,116.449 C148.952,114.323 152.048,113.605 157.832,110.688 C163.807,107.676 167.176,107.302 168.96,109.452 C170.884,111.77 169.829,114.001 164.794,118.266 C159.81,122.488 157.355,123.274 143.136,125.204 C136.794,126.064 134.319,126.056 132.9,125.169 C130.385,123.599 128.497,123.697 127.022,125.474 C126.349,126.284 124.157,127.239 122.15,127.595 C120.142,127.952 116.25,128.8 113.5,129.48 L108.5,130.716 L107.601,135.909 C106.428,142.684 107.586,144.045 112.524,141.69 C117.146,139.486 120.284,139.551 122.407,141.897 C124.489,144.198 125.785,154.397 124.126,155.422 C123.507,155.805 123,157.573 123,159.351 C123,161.861 121.995,163.57 118.5,167 C114.872,170.561 113.994,172.103 113.968,174.958 C113.951,176.906 113.276,179.374 112.468,180.441 C111.573,181.625 111,184.625 111,188.132 C111,191.295 110.55,194.16 110,194.5 C108.114,195.666 108.96,198.001 111.25,197.95 C112.717,197.918 114.893,196.159 117.5,192.899 C119.7,190.148 122.85,187.194 124.5,186.334 C126.15,185.475 128.695,183.654 130.156,182.289 C132.139,180.435 133.406,179.985 135.156,180.513 C137.93,181.35 144,186.883 144,188.574 C144,189.223 144.625,190.274 145.388,190.907 C147.626,192.764 159,216.408 159,219.202 C159,220.606 159.675,222.315 160.5,223 C161.325,223.685 162,224.987 162,225.895 C162,226.802 163.282,229.109 164.848,231.022 C169.402,236.583 169.733,237.449 178.99,268 C182.126,278.349 185.133,294.621 184.429,297.426 C183.902,299.528 183.19,300 180.547,300 C176.82,300 173.425,296.94 174.383,294.444 C175.106,292.56 173.294,280.083 172.073,278.539 C171.621,277.967 170.997,276.15 170.687,274.5 C169.021,265.637 165.137,253.187 162.373,247.846 C161.618,246.386 161,244.178 161,242.94 C161,241.702 159.96,239.296 158.689,237.594 C157.417,235.892 155.758,232.925 155,231 C154.243,229.075 152.583,225.821 151.311,223.77 C150.04,221.718 148.967,219.468 148.927,218.77 C148.887,218.071 148.018,216.15 146.997,214.5 C145.975,212.85 143.815,208.8 142.196,205.5 C139.001,198.986 133.48,191 132.171,191 C131.347,191 126.014,198.618 125.983,199.84 C125.952,201.083 109.507,217.735 102.793,223.323 C94.78,229.991 91.347,231.866 84.023,233.573 C77.98,234.982 74.674,234.146 72.592,230.683 C71.694,229.188 71.993,228.467 74.276,226.624 C75.804,225.391 78.727,223.777 80.773,223.037 C86.813,220.853 94.693,214.288 96.82,209.667 C100.558,201.547 101.101,199.264 100.802,192.917 L100.5,186.5 L92.949,186.843 C86.989,187.113 85.123,186.853 84.088,185.605 C83.366,184.736 83.029,183.368 83.337,182.564 C83.646,181.76 83.224,179.751 82.4,178.1 C80.552,174.395 71.379,166.008 69.142,165.978 C68.239,165.966 66.453,165.15 65.173,164.165 C63.376,162.783 62.92,161.591 63.173,158.937 C63.494,155.561 63.59,155.495 68.579,155.204 C73.445,154.92 73.843,155.098 78.064,159.454 C80.488,161.954 82.964,164 83.568,164 C84.171,164 86.112,162.2 87.88,160 C89.648,157.8 91.664,156 92.36,156 C93.056,156 94.895,154.675 96.446,153.056 L99.267,150.112 L97.633,145.118 C96.735,142.371 96,138.746 96,137.062 C96,134.429 95.635,134 93.395,134 C90.473,134 75.881,138.133 69,140.909 C66.525,141.907 59.775,144.223 54,146.055 C48.225,147.886 43.005,149.748 42.399,150.191 C39.006,152.676 24,151.662 24,148.947 C24,147.674 30.027,144.009 32.128,144.004 C33.023,144.002 34.32,143.32 35.009,142.489 C36.186,141.071 39.319,140.029 58,134.841 C62.125,133.695 66.4,132.418 67.5,132.002 C68.6,131.586 73.55,130.02 78.5,128.522 C83.45,127.023 89.141,125.121 91.146,124.294 L94.791,122.79 L94.255,116.879 C93.821,112.087 94.059,110.592 95.515,108.984 Z M94.105,26.373 C95.55,24.632 97.117,24.634 99.504,26.379 C100.959,27.443 101.473,29.329 101.754,34.629 C101.954,38.408 102.587,42.456 103.161,43.625 C103.852,45.033 103.873,46.383 103.225,47.625 C102.686,48.656 102.161,52.65 102.059,56.5 C101.956,60.35 101.789,65.032 101.686,66.905 C101.584,68.777 101.965,70.47 102.533,70.666 C103.101,70.862 105.44,69.329 107.731,67.261 C110.022,65.192 113.009,62.719 114.368,61.764 C117.889,59.29 120,54.457 120,48.869 C120,44.799 120.399,43.784 122.557,42.371 C124.982,40.782 125.254,40.8 127.807,42.722 C129.941,44.328 130.444,45.45 130.228,48.124 C130.079,49.981 129.813,55.325 129.636,60 C128.819,81.688 127.793,89.726 125.471,92.638 C123.542,95.058 123.015,95.258 121.618,94.098 C120.308,93.011 120,90.677 120,81.846 C120,72.566 119.75,70.841 118.325,70.295 C117.216,69.869 116.119,70.435 115.075,71.97 C111.498,77.234 104.272,82.927 95.584,87.328 C84.382,93.001 79.744,93.451 75.778,89.25 C73.525,86.863 73.019,85.042 71.942,75.449 C70.524,62.826 71.376,59.348 76.284,57.729 C80.795,56.241 81.646,57.86 82.266,69.114 C82.573,74.674 83.265,79.665 83.804,80.204 C85.384,81.784 88.842,79.314 90.456,75.452 C93.512,68.137 94.384,51.584 92.416,38.231 C92.01,35.478 92.219,33.441 93.005,32.494 C93.675,31.686 93.941,30.288 93.595,29.386 C93.249,28.484 93.478,27.129 94.105,26.373 Z M95.602,167.489 C90.88,172.21 90.729,178.294 95.319,178.822 C99.467,179.299 101,177.458 101,172 C101,165.589 99.095,163.996 95.602,167.489 Z M110.975,156.565 C109.586,160.218 109.748,161 111.893,161 C113.875,161 115,159.159 115,155.918 C115,153.112 112.112,153.576 110.975,156.565 Z M43.074,141.877 C41.74,142.25 40.442,143.174 40.19,143.929 C39.577,145.769 45.502,144.641 47.629,142.513 C48.981,141.162 48.948,141.011 47.321,141.1 C46.32,141.155 44.408,141.504 43.074,141.877 Z"/>
</svg>

