<svg xmlns="http://www.w3.org/2000/svg" width="300" height="300" viewBox="0 0 300 300" version="1.1">
  <defs/>
  <path d="M130.044,56.739 C131.945,56.508 134.241,56.248 135.146,56.16 C136.052,56.072 138.231,57.638 139.989,59.641 C143.292,63.402 143.298,63.451 141.676,72.657 C141.466,73.844 139.844,77.387 138.07,80.53 C135.765,84.614 135.152,86.552 135.922,87.322 C138.15,89.55 136.78,91.934 129.065,99.255 C122.553,105.436 121.02,107.477 120.511,110.643 C120.17,112.764 119.455,115.297 118.923,116.272 C118.391,117.246 117.693,119.964 117.371,122.311 C116.926,125.558 117.177,126.902 118.423,127.936 C120.525,129.68 122.978,128.586 129.085,123.18 C134.936,118 138.12,117.12 140.913,119.913 C143.769,122.769 143.53,126.127 140.25,129.214 C137.436,131.862 122.607,139.344 117.858,140.513 C114.314,141.384 109.203,138.657 108.402,135.467 C107.724,132.763 108.429,121.196 109.544,116.75 C110.112,114.485 109.904,114.001 108.367,114.004 C106.098,114.01 94,125.071 94,127.141 C94,127.953 93.339,129.491 92.532,130.559 C91.724,131.626 91.049,134.007 91.032,135.849 C91.014,137.691 90.279,140.841 89.398,142.849 C88.517,144.857 87.404,147.4 86.925,148.5 C85.727,151.251 83.091,158.777 81.846,163 C81.278,164.925 80.406,166.928 79.907,167.45 C79.408,167.973 79,169.605 79,171.078 C79,172.55 78.304,174.333 77.453,175.039 C75.483,176.674 71.515,185.159 69.989,191 C69.342,193.475 68.321,196.4 67.721,197.5 C67.12,198.6 63.85,204.941 60.453,211.591 C57.056,218.242 51.29,227.553 47.639,232.283 C43.987,237.014 41,241.288 41,241.781 C41,242.275 39.802,243.225 38.338,243.892 C36.141,244.893 35.41,244.839 34.153,243.582 C32.826,242.255 32.811,241.702 34.038,239.28 C34.812,237.751 36.92,234.811 38.723,232.747 C40.525,230.683 42,228.519 42,227.937 C42,227.356 43.578,224.813 45.507,222.288 C49.168,217.492 57,202.061 57,199.642 C57,198.874 57.617,197.733 58.372,197.106 C59.126,196.48 59.982,194.513 60.274,192.734 C60.565,190.955 62.604,185.675 64.805,181 C67.006,176.325 69.392,170.7 70.107,168.5 C70.823,166.3 71.766,164.072 72.204,163.55 C72.642,163.027 73,161.651 73,160.491 C73,159.331 73.661,157.509 74.468,156.441 C75.276,155.374 75.951,153.764 75.968,152.864 C75.986,151.965 76.672,149.94 77.494,148.364 C78.315,146.789 78.99,144.128 78.994,142.45 C78.997,140.773 79.39,138.973 79.868,138.45 C81.829,136.302 87.038,111.802 87.896,100.686 C88.646,90.978 87.918,88.56 84.493,89.393 C83.122,89.727 80.914,90.264 79.587,90.587 C76.098,91.435 72.787,87.865 73.191,83.691 C73.497,80.533 73.558,80.5 79,80.456 C82.831,80.426 85.929,79.667 89.207,77.956 C104.16,70.154 110.017,66.948 114.446,64.138 C117.166,62.412 119.796,61 120.291,61 C120.786,61 122.405,60.135 123.889,59.079 C125.373,58.022 128.143,56.969 130.044,56.739 Z M99.2,144.2 C101.834,141.566 108,143.894 108,147.523 C108,148.282 107.334,151.458 106.521,154.581 C105.708,157.704 105.244,160.586 105.491,160.986 C105.738,161.385 108.092,161.505 110.722,161.253 C117.417,160.609 119.344,162.838 119.388,171.275 C119.416,176.724 118.816,178.736 114.571,187.418 C109.016,198.779 109.108,199.455 116.584,202.273 C119.288,203.292 122.774,204.772 124.331,205.563 C125.888,206.353 128.032,207 129.095,207 C130.157,207 131.809,207.454 132.764,208.01 C134.775,209.179 150.623,214.57 156.5,216.084 C158.7,216.65 162.3,218.152 164.5,219.42 C166.7,220.688 172.325,223.231 177,225.071 C185.787,228.529 200.041,235.501 210.5,241.455 C213.8,243.334 217.85,245.558 219.5,246.398 C221.15,247.238 224.3,249.486 226.5,251.393 C230.427,254.798 230.472,254.913 228.967,257.681 C228.123,259.231 226.435,260.644 225.216,260.82 C222.771,261.172 208.494,253.731 207.714,251.698 C207.445,250.996 200.312,247.006 191.863,242.831 C169.81,231.933 164.226,229.426 154.461,226.042 C149.679,224.386 144.4,222.348 142.73,221.515 C141.059,220.682 139.341,220 138.911,220 C138.482,220 136.863,219.473 135.315,218.828 C133.767,218.184 130.7,217.097 128.5,216.413 C126.3,215.73 120.453,213.782 115.507,212.085 C110.56,210.388 105.251,209 103.709,209 C100.931,209 96.02,213.065 95.982,215.396 C95.936,218.182 77.8,230 73.569,230 C72.291,230 70.674,229.312 69.976,228.471 C68.923,227.202 69.102,226.52 71.028,224.471 C72.304,223.112 74.343,222 75.559,222 C76.814,222 78.478,220.919 79.408,219.5 C80.309,218.125 81.611,217 82.301,217 C83.609,217 84.664,215.906 89.25,209.797 C93.069,204.71 92.898,202.98 88.645,203.67 C85.752,204.14 84.994,203.8 83.145,201.203 C80.379,197.319 80.418,193.316 83.25,190.459 C86.879,186.797 88,185.178 88,183.601 C88,182.785 88.45,181.84 89,181.5 C89.55,181.16 90,179.585 90,178 C90,176.415 90.369,174.89 90.82,174.612 C91.27,174.333 92.448,170.594 93.436,166.303 C94.425,162.011 95.856,156.685 96.617,154.467 C97.378,152.248 98,149.301 98,147.917 C98,146.532 98.54,144.86 99.2,144.2 Z M214.839,138.455 C215.454,137.105 216.648,136 217.493,136 C219.273,136 222.991,141.636 222.996,144.342 C222.998,145.356 223.848,147.263 224.885,148.581 C225.921,149.898 227.084,153.073 227.468,155.635 C227.852,158.198 228.579,161.128 229.083,162.147 C229.587,163.166 230.429,164.861 230.954,165.913 C231.479,166.965 233.064,173.434 234.476,180.288 L237.043,192.75 L234.478,197.857 C230.564,205.649 225.822,208.352 213.5,209.816 C202.982,211.066 197.431,210.608 183.5,207.341 C176.754,205.759 170.377,202.32 166.783,198.324 C163.63,194.82 163.539,183.138 166.568,170.715 C167.052,168.729 166.736,167.366 165.468,165.965 C163.223,163.484 163.02,163.497 158.712,166.421 C156.749,167.753 154.099,168.99 152.822,169.171 C150.885,169.445 150.313,170.412 149.369,175 C148.747,178.025 147.735,181.767 147.119,183.315 C146.504,184.863 145.978,188.013 145.952,190.315 C145.861,198.245 141.206,204.075 137.452,200.96 C135.763,199.558 135.529,193.748 137.049,190.909 C137.625,189.832 138.431,182.238 138.839,174.035 C139.46,161.558 139.886,158.784 141.446,157.06 C143.803,154.455 146.534,154.432 148.732,157 C151.026,159.679 152.119,159.529 155.425,156.078 C159.06,152.284 166.753,150.953 170.574,153.457 C175.169,156.467 176.992,160.793 176.996,168.691 C176.998,172.646 176.608,176.124 176.129,176.42 C172.961,178.378 174.797,193.166 178.511,195.599 C179.723,196.393 184.958,198.119 190.144,199.435 C198.283,201.499 200.622,201.71 207.224,200.969 C211.43,200.497 216.693,199.621 218.918,199.022 C222.668,198.012 223.074,197.551 224.475,192.716 C225.977,187.533 225.896,185.968 223.461,173 C222.838,169.678 220.733,162.856 218.987,158.5 C218.546,157.4 217.651,154.25 216.997,151.5 C216.344,148.75 215.339,145.242 214.764,143.705 C214.023,141.722 214.045,140.197 214.839,138.455 Z M102.312,2.628 C103.275,0.119 107.342,0.697 110.199,3.75 C112.48,6.188 112.907,7.862 113.959,18.5 C114.99,28.926 115.317,32.269 116.327,32.49 C116.806,32.595 117.439,31.996 118.374,31.118 C119.651,29.919 121.306,27.714 122.052,26.219 C125.866,18.577 130.987,16.656 132.902,22.149 C135.36,29.201 134.701,30.629 124.25,40.883 C118.888,46.144 114.02,51.78 113.433,53.408 C112.075,57.174 109.303,59.077 108.065,57.093 C107.582,56.319 106.894,51.594 106.536,46.593 C106.178,41.592 105.409,33 104.828,27.5 C104.246,22 103.778,16.6 103.788,15.5 C103.798,14.4 103.33,11.42 102.747,8.878 C102.164,6.336 101.969,3.524 102.312,2.628 Z M104.595,81.5 C102.569,82.875 100.508,84 100.015,84 C99.521,84 98.808,84.501 98.43,85.113 C97.492,86.631 97.909,104.301 98.907,105.303 C99.741,106.141 105.915,102.896 109.691,99.634 C111.657,97.936 111.866,96.855 111.729,89.121 C111.535,78.247 110.701,77.356 104.595,81.5 Z M126,70 C124.625,71.076 122.713,71.966 121.75,71.978 C119.818,72.002 119.704,72.475 120.059,79 C120.194,81.475 120.348,85.075 120.402,87 C120.487,90.025 120.834,90.5 122.959,90.5 C124.905,90.5 125.55,89.854 126.052,87.402 C126.4,85.698 128.149,81.299 129.939,77.625 C131.729,73.951 132.939,70.283 132.628,69.473 C131.847,67.439 128.983,67.667 126,70 Z M103.546,179.25 C102.732,181.037 100.926,184.518 99.533,186.985 C96.737,191.935 96.282,195 98.345,195 C100.052,195 102.998,191.789 103.005,189.921 C103.008,189.14 104.119,186.7 105.474,184.5 C106.829,182.3 107.952,179.488 107.969,178.25 C108.016,174.872 105.256,175.496 103.546,179.25 Z"/>
</svg>

