<svg xmlns="http://www.w3.org/2000/svg" width="300" height="300" viewBox="0 0 300 300" version="1.1">
  <defs/>
  <path d="M129,41.317 C134.24,39.514 135.031,39.678 141,43.813 C148.714,49.157 148.776,51.099 141.443,57.667 C138.269,60.51 133.52,63.885 130.889,65.167 C125.131,67.975 124.455,69.27 126.735,73.129 C129.136,77.193 131.79,76.51 135.005,71.001 C136.582,68.299 138.734,66.114 140.394,65.53 C142.771,64.695 143.424,64.905 145.057,67.029 C147.85,70.664 147.563,75.529 144.393,78.257 C142.96,79.49 141.378,81.4 140.878,82.5 C140.379,83.6 139.11,85.85 138.058,87.5 C137.007,89.15 136.113,90.838 136.073,91.25 C135.816,93.886 144.314,89.321 151.243,83.101 L153.987,80.639 L156.493,82.994 C159.498,85.817 159.834,90.733 157.226,93.739 C156.251,94.864 153.438,96.358 150.976,97.06 C144.742,98.836 140.824,102.613 141.204,106.481 C141.582,110.332 144.39,110.87 149.405,108.053 C151.416,106.924 153.744,106 154.58,106 C157.05,106 162,108.94 162,110.407 C162,112.239 156.333,116.424 151.871,117.886 C149.875,118.54 147.596,119.846 146.807,120.788 C144.77,123.218 143.092,130.908 142.069,142.5 C141.583,148 140.433,154.691 139.513,157.37 C137.768,162.448 138.379,164.559 141.273,163.449 C142.157,163.11 143.592,161.745 144.463,160.416 C147.215,156.215 152.028,158.135 153.45,164 C153.958,166.093 153.32,167.091 149.531,170.136 C146.553,172.528 143.493,173.999 140.584,174.435 C138.153,174.8 135.684,175.675 135.099,176.381 C134.232,177.425 127.146,180.102 121.308,181.589 C120.653,181.756 119.403,182.981 118.532,184.311 C117.299,186.193 117.177,187.336 117.985,189.46 C118.721,191.397 118.687,193.314 117.866,196.053 C116.971,199.04 116.999,201.283 117.989,205.947 C119.346,212.343 120.025,213.31 124,214.509 C128.308,215.809 152.356,227.769 157.035,230.938 C159.491,232.602 162.022,233.972 162.661,233.982 C163.299,233.992 167.124,235.509 171.161,237.354 C175.197,239.199 180.075,241.296 182,242.015 C185.868,243.458 202.384,253.487 205.439,256.248 C206.505,257.212 207.898,258 208.534,258 C209.17,258 210.547,258.961 211.595,260.136 C212.643,261.31 217.249,264.699 221.831,267.665 C233.356,275.128 243.005,284.65 242.985,288.543 C242.966,292.199 242.128,293.534 239.3,294.417 C236.593,295.261 231,292.565 231,290.416 C231,287.97 225.215,281.438 219.635,277.582 C216.811,275.631 211.8,272.034 208.5,269.589 C205.2,267.145 200.025,263.889 197,262.354 C193.975,260.819 190.218,258.527 188.65,257.262 C187.083,255.997 180.333,252.218 173.65,248.865 C166.968,245.512 160.375,242.163 159,241.422 C154.636,239.071 130.954,228.001 130.212,227.966 C129.82,227.947 127.7,227.063 125.5,226 C117.615,222.191 117.342,222.48 116.756,235.25 C116.473,241.438 116.15,253.7 116.039,262.5 C115.859,276.801 115.632,278.711 113.905,280.486 C112.394,282.039 111.593,282.237 110.236,281.394 C106.278,278.935 106.057,276.662 106.983,247.971 C107.774,223.475 107.698,220.323 106.28,218.756 C102.924,215.049 99.341,216.796 92.455,225.497 C90.28,228.246 84.51,234.546 79.632,239.497 C74.755,244.449 69.06,250.975 66.977,254 C64.895,257.025 61.132,261.888 58.617,264.806 C56.102,267.724 52.608,272.112 50.853,274.556 C49.097,277 47.243,279 46.732,279 C46.221,279 44.502,280.392 42.913,282.094 C40.956,284.188 38.759,285.357 36.112,285.712 C32.704,286.169 31.98,285.899 30.485,283.618 C28.891,281.185 28.885,280.824 30.408,278.5 C31.309,277.125 32.867,276 33.871,276 C36.356,276 48.786,262.453 56,251.883 C57.375,249.868 63.45,242.746 69.5,236.056 C75.55,229.366 82.209,221.554 84.297,218.696 C86.386,215.838 89.801,211.7 91.886,209.5 C96.615,204.51 105,193.314 105,191.989 C105,191.445 104.619,191 104.154,191 C102.945,191 96.97,193.99 93.846,196.158 C92.386,197.171 90.508,198 89.672,198 C88.837,198 86.881,199.063 85.327,200.363 C83.772,201.663 81.487,203.043 80.25,203.431 C79.013,203.818 78,204.533 78,205.02 C78,205.507 74.063,207.767 69.25,210.043 C64.438,212.318 59.6,215.007 58.5,216.016 C55.196,219.049 51.763,219.388 48.707,216.984 C47.218,215.813 46,213.955 46,212.856 C46,210.886 48.144,208 49.608,208 C50.755,208 71.846,197.243 77.5,193.773 C80.25,192.086 86.775,188.458 92,185.711 C105.003,178.876 105.312,178.562 104.479,173.023 C102.749,161.527 104.503,147.661 107.957,145.527 C108.499,145.191 110.015,145.619 111.324,146.477 C113.541,147.93 113.744,148.832 114.276,159.642 C114.599,166.194 115.342,171.738 115.982,172.374 C116.824,173.21 118.39,172.791 122.059,170.75 C124.777,169.238 127.885,168 128.965,168 C131.643,168 133.244,164.771 132.081,161.714 C131.576,160.385 131.351,156.531 131.581,153.149 C131.812,149.767 132.182,144.3 132.405,141 C132.651,137.355 132.413,135 131.799,135 C131.243,135 129.148,136.268 127.144,137.818 C119.036,144.09 110.133,145.986 107.95,141.907 C106.697,139.565 107.374,135.677 109.646,132.166 C111.045,130.004 111.288,129.95 112.931,131.438 C115.352,133.628 117.389,132.673 125.356,125.61 L132,119.72 L132,113.919 C132,110.729 131.541,107.834 130.98,107.488 C129.473,106.556 123.508,108.781 121.466,111.038 C119.08,113.674 118.379,113.539 114.944,109.777 C110.738,105.173 111.161,102.896 117.5,96 C123.24,89.757 123.981,87.742 121.535,85.038 C120.653,84.064 119.972,80.955 119.825,77.236 C119.676,73.46 119.101,70.869 118.349,70.58 C116.189,69.752 113.779,65.215 114.67,63.656 C115.127,62.857 118.307,60.099 121.738,57.526 C129.225,51.912 129.624,51.353 127.691,49.187 C126.863,48.259 126.032,46.38 125.843,45.011 C125.557,42.938 126.085,42.321 129,41.317 Z M78.806,56.399 C84.652,54.825 88.573,54.701 91.025,56.014 C93.913,57.559 96.328,63.458 95.624,67.249 C95.291,69.037 94.845,71.582 94.63,72.905 C94.416,74.227 93.299,76.027 92.148,76.905 C90.745,77.974 89.634,80.631 88.777,84.966 C87.674,90.549 87.036,91.743 84.102,93.716 C82.233,94.972 79.569,96 78.181,96 C75.485,96 72,98.537 72,100.5 C72,101.155 71.129,102.478 70.065,103.441 C65.99,107.129 61.95,120 64.867,120 C65.344,120 66.925,121.8 68.381,124 C69.837,126.2 71.72,128 72.565,128 C73.41,128 75.542,126.502 77.301,124.672 C82.555,119.206 85.238,117.951 89.28,119.067 C93.523,120.238 94.723,121.568 95.086,125.5 C95.426,129.187 94.367,132.607 91.723,136.36 C90.614,137.932 89.61,140.632 89.49,142.36 C89.222,146.231 88.013,150 87.039,150 C86.639,150 82.672,152.925 78.224,156.5 C73.776,160.075 69.501,163 68.724,163 C67.946,163 66.525,162.132 65.565,161.072 C63.478,158.765 64.069,156.26 67.726,151.914 L70.314,148.838 L68.659,143.588 C67.749,140.701 65.433,136.575 63.513,134.419 L60.021,130.5 L58.01,132.861 C56.905,134.159 56,136.045 56,137.052 C56,138.058 55.609,139.124 55.131,139.419 C54.654,139.714 53.958,141.862 53.585,144.192 C53.213,146.522 51.579,150.589 49.954,153.229 C48.329,155.87 47,158.925 47,160.02 C47,161.114 45.875,164.342 44.5,167.192 C43.125,170.042 42,172.971 42,173.701 C42,174.43 41.587,175.809 41.082,176.764 C39.326,180.084 36,187.984 36,188.834 C36,189.305 35.1,190.505 34,191.5 C32.9,192.495 32,194.357 32,195.636 C32,198.073 28.435,199.765 25.597,198.675 C23.427,197.843 22.535,192.188 24.257,190.183 C25.052,189.257 26.958,185.8 28.492,182.5 C30.026,179.2 31.911,175.276 32.68,173.78 C33.449,172.284 34.694,169.134 35.448,166.78 C36.202,164.426 37.797,160.025 38.992,157 C40.188,153.975 41.753,149.475 42.472,147 C43.19,144.525 45.134,139.35 46.792,135.5 C50.087,127.852 54.374,115.373 55.464,110.261 C55.843,108.48 56.569,106.766 57.077,106.452 C57.585,106.139 58,105.002 58,103.927 C58,102.852 58.43,101.191 58.956,100.236 C62.973,92.943 64.399,74.065 61.291,69.321 C59.604,66.746 59.626,66.676 63.041,63.817 C64.943,62.225 67.625,60.652 69,60.323 C70.375,59.994 72.088,59.26 72.806,58.693 C73.524,58.126 76.224,57.094 78.806,56.399 Z M116.701,4.979 L118.469,0 L123.06,0 C126.663,0 128.156,0.538 129.997,2.496 C132.148,4.787 132.227,5.22 130.947,7.746 C130.18,9.261 128.753,11.573 127.776,12.885 C126.799,14.197 126,16.698 126,18.444 C126,20.189 125.332,22.491 124.516,23.559 C123.7,24.626 122.531,27.3 121.918,29.5 C120.333,35.192 116.437,43.154 113.91,45.866 C112.1,47.809 111.536,47.964 110.404,46.833 C109.273,45.702 109.454,44.038 111.528,36.499 C114.042,27.36 114.599,22.996 113.25,23.005 C112.838,23.008 111.323,23.796 109.884,24.755 C108.446,25.715 105.408,27.743 103.134,29.263 C100.861,30.782 99,32.61 99,33.325 C99,35.878 94.944,42.959 92.835,44.088 C91.006,45.067 90.417,44.886 88.866,42.869 C87.864,41.566 87.034,38.985 87.022,37.133 C86.999,33.665 86.541,33.512 81.915,35.43 C80.998,35.811 79.32,35.27 77.935,34.148 C74.488,31.358 76.083,26.986 81.002,25.74 C86.94,24.235 87.47,23.128 86.376,14.505 C85.847,10.333 85.621,6.712 85.874,6.459 C86.127,6.207 87.823,6 89.644,6 C93.601,6 95.909,8.906 96.714,14.902 C97.007,17.091 97.819,19.1 98.519,19.369 C99.641,19.799 106.237,16.161 112.716,11.539 C113.936,10.669 115.729,7.717 116.701,4.979 Z M78.327,67.534 C74.387,69.284 74.4,69.259 73.553,76.25 C72.903,81.613 72.995,82 74.913,82 C77.552,82 86.153,71.306 85.772,68.5 C85.435,66.025 82.565,65.653 78.327,67.534 Z M78.667,132.667 C78.3,133.033 78,134.833 78,136.667 C78,138.987 78.463,140 79.525,140 C81.021,140 83,136.262 83,133.435 C83,131.985 79.898,131.435 78.667,132.667 Z"/>
</svg>

