<svg xmlns="http://www.w3.org/2000/svg" width="300" height="300" viewBox="0 0 300 300" version="1.1">
  <defs/>
  <path d="M105.405,123.106 C107.68,120.591 108.83,120.492 111.777,122.557 C113.528,123.783 114,125.093 114,128.728 C114,131.493 114.621,134.029 115.551,135.056 C117.013,136.672 117.382,136.663 122.061,134.885 C129.822,131.936 135.755,132.35 140.381,136.162 C144.158,139.276 144.21,139.414 143.795,145.163 C143.46,149.794 142.816,151.582 140.686,153.806 C139.209,155.348 138,157.136 138,157.779 C138,158.422 136.646,159.649 134.991,160.505 C132.211,161.942 129.213,166.831 127.549,172.638 C127.212,173.814 125.263,175.896 123.218,177.265 C119.346,179.856 115,188.422 115,193.464 C115,194.794 114.55,196.16 114,196.5 C112.782,197.253 112.67,201.678 113.851,202.408 C114.319,202.697 116.206,201.824 118.045,200.467 C119.884,199.11 121.906,198 122.539,198 C126.123,198 144,183.503 144,180.596 C144,178.89 150.296,173 152.119,173 C154.914,173 159.771,177.77 161.064,181.783 C161.722,183.827 162.612,185.95 163.041,186.5 C163.471,187.05 164.585,189.525 165.517,192 C166.45,194.475 168.13,198.525 169.251,201 C170.372,203.475 171.836,206.85 172.505,208.5 C175.401,215.651 176.265,217.661 177.593,220.331 C178.367,221.888 179,223.581 179,224.092 C179,224.98 181.017,229.806 185.021,238.5 C187.112,243.042 189.377,249.203 191.636,256.5 C192.488,259.25 193.593,262.281 194.092,263.236 C194.592,264.191 195.014,265.766 195.032,266.736 C195.049,267.706 195.724,269.374 196.532,270.441 C197.339,271.509 198,273.395 198,274.632 C198,275.87 198.399,277.129 198.887,277.43 C199.374,277.731 200.09,279.668 200.478,281.733 C201.067,284.875 202.558,288.959 206.687,298.75 C207.071,299.662 205.734,300 201.743,300 L196.272,300 L194.673,295.75 C193.794,293.413 192.583,289.25 191.982,286.5 C191.381,283.75 190.308,280.6 189.598,279.5 C187.99,277.009 184.61,267.981 181.361,257.5 C179.997,253.1 178.448,248.703 177.918,247.728 C177.389,246.753 176.024,243.378 174.885,240.228 C173.746,237.078 170.381,229.518 167.407,223.429 C164.433,217.34 162,211.602 162,210.678 C162,209.754 160.13,205.285 157.844,200.749 C155.559,196.212 153.389,191.852 153.023,191.06 C151.746,188.296 150.368,189.008 145.451,194.976 C142.728,198.282 139.993,200.989 139.372,200.993 C138.752,200.997 137.685,201.675 137,202.5 C136.315,203.325 135.158,204 134.428,204 C133.082,204 123.163,209.644 119.5,212.494 C115.558,215.561 107.031,221 106.165,221 C105.679,221 103.306,222.571 100.891,224.49 C98.476,226.41 95.89,227.985 95.144,227.99 C94.399,227.996 92.452,229.125 90.818,230.5 C89.184,231.875 87.239,233 86.496,233 C84.783,233 81,228.254 81,226.105 C81,223.847 85.698,219 87.885,219 C88.878,219 90.505,218.1 91.5,217 C92.495,215.9 93.915,215 94.655,215 C95.395,215 96.003,214.662 96.007,214.25 C96.011,213.838 97.53,212.468 99.382,211.206 C102.215,209.277 103.005,207.847 104.352,202.206 C105.232,198.518 106.246,193.588 106.604,191.25 C107.207,187.316 107.088,187 105.005,187 C102.192,187 92.33,180.003 84.727,172.612 C81.552,169.525 78.164,167 77.2,167 C74.274,167 71.199,164.181 70.461,160.822 C69.381,155.904 71.42,155.012 81.715,155.896 C82.384,155.953 84.508,157.385 86.437,159.079 C91.261,163.315 93.416,162.704 93.808,156.991 C94.073,153.117 94.784,151.849 98.985,147.757 L103.854,143.015 L103.677,134.113 C103.528,126.605 103.798,124.882 105.405,123.106 Z M114,32.823 C114,31.44 121.922,31.908 124.941,33.47 C128.989,35.563 131.92,45.695 129,47.5 C128.45,47.84 128,49.072 128,50.238 C128,54.315 124.772,62.378 118.489,74 C117.151,76.475 116.042,79.625 116.025,81 C116.005,82.641 114.968,84.187 113.008,85.5 C111.366,86.6 109.779,88.136 109.48,88.913 C108.798,90.69 113.779,96 116.128,96 C117.093,96 118.143,96.422 118.461,96.937 C118.779,97.452 121.484,99.03 124.47,100.443 C130.603,103.344 146.419,113.789 155.579,120.987 C158.936,123.626 162.992,126.517 164.592,127.412 C166.191,128.307 169.525,130.599 172,132.505 C174.475,134.411 179.148,137.835 182.385,140.114 C185.622,142.394 190.451,146.563 193.116,149.379 C197.111,153.602 197.964,155.154 197.98,158.231 C197.997,161.326 197.598,162.063 195.639,162.554 C192.443,163.357 185.824,160.11 184.31,156.998 C183.642,155.624 181.641,153.375 179.862,152 C178.084,150.625 175.487,148.262 174.092,146.75 C172.696,145.238 171.035,144 170.4,144 C169.765,144 168.67,143.308 167.968,142.461 C167.266,141.615 162.977,138.477 158.438,135.487 C153.898,132.498 150.03,129.703 149.842,129.276 C149.654,128.849 145.633,125.931 140.907,122.791 C136.18,119.652 131.738,116.389 131.034,115.541 C130.331,114.694 128.971,114 128.012,114 C127.054,114 125.187,113.149 123.864,112.108 C119.59,108.746 114.616,105.962 105.327,101.734 C102.204,100.312 98.525,101.55 96.447,104.722 C95.457,106.232 93.602,108.595 92.324,109.973 C91.046,111.352 90,113.005 90,113.648 C90,115.399 71.332,134.047 64.793,138.828 C60.898,141.675 58.065,143 55.871,143 C52.898,143 49,140.695 49,138.937 C49,138.522 51.996,136.537 55.658,134.524 C62.351,130.845 70.294,123.176 80.542,110.5 C83.209,107.2 86.626,103.256 88.133,101.736 C91.904,97.933 92.634,95.196 90.341,93.458 C89.328,92.691 87.739,92.049 86.809,92.032 C85.879,92.014 84.887,91.626 84.605,91.169 C84.322,90.712 81.647,89.792 78.659,89.123 C72.553,87.757 69.68,85.289 70.17,81.832 C70.455,79.821 71.145,79.458 75.19,79.198 C78.329,78.995 81.37,79.574 84.385,80.948 C86.863,82.076 89.504,83 90.254,83 C91.004,83 92.491,83.661 93.559,84.468 C96.433,86.642 98.606,86.316 100.927,83.365 C103.527,80.061 103.534,78.534 100.962,75.962 C99.359,74.359 98.182,74.063 95.451,74.575 C90.817,75.444 88.9,73.813 89.677,69.663 C90.002,67.923 91.221,65.446 92.384,64.158 C94.125,62.231 95.192,61.907 98.404,62.333 C100.55,62.618 103.57,63.784 105.113,64.925 C106.656,66.066 108.381,67 108.945,67 C110.296,67 115.333,56.783 116.989,50.684 C118.132,46.474 118.098,45.669 116.714,44.286 C115.271,42.843 114.696,43.068 110.177,46.852 C107.452,49.133 104.552,51 103.734,51 C102.915,51 101.685,51.675 101,52.5 C100.315,53.325 99.332,54 98.816,54 C98.299,54 95.431,55.157 92.443,56.57 C85.144,60.023 82.5,59.61 82.5,55.015 C82.5,51.899 82.977,51.281 87,49.182 C89.475,47.89 92.291,46.124 93.257,45.256 C95.325,43.398 96.421,42.758 106.424,37.573 C110.591,35.413 114,33.275 114,32.823 Z M47.25,98.491 C53.538,95.758 56.352,96.485 61.458,102.165 C65.195,106.321 66.043,107.932 65.801,110.415 C65.386,114.672 62.406,114.881 56.733,111.053 C54.245,109.374 51.256,108 50.09,108 C48.772,108 47.221,106.771 45.989,104.75 C43.378,100.467 43.443,100.146 47.25,98.491 Z M124.112,145.421 C117.847,147.854 117.084,149.274 117.76,157.25 C118.27,163.266 120.252,165.116 121.379,160.627 C121.73,159.226 123.247,157.726 125.078,156.968 C129,155.343 133.149,149.284 132.372,146.315 C131.559,143.206 130.195,143.058 124.112,145.421 Z M103.2,158.2 C102.54,158.86 102,159.93 102,160.578 C102,161.225 101.325,162.315 100.5,163 C98.569,164.603 98.581,169.289 100.526,173.05 C102.305,176.491 102.317,176.494 105.535,174.385 C107.81,172.894 108,172.162 108,164.885 C108,157.959 107.781,157 106.2,157 C105.21,157 103.86,157.54 103.2,158.2 Z"/>
</svg>

