<svg xmlns="http://www.w3.org/2000/svg" width="300" height="300" viewBox="0 0 300 300" version="1.1">
  <defs/>
  <path d="M86.775,143.75 C88.837,141.399 92.132,141.543 94.881,144.103 C97.246,146.307 97.719,146.302 107.401,143.959 C119.316,141.077 126.571,149.492 121.312,160.096 C119.182,164.393 112.982,172.299 109.31,175.403 C107.764,176.709 105.195,180.415 103.601,183.639 C102.007,186.863 100.137,190.175 99.445,191 C98.267,192.406 95.814,205.063 96.563,205.87 C97.436,206.81 102.171,204.711 105.844,201.757 C108.071,199.966 111.943,196.984 114.449,195.131 C116.954,193.279 119.569,190.579 120.26,189.131 C121.269,187.016 122.323,186.441 125.632,186.199 C129.522,185.914 130.031,186.214 134.874,191.648 C137.693,194.811 140,198.002 140,198.738 C140,199.474 142.715,203.997 146.034,208.788 C156.099,223.321 156.411,223.783 159.145,228.213 C163.6,235.433 168,243.972 168,245.4 C168,246.145 168.675,247.315 169.5,248 C170.325,248.685 171,250.229 171,251.431 C171,252.634 171.661,254.491 172.468,255.559 C173.276,256.626 173.951,258.262 173.968,259.193 C173.986,260.124 174.87,262.374 175.934,264.193 C178.161,268.002 180.983,279.408 181.036,284.812 C181.055,286.84 181.69,291.087 182.445,294.25 L183.82,300 L177.929,300 C175.21,300 173.599,300.059 172.607,299.305 C171.089,298.15 171.02,295.091 170.648,287 C170.161,276.383 168.825,270.526 166.246,267.697 C165.145,266.489 163.66,263.025 162.947,260 C162.234,256.975 160.881,253.15 159.939,251.5 C158.998,249.85 157.89,247.39 157.478,246.033 C157.065,244.676 154.823,240.626 152.495,237.033 C150.167,233.44 146.966,228.415 145.381,225.867 C143.797,223.319 140.475,218.644 138,215.477 C135.525,212.31 132.538,208.105 131.363,206.132 C127.904,200.327 127.173,200.288 119.469,205.509 C115.636,208.107 111.35,211.305 109.945,212.616 C108.54,213.927 106.718,215 105.895,215 C105.073,215 103.973,215.391 103.45,215.869 C102.928,216.346 100.341,217.541 97.702,218.523 C95.063,219.505 91.913,221.534 90.702,223.032 C89.491,224.53 86.7,226.886 84.5,228.268 C82.3,229.651 78.936,232.419 77.025,234.421 C74.119,237.463 73.084,237.958 70.708,237.436 C68.772,237.011 67.287,237.335 66.052,238.453 C64.38,239.966 64.111,239.968 62.619,238.476 C61.728,237.586 61,236.238 61,235.481 C61,234.06 75.013,221.383 80.738,217.625 C82.812,216.264 83.98,214.679 83.988,213.215 C83.994,211.958 84.632,209.933 85.404,208.715 C87.409,205.551 88.352,198.526 87.088,196.165 C86.4,194.878 85.351,194.357 84.106,194.683 C82.96,194.982 81.341,194.341 80.092,193.092 C78.855,191.855 76.713,191 74.85,191 C72.394,191 70.688,189.943 67.1,186.202 C64.57,183.563 60.731,180.525 58.569,179.452 C53.502,176.936 52.279,174.937 53.581,171.303 C54.475,168.809 55.052,168.51 58.819,168.588 C62.031,168.655 63.766,169.36 66.009,171.509 C68.94,174.317 68.984,174.325 71.086,172.422 C72.253,171.366 74.363,168.477 75.775,166.001 C77.187,163.526 79.583,160.479 81.101,159.232 C83.303,157.423 84,155.806 84.55,151.232 C84.929,148.079 85.93,144.713 86.775,143.75 Z M137.5,102.791 C145.404,99.305 149.954,99.249 153.923,102.589 C160.081,107.77 157.707,113.044 143.151,126.52 C137.627,131.635 135.213,132.88 133.718,131.385 C132.955,130.622 138.409,120.258 141.055,117.441 C144.218,114.074 143.578,112.669 139.25,113.478 C137.188,113.864 135.05,114.521 134.5,114.938 C133.95,115.356 127.875,118.335 121,121.559 C114.125,124.782 106.619,128.675 104.32,130.21 C102.021,131.744 99.764,133 99.305,133 C98.846,133 96.767,133.913 94.685,135.029 C92.603,136.145 88.784,137.754 86.199,138.604 C80.541,140.465 75.862,142.707 70.5,146.127 C68.3,147.53 65.303,149.313 63.84,150.089 C62.376,150.865 57.415,154.088 52.814,157.25 C48.212,160.412 43.56,162.991 42.474,162.981 C41.388,162.971 38.475,161.624 36,159.988 C29.653,155.793 29.035,155.442 24,153.166 C18.636,150.741 5.419,146.992 2.25,146.997 C0.22,147 0,146.517 0,142.059 C0,139.341 0.428,136.853 0.951,136.53 C2.725,135.434 22.778,142.294 33.268,147.586 C36.99,149.464 40.724,151 41.566,151 C42.407,151 45.662,149.356 48.798,147.347 C56.494,142.418 68.003,136.458 76.5,133.002 C80.35,131.436 88.675,127.494 95,124.242 C101.325,120.989 112.125,115.427 119,111.882 C125.875,108.337 134.2,104.246 137.5,102.791 Z M76.299,46.25 C79.077,43.2 83.012,43.394 85.423,46.698 C87.243,49.194 87.257,49.488 85.673,52.248 C84.753,53.851 84,56.012 84,57.051 C84,59.102 81.178,64.531 77.571,69.418 C76.319,71.113 75.011,73.308 74.662,74.295 C74.313,75.282 72.447,76.751 70.514,77.559 C67.988,78.614 66.997,79.656 66.989,81.263 C66.983,82.494 66.699,85.188 66.358,87.25 C65.759,90.872 65.838,91 68.672,91 C72.334,91 80,96.46 80,99.067 C80,102.743 74.494,102.627 66.345,98.781 C65.16,98.222 63.699,98.068 63.097,98.44 C61.799,99.242 57.41,108.357 56.467,112.209 C56.102,113.699 55.173,115.442 54.402,116.081 C53.631,116.721 53,117.993 53,118.907 C53,121.121 43.037,130.788 40.5,131.035 C36.479,131.427 35.121,130.957 34.485,128.952 C33.737,126.595 35.172,124.521 38.779,122.743 C42.486,120.916 47.051,111.546 53.512,92.5 C56.763,82.914 57.224,80.407 57.097,73 C56.935,63.546 56.537,61.637 53.969,57.986 C51.999,55.186 51.162,50.165 52.346,48.249 C53.902,45.732 58.657,46.846 61.842,50.473 C65.271,54.378 66.986,59.464 66.994,65.75 C67.001,70.784 69.391,71.651 71.129,67.25 C71.726,65.737 72.617,63.719 73.108,62.764 C74.339,60.367 74.227,55.627 72.907,54.307 C71.648,53.048 72.973,49.902 76.299,46.25 Z M113.073,34.635 C115.542,31.496 118.996,31.233 121.495,33.994 C122.984,35.639 123.271,37.564 123.136,44.994 C123.004,52.289 123.249,54 124.43,54 C126.448,54 129,50.079 129,46.977 C129,45.56 129.475,43.925 130.055,43.345 C130.636,42.764 131.873,40.762 132.805,38.895 C134.858,34.782 138.686,33.89 141.403,36.892 C143.118,38.788 143.121,39.119 141.483,44.053 C140.538,46.898 139.164,50.384 138.429,51.799 C136.627,55.272 129.233,61 126.55,61 C122.433,61 120.902,63.246 119.493,71.36 C118.751,75.634 117.346,80.339 116.372,81.816 C114.693,84.358 111.283,90.427 108.372,96.051 C106.622,99.433 102.354,103.382 101.661,102.26 C101.121,101.387 103.289,92.441 104.995,88.5 C107.014,83.837 108.157,78.76 107.358,78.005 C106.886,77.559 105.657,77.038 104.627,76.847 C103.556,76.649 101.508,74.142 99.848,71 C98.25,67.975 95.601,64.375 93.962,63 C91.017,60.53 90.425,58.663 91.607,55.582 C92.479,53.309 100.203,53.432 102.191,55.75 C104.004,57.864 108,66.163 108,67.816 C108,69.598 110.695,69.238 111.416,67.359 C111.762,66.457 111.773,64.86 111.44,63.811 C111.107,62.762 111.263,61.363 111.787,60.702 C113.691,58.298 114.155,47.475 112.551,42.869 C111.46,39.738 110.984,38.517 111.231,37.466 C111.418,36.674 112.016,35.979 113.073,34.635 Z M33.75,63.08 C34.739,62.504 35.184,62.186 35.655,62.14 C36.224,62.084 36.833,62.423 38.49,63.178 C39.912,63.825 41.748,65.738 42.57,67.428 C45.257,72.946 46.88,74.43 50.268,74.466 C53.033,74.495 53.545,74.894 53.814,77.226 C54.065,79.404 53.463,80.357 50.814,81.972 C47.058,84.262 44.66,84.474 40.181,82.913 C34.299,80.863 29.362,65.636 33.75,63.08 Z M119.517,86.981 C120.985,85.36 122.602,85 128.432,85 C136.864,85 140,86.622 140,90.984 C140,93.803 136.179,98.001 133.615,97.999 C131.635,97.998 120.544,92.37 119.112,90.64 C117.914,89.193 117.97,88.691 119.517,86.981 Z M105.759,154.425 C103.702,155.158 100.832,156.535 99.382,157.485 C96.838,159.152 96.769,159.446 97.425,165.856 C97.799,169.51 98.488,172.884 98.956,173.353 C99.425,173.824 102.048,172.092 104.801,169.493 C110.567,164.052 113.933,157.703 112.369,155.224 C110.969,153.004 110.057,152.894 105.759,154.425 Z M81.76,170.294 C79.703,171.507 78.015,173.14 78.01,173.921 C78.004,174.703 77.246,176.175 76.325,177.193 C74.763,178.919 74.762,179.278 76.309,182.522 C77.221,184.435 78.44,186 79.017,186 C79.594,186 82.238,184.9 84.892,183.555 L89.717,181.11 L89.283,175.805 C88.554,166.89 88.099,166.556 81.76,170.294 Z"/>
</svg>

