<svg xmlns="http://www.w3.org/2000/svg" width="300" height="300" viewBox="0 0 300 300" version="1.1">
  <defs/>
  <path d="M136.75,69.088 C138.698,67.963 141.813,68.566 143.811,70.454 C144.532,71.136 145.271,73.675 145.454,76.097 C145.996,83.297 146.714,84.275 150.89,83.504 C152.875,83.138 155.448,81.957 156.607,80.879 C157.765,79.802 160.37,78.652 162.396,78.323 C165.374,77.84 166.55,78.168 168.539,80.037 C170.648,82.018 171,83.249 171,88.644 C171,95.462 169.562,98.931 163.45,106.856 C161.367,109.557 159.839,112.891 159.428,115.634 C158.98,118.622 158.099,120.412 156.711,121.155 C151.426,123.983 147.935,131.351 145.295,145.25 C144.656,148.614 146.796,148.988 149.513,145.986 C150.515,144.878 153.726,142.385 156.647,140.446 C161.942,136.932 167.418,130.282 168.138,126.495 C168.586,124.137 172.849,123.314 175.968,124.983 C177.111,125.595 180.521,131.103 183.59,137.295 C189.555,149.328 194.912,159.578 196.502,162 C197.044,162.825 198.014,165.3 198.659,167.5 C199.304,169.7 200.572,173.75 201.477,176.5 C202.383,179.25 203.597,183.3 204.176,185.5 C205.197,189.381 205.85,191.213 208.453,197.5 C209.136,199.15 210.432,203.425 211.332,207 C212.233,210.575 214.162,217.55 215.619,222.5 C217.076,227.45 218.321,233.285 218.384,235.467 C218.486,238.939 218.157,239.556 215.748,240.411 C213.525,241.2 212.468,240.992 210.248,239.33 C208.025,237.665 207.479,236.434 207.39,232.886 C207.33,230.474 206.289,225.125 205.078,221 C203.867,216.875 202.515,211.925 202.074,210 C201.238,206.358 195.676,189.986 194.089,186.5 C192.627,183.287 190,174.271 190,172.466 C190,171.555 189.171,169.614 188.158,168.154 C186.258,165.416 184.654,162.457 179.942,153 C178.435,149.975 176.039,146.416 174.618,145.092 L172.034,142.684 L165.067,147.317 C161.234,149.865 156.614,153.582 154.799,155.575 C152.985,157.569 150.825,159.831 150,160.601 C145.125,165.151 137.167,173.044 135.145,175.333 C132.129,178.749 128.751,178.723 125.54,175.26 C122.41,171.884 122.34,169.814 125.25,166.623 C129.322,162.155 132,158.208 132,156.673 C132,155.842 132.633,153.888 133.407,152.331 C136.332,146.449 137.106,144.334 138.468,138.5 C139.239,135.2 139.533,132.157 139.122,131.737 C138.71,131.317 136.971,131.463 135.257,132.06 C127.703,134.694 125.305,132.503 125.1,122.781 C124.966,116.445 122.106,111.337 115.503,105.636 C112.483,103.028 109.734,99.788 109.394,98.434 C108.638,95.421 110.46,93 113.483,93 C115.98,93 122.671,97.134 125.041,100.142 C126.833,102.416 129.557,101.802 130.301,98.956 C130.575,97.908 132.42,96.095 134.4,94.927 C138.422,92.553 138.527,91.978 136.48,83.5 C134.482,75.227 134.574,70.346 136.75,69.088 Z M77.021,128.048 C80.276,126.659 93.562,127.498 98.008,129.372 C110.818,134.771 115.662,154.014 109.872,176.5 C109.305,178.7 108.384,182.3 107.825,184.5 C107.265,186.7 106.176,189.978 105.404,191.784 C104.632,193.59 103.967,195.84 103.927,196.784 C103.887,197.728 103.016,199.85 101.992,201.5 C100.969,203.15 99.181,206.373 98.019,208.662 C96.857,210.952 94.089,214.889 91.868,217.412 C88.306,221.46 87.347,222 83.731,222 C80.138,222 79.055,221.401 74.955,217.147 C69.593,211.585 67.731,205.841 70.417,203.154 C71.832,201.74 72.237,201.784 74.739,203.625 C76.258,204.743 77.946,206.638 78.491,207.838 C80.185,211.566 82.87,211.569 86.065,207.848 C89.758,203.546 95.112,193.501 96.111,189 C97.557,182.484 99.231,176.508 100.085,174.815 C102.716,169.603 103.143,154.622 100.822,149 C96.791,139.239 93.932,136.898 86.282,137.1 C79.505,137.278 78.158,138.162 74.999,144.5 C73.353,147.8 70.408,152.477 68.453,154.894 C64.731,159.495 64.2,163.232 67.186,163.801 C68.113,163.977 71.231,162.499 74.115,160.515 C80.159,156.357 83.038,156.295 84.437,160.29 C85.727,163.972 83.524,167.648 78.357,170.439 C68.424,175.803 66.692,178.281 66.427,187.5 C66.348,190.25 65.796,196.383 65.2,201.128 C64.494,206.754 64.438,211.974 65.038,216.128 C66.823,228.495 63.258,235.834 57.508,231.63 C55.774,230.362 55.629,228.549 55.567,207.38 L55.5,184.5 L53.145,184.167 C51.65,183.955 49.391,184.958 46.954,186.917 C44.844,188.613 42.516,190 41.781,190 C39.564,190 33.793,184.147 34.635,182.752 C35.05,182.063 38.227,178.03 41.695,173.789 C45.163,169.549 48,165.759 48,165.368 C48,164.977 48.708,163.875 49.573,162.92 C50.971,161.375 50.982,160.866 49.675,158.339 C46.433,152.069 41.001,150.271 39.508,154.973 C39.182,156.002 37.246,158.377 35.207,160.25 C30.056,164.982 27,169.484 27,172.337 C27,173.667 26.328,175.313 25.507,175.994 C24.404,176.909 24.182,178.315 24.659,181.367 C25.013,183.64 25.585,185.725 25.929,186 C27.847,187.532 30.099,195.101 29.817,199.061 L29.5,203.5 L20.814,204.124 L21.492,201.037 C22.38,196.992 19.052,188.762 12.781,179.5 C6.817,170.691 6.114,169.865 2.75,167.713 C0.293,166.141 0,165.364 0,160.413 L0,154.872 L4.24,157.186 C6.572,158.459 11.071,162.073 14.239,165.219 C20.827,171.76 23,171.943 23,165.958 C23,161.403 24.493,157.109 26.815,154.988 C38.045,144.731 58.212,133.413 67.301,132.267 C69.61,131.975 72.184,131.145 73.021,130.421 C73.857,129.697 75.657,128.629 77.021,128.048 Z M51.43,74.965 C55.551,73.296 60.519,73.948 64.788,76.716 C69.916,80.041 72,84.172 72,91.01 C72,95.86 71.7,96.501 67.629,100.358 C65.226,102.636 62.99,105.287 62.661,106.25 C62.332,107.213 61.486,108.003 60.781,108.006 C60.077,108.01 58.182,108.7 56.571,109.54 C54.129,110.813 52.715,110.877 48.071,109.925 C40.768,108.428 40.087,107.773 40.743,102.882 C41.262,99.013 41.049,98.622 35.733,93.671 C31.59,89.813 30.002,87.545 29.477,84.739 C28.108,77.423 33.511,75.605 38.816,81.596 C40.567,83.574 42,85.599 42,86.096 C42,86.593 42.639,87 43.421,87 C44.209,87 45.157,85.56 45.552,83.765 C46.477,79.55 48.84,76.013 51.43,74.965 Z M64.5,34.578 C71.208,30.571 74.097,31.353 75.416,37.533 C75.947,40.022 75.565,41.035 73.282,43.189 C71.752,44.633 68.825,46.266 66.779,46.818 C64.732,47.371 61.738,48.763 60.124,49.911 C58.511,51.06 56.473,52 55.596,52 C54.718,52 54,52.45 54,53 C54,53.55 52.987,54.014 51.75,54.032 C50.513,54.049 48.626,54.724 47.559,55.532 C46.491,56.339 44.63,57 43.423,57 C42.216,57 39.94,57.672 38.364,58.494 C33.339,61.115 30.195,60.477 28.273,56.446 C25.984,51.647 27.174,50.027 34.982,47.314 C38.441,46.112 41.751,44.649 42.336,44.064 C42.921,43.479 44.287,43 45.371,43 C46.455,43 48.053,42.383 48.921,41.628 C49.79,40.874 52.75,39.517 55.5,38.612 C58.25,37.708 62.3,35.893 64.5,34.578 Z M52.123,89.458 C48.718,92.88 48.429,95.111 50.898,98.908 C51.797,100.291 54.681,99.49 61,96.1 C63.426,94.799 63.381,91.035 60.908,88.402 C57.9,85.2 56.15,85.41 52.123,89.458 Z M153.75,95.288 C150.394,98.163 150,98.999 150,103.25 C150,110.197 152.958,109.143 157.433,100.601 C161.982,91.919 160.38,89.608 153.75,95.288 Z M135.609,106.886 C133.106,109.499 132.91,110.218 133.547,114.466 C134.291,119.427 136.052,121.032 138.513,118.989 C140.117,117.658 140.731,104 139.187,104 C138.74,104 137.13,105.299 135.609,106.886 Z M56.25,145.667 C55.563,145.942 55,147.06 55,148.153 C55,149.641 55.565,150.059 57.25,149.82 C58.69,149.615 59.5,148.81 59.5,147.583 C59.5,145.549 58.305,144.845 56.25,145.667 Z"/>
</svg>

