<svg xmlns="http://www.w3.org/2000/svg" width="300" height="300" viewBox="0 0 300 300" version="1.1">
  <defs/>
  <path d="M150.5,50.207 C157.415,47.789 159.689,48.617 164.977,55.47 C169.016,60.706 169.077,60.909 170.097,72.634 C170.841,81.184 170.815,86.177 170.004,90.5 C169.386,93.8 168.726,98.525 168.537,101 C168.349,103.475 167.385,107.621 166.395,110.214 C165.405,112.807 164.894,115.227 165.259,115.593 C165.625,115.958 167.94,115.749 170.405,115.128 C177.007,113.466 180.342,113.729 186.221,116.378 C192.974,119.419 197.796,124.588 202.662,134 C209.119,146.489 210.275,154.212 207.6,166.984 C206.854,170.55 206.445,173.996 206.692,174.641 C206.94,175.286 206.421,177.938 205.54,180.534 C204.658,183.13 203.526,187.785 203.024,190.877 C201.169,202.3 199.802,207.711 196.553,216.5 C194.723,221.45 192.706,228.027 192.07,231.116 C189.917,241.576 183.525,243.984 172.986,238.307 C165.928,234.505 154,220.588 154,216.155 C154,210.846 157.698,212.707 168.934,223.669 C174.804,229.396 177.06,230.988 179,230.775 C181.031,230.552 181.66,229.75 182.353,226.5 C182.822,224.3 184.463,218.9 185.999,214.5 C187.535,210.1 189.495,204.475 190.356,202 C191.216,199.525 192.427,194.8 193.047,191.5 C193.667,188.2 194.79,182.575 195.542,179 C199.75,159.021 199.721,150.591 195.418,142.023 C194.088,139.376 193,136.75 193,136.189 C193,135.627 191.217,133.255 189.037,130.918 C184.961,126.546 179.712,124.041 174.575,124.015 C170.735,123.995 158.435,130.139 154,134.292 C152.075,136.095 147.688,139.718 144.25,142.343 C140.813,144.969 138,147.497 138,147.961 C138,148.425 136.537,149.314 134.75,149.936 C132.963,150.559 129.905,152.918 127.957,155.18 C124.779,158.867 124.186,159.17 122.207,158.111 C119.383,156.599 119.431,155.296 122.542,149.104 C125.366,143.48 133.005,136.907 152.875,123 C157.039,120.086 157.865,118.998 157.812,116.5 C157.776,114.85 158.505,109.499 159.432,104.608 C161.179,95.387 160.811,93.505 157.388,94.164 C154.66,94.689 152.428,103.357 153.743,108.313 C154.832,112.413 153.585,119.881 151.585,121.235 C149.962,122.334 146.21,122.149 145.458,120.932 C145.095,120.345 144.612,115.748 144.384,110.717 C143.946,101.053 143.784,100.613 140.28,99.555 C138.078,98.89 138.058,98.983 137.78,111.692 L137.5,124.5 L134.284,124.811 C131.607,125.07 130.989,124.735 130.593,122.811 C129.784,118.879 128.859,110.818 128.376,103.5 C127.692,93.113 123.934,78.133 121.175,74.791 C118.133,71.106 118.493,57.792 121.668,56.574 C124.295,55.566 128,58.664 128,61.869 C128,63.422 128.72,66.136 129.6,67.9 C131.585,71.88 134.3,71.673 135,67.489 C136.089,60.981 143.583,52.624 150.5,50.207 Z M54.101,106.379 C56.81,103.114 63,106.18 63,110.786 C63,113.118 63.217,113.217 66.75,112.485 C73.089,111.171 76.548,111.542 79.841,113.886 C83.726,116.653 83.906,119.576 80.5,124.595 C79.125,126.621 78,128.869 78,129.589 C78,130.31 76.542,133.06 74.759,135.7 C71.743,140.167 71.508,141.124 71.37,149.5 C71.16,162.305 70.178,167.834 67.898,169.055 C66.065,170.035 65.218,174.884 66.631,176.298 C68.778,178.445 76.972,167.097 76.991,161.95 C77.003,158.514 78.744,157 82.68,157 C85.494,157 86.246,157.562 87.98,160.96 C89.091,163.138 90,165.76 90,166.786 C90,167.812 91.096,171.788 92.435,175.621 C93.774,179.455 95.395,185.721 96.035,189.546 C96.676,193.37 98.28,198.835 99.6,201.688 C101.147,205.031 102,208.699 102,212.004 C102,214.824 102.46,217.992 103.023,219.043 C103.681,220.272 103.707,221.587 103.096,222.727 C102.573,223.702 101.898,225.298 101.596,226.273 C100.828,228.746 98.331,229.472 95.318,228.099 C93.176,227.123 92.858,226.461 93.349,224.006 C93.671,222.395 93.499,220.809 92.967,220.48 C92.435,220.151 92,217.674 92,214.976 C92,210.619 90.532,204.46 88.074,198.5 C86.352,194.324 84,185.22 84,182.729 C84,181.017 83.323,179.92 82.009,179.503 C79.642,178.752 78,179.579 78,181.525 C78,182.298 76.763,184.288 75.25,185.946 C73.737,187.604 71.6,190.034 70.5,191.346 C67.314,195.148 52.93,205 50.567,205 C49.757,205 47.99,205.503 46.641,206.118 C43.029,207.763 38.902,204.634 39.249,200.513 C39.449,198.137 40.384,197.039 43.818,195.15 C48.626,192.506 53.39,185.85 55.019,179.5 C55.584,177.3 56.43,174.807 56.9,173.96 C57.37,173.113 58.085,169.579 58.488,166.106 L59.22,159.793 L56.07,160.485 C52.209,161.333 48,158.924 48,155.865 C48,153.742 43.84,145.546 38.17,136.5 C36.446,133.75 34.585,130.476 34.033,129.224 C33.481,127.973 32.383,126.7 31.592,126.397 C29.873,125.737 28.878,123.482 29.542,121.75 C30.13,120.214 39.834,120.661 41.861,122.318 C43.468,123.63 50.462,138.268 51.405,142.293 C52.171,145.559 54.405,146.739 56.513,144.989 C57.495,144.174 58,141.911 58,138.326 C58,133.208 57.83,132.837 55.041,131.864 C51.533,130.642 50.42,127.952 52.113,124.788 C52.823,123.462 53.257,119.403 53.147,115.129 C53.035,110.784 53.426,107.191 54.101,106.379 Z M158,156.472 C164.479,152.734 171,157.113 171,165.201 C171,167.855 170.616,170.809 170.147,171.764 C166.865,178.447 165.96,180.18 166.333,181.57 C166.486,182.141 166.854,182.654 167.362,183.429 C169.607,186.856 169.444,188.087 166.144,192.642 C164.071,195.504 162.083,196.934 158.894,197.86 C156.477,198.562 153.118,199.555 151.429,200.068 C146.597,201.535 145.138,201.21 141.966,197.966 C138.473,194.392 138.29,192.953 141.014,190.487 C143.105,188.595 143.074,184.452 140.928,179.25 C140.418,178.012 139.503,175.762 138.895,174.25 C138.287,172.738 137.128,170.107 136.32,168.403 C135.512,166.7 134.997,163.775 135.175,161.903 C135.472,158.79 135.806,158.474 139.101,158.199 C142.039,157.953 143.01,158.367 144.374,160.449 C146.295,163.38 148.18,163.693 150.086,161.396 C150.819,160.514 152.336,159.369 153.459,158.853 C154.582,158.337 156.625,157.265 158,156.472 Z M101.667,140.667 C102.987,139.347 107.72,140.037 109.095,141.75 C112.115,145.511 113.066,148.327 114,156.261 C114.533,160.792 115.455,166.75 116.049,169.5 C116.643,172.25 117.549,179.45 118.063,185.5 C118.577,191.55 119.449,198.945 119.999,201.934 C121.356,209.299 121.234,215.741 119.653,220.282 C117.825,225.531 116.844,226.279 114.209,224.434 C112.211,223.035 111.994,222.007 111.94,213.693 C111.908,208.637 111.513,202.475 111.063,200 C109.973,194.006 108.21,182.332 106.91,172.5 C106.328,168.1 105.505,163.6 105.082,162.5 C101.404,152.944 99.779,142.555 101.667,140.667 Z M143.124,70.731 L134.763,79.462 L135.271,85.787 C135.55,89.266 136.043,92.376 136.365,92.699 C137.226,93.56 139.827,91.132 141.27,88.122 C142.216,86.147 143.51,85.355 146.513,84.911 C148.706,84.588 152.863,83.523 155.75,82.546 L161,80.77 L161,75.444 C161,72.515 160.55,69.84 160,69.5 C159.45,69.16 159,68.078 159,67.096 C159,64.815 155.914,62 153.414,62 C152.295,62 147.976,65.665 143.124,70.731 Z M153.196,170.298 C150.79,172.781 150,174.495 150,177.239 C150,184.35 153.636,183.217 157.966,174.756 C160.378,170.044 160.79,168.483 159.791,167.85 C157.612,166.467 156.514,166.875 153.196,170.298 Z M67.75,122.08 C65.649,123.304 65.316,129 67.345,129 C69.333,129 72,125.66 72,123.171 C72,120.832 70.538,120.456 67.75,122.08 Z"/>
</svg>

