<svg xmlns="http://www.w3.org/2000/svg" width="300" height="300" viewBox="0 0 300 300" version="1.1">
  <defs/>
  <path d="M152.828,8.75 C153.643,7.787 155.108,7 156.082,7 C157.969,7 162,11.435 162,13.51 C162,14.192 163.238,15.033 164.75,15.379 C170.913,16.789 175.163,26.261 175.239,38.75 C175.266,43.288 175.696,47 176.193,47 C176.69,47 178.959,46.1 181.236,45 C183.513,43.9 186.304,42.98 187.438,42.956 C188.572,42.932 191.292,42.274 193.483,41.494 C196.906,40.275 197.768,40.273 199.61,41.48 C200.79,42.253 202.06,44.101 202.433,45.588 C202.984,47.786 202.504,48.917 199.859,51.645 C196.805,54.796 196.2,55 189.887,55 C179.842,55 172.152,59.073 168.217,66.476 C167.305,68.193 167.584,68.588 170.334,69.476 C173.235,70.414 173.526,70.9 173.806,75.286 C174.088,79.682 173.823,80.327 170.556,83.22 C167.959,85.519 166.994,87.195 166.976,89.434 C166.963,91.12 166.535,94.3 166.025,96.499 C164.665,102.365 166.034,103.02 172.538,99.615 C180.009,95.703 185.667,95.148 189.25,97.975 C191.576,99.811 192,100.895 192,105.014 C192,107.691 191.536,110.169 190.968,110.52 C190.401,110.87 188.99,113.172 187.832,115.633 C186.105,119.308 185.932,120.555 186.864,122.601 C187.489,123.972 188,126.4 188,127.996 C188,131.494 184.178,134.631 175.971,137.87 C166.937,141.436 164.307,143.425 163.678,147.163 C163.369,148.998 162.377,153.425 161.474,157 C160.57,160.575 159.606,164.85 159.331,166.5 C159.057,168.15 158.195,170.918 157.416,172.651 C156.637,174.384 156,177.197 156,178.901 C156,182.405 157.58,182.8 164.217,180.956 C167.655,180.002 167.89,179.702 167.343,176.963 C166.807,174.287 167.101,173.856 170.398,172.478 C174.497,170.766 177.437,171.65 178.47,174.907 C179.41,177.866 181.167,178.025 191.185,176.058 C196.308,175.053 210.942,172.988 223.705,171.47 C245.744,168.849 247.04,168.796 249.508,170.414 C253.046,172.732 253.592,174.688 251.382,177.13 C248.248,180.593 246.862,180.876 230.009,181.495 C221.034,181.825 212.939,182.497 212.021,182.989 C211.102,183.481 204.987,184.586 198.432,185.446 C183.839,187.36 176.006,190.763 176.002,195.191 C176.001,196.671 175.55,198.16 175,198.5 C174.45,198.84 173.995,200.104 173.988,201.309 C173.981,202.514 172.856,205.458 171.488,207.852 C170.12,210.246 169,213.032 169,214.043 C169,215.054 168.55,216.16 168,216.5 C167.45,216.84 167,217.967 167,219.004 C167,220.843 168.838,222.166 176,225.483 C185.718,229.983 199.912,241.568 199.973,245.05 C199.988,245.903 200.458,247.058 201.017,247.617 C201.577,248.177 202.457,250.107 202.973,251.907 C203.794,254.769 203.586,255.505 201.307,257.784 L198.703,260.388 L195.366,256.444 C193.531,254.275 192.023,252.06 192.015,251.522 C191.989,249.839 179.771,239 177.898,239 C176.919,239 175.867,238.594 175.56,238.097 C175.253,237.601 171.948,235.643 168.215,233.746 C160.281,229.716 159.533,229.844 152.5,236.448 C149.75,239.031 145.7,242.334 143.5,243.788 C141.3,245.243 138.022,247.686 136.215,249.217 C134.409,250.747 132.253,252 131.425,252 C130.597,252 128.633,252.951 127.061,254.113 C124.493,256.012 123.406,256.155 116.351,255.527 C106.317,254.633 99.5,251.588 99.5,248 C99.5,246.081 99.965,245.559 101.5,245.756 C113.252,247.258 116.674,247.141 122.205,245.048 C127.696,242.971 141.496,233.513 145.371,229.171 C147.563,226.715 146.9,224 144.108,224 C141.56,224 136.35,219.577 134.356,215.722 C133,213.099 132.966,212.123 134.11,208.591 C134.839,206.341 136.009,203.375 136.711,202 C137.413,200.625 137.99,198.435 137.994,197.133 C137.999,195.057 137.663,194.848 135.25,195.428 C126.664,197.493 123.551,197.962 114.186,198.6 L103.873,199.303 L104.12,208.578 C104.388,218.628 103.506,221 99.5,221 C95.986,221 94.745,218.542 94.312,210.724 C94.092,206.751 93.223,202.01 92.381,200.189 C91.538,198.369 90.392,193.869 89.833,190.189 C88.751,183.061 82.726,169.216 80.301,168.285 C79.483,167.971 78.164,168.755 77.214,170.119 C72.241,177.26 56.979,190.92 52.319,192.399 C51.143,192.772 49.635,193.735 48.968,194.539 C47.346,196.493 43.09,196.392 40.829,194.345 C37.934,191.726 38.625,188.537 43.057,184.06 C47.128,179.948 50.937,173.051 50.978,169.715 C50.99,168.733 51.632,166.933 52.405,165.715 C53.177,164.497 54.115,161.169 54.489,158.319 C55.155,153.241 55.105,153.106 51.984,151.492 C49.119,150.01 48.843,149.476 49.231,146.172 C49.568,143.304 48.597,140.216 44.796,132.07 C42.119,126.333 38.413,119.529 36.56,116.95 C34.081,113.5 33.1,110.972 32.846,107.381 L32.5,102.5 L37,102.833 C41.576,103.172 46,106.044 46,108.674 C46,111.148 48.887,110.015 51.579,106.486 C53.737,103.656 54.16,102.231 53.75,99.174 C53.164,94.803 56.493,86.685 59.067,86.212 C61.822,85.705 66,89.851 66,93.092 C66,95.796 66.226,95.985 68.75,95.39 C70.263,95.033 71.927,94.35 72.45,93.871 C74.573,91.925 79.818,92.954 82.029,95.75 C83.893,98.108 84.112,99.284 83.566,104 C83.185,107.288 81.937,110.999 80.464,113.229 C79.109,115.279 78,117.657 78,118.512 C78,119.367 76.875,122.287 75.5,125 C74.125,127.713 73,131.571 73,133.572 C73,135.901 72.179,138.187 70.722,139.919 C69.469,141.408 67.84,144.623 67.102,147.063 C66.364,149.503 65.199,152.85 64.514,154.5 C63.828,156.15 62.595,159.525 61.774,162 C60.952,164.475 59.996,167.175 59.65,168 C59.304,168.825 59.479,170.175 60.04,171 C60.893,172.257 61.519,171.963 63.907,169.184 C67.458,165.051 69.516,160.889 71.087,154.667 C73.11,146.651 78.67,146.226 84.585,153.635 C89.692,160.033 92.977,166.778 97.912,181 L100.862,189.5 L110.181,189.212 C115.306,189.053 121.525,188.494 124,187.968 C126.475,187.442 131.79,186.514 135.812,185.905 C143.084,184.804 143.134,184.776 144.947,180.649 C148.258,173.113 153.552,151.701 152.517,150.028 C151.803,148.873 143.955,150.015 141.45,151.639 C139.719,152.761 139.057,152.728 137.2,151.427 C132.451,148.101 135.36,141.873 143,139.013 C148.961,136.782 156.125,131.801 157.114,129.201 C157.816,127.354 157.667,126.289 156.528,125.031 C155.688,124.103 155,122.59 155,121.671 C155,120.752 154.42,120 153.711,120 C152.236,120 140,132.222 140,133.695 C140,134.896 132.517,141 131.044,141 C130.454,141 129.19,139.738 128.235,138.195 C124.403,132 117.286,124.831 113,122.846 C110.525,121.701 107.855,120.449 107.067,120.065 C104.325,118.729 103.506,116.292 104.914,113.66 C105.641,112.302 105.963,110.749 105.629,110.209 C104.685,108.681 107.531,106.883 109.623,107.684 C112.231,108.683 117.085,112.067 119.758,114.75 C120.991,115.988 122.564,117 123.253,117 C123.943,117 125.781,118.35 127.338,120 C128.895,121.65 130.694,122.986 131.335,122.968 C131.976,122.951 134.075,121.342 136,119.393 C137.925,117.445 140.85,115.197 142.5,114.398 C146.755,112.339 149.106,110.869 152.85,107.926 C155.867,105.554 156.099,104.965 155.812,100.426 L155.5,95.5 L151.446,95.796 C145.976,96.194 143.521,93.605 144.246,88.201 C144.554,85.91 144.218,83.377 143.416,81.929 C142.676,80.593 142.055,77.164 142.035,74.309 C142.016,71.454 141.561,68.847 141.024,68.515 C139.897,67.819 128.344,69.782 125.764,71.108 C123.348,72.349 120.621,72.221 119.2,70.8 C117.886,69.486 117.593,63.154 118.765,61.401 C119.169,60.797 123.549,59.998 128.497,59.626 C139.741,58.781 141.959,57.209 140.243,51.299 C139.637,49.21 138.821,44.829 138.432,41.564 C137.736,35.739 134.827,27.629 133.034,26.521 C132.535,26.212 132.151,24.135 132.182,21.904 C132.226,18.695 132.709,17.634 134.495,16.82 C137.488,15.456 142,18.272 142,21.504 C142,22.755 142.848,24.826 143.885,26.107 C145.502,28.103 146.001,28.244 147.385,27.095 C148.311,26.327 149,24.256 149,22.244 C149,17.76 150.915,11.007 152.828,8.75 Z M156.5,192.505 C151.961,194.113 148.369,198.044 147.398,202.466 C147.035,204.118 146.062,206.501 145.237,207.761 C143.881,209.831 143.909,210.242 145.537,212.041 C147.797,214.538 152.927,215.998 155.265,214.81 C157.048,213.904 158.932,210.238 162.996,199.762 C166.346,191.129 164.91,189.525 156.5,192.505 Z M175.51,109.984 C175.175,110.525 173.463,111.341 171.704,111.797 C168.803,112.549 168.439,113.082 167.773,117.563 C166.336,127.235 169.011,127.542 175.499,118.449 C180.014,112.122 180.705,109 177.59,109 C176.781,109 175.844,109.443 175.51,109.984 Z M52.643,117.5 C50.749,119.394 50.563,122.887 52.068,128.305 C53.209,132.415 55.64,134.141 57.125,131.896 C58.35,130.046 57.149,118.859 55.546,117.179 C54.504,116.086 54.001,116.142 52.643,117.5 Z M161.427,32.536 C160.742,36.191 161.414,46.748 162.395,47.729 C162.681,48.014 163.626,47.974 164.496,47.64 C166.902,46.716 166.265,29.669 163.807,29.199 C162.555,28.96 161.935,29.828 161.427,32.536 Z M147.882,39.75 C147.816,40.712 147.857,41.95 147.971,42.5 C148.085,43.05 148.488,45.3 148.867,47.5 C149.393,50.555 150.014,51.5 151.494,51.5 C153.194,51.5 153.395,50.886 153.127,46.516 C152.958,43.775 152.395,40.738 151.875,39.766 C150.657,37.491 148.035,37.48 147.882,39.75 Z M67.2,107.2 C65.521,108.879 65.681,114.664 67.425,115.333 C69.471,116.118 72.31,111.37 71.566,108.406 C70.911,105.796 69.103,105.297 67.2,107.2 Z M152.639,68.694 C151.309,70.025 151.988,75 153.5,75 C154.493,75 155,74.007 155,72.059 C155,69.124 153.85,67.484 152.639,68.694 Z"/>
</svg>

