<svg xmlns="http://www.w3.org/2000/svg" width="300" height="300" viewBox="0 0 300 300" version="1.1">
  <defs/>
  <path d="M137.667,76.667 C138.88,75.453 142.315,75.975 144.171,77.655 C145.236,78.619 146,80.683 146,82.596 C146,84.403 146.398,86.128 146.884,86.428 C147.371,86.729 151.083,85.142 155.134,82.903 C164.513,77.717 167.648,77.149 171.25,79.982 C173.842,82.021 174,82.607 174,90.168 C174,95.009 173.456,99.244 172.629,100.846 C171.874,102.306 169.767,106.537 167.945,110.25 C166.123,113.963 164.265,117 163.816,117 C163.367,117 163,117.675 163,118.5 C163,119.325 162.401,120 161.669,120 C160.937,120 159.736,121.125 159,122.5 C158.264,123.875 157.323,125 156.908,125 C156.493,125 154.846,126.1 153.248,127.445 C149.892,130.268 148.34,135.893 146.939,150.302 C146.448,155.361 145.763,161.412 145.418,163.75 C144.477,170.119 147.687,169.297 156.69,160.862 C160.989,156.835 162.524,156 165.626,156 C171.798,156 174,158.923 174,167.115 C174,170.837 173.602,174.128 173.115,174.429 C172.629,174.729 171.916,177.072 171.532,179.635 C171.148,182.197 170.442,185.015 169.964,185.897 C168.317,188.935 162.253,202.504 161.65,204.5 C160.886,207.03 161.736,208.21 165.5,209.841 C167.15,210.555 170.975,212.726 174,214.664 C177.025,216.602 184.041,220.733 189.59,223.844 C195.14,226.955 202.34,231.422 205.59,233.771 C211.631,238.136 227.245,248.662 233.832,252.809 C255.808,266.643 260.841,270.747 272.25,284.14 C277.385,290.167 278.278,293.93 275.345,297.171 C273.154,299.592 271.328,299.481 269.915,296.841 C268.454,294.112 264.009,288.977 257.263,282.226 C252.289,277.248 249.086,274.965 232.723,264.737 C228.996,262.406 221.455,257.238 215.967,253.25 C210.478,249.263 205.76,246 205.482,246 C204.58,246 193.264,238.024 191.992,236.49 C189.933,234.009 192.854,234.651 196.589,237.5 C198.392,238.875 200.312,240 200.857,240 C201.401,240 203.174,241.117 204.797,242.483 C207.874,245.072 217.914,252 218.589,252 C218.803,252 221.57,253.962 224.739,256.36 C227.907,258.757 233.533,262.349 237.239,264.34 C240.946,266.332 245.783,269.1 247.989,270.493 C250.195,271.886 252,272.556 252,271.982 C252,270.708 245.886,265.228 241.42,262.5 C239.619,261.4 234.176,257.801 229.323,254.501 C224.47,251.202 220.05,248.323 219.5,248.104 C218.95,247.886 216.413,245.973 213.861,243.853 C211.31,241.734 208.75,240 208.173,240 C207.596,240 205.645,238.65 203.839,237 C202.032,235.35 200.041,234 199.415,234 C198.788,234 196.576,232.65 194.5,231 C190.075,227.484 187,227.074 187,230 C187,231.1 186.387,232 185.637,232 C184.494,232 168.946,224.029 164,220.907 C163.175,220.386 160.974,219.261 159.109,218.408 L155.718,216.855 L146.383,226.814 C134.72,239.258 128.55,243.478 120.723,244.367 C114.347,245.092 110.708,243.837 105.76,239.209 C104.254,237.799 102.904,236.838 102.76,237.073 C102.617,237.308 101.946,238.4 101.27,239.5 C100.593,240.6 98.929,243.825 97.572,246.666 C94.963,252.126 91.973,254.052 89.408,251.923 C88.36,251.054 88.109,249.754 88.569,247.591 C89.169,244.773 92.75,236.043 95.062,231.764 C95.578,230.809 96,229.413 96,228.663 C96,227.912 97.021,225.318 98.27,222.899 C99.518,220.48 101.144,216.751 101.884,214.614 C103.595,209.667 106.923,204 108.118,204 C108.624,204 108.779,202.968 108.463,201.707 C108.084,200.2 108.626,198.474 110.043,196.672 C111.229,195.164 112.405,192.034 112.655,189.715 C113.047,186.085 114.382,181.035 119.076,165.429 C119.584,163.74 120,161.348 120,160.113 C120,158.879 120.54,156.886 121.2,155.684 C123.088,152.247 124.372,141.544 124.438,128.678 L124.5,116.856 L121.241,114.178 C116.777,110.51 117.049,107.913 122.353,103.567 C124.747,101.605 127.029,100 127.423,100 C127.817,100 130.133,98.628 132.57,96.952 L137,93.904 L137,85.619 C137,81.062 137.3,77.033 137.667,76.667 Z M132,109.071 L128.5,112.09 L130.856,113.879 C133.165,115.633 133.211,115.994 133.174,132.084 C133.145,144.387 132.743,149.596 131.568,152.876 C130.706,155.282 130,158.293 130,159.567 C130,160.84 129.55,162.16 129,162.5 C128.45,162.84 128,165.09 128,167.5 C128,169.91 127.55,172.16 127,172.5 C126.45,172.84 126,174.386 126,175.937 C126,177.487 125.375,179.274 124.611,179.908 C123.171,181.103 122.455,183.336 121.054,191 C120.601,193.475 119.662,197.075 118.966,199 C116.618,205.498 116.125,206.749 112.465,215.5 C111.775,217.15 110.748,219.625 110.183,221 C107.084,228.539 108.13,233.983 113.069,236.029 C119.761,238.8 128.59,234.026 137.814,222.65 C141.216,218.453 144,214.41 144,213.665 C144,210.753 134.491,205.582 126.904,204.369 C122.2,203.617 121.437,201.878 124.533,198.969 C126.673,196.959 127.656,196.778 133.989,197.231 C139.643,197.636 142.076,198.37 146.142,200.897 C151.69,204.346 154,203.917 154,199.437 C154,198.161 154.398,196.872 154.885,196.571 C155.371,196.271 155.998,194.781 156.277,193.262 C156.557,191.743 157.689,188.025 158.794,185 C161.72,176.987 162.265,173.039 160.538,172.376 C158.433,171.568 150.555,177.351 141.7,186.203 C137.41,190.491 133.093,194 132.105,194 C131.118,194 129.506,193.111 128.523,192.026 C126.97,190.309 126.902,189.651 128.006,186.985 C128.705,185.298 130.479,182.249 131.949,180.209 C134.496,176.673 136.206,171.673 137.49,164 C137.812,162.075 138.476,158.25 138.965,155.5 C140.007,149.638 140.12,112.648 139.106,109.005 C138.139,105.53 136.084,105.549 132,109.071 Z M75.462,122.386 C80.909,115.826 82.988,114 85.012,114 C86.436,114 88.14,114.54 88.8,115.2 C90.473,116.873 90.299,124.197 88.506,127.636 C87.685,129.211 87.01,131.261 87.006,132.191 C87.003,133.121 86.611,134.123 86.135,134.417 C85.659,134.711 85.026,136.453 84.728,138.288 C84.43,140.123 83.2,143.847 81.994,146.562 C79.992,151.068 79.425,152.409 77.578,157 C77.246,157.825 75.855,160.483 74.487,162.907 C73.119,165.331 72,167.761 72,168.306 C72,169.187 68.081,177.818 64.35,185.154 C61.719,190.328 63.554,193.94 70.265,196.794 C71.785,197.441 73.511,199.215 74.099,200.735 C74.687,202.256 75.806,204.774 76.584,206.331 C78.366,209.893 78.525,225.075 76.8,226.8 C74.814,228.786 73.072,228.163 72.47,225.25 C71.172,218.972 69.476,214.3 67.304,211.018 C66.037,209.103 65,206.74 65,205.768 C65,202.631 61.298,203.834 57.578,208.18 C55.61,210.479 54,212.897 54,213.553 C54,215.576 45.22,223.022 43.578,222.392 C39.935,220.994 40.496,215.062 45.098,206.313 C46.694,203.279 48,200.384 48,199.879 C48,199.374 49.163,197.118 50.585,194.866 C52.006,192.614 53.809,188.91 54.592,186.636 C55.374,184.361 56.415,181.6 56.905,180.5 C57.395,179.4 58.58,176.7 59.539,174.5 C60.497,172.3 62.118,169.306 63.141,167.846 C64.163,166.386 65,164.483 65,163.618 C65,162.285 67.914,155.23 71.135,148.764 C71.611,147.809 72,146.069 72,144.897 C72,143.15 71.595,142.891 69.75,143.458 C58.82,146.814 54.793,146.295 53.557,141.369 C52.768,138.229 54.817,136 58.491,136 C62.117,136 68.234,131.093 75.462,122.386 Z M91.225,160.49 C96.163,155.243 99.986,154.522 102.504,158.365 C104.518,161.44 103.63,163.741 97.09,172.381 C94.291,176.08 92.021,179.42 92.046,179.803 C92.072,180.186 93.86,181.85 96.021,183.5 C102.548,188.484 105.957,196 101.691,196 C100.937,196 97.66,194.682 94.41,193.071 C88.926,190.353 88.11,190.215 83.088,191.146 C78.347,192.025 77.356,191.911 75.088,190.226 C71.562,187.605 71.172,183.01 74.195,179.691 C75.463,178.299 77.196,176.337 78.046,175.33 C78.896,174.324 81.259,172.182 83.296,170.57 C85.333,168.959 87,167.042 87,166.31 C87,165.578 88.901,162.959 91.225,160.49 Z M159.534,91.962 C158.557,93.042 156.234,94.428 154.371,95.042 C150.318,96.38 149.457,97.821 148.506,104.862 C148.008,108.546 148.18,110.968 149.055,112.603 C150.043,114.448 150.067,115.557 149.164,117.539 C146.322,123.778 149.382,125.086 153.165,119.25 C154.503,117.188 156.865,112.8 158.416,109.5 C159.966,106.2 161.84,102.334 162.58,100.909 C163.32,99.483 164.225,96.446 164.591,94.159 C165.182,90.461 165.037,90 163.283,90 C162.198,90 160.511,90.883 159.534,91.962 Z M78.04,77.452 C79.419,75.79 82.761,75.578 86.309,76.928 C88.655,77.819 94,86.718 94,89.732 C94,91.662 90.971,96.003 89.635,95.986 C89.011,95.978 86.7,93.719 84.5,90.965 C82.3,88.211 79.997,85.384 79.382,84.682 C77.417,82.44 76.774,78.977 78.04,77.452 Z M111.5,202 C111.16,202.55 111.332,203 111.882,203 C112.432,203 113.16,202.55 113.5,202 C113.84,201.45 113.668,201 113.118,201 C112.568,201 111.84,201.45 111.5,202 Z"/>
</svg>

