<svg xmlns="http://www.w3.org/2000/svg" width="300" height="300" viewBox="0 0 300 300" version="1.1">
  <defs/>
  <path d="M127.2,135.2 C130.266,132.134 138.96,136.336 137.487,140.172 C136.649,142.356 138.705,147 140.51,147 C141.368,147 143.067,146.37 144.285,145.599 C146.627,144.118 155.524,142 159.403,142 C160.671,142 162.899,143.104 164.354,144.452 C167.513,147.38 167.84,151.721 165.122,154.638 C164.09,155.747 162.925,157.662 162.534,158.894 C162.143,160.126 159.299,163.658 156.214,166.742 C149.51,173.447 147.36,177.377 145.986,185.444 C144.383,194.856 144.185,195.48 142.027,197.969 C140.912,199.254 140,201.052 140,201.963 C140,202.874 137.975,205.992 135.5,208.891 C130.734,214.475 130.085,216 132.474,216 C133.963,216 144.414,211.095 151.175,207.223 C153.196,206.066 156.442,204.82 158.389,204.455 C160.336,204.09 162.45,203.163 163.087,202.395 C163.724,201.628 164.66,201 165.168,201 C166.447,201 180.675,191.321 181.681,189.766 C182.131,189.07 182.546,187.825 182.602,187 C182.658,186.175 182.771,184.478 182.852,183.229 C183.073,179.842 186.712,178.563 191.008,180.363 C195.993,182.451 198.082,185.093 204.557,197.5 C207.715,203.55 211.059,209.625 211.99,211 C214.945,215.367 222,228.943 222,230.261 C222,230.959 222.9,233.209 224,235.261 C225.1,237.314 226,239.714 226,240.595 C226,241.477 226.619,243.616 227.376,245.349 C230.046,251.46 233,259.278 233,260.232 C233,260.763 233.626,262.616 234.39,264.349 C236.189,268.425 238.519,277.601 240.09,286.795 C240.775,290.807 241.711,294.321 242.168,294.604 C242.626,294.887 243,296.24 243,297.611 C243,299.991 242.76,300.091 237.75,299.802 L232.5,299.5 L231.156,294.5 C230.417,291.75 229.4,286.834 228.896,283.576 C228.392,280.317 226.9,275.367 225.581,272.576 C224.261,269.784 222.848,265.7 222.44,263.5 C222.032,261.3 221.148,258.6 220.476,257.5 C219.803,256.4 218.491,252.364 217.561,248.532 C215.767,241.146 212.484,233.49 205.559,220.538 C203.173,216.076 201.709,213.694 195.239,203.75 C190.52,196.498 188.26,195.428 185.75,199.259 C184.936,200.501 182.972,202.168 181.385,202.963 C179.798,203.758 177.6,205.167 176.5,206.093 C173.985,208.21 158.975,216 157.41,216 C156.769,216 155.685,216.675 155,217.5 C154.315,218.325 152.907,219 151.87,219 C150.834,219 147.851,220.057 145.243,221.35 C135.077,226.386 128.717,228.842 112.292,234.076 C108.878,235.164 105.814,236.492 105.483,237.027 C105.153,237.562 103.805,238 102.488,238 C101.171,238 98.999,238.499 97.66,239.109 C94.544,240.529 89.631,238.394 89.206,235.435 C88.773,232.419 91.645,230.381 100.543,227.389 C115.295,222.429 119.191,220.627 120.051,218.367 C120.505,217.172 121.354,215.899 121.938,215.538 C122.522,215.177 123,214.142 123,213.239 C123,212.335 124.283,210.224 125.852,208.548 C129.175,204.998 131.517,199.407 132.54,192.582 L133.266,187.738 L126.746,188.437 L120.227,189.135 L117.363,184.844 C115.789,182.485 112.427,178.465 109.894,175.913 C105.728,171.714 104.756,171.227 99.705,170.809 C96.634,170.554 93.419,169.763 92.561,169.05 C90.283,167.16 90.588,161.412 93.099,158.901 C94.858,157.142 95.918,156.911 99.651,157.47 C103.665,158.072 112.049,162.652 113.533,165.053 C114.765,167.047 117.147,165.796 123.174,159.989 L129.413,153.979 L127.706,147.575 C125.692,140.017 125.562,136.838 127.2,135.2 Z M79.556,0.91 C79.865,0.409 83.481,0 87.59,0 C95.503,0 96.277,0.474 96.152,5.246 C95.87,16.014 94.639,27.008 93.446,29.404 C92.651,31.001 92,33.551 92,35.071 C92,38.239 91.224,40.154 80.477,63.5 C74.143,77.258 74.746,77.987 84.613,68.5 C88.332,64.925 91.981,62 92.722,62 C95.235,62 99,65.219 98.997,67.365 C98.995,68.539 97.42,72.624 95.497,76.443 C93.574,80.261 92,83.974 92,84.693 C92,86.226 94.601,86.454 95.5,85 C96.575,83.26 100.019,83.913 103.411,86.5 C107.488,89.61 108,89.614 108,86.535 C108,81.011 115.798,80.423 121.729,85.5 C123.978,87.425 126.262,89 126.805,89 C127.347,89 129.244,86.736 131.02,83.969 C135.126,77.57 143.412,70.274 148.22,68.823 C151.54,67.822 152.32,67.96 155.464,70.101 C157.895,71.756 159.185,73.537 159.623,75.841 C160.406,79.967 159.415,88.985 158.027,90.373 C157.462,90.938 157,92.205 157,93.189 C157,97.616 151.519,108.374 146.613,113.576 C142.217,118.237 140.837,119.086 136.776,119.631 C132.341,120.226 131.99,120.104 131.054,117.641 C130.505,116.198 130.319,114.333 130.64,113.497 C131.62,110.942 122.411,98.431 117.38,95.483 C111.423,91.991 109,92.757 109,98.133 C109,100.332 108.534,103.002 107.965,104.066 C106.619,106.581 103.362,106.545 102,104 C100.53,101.254 98.137,101.494 94.763,104.727 C90.883,108.444 84.705,108.565 81.948,104.977 C79.823,102.212 79.25,92.104 80.962,87.601 C82.374,83.885 80.517,83.38 76.191,86.305 C74.161,87.677 71.547,89.081 70.382,89.425 C66.958,90.437 63.328,88.494 62.721,85.324 C62.17,82.448 62.712,80.97 69.998,65.5 C75.655,53.488 79,46.008 79,45.371 C79,45.058 79.622,43.384 80.383,41.651 C83.976,33.462 84.69,29.892 85.474,16.189 L85.95,7.878 L82.99,6.189 C79.89,4.42 78.606,2.446 79.556,0.91 Z M176,5.053 L176,0 L187.091,0 L186.586,3.25 C186.308,5.038 185.803,9.533 185.462,13.239 C185.122,16.946 184.48,20.203 184.037,20.477 C183.594,20.751 182.215,25.368 180.973,30.737 C179.731,36.107 177.654,42.428 176.357,44.785 C172.299,52.163 173.649,55.442 178.675,50.416 C180.096,48.995 182.663,47.608 184.379,47.334 C186.914,46.929 188.047,47.41 190.413,49.893 L193.326,52.95 L191.557,57.225 C190.583,59.576 188.894,63.561 187.802,66.081 C185.267,71.929 185.645,75.591 188.75,75.262 C193.997,74.707 201.067,82.138 198.987,86.024 C198.444,87.038 198,88.782 198,89.899 C198,91.016 197.058,92.434 195.906,93.05 C194.188,93.97 193.412,93.796 191.591,92.086 C188.957,89.611 187.679,89.477 186,91.5 C185.315,92.325 183.74,93 182.5,93 C181.26,93 179.685,93.675 179,94.5 C177.096,96.794 174.665,96.304 171.485,92.984 C168.798,90.18 168.673,89.706 169.695,86.234 C171.263,80.913 175.556,71.044 176.879,69.721 C177.496,69.104 178,67.363 178,65.851 C178,64.603 178,63.922 177.676,63.685 C177.285,63.401 176.426,63.76 174.532,64.551 C169.57,66.624 166.677,66.35 164.053,63.556 C162.16,61.541 161.871,60.443 162.41,57.306 C163.033,53.676 165.175,47.493 167.103,43.764 C167.596,42.809 168.016,41.009 168.035,39.764 C168.055,38.519 168.714,36.375 169.5,35 C170.286,33.625 170.945,31.481 170.965,30.236 C170.984,28.991 171.431,27.191 171.958,26.236 C173.537,23.377 176,10.465 176,5.053 Z M132.549,0.92 C132.862,0.414 135.814,0 139.11,0 C145.068,0 145.111,0.021 146.638,3.676 C147.69,6.193 147.965,8.745 147.513,11.765 C147.021,15.044 147.244,16.612 148.383,17.871 C149.776,19.41 149.614,19.892 146.594,23.189 C143.56,26.5 134.096,32.715 124.827,37.483 C120.589,39.663 118.569,38.755 117.715,34.288 C117.111,31.129 119.832,28.208 128.063,23.177 C134.705,19.117 139.272,12.631 138.211,8.763 C137.82,7.335 136.258,5.194 134.74,4.004 C133.223,2.814 132.237,1.426 132.549,0.92 Z M209.5,106 C214.845,103.703 219.891,105.487 223.967,111.113 C228.311,117.11 228.175,122.156 223.55,126.649 C219.66,130.426 218.793,130.661 216.945,128.434 C215.879,127.149 215.881,126.219 216.954,123.25 C218.171,119.885 218.104,119.503 216.003,117.801 C214.119,116.276 212.639,116.071 207.121,116.573 C203.48,116.905 199.046,117.619 197.269,118.159 C195.149,118.805 192.913,118.804 190.769,118.157 C188.971,117.615 186.154,116.786 184.51,116.315 C181.343,115.408 179.919,112.286 182.066,110.959 C182.761,110.53 185.633,110.416 188.449,110.707 C192.461,111.121 194.423,110.777 197.519,109.118 C199.692,107.953 202.827,106.968 204.485,106.93 C206.143,106.891 208.4,106.473 209.5,106 Z M72.75,116.08 C73.713,115.519 74.623,115.047 74.772,115.03 C74.922,115.014 77.026,116.827 79.448,119.059 L83.852,123.118 L88.176,120.368 C93.06,117.261 100.064,116.843 102.984,119.485 C103.904,120.318 105.191,121 105.843,121 C107.56,121 112.936,127.196 112.971,129.215 C113.057,134.249 103.751,133.481 98.521,128.022 C94.734,124.069 92.142,124.195 88.707,128.5 C86.466,131.309 85.219,132 82.392,132 C78.195,132 75,130.482 75,128.489 C75,127.697 74.102,125.575 73.004,123.774 C70.542,119.737 70.466,117.411 72.75,116.08 Z M28.809,122.519 C29.738,120.481 30.671,120 33.695,120 C35.751,120 39.248,120.644 41.467,121.431 C43.685,122.218 46.737,123.126 48.25,123.45 C49.763,123.773 51,124.645 51,125.386 C51,126.128 52.913,127.984 55.25,129.512 C59.285,132.15 64.872,137.714 64.959,139.182 C64.982,139.557 63.614,140.851 61.919,142.058 C59.148,144.031 58.57,144.113 56.169,142.876 C54.701,142.119 51.73,139.82 49.567,137.768 C46.195,134.568 38.138,131 34.283,131 C33.783,131 32.089,129.658 30.518,128.019 C28.003,125.393 27.799,124.737 28.809,122.519 Z M133.507,43.44 C136.063,40.448 138.48,38 138.877,38 C142.254,38 142.987,45.182 140,49 C137.304,52.446 137.51,53.633 141.013,54.855 C142.67,55.432 144.28,56.565 144.589,57.372 C145.449,59.612 142.197,63.8 137.43,66.594 C133.728,68.763 132.86,68.93 131.071,67.813 C129.503,66.833 129,65.485 129,62.259 C129,59.917 128.531,58 127.958,58 C125.818,58 122.838,54.174 123.168,51.849 C123.408,50.151 124.243,49.414 126.179,49.19 C127.974,48.983 130.394,47.084 133.507,43.44 Z M155.998,111.003 C156.912,109.295 157.726,108.965 159.762,109.476 C162.345,110.125 173.157,119.243 173.877,121.381 C174.085,121.996 175.163,123.499 176.274,124.721 C177.941,126.554 178.072,127.208 177.024,128.471 C171.487,135.142 151.823,118.806 155.998,111.003 Z M143.871,84.508 C141.062,86.035 136,94.669 136,97.935 C136,100.749 138.109,105 139.506,105 C142.172,105 148.296,93.883 149.559,86.75 C150.132,83.514 149.967,83.005 148.361,83.04 C147.338,83.062 145.317,83.723 143.871,84.508 Z M129.75,167.394 C128.787,168.124 128,168.988 128,169.315 C128,169.642 126.817,171.093 125.37,172.539 C122.932,174.977 122.86,175.289 124.381,176.809 C125.902,178.33 126.222,178.33 128.761,176.802 C133.026,174.236 135.655,170.261 134.401,168.273 C132.99,166.037 131.829,165.818 129.75,167.394 Z M143.667,156.667 C142.705,157.628 142.875,161.254 143.963,162.974 C144.749,164.217 145.295,164.072 147.447,162.049 C150.963,158.747 150.835,156 147.167,156 C145.608,156 144.033,156.3 143.667,156.667 Z M90.75,88.712 C88.591,91.112 88.472,94 90.531,94 C92.358,94 93.282,91.97 92.829,88.956 C92.504,86.794 92.477,86.791 90.75,88.712 Z"/>
</svg>

