<svg xmlns="http://www.w3.org/2000/svg" width="300" height="300" viewBox="0 0 300 300" version="1.1">
  <defs/>
  <path d="M145.74,94.25 C148.02,92.515 149.021,92.671 151.686,95.174 C153.537,96.913 154,98.403 154,102.615 C154,105.512 153.55,108.16 153,108.5 C152.45,108.84 152,110.297 152,111.738 C152,115.011 148.495,126.209 145.897,131.236 C145.404,132.191 145,133.676 145,134.536 C145,135.396 144.364,137.33 143.586,138.834 C142.808,140.338 141.858,143.241 141.474,145.285 L140.777,149 L148.446,149 C158.844,149 164.21,150.527 169.119,154.884 C172.589,157.963 173.361,159.375 174.111,164.013 C175.187,170.664 174.328,183.386 172.525,187.5 C171.802,189.15 170.76,191.625 170.209,193 C169.658,194.375 166.348,201.26 162.854,208.3 C157.15,219.79 153.322,225.536 138.073,245.5 C135.973,248.25 130.26,254.325 125.377,259 C101.734,281.639 90.424,287.257 83.034,280.034 C77.823,274.94 79.818,268.685 85.473,272.39 C86.824,273.276 88.635,274 89.498,274 C92.394,274 100.99,268.99 106.271,264.224 C109.15,261.626 112.629,258.6 114.003,257.5 C120.513,252.286 145.42,220.782 148.273,214.154 C148.901,212.694 150.896,209.129 152.707,206.231 C154.518,203.332 156,200.35 156,199.603 C156,198.856 156.675,197.685 157.5,197 C158.325,196.315 159,194.904 159,193.864 C159,192.069 159.41,191.024 162.183,185.75 C163.435,183.368 164.797,177.311 165.676,170.213 C166.1,166.791 165.732,165.227 163.854,162.461 C159.674,156.308 151.963,154.832 138.301,157.571 C135.667,158.099 134.672,157.749 132.673,155.592 C130.453,153.196 130.348,152.672 131.455,149.454 C132.12,147.519 133.19,145.41 133.832,144.768 C134.474,144.126 135,142.559 135,141.286 C135,140.014 135.396,138.191 135.879,137.236 C136.363,136.281 137.554,133.025 138.527,130 C139.5,126.975 140.623,124.05 141.023,123.5 C142.334,121.694 143.219,115.659 143.661,105.5 C143.998,97.762 144.468,95.217 145.74,94.25 Z M67.5,102.541 C70.8,100.091 74.59,98.067 75.921,98.043 C78.612,97.995 82,100.572 82,102.666 C82,104.12 74.393,116.634 67.448,126.606 C62.725,133.387 58,142.78 58,145.388 C58,146.321 58.92,148.071 60.045,149.278 C64.536,154.099 66.889,161.024 67.701,171.805 C68.366,180.646 64.944,187.858 61.456,184.964 C60.424,184.107 60,181.624 60,176.437 C60,172.411 59.55,168.84 59,168.5 C58.45,168.16 58,166.591 58,165.012 C58,163.434 57.293,161.436 56.429,160.571 C53.815,157.958 51.23,158.733 49.107,162.765 C47.633,165.562 40.287,170.324 38.501,169.639 C37.779,169.362 36.889,167.771 36.523,166.103 C35.965,163.563 36.639,161.889 40.678,155.786 C45.692,148.21 47.234,145.568 52.877,134.89 C54.734,131.376 57.096,127.306 58.127,125.846 C59.157,124.386 60,122.698 60,122.096 C60,120.244 55.417,120.882 53.5,123 C50.849,125.929 43.473,125.782 40.944,122.75 C39.911,121.513 39.052,119.86 39.033,119.079 C38.974,116.558 42.203,114 45.444,114 C48.256,114 50.829,112.935 59,108.387 C60.375,107.621 64.2,104.991 67.5,102.541 Z M129.2,40.2 C130.755,38.645 131.492,38.686 135.05,40.526 C137.959,42.03 138,42.165 137.965,50.276 C137.942,55.512 137.41,59.408 136.5,61 C135.714,62.375 135.055,65.194 135.035,67.264 C135.016,69.334 134.595,71.809 134.1,72.764 C133.604,73.719 132.385,77.2 131.39,80.5 C130.395,83.8 129.306,86.95 128.97,87.5 C128.635,88.05 127.744,90.525 126.991,93 C126.237,95.475 125.067,98.336 124.391,99.358 C123.714,100.38 123.387,102.63 123.664,104.358 C124.098,107.067 123.736,107.753 121.037,109.334 C118.135,111.034 117.727,111.051 115.453,109.561 C112.315,107.505 112.328,104.562 115.5,98.596 C116.875,96.01 118,93.045 118,92.006 C118,90.968 118.45,89.84 119,89.5 C119.55,89.16 120,88.045 120,87.022 C120,85.999 120.751,83.663 121.669,81.831 C124.821,75.542 125,75.02 125,72.136 C125,70.545 125.675,67.629 126.5,65.654 C127.505,63.249 128,58.654 128,51.732 C128,45.029 128.422,40.978 129.2,40.2 Z M76.991,133.542 C88.253,124.372 90.911,123.408 93.602,127.516 C95.18,129.924 95.134,130.199 92.511,133.985 C91.004,136.159 88.96,138.195 87.968,138.51 C85.242,139.375 81,142.978 81,144.428 C81,145.133 82.939,146.935 85.308,148.433 C89.904,151.338 92.444,154.472 91.475,156.041 C90.56,157.522 85.214,157.143 77.297,155.037 C68.549,152.709 66.751,151.796 64.669,148.618 C62.596,145.455 63.066,144.88 76.991,133.542 Z M64.75,59.08 C72.436,54.604 82.217,65.994 75.811,71.961 C73.051,74.533 71.362,74.544 70,72 C69.411,70.9 68.418,70 67.794,70 C63.605,70 61.146,61.179 64.75,59.08 Z"/>
</svg>

