<svg xmlns="http://www.w3.org/2000/svg" width="300" height="300" viewBox="0 0 300 300" version="1.1">
  <defs/>
  <path d="M111.5,108.684 C112.6,108.378 115.866,108.249 118.758,108.397 C124.041,108.667 129,111.647 129,114.552 C129,115.214 129.675,116.315 130.5,117 C132.5,118.66 132.542,130.771 130.561,134.669 C129.77,136.226 128.575,139 127.906,140.832 C126.658,144.25 112.006,160 110.075,160 C108.538,160 108.747,162.545 110.395,163.913 C111.163,164.55 112.083,166.63 112.441,168.536 C112.798,170.441 113.408,171.994 113.795,171.988 C114.183,171.981 115.517,170.406 116.759,168.488 C119.129,164.83 120.798,164.198 122.8,166.2 C125.748,169.148 123.972,174.109 117.224,181.775 C116.123,183.026 114.648,185.501 113.946,187.275 C113.245,189.049 112.131,191.175 111.473,192 C110.814,192.825 109.999,194.963 109.662,196.75 C109.063,199.934 109.124,200 112.69,200 C116.468,200 126.54,204.955 135.539,211.241 C138.105,213.033 140.945,214.95 141.849,215.5 C142.754,216.05 147.019,218.862 151.327,221.75 C155.635,224.637 159.482,227 159.877,227 C160.271,227 162.318,228.765 164.425,230.923 C167.539,234.113 168.135,235.328 167.609,237.423 C166.419,242.163 163.203,241.116 151.182,232.077 C146.948,228.893 141.463,225.263 138.992,224.011 C136.522,222.759 132.925,220.516 131,219.028 C129.075,217.54 126.15,215.619 124.5,214.758 C122.85,213.897 119.25,212.005 116.5,210.553 C113.222,208.823 110.302,208.014 108.023,208.207 C104.76,208.482 104.301,208.99 100.594,216.423 C95.267,227.108 85.755,237 80.81,237 C78.925,237 76.579,236.412 75.596,235.694 C73.214,233.952 73.819,229.622 76.5,229.221 C77.6,229.057 79.463,228.718 80.64,228.47 C83.689,227.825 92.814,213.463 95.448,205.163 C96.453,201.996 94.323,202.411 88.571,206.5 C85.863,208.425 83.165,210.015 82.574,210.034 C81.983,210.053 79.7,210.937 77.5,212 C75.163,213.129 71.328,213.946 68.276,213.966 C63.487,213.997 62.924,213.754 61.526,211.05 C60.687,209.427 60,207.199 60,206.099 C60,203.419 62.88,201.866 65.374,203.2 C68.274,204.752 75.916,203.315 80.467,200.361 C86.549,196.414 95.102,189.981 98.75,186.61 C101.967,183.638 102,183.513 102,174.339 C102,164.266 101.291,163 95.648,163 C92.5,163 90,162.055 90,160.865 C90,160.359 88.397,156.695 86.438,152.722 C83.245,146.248 78.965,141.134 76.658,141.036 C75.22,140.975 70.533,136.922 69.869,135.167 C69.021,132.923 71.75,130 74.695,130 C80.226,130 89.41,136.891 90.688,142 C91.546,145.433 97.127,156 98.081,156 C99.586,156 102.096,152.737 101.795,151.172 C101.627,150.301 100.4,149.331 99.069,149.016 C95.409,148.152 94.185,143.497 96.867,140.642 C98.011,139.423 99.072,137.318 99.224,135.963 C99.479,133.69 99.21,133.523 95.736,133.795 C93.117,134 91.798,133.636 91.399,132.597 C90.81,131.063 95.302,121.906 98.028,119.083 C101.515,115.472 109.64,109.2 111.5,108.684 Z M199.5,94.258 C205.018,90.221 211.241,92.515 209.516,97.95 C208.886,99.935 202.18,105.799 198.021,108.002 C196.657,108.725 194.906,109.951 194.13,110.727 C193.354,111.503 191.658,112.834 190.36,113.684 C187.473,115.575 187.34,118.375 190,121.23 C191.507,122.848 192,124.759 192,128.989 C192,132.075 192.406,135.028 192.903,135.55 C193.4,136.073 194.054,138.525 194.357,141 C195.896,153.564 196.796,158.856 197.607,160.114 C198.098,160.876 198.78,166.9 199.123,173.5 C199.466,180.1 200.253,194.95 200.872,206.5 C201.492,218.05 202.232,232.45 202.517,238.5 C202.802,244.55 203.222,252.582 203.451,256.348 C203.745,261.17 203.268,265.461 201.841,270.848 C200.726,275.057 199.451,279.975 199.006,281.778 C197.397,288.303 192.617,290.571 187.87,287.062 C186.336,285.928 184.668,285 184.163,285 C183.658,285 182.685,284.325 182,283.5 C181.315,282.675 179.466,282 177.89,282 C175.606,282 174.482,281.138 172.348,277.75 C165.685,267.169 151.477,251.96 137.237,240.161 C134.357,237.774 132,235.42 132,234.93 C132,233.428 136.419,232.829 139.33,233.935 C146.455,236.644 165.653,253.237 174.031,263.927 C183.992,276.638 189.283,279.138 192.386,272.599 C193.752,269.72 193.99,265.078 193.936,242.349 C193.901,227.582 193.426,210.1 192.88,203.5 C192.335,196.9 191.48,186.55 190.98,180.5 C189.409,161.483 188.791,156.534 187.836,155.343 C186.537,153.722 182.983,135.093 182.684,128.339 C182.583,126.051 182.204,123.88 181.843,123.515 C180.947,122.611 175.942,125.302 173.499,128.001 C167.84,134.254 155.752,137.896 151.982,134.483 C149.746,132.46 149.371,128.751 151.25,127.238 C151.938,126.684 153.85,125.939 155.5,125.582 C157.15,125.225 160.355,123.711 162.623,122.217 C174.131,114.634 183.044,108.103 189.426,102.577 C193.317,99.209 197.85,95.465 199.5,94.258 Z M96.222,39.25 C97.741,37.393 101.451,37.736 103.424,39.916 C104.853,41.496 105.078,43.206 104.703,49.666 C104.211,58.164 103.462,62.241 101.745,65.77 C100.254,68.835 101.931,70.643 104.827,69.093 C108.097,67.343 110.904,67.813 113.665,70.574 C116,72.909 116.175,73.626 115.552,78.319 C115.175,81.163 114.302,84.168 113.612,84.995 C112.922,85.823 110.723,89.733 108.726,93.685 C104.326,102.389 94.146,118.991 93.189,119.022 C92.81,119.034 91.15,121.058 89.5,123.52 C87.476,126.54 85.788,127.996 84.313,127.998 C82.349,128 82.185,127.617 82.705,124.25 C83.024,122.188 84.795,118.415 86.642,115.866 C88.489,113.317 90,110.878 90,110.445 C90,110.012 90.601,108.947 91.335,108.079 C92.07,107.21 93.29,104.925 94.046,103 C94.803,101.075 96.902,96.869 98.711,93.654 C100.52,90.439 102,86.677 102,85.296 C102,83.055 101.703,82.858 99.252,83.473 C97.741,83.852 96.503,84.238 96.502,84.331 C96.501,84.424 95.761,86.075 94.857,88 C93.953,89.925 92.706,92.855 92.084,94.512 C90.208,99.515 86.572,103.433 84.532,102.651 C82.194,101.753 82.817,95.332 85.852,89.062 C87.033,86.621 88,83.385 88,81.871 C88,80.357 88.45,78.84 89,78.5 C89.55,78.16 90,76.424 90,74.641 C90,72.858 90.529,70.871 91.176,70.224 C92.676,68.724 93.982,60.96 94.664,49.5 C94.959,44.55 95.66,39.938 96.222,39.25 Z M56.308,117.25 C58.813,114.488 60.169,114.424 62.464,116.96 C64.658,119.385 63.985,122.676 60.429,126.902 C59.014,128.584 58.125,130.393 58.453,130.924 C58.781,131.455 57.688,134.101 56.025,136.805 C54.026,140.054 52.998,143.04 52.994,145.611 C52.99,147.75 52.315,150.789 51.494,152.364 C50.672,153.94 50,155.933 50,156.793 C50,158.855 48.094,164.826 46.373,168.154 C44.855,171.089 44.566,174 45.792,174 C47.559,174 53.99,181.135 54.556,183.724 C54.889,185.251 55.552,187.625 56.028,189 C56.504,190.375 57.03,195.164 57.196,199.642 C57.453,206.516 57.203,208.113 55.595,209.892 C53.302,212.429 51.281,212.564 48.829,210.345 C47.31,208.97 47,207.133 47,199.499 C47,192.995 46.522,189.349 45.365,187.03 C43.768,183.829 43.614,183.767 38.686,184.351 C35.613,184.715 33.126,184.52 32.321,183.852 C30.508,182.347 30.66,178.527 32.597,176.919 C34.002,175.753 37.223,169.417 40.839,160.703 C41.478,159.165 42.014,156.915 42.032,155.703 C42.049,154.491 42.724,152.626 43.532,151.559 C44.339,150.491 45,148.63 45,147.423 C45,146.216 45.672,143.94 46.494,142.364 C47.315,140.789 47.99,138.668 47.994,137.651 C47.997,136.634 48.62,134.384 49.378,132.651 C50.136,130.918 51.546,127.25 52.512,124.5 C53.477,121.75 55.186,118.487 56.308,117.25 Z M51.25,74.662 C51.955,74.378 52.403,74.196 52.853,74.191 C53.649,74.184 54.45,74.731 56.681,76.25 C59.718,78.317 59.987,78.929 59.993,83.782 C59.997,86.687 59.325,90.68 58.5,92.654 C57.675,94.629 57,97.62 57,99.301 C57,104.848 51.293,119.177 48.45,120.768 C46.642,121.78 47.521,125 49.607,125 C51.901,125 51.179,126.835 48.75,127.18 C47.33,127.382 46.386,128.303 46.19,129.677 C46.019,130.875 45.232,132.393 44.44,133.05 C43.648,133.707 43,135.002 43,135.927 C43,136.852 41.554,139.834 39.786,142.554 C38.019,145.274 36.095,148.4 35.511,149.5 C34.303,151.777 30.305,152.705 28.685,151.085 C27.905,150.305 27.938,149.662 28.8,148.8 C29.46,148.14 30,146.742 30,145.694 C30,144.646 31.125,142.452 32.5,140.818 C33.875,139.184 35,136.875 35,135.688 C35,133.862 37.353,128.116 41.112,120.764 C41.601,119.809 42.004,118.009 42.009,116.764 C42.014,115.519 43.125,112.25 44.478,109.5 C45.901,106.608 46.951,102.689 46.969,100.205 C46.992,97.004 47.626,95.283 49.455,93.455 C50.805,92.105 52.38,91 52.955,91 C53.53,91 54,90.55 54,90 C54,89.45 53.1,89 52,89 C50.193,89 50,88.333 50,82.083 C50,77.486 50.419,74.998 51.25,74.662 Z M113.465,119.952 C110.755,121.05 108.672,123.661 109.473,124.956 C109.828,125.53 111.456,126 113.09,126 C115.041,126 116.255,126.601 116.622,127.75 C116.93,128.713 117.674,130.527 118.277,131.782 C119.26,133.829 118.872,134.505 114.507,138.345 C109.269,142.955 108.807,146 113.346,146 C116.166,146 117.182,144.924 120.563,138.363 C122.734,134.149 122.982,132.699 122.423,127.5 C122.068,124.2 121.322,120.938 120.766,120.25 C119.629,118.844 116.511,118.717 113.465,119.952 Z M174,66.732 C181.81,65.296 187,67.091 187,71.228 C187,75.217 184.194,77 177.916,77 C171.548,77 169,75.443 169,71.551 C169,68.846 170.532,67.37 174,66.732 Z"/>
</svg>

