<svg xmlns="http://www.w3.org/2000/svg" width="300" height="300" viewBox="0 0 300 300" version="1.1">
  <defs/>
  <path d="M85,0.727 C86.375,0.477 95.992,0.211 106.372,0.136 L125.244,0 L123.756,2.25 C122.635,3.947 120.945,4.651 116.884,5.113 C109.347,5.97 100.989,8.28 101.06,9.487 C101.092,10.044 101.56,12.75 102.099,15.5 C102.637,18.25 103.261,22.416 103.485,24.759 C103.709,27.101 104.193,29.504 104.561,30.099 C105.394,31.446 111.611,30.386 114.421,28.417 C117.472,26.281 121.204,26.707 124.26,29.54 C129.095,34.024 128.191,36.045 116,48 C109.094,54.772 105,59.549 105,60.834 C105,61.961 104.55,63.16 104,63.5 C103.45,63.84 103,65.612 103,67.437 C103,69.262 102.325,72.371 101.5,74.346 C100.675,76.32 100,78.4 100,78.968 C100,80.504 104.333,80.216 106.559,78.532 C107.626,77.724 109.4,77.043 110.5,77.017 C111.6,76.992 114.3,76.347 116.5,75.585 C120.901,74.06 139.206,71.413 151.091,70.583 C157.607,70.127 159.307,70.367 163.091,72.276 C166.853,74.174 167.625,75.098 168.354,78.572 C169.094,82.097 168.805,83.438 166.192,88.572 C161.608,97.58 151.399,106.409 146.252,105.817 C142.27,105.358 143.147,102.51 149.067,96.68 C154.595,91.235 157.086,85.013 154.827,82.291 C153.739,80.981 151.878,80.842 143.018,81.409 C126.331,82.478 115.164,85.151 98.5,92.063 C97.4,92.52 94.025,93.855 91,95.031 C87.975,96.207 84.825,97.568 84,98.054 C80.492,100.123 73.628,103 72.202,103 C71.352,103 69.947,103.619 69.079,104.375 C68.21,105.131 64.621,107.268 61.101,109.125 C57.582,110.981 52.067,115.087 48.845,118.25 C45.623,121.412 42.136,124 41.096,124 C38.961,124 27.431,118.507 26.54,117.065 C25.769,115.817 20.057,113 18.297,113 C17.529,113 15.461,112.233 13.7,111.294 C11.94,110.356 8.25,109.344 5.5,109.044 L0.5,108.5 L0.201,103.88 C-0.137,98.677 0.772,98.04 8.563,98.014 C13.701,97.996 28.298,105.435 34.963,111.466 C37.209,113.5 37.255,113.479 45.152,106.85 C50.637,102.246 60,97.477 74.5,91.901 C77.8,90.632 81.175,89.095 82,88.485 C82.825,87.875 85.412,86.547 87.75,85.536 C90.81,84.211 92.002,83.109 92.006,81.598 C92.01,80.444 92.685,78.211 93.506,76.636 C96.32,71.24 95.567,69.952 85.528,63 C83.543,61.625 81.05,58.856 79.988,56.847 C77.692,52.5 71.331,47 68.601,47 C65.696,47 63,44.056 63,40.884 C63,38.438 63.534,37.933 67.158,36.957 C71.061,35.906 71.585,36.027 75.7,38.928 C80.52,42.326 82.571,42.295 89,38.728 C94.749,35.539 95.215,34.908 94.666,31.056 C94.388,29.1 93.719,24.18 93.182,20.122 C92.631,15.973 91.612,12.369 90.852,11.887 C89.144,10.805 86.683,10.763 85.45,11.796 C83.628,13.322 76.979,15.128 75.246,14.568 C73.494,14.001 71,9.733 71,7.301 C71,6.571 72.127,6 73.567,6 C74.978,6 77.566,4.916 79.317,3.59 C81.068,2.265 83.625,0.976 85,0.727 Z M141.427,172.765 C143.126,171.602 146.453,171.879 148.466,173.351 C150.011,174.481 150.213,175.554 149.698,179.899 C148.94,186.303 149.595,186.669 158.155,184.628 C167.186,182.474 169.647,181.871 171.181,182.799 C171.779,183.161 172.235,183.755 172.885,184.581 C177.393,190.311 174.828,199.526 166.518,207.46 C163.615,210.232 158.635,214.975 155.452,218 C149.447,223.708 145.597,230.653 142.98,240.5 C142.249,243.25 141.005,246.509 140.216,247.742 C138.119,251.018 139.323,253 143.41,253 C145.319,253 147.188,252.504 147.563,251.898 C147.938,251.292 149.652,250.136 151.372,249.329 C157.849,246.291 159.862,244.895 163.382,240.999 C165.372,238.796 167,236.309 167,235.472 C167,234.635 168.169,233.506 169.597,232.963 C172.996,231.671 180,233.459 180,235.619 C180,236.467 181.469,239.487 183.264,242.331 C187.91,249.687 189,251.784 189,253.364 C189,254.129 189.601,255.254 190.336,255.864 C192.46,257.627 199,271.929 199,274.811 C199,275.77 199.778,277.666 200.73,279.025 C201.681,280.383 203.861,285.678 205.573,290.792 L208.687,300.09 L203.113,299.795 C197.891,299.519 197.482,299.311 196.626,296.5 C196.124,294.85 194.428,290.667 192.857,287.205 C191.285,283.743 190,280.453 190,279.893 C190,276.765 175.422,251.229 172.699,249.586 C171.215,248.691 170.422,249.048 168.199,251.612 C165.317,254.936 148.16,263.976 144.622,264.035 C143.455,264.055 141.375,264.714 140,265.5 C138.625,266.286 136.455,266.945 135.179,266.965 C133.902,266.984 132.182,267.675 131.357,268.5 C129.824,270.033 125.418,270.481 122.582,269.393 C121.509,268.981 121,267.515 121,264.833 C121,261.461 121.735,260.103 126,255.594 C128.75,252.686 131,249.865 131,249.326 C131,248.786 132.575,244.332 134.5,239.429 C136.425,234.526 138,230.185 138,229.783 C138,228.577 132.282,226 129.606,226 C126.61,226 124,222.648 124,218.798 C124,214.448 118.945,204.682 115.536,202.448 C112.997,200.784 112.5,199.808 112.5,196.479 L112.5,192.5 L117.317,192.567 C121.394,192.624 122.499,193.084 124.517,195.567 C125.828,197.18 127.427,199.738 128.071,201.25 C129.133,203.743 132,205.158 132,203.189 C132,202.742 132.823,201.493 133.83,200.413 C138.051,195.882 138.827,193.58 138.922,185.312 C139.018,176.853 139.582,174.028 141.427,172.765 Z M55.155,191.883 C59.43,189.174 63.712,192.691 62.643,198.035 C61.68,202.852 64.074,203.551 69.695,200.093 C74.929,196.872 81.343,195.367 85.447,196.397 C89.165,197.33 91.033,202.482 90.113,209.264 C89.335,215 87.704,217.811 80.984,225 C73.592,232.909 71.976,235.519 71.612,240.146 C71.421,242.567 70.305,246.534 69.132,248.962 C67.96,251.389 67,254.468 67,255.803 C67,257.137 65.797,260.44 64.327,263.141 C60.673,269.854 62.028,270.93 69.311,267.099 C77.596,262.741 82.413,258.494 85.495,252.831 C87.763,248.664 88.046,247.396 87.146,245.422 C86.239,243.43 86.444,242.595 88.401,240.32 C90.617,237.744 90.867,237.683 93.129,239.165 C95.707,240.854 96.517,242.305 100.015,251.5 C101.271,254.8 102.814,258.175 103.444,259 C104.075,259.825 105.434,262.975 106.464,266 C107.494,269.025 108.892,272.4 109.57,273.5 C110.249,274.6 111.132,277.069 111.533,278.988 C112.272,282.518 115.98,292.21 118.521,297.25 L119.907,300 L114.902,300 C110.051,300 109.852,299.885 108.406,296.25 C107.585,294.188 105.808,290.244 104.457,287.486 C103.106,284.728 102,281.647 102,280.64 C102,279.633 101.174,277.614 100.165,276.154 C99.156,274.694 97.335,271.403 96.119,268.839 C92.95,262.159 91.539,262.037 85.57,267.925 C81.036,272.397 72.128,277.985 69.514,277.996 C68.528,278 58.827,282.411 56,284.141 C55.175,284.645 51.8,286.417 48.5,288.077 C45.2,289.736 41.344,291.817 39.931,292.701 C35.451,295.502 28.911,292.002 30.566,287.689 C30.873,286.888 34.87,283.944 39.448,281.147 C45.49,277.455 48.625,274.772 50.886,271.359 C52.599,268.773 54,266.097 54,265.412 C54,264.727 54.474,264.009 55.053,263.816 C55.632,263.623 56.512,261.898 57.008,259.982 C61.46,242.808 61.417,241.187 56.587,244.351 C53.328,246.486 51.701,246.432 49.606,244.118 C46.882,241.107 48.532,237.567 55.135,232.261 C60.543,227.914 61.033,227.196 60.779,224 C60.564,221.307 60.012,220.43 58.383,220.198 C55.989,219.856 51,225.045 51,227.877 C51,230.157 49.063,232 46.666,232 C45.603,232 41.416,228.85 37.363,225 C30.581,218.558 29.651,218 25.688,218 C20.837,218 18.516,216.593 17.696,213.154 C16.917,209.883 17.785,208.163 21.072,206.463 C24.71,204.582 28.421,204.597 30,206.5 C30.685,207.325 31.863,208 32.62,208 C33.376,208 35.738,209.575 37.868,211.5 C42.382,215.578 44.771,215.854 48.681,212.75 C50.24,211.512 52.412,209.988 53.508,209.362 C54.675,208.694 55.348,207.453 55.133,206.362 C53.893,200.072 53.904,192.676 55.155,191.883 Z M110.059,102.713 C115.171,101.717 116.483,102.319 116.818,105.815 C116.993,107.639 116.591,109.788 115.924,110.592 C113.946,112.975 106.036,117.997 104.2,118.035 C100.153,118.12 95.009,123.252 91.522,130.683 C90.701,132.434 89.19,134.459 88.163,135.183 C87.137,135.907 85.572,137.908 84.686,139.629 C83.799,141.35 82.382,143.023 81.537,143.347 C79.113,144.278 79.734,146.743 83,149.158 C84.65,150.378 86,151.936 86,152.621 C86,153.305 86.986,154.178 88.192,154.561 C89.835,155.082 90.899,154.63 92.442,152.755 C96.687,147.596 102.732,144.829 110.996,144.263 C118.249,143.766 118.798,143.873 120.35,146.09 C122.392,149.004 122.515,156.779 120.579,160.51 C119.798,162.016 117.21,164.392 114.829,165.791 C112.448,167.189 109.022,169.609 107.215,171.167 C105.229,172.88 102.777,174 101.012,174 C98.81,174 97.305,174.982 94.88,178 C91.201,182.578 88.324,183.107 85.365,179.75 C82.416,176.405 81,172.434 81,167.51 C81,158.833 74.331,152.369 71.92,158.71 C71.353,160.2 69.565,162.603 67.945,164.049 C66.325,165.495 65,167.175 65,167.782 C65,168.39 63.998,169.588 62.774,170.446 C61.549,171.304 59.637,173.501 58.524,175.328 C55.003,181.109 49.544,185.177 45.792,184.817 C43.117,184.559 42.452,184.032 42.243,182 C42.051,180.124 43.548,177.835 48.243,172.827 C51.685,169.157 55.625,164.518 57,162.517 C58.375,160.517 60.962,157.065 62.75,154.845 C64.537,152.626 66,150.389 66,149.873 C66,149.357 68.7,145.029 72,140.255 C75.3,135.481 78,130.996 78,130.288 C78,129.547 76.822,129 75.227,129 C73.098,129 72.028,128.208 70.616,125.585 C69.604,123.707 69.043,121.739 69.369,121.212 C70.036,120.132 78.214,116.128 85,113.559 C87.475,112.622 90.4,111.28 91.5,110.578 C92.6,109.876 95.3,108.971 97.5,108.567 C99.7,108.162 102.877,106.787 104.559,105.51 C106.242,104.234 108.717,102.975 110.059,102.713 Z M71.993,209.853 C70.347,211.499 69,213.526 69,214.358 C69,217.436 71,221 72.725,220.998 C75.034,220.996 80.246,212.758 79.823,209.779 C79.323,206.255 75.556,206.29 71.993,209.853 Z M151.646,198.452 C148.558,201.315 147.795,208 150.556,208 C152.139,208 162,198.387 162,196.844 C162,196.38 160.266,196 158.146,196 C155.441,196 153.503,196.731 151.646,198.452 Z M134.189,208.035 C132.258,208.825 131.929,209.598 132.189,212.74 C132.436,215.728 132.949,216.564 134.689,216.811 C137.769,217.25 141.198,213.541 140.811,210.189 C140.466,207.208 138.094,206.437 134.189,208.035 Z M90.011,50.487 C88.569,52.224 89.343,55 91.269,55 C93.152,55 95,52.92 95,50.8 C95,48.59 91.754,48.387 90.011,50.487 Z"/>
</svg>

