<svg xmlns="http://www.w3.org/2000/svg" width="300" height="300" viewBox="0 0 300 300" version="1.1">
  <defs/>
  <path d="M148.651,130.033 C153.034,126.735 156.535,126.286 159.836,128.597 C162.913,130.753 162.044,134.45 156.643,142.173 C151.491,149.542 151.457,149.604 149.974,154.636 C149.304,156.911 147.461,160.286 145.88,162.136 C142.089,166.572 142.101,168.356 145.916,167.518 C150.923,166.419 155.727,167.969 159.918,172.037 C162.081,174.136 164.35,176.786 164.961,177.927 C165.571,179.067 166.742,180 167.563,180 C170.376,180 190.847,156.543 199.198,143.75 C202.773,138.274 205.392,137.66 208.963,141.461 C210.991,143.62 211.132,144.268 210.108,146.74 C207.917,152.029 203.413,157.911 194.434,167.209 C189.499,172.319 183.729,178.637 181.61,181.25 C179.492,183.863 177.186,186 176.487,186 C174.414,186 173.893,188.927 175.778,189.985 C176.725,190.516 182.899,193.718 189.498,197.098 C196.097,200.479 203.378,204.54 205.678,206.123 C207.978,207.705 210.287,209 210.808,209 C211.329,209 212.312,209.671 212.992,210.49 C213.672,211.31 216.99,213.849 220.364,216.133 C223.739,218.417 228.586,222.134 231.135,224.393 C233.685,226.652 237.51,230.015 239.635,231.866 C245.712,237.159 257.204,248.617 260.5,252.668 C262.15,254.697 266.884,259.989 271.02,264.428 C279.407,273.432 285.014,280.35 284.972,281.644 C284.942,282.574 280.31,287.212 278.187,288.438 C276.891,289.186 273,286.516 273,284.878 C273,283.753 257.484,264.553 252,258.892 C249.525,256.338 245.447,252.054 242.937,249.374 C233.114,238.882 211.677,220.588 207.221,218.894 C205.888,218.387 202.481,216.478 199.649,214.652 C189.662,208.211 175.769,200.875 174.49,201.366 C173.56,201.722 173.178,204.572 173.136,211.468 C173.06,223.871 171.274,234.635 168.826,237.45 C168.372,237.973 168,239.023 168,239.784 C168,243.611 160.221,260.437 156.521,264.613 C150.969,270.879 146.498,271.492 139.659,266.925 C136.997,265.147 134.576,262.973 134.279,262.096 C133.982,261.218 131.997,256.797 129.869,252.27 C127.741,247.744 126,243.356 126,242.52 C126,239.615 123.084,241.022 121.377,244.75 C120.433,246.813 118.258,250.3 116.544,252.5 C114.83,254.7 112.592,257.82 111.571,259.433 C107.709,265.533 93.028,279.653 87.588,282.499 C82.852,284.977 81.752,285.208 79.524,284.193 C78.105,283.546 76.677,282.322 76.351,281.471 C75.522,279.313 78.814,276 81.787,276 C86.999,276 92.077,271.256 104.175,255.086 C107.297,250.914 111.273,245.606 113.01,243.292 C116.453,238.705 116.354,237.019 112.682,237.721 C111.292,237.986 109.631,237.488 108.657,236.514 C106.563,234.42 107.157,231.873 112.041,222 C114.082,217.875 116.063,213.488 116.443,212.25 C116.824,211.012 117.464,210 117.866,210 C118.269,210 119.193,208.313 119.92,206.25 C120.646,204.188 122.232,201.15 123.444,199.5 C124.656,197.85 125.931,195.729 126.278,194.787 C126.625,193.845 128.954,189.969 131.454,186.174 C133.955,182.379 136,178.988 136,178.637 C136,177.521 132.564,178.015 130.75,179.392 C129.787,180.123 129,181.195 129,181.775 C129,182.355 126.638,184.708 123.75,187.003 C120.862,189.299 118.14,191.812 117.7,192.588 C116.222,195.197 110,193.709 110,190.747 C110,190.277 113.981,185.715 118.846,180.608 C129.223,169.715 135.312,161.892 137.513,156.622 C139.095,152.836 139.095,152.835 136.798,153.543 C135.534,153.933 132.565,155.545 130.2,157.126 C122.881,162.018 117.365,160.242 118.188,153.258 C118.431,151.201 119.248,150.423 121.875,149.747 C125.469,148.822 133.821,143.041 140.651,136.751 C142.933,134.649 146.533,131.625 148.651,130.033 Z M47.324,98.853 C47.96,97.834 49.255,97 50.2,97 C52.396,97 57,101.923 57,104.271 C57,106.92 59.731,107.499 63.578,105.664 C67.445,103.82 71.391,104.278 74.983,106.987 C78.602,109.717 77.868,115.232 72.374,126.601 C69.882,131.759 67.428,136.235 66.921,136.549 C66.415,136.862 66,138.19 66,139.5 C66,140.81 65.55,142.16 65,142.5 C64.45,142.84 64,143.998 64,145.073 C64,146.148 63.55,147.921 63,149.014 C62.45,150.106 61.55,151.894 61,152.986 C60.45,154.079 60,156.527 60,158.427 C60,160.327 59.604,162.127 59.12,162.426 C58.635,162.725 57.92,166.8 57.53,171.481 C57.14,176.163 56.411,180.246 55.911,180.555 C54.862,181.204 54.662,185 55.677,185 C56.968,185 70.438,175.482 74.21,171.905 C77.175,169.092 78,167.556 78,164.846 C78,160.056 79.905,157.749 83.517,158.164 C87.361,158.606 91,163.925 91,169.101 C91,172.561 91.519,174.466 94.107,180.5 C94.578,181.6 95.387,184.3 95.905,186.5 C96.422,188.7 97.957,193.65 99.315,197.5 C103.133,208.318 103.464,211.536 101.015,213.985 C99.421,215.579 98.528,215.818 97.074,215.04 C94.836,213.842 91.281,206.843 90.439,201.976 C89.793,198.238 89.511,197.474 85.581,188.812 C84.161,185.683 83,182.646 83,182.062 C83,180.535 79.249,180.751 78.3,182.332 C77.86,183.065 74.505,185.7 70.844,188.188 C67.183,190.676 62.187,194.352 59.741,196.356 C57.295,198.36 54.841,200 54.287,200 C53.733,200 51.567,201.615 49.475,203.589 C46.013,206.854 45.297,207.122 41.545,206.559 C37.679,205.979 37.129,206.219 32.795,210.372 C30.251,212.81 26.86,215.092 25.259,215.443 C20.949,216.39 17.361,214.66 16.715,211.324 C16.047,207.879 17.95,205.502 22.604,203.966 C24.453,203.355 26.952,201.426 28.156,199.678 C30.798,195.843 35.031,192.085 36.764,192.036 C37.459,192.016 38.809,191.598 39.764,191.108 C40.719,190.617 42.673,189.756 44.107,189.194 C46.155,188.392 46.867,187.244 47.432,183.837 C47.827,181.452 48.533,177.25 49.002,174.5 C50.602,165.109 50.204,157.075 48,154.273 C46.9,152.874 46,150.942 46,149.978 C46,149.014 44.654,147.162 43.009,145.863 C41.327,144.534 40.014,142.541 40.009,141.309 C40.004,140.104 39.543,138.836 38.985,138.491 C38.427,138.146 37.345,136.369 36.582,134.542 C35.819,132.715 33.576,129.429 31.597,127.239 C29.619,125.049 28,122.58 28,121.751 C28,120.923 27.325,119.685 26.5,119 C25.675,118.315 25,116.896 25,115.846 C25,111.196 34.436,112.706 36.918,117.753 C39.188,122.37 41.848,122.926 44.687,119.378 C47.111,116.349 47.759,111.587 45.904,110.441 C44.6,109.635 45.578,101.648 47.324,98.853 Z M175,101.057 C182.909,99.288 184.426,99.381 187.25,101.807 C191.453,105.416 187.926,117.561 181.71,120.888 C177.565,123.106 176.147,121.874 176.744,116.575 C177.176,112.747 176.985,112 175.574,112 C173.851,112 158.903,117.919 153.5,120.741 C143.623,125.899 138.745,128.784 132.556,133.127 C128.737,135.807 125.08,138 124.429,138 C123.778,138 122.657,138.708 121.939,139.573 C121.221,140.438 118.972,141.994 116.941,143.03 C111.404,145.855 107.148,144.783 102.45,139.379 C99.918,136.467 97.312,134.623 94.758,133.935 C88.347,132.209 84.123,125.967 87.011,122.487 C90.014,118.868 98.814,122.089 105.958,129.423 C108.41,131.94 110.946,134 111.594,134 C113.199,134 116.979,131.971 120.542,129.196 C128.654,122.879 131.355,121.023 133.338,120.403 C134.527,120.03 137.381,118.438 139.68,116.863 C141.979,115.288 144.054,114 144.292,114 C144.529,114 147.838,112.288 151.645,110.195 C161.023,105.04 166.144,103.036 175,101.057 Z M155.082,193.368 C153.937,195.22 153,197.012 153,197.349 C153,197.686 151.425,200.423 149.5,203.433 C147.575,206.442 146,209.428 146,210.068 C146,210.708 144.482,213.317 142.627,215.866 C140.771,218.415 138.941,221.513 138.559,222.751 C138.177,223.989 136.37,226.142 134.542,227.536 C132.715,228.929 130.983,231.292 130.693,232.785 C130.118,235.747 132.863,242.033 137.977,249.467 C139.64,251.883 141,254.497 141,255.275 C141,257.34 144.311,260 146.881,260 C148.442,260 149.409,259.125 150.128,257.062 C150.692,255.446 152.036,252.408 153.117,250.312 C154.893,246.864 157.008,240.941 161.083,228 C163.106,221.576 162.778,198.831 160.589,193.75 C159.7,191.688 158.566,190 158.068,190 C157.57,190 156.226,191.516 155.082,193.368 Z M148.354,73.993 C153.677,71.845 156.926,73.293 159.477,78.949 C160.98,82.283 161.101,83.483 160.143,85.584 C159.501,86.995 159.238,88.575 159.559,89.095 C159.88,89.615 158.986,91.416 157.571,93.098 C154.942,96.223 153.632,99.631 154.188,101.904 C154.36,102.605 153.288,104.107 151.807,105.242 C149.216,107.227 149.014,107.239 146.45,105.559 C143.506,103.63 142.338,104.246 141.835,107.99 C141.12,113.308 134.082,110.054 134.022,104.377 C133.988,101.124 130.401,93.725 127.567,91.063 C124.565,88.242 123.213,82.654 125.009,80.489 C126.809,78.32 132.344,78.618 134.5,81 C137.191,83.974 139.298,83.457 142.937,78.929 C144.736,76.69 147.174,74.469 148.354,73.993 Z M137.667,26.667 C140.046,24.287 147.385,28.591 149.474,33.591 C150.313,35.601 151,38.314 151,39.622 C151,41.635 151.498,42.002 154.25,42.014 C159.404,42.035 161.673,42.987 162.878,45.631 C163.842,47.746 163.654,48.437 161.545,50.546 C160.195,51.896 158.634,53 158.075,53 C155.109,53 142.595,59.813 137.425,64.242 C136.284,65.219 133.584,66.127 131.425,66.26 C127.595,66.494 127.493,66.414 127.2,62.928 C126.927,59.675 127.482,58.81 133.432,53.214 C140.662,46.413 141.422,44.157 138.629,37.782 C136.978,34.014 136.447,27.886 137.667,26.667 Z M145.97,179.75 C142.644,185.773 139.758,189.931 135.75,194.473 C133.688,196.811 132,199.222 132,199.831 C132,201.181 128.322,208.519 125.824,212.154 C124.821,213.614 124,215.822 124,217.06 C124,218.298 122.972,220.704 121.716,222.406 C118.687,226.509 117,230.525 117,233.63 C117,236.482 118.757,236.424 120.429,233.517 C121.018,232.492 125.213,225.91 129.75,218.89 C134.287,211.87 138,205.639 138,205.044 C138,204.448 139.144,202.147 140.543,199.932 C141.942,197.716 143.527,194.745 144.065,193.33 C144.603,191.914 146.894,188.118 149.156,184.893 C152.577,180.016 153.058,178.774 152.012,177.515 C149.988,175.076 148.182,175.744 145.97,179.75 Z M45.2,127.2 C43.525,128.875 43.65,129.845 46.233,135.211 C49.899,142.828 52.455,140.641 51.299,130.878 C50.807,126.724 50.401,126 48.561,126 C47.372,126 45.86,126.54 45.2,127.2 Z M60.552,118.25 C60.34,118.938 59.899,121.412 59.572,123.75 C59.059,127.411 59.229,128 60.796,128 C62.645,128 66,121.982 66,118.664 C66,116.677 61.15,116.308 60.552,118.25 Z M142.682,92.56 C140.545,95.495 140.809,98.339 143.261,98.812 C144.6,99.07 145,98.458 145,96.155 C145,94.51 145.273,92.452 145.607,91.582 C146.538,89.154 144.718,89.763 142.682,92.56 Z"/>
</svg>

