<svg xmlns="http://www.w3.org/2000/svg" width="300" height="300" viewBox="0 0 300 300" version="1.1">
  <defs/>
  <path d="M121.363,1.496 C121.695,0.631 123.194,0 124.918,0 C129.928,0 132.734,4.823 133.353,14.5 C134.391,30.723 135.783,34.033 139.306,28.656 C144.398,20.884 150.266,18.121 154.171,21.655 C156.738,23.978 156.488,25.226 152.5,30 C148.251,35.086 148.156,36 151.878,36 C156.572,36 157.481,38.126 154.945,43.174 C152.483,48.076 143.754,57.041 139.102,59.447 C136.212,60.942 136,61.421 136,66.467 C136,69.445 136.45,72.16 137,72.5 C137.55,72.84 138,73.991 138,75.059 C138,76.127 138.485,77 139.078,77 C140.439,77 149,67.877 149,66.426 C149,65.834 150.163,64.258 151.585,62.924 L154.17,60.5 L155.935,62.676 C159.021,66.479 157.893,71.293 152.382,77.844 C149.697,81.036 145.363,85.335 142.75,87.397 L138,91.146 L138,100.991 C138,106.406 137.728,111.546 137.395,112.414 C136.901,113.699 137.329,113.884 139.701,113.41 C141.712,113.008 143.027,113.327 143.953,114.443 C145.951,116.851 143.932,120.394 138.362,124.258 C135.792,126.041 130.549,130.043 126.711,133.152 C122.873,136.26 118.443,139.061 116.867,139.377 C115.045,139.741 113.294,141.142 112.06,143.225 C110.992,145.026 109.677,147.006 109.137,147.625 C106.951,150.129 102,161.107 102,163.448 C102,165.017 101.066,166.566 99.5,167.592 C98.125,168.493 97,169.859 97,170.629 C97,172.34 95.24,175.561 92.25,179.323 C91.013,180.88 90,182.639 90,183.232 C90,183.826 88.83,185.846 87.399,187.721 C85.968,189.597 84.956,191.214 85.149,191.316 C88.628,193.143 89.547,194.09 89.792,196.102 C89.952,197.421 90.478,199.4 90.961,200.5 C91.443,201.6 92.11,204.072 92.442,205.992 C93.153,210.096 95.191,215 96.186,215 C96.571,215 99.004,212.545 101.594,209.545 C106.435,203.938 111.513,201.113 113.384,202.984 C114.065,203.665 113.679,204.893 112.202,206.747 C110.995,208.261 109.116,211.151 108.026,213.168 C102.179,223.984 94.148,232 89.159,232 C85.823,232 82,226.458 82,221.623 C82,219.3 82.501,216.899 83.113,216.287 C83.764,215.636 83.993,213.581 83.663,211.337 C82.417,202.852 81.456,198.922 80.613,198.854 C79.542,198.768 73,206.867 73,208.279 C73,208.827 71.313,211.189 69.25,213.526 C64.424,218.996 62.219,222.116 58.378,228.912 C56.66,231.951 54.552,234.88 53.693,235.422 C51.59,236.749 47.12,234.325 46.403,231.47 C45.793,229.038 49.884,222.353 54.915,217.563 C56.612,215.948 58,214.197 58,213.674 C58,213.15 60.588,209.775 63.75,206.174 C66.913,202.572 69.95,198.864 70.5,197.934 C73.212,193.348 83.2,178.994 84.041,178.475 C84.568,178.149 85.01,177.121 85.022,176.191 C85.034,175.261 85.924,173.375 87,172 C88.076,170.625 88.966,168.736 88.978,167.803 C88.99,166.87 90.125,163.99 91.5,161.404 C92.875,158.818 94,156.094 94,155.351 C94,153.397 90.899,153.732 88,156 C86.625,157.076 84.539,157.966 83.364,157.978 C82.19,157.99 79.94,158.672 78.364,159.494 C74.627,161.443 73.659,161.386 71.585,159.094 C70.484,157.877 69.975,155.976 70.18,153.844 C70.468,150.829 70.893,150.419 74.5,149.675 C76.7,149.221 80.164,147.983 82.198,146.925 C84.232,145.866 86.405,145 87.028,145 C88.754,145 107.261,136.063 109.25,134.269 C112.008,131.781 111.352,126.566 107,116.381 C102.67,106.247 102.147,102.953 104.548,100.96 C105.818,99.906 106.695,99.961 109.433,101.266 C112.225,102.598 113.046,103.806 114.468,108.679 C115.402,111.88 116.579,115.281 117.083,116.236 C117.587,117.191 118,119.343 118,121.018 C118,122.693 118.617,124.3 119.371,124.589 C120.713,125.104 126.657,121.782 130.368,118.444 C132.18,116.815 132.153,116.697 129.477,114.564 C126.889,112.5 126.767,112.059 127.511,107.432 C128.472,101.447 128.198,84.001 126.848,65.331 C126.298,57.724 125.465,44.75 124.996,36.5 C124.528,28.25 123.639,19.025 123.022,16 C121.214,7.151 120.75,3.093 121.363,1.496 Z M144.635,139.073 C147.961,136.456 151.429,136.429 154,139 C157.794,142.794 156.454,145.842 146.922,155.1 C143.185,158.73 139.311,163.044 138.314,164.688 C134.555,170.883 131.218,175.575 129.636,176.887 C128.736,177.634 128.001,178.752 128.002,179.372 C128.004,180.947 134.221,184.693 150.5,192.927 C169.015,202.292 178.593,207.417 180.431,208.943 C181.259,209.63 184.508,211.74 187.652,213.633 C194.83,217.956 203.091,224.296 208.403,229.559 C210.656,231.791 216.853,237.338 222.173,241.886 C233.872,251.887 235.093,254.193 231.221,258.976 C229.729,260.818 228.839,261.06 225.714,260.474 C222.824,259.932 221.642,259.048 220.45,256.535 C218.907,253.285 214.845,248.668 209.422,244 C207.824,242.625 203.813,239.092 200.509,236.15 C197.204,233.207 192.25,229.28 189.5,227.422 C186.75,225.565 181.838,222.243 178.584,220.041 C175.33,217.839 171.73,215.177 170.584,214.127 C168.528,212.243 159.96,208 158.21,208 C157.715,208 156.495,207.1 155.5,206 C154.505,204.9 153.105,204 152.389,204 C151.673,204 148.916,202.72 146.262,201.154 C132.312,192.93 115.559,187.668 113.57,190.887 C111.659,193.979 104,189.641 104,185.466 C104,182.401 107.643,179.002 110.939,178.992 C114.729,178.981 123.123,169.968 131.422,157 C133.005,154.525 136.033,150.413 138.151,147.861 C140.268,145.31 142,142.755 142,142.184 C142,141.613 143.186,140.212 144.635,139.073 Z M86.104,4.374 C87.44,2.765 91.342,2.577 93.99,3.995 C96.046,5.095 99,10.382 99,12.963 C99,13.873 99.661,15.491 100.468,16.559 C101.276,17.626 101.951,19.422 101.968,20.55 C101.986,21.677 102.396,23.027 102.88,23.55 C104.465,25.261 106.142,54.906 105.027,61.5 C104.468,64.8 104.009,70.843 104.006,74.929 C104,81.866 103.428,84.977 100.773,92.5 C100.19,94.15 99.53,97.525 99.305,100 C99.08,102.475 98.514,105.4 98.049,106.5 C97.583,107.6 96.64,109.99 95.954,111.811 C94.196,116.477 88.994,120.22 84.824,119.818 C80.189,119.372 80.2,117.186 84.864,111.542 C87.261,108.641 89.019,105.336 89.339,103.132 C89.628,101.134 90.605,96.575 91.51,93 C94.063,82.915 95.288,69.923 95.281,53 C95.274,33.897 94.464,28.998 89.952,20.764 C89.428,19.809 89,18.158 89,17.096 C89,16.035 88.092,13.047 86.982,10.457 C85.441,6.862 85.233,5.424 86.104,4.374 Z M82.452,79.035 C87.632,74.456 90.745,72.345 91.382,72.982 C92.438,74.038 90.905,77.623 88.069,80.733 C82.899,86.402 71.997,99.878 71.979,100.622 C71.952,101.702 64.588,107 63.113,107 C62.526,107 61.297,105.857 60.381,104.459 C58.108,100.99 59.556,98.09 65.656,93.893 C68.286,92.083 71.352,89.582 72.469,88.334 C73.586,87.086 78.079,82.902 82.452,79.035 Z M76.799,36.826 C80.847,33.901 85.516,33.317 88.25,35.392 C91.146,37.59 90.251,40.291 85.3,44.297 C79.892,48.674 76.705,48.855 73.803,44.951 C71.473,41.814 72.046,40.26 76.799,36.826 Z M81,58.943 C83.476,57.367 86.47,58.29 86.818,60.736 C87.302,64.147 79.504,71.907 74.847,72.649 C71.739,73.143 71.01,72.887 69.962,70.929 C68.862,68.874 69.039,68.385 71.615,66.347 C73.202,65.092 75.625,63.127 77,61.981 C78.375,60.836 80.175,59.469 81,58.943 Z M142.872,39.655 C142.118,40.565 140.037,41.921 138.25,42.668 C134.888,44.074 133.778,47 136.606,47 C138.787,47 146,41.177 146,39.416 C146,37.516 144.555,37.626 142.872,39.655 Z"/>
</svg>

