<svg xmlns="http://www.w3.org/2000/svg" width="300" height="300" viewBox="0 0 300 300" version="1.1">
  <defs/>
  <path d="M108.5,114.979 C118.206,112.928 125.662,116.869 124.616,123.5 C123.791,128.732 122.882,132.424 121.784,135 C117.381,145.338 117.315,145.476 112.662,154 C109.502,159.789 108.127,161.294 102.486,165.135 C100.576,166.436 99.011,167.786 99.007,168.135 C99.003,168.484 100.178,169.542 101.618,170.485 C103.897,171.979 104.169,172.706 103.713,176.1 C103.201,179.92 103.255,180 106.345,179.996 C108.08,179.994 116.25,179.098 124.5,178.005 C132.75,176.912 147.6,175.731 157.5,175.381 L175.5,174.745 L177.975,177.426 C180.31,179.956 180.363,180.26 178.912,182.804 C177.465,185.339 176.989,185.486 170.937,185.268 C153.919,184.656 114.624,188.326 106.649,191.273 L103.798,192.326 L104.374,199.913 C105.887,219.85 106.2,253.807 105.027,270.665 C104.344,280.474 103.836,291.087 103.898,294.25 L104.01,300 L93.822,300 L94.337,293.75 C96.959,261.913 97.21,212.626 94.807,201.3 C93.569,195.464 92.103,194.379 88.187,196.402 C86.709,197.166 83.475,198.306 81,198.937 C78.525,199.568 75.6,200.469 74.5,200.941 C71.719,202.134 49.678,209.034 48.71,209.016 C48.275,209.007 46.631,209.952 45.056,211.117 C43.482,212.281 40.462,213.587 38.347,214.018 C16.817,218.413 10.927,219.667 9.129,217.51 C8.416,216.654 8.347,215.26 8.2,213.312 C7.808,208.084 8.945,207.262 19.689,205.009 C46.622,199.362 65.726,194.188 79,188.946 C83.125,187.317 87.238,185.987 88.139,185.992 C91.7,186.009 93.78,182.722 94.304,176.25 C94.583,172.813 94.619,170 94.385,170 C94.152,170 91.192,171.125 87.808,172.5 C81.182,175.192 76.547,175.694 75.403,173.843 C75.01,173.207 74.726,170.619 74.773,168.093 C74.82,165.567 74.215,162.503 73.429,161.285 C72.643,160.067 71.971,158.492 71.936,157.785 C71.829,155.603 62.556,144.647 58.453,141.854 C52.51,137.809 51.3,130 56.617,130 C61.285,130 69.095,135.742 73.278,142.25 C74.282,143.811 75.951,145 77.14,145 C78.921,145 79.132,144.59 78.556,142.25 C76.621,134.394 76.661,134.12 80.38,129.581 C85.431,123.417 96.999,117.41 108.5,114.979 Z M79,42 C81.311,39.689 82.943,39.494 85.283,41.25 C86.594,42.233 87.008,44.526 87.224,52 C87.475,60.637 87.682,61.524 89.5,61.768 C90.6,61.915 92.776,61.004 94.336,59.743 L97.172,57.451 L95.875,51.172 C94.458,44.315 95.175,41.73 98.639,41.208 C101.043,40.846 105.078,45.012 106.468,49.291 L107.51,52.5 L115.801,52.137 C126.113,51.685 128,52.896 128,59.967 C128,65.224 125.58,70.813 121.057,76 C119.378,77.925 118.004,80.104 118.002,80.842 C118.001,81.581 117.105,83.322 116.011,84.713 C114.752,86.313 114.23,88.067 114.587,89.492 C115.033,91.267 114.449,92.176 111.826,93.793 C109.997,94.921 107.15,96.139 105.5,96.499 C103.011,97.042 96.875,99.797 81.764,107.155 C78.872,108.563 75.409,108.109 73.575,106.082 C70.847,103.068 71.943,99.798 76.465,97.455 C79.7,95.78 80.581,94.681 81.243,91.494 C81.689,89.344 81.832,87.004 81.559,86.293 C80.759,84.209 77.534,84.802 75,87.5 C73.708,88.875 72.152,90 71.541,90 C70.93,90 68.941,91.8 67.122,94 C63.592,98.267 61.427,98.838 57.154,96.626 C55.694,95.871 51.8,94.115 48.5,92.724 C33.759,86.512 31.059,85.499 30.439,83.75 C30.252,83.222 30.254,82.626 30.172,81.8 C29.991,79.985 29.193,77.778 28.398,76.895 C25.339,73.498 29.7,70.101 35,71.753 C40.268,73.394 48.049,78.538 48.632,80.763 C49.274,83.218 57.525,91 59.486,91 C61.329,91 63.646,87.972 65.607,83 C67.233,78.877 68.877,77.038 77.422,69.786 L80.345,67.307 L78.67,60.403 C76.356,50.867 76.47,44.53 79,42 Z M103.5,11.629 C106.091,9.601 107.91,9.609 110.171,11.655 C114.549,15.617 111.329,19.418 98.297,25.674 C93.054,28.191 87.624,30.25 86.23,30.25 C83.866,30.25 80.076,26.787 80.022,24.579 C79.984,22.977 83.24,20 85.03,20 C87.089,20 100.666,13.846 103.5,11.629 Z M110.87,62.989 C109.973,63.526 107.977,67.01 106.434,70.733 C104.891,74.455 103.304,77.95 102.907,78.5 C102.511,79.05 102.034,81.294 101.848,83.487 C101.589,86.537 101.888,87.547 103.121,87.785 C105.352,88.214 111,83.252 111,80.861 C111,78.68 113.298,73.869 116.242,69.886 C118.872,66.329 118.26,62.574 115,62.257 C113.625,62.123 111.766,62.452 110.87,62.989 Z M101.547,145.924 C101.233,146.431 98.619,147.626 95.738,148.577 C88.386,151.005 86.408,152.525 83.924,157.657 C80.847,164.013 82.243,164.817 90.136,161.238 C96.926,158.159 105,150.349 105,146.859 C105,144.944 102.561,144.283 101.547,145.924 Z M105.317,127.046 C99.562,128.184 90.679,132.682 87.372,136.133 C83.962,139.693 84.994,139.733 95.726,136.46 C103.858,133.979 104.126,133.961 107.094,135.71 C110.052,137.451 110.167,137.446 111.317,135.5 C112.816,132.966 113.752,128.875 113.206,127.25 C112.74,125.864 111.465,125.831 105.317,127.046 Z M90.607,74.582 C89.47,77.544 89.942,82 91.393,82 C93.076,82 94,79.845 94,75.918 C94,72.757 91.661,71.836 90.607,74.582 Z"/>
</svg>

