<svg xmlns="http://www.w3.org/2000/svg" width="300" height="300" viewBox="0 0 300 300" version="1.1">
  <defs/>
  <path d="M123.714,42.619 C124.107,42.226 126.017,42.039 127.958,42.202 C131.294,42.484 131.579,42.801 133.168,48 C134.093,51.025 135.221,55.3 135.675,57.5 C136.84,63.146 139.072,62.683 140.965,56.403 C143.481,48.056 148.611,43.579 155.357,43.843 C163.403,44.158 165.937,50.298 168.013,74.5 C168.579,81.1 169.502,91.119 170.063,96.764 C170.636,102.522 170.709,107.697 170.23,108.553 C169.761,109.392 169.708,112.874 170.113,116.289 C170.743,121.599 171.356,139.824 171.086,145.215 C170.944,148.04 167.32,149.375 163.776,147.907 C160.913,146.722 160.609,146.82 158.649,149.573 C157.503,151.183 153.963,155.238 150.783,158.585 C147.602,161.932 145,165.055 145,165.527 C145,166.733 137.063,174 135.745,174 C133.853,174 131.001,170.772 130.969,168.595 C130.952,167.443 129.829,164.7 128.474,162.5 C125.725,158.036 125.365,153.273 127.04,143.5 C128.234,136.53 128.567,78.345 127.463,69.531 C127.051,66.248 126.096,62.081 125.34,60.272 C124.585,58.463 124.235,55.911 124.564,54.601 C124.893,53.29 124.676,51.918 124.081,51.55 C122.881,50.808 122.591,43.743 123.714,42.619 Z M245.188,168.256 C244.617,161.371 246.759,161.148 250.062,167.75 C251.369,170.363 253.493,174.223 254.782,176.329 C259.268,183.66 264.567,202.143 267.23,219.75 C268.288,226.747 268.23,227.192 265.565,232.46 C262.195,239.12 261.746,239.507 254.483,242.006 C242.23,246.221 203.582,247.781 191.765,244.537 C188.869,243.742 185.375,242.778 184,242.395 C180.688,241.471 171.865,233.292 170.096,229.505 C168.409,225.893 167.207,217.82 166.448,205 C166.139,199.775 165.461,194.195 164.943,192.601 C164.424,191.006 163.993,187.631 163.985,185.101 C163.976,182.57 163.558,179.849 163.054,179.054 C161.971,177.341 163.248,174.502 165.489,173.643 C166.339,173.317 168.748,173.943 170.842,175.035 L174.65,177.02 L174.848,184.76 C175.232,199.806 177.976,220.05 180.454,226.122 C181.701,229.178 189.393,233.66 195.417,234.841 C205.593,236.835 231.846,236.33 242.003,233.946 C254.671,230.972 255.35,230.047 255.374,215.746 C255.396,202.778 252.572,188.2 248.28,179.127 C246.819,176.039 245.428,171.147 245.188,168.256 Z M69.844,47.75 C70.985,44.915 74.049,44.112 76.882,45.906 C78.86,47.159 80.17,56.534 78.789,59.563 C77.968,61.366 77.981,62.662 78.839,64.547 C79.478,65.948 80,69.548 80,72.547 C80,77.301 80.252,78 81.965,78 C84.468,78 91.001,72.319 90.996,70.146 C90.994,69.241 90.132,67.089 89.081,65.365 C86.711,61.478 87.842,60 93.187,60 C96.491,60 97.267,60.479 99.26,63.75 C103.973,71.484 104.495,72.979 103.202,75.048 C102.541,76.107 102,78.278 102,79.872 C102,81.467 101.328,84.06 100.506,85.636 C99.685,87.211 99.01,89.668 99.006,91.096 C98.998,94.447 96.329,99.777 93.9,101.295 C92.855,101.947 92,103.527 92,104.806 C92,106.085 91.562,107.95 91.026,108.951 C89.908,111.041 82.798,115 80.163,115 C79.187,115 76.858,116.129 74.988,117.509 C73.118,118.888 68.418,121.003 64.544,122.208 C60.67,123.413 56.768,125.003 55.874,125.742 C54.98,126.481 52.727,127.332 50.868,127.634 C46.44,128.353 41.702,124.373 42.185,120.338 C42.534,117.415 43.267,116.916 50.5,114.68 C62.738,110.897 74.859,106.263 79.031,103.772 C87.789,98.543 91.539,92.515 88.495,88.561 C87.019,86.643 86.973,86.643 84.251,88.581 C81.551,90.504 76.953,92.827 72,94.77 C70.625,95.31 68.281,96.239 66.79,96.836 C62.918,98.386 54.55,99.355 51.545,98.601 C45.519,97.088 41.233,78.814 45.912,74.58 C47.042,73.557 48.983,72.983 50.662,73.175 C53.453,73.495 53.505,73.618 53.792,80.662 C53.978,85.227 54.585,88.241 55.466,88.972 C57.438,90.608 63.651,88.687 67.932,85.117 L71.364,82.254 L70.046,69.377 C68.447,53.746 68.424,51.277 69.844,47.75 Z M85.536,170.14 C88.273,166.886 91.686,166.086 93.8,168.2 C95.726,170.126 95.208,173.328 92,179.34 C90.35,182.432 89,185.55 89,186.269 C89,186.988 87.668,189.134 86.041,191.038 C84.413,192.942 83.063,195.225 83.041,196.11 C83.018,196.996 81.875,199.379 80.5,201.405 C75.955,208.103 77.427,208.611 86.566,203.5 C90.009,201.575 93.313,200 93.91,200 C94.506,200 97.938,198.609 101.535,196.91 L108.075,193.82 L111.595,196.504 C113.971,198.317 115.015,199.856 114.807,201.242 C114.493,203.341 114.078,203.65 108,206.313 C95.686,211.708 92.334,213.221 91,213.989 C88.291,215.548 77.581,220.739 73.5,222.471 C71.3,223.404 68.825,224.51 68,224.928 C67.175,225.346 65.6,226.144 64.5,226.701 C63.4,227.258 61.081,228.454 59.346,229.357 C57.611,230.261 55.337,231 54.292,231 C53.247,231 50.866,232.575 49,234.5 C47.134,236.425 45.125,238 44.536,238 C43.947,238 41.897,239.054 39.982,240.342 C29.415,247.45 21.586,240.561 31.25,232.659 C36.035,228.746 48.625,222.012 51.169,222.005 C53.011,221.999 64,212.397 64,210.794 C64,210.24 62.65,208.083 61,206 C59.35,203.917 58,201.316 58,200.221 C58,199.126 56.916,197.52 55.591,196.651 C52.628,194.71 50.513,186.411 51.991,182.524 C53.502,178.55 54.539,179.031 60.555,186.5 C62.77,189.25 65.117,192.738 65.77,194.25 C67.768,198.879 70.255,197.723 74.843,190.031 C77.129,186.197 79,182.653 79,182.153 C79,181.654 79.621,180.73 80.379,180.1 C81.138,179.47 82.014,177.678 82.327,176.117 C82.639,174.556 84.083,171.866 85.536,170.14 Z M78.5,131.183 C80.7,130.031 84.38,129.069 86.677,129.044 C90.048,129.009 91.263,129.518 92.966,131.684 C95.093,134.388 95.058,139.153 92.895,141.45 C92.403,141.972 92,143.026 92,143.792 C92,145.089 91.143,146.373 85.25,153.911 C83.75,155.83 83,158.156 83,160.891 C83,164.193 82.301,165.768 79.422,168.954 C77.454,171.133 74.867,173.208 73.672,173.568 C72.477,173.927 70.038,175.609 68.251,177.306 L65.001,180.391 L62.251,178.333 C60.194,176.794 59.584,175.585 59.834,173.541 C60.044,171.824 59.423,170.007 58.163,168.654 C57.06,167.469 55.11,164.475 53.829,162 C51.991,158.448 50.412,156.994 46.338,155.098 C40.56,152.411 37.933,148.897 39.673,146.185 C41.188,143.821 49.714,143.992 54.331,146.479 L57.868,148.384 L63.184,143.281 C70.496,136.263 73.831,133.628 78.5,131.183 Z M150.246,56.92 C149.286,58.607 148.197,59.99 147.827,59.994 C147.456,59.997 145.753,61.179 144.041,62.619 C138.183,67.548 137.933,68.82 137.938,93.708 C137.941,115.401 138.033,116.475 140.035,118.443 L142.129,120.5 L144.315,117.85 C146.446,115.265 152.672,110.294 158.294,106.688 C160.992,104.958 161.066,104.684 160.465,98.698 C160.123,95.289 159.67,91.945 159.459,91.267 C158.877,89.396 156,90.944 156,93.128 C156,96.307 152.077,97.374 146.424,95.733 C142.249,94.52 141.451,93.891 141.178,91.591 C140.78,88.246 142.212,86.443 147.344,83.825 C150.254,82.34 152.35,81.96 155.16,82.41 C158.969,83.019 158.999,82.997 158.896,79.762 C158.838,77.968 158.051,71.553 157.146,65.507 C155.814,56.609 155.166,54.451 153.746,54.183 C152.631,53.972 151.356,54.97 150.246,56.92 Z M130.794,184.539 C131.911,183.422 134.743,184.064 136.138,185.75 C140.003,190.42 140.483,192.802 138.77,198.804 C136.067,208.278 134.014,213.195 131.525,216.153 C130.222,217.701 128.122,221.04 126.857,223.573 C125.587,226.116 123.312,228.821 121.778,229.615 C120.25,230.405 119,231.511 119,232.074 C119,232.636 117.763,234.197 116.25,235.543 C112.187,239.159 106,237.339 106,232.528 C106,229.639 110.909,222.901 114.344,221.074 C117.84,219.215 124.997,209.69 126.765,204.544 C127.528,202.32 128.851,199.025 129.704,197.223 C130.707,195.102 131.078,192.38 130.754,189.512 C130.479,187.074 130.497,184.836 130.794,184.539 Z M150.142,126.099 C144.39,131.693 143.595,132.147 140.553,131.576 L137.237,130.954 L136.255,138.727 C134.772,150.46 134.823,154.387 136.485,156.546 C137.952,158.452 138.056,158.426 140.744,155.471 C142.26,153.806 144.625,150.909 146,149.034 C150.424,143.002 155.123,139.121 158.387,138.803 C161.365,138.513 161.514,138.284 161.82,133.5 C161.997,130.75 161.857,126.588 161.509,124.25 C160.592,118.081 157.943,118.512 150.142,126.099 Z M72.176,147.907 C67.405,152.292 65.636,154.675 64.971,157.61 C64.424,160.019 64.452,161.627 65.044,161.833 C65.57,162.017 66,162.842 66,163.667 C66,166.766 68.655,164.045 75.275,154.16 C81.639,144.657 82.633,141.931 79.691,142.047 C79.036,142.073 75.654,144.71 72.176,147.907 Z"/>
</svg>

