<svg xmlns="http://www.w3.org/2000/svg" width="300" height="300" viewBox="0 0 300 300" version="1.1">
  <defs/>
  <path d="M157.507,121.58 C161.254,119.634 163.764,120.313 167.17,124.192 C170.306,127.763 170.914,133.724 169.834,150.288 C168.554,169.914 166.65,175.028 160.639,174.985 C157.708,174.964 156.977,174.292 153.247,168.184 C149.487,162.027 149.031,157.186 151.963,154.534 C154.674,152.08 157,153.238 157,157.042 C157,159.303 157.416,160.059 158.53,159.823 C159.72,159.572 160.168,157.502 160.546,150.5 C161.193,138.525 160.445,134 157.82,134 C155.766,134 152.042,136.447 146.906,141.173 L144,143.846 L143.847,175.173 C143.669,211.596 143.467,218.845 146.987,222.28 C148.032,223.3 149.405,223.983 151.205,224.995 C155.048,227.155 156.871,227.406 171.464,227.786 C189.911,228.266 216.914,226.021 226.962,223.172 C233.324,221.368 233.451,221.263 235.17,216.42 C236.527,212.599 236.926,208.148 236.958,196.493 C236.981,188.24 236.51,179.915 235.911,177.993 C235.312,176.072 234.438,171.575 233.969,168 C232.965,160.345 231.908,155.439 228.854,144.249 C227.15,138.004 226.884,135.716 227.759,134.841 C229.082,133.518 232,135.329 232,137.474 C232,138.149 233.125,140.818 234.5,143.404 C235.875,145.99 237,149.342 237,150.853 C237,152.364 237.504,154.104 238.12,154.72 C239.313,155.913 240.854,161.938 241.645,168.5 C241.91,170.7 242.401,173.175 242.736,174 C245.849,181.662 248.665,210.572 246.855,216.275 C244.929,222.341 241.615,228.138 239.057,229.916 C232.751,234.3 220.519,235.988 191.5,236.478 C181.05,236.654 170.925,236.856 169,236.926 C164.594,237.087 150.319,235.509 147,234.493 C143.652,233.469 139.16,229.19 137.56,225.5 C134.057,217.422 133.867,214.814 134.36,181.5 C135.004,137.872 134.774,139.354 141.842,133.268 C149.17,126.957 153.793,123.508 157.507,121.58 Z M124.062,25.884 C125.387,23.409 130.168,23.423 132.418,25.91 C133.878,27.522 134.064,29.196 133.617,36.66 C132.788,50.493 131.893,57.389 130.744,58.792 C129.99,59.712 130.033,60.433 130.892,61.292 C131.834,62.234 133.067,61.458 136.522,57.749 C140.151,53.853 141.566,53 144.401,53 C146.302,53 148.564,53.707 149.429,54.571 C151.187,56.33 151.535,60.551 150,61.5 C149.45,61.84 149,63.261 149,64.658 C149,66.055 148.388,68.616 147.641,70.349 C144.556,77.5 144,79.208 144,81.547 C144,82.896 143.633,84 143.185,84 C142.326,84 139,90.384 139,92.034 C139,94.018 142.354,92.88 147.841,89.033 C155.135,83.92 158.852,82.613 162.332,83.936 C163.799,84.494 165,85.707 165,86.631 C165,89.136 160.165,95 158.099,95 C157.11,95 154.414,96.366 152.108,98.037 C149.803,99.707 144.673,102.229 140.708,103.642 C136.744,105.055 133.098,106.588 132.606,107.05 C132.114,107.511 131.805,114.611 131.918,122.826 C132.08,134.471 131.781,138.589 130.563,141.504 C129.703,143.561 129,147.188 129,149.563 C129,151.938 128.55,154.16 128,154.5 C127.45,154.84 127,156.374 127,157.91 C127,159.446 125.875,162.818 124.5,165.404 C123.125,167.99 122,171.063 122,172.232 C122,174.796 120.316,180.457 118.4,184.331 C117.63,185.888 117,188.251 117,189.581 C117,190.911 116.55,192 116,192 C115.45,192 115,193.089 115,194.419 C115,195.749 114.249,198.337 113.331,200.169 C110.239,206.339 110,206.967 110,208.927 C110,210.002 109.55,211.16 109,211.5 C108.45,211.84 108,213.069 108,214.23 C108,215.392 107.405,217.053 106.678,217.921 C105.95,218.79 104.74,221.525 103.988,224 C103.236,226.475 101.608,230.75 100.371,233.5 C99.134,236.25 97.429,240.22 96.582,242.322 C95.346,245.388 94.592,246.081 92.771,245.822 C90.785,245.54 90.535,244.998 90.779,241.5 C91.031,237.874 92.767,233.218 96.615,225.846 C97.377,224.386 98,222.05 98,220.655 C98,219.26 98.45,217.84 99,217.5 C99.55,217.16 100,215.81 100,214.5 C100,213.19 100.45,211.84 101,211.5 C101.55,211.16 102,209.87 102,208.632 C102,207.395 102.661,205.509 103.468,204.441 C104.276,203.374 104.951,201.706 104.968,200.736 C104.986,199.766 105.413,198.191 105.917,197.236 C106.421,196.281 107.573,192.8 108.476,189.5 C109.378,186.2 110.541,182.719 111.059,181.764 C111.576,180.809 112,179.148 112,178.073 C112,176.998 112.45,175.84 113,175.5 C113.55,175.16 114,173.649 114,172.141 C114,170.633 114.518,168.882 115.151,168.249 C115.784,167.616 116.705,164.938 117.197,162.299 C119.408,150.443 119.805,147.949 120.91,139 C121.554,133.775 122.513,127.581 123.041,125.236 C124.876,117.075 124.34,113.954 120.5,110.436 C115.504,105.86 115.79,104.905 123.425,100.675 C127.533,98.398 130.803,93.938 130.927,90.441 C130.967,89.309 131.661,87.509 132.468,86.441 C133.276,85.374 133.951,83.577 133.968,82.45 C133.986,81.322 134.39,79.972 134.868,79.45 C135.99,78.221 137.077,72.41 136.325,71.658 C135.159,70.492 129.369,74.418 124.473,79.693 C120.825,83.624 118.976,84.928 117.728,84.449 C116.332,83.914 116.128,83.012 116.642,79.645 C116.989,77.365 117.6,75.05 118,74.5 C120.697,70.789 124.535,43.632 123.67,34.373 C123.315,30.566 123.481,26.97 124.062,25.884 Z M76.5,177.584 C82.152,175.569 83.518,175.681 86.694,178.419 C89.294,180.66 89.485,181.324 89.291,187.445 C89.162,191.518 88.433,195.151 87.391,196.915 C84.976,201.004 86.077,202.821 91.196,203.19 C94.699,203.442 95.5,203.865 95.5,205.46 C95.5,207.881 90.673,211.234 83.157,214.032 C80.046,215.191 75.394,217.908 72.821,220.069 C70.247,222.231 67.427,224 66.554,224 C65.682,224 64.197,222.384 63.255,220.409 L61.542,216.817 L65.521,213.095 C72.506,206.562 76.886,199.657 78.425,192.75 C79.726,186.913 74.006,190.284 67.168,199.385 C65.956,200.998 65,203.738 65,205.6 C65,207.864 64.383,209.26 63.072,209.961 C60.283,211.454 58.331,210.341 54.842,205.271 C50.7,199.25 46.125,195 43.786,195 C40.511,195 38.191,193.144 37.493,189.967 C36.544,185.646 38.307,183.999 43.872,184.007 C48.775,184.014 52.991,186.114 55.612,189.856 C57.642,192.754 59.625,192.553 61.195,189.289 C62.834,185.883 71.226,179.465 76.5,177.584 Z M65.2,51.2 C68.882,47.518 76.551,53.274 79.345,61.816 C81.21,67.517 81.493,72.577 80,73.5 C78.475,74.442 78.805,79.988 80.423,80.609 C82.463,81.392 83.157,83.838 81.969,86.059 C81.405,87.111 78.369,89.7 75.222,91.812 C72.075,93.924 67.475,97.003 65,98.655 C62.525,100.306 58.075,102.674 55.111,103.917 L49.721,106.176 L47.201,103.656 C44.845,101.299 44.781,100.983 46.219,98.788 C47.205,97.283 49.564,95.977 52.786,95.152 C56.081,94.307 59.31,92.493 62.157,89.887 C64.546,87.7 67.766,85.23 69.314,84.397 C71.258,83.351 72.055,82.205 71.893,80.691 C71.763,79.486 72.171,76.731 72.798,74.569 C73.792,71.142 73.68,70.218 71.922,67.373 C70.812,65.578 68.576,62.687 66.952,60.949 C63.853,57.631 63.078,53.322 65.2,51.2 Z M70.487,136.351 C77.847,128.87 78.057,128.741 80.006,130.506 C83.245,133.437 82.373,135.808 75.401,143.03 C63.708,155.142 59.096,157.195 56.903,151.266 C56.011,148.857 59.12,144 61.553,144 C62.327,144 66.347,140.558 70.487,136.351 Z M71.812,113.106 C74.144,110.919 74.895,110.164 75.687,110.117 C76.145,110.09 76.618,110.3 77.418,110.607 C80.483,111.783 78.579,117.212 73.027,123.127 C71.453,124.804 60.9,131 59.618,131 C59.222,131 58.236,129.415 57.426,127.477 C55.656,123.241 56.894,120.002 60.285,119.996 C62.904,119.992 67.222,117.411 71.812,113.106 Z"/>
</svg>

