<svg xmlns="http://www.w3.org/2000/svg" width="300" height="300" viewBox="0 0 300 300" version="1.1">
  <defs/>
  <path d="M155,180.472 C158.025,179.806 160.737,179.202 161.027,179.13 C161.794,178.941 166.071,181.911 169.25,184.84 C171.484,186.899 172,188.237 172,191.976 C172,194.603 171.142,198.26 170,200.5 C168.9,202.658 168,205.185 168,206.117 C168,207.048 166.425,209.696 164.5,212 C162.575,214.304 161,216.773 161,217.486 C161,218.2 158.975,221.036 156.5,223.789 C148.347,232.857 150.432,234.417 168.879,233.052 C176.878,232.46 180.608,231.759 181.877,230.611 C184.187,228.521 185.31,228.58 187.411,230.902 C188.57,232.182 189.029,234.062 188.816,236.652 C188.54,240.019 188.005,240.742 184.538,242.434 C181.115,244.104 178.058,244.396 162.038,244.577 C143.083,244.791 138.519,245.535 130.327,249.742 C126.612,251.65 124.985,250.793 122.939,245.852 C121.917,243.385 121.911,242.372 122.91,240.773 C124.362,238.448 123.59,230.735 121.281,224.5 C117.594,214.543 111.395,203.669 108,201.202 C103.434,197.885 100.011,193.904 100.005,191.905 C99.997,189.489 103.414,186.853 105.605,187.583 C112.949,190.029 118.037,194.259 121.746,201 C122.805,202.925 124.227,204.5 124.905,204.5 C125.583,204.5 126.954,202.091 127.95,199.146 C128.947,196.202 130.604,192.968 131.631,191.96 C134.831,188.823 149.233,181.743 155,180.472 Z M57.602,191.945 C61.777,189.814 65.658,190.03 69.75,192.621 C71.72,193.869 72,194.885 72,200.787 C72,204.936 71.264,209.541 70.086,212.764 C67.8,219.018 68.518,219.352 76.085,215.551 C80.447,213.36 81.12,213.263 82.48,214.623 C83.316,215.459 84,216.5 84,216.937 C84,218.423 75.652,228 74.357,228 C73.647,228 70.787,230.025 68,232.5 C65.213,234.975 62.337,237 61.607,237 C60.878,237 58.237,238.8 55.737,241 C53.238,243.2 50.544,245 49.752,245 C47.428,245 44.961,241.546 44.306,237.374 C43.971,235.243 43.069,233.129 42.302,232.675 C41.536,232.221 39.876,229.521 38.615,226.675 C36.095,220.988 27.695,212 24.9,212 C23.927,212 21.913,212.463 20.425,213.028 C16.652,214.463 14,211.959 14,206.96 C14,204.099 14.574,202.854 16.465,201.615 C21.79,198.126 31.748,200.643 36.577,206.699 C38.464,209.065 38.985,209.257 40.382,208.098 C41.272,207.359 42.001,205.798 42.001,204.628 C42.003,202.231 51.351,192.481 52.792,193.371 C53.294,193.681 55.458,193.04 57.602,191.945 Z M134.058,87.43 C135.521,85.667 139.423,85.561 140.702,87.25 C142.54,89.675 144,96.809 144,103.366 C144,109.377 144.192,110 146.04,110 C149.416,110 155.794,106.198 157.191,103.352 C160.492,96.626 166,98.691 166,106.655 C166,112.029 164.129,114.079 155.641,118.008 C146.994,122.01 144,124.553 144,127.894 C144,129.407 143.382,132.636 142.626,135.072 C141.87,137.507 140.709,142.403 140.045,145.952 C139.294,149.964 137.924,153.49 136.419,155.278 C135.089,156.86 134,158.8 134,159.59 C134,160.381 133.606,161.809 133.125,162.764 C132.644,163.719 131.242,166.525 130.01,169 C125.054,178.956 123.847,180.749 121.325,181.898 C116.124,184.268 116.238,182.22 122.014,169.5 C125.066,162.78 128,154.048 128,151.685 C128,150.453 128.617,148.557 129.371,147.473 C130.577,145.737 133,136.665 133,133.883 C133,132.52 129.121,133.79 126.115,136.138 C124.803,137.162 122.946,138 121.988,138 C121.029,138 119.685,138.675 119,139.5 C118.315,140.325 116.56,141 115.1,141 C113.64,141 111.557,141.59 110.473,142.31 C107.215,144.474 100.427,146.27 98.19,145.56 C96.061,144.885 93,139.939 93,137.175 C93,133.895 96.024,132.042 100.399,132.641 C105.219,133.302 113.662,131.089 117.939,128.044 C119.517,126.92 121.096,126 121.447,126 C123.443,126 133.062,117.602 133.622,115.371 C133.979,113.949 133.956,107.402 133.571,100.823 C133.064,92.156 133.198,88.466 134.058,87.43 Z M47.667,50.667 C48.033,50.3 50.504,50 53.156,50 C57.904,50 58.038,50.088 61.698,55.601 C66.41,62.697 67.69,70.815 64.835,75.5 C63.83,77.15 63.006,78.754 63.004,79.063 C63.002,79.373 64.589,80.25 66.531,81.012 C71.466,82.949 72.122,86.207 68.375,90.17 C63.636,95.181 48.025,105 44.798,105 C44.171,105 42.947,105.613 42.079,106.363 C39.84,108.295 34.519,109.119 33.146,107.746 C31.275,105.875 31.838,100.48 34.227,97.385 C38.125,92.334 41,90.685 41,93.5 C41,94.325 41.428,95 41.952,95 C43.08,95 55.701,86.293 56.539,84.937 C57.542,83.315 54.923,83.918 52.035,85.975 C50.509,87.061 48.077,88.4 46.631,88.95 C42.408,90.556 43.386,88.203 49.286,82.558 C56.261,75.884 57.739,72.36 55.523,67.689 C54.615,65.776 52.326,62.404 50.436,60.196 C47.27,56.498 46.047,52.287 47.667,50.667 Z M152.323,193.291 C142.149,198.672 140.075,200.142 138.058,203.406 C136.879,205.314 134.253,208.207 132.223,209.836 L128.533,212.797 L129.858,217.148 C130.587,219.542 131.479,223.703 131.842,226.397 C132.926,234.461 134.912,234.636 141.75,227.269 C149.366,219.064 159.825,201.674 160.163,196.653 C160.328,194.205 159.904,192.551 158.959,191.953 C158.322,191.551 157.912,191.28 157.466,191.194 C156.579,191.024 155.551,191.584 152.323,193.291 Z M140.871,58.25 C142.684,55.913 144.835,54 145.65,54 C151.787,54 152.993,61.2 147.931,67.612 C142.764,74.158 126.239,89 124.118,89 C123.559,89 121.934,90.531 120.506,92.403 C117.973,95.725 113.881,97.663 111.938,96.462 C109.725,95.094 118.58,82.793 132.426,68 C135.257,64.975 139.058,60.587 140.871,58.25 Z M54.5,122.246 C60.514,117.871 65.77,120.085 64.569,126.487 C64.078,129.099 63.091,130.409 60.705,131.614 C58.942,132.505 56.6,134.005 55.5,134.948 C54.4,135.891 51.763,137.652 49.64,138.862 C45.33,141.319 44.003,140.839 41.449,135.902 C40.397,133.867 40.254,131.965 40.895,128.533 C41.37,125.989 42.019,123.648 42.336,123.33 C43.615,122.052 46,124.095 46,126.469 C46,129.6 46.849,129.66 49.468,126.714 C50.586,125.457 52.85,123.446 54.5,122.246 Z M52.321,151.812 C55.169,148.3 57.98,148.326 61.4,151.895 C63.946,154.553 64.063,155.002 62.822,157.37 C60.558,161.691 44.824,170.245 42.164,168.601 C40.606,167.638 39.624,159.976 40.896,158.704 C41.503,158.097 42,156.595 42,155.367 C42,152.574 45.124,151.448 48.008,153.202 C49.906,154.356 50.383,154.202 52.321,151.812 Z M56.25,205.208 C55.013,205.812 54,206.675 54,207.127 C54,207.579 52.732,208.604 51.183,209.405 C47.481,211.32 45.15,217.838 46.84,221.548 C47.478,222.948 48,224.973 48,226.047 C48,229.744 51.481,228.107 54.461,223.009 C55.032,222.032 56.802,219.118 58.393,216.534 C61.628,211.281 62.493,204.718 60,204.339 C59.175,204.214 57.487,204.605 56.25,205.208 Z"/>
</svg>

