<svg xmlns="http://www.w3.org/2000/svg" width="300" height="300" viewBox="0 0 300 300" version="1.1">
  <defs/>
  <path d="M112.667,46.667 C114.288,45.046 120.704,46.058 122.701,48.25 C126.398,52.309 127,54.716 127,65.434 C127,75.403 127.115,76 129.04,76 C130.801,76 136.499,72.743 138,70.879 C138.275,70.537 141.425,68.793 145,67.002 C148.575,65.212 152.694,62.904 154.154,61.873 C157.873,59.249 161.376,59.466 162.957,62.419 C164.08,64.519 163.984,65.212 162.223,67.669 C159.035,72.12 155.879,74.527 150.76,76.412 C145.275,78.432 144.044,79.828 146.297,81.475 C147.555,82.395 147.979,85.009 148.268,93.625 C148.47,99.662 148.983,105.163 149.407,105.849 C149.83,106.535 150.086,109.887 149.974,113.298 C149.529,126.838 149.871,130 151.777,130 C152.755,130 154.443,129.4 155.527,128.666 C156.612,127.932 159.75,126.736 162.5,126.007 C165.25,125.279 169.525,123.684 172,122.462 C174.475,121.24 180.325,119.043 185,117.579 C189.675,116.115 194.964,114.456 196.754,113.893 C200.68,112.656 203.076,113.29 204.778,116.016 C205.891,117.798 205.664,118.535 202.97,121.888 C200.145,125.403 199.375,125.77 193.695,126.31 C185.079,127.128 155.757,137.091 152.253,140.391 C149.877,142.629 148.88,169.377 148.447,242.5 C148.271,272.2 148.098,297.288 148.063,298.25 C148.012,299.679 147.067,300 142.903,300 L137.807,300 L138.441,294.75 C139.903,282.657 140.081,275.829 139.245,264 C138.759,257.125 138.691,241.375 139.095,229 C139.499,216.625 140.155,193.122 140.554,176.772 C141.236,148.731 141.176,147.005 139.484,146.356 C138.43,145.951 136.004,146.508 133.595,147.708 C127.944,150.525 119.231,154.179 108,158.444 C102.775,160.428 97.306,162.715 95.846,163.526 C92.396,165.442 90.088,165.39 87.829,163.345 C85.735,161.45 85.399,156.738 87.25,155.22 C87.938,154.657 90.525,153.667 93,153.021 C100.121,151.162 118.098,144.404 129.784,139.192 L140.5,134.414 L140.829,125.957 C141.011,121.306 140.595,114.35 139.906,110.5 C139.216,106.65 138.712,99.112 138.784,93.75 C138.915,84.103 138.891,84 136.53,84 C135.217,84 133.548,84.592 132.821,85.317 C132.095,86.041 130.285,87.428 128.801,88.399 C127.315,89.37 125.589,91.813 124.963,93.832 C124.337,95.849 122.965,99.408 121.913,101.739 C120.861,104.071 120,106.433 120,106.989 C120,107.545 119.662,108.003 119.25,108.006 C118.838,108.01 117.733,109.36 116.797,111.006 C113.586,116.649 110.922,113.667 112.926,106.676 C113.584,104.379 114.585,101.15 115.149,99.5 C117.836,91.639 119.119,71.284 117.481,62.5 C117.071,60.3 115.67,57.228 114.368,55.673 C112.129,53.001 111.208,48.125 112.667,46.667 Z M63,178.958 C73.478,173.36 79.093,179.977 76.88,195.312 C75.873,202.285 75.946,203.485 77.562,206.485 C79.902,210.831 79.326,211.518 67.845,218.089 C58.194,223.611 54.747,223.992 53.047,219.722 C52.561,218.5 51.901,216.825 51.581,216 C50.182,212.389 44.055,205.39 39.612,202.329 C35.96,199.812 33.724,199 30.448,199 C25.626,199 23,196.569 23,192.106 C23,188.034 25.705,186 31.12,186 C35.877,186 37.775,187.077 44.871,193.8 C46.96,195.78 49.075,194.858 51.095,191.087 C53.544,186.516 58.715,181.248 63,178.958 Z M60.333,54.574 C61.029,52.76 64.233,52.519 67.119,54.064 C68.212,54.649 70.657,57.552 72.553,60.516 C76.626,66.882 77.027,71.802 73.894,76.942 C71.923,80.175 71.894,80.55 73.405,83.108 C76.25,87.925 72.117,93.501 60.559,100.435 C51.939,105.607 47,105.02 47,98.823 C47,96.889 47.834,95.51 49.75,94.28 C51.263,93.308 54.75,90.825 57.5,88.761 C60.25,86.697 63.476,85.007 64.668,85.004 C65.861,85.002 67.548,84.727 68.418,84.393 C70.217,83.703 70.546,80.456 68.919,79.45 C68.324,79.082 68.108,77.704 68.439,76.386 C69.026,74.047 67.624,70.931 63.99,66.5 C61.812,63.844 59.575,56.55 60.333,54.574 Z M63.449,131.847 C68.221,126.666 69.124,126.24 70.872,128.345 C74.615,132.855 72.19,139.85 65.286,144.455 C63.204,145.845 60.319,147.931 58.875,149.093 C55.567,151.753 52.546,150.478 51.659,146.046 C50.84,141.948 51.459,140.746 55.517,138.561 C57.424,137.534 60.994,134.512 63.449,131.847 Z M63.929,109.757 C67.125,107.589 67.273,107.591 70.04,109.831 C73.465,112.605 72.042,115.968 65.264,121.12 C55.623,128.447 53.096,129.302 49.829,126.345 C46.241,123.098 48.527,117 53.332,117 C54.535,117 56.834,115.763 58.439,114.25 C60.044,112.737 62.515,110.715 63.929,109.757 Z M62.363,192.75 C61.437,194.262 59.604,197.132 58.29,199.126 C55.766,202.955 55.869,206.816 58.554,209.045 C60.983,211.061 61.742,209.981 67.476,196.337 C68.438,194.047 68.923,191.685 68.554,191.087 C67.321,189.093 64.066,189.968 62.363,192.75 Z"/>
</svg>

