<svg xmlns="http://www.w3.org/2000/svg" width="300" height="300" viewBox="0 0 300 300" version="1.1">
  <defs/>
  <path d="M157.718,22.759 C158.594,21.791 159.612,21 159.981,21 C161.161,21 164.747,25.423 165.452,27.75 C166.204,30.23 167.194,30.502 170,29 C172.711,27.549 176.83,29.422 178.063,32.666 C179.431,36.263 177.77,40.175 173.489,43.44 L170.189,45.957 L170.295,59.729 C170.358,67.95 170.401,71.312 169.498,74.398 C168.848,76.62 167.708,78.698 165.731,82.345 C164.197,85.175 160.028,88 157.386,88 C156.624,88 156,88.378 156,88.839 C156,89.698 151.631,92 150.001,92 C149.503,92 147.672,89.931 145.932,87.401 C143.23,83.474 142.937,82.485 143.928,80.634 C144.625,79.332 144.971,75.082 144.794,69.994 C144.461,60.405 143.285,59.13 138.539,63.213 L135.847,65.528 L137.016,76.514 C137.659,82.556 138.256,92.443 138.343,98.485 C138.528,111.456 138.851,111.755 147,106.502 C153.808,102.113 161.79,99.038 169,98.026 C175.444,97.122 178.272,97.959 180.558,101.448 C182.914,105.045 181.779,107.23 177.751,106.849 C175.963,106.68 171.321,107.556 167.435,108.797 L160.37,111.052 L160.187,118.776 C159.933,129.485 160.574,132 163.556,132 C165.02,132 166.602,131.011 167.617,129.461 C168.532,128.065 172.382,125.027 176.173,122.711 C179.963,120.395 184.171,117.825 185.524,117 C188.589,115.13 191.068,116.424 192.147,120.455 C192.764,122.764 192.39,123.764 190.025,126.129 C188.446,127.708 186.499,129 185.699,129 C184.899,129 183.662,129.703 182.949,130.562 C182.236,131.421 179.368,133.66 176.576,135.537 C169.231,140.475 162,147.486 162,149.669 C162,150.706 162.727,152.592 163.615,153.86 C165.104,155.986 165.099,156.455 163.552,159.885 C161.509,164.416 161.777,172.913 164,174.087 C164.825,174.523 168.875,176.489 173,178.455 C177.125,180.422 183.65,183.905 187.5,186.195 C191.35,188.486 196.3,191.313 198.5,192.478 C200.7,193.643 205.729,196.488 209.674,198.798 C213.62,201.109 217.224,203 217.682,203 C218.734,203 243.936,215.702 245.562,217.052 C248.496,219.487 263.679,228.129 265.97,228.667 C269.253,229.44 273,232.869 273,235.102 C273,236.719 268.658,241 267.018,241 C266.626,241 265.268,240.1 264,239 C262.732,237.9 260.879,237 259.882,237 C258.885,237 254.172,234.413 249.408,231.25 C244.644,228.088 239.678,224.938 238.373,224.25 C237.068,223.562 234.762,222.339 233.25,221.532 C231.737,220.724 227.125,218.322 223,216.194 C218.875,214.065 211.225,209.864 206,206.857 C200.775,203.85 192.675,199.493 188,197.176 C177.317,191.881 171.918,189.103 170,187.915 C161.46,182.624 161.246,183.074 160.459,208 C159.973,223.401 159.768,228.594 159.968,233.772 C160.101,237.201 160.412,240.624 160.938,247 C162.919,271.014 162.618,272.288 155.088,271.798 L150.5,271.5 L150.845,236 C151.034,216.475 151.571,197.35 152.037,193.5 C152.503,189.65 152.508,186.12 152.048,185.656 C150.485,184.078 147.511,185.517 146.003,188.582 C145.176,190.262 141.661,194.982 138.191,199.069 C134.721,203.156 130.799,207.85 129.476,209.5 C128.152,211.15 125.479,214.355 123.535,216.621 C121.591,218.888 119.985,221.363 119.967,222.121 C119.932,223.584 111.284,231.829 106.406,235.052 C104.808,236.107 102.747,237.516 101.828,238.181 C99.631,239.771 95.745,238.066 93.397,234.483 C92.011,232.367 91.859,231.004 92.594,227.262 C93.092,224.725 94.07,222.463 94.766,222.236 C95.462,222.009 97.388,223.274 99.045,225.049 C100.703,226.823 102.191,228.1 102.353,227.887 C102.515,227.674 103.7,225.925 104.987,224 C107.246,220.621 110.686,216.625 116.071,211.125 C117.485,209.681 119.06,207.752 119.571,206.838 C120.082,205.924 122.09,203.449 124.033,201.338 C125.976,199.227 128.662,195.7 130.001,193.5 C131.34,191.3 133.879,187.598 135.643,185.272 C137.406,182.947 140.221,178.344 141.898,175.044 C143.575,171.743 146.084,167.242 147.474,165.041 C148.863,162.841 150,160.382 150,159.579 C150,158.775 150.45,157.84 151,157.5 C152.064,156.842 152.409,153 151.404,153 C150.127,153 144.436,156.585 143.29,158.112 C142.624,158.999 140.599,160.323 138.79,161.054 C136.98,161.785 133.925,163.382 132,164.603 C130.075,165.824 126.025,167.812 123,169.022 C119.975,170.232 114.8,172.474 111.5,174.005 C108.2,175.535 104.375,177.097 103,177.474 C101.625,177.852 98.485,179.076 96.021,180.193 C90.198,182.835 87.098,181.853 85.156,176.75 C83.37,172.057 84.742,170 89.662,170 C93.126,170 113.357,162.887 121.21,158.908 C123.57,157.712 127.075,155.544 129,154.089 C130.925,152.635 134.075,150.662 136,149.705 C142.038,146.702 150.326,141.168 151.246,139.524 C151.77,138.588 151.669,134.911 150.996,130.476 C150.373,126.367 150.15,122.103 150.499,121.002 C151.049,119.27 150.687,119.005 147.817,119.035 C145.993,119.055 143.375,119.714 142,120.5 C137.888,122.85 133.714,122.355 130.646,119.153 L127.919,116.306 L128.607,101.733 C129.439,84.135 127.858,72 124.735,72 C123.709,72 121.942,72.496 120.809,73.102 C119.271,73.925 118.149,73.883 116.375,72.933 C112.847,71.045 113.307,67.294 117.606,62.891 C119.589,60.86 121.511,57.734 121.877,55.945 C122.819,51.34 125.195,50.093 128.88,52.27 C132.834,54.605 134.047,54.465 137.7,51.25 L140.825,48.5 L140.043,39 C139.226,29.081 139.748,27 143.05,27 C146.455,27 149,31.737 149,38.076 C149,41.269 149.412,44.137 149.915,44.448 C150.419,44.759 152.331,43.795 154.165,42.307 C155.999,40.818 157.61,39.543 157.744,39.473 C157.879,39.402 157.57,36.009 157.058,31.931 C156.271,25.663 156.373,24.246 157.718,22.759 Z M67.159,173.951 C72.171,172.699 77.246,173.628 79.328,176.177 C80.795,177.973 81.048,179.511 80.605,183.958 C80.301,187.006 79.703,193.269 79.276,197.876 L78.5,206.253 L72.192,212.054 C66.338,217.438 65.618,217.814 62.192,217.281 C56.595,216.409 54,215.213 54,213.505 C54,208.58 38.485,193 33.58,193 C31.57,193 30.576,192.178 29.266,189.433 C27.737,186.224 27.716,185.595 29.064,183.183 C31.298,179.185 34.809,179.263 41.364,183.456 C44.433,185.419 47.436,187.947 48.039,189.073 C48.736,190.376 49.925,191.008 51.304,190.811 C52.958,190.574 53.619,189.597 54.087,186.699 C54.425,184.609 55.106,182.582 55.601,182.196 C56.095,181.81 58.146,179.985 60.159,178.14 C62.171,176.294 65.321,174.409 67.159,173.951 Z M57.539,34.957 C58.773,33.593 60.611,33 63.604,33 C67.158,33 68.424,33.561 70.945,36.25 C72.62,38.038 73.993,40.11 73.995,40.856 C73.998,41.601 75.177,43.61 76.616,45.32 C79.047,48.209 79.185,48.89 78.567,54.921 C78.201,58.492 77.464,61.941 76.928,62.587 C76.385,63.241 76.222,66.136 76.56,69.13 L77.165,74.5 L71.333,80.087 C64.544,86.589 48.23,96.63 46.791,95.191 C46.269,94.669 45.608,92.494 45.321,90.358 C44.818,86.609 45.022,86.282 51.148,80.987 C60.564,72.847 66,67.032 66,65.099 C66,64.155 66.661,62.509 67.468,61.441 C70.837,56.987 67.341,49.683 60.83,47.574 C57.899,46.624 57.416,45.948 56.642,41.707 C55.913,37.712 56.063,36.588 57.539,34.957 Z M63.445,106.5 C68.04,101.215 71.58,100.478 72.612,104.592 C73.441,107.894 70.02,114.964 65.926,118.409 C60.556,122.927 53.555,122.774 51.045,118.084 C49.618,115.418 53.232,111 56.839,111 C58.785,111 60.618,109.751 63.445,106.5 Z M61.758,134.072 C62.641,132.618 64.048,132 66.473,132 C70.479,132 72,134.013 72,139.316 C72,142.067 71.307,143.291 68.567,145.381 C66.678,146.822 64.738,148 64.255,148 C63.772,148 62.416,148.895 61.242,149.989 C57.407,153.562 54,149.983 54,142.384 C54,139.4 54.468,138.7 57.25,137.521 C59.038,136.764 61.066,135.212 61.758,134.072 Z M154.572,56.25 C153.443,57.973 153.315,59.437 154.025,62.5 C154.535,64.7 154.963,68.202 154.976,70.281 C155,74.088 157.14,76.26 159.017,74.383 C160.373,73.025 162.345,59.511 161.612,56.592 C160.769,53.231 156.68,53.032 154.572,56.25 Z M63.361,191.049 C60.137,194.376 57.345,197.54 57.156,198.081 C56.573,199.748 59.943,204 61.847,204 C64.4,204 72.645,189.124 71.601,186.402 C70.7,184.055 69.459,184.755 63.361,191.049 Z"/>
</svg>

