<svg xmlns="http://www.w3.org/2000/svg" width="300" height="300" viewBox="0 0 300 300" version="1.1">
  <defs/>
  <path d="M138.973,34.57 C139.511,33.156 140.642,32 141.488,32 C143.288,32 146.635,38.845 147.505,44.303 C148.297,49.278 150.386,49.962 154.053,46.449 L156.987,43.639 L159.493,45.994 C161.015,47.423 162,49.452 162,51.157 C162,53.509 161.216,54.363 157.187,56.405 C150.668,59.709 149.388,61.36 150.853,64.577 C151.484,65.961 152,69.233 152,71.847 C152,74.461 152.528,77.128 153.173,77.773 C154.07,78.67 154.06,79.573 153.13,81.613 C152.066,83.949 152.191,84.574 154.132,86.64 C156.676,89.348 157.958,89.463 163.5,87.482 C165.7,86.696 170.004,85.767 173.064,85.418 C178.414,84.808 178.77,84.917 182.314,88.26 C185.838,91.584 186,92.026 186,98.334 C186,105.702 184.347,110.254 179.389,116.547 C177.189,119.338 176.335,121.354 176.635,123.047 C177.286,126.714 173.873,131.333 167.126,135.915 C163.825,138.156 160.816,140.489 160.439,141.099 C160.062,141.709 159.658,150.692 159.541,161.06 C159.381,175.256 159.291,179.348 161.099,180.526 C161.874,181.031 162.999,181 164.617,181 C165.966,181 168.125,181.691 169.415,182.536 C170.704,183.381 174.681,184.908 178.251,185.929 C181.821,186.95 185.813,188.448 187.121,189.258 C188.43,190.067 191.75,191.324 194.5,192.05 C197.25,192.777 200.85,194.186 202.5,195.182 C204.15,196.178 206.175,197 207,197.009 C207.825,197.018 210.975,198.297 214,199.852 C224.746,205.375 231.55,208.733 235.273,210.35 C241.319,212.977 242.643,219.838 237.552,222.158 C237.057,222.384 236.672,222.566 236.266,222.653 C234.697,222.987 232.821,221.884 223.094,216.273 C220.017,214.498 215.7,212.122 213.5,210.993 C211.3,209.863 208.825,208.54 208,208.053 C205.093,206.335 199.181,204 197.74,204 C196.938,204 193.752,202.65 190.66,201 C187.568,199.35 184.176,198 183.124,198 C181.414,198 170.054,193.66 164.317,190.816 C160.023,188.687 159.013,190.237 158.842,199.219 C158.756,203.773 158.744,208.175 158.817,209 C158.89,209.825 158.529,212.75 158.016,215.5 C157.504,218.25 156.827,234 156.514,250.5 C156.2,267 155.512,283.223 154.984,286.551 C154.362,290.478 154.372,293.81 155.013,296.044 C155.556,297.938 156,299.602 156,299.743 C156,299.885 153.3,300 150,300 L144,300 L144,291.45 C144,285.903 144.514,281.907 145.463,280.072 C146.561,277.949 147.156,270.537 147.849,250.372 C148.357,235.592 148.772,222.6 148.772,221.5 C148.772,220.4 149.119,212.188 149.542,203.25 C150.219,188.978 150.126,187 148.779,187 C147.05,187 145.482,188.657 143.118,192.984 C142.228,194.613 138.237,200.713 134.25,206.541 C130.262,212.369 127,217.419 127,217.764 C127,218.108 125.854,219.587 124.452,221.05 C123.051,222.512 121.097,225.237 120.109,227.104 C118.203,230.707 110.116,235.935 106.385,235.977 C103.493,236.009 99,232.295 99,229.872 C99,228.437 100.481,227.235 104.369,225.515 C109.638,223.185 114.372,218.591 117.074,213.185 C117.812,211.708 119.787,208.7 121.463,206.5 C123.14,204.3 126.269,199.8 128.419,196.5 C130.568,193.2 134.002,188.025 136.051,185 C138.1,181.975 141.206,176.688 142.952,173.251 C144.698,169.814 146.999,166.536 148.064,165.966 C149.728,165.075 150,163.82 150,157.024 C150,152.676 149.58,148.858 149.066,148.541 C147.669,147.678 135.359,153.801 130.61,157.721 C127.337,160.423 122.337,160.516 120.704,157.905 C119.291,155.647 120.634,151.275 123.673,148.236 C125.362,146.547 125.958,145.23 125.383,144.456 C120.827,138.321 114,127.879 114,127.045 C114,126.47 111.311,123.311 108.025,120.025 C99.21,111.21 98.874,106 107.122,106 C110.997,106 112.825,107.202 115.949,111.804 C118.494,115.555 119.953,115.175 126.826,108.97 C130.497,105.656 135.975,101.454 139,99.633 L144.5,96.321 L144.273,89.41 C143.94,79.275 141.869,68.164 140.194,67.521 C138.599,66.909 133.32,69.884 130.529,72.968 C128.092,75.661 126.578,75.531 124.562,72.454 C123.451,70.758 122.995,68.343 123.197,65.217 L123.5,60.526 L131,57.282 C137.435,54.499 138.462,53.717 138.235,51.769 C137.641,46.684 138.058,36.978 138.973,34.57 Z M62.953,192.945 C68.233,191.342 71.691,191.909 74.894,194.901 C78.363,198.142 78.699,200.391 76.5,205.654 C75.675,207.629 75,210.034 75,211 C75,211.965 75.675,213.315 76.5,214 C80.028,216.928 77.326,222.585 71.879,223.674 C70.296,223.991 69,224.829 69,225.537 C69,226.245 66.251,228.7 62.892,230.993 C55.522,236.024 53.281,235.815 49.639,229.756 C44.472,221.161 34.57,212.64 28.661,211.705 C26.549,211.37 24.187,210.57 23.411,209.926 C21.688,208.496 21.552,202.848 23.2,201.2 C24.924,199.476 32.495,199.686 34,201.5 C34.685,202.325 35.664,203 36.175,203 C36.687,203 38.731,204.104 40.717,205.454 L44.329,207.908 L48.331,203.361 C52.514,198.61 58.618,194.261 62.953,192.945 Z M54.667,49.667 C55.033,49.3 57.243,49 59.578,49 C63.09,49 64.269,49.531 66.411,52.077 C67.835,53.769 69,55.742 69,56.462 C69,57.182 69.672,59.06 70.494,60.636 C72.687,64.84 72.427,73.788 69.996,77.774 C67.54,81.802 67.396,85 69.671,85 C72.289,85 75,88.046 75,90.987 C75,93.084 73.755,94.588 69.25,97.932 C61.949,103.352 58.201,105.25 49.5,107.934 L42.5,110.093 L40.75,107.936 C37.512,103.945 38.959,101.811 47.5,97.982 C50.25,96.75 53.978,94.449 55.785,92.87 C57.591,91.292 59.691,90 60.451,90 C62.186,90 62.964,87.971 61.985,86 C61.576,85.175 61.666,81.38 62.186,77.568 C63.326,69.215 61.648,63.595 56.985,60.147 C54.582,58.37 54,57.199 54,54.137 C54,52.045 54.3,50.033 54.667,49.667 Z M60.904,149.308 C64.263,147.706 65.647,147.026 66.79,147.31 C67.631,147.52 68.342,148.252 69.614,149.523 C72.945,152.854 72.406,154.738 66.995,158.681 C64.523,160.483 60.475,163.555 58,165.507 C50.252,171.618 45.759,171.331 45.192,164.689 C44.958,161.942 45.41,160.652 47.085,159.29 C48.295,158.305 50.866,156.15 52.797,154.5 C54.728,152.85 58.377,150.513 60.904,149.308 Z M140.863,109.296 C138.862,110.508 134.752,112.965 131.73,114.756 C124.551,119.01 123.251,120.571 124.81,123.068 C125.465,124.116 126,125.634 126,126.441 C126,127.248 127.125,129.034 128.5,130.409 C131.363,133.273 131.809,138.347 129.468,141.441 C127.521,144.015 127.616,145 129.813,145 C131.75,145 136.025,140.922 137.887,137.298 C138.794,135.534 138.705,134.839 137.438,133.798 C133.049,130.195 132.158,128.895 131.531,125.181 C130.628,119.84 132.18,117 136,117 C137.906,117 139.304,117.699 140,119 C141.384,121.586 144.626,121.567 146.018,118.966 C147.317,116.54 146.925,107.776 145.5,107.374 C144.95,107.219 142.863,108.084 140.863,109.296 Z M61.962,120.994 C66.36,116.072 68.21,115.213 70.832,116.875 C71.807,117.493 71.977,118.972 71.464,122.39 C70.876,126.312 69.881,127.922 65.25,132.443 C56.132,141.346 49.797,140.975 49.597,131.526 C49.488,126.365 50.977,124.703 55,125.496 C57.032,125.897 58.335,125.054 61.962,120.994 Z M168.5,97.28 C167.4,97.951 164.475,99.175 162,100 C158.314,101.229 157.5,101.939 157.5,103.928 C157.5,105.745 158.208,106.545 160.314,107.109 C166.139,108.667 167.302,111.298 164.175,115.846 C161.905,119.145 159.564,124.897 160.222,125.556 C163.069,128.402 176,108.015 176,100.68 C176,96.409 172.517,94.831 168.5,97.28 Z M62.534,202.963 C61.52,204.083 60.055,205 59.278,205 C56.513,205 51,210.138 51,212.714 C51,215.286 54.467,221 56.028,221 C57.272,221 61.712,216.214 64.579,211.783 C69.074,204.835 67.394,197.592 62.534,202.963 Z"/>
</svg>

