<svg xmlns="http://www.w3.org/2000/svg" width="300" height="300" viewBox="0 0 300 300" version="1.1">
  <defs/>
  <path d="M103.435,95.421 C106.919,93.913 109.656,94.4 112.378,97.01 C113.919,98.489 114.132,99.634 113.566,103.405 C113.187,105.932 112.49,108 112.017,108 C111.543,108 109.502,111.263 107.48,115.25 C105.458,119.237 102.063,125.875 99.936,130 C97.809,134.125 96.054,137.838 96.035,138.25 C95.965,139.759 100.157,138.944 102.901,136.915 C105.508,134.988 106.029,134.935 109.806,136.211 C112.053,136.971 114.803,138.752 115.918,140.168 L117.944,142.744 L115.698,151.631 C114.462,156.519 112.675,161.626 111.726,162.981 C110.777,164.336 110,166.026 110,166.736 C110,168.438 108.031,171.896 105.285,175.018 C104.067,176.403 102.942,179.094 102.785,180.998 C102.514,184.294 102.787,184.614 108.5,187.687 C111.8,189.462 115.625,191.384 117,191.957 C118.375,192.531 120.321,193.475 121.323,194.055 C122.326,194.634 125.026,196.02 127.323,197.134 C129.621,198.248 132.175,199.56 133,200.049 C133.825,200.538 136.312,201.783 138.528,202.815 C143.477,205.12 162.367,216.455 166.594,219.657 C168.296,220.946 169.97,222 170.315,222 C170.659,222 174.372,224.363 178.565,227.25 C190.5,235.468 209.889,245.93 213.375,246.033 C213.994,246.051 216.272,247.292 218.438,248.789 C222.841,251.834 224.795,256.645 222.996,260.008 C221.747,262.34 217.783,262.648 216.04,260.548 C215.378,259.75 212.735,258.026 210.168,256.717 C199.857,251.461 196.383,249.568 193.846,247.824 C192.386,246.821 190.528,246 189.718,246 C188.908,246 187.723,245.371 187.085,244.603 C186.448,243.835 181.893,240.878 176.963,238.033 C172.033,235.188 168,232.486 168,232.028 C168,231.57 166.762,230.748 165.25,230.2 C163.738,229.653 160.056,227.359 157.069,225.103 C154.083,222.846 151.1,221 150.442,221 C149.784,221 148.686,220.327 148.004,219.505 C147.321,218.682 143.329,216.134 139.131,213.842 C134.934,211.55 130.338,208.871 128.918,207.889 C127.498,206.907 123.944,205.161 121.021,204.008 C118.097,202.856 114.618,201.058 113.29,200.013 C111.962,198.969 109.216,197.573 107.188,196.912 C105.159,196.25 102.427,194.875 101.115,193.855 C98.093,191.504 94.139,191.451 93.292,193.75 C91.415,198.842 76.549,212 72.673,212 C67.323,212 66.65,209.098 71.241,205.828 C76.331,202.204 85,191.649 85,189.076 C85,187.006 79.524,184.545 72.598,183.504 C66.308,182.559 65.348,182.121 64.166,179.658 C63.433,178.129 63.072,176.256 63.364,175.494 C64.715,171.974 79.587,173.069 86.616,177.206 C90.723,179.623 92.424,178.799 94.952,173.171 C96.106,170.602 97.476,167.825 97.997,167 C98.996,165.418 101.003,161.261 103.5,155.599 C106.427,148.962 104.865,146.684 99.614,149.93 C95.271,152.614 89.883,152.634 87.477,149.974 C85.791,148.111 85.749,147.419 86.951,141.367 C88.215,135.009 91.807,127.019 97.342,118.25 C100.84,112.709 100.778,111 97.082,111 C93.433,111 91,110.1 91,108.751 C91,106.794 100.373,96.747 103.435,95.421 Z M160.246,58.25 C161.629,56.519 162.966,56.682 166.857,59.054 C169.716,60.797 170.121,61.501 169.587,63.8 C169.242,65.285 168.703,68.3 168.388,70.5 C168.073,72.7 167.182,75.918 166.408,77.651 C165.633,79.384 165,82.107 165,83.701 C165,85.296 164.474,87.126 163.832,87.768 C162.487,89.113 160.037,95.74 160.015,98.095 C160.007,98.972 159.1,100.505 158,101.5 C155.097,104.127 155.533,105.907 159.483,107.557 C161.811,108.53 163.717,110.419 165.233,113.256 C167.259,117.048 167.498,118.884 167.482,130.5 C167.472,137.65 167.099,144.963 166.653,146.75 C166.035,149.225 166.166,150 167.205,150 C168.742,150 172,145.005 172,142.649 C172,140.476 176.731,131.75 178.723,130.25 C179.635,129.562 181.361,129 182.556,129 C185.397,129 190,132.658 190,134.915 C190,137.471 173.467,154 170.91,154 C169.589,154 163.712,163.351 163.053,166.5 C162.636,168.496 161.74,169.6 160.375,169.798 C156.44,170.371 155.892,168.137 156.964,155.879 C158.503,138.265 158.435,125.083 156.78,120.558 C154.903,115.423 152.744,114.017 150.23,116.292 C146.953,119.257 141,117.985 141,114.319 C141,113.615 142.575,110.577 144.5,107.567 C146.425,104.558 148,101.393 148,100.534 C148,98.962 148.283,98.252 151.331,92.169 C152.249,90.337 153,87.614 153,86.119 C153,84.624 153.385,82.973 153.855,82.45 C155.301,80.844 157.796,71.818 158.54,65.5 C158.929,62.2 159.696,58.938 160.246,58.25 Z M132.035,145.934 C133.378,143.425 136.21,143.469 138.533,146.036 C141.467,149.278 143.287,164.627 141.627,172.123 L140.825,175.747 L147.162,176.242 C158.566,177.133 188.219,176.216 201.865,174.551 C213.996,173.071 215.451,173.065 217.615,174.483 C219.336,175.611 220,176.971 220,179.368 C220,184.577 217.666,185.985 210.449,185.13 C207.121,184.736 200.821,184.777 196.449,185.221 C192.077,185.665 176.575,186.412 162,186.881 C147.114,187.36 134.298,188.218 132.757,188.839 C129.413,190.187 122.579,189.725 120.514,188.011 C118.685,186.493 118.509,180.647 120.25,179.22 C120.938,178.657 123.414,177.684 125.753,177.058 C129.253,176.123 130.288,175.264 131.6,172.211 C132.95,169.067 133.025,167.355 132.09,161 C130.722,151.702 130.71,148.41 132.035,145.934 Z M43.5,182.857 C53.597,177.221 57.267,179.673 57.627,192.296 C57.755,196.808 58.154,201.658 58.513,203.073 C59.086,205.334 58.06,206.729 50.055,214.573 C38.678,225.721 37.527,226.314 34.377,222.652 C33.07,221.132 32,219.261 32,218.495 C32,217.729 30.425,215.9 28.5,214.432 C25.92,212.464 25,211.001 25,208.865 C25,204.574 18.974,199.277 11.095,196.642 C3.429,194.079 1.926,192.288 4.342,188.601 C5.79,186.391 6.776,186 10.901,186 C16.789,186 21.712,187.936 26.163,192.002 C27.998,193.679 30.011,194.926 30.635,194.775 C31.26,194.624 33.285,192.508 35.135,190.074 C36.986,187.639 40.75,184.392 43.5,182.857 Z M47.254,61.146 C47.884,60.516 50.358,60 52.751,60 C56.477,60 57.58,60.522 60.434,63.637 C64.274,67.828 65.956,75.189 63.697,77.917 C61.078,81.081 59.628,85.591 59.899,89.73 C60.195,94.239 58.156,97.867 53.6,100.94 C33.681,114.374 31.911,115.092 29.852,110.574 C28.039,106.595 29.591,103.261 34.772,100.007 C37.372,98.374 40.192,97.029 41.038,97.019 C42.726,96.998 51.183,88.685 52.757,85.5 C53.3,84.4 54.052,81.381 54.427,78.791 C55.047,74.516 54.866,73.872 52.457,71.791 C48.669,68.519 45.784,62.616 47.254,61.146 Z M46.392,139.926 C52.037,136.873 54.655,137.558 54.034,141.926 C53.776,143.741 44.028,155 42.715,155 C42.173,155 40.687,156.125 39.412,157.5 C36.53,160.61 34.954,160.644 32.146,157.655 C29.542,154.884 30.02,153.01 33.919,150.707 C35.49,149.779 38.24,147.352 40.03,145.314 C41.819,143.275 44.682,140.851 46.392,139.926 Z M42.5,121.979 C46.625,119.217 49.414,119.747 49.828,123.371 C50.375,128.154 49.192,130.689 45.361,132.95 C40.373,135.892 35.851,135.4 34.585,131.777 C33.461,128.562 35.413,124.004 37.919,123.993 C38.789,123.99 40.85,123.083 42.5,121.979 Z M40.309,196.544 C34.964,200.154 32.975,203.375 34.901,205.301 C35.505,205.905 36,207.21 36,208.2 C36,210.293 37.9,210.537 40.291,208.75 C42.14,207.368 48,196.398 48,194.317 C48,192.185 45.834,192.812 40.309,196.544 Z"/>
</svg>

