<svg xmlns="http://www.w3.org/2000/svg" width="300" height="300" viewBox="0 0 300 300" version="1.1">
  <defs/>
  <path d="M143.406,95.17 C149.744,89.621 150.122,89.46 153.066,91.035 C154.405,91.752 155,93.133 155,95.525 C155,98.435 154.314,99.495 150.655,102.24 C148.265,104.033 144.003,107.371 141.182,109.658 C138.362,111.944 135.589,113.97 135.02,114.16 C134.329,114.39 134.385,115.559 135.187,117.685 C136.124,120.167 136.118,122.473 135.16,128.183 C133.196,139.889 132.753,142.353 133.556,142.867 C133.797,143.021 134.15,143 134.607,143 C135.607,143 137.342,141.866 138.462,140.48 C139.993,138.587 142.081,137.685 146.855,136.855 C153.271,135.739 157.329,136.333 164,139.364 C167.198,140.817 175.999,149.497 176.004,151.202 C176.006,151.916 177.107,154.665 178.45,157.312 C180.419,161.193 180.793,163.127 180.384,167.312 C179.29,178.52 177.708,186.635 176.06,189.5 C175.111,191.15 173.751,194.525 173.038,197 C172.324,199.475 171.124,202.918 170.37,204.651 C169.617,206.384 169,208.295 169,208.897 C169,209.499 167.425,213.401 165.5,217.569 C163.575,221.736 162,225.444 162,225.809 C162,226.679 156.639,237.945 150.117,250.779 C146.716,257.472 143.309,258.739 140.297,254.431 C139.309,253.018 136.925,249.967 135,247.652 C131.455,243.389 129.052,238.962 124.877,229 C123.61,225.975 121.251,221.52 119.636,219.101 C117.424,215.788 116.946,214.306 117.701,213.101 C119.367,210.442 122.63,210.617 124.66,213.475 C125.672,214.9 127.958,217.964 129.74,220.283 C131.522,222.602 132.985,225.287 132.99,226.25 C132.996,227.213 133.379,228 133.843,228 C134.617,228 135.516,229.593 139.064,237.25 C141.203,241.866 143.207,240.524 147.349,231.699 C164.307,195.577 165.827,191.616 169.546,173.876 C171.685,163.675 170.529,159.244 164.037,152.752 C159.532,148.246 159.004,148 153.84,148 C149.328,148 147.674,148.529 144.197,151.087 C141.889,152.784 140,154.827 140,155.627 C140,157.103 137.108,161.678 133.612,165.73 C132.275,167.281 131.004,167.788 129.44,167.395 C127.751,166.972 126.855,167.442 125.845,169.281 C120.98,178.143 119.201,181.851 118.579,184.429 C117.548,188.7 108.619,201.168 103.841,205.007 C99.109,208.81 96.701,208.284 96.201,203.337 C95.947,200.831 96.83,199.518 101.951,194.786 C105.278,191.711 108,188.532 108,187.72 C108,186.909 108.655,185.701 109.456,185.037 C111.348,183.467 118.007,166.259 118.003,162.95 C118.001,161.547 118.391,159.972 118.869,159.45 C119.347,158.927 120.514,154.225 121.461,149 C122.408,143.775 123.557,138.15 124.014,136.5 C124.471,134.85 125.141,130.463 125.502,126.75 C126.221,119.364 125.095,118.028 121.5,122 C120.505,123.1 119.281,124 118.781,124 C118.281,124 115.412,125.125 112.406,126.5 C109.4,127.875 106.559,129 106.093,129 C104.689,129 103.318,126.694 102.662,123.229 C101.898,119.199 104.614,116 108.8,116 C110.34,116 112.044,115.556 112.587,115.013 C114.097,113.503 125.119,107 126.169,107 C127.833,107 137.368,100.456 143.406,95.17 Z M60.568,182.519 C67.72,179.095 71.451,179.276 75.056,183.223 C77.361,185.746 78,187.382 78,190.758 C78,193.13 77.283,196.165 76.407,197.502 C75.272,199.234 75.002,201.052 75.469,203.816 C76.02,207.078 75.716,208.185 73.562,210.743 C72.153,212.418 71,214.256 71,214.827 C71,215.398 69.991,216.185 68.759,216.577 C67.526,216.968 64.488,218.973 62.009,221.032 C55.264,226.632 51.237,228.429 48.361,227.119 C47.063,226.527 46,225.439 46,224.7 C46,220.06 31.113,202.006 27.277,201.994 C22.189,201.978 18.021,199.847 16.4,196.431 C14.842,193.147 14.85,192.824 16.527,190.97 C18.696,188.573 25.669,188.282 28.559,190.468 C29.626,191.276 31.101,191.951 31.837,191.968 C32.572,191.986 35.134,193.408 37.53,195.129 C42.31,198.561 44.505,198.431 45.951,194.629 C47.156,191.46 54.361,185.491 60.568,182.519 Z M59.2,52.2 C60.868,50.532 67.124,50.698 69.666,52.478 C71.521,53.778 72.796,57.709 73.077,63 C73.121,63.825 73.645,65.508 74.242,66.74 C75.089,68.487 74.987,69.368 73.782,70.74 C70.708,74.24 70.611,76.985 73.457,79.955 C77.215,83.878 76.174,86.859 69.419,91.511 C66.439,93.564 64,95.624 64,96.088 C64,97.24 51.007,107 49.473,107 C48.798,107 47.666,107.698 46.958,108.551 C46.242,109.413 44.524,109.968 43.086,109.801 C40.928,109.55 40.352,108.795 39.605,105.238 C38.604,100.47 40.165,97.677 44.429,96.607 C45.684,96.292 48.014,94.911 49.606,93.538 C51.197,92.166 55.313,88.767 58.75,85.985 L65,80.927 L65,73.214 C65,65.597 64.956,65.465 61.5,62.707 C58.788,60.543 58,59.181 58,56.657 C58,54.866 58.54,52.86 59.2,52.2 Z M56.57,123.042 C61.137,118.833 62.822,118.299 66.066,120.035 C68.102,121.125 68.725,125.434 67,126.5 C66.45,126.84 66,128.415 66,130 C66,131.585 65.529,133.173 64.954,133.528 C62.864,134.82 56,144.222 56,145.793 C56,146.91 57.167,146.267 59.792,143.703 C63.93,139.662 67.246,139.008 70.171,141.655 C73.111,144.315 72.327,146.933 67.061,152.034 C57.933,160.879 51.594,164.34 48.378,162.235 C46.117,160.755 47.116,152.928 50.136,148.453 C53.952,142.799 53.85,139.92 49.765,138 C43.887,135.238 43.807,124.982 49.675,126.454 C51.685,126.959 53.057,126.28 56.57,123.042 Z M123.75,63.574 C124.772,62.538 131.749,63.547 133.476,64.98 C136.554,67.534 136.318,79.965 133.049,87.5 C132.572,88.6 131.93,90.287 131.622,91.25 C131.314,92.213 130.204,93 129.154,93 C125.807,93 125.167,90.997 126.172,83.66 C127.001,77.598 126.874,76.371 125.054,72.879 C122.956,68.855 122.407,64.934 123.75,63.574 Z M62.475,195.041 C62.121,195.613 60.07,197.193 57.916,198.553 C55.762,199.913 54,201.625 54,202.358 C54,203.09 53.1,204.505 52,205.5 C49.618,207.655 49.425,210.278 51.519,212.016 C52.757,213.043 53.372,212.973 54.847,211.638 C55.843,210.737 57.119,210 57.683,210 C59.239,210 66,198.826 66,196.255 C66,193.94 63.654,193.132 62.475,195.041 Z"/>
</svg>

