<svg xmlns="http://www.w3.org/2000/svg" width="300" height="300" viewBox="0 0 300 300" version="1.1">
  <defs/>
  <path d="M155,50.7 C159.449,48.701 160.468,48.674 163.92,50.459 C166.867,51.983 171,59.353 171,63.085 C171,64.243 171.635,66.386 172.412,67.846 C173.739,70.341 175.547,88.695 176.433,108.68 C176.633,113.179 177.02,117.229 177.294,117.68 C177.568,118.131 178.091,125.475 178.457,134 C178.822,142.525 179.337,150.4 179.6,151.5 C181.241,158.35 183.171,235.488 181.877,242.5 C181.775,243.05 182.019,246.925 182.418,251.11 C183.104,258.299 183.007,258.881 180.658,261.61 C178.525,264.088 177.481,264.488 173.335,264.415 C169.5,264.348 167.101,263.47 161.732,260.165 C158.01,257.874 154.621,256 154.201,256 C153.781,256 150.802,253.337 147.58,250.081 C143.645,246.104 141.923,243.644 142.33,242.581 C143.139,240.474 145.203,240.585 148.138,242.894 C149.462,243.936 153.495,246.181 157.099,247.884 C172.977,255.386 173,255.35 173,222.332 C173,208.459 172.559,191.572 172.019,184.804 C171.479,178.037 170.815,167.325 170.543,161 C169.875,145.463 168.335,124.446 167.062,113.5 C166.487,108.55 166.013,100.945 166.008,96.6 C166,88.589 163.702,73.937 161.955,70.764 C161.43,69.809 161,68.269 161,67.342 C161,66.416 160.287,64.869 159.414,63.905 C157.616,61.918 151.953,62.305 148.527,64.65 C147.443,65.392 145.769,66 144.808,66 C143.848,66 141.36,66.856 139.281,67.901 C137.201,68.947 133.7,70.597 131.5,71.569 C129.3,72.54 126.746,73.975 125.824,74.756 C124.902,75.537 121.484,76.418 118.229,76.713 C113.199,77.169 112.208,76.985 111.635,75.49 C111.146,74.218 112.12,72.659 115.146,69.865 C117.449,67.739 119.878,66 120.544,66 C121.21,66 122.344,65.29 123.065,64.422 C124.861,62.258 132.115,58.765 140.5,56.027 C149.228,53.177 150.652,52.654 155,50.7 Z M122,147.654 C124.747,146.745 133.105,146.986 135.055,148.03 C138.257,149.743 139.907,154.048 139.076,158.521 C138.276,162.832 136.618,166.41 131.381,175.131 C129.522,178.228 128,181.265 128,181.881 C128,183.57 135.547,183.251 137,181.5 C137.685,180.675 138.723,180 139.308,180 C141.168,180 145,184.273 145,186.346 C145,189.042 142.167,192 139.583,192 C137.583,192 121.184,196.028 118,197.301 C113.051,199.281 107.771,200.055 106.488,198.99 C104.21,197.099 103.601,192.099 105.406,190.104 C107.504,187.786 107.417,186.741 105,185.232 C103.9,184.545 103,183.113 103,182.051 C103,180.988 102.55,179.84 102,179.5 C101.45,179.16 101,176.861 101,174.391 C101,169.416 99.476,165.884 94.2,158.633 C91.42,154.814 90.885,153.414 91.713,152.133 C93.356,149.591 99.303,150.236 103.014,153.359 C106.732,156.486 108.116,156.635 110.369,154.145 C111.9,152.453 118.312,148.875 122,147.654 Z M59.5,176.72 C66.323,173.992 72,177.034 73.269,184.1 C74.178,189.161 73.971,190.486 71.1,197.986 C69.945,201.003 69,203.82 69,204.245 C69,204.67 71.378,204.738 74.284,204.396 C78.462,203.905 79.849,204.113 80.907,205.388 C82.88,207.766 81.351,209.081 70.22,214.579 C64.874,217.22 57.514,221.32 53.866,223.69 C50.217,226.061 46.295,228 45.151,228 C42.408,228 41,225.159 41,219.625 C41,217.146 40.55,214.84 40,214.5 C39.45,214.16 38.986,212.896 38.968,211.691 C38.912,207.794 25.966,196 21.745,196 C18.311,196 14.77,191.881 15.174,188.354 C15.47,185.759 15.896,185.472 19.861,185.187 C24.987,184.819 34.036,188.879 36.511,192.658 C39.09,196.594 41.463,195.606 44.633,189.276 C47.63,183.292 51.734,179.826 59.5,176.72 Z M55.893,85.89 C58.881,83.751 62.04,82.014 62.913,82.032 C65.471,82.083 68,84.541 68,86.976 C68,89.235 61.061,96.516 57.962,97.508 C55.6,98.264 49.182,106.412 48.411,109.632 C47.451,113.641 46.15,115 43.271,115 C41.288,115 40.936,114.646 41.528,113.25 C43.238,109.219 42.633,107.5 39.508,107.5 C36.983,107.5 36.327,106.953 35.314,104 C33.208,97.862 33.59,96 36.956,96 C40.062,96 46.792,92.407 55.893,85.89 Z M127,99.5 C128.774,97.363 134.336,97.609 136.425,99.918 C139.808,103.656 138.163,106.035 129,110.656 C124.325,113.014 120.182,114.956 119.794,114.972 C119.406,114.987 117.488,116.086 115.531,117.414 C110.51,120.822 104.061,121.804 102.323,119.427 C100.357,116.739 100.716,113.606 103.25,111.317 C106.691,108.209 121.385,101 124.279,101 C125.091,101 126.315,100.325 127,99.5 Z M51.417,59.134 C52.393,57.554 58.117,57.773 60.365,59.476 C63.237,61.651 65.056,65.902 64.378,68.852 C63.581,72.321 59.063,79 57.514,79 C56.846,79 54.415,80.366 52.111,82.035 C45.214,87.03 43.301,83.263 50,77.88 C54.45,74.304 55.345,70.321 52.149,68.325 C50.284,67.16 49.847,61.674 51.417,59.134 Z M116,161.34 L110.5,164.671 L110.842,170.048 C111.03,173.005 111.784,176.281 112.517,177.327 C113.249,178.373 113.61,179.853 113.318,180.615 C112.471,182.821 115.446,182.229 117.664,179.75 C120.957,176.069 125.407,168.765 126.832,164.702 C127.875,161.729 127.903,160.588 126.96,159.452 C125.081,157.188 121.97,157.724 116,161.34 Z M42.497,143.408 C43.898,140.414 44.143,140.319 50.222,140.42 C57.653,140.544 59.005,141.221 58.985,144.809 C58.965,148.22 57.973,149.768 54.65,151.566 C53.193,152.355 50.763,153.672 49.25,154.494 C46.343,156.073 42.069,156.513 41.899,155.25 C41.122,149.512 41.302,145.96 42.497,143.408 Z M48.625,119.028 C57.418,111.954 60.303,111.441 60.822,116.859 C61.051,119.258 60.511,120.892 58.932,122.572 C57.717,123.866 56.222,125.897 55.611,127.084 C55,128.272 52.784,130.201 50.688,131.372 L46.876,133.5 L43.938,130.038 C42.322,128.134 41,126.258 41,125.869 C41,125.48 44.431,122.402 48.625,119.028 Z M53.085,193.771 L46.712,199.542 L47.418,205.187 C48.095,210.606 49.503,212.561 51.72,211.157 C53.745,209.875 59.537,201.425 61.887,196.325 C66.442,186.439 62.458,185.283 53.085,193.771 Z"/>
</svg>

