<svg xmlns="http://www.w3.org/2000/svg" width="300" height="300" viewBox="0 0 300 300" version="1.1">
  <defs/>
  <path d="M152.778,13.75 C154.693,11.563 156.388,11.531 158.501,13.644 C159.55,14.693 159.931,16.14 159.553,17.644 C159.088,19.498 159.366,20 160.859,20 C161.902,20 163.315,19.325 164,18.5 C165.705,16.446 170.893,16.556 171.701,18.664 C172.513,20.78 169.133,27.131 166.479,28.476 C160.848,31.329 158,34.195 158,37.009 C158,38.589 157.55,40.16 157,40.5 C156.45,40.84 156,42.194 156,43.509 C156,44.824 154.65,47.9 153,50.345 C149.579,55.414 149.15,57.54 151.748,56.543 C152.709,56.174 155.747,55.393 158.498,54.807 C161.249,54.221 164.388,53.125 165.473,52.371 C170.132,49.132 176.884,52.249 176.967,57.677 C177.007,60.334 172.598,64 169.362,64 C168.059,64 165.314,64.9 163.261,66 C161.209,67.1 158.721,68 157.733,68 C155.168,68 149,70.719 149,71.85 C149,72.374 150.509,73.693 152.353,74.781 C155.516,76.647 155.738,77.144 156.248,83.506 C156.784,90.18 157.997,92.322 160.659,91.3 C161.574,90.95 162.01,88.833 162.032,84.643 C162.068,77.688 166.176,67.745 169.247,67.177 C171.77,66.711 173.12,71.13 172.379,77.433 C171.985,80.787 172.15,82.975 172.831,83.395 C173.422,83.761 175.986,82.471 178.529,80.53 C181.072,78.588 184.258,77 185.608,77 C188.189,77 189.669,79.134 188.556,81.25 C188.194,81.938 187.116,83.976 186.16,85.78 C185.204,87.584 181.289,91.409 177.461,94.28 C172.631,97.902 170.398,100.265 170.165,102 C169.981,103.375 169.419,104.928 168.915,105.45 C168.412,105.973 167.993,107.323 167.985,108.45 C167.962,111.629 165.732,117.263 163.25,120.413 C162.012,121.984 161,123.632 161,124.076 C161,126.16 163.403,125.93 166.527,123.547 C169.803,121.048 175.527,118.576 189.971,113.42 L196.442,111.11 L199.622,113.075 C201.371,114.156 203.039,115.658 203.329,116.414 C204.256,118.83 199.736,121.805 191,124.528 C180.562,127.781 174.667,129.971 174.003,130.841 C173.726,131.203 170.969,132.705 167.875,134.178 C161.667,137.133 161.306,137.901 160.87,149.064 C160.52,158.017 162.023,158.616 170.489,152.903 C172.855,151.306 175.265,150 175.845,150 C176.425,150 178.9,148.65 181.345,147 C183.79,145.35 186.237,144 186.783,144 C187.329,144 190.189,142.33 193.138,140.288 C199.585,135.826 204.743,135.298 208.192,138.748 C210.32,140.875 210.338,141.068 208.738,144.422 C207.425,147.178 206.196,148.129 202.791,149.026 C200.431,149.649 195.8,151.44 192.5,153.006 C189.2,154.573 184.475,156.631 182,157.58 C179.525,158.528 176.6,160.076 175.5,161.018 C174.4,161.961 171.395,163.516 168.823,164.474 C162.342,166.888 159.883,169.804 159.38,175.674 C159.152,178.328 158.772,182.075 158.535,184 C158.298,185.925 157.601,195.6 156.986,205.5 C156.371,215.4 155.382,227.55 154.788,232.5 C154.193,237.45 153.632,243.975 153.54,247 C153.448,250.025 152.793,256.463 152.085,261.308 C151.376,266.152 151.127,271.102 151.53,272.308 C151.933,273.513 152.542,280.238 152.882,287.252 L153.5,300.004 L148.245,300.002 L142.991,300 L143.464,271.25 C143.724,255.438 144.324,241.15 144.798,239.5 C145.272,237.85 145.751,232.675 145.864,228 C145.977,223.325 146.274,218.82 146.526,217.99 C146.777,217.159 147.444,209.059 148.009,199.99 C148.574,190.92 149.302,181.813 149.627,179.75 C150.15,176.436 149.979,176 148.154,176 C147.018,176 144.431,177.125 142.405,178.5 C140.379,179.875 138.171,181 137.499,181 C136.827,181 133.299,182.35 129.66,184 C126.021,185.65 121.964,187 120.644,187 C119.325,187 117.685,187.675 117,188.5 C115.577,190.215 110.345,190.534 109.813,188.938 C109.618,188.354 109.623,186.152 109.824,184.045 C110.124,180.902 110.757,179.939 113.345,178.689 C117.262,176.797 129.032,172.109 139.158,168.408 C143.369,166.868 147.525,165.089 148.393,164.455 C149.564,163.598 150.144,160.651 150.645,153.002 L151.32,142.703 L148.787,143.339 C147.393,143.688 142.484,145.718 137.877,147.849 C126.999,152.88 116.849,156.88 113.013,157.647 C111.333,157.983 109.716,158.65 109.42,159.129 C108.019,161.396 99,158.29 99,155.541 C99,154.151 119.979,143 122.596,143 C123.33,143 126.051,141.655 128.642,140.012 C131.233,138.369 134.858,136.742 136.696,136.397 C138.607,136.039 142.117,133.903 144.887,131.412 C148.948,127.76 149.813,126.352 150.222,122.721 C150.88,116.888 150.068,112 148.442,112 C147.71,112 145.941,113.013 144.51,114.25 C142.569,115.929 141.828,117.641 141.589,121 C141.231,126.034 140.231,129 138.893,129 C138.402,129 138,129.599 138,130.331 C138,132.157 133.514,134.411 131.453,133.62 C130.198,133.139 129.935,132.281 130.417,130.238 C130.772,128.732 131.332,125.588 131.662,123.25 C132.365,118.259 131.498,117.942 125.5,121 C120.865,123.363 117.7,123.549 116.046,121.555 C113.739,118.775 115.315,115.673 120.921,111.96 L126.342,108.369 L126.421,98.934 C126.495,90.092 126.634,89.481 128.635,89.196 C130.174,88.976 131.382,89.882 132.966,92.446 C134.175,94.4 135.548,96 136.018,96 C136.488,96 137.014,97.459 137.187,99.242 C137.583,103.341 139.573,103.77 144.05,100.721 C146.573,99.004 147.445,97.717 147.294,95.936 C146.421,85.619 145.184,76.107 144.591,75.148 C143.115,72.759 142.067,73.223 127.39,82.75 C123.79,85.087 119.786,87 118.494,87 C116.147,87 112,82.865 112,80.524 C112,77.516 124.946,67.503 130.71,66.051 C135.679,64.8 141.696,59.19 142.562,55 C142.847,53.625 143.736,51.226 144.54,49.669 C146.387,46.087 146.483,40 144.691,40 C142.063,40 139.941,42.6 139.382,46.503 C138.647,51.633 136.261,56.963 134.376,57.686 C131.749,58.694 129.935,54.959 130.575,49.858 C131.226,44.674 130.355,43.534 126.781,44.893 C123.132,46.28 121.002,44.554 120.991,40.2 C120.984,37.248 121.627,35.97 124.175,33.876 L127.368,31.251 L125.614,26.66 C123.268,20.517 123.747,16.606 126.899,16.161 C130.692,15.625 133.91,17.969 135.174,22.188 C136.888,27.907 138.265,28.635 143.177,26.42 C146.398,24.968 147.742,23.559 149.277,20.029 C150.36,17.538 151.936,14.713 152.778,13.75 Z M75.692,168.015 C81.484,166.276 83.908,166.801 86.011,170.25 C87.101,172.037 87.994,174.856 87.996,176.514 C88,179.88 84.928,188.935 82.55,192.564 C79.491,197.233 80.317,197.985 88.25,197.751 C96.395,197.511 98,198.113 98,201.404 C98,205.449 94.705,207.33 87.743,207.258 C84.309,207.223 79.983,207.826 78.128,208.597 C76.273,209.369 73.521,210 72.013,210 C70.504,210 68.126,210.9 66.727,212 C63.557,214.494 62.759,214.496 60.517,212.018 C59.104,210.457 58.856,209.068 59.349,205.471 L59.975,200.906 L53.059,193.99 C49.006,189.937 44.975,186.827 43.321,186.477 C38.761,185.513 37.586,184.507 36.81,180.905 C35.101,172.966 45.878,171.546 53.245,178.739 C54.926,180.381 55.838,181.421 56.883,181.581 C58.53,181.832 60.51,179.896 66.358,174.679 C69.947,171.478 74.147,168.479 75.692,168.015 Z M68.825,77.522 C71.396,75.658 74.146,74.104 74.936,74.067 C77.246,73.959 81,78.136 81,80.814 C81,83.64 79.338,85.202 73,88.332 C70.525,89.554 67.375,91.276 66,92.158 C62.706,94.27 54.128,95.351 52.354,93.878 C50.653,92.467 50.582,86.569 52.25,85.275 C52.938,84.742 55.896,83.541 58.825,82.608 C61.754,81.674 66.254,79.385 68.825,77.522 Z M67.45,47.081 C69.665,43.497 76.911,50.051 77.151,55.856 C77.379,61.362 76.903,65.44 75.966,66.02 C75.503,66.307 74.658,67.769 74.087,69.27 C72.946,72.272 70.469,72.795 67.54,70.653 C65.943,69.485 65.851,68.867 66.849,66.004 C68.741,60.575 68.329,58.31 65.25,57.237 C61.849,56.05 58.872,49.315 61.132,47.918 C61.875,47.459 63.451,47.326 64.633,47.623 C65.815,47.919 67.082,47.676 67.45,47.081 Z M68.961,130.391 C70.902,129.544 72.132,129.601 74.187,130.634 C80.027,133.572 79.098,136.15 69.385,143.964 C59.519,151.901 55,151.924 55,144.037 C55,140.892 55.671,139.947 60.711,135.987 C63.853,133.519 67.565,131.001 68.961,130.391 Z M65,107.583 C70.137,104.733 73.901,106.613 73.968,112.063 C74.006,115.149 69.305,120 66.276,120 C65.113,120 62.784,120.787 61.1,121.75 C56.926,124.136 54.633,122.65 54.409,117.415 C54.217,112.947 57.027,109.009 60.424,108.985 C61.566,108.977 63.625,108.346 65,107.583 Z M71.963,185.282 C69.601,187.154 66,192.628 66,194.345 C66,199.062 70.89,196.201 74.067,189.626 C76.508,184.574 75.495,182.482 71.963,185.282 Z"/>
</svg>

