<svg xmlns="http://www.w3.org/2000/svg" width="300" height="300" viewBox="0 0 300 300" version="1.1">
  <defs/>
  <path d="M141,21.706 C146.084,19.848 151.283,21.923 153.928,26.866 C156.112,30.946 153.305,40.443 146.832,50.884 C145.85,52.468 146.168,53.38 148.832,56.612 C152.037,60.501 152.826,63.371 151,64.5 C150.45,64.84 150,65.541 150,66.059 C150,67.635 153.586,67.111 156.115,65.166 C162.519,60.241 172.739,57.72 177.018,60.01 C180.962,62.12 186,67.238 186,69.133 C186,76.237 169.971,98 164.739,98 C158.835,98 157.065,92.37 161.612,88.054 C165.493,84.37 171.201,74.965 170.563,73.304 C169.81,71.341 164.929,72.43 160.253,75.603 C158.31,76.921 155.921,78 154.944,78 C152.405,78 152.009,80.098 154,83 C154.944,84.375 156.057,88.65 156.474,92.5 C156.891,96.35 157.423,101.075 157.657,103 C159.534,118.477 157.565,130.797 152.547,134.961 C151.224,136.059 150.666,136.008 149.167,134.651 C148.179,133.757 144.583,131.633 141.176,129.93 C133.77,126.229 132.191,124.042 135.054,121.451 C136.934,119.75 137.238,119.743 140.556,121.325 C142.487,122.246 144.71,123 145.495,123 C147.449,123 149.169,116.08 148.801,109.705 C148.539,105.179 148.207,104.458 146.252,104.181 C144.655,103.954 143.744,104.534 143.109,106.181 C142.617,107.456 140.352,109.85 138.075,111.5 C133.842,114.568 132.3,115.835 123.392,123.567 C120.583,126.005 117.515,128 116.575,128 C115.636,128 113.434,129.047 111.683,130.328 C109.932,131.608 106.566,133.262 104.203,134.003 C100.189,135.263 99.766,135.211 97.766,133.211 C95.703,131.148 95.691,130.999 97.417,129.092 C98.402,128.004 100.498,126.83 102.075,126.483 C104.887,125.866 122.405,112.62 126.657,107.896 C127.844,106.578 129.845,103.475 131.105,101 C132.364,98.525 134.731,94.813 136.365,92.75 C139.648,88.604 139.385,86.916 135.842,89.398 C134.584,90.279 133.025,91 132.378,91 C131.731,91 128.861,92.575 126,94.5 C123.139,96.425 119.803,98 118.587,98 C115.158,98 111.184,93.13 111.453,89.257 C111.793,84.356 114.507,81.909 118.895,82.547 C122.53,83.076 123.305,82.749 141.75,72.876 C144.088,71.625 146,70.075 146,69.431 C146,68.787 143.188,67.712 139.75,67.041 C132.25,65.578 130,63.813 130,59.392 C130,56.755 130.79,55.459 133.945,52.924 C137.568,50.012 144,39.336 144,36.234 C144,35.505 142.65,35 140.7,35 C136.572,35 135,33.476 135,29.474 C135,26.4 137.692,22.916 141,21.706 Z M166.5,145.97 C180.669,144.6 185.278,144.881 188.081,147.286 C191.426,150.156 192.599,153.515 194.089,164.5 C195.497,174.873 195.899,207.351 194.703,214 C194.257,216.475 193.462,222.325 192.937,227 C191.705,237.948 189.269,248.9 187.44,251.715 C186.648,252.933 186,254.638 186,255.505 C186,258.367 182.095,264.796 179.032,266.977 C177.375,268.157 174.468,269.374 172.573,269.682 C169.682,270.151 168.696,269.779 166.44,267.37 C162.424,263.083 158.79,256.989 159.361,255.501 C159.638,254.779 158.995,253.401 157.933,252.439 C154.528,249.357 155.765,241 159.627,241 C160.301,241 161.561,242.35 162.427,244 C163.292,245.65 164.647,248.238 165.439,249.75 C166.23,251.262 167.356,253.769 167.94,255.319 C171.067,263.613 178.891,251.17 181.975,233 C182.581,229.425 183.595,224.025 184.226,221 C186.023,212.395 185.527,177.312 183.462,167 C182.526,162.325 181.309,157.938 180.758,157.25 C180.097,156.427 176.855,156 171.261,156 C162.902,156 162.778,156.036 163.499,158.25 C163.902,159.488 164.165,162.236 164.084,164.359 C163.872,169.875 165.377,171.373 169.164,169.415 C173.551,167.146 178.116,167.922 179.969,171.25 C181.34,173.713 181.341,174.284 179.979,176.718 C179.024,178.426 177.165,179.763 174.979,180.314 C173.066,180.796 169.87,181.865 167.879,182.689 C164.419,184.121 164.073,184.071 160.129,181.581 C157.253,179.766 156,178.281 156,176.687 C156,175.429 155.545,173.945 154.99,173.39 C154.31,172.71 154.31,170.64 154.99,167.053 C155.834,162.604 156.168,160.96 155.525,160.354 C155.13,159.981 154.365,160 153.122,160 C149.98,160 147.418,162.25 148.524,164.038 C149.964,166.369 149.903,177.455 148.437,179.715 C147.646,180.933 147,183.563 147,185.56 C147,189.418 143.78,195 141.554,195 C138.34,195 137.778,192.318 138.783,181.782 C139.92,169.858 139.205,166.501 135.749,167.545 C132.717,168.461 128,172.991 128,174.987 C128,176.93 126.091,179 124.3,179 C122.845,179 122.508,175.422 123.883,174.572 C124.369,174.272 125.072,171.577 125.446,168.584 C126.264,162.042 128.011,160.468 141.5,154.118 C156.834,146.9 156.815,146.906 166.5,145.97 Z M63.25,184.706 C68.875,181.839 75.449,184.185 78.408,190.117 C80.495,194.3 80.416,196.269 78.004,200.226 C75.465,204.39 75.464,207.184 78,208.768 C81.316,210.839 80.455,214.196 75.56,218.288 C73.117,220.33 70.438,222 69.607,222 C67.219,222 62.831,224.187 58.686,227.442 C55.076,230.277 54.727,230.357 52.186,228.938 C48.296,226.765 47.899,221.011 51.446,218.221 C52.851,217.116 54,215.693 54,215.058 C54,212.759 39.807,199.907 34.905,197.767 C32.207,196.589 30,195.071 30,194.394 C30,193.717 29.765,192.551 29.478,191.803 C29.191,191.055 29.585,189.583 30.353,188.532 C31.659,186.746 32.121,186.71 37.422,187.981 C41.613,188.987 43.855,190.21 46.016,192.671 C49.24,196.343 51.733,196.934 52.68,194.25 C53.578,191.708 57.133,188 58.674,188 C59.403,188 60,187.632 60,187.181 C60,186.731 61.462,185.617 63.25,184.706 Z M154.336,197.31 C157.312,195.719 159.496,195.241 161.992,195.633 C166.669,196.368 166.875,196.544 169.073,201.67 C170.958,206.067 170.957,206.165 168.99,210.02 C166.285,215.322 166.449,216.342 170.5,219.432 C174.214,222.265 175.107,225.836 172.619,227.901 C171.843,228.545 167.35,229.111 162.369,229.191 C156.572,229.285 152.575,229.854 150.831,230.835 C148.435,232.182 147.906,232.169 145.67,230.703 C144.299,229.805 141.828,226.214 140.179,222.722 C138.374,218.902 135.797,215.32 133.708,213.727 C127.525,209.01 128.018,199.602 134.344,201.609 C138.428,202.905 143.854,207.682 146.433,212.25 C147.98,214.989 149.832,217 150.808,217 C152.765,217 158,210.852 158,208.553 C158,206.749 156.231,206.582 152.433,208.025 C148.753,209.425 146,208.382 146,205.588 C146,202.926 148.533,200.411 154.336,197.31 Z M106.12,155.905 C107.857,154.805 110.116,154.787 111.807,155.86 C114.342,157.467 117.891,166.184 119.006,173.539 C119.626,177.631 120.574,182.447 121.112,184.24 C121.649,186.033 122.539,194.025 123.089,202 C125.449,236.219 125.732,243.516 124.75,244.75 C123.44,246.396 119.534,246.349 118.141,244.67 C117.499,243.896 116.606,234.791 116.008,222.92 C115.438,211.623 114.324,200.043 113.512,197 C112.706,193.975 111.777,188.8 111.448,185.5 C110.846,179.464 108.31,169.36 106.93,167.5 C106.521,166.95 105.862,164.313 105.463,161.639 C104.919,157.98 105.081,156.563 106.12,155.905 Z M59.2,55.2 C59.86,54.54 60.854,54 61.408,54 C63.274,54 70,61.387 70.015,63.453 C70.023,64.579 70.702,67.431 71.524,69.79 C72.345,72.15 72.731,75.224 72.38,76.621 C71.944,78.36 72.369,80.008 73.731,81.85 C77.298,86.675 77.329,88.447 73.951,94.433 C70.561,100.44 68.783,101.962 59.355,106.929 C51.525,111.055 48.869,110.782 47.68,105.731 C46.237,99.604 47.397,97.264 53.275,94.44 C61.973,90.262 62.116,90.061 62.717,81.302 C63.16,74.828 62.97,73.22 61.627,72.106 C60.536,71.2 60,69.167 60,65.937 C60,63.286 59.55,60.84 59,60.5 C57.629,59.653 57.742,56.658 59.2,55.2 Z M61.64,141.515 C64.892,138.008 67.672,137.695 70.056,140.567 C74.233,145.6 59.984,159.465 53.261,156.909 C50.052,155.689 49.036,154.327 49.015,151.214 C49.003,149.431 50.044,148.486 53.75,146.915 C56.362,145.808 59.913,143.378 61.64,141.515 Z M57.057,124.716 C59.838,121.022 62.693,118 63.402,118 C64.11,118 65.508,118.904 66.509,120.01 C68.081,121.747 68.155,122.391 67.059,124.76 C66.361,126.267 65.073,129.075 64.197,131 C60.974,138.082 56.345,140.945 53.2,137.8 C50.812,135.412 51.976,131.463 57.057,124.716 Z M62,195.709 C59.536,196.616 57,199.207 57,200.819 C57,203.781 60.397,210 62.015,210 C63.682,210 68,202.585 68,199.722 C68,195.541 66.034,194.226 62,195.709 Z"/>
</svg>

