<svg xmlns="http://www.w3.org/2000/svg" width="300" height="300" viewBox="0 0 300 300" version="1.1">
  <defs/>
  <path d="M144.75,125.296 C150.441,120.065 152.083,119.085 155.215,119.046 C159.779,118.989 166,123.892 166,127.545 C166,128.83 166.396,130.127 166.881,130.426 C168.374,131.349 169.133,135.967 170.098,150 C170.892,161.551 171.515,167.975 173.301,183 C173.465,184.375 173.951,186.535 174.382,187.799 C174.909,189.344 174.638,190.904 173.555,192.556 C172.152,194.697 171.441,194.934 168.046,194.391 C164.259,193.786 163.974,193.955 157.96,200.384 C154.556,204.023 151.202,207 150.508,207 C149.813,207 148.686,207.673 148.004,208.495 C147.321,209.318 144.957,210.532 142.75,211.193 C138.92,212.341 138.628,212.268 136.34,209.609 C134.442,207.402 134.073,206.13 134.567,203.497 C135.062,200.858 134.8,199.963 133.296,199.159 C131.544,198.221 131.389,196.637 131.216,177.888 C131.105,165.776 130.622,157.222 130.015,156.615 C129.457,156.057 129,154.43 129,153 C129,151.57 128.565,149.965 128.033,149.433 C127.5,148.9 126.938,144.663 126.783,140.016 C126.53,132.472 126.698,131.526 128.349,131.191 C129.39,130.979 131.43,131.996 133.018,133.517 C135.921,136.299 138,136.163 138,133.191 C137.999,132.261 141.037,128.708 144.75,125.296 Z M147.486,63.592 C155.389,59.458 156.936,59 163.007,59 C173.092,59 175.922,59.824 178.1,63.396 C180.796,67.818 180.631,75.052 177.75,78.681 C176.512,80.24 175.016,82.412 174.424,83.508 C173.832,84.604 171,87.092 168.131,89.037 C164.711,91.356 161.888,94.37 159.937,97.787 C158.299,100.654 156.456,103 155.842,103 C155.227,103 152.771,104.8 150.384,107 C147.997,109.2 145.36,111 144.522,111 C143.685,111 143,111.41 143,111.911 C143,112.412 140.977,113.801 138.506,114.997 C136.034,116.194 133.757,117.584 133.447,118.087 C131.628,121.029 126,116.325 126,111.862 C126,110.179 126.699,107.33 127.553,105.53 C128.979,102.525 128.959,101.92 127.317,98.129 C125.401,93.706 124.927,93.434 121.934,95.035 C119.898,96.125 119.275,100.434 121,101.5 C123.913,103.3 119.82,112 116.059,112 C115.19,112 112.567,110.144 110.23,107.875 C105.986,103.756 95.393,98 92.056,98 C91.086,98 89.16,96.951 87.776,95.668 C85.626,93.675 85.352,92.767 85.892,89.418 C86.456,85.913 86.856,85.468 89.681,85.193 C93.157,84.854 99.844,87.973 106.714,93.137 C110.235,95.785 111.18,96.095 112.464,95.03 C113.309,94.329 114,92.943 114,91.951 C114,90.032 125.117,78.819 133.604,72.178 C136.412,69.981 142.659,66.117 147.486,63.592 Z M67.759,173.929 C70.367,173.565 73.085,173.207 73.8,173.134 C76.66,172.84 81,176.04 81,178.445 C81,179.761 81.786,182.208 82.748,183.883 C84.411,186.781 84.411,187.165 82.748,191.848 C80.393,198.476 80.498,200 83.309,200 C86.77,200 89.244,202.238 88.845,205.009 C88.598,206.726 87.032,208.171 83.32,210.106 C80.471,211.592 77.922,212.588 77.654,212.321 C76.992,211.659 65.277,217.44 62.873,219.615 C59.666,222.517 56.031,220.489 53.708,214.5 C49.317,203.181 47.916,201.299 41.475,198.063 C38.112,196.373 33.796,195 31.845,195 C27.76,195 25.533,192.96 24.546,188.316 C23.977,185.635 24.259,184.876 26.329,183.52 C29.139,181.679 31.236,181.98 41.16,185.646 C48.485,188.352 56.5,195.32 59.459,201.555 C60.358,203.45 61.493,205 61.982,205 C64.152,205 68,202.933 68,201.767 C68,201.061 69.06,198.463 70.355,195.992 C73.54,189.915 74.312,185.503 72.458,183.965 C71.275,182.984 69.959,183.485 65.472,186.628 C59.123,191.075 57.53,192.261 56.614,191.868 C56.241,191.708 55.98,191.286 55.556,190.716 C53.561,188.032 55.507,181.87 59.604,177.899 C62.101,175.479 64.292,174.412 67.759,173.929 Z M161.42,224.723 C163.026,223.117 174.111,222.558 176.852,223.944 C179.652,225.361 185.176,227.802 193,231.079 C197.125,232.806 203.65,235.671 207.5,237.444 C211.35,239.217 216.075,241.266 218,241.998 C219.925,242.73 222.175,243.837 223,244.458 C223.825,245.078 225.85,246.226 227.5,247.007 C229.15,247.789 231.625,249.173 233,250.083 C234.375,250.993 236.625,252.083 238,252.506 C239.375,252.928 242.341,254.535 244.592,256.076 C246.842,257.617 252.692,260.99 257.592,263.57 C270.603,270.423 275.29,273.838 274.441,275.846 C274.057,276.756 273.516,278.549 273.239,279.832 C272.962,281.115 272.209,282.366 271.565,282.613 C269.833,283.278 263.386,280.337 256.861,275.906 C253.698,273.757 250.838,272 250.506,272 C250.174,272 247.337,270.25 244.201,268.111 C234.063,261.197 228.921,258 227.934,258 C227.403,258 221.238,255.125 214.234,251.611 C207.23,248.096 197.9,243.741 193.5,241.932 C189.1,240.123 185.009,238.278 184.408,237.831 C183.024,236.8 171.194,233 169.37,233 C168.616,233 168,232.527 168,231.949 C168,231.371 166.456,230.253 164.568,229.464 C160.315,227.687 159.573,226.57 161.42,224.723 Z M139.667,9.667 C140.857,8.477 143.131,8.958 145.638,10.93 C147.427,12.337 149.024,12.708 151.537,12.3 C155.1,11.722 158,13.166 158,15.518 C158,16.218 156.026,18.88 153.614,21.434 C149.499,25.789 149.186,26.524 148.558,33.289 C148.028,38.998 148.234,41.188 149.545,43.805 C151.725,48.156 150.776,53.372 147.375,55.735 C145.978,56.706 143.35,58.738 141.535,60.25 C136.839,64.164 133.546,63.868 131.15,59.316 C129.395,55.983 129.673,55.222 134.158,51.081 C137.892,47.632 138.363,46.669 138.781,41.622 C139.423,33.88 138.14,32.438 132.993,35.121 C125.797,38.871 120,37.449 120,31.934 C120,29.016 123.043,26 125.987,26 C128.253,26 135.229,22.17 137.25,19.816 C138.238,18.665 139,16.158 139,14.056 C139,12.008 139.3,10.033 139.667,9.667 Z M58.079,40.404 C59.843,38.28 67.258,38.628 70.242,40.976 C72.794,42.983 76,50.931 76,55.25 C76,56.556 75.1,59.487 74,61.764 C71.502,66.934 71.506,66.999 74.517,69.855 C75.883,71.15 77,72.642 77,73.171 C77,74.824 74.977,78 73.923,78 C72.622,78 61.388,83.484 57.5,86.016 C55.85,87.091 53.375,88.436 52,89.006 C50.625,89.575 48.503,90.55 47.284,91.171 C42.015,93.859 39.682,84.968 44.635,81.073 C46.084,79.933 48.093,79 49.1,79 C50.107,79 52.409,77.75 54.215,76.221 C56.022,74.693 59.353,72.198 61.618,70.677 C65.39,68.143 65.789,67.452 66.38,62.428 C67.26,54.937 66.455,52.567 62.036,49.642 C57.951,46.939 56.149,42.731 58.079,40.404 Z M133.082,219.368 C136.879,213.224 142.947,216.068 141.492,223.309 C139.806,231.692 133.178,241.415 128.317,242.635 C127.014,242.962 125.498,244.069 124.95,245.094 C123.744,247.346 114.267,253.817 107.829,256.784 C105.26,257.968 102.87,259.401 102.52,259.968 C101.693,261.305 94.435,261.303 91.934,259.965 C87.781,257.742 91.089,252 96.523,252 C99.536,252 105.395,248.657 115.857,240.968 C120.079,237.865 126,232.338 126,231.5 C126,231.152 127.125,229.392 128.5,227.589 C129.875,225.786 131,223.957 131,223.524 C131,223.09 131.937,221.22 133.082,219.368 Z M146.641,138.05 C142.983,142.528 139.706,147.322 139.36,148.704 C139.013,150.085 139.046,154.88 139.433,159.358 C139.82,163.836 140.218,168.85 140.318,170.5 C140.436,172.449 140.979,173.399 141.867,173.211 C143.566,172.852 153,164.971 153,163.911 C153,163.484 153.992,162.82 155.203,162.435 C157.368,161.748 160,159.653 160,158.616 C160,158.326 158.313,158.675 156.25,159.391 C154.188,160.108 150.813,160.96 148.751,161.284 C145.681,161.767 144.812,161.517 143.946,159.899 C142.506,157.209 143.65,154.173 147.267,151.085 C151.498,147.473 154.129,146.077 156.781,146.035 C159.583,145.992 160.533,143.865 159.017,141.032 C158.392,139.863 157.558,137.019 157.164,134.712 C156.063,128.262 154.138,128.873 146.641,138.05 Z M159.5,69.806 C154.878,70.041 152.926,70.645 151,72.435 C149.625,73.713 146.7,75.88 144.5,77.25 C142.3,78.62 139.773,80.586 138.885,81.62 C135.704,85.321 135.763,97 138.962,97 C140.412,97 143.057,90.846 143.689,86 C144.403,80.528 145.494,79 148.688,79 C152.767,79 155,80.781 155,84.035 C155,89.862 160.141,86.964 166.398,77.61 C170.877,70.915 169.448,69.299 159.5,69.806 Z M60.867,113.5 C63.297,109.382 66.242,108.939 69.686,112.174 C71.186,113.584 72,115.494 72,117.606 C72,120.51 71.174,121.465 64.375,126.431 C53.588,134.308 51.476,133.846 50.381,123.369 C49.877,118.549 50.072,117.185 51.423,116.064 C52.682,115.019 53.366,114.966 54.242,115.842 C56.326,117.926 58.765,117.063 60.867,113.5 Z M159.2,171.2 C158.54,171.86 158,172.964 158,173.653 C158,174.342 155.97,175.805 153.488,176.902 C151.007,178 148.712,179.587 148.389,180.429 C148.066,181.271 146.271,182.905 144.401,184.061 C141.206,186.036 141,186.494 141,191.613 C141,199.127 142.929,199.72 148.474,193.908 C154.164,187.946 156.848,185.867 159.914,185.051 C162.353,184.402 162.517,183.955 162.794,177.181 C163.094,169.837 162.144,168.256 159.2,171.2 Z M64.559,136.532 C66.904,134.758 67.568,134.698 70.066,136.035 C71.393,136.746 72,138.132 72,140.455 C72,143.312 71.11,144.633 66.3,148.92 C63.166,151.714 59.86,154 58.955,154 C56.543,154 54.348,151.009 53.716,146.86 C53.25,143.804 53.599,142.8 55.885,140.61 C57.384,139.174 59.511,138 60.614,138 C61.716,138 63.491,137.339 64.559,136.532 Z"/>
</svg>

