<svg xmlns="http://www.w3.org/2000/svg" width="300" height="300" viewBox="0 0 300 300" version="1.1">
  <defs/>
  <path d="M161.235,174.037 C167.504,171.518 170.649,174.199 169.488,181.07 C169.124,183.226 168.414,185.244 167.91,185.555 C167.407,185.867 166.126,188.006 165.065,190.311 C164.004,192.615 161.98,196.05 160.568,197.944 C159.156,199.839 158,201.898 158,202.52 C158,203.142 156.875,204.708 155.5,206 C154.125,207.292 153,209.17 153,210.174 C153,211.654 153.805,212.001 157.25,212.008 C159.588,212.012 164.2,212.45 167.5,212.981 C173.822,213.998 177.177,214.264 204.5,215.918 C224.152,217.107 239.63,218.77 242.5,219.999 C243.6,220.47 246.3,221.15 248.5,221.509 C252.859,222.22 257,225.383 257,228 C257,230.189 253.158,233.689 249.856,234.508 C247.984,234.972 245.359,234.288 240.856,232.163 C235.192,229.489 233.085,229.09 221.5,228.49 C214.35,228.119 199.5,226.908 188.5,225.799 C160.249,222.948 152.419,222.584 149.086,223.965 C147.528,224.61 142.934,225.516 138.877,225.978 C134.82,226.44 129.475,227.34 127,227.978 C121.267,229.456 109.71,228.396 106.92,226.137 C105.724,225.168 104.659,222.822 104.357,220.49 C103.925,217.15 104.195,216.285 106.015,215.182 C109.012,213.367 118.065,211.752 126.833,211.47 C135.784,211.182 137.211,210.13 134.193,206.047 C132.987,204.416 132,202.57 132,201.945 C132,201.32 131.16,199.614 130.134,198.154 C128.184,195.38 126.981,190.843 126.678,185.122 C126.437,180.55 129.147,178.681 131.907,181.514 C134.127,183.794 139.989,195.068 140.022,197.124 C140.061,199.513 143.476,203.144 145.041,202.46 C147.09,201.564 155,191.325 155,189.569 C155,188.771 155.45,187.84 156,187.5 C156.55,187.16 157,185.363 157,183.506 C157,178.694 158.612,175.091 161.235,174.037 Z M154.405,18.387 C154.891,17.122 155.856,16.877 158.607,17.324 C163.096,18.052 165,19.606 165,22.541 C165,28.29 167.229,29.369 171.926,25.896 C175.453,23.289 178.352,24.022 179.971,27.931 C180.943,30.278 180.87,31.31 179.566,33.647 C176.707,38.772 176.325,39.473 175.155,41.736 C173.723,44.51 173.67,48.515 175.033,51.061 C176.75,54.27 184.332,61.603 187.771,63.381 C189.547,64.3 191,65.469 191,65.98 C191,66.491 193.137,68.473 195.75,70.385 C201.685,74.729 204.41,76.897 209.621,81.422 C211.888,83.39 214.1,85 214.537,85 C215.836,85 238.349,108.695 240.25,112.062 C243.847,118.434 240.894,125 234.433,125 C230.706,125 229.741,123.39 230.947,119.184 C231.734,116.441 231.335,115.843 224.74,109.877 C220.863,106.369 217.198,102.887 216.596,102.139 C211.775,96.149 190.799,79.583 171.192,66.282 C157.871,57.244 157.336,56.683 157.563,52.001 C157.696,49.256 158.544,47.05 160.105,45.388 C162.084,43.282 162.219,42.75 160.974,41.963 C160.163,41.45 158.499,41.024 157.276,41.015 C155.833,41.005 154.515,39.963 153.526,38.05 C151.624,34.372 151.607,32.184 153.448,27.78 C154.244,25.874 154.643,23.351 154.335,22.173 C154.027,20.994 154.058,19.291 154.405,18.387 Z M118.145,40.44 C122.63,35.698 123.781,35 127.115,35 C130.229,35 131.364,35.573 133.22,38.085 C135.279,40.87 135.465,42.053 135.142,50.271 C134.945,55.277 134.437,60.076 134.013,60.936 C133.589,61.796 132.554,65.2 131.713,68.5 C130.872,71.8 129.716,75.85 129.144,77.5 C128.572,79.15 127.18,83.425 126.051,87 C124.923,90.575 122.94,96.425 121.645,100 C119.077,107.087 118.884,107.602 115.382,116.671 C114.072,120.064 113,123.266 113,123.786 C113,124.305 111.992,126.011 110.76,127.577 C108.463,130.498 106.226,134.191 103.516,139.535 C101.798,142.92 94.895,150.308 90.232,153.75 C86.218,156.713 82.212,156.713 81.063,153.75 C80.32,151.832 80.957,150.762 85.378,146.5 C88.23,143.75 91.331,140.375 92.267,139 C97.15,131.832 99,128.831 99,128.078 C99,127.62 99.652,126.703 100.45,126.042 C101.247,125.38 102.762,122.962 103.816,120.669 C112.713,101.31 112.939,100.403 108.794,100.682 C107.306,100.782 104.433,101.65 102.41,102.61 C98.875,104.287 98.68,104.282 97.366,102.486 C96.615,101.459 96,99.83 96,98.868 C96,97.905 95.55,96.84 95,96.5 C93.291,95.444 93.9,91.4 96.064,89.442 C97.754,87.912 99.562,87.604 106.028,87.742 C113.567,87.903 114.014,87.787 115.822,85.205 C116.863,83.717 117.973,81.375 118.288,80 C118.603,78.625 119.319,75.925 119.879,74 C124.203,59.128 124.945,56.178 124.971,53.75 C124.988,52.132 124.46,51 123.687,51 C122.216,51 118.244,55.082 115.659,59.25 C113.856,62.157 111.196,62.796 109.2,60.8 C107.259,58.859 107.816,55.007 110.5,51.818 C111.875,50.184 113,48.179 113,47.363 C113,46.548 115.315,43.432 118.145,40.44 Z M62.5,168 C64.72,164.408 74,171.165 74,176.374 C74,180.852 70.163,194.16 68.267,196.256 C67.394,197.222 66.883,198.217 67.133,198.466 C67.864,199.197 72,197.852 72,196.883 C72,195.433 77.026,195.883 78.619,197.476 C79.752,198.609 79.844,199.423 79.013,200.976 C78.417,202.089 77.497,203 76.968,203 C76.439,203 74.262,204.575 72.132,206.5 C70.001,208.425 67.801,210 67.243,210 C66.685,210 64.94,210.672 63.364,211.494 C61.789,212.315 59.726,212.99 58.78,212.994 C57.834,212.997 56.062,214.35 54.842,216 C53.622,217.65 51.921,218.985 51.062,218.967 C48.224,218.906 45,215.331 45,212.245 C45,210.617 44.142,208.533 43.073,207.566 C42.013,206.607 40.856,204.11 40.503,202.017 C40.059,199.393 38.455,196.745 35.333,193.487 C31.101,189.07 30.547,188.797 26.819,189.297 C21.981,189.946 19,187.559 19,183.035 C19,179.541 21.261,178 26.387,178 C30.933,178 34.707,179.64 38.728,183.362 C41.878,186.277 42.005,186.305 43.978,184.52 C45.09,183.513 46,182.153 46,181.497 C46,179.535 57.689,169 59.867,169 C60.975,169 62.16,168.55 62.5,168 Z M154,131.744 C154.825,131.422 158.261,131.122 161.635,131.079 C167.203,131.007 167.93,131.244 169.499,133.638 C172.308,137.926 172.575,143.169 170.099,145.411 C168.916,146.481 168,148.536 168,150.12 C168,151.906 167.272,153.32 166,154 C164.482,154.812 164,156.094 164,159.313 C164,164.855 162.062,167.434 156.252,169.626 C153.638,170.613 149.421,172.9 146.881,174.71 C141.295,178.688 139.767,178.79 137.073,175.365 C134.57,172.184 134.506,171.204 136.644,168.841 C138.181,167.143 138.109,166.765 135.554,163.079 C134.051,160.909 131.785,157.191 130.519,154.817 C129.174,152.294 127.384,150.373 126.213,150.194 C122.673,149.654 120.793,146.484 120.641,140.801 C120.518,136.193 120.763,135.462 122.514,135.211 C123.744,135.035 126.601,136.692 129.846,139.461 C135.836,144.574 136.918,144.853 139.542,141.953 C141.519,139.769 151.501,132.721 154,131.744 Z M61.674,65.629 C65.545,60.949 69.251,62.447 70.513,69.202 C71.16,72.668 70.875,73.251 66.043,78.361 C63.204,81.363 58.391,85.322 55.347,87.159 C52.303,88.997 48.501,91.556 46.897,92.846 C43.152,95.861 36.914,96.806 35.11,94.633 C33.426,92.604 33.255,86.603 34.827,84.709 C35.497,83.902 37.333,82.983 38.907,82.669 C44.477,81.555 55.044,73.646 61.674,65.629 Z M152.292,93.016 C156.507,91.319 158.829,91.909 161.449,95.344 C162.852,97.184 164,98.993 164,99.364 C164,99.736 162.869,101.831 161.487,104.02 C159.683,106.878 158.29,108 156.546,108 C155.211,108 153.844,108.443 153.509,108.985 C152.258,111.01 139.107,117.978 137.616,117.406 C135.561,116.618 134.764,113.803 135.614,110.335 C136.368,107.257 148.683,94.468 152.292,93.016 Z M51.867,42.286 C53.315,41.068 55.434,40.056 56.576,40.036 C59.267,39.989 62.612,43.691 63.321,47.5 C63.628,49.15 64.188,51.763 64.567,53.308 C65.439,56.864 61.806,64.312 58.455,65.838 C57.163,66.427 55.355,68.054 54.438,69.454 C53.423,71.004 51.837,72 50.385,72 C47.225,72 47.292,69.629 50.585,64.877 C52.007,62.825 53.4,59.426 53.68,57.323 C54.133,53.921 53.843,53.245 51.047,51.185 C47.374,48.478 47.614,45.862 51.867,42.286 Z M52.262,132.99 C56.839,130.523 60.542,130.592 62.961,133.189 C65.504,135.918 65.67,140.814 63.25,141.713 C62.288,142.071 59.157,144.082 56.293,146.182 C53.429,148.282 50.648,150 50.114,150 C47.732,150 46,146.654 46,142.051 C46,136.948 46.642,136.019 52.262,132.99 Z M55,105.609 C56.925,104.767 58.973,104.061 59.55,104.039 C62.705,103.922 64.211,110.148 61.75,113.136 C61.063,113.97 58.588,116.119 56.251,117.91 C52.671,120.654 51.575,121.025 49.297,120.266 C46.15,119.217 44.492,114.521 45.455,109.388 C46.116,105.865 47.649,104.799 50,106.228 C50.976,106.82 52.724,106.604 55,105.609 Z M155.488,145.019 C155.142,145.579 152.725,147.119 150.116,148.441 C143.189,151.952 142.398,153.211 144.43,157.493 C146.258,161.347 146.734,161.534 150.417,159.856 C155.674,157.461 161.848,144 157.69,144 C156.825,144 155.835,144.459 155.488,145.019 Z M55.15,186.164 C52.334,188.455 49.758,191.187 49.426,192.235 C48.628,194.749 51.099,203 52.65,203 C53.318,203 55.513,199.738 57.529,195.75 C59.545,191.762 61.601,188.072 62.097,187.55 C63.502,186.072 63.162,182 61.635,182 C60.884,182 57.965,183.874 55.15,186.164 Z"/>
</svg>

