<svg xmlns="http://www.w3.org/2000/svg" width="300" height="300" viewBox="0 0 300 300" version="1.1">
  <defs/>
  <path d="M133.212,31.25 C134.934,29.166 138.646,29.811 140.408,32.5 C142.388,35.521 144.092,35.661 146.5,33 C149.009,30.227 152.457,30.494 154.942,33.653 C156.94,36.193 156.956,36.417 155.314,38.903 C154.371,40.332 152.793,43.159 151.807,45.186 C150.821,47.214 149.59,49.135 149.071,49.456 C146.752,50.889 142.888,62 144.708,62 C145.185,62 147.134,60.668 149.038,59.041 C150.942,57.413 153.14,56.063 153.921,56.041 C156.188,55.976 159,59.099 159,61.681 C159,64.09 153.667,70.083 147.147,75 C145.324,76.375 142.936,78.184 141.842,79.02 C140.082,80.363 139.848,81.748 139.826,90.96 C139.806,99.673 140.083,101.588 141.518,102.637 C142.912,103.656 143.656,103.616 145.477,102.423 C147.589,101.039 147.694,100.419 147.292,91.727 C146.919,83.666 147.127,82.085 148.938,79.216 C153.686,71.696 156.333,74.021 157,86.295 L157.5,95.5 L161.5,95.817 C166.759,96.235 171,100.14 171,104.565 C171,110.563 173.236,110.917 181.845,106.282 C190.91,101.401 200.979,98.908 203.425,100.938 C207.843,104.604 203.189,111.678 194.705,114.193 C190.313,115.496 183.246,119.794 180.952,122.558 C180.217,123.444 177.677,125.502 175.308,127.132 C170.525,130.423 170.037,131.515 173,132.29 C177.093,133.36 174.475,140.458 167.021,148.5 C162.313,153.579 162.102,154.633 162.715,170.053 C163.063,178.82 163.242,182.48 163.234,186.139 C163.225,189.905 163.017,193.67 162.589,203 C162.197,211.525 161.425,221.425 160.872,225 C160.32,228.575 159.627,233.75 159.333,236.5 C158.679,242.618 156.283,250.2 154.683,251.217 C152.638,252.517 146.539,252.066 144.223,250.443 C140.202,247.627 141.991,243 147.1,243 C149.498,243 149.926,242.467 150.921,238.25 C151.537,235.637 152.267,231.025 152.544,228 C153.62,216.246 154.709,196.263 154.533,191.5 C154.431,188.75 154.27,181.213 154.174,174.75 C154.062,167.202 153.619,163 152.933,163 C152.347,163 150.392,164.125 148.589,165.5 C146.786,166.875 144.593,168 143.715,168 C142.837,168 141.787,168.535 141.383,169.189 C140.979,169.844 140.281,178.506 139.833,188.439 C138.579,216.242 137.471,231.429 136.591,232.853 C136.15,233.566 135.639,237.525 135.454,241.651 C135.269,245.777 134.586,249.794 133.937,250.576 C132.478,252.334 129.573,252.423 128.276,250.75 C126.958,249.049 129.286,219.304 131.523,209.265 C133.067,202.334 126.403,204.465 120.682,212.733 C118.932,215.261 116.375,218.516 115,219.967 C113.625,221.418 110.615,225.056 108.312,228.052 C103.162,234.752 92.409,245 90.53,245 C89.05,245 85,240.402 85,238.722 C85,237.781 89.204,233.625 99.525,224.361 C101.891,222.238 107.205,216 111.334,210.5 C121.472,196.994 123.794,194.877 128.082,195.223 L131.5,195.5 L131.788,186.25 C132.114,175.734 131.753,175.356 125.056,179.21 C121.788,181.091 120.828,181.243 118.608,180.231 C113.715,178.002 115.228,175.41 124,171 L132,166.978 L132,159.989 C132,154.422 131.693,153 130.49,153 C129.13,153 122.442,157.259 116.115,162.155 C112.998,164.567 110.335,164.495 108.98,161.962 C106.821,157.928 110.446,153.558 120.978,147.5 C131.552,141.418 132,140.8 132,132.283 L132,124.744 L128.029,125.379 C124.329,125.971 123.949,125.802 122.448,122.899 C120.255,118.658 121.289,115.474 125.784,112.637 C131.961,108.737 132.295,107.987 130.934,101.068 C130.277,97.728 129.988,93.462 130.292,91.587 C130.716,88.974 130.28,87.413 128.423,84.895 C127.09,83.089 126,81.221 126,80.743 C126,79.83 131.045,68.622 133.762,63.5 C134.637,61.85 135.659,59.825 136.034,59 C136.408,58.175 137.454,56.081 138.357,54.346 C140.757,49.739 140.478,48.79 135.383,44.211 C131.014,40.286 130.804,39.859 131.472,36.281 C131.861,34.202 132.644,31.938 133.212,31.25 Z M71.223,179.502 C76.014,177.42 81.284,177.649 84.365,180.073 C86.755,181.952 87,182.785 87,189.014 C87,192.791 86.604,196.127 86.119,196.426 C85.635,196.726 85.018,197.99 84.748,199.235 C84.478,200.481 83.926,202.287 83.522,203.25 C82.575,205.502 86.171,205.703 88,203.5 C88.685,202.675 90.104,202 91.154,202 C95.01,202 94.234,204.927 88.778,210.956 C82.11,218.324 79.241,220.34 65.764,227.126 C63.054,228.49 62.287,228.212 60.032,225.045 C58.296,222.606 58.137,221.753 59.126,220.17 C60.176,218.489 59.649,217.547 54.881,212.586 C49.87,207.372 48.814,206.765 41.592,204.961 C37.277,203.882 32.952,203 31.98,203 C28.904,203 27.858,197.193 30.534,194.972 C31.677,194.023 32.634,193.973 34.284,194.774 C35.503,195.366 39.2,196.088 42.5,196.378 C45.8,196.669 49.449,197.188 50.608,197.533 C52.325,198.043 53.189,197.353 55.26,193.819 C58.107,188.961 66.239,181.668 71.223,179.502 Z M175.328,195.728 C187.245,194.646 188.799,194.882 196.881,199 C201.199,201.2 205.11,203 205.572,203 C206.033,203 209.806,204.525 213.956,206.39 C227.994,212.697 242.081,217.732 254,220.703 C257.264,221.516 257.5,221.842 257.5,225.537 C257.5,229.431 257.439,229.497 254,229.335 C247.476,229.028 240.531,227.205 230.5,223.168 C225,220.955 219.15,218.824 217.5,218.434 C215.85,218.044 214.05,217.388 213.5,216.978 C212.95,216.567 210.925,215.902 209,215.5 C207.075,215.099 202.125,213.053 198,210.954 C188.594,206.167 185.028,204.685 177.5,202.431 C174.2,201.443 170.932,200.207 170.238,199.685 C168.155,198.117 170.685,196.15 175.328,195.728 Z M67.571,53.571 C69.943,51.199 74.364,51.637 77.258,54.531 C79.937,57.21 81.022,61.221 81.355,69.678 C81.484,72.934 82.198,75.561 83.28,76.757 C86.978,80.843 84.297,86.734 76.497,91.661 C74.026,93.223 72.003,94.838 72.002,95.25 C72.001,95.662 71.213,96.008 70.25,96.018 C69.287,96.028 66.497,97.394 64.048,99.053 C58.875,102.557 57.465,102.51 54.649,98.735 C52.602,95.99 52.601,95.955 54.543,94.036 C55.619,92.973 57.915,91.067 59.645,89.802 C61.374,88.536 64.862,85.951 67.395,84.057 L72,80.615 L72,73.43 C72,68.129 71.589,65.904 70.434,64.945 C68.516,63.354 66,58.63 66,56.621 C66,55.808 66.707,54.436 67.571,53.571 Z M67.664,112.953 C70.402,109.994 72.065,108.986 73.853,109.203 C77.159,109.604 78.892,112.428 77.259,114.75 C76.581,115.713 75.028,118.525 73.807,121 C72.581,123.484 69.654,126.956 67.275,128.75 C60.417,133.919 56,132.82 56,125.946 C56,122.034 59.608,117 62.412,117 C63.241,117 65.604,115.179 67.664,112.953 Z M66.072,137.961 C68.508,136.996 71.365,136.161 72.421,136.104 C77.257,135.843 80.145,143.185 75.754,144.578 C74.519,144.97 71.102,147.25 68.162,149.645 C65.222,152.04 62.01,154 61.023,154 C59.092,154 56,150.031 56,147.551 C56,144.966 61.424,139.801 66.072,137.961 Z M69.845,194.597 C64.856,198.727 61.088,203.004 61.036,204.597 C61.016,205.2 61.876,206.704 62.947,207.939 C64.019,209.174 65.051,210.653 65.242,211.225 C65.432,211.797 66.502,211.975 67.619,211.621 C69.905,210.895 76.383,199.317 77.338,194.25 C77.852,191.518 77.65,191 76.07,191 C75.035,191 72.234,192.619 69.845,194.597 Z M143.17,113.75 C142.232,116.157 141.531,125.126 141.881,130.25 C142.03,132.437 144.32,132.492 147.535,130.385 C149.764,128.925 150,128.103 150,121.819 C150,117.996 149.534,113.998 148.965,112.934 C147.45,110.103 144.426,110.529 143.17,113.75 Z M144.5,142.461 C142.529,143.34 141.283,144.776 140.868,146.649 C139.812,151.416 139.935,157.842 141.096,158.559 C141.698,158.932 144.418,157.046 147.139,154.368 C151.633,149.946 152.059,149.134 151.793,145.5 C151.459,140.938 149.629,140.176 144.5,142.461 Z M159,113.871 C159,120.183 160.082,122.007 162.59,119.925 C163.652,119.044 164.006,117.183 163.797,113.589 C163.54,109.18 163.199,108.457 161.25,108.18 C159.131,107.879 159,108.21 159,113.871 Z"/>
</svg>

