<svg xmlns="http://www.w3.org/2000/svg" width="300" height="300" viewBox="0 0 300 300" version="1.1">
  <defs/>
  <path d="M124.856,6.205 C128.487,3.346 134.565,7.368 133.612,12 C133.33,13.375 132.623,17.2 132.042,20.5 C131.461,23.8 130.517,27.581 129.945,28.902 C128.503,32.231 130.284,33.958 132.805,31.676 C134.878,29.8 137.685,29.55 141.288,30.919 C143.203,31.648 143.837,32.797 144.338,36.451 C144.908,40.611 144.629,41.548 141.485,46.021 C139.568,48.748 138,51.414 138,51.944 C138,52.475 136.875,54.034 135.5,55.409 C134.125,56.784 133,58.648 133,59.55 C133,61.3 130.447,66.357 128.101,69.256 C125.879,72.001 127.726,72.606 130.466,70.032 C131.819,68.761 133.785,67.222 134.837,66.611 C135.888,66 139.393,63.737 142.624,61.582 C147.284,58.475 149.477,57.647 153.221,57.582 C159.8,57.468 162.385,60.118 162.385,66.978 C162.385,69.748 161.848,72.552 161.192,73.208 C160.537,73.863 160,75.254 160,76.299 C160,79.763 156.758,85.104 150.869,91.339 C144.578,97.999 143.712,100.56 147.291,101.921 C151.037,103.345 152.471,105.958 153,112.323 C153.275,115.634 153.97,118.497 154.544,118.686 C156.107,119.2 158,113.021 158,107.402 C158,98.287 163.042,95.017 166.932,101.61 L169.062,105.219 L167.119,114.184 C166.05,119.114 164.461,123.938 163.588,124.903 C162.715,125.868 162,127.127 162,127.702 C162,128.276 161.064,130.861 159.921,133.446 C157.361,139.233 157.941,141.482 161.762,140.589 C167.41,139.27 179.595,138.061 188.887,137.897 C194.174,137.803 199.063,137.283 199.75,136.741 C201.579,135.299 201.303,126.259 198.93,109.83 C196.777,94.929 194.537,85.45 192.934,84.459 C191.574,83.619 191.791,78.668 193.276,76.637 C195.55,73.528 197.658,75.349 200.932,83.25 C201.445,84.487 202.532,87.075 203.348,89 C204.99,92.872 205.063,93.215 208.049,111 C209.203,117.875 210.564,124.882 211.074,126.571 C211.583,128.26 212,132.601 212,136.217 C212,142.428 211.814,142.956 208.639,145.744 C205.917,148.134 204.006,148.826 198.595,149.38 C194.92,149.757 191.561,149.847 191.131,149.581 C190.403,149.131 169.242,151.289 162.5,152.501 C152.842,154.237 150.976,153.662 147.012,147.724 C145.094,144.851 142.956,142.14 142.262,141.7 C140.497,140.582 140.689,137.503 142.624,135.897 C144.011,134.746 144.148,133.152 143.56,125.024 C143.181,119.786 142.9,114.037 142.935,112.25 C142.989,109.514 142.643,109.008 140.749,109.048 C139.512,109.074 136.925,109.951 135,110.997 C133.075,112.042 130.453,113.458 129.172,114.144 C126.158,115.76 123.615,114.26 123.18,110.61 C122.933,108.536 122.18,107.786 119.886,107.327 C117.984,106.947 116.384,105.71 115.445,103.893 C113.811,100.735 106.848,93.524 103.915,91.955 C102.873,91.397 101.304,89.555 100.428,87.861 C98.882,84.872 98.917,84.696 101.605,81.891 C105.062,78.282 106.504,78.302 111.428,82.028 C113.589,83.663 115.943,85 116.659,85 C118.415,85 119.55,80.15 118.127,78.727 C117.507,78.107 117,76.605 117,75.389 C117,72.75 120.837,62.124 122.557,60 C123.225,59.175 124.984,56.083 126.464,53.128 C128.401,49.265 128.852,47.452 128.071,46.671 C126.641,45.241 124.692,47.204 121.752,53.033 C119.415,57.669 116.268,59.251 114.264,56.798 C112.968,55.211 114.408,44.905 116.378,41.676 C117.819,39.314 119.352,32.495 120.914,21.5 C122.586,9.733 123.149,7.55 124.856,6.205 Z M134.624,145.536 C135.06,144.402 136.2,143.986 138.304,144.196 C143.813,144.745 146.277,152.558 142.366,157.079 C139.798,160.047 140.683,161.306 144.866,160.637 C149.702,159.864 154.756,162.18 155.604,165.557 C156.036,167.278 155.32,169.312 153.105,172.656 C151.397,175.234 150,177.734 150,178.211 C150,178.689 148.118,180.87 145.818,183.058 C142.751,185.976 141.933,187.333 142.747,188.147 C143.562,188.962 145.144,188.477 148.679,186.326 C158.557,180.317 164.277,179.701 167.499,184.302 C169.118,186.614 169.528,194.933 168.162,197.764 C167.701,198.719 166.048,202.2 164.489,205.5 C162.929,208.8 160.494,212.767 159.077,214.317 C156.502,217.131 156.5,217.145 156.554,235.221 L156.608,253.309 L159.926,256.079 C167.191,262.145 181.77,264.314 212,263.829 C238.992,263.396 238.751,263.514 241.254,249.449 C243.665,235.896 243.056,230.666 238.526,226.026 C233.556,220.937 234.189,217 239.977,217 C243.601,217 246.526,219.337 249.735,224.796 C252.247,229.07 252.532,230.565 252.853,241.158 C253.358,257.868 252.198,262.269 245.623,268.592 C241.23,272.815 239.509,273.796 235.524,274.342 C228.045,275.367 196.471,275.116 182.484,273.921 C163.866,272.33 150.86,266.93 149.447,260.205 C149.135,258.717 148.435,256.684 147.892,255.687 C146.773,253.633 144.802,233.123 145.223,227.918 C145.587,223.421 143.345,223.368 140.959,227.816 C138.867,231.717 134.031,238.939 132.25,240.821 C131.563,241.548 131,242.543 131,243.033 C131,243.522 129.071,246.302 126.714,249.211 C124.357,252.12 121.392,256.525 120.125,259 C118.858,261.475 116.818,264.625 115.593,266 C114.367,267.375 112.597,269.738 111.659,271.25 C110.721,272.762 109.344,274 108.599,274 C107.854,274 106.685,274.675 106,275.5 C105.315,276.325 104.168,277 103.451,277 C102.101,277 99,271.691 99,269.38 C99,268.658 102.298,264.34 106.33,259.784 C113.632,251.531 120,242.912 120,241.282 C120,240.81 121.332,238.866 122.959,236.962 C124.587,235.058 125.937,232.998 125.959,232.385 C125.982,231.772 126.899,230.126 127.999,228.729 C129.765,226.483 129.897,225.453 129.135,219.879 C128.347,214.115 127.893,213.242 123.886,209.77 C121.474,207.68 117.829,205.514 115.787,204.956 C111.526,203.793 109,200.766 109,196.824 C109,194.544 109.589,193.931 112.575,193.107 C114.541,192.564 116.799,192.369 117.593,192.674 C118.386,192.979 120.265,192.718 121.768,192.095 C125.309,190.626 138,177.754 138,175.631 C138,173.239 136.734,173.624 133.5,177 C131.919,178.65 129.895,180 129.001,180 C127.366,180 123,176.524 123,175.222 C123,174.837 125,170.467 127.443,165.511 C133.611,153.004 135.193,149.122 134.549,148.079 C134.243,147.585 134.277,146.441 134.624,145.536 Z M48.25,184.105 C51.779,182.047 54.861,181.037 57.651,181.022 C61.358,181.002 62.027,181.381 63.901,184.557 C66.771,189.421 66.713,196.865 63.766,201.985 C62.538,204.119 61.803,206.137 62.134,206.468 C62.465,206.799 64.636,206.643 66.957,206.121 C70.499,205.325 71.727,205.496 74.589,207.185 C78.397,209.432 78.709,210.542 76.443,213.777 C75.387,215.286 73.86,216 71.69,216 C67.296,216 56.241,219.288 52,221.856 C48.122,224.204 45.598,225.391 42.299,226.418 C40.41,227.006 39.806,226.465 38.049,222.607 C35.778,217.621 35.516,216 36.981,216 C37.52,216 38.237,214.903 38.574,213.561 C39.199,211.07 36.51,206.097 34.5,206.029 C33.95,206.011 31.946,204.667 30.047,203.044 C27.45,200.825 25.219,199.95 21.047,199.514 C12.863,198.659 10.564,197.206 10.185,192.649 C10.012,190.565 10.405,188.217 11.058,187.43 C12.732,185.413 19.542,185.647 23.864,187.871 C25.864,188.901 29.858,190.776 32.741,192.038 L37.981,194.333 L40.489,191.417 C41.869,189.812 42.998,188.2 42.999,187.833 C42.999,187.465 45.362,185.788 48.25,184.105 Z M118.975,124.565 C119.713,122.625 120.658,122 122.853,122 C124.449,122 126.261,122.609 126.879,123.354 C128.98,125.886 128.421,132.259 125.614,137.787 C124.137,140.696 123.196,143.508 123.523,144.037 C123.85,144.567 125.891,145 128.059,145 C133.352,145 133.409,147.802 128.185,151.259 C126.087,152.647 122.999,155.155 121.322,156.832 C117.874,160.28 111.697,164 109.42,164 C104.621,164 98.059,156.158 97.287,149.5 C97.16,148.4 96.518,144.756 95.862,141.402 C94.398,133.918 95.007,132 98.846,132 C102.274,132 103.473,133.234 105.217,138.558 C106.96,143.876 109.65,143.842 112.421,138.467 C113.564,136.249 115.287,133.336 116.25,131.994 C117.213,130.653 118,129.009 118,128.343 C118,127.676 118.439,125.976 118.975,124.565 Z M51.25,47.662 C53.373,46.805 54.631,46.948 58.232,48.452 C63.049,50.465 65.164,54.179 65.766,61.679 C66.181,66.844 65.945,68.404 64.507,69.993 C62.858,71.814 62.849,72.12 64.368,74.439 C65.266,75.809 65.986,78.408 65.969,80.215 C65.934,83.795 64.048,85.632 58,87.979 C56.075,88.726 51.487,91.736 47.803,94.669 C44.12,97.601 40.433,100 39.61,100 C37.696,100 35,96.179 35,93.465 C35,90.587 40.409,85.932 51.887,78.929 C54.033,77.62 54.667,76.138 55.685,70.055 C56.857,63.059 56.806,62.55 54.473,57.947 C53.134,55.304 51.579,52.858 51.019,52.512 C49.588,51.627 49.748,48.268 51.25,47.662 Z M142.117,74.713 C131.22,83.051 123.754,89.418 121.822,92.021 C119.997,94.481 119.997,94.636 121.81,98.365 C123.429,101.692 123.856,102.001 125.11,100.748 C125.902,99.956 128.267,98.493 130.366,97.496 C138.642,93.569 150.284,79.88 151.177,73.025 C151.702,68.998 148.904,69.519 142.117,74.713 Z M45.75,135.543 C50.013,130.861 53.978,127.023 54.563,127.015 C55.148,127.007 56.899,128.328 58.454,129.952 C61.019,132.63 61.171,133.172 60.088,135.787 C59.431,137.373 57.647,139.982 56.124,141.585 C52.397,145.508 44.811,152.442 43.187,153.412 C41.064,154.68 38,151.113 38,147.373 C38,144.634 39.351,142.571 45.75,135.543 Z M50,106 C51.688,104.35 53.417,103 53.843,103 C55.863,103 57.88,105.887 58.478,109.635 C59.08,113.412 58.852,114.037 55.856,116.837 C52.562,119.915 45.375,122.958 43.149,122.216 C41.492,121.664 39,116.578 39,113.75 C39,110.638 40.781,109 44.166,109 C45.89,109 48.087,107.87 50,106 Z M173.537,223.939 C174.323,222.669 177.649,222.754 180.316,224.113 C184.312,226.149 195,237.364 195,239.521 C195,243.781 190.298,245.431 186.453,242.522 C174.603,233.555 174.292,233.228 173.621,229.028 C173.256,226.746 173.218,224.456 173.537,223.939 Z M50.512,196.697 C47.237,200.138 45.756,203.657 46.542,206.132 C47.514,209.196 49.757,208.271 52.434,203.704 C57.008,195.898 55.725,191.219 50.512,196.697 Z M150.975,199.565 C149.79,202.683 149.705,206 150.811,206 C152.634,206 156,201.758 156,199.461 C156,196.014 152.296,196.091 150.975,199.565 Z M135,209 C135,209.55 135.675,210 136.5,210 C137.325,210 138,209.55 138,209 C138,208.45 137.325,208 136.5,208 C135.675,208 135,208.45 135,209 Z"/>
</svg>

