<svg xmlns="http://www.w3.org/2000/svg" width="300" height="300" viewBox="0 0 300 300" version="1.1">
  <defs/>
  <path d="M90.5,87.327 C93.822,85.571 98.113,84.12 100.113,84.077 C103.187,84.012 104.4,84.72 108.241,88.826 C110.723,91.48 113.008,94.518 113.318,95.576 C115.273,102.257 115.98,106.519 116.455,114.5 C116.75,119.45 117.274,128.225 117.62,134 C117.966,139.775 118.267,149.764 118.29,156.197 C118.334,168.277 117.563,171 114.1,171 C111.241,171 107.783,167.939 108.32,165.884 C108.591,164.849 108.449,163.777 108.005,163.503 C106.978,162.868 96.597,168.037 92,171.472 C89.213,173.555 87.787,173.968 85,173.5 C82.049,173.005 81.343,173.26 80.5,175.125 C78.104,180.423 73.359,180.042 71.782,174.423 C71.331,172.816 70.792,162.05 70.586,150.5 C70.136,125.382 70.33,128.986 68.406,110.047 C66.915,95.375 66.925,94.528 68.609,93.297 C71.458,91.213 74.662,91.773 76.917,94.75 C77.864,96 78.321,96.779 78.859,96.84 C79.628,96.928 80.563,95.552 83.331,92 C83.974,91.175 87.2,89.072 90.5,87.327 Z M109,9.35 C117.974,5.842 126.57,8.276 130.177,15.347 C132.045,19.009 132.201,20.629 131.73,31.459 C131.086,46.274 129.52,53.161 125.471,59 C121.261,65.07 117.285,65.62 112.276,60.823 C110.368,58.995 108.411,56.488 107.928,55.25 C107.445,54.013 106.606,53 106.064,53 C104.683,53 101,57.112 101,58.654 C101,60.953 95.183,66 92.534,66 C89.173,66 89.16,62.968 92.5,58.589 C93.875,56.786 95,54.55 95,53.62 C95,52.69 95.714,50.84 96.586,49.509 C97.459,48.177 97.914,46.669 97.597,46.157 C97.281,45.645 97.692,44.671 98.511,43.991 C99.33,43.311 100,41.262 100,39.437 C100,37.611 100.45,35.84 101,35.5 C101.55,35.16 102,32.647 102,29.916 C102,25.533 101.705,24.838 99.488,23.995 C96.107,22.71 94.234,18.628 96.03,16.464 C97.71,14.44 102.003,12.085 109,9.35 Z M71.019,8.1 C76.984,3.735 79.065,3.208 81.345,5.488 C84.139,8.282 79.698,16.285 74.651,17.551 C73.193,17.917 72,18.647 72,19.173 C72,19.7 68.625,21.689 64.5,23.595 C60.375,25.501 57,27.312 57,27.62 C57,27.928 57.839,28.927 58.865,29.84 C60.582,31.368 60.67,32.532 59.982,44.5 C59.571,51.65 59.069,58.383 58.867,59.462 C57.604,66.209 69.955,56.58 71.626,49.515 C72.754,44.744 74.913,43.232 78.697,44.562 C81.593,45.579 81.459,45.22 83.651,57.759 C83.965,59.552 84.621,61.266 85.11,61.568 C85.6,61.871 86,62.936 86,63.937 C86,64.937 86.722,66.354 87.604,67.086 C90.064,69.128 91.244,73.001 89.899,74.622 C87.724,77.243 83.352,76.239 79.572,72.25 C77.617,70.188 76.013,67.728 76.009,66.785 C75.996,64.332 72.29,62.515 70.436,64.053 C69.646,64.709 68.999,65.752 68.998,66.372 C68.997,67.373 65.996,69.605 57.159,75.177 C53.988,77.177 49.864,77.464 48.2,75.8 C46.782,74.382 46.594,67.814 47.932,66.45 C48.806,65.558 50.015,55.894 51.54,37.6 L52.199,29.701 L47.614,30.329 C43.248,30.928 42.954,30.811 41.442,27.889 C40.569,26.201 40.077,24.243 40.347,23.538 C40.891,22.12 47.347,18.876 53.44,16.959 C60.253,14.816 65.356,12.244 71.019,8.1 Z M116.5,197.463 C118.625,196.657 123.728,198.187 131.455,201.947 C135.88,204.1 142.65,207.266 146.5,208.983 C153.36,212.042 161.173,216.764 161.833,218.25 C162.017,218.662 162.964,219 163.94,219 C164.915,219 167.775,220.575 170.296,222.5 C172.817,224.425 175.29,226 175.792,226 C176.293,226 179.691,227.912 183.342,230.25 C196.231,238.503 198.771,240 199.877,240 C200.492,240 203.246,241.617 205.998,243.594 C210.52,246.843 211,247.559 211,251.059 C211,256.814 208.343,257.871 202.494,254.443 C200.022,252.995 198,251.38 198,250.854 C198,250.328 196.423,249.239 194.495,248.434 C192.568,247.628 188.54,245.401 185.544,243.485 C182.547,241.568 179.858,240 179.567,240 C179.277,240 175.767,237.82 171.769,235.155 C167.771,232.491 162.944,229.781 161.043,229.135 C159.142,228.489 156.667,227.144 155.543,226.147 C154.419,225.149 151.381,223.553 148.79,222.599 C146.2,221.646 142.468,219.771 140.496,218.433 C138.524,217.095 136.225,216 135.386,216 C134.547,216 131.929,214.671 129.569,213.047 C127.209,211.423 123.303,209.33 120.889,208.395 C118.475,207.46 115.571,205.864 114.436,204.848 C113.3,203.832 110.938,203 109.186,203 C106.7,203 106,202.574 106,201.061 C106,199.505 106.937,198.996 110.75,198.483 C113.362,198.131 115.95,197.672 116.5,197.463 Z M73.13,194.505 C75.663,190.21 78.282,190.132 81.351,194.258 L83.402,197.015 L80.072,203.508 C78.24,207.078 76.433,210 76.055,210 C75.677,210 72.473,212.774 68.934,216.165 C54.08,230.398 48.483,234.396 40,236.833 C27.194,240.511 18.232,237.422 23.938,231.297 C25.661,229.447 26.339,229.302 28.836,230.244 C31.291,231.171 32.751,230.906 38.386,228.511 C44.019,226.117 47.025,223.728 58.019,212.907 C65.158,205.879 71,199.676 71,199.122 C71,198.568 71.958,196.49 73.13,194.505 Z M95.728,96.788 C94.183,96.983 92.263,98.196 91.389,99.53 C90.527,100.845 88.895,102.216 87.763,102.575 C85.24,103.376 79,109.479 79,111.146 C79,113.666 81.435,118.953 82.845,119.494 C83.653,119.804 86.156,118.821 88.407,117.308 C92.825,114.34 101.253,111 104.323,111 C105.955,111 106.129,110.504 105.561,107.471 C104.798,103.408 101.472,97.352 99.704,96.809 C99.042,96.606 97.253,96.596 95.728,96.788 Z M102.933,142.787 C99.611,145.331 89.965,150 88.031,150 C85.949,150 79,155.772 79,157.501 C79,162.726 87.958,163.493 96.5,159 C99.637,157.35 103.752,156 105.645,156 L109.088,156 L108.794,148.761 C108.466,140.69 107.268,139.468 102.933,142.787 Z M101.239,122.452 C99.574,123.854 97.686,125 97.044,125 C96.402,125 93.542,126.099 90.688,127.442 C87.835,128.785 84.263,130.348 82.75,130.917 C80.249,131.857 80,132.408 80,137.007 C80,142.622 81.802,144.389 84.787,141.699 C85.729,140.85 87.85,139.843 89.5,139.461 C91.15,139.078 94.199,137.438 96.275,135.816 C98.351,134.194 101.62,132.611 103.539,132.3 C107.4,131.673 108.384,129.744 107.824,123.897 C107.411,119.588 105.216,119.106 101.239,122.452 Z M113.474,20.25 C113.22,20.938 112.591,25.55 112.078,30.5 C111.564,35.45 110.849,40.662 110.488,42.081 C110.053,43.791 110.572,46.24 112.026,49.331 C115.38,56.467 117.767,55.48 120.08,46 C121.901,38.534 121.931,22.83 120.128,20.655 C118.517,18.713 114.142,18.446 113.474,20.25 Z"/>
</svg>

