<svg xmlns="http://www.w3.org/2000/svg" width="300" height="300" viewBox="0 0 300 300" version="1.1">
  <defs/>
  <path d="M47.655,50.829 C49.677,48.594 50.898,48.54 53.777,50.557 C56.252,52.29 56.708,56.351 54.88,60.365 C53.486,63.423 54.94,70.5 56.962,70.5 C57.808,70.5 58.794,68.549 59.489,65.5 C61.498,56.685 65.947,51.108 71.027,51.036 C74.26,50.99 78,53.594 78,55.89 C78,56.867 78.322,57.988 78.715,58.382 C80.759,60.425 83.509,75.22 84.5,89.5 C84.805,93.9 85.285,99.525 85.567,102 C85.849,104.475 86.296,114.15 86.56,123.5 C86.825,132.85 87.554,142.863 88.181,145.751 C89.797,153.2 88.419,156 83.138,156 C80.074,156 79.121,156.431 78.71,158 C78.412,159.139 77.346,160 76.234,160 C74.445,160 69.581,162.328 58.215,168.626 C53.069,171.476 51.898,171.548 48.986,169.19 C46.297,167.012 46.051,162.706 48.464,160.04 C49.96,158.387 50.227,155.049 50.558,133.823 C50.974,107.18 49.895,93.21 45.897,73.5 C44.056,64.428 43.746,59.854 44.892,58.708 C45.501,58.099 46,56.488 46,55.129 C46,53.77 46.745,51.835 47.655,50.829 Z M161.609,145.524 C171.79,142.024 184.033,148.63 184.079,157.648 C184.118,165.349 181.288,175.542 178.01,179.5 C177.1,180.6 174.938,183.75 173.207,186.5 C171.476,189.25 168.471,192.571 166.53,193.879 C164.588,195.187 163,196.778 163,197.413 C163,198.161 167.408,198.99 175.508,199.766 C190.006,201.155 193.281,202.572 192.802,207.249 C192.384,211.332 186.599,213.471 181.145,211.56 C175.93,209.734 154.94,209.628 150.777,211.407 C141.482,215.38 133.393,215.507 133.583,211.678 C133.891,205.484 134.109,204.909 136.5,204 C139.361,202.912 139.535,202.225 137.647,199.473 C136.087,197.199 132,184.876 132,182.446 C132,180.278 123.486,167.576 118.7,162.603 C115.702,159.489 114.963,158.004 115.2,155.577 C115.462,152.885 115.922,152.46 118.877,152.177 C121.585,151.918 122.94,152.513 125.715,155.177 C127.618,157.005 130.045,160.188 131.108,162.25 C132.171,164.313 133.653,166 134.402,166 C135.15,166 137.023,164.313 138.564,162.25 C142.368,157.159 146.289,153.674 150.759,151.411 C152.817,150.369 155.258,148.908 156.184,148.164 C157.11,147.419 159.551,146.231 161.609,145.524 Z M127.565,39.928 C131.144,35.973 138,38.649 138,44.001 C138,45.482 138.753,48.202 139.674,50.048 C141.283,53.274 144.849,71.622 144.951,77.201 C145.039,82.066 147.14,90.001 148.333,89.974 C148.975,89.96 152.167,86.849 155.427,83.062 C161.85,75.599 165.854,73.776 169.25,76.768 C173.061,80.126 170.053,86.963 163.25,90.406 C161.262,91.413 160,92.806 160,93.996 C160,95.065 158.65,96.938 157,98.158 C155.35,99.378 154,100.829 154,101.383 C154,101.937 152.762,103.684 151.25,105.266 C149,107.618 148.489,109.083 148.437,113.32 C148.402,116.169 147.998,123.105 147.538,128.733 C146.782,137.978 146.469,139.118 144.29,140.546 C142.506,141.715 141.178,141.886 139.189,141.205 C136.352,140.234 136.289,139.851 137.923,133.5 C139.374,127.86 139.205,115.117 137.433,96.5 C134.741,68.226 133.498,61.207 129.577,52.151 C125.828,43.494 125.599,42.101 127.565,39.928 Z M160.492,156.889 C158.287,157.892 155.869,159.452 155.119,160.356 C154.369,161.26 153.313,162 152.772,162 C150.97,162 145.678,167.116 142.822,171.619 L140.001,176.067 L142.001,182.002 C143.1,185.266 144,188.648 144,189.518 C144,192.211 146.968,197 148.637,197 C151.667,197 160.203,188.621 166.084,179.875 C169.338,175.036 172,170.661 172,170.153 C172,169.644 172.672,167.94 173.494,166.364 C175.624,162.279 175.354,159.278 172.698,157.538 C169.016,155.125 164.853,154.904 160.492,156.889 Z M67.229,68.171 C66.553,68.847 66,69.907 66,70.526 C66,71.901 62.145,75.474 59.749,76.32 C58.182,76.873 58.053,78.071 58.52,87.719 C58.807,93.649 59.251,104.306 59.506,111.401 C59.76,118.497 60.162,124.496 60.399,124.732 C61.321,125.654 65.349,122.613 71.052,116.69 C76.859,110.66 77.007,110.371 76.757,105.509 C76.43,99.159 74.07,98.294 70.088,103.063 C67.863,105.728 66.906,106.193 64.755,105.653 C61.4,104.811 60.487,101.894 62.413,98.169 C64.13,94.848 69.496,90 71.454,90 C72.17,90 73.342,89.293 74.06,88.428 C75.138,87.128 75.073,85.612 73.683,79.678 C72.758,75.73 71.889,71.38 71.751,70.01 C71.472,67.24 69.118,66.282 67.229,68.171 Z M50.132,180.56 C51.835,178.395 52.789,177.981 54.876,178.505 C58.888,179.512 60,180.915 60,184.967 C60,187.503 59.321,189.298 57.87,190.595 C56.699,191.643 54.962,194.3 54.011,196.5 C51.894,201.396 38.536,215.177 33.669,217.487 C28.457,219.96 23,217.921 23,213.5 C23,210.895 24.143,209.849 29,208.01 C30.925,207.281 34.012,205.293 35.859,203.592 C38.889,200.803 40.575,198.615 46.245,190.116 C47.204,188.677 47.992,186.548 47.995,185.385 C47.998,184.222 48.959,182.05 50.132,180.56 Z M73.5,127.383 C72.4,127.998 69.67,130.075 67.434,132 C65.198,133.925 62.65,135.95 61.772,136.5 C60.549,137.266 60.082,139.668 59.779,146.75 C59.403,155.553 59.484,155.999 61.442,155.982 C62.574,155.972 65.489,154.616 67.92,152.968 C71.523,150.528 72.976,150.092 75.771,150.617 L79.202,151.26 L78.637,141.88 C78.326,136.721 78.056,131.311 78.036,129.857 C77.994,126.75 76.294,125.824 73.5,127.383 Z M76.228,187.039 C81.124,185.073 87.479,185.851 92.1,188.982 C94.52,190.622 96.846,191.972 97.27,191.982 C97.693,191.992 99.831,193.131 102.02,194.513 C105.43,196.665 106,197.529 106,200.544 C106,202.692 105.436,204.279 104.553,204.618 C102.576,205.377 92.154,202.246 88.868,199.906 C87.396,198.858 85.891,198 85.524,198 C85.157,198 84.182,197.325 83.357,196.5 C82.532,195.675 80.609,195 79.084,195 C75.854,195 72.488,191.775 73.357,189.513 C73.686,188.655 74.978,187.541 76.228,187.039 Z"/>
</svg>

