<svg xmlns="http://www.w3.org/2000/svg" width="300" height="300" viewBox="0 0 300 300" version="1.1">
  <defs/>
  <path d="M100,119.531 C105.016,116.808 110.164,116.307 112.199,118.342 C112.937,119.08 114.544,120.221 115.771,120.877 C117.128,121.604 118,123.011 118,124.476 C118,125.799 118.398,127.128 118.885,127.429 C121.43,129.002 122.5,144.122 122.5,178.5 C122.5,215.74 121.906,217.85 112.246,214.956 C107.648,213.578 103.504,214.991 96.008,220.494 C90.32,224.669 89.544,224.76 87.408,221.5 C86.215,219.679 84.884,219 82.507,219 C76.362,219 76.064,216.807 78.972,193 C79.543,188.325 79.786,181.8 79.512,178.5 C79.238,175.2 78.791,167.078 78.519,160.451 C78.247,153.824 77.569,146 77.012,143.064 C75.639,135.825 75.736,126.664 77.2,125.2 C78.766,123.634 82.487,123.662 83.747,125.25 C84.293,125.938 85.04,128.172 85.408,130.215 C85.776,132.258 86.578,134.239 87.19,134.618 C88.591,135.483 90.998,132.29 91.005,129.559 C91.012,126.585 94.815,122.346 100,119.531 Z M142.525,50.959 C144.643,47.533 150.07,52.382 153.961,61.179 C156.555,67.043 161.031,89.652 160.313,93.26 C159.679,96.44 153.736,101.542 148.822,103.123 C146.995,103.71 143.7,105.024 141.5,106.041 C137.587,107.85 127.809,110.292 119.17,111.617 C112.32,112.668 104.17,110.264 100.534,106.119 C97.715,102.906 97.484,102.055 97.272,94.081 C97.146,89.361 96.972,84.375 96.884,83 C96.796,81.625 96.38,75.1 95.96,68.5 C95.128,55.441 95.522,54 99.922,54 C103.721,54 104.995,55.734 105.032,60.95 C105.049,63.452 105.661,66.287 106.392,67.25 C107.952,69.305 108.991,69.503 109.022,67.75 C109.034,67.063 109.924,65.375 111,64 C112.076,62.625 112.966,60.51 112.978,59.301 C112.991,57.981 114.395,56.038 116.49,54.44 C120.617,51.292 124.45,51.698 126.166,55.465 C127.08,57.471 126.833,58.609 124.69,62.267 C123.274,64.683 121.414,67.241 120.558,67.952 C119.701,68.663 119,69.659 119,70.165 C119,71.214 118.751,71.545 112.435,78.897 L107.798,84.294 L108.493,90.897 C109.271,98.289 110.827,100.692 115.387,101.539 C120.712,102.528 142.199,96.039 146.25,92.219 C148.949,89.674 149,89.406 149,77.795 C149,65.538 148.846,64.933 142.884,53.709 C142.36,52.724 142.199,51.487 142.525,50.959 Z M104.75,241.507 C112.166,237.309 132.227,244.08 159,259.817 C164.225,262.889 171.875,267.154 176,269.295 C180.125,271.437 184.012,273.609 184.637,274.123 C185.262,274.637 187.962,276.212 190.637,277.625 C193.312,279.037 196.648,280.813 198.051,281.57 C199.455,282.328 201.671,284.085 202.976,285.474 C204.281,286.863 205.833,288.005 206.424,288.011 C208.349,288.03 216.108,296.199 215.79,297.873 C215.359,300.142 206.614,300.572 201.8,298.561 C199.789,297.721 195.974,294.511 193.322,291.429 C188.64,285.987 187.202,285.017 174.5,278.733 C171.2,277.1 168.275,275.444 168,275.054 C167.276,274.025 160.909,271 159.469,271 C158.796,271 157.667,270.304 156.961,269.453 C156.255,268.602 153.162,266.725 150.088,265.283 C147.015,263.84 144.35,262.286 144.167,261.83 C143.983,261.373 143.153,261 142.321,261 C140.814,261 139.387,260.373 131.164,256.096 C128.779,254.856 124.504,253.16 121.664,252.327 C118.824,251.494 115.15,250.206 113.5,249.465 C111.85,248.724 108.588,247.624 106.25,247.02 C101.305,245.744 100.766,243.762 104.75,241.507 Z M79.2,38.2 C80.77,36.63 85.161,36.666 87.35,38.267 C88.989,39.465 88.979,39.804 87.175,44.517 C86.126,47.258 84.702,51.3 84.01,53.5 C83.319,55.7 81.684,59.793 80.377,62.596 C79.069,65.4 78,67.954 78,68.273 C78,68.592 75.75,72.251 73,76.403 C70.25,80.556 68,84.234 68,84.576 C68,84.918 67.266,86.745 66.369,88.635 C64.776,91.991 64.811,92.22 67.818,98.286 C69.512,101.704 71.458,106.467 72.143,108.871 C73.272,112.83 73.211,113.372 71.503,114.621 C68.345,116.931 65.434,116.257 62.619,112.567 C61.178,110.678 60,108.219 60,107.102 C60,104.189 56.777,102.698 54.388,104.507 C51.862,106.419 49.054,106.359 46.829,104.345 C43.919,101.711 44.616,99.922 51.293,92.892 C54.744,89.258 58.853,83.858 60.423,80.892 C67.986,66.607 69.621,63.172 70.848,59 C71.575,56.525 73.482,51.679 75.085,48.231 C76.688,44.783 78,41.386 78,40.681 C78,39.976 78.54,38.86 79.2,38.2 Z M73.062,251.342 C78.396,247.12 79.863,246.898 83.25,249.807 C86.152,252.299 85.266,254.62 79.75,258.976 C76.862,261.257 72.7,264.673 70.5,266.568 C64.962,271.337 55.736,278 54.671,278 C54.186,278 52.452,279.125 50.818,280.5 C49.131,281.919 46.582,283 44.923,283 C41.06,283 37.671,279.638 38.571,276.699 C39.756,272.83 41.168,271.809 44.474,272.429 C47.272,272.954 48.57,272.152 57.693,264.256 C63.256,259.44 70.172,253.629 73.062,251.342 Z M99.174,131.717 C96.794,133.101 94.592,134.969 94.279,135.867 C93.966,136.765 92.442,138.855 90.891,140.511 C90.077,141.38 89.491,141.974 89.09,142.672 C88.035,144.505 88.243,147.065 88.889,157.25 C89.085,160.347 92.01,159.132 97.915,153.5 C103.373,148.293 107.087,146.714 108.5,149 C108.84,149.55 110.039,150 111.164,150 C111.779,150 112.221,150.068 112.495,149.885 C113.203,149.413 112.802,147.279 111.399,138.038 C111.068,135.859 110.168,133.554 109.399,132.916 C108.629,132.277 108,131.135 108,130.378 C108,128.286 104.036,128.888 99.174,131.717 Z M108.317,180.896 C99.32,190.949 94.235,195.362 91,195.922 L87.5,196.528 L87.208,204.264 C87.047,208.519 87.144,212 87.422,212 C88.348,212 97.453,206.782 100.542,204.481 C102.215,203.235 105.59,201.54 108.042,200.714 L112.5,199.212 L113.089,193.356 C114.186,182.442 112.013,176.767 108.317,180.896 Z M106.785,161.794 C101.166,166.573 97.648,168.482 93.5,169 C89.85,169.456 89.495,169.762 89.444,172.5 C89.412,174.15 89.076,176.85 88.695,178.5 C88.315,180.15 88.399,182.114 88.882,182.864 C89.547,183.898 91.744,182.276 97.947,176.173 C104.204,170.016 106.884,168.044 109.317,167.808 C112.29,167.52 112.52,167.219 112.807,163.25 C113.183,158.065 111.615,157.686 106.785,161.794 Z"/>
</svg>

