<svg xmlns="http://www.w3.org/2000/svg" width="300" height="300" viewBox="0 0 300 300" version="1.1">
  <defs/>
  <path d="M117.946,100.859 C120.391,99.287 123.382,98 124.592,98 C127.129,98 133,104.17 133,106.835 C133,107.806 133.417,109.027 133.927,109.55 C134.437,110.073 135.08,114.325 135.355,119 C135.63,123.675 136.131,129.3 136.466,131.5 C137.52,138.398 138.589,184.413 137.739,186.25 C136.907,188.049 132,188.748 132,187.067 C132,186.554 131.107,185.851 130.015,185.505 C128.196,184.927 123.59,187.579 119.194,191.735 C117.576,193.264 106.945,201.386 105.278,202.365 C104.606,202.76 102.922,202.34 101.536,201.432 C100.15,200.523 98.269,200.067 97.357,200.417 C96.347,200.804 94.975,200.277 93.849,199.068 C92.118,197.21 92,194.667 92,159.06 C92,134.225 91.587,118.631 90.81,114.1 C89.848,108.488 89.871,106.86 90.933,105.581 C92.749,103.393 96.228,103.605 99.396,106.097 L102.061,108.193 L101.581,135.847 C101.318,151.056 101.092,165.938 101.081,168.918 C101.069,171.898 100.592,177.697 100.021,181.805 C99.02,188.998 99.599,192 101.985,192 C102.83,192 109.655,186.702 117.787,179.733 C120.846,177.112 124.733,174.609 126.425,174.173 C129.487,173.382 129.501,173.347 129.792,165.689 C130.057,158.717 129.908,158 128.197,158 C127.159,158 125.495,158.9 124.5,160 C123.505,161.1 122.197,162.021 121.595,162.046 C120.993,162.072 119.6,163.261 118.5,164.689 C111.186,174.186 106.77,174.517 105.335,165.676 C104.803,162.397 105.046,161.997 109.133,159.426 C111.535,157.916 115.266,154.681 117.425,152.238 C120.949,148.249 121.695,147.851 124.723,148.343 L128.097,148.89 L127.798,143.205 C127.579,139.019 127.09,137.442 125.946,137.224 C125.091,137.062 121.399,139.195 117.74,141.964 C114.082,144.734 110.767,147 110.373,147 C106.611,147 104.584,138.452 107.45,134.671 C108.882,132.781 119.499,129 123.372,129 C125.46,129 125.549,128.652 125.22,121.75 C125.03,117.763 124.692,113.938 124.469,113.25 C123.642,110.705 119.804,112.125 115.478,116.576 C110.339,121.863 107.403,122.201 107.665,117.475 C108.117,109.326 110.322,105.762 117.946,100.859 Z M112.5,33.158 C117.65,30.451 119.541,30.004 125.849,30.002 C137.358,29.999 144.052,34.43 145.502,43.01 C146.439,48.555 142.534,56.341 136.712,60.534 C133.864,62.586 132.035,64.902 131.065,67.684 C129.824,71.244 128.791,72.217 123.401,74.899 C119.975,76.605 116.458,78 115.586,78 C114.714,78 114,78.391 114,78.869 C114,80.607 101.414,85.227 95.266,85.745 C87.883,86.368 86.779,85.696 83.432,78.54 C82.135,75.768 80.045,71.7 78.787,69.5 C71.477,56.713 70.887,55.977 65.971,53.485 C58.308,49.602 57.786,42.834 65.101,42.21 C70.174,41.777 75.723,45.938 80.619,53.847 C86.368,63.132 90,70.746 90,73.515 C90,76.646 92.94,77.47 97.427,75.595 C100.991,74.106 101.893,72.67 100,71.5 C99.45,71.16 99,68.01 99,64.5 C99,60.99 98.561,57.847 98.024,57.515 C97.488,57.183 95.268,57.937 93.091,59.19 C90.915,60.442 88.809,61.142 88.412,60.745 C87.292,59.626 92.156,48.325 94.978,45.49 C98.882,41.567 105.905,36.625 112.5,33.158 Z M138.75,224.571 C139.162,224.152 141.399,224.02 143.719,224.278 C146.966,224.639 150.423,226.52 158.719,232.437 C164.649,236.666 174.049,243.36 179.609,247.313 C192.385,256.396 195.633,258.873 205.5,267.06 C209.9,270.711 217.887,276.92 223.25,280.857 C228.613,284.795 233,288.662 233,289.451 C233,291.324 229.135,294 226.431,294 C225.262,294 223.225,293.052 221.903,291.894 C220.581,290.736 217.475,288.403 215,286.71 C212.525,285.017 210.275,283.376 210,283.064 C209.725,282.752 208.044,281.822 206.265,280.998 C204.486,280.174 199.761,276.3 195.765,272.388 C191.765,268.473 181.759,260.756 173.5,255.217 C165.25,249.684 156.25,243.118 153.5,240.626 C150.75,238.134 147.15,235.551 145.5,234.886 C139.531,232.479 136.111,227.253 138.75,224.571 Z M93.958,226.315 C100.439,219.978 102.572,218.972 104.8,221.2 C107.355,223.755 106.129,227.555 101.25,232.203 C98.638,234.691 95.375,238.251 94,240.114 C89.65,246.007 83.735,251.31 74.399,257.688 C64.813,264.237 61.508,265.595 57.567,264.606 C52.451,263.322 53.599,257 58.948,257 C62.484,257 71.485,249.992 80.5,240.219 C84.35,236.045 90.406,229.789 93.958,226.315 Z M123.734,40.599 C123.33,41.003 123,42.743 123,44.467 C123,46.19 122.596,48.027 122.102,48.55 C121.291,49.409 120.365,54.277 119.735,61 C119.344,65.165 123.114,64.798 126.922,60.3 C128.691,58.21 130.928,55.6 131.893,54.5 C135.078,50.87 137.309,46.249 136.675,44.596 C135.724,42.116 125.404,38.929 123.734,40.599 Z M108.499,53.013 C107.741,59.536 108.043,60.581 110.417,59.67 C111.548,59.236 111.868,57.681 111.71,53.379 C111.419,45.471 109.401,45.241 108.499,53.013 Z"/>
</svg>

