<svg xmlns="http://www.w3.org/2000/svg" width="300" height="300" viewBox="0 0 300 300" version="1.1">
  <defs/>
  <path d="M119.961,57.529 C124.378,54.27 128.923,54.224 131.915,57.41 C133.914,59.537 134.12,60.561 133.678,66.16 C133.037,74.268 132.035,79.142 130.656,80.866 C130.054,81.618 128.994,83.868 128.299,85.866 C127.188,89.061 127.245,89.66 128.768,90.824 C130.869,92.431 142.77,99.558 149.099,102.999 C177.685,118.544 181.624,122.246 175.598,127.908 C172.074,131.218 168.589,130.429 168.185,126.231 C167.84,122.649 165.953,121.048 159.5,118.861 C157.3,118.116 152.8,115.986 149.5,114.128 C146.2,112.271 141.7,109.741 139.5,108.507 C137.3,107.272 133.025,104.862 130,103.149 C126.975,101.437 123.755,100.028 122.845,100.018 C121.432,100.003 108.728,115.939 107.405,119.387 C107.167,120.007 107.991,120.961 109.236,121.507 C112.278,122.841 112.843,127.478 110.14,128.925 C109.052,129.508 104.862,129.929 100.83,129.861 C93.491,129.738 86.025,131.384 80.155,134.42 C76.034,136.551 63.634,141 61.816,141 C61.023,141 59.052,139.621 57.437,137.935 L54.5,134.871 L54.5,104.295 C54.5,76.263 54.646,73.628 56.25,72.615 C59.347,70.66 61.461,73.034 61.802,78.853 C62.166,85.049 63.22,85.321 69.666,80.886 C74.15,77.801 74.186,77.729 73.526,73.323 C72.749,68.145 73.999,66 77.794,66 C81.08,66 84,68.666 84,71.667 C84,73.862 84.279,73.979 88.053,73.376 C91.6,72.808 92.474,73.08 95.053,75.551 C97.647,78.036 98,79.063 98,84.128 C98,87.293 97.55,90.16 97,90.5 C96.45,90.84 96,92 96,93.079 C96,96.105 91.348,102.768 88.044,104.477 C85.091,106.004 85.079,106.045 85.69,112.756 C86.028,116.465 86.76,119.797 87.316,120.16 C87.873,120.524 89.942,120.58 91.914,120.286 C97.797,119.409 104.564,112.076 110.636,100 C111.604,98.075 112.814,96.213 113.326,95.862 C114.755,94.881 113.245,93.166 109.085,91.043 C107.006,89.983 104.526,87.926 103.574,86.473 C101.933,83.967 101.933,83.732 103.577,81.915 C105.87,79.381 111.451,79.423 114.727,82 C116.126,83.1 117.58,84 117.959,84 C118.779,84 124,72.941 124,71.204 C124,69.008 120.119,69.956 116.653,73 C111.638,77.403 107,76.633 107,71.397 C107,69.171 113.261,62.472 119.961,57.529 Z M118.615,202.465 C120.663,199.339 124.46,199.234 126.405,202.25 C128.027,204.764 127.391,209.869 124.684,216.067 C122.616,220.802 114.587,231.406 111.203,233.871 C109.718,234.952 108.876,236.209 109.331,236.664 C109.786,237.119 118.11,237.268 127.829,236.996 C165.748,235.932 222.642,237.668 227.041,240.022 C230.381,241.809 230.494,244.968 227.331,248.131 L224.448,251.013 L220.474,248.915 C216.841,246.997 214.186,246.756 189.5,246.095 C143.334,244.859 97.247,246.768 47.858,251.962 C34.868,253.328 31.624,252.649 32.189,248.684 C32.418,247.077 33.975,245.919 38.106,244.283 C42.889,242.388 47.661,241.82 70.606,240.415 C99.345,238.656 99.691,238.575 101.971,233.07 C103.159,230.201 102.58,228.945 95.019,217.981 C92.202,213.897 91.758,211.385 93.537,209.605 C95.448,207.694 95.523,207.687 98.316,209.125 C101.838,210.939 105,214.216 105,216.052 C105,216.989 105.675,218.315 106.5,219 C107.325,219.685 108,221.09 108,222.122 C108,224.106 108.791,224.446 110.593,223.235 C112.68,221.832 117,211.817 117,208.383 C117,206.483 117.727,203.82 118.615,202.465 Z M118,162.923 C124.154,160.554 128.221,160.599 131.365,163.073 C133.567,164.805 134,165.945 134,170.014 C134,172.691 133.55,175.16 133,175.5 C132.45,175.84 132,176.785 132,177.601 C132,178.417 131.537,179.628 130.97,180.292 C126.998,184.95 122,192.656 122,194.122 C122,196.194 121.277,196.71 114,199.83 C105.826,203.334 104.422,203.477 101.41,201.108 C99.936,199.949 97.672,199 96.379,199 C94.692,199 93.614,198.081 92.567,195.75 C91.763,193.963 90.474,191.717 89.701,190.761 C87.785,188.389 81.777,186 77.732,186 C73.675,186 72,184.49 72,180.835 C72,177.418 74.46,175.958 80.422,175.838 C83.432,175.778 85.79,176.427 87.824,177.875 C89.466,179.044 91.305,180 91.913,180 C92.52,180 96.275,177.258 100.258,173.906 C107.91,167.467 110.728,165.723 118,162.923 Z M81.637,89.436 C78.388,92.499 77.613,92.804 75.299,91.924 C71.434,90.454 63.966,95.19 62.751,99.882 C61.651,104.128 63.268,126.668 64.781,128.181 C65.596,128.996 67.306,128.69 71.196,127.032 C78.747,123.813 79.085,123.416 78.356,118.633 C77.475,112.856 76.421,111.203 72.599,109.606 C70.377,108.677 69.043,107.306 68.584,105.477 C67.622,101.646 70.506,98.897 78.419,96.104 C85.331,93.664 88.375,91.177 87.838,88.407 C87.272,85.489 85.512,85.781 81.637,89.436 Z M80.5,47.167 C87.389,44.463 91.508,44.459 93.396,47.155 C94.447,48.655 94.619,49.844 93.961,51.072 C93.069,52.74 81.804,59 79.696,59 C79.154,59 74.293,61.025 68.894,63.5 C58.936,68.065 55.643,68.85 54.464,66.941 C54.089,66.334 52.571,66.155 50.905,66.521 C47.369,67.297 47.218,66.136 50.407,62.694 C52.712,60.207 69.987,51.294 80.5,47.167 Z M111.5,140.339 C115.935,138.475 119.087,138.734 121.686,141.174 C126.042,145.267 123.777,148.006 114,150.467 C106.007,152.479 94.751,156.583 89.794,159.293 C85.373,161.71 83,160.525 83,155.901 C83,151.277 90.999,145.632 100.724,143.391 C105.001,142.406 109.85,141.033 111.5,140.339 Z M109.055,181.053 C103.453,185.482 99.045,189.645 99.261,190.303 C100.379,193.709 108.978,191.041 115.5,185.265 C118.671,182.457 123,176.281 123,174.567 C123,171.346 118.953,173.228 109.055,181.053 Z M66,58 C66,58.55 66.675,59 67.5,59 C68.325,59 69,58.55 69,58 C69,57.45 68.325,57 67.5,57 C66.675,57 66,57.45 66,58 Z"/>
</svg>

