<svg xmlns="http://www.w3.org/2000/svg" width="300" height="300" viewBox="0 0 300 300" version="1.1">
  <defs/>
  <path d="M74.046,45.181 C76.393,42.662 80.211,43.017 83.403,46.052 C85.269,47.826 85.234,48.008 81.653,55.256 C79.644,59.322 78,63.111 78,63.676 C78,64.24 76.938,66.682 75.641,69.101 C74.343,71.52 71.198,77.368 68.652,82.095 C66.106,86.822 64.318,90.984 64.678,91.345 C65.038,91.705 66.314,92 67.512,92 C70.799,92 75,97.92 75,102.552 C75,105.918 76.69,109 78.535,109 C79.341,109 80,108.127 80,107.059 C80,105.991 80.45,104.84 81,104.5 C81.55,104.16 82,103.064 82,102.063 C82,97.47 89.081,96.889 91.099,101.317 C91.949,103.183 91.506,104.682 88.565,109.886 C86.604,113.354 85,116.761 85,117.455 C85,118.15 83.599,121.369 81.887,124.609 C75.113,137.425 71.643,143.626 69.704,146.382 C67.195,149.947 68.092,151.778 73.59,154.315 C77.885,156.297 85,165.363 85,168.855 C85,169.97 85.45,171.16 86,171.5 C86.55,171.84 87,173.611 87,175.437 C87,177.262 87.675,179.315 88.5,180 C89.728,181.019 89.996,184.347 89.976,198.372 C89.963,207.793 89.469,217.3 88.879,219.5 C88.289,221.7 87.443,225.975 87,229 C85.422,239.767 83.671,244.477 79.659,248.75 C75.248,253.449 71.338,253.223 66.616,247.997 C64.627,245.796 63,243.614 63,243.15 C63,241.944 59.434,237.993 58.383,238.034 C57.897,238.053 53.712,241.653 49.083,246.034 C42.594,252.176 40.011,254 37.802,254 C32.754,254 33.248,251.351 39.429,245.268 C42.56,242.186 45.839,238.278 46.716,236.583 C47.593,234.887 49.223,232.15 50.34,230.5 C55.396,223.028 56,222.021 56,221.072 C56,220.517 58.025,216.932 60.5,213.106 C62.975,209.28 65,205.872 65,205.532 C65,205.192 67.813,200.773 71.25,195.711 C77.355,186.723 77.497,186.364 77.364,180.256 C77.217,173.459 75.029,167.621 72.025,166.014 C69.934,164.894 62.084,164.647 59.547,165.62 C58.658,165.961 56.516,168.324 54.788,170.87 C49.561,178.57 34.699,197.292 31.5,200.207 C27.915,203.475 25.923,203.677 23.517,201.019 C22.894,200.33 22.449,199.897 22.33,199.387 C22.071,198.273 23.37,196.795 27.774,191.5 C31.83,186.623 31.709,186.785 36.324,180 C38.381,176.975 42.107,171.591 44.603,168.035 C48.406,162.618 49.045,161.054 48.546,158.391 C48.017,155.575 48.268,155.102 50.748,154.238 C52.297,153.698 54.835,151.307 56.435,148.881 C58.023,146.471 60.537,142.7 62.022,140.5 C70.33,128.189 74.343,116.566 71,114.5 C70.45,114.16 70,113.227 70,112.425 C70,110.826 60.956,97 59.91,97 C58.783,97 49,112.109 49.004,113.844 C49.006,114.858 50.71,116.2 53.403,117.307 C55.821,118.302 59.586,120.866 61.769,123.007 L65.74,126.899 L63.885,129.949 C61.533,133.816 58.944,133.825 55.335,129.98 C51.97,126.394 46.086,124.571 40.675,125.436 C36.198,126.152 34.086,124.376 34.032,119.85 C34.003,117.457 37.786,110.634 42.818,104 C53.549,89.855 70,61.42 70,57.017 C70,55.973 70.45,54.84 71,54.5 C71.55,54.16 72,52.418 72,50.63 C72,48.735 72.854,46.46 74.046,45.181 Z M127.639,62.275 C129.988,60.557 130.481,60.64 133.438,63.25 L135.988,65.5 L135.062,84.5 C134.084,104.557 133.147,112.104 131.193,115.684 C129.61,118.583 129.647,124.005 131.25,123.983 C131.938,123.973 135.436,121.386 139.024,118.233 C147.526,110.761 158.562,105.544 164.249,106.307 C167.449,106.736 169.13,107.776 172.117,111.176 C174.206,113.554 175.934,116.069 175.957,116.764 C175.981,117.459 176.384,118.809 176.853,119.764 C182.021,130.287 182.488,134.519 182.451,170.5 C182.419,200.471 181.595,216.308 179.798,221.5 C179.227,223.15 178.388,227.875 177.934,232 C177.479,236.125 176.611,241.975 176.003,245 C175.395,248.025 174.651,252.17 174.348,254.212 C174.045,256.253 173.168,258.446 172.399,259.084 C171.629,259.723 171,260.871 171,261.636 C171,262.401 170.48,264.034 169.845,265.264 C169.209,266.494 168.378,268.175 167.997,269 C167.616,269.825 165.761,270.892 163.876,271.372 C157.625,272.961 149.125,266.749 141.196,254.797 C132.322,241.42 131.762,240.305 133.569,239.612 C134.446,239.275 135.614,239 136.165,239 C137.343,239 141.723,243.433 148,250.979 C156.995,261.792 158.263,262.582 161.268,259.25 C163.38,256.907 165.967,249.261 165.985,245.309 C165.993,243.554 166.45,241.84 167,241.5 C167.55,241.16 168,238.913 168,236.506 C168,234.099 168.529,230.863 169.176,229.315 C172.162,222.163 174.703,173.004 173.088,153.612 C171.029,128.885 169.611,122.817 165.066,119.282 C163.027,117.696 158.56,117.675 155.736,119.238 C149.715,122.573 137.01,131.222 135.18,133.232 C129.934,138.998 126.999,142.489 126.993,142.973 C126.989,143.263 125.407,144.576 123.477,145.89 C120.087,148.198 119.899,148.219 117.984,146.485 C115.862,144.565 115.36,141.513 117,140.5 C117.55,140.16 118,138.585 118,137 C118,135.415 118.45,133.84 119,133.5 C119.55,133.16 120,131.529 120,129.875 C120,128.222 120.549,125.886 121.219,124.684 C121.89,123.483 122.775,119.575 123.186,116 C124.432,105.163 125.882,93.827 126.821,87.58 C127.346,84.09 127.339,77.943 126.803,72.605 C125.991,64.509 126.08,63.415 127.639,62.275 Z M62.687,171.805 C65.685,168.675 69.079,168.185 71.078,170.593 C72.601,172.429 72.859,178.805 71.45,179.817 C70.927,180.193 69.421,182.525 68.101,185 C66.782,187.475 65.095,190.21 64.351,191.079 C63.608,191.947 63,192.955 63,193.319 C63,193.682 60.975,197.139 58.5,201 C56.025,204.861 54,208.466 54,209.01 C54,209.555 53.559,210 53.019,210 C52.48,210 51.736,211.204 51.367,212.675 C50.997,214.146 48.739,218.659 46.348,222.704 C43.956,226.748 42,230.41 42,230.842 C42,231.273 40.696,232.875 39.102,234.403 C36.65,236.751 35.879,237.006 34.102,236.054 C31.446,234.633 31.456,233.016 34.152,228.28 C38.905,219.933 48,201.173 48,199.717 C48,198.864 48.378,198.017 48.84,197.833 C49.303,197.65 51.605,193.675 53.957,189 C56.31,184.325 58.631,179.719 59.117,178.764 C59.603,177.809 60,176.483 60,175.818 C60,175.153 61.209,173.347 62.687,171.805 Z M75.337,209.688 C74.352,211.235 73.258,212.725 72.906,213 C72.554,213.275 70.519,216.148 68.383,219.385 C66.247,222.622 64.065,225.864 63.533,226.59 C62.853,227.519 63.246,228.633 64.857,230.348 C66.117,231.689 67.902,234.297 68.824,236.143 C70.629,239.759 75,241.466 75,238.556 C75,237.685 75.413,236.191 75.917,235.236 C77.252,232.71 79.219,220.361 79.37,213.566 C79.52,206.819 78.059,205.414 75.337,209.688 Z M113.063,173.381 C113.905,171.809 115.222,171 116.94,171 C119.837,171 132.351,179.567 135.392,183.632 C137.259,186.127 137.255,186.189 135.151,188.293 L133.019,190.426 L127.487,187.713 C124.445,186.221 120.941,185 119.7,185 C114.241,185 110.423,178.316 113.063,173.381 Z"/>
</svg>

