<svg xmlns="http://www.w3.org/2000/svg" width="300" height="300" viewBox="0 0 300 300" version="1.1">
  <defs/>
  <path d="M112.638,54.25 C113.869,51.501 114.621,51 117.512,51 C123.346,51 124.717,56.696 120.689,64.197 C119.418,66.564 117.899,69.4 117.312,70.5 C115.753,73.423 114,79.334 114,81.666 C114,82.779 113.171,84.441 112.157,85.358 C111.143,86.275 109.043,89.538 107.489,92.609 C105.936,95.679 104.065,98.422 103.332,98.703 C102.6,98.984 102,99.806 102,100.529 C102,101.252 100.2,103.385 98,105.268 C93.604,109.031 93.259,110.649 95.5,117 C96.493,119.813 97,125.058 97,132.503 C97,147.054 97.941,148.188 104.758,141.849 C107.366,139.424 111.3,136.129 113.5,134.526 C122.234,128.166 123.162,126.919 122.422,122.538 C121.531,117.267 119.287,114 116.555,114 C115.271,114 111.756,116.339 108.187,119.569 C104.633,122.785 101.549,124.839 100.888,124.431 C100.115,123.953 99.949,121.76 100.378,117.661 C100.871,112.938 101.618,110.961 103.756,108.718 C107.502,104.788 113.983,102 119.373,102 C123.036,102 124.238,102.487 125.949,104.662 C127.101,106.127 128.294,108.489 128.6,109.912 C128.905,111.336 129.536,113.4 130,114.5 C132.167,119.632 132.89,128.897 134.919,177.5 L135.795,198.5 L133.465,200.909 C131.199,203.253 131.063,203.271 128.48,201.579 C126.408,200.221 125.957,199.307 126.431,197.419 C127.147,194.567 126.179,190 124.859,190 C124.351,190 123.6,190.907 123.19,192.015 C122.78,193.123 118.242,197.623 113.106,202.015 C106.467,207.692 102.992,210 101.084,210 C98.136,210 96,208.391 96,206.171 C96,205.385 94.468,203.047 92.597,200.975 L89.193,197.208 L89.422,180.631 C89.548,171.513 89.298,159.429 88.868,153.777 C88.437,148.124 87.814,138.775 87.484,133 C87.154,127.225 86.419,120.089 85.849,117.143 C85.112,113.327 85.128,111.472 85.907,110.693 C86.508,110.092 87,108.498 87,107.151 C87,105.652 88.401,103.341 90.614,101.192 C95.313,96.629 100.56,88.37 102.609,82.313 C103.505,79.666 105.01,75.7 105.953,73.5 C108.413,67.764 110.128,62.879 110.693,60 C110.962,58.625 111.837,56.038 112.638,54.25 Z M104.762,5.929 C106.49,3.462 108.077,3.491 110.811,6.039 C112.63,7.733 113.03,9.297 113.18,15.289 C113.279,19.255 113.259,23.962 113.136,25.75 C113.014,27.537 113.161,29 113.464,29 C113.767,29 117.534,25.366 121.835,20.924 C128.909,13.618 129.972,12.879 132.977,13.174 C135.027,13.375 136.72,14.265 137.399,15.5 C138.005,16.6 138.848,17.758 139.273,18.073 C140.388,18.9 137.849,29.35 136.302,30.3 C135.586,30.74 135,31.883 135,32.841 C135,33.8 132.991,36.555 130.535,38.965 C125.696,43.715 124.69,43.354 125.219,37.057 C125.633,32.141 123.444,32.205 120.921,37.185 C119.718,39.558 117.444,43.14 115.867,45.144 C114.29,47.148 113,49.237 113,49.785 C113,50.334 111.802,51.084 110.338,51.451 C108.397,51.939 107.145,51.589 105.719,50.163 C103.919,48.363 103.748,46.591 103.586,28.032 C103.451,12.478 103.72,7.417 104.762,5.929 Z M143.572,232.884 C144.589,231.237 153.395,232.684 157.79,235.22 C159.831,236.398 162.983,238.142 164.796,239.096 C166.608,240.05 168.633,241.267 169.296,241.799 C169.958,242.331 172.797,243.957 175.604,245.412 C180.816,248.113 184.874,250.803 203.644,264 C214.017,271.293 226,281.518 226,283.075 C226,284.292 220.929,290 219.848,290 C219.312,290 215.362,286.738 211.07,282.75 C203.723,275.923 200.868,273.583 195.512,270 C194.279,269.175 191.297,267.019 188.885,265.208 C182.5,260.415 167.982,250.982 164.5,249.364 C162.85,248.597 160.825,247.575 160,247.092 C159.175,246.609 157.375,245.694 156,245.059 C146.763,240.791 141.731,235.862 143.572,232.884 Z M91.906,225.659 C92.783,225.424 93.805,225.18 94.177,225.116 C95.208,224.94 99,230.081 99,231.655 C99,233.287 94.574,240.527 92.97,241.518 C92.36,241.896 91.554,243.003 91.18,243.978 C90.377,246.072 75.652,260 74.241,260 C73.707,260 72.16,260.873 70.803,261.94 C68.105,264.063 58.393,268.017 56,267.968 C53.989,267.927 50.686,263.262 51.382,261.447 C51.715,260.58 53.29,260 55.314,260 C63.261,260 81.562,243.465 88.193,230.293 C89.358,227.98 91.029,225.894 91.906,225.659 Z M129.75,72.014 C132.333,70.413 142.043,71.471 146.737,73.866 C148.987,75.014 153.004,76.439 155.664,77.033 C161.044,78.234 170.107,83.989 172.593,87.782 C173.857,89.712 173.973,90.764 173.126,92.624 C171.566,96.047 168.084,95.666 159.659,91.149 C155.708,89.031 150.354,86.98 147.761,86.591 C145.168,86.203 142.785,85.46 142.464,84.942 C142.144,84.424 140.385,84 138.555,84 C136.029,84 134.358,83.104 131.614,80.279 C127.641,76.189 127.074,73.673 129.75,72.014 Z M114.242,172.985 C106.253,180.74 103.839,182.166 102.466,179.945 C102.107,179.364 101.083,179.03 100.189,179.202 C98.806,179.468 98.611,180.847 98.876,188.506 C99.169,196.98 99.841,198.943 102.463,198.985 C102.993,198.993 107.2,195.175 111.812,190.5 C118.56,183.661 120.773,182 123.14,182 L126.081,182 L125.79,173.761 C125.566,167.386 125.161,165.46 124,165.246 C123.175,165.094 118.784,168.577 114.242,172.985 Z M72.594,76.896 C73.538,75.853 75.424,75 76.787,75 C79.074,75 79.225,75.289 78.758,78.77 C78.48,80.843 77.07,84.281 75.626,86.409 C74.182,88.538 73,90.909 73,91.679 C73,94.534 68.838,101.111 66.459,102.016 C65.107,102.53 64,103.555 64,104.295 C64,106.627 59.053,110.142 56.24,109.809 C54.355,109.586 53.427,108.729 52.894,106.718 C52.251,104.293 52.95,102.963 58.328,96.384 C61.723,92.23 65.935,86.573 67.689,83.812 C69.443,81.051 71.651,77.939 72.594,76.896 Z M116.953,145.139 C114.504,147.453 110.365,150.849 107.756,152.685 C103.688,155.549 102.733,155.85 101.052,154.8 C97.706,152.711 97.375,154.051 98.595,164.75 C98.924,167.637 99.622,170 100.146,170 C104.009,170 116,158.588 116,154.911 C116,153.135 117.136,152.587 122.5,151.775 C124.191,151.519 124.5,150.705 124.5,146.5 C124.5,139.98 122.748,139.664 116.953,145.139 Z M70.882,49.381 C72.872,48.67 75.011,48.068 75.635,48.044 C77.53,47.971 80,52.715 80,56.43 C80,60.403 78.008,62 73.052,62 C71.359,62 69.094,62.549 68.02,63.219 C66.343,64.267 65.639,64.028 63.034,61.532 C61.365,59.934 60,57.847 60,56.894 C60,55 65.195,51.413 70.882,49.381 Z"/>
</svg>

