<svg xmlns="http://www.w3.org/2000/svg" width="300" height="300" viewBox="0 0 300 300" version="1.1">
  <defs/>
  <path d="M113.578,84.231 C116.491,82.545 118.401,82.114 121,82.555 C129.962,84.074 132.294,88.873 135.554,112.5 C137.495,126.564 138.557,155.537 137.164,156.399 C136.565,156.769 136.372,159.202 136.693,162.318 C137.166,166.896 136.919,167.982 134.868,170.367 L132.496,173.124 L127.998,171.084 C125.524,169.962 122.558,169.034 121.406,169.022 C120.254,169.01 116.712,171.274 113.536,174.054 C107.366,179.453 104.219,180.137 102.592,176.433 C102.092,175.296 100.292,173.452 98.592,172.334 L95.5,170.301 L95.388,143.9 C95.278,118.027 94.52,105.505 92.944,103.49 C92.509,102.935 91.837,99.683 91.45,96.263 C90.757,90.137 90.787,90.031 93.499,89 C95.845,88.108 96.748,88.333 99.626,90.528 C101.481,91.944 103,93.529 103,94.051 C103,94.573 103.862,95 104.917,95 C106.284,95 107.238,93.781 108.244,90.75 C109.298,87.577 110.649,85.925 113.578,84.231 Z M75.537,6.605 C77.445,4.698 78.122,4.643 81.385,6.13 C85.239,7.885 86.214,11.453 85.048,19.524 C83.957,27.075 83.514,29.938 84.722,31.142 C85.487,31.902 86.911,31.999 89.25,32.198 C95.844,32.758 101.298,35.318 103.105,38.702 C104.73,41.744 104.841,55.264 103.257,57.225 C102.69,57.926 101.892,60.525 101.484,63 C100.296,70.206 96.359,77.872 93.477,78.595 C89.7,79.543 86.347,78.308 81.975,74.358 C78.279,71.019 78,70.39 78,65.384 C78,62.423 78.188,60 78.418,60 C78.648,60 79.535,59.732 80.388,59.405 C81.513,58.973 82.391,59.936 83.578,62.905 C86.691,70.685 90.045,67.607 92.21,54.982 C93.812,45.641 92.658,43 86.974,43 C82.311,43 78,46.645 78,50.587 C78,51.849 77.543,53.164 76.985,53.509 C75.299,54.551 69.551,70.066 65.503,84.5 C64.578,87.8 63.005,92.075 62.009,94 C61.012,95.925 59.624,99.075 58.924,101 C58.224,102.925 56.829,105.694 55.825,107.154 C54.821,108.614 54,110.707 54,111.806 C54,114.572 47.334,118.522 45.39,116.909 C43.429,115.281 43.664,111.659 46,107.5 C47.1,105.542 48,103.475 48,102.907 C48,102.339 49.074,99.54 50.387,96.687 C51.699,93.834 53.978,88.125 55.45,84 C56.923,79.875 58.549,75.719 59.064,74.764 C59.579,73.809 60,71.874 60,70.464 C60,69.054 60.616,66.686 61.37,65.2 C64.232,59.559 67.107,49.913 66.499,47.997 C65.722,45.549 64.656,45.499 60.87,47.736 C58.205,49.31 57.679,49.33 55.216,47.952 C51.288,45.755 51.155,42.593 54.924,41.031 C56.588,40.342 58.93,38.928 60.128,37.889 C61.424,36.765 63.814,36 66.031,36 C68.079,36 70.262,35.389 70.882,34.642 C72.253,32.99 75.26,12.394 74.486,9.955 C74.181,8.995 74.655,7.488 75.537,6.605 Z M135.292,29.7 C138.887,29.004 150.704,28.949 152.455,29.621 C156.907,31.329 157.404,39.706 153.664,50 C151.722,55.345 151.611,57.405 153.134,59.844 C154.025,61.27 153.893,62.233 152.519,64.33 C151.557,65.799 150.07,67 149.214,67 C148.358,67 144.736,68.423 141.165,70.163 L134.672,73.327 L129.868,67.913 C127.225,64.936 125.049,61.566 125.032,60.424 C125.014,59.283 123.875,57.292 122.5,56 C121.125,54.708 120,52.826 120,51.817 C120,50.808 118.65,48.119 117,45.841 C113.872,41.523 113.149,37.251 115.2,35.2 C116.876,33.524 121.508,33.702 123,35.5 C125.192,38.141 128.652,37.299 130.96,33.564 C132.128,31.674 134.078,29.936 135.292,29.7 Z M133.25,209.619 C135.295,208.723 145.302,210.094 147.999,211.639 C149.375,212.427 152.525,214.377 155,215.972 C157.475,217.567 162.2,220.486 165.5,222.458 C168.8,224.429 172.4,226.589 173.5,227.257 C185.078,234.285 188.391,236.215 190.287,237.036 C192.562,238.022 193.417,238.527 200.829,243.27 C203.211,244.793 206.586,246.655 208.329,247.407 C210.073,248.158 213.899,250.85 216.832,253.387 C219.764,255.924 222.723,258 223.407,258 C225.81,258 229.167,262.674 228.826,265.545 C228.207,270.765 223.032,271.355 217.981,266.781 C210.269,259.798 196.077,250 193.675,250 C192.924,250 191.495,249.1 190.5,248 C189.505,246.9 188.318,246 187.863,246 C187.408,246 184.215,244.303 180.768,242.23 C177.32,240.156 172.025,237.358 169,236.012 C165.975,234.667 161.025,231.94 158,229.953 C154.975,227.966 150.588,225.281 148.25,223.986 C145.912,222.691 144,221.265 144,220.816 C144,220.367 143.348,220 142.55,220 C141.753,220 139.053,218.618 136.55,216.929 C132.087,213.917 130.659,210.754 133.25,209.619 Z M98.073,197.635 C100.527,194.514 100.802,194.485 103.843,197.019 C105.271,198.208 106.386,200.462 106.698,202.783 C107.241,206.83 106.164,208.691 99.389,215.413 C97.679,217.111 94.605,220.72 92.558,223.433 C87.706,229.866 80.905,234.637 75.413,235.461 C73.011,235.821 70.785,236.54 70.464,237.058 C69.446,238.706 66.595,238.069 63.5,235.502 L60.5,233.014 L63.306,230.507 C64.91,229.074 67.332,228 68.961,228 C70.76,228 73.375,226.693 76.051,224.457 C78.384,222.508 81.126,220.468 82.146,219.922 C83.166,219.376 84,218.319 84,217.572 C84,216.825 84.622,215.975 85.383,215.683 C87.288,214.952 96,203.487 96,201.711 C96,200.918 96.933,199.084 98.073,197.635 Z M116.5,94.491 C115.95,94.675 114.313,95.085 112.863,95.403 C110.829,95.849 110.08,96.76 109.587,99.389 C109.235,101.264 108.119,103.855 107.107,105.149 C104.879,107.994 103.67,119.936 105.536,120.652 C106.184,120.901 109.527,119.456 112.965,117.441 C118.35,114.285 119.554,113.931 121.655,114.889 C122.997,115.5 124.498,116 124.993,116 C126.184,116 125.303,104.903 124.009,103.609 C123.454,103.054 123,101.535 123,100.234 C123,95.43 120.448,93.175 116.5,94.491 Z M121,147.082 C118.525,148.758 115.571,150.999 114.436,152.064 C112.102,154.252 109.934,154.534 108.267,152.867 C107.644,152.244 106.429,152.005 105.567,152.336 C103.657,153.069 103.379,160.979 105.2,162.8 C107.281,164.881 111.587,164.11 115.574,160.942 C118.447,158.658 120.268,157.956 122.76,158.171 C127.033,158.539 127.965,157.037 127.985,149.75 C128.003,142.992 127.389,142.758 121,147.082 Z M122.646,126.064 C120.026,128.125 112.832,129.001 107.5,127.91 C105.417,127.483 104.926,129.624 104.992,138.858 C105.042,145.863 107.827,145.763 115,138.5 C120.195,133.24 123.162,131.834 124.5,134 C124.84,134.55 125.709,135 126.432,135 C127.351,135 127.689,133.644 127.556,130.483 C127.303,124.494 126.062,123.377 122.646,126.064 Z M135.925,41.254 C135.059,41.939 133.613,43.633 132.712,45.017 C131.159,47.405 131.208,47.802 133.665,52.767 C135.089,55.645 136.572,58 136.96,58 C137.348,58 139.061,56.263 140.768,54.139 C143.101,51.236 143.949,49.066 144.185,45.389 L144.5,40.5 L141,40.254 C139.075,40.119 136.791,40.569 135.925,41.254 Z"/>
</svg>

