<svg xmlns="http://www.w3.org/2000/svg" width="300" height="300" viewBox="0 0 300 300" version="1.1">
  <defs/>
  <path d="M48.208,69.25 C48.778,68.563 49.617,68 50.071,68 C51.62,68 56,72.725 56,74.396 C56,76.503 58.77,77.63 60.267,76.133 C60.89,75.51 62.944,75 64.832,75 C67.471,75 69.041,75.824 71.63,78.569 C73.482,80.533 75.252,83.345 75.564,84.819 C75.876,86.294 76.777,88.694 77.566,90.154 C78.592,92.053 79,96.339 79,105.204 C79,112.258 79.437,118.037 80.015,118.615 C80.669,119.269 80.936,130.287 80.765,149.565 L80.5,179.5 L78.26,179.818 C76.653,180.047 75.689,179.411 74.849,177.568 C73.315,174.202 71.406,174.315 69.562,177.881 C67.061,182.717 62.349,186 57.91,186 C55.744,186 53.139,186.521 52.119,187.158 C51.099,187.795 49.486,188.017 48.534,187.651 C46.958,187.047 46.845,185.433 47.278,169.743 C47.539,160.26 48.302,148.092 48.973,142.704 C49.976,134.655 49.919,128.862 48.655,110.204 C46.878,83.972 46.737,71.022 48.208,69.25 Z M159.516,72.668 C164.457,70.671 169.781,69.03 171.346,69.019 C179.269,68.966 184.552,77.954 183.666,89.982 C182.89,100.511 182.009,104.087 178.407,111.331 C177.633,112.888 177,114.787 177,115.551 C177,116.315 175.672,117.922 174.049,119.122 C169.955,122.149 169.528,123.87 172.583,125.031 C174.699,125.836 175.074,126.545 174.813,129.249 L174.5,132.5 L156,137.275 C127.503,144.629 124.892,145.358 122.977,144.512 C122.702,144.39 122.442,144.236 122.122,144.065 C117.901,141.806 120.207,138.64 129.817,133.5 C138.753,128.721 142.093,120 134.988,120 C128.725,120 123.828,111.275 127.982,107.516 C129.993,105.696 130.105,105.702 132.875,107.75 C140.126,113.11 142.581,110.165 139.863,99.369 C138.811,95.193 138.531,94.901 136.151,95.498 C134.734,95.854 131.624,97.462 129.238,99.072 C126.852,100.683 124.337,102 123.65,102 C119.965,102 118.578,94.546 121.75,91.789 C122.713,90.952 128,88.034 133.5,85.305 C139,82.575 145.082,79.432 147.016,78.32 C148.95,77.207 154.575,74.664 159.516,72.668 Z M152.384,160.504 C158.47,157.72 162.06,157.463 166.046,159.524 C170.839,162.002 171.649,165.586 172.324,187.282 C172.661,198.135 173.401,207.881 173.968,208.941 C175.495,211.794 175.344,251.256 173.8,252.8 C171.609,254.991 166.944,254.158 163.253,250.917 C160.765,248.733 159.123,248.01 157.621,248.437 C156.454,248.769 151.725,249.719 147.111,250.549 C140.177,251.797 138.381,251.833 136.76,250.756 C132.331,247.816 130.81,239.238 129.088,207.5 C128.581,198.15 127.696,185.565 127.123,179.534 C126.011,167.844 126.234,167.047 130.628,167.015 C133.866,166.992 135.315,169.512 137.122,178.313 C138.332,184.208 138.504,187.124 137.767,189.239 C137.171,190.947 137.026,196.081 137.411,201.813 C137.768,207.141 138.31,218.025 138.614,226 C138.919,233.975 139.565,240.912 140.051,241.416 C140.584,241.971 144.204,241.862 149.216,241.141 C153.772,240.486 159.525,239.848 162,239.725 L166.5,239.5 L166.378,229.5 C166.201,215.052 164.973,204 163.543,204 C162.886,204 161.292,205.125 160,206.5 C158.708,207.875 157.14,209 156.514,209 C155.889,209 154.505,209.803 153.439,210.785 C152.372,211.767 150.4,213.333 149.056,214.265 C146.793,215.834 146.479,215.839 144.806,214.325 C141.935,211.726 142.629,209.552 148.559,202.561 C154.293,195.803 157.896,193.838 160.537,196.031 C161.368,196.721 162.299,197.034 162.606,196.728 C162.912,196.421 162.841,190.522 162.448,183.619 C161.595,168.644 160.629,166.875 154.668,169.365 C152.533,170.257 150.097,172.47 148.548,174.924 C147.133,177.166 145.321,179 144.523,179 C142.105,179 140.974,175.678 142.056,171.758 C143.492,166.558 146.635,163.133 152.384,160.504 Z M159.56,83.066 C154.643,85.228 150.296,87.521 149.9,88.163 C149.227,89.251 149.5,93.406 150.602,98.821 C151.138,101.459 153.012,101.268 154.512,98.421 C158.506,90.841 161.209,89.363 164.477,92.974 C167.129,95.905 165.805,101.993 161.138,108.325 C159.04,111.171 156.807,114.472 156.175,115.66 C155.543,116.848 153.67,119.176 152.013,120.833 C146.929,125.917 148.215,127.492 156.597,126.445 C160.417,125.967 162.324,125.241 162.686,124.125 C163.869,120.482 166.138,116 166.799,116 C167.186,116 168.561,113.862 169.853,111.25 C171.145,108.638 172.606,105.719 173.101,104.764 C173.595,103.809 174,101.25 174,99.079 C174,96.907 174.415,94.038 174.923,92.703 C175.521,91.129 175.427,88.379 174.655,84.887 C173.625,80.228 173.128,79.475 170.982,79.317 C169.617,79.217 164.477,80.903 159.56,83.066 Z M147.203,27.256 C147.776,26.565 148.948,26 149.808,26 C151.799,26 156,29.906 156,31.756 C156,35.983 138.827,60.304 136.196,59.803 C134.275,59.437 133.366,55.502 134.785,53.695 C135.302,53.038 136.005,51.32 136.349,49.877 C136.889,47.61 136.399,46.871 132.737,44.427 C123.821,38.479 122.311,35.815 125.481,31.629 C127.881,28.459 134.262,30.928 136.089,35.735 C137.5,39.445 140.005,39.731 142.599,36.478 C143.853,34.906 145.167,32.47 145.52,31.065 C145.872,29.66 146.63,27.946 147.203,27.256 Z M46.2,205.2 C47.863,203.537 50.012,203.701 52.171,205.655 C54.506,207.768 54.47,208.965 51.894,214.761 C48.057,223.395 46.543,226.037 41.796,232.379 C33.713,243.178 25.703,246.818 21.039,241.811 C19.918,240.608 19,239.274 19,238.847 C19,237.749 22.518,236 24.726,236 C26.872,236 33.753,229.117 36.724,224 C41.888,215.103 45,208.994 45,207.754 C45,207.009 45.54,205.86 46.2,205.2 Z M62.821,88.25 C61.963,88.938 60.266,91.549 59.051,94.053 C57.096,98.083 56.91,99.637 57.436,107.553 C57.763,112.474 58.136,119.16 58.265,122.412 C58.53,129.082 59.954,130.427 62.946,126.834 C64.015,125.55 66.319,122.803 68.067,120.729 C71.061,117.175 71.208,116.628 70.62,111.229 C70.276,108.078 69.705,102.35 69.35,98.5 C68.764,92.136 66.855,87 65.076,87 C64.694,87 63.68,87.563 62.821,88.25 Z M70.75,213.08 C71.713,212.519 74.432,212.047 76.793,212.03 C81.543,211.997 84.587,213.972 99.408,226.706 C108.821,234.792 109.884,236.23 108.07,238.416 C105.164,241.917 100.357,239.509 83.889,226.302 C80.254,223.386 76.458,221 75.454,221 C73.324,221 69,217.232 69,215.375 C69,214.674 69.787,213.641 70.75,213.08 Z M98.051,90.438 C99.871,88.246 105.986,88.936 107.399,91.494 C108.49,93.47 114.623,102.995 118.161,108.21 C119.173,109.7 120,111.336 120,111.845 C120,112.355 120.672,114.06 121.494,115.636 C123.399,119.288 123.424,124.404 121.544,125.964 C119.605,127.572 118.698,126.873 115.426,121.25 C111.643,114.748 102.051,101.783 99.867,100.221 C97.498,98.526 96.372,92.462 98.051,90.438 Z M65.218,160.436 C62.863,161.727 60.085,163.006 59.046,163.278 C57.134,163.778 55.017,169.282 55.006,173.781 C54.994,178.511 60.472,177.396 63.646,172.022 C64.609,170.392 67.049,168.397 69.068,167.589 C73.294,165.899 74.336,164.015 72.997,160.491 C71.837,157.441 70.696,157.433 65.218,160.436 Z M66.5,135 C64.424,136.65 62.167,138 61.485,138 C59.273,138 58.167,140.398 57.448,146.76 C56.788,152.592 56.874,153 58.767,153 C59.975,153 63.057,150.515 66.397,146.851 C71.401,141.36 72,140.237 72,136.351 C72,133.958 71.612,132 71.138,132 C70.663,132 68.576,133.35 66.5,135 Z"/>
</svg>

