<svg xmlns="http://www.w3.org/2000/svg" width="300" height="300" viewBox="0 0 300 300" version="1.1">
  <defs/>
  <path d="M62,65.396 C63.463,64.61 64.127,64.193 64.81,64.157 C65.578,64.118 66.371,64.56 68.349,65.505 C70.082,66.333 72.503,68.769 73.729,70.917 C75.846,74.626 75.884,75.066 74.49,79.661 C73.682,82.323 73.017,85.457 73.011,86.628 C73.005,87.798 72.325,89.315 71.5,90 C70.485,90.843 70,93.104 70,97 C70,103.325 69.262,104.384 64.192,105.346 C62.373,105.691 60.203,106.654 59.371,107.487 C58.538,108.319 56.555,109 54.964,109 C53.117,109 51.692,109.706 51.025,110.953 C50.105,112.672 50.379,112.98 53.32,113.532 C56.651,114.157 56.662,114.179 57.88,122.329 C58.552,126.823 59.087,132.218 59.069,134.317 C59.04,137.702 59.288,138.099 61.268,137.817 C63.537,137.495 65.218,133 63.07,133 C62.481,133 62,132.55 62,132 C62,131.45 63.109,131 64.466,131 C65.856,131 68.269,129.692 70,128 C73.248,124.825 75.269,124.391 79.435,125.975 C83.125,127.378 82.848,131.523 78.749,136.239 C76.962,138.296 73.7,142.522 71.5,145.631 C69.3,148.741 66.032,152.72 64.237,154.475 C61.686,156.97 61.014,158.41 61.154,161.083 C61.253,162.962 60.985,165.287 60.56,166.25 C59.498,168.651 61.053,168.453 65.162,165.665 C69.411,162.781 74.797,161.587 76.643,163.119 C80.143,166.023 76.786,175 72.2,175 C69.746,175 68,176.939 68,179.665 C68,182.235 65.364,184 61.526,184 C59.807,184 57.588,185.36 55,188 C52.844,190.2 50.634,192 50.089,192 C49.545,192 44.694,194.925 39.31,198.5 C33.926,202.075 28.588,205 27.448,205 C26.307,205 24.121,203.692 22.59,202.094 C19.046,198.394 19.703,196.009 25.309,192.222 C29.375,189.475 29.5,189.229 29.485,183.945 C29.47,178.773 27.141,171.823 24.973,170.483 C24.438,170.153 24,168.649 24,167.141 C24,165.633 23.611,163.973 23.136,163.45 C22.662,162.928 21.747,160.929 21.105,159.01 C20.108,156.031 20.18,155.341 21.601,154.303 C23.999,152.549 28.776,155.209 29.617,158.768 C29.972,160.271 31.141,162.469 32.215,163.653 C34.017,165.641 35.377,169.449 36.684,176.171 C36.97,177.641 38.283,179.857 39.602,181.096 L42,183.349 L44.595,180.924 C48.706,177.084 50.186,173.49 49.199,169.746 C48.597,167.463 48.782,165.461 49.823,163 C51.618,158.752 51.486,144.724 49.526,131.5 C48.792,126.55 48.395,122.17 48.644,121.767 C49.62,120.187 47.741,114.166 46.142,113.747 C45.085,113.471 43.783,110.957 42.598,106.905 C41.567,103.382 39.774,99.451 38.612,98.169 C37.45,96.888 36.444,94.525 36.375,92.919 C36.306,91.314 36.178,88.987 36.089,87.75 C36,86.513 33.694,83.065 30.964,80.088 C24.233,72.749 24.285,67 31.083,67 C33.089,67 34.616,68.125 37.133,71.458 C38.985,73.91 41.111,76.164 41.857,76.468 C42.603,76.771 44.791,75.635 46.718,73.943 C48.645,72.251 52.31,69.937 54.861,68.802 C57.412,67.668 60.625,66.135 62,65.396 Z M104.936,123.578 C105.656,122.71 107.522,122 109.083,122 C112.988,122 116,125.478 116,129.989 C116,131.975 116.482,134.082 117.071,134.671 C117.659,135.259 118.316,139.062 118.53,143.121 C118.756,147.41 119.354,150.458 119.959,150.4 C120.532,150.345 121.428,150.233 121.952,150.15 C122.476,150.067 124.364,147.863 126.149,145.25 C127.933,142.637 129.986,140.05 130.71,139.5 C131.434,138.95 133.933,135.612 136.263,132.083 C142.072,123.285 143.352,122.655 147.057,126.766 C148.676,128.562 150,130.746 150,131.619 C150,134.386 137.378,148.993 125.629,159.824 L118.768,166.148 L118.329,175.015 C117.911,183.468 118.001,183.954 120.255,185.432 C126.249,189.359 132.824,190.371 159.506,191.474 C174.671,192.101 194.523,189.477 200.051,186.115 C204.474,183.425 208.02,176.949 209.874,168.174 C211.269,161.574 211.355,145.338 210,144.5 C209.45,144.16 209,143.034 209,141.998 C209,140.962 208.077,138.551 206.95,136.64 C205.344,133.917 205.083,132.459 205.746,129.901 C206.896,125.464 208.551,125.219 210.562,129.186 C211.486,131.009 212.85,133.197 213.594,134.05 C216.754,137.669 218.163,144.594 218.608,158.699 C219.003,171.232 218.809,173.631 216.949,179.15 C215.791,182.589 214.235,186.55 213.491,187.951 C211.695,191.337 205.548,196.064 201.64,197.064 C189.307,200.222 185.894,200.896 184.651,200.42 C183.874,200.122 179.698,200.519 175.369,201.303 C165.137,203.155 139.538,202.296 133.202,199.887 C131.919,199.399 128.931,199 126.562,199 C121.262,199 114.366,196.061 110.873,192.312 C107.976,189.204 106.718,183.927 106.585,174.334 C106.514,169.206 106.079,167.716 104,165.487 L101.5,162.807 L104.879,159.973 L108.257,157.14 L107.753,145.82 C107.42,138.337 106.635,132.916 105.438,129.828 C103.931,125.941 103.846,124.89 104.936,123.578 Z M116.561,41.933 C118.818,39.439 122.208,39.468 124.5,42 C125.495,43.1 127.316,44 128.546,44 C130.626,44 130.808,44.517 131.157,51.433 C131.363,55.521 131.793,59.127 132.112,59.446 C132.883,60.216 139.845,57.267 142.868,54.889 C145.899,52.505 148.726,52.503 152.336,54.883 C158.531,58.967 161.03,68.581 157.312,74.027 C154.006,78.871 147.79,85.512 145.896,86.223 C144.837,86.621 143.525,88.12 142.979,89.554 C141.789,92.685 139.562,92.294 139.343,88.917 C139.257,87.588 138.877,85.526 138.499,84.336 C137.988,82.726 138.349,81.884 139.906,81.05 C141.058,80.434 142,79.407 142,78.769 C142,78.13 143.178,75.908 144.617,73.831 C146.057,71.753 146.971,69.367 146.649,68.527 C145.785,66.275 142.659,66.67 140.143,69.348 C138.826,70.75 135.711,72.194 132.412,72.932 C128.124,73.892 126.684,74.701 125.983,76.545 C124.55,80.314 121.253,83 118.059,83 C116.441,83 114.843,82.555 114.507,82.011 C113.473,80.338 116.829,74.584 121.528,69.972 C126.291,65.298 126.806,63.65 124.468,60.559 C123.661,59.491 123,57.793 123,56.784 C123,55.776 121.969,54.559 120.709,54.079 C117.681,52.928 116.381,51.199 115.521,47.183 C114.99,44.699 115.251,43.38 116.561,41.933 Z M86.646,66.452 C89.74,63.584 91.352,63.467 95.676,65.792 C98.926,67.539 109,78.343 109,80.08 C109,80.609 110.125,81.555 111.5,82.182 C113.427,83.06 114,84.073 114,86.601 C114,88.406 114.439,90.154 114.976,90.485 C115.513,90.817 115.897,92.981 115.828,95.294 C115.76,97.608 115.883,100.148 116.102,100.941 C116.834,103.591 113.539,103.077 109.75,99.95 C107.315,97.94 106,96.011 106,94.45 C106,93.015 105.031,91.411 103.595,90.47 C102.273,89.604 100.92,87.816 100.589,86.499 C100.258,85.181 98.14,82.617 95.881,80.801 C88.087,74.537 84,70.764 84,69.836 C84,69.324 85.191,67.801 86.646,66.452 Z M57.465,78.952 C56.346,79.405 54.829,80.502 54.093,81.388 C53.357,82.275 51.46,83 49.878,83 C46.903,83 46.667,83.445 46.964,88.5 C47.159,91.815 49.313,94 52.386,94 C54.643,94 60,89.312 60,87.337 C60,86.628 60.898,84.575 61.996,82.774 C63.094,80.973 63.994,79.162 63.996,78.75 C64.001,77.775 60.069,77.896 57.465,78.952 Z"/>
</svg>

