<svg xmlns="http://www.w3.org/2000/svg" width="300" height="300" viewBox="0 0 300 300" version="1.1">
  <defs/>
  <path d="M132.357,105.512 C133.735,101.921 141,106.157 141,110.552 C141,111.764 141.675,113.315 142.5,114 C143.325,114.685 144,116.15 144,117.256 C144,119.841 146.087,127.214 147.169,128.45 C147.626,128.973 148,130.828 148,132.574 C148,134.32 148.633,137.543 149.407,139.737 C151.639,146.063 153.021,192.6 151.805,220.5 L151.5,227.5 L171,227.157 C196.207,226.713 219.545,228.637 235.5,232.475 C238.8,233.269 243.142,234.173 245.149,234.485 C252.04,235.557 256.186,240.941 252.484,244.013 C250.856,245.365 245.907,244.772 233,241.68 C229.425,240.824 222.45,239.604 217.5,238.97 C212.55,238.336 206.025,237.308 203,236.687 C196.271,235.304 160.656,235.421 149.5,236.863 C134.48,238.804 123.506,240.879 109.552,244.416 C96.46,247.735 95.491,247.849 93.758,246.281 C90.302,243.153 91.916,240.773 99.5,237.813 C103.35,236.311 109.132,234.546 112.35,233.891 C117.867,232.768 118.297,232.467 119.907,228.6 C121.346,225.146 121.493,222.845 120.843,214 C120.418,208.225 119.834,199.225 119.545,194 C119.256,188.775 118.771,183.044 118.467,181.264 C117.376,174.875 121.362,172.043 126.074,175.859 C128.2,177.581 128.421,178.748 129.047,191.609 C129.419,199.249 130.061,206.293 130.474,207.263 C130.896,208.255 130.719,209.634 130.07,210.416 C129.344,211.291 129.024,214.9 129.208,220.153 L129.5,228.5 L135.321,228.379 C138.522,228.313 141.523,227.863 141.991,227.379 C143.356,225.966 144.095,185.775 143.036,170.5 C141.562,149.229 140.251,141.41 135.157,123.5 C132.733,114.981 131.576,107.547 132.357,105.512 Z M70.655,153.829 C72.804,151.454 74.255,151.52 76.595,154.102 C78.218,155.893 78.549,158.11 78.829,169.102 C79.195,183.418 80.275,185.303 83.965,178.069 C85.068,175.907 87.992,172.243 90.463,169.927 C92.934,167.611 95.213,164.903 95.529,163.909 C96.273,161.563 99.694,160.501 101.548,162.04 C103.957,164.039 103.261,168.955 99.938,173.402 C92.442,183.433 89.163,188.033 86.449,192.323 C84.824,194.891 82.648,197.049 81.52,197.211 C79.682,197.474 79.439,198.492 78.82,208.487 C78.446,214.53 78.305,219.639 78.507,219.84 C79.158,220.492 87.761,212.816 89.024,210.456 C91.289,206.222 100.578,199.051 104.166,198.765 C107.227,198.522 107.525,198.752 107.801,201.585 C107.984,203.463 107.495,205.174 106.551,205.958 C105.698,206.666 104.999,207.752 104.998,208.372 C104.996,209.929 93.33,221.163 82.5,230.038 C77.55,234.094 73.275,237.658 73,237.956 C71.926,239.124 66.327,242.779 63,244.485 C61.075,245.472 59.275,246.561 59,246.906 C56.904,249.532 51.396,253 49.321,253 C47.931,253 44.671,254.194 42.075,255.653 C36.707,258.67 32.57,258.371 31.464,254.886 C30.588,252.126 32.313,250.482 40.725,246.061 L47.5,242.5 L47.229,235.029 C47.081,230.921 46.518,227.118 45.979,226.579 C45.441,226.041 45,224.651 45,223.491 C45,222.331 44.339,220.509 43.532,219.441 C42.724,218.374 42.049,216.632 42.032,215.571 C41.997,213.454 40.258,207.497 38.877,204.764 C37.588,202.211 37.809,193.591 39.2,192.2 C42.758,188.642 51.317,192.671 49.08,196.851 C47.737,199.36 47.688,203.471 48.974,205.764 C50.976,209.332 54.891,222.698 55.541,228.184 C55.956,231.694 56.761,234.078 57.645,234.417 C58.442,234.723 62.203,232.693 66.13,229.836 C72.872,224.933 73.151,224.569 72.443,221.603 C72.036,219.896 71.597,211.15 71.468,202.166 C71.318,191.779 70.826,185.426 70.116,184.716 C69.401,184.001 69,178.581 69,169.629 C69,158.032 69.281,155.347 70.655,153.829 Z M76.168,97.974 C80.452,96.935 84.005,97.64 86.417,100.007 C87.972,101.534 88.333,103.32 88.333,109.478 C88.333,113.926 87.851,117.549 87.167,118.233 C86.525,118.875 86,120.149 86,121.065 C86,121.981 85.1,123.874 84,125.273 C82.9,126.671 82,128.424 82,129.167 C82,129.911 82.9,131.081 84,131.768 C85.107,132.459 86,134.1 86,135.442 C86,137.356 83.958,139.357 76.312,144.934 C70.983,148.82 65.863,152 64.934,152 C62.138,152 60.686,149.325 61.329,145.361 C61.7,143.076 61.378,140.698 60.458,138.919 C59.656,137.368 59,134.976 59,133.603 C59,129.713 54.849,122.84 48.427,116.094 C41.85,109.186 38.729,102.237 40.983,99.52 C43.327,96.696 46.472,97.824 52.073,103.494 C57.482,108.971 60.569,110.288 61.613,107.565 C62.432,105.431 72.341,98.901 76.168,97.974 Z M170.472,152.599 C172.545,150.07 175.087,148 176.12,148 C178.194,148 182,151.337 182,153.156 C182,154.645 177.809,160.124 172.234,165.924 C169.814,168.441 166.233,173.088 164.275,176.25 C160.671,182.072 157.585,183.689 156.329,180.414 C154.659,176.064 159.351,164.429 165.025,158.849 C165.948,157.941 168.4,155.128 170.472,152.599 Z M70,112 C67.525,113.645 64.713,114.993 63.75,114.996 C61.196,115.002 61.52,119.07 64.5,124.407 C65.875,126.87 67,130.294 67,132.016 C67,136.756 69.621,135.473 73.163,129 C74.819,125.975 76.584,123.073 77.087,122.55 C77.589,122.028 78,120.747 78,119.704 C78,118.662 78.755,116.531 79.677,114.97 C81.066,112.618 81.131,111.863 80.054,110.566 C78.112,108.225 75.015,108.666 70,112 Z"/>
</svg>

