<svg xmlns="http://www.w3.org/2000/svg" width="300" height="300" viewBox="0 0 300 300" version="1.1">
  <defs/>
  <path d="M134.035,169.934 C135.435,167.319 138.309,167.5 141.694,170.418 C144.313,172.676 144.494,173.324 144.411,180.168 C144.362,184.201 143.575,189.653 142.661,192.285 C140.453,198.646 140.565,200.456 143.25,201.832 C146.489,203.492 148.69,204.924 156,210.124 C159.575,212.667 163.85,215.487 165.5,216.39 C167.15,217.293 172.325,220.908 177,224.422 C181.675,227.936 188.338,232.521 191.807,234.609 C198.891,238.874 218.094,253.174 225.105,259.406 C240.973,273.511 261.22,287.05 269.691,289.22 C271.003,289.557 272.507,291.279 273.441,293.513 C275.965,299.554 275.683,300 269.341,300 C264.317,300 263.105,299.564 258.539,296.117 C255.711,293.982 251.143,291.092 248.388,289.696 C245.633,288.3 241.511,285.66 239.228,283.829 C236.946,281.998 232.984,278.925 230.425,277 C227.866,275.075 221.957,270.27 217.294,266.322 C212.631,262.375 206.945,257.884 204.658,256.342 C202.371,254.801 198.475,251.785 196,249.639 C193.525,247.494 190.375,245.232 189,244.613 C185.795,243.169 179.104,238.731 171.5,233.005 C168.2,230.52 163.588,227.252 161.25,225.743 C158.912,224.234 155.177,221.762 152.948,220.25 C150.72,218.738 148.134,217.05 147.202,216.5 C146.27,215.95 143.768,214.184 141.641,212.576 C137.316,209.307 134.777,209.82 134.149,214.089 C133.957,215.401 132.957,217.655 131.929,219.1 C130.901,220.544 128.477,225.05 126.544,229.113 C120.157,242.534 110.763,257.193 104.03,264.245 C99.35,269.146 96.659,270.16 95.607,267.418 C94.419,264.322 95.04,262.024 97.965,258.693 C99.595,256.836 101.394,254.233 101.962,252.908 C103.075,250.315 105.153,246.81 106.059,246 C106.577,245.537 108.098,242.909 114.738,231 C116.118,228.525 117.641,226.073 118.124,225.55 C118.606,225.028 119,223.987 119,223.238 C119,222.489 120.063,219.542 121.363,216.688 C122.662,213.835 124.282,209.925 124.961,208 C125.641,206.075 127.117,202.749 128.241,200.61 C130.682,195.965 132.997,184.566 132.999,177.184 C132.999,174.261 133.466,170.998 134.035,169.934 Z M53.017,140.479 C56.162,136.69 61.909,141.629 61.853,148.072 C61.704,165.268 62.047,174 62.871,174 C63.402,174 64.745,172.531 65.855,170.735 C68.238,166.879 73.186,162.998 75.71,163.005 C76.694,163.008 78.767,164.024 80.316,165.263 C82.978,167.393 83.054,167.668 81.702,170.273 C80.124,173.315 78.494,174.818 71.154,180 C65.284,184.145 61.135,191.066 60.301,198.102 C59.644,203.657 60.518,204.207 64.043,200.455 C65.632,198.762 67.283,198.008 68.967,198.205 C72.79,198.65 72.856,202.336 69.102,205.744 C67.432,207.26 64.269,210.188 62.073,212.25 C59.876,214.312 57.605,216 57.025,216 C56.103,216 47.793,222.101 42.75,226.48 C41.788,227.316 40.707,228 40.348,228 C39.989,228 37.852,229.372 35.598,231.048 C28.736,236.153 19.889,241 17.436,241 C14.971,241 12,237.663 12,234.896 C12,233.036 15.767,229.97 24.178,224.984 L29.857,221.618 L29.519,215.059 C29.333,211.452 28.71,206.475 28.133,204 C25.496,192.681 24.929,187.791 26.091,186.39 C28.911,182.992 34.449,186.859 35.625,193.048 C35.986,194.947 36.642,196.965 37.084,197.534 C38.204,198.977 38.62,212.122 37.614,214.25 C36.307,217.013 39.267,216.427 44.519,212.882 C49.906,209.247 50.349,208.296 51.929,197 C53.269,187.416 53.374,179.262 52.438,157.229 C51.953,145.82 52.1,141.585 53.017,140.479 Z M100.192,71.268 C100.856,70.469 102.254,70.101 103.43,70.417 C104.569,70.723 106.056,70.979 106.736,70.986 C107.416,70.994 109.096,72.699 110.47,74.775 C112.815,78.319 112.904,78.917 111.914,84.525 C111.334,87.811 110.602,92.525 110.288,95 C109.973,97.475 109.105,100.388 108.358,101.473 C107.611,102.557 107.005,104.582 107.01,105.973 C107.016,107.363 106.079,111.425 104.928,115 C101.801,124.716 100.682,128.086 101.605,128.793 C102.118,129.186 103.264,128.755 105.048,128.133 C108.266,127.011 111.613,127.933 113.2,130.377 C114.208,131.931 113.002,140.113 111.38,142.715 C110.621,143.933 110,145.488 110,146.172 C110,148.301 100.011,167.68 97.953,169.542 C96.879,170.514 96,171.931 96,172.69 C96,173.449 95.286,175.16 94.414,176.491 C92.499,179.413 93.102,180.644 96.852,181.468 C98.408,181.809 101.553,183.719 103.841,185.712 C107.964,189.304 108,189.395 108,196.2 C108,199.975 107.383,204.512 106.629,206.282 C104.88,210.386 100.678,214.281 98.475,213.841 C97.014,213.549 96.752,212.043 96.635,203.299 C96.552,197.023 96.05,192.649 95.331,191.93 C94.439,191.039 92.952,191.052 89.06,191.986 C85.031,192.952 83.646,192.951 82.479,191.982 C80.57,190.398 80.589,185.928 82.52,182.331 C83.356,180.774 84.489,178.375 85.037,177 C85.585,175.625 87.391,172.25 89.049,169.5 C90.708,166.75 92.304,163.825 92.596,163 C92.889,162.175 95.349,156.995 98.064,151.488 C100.779,145.982 103,140.919 103,140.238 C103,136.409 96.758,141.794 95.867,146.393 C95.665,147.434 94.712,148.782 93.75,149.388 C90.102,151.685 84.401,144.79 86.788,140.968 C89.051,137.344 94.825,119.774 96.636,111 C97.601,106.325 98.795,102.222 99.29,101.882 C99.791,101.538 99.932,96.444 99.608,90.382 C98.795,75.151 98.865,72.868 100.192,71.268 Z M26.743,82.59 C27.152,82.182 28.839,82.106 30.493,82.423 C33.425,82.983 35.345,84.7 39.567,90.534 L41.633,93.39 L45.084,91.257 C46.981,90.084 49.618,87.971 50.943,86.561 C55.243,81.983 63.964,81.093 67.392,84.881 C68.214,85.789 69.381,89.626 69.985,93.407 C71.004,99.786 70.936,100.439 69.042,102.456 C67.919,103.651 67,105.884 67,107.417 C67,108.951 65.778,112.379 64.285,115.036 C61.705,119.624 61.655,119.961 63.285,121.762 C66.312,125.108 65.47,128.647 60.85,131.994 C58.567,133.647 56.285,135 55.779,135 C55.272,135 54.182,135.675 53.357,136.5 C51.294,138.564 48.751,138.379 45.65,135.939 C43.363,134.141 43.055,133.218 43.227,128.689 C43.35,125.436 42.747,122.008 41.61,119.5 C40.612,117.3 39.339,114.375 38.781,113 C37.601,110.093 37.115,109.095 33.576,102.327 C32.13,99.561 29.833,96.253 28.473,94.975 C26.529,93.148 26,91.656 26,87.992 C26,85.43 26.334,82.999 26.743,82.59 Z M163.25,137.662 C167.182,136.076 170,137.887 170,142 C170,143.43 170.369,145.028 170.821,145.55 C171.272,146.072 172.47,151 173.483,156.5 C174.495,162 175.6,166.827 175.938,167.226 C176.276,167.626 178.537,166.138 180.963,163.921 C186.387,158.963 192.148,155.074 197.766,152.577 L202.032,150.682 L204.516,153.015 C205.882,154.299 207,155.712 207,156.156 C207,156.599 202.838,160.303 197.75,164.385 C192.662,168.467 185.819,174.617 182.542,178.052 C177.255,183.593 176.551,184.814 176.288,188.898 C175.251,205.013 174.28,211.834 172.752,213.75 C169.469,217.867 164.045,211.467 165.92,205.689 C167.049,202.207 167.639,174.843 166.62,173.194 C165.73,171.755 162,146.538 162,141.964 C162,139.862 162.558,137.942 163.25,137.662 Z M140.966,66.541 C143.098,63.972 147.243,64.992 148.92,68.5 C150.749,72.327 150.981,86.419 149.243,88.157 C148.56,88.84 147.997,91.223 147.994,93.45 C147.99,95.678 147.315,98.789 146.494,100.364 C144.279,104.612 144.561,107 147.277,107 C149.528,107 153.81,109.39 155.235,111.442 C155.639,112.024 155.976,114.629 155.985,117.231 C155.998,121.42 155.72,122.032 153.557,122.575 C151.812,123.013 150.141,122.446 147.712,120.594 C145.842,119.167 143.661,118 142.867,118 C142.072,118 140.133,120.465 138.557,123.477 C133.757,132.651 130.197,135.054 126.655,131.512 C125.337,130.194 125.565,129.076 128.646,121.762 C137.366,101.053 140.155,89.433 139.789,75.342 C139.664,70.529 140.049,67.646 140.966,66.541 Z M171.948,68.25 C174.825,65.211 178.527,65.348 180.639,68.572 C182.219,70.984 182.219,71.685 180.642,79.792 C179.717,84.549 178.519,88.881 177.98,89.42 C176.45,90.95 176.83,94.721 178.582,95.393 C179.452,95.727 181.947,96 184.127,96 C191.374,96 195.859,104.184 191.345,109.171 C188.933,111.837 187.415,111.469 182.01,106.911 C176.498,102.264 174.152,102.172 172.589,106.542 C171.009,110.957 166.048,117 164.004,117 C160.934,117 159.862,114.703 161.157,110.898 C161.793,109.029 162.917,106.612 163.656,105.527 C164.395,104.443 165,102.557 165,101.337 C165,100.116 165.398,98.872 165.885,98.571 C166.371,98.271 167.015,96.781 167.314,95.262 C167.614,93.743 168.532,89.582 169.355,86.015 C170.177,82.448 170.618,77.498 170.334,75.015 C169.913,71.335 170.211,70.084 171.948,68.25 Z M54.449,97.083 C54.081,97.678 51.804,99.012 49.39,100.047 C44.726,102.046 44.104,103.433 46.468,106.559 C47.276,107.626 47.951,109.294 47.968,110.264 C47.986,111.234 48.417,112.809 48.927,113.764 C49.437,114.719 50.098,116.287 50.396,117.25 C51.35,120.335 52.802,119.15 55.911,112.75 C59.059,106.269 60.978,99.417 60.252,97.25 C59.738,95.717 55.371,95.591 54.449,97.083 Z"/>
</svg>

