<svg xmlns="http://www.w3.org/2000/svg" width="300" height="300" viewBox="0 0 300 300" version="1.1">
  <defs/>
  <path d="M133.557,40.223 C134.621,38.703 136.139,38 138.357,38 C144.758,38 145.472,41.411 140.969,50.475 C139.336,53.761 138,57.075 138,57.839 C138,58.604 136.909,61.315 135.576,63.865 C134.242,66.414 132.644,70.152 132.025,72.17 C131.405,74.189 130.246,76.381 129.449,77.042 C128.652,77.704 128,78.771 128,79.414 C128,80.057 125.736,84.262 122.97,88.757 C118.535,95.964 118.09,97.171 119.21,98.965 C119.909,100.084 120.761,101 121.103,101 C121.445,101 123.424,102.35 125.5,104 C127.576,105.65 129.965,107 130.809,107 C131.652,107 133.223,107.788 134.298,108.75 C136.165,110.42 136.305,110.413 137.377,108.596 C137.995,107.548 139.738,105.239 141.25,103.464 C144.656,99.466 144.726,98 141.513,98 C139.932,98 137.747,96.635 135.511,94.25 C132.716,91.269 132.047,89.803 132.248,87.101 C132.595,82.422 134.767,81.273 140,83 C144.815,84.589 146.569,83.893 149.043,79.411 C150.352,77.039 151.412,76.444 154.766,76.195 C158.261,75.937 159.137,76.28 160.57,78.466 C163.69,83.228 161.385,89.977 153.75,98.438 C152.787,99.504 152,101.099 152,101.98 C152,102.862 149.975,105.571 147.5,108 C145.025,110.429 143,112.704 143,113.055 C143,113.407 143.9,114.732 145,116 C146.499,117.728 147,119.741 147,124.031 C147,132.554 148.337,133.163 157.126,128.642 C161.02,126.639 164.764,125 165.448,125 C166.131,125 167.505,124.1 168.5,123 C171.064,120.167 174.821,120.399 175.986,123.463 C177.254,126.798 175.44,131.749 172.666,132.522 C170.31,133.179 169.781,133.399 159.68,137.937 C155.929,139.621 152.458,141 151.965,141 C149.112,141 148.137,148.822 150.44,153.237 C151.443,155.16 151.611,156.871 151.002,158.992 C150.526,160.653 149.821,165.628 149.435,170.049 C148.782,177.542 148.889,178.253 151.011,180.511 C152.263,181.844 155.585,183.651 158.394,184.527 C161.202,185.403 165.525,186.946 168,187.956 C170.475,188.966 175.65,191.037 179.5,192.557 C183.35,194.077 187.21,195.924 188.079,196.661 C188.947,197.397 190.261,198 190.998,198 C191.735,198 200.475,201.984 210.419,206.853 C220.364,211.722 230.445,216.305 232.822,217.037 C239.821,219.192 241.994,224.249 237.826,228.686 C235.32,231.353 233.738,231.594 232.053,229.564 C231.398,228.775 229.59,227.849 228.035,227.508 C226.48,227.166 224.373,225.947 223.354,224.799 C222.334,223.651 219.025,221.611 216,220.267 C212.975,218.923 204.65,214.993 197.5,211.535 C190.35,208.076 183.488,204.936 182.25,204.556 C181.012,204.176 180,203.446 180,202.933 C180,202.42 179.132,202 178.071,202 C177.011,202 175.544,201.402 174.813,200.67 C174.081,199.939 171.842,199.074 169.837,198.748 C167.832,198.423 163.336,196.938 159.846,195.448 C156.356,193.959 152.18,192.686 150.567,192.62 L147.635,192.5 L147.334,215.5 C147.169,228.15 146.585,240.75 146.037,243.5 C145.489,246.25 144.758,255.158 144.414,263.297 C143.809,277.589 143.704,278.148 141.329,279.704 C139.025,281.214 138.743,281.188 136.839,279.283 C135.369,277.813 134.573,275.162 133.959,269.685 C133.242,263.295 133.411,261.261 135.043,256.619 C136.698,251.909 137.051,247.351 137.504,224.811 C137.795,210.34 138.282,196.559 138.587,194.188 C139.211,189.33 137.918,186.989 134.628,187.02 C132.609,187.04 131.328,188.483 119.715,203.821 C118.183,205.845 116.27,208.293 115.465,209.261 C114.659,210.23 114,211.435 114,211.939 C114,212.443 112.875,213.74 111.5,214.821 C110.125,215.903 109,217.229 109,217.767 C109,219.497 95.248,236.386 91.054,239.806 C88.824,241.625 87,243.629 87,244.259 C87,244.889 85.562,246.889 83.804,248.702 C80.254,252.365 76.706,252.949 73.829,250.345 C70.026,246.904 72.154,241.72 78.484,239.007 C81.863,237.558 84.564,234.925 90.663,227.135 C94.973,221.629 100.525,214.133 103,210.477 C107.271,204.168 111.651,198.348 116.028,193.165 C117.113,191.881 118,190.263 118,189.57 C118,188.877 118.902,187.494 120.004,186.496 C121.106,185.499 124.134,181.042 126.732,176.591 C129.331,172.141 131.996,167.6 132.656,166.5 C138.729,156.365 140.342,149 136.49,149 C135.625,149 127.979,152.411 119.498,156.58 C108.673,161.902 103.464,163.965 102.013,163.504 C99.401,162.675 96.6,158.485 97.35,156.529 C97.928,155.023 119.28,144 121.619,144 C122.318,144 126.065,142.407 129.945,140.459 L137,136.919 L137,118.841 L134.18,119.46 C131.838,119.975 130.074,119.141 123.774,114.54 C119.602,111.493 115.401,109 114.439,109 C111.962,109 105,101.369 105,98.653 C105,97.409 106.616,94.627 108.59,92.471 C110.565,90.315 112.882,87.19 113.739,85.526 C114.595,83.862 116.355,81.108 117.648,79.406 C118.942,77.704 120,75.833 120,75.248 C120,74.663 121.074,72.006 122.388,69.342 C126.49,61.023 128,57.263 128.007,55.349 C128.01,54.332 128.907,52.15 130,50.5 C131.093,48.85 131.99,46.363 131.993,44.973 C131.997,43.582 132.701,41.445 133.557,40.223 Z M37.356,70.515 C38.641,67.166 46.565,70.417 47.649,74.738 C48.343,77.503 51.844,84 52.639,84 C53.497,84 59.511,79.483 60.304,78.243 C61.481,76.401 68.556,73 71.21,73 C73.436,73 77.898,77.528 79.249,81.157 C79.893,82.887 77.707,93.697 76.098,96.742 C71.67,105.116 71.137,108.731 73.692,113.055 C75.294,115.768 75.286,116.026 73.537,117.959 C72.521,119.082 70.853,120 69.831,120 C67.809,120 61.032,124.034 61.012,125.25 C61.006,125.662 62.07,126 63.378,126 C67.321,126 68.302,128.356 68.567,138.463 C68.84,148.893 69.502,152 71.452,152 C72.177,152 73.522,150.853 74.441,149.45 C75.712,147.51 76.636,147.059 78.306,147.563 C81.004,148.377 86,152.936 86,154.584 C86,155.25 82.897,158.545 79.104,161.907 C71.192,168.922 68.996,173.244 68.466,182.847 C68.209,187.509 67.635,189.559 66.308,190.566 C63.747,192.507 61.598,192.318 59.467,189.964 C57.842,188.168 57.774,187.514 58.89,184.428 C59.738,182.083 60.085,176.072 59.943,166.214 C59.826,158.121 59.696,145.988 59.653,139.25 C59.611,132.512 59.174,127 58.682,127 C58.191,127 56.436,128.138 54.782,129.53 C52.51,131.442 51.453,131.791 50.452,130.96 C48.354,129.219 47.629,124.062 49.097,121.32 C50.125,119.398 50.147,118.466 49.202,116.952 C48.541,115.893 48,113.023 48,110.573 C48,108.123 47.55,105.84 47,105.5 C46.45,105.16 46,103.81 46,102.5 C46,101.19 45.55,99.84 45,99.5 C44.45,99.16 44,97.403 44,95.595 C44,93.787 42.606,88.526 40.901,83.904 C36.823,72.842 36.676,72.287 37.356,70.515 Z M31.988,172.514 C34.675,169.277 42,172.063 42,176.322 C42,177.536 42.903,180.215 44.008,182.275 C45.112,184.336 46.517,189.394 47.13,193.516 C48.067,199.817 48.001,201.513 46.716,204.167 C45.875,205.903 45.418,207.926 45.701,208.662 C46.466,210.656 49.437,210.28 51.575,207.917 C52.611,206.772 54.926,205.222 56.72,204.473 C60.934,202.712 66.749,198.193 75.643,189.767 C82.934,182.861 84.872,181.936 86.909,184.39 C89.146,187.086 80.596,198.559 70,207.081 C63.28,212.485 51.021,220.898 45.176,224.118 C42.798,225.428 38.748,227.701 36.176,229.169 C30.546,232.382 29.217,232.507 26.107,230.116 C22.961,227.696 23.837,223.39 27.778,221.901 C31.257,220.587 35.991,216.092 36.032,214.063 C36.049,213.203 36.724,211.626 37.532,210.559 C40.6,206.502 38.242,190.131 33.914,185.443 C31.481,182.808 30.258,174.599 31.988,172.514 Z M61.78,89.273 C59.733,91.048 57.045,93.226 55.807,94.113 C53.801,95.55 53.688,96.021 54.777,98.41 C55.45,99.886 56,103.746 56,106.988 C56,110.23 56.483,113.181 57.074,113.546 C59.906,115.296 66.668,104.343 68.994,94.238 C71.041,85.343 68.404,83.528 61.78,89.273 Z"/>
</svg>

