<svg xmlns="http://www.w3.org/2000/svg" width="300" height="300" viewBox="0 0 300 300" version="1.1">
  <defs/>
  <path d="M62.712,71.975 C66.445,71.595 69.808,71.22 70.185,71.142 C70.562,71.064 72.011,71.434 73.407,71.965 C79.494,74.279 80.047,85.808 74.591,96.645 C73.166,99.475 72,103.094 72,104.687 C72,106.802 70.778,108.783 67.472,112.027 C63.699,115.731 63.043,116.917 63.533,119.151 C63.857,120.626 63.561,122.73 62.876,123.827 C61.9,125.391 61.886,126.677 62.815,129.777 C63.467,131.952 64.006,135.705 64.014,138.116 C64.043,147.393 65.792,149.023 70.392,144.058 C77.376,136.519 79.66,134.026 81.964,134.007 C83.122,133.998 84.284,134.613 86.05,135.526 C90.419,137.785 89.833,140.506 83.75,146.203 C80.862,148.907 75.546,154.012 71.936,157.547 L65.371,163.974 L65.217,171.524 C65.106,176.989 65.4,179.007 66.282,178.834 C66.952,178.702 69.152,179.159 71.172,179.849 L74.843,181.103 L73.096,186.244 C71.699,190.352 70.762,191.57 68.424,192.313 C66.816,192.824 63.925,194.713 62,196.511 C60.075,198.309 56.925,200.563 55,201.519 C53.075,202.476 49.526,205.243 47.114,207.667 C40.678,214.136 39.706,214.465 36.072,211.408 C32.751,208.612 32.184,205.61 34.386,202.467 C38.226,196.984 38.02,186.198 33.908,177.434 C32.859,175.198 32,172.701 32,171.884 C32,171.068 31.589,169.973 31.088,169.45 C30.586,168.928 30.023,166.755 29.838,164.622 C29.34,158.905 31.645,157.837 36.373,161.594 C40.677,165.014 43.339,171.335 45.216,182.596 C46.839,192.332 48.596,193.866 53.037,189.424 C55.975,186.486 56.11,185.969 56.546,175.935 C56.796,170.196 56.558,162.35 56.017,158.5 C55.476,154.65 54.814,148.22 54.545,144.212 C54.276,140.203 53.647,136.191 53.146,135.296 C52.645,134.401 52.463,131.97 52.741,129.895 C53.491,124.304 52.401,121.434 48.699,119.25 C45.895,117.596 45.186,116.385 44.098,111.397 C43.39,108.154 42.179,104.503 41.406,103.285 C40.633,102.067 40,100.415 40,99.614 C40,98.813 37.713,94.197 34.917,89.357 C31.364,83.205 29.784,79.343 29.667,76.528 C29.503,72.571 29.558,72.503 32.82,72.655 C36.231,72.814 37.198,73.656 41.55,80.25 C44.662,84.965 46.51,84.987 48.742,80.338 C51.362,74.881 54.884,72.772 62.712,71.975 Z M197.163,147.572 C200.952,145.522 204.706,144.216 206.5,144.322 C209.128,144.478 209.54,144.915 209.82,147.844 C210.202,151.826 207.772,155 204.341,155 C203.05,155 200.314,155.9 198.261,157 C196.209,158.1 193.974,159 193.295,159 C192.616,159 191.034,160.388 189.78,162.084 C187.517,165.145 187.499,165.428 187.299,200.834 C187.189,220.45 186.845,240.325 186.535,245 C186.225,249.675 185.64,260.125 185.236,268.222 C184.581,281.333 184.268,283.177 182.38,285.065 C180.352,287.093 180.12,287.114 177.087,285.545 C175.342,284.642 173.503,282.824 173.002,281.504 C172.5,280.185 170.944,278.354 169.545,277.437 C168.145,276.52 167,275.302 167,274.729 C167,274.157 165.875,272.214 164.5,270.411 C163.125,268.608 162,266.455 162,265.626 C162,264.797 161.55,263.84 161,263.5 C160.45,263.16 160,261.874 160,260.641 C160,259.408 159.556,257.956 159.014,257.414 C158.472,256.872 157.909,254.194 157.764,251.464 C157.53,247.07 157.743,246.465 159.618,246.198 C161.288,245.959 162.313,247.016 164.466,251.198 C168.909,259.829 173.385,266.004 175,265.731 C176.213,265.526 176.681,262.418 177.446,249.489 C178.212,236.544 178.343,190.029 177.656,175.108 C177.4,169.539 175.392,169.308 167.5,173.938 C158.632,179.139 147.852,182.526 145.009,181.005 C142.356,179.585 142.167,173.238 144.75,172.306 C145.713,171.959 147.694,170.848 149.154,169.837 C150.614,168.827 152.639,167.978 153.654,167.95 C154.669,167.923 160.222,165.561 165.992,162.7 C176.424,157.53 176.489,157.475 177.182,153.297 C178.184,147.26 179.656,145 182.587,145 C184.485,145 185.361,145.738 186.15,148 C187.506,151.889 189.31,151.819 197.163,147.572 Z M177,131.046 C180.025,129.975 184.51,129.189 186.968,129.3 C190.694,129.467 191.69,129.955 192.968,132.241 C194.865,135.636 193.613,138.122 189.396,139.33 C187.803,139.786 185.15,140.638 183.5,141.222 C181.85,141.807 178.925,142.349 177,142.427 C172.43,142.612 168.426,143.668 163.5,145.99 C159.036,148.094 146.394,152.408 138,154.693 C134.975,155.516 132.073,156.597 131.55,157.095 C131.028,157.593 129.747,158 128.704,158 C127.662,158 125.614,158.61 124.154,159.355 C120.257,161.343 111.589,163.995 108.866,164.032 C107.565,164.049 105.652,164.706 104.615,165.491 C103.578,166.276 100.653,167.223 98.115,167.595 C95.577,167.968 92.465,168.659 91.199,169.131 C89.388,169.806 88.377,169.467 86.449,167.54 C83.593,164.684 83.242,160.472 85.75,159.144 C86.713,158.635 90.425,157.723 94,157.118 C101.91,155.779 106.655,154.735 114.46,152.617 C117.738,151.728 121.022,151 121.757,151 C122.923,151 137.157,145.663 151,140.036 C153.475,139.03 158.2,137.422 161.5,136.463 C164.8,135.504 168.4,134.331 169.5,133.856 C170.6,133.382 173.975,132.117 177,131.046 Z M147.008,71.136 C158.732,65.318 159.837,64.966 164.978,65.42 C168.606,65.739 170.885,66.49 171.728,67.642 C173.501,70.067 173.352,77.463 171.5,79 C170.675,79.685 170,80.912 170,81.728 C170,82.544 168.875,84.548 167.5,86.182 C166.125,87.816 165,89.715 165,90.402 C165,92.441 160.252,96.311 158.551,95.658 C156.628,94.92 156.564,92.05 158.389,88.331 C160.493,84.044 162.001,78.811 161.409,77.853 C160.488,76.362 156.603,76.944 153.5,79.038 C151.85,80.151 149.15,81.66 147.5,82.391 C142.942,84.409 139.937,85.869 135,88.465 C132.525,89.766 128.7,91.149 126.5,91.537 C122.215,92.294 114.328,95.661 113.428,97.116 C112.626,98.414 108.624,98.193 106.811,96.75 C104.626,95.012 103.797,90.656 105.272,88.658 C105.947,87.741 112.804,84.819 120.508,82.164 C128.213,79.509 140.138,74.546 147.008,71.136 Z M133.75,26.08 C136.168,24.672 136.443,24.727 138.53,27.033 C140.033,28.694 141.126,28.954 144.493,28.449 C147.516,27.995 148.946,28.23 149.857,29.328 C151.531,31.345 149.351,36.461 145.123,40.437 C142.556,42.852 142,44.147 142,47.718 C142,52.565 143.245,53.618 147.2,52.114 C149.406,51.275 149.897,51.478 150.877,53.63 C153.07,58.442 149.515,66 145.059,66 C143.448,66 141.379,67.033 139.956,68.547 C138.217,70.398 136.734,71.013 134.531,70.797 C131.793,70.529 131.469,70.125 131.182,66.618 C131.007,64.483 131.344,62.256 131.932,61.668 C133.287,60.313 133.338,49.327 131.993,48.496 C131.439,48.154 129.644,48.83 128.003,49.998 C123.498,53.206 118.894,53.645 116.58,51.088 C113.814,48.032 115.724,44.597 121.72,41.844 C130.632,37.753 132,36.374 132,31.482 C132,28.363 132.505,26.805 133.75,26.08 Z M115.5,178.61 C124.682,173.912 130,175.839 130,183.866 C130,186.496 129.344,189.484 128.532,190.559 C127.724,191.626 127.049,193.884 127.032,195.576 C126.999,198.712 125.586,200.39 119.29,204.768 C115.112,207.674 114.488,207.593 112.979,203.95 C112.056,201.722 112.003,200.307 112.78,198.7 C114.337,195.481 115.167,191 114.206,191 C113.749,191 112.1,192.33 110.543,193.956 C107.981,196.629 107.767,197.385 108.299,201.88 C108.751,205.697 108.525,207.15 107.321,208.149 C105.981,209.26 105.262,208.873 102.362,205.474 C100.497,203.289 97.965,199.498 96.735,197.052 C95.506,194.605 92.813,190.819 90.75,188.639 C88.686,186.457 87,183.655 87,182.409 C87,179.978 89.386,177 91.332,177 C93.547,177 100.036,183.482 100.842,186.5 C101.454,188.79 102.219,189.5 104.072,189.5 C105.954,189.5 106.569,188.905 106.806,186.854 C107.178,183.645 108.959,181.956 115.5,178.61 Z M135.5,98.004 C139.9,94.704 143.69,92.003 143.921,92.002 C144.153,92.001 145.165,92.745 146.171,93.655 C148.387,95.66 148.543,99.314 146.5,101.357 C145.675,102.182 145.004,103.227 145.009,103.679 C145.014,104.13 143.711,105.625 142.113,107 C139.863,108.935 139.097,110.587 138.719,114.313 C138.297,118.483 138.45,119.034 139.866,118.44 C146.313,115.735 147.102,115.574 148.775,116.624 C149.902,117.33 150.604,119.274 150.8,122.232 C151.094,126.679 151.039,126.77 147.65,127.406 C145.753,127.762 143.651,128.716 142.978,129.526 C142.305,130.337 141.104,131 140.308,131 C139.512,131 136.898,132.35 134.5,134 C129.841,137.206 127.13,137.73 125.2,135.8 C123.417,134.017 123.74,131.174 126.101,127.858 C128.48,124.517 129.766,117.592 128.189,116.617 C127.618,116.264 125.942,116.525 124.465,117.198 C122.136,118.259 121.597,118.169 120.39,116.519 C119.626,115.473 119,113.131 119,111.314 C119,108.408 119.512,107.769 123.25,106.007 C125.588,104.906 131.1,101.304 135.5,98.004 Z M138.324,201.719 C145.355,200.84 161.549,202.752 163.122,204.647 C165.011,206.923 163.011,209.304 158.407,210.261 C152.455,211.499 136.794,211.725 134.189,210.611 C132.335,209.819 132.005,209.117 132.519,207.067 C133.449,203.362 134.747,202.166 138.324,201.719 Z M64.597,81.844 C64.274,82.366 62.095,83.78 59.755,84.986 C53.228,88.35 50,91.851 50,95.565 C50,100.286 52.671,106 54.878,106 C57.557,106 67.258,89.912 67.396,85.242 C67.495,81.862 65.833,79.844 64.597,81.844 Z"/>
</svg>

