<svg xmlns="http://www.w3.org/2000/svg" width="300" height="300" viewBox="0 0 300 300" version="1.1">
  <defs/>
  <path d="M158.039,68.453 C159.598,66.575 165.403,66.576 166.962,68.454 C168.426,70.218 167.455,81.95 165.469,86.5 C164.748,88.15 163.882,90.467 163.544,91.649 C162.626,94.857 157.182,102 155.654,102 C154.383,102 148,108.292 148,109.545 C148,109.874 148.714,110.857 149.586,111.729 C150.562,112.704 150.983,114.311 150.679,115.899 C150.152,118.657 151.792,130.014 152.892,131.226 C153.83,132.258 166.918,125.398 170.5,121.998 C174.306,118.386 178.355,118.853 180.583,123.161 C181.992,125.886 181.941,126.266 179.795,129.01 C178.533,130.625 176.375,132.248 175,132.619 C173.625,132.989 171.375,134.038 170,134.95 C168.625,135.862 165.612,137.429 163.305,138.431 C156.455,141.408 154.666,143.969 155.449,149.678 C156.17,154.939 156.568,204.083 156.159,237.5 C156.018,249.05 156.037,260.019 156.201,261.876 C156.439,264.567 155.954,265.662 153.807,267.278 C151.268,269.189 150.971,269.211 148.599,267.657 C145.075,265.348 143.22,258.848 144.889,254.66 C145.769,252.452 146.312,241.484 146.693,218.25 C147.164,189.53 147.04,185 145.78,185 C144.977,185 143.824,186.091 143.216,187.424 C142.609,188.758 139.612,193.645 136.556,198.285 C133.5,202.925 131,207.028 131,207.403 C131,207.778 129.2,210.522 127,213.5 C124.8,216.478 123,219.384 123,219.957 C123,220.531 122.556,221 122.013,221 C121.469,221 119.879,222.815 118.479,225.034 C117.078,227.252 113.413,231.527 110.333,234.534 C105.29,239.457 104.303,240 100.39,240 C96.887,240 95.736,239.527 94.446,237.558 C93.566,236.215 92.993,234.077 93.173,232.808 C93.446,230.883 94.186,230.45 97.636,230.198 C101.017,229.951 102.482,229.13 105.661,225.698 C109.532,221.52 120,207.507 120,206.504 C120,206.215 122.325,202.271 125.166,197.739 C129.817,190.32 135.909,178.789 137.971,173.5 C138.4,172.4 139.3,170.15 139.97,168.5 C143.794,159.091 145.414,150.081 143.606,148.273 C143.323,147.989 141.383,148.712 139.295,149.878 C134.847,152.364 123.672,157.78 109.106,164.508 C97.87,169.698 96.36,169.707 94.538,164.594 C93.905,162.816 93.928,161.338 94.605,160.264 C95.735,158.473 95.859,158.402 104.5,154.546 C107.8,153.073 111.774,151.223 113.331,150.434 C114.888,149.645 116.77,149 117.513,149 C118.256,149 123.957,146.333 130.182,143.073 L141.5,137.146 L141.266,130.823 C141.137,127.345 140.936,122.142 140.819,119.261 C140.638,114.833 141.007,113.593 143.197,111.261 C144.623,109.742 146.098,107.033 146.476,105.241 C147.088,102.338 146.69,101.486 142.831,97.444 C138.147,92.536 136.437,87.612 137.994,83.516 C139.974,78.308 148.464,81.194 150.452,87.75 C151.291,90.515 153.571,90.67 154.97,88.057 C155.542,86.988 156.195,82.467 156.422,78.009 C156.648,73.552 157.376,69.252 158.039,68.453 Z M65.191,71.067 C71.303,69.864 72.606,69.863 75.236,71.062 C81.415,73.877 80.75,82.167 73.033,98.5 C69.342,106.313 68.406,109.297 68.751,112.145 C69.16,115.506 68.842,116.051 64.675,119.145 C62.189,120.99 59.938,123.287 59.671,124.25 C58.934,126.915 54.305,126.545 53.431,123.75 C53.043,122.513 51.663,120.228 50.363,118.673 C49.063,117.119 48,115.008 48,113.982 C48,112.957 47.55,111.84 47,111.5 C46.45,111.16 46,109.345 46,107.467 C46,104.193 39.951,90.704 35.856,84.846 C34.835,83.386 34,80.573 34,78.596 C34,75.02 34.024,75 38.345,75 C43.186,75 45.607,76.885 46.88,81.643 C47.853,85.28 50.399,85.375 50.813,81.789 C51.22,78.255 59.305,72.226 65.191,71.067 Z M30,176.646 C30,172.044 30.032,172 33.345,172 C37.363,172 39.36,174.004 41.055,179.734 C41.743,182.063 43.138,184.72 44.153,185.639 C45.169,186.558 46.014,188.253 46.032,189.405 C46.049,190.557 46.724,192.374 47.532,193.441 C48.397,194.585 49,197.575 49,200.723 C49,204.488 49.432,206.228 50.464,206.625 C51.269,206.933 56.107,205.152 61.214,202.667 C75.088,195.914 90.487,189.754 92.504,190.15 C93.484,190.342 94.784,191.318 95.393,192.317 C96.312,193.826 95.991,194.549 93.5,196.58 C91.85,197.925 88.7,199.946 86.5,201.071 C84.3,202.196 80.25,204.422 77.5,206.018 C74.75,207.614 70.566,209.822 68.203,210.925 C65.839,212.027 62.78,213.814 61.406,214.896 C60.031,215.977 57.465,217.177 55.703,217.563 C52.259,218.316 42.034,225.19 38.076,229.414 C35.262,232.415 33.383,232.656 30.829,230.345 C27.998,227.783 28.569,224.143 32.364,220.563 C37.399,215.814 41,209.547 41,205.531 C41,200.86 38.129,193.54 33.653,186.797 C30.763,182.442 30,180.323 30,176.646 Z M56.621,129.522 C58.515,127.628 59.37,127.623 62.963,129.481 C66.086,131.096 66.046,130.89 67.595,153.304 C68.411,165.122 69.882,164.866 75.992,151.843 C76.677,150.382 78.747,148.374 80.592,147.38 L83.946,145.574 L86.973,148.474 C88.638,150.069 90,151.795 90,152.31 C90,154.086 81.126,165.676 75.202,171.636 C69.613,177.26 69.158,178.083 67.51,185.557 C66.547,189.926 65.601,194.066 65.407,194.759 C65.214,195.451 63.869,196.558 62.419,197.219 C58.457,199.024 56.743,196.216 57.737,189.548 C58.929,181.543 58.623,151.031 57.3,146 C55.204,138.034 54.924,131.219 56.621,129.522 Z M136.243,29.25 C137.458,27.734 139.019,27.676 142.543,29.016 C144.985,29.945 145.156,30.356 144.523,33.766 C144.141,35.82 142.984,39.075 141.95,41 C140.917,42.925 139.329,47.2 138.423,50.5 C137.516,53.8 135.926,57.903 134.887,59.618 C133.849,61.333 133,63.46 133,64.346 C133,65.708 130.112,72.717 126.865,79.236 C125.41,82.156 125.861,83.872 129.5,89.276 C131.425,92.135 133.017,94.929 133.039,95.487 C133.06,96.044 134.522,97.409 136.289,98.521 C139.125,100.305 139.5,101.064 139.5,105.021 C139.5,109.19 139.305,109.522 136.682,109.823 C134.47,110.077 132.749,109.118 128.682,105.366 C125.832,102.738 122.668,99.33 121.652,97.793 C120.494,96.043 118.92,95 117.437,95 C114.784,95 113.571,93.206 112.607,87.858 C112.032,84.672 112.329,83.859 114.975,81.362 C116.639,79.791 118,78.019 118,77.423 C118,76.827 119.123,74.125 120.496,71.419 C121.869,68.714 122.994,66.007 122.996,65.404 C122.998,64.801 123.649,63.001 124.443,61.404 C125.237,59.807 127.02,54.127 128.406,48.782 C130.716,39.876 133.711,32.411 136.243,29.25 Z M165.069,187.331 C167.093,185.307 177.338,186.611 181.474,189.418 C183.567,190.838 186.251,192 187.44,192 C188.628,192 190.027,192.398 190.55,192.885 C191.072,193.371 195.775,196.025 201,198.782 C206.225,201.538 212.525,204.965 215,206.397 C217.475,207.829 220.984,209.69 222.799,210.534 C234.654,216.046 239.225,218.018 241.422,218.57 C245.365,219.56 246.464,221.55 245.414,225.8 C244.185,230.774 241.033,231.105 233.449,227.058 C230.297,225.376 227.034,224 226.197,224 C225.36,224 220.448,221.525 215.282,218.5 C210.115,215.475 205.397,213 204.797,213 C203.809,213 193.197,206.42 192,205.066 C190.849,203.763 186.891,202 185.116,202 C184.065,202 180.484,200.65 177.159,199 C173.833,197.35 170.774,196 170.361,196 C169.161,196 164,190.737 164,189.513 C164,188.901 164.481,187.919 165.069,187.331 Z M61.5,84.062 C55.353,87.989 54.164,88.381 52.53,87.025 C50.476,85.32 50.464,87.473 52.5,92.346 C53.325,94.32 54,98.425 54,101.468 C54,104.717 54.44,107 55.066,107 C56.947,107 60,104.968 60.002,103.715 C60.003,103.047 61.803,99.006 64.002,94.736 C69.977,83.132 69.063,79.232 61.5,84.062 Z"/>
</svg>

