<svg xmlns="http://www.w3.org/2000/svg" width="300" height="300" viewBox="0 0 300 300" version="1.1">
  <defs/>
  <path d="M155,56.5 C156.587,54.588 162.383,54.552 163.954,56.445 C167.128,60.269 162.474,64.532 148,71.06 C145.525,72.176 142.825,73.507 142,74.017 C141.175,74.527 138.925,75.709 137,76.643 C135.075,77.577 132.872,78.827 132.105,79.421 C131.338,80.014 128.413,81.223 125.605,82.107 L120.5,83.713 L120.181,89.107 C120.006,92.073 120.374,96.075 121,98 C121.797,100.45 121.841,102.812 121.148,105.873 C119.47,113.281 121.612,115.126 126.23,110.25 C128.058,108.319 129.179,105.564 129.992,101 C131.72,91.297 132.513,89.811 135.758,90.184 C137.818,90.421 138.583,91.122 138.835,93 C139.019,94.375 139.581,95.927 140.085,96.45 C140.588,96.972 141,98.435 141,99.7 C141,102.423 142.842,102.65 147.094,100.451 C150.047,98.925 150.079,98.82 149.416,92.959 C148.945,88.799 149.119,86.562 149.994,85.507 C152.165,82.891 155.639,83.739 158.887,87.679 C162.216,91.717 163.261,91.636 169.163,86.884 C171.068,85.35 172.562,84.924 174.413,85.389 C179.636,86.7 176.991,93.255 168.551,99.918 C162.77,104.481 161.937,106.045 162.116,112 C162.283,117.585 160.211,125.035 157.502,128.587 C156.126,130.391 155,132.262 155,132.746 C155,134.52 149.402,138.868 146.002,139.734 C143.747,140.309 142.378,141.315 142.152,142.563 C141.618,145.506 137.932,149 135.361,149 C131.713,149 130.654,145.698 131.312,136.374 C132.057,125.817 131.327,121 128.984,121 C128.019,121 126.493,122.125 125.592,123.5 C124.691,124.875 123.484,126 122.91,126 C121.14,126 115.556,132.574 114.244,136.202 C113.56,138.094 113,141.017 113,142.699 C113,144.38 112.325,146.315 111.5,147 C110.675,147.685 110,149.469 110,150.966 C110,154.003 106.678,164.278 104.672,167.447 C103.957,168.576 102.765,172.093 102.023,175.263 C101.282,178.432 100.073,181.525 99.337,182.135 C98.602,182.745 98,183.839 98,184.565 C98,185.292 97.133,187.374 96.073,189.193 C95.014,191.012 93.826,194.3 93.435,196.5 C93.043,198.7 91.996,201.625 91.107,203 C87.712,208.254 81.006,223.41 80.988,225.874 C80.972,227.939 73.548,236 71.663,236 C69.746,236 68.363,234.117 67.578,230.439 C67.069,228.057 67.394,226.953 69.044,225.461 C70.209,224.406 72.658,220.383 74.485,216.521 C81.338,202.038 84.738,194.425 85.434,192 C85.829,190.625 86.99,187.7 88.014,185.5 C91.417,178.187 92.811,174.573 95.532,166 C97.017,161.325 98.629,156.719 99.116,155.764 C99.602,154.809 100,153.34 100,152.5 C100,151.66 100.409,150.191 100.908,149.236 C102.317,146.542 106.077,133.059 106.97,127.5 C107.412,124.75 108.277,120.643 108.892,118.374 C110.188,113.591 110.553,98.221 109.499,92.75 C108.708,88.64 107.673,88.266 102.387,90.177 C98.416,91.613 96.534,90.42 95.629,85.896 C94.876,82.13 96.417,79 99.025,79 C100.1,79 103.796,77.898 107.239,76.552 C110.683,75.206 115.525,73.59 118,72.961 C120.475,72.332 124.525,70.77 127,69.489 C136.78,64.429 150.943,58 152.311,58 C153.105,58 154.315,57.325 155,56.5 Z M163.254,149.146 C165.846,146.554 175.941,149.153 177.964,152.933 C180.727,158.096 177.688,170.222 172.056,176.5 C171.07,177.6 169.972,179.729 169.617,181.232 C169.262,182.734 167.628,185.493 165.986,187.364 C162.346,191.509 162.235,193.253 165.5,195 C166.875,195.736 168,196.712 168,197.169 C168,197.626 169.238,198.001 170.75,198.002 C172.262,198.002 175.075,198.872 177,199.935 C181.096,202.195 184.271,203.75 188.708,205.667 C190.472,206.43 192.192,207.502 192.53,208.049 C192.869,208.597 195.793,210.381 199.03,212.015 C202.266,213.649 206.455,216.338 208.339,217.993 C210.223,219.647 212.455,221 213.299,221 C215.746,221 227.553,227.612 239.859,235.874 C246.107,240.068 252.846,244.489 254.835,245.698 C261.369,249.67 262.841,254.207 258.811,257.961 C255.701,260.858 254.319,260.548 248.963,255.75 C240.537,248.203 235.596,244.442 231.023,242.094 C228.56,240.829 225.263,238.716 223.696,237.397 C222.129,236.079 220.426,235 219.913,235 C219.4,235 216.739,233.425 214,231.5 C211.261,229.575 207.907,228 206.545,228 C205.159,228 203.634,227.185 203.078,226.147 C202.533,225.127 198.805,222.575 194.793,220.475 C190.782,218.375 185.312,215.159 182.638,213.328 C179.964,211.498 176.791,210 175.588,210 C174.385,210 172.973,209.628 172.45,209.172 C170.893,207.816 157.108,202 155.449,202 C154.606,202 149.476,206.5 144.048,212 C138.621,217.5 133.768,222 133.265,222 C132.761,222 131.292,223.125 130,224.5 C128.708,225.875 127.199,227 126.647,227 C126.094,227 124.199,228.575 122.436,230.5 C120.338,232.79 118.327,234 116.615,234 C115.177,234 114,234.42 114,234.933 C114,235.446 112.987,236.156 111.75,236.512 C110.513,236.868 108.15,237.765 106.5,238.505 C104.85,239.245 101.328,240.396 98.674,241.063 C94.538,242.102 93.624,242.053 92.287,240.715 C90.183,238.612 91.298,236.192 94.707,235.46 C101.046,234.1 105.945,231.678 114,225.921 C121.055,220.878 132.271,211.431 136.5,206.97 C137.05,206.39 138.738,204.735 140.25,203.292 C141.762,201.85 143,199.651 143,198.406 C143,196.512 142.066,195.87 137.287,194.481 C130.648,192.551 121.783,191.149 117.527,191.356 C115.279,191.465 114.467,191.013 114.193,189.5 C113.994,188.4 113.155,186.971 112.328,186.326 C108.797,183.567 112.653,179.943 126.5,173.005 C133.695,169.4 135.795,168.013 143.916,161.5 C147.344,158.75 152.84,155.103 156.129,153.396 C159.418,151.688 162.624,149.776 163.254,149.146 Z M63.5,76.403 C68.528,72.944 72.401,72.544 75.642,75.149 C78.108,77.129 79.264,81.804 78.109,85.118 C77.499,86.867 77,89.731 77,91.483 C77,93.234 76.724,94.943 76.386,95.28 C74.616,97.051 71.395,108.943 71.784,112.273 C72.156,115.459 71.754,116.427 68.994,119.006 C66.418,121.412 65.882,122.568 66.325,124.759 C66.631,126.266 66.366,128.964 65.738,130.754 C64.517,134.232 65.941,146.341 67.789,148.189 C69.182,149.582 81,138.195 81,135.46 C81,130.095 87.814,129.722 89.987,134.968 C90.669,136.614 90.97,138.983 90.656,140.233 C90.1,142.449 84.113,148.77 73,158.872 L67.5,163.872 L67.5,171.664 C67.5,180.686 68.949,182.04 73.721,177.478 C75.249,176.017 78.188,173.677 80.25,172.278 C82.313,170.879 84,169.314 84,168.801 C84,168.287 85.237,168.01 86.75,168.184 C89.164,168.461 89.457,168.867 89.148,171.5 C88.816,174.332 81.757,183.183 78.039,185.43 C77.192,185.941 73.052,189.091 68.838,192.43 C59.016,200.212 53.491,204.04 48.509,206.517 C46.314,207.607 42.142,210.863 39.238,213.75 C33.386,219.567 30.815,220.215 26.635,216.927 C23.396,214.38 23.273,211.726 26.282,209.323 C27.538,208.32 29.598,205.814 30.861,203.754 C32.838,200.53 33.102,198.997 32.753,192.754 C32.49,188.067 31.386,183.023 29.632,178.5 C28.038,174.391 27.037,170.055 27.208,168 C27.481,164.722 27.722,164.5 31,164.5 C34.29,164.5 34.705,164.89 37.922,171 C40.926,176.708 41.398,178.626 41.791,186.75 C42.184,194.868 42.462,196 44.06,196 C45.062,196 46.125,195.607 46.422,195.127 C46.718,194.647 49.398,193.061 52.377,191.604 C59.157,188.287 60.789,186.493 59.259,184.043 C58.518,182.856 58.312,178.398 58.652,170.874 C58.935,164.618 58.707,157.25 58.146,154.5 C55.702,142.51 54.717,136.284 54.785,133.247 C54.834,131.056 54.256,129.672 53.012,129.006 C50.895,127.873 44.759,116.199 45.581,114.869 C45.881,114.384 45.289,112.752 44.264,111.243 C41.945,107.826 40,103.364 40,101.462 C40,100.667 38.404,97.927 36.454,95.372 C33.23,91.148 32.935,90.219 33.204,85.133 C33.472,80.063 33.754,79.45 36.22,78.587 C39.687,77.374 42.226,79.473 43.851,84.897 C44.488,87.023 45.748,89.376 46.65,90.124 C48.063,91.297 48.444,91.213 49.395,89.514 C51.014,86.624 57.773,80.341 63.5,76.403 Z M165.495,158.007 C164.959,158.876 159.955,162.375 144.392,172.765 C142.526,174.01 141,175.447 141,175.958 C141,176.469 139.65,177.684 138,178.659 C136.35,179.634 135,180.905 135,181.485 C135,182.433 149.196,188.5 151.416,188.5 C152.444,188.5 158.506,180.603 159.892,177.459 C160.387,176.336 161.471,174.854 162.302,174.164 C164.489,172.349 169.361,160.384 168.659,158.553 C167.98,156.785 166.418,156.515 165.495,158.007 Z M123.2,33.2 C124.89,31.51 127.012,31.71 130.6,33.898 C133.14,35.447 133.816,36.643 134.35,40.533 C135.44,48.492 135.109,51.084 132.291,56.65 C130.188,60.803 129.063,62 127.26,62 C124.448,62 123.371,59.676 124.765,56.617 C125.881,54.168 124.583,44.258 122.923,42.55 C121.592,41.18 121.787,34.613 123.2,33.2 Z M147,111.101 C143.088,112.614 141.367,115.939 140.691,123.294 C140.179,128.87 140.342,130.194 141.6,130.677 C143.459,131.39 148.9,125.403 148.959,122.579 C148.982,121.522 149.661,119.927 150.468,119.035 C151.276,118.143 152.063,115.875 152.218,113.995 C152.532,110.192 151.226,109.468 147,111.101 Z M62.241,91.777 C60.449,93.275 58.986,94.864 58.991,95.309 C58.996,95.753 57.711,97.778 56.137,99.809 C53.738,102.9 53.349,104.19 53.742,107.75 C54.365,113.408 57.283,113.659 59.533,108.25 C60.391,106.188 62.155,102.925 63.454,101 C65.841,97.463 67.885,88.977 66.338,89.027 C65.877,89.042 64.033,90.279 62.241,91.777 Z"/>
</svg>

