<svg xmlns="http://www.w3.org/2000/svg" width="300" height="300" viewBox="0 0 300 300" version="1.1">
  <defs/>
  <path d="M63.268,54.656 C67.799,52.823 70,54.941 70,61.133 C70,67.187 72.087,68.096 78.563,64.861 C83.742,62.275 86.292,62.987 86.798,67.16 C87.05,69.239 86.01,70.3 80.048,74.041 L73,78.463 L73,90.903 C73,104.041 73.933,107 78.077,107 C80.037,107 87,114.581 87,116.715 C87,117.461 87.787,119.274 88.75,120.745 C90.156,122.893 90.472,125.416 90.356,133.57 C90.227,142.597 89.876,144.445 87.176,150.278 C85.41,154.093 82.856,157.786 81.07,159.106 C79.382,160.355 78,162.157 78,163.111 C78,164.066 76.875,166.184 75.5,167.818 C72.501,171.381 71.944,178 74.642,178 C75.545,178 78.655,175.975 81.552,173.5 C84.449,171.025 87.319,169 87.929,169 C89.878,169 96.334,164.378 101.747,159.108 C105.649,155.309 107.748,154 109.938,154 C114.196,154 114.418,155.293 111.085,160.695 C108.165,165.427 104.184,169.143 94.674,176.014 C92.02,177.931 88.323,180.963 86.458,182.75 C84.593,184.537 82.559,186 81.938,186 C79.45,186 75.29,190.096 74.126,193.69 C72.979,197.232 73.011,220.11 74.219,261 L74.5,270.5 L71.528,270.5 C68.929,270.5 68.341,269.937 66.833,266 C65.336,262.093 65.102,257.311 65.054,229.719 C65.009,202.964 64.771,197.85 63.555,197.383 C62.76,197.078 60.025,198.263 57.476,200.017 C54.927,201.77 51.19,203.629 49.171,204.148 C45.959,204.973 38.017,208.333 32.764,211.089 C30.308,212.377 25.619,212.219 24.2,210.8 C22.634,209.234 22.662,205.517 24.25,204.238 C24.938,203.684 27.075,202.911 29,202.52 C30.925,202.129 39.832,198.25 48.794,193.9 L65.087,185.992 L64.794,178.746 L64.5,171.5 L61.069,170.391 C55.729,168.665 53,165.703 53,161.635 C53,159.701 52.55,157.84 52,157.5 C51.45,157.16 51,154.91 51,152.5 C51,150.09 50.55,147.84 50,147.5 C49.45,147.16 48.997,145.896 48.994,144.691 C48.99,143.486 48.315,141.211 47.494,139.636 C46.672,138.06 46,136.142 46,135.372 C46,134.603 45.624,133.191 45.164,132.236 C44.704,131.281 42.856,127.464 41.056,123.752 C37.272,115.948 37.523,114 42.314,114 C46.149,114 48.193,115.825 50.475,121.287 C51.329,123.329 52.636,125 53.381,125 C54.125,125 55.882,123.313 57.286,121.25 C58.689,119.188 61.043,116.15 62.517,114.5 C65.185,111.513 65.195,111.442 64.821,98.272 C64.569,89.451 64.026,84.626 63.19,83.79 C62.36,82.96 59.628,82.642 55.107,82.851 C49.904,83.092 48.148,82.828 47.731,81.743 C46.978,79.779 48.047,78.403 51,77.535 C52.375,77.131 55.225,75.632 57.334,74.205 C61.017,71.714 61.144,71.443 60.531,67.36 C59.821,62.621 61.371,55.424 63.268,54.656 Z M140.973,55.532 C142.511,53.679 145.381,53.539 146.771,55.25 C148.977,57.964 152,64.163 152,65.971 C152,67.022 152.45,68.16 153,68.5 C153.55,68.84 154,70.036 154,71.158 C154,73.545 156.925,80.171 158.448,81.235 C160.446,82.63 163.406,81.991 167.234,79.338 C170.153,77.315 171.355,76.955 172.238,77.838 C173.121,78.721 173.112,79.288 172.2,80.2 C171.54,80.86 171,82.446 171,83.725 C171,85.247 170.186,86.359 168.641,86.947 C167.155,87.511 166.062,88.939 165.69,90.801 C165.364,92.428 164.362,94.496 163.461,95.396 C162.017,96.84 161.964,97.883 163.01,104.266 C163.662,108.245 164.535,112.4 164.948,113.5 C167.548,120.409 168.304,122.856 168.736,125.759 C169.003,127.552 169.621,129.266 170.11,129.568 C170.6,129.871 171,131.386 171,132.937 C171,134.487 171.675,136.315 172.5,137 C173.356,137.71 174,139.89 174,142.075 C174,144.182 174.403,146.94 174.896,148.203 C175.389,149.466 176.374,152.525 177.085,155 C177.797,157.475 178.969,160.388 179.69,161.473 C180.41,162.557 181,164.443 181,165.663 C181,166.884 181.4,168.129 181.89,168.432 C182.379,168.734 182.997,170.448 183.264,172.241 C183.698,175.158 184.666,178.273 187.072,184.5 C187.497,185.6 188.621,188.652 189.571,191.283 C190.52,193.913 191.68,196.302 192.148,196.592 C192.617,196.881 193,198.19 193,199.5 C193,200.81 193.45,202.16 194,202.5 C194.55,202.84 195,204.161 195,205.437 C195,206.712 195.675,208.315 196.5,209 C197.325,209.685 198,211.096 198,212.136 C198,213.176 198.397,214.809 198.883,215.764 C199.369,216.719 200.311,218.85 200.976,220.5 C201.641,222.15 202.818,224.774 203.593,226.331 C204.367,227.888 205,229.999 205,231.022 C205,232.045 205.45,233.16 206,233.5 C206.55,233.84 207,235.069 207,236.23 C207,237.392 207.582,239.053 208.293,239.921 C209.004,240.79 210.164,243.3 210.87,245.5 C211.576,247.7 213.656,252.65 215.491,256.5 C217.327,260.35 219.089,264.175 219.408,265 C219.727,265.825 220.403,267.175 220.91,268 C221.91,269.624 224.247,274.89 225.911,279.265 C226.599,281.076 227.678,282 229.103,282 C231.246,282 231.254,281.913 230.964,261.25 C230.584,234.247 230.696,231.733 232.25,232.245 C233.513,232.661 234.242,237.232 235.879,255 C236.36,260.225 237.244,268.775 237.842,274 C238.766,282.066 238.838,287.039 238.129,293.715 C238.058,294.383 237.088,295.418 235.974,296.014 C231.422,298.45 220.792,288.314 215.509,276.5 C213.332,271.632 208.432,261.113 203.596,250.925 C201.618,246.759 200,242.816 200,242.162 C200,241.508 199.572,240.191 199.048,239.236 C198.525,238.281 197.373,235.7 196.487,233.5 C195.602,231.3 194.23,228.226 193.439,226.669 C192.647,225.112 192,223.001 192,221.978 C192,220.955 191.55,219.84 191,219.5 C190.45,219.16 190,218.093 190,217.129 C190,216.165 189.143,213.601 188.095,211.432 C186.342,207.805 184.063,201.923 180.952,193 C180.281,191.075 179.342,188.719 178.866,187.764 C178.39,186.809 178,185.34 178,184.5 C178,183.66 177.59,182.191 177.089,181.236 C176.029,179.217 173.782,172.434 172.042,166 C171.373,163.525 170.248,160.15 169.543,158.5 C166.55,151.495 166,149.777 166,147.439 C166,146.083 165.606,144.191 165.124,143.236 C164.335,141.671 162.484,135.744 159.74,126 C159.198,124.075 158.288,121.603 157.717,120.507 C156.273,117.733 154.913,112.396 154.149,106.5 C153.511,101.582 153.445,101.503 150.15,101.658 C148.094,101.755 145.778,102.793 144.15,104.346 C140.341,107.981 127.635,112.41 125.024,111.013 C122.615,109.724 121.321,105.304 122.705,103.095 C123.255,102.218 126.359,100.134 129.602,98.465 C132.846,96.796 138.088,93.764 141.25,91.728 C146.828,88.136 147,87.892 147,83.593 C147,81.156 146.359,77.888 145.575,76.331 C144.792,74.774 143.63,71.475 142.993,69 C142.356,66.525 141.355,62.827 140.768,60.782 C139.955,57.95 140.004,56.7 140.973,55.532 Z M133.548,133.046 C135.722,131.401 138.302,130.043 139.281,130.028 C141.604,129.992 142.627,132.766 141.158,135.119 C140.521,136.139 140,137.57 140,138.299 C140,139.029 138.667,140.902 137.039,142.463 C133.645,145.714 131.938,153.07 133.862,156.15 C134.504,157.179 135,162.094 135,167.427 C135,172.789 135.443,177.155 136.022,177.514 C136.584,177.861 139.333,176.088 142.13,173.573 C150.15,166.363 155.166,168.22 148.841,176.057 C135.117,193.062 122.143,206 118.814,206 C116.301,206 114,203.729 114,201.25 C114,199.275 115.546,197.113 119.876,193.035 C124.709,188.482 125.899,186.701 126.581,183 C127.563,177.675 127.363,161.381 126.236,155 L125.442,150.5 L121.186,150.5 C116.628,150.5 115.042,149.146 115.015,145.232 C115.003,143.393 116.381,142.308 122.298,139.5 C126.312,137.595 131.374,134.69 133.548,133.046 Z M190.927,50.588 C193.478,47.514 195.272,48.483 200.893,55.973 C205.222,61.743 205.979,64.942 203.501,66.999 C199.885,70 189.881,61.798 189.708,55.692 C189.653,53.758 190.202,51.462 190.927,50.588 Z M60.687,128.805 C58.327,131.268 58,132.411 58,138.19 C58,146.583 60.58,155 63.152,155 C64.7,155 65,154.198 65,150.059 C65,147.341 64.55,144.84 64,144.5 C62.574,143.619 62.764,140.357 64.43,137.136 C65.834,134.42 65.551,126 64.055,126 C63.681,126 62.165,127.262 60.687,128.805 Z M75.128,119.345 C73.274,121.58 72.769,126.358 74.188,128.237 C74.91,129.192 76.963,130.26 78.75,130.612 C81.849,131.22 82,131.108 82,128.182 C82,125.134 78.513,118 77.024,118 C76.595,118 75.742,118.605 75.128,119.345 Z M76.988,141.513 C74.278,144.398 75.264,146.382 79.135,145.835 C80.986,145.573 81.568,144.794 81.813,142.25 C82.201,138.232 80.338,137.947 76.988,141.513 Z"/>
</svg>

