<svg xmlns="http://www.w3.org/2000/svg" width="300" height="300" viewBox="0 0 300 300" version="1.1">
  <defs/>
  <path d="M46.954,37.25 C49.463,34.593 51.675,34.396 54.123,36.612 C55.619,37.965 55.807,39.262 55.298,44.708 C54.64,51.754 55.961,54.213 58.977,51.559 C59.815,50.821 62.225,49.306 64.334,48.19 C69.676,45.365 73.532,46.692 74.467,51.678 C75.006,54.55 74.705,55.685 72.892,57.614 C71.66,58.927 69.582,60 68.276,60 C65.318,60 61.092,62.136 58.599,64.891 C56.952,66.71 56.782,68.007 57.308,74.743 C57.641,79.009 58.427,83.963 59.055,85.75 C60.084,88.681 60.586,89 64.175,89 C67.239,89 68.826,89.672 71.077,91.923 C73.898,94.744 74.003,95.19 74.076,104.673 C74.117,110.078 74.205,119.397 74.272,125.382 C74.347,132.154 74.447,134.832 73.286,136.745 C72.44,138.14 70.925,139.128 68.241,141 C67.059,141.825 65.798,143.733 65.439,145.241 C64.545,149.003 67.057,149.808 70.978,147.015 C72.694,145.794 76.651,144.473 80.026,143.996 C83.324,143.53 87.534,142.215 89.38,141.074 C93.768,138.362 95.432,138.457 96.818,141.5 C97.445,142.875 98.606,144 99.399,144 C100.792,144 101.13,142.978 102.501,134.627 C102.851,132.497 103.508,130.022 103.962,129.127 C105.136,126.811 106.637,119.691 109.576,102.5 C111.736,89.859 112.101,84.915 111.891,71.064 C111.681,57.156 111.881,54.478 113.186,53.655 C117.641,50.844 119.933,57.678 120.934,76.75 C121.023,78.445 125,78.352 125,76.655 C125,75.915 125.9,74.495 127,73.5 C128.1,72.505 129,70.944 129,70.033 C129,69.121 129.9,66.513 131,64.236 C132.1,61.959 133,59.161 133,58.017 C133,55.572 130.358,54.242 128.733,55.867 C126.646,57.954 123.021,57.186 121.975,54.435 C120.558,50.708 120.77,49.023 122.75,48.287 C123.713,47.929 126.715,46.124 129.422,44.277 C132.129,42.429 134.978,41.161 135.754,41.459 C136.529,41.757 138.465,42 140.056,42 C144.455,42 146.588,46.685 145.01,52.881 C143.398,59.211 140.264,65.685 138.479,66.37 C137.666,66.682 137,67.825 137,68.91 C137,69.994 136.55,71.16 136,71.5 C134.186,72.621 134.856,75.18 136.802,74.563 C137.794,74.248 139.377,74.556 140.322,75.246 C141.935,76.426 141.919,76.737 140.05,80.402 C137.882,84.653 132.389,89.886 130,89.974 C128.303,90.037 122.071,92.149 120.393,93.229 C119.784,93.621 119.006,96.304 118.664,99.192 C118.322,102.08 117.387,106.48 116.587,108.971 C115.787,111.462 114.351,116.425 113.397,120 C112.443,123.575 111.288,126.928 110.831,127.45 C110.374,127.973 110,130.138 110,132.262 C110,134.386 109.374,138.234 108.609,140.812 C107.44,144.749 105.814,150.993 101.334,168.75 C100.523,171.967 102.45,171.543 109.5,166.952 C112.8,164.803 117.744,161.848 120.486,160.386 C123.228,158.924 127.168,156.657 129.241,155.348 L133.01,152.969 L132.399,140.234 C132.064,133.23 131.613,127.314 131.399,127.088 C130.64,126.285 126.057,128.954 122.182,132.454 C115.813,138.208 112.33,136.569 115.522,129.32 C118.859,121.742 119.521,120.707 121.991,119.203 C131.28,113.548 130.734,114.361 131.499,105.05 C132.239,96.051 133.086,94 136.063,94 C138.423,94 139.037,95.102 139.852,100.8 C140.396,104.598 140.906,105.5 142.512,105.5 C144.307,105.5 144.5,104.819 144.5,98.5 C144.5,94.65 144.864,90.938 145.309,90.25 C146.785,87.97 149.083,88.954 150.564,92.5 C152.436,96.978 155.139,97.067 159.056,92.777 C160.675,91.005 162,89.205 162,88.777 C162,87.659 165.796,87.82 168.066,89.035 C169.495,89.8 170,91.14 170,94.167 C170,97.577 169.395,98.834 166.392,101.667 C164.407,103.538 161.053,105.953 158.938,107.032 C154.494,109.299 154.294,110.015 153.693,125.784 C153.474,131.52 153.713,136.322 154.232,136.643 C154.744,136.96 156.388,136.044 157.886,134.609 C161.152,131.48 166.739,130.987 167.622,133.75 C167.93,134.713 168.656,136.492 169.235,137.705 C170.74,140.852 167.943,144.695 162.345,147.172 C157.476,149.325 153.416,151.918 147.182,156.856 C144.979,158.601 141.465,160.744 139.373,161.618 C134.434,163.681 132.944,165.702 133.191,170 C133.302,171.925 133.037,178 132.603,183.5 C132.168,189 131.699,195.082 131.559,197.015 C131.327,200.229 130.868,202.603 127.904,215.911 C126.123,223.908 128.186,223.363 137.777,213.302 C144.137,206.63 147.38,203.973 149.75,203.496 C152.563,202.929 153,203.114 153,204.868 C153,205.982 150.783,209.823 148.074,213.402 C141.838,221.641 126.03,238 124.305,238 C123.587,238 122.1,237.1 121,236 C119.362,234.362 119.004,232.687 119.024,226.75 C119.038,222.762 119.519,217.475 120.093,215 C122.947,202.707 125.266,174.047 123.508,172.792 C121.817,171.584 117.64,173.122 114.452,176.127 C110.808,179.562 107.465,179.786 104.294,176.806 C102.183,174.823 101.81,174.762 100.406,176.166 C98.796,177.775 97.39,182.254 96.062,190 C95.637,192.475 94.775,195.767 94.145,197.315 C93.515,198.863 93,201.626 93,203.454 C93,208.191 90.09,211.49 86.669,210.632 C85.058,210.227 84.003,209.276 84.008,208.231 C84.024,204.475 86.17,193.446 87.058,192.55 C87.576,192.027 88,190.592 88,189.359 C88,188.126 88.391,186.876 88.869,186.581 C89.346,186.286 90.035,184.122 90.4,181.772 C90.764,179.422 91.921,174.575 92.97,171 C96.382,159.378 98.317,150.984 97.721,150.388 C96,148.667 72.574,155.695 69.015,159 C66.677,161.172 66.174,162.747 65.183,171 C63.956,181.221 62.247,228.882 62.404,248.487 C62.509,261.629 61.899,262.844 57.073,259.105 L54.646,257.225 L54.573,233.862 C54.533,221.013 54.798,200.938 55.163,189.25 C55.778,169.549 55.7,168 54.103,168 C51.933,168 38.173,174.657 35.5,177 C34.4,177.965 31.848,179.282 29.83,179.928 C27.811,180.574 25.578,181.803 24.867,182.66 C24.156,183.517 20.872,186.013 17.569,188.207 L11.565,192.195 L9.282,189.542 C5.785,185.476 6.311,182.512 11.15,179.006 C13.433,177.353 15.726,176 16.246,176 C16.766,176 18.386,175.155 19.846,174.122 C21.306,173.089 29.245,168.78 37.489,164.546 C45.733,160.312 53.067,156.359 53.788,155.761 C55.698,154.176 55,146.355 53,146.935 C52.175,147.174 49.4,147.552 46.833,147.776 C42.669,148.138 41.978,147.896 40.432,145.536 C39.057,143.438 38.901,142.229 39.679,139.694 C41.399,134.091 37.915,117.205 33.156,108.074 C30.724,103.409 30.362,98.774 32.303,97.164 C34.039,95.723 39.623,99.078 41.181,102.498 C42.516,105.427 43.815,105.707 44.676,103.25 C45.013,102.287 46.516,100.15 48.016,98.5 C50.619,95.635 50.706,95.207 49.94,89 C48.197,74.877 47.788,71.275 45.994,70.346 C45.343,70.009 44.51,70.023 43.365,70.015 C40.408,69.994 37.43,65.392 39.083,63.4 C39.753,62.593 40.791,62.097 41.39,62.297 C41.989,62.496 43.313,61.601 44.331,60.306 C45.957,58.239 46.101,56.827 45.506,48.726 C44.88,40.188 44.988,39.332 46.954,37.25 Z M171.357,151.75 C173.756,147.844 177.557,148.016 180.813,152.178 C181.909,153.579 181.849,154.405 180.448,157.178 C179.525,159.005 177.52,161.85 175.992,163.5 C163.773,176.696 158.978,182.817 159.03,185.154 C159.046,185.894 162.258,188.3 166.168,190.5 C170.078,192.7 175.577,196.013 178.389,197.862 C181.2,199.71 185.75,202.389 188.5,203.814 C191.25,205.24 196.951,208.677 201.169,211.453 C205.388,214.229 211.463,218.188 214.669,220.251 C217.876,222.314 222.075,225.119 224,226.484 C225.925,227.849 229.75,230.532 232.5,232.445 C246.094,241.902 250.468,245.769 253.072,250.634 C254.335,252.995 254.254,253.376 252.116,255.107 C248.063,258.389 244.46,257.594 240.76,252.603 C238.967,250.184 232.645,244.561 226.71,240.108 C216.627,232.541 213.789,230.656 207.124,227.1 C205.681,226.33 202.475,224.031 200,221.99 C197.525,219.95 193.363,217.343 190.75,216.197 C188.137,215.05 186,213.637 186,213.056 C186,212.475 185.317,212 184.482,212 C183.647,212 180.159,210.307 176.732,208.238 C173.304,206.169 165.775,202.185 160,199.384 C151.11,195.073 148.845,194.363 145.231,194.753 C139.823,195.337 138,193.87 138,188.934 C138,184.593 140.645,182 145.073,182 C147.079,182 149.324,180.202 154.545,174.414 C160.622,167.678 166.154,160.22 171.357,151.75 Z M47.25,107.706 C44.679,108.201 44.579,108.939 46.116,116.103 C46.729,118.964 47.517,124.499 47.866,128.403 C48.429,134.702 48.745,135.535 50.682,135.811 C55.631,136.515 56.199,126.518 51.423,122.761 C48.507,120.467 48.433,119.282 51,116 C52.076,114.625 52.966,112.037 52.978,110.25 C53.001,106.868 52.577,106.68 47.25,107.706 Z M141.701,117.632 C141.316,118.018 141,122.758 141,128.167 C141,136.021 141.287,138 142.428,138 C143.413,138 144.088,136.217 144.603,132.25 C145.89,122.339 145.684,117.595 143.951,117.244 C143.099,117.072 142.087,117.246 141.701,117.632 Z M61.667,101.667 C61.3,102.033 61,103.865 61,105.736 C61,108.693 61.295,109.097 63.25,108.82 C64.893,108.586 65.589,107.72 65.83,105.609 C66.212,102.262 63.572,99.762 61.667,101.667 Z"/>
</svg>

