<svg xmlns="http://www.w3.org/2000/svg" width="300" height="300" viewBox="0 0 300 300" version="1.1">
  <defs/>
  <path d="M135,102.629 C139.675,100.101 143.838,98.026 144.25,98.017 C144.662,98.008 145.928,98.928 147.061,100.061 C150.611,103.611 149.244,106.096 141.5,110.168 C137.65,112.193 133.928,113.883 133.23,113.924 C132.531,113.966 128.206,115.8 123.619,118 C119.031,120.2 114.556,122 113.674,122 C111.415,122 109.701,125.586 108.894,132 C108.513,135.025 107.644,139.441 106.963,141.812 C104.961,148.786 106.836,149.15 113.757,143.13 C117.001,140.308 120.549,138 121.64,138 C122.732,138 124.948,136.603 126.563,134.897 C130.941,130.27 142.191,122 144.105,122 C145.025,122 146.796,122.824 148.04,123.831 C151.653,126.757 150.094,129.973 142.776,134.689 C139.324,136.913 135.15,139.924 133.5,141.379 C128.431,145.85 115.265,156 114.535,156 C114.156,156 112.526,157.321 110.911,158.935 C109.297,160.549 106.789,162.011 105.337,162.185 C102.275,162.551 99.435,166.106 98.497,170.75 C97.858,173.916 97.931,174 101.293,174 C104.014,174 106.942,172.393 115.123,166.41 C120.83,162.235 126.85,158.243 128.5,157.538 C130.15,156.834 132.625,155.03 134,153.529 C137.385,149.833 147.531,144.81 150.837,145.192 C152.89,145.429 153.571,146.118 153.812,148.199 C154.06,150.351 153.346,151.466 150.289,153.699 C148.18,155.24 145.565,157.322 144.478,158.327 C143.39,159.333 138.675,162.578 134,165.54 C129.325,168.501 122.649,173.054 119.164,175.657 C113.729,179.717 112.895,180.753 113.302,182.945 C113.563,184.35 113.374,187.975 112.88,191 C112.387,194.025 111.523,202.8 110.959,210.5 C110.396,218.2 109.68,227.133 109.369,230.352 C108.518,239.146 109.845,239.427 117.029,231.97 C120.392,228.479 125.16,222.971 127.626,219.729 C132.738,213.008 132.387,211 126.1,211 C121.222,211 118,208.64 118,205.066 C118,201.707 119.159,200.64 126.743,197.014 C132.086,194.46 147.916,181.743 149.711,178.565 C150.145,177.795 152.557,174.991 155.071,172.333 C157.585,169.675 160.449,166.262 161.436,164.75 C164.471,160.097 171,161.715 171,167.12 C171,171.279 163.637,180.489 155.585,186.4 C152.123,188.941 148.438,191.964 147.396,193.117 C146.353,194.27 143.813,196.074 141.75,197.127 C137.903,199.09 136.869,201.838 139.25,203.769 C139.938,204.326 143.65,206.402 147.5,208.381 C156.535,213.026 168.442,221.241 190.43,238 C200.172,245.425 210.923,253.554 214.321,256.065 C217.72,258.576 221.518,262.176 222.762,264.065 C227.007,270.512 228.28,272 229.55,272 C230.249,272 233.111,273.81 235.91,276.023 C240.514,279.662 241,280.429 241,284.055 C241,286.664 240.485,288.26 239.525,288.629 C237.468,289.418 232.121,285.894 227.24,280.531 C224.972,278.039 222.508,276 221.764,276 C221.021,276 218.725,274.22 216.663,272.043 C210.17,265.191 187.315,247.018 174.025,238.141 C170.436,235.744 166.323,232.68 164.884,231.332 C161.17,227.854 140.793,215.891 139.149,216.223 C138.394,216.375 136.365,219.09 134.639,222.255 C129.823,231.085 123.883,238.685 114.55,247.959 L106.038,256.419 L103.346,254.409 C99.085,251.228 98.398,249.553 99.783,245.723 C100.452,243.872 101,238.562 101,233.922 C101,229.283 101.49,223.915 102.089,221.993 C102.688,220.072 103.526,211.975 103.951,204 C104.377,196.025 105.053,188.731 105.454,187.792 C106.003,186.502 105.565,185.929 103.665,185.452 C102.28,185.104 100.369,183.961 99.419,182.91 C98.468,181.86 97.137,181 96.46,181 C94.854,181 92,185.392 92,187.862 C92,188.925 90.447,192.878 88.55,196.647 C82.42,208.822 80,214.337 80,216.128 C80,217.093 79.55,218.16 79,218.5 C78.45,218.84 78,219.955 78,220.978 C78,222.001 77.367,224.112 76.593,225.669 C75.818,227.226 74.63,229.85 73.952,231.5 C73.274,233.15 72.155,235.85 71.465,237.5 C69.212,242.889 67.746,246.464 66.957,248.5 C66.53,249.6 65.918,251.175 65.597,252 C65.276,252.825 64.612,254.175 64.122,255 C63.632,255.825 62.78,257.625 62.228,259 C57.081,271.823 51.182,280 47.078,280 C42.841,280 40.342,272.703 44,271.01 C44.825,270.628 46.389,269.865 47.475,269.314 C49.133,268.474 51.583,264.161 59.147,248.764 C59.616,247.809 60,246.303 60,245.418 C60,244.533 60.739,242.389 61.643,240.654 C64.661,234.859 65,234.036 65,232.5 C65,231.66 65.428,230.191 65.952,229.236 C67.484,226.44 69.748,220.858 71.417,215.762 C72.27,213.156 73.373,210.231 73.867,209.262 C75.303,206.449 76.823,202.682 77.505,200.25 C77.851,199.012 78.554,198 79.067,198 C79.58,198 80,197.19 80,196.2 C80,195.21 80.372,193.973 80.826,193.45 C81.28,192.928 82.259,190.475 83,188 C83.742,185.525 84.89,182.375 85.552,181 C87.71,176.519 88.84,173.545 89.352,171 C89.629,169.625 91.197,164.45 92.837,159.5 C96.342,148.921 99,138.2 99,134.645 C99,133.255 99.45,131.84 100,131.5 C101.497,130.575 101.205,128.016 99.529,127.373 C98.721,127.063 96.886,127.731 95.453,128.858 C94.019,129.986 89.619,131.904 85.673,133.12 C81.728,134.336 78.005,135.706 77.399,136.164 C76.794,136.623 74.198,137.285 71.631,137.637 C66.276,138.371 63,136.375 63,132.38 C63,129.661 64.316,128.896 73,126.565 C76.575,125.606 80.85,124.054 82.5,123.116 C86.415,120.89 98.791,116.514 107,114.453 C110.575,113.556 113.999,112.409 114.609,111.905 C115.219,111.402 118.144,110.142 121.109,109.107 C124.074,108.071 130.325,105.156 135,102.629 Z M121.557,6.223 C122.413,5 123.933,4 124.934,4 C128.124,4 129.5,6.951 129.5,13.793 C129.5,17.162 129.471,18.846 130.225,20.033 C131.017,21.282 132.674,21.982 136.138,23.513 C138.139,24.398 141.211,26.403 142.964,27.968 C152.418,36.408 152.506,48.266 143.261,68 C141.328,72.125 139.247,76.625 138.636,78 C136.255,83.359 131.748,87.957 128.229,88.617 C126.324,88.974 123.356,90.485 121.633,91.975 C119.91,93.465 117.15,95.169 115.5,95.763 C113.85,96.357 108.675,98.485 104,100.493 C99.325,102.501 94.947,104.381 94.272,104.671 C92.716,105.338 86.7,99.413 87.239,97.745 C87.46,97.06 89.054,95.6 90.782,94.5 C94.535,92.11 94.762,91.247 91.75,90.82 C90.204,90.6 89.409,89.718 89.208,88 C89.048,86.625 88.507,84.6 88.007,83.5 C87.506,82.4 86.88,79.25 86.616,76.5 C86.163,71.782 84.459,63.148 81.977,53 C81.372,50.525 80.628,47.257 80.323,45.738 C80.019,44.219 79.371,42.729 78.885,42.429 C78.398,42.128 78,40.355 78,38.488 C78,36.621 77.472,33.936 76.827,32.52 C75.974,30.648 75.954,29.646 76.754,28.846 C78.423,27.177 87,34.523 87,37.62 C87,41.153 89.869,40.657 97.055,35.884 L103.251,31.769 L102.473,26.634 C102.046,23.81 101.652,19.25 101.598,16.5 C101.506,11.81 101.664,11.481 104.142,11.194 C107.561,10.798 111,15.376 111,20.323 C111,27.039 113.165,28.674 117.777,25.443 C119.748,24.063 120,23.011 120,16.166 C120,10.796 120.474,7.768 121.557,6.223 Z M97.102,48.014 C92.152,51.926 91.957,52.263 92.58,55.801 C93.49,60.965 95.233,64.421 97.11,64.783 C97.988,64.952 100.347,63.637 102.353,61.861 C105.486,59.087 105.983,58.059 105.882,54.566 C105.717,48.907 104.703,44.733 103.387,44.295 C102.775,44.091 99.947,45.765 97.102,48.014 Z M130.999,35.504 C129.431,39.626 128.573,51.618 129.792,52.371 C130.371,52.729 133.017,52.207 135.672,51.211 C140.419,49.43 140.499,49.329 140.413,45.188 C140.304,39.945 138.691,36.84 134.919,34.611 C132.02,32.899 131.986,32.906 130.999,35.504 Z M127.786,65.798 C124.828,68.96 123.055,71.892 122.585,74.4 C121.705,79.09 122.118,79.542 126.211,78.368 C128.861,77.608 130.137,76.16 133.165,70.469 C137.57,62.193 137.755,61 134.637,61 C133.105,61 130.696,62.687 127.786,65.798 Z M99.331,73.391 C96.75,75.612 96.549,76.326 96.526,83.391 C96.512,87.576 96.86,91 97.3,91 C97.739,91 99.363,90.347 100.907,89.548 C103.495,88.21 103.769,87.502 104.402,80.523 C105.328,70.302 104.416,69.018 99.331,73.391 Z M115.2,38.2 C113.67,39.73 113.582,53.623 115.096,54.559 C117.554,56.079 119.46,52.032 119.841,44.483 C120.186,37.653 120.052,37 118.309,37 C117.259,37 115.86,37.54 115.2,38.2 Z M112.687,71.825 C110.149,78.166 109.527,83 111.248,83 C112.533,83 117,72.112 117,68.979 C117,66.464 114.054,68.407 112.687,71.825 Z M82,42.794 C82,43.323 82.727,44.358 83.615,45.096 C85.013,46.256 85.181,46.182 84.865,44.551 C84.489,42.607 82,41.082 82,42.794 Z"/>
</svg>

