<svg xmlns="http://www.w3.org/2000/svg" width="300" height="300" viewBox="0 0 300 300" version="1.1">
  <defs/>
  <path d="M149.5,42.002 C154.304,39.65 155.108,39.6 159.383,41.387 C166.766,44.471 164.003,54.874 153.01,65.385 C147.407,70.742 141.996,77.794 142.003,79.73 C142.004,80.154 143.353,81.4 145,82.5 C148.75,85.005 148.765,86.762 145.078,91.402 C142.366,94.815 142.187,95.561 142.586,101.789 C143.304,113.006 143.331,113.053 148.438,112.353 C154.85,111.475 159.563,112.677 163.6,116.222 C167.13,119.321 167.151,119.39 166.499,125.422 C165.776,132.109 164.043,138 162.799,138 C162.36,138 161.986,139.012 161.968,140.25 C161.951,141.488 161.276,143.374 160.468,144.441 C159.661,145.509 159,147.498 159,148.862 C159,151.628 156.426,155 154.315,155 C153.559,155 150.765,157.138 148.107,159.75 C144.204,163.586 143.149,165.366 142.627,169 C142.271,171.475 141.716,175.134 141.394,177.132 C141.052,179.253 141.25,181.037 141.87,181.42 C143.139,182.204 153.581,179.375 156.715,177.397 C157.933,176.629 160.997,175.298 163.524,174.44 C166.052,173.582 171.035,171.53 174.6,169.881 C184.235,165.421 201.321,160 205.743,160 C211.934,160 216.411,165.494 213.957,170.08 C212.949,171.964 212.169,172.175 207.775,171.752 C203.221,171.315 200.471,171.792 194.5,174.058 C190.537,175.562 182.449,178.151 180,178.7 C178.625,179.009 176.825,179.825 176,180.514 C173.128,182.913 166.471,185.723 162.05,186.403 C159.602,186.78 156.996,187.588 156.26,188.2 C155.523,188.811 152.601,189.678 149.768,190.126 C141.077,191.5 140.965,191.783 140.513,213.575 C139.734,251.004 140.145,283.818 141.438,287.603 C141.949,289.1 141.466,290.509 139.764,292.488 C137.696,294.892 137.078,295.112 135.209,294.112 C130.557,291.622 130.514,291.154 130.507,243 L130.5,197.5 L124.669,197.766 C121.462,197.913 117.593,198.676 116.072,199.463 C114.551,200.249 112.343,200.641 111.165,200.333 C109.988,200.025 107.3,200.463 105.193,201.306 C99.77,203.476 84.475,207 80.48,207 C78.631,207 76.871,207.399 76.57,207.887 C75.668,209.347 69.169,210.161 67.129,209.069 C66.085,208.51 64.945,206.916 64.596,205.526 C63.905,202.773 62.574,202.451 58.414,204.033 C56.123,204.904 55.319,204.709 53.273,202.787 C50.492,200.174 50.518,197.279 53.485,179.656 C54.396,174.242 54.892,169.161 54.587,168.366 C54.247,167.479 52.975,167.032 51.301,167.21 C46.927,167.675 46.991,164.32 51.391,162.481 C56.287,160.436 59.355,160.627 61.595,163.118 C63.256,164.965 63.479,166.693 63.337,176.618 C63.247,182.878 63.39,188 63.654,188 C63.919,188 66.683,185.925 69.796,183.388 C76.708,177.758 79.643,176.516 82.722,177.919 C85.641,179.249 85.605,180.558 82.595,182.53 C81.273,183.396 79.901,185.259 79.547,186.669 C79.193,188.079 77.125,190.829 74.952,192.781 C72.778,194.732 71,196.768 71,197.307 C71,198.608 80.677,197.559 91.207,195.115 C95.768,194.057 102.425,192.707 106,192.116 C115.533,190.539 128.769,186.666 130.414,184.972 C132.325,183.006 133.018,167.839 131.225,167.242 C130.543,167.014 128.047,167.767 125.677,168.914 C117.721,172.766 113.244,171.044 114.3,164.537 C114.708,162.024 114.337,160.427 112.93,158.638 C111.868,157.289 111,155.329 111,154.283 C111,153.238 110.339,151.509 109.532,150.441 C108.724,149.374 108.049,147.798 108.032,146.94 C108.014,146.082 105.952,142.981 103.448,140.048 C99.599,135.538 98.943,134.158 99.198,131.108 C99.444,128.168 99.944,127.437 101.897,127.161 C103.666,126.911 105.273,127.894 108.031,130.911 C110.087,133.16 112.24,135 112.816,135 C113.392,135 114.874,133.537 116.108,131.75 C119.762,126.458 123.264,123.058 127.217,120.963 C132.12,118.365 132.819,116.716 132.233,109.126 L131.742,102.752 L126.936,103.321 C123.061,103.78 121.634,103.5 119.565,101.873 C118.154,100.763 117,99.086 117,98.146 C117,97.206 119.704,93.761 123.01,90.49 L129.02,84.543 L128.711,76.589 C128.532,71.964 127.943,68.481 127.304,68.268 C126.7,68.067 125.229,69.274 124.035,70.951 C120.307,76.186 113,74.016 113,67.674 C113,66.639 111.449,62.802 109.554,59.146 C105.273,50.888 104.231,45.883 106.417,44.069 C109.167,41.787 114.694,45.249 117.193,50.819 C118.348,53.394 119.753,56.513 120.315,57.75 C121.662,60.712 122.789,60.589 126.452,57.082 C129.83,53.847 143.282,45.046 149.5,42.002 Z M43.235,64.25 C44.679,62.463 46.046,62.695 48.686,65.174 C50.123,66.525 51.004,68.514 51.012,70.424 C51.018,72.116 51.688,75.975 52.5,79 C53.312,82.025 53.982,87.468 53.988,91.095 C53.998,96.492 54.377,98.031 56.077,99.569 C58.118,101.417 58.184,101.407 60,99 C61.016,97.653 62.894,96.539 64.174,96.525 C66.205,96.503 66.5,96.007 66.5,92.621 C66.5,86.919 69.209,85.504 72.476,89.5 C73.94,91.292 74.943,93.822 74.964,95.783 C75.003,99.335 71.168,107.786 68.52,109.983 C67.621,110.73 66.303,112.727 65.593,114.42 C64.156,117.849 53.757,128.611 46.675,134 C42.56,137.131 40.689,140 42.762,140 C43.836,140 57.205,135.578 65.295,132.546 C73.725,129.388 76.338,129.34 78.282,132.308 C79.929,134.821 78.974,138 76.573,138 C75.842,138 74.725,138.626 74.09,139.391 C73.455,140.156 70.85,141.095 68.301,141.478 C65.752,141.86 61.199,143.264 58.183,144.598 C52.031,147.319 42.43,150 38.841,150 C37.537,150 34.801,150.895 32.761,151.988 C30.72,153.082 26.677,154.252 23.776,154.588 C18.984,155.143 18.278,154.96 16.076,152.599 L13.651,150 L16,147.5 C17.292,146.125 18.895,145 19.562,145 C20.23,145 23.065,143.425 25.864,141.5 C28.662,139.575 31.3,137.996 31.726,137.992 C32.981,137.979 45,126.308 45,125.103 C45,124.496 44.397,124 43.66,124 C41.009,124 29.883,117.751 28.34,115.396 C26.044,111.892 27.89,110.321 34.902,109.813 C38.168,109.577 41.955,108.604 43.469,107.612 C46.475,105.642 46.496,105.009 44.087,89 C42.479,78.314 42.045,65.723 43.235,64.25 Z M30.238,163.162 C32.315,161.085 35.292,162.246 36.231,165.5 C36.707,167.15 37.187,172.325 37.298,177 C37.486,184.923 37.233,186.11 33.562,194.5 C28.125,206.924 24.716,210.316 21.2,206.8 C19.801,205.401 19.601,198.756 20.883,196.236 C24.577,188.976 28.894,173.597 28.965,167.45 C28.984,165.773 29.557,163.843 30.238,163.162 Z M145.441,124.481 C143.761,125.763 143.702,126.097 145,126.966 C145.825,127.518 147.524,127.976 148.775,127.985 C150.271,127.995 151.374,128.853 151.997,130.491 C153.314,133.956 152.26,135.998 148.796,136.691 C145.693,137.311 144,140.091 144,144.565 C144,146.265 144.557,147 145.845,147 C148.17,147 150.491,144.463 152.447,139.782 C153.284,137.777 154.427,135.854 154.985,135.509 C155.543,135.164 156,132.674 156,129.976 C156,126.149 155.575,124.843 154.066,124.035 C151.321,122.566 147.706,122.753 145.441,124.481 Z M142.388,57.725 C137.045,58.214 131.847,63.084 133.784,65.786 C135.027,67.52 135.618,68.778 136.469,71.5 C137.348,74.316 140.703,73.234 141.366,69.919 C141.705,68.225 143.561,64.994 145.491,62.739 C149.191,58.417 149.812,56.886 147.75,57.175 C147.063,57.271 144.65,57.519 142.388,57.725 Z M126,133.018 C119.8,137.506 118,139.57 118,142.191 C118,144.629 120.262,144.476 122.595,141.88 C123.643,140.714 126.893,138.225 129.817,136.35 C133.396,134.054 135.027,132.38 134.806,131.231 C134.251,128.351 131.744,128.86 126,133.018 Z M127.489,149.42 C126.158,150.751 124.266,151.992 123.285,152.178 C122.095,152.404 121.396,153.597 121.187,155.758 C120.913,158.589 121.173,159 123.241,159 C126.631,159 133,152.875 133,149.615 C133,146.272 130.718,146.191 127.489,149.42 Z M56.635,106.073 C53.787,108.312 52.97,113 55.427,113 C57.292,113 61,108.253 61,105.865 C61,103.457 59.893,103.51 56.635,106.073 Z"/>
</svg>

