<svg xmlns="http://www.w3.org/2000/svg" width="300" height="300" viewBox="0 0 300 300" version="1.1">
  <defs/>
  <path d="M170,64.945 C175.775,64.035 181.445,63.225 182.6,63.145 C186.794,62.855 199,73.974 199,78.084 C199,79.193 199.668,81.39 200.484,82.968 C201.937,85.779 202.192,87.223 204.103,103.5 C205.788,117.855 204.868,146.186 202.446,154.5 C202.125,155.6 201.664,160.1 201.421,164.5 C201.177,168.9 200.694,173.175 200.347,174 C199.999,174.825 199.644,177.112 199.557,179.082 C199.471,181.052 197.913,185.777 196.095,189.582 C194.278,193.387 192.275,197.586 191.645,198.913 C189.95,202.486 185.086,205.146 181.613,204.401 C175.155,203.015 169.628,198.651 166.476,192.449 C163.293,186.189 160.474,184.519 158.04,187.452 C157.271,188.378 155.097,189.014 152.628,189.035 C150.357,189.055 147.375,189.714 146,190.5 C144.625,191.286 142.262,191.945 140.75,191.965 C139.238,191.984 138,192.45 138,193 C138,193.55 136.648,194 134.996,194 C133.344,194 130.314,194.9 128.261,196 C123.625,198.485 122.887,198.485 119.734,196.006 C117.728,194.427 116.291,194.135 112.847,194.608 C105.306,195.641 105.108,195.03 104.522,168.935 C104.13,151.477 104.016,146.757 104.004,142.037 C103.999,139.806 104.016,137.575 104.037,134 C104.089,125.414 103.929,123.175 102.046,106 C100.071,87.978 99.838,86.489 98.533,83.5 C94.944,75.276 94.014,68.386 96.2,66.2 C99.514,62.886 105,66.603 105,72.163 C105,73.659 105.42,75.142 105.934,75.459 C107.392,76.36 110.163,86.911 109.495,89.015 C109.166,90.052 109.545,92.16 110.337,93.7 C112.156,97.236 113.065,111.729 113.102,137.782 C113.118,148.937 113.499,160.394 113.949,163.241 C114.532,166.926 114.353,169.816 113.33,173.26 C112.012,177.698 112.134,183.756 113.651,189.25 C114.252,191.424 117.764,191.524 120.075,189.432 C121.028,188.569 125.564,186.821 130.154,185.547 C134.744,184.273 139.85,182.673 141.5,181.991 C147.127,179.665 148.503,179.188 155.5,177.136 C159.35,176.006 165.154,174.568 168.397,173.94 C172.31,173.182 175.147,171.944 176.83,170.261 L179.366,167.725 L181.683,170.418 C182.957,171.899 184,173.902 184,174.869 C184,177.101 178.948,182 176.646,182 C173.652,182 169,184.964 169,186.871 C169,189.289 172.301,192.234 178.75,195.568 C181.648,197.066 182.706,195.728 187.496,184.5 C191.254,175.692 193.886,158.204 194.419,138.5 C194.463,136.85 194.807,135.031 195.181,134.457 C195.556,133.883 195.642,128.483 195.372,122.457 C194.681,107.01 194.249,102.594 192.542,93.5 C191.192,86.308 190.507,84.101 188.044,79 C187.645,78.175 185.784,76.762 183.908,75.859 C181.004,74.462 179.009,74.355 170.498,75.137 C164.999,75.643 159.506,76.476 158.29,76.988 C157.075,77.501 153.7,78.228 150.79,78.605 C147.881,78.981 144.612,79.899 143.527,80.644 C142.443,81.39 140.892,82 140.081,82 C139.271,82 136.926,83.165 134.872,84.589 C128.221,89.198 123.663,84.725 130.016,79.826 C137.432,74.108 138.756,73.312 143,72.021 C145.475,71.268 147.928,70.28 148.45,69.826 C148.973,69.372 150.406,69 151.635,69 C152.864,69 155.137,68.46 156.685,67.8 C158.233,67.14 164.225,65.855 170,64.945 Z M48.175,144.75 C50.055,141.075 60.023,143.339 63.439,148.217 C66.15,152.087 65.469,160.199 61.903,166.518 C58.97,171.715 58.837,172.414 59.4,179.671 C60.006,187.49 60.793,189.177 65.881,193.566 C68.099,195.479 68.186,195.905 67.061,199.316 C66.392,201.342 65.43,203 64.922,203 C64.415,203 64,203.387 64,203.86 C64,204.333 66.362,204.995 69.25,205.33 C78.024,206.35 89.047,208.738 98,211.559 C102.675,213.032 109.65,214.833 113.5,215.561 C117.35,216.289 124.1,217.63 128.5,218.541 C132.9,219.452 139.425,220.549 143,220.978 C146.575,221.407 150.175,222.041 151,222.386 C151.825,222.731 156.1,223.436 160.5,223.953 C167.885,224.82 171.829,225.512 184,228.076 C186.475,228.597 191.65,229.461 195.5,229.995 C199.35,230.529 207.225,231.639 213,232.461 C232.743,235.273 249,233.93 249,229.487 C249,227.302 251.51,227.674 254.579,230.314 C256.876,232.29 257.104,232.938 256.135,234.748 C255.511,235.914 255,238.228 255,239.889 C255,242.576 254.586,242.994 251.25,243.68 C245.611,244.838 225.238,244.401 218.464,242.977 C215.184,242.287 209.125,241.656 205,241.576 C200.875,241.495 195.7,240.912 193.5,240.279 C191.3,239.646 185.45,238.368 180.5,237.439 C175.55,236.509 168.125,235.08 164,234.263 C159.875,233.446 154.925,232.683 153,232.567 C147.049,232.208 138.55,230.814 137.5,230.024 C136.95,229.611 133.83,228.973 130.566,228.606 C127.302,228.239 124.035,227.444 123.306,226.839 C122.539,226.203 120.221,225.975 117.805,226.299 C115.181,226.651 112.64,226.348 110.968,225.483 C109.504,224.726 107.335,224.361 106.148,224.672 C104.961,224.982 103.429,224.772 102.745,224.204 C102.06,223.636 98.125,222.408 94,221.474 C89.875,220.541 85.825,219.521 85,219.207 C84.175,218.893 81.08,218.539 78.122,218.42 C75.164,218.301 72.464,217.792 72.122,217.29 C71.379,216.199 69.564,216.012 56.5,215.677 C51,215.537 45.696,215.047 44.713,214.589 C43.547,214.047 42.33,214.268 41.213,215.227 C38.566,217.497 35.884,218.149 34.367,216.89 C33.608,216.26 31.571,215.455 29.839,215.101 C26.024,214.321 24.49,212.166 25.34,208.781 C26.154,205.537 29.445,204.315 39.335,203.588 C52.084,202.65 55.564,198.211 50.985,188.732 C47.959,182.469 48.122,173.81 51.394,167.028 C54.698,160.179 55.009,153 52.003,153 C49.484,153 46.854,147.331 48.175,144.75 Z M137.499,106.002 C138.245,104.794 143.976,104.698 145.812,105.863 C146.63,106.381 147.007,108.167 146.812,110.598 C146.549,113.885 146.821,114.546 148.537,114.792 C149.709,114.959 151.586,114.005 152.961,112.542 C156.357,108.927 159.88,109.249 164.054,113.556 L167.5,117.112 L167.568,129.306 L167.635,141.5 L171.559,142 C174.667,142.396 175.773,143.108 176.878,145.421 C179.011,149.887 177.419,151.471 170.625,151.646 C167.028,151.739 163.97,152.455 162.233,153.612 C160.73,154.612 158.15,155.5 156.5,155.583 C154.85,155.667 152.513,156.066 151.306,156.47 C149.685,157.012 148.489,156.58 146.722,154.812 C144.721,152.812 144.139,150.742 143.161,142.137 C142.518,136.48 141.543,131.015 140.996,129.992 C140.448,128.969 140,126.778 140,125.125 C140,123.471 139.609,121.876 139.131,121.581 C138.061,120.92 136.643,107.387 137.499,106.002 Z M60.557,87.223 C63.611,82.862 67.451,84.726 73.75,93.629 C75.231,95.722 75.958,98.204 75.946,101.129 C75.936,103.533 75.937,107.813 75.948,110.641 C75.97,116.313 74.374,118.571 71.083,117.526 C69.717,117.093 68.88,115.699 68.479,113.194 C67.9,109.568 67.221,107.986 61.808,97.644 C58.642,91.593 58.474,90.196 60.557,87.223 Z M153.174,126.314 C150.646,129.006 150.575,129.67 152.25,135.041 C153.992,140.628 156.033,139.764 158.243,132.504 C159.965,126.849 159.97,126.452 158.341,125.26 C156.025,123.567 155.692,123.635 153.174,126.314 Z"/>
</svg>

