<svg xmlns="http://www.w3.org/2000/svg" width="300" height="300" viewBox="0 0 300 300" version="1.1">
  <defs/>
  <path d="M151.985,46.518 C153.662,44.498 154.281,44.594 156.702,47.25 C159.379,50.189 161.691,55.508 162.46,60.5 C162.799,62.7 163.332,66.188 163.643,68.25 C164.309,72.652 165.719,72.949 169.771,69.539 C171.379,68.186 174.676,66.62 177.098,66.06 C181.037,65.148 181.684,65.261 183.25,67.131 C184.213,68.281 185,69.972 185,70.888 C185,73.065 182.221,77 180.684,77 C180.022,77 178.956,77.84 178.315,78.868 C177.673,79.895 175.035,81.357 172.452,82.118 C166.961,83.734 164,86.998 164,91.435 C164,93.176 163.603,95.028 163.119,95.55 C162.105,96.642 160.932,115.003 161.876,114.995 C162.85,114.987 167.274,111.898 172.971,107.25 C175.836,104.913 178.616,103 179.148,103 C179.681,103 181.778,101.693 183.809,100.095 C185.839,98.497 188.946,96.89 190.713,96.524 C193.541,95.937 193.999,96.149 194.537,98.29 C194.873,99.628 195.002,102.232 194.824,104.076 C194.545,106.968 193.949,107.631 190.5,108.893 C188.3,109.699 183.697,112.527 180.271,115.179 C176.846,117.83 173.738,120 173.366,120 C172.993,120 169.682,122.054 166.008,124.564 C161.357,127.742 158.841,130.249 157.724,132.814 C156.168,136.391 153.176,144.54 152.724,146.436 C152.601,146.951 154.3,148.369 156.5,149.588 C165.57,154.614 170.228,157 170.97,157 C171.402,157 176.192,159.925 181.614,163.5 C187.08,167.104 192.593,170.008 193.986,170.017 C195.387,170.027 197.607,171.202 199,172.673 C204.034,177.986 217.791,189 219.394,189 C220.301,189 221.527,190.063 222.119,191.361 C222.71,192.66 224.736,194.457 226.62,195.356 C228.544,196.273 230.497,198.178 231.076,199.7 C231.96,202.025 231.779,202.664 229.803,204.189 C226.294,206.898 223.797,207.443 222.572,205.768 C221.978,204.956 220.548,203.991 219.395,203.625 C218.241,203.259 214.193,199.791 210.399,195.918 C206.604,192.046 202.037,188.253 200.25,187.49 C198.463,186.726 197,185.641 197,185.077 C197,184.513 195.762,183.351 194.25,182.495 C192.738,181.639 190.15,180.058 188.5,178.981 C186.85,177.903 184.825,176.719 184,176.348 C183.175,175.977 180.025,174.006 177,171.968 C168.949,166.544 159.405,161 158.119,161 C157.504,161 156.1,160.1 155,159 C151.21,155.21 148.193,157.143 147.28,163.946 C146.984,166.159 146.124,168.482 145.37,169.108 C144.617,169.733 143.978,170.977 143.952,171.872 C143.926,172.768 143.058,175.075 142.023,177 C138.426,183.696 137,187.258 137,189.551 C137,190.82 135.523,193.424 133.718,195.338 C126.946,202.518 126.462,206.339 132.182,207.464 C134.007,207.823 136.4,208.477 137.5,208.918 C138.6,209.359 142.2,210.532 145.5,211.524 C148.8,212.516 152.85,213.879 154.5,214.554 C159.039,216.41 178.648,221.664 186,222.995 C189.575,223.641 195.2,224.772 198.5,225.507 C205.532,227.072 217.86,228.639 230.5,229.574 C235.45,229.94 242.2,230.455 245.5,230.718 C254.528,231.439 256.35,231.425 258.121,230.621 C260.491,229.545 263,232.558 263,236.478 C263,239.644 262.721,239.902 257.512,241.54 C254.494,242.489 251.519,243.874 250.903,244.617 C249.99,245.717 249.01,245.302 245.641,242.393 C241.896,239.159 241.07,238.866 237,239.326 C234.525,239.606 230.475,239.399 228,238.866 C216.848,236.464 195.493,233.367 185,232.63 C183.075,232.494 179.544,231.366 177.153,230.122 C174.762,228.878 172.077,228.14 171.185,228.482 C168.41,229.547 157.071,226.336 146.9,221.605 C143.821,220.172 140.846,219 140.289,219 C139.733,219 135.943,217.941 131.866,216.648 C127.79,215.354 122.215,213.966 119.477,213.563 C116.74,213.16 111.736,211.518 108.357,209.915 C104.978,208.312 101.189,207 99.936,207 C98.683,207 96.947,206.393 96.079,205.65 C94.544,204.338 82.16,200.992 78.857,200.997 C77.953,200.999 76.988,200.41 76.711,199.689 C76.409,198.902 73.065,197.95 68.354,197.309 C59.56,196.112 58.438,196.036 44.826,195.723 L35.152,195.5 L34.505,191.188 C33.474,184.312 34.59,183.664 46.474,184.24 C55.049,184.655 57.087,184.44 60.56,182.755 L64.62,180.786 L66.841,166.893 C68.063,159.252 69.274,152.438 69.533,151.75 C69.791,151.063 67.302,146.93 64.001,142.567 C57.88,134.475 56.584,130.42 59.378,128.101 C61.551,126.298 65.11,128.257 68.898,133.34 C70.767,135.848 72.895,138.13 73.627,138.41 C74.358,138.691 76.109,141.301 77.516,144.21 C79.462,148.233 80.047,150.937 79.957,155.5 C79.81,162.914 78.093,171.776 76.238,174.695 C75.218,176.299 75.033,178.414 75.55,182.551 C76.228,187.98 76.426,188.29 80.379,190.084 C82.645,191.114 85.319,191.966 86.32,191.978 C87.32,191.99 91.37,193.308 95.32,194.906 C99.269,196.505 105.65,198.771 109.5,199.942 L116.5,202.072 L117.872,200.036 C118.627,198.916 119.752,197.992 120.372,197.983 C121.602,197.963 127.776,187.893 130.477,181.5 C131.406,179.3 132.58,176.825 133.086,176 C135.757,171.64 140.762,158.211 142.029,152 C142.534,149.525 143.398,145.7 143.95,143.5 C145.642,136.748 144.953,136.347 139.653,141 C137.774,142.65 135.563,144 134.74,144 C133.918,144 132.649,144.718 131.922,145.595 C131.194,146.472 128.551,148.223 126.049,149.487 C115.627,154.751 105.397,160.372 103.912,161.65 C102.556,162.817 102.104,162.76 100.814,161.258 C96.851,156.645 97.929,152.839 103.742,150.92 C107.864,149.56 109.633,148.558 119.052,142.25 C122.542,139.912 125.913,138 126.544,138 C127.174,138 128.505,137.1 129.5,136 C130.495,134.9 131.85,134 132.509,134 C133.168,134 134.922,132.875 136.405,131.5 C137.889,130.125 139.539,129 140.071,129 C140.604,129 142.788,127.897 144.924,126.548 C148.166,124.501 148.916,123.386 149.461,119.798 C149.82,117.434 150.493,114.6 150.957,113.5 C151.422,112.4 152.372,108.217 153.07,104.205 C154.195,97.73 154.156,96.727 152.72,95.292 C151.23,93.802 150.791,93.943 147.15,97.087 C144.976,98.964 142.091,101.261 140.739,102.191 C139.24,103.222 138.063,105.222 137.723,107.318 C137.417,109.207 136.254,112.64 135.141,114.945 C134.027,117.251 133.334,119.706 133.601,120.401 C133.867,121.097 131.968,124.238 129.381,127.381 C125.979,131.513 124.097,133.014 122.588,132.798 C120.846,132.55 120.556,131.919 120.838,129 C121.024,127.075 121.757,124.825 122.467,124 C124.486,121.655 126.999,116.284 127.006,114.3 C127.01,113.31 127.685,111.211 128.506,109.636 C129.328,108.06 130,105.719 130,104.433 C130,103.146 130.41,101.06 130.911,99.797 C132.516,95.747 135.02,82.681 135.322,76.776 C135.483,73.628 135.926,70.741 136.307,70.359 C137.359,69.308 137.135,63.121 135.967,60.938 C135.16,59.431 135.42,58.35 137.155,56.004 C139.679,52.591 141.139,52.282 143.517,54.66 C144.946,56.089 145.102,58.005 144.636,68.41 C144.339,75.06 143.799,82.188 143.438,84.25 C142.593,89.074 143.825,89.082 149.56,84.288 L154,80.576 L154,71.488 C154,66.291 153.536,61.936 152.916,61.316 C151.207,59.607 150.497,48.311 151.985,46.518 Z M73.2,83.2 C74.73,81.67 78.065,81.71 80,83.282 C83.222,85.899 87.299,92.39 87.286,94.88 C87.249,101.511 84.512,110 82.411,110 C78.961,110 75.281,103.002 76.395,98.561 C76.76,97.108 76.419,95.763 75.49,94.992 C74.671,94.312 74,92.712 74,91.437 C74,90.161 73.55,88.84 73,88.5 C71.629,87.653 71.742,84.658 73.2,83.2 Z"/>
</svg>

