<svg xmlns="http://www.w3.org/2000/svg" width="300" height="300" viewBox="0 0 300 300" version="1.1">
  <defs/>
  <path d="M141.88,11.75 C143.043,8.763 146.4,8.073 150.109,10.058 C151.864,10.998 152.018,11.812 151.476,17.308 C150.746,24.718 148.95,33.134 147.817,34.45 C145.96,36.609 147.328,37.124 153.25,36.498 C159.258,35.862 159.609,35.951 162.323,38.799 C164.91,41.514 165.097,42.211 164.56,47.131 C163.575,56.147 162.808,59.212 160.61,62.916 C159.45,64.872 157.375,68.585 156,71.166 C153.134,76.545 139.081,97.509 136.336,100.5 C134.91,102.053 134.43,104.456 134.188,111.25 C133.812,121.814 134.467,122.144 141.538,114.954 C149.281,107.079 154.937,105.062 158.435,108.928 C160.901,111.653 159.626,114.64 154.985,117.008 C152.857,118.093 149.965,120.491 148.558,122.335 C146.416,125.144 146,126.753 146,132.237 C146,140.723 147.323,141.302 154.537,135.973 C163.565,129.304 166.69,128.829 168.947,133.783 C170.055,136.215 169.909,136.667 167.333,138.783 C165.775,140.063 162.7,142.047 160.5,143.192 C158.3,144.337 155.323,146.224 153.884,147.387 C152.445,148.549 150.457,149.976 149.466,150.557 C148.276,151.255 147.602,152.955 147.483,155.557 C147.384,157.726 146.945,163.213 146.508,167.75 C145.896,174.091 146,176 146.957,176 C149.362,176 157.703,166.933 158.864,163.058 C159.494,160.957 160.65,158.706 161.433,158.056 C163.684,156.187 168.665,159.374 171.98,164.805 C173.556,167.387 176.005,171.358 177.423,173.63 C178.84,175.901 180,178.179 180,178.692 C180,179.205 180.88,181.447 181.957,183.674 C183.716,187.315 184.704,191.176 188.012,207.326 C188.555,209.981 189,213.188 189,214.454 C189,215.72 189.563,217.197 190.25,217.737 C192.07,219.168 239.243,217.629 245.188,215.946 C249.432,214.744 250.221,214.802 253.524,216.559 C258.25,219.074 259.485,221.288 257.218,223.187 C251.466,228.003 251.492,227.999 221.771,228.417 C206.222,228.635 193.162,228.856 192.75,228.907 C192.338,228.958 192,231.24 192,233.977 C192,238.147 191.605,239.213 189.565,240.55 C188.225,241.427 185.863,242 184.315,241.823 C181.656,241.518 181.483,241.197 181.19,236.03 C181.02,233.022 180.451,230.043 179.926,229.411 C179.355,228.723 175.467,228.218 170.236,228.153 C152.474,227.93 141.409,226.932 120,223.619 C114.775,222.811 106,221.835 100.5,221.451 C95,221.066 88.925,220.17 87,219.459 C85.075,218.747 80.8,217.915 77.5,217.609 C74.2,217.303 68.35,216.605 64.5,216.059 C60.65,215.512 47.457,215.051 35.183,215.033 L12.867,215 L9.433,212.381 C5.884,209.674 4.993,206.407 7.2,204.2 C7.991,203.409 12.231,203 19.641,203 L30.881,203 L38.246,197.076 C42.296,193.817 46.166,189.931 46.846,188.439 C47.932,186.056 47.79,185.287 45.681,182.113 C39.117,172.235 38.742,171.222 39.476,165.342 C39.859,162.281 41.708,156.186 43.586,151.799 C45.464,147.412 47,143.188 47,142.411 C47,141.323 45.3,141 39.568,141 C32.506,141 32.033,140.855 30.068,138.096 C27.539,134.544 27.427,132.278 29.75,131.698 C32.627,130.979 49.91,130.837 52.044,131.514 C54.218,132.204 57,136.834 57,139.763 C57,141.949 53.454,149.601 52.034,150.479 C50.039,151.712 48.144,157.685 47.746,163.998 L47.336,170.496 L53.17,176.33 C56.378,179.538 59.263,183.198 59.58,184.463 C60.448,187.922 56.612,195.32 51.826,199.417 C49.331,201.552 48.001,203.363 48.559,203.864 C50.074,205.225 92.716,211.26 124,214.54 C131.975,215.377 141.2,216.494 144.5,217.024 C151.577,218.161 178.667,218.667 179.653,217.681 C180.027,217.306 179.837,214.637 179.229,211.75 C178.622,208.862 177.609,204.025 176.979,201 C175.566,194.215 168.795,180.095 165.446,176.949 L162.965,174.618 L160.232,177.704 C158.73,179.401 152.925,184.883 147.333,189.886 C138.046,198.197 136.898,198.93 134.064,198.363 C131.845,197.919 129.723,198.4 126.608,200.052 C122.994,201.969 121.679,202.197 118.877,201.394 C113.18,199.762 112.831,192.863 117.587,175.91 C117.832,175.036 119.146,173.724 120.507,172.996 C122.655,171.847 123.242,171.909 124.961,173.465 C126.666,175.008 126.857,176.078 126.329,181.129 C125.729,186.863 125.772,187 128.17,187 C134.119,187 138,177.385 138,162.649 L138,156.962 L135.25,157.601 C133.738,157.952 132.001,158.86 131.391,159.619 C130.781,160.377 126.844,162.766 122.642,164.927 C118.44,167.088 112.954,170.239 110.451,171.928 C107.948,173.618 105.644,175 105.332,175 C105.02,175 103.226,176.35 101.347,178 C95.962,182.729 92,181.594 92,175.323 C92,172.824 92.653,171.645 94.75,170.358 C96.263,169.429 100.425,166.753 104,164.41 C107.575,162.068 113.875,158.471 118,156.418 C122.125,154.364 128.313,150.883 131.75,148.681 C136.835,145.424 138,144.184 138,142.03 C138,140.574 137.438,138.616 136.75,137.681 C135.671,136.212 135.057,136.146 132.264,137.203 C127.923,138.846 127.066,137.803 125.824,129.368 C124.6,121.05 124.554,119.162 125.501,116.25 C126.632,112.774 123.1,113.349 117.891,117.49 C115.476,119.41 113.085,120.985 112.579,120.99 C112.072,120.996 110.947,121.64 110.079,122.422 C107.479,124.764 103.366,125.397 102.663,123.564 C102.054,121.977 106.67,116.382 110.211,114.414 C112.719,113.022 122,103.958 122,102.903 C122,101.257 119.194,101.966 116.327,104.337 C112.835,107.224 103.803,110.522 101.652,109.697 C99.366,108.82 98.411,104.16 100.158,102.413 C100.938,101.633 104.317,99.534 107.667,97.748 C111.018,95.961 115.885,93.192 118.485,91.593 C121.486,89.748 125.09,88.509 128.356,88.201 C132.092,87.848 134.116,87.056 135.75,85.306 C136.988,83.981 138,82.54 138,82.103 C138,81.667 138.851,80.54 139.89,79.6 C140.93,78.659 143.219,75.102 144.978,71.695 C146.737,68.288 149.257,63.475 150.578,61 C152.034,58.272 152.983,54.807 152.99,52.2 L153,47.9 L147.364,48.2 C142.122,48.479 141.602,48.734 139.942,51.838 C137.564,56.284 137.491,56.333 135.086,55.046 C132.332,53.572 132.465,50.478 135.512,45.148 C136.88,42.754 138,39.49 138,37.894 C138,36.298 138.84,33.425 139.867,31.509 C141.338,28.764 141.637,26.589 141.272,21.262 C141.018,17.543 141.292,13.262 141.88,11.75 Z M46.2,80.2 C46.86,79.54 48.773,79.021 50.45,79.046 C53.59,79.094 55.632,81.164 61.543,90.294 C64.912,95.497 64.962,103.285 61.655,107.418 C58.36,111.536 56.425,110.365 54.974,103.373 C53.607,96.792 52.763,95.059 48.25,89.584 C44.863,85.473 44.157,82.243 46.2,80.2 Z M121.7,68.094 C125.515,66.08 130.438,65.463 133.455,66.621 C135.229,67.302 138,72.033 138,74.382 C138,75.197 136.592,76.866 134.871,78.092 C132.325,79.905 131.396,80.104 129.885,79.16 C128.863,78.522 126.334,77.986 124.264,77.969 C121.414,77.945 120.054,77.325 118.663,75.416 C116.315,72.192 116.982,70.584 121.7,68.094 Z"/>
</svg>

