<svg xmlns="http://www.w3.org/2000/svg" width="300" height="300" viewBox="0 0 300 300" version="1.1">
  <defs/>
  <path d="M167.5,58.026 C169.15,57.574 170.737,57.159 171.027,57.102 C171.765,56.959 176.346,60.162 177.235,61.442 C178.654,63.486 177.968,65.199 174.5,68.269 C172.575,69.974 171,71.93 171,72.617 C171,73.304 168.813,76.112 166.141,78.856 C160.605,84.538 159.112,88.996 161.515,92.664 C162.864,94.722 163.832,95 169.655,95 C182.681,95 186.511,100.622 181.506,112.397 C177.373,122.123 168.841,129.357 160.512,130.198 C157.951,130.457 157.444,131 156.964,134 C156.656,135.925 156.762,140.65 157.199,144.5 C157.635,148.35 158.198,156.675 158.448,163 C158.698,169.325 159.205,178.55 159.573,183.5 C160.321,193.551 160.405,228.522 159.685,229.726 C159.43,230.152 158.901,239.725 158.509,251 C158.117,262.275 157.633,275.775 157.434,281 C157.235,286.225 157.056,292.637 157.036,295.25 L157,300 L153,300 C149.001,300 148.57,299.519 148.733,295.24 C149.269,281.176 150.497,213.171 150.489,198 C150.477,176.198 149.41,157.791 147.967,154.5 C147.484,153.4 146.875,150.025 146.614,147 C146.113,141.212 143.794,128.549 142.766,126 C142.09,124.321 141.362,121.036 139.918,113.14 C138.86,107.356 139.519,105.605 143.19,104.44 C145.717,103.638 152,109.393 152,112.509 C152,115.403 157.025,120 160.187,120 C161.869,120 164.181,118.584 166.838,115.926 C174.148,108.617 173.31,105.412 163.749,104.115 C153.848,102.771 149.441,98.174 150.225,90.008 C150.659,85.498 151.975,82.842 157.478,75.381 C159.354,72.837 156.787,71.996 151.489,73.419 C148.745,74.156 141.912,75.789 136.304,77.047 C125.193,79.541 123.662,79.246 122.743,74.434 C122.221,71.708 124.959,69 128.236,69 C129.221,69 130.809,68.605 131.764,68.123 C134.318,66.832 139.545,65.36 148,63.55 C152.125,62.668 157.525,61.248 160,60.397 C162.475,59.545 165.85,58.478 167.5,58.026 Z M82.395,137.765 C84.539,136.34 87.123,137.03 89.584,139.685 C91.072,141.291 91.824,142.999 91.455,143.935 C89.526,148.83 88.063,154.294 87.034,160.448 C85.907,167.189 85.941,167.448 88.186,169.175 C89.459,170.154 91.261,170.966 92.191,170.978 C93.121,170.99 94.164,171.457 94.509,172.015 C94.854,172.573 96.568,173.641 98.318,174.386 C100.068,175.132 103.638,177.87 106.25,180.47 C111.553,185.749 112.391,189.431 108.99,192.509 C107.04,194.274 106.909,194.263 104.675,192.164 C103.408,190.974 101.991,190 101.526,190 C101.062,190 98.166,188.093 95.091,185.763 C88.169,180.518 82.457,177.611 80.529,178.351 C79.723,178.66 78.42,180.453 77.634,182.334 C76.847,184.216 75.721,186.054 75.131,186.419 C74.54,186.784 73.122,189.202 71.979,191.791 C70.836,194.381 68.438,198.075 66.65,200 C64.861,201.925 62.762,204.776 61.984,206.335 C61.207,207.895 59.325,209.815 57.803,210.602 C56.281,211.389 54.043,213.376 52.83,215.017 C51.616,216.657 50.281,218 49.862,218 C49.443,218 47.1,219.35 44.655,221 C39.419,224.534 37.635,224.685 33.182,221.97 C28.558,219.15 29.209,216.5 34.525,216.5 C39.441,216.5 41.252,215.479 47.214,209.348 C52.291,204.127 54.053,201.813 62.326,189.5 C72.001,175.1 72.006,174.416 62.436,175.396 C55.296,176.128 54.189,175.372 55.998,171.005 C57.4,167.621 61.279,166 67.975,166 C74.118,166 76.326,163.56 77.932,155 C80.307,142.338 81.303,138.491 82.395,137.765 Z M68.23,104.25 C69.325,102.901 71.886,102.635 74.418,103.607 C76.734,104.496 76.474,111.128 74,114.273 C72.9,115.671 71.986,117.194 71.97,117.658 C71.855,120.835 58.746,143 56.982,143 C56.456,143 54.849,144.912 53.411,147.25 C51.973,149.588 48.305,153.863 45.261,156.75 C40.546,161.222 39.153,162 35.863,162 C33.738,162 31.663,162.014 31.25,162.031 C30.837,162.048 30.362,160.964 30.192,159.621 C29.974,157.887 30.663,156.648 32.574,155.34 C36.755,152.48 41.647,147.239 45.376,141.626 C47.249,138.807 49.689,135.68 50.799,134.678 C51.909,133.675 53.393,131.425 54.097,129.678 C54.801,127.93 56.495,124.7 57.862,122.5 C59.229,120.3 61.893,115.575 63.781,112 C65.67,108.425 67.672,104.938 68.23,104.25 Z M84.327,67.75 C85.044,65.693 89.255,65.397 90.829,67.293 C91.602,68.225 91.475,70.042 90.376,73.793 C89.08,78.214 87.974,79.673 83.037,83.472 C72.574,91.523 58.392,97.894 54.022,96.507 C51.866,95.823 50.41,91.981 51.364,89.494 C51.988,87.867 53.955,86.935 61,84.924 C63.475,84.218 67.435,82.371 69.8,80.82 C72.165,79.269 74.434,78 74.842,78 C75.981,78 83.637,69.726 84.327,67.75 Z M64.15,42.319 C64.849,41.476 66.234,41.096 67.43,41.417 C68.569,41.723 70.48,41.979 71.677,41.986 C74.674,42.005 79.44,51.902 78.687,56.542 C78.399,58.314 78.667,60.267 79.282,60.882 C80.106,61.706 80.084,62.316 79.2,63.2 C78.54,63.86 77.988,65.323 77.973,66.45 C77.937,69.181 72.635,75.511 71.151,74.593 C70.453,74.162 70,71.009 70,66.581 C70,60.324 69.62,58.722 67.347,55.39 C63.98,50.452 62.482,44.329 64.15,42.319 Z M94.5,110.381 C96.7,109.765 101.527,109.202 105.227,109.131 C111.409,109.011 112.09,109.207 113.629,111.557 C115.217,113.98 115.2,114.256 113.298,116.807 C111.375,119.386 110.854,119.512 101.041,119.786 C90.02,120.094 88,119.42 88,115.437 C88,112.729 89.062,111.902 94.5,110.381 Z"/>
</svg>

