<svg xmlns="http://www.w3.org/2000/svg" width="300" height="300" viewBox="0 0 300 300" version="1.1">
  <defs/>
  <path d="M27.75,126.08 C28.659,125.55 29.117,125.234 29.612,125.158 C30.321,125.05 31.106,125.435 33.4,126.394 C37.009,127.902 40.715,132.267 43.518,138.311 C45.021,141.551 45.189,143.802 44.641,153.311 C44.004,164.372 44.031,164.568 47.028,170.449 L50.058,176.398 L46.356,181.774 C44.319,184.731 40.706,188.746 38.326,190.696 C35.947,192.646 34,194.83 34,195.55 C34,196.336 36.274,197.33 39.703,198.042 C42.84,198.693 46.777,199.821 48.453,200.548 C50.129,201.274 56,203.082 61.5,204.564 C67,206.046 72.23,207.636 73.122,208.096 C74.014,208.557 77.839,209.641 81.622,210.507 C85.405,211.372 90.3,212.493 92.5,212.997 C94.7,213.501 99.875,214.644 104,215.536 C108.125,216.428 114.65,218.024 118.5,219.083 C122.35,220.141 129.325,221.494 134,222.088 C138.675,222.682 144.975,223.797 148,224.565 C153.83,226.045 181.06,229.721 207.291,232.569 C217.433,233.67 226.846,234.091 233.606,233.746 C243.485,233.242 244.292,233.347 246.747,235.459 C249.196,237.566 249.279,237.912 248.044,240.894 C246.423,244.808 243.316,247.113 240.566,246.442 C238.591,245.96 223.906,244.511 211.797,243.604 C208.661,243.369 205.69,242.926 205.196,242.621 C204.701,242.315 199.167,241.609 192.898,241.052 C173.885,239.361 161.633,237.858 159,236.893 C157.625,236.389 151.325,235.118 145,234.069 C138.675,233.019 132.233,231.674 130.685,231.08 C129.137,230.486 126.391,230 124.584,230 C122.777,230 119.994,229.562 118.399,229.028 C116.805,228.493 111.714,227.596 107.086,227.035 C102.458,226.474 97.733,225.402 96.586,224.654 C95.439,223.905 93.15,223.029 91.5,222.708 C84.089,221.263 80.351,220.27 78.423,219.232 C77.281,218.618 73.906,217.808 70.923,217.433 C67.94,217.058 64.097,215.907 62.382,214.876 C60.667,213.844 58.131,213 56.746,213 C55.362,213 52.94,212.328 51.364,211.506 C49.789,210.685 47.15,210.005 45.5,209.995 C43.85,209.986 40.281,209.305 37.568,208.482 C30.328,206.286 13.874,205.395 10.021,206.991 C7.207,208.157 6.695,208.062 4.461,205.963 C-0.735,201.082 2.729,195.007 10.715,194.994 C16.495,194.984 22.073,191.535 32.123,181.753 C36.688,177.31 38.186,173.851 36.102,172.563 C35.608,172.258 34.888,168.865 34.502,165.024 C33.964,159.66 34.202,156.765 35.531,152.542 C37.684,145.695 36.647,142.451 30.326,136.267 C25.667,131.708 24.694,127.86 27.75,126.08 Z M145,153.467 C152.571,151.3 156.015,151.848 158.483,155.615 C159.824,157.66 159.906,159.247 159.033,166.207 C158.469,170.709 157.555,174.845 157.003,175.397 C156.452,175.948 155.998,177.323 155.996,178.45 C155.994,179.578 155.084,181.99 153.974,183.81 C152.864,185.631 152.218,187.543 152.537,188.06 C152.857,188.577 156.496,189 160.625,189 C164.753,189 169.002,189.466 170.066,190.035 C172.242,191.2 172.656,195.246 170.75,196.725 C170.063,197.259 163.386,198.219 155.912,198.858 C145.879,199.717 140.663,200.672 135.973,202.511 C128.309,205.514 126.626,205.582 123.048,203.034 C120.776,201.416 120.186,200.089 119.716,195.541 C119.386,192.339 118.274,188.789 117.073,187.102 C115.933,185.501 115,183.21 115,182.011 C115,179.694 106.782,168.514 104.409,167.604 C103.518,167.261 103,165.574 103,163.01 C103,159.659 103.432,158.76 105.496,157.82 C107.498,156.908 108.339,156.988 109.746,158.223 C110.711,159.07 112.49,160.065 113.7,160.433 C114.911,160.802 116.86,162.655 118.032,164.552 C119.204,166.448 120.689,167.993 121.332,167.983 C121.974,167.974 124.501,165.896 126.946,163.364 C131.419,158.733 136.678,155.85 145,153.467 Z M129.904,31.616 C131.593,29.58 133.927,29.56 136.777,31.557 C139.188,33.245 139.595,36.304 137.978,40.558 C137.416,42.037 137.241,44.766 137.589,46.623 C138.425,51.081 141.651,51.299 143.15,47 C144.369,43.502 147.728,42.937 150.315,45.796 C153.237,49.024 151.47,54.42 145.987,59.011 C140.694,63.442 141.065,61.988 139.094,86 C137.924,100.251 136.53,105.501 132.624,110.37 C130.801,112.641 129.025,115.298 128.677,116.273 C127.757,118.854 125.092,119.521 123.212,117.64 C121.701,116.129 121.79,115.59 124.397,110.442 C129.385,100.591 133.051,71.724 129.487,70.357 C128.655,70.037 127.412,70.243 126.724,70.814 C126.036,71.385 123.327,72.392 120.705,73.053 C116.061,74.222 113,76.932 113,79.873 C113,82.154 107.806,92.137 106.324,92.706 C103.625,93.742 102.157,91.21 103.144,87.22 C106.124,75.178 108.063,50.018 106.192,47.697 C105.661,47.039 104.908,44.572 104.519,42.215 C103.619,36.758 104.995,35 110.168,35 C114.68,35 119.463,38.821 118.64,41.767 C118.373,42.72 117.853,47.888 117.484,53.25 C116.943,61.116 117.075,63 118.168,63 C120.497,63 129.511,56.479 129.292,54.952 C129.178,54.154 128.415,50.546 127.597,46.935 C126.037,40.055 126.732,35.437 129.904,31.616 Z M157.5,105.057 C163.881,101.869 171.591,100.991 173.8,103.2 C175.101,104.501 175.37,107.873 174.379,110.455 C173.448,112.882 168.397,115.138 165.514,114.414 C163.612,113.937 159.355,115.638 147.756,121.51 C139.365,125.758 130.805,129.839 128.734,130.578 C126.663,131.318 123.513,133.012 121.734,134.343 C116.54,138.229 104.512,144.045 100.343,144.687 C98.229,145.012 96.05,145.608 95.5,146.013 C94.95,146.417 92.345,147.06 89.712,147.441 C87.078,147.822 83.32,148.804 81.36,149.623 C75.861,151.921 72.075,151.122 70.489,147.329 C68.361,142.24 69.922,141.21 84.541,138.058 C101.812,134.333 113.234,129.927 125.193,122.378 C127.265,121.07 129.374,120 129.88,120 C130.385,120 133.657,118.197 137.15,115.994 C140.642,113.791 144.175,111.741 145,111.439 C145.825,111.137 147.625,110.252 149,109.472 C150.375,108.692 154.2,106.705 157.5,105.057 Z M142.63,165.482 C136.494,168.744 127.162,175.828 125.905,178.178 C125.356,179.203 125.266,180.595 125.704,181.271 C126.142,181.947 127.223,184.75 128.106,187.5 C130.159,193.894 132.243,194.301 138.096,189.447 C143.306,185.127 146.417,180.391 148.651,173.381 C150.217,168.469 149.942,163 148.13,163 C147.672,163 145.197,164.117 142.63,165.482 Z M39.655,79.829 C42.135,77.088 48.564,77.346 50.185,80.25 C54.385,87.776 55.988,99.178 53.735,105.5 C50.927,113.379 45.149,110.162 46.456,101.448 C47.222,96.336 44.651,90.312 40.558,87.63 C37.618,85.703 37.246,82.491 39.655,79.829 Z"/>
</svg>

