<svg xmlns="http://www.w3.org/2000/svg" width="300" height="300" viewBox="0 0 300 300" version="1.1">
  <defs/>
  <path d="M25.38,120.62 C26.003,118.141 26.045,118.133 35.253,118.662 C46.726,119.321 49.132,120.718 50.374,127.44 C50.656,128.965 50.869,129.998 50.844,131.025 C50.784,133.48 49.362,135.902 44.25,144.938 C41.913,149.071 40,152.925 40,153.503 C40,154.081 41.81,156.342 44.022,158.527 C46.235,160.712 49.194,164.399 50.6,166.72 C53.014,170.707 53.09,171.248 51.988,176.556 C51.347,179.645 49.726,183.788 48.386,185.762 C47.047,187.737 46.099,189.797 46.281,190.342 C46.784,191.852 56.282,194.71 68.5,197.027 C74.55,198.174 81.3,199.612 83.5,200.221 C85.7,200.831 89.525,201.678 92,202.103 C98.533,203.225 118.832,207.013 123.5,207.982 C125.7,208.438 131.55,209.54 136.5,210.432 C141.45,211.323 147.525,212.491 150,213.027 C152.475,213.564 158.775,214.688 164,215.525 C169.225,216.362 176.425,217.734 180,218.572 C183.575,219.41 190.55,220.746 195.5,221.54 C200.45,222.334 206.75,223.41 209.5,223.932 C219.647,225.858 253.732,224.361 256.45,221.871 C257.766,220.665 265.715,220.777 268.066,222.035 C270.879,223.541 270.485,227.669 267.217,230.937 C264.934,233.22 263.18,233.858 257.467,234.482 C250.242,235.272 213.334,235.324 212.075,234.546 C211.682,234.304 206.482,233.609 200.521,233.002 C194.559,232.396 188.865,231.463 187.867,230.929 C185.877,229.864 176.671,227.796 173.5,227.701 C172.4,227.669 161.15,225.459 148.5,222.791 C135.85,220.123 123.25,217.504 120.5,216.97 C117.75,216.437 113.475,215.592 111,215.093 C108.525,214.593 104.025,213.699 101,213.104 C97.975,212.509 92.575,211.31 89,210.44 C85.425,209.569 80.475,208.482 78,208.023 C67.454,206.071 65.924,205.687 65.417,204.865 C65.123,204.389 62.771,203.989 60.191,203.976 C57.611,203.962 53.475,203.455 51,202.849 C44.952,201.367 28.352,201.463 26.512,202.99 C24.223,204.89 10.449,203.223 4.75,200.356 C0.052,197.992 0,197.913 0,193.051 C0,190.734 -0.005,189.411 0.629,188.568 C1.48,187.437 3.482,187.171 8.192,186.532 C11.081,186.139 15.87,186.512 20.66,187.501 C24.936,188.385 29.453,188.852 30.696,188.54 C33.273,187.893 40.533,178.762 41.473,174.985 C41.962,173.018 41.433,171.831 39.05,169.547 C37.372,167.941 36,166.179 36,165.634 C36,165.088 34.425,163.199 32.5,161.436 C29.573,158.755 29,157.548 29,154.065 C29,149.273 30.491,145.995 35.276,140.268 C39.324,135.423 41.465,130.654 40.602,128.404 C40.085,127.058 39.054,126.888 34.704,127.431 C29.939,128.027 29.209,127.851 27.094,125.6 C25.39,123.786 24.925,122.435 25.38,120.62 Z M162.035,39.934 C163.207,37.745 166.284,37.373 167.696,39.25 C169.448,41.578 170.899,48.182 170.028,49.86 C169.56,50.762 168.606,54.2 167.908,57.5 C167.21,60.8 165.821,65.068 164.82,66.985 C163.819,68.902 163,70.959 163,71.557 C163,72.155 161.663,74.411 160.028,76.572 C155.388,82.704 156.734,85.357 162.273,81 C165.62,78.367 166.834,78.512 170.954,82.033 C174.253,84.854 174.353,85.134 173.204,88.314 C172.542,90.144 172,92.363 172,93.244 C172,94.126 170.425,96.91 168.5,99.432 C164.522,104.644 164.191,106 166.901,106 C167.98,106 171.049,103.406 174,100 C178.595,94.696 179.625,94 182.876,94 C186.683,94 191,96.26 191,98.253 C191,99.378 195.835,107.004 197.197,108.028 C198.714,109.168 201.956,117.664 201.956,120.5 C201.956,122.15 201.103,124.609 200.062,125.964 C198.33,128.218 197.952,128.313 195.632,127.071 C194.073,126.236 192.862,124.516 192.49,122.607 C191.191,115.949 185.621,108.993 181.602,109.008 C179.398,109.017 168,118.787 168,120.667 C168,121.266 168.675,122.315 169.5,123 C170.325,123.685 171,125.471 171,126.969 C171,128.467 171.625,130.999 172.388,132.596 C173.89,135.737 175.494,148.739 175.277,156 C174.69,175.571 173.782,187.239 172.502,191.64 C171.676,194.482 171,197.945 171,199.336 C171,201.761 166.651,206 164.163,206 C162.589,206 156.595,198.069 154.185,192.799 C153.003,190.213 151.275,185.263 150.345,181.799 C148.75,175.859 146.623,172 144.944,172 C143.915,172 140.765,177.674 139.114,182.5 C136.918,188.92 134.762,190.4 131.035,188.043 C129.342,186.972 129.282,179.318 130.953,177.647 C131.529,177.071 132,175.58 132,174.334 C132,173.088 132.737,170.365 133.639,168.284 C134.54,166.203 135.717,163.375 136.254,162 C138.1,157.278 138.709,156.499 140.794,156.188 C143.096,155.845 145.238,159.08 146.456,164.739 C146.84,166.52 147.541,168.216 148.014,168.508 C148.486,168.801 149.513,170.268 150.294,171.77 C155.668,182.094 161.359,191.047 162.34,190.722 C163.877,190.213 164.928,179.78 165.232,162 C165.421,150.941 165.052,145.601 163.679,139.5 C162.688,135.1 161.671,130.487 161.42,129.25 C160.867,126.534 157.966,126.279 155.717,128.75 C154.84,129.713 152.082,131.609 149.588,132.965 L145.052,135.43 L142.276,133.365 C138.379,130.468 137.925,124.763 141.303,121.125 C142.644,119.681 144.581,117.15 145.607,115.5 C146.634,113.85 149.842,109.681 152.737,106.237 C160.558,96.929 159.705,94.11 151,100.5 C145.936,104.218 143.538,104.725 140.816,102.656 C137.346,100.018 137.534,94.801 141.243,90.801 C145.596,86.108 153.249,72.979 155.503,66.338 C158.12,58.63 161,47.164 161,44.453 C161,43.031 161.466,40.998 162.035,39.934 Z M89.518,52.815 C90.692,51.641 100.697,53.408 103.319,55.252 C108.351,58.791 109.505,66.646 106.111,74.261 C102.353,82.692 101,87.112 101,90.961 C101,93.118 100.55,95.16 100,95.5 C99.45,95.84 99,99.225 99,103.022 C99,109.662 99.162,110.123 103.25,115.116 C109.47,122.713 110.548,123.151 113.807,119.404 C115.288,117.701 118.158,114.399 120.184,112.067 C126.723,104.542 130.917,108.735 124.582,116.465 C122.612,118.869 121,121.908 121,123.218 C121,124.528 120.474,126.126 119.832,126.768 C117.869,128.731 116.369,134.358 117.105,137 C118.191,140.9 118.105,149.093 116.912,155.583 C115.618,162.617 115.475,162.999 109.871,174.365 C105.211,183.817 102.815,186.405 97.32,187.922 C92.636,189.215 86.159,186.381 80.104,180.39 C77.572,177.884 74.713,175.117 73.75,174.242 C70.981,171.723 71.682,168.964 76.037,165.236 C78.258,163.335 81.807,159.242 83.925,156.14 C86.043,153.038 90.914,146.886 94.751,142.469 C98.587,138.051 102.029,133.483 102.4,132.317 C103.122,130.041 101.346,126.92 94.752,118.873 C91.521,114.929 90.964,113.459 90.399,107.379 C89.643,99.245 91.359,87.328 94.117,81.562 C95.152,79.396 96,76.38 96,74.859 C96,73.338 96.536,70.917 97.191,69.479 C98.308,67.028 98.089,66.613 93.691,62.854 C90.208,59.877 89,58.135 89,56.089 C89,54.573 89.233,53.1 89.518,52.815 Z M181.641,162.22 C185.939,158.954 213.611,162.703 217.58,167.089 C219.148,168.821 219.148,169.169 217.581,172.47 C215.615,176.614 213.833,176.878 206.5,174.115 C203.75,173.079 199.475,171.902 197,171.499 C194.525,171.097 191.6,170.282 190.5,169.689 C189.4,169.095 186.706,168.36 184.513,168.055 C179.945,167.419 178.544,164.573 181.641,162.22 Z M150.972,16.533 C153.511,13.474 157.55,14.988 159.537,19.743 C160.448,21.923 160.915,22.949 160.839,23.933 C160.762,24.937 160.118,25.898 158.803,28 C157.598,29.925 155.762,33.959 154.722,36.964 C153.682,39.969 151.976,43.63 150.93,45.099 C149.883,46.568 148.123,49.88 147.017,52.459 C145.558,55.865 144.528,57.055 143.254,56.807 C141.786,56.522 141.558,55.586 141.854,51.074 C142.048,48.108 143.099,43.616 144.188,41.091 C147.401,33.646 148.77,28.828 149.249,23.283 C149.497,20.414 150.273,17.376 150.972,16.533 Z M36,82.714 C36.825,82.408 38.099,82.348 38.832,82.579 C39.564,82.811 40.587,83 41.104,83 C42.807,83 51,91.219 51,92.927 C51,93.847 51.476,95.076 52.057,95.657 C52.639,96.239 52.976,99.141 52.807,102.107 C52.525,107.059 52.302,107.5 50.083,107.5 C48.205,107.5 46.855,106.173 44.033,101.554 C42.035,98.283 39.113,94.894 37.54,94.022 C34.175,92.157 31.407,85.706 33.324,84.196 C33.971,83.686 35.175,83.019 36,82.714 Z M104.878,145.75 C97.876,154.305 88.562,172.045 89.508,175.025 C90.52,178.215 94.328,177.425 98.459,173.169 C102.383,169.126 107.237,156.82 108.288,148.25 C108.857,143.61 107.464,142.589 104.878,145.75 Z"/>
</svg>

