<svg xmlns="http://www.w3.org/2000/svg" width="300" height="300" viewBox="0 0 300 300" version="1.1">
  <defs/>
  <path d="M55.238,142.25 C56.609,140.548 65.271,140.669 69.532,142.449 L73,143.898 L73,150.835 C73,155.043 72.412,158.898 71.506,160.636 C69.477,164.527 69.564,173.405 71.663,176.609 C72.578,178.005 75.756,180.702 78.726,182.601 C85.327,186.824 87.553,191.082 85.816,196.165 C84.638,199.61 78.147,209.908 74.829,213.595 C71.952,216.791 73.455,218.644 80.322,220.365 C93.14,223.576 108.843,226.925 118.5,228.507 C124,229.408 130.075,230.548 132,231.041 C133.925,231.535 143.825,232.86 154,233.986 C164.175,235.113 174.975,236.463 178,236.987 C181.025,237.511 187.325,238.412 192,238.99 C202.9,240.338 217.943,242.474 230,244.388 C244.551,246.697 264.89,248.287 270.879,247.584 C273.888,247.231 277.582,246.01 279.261,244.814 C285.42,240.429 288.679,248.061 282.978,253.519 L279.864,256.5 L262.182,256.49 C248.847,256.482 242.296,256.022 235.534,254.618 C227.615,252.973 213.34,250.702 194.5,248.087 C191.2,247.629 182.537,246.67 175.25,245.955 C165.235,244.973 162,244.317 162,243.267 C162,242.152 163.425,242.004 169.25,242.516 C173.238,242.867 177.175,243.375 178,243.646 C178.825,243.917 186.925,244.981 196,246.011 C205.075,247.041 220.063,249.034 229.306,250.441 C247.797,253.256 251,253.487 251,252 C251,251.45 249.537,250.995 247.75,250.988 C245.963,250.982 242.025,250.295 239,249.463 C230.532,247.133 177.174,239.661 152.25,237.315 C146.978,236.818 146,236.973 146,238.303 C146,239.522 147.588,240.035 153.022,240.571 C156.884,240.951 160.256,241.606 160.515,242.025 C161.09,242.954 156.256,244.276 155.037,243.523 C154.558,243.227 146.591,241.837 137.333,240.435 C128.075,239.032 118.25,237.469 115.5,236.961 C112.75,236.453 104.425,234.908 97,233.528 C89.575,232.147 78.59,230.256 72.59,229.325 C61.77,227.647 61.629,227.651 55.59,229.817 C52.24,231.018 47.542,232 45.15,232 C41.536,232 40.224,231.424 37.4,228.6 C33.609,224.809 33.218,222.568 35.772,219.267 C38.042,216.334 46.476,214.706 55.102,215.537 L61.705,216.173 L67.233,209.513 C70.274,205.85 73.781,200.871 75.026,198.449 L77.292,194.045 L70.297,187.569 C64.467,182.171 63.01,180.16 61.539,175.485 C59.899,170.271 59.888,169.581 61.388,165.655 C62.274,163.333 63,160.526 63,159.417 C63,158.307 63.488,156.912 64.085,156.315 C65.807,154.593 64.761,150.561 62.5,150.209 C57.029,149.356 53.037,144.981 55.238,142.25 Z M194.379,108.327 C196.645,107.682 201.177,107.232 204.449,107.327 C210.051,107.49 210.509,107.692 212.323,110.806 C214.088,113.836 214.141,114.63 212.957,120.306 C212.246,123.713 210.803,128.525 209.751,131 C203.403,145.926 203.462,147.585 210.589,154.544 C213.663,157.545 216.7,160 217.339,159.999 C217.977,159.998 222.1,156.639 226.5,152.533 C230.9,148.427 235.063,145.052 235.75,145.034 C237.359,144.99 241,148.618 241,150.265 C241,152.289 233.883,161.263 229.285,165.036 C226.964,166.941 223.7,170.644 222.032,173.265 C219.334,177.505 219,178.875 219,185.694 C219,193.113 218.415,196.036 215.235,204.5 C208.623,222.097 204.717,225.382 195.5,221.096 C191.499,219.236 189.514,217.41 180.046,206.88 C169.647,195.316 169.469,194.841 173.907,190.589 C176.904,187.718 188.865,180.002 190.32,180.001 C190.771,180 193.021,178.762 195.32,177.25 C197.619,175.738 201.194,173.638 203.265,172.585 C210.702,168.8 210.469,167.527 200.554,157.768 C195.405,152.702 195,151.966 195,147.682 C195,145.01 195.794,141.647 196.883,139.708 C198.887,136.141 204,121.628 204,119.509 C204,116.548 201.3,115.819 196.443,117.468 C192.188,118.913 191.521,118.916 189.372,117.508 C184.734,114.469 186.927,110.448 194.379,108.327 Z M140,110.715 C153.822,103.488 158.5,102.538 158.5,106.962 C158.5,108.928 156.719,110.664 149.659,115.581 C138.758,123.172 136.481,125.358 137.605,127.149 C138.071,127.892 138.464,132.1 138.476,136.5 L138.5,144.5 L141.908,144.225 C149.767,143.59 157.234,148.805 159.568,156.559 C161.186,161.936 161.444,169.297 160.103,171.816 C159.61,172.742 158.651,177.1 157.972,181.5 C157.293,185.9 156.122,190.918 155.369,192.651 C154.616,194.384 154,196.958 154,198.371 C154,199.783 153.1,202.542 152,204.5 C150.9,206.458 150,208.922 150,209.974 C150,212.075 146.48,215 143.952,215 C140.762,215 135,206.422 135,201.672 C135,200.337 135.688,198.674 136.529,197.976 C137.798,196.923 138.479,197.101 140.525,199.024 C141.882,200.298 143.115,201.152 143.266,200.921 C144.251,199.409 146.363,192.789 147.069,189 C148.596,180.81 149.783,175.543 150.898,172.007 C152.878,165.73 152.312,159.221 149.545,156.455 C146.646,153.555 143.745,153.359 139.12,155.752 C135.702,157.52 133.049,162.718 133.015,167.716 C133.002,169.705 131.297,174.452 128.878,179.236 C128.395,180.191 127.993,181.991 127.985,183.236 C127.945,189.537 121.007,202.63 114.129,209.387 C106.38,216.998 102.748,213.619 109.299,204.894 C111.113,202.477 113.864,197.8 115.411,194.5 C116.958,191.2 118.624,187.719 119.112,186.764 C119.601,185.809 120,184.091 120,182.948 C120,181.804 120.529,179.886 121.175,178.684 C122.514,176.195 123.78,170.974 124.979,163 C125.434,159.975 126.289,155.7 126.879,153.5 C127.469,151.3 127.963,146.264 127.976,142.309 C127.989,138.354 128.45,134.84 129,134.5 C130.28,133.709 130.3,130.303 129.029,129.518 C128.496,129.188 126.808,129.552 125.279,130.326 C121.645,132.166 109.694,134.48 107.726,133.725 C105.723,132.957 104.48,127.331 105.928,125.587 C106.535,124.855 108.937,124.037 111.266,123.768 C115.617,123.266 118.519,121.947 140,110.715 Z M178.101,54.075 C180.2,50.622 181.541,50.364 186.532,52.449 L190,53.898 L189.991,60.699 C189.987,64.44 189.532,72.597 188.98,78.827 C188.429,85.057 188.251,90.597 188.585,91.138 C189.146,92.045 194.325,87.72 206.179,76.449 C211.888,71.02 214.115,70.835 216.903,75.56 C218.919,78.977 218.933,79.214 217.252,81.491 C216.288,82.796 214.51,84.324 213.3,84.887 C212.09,85.451 209.39,88.133 207.3,90.849 C204.744,94.17 201.044,97.192 196,100.08 C191.875,102.441 186.856,106.154 184.846,108.331 C182.28,111.111 180.685,112.093 179.485,111.632 C179.064,111.471 178.741,111.361 178.523,111.145 C177.808,110.437 178.226,108.585 180.045,100 C181.416,93.537 180.884,68.507 179.313,65.5 C176.49,60.096 176.185,57.225 178.101,54.075 Z M206.821,183.322 C206.093,184.049 203.249,185.793 200.499,187.198 C187.766,193.701 183.674,195.722 183.59,197.899 C183.548,198.982 184.498,200.103 185.869,201.834 C192.791,210.575 198.464,214.324 201.604,212.235 C205.262,209.801 211,192.98 211,184.69 C211,181.754 209.033,181.11 206.821,183.322 Z M129.213,74.25 C130.86,72.255 131.689,72.714 135.541,77.75 C140.108,83.722 141.848,87.855 142.643,94.619 C143.205,99.404 142.988,100.328 140.542,103.534 C136.359,109.018 134.42,107.935 134.836,100.347 C135.037,96.664 134.739,93.956 134.086,93.553 C133.489,93.184 133,92.156 133,91.27 C133,90.383 132.389,88.947 131.642,88.079 C129.672,85.789 127.92,75.817 129.213,74.25 Z M65.003,95.497 C65.812,94.522 67.125,94.233 68.864,94.648 C72.571,95.532 72.793,95.712 75.541,100.064 C78.427,104.637 78.952,113.36 76.532,116.559 C75.724,117.626 75.049,119.711 75.032,121.191 C74.994,124.423 73.451,125.619 71.456,123.964 C70.437,123.118 70,120.671 70,115.811 C70,110.006 69.603,108.344 67.578,105.683 C64.462,101.588 63.408,97.419 65.003,95.497 Z M0,214.5 C0,213.675 0.675,213 1.5,213 C2.325,213 3,213.675 3,214.5 C3,215.325 2.325,216 1.5,216 C0.675,216 0,215.325 0,214.5 Z"/>
</svg>

