<svg xmlns="http://www.w3.org/2000/svg" width="300" height="300" viewBox="0 0 300 300" version="1.1">
  <defs/>
  <path d="M75.009,29.29 C79.612,26.961 82.295,27.876 83.335,32.13 C84.016,34.916 80.231,43.231 75.282,49.823 L72.788,53.145 L74.951,55.448 C76.141,56.715 77.019,58.82 76.902,60.126 C76.467,64.978 77.042,68.079 78.48,68.631 C80.15,69.272 88.206,65.662 90.042,63.45 C92.853,60.062 99,63.352 99,68.245 C99,70.5 91.036,75.694 85.118,77.298 C79.288,78.878 78.328,81.095 80.07,88.947 C80.925,92.802 81.917,95 82.802,95 C84.882,95 90,91.066 90,89.467 C90,88.699 90.93,87.573 92.067,86.964 C93.687,86.097 94.69,86.222 96.703,87.541 C99.159,89.15 99.246,89.525 98.693,96.121 C98.117,102.998 94.297,112.603 88.305,122.25 C87.023,124.313 86.235,126 86.553,126 C87.654,126 91.512,123.693 94.327,121.351 C99.548,117.008 104.803,119.066 103.512,124.947 C102.827,128.064 98.815,132 96.322,132 C93.955,132 84,139.943 84,141.832 C84,142.804 83.515,144.085 82.921,144.679 C81.33,146.27 80.386,172.502 81.886,173.43 C83.317,174.314 90.895,169.993 95.996,165.385 C101.286,160.605 105,161.26 105,166.972 C105,169.45 99.739,177 98.012,177 C97.03,177 92.706,180.519 89.719,183.75 C88.575,184.988 86.665,186 85.475,186 C84.284,186 82.462,186.937 81.425,188.083 C80.389,189.228 78.096,190.769 76.331,191.506 C74.566,192.244 70.732,194.571 67.811,196.678 C64.89,198.785 60.475,201.595 58,202.923 C55.525,204.25 52.427,206.161 51.115,207.168 C48.143,209.451 46.795,209.467 44.071,207.25 C42.159,205.694 42.047,205.137 43.067,202.225 C44.058,199.394 51.307,193 53.526,193 C53.892,193 55.605,191.987 57.333,190.75 C59.06,189.512 62.24,187.6 64.398,186.5 C71.149,183.06 71.774,181.359 72.393,164.75 C72.811,153.503 72.652,150 71.721,150.002 C71.049,150.003 68.025,151.79 65,153.973 C61.975,156.156 57.609,159.312 55.297,160.987 C49.363,165.285 45.555,165.87 42.457,162.959 C38.163,158.925 39.387,156.881 49.9,150.534 C50.78,150.002 53.753,148.202 56.506,146.534 C59.26,144.865 63.186,142.648 65.232,141.606 C71.12,138.607 71.762,137.339 72.55,127.163 L73.272,117.825 L70.919,118.163 C69.124,118.42 68.355,119.399 67.672,122.3 C66.225,128.449 58.404,131.539 57.041,126.5 C56.743,125.4 55.673,123.281 54.662,121.791 C52.329,118.353 53.18,113.767 56.563,111.55 C59.533,109.605 59.624,107.18 57,100 C55.9,96.991 55,93.509 55,92.264 C55,90.214 54.528,90 50,90 C44.323,90 41,87.636 41,83.598 C41,80.701 44.989,79 51.783,79 C57.974,79 63.926,77.043 65.625,74.449 C67.632,71.387 66.436,60.853 64.108,61.076 C59.235,61.543 59.081,59.122 63.637,53.673 C64.937,52.119 66,50.008 66,48.982 C66,47.957 66.422,46.858 66.937,46.539 C68.641,45.486 71.163,39.569 71.846,35.025 C72.355,31.636 73.122,30.245 75.009,29.29 Z M154.772,46.38 C160.534,42.47 168,43.478 168,48.165 C168,50.822 164.983,59.283 163.396,61.079 C162.628,61.947 162,63.34 162,64.174 C162,65.008 161.042,66.547 159.87,67.595 C157.248,69.94 153.002,76.507 152.994,78.23 C152.99,78.929 152.335,80.751 151.537,82.281 C148.937,87.265 150.143,88 160.92,88 C170.227,88 170.73,88.113 173.161,90.75 C175.175,92.935 175.66,94.425 175.522,98 C175.238,105.285 173.94,108.879 170.621,111.562 C159.107,120.869 156.819,122.555 153.164,124.429 L149.828,126.14 L150.369,141.593 C150.667,150.092 151.131,157.403 151.402,157.841 C152.574,159.738 155.098,184.817 155.594,199.5 C155.892,208.3 156.329,218.425 156.566,222 C156.69,223.859 156.786,225.188 156.857,226.519 C157.116,231.337 157.051,236.172 156.791,266.25 L156.5,300 L147.102,300 L147.488,262.75 C147.823,230.345 147.433,215.333 145.559,188.5 C145.053,181.25 142.307,156.814 141.063,148.5 C140.57,145.2 139.678,139.125 139.081,135 C138.483,130.875 137.564,125.025 137.036,122 C134.209,105.773 133.715,103.37 134.693,102.24 C134.925,101.971 135.24,101.775 135.627,101.482 C139.281,98.715 146,100.331 146,103.976 C146,105.024 146.45,106.16 147,106.5 C147.55,106.84 148,108.161 148,109.437 C148,114.457 152.897,114.821 158.5,110.218 C162.087,107.27 163.916,104.288 163.965,101.309 C164.013,98.31 163.005,97.891 155.105,97.626 C147.387,97.367 143.518,95.486 141.881,91.198 C140.427,87.386 141.776,83.355 149.88,67.298 C152.527,62.052 152.535,61 149.928,61 C147.82,61 138.774,65.778 138.167,67.213 C137.983,67.646 137.396,68 136.862,68 C136.327,68 133.987,68.867 131.66,69.927 C124.908,73.003 122.491,73.348 120.644,71.501 C119.74,70.597 119,68.912 119,67.757 C119,65.433 121.663,62 123.467,62 C124.504,62 130.011,59.433 134,57.09 C134.825,56.606 139.047,54.533 143.383,52.485 C147.718,50.436 152.844,47.689 154.772,46.38 Z M64.718,87.415 C63.205,88.563 63.111,89.199 64.093,91.633 C66.114,96.645 66.804,98.455 67.378,100.25 C67.686,101.213 68.904,102 70.085,102 C72.141,102 72.202,101.71 71.518,95.25 C70.566,86.258 68.85,84.281 64.718,87.415 Z M82.638,108.5 C81.868,110.507 82.967,113.176 84.373,112.715 C86.143,112.135 86.413,107 84.673,107 C83.871,107 82.955,107.675 82.638,108.5 Z"/>
</svg>

