<svg xmlns="http://www.w3.org/2000/svg" width="300" height="300" viewBox="0 0 300 300" version="1.1">
  <defs/>
  <path d="M25.667,156.667 C27.69,154.643 32,156.985 32,160.108 C32,161.047 36.052,166.02 41.004,171.158 C45.957,176.296 49.816,181.01 49.581,181.632 C49.346,182.255 49.632,184.653 50.218,186.961 C51.328,191.334 50.48,197.273 47.346,207.076 C46.542,209.593 46.022,214.092 46.192,217.073 L46.5,222.493 L57.5,223.685 C63.55,224.34 78.4,225.806 90.5,226.943 C102.6,228.079 116.775,229.918 122,231.028 C127.225,232.139 134.65,233.489 138.5,234.028 C145.042,234.944 147.908,235.414 162.75,238.003 C171.521,239.533 182.002,240.68 198.5,241.913 C206.75,242.53 219.673,243.538 227.218,244.154 C239.337,245.142 241.22,245.086 243.375,243.674 C246.996,241.301 252.914,241.162 254.559,243.412 C255.938,245.297 255.522,250.64 253.855,252.462 C252.426,254.025 239.04,254.909 231.753,253.922 C225.724,253.105 213.789,252.485 185.5,251.519 C180.55,251.35 174.25,250.704 171.5,250.083 C168.75,249.462 161.325,248.28 155,247.457 C148.675,246.634 140.35,245.306 136.5,244.507 C132.65,243.707 125.225,242.328 120,241.443 C114.775,240.557 108.25,239.448 105.5,238.979 C102.75,238.51 93.75,237.383 85.5,236.475 C65.654,234.289 32.546,235.249 29.55,238.097 C28.194,239.386 9.268,239.243 8.462,237.938 C8.101,237.354 6.724,236.466 5.403,235.963 C1.031,234.301 3.466,227.02 8.405,226.985 C9.557,226.977 12.3,226.321 14.5,225.529 C16.7,224.736 21.567,224.068 25.316,224.044 C35.2,223.98 35.462,223.725 35.777,213.846 C35.924,209.256 36.662,204.15 37.417,202.5 C38.172,200.85 39.308,198.364 39.943,196.976 C40.577,195.588 41.187,191.828 41.298,188.621 L41.5,182.79 L36.098,177.82 C28.796,171.101 25.041,165.372 25.018,160.917 C25.008,158.946 25.3,157.033 25.667,156.667 Z M108.141,135.516 C115.258,131.448 118.75,132.346 121.691,139 C122.299,140.375 123.608,143.3 124.599,145.5 C125.592,147.702 126.474,152.198 126.562,155.5 C126.649,158.8 126.971,162.175 127.276,163 C127.582,163.825 128.142,170.575 128.521,178 C128.9,185.425 129.534,197.8 129.93,205.5 C130.645,219.385 130.631,219.519 128.27,221.75 C125.477,224.389 122.771,224.634 120.929,222.415 C120.205,221.543 117.887,220.138 115.777,219.294 C112.861,218.127 111.467,216.721 109.97,213.434 C107.649,208.34 107.556,207.384 109.313,206.71 C111.03,206.051 115.877,206.992 116.574,208.119 C116.873,208.604 117.766,209 118.559,209 C119.62,209 120,207.693 120,204.049 C120,197.662 118.139,189 116.767,189 C115.293,189 106.303,198.514 104.52,201.962 C103.717,203.514 101.247,206.221 99.03,207.976 C96.814,209.732 95,211.736 95,212.429 C95,213.123 94.137,214.471 93.083,215.425 C91.52,216.839 90.765,216.945 88.992,215.996 C87.038,214.95 86.886,214.31 87.492,209.666 C88.71,200.327 89.136,169.829 88.09,166.828 C87.539,165.248 86.786,159.568 86.417,154.206 C85.83,145.683 85.962,144.276 87.468,143.026 C88.964,141.785 89.541,141.792 91.845,143.082 C93.305,143.899 94.647,145.591 94.827,146.842 C95.271,149.924 98.328,149.257 98.992,145.934 C99.725,142.263 103.14,138.375 108.141,135.516 Z M132.074,11.411 C134.315,8.711 139.556,10.24 141.598,14.19 C143.02,16.939 142.954,17.452 140.558,22.259 C139.151,25.083 138,28.003 138,28.749 C138,29.496 136.875,31.762 135.5,33.785 C134.125,35.809 133,37.834 133,38.287 C133,40.918 126.612,52.29 117.567,65.762 C114.885,69.756 113.022,73.356 113.427,73.762 C113.832,74.168 118.265,74.598 123.279,74.717 C135.161,75 149.033,76.582 156.299,78.483 C159.488,79.317 163.219,80 164.589,80 C165.959,80 168.844,80.9 171,82 C173.156,83.1 175.55,84 176.319,84 C178.573,84 193.293,91.036 195.75,93.287 C199.066,96.326 198.743,100.564 195.05,102.474 C190.792,104.676 189.461,104.411 185.132,100.5 C183.001,98.575 180.637,96.993 179.879,96.985 C178,96.966 170.382,94.306 165.434,91.942 C163.198,90.874 159.973,90 158.267,90 C156.561,90 153.066,89.1 150.5,88 C147.096,86.541 143.612,86 137.617,86 C133.098,86 128.934,85.534 128.364,84.964 C127.74,84.34 123.011,84.042 116.452,84.214 L105.574,84.5 L103.318,88 C102.077,89.925 100.116,92.85 98.962,94.5 C94.294,101.169 89.607,108.851 84.622,118 C83.274,120.475 81.283,123.035 80.198,123.688 C78.385,124.78 72,133.34 72,134.679 C72,135.649 64.786,143.399 62.341,145.055 C61.079,145.91 58.194,149.197 55.929,152.36 C51.185,158.984 48.671,159.515 48.206,153.992 C47.95,150.955 48.892,149.263 55.442,141 C59.584,135.775 65.456,128.35 68.491,124.5 C71.526,120.65 75.47,114.694 77.255,111.264 C79.04,107.834 81.175,104.214 82,103.219 C85.293,99.249 90,92.111 90,91.087 C90,90.489 90.356,90 90.791,90 C91.226,90 92.819,87.637 94.331,84.75 C98,77.744 98.728,76.578 104.162,68.996 C110.01,60.838 124.872,33.036 127.119,26.051 C127.747,24.098 128.59,22.05 128.992,21.5 C129.394,20.95 129.988,18.772 130.313,16.661 C130.638,14.549 131.43,12.187 132.074,11.411 Z M158.507,125.372 C159.538,124.617 160.939,124 161.619,124 C163.577,124 167,129.014 167.001,131.885 C167.002,134.223 168.046,139.891 171.073,154 C172.144,158.992 171.433,210.502 170.267,212.358 C169.873,212.986 169.429,215.263 169.28,217.418 C169.131,219.573 168.332,222.37 167.505,223.633 C166.677,224.896 166,227.001 166,228.31 C166,231.05 162.948,234.239 160.895,233.644 C152.188,231.121 147.353,229.105 144.705,226.895 C141.71,224.395 141.61,224.097 142.934,221.623 C144.626,218.462 146.838,218.298 150.362,221.07 C156.506,225.903 159.232,222.011 161.271,205.5 C163.151,190.27 162.185,146.915 159.913,144.55 C159.411,144.027 159,142.655 159,141.5 C159,140.345 158.576,138.972 158.057,138.45 C157.539,137.928 157.006,135.08 156.873,132.122 C156.68,127.835 157.012,126.465 158.507,125.372 Z M137.345,140.542 C138.139,138.473 141.337,138.587 143.184,140.75 C147.105,145.342 150.019,152.428 150.14,157.663 C150.208,160.623 150.655,163.287 151.132,163.582 C151.609,163.877 152,167.707 152,172.094 C152,180.771 150.316,185 146.86,185 C144.408,185 142.999,181.429 141.926,172.5 C141.464,168.65 140.377,162.35 139.51,158.5 C137.438,149.291 136.614,142.449 137.345,140.542 Z M116.109,103.5 C119.008,101.025 121.87,99 122.468,99 C124.484,99 128,102.1 128,103.878 C128,106.926 124.64,112.56 121,115.613 C114.944,120.693 114.367,121.014 108.559,122.527 C102.051,124.222 99.501,123.449 97.926,119.304 C96.765,116.251 98.99,112.014 101.773,111.978 C102.723,111.966 104.625,111.076 106,110 C107.375,108.924 109.026,108.034 109.668,108.022 C110.311,108.01 113.209,105.975 116.109,103.5 Z M34.951,107.091 C36.398,104.388 40.318,104.378 44.096,107.068 C46.844,109.025 47,109.526 47,116.377 C47,121.195 46.509,124.267 45.532,125.559 C44.724,126.626 44.049,128.319 44.032,129.32 C44.009,130.628 43.368,131.049 41.75,130.82 C39.848,130.549 39.335,129.572 38.436,124.5 C37.851,121.2 37.021,117.6 36.592,116.5 C33.982,109.807 33.863,109.124 34.951,107.091 Z M106.003,151.616 C103.801,153.605 102,155.76 102,156.405 C102,157.05 101.1,159.342 100,161.5 C97.157,167.076 97.366,169 100.813,169 C102.656,169 104.639,167.935 106.563,165.911 C108.178,164.212 110.706,162.192 112.179,161.422 C115.612,159.628 116.375,157.105 115.013,152.049 C113.618,146.867 111.379,146.759 106.003,151.616 Z M108.946,177.453 C106.017,179.954 102.597,182 101.348,182 C99.543,182 98.855,182.825 97.994,186.023 C96.898,190.094 97.267,192 99.152,192 C99.72,192 102.893,189.55 106.201,186.556 C109.614,183.467 113.36,180.98 114.859,180.806 C117.15,180.541 117.5,180.038 117.5,177.014 C117.5,171.984 115.216,172.101 108.946,177.453 Z"/>
</svg>

