<svg xmlns="http://www.w3.org/2000/svg" width="300" height="300" viewBox="0 0 300 300" version="1.1">
  <defs/>
  <path d="M142,127.709 C144.948,126.625 150.15,127.026 153.129,128.567 L156.159,130.134 L155.603,137.317 C154.752,148.317 154.58,149.252 152.727,152.904 C150.691,156.917 150.491,160 152.266,160 C152.963,160 155.993,157.75 159,155 C162.007,152.25 164.75,150 165.096,150 C165.442,150 167.474,148.607 169.612,146.904 C173.201,144.046 173.98,143.838 179.739,144.2 C189.329,144.804 191.327,146.726 196.444,160.261 C198.583,165.918 199,168.704 199,177.334 C199,189.656 196.561,205.223 193.911,209.807 C192.86,211.626 192,213.933 192,214.935 C192,215.936 191.281,217.352 190.401,218.082 C189.522,218.812 186.807,222.467 184.367,226.204 C181.927,229.942 179.496,233 178.965,233 C178.434,233 178,233.45 178,234 C178,234.55 179.497,235 181.326,235 C183.155,235 189.343,235.637 195.076,236.415 C200.809,237.194 213.375,238.351 223,238.988 C232.625,239.625 244.325,240.641 249,241.247 C253.675,241.853 260.723,242.246 264.662,242.122 C270.957,241.922 272.077,242.167 273.912,244.136 C276.903,247.347 276.508,249.531 272.599,251.386 C268.68,253.246 264.449,253.413 257.01,252.002 C252.527,251.152 237.258,249.578 222.5,248.445 C220.3,248.276 215.35,247.666 211.5,247.089 C207.65,246.512 200.9,246.03 196.5,246.017 C192.1,246.005 182.425,245.058 175,243.912 C167.575,242.766 157.45,241.24 152.5,240.519 C147.55,239.799 140.8,238.454 137.5,237.531 C134.2,236.608 128.35,235.253 124.5,234.52 C116.352,232.969 106.196,230.704 100.5,229.168 C98.3,228.574 93.125,227.632 89,227.075 C84.875,226.517 79.7,225.623 77.5,225.088 C75.3,224.552 71.025,223.526 68,222.807 C60.295,220.976 37.944,221.383 33.842,223.429 C32.145,224.275 30.249,224.683 29.629,224.335 C26.338,222.49 24,219.381 24,216.849 C24,212.712 27.631,210.845 37.409,209.954 C43.541,209.395 46.753,208.558 49.615,206.775 C51.752,205.443 54.298,204.059 55.273,203.7 C57.714,202.799 58.631,199.95 56.912,198.605 C51.078,194.039 46.3,181.217 47.406,173.091 C47.736,170.666 49.099,166.37 50.435,163.546 C53.3,157.49 53.05,150.468 49.934,149.479 C47.329,148.652 42,142.275 42,139.984 C42,134.847 51.839,137.303 58.896,144.202 C61.843,147.084 62,147.631 62,155.038 C62,159.723 61.439,163.969 60.596,165.669 C58.959,168.971 57,176.99 57,180.392 C57,181.692 57.675,183.315 58.5,184 C59.325,184.685 60,185.802 60,186.482 C60,187.639 62.871,190.681 69.151,196.179 C73.325,199.834 73.649,203.505 70.108,207.046 C68.483,208.671 66.444,210 65.577,210 C64.71,210 64,210.415 64,210.922 C64,212.304 70.668,214.129 86,216.942 C89.025,217.497 94.65,218.663 98.5,219.532 C102.35,220.401 107.975,221.502 111,221.977 C114.025,222.453 119.425,223.742 123,224.843 C126.575,225.944 132.731,227.329 136.68,227.921 C140.629,228.512 144.904,229.391 146.18,229.874 C147.456,230.357 150.861,231.074 153.746,231.469 C158.104,232.065 159.097,231.911 159.617,230.556 C159.961,229.659 159.625,228.155 158.871,227.213 C152.669,219.466 154.114,209.001 160.551,215.048 C161.898,216.313 163,217.93 163,218.64 C163,220.358 168.884,227 170.407,227 C173.683,227 184.9,210.798 186.985,203.056 C188.588,197.102 189.887,175.773 188.95,170.775 C187.986,165.629 184.46,157.166 182.274,154.75 C181.403,153.787 179.971,153 179.092,153 C176.601,153 162.062,163.904 160.858,166.676 C160.661,167.129 157.9,169.683 154.722,172.351 C148.341,177.709 146.359,177.915 141.807,173.697 C139.379,171.446 139.309,171.07 140.179,164.923 C140.679,161.39 141.488,157.6 141.976,156.5 C142.464,155.4 143.145,152.925 143.488,151 C145.795,138.079 145.225,136.462 139.59,139.945 C134.179,143.288 132,146.628 132,151.576 C132,153.944 131.616,156.12 131.146,156.41 C130.676,156.7 130,159.73 129.643,163.143 C129.282,166.592 128.286,170.132 127.399,171.111 C126.522,172.081 126.12,173.385 126.506,174.01 C126.892,174.634 126.01,177.814 124.547,181.075 C123.083,184.337 122.16,187.449 122.495,187.992 C122.83,188.534 122.439,190.445 121.627,192.239 C120.814,194.033 119.862,196.931 119.51,198.681 C119.159,200.43 118.196,202.423 117.37,203.108 C116.544,203.794 115.211,205.625 114.408,207.177 C113.228,209.46 112.278,210 109.443,210 C107.235,210 105.722,209.44 105.356,208.486 C105.037,207.654 106.335,203.716 108.242,199.736 C110.149,195.756 112.271,190.475 112.958,188 C113.645,185.525 114.821,181.7 115.572,179.5 C117.415,174.098 120.134,158.026 119.404,156.845 C119.082,156.323 117.396,156.032 115.659,156.198 C112.696,156.481 112.485,156.283 112.256,153 C111.916,148.117 116.23,142.193 122.527,138.897 C131.061,134.429 137.44,130.79 139,129.501 C139.825,128.819 141.175,128.013 142,127.709 Z M143.51,49.25 C144.2,47.232 147.757,47.815 149.443,50.223 C150.316,51.468 151,54.509 151,57.141 C151,59.723 151.273,62.548 151.607,63.418 C152.243,65.076 156,65.658 156,64.099 C156,62.923 161.8,59.518 165.3,58.639 C171.695,57.034 174.383,63.041 169.25,67.467 C167.738,68.771 164.789,70.404 162.698,71.096 C160.607,71.788 157.569,73.865 155.948,75.712 C153.159,78.888 153,79.548 153,87.912 C153,93.786 153.42,97.091 154.25,97.755 C155.481,98.74 160.943,99.532 174.267,100.656 C179.935,101.135 181.356,101.637 183.017,103.749 C185.603,107.037 185.519,108.164 182.474,111.024 C179.965,113.381 179.915,113.386 174.724,111.734 C171.851,110.82 167.7,109.813 165.5,109.497 C163.3,109.182 159.804,108.667 157.731,108.355 C152.746,107.603 151,109.171 151,114.4 C151,118.773 149.163,122.307 146.014,123.992 C143.466,125.356 139.631,123.802 134.822,119.458 C132.717,117.556 130.65,116 130.229,116 C129.808,116 127.285,117.8 124.623,120 C121.759,122.367 118.736,124 117.22,124 C114.652,124 111,121.508 111,119.756 C111,119.242 113.061,116.724 115.58,114.161 C118.099,111.597 121.811,107.816 123.83,105.757 C125.848,103.699 128.412,102.011 129.527,102.007 C132.65,101.996 135.772,104.683 136.503,108.012 C137.358,111.906 139.793,114.417 141.411,113.074 C142.865,111.867 143.416,91.217 142.052,89.054 C141.49,88.163 141.532,86.874 142.162,85.697 C143.974,82.312 141.561,81.323 137.26,83.687 C135.192,84.823 131.025,86.507 128,87.43 C124.975,88.352 121.61,89.6 120.523,90.204 C117.87,91.676 109.091,93.973 106.064,93.988 C104.725,93.995 102.587,93.022 101.314,91.826 C96.986,87.759 98.757,85.53 107.613,83.898 C113.597,82.796 120.004,80.248 130.127,74.947 C133.222,73.326 136.414,72 137.222,72 C139.841,72 142.299,68.328 141.585,65.483 C141.021,63.237 142.238,52.975 143.51,49.25 Z M150.223,17.557 C151.475,16.679 152.048,16.211 152.663,16.147 C153.37,16.073 154.133,16.535 156.05,17.526 C158.27,18.674 159,19.757 159,21.903 C159,23.472 158.325,25.315 157.5,26 C156.675,26.685 156,28.215 156,29.4 C156,32.067 145.181,45.825 141.615,47.694 C140.177,48.447 139,49.481 139,49.992 C139,50.96 132.549,57.227 128.975,59.73 C127.838,60.527 126.186,60.902 125.304,60.563 C123.898,60.024 123.957,59.674 125.784,57.724 C126.929,56.501 128.339,54.375 128.916,53 C129.493,51.625 131.101,48.7 132.489,46.5 C133.877,44.3 135.705,41.003 136.552,39.173 C137.398,37.344 139.439,34.366 141.086,32.556 C144.229,29.101 148,22.442 148,20.345 C148,19.668 149,18.413 150.223,17.557 Z M54.189,97.054 C60.237,94.628 64.284,96.798 67.279,104.073 C69.169,108.663 69.22,112.702 67.439,116.631 C64.901,122.228 59.23,121.782 60.481,116.084 C61.318,112.276 59.334,108.746 55.269,106.806 C53.085,105.765 52.434,104.693 52.189,101.733 C51.929,98.595 52.256,97.829 54.189,97.054 Z"/>
</svg>

