<svg xmlns="http://www.w3.org/2000/svg" width="300" height="300" viewBox="0 0 300 300" version="1.1">
  <defs/>
  <path d="M139.308,46 C146.564,38.123 151,39.48 151,49.576 C151,54.277 149.896,56.073 140.511,66.638 C137.084,70.497 135.931,72.264 136.483,72.816 C136.827,73.16 137.422,72.953 137.804,72.356 C138.187,71.758 139.501,70.957 140.724,70.576 C141.947,70.194 143.89,68.558 145.042,66.941 C147.184,63.933 152.148,62.812 153.516,65.026 C154.608,66.793 150.66,80.112 148.739,81.14 C147.214,81.956 145.413,84.361 140.52,92.118 C138.934,94.632 135.899,99.228 133.857,102.21 C132.835,103.7 132,105.706 132,106.667 C132,107.629 130.365,110.09 128.366,112.137 C123.699,116.917 124.339,118.547 131.161,119.26 C134.358,119.594 139.087,121.159 142.948,123.159 C149.222,126.41 150.89,128.263 155.183,136.75 C155.809,137.988 156.886,139 157.576,139 C159.273,139 164.113,132.717 167.59,126 C169.156,122.975 170.812,120.05 171.27,119.5 C171.728,118.95 173.546,116.25 175.311,113.5 C178.647,108.301 181.817,106.773 184.555,109.046 C185.35,109.705 186,111.115 186,112.178 C186,114.36 180.011,126 178.888,126 C178.487,126 177.867,127.327 177.511,128.949 C176.755,132.394 166.923,147.432 163.745,150.006 C161.82,151.564 161.732,151.972 162.993,153.492 C164.312,155.081 182.89,167.709 191,172.529 C196.806,175.98 209,186.164 209,187.562 C209,188.281 208.561,190.024 208.025,191.435 C207.287,193.375 206.343,194 204.147,194 C199.382,194 194.31,191.373 193.598,188.536 C193.248,187.141 192.375,186 191.658,186 C190.941,186 187.945,183.75 185,181 C182.055,178.25 179.066,176 178.358,176 C177.649,176 175.591,174.751 173.785,173.224 C171.978,171.697 169.15,169.804 167.5,169.017 C165.85,168.23 163.721,166.942 162.769,166.155 C159.745,163.655 158.337,166.192 157.719,175.256 C156.574,192.049 149.836,210.789 141.716,219.761 C137.738,224.157 139.171,224.907 153.764,226.07 C201.479,229.871 210.384,230.413 240.847,231.369 C249.014,231.625 250.338,231.431 251.338,229.831 C253.233,226.796 258.108,227.485 261.817,231.311 C264.536,234.116 264.927,235.114 264.381,237.846 C264.026,239.62 262.99,241.47 262.078,241.958 C260.476,242.816 252.29,242.639 243,241.546 C240.525,241.255 229.299,240.76 218.053,240.446 C206.808,240.132 197.237,239.646 196.784,239.367 C196.331,239.087 192.257,238.683 187.731,238.468 C183.204,238.254 175.675,237.637 171,237.098 C166.325,236.559 154.85,235.639 145.5,235.054 C136.15,234.469 121.3,233.238 112.5,232.318 C90.812,230.049 89.047,230.089 87.092,232.891 C86.217,234.147 84.15,236.823 82.5,238.837 C80.85,240.852 79.005,243.4 78.399,244.5 C76.892,247.238 72.432,247.676 71.115,245.215 C70.296,243.684 70.866,242.153 74.02,237.405 C76.761,233.28 78.296,231.029 77.714,229.723 C76.997,228.117 73.075,227.941 64.25,227.468 C55.395,226.993 46.406,227.154 39,227.922 C32.675,228.577 24.125,229.452 20,229.867 C10.019,230.87 4,228.426 4,223.371 C4,219.116 10.722,216.942 25.108,216.545 C32.037,216.354 35.532,215.799 37.64,214.554 C40.511,212.858 44.007,207.969 43.993,205.669 C43.989,205.026 40.839,201.404 36.993,197.621 C29.656,190.403 29.527,190.093 29.966,180.712 C30.138,177.017 31.24,174.203 34.794,168.389 C40.419,159.183 40.011,157.5 32.154,157.5 C27.76,157.5 26.6,157.06 23.913,154.374 C21.535,151.997 20.953,150.724 21.481,149.059 C22.472,145.938 24.681,145.435 34.901,146 C43.751,146.489 44.005,146.574 46.93,150 C49.174,152.627 49.929,154.529 49.959,157.628 C50.002,161.951 47.817,168.355 45.353,171.131 C42.793,174.016 40,180.341 40,183.257 C40,185.072 40.989,186.995 42.75,188.606 C50.414,195.617 52.002,197.475 53.054,200.665 C54.141,203.956 53.957,208.423 52.504,214.041 L51.847,216.581 L64.173,217.904 C82.235,219.843 86.128,220.481 88.383,218.852 C89.266,218.214 89.899,217.228 91.033,215.836 C94.358,211.756 100.274,203.512 102.5,199.858 C103.05,198.955 105.571,195.13 108.102,191.358 C112.563,184.711 116.364,178.741 120.5,171.883 C121.6,170.059 123.343,167.202 124.374,165.533 C131.588,153.853 135.368,142.382 132.354,141.31 C131.033,140.841 126.508,147.226 123.006,154.5 C121.683,157.25 118.327,162.255 115.55,165.622 C110.695,171.509 104.712,180.317 100.5,187.781 C96.923,194.119 93.132,194.685 91.208,189.168 C90.386,186.808 90.517,185.533 91.833,183.123 C93.444,180.171 103.693,166.487 106.296,163.812 C108.275,161.778 113.322,153.883 115.126,150 C116.02,148.075 118.607,142.808 120.876,138.296 C123.144,133.784 125,129.451 125,128.667 C125,127.884 123.639,126.679 121.974,125.989 C118.27,124.455 116.46,125.772 112.983,132.533 C111.714,135 109.174,138.773 107.338,140.918 C105.502,143.063 104,145.111 104,145.469 C104,146.732 97.448,154.632 93.321,158.345 C88.477,162.702 83.678,163.721 83.213,160.49 C83.027,159.195 84.921,156.284 88.54,152.305 C91.629,148.91 97.239,141.264 101.007,135.315 C107.576,124.944 113.196,116.954 115.658,114.487 C120.247,109.89 128.347,93.014 126.737,91.404 C126.354,91.021 124.241,91.898 122.042,93.354 C119.842,94.809 117.549,96 116.945,96 C115.384,96 110,90.42 110,88.802 C110,88.058 113.398,84.086 117.551,79.975 C124.922,72.677 131.651,63.484 130.217,62.67 C129.823,62.446 127.7,61.698 125.5,61.008 C117.836,58.605 114.561,52.581 118.679,48.464 C120.712,46.43 127.217,46.982 129.906,49.415 C132.7,51.943 134.404,51.324 139.308,46 Z M134.63,135.25 C133.664,138.857 133.865,139.251 136.36,138.625 C139.383,137.866 142.318,140.937 142.2,144.737 C141.976,151.912 140.41,156.001 134.375,165.171 C130.875,170.49 127.581,175.89 127.057,177.171 C126.532,178.452 124.505,181.295 122.552,183.489 C120.598,185.683 119,188.017 119,188.676 C119,189.335 116.975,192.831 114.5,196.447 C112.025,200.062 110,203.379 110,203.819 C110,204.26 107.916,207.061 105.369,210.045 C99.112,217.375 97.521,219.935 98.601,220.936 C99.096,221.394 105.688,222.082 113.25,222.465 C127.714,223.197 128.969,222.833 125.439,218.932 C123.825,217.149 122.044,207.508 122.035,200.5 C122.028,195.441 123.986,191.5 126.506,191.5 C128.074,191.5 128.604,192.476 129.225,196.5 C131.246,209.593 132.351,213.095 134.367,212.791 C136.386,212.488 141.583,203.417 143.072,197.598 C143.508,195.894 144.883,190.675 146.127,186 C148.034,178.834 148.386,174.988 148.369,161.5 C148.347,143.963 148.09,142.934 142.179,136.75 C138.104,132.487 135.509,131.971 134.63,135.25 Z M46.2,100.2 C50.284,96.116 59.513,103.915 61.254,112.921 C62.56,119.681 62.317,122.459 60.024,126.954 C57.719,131.471 56.173,131.953 53.49,128.989 C51.938,127.274 51.833,126.45 52.779,123.368 C53.945,119.57 52.983,117.039 48.75,112.767 C47.788,111.795 47,110.127 47,109.059 C47,107.991 46.55,106.84 46,106.5 C44.618,105.646 44.744,101.656 46.2,100.2 Z"/>
</svg>

