<svg xmlns="http://www.w3.org/2000/svg" width="300" height="300" viewBox="0 0 300 300" version="1.1">
  <defs/>
  <path d="M153,135.677 C158.62,134.768 161.664,135.107 164.75,136.989 C166.537,138.079 168,139.504 168,140.157 C168,140.809 168.749,142.17 169.665,143.182 C171.039,144.701 171.336,147.359 171.366,158.416 C171.392,167.629 171.017,172.274 170.167,173.299 C169.487,174.118 168.667,177.198 168.344,180.144 C167.965,183.593 166.687,187.203 164.753,190.283 C162.327,194.146 161.863,195.765 162.339,198.699 C162.861,201.92 162.529,202.708 159.404,205.655 C155.464,209.371 146.618,212.444 142.695,211.46 C140.745,210.97 138.818,211.837 133.899,215.416 C130.434,217.937 127.04,220 126.356,220 C125.671,220 123.893,218.952 122.404,217.671 C120.168,215.748 119.822,214.844 120.417,212.475 C120.813,210.898 122.763,208.074 124.75,206.199 C128.826,202.356 131.702,197.502 133.608,191.25 C135.075,186.441 134.241,185.878 130.273,189 C125.984,192.374 122.996,191.38 121.713,186.154 C120.89,182.801 121.774,181.201 125.398,179.482 C127.147,178.652 130.267,176.58 132.332,174.878 C136.06,171.805 136.084,171.736 135.793,165.142 C135.421,156.704 134.351,156.596 125.854,164.142 C122.359,167.246 118.515,170.621 117.31,171.642 C113.903,174.533 114.093,178.245 118.224,189.5 C118.83,191.15 119.519,195.119 119.755,198.319 C120.254,205.073 118.343,208.306 114.153,207.797 C110.917,207.405 110.362,206.068 109.25,196 C108.144,185.987 105.328,178.951 99.34,171.239 C96.953,168.165 95,165.223 95,164.701 C95,164.179 92.975,161.97 90.5,159.791 C86.836,156.566 86,155.202 86,152.45 C86,146.727 93.347,144.759 96.703,149.583 C97.691,151.003 99.739,153.652 101.253,155.468 C102.768,157.285 104.673,160.367 105.488,162.317 C106.303,164.268 107.386,166.12 107.895,166.435 C109.275,167.288 112,165.978 112,164.461 C112,162.78 128.926,147.083 133.253,144.75 C135.039,143.787 136.95,142.414 137.5,141.697 C138.554,140.324 148.748,136.365 153,135.677 Z M33.667,138.667 C35.297,137.037 39.047,138.147 40.704,140.75 C41.666,142.262 42.831,143.77 43.293,144.1 C47.521,147.122 48.492,158.573 45.041,164.714 C43.05,168.255 42.892,169.25 43.869,172.054 C44.491,173.839 45,176.381 45,177.704 C45,181.145 48.499,188.281 50.902,189.741 C53.409,191.265 57.002,198.458 56.994,201.938 C56.99,203.347 56.307,205.804 55.476,207.399 C54.645,208.993 54.085,210.408 54.232,210.542 C54.379,210.677 59.225,211.778 65,212.99 C96.262,219.548 124.626,224.162 134,224.213 C135.375,224.221 138.533,224.599 141.017,225.053 C148.624,226.444 183.019,229.931 191.5,230.171 C204.71,230.544 226.238,228.858 228.709,227.256 C231.56,225.407 236.493,226.438 238.499,229.302 C240.578,232.27 240.519,232.421 235.857,236.113 C231.972,239.19 231.178,239.408 223.107,239.605 C203.938,240.074 182.823,240.008 181.963,239.477 C181.461,239.167 177.357,238.904 172.844,238.895 C168.33,238.885 163.766,238.41 162.701,237.84 C161.636,237.27 157.78,236.672 154.132,236.511 C150.485,236.349 145.025,235.715 142,235.1 C138.975,234.485 130.03,233.319 122.123,232.508 C114.215,231.697 107.13,230.523 106.378,229.899 C105.626,229.275 104.131,228.994 103.055,229.275 C101.299,229.735 95.378,228.802 82,225.957 C73.19,224.084 54.369,222.016 46.055,222.008 C38.595,222.001 37.311,222.272 35.055,224.336 C30.606,228.403 24.367,230.069 17.354,229.063 C8.024,227.724 2.976,224.563 3.033,220.095 C3.12,213.313 13.463,209 29.643,209 L39.899,209 L42.993,205.75 C46.924,201.621 46.502,198.642 41.073,192.196 C35.062,185.061 33.489,174.887 36.48,162.5 C38.441,154.38 38.379,153.604 35.5,150.182 C33.082,147.308 31.975,140.358 33.667,138.667 Z M134.566,75.416 C137.191,74.087 141.023,73 143.081,73 C151.102,73 154.574,83.052 149.892,92.723 C147.849,96.944 147.816,98.18 149.557,105.257 C150.133,107.594 149.655,108.546 146.423,111.507 C144.325,113.428 141.741,115 140.681,115 C139.62,115 136.97,117.025 134.791,119.5 C129.224,125.825 126.069,125.418 124.52,118.175 C123.429,113.076 120.181,108.316 112.25,100.188 C104.799,92.553 104.014,90.724 105.975,85.565 C107.4,81.818 111.913,82.039 114.842,86 C116.062,87.65 117.685,89 118.45,89 C119.214,89 122.08,86.487 124.817,83.416 C127.554,80.345 131.941,76.745 134.566,75.416 Z M140.5,35.122 C143.25,33.514 146.443,32.154 147.595,32.099 C150.212,31.975 152.583,34.583 153.413,38.5 C153.997,41.253 153.64,41.768 149.085,44.75 C146.354,46.538 143.523,48 142.792,48 C142.062,48 139.809,49.125 137.785,50.5 C135.762,51.875 133.737,53 133.285,53 C132.834,53 130.897,54.058 128.982,55.351 C127.067,56.644 123.732,58.281 121.57,58.988 C117.887,60.193 117.523,60.129 115.77,57.964 C114.551,56.459 114.004,54.444 114.2,52.179 C114.508,48.611 115.093,48.059 120.835,45.926 C122.67,45.244 124.712,44.146 125.373,43.484 C126.035,42.822 128.584,41.328 131.038,40.164 C133.492,38.999 137.75,36.73 140.5,35.122 Z M152.366,172.794 C146.324,178.414 144.034,182.533 143.968,187.899 C143.951,189.33 143.283,191.363 142.485,192.418 C139.252,196.691 146.738,198.12 151.36,194.113 C155.859,190.211 163.024,166.921 159.687,167.044 C159.034,167.067 155.74,169.655 152.366,172.794 Z M49.138,89.073 C52.94,87.55 53.949,87.821 57.023,91.186 C60.388,94.871 61.58,100.571 60.573,108.164 C58.892,120.837 52.043,121.434 51.493,108.956 C51.331,105.282 50.628,102.238 49.702,101.204 C48.864,100.267 47.862,97.367 47.477,94.759 C46.832,90.396 46.964,89.943 49.138,89.073 Z M153.5,145.733 C152.4,146.008 150.262,147.112 148.75,148.185 C146.235,149.969 146,150.688 146,156.599 C146,164.869 147.893,166.1 152.252,160.667 C154.435,157.946 155.951,157 158.128,157 C159.83,157 161.308,156.362 161.645,155.482 C162.313,153.743 160.365,148.508 158.272,146.415 C156.793,144.936 156.724,144.926 153.5,145.733 Z M132.148,90.708 C128.568,93.449 126,96.181 126,97.248 C126,99.97 129.844,107 131.333,107 C134.982,107 141,96.396 141,89.966 C141,84.767 139.77,84.87 132.148,90.708 Z"/>
</svg>

