<svg xmlns="http://www.w3.org/2000/svg" width="300" height="300" viewBox="0 0 300 300" version="1.1">
  <defs/>
  <path d="M158.785,53.5 C163.247,50.468 166.888,50.316 169.811,53.039 C173.109,56.111 172.309,65.487 168.358,70.079 C167.611,70.947 167,72.51 167,73.551 C167,74.593 165.122,77.063 162.827,79.039 C158.114,83.099 158.329,85 163.5,85 C165.36,85 167.124,85.392 167.42,85.871 C167.716,86.35 169.22,86.994 170.761,87.302 C174.421,88.034 177,93.361 177,100.19 C177,106.508 174.065,110.824 167.802,113.719 C161.064,116.833 157.236,117.251 153.823,115.246 C150.957,113.562 150.8,113.57 149.397,115.481 C148.57,116.607 148.173,118.548 148.478,119.981 C149.423,124.43 150.05,156.556 149.863,191 C149.588,241.577 149.878,261.338 151.081,274 C151.681,280.325 152.365,288.762 152.6,292.75 L153.027,300 L143.345,300 L142.131,282.25 C141.042,266.312 140.43,179.758 141.396,178.151 C141.611,177.793 141.389,168.5 140.904,157.5 C139.882,134.341 137.448,112.608 135.25,107 C133.279,101.972 132.281,96.343 133.092,94.827 C135.374,90.563 141.81,92.355 144.698,98.059 C146.591,101.797 154.065,106.946 157.639,106.975 C164.09,107.026 168.334,99.422 164.029,95.527 C162.217,93.886 161.453,93.768 158.902,94.731 C156.734,95.549 155.018,95.566 152.702,94.79 C144.708,92.111 143.978,87.83 150.263,80.483 C153.813,76.332 158,69.289 158,67.466 C158,66.236 153.988,67.221 151.716,69.009 C150.311,70.114 147.663,71.299 145.831,71.643 C143.999,71.987 140.475,73.286 138,74.53 C132.454,77.316 127.144,79 123.902,79 C120.081,79 116.834,76.234 117.193,73.287 C117.464,71.063 118.733,70.323 128,66.988 C146.088,60.478 148.434,59.534 150.973,57.744 C152.332,56.785 153.819,56 154.276,56 C154.732,56 156.762,54.875 158.785,53.5 Z M75.631,44.091 C76.709,43.432 80.403,43.082 84.358,43.263 C90.959,43.566 91.362,43.734 95.108,47.75 C99.38,52.33 99.512,53.125 98.049,65.5 C96.016,82.69 92.074,94.926 86.902,100.098 C84.287,102.713 80.359,102.48 76.818,99.5 C75.184,98.125 73.419,97 72.896,97 C72.373,97 70.118,100.937 67.885,105.75 C58.666,125.614 53.78,134.982 52.916,134.448 C50.633,133.037 53.575,116.965 58.032,106.5 C59.09,104.014 61.016,95.74 61.698,90.744 C61.98,88.678 62.614,86.739 63.106,86.435 C63.598,86.131 64.003,83.771 64.008,81.191 C64.018,74.869 65.863,63.87 67.179,62.284 C68.589,60.586 72.143,60.652 74.559,62.422 C76.295,63.695 76.468,64.898 76.195,73.823 C75.975,81.023 76.308,84.802 77.394,87.4 C80.529,94.904 83.621,90.026 86.878,72.44 C88.762,62.264 88.4,58.46 85.318,56.035 C83.754,54.805 81.982,54.199 81.068,54.582 C80.206,54.943 76.8,55.794 73.5,56.472 C70.2,57.151 65.121,58.672 62.213,59.853 C55.684,62.504 53.367,62.554 52.039,60.072 C50.953,58.044 51.592,55 53.104,55 C53.594,55 55.725,53.436 57.841,51.525 C60.536,49.09 63.494,47.628 67.724,46.641 C71.044,45.867 74.602,44.719 75.631,44.091 Z M78.5,136.953 C85.883,135.112 90.843,136.189 94.228,140.367 C96.363,143.003 96.514,148.329 94.5,150 C93.675,150.685 93,152.513 93,154.063 C93,155.614 92.55,157.16 92,157.5 C91.45,157.84 91,158.814 91,159.665 C91,160.516 89.65,162.917 88,165 C86.35,167.083 85,169.786 85,171.005 C85,172.98 85.367,173.154 88.362,172.592 C92.781,171.763 94.468,173.692 93.559,178.535 C92.799,182.588 91.658,183.235 82,185.086 C77.533,185.942 73.719,187.531 69.805,190.166 C63.335,194.522 59.665,194.973 56.314,191.826 C51.857,187.638 53.341,185.365 64.326,179.549 C68.081,177.561 72.214,174.712 73.512,173.217 C77.181,168.991 82.861,157.722 83.576,153.248 C84.56,147.095 81.874,146.798 72.987,152.077 C64.365,157.199 63.253,158.907 65.482,163.603 C66.382,165.499 66.979,168.727 66.809,170.775 C66.546,173.942 66.112,174.545 63.909,174.801 C61.885,175.036 59.969,173.783 55.16,169.078 C47.56,161.641 43.874,159.614 39.456,160.442 C37.489,160.811 35.883,160.62 35.481,159.969 C35.11,159.368 33.724,158.466 32.403,157.963 C29.164,156.732 29.379,154.7 33.077,151.589 C35.381,149.65 37.274,149 40.617,149 C44.877,149 52.151,151.817 53.491,153.986 C54.858,156.198 58.109,154.982 59.473,151.75 C61.828,146.167 71.399,138.723 78.5,136.953 Z"/>
</svg>

