<svg xmlns="http://www.w3.org/2000/svg" width="300" height="300" viewBox="0 0 300 300" version="1.1">
  <defs/>
  <path d="M112.502,175.575 C116.414,173.536 124.893,173.537 127.806,175.577 C131.529,178.184 132.864,182.717 131.271,187.34 C129.564,192.295 125.338,198.386 120.092,203.453 C117.842,205.627 116,207.808 116,208.299 C116,210.268 111.745,215 109.975,215 C108.935,215 106.829,216.589 105.293,218.532 C103.757,220.474 100.925,223.029 99,224.208 C93.234,227.742 88.658,230 87.264,230 C83.77,230 83.543,241.417 86.947,245.93 C89.126,248.818 102.02,251.835 117,252.963 C127.477,253.751 152.135,253.429 163.5,252.354 C166.8,252.042 171.975,251.608 175,251.389 C184.924,250.673 199.421,247.858 203.64,245.829 C205.917,244.734 208.98,242.587 210.445,241.057 C212.964,238.428 213.138,237.6 213.634,225.888 C214.077,215.446 213.757,211.227 211.602,199.028 C209.19,185.381 209.247,181.798 211.85,183.407 C213.369,184.346 216.132,190.009 217.018,194 C217.445,195.925 218.719,200.976 219.85,205.224 C223.481,218.873 224.447,242.3 221.605,247.796 C220.092,250.723 215.182,254 212.311,254 C211.551,254 209.917,254.664 208.679,255.475 C205.608,257.487 175.04,262.099 162,262.518 C158.975,262.615 150.425,263.035 143,263.452 C128.755,264.251 102.298,262.698 100.56,260.96 C100.032,260.432 97.201,260 94.268,260 C87.819,260 82.602,257.965 78.25,253.753 L75,250.608 L75,233.363 C75,223.288 74.596,215.869 74.029,215.518 C73.495,215.188 72.763,212.694 72.402,209.976 C72.042,207.259 71.129,204.522 70.373,203.895 C69.618,203.268 69,201.676 69,200.356 C69,197.876 69.713,197.428 77.5,195.018 C84.176,192.952 93.626,187.995 96.795,184.897 C98.441,183.287 101.298,181.463 103.144,180.843 C104.99,180.224 107.176,179.137 108.002,178.428 C108.828,177.719 110.853,176.435 112.502,175.575 Z M107,123.889 C111.942,120.245 112.953,119.883 116.961,120.318 C122.289,120.896 125,123.682 125,128.581 C125,132.595 120.973,141.81 118.071,144.436 C116.699,145.677 116,147.538 116,149.949 C116,152.981 114.786,155.081 108.718,162.544 C101.016,172.016 98.353,173.534 94.908,170.417 C93.27,168.934 92.624,168.863 90.609,169.941 C87.355,171.683 84.672,170.592 81.438,166.211 C73.399,155.32 66.071,150 59.108,150 C55.865,150 54.757,149.467 53.068,147.096 C50.571,143.589 50.543,143.162 52.655,140.829 C55.173,138.046 62.917,138.417 70.375,141.678 C73.744,143.151 77.328,145.058 78.34,145.915 C80.042,147.356 80.342,147.249 82.34,144.495 C83.528,142.857 85.4,140.703 86.5,139.708 C87.6,138.712 89.625,136.844 91,135.556 C92.375,134.268 95.3,132.029 97.5,130.579 C99.7,129.129 103.975,126.119 107,123.889 Z M75.103,25.25 C76.05,22.736 77.698,22.45 81.434,24.152 C84.327,25.47 85.719,28.681 84.099,30.301 C83.495,30.905 83,32.215 83,33.211 C83,34.207 82.161,36.929 81.135,39.261 C80.11,41.592 78.029,46.875 76.512,51 C73.275,59.803 71.155,64.631 65.769,75.47 L61.809,83.44 L64.785,85.97 C66.422,87.362 69.784,90.236 72.257,92.359 C78.411,97.64 81.289,102.941 80.445,107.439 C79.697,111.431 77.939,113.298 75.728,112.449 C74.89,112.127 72.127,109.275 69.588,106.11 C65.154,100.581 60.01,96 58.236,96 C57.771,96 55.728,94.477 53.695,92.615 C51.042,90.184 50,88.402 50,86.293 C50,83.161 55.525,72 57.075,72 C57.584,72 58,71.507 58,70.904 C58,70.301 59.544,66.555 61.43,62.579 C63.317,58.603 65.759,52.684 66.858,49.425 C67.956,46.166 69.731,41.457 70.802,38.96 C71.873,36.463 73.088,32.863 73.502,30.96 C73.916,29.057 74.636,26.488 75.103,25.25 Z M103.868,34.51 C105.616,33.56 106.425,33.107 107.193,33.168 C107.892,33.223 108.558,33.703 109.866,34.619 C111.811,35.981 112.079,36.814 111.554,39.869 C111.211,41.866 109.851,45.75 108.532,48.5 C104.021,57.907 102,62.632 102,63.771 C102,64.398 100.875,66.569 99.5,68.595 C98.125,70.621 97,73.065 97,74.025 C97,74.985 98.125,76.507 99.5,77.408 C100.875,78.309 102,79.909 102,80.964 C102,82.019 102.506,83.195 103.125,83.577 C104.807,84.617 103.639,97.376 101.573,100.53 C100.434,102.267 99.152,103.02 97.687,102.811 C95.765,102.538 95.439,101.733 94.996,96.17 C94.543,90.467 94.134,89.511 90.878,86.527 C83.655,79.908 82.105,75.025 86.083,71.425 C88.38,69.346 96,54.266 96,51.799 C96,50.944 96.626,49.725 97.391,49.09 C98.156,48.455 99.056,46.6 99.391,44.968 C99.726,43.336 100.278,40.637 100.618,38.97 C100.994,37.127 102.266,35.38 103.868,34.51 Z M125.694,38.693 C126.751,36.968 131.47,38.559 132.903,41.123 C134.21,43.463 134.179,44.243 132.617,48.333 C131.654,50.855 129.752,54.56 128.39,56.566 C127.029,58.572 125.822,61.834 125.708,63.814 C125.528,66.923 125.909,67.609 128.5,68.84 C130.15,69.624 132.287,70.951 133.25,71.788 C135.489,73.735 135.544,79.741 133.345,82.171 C131.136,84.612 126.806,84.521 125.232,82 C124.545,80.9 123.017,80 121.836,80 C120.655,80 118.162,78.836 116.296,77.412 C113.073,74.954 112.935,74.592 113.528,70.162 C114.662,61.686 119.892,48.158 125.694,38.693 Z M91.5,200.531 C89.85,201.883 87.263,202.992 85.75,202.995 C82.532,203.001 82.347,204.218 84.2,213.19 C84.894,216.548 85.93,219 86.656,219 C87.346,219 89.603,217.852 91.672,216.448 C95.44,213.891 97.242,209.984 98.683,201.25 C99.162,198.344 98.969,198.004 96.859,198.036 C95.562,198.056 93.15,199.179 91.5,200.531 Z M105.308,138.447 C98.157,143.545 92.195,149.329 90.158,153.147 L87.999,157.19 L90.068,160.095 C91.205,161.693 92.265,163 92.423,163 C92.581,163 94.604,160.3 96.919,157 C99.234,153.7 101.532,151 102.027,151 C102.521,151 104.742,148.325 106.963,145.055 C112.848,136.388 112.143,133.574 105.308,138.447 Z M112.75,186.641 C110.484,188.26 108.995,190.147 108.986,191.41 C108.979,192.559 108.727,194.413 108.428,195.528 C107.935,197.362 108.342,197.553 112.678,197.528 C116.689,197.505 117.524,197.173 117.788,195.5 C117.961,194.4 118.57,192.555 119.141,191.399 C120.517,188.613 119.876,184.59 118,184.242 C117.175,184.089 114.813,185.168 112.75,186.641 Z"/>
</svg>

