<svg xmlns="http://www.w3.org/2000/svg" width="300" height="300" viewBox="0 0 300 300" version="1.1">
  <defs/>
  <path d="M113.098,34.149 C114.319,30.645 116.355,30.16 119.777,32.557 C121.227,33.572 122,35.148 122,37.088 C122,40.955 124.434,41.88 127.365,39.127 C131.366,35.368 135,36.986 135,42.526 C135,45.998 132.285,49.107 126.879,51.824 C124.004,53.269 123.33,54.355 121.987,59.702 C121.13,63.114 120.107,66.226 119.714,66.619 C119.321,67.012 119,68.132 119,69.109 C119,70.483 119.961,70.955 123.25,71.193 C127.054,71.468 127.533,71.789 127.817,74.252 C128.199,77.574 125,82.407 121.206,84.241 C118.853,85.379 118.535,86.068 118.766,89.525 C118.912,91.711 119.037,96.087 119.043,99.25 C119.049,102.412 119.5,105 120.047,105 C120.593,105 122.822,103.875 125,102.5 C131.791,98.213 138,99.826 138,105.876 C138,108.576 137.457,109.261 134.25,110.613 C124.039,114.917 110.085,123.646 110.032,125.764 C110.014,126.459 110.536,127.885 111.191,128.935 C112.109,130.404 112.113,132.29 111.211,137.141 C109.92,144.085 110.712,146.285 113.808,144.352 C119.527,140.781 128.926,142.265 134.048,147.55 C137.762,151.381 139.186,159.53 136.787,163.219 C135.971,164.473 134.727,167.975 134.023,171 C133.32,174.025 131.676,179.165 130.372,182.422 C129.067,185.68 128,188.492 128,188.672 C128,188.853 129.548,189 131.441,189 C133.334,189 135.191,189.5 135.568,190.11 C136.773,192.06 142.757,190.277 147.722,186.49 C150.35,184.485 154.563,179.843 157.085,176.173 C161.5,169.747 168.016,155.243 168.005,151.866 C168.002,150.968 166.088,148.56 163.75,146.516 C149.257,133.843 148.89,133.446 147.989,129.469 C147.296,126.416 147.423,125.164 148.537,124.043 C149.669,122.905 150.25,122.85 151.193,123.793 C151.857,124.457 153.055,125 153.856,125 C156.172,125 161.683,129.679 164.938,134.41 C168.106,139.015 170.715,140.685 172.287,139.113 C172.811,138.589 173.381,135.312 173.554,131.83 C173.726,128.349 173.948,125.5 174.047,125.5 C174.146,125.5 174.334,122.125 174.466,118 C174.597,113.875 175.046,108.813 175.463,106.75 C176.09,103.654 175.942,103 174.611,103 C173.725,103 173,103.663 173,104.474 C173,105.285 171.663,106.64 170.03,107.485 C168.396,108.329 166.566,109.943 165.962,111.07 C165.199,112.497 164.07,113.026 162.249,112.81 C158.391,112.353 157.876,109.138 158.113,87 C158.227,76.275 157.786,63.341 157.131,58.257 C156.102,50.263 156.152,48.607 157.496,46.007 C159.512,42.11 161.295,42.21 164.49,46.399 L167.083,49.797 L166.768,69.372 C166.547,83.132 166.089,89.311 165.227,90.173 C163.817,91.583 163.56,98.61 164.889,99.431 C165.747,99.962 171,93.905 171,92.385 C171,91.263 187.082,74.781 190.262,72.644 C192.062,71.435 193.889,71.006 195.512,71.414 C197.595,71.936 198,72.633 198,75.69 C198,79.69 195.696,83 192.912,83 C191.935,83 190.844,83.915 190.489,85.034 C190.134,86.152 188.889,87.958 187.721,89.045 C185.847,90.792 185.592,92.162 185.545,100.761 C185.513,106.685 184.932,111.95 184.063,114.201 C182.951,117.081 182.887,118.456 183.774,120.404 C184.65,122.326 184.568,125.185 183.424,132.704 C181.492,145.402 180.733,148.836 181.961,151.264 C182.607,152.542 183.804,153.541 185.668,155.464 C188.314,158.194 191.574,162.019 192.911,163.964 C197.817,171.099 201.246,175.677 207.547,183.5 C211.091,187.9 215.68,194.159 217.745,197.41 C221.473,203.277 223.969,206.444 235.5,219.933 L241.5,226.952 L247.691,226.976 C251.096,226.989 254.152,227.437 254.482,227.971 C255.143,229.04 252.637,234.499 250.221,237.254 C247.744,240.078 242.447,240.944 223.423,241.634 C210.091,242.117 206.177,242.293 202.273,242.16 C200.038,242.084 197.806,241.906 193.81,241.627 C173.19,240.184 161.781,238.905 157.781,237.587 C155.426,236.811 148.775,235.672 143,235.056 C126.173,233.259 96.82,228.055 91.5,225.925 C90.4,225.484 87.925,224.922 86,224.675 C77.687,223.608 58.945,219.939 52.5,218.117 C46.919,216.539 42.257,216.123 29.5,216.065 C3.516,215.948 2.592,215.906 1.268,214.807 C0.571,214.229 0,211.847 0,209.516 L0,205.276 L5.667,204.138 C8.784,203.512 13.232,203 15.552,203 C17.872,203 21.06,202.434 22.635,201.742 C25.764,200.368 37,192.977 37,192.293 C37,190.854 34.708,188 33.553,188 C32.796,188 29.437,185.01 26.089,181.355 C20.47,175.223 20.001,174.356 20.015,170.105 C20.033,164.17 22.148,158.191 26.338,152.231 C30.523,146.276 33.356,140.385 32.612,139.182 C32.3,138.676 30.144,137.959 27.822,137.587 C22.371,136.716 21,135.492 21,131.5 C21,126.374 22.906,125.476 31.098,126.743 C38.963,127.961 40.517,128.908 42.521,133.704 C44.22,137.77 42.898,141.9 36.305,153.131 C34.487,156.228 33,159.435 33,160.258 C33,161.082 32.325,162.315 31.5,163 C30.605,163.743 30,165.929 30,168.419 C30,171.929 30.597,173.174 33.75,176.237 C35.813,178.24 39.606,180.777 42.18,181.874 C44.753,182.971 47.31,184.712 47.862,185.742 C49.423,188.66 48.517,195.163 46.299,196.959 C43.542,199.191 40.72,203.739 41.405,204.846 C41.722,205.359 43.448,206.008 45.241,206.287 C47.033,206.567 53,207.78 58.5,208.983 C68.884,211.256 72.204,211.933 85.33,214.459 C89.637,215.288 94.812,216.401 96.83,216.933 C103.558,218.705 130.353,223.753 142,225.444 C148.325,226.362 155.525,227.514 158,228.005 C177.946,231.961 229,233.964 229,230.791 C229,230.194 227.425,227.784 225.5,225.435 C223.575,223.085 222,220.746 222,220.237 C222,219.727 221.158,218.548 220.128,217.616 C219.099,216.684 216.286,212.783 213.878,208.946 C211.47,205.109 205.082,196.239 199.681,189.235 C186.793,172.518 185.545,170.929 183.116,168.131 C181.985,166.828 180.798,164.939 180.479,163.932 C179.845,161.937 176.62,160.499 175.009,161.494 C174.454,161.837 174,163.022 174,164.126 C174,165.23 172.875,167.608 171.5,169.411 C170.125,171.214 169,172.962 169,173.296 C169,175.371 159.132,187.426 154.526,190.98 C144.908,198.4 138.847,199.55 131.365,195.373 C126.873,192.865 126.599,192.828 125.33,194.564 C124.598,195.564 124,196.882 124,197.494 C124,199.421 115.78,207 113.689,207 C111.731,207 105.482,201.191 102.43,196.534 C100.655,193.824 100.155,182.445 101.742,180.858 C102.307,180.293 103.821,179.981 105.107,180.165 C107.153,180.458 107.572,181.31 108.472,187 C109.419,192.987 109.697,193.5 111.994,193.5 C114.001,193.5 115.009,192.468 117.16,188.209 C123.015,176.619 125.968,166.798 125.985,158.857 C126.001,151.843 125.186,150.61 121.5,152.068 C120.4,152.503 118.311,152.891 116.857,152.93 C115.403,152.968 113.955,153.675 113.638,154.5 C113.322,155.325 112.411,156 111.615,156 C109.856,156 104,163.178 104,165.335 C104,166.186 103.562,167.153 103.027,167.483 C102.492,167.814 100.223,171.885 97.986,176.529 C95.749,181.174 93.036,185.445 91.959,186.022 C90.882,186.599 90,187.773 90,188.631 C90,190.458 86.419,195.757 83.522,198.217 C79.339,201.768 72.628,199.431 74.888,195.21 C75.452,194.155 77.577,191.314 79.61,188.896 C81.643,186.478 84.382,182.25 85.697,179.5 C87.011,176.75 88.466,173.825 88.93,173 C89.394,172.175 90.783,169.025 92.017,166 C94.099,160.893 98.167,151.751 100.11,147.809 C100.568,146.879 101.246,142.491 101.615,138.059 C102.377,128.922 101.846,128.354 96.411,132.5 C94.608,133.875 92.564,135 91.868,135 C91.173,135 87.585,137.025 83.896,139.5 C80.207,141.975 76.307,144 75.229,144 C72.875,144 68,140.36 68,138.602 C68,136.477 72.133,133.395 81,128.907 C85.675,126.54 90.59,123.78 91.922,122.773 C93.254,121.765 96.179,120.085 98.422,119.038 C100.665,117.991 104.058,115.801 105.961,114.17 C109.202,111.396 109.449,110.753 109.824,104.118 C110.044,100.219 109.931,95.861 109.573,94.433 C108.975,92.052 108.608,91.89 105.132,92.478 C100.71,93.225 99.539,92.207 98.728,86.914 C98.045,82.454 98.473,81.789 103.75,79.114 C106.877,77.529 108,76.357 108,74.68 C108,73.426 108.481,71.919 109.068,71.332 C109.656,70.744 110.482,67.722 110.903,64.617 C111.913,57.173 110.96,56.374 103.615,58.51 C95.58,60.845 90.865,60.235 89.148,56.637 C88.151,54.546 88.06,53.164 88.812,51.513 C89.683,49.602 91.121,49.066 98.138,48.04 C109.211,46.421 112,44.929 112,40.624 C112,38.795 112.494,35.881 113.098,34.149 Z M31.998,83.502 C33.463,81.737 34.301,81.678 39.071,83.003 C44.658,84.555 47.939,90.391 48.688,100.111 C49.338,108.533 48.238,111.732 43.893,114.057 C40.607,115.816 39.639,113.882 39.566,105.414 C39.501,97.878 39.46,97.763 35.767,94.648 C31.635,91.163 29.899,86.031 31.998,83.502 Z"/>
</svg>

