<svg xmlns="http://www.w3.org/2000/svg" width="300" height="300" viewBox="0 0 300 300" version="1.1">
  <defs/>
  <path d="M123.485,43.024 C123.833,42.461 126.128,42 128.584,42 C134.867,42 135.313,43.625 133.82,61.06 C133.165,68.706 132.918,75.252 133.272,75.605 C133.625,75.959 135.535,75.292 137.514,74.124 C141.231,71.931 145.517,71.407 147.816,72.865 C151.734,75.35 153.327,85.467 150.639,90.8 C149.891,92.285 148.971,95.499 148.596,97.943 C148.221,100.387 146.866,104.437 145.584,106.943 C144.301,109.449 142.444,113.432 141.455,115.793 C139.321,120.89 139.478,121.118 148.5,126.042 C151.8,127.842 157.2,131.022 160.5,133.106 C163.8,135.191 169.747,138.508 173.715,140.477 C177.683,142.447 183.93,146.07 187.597,148.529 C191.264,150.988 194.864,153 195.597,153 C196.33,153 197.386,153.853 197.944,154.895 C198.501,155.937 200.205,157.249 201.729,157.81 C203.253,158.371 206.269,160.444 208.432,162.415 C210.594,164.387 212.655,166 213.011,166 C214.599,166 227,179.082 227,180.757 C227,181.785 225.691,183.88 224.091,185.412 C221.725,187.679 220.621,188.076 218.17,187.537 C214.009,186.623 209.711,182.485 210.463,180.116 C210.881,178.799 210.012,177.339 207.492,175.127 C205.533,173.407 203.359,172 202.661,172 C201.963,172 199.866,170.425 198,168.5 C196.134,166.575 194.091,165 193.459,165 C192.827,165 191.495,164.1 190.5,163 C189.505,161.9 188.271,161 187.758,161 C186.881,161 185.361,160.037 173.837,152.18 C171.272,150.431 168.641,149 167.991,149 C167.341,149 165.399,147.988 163.675,146.75 C158.953,143.359 157.167,142.357 149,138.513 C144.875,136.572 140.719,134.537 139.764,133.992 C136.564,132.164 134.032,132.899 131.989,136.25 C130.899,138.037 130.006,140.255 130.004,141.177 C130.002,142.1 128.875,143.74 127.5,144.821 C126.125,145.903 125,147.68 125,148.771 C125,149.862 124.325,151.315 123.5,152 C122.675,152.685 122,153.676 122,154.203 C122,154.73 120.487,157.487 118.639,160.331 C116.79,163.174 114.466,166.924 113.473,168.665 C112.481,170.405 110.619,172.308 109.335,172.893 C108.051,173.478 107,174.401 107,174.943 C107,175.484 105.382,177.027 103.404,178.371 C98.768,181.522 97,185.042 97,191.125 C97,197.663 94.227,214.605 92.711,217.326 C88.572,224.757 83.79,225.871 75.188,221.408 C69.886,218.657 68.951,218.765 60.764,223.084 C59.809,223.588 58.269,224 57.342,224 C56.416,224 54.792,224.784 53.733,225.741 C51.893,227.407 51.724,227.377 49.843,225.055 C48.483,223.374 48.072,221.837 48.509,220.063 C49.323,216.765 49.189,216.851 58,213.96 C62.125,212.607 66.384,210.701 67.465,209.725 C68.546,208.749 70.024,208.179 70.751,208.458 C71.478,208.737 73.969,208.305 76.286,207.497 C78.604,206.69 81.218,206.023 82.095,206.015 C84.013,205.997 86.724,203.085 86.762,201 C86.777,200.175 87.083,196.125 87.441,192 C89.654,166.518 89.475,165.148 84.367,168.495 C82.967,169.412 79.499,170.401 76.661,170.693 C72.445,171.125 71.19,170.879 69.807,169.345 C67.315,166.583 65.942,155.85 66.884,146.5 C67.984,135.586 67.264,133.954 63.243,138.25 C61.329,140.294 61.095,141.962 60.68,156.5 C60.429,165.3 59.729,175.2 59.126,178.5 C57.902,185.191 58.473,190 60.491,190 C61.223,190 64.358,187.525 67.456,184.5 C71.39,180.659 73.882,179 75.716,179 C79.407,179 82,181.7 82,185.544 C82,188.523 81.222,189.302 72.165,195.389 C66.755,199.025 61.693,201.999 60.915,201.997 C60.137,201.996 57.559,200.308 55.187,198.247 C50.383,194.074 48.617,189.102 50.02,183.701 C50.477,181.94 51.088,175.775 51.378,170 C51.668,164.225 52.214,157.137 52.592,154.25 C53.359,148.387 51.908,147.234 48.5,151 C47.505,152.1 45.877,153 44.883,153 C43.258,153 43.137,152.317 43.682,146.25 C44.276,139.654 45.958,135.859 50.094,131.789 C53.946,127.998 53.478,111.949 49.318,105.214 C48.393,103.716 48.009,100.785 48.203,96.714 C48.482,90.87 48.654,90.482 51.078,90.2 C55.228,89.718 57.821,92.753 59.022,99.5 C59.609,102.8 60.539,107.975 61.087,111 C61.968,115.855 62.745,121.006 62.936,123.25 C63.101,125.191 66.037,123.699 66.62,121.378 C67.444,118.095 66.308,101.844 64.882,96.5 C62.743,88.488 62.73,86.555 64.8,84.681 C67.644,82.107 71.362,83.334 72.777,87.314 C74.446,92.005 75.984,102.643 75.992,109.55 C76,115.821 77.089,118 80.216,118 C83.956,118 89.656,120.443 91.443,122.812 C94.657,127.073 98.14,143.327 98.716,156.75 C99.23,168.722 99.728,170.216 102.545,168.235 C104.064,167.166 108,160.127 108,158.478 C108,157.704 108.885,156.597 109.966,156.018 C111.047,155.439 112.401,153.226 112.973,151.099 C113.546,148.973 114.763,146.618 115.677,145.866 C116.592,145.115 119.041,140.9 121.119,136.5 C124.011,130.376 124.616,128.245 123.699,127.413 C122.123,125.983 112.43,123 109.36,123 C107.676,123 106.648,122.205 105.947,120.36 C103.96,115.135 110.238,112.128 119,114.107 C127.963,116.131 129.037,116.214 130.509,114.992 C131.329,114.312 132,113.167 132,112.447 C132,111.728 133.343,108.238 134.984,104.692 C138.413,97.284 140.628,88.228 139.33,86.93 C138.847,86.447 137.24,86.378 135.759,86.776 C132.652,87.611 127,95.758 127,99.4 C127,100.682 126.1,102.874 125,104.273 C123.9,105.671 123,107.546 123,108.439 C123,110.87 120.307,111.431 117.492,109.587 C114.483,107.615 114.411,105.889 117.092,100 C118.219,97.525 119.371,93.25 119.653,90.5 C119.934,87.75 120.561,84.375 121.046,83 C122.258,79.559 124.746,58.316 124.455,53.885 C124.325,51.896 123.911,48.87 123.535,47.159 C123.159,45.448 123.137,43.588 123.485,43.024 Z M147.5,175.882 C154.199,174.501 157.576,174.979 162.304,177.978 L167,180.956 L167.192,188.228 C167.298,192.228 167.355,196.4 167.32,197.5 C167.188,201.605 163.266,209.807 156.667,219.781 C152.926,225.436 150.012,230.824 150.191,231.756 C150.442,233.056 152.723,233.837 160.009,235.117 C165.229,236.034 171.072,237.283 172.993,237.892 C174.915,238.501 178.479,239 180.915,239 C185.663,239 189,241.077 189,244.033 C189,248.352 184.315,249.071 169,247.099 C150.484,244.716 138.995,245.1 135.225,248.228 C133.422,249.724 126.798,249.919 125.765,248.506 C125.361,247.952 125.024,246.043 125.015,244.262 C125.002,241.366 125.686,240.584 131.5,236.851 C135.075,234.555 138,232.313 138,231.868 C138,231.422 140.834,226.882 144.298,221.779 C153.673,207.968 154.933,205.677 156.535,199.526 C159.185,189.352 158.267,187 151.644,187 C148.966,187 146.631,187.807 144.411,189.5 C142.608,190.875 140.747,192 140.275,192 C138.699,192 131,200.551 131,202.301 C131,203.251 131.395,204.809 131.877,205.764 C135.32,212.579 136.212,226.824 133.443,230.777 C131.437,233.643 127.561,233.639 125.552,230.771 C124.368,229.08 124.133,227.091 124.577,222.521 C125.089,217.271 124.764,215.54 122.04,209 C120.321,204.875 117.842,199.925 116.529,198 C115.137,195.958 114.01,192.651 113.822,190.06 C113.533,186.07 113.786,185.463 116.325,184.06 C119.077,182.541 119.222,182.585 121.898,185.75 C123.409,187.537 124.973,189 125.372,189 C125.772,189 127.639,187.504 129.522,185.676 C133.274,182.032 142.776,176.855 147.5,175.882 Z M22.667,127.667 C23.6,126.733 28.235,126.863 29.819,127.867 C31.888,129.179 35.517,137.869 36.974,145 C37.704,148.575 38.879,152.658 39.585,154.074 C41.599,158.11 43.034,169.045 43.974,187.5 C44.449,196.85 44.958,206.322 45.103,208.548 C45.248,210.775 45.079,213.063 44.727,213.633 C44.374,214.204 44.602,216.352 45.233,218.408 C46.175,221.477 46.123,222.31 44.94,223.058 C42.834,224.391 39.409,224.198 38.145,222.675 C37.521,221.923 36.632,213.387 36.089,202.925 C34.894,179.921 34.385,174.146 33.129,169.326 C32.58,167.222 31.391,161.45 30.485,156.5 C28.935,148.029 26.439,141.528 23.351,137.921 C21.966,136.303 21.47,128.864 22.667,127.667 Z M68.744,61.531 C72.46,59.086 76.308,57.067 77.295,57.043 C78.283,57.019 80.213,58.122 81.584,59.493 C83.537,61.446 83.863,62.388 83.087,63.838 C81.596,66.624 76.25,70.376 68.836,73.843 C65.183,75.551 61.589,77.533 60.848,78.247 C59.274,79.764 49.034,82 43.658,82 C41.018,82 39.757,81.492 39.317,80.25 C38.975,79.287 38.049,77.745 37.258,76.822 C35.957,75.304 36.343,74.896 41.3,72.551 C44.314,71.126 50.202,69.063 54.384,67.967 C59.341,66.669 64.341,64.428 68.744,61.531 Z M78.245,131.25 C76.556,133.36 76.114,136.125 75.86,146.144 C75.679,153.304 75.996,156.361 77.092,158.012 L78.568,160.235 L81.678,157.617 C83.389,156.178 85.525,155 86.426,155 C88.846,155 89.324,152.671 88.007,147.294 C87.361,144.657 86.596,141.033 86.306,139.241 C86.016,137.448 85.379,135.734 84.89,135.432 C84.4,135.129 84,133.784 84,132.441 C84,130.537 83.477,130 81.622,130 C80.315,130 78.795,130.563 78.245,131.25 Z"/>
</svg>

