<svg xmlns="http://www.w3.org/2000/svg" width="300" height="300" viewBox="0 0 300 300" version="1.1">
  <defs/>
  <path d="M72.782,62.714 C74.935,60.418 75.932,60.043 78.447,60.579 C82.711,61.489 84,62.787 84,66.169 C84,68.414 83.274,69.489 80.874,70.797 C79.155,71.733 76.567,73.44 75.124,74.588 C73.681,75.737 69.8,77.935 66.5,79.472 C63.2,81.01 60.275,82.582 60,82.965 C59.725,83.347 58.038,84.297 56.25,85.074 C52.939,86.515 51.809,89 54.465,89 C57.063,89 57.882,92.419 58.194,104.568 C58.528,117.572 59.181,118.782 63.893,115.13 C66.138,113.391 66.279,112.681 66.181,103.633 C66.124,98.329 65.533,92.173 64.867,89.952 C63.836,86.511 63.892,85.68 65.24,84.332 C67.397,82.174 72.034,82.334 73.742,84.625 C74.629,85.814 74.939,87.794 74.592,90.038 C74.291,91.984 74.545,95.359 75.157,97.538 C75.77,99.717 76.322,103.474 76.385,105.886 C76.459,108.694 77.039,110.541 78,111.02 C78.825,111.431 80.835,112.383 82.466,113.134 C87.331,115.375 92.526,121.473 94.331,127.061 C97.272,136.168 96.501,157.812 92.374,182 C91.576,186.675 90.655,195.9 90.326,202.5 C89.998,209.1 89.351,214.983 88.889,215.573 C88.427,216.163 87.871,218.778 87.654,221.383 C87.363,224.876 86.52,226.892 84.443,229.06 C82.893,230.677 80.986,232 80.205,232 C78.59,232 66.635,222.782 63.345,219 L61.171,216.5 L58.336,218.52 C56.776,219.631 53.778,221.431 51.674,222.52 L47.848,224.5 L45.874,222.078 C43.172,218.762 43.82,215.021 47.529,212.531 C49.195,211.412 56.845,208.76 64.529,206.637 C72.213,204.514 79,202.373 79.612,201.88 C80.223,201.388 81.041,198.175 81.43,194.742 C83.114,179.854 83.607,171.436 82.845,170.563 C82.358,170.006 81.084,170.512 79.699,171.813 C78.419,173.016 76.358,174 75.12,174 C72.15,174 69,172.259 69,170.618 C69,169.897 68.267,167.838 67.371,166.042 C65.977,163.248 65.837,160.449 66.401,146.639 C66.763,137.762 66.67,129.918 66.194,129.207 C65.509,128.184 64.851,128.3 63.044,129.763 C60.266,132.012 58.399,140.709 57.41,156 C57.037,161.775 56.406,166.95 56.009,167.5 C55.611,168.05 55.196,171.425 55.087,175 C54.978,178.575 54.801,182.85 54.694,184.5 C54.538,186.907 54.937,187.562 56.711,187.814 C58.292,188.039 60.298,186.686 63.752,183.064 C66.409,180.279 69.477,178 70.569,178 C74.059,178 77,180.841 77,184.212 C77,189.877 64.718,199 57.091,199 C53.62,199 50.23,195.461 49.381,190.952 C49.024,189.053 47.837,186.513 46.744,185.306 C45.106,183.498 44.902,182.443 45.582,179.306 C46.037,177.213 46.497,174.375 46.606,173 C46.714,171.625 47.305,165.37 47.919,159.101 C48.533,152.831 48.797,147.464 48.507,147.174 C48.217,146.884 47.421,147.338 46.74,148.183 C46.058,149.029 44.699,150 43.72,150.341 C41.197,151.219 39.115,146.646 40.806,143.939 C41.463,142.888 42,140.706 42,139.09 C42,137.25 43.364,134.366 45.652,131.369 L49.304,126.585 L48.016,113.042 C47.309,105.594 46.815,96.972 46.92,93.882 C47.092,88.801 46.812,87.966 43.985,85.139 C38.78,79.934 39.908,78.246 51.049,74.569 C61.255,71.202 68.559,67.217 72.782,62.714 Z M144.75,53.08 C145.707,52.523 146.186,52.199 146.691,52.15 C147.366,52.085 148.087,52.511 150.05,53.526 C153.118,55.112 154.156,59.168 151.857,60.588 C151.051,61.086 150.904,64.273 151.358,71.397 C152.09,82.884 152.738,86 154.394,86 C156.645,86 160.228,82.699 161.637,79.326 C163.455,74.976 165.597,74.153 168.236,76.791 C169.695,78.251 170.334,80.235 170.402,83.525 C170.487,87.559 170.095,88.516 167.5,90.616 C165.85,91.952 162.129,94.216 159.231,95.649 C156.332,97.082 153.736,98.618 153.461,99.063 C152.911,99.953 151.019,118.317 150.583,127 C150.429,130.066 149.104,135.483 147.589,139.241 C146.094,142.948 145.125,146.393 145.437,146.897 C145.943,147.717 160.905,142.065 163.468,140.086 C164.036,139.647 166.75,138.742 169.5,138.073 C172.25,137.405 176.432,136.007 178.793,134.966 C186.189,131.707 189.338,131.521 192.363,134.167 C195.029,136.499 195.029,136.501 193.302,140.259 C191.759,143.618 191.2,144.004 188.038,143.897 C184.232,143.768 173.187,147.516 167.806,150.763 C165.988,151.86 162.7,153.32 160.5,154.008 C158.3,154.695 155.375,155.823 154,156.513 C151.519,157.758 147.869,159.399 140.849,162.426 C138.841,163.292 136.701,164 136.094,164 C135.487,164 132.658,165.125 129.808,166.5 C126.958,167.875 123.639,169 122.434,169 C121.228,169 117.726,170.152 114.652,171.559 C110.76,173.341 107.762,174.024 104.781,173.809 C100.793,173.521 100.479,173.286 100.195,170.366 C99.776,166.058 102.677,163.996 114.728,160.033 C130.272,154.923 129.6,155.397 133.918,146.5 C139.76,134.462 141.165,128.763 141.343,116.388 L141.5,105.5 L138.5,105.825 C136.85,106.004 134.825,106.745 134,107.472 C133.175,108.199 131.619,108.955 130.542,109.152 C129.391,109.363 127.518,111.568 126,114.5 C123.303,119.709 120.464,121.374 119.328,118.413 C118.962,117.46 119.194,112.814 119.843,108.09 C122.217,90.812 121.411,72.593 117.916,64.5 C117.441,63.4 116.928,60.7 116.776,58.5 L116.5,54.5 L120.5,54.811 C122.7,54.983 124.997,55.658 125.605,56.311 C127.923,58.805 129.943,66.169 130.91,75.653 C131.839,84.752 131.62,87.674 129.498,94.57 C129.112,95.824 129.423,97.106 130.287,97.823 C131.425,98.768 132.819,98.277 137.2,95.392 L142.688,91.778 L142.309,84.639 C142.1,80.713 141.663,73.531 141.336,68.679 C140.934,62.718 141.108,59.492 141.871,58.729 C142.492,58.108 143,56.812 143,55.85 C143,54.887 143.787,53.641 144.75,53.08 Z M161.5,182.046 C171.254,180.493 172.543,180.716 175.896,184.535 C179.041,188.116 180.197,194.142 178,195.5 C177.45,195.84 177,196.777 177,197.582 C177,199.582 167.567,213.18 161.75,219.566 C159.137,222.434 157,225.263 157,225.854 C157,226.591 160.602,226.734 168.527,226.309 C182.956,225.536 185,226.317 185,232.61 C185,234.96 184.438,237.246 183.75,237.691 C183.063,238.136 175.975,238.531 168,238.569 C149.851,238.654 140.903,240.062 136.854,243.47 C131.549,247.933 127.437,246.467 126.343,239.723 C125.845,236.66 126.173,235.97 129.23,233.638 L132.679,231.007 L131.797,224.754 C130.776,217.516 126.893,208.97 123.121,205.661 C117.286,200.544 113.688,188.824 117.502,187.361 C120.808,186.092 124.002,188.098 127.697,193.764 C136.566,207.363 138.482,211.098 139.872,217.5 C142.314,228.743 144.164,229.5 149.652,221.499 C151.768,218.413 154.538,214.676 155.807,213.195 C157.076,211.713 159.9,207.529 162.083,203.899 C167.389,195.072 166.209,192.013 158.325,194.163 C152.172,195.842 146.68,198.636 144.076,201.414 C140.276,205.467 136,204.319 136,199.247 C136,196.612 139.793,190.534 142.713,188.488 C145.606,186.462 155.872,182.942 161.5,182.046 Z M21.667,124.667 C22.983,123.35 27.719,124.035 29.167,125.75 C29.98,126.713 31.202,129.525 31.883,132 C32.564,134.475 33.746,138.75 34.51,141.5 C36.196,147.571 37.204,155.831 37.559,166.5 C38.029,180.611 39.986,197.504 42.032,205.115 C43.293,209.805 42.259,214.791 39.746,216.136 C34.883,218.738 31.804,209.561 29.969,187 C27.578,157.596 24.559,138.327 21.907,135.55 C20.863,134.456 20.669,125.665 21.667,124.667 Z M77.234,125.25 C75.237,127.721 75.186,158 77.179,158 C79.231,158 84.921,150.939 85.544,147.618 C86.253,143.837 83.562,127.382 81.908,125.39 C80.476,123.664 78.563,123.607 77.234,125.25 Z M73.479,214.392 C71.862,215.574 71.776,216.025 72.91,217.392 C73.644,218.276 75.09,219 76.122,219 C77.542,219 78,218.268 78,216 C78,212.698 76.517,212.171 73.479,214.392 Z"/>
</svg>

