<svg xmlns="http://www.w3.org/2000/svg" width="300" height="300" viewBox="0 0 300 300" version="1.1">
  <defs/>
  <path d="M79.206,122.597 C80.574,120.153 84.898,120.956 87.224,124.087 C88.282,125.509 89.398,128.547 89.705,130.837 C90.012,133.126 90.672,135 91.172,135 C91.671,135 93.844,134.1 96,133 C104.42,128.705 112.083,132.133 115,141.5 C115.685,143.7 116.637,146.276 117.115,147.224 C118.761,150.487 119.185,165.522 117.956,177 C117.278,183.325 116.53,192.55 116.294,197.5 C116.057,202.45 115.444,206.928 114.932,207.45 C114.419,207.973 114,210.083 114,212.141 C114,214.199 113.549,216.161 112.997,216.502 C112.446,216.842 111.118,219.045 110.047,221.397 C108.976,223.749 107.406,226.248 106.559,226.951 C104.578,228.595 97.631,227.616 92.418,224.958 C90.305,223.881 88.11,223.018 87.539,223.04 C86.967,223.063 82.707,224.586 78.07,226.426 C71.244,229.135 69.118,229.588 66.891,228.812 C65.001,228.153 63.458,228.22 61.954,229.025 C60.179,229.975 59.462,229.89 58.148,228.576 C56.281,226.709 54.024,218.746 53.309,211.5 C53.038,208.75 52.407,206.072 51.908,205.55 C51.409,205.027 51,203.144 51,201.365 C51,199.586 50.473,196.863 49.83,195.315 C49.186,193.767 48.325,189.575 47.917,186 C46.831,176.49 45.69,172.285 42.16,164.792 C40.422,161.102 39,157.255 39,156.242 C39,153.928 40.874,152 43.123,152 C45.784,152 51,156.899 51,159.398 C51,160.619 51.661,162.491 52.468,163.559 C53.276,164.626 53.951,167.548 53.968,170.05 C53.986,172.553 54.401,175.028 54.891,175.55 C55.381,176.073 56.04,179.2 56.355,182.5 C57.227,191.644 58.671,199.517 59.896,201.806 C60.503,202.941 61,206.306 61,209.285 C61,215.342 62.608,221 64.328,221 C64.952,221 67.72,220.129 70.481,219.064 C73.241,217.999 77.525,216.485 80,215.698 C89.066,212.817 100.564,208.781 102.963,207.639 C105.636,206.365 106.681,203.397 107.944,193.5 C108.365,190.2 109.313,184.257 110.051,180.294 C111.152,174.378 111.166,171.333 110.131,163.294 C109.438,157.907 108.633,151.632 108.342,149.348 C107.989,146.569 106.889,144.31 105.017,142.516 C102.287,139.901 102.141,139.875 99.056,141.471 C92.716,144.75 92,146.176 92,155.531 C92,165.076 92.67,166.008 98.154,164.096 C100.704,163.207 101.794,163.291 103.666,164.517 C108.046,167.386 106.679,169.609 97.816,174.032 L89.632,178.116 L87.066,176.203 C84.663,174.412 84.482,173.677 84.214,164.645 C83.935,155.261 83.864,155 81.571,155 C78.419,155 78.003,156.49 77.984,167.832 C77.976,173.149 77.317,180.2 76.52,183.5 C74.58,191.534 74.626,192 77.36,192 C79.831,192 85.215,188.74 90.785,183.871 C94.649,180.493 97.248,180.248 100,183 C103,186 102.502,187.4 96.75,192.139 C93.862,194.518 90.6,197.463 89.5,198.683 C86.41,202.111 76.51,206.145 73.765,205.096 C68.92,203.243 68.053,201.115 69.034,193.495 C70.305,183.627 70.233,170.262 68.905,169.441 C68.303,169.069 66.472,169.754 64.836,170.963 C63.201,172.172 61.273,172.935 60.551,172.658 C58.719,171.955 60.162,164.561 62.691,161.697 C68.339,155.3 69.496,148.248 66.511,138.409 C65.692,135.709 65.017,132.352 65.011,130.95 C65.005,129.548 64.471,127.871 63.824,127.224 C61.883,125.283 65.767,121.726 68.956,122.521 C74.212,123.832 75,125.538 75,135.596 C75,140.969 75.44,145.154 76.044,145.527 C76.618,145.882 78.193,145.448 79.544,144.563 C81.585,143.226 82,142.146 82,138.177 C82,135.55 81.592,132.972 81.093,132.45 C79.402,130.679 78.199,124.397 79.206,122.597 Z M175.397,72.407 C176,70.836 178.781,70.575 180.863,71.894 C182.419,72.88 185.918,82.378 185.967,85.75 C186.01,88.657 187.35,88.585 193.542,85.343 C199.98,81.973 204,82.55 204,86.845 C204,89.956 202.258,91.772 194.219,97.04 C188.922,100.511 186.9,103.935 188.772,106.263 C189.319,106.943 189.82,111.97 189.886,117.434 C189.952,122.897 190.752,131.672 191.665,136.934 C193.024,144.765 193.314,153.392 193.263,184.5 L193.201,222.5 L188.85,224.691 C186.458,225.896 183.197,226.909 181.606,226.941 C180.014,226.973 174.389,228.98 169.106,231.4 C163.822,233.821 157.066,236.596 154.092,237.567 L148.684,239.334 L146.342,236.611 C142.301,231.913 143.78,228 149.596,228 C151.354,228 156.102,226.492 160.146,224.648 C171.135,219.64 177.189,217.199 180.221,216.555 C181.718,216.237 183.414,215.095 183.99,214.019 C185.421,211.345 185.479,145.725 184.055,141.007 C183.475,139.085 183,135.204 183,132.382 C183,129.56 182.325,125.338 181.5,123 C180.675,120.662 180,116.357 180,113.433 C180,110.51 179.608,107.876 179.128,107.579 C178.105,106.947 163.194,114.473 159.269,117.603 C156.823,119.553 156.683,120.009 157.784,122.425 C159.44,126.059 159.452,160.108 157.799,164.678 C156.906,167.149 156.888,168.288 157.73,169.13 C158.572,169.972 160.292,168.875 164.451,164.847 C167.525,161.869 171.611,158.587 173.531,157.553 C176.557,155.924 177.353,155.851 179.511,157.006 C181.351,157.991 181.992,159.141 181.968,161.419 C181.938,164.388 180.061,168 178.549,168 C178.147,168 176.039,169.523 173.865,171.384 C169.847,174.822 165.903,176.313 160.5,176.433 L157.5,176.5 L156.83,187.32 C156.461,193.272 155.832,198.897 155.432,199.82 C155.032,200.744 154.433,206.45 154.102,212.5 L153.5,223.5 L150.758,223.816 C146.218,224.338 145.579,221.354 147.016,206.364 C148.217,193.847 149.852,131.69 149.149,125.318 C148.72,121.437 147.142,120.695 143.42,122.626 C139.395,124.714 135.847,124.009 134.032,120.759 C131.928,116.993 133.547,114.718 138.994,113.788 C147.252,112.378 147.488,111.929 147.136,98.304 C146.878,88.318 147.096,86.047 148.442,84.701 C151.277,81.866 153.293,83.711 152.738,88.632 C152.405,91.587 152.687,93.325 153.625,94.104 C154.444,94.783 155,97.195 155,100.063 C155,102.714 155.476,105.176 156.058,105.536 C157.051,106.15 167.386,101.325 174.843,96.766 C177.802,94.957 178.113,94.364 177.552,91.611 C176.105,84.509 174.894,73.718 175.397,72.407 Z M86.255,93.971 C88.59,92.911 91.59,92.034 92.921,92.022 C95.481,91.999 99,94.548 99,96.426 C99,99.373 89.922,105.833 79.591,110.237 C75.791,111.857 70.995,114.299 68.932,115.664 C65.327,118.05 65.061,118.083 62.04,116.521 C59.506,115.21 59.026,114.471 59.559,112.698 C60.488,109.61 67.913,103.247 71.5,102.464 C73.15,102.104 76.19,100.48 78.255,98.854 C80.32,97.228 83.92,95.031 86.255,93.971 Z M74.583,105.643 C74.237,106.547 74.21,107.543 74.524,107.858 C75.264,108.598 78.265,106.706 78.774,105.179 C79.386,103.341 75.293,103.795 74.583,105.643 Z"/>
</svg>

