<svg xmlns="http://www.w3.org/2000/svg" width="300" height="300" viewBox="0 0 300 300" version="1.1">
  <defs/>
  <path d="M66.691,42.642 C67.854,41.479 70.149,41.97 72.98,43.986 C75.065,45.471 75.943,47.132 76.459,50.573 C77.616,58.292 80.59,66.472 82.366,66.823 C83.44,67.036 84,66.463 84,65.15 C84,61.897 88.667,57.31 95.296,54.048 C98.708,52.369 102.175,50.587 103,50.087 C106.18,48.161 115.688,44.872 119.656,44.326 C123.311,43.823 124.314,44.158 127.988,47.11 C130.627,49.231 133.271,52.76 135.169,56.696 C138.159,62.897 138.168,62.969 137.121,72.213 C134.902,91.791 133.373,97.392 128.741,102.896 C127.233,104.688 126,106.949 126,107.922 C126,110.002 123.419,112.483 120.249,113.449 C117.193,114.381 115.91,117.132 115.401,123.843 C115.165,126.954 114.743,130.522 114.462,131.772 C113.623,135.5 116.407,135.423 121.771,131.569 C127.326,127.578 131.386,126.985 132.965,129.934 C135.125,133.971 133.699,137.017 128.953,138.506 C127.604,138.929 125.427,140.113 124.115,141.138 C122.803,142.162 121.298,143 120.77,143 C120.241,143 118.564,143.886 117.042,144.97 C114.445,146.82 114.234,147.537 113.587,156.72 C113.208,162.099 112.759,167.4 112.589,168.5 C112.419,169.6 111.936,174.635 111.515,179.69 C110.474,192.217 106.375,198.804 102.212,194.641 C100.702,193.131 100.745,191.789 102.784,176.754 C103.996,167.814 105.266,159.037 105.607,157.25 C106.418,152.996 105.416,153.08 97.359,157.94 C93.766,160.106 89.403,162.192 87.663,162.574 C85.923,162.956 82.933,164.333 81.018,165.634 C76.941,168.404 71.458,168.724 68.829,166.345 C67.601,165.234 67,163.287 67,160.423 C67,156.478 67.246,156.08 70.25,155.162 C72.037,154.615 75.3,153.872 77.5,153.51 C79.7,153.148 82.4,152.279 83.5,151.578 C84.6,150.877 87.184,149.751 89.242,149.077 C93.098,147.813 101.588,143.556 103.687,141.834 C105.149,140.634 106.448,130.986 105.534,128.108 C104.705,125.495 101.709,125.381 98.154,127.825 C95.085,129.936 90.852,131.608 86.315,132.503 C83.872,132.984 82.649,132.649 81.065,131.065 C78.513,128.513 78.466,126.389 80.874,122.439 C82.446,119.862 82.628,118.282 82.028,112.439 C81.636,108.623 80.8,104.248 80.17,102.717 C79.54,101.186 78.09,95.347 76.947,89.741 C75.805,84.135 74.5,79.088 74.048,78.524 C73.596,77.961 72.911,75.59 72.526,73.255 C72.141,70.921 71.415,68.757 70.913,68.446 C70.411,68.136 69.997,66.896 69.994,65.691 C69.99,64.486 69.389,62.353 68.658,60.951 C67.208,58.174 65.652,43.681 66.691,42.642 Z M116.07,200.059 C130.275,199.13 149.037,199.501 160,200.928 C168.64,202.054 194.686,206.774 204.764,209.041 C207.11,209.568 212.567,210 216.892,210 C225.882,210 226.707,210.548 227.591,217.101 C228.147,221.217 227.989,221.615 225.135,223.281 C222.338,224.915 221.783,224.936 218.441,223.54 C216.436,222.702 210.455,221.578 205.148,221.041 C192.81,219.793 177.404,217.368 175.895,216.435 C175.253,216.038 171.751,215.331 168.114,214.863 C164.476,214.395 157.45,213.481 152.5,212.833 C141.929,211.448 116.315,211.62 107.011,213.138 C103.43,213.723 97.125,214.718 93,215.35 C88.875,215.983 85.05,216.786 84.5,217.136 C83.95,217.485 81.138,218.09 78.251,218.479 C75.364,218.869 72.75,219.595 72.442,220.094 C72.134,220.592 70.565,221 68.955,221 C67.346,221 64.11,221.415 61.764,221.922 C43.208,225.936 35.657,226.944 33.185,225.738 C29.963,224.166 28.196,219.368 30.134,217.454 C31.609,215.996 42.835,213.501 52.5,212.484 C58.908,211.809 74.189,208.467 77.5,207.016 C78.6,206.534 81.75,205.668 84.5,205.092 C87.25,204.516 92.681,203.331 96.57,202.459 C100.458,201.587 109.233,200.507 116.07,200.059 Z M94.922,68.745 C85.439,76.505 85,77.211 85,84.701 C85,88.496 85.381,92.027 85.847,92.55 C86.313,93.072 87.741,98.382 89.021,104.348 C90.3,110.314 91.855,115.391 92.477,115.629 C94.358,116.351 100.862,113.14 102.462,110.699 C103.608,108.949 103.813,106.804 103.328,101.614 C102.62,94.028 101.667,93.067 96.838,95.067 C93.972,96.254 93.557,96.171 91.856,94.07 C88.935,90.463 89.6,88.585 95.617,83.444 L101.234,78.646 L100.58,73.086 C100.221,70.029 99.571,67.171 99.136,66.736 C98.701,66.301 96.805,67.205 94.922,68.745 Z M111.444,59.445 C110.2,61.343 110,63.149 110.546,67.524 C110.933,70.623 111.829,73.381 112.537,73.652 C113.244,73.924 116.835,72.693 120.517,70.918 C127.156,67.716 127.207,67.66 126.648,64.221 C125.782,58.883 123.492,57 117.868,57 C113.857,57 112.777,57.411 111.444,59.445 Z M119.004,84.229 C113.214,86.883 112.064,88.503 112.064,94 C112.064,103.056 118.042,104.759 122.075,96.853 C123.992,93.096 126.963,84.569 126.989,82.75 C127.008,81.467 123.691,82.081 119.004,84.229 Z"/>
</svg>

