<svg xmlns="http://www.w3.org/2000/svg" width="300" height="300" viewBox="0 0 300 300" version="1.1">
  <defs/>
  <path d="M106.597,50.25 C108.395,47.458 113.009,47.248 115.365,49.85 C116.286,50.868 117.66,55.031 118.42,59.1 C119.563,65.226 119.584,68.136 118.54,76 C117.165,86.362 117.694,88.305 121.275,86.048 C126.564,82.715 152.167,70.218 154.71,69.73 C158.948,68.914 165.742,72.047 168.083,75.895 C171.511,81.533 174.197,91.135 177.062,108 C177.575,111.025 178.447,116.002 178.998,119.06 C181.891,135.113 178.41,183.135 173.456,195.518 C172.126,198.843 170.747,203.125 170.393,205.032 C169.364,210.567 165.996,220.229 163.915,223.618 C162.862,225.333 162,227.338 162,228.074 C162,228.81 160.312,232.742 158.25,236.811 C154.424,244.36 148.357,251 145.285,251 C143.175,251 133.519,240.785 132.198,237.156 C131.667,235.695 130.684,232.475 130.013,230 C129.343,227.525 128.212,224.375 127.5,223 C125.735,219.594 125.179,211.791 126.664,211.286 C128.002,210.832 132.987,217.83 135.008,223 C137.313,228.894 143.467,238.5 144.938,238.5 C146.707,238.5 149.431,233.631 152.095,225.706 C153.243,222.293 154.557,219.045 155.016,218.488 C155.475,217.931 156.839,214.781 158.049,211.488 C159.258,208.195 160.641,205.072 161.123,204.55 C161.606,204.027 162,202.794 162,201.809 C162,200.824 163.115,196.751 164.478,192.759 C167.898,182.74 169.986,169.623 170.073,157.619 C170.113,152.054 170.47,145.234 170.866,142.465 C171.628,137.136 170.821,126.349 168.548,111.5 C166.757,99.793 164.896,93.425 161.344,86.85 C158.466,81.52 158.438,81.501 153.843,81.652 C148.258,81.836 142.014,84.476 135.619,89.357 C132.994,91.361 130.39,93 129.832,93 C129.273,93 127.62,93.922 126.158,95.05 C124.696,96.177 120.389,99.306 116.587,102.002 L109.674,106.904 L106.837,104.884 C103.473,102.488 103.312,100.849 106.014,96.478 C107.542,94.005 108.293,90.119 109.126,80.36 C110.2,67.785 110.168,67.334 107.686,60 C105.409,53.269 105.297,52.269 106.597,50.25 Z M57,112.991 C58.925,111.945 60.976,111.069 61.559,111.044 C63.663,110.956 65.986,113.566 66.604,116.71 C67.184,119.664 66.939,120.061 63.548,121.678 C60.95,122.918 59.698,124.262 59.302,126.239 C58.994,127.78 58.35,129.284 57.871,129.58 C57.392,129.876 57,130.819 57,131.676 C57,133.212 57.388,133.193 63,131.386 C64.038,131.052 64.852,132.037 65.643,134.586 C66.885,138.588 65.89,142.028 62.052,147 C60.389,149.154 60.08,151.505 59.811,164 C59.554,175.977 59.746,178.5 60.914,178.5 C62.635,178.5 66.171,172.442 66.46,169 C67.129,160.996 70.037,156.542 73.951,157.524 C80.123,159.073 80.563,163.022 75.5,171.43 C73.575,174.627 72,177.859 72,178.613 C72,180.406 65.714,188.612 61.122,192.813 L57.5,196.126 L63,195.649 C66.025,195.386 69.85,194.461 71.5,193.592 C73.15,192.723 75.071,192.01 75.77,192.006 C76.468,192.003 78.86,190.851 81.085,189.446 C91.657,182.772 94.443,181.843 96.8,184.2 C99.722,187.122 96.586,191.139 88,195.469 C86.075,196.44 83.6,198.015 82.5,198.97 C81.4,199.925 76.675,201.97 72,203.514 C67.325,205.059 62.15,206.888 60.5,207.58 C57.723,208.745 43.936,212.454 37.885,213.664 C35.804,214.081 34.833,213.575 33.135,211.189 C30.169,207.024 30.453,205.353 34.454,203.455 C36.354,202.553 38.434,201.182 39.076,200.408 C39.719,199.634 41,199 41.922,199 C44.407,199 46,196.964 46,193.787 C46,191.332 45.285,190.659 40.376,188.487 C37.282,187.119 34.155,186 33.426,186 C32.104,186 26.013,180.108 26.005,178.821 C25.981,175.388 36.432,173.356 37.66,176.555 C37.988,177.41 40.255,179.05 42.699,180.199 C46.491,181.981 47.341,182.083 48.5,180.893 C50.327,179.019 50.948,159.816 49.201,159.234 C48.541,159.014 47.727,159.547 47.393,160.418 C46.798,161.97 37.897,167 35.747,167 C33.655,167 31,163.669 31,161.045 C31,157.725 32.668,156.011 35.95,155.96 C37.539,155.936 40.316,154.249 43.32,151.484 L48.14,147.048 L47.868,133.391 L47.597,119.733 L50.548,117.314 C52.172,115.983 55.075,114.037 57,112.991 Z M57.815,31.25 C58.645,29.762 60.007,29 61.835,29 C65.223,29 67,30.638 67,33.762 C67,36.034 64.732,44.343 62.977,48.5 C62.512,49.6 61.588,52.3 60.923,54.5 C60.258,56.7 59.095,60.217 58.338,62.316 C56.571,67.22 57.35,68.35 62.06,67.719 C65.557,67.25 66.315,67.633 71.572,72.525 C77.119,77.688 77.268,77.963 76.721,82.042 C76.051,87.036 70.73,93.249 67.516,92.789 C65.752,92.536 65.5,91.754 65.5,86.529 C65.5,80.938 65.316,80.468 62.619,79.161 C61.034,78.393 59.248,76.468 58.65,74.883 C57.374,71.502 54,70.885 54,74.032 C54,76.166 48.738,90.9 43.475,103.5 C42.786,105.15 41.896,107.625 41.497,109 C41.098,110.375 39.923,112.904 38.885,114.62 C37.847,116.336 36.566,120.015 36.039,122.796 C35.511,125.577 34.232,129.798 33.196,132.176 C32.16,134.554 30.496,139.2 29.499,142.5 C28.501,145.8 26.904,149.907 25.949,151.627 C24.994,153.346 23.896,156.271 23.508,158.127 C23.121,159.982 22.172,162.498 21.4,163.718 C20.628,164.938 19.023,168.538 17.835,171.718 C16.646,174.898 14.397,179.963 12.837,182.972 C11.277,185.982 10,189.19 10,190.1 C10,191.01 9.325,192.315 8.5,193 C7.675,193.685 6.993,194.977 6.985,195.872 C6.977,196.768 5.419,199.3 3.523,201.5 L0.075,205.5 L0.038,196.679 C0.004,188.848 0.328,187.221 2.926,182.179 C4.535,179.056 6.527,174.925 7.354,173 C8.18,171.075 9.766,167.415 10.878,164.867 C12.974,160.066 16.211,151.434 18.518,144.5 C19.25,142.3 21.502,136 23.522,130.5 C25.542,125 27.43,119.481 27.717,118.235 C28.004,116.99 28.635,115.726 29.119,115.426 C29.604,115.127 30,114.021 30,112.968 C30,111.916 31.057,108.68 32.35,105.777 C33.642,102.875 35.514,98.025 36.51,95 C37.506,91.975 39.298,87.25 40.493,84.5 C41.688,81.75 43.272,77.475 44.013,75 C44.754,72.525 45.72,70.015 46.16,69.422 C46.6,68.829 47.392,65.287 47.921,61.551 C48.45,57.815 50.035,52.406 51.442,49.53 C52.849,46.654 54.007,43.446 54.015,42.4 C54.032,40.231 55.96,34.574 57.815,31.25 Z M100.596,134.166 C101.782,132.473 102.984,131.966 105.272,132.194 C108.141,132.479 109.897,134.291 112.596,139.75 C113.491,141.56 115.778,141.284 116.875,139.233 C119.742,133.876 135.748,130.653 139.138,134.75 C142.158,138.399 143.324,143.96 141.997,148.388 C139.73,155.959 136.725,163.127 134.352,166.623 C131.33,171.075 131.385,171.59 135.013,172.855 C141.18,175.004 139.773,179.348 132.591,180.332 C130.178,180.663 125.796,182.021 122.852,183.35 C114.557,187.094 113.17,187.341 110.451,185.56 C107.435,183.584 107.373,182.067 110.165,178.517 C112.137,176.01 112.182,175.681 110.665,174.833 C109.486,174.172 109,172.551 109,169.271 C109,165.15 108.47,162.68 106.048,155.5 C105.677,154.4 103.927,150.575 102.158,147 C98.557,139.718 98.283,137.469 100.596,134.166 Z M124.737,145.919 C122.667,146.885 119.841,148.74 118.456,150.041 C116.235,152.128 116.015,152.942 116.586,156.953 C116.942,159.454 117.631,161.928 118.117,162.45 C118.603,162.972 119,164.435 119,165.7 C119,167.324 119.581,168 120.975,168 C122.363,168 123.59,166.587 125.101,163.25 C126.284,160.637 128.099,157.301 129.133,155.835 C130.168,154.369 131.298,151.107 131.643,148.585 C132.201,144.52 132.058,144.009 130.386,144.081 C129.349,144.125 126.807,144.953 124.737,145.919 Z"/>
</svg>

