<svg xmlns="http://www.w3.org/2000/svg" width="300" height="300" viewBox="0 0 300 300" version="1.1">
  <defs/>
  <path d="M148.495,65.378 C149.425,62.42 150.375,60 150.607,60 C151.378,60 155.492,62.489 156.107,63.328 C156.441,63.783 156.794,73.226 156.891,84.312 C156.988,95.398 157.469,104.869 157.959,105.359 C158.481,105.881 160.671,105.37 163.241,104.125 C170.423,100.649 174.017,101.213 179.955,106.75 C184.168,110.679 185.304,112.503 186.526,117.304 C187.338,120.496 188.047,125.896 188.101,129.304 C188.303,142.091 184.258,174.781 181.938,179.117 C181.422,180.08 181,183.508 181,186.734 C181,189.96 180.49,193.11 179.867,193.733 C177.676,195.924 179.73,197.994 184.219,198.118 C186.573,198.183 189.85,198.525 191.5,198.878 C194.225,199.461 194.5,199.886 194.5,203.51 L194.5,207.5 L188.5,207.744 C175.578,208.27 156.926,209.927 155.749,210.655 C155.067,211.077 152.482,211.756 150.004,212.165 C147.527,212.574 143.25,213.381 140.5,213.958 C128.94,216.387 128.435,216.383 126.082,213.862 C124.408,212.07 124.017,210.749 124.457,208.388 C124.832,206.384 124.561,204.881 123.697,204.163 C122.619,203.269 122.443,198.364 122.802,179.275 C123.243,155.879 121.887,138.017 118.943,128.429 C118.424,126.74 118,121.708 118,117.246 C118,109.919 118.2,109.071 120.072,108.477 C123.37,107.431 126.922,108.783 127.396,111.265 C129.098,120.174 130,127.576 130,132.622 C130,135.862 130.444,140.061 130.987,141.953 C131.529,143.845 132.059,148.702 132.163,152.747 C132.267,156.791 132.689,160.308 133.101,160.562 C133.512,160.816 135.975,159.894 138.573,158.512 C141.172,157.13 144.105,156 145.092,156 C148.612,156 149.506,152.845 149.378,140.885 C149.263,130.08 149.148,129.484 147.127,129.18 C144.77,128.826 142,131.056 142,133.306 C142,135.21 139.373,137.348 138.044,136.527 C136.421,135.524 136.795,133.581 139.331,129.845 C140.613,127.956 142.171,124.948 142.794,123.161 C143.417,121.374 144.787,118.694 145.838,117.206 C147.616,114.688 147.715,112.983 147.276,92.628 C146.872,73.964 147.051,69.966 148.495,65.378 Z M71.784,112.286 C75.077,109.602 75.821,109.528 78.171,111.655 C80.59,113.844 80.483,117.995 77.862,123.569 C76.218,127.067 75.959,128.623 76.738,130.309 C79.135,135.493 79.772,137.783 79.452,140.069 C79.265,141.406 78.588,147.45 77.946,153.5 C77.305,159.55 76.138,167.104 75.354,170.286 C73.91,176.14 74.144,178.022 76.309,177.973 C77.576,177.945 82.49,167.52 83.603,162.5 C84.309,159.32 86.682,156 88.251,156 C88.768,156 90.498,156.931 92.096,158.068 C94.22,159.58 95,160.96 95,163.2 C95,166.771 91.722,172.502 87.77,175.839 C86.246,177.125 85,178.974 85,179.948 C85,180.922 83.284,183.694 81.188,186.109 C72.152,196.516 71.575,199.559 79.485,195.095 C82.502,193.393 85.582,192 86.33,192 C87.078,192 88.547,191.051 89.595,189.892 C93.286,185.808 96.978,183.778 99.542,184.421 C102.595,185.187 102.619,187.271 99.636,192.467 C97.414,196.336 86.85,204.848 84.145,204.949 C82.167,205.023 62.016,214.874 58.5,217.485 C55.681,219.579 40.509,227 39.048,227 C37.192,227 34,222.615 34,220.066 C34,219.388 33.998,218.866 34.143,218.39 C34.635,216.774 36.817,215.673 46.5,210.76 C48.7,209.643 52.414,207.418 54.754,205.814 C58.846,203.009 58.983,202.747 58.366,198.89 C57.959,196.342 58.201,193.993 59.031,192.442 C59.749,191.101 60.131,189.797 59.879,189.546 C59.627,189.294 56.724,188.908 53.426,188.687 C46.757,188.241 43.669,186.764 42.071,183.257 C40.518,179.848 40.746,178.206 42.934,177.035 C45.936,175.429 50.207,175.819 53.5,178 C56.882,180.239 62.264,180.634 63.722,178.75 C65.166,176.885 66.831,169.31 67.351,162.25 C67.754,156.764 67.594,156 66.04,156 C65.066,156 63.126,156.9 61.727,158 C58.437,160.588 56.483,160.528 54.557,157.777 C51.775,153.806 53.417,147 57.158,147 C57.716,147 60.18,145.559 62.633,143.797 C66.911,140.725 67.081,140.409 66.797,136.047 C66.504,131.564 66.446,131.496 62.701,131.187 C59.671,130.937 58.702,130.346 57.91,128.264 C56.998,125.865 57.407,125.207 62.993,120.078 C66.334,117.01 70.29,113.504 71.784,112.286 Z M70.488,22.013 C72.685,19.585 72.936,19.566 75.844,21.603 C78.008,23.119 78.108,23.705 77.688,32.353 C77.443,37.384 76.48,44.425 75.547,48 C74.615,51.575 73.473,56.525 73.009,59 C72.546,61.475 71.856,64.287 71.476,65.25 C70.704,67.207 72.012,67.588 73.701,65.899 C75.303,64.297 80.522,65.727 84.117,68.752 C88.641,72.559 92,78.429 92,82.53 C92,86.754 89.531,92 87.542,92 C86.01,92 82,86.927 82,84.989 C82,84.327 80.191,81.514 77.98,78.737 C75.769,75.96 73.695,72.633 73.372,71.344 C72.657,68.495 70,68.213 70,70.986 C70,73.226 68.139,81.466 66.947,84.5 C66.515,85.6 65.925,87.895 65.636,89.6 C65.347,91.305 63.96,95.214 62.555,98.286 C61.15,101.358 60,104.774 60,105.877 C60,106.98 59.55,108.16 59,108.5 C58.45,108.84 58,109.998 58,111.073 C58,112.148 57.55,113.921 57,115.014 C56.45,116.106 55.55,117.894 55,118.986 C54.45,120.079 54,121.793 54,122.795 C54,123.798 53.339,125.491 52.532,126.559 C51.724,127.626 51.049,129.486 51.032,130.691 C51.014,131.896 50.55,133.16 50,133.5 C49.45,133.84 49,134.758 49,135.54 C49,137.32 41.101,153.819 39.891,154.567 C39.401,154.87 39,156.19 39,157.5 C39,158.81 38.55,160.16 38,160.5 C37.45,160.84 37,161.818 37,162.674 C37,163.53 35.425,167.594 33.5,171.704 C31.575,175.815 30,179.597 30,180.109 C30,180.621 28.955,182.718 27.677,184.77 C26.399,186.821 25.052,189.175 24.683,190 C24.314,190.825 23.597,192.175 23.09,193 C22.582,193.825 21.443,196.167 20.558,198.203 C19.674,200.24 18.372,202.49 17.666,203.203 C16.959,203.917 15.151,206.75 13.646,209.5 C12.142,212.25 9.659,216.02 8.128,217.877 C5.675,220.853 5.086,221.116 3.172,220.092 C0.199,218.501 0.423,215.1 3.812,210.4 C5.359,208.255 7.302,205.15 8.128,203.5 C8.955,201.85 10.111,199.6 10.697,198.5 C11.283,197.4 12.678,194.475 13.798,192 C18.91,180.706 24.412,168.918 27.568,162.5 C29.46,158.65 31.007,155.118 31.004,154.651 C31,153.781 32.314,150.634 36.706,141 C38.086,137.975 39.562,134.6 39.987,133.5 C40.413,132.4 41.536,129.475 42.483,127 C43.43,124.525 44.609,121.719 45.103,120.764 C45.596,119.809 46,118.348 46,117.518 C46,116.014 49.145,106.204 51.456,100.5 C54.69,92.515 56.691,85.975 58.032,79 C60.069,68.404 61.089,63.855 63.91,52.769 C66.541,42.432 67.354,37.73 68.405,26.763 C68.549,25.257 69.487,23.12 70.488,22.013 Z M174.388,146.75 C173.575,150.187 170.924,153.185 164.4,158.043 L159.3,161.841 L158.208,172.171 C157.608,177.852 156.978,186.236 156.808,190.803 L156.5,199.106 L163,198.43 C166.575,198.058 169.838,197.558 170.25,197.318 C170.662,197.078 171,194.685 171,192 C171,189.315 171.384,186.881 171.852,186.591 C172.321,186.302 172.99,183.013 173.339,179.282 C175.339,157.923 176.165,151.849 177.508,148.634 C179.403,144.099 179.393,144 177.019,144 C175.682,144 174.827,144.894 174.388,146.75 Z M142,166.891 C140.075,167.904 137.15,169.371 135.5,170.15 C132.822,171.415 132.42,172.207 131.752,177.533 C130.52,187.372 129.892,203.815 130.729,204.332 C131.159,204.598 134.505,204.144 138.165,203.323 L144.82,201.83 L146.89,196.165 C148.487,191.793 149.021,187.647 149.23,178 C149.486,166.14 149.398,165.488 147.5,165.274 C146.4,165.149 143.925,165.877 142,166.891 Z M164.5,116.842 C158.876,120.28 158.625,121.07 158.56,135.581 C158.514,145.905 158.798,149 159.79,149 C161.873,149 167.076,144.729 168.623,141.75 C169.817,139.451 170.703,139 174.026,139 L178,139 L178,131.338 C178,124.935 177.582,122.963 175.458,119.338 C172.552,114.38 169.62,113.712 164.5,116.842 Z"/>
</svg>

