<svg xmlns="http://www.w3.org/2000/svg" width="300" height="300" viewBox="0 0 300 300" version="1.1">
  <defs/>
  <path d="M154,103.362 C155.925,102.697 159.729,102.119 162.452,102.077 C166.722,102.011 167.86,102.441 170.702,105.196 C172.516,106.954 174,109.403 174,110.637 C174,111.872 174.505,113.194 175.122,113.575 C175.892,114.051 176.127,118.532 175.872,127.884 L175.5,141.5 L179.5,141.352 C181.7,141.271 188.225,140.494 194,139.624 C206.695,137.713 221.101,137.501 222.8,139.2 C224.37,140.77 224.34,144.669 222.75,145.664 C222.063,146.095 218.787,146.31 215.471,146.144 C212.155,145.977 204.505,146.738 198.471,147.834 C192.437,148.93 185.132,150.108 182.238,150.45 C174.74,151.337 174,151.78 174,155.384 C174,157.128 173.381,159.443 172.625,160.527 C171.868,161.612 171.014,164.3 170.727,166.5 C169.873,173.035 168.292,178.02 166.412,180.097 C163.76,183.028 165.703,184.29 171.09,183.133 C180.439,181.126 200.094,179.777 213.5,180.223 C228.526,180.722 230.47,181.141 232.128,184.239 C232.985,185.841 232.799,186.646 231.199,188.245 C229.347,190.098 228.804,190.153 223.915,188.98 C216.941,187.307 201.054,188.138 176,191.487 C152.834,194.583 148.54,195.06 136,195.929 C129.125,196.405 119.536,197.337 114.691,197.999 C106.672,199.095 105.708,199.046 103.941,197.447 C97.792,191.882 105.201,188.33 125.29,187.21 C133.412,186.757 140.498,185.902 141.098,185.302 C141.881,184.519 141.879,183.643 141.093,182.173 C140.492,181.05 140,175.432 140,169.688 C140,162.542 139.605,158.924 138.75,158.23 C137.471,157.191 126.727,159.291 116.783,162.525 C112.904,163.786 111.704,163.832 110.022,162.782 C107.153,160.99 106.517,158.192 108.484,156.018 C110.227,154.092 121.962,150.592 130.5,149.451 C139.766,148.213 140.5,146.963 141.637,130.5 C141.941,126.1 142.597,122.073 143.095,121.55 C144.353,120.23 144.225,119 142.83,119 C142.186,119 138.562,120.428 134.776,122.173 L127.892,125.346 L125.276,122.73 C122.974,120.428 122.829,119.911 124.068,118.418 C125.501,116.692 147.629,105.561 154,103.362 Z M71.425,110.083 C74.633,106.538 78,108.127 78,113.186 C78,115.328 77.076,116.583 74,118.619 C69.582,121.542 69.532,121.665 71.093,125.685 C71.695,127.233 72.64,134.575 73.195,142 C74.373,157.763 74.376,158.037 73.449,164.25 C72.79,168.664 72.892,169 74.891,169 C77.197,169 78.22,167.172 79.645,160.5 C80.443,156.768 80.732,156.5 83.962,156.5 C86.646,156.5 87.75,157.082 88.879,159.093 C90.266,161.565 90.153,162.591 88.116,166 C87.623,166.825 86.383,169.226 85.36,171.335 C84.337,173.444 81.233,177.944 78.461,181.335 C69.443,192.369 66,197.256 66,199.022 C66,200.633 66.48,200.657 72.75,199.372 C76.463,198.611 82.099,197.032 85.276,195.863 C90.831,193.818 91.127,193.805 93.026,195.523 C95.671,197.917 95.541,201.616 92.75,203.359 C90.488,204.771 88.296,205.484 69,211.083 C63.225,212.759 56.203,214.832 53.395,215.689 C46.73,217.725 42.664,216.165 42.198,211.392 C41.93,208.654 42.735,207.563 49.198,201.899 C57.668,194.476 62.944,188.944 62.977,187.451 C62.99,186.835 61.532,186.573 59.447,186.816 C52.994,187.57 41,181.26 41,177.111 C41,172.214 46.492,171.737 51.568,176.194 C54.506,178.774 56.097,179.398 59.852,179.444 L64.5,179.5 L64.783,168.231 C65.114,155.027 64.493,154.182 57.941,158.928 C52.889,162.587 51.615,162.716 49.557,159.777 C47.145,156.335 47.626,155.212 52.9,151.967 C55.594,150.309 58.969,147.418 60.4,145.543 C62.7,142.527 63,141.209 63,134.13 L63,126.127 L59.75,125.813 C57.096,125.557 56.445,125.025 56.199,122.908 C55.868,120.06 60.12,116.101 66.271,113.531 C68.069,112.78 70.389,111.228 71.425,110.083 Z M67.536,42.96 C69.735,40.53 71.884,40.442 72.622,42.75 C72.93,43.712 73.65,45.482 74.224,46.683 C75.017,48.345 74.728,50.73 73.009,56.683 C69.176,69.96 69.217,71.153 73.602,74.028 C75.675,75.388 78.705,78.684 80.334,81.354 C83.023,85.759 83.214,86.635 82.398,90.846 C81.259,96.727 78.703,97.609 76.688,92.815 C75.167,89.196 69.801,83 68.188,83 C67.118,83 63,90.801 63,92.829 C63,93.488 62.604,94.809 62.121,95.764 C61.637,96.719 60.449,99.975 59.481,103 C58.513,106.025 57.333,108.927 56.86,109.45 C56.387,109.972 56,110.994 56,111.72 C56,112.446 54.875,114.822 53.5,117 C52.125,119.178 51,121.65 51,122.494 C51,123.337 50.612,124.809 50.138,125.764 C45.67,134.765 43.971,138.768 43.984,140.264 C44,142.035 43.746,142.69 40.669,148.831 C39.751,150.663 39,153.026 39,154.081 C39,155.136 38.55,156 38,156 C37.45,156 37,156.689 37,157.532 C37,158.374 35.425,162.31 33.5,166.278 C31.575,170.246 30,174.256 30,175.188 C30,176.119 29.578,177.142 29.063,177.461 C27.984,178.128 25,183.848 25,185.249 C25,185.767 23.988,187.591 22.75,189.302 C21.513,191.013 19.82,194.007 18.988,195.956 C13.411,209.025 5,215.618 5,206.921 C5,205.293 6.036,202.282 7.302,200.23 C9.564,196.564 21.49,172.416 22.971,168.5 C24.204,165.241 33.174,145.466 35.098,141.764 C35.594,140.809 36,139.176 36,138.136 C36,137.096 36.675,135.685 37.5,135 C38.325,134.315 39,132.937 39,131.937 C39,130.936 39.45,129.84 40,129.5 C40.55,129.16 41,127.87 41,126.632 C41,125.395 41.661,123.509 42.468,122.441 C43.276,121.374 43.951,119.808 43.968,118.961 C43.986,118.115 44.9,115.658 46,113.5 C47.1,111.342 48,108.633 48,107.48 C48,106.326 48.661,104.509 49.468,103.441 C50.276,102.374 50.951,100.481 50.968,99.236 C50.986,97.991 51.39,96.191 51.866,95.236 C53.273,92.415 55.191,86.706 55.73,83.738 C56.005,82.219 56.629,80.729 57.115,80.429 C57.602,80.128 58,78.585 58,77 C58,75.415 58.45,73.84 59,73.5 C59.55,73.16 60,71.645 60,70.132 C60,68.62 60.661,66.509 61.468,65.441 C62.3,64.342 62.95,61.29 62.968,58.405 C62.992,54.622 63.511,52.848 64.984,51.515 C66.367,50.263 66.785,48.992 66.365,47.319 C65.971,45.747 66.375,44.244 67.536,42.96 Z M151.25,114.973 C148.912,116.034 147,117.245 147,117.664 C147,118.082 148.228,119.404 149.729,120.601 C152.186,122.56 152.331,123.013 151.185,125.155 C150.361,126.694 150.015,130.53 150.206,136.017 L150.5,144.5 L157,144.25 C160.575,144.113 164.063,143.79 164.75,143.532 C165.665,143.189 166,139.454 166,129.603 C166,114.351 165.438,112.985 159.179,113.022 C157.155,113.034 153.588,113.912 151.25,114.973 Z M156.235,154.039 C153.889,154.513 151.526,155.175 150.985,155.509 C150.41,155.865 150,162.332 150,171.059 L150,186 L152.773,186 C154.908,186 155.91,185.254 157.132,182.75 C161.574,173.654 164.239,164.739 165.276,155.5 C165.54,153.139 162.845,152.704 156.235,154.039 Z"/>
</svg>

