<svg xmlns="http://www.w3.org/2000/svg" width="300" height="300" viewBox="0 0 300 300" version="1.1">
  <defs/>
  <path d="M144.117,19 C148.077,15 149.904,14.476 154.96,15.885 C156.998,16.454 157.451,17.251 157.6,20.536 C157.796,24.841 155.798,29 153.534,29 C151.656,29 149.009,32.859 149.682,34.615 C150.512,36.777 152.374,36.262 155.493,33.008 C157.962,30.431 159.009,30.044 163.044,30.219 C167.477,30.412 167.851,30.656 170.033,34.768 C171.784,38.07 172.283,40.472 172.109,44.777 C171.983,47.892 171.39,51.03 170.793,51.75 C170.032,52.667 170.016,53.741 170.741,55.331 C171.631,57.284 171.299,58.058 168.388,60.828 C165.769,63.32 165,64.864 165,67.63 C165,69.599 163.834,73.525 162.409,76.355 C160.184,80.773 159.868,82.516 160.175,88.683 C160.371,92.633 160.848,96.182 161.235,96.568 C161.621,96.955 162.964,96.522 164.219,95.607 C165.473,94.692 168.3,92.617 170.5,90.996 C176.289,86.73 182.811,83.478 188.265,82.136 C192.434,81.11 193.563,81.206 197.29,82.904 C203.436,85.704 205.04,87.993 206.605,96.196 C208.767,107.535 208.48,113.201 205.605,115.901 C203.622,117.765 203.301,118.828 203.74,122.098 C204.1,124.781 203.795,126.598 202.789,127.772 C201.442,129.344 199.193,133.928 196.176,141.25 C195.553,142.762 194.339,144 193.48,144 C192.525,144 190.804,146.48 189.056,150.374 C186.271,156.583 181.661,161.397 177.77,162.16 C175.127,162.679 170.679,159.226 168.67,155.094 C166.182,149.979 166.675,142.5 169.5,142.5 C170.874,142.5 171.608,143.282 171.846,145 C172.244,147.879 173.743,150.002 175.372,149.995 C176.474,149.99 186,135.722 186,134.076 C186,133.619 186.675,132.685 187.5,132 C188.325,131.315 189,129.894 189,128.842 C189,127.79 189.657,125.928 190.459,124.703 C192.968,120.874 196.334,108.731 196.382,103.335 C196.443,96.578 194.542,93 190.89,93 C189.365,93 187.871,93.399 187.57,93.887 C187.269,94.374 185.493,95.06 183.625,95.411 C181.756,95.761 178.194,97.837 175.71,100.024 C173.226,102.211 170.362,104.01 169.347,104.022 C168.331,104.034 166.555,104.822 165.401,105.772 C161.906,108.649 160.9,118.443 160.912,149.5 C160.918,163.149 161.739,174.981 162.767,176.22 C163.749,177.403 163.672,178.35 162.382,180.936 C161.067,183.572 160.664,189.112 160.209,210.836 C159.72,234.112 159.684,249.6 160.086,263.275 C160.275,269.725 154.214,275.879 150.172,273.342 C148.01,271.984 146.65,252.408 148.551,250 C149.796,248.424 150.918,231.692 151.704,203 C151.952,193.925 152.344,179.975 152.574,172 C152.849,162.501 152.6,156.532 151.852,154.694 C150.997,152.591 150.998,151.602 151.856,150.744 C152.485,150.115 153,148.115 153,146.3 C153,141.811 150.346,141.927 148.436,146.5 C147.631,148.425 146.551,150 146.035,150 C144.984,150 139,158.335 139,159.798 C139,160.313 137.088,163.652 134.75,167.218 C130.289,174.023 128.008,177.726 124.195,184.354 C122.927,186.558 120.942,189.183 119.784,190.188 C118.625,191.193 117.187,192.835 116.589,193.838 C112.565,200.576 107.132,207.647 101.545,213.416 C97.797,217.288 95.424,220.744 93.113,225.7 C92.485,227.048 90.545,228.315 88.104,228.972 C85.617,229.642 83.885,230.787 83.493,232.022 C82.783,234.26 81.742,234.467 78.886,232.939 C75.991,231.39 74.594,227.128 76.32,225.11 C77.077,224.225 77.975,222.713 78.317,221.75 C78.658,220.787 79.819,220 80.896,220 C83.107,220 86.746,215.859 87.63,212.338 C87.953,211.052 88.829,210 89.577,210 C90.325,210 92.785,207.498 95.045,204.439 C97.304,201.381 99.776,198.639 100.538,198.347 C101.3,198.054 102.162,197.066 102.452,196.151 C102.742,195.236 105.005,191.79 107.48,188.494 C109.954,185.197 111.984,182.148 111.989,181.717 C111.995,181.286 113.575,179.358 115.5,177.433 C117.425,175.508 119.02,173.161 119.043,172.217 C119.091,170.32 121.421,166.276 127.586,157.39 C129.833,154.15 133.197,148.575 135.062,145 C136.927,141.425 138.698,138.275 138.999,138 C140.555,136.577 142.753,132.121 143.314,129.25 C143.837,126.578 143.638,126 142.198,126 C139.799,126 136,128.794 136,130.557 C136,131.423 135.017,132 133.539,132 C132.185,132 130.273,132.843 129.289,133.873 C125.068,138.292 118.044,140.164 113.934,137.965 C111.149,136.474 111.384,129.796 114.443,123.516 C117.832,116.559 119.6,112.214 121.067,107.238 C121.758,104.894 122.926,102.476 123.662,101.866 C124.398,101.255 125,99.74 125,98.5 C125,97.26 125.675,95.685 126.5,95 C127.325,94.315 128,92.685 128,91.378 C128,89.034 131.118,85 132.929,85 C134.235,85 145.288,77.562 146.94,75.572 C148.073,74.207 148.095,72.741 147.07,67.003 C146.389,63.195 146.124,59.608 146.481,59.031 C147.862,56.796 145.924,54 142.992,54 C141.411,54 139.84,54.45 139.5,55 C138.417,56.752 133.71,56.076 131.314,53.826 C128.584,51.26 128.122,44.973 130.518,42.985 C131.354,42.292 132.752,40.218 133.625,38.378 L135.213,35.031 L130.607,29.907 C125.728,24.481 125.429,23.631 126.975,19.565 C128.346,15.96 132.231,16.155 135.658,20 C137.128,21.65 138.742,23 139.244,23 C139.746,23 141.939,21.2 144.117,19 Z M67.863,96.991 C70.788,93.287 72.522,93.21 74.353,96.705 C75.769,99.406 75.74,99.604 72.938,106.5 C71.222,110.725 70.87,113.14 71.804,114.298 C72.338,114.959 73.09,117.415 73.476,119.756 C73.862,122.096 74.953,124.571 75.9,125.256 C78.842,127.381 78.987,128.528 76.981,133.809 C75.911,136.625 75.301,139.62 75.625,140.464 C75.949,141.309 75.891,142.787 75.495,143.75 C75.1,144.713 74.697,148.762 74.601,152.75 C74.471,158.087 74.764,160 75.712,160 C76.421,160 77.01,159.213 77.022,158.25 C77.034,157.287 77.924,155.375 79,154 C80.076,152.625 80.966,150.297 80.978,148.827 C81.006,145.456 85.507,140 88.26,140 C93.503,140 95.764,146.493 91.939,150.565 C89.566,153.091 86.978,157.383 83.537,164.5 C82.207,167.25 80.196,170.85 79.066,172.5 C77.937,174.15 77.01,176.371 77.007,177.436 C77.003,178.5 76.043,180.39 74.873,181.635 C70.621,186.162 75.606,189.028 80.727,185 C82.126,183.9 84.091,183 85.094,183 C86.098,183 88.048,181.783 89.427,180.295 C91.607,177.944 92.298,177.722 94.717,178.596 C96.663,179.299 97.411,180.187 97.204,181.55 C97.042,182.623 96.735,185.232 96.522,187.349 C96.309,189.466 95.992,191.301 95.818,191.427 C95.643,191.553 93.925,192.803 92,194.204 C90.075,195.605 86.803,197.055 84.729,197.425 C82.654,197.796 79.44,199.431 77.586,201.059 C75.641,202.766 73.578,203.775 72.711,203.442 C71.857,203.115 70.622,203.689 69.854,204.771 C69.109,205.819 67.181,207.003 65.569,207.403 C63.958,207.802 59.981,210.35 56.732,213.064 C50.573,218.21 47.107,219.156 43.75,216.608 C42.632,215.76 42,213.929 42,211.542 C42,208.256 42.726,207.133 48,202.259 C51.3,199.21 54,196.276 54,195.739 C54,195.203 55.35,193.226 57,191.347 C58.65,189.468 60,187.523 60,187.024 C60,186.526 56.962,183.618 53.25,180.562 C49.538,177.506 44.568,172.761 42.207,170.017 C37.747,164.835 37.609,163.229 41.358,160.118 C43.219,158.573 50,161.126 50,163.372 C50,164.183 51.737,166.568 53.859,168.673 C55.982,170.778 58.248,173.512 58.894,174.75 C60.15,177.152 61.615,177.53 63.95,176.052 C65.068,175.345 65.449,172.315 65.613,162.817 C65.884,147.126 64.319,144.788 57.696,150.995 C55.658,152.905 54.735,153.789 53.805,153.796 C52.998,153.802 52.186,153.147 50.635,151.927 C46.021,148.298 48.026,143.208 54.878,141.155 C57.086,140.493 59.843,138.744 61.004,137.268 C62.848,134.923 63.034,133.758 62.478,128.042 C61.864,121.739 61.655,121.332 56.744,116.902 L51.647,112.305 L53.891,109.152 C55.126,107.419 56.552,106 57.06,106 C57.569,106 59.187,104.65 60.658,103 C62.128,101.35 63.819,99.996 64.415,99.991 C65.012,99.986 66.563,98.636 67.863,96.991 Z M64.239,16.713 C65.729,14.583 66.698,14.081 68.345,14.587 C69.53,14.951 70.513,15.305 70.53,15.374 C70.546,15.443 71.333,17.203 72.28,19.284 C74.126,23.344 74.577,29.526 73.094,30.442 C72.595,30.75 71.884,33.364 71.514,36.251 C70.867,41.292 69.847,45.346 67.739,51.251 C66.63,54.358 68.084,57 70.904,57 C72.643,57 82.612,66.887 84.755,70.736 C86.446,73.775 86.336,74.609 83.947,76.834 C82.818,77.886 81.551,80.041 81.13,81.623 C80.256,84.913 77.465,85.792 74.584,83.685 C72.939,82.482 72.817,81.764 73.68,78.363 C74.941,73.396 74.472,72.256 69.246,67.573 C65.722,64.415 64.736,63.974 63.496,65.003 C62.673,65.686 62,67.513 62,69.063 C62,70.614 61.55,72.16 61,72.5 C60.45,72.84 60,74.126 60,75.359 C60,76.592 59.515,78.085 58.922,78.678 C58.33,79.27 57.404,81.498 56.865,83.628 C56.327,85.757 55.438,89.282 54.891,91.461 C54.343,93.639 53.539,95.889 53.103,96.461 C52.667,97.032 51.729,99.649 51.018,102.276 C50.307,104.902 49.337,107.291 48.863,107.585 C48.388,107.878 47.984,109.329 47.965,110.809 C47.945,112.289 47.286,114.625 46.5,116 C45.714,117.375 45.055,120.004 45.035,121.842 C45.016,123.681 44.1,126.329 43,127.727 C41.9,129.126 40.997,131.222 40.994,132.385 C40.99,133.548 40.315,135.789 39.494,137.364 C38.672,138.94 38,141.051 38,142.055 C38,143.06 37.55,144.16 37,144.5 C36.45,144.84 36,146.116 36,147.337 C36,148.557 35.384,150.443 34.63,151.527 C33.877,152.612 33.032,155.075 32.753,157 C32.473,158.925 30.84,164.321 29.122,168.992 C27.405,173.662 26,178.41 26,179.542 C26,180.674 25.642,182.028 25.204,182.55 C24.766,183.073 23.811,185.3 23.081,187.5 C22.351,189.7 21.194,192.175 20.51,193 C19.826,193.825 18.982,196.373 18.635,198.662 C18.288,200.951 17.104,204.926 16.002,207.495 C14.901,210.064 14,213.029 14,214.083 C14,215.137 13.534,216 12.964,216 C11.806,216 8.098,223.885 7.087,228.5 C6.536,231.014 5.884,231.553 3.059,231.825 L-0.311,232.15 L0.327,222.422 C0.757,215.878 1.463,212.146 2.483,211.019 C3.317,210.097 4,208.903 4,208.366 C4,207.828 5.125,205.864 6.5,204 C7.875,202.136 9,199.6 9,198.365 C9,197.129 9.415,195.861 9.923,195.548 C10.431,195.234 11.163,193.534 11.55,191.771 C12.216,188.742 12.573,187.835 15,183.014 C15.55,181.921 16,179.923 16,178.573 C16,177.223 16.45,175.84 17,175.5 C17.55,175.16 18,173.585 18,172 C18,170.415 18.45,168.84 19,168.5 C19.55,168.16 20,166.874 20,165.641 C20,164.408 20.542,162.858 21.204,162.196 C22.354,161.046 23.007,159.115 26.846,145.5 C27.776,142.2 28.826,139.047 29.178,138.492 C29.53,137.938 30.135,135.796 30.523,133.732 C30.91,131.667 32.076,128.313 33.113,126.278 C34.151,124.242 35,121.96 35,121.207 C35,119.911 39.167,106.812 40.952,102.5 C41.407,101.4 42.556,97.575 43.506,94 C44.456,90.425 45.795,85.925 46.481,84 C47.168,82.075 48.275,78.025 48.94,75 C50.6,67.458 52.664,61.542 55.622,55.846 C56.38,54.386 57,52.098 57,50.762 C57,49.426 57.322,48.012 57.715,47.618 C59.142,46.191 60.956,37.3 61.615,28.5 C62.1,22.017 62.834,18.72 64.239,16.713 Z M144,88.607 C144,89.49 141.841,92.303 139.203,94.857 C136.564,97.411 133.531,101.3 132.463,103.5 C131.395,105.7 129.7,108.459 128.697,109.632 C127.394,111.155 126.963,113.009 127.187,116.123 C127.628,122.264 129.817,122.309 136.822,116.32 C139.945,113.651 144.188,110.214 146.25,108.682 L150,105.898 L149.968,98.199 C149.935,90.209 148.695,87 145.64,87 C144.738,87 144,87.723 144,88.607 Z M156,52.927 C156,55.717 156.395,58 156.878,58 C160.244,58 161.061,48.812 157.75,48.185 C156.27,47.904 156,48.635 156,52.927 Z"/>
</svg>

