<svg xmlns="http://www.w3.org/2000/svg" width="300" height="300" viewBox="0 0 300 300" version="1.1">
  <defs/>
  <path d="M173.914,41.988 C176.39,40.54 177.755,40.821 180.01,43.241 C181.888,45.257 182.038,46.286 181.504,53.491 C181.177,57.896 180.667,62.471 180.37,63.657 C179.648,66.541 181.614,70 183.976,70 C185.024,70 186.124,70.392 186.42,70.871 C186.716,71.35 188.205,71.994 189.729,72.301 C193.396,73.042 199,78.631 199,81.549 C199,83.275 197.904,84.407 194.671,86.022 C189.447,88.63 185.959,88.324 184.365,85.115 C182.758,81.879 181.247,81.108 178.132,81.936 C175.826,82.549 175.436,83.267 174.98,87.735 C174.694,90.54 173.744,93.659 172.868,94.667 C171.631,96.091 171.315,98.519 171.453,105.547 C171.551,110.523 171.966,115.137 172.376,115.8 C173.337,117.354 175.834,116.056 179.643,112.021 C181.211,110.359 183.002,109 183.624,109 C184.246,109 185.314,108.327 185.996,107.505 C186.679,106.682 189.024,105.474 191.209,104.819 C193.393,104.165 196.376,102.363 197.837,100.815 C199.298,99.267 201.227,98 202.124,98 C204.168,98 206.273,100.448 205.833,102.313 C205.352,104.347 186.498,120.981 179.857,125.228 C176.757,127.211 173.953,129.267 173.626,129.796 C173.299,130.325 173.006,142.85 172.975,157.629 C172.944,172.408 172.903,185.625 172.884,187 C172.76,195.991 173.078,200.276 173.996,201.993 C174.747,203.397 174.71,204.491 173.865,205.845 C171.581,209.502 173.236,210.545 181.634,210.738 C191.538,210.965 217.121,212.873 227,214.121 C231.125,214.643 236.963,215.266 239.973,215.508 C242.983,215.749 250.055,216.669 255.689,217.553 C261.324,218.436 266.421,218.858 267.017,218.49 C268.347,217.667 274.602,220.517 275.26,222.245 C276.485,225.464 271.104,232.119 268.769,230.274 C268.071,229.723 263.519,229.004 258.653,228.678 C253.787,228.351 249.149,227.539 248.346,226.873 C247.544,226.206 244.588,225.714 241.779,225.778 C238.969,225.842 235.838,225.448 234.82,224.904 C233.802,224.359 227.914,223.747 221.735,223.545 C215.556,223.342 202.4,222.886 192.5,222.53 C172.366,221.807 142.102,224.047 135,226.787 C133.625,227.318 130.025,228.075 127,228.47 C123.975,228.865 120.15,229.964 118.5,230.912 C111.952,234.676 108.992,233.849 107.491,227.837 C106.475,223.763 109.376,221.619 118.052,220.037 C122.149,219.289 125.95,218.349 126.5,217.947 C127.726,217.052 135.841,215.45 146.5,214.001 C150.9,213.402 155.4,212.506 156.5,212.008 C157.6,211.51 159.282,210.967 160.237,210.802 C161.8,210.53 162.03,208.399 162.536,189.5 C163.409,156.883 163.143,139.81 161.739,138.405 C160.726,137.393 153.318,139.991 151.504,141.996 C150.506,143.098 148.972,144.014 148.095,144.032 C147.218,144.049 145.626,144.724 144.559,145.532 C143.491,146.339 141.941,147 141.114,147 C140.286,147 138.345,148.211 136.8,149.691 C134.437,151.956 133.571,152.233 131.349,151.441 C124.391,148.962 126.192,143.377 135.542,138.436 C138.862,136.682 143.36,134.927 145.539,134.535 C147.718,134.144 152.2,132.168 155.5,130.144 C161.012,126.764 161.53,126.141 161.866,122.483 C162.428,116.366 160.014,76.14 158.747,70.5 C158.129,67.75 157.596,61.161 157.562,55.858 C157.51,47.726 157.798,45.886 159.405,44.108 C163.735,39.316 166.474,42.678 166.574,52.906 C166.704,66.13 166.922,68 168.331,68 C170.991,68 172.231,63.306 172.28,53.057 C172.319,44.89 172.637,42.735 173.914,41.988 Z M85.785,93.5 C90.017,90.624 92.227,90.364 94.024,92.529 C95.072,93.792 94.939,94.446 93.262,96.279 C92.144,97.501 90.919,99.524 90.539,100.777 C90.159,102.029 88.736,103.782 87.377,104.673 C85.319,106.021 85.014,106.811 85.553,109.396 C85.909,111.103 87.246,113.498 88.523,114.719 C92.051,118.09 92.541,120.795 90.094,123.4 C88.446,125.154 88,126.915 88,131.664 C88,142.389 89.221,153 90.454,153 C91.638,153 93.769,148.668 96.11,141.5 C98.456,134.32 100.099,133.51 105.096,137.068 C108.631,139.586 108.745,141.859 105.588,146.861 C104.261,148.963 102.611,152.666 101.92,155.091 C101.23,157.516 99.681,160.625 98.479,162 C97.277,163.375 95.996,165.175 95.634,166 C95.271,166.825 93.855,169.483 92.487,171.907 C91.119,174.331 90,177.144 90,178.157 C90,180.414 93.228,180.635 95,178.5 C95.839,177.488 98.097,177 101.931,177 C105.383,177 108.381,176.423 109.559,175.532 C110.626,174.724 112.753,174.049 114.285,174.032 C117.188,173.999 122,176.562 122,178.142 C122,180.07 115.581,186 113.494,186 C112.293,186 110.525,186.867 109.566,187.927 C108.607,188.987 105.949,190.161 103.661,190.536 C101.372,190.911 98.731,191.897 97.79,192.727 C96.685,193.703 95.169,194.008 93.503,193.59 C91.434,193.071 89.976,193.745 86.101,197.012 C83.338,199.341 79.806,201.32 77.839,201.639 C73.516,202.34 65.227,208.274 63.977,211.561 C63.182,213.65 62.591,213.941 60.266,213.389 C56.463,212.485 54.663,210.722 53.084,206.355 C51.606,202.268 51.876,201.851 58.64,197.779 C68.444,191.877 71,189.904 71,188.237 C71,187.342 72.183,185.374 73.63,183.864 C76.664,180.697 76.235,178 72.695,178 C71.218,178 69.04,176.566 66.901,174.182 C65.016,172.082 62.75,169.945 61.867,169.432 C59.93,168.309 56,160.81 56,158.24 C56,155.619 57.963,154 61.143,154 C63.903,154 67,157.064 67,159.793 C67,162.024 75.171,171 77.202,171 C78.973,171 79.049,170.38 78.414,161.164 C77.945,154.347 78.117,150.175 78.976,147.572 C80.908,141.719 78.985,140.877 73.99,145.39 C68.461,150.385 66.1,151.369 62.722,150.084 C60.688,149.311 60,148.368 60,146.353 C60,143.327 62.527,140 64.826,140 C65.659,140 68.791,137.412 71.784,134.25 L77.228,128.5 L76.72,122.144 C76.281,116.633 75.8,115.41 73.107,112.95 C68.587,108.822 69.061,106.346 75.442,100.75 C78.421,98.138 81.139,96 81.482,96 C81.825,96 83.762,94.875 85.785,93.5 Z M81.129,19.345 C82.359,17.862 85.604,18.371 87.738,20.381 C88.419,21.022 89.401,23.787 89.92,26.524 C90.656,30.408 90.546,31.991 89.418,33.736 C88.623,34.966 87.688,38.692 87.34,42.017 C86.993,45.342 86.324,48.3 85.854,48.59 C84.189,49.619 84.913,54 86.75,54.005 C88.915,54.012 97.63,62.896 98.996,66.489 C100.548,70.571 100.197,73.512 97.91,75.581 C97.29,76.142 96.841,76.553 96.337,76.635 C94.975,76.858 93.22,74.674 86.652,66.531 C85.085,64.589 83.51,63.019 83.152,63.042 C81.743,63.134 77.97,70.331 78.483,71.948 C78.798,72.94 78.203,74.411 77.073,75.434 C75.83,76.559 74.873,79.172 74.442,82.615 C74.071,85.591 73.369,88.272 72.883,88.572 C72.397,88.872 72,89.811 72,90.658 C72,91.505 71.279,93.841 70.398,95.849 C69.517,97.857 68.448,100.4 68.023,101.5 C67.597,102.6 66.79,104.656 66.229,106.069 C65.667,107.482 65.429,109.791 65.698,111.202 C65.968,112.612 65.696,114.07 65.094,114.442 C64.492,114.814 64,115.936 64,116.937 C64,117.937 63.375,119.274 62.611,119.907 C61.848,120.541 60.902,123.634 60.51,126.78 C60.117,129.936 58.499,134.965 56.901,138 C55.308,141.025 54.003,144.486 54.002,145.691 C54.001,146.896 53.55,148.16 53,148.5 C52.45,148.84 52,150.191 52,151.502 C52,152.813 51.133,155.374 50.073,157.193 C49.014,159.012 47.838,162.192 47.46,164.261 C47.082,166.33 46.374,168.269 45.887,168.57 C45.399,168.871 45,169.936 45,170.937 C45,171.937 44.325,173.315 43.5,174 C42.675,174.685 42,176.288 42,177.563 C42,178.839 41.55,180.16 41,180.5 C40.45,180.84 40,182.791 40,184.837 C40,186.882 39.38,189.443 38.623,190.527 C37.866,191.612 36.232,195.65 34.992,199.5 C33.752,203.35 32.388,207.4 31.962,208.5 C31.535,209.6 30.443,212.488 29.534,214.917 C28.626,217.346 27.009,220.444 25.941,221.802 C24.874,223.159 24,225.078 24,226.067 C24,227.81 20.26,231.041 16.799,232.287 C15.848,232.63 14.226,232.15 13.121,231.2 C11.157,229.512 11.16,229.469 13.523,225 C14.831,222.525 16.427,219.375 17.07,218 C21.491,208.543 23,204.989 23,204.034 C23,203.434 24.537,199.693 26.417,195.722 C28.296,191.75 30.158,186.7 30.555,184.5 C30.952,182.3 32.115,179.306 33.139,177.846 C34.162,176.386 35,174.205 35,173 C35,171.795 35.62,169.614 36.378,168.154 C38.419,164.225 39.637,161.024 41.002,156.008 C41.675,153.538 42.849,150.625 43.613,149.536 C44.376,148.446 45,146.675 45,145.598 C45,143.418 46.526,138.2 48.62,133.216 C49.379,131.41 50,128.907 50,127.654 C50,126.401 50.9,123.513 52,121.236 C53.1,118.959 54,116.201 54,115.107 C54,114.013 54.411,112.864 54.913,112.554 C55.415,112.243 56.147,110.079 56.538,107.745 C56.93,105.41 57.869,102.612 58.625,101.527 C59.381,100.443 60,98.557 60,97.337 C60,96.116 60.386,94.88 60.857,94.588 C61.329,94.297 62.292,91.233 62.999,87.779 C63.705,84.326 64.67,81.073 65.142,80.55 C65.614,80.028 66.014,78.228 66.032,76.55 C66.049,74.873 66.724,72.626 67.532,71.559 C68.339,70.491 69,68.155 69,66.368 C69,64.58 69.45,62.84 70,62.5 C70.55,62.16 71,61.094 71,60.131 C71,59.167 72.102,55.567 73.45,52.129 C76.155,45.226 76.505,43.716 78.559,30.117 C79.338,24.957 80.494,20.109 81.129,19.345 Z M140.188,29.274 C141.574,27.603 144.464,27.649 145.888,29.365 C146.51,30.115 146.959,32.478 146.885,34.615 C146.588,43.201 143.702,63.685 142.391,66.516 C141.623,68.174 140.883,71.309 140.747,73.481 C140.528,76.987 140.784,77.491 143.028,77.965 C146.84,78.771 154,84.972 154,87.467 C154,88.64 154.485,90.085 155.078,90.678 C155.671,91.271 156.009,93.049 155.828,94.628 C155.553,97.032 154.987,97.55 152.353,97.806 C149.649,98.068 148.595,97.401 144.853,93.056 C140.428,87.917 138,86.699 138,89.618 C138,90.508 136.65,92.774 135,94.653 C133.35,96.532 132,99.199 132,100.58 C132,104.105 127.647,108.211 124.332,107.815 C120.053,107.303 119.362,104.95 121.93,99.645 C123.164,97.096 124.525,94.794 124.955,94.528 C125.385,94.262 126.05,91.222 126.434,87.772 C126.817,84.323 128.001,80.012 129.065,78.193 C130.169,76.306 131,73.031 131,70.565 C131,68.073 131.595,65.751 132.407,65.078 C133.18,64.436 134.048,61.793 134.335,59.205 C135.373,49.858 139.154,30.519 140.188,29.274 Z"/>
</svg>

