<svg xmlns="http://www.w3.org/2000/svg" width="300" height="300" viewBox="0 0 300 300" version="1.1">
  <defs/>
  <path d="M163.2,53.2 C164.742,51.658 168.665,51.65 169.616,53.187 C170.019,53.84 170.248,58.34 170.123,63.187 C169.862,73.371 170.558,73.964 177.291,69.298 C180.931,66.776 181.367,66.695 183.845,68.08 C189.849,71.434 186.1,78.895 177.28,81.145 C170.53,82.868 170.388,83.355 172.389,98.017 C173.354,105.095 174.536,116.425 175.014,123.193 C178.452,171.824 178.74,181.854 177.033,193.5 C176.095,199.907 176.182,200.737 178.064,203.291 C179.376,205.072 180.008,207.231 179.81,209.256 C179.524,212.185 179.037,212.575 173.5,214.311 C170.2,215.345 163.521,216.381 158.657,216.612 C153.793,216.844 148.692,217.622 147.32,218.34 C143.447,220.37 138.28,218.378 136.948,214.343 C135.821,210.929 134.259,209.88 131.346,210.581 C130.331,210.826 128.825,210.586 128,210.048 C125.852,208.647 125.996,205.718 130.138,166.5 C130.719,161 131.169,145.059 131.137,131.076 C131.089,109.84 130.832,105.404 129.577,104.148 C128.346,102.917 127.598,102.862 125.446,103.843 C119.587,106.512 110.586,109.09 108.121,108.804 C105.726,108.526 105.5,108.112 105.5,104 L105.5,99.5 L116.106,96 C130.113,91.377 130.189,91.305 129.37,83.303 C128.715,76.918 130.247,66.925 132.29,64.25 C133.743,62.348 137.8,62.758 138.959,64.924 C139.589,66.1 139.745,70.285 139.361,75.691 C138.486,88.029 139.098,88.414 150.658,82.796 L159.5,78.5 L159.794,70.006 C159.956,65.334 160.519,61.081 161.044,60.556 C161.57,60.03 162,58.43 162,57 C162,55.57 162.54,53.86 163.2,53.2 Z M153,92.525 C149.975,94.393 146.768,95.94 145.872,95.961 C141.648,96.062 140.649,101.146 140.46,123.5 C140.298,142.737 138.359,179.516 137.376,182 C137.05,182.825 136.439,188 136.019,193.5 C135.519,200.056 135.205,203.391 136.724,205.04 C138.346,206.801 142.058,206.636 149.866,206.416 C165.791,205.967 166.632,205.584 167.671,198.305 C168.127,195.112 168.5,182.6 168.5,170.5 C168.5,149.478 168.415,148.5 166.581,148.5 C165.484,148.5 163.954,149.784 163.007,151.5 C161.672,153.918 160.59,154.561 157.426,154.817 C155.267,154.991 153.072,155.554 152.55,156.067 C149.618,158.946 145,155.538 145,150.495 C145,147.685 145.699,146.63 149.25,144.075 C151.588,142.393 155.005,140.315 156.845,139.456 C159.895,138.032 160.408,138.037 162.675,139.523 C164.043,140.419 165.858,140.885 166.709,140.558 C166.969,140.458 167.191,140.384 167.369,140.251 C168.381,139.494 167.956,136.817 164.94,116.5 C163.715,108.25 162.44,98.804 162.106,95.51 C161.367,88.206 160.469,87.912 153,92.525 Z M67.5,101.797 C69.746,101.297 70.726,101.64 73.25,103.807 C75.292,105.56 75.495,108.234 73.794,110.958 C72.803,112.545 72.914,113.247 74.418,114.909 C75.792,116.427 76.05,117.622 75.455,119.715 C75.02,121.247 74.496,131.613 74.292,142.75 C73.964,160.646 74.104,163 75.492,163 C76.356,163 77.297,162.213 77.582,161.25 C77.868,160.287 78.754,158.226 79.551,156.669 C80.348,155.112 81,153.193 81,152.405 C81,151.618 81.393,150.191 81.874,149.236 C82.354,148.281 83.406,145.475 84.211,143 C85.55,138.879 85.977,138.474 89.276,138.193 C92.259,137.939 93.182,138.348 94.636,140.568 C96.294,143.098 96.298,143.416 94.697,146.206 C93.764,147.832 93,150.03 93,151.09 C93,152.987 83.127,170.998 80.398,174.079 C79.629,174.947 79,175.99 79,176.395 C79,176.801 77.875,178.608 76.5,180.411 C75.125,182.214 74,184.032 74,184.45 C74,184.869 72.65,186.917 71,189 C69.35,191.083 68,193.061 68,193.394 C68,194.804 71.814,193.642 76,190.955 C78.475,189.367 82.3,187.102 84.5,185.921 C86.7,184.741 89.739,182.446 91.254,180.821 C94.214,177.647 97.269,177.636 99.75,180.792 C103.391,185.423 98.788,190.735 85.607,197.114 C81.148,199.271 76.825,201.401 76,201.847 C70.844,204.634 58.774,210.17 54.764,211.587 C52.159,212.508 49.517,213.877 48.892,214.63 C47.257,216.6 44.97,216.321 42.314,213.826 C38.562,210.301 39.315,207.569 45.25,203.182 C51.677,198.43 59,190.397 59,188.098 C59,187.164 59.501,185.899 60.113,185.287 C61.635,183.765 60.347,182 57.712,182 C54.465,182 42.631,177.236 40.161,174.935 C32.405,167.71 46.49,162.833 54.585,169.94 C57.083,172.134 59.012,173.019 60.832,172.807 C63.146,172.537 63.567,171.896 64.313,167.5 C65.454,160.787 64.242,146 62.551,146 C61.853,146 59.306,147.571 56.891,149.49 C50.4,154.65 46,153.898 46,147.629 C46,144.513 48.422,141 50.571,141 C51.264,141 53.326,139.088 55.152,136.75 C56.977,134.412 59.04,131.905 59.736,131.179 C61.68,129.146 61.238,120.71 58.851,114.333 C56.808,108.87 56.79,108.539 58.485,107.545 C59.466,106.97 61.445,105.542 62.884,104.371 C64.323,103.201 66.4,102.042 67.5,101.797 Z M67.2,29.2 C69.036,27.364 72.122,27.766 74.686,30.174 C77.475,32.795 77.576,34.543 75.164,38.5 C74.158,40.15 73.033,44.394 72.664,47.931 C72.295,51.468 71.341,55.356 70.545,56.572 C69.749,57.787 68.131,61.868 66.951,65.641 C64.706,72.819 59.507,86.985 58.07,89.838 C56.687,92.586 55.378,96.177 53.457,102.5 C52.455,105.8 51.313,108.95 50.921,109.5 C50.529,110.05 49.744,112.075 49.178,114 C48.611,115.925 47.232,119.975 46.113,123 C44.994,126.025 43.66,130.3 43.147,132.5 C42.086,137.056 35.905,154.359 33.166,160.44 C28.768,170.204 28,172.152 28,173.547 C28,174.361 27.594,175.809 27.097,176.764 C26.601,177.719 25.603,180.525 24.88,183 C24.157,185.475 22.991,188.625 22.289,190 C21.587,191.375 21.01,193.054 21.006,193.731 C21.003,194.407 19.425,197.423 17.5,200.433 C15.575,203.442 14,206.306 14,206.797 C14,208.676 10.119,211.172 8.162,210.551 C3.977,209.223 3.789,207.537 7.254,202.382 C9.058,199.697 11.405,194.8 12.47,191.5 C13.535,188.2 14.712,184.825 15.086,184 C15.996,181.994 17.432,178.262 18.935,174 C19.613,172.075 22.197,165.1 24.676,158.5 C27.155,151.9 30.689,141.775 32.529,136 C34.369,130.225 36.314,124.15 36.853,122.5 C37.391,120.85 38.375,117.7 39.039,115.5 C39.703,113.3 41.233,109.25 42.439,106.5 C44.974,100.72 46.514,96.506 48.655,89.5 C49.495,86.75 50.785,83.089 51.521,81.364 C52.257,79.639 54.496,73.114 56.495,66.864 C58.495,60.614 61.002,53.241 62.066,50.481 C63.13,47.72 64,43.584 64,41.29 C64,38.995 64.45,36.84 65,36.5 C65.55,36.16 66,34.649 66,33.141 C66,31.633 66.54,29.86 67.2,29.2 Z M73,65.882 C74.925,65.542 76.797,65.204 77.161,65.132 C78.177,64.929 83,70.984 83,72.462 C83,75.902 79.555,84.007 77.864,84.543 C75.283,85.362 74.262,84.48 73.46,80.739 C73.079,78.957 71.895,76.672 70.829,75.66 C69.448,74.349 68.978,72.766 69.195,70.16 C69.471,66.843 69.828,66.442 73,65.882 Z"/>
</svg>

