<svg xmlns="http://www.w3.org/2000/svg" width="300" height="300" viewBox="0 0 300 300" version="1.1">
  <defs/>
  <path d="M68.332,19.25 C69.49,17.409 75.657,17.663 76.393,19.582 C77.398,22.202 77.082,27.348 75.595,32.568 C74.822,35.281 73.901,39.75 73.548,42.5 C73.195,45.25 72.163,49.638 71.255,52.252 C69.375,57.66 69.89,58.717 75.249,60.449 C77.543,61.191 79.642,63.217 82.377,67.328 C84.4,70.37 85.424,71.789 85.534,73.275 C85.649,74.816 84.782,76.43 83.033,80 C82.629,80.825 81.122,81.641 79.684,81.813 C77.547,82.069 76.943,81.622 76.377,79.364 C75.995,77.845 73.944,74.845 71.818,72.698 C67.146,67.979 65.481,68.707 64.784,75.768 C64.528,78.371 63.395,82.396 62.267,84.713 C60.089,89.19 57.471,98.804 58.225,99.558 C59.269,100.602 65.762,97.486 69.042,94.367 C73.072,90.536 76.802,90.019 79.433,92.926 C81.793,95.534 81.099,98.072 77.364,100.487 C73.966,102.683 72,106.845 72,111.842 C72,114.4 72.553,115.265 74.75,116.146 C83.137,119.51 83.426,120.167 79.582,127.124 C77.558,130.785 77.047,133.501 76.453,143.75 C75.819,154.693 75.917,156 77.372,156 C78.273,156 79,155.196 79,154.2 C79,153.21 79.391,151.973 79.869,151.45 C80.346,150.928 81.55,148.317 82.543,145.649 C84.876,139.381 88.074,137.64 90.89,141.103 C93.814,144.698 92.703,149.01 85.643,161.456 C83.785,164.732 81.763,167.579 81.15,167.783 C80.537,167.988 79.558,169.926 78.976,172.091 C78.393,174.255 76.585,177.542 74.958,179.395 C71.372,183.48 71.101,185.409 74.25,184.449 C75.487,184.072 77.175,183.175 78,182.456 C80.158,180.575 98.959,171 100.495,171 C101.205,171 102.069,171.738 102.416,172.641 C103.145,174.542 102.253,178 101.033,178 C100.081,178 90.382,184.385 87.743,186.749 C85.844,188.45 82.764,190.338 79.347,191.895 C78.163,192.435 76.923,193.316 76.59,193.854 C75.928,194.925 64.012,199 61.541,199 C60.693,199 60,199.418 60,199.928 C60,201.294 49.64,203.377 46.619,202.619 C45.193,202.261 43.281,200.832 42.371,199.443 C39.722,195.4 41.611,192.905 49.407,190.149 C53.534,188.691 56.711,186.864 57.779,185.337 C58.726,183.983 60.547,181.56 61.826,179.953 C66.417,174.185 63.738,172.341 50.441,172.118 C42.68,171.988 40.473,170.892 39.767,166.815 C38.949,162.089 40.12,161.497 50.217,161.531 C57.576,161.556 60.081,161.95 62.301,163.43 C64.057,164.601 65.455,164.945 66.046,164.354 C67.495,162.905 68.239,143.266 66.877,142.424 C66.23,142.024 63.72,143.942 60.959,146.945 C55.521,152.86 52.599,153.345 50.033,148.759 C48.795,146.545 48.738,145.679 49.735,144.259 C50.414,143.291 51.629,141.037 52.434,139.25 C53.483,136.922 54.564,136 56.246,136 C59.77,136 66.429,128.816 65.679,125.824 C65.358,124.546 64.808,122.15 64.457,120.5 C63.754,117.2 61.752,112.046 59.474,107.669 C58.663,106.112 58,103.941 58,102.846 C58,101.503 57.442,100.961 56.287,101.183 C54.964,101.438 54.332,103.262 53.515,109.176 C52.931,113.399 51.736,117.66 50.851,118.669 C49.968,119.676 48.692,122.3 48.014,124.5 C47.337,126.7 45.96,130.75 44.955,133.5 C43.949,136.25 42.606,140.525 41.97,143 C41.333,145.475 40.362,148.35 39.811,149.389 C39.26,150.427 38.129,153.571 37.296,156.375 C36.463,159.179 35.156,162.367 34.391,163.459 C33.626,164.551 33,166.859 33,168.588 C33,170.316 32.1,172.874 31,174.273 C29.9,175.671 29,177.351 29,178.007 C29,178.662 28.393,180.616 27.652,182.349 C26.91,184.082 25.497,187.975 24.51,191 C23.524,194.025 21.88,197.429 20.858,198.564 C19.836,199.7 19,201.525 19,202.619 C19,207.318 4.725,225 0.932,225 C0.419,225 0,223.23 0,221.067 C0,218.088 0.459,216.989 1.892,216.534 C2.933,216.204 4.045,215.161 4.363,214.217 C4.681,213.273 5.399,211.825 5.957,211 C7.253,209.086 11.537,199.273 12.505,196 C12.912,194.625 13.734,192.891 14.331,192.146 C14.929,191.401 16.396,188.026 17.592,184.646 C24.494,165.133 26.832,158.132 27.493,155 C27.899,153.075 28.559,151.05 28.96,150.5 C29.361,149.95 30.274,147.25 30.988,144.5 C32.116,140.154 34.006,134.835 37.031,127.5 C37.485,126.4 38.842,122.35 40.048,118.5 C41.254,114.65 42.822,110.15 43.533,108.5 C48.225,97.602 55.015,76.308 59.954,57 C61.149,52.325 62.549,46.873 63.064,44.884 C63.579,42.895 64.015,38.845 64.033,35.884 C64.062,31.046 66.259,22.545 68.332,19.25 Z M154.5,84.979 C157.8,84.591 160.86,84.212 161.3,84.137 C162.954,83.854 167.857,87.041 170.381,90.041 C171.913,91.862 173,94.38 173,96.108 C173,100.685 175.36,100.692 184.338,96.14 C188.829,93.863 193.229,92 194.117,92 C196.23,92 201,95.779 201,97.454 C201,100.191 189.448,106.907 182,108.5 C180.075,108.912 177.246,110.135 175.713,111.219 C172.397,113.563 172.736,115.742 177.212,120.873 C179.499,123.494 180.009,124.83 179.498,126.863 C178.77,129.766 177.388,130.962 174.735,130.985 C172.049,131.008 162.259,136.855 159.914,139.837 C158.317,141.867 157.984,143.288 158.472,145.989 C161.664,163.637 160.881,209.226 157.046,229.007 C155.951,234.657 155.286,239.654 155.568,240.111 C155.851,240.567 155.388,242.282 154.541,243.921 C153.693,245.56 153,248.048 153,249.45 C153,250.853 152.647,252 152.216,252 C151.784,252 150.634,253.35 149.659,255 C146.886,259.694 143.531,259.062 134.312,252.108 C130.015,248.867 123.575,243.299 120,239.734 C111.8,231.557 99.139,221 97.532,221 C96.86,221 95.495,220.1 94.5,219 C93.505,217.9 92.111,217 91.404,217 C89.653,217 88.867,215.511 89.604,213.59 C90.048,212.432 91.563,212 95.177,212 C99.109,212 101.008,212.627 104.32,215.02 C114.733,222.543 134.549,238.801 138.38,242.966 C142.796,247.766 144.301,246.741 145.685,237.991 C146.337,233.871 147.622,226.9 148.54,222.5 C151.142,210.038 151.407,149.069 148.87,146.536 C148.229,145.895 140.725,149.347 138,151.536 C135.174,153.806 126.93,158 125.293,158 C122.703,158 120,154.936 120,152 C120,149.168 121.848,147.119 126,145.347 C130.397,143.47 143.453,136.765 144.826,135.678 C146.393,134.438 145.573,128.24 143.569,126.178 C141.528,124.077 135.891,125.709 128.316,130.592 C124.567,133.009 121.085,134.99 120.579,134.993 C118.944,135.005 116,131.743 116,129.92 C116,127.024 124.018,120.176 129.5,118.392 C136.093,116.246 137.537,114.872 136.073,112.137 C133.282,106.922 139.066,100.95 143.255,104.722 C144.341,105.7 145.617,107.513 146.09,108.75 C147.065,111.3 151.06,111.837 152.866,109.662 C153.476,108.926 155.805,107.776 158.041,107.106 C160.277,106.436 162.356,105.235 162.663,104.436 C163.597,102.002 162.02,96.081 160.174,95.093 C156.934,93.359 139.819,99.084 125.846,106.577 C122.025,108.625 117.629,108.353 115.438,105.932 C113.744,104.06 113.706,103.617 115.033,101.271 C115.972,99.612 118.299,98.05 121.5,96.931 C124.25,95.969 128.86,94.016 131.745,92.591 C134.63,91.166 137.787,90 138.76,90 C139.733,90 142.323,89.029 144.515,87.842 C146.707,86.655 151.2,85.367 154.5,84.979 Z M140.686,9.345 C142.991,6.323 143.792,5.908 146.34,6.418 C150.02,7.154 152,8.73 152,10.924 C152,12.849 145.065,23.871 142.53,25.975 C141.599,26.748 139.466,30.107 137.791,33.44 C136.115,36.773 133.227,41.189 131.372,43.253 C129.517,45.317 128,47.577 128,48.275 C128,48.973 126.677,51.15 125.059,53.112 C120.45,58.703 120.344,61.073 124.581,63.751 C126.987,65.272 128.943,65.801 130.611,65.383 C134.695,64.358 136.816,67.123 136.012,72.424 C135.242,77.495 132.63,82 130.46,82 C129.639,82 127.013,79.961 124.626,77.47 C120.875,73.555 119.579,72.856 115.093,72.325 C110.718,71.806 109.673,71.268 108.451,68.905 C107.653,67.362 107,65.457 107,64.672 C107,63.887 109.48,59.702 112.51,55.372 C122.623,40.925 126.924,33.906 131.447,24.469 C132.773,21.702 134.79,18.595 135.929,17.564 C137.068,16.533 138,15.055 138,14.278 C138,13.502 139.209,11.282 140.686,9.345 Z M151.655,46.829 C154.933,43.206 162.053,45.678 161.958,50.405 C161.898,53.349 157.584,65.596 155.9,67.601 C155.13,68.518 152.907,72.245 150.961,75.884 C147.845,81.709 147.038,82.537 144.211,82.813 C140.892,83.137 140.335,82.281 141.883,79.236 C145.784,71.569 146.332,67.206 143.597,65.597 C138.53,62.616 136.14,59.79 135.504,56.025 C134.302,48.907 136.818,46.227 142.066,49.035 C143.483,49.794 144,51.139 144,54.067 C144,56.711 144.512,58.259 145.513,58.643 C148.052,59.618 150,57.04 150,52.706 C150,50.342 150.689,47.897 151.655,46.829 Z M157,118.803 C152.885,120.811 152.111,123.68 154.791,126.99 C157.13,129.879 158.6,129.093 161.082,123.627 C164.27,116.606 163.462,115.651 157,118.803 Z"/>
</svg>

