<svg xmlns="http://www.w3.org/2000/svg" width="300" height="300" viewBox="0 0 300 300" version="1.1">
  <defs/>
  <path d="M129.025,14.469 C129.601,13.776 129.93,13.333 130.355,13.202 C131.077,12.98 132.074,13.653 135.02,15.513 C138.398,17.645 139,18.544 139,21.454 C139,23.339 139.367,25.109 139.816,25.387 C140.265,25.664 142.628,24.568 145.066,22.95 C147.505,21.332 150.257,20.007 151.182,20.004 C152.865,20 157,24.876 157,26.865 C157,28.613 152.86,31.921 147.5,34.457 C140.285,37.87 138.604,40.017 139.477,44.705 C139.865,46.792 140.397,52.775 140.658,58 C140.919,63.225 141.473,67.848 141.889,68.272 C142.304,68.697 144.86,68.065 147.567,66.867 C154.396,63.847 161.307,62.145 164.37,62.73 C165.79,63.002 168.691,65.111 170.817,67.417 C175.893,72.924 176.689,77.583 173.994,86.019 C172.897,89.452 172,93.041 172,93.995 C172,94.95 171.1,96.874 170,98.273 C168.9,99.671 168,101.477 168,102.285 C168,103.094 167.325,104.315 166.5,105 C165.675,105.685 165,106.798 165,107.473 C165,108.149 162.282,110.906 158.959,113.601 C149.653,121.149 147.128,123.014 146.229,125.474 C145.806,126.628 145.742,127.913 145.502,129.979 C144.979,134.492 145.196,136.686 146.407,139.113 C148.213,142.733 148.485,146.582 147,147.5 C146.45,147.84 146,150.047 146,152.404 C146,157.357 147.541,159.129 153.5,161.03 C163.353,164.173 166.707,165.334 169.651,166.622 C171.384,167.38 173.263,168 173.827,168 C174.39,168 178.573,169.8 183.123,172 C187.672,174.2 191.996,176 192.732,176 C193.468,176 195.067,176.644 196.285,177.431 C198.59,178.92 206.224,181.573 216.5,184.458 C222.453,186.129 226.621,187.668 234.695,191.177 C237.002,192.18 239.217,193 239.616,193 C241.404,193 244,196.553 244,199 C244,206.15 234.835,206.608 227.109,199.844 C224.367,197.443 221.717,196 220.05,196 C218.583,196 216.509,195.339 215.441,194.532 C214.374,193.724 212.146,193.049 210.492,193.032 C208.838,193.014 205.463,191.956 202.992,190.681 C200.521,189.405 196.475,187.786 194,187.084 C191.525,186.381 188.825,185.399 188,184.901 C187.175,184.403 185.375,183.546 184,182.997 C182.625,182.448 180.719,181.549 179.764,181 C178.809,180.45 177.459,179.997 176.764,179.994 C176.069,179.99 174.306,179.365 172.847,178.603 C171.387,177.842 168.462,176.663 166.347,175.982 C164.231,175.302 159.654,173.39 156.176,171.733 C152.717,170.085 150.489,168.884 149.063,169.51 C146.354,170.698 146.536,178.475 146.668,202.285 C146.76,218.903 147.31,239.925 147.89,249 C148.47,258.075 148.987,266.993 149.039,268.818 C149.222,275.276 144.854,276.992 140.724,272.084 L138.271,269.168 L138.121,232.834 C137.873,172.9 137.358,165 133.694,165 C130.874,165 113.622,185.876 109.129,194.726 C107.949,197.05 105.637,199.948 103.992,201.164 C102.346,202.381 100.989,203.854 100.974,204.438 C100.93,206.27 85.264,220 83.218,220 C80.798,220 76,216.333 76,214.484 C76,212.657 79.91,210 82.599,210 C84.769,210 93.214,200.379 101,189.035 C102.925,186.23 107.2,180.329 110.5,175.922 C113.8,171.515 117.85,165.967 119.5,163.593 C121.15,161.219 124.322,156.852 126.55,153.888 C135.35,142.179 137.735,135.722 134.75,131.697 C133.592,130.135 133.023,130.203 127,132.624 C123.425,134.06 120.05,135.593 119.5,136.029 C118.95,136.464 116.851,137.129 114.835,137.506 C111.613,138.108 110.965,137.877 109.467,135.59 C108.109,133.518 108.01,132.692 108.98,131.525 C110.539,129.646 109.498,121 107.051,115.5 C106.072,113.3 104.471,109.293 103.494,106.596 C102.517,103.899 100.206,100.02 98.358,97.975 C95.47,94.777 95.091,93.783 95.657,90.878 C96.322,87.459 97.504,86.043 99.715,86.015 C101.434,85.994 108,91.941 108,93.52 C108,96.703 110.934,95.141 117.648,88.384 C121.615,84.39 126.236,80.412 127.916,79.543 C131.734,77.569 132.152,75.812 131.61,64 C130.958,49.784 129.907,42.901 128.292,42.282 C127.516,41.984 123.939,43.174 120.344,44.927 C112.194,48.901 108.915,48.734 107.646,44.281 C106.496,40.246 108.626,36.56 112.693,35.546 C114.237,35.161 116.85,34.246 118.5,33.513 C120.15,32.779 122.788,31.785 124.362,31.302 C127.128,30.455 127.234,30.181 127.515,23.182 C127.675,19.198 128.355,15.277 129.025,14.469 Z M61.387,26.75 C61.751,25.593 62.957,25 64.943,25 C69.748,25 71.1,28.72 69.876,38.567 C69.333,42.93 68.014,48.698 66.945,51.383 C64.539,57.424 64.488,59.88 66.75,60.687 C68.804,61.42 79.67,71.7 81.1,74.262 C82.446,76.674 78.79,85 76.385,85 C73.842,85 71,82.029 71,79.371 C71,77.837 70.043,76.557 68.177,75.592 C66.625,74.789 64.77,73.427 64.055,72.566 C61.889,69.957 60.289,70.791 59.637,74.87 C59.296,76.999 58.339,79.304 57.509,79.993 C56.679,80.681 55.986,82.427 55.968,83.872 C55.951,85.318 55.276,87.374 54.468,88.441 C53.661,89.509 52.995,91.309 52.988,92.441 C52.981,93.574 51.406,98.095 49.488,102.49 C46.128,110.185 45.349,113 46.579,113 C46.898,113 50.54,110.05 54.674,106.445 C58.808,102.84 62.914,100.029 63.799,100.2 C64.684,100.37 66.276,102.159 67.338,104.176 C69.264,107.832 69.263,107.85 67.138,110.552 C64.312,114.145 62.761,120.21 63.569,124.515 C64.279,128.3 64.98,128.654 68.017,126.757 C70.922,124.943 73.431,126.895 73.805,131.261 C74.108,134.792 73.853,135.207 69.205,138.75 C67.237,140.251 66.844,141.64 66.44,148.5 C66.182,152.9 65.601,158.619 65.15,161.208 C64.148,166.959 65.212,169.428 67.429,166.495 C68.258,165.398 68.951,163.931 68.968,163.236 C68.986,162.541 69.397,161.191 69.882,160.236 C70.368,159.281 71.155,157.197 71.632,155.604 C73.233,150.261 77.458,149.609 80.387,154.252 C81.614,156.197 77.837,168.666 74.883,172.422 C71.996,176.092 72.453,177.35 76.438,176.704 C82.36,175.743 83.19,179.028 78.492,184.829 C77.748,185.748 75.913,187.998 74.414,189.829 C72.915,191.66 69.284,194.516 66.344,196.175 C63.405,197.834 60.748,199.598 60.441,200.095 C60.134,200.593 58.839,201 57.563,201 C56.288,201 54.685,201.675 54,202.5 C53.315,203.325 51.899,204 50.853,204 C49.806,204 46.401,204.896 43.286,205.991 C38.155,207.794 37.403,207.839 35.311,206.468 C32.035,204.322 32.208,199.436 35.687,195.805 C37.165,194.262 39.154,193 40.106,193 C42.934,193 47.987,189.637 47.994,187.75 C47.998,186.451 47.185,186 44.842,186 C41.406,186 32.404,179.792 29.571,175.469 C27.702,172.615 27.533,168.867 29.2,167.2 C31.785,164.615 34.942,165.979 41.463,172.5 C47.766,178.803 51.038,180.335 52.672,177.75 C53.906,175.798 56.966,159.949 56.968,155.5 C56.97,149.306 56.299,148.806 49.741,150.123 C46.642,150.745 43.407,150.987 42.553,150.659 C40.743,149.964 40.462,144.545 42.024,140.438 C42.928,138.06 43.444,137.81 46.451,138.298 C48.323,138.602 50.843,138.592 52.051,138.276 C54.11,137.738 54.216,137.268 53.753,130.791 C53.353,125.205 52.777,123.363 50.751,121.19 C49.373,119.71 47.708,117.458 47.052,116.185 C46.094,114.324 45.581,114.103 44.43,115.058 C43.644,115.711 43,116.879 43,117.654 C43,119.999 39.19,130.551 35.488,138.456 C33.57,142.555 32,146.436 32,147.081 C32,147.726 30.698,151.01 29.108,154.377 C24.945,163.19 22.157,169.524 19.865,175.375 C18.761,178.194 16.539,182.564 14.929,185.088 C13.318,187.611 12,190.588 12,191.703 C12,192.818 11.186,194.803 10.191,196.115 C7.074,200.224 4,206.043 4,207.835 C4,208.781 3.1,210.326 2,211.268 C0.023,212.961 0,212.885 0,204.477 C0,199.8 0.428,195.191 0.951,194.236 C3.076,190.355 13,169.226 13,168.581 C13,168.2 14.35,165.167 16,161.841 C17.65,158.516 19,155.16 19,154.384 C19,153.608 19.412,152.191 19.916,151.236 C20.42,150.281 21.501,147.925 22.319,146 C25.473,138.575 28.201,132.429 29.082,130.764 C29.587,129.809 30,128.211 30,127.214 C30,126.216 30.419,124.973 30.931,124.45 C31.443,123.928 33.428,119 35.342,113.5 C37.257,108 39.924,100.575 41.269,97 C42.614,93.425 44.044,89.6 44.448,88.5 C44.851,87.4 45.543,85.6 45.985,84.5 C48.201,78.984 50,73.25 50,71.703 C50,70.751 50.397,69.191 50.883,68.236 C54.354,61.415 59,43.131 59,36.297 C59,34.536 59.413,32.06 59.919,30.797 C60.424,29.534 61.085,27.712 61.387,26.75 Z M156,75.175 C154.075,75.723 151.79,76.807 150.921,77.585 C150.053,78.363 148.669,79 147.846,79 C145.612,79 141.649,83.644 142.342,85.449 C143.109,87.448 146,87.471 146,85.479 C146,82.943 150.576,81.435 153.509,83.005 C156.046,84.362 156.949,88.296 155,89.5 C154.45,89.84 154,90.828 154,91.696 C154,92.564 151.933,96.411 149.408,100.245 C146.019,105.389 145.109,107.509 145.935,108.335 C146.679,109.079 147.499,109.127 148.378,108.478 C155.364,103.317 158.363,100.799 159.875,98.824 C164.898,92.261 166.794,78.934 163.171,75.655 C161.121,73.8 160.892,73.785 156,75.175 Z M115.654,102.263 C114.104,103.397 114.028,104.097 115.03,108.027 C115.657,110.487 116.469,114.3 116.835,116.5 C117.75,122.001 120.789,122.411 125.527,117.673 C129.72,113.48 129.822,112.477 126.248,110.628 C122.825,108.858 120.316,106.094 119.853,103.583 C119.399,101.116 117.877,100.638 115.654,102.263 Z M128.687,91.805 C125.378,95.259 125.354,96.045 128.471,98.972 C131.965,102.255 134,100.38 134,93.878 C134,88.145 132.685,87.632 128.687,91.805 Z"/>
</svg>

