<svg xmlns="http://www.w3.org/2000/svg" width="300" height="300" viewBox="0 0 300 300" version="1.1">
  <defs/>
  <path d="M130.607,14.882 C132.789,12.471 134.503,12.503 137,15 C139.383,17.383 139.508,19.503 137.494,23.364 C136.672,24.94 136,26.935 136,27.799 C136,29.385 133.697,34.877 129.687,42.85 C128.484,45.242 124.469,50.642 120.764,54.85 C113.857,62.694 113.151,64.383 115.155,68.264 C115.791,69.494 116.627,71.175 117.014,72 C118.351,74.85 121.317,73.719 122.262,70 C123.313,65.867 131.026,58.34 137.552,55.081 C140.891,53.414 142.811,53.062 145.657,53.595 C151.326,54.659 155.897,57.817 157.573,61.829 C159.391,66.179 159.852,82.61 158.238,85.5 C157.624,86.6 156.883,88.625 156.593,90 C156.303,91.375 153.958,94.9 151.383,97.833 C146.834,103.013 143,109.278 143,111.531 C143,112.141 144.125,113.618 145.5,114.813 C147.548,116.594 148,117.897 148,122.025 C148,128.44 149.314,128.965 155.602,125.059 C161.433,121.438 169.875,119.057 179.593,118.293 C187.99,117.633 194.78,119.498 200.057,123.914 L203.5,126.794 L203.421,135.771 C203.353,143.497 202.959,145.497 200.595,150.124 C199.085,153.081 196.856,156.4 195.642,157.5 C194.428,158.6 192.775,160.85 191.968,162.5 C191.16,164.15 186.904,168.988 182.51,173.25 C176.464,179.114 173.848,181 171.76,181 C170.242,181 168.1,181.9 167,183 C164.45,185.55 160.048,185.553 154.778,183.007 C152.509,181.911 150.545,181.123 150.414,181.257 C150.181,181.493 148.965,270.481 149.085,278.5 C149.118,280.7 148.575,286.438 147.878,291.25 L146.612,300 L142.189,300 C138.063,300 137.813,299.85 138.466,297.75 C138.85,296.512 139.412,263.446 139.714,224.269 C140.15,167.653 140.641,152.936 137.563,152.147 C136.19,151.795 134.107,154.216 130.992,156.925 C127.726,159.766 123.977,162.65 122.661,163.332 C121.344,164.015 118.692,166.245 116.766,168.287 C114.419,170.775 112.38,172 110.586,172 C108.351,172 107.528,172.82 105.61,176.959 C101.555,185.711 99.578,186.83 95.813,182.5 C92.951,179.208 90.861,179.345 88.158,183 C86.938,184.65 85.456,186 84.864,186 C84.273,186 82.452,187.125 80.818,188.5 C79.184,189.875 76.999,191 75.962,191 C74.926,191 73.273,191.826 72.289,192.837 C71.305,193.847 68.475,195.459 66,196.42 C63.525,197.381 60.825,198.753 60,199.467 C59.175,200.182 56.025,201.479 53,202.349 C49.975,203.219 45.025,205.545 42,207.518 C38.975,209.491 35.253,211.364 33.729,211.682 C32.205,211.999 30.716,212.65 30.42,213.129 C29.622,214.421 26.397,214.184 25.203,212.744 C24.63,212.054 23.863,210.304 23.5,208.855 C22.9,206.466 23.605,205.632 31.103,199.861 C40.891,192.327 52.988,180.173 52.995,177.866 C52.999,176.6 51.594,176.082 46.75,175.56 C41.832,175.03 39.479,174.144 35.711,171.406 C29.986,167.244 28.06,163.838 30.064,161.423 C32.252,158.787 39.901,160.018 45.103,163.844 C49.613,167.161 53.073,167.844 54.766,165.75 C55.645,164.662 58,145.332 58,139.197 C58,135.49 54.353,136.481 51.528,140.955 C49.714,143.829 47.942,145.237 45.048,146.104 C37.78,148.281 35.994,143.891 40.517,134.967 C42.608,130.84 43.496,129.999 45.767,129.995 C47.451,129.993 49.792,128.78 51.864,126.838 C55.001,123.898 55.186,123.374 54.601,119.092 C54.231,116.38 52.751,112.796 50.987,110.337 C49.344,108.047 48,105.482 48,104.637 C48,100.9 63.214,93.717 67.581,95.393 C70.206,96.4 68.884,103.516 65.59,106.107 C62.463,108.568 62.358,110.225 65.053,114.586 C67.491,118.53 68.322,126.975 66.79,132.218 C65.982,134.981 66.003,136.299 66.873,137.347 C67.711,138.356 67.753,139.52 67.021,141.443 C65.534,145.357 65.696,155.001 67.25,154.995 C68.987,154.988 75,141.909 75,138.138 C75,135.943 75.726,134.571 77.5,133.408 C79.773,131.919 80.216,131.912 82.378,133.328 C83.806,134.264 85.023,136.309 85.424,138.446 C85.98,141.41 85.582,142.747 83.046,146.433 C81.371,148.868 80,151.024 80,151.225 C80,151.425 82.29,153.335 85.088,155.469 C87.887,157.604 91.834,161.854 93.859,164.915 C95.885,167.976 98.342,170.635 99.32,170.823 C101.803,171.301 106,168.33 106,166.095 C106,163.653 134.601,138.005 137.329,138.001 C137.785,138.001 138.004,133.393 137.816,127.761 C137.424,116.034 136.519,114.977 130.679,119.431 C126.458,122.651 123.592,122.683 120.455,119.545 C117.928,117.019 117.427,113.519 117.944,102 C118.133,97.78 117.134,94.626 112.248,84.002 C110.627,80.478 106.03,74.081 102.712,70.729 C99.606,67.593 101.369,62.407 107.892,55.5 C111.008,52.2 114.518,48.109 115.692,46.408 C118.568,42.242 126.558,25.261 127.858,20.553 C128.433,18.469 129.67,15.917 130.607,14.882 Z M60.25,23.662 C64.605,21.905 66.997,25.266 66.441,32.361 C65.518,44.138 64.729,48.731 62.915,52.877 C61.862,55.285 61,57.638 61,58.108 C61,58.578 63.041,58.682 65.536,58.34 C69.428,57.807 70.434,58.058 72.631,60.109 C75.956,63.215 78,67.218 78,70.622 C78,73.526 75.51,77 73.429,77 C71.627,77 65.94,69.512 64.449,65.175 C62.698,60.08 59.756,60.136 58.919,65.281 C58.581,67.361 57.813,70.061 57.212,71.281 C55.764,74.223 49.346,90.829 48.432,94 C48.036,95.375 47.038,97.53 46.215,98.789 C45.392,100.048 43.408,104.998 41.806,109.789 C40.203,114.58 37.141,122.1 34.999,126.5 C29.11,138.603 25,148.118 25,149.652 C25,150.408 24.603,151.809 24.117,152.764 C23.631,153.719 22.755,155.625 22.17,157 C21.585,158.375 19.782,162.425 18.164,166 C16.547,169.575 14.484,174.75 13.58,177.5 C12.676,180.25 10.563,185.425 8.885,189 C7.206,192.575 5.245,196.85 4.525,198.5 C2.172,203.897 1.071,206.704 0.551,206.6 C0.007,206.491 0.1,203.199 0.064,196.355 C0.004,185.04 0.207,183.707 3.031,176.855 C4.699,172.81 6.499,168.719 7.031,167.764 C7.564,166.809 8,165.211 8,164.214 C8,163.216 8.38,161.973 8.844,161.45 C9.308,160.928 10.728,157.8 11.999,154.5 C14.85,147.098 18.339,139.081 21.574,132.5 C22.925,129.75 24.024,127.203 24.016,126.839 C24.007,126.476 25.508,122.876 27.35,118.839 C29.193,114.803 31.478,109.25 32.428,106.5 C34.658,100.046 35.231,98.618 38.251,92 C39.631,88.975 41.317,84.925 41.997,83 C42.678,81.075 43.857,78.082 44.617,76.349 C45.378,74.616 46,72.568 46,71.799 C46,71.029 46.385,69.972 46.855,69.45 C48.056,68.117 51,58.559 51,55.996 C51,54.826 51.412,53.099 51.916,52.158 C52.419,51.216 53.372,45.734 54.033,39.973 C54.948,32.005 55.685,29.103 57.118,27.84 C58.153,26.927 59,25.727 59,25.173 C59,24.62 59.563,23.94 60.25,23.662 Z M177,129 C176.175,129.533 173.43,129.976 170.9,129.985 C167.391,129.996 165.318,130.712 162.159,133 C159.881,134.65 157.718,136 157.353,136 C156.988,136 155.247,137.1 153.484,138.444 C149.352,141.596 148.844,144.759 149.664,162.25 L150.308,176 L163.505,176 L172.121,168.518 C180.02,161.659 190,149.18 190,146.163 C190,145.508 190.45,144.079 191,142.986 C191.55,141.894 192.45,140.106 193,139.014 C194.382,136.268 194.252,132.28 192.75,131.317 C188.187,128.393 179.839,127.165 177,129 Z M131.74,73.296 C122.785,81.682 121.716,83.732 124.035,88.066 C125.497,90.798 127.275,90.472 129.842,87 C131.062,85.35 132.769,84 133.636,84 C134.503,84 137.014,82.573 139.217,80.828 C142.579,78.166 143.522,77.845 145.097,78.828 C146.129,79.473 147.929,80 149.098,80 C151.336,80 151.346,79.619 149.373,69.69 C148.819,66.9 145.795,64.947 142.185,65.046 C141.258,65.072 136.558,68.784 131.74,73.296 Z M71.998,166.227 C70.787,168.553 68.648,171.815 67.246,173.477 C65.844,175.14 64.083,177.85 63.334,179.5 C62.584,181.15 61.43,183.266 60.77,184.202 C58.22,187.821 61.402,187.117 71.747,181.773 C84.352,175.263 86.122,172.891 81.838,168.255 C80.438,166.74 79.016,164.713 78.678,163.75 C77.552,160.548 74.337,161.74 71.998,166.227 Z M140.327,92.359 C136.681,95.402 131.077,98.268 128.518,98.398 C126.986,98.476 126.293,99.521 125.602,102.798 C124.233,109.288 126.027,110.338 130.751,105.812 C132.813,103.836 135.977,101.477 137.781,100.568 C141.655,98.618 147,93.274 147,91.352 C147,89.229 143.432,89.768 140.327,92.359 Z"/>
</svg>

