<svg xmlns="http://www.w3.org/2000/svg" width="300" height="300" viewBox="0 0 300 300" version="1.1">
  <defs/>
  <path d="M192.974,112.25 C197.033,109.362 200.838,107.002 201.428,107.004 C202.017,107.006 203.963,107.899 205.75,108.989 C209.551,111.307 209.876,113.759 207.15,119.562 C206.133,121.728 204.512,126.875 203.547,131 C202.583,135.125 201.014,139.4 200.062,140.5 C199.109,141.6 197.551,144.206 196.599,146.291 C195.647,148.375 193.578,151.55 192.002,153.345 C190.426,155.14 188.836,157.803 188.47,159.263 C188.104,160.723 187.173,162.442 186.402,163.081 C183.073,165.844 184.777,168.545 194.5,175.919 C198.35,178.839 204.113,183.539 207.307,186.364 C210.5,189.189 215.225,193.349 217.807,195.609 C229.269,205.643 232.408,208.664 233.904,211.101 C235.855,214.28 244.554,224.206 252.078,231.84 C255.146,234.953 259.247,239.525 261.192,242 C267.698,250.281 270.702,253 273.345,253 C276.483,253 279,256.351 279,260.53 C279,264.121 274.613,270 271.932,270 C269.869,270 264,264.471 264,262.527 C264,261.802 261.127,258.124 257.615,254.354 C244.903,240.707 240.283,235.367 234.817,228 C229.61,220.981 207.088,198.72 197,190.621 C187.542,183.027 180.748,178 179.945,178 C178.758,178 171,189.041 171,190.73 C171,191.502 169.986,193.566 168.747,195.317 C167.509,197.068 166.046,199.22 165.497,200.1 C161.513,206.493 158.763,210.056 157.147,210.921 C156.111,211.476 154.991,213.182 154.656,214.714 C154.322,216.247 151.768,219.975 148.98,223 C146.192,226.025 142.752,229.963 141.337,231.75 C138.197,235.714 133.928,236.163 131.557,232.777 C129.295,229.548 129.631,228.025 132.853,226.901 C134.422,226.354 136.822,224.24 138.186,222.203 C147.288,208.61 152.415,201.235 153.968,199.5 C155.967,197.266 165.004,182.853 168.612,176.143 C170.399,172.821 170.715,171.336 169.943,169.893 C169.385,168.852 168.476,168 167.922,168 C167.368,168 164.416,166.155 161.363,163.899 C153.638,158.192 149.036,148 154.184,148 C156.752,148 165,151.809 165,152.995 C165,154.558 174.939,160.961 176.459,160.377 C177.291,160.058 180.34,155.08 183.236,149.316 C186.131,143.551 189.223,137.409 190.107,135.667 C194.297,127.413 192.896,124.368 187.5,130 C185.919,131.65 184.123,133 183.508,133 C182.894,133 180.671,134.575 178.57,136.5 C176.468,138.425 174.005,140 173.097,140 C172.188,140 170.448,140.698 169.229,141.552 C167.16,143.001 166.843,142.934 164.442,140.533 C162.672,138.763 161.969,137.114 162.185,135.243 C162.449,132.965 163.099,132.427 166.185,131.93 C170.164,131.289 173.914,128.753 181.046,121.88 C183.547,119.471 188.914,115.138 192.974,112.25 Z M130.5,48.883 C134.35,46.788 138.497,45.057 139.715,45.037 C141.937,45 144,47.566 144,50.368 C144,52.187 137.707,56.803 129.25,61.188 L123,64.429 L122.967,68.965 C122.949,71.459 122.558,76.425 122.098,80 C121.638,83.575 121.487,89.987 121.763,94.25 C122.397,104.08 123.818,104.344 131.163,96 C138.641,87.505 143.507,87.902 142.306,96.909 C141.778,100.863 140.843,102.332 135.559,107.5 C132.186,110.8 127.755,114.39 125.713,115.477 C122.426,117.228 122,117.892 122,121.259 C122,126.552 124.086,126.986 129.261,122.767 C133.848,119.027 137.248,117 138.934,117 C140.849,117 144,120.946 144,123.345 C144,126.826 139.001,130.658 126.25,136.952 C123.459,138.33 122,139.708 122,140.966 C122,145.116 123.117,144.828 140.225,136.267 C143.972,134.392 145.369,134.127 146.975,134.987 C148.089,135.583 149,136.695 149,137.458 C149,139.59 144.04,145 142.085,145 C141.13,145 139.326,146.089 138.076,147.419 C136.826,148.75 133.71,150.809 131.152,151.995 C120.895,156.749 121.02,156.625 120.784,162.305 C120.666,165.162 120.466,169.975 120.34,173 C120.214,176.025 119.884,181.425 119.607,185 C119.329,188.575 118.68,196.9 118.164,203.5 C116.815,220.758 116.293,222.888 113.218,223.66 C111.296,224.142 110.222,223.757 108.884,222.105 C106.951,219.718 107.04,214.352 109.178,204.329 C109.785,201.485 109.997,197.735 109.649,195.997 C109.302,194.259 109.422,192.08 109.917,191.155 C111.395,188.393 111.82,162.868 110.397,162.322 C108.768,161.697 101.825,165.337 97.646,169.006 C95.77,170.653 93.75,172 93.157,172 C91.497,172 88,167.837 88,165.861 C88,163.326 95.733,157.14 104.735,152.475 L112.5,148.451 L113,132.975 C113.275,124.464 113.133,111.425 112.685,104 C112.237,96.575 112.149,85.662 112.489,79.75 C112.829,73.838 112.746,69.016 112.304,69.035 C111.862,69.055 110.375,69.714 109,70.5 C105.67,72.404 103.049,72.354 100.829,70.345 C97.419,67.26 99.603,60 103.94,60 C106.352,60 122.466,53.255 130.5,48.883 Z M68.2,25.2 C69.827,23.573 70.299,23.661 73.501,26.179 C76.224,28.321 76.262,28.499 75.697,36.497 C75.382,40.974 74.582,45.955 73.921,47.568 C73.26,49.181 72.107,51.918 71.359,53.651 C69.821,57.218 69.568,61 70.869,61 C72.537,61 81.897,69.1 82.528,71.09 C83.535,74.262 78.638,80 74.924,80 C72.413,80 71.856,79.528 71.344,76.969 C70.788,74.19 66.905,70 64.884,70 C64.419,70 63.789,71.237 63.484,72.75 C62.287,78.696 58.314,89.179 54.961,95.236 C54.432,96.191 54,97.823 54,98.862 C54,99.901 52.875,103.295 51.5,106.404 C50.125,109.513 49,112.832 48.999,113.779 C48.998,115.715 45.81,124.524 44.713,125.621 C44.321,126.013 44,127.329 44,128.546 C44,129.763 42.433,133.851 40.519,137.63 C38.604,141.408 37.026,145.175 37.013,146 C36.999,146.825 36.315,148.789 35.494,150.364 C34.672,151.94 34,154.022 34,154.992 C34,155.962 33.36,157.286 32.578,157.935 C31.796,158.584 30.838,161.002 30.449,163.308 C30.06,165.613 28.731,169.75 27.495,172.5 C26.259,175.25 24.708,179.3 24.048,181.5 C23.389,183.7 21.758,187.586 20.424,190.135 C19.091,192.685 18,195.696 18,196.826 C18,197.957 17.562,199.153 17.027,199.483 C16.492,199.814 15.139,203.046 14.021,206.666 C12.903,210.287 11.125,214.88 10.069,216.874 C9.014,218.868 7.873,221.776 7.535,223.336 C6.879,226.355 2.87,231 0.92,231 C-1.078,231 0.366,215.217 2.796,210.5 C4.902,206.412 6.764,201.605 8.992,194.5 C9.682,192.3 11.316,188.207 12.623,185.404 C13.931,182.6 15,179.638 15,178.82 C15,178.002 15.281,177.052 15.624,176.709 C16.248,176.085 18.31,170.395 24,153.593 C25.659,148.693 27.382,144.193 27.828,143.593 C28.275,142.992 29.249,140.475 29.994,138 C30.739,135.525 31.885,132.375 32.542,131 C34.216,127.493 39.802,110.678 41.678,103.5 C42.541,100.2 44.36,95.025 45.721,92 C47.082,88.975 48.815,85.106 49.573,83.402 C50.33,81.697 52.236,76.522 53.808,71.902 C55.381,67.281 57.362,61.925 58.212,60 C60.503,54.807 62.666,48.192 64.095,42 C64.794,38.975 65.733,36.073 66.183,35.55 C66.632,35.028 67,32.755 67,30.5 C67,28.245 67.54,25.86 68.2,25.2 Z M62.728,100.75 C68.058,96.022 70.951,95.897 73.32,100.295 C75.269,103.915 74.79,106.507 71.882,108.063 C70.847,108.617 70,109.928 70,110.976 C70,112.024 69.55,113.16 69,113.5 C67.16,114.637 67.973,117.039 70.526,118.01 C74.132,119.381 74.512,121.383 72.187,126.786 C70.494,130.721 70.19,133.284 70.409,141.77 C70.554,147.4 70.969,152.302 71.33,152.664 C71.692,153.025 72.813,152.574 73.823,151.661 C76.601,149.146 80.664,149.557 82.626,152.552 C84.223,154.99 84.202,155.17 82.149,156.608 C80.967,157.436 79.967,158.875 79.927,159.807 C79.887,160.738 78.984,162.85 77.92,164.5 C76.857,166.15 75.106,169.328 74.03,171.562 C72.953,173.796 71.156,176.454 70.036,177.467 C68.916,178.481 68,180.339 68,181.596 C68,182.853 67.55,184.16 67,184.5 C66.45,184.84 66,185.547 66,186.071 C66,187.864 74.47,185.813 78.5,183.043 C82.262,180.458 90.02,178.353 91.25,179.583 C92.907,181.241 82.216,192.996 79.044,193.004 C78.195,193.006 74.8,194.354 71.5,196 C68.2,197.646 64.481,198.994 63.236,198.996 C61.991,198.998 60.191,199.432 59.236,199.96 C58.281,200.487 55.475,201.359 53,201.897 C50.525,202.435 46.575,203.358 44.222,203.949 C38.121,205.48 34,203.322 34,198.597 C34,194.62 35.187,193.498 40.38,192.561 C42.515,192.176 45.927,190.809 47.963,189.523 C51.515,187.281 57.017,181.579 56.985,180.173 C56.928,177.694 50.637,174 46.473,174 C43.59,174 38,169.142 38,166.636 C38,164.5 39.829,163.594 44.821,163.258 C47.961,163.047 49.844,163.519 51.706,164.984 C53.116,166.093 54.736,167 55.306,167 C55.876,167 57.176,167.754 58.195,168.676 C62.097,172.207 62.644,167.676 60.671,148.162 C60.25,143.989 58.212,142.566 55.506,144.555 C48.628,149.613 45.718,148.529 46.202,141.088 C46.484,136.741 46.751,136.365 51.275,133.925 C57.714,130.453 57.829,130.289 58.274,124 C58.568,119.829 58.225,117.896 56.853,116 C54.189,112.321 54.01,107.06 56.5,105.64 C57.6,105.013 60.402,102.813 62.728,100.75 Z M164.636,38.277 C166.945,36.589 166.966,36.594 170.109,39.604 C172.783,42.166 172.818,42.361 172.267,51.604 C171.79,59.602 171.933,61 173.231,61 C175.392,61 176.63,59.105 177.455,54.535 C178.235,50.215 180.364,45.501 182.776,42.75 C185.344,39.821 189.623,40.577 194.098,44.75 L198.118,48.5 L197.063,57 C196.483,61.675 195.823,68.875 195.597,73 C195.371,77.125 194.871,81.287 194.486,82.25 C192.562,87.062 201.97,81.229 213.88,70.226 C217.087,67.263 219.923,65.428 220.899,65.684 C221.801,65.92 223.613,67.681 224.926,69.597 L227.314,73.081 L223.961,76.541 C221.745,78.826 219.68,80 217.872,80 C215.997,80 214.489,80.909 213.079,82.889 C211.948,84.478 209.783,86.089 208.269,86.469 C205.449,87.176 204.178,88.13 198.632,93.703 C194.828,97.524 188.59,98.896 185.619,96.565 C183.789,95.128 183.786,94.715 185.477,81.294 C187.546,64.879 188.168,55.222 187.197,54.621 C185.504,53.576 180.794,55.412 180.033,57.414 C179.583,58.597 177.578,61.71 175.577,64.332 C172.511,68.348 171.781,70.31 170.936,76.799 C167.889,100.211 166.191,107.898 163.159,111.999 C161.582,114.132 160.166,115.022 158.686,114.81 C155.935,114.416 155.421,111.764 157.304,107.689 C159.892,102.092 162.336,76.085 161.697,60.938 C161.083,46.36 161.869,40.3 164.636,38.277 Z"/>
</svg>

