<svg xmlns="http://www.w3.org/2000/svg" width="300" height="300" viewBox="0 0 300 300" version="1.1">
  <defs/>
  <path d="M143.548,37.25 C144.272,34.926 149.71,35.816 151.916,38.621 C154.408,41.789 154.011,43.944 149.341,52.591 C147.503,55.993 146,58.951 146,59.165 C146,59.378 147.713,59.39 149.806,59.19 C154.498,58.742 155.759,60.091 156.181,66.011 C156.553,71.23 158.835,72.412 162.339,69.202 C164.692,67.046 172.661,63 174.553,63 C175.2,63 176.899,63.92 178.328,65.044 C180.888,67.057 180.902,67.137 179.276,70.548 C177.728,73.794 173.713,75.975 169.25,75.994 C168.563,75.997 168,76.441 168,76.981 C168,77.52 166.762,78.255 165.25,78.612 C159.898,79.878 158.25,82.45 158.25,89.538 C158.25,96.958 159.369,98.571 163.443,97.021 C170.09,94.494 177,96.754 177,101.455 C177,102.635 177.563,104.163 178.25,104.85 C180.273,106.873 179.561,120.534 177.096,126.986 C175.943,130.003 175,133.929 175,135.71 C175,138.252 174.393,139.263 172.176,140.409 C169.643,141.719 165.483,146.904 162.429,152.559 C160.713,155.737 159.833,162.778 161.057,163.535 C161.641,163.896 165.313,162.573 169.217,160.596 C173.121,158.618 177.089,157 178.035,157 C178.981,157 180.315,156.325 181,155.5 C181.685,154.675 183.45,154 184.922,154 C186.395,154 188.107,153.493 188.727,152.873 C191.762,149.838 198.809,156.115 196.071,159.415 C195.394,160.23 193.189,161.435 191.17,162.091 C189.152,162.748 186.612,163.896 185.527,164.642 C184.443,165.389 182.36,166 180.9,166 C179.44,166 177.699,166.658 177.032,167.461 C176.365,168.265 174.848,169.227 173.66,169.599 C172.472,169.971 170.427,171.113 169.115,172.138 C167.803,173.162 165.721,174 164.488,174 C162.755,174 161.764,175.12 160.123,178.935 C158.351,183.055 158,185.855 158,195.876 C158,203.454 158.402,208.13 159.089,208.555 C159.688,208.925 168.8,209.155 179.339,209.066 C189.877,208.977 201.65,209.356 205.5,209.908 C216.562,211.496 228.489,212.365 242,212.569 C248.875,212.673 255.496,212.813 256.714,212.879 C258.062,212.953 259.901,214.433 261.416,216.662 L263.905,220.325 L261.884,223.162 C260.379,225.277 259.04,226 256.632,226 C254.854,226 252.973,225.576 252.45,225.058 C251.2,223.82 233.101,222 222.031,222 C217.214,222 210.924,221.555 208.053,221.01 C202.959,220.044 175.47,219.669 165.5,220.43 C162.75,220.64 153.75,221.289 145.5,221.872 C126.775,223.196 118.078,224.353 115.18,225.904 C113.939,226.568 112.02,226.824 110.914,226.473 C109.809,226.122 108.363,226.252 107.702,226.762 C107.041,227.272 104.414,228.254 101.864,228.943 C97.808,230.039 96.902,229.982 94.614,228.483 C91.564,226.484 91.052,222.256 93.75,221.348 C94.713,221.024 97.361,219.898 99.635,218.846 C104.571,216.562 123.856,213.167 136.753,212.312 C141.842,211.974 146.396,211.203 146.874,210.599 C148.331,208.753 149.978,182.614 148.686,181.811 C148.076,181.431 145.498,183.066 142.946,185.454 C140.399,187.836 136.973,190.48 135.334,191.327 C133.695,192.175 131.77,193.573 131.055,194.434 C130.34,195.295 128.608,196 127.206,196 C123.355,196 121,193.292 121,188.864 C121,185.545 121.356,184.949 123.691,184.363 C126.224,183.727 128.798,182.273 143.5,173.174 L149.5,169.461 L149.8,163.731 C150.155,156.949 148.809,156.299 144.049,160.952 C142.388,162.575 139.369,164.215 137.34,164.596 C134.212,165.183 133.364,164.933 131.76,162.951 C130.54,161.445 130.103,159.884 130.531,158.557 C130.896,157.426 131.134,155.6 131.06,154.5 C130.986,153.4 130.96,150.203 131.001,147.395 C131.058,143.438 130.309,140.819 127.667,135.75 C120.459,121.922 120.503,109.934 127.747,114.048 C129.152,114.847 130.797,116.4 131.401,117.5 C133.582,121.469 136.379,121.54 137.605,117.658 C137.98,116.471 140.585,112.559 143.393,108.965 C148.419,102.534 148.5,102.32 148.5,95.479 C148.5,86.851 147.418,86.385 139.189,91.464 C135.977,93.447 131.684,95.339 129.65,95.669 C127.616,95.999 125.711,96.659 125.417,97.135 C123.684,99.938 115,95.699 115,92.05 C115,89.533 116.775,88.309 123.592,86.126 C126.841,85.085 133.213,82.334 137.75,80.012 L146,75.79 L146,68.395 C146,59.868 144.812,58.961 140.574,64.25 C139.142,66.037 137.509,68.063 136.945,68.75 C136.382,69.438 135.243,70 134.415,70 C133.222,70 133.049,69.221 133.581,66.25 C133.951,64.188 134.794,61.825 135.455,61 C138.612,57.058 140.807,51.787 141.928,45.448 C142.605,41.627 143.333,37.938 143.548,37.25 Z M82,36.259 C82,34.642 89.605,34.552 90.597,36.157 C92.019,38.458 90.06,52.512 87.901,55.5 C87.223,56.439 84,67.983 84,69.474 C84,69.851 86.848,69.854 90.33,69.481 C96.119,68.861 96.903,69.013 99.505,71.251 L102.351,73.699 L100.175,76.754 C98.979,78.434 98,80.472 98,81.282 C98,85.064 91.661,85.657 90.495,81.984 C90.181,80.993 88.631,78.703 87.052,76.894 C84.588,74.072 83.955,73.793 82.59,74.925 C81.716,75.651 81,77.063 81,78.063 C81,79.064 80.55,80.16 80,80.5 C79.45,80.84 79,82.139 79,83.387 C79,84.634 77.875,88.424 76.5,91.808 C75.11,95.23 74,99.966 74,102.48 C74,106.537 74.237,107 76.313,107 C77.585,107 79.919,105.65 81.5,104 C85.139,100.201 87.164,100.218 90.408,104.072 C92.427,106.472 92.775,107.552 91.996,109.007 C90.755,111.326 90.761,121.187 92.009,130.798 C92.708,136.181 92.641,138.601 91.754,140.023 C90.873,141.433 90.848,142.248 91.658,143.058 C92.468,143.868 93.459,143.418 95.348,141.381 C97.916,138.611 97.949,138.605 101.465,140.282 C105.332,142.126 106.274,145.698 103.5,148 C102.675,148.685 102,149.624 102,150.088 C102,150.552 99.588,154.659 96.641,159.216 C93.693,163.772 90.978,168.764 90.607,170.309 C90.236,171.854 88.206,175.004 86.097,177.309 C81.859,181.939 80.027,186.004 82.183,185.994 C83.655,185.987 88.213,183.755 90.202,182.067 C90.916,181.461 92.967,179.961 94.76,178.733 C96.553,177.505 99.852,175.176 102.092,173.557 C105.258,171.269 106.536,170.846 107.832,171.658 C111.96,174.241 108.889,183.658 103.317,185.504 C101.65,186.057 98.379,188.232 96.048,190.337 C78.574,206.125 59,209.724 59,197.15 C59,193.914 59.827,192.622 65.51,186.99 C72.831,179.734 76.592,173.418 74.845,171.313 C74.245,170.591 73.196,170 72.512,170 C71.829,170 70.126,169.1 68.727,168 C67.229,166.822 64.67,166 62.499,166 C59.698,166 58.692,165.536 58.308,164.069 C57.35,160.407 53,160.339 53,163.986 C53,165.014 51.22,171.174 49.045,177.677 C39.244,206.98 39.603,206.239 31.111,214.652 C27.017,218.708 23.777,220.067 22.629,218.21 C21.924,217.068 25.097,210.9 26.707,210.282 C27.957,209.802 35,196.065 35,194.106 C35,193.13 39.624,178.503 40.882,175.5 C41.343,174.4 42.537,170.8 43.537,167.5 C44.536,164.2 45.724,161.072 46.177,160.55 C46.63,160.027 47.015,158.677 47.033,157.55 C47.068,155.303 50.317,145.349 51.353,144.314 C51.709,143.958 52,142.643 52,141.392 C52,140.141 52.45,138.84 53,138.5 C53.55,138.16 54,136.964 54,135.842 C54,134.72 54.605,132.384 55.345,130.651 C56.085,128.918 57.407,125.025 58.284,122 C59.161,118.975 61.025,112.675 62.425,108 C63.826,103.325 66.119,95.225 67.52,90 C68.921,84.775 70.913,77.35 71.947,73.5 C72.98,69.65 74.612,64.025 75.573,61 C76.534,57.975 77.508,51.995 77.737,47.71 C78.076,41.389 78.517,39.694 80.077,38.72 C81.135,38.059 82,36.952 82,36.259 Z M67.677,123.52 C66.205,127.106 64.986,131.043 64.969,132.27 C64.952,133.496 63.829,136.3 62.474,138.5 C61.119,140.7 60.008,143.486 60.005,144.691 C60.002,145.896 59.55,147.16 59,147.5 C58.45,147.84 58.001,149.779 58.002,151.809 L58.004,155.5 L64.209,155.617 C69.873,155.724 70.642,156.007 73.03,158.867 C75.793,162.176 78.092,162.819 79.767,160.75 C80.323,160.063 81.105,155.295 81.503,150.155 C82.173,141.513 82.093,140.836 80.445,141.155 C79.464,141.345 77.95,142.77 77.081,144.323 C76.211,145.875 74.258,147.895 72.739,148.811 C68.861,151.15 66.591,149.525 66.191,144.122 C65.902,140.215 66.098,139.857 69.251,138.54 C71.103,137.766 73.145,135.978 73.788,134.566 C74.431,133.155 75.377,132 75.889,132 C76.983,132 81,124.049 81,121.884 C81,119.437 78.879,118.074 75.975,118.655 C74.47,118.956 72.937,118.707 72.562,118.101 C71.267,116.005 70.343,117.03 67.677,123.52 Z M142.042,123.845 C137.838,127.844 136.926,130.651 139.507,131.641 C141.902,132.56 148.814,126.028 148.915,122.75 C149.034,118.894 146.887,119.236 142.042,123.845 Z M161.44,111.25 L158.701,114.5 L163.101,115.123 C168.2,115.846 169,115.561 169,113.023 C169,107.216 165.525,106.401 161.44,111.25 Z M143.25,142.031 C140.484,143.143 140.154,147 142.826,147 C144.549,147 149,143.169 149,141.686 C149,140.75 145.986,140.932 143.25,142.031 Z M162.667,128.667 C161.856,129.477 161.774,133 162.566,133 C164.171,133 167,130.745 167,129.465 C167,127.992 163.91,127.423 162.667,128.667 Z"/>
</svg>

