<svg xmlns="http://www.w3.org/2000/svg" width="300" height="300" viewBox="0 0 300 300" version="1.1">
  <defs/>
  <path d="M171,120.126 C183.046,116.581 188.013,116.68 192.05,120.548 C194.994,123.368 198.012,131.045 198.005,135.691 C198.002,137.446 198.45,139.16 199,139.5 C199.601,139.871 200,146.671 200,156.54 C200,172.295 199.048,182.924 196.87,191.5 C196.311,193.7 195.49,197.525 195.046,200 C194.602,202.475 193.914,205.908 193.518,207.629 C193.07,209.579 193.213,211.014 193.899,211.438 C195.928,212.691 195.028,215.826 191.966,218.174 C190.298,219.453 187.567,221.752 185.898,223.283 C183.34,225.629 182.287,225.97 179.182,225.457 C177.157,225.122 174.286,224.388 172.803,223.825 C169.572,222.599 158.43,224.165 149.775,227.063 C145.145,228.613 143.566,228.759 141.516,227.826 C139.559,226.933 138.438,226.963 136.587,227.954 C133.562,229.573 132.854,229.107 130.286,223.806 C128.11,219.315 126.639,211.709 125.005,196.5 C124.474,191.55 123.374,183.45 122.561,178.5 C121.749,173.55 120.828,167.925 120.515,166 C119.159,157.669 117.665,151.284 116.39,148.37 C113.521,141.815 111.776,132.974 113.049,131.44 C114.465,129.734 117.353,129.583 120.131,131.07 C122.387,132.278 126,139.944 126,143.524 C126,144.821 126.45,146.16 127,146.5 C127.55,146.84 128,148.788 128,150.829 C128,152.87 128.936,157.906 130.079,162.02 C131.223,166.134 132.401,174 132.697,179.5 C132.992,185 133.571,189.95 133.982,190.5 C134.394,191.05 135.032,195.325 135.401,200 C135.769,204.675 136.601,209.977 137.248,211.783 C138.312,214.75 138.717,215.007 141.463,214.454 C143.133,214.117 146.512,212.865 148.971,211.671 C153.042,209.694 153.56,209.024 154.757,204.18 C155.522,201.081 155.952,194.825 155.785,189.192 C155.534,180.687 155.276,179.48 153.64,179.167 C152.452,178.94 150.711,180.108 148.817,182.406 C146.71,184.961 145.05,186 143.07,186 C140.371,186 140.286,185.835 140.286,180.652 C140.286,175.337 140.322,175.275 146.237,170.402 L152.188,165.5 L151.423,161 C151.002,158.525 150.559,152.762 150.439,148.193 C150.318,143.624 149.939,139.606 149.597,139.264 C149.255,138.922 147.649,139.623 146.028,140.821 C142.296,143.58 138.351,143.681 137.512,141.038 C136.692,138.454 138.41,135.305 143.03,130.92 C146.878,127.269 147.367,127.081 171,120.126 Z M76.911,91.48 C81.287,87.747 82.818,86.981 84.911,87.475 C87.907,88.181 91,91.457 91,93.923 C91,95.507 87.201,98.998 82.611,101.632 C80.945,102.588 80.586,104.063 80.298,111.132 C80.11,115.734 80.2,120.513 80.497,121.75 C81.178,124.58 83.699,124.631 86.635,121.873 C91.62,117.19 93.871,123.349 89.935,130.901 C88.799,133.081 87.224,135.4 86.435,136.054 C84.79,137.419 84.369,150.492 85.938,151.462 C86.454,151.78 87.691,150.886 88.688,149.474 C92.045,144.717 93.106,143.202 94.284,143.104 C94.843,143.057 95.428,143.329 96.296,143.725 C100.473,145.628 100.539,148.326 96.565,154.763 C94.604,157.94 93,160.899 93,161.34 C93,161.78 91.747,164.021 90.215,166.32 C88.683,168.619 86.149,172.975 84.584,176 C83.018,179.025 79.235,184.076 76.176,187.224 C73.117,190.372 70.934,193.267 71.325,193.658 C71.716,194.049 74.165,193.859 76.768,193.235 C90.26,190.001 93.165,189.622 95.119,190.842 C97.35,192.235 101,190.822 101,188.566 C101,186.964 108.166,183 111.062,183 C117.656,183 110.997,191.979 102.573,194.447 C99.783,195.265 95.717,196.849 93.539,197.967 C91.36,199.085 88.574,200 87.348,200 C86.121,200 84.861,200.416 84.547,200.924 C84.233,201.431 81.619,202.605 78.738,203.531 C73.873,205.095 68.526,207.349 58.434,212.09 C56.198,213.14 53.689,214 52.859,214 C51.426,214 48.136,210.978 46.578,208.232 C45.795,206.849 49.571,200 51.116,200 C52.869,200 69.808,182.925 71.415,179.539 C73.814,174.482 73.522,172.667 70.406,173.263 C67.719,173.776 58.965,171.046 56.356,168.881 C55.538,168.201 54.244,166.438 53.48,164.962 C52.23,162.544 52.295,162.06 54.14,160.08 C56.518,157.528 60.713,157.892 65.15,161.035 C70.713,164.976 75.622,164.035 76.088,158.939 C76.567,153.706 75.939,148.299 74.648,146.533 C73.355,144.765 73.045,144.827 67.613,147.936 C64.487,149.724 61.315,150.951 60.565,150.663 C58.742,149.964 57.573,142.667 58.889,140.207 C59.461,139.138 61.337,137.983 63.057,137.639 C66.794,136.891 72,131.652 72,128.638 C72,127.455 71.615,125.14 71.145,123.493 C70.657,121.782 70.7,117.34 71.246,113.123 C71.917,107.945 71.872,105.113 71.096,103.623 C69.306,100.189 71.105,96.432 76.911,91.48 Z M76.667,14.667 C77.851,13.483 79.669,13.952 82.485,16.167 C85.012,18.155 85.191,18.74 84.654,23.272 C84.332,25.989 83.548,28.84 82.91,29.608 C82.258,30.394 82.01,32.3 82.343,33.964 C82.668,35.591 82.55,37.16 82.081,37.45 C81.164,38.017 79.507,44.87 79.902,46.462 C80.034,46.991 79.685,49.241 79.127,51.462 C77.742,56.977 77.074,59.139 77.848,59.989 C78.43,60.628 79.827,60.525 82.348,60.549 C91.954,60.639 99.414,69.348 92.25,72.109 C89.659,73.108 84.259,72.57 75.969,70.487 C73.529,69.873 73.368,70.132 71.508,77.675 C70.446,81.979 69.001,86.625 68.295,88 C67.59,89.375 67.01,91.182 67.006,92.015 C67.003,92.848 66.1,95.209 65,97.261 C63.9,99.314 63,101.868 63,102.937 C63,104.007 62.55,105.16 62,105.5 C61.45,105.84 60.985,107.104 60.967,108.309 C60.932,110.661 57.717,120.616 56.647,121.686 C56.291,122.042 56,123.164 56,124.18 C56,125.196 55.562,126.809 55.027,127.764 C54.492,128.719 52.954,133.1 51.61,137.5 C50.265,141.9 48.19,147.975 46.998,151 C45.807,154.025 44.607,157.4 44.332,158.5 C44.058,159.6 43.36,161.625 42.783,163 C42.205,164.375 41.295,166.625 40.761,168 C40.227,169.375 39.177,171.85 38.429,173.5 C37.681,175.15 36.764,177.85 36.391,179.5 C35.747,182.348 32.907,189.476 30.918,193.236 C30.413,194.191 30,195.691 30,196.569 C30,197.447 28.2,201.8 26,206.242 C23.8,210.683 22,214.86 22,215.524 C22,217.892 17.853,222 15.463,222 C10.331,222 9.825,213.718 14.577,207.488 C15.91,205.741 17.014,203.679 17.031,202.906 C17.048,202.133 18.171,199.7 19.526,197.5 C20.881,195.3 21.992,192.706 21.995,191.736 C21.998,190.766 22.405,189.191 22.9,188.236 C24.293,185.549 28.706,173.955 30.031,169.5 C30.685,167.3 32.343,162.8 33.715,159.5 C35.087,156.2 36.899,151.7 37.741,149.5 C38.583,147.3 39.891,144.071 40.648,142.324 C41.405,140.577 42.448,136.977 42.967,134.324 C43.485,131.671 45.931,123.65 48.401,116.5 C50.872,109.35 53.349,101.7 53.907,99.5 C54.764,96.114 59.255,83.024 61.282,78 C61.889,76.497 62.898,72.701 67.398,55 C68.726,49.775 70.352,41.675 71.011,37 C71.671,32.325 73.063,26.864 74.105,24.864 C75.147,22.864 76,19.901 76,18.281 C76,16.66 76.3,15.033 76.667,14.667 Z M172,131.526 C159.758,135.001 159.513,135.155 159.353,139.504 C159.156,144.86 161.615,159.015 162.979,160.379 C163.768,161.168 164.824,161.007 166.785,159.801 C168.278,158.883 171.665,156.982 174.311,155.577 C176.956,154.171 179.761,152.382 180.543,151.6 C182.074,150.069 185.322,150.479 186.92,152.403 C187.576,153.194 187.457,154.895 186.563,157.493 C185.38,160.935 184.22,161.934 176.742,165.948 C170.554,169.27 167.556,170.604 166.138,172.91 C164.61,175.394 164.914,179.005 165.037,187.442 C165.149,195.174 164.914,203.412 164.515,205.75 L163.79,210 L172.24,210 C182.476,210 183.61,209.114 185.084,199.957 C185.643,196.486 186.367,193.214 186.694,192.687 C188.204,190.243 191.245,156.963 190.458,151.5 C189.329,143.671 186.727,132.48 185.749,131.25 C184.516,129.7 177.97,129.831 172,131.526 Z M162.279,35.25 C164.769,30.505 165.357,30 168.394,30 C173.945,30 174.587,31.99 171.055,38.249 C167.983,43.691 167.098,48 169.051,48 C169.629,48 171.572,46.396 173.368,44.435 C176.091,41.463 177.082,40.982 179.326,41.546 C180.807,41.917 182.232,42.567 182.493,42.989 C183.268,44.243 180.073,49.797 177.34,51.947 C175.944,53.046 173.001,55.99 170.8,58.49 C167.159,62.626 166.721,63.731 165.932,70.768 C164.316,85.19 163.432,89.692 161.691,92.349 C158.593,97.078 156.739,95.383 156.441,87.548 C156.335,84.772 156.666,79.891 157.177,76.703 C157.687,73.515 157.826,70.027 157.485,68.953 C156.627,66.251 153.359,66.51 150.588,69.5 C149.313,70.875 147.524,72 146.611,72 C144.474,72 143.436,74.877 142.554,83.239 C141.78,90.573 141.134,91.501 137.443,90.575 C135.141,89.997 135,89.555 135,82.901 L135,75.841 L131.918,76.518 C129.497,77.05 128.318,76.708 126.418,74.923 C125.088,73.674 124,72.036 124,71.284 C124,69.207 127.173,66.244 130.214,65.482 C131.707,65.107 133.18,64.01 133.487,63.042 C133.794,62.075 133.381,55.292 132.571,47.968 C131.76,40.645 131.326,34.281 131.607,33.827 C131.888,33.372 133.903,33 136.084,33 C139.479,33 140.198,33.391 141.084,35.72 C141.653,37.217 141.892,39.303 141.617,40.358 C140.864,43.236 144.059,59.086 145.504,59.64 C147.371,60.356 155.902,56.053 157.117,53.782 C157.696,52.699 157.912,50.784 157.596,49.526 C156.946,46.935 158.278,42.874 162.279,35.25 Z"/>
</svg>

