<svg xmlns="http://www.w3.org/2000/svg" width="300" height="300" viewBox="0 0 300 300" version="1.1">
  <defs/>
  <path d="M171.401,45.377 C173.106,43.66 175.227,42.197 176.115,42.127 C178.373,41.949 183,45.796 183,47.85 C183,50.693 180.043,54 177.5,54 C176.187,54 174.471,54.917 173.687,56.037 C172.246,58.093 161.558,65 159.817,65 C157.578,65 148.973,68.328 147.915,69.603 C147.277,70.371 145.021,71 142.901,71 C139.997,71 138.69,71.555 137.603,73.25 C135.677,76.255 134.241,99.413 135.917,100.449 C136.949,101.086 140.085,98.865 147.75,92.067 C149.553,90.468 150,89.011 150,84.736 C150,79.007 151.168,77 154.5,77 C157.487,77 159,78.897 159,82.641 C159,84.424 159.375,86.114 159.834,86.398 C161.163,87.219 169,82.936 169,81.389 C169,80.618 167.875,79.009 166.5,77.813 C161.813,73.738 163.757,67 169.62,67 C171.651,67 176,70.785 176,72.552 C176,73.214 176.725,74.356 177.61,75.091 C179.006,76.25 179.679,75.901 182.669,72.464 C184.566,70.284 186.559,67.938 187.098,67.25 C187.638,66.563 189.378,66 190.966,66 C193.206,66 194.206,66.707 195.427,69.154 C196.292,70.888 197,72.751 197,73.294 C197,73.836 193.399,77.704 188.997,81.89 L180.994,89.5 L180.814,96.5 C180.715,100.35 180.715,104.712 180.813,106.193 C180.912,107.675 180.544,109.164 179.996,109.502 C179.448,109.841 179,111.901 179,114.08 C179,117.3 179.453,118.249 181.415,119.143 C182.744,119.749 184.043,120.976 184.302,121.872 C184.561,122.767 185.08,124.241 185.454,125.148 C186.55,127.797 180.228,131.907 173.36,133.01 C170.137,133.528 165.835,134.696 163.799,135.605 C160.224,137.203 159.935,137.179 155.299,134.88 L150.5,132.5 L150.781,119.73 C151.123,104.162 150.676,103.7 142.138,110.805 C138.851,113.541 135.64,115.953 135.003,116.166 C134.366,116.378 133.049,121.173 132.078,126.82 C131.106,132.468 129.791,137.609 129.156,138.244 C128.52,138.88 128,141.758 128,144.641 C128,147.524 127.589,150.136 127.087,150.446 C126.585,150.757 125.856,152.921 125.467,155.255 C125.078,157.59 123.914,161.17 122.88,163.21 C121.846,165.251 121,167.659 121,168.563 C121,169.466 119.915,172.297 118.59,174.853 C117.264,177.409 115.633,181.975 114.965,185 C114.297,188.025 113.216,191.175 112.564,192 C110.65,194.422 106,204.059 106,205.606 C106,207.04 105.697,207.789 102.669,213.831 C101.751,215.663 101,217.956 101,218.926 C101,219.896 100.1,221.505 99,222.5 C97.9,223.495 97,224.762 97,225.314 C97,225.866 95.299,228.609 93.22,231.409 C91.142,234.209 88.638,237.765 87.657,239.311 C85.5,242.712 81.673,242.715 81.189,239.317 C80.858,236.988 85.641,226.543 88.986,222.291 C90.094,220.882 91,219.113 91,218.358 C91,217.603 92.065,214.851 93.366,212.243 C101.301,196.337 101.951,192.545 96.027,196.693 C92.541,199.135 82.84,204 81.457,204 C80.809,204 78.612,205.131 76.575,206.514 C74.537,207.896 70.087,209.774 66.685,210.687 C63.283,211.6 59.825,212.878 59,213.528 C58.175,214.178 55.223,215.966 52.44,217.501 C47.758,220.084 47.162,220.187 44.44,218.882 C41.843,217.637 41.5,216.958 41.5,213.054 C41.5,208.824 41.735,208.473 47,204.845 C50.025,202.76 53.625,199.699 55,198.043 C61.29,190.467 63,188.157 63,187.238 C63,186.152 58.338,185 53.948,185 C52.111,185 50.431,184.092 49.073,182.365 C45.011,177.201 47.356,173.238 53.758,174.448 C55.816,174.837 58.656,175.268 60.068,175.406 C61.48,175.544 63.218,176.017 63.93,176.457 C66.208,177.865 66.969,174.808 66.985,164.177 C66.998,154.884 66.826,153.887 65.252,154.19 C64.291,154.375 62.033,156.996 60.235,160.013 C55.944,167.214 53.55,168.341 50.377,164.652 C49.07,163.132 48,161.051 48,160.028 C48,159.005 51.6,154.464 56,149.939 C63.976,141.734 64,141.694 64,136.363 C64,132.1 63.595,130.764 62,129.768 C57.217,126.781 61.519,112.76 66.712,114.409 C68.075,114.841 70.031,113.957 73.089,111.526 C77.9,107.701 80.091,107.2 81.991,109.489 C83.966,111.869 82.346,117.145 78.49,120.89 C75.391,123.901 75,124.86 75,129.449 C75,132.292 75.58,135.411 76.289,136.381 C77.399,137.898 77.673,146.508 76.85,154 C76.759,154.825 76.756,158.537 76.842,162.25 C77.05,171.126 78.97,171.285 82.902,162.75 C86.509,154.92 89.945,151.518 93.378,152.38 C94.747,152.724 96.129,153.831 96.45,154.841 C97.273,157.434 94.709,162.981 91.096,166.424 C89.409,168.032 86.864,171.573 85.442,174.293 C84.02,177.013 82.44,179.747 81.931,180.369 C78.121,185.029 72,193.977 72,194.887 C72,196.796 75.463,196.11 79,193.5 C80.864,192.125 83.625,191 85.135,191 C86.646,191 88.169,190.535 88.52,189.968 C88.871,189.4 93.273,186.92 98.303,184.458 L107.448,179.981 L111.258,168.74 C113.353,162.558 115.315,156.6 115.617,155.5 C115.919,154.4 116.551,152.6 117.021,151.5 C117.491,150.4 118.087,147.925 118.345,146 C118.603,144.075 119.351,140.7 120.008,138.5 C121.756,132.641 124.712,109.217 125.342,96.224 C125.643,90.022 126.434,83.441 127.1,81.6 C128.951,76.482 127.957,75.138 122.756,75.724 C117.571,76.308 115,74.428 115,70.051 C115,66.365 117.132,64.738 122.288,64.487 C124.605,64.375 127.767,63.769 129.315,63.141 C130.863,62.514 133.462,62 135.09,62 C137.871,62 141.031,61.013 153.723,56.181 C160.459,53.616 167.49,49.319 171.401,45.377 Z M176.144,142.02 C178.54,140.933 181.583,140.034 182.906,140.022 C186.621,139.988 191.662,144.386 192.397,148.301 C193.444,153.881 186.276,172.913 182.596,174.325 C181.875,174.602 180.996,176.268 180.645,178.027 C180.255,179.976 178.384,182.708 175.858,185.017 C173.307,187.349 171.928,189.371 172.274,190.272 C172.966,192.074 180.931,196.633 187,198.702 C189.475,199.545 191.725,200.572 192,200.983 C192.275,201.395 194.525,202.753 197,204.002 C199.475,205.251 202.772,207.337 204.327,208.637 C205.881,209.936 207.681,211.003 208.327,211.007 C209.575,211.014 220.247,217.732 226.03,222.152 C227.938,223.61 231.75,226.027 234.5,227.523 C237.25,229.018 241.525,231.91 244,233.95 C246.475,235.99 249.85,238.499 251.5,239.527 C253.15,240.555 257.2,243.686 260.5,246.486 C263.8,249.286 268.378,253.032 270.673,254.812 C272.968,256.591 276.479,259.679 278.473,261.673 C281.635,264.835 282.062,265.827 281.8,269.4 C281.534,273.034 281.189,273.536 278.768,273.815 C275.647,274.174 270.111,270.445 268.05,266.594 C266.529,263.752 255.154,254.389 251.563,253.024 C250.211,252.51 248.411,251.057 247.563,249.795 C246.714,248.533 243.698,246.15 240.86,244.5 C238.022,242.85 233.855,239.909 231.6,237.964 C229.345,236.02 225.792,233.545 223.704,232.464 C221.616,231.384 217.35,228.588 214.224,226.25 C211.097,223.912 207.937,222 207.2,222 C206.463,222 203.977,220.704 201.675,219.121 C196.629,215.648 192.479,213.279 180,206.744 C174.775,204.008 170.072,201.371 169.55,200.885 C167.473,198.951 164.65,200.238 159.974,205.25 C157.28,208.137 155.059,211.03 155.038,211.677 C155.017,212.325 153.772,213.821 152.272,215.001 C150.771,216.181 148.799,218.282 147.889,219.669 C146.979,221.057 143.547,224.961 140.262,228.346 C136.978,231.731 133.769,235.494 133.132,236.709 C132.494,237.925 130.292,239.688 128.236,240.627 C126.181,241.567 123.757,242.965 122.848,243.734 C121.873,244.559 119.619,245.003 117.348,244.816 C114.136,244.552 113.443,244.096 113.155,242.056 C112.746,239.157 115.228,237 118.973,237 C121.046,237 123.957,234.286 133.532,223.427 C147.879,207.156 154.964,198.066 154.985,195.903 C154.994,194.959 152.543,193.017 148.992,191.156 C133.658,183.118 133.502,182.912 136.415,174.5 C137.62,171.02 138.236,170.462 141.15,170.206 C143.464,170.003 145.738,168.693 148.5,165.974 C150.7,163.809 154.143,160.566 156.151,158.768 C158.158,156.971 162.498,152.912 165.795,149.748 C169.091,146.585 173.749,143.107 176.144,142.02 Z M72.551,29.25 C73.081,27.533 78.064,27.734 80.494,29.57 C83.683,31.98 82.864,41.426 77.965,58.727 C76.423,64.173 77.168,66 80.93,66 C84.078,66 86.834,68.25 90.117,73.5 C92.405,77.16 92.459,78.774 90.427,82.846 C88.095,87.52 82,88.457 82,84.141 C82,83.183 81.498,81.898 80.884,81.284 C80.27,80.67 79.247,79.122 78.609,77.843 C76.706,74.026 74.344,74.406 72.053,78.897 C70.924,81.11 70,83.562 70,84.346 C70,85.13 69.328,87.06 68.506,88.636 C67.685,90.211 67.01,92.261 67.006,93.191 C67.003,94.121 66.609,95.124 66.131,95.419 C65.654,95.714 64.968,97.8 64.607,100.054 C64.247,102.308 62.613,106.805 60.976,110.047 C59.339,113.29 57.99,116.743 57.978,117.721 C57.966,118.7 57.076,120.625 56,122 C54.924,123.375 54.034,125.95 54.022,127.723 C54.002,130.601 52.214,135.53 48.481,143 C47.793,144.375 46.898,147.075 46.491,149 C46.084,150.925 44.907,153.694 43.876,155.154 C42.844,156.614 42,158.91 42,160.255 C42,161.601 40.875,164.818 39.5,167.404 C38.125,169.99 37,172.607 37,173.219 C37,173.831 34.75,178.951 32,184.595 C29.25,190.24 27,195.256 27,195.742 C27,196.228 25.875,198.958 24.5,201.808 C23.125,204.658 22,207.31 22,207.701 C22,208.589 15.64,222.968 12.578,229 C10.575,232.948 9.847,233.538 6.647,233.81 C3.03,234.118 3,234.089 3.031,230.31 C3.059,226.95 4.5,223.178 8.784,215.25 C11.486,210.25 12,208.943 12,207.073 C12,205.998 12.4,204.871 12.889,204.568 C13.378,204.266 14.082,202.807 14.454,201.327 C14.826,199.846 16.001,196.832 17.065,194.63 C18.129,192.427 19,190.166 19,189.605 C19,189.045 21.206,184.067 23.903,178.543 C29.096,167.907 36,151.964 36,150.61 C36,150.166 36.655,148.384 37.456,146.651 C38.901,143.522 45.03,126.164 47.396,118.5 C48.075,116.3 49.213,113.15 49.926,111.5 C52.987,104.415 55.009,98.894 57.985,89.5 C59.727,84 61.534,78.6 62.001,77.5 C62.468,76.4 63.127,74.15 63.467,72.5 C65.257,63.81 66.05,60.817 67.446,57.474 C68.29,55.455 69.697,48.56 70.573,42.152 C71.449,35.743 72.339,29.938 72.551,29.25 Z M173.94,156.496 C164.152,164.585 151.034,177.468 151.017,179.007 C150.996,180.879 159.28,186 162.329,186 C164.656,186 168.267,181.154 176.384,167.137 C179.944,160.991 182.285,152 180.326,152 C179.806,152 176.932,154.023 173.94,156.496 Z M140.655,19.829 C142.804,17.454 144.004,17.523 148.005,20.25 C153.733,24.155 155.682,35.142 152,42.764 C150.9,45.041 150,47.61 150,48.473 C150,50.378 145.73,52.494 143.564,51.663 C141.786,50.981 141.328,43.534 143,42.5 C145.061,41.226 144.114,32.447 141.5,28.595 C138.573,24.283 138.386,22.336 140.655,19.829 Z M165.245,96.696 C160.945,100.833 160.209,103.518 160.398,114.383 C160.51,120.829 162.445,123.471 165.597,121.482 C168.486,119.66 173.321,103.223 172.796,97.013 C172.386,92.172 170.048,92.074 165.245,96.696 Z"/>
</svg>

