<svg xmlns="http://www.w3.org/2000/svg" width="300" height="300" viewBox="0 0 300 300" version="1.1">
  <defs/>
  <path d="M70.537,37.606 C72.721,35.422 75.208,35.589 78.447,38.137 C81.042,40.178 81.133,40.551 80.471,46.387 C80.089,49.749 79.409,52.958 78.958,53.519 C78.508,54.079 77.595,57.664 76.929,61.486 L75.719,68.434 L80.86,72.967 C85.814,77.335 87.162,80.394 85.085,82.55 C84.581,83.073 84.019,84.579 83.835,85.898 C83.651,87.217 82.686,88.792 81.691,89.398 C80.247,90.278 79.593,90.109 78.441,88.559 C77.649,87.491 77,85.565 77,84.277 C77,78.611 70.737,81.589 69.429,87.876 C69.129,89.319 68.186,92.883 67.334,95.796 C66.482,98.709 65.721,102.533 65.642,104.295 C65.504,107.4 65.627,107.5 69.67,107.56 C74.545,107.634 77,109.313 77,112.575 C77,115.559 78.848,119.893 81.315,122.697 C82.503,124.046 83.373,126.747 83.57,129.697 C83.843,133.761 83.489,134.921 81.273,137.236 C78.73,139.891 78.658,140.313 78.813,151.639 C78.901,158.056 79.194,163.527 79.463,163.796 C80.54,164.873 83.048,161.533 84.091,157.634 C85.57,152.1 86.642,151 90.555,151 C95.064,151 95.495,153.076 92.635,161.004 C89.077,170.865 88.123,173.019 85.975,176.035 C84.889,177.561 84,179.35 84,180.01 C84,180.671 82.65,182.917 81,185 C78.222,188.507 77.21,191 78.565,191 C79.899,191 89.724,186.443 92.114,184.715 C93.551,183.676 95.801,182.977 97.114,183.163 C99.216,183.46 99.471,183.967 99.26,187.426 C98.959,192.341 95.971,195.666 90.565,197.103 C88.329,197.697 85.097,199.042 83.382,200.091 C81.667,201.141 79.135,202 77.754,202 C76.374,202 74.685,202.675 74,203.5 C73.315,204.325 71.573,205.009 70.128,205.021 C68.682,205.033 64.35,206.157 60.5,207.519 C53.638,209.948 53.451,209.96 51,208.149 C49.302,206.894 48.402,205.151 48.194,202.716 C47.842,198.604 49.019,197.643 55.785,196.522 C61.067,195.647 65.493,192.065 67.024,187.426 C68.423,183.187 67.918,181.592 64.622,179.835 C58.255,176.444 51.331,172.103 50.31,170.864 C48.731,168.947 48.325,162.275 49.704,160.896 C51.589,159.011 55.835,160.765 60.94,165.541 C63.562,167.993 66.358,170 67.154,170 C69.492,170 71.005,167.82 70.936,164.55 C70.825,159.281 68.421,149.64 67.11,149.203 C66.419,148.973 63.846,149.551 61.394,150.487 C56.719,152.273 54,151.497 54,148.378 C54,146.219 51.379,146.764 49.806,149.25 C49.023,150.488 47.562,153.75 46.56,156.5 C45.557,159.25 44.346,161.928 43.869,162.45 C43.391,162.973 43,164.57 43,166 C43,167.43 42.62,169.027 42.156,169.55 C41.692,170.072 40.064,173.65 38.539,177.5 C37.014,181.35 35.397,185.4 34.946,186.5 C34.495,187.6 33.816,189.594 33.438,190.931 C33.06,192.268 31.457,195.148 29.875,197.331 C28.294,199.514 27,201.898 27,202.63 C27,205.395 23.682,212.1 21.821,213.096 C20.755,213.666 18.559,213.842 16.941,213.487 C13.07,212.637 13.14,210.433 17.25,203.769 C21.434,196.986 23.279,193.006 25.951,185 C27.145,181.425 28.498,177.6 28.96,176.5 C29.421,175.4 30.366,172.925 31.061,171 C31.755,169.075 33.879,164.125 35.781,160 C43.869,142.459 51.549,120.008 54.004,106.728 C54.967,101.518 56.745,95.491 58.123,92.764 C58.605,91.809 59.016,89.784 59.035,88.264 C59.055,86.744 59.714,84.375 60.5,83 C61.286,81.625 61.945,79.481 61.965,78.236 C61.984,76.991 62.406,75.191 62.903,74.236 C63.399,73.281 64.346,70.475 65.007,68 C65.668,65.525 66.57,62.556 67.013,61.403 C67.456,60.249 68.115,56.649 68.479,53.403 C68.843,50.156 69.614,46.262 70.192,44.749 C70.953,42.759 70.924,41.613 70.087,40.605 C69.195,39.53 69.298,38.845 70.537,37.606 Z M166,131.706 C169.541,130.412 173.276,131.135 176.553,133.75 C178.449,135.262 180,136.993 180,137.596 C180,138.199 180.647,139.999 181.438,141.596 C183.848,146.462 185.092,160.571 184.789,179.597 C184.46,200.223 184.198,201 177.581,201 C174.72,201 171.377,202.094 166.954,204.477 C163.404,206.39 159.179,207.965 157.564,207.977 C155.95,207.99 153.651,208.919 152.455,210.042 C150.618,211.768 149.891,211.907 147.768,210.94 C142.922,208.732 142.747,205.243 144.781,151.5 L145.5,132.5 L148.537,132.203 C151.214,131.94 151.776,132.365 153.287,135.789 C154.229,137.924 155,140.421 155,141.336 C155,144.121 157.02,143.197 158.464,139.75 C159.867,136.401 163.362,132.671 166,131.706 Z M186.04,23.452 C186.747,22.6 188.264,22.038 189.412,22.202 C192.555,22.651 192.613,27.549 189.546,33.318 C187.88,36.45 187,39.697 187,42.709 C187,46.077 186.33,48.19 184.5,50.589 C181.978,53.895 181.331,56.469 182.795,57.373 C183.232,57.643 185.819,56.336 188.545,54.468 C191.27,52.599 194.007,51.055 194.628,51.035 C196.903,50.964 198.128,53.798 197.431,57.519 C196.89,60.398 195.693,61.942 191.871,64.688 C186.186,68.773 185.665,70.341 190.281,69.475 C192.842,68.995 193.977,69.317 195.45,70.944 C197.12,72.79 197.209,73.583 196.222,77.86 C194.764,84.175 196.65,91.805 200.448,94.957 C203.594,97.568 221.348,94.098 225.352,90.09 C228.529,86.909 228.23,78.284 224.687,70.904 C223.209,67.825 222,64.858 222,64.308 C222,63.759 221.1,62.495 220,61.5 C217.676,59.397 217.415,56.731 219.373,55.105 C222.196,52.762 225.57,56.296 231.685,68 C236.892,77.966 238.303,82.775 237.709,88.529 C236.706,98.247 230.894,103.233 217.905,105.517 C213.527,106.286 209.538,107.168 209.041,107.475 C207.017,108.726 196.742,106.654 194.149,104.472 C189.815,100.825 186.838,94.203 186.293,87 C186.023,83.425 185.588,80.279 185.326,80.008 C183.734,78.363 180.192,91.462 180.056,99.5 C180.018,101.7 179.315,104.789 178.494,106.364 C177.672,107.94 177,110.236 177,111.468 C177,114.179 172.76,119 170.376,119 C164.787,119 163.336,111.035 167.5,103.212 C168.875,100.629 170,97.301 170,95.817 C170,94.333 170.387,92.879 170.861,92.586 C171.334,92.293 171.984,89.229 172.305,85.777 C172.626,82.325 173.183,78.516 173.544,77.312 C174.14,75.326 173.802,75.096 169.874,74.812 C166.455,74.566 165.293,73.988 164.338,72.063 C162.92,69.204 164.171,66 166.706,66 C169.161,66 172,62.992 172,60.392 C172,59.128 172.516,56.961 173.147,55.577 C174.428,52.766 172.996,50 170.261,50 C169.439,50 167.044,48.225 164.939,46.056 C160.313,41.29 158.987,36.195 161.411,32.496 C163.587,29.174 166.189,29.349 170.468,33.106 C174.983,37.07 176.894,36.418 176.819,30.938 C176.756,26.377 177.955,25.04 182.128,25.015 C183.573,25.007 185.333,24.303 186.04,23.452 Z M132.909,35.61 C133.934,34.374 135.475,34.177 140.351,34.655 C143.733,34.986 146.833,35.555 147.24,35.919 C147.648,36.283 147.159,38.828 146.155,41.575 C145.151,44.322 144.028,49.454 143.66,52.979 C143.291,56.505 142.092,61.244 140.995,63.51 C139.898,65.777 139,68.334 139,69.194 C139,70.053 138.329,72.362 137.509,74.324 C135.202,79.845 138.703,80.301 143.416,75.093 C146.81,71.343 150.045,72.66 151.405,78.346 C152.221,81.754 150.667,84 147.493,84 C144.244,84 141.315,88.674 142.937,91.271 C143.645,92.404 144.143,96.903 144.143,102.16 C144.143,111.471 145.161,113.096 147.715,107.863 C149.763,103.668 152.85,101.411 154.809,102.677 C156.803,103.966 156.588,108.683 154.425,111.079 C153.641,111.947 152.998,113.522 152.996,114.579 C152.994,115.635 151.982,118.046 150.746,119.935 C149.511,121.824 147.81,124.484 146.968,125.846 C141.692,134.374 136.699,129.413 134.827,113.78 C134.077,107.51 134.095,104.167 134.892,101.881 C136.296,97.853 136.31,94.31 134.926,93.454 C133.13,92.345 129.228,96.936 128.655,100.833 C127.039,111.825 125.256,119.463 122.664,126.5 C121.853,128.7 120.869,132.654 120.476,135.286 C119.897,139.168 119.227,140.348 116.931,141.536 C114.947,142.562 114.106,143.006 113.399,142.848 C112.861,142.728 112.4,142.258 111.571,141.429 C109.996,139.853 109.399,133.934 110.685,132.648 C112.047,131.287 113.97,124.421 113.985,120.872 C113.993,118.877 114.615,115.727 115.366,113.872 C117.555,108.468 118.124,103 116.496,103 C115.738,103 114.84,103.45 114.5,104 C113.442,105.711 110.231,105.103 107.381,102.651 L104.65,100.302 L106.986,96.522 C108.646,93.836 110.941,92.011 114.911,90.218 C122.657,86.72 126,84.207 126,81.882 C126,80.792 126.614,78.686 127.364,77.2 C128.114,75.715 129.023,72.189 129.383,69.365 L130.038,64.23 L126.743,63.612 C121.998,62.721 116.268,57.627 115.04,53.206 C113.399,47.297 113.762,41.511 115.939,38.861 C117.774,36.627 118.03,36.583 120.689,38.031 C122.937,39.256 123.555,40.357 123.777,43.531 C124.162,49.052 125.915,52.156 128.443,51.794 C130.238,51.537 130.571,50.587 131.058,44.334 C131.365,40.392 132.198,36.466 132.909,35.61 Z M186.826,224.724 C188.847,224.511 191.175,224.276 192,224.203 C194.772,223.958 210.605,232.4 226.669,242.689 C229.513,244.51 232.246,246 232.743,246 C234.519,246 259.98,262.563 269,269.586 C278.99,277.364 280.024,279.444 275.406,282.47 C271.86,284.793 268.304,283.716 264.378,279.128 C262.624,277.079 259.236,274.075 256.848,272.452 C254.46,270.828 250.558,268.038 248.177,266.25 C245.795,264.462 243.036,263 242.046,263 C241.055,263 239.657,262.292 238.939,261.427 C238.221,260.562 235.817,258.927 233.598,257.795 C231.378,256.662 228.423,254.948 227.031,253.985 C210.711,242.697 196.405,235.18 189.299,234.159 C185.939,233.676 184.176,232.778 182.696,230.796 C180.133,227.361 181.547,225.281 186.826,224.724 Z M149.2,218.2 C149.86,217.54 151.179,217 152.132,217 C154.28,217 158,222.056 158,224.974 C158,228.83 149.099,239.57 138.504,248.5 C136.546,250.15 132.164,254.313 128.765,257.75 C125.366,261.188 121.956,264 121.187,264 C120.418,264 118.452,265.125 116.818,266.5 C115.184,267.875 112.96,269 111.876,269 C109.664,269 105,264.461 105,262.309 C105,260.198 109.457,256.172 112.664,255.386 C117.014,254.319 125.829,247.953 133.57,240.288 C140.623,233.305 148,223.332 148,220.781 C148,220.021 148.54,218.86 149.2,218.2 Z M163.674,146.623 C162.478,148.065 160.072,150.745 158.327,152.579 C155.862,155.169 154.976,157.202 154.353,161.706 C153.115,170.641 153.299,184.252 154.664,184.714 C155.96,185.154 169,172.175 169,170.444 C169,169.803 167.8,169.522 166.115,169.77 C161.916,170.386 158.748,168.422 159.531,165.689 C161.32,159.451 163.009,157.221 166.434,156.578 C168.329,156.223 170.981,156.208 172.326,156.546 C174.716,157.145 174.76,157.048 174.259,152.33 C173.977,149.673 173.058,146.713 172.218,145.75 C169.987,143.195 166.195,143.583 163.674,146.623 Z M58.126,125.762 C54.052,137.324 54.192,143.023 58.376,135.94 C59.37,134.258 61.201,132.494 62.445,132.021 C64.196,131.355 64.852,130.094 65.354,126.434 C66.043,121.409 64.991,118.991 62.128,119.012 C61.024,119.021 59.735,121.195 58.126,125.762 Z M173,180.445 C173,181.32 170.338,184.79 167.085,188.157 C163.711,191.648 161.394,194.862 161.692,195.639 C162.505,197.757 163.95,197.268 166.84,193.898 C168.303,192.192 171.214,189.694 173.31,188.348 C176.592,186.238 177.076,185.458 176.81,182.708 C176.485,179.365 173,177.294 173,180.445 Z M153,190.972 C153,195.924 154.316,198.084 156.191,196.209 C157.59,194.81 156.207,187.293 154.425,186.61 C153.311,186.182 153,187.133 153,190.972 Z M172.667,165.667 C171.29,167.043 172.073,169 174,169 C175.333,169 176,168.333 176,167 C176,165.073 174.043,164.29 172.667,165.667 Z"/>
</svg>

