<svg xmlns="http://www.w3.org/2000/svg" width="300" height="300" viewBox="0 0 300 300" version="1.1">
  <defs/>
  <path d="M65.692,24.75 C68.303,20.553 69.753,20.17 73.018,22.813 C75.252,24.622 75.253,24.644 73.666,32.563 C72.79,36.928 71.772,43.65 71.402,47.5 C71.032,51.35 70.251,55.4 69.665,56.5 C69.079,57.6 68.269,60.75 67.865,63.5 C67.461,66.25 66.817,70.638 66.435,73.25 C66.053,75.862 65.348,78 64.87,78 C64.391,78 64,79.025 64,80.277 C64,81.53 63.309,83.541 62.465,84.746 C61.621,85.951 60.672,89.989 60.357,93.719 C59.596,102.71 57.507,109.924 54.476,114.032 C50.993,118.753 51.271,120 55.806,120 C58.265,120 60.776,119.141 62.903,117.571 C66.484,114.93 72.715,113.457 75.958,114.487 C79.024,115.46 78.533,119.23 75,121.842 C70.867,124.898 70.722,129.72 74.75,130.184 C78.182,130.578 78.971,134.589 76.391,138.527 C74.492,141.424 73.293,154.415 74.386,160.242 C74.898,162.973 75.789,163.963 79.015,165.386 C84.19,167.67 85.681,170.311 83.594,173.497 C82.743,174.796 81.768,177.803 81.429,180.18 C81.089,182.556 80.113,186.423 79.261,188.772 C78.409,191.122 77.999,193.332 78.351,193.684 C78.702,194.036 80.778,193.733 82.963,193.012 C87.125,191.639 90,192.642 90,195.469 C90,197.487 83.463,203.587 77.802,206.851 C74.886,208.533 69.575,212.517 66,215.704 C62.425,218.892 57.925,222.352 56,223.394 C54.075,224.436 51.512,226.179 50.305,227.267 C47.568,229.734 43.301,228.932 42.093,225.722 C40.578,221.695 41.967,217.68 46.147,214 C54.734,206.443 60.008,200.469 59.756,198.588 C59.507,196.731 55.437,194.853 48.768,193.518 C47.266,193.217 44.43,191.561 42.467,189.837 C39.432,187.172 38.942,186.162 39.199,183.101 L39.5,179.5 L44,179.814 C46.475,179.986 50.477,181.031 52.893,182.136 C57.818,184.388 61.395,183.999 62.978,181.04 C63.548,179.976 64.303,175.042 64.655,170.078 C65.409,159.458 64.356,158.101 58.705,162.412 C54.793,165.395 53.285,165.588 50.287,163.489 C48.504,162.239 48.232,161.329 48.723,158.239 C49.63,152.533 51.691,150 55.427,150 C60.496,150 63.04,145.791 62.301,138.628 C61.707,132.872 60.875,131.482 57.654,130.858 C56.563,130.646 55.271,128.936 54.496,126.676 C53.775,124.572 52.929,122.596 52.616,122.283 C51.276,120.942 49.345,124.327 48.106,130.19 C46.057,139.889 43.966,146.903 42.934,147.541 C42.42,147.858 42,149.64 42,151.5 C42,153.36 41.592,155.134 41.092,155.443 C40.593,155.751 39.395,158.59 38.428,161.752 C37.462,164.913 36.358,167.95 35.974,168.5 C35.59,169.05 34.97,170.85 34.596,172.5 C34.222,174.15 32.97,177.525 31.813,180 C28.824,186.397 27.416,189.798 25.397,195.5 C24.423,198.25 22.81,201.573 21.813,202.885 C20.816,204.197 20,206.115 20,207.148 C20,208.182 19.583,209.809 19.073,210.764 C18.563,211.719 17.891,213.175 17.579,214 C17.268,214.825 16.593,216.175 16.08,217 C15.566,217.825 13.948,221.65 12.482,225.5 C11.017,229.35 8.284,234.376 6.409,236.668 C4.534,238.961 3,241.493 3,242.296 C3,243.098 2.325,244.315 1.5,245 C0.187,246.09 0,245.18 0,237.682 C0,229.774 0.306,228.467 4,220.62 C6.2,215.946 8,211.645 8,211.061 C8,210.477 8.45,210 9,210 C9.55,210 10,209.304 10,208.454 C10,207.603 11.623,203.441 13.607,199.204 C17.825,190.196 23.589,175.812 27.515,164.5 C29.041,160.1 30.594,156.05 30.965,155.5 C31.614,154.538 33.18,149.372 35.056,142 C38.765,127.429 39.39,125.61 44.339,114.996 C48.059,107.019 48.84,104.575 49.451,99 C50.062,93.426 52.942,80.663 54.017,78.764 C54.558,77.809 55,76.273 55,75.351 C55,73.628 57.617,64.059 59.061,60.5 C59.508,59.4 60.141,54.9 60.469,50.5 C61.439,37.464 63.209,28.742 65.692,24.75 Z M175.5,165.963 C186.262,162.558 190.418,162.348 194.75,164.989 L198,166.971 L198,175.926 C198,180.852 197.562,185.153 197.027,185.483 C196.492,185.814 195.553,187.946 194.94,190.222 C194.327,192.498 192.515,195.585 190.913,197.081 C189.311,198.578 188,200.221 188,200.734 C188,202.51 179.506,209.073 177.578,208.786 C175.037,208.408 174.542,206.601 176.455,204.688 C177.305,203.838 178,202.749 178,202.268 C178,201.787 179.276,199.618 180.835,197.447 C184.611,192.189 188.224,182.074 187.823,177.881 C187.542,174.937 187.112,174.465 184.5,174.227 C182.533,174.048 180.497,174.767 178.586,176.314 C176.207,178.24 175.623,179.553 175.401,183.471 C175.252,186.11 174.651,188.749 174.065,189.335 C173.479,189.921 173,191.633 173,193.141 C173,194.649 172.605,196.126 172.123,196.424 C171.641,196.722 170.731,199.009 170.103,201.507 C169.215,205.032 168.077,206.658 165.017,208.774 C161.245,211.383 159.622,215.022 162.25,214.98 C162.938,214.969 166.456,214.533 170.068,214.01 C181.919,212.295 222.358,212.532 232.5,214.376 C265.543,220.382 274.596,222.421 276.75,224.342 C279.515,226.808 279.662,230.961 277.095,234.131 C275.275,236.379 275.106,236.406 273.267,234.741 C272.122,233.705 269.744,233 267.394,233 C265.222,233 262.557,232.379 261.473,231.621 C259.054,229.93 248.373,227.459 245.123,227.838 C243.816,227.991 240.913,227.382 238.674,226.486 C233.68,224.488 201.749,222.625 189.638,223.625 C185.162,223.995 179.925,224.254 178,224.2 C176.075,224.146 171.8,224.512 168.5,225.013 C165.2,225.514 158.45,226.464 153.5,227.124 C148.359,227.81 143.419,229.072 141.98,230.067 C140.505,231.087 136.772,232.017 132.98,232.312 C126.011,232.852 115.598,235.068 114.401,236.266 C113.997,236.67 112.621,237 111.342,237 C110.064,237 105.909,238.39 102.109,240.089 C95.421,243.079 95.118,243.123 92.589,241.466 C89.898,239.703 88.309,235.926 89.469,234.05 C90.754,231.971 95.755,230.12 108.545,226.992 C130.479,221.625 130.601,221.574 127.539,219.032 C126.735,218.365 125.771,216.848 125.395,215.66 C124.508,212.849 118.981,205.817 112.588,199.365 C105.796,192.509 105,191.43 105,189.077 C105,185.559 112.614,183.393 114.938,186.25 C115.497,186.938 117.652,189.574 119.727,192.11 C121.802,194.645 124.016,197.57 124.647,198.61 C125.564,200.122 126.16,200.281 127.624,199.405 C128.631,198.803 129.69,197.373 129.977,196.226 C130.483,194.21 138.036,187.062 145.75,181.301 C147.813,179.76 150.114,177.918 150.864,177.207 C153.432,174.774 166.495,168.811 175.5,165.963 Z M128.428,38.972 C132.741,35.709 134.226,35.363 135.797,37.256 C138.457,40.461 138.193,43.667 134.882,48.365 C133.085,50.914 130.883,53 129.988,53 C129.093,53 125.949,54.8 123,57 C120.051,59.2 117.093,61 116.426,61 C113.988,61 114,64.212 116.45,67.123 C118.815,69.933 118.889,70.45 118.306,80.025 C117.736,89.374 117.817,90 119.599,89.999 C121.989,89.998 127,81.394 127,77.29 C127,75.687 126.1,72.513 125,70.236 C122.69,65.455 122.532,63.868 124.2,62.2 C126.226,60.174 130.489,60.828 133.053,63.557 C134.721,65.332 135.615,67.7 135.978,71.307 C136.45,76.003 136.75,76.529 139.114,76.803 C140.552,76.97 142.891,78.321 144.313,79.805 C146.665,82.259 146.813,82.886 145.952,86.716 C145.432,89.033 144.088,92.563 142.966,94.56 C141.844,96.558 141.175,98.976 141.479,99.933 C141.791,100.917 140.937,103.288 139.516,105.382 C138.132,107.421 137,109.654 137,110.344 C137,111.035 136.483,112.117 135.851,112.749 C134.986,113.614 135.079,114.471 136.224,116.22 C137.738,118.529 138.587,122.656 139.641,132.815 C140.224,138.428 138.486,142 135.174,142 C132.66,142 130,138.866 130,135.904 C130,134.372 129.55,132.84 129,132.5 C128.45,132.16 128,129.884 128,127.441 C128,122.47 127.142,122.051 123.003,124.998 L120.197,126.996 L120.378,138.248 C120.478,144.437 120.898,150.043 121.312,150.706 C122.223,152.168 124.184,151.483 129.657,147.789 C131.944,146.246 135.994,144.533 138.657,143.983 C141.321,143.433 144.711,142.714 146.19,142.386 C147.67,142.058 149.652,140.937 150.595,139.895 C152.812,137.445 155.229,137.49 157.521,140.024 C158.925,141.575 159.078,142.322 158.176,143.224 C157.529,143.871 157,145.178 157,146.129 C157,148.795 154.19,150.993 150.679,151.072 C148.926,151.111 143.911,153.103 139.5,155.512 C127.466,162.085 117.266,167 115.661,167 C114.874,167 113.503,165.891 112.615,164.535 C111.23,162.422 111,158.27 111,135.436 C111,120.786 110.504,101.137 109.899,91.77 C109.113,79.613 109.105,74.065 109.872,72.382 C111.386,69.059 110.331,67.164 106.766,66.807 C102.597,66.389 101.541,64.38 102.914,59.479 C103.773,56.413 105.42,54.41 110.096,50.75 C113.433,48.138 116.732,46 117.427,46 C118.121,46 119.505,45.1 120.5,44 C121.495,42.9 122.803,41.987 123.405,41.972 C124.007,41.957 126.268,40.607 128.428,38.972 Z M162.945,58.34 C165.448,57.092 167.726,57.718 169.708,60.195 C170.6,61.311 171.321,66.952 172.29,80.416 C172.406,82.02 172.965,83.487 173.532,83.677 C174.1,83.866 177.346,81.317 180.746,78.011 C185.997,72.904 187.472,72 190.553,72 C194.217,72 197.893,74.884 197.967,77.817 C198.014,79.703 193.008,86 191.461,86 C188.929,86 177.051,97.179 174.805,101.676 C173.249,104.791 171.532,106.586 169.162,107.577 C166.929,108.51 165.526,109.157 164.629,108.734 C163.049,107.988 163.036,103.922 162.816,92.25 C162.567,79.031 162.148,74.817 160.832,72.26 C158.436,67.609 159.59,60.013 162.945,58.34 Z M138.828,201.71 C132.835,208.084 129.89,218.253 133.622,219.685 C134.514,220.027 137.326,219.561 139.872,218.649 C142.417,217.737 145.712,216.992 147.193,216.995 C149.129,216.999 150.386,216.155 151.659,214 C152.634,212.35 153.784,211 154.216,211 C154.647,211 155,210.55 155,210 C155,209.45 153.677,209 152.059,209 C148.794,209 147.976,208.121 146.472,203 C145.142,198.472 142.32,197.996 138.828,201.71 Z M72.5,79.453 C74.341,78.767 82.487,80.141 83.619,81.327 C84.234,81.972 85.249,84.037 85.874,85.915 C86.83,88.788 86.742,89.628 85.316,91.203 C84.009,92.647 82.921,92.907 80.561,92.337 C78.877,91.931 75.025,91.577 72,91.549 L66.5,91.5 L66.199,86.282 C65.91,81.284 66.016,81.038 68.699,80.444 C70.239,80.104 71.95,79.658 72.5,79.453 Z M128.16,94.6 C126.014,96.104 124.609,96.104 121,94.603 C119.724,94.072 119.5,95.506 119.5,104.224 C119.5,113.041 119.735,114.516 121.187,114.796 C122.179,114.988 123.605,113.965 124.649,112.311 C125.625,110.765 127.678,108.259 129.212,106.741 C131.111,104.862 132.004,102.95 132.014,100.741 C132.021,98.959 132.299,96.487 132.63,95.25 C133.36,92.527 131.505,92.257 128.16,94.6 Z M185.472,105.901 C187.834,103.624 188.394,103.564 189.937,105.424 C190.672,106.31 190.867,108.191 190.453,110.401 C189.903,113.33 188.972,114.386 185.143,116.421 C182.589,117.778 179.041,119.67 177.258,120.626 C174.082,122.327 173.964,122.314 171.508,120.007 C170.128,118.712 169,117.124 169,116.478 C169,115.833 172.262,113.617 176.25,111.553 C180.238,109.49 184.387,106.946 185.472,105.901 Z M160.577,184.209 C156.926,187.659 156.57,189.046 156.849,198.75 C156.961,202.625 157.384,204 158.465,204 C160.916,204 162.897,198.737 165.667,184.868 C166.472,180.835 164.428,180.57 160.577,184.209 Z"/>
</svg>

