<svg xmlns="http://www.w3.org/2000/svg" width="300" height="300" viewBox="0 0 300 300" version="1.1">
  <defs/>
  <path d="M61.712,96.784 C64.304,94.153 67.197,92 68.14,92 C69.083,92 70.794,93.194 71.942,94.653 C73.671,96.851 73.918,98.136 73.386,102.146 C72.999,105.068 73.166,107.496 73.809,108.27 C75.723,110.576 74.749,138.182 72.429,147.428 C71.905,149.515 72.142,150 73.685,150 C75.208,150 75.856,148.754 76.934,143.75 C78.984,134.237 82.47,131.714 87.85,135.852 L90.199,137.659 L88.446,144.079 C87.482,147.611 86.066,151.234 85.299,152.132 C84.532,153.029 83.425,155.497 82.84,157.616 C82.255,159.735 80.927,162.549 79.888,163.869 C78.85,165.189 78,167.129 78,168.18 C78,169.231 76.875,171.216 75.5,172.591 C74.125,173.966 73,175.486 73,175.969 C73,176.452 71.829,178.238 70.399,179.938 C66.142,184.997 67.525,186.038 76.175,184.288 C80.204,183.472 83.927,182.399 84.45,181.903 C85.912,180.514 92.617,180.833 93.877,182.352 C94.679,183.318 94.702,184.557 93.958,186.691 C92.758,190.134 87.681,193.344 81,194.883 C61.868,199.29 57.916,200.409 53.5,202.667 C50.75,204.073 47.825,205.81 47,206.527 C46.175,207.244 43.851,208.137 41.836,208.511 C38.774,209.079 37.994,208.857 37.086,207.161 C35.367,203.95 35.735,199.035 37.75,198.292 C38.712,197.937 40.875,196.615 42.555,195.354 C44.235,194.092 47.677,192.146 50.203,191.028 C54.767,189.01 61.01,183.04 60.989,180.715 C60.959,177.446 59.64,172 58.878,172 C58.405,172 57.002,173.569 55.759,175.488 C53.062,179.652 52.032,179.774 47.215,176.5 C45.191,175.125 42.775,174 41.845,174 C39.163,174 34,169.086 34,166.534 C34,163.43 36.301,161.747 40.731,161.612 C43.825,161.518 44.645,161.948 45.768,164.25 C47.051,166.881 47.429,167 54.496,167 C58.558,167 62.091,166.661 62.347,166.247 C62.603,165.833 63.14,159.317 63.54,151.767 C64.406,135.428 63.745,134.338 56.959,140.924 C52.088,145.651 50.651,145.923 48.43,142.533 C46.258,139.219 47.311,132.353 50.128,131.459 C51.209,131.116 54.773,128.606 58.047,125.881 C63.261,121.542 64,120.488 64,117.392 C64,114.306 63.714,113.894 61.75,114.148 C57.949,114.639 57,113.255 57,107.225 C57,101.827 57.215,101.35 61.712,96.784 Z M177.872,138.657 C181.29,134.53 185.717,138.123 186.185,145.405 C186.607,151.95 188.334,152.985 194.147,150.171 C196.581,148.992 200.107,146.897 201.981,145.514 C206.217,142.388 206.534,142.394 209.548,145.646 C214.089,150.546 211.572,156.959 204.5,158.509 C202.85,158.871 200.15,159.761 198.5,160.487 C196.85,161.212 194.319,162.264 192.875,162.825 C192.326,163.038 191.853,163.196 191.445,163.457 C188.801,165.146 188.902,171.129 189.163,224 C189.334,258.763 188.472,281.513 186.865,284.657 C186.258,285.843 184.188,287.643 182.265,288.657 L178.768,290.5 L176.634,287.597 C175.46,286.001 172.895,283.076 170.933,281.097 C168.97,279.119 166.088,275.25 164.528,272.5 C162.967,269.75 159.51,264.037 156.845,259.805 C152.17,252.381 150.867,247.818 153.037,246.477 C154.087,245.828 158.846,250.343 164.71,257.553 C166.476,259.724 169.513,263.455 171.46,265.845 C173.407,268.234 175,270.597 175,271.095 C175,271.593 175.956,272 177.125,272 C178.921,272 179.163,271.565 178.688,269.189 C178.379,267.643 178.558,264.605 179.087,262.439 C180.327,257.355 179.953,192.267 178.61,179.5 C177.815,171.947 176.798,169.936 174.575,171.522 C167.54,176.541 163.776,179 163.13,179 C162.706,179 160.52,180.575 158.271,182.5 C151.974,187.89 147,186.925 147,180.313 C147,179.547 146.985,178.959 147.122,178.408 C147.623,176.392 150.168,174.884 163,167.054 C167.125,164.537 171.738,161.93 173.25,161.26 C174.762,160.591 176.052,159.471 176.115,158.771 C176.178,158.072 176.291,153.633 176.365,148.907 C176.454,143.272 176.972,139.744 177.872,138.657 Z M62.649,29.005 C65.584,25.517 65.798,25.47 68.866,27.619 C70.93,29.064 71.114,29.787 70.584,34.369 C70.258,37.191 70.004,41.187 70.02,43.248 C70.035,45.31 69.328,48.097 68.447,49.441 C66.12,52.993 66.984,56.106 71,58.636 C76.289,61.968 78.887,64.93 79.975,68.87 C80.856,72.063 80.681,72.723 78.292,75.217 C76.826,76.748 75.245,78 74.78,78 C74.314,78 72.358,76.425 70.433,74.5 C65.126,69.193 63.735,69.747 61.036,78.25 C59.771,82.237 57.258,90 55.452,95.5 C53.647,101 51.854,107.525 51.469,110 C50.756,114.584 50.072,116.175 43.513,128.5 C41.464,132.35 39.563,137.075 39.29,139 C39.016,140.925 38.444,142.95 38.018,143.5 C37.593,144.05 36.914,145.625 36.511,147 C35.531,150.336 30.277,162.828 28.454,166.154 C27.655,167.614 27,169.371 27,170.058 C27,171.826 22.07,182.154 20.223,184.256 C19.374,185.222 18.942,186.275 19.262,186.596 C19.583,186.917 18.308,190.176 16.428,193.84 C14.548,197.503 13.008,200.993 13.005,201.596 C12.995,203.744 9.816,209.028 7.924,210.041 C6.866,210.607 6,211.865 6,212.835 C6,215.107 4.091,217 1.8,217 C0.332,217 0,216.166 0,212.472 C0,209.108 1.26,205.314 4.898,197.722 C7.592,192.1 10.481,185.925 11.318,184 C12.155,182.075 14.451,176.827 16.42,172.338 C18.389,167.849 20,163.551 20,162.788 C20,162.025 20.398,160.973 20.884,160.45 C21.37,159.928 23.011,155.9 24.529,151.5 C26.048,147.1 27.605,143.05 27.99,142.5 C28.375,141.95 29.288,139.25 30.02,136.5 C31.499,130.945 33.658,126.293 38.708,117.788 C40.91,114.079 42.431,109.871 43.044,105.788 C44.052,99.088 45.89,92.144 47.091,90.5 C47.492,89.95 48.154,87.7 48.561,85.5 C48.969,83.3 50.051,79.7 50.968,77.5 C51.884,75.3 53.202,70.8 53.898,67.5 C54.593,64.2 55.615,59.7 56.168,57.5 C57.128,53.681 58.462,45.414 59.596,36.255 C59.902,33.78 61.175,30.757 62.649,29.005 Z M185.766,118.567 C186.078,118.255 189.888,118 194.232,118 C205.338,118 208.683,120.262 203.932,124.561 C202.242,126.091 200.567,126.38 194.759,126.143 C187.228,125.835 185.758,126.258 172.297,132.604 C168.335,134.472 164.691,136 164.2,136 C163.063,136 156.662,139.128 156,140.007 C155.252,141 141.284,149 140.298,149 C139.829,149 135.866,150.83 131.493,153.067 C117.706,160.117 107.692,162.781 99.558,161.561 C94.18,160.754 92,158.877 92,155.051 C92,150.994 94.049,149.735 99.353,150.53 C107.523,151.755 115.087,149.125 140.5,136.218 C163.034,124.773 163.815,124.46 179.85,120.467 C182.792,119.734 185.454,118.879 185.766,118.567 Z M159,57.029 C162.933,55.548 166.188,55.057 170.423,55.305 C175.675,55.613 176.653,56.019 179.046,58.885 C182.616,63.162 183.609,69.946 181.231,73.803 C180.279,75.347 178.15,78.834 176.5,81.553 C170.842,90.877 163.908,95.829 160.487,92.989 C158.405,91.262 158.621,89.647 161.5,85.405 C162.875,83.379 164,81.178 164,80.515 C164,79.852 164.848,78.542 165.885,77.604 C167.955,75.731 169.277,70.885 168.366,68.511 C167.644,66.63 165.066,66.568 162.473,68.371 C161.388,69.125 157.35,70.483 153.5,71.389 C141.63,74.182 135.876,75.885 131.605,77.869 C118.814,83.811 114,83.188 114,75.591 C114,73.79 114.858,72.608 116.95,71.526 C118.573,70.687 120.477,70 121.181,70 C121.885,70 124.945,69.04 127.981,67.866 C131.016,66.693 134.4,65.415 135.5,65.027 C142.094,62.699 147.883,60.753 150.5,59.982 C152.15,59.497 155.975,58.168 159,57.029 Z M124.5,172.945 C127.639,171.661 133.32,171.927 135.334,173.454 C138.115,175.561 141,181.591 141,185.296 C141,187.113 141.448,189.048 141.996,189.596 C143.345,190.945 140.5,196.363 135.045,202.831 C130.484,208.24 127.514,209.914 125.699,208.099 C125.095,207.495 122.53,207 120,207 C114.824,207 113,205.734 113,202.144 C113,199.903 108.681,192.963 106.791,192.167 C106.356,191.983 106,191.296 106,190.639 C106,189.983 104.65,188.261 103,186.813 C99.359,183.618 99.19,180.719 102.455,177.455 C105.759,174.15 107.403,174.358 110.707,178.5 C112.243,180.425 114.041,182 114.703,182 C115.364,182 117.389,180.147 119.203,177.882 C121.016,175.617 123.4,173.396 124.5,172.945 Z M141.633,12.541 C144.461,7.482 146.986,6.714 149.41,10.176 C150.762,12.105 151.238,12.213 153.619,11.128 C156.983,9.595 157.823,10.433 158.599,16.087 C159.19,20.405 159.067,20.697 155.647,23.039 C151.63,25.792 150.422,27.814 149.519,33.291 L148.894,37.083 L153.947,36.413 L159,35.742 L159,39.906 C159,44.626 156.615,49 154.041,49 C153.089,49 151.129,50.016 149.684,51.257 C148.24,52.498 145.481,54.363 143.554,55.401 C140.687,56.945 139.774,57.057 138.526,56.021 C137.687,55.325 137,54.129 137,53.364 C137,52.599 136.44,51.076 135.755,49.98 C134.711,48.308 134.873,47.303 136.758,43.743 C139.059,39.399 139.701,34.551 138.106,33.566 C137.615,33.262 135.547,33.709 133.512,34.56 C130.149,35.965 129.586,35.958 127.349,34.493 C125.344,33.179 124.943,32.194 125.193,29.19 C125.497,25.536 125.558,25.488 131.459,24.324 C137.374,23.157 140.529,20.821 139.569,18.32 C139.308,17.64 140.237,15.039 141.633,12.541 Z M147.85,79.626 C152.54,75.707 157.584,74.751 158.667,77.575 C159.608,80.026 157.3,86.369 154.517,88.984 C153.133,90.285 152,92.369 152,93.615 C152,94.862 151.55,96.16 151,96.5 C150.45,96.84 150,100.044 150,103.62 L150,110.123 L154.356,109.469 C158.435,108.858 158.879,109.028 161.358,112.158 C163.955,115.438 163.968,115.53 162.068,117.107 C161.003,117.991 157.29,119.264 153.816,119.936 C150.342,120.609 144.182,122.295 140.126,123.683 L132.752,126.206 L130.187,123.641 C127.689,121.144 127.67,121.023 129.448,119.058 C130.453,117.947 132.8,116.753 134.664,116.403 C139.018,115.586 140.169,113.304 139.799,106.224 L139.5,100.5 L136,100.488 C130.886,100.472 130,99.501 130,93.91 C130,90.075 130.4,88.797 131.75,88.323 C137.628,86.26 144.081,82.774 147.85,79.626 Z M148.5,209.685 C154.58,207.419 160.315,207.585 162.583,210.092 C164.461,212.167 164.44,212.214 159.988,216.021 C157.52,218.132 153.94,220.154 152.034,220.515 C150.127,220.876 147.358,222.033 145.879,223.086 C141.963,225.875 140.22,225.463 138.497,221.339 C135.924,215.181 136.947,213.989 148.5,209.685 Z M122.682,188.542 C119.28,191.535 119.315,195.332 122.75,195.82 C123.987,195.995 125,195.69 125,195.141 C125,194.592 125.599,193.544 126.331,192.812 C127.064,192.079 127.972,190.247 128.35,188.74 C128.907,186.521 128.702,186.006 127.269,186.032 C126.296,186.049 124.232,187.179 122.682,188.542 Z"/>
</svg>

