<svg xmlns="http://www.w3.org/2000/svg" width="300" height="300" viewBox="0 0 300 300" version="1.1">
  <defs/>
  <path d="M176,146.537 C180.318,143.974 186.047,144.59 190.272,148.073 C192.322,149.763 194,151.756 194,152.501 C194,153.247 194.589,154.452 195.308,155.179 C196.972,156.859 199.003,171.789 198.549,179 C197.913,189.078 195.819,201.42 194.401,203.445 C193.63,204.545 193,206.288 193,207.318 C193,208.348 192.258,210.448 191.35,211.984 C190.423,213.554 189.995,215.545 190.374,216.532 C190.961,218.062 191.969,218.209 198.265,217.681 C205.326,217.089 205.552,217.143 208.664,220.159 C212.083,223.473 212.086,224.963 208.677,228.75 C206.5,231.169 204.037,231.637 202.352,229.952 C201.776,229.376 196.843,228.813 191.39,228.702 L181.475,228.5 L176.988,232.092 C171.765,236.273 164.589,239.322 161.946,238.483 C157.797,237.166 158.76,231.472 163.244,230.81 C164.399,230.64 165.551,229.87 165.805,229.1 C166.176,227.974 165.412,227.842 161.883,228.426 C159.472,228.824 156.375,229.289 155,229.459 C153.625,229.628 150.7,230.267 148.5,230.878 C146.3,231.489 142.555,231.991 140.179,231.994 C137.677,231.998 135.225,232.632 134.357,233.5 C130.249,237.608 126.449,233.916 125.609,225 C124.407,212.252 123.884,208.473 123.048,206.5 C122.582,205.4 121.408,201.8 120.44,198.5 C119.472,195.2 117.627,190.821 116.34,188.77 C115.053,186.718 114,184.437 114,183.7 C114,182.963 112.9,181.404 111.556,180.235 C108.348,177.446 107.147,171.425 109.357,169.215 C111.429,167.143 115.967,168.55 117.568,171.76 C118.178,172.984 119.35,174.777 120.171,175.743 C120.993,176.709 122.427,179.168 123.359,181.208 C124.291,183.247 125.491,185.186 126.027,185.517 C126.562,185.847 127,187.223 127,188.573 C127,189.923 127.409,191.809 127.908,192.764 C130.03,196.82 133.376,209.971 133.758,215.75 C134.14,221.531 134.347,222 136.526,222 C137.822,222 139.16,221.55 139.5,221 C139.84,220.45 141.501,220 143.191,220 C147.135,220 152.577,214.472 153.232,209.801 C153.487,207.986 154.037,205.713 154.455,204.75 C155.615,202.076 152.766,202.556 150,205.5 C145.749,210.025 138,208.128 138,202.562 C138,200.306 140.717,197.816 150.957,190.685 C154.701,188.079 155.001,187.524 155.011,183.185 C155.017,180.608 155.3,176.82 155.639,174.768 C156.698,168.361 152.918,168.957 144,176.603 C142.625,177.782 140.15,179.37 138.5,180.133 C136.322,181.14 135.246,182.545 134.574,185.26 C133.707,188.757 131.81,190.12 130.58,188.129 C129.553,186.468 133.057,175.721 135.637,172.619 C138.684,168.954 145.407,163.327 150.114,160.5 C151.946,159.4 155.033,157.517 156.973,156.315 C158.913,155.113 163.425,152.755 167,151.075 C170.575,149.395 174.625,147.353 176,146.537 Z M72.936,105.543 C78.926,101.512 79.642,101.366 82.171,103.655 C85.056,106.265 84.59,112.081 81.25,115.166 C79.737,116.564 77.666,118.002 76.646,118.362 C75.472,118.777 75.014,119.594 75.396,120.59 C75.728,121.456 76,123.223 76,124.518 C76,126.427 76.597,126.933 79.149,127.187 C84.168,127.686 84.904,130.141 81.218,134.085 L78.103,137.419 L78.269,155.241 C78.413,170.654 78.642,173.023 79.968,172.77 C81.473,172.482 82.821,168.601 85.477,156.908 C87.727,146.999 90.908,144.146 95.848,147.606 C97.835,148.998 98.053,149.764 97.484,153.356 C96.517,159.466 89.561,173.517 84.6,179.381 C79.999,184.822 74.616,192.949 75.216,193.549 C75.828,194.161 82.812,191.473 84.707,189.896 C85.693,189.076 88.352,187.169 90.617,185.659 C92.881,184.149 95.772,181.807 97.041,180.456 C98.447,178.96 100.465,178 102.206,178 C108.157,178 106.704,183.107 98.336,191.604 C95.126,194.863 90.813,198.381 88.75,199.422 C86.688,200.463 85,201.633 85,202.022 C85,202.41 82.862,203.519 80.25,204.485 C77.638,205.451 74.502,206.863 73.282,207.622 C72.063,208.382 68.74,209.92 65.898,211.04 C63.057,212.16 57.628,215.084 53.835,217.538 C45.823,222.721 41.881,223.274 39.446,219.558 C36.154,214.534 39.242,210.868 51.622,205.101 C57.146,202.528 67,189.725 67,185.122 C67,184.711 64.412,184.351 61.25,184.321 C58.087,184.292 53.925,183.929 52,183.515 C45.277,182.07 41.197,175.65 44.606,171.882 C46.751,169.512 49.445,169.49 52.846,171.814 C54.306,172.811 57.35,174.213 59.611,174.928 C63.226,176.071 64.04,176.02 66.361,174.499 C68.886,172.844 69,172.386 69,163.854 C69,154.061 68.024,152.469 63.824,155.411 C62.576,156.285 60.765,157 59.801,157 C57.25,157 54.811,152.681 55.181,148.821 C55.459,145.932 56.02,145.33 59.5,144.196 C61.7,143.479 63.95,142.444 64.5,141.896 C65.05,141.349 65.553,136.447 65.618,131.004 L65.736,121.107 L62.618,120.803 C59.576,120.507 59.504,120.383 59.666,115.704 C59.871,109.76 61.39,107.707 64.995,108.499 C67.017,108.943 68.957,108.221 72.936,105.543 Z M63.781,25.75 C64.782,23.395 65.532,23 69,23 C72.495,23 73.194,23.376 74.105,25.75 C74.685,27.262 75.169,29.85 75.179,31.5 C75.202,35.137 73.369,48.631 71.918,55.5 C71.337,58.25 70.78,61.837 70.681,63.472 C70.517,66.161 70.848,66.501 74.155,67.049 C76.374,67.416 79.81,69.33 82.905,71.92 C87.161,75.484 88,76.736 88,79.522 C88,82.695 85.924,86 83.931,86 C83.422,86 81.317,84.477 79.253,82.615 C77.189,80.753 73.709,78.482 71.52,77.569 C67.78,76.01 67.463,76.014 66.27,77.646 C65.571,78.601 64.997,80.084 64.994,80.941 C64.99,81.799 64.315,83.789 63.494,85.364 C62.672,86.94 62,89.266 62,90.533 C62,91.801 61.366,94.112 60.591,95.669 C57.289,102.3 55.096,108.807 54.695,113.159 C54.459,115.722 53.382,119.772 52.301,122.159 C51.22,124.547 49.173,129.2 47.752,132.5 C46.331,135.8 44.456,140.143 43.584,142.151 C42.713,144.159 42,146.348 42,147.016 C42,148.349 33.465,174.698 31.478,179.5 C30.795,181.15 29.7,184.181 29.045,186.236 C28.39,188.291 27.437,190.23 26.927,190.545 C26.417,190.86 26,191.955 26,192.978 C26,194.001 25.249,196.337 24.331,198.169 C21.314,204.19 21,204.959 21,206.331 C21,207.079 20.1,208.505 19,209.5 C17.9,210.495 17,212.575 17,214.121 C17,216.914 16.539,218.205 11.585,229.277 C10.163,232.455 9,235.662 9,236.405 C9,238.575 6.344,240.17 3.31,239.822 C0.951,239.552 0.45,238.978 0.186,236.244 C-0.005,234.257 0.604,231.919 1.75,230.244 C2.782,228.735 4.247,225.475 5.003,223 C5.76,220.525 7.395,216.25 8.636,213.5 C9.877,210.75 11.641,205.8 12.557,202.5 C13.472,199.2 14.622,196.073 15.111,195.55 C15.6,195.028 16,193.579 16,192.331 C16,191.083 16.856,188.36 17.901,186.281 C20.155,181.798 22.291,176.818 24.025,172 C24.718,170.075 26.058,166.7 27.002,164.5 C28.796,160.322 31.832,150.714 34.586,140.5 C35.475,137.2 38.114,130.668 40.449,125.985 C42.784,121.301 45.24,115.001 45.907,111.985 C46.573,108.968 47.767,104.415 48.559,101.866 C49.352,99.317 50,96.306 50,95.175 C50,94.044 50.379,92.884 50.841,92.598 C51.304,92.312 52.493,88.573 53.482,84.289 C54.472,80.005 55.593,76.05 55.973,75.5 C56.353,74.95 57.248,71.8 57.961,68.5 C58.674,65.2 59.926,59.8 60.742,56.5 C61.558,53.2 62.313,45.55 62.419,39.5 C62.525,33.45 63.138,27.262 63.781,25.75 Z M184.5,66.667 C185.6,66.428 189.053,66.18 192.173,66.116 C196.916,66.019 198.351,66.425 200.923,68.589 C205.648,72.565 205.192,76.522 199.221,83.345 C196.592,86.349 193.793,90.088 193.001,91.653 C192.209,93.219 189.621,96.47 187.251,98.877 C184.881,101.285 181.836,105.673 180.485,108.627 C178.699,112.532 177.477,114 176.014,114 C174.463,114 174,113.34 174,111.126 C174,106.276 176.631,100.418 183.458,90.063 C187.056,84.606 190,79.66 190,79.071 C190,76.845 173.493,78.459 169,81.125 C166.886,82.379 164.501,83.426 156.5,86.613 C152.65,88.147 146.823,91.112 143.551,93.201 C140.279,95.29 137.306,97 136.943,97 C136.581,97 133.788,100.134 130.736,103.964 C127.041,108.602 124.968,112.23 124.529,114.83 C123.746,119.464 120.643,121.629 116.333,120.547 C112.545,119.597 111.461,118.573 109.052,113.669 C107.925,111.376 104.303,106.816 101.002,103.536 C95.187,97.759 94.133,95.423 95.607,91.582 C95.992,90.58 97.429,90 99.529,90 C102.271,90 103.651,90.909 107.501,95.25 C110.062,98.138 112.561,101.513 113.054,102.75 C114.413,106.161 117.713,105.623 119.342,101.725 C120.813,98.204 127.108,91 128.713,91 C129.25,91 130.509,90.095 131.51,88.989 C133.745,86.52 153.015,77 155.779,77 C156.316,77 157.315,76.325 158,75.5 C158.685,74.675 160.45,74 161.922,74 C163.395,74 165.028,73.633 165.55,73.185 C166.493,72.376 180.662,67.502 184.5,66.667 Z M175.5,159.068 C173.85,160.125 171.375,160.999 170,161.01 C165.604,161.046 164.634,162.432 164.285,169.179 C164.105,172.656 163.855,176.611 163.729,177.969 C163.36,181.945 166.052,181.436 171.742,176.451 C177.841,171.108 181.294,170.708 181.82,175.283 C182.061,177.388 180.973,179.506 177.351,183.981 C174.718,187.234 171.649,190.418 170.531,191.056 C166.308,193.468 163.13,198.501 162.627,203.571 C162.358,206.282 161.601,209.997 160.945,211.826 C160.268,213.712 160.13,215.505 160.626,215.969 C161.107,216.418 165.546,216.497 170.491,216.143 L179.482,215.5 L181.722,211 C182.954,208.525 184.451,204.025 185.049,201 C185.648,197.975 186.639,193.7 187.252,191.5 C188.852,185.758 189.213,172.3 187.916,166.762 C185.788,157.678 181.662,155.121 175.5,159.068 Z M141.645,27.688 C144.754,24.579 151,30.347 151,36.328 C151,40.647 153.115,41.246 158.756,38.525 C161.55,37.177 164.124,35.608 164.477,35.037 C165.632,33.168 169.604,33.949 172.019,36.52 C174.156,38.795 174.271,39.363 173.194,42.341 C172.537,44.157 172,47.482 172,49.731 C172,52.932 171.184,54.872 168.245,58.66 C166.18,61.322 163.2,65.402 161.625,67.727 C157.819,73.343 156.533,74.358 155.249,72.762 C154.003,71.214 155.921,63.239 159.353,55.706 C162.703,48.351 163.243,46.268 161.997,45.498 C161.4,45.129 160.211,45.41 159.355,46.121 C156.32,48.639 151,58.08 151,60.948 C151,62.548 150.396,64.461 149.658,65.199 C148.92,65.937 147.782,67.539 147.129,68.759 C145.679,71.468 141.525,72.681 139.487,70.989 C137.711,69.515 137.551,65.692 139.158,63.119 C140.737,60.59 139.502,57.592 137.242,58.466 C131.55,60.668 130.175,60.355 128.561,56.491 C125.563,49.317 127.06,46.902 134.756,46.495 C137.365,46.358 140.127,46.19 140.893,46.122 C142.025,46.023 142.162,44.345 141.622,37.188 C141.256,32.342 141.266,28.067 141.645,27.688 Z M152.746,103.134 C157.058,99.611 157.817,99.479 162.497,101.434 C166.225,102.992 167.251,105.322 167.409,112.596 C167.468,115.332 166.875,117.48 165.701,118.777 C164.438,120.174 164.101,121.555 164.57,123.423 C165.381,126.654 162.777,130 159.451,130 C157.173,130 153.369,133.292 149.174,138.894 C147.895,140.602 146.24,142 145.497,142 C143.407,142 140.06,137.122 138.848,132.312 C138.246,129.922 137.359,127.722 136.877,127.424 C136.395,127.126 136,125.839 136,124.563 C136,123.288 135.325,121.685 134.5,121 C131.689,118.667 133.15,113.06 137.125,110.933 C138.865,110.002 139.649,110.248 141.939,112.441 C145.43,115.786 147.587,114.981 148.378,110.039 C148.828,107.224 149.992,105.383 152.746,103.134 Z M149.655,120.829 C147.91,122.757 147.407,126 148.852,126 C150.259,126 156.315,121.594 156.756,120.25 C157.409,118.263 151.545,118.74 149.655,120.829 Z"/>
</svg>

