<svg xmlns="http://www.w3.org/2000/svg" width="300" height="300" viewBox="0 0 300 300" version="1.1">
  <defs/>
  <path d="M161.905,18.013 C170.659,16.532 175.175,16.862 178.64,19.236 C182.738,22.044 183.728,26.692 181.545,32.876 C180.695,35.282 180,38.19 180,39.338 C180,40.486 178.935,42.342 177.633,43.462 C176.33,44.583 174.007,48.552 172.469,52.281 C169.836,58.669 163.679,66 160.949,66 C160.374,66 158.041,66.9 155.764,68 C153.487,69.1 151.241,70 150.772,70 C150.303,70 148.587,70.985 146.96,72.188 C144.804,73.782 143.999,75.208 143.996,77.438 C143.993,79.163 142.685,82.465 141,85 C139.355,87.475 138.007,90.085 138.004,90.8 C138.002,91.514 137.298,93.457 136.44,95.117 C133.477,100.845 135.115,101.32 141.234,96.506 C147.489,91.586 162.183,84.657 174,81.056 C180.196,79.167 183.027,78.855 190.285,79.261 C196.442,79.606 199.606,80.238 200.863,81.376 C201.85,82.269 203.152,83 203.756,83 C205.1,83 211,90.009 211,91.605 C211,92.238 211.675,93.315 212.5,94 C213.325,94.685 214,96.45 214,97.922 C214,99.395 214.42,101.027 214.933,101.55 C216.566,103.211 217.345,125.819 216.094,135.219 C214.416,147.832 206.903,176.43 204.685,178.648 C202.885,180.448 204.403,186.729 208.949,196.296 C214.601,208.19 217.999,216.761 217.999,219.128 C218,220.023 218.618,221.268 219.373,221.895 C220.129,222.522 221.051,225.323 221.421,228.12 C222.227,234.195 220.351,238 216.55,238 C213.013,238 210.4,233.944 208.988,226.262 C208.304,222.543 207.127,217.983 206.372,216.128 C205.617,214.273 205,212.006 205,211.089 C205,210.173 204.1,207.658 203,205.5 C201.9,203.342 201,200.997 201,200.289 C201,197.708 197.342,199.054 195.668,202.25 C194.732,204.037 192.632,207.525 191.003,210 C189.373,212.475 187.612,215.46 187.09,216.632 C185.164,220.953 176.809,225.21 173,223.811 C169.136,222.393 163.166,216.037 160.414,210.413 C158.395,206.287 158.116,204.824 158.938,202.663 C159.495,201.199 160.5,200 161.171,200 C163.276,200 168,205.271 168,207.619 C168,210.664 173.62,214.725 175.882,213.314 C178.316,211.796 182.47,205.499 187.417,195.828 C192.246,186.387 192.353,184.517 188.341,179.673 C187.054,178.119 186,176.319 186,175.673 C186,174.053 176.268,159 175.221,159 C174.755,159 173.052,160.397 171.437,162.105 C168.048,165.688 151.31,180 150.509,180 C150.214,180 147.572,181.912 144.639,184.25 C141.706,186.588 138,189.236 136.403,190.136 C134.806,191.036 130.817,193.424 127.537,195.441 C123.345,198.021 120.883,198.937 119.245,198.525 C114.444,197.32 115.132,190.691 120.286,188.504 C126.887,185.701 134,177.147 134,172.01 C134,170.967 134.857,168.626 135.905,166.807 C136.953,164.988 138.102,161.679 138.459,159.454 C139.084,155.553 138.972,155.337 135.342,153.426 C133.271,152.335 131.334,150.556 131.038,149.471 C130.228,146.506 124.939,138 123.905,138 C122.398,138 122.88,130.344 124.47,129.025 C125.433,128.225 127.59,128.016 130.72,128.419 C134.612,128.919 136.244,128.607 139.5,126.738 C143.028,124.714 143.562,123.915 144.026,119.971 C144.315,117.512 144.904,114.938 145.335,114.25 C146.831,111.862 153,113.092 153,115.778 C153,119.193 155.79,120.727 161.077,120.219 C165.576,119.786 166.428,120.036 169.057,122.554 C170.676,124.105 172,125.727 172,126.157 C172,128.515 166.725,137.915 164.078,140.273 C162.385,141.781 161,143.592 161,144.296 C161,145 159.013,147.237 156.585,149.267 C152.764,152.461 146,161.016 146,162.655 C146,162.96 144.899,165.401 143.554,168.079 C142.098,170.978 141.506,173.195 142.091,173.556 C143.336,174.326 155.315,166.178 161.946,160.05 C166.467,155.872 167.016,154.911 167.148,150.94 C167.229,148.498 167.342,145.652 167.398,144.615 C167.541,141.968 170.19,140.58 173.509,141.413 C176.281,142.109 184.968,150.519 184.989,152.527 C184.995,153.092 186.804,155.955 189.009,158.89 C191.214,161.824 193.28,165.267 193.599,166.54 C194.201,168.937 196.502,170.426 198.09,169.444 C198.591,169.135 199,167.585 199,166 C199,164.415 199.45,162.84 200,162.5 C200.55,162.16 201,160.754 201,159.375 C201,157.997 201.407,156.108 201.905,155.178 C205.837,147.83 207.444,111.699 204.274,101.886 C201.019,91.806 191.438,86.882 180.566,89.703 C177.815,90.416 174.296,91 172.747,91 C171.197,91 168.728,91.787 167.26,92.749 C165.791,93.712 163.107,95.062 161.295,95.749 C159.483,96.437 156.411,97.599 154.468,98.332 C152.525,99.065 150.41,100.19 149.768,100.832 C149.126,101.474 147.924,102 147.098,102 C146.271,102 144.141,103.41 142.364,105.132 C138.865,108.524 136.198,108.472 135.288,104.995 C134.461,101.831 132.11,102.668 130.362,106.75 C128.858,110.261 128.318,111.362 125.573,116.512 C124.983,117.619 122.474,121.669 119.998,125.512 C117.523,129.355 115.048,133.217 114.498,134.094 C111.93,138.197 105.63,145.909 101.658,149.814 C98.125,153.287 96.319,154.262 92.385,154.821 C87.751,155.479 87.372,155.771 85,160.507 C83.625,163.253 81.208,166.85 79.629,168.5 C75.795,172.505 73.589,175.923 74.348,176.682 C74.689,177.022 77.266,176.108 80.076,174.65 C82.886,173.193 85.953,172 86.892,172 C87.832,172 89.028,171.576 89.55,171.057 C90.073,170.539 92.353,169.7 94.617,169.193 C98.887,168.238 102,169.116 102,171.275 C102,173.297 93.675,179.985 89.866,181.024 C87.868,181.569 85.675,182.686 84.994,183.507 C84.313,184.328 82.965,185 82,185 C81.035,185 79.685,185.675 79,186.5 C78.315,187.325 77.023,188.007 76.128,188.015 C74.177,188.033 67.319,190.348 66.352,191.315 C65.975,191.692 64.392,192 62.833,192 C61.275,192 60,192.39 60,192.867 C60,193.916 50.439,198 47.982,198 C45.536,198 42.698,193.34 43.411,190.497 C43.783,189.015 45.646,187.382 48.59,185.957 C51.118,184.732 54.189,182.779 55.413,181.615 C58.924,178.278 64.17,170.084 63.495,168.992 C63.158,168.446 61.253,168 59.262,168 C55.871,168 53.725,167.486 45.011,164.586 C39.025,162.594 37.604,155.861 42.757,153.902 C44.759,153.141 46.704,153.653 52.795,156.544 C64.002,161.863 65.374,161.122 66.298,149.25 C66.673,144.424 66.534,144 64.565,144 C63.387,144 60.658,144.9 58.5,146 C51.788,149.422 48,148.244 48,142.734 C48,136.688 52.401,132.806 56.667,135.089 C58.88,136.274 59.376,136.091 62.545,132.921 C66.254,129.212 66.573,127.757 66.202,116.25 L66,110 L62.469,110 C58.487,110 57.658,108.789 58.793,104.626 C59.376,102.486 61.002,101.009 65.16,98.839 C70.004,96.312 71.088,96.083 73.343,97.11 C76.419,98.512 78.882,104.518 77.108,106.292 C76.499,106.901 76,108.856 76,110.637 C76,113.534 76.33,113.906 79.149,114.187 C83.056,114.575 85.024,117.24 83.26,119.75 C80.553,123.602 78.772,129.042 76.514,140.361 C74.077,152.573 74.13,155.316 76.793,154.799 C78.232,154.52 79.966,150.371 81.464,143.622 C82.393,139.436 87.174,134.971 89.949,135.697 C93.175,136.541 94.672,140.376 92.996,143.507 C91.533,146.241 91.952,147.361 94.107,146.473 C96.168,145.623 109,127.573 109,125.523 C109,125.316 111.308,121.401 114.128,116.823 C119.64,107.878 124.958,96.949 126.939,90.5 C127.615,88.3 129.1,84.475 130.24,82 C131.637,78.965 132.401,74.993 132.586,69.799 L132.86,62.098 L129.18,60.299 C125.521,58.51 122.147,53.47 122.048,49.644 C122.022,48.623 118.85,43.515 115,38.292 C109.796,31.233 108,27.981 108,25.621 C108,22.424 110.335,18 112.022,18 C113.776,18 120,24.226 120,25.981 C120,26.957 120.705,28.34 121.566,29.055 C122.427,29.77 123.789,31.625 124.592,33.177 C126.531,36.927 128.344,36.738 133.508,32.25 C135.881,30.188 141.35,26.777 145.661,24.671 C149.973,22.566 154.357,20.381 155.405,19.816 C156.452,19.252 159.377,18.44 161.905,18.013 Z M75,24.652 C75.825,24.38 76.645,24.122 76.821,24.079 C76.998,24.036 77.84,24.697 78.691,25.549 C80.781,27.638 79.89,32.765 75.474,44.066 C73.563,48.956 72,53.84 72,54.919 C72,55.999 71.55,57.16 71,57.5 C70.45,57.84 69.997,58.879 69.994,59.809 C69.99,60.739 69.315,62.789 68.494,64.364 C67.672,65.94 67,68.083 67,69.128 C67,70.172 66.6,71.809 66.111,72.764 C63.994,76.897 62.093,81.814 60.991,86 C60.34,88.475 59.409,91.175 58.923,92 C57.106,95.085 53,104.094 53,104.996 C53,105.903 50.669,111.695 48.878,115.236 C48.395,116.191 48,117.618 48,118.405 C48,119.193 47.337,121.112 46.526,122.669 C44.078,127.371 42.18,132.255 40.957,137 C40.318,139.475 38.942,143.272 37.898,145.438 C36.854,147.604 35.997,150.079 35.993,150.938 C35.99,151.797 35.093,153.85 34,155.5 C32.907,157.15 32.01,159.107 32.007,159.849 C32.003,160.591 31.347,162.616 30.548,164.349 C29.749,166.082 27.731,170.984 26.062,175.242 C22.963,183.147 22.577,184.028 19.669,189.831 C18.751,191.663 18,193.604 18,194.144 C18,196.277 11.783,207.855 9.473,210.026 C7.368,212.003 6.663,212.168 4.51,211.186 C0.698,209.449 1.286,205.89 7.435,193.5 C13.652,180.973 18,171.341 18,170.097 C18,169.631 19.068,166.83 20.374,163.874 C21.679,160.918 23.974,154.675 25.474,150 C26.973,145.325 29.28,139.125 30.6,136.223 C31.92,133.32 33,130.502 33,129.959 C33,129.417 33.412,128.191 33.916,127.236 C35.29,124.631 37.342,119.582 41.529,108.5 C43.607,103 45.607,98.05 45.973,97.5 C46.34,96.95 47.252,94.475 48,92 C48.748,89.525 49.663,87.05 50.032,86.5 C50.401,85.95 51.504,83.025 52.481,80 C54.815,72.779 56.979,66.934 58.152,64.685 C59.524,62.052 63.998,43.99 64.012,41.023 C64.019,39.635 65.144,36.542 66.512,34.148 C67.88,31.754 69,29.243 69,28.567 C69,27.424 71.461,25.818 75,24.652 Z M73.804,61.624 C76.385,59.044 84,61.363 84,64.729 C84,65.545 85.366,67.936 87.035,70.044 C89.347,72.963 89.916,74.486 89.426,76.441 C88.751,79.129 83.723,84 81.623,84 C79.529,84 78,81.727 78,78.614 C78,76.947 77.062,74.631 75.875,73.367 C72.971,70.276 71.799,63.63 73.804,61.624 Z M159.24,28.753 C157.235,29.422 157.813,31.647 160.44,33.369 C162.535,34.741 162.796,35.499 162.288,38.734 C161.963,40.805 160.64,44.834 159.349,47.686 C156.525,53.92 156.519,54 158.833,54 C161.046,54 165.946,47.997 168.218,42.5 C171.04,35.672 172.254,30.851 171.358,30.025 C170.368,29.113 161.085,28.138 159.24,28.753 Z M147.279,35.158 C144.207,37.058 144.087,37.366 144.676,41.825 C145.483,47.943 146.749,51.25 148.108,50.797 C149.769,50.244 153.914,39.938 153.96,36.25 C154.008,32.389 152.226,32.098 147.279,35.158 Z M132,46.451 C132,46.699 132.487,49.174 133.083,51.951 C134.108,56.732 135.986,58.449 137.504,55.994 C138.234,54.813 135.966,47.833 134.505,46.765 C133.375,45.94 132,45.767 132,46.451 Z M140.25,137.651 C138.424,138.405 138.721,142.956 140.645,143.694 C142.532,144.418 145.22,141.379 144.767,139.031 C144.46,137.437 142.339,136.789 140.25,137.651 Z M154.476,134.075 C153.727,136.436 154.363,137.512 155.933,136.541 C157.245,135.731 157.355,132 156.067,132 C155.554,132 154.838,132.934 154.476,134.075 Z"/>
</svg>

