<svg xmlns="http://www.w3.org/2000/svg" width="300" height="300" viewBox="0 0 300 300" version="1.1">
  <defs/>
  <path d="M68.782,28.062 C71.271,26.612 74.573,26.781 75.941,28.429 C77.216,29.966 76.589,34.071 71.928,54.706 C70.487,61.088 71.004,62.622 74.885,63.475 C78.925,64.362 82.62,67.398 84.511,71.383 C86.586,75.755 84.711,82.328 81.249,82.82 C79.606,83.053 79,82.636 79,81.272 C79,78.668 71.672,71.724 69.388,72.164 C68.082,72.415 67.03,74.387 65.734,79.008 C62.391,90.93 61.573,93.484 60.289,96 C58.695,99.122 58.621,103 60.156,103 C60.792,103 63.38,100.75 65.909,98 C68.437,95.25 71.255,93 72.171,93 C77.482,93 78.423,96.156 74.5,100.818 C73.125,102.452 72,104.138 72,104.566 C72,104.993 71.376,106.053 70.613,106.921 C69.85,107.79 68.721,110.9 68.105,113.834 C66.497,121.494 67.734,122.735 73.056,118.801 C75.86,116.727 76.128,116.699 77.738,118.309 C79.316,119.888 79.325,120.263 77.854,123.259 C76.978,125.041 75.735,127.625 75.091,129 C74.447,130.375 73.27,132.625 72.475,134 C70.028,138.233 71.024,146.007 73.5,142 C74.497,140.387 78.313,140.911 80.826,143.005 C83.13,144.925 83.161,147.551 80.912,150.423 C80.449,151.015 78.816,153.076 77.285,155.003 C73.75,159.45 72.43,161.533 70.001,166.5 C67.667,171.27 67.509,173 69.405,173 C70.99,173 78.619,166.963 81.183,163.68 L82.866,161.526 L85.433,163.937 C86.845,165.263 87.993,166.833 87.983,167.424 C87.953,169.402 77.559,179.713 72.662,182.624 C70.001,184.206 66.176,186.492 64.162,187.705 C62.148,188.919 58.25,191.047 55.5,192.436 C52.75,193.824 48.475,196.317 46,197.976 C43.525,199.634 40.41,200.993 39.079,200.996 C35.575,201.002 33,198.227 33,194.443 C33,191.905 33.673,190.77 36.085,189.243 C39.58,187.03 51.761,175.315 53.028,172.948 C53.486,172.093 53.554,170.966 53.18,170.446 C52.267,169.175 46.267,165 45.355,165 C44.956,165 43.601,164.034 42.344,162.853 C40.419,161.045 39.81,160.913 38.48,162.017 C36.748,163.454 33.952,169.269 31.997,175.5 C31.307,177.7 30.176,180.625 29.484,182 C28.792,183.375 27.716,185.625 27.093,187 C25.988,189.439 23.883,192.975 19.184,200.285 C16.733,204.098 11.611,206.555 8.556,205.383 C6.054,204.423 7.29,199.245 10.79,196.029 C13.162,193.848 16.831,187.224 20.082,179.25 C20.587,178.012 21.422,175.988 21.937,174.75 C22.453,173.512 23.186,171.375 23.568,170 C24.273,167.458 27.414,159.918 29.082,156.764 C29.587,155.809 30,154.34 30,153.5 C30,152.66 30.447,151.191 30.992,150.236 C32.968,146.779 36,137.871 36,135.522 C36,134.2 36.397,132.872 36.883,132.572 C37.369,132.272 38.766,128.758 39.989,124.763 C42.352,117.04 46.583,104.819 48.043,101.5 C48.527,100.4 49.644,97.025 50.525,94 C51.405,90.975 52.725,87.15 53.458,85.5 C54.634,82.85 56.488,75.228 59.053,62.5 C59.496,60.3 60.374,55.125 61.005,51 C63.021,37.799 65.717,29.849 68.782,28.062 Z M157,126.619 C159.565,125.652 170.372,127.052 173,128.691 C178.517,132.131 181.357,137.536 182.698,147.146 C183.919,155.891 182.73,174.431 180.875,175.577 C180.394,175.875 180,176.836 180,177.713 C180,178.589 178.826,181.825 177.39,184.904 C175.955,187.982 174.096,191.979 173.259,193.786 C172.423,195.593 171.91,197.211 172.119,197.381 C172.329,197.551 176.1,198.229 180.5,198.888 C184.9,199.546 191.875,200.723 196,201.503 C200.125,202.283 205.457,202.938 207.849,202.96 C211.412,202.993 212.73,203.57 215.148,206.158 C218.796,210.064 218.533,212.797 214.269,215.28 C211.079,217.138 210.966,217.134 205.269,214.963 C202.096,213.755 196.498,212.256 192.828,211.633 C189.159,211.01 185.821,210.162 185.412,209.75 C185.002,209.338 178.779,209.009 171.583,209.02 C159.536,209.038 154.162,209.541 139,212.068 C125.377,214.339 121.777,214.415 120.348,212.462 C118.655,210.146 118.6,205.564 120.25,204.249 C121.526,203.232 129.029,201.836 134.591,201.58 C140.104,201.327 142.625,198.805 143.343,192.824 C144.325,184.65 144.12,177.192 142.893,176.434 C142.285,176.058 140.037,176.328 137.898,177.034 C134.427,178.179 133.788,178.118 131.96,176.464 C128.871,173.668 129.864,170.806 134.734,168.466 C137.063,167.347 139.488,165.912 140.124,165.276 C141.493,163.907 142.08,146 140.756,146 C139.954,146 135.796,149.136 124.817,158.02 C122.792,159.659 120.709,161 120.19,161 C119.67,161 118.674,161.688 117.976,162.529 C116.692,164.076 117.045,165.65 123.672,187.9 C125.688,194.669 124.708,198.355 120.771,198.813 C117.608,199.18 116.347,196.792 112.419,183 C111.087,178.325 109.548,173.719 108.999,172.764 C108.449,171.809 108,170.576 108,170.025 C108,169.474 107.353,168.23 106.562,167.261 C105.77,166.293 103.52,163.545 101.562,161.155 C99.603,158.766 98,155.828 98,154.628 C98,153.427 97.325,151.481 96.5,150.304 C94.456,147.385 95.584,145 99.008,145 C101.239,145 102.864,146.309 107.075,151.5 C109.976,155.075 112.934,158 113.649,158 C114.364,158 115.692,156.537 116.601,154.75 C117.51,152.963 118.992,150.825 119.893,150 C124.945,145.375 132.937,139 133.682,139 C134.157,139 136.788,137.537 139.529,135.75 C144.002,132.833 153.032,128.113 157,126.619 Z M138.913,45.087 C141.121,42.879 143.862,42.934 146.75,45.245 C148.254,46.448 148.395,50.205 146.988,51.613 C145.659,52.941 146.898,59.024 148.634,59.69 C149.376,59.974 151.477,59.326 153.303,58.249 C158.609,55.118 168.498,53.334 177.827,53.825 C185.907,54.25 189.583,63.819 184.72,71.771 C180.829,78.135 180.585,78.52 177.308,83.428 C173.458,89.195 167.501,94.438 163.75,95.361 C158.639,96.619 160.956,97.697 170.178,98.352 C183.073,99.267 187.617,102.586 182.88,107.627 C180.76,109.884 180.028,110.074 176.004,109.413 C173.527,109.006 169.925,108.597 168,108.503 C166.075,108.41 161.515,107.987 157.866,107.563 C149.465,106.587 147.321,107.295 145.502,111.65 C144.479,114.099 143.505,115.048 142.269,114.804 C140.894,114.531 140.54,113.569 140.678,110.477 C140.776,108.29 140.615,100.055 140.321,92.177 C139.683,75.142 139.159,74.449 132.139,81.363 C129.55,83.914 126.654,86 125.703,86 C124.704,86 122.509,88.293 120.499,91.434 C118.587,94.422 116.568,97.149 116.012,97.493 C114.747,98.275 114.704,101.472 115.927,103.764 C116.437,104.719 117.098,106.287 117.396,107.25 C118.006,109.223 118.827,109.398 121,108.015 C122.236,107.229 122.28,106.707 121.25,105.044 C118.249,100.202 121.132,96 127.455,96 C132.62,96 134,97.334 134,102.329 C134,105.528 133.025,107.537 128.76,113.129 C125.878,116.908 123.009,120 122.383,120 C121.757,120 120.666,120.698 119.958,121.551 C119.174,122.495 117.463,122.984 115.585,122.801 C112.654,122.515 112.504,122.288 112.586,118.25 C112.634,115.913 112.29,114 111.822,114 C110.481,114 107.008,107.733 107.004,105.307 C107,103.04 96.663,91 94.721,91 C92.273,91 90,87.583 90,83.904 C90,79.255 90.904,78.627 95.727,79.927 C100.883,81.317 104.88,84.508 110.809,91.968 C112.438,94.016 113.028,94.221 114.287,93.177 C115.121,92.484 116.096,90.754 116.453,89.331 C118.133,82.637 124.368,75.269 133.932,68.674 L138.03,65.849 L137.377,56.562 C136.767,47.883 136.867,47.133 138.913,45.087 Z M156.5,137.281 C150.536,139.704 149.408,140.733 150.567,142.695 C151.206,143.774 151.332,145.907 150.881,148 C149.889,152.614 150.937,160.039 152.675,160.706 C153.433,160.997 155.885,159.966 158.122,158.415 C161.931,155.776 162.359,155.691 164.845,157.082 C168.917,159.36 168.736,162.252 164.303,165.74 C162.211,167.386 159.476,169.052 158.223,169.442 C154.671,170.549 152.738,174.182 153.974,177.43 C154.662,179.24 154.67,180.747 154,182 C153.45,183.028 153,185.329 153,187.113 C153,188.898 152.46,191.852 151.799,193.678 C148.184,203.676 161.127,198.472 165.581,188.137 C166.443,186.137 167.742,183.15 168.467,181.5 C170.483,176.915 171.741,172.987 172.953,167.5 C174.898,158.69 171.844,139.876 168.091,137.556 C166.128,136.343 159.213,136.179 156.5,137.281 Z M153.5,17.719 C157.442,16.759 159.03,17.03 161,19 C165.185,23.185 161.678,29 154.967,29 C153.777,29 149.067,30.8 144.5,33 C139.933,35.2 135.59,37.005 134.848,37.012 C134.107,37.019 131.475,38.188 129,39.611 C126.214,41.212 122.786,42.255 120,42.348 C115.592,42.497 115.493,42.431 115.18,39.156 C114.771,34.89 117.049,32.309 122.409,30.967 C124.659,30.403 127.736,29.256 129.246,28.417 C130.756,27.578 135.676,25.562 140.179,23.936 C144.681,22.31 149.071,20.355 149.933,19.593 C150.795,18.83 152.4,17.987 153.5,17.719 Z M54.171,114.75 C53.677,115.713 52.063,120.55 50.585,125.5 C49.107,130.45 47.245,135.774 46.449,137.331 C45.652,138.888 45,140.999 45,142.022 C45,143.045 44.55,144.16 44,144.5 C43.45,144.84 43,146.441 43,148.059 C43,150.188 43.483,151.004 44.75,151.014 C45.712,151.022 48.3,153.234 50.5,155.93 C54.205,160.471 58.384,162.95 59.854,161.479 C60.825,160.509 60.735,144.954 59.756,144.349 C59.274,144.051 57.556,144.355 55.939,145.025 C51.88,146.707 49.794,144.918 50.199,140.104 C50.451,137.114 50.986,136.393 53.5,135.651 C58.326,134.228 59.516,133.34 59.249,131.362 C59.111,130.338 58.954,126.125 58.901,122 C58.812,115.144 58.091,113.065 55.785,113.015 C55.392,113.007 54.666,113.787 54.171,114.75 Z M162.76,65.535 C153.66,67.777 149.377,70.367 148.635,74.077 C147.742,78.54 147.816,79 149.43,79 C150.217,79 151.005,78.033 151.18,76.852 C151.646,73.722 154.313,72.373 157.697,73.557 C160.998,74.711 161.963,78.866 159.731,82.315 C158.953,83.517 158.012,85.737 157.639,87.25 C156.639,91.312 159.09,90.789 163.134,86.077 C171.154,76.73 174.045,72.12 174.272,68.314 C174.486,64.729 174.32,64.489 171.5,64.311 C169.85,64.207 165.917,64.758 162.76,65.535 Z"/>
</svg>

