<svg xmlns="http://www.w3.org/2000/svg" width="300" height="300" viewBox="0 0 300 300" version="1.1">
  <defs/>
  <path d="M159.363,19.953 C168.454,17.785 173.931,19.731 175.95,25.848 C176.673,28.04 177.007,30.883 176.692,32.167 C176.377,33.45 175.626,36.525 175.023,39 C174.318,41.889 171.97,45.917 168.463,50.251 C163.413,56.491 163,57.395 163,62.196 C163,66.278 162.492,67.938 160.628,69.945 C157.719,73.077 156.17,81 158.465,81 C159.284,81 160.68,79.893 161.566,78.539 C164.983,73.325 170,74.573 170,80.637 C170,83.359 169.387,84.402 166.9,85.915 C162.488,88.598 159.858,93.438 158.432,101.5 C157.75,105.35 156.872,109.513 156.48,110.75 C155.867,112.683 156.127,113 158.324,113 C159.731,113 161.161,112.549 161.502,111.997 C161.842,111.446 164.006,110.124 166.311,109.059 C168.615,107.994 172.706,105.079 175.403,102.581 C181.661,96.782 183.821,96.061 186.188,98.984 C189.95,103.63 187.818,108.16 179.081,114.088 C173.9,117.603 172.89,119.834 175.5,122 C177.752,123.869 177.309,128.651 174.5,132.785 C173.125,134.809 172,137.176 172,138.045 C172,138.914 170.683,140.888 169.073,142.43 C167.463,143.973 165.603,146.544 164.941,148.143 C163.914,150.622 164,151.343 165.523,153.026 C167.812,155.555 168.641,155.51 172.406,152.649 C174.108,151.356 177.171,149.696 179.214,148.961 C182.546,147.762 183.137,147.814 184.964,149.467 C186.238,150.62 187,152.56 187,154.649 C187,157.404 186.289,158.503 182.928,160.937 C180.688,162.56 176.643,164.622 173.94,165.52 C168.371,167.37 167.305,168.458 169.027,170.533 C169.775,171.434 169.979,173.3 169.568,175.489 C169.206,177.42 169.205,180.575 169.566,182.5 C170.336,186.607 171.771,186.882 178.167,184.148 C180.55,183.13 187,181.519 192.5,180.569 C198,179.619 204.75,177.922 207.5,176.799 C215.417,173.565 217.765,173.431 220.556,176.053 C223.391,178.716 223.616,180.675 221.443,183.777 C220.229,185.511 218.902,186 215.411,186 C212.95,186 209.474,186.611 207.687,187.357 C205.9,188.104 201.752,189.047 198.469,189.454 C195.186,189.86 192.05,190.547 191.5,190.981 C190.95,191.414 188.925,192.087 187,192.476 C181.644,193.557 174.762,195.955 172.155,197.648 C170.24,198.891 169.917,199.752 170.395,202.335 C172.583,214.147 172.518,258.27 170.269,289 L169.5,299.5 L164.608,299.811 L159.716,300.121 L160.359,290.811 C162.996,252.647 163.297,205.096 160.917,202.57 C160.378,201.999 159.166,202.044 157.77,202.689 C156.522,203.266 153.25,204.667 150.5,205.802 C147.75,206.937 142.858,209.02 139.629,210.433 C136.4,211.845 133.095,213 132.283,213 C131.472,213 129.614,213.654 128.154,214.454 C120.902,218.426 112.555,222 110.532,222 C107.545,222 103,218.351 103,215.953 C103,213.974 107.568,211 110.609,211 C111.549,211 115.508,209.483 119.409,207.628 C123.309,205.774 128.3,203.714 130.5,203.052 C136.892,201.127 157.393,191.875 158.616,190.363 C159.322,189.491 159.546,186.322 159.226,181.742 C158.533,171.826 156.563,170.69 150.132,176.5 C145.377,180.795 140.05,181.337 137.557,177.777 C135.529,174.882 135.588,172.734 137.75,170.721 C142.878,165.949 146.091,162.207 148.741,157.919 C149.934,155.989 151.83,153.349 152.955,152.052 C155.584,149.021 155.636,146 153.059,146 C151.991,146 150.84,146.45 150.5,147 C148.303,150.554 135.856,144.025 135.165,138.955 C134.699,135.534 133.656,134.724 128.876,134.07 C124.156,133.424 121.888,130.987 123.552,128.349 C124.595,126.694 132.491,124.127 136.79,124.044 C140.393,123.975 146.991,120.154 147.975,117.566 C148.467,116.273 148.634,114.317 148.347,113.22 C148.06,112.123 148.315,110.923 148.913,110.554 C150.598,109.512 150.284,101.046 148.535,100.375 C147.729,100.066 144.583,101.236 141.542,102.976 C135.227,106.589 132.758,106.367 130.489,101.979 C127.493,96.184 129.118,93 135.073,93 C137.093,93 140.853,92.068 143.429,90.928 C147.903,88.949 148.099,88.692 147.806,85.178 C147.485,81.319 147.364,81.269 141.594,82.615 C139.395,83.128 138.36,82.845 137.344,81.455 C135.005,78.258 135.752,74.139 139.5,69.565 C141.425,67.216 143,64.579 143,63.706 C143,62.833 143.45,61.84 144,61.5 C146.435,59.995 143.373,48.585 139.97,46.482 C137.37,44.875 136.071,48.247 135.786,57.342 L135.5,66.5 L132.611,66.5 C129.986,66.5 129.601,66.043 128.405,61.5 C127.681,58.75 127.068,55.462 127.044,54.192 C126.943,48.884 119.425,38.742 113,35.246 C109.946,33.584 109.46,32.79 109.185,29.02 C108.82,24.006 110.083,22.719 114.5,23.605 C117.973,24.302 123.171,28.866 126.622,34.25 C127.944,36.313 129.563,38 130.22,38 C130.878,38 133.08,36.375 135.113,34.389 C137.147,32.403 139.704,30.266 140.796,29.639 C141.888,29.013 145.807,26.745 149.504,24.601 C153.202,22.456 157.638,20.364 159.363,19.953 Z M66.642,26.192 C66.872,25.308 68.363,24.984 71.241,25.192 L75.5,25.5 L75.372,30.5 C75.23,36.028 73.738,48.025 71.959,57.942 C70.914,63.769 70.974,64.508 72.593,65.692 C73.577,66.411 75.33,67 76.488,67 C79.05,67 85.506,73.551 86.338,76.995 C86.714,78.552 86.163,81.098 84.873,83.762 C81.43,90.875 76,92.094 76,85.754 C76,81.196 73.554,78 70.066,78 C66.49,78 65.752,79.025 63.586,87 C62.615,90.575 60.919,96.2 59.817,99.5 C58.716,102.8 57.58,106.507 57.293,107.738 C56.412,111.516 59.62,111.671 66.01,108.158 C72.527,104.575 74.569,104.3 77.171,106.655 C80.065,109.274 79.496,113.467 75.86,116.312 C72.991,118.558 72.692,119.338 72.386,125.385 C72.202,129.023 72.412,132 72.852,132 C73.291,132 74.708,130.875 76,129.5 C78.673,126.655 81.178,126.305 83.016,128.519 C84.043,129.757 83.973,130.372 82.638,131.847 C81.737,132.843 81,134.232 81,134.934 C81,135.637 79.875,137.548 78.5,139.182 C76.917,141.063 76,143.388 76,145.518 C76,147.368 75.511,149.184 74.913,149.554 C74.315,149.923 74.103,151.187 74.441,152.363 C75.734,156.857 76.027,165.263 74.936,166.577 C73.505,168.302 74.71,174 76.506,174 C77.843,174 81,168.756 81,166.534 C81,163.999 85.095,157.105 86.951,156.515 C90.42,155.415 92.997,157.65 93.026,161.785 C93.058,166.449 86.758,179.053 82.25,183.346 C80.463,185.048 79,187.064 79,187.826 C79,188.588 77.875,190.548 76.5,192.182 C75.125,193.816 74,195.739 74,196.454 C74,197.17 73.325,198.315 72.5,199 C70.494,200.665 70.593,203 72.669,203 C73.587,203 76.73,201.65 79.654,200 C82.578,198.35 85.414,197 85.958,197 C86.501,197 89.397,195.839 92.394,194.42 C101.501,190.108 105.769,192.681 100.648,199.395 C98.501,202.209 92.498,205.808 84.5,209.076 C74.515,213.155 72,214.354 72,215.035 C72,215.469 70.213,216.126 68.029,216.495 C65.846,216.864 63.033,217.916 61.779,218.833 C60.526,219.75 57.379,221.607 54.787,222.959 L50.074,225.418 L47.537,223.035 C46.142,221.724 45,219.812 45,218.785 C45,216.698 48.579,211.199 51.233,209.21 C52.955,207.919 59,199.648 59,198.582 C59,198.276 57.217,196.899 55.037,195.524 C49.529,192.047 42,184.314 42,182.134 C42,179.253 46.522,177.698 50.605,179.174 C52.472,179.849 54,180.68 54,181.019 C54,181.359 55.474,183.293 57.275,185.318 C60.916,189.411 63.407,189.977 64.965,187.066 C66.273,184.622 66.352,158 65.052,158 C64.53,158 62.877,159.136 61.379,160.524 C57.109,164.482 54.088,164.804 51.329,161.596 C48.587,158.409 48.47,156.705 50.55,150.285 C52.853,143.179 54.146,141 56.062,141 C58.272,141 59.28,143.609 57.996,146.007 C56.603,148.61 56.755,150 58.433,150 C59.221,150 60.15,149.103 60.498,148.006 C60.846,146.909 61.777,145.366 62.567,144.576 C63.656,143.487 63.761,142.502 63.002,140.505 C62.451,139.055 62,134.963 62,131.41 C62,125.396 61.823,124.883 59.435,123.975 C57.806,123.355 56.705,122.887 55.735,123.079 C53.537,123.515 52.011,127.345 46.524,140.5 C44.689,144.9 42.391,151.425 41.417,155 C40.443,158.575 38.894,163.3 37.973,165.5 C37.052,167.7 35.76,171.75 35.101,174.5 C34.442,177.25 33.092,181.3 32.101,183.5 C31.11,185.7 29.516,189.525 28.558,192 C26.564,197.151 25.838,198.865 19.977,212.25 C17.629,217.613 15.324,222 14.854,222 C14.384,222 13.985,222.563 13.967,223.25 C13.949,223.938 12.702,226.282 11.196,228.46 C8.374,232.541 4.445,234.411 2.25,232.719 C0.138,231.091 0.833,228.131 4.96,221.175 C7.139,217.504 9.604,212.558 10.439,210.184 C11.275,207.81 12.867,204.591 13.979,203.03 C15.091,201.468 16,199.712 16,199.125 C16,198.539 17.125,195.6 18.5,192.594 C19.875,189.588 21,186.226 21,185.123 C21,184.02 21.387,182.879 21.861,182.586 C22.848,181.976 27.21,170.032 29.392,161.963 C30.204,158.959 31.314,155.15 31.859,153.5 C32.403,151.85 33.867,147.35 35.113,143.5 C36.358,139.65 38.885,133.438 40.729,129.696 C43.906,123.246 44.521,121.14 47.061,108 C47.646,104.975 49.275,99.208 50.682,95.184 C52.089,91.16 53.665,86.21 54.184,84.184 C59.279,64.299 60.752,57.238 62.463,44.5 C63.202,39 64.369,32.925 65.055,31 C65.742,29.075 66.456,26.911 66.642,26.192 Z M160,126.365 C158.075,127 155.6,128.019 154.5,128.629 C153.4,129.24 150.137,130.333 147.25,131.059 C141.798,132.429 141.152,133.299 143.392,136.25 C144.908,138.247 149.101,138.536 152.316,136.864 C155.484,135.216 165,127.007 165,125.923 C165,124.822 164.555,124.862 160,126.365 Z M154.081,33.767 C148.254,36.706 147.476,37.667 149.035,40 C149.879,41.263 150.365,41.065 152.102,38.75 C153.726,36.587 154.985,36 158,36 C160.151,36 162.038,36.548 162.3,37.25 C162.625,38.123 163.456,37.837 165.051,36.305 C166.965,34.465 167.126,33.857 166.045,32.555 C164.154,30.276 160.209,30.676 154.081,33.767 Z"/>
</svg>

