<svg xmlns="http://www.w3.org/2000/svg" width="300" height="300" viewBox="0 0 300 300" version="1.1">
  <defs/>
  <path d="M114.787,23.972 C117.929,20.826 121.412,18.196 122.527,18.126 C125.879,17.918 129,20.779 129,24.059 C129,26.533 128.024,27.685 122.906,31.252 C119.554,33.589 115.332,36.737 113.524,38.25 C111.716,39.763 109.915,41 109.522,41 C109.13,41 107.585,41.871 106.089,42.937 L103.369,44.873 L103.223,63.437 C103.142,73.778 103.473,82 103.97,82 C105.06,82 109,76.61 109,75.119 C109,73.85 118.694,66 120.261,66 C124.675,66 126.598,74.244 122.953,77.542 C121.828,78.561 120.184,80.917 119.301,82.778 C118.418,84.639 115.401,87.876 112.598,89.971 C104.089,96.33 103,97.687 103,101.932 C103,104.305 103.536,105.992 104.394,106.321 C105.752,106.842 110.784,103.34 113.934,99.68 C115.644,97.693 123.04,94 125.309,94 C127.395,94 131.965,98.929 131.354,100.52 C130.819,101.914 123.728,107.453 116.5,112.124 C114.3,113.545 110.269,116.732 107.541,119.205 C102.601,123.685 102.581,123.729 102.178,130.851 C101.887,136.007 102.112,138 102.986,138 C103.653,138 106.741,136.47 109.849,134.6 C124.839,125.582 135.532,120 137.82,120 C140.837,120 144,122.612 144,125.104 C144,127.554 138.287,131.616 133.908,132.279 C131.932,132.578 127.882,134.36 124.908,136.239 C121.933,138.118 117.25,140.712 114.5,142.003 C111.75,143.294 107.025,146.248 104,148.567 C98.061,153.12 92.917,156 90.724,156 C89.968,156 88.258,157.17 86.924,158.6 C85.591,160.029 82.025,162.811 79,164.78 C75.975,166.749 71.7,169.787 69.5,171.529 C67.3,173.272 63.819,175.248 61.764,175.922 C59.709,176.595 57.77,177.563 57.455,178.073 C57.14,178.583 55.351,179 53.48,179 C50.342,179 49.991,178.68 48.973,174.901 C48.034,171.411 48.125,170.519 49.59,168.901 C50.536,167.855 52.302,167 53.515,167 C54.728,167 57.379,165.875 59.405,164.5 C61.431,163.125 63.446,162 63.882,162 C64.318,162 67.11,160.272 70.087,158.159 C73.064,156.047 78.688,152.47 82.583,150.212 C86.479,147.954 90.282,145.365 91.035,144.458 C94.075,140.795 95.164,52.221 92.181,51.227 C91.704,51.068 87.35,52.977 82.506,55.469 C77.662,57.961 72.878,60 71.875,60 C69.708,60 66.662,54.64 67.439,52.193 C67.749,51.214 74.7,47.153 83.74,42.669 C107.105,31.078 108.571,30.195 114.787,23.972 Z M137.382,145.25 C142.418,139.002 143.664,138 146.397,138 C150.693,138 153.336,142.219 151.409,146 C150.1,148.569 134.78,165.246 125,174.748 L119.5,180.092 L121.77,181.972 C123.018,183.006 126.393,184.621 129.27,185.56 C140.397,189.193 160.896,200.747 167.5,207.109 C171.102,210.579 183.413,220.229 187.5,222.785 C189.7,224.162 193.129,226.686 195.121,228.394 C197.112,230.102 201.514,233.225 204.902,235.332 C208.29,237.44 213.078,240.703 215.54,242.582 C218.061,244.506 221.187,246 222.694,246 C225.745,246 230,249.518 230,252.039 C230,252.969 229.037,254.954 227.86,256.45 C226.002,258.813 225.253,259.082 222.155,258.501 C220.194,258.133 217.297,256.745 215.718,255.416 C214.139,254.087 212.31,253 211.655,253 C211,253 208.36,251.313 205.789,249.25 C198.584,243.469 173.735,225.3 167.506,221.258 C165.31,219.833 160.974,216.554 157.871,213.972 C150.315,207.684 135.819,198.207 131.218,196.548 C129.173,195.81 126.15,194.488 124.5,193.61 C122.85,192.731 120.803,192.01 119.95,192.006 C119.098,192.003 117.973,191.624 117.45,191.165 C115.146,189.141 107.2,187.01 104.197,187.611 C100.098,188.43 96,185.9 96,182.55 C96,179.594 100.287,176.013 103.885,175.965 C107.67,175.913 109.9,174.395 118.662,165.906 C127.327,157.51 128.895,155.78 137.382,145.25 Z M81.487,168.021 C84.227,163.588 88.622,173.33 87.549,181.457 C87.182,184.23 86.436,191.675 85.89,198 C83.998,219.92 83.75,222.588 84.832,223.337 C84.998,223.452 85.197,223.522 85.425,223.61 C87.842,224.537 95.261,217.374 111.614,198.323 C115.203,194.142 115.935,193.701 117.346,194.872 C118.786,196.067 118.801,196.446 117.482,198.33 C116.667,199.493 116,201.142 116,201.995 C116,202.847 114.753,205.109 113.229,207.022 C111.705,208.935 109.793,211.816 108.979,213.425 C108.166,215.033 102.475,221.488 96.332,227.768 C86.896,237.417 84.659,239.211 81.903,239.344 C77.339,239.562 73.567,234.23 74.428,228.776 C74.751,226.728 75.495,219.528 76.081,212.776 C78.644,183.232 80.238,170.043 81.487,168.021 Z"/>
</svg>

