<svg xmlns="http://www.w3.org/2000/svg" width="300" height="300" viewBox="0 0 300 300" version="1.1">
  <defs/>
  <path d="M170.741,28.429 C172.808,27.691 174.599,27.068 174.719,27.044 C174.84,27.02 176.769,27.954 179.006,29.12 C186.565,33.06 188.529,39.323 192.45,72 C193.275,78.875 194.237,86.75 194.588,89.5 C194.939,92.25 195.32,99.45 195.433,105.5 C195.627,115.831 196.732,135.566 199.072,170.5 C199.625,178.75 200.293,189.775 200.557,195 C201.255,208.798 203.891,227.007 205.53,229.346 C206.985,231.424 206.598,235.392 204.707,237.789 C204.015,238.667 204.06,241.702 204.848,247.289 C205.485,251.805 206.187,257.75 206.408,260.5 C206.628,263.25 207.134,266.76 207.531,268.301 C208.093,270.483 207.744,271.643 205.952,273.551 C203.013,276.68 197.567,276.927 196.002,274.003 C195.414,272.905 193.247,271.146 191.185,270.095 C189.124,269.043 185.877,266.286 183.969,263.969 C182.061,261.651 179.713,259.035 178.75,258.155 C177.787,257.275 177,256.036 177,255.4 C177,254.765 176.399,253.746 175.665,253.137 C174.93,252.527 173.722,250.188 172.979,247.938 C171.877,244.597 171.867,243.7 172.925,243.046 C175.097,241.704 177.788,243.03 180.658,246.857 C182.16,248.861 184.004,250.875 184.755,251.333 C185.506,251.792 187.615,253.479 189.442,255.083 C191.269,256.687 193.687,258 194.814,258 C196.787,258 196.844,257.595 196.327,247.25 C195.972,240.139 195.318,235.966 194.395,234.921 C193.628,234.053 192.986,232.703 192.969,231.921 C192.93,230.129 185.242,224.284 178.58,220.982 C175.786,219.597 172.6,217.986 171.5,217.401 C170.4,216.817 168.15,215.667 166.5,214.847 C164.85,214.026 162.6,212.882 161.5,212.303 C153.79,208.248 151.066,207 149.929,207 C149.214,207 145.587,205.425 141.867,203.5 C138.147,201.575 134.293,199.998 133.302,199.996 C132.311,199.994 130.027,199.094 128.226,197.996 C126.425,196.898 124.175,196.002 123.226,196.004 C122.277,196.006 119.4,198.593 116.834,201.754 C108.927,211.49 99.133,221 97.012,221 C95.915,221 94.451,221.932 93.758,223.07 C91.602,226.617 84.578,229.204 79.19,228.436 C73.964,227.69 68.771,223.76 69.726,221.272 C70.176,220.1 71.301,219.918 74.9,220.437 C77.43,220.802 80.326,221.103 81.335,221.106 C85.311,221.118 104.179,204.421 107.545,197.913 C109.154,194.802 109.145,194.578 107.367,193.244 C106.117,192.306 104.099,192.028 101.261,192.401 C98.929,192.708 95.887,192.527 94.501,192 C92.631,191.29 91.064,191.479 88.436,192.732 C84.667,194.529 81.793,193.771 81.212,190.826 C80.75,188.484 84.889,184 87.514,184 C88.816,184 90.16,183.55 90.5,183 C91.214,181.845 103.36,181.766 110.061,182.872 C115.34,183.744 117,183.396 117,181.417 C117,180.637 117.361,180 117.802,180 C119.209,180 122.01,170.665 122.005,165.993 C122.002,163.515 122.425,160.004 122.945,158.191 C124.181,153.882 122.501,153.182 117.709,156.009 C115.199,157.49 112.84,158.028 109.815,157.811 C105.638,157.51 105.49,157.383 105.196,153.848 C104.901,150.315 105.069,150.113 110.391,147.595 C113.417,146.164 116.591,143.994 117.446,142.774 C119.16,140.327 119.588,132 118,132 C117.45,132 117,131.127 117,130.061 C117,128.994 115.184,126.024 112.965,123.459 C109.925,119.947 109.091,118.267 109.583,116.649 C111.313,110.959 116.134,109.341 119.709,113.25 C122.311,116.096 124.99,121.356 125.032,123.7 C125.049,124.69 125.71,126.354 126.5,127.397 C127.29,128.441 127.639,129.775 127.276,130.363 C126.2,132.103 126.169,140 127.238,140 C127.778,140 131.452,138.403 135.402,136.451 C143.716,132.342 146,132.575 146,137.534 C146,141.28 142.849,144.435 138.057,145.488 C134.569,146.254 131.512,149.401 132.579,151.128 C134.284,153.886 131.182,176.814 128.368,182.255 C126.993,184.914 127.011,185.355 128.565,187.071 C129.505,188.111 131.9,189.257 133.887,189.619 C135.874,189.981 140.65,191.601 144.5,193.218 C154.106,197.254 181.687,210.985 185.842,213.8 C191.579,217.687 192.551,216.717 192.172,207.483 C191.992,203.093 191.401,196.35 190.859,192.5 C190.317,188.65 189.691,179.65 189.468,172.5 C188.907,154.557 187.969,136.759 187.547,136.072 C187.354,135.758 186.881,127.4 186.497,117.5 C186.113,107.6 185.597,99.291 185.351,99.035 C184.465,98.115 181.462,100.779 179.638,104.105 C177.398,108.187 162.866,121.374 160.13,121.807 C156.141,122.438 150.739,111.515 154.033,109.479 C155.357,108.661 154.633,76.041 153.09,67 C152.48,63.425 151.622,58.25 151.183,55.5 C150.744,52.75 149.849,49.517 149.193,48.316 C146.617,43.598 148.546,34.535 152.184,34.261 C155.778,33.99 158,35.814 158,39.035 C158,41.23 158.47,42 159.811,42 C161.144,42 161.956,40.695 162.888,37.058 C164.312,31.505 165.365,30.347 170.741,28.429 Z M64.89,54.489 C66.755,52.57 69.243,51 70.418,51 C79.36,51 84,66.575 84,96.593 C84,107.707 84.392,115.124 85,115.5 C86.544,116.454 86.182,126.328 84.478,129.743 C83.641,131.421 79.534,135.857 75.352,139.6 C69.399,144.927 67.142,146.36 64.963,146.194 C62.457,146.003 62.124,146.358 61.631,149.741 C60.626,156.636 60.025,163.408 59.487,173.883 C59.194,179.593 58.672,184.721 58.328,185.278 C57.984,185.835 57.597,191.513 57.468,197.896 C57.293,206.566 57.61,210.233 58.72,212.399 C60.085,215.063 60.029,215.652 58.033,219.649 C56.344,223.031 55.307,224 53.379,224 C47.797,224 46.74,212.902 49.52,183.5 C50.352,174.7 51.274,166.839 51.569,166.03 C51.864,165.222 52.011,147.222 51.896,126.03 C51.78,104.839 51.734,85.925 51.793,84 C51.852,82.075 51.248,78.572 50.45,76.215 C48.68,70.986 48.558,61.68 50.225,59.011 C51.257,57.359 51.139,56.82 49.475,55.596 C47.708,54.296 47.674,54.075 49.155,53.501 C52.489,52.208 57.458,53.405 58.487,55.75 C59.824,58.796 60.914,58.582 64.89,54.489 Z M169.33,43.75 C167.222,45.813 164.627,49.153 163.563,51.173 C161.818,54.486 161.755,55.32 162.928,59.673 C163.644,62.328 164.187,66.205 164.135,68.289 C164.027,72.612 166.053,74.125 168.787,71.762 C171.19,69.686 174.991,68.925 177.162,70.087 C178.518,70.812 179,72.223 179,75.463 C179,79.011 178.496,80.251 176.379,81.917 C174.937,83.051 173.025,85.433 172.129,87.21 C171.161,89.13 169.485,90.674 168,91.013 C165.706,91.536 165.475,92.095 165.202,97.791 C164.983,102.365 165.246,104 166.202,104 C166.915,104 170.424,100.932 174,97.182 C177.575,93.431 181.287,90.071 182.25,89.713 C184.468,88.889 184.602,81.622 182.608,70.36 C181.843,66.037 180.642,59.217 179.939,55.205 C179.237,51.192 178.288,47.678 177.831,47.396 C177.374,47.113 177,45.874 177,44.641 C177,42.467 175.342,40 173.882,40 C173.486,40 171.438,41.688 169.33,43.75 Z M68.538,106.939 C68.18,107.518 66.554,107.881 64.925,107.746 L61.962,107.5 L61.731,121.5 C61.458,138.063 61.997,138.661 68.95,129.518 L73.5,123.535 L73.5,115.018 C73.5,107.057 73.359,106.48 71.344,106.193 C70.159,106.024 68.896,106.36 68.538,106.939 Z M64.716,73.832 C61.727,77.993 61.28,79.347 61.5,83.582 C61.64,86.287 61.81,90.862 61.878,93.75 C61.945,96.638 62.424,99 62.941,99 C63.459,99 66.159,96.817 68.941,94.15 C73.812,89.479 74,89.096 74,83.828 C74,77.506 71.418,69 69.5,69 C68.778,69 66.625,71.174 64.716,73.832 Z"/>
</svg>

