<svg xmlns="http://www.w3.org/2000/svg" width="300" height="300" viewBox="0 0 300 300" version="1.1">
  <defs/>
  <path d="M157.45,24.407 C161.786,22.518 164.771,22.696 168.614,25.071 C172.811,27.665 176,32.061 176,35.255 C176,36.601 176.401,39.006 176.892,40.601 C179.483,49.021 180.936,60.198 183.312,90 C183.554,93.025 184.228,97.525 184.811,100 C187.155,109.953 190.895,130.928 191.498,137.5 C191.699,139.7 192.589,146.675 193.474,153 C194.359,159.325 195.516,168.325 196.045,173 C196.574,177.675 197.492,185.1 198.084,189.5 C203.065,226.507 204.722,249.422 202.657,252.75 C201.489,254.633 194.912,254.244 191.366,252.082 C189.642,251.031 185.255,247.104 181.616,243.356 C175.283,236.833 173.497,233.047 176.018,231.489 C177.323,230.682 182.659,233.981 186.437,237.93 C188.052,239.618 190.174,241 191.152,241 C193.526,241 195.342,237.519 194.154,235.25 C193.649,234.287 193.196,231.025 193.146,228 C193.008,219.559 190.798,200.311 188.038,183.5 C187.405,179.65 186.493,173.125 186.01,169 C185.526,164.875 184.673,160.15 184.114,158.5 C183.554,156.85 182.603,148.75 182,140.5 C181.396,132.25 180.495,123.925 179.996,122 C178.741,117.15 175.229,98.502 174.489,92.75 C173.656,86.282 171.74,86.514 164.161,94 C158.166,99.921 155.75,100.949 152.236,99.073 C151.281,98.563 149.706,97.9 148.735,97.599 C146.181,96.807 144.621,92.127 145.944,89.224 C146.965,86.983 146.536,76.677 145.342,74.744 C145.025,74.232 144.595,71.406 144.386,68.465 C143.989,62.892 142.338,55.708 139.604,47.656 C137.969,42.838 137.515,36.429 138.607,33.582 C139.375,31.581 142.37,31.536 144,33.5 C145.58,35.403 149,35.456 149,33.577 C149,31.373 154.059,25.884 157.45,24.407 Z M45.121,46.75 C46.276,45.788 47.538,45 47.924,45 C49.583,45 54.018,50.84 54.611,53.807 C55.5,58.25 56.947,58.804 59.453,55.661 C62.451,51.902 68.1,51.943 71.685,55.75 C75.584,59.891 77.992,64.203 77.996,67.05 C77.998,68.453 78.405,70.027 78.9,70.55 C79.787,71.486 80.893,84.471 80.964,94.775 C80.996,99.522 81.26,100.148 83.605,101.04 C85.818,101.881 86.108,102.441 85.533,104.765 C85.162,106.269 83.764,108.65 82.429,110.055 C81.093,111.46 80,113.17 80,113.854 C80,115.805 76.97,121.344 74.997,123 C74.015,123.825 71.796,127.259 70.066,130.63 C66.226,138.118 63.89,140.417 61.043,139.514 L58.942,138.847 L59.383,169.673 C59.768,196.658 59.628,200.718 58.257,202.25 C56.062,204.701 53.327,204.428 51.455,201.572 C50.093,199.493 49.963,196.936 50.552,183.822 C50.961,174.7 50.793,163.442 50.136,156 C49.529,149.125 48.778,135.433 48.466,125.573 C48.154,115.712 47.626,107.204 47.292,106.664 C46.959,106.124 46.327,98.892 45.888,90.591 C45.45,82.291 44.625,69.425 44.055,62 C43.048,48.867 43.077,48.452 45.121,46.75 Z M112.2,98.2 C115.443,94.957 120.5,99.176 121.387,105.862 C122.192,111.926 123.616,113.229 128.638,112.494 C134.798,111.593 138.234,113.068 140.358,117.525 C141.79,120.532 141.962,121.831 141.108,123.199 C140.499,124.175 140,126.077 140,127.427 C140,128.777 139.55,130.16 139,130.5 C138.45,130.84 138,131.81 138,132.655 C138,133.5 137.068,135.5 135.929,137.1 C134.79,138.699 133.414,141.469 132.871,143.254 C129.784,153.406 128.044,160.94 128.024,164.25 C128.011,166.313 127.55,168 127,168 C126.45,168 126,169.575 126,171.5 C126,173.425 126.388,175 126.862,175 C127.696,175 130.205,173.196 140.229,165.39 L144.957,161.707 L144.332,152.899 C143.895,146.745 143.764,144.891 144.626,143.921 C144.999,143.502 145.556,143.248 146.353,142.885 C150.28,141.096 154,143.032 154,146.864 C154,149.853 156.268,158.19 158.524,163.5 C162.951,173.914 168.195,188.454 168.692,191.693 C169.014,193.787 169.603,195.95 170.001,196.5 C170.399,197.05 170.992,199.873 171.318,202.774 C171.644,205.674 172.256,208.599 172.677,209.274 C173.098,209.948 173.554,214.304 173.692,218.954 C173.958,227.99 172.74,231 168.814,231 C166.468,231 166.008,229.801 165.515,222.411 C164.91,213.361 162.598,202.292 159.58,194 C158.079,189.875 156.581,185.614 156.251,184.532 C155.922,183.449 154.472,180.299 153.029,177.532 C149.934,171.595 147.015,170.522 144.481,174.388 C143.576,175.769 141.41,177.796 139.668,178.893 C137.926,179.989 134.572,182.262 132.215,183.943 C129.858,185.624 127.479,187 126.929,187 C125.855,187 120.832,190.003 119.99,191.148 C119.709,191.529 118.146,192.176 116.515,192.586 C114.884,192.995 111.537,194.606 109.079,196.165 C106.62,197.724 104.029,199 103.32,199 C102.611,199 100.567,197.692 98.777,196.092 C95.559,193.217 95.544,193.162 97.416,191.092 C98.458,189.942 99.835,189 100.478,189 C101.12,189 104.339,187.695 107.63,186.101 C114.948,182.556 117.337,178.393 118.876,166.5 C119.87,158.821 119.823,158.432 117.706,156.802 C112.471,152.77 111.864,151.895 112.433,149.185 C112.743,147.708 112.435,145.549 111.748,144.386 C111.062,143.223 109.472,140.398 108.215,138.108 C106.436,134.865 104.723,133.41 100.465,131.527 C95.411,129.292 95,128.858 95,125.755 C95,121.45 96.518,120 101.026,120 C103.6,120 105.332,120.725 107,122.5 C108.292,123.875 110.119,125 111.061,125 C113.632,125 114.551,117.254 112.549,112.462 C110.708,108.058 110.509,99.891 112.2,98.2 Z M156.946,37.25 C155.833,39.038 154.651,41.776 154.319,43.336 C153.987,44.896 153.081,46.415 152.306,46.713 C151.396,47.062 151.07,48.182 151.386,49.877 C151.655,51.32 152.156,55.05 152.499,58.167 C153.281,65.266 155.093,66.272 159.466,62.033 C161.187,60.365 163.531,59 164.675,59 C168.968,59 169.571,56.587 167.635,47.151 C165.06,34.607 160.959,30.808 156.946,37.25 Z M65.214,97.563 C63.974,98.431 61.543,98.987 59.741,98.813 C56.832,98.532 56.517,98.756 56.665,101 C56.756,102.375 57.16,108.563 57.562,114.75 C58.025,121.872 58.698,125.99 59.397,125.973 C60.004,125.958 61.625,124.098 63,121.839 C64.375,119.581 66.958,115.88 68.74,113.616 C71.506,110.103 71.982,108.687 71.99,103.95 C72.004,96.386 69.825,94.333 65.214,97.563 Z M63.667,67.667 C63.3,68.033 63,69.397 63,70.698 C63,74.077 60.135,74.83 58.008,72.011 C56.286,69.727 56.268,69.756 55.785,75.584 C55.091,83.944 55.916,90 57.748,90 C58.566,90 60.774,88.65 62.653,87 C64.532,85.35 67.012,84 68.164,84 C70.136,84 70.218,83.644 69.569,77.907 C69.19,74.555 68.468,70.73 67.965,69.407 C67.084,67.092 65.061,66.273 63.667,67.667 Z M162.54,73.051 C157.982,76.5 154.434,82.083 155.326,84.406 C156.284,86.903 160.246,86.282 164.038,83.041 C165.942,81.413 168.486,80.063 169.691,80.041 C172.751,79.984 173.257,78.668 172.006,74.023 C170.656,69.008 168.215,68.758 162.54,73.051 Z M126.527,124.915 C125.539,128.028 126.986,132 129.108,132 C130.582,132 131,131.27 131,128.7 C131,123.811 127.75,121.061 126.527,124.915 Z M115.25,133.25 C115.88,135.142 119,135.411 119,133.573 C119,132.646 118.145,132 116.917,132 C115.695,132 115.005,132.517 115.25,133.25 Z"/>
</svg>

