<svg xmlns="http://www.w3.org/2000/svg" width="300" height="300" viewBox="0 0 300 300" version="1.1">
  <defs/>
  <path d="M140.174,44.314 C142.634,41.696 142.911,41.636 146.374,42.952 C151.639,44.954 151.487,49.02 145.842,57.154 C144.829,58.614 144,60.697 144,61.782 C144,62.867 143.308,64.329 142.462,65.031 C141.616,65.733 139.582,68.003 137.94,70.075 C135.075,73.693 135.001,74.035 136.087,78.671 C136.708,81.327 137.314,87.775 137.432,93 C137.61,100.84 137.929,102.554 139.262,102.811 C140.15,102.983 141.693,102.307 142.689,101.311 C144.634,99.366 156.87,91 157.77,91 C158.067,91 159.704,89.942 161.406,88.648 C165.009,85.909 170.441,83 171.95,83 C173.509,83 177,86.779 177,88.465 C177,89.669 164.259,99 162.615,99 C162.345,99 160.645,100.35 158.838,102.001 C157.031,103.651 151.889,107.49 147.411,110.532 L139.268,116.063 L138.705,121.281 C138.396,124.152 138.479,133.475 138.891,142 C139.302,150.525 139.54,175.05 139.418,196.5 C139.276,221.68 139.557,235.938 140.211,236.737 C140.768,237.418 140.93,238.741 140.57,239.678 C139.256,243.102 138.964,270.404 140.182,275.887 C141.323,281.018 141.27,281.363 139.079,283.137 C135.935,285.683 132.577,285.516 131.293,282.75 C128.046,275.755 128.045,275.73 129.477,242.5 C130.387,221.373 130.051,151.956 128.997,143.476 C128.383,138.539 128.175,132.364 128.534,129.754 C129.29,124.253 127.644,122.735 123.824,125.411 C122.576,126.285 121.012,127 120.347,127 C119.683,127 116.223,128.35 112.658,130 C109.093,131.65 105.517,133 104.71,133 C103.904,133 101.629,133.675 99.654,134.5 C94.173,136.79 90.482,136.429 88.073,133.365 C85.479,130.068 85.447,127.811 87.96,125.536 C89.279,124.343 90.736,123.968 92.418,124.39 C94.86,125.003 100.785,123.29 106.154,120.419 C107.614,119.639 109.323,119 109.951,119 C110.579,119 114.453,117.339 118.56,115.308 C125.149,112.05 126.14,111.194 126.993,108.026 C127.907,104.63 126.674,87.341 125.428,86.095 C125.151,85.817 123.638,86.076 122.066,86.669 C117.286,88.473 116.436,86.823 119.654,81.986 C123.376,76.391 127.47,69.482 130.017,64.5 C131.141,62.3 132.441,59.825 132.906,59 C135.733,53.978 138,49.051 138,47.928 C138,47.214 138.978,45.587 140.174,44.314 Z M79.122,74.583 C84.9,71.985 88.284,72.09 91.31,74.959 C93.838,77.356 92.798,80.535 87.523,86.53 C85.12,89.261 82.965,92.785 82.734,94.36 C82.349,96.979 83.557,102.016 85.167,104.508 C86.536,106.626 87.091,112.63 86.147,115.112 C84.669,119 77.851,123.901 72.543,124.893 C69.993,125.369 67.744,125.926 67.544,126.13 C67.057,126.625 66.065,150.164 65.568,173 C64.784,208.972 63.166,218 57.5,218 C53.673,218 52.977,216.113 54.166,208.954 C58.093,185.317 57.052,135.848 52.298,120.185 C50.725,115 50.738,114.818 52.841,112.715 C54.838,110.718 55.234,110.664 58.248,111.981 C62.617,113.89 70.694,113.735 72.726,111.702 C74.178,110.251 74.172,109.739 72.658,105.773 C71.746,103.386 71,98.636 71,95.217 C71,87.873 70.715,87.766 62.391,91.987 C59.151,93.63 55.744,94.98 54.82,94.987 C53.896,94.994 50.223,96.35 46.658,98 C43.093,99.65 38.969,101 37.493,101 C36.016,101 33.614,101.645 32.154,102.433 C30.694,103.221 27.404,104.529 24.841,105.341 C20.824,106.613 19.906,106.622 18.171,105.407 C15.593,103.601 14.394,98.435 16.082,96.401 C17.791,94.343 23.624,92 27.041,92 C30.754,92 41.505,89.214 46.5,86.958 C48.7,85.964 52.033,84.841 53.906,84.462 C55.779,84.083 60.491,82.249 64.377,80.386 C68.264,78.524 71.961,77 72.594,77 C73.226,77 76.164,75.912 79.122,74.583 Z"/>
</svg>

