<svg xmlns="http://www.w3.org/2000/svg" width="300" height="300" viewBox="0 0 300 300" version="1.1">
  <defs/>
  <path d="M163.05,62.44 C164.684,60.471 168.362,60.629 170.237,62.75 C171.088,63.712 172.067,66.975 172.412,70 C173.854,82.625 175.483,90.248 176.852,90.773 C177.629,91.072 179.099,90.795 180.119,90.158 C181.139,89.521 182.459,89 183.053,89 C183.647,89 185.608,87.875 187.411,86.5 C191.335,83.507 194.552,83.294 195.965,85.934 C198.379,90.445 196.261,94.05 189.816,96.399 C183.733,98.616 179.187,102.025 178.08,105.201 C176.742,109.039 176.73,115.232 178.05,120.5 C179.822,127.568 181.052,152.491 181.655,193.5 C182.38,242.911 181.302,253.538 175.286,256.279 C170.813,258.318 159.589,248.453 154.873,238.338 C151.441,230.977 151.181,228 153.972,228 C155.874,228 158.138,230.078 165.32,238.416 C171.229,245.277 171.636,244.17 172.343,219.335 C173.085,193.288 172.549,170.825 171.071,166.007 C170.482,164.085 169.996,157.56 169.992,151.507 C169.987,145.453 169.318,135.464 168.505,129.309 C167.692,123.153 167.301,116.743 167.637,115.065 C168.252,111.99 166.465,106 164.932,106 C164.478,106 161.42,107.575 158.135,109.5 C154.851,111.425 151.789,113.008 151.332,113.017 C150.874,113.026 147.35,114.601 143.5,116.516 C139.65,118.431 135.768,119.998 134.872,119.999 C132.448,120 130.814,117.485 131.178,114.31 C131.437,112.052 132.531,110.977 136.751,108.838 C139.639,107.374 143.336,105.054 144.966,103.682 C148.497,100.711 162.301,95.932 166.391,96.265 C167.991,96.395 169.479,95.942 169.724,95.25 C169.997,94.479 169.265,94 167.812,94 C165.738,94 165.293,93.255 164.073,87.75 C162.134,78.997 161.538,64.261 163.05,62.44 Z M63,91.568 C66.575,90.236 71.254,89.226 73.398,89.323 C78.579,89.558 79.895,91.645 78.053,96.706 C77.292,98.797 76.706,103.95 76.748,108.188 C76.821,115.693 76.738,115.963 73.247,119.557 C71.28,121.583 68.274,123.823 66.565,124.537 C64.992,125.194 63.81,125.644 62.92,126.426 C60.14,128.871 60.217,134.565 60.185,160 C60.164,176.775 59.746,191.85 59.256,193.5 C58.205,197.042 54.654,198.099 53.174,195.311 C52.645,194.315 52.156,182.7 52.087,169.5 C51.995,151.893 51.571,144.035 50.493,140 C48.738,133.428 48.51,118.89 50.137,117.263 C50.846,116.554 53.089,116.342 56.105,116.699 C59.672,117.121 61.6,116.837 63.469,115.613 C65.71,114.144 66,113.269 66,107.977 C66,102.299 65.877,102 63.547,102 C60.752,102 56.707,103.585 52.871,106.183 C51.426,107.162 46.701,109.368 42.371,111.085 C38.042,112.802 33.15,114.803 31.5,115.531 C29.85,116.259 26.62,117.146 24.323,117.503 C20.618,118.078 19.962,117.871 18.526,115.68 C17.635,114.321 15.915,112.922 14.703,112.57 C13.008,112.079 14.565,111.249 21.464,108.966 C26.393,107.335 31.456,106 32.714,106 C33.971,106 35,105.626 35,105.169 C35,104.712 36.237,103.708 37.75,102.938 C39.263,102.168 42.075,100.541 44,99.324 C45.925,98.107 49.525,96.408 52,95.55 C54.475,94.692 59.425,92.9 63,91.568 Z M108,83.298 C110.516,82.036 113.435,82.392 115.75,84.245 C117.192,85.398 117.416,91.21 116.117,93.764 C115.631,94.719 114.679,96.85 114.001,98.5 C113.323,100.15 112.371,102.175 111.886,103 C110.877,104.716 105.45,116.027 103.49,120.5 C102.767,122.15 100.786,126.549 99.087,130.275 C97.389,134.001 96,137.273 96,137.545 C96,137.817 94.848,139.864 93.44,142.095 C89.781,147.891 90.419,150.268 95.88,151.196 C103.289,152.455 104.734,154.003 105.542,161.547 C106.335,168.949 105.3,172.453 102.013,173.496 C98.827,174.507 97,172.322 97,167.5 C97,161.878 95.324,160.565 89.091,161.303 C82.729,162.056 80.56,160.55 80.703,155.478 C80.762,153.413 81.363,150.548 82.039,149.112 C82.715,147.675 83.604,145.6 84.014,144.5 C86.539,137.734 88.319,133.28 89.103,131.764 C89.596,130.809 90,129.121 90,128.014 C90,126.906 90.42,126 90.933,126 C91.446,126 92.149,124.987 92.495,123.75 C92.842,122.513 93.547,120.487 94.063,119.25 C94.578,118.013 95.492,115.763 96.093,114.25 C96.693,112.737 97.818,110.226 98.593,108.669 C99.367,107.112 100,105.001 100,103.978 C100,102.955 100.45,101.84 101,101.5 C101.55,101.16 102,99.874 102,98.641 C102,97.408 102.542,95.858 103.205,95.195 C103.867,94.533 104.655,91.867 104.955,89.272 C105.387,85.533 106.019,84.292 108,83.298 Z M130.095,136.872 C137.68,134.75 145.654,137.179 152.304,143.639 C156.483,147.697 157.827,151.299 155.989,153.513 C153.994,155.917 151.708,155.271 145.424,150.527 C140.187,146.572 138.894,146.05 134.273,146.027 C129.762,146.004 128.813,145.644 127.342,143.399 C125.331,140.33 126.347,137.921 130.095,136.872 Z M172.755,137.208 C171.848,139.596 173.176,145 174.671,145 C175.748,145 176.037,143.94 175.807,140.828 C175.507,136.746 173.731,134.64 172.755,137.208 Z M174.527,171.25 C175.364,176.304 175.94,177.463 177.055,176.337 C178.438,174.942 176.928,167 175.28,167 C174.124,167 173.969,167.874 174.527,171.25 Z M171,111.441 C171,113.948 171.45,116 172,116 C172.55,116 173,114.227 173,112.059 C173,109.891 172.55,107.84 172,107.5 C171.389,107.122 171,108.656 171,111.441 Z M29,109.5 C27.96,110.753 28.104,111 29.878,111 C31.098,111 32,110.362 32,109.5 C32,108.675 31.605,108 31.122,108 C30.64,108 29.685,108.675 29,109.5 Z M176,185 C176,185.55 176.45,186 177,186 C177.55,186 178,185.55 178,185 C178,184.45 177.55,184 177,184 C176.45,184 176,184.45 176,185 Z"/>
</svg>

