<svg xmlns="http://www.w3.org/2000/svg" width="300" height="300" viewBox="0 0 300 300" version="1.1">
  <defs/>
  <path d="M102,2.319 C104.826,0.398 106.56,-0.006 111,0.22 C115.921,0.47 116.535,0.748 116.834,2.858 C117.29,6.081 112.956,10.4 107.7,11.96 C105.39,12.646 102.877,13.723 102.116,14.353 C101.355,14.984 98.88,16.4 96.616,17.5 C92.68,19.413 92.476,19.74 91.944,25 C91.132,33.021 91.977,41.054 93.703,41.716 C94.496,42.02 96.444,41.309 98.032,40.135 C99.62,38.961 102.372,38 104.148,38 C108.21,38 113.589,41.61 115.159,45.39 C116.869,49.509 114.913,60.399 111.884,63.623 C110.142,65.478 109.898,66.298 110.813,67.213 C112.654,69.054 112.261,70.609 108.75,75.373 C106.647,78.227 103.736,80.598 100.5,82.092 C93.666,85.249 92,86.829 92,90.155 C92,93.752 93.794,93.826 98.913,90.439 C101.374,88.811 104.805,87.669 108.334,87.305 C113.544,86.767 114.074,86.92 116.943,89.789 C119.216,92.063 120,93.766 120,96.434 C120,99.812 119.104,101.432 110.535,113.541 C108.877,115.885 110.751,116.317 115.075,114.587 C118.89,113.06 119.434,113.054 121.666,114.517 C126.572,117.731 121.008,124.732 111.314,127.543 C101.677,130.338 100.721,130.849 101.525,132.773 C101.921,133.723 102.169,136.433 102.074,138.795 C101.98,141.157 102.479,144.682 103.182,146.628 C103.581,147.733 103.68,148.554 104.133,149.053 C105.377,150.425 109.299,149.369 129.5,145.09 C153.173,140.076 162.764,139.673 166.62,143.529 L169.15,146.059 L167.265,149.279 C165.295,152.644 165.817,152.494 154,153.074 C152.625,153.142 149.925,153.102 148,152.985 C144.687,152.784 132.878,154.77 123,157.19 C120.525,157.796 116.153,158.586 113.284,158.945 C110.416,159.304 107.716,159.951 107.284,160.382 C106.583,161.084 105.384,267.612 105.854,287.5 C106.132,299.286 105.834,300 100.631,300 L96.299,300 L96.669,247.75 C96.872,219.012 96.62,188.801 96.107,180.613 C95.159,165.461 94.461,163.272 91,164.594 C90.175,164.909 87.475,165.532 85,165.98 C82.525,166.428 79.15,167.289 77.5,167.894 C74.014,169.173 56.221,172.841 47.5,174.079 C21.312,177.795 16.212,178.011 14.364,175.483 C12.623,173.103 12.613,169.566 14.343,168.131 C15.081,167.518 19.243,166.812 23.593,166.563 C41.809,165.519 72.778,159.842 87.5,154.85 L91.5,153.493 L91.683,143.147 C91.864,132.935 91.838,132.81 89.683,133.482 C84.426,135.119 83.389,135.087 81.716,133.238 C80.435,131.823 79.95,129.383 79.845,123.81 C79.766,119.675 79.982,115.837 80.326,115.282 C80.669,114.726 80.061,112.433 78.975,110.184 C76.346,104.744 76.481,102.989 79.726,100.402 L82.452,98.228 L82.387,72.864 C82.351,58.914 82.161,42.399 81.965,36.165 L81.609,24.83 L77.555,25.26 C75.325,25.496 69.675,27.127 65,28.883 C60.325,30.64 55.375,31.948 54,31.789 C51.847,31.54 51.458,30.933 51.2,27.414 C51.017,24.914 51.406,22.947 52.2,22.348 C53.678,21.234 67.85,16.518 72.739,15.512 C74.52,15.146 76.234,14.431 76.548,13.923 C76.861,13.415 78.145,13 79.4,13 C81.878,13 96.351,6.16 102,2.319 Z M97,50.482 C94.055,51.558 93.39,52.375 92.808,55.63 C91.582,62.483 91.889,68.663 93.524,70.02 C94.362,70.716 95.237,71.097 95.467,70.866 C96.892,69.441 101,62.727 101,61.824 C101,61.225 101.932,59.228 103.072,57.384 C107.122,50.831 104.426,47.767 97,50.482 Z M102.11,102.136 C99.148,103.255 92.915,108.592 91.285,111.404 C89.575,114.356 89.716,117 91.586,117 C94.446,117 106.454,102.997 104.841,101.541 C104.654,101.372 103.424,101.64 102.11,102.136 Z"/>
</svg>

