<svg xmlns="http://www.w3.org/2000/svg" width="300" height="300" viewBox="0 0 300 300" version="1.1">
  <defs/>
  <path d="M163.946,93.771 C170.565,90.004 174.338,89.121 175.535,91.057 C177.213,93.772 174.61,96.814 165.099,103.25 C159.613,106.963 154.841,110 154.496,110 C154.15,110 152.434,111.093 150.683,112.429 L147.5,114.857 L147.206,126.342 C147.032,133.099 147.314,138.076 147.891,138.433 C148.768,138.975 154.8,136.163 157.566,133.924 C159.253,132.558 169.367,131.678 174.513,132.45 C178.202,133.003 180.093,134.049 183.353,137.339 C190.985,145.042 193.021,152.166 192.972,171 C192.937,184.456 192.363,190.773 189.881,205 C189.354,208.025 188.664,212.3 188.348,214.5 C188.033,216.7 187.416,218.95 186.977,219.5 C186.538,220.05 185.863,222.192 185.476,224.261 C185.09,226.33 184.374,228.269 183.887,228.57 C183.399,228.871 183,230.448 183,232.073 C183,233.698 182.605,235.809 182.122,236.764 C181.639,237.719 180.482,240.3 179.551,242.5 C177.023,248.471 170.289,259.38 167.534,261.968 C165.71,263.681 164.451,264.079 162.446,263.576 C159.057,262.725 149,253.28 149,250.947 C149,249.236 148.266,247.585 140.676,232.227 C138.699,228.227 136.797,223.433 136.448,221.574 C135.899,218.647 136.122,218.096 138.113,217.464 C138.721,217.271 139.189,217.119 139.643,217.156 C141.193,217.28 142.567,219.604 148.745,230 C151.851,235.225 154.979,240.095 155.696,240.821 C156.413,241.548 157,242.645 157,243.26 C157,243.874 158.012,245.864 159.25,247.681 C162.359,252.247 165.313,252.091 167.396,247.25 C168.284,245.188 169.405,242.825 169.889,242 C170.373,241.175 171.208,239.375 171.746,238 C172.283,236.625 173.46,233.797 174.361,231.716 C175.263,229.635 176,227.266 176,226.453 C176,225.639 176.395,224.191 176.877,223.236 C178.455,220.114 180,214.412 180,211.714 C180,210.26 180.684,207.056 181.519,204.595 C183.792,197.902 183.84,155.932 181.58,152.481 C180.711,151.155 179.99,149.267 179.978,148.285 C179.966,147.303 179.103,145.39 178.061,144.034 C176.39,141.86 175.475,141.591 170.333,141.763 C167.125,141.871 161.659,142.835 158.187,143.907 C151.1,146.094 141.508,152.762 140.466,156.226 C139.137,160.645 125.046,188.717 123.522,189.982 C122.672,190.687 121.065,193.326 119.95,195.846 C117.515,201.352 115.654,203.527 111.688,205.506 C109.454,206.62 108.36,206.714 107.35,205.876 C105.779,204.571 105.559,201.391 106.98,200.512 C108.759,199.413 117.792,185.305 120.532,179.348 C122.011,176.132 123.622,172.719 124.111,171.764 C124.6,170.809 125,169.569 125,169.009 C125,168.449 126.023,165.855 127.272,163.245 C128.522,160.635 130.141,156.475 130.869,154 C131.597,151.525 132.824,148.022 133.596,146.216 C134.368,144.41 135,142.074 135,141.025 C135,139.976 135.387,138.879 135.859,138.587 C136.331,138.295 137.026,135.053 137.402,131.382 C137.778,127.712 138.56,123.822 139.14,122.738 C139.924,121.273 139.849,120.427 138.848,119.445 C137.728,118.347 136.568,118.561 132,120.703 C124.267,124.329 117.865,124.865 115.116,122.116 C112.766,119.766 112.326,115.776 114.25,114.259 C114.938,113.717 117.525,112.968 120,112.594 C130.618,110.993 146.892,104.834 154.446,99.558 C156.067,98.426 160.342,95.822 163.946,93.771 Z M79.028,99.735 C84.899,98.636 88.716,99.028 90.413,100.904 C91.764,102.396 91.905,103.262 91.068,104.904 C90.481,106.057 89.55,107.894 89,108.986 C87.534,111.899 87.758,114.151 90.068,119.709 C92.106,124.614 92.109,124.733 90.249,128.092 C88.856,130.609 86.997,132.023 83.137,133.5 L77.911,135.5 L78.425,144.5 C80.155,174.814 80.159,175.887 78.599,185.156 C75.493,203.61 72.882,210.283 68.557,210.817 C64.834,211.277 64.473,209.024 67.11,201.79 C71.255,190.421 72.465,157.643 69.041,149.5 C68.579,148.4 67.446,144.8 66.524,141.5 C65.602,138.2 64.387,134.547 63.825,133.381 C61.604,128.779 62.952,127.525 70.469,127.2 C74.29,127.034 78.014,126.403 78.744,125.797 C80.386,124.435 79.962,111.821 78.256,111.252 C76.963,110.821 70.36,112.945 63.92,115.864 C55.388,119.731 40.446,124.969 35.006,126 C24.638,127.964 19.731,122.839 28.25,118.944 C30.588,117.876 33.374,116.326 34.441,115.501 C35.509,114.675 37.459,114 38.775,114 C40.09,114 44.472,112.676 48.513,111.059 C52.553,109.441 57.578,107.801 59.679,107.414 C61.781,107.027 64.573,105.875 65.885,104.855 C67.197,103.835 69.234,103 70.412,103 C71.591,103 73.455,102.369 74.556,101.599 C75.656,100.828 77.669,99.989 79.028,99.735 Z M137.003,70.497 C137.686,69.673 138.83,69 139.546,69 C141.551,69 146.996,73.974 147.032,75.839 C147.049,76.753 147.724,78.374 148.532,79.441 C150.262,81.728 150.516,91.084 148.893,92.707 C148.284,93.316 147.486,95.276 147.121,97.062 C146.756,98.848 145.653,100.802 144.67,101.405 C141.701,103.225 139.743,99.576 140.429,93.5 C141.002,88.42 140.438,85.257 137.437,76.747 C136.09,72.927 136.005,71.699 137.003,70.497 Z M41.2,116.2 C39.82,117.58 39.594,120 40.845,120 C41.813,120 45,116.68 45,115.671 C45,114.564 42.487,114.913 41.2,116.2 Z"/>
</svg>

