<svg xmlns="http://www.w3.org/2000/svg" width="300" height="300" viewBox="0 0 300 300" version="1.1">
  <defs/>
  <path d="M141.5,66.86 C145.35,63.09 148.748,60.004 149.05,60.003 C150.624,59.995 152,62.816 152,66.052 C152,68.338 151.083,70.975 149.548,73.102 C148.2,74.971 145.395,78.975 143.315,82 C141.235,85.025 138.726,88.387 137.738,89.47 C135.764,91.635 127.154,103.913 125.389,107.081 C124.778,108.178 123.277,110.141 122.053,111.443 C119.687,113.962 120.103,116.18 123.464,118.97 C124.778,120.061 125.364,119.98 127.019,118.483 C128.108,117.497 129,116.306 129,115.836 C129,114.71 134.108,109 135.115,109 C135.547,109 137.835,107.707 140.2,106.127 C144.055,103.551 145.121,103.305 150.5,103.745 C160.294,104.548 163.431,108.928 163.183,121.458 C163.035,128.975 160.619,137.987 158.75,137.996 C158.338,137.998 158,138.576 158,139.28 C158,139.984 156.426,142.045 154.502,143.86 C152.578,145.674 149.428,149.082 147.502,151.433 C143.385,156.457 143.146,159.242 145.566,174 C146.422,179.225 147.062,187.775 146.987,193 C146.912,198.225 147.089,207.378 147.382,213.34 C147.729,220.427 147.481,225.869 146.665,229.058 C145.333,234.26 141.948,239 139.564,239 C137.211,239 130.819,234.981 126.189,230.589 C122.186,226.792 121.208,225.226 118.141,217.703 C116.55,213.802 116.664,208 118.331,208 C119.606,208 120.573,209.534 122.744,215 C124.217,218.71 131.838,228 133.408,228 C134.157,228 135.551,226.808 136.505,225.352 C137.954,223.141 138.13,221.369 137.574,214.602 C137.208,210.146 136.743,200.458 136.54,193.074 C136.097,176.927 134.454,168.503 131.26,165.99 C127.741,163.222 125.671,157.518 127.239,154.909 C128.337,153.08 128.209,152.612 126.25,151.283 C125.012,150.443 124,149.094 124,148.285 C124,146.134 118.871,132.038 117.861,131.414 C117.387,131.121 117,129.839 117,128.563 C117,126.12 114.742,123.572 113.094,124.155 C112.088,124.511 109.539,127.859 103.693,136.5 C100.197,141.668 85.739,156 84.023,156 C83.488,156 82.34,157.375 81.472,159.055 C80.04,161.822 79.497,162.081 75.696,161.805 C71.959,161.533 71.466,161.201 71.186,158.77 C70.916,156.432 72.785,154.134 84.193,142.77 C91.52,135.472 99.761,126.169 102.507,122.098 C112.44,107.372 114,104.962 114,104.339 C114,103.991 115.575,101.784 117.5,99.435 C119.425,97.085 121,94.823 121,94.407 C121,92.204 135.458,72.777 141.5,66.86 Z M67,71.993 C73.459,70.485 75.506,69.988 77.394,70.342 C78.331,70.518 79.228,70.904 80.606,71.48 C83.579,72.722 84.045,73.324 83.511,75.23 C82.311,79.509 80.569,82.506 76.287,87.659 C73.929,90.497 72,93.336 72,93.967 C72,94.598 70.844,97.186 69.431,99.716 C67.802,102.634 67.071,105.148 67.433,106.589 C68.434,110.577 66.356,113.918 61.61,115.953 C58.214,117.408 57.065,118.5 56.641,120.673 C55.794,125.008 55.59,133.323 56.289,135 C57.21,137.211 58.67,154.864 58.315,159.5 C58.147,161.7 57.751,167.1 57.434,171.5 C56.933,178.479 55.268,184.281 52.126,190 C50.555,192.861 46.746,194.277 43.75,193.116 C40.466,191.843 40.192,189.238 43,186 C44.1,184.732 45,182.889 45,181.906 C45,180.923 45.386,179.88 45.857,179.588 C47.065,178.842 48.222,169.694 48.081,162 C47.889,151.505 46.921,137.682 46.309,136.691 C45.997,136.187 44.949,129.188 43.98,121.137 L42.217,106.5 L44.363,104.268 C46.301,102.253 46.871,102.148 50.244,103.183 C53.468,104.172 54.254,104.08 55.989,102.51 C57.095,101.509 58,100.311 58,99.848 C58,99.384 59.35,96.148 61,92.656 C63.936,86.441 64.749,82.966 63.25,83.034 C62.837,83.053 60.7,83.937 58.5,85 C56.3,86.063 53.739,86.947 52.809,86.966 C51.879,86.985 50.89,87.369 50.612,87.82 C50.333,88.27 46.594,89.482 42.303,90.512 C38.011,91.541 33.803,92.961 32.95,93.666 C30.745,95.49 23.243,98 19.997,98 C16.925,98 15.948,97.042 13.987,92.106 C12.73,88.943 12.794,88.585 14.93,86.856 C16.19,85.835 18.437,85 19.922,85 C23.486,85 35.141,81.91 48.61,77.395 C54.6,75.387 62.875,72.956 67,71.993 Z M154.5,193 C155.282,191.735 172.329,191.731 177,192.994 C201.612,199.651 203.323,200.153 204.5,201.057 C205.05,201.479 209.775,203.051 215,204.55 C220.225,206.05 226.068,208.114 227.985,209.138 C229.902,210.162 232.099,211 232.867,211 C233.635,211 235.667,211.859 237.382,212.909 C239.097,213.958 242.525,215.345 245,215.99 C251.74,217.747 254.268,219.632 253.017,221.968 C252.458,223.013 252,224.975 252,226.327 C252,228.528 250.388,230 247.979,230 C247.507,230 245.042,228.2 242.5,226 C239.652,223.535 236.876,222 235.268,222 C233.832,222 231.947,221.357 231.079,220.571 C229.469,219.115 214.887,214 212.345,214 C211.575,214 206.345,212.481 200.722,210.625 C195.1,208.769 188.475,206.683 186,205.99 C157.732,198.073 152.658,195.981 154.5,193 Z M129.223,21.557 C130.576,20.609 131.253,20.116 131.901,20.151 C132.595,20.188 133.257,20.832 134.686,22.174 C136.336,23.725 137,25.465 137,28.24 C137,30.38 137.502,33.069 138.115,34.215 C139.451,36.711 139.416,56.775 138.07,60.316 C137.558,61.663 135.688,63.798 133.914,65.061 C130.802,67.277 130.585,67.298 127.73,65.66 C124.832,63.996 124.681,64.023 120.215,66.981 C117.708,68.642 115.049,70 114.306,70 C113.563,70 110.94,68.143 108.478,65.873 C104.843,62.522 104,61.098 104,58.307 C104,52.979 105.517,51 109.601,51 C115.561,51 117.26,52.499 116.487,57.075 L115.824,61 L119.46,61 C123.812,61 127.482,57.594 128.386,52.717 C128.714,50.948 128.54,45.675 127.999,41 C126.402,27.203 126.644,23.363 129.223,21.557 Z M109.073,191.635 C111.592,188.432 114.595,188.271 117.686,191.174 C121.389,194.654 120.195,202 115.925,202 C114.823,202 112.182,203.688 110.056,205.75 C102.979,212.617 97.975,217 97.211,217 C96.796,217 94.874,218.304 92.94,219.898 C88.511,223.549 82.71,226 78.5,226 C74.987,226 72.452,223.872 73.308,221.641 C73.874,220.165 81.738,216 83.958,216 C86.183,216 107,197.247 107,195.242 C107,194.707 107.933,193.084 109.073,191.635 Z M152.297,45.049 C160.959,43.338 175.98,44.778 181.765,47.874 C184.787,49.492 184.579,52.586 181.25,55.516 C178.172,58.225 175.907,58.567 172.684,56.807 C171.483,56.151 168.475,55.298 166,54.911 C149.485,52.328 144,50.868 144,49.057 C144,47.658 147.396,46.018 152.297,45.049 Z M143.374,114.689 C142.205,114.919 140.214,116.208 138.95,117.553 C137.686,118.899 135.84,120 134.849,120 C132.587,120 130.349,123.4 129.481,128.153 C128.896,131.358 129.09,131.894 131.065,132.521 C132.879,133.096 134.042,132.449 137.059,129.181 C140.828,125.099 144.78,123.578 150,124.202 C152.033,124.444 152.556,124.023 152.798,121.941 C152.962,120.534 152.635,118.171 152.073,116.691 C151.037,113.967 149.206,113.545 143.374,114.689 Z M146.437,135.084 C144.822,136.781 141.361,139.745 138.747,141.672 C134.084,145.108 131.846,149.246 133.666,151.066 C134.712,152.112 152,135.346 152,133.286 C152,131.067 149.49,131.878 146.437,135.084 Z"/>
</svg>

