<svg xmlns="http://www.w3.org/2000/svg" width="300" height="300" viewBox="0 0 300 300" version="1.1">
  <defs/>
  <path d="M155.092,124.036 C156.417,123.477 159.51,123.196 161.966,123.411 C166.654,123.822 170.271,126.917 171.312,131.408 C171.936,134.098 174.02,140.002 175.134,142.236 C175.61,143.191 176,145.41 176,147.165 C176,148.921 176.425,151.74 176.944,153.429 C180.085,163.647 181.115,218.619 178.261,223.645 C176.437,226.855 178.102,227.649 189.5,229.004 C195,229.658 199.857,230.413 200.294,230.682 C200.73,230.952 204.33,231.368 208.294,231.607 C212.257,231.846 220.45,232.482 226.5,233.02 C234.152,233.701 241.555,233.652 250.822,232.857 C262.613,231.847 264.325,231.897 265.721,233.292 C267.074,234.645 267.113,235.314 265.995,238.012 C265.279,239.74 263.709,241.8 262.507,242.588 C259.435,244.6 237.489,245.646 232.547,244.015 C230.526,243.349 224.964,242.617 220.187,242.389 C207.623,241.791 199.988,241.228 196,240.607 C194.075,240.307 188.683,239.558 184.019,238.942 C179.354,238.327 174.629,237.32 173.519,236.706 C172.408,236.092 168.575,235.25 165,234.837 C161.425,234.423 156.475,233.587 154,232.98 C151.525,232.372 147.475,231.513 145,231.071 C142.525,230.629 134.003,228.855 126.062,227.128 C109.446,223.514 91.167,222.045 85.885,223.899 C80.364,225.836 67.548,226.437 61.214,225.056 C53.027,223.27 51.114,222.345 49.843,219.556 C46.809,212.896 57.392,209.1 75.451,210.369 C80.703,210.738 84.993,210.694 84.985,210.27 C84.955,208.775 83.467,207.262 80.5,205.709 C75.172,202.921 68,195.54 68,192.845 C68,191.485 70.025,187.353 72.5,183.662 C74.975,179.972 77,176.265 77,175.424 C77,174.584 77.878,172.232 78.951,170.198 C81.372,165.608 84,156.965 84,153.592 C84,151.94 82.961,150.292 81.01,148.849 C77.409,146.187 76.68,144.222 77.558,139.544 C78.01,137.135 78.767,136 79.923,136 C82.225,136 89.351,139.513 90.944,141.433 C92.541,143.357 92.642,161.758 91.064,163.336 C90.479,163.921 89.98,165.773 89.957,167.45 C89.933,169.128 88.813,172.3 87.467,174.5 C86.122,176.7 84.563,179.625 84.004,181 C83.444,182.375 82.314,184.694 81.493,186.154 C79.548,189.612 79.6,191.909 81.642,192.693 C84.031,193.61 90,199.289 90,200.644 C90,201.281 91.575,202.732 93.5,203.867 C95.425,205.003 97,206.553 97,207.311 C97,210.167 100.876,211.953 112.51,214.454 C119.105,215.872 128.325,217.892 133,218.943 C144.862,221.61 156.015,223.319 156.75,222.583 C157.091,222.242 155.712,220.265 153.685,218.189 C151.658,216.114 150,214.053 150,213.609 C150,213.165 149.263,211.249 148.362,209.351 C147.07,206.628 146.96,205.383 147.841,203.45 C149.31,200.226 150.228,200.36 151.855,204.036 C154.054,209.004 162.635,217.191 165.253,216.819 C168.761,216.321 170.031,206.293 168.965,187.5 C168.496,179.25 168.261,170.086 168.44,167.135 C168.856,160.303 166.332,149.405 163.41,145.416 C162.168,143.72 161.005,140.84 160.826,139.017 C160.363,134.306 157.961,133.099 154.487,135.832 C152.971,137.024 150.699,138 149.438,138 C146.488,138 143,142.424 143,146.166 C143,149.798 144.945,150.597 148.86,148.572 C152.353,146.766 157.256,146.531 160.066,148.035 C161.522,148.815 162,150.143 162,153.413 C162,155.802 162.683,159.389 163.517,161.386 C164.953,164.824 164.735,169.105 163,171.5 C162.602,172.05 161.98,173.738 161.619,175.25 C161.258,176.762 160.535,178 160.014,178 C159.492,178 155.646,181.375 151.468,185.5 C143.436,193.428 139.369,195.126 138.29,191 C137.181,186.761 133,189.208 133,194.095 C133,195.158 132.616,196.809 132.147,197.764 C130.605,200.904 128.203,206.47 127.676,208.124 C127.111,209.899 120.191,211.655 119.02,210.32 C118.624,209.869 117.543,207.54 116.616,205.144 C114.718,200.237 115.783,197.479 119.161,198.551 C121.808,199.391 123.314,195.679 128.109,176.5 C130.502,166.928 131.02,162.601 131.58,147.5 C132.044,134.998 132.517,131.117 133.742,129.75 C135.78,127.475 137.274,127.54 139.5,130 C142.089,132.861 144.455,132.488 148.839,128.526 C150.954,126.615 153.768,124.595 155.092,124.036 Z M155.826,17.519 C160.558,14.926 161.52,15.847 161.326,22.784 C161.231,26.203 161.468,29 161.854,29 C162.697,29 166.962,26.108 168.871,24.241 C171.545,21.626 173.48,23.204 173.805,28.265 C174.078,32.507 173.773,33.32 170.942,35.906 C169.179,37.516 165.226,39.515 162.032,40.411 C155.193,42.33 153.017,44.453 152.284,49.922 C151.983,52.165 151.346,54 150.868,54 C150.391,54 150,55.202 150,56.671 C150,58.14 149.375,60.053 148.611,60.921 C146.802,62.978 145.499,69 146.863,69 C147.863,69 155.009,65.124 156,64.045 C158.363,61.47 163.952,58.682 166.913,58.6 C170.335,58.505 170.514,58.666 170.803,62.126 C171.074,65.37 170.587,66.213 166.18,70.126 C159.995,75.619 159.392,76.847 158.514,85.743 C157.897,91.992 158.027,93.073 159.463,93.624 C160.536,94.036 161.658,93.505 162.62,92.131 C163.442,90.959 164.708,90 165.434,90 C166.161,90 167.334,89.302 168.042,88.449 C168.822,87.51 170.533,87.017 172.38,87.199 C174.873,87.445 175.689,88.185 176.851,91.253 C178.269,94.994 178.262,95.017 174.566,98.503 C172.526,100.426 170.023,102 169.002,102 C167.982,102 163.485,104.247 159.01,106.994 C154.535,109.74 146.515,114.195 141.187,116.893 C135.859,119.591 128.67,123.261 125.212,125.048 C119.684,127.904 118.638,128.144 116.564,127.034 C114.144,125.739 112.594,121.222 113.637,118.504 C114.101,117.294 135.706,106 137.558,106 C137.825,106 139.796,104.84 141.938,103.422 C145.372,101.15 145.903,100.261 146.417,95.922 C146.738,93.215 147.267,88.75 147.594,86 L148.188,81 L144.925,81 C143.13,81 139.216,82.38 136.227,84.067 C133.238,85.754 130.164,86.893 129.396,86.599 C127.101,85.718 127.842,80.787 130.96,76.187 C132.567,73.814 134.632,69.764 135.547,67.187 C136.463,64.609 137.583,61.6 138.036,60.5 C141.82,51.323 141.393,47.953 136.716,50.084 C133.306,51.637 131.57,50.85 129.57,46.84 C128.025,43.743 128.03,43.451 129.651,42.266 C130.603,41.57 131.978,41 132.706,41 C134.901,41 144.975,34.916 146.023,32.957 C146.56,31.953 147,30.449 147,29.616 C147,27.204 152.895,19.125 155.826,17.519 Z M58,74.4 C62.762,72.615 66.591,72.686 69.535,74.615 C73.136,76.974 72.85,78.735 66.463,93.5 C65.75,95.15 64.847,98.22 64.458,100.321 C64.069,102.423 62.592,105.573 61.176,107.321 C59.759,109.07 58.484,110.669 58.342,110.875 C58.2,111.081 55.971,111.391 53.388,111.564 C46.424,112.03 46.012,112.845 47.11,124 C47.624,129.225 48.487,138 49.028,143.5 C49.74,150.743 50.042,153.53 50.053,156.317 C50.062,158.499 49.892,160.681 49.601,165 C47.997,188.809 47.419,192.096 43.314,200.75 C42.123,203.261 41.144,204 39.009,204 C35.355,204 33.577,201.753 34.463,198.256 C34.847,196.74 35.399,193.7 35.689,191.5 C35.979,189.3 36.791,186.825 37.494,186 C39.272,183.911 40.004,178.38 40.271,165 C40.563,150.365 39.425,136.953 37.501,132.349 C36.676,130.373 36,127.206 36,125.312 C36,123.418 35.611,121.111 35.136,120.184 C34.661,119.258 34.025,115.971 33.722,112.879 C33.219,107.752 33.413,106.993 35.932,104.235 C37.953,102.023 40.277,100.873 44.597,99.948 C51.584,98.451 51.945,98.185 53.653,93.282 C55.63,87.605 55.429,86.675 52.39,87.438 C49.182,88.243 41.038,91.917 39,93.479 C38.175,94.111 34.771,95.162 31.436,95.815 C28.101,96.467 23.601,97.849 21.436,98.885 C15.358,101.794 9.608,102.465 7.638,100.495 C6.463,99.321 6.27,98.364 6.951,97.092 C7.471,96.119 7.658,94.409 7.366,93.291 C6.939,91.659 7.688,90.859 11.167,89.231 C13.55,88.115 17.525,86.939 20,86.617 C29.05,85.44 33.879,84.31 36.164,82.834 C37.449,82.004 42.1,80.062 46.5,78.519 C50.9,76.976 56.075,75.122 58,74.4 Z M142,162.179 C142,165.31 140.663,170.431 138.743,174.655 C136.189,180.275 143.137,180.672 149.161,175.25 C153.443,171.396 159,164.379 159,162.825 C159,161.069 154.142,160.054 150.992,161.153 C148.493,162.024 147.571,161.922 146.126,160.614 C143.395,158.142 142,158.671 142,162.179 Z M95.108,103.798 C95.88,102.355 97.008,101.962 99.711,102.194 C103.098,102.484 103.359,102.769 104.568,107.5 C105.351,110.562 105.488,112.868 104.923,113.45 C104.415,113.972 104,115.592 104,117.05 C104,119.689 98.775,128 97.116,128 C96.637,128 95.686,127.326 95.002,126.502 C93.49,124.68 93.574,106.665 95.108,103.798 Z"/>
</svg>

