<svg xmlns="http://www.w3.org/2000/svg" width="300" height="300" viewBox="0 0 300 300" version="1.1">
  <defs/>
  <path d="M118.488,42.655 C120.529,40.614 120.992,40.606 123.777,42.557 C125.34,43.651 126,45.132 126,47.546 C126,50.706 122.354,61.766 119.752,66.5 C118.627,68.548 117.288,73.78 116.299,80 C115.992,81.925 115.292,83.787 114.743,84.138 C113.315,85.05 114.621,86.734 118.834,89.409 C123.014,92.064 125.155,97.056 127.023,108.5 C127.651,112.35 128.529,117.183 128.974,119.241 C130.362,125.659 128.847,192.481 127.053,204 C124.779,218.596 123.316,233.786 122.612,250.096 C122.465,253.507 120.306,256 117.5,256 C113.897,256 112.649,253.623 113.426,248.242 C113.803,245.634 114.26,241.908 114.441,239.962 C114.622,238.016 115.267,233.966 115.873,230.962 C116.48,227.958 117.394,221 117.904,215.5 C118.415,210 119.126,204.758 119.484,203.851 C120.366,201.622 118.51,200.657 115.964,202.019 C114.145,202.993 112.934,202.315 106.194,196.548 C101.962,192.928 96.794,188.368 94.71,186.415 C92.625,184.462 89.434,182.243 87.617,181.484 C85.801,180.725 82.331,178.446 79.907,176.419 C77.483,174.392 74.037,172.035 72.25,171.182 C70.462,170.328 69,169.263 69,168.815 C69,168.367 68.36,168 67.577,168 C66.794,168 64.762,166.829 63.062,165.399 C59.794,162.649 57.393,162.765 56.301,165.727 C55.941,166.702 54.602,168.892 53.324,170.594 C52.046,172.296 51,174.172 51,174.763 C51,175.354 50.348,177.112 49.551,178.669 C48.754,180.226 47.854,182.175 47.551,183 C47.248,183.825 45.425,186.525 43.5,189 C41.575,191.475 39.708,194.175 39.351,195 C38.329,197.361 34.769,201 33.481,201 C32.837,201 31.476,201.922 30.457,203.048 C27.605,206.199 21.068,205.424 19.032,201.694 C17.611,199.09 17.64,198.783 19.441,197.444 C20.509,196.65 22.568,196 24.017,196 C25.487,196 27.54,195.005 28.662,193.75 C31.559,190.507 39.358,178.183 41.475,173.5 C42.47,171.3 44.345,167.278 45.642,164.563 C46.939,161.847 48,158.768 48,157.721 C48,156.673 48.9,154.671 50,153.273 C52.214,150.458 52.541,149 50.957,149 C49.614,149 40.105,156.053 37.5,158.981 C36.4,160.218 34.6,161.636 33.5,162.132 C32.4,162.628 29.25,164.362 26.5,165.984 C23.75,167.607 20.89,168.949 20.144,168.967 C19.398,168.985 16.97,170.44 14.747,172.2 C12.019,174.361 9.618,175.4 7.354,175.4 C3.208,175.4 2.151,174.399 1.786,170.126 C1.685,168.941 1.593,168.154 1.835,167.488 C2.349,166.072 4.369,165.203 11,162.216 C14.575,160.606 22.45,155.94 28.5,151.847 C34.55,147.754 42.419,142.642 45.986,140.487 C49.553,138.332 54.121,135.079 56.137,133.258 L59.802,129.946 L60.437,117.723 C60.787,111 60.711,102.575 60.269,99 L59.464,92.5 L55.148,92.698 C50.556,92.908 48.377,94.158 46.844,97.459 C44.195,103.164 42.715,105.092 41.208,104.801 C39.035,104.383 37.899,98.521 39.018,93.5 C39.508,91.3 39.731,81.771 39.513,72.324 C39.073,53.27 39.268,52.614 45.185,53.182 L48.5,53.5 L48.782,65.964 C48.962,73.883 48.636,79.465 47.888,81.27 C46.975,83.474 46.986,84.379 47.933,85.306 C48.886,86.237 49.855,85.712 52.328,82.925 C55.512,79.337 58.497,77.158 65,73.675 C66.925,72.643 69.871,70.495 71.548,68.9 C74.808,65.798 77.425,65.325 81.376,67.125 C84.952,68.755 85.645,72.684 82.877,75.63 C81.653,76.934 80.281,78 79.828,78 C79.375,78 76.866,79.514 74.252,81.364 C71.639,83.214 68.263,85.023 66.75,85.383 C63.586,86.137 62.931,89.487 65.801,90.238 C68.533,90.952 71,99.908 71,109.115 C71,114.764 71.354,116.996 72.25,116.985 C73.964,116.965 84,106.57 84,104.815 C84,102.71 86.1,101 88.687,101 C90.369,101 91.373,101.957 92.487,104.622 C93.319,106.614 94,108.63 94,109.101 C94,109.572 89.446,114.579 83.879,120.229 C74.528,129.72 66,139.926 66,141.629 C66,142.021 65.346,143.065 64.548,143.947 C63.749,144.83 62.794,147.435 62.426,149.735 L61.757,153.918 L67.129,156.297 C70.083,157.606 73.147,159.459 73.937,160.416 C74.728,161.373 77.603,163.358 80.326,164.828 C87.871,168.899 88.894,169.552 91.352,171.861 C92.604,173.037 94.084,174 94.64,174 C95.196,174 96.708,175.125 98,176.5 C99.292,177.875 100.833,179.013 101.424,179.029 C102.016,179.044 105.85,182.194 109.945,186.029 C114.039,189.863 117.977,193 118.695,193 C119.653,193 120.055,190.675 120.208,184.25 C120.323,179.438 120.557,171.45 120.728,166.5 C120.891,161.775 120.995,159.059 121.02,156.342 C121.061,151.843 120.886,147.343 120.405,133.718 C120.021,122.838 119.322,113.699 118.853,113.409 C118.384,113.119 118,111.552 118,109.927 C118,108.302 117.598,106.191 117.108,105.236 C116.617,104.281 115.726,102.263 115.129,100.75 C113.571,96.806 110.634,97.213 107.92,101.75 C106.686,103.813 104.771,106.513 103.664,107.75 C101.64,110.013 98.566,110.725 97.597,109.156 C97.173,108.471 103.791,87.399 106.911,79.5 C109.002,74.205 110.285,70.153 111.026,66.5 C114.245,50.622 115.942,45.201 118.488,42.655 Z M149.661,53.134 C150.242,50.963 150.664,50.819 154.796,51.386 C159.919,52.088 162,53.439 162,56.063 C162,57.064 162.45,58.16 163,58.5 C164.579,59.476 164.253,60.357 160.002,66.615 C153.601,76.038 155.026,77.019 164.707,69.854 C167.571,67.734 170.271,65.99 170.707,65.978 C171.143,65.966 172.625,65.076 174,64 C175.375,62.924 177.412,62.034 178.527,62.022 C181.613,61.988 185,64.833 185,67.458 C185,69.767 183.258,71.226 174.258,76.453 C172.409,77.528 168.334,80.47 165.204,82.992 C159.506,87.582 157.452,91 160.391,91 C162.786,91 164,94.323 164,100.875 C164,104.179 164.384,107.12 164.854,107.41 C165.324,107.7 168.519,105.027 171.954,101.469 C175.431,97.868 179.063,95 180.146,95 C182.429,95 187,99.256 187,101.382 C187,102.192 185.762,103.813 184.25,104.983 C182.738,106.154 178.759,110.177 175.409,113.923 L169.318,120.735 L168.659,130.787 C167.729,144.977 168.763,146.614 175.114,141.016 C176.977,139.375 178.962,138.025 179.527,138.016 C180.092,138.007 181.768,136.617 183.251,134.927 C186.159,131.613 189.522,131.265 191.295,134.095 C193.122,137.012 191.148,140.827 185.736,144.835 C182.856,146.968 177.938,151.162 174.806,154.153 L169.112,159.593 L169.17,174.755 C169.211,185.646 168.714,192.452 167.407,198.919 C166.406,203.87 165.793,208.121 166.044,208.366 C166.587,208.895 206.048,210.219 221,210.209 C226.775,210.205 236.45,210.145 242.5,210.076 C253.151,209.953 253.571,210.031 255.75,212.53 C258.547,215.739 258.564,217.014 255.853,220.46 C253.737,223.149 253.581,223.181 245.103,222.611 C240.371,222.293 224.125,221.789 209,221.491 C193.875,221.193 178.953,220.696 175.839,220.387 C169.548,219.762 160.987,221.388 146.352,225.99 C134.128,229.833 130,228.846 130,222.078 C130,218.13 131.413,216 134.031,216 C134.927,216 137.875,214.877 140.581,213.504 C143.286,212.131 146.876,211.006 148.559,211.004 C153.15,210.998 154.766,209.234 157.722,201 C160.033,194.566 160.471,191.546 160.804,179.75 C161.245,164.125 161.135,163.947 154.159,169 C151.881,170.65 149.48,172 148.823,172 C148.166,172 146.632,172.937 145.413,174.082 C144.194,175.227 141.397,176.405 139.197,176.7 C135.812,177.154 135.019,176.904 134.036,175.067 C131.92,171.114 133.131,168.696 138.5,166.155 C141.25,164.854 143.725,163.449 144,163.034 C144.275,162.619 146.075,161.475 148,160.491 C151.534,158.686 158.031,154.144 159.055,152.763 C159.36,152.351 159.517,150.099 159.403,147.757 C159.29,145.416 159.153,141.348 159.099,138.719 C158.992,133.539 157.113,131.697 154.114,133.83 C149.519,137.101 144.556,139.087 141.676,138.808 C138.802,138.529 138.471,138.148 138.193,134.799 C137.909,131.39 138.225,130.888 142.193,128.435 C144.562,126.971 148.3,123.912 150.5,121.637 L154.5,117.5 L154.65,108 C154.732,102.775 154.957,97.662 155.15,96.638 C155.342,95.615 154.78,94.309 153.9,93.738 C152.632,92.915 151.462,93.538 148.249,96.751 C143.012,101.988 140.517,102.774 137.13,100.255 C131.844,96.324 133.382,93.587 147.378,82.027 C154.938,75.782 155.14,75.505 153.107,74.155 C150.704,72.559 150.274,67.688 152.169,63.529 C153.178,61.314 153.042,60.687 151.169,58.943 C148.787,56.723 148.744,56.559 149.661,53.134 Z"/>
</svg>

