<svg xmlns="http://www.w3.org/2000/svg" width="300" height="300" viewBox="0 0 300 300" version="1.1">
  <defs/>
  <path d="M157.915,134.604 C158.822,133.51 160.436,133.006 162.415,133.199 C165.037,133.455 165.545,133.954 165.797,136.531 C166.007,138.675 165.421,140.177 163.797,141.659 C160.062,145.066 144.727,155.03 142.269,155.647 C140.835,156.007 140,156.97 140,158.264 C140,159.39 138.875,161.786 137.5,163.589 C136.125,165.392 135,167.77 135,168.874 C135,169.978 134.55,171.16 134,171.5 C133.45,171.84 133,172.758 133,173.54 C133,174.321 131.425,177.423 129.5,180.433 C127.575,183.442 126,186.574 126,187.393 C126,188.212 125.549,189.161 124.997,189.502 C123.85,190.211 120,198.318 120,200.025 C120,201.915 125.844,200.075 131.662,196.353 C134.601,194.473 137.791,192.64 138.753,192.278 C147.576,188.962 158.708,178.013 159.194,172.173 C159.469,168.87 159.814,168.469 162.622,168.196 C165.324,167.933 166.446,168.674 170.954,173.696 C173.819,176.888 177,181.075 178.023,183 C179.046,184.925 181.259,187.938 182.941,189.696 C184.624,191.453 186,193.163 186,193.494 C186,193.825 187.575,196.558 189.5,199.567 C191.425,202.577 193,205.466 193,205.989 C193,207.02 195.491,211.647 199.298,217.685 C201.464,221.121 203.169,224.356 209.741,237.5 C210.841,239.7 212.886,244.2 214.286,247.5 C219.328,259.385 220.068,260.924 221.027,261.517 C221.562,261.847 222,263.043 222,264.173 C222,265.303 222.839,267.864 223.864,269.864 C224.888,271.864 226.504,275.288 227.454,277.474 L229.182,281.449 L226.075,284.224 C222.266,287.628 221.658,287.652 219.179,284.5 C218.097,283.125 216.705,282 216.085,282 C214.093,282 212.53,277.271 213.954,275.555 C215.478,273.719 212.978,264.67 209.315,258.77 C208.042,256.718 207,254.411 207,253.642 C207,252.874 206.325,251.685 205.5,251 C204.675,250.315 204,249.199 204,248.52 C204,247.348 197.97,235.215 190.323,221 C183.161,207.685 177.447,198.443 172.791,192.642 C170.156,189.359 168,186.329 168,185.909 C168,185.49 167.213,184.977 166.25,184.771 C165.215,184.548 162.433,186.255 159.443,188.947 C149.356,198.028 137.955,204.781 121.525,211.406 C111.396,215.49 110.361,215.637 107.829,213.345 C104.397,210.239 105.597,206.131 115.986,185.414 C124.599,168.238 126.899,162.961 125.75,163.011 C125.612,163.017 123.291,163.692 120.591,164.511 C111.754,167.192 106,165.678 106,160.674 C106,158.124 108.775,155 111.04,155 C111.992,155 114.96,154.368 117.635,153.596 C120.311,152.823 125.171,151.424 128.436,150.486 C131.701,149.548 137.845,146.604 142.089,143.944 C146.333,141.284 151.312,138.478 153.153,137.709 C154.994,136.939 157.137,135.542 157.915,134.604 Z M136.75,17.47 C139.205,14.094 143.06,14.376 145.041,18.077 C146.251,20.338 144.561,28.723 142.418,31.091 C141.61,31.983 140.047,35.281 138.944,38.42 C137.841,41.558 136.554,44.885 136.086,45.813 C133.965,50.01 132.986,52.677 132.752,54.894 C132.526,57.045 133.218,57.509 139.586,59.478 C146.625,61.653 161.316,69.779 167.978,75.18 C169.891,76.731 171.788,78 172.194,78 C173.574,78 193.485,93.371 196.733,96.944 C200.967,101.601 201.586,103.695 199.435,106.072 C196.115,109.74 190.705,107.932 188.384,102.378 C187.366,99.94 185.099,97.767 180.719,95.031 C177.299,92.895 173.088,89.988 171.363,88.573 C169.637,87.158 167.82,86 167.325,86 C166.83,86 164.866,84.668 162.962,83.041 C161.058,81.413 159.214,80.063 158.864,80.041 C158.514,80.018 155.589,78.278 152.364,76.174 C145.535,71.718 136.032,67.431 130.907,66.494 L127.314,65.836 L124.304,72.168 C117.771,85.911 116,89.918 116,90.957 C116,91.552 114.949,93.718 113.665,95.77 C112.381,97.821 110.495,101.412 109.473,103.75 C108.451,106.087 107.252,108 106.808,108 C106.363,108 106,108.706 106,109.57 C106,110.433 104.538,113.246 102.751,115.82 C100.964,118.394 98.76,122.136 97.852,124.135 C95.378,129.582 83.74,141.498 81.67,140.704 C79.26,139.779 79.54,134.722 82.128,132.405 C85.592,129.305 99.793,106.412 104.711,96 C108.697,87.562 112.94,77.82 114.512,73.5 C115.512,70.75 116.706,68.073 117.165,67.55 C117.624,67.028 118,65.994 118,65.254 C118,64.513 119.575,60.543 121.5,56.432 C123.425,52.32 125,48.473 125,47.882 C125,47.292 125.62,45.614 126.378,44.154 C127.136,42.694 128.314,40.15 128.995,38.5 C129.676,36.85 130.631,34.719 131.117,33.764 C131.603,32.809 132.014,31.234 132.032,30.264 C132.049,29.294 132.724,27.626 133.532,26.559 C134.339,25.491 135,23.551 135,22.247 C135,20.943 135.787,18.793 136.75,17.47 Z M72,85.109 C76.226,82.571 77.774,82.485 80.171,84.655 C82.153,86.449 82.502,89.021 81.134,91.764 C79.203,95.636 78.293,99.855 79.111,101.145 C81.772,105.344 79.052,112.104 72.053,118.689 C68.167,122.346 68.003,122.75 68.002,128.691 C68.001,132.096 67.544,135.164 66.987,135.508 C66.367,135.891 66.018,141.915 66.088,151.004 C66.181,163.151 65.909,166.292 64.601,168.159 C63.72,169.417 62.985,171.582 62.967,172.973 C62.897,178.288 56.901,181.996 54.009,178.511 C53.018,177.317 53.113,176.179 54.486,172.761 C55.938,169.146 56.226,164.342 56.383,141.088 C56.53,119.288 56.41,114.246 58.713,112.606 C59.554,112.007 60.718,111.861 62.336,111.519 C68.15,110.288 72.698,101.973 68.449,100.342 C67.595,100.014 62.471,101.829 57.061,104.373 C51.651,106.918 46.587,109 45.807,109 C45.027,109 41.713,109.85 38.444,110.889 C31.539,113.083 18.999,116 16.473,116 C14.308,116 9.874,111.024 10.247,109.011 C10.68,106.676 13.671,106.635 14.278,108.956 C14.874,111.234 18,110.791 18,108.428 C18,107.681 18.87,106.605 19.934,106.035 C22.399,104.716 26,104.695 26,106 C26,106.55 25.55,107 25,107 C24.45,107 24,107.727 24,108.617 C24,109.865 24.627,110.091 26.75,109.61 C28.262,109.267 30.962,108.706 32.75,108.362 C37.524,107.446 36.708,106 31.417,106 C24.704,106 26.278,103.993 34.555,101.998 C38.375,101.077 45.1,98.857 49.5,97.063 C53.9,95.27 58.959,93.254 60.742,92.583 C62.526,91.912 65.001,90.429 66.242,89.287 C67.484,88.144 70.075,86.264 72,85.109 Z M129.474,86.409 C130.871,83.065 131.168,82.898 135.215,83.191 C138.564,83.434 139.56,83.931 139.84,85.5 C140.698,90.303 143.254,93.929 146.549,95.016 C148.62,95.7 150.755,97.485 152.096,99.655 L154.276,103.183 L152.006,109.983 C149.88,116.349 149.839,116.932 151.367,119.114 C152.265,120.396 153,122.261 153,123.258 C153,125.469 150.151,130 148.761,130 C148.206,130 145.057,131.8 141.762,134 C138.468,136.2 135.434,138 135.021,138 C134.608,138 133.197,138.836 131.885,139.858 C130.573,140.879 127.842,142.309 125.816,143.035 C121.636,144.532 119.527,143.517 117.896,139.226 C116.716,136.124 118.205,133.458 122.28,131.373 C128.275,128.306 132.608,124.154 136.294,117.944 C141.335,109.452 139.679,107.295 132.5,113 C130.424,114.65 127.92,116 126.935,116 C125.014,116 121,111.565 121,109.443 C121,108.735 123.111,106.351 125.691,104.146 C130.089,100.387 130.308,99.972 129.191,97.521 C127.604,94.037 127.689,90.679 129.474,86.409 Z"/>
</svg>

