<svg xmlns="http://www.w3.org/2000/svg" width="300" height="300" viewBox="0 0 300 300" version="1.1">
  <defs/>
  <path d="M156.5,138.429 C160.47,136.641 165.064,136.656 167.647,138.465 C170.944,140.775 173.005,146.266 174.516,156.775 C175.286,162.124 176.637,170.325 177.519,175 C179.532,185.67 181.059,207.095 181.496,230.812 C181.682,240.883 182.082,249.771 182.385,250.562 C182.794,251.626 184.787,252 190.058,252 C196.22,252 197.432,252.303 199.056,254.25 C201.49,257.167 201.475,259.26 199.006,261.495 C197.371,262.974 195.434,263.272 188.256,263.148 C178.531,262.98 150.481,265.445 145.619,266.896 C136.448,269.631 132.759,270.072 130.621,268.689 C129.455,267.934 127.247,267.008 125.716,266.631 C121.239,265.528 120.61,262.714 121.966,249.85 C122.624,243.607 123.407,234.2 123.706,228.944 L124.249,219.387 L121.048,216.694 C119.287,215.212 117.182,214 116.37,214 C115.558,214 113.238,212.875 111.215,211.5 C109.191,210.125 106.826,209 105.959,209 C105.092,209 103.509,208.339 102.441,207.532 C101.374,206.724 99.487,206.049 98.25,206.032 C96.312,206.004 95.999,206.52 95.995,209.75 C95.974,224.374 94.985,243.32 94.191,244.31 C93.069,245.709 91.946,251.748 91.685,257.782 C91.49,262.291 90.06,263.958 86.365,263.985 C82.781,264.01 79.233,256.1 81.715,253.618 C83.851,251.482 85.115,241.619 85.672,222.75 C86.263,202.686 86.219,202 84.348,202 C83.283,202 80.706,203.8 78.622,206 C76.537,208.2 74.496,210 74.085,210 C73.675,210 71.828,212.104 69.981,214.676 C68.134,217.247 65.246,220.826 63.562,222.628 C61.878,224.43 59.047,227.87 57.272,230.272 C55.497,232.673 52.81,235.282 51.302,236.069 C49.794,236.856 47.76,238.287 46.78,239.25 C44.722,241.274 38.022,241.622 36.2,239.8 C33.6,237.2 34.835,234.258 39.469,232.015 C41.989,230.795 45.795,227.594 48.196,224.676 C50.538,221.829 55.059,216.847 58.243,213.604 C61.427,210.361 66.12,204.736 68.67,201.104 C71.221,197.472 74.201,193.504 75.293,192.287 C76.385,191.071 77.778,189.223 78.389,188.181 C79,187.139 80.977,184.334 82.782,181.949 C84.588,179.563 85.825,176.987 85.532,176.224 C85.24,175.461 85,173.734 85,172.387 C85,168.827 82.482,168.416 78.938,171.399 C77.238,172.829 75.261,174 74.546,174 C73.83,174 72.641,174.728 71.903,175.617 C70.021,177.884 61.818,181.5 53.148,183.883 C49.104,184.994 44.733,186.6 43.433,187.452 C42.134,188.303 40.148,189 39.022,189 C37.895,189 36.116,189.535 35.068,190.19 C32.467,191.814 30.411,190.006 29.533,185.322 C28.657,180.657 29.724,179.719 38.5,177.437 C42.35,176.436 49.322,174.128 53.993,172.308 C58.664,170.489 62.964,169 63.549,169 C64.133,169 66.161,167.836 68.056,166.414 C69.95,164.991 72.4,163.461 73.5,163.013 C74.6,162.565 77.356,160.843 79.624,159.185 C83.559,156.308 83.768,155.887 84.197,149.951 C84.527,145.395 85.146,143.367 86.511,142.368 C89.344,140.297 92.415,142.732 92.81,147.364 C92.981,149.364 93.498,151 93.959,151 C94.42,151 97.363,149.65 100.5,148 C103.637,146.35 106.957,145 107.879,145 C110.32,145 114,147.851 114,149.742 C114,151.772 110.129,156 108.271,156 C105.591,156 98.001,160.07 96.576,162.271 C95.461,163.993 95.198,167.52 95.421,177.771 C95.579,185.07 95.887,191.171 96.104,191.328 C96.322,191.485 98.3,192.975 100.5,194.638 C105.638,198.522 122.301,207 124.796,207 C126.427,207 126.835,205.929 127.556,199.75 C128.616,190.667 128.603,167.293 127.532,155.771 C126.923,149.215 127.035,146.663 127.983,145.521 C130.928,141.972 137,145.114 137,150.186 C137,154.096 139.83,155.128 141.925,151.982 C144.582,147.991 153.33,139.857 156.5,138.429 Z M109.972,55.052 C110.753,53.593 112.065,53 114.512,53 C118.876,53 121.5,56.446 120.523,60.895 C120.08,62.912 120.411,64.698 121.55,66.436 C123.649,69.64 125.03,69.662 127.964,66.538 C130.34,64.009 145.916,56 148.46,56 C149.242,56 150.16,55.55 150.5,55 C151.285,53.73 156.105,53.709 159.401,54.963 C160.794,55.492 163.236,57.723 164.827,59.92 L167.721,63.915 L166.079,68.708 C163.357,76.647 159.795,82.915 156.559,85.457 C154.877,86.779 151.925,89.253 150,90.956 C147.633,93.049 145.817,93.887 144.39,93.542 C141.266,92.787 136.361,99.17 137.594,102.385 C137.917,103.226 141.628,106.106 145.841,108.784 C150.053,111.463 154.164,114.905 154.976,116.434 C156.359,119.038 156.304,119.335 154.116,121.107 C151.075,123.57 151.036,123.563 145.894,119.694 C143.477,117.876 139.025,115.361 136,114.105 C132.975,112.85 128.78,110.709 126.677,109.349 C121.877,106.243 120.298,107.271 119.394,114.088 C119.038,116.77 118.135,119.473 117.386,120.094 C115.648,121.537 113,120.549 113,118.458 C113,115.977 109.872,117.131 108.081,120.272 C106.029,123.87 91.003,137 88.937,137 C86.633,137 82.635,132.394 83.342,130.552 C83.669,129.7 86.42,127.905 89.455,126.562 C97.9,122.828 102.164,119.212 101.801,116.092 C101.55,113.932 100.918,113.445 98.004,113.168 C96.081,112.986 93.875,112.311 93.1,111.668 C92.326,111.026 88.897,110.46 85.48,110.41 C80.726,110.341 78.149,109.695 74.507,107.66 C71.89,106.197 69.172,105 68.467,105 C67.327,105 62.482,102.97 49.5,97.051 C47.3,96.048 44.242,94.727 42.705,94.115 C40.135,93.091 39.964,92.698 40.586,89.251 C40.958,87.188 41.455,85.162 41.69,84.75 C42.805,82.795 48.191,84.512 58.161,90 C64.156,93.3 69.659,96 70.391,96 C71.122,96 73.426,97.157 75.509,98.571 C80.106,101.69 83.257,101.209 84.946,97.13 C85.606,95.538 87.35,93.135 88.823,91.79 C91.98,88.906 104.575,80 105.496,80 C105.847,80 107.664,78.833 109.535,77.406 C112.739,74.962 112.905,74.542 112.397,70.156 C112.1,67.595 111.187,63.611 110.366,61.302 C109.238,58.128 109.142,56.603 109.972,55.052 Z M154.092,154.035 C152.309,156.254 149.083,159.185 146.925,160.547 C144.766,161.91 143,163.634 143,164.378 C143,165.122 142.168,166.803 141.15,168.115 C139.309,170.489 138.619,175.641 137.347,196.5 C137.079,200.9 136.406,207.425 135.853,211 C135.299,214.575 134.499,221.55 134.074,226.5 C133.649,231.45 132.707,239.105 131.982,243.51 C131.256,247.916 130.982,252.794 131.373,254.35 C132.061,257.091 132.247,257.165 137.292,256.689 C150.728,255.421 169.216,252.268 169.923,251.124 C170.349,250.435 170.499,248.828 170.255,247.553 C170.011,246.278 170.304,244.93 170.906,244.558 C172.258,243.723 172.443,204.392 171.099,203.561 C170.603,203.255 170.232,201.541 170.274,199.752 C170.397,194.491 169.02,189 167.577,189 C166.844,189 165.648,189.719 164.919,190.598 C163.992,191.714 162.601,192.035 160.3,191.661 C157.539,191.213 156.42,191.681 153.364,194.563 C149.102,198.583 147.677,198.805 145.557,195.777 C142.64,191.614 143.541,187.807 148.406,183.74 C150.83,181.714 154.358,179.32 156.246,178.42 C159.406,176.913 159.926,176.91 162.79,178.391 C166.959,180.547 169.284,180.491 168.604,178.25 C168.312,177.287 167.549,173.35 166.908,169.5 C166.268,165.65 165.434,160.7 165.055,158.5 C163.465,149.27 159.288,147.569 154.092,154.035 Z M147.5,66.439 C137.2,70.561 126.046,77.673 124.853,80.878 C124.498,81.834 123.882,86.077 123.486,90.308 C122.859,96.999 122.974,98 124.368,98 C125.892,98 128.758,94.087 132.059,87.5 C134.158,83.311 139.447,82.693 141.153,86.437 C141.796,87.847 142.611,89 142.964,89 C144.431,89 154.253,74.813 154.961,71.672 C156.334,65.586 153.899,63.878 147.5,66.439 Z M113.31,24.001 C122.005,19.601 130.117,16 131.337,16 C134.167,16 138,18.66 138,20.623 C138,23.373 132.908,29 130.419,29 C129.131,29 124.758,30.575 120.703,32.5 C116.647,34.425 112.439,36 111.352,36 C110.264,36 108.081,37.35 106.5,39 C101.538,44.179 97.129,42.611 97.369,35.751 L97.5,32.003 Z M153.48,209.489 C158.067,206.046 160.328,205 163.181,205 C167.622,205 168.697,206.488 168.179,211.916 C167.862,215.248 167.336,216.036 164.854,216.901 C163.233,217.466 160.742,218.845 159.318,219.964 C157.895,221.084 156.086,222 155.298,222 C154.511,222 152.392,223.125 150.589,224.5 C147.085,227.173 144.051,227.633 140.934,225.965 C139.469,225.181 139,223.856 139,220.5 C139,215.734 140.637,214.01 145.184,213.989 C146.458,213.984 150.191,211.959 153.48,209.489 Z M109.385,88.236 C107.798,89.466 105.68,91.491 104.677,92.736 C103.675,93.981 102.253,95 101.516,95 C100.09,95 95,100.528 95,102.077 C95,102.585 97.116,103 99.702,103 C103.617,103 104.946,103.525 107.636,106.132 C113.007,111.337 114,109.917 114,97.031 C114,90.964 113.611,86 113.135,86 C112.659,86 110.972,87.006 109.385,88.236 Z"/>
</svg>

