<svg xmlns="http://www.w3.org/2000/svg" width="300" height="300" viewBox="0 0 300 300" version="1.1">
  <defs/>
  <path d="M113.5,146.38 C115.15,145.646 118.472,145.035 120.882,145.023 C124.597,145.003 125.759,145.525 128.517,148.449 C130.306,150.346 132.004,153.383 132.292,155.199 C132.579,157.014 133.295,160.3 133.883,162.5 C134.471,164.7 134.963,169.901 134.976,174.059 C134.992,178.915 134.859,181.721 136.195,183.211 C138.125,185.366 143.125,184.772 156.077,183.647 C166.21,182.767 181.774,181.747 190.664,181.38 L206.829,180.712 L209.414,183.502 C210.836,185.037 212,186.568 212,186.906 C212,187.244 210.828,188.785 209.395,190.33 C207.161,192.739 206.269,193.053 203.145,192.529 C201.14,192.193 195.225,191.876 190,191.825 C181.447,191.74 174.797,192.226 147.241,194.952 C142.699,195.402 138.329,196.312 137.53,196.975 C136.379,197.93 136.201,199.881 136.675,206.341 C137.004,210.828 137.743,215.094 138.317,215.819 C139.634,217.485 145.345,216.775 161,213 C178.494,208.782 180.596,208.596 183.05,211.05 C185.918,213.918 185.305,218.101 181.769,219.788 C179.672,220.789 178.54,220.824 176.892,219.942 C175.273,219.076 174.57,219.078 174.031,219.95 C173.637,220.587 170.657,221.507 167.408,221.995 C164.159,222.484 160.114,223.306 158.42,223.823 C156.726,224.34 152.001,225.093 147.92,225.496 C143.839,225.899 139.767,226.614 138.871,227.084 C137.175,227.976 135.687,240.822 135.464,256.5 C135.274,269.774 132.69,285.301 130.18,288.25 C127.785,291.063 123.406,290.468 120.826,286.978 C119.597,285.317 117.109,283.082 115.296,282.012 C113.483,280.943 112,279.361 112,278.499 C112,277.636 111.359,275.933 110.576,274.715 C109.792,273.497 109.011,270.475 108.84,268 C108.548,263.779 108.694,263.481 111.192,263.191 C113.48,262.925 114.122,263.486 115.764,267.191 C117.945,272.11 120.342,274.466 122.372,273.687 C123.975,273.073 125.515,262.979 126.825,244.5 C127.884,229.574 127.783,229.403 118.895,231.038 C115.378,231.686 111.765,232.588 110.867,233.043 C109.969,233.498 105.919,234.565 101.867,235.413 C97.815,236.261 92.925,237.45 91,238.055 C89.075,238.66 83.45,239.587 78.5,240.115 C73.55,240.642 67.123,241.324 64.219,241.631 C60.304,242.044 58.298,241.77 56.469,240.571 C52.618,238.048 53.228,233.704 59.026,222.35 C61.79,216.938 63.923,211.841 63.766,211.025 C63.21,208.135 55.137,209.806 44.286,215.057 C38.669,217.776 33.451,220 32.691,220 C31.932,220 30.483,219.086 29.473,217.97 C28.032,216.378 27.837,215.365 28.57,213.281 C29.629,210.27 38.304,204.592 43.316,203.628 C54.563,201.465 65.997,198.227 68.75,196.426 C69.987,195.616 71,194.02 71,192.878 C71,191.736 71.634,189.384 72.409,187.651 C73.184,185.918 74.049,183.375 74.331,182 C75.651,175.567 77.79,168.182 79.254,165 C80.139,163.075 81.025,160.6 81.221,159.5 C81.507,157.895 82.245,157.555 84.956,157.777 C87.423,157.978 89.033,157.392 90.918,155.605 C92.338,154.258 97.325,151.932 102,150.435 C106.675,148.938 111.85,147.113 113.5,146.38 Z M99.75,26.672 C105.745,25.045 107.964,28.266 107.985,38.628 C107.995,43.118 108.466,46.141 109.258,46.799 C110.159,47.547 112.642,47.042 118.008,45.021 C122.129,43.468 128.298,41.411 131.718,40.45 C137.526,38.818 138.316,38.81 143.718,40.333 C150.399,42.215 153.987,45.81 153.995,50.626 C154.007,58.368 146.959,68.365 134.5,78.276 C131.75,80.463 129.5,82.624 129.5,83.078 C129.5,83.531 131.525,84.97 134,86.276 C138.384,88.589 138.508,88.788 138.807,93.968 C139.173,100.293 138.141,101.782 134.857,99.671 C133.561,98.838 129.8,97.389 126.5,96.45 C123.2,95.512 118.377,93.677 115.783,92.372 C112.202,90.571 110.274,89.55 109.196,90.124 C107.89,90.819 107.828,93.851 107.579,100.664 C107.536,101.853 106.487,103.907 105.25,105.228 C104.013,106.548 103,108.627 103,109.846 C103,112.867 100.089,113.835 98.29,111.412 C96.882,109.518 96.97,104.826 98.528,98.75 C99.754,93.97 96.89,95.571 90.5,103.238 C87.2,107.198 83.037,111.772 81.25,113.403 C77.241,117.061 77.173,118 80.918,118 C85.432,118 86.926,118.935 89.044,123.086 C90.912,126.748 90.925,127.09 89.311,130.473 C87.09,135.133 88.479,136.873 92.944,135.023 C94.625,134.327 96,133.423 96,133.015 C96,132.606 98.138,131.487 100.75,130.528 C109.922,127.161 119.317,122.077 126.395,116.649 C132.177,112.215 135.647,112.087 137.958,116.222 C139.45,118.892 139.383,119.042 134.513,123.987 C129.443,129.134 115.166,136.933 107.927,138.51 C106.042,138.92 101.865,140.095 98.644,141.12 C95.423,142.146 91.716,142.716 90.407,142.387 C88.422,141.889 87.071,142.843 82.263,148.139 C72.54,158.85 65.902,165 64.064,165 C63.099,165 61.485,164.089 60.477,162.975 C58.679,160.988 58.737,160.861 63.572,156.225 C69.708,150.342 70.845,148.856 74.812,141.53 C78.492,134.737 78.798,131.663 76.03,129.294 C74.729,128.18 74.247,126.862 74.611,125.413 C75.391,122.306 73.667,121.687 70.71,124.014 C66.325,127.463 61.608,126.045 60.487,120.941 C59.654,117.149 61.224,115.223 69.003,110.498 C76.249,106.096 83.756,97.426 82.313,95.124 C80.868,92.817 77.986,92.647 72.907,94.571 C67.342,96.679 63.645,96.576 60.206,94.218 C56.927,91.969 46.682,87 45.325,87 C44.788,87 43.292,85.875 42,84.5 C40.708,83.125 39.312,82 38.896,82 C37.801,82 26.638,74.474 25.246,72.796 C24.525,71.928 24.303,69.91 24.675,67.617 C25.354,63.43 28.126,61.023 32.637,60.702 C35.166,60.522 35.536,60.881 35.99,63.954 C36.508,67.461 39.816,70.61 48.113,75.493 C49.976,76.589 53.975,78.938 57,80.713 C63.695,84.641 67.187,84.889 69.349,81.59 C72.474,76.821 87.629,62.251 93.75,58.132 C100.62,53.508 101.333,51.579 98.652,44.872 C97.448,41.862 97.297,39.054 97.842,29.823 C97.937,28.213 98.697,26.957 99.75,26.672 Z M109,158.623 C105.425,160.011 101.719,161.564 100.764,162.074 C99.809,162.583 98.401,163 97.636,163 C96.871,163 95.706,163.649 95.048,164.442 C94.39,165.235 92.43,166.023 90.693,166.192 C87.764,166.478 87.438,166.898 86.186,172 C85.444,175.025 84.506,179.623 84.102,182.219 C83.697,184.814 82.609,187.774 81.683,188.797 C79.868,190.803 79.41,194 80.938,194 C81.454,194 84.716,193.369 88.188,192.598 C91.66,191.826 96.188,190.906 98.25,190.552 C102.298,189.858 103.331,187.349 100.526,185.022 C98.438,183.288 97.488,177.322 99.009,175.489 C100.64,173.524 104.416,173.591 106.096,175.616 C107.691,177.538 109.964,183.77 109.985,186.281 C110.007,188.887 111.744,189.154 119,187.662 C123.651,186.706 125.594,185.84 125.832,184.618 C126.362,181.894 122.94,162.821 121.282,159.25 C119.44,155.285 117.807,155.201 109,158.623 Z M89.5,202 C88.4,202.473 85.899,202.891 83.941,202.93 C81.984,202.968 79.702,203.563 78.871,204.25 C76.56,206.162 74,210.702 74,212.888 C74,213.965 72.926,216.122 71.614,217.682 C69.361,220.36 66,227.208 66,229.122 C66,230.268 78.097,230.146 84.5,228.936 C87.25,228.416 91.178,227.71 93.23,227.367 C95.911,226.918 97.715,225.752 99.647,223.219 L102.334,219.695 L99.713,215.031 C98.083,212.131 97.306,209.548 97.658,208.2 C97.97,207.008 97.941,204.9 97.593,203.516 C97.105,201.57 96.343,201.016 94.231,201.07 C92.729,201.109 90.6,201.527 89.5,202 Z M106.631,2.129 C109.309,1.07 113.364,0.159 115.642,0.102 C119.234,0.014 119.864,0.322 120.393,2.431 C121.79,7.997 117.232,13 110.764,13 C108.679,13 106.191,13.395 105.236,13.878 C100.817,16.112 95.779,18 94.235,18 C93.302,18 90.158,18.987 87.248,20.193 C82.646,22.1 81.775,22.198 80.56,20.943 C79.263,19.603 78.61,17.047 78.885,14.386 C78.948,13.773 81.138,12.467 83.75,11.484 C86.362,10.5 89.388,9.089 90.473,8.348 C91.557,7.607 93.595,7 95,7 C96.405,7 98.502,6.337 99.659,5.526 C100.816,4.716 103.954,3.187 106.631,2.129 Z M122.874,197.46 C122.66,197.674 119.185,198.052 115.152,198.3 C106.384,198.839 103.971,200.446 105.823,204.51 C106.47,205.931 107,207.883 107,208.847 C107,209.811 107.555,211.155 108.232,211.832 C108.91,212.51 109.923,214.963 110.482,217.282 C111.376,220.986 111.872,221.536 114.553,221.799 C116.233,221.963 119.72,221.191 122.303,220.084 L127,218.071 L127,208.571 C127,200.317 126.755,198.939 125.131,198.07 C124.104,197.52 123.088,197.246 122.874,197.46 Z M136.614,50.815 C136.298,51.327 133.896,51.789 131.276,51.841 C127.885,51.909 124.358,53.026 119.032,55.718 C110.753,59.904 110.35,60.566 109.876,70.81 C109.664,75.374 109.93,76.555 111.221,76.804 C112.19,76.991 113.108,76.196 113.529,74.807 C113.915,73.538 115.174,71.469 116.328,70.209 C117.481,68.949 118.892,66.517 119.463,64.805 C121.861,57.606 127.297,58.614 127.805,66.352 C128.178,72.038 130.378,72.544 133.723,67.711 C141.344,56.702 143.092,53.715 142.805,52.199 C142.455,50.354 137.573,49.263 136.614,50.815 Z M95.5,69.139 C94.4,69.746 92.127,71.691 90.448,73.461 C88.769,75.231 86.614,77.117 85.657,77.652 C83.745,78.722 84.344,82 86.452,82 C88.396,82 90.915,85.327 91.613,88.816 C92.383,92.666 94.719,92.992 97.828,89.683 C99.698,87.693 100.039,86.043 100.252,77.965 C100.518,67.889 99.886,66.716 95.5,69.139 Z"/>
</svg>

