<svg xmlns="http://www.w3.org/2000/svg" width="300" height="300" viewBox="0 0 300 300" version="1.1">
  <defs/>
  <path d="M93.571,38.571 C95.776,36.366 97.701,36.61 100.545,39.455 C102.213,41.122 103,43.027 103,45.396 C103,47.313 103.389,49.122 103.864,49.416 C104.339,49.709 104.727,51.796 104.727,54.053 C104.727,56.509 105.38,58.809 106.354,59.783 C107.857,61.285 108.574,61.135 115.741,57.813 C125.122,53.464 135.727,49.998 139.631,50.006 C144.448,50.015 149.859,51.96 151.471,54.261 C153.493,57.149 153.427,65.274 151.348,69.294 C148.035,75.7 141.808,82.999 139.63,83.029 C137.843,83.054 131,88.088 131,89.377 C131,89.601 132.012,90.039 133.25,90.352 C136.588,91.197 147.647,98.637 148.372,100.526 C149.75,104.119 149.019,107.652 146.631,108.93 C143.137,110.8 140.792,109.922 138.078,105.728 C136.403,103.141 134.54,101.684 132.046,101.012 C130.062,100.478 127.552,99.371 126.469,98.552 C125.342,97.7 122.322,97.05 119.405,97.032 C115.611,97.008 113.849,96.49 112.503,95.004 C109.849,92.071 108.353,93.969 107.564,101.274 C106.213,113.781 106.014,116.37 104.876,116.886 C104.502,117.055 104.025,117 103.372,117 C102.033,117 100.716,116.424 100.446,115.721 C100.177,115.018 99.853,106.136 99.728,95.984 C99.519,79.085 99.347,77.497 97.694,77.179 C96.053,76.864 79.776,86.936 78.444,89.091 C78.135,89.591 77.009,90 75.941,90 C74.873,90 74,90.591 74,91.314 C74,92.298 75.471,92.521 79.858,92.204 C85.806,91.774 86.346,92.006 89.284,96.261 C90.34,97.79 90.922,97.861 93.712,96.806 C95.478,96.137 97.199,95.866 97.536,96.202 C98.696,97.363 95.002,102.885 90.855,106.188 C77.18,117.082 77.579,121 92.365,121 C99.271,121 101,122.03 101,126.143 C101,129.007 97.909,132 94.952,132 C91.306,132 86,141.439 86,147.926 C86,149.397 85.449,151.151 84.775,151.825 C83.808,152.792 83.808,153.464 84.775,155.011 C85.449,156.09 86,157.789 86,158.786 C86,159.784 86.485,161.085 87.077,161.677 C88.17,162.77 84.654,165.898 80.75,167.306 C78.502,168.117 78.563,169.874 80.948,172.977 C82.775,175.354 83.039,175.404 87.504,174.21 C91.246,173.209 92.678,173.216 94.823,174.244 C97.17,175.369 97.519,176.171 97.734,180.933 C97.926,185.186 97.429,187.326 95.416,190.923 C93.374,194.571 92.977,196.323 93.459,199.557 C94.025,203.348 93.817,203.812 90.282,206.658 C83.318,212.265 81.878,224.424 88.783,219.319 C90.321,218.181 94.037,216.074 97.04,214.635 C100.043,213.197 103.704,211.052 105.176,209.87 C107.693,207.847 110.884,207.313 115.5,208.141 C117.448,208.491 117.496,207.999 117.33,189.319 C117.169,171.162 115.51,156.955 112.981,152.073 C111.308,148.844 108.86,139.036 109.477,138.037 C110.919,135.704 116.17,136.97 119.7,140.5 C123.827,144.627 124.301,144.715 126.262,141.722 C127.083,140.47 130.172,138.224 133.127,136.732 C136.082,135.24 140.75,132.681 143.5,131.044 C146.25,129.407 149.908,127.424 151.628,126.636 C153.348,125.848 155.062,124.708 155.437,124.102 C156.679,122.092 160.587,122.96 163.37,125.864 C167.116,129.775 168.953,136.399 170.062,150 C170.578,156.325 171.22,163.525 171.488,166 C171.757,168.475 172.135,199.637 172.328,235.25 L172.679,300 L165.84,300 C162.078,300 159,299.631 159,299.18 C159,298.729 157.425,296.52 155.5,294.271 C153.575,292.022 152,289.539 152,288.754 C152,287.968 149.975,285.427 147.5,283.108 C142.944,278.837 141.837,275.387 143.95,272.046 C144.739,270.8 145.236,270.789 147.435,271.965 C148.846,272.72 150,273.673 150,274.083 C150,275.469 160.49,287 161.75,287 C161.886,287 162.009,287.004 162.12,286.97 C163.182,286.644 163.172,282.829 163.189,238.651 C163.197,220.034 162.813,204.413 162.338,203.938 C160.896,202.496 154.165,205.437 150.212,209.236 C148.17,211.199 144.987,213.707 143.139,214.809 C141.29,215.912 139.255,217.868 138.616,219.157 C137.956,220.487 136.383,221.626 134.977,221.792 C133.029,222.022 132.096,221.335 130.612,218.578 C128.867,215.338 128.844,214.886 130.311,212.648 C131.969,210.117 144.343,201 146.12,201 C146.683,201 149.096,199.856 151.481,198.458 C154.484,196.699 156.591,196.11 158.327,196.546 C160.174,197.01 161.085,196.691 161.781,195.338 C163.004,192.96 162.414,164.57 161.047,160.007 C160.471,158.085 160,154.62 160,152.306 C160,149.992 159.517,145.846 158.927,143.093 C157.266,135.35 154.558,135.456 142.516,143.739 C139.773,145.626 136.102,147.766 134.36,148.494 C129.276,150.618 124.736,155.963 125.456,158.975 C126.645,163.949 127.699,203.705 126.915,214 C126.027,225.669 125.406,229.615 123.529,235.5 C122.827,237.7 121.693,241.3 121.01,243.5 C118.223,252.464 110.492,255.983 106.035,250.317 C103.195,246.707 103.77,244.573 107.684,244.192 C109.426,244.023 111.296,243.348 111.839,242.692 C113.151,241.109 117,225.514 117,221.783 C117,219.044 116.796,218.886 114.041,219.491 C112.414,219.848 108.701,221.257 105.791,222.622 C97.531,226.496 94.837,227.683 90,229.584 C82.373,232.58 81.909,233.401 81.692,244.281 C81.56,250.859 81.894,254.286 82.75,255.145 C85.854,258.261 81.777,263.532 76.808,262.827 C73.585,262.37 72.125,257.431 72.056,246.75 C71.991,236.556 71.917,236.507 63.221,240.871 C60.075,242.45 54.8,244.515 51.5,245.46 C48.2,246.404 44.15,247.999 42.5,249.004 C40.85,250.01 37.7,251.155 35.5,251.549 C33.3,251.943 30.7,253.1 29.722,254.121 C26.717,257.257 22.942,257.647 20.831,255.04 C19.824,253.796 19,251.736 19,250.462 C19,247.93 22.91,244.312 26.665,243.369 C27.952,243.046 30.674,241.931 32.714,240.891 C34.754,239.851 37.138,239 38.011,239 C38.885,239 40.037,238.563 40.57,238.03 C41.104,237.496 46.257,235.661 52.02,233.952 C61.552,231.125 66.872,229.193 71,227.058 C71.942,226.571 72.5,224.84 72.5,222.405 C72.5,217.706 70.442,216.882 66.297,219.922 C59.751,224.722 54,223.148 54,216.556 C54,213.503 53.713,213.21 50.169,212.643 C48.061,212.306 45.532,211.14 44.548,210.053 C42.022,207.262 36.414,205.5 30.054,205.5 C25.169,205.5 24.45,205.219 23.061,202.771 C21.611,200.214 21.65,199.905 23.691,197.865 C25.718,195.837 32.02,193.049 34.654,193.015 C35.289,193.007 38.594,194.575 42,196.5 C45.406,198.425 48.579,200 49.051,200 C49.524,200 52.423,197.547 55.493,194.55 C58.563,191.552 63.646,187.39 66.788,185.3 C71.723,182.017 72.539,181.024 72.79,178 C73.051,174.848 72.575,174.102 68.001,170.5 C62.634,166.272 60.974,162.942 63.01,160.488 C63.974,159.326 63.983,158.373 63.05,156.121 C62.394,154.537 62.002,152.399 62.179,151.37 C62.541,149.259 58.745,148.168 56.695,149.794 C54.843,151.264 45.439,153.382 43.712,152.72 C42.627,152.303 42.167,150.751 42.167,147.51 C42.167,142.436 42.473,142.197 55.256,137.316 C57.872,136.317 60.246,134.772 60.532,133.882 C60.817,132.992 61.944,131.456 63.035,130.468 C64.749,128.918 65.353,128.851 67.46,129.978 C71.778,132.29 78.771,127.675 76.506,124.009 C75.445,122.293 71.534,122.895 69.68,125.06 C68.433,126.517 66.977,127.03 64.708,126.81 C61.818,126.531 61.47,126.144 61.199,122.91 C60.884,119.151 61.982,118.139 78.999,106.5 C83.431,103.468 82.828,101.923 77.25,102.018 C70.254,102.138 62.853,101.362 59.919,100.2 C55.05,98.272 44.494,96.124 36.679,95.47 C29.274,94.851 28.755,94.648 26.912,91.658 C23.939,86.834 24.703,84.565 29.433,84.179 C31.596,84.002 34.296,84.29 35.433,84.818 C37.999,86.011 47.369,88 50.423,88 C51.671,88 54.133,88.718 55.893,89.597 C60.118,91.704 63.301,90.783 66.562,86.508 C68.02,84.596 70.853,82.026 72.857,80.797 C74.861,79.569 78.447,77.087 80.827,75.282 C83.206,73.477 85.964,72 86.954,72 C87.945,72 89.279,71.369 89.919,70.598 C90.558,69.827 92.159,68.926 93.474,68.596 C96.824,67.755 97.352,65.049 95.481,58.313 C91.379,43.543 91.134,41.009 93.571,38.571 Z M107.5,15.375 C112.468,12.759 114.532,12.24 119.5,12.358 L125.5,12.5 L125.531,16 C125.578,21.231 125.257,21.668 120.375,23.035 C116.455,24.133 112.271,26.091 102,31.638 C100.625,32.38 98.133,32.99 96.461,32.994 C94.79,32.997 91.658,33.9 89.5,35 C83.601,38.007 82.203,37.639 79.998,32.495 C77.555,26.796 78.237,24.597 82.202,25.39 C84.184,25.787 85.978,25.373 87.808,24.095 C89.289,23.062 92.975,21.389 96,20.376 C99.025,19.364 104.2,17.113 107.5,15.375 Z M129,62.468 C125.425,63.769 119.35,66.193 115.5,67.855 L108.5,70.876 L108.21,78.938 C108.026,84.041 108.301,87 108.96,87 C110.854,87 117.611,79.138 120.446,73.635 C122.334,69.969 126.713,66 128.869,66 C131.548,66 133.051,73.549 130.817,75.783 C128.96,77.64 130.741,78.477 133.456,77.024 C136.779,75.245 143.198,65.399 142.81,62.675 C142.37,59.584 137.138,59.505 129,62.468 Z M147.946,168.601 C153.059,163.259 158,164.081 158,170.274 C158,172.504 156.6,174.466 151.75,179.036 C145.024,185.374 144.051,186.35 140.365,190.453 C138.823,192.17 137.156,193.02 135.729,192.817 C133.737,192.534 133.469,191.843 133.204,186.318 L132.908,180.137 L138.704,176.169 C141.892,173.987 146.051,170.581 147.946,168.601 Z M67.55,195.96 C65.501,197.589 63.076,199.18 62.162,199.497 C60.26,200.156 56,206.428 56,208.569 C56,210.783 58.515,210.28 63.846,207 C66.527,205.35 69.164,204 69.706,204 C72.69,204 74.87,198.432 73.393,194.582 C72.553,192.393 71.821,192.566 67.55,195.96 Z M73.78,140.25 C71.469,142.054 70.727,156.197 72.966,155.773 C74.73,155.438 77.801,147.054 77.92,142.25 C78.006,138.769 76.568,138.075 73.78,140.25 Z"/>
</svg>

