<svg xmlns="http://www.w3.org/2000/svg" width="300" height="300" viewBox="0 0 300 300" version="1.1">
  <defs/>
  <path d="M99.659,33.131 C102.336,31.575 105.085,31.767 107.171,33.655 C108.666,35.007 109,36.841 109,43.686 C109,53.431 109.972,54.503 115.832,51.224 C120.044,48.866 132.895,45.997 139.208,46.006 C148.909,46.018 153.058,48.709 154.371,55.84 C154.886,58.639 154.441,59.855 151.624,63.34 C149.776,65.628 147.16,69.525 145.812,72 C143.951,75.417 142.061,77.164 137.958,79.258 C134.987,80.775 131.919,82.653 131.141,83.43 C129.252,85.319 130.342,87.799 133.605,89.04 C139.021,91.099 141.667,93.734 141.667,97.069 C141.667,99.213 142.415,100.805 143.979,101.984 C146.012,103.518 146.163,104.093 145.233,106.763 C144.651,108.432 142.023,111.756 139.393,114.149 C136.764,116.542 133.912,119.31 133.056,120.301 C132.2,121.291 130.288,123.36 128.807,124.898 C125.043,128.809 124.197,132.61 126.901,133.469 C128.04,133.83 130.338,135.492 132.007,137.161 C133.98,139.133 136.404,140.379 138.933,140.718 C142.492,141.195 142.96,140.977 144.412,138.17 C145.286,136.481 146,134.318 146,133.364 C146,131.189 149.848,127 151.846,127 C154.317,127 157,130.131 157,133.015 C157,134.503 155.875,137.379 154.5,139.405 C153.125,141.431 152,143.412 152,143.806 C152,144.947 134.62,161.548 132.623,162.314 C129.452,163.531 128.921,161.972 131.386,158.689 C132.703,156.935 134.08,154.087 134.446,152.359 C135.046,149.523 134.777,149.037 131.675,147.359 C129.785,146.337 125.676,143.777 122.545,141.672 C116.41,137.547 114,137.482 114,141.443 C114,143.167 114.861,144.394 116.76,145.376 C120.111,147.109 126,155.057 126,157.848 C126,161.92 124.139,165 121.68,165 C119.187,165 117.27,163.218 115.12,158.904 C113.471,155.593 107.612,153 101.779,153 C98.009,153 96.945,152.564 95.562,150.454 C93.239,146.908 94.283,144.684 100.303,140.357 C105.504,136.617 117.716,124.814 121.493,119.876 C132.567,105.397 134.343,102.436 133.192,100.378 C132.714,99.524 129.872,97.829 126.876,96.611 C123.88,95.394 119.94,93.071 118.119,91.449 C116.299,89.827 114.341,88.5 113.769,88.5 C113.137,88.5 112.655,92.063 112.544,97.553 C112.344,107.464 111.857,109 108.916,109 C106.623,109 104.616,104.666 105.422,101.454 C105.715,100.286 105.513,97.794 104.972,95.915 C104.431,94.037 103.729,87.775 103.412,82 C103.095,76.225 102.471,71.121 102.025,70.657 C101.001,69.592 98.498,70.938 90.067,77.089 C86.365,79.79 82.774,82 82.085,82 C81.397,82 81.032,82.563 81.274,83.25 C81.557,84.05 83.251,84.398 85.984,84.218 C88.657,84.041 91.177,84.541 92.727,85.557 C95.272,87.225 95.307,87.686 93.444,95.25 C92.835,97.722 93.031,98 95.383,98 C96.823,98 98,98.566 98,99.257 C98,101.304 81.756,117.018 75.902,120.635 C68.352,125.299 68.151,125.371 66.487,123.989 C62.071,120.324 67.564,112.432 77.197,108.602 C81.771,106.783 82.545,106.082 82.827,103.497 C83.007,101.849 83.569,100.073 84.077,99.55 C84.585,99.028 85,97.742 85,96.693 C85,95.269 84.557,94.969 83.25,95.506 C79.041,97.239 78.127,97.124 76.509,94.655 C74.634,91.793 71.537,92.122 72.316,95.1 C72.653,96.389 71.779,97.523 69.339,98.962 C64.794,101.644 63.9,101.549 60.522,98.023 C58.954,96.386 56.057,94.527 54.085,93.893 C52.113,93.258 49.933,92.289 49.24,91.739 C46.978,89.943 38.682,88.603 29.5,88.551 L20.5,88.5 L20.2,84.414 C19.831,79.371 21.159,78.124 27.725,77.346 C35.511,76.424 46.713,79.54 59.306,86.132 L63.112,88.124 L71.135,80.047 C75.547,75.605 80.582,71.233 82.323,70.333 C84.064,69.433 87.782,66.965 90.585,64.848 C93.388,62.732 96.134,61 96.686,61 C97.238,61 98.496,60.11 99.481,59.021 C101.025,57.315 101.12,56.454 100.172,52.771 C99.568,50.422 98.79,45.283 98.445,41.351 C97.893,35.068 98.04,34.072 99.659,33.131 Z M146.45,157.931 C146.972,157.419 148.512,157 149.871,157 C155.966,157 158.223,164.868 153.486,169.605 C151.339,171.751 150.354,172.035 146.736,171.546 C140.379,170.686 138.984,172.292 137.711,181.934 C137.126,186.36 136.974,190.307 137.372,190.705 C138.527,191.86 141.47,189.499 141.821,187.137 C141.998,185.949 143.482,184.285 145.12,183.438 C148.029,181.934 148.178,181.978 151.549,185.349 C153.447,187.247 155,189.498 155,190.352 C155,191.977 147.045,198 144.899,198 C142.793,198 140,201.19 140,203.596 C140,204.853 139.55,206.16 139,206.5 C138.45,206.84 138,209.386 138,212.158 C138,214.93 137.388,218.616 136.641,220.349 C132.083,230.912 132.222,231.465 139,229.784 C150.153,227.02 225.616,229.448 237.883,232.966 C239.614,233.463 242.489,233.633 244.271,233.343 C246.806,232.932 248.108,233.371 250.256,235.361 C253.649,238.506 253.655,239.069 250.335,243.013 C247.973,245.821 247.264,246.107 244.085,245.531 C242.113,245.174 238.576,244.76 236.225,244.611 C233.799,244.457 230.706,243.419 229.073,242.212 C226.393,240.231 224.21,240.004 197.391,238.926 C181.549,238.289 163.392,238.018 157.043,238.322 C146.416,238.832 141.039,239.428 123,242.096 C119.425,242.624 114.13,243.218 111.232,243.414 C108.335,243.611 104.633,244.324 103.005,244.998 C101.377,245.672 98.349,246.026 96.276,245.784 C94.203,245.542 90.522,245.942 88.095,246.672 C82.149,248.461 81.623,248.395 78.077,245.411 C74.136,242.095 74.201,240.657 78.412,238.054 C81.312,236.262 84.824,235.727 101.781,234.492 C112.758,233.692 122.372,232.795 123.146,232.497 C125.157,231.726 130.142,217.993 129.395,215.283 C128.435,211.801 125.363,211.476 121.128,214.411 C119.074,215.835 117.102,217 116.747,217 C116.392,217 114.9,215.424 113.43,213.498 C110.131,209.172 110.742,208.212 119.399,204.121 C127.963,200.075 128.231,199.623 127.412,190.588 C126.833,184.197 126.44,183 124.921,183 C123.929,183 122.848,183.437 122.518,183.972 C121.795,185.141 113.286,189 111.43,189 C109.667,189 107,185.065 107,182.466 C107,180.529 111.77,176 113.811,176 C114.984,176 124.082,171.175 126,169.536 C126.825,168.831 131.55,166.141 136.5,163.558 C141.45,160.975 145.928,158.443 146.45,157.931 Z M103.623,14 C107.925,11.8 111.907,10.002 112.472,10.004 C114.783,10.012 120,14.086 120,15.882 C120,18.8 113.24,24.279 110.327,23.722 C108.141,23.304 94.866,29.206 91.26,32.199 C89.947,33.289 81.069,35.799 75.338,36.701 C72.828,37.096 71.939,36.755 71.025,35.048 C69.072,31.397 70.099,28.544 73.5,28.17 C75.15,27.988 77.4,27.032 78.5,26.045 C79.6,25.058 82.828,23.494 85.673,22.57 C88.518,21.646 91.386,20.24 92.045,19.445 C92.705,18.65 93.82,18 94.523,18 C95.226,18 99.321,16.2 103.623,14 Z M69.191,192.073 C72.274,187.606 73.992,186 75.691,186 C78.987,186 78.674,189.097 74.557,197.22 C72.628,201.027 70.851,206.343 70.459,209.483 C70.078,212.532 69.369,215.272 68.883,215.572 C68.397,215.872 68,216.844 68,217.73 C68,218.617 67.395,220.053 66.655,220.921 C65.915,221.79 64.533,224.525 63.582,227 C61.501,232.419 55.408,239 52.471,239 C51.304,239 49.332,237.917 48.089,236.594 C45.485,233.823 46.05,231.996 51.178,226.604 C52.802,224.897 55.868,219.348 57.992,214.273 C60.116,209.199 62.562,204.036 63.427,202.801 C64.292,201.566 65,200.013 65,199.351 C65,198.688 66.886,195.414 69.191,192.073 Z M132,57.143 C128.425,57.628 124.6,58.442 123.5,58.95 C122.4,59.458 120.375,60.178 119,60.549 C114.433,61.783 111,65.95 111,70.26 C111,75.683 113.533,74.939 116.994,68.5 C119.221,64.356 120.211,63.447 122.779,63.191 C125.167,62.953 126.248,63.448 127.496,65.354 C129.041,67.712 128.969,68.086 125.925,73.48 C123.428,77.904 122.999,79.391 123.952,80.317 C124.898,81.236 126.788,79.792 132.424,73.844 C140.262,65.573 142.989,60.791 141.349,58.191 C140.058,56.144 139.67,56.101 132,57.143 Z M58.5,173.584 C68.374,170.722 73,172.3 73,178.533 C73,182.651 70.922,184.375 66.759,183.707 C64.967,183.419 61.25,183.777 58.5,184.502 C47.869,187.304 47.054,187.27 43.897,183.89 C42.304,182.184 41.007,180.499 41.015,180.144 C41.066,178.025 43.457,176.591 48.154,175.862 C51.095,175.407 55.75,174.382 58.5,173.584 Z M56.25,142.491 C58.928,140.559 64.845,141.013 68.538,143.433 C71.667,145.483 71.656,147.443 68.5,150.187 C67.125,151.382 66,153.153 66,154.121 C66,157.336 64.11,157.121 59.029,153.328 C53.267,149.026 52.318,145.326 56.25,142.491 Z"/>
</svg>

