<svg xmlns="http://www.w3.org/2000/svg" width="300" height="300" viewBox="0 0 300 300" version="1.1">
  <defs/>
  <path d="M106.154,29.048 C109.285,27.768 112.13,28.162 113.03,30 C114.305,32.601 116,40.888 116,44.514 C116,47.586 116.304,48 118.555,48 C119.961,48 124.011,46.461 127.556,44.579 C134.414,40.94 144.001,39.182 149.911,40.48 C155.182,41.638 159.006,45.59 158.964,49.839 C158.896,56.851 156.267,65.129 153.057,68.441 C151.376,70.176 150,71.959 150,72.404 C150,73.408 144.073,81.064 142.015,82.718 C141.182,83.388 139.661,83.951 138.637,83.968 C137.132,83.994 136.879,83.47 137.326,81.25 C138.49,75.459 139.344,72.543 140.169,71.54 C144.328,66.482 147,62.496 147,61.349 C147,60.592 147.559,59.077 148.243,57.983 C150.332,54.637 148.129,52.549 142.136,52.197 C138.115,51.961 136.841,52.252 136.356,53.515 C136.014,54.405 136.244,55.644 136.867,56.267 C138.43,57.83 138.285,62.121 136.552,65.596 C135.756,67.193 134.421,71.122 133.586,74.328 C132.752,77.533 131.378,81.54 130.534,83.231 C129.691,84.923 129,86.813 129,87.431 C129,89.463 134.369,92.998 139.734,94.5 C140.963,94.843 143.743,96.99 145.912,99.269 C150.352,103.936 152.029,109.399 149.728,111.701 C148.506,112.923 147.088,112.504 139.406,108.654 C134.508,106.199 128.313,103.686 125.639,103.069 C122.861,102.429 120,100.996 118.96,99.724 C116.411,96.606 115.017,98.368 114.307,105.608 C113.667,112.129 112.68,114 109.878,114 C108.585,114 108,113.283 108,111.7 C108,110.435 107.514,108.914 106.919,108.319 C106.145,107.545 106.145,103.111 106.919,92.682 C108.443,72.156 108.363,68 106.441,68 C104.945,68 99.365,71.958 94.033,76.801 C92.64,78.067 90.375,79.342 89,79.634 C87.625,79.926 85.15,81.251 83.5,82.578 L80.5,84.99 L83,85.089 C84.375,85.143 87.596,85.268 90.157,85.368 C95.198,85.564 98.888,88.546 98.98,92.5 C99.006,93.6 99.275,95.423 99.578,96.551 C100.286,99.185 94.741,106.037 86.23,113.044 C81.195,117.189 79.471,118.084 77.48,117.584 C75.903,117.189 75,116.253 75,115.016 C75,112.964 76.961,111.544 83.464,108.888 C85.644,107.997 87.729,106.646 88.098,105.884 C90.74,100.427 91.195,98.951 90.664,97.567 C90.311,96.647 88.876,96 87.186,96 C83.719,96 81.252,93.509 80.374,89.122 C79.435,84.425 77.5,86.911 77.5,92.815 C77.5,96.94 77.225,97.539 75.205,97.825 C73.753,98.031 70.264,96.406 65.705,93.399 C61.742,90.785 57.375,87.939 56,87.073 C53.908,85.757 43.494,80.49 38,77.97 C36.937,77.483 36.5,75.711 36.5,71.891 C36.5,66.712 36.612,66.487 39.338,66.175 C40.909,65.995 42.935,66.536 43.875,67.387 C44.809,68.232 47.674,69.853 50.242,70.989 C52.81,72.125 56.169,74.105 57.705,75.39 C59.242,76.675 61.472,78.03 62.661,78.402 C63.849,78.774 65.547,80.185 66.434,81.539 C68.471,84.649 69.786,84.636 72.962,81.473 C79.142,75.319 93.607,63.013 94.667,63.007 C95.308,63.003 95.983,62.646 96.167,62.213 C96.35,61.78 98.608,60.204 101.184,58.71 C103.76,57.216 106.127,55.176 106.444,54.176 C106.761,53.176 106.533,49.465 105.937,45.929 C103.549,31.775 103.571,30.104 106.154,29.048 Z M73.468,134.385 C74.555,133.623 77.352,133 79.684,133 C87.033,133 90.362,139.181 86,144.727 C84.9,146.126 83.999,148.447 83.998,149.885 C83.996,151.341 82.668,154.051 81,156 C79.353,157.925 78.004,159.861 78.002,160.303 C78.001,160.745 76.875,162.762 75.5,164.785 C72.434,169.298 72.339,171 75.154,171 C76.398,171 78.93,172.758 81.154,175.166 C84.78,179.095 85,179.698 85,185.728 C85,189.246 84.275,194.341 83.389,197.051 C81.581,202.576 82.024,205 84.841,205 C86.684,205 94.479,207.964 98.436,210.17 C99.501,210.764 105.99,214.118 112.857,217.624 C119.723,221.13 126.052,224.598 126.92,225.332 C127.789,226.065 130.3,227.437 132.5,228.381 C134.7,229.325 139.2,231.469 142.5,233.146 C185.367,254.925 189.609,256.809 198.834,258.161 C204.189,258.945 207.706,260.101 210.5,261.994 C212.7,263.484 215.76,265.47 217.3,266.407 C220.471,268.338 220.295,270.834 216.711,274.75 C214.19,277.505 212.61,277.57 209.093,275.066 C207.6,274.003 205.164,272.828 203.68,272.456 C202.195,272.083 200.734,271.378 200.432,270.889 C200.129,270.4 198.761,270 197.391,270 C194.958,270 189.865,267.843 187.134,265.656 C185.449,264.307 179.067,262.035 176.905,262.015 C176.028,262.007 174.536,261.145 173.59,260.099 C172.643,259.053 170.354,257.914 168.501,257.566 C165.335,256.972 159.728,254.222 135.5,241.379 C116.346,231.226 108.455,226.958 101.5,222.988 C97.65,220.791 93.825,218.696 93,218.333 C82.996,213.928 80.197,213 76.911,213 C73.936,213 72.811,213.507 71.92,215.25 C70.227,218.559 61.942,226.925 58.633,228.664 C57.057,229.493 52.547,230.415 48.611,230.713 C42.789,231.153 41.206,230.953 40.116,229.64 C38.221,227.357 39.467,225 42.567,225 C44.014,225 46.616,224.327 48.349,223.504 C52.181,221.685 63.001,211.541 62.996,209.772 C62.991,208.119 55.857,205.294 49.5,204.429 C46.75,204.054 43.919,203.284 43.209,202.717 C42.498,202.15 38.251,201.627 33.77,201.554 C25.636,201.421 25.621,201.416 24.834,198.473 C23.523,193.569 25.59,192.5 36.384,192.5 C41.777,192.5 46.283,192.973 47.096,193.624 C47.868,194.243 49.85,194.981 51.5,195.264 C53.15,195.547 57.837,196.751 61.915,197.939 C67.978,199.705 69.554,199.862 70.559,198.799 C72.141,197.126 74.084,185.773 72.984,184.623 C72.505,184.122 69.376,184.269 65.68,184.966 C59.956,186.046 58.915,185.99 56.607,184.478 C52.295,181.653 53.071,177.626 59.351,170.239 C62.278,166.796 65.303,162.746 66.072,161.239 C66.84,159.733 69.2,156.107 71.316,153.183 C75.077,147.984 75.542,145 72.59,145 C71.781,145 70.84,145.45 70.5,146 C70.16,146.55 68.344,147 66.464,147 C62.544,147 59.625,143.666 60.173,139.814 C60.45,137.861 61.334,137.38 65.996,136.641 C69.018,136.161 72.381,135.146 73.468,134.385 Z M131.25,117.118 C132.915,115.411 139.582,116.311 142.092,118.583 C144.458,120.724 143.96,122.655 139.348,129.216 C136.626,133.088 136.157,134.424 136.977,135.957 C137.54,137.008 138.005,139.361 138.011,141.184 C138.017,143.008 138.305,146.21 138.65,148.299 C139.251,151.935 139.411,152.07 142.389,151.458 C144.1,151.106 147.805,149.785 150.622,148.523 C156.002,146.112 160.057,146.159 162.13,148.657 C164.12,151.055 160.266,154.853 153,157.654 C138.795,163.131 138,164.134 138,176.585 C138,181.902 137.476,185.775 136.506,187.636 C135.685,189.211 135.01,191.261 135.006,192.191 C135.003,193.121 134.57,194.148 134.044,194.473 C133.518,194.798 133.298,195.612 133.555,196.282 C133.886,197.142 137.625,197.522 146.262,197.575 C152.993,197.617 163.85,198.138 170.389,198.734 C181.51,199.747 182.466,200.005 185.193,202.731 C188.082,205.621 188.091,205.666 186.231,207.963 L184.354,210.281 L169.927,209.11 C145.989,207.168 126.204,207.002 119.587,208.687 C113.957,210.121 113.735,210.1 111.4,207.906 C108.455,205.14 108.351,202.649 111.065,199.935 C112.538,198.462 113.9,198.033 115.815,198.438 C117.292,198.75 119.846,198.635 121.492,198.183 C124.081,197.471 124.67,196.628 125.858,191.93 C126.613,188.944 127.451,184.25 127.718,181.5 C127.986,178.75 128.611,176.002 129.106,175.393 C130.127,174.139 129.204,168.244 127.856,167.411 C126.805,166.762 117.375,168.532 110.906,170.593 C105.485,172.321 103.439,171.75 101.482,167.966 C100.19,165.467 100.22,164.972 101.769,163.254 C103.666,161.149 111.682,158.519 119.5,157.437 C126.995,156.399 128.002,155.601 127.985,150.715 C127.957,143.148 125.456,142.401 120.257,148.408 C119.023,149.834 117.122,151 116.032,151 C114.336,151 114.139,150.53 114.666,147.75 C115.482,143.444 116.14,142.258 120.934,136.457 C123.171,133.751 125,131.182 125,130.748 C125,130.315 126.125,128.178 127.5,126 C128.875,123.822 130,121.221 130,120.22 C130,119.219 130.563,117.823 131.25,117.118 Z M113.295,3.546 C118.003,1.077 120.888,0.256 125.25,0.146 L131,0 L131,3.14 C131,6.549 129.486,8.161 124.035,10.555 C122.129,11.393 120.329,12.398 120.035,12.789 C119.113,14.015 110.578,18.006 108.885,18.003 C107.997,18.001 106.197,18.816 104.885,19.814 C102.164,21.884 95.713,25 94.15,25 C93.573,25 91.9,23.424 90.43,21.498 C87.231,17.303 88.221,15.085 92.981,15.784 C95.225,16.113 96,15.831 96,14.687 C96,13.184 100.72,10.144 113.295,3.546 Z M121.5,58.904 C117.89,61.018 117.277,63.378 117.118,75.75 C117.026,83.001 117.298,85 118.379,85 C119.907,85 121.045,82.43 123.469,73.5 C124.364,70.2 125.571,66.15 126.15,64.5 C128.318,58.323 128.356,56.995 126.367,57.073 C125.34,57.113 123.15,57.937 121.5,58.904 Z"/>
</svg>

