<svg xmlns="http://www.w3.org/2000/svg" width="300" height="300" viewBox="0 0 300 300" version="1.1">
  <defs/>
  <path d="M119.092,157.389 C121.621,154.342 128.977,156.485 129.032,160.285 C129.049,161.503 129.724,163.374 130.532,164.441 C131.339,165.509 132,167.273 132,168.362 C132,169.451 132.745,171.165 133.655,172.171 C135.42,174.122 138,174.635 138,173.035 C138,171.684 143.992,165 145.202,165 C145.75,165 147.841,164.279 149.849,163.398 C156.226,160.6 157.363,160.251 164.005,159.053 C181.352,155.925 184.263,158.403 182.629,174.903 C182.335,177.874 181.623,180.777 181.047,181.353 C180.471,181.929 180,183.212 180,184.205 C180,186.734 175.452,195.993 170.182,204.191 C168.877,206.221 168.104,208.359 168.464,208.941 C169.469,210.567 209.673,210.384 210.356,208.75 C211.117,206.928 216.099,213.048 215.768,215.4 C215.62,216.444 214.311,218.183 212.858,219.264 C210.398,221.094 209.439,221.162 198.858,220.258 C182.833,218.889 168.979,219.39 150.584,222.005 C135.217,224.19 134.623,224.205 133.334,222.443 C132.601,221.439 132,219.119 132,217.287 C132,214.607 132.537,213.727 134.75,212.776 C136.262,212.127 137.635,211.514 137.799,211.415 C137.963,211.316 137.176,209.594 136.049,207.587 C134.922,205.581 134,203.089 134,202.05 C134,195.697 127.905,180.898 122.448,174 C121.795,173.175 121.008,171.375 120.7,170 C120.391,168.625 119.643,165.537 119.039,163.139 C118.222,159.899 118.236,158.42 119.092,157.389 Z M73.351,143.019 C75.912,141.818 77.136,141.238 78.391,141.159 C79.568,141.084 80.773,141.451 83.137,142.159 C86.451,143.152 87.385,144.119 89.654,148.909 C91.436,152.668 92.42,156.63 92.66,161 C93.399,174.476 93.839,180.762 94.655,189.5 C96.064,204.589 95.668,213.012 93.363,217 C91.004,221.081 88.112,221.886 85.637,219.151 C84.018,217.363 84.003,216.929 85.435,213.501 C88.041,207.265 84.924,205.823 80.571,211.25 C76.077,216.854 70.59,222.098 68.224,223.052 C66.973,223.557 65.656,224.764 65.297,225.735 C64.441,228.054 63.011,228.966 60.199,228.985 C55.956,229.013 54.947,224.078 53.993,198.614 C53.11,175.074 52.626,170.074 50.879,166.466 C50.337,165.347 50.03,161.522 50.197,157.966 C50.486,151.8 50.623,151.486 53.157,151.193 C54.922,150.988 56.542,151.66 57.981,153.193 L60.147,155.5 L62.129,153 C66.578,147.386 69.409,144.869 73.351,143.019 Z M64.2,25.2 C64.86,24.54 67.073,24 69.118,24 C72.245,24 73.149,24.517 74.796,27.25 C78.632,33.612 79.858,45.615 77.546,54.168 L76.824,56.836 L80.971,54.784 C84.37,53.103 85.567,52.937 87.604,53.866 C89.82,54.875 90.017,55.406 89.414,58.749 C88.367,64.55 87.269,66 83.924,66 C82.271,66 79.7,66.835 78.21,67.856 C75.858,69.466 66.259,75.457 59.25,79.688 C56.502,81.347 56.377,82.604 58.896,83.262 C60.825,83.767 62.897,87.503 64.991,94.25 C66.688,99.718 71,98.72 71,92.859 C71,91.351 71.45,89.84 72,89.5 C72.55,89.16 73.005,87.671 73.01,86.191 C73.016,84.711 74.034,81.475 75.273,79 C77.188,75.174 77.973,74.5 80.513,74.5 C83.49,74.5 83.501,74.522 83.803,80.968 C83.989,84.925 83.554,88.808 82.685,90.968 C80.489,96.419 79,101.46 79,103.438 C79,105.648 79.428,105.529 92.907,99.574 C102.869,95.172 103.419,95.044 105.775,96.588 C107.905,97.984 108.164,98.742 107.697,102.222 C107.401,104.433 106.778,106.622 106.315,107.085 C105.851,107.549 102.328,108.597 98.486,109.414 C92.09,110.775 89.662,111.779 80.355,116.91 C75.758,119.444 63.476,126.732 56,131.362 C48.362,136.092 40.542,140 38.716,140 C38.005,140 35.658,140.9 33.5,142 C28.354,144.624 27.784,144.551 25.107,140.931 C22.443,137.327 22.897,135.363 26.724,133.933 C28.251,133.363 31.3,132.049 33.5,131.014 C35.7,129.978 40.177,127.962 43.449,126.533 C46.72,125.104 50.853,122.824 52.632,121.467 C54.411,120.11 56.277,119 56.778,119 C57.28,119 58.494,118.111 59.477,117.026 C60.915,115.436 61.066,114.51 60.248,112.276 C59.689,110.749 58.692,107.475 58.032,105 C57.373,102.525 55.784,98.391 54.503,95.813 C52.758,92.302 52.31,90.106 52.718,87.063 C53.164,83.738 52.965,83 51.618,83 C49.866,83 46.606,84.614 43.776,86.882 C42.296,88.067 41.693,88.029 39.526,86.609 C34.32,83.198 36.536,79.832 47.634,74.292 C57.498,69.368 67.523,62.686 68.375,60.466 C68.719,59.57 69,57.325 69,55.477 C69,53.63 69.451,51.839 70.002,51.499 C71.425,50.62 70.139,43.153 67.884,39.193 C66.848,37.374 66,35.067 66,34.065 C66,33.064 65.325,31.685 64.5,31 C62.694,29.501 62.556,26.844 64.2,25.2 Z M156.368,45.351 C164.618,40.903 168.799,40.916 173.747,45.403 C178.914,50.088 179.878,54.098 179.538,69.5 C179.044,91.847 177.184,106.35 173.778,114.415 C170.316,122.615 168.983,124.35 164.825,126.072 C161.483,127.457 156.149,126.198 152.75,123.222 C148.935,119.883 151.588,111.753 155.447,114.956 C156.229,115.605 158.326,115.993 160.106,115.818 C165.066,115.331 166.906,111.039 168.579,96.055 C169.349,89.15 169.985,79.992 169.99,75.706 C170.001,67.322 167.454,55.111 165.541,54.377 C164.896,54.13 163.048,54.616 161.434,55.458 C159.82,56.299 157.953,56.99 157.285,56.994 C155.501,57.003 149,62.974 149,64.604 C149,65.407 150.009,66 151.378,66 C155.594,66 156.331,68.075 155.01,76.218 C153.016,88.504 148.559,105.611 146.871,107.45 C146.392,107.972 146,109.408 146,110.641 C146,111.874 145.55,113.16 145,113.5 C144.45,113.84 144,115.386 144,116.937 C144,118.487 143.325,120.315 142.5,121 C141.675,121.685 140.99,122.977 140.978,123.872 C140.941,126.583 137.444,130.384 135.628,129.687 C133.526,128.881 133.495,123.217 135.556,116.5 C138.802,105.919 141,96.924 141,94.218 C141,92.668 141.563,90.838 142.25,90.15 C142.938,89.463 143.538,87.01 143.585,84.7 C143.631,82.39 144.017,77.939 144.443,74.809 L145.216,69.117 L141.608,67.61 C138.356,66.251 138.002,65.727 138.015,62.301 C138.024,60.21 138.361,58.035 138.765,57.467 C140.074,55.627 150.074,48.743 156.368,45.351 Z M165.5,168.659 C163.85,168.876 159.575,170.454 156,172.167 C152.425,173.879 148.472,175.752 147.216,176.328 C142.007,178.715 139.363,187.552 142.44,192.285 C144.047,194.757 144.851,206.537 143.597,209.246 C142.888,210.778 143.201,210.914 146.145,210.354 C157.372,208.217 160.209,204.991 170.64,182.5 C171.405,180.85 172.137,177.025 172.266,174 C172.522,167.985 172.253,167.773 165.5,168.659 Z M75.5,152.765 C72.728,154.802 67.8,162.458 67.308,165.492 C66.975,167.54 65.824,169.54 64.465,170.431 C62.571,171.672 62.263,172.574 62.663,175.714 C62.928,177.796 63.45,186.47 63.822,194.988 C64.39,207.954 64.757,210.526 66.079,210.779 C66.947,210.945 70.5,208.544 73.974,205.444 C79.352,200.645 80.715,199.893 83.145,200.379 L86,200.95 L86,193.175 C86,181.842 83.092,180.369 76.937,188.585 C73.08,193.732 70.651,194.159 68.533,190.063 C66.589,186.304 67.251,184.571 72.853,178.75 C76.228,175.244 78.178,174 80.301,174 L83.178,174 L82.654,168.25 C81.34,153.832 79.492,149.832 75.5,152.765 Z"/>
</svg>

