<svg xmlns="http://www.w3.org/2000/svg" width="300" height="300" viewBox="0 0 300 300" version="1.1">
  <defs/>
  <path d="M131,111.5 C132.415,109.994 134.456,109 136.134,109 C138.509,109 139.093,109.579 140.096,112.925 C141.533,117.723 140.867,119.72 137.387,121.043 C135.921,121.6 133.4,123.169 131.784,124.528 C130.168,125.888 128.354,127 127.752,127 C127.15,127 125.947,127.638 125.079,128.419 C124.21,129.199 120.441,131.457 116.701,133.437 C102.488,140.962 102,141.411 102,146.965 C102,149.683 101.491,153.023 100.869,154.389 C100.246,155.755 100.013,157.592 100.351,158.471 C100.911,159.931 101.23,159.933 104.013,158.493 C106.638,157.136 115.864,150.242 126.5,141.692 C128.15,140.366 131.024,138.499 132.886,137.544 C135.771,136.065 136.634,136.001 138.714,137.114 C142.062,138.907 143.471,141.728 141.938,143.574 C141.278,144.37 137.534,147.14 133.619,149.73 C129.704,152.32 124.17,156.324 121.322,158.629 C118.474,160.934 115.26,163.1 114.18,163.443 C113.1,163.786 111.984,164.951 111.702,166.033 C111.313,167.521 110.326,168 107.653,168 C105.709,168 103.84,167.55 103.5,167 C102.508,165.395 99.991,165.847 99.321,167.75 C98.982,168.713 97.845,171.447 96.793,173.826 C94.634,178.711 94.743,182.336 97.064,182.777 C97.924,182.941 101.988,180.921 106.095,178.288 C110.202,175.654 115.147,172.689 117.085,171.698 C119.023,170.707 123.027,168.065 125.984,165.827 C139.841,155.339 148.051,151.947 150.995,155.493 C151.991,156.694 151.908,157.674 150.57,160.493 C149.655,162.422 148.332,164 147.631,164 C146.93,164 144.589,165.337 142.428,166.972 C140.268,168.607 137.503,169.957 136.285,169.972 C135.067,169.987 133.597,170.885 133.018,171.967 C132.439,173.048 127.811,176.636 122.733,179.939 C111.314,187.366 111,187.636 111,190.002 C111,191.06 110.136,194.304 109.08,197.212 C108.025,200.121 106.848,204.075 106.465,206 C106.082,207.925 105.384,209.981 104.912,210.569 C104.441,211.157 103.559,214.982 102.952,219.069 C102.344,223.156 101.432,227.882 100.924,229.571 C100.416,231.26 100,233.173 100,233.821 C100,235.948 103.048,235.057 106.304,231.978 C108.062,230.315 111.975,227.285 115,225.244 C118.025,223.202 122.316,219.917 124.535,217.943 C126.754,215.97 130.692,213.295 133.285,212 C135.878,210.705 138,209.284 138,208.843 C138,207.332 130.083,204 126.494,204 C122.793,204 118,200.484 118,197.768 C118,194.846 121.082,192.162 125.244,191.459 C130.611,190.553 136.63,186.655 150.456,175.131 C156.481,170.109 161.964,166 162.641,166 C165.227,166 168.923,167.988 169.969,169.942 C171.361,172.543 169.118,176.213 164.068,179.594 C162.106,180.908 158.025,183.783 155,185.982 C151.975,188.182 147.602,191.224 145.282,192.741 C140.738,195.713 139.975,197.411 142.75,198.374 C143.713,198.709 146.525,200.245 149,201.789 C151.475,203.333 154.99,205.202 156.81,205.944 C166.346,209.828 184.647,221.089 193.5,228.519 C196.25,230.826 199.4,233.004 200.5,233.359 C201.6,233.713 204.898,236.252 207.828,239.001 C210.759,241.751 213.653,244 214.26,244 C216.109,244 228.99,258.367 228.995,260.436 C229,262.489 225.331,267 223.656,267 C223.108,267 219.651,264.188 215.974,260.75 C204.787,250.293 188.154,236 187.171,236 C186.662,236 185.644,235.276 184.909,234.391 C183.632,232.852 172.344,225 171.409,225 C171.162,225 169.178,223.875 167,222.5 C164.822,221.125 162.191,220 161.155,220 C160.118,220 158.197,219.184 156.885,218.186 C152.042,214.504 143.915,210 142.112,210 C140.406,210 136.38,213.976 130,221.96 C128.625,223.681 127.35,225.519 127.167,226.044 C126.983,226.57 126.266,227 125.572,227 C124.878,227 123.47,227.928 122.444,229.061 C121.418,230.195 117.524,233.388 113.789,236.156 C110.055,238.924 106.981,241.709 106.957,242.345 C106.934,242.98 105.192,245.461 103.087,247.858 C99.861,251.531 98.534,252.298 94.653,252.736 C90.375,253.218 89.975,253.065 89.035,250.592 C88.312,248.69 88.432,245.724 89.456,240.214 C90.245,235.972 91.586,228.675 92.437,224 C94.604,212.095 97.544,201.346 99.413,198.492 C101.924,194.66 101.447,193.136 97.75,193.187 C95.963,193.212 93.629,193.067 92.565,192.866 C91.098,192.589 90.474,193.226 89.987,195.5 C89.633,197.15 88.839,199.4 88.223,200.5 C87.606,201.6 84.568,207.675 81.472,214 C78.375,220.325 75.203,226.21 74.421,227.079 C73.639,227.947 72.967,229.747 72.927,231.079 C72.887,232.41 71.992,234.85 70.938,236.5 C69.884,238.15 68.755,240.175 68.43,241 C68.104,241.825 67.434,243.512 66.94,244.75 C65.914,247.323 61.929,247.824 60.092,245.611 C58.658,243.883 59.953,237.46 62.681,232.771 C63.727,230.972 65.428,227.25 66.46,224.5 C67.493,221.75 69.161,218.024 70.169,216.22 C71.176,214.415 72,212.157 72,211.202 C72,210.246 73.073,207.885 74.385,205.955 C75.696,204.025 77.525,200.219 78.449,197.497 C79.373,194.776 80.476,192.088 80.901,191.525 C81.325,190.961 82.451,187.8 83.404,184.5 C84.356,181.2 85.555,177.466 86.068,176.203 C86.58,174.94 87,172.604 87,171.012 C87,169.42 87.45,167.84 88,167.5 C88.55,167.16 89.005,165.221 89.012,163.191 C89.026,158.861 91.383,149.449 92.916,147.602 C95.514,144.47 89.502,144.03 85.64,147.069 C83.927,148.416 82.293,148.91 80.957,148.486 C79.828,148.128 78.256,148.373 77.463,149.031 C75.27,150.851 69.27,149.342 67.41,146.502 C64.476,142.025 65.776,140.582 73.513,139.732 C86.444,138.31 97.003,133.708 115.639,121.373 C121.765,117.318 127.199,114 127.715,114 C128.23,114 129.708,112.875 131,111.5 Z M108.768,26.968 C113.743,23.054 116.376,24.942 116.137,32.253 C116.031,35.496 116.571,38.865 117.473,40.596 C118.306,42.193 118.99,44.063 118.994,44.75 C119.004,46.845 122.583,46.159 128.69,42.891 C131.886,41.182 135.765,39.11 137.31,38.288 C140.808,36.428 147.038,35.542 150.504,36.412 C152.29,36.86 153.692,38.328 154.89,41.003 C156.385,44.342 156.486,45.735 155.558,50.218 C154.424,55.697 151.327,61.124 144.7,69.24 C141.329,73.369 140.57,73.84 138.808,72.897 C137.329,72.106 137.083,71.517 137.893,70.707 C138.502,70.098 139,68.628 139,67.44 C139,66.251 140.125,63.621 141.5,61.595 C142.875,59.569 144,57.058 144,56.015 C144,54.971 144.45,53.84 145,53.5 C145.55,53.16 146,51.784 146,50.441 C146,48.379 145.52,48 142.904,48 C141.202,48 138.522,48.916 136.949,50.037 C135.376,51.157 132.719,52.551 131.044,53.134 C129.37,53.718 128,54.602 128,55.098 C128,55.594 127.17,56 126.155,56 C123.524,56 121.364,58.89 120.688,63.313 C120.209,66.449 120.388,67.071 121.695,66.813 C123.373,66.483 123.831,65.802 126.492,59.69 C128.399,55.309 129.987,54.388 132.922,55.958 C134.461,56.782 135,58.047 135,60.835 C135,62.906 134.61,65.028 134.133,65.55 C133.089,66.694 130,75.797 130,77.729 C130,79.719 137.021,85.846 140.068,86.515 C141.498,86.829 144.605,89.059 146.972,91.472 C151.069,95.646 151.251,96.083 150.749,100.532 C150.46,103.103 149.511,105.918 148.641,106.788 C147.254,108.175 146.734,108.196 144.418,106.956 C142.965,106.179 141.394,104.537 140.927,103.308 C140.46,102.08 138.373,99.919 136.289,98.507 C134.205,97.095 130.629,94.602 128.342,92.966 C126.056,91.33 123.532,90.242 122.735,90.548 C121.129,91.164 119.406,96.197 118.522,102.848 C117.229,112.588 113.998,116.118 109.829,112.345 C107.552,110.284 107.533,109.174 109.733,106.742 C111.256,105.06 111.451,102.582 111.344,86.325 C111.266,74.373 110.834,67.434 110.124,66.724 C108.542,65.142 104.226,67.496 98.081,73.29 C92.603,78.455 91.885,80 94.965,80 C98.301,80 103.762,85.63 104.465,89.795 C105.346,95.005 102.06,102.038 96.711,106.398 C80.304,119.768 78.606,120.742 77.361,117.498 C76.581,115.466 77.78,111 79.106,111 C79.693,111 82.162,109.571 84.594,107.825 C89.491,104.309 94.329,97.021 93.391,94.576 C92.518,92.301 86.377,92.558 83.273,95 C79.863,97.683 76.837,97.519 74,94.5 C72.708,93.125 70.897,92 69.976,92 C68.44,92 66.621,90.794 56.076,82.784 C54.109,81.291 50.394,78.937 47.821,77.553 C45.247,76.17 42.841,74.552 42.474,73.957 C42.106,73.363 40.689,72.452 39.325,71.933 C37.152,71.107 36.93,70.587 37.537,67.745 C39.053,60.654 40.925,60.467 50,66.5 C53.723,68.975 57.383,71.012 58.134,71.026 C58.886,71.041 62.59,73.989 66.368,77.577 C73.687,84.53 76.291,85.301 76.823,80.673 C77.047,78.723 79.411,75.662 84.537,70.681 C93.197,62.266 96.032,60.028 101.646,57.174 C108.165,53.859 109.238,52.368 108.452,47.716 C108.079,45.509 107.144,42.197 106.375,40.355 C104.437,35.716 105.548,29.501 108.768,26.968 Z M116,3.075 C119.459,0.718 121.599,0.008 125.25,0.004 C129.962,0 130,0.027 130,3.313 C130,5.651 129.191,7.366 127.25,9.14 C124.636,11.531 104.051,22 101.966,22 C101.423,22 98.893,22.98 96.343,24.179 L91.708,26.357 L88.796,23.098 C84.987,18.834 85.473,16.723 90.511,15.653 C92.705,15.186 95.175,14.387 96,13.876 C96.825,13.365 100.65,11.416 104.5,9.545 C108.35,7.673 113.525,4.762 116,3.075 Z"/>
</svg>

