<svg xmlns="http://www.w3.org/2000/svg" width="300" height="300" viewBox="0 0 300 300" version="1.1">
  <defs/>
  <path d="M130.75,108.08 C132.753,106.913 136.093,106.715 138.455,107.621 C140.353,108.349 143,114.194 143,117.654 C143,121.021 145.222,121.518 151.475,119.552 C158.16,117.449 160.478,118.406 161.467,123.675 C162.022,126.632 161.799,127.674 160.392,128.703 C159.416,129.416 158.029,130 157.309,130 C156.44,130 156,131.398 156,134.153 C156,139.197 151.078,150.184 146.824,154.637 C145.175,156.363 142.065,158.569 139.913,159.539 C136.528,161.066 134.472,164 136.788,164 C137.983,164 155.357,157.884 156.5,157.061 C157.407,156.408 168.281,152.913 178.5,149.99 C183.336,148.607 187.152,149.776 189.5,153.36 C190.985,155.626 190.969,156.097 189.281,159.655 C187.621,163.155 187.146,163.473 183.979,163.194 C176.09,162.501 171.061,163.084 164.537,165.451 C160.75,166.824 157.298,168.302 156.865,168.735 C155.86,169.74 154.832,182.894 155.574,185.234 C156.396,187.825 160.004,187.417 166.5,184 C169.637,182.35 172.809,181 173.551,181 C175.015,181 180,187.01 180,188.776 C180,190.21 175.156,193.56 172,194.308 C164.209,196.155 160.064,197.119 158.026,199.728 C155.692,202.714 156.119,207.858 156.996,218.953 C158.199,234.17 157.817,288.869 156.493,291.012 C156.214,291.463 156.426,292.991 156.965,294.407 C158.532,298.528 157.343,300 152.449,300 L148.111,300 L148.153,261.25 C148.195,222.395 147.487,204.419 145.875,203.423 C145.4,203.129 142.722,204.039 139.924,205.445 C137.125,206.85 134.033,208 133.053,208 C132.072,208 130.126,208.9 128.727,210 C127.329,211.1 125.616,212 124.921,212 C122.516,212 120,208.7 120,205.545 C120,202.039 121.521,200 124.136,200 C126.123,200 141.84,194.125 143.801,192.65 C144.738,191.944 145.022,189.18 144.818,182.751 C144.662,177.845 144.244,173.651 143.889,173.431 C143.534,173.212 139.026,174.331 133.872,175.918 C119.574,180.321 113.942,181.808 108.75,182.549 C106.138,182.922 104.013,183.738 104.028,184.364 C104.043,184.989 105.327,187.179 106.881,189.232 C109.478,192.66 109.641,193.379 108.899,198.078 C108.429,201.049 106.994,204.63 105.476,206.62 L102.862,210.047 L105.431,213.1 C108.562,216.821 108.577,217.133 105.75,219.674 C102.841,222.288 96.606,224.674 89.307,225.966 C86.113,226.531 82.375,227.25 81,227.564 C77.69,228.318 75.078,224.051 75.724,218.944 C76.034,216.489 75.683,214.981 74.587,214.072 C73.714,213.348 73,211.659 73,210.319 C73,207.319 67.294,200 64.955,200 C64.014,200 62.666,199.302 61.958,198.449 C61.248,197.593 59.529,197.034 58.121,197.199 C56.191,197.427 55.423,198.23 54.963,200.501 C54.628,202.151 52.957,206.201 51.25,209.501 C49.542,212.8 47.641,216.625 47.024,218 C46.408,219.375 44.809,222.3 43.472,224.5 C42.134,226.7 40.732,229.175 40.355,230 C39.979,230.825 37.849,233.525 35.622,236 C29.44,242.871 23,244.328 23,238.856 C23,237.812 25.294,234.038 28.098,230.47 C33.686,223.359 42,208.671 42,205.91 C42,204.951 42.375,204.017 42.834,203.833 C43.292,203.65 45.464,199.9 47.659,195.5 C49.855,191.1 52.13,186.6 52.715,185.5 C54.027,183.032 57.114,175.893 60.066,168.5 C60.505,167.4 61.501,164.925 62.279,163 C66.158,153.397 67.104,146.504 64.851,144.251 C63.01,142.41 66.436,138 69.709,138 C74.156,138 77,141.579 77,147.174 C77,149.828 77.17,152 77.378,152 C81.577,152 95,141.232 95,137.863 C95,135.361 92.935,135.517 87.747,138.414 C83.613,140.722 83.303,140.755 80.67,139.164 C78.505,137.855 77.979,136.868 78.208,134.539 C78.453,132.052 79.552,130.974 85.056,127.818 C91.286,124.247 91.881,124.102 97.001,124.911 C100.853,125.52 102.904,126.438 104.194,128.131 C105.187,129.434 106.449,131.044 107,131.708 C108.64,133.688 108.166,136.045 105,141.654 C103.35,144.578 102,148.108 102,149.5 C102,153.649 96.407,158.532 89,160.851 C82.549,162.87 82.475,162.871 79.193,160.943 C77.374,159.874 75.533,159 75.103,159 C74.672,159 73.72,160.912 72.986,163.25 C72.252,165.588 71.118,168.625 70.467,170 C64.996,181.544 63.939,184.056 63.383,186.834 C62.947,189.016 63.132,190 63.98,190 C64.656,190 67.22,191.357 69.677,193.015 L74.144,196.03 L79.359,190.515 C82.227,187.482 85.426,185 86.466,185 C87.507,185 89.74,184.566 91.429,184.035 C93.118,183.504 95.741,182.819 97.258,182.514 C99.822,181.997 99.975,181.693 99.418,178.215 C98.943,175.24 99.235,174.098 100.844,172.641 C103.828,169.94 109.803,168.094 115.718,168.044 C120.828,168.001 121.017,167.892 124.921,162.721 C128.67,157.755 128.908,157.03 128.936,150.471 C128.952,146.637 129.086,142.376 129.233,141.002 C129.464,138.84 129.028,138.436 126,138.002 C122.759,137.537 122.476,137.213 122.182,133.618 C121.8,128.959 122.766,127.825 128.29,126.456 C133.394,125.191 134.05,122.978 131.059,117.117 C128.54,112.177 128.445,109.423 130.75,108.08 Z M101.916,34.157 C103.449,31.292 106.824,31.421 110.381,34.48 C112.894,36.641 113.186,37.441 112.669,40.729 C112.257,43.346 112.661,45.801 113.989,48.75 C116.029,53.282 118.031,54.05 121.527,51.641 C123.469,50.303 128.357,48.991 138.799,47.007 C150.215,44.838 155.55,46.231 161.026,52.813 C164.34,56.796 164.455,59.78 161.523,65.649 C159.309,70.079 149.437,79.919 145.596,81.525 C141.492,83.239 140.658,84.347 141.492,86.974 C141.892,88.235 143.397,89.171 145.726,89.608 C149.569,90.329 158,97.732 158,100.385 C158,102.326 152.311,107 149.949,107 C148.866,107 147.407,105.754 146.55,104.097 C144.243,99.636 136.594,95.646 126.262,93.514 C122.621,92.763 118.991,88.806 119.017,85.615 C119.026,84.452 121.726,80.137 125.017,76.028 C128.308,71.918 131,68.122 131,67.592 C131,65.762 135.356,62 137.474,62 C140.599,62 142,63.919 142,68.2 C142,70.29 142.398,72 142.884,72 C144.417,72 150.921,64.162 151.586,61.512 C152.638,57.323 150.56,55.9 144.113,56.395 C135.903,57.025 120.321,60.908 118.841,62.692 C116.101,65.993 115.03,71.776 115.015,83.346 C114.998,96.459 113.458,101.356 109.528,100.788 C107.652,100.517 107.528,99.693 107.448,86.948 C107.401,79.495 107.03,72.858 106.623,72.198 C105.356,70.149 102.643,70.885 99,74.265 C97.075,76.051 93.475,78.847 91,80.478 L86.5,83.445 L90.5,84.034 C95.639,84.79 101,87.62 101,89.575 C101,91.488 98.197,97 97.224,96.999 C96.826,96.999 94.25,96.154 91.5,95.121 C88.212,93.886 86.053,92.346 85.195,90.622 C84.478,89.18 83.251,88 82.468,88 C80.791,88 78.492,91.405 77.617,95.184 C77.275,96.66 75.634,98.837 73.97,100.022 C71.369,101.873 70.497,102.02 67.765,101.068 C66.017,100.458 63.667,99.142 62.543,98.142 C61.419,97.142 58.925,95.716 57,94.973 C55.075,94.231 51.925,92.651 50,91.464 C45.994,88.994 40.127,87.617 34.899,87.922 C31.705,88.108 31.146,87.768 29.968,84.922 C28.737,81.952 28.811,81.572 30.945,79.843 C32.215,78.815 34.393,77.689 35.785,77.339 C39.294,76.458 47.859,78.766 51.683,81.622 C53.434,82.93 55.169,84 55.538,84 C55.908,84 58.21,85.35 60.655,87 C63.1,88.65 65.248,90 65.429,90 C65.61,90 69.3,86.461 73.629,82.135 C77.958,77.81 84.425,72.419 88,70.156 C91.575,67.892 94.95,65.694 95.5,65.27 C96.05,64.847 98.447,63.233 100.827,61.685 C105.067,58.926 105.14,58.786 104.461,54.685 C104.08,52.383 103.379,49.76 102.905,48.855 C101.331,45.855 100.697,36.434 101.916,34.157 Z M119.5,11.667 C123.091,10.886 125.824,10.983 128.461,11.985 C132.583,13.552 132.696,15.77 128.85,19.616 C125.9,22.567 124.647,23.092 119.947,23.345 C116.939,23.508 113.358,24.368 111.989,25.258 C109.891,26.621 96.05,31 93.84,31 C93.454,31 92.995,30.006 92.82,28.791 C92.626,27.453 91.59,26.369 90.191,26.041 C87.104,25.318 87.366,23.707 90.75,22.603 C92.263,22.109 94.971,20.428 96.768,18.867 C98.566,17.306 101.041,15.812 102.268,15.546 C103.496,15.281 107.425,14.397 111,13.583 C114.575,12.769 118.4,11.907 119.5,11.667 Z M87,195.652 C85.625,196.333 83.713,197.126 82.75,197.414 C80.579,198.063 80.369,203.231 82.444,204.954 C83.238,205.613 84.026,207.805 84.194,209.826 C84.435,212.722 84.962,213.566 86.679,213.81 C88.3,214.041 89.93,212.765 93.043,208.827 C98.187,202.319 99.232,199.741 98.019,196.551 C97.24,194.501 96.472,194.128 93.294,194.258 C91.207,194.343 88.375,194.97 87,195.652 Z M83.5,104.883 C90.922,101.422 93.297,104.521 88.018,110.778 C81.878,118.056 79.638,120 77.392,120 C69.891,120 74.257,109.192 83.5,104.883 Z M138.75,134.572 C135.548,136.309 135.503,136.565 137.541,141.443 C139.581,146.327 141.958,145.803 144.121,139.991 C146.54,133.491 144.513,131.445 138.75,134.572 Z"/>
</svg>

