<svg xmlns="http://www.w3.org/2000/svg" width="300" height="300" viewBox="0 0 300 300" version="1.1">
  <defs/>
  <path d="M86.5,30.716 C89.89,29.896 90.108,29.94 93.096,32.068 C98.127,35.651 95.923,43 89.818,43 C88.863,43 86.058,44.222 83.586,45.716 C79.295,48.307 79.065,48.684 78.541,53.966 C78.238,57.009 77.273,62.2 76.396,65.5 C74.062,74.276 73.67,77.678 74.904,78.441 C76.824,79.627 76.097,82.045 72.5,86.435 C69.908,89.597 69,91.661 69,94.384 C69,98.66 70.37,99.524 75.159,98.268 C80.471,96.875 84.126,98.052 86.358,101.873 C87.94,104.581 88.098,105.613 87.164,107.109 C86.524,108.134 86,109.664 86,110.508 C86,111.352 84.878,113.738 83.507,115.81 C81.279,119.176 81.142,119.917 82.22,122.771 C83.347,125.759 83.217,126.181 80.213,129.28 C78.446,131.104 77,133.557 77,134.733 C77,135.908 76.533,138.097 75.963,139.598 C74.478,143.504 76.004,144.449 80.618,142.48 C82.753,141.568 87.875,139.677 92,138.277 C96.125,136.877 100.573,134.892 101.885,133.866 C103.54,132.571 105.918,132 109.656,132 C114.429,132 115.172,132.284 116.18,134.496 C117.715,137.865 115.369,140.418 109.346,141.935 C106.853,142.562 103.844,143.683 102.657,144.426 C101.471,145.168 98.7,146.088 96.5,146.471 C92.64,147.141 90.331,147.988 81.287,152.047 L77.074,153.938 L77.585,179.719 C78.076,204.497 78.12,212.237 77.86,227.5 C77.794,231.35 77.841,238.453 77.965,243.283 C78.207,252.766 77.356,255 73.5,255 C68.613,255 68.574,254.658 68.423,209.635 C68.345,186.461 68.105,165.925 67.891,164 C67.544,160.894 67.141,160.465 64.308,160.191 C62.426,160.009 58.936,160.901 55.808,162.365 C52.888,163.73 47.8,166.047 44.5,167.514 C41.2,168.98 36.7,171.013 34.5,172.031 C32.3,173.05 29.15,174.205 27.5,174.6 C25.85,174.994 23.449,175.997 22.164,176.83 C20.878,177.662 17.953,178.692 15.664,179.118 C13.374,179.544 10.235,180.199 8.689,180.575 C6.43,181.123 5.3,180.703 2.939,178.441 C-2.203,173.516 -0.736,171.363 9.097,169.401 C13.168,168.588 18.3,167.05 20.5,165.982 C22.7,164.915 26.422,163.627 28.77,163.122 C31.119,162.617 34.044,161.567 35.27,160.79 C36.497,160.012 41.1,158.121 45.5,156.589 C49.9,155.056 55.3,152.97 57.5,151.953 C59.7,150.937 62.298,149.866 63.273,149.575 C64.248,149.284 65.319,148.331 65.654,147.459 C66.596,145.005 64.321,141 61.986,141 C60.855,141 58.848,140.291 57.526,139.425 C55.645,138.192 55.172,137.087 55.348,134.335 C55.488,132.141 56.26,130.434 57.399,129.796 C63.819,126.204 64.988,119.85 60,115.653 C56.661,112.844 56.151,109.596 58.619,106.868 C59.955,105.392 60.086,104.071 59.369,99.328 C58.565,94.008 58.276,93.531 55.5,92.962 C53.85,92.624 51.468,91.793 50.207,91.115 C48.077,89.971 47.962,89.458 48.591,83.899 C49.389,76.848 47.398,63.575 45.278,61.816 C44.164,60.891 43.406,60.89 41.932,61.81 C40.884,62.465 39.415,63 38.667,63 C37.919,63 35.871,63.717 34.115,64.592 C30.029,66.631 27.509,65.8 28.491,62.738 C28.886,61.507 29.43,59.091 29.7,57.369 C30.127,54.648 30.67,54.17 33.846,53.72 C35.855,53.435 38.738,52.718 40.25,52.126 C42.754,51.146 43.005,50.578 43.056,45.775 C43.127,39.212 44.963,33.627 47.192,33.2 C49.179,32.819 51.494,36.785 52.541,42.364 C53.42,47.052 54.775,47.642 59.115,45.227 C61.64,43.822 62.578,42.564 62.806,40.276 C62.974,38.589 63.995,36.409 65.075,35.432 C66.964,33.723 67.196,33.742 71.062,35.915 C74.929,38.088 75.188,38.109 77.792,36.455 C79.281,35.509 81.4,33.94 82.5,32.967 C83.6,31.995 85.4,30.982 86.5,30.716 Z M143.319,76.942 C150.284,73.78 153.694,74.323 158.525,79.364 C161.914,82.902 162.866,84.749 163.55,89.114 C165.42,101.055 164.302,109.539 159.927,116.618 C158.867,118.333 158,121.111 158,122.79 C158,125.224 156.933,126.78 152.75,130.447 C149.863,132.979 145.624,135.961 143.331,137.075 C141.038,138.189 138.661,139.704 138.048,140.442 C137.435,141.181 135.631,142.324 134.039,142.984 C132.446,143.643 130.843,144.929 130.475,145.842 C129.628,147.941 128.517,169.263 128.774,178.484 C128.937,184.371 129.312,185.727 131.16,187.121 C134.526,189.66 148.809,191.935 177,194.422 C179.475,194.641 185.1,195.279 189.5,195.842 C193.9,196.404 202.826,197.122 209.337,197.437 C215.847,197.753 225.395,198.481 230.556,199.057 C236.923,199.767 240.147,200.181 241.939,198.773 C243.843,197.277 244.131,193.727 244.852,186.293 C246.254,171.841 244.974,161.01 239.147,138 C236.987,129.475 235.059,121.852 234.86,121.059 C234.662,120.267 235.263,119.451 236.196,119.246 C237.376,118.987 238.518,120.168 239.946,123.125 C241.076,125.463 242,127.818 242,128.359 C242,128.9 242.61,130.053 243.356,130.921 C244.102,131.79 245.411,135.2 246.264,138.5 C247.117,141.8 248.756,146.969 249.907,149.986 C251.058,153.003 252,156.401 252,157.536 C252,158.671 252.41,160.027 252.912,160.55 C253.414,161.072 254.055,163.975 254.337,167 C254.62,170.025 255.361,177.675 255.986,184 C257.315,197.467 256.788,202.278 253.515,206.569 C249.954,211.238 244.032,212.606 233.678,211.15 C222.898,209.635 217.27,209.138 206.903,208.789 C201.486,208.607 197.697,207.994 196.658,207.132 C195.752,206.38 194.032,206.02 192.837,206.332 C191.641,206.645 185.676,206.283 179.581,205.527 C173.487,204.772 164,203.862 158.5,203.505 C144.591,202.604 129.663,199.528 125.756,196.759 C121.3,193.6 119.072,190.847 119.033,188.45 C119.015,187.323 118.544,185.944 117.986,185.386 C117.3,184.7 117.566,178.562 118.807,166.436 C120.843,146.535 120.796,137.997 118.597,128.136 C116.475,118.622 115.168,110.494 114.513,102.736 C113.961,96.209 114.029,95.94 116.443,95.022 C117.819,94.499 120.419,92.653 122.222,90.92 C126.21,87.088 137.61,79.534 143.319,76.942 Z M143.57,89.927 C142.027,91.537 139.355,93.411 137.633,94.092 C131.329,96.581 123,102.268 123,104.083 C123,105.072 123.45,106.16 124,106.5 C124.55,106.84 125,108.471 125,110.125 C125,111.778 125.468,114.005 126.039,115.074 C126.611,116.142 127.189,119.825 127.323,123.258 C127.596,130.212 128.423,132.258 130.776,131.805 C132.575,131.458 134.511,122.064 135.626,108.273 C136.112,102.262 136.772,99.612 138.074,98.433 C143.051,93.928 147.203,102.123 144.942,111.988 C144.247,115.02 143.3,117.928 142.839,118.45 C141.876,119.541 141.699,123 142.606,123 C142.939,123 144.896,121.667 146.953,120.037 C149.824,117.764 151.195,115.548 152.847,110.516 C155.164,103.46 155.604,98.491 154,97.5 C153.45,97.16 153,95.403 153,93.596 C153,90.184 150.518,87 147.858,87 C147.042,87 145.112,88.317 143.57,89.927 Z M25.5,113.82 C29.33,113.104 33.528,114.294 37.72,117.285 C42.219,120.495 43.415,120.293 46.807,115.75 C48.32,113.724 51.071,113.471 52.8,115.2 C54.575,116.975 54.261,119.454 52,121.5 C49.637,123.639 49.424,126.857 51.468,129.559 C53.568,132.335 53.335,134.652 50.777,136.443 C47.75,138.564 47.574,138.515 42.866,134.25 C40.59,132.188 36.833,129.375 34.518,128 C25.667,122.743 24.007,121.416 22.877,118.694 C21.616,115.658 22.281,114.422 25.5,113.82 Z M61.781,55.055 C55.664,58.281 55.304,59.827 57.747,72.418 C58.165,74.573 58.97,76.49 59.537,76.679 C60.711,77.07 65.514,68.008 66.521,63.5 C67.594,58.697 67.583,53.711 66.5,53.39 C65.95,53.227 63.826,53.976 61.781,55.055 Z"/>
</svg>

