<svg xmlns="http://www.w3.org/2000/svg" width="300" height="300" viewBox="0 0 300 300" version="1.1">
  <defs/>
  <path d="M141,77.185 C146.206,74.508 152.848,74.648 156.002,77.502 C159.093,80.299 162,86.76 162,90.831 C162,92.904 162.419,95.027 162.932,95.55 C166.36,99.046 167.694,174.47 164.392,178.119 C162.35,180.376 157.176,180.621 156.362,178.5 C155.622,176.572 152.571,176.572 150.643,178.5 C149.818,179.325 148.451,180 147.606,180 C146.761,180 144.591,181.253 142.785,182.783 C136.618,188.009 131.106,191 127.642,191 C124.833,191 123.61,190.23 120.62,186.582 C118.629,184.152 117,181.473 117,180.629 C117,179.785 116.478,177.948 115.839,176.547 C114.96,174.617 114.959,173.385 115.837,171.459 C116.474,170.061 117.261,164.999 117.587,160.209 C117.913,155.419 118.616,150.062 119.15,148.304 C119.683,146.546 120.137,136.298 120.159,125.53 C120.191,109.668 119.91,105.512 118.682,103.637 C117.044,101.137 116.172,92.149 117.378,90.197 C118.843,87.826 121.778,89.064 124.617,93.25 C126.203,95.588 127.809,98.625 128.186,100 C130.456,108.274 130.956,111.327 130.403,113.529 C129.895,115.555 130.152,116 131.833,116 C132.96,116 134.16,115.55 134.5,115 C134.84,114.45 135.815,114 136.666,114 C137.517,114 140.485,112.192 143.261,109.981 C146.501,107.401 148.938,106.163 150.07,106.522 C152.836,107.4 153.337,105.306 151.948,98.657 C149.623,87.525 147.153,85.962 139.224,90.609 C135.531,92.773 134.366,93.032 132.386,92.13 C129.304,90.726 129.365,90.176 133.25,84.363 C135.331,81.249 138.118,78.668 141,77.185 Z M70.924,68.63 C74.225,65.049 78.245,65.132 80.882,68.834 L82.9,71.669 L80.7,74.797 C79.49,76.517 75.729,79.552 72.341,81.541 C66.185,85.155 66.182,85.159 65.827,90.328 C65.366,97.044 67.199,109.233 68.748,109.749 C69.412,109.971 71.029,108.993 72.342,107.576 C75.272,104.414 77.402,104.308 79.443,107.223 C82.027,110.911 81.287,112.618 74.5,118.613 C70.925,121.771 68,125.085 68,125.978 C68,126.87 67.519,128.081 66.932,128.668 C66.344,129.256 65.462,133.058 64.972,137.118 C64.069,144.595 62.849,151.834 61.494,157.75 C60.428,162.408 62.145,161.949 71,155.209 C75.683,151.644 79.189,148.091 80.333,145.748 C82.09,142.153 85.678,140.065 87.822,141.39 C89.037,142.141 88.103,150.766 86.453,154.031 C85.294,156.326 78.433,162.98 72,168.047 C70.625,169.13 67.7,171.614 65.5,173.568 C63.3,175.521 59.322,178.33 56.661,179.81 C54,181.289 50.4,183.287 48.661,184.248 C44.002,186.825 39.399,186.539 37.44,183.549 C35.222,180.164 35.931,177.877 39.928,175.513 C41.801,174.406 45.059,171.865 47.167,169.868 C50.212,166.982 51,165.504 51,162.677 C51,160.719 51.397,158.872 51.883,158.572 C52.844,157.978 53.856,151.14 54.546,140.566 C54.788,136.862 55.222,133.451 55.509,132.985 C56.278,131.741 53.839,130.518 51.254,130.852 C48.717,131.18 43,127.533 43,125.587 C43,123.733 46.044,121.377 49.5,120.556 C56.346,118.931 57.313,114.687 54.8,97.302 C53.842,90.676 53.261,89 51.922,89 C49.264,89 47.987,86.709 48.823,83.44 C49.46,80.951 51.026,79.792 59.038,75.88 C64.242,73.34 69.591,70.077 70.924,68.63 Z M134.293,17.852 C135.471,17.084 140.738,18.767 141.619,20.192 C141.957,20.739 142.421,25.308 142.649,30.344 C143.153,41.446 143.395,42.227 146.202,41.82 C147.667,41.608 149.56,39.561 151.818,35.75 C154.312,31.54 155.81,30 157.412,30 C160.797,30 162,31.954 161.998,37.45 C161.996,41.696 161.355,43.443 157.974,48.42 C150.019,60.131 137.534,74 134.947,74 C131.86,74 129.789,70.462 130.157,65.819 C130.431,62.375 130.196,61.575 129,61.871 C128.175,62.074 124.256,62.724 120.292,63.314 C113.787,64.282 112.885,64.206 111.042,62.538 C108.319,60.074 108.356,55.415 111.111,53.941 C112.272,53.319 115.084,53.016 117.361,53.267 C123.607,53.954 131.024,52.04 132.211,49.435 C132.87,47.991 132.829,43.195 132.089,35.088 C130.981,22.943 131.39,19.745 134.293,17.852 Z M161.034,209.459 C161.884,208.435 163.438,208.176 166.367,208.57 C173.612,209.545 175.205,210.056 178.387,212.427 C181.795,214.967 188.47,218.837 197,223.217 C200.025,224.771 205.875,228.115 210,230.65 C214.125,233.184 219.525,236.396 222,237.788 C224.475,239.179 228.3,241.484 230.5,242.909 C232.7,244.334 234.95,245.725 235.5,246 C239.411,247.956 251.766,256.932 255.942,260.853 C261.648,266.211 262.147,268.202 258.399,270.658 C256.351,272 255.447,272.114 254.149,271.196 C253.242,270.554 250.771,269.143 248.658,268.061 C244.481,265.921 237.906,261.28 232.152,256.409 C227.876,252.79 214.492,244 213.257,244 C212.789,244 211.528,243.325 210.453,242.5 C206.164,239.206 200.454,235.75 193.65,232.33 C189.717,230.353 185.427,227.895 184.115,226.868 C182.803,225.841 181.139,225 180.415,225 C179.692,225 177.1,223.65 174.655,222 C172.21,220.35 169.653,219 168.973,219 C166.763,219 161.12,214.954 160.469,212.902 C160.12,211.803 160.374,210.254 161.034,209.459 Z M124.655,207.829 C128.162,203.954 133,206.75 133,212.652 C133,215.228 132.003,217.374 129.25,220.727 C123.029,228.304 119.042,232.102 109.335,239.699 C99.428,247.452 94.452,250.375 91.53,250.157 C87.845,249.881 84,246.411 84,243.361 C84,240.976 87.302,238.451 89.027,239.517 C89.57,239.852 91.248,239.294 92.757,238.277 C94.266,237.26 96.812,235.769 98.415,234.964 C102.093,233.117 123,212.699 123,210.954 C123,210.241 123.745,208.835 124.655,207.829 Z M149.5,145.821 C147.85,146.841 145.882,148.424 145.128,149.338 C144.373,150.252 143.058,151 142.206,151 C141.354,151 139.788,151.787 138.724,152.749 C137.661,153.712 134.926,154.949 132.646,155.499 C128.617,156.472 128.48,156.642 127.788,161.5 C127.396,164.25 126.782,168.208 126.423,170.295 C125.684,174.595 127.836,178 131.295,178 C132.386,178 137.1,175.412 141.77,172.25 C146.441,169.088 151.553,165.671 153.131,164.658 C156.156,162.716 156.077,163.132 156.438,147.25 C156.516,143.777 153.732,143.203 149.5,145.821 Z M148.599,120.539 C145.903,121.874 142.078,123.259 140.099,123.617 C134.749,124.584 131.087,126.756 130.569,129.268 C130.108,131.507 128.999,139.627 128.899,141.5 C128.87,142.05 129.472,142.895 130.239,143.379 C131.653,144.271 133.669,143.164 144.5,135.547 C147.742,133.267 150.659,132.025 152.796,132.015 L156.091,132 L155.796,125.33 C155.633,121.661 155.05,118.536 154.5,118.385 C153.95,118.235 151.294,119.204 148.599,120.539 Z"/>
</svg>

