<svg xmlns="http://www.w3.org/2000/svg" width="300" height="300" viewBox="0 0 300 300" version="1.1">
  <defs/>
  <path d="M110.785,91.814 C115.96,87.381 122,88.364 122,93.64 C122,95.183 119.984,97.53 115.513,101.19 C108.809,106.678 107.887,108.278 110.566,109.777 C111.746,110.438 112.234,112.808 112.544,119.387 C112.771,124.19 113.217,128.542 113.537,129.06 C114.401,130.457 117.355,130.198 119.559,128.532 C122.176,126.552 127.922,126.619 130.171,128.655 C132.818,131.051 132.523,137.178 129.5,142.593 C127.673,145.865 127,148.563 127,152.609 C127,157.837 126.769,158.352 122.874,161.823 C118.605,165.626 115,172.378 115,176.569 C115,177.89 114.461,180.988 113.801,183.454 C113.142,185.919 112.896,188.229 113.255,188.588 C114.622,189.956 118.951,187.85 123.878,183.42 C127.916,179.789 129.329,177.675 130.57,173.409 C131.475,170.295 132.717,168 133.498,168 C135.261,168 141,174.966 141,177.105 C141,178.013 141.675,179.315 142.5,180 C143.325,180.685 144,182.513 144,184.063 C144,185.614 144.45,187.16 145,187.5 C145.55,187.84 146,189.351 146,190.859 C146,192.367 146.384,194.027 146.854,194.55 C147.619,195.401 149.472,201.114 154.416,217.865 C155.287,220.815 156,226.318 156,230.092 C156,236.302 155.763,237.109 153.508,238.587 C149.743,241.054 148.385,239.856 147.554,233.339 C145.748,219.178 145.095,216.102 142.495,209.5 C140.979,205.65 138.741,199.66 137.522,196.189 C136.304,192.718 134.562,189.133 133.651,188.223 C132.111,186.682 131.606,186.96 126.376,192.232 C123.285,195.348 118.277,199.382 115.246,201.198 C112.215,203.014 107.172,207.088 104.038,210.25 C97.729,216.618 95.524,217.215 91.404,213.671 C87.408,210.234 88.647,207.097 96.415,200.992 C99.924,198.235 103.129,195.197 103.539,194.24 C104.209,192.677 104.814,189.762 106.65,179.255 C107.554,174.085 106.704,172.971 102.776,174.177 C100.677,174.821 97.769,174.876 94.966,174.325 C90.653,173.478 90.489,173.311 90.183,169.474 C90.009,167.288 89.446,165.073 88.933,164.55 C88.42,164.028 88,162.816 88,161.857 C88,159.679 84.442,153.347 81.27,149.879 C79.356,147.786 78.936,146.375 79.186,142.879 C79.437,139.373 79.899,138.451 81.5,138.256 C83.482,138.015 90,143.111 90,144.903 C90,147.327 92.876,146.307 96.5,142.596 C98.7,140.343 101.81,137.581 103.411,136.459 L106.322,134.417 L104.161,127.303 C102.972,123.391 102,118.347 102,116.095 C102,111.602 101.048,111.11 96.43,113.214 C94.054,114.296 93.555,114.169 91.833,112.042 C88.576,108.02 89.753,104.868 95.58,102 C101.05,99.309 105.574,96.278 110.785,91.814 Z M137.33,48.25 C141.178,45.469 145.118,45.368 147.49,47.989 C149.019,49.678 149.19,51.046 148.629,57.084 C148.266,60.993 147.525,65.018 146.984,66.03 C145.716,68.399 145.712,92.731 146.977,103.887 C149.535,126.426 150.109,130.847 151.083,135.5 C151.659,138.25 152.455,143.2 152.852,146.5 C153.249,149.8 154.119,153.483 154.787,154.684 C155.454,155.886 156,158.447 156,160.375 C156,162.304 156.45,164.16 157,164.5 C157.55,164.84 158,166.415 158,168 C158,169.585 158.391,171.124 158.869,171.419 C159.346,171.714 160.041,173.856 160.413,176.178 C160.784,178.501 161.461,180.873 161.918,181.45 C162.375,182.028 163.003,183.85 163.313,185.5 C164.832,193.581 165.859,197.259 166.88,198.28 C167.496,198.896 168,200.216 168,201.214 C168,202.211 168.412,203.809 168.916,204.764 C169.42,205.719 170.557,208.075 171.444,210 C173.163,213.733 173.265,213.905 179.702,223.946 C184.925,232.093 185.705,233.015 189.814,235.901 L193.129,238.228 L195.564,235.94 C196.904,234.681 198,232.814 198,231.791 C198,230.767 198.723,228.826 199.606,227.478 C201.081,225.227 201.081,224.311 199.604,216.263 C198.72,211.443 197.997,202.978 197.998,197.45 C197.999,191.698 197.546,186.946 196.94,186.34 C196.356,185.756 196.019,183.079 196.19,180.39 C196.451,176.27 196.815,175.5 198.5,175.5 C199.874,175.5 200.608,176.282 200.846,178 C201.036,179.375 201.684,181.099 202.285,181.831 C203.722,183.579 204.946,190.967 206.043,204.5 C206.533,210.55 207.009,216.175 207.1,217 C207.191,217.825 207.973,219.313 208.838,220.306 C210.067,221.717 210.163,222.509 209.277,223.928 C208.537,225.112 208.484,226.084 209.123,226.723 C210.76,228.36 210.493,231.28 208.275,236.002 C207.112,238.476 205.915,241.285 205.614,242.244 C204.841,244.71 199.056,247.994 195.5,247.986 C190.584,247.977 182.792,243.675 177.98,238.314 C174.286,234.199 164.447,216.433 160.915,207.5 C158.519,201.441 155,189.88 155,188.068 C155,186.916 154.603,185.191 154.118,184.236 C153.632,183.281 152.712,180.475 152.072,178 C151.432,175.525 150.449,171.925 149.888,170 C147.276,161.043 144.046,146.79 142.976,139.5 C141.939,132.433 140.54,123.841 139.07,115.5 C138.488,112.2 137.976,101.4 137.932,91.5 C137.836,70.045 137.207,64.662 134.739,64.188 C133.771,64.001 130.232,65.683 126.875,67.925 C123.518,70.166 120.618,72 120.43,72 C120.242,72 117.848,73.321 115.111,74.934 C112.374,76.548 108.642,78.313 106.817,78.855 C104.993,79.398 101.031,80.777 98.014,81.921 C89.831,85.022 86,84.351 86,79.814 C86,77.5 92.34,73.355 97.701,72.166 C103.491,70.882 118.011,62.895 126.858,56.128 C130.905,53.033 135.617,49.487 137.33,48.25 Z M64.625,72.797 C65.535,71.325 66.748,71.98 69.165,75.25 C72.217,79.379 74,83.47 74,86.347 C74,87.586 74.563,89.162 75.25,89.85 C76.945,91.545 77.048,137.017 75.361,139.096 C74.735,139.868 73.962,143.65 73.643,147.5 C72.138,165.671 66.206,190.261 60.92,200.236 C60.414,201.191 60,202.638 60,203.451 C60,205.228 49.686,222.53 46.649,225.848 C43.128,229.694 39.287,232.047 37.591,231.396 C35.134,230.454 35.63,228.815 40.626,221.382 C46,213.386 51.001,203.413 52.852,197 C53.566,194.525 54.792,191.226 55.575,189.669 C56.359,188.112 57,185.968 57,184.905 C57,183.843 57.395,182.191 57.877,181.236 C59.463,178.097 60.989,172.443 61.56,167.587 C61.869,164.96 62.544,161.699 63.061,160.34 C63.577,158.981 64,155.451 64,152.494 C64,149.537 64.45,146.84 65,146.5 C65.55,146.16 66.008,143.321 66.018,140.191 C66.029,137.061 66.681,130.862 67.467,126.415 C68.922,118.19 68.741,114.31 65.997,95 C64.695,85.836 63.956,73.88 64.625,72.797 Z M99.514,153.985 C96.042,157.542 95.701,158.291 96.774,160.01 C97.448,161.09 98,162.879 98,163.986 C98,167.009 101.102,166.489 105.439,162.739 C109.119,159.558 109.19,159.367 108.328,154.989 C107.133,148.919 104.729,148.645 99.514,153.985 Z M117.667,140.667 C116.632,141.701 116.881,147 117.965,147 C119.152,147 121,143.691 121,141.566 C121,139.99 118.907,139.426 117.667,140.667 Z"/>
</svg>

