<svg xmlns="http://www.w3.org/2000/svg" width="300" height="300" viewBox="0 0 300 300" version="1.1">
  <defs/>
  <path d="M78.079,29.404 C79.466,27.733 80.942,27.647 84.57,29.026 C87.203,30.028 87.255,30.206 86.67,36.276 C86.065,42.552 84.786,51.914 83.462,59.75 C82.756,63.932 82.791,64 85.623,64 C88.781,64 97,70.654 97,73.21 C97,74.003 95.875,75.708 94.5,77 C93.125,78.292 92,80.319 92,81.505 C92,82.774 90.985,84.205 89.534,84.982 C86.002,86.872 83.628,84.795 84.431,80.516 C84.81,78.495 84.486,76.718 83.507,75.451 C82.024,73.532 81.965,73.539 79.999,75.861 C78.9,77.159 78,79.281 78,80.576 C78,81.871 77.39,84.858 76.644,87.215 C75.402,91.14 74.025,95.933 72.468,101.75 C71.587,105.038 74.762,104.696 79.038,101.041 C83.041,97.619 85.998,97.236 88.351,99.835 C90.8,102.541 88.842,107.364 82.733,113.671 C79.346,117.168 77.927,119.366 78.348,120.464 C78.835,121.733 79.395,121.859 80.919,121.043 C81.991,120.469 84.839,120 87.247,120 C94.02,120 96.516,123.26 99.881,136.5 C101.426,142.58 102.016,150.872 100.95,151.531 C100.427,151.854 99.993,153.779 99.985,155.809 C99.977,157.839 99.321,160.625 98.528,162 C97.735,163.375 96.613,165.552 96.034,166.838 C94.971,169.202 89.252,175.967 78.74,187.293 C74.999,191.324 72.615,194.902 71.939,197.5 C71.367,199.7 70.246,203.197 69.449,205.27 C65.632,215.201 68.958,215.389 78.224,205.767 C85.779,197.922 88.25,194.069 87.899,190.679 C87.775,189.481 88.269,187.262 88.997,185.75 C90.126,183.405 90.932,183 94.466,183 C98.105,183 99.165,183.579 103.16,187.75 C105.662,190.363 109.365,194.975 111.388,198 C113.411,201.025 116.387,205.3 118,207.5 C121.092,211.717 121.678,214.865 119.965,218.066 C118.038,221.666 110,219.434 110,215.3 C110,214.535 107.736,210.555 104.97,206.455 C99.531,198.396 97.024,197.168 94.774,201.462 C92.6,205.612 79.491,218.389 75.38,220.366 C73.246,221.392 70.275,222.873 68.778,223.656 C66.412,224.894 65.682,224.887 63.205,223.606 C58.711,221.282 57.737,219.521 58.319,214.774 C59.195,207.635 60.798,200.245 61.929,198.132 C62.518,197.032 63,194.363 63,192.202 C63,190.041 63.477,185.849 64.059,182.886 C65.447,175.828 65.386,161.16 63.912,147.703 C62.925,138.68 62.465,136.955 61.115,137.21 C60.042,137.413 59.164,139.259 58.5,142.708 C57.95,145.564 56.938,148.464 56.25,149.151 C55.562,149.838 55,151.329 55,152.465 C55,153.6 54.1,156.209 53,158.261 C51.9,160.314 51,162.868 51,163.937 C51,165.007 50.55,166.16 50,166.5 C49.45,166.84 49,167.976 49,169.025 C49,171.134 46.463,177.128 43.931,181 C43.032,182.375 42.034,184.874 41.713,186.554 C41.391,188.234 39.524,191.992 37.564,194.905 C35.604,197.818 34,200.746 34,201.413 C34,202.677 30.638,210.403 28.958,213 C28.424,213.825 27.274,216.075 26.401,218 C25.528,219.925 23.709,223.799 22.358,226.609 C21.007,229.419 19.557,233.019 19.134,234.609 C18.238,237.978 14.395,239.193 13.339,236.442 C12.134,233.301 15.144,224.143 22.143,209.655 C23.164,207.541 24,205.356 24,204.8 C24,204.244 26.25,199.159 29,193.5 C31.75,187.841 34,182.725 34,182.132 C34,181.538 35.575,177.817 37.5,173.861 C39.425,169.906 41,166.178 41,165.578 C41,164.977 42.507,160.648 44.349,155.956 C46.191,151.265 48.031,145.643 48.439,143.463 C48.847,141.283 50.466,135.675 52.037,131 C59.083,110.041 63.144,98.387 63.887,97 C65.206,94.536 71.687,67.255 73.508,56.5 C74.439,51 75.871,44.106 76.691,41.181 C77.511,38.255 77.897,34.725 77.548,33.335 C77.194,31.926 77.429,30.188 78.079,29.404 Z M157.2,83.2 C160.919,79.481 167.007,85.066 166.994,92.184 C166.983,99.028 169.392,115.937 170.437,116.337 C171.034,116.566 173.767,115.669 176.511,114.344 C183.272,111.077 190.56,109 195.258,109 C198.231,109 199.847,109.693 202.077,111.923 C203.685,113.531 205,115.754 205,116.864 C205,117.974 205.45,119.16 206,119.5 C206.55,119.84 207,121.64 207,123.5 C207,125.36 207.45,127.16 208,127.5 C208.55,127.84 209.001,129.779 209.001,131.809 C209.003,137.42 206.832,152.375 205.86,153.45 C205.387,153.972 205,156.52 205,159.111 C205,165.63 201.432,174.414 197.316,178.028 C192.623,182.148 189.33,181.91 183.119,177 C180.336,174.8 177.583,173 177.002,173 C176.285,173 176.129,177.251 176.516,186.25 C176.829,193.537 177.042,201.975 176.99,205 C176.938,208.025 176.733,228.689 176.536,250.92 C176.338,273.151 175.884,293.288 175.527,295.67 L174.877,300 L163.05,300 L163.671,296.75 C164.013,294.962 165.149,291.645 166.196,289.378 C168.015,285.44 168.076,282.847 167.57,230.878 C166.994,171.816 166.882,169.176 164.448,157.424 C163.545,153.066 162.681,146.575 162.527,143 C162.373,139.425 162.191,136.162 162.123,135.75 C161.795,133.751 158.631,135.565 152.372,141.344 C148.592,144.833 144.492,148.221 143.26,148.873 C139.104,151.074 137.903,155.138 138.205,165.979 C138.494,176.375 137.806,178.494 134.356,177.831 C132.45,177.464 131.667,174.617 130.414,163.5 C130.104,160.75 129.25,157.15 128.517,155.5 C127.784,153.85 126.38,150.475 125.396,148 C124.413,145.525 122.853,142.375 121.93,141 C120.046,138.195 117.68,128.328 118.552,126.916 C118.863,126.412 120.635,126 122.488,126 C125.388,126 126.31,126.663 129.096,130.75 C130.876,133.363 132.832,137.941 133.443,140.925 C134.053,143.909 135.08,146.527 135.725,146.742 C136.371,146.957 138.078,144.805 139.52,141.961 C142.336,136.403 148.608,129.753 155.327,125.202 L159.5,122.375 L159.195,114.938 C159.027,110.847 158.239,104.256 157.445,100.292 C155.686,91.519 155.59,84.81 157.2,83.2 Z M141.248,28.706 C145.34,27.918 145.762,27.986 147.763,29.75 C150.788,32.419 152.594,46.888 151.008,55.764 C150.347,59.469 149.399,63.281 148.903,64.236 C147.723,66.505 147.755,68.73 148.978,69.486 C150.026,70.134 166.971,55.721 170.822,50.904 C172.203,49.178 174.1,48 175.5,48 C177.971,48 182,52.172 182,54.732 C182,56.457 169.401,69.799 166.5,71.146 C165.4,71.657 162.7,73.176 160.5,74.521 C158.133,75.969 154.95,76.974 152.702,76.984 C151.771,76.988 151.087,76.97 150.432,77.102 C148.31,77.529 146.505,79.532 137.665,88.973 C132.471,94.52 129.96,91.571 134.02,84.691 C137.97,77.996 142.437,54.929 141.39,46.637 C140.733,41.435 138.75,38 136.404,38 C133.869,38 133.872,35.856 136.412,32.527 C137.833,30.664 140.009,28.945 141.248,28.706 Z M183.878,122.539 C181.337,123.335 178.694,124.664 178.006,125.493 C177.318,126.322 176.205,127 175.533,127 C174.86,127 173.625,127.787 172.788,128.75 C171.117,130.672 171.119,133.316 172.802,147.761 C173.786,156.21 174.171,157.32 177.19,160.416 C179.011,162.283 181.782,165.428 183.348,167.405 C184.915,169.382 187.047,171 188.086,171 C190.52,171 194.526,164.683 195.386,159.487 C195.749,157.294 196.575,152.35 197.221,148.5 C198.7,139.683 198.487,127.793 196.787,124.228 C195.207,120.915 190.877,120.348 183.878,122.539 Z M87.46,156.455 C86.382,157.27 84.375,157.967 83,158.004 C81.625,158.041 79.323,159.068 77.884,160.286 C75.756,162.088 75.153,163.67 74.646,168.786 C74.173,173.559 74.345,175.195 75.361,175.585 C77.501,176.406 91.5,161.37 91.5,158.25 C91.5,155.108 90.077,154.476 87.46,156.455 Z M82.076,134.301 C81.595,135.566 79.356,137.822 77.101,139.315 C73.44,141.737 73,142.456 73,146.014 C73,151.222 74.797,151.213 79.636,145.983 C81.68,143.773 84.736,141.61 86.426,141.175 C91.834,139.784 90.923,132 85.353,132 C83.766,132 82.654,132.781 82.076,134.301 Z M66.667,115.667 C66.3,116.033 66,117.522 66,118.976 C66,120.429 65.339,122.491 64.532,123.559 C63.724,124.626 63.049,126.963 63.032,128.75 C63.003,131.663 63.295,132 65.845,132 C69.297,132 72.297,129.099 71.007,127.011 C70.516,126.217 70.474,125.102 70.913,124.534 C72.393,122.617 72.904,118.689 71.913,116.838 C70.945,115.028 67.97,114.364 66.667,115.667 Z"/>
</svg>

