<svg xmlns="http://www.w3.org/2000/svg" width="300" height="300" viewBox="0 0 300 300" version="1.1">
  <defs/>
  <path d="M155.5,29 C156.296,27.711 162.111,27.712 165.501,29 C167.585,29.793 168.067,30.561 167.816,32.691 C167.549,34.968 166.792,35.561 162.89,36.551 C154.071,38.79 149.592,43 146.986,51.5 C146.312,53.7 145.139,56.978 144.38,58.784 C143.621,60.59 143,62.726 143,63.531 C143,64.336 141.65,67.852 140,71.344 C137.255,77.154 136.393,80 137.379,80 C137.587,80 140.373,78.425 143.57,76.5 C150.887,72.094 153.71,72.044 157.657,76.25 C162.621,81.539 165.073,87.825 167.118,100.5 C167.65,103.8 168.517,109.002 169.043,112.06 C170.336,119.571 170.3,161.697 169,162.5 C168.45,162.84 168,164.069 168,165.23 C168,166.392 167.255,168.165 166.345,169.171 C164.257,171.478 158.444,171.617 157.198,169.389 C156.414,167.989 155.621,168.252 151.158,171.389 C148.332,173.375 145.738,175 145.392,175 C145.047,175 143.184,176.387 141.253,178.083 C138.743,180.286 137.137,180.988 135.621,180.544 C134.454,180.202 131.925,179.652 130,179.322 C128.379,179.044 127.158,179.087 126.267,178.564 C123.357,176.858 123.981,169.125 125.742,124.5 C126.174,113.55 124.47,96.408 122.85,95.407 C122.383,95.118 122,92.287 122,89.115 C122,84.193 122.381,82.994 124.601,80.924 C128.466,77.321 133.233,65.845 136.008,53.463 C137.536,46.646 137.028,45.88 132.104,47.576 C129.847,48.354 126.708,48.692 124.969,48.344 C121.649,47.68 118.442,43.895 119.302,41.655 C119.776,40.42 137.821,34 140.818,34 C141.512,34 143.844,33.1 146,32 C148.156,30.9 151.037,30 152.401,30 C153.766,30 155.16,29.55 155.5,29 Z M63.035,123.463 C65.904,120.408 66.148,120.412 69.887,123.558 C72.461,125.724 72.835,126.605 72.331,129.308 C72.004,131.064 71.345,132.928 70.868,133.45 C70.39,133.972 70,135.172 70,136.117 C70,137.061 69.515,137.995 68.923,138.192 C67.843,138.552 65.101,149.526 65.035,153.75 C65.002,155.851 65.421,156 71.365,156 C79.04,156 81.449,157.558 85.324,165.026 C87.124,168.496 88,171.737 88,174.926 C88,180.47 86.098,191.079 84.859,192.45 C84.387,192.972 84,194.478 84,195.796 C84,197.113 83.354,199.386 82.565,200.846 C81.775,202.306 80.377,206.764 79.456,210.753 C78.536,214.742 76.932,219.088 75.892,220.411 C74.851,221.733 74,223.505 74,224.349 C74,225.192 73.55,226.16 73,226.5 C72.45,226.84 72,227.901 72,228.858 C72,229.815 69.878,232.995 67.285,235.924 L62.57,241.249 L56.326,240.666 C52.892,240.345 48.377,239.199 46.292,238.119 C42.561,236.186 31.968,225.894 28.672,221 C18.739,206.248 14.145,198.933 12.972,196 C12.202,194.075 10.544,190.975 9.286,189.11 C6.473,184.939 6.439,183.817 9.059,181.447 C11.54,179.201 13.74,180.204 15.975,184.599 C25.78,203.88 33.593,215.387 42.644,223.876 C52.213,232.853 55.93,233.941 59.862,228.917 C63.196,224.657 66,219.443 66,217.504 C66,216.677 66.441,216 66.981,216 C67.52,216 68.265,214.762 68.635,213.25 C69.005,211.738 69.588,210.275 69.931,210 C70.726,209.362 73.488,200.066 74.907,193.25 C75.508,190.363 76.487,185.767 77.083,183.038 C77.678,180.309 77.816,177.512 77.39,176.822 C76.964,176.132 76.359,173.978 76.046,172.034 C75.52,168.77 75.181,168.476 71.61,168.182 C67.2,167.819 62.935,169.309 60.417,172.091 C58.326,174.402 54.242,174.558 51.223,172.443 C47.839,170.074 48.359,165.338 53.039,155.897 C53.476,155.015 54.146,152.208 54.529,149.658 C55.374,144.02 53.673,142.832 48.375,145.358 C46.482,146.261 42.974,147 40.581,147 C37.017,147 35.927,146.537 34.553,144.441 C33.631,143.033 33.017,140.896 33.188,139.692 C33.451,137.848 34.368,137.39 39,136.793 C46.182,135.866 58.183,130.774 59.611,128.046 C60.222,126.88 61.763,124.817 63.035,123.463 Z M25.566,49.893 C26.803,47.892 33.347,49.904 36.166,53.152 L38.833,56.224 L44.666,53.437 C47.875,51.904 51.619,50.733 52.986,50.833 C56.831,51.117 59.883,54.939 61.173,61.088 C62.28,66.366 62.212,66.795 59.666,70.541 C58.2,72.699 57,75.041 57,75.746 C57,76.45 56.598,77.809 56.108,78.764 C55.617,79.719 54.721,81.75 54.116,83.278 C53.512,84.806 52.226,86.304 51.259,86.607 C50.291,86.909 48.306,87.797 46.846,88.578 C41.965,91.192 39.266,90.454 37.068,85.904 C35.818,83.318 35.297,80.764 35.654,78.978 C35.989,77.304 35.563,74.83 34.61,72.92 C33.725,71.145 33,69.05 33,68.265 C33,67.479 31.483,64.961 29.63,62.668 C26.334,58.591 24.246,52.029 25.566,49.893 Z M154.11,209.367 C154.877,208.443 157.554,208.003 162.372,208.009 C168.626,208.018 170.16,208.416 174.883,211.259 C177.843,213.042 181.443,215.131 182.883,215.901 C184.322,216.672 191.072,220.871 197.883,225.233 C204.693,229.596 210.993,233.428 211.883,233.751 C212.772,234.074 215.075,235.627 217,237.203 C220.835,240.344 220.751,240.28 226.5,244.49 C231.939,248.473 234.921,252.067 234.964,254.691 C234.984,255.896 235.45,257.16 236,257.5 C237.39,258.359 237.254,263.346 235.8,264.8 C233.642,266.958 230.143,266.077 226.533,262.467 C224.59,260.523 223,258.31 223,257.548 C223,254.632 221.593,252.896 214.735,247.355 C209.081,242.787 190.369,230.598 186.354,228.868 C182.84,227.354 169.937,219.629 168.965,218.457 C168.299,217.656 166.892,217 165.838,217 C163.947,217 156.695,213.716 154.238,211.746 C153.289,210.986 153.257,210.395 154.11,209.367 Z M81.5,49 C83.624,47.313 84.56,46.473 85.624,46.254 C86.745,46.023 88.008,46.481 90.954,47.362 C96.373,48.982 96.952,50.57 95.935,61.032 C95.098,69.654 91.025,78.142 83.594,86.75 C78.75,92.362 74.695,87.501 73.07,74.134 C71.978,65.156 69.954,60.105 67.419,60.031 C65.607,59.979 63.828,55.545 64.174,51.941 C64.427,49.298 65.096,48.328 67.163,47.606 C69.376,46.832 70.36,47.125 72.989,49.338 C74.73,50.802 76.507,52 76.939,52 C77.371,52 79.424,50.65 81.5,49 Z M141.807,91.4 C138.205,94.717 137.245,96.22 137.675,97.866 C137.984,99.046 137.62,100.752 136.868,101.658 C135.96,102.752 135.452,106.363 135.356,112.403 C135.276,117.406 134.885,125.338 134.486,130.028 C133.873,137.235 134.01,138.763 135.367,139.89 C137.907,141.997 141.029,140.551 149.042,133.556 C153.144,129.976 157.287,127.036 158.25,127.023 C159.68,127.004 160,126.086 160,122 C160,118.728 159.568,116.96 158.75,116.885 C155.567,116.592 153.376,117.407 149.951,120.16 C147.002,122.529 145.459,123.071 142.374,122.818 C139.032,122.544 138.458,122.139 138.195,119.868 C137.813,116.568 142.743,112.239 151.75,107.967 C155.188,106.337 158,104.646 158,104.211 C158,102.45 154.897,91.35 153.818,89.25 C151.892,85.501 147.326,86.319 141.807,91.4 Z M123.941,211.197 C126.747,206.736 127.69,205.942 129.881,206.197 C131.592,206.396 132.953,207.479 133.847,209.355 C135.041,211.856 134.982,212.715 133.367,216.294 C132.354,218.541 130.057,222.136 128.263,224.284 C126.468,226.432 125,228.555 125,229.002 C125,230.843 111.735,242.904 107.544,244.874 C101.522,247.705 99.533,247.557 97.068,244.096 C93.59,239.211 94.92,236.018 100.45,235.978 C102.127,235.966 104.446,235.178 105.602,234.228 C108.62,231.746 120.022,217.428 123.941,211.197 Z M153.845,142.833 C151.835,144.85 148.092,147.591 145.527,148.925 C140.962,151.299 140.799,151.313 137.841,149.565 C134.137,147.377 132.192,148.622 134.01,152.019 C134.858,153.603 134.908,154.906 134.184,156.496 C133.622,157.73 132.85,160.818 132.469,163.358 C131.91,167.084 132.083,168.095 133.363,168.586 C135.021,169.222 140.723,166.237 145,162.494 C146.375,161.29 150.312,158.629 153.749,156.581 C157.708,154.221 160.157,152.058 160.433,150.678 C161.802,143.825 161.9,141.584 160.881,140.357 C159.197,138.327 157.871,138.794 153.845,142.833 Z M59.674,101.617 C70.652,94.065 76,94.282 76,102.279 C76,105.442 73.448,107.635 67.417,109.653 C64.713,110.559 61.205,112.204 59.622,113.309 C58.039,114.414 54.624,115.522 52.033,115.771 C47.829,116.175 47.091,115.931 45.183,113.505 C42.284,109.821 43.705,107 48.46,107 C50.923,107 53.986,105.53 59.674,101.617 Z M46.25,62.745 C43.265,64.231 43,64.751 43,69.122 C43,71.74 43.423,74.143 43.94,74.463 C45.458,75.401 51.72,69.244 52.295,66.249 C52.782,63.712 51.612,60.913 50.128,61.064 C49.782,61.099 48.038,61.856 46.25,62.745 Z M82.054,59.435 C81.399,60.224 81.007,62.361 81.182,64.185 C81.426,66.727 81.966,67.5 83.5,67.5 C84.874,67.5 85.608,66.718 85.846,65 C86.036,63.625 86.637,61.957 87.182,61.294 C87.727,60.63 87.882,59.618 87.527,59.044 C86.595,57.536 83.443,57.762 82.054,59.435 Z"/>
</svg>

