<svg xmlns="http://www.w3.org/2000/svg" width="300" height="300" viewBox="0 0 300 300" version="1.1">
  <defs/>
  <path d="M160.361,29.502 C161.051,27.705 165.114,27.514 166.8,29.2 C170.947,33.347 164.948,42.617 155.584,46.529 C152.402,47.859 152.11,48.301 152.646,50.981 C153.035,52.925 152.549,55.436 151.245,58.228 C150.147,60.578 148.933,63.957 148.547,65.739 C148.162,67.52 147.431,69.234 146.923,69.548 C146.415,69.861 146,71.19 146,72.5 C146,73.81 145.55,75.16 145,75.5 C143.169,76.632 143.873,80 145.941,80 C147.009,80 148.123,79.611 148.417,79.135 C148.711,78.659 151.62,77.745 154.882,77.103 C163.402,75.427 166.348,77.233 171.11,87.055 C174.695,94.45 174.72,94.595 174.903,108.696 C175.004,116.504 175.515,125.504 176.038,128.696 C176.561,131.888 176.991,139.472 176.994,145.55 C177,156.789 176.345,159 173.008,159 C172.132,159 169.185,161.052 166.458,163.56 C163.731,166.068 159.394,169.209 156.821,170.541 C154.247,171.873 151.842,173.446 151.476,174.038 C150.651,175.374 138.87,184 137.871,184 C136.062,184 134,180.561 134,177.544 C134,175.113 134.666,173.794 136.5,172.592 C139.365,170.715 139.66,169.203 137.471,167.603 C136.202,166.674 135.868,162.668 135.505,143.992 C134.947,115.327 134.622,111.873 130.867,94.777 C129.657,89.27 130.373,85.073 133.475,79.478 C135.583,75.678 136.293,73.238 137.683,65.023 C138.007,63.111 139.401,59.839 140.782,57.753 C142.163,55.666 143.018,53.685 142.682,53.349 C142.347,53.013 140.143,53.285 137.786,53.954 C135.429,54.623 129.047,55.891 123.605,56.772 L113.71,58.374 L111.36,55.437 C107.395,50.482 108.717,46.329 113.833,47.666 C117.696,48.677 136.908,43.627 146,39.212 C153.255,35.688 159.645,31.368 160.361,29.502 Z M56.788,123.75 C58.839,121.392 60.224,121.545 62.937,124.433 C64.776,126.39 65.115,127.613 64.672,130.683 C63.431,139.296 61.322,145.841 58.25,150.62 C55.1,155.52 54.06,160.301 55.897,161.436 C57.421,162.378 66.353,153.518 69.178,148.262 C70.652,145.522 72.165,141.635 72.542,139.626 C72.919,137.616 73.912,135.589 74.748,135.121 C76.896,133.919 82.89,135.476 84.529,137.662 C85.643,139.148 90.891,148.778 95.067,157 C100.9,168.484 102.269,174.702 99.476,177.02 C96.203,179.736 92.867,176.017 85.558,161.5 C82.011,154.453 78.649,150.537 76.767,151.259 C75.913,151.587 74.048,154.25 72.623,157.178 C71.199,160.105 68.994,163.625 67.723,165 C64.4,168.597 56.794,173.763 53.664,174.548 C52.189,174.919 50.734,175.622 50.432,176.111 C49.37,177.828 45.325,176.975 43.052,174.556 C41.076,172.452 40.852,171.475 41.441,167.546 C41.817,165.035 43.897,159.441 46.063,155.115 C48.228,150.788 50,146.736 50,146.11 C50,145.485 50.52,143.966 51.156,142.736 C53.716,137.785 53.999,136.849 54.62,131.284 C54.975,128.103 55.951,124.713 56.788,123.75 Z M49.2,84.2 C50.655,82.745 52.065,82.694 55.435,83.975 C58.335,85.078 58.778,87.829 56.612,91.285 C55.849,92.503 54.925,95.3 54.558,97.5 C54.192,99.7 52.844,103.75 51.563,106.5 C50.282,109.25 48.427,113.525 47.44,116 C43.48,125.934 41.663,129.655 39.14,133 C37.688,134.925 35.652,138.075 34.616,140 C32.532,143.872 30.019,147.352 25.499,152.624 C23.247,155.25 21.501,156.243 18.499,156.603 C16.3,156.866 13.877,156.662 13.115,156.148 C11.123,154.806 12.46,150.567 15.28,149.282 C19.3,147.45 31.561,127.631 36.488,115 C37.453,112.525 39.038,108.7 40.009,106.5 C40.981,104.3 42.574,99.682 43.55,96.238 C44.525,92.794 45.926,89.476 46.662,88.866 C47.398,88.255 48,87.225 48,86.578 C48,85.93 48.54,84.86 49.2,84.2 Z M172.116,204.284 C173.919,202.481 183.899,203.922 190.5,206.939 C193.8,208.447 198.075,210.285 200,211.023 C201.925,211.761 204.534,213.152 205.797,214.113 C207.06,215.075 209.392,216.147 210.978,216.495 C212.564,216.844 214.437,217.822 215.141,218.67 C216.946,220.845 227.092,225.431 229.56,225.187 C231.839,224.962 240,231.407 240,233.432 C240,235.519 235.257,240 233.048,240 C231.921,240 230.193,239.193 229.207,238.207 C228.221,237.221 225.859,235.774 223.957,234.992 C222.056,234.21 218.635,232.317 216.355,230.785 C214.075,229.253 211.368,228 210.339,228 C209.31,228 202.175,224.856 194.484,221.012 C186.793,217.169 179.541,214.019 178.369,214.012 C177.125,214.005 175.146,212.569 173.619,210.567 C170.7,206.74 170.499,205.901 172.116,204.284 Z M130.655,195.829 C132.699,193.57 137.562,193.415 138.393,195.582 C140.358,200.702 138.382,205.103 128.78,217 C124.041,222.871 113.692,233 112.432,233 C111.779,233 110.692,233.666 110.017,234.479 C108.275,236.578 103.107,239 100.369,239 C97.424,239 94.75,235.042 95.177,231.315 C95.448,228.95 96.146,228.34 99.543,227.5 C104.751,226.212 110.324,222.011 116.788,214.5 C119.628,211.2 123.537,206.833 125.476,204.795 C127.414,202.757 129,200.317 129,199.373 C129,198.43 129.745,196.835 130.655,195.829 Z M164,132.698 C163.175,132.995 160.475,135.188 158,137.573 C155.525,139.957 151.845,142.596 149.823,143.437 C145.516,145.228 145.241,145.945 144.82,156.5 C144.518,164.044 144.623,164.517 146.653,164.807 C148.141,165.019 150.765,163.296 155.153,159.228 C158.644,155.991 162.264,153.063 163.198,152.723 C166.634,151.468 168.234,146.305 167.488,138.877 C167.108,135.095 166.505,132.036 166.149,132.079 C165.792,132.122 164.825,132.401 164,132.698 Z M77.377,85.459 C78.233,83.228 85.292,83.56 87.438,85.931 C88.399,86.993 92.087,89.127 95.634,90.672 C102.278,93.566 103.531,95.216 102.833,100.148 C102.546,102.176 101.972,102.483 98.67,102.379 C96.433,102.308 93.582,101.328 91.816,100.022 C90.153,98.792 87.509,97.698 85.941,97.589 C84.373,97.48 82.187,96.574 81.083,95.575 C78.731,93.447 76.573,87.555 77.377,85.459 Z M151.973,88.653 C145.197,93.184 144,95.066 144,101.187 C144,107.866 145.518,108.743 149.945,104.623 C151.35,103.315 154.903,101.466 157.841,100.512 L163.181,98.779 L162.518,95.243 C161.088,87.622 157.173,85.175 151.973,88.653 Z M152.953,114.805 C151.604,115.857 149.111,117.429 147.413,118.3 C144.404,119.843 144.337,120.03 144.776,125.691 C145.331,132.861 146.118,133.808 149.619,131.514 C153.644,128.877 166,118.666 166,117.977 C166,116.142 162.99,114.101 159.453,113.537 C156.306,113.036 154.861,113.318 152.953,114.805 Z"/>
</svg>

