<svg xmlns="http://www.w3.org/2000/svg" width="300" height="300" viewBox="0 0 300 300" version="1.1">
  <defs/>
  <path d="M160,11.776 C166.219,7.509 166.699,7.4 169.777,9.557 C172.631,11.555 172.619,15.117 169.75,17.594 C166.728,20.202 161.227,24 160.471,24 C160.135,24 157.898,25.35 155.5,27 C153.102,28.65 150.698,30 150.159,30 C147.98,30 144.321,36.029 143.123,41.592 C141.293,50.089 140.118,54.611 137.753,62.248 C136.604,65.96 135.986,69.319 136.38,69.713 C137.619,70.952 140.428,68.47 142.371,64.419 C144.721,59.521 150.797,55 155.031,55 C157.831,55 166,58.792 166,60.092 C166,60.731 167.422,64.143 169.16,67.674 C172.718,74.9 173.432,81.985 173.285,108.551 C173.092,143.25 171.26,152.893 164.848,152.969 C162.752,152.993 161.962,152.33 161.083,149.807 L159.969,146.614 L155.697,150.807 C153.347,153.113 150.577,155 149.541,155 C148.505,155 145.762,156.978 143.446,159.395 C139.142,163.887 133.935,166.012 131.709,164.184 C131.044,163.638 129.439,163.036 128.143,162.846 C126.362,162.585 125.418,161.409 124.284,158.039 C122.998,154.218 122.972,152.784 124.107,148.056 C125.841,140.825 126.063,90.006 124.369,87.904 C123.747,87.132 122.918,82.556 122.528,77.736 L121.818,68.971 L124.909,65.451 C126.609,63.515 128,61.121 128,60.132 C128,59.143 128.308,58.025 128.685,57.648 C130.319,56.014 131.971,49.056 131.985,43.75 C131.999,38.408 131.836,38 129.694,38 C128.426,38 124.637,38.929 121.273,40.065 C113.219,42.785 108.341,42.364 105.627,38.714 C101.939,33.753 105.637,31.483 121.5,28.969 C125.9,28.271 131.17,26.868 133.21,25.85 C135.251,24.833 137.699,24 138.65,24 C140.477,24 150.789,18.096 160,11.776 Z M71.464,43.058 C72.3,41.706 76.558,41.693 79.066,43.035 C80.383,43.74 81,45.131 81,47.396 C81,54.757 82.223,60 83.94,60 C86.73,60 94.981,54.18 96.004,51.49 C97.091,48.631 100.756,46.862 103.893,47.682 C105.574,48.122 106,49.009 106,52.07 C106,54.18 105.47,57.069 104.823,58.49 C103.471,61.457 92.274,70.052 86.809,72.318 C82.808,73.977 81.602,76.672 80.418,86.603 C80.097,89.296 79.458,92.625 78.999,94 C76.489,101.506 76.565,101.704 82.199,102.245 C90.284,103.022 92.944,107.878 88.227,113.25 C87.382,114.212 85.972,115.002 85.095,115.004 C82.926,115.01 75.852,119.849 72.82,123.401 C70.83,125.732 69.49,126.321 66,126.401 C62.137,126.489 61.449,126.15 59.786,123.336 L57.916,120.172 L62.125,115.836 C65.269,112.597 66.523,110.362 67.083,107 C67.496,104.525 68.307,100.7 68.885,98.5 C69.464,96.3 70.212,91.176 70.547,87.113 C71.112,80.267 71.023,79.769 69.328,80.31 C68.323,80.631 62.827,82.493 57.116,84.447 C45.611,88.383 36.253,89.215 34,86.5 C33.012,85.31 33.01,84.693 33.989,83.513 C34.668,82.695 34.964,81.348 34.646,80.521 C33.829,78.391 38.268,76.347 45.501,75.522 C51.911,74.79 68.426,69.721 70.789,67.76 C71.947,66.799 72.082,64.477 71.512,55.347 C71.126,49.17 71.104,43.64 71.464,43.058 Z M80.5,143.898 C84.214,142.931 89.068,143.445 92.724,145.193 C95.369,146.457 95.514,146.894 95.795,154.418 C96.076,161.952 95.927,162.579 92.545,168.058 C90.595,171.217 89,174.122 89,174.514 C89,174.906 90.359,175.028 92.019,174.784 C96.232,174.166 97.54,176.054 95.556,179.891 C94.354,182.216 92.775,183.286 88.812,184.463 C85.966,185.308 82.62,186 81.378,186 C80.135,186 78.875,186.393 78.578,186.874 C78.281,187.355 75.503,188.948 72.405,190.415 C67.231,192.865 66.586,192.959 64.474,191.575 C63.209,190.746 61.881,188.734 61.523,187.103 C61.164,185.472 60.225,183.602 59.436,182.947 C58.646,182.291 58,181.116 58,180.335 C58,179.553 55.941,176.714 53.425,174.024 C49.972,170.332 47.369,168.633 42.804,167.091 C36.148,164.843 34.08,162.885 34.032,158.785 C33.962,152.809 44.124,152.722 51.872,158.632 C56.147,161.893 58,162.184 58,159.594 C58,155.839 71.911,146.134 80.5,143.898 Z M166.347,193.537 C167.251,191.181 178.375,191.423 181.846,193.874 C183.306,194.905 187.65,197.37 191.5,199.352 C201.518,204.509 208.746,208.705 212.365,211.465 C214.094,212.784 216.669,214.304 218.086,214.843 C219.503,215.381 224.001,217.999 228.082,220.66 C232.162,223.32 236.238,225.948 237.14,226.499 C238.041,227.049 241.516,229.166 244.86,231.201 C252.046,235.575 257.084,240.747 256.744,243.4 C256.61,244.444 255.262,246.22 253.749,247.346 L250.998,249.392 L245.048,245.196 C241.775,242.888 238.738,240.993 238.299,240.983 C237.859,240.974 235.531,238.928 233.124,236.436 C227.467,230.579 217.648,224.126 202.58,216.362 C200.298,215.186 197.829,213.499 197.093,212.612 C196.357,211.725 195.308,211 194.763,211 C192.911,211 168.995,198.652 167.371,196.858 C166.484,195.877 166.023,194.383 166.347,193.537 Z M128.366,193.25 C132.471,186.998 133.528,186 136.04,186 C138.018,186 139.463,186.776 140.537,188.417 C142.704,191.724 142.511,192.055 129,208.103 C124.188,213.819 119.05,218.944 115,222.066 C103.49,230.939 97.049,235 94.485,235 C93.686,235 91.562,233.677 89.766,232.061 C86.56,229.176 86.537,229.094 88.5,227.593 C89.6,226.752 91.077,226.049 91.783,226.032 C98.184,225.873 119.467,206.801 128.366,193.25 Z M155.847,123.695 C152.469,126.526 149.788,127.97 140.295,132.068 C134.755,134.46 134.771,134.433 133.423,144.259 C132.754,149.136 133.9,152 136.521,152 C137.223,152 141.17,148.85 145.293,145 C153.379,137.448 156.594,136.335 159.732,140 C160.674,141.1 161.81,142 162.257,142 C162.704,142 162.942,137.393 162.785,131.762 C162.458,119.997 161.537,118.927 155.847,123.695 Z M158.134,92.5 C156.444,94.425 154.412,96 153.618,96 C152.824,96 149.482,98.25 146.191,101 C142.9,103.75 139.309,106 138.211,106 C135.646,106 135,107.81 135,114.998 C135,118.765 135.443,120.989 136.25,121.273 C138.325,122.003 142.239,120.091 147.179,115.936 C149.753,113.771 152.157,112 152.522,112 C152.886,112 154.329,111.1 155.727,110 C157.126,108.9 159.093,108 160.1,108 C163.563,108 164.457,103.914 163.328,93.25 C163.08,90.912 162.502,89 162.042,89 C161.583,89 159.824,90.575 158.134,92.5 Z M153.25,69.746 C152.563,69.977 152,70.571 152,71.066 C152,72.687 143.382,81 141.701,81 C140.799,81 139.062,79.65 137.842,78 C134.181,73.048 133.042,74.055 133.601,81.75 C134.371,92.362 135.025,95 136.888,95 C137.802,95 141.659,91.803 145.46,87.896 L152.372,80.792 L157.186,81.43 C162.883,82.186 163.251,81.224 159.863,74.44 C157.787,70.283 155.815,68.883 153.25,69.746 Z M78.5,155.892 C73.626,158.145 64.742,168.164 65.611,170.429 C65.943,171.293 66.57,172 67.004,172 C67.439,172 67.729,173.446 67.647,175.214 C67.434,179.857 69.789,179.815 75.796,175.067 C80.854,171.069 82.595,168.286 84.995,160.357 C86.984,153.788 85.404,152.702 78.5,155.892 Z"/>
</svg>

