<svg xmlns="http://www.w3.org/2000/svg" width="300" height="300" viewBox="0 0 300 300" version="1.1">
  <defs/>
  <path d="M136.264,114.403 C138.594,113.775 142.627,113.202 145.227,113.131 C150.442,112.987 151.568,114.018 154.092,121.249 C155.111,124.167 155.135,125.265 154.201,126.199 C153.54,126.86 153,128.125 153,129.012 C153,131.025 149.366,138.656 148.007,139.495 C146.152,140.642 146.974,142.878 149.738,144.203 C153.79,146.145 153.542,147.982 148.522,153.214 C146.035,155.806 144,158.315 144,158.789 C144,159.263 142.83,160.742 141.401,162.076 C138.589,164.699 133.651,173.626 134.369,174.789 C134.612,175.181 135.078,181.352 135.405,188.501 C136.702,216.886 137.511,221.338 142.163,225.683 C146.958,230.163 148.868,230.395 182,230.523 C199.325,230.59 217.674,231.009 222.776,231.454 C231.081,232.177 232.267,232.068 234.097,230.412 C236.035,228.659 236.109,227.808 235.531,214.031 C234.209,182.53 232.953,161.165 232.012,154.134 C231.47,150.082 231.238,146.424 231.497,146.005 C231.756,145.586 231.233,143.77 230.335,141.97 C228.486,138.263 229.45,135.5 232.592,135.5 C233.933,135.5 234.666,136.495 235.169,139 C235.555,140.925 236.624,145.2 237.545,148.5 C239.269,154.683 240.542,163.923 241.47,177 C242.93,197.557 244.205,207.231 246.015,211.5 C247.239,214.384 248.116,219.548 248.67,227.127 C249.13,233.421 248.999,233.931 246.072,237.265 L242.99,240.776 L200.245,240.358 C146.525,239.833 144.367,239.678 138.754,235.961 C133.134,232.238 129.376,226.406 127.976,219.233 C127.36,216.08 126.677,203.375 126.457,191 C126.238,178.625 125.617,166.25 125.078,163.5 C124.538,160.75 123.631,154.185 123.061,148.912 C122.492,143.638 121.345,137.394 120.513,135.036 C118.849,130.321 118.554,124.253 119.885,122.152 C121.118,120.206 124.259,121.134 125.609,123.843 C126.247,125.122 127.27,126.67 127.884,127.284 C128.498,127.898 129,129.69 129,131.266 C129,132.842 129.435,134.944 129.966,135.936 C130.497,136.929 131.238,141.415 131.612,145.905 C132.021,150.798 132.707,153.931 133.325,153.725 C134.378,153.374 134.746,152.77 137.119,147.5 C137.863,145.85 139.715,142.425 141.235,139.889 C143.202,136.609 144,133.931 144,130.608 C144,125.002 142.91,124.352 136.95,126.405 C131.783,128.185 130.355,127.412 129.399,122.313 C128.589,117.995 130.315,116.005 136.264,114.403 Z M79.5,122.95 C86.943,119.887 93.325,124.749 94.531,134.4 C95.422,141.536 93.494,161.144 91.527,164.948 C90.687,166.572 90,168.811 90,169.925 C90,171.111 88.862,172.555 87.25,173.414 C85.737,174.22 82.475,177.392 80,180.463 C77.525,183.534 74.037,186.921 72.25,187.989 C70.463,189.058 69,190.758 69,191.766 C69,192.775 68.585,194.028 68.078,194.55 C67.571,195.073 66.929,198.65 66.652,202.5 C66.375,206.35 65.841,211.188 65.465,213.25 C64.999,215.804 65.148,217 65.93,217 C67.248,217 79.451,206.026 85.75,199.176 C88.621,196.055 90,193.653 90,191.777 C90,188.506 93.138,185 96.066,185 C98.651,185 102,186.74 102,188.084 C102,188.641 103.8,191.807 106,195.119 C108.2,198.431 110,201.351 110,201.607 C110,201.863 112.304,205.079 115.12,208.753 C122.117,217.882 122.771,219.49 120.504,221.996 C116.962,225.91 116.363,225.478 104.928,210.75 C101.618,206.488 98.215,203 97.366,203 C96.517,203 92.199,206.825 87.771,211.5 C83.343,216.175 79.344,220 78.884,220 C78.424,220 74.999,222.045 71.274,224.543 C62.361,230.521 60.487,230.941 57.235,227.689 C54.667,225.122 54.663,225.092 55.949,217.807 C56.658,213.788 57.643,209.727 58.137,208.782 C58.632,207.837 59.554,197.323 60.188,185.418 C61.113,168.013 61.089,163.372 60.062,161.727 C59.359,160.602 58.622,156.394 58.424,152.376 C58.104,145.885 58.295,144.907 60.14,143.614 C61.286,142.812 61.902,141.65 61.514,141.023 C60.168,138.845 62.037,135.033 65.264,133.372 C67.044,132.456 70.525,129.922 73,127.74 C75.475,125.558 78.4,123.403 79.5,122.95 Z M75.139,25.332 C76.883,23.231 81.681,23.706 83.392,26.149 C84.971,28.404 84.74,39.306 83.024,43.5 C81.897,46.254 78.02,58.002 77.331,60.75 C76.795,62.887 77.054,63 82.501,63 C87.829,63 88.511,63.275 92.118,66.882 C95.216,69.981 96,71.505 96,74.432 C96,80.258 92.84,85 88.957,85 C88.473,85 87.57,83.088 86.949,80.75 C85.75,76.234 82.535,72 80.304,72 C79.563,72 78.439,70.863 77.806,69.474 C76.424,66.44 74.627,66.738 74.165,70.078 C73.981,71.41 73.419,72.927 72.915,73.45 C72.412,73.972 71.997,75.547 71.994,76.95 C71.99,78.352 71.408,80.625 70.7,82 C69.991,83.375 68.839,87.2 68.139,90.5 C67.439,93.8 66.221,97.774 65.433,99.331 C63.643,102.868 63.586,106 65.313,106 C66.035,106 67.948,104.61 69.563,102.911 C71.178,101.212 73.798,99.144 75.384,98.316 C78.038,96.93 78.477,96.967 80.884,98.783 C83.19,100.522 83.458,101.332 83.148,105.628 C82.702,111.791 82.553,112 78.632,112 C76.845,112 74.509,112.661 73.441,113.468 C72.374,114.276 70.86,114.951 70.079,114.968 C68.005,115.015 65,111.983 65,109.845 C65,108.83 64.605,108 64.122,108 C62.539,108 61.349,110.413 60.127,116.102 C59.465,119.183 57.59,124.272 55.961,127.412 C54.333,130.551 53,134.022 53,135.126 C53,136.229 52.517,138.034 51.926,139.138 C51.335,140.242 49.494,145.685 47.834,151.234 C44.747,161.552 44.55,162.082 41.669,167.831 C40.751,169.663 40,171.821 40,172.627 C40,173.432 38.875,176.205 37.5,178.788 C36.125,181.371 35,184.062 35,184.769 C35,185.476 33.486,189.08 31.635,192.777 C25.344,205.347 23,210.526 23,211.857 C23,212.587 22.1,214.329 21,215.727 C19.9,217.126 19,218.893 19,219.655 C19,221.333 14.682,228.318 11.966,231.034 C9.64,233.36 6.446,233.604 5.645,231.518 C5.332,230.702 5.737,228.115 6.544,225.768 C8.355,220.501 16.225,204.622 17.25,204.167 C17.663,203.983 18,202.821 18,201.584 C18,200.346 19.8,195.917 22,191.742 C24.2,187.566 26,183.306 26,182.275 C26,181.244 26.378,179.973 26.84,179.45 C27.302,178.928 28.264,176.925 28.979,175 C29.694,173.075 31.297,169.25 32.542,166.5 C33.787,163.75 36.022,158.125 37.51,154 C38.998,149.875 41.241,143.8 42.495,140.5 C43.749,137.2 45.329,132.7 46.005,130.5 C46.682,128.3 48.278,123.575 49.554,120 C50.829,116.425 52.403,111.475 53.052,109 C53.701,106.525 54.81,103.15 55.517,101.5 C56.224,99.85 57.56,95.125 58.487,91 C59.413,86.875 61.07,80.575 62.168,77 C65.752,65.328 66,64.381 66,62.37 C66,61.277 66.661,59.509 67.468,58.441 C68.276,57.374 68.951,55.481 68.968,54.236 C68.986,52.991 69.404,51.191 69.898,50.236 C70.392,49.281 71.525,43.587 72.415,37.582 C73.306,31.577 74.532,26.064 75.139,25.332 Z M128.152,37.317 C130.847,34.069 137,37.411 137,42.122 C137,43.777 137.468,46.006 138.04,47.074 C138.611,48.143 139.118,53.738 139.165,59.508 C139.266,71.828 139.661,72.144 147.14,65.883 C151.511,62.223 152.775,61.707 158.499,61.248 C166.148,60.634 168.321,61.723 172.855,68.441 C177.884,75.892 179.164,81.122 179.721,96.5 C180,104.2 180.544,111.175 180.931,112 C181.318,112.825 181.312,118 180.917,123.5 C180.523,129 180.149,140.025 180.085,148 C180.016,156.8 179.398,164.93 178.513,168.68 C177.711,172.08 177.116,176.464 177.19,178.423 C177.347,182.622 174.759,186 171.382,186 C166.69,186 155.275,174.618 155.073,169.736 C155.033,168.766 154.449,167.09 153.775,166.011 C152.111,163.346 153.966,161.524 157.452,162.398 C159.132,162.82 161.142,164.825 163.142,168.076 C165.143,171.329 166.81,172.991 167.867,172.789 C169.234,172.528 169.641,170.199 170.367,158.489 C171.555,139.305 171.689,103.31 170.611,93 C170.122,88.325 169.058,83.15 168.247,81.5 C165.958,76.845 161.875,73 159.221,73 C155.041,73 147.195,79.982 140.758,89.429 C138.911,92.141 136.18,95.27 134.689,96.383 C132.241,98.211 131.828,98.257 130.429,96.857 C128.614,95.043 128.519,92.869 129.495,75.5 C130.039,65.797 129.823,59.473 128.641,50.567 C127.489,41.881 127.356,38.276 128.152,37.317 Z M74.5,140.642 C68.547,145.145 67.381,147.135 67.118,153.25 C66.955,157.047 68.343,156.716 74.448,151.5 C77.345,149.025 80.4,147 81.235,147 C83.741,147 85.148,144.373 84.815,140.32 C84.375,134.977 81.887,135.055 74.5,140.642 Z M76.007,163.493 C74.145,165.414 71.781,167.252 70.753,167.578 C67.973,168.461 68.761,173.395 71.75,173.82 C72.987,173.995 74,173.721 74,173.21 C74,172.7 75.8,170.237 78,167.737 C84.401,160.466 82.619,156.671 76.007,163.493 Z"/>
</svg>

