<svg xmlns="http://www.w3.org/2000/svg" width="300" height="300" viewBox="0 0 300 300" version="1.1">
  <defs/>
  <path d="M178.5,50.433 C182.982,47.743 185.038,47.438 186.8,49.2 C189.106,51.506 187.958,53.925 182.408,58.445 C179.333,60.95 176.476,63 176.06,63 C175.644,63 174.582,64.688 173.701,66.75 C172.82,68.813 171.026,72.3 169.714,74.5 C168.402,76.7 166.509,81.2 165.508,84.5 C164.506,87.8 163.307,90.927 162.843,91.45 C162.379,91.972 162,93.195 162,94.166 C162,95.951 160.38,100.185 156.898,107.5 C154.738,112.039 154.473,116.147 156.14,119.261 C156.766,120.432 157.36,125.465 157.458,130.445 C157.695,142.523 158.912,150 160.639,150 C161.388,150 162,149.418 162,148.707 C162,146.373 173.977,134.955 177.075,134.335 C180.448,133.66 180.768,131.793 178.582,125.513 C176.421,119.303 174.735,118.876 170.131,123.372 C165.463,127.93 162,127.796 162,123.058 C162,117.172 163.228,113.864 165.771,112.897 C167.141,112.376 169.541,111.039 171.105,109.925 C173.223,108.417 174.808,108.061 177.316,108.531 C181.2,109.26 186,113.006 186,115.307 C186,116.173 186.45,117.16 187,117.5 C187.55,117.84 188,119.199 188,120.52 C188,121.842 188.943,126.877 190.096,131.711 C191.771,138.734 192.286,144.821 192.657,162 C192.913,173.825 193.544,183.928 194.061,184.45 C194.577,184.973 195,186.899 195,188.732 C195,190.565 195.675,193.68 196.5,195.654 C197.325,197.629 198,199.605 198,200.045 C198,201.636 192.786,207 191.24,207 C188.815,207 186,203.962 186,201.345 C186,200.055 185.438,199.018 184.75,199.039 C183.209,199.087 175.484,203.799 165.55,210.75 C159.185,215.204 157.361,216 153.523,216 C149.359,216 149,215.801 149,213.486 C149,212.104 148.463,210.112 147.806,209.061 C146.88,207.578 146.88,206.559 147.806,204.527 C148.661,202.65 148.996,191.776 148.985,166.203 C148.973,138.139 149.001,131.472 147.006,125.478 C146.345,123.495 145.464,121.586 144.286,119 C142.334,114.715 142.319,114.405 143.974,112.5 C147.17,108.821 151.053,99.704 155.045,86.5 C155.711,84.3 156.873,81.306 157.627,79.846 C159.193,76.818 159.395,74.362 158.141,73.587 C157.668,73.295 153.84,74.236 149.635,75.678 C142.241,78.213 141.923,78.24 139.994,76.495 C137.332,74.086 137.452,70.392 140.25,68.626 C141.488,67.845 145.551,66.194 149.281,64.958 C153.01,63.721 156.299,62.325 156.59,61.855 C156.88,61.385 157.732,61 158.482,61 C159.752,61 169.194,56.016 178.5,50.433 Z M76.2,54.2 C78.543,51.857 81.022,52.965 84.022,57.696 C85.66,60.278 87.016,63.316 87.035,64.446 C87.055,65.576 87.714,67.625 88.5,69 C89.488,70.728 89.94,74.821 89.965,82.25 C89.984,88.162 90.372,93 90.827,93 C91.282,93 93.859,90.975 96.555,88.5 C99.251,86.025 102.254,84 103.228,84 C105.345,84 109,87.425 109,89.41 C109,91.4 97.154,103.433 93.25,105.408 L90,107.051 L90,115.026 C90,119.412 90.176,123 90.391,123 C90.606,123 92.743,122.11 95.141,121.022 C102.717,117.584 111.376,118.973 109.694,123.356 C109.124,124.84 101.415,129.458 97.738,130.518 C96.507,130.873 93.138,132.325 90.25,133.745 C85.277,136.191 83.629,138.376 86.13,139.21 C86.752,139.417 87.367,141.367 87.498,143.543 C87.628,145.72 88.312,151.55 89.016,156.5 C91.494,173.92 87.563,192.622 81.602,191.771 C78.393,191.313 77.462,188.66 78.94,184.183 C79.931,181.179 80.086,176.512 79.565,165.345 C78.546,143.52 78.378,141.045 77.88,140.547 C77.631,140.298 74.969,141.334 71.964,142.849 C68.959,144.365 63.413,146.694 59.64,148.026 L52.781,150.447 L50.89,148.113 C49.851,146.829 49,145.357 49,144.841 C49,142.958 53.875,139.466 58.338,138.152 C60.857,137.41 63.493,136.111 64.196,135.264 C65.697,133.456 65.987,118.559 64.581,115.5 C62.846,111.726 61.211,104.613 61.754,103.2 C62.547,101.131 69.08,102.425 71.25,105.08 C72.213,106.258 73,108.72 73,110.552 C73,112.383 73.505,114.194 74.123,114.576 C74.862,115.033 75.084,117.788 74.773,122.635 C74.332,129.515 74.434,130 76.321,130 C77.433,130 79.165,129.255 80.171,128.345 C81.809,126.863 81.998,124.901 81.98,109.595 C81.968,99.006 81.405,89.455 80.5,84.5 C79.696,80.1 78.548,73.35 77.947,69.5 C77.347,65.65 76.438,61.719 75.928,60.764 C74.652,58.376 74.766,55.634 76.2,54.2 Z M104.348,158.246 C105.493,156.393 108.393,156.735 111.365,159.073 C115.763,162.532 114.655,170.929 107.879,185.5 C104.422,192.935 103.762,194.02 91.787,211.953 C81.302,227.654 79.67,229.587 59.574,250.1 C45.43,264.538 42.427,266.388 38.082,263.345 C35.891,261.81 35.934,261.74 43.772,254.149 C48.116,249.942 54.983,242.675 59.031,238 C63.08,233.325 66.874,229.05 67.464,228.5 C69.387,226.705 79.561,212.731 86.757,202 C95.069,189.605 100.416,178.993 101.424,172.895 C101.823,170.478 102.471,166.473 102.864,163.996 C103.257,161.518 103.925,158.931 104.348,158.246 Z M188.667,234.667 C189.033,234.3 189.769,234 190.301,234 C192.598,234 199.716,236.511 202.154,238.181 C203.614,239.182 205.232,240 205.749,240 C206.267,240 207.505,240.9 208.5,242 C209.495,243.1 210.858,244 211.528,244 C212.199,244 214.941,245.589 217.623,247.531 C220.306,249.473 229.935,255.928 239.023,261.875 C248.11,267.823 256.21,273.325 257.023,274.102 C257.835,274.88 259.455,276.187 260.622,277.008 C270.549,283.987 285,297.023 285,298.999 C285,299.584 281.672,300 277,300 C269.243,300 269,299.928 269,297.622 C269,296.314 268.168,294.627 267.152,293.872 C266.135,293.117 260.914,289.125 255.55,285 C242.991,275.343 233.821,269 232.419,269 C231.809,269 230.453,268.038 229.405,266.862 C228.357,265.686 226.15,264.103 224.5,263.344 C222.85,262.585 218.8,260.189 215.5,258.019 C212.2,255.85 208.476,253.615 207.224,253.053 C205.973,252.49 204.687,251.348 204.367,250.515 C204.048,249.682 203.081,249 202.22,249 C201.359,249 197.807,247.114 194.327,244.81 C189.21,241.421 188,240.114 188,237.977 C188,236.523 188.3,235.033 188.667,234.667 Z M149.886,242.25 C156.903,233.153 159.6,231.934 162.594,236.504 C164.189,238.937 164.12,239.16 160.117,244.461 C157.853,247.46 156,250.18 156,250.505 C156,250.83 154.875,252.138 153.5,253.412 C152.125,254.687 151,255.988 151,256.305 C151,257.526 137.628,271 136.416,271 C135.713,271 133.014,273.242 130.419,275.983 C127.255,279.324 124.594,281.173 122.34,281.596 C120.491,281.943 118.747,282.6 118.466,283.055 C117.586,284.479 111.669,281.337 110.798,278.983 C109.702,276.021 111.634,273.691 114.574,274.429 C119.145,275.576 136.087,260.137 149.886,242.25 Z M174.492,176.089 C169.769,180.715 165.707,184.683 165.464,184.906 C165.221,185.129 163.33,185.585 161.261,185.919 C157.509,186.525 157.498,186.541 156.744,192.513 C155.391,203.227 155.399,203.425 157.202,203.787 C158.753,204.098 165.545,200.093 173.734,194.039 C176.004,192.36 178.192,191.701 181.336,191.749 L185.751,191.816 L185.256,180.658 C184.985,174.521 184.383,169.09 183.92,168.589 C183.434,168.064 179.44,171.241 174.492,176.089 Z M175.899,148.278 C168.366,155.191 165.61,157.081 163.5,156.783 C162.283,156.611 161.372,155.596 161.173,154.192 C160.511,149.522 158.749,152.783 158.284,159.54 C157.279,174.132 157.309,174.473 159.624,174.803 C161.091,175.012 163.703,173.245 168.074,169.086 C171.554,165.774 176.336,162.039 178.7,160.784 L183,158.503 L183,151.252 C183,142.613 182.364,142.346 175.899,148.278 Z M50.75,177.572 C56.858,174.258 61.042,176.571 59.087,182.179 C58.605,183.561 58.318,184.383 58.515,185.066 C58.807,186.072 60.154,186.773 63.491,188.512 C66.141,189.894 66.559,192.63 64.304,193.837 C61.334,195.427 53.315,194.021 50.506,191.418 C48.473,189.534 48,188.149 48,184.08 C48,179.636 48.314,178.894 50.75,177.572 Z"/>
</svg>

