<svg xmlns="http://www.w3.org/2000/svg" width="300" height="300" viewBox="0 0 300 300" version="1.1">
  <defs/>
  <path d="M79.839,112.517 C81.853,111.197 84.408,110.091 85.518,110.059 C88.554,109.97 94.889,114.709 95.618,117.613 C96.539,121.284 94.365,144.442 92.875,146.828 C91.972,148.275 91.907,149.477 92.644,151.129 C94.82,156.004 89.474,164.713 81.974,168.513 C76.523,171.276 75,173.353 75,178.03 C75,179.769 74.364,182.386 73.587,183.846 C72.81,185.306 71.5,190.2 70.675,194.722 C69.849,199.244 68.46,204.376 67.587,206.126 C65.569,210.172 65.574,210.201 68.205,209.82 C69.44,209.641 71.852,207.519 73.686,205 C75.487,202.525 78.446,198.475 80.26,196 C82.075,193.525 84.372,189.025 85.364,186 C90.266,171.067 93.523,168.864 100.876,175.507 C104.346,178.642 108.683,186.35 114.524,199.765 C115.306,201.56 116.614,204.485 117.431,206.265 C122.839,218.047 125,223.217 125,224.37 C125,225.095 123.909,226.958 122.576,228.509 C120.294,231.165 120.016,231.241 117.818,229.8 C116.533,228.959 114.871,226.972 114.125,225.385 C113.378,223.798 112.369,221.719 111.883,220.764 C111.397,219.809 111,218.382 111,217.595 C111,216.807 110.39,214.888 109.643,213.331 C103.909,201.365 98.519,190.725 97.453,189.267 C96.25,187.621 96.067,187.629 94.09,189.418 C92.941,190.459 92,192.162 92,193.203 C92,200.056 67.224,228 61.148,228 C57.076,228 53.071,218.344 55.943,215.45 C56.835,214.551 57.764,211.374 60.168,201 C60.741,198.525 61.613,196.072 62.105,195.55 C62.597,195.027 63,193.407 63,191.949 C63,190.491 63.506,187.847 64.124,186.073 C64.957,183.686 64.957,182.557 64.124,181.724 C62.547,180.147 62.722,174.476 64.389,173.092 C65.153,172.458 66.02,170.715 66.314,169.219 C66.952,165.984 65.237,151.008 64.06,149.532 C63.607,148.964 62.963,146.7 62.629,144.5 C62.294,142.3 61.735,138.613 61.387,136.307 C60.864,132.849 61.168,131.554 63.126,128.91 C66.742,124.028 75.738,115.205 79.839,112.517 Z M203.581,75.869 C203.876,75.391 206.34,75 209.056,75 C213.325,75 214.536,75.49 217.997,78.616 C220.199,80.605 222,82.786 222,83.463 C222,84.139 222.787,86.224 223.75,88.096 C225.28,91.072 225.495,94.578 225.459,116 C225.437,129.475 225.067,146.8 224.636,154.5 C222.775,187.775 221.848,198.976 220.331,206.5 C219.443,210.9 218.576,215.85 218.403,217.5 C217.754,223.704 216.733,226.931 214.895,228.595 C213.853,229.538 213,230.778 213,231.35 C213,233.37 207.595,238 205.236,238 C199.117,238 185.943,224.542 184.492,216.81 C183.26,210.242 189.217,208.847 192.162,215.013 C194.583,220.08 200.579,226.228 202.702,225.819 C203.682,225.63 205.088,224.217 205.825,222.678 C208.283,217.55 211.187,201.677 212.627,185.5 C213.411,176.7 214.523,164.775 215.1,159 C216.697,143.003 216.806,97.409 215.25,95.852 C214.563,95.163 214,93.635 214,92.455 C214,89.254 210.623,86.657 207.289,87.295 C200.625,88.568 195.353,90.412 193.436,92.14 C192.3,93.163 190.682,94 189.839,94 C183.68,94 156.626,114.829 154.585,121.142 C153.284,125.167 149.699,125.9 149.18,122.247 C148.452,117.12 155.376,101 158.306,101 C158.83,101 160.96,99.537 163.041,97.75 C168.923,92.697 174.203,89 175.539,89 C176.208,89 177.328,88.31 178.028,87.467 C179.936,85.168 194.85,78.048 199.221,77.349 C201.324,77.012 203.286,76.346 203.581,75.869 Z M75,22.886 C75,21.129 75.568,20.927 79.75,21.195 C84.44,21.496 84.504,21.547 84.807,25.192 C85.003,27.551 84.226,30.799 82.653,34.192 C80.299,39.271 79.156,43.994 78.707,50.5 C78.515,53.278 78.823,53.572 82.865,54.466 C88.027,55.608 95.718,61.859 94.682,64.07 C94.314,64.857 93.489,66.4 92.849,67.5 C92.208,68.6 91.372,70.175 90.99,71 C90.608,71.825 89.32,72.645 88.127,72.822 C86.45,73.072 85.62,72.335 84.466,69.572 C83.645,67.608 82.374,66 81.642,66 C80.909,66 79.495,65.1 78.5,64 C75.989,61.225 74.137,61.502 73.491,64.75 C73.189,66.263 72.463,68.85 71.876,70.5 C71.289,72.15 70.419,75.3 69.944,77.5 C69.469,79.7 68.153,83.891 67.02,86.813 C64.161,94.189 65.771,96.32 70.575,91.516 C78.116,83.975 85.561,81.874 88.554,86.442 C91.563,91.035 90.247,92.866 80.094,98.22 C71.741,102.625 70.216,103.109 66.469,102.548 C62.644,101.974 62.2,102.129 61.722,104.207 C60.487,109.582 56.738,121.769 55.326,125 C52.445,131.592 52.154,132.508 51.53,136.974 C51.186,139.435 50.293,142.135 49.545,142.974 C48.798,143.813 47.648,146.521 46.99,148.991 C46.332,151.461 44.94,154.68 43.897,156.145 C42.853,157.61 42,159.516 42,160.38 C42,161.245 41.102,163.425 40.004,165.226 C38.906,167.027 38.006,169.192 38.004,170.039 C38.002,170.885 37.1,173.342 36,175.5 C34.9,177.658 34,180.201 34,181.152 C34,182.104 33.55,183.16 33,183.5 C32.45,183.84 31.978,184.879 31.952,185.809 C31.899,187.686 29.829,191.727 25.908,197.61 C21.837,203.717 17,212.757 17,214.256 C17,215.006 14.974,218.068 12.497,221.06 C5.253,229.811 4.961,230.049 2.864,228.927 C0.24,227.523 0.548,223.773 3.517,220.984 C4.902,219.683 7.748,215.217 9.842,211.059 C11.937,206.902 15.925,199 18.705,193.5 C25.135,180.778 30,170.526 30,169.696 C30,169.341 31.278,166.226 32.841,162.775 C34.403,159.324 36.519,154.025 37.542,151 C38.566,147.975 39.763,145.072 40.202,144.55 C40.641,144.027 41,142.738 41,141.684 C41,139.468 42.578,134.371 48.643,117 C51.043,110.125 53.006,103.865 53.004,103.088 C52.999,101.474 55.055,94.286 59.033,82 C64.219,65.985 65.286,62.495 66.066,59 C66.496,57.075 67.972,51 69.346,45.5 C70.721,40 72.157,33.357 72.538,30.738 C72.919,28.118 73.629,25.729 74.115,25.429 C74.602,25.128 75,23.984 75,22.886 Z M166.074,124.411 C168.069,122.008 171.687,122.752 174.034,126.048 C176.136,129 176.283,129.045 178.688,127.468 C180.167,126.5 183.57,125.772 187.095,125.67 C192.542,125.514 193.221,125.741 195.556,128.5 C197.992,131.379 198.072,131.889 197.549,141.147 C196.993,150.982 195.548,155.477 190.203,164 C186.734,169.531 187.601,172 193.014,172 C194.032,172 195.173,172.971 195.55,174.157 C196.399,176.834 192.796,179.945 188.809,179.978 C187.329,179.99 185.84,180.45 185.5,181 C185.16,181.55 184.067,182 183.07,182 C182.074,182 178.048,183.418 174.125,185.151 C167.212,188.204 166.929,188.246 164.995,186.496 C161.993,183.779 162.566,181.093 167.029,176.973 L171.058,173.254 L170.393,163.377 C170.027,157.945 169.328,152.722 168.84,151.771 C168.351,150.819 168.22,148.971 168.548,147.663 C168.92,146.181 168.139,142.895 166.475,138.94 C163.726,132.409 163.588,127.406 166.074,124.411 Z M130.667,90.667 C133.346,87.988 140,92.794 140,97.408 C140,98.584 141.059,103.811 142.353,109.023 C147.155,128.359 149.068,154.73 147.659,182.172 C146.862,197.699 145.047,209.151 143.29,209.737 C141.446,210.351 139.003,206.975 138.908,203.679 C138.858,201.93 138.676,188.125 138.504,173 C138.333,157.875 137.953,143.025 137.66,140 C136.04,123.275 133.465,109.898 130.876,104.764 C129.853,102.736 129.689,91.644 130.667,90.667 Z M165,48 C172.585,41.076 175.701,40.368 178.888,44.843 L180.912,47.685 L178.706,50.829 C176.687,53.706 162.892,64 161.055,64 C160.623,64 159.082,64.934 157.63,66.076 C156.179,67.218 152.856,68.908 150.246,69.831 C147.635,70.754 143.872,72.52 141.882,73.755 C137.474,76.49 136.782,76.521 134.575,74.082 C131.78,70.994 132.952,67.939 137.941,65.307 C140.383,64.019 143.119,62.297 144.02,61.482 C144.92,60.667 146.162,60 146.779,60 C147.395,60 149.9,58.65 152.345,57 C154.79,55.35 157.175,53.985 157.645,53.967 C158.115,53.948 161.425,51.263 165,48 Z M180.605,139.48 C179.287,141.491 179.004,143.676 179.325,149.348 C179.553,153.355 179.416,158.757 179.022,161.352 C178.157,167.057 179.317,168.131 182.29,164.378 C184.737,161.29 188.29,151.278 187.431,149.889 C187.131,149.402 187.692,147.638 188.678,145.968 C190.309,143.207 190.334,142.685 188.954,140.216 C186.845,136.44 182.829,136.086 180.605,139.48 Z M77.946,127.894 C72.627,133.148 72,134.194 72,137.824 C72,140.056 72.476,142.176 73.058,142.536 C73.639,142.895 75.88,142.022 78.036,140.595 C80.193,139.168 82.631,138 83.456,138 C86.09,138 87.706,133.875 87.246,128.322 C86.637,120.973 85.029,120.899 77.946,127.894 Z M78.131,153.067 C74.771,155.11 74.081,157.992 76.475,159.979 C77.683,160.982 78.498,160.656 80.975,158.179 C86.084,153.069 84.072,149.453 78.131,153.067 Z"/>
</svg>

