<svg xmlns="http://www.w3.org/2000/svg" width="300" height="300" viewBox="0 0 300 300" version="1.1">
  <defs/>
  <path d="M173.5,122.885 C186.398,121.112 192.421,124.515 198.816,137.188 C204.195,147.846 205.156,156.272 202.68,171.061 C201.811,176.253 200.819,183.425 200.477,187 C200.135,190.575 199.491,194.4 199.047,195.5 C198.603,196.6 197.433,199.432 196.448,201.793 C194.348,206.827 195.174,208.268 201,209.734 C203.756,210.428 204.566,211.176 204.811,213.251 C205.059,215.353 204.477,216.219 201.933,217.535 C200.178,218.442 197.612,218.968 196.229,218.704 C194.344,218.343 192.273,219.343 187.948,222.702 C181.023,228.08 178.633,228.089 178.19,222.742 L177.879,219 L172.69,219.015 C169.835,219.023 165.7,219.679 163.5,220.471 C161.3,221.264 157.505,221.932 155.066,221.956 C152.627,221.98 148.702,222.934 146.343,224.076 C143.984,225.218 141.255,225.89 140.277,225.571 C139.3,225.251 136.283,222.458 133.572,219.364 C128.885,214.013 128.627,213.416 128.284,207.119 C127.974,201.405 127.015,194.1 123.087,167.5 C122.68,164.75 121.371,160.925 120.178,159 C118.984,157.075 118.006,154.578 118.004,153.45 C118.002,152.323 117.585,150.973 117.078,150.45 C116.571,149.928 115.853,147.851 115.483,145.835 C114.887,142.591 115.12,141.967 117.52,140.395 C119.956,138.799 120.496,138.768 122.853,140.091 C124.622,141.084 125.666,142.694 126.059,145.032 C126.38,146.939 127.473,150.075 128.489,152 C129.504,153.925 130.615,156.85 130.958,158.5 C131.482,161.017 132.058,161.5 134.541,161.5 C137.218,161.5 137.562,161.118 138.153,157.5 C139.785,147.496 140.517,145.266 143.316,141.77 C146.011,138.404 158.976,128.76 165.813,125.036 C167.291,124.231 170.75,123.263 173.5,122.885 Z M75.5,104.657 C80.616,101.968 84.384,102.535 87.882,106.518 C89.581,108.453 91.265,111.266 91.623,112.768 C91.982,114.271 92.727,116.072 93.278,116.771 C95.51,119.603 93.801,147.766 91.09,152.832 C90.49,153.952 90,155.626 90,156.552 C90,157.478 88.65,159.774 87,161.653 C85.35,163.532 84,165.504 84,166.035 C84,166.566 82.45,167 80.555,167 C77.756,167 76.303,167.859 72.805,171.582 C68.821,175.823 68.445,176.699 67.758,183.332 C67.35,187.275 66.973,191.625 66.92,193 C66.867,194.375 66.464,195.95 66.025,196.5 C65.586,197.05 64.904,199.454 64.509,201.843 C63.881,205.65 64.008,206.144 65.539,205.843 C66.5,205.654 67.784,204.61 68.393,203.523 C69.002,202.435 71.918,197.742 74.873,193.093 C78.837,186.858 80.316,183.528 80.513,180.403 C80.851,175.036 81.333,174.305 85.079,173.483 C88.402,172.753 92,175.006 92,177.815 C92,178.644 94.25,182.637 97,186.69 C99.75,190.743 102,194.48 102,194.994 C102,195.508 103.214,198.083 104.698,200.715 C106.181,203.347 108.498,207.75 109.846,210.5 C111.194,213.25 113.65,216.944 115.305,218.709 C117.829,221.402 118.107,222.166 117.034,223.459 C115.381,225.45 112.566,225.417 109.442,223.37 C106.985,221.76 96,206.184 96,204.31 C96,203.778 94.608,201.241 92.906,198.671 C89.359,193.317 86.67,192.643 85.233,196.75 C84.704,198.262 82.747,201.372 80.885,203.66 C79.023,205.949 76.375,209.248 75,210.993 C73.625,212.737 72.05,214.724 71.5,215.408 C69.353,218.077 61.587,223 59.524,223 C58.328,223 56.297,221.881 55.012,220.512 C52.779,218.136 52.729,217.767 53.898,212.262 C54.571,209.093 55.737,204.25 56.489,201.5 C59.48,190.563 60.151,181.502 59.641,159 C59.36,146.625 58.828,133.811 58.459,130.524 C57.952,125.999 58.172,123.814 59.368,121.524 C60.236,119.861 61.402,117.251 61.958,115.724 C62.515,114.198 63.764,112.67 64.735,112.33 C65.706,111.989 67.85,110.478 69.5,108.972 C71.15,107.466 73.85,105.524 75.5,104.657 Z M71,23.632 C71,21.242 71.356,21 74.878,21 C80.289,21 81.152,22.424 80.005,29.467 C79.485,32.667 79.323,35.714 79.647,36.238 C79.971,36.762 79.356,38.385 78.28,39.845 C77.205,41.305 76.007,44.503 75.619,46.95 C75.23,49.398 74.54,51.873 74.086,52.45 C73.631,53.028 72.48,57.55 71.528,62.5 C70.576,67.45 69.392,71.927 68.898,72.45 C68.404,72.972 68,74.441 68,75.714 C68,76.986 67.603,78.809 67.117,79.764 C66.631,80.719 65.751,82.625 65.161,84 C64.572,85.375 63.311,88.3 62.36,90.5 C61.409,92.7 60.575,95.175 60.508,96 C60.338,98.069 59.17,102.27 56.478,110.5 C55.218,114.35 53.21,120.758 52.014,124.741 C50.818,128.723 49.425,132.237 48.92,132.55 C48.414,132.862 48,134.195 48,135.512 C48,137.683 47.498,139.308 44.917,145.5 C44.459,146.6 43.577,149.525 42.958,152 C41.049,159.628 38.736,166.407 37.337,168.473 C36.601,169.557 35.998,171.357 35.996,172.473 C35.994,173.588 35.094,175.973 33.996,177.774 C32.898,179.575 32,181.825 32.001,182.774 C32.001,183.723 30.46,187.65 28.575,191.5 C26.691,195.35 23.956,201.425 22.498,205 C21.04,208.575 19.137,212.287 18.269,213.25 C15.371,216.463 10,214.894 10,210.835 C10,209.147 14.293,200.534 16.124,198.55 C16.606,198.028 17,197.013 17,196.295 C17,195.577 18.023,192.855 19.272,190.245 C20.522,187.635 22.143,183.475 22.875,181 C23.606,178.525 24.779,175.375 25.481,174 C26.183,172.625 27.957,167.9 29.423,163.5 C32.051,155.618 33.379,152.18 35.117,148.764 C35.603,147.809 36,146.133 36,145.04 C36,143.946 37.289,139.778 38.864,135.776 C40.439,131.774 42.761,124.45 44.023,119.5 C45.286,114.55 46.697,110.072 47.159,109.55 C47.622,109.027 48.003,107.902 48.006,107.05 C48.01,106.197 48.593,104.375 49.303,103 C50.013,101.625 51.394,97.8 52.373,94.5 C53.352,91.2 54.536,87.6 55.004,86.5 C57.278,81.16 60.129,70.227 62.437,58 C63.839,50.575 65.501,41.8 66.132,38.5 C66.763,35.2 68.116,31.097 69.139,29.382 C70.163,27.667 71,25.08 71,23.632 Z M178.685,37.972 C185.86,35.704 193.061,39.853 195.138,47.452 C196.549,52.61 195.512,72.03 193.534,77.5 C192.739,79.7 192.068,83.273 192.044,85.44 C191.994,89.929 190.183,100.397 188.877,103.75 C186.405,110.093 185.649,111 182.833,111 C180.549,111 179.421,110.085 176.978,106.25 C175.315,103.638 173.681,100.253 173.347,98.729 C173.014,97.205 172.35,95.716 171.871,95.42 C171.392,95.124 171,93.82 171,92.523 C171,89.563 170.046,87 168.944,87 C168.481,87 167.356,89.588 166.443,92.75 C164.155,100.679 163.664,101.456 160.715,101.81 C158.149,102.118 158.135,102.082 158.643,96.31 C158.925,93.115 159.507,89.6 159.939,88.5 C161.74,83.907 162.945,79.189 163.584,74.228 C163.958,71.328 164.654,68.714 165.132,68.419 C165.609,68.123 166,65.459 166,62.497 C166,58.343 166.518,56.509 168.266,54.478 L170.531,51.844 L173.266,53.994 C175.344,55.629 176,57.012 176,59.762 C176,65.046 173.986,74.9 171.965,79.5 C170.283,83.33 170.284,83.529 172.002,84.18 C174.323,85.06 175.256,86.642 175.943,90.857 C176.547,94.573 179.287,97.118 180.916,95.478 C181.451,94.94 182.395,90.9 183.016,86.5 C183.636,82.1 184.614,75.575 185.189,72 C186.529,63.673 186.604,51.204 185.321,49.921 C184.043,48.643 170.879,50.498 165.804,52.672 C162.066,54.273 159,53.963 159,51.984 C159,50.554 163.122,46.79 166.664,44.985 C168.224,44.191 170.933,42.488 172.685,41.201 C174.437,39.915 177.137,38.461 178.685,37.972 Z M172.832,133.978 C169.361,135.026 165.071,138.173 165.031,139.7 C165.014,140.36 165.778,141.336 166.729,141.868 C168.231,142.709 168.418,144.229 168.15,153.418 L167.841,164 L171.035,164 C172.792,164 176.427,162.804 179.112,161.343 C183.847,158.766 184.055,158.74 185.997,160.498 C187.099,161.494 188,163.156 188,164.19 C188,166.468 185.168,171 183.745,171 C183.181,171 180.87,171.864 178.61,172.919 C176.349,173.975 173.744,175.074 172.82,175.361 C170.71,176.017 169.567,182.946 170.273,190.794 C170.556,193.932 170.344,198.655 169.803,201.288 C168.424,207.99 169.468,208.963 177.629,208.589 C181.192,208.426 184.491,207.889 184.959,207.396 C185.826,206.484 188.303,198.128 190.115,190 C193.132,176.476 195.05,150.767 193.131,149.581 C192.509,149.197 192,148.002 192,146.927 C192,145.852 191.603,144.191 191.117,143.236 C190.631,142.281 189.637,140.229 188.908,138.676 C186.736,134.047 179.553,131.948 172.832,133.978 Z M152.926,147.529 C151.535,148.92 148.879,150.832 147.023,151.779 C145.168,152.725 143.184,154.4 142.615,155.5 C142.046,156.6 140.775,158.719 139.79,160.21 C138.806,161.7 138,163.623 138,164.484 C138,165.345 136.829,166.495 135.398,167.039 C133.44,167.783 132.982,168.457 133.545,169.764 C133.957,170.719 134.449,174.425 134.64,178 C135.349,191.282 137.328,206.558 138.575,208.374 C139.564,209.814 139.594,210.677 138.706,212.099 C137.862,213.451 137.848,214.248 138.656,215.056 C139.464,215.864 140.939,215.586 144.131,214.025 C146.534,212.85 150.634,211.626 153.242,211.306 C155.851,210.985 158.493,210.11 159.115,209.361 C160.351,207.872 162.265,184.855 161.351,182.473 C160.603,180.524 156.109,180.591 153.906,182.585 C152.943,183.456 150.365,184.41 148.176,184.703 C144.82,185.153 144.017,184.9 143.043,183.081 C141.299,179.821 142.669,177.252 147.311,175.079 C150.739,173.475 155.226,170.995 157.987,169.18 C158.255,169.003 158.503,163.491 158.538,156.93 C158.609,143.704 157.914,142.541 152.926,147.529 Z M126.323,45.25 C129.514,42.713 130.323,42.568 133.066,44.035 C136.679,45.969 134.525,52.135 128.167,58.059 C126.417,59.689 126.25,61.331 126.29,76.425 C126.33,91.738 126.472,93 128.144,93 C131.262,93 132.743,89.712 135.461,76.75 C136.148,73.478 138.704,73.13 142.064,75.851 C144.224,77.599 144.374,78.54 144.783,92.852 C145.021,101.184 144.934,109.126 144.589,110.501 C143.316,115.574 138.608,112.556 137.492,105.95 C136.526,100.233 134.625,99.97 129.638,104.865 C126.053,108.383 124.799,109 121.235,109 C117.85,109 116.726,108.511 115.378,106.454 C113.706,103.902 113.878,102.339 116.753,94 C117.037,93.175 117.448,86.275 117.665,78.666 C118.034,65.717 117.916,64.597 115.817,61.166 C114.584,59.15 112.971,56.88 112.232,56.123 C111.105,54.968 111.248,54.365 113.119,52.373 C114.345,51.068 116.176,50 117.188,50 C119.313,50 122.304,48.445 126.323,45.25 Z M79.035,53.934 C80.211,51.738 82.306,51.514 86.851,53.098 C89.399,53.986 90,54.745 90,57.074 C90,58.657 90.898,61.425 91.996,63.226 C95.914,69.651 93.629,76.877 88.116,75.493 C85.246,74.773 83.95,73.295 84.631,71.519 C84.876,70.88 83.49,68.814 81.549,66.928 C78.734,64.193 78.019,62.729 78.011,59.684 C78.005,57.586 78.466,54.998 79.035,53.934 Z M73.254,119.327 L68.007,123.5 L68.004,129.75 C68.001,134.51 68.342,136 69.433,136 C70.221,136 71.128,135.171 71.45,134.158 C71.771,133.145 73.147,131.271 74.506,129.994 C76.823,127.818 77.229,127.755 80.994,128.998 C83.203,129.727 85.272,130.061 85.592,129.741 C86.376,128.957 84.046,117.824 82.769,116.25 C81.095,114.186 78.773,114.936 73.254,119.327 Z M73.475,85.041 C74.698,83.061 77.872,84.012 79.995,86.993 C81.167,88.639 81.84,90.449 81.491,91.015 C80.4,92.78 70.156,100 68.743,100 C66.475,100 65,97.759 65,94.313 C65,91.576 65.657,90.61 68.916,88.553 C71.07,87.193 73.121,85.613 73.475,85.041 Z M76.07,143.75 C70.437,149.314 69.112,151.247 68.53,154.75 C67.481,161.068 69.565,160.291 77.614,151.361 C84.661,143.544 85.807,141.806 85.93,138.75 C86.064,135.414 82.87,137.033 76.07,143.75 Z"/>
</svg>

