<svg xmlns="http://www.w3.org/2000/svg" width="300" height="300" viewBox="0 0 300 300" version="1.1">
  <defs/>
  <path d="M170.756,5.831 C171.715,5.451 173.797,5.109 175.382,5.07 C181.107,4.931 187.84,15.67 187.124,23.797 C186.964,25.61 187.407,27.786 188.109,28.632 C190.106,31.037 189.587,72.455 187.521,75.609 C185.318,78.97 185.603,81 188.277,81 C193.924,81 198,87.294 198,96.014 C198,104.597 192.945,111.783 183.096,117.203 C180.897,118.413 180,119.642 180,121.441 C180,123.258 178.939,124.683 176.25,126.477 C168.758,131.475 167.457,132.412 165,134.575 C163.625,135.785 161.375,137.101 160,137.498 C158.625,137.895 156.067,139.581 154.316,141.243 C150.564,144.803 149.123,144.501 146.484,139.599 L144.528,135.967 L149.548,131.154 C155.504,125.443 157.57,120.284 156.57,113.62 C155.736,108.059 154.873,107.41 151.278,109.643 C144.196,114.044 140.406,120.019 141.51,125.045 C142.19,128.143 140.021,130.472 137.298,129.568 C136.309,129.24 134.24,127.187 132.699,125.006 C131.159,122.824 127.435,119.404 124.423,117.405 C116.792,112.34 114.966,108.151 118.855,104.631 C121.384,102.342 126.747,104.717 132.825,110.817 C134.668,112.666 135.423,112.894 136.567,111.944 C137.355,111.29 138,110.164 138,109.442 C138,105.895 166.679,84.862 173.238,83.599 C178.67,82.553 179.636,81.557 178.065,78.621 C176.889,76.424 176.996,75.436 178.933,70.666 C180.965,65.658 181.094,64.144 180.53,51.86 C179.896,38.035 177.456,21.434 175.738,19.25 C174.294,17.414 171.045,17.728 170.218,19.783 C169.395,21.826 167.188,24.998 161.483,32.334 L157.466,37.5 L158.009,46.5 C158.307,51.45 158.184,57.935 157.736,60.911 C156.678,67.939 157.936,69.084 161.533,64.367 C165.216,59.539 171.104,54 172.553,54 C174.018,54 176.759,57.062 177.028,59 C177.636,63.37 176.901,65.138 174.066,66.127 C172.452,66.689 170.392,68.279 169.487,69.66 C168.028,71.888 167.271,72.132 162.754,71.835 C157.892,71.515 157.631,71.627 156.891,74.357 C155.316,80.161 149.919,83.017 147.053,79.564 C146.129,78.45 146.142,77.609 147.112,75.814 C149.086,72.16 148.662,31.717 146.585,25.599 C144.776,20.271 144.56,15.288 145.975,11.565 C147.113,8.573 149.887,8.225 153.535,10.615 C155.598,11.967 156,13.026 156,17.115 C156,22.687 158.137,23.897 159.772,19.25 C160.973,15.837 168.399,6.765 170.756,5.831 Z M173.933,141.302 C180.029,138.313 181.668,138.434 185.12,142.128 C187.622,144.807 187.949,145.778 187.394,148.878 C187.038,150.87 186.129,154.017 185.373,155.872 C184.618,157.727 183.998,160.202 183.996,161.372 C183.994,162.542 183.094,164.973 181.996,166.774 C180.898,168.575 180,170.657 180,171.402 C180,172.146 179.325,173.315 178.5,174 C177.675,174.685 177,175.895 177,176.689 C177,177.484 175.875,179.608 174.5,181.411 C173.125,183.214 172,185.145 172,185.702 C172,186.722 181.622,193.044 186.096,194.964 C189.109,196.256 191.507,197.757 196.14,201.25 C198.146,202.762 200.108,204 200.5,204 C200.892,204 202.852,205.265 204.856,206.812 C206.86,208.358 211.2,210.925 214.5,212.516 C217.8,214.106 222.585,216.891 225.134,218.704 C227.683,220.517 230.096,222 230.496,222 C231.473,222 251.902,238.029 252.796,239.498 C253.609,240.834 270.372,250.366 273.807,251.446 C275.076,251.845 276.845,253.704 277.738,255.578 C279.31,258.873 279.286,259.067 277.007,261.492 C274.581,264.075 271.591,264.765 270.496,262.994 C269.639,261.607 256.651,253.198 253.539,252.015 C252.145,251.485 248.144,248.452 244.649,245.276 C236.734,238.083 227.307,230.728 223.439,228.726 C221.823,227.889 218.025,225.532 215,223.488 C211.975,221.444 206.783,218.522 203.463,216.995 C200.142,215.467 196.825,213.494 196.09,212.609 C195.356,211.724 194.186,211 193.49,211 C192.794,211 189.935,209.425 187.136,207.5 C184.338,205.575 181.704,204 181.283,204 C180.862,204 178.24,202.432 175.457,200.515 C172.673,198.598 168.998,196.75 167.29,196.408 C164.706,195.891 163.975,196.183 162.939,198.143 C162.254,199.44 160.412,202.065 158.847,203.978 C157.281,205.891 156,207.99 156,208.644 C156,209.297 154.2,211.258 152,213 C149.8,214.742 148,216.847 148,217.676 C148,221.177 135.717,233.957 132.327,233.983 C131.131,233.992 128.744,235.186 127.022,236.635 C124.338,238.893 123.54,239.111 121.445,238.157 C117.953,236.566 118.405,234.804 123.166,231.442 C130.017,226.603 135.052,221.155 144.689,208.152 C153.958,195.646 157.041,190.875 156.46,189.936 C155.457,188.312 141.995,181.885 140.95,182.531 C137.826,184.462 132.046,176.582 133.417,172.262 C134.007,170.402 137.826,168 140.193,168 C141.223,168 145.257,164.57 156,154.56 C162.651,148.363 168.791,143.824 173.933,141.302 Z M81.374,109.211 C86.059,106.37 96,110.052 96,114.629 C96,115.948 96.558,117.921 97.241,119.014 C98.233,120.604 98.222,121.415 97.183,123.078 C96.169,124.702 96.148,125.473 97.086,126.603 C99.035,128.952 97.572,141.763 95.047,144.45 C93.414,146.188 93,147.955 93,153.187 C93,159.674 92.951,159.79 88.522,163.873 C86.06,166.143 83.672,168 83.216,168 C82.76,168 80.313,169.931 77.778,172.292 C74.279,175.55 73.022,177.538 72.561,180.542 C72.226,182.719 71.476,185.85 70.892,187.5 C69.394,191.738 69.332,193.225 70.633,193.687 C71.979,194.164 83.788,179.31 86.867,173.266 C89.469,168.159 92.665,166.993 97.606,169.349 C99.472,170.239 101,171.438 101,172.012 C101,172.979 104.369,180.252 115.62,203.581 C118.029,208.575 120,213.419 120,214.344 C120,215.27 120.521,216.861 121.158,217.881 C123.037,220.89 121.523,223 117.483,223 C114.537,223 113.69,222.513 112.698,220.25 C112.035,218.738 110.715,216.353 109.764,214.952 C108.813,213.551 106.704,208.718 105.077,204.214 C103.45,199.709 101.034,194.556 99.708,192.762 C98.381,190.968 97.018,188.713 96.679,187.75 C96.34,186.787 95.189,186 94.121,186 C91.462,186 84,191.018 84,192.806 C84,193.605 82.392,196.112 80.426,198.379 C70.099,210.287 64.067,214.263 59.494,212.179 C57.015,211.05 56.846,210.595 57.288,206.228 C57.55,203.628 58.298,199.7 58.949,197.5 C59.599,195.3 60.292,192.375 60.488,191 C60.684,189.625 61.578,186.511 62.476,184.08 C64.506,178.579 66.229,160.352 65.414,153 C65.078,149.975 64.173,145.572 63.402,143.215 C61.443,137.228 61.525,127.119 63.539,126.347 C64.385,126.022 65.847,124.284 66.789,122.484 C68.356,119.487 76.201,112.348 81.374,109.211 Z M79.342,14.152 C80.489,12.701 86.579,13.179 88.25,14.85 C89.111,15.711 88.636,19.603 86.038,33 C84.46,41.139 82.979,46.121 80.963,50.072 C79.87,52.214 78.35,56.787 77.584,60.234 C76.322,65.914 73.707,74.207 66.304,96 C64.903,100.125 62.774,107.1 61.574,111.5 C60.374,115.9 58.481,121.525 57.368,124 C54.809,129.689 52,138.27 52,140.398 C52,141.294 51.55,142.921 51,144.014 C50.45,145.106 49.55,146.894 49,147.986 C48.45,149.079 48,150.672 48,151.526 C48,152.381 47.154,154.749 46.12,156.79 C45.086,158.83 42.76,165 40.95,170.5 C39.141,176 36.79,181.479 35.726,182.676 C34.661,183.873 34.091,185.338 34.458,185.932 C35.055,186.898 34.14,190.772 31.962,196.5 C31.544,197.6 30.674,199.91 30.028,201.633 C28.489,205.741 23.687,210.278 21.349,209.832 C17.649,209.127 18.483,205.412 27.548,182.23 C28.897,178.782 30,174.842 30,173.475 C30,172.108 31.021,168.855 32.27,166.245 C33.518,163.635 35.412,158.912 36.477,155.75 C37.542,152.588 38.699,150 39.047,150 C39.396,150 40.247,147.412 40.939,144.25 C42.065,139.103 43.557,134.527 46.075,128.5 C47.072,126.112 50.699,114.912 54.494,102.5 C56.008,97.55 57.618,92.6 58.073,91.5 C58.527,90.4 59.607,87.25 60.472,84.5 C61.338,81.75 62.456,78.6 62.959,77.5 C63.461,76.4 64.595,72.35 65.48,68.5 C66.364,64.65 67.467,60.6 67.93,59.5 C68.393,58.4 69.241,55.7 69.813,53.5 C70.386,51.3 71.862,46.35 73.093,42.5 C74.324,38.65 75.656,32.8 76.052,29.5 C77.142,20.413 78.165,15.643 79.342,14.152 Z M87.5,50.873 C89.15,50.523 90.803,50.183 91.173,50.118 C92.234,49.932 98,55.064 98,56.195 C98,56.754 99.125,58.548 100.5,60.182 C101.875,61.816 102.998,64.356 102.996,65.827 C102.992,68.591 99.652,75 98.215,75 C96.701,75 95,72.613 95,70.487 C95,68.304 91.584,64.658 86.695,61.623 C84.24,60.099 83.929,59.361 84.195,55.696 C84.468,51.949 84.815,51.443 87.5,50.873 Z M167.904,158.25 C165.433,160.588 160.821,164.683 157.656,167.351 C151.665,172.4 151.195,173.764 154.822,175.589 C156.012,176.188 157.812,177.425 158.822,178.339 C159.831,179.252 161.152,180 161.756,180 C163.229,180 167,175.117 167,173.21 C167,172.373 168.037,170.296 169.304,168.594 C172.035,164.928 176.071,155.405 175.245,154.579 C173.97,153.303 172.195,154.191 167.904,158.25 Z M180.667,91.667 C180.3,92.033 179.988,93.496 179.974,94.917 C179.959,96.338 178.159,100.869 175.974,104.988 C173.788,109.106 172,113.043 172,113.738 C172,114.476 173.256,115 175.025,115 C177.351,115 178.275,114.408 179.024,112.436 C179.561,111.025 181.308,108.77 182.907,107.424 C187.975,103.16 188.141,91 183.131,91 C182.143,91 181.033,91.3 180.667,91.667 Z M80,125.069 C78.075,126.727 75.464,128.513 74.198,129.037 C72.145,129.887 71.928,130.56 72.198,135.245 C72.449,139.616 72.837,140.548 74.5,140.786 C75.794,140.971 76.853,140.265 77.5,138.786 C78.05,137.529 80.638,135.44 83.25,134.144 C87.486,132.043 88,131.43 88,128.476 C88,121.23 85.629,120.22 80,125.069 Z M78.641,92.085 C83.986,87.38 87.23,86.895 89.56,90.451 C91.686,93.696 90.748,96.24 86.052,99.959 C82.036,103.139 79.185,103.705 75.934,101.965 C72.584,100.172 73.579,96.54 78.641,92.085 Z M165.25,40.58 C170.55,33.313 175,34.704 175,43.627 C175,48.084 174.611,49.161 172.365,50.927 C168.848,53.694 166.569,53.539 164.073,50.365 C161.31,46.853 161.435,45.812 165.25,40.58 Z M74.714,144.685 C74.448,145.133 74.291,148.419 74.365,151.986 C74.478,157.408 74.8,158.531 76.324,158.824 C78.641,159.27 81.688,156.528 84.077,151.848 C85.676,148.715 85.739,148.028 84.518,147.015 C83.732,146.363 82.148,146.136 80.976,146.508 C79.621,146.938 78.198,146.584 77.028,145.525 C76.022,144.615 74.981,144.237 74.714,144.685 Z"/>
</svg>

