<svg xmlns="http://www.w3.org/2000/svg" width="300" height="300" viewBox="0 0 300 300" version="1.1">
  <defs/>
  <path d="M73.23,38.004 C78.639,33.903 81.693,33.093 83.8,35.2 C85.986,37.386 85.132,40.813 81.75,43.419 C78.594,45.85 66.705,54.594 61.432,58.362 C59.576,59.689 58.983,60.825 59.37,62.309 C59.67,63.455 59.464,68.917 58.912,74.446 C57.99,83.685 57.737,111.413 58.51,118.5 C58.69,120.15 58.874,121.893 58.919,122.372 C59.071,124.012 62.341,120.506 66.173,114.595 C71.003,107.143 71.094,105.704 66.686,106.531 C61.775,107.452 60.282,105.268 62.028,99.718 C62.758,97.398 64.063,94.667 64.928,93.65 C66.118,92.249 66.621,88.605 67,78.65 L67.5,65.5 L70.5,65.206 C75.826,64.684 77.49,66.906 77.495,74.549 C77.5,81.684 77.918,82.342 83.14,83.432 C86.704,84.176 87.31,86.336 84.837,89.48 C82.008,93.077 81.81,98.45 84.5,98.644 C85.6,98.723 87.014,98.835 87.643,98.894 C89.763,99.091 90.019,102.164 88.138,104.841 C87.111,106.303 84.676,110.65 82.727,114.5 C79.659,120.562 79.129,122.673 78.771,130.25 C78.535,135.258 78.387,137.848 79.497,138.613 C80.698,139.44 83.37,138.131 88.993,135.436 C95.501,132.317 97.476,131.849 104.801,131.686 C112.981,131.504 113.229,131.569 115.651,134.5 C118.588,138.054 120.049,141.245 120.897,145.954 C121.447,149.006 122.006,149.531 125.693,150.454 C127.989,151.03 130.939,152.512 132.248,153.75 C135.259,156.595 137.194,156.593 138.628,153.742 C139.249,152.509 141.369,148.312 143.339,144.416 C145.309,140.519 148.24,133.405 149.853,128.607 C151.465,123.808 153.058,119.609 153.392,119.274 C153.727,118.94 154,117.257 154,115.533 C154,109.932 158.569,108.07 162.056,112.25 C164.084,114.68 164.734,122.429 163,123.5 C161.548,124.398 161.772,129 163.268,129 C163.965,129 166.191,127.875 168.215,126.5 C170.238,125.125 172.392,124 173.002,124 C173.611,124 176.11,123.089 178.555,121.975 C188.588,117.405 191.963,118.555 192.756,126.816 C193.136,130.765 192.819,132.613 191.399,134.734 C190.381,136.255 188.515,140.625 187.253,144.444 C185.991,148.263 184.305,152.111 183.506,152.994 C182.707,153.877 181.36,156.563 180.513,158.963 C179.666,161.364 178.483,163.918 177.883,164.641 C176.14,166.741 170.997,177.004 171.033,178.31 C171.09,180.342 174.462,183.685 178.569,185.781 C180.731,186.884 183.357,188.735 184.405,189.894 C185.453,191.052 186.722,192 187.226,192 C187.73,192 190.472,193.996 193.321,196.436 C196.169,198.875 204.575,205.963 212,212.186 C219.425,218.409 228.65,226.855 232.5,230.954 C254.881,254.789 268.711,268.68 271.372,270 C273.197,270.905 275.36,273.378 276.827,276.237 L279.257,280.974 L276.578,284.487 C275.104,286.419 273.134,287.969 272.199,287.932 C271.265,287.894 267.35,284.205 263.5,279.733 C259.65,275.26 252.6,267.529 247.833,262.551 C243.066,257.573 233.841,247.943 227.333,241.15 C220.825,234.358 210.459,224.562 204.297,219.382 C198.136,214.201 192.828,209.531 192.502,209.003 C192.176,208.475 188.442,205.469 184.204,202.322 C179.967,199.175 174.356,194.843 171.736,192.695 C168.022,189.651 166.424,188.928 164.486,189.414 C162.998,189.788 162,190.756 162,191.825 C162,192.807 160.875,195.136 159.5,197 C158.125,198.864 157,200.895 157,201.514 C157,202.133 155.489,204.409 153.643,206.57 C151.796,208.732 149.993,211.427 149.635,212.56 C148.712,215.489 136.254,227.05 130.958,229.893 C121.877,234.768 120.893,235.173 119.462,234.624 C116.165,233.359 118.969,225 122.69,225 C127.664,225 141.526,209.316 151.574,192.321 C156.81,183.464 156.719,182.7 150.009,179.267 C147.609,178.039 144.462,175.901 143.018,174.517 C141.573,173.133 139.907,172 139.317,172 C138.727,172 136.691,174.363 134.794,177.25 C132.896,180.137 128.087,187.424 124.107,193.443 L116.871,204.386 L118.61,208.245 C120.54,212.524 119.832,216.457 116.786,218.368 C115.413,219.23 114.47,218.866 112.038,216.536 L109.003,213.629 L103.099,219.814 C98.015,225.14 96.698,226 93.62,226 C90.944,226 89.648,225.393 88.462,223.583 C87.591,222.254 83.444,218.766 79.247,215.833 C75.05,212.9 71.288,210.27 70.887,209.99 C70.486,209.709 69.86,208.289 69.495,206.834 C68.479,202.786 71.716,202.319 78.189,205.58 C81.11,207.051 83.65,208.648 83.833,209.128 C84.017,209.607 84.923,210 85.848,210 C86.773,210 89.25,210.922 91.353,212.049 C95.952,214.514 97.006,213.888 98.868,207.582 L100.218,203.008 L94.359,195.359 C91.137,191.151 85.46,184.305 81.746,180.145 C74.404,171.922 74.29,170.692 80.75,169.4 C83.717,168.807 84.471,169.261 90.239,175.128 C93.685,178.632 97.822,183.188 99.432,185.25 C103.419,190.357 106,190.282 106,185.059 C106,182.891 106.489,180.816 107.087,180.446 C107.685,180.077 107.949,178.912 107.673,177.858 C107.189,176.006 107.705,170.743 110.092,153.201 C111.112,145.709 111.05,144.713 109.456,142.951 C104.274,137.225 90.441,143.356 76.445,157.582 C68.502,165.655 66.682,167.041 64.768,166.472 C59.165,164.807 58.86,159.49 63.995,153.006 C65.648,150.92 67,148.467 67,147.556 C67,146.646 67.612,144.686 68.359,143.2 C69.107,141.715 70.001,138.475 70.346,136 C70.691,133.525 71.256,130.487 71.603,129.25 C72.111,127.435 71.83,127 70.152,127 C69.007,127 67.589,127.9 67,129 C65.007,132.723 59.127,130.439 60.629,126.525 C61.136,125.204 60.846,124.887 59.396,125.18 C58.03,125.456 57.592,126.252 57.829,128.031 C58.596,133.775 57.776,154.557 56.742,155.591 C56.334,155.999 56,157.622 56,159.198 C56,162.415 53.65,163.904 51.114,162.294 C49.723,161.41 49.492,158.592 49.44,141.884 C49.408,131.223 49.092,114.625 48.74,105 C48.164,89.297 48.623,80.276 50.581,68.75 C51.131,65.516 50.959,65 49.332,65 C48.294,65 46.361,65.759 45.037,66.687 C43.712,67.614 40.8,68.715 38.564,69.133 C36.329,69.551 33.289,70.189 31.81,70.551 C29.719,71.064 28.549,70.64 26.56,68.651 C25.152,67.243 24,65.219 24,64.152 C24,61.813 26.748,60.546 28.56,62.05 C29.534,62.858 30.392,62.608 31.933,61.067 C33.266,59.734 35.294,59 37.644,59 C41.527,59 54.626,51.831 62.603,45.339 C64.86,43.503 66.988,42 67.333,42 C67.677,42 70.331,40.202 73.23,38.004 Z M147.547,12.25 C148.021,10.732 149.974,10.659 153.57,12.027 C156.234,13.039 156.261,13.144 155.592,19.676 C155.219,23.319 153.986,28.369 152.851,30.9 C151.717,33.43 150.205,36.85 149.492,38.5 C148.779,40.15 146.801,44.539 145.098,48.253 C143.394,51.967 142,55.482 142,56.066 C142,56.649 140.801,59.574 139.336,62.566 C137.871,65.558 136.957,68.29 137.304,68.638 C138.847,70.18 144.677,66.083 151.854,58.413 C159.471,50.272 161.487,47.282 164.417,39.786 C166.761,33.786 174.091,33.592 177.401,39.442 C178.006,40.51 180.41,44.247 182.745,47.748 C187.719,55.205 188.672,58.23 187.118,61.639 C185.442,65.319 181.273,64.532 178.9,60.087 C176.473,55.543 171.054,50.042 169.568,50.612 C168.913,50.864 167.83,52.58 167.163,54.426 C166.474,56.332 162.473,61.105 157.911,65.463 L149.873,73.142 L149.54,79.321 C149.357,82.72 148.953,86.625 148.643,88 C148.333,89.375 147.675,92.394 147.181,94.709 C146.687,97.024 145.577,99.996 144.714,101.313 C143.852,102.63 142.817,105.461 142.415,107.604 C142.013,109.747 140.959,112.85 140.072,114.5 C139.185,116.15 137.86,119.232 137.129,121.349 C135.27,126.73 130.172,134 128.258,134 C126.286,134 123,131.141 123,129.426 C123,128.731 123.653,126.888 124.45,125.331 C128.324,117.768 131,111.436 131,109.834 C131,108.859 131.827,106.585 132.839,104.78 C133.85,102.976 134.93,100.375 135.239,99 C135.548,97.625 136.52,93.891 137.4,90.701 C138.28,87.512 139,83.811 139,82.476 C139,80.32 138.67,80.116 136.037,80.643 C131.41,81.568 128.199,80.285 126.391,76.789 C124.855,73.819 124.863,73.272 126.513,68.554 C127.484,65.774 128.667,63.073 129.14,62.55 C129.613,62.028 130,61.039 130,60.353 C130,59.026 138.7,39.716 140.973,36 C142.242,33.924 145.701,22.344 146.498,17.5 C146.86,15.3 147.332,12.938 147.547,12.25 Z M174.042,134.449 C173.381,135.246 171.189,136.438 169.17,137.098 C162.63,139.237 149,150.958 149,154.442 C149,155.15 148.1,156.874 147,158.273 C145.9,159.671 145,161.504 145,162.345 C145,164.163 151.936,170.979 153.8,170.991 C154.514,170.996 156.459,171.703 158.121,172.563 C161.879,174.506 163.316,173.527 166.209,167.056 C167.33,164.55 169.991,158.831 172.123,154.348 C174.255,149.864 176,145.701 176,145.098 C176,144.494 176.45,144 177,144 C177.55,144 178,142.902 178,141.559 C178,140.216 178.45,138.84 179,138.5 C179.55,138.16 180,136.784 180,135.441 C180,133.537 179.477,133 177.622,133 C176.315,133 174.704,133.652 174.042,134.449 Z M160.2,76.2 C161.81,74.59 166.485,74.675 167.866,76.338 C168.551,77.164 168.774,79.977 168.449,83.683 C167.766,91.46 169.09,92.889 175.27,91.037 C177.583,90.344 180.754,88.702 182.315,87.389 C183.876,86.075 186.226,85 187.538,85 C189.727,85 194,88.38 194,90.112 C194,91.863 188.644,97 186.819,97 C185.717,97 183.671,97.9 182.273,99 C180.874,100.1 178.918,101 177.924,101 C176.931,101 175.871,101.399 175.57,101.887 C174.635,103.399 168.329,104.107 165.854,102.977 C164.559,102.387 162.488,100.356 161.25,98.466 C159.347,95.558 159,93.669 159,86.214 C159,80.692 159.448,76.952 160.2,76.2 Z M49.836,182.134 C54.605,180.387 56.685,180.877 59.866,184.5 C63.517,188.659 65.003,188.829 68.595,185.5 C70.078,184.125 71.937,183 72.725,183 C74.205,183 73.997,185.557 71.953,192.5 C71.467,194.15 70.822,196.731 70.519,198.235 C69.119,205.199 59.783,201.607 53.662,191.75 C52.722,190.238 51.119,189 50.099,189 C47.693,189 45.8,186.684 46.569,184.681 C46.901,183.817 48.371,182.67 49.836,182.134 Z M21.203,182.197 C22.598,180.802 25.391,181.481 29.154,184.131 C30.614,185.159 32.277,186 32.849,186 C34.026,186 42,196.769 42,198.358 C42,198.926 43.237,200.686 44.75,202.27 C47.431,205.076 47.451,205.184 45.559,206.574 C41.776,209.353 37.926,207.753 35.355,202.335 C34.405,200.335 30.562,195.631 26.814,191.883 C23.066,188.135 20,184.693 20,184.234 C20,183.776 20.541,182.859 21.203,182.197 Z M0,208.883 L0,193.848 L2.788,196.157 C4.322,197.427 7.087,200.528 8.933,203.048 C10.78,205.568 13.605,208.385 15.212,209.307 C19.084,211.529 18.842,215.902 14.773,217.249 C12.391,218.037 11.281,217.563 6.023,213.517 L0,208.883 Z M118.965,165.25 C118.942,170.509 118.411,174.406 117.5,176 C115.884,178.828 115.489,187 116.969,187 C117.502,187 119.415,184.611 121.219,181.692 C123.024,178.772 125.057,175.509 125.737,174.442 C130.696,166.659 130.637,164.931 125.291,161.484 C123.756,160.495 122.14,159.081 121.7,158.343 C119.871,155.271 118.998,157.475 118.965,165.25 Z"/>
</svg>

