<svg xmlns="http://www.w3.org/2000/svg" width="300" height="300" viewBox="0 0 300 300" version="1.1">
  <defs/>
  <path d="M65.655,25.829 C68.052,23.18 72.833,23.425 73.896,26.25 C74.859,28.809 74.214,34.749 72.885,35.571 C72.398,35.872 72,38.251 72,40.859 C72,43.467 71.585,46.027 71.078,46.55 C70.571,47.072 69.833,49.255 69.438,51.4 L68.721,55.301 L72.803,54.753 C76.216,54.295 77.521,54.673 80.759,57.054 C82.89,58.621 85.464,61.446 86.479,63.331 C88.283,66.681 88.281,66.835 86.362,70.129 C83.74,74.632 80.818,74.958 78.041,71.058 C76.155,68.409 68.082,62 66.631,62 C66.351,62 65.818,64.031 65.446,66.512 C65.074,68.994 64.41,71.246 63.972,71.518 C63.533,71.789 62.864,73.845 62.485,76.087 C62.107,78.329 61.17,81.364 60.404,82.832 C59.639,84.299 59.01,86.052 59.006,86.726 C59.003,87.4 58.102,89.425 57.004,91.226 C53.133,97.575 55.567,99.075 61.412,93.943 C64.428,91.295 65.536,90.927 69.697,91.193 C74.397,91.493 74.506,91.575 74.796,95.005 C75.039,97.889 74.429,99.217 71.348,102.505 C64.64,109.663 61.241,115.413 63.053,116.533 C63.584,116.861 64.766,115.827 65.68,114.235 C69.32,107.892 76.948,106.174 81.152,110.75 C88.155,118.373 88.323,118.956 87.765,133.593 C87.234,147.516 86.589,149.63 82.702,150.19 C81.519,150.36 80.089,151.409 79.525,152.521 C77.678,156.162 73.581,161.455 70.764,163.839 C69.244,165.125 68,166.904 68,167.791 C68,168.679 66.726,170.776 65.168,172.452 C62.316,175.521 61.004,180.469 59.518,193.75 C58.847,199.75 59.934,200.49 63.326,196.34 C64.522,194.876 68.987,190.199 73.25,185.946 C78.586,180.621 81,177.47 81,175.829 C81,172.432 83.719,169 86.411,169 C88.773,169 92.893,172.2 94.71,175.446 C96.011,177.771 98.296,176.507 97.473,173.916 C96.474,170.768 97.886,168 100.491,168 C101.786,168 104.119,166.938 105.673,165.64 C107.459,164.15 110.342,163.073 113.5,162.719 C123.277,161.621 138.518,158.783 139.664,157.848 C141.197,156.596 142.129,147.482 142.357,131.5 C142.552,117.874 142.981,116 145.904,116 C149.186,116 150.906,119.262 151.46,126.54 C153.155,148.812 153.155,148.982 151.565,152.17 C148.86,157.592 149.34,158.357 155.024,157.684 C157.787,157.356 160.487,156.817 161.024,156.485 C162.825,155.372 162.152,146.793 160.088,144.564 C158.937,143.321 157.899,140.232 157.479,136.797 C156.806,131.295 156.87,131.071 159.283,130.465 C161.813,129.83 168,132.261 168,133.891 C168,134.353 169.012,136.009 170.25,137.571 C171.653,139.343 172.876,142.871 173.5,146.946 C174.642,154.409 175.871,155.239 181.872,152.596 C183.867,151.717 188.65,150.547 192.5,149.997 C196.35,149.446 202.875,148.523 207,147.946 C211.125,147.369 216.44,146.005 218.811,144.915 C223.804,142.619 228.871,143.095 231.606,146.118 C233.015,147.674 233.169,148.743 232.422,151.769 L231.5,155.5 L225,156.164 C221.425,156.529 215.125,157.285 211,157.844 C206.875,158.402 201.025,159.178 198,159.567 C194.975,159.956 191.943,160.713 191.263,161.249 C190.583,161.785 188.941,161.951 187.615,161.618 C186.259,161.278 183.955,161.664 182.352,162.5 C180.783,163.318 178.572,163.99 177.437,163.994 C174.701,164.002 170.721,168.537 169.095,173.5 C168.374,175.7 167.065,178.625 166.187,180 C162.265,186.142 156.947,197.419 157.407,198.618 C157.685,199.343 159.395,200.627 161.206,201.471 C166.122,203.76 172.216,207.23 175.545,209.634 C177.17,210.808 180.75,213.114 183.5,214.758 C197.376,223.057 200.618,225.281 205.598,229.915 C209.656,233.692 211,235.642 211,237.749 C211,241.066 208.503,245 206.399,245 C205.581,245 201.643,241.679 197.649,237.619 C193.655,233.559 188.612,229.255 186.443,228.053 C184.275,226.851 180.7,224.781 178.5,223.454 C176.3,222.126 173.825,220.738 173,220.368 C172.175,219.998 170.792,219.092 169.927,218.354 C166.098,215.084 152.722,208.853 150.661,209.379 C149.473,209.682 146.177,212.983 143.338,216.715 C140.499,220.447 136.899,224.692 135.338,226.149 C121.606,238.965 115.851,242.566 110.851,241.467 C105.102,240.205 105.905,235.706 112.27,233.518 C117.005,231.89 125.701,224.507 129.548,218.849 C131.172,216.461 133.963,212.558 135.75,210.177 C137.537,207.795 139,205.295 139,204.62 C139,203.945 137.425,201.866 135.5,200 C132.444,197.038 132,195.99 132,191.739 C132,189.062 132.863,184.762 133.917,182.185 C138.19,171.743 137.228,168.818 130.356,171.355 C128.235,172.138 123.826,173.371 120.558,174.095 C117.289,174.819 113.032,176.219 111.096,177.206 C109.161,178.193 106.584,179 105.37,179 C102.204,179 100,180.017 100,181.476 C100,182.171 101.764,184.954 103.919,187.661 C107.221,191.808 115,206.287 115,208.285 C115,208.623 116.381,210.947 118.07,213.448 C119.806,216.021 121.001,218.96 120.82,220.215 C120.446,222.808 115.005,226.225 114.306,224.306 C114.067,223.65 112.529,221.425 110.89,219.361 C109.25,217.298 107.177,214.011 106.283,212.055 C100.695,199.836 90.102,185 86.965,185 C85.994,185 84.7,186.309 84,188 C83.317,189.65 82.383,191 81.926,191 C80.84,191 71,200.844 71,201.931 C71,202.391 70.151,202.989 69.114,203.26 C68.076,203.531 66.609,205.046 65.854,206.627 C65.084,208.238 63.529,209.636 62.313,209.81 C61.121,209.981 59.607,210.768 58.95,211.56 C57.552,213.244 53.69,213.439 50.934,211.965 C49.289,211.085 49,209.822 49,203.53 C49,199.46 49.477,194.876 50.059,193.344 C52.627,186.59 54.176,170.022 54.14,149.698 C54.119,138.258 53.832,128.045 53.501,127.003 C52.941,125.239 54.83,119.968 58.789,112.248 C60.448,109.013 60.44,108.979 57.288,105.826 C54.605,103.143 53.879,102.856 52.559,103.951 C51.702,104.663 51,105.757 51,106.382 C51,107.672 42.856,132.911 40.959,137.5 C40.277,139.15 39.107,141.918 38.359,143.651 C37.612,145.384 37,147.245 37,147.787 C37,148.329 35.408,153.661 33.463,159.636 C31.518,165.611 29.472,172.497 28.917,174.939 C28.361,177.38 26.579,182.246 24.957,185.751 C23.334,189.257 21.73,193.226 21.393,194.572 C21.055,195.918 20.391,197.259 19.916,197.552 C19.442,197.845 18.55,199.978 17.934,202.292 C17.318,204.606 16.24,207.175 15.538,208 C14.836,208.825 14.024,210.625 13.734,212 C12.87,216.097 9.489,224.706 8.073,226.412 C6.459,228.356 2.646,228.483 1.119,226.643 C-0.365,224.855 0.624,219.998 4,212.5 C5.486,209.2 7.291,204.588 8.011,202.25 C8.731,199.912 9.698,198 10.16,198 C10.622,198 11,197.125 11,196.055 C11,194.986 12.575,190.655 14.5,186.431 C16.425,182.206 18,177.933 18,176.934 C18,175.935 18.415,174.861 18.923,174.548 C19.431,174.234 20.153,172.52 20.528,170.739 C21.463,166.299 24.38,157.55 28.943,145.5 C30.409,141.631 37.689,119.762 39.097,115 C40.285,110.985 41.585,107.707 43.593,103.669 C44.367,102.112 45,99.749 45,98.419 C45,97.089 45.45,96 46,96 C46.55,96 47,95.357 47,94.571 C47,93.785 48.631,88.272 50.624,82.321 C54.607,70.43 57.137,60.588 60.024,45.759 C61.067,40.401 62.388,35.143 62.96,34.074 C63.532,33.006 64,31.125 64,29.894 C64,28.664 64.745,26.835 65.655,25.829 Z M153.119,35.471 C157.302,31.129 161.268,31.051 163.81,35.261 C165.798,38.555 164.899,40.547 160.25,43.144 C158.556,44.09 155.264,46.245 152.935,47.932 C150.606,49.62 148.34,51 147.9,51 C146.843,51 138.219,56.837 137.458,58.068 C137.132,58.596 135.207,59.927 133.182,61.025 C131.157,62.123 128.733,63.564 127.795,64.227 C126.386,65.224 125.648,65.018 123.545,63.042 C120.176,59.877 120.256,56.503 123.75,54.359 C125.263,53.431 127.568,51.959 128.874,51.086 C135.863,46.417 140.005,43.916 144.619,41.577 C147.434,40.149 151.259,37.402 153.119,35.471 Z M121.268,78.868 C124.31,76.882 134,85.491 134,90.181 C134,91.225 134.9,93.844 136,96 C139.605,103.067 138.292,108 132.805,108 C130.43,108 129.697,107.286 127.923,103.25 C126.776,100.638 125.423,97.719 124.918,96.764 C124.413,95.809 124,94.427 124,93.694 C124,92.961 122.913,91.416 121.584,90.26 C119.509,88.455 119.248,87.551 119.734,83.83 C120.045,81.449 120.735,79.216 121.268,78.868 Z M166.88,66.25 C170.31,63.396 173.075,65.487 173.747,71.444 C174.218,75.626 172.952,82.545 171.153,85.615 C166.191,94.085 162.754,98.105 160.72,97.816 C157.897,97.414 157.249,93.113 159.342,88.667 C160.162,86.925 161.855,81.45 163.105,76.5 C164.355,71.55 166.054,66.938 166.88,66.25 Z M148.597,170.25 C146.295,173.826 142.827,185.635 143.179,188.702 C143.408,190.696 144.131,191.59 145.696,191.813 C147.385,192.053 148.332,191.244 149.79,188.313 C150.833,186.216 152.421,183.15 153.317,181.5 C156.581,175.494 158.207,170.983 157.641,169.508 C156.692,167.033 150.333,167.554 148.597,170.25 Z M140.25,72.03 C141.488,71.532 143.099,71.322 143.832,71.563 C144.564,71.803 145.544,72 146.008,72 C146.473,72 148.258,74.455 149.975,77.456 C152.998,82.739 153.046,83.011 151.496,86.007 C149.442,89.98 146.918,89.364 141.793,83.64 C137.286,78.607 136.607,73.496 140.25,72.03 Z M68.243,125.794 C64.802,128.932 61.989,132.302 61.993,133.281 C62.005,136.29 64.908,136.462 67.864,133.63 C70.669,130.943 76.262,129.997 77.5,132 C78.493,133.607 80.001,133.152 79.985,131.25 C79.955,127.773 76.61,119.954 75.191,120.044 C74.811,120.067 71.684,122.655 68.243,125.794 Z M74.933,142.029 C73.595,143.17 70.588,145.433 68.25,147.058 C64.007,150.008 62.524,153.97 65.074,155.546 C66.375,156.35 70.648,152.506 72.312,149.034 C73.079,147.436 74.611,146.327 76.51,145.998 C78.858,145.592 79.5,144.964 79.5,143.074 C79.5,139.868 77.898,139.502 74.933,142.029 Z"/>
</svg>

