<svg xmlns="http://www.w3.org/2000/svg" width="300" height="300" viewBox="0 0 300 300" version="1.1">
  <defs/>
  <path d="M61.685,137.648 C62.823,136.51 72.553,136.953 73.8,138.2 C74.46,138.86 75.014,140.322 75.032,141.45 C75.049,142.578 75.724,144.374 76.532,145.441 C77.529,146.76 78,149.865 78,155.126 C78,159.385 78.467,164.099 79.038,165.6 C79.609,167.102 80.106,173.094 80.141,178.916 C80.177,184.737 80.654,191.287 81.201,193.47 C81.754,195.676 82.2,211.365 82.206,228.772 C82.215,257.306 82.059,260.277 80.453,262.052 C79.483,263.123 77.914,264 76.965,264 C74.813,264 68.759,257.208 64.629,250.16 C62.908,247.223 60.689,243.451 59.697,241.779 C58.611,239.947 58.015,237.301 58.197,235.12 C58.669,229.48 61.318,230.425 66.274,238 C69.134,242.37 71.174,244.5 72.502,244.5 C74.324,244.5 74.496,243.71 74.716,234.295 C74.853,228.452 74.537,223.832 73.977,223.486 C73.44,223.154 72.997,219.646 72.994,215.691 C72.985,205.135 71.824,192 70.9,192 C69.797,192 61,205.728 61,207.45 C61,208.213 60.249,210.337 59.331,212.169 C56.248,218.321 56,218.966 56,220.831 C56,222.999 53.319,225.641 50.607,226.147 C49.566,226.341 48.35,227.175 47.905,228 C46.948,229.773 44.467,235.735 43.61,238.324 C43.261,239.379 42.267,240.007 41.253,239.815 C39.918,239.561 39.425,238.304 39.187,234.543 C39.015,231.826 39.306,228.68 39.835,227.552 C41.67,223.631 43.5,201.392 43.5,183 L43.5,164.5 L40.213,158.147 C37.64,153.175 37.178,151.491 38.085,150.397 C39.622,148.546 45.468,148.611 47.357,150.5 C48.182,151.325 49.481,152 50.245,152 C51.714,152 58,145.437 58,143.904 C58,143.407 58.949,143 60.108,143 C61.823,143 62.106,142.56 61.627,140.648 C61.302,139.355 61.328,138.005 61.685,137.648 Z M141.62,42.289 C143.966,40.574 147.468,40.655 148.966,42.459 C149.711,43.357 150.245,47.874 150.354,54.209 L150.531,64.5 L153.946,64.222 C163.473,63.445 170.577,72.461 170.221,84.875 C170.122,88.361 162.853,104.047 160.391,106.09 C159.626,106.725 159,108.437 159,109.895 C159,112.8 153.668,120 151.516,120 C150.78,120 149.061,121.327 147.696,122.95 C144.04,127.295 139.041,130.048 136.135,129.319 C134.545,128.92 133.306,129.225 132.594,130.189 C129.845,133.918 123.243,135.202 120.96,132.452 C120.254,131.601 119.747,129.081 119.835,126.852 C119.922,124.622 119.661,122.281 119.255,121.649 C117.992,119.685 116.031,113.594 116.015,111.588 C115.998,109.37 113.2,99.313 111.891,96.764 C111.401,95.809 111,94.378 111,93.585 C111,92.792 110.424,91.548 109.72,90.821 C108.307,89.363 106.397,83.475 105.525,77.888 C104.852,73.579 107.043,70.917 109.834,72.652 C112.694,74.43 115.999,80.157 116.033,83.398 C116.052,85.104 116.929,87.535 117.984,88.8 C119.833,91.018 119.964,91.035 121.7,89.289 C128.469,82.481 129.469,77.862 126.436,67.429 C124.24,59.874 125.456,53.628 129.209,53.19 C132.625,52.792 133.595,54.632 134.514,63.25 C135.1,68.756 135.558,70 136.994,70 C139.372,70 140.606,68.241 141.429,63.674 C141.88,61.175 141.692,59.334 140.887,58.364 C138.905,55.976 139.457,43.871 141.62,42.289 Z M154.703,193.776 C155.587,192.799 157.05,192 157.955,192 C163.744,192 163.386,200.893 157.008,215.5 C156.047,217.7 154.925,220.625 154.516,222 C154.106,223.375 152.821,225.536 151.661,226.803 C148.384,230.381 150.619,230.922 168.492,230.875 C177.296,230.852 193.95,231.739 205.5,232.845 C217.05,233.952 231.45,235.153 237.5,235.515 C249.996,236.263 253,237.5 253,241.901 C253,246.926 251.336,247.37 239.288,245.565 C214.022,241.779 208.63,241.149 192.071,240.047 C162.233,238.063 128.599,240.69 112.27,246.281 C109.411,247.26 108.752,247.115 106.52,245.019 C105.134,243.717 104,242.087 104,241.398 C104,239.073 114.448,235.074 123.034,234.113 C127.957,233.562 131.606,232.652 132.116,231.846 C133.584,229.529 133.09,227.433 130.5,225 C129.125,223.708 128,221.66 128,220.448 C128,219.236 127.301,216.572 126.447,214.528 C125.593,212.484 125.031,208.941 125.197,206.656 C125.468,202.941 125.796,202.466 128.283,202.18 C131.782,201.779 134.92,205.243 134.967,209.559 C134.985,211.241 135.661,213.491 136.468,214.559 C137.276,215.626 137.951,218.412 137.968,220.75 C137.994,224.154 138.356,225 139.789,225 C143.124,225 150.941,209.528 152.406,200.026 C152.785,197.565 153.819,194.753 154.703,193.776 Z M151.695,158.074 C153.788,157.57 156.4,157.341 157.5,157.565 C158.6,157.789 160.032,157.979 160.682,157.986 C161.332,157.994 162.848,159.383 164.052,161.073 L166.24,164.145 L163.876,168.823 C162.575,171.395 160.943,174.098 160.249,174.828 C157.277,177.955 156.95,179.827 158.726,183.551 C160.446,187.158 160.438,187.227 158.123,189.102 C156.833,190.146 154.903,191 153.833,191 C152.763,191 149.267,192.3 146.064,193.89 C142.86,195.479 138,197.087 135.264,197.464 C130.305,198.146 130.265,198.129 123.465,192.359 C119.712,189.176 115.265,185.88 113.582,185.035 C109.411,182.943 108,178.762 110.524,175.974 C112.951,173.292 116.485,174.045 120.301,178.056 C121.841,179.675 123.76,181 124.564,181 C125.376,181 127.19,178.44 128.638,175.25 C130.075,172.088 132.656,168.249 134.375,166.721 C138,163.497 146.218,159.395 151.695,158.074 Z M54.31,62.559 C58.824,58.045 60.493,57.001 63.185,57.004 C66.378,57.007 70.126,58.867 74.642,62.688 C80.34,67.509 82.802,81.52 80.057,93.5 C79.426,96.25 78.659,99.71 78.351,101.19 C78.043,102.669 76.983,104.61 75.996,105.503 C74.328,107.013 74.089,106.965 72.581,104.813 C71.322,103.018 71.104,101.217 71.607,96.767 C72.337,90.301 70.991,88.772 66.408,90.86 C62.952,92.435 62.538,94.291 64.385,99.939 C66.06,105.06 65.723,108 63.461,108 C61.572,108 58,102.633 58,99.796 C58,98.478 57.517,96.917 56.927,96.327 C56.337,95.737 56,93.735 56.177,91.877 C56.439,89.134 57.176,88.169 60.104,86.737 C63.361,85.144 72,76.196 72,74.415 C72,72.985 66.874,67 65.649,67 C63.715,67 52.264,75.668 50.361,78.571 C48.898,80.804 48.827,81.808 49.845,85.831 C51.127,90.894 51.698,116.062 50.572,117.883 C47.909,122.192 44,114.879 44,105.588 C44,102.196 43.325,96.829 42.5,93.661 C40.429,85.711 40.467,76 42.57,76 C43.625,76 44.034,75.263 43.82,73.75 C43.586,72.107 42.831,71.5 41.019,71.5 C39.328,71.5 38.419,70.863 38.165,69.5 C37.961,68.4 37.126,66.746 36.309,65.824 C34.28,63.534 35.042,60.568 37.758,60.181 C40.392,59.805 46,63.492 46,65.599 C46,68.959 49.012,67.858 54.31,62.559 Z M82.5,107.368 C87.264,105.822 92.558,106.425 96,108.906 C98.238,110.519 98.531,111.512 98.793,118.398 L99.086,126.089 L94.293,131.948 C88.485,139.049 85.188,140.977 83.291,138.383 C81.495,135.928 81.677,133.975 83.925,131.564 C87.439,127.796 91.379,118.825 90.286,117.08 C89.069,115.138 85.336,114.476 83.622,115.899 C82.925,116.478 77.437,119.455 71.427,122.516 C52.186,132.315 49.335,134.01 44.37,138.598 C36.045,146.293 15.565,159 11.49,159 C10.624,159 7.684,156.913 4.957,154.363 L0,149.726 L0,142.863 C0,139.088 0.368,136 0.819,136 C1.269,136 3.741,138.925 6.313,142.5 C9.046,146.298 11.726,149 12.762,149 C14.783,149 21.063,145.043 25.5,140.975 C27.15,139.462 29.986,137.475 31.801,136.56 C33.617,135.644 35.353,134.244 35.658,133.448 C35.964,132.651 36.803,132 37.522,132 C38.242,132 40.105,130.65 41.662,129 C43.219,127.35 45.002,126 45.624,126 C46.246,126 47.296,125.349 47.956,124.553 C48.617,123.757 51.26,122.306 53.829,121.328 C56.398,120.351 63,117.102 68.5,114.109 C74,111.116 80.3,108.083 82.5,107.368 Z M165.75,129.772 C170.069,128.846 176.014,133.073 173.928,135.586 C173.283,136.364 171.963,137 170.994,137 C170.026,137 168.998,137.9 168.71,139 C168.329,140.456 167.346,141 165.094,141 C162.667,141 162,141.431 162,143 C162,144.565 161.333,145 158.933,145 C157.145,145 154.396,146.121 152.34,147.69 C150.401,149.169 146.043,151.856 142.657,153.661 C139.271,155.465 134.781,157.88 132.68,159.027 C129.115,160.973 120.543,164.216 110.018,167.602 C105.886,168.931 105.339,168.897 103.018,167.166 C97.581,163.111 100.008,160.256 111.631,157.035 C119.422,154.876 131.932,148.992 133.982,146.522 C134.836,145.492 136.483,144.999 138.42,145.192 C141.255,145.476 141.54,145.221 142,142 C142.483,138.618 142.669,138.483 147.5,138 C151.461,137.604 152.705,137.032 153.488,135.247 C154.378,133.219 154.951,133.057 159.238,133.626 C163.581,134.202 164,134.077 164,132.202 C164,131.054 164.773,129.981 165.75,129.772 Z M59.318,158.083 C53.654,164.059 52.912,165.684 53.683,170.434 C54.251,173.931 54.315,173.973 58.155,173.359 C63.075,172.572 66,174.862 66,179.5 C66,183.639 63.071,186.258 58.29,186.394 C54.82,186.492 54.433,186.818 52.823,191 C50.744,196.401 50.636,206 52.654,206 C53.394,206 54.001,205.438 54.003,204.75 C54.008,202.726 61.125,192.864 66.123,187.954 C70.7,183.457 70.741,183.358 70.256,177.956 C69.986,174.955 69.368,172.072 68.883,171.55 C68.397,171.028 68,167.352 68,163.382 C68,151.19 66.64,150.359 59.318,158.083 Z M143.487,172.431 C134.567,178.568 133.087,180.21 132.396,184.733 C131.86,188.247 132.055,189.084 133.544,189.655 C134.924,190.185 137.377,188.209 144.169,181.1 C149.026,176.016 153,171.213 153,170.428 C153,167.949 148.679,168.859 143.487,172.431 Z M153.253,75.25 C152.708,75.938 152.03,78.66 151.748,81.3 L151.234,86.1 L155.867,85.8 C160.46,85.503 160.503,85.467 160.816,81.652 C161.295,75.828 156.21,71.523 153.253,75.25 Z M124.75,106.08 C122.771,107.232 122.45,110.05 124.107,111.707 C124.716,112.316 125.521,114.319 125.894,116.157 C126.387,118.582 127.183,119.588 128.791,119.82 C131.501,120.211 132.797,117.506 131.158,114.881 C130.521,113.861 130,111.221 130,109.014 C130,104.745 128.49,103.901 124.75,106.08 Z M152.75,94.115 C150.925,95.477 150,97.083 150,98.892 C150,100.391 149.339,102.491 148.532,103.559 C146.412,106.362 146.641,108.195 149.066,107.82 C150.453,107.605 152.406,105.156 155.012,100.363 C157.146,96.438 158.617,92.95 158.28,92.613 C157.22,91.553 155.591,91.995 152.75,94.115 Z M123.25,93.22 C120.229,94.677 120.249,98 123.277,98 C126.116,98 130,95.368 130,93.443 C130,91.75 126.536,91.636 123.25,93.22 Z M138.667,82.667 C138.3,83.033 138,84.833 138,86.667 C138,89.262 138.416,90 139.879,90 C141.928,90 144.643,84.85 143.537,83.06 C142.809,81.882 139.703,81.631 138.667,82.667 Z"/>
</svg>

