<svg xmlns="http://www.w3.org/2000/svg" width="300" height="300" viewBox="0 0 300 300" version="1.1">
  <defs/>
  <path d="M61.096,136.024 C66.516,133.117 69.927,132.889 74.232,135.144 C76.798,136.488 80.607,145.67 81.372,152.355 C81.741,155.575 82.483,159.033 83.021,160.039 C83.559,161.045 84.004,166.061 84.009,171.184 C84.013,176.308 84.521,185.675 85.136,192 C85.752,198.325 86.253,213.028 86.25,224.673 C86.246,244.854 86.143,245.991 84.055,248.923 C82.85,250.616 81.171,252 80.325,252 C79.478,252 75.889,250.617 72.348,248.928 C66.315,246.048 65.734,245.467 63.099,239.678 C59.231,231.181 58.37,226.179 60.626,225.313 C62.866,224.454 67.437,229.828 69.204,235.399 C70.583,239.744 73,241.074 75.599,238.918 C76.889,237.848 77.025,234.311 76.555,214.085 C75.978,189.226 75.257,181.914 73.318,181.271 C72.219,180.906 62.053,199.786 61.958,202.368 C61.866,204.891 55.22,211.005 51.898,211.624 C47.91,212.367 45.054,215.457 45.022,219.06 C44.975,224.446 37.406,240.5 34.914,240.5 C32.556,240.5 32.725,236.401 35.438,227.738 C36.857,223.207 38.467,217.925 39.016,216 C44.076,198.247 46.657,164.002 43.469,156.93 C42.314,154.369 40.759,152.763 38.76,152.066 C36.149,151.156 35.858,150.681 36.431,148.263 C37.192,145.048 40.42,142 43.064,142 C44.077,142 46.061,142.526 47.472,143.169 C49.736,144.201 50.369,144.02 52.864,141.63 C54.419,140.14 58.123,137.618 61.096,136.024 Z M135.165,49.301 C136.699,47.453 140.42,47.69 142.215,49.75 C143.786,51.552 143.882,59.768 142.473,71.75 C141.76,77.816 142.635,78.327 147.182,74.5 C150.709,71.533 154.9,71.289 158.082,73.865 C161.316,76.484 161.433,82.514 158.41,90.846 C157.085,94.501 155.986,98.618 155.968,99.996 C155.951,101.373 155.276,103.374 154.468,104.441 C153.661,105.509 153,106.967 153,107.681 C153,108.396 150.975,111.938 148.5,115.553 C146.025,119.169 144,122.926 144,123.904 C144,126.608 161.01,134.866 166.805,134.975 C167.523,134.989 170.223,135.95 172.805,137.112 C175.387,138.274 179.876,140.299 182.78,141.612 C185.683,142.925 188.344,144 188.692,144 C190.758,144 216.874,163.187 219.261,166.458 C220.846,168.631 219.497,173.304 216.681,175.398 L213.861,177.494 L209.341,172.247 C206.854,169.361 203.974,167 202.94,167 C201.906,167 200.044,165.625 198.801,163.945 C196.341,160.617 187.2,154.491 179.879,151.264 C177.338,150.143 174.948,148.726 174.57,148.113 C174.192,147.501 172.81,147 171.5,147 C170.19,147 168.84,146.55 168.5,146 C168.16,145.45 166.835,145 165.556,145 C161.891,145 153.125,142.084 145.594,138.36 L138.688,134.945 L136.344,137.147 C135.055,138.358 134,140.11 134,141.039 C134,141.969 133.213,143.809 132.25,145.127 C129.904,148.339 128.678,150.412 124.936,157.5 C123.194,160.8 120.695,164.932 119.384,166.683 C118.073,168.434 117,170.353 117,170.947 C117,171.541 116.588,172.809 116.084,173.764 C115.58,174.719 114.433,177.191 113.534,179.257 C112.635,181.324 110.54,184.02 108.878,185.248 C107.217,186.477 104.926,189.139 103.788,191.164 C101.871,194.575 93.613,201 91.145,201 C90.554,201 89.569,200.064 88.957,198.919 C87.992,197.117 88.36,196.345 91.696,193.169 C98.609,186.586 103.922,178.513 112.627,161.365 C117.335,152.089 121.734,143.825 122.401,143 C125.897,138.675 127.208,131 124.45,131 C121.654,131 117,127.986 117,126.174 C117,123.004 119.189,122 126.104,122 L132.807,122 L137.762,114.25 C140.487,109.988 143.299,104.7 144.011,102.5 C149.604,85.22 149.637,85 146.655,85 C143.796,85 139,89.506 139,92.194 C139,96.241 136.745,102.789 134.419,105.495 C132.275,107.991 131.705,108.186 129.497,107.181 C126.397,105.768 126.318,103.33 129.024,92.59 C131.093,84.378 132.722,72.216 133.584,58.551 C133.86,54.179 134.572,50.016 135.165,49.301 Z M64.327,51.33 C66.417,49.607 68.403,49 71.949,49 C76.343,49 77.089,49.373 80.839,53.441 C83.09,55.883 85.285,59.146 85.716,60.691 C87.708,67.829 85.44,91.99 82.357,96.473 C80.762,98.792 80.572,102.617 82.008,103.505 C82.563,103.848 86.141,103.369 89.961,102.441 C102.785,99.324 113.059,101.662 115.4,108.229 C116.771,112.077 113.361,119.676 109,122.491 C107.075,123.733 104.042,126.156 102.259,127.875 C98.692,131.314 96.264,131.852 95.327,129.409 C94.531,127.335 97.511,121.125 99.707,120.282 C102.161,119.34 105.931,114.805 105.968,112.75 C106.004,110.781 104.783,110.581 95,110.948 C86.368,111.272 70.885,114.854 60.5,118.929 C53.797,121.559 42.882,126.83 39.2,129.215 C36.835,130.747 34.527,132 34.072,132 C33.617,132 32.697,132.661 32.026,133.468 C30.461,135.354 22.171,140 20.37,140 C19.613,140 17.314,140.9 15.261,142 C13.209,143.1 10.762,144 9.824,144 C8.886,144 7.84,144.45 7.5,145 C7.16,145.55 5.334,146 3.441,146 C0.029,146 0,145.961 0,141.5 C0,138.273 0.403,137 1.424,137 C3.62,137 18.162,130.993 21.246,128.812 C22.756,127.744 27.256,125.305 31.246,123.394 C35.236,121.482 40.3,119.053 42.5,117.995 C47.886,115.407 59.161,111.209 66.5,109.061 L72.5,107.304 L73.122,102.402 C73.464,99.706 74.251,95.928 74.872,94.007 C76.473,89.049 76.345,82 74.655,82 C71.87,82 69.594,86.094 68.927,92.304 C67.877,102.093 66.238,107 64.02,107 C62.974,107 61.887,106.625 61.604,106.168 C60.723,104.742 58.828,83.118 59.421,81.261 C59.73,80.292 61.646,78.176 63.679,76.558 C66.61,74.225 68.368,73.615 72.169,73.615 L76.962,73.615 L76.325,69.558 C75.581,64.824 73.365,61 71.366,61 C69.356,61 59.609,66.35 55.072,69.943 C52.949,71.624 50.747,73 50.178,73 C46.717,73 44.8,79.644 47,84.014 C47.55,85.106 48.45,86.894 49,87.986 C49.55,89.079 50,91.464 50,93.286 C50,95.109 50.395,97.028 50.878,97.55 C51.361,98.073 51.979,100.619 52.251,103.209 C52.855,108.967 51.093,112 47.143,112 C43.294,112 42,110.286 42,105.186 C42,97.742 36.024,75.568 31.914,67.764 C30.605,65.278 30.786,58.614 32.2,57.2 C33.75,55.65 39.25,55.65 40.8,57.2 C41.46,57.86 42,60.083 42,62.141 C42,64.199 42.47,66.172 43.044,66.527 C44.348,67.333 48.989,64.387 49.031,62.727 C49.065,61.371 56.421,55.524 59.528,54.384 C60.612,53.985 62.772,52.611 64.327,51.33 Z M155.5,181.617 C159.188,180.722 166.227,181.977 169.761,184.161 L173.263,186.326 L172.709,192.929 C171.903,202.54 170.141,207.172 164.25,215.157 C161.363,219.072 159,223.16 159,224.241 C159,226.041 159.61,226.182 166.25,225.914 C181.519,225.299 187.026,228.031 183.834,234.637 C182.61,237.17 181.992,237.466 178.475,237.209 C167.034,236.37 160.273,236.853 145.427,239.57 C144.287,239.779 141.655,241.102 139.579,242.511 C135.082,245.563 132.7,245.104 130.937,240.849 C129.422,237.191 130.244,235.414 134.798,232.5 C138.363,230.218 138.679,229.217 136.368,227.527 C134.752,226.346 131.002,217.721 131.001,215.183 C131,214.459 129.023,209.734 126.607,204.683 C120.742,192.422 120.446,191.269 122.565,188.928 C124.92,186.326 125.365,186.432 130.105,190.713 C134.083,194.308 134.259,194.364 135.604,192.463 C138.649,188.162 141.046,186.311 145.178,185.07 C147.555,184.356 150.4,183.397 151.5,182.938 C152.6,182.479 154.4,181.885 155.5,181.617 Z M149.449,194.342 C140.6,198.139 138.998,199.587 139.015,203.773 C139.03,207.526 140.523,212.644 142.78,216.684 C143.451,217.886 144,219.798 144,220.934 C144,224.699 146.846,223.087 152.27,216.25 C159.204,207.51 162.218,201.211 161.814,196.303 C161.518,192.72 161.298,192.491 158,192.338 C156.075,192.248 152.227,193.15 149.449,194.342 Z M58.726,148.294 C54.305,150.878 53.46,153.259 54.665,159.749 L55.548,164.5 L60.112,164.184 C64.248,163.897 64.962,164.193 67.722,167.337 C69.398,169.245 70.99,171.412 71.259,172.153 C71.63,173.172 72.048,173.22 72.973,172.352 C74.156,171.241 73.837,167.48 71.348,153.235 C70.751,149.818 66.879,145.969 64.115,146.044 C63.227,146.069 60.802,147.081 58.726,148.294 Z M56.709,177.25 C55.788,177.938 54.092,182.1 52.939,186.5 C50.444,196.021 49.737,198.439 50.4,198.904 C50.68,199.1 51.203,198.949 51.938,198.837 C53.151,198.652 54.898,197.169 55.821,195.542 C56.745,193.916 58.288,191.693 59.25,190.604 C60.212,189.514 61,188.216 61,187.719 C61,187.222 61.9,185.671 63,184.273 C65.693,180.849 65.517,178.557 62.453,177.161 C59.256,175.704 58.768,175.712 56.709,177.25 Z"/>
</svg>

