<svg xmlns="http://www.w3.org/2000/svg" width="300" height="300" viewBox="0 0 300 300" version="1.1">
  <defs/>
  <path d="M83.907,16.847 C86.012,15.201 86.577,15.138 88.407,16.346 C89.727,17.218 90.612,19.019 90.802,21.226 C91.079,24.435 90.707,24.979 86.302,27.791 C83.661,29.478 79.198,32.008 76.385,33.414 C69.397,36.906 68.718,37.941 69.305,44.216 C70.033,51.99 72.103,60.001 73.383,59.99 C73.997,59.985 76.476,58.41 78.891,56.49 C81.306,54.571 84.202,53 85.326,53 C87.529,53 92,56.649 92,58.446 C92,59.05 89.033,62.456 85.406,66.016 C79.053,72.252 73,80.076 73,82.05 C73,84.158 75.999,82.802 78.087,79.75 C81.729,74.426 88.296,68 90.093,68 C92.494,68 95,72.269 94.275,75.123 C93.402,78.561 91.101,81.816 88.531,83.251 C86.466,84.404 75.228,92.549 72.182,95.101 C71.458,95.708 71.12,96.871 71.432,97.684 C71.745,98.498 72,102.502 72,106.582 C72,113.853 72.05,114 74.532,114 C76.11,114 77.335,113.278 77.782,112.086 C78.616,109.861 95.67,94.993 97.361,95.015 C102.633,95.086 101.696,100.455 95.172,107.559 C92.602,110.356 89.222,114.326 87.66,116.381 C86.099,118.436 83.813,120.501 82.581,120.969 C81.156,121.511 79.036,124.498 76.752,129.182 C74.778,133.23 72.226,137.39 71.081,138.426 C69.237,140.095 68.056,146 69.566,146 C70.852,146 74.784,143.438 79.204,139.721 C83.666,135.968 83.922,135.477 84.204,130.142 C84.441,125.648 84.863,124.45 86.311,124.175 C89.685,123.532 94.555,126.867 98.535,132.547 C100.716,135.659 103.737,139.681 105.25,141.484 C106.763,143.288 108,145.195 108,145.721 C108,146.536 112.169,149 113.547,149 C113.796,149 114,147.875 114,146.5 C114,144.558 114.513,144 116.3,144 C122.397,144 137.886,125.12 141.411,113.391 C142.339,110.304 139.563,108.202 137.231,110.228 C134.822,112.321 125.701,113.233 123.472,111.603 C122.068,110.577 121.815,109.263 122.185,104.913 C122.437,101.936 123.347,97.925 124.206,96 C125.064,94.075 126.72,90.367 127.884,87.761 C130.142,82.703 130.564,80 129.095,80 C128.596,80 126.373,80.969 124.154,82.154 C120.323,84.199 119.989,84.223 117.559,82.631 C114.626,80.709 114.483,79.423 116.431,72.5 C117.204,69.75 118.717,64.35 119.792,60.5 C123.151,48.475 124.342,38.621 123.672,28.42 C123.146,20.401 123.288,18.827 124.588,18.328 C127.004,17.401 130.935,19.704 132.112,22.738 C134.725,29.469 133.617,46.241 130.13,52.757 C129.509,53.918 129,55.782 129,56.899 C129,59.094 126.553,67.179 124.844,70.631 C123.477,73.393 124.642,77 126.902,77 C127.874,77 129.897,75.622 131.397,73.939 C134.911,69.995 136.943,70.478 138.85,75.709 C140.256,79.57 140.243,80.074 138.692,81.788 C137.761,82.816 137,84.429 137,85.372 C137,86.314 135.425,90.003 133.5,93.568 C131.575,97.133 130,100.939 130,102.025 C130,104.791 133.266,104.571 137.785,101.5 C142.376,98.38 145.979,98.324 149.214,101.322 C152.057,103.958 153.933,112.467 152.079,114.321 C151.486,114.914 151,116.115 151,116.989 C151,119.066 147.575,125.744 145.144,128.405 C144.091,129.557 142.904,131.571 142.506,132.88 C141.677,135.609 128.706,149 126.893,149 C125.009,149 119,153.944 119,155.494 C119,157.425 115.056,160 112.1,160 C110.293,160 107.279,157.49 100.693,150.5 C95.77,145.275 90.983,141 90.055,141 C89.127,141 87.357,142.8 86.12,145 C84.884,147.2 83.488,149 83.018,149 C82.548,149 79.777,151.037 76.861,153.526 C73.945,156.015 69.745,158.564 67.529,159.19 C65.313,159.817 61.906,161.83 59.958,163.664 C55.84,167.542 52.749,167.908 50.557,164.777 C48.463,161.788 48.595,158.405 50.895,156.105 C52.932,154.068 53.512,153.082 59.25,141.917 C64.304,132.083 64.295,130.277 59.21,133.965 C57.719,135.046 54.7,136.368 52.5,136.904 C50.3,137.44 46.554,138.419 44.176,139.08 C40.33,140.148 39.566,140.066 37.254,138.34 C31.288,133.886 32.13,130 39.063,130 C43.197,130 55.1,126.053 60.403,122.925 C63.503,121.096 63.672,120.708 63.312,116.242 C63.103,113.634 62.742,99.8 62.511,85.5 C61.98,52.671 61.475,43.658 60.14,43.213 C59.556,43.019 56.098,44.525 52.456,46.562 C45.272,50.579 43.891,50.359 42.686,45 C42.21,42.885 42.758,42.115 46.24,40 C48.504,38.625 52.639,35.987 55.429,34.139 C58.218,32.29 61.425,30.422 62.556,29.987 C63.687,29.552 65.937,28.088 67.556,26.733 C69.175,25.377 72.975,23.022 76,21.499 C79.025,19.976 82.583,17.883 83.907,16.847 Z M131.556,174.909 C132.532,173.33 136.621,173.924 138.413,175.904 C141.962,179.826 143.52,190.519 142.65,205 C142.436,208.559 145.148,208.204 147.038,204.425 C147.883,202.733 150.696,197.947 153.288,193.789 C155.879,189.63 158,185.657 158,184.958 C158,184.26 159.148,182.184 160.551,180.344 C164.623,175.006 169.262,176.062 170.575,182.625 C171.03,184.898 170.409,186.678 167.82,190.529 C165.982,193.263 163.277,197.551 161.809,200.058 C160.342,202.564 157.126,206.473 154.663,208.743 C152.2,211.013 148.809,214.87 147.127,217.315 C145.446,219.759 143.379,222.024 142.535,222.348 C141.477,222.754 141,224.304 141,227.332 C141,229.749 140.545,234.124 139.99,237.053 C139.31,240.64 139.31,242.71 139.99,243.39 C140.545,243.945 141,245.28 141,246.356 C141,250.009 145.691,254.732 151.236,256.663 C155.693,258.215 159.72,258.497 177.5,258.498 C198.418,258.5 198.531,258.488 206.379,255.5 C216.415,251.679 217.151,250.589 215.976,241.288 C215.474,237.321 214.619,233.271 214.075,232.288 C209.168,223.417 199.877,189.626 201.585,186.862 C202.553,185.296 205.911,185.966 206.965,187.934 C207.534,188.998 208.006,190.911 208.013,192.184 C208.031,195.48 211.816,207.138 213.461,208.964 C214.222,209.809 215.167,211.85 215.563,213.5 C215.958,215.15 218.243,220.312 220.64,224.971 C223.038,229.63 225,234.413 225,235.599 C225,236.785 225.675,238.315 226.5,239 C227.58,239.896 227.996,242.243 227.985,247.372 C227.971,253.994 227.741,254.753 224.735,258.073 C222.498,260.544 219.804,262.142 216,263.253 C212.975,264.137 207.8,265.667 204.5,266.654 C192.707,270.181 153.531,269.074 144.17,264.95 C141.789,263.901 138.106,261.668 135.985,259.988 C129.199,254.613 129.007,251.186 132.522,198 C132.795,193.875 132.562,187.196 132.006,183.159 C131.45,179.121 131.247,175.409 131.556,174.909 Z M72,182.057 L72,178 L75.977,178 C81.119,178 82.786,180.452 84.551,190.613 C85.563,196.441 85.6,198.667 84.712,200.09 C83.822,201.515 83.836,202.236 84.775,203.175 C85.449,203.849 86,205.21 86,206.2 C86,210.668 91.186,206.665 94.845,199.373 C95.983,197.104 97.566,194.997 98.361,194.692 C103.515,192.714 109.516,201.272 105.714,205.179 C105.006,205.905 103.153,208.188 101.595,210.25 C100.037,212.313 98.126,214 97.348,214 C96.569,214 95.003,215.575 93.867,217.5 C92.732,219.425 91.391,221 90.888,221 C90.385,221 88.99,223.025 87.787,225.5 C84.504,232.259 86.22,233.203 94.318,229.092 C98.695,226.871 101.77,225.953 104.094,226.176 C109.79,226.721 108.866,229.171 100.624,235.374 C96.513,238.469 92.729,241 92.215,241 C91.702,241 89.306,242.708 86.891,244.795 C79.498,251.184 76.813,253 74.759,253 C73.675,253 71.887,254.146 70.785,255.546 C69.684,256.946 66.806,259.021 64.391,260.156 C61.976,261.291 60,262.621 60,263.11 C60,263.6 58.902,264 57.559,264 C56.216,264 54.858,264.421 54.54,264.935 C54.222,265.45 51.389,266.833 48.244,268.01 C45.099,269.187 42.295,270.456 42.013,270.83 C40.357,273.029 33.784,276.998 31.817,276.986 C20.009,276.917 23.137,270.554 38.75,262.882 C43.288,260.653 47,258.205 47,257.443 C47,256.681 48.125,253.513 49.5,250.404 C52.784,242.979 52.669,241.045 48.449,232.766 C45.607,227.188 44.959,224.872 45.199,221.149 C45.484,216.746 45.666,216.484 48.634,216.195 C51.454,215.921 52.037,216.371 54.456,220.695 C59.23,229.231 61.275,236.8 60.548,243.25 C60.178,246.542 60.293,249 60.818,249 C61.322,249 64.755,246.975 68.446,244.5 C72.137,242.025 75.571,240 76.078,240 C77.559,240 77.138,236.36 75.5,235 C73.959,233.721 73.465,229.868 74.685,228.648 C76.324,227.009 77.601,221.004 77.384,215.961 C77.001,207.079 75.859,197.574 75.046,196.5 C73.785,194.834 72,186.372 72,182.057 Z"/>
</svg>

