<svg xmlns="http://www.w3.org/2000/svg" width="300" height="300" viewBox="0 0 300 300" version="1.1">
  <defs/>
  <path d="M72.667,0.667 C73.033,0.3 75.418,0 77.967,0 L82.6,0 L83.839,6 C85.295,13.049 86.58,13.503 93.533,9.428 C96.516,7.68 98.32,5.757 99.162,3.428 L100.402,0 L119.749,0 L117.76,4.02 C116.666,6.231 114.077,9.493 112.006,11.27 C108.374,14.386 105,21.467 105,25.976 C105,27.024 104.55,28.16 104,28.5 C103.45,28.84 103,30.64 103,32.5 C103,34.36 102.578,36.142 102.063,36.461 C100.769,37.261 98.292,42.393 97.533,45.848 L96.904,48.716 L101.997,48.226 C108.126,47.637 110.813,49.605 113.504,56.65 C115.037,60.663 115.097,62.368 114.058,72.289 C113.244,80.063 112.205,84.794 110.615,87.962 C107.613,93.946 106.611,98 108.135,98 C109.476,98 119.83,92.099 124.916,88.436 C127.913,86.277 128.58,86.141 130.361,87.323 C134.875,90.321 134.812,91.843 130,96.028 C127.525,98.18 123.7,100.87 121.5,102.004 C119.3,103.139 114.8,105.625 111.5,107.528 C108.2,109.431 104.487,111.429 103.25,111.969 C99.549,113.584 100.58,115.629 104.809,115.061 C105.528,114.964 110.028,116.788 114.809,119.113 C135.149,129.005 153.608,138.313 155.457,139.608 C156.55,140.373 158.063,141 158.818,141 C159.573,141 163.993,143.588 168.64,146.75 C173.287,149.912 178.757,153.467 180.795,154.648 C182.833,155.829 185.368,157.958 186.43,159.378 C188.125,161.645 188.196,162.265 187.015,164.473 C186.275,165.856 184.538,167.728 183.155,168.634 C180.875,170.128 180.26,170.141 176.57,168.772 C173.057,167.468 172.528,166.885 172.705,164.505 C172.953,161.19 170.561,158.866 163.349,155.411 C160.517,154.055 157.649,152.282 156.977,151.472 C156.305,150.662 154.926,150 153.912,150 C152.899,150 150.532,148.65 148.653,147 C146.774,145.35 144.563,144 143.74,144 C142.918,144 141.733,143.384 141.108,142.63 C140.483,141.877 137.841,140.456 135.236,139.472 C127.326,136.485 116.264,131.023 114.973,129.467 C114.303,128.66 112.937,128 111.937,128 C110.936,128 109.84,127.55 109.5,127 C107.924,124.45 106.808,126.233 107.421,130.321 C108.178,135.37 106.062,138.903 101.034,140.986 C97.361,142.507 97.182,143.738 100.452,144.982 C101.801,145.495 103.635,147.327 104.528,149.054 C105.849,151.609 106.556,152.061 108.326,151.479 C109.522,151.086 111.85,150.705 113.5,150.632 C116.335,150.507 116.517,150.732 116.806,154.711 C117.055,158.148 116.443,159.967 113.478,164.601 L109.846,170.28 L114.035,169.61 C119.192,168.786 121,170.078 121,174.591 C121,177.494 120.26,178.484 115.407,182.069 C111.759,184.764 109.316,187.469 108.382,189.85 C107.594,191.858 106.449,194.381 105.836,195.458 C104.875,197.149 102.139,207.078 102.036,209.25 C101.958,210.874 103.994,209.839 107.421,206.511 C109.397,204.592 113.698,201.667 116.978,200.011 C121.863,197.545 124.17,197 129.721,197.002 C138.378,197.004 142.524,199.039 146.75,205.363 C150.239,210.584 150.715,213.955 148.989,221.236 C147.356,228.127 145.241,236.339 144.518,238.598 C143.946,240.385 144.937,241.383 151.173,245.304 C155.203,247.838 160.075,251.297 162,252.989 C163.925,254.682 168.138,257.965 171.363,260.284 C174.588,262.603 180.195,267.087 183.824,270.25 C187.454,273.413 190.981,276 191.663,276 C192.346,276 194.231,277.928 195.852,280.285 C197.473,282.641 199.97,285.448 201.4,286.522 C203.428,288.046 204,289.339 204,292.409 C204,296.883 201.755,300 198.532,300 C196.096,300 191,295.182 191,292.879 C191,290.623 180.804,280.494 169.5,271.522 C164,267.157 159.275,263.288 159,262.925 C158.725,262.563 156.025,260.649 153,258.674 C149.975,256.698 146.375,254.174 145,253.063 C143.625,251.953 141.715,251.034 140.756,251.022 C139.144,251.002 133.549,257.538 132.215,261 C131.454,262.973 125.038,271.601 121.111,275.93 C119.4,277.817 118,279.761 118,280.252 C118,280.742 117.335,281.808 116.522,282.621 C115.71,283.433 114.468,284.864 113.762,285.799 C113.057,286.735 111.515,288.318 110.335,289.319 C108.258,291.08 108.068,291.076 104.339,289.173 C101.287,287.616 99.79,285.788 97.12,280.354 C95.267,276.584 92.872,272.534 91.799,271.354 C89.494,268.82 89.698,264.204 92.185,262.647 C94.92,260.935 98.329,263.545 100.887,269.307 C104.329,277.062 104.588,277.475 106.213,277.795 C109.36,278.416 129,250.58 129,245.498 C129,244.463 127.955,244 125.619,244 C121.467,244 116.452,248.688 114.966,253.958 C113.924,257.656 112.649,259.601 109.814,261.819 C108.462,262.878 107.67,262.895 105.814,261.907 C102.733,260.267 96.041,254.694 96.018,253.75 C96.008,253.337 93.25,250.25 89.89,246.89 C84.214,241.214 83.6,240.861 81.261,241.927 C78.398,243.231 77.483,242.791 78.351,240.528 C79.083,238.62 83.107,237 87.115,237 C91.39,237 95.732,239.469 101.81,245.357 L107.119,250.5 L109.81,247.408 C111.289,245.707 113.206,243.007 114.069,241.408 C114.932,239.809 116.844,237.938 118.319,237.25 C119.793,236.563 122.064,235.507 123.364,234.904 C124.664,234.301 127.922,233.964 130.603,234.154 L135.479,234.5 L136.838,230 C137.585,227.525 138.615,224.083 139.127,222.351 C140.466,217.813 139.1,211.009 136.284,208.193 C134.304,206.213 133.274,205.914 130.338,206.464 C128.385,206.831 125.822,207.55 124.643,208.063 C122.46,209.013 121.934,209.326 114.016,214.387 C109.909,217.014 104.004,222.647 96.793,230.818 C94.345,233.593 93.773,233.796 90.793,232.946 C87.407,231.981 85,229.631 85,227.289 C85,226.558 86.1,224.218 87.444,222.088 C88.789,219.958 90.636,215.805 91.55,212.858 C92.464,209.911 93.839,206.082 94.606,204.349 C96.027,201.137 96.478,197 95.407,197 C95.081,197 92.643,198.688 89.988,200.75 C84.918,204.689 84.036,206.337 84.014,211.906 C83.996,216.327 79.65,222.238 76.734,221.807 C73.606,221.345 72.383,216.611 74.372,212.665 C75.637,210.156 76.075,204.839 76.486,187 C76.771,174.625 77.273,162.363 77.603,159.75 C78.176,155.2 78.097,155 75.723,155 C72.513,155 70.931,153.023 71.68,149.948 C72.542,146.408 75.587,143.422 81.399,140.415 C84.205,138.964 87.21,137.152 88.079,136.388 C88.947,135.625 89.969,135 90.35,135 C91.931,135 99.025,129.61 100.592,127.219 C102.243,124.699 102.214,124.583 99.392,122.324 C97.801,121.051 95.825,120.016 95,120.022 C91.776,120.049 70.544,142.536 66.967,149.711 C65.655,152.345 62.643,156.625 60.276,159.222 C57.909,161.82 55.513,165.149 54.954,166.622 C54.394,168.094 52.804,170.694 51.421,172.399 C50.039,174.105 46.903,177.949 44.453,180.941 C42.003,183.934 39.439,187.646 38.755,189.191 C38.071,190.736 37.172,192 36.756,192 C36.34,192 36,192.533 36,193.186 C36,193.838 35.037,195.396 33.861,196.648 C32.684,197.9 31.222,199.788 30.611,200.842 C27.992,205.362 20.846,213.974 18.079,215.943 L15.08,218.08 L13.04,216.04 C10.688,213.688 10.492,211.881 12.25,208.736 C13.986,205.631 18.709,199.465 21.861,196.189 C24.282,193.674 31.865,183.225 38,173.953 C44.712,163.808 58.476,144.462 59.192,144.167 C59.636,143.983 60,143.344 60,142.745 C60,142.147 60.747,140.832 61.661,139.823 C64.61,136.563 62.076,136.51 55.71,139.697 C52.295,141.407 48.043,143.11 46.261,143.48 C44.48,143.851 42.749,144.597 42.414,145.139 C41.425,146.74 36.748,148.154 34.395,147.563 C32.692,147.136 32.126,146.123 31.825,142.964 C31.373,138.219 32.613,136.782 38.5,135.235 C45.638,133.358 49.297,131.86 61.962,125.63 C80.526,116.498 85,113.184 85,108.566 C85,107.705 84.318,107 83.485,107 C82.652,107 81.129,105.616 80.1,103.925 C79.072,102.233 77.293,100.193 76.147,99.39 C74.701,98.378 74.042,96.794 73.995,94.216 C73.957,92.172 73.903,89.375 73.875,88 C73.847,86.625 73.475,85.05 73.05,84.5 C72.624,83.95 71.954,82.15 71.56,80.5 C71.166,78.85 69.819,76.15 68.566,74.5 C67.313,72.85 65.981,70.528 65.605,69.34 C65.23,68.152 64.265,66.635 63.461,65.968 C60.987,63.914 61.637,58.431 64.635,56.073 C66.084,54.933 68.024,54 68.947,54 C70.844,54 73.97,57.918 75.927,62.75 C77.39,66.363 78.729,66.893 79.717,64.25 C80.906,61.067 87.291,54.122 90.097,52.96 C93.373,51.603 94.247,49.795 93.106,46.741 C92.292,44.562 92.652,41.22 95.101,28.225 C95.752,24.774 95.968,21.635 95.583,21.249 C95.197,20.863 93.22,21.437 91.191,22.524 L87.5,24.5 L86.684,35.5 C86.235,41.55 85.534,46.841 85.126,47.258 C84.719,47.674 82.611,48.124 80.442,48.258 L76.5,48.5 L76.701,43.5 C76.811,40.75 77.194,36.366 77.551,33.757 C78.397,27.579 76.787,26.902 70.012,30.59 C65.584,33 64.742,33.171 63.486,31.915 C62.693,31.122 61.765,29.074 61.423,27.363 C60.883,24.663 61.241,23.923 64.15,21.736 C65.993,20.352 68.993,18.902 70.818,18.515 C75.105,17.606 75.729,15.732 73.673,9.943 C71.908,4.972 71.561,1.773 72.667,0.667 Z M14.918,253.599 C15.73,252.621 17.799,252 20.251,252 C26.395,252 33.56,256.731 42.915,266.967 C49.671,274.358 51.08,276.456 50.818,278.731 C50.251,283.669 46.968,282.819 40.468,276.051 C37.271,272.723 34.109,270 33.443,270 C32.776,270 31.531,268.933 30.677,267.63 C29.595,265.979 27.359,264.84 23.312,263.88 C18.24,262.676 17.251,262.035 15.545,258.849 C13.9,255.776 13.8,254.945 14.918,253.599 Z M96.098,61.516 C86.847,66.599 80.092,71.625 80.662,73 C81.003,73.825 81.495,75.737 81.755,77.25 C82.257,80.175 84.686,80.981 85.625,78.535 C86.505,76.241 96.424,70.088 100.662,69.208 C104.848,68.338 105.641,66.816 104.065,62.671 C102.931,59.688 100.156,59.286 96.098,61.516 Z M91.5,147.476 C85.816,149.459 84.834,150.413 85.748,153.065 C86.579,155.476 86.628,160.766 85.889,168.5 C85.377,173.858 86.836,173.627 91.854,167.554 C96.288,162.188 98.478,157.413 96.94,156.463 C96.423,156.143 95.993,154.221 95.985,152.191 C95.963,147.067 95.143,146.205 91.5,147.476 Z M55.25,247.662 C57.648,246.695 58.936,247.017 62.595,249.5 C64.621,250.875 67.476,252 68.94,252 C74.427,252 75.72,256.553 71.021,259.329 C68.539,260.794 67.378,260.91 64.066,260.018 C58.46,258.508 54,254.511 54,250.994 C54,249.439 54.563,247.94 55.25,247.662 Z M95,83 C93.075,84.054 89.813,84.935 87.75,84.958 L84,85 L84,90.5 C84,93.525 84.268,96 84.597,96 C84.925,96 87.287,94.141 89.847,91.868 C92.406,89.596 95.908,87.137 97.629,86.405 C100.252,85.29 102,83.295 102,81.418 C102,80.391 98.195,81.251 95,83 Z M95.993,176.518 C95.467,177.903 93.881,179.475 92.47,180.012 C89.993,180.953 86.511,187.034 87.224,189.173 C87.641,190.424 99.267,181.47 100.18,179.195 C101.5,175.903 101.059,174 98.975,174 C97.732,174 96.581,174.972 95.993,176.518 Z"/>
</svg>

