<svg xmlns="http://www.w3.org/2000/svg" width="300" height="300" viewBox="0 0 300 300" version="1.1">
  <defs/>
  <path d="M111.5,144.707 C116.313,143.564 119.329,144.099 122.356,146.633 C125.58,149.334 126.506,151.651 127.971,160.694 C128.434,163.55 129.094,166.343 129.438,166.9 C129.782,167.457 130.522,176.786 131.082,187.633 C131.642,198.479 132.363,207.779 132.685,208.3 C133.008,208.822 135.341,208.975 137.885,208.641 C144.702,207.747 170.861,204.108 175.614,203.392 C179.171,202.857 179.949,203.089 181.364,205.109 C183.392,208.005 183.448,210.915 181.529,213.656 C180.214,215.533 178.694,215.831 167.279,216.45 C146.37,217.585 138.189,217.614 135.28,221.546 C133.143,224.432 133.849,229.423 134.446,238.5 C134.663,241.8 134.929,250.35 135.038,257.5 C135.147,264.65 135.886,273.393 136.681,276.929 C138.407,284.605 137.915,287.262 134.477,288.829 C130.894,290.461 128.959,290.296 126.564,288.152 C125.429,287.136 122.475,285.521 120,284.563 C117.525,283.605 114.938,282.357 114.25,281.788 C110.986,279.091 114.574,274.79 119.888,275.03 C121.875,275.12 124.133,275.15 124.906,275.097 C126.092,275.015 126.199,271.666 125.587,253.75 C125.189,242.063 124.55,230.7 124.17,228.5 C123.545,224.895 123.158,224.469 120.246,224.187 C118.468,224.015 113.524,225.059 109.257,226.506 C101.467,229.149 84.952,236.745 83.98,238.132 C83.694,238.54 81.4,239.757 78.882,240.836 C71.287,244.092 70,246.59 70,258.076 C70,263.535 69.557,268.156 69,268.5 C68.45,268.84 68,270.611 68,272.437 C68,277.04 65.639,278.889 62.913,276.421 C61.038,274.725 60.883,273.558 61.099,262.784 C61.229,256.304 61.128,250.794 60.874,250.541 C60.189,249.856 40.012,257.447 31.546,261.574 C23.188,265.65 20.576,265.676 17.628,261.714 C15.143,258.373 16.132,256.001 20.604,254.578 C28.059,252.206 50.664,243.873 52,243.005 C52.825,242.469 54.85,241.41 56.5,240.653 C63.009,237.665 63.122,237.225 62.731,216.374 C62.423,200.006 59.885,172.241 58.49,169.984 C57.565,168.488 60.773,167.005 63.677,167.585 C67.141,168.278 70.043,172.894 69.911,177.5 C69.802,181.293 72.96,197.203 74.057,198.39 C74.525,198.896 79.479,197.034 85.539,194.074 C95.164,189.373 96.131,188.656 95.506,186.684 C95.125,185.483 94.606,183.15 94.352,181.5 C93.344,174.937 92.937,174 91.096,174 C90.07,174 88.535,175.061 87.685,176.359 C86.178,178.658 77.394,182.361 75.793,181.372 C73.313,179.84 76.332,174.795 84.423,166.95 L89.347,162.176 L89.423,154.453 C89.485,148.241 89.843,146.512 91.25,145.62 C93.638,144.106 96.208,145.814 97.535,149.797 C98.104,151.506 98.902,153.235 99.308,153.641 C99.714,154.047 102.173,152.31 104.773,149.781 C107.373,147.252 110.4,144.969 111.5,144.707 Z M68.534,3.843 C73.282,-2.16 78,-0.935 78,6.3 C78,10.48 77.053,11.68 66.388,21.022 L61.277,25.5 L62.113,34 C63.301,46.068 63.724,49.058 64.332,49.666 C65.148,50.482 67,49.047 67,47.598 C67,45.783 71.386,37.705 72.59,37.303 C73.14,37.12 74.583,37.894 75.795,39.024 C79.351,42.337 78.814,48.451 74.49,53.891 C70.65,58.722 70.067,60.598 72.75,59.494 C76.879,57.794 77.801,57.931 79.864,60.554 C81.039,62.048 82,64.281 82,65.516 C82,67.861 77.282,72.149 73.328,73.399 C72.133,73.776 69.578,75.831 67.651,77.965 C63.402,82.668 61.719,90.147 64.323,92.752 C66.268,94.697 68.039,93.483 71.687,87.703 C73.654,84.589 74.604,83.935 76.801,84.189 C79.251,84.471 79.528,84.931 79.801,89.162 C80.084,93.532 79.857,94.021 76.165,96.987 C72.359,100.046 65,109.668 65,111.587 C65,112.104 63.425,114.865 61.5,117.724 C59.575,120.582 57.99,123.276 57.978,123.711 C57.966,124.145 57.076,125.625 56,127 C54.924,128.375 54.034,130.063 54.022,130.75 C53.973,133.495 58.168,131.712 64.372,126.35 C70.926,120.684 73,117.192 73,111.819 C73,108.402 74.693,107.532 79.567,108.447 C82.562,109.008 83.411,109.793 84.977,113.446 C85.999,115.83 87.349,118.098 87.979,118.487 C88.608,118.876 89.541,120.292 90.051,121.633 C90.922,123.925 91.295,124.031 96.239,123.392 C99.753,122.939 102.693,121.778 105.091,119.898 C110.89,115.353 120,104.404 120,101.98 C120,101.199 120.035,100.682 119.794,100.413 C119.318,99.881 117.767,100.31 112.75,101.562 C111.513,101.87 108.873,101.44 106.885,100.605 C103.609,99.228 103.22,98.646 102.741,94.39 C102.341,90.847 102.677,88.935 104.11,86.597 C105.155,84.894 106.689,82.15 107.519,80.5 C108.35,78.85 109.586,76.617 110.265,75.538 C116.422,65.756 117.651,62.061 114.25,63.555 C113.287,63.978 110.877,64.517 108.894,64.753 C105.858,65.115 104.935,64.734 103.047,62.341 C100.359,58.935 100.604,53.603 103.759,46.841 C109.467,34.607 112.987,17.519 111.023,11.57 C109.772,7.778 110.949,4 113.382,4 C115.961,4 121.161,7.259 122.191,9.521 C123.971,13.427 118.619,36.449 113.305,47.742 C111.459,51.665 112.199,54.389 114.88,53.538 C117.417,52.733 125.073,54.523 126.164,56.176 C126.645,56.904 126.759,59.659 126.418,62.297 C125.84,66.782 123.968,70.973 117.616,82 C114.806,86.879 114.271,90.007 116.25,89.988 C116.938,89.981 119.427,88.874 121.783,87.527 C128.204,83.856 132.002,83.427 135.277,86.003 C138.151,88.264 139.061,93.539 136.943,95.657 C136.361,96.239 134.674,98.979 133.193,101.746 C129.306,109.008 119.97,119.674 108.607,129.834 C105.389,132.711 104.968,133.577 105.533,136.151 C106.317,139.718 103.883,143 100.454,143 C96.765,143 88.752,136.747 84.675,130.686 C80.736,124.831 77.524,123.316 76.328,126.75 C75.597,128.85 66.946,138 65.692,138 C65.206,138 63.399,139.012 61.675,140.25 C55.317,144.815 46.293,149.204 44.127,148.784 C42.443,148.458 39.181,143.313 39.073,140.812 C38.995,139.004 44.121,129.055 47.16,125.115 C51.148,119.945 48.47,118.384 42.528,122.416 C39.387,124.548 32.844,126.886 18.237,131.096 C14.269,132.239 13.802,132.163 11.487,129.988 C8.883,127.541 8.187,123.213 10.092,121.308 C10.704,120.696 12.867,120.441 15.007,120.728 C20.908,121.519 28.451,119.231 40.887,112.877 C47.149,109.678 52.486,106.847 52.746,106.587 C54.354,104.98 54.95,52.464 53.517,38.75 C52.766,31.571 52.538,31 50.412,31 C49.15,31 47.836,31.456 47.491,32.014 C46.293,33.953 39.059,37 35.655,37 C29.399,37 26.231,27.876 32.246,27.184 C35.363,26.825 48.694,20.077 54.088,16.127 C63.714,9.079 65.785,7.319 68.534,3.843 Z M82.5,206.669 C78.65,208.077 74.938,209.683 74.25,210.237 C73.55,210.801 72.989,213.502 72.976,216.372 C72.963,219.193 72.535,223.3 72.025,225.499 C70.515,232.015 71.886,232.042 84.388,225.75 L95.722,220.045 L96.321,215.671 C96.651,213.266 96.468,209.656 95.913,207.649 C94.666,203.13 92.593,202.978 82.5,206.669 Z M113.836,190.255 C112.371,191.49 109.385,193.785 107.201,195.355 C103.785,197.812 103.14,198.885 102.591,203.028 C101.801,208.984 102.837,216 104.607,216.68 C106.288,217.325 120.053,213.188 121.851,211.497 C122.929,210.483 123.03,208.04 122.351,199.364 C121.521,188.764 121.439,188.494 119,188.255 C117.572,188.115 115.357,188.973 113.836,190.255 Z M107.102,161.059 L100.735,167.117 L101.359,172.309 C101.702,175.164 101.987,178.752 101.991,180.281 C101.996,181.811 102.608,183.296 103.35,183.581 C105.44,184.383 120,173.072 120,170.646 C120,169.532 119.452,165.893 118.783,162.56 C116.868,153.021 115.706,152.871 107.102,161.059 Z"/>
</svg>

