<svg xmlns="http://www.w3.org/2000/svg" width="300" height="300" viewBox="0 0 300 300" version="1.1">
  <defs/>
  <path d="M147.309,93.25 C148.815,90.923 153.715,91.789 155.801,94.75 C157.84,97.643 158,101.506 156.507,111.75 C155.786,116.704 155.865,117 157.91,117 C159.403,117 160.92,115.614 162.788,112.544 C164.28,110.092 166.095,107.844 166.822,107.547 C168.861,106.715 172.242,108.927 171.578,110.658 C171.26,111.486 171,113.603 171,115.362 C171,117.988 169.69,119.895 163.663,126.04 C154.568,135.314 152.47,139.217 150.514,150.5 C150.133,152.7 149.476,154.95 149.055,155.5 C147.834,157.094 145.887,166.008 146.532,167.051 C146.854,167.573 148.351,168 149.859,168 C153.041,168 155,169.62 155,172.25 C155,173.267 155.664,175.383 156.475,176.952 C157.945,179.795 162.263,198.038 161.847,199.651 C161.727,200.118 161.969,203.425 162.386,207 C163.077,212.928 164.505,217.595 167.048,222.236 C167.572,223.191 168,224.661 168,225.503 C168,226.344 169.688,227.798 171.75,228.733 C173.813,229.669 176.639,231.197 178.031,232.129 C181.254,234.288 190.307,235.006 218.792,235.363 C242.686,235.663 245.249,235.247 245.846,230.975 C246.036,229.614 246.583,228.023 247.061,227.44 C248.408,225.796 249.491,199.306 248.274,197.784 C247.709,197.078 246.925,193.8 246.533,190.5 C246.14,187.2 245.149,182.025 244.33,179 C241.093,167.032 240.189,161.527 241.249,160.225 C242.906,158.189 245.289,161.08 247.413,167.703 C248.435,170.891 250.104,175.863 251.122,178.751 C254.658,188.783 256.802,204.87 257.266,224.832 L257.552,237.164 L254.383,240.865 C250.831,245.015 242.666,247.92 239.322,246.223 C238.32,245.714 227.165,245.199 214.533,245.078 C201.901,244.957 189.751,244.453 187.533,243.957 C185.315,243.461 181.025,242.542 178,241.916 C170.455,240.353 165.07,237.721 161.406,233.804 C156.286,228.331 154.839,223.041 150.93,195.5 C150.384,191.65 149.501,187.719 148.968,186.764 C148.436,185.809 148,183.708 148,182.095 C148,177.893 147.054,176 144.952,176 C142.649,176 141.797,177.37 140.934,182.463 C140.557,184.684 139.563,188.525 138.725,191 C134.038,204.839 131.981,211.724 131.99,213.554 C131.996,214.683 130.897,217.833 129.549,220.554 C127.256,225.181 126.523,227.539 123.81,239 C123.224,241.475 122.127,244.388 121.372,245.473 C120.618,246.557 120,248.481 120,249.747 C120,253.023 115.588,254.615 112.365,252.504 C109.951,250.922 109.199,247.613 111,246.5 C111.55,246.16 111.999,245.121 111.997,244.191 C111.996,243.261 112.846,240.7 113.886,238.5 C116.442,233.094 117.725,229.34 121.233,217 C122.874,211.225 124.584,205.6 125.032,204.5 C125.48,203.4 126.594,199.8 127.507,196.5 C128.419,193.2 129.517,189.818 129.945,188.985 C130.373,188.151 132.384,181.176 134.413,173.485 C136.442,165.793 139.019,156.439 140.138,152.697 C142.959,143.269 141.554,140.656 136,145 C134.625,146.076 133.007,146.966 132.404,146.978 C131.801,146.99 129.891,147.707 128.159,148.57 C123.803,150.743 120.749,150.096 119.577,146.75 C117.95,142.104 119.796,139.076 125.5,137.033 C134.273,133.891 143.165,129.21 144.803,126.872 C146.075,125.054 146.401,121.619 146.445,109.552 C146.475,101.274 146.864,93.938 147.309,93.25 Z M68.597,51.305 C71.166,49.427 73.694,49.694 76.099,52.099 C77.872,53.872 78.091,54.907 77.512,58.766 C77.136,61.278 76.262,64.271 75.572,65.417 C74.881,66.563 73.748,69.525 73.054,72 C72.36,74.475 71.389,77.534 70.896,78.797 C68.89,83.94 70.926,84.43 76.359,80.112 C82.145,75.514 89.422,75.188 92.235,79.4 C93.335,81.047 93.15,89.789 92,90.5 C91.45,90.84 91,91.922 91,92.905 C91,94.977 88.311,100.69 86.937,101.539 C86.422,101.858 86,102.824 86,103.687 C86,105.036 83.21,110.3 78.717,117.432 C78.048,118.494 76.217,120.661 74.649,122.247 C73.08,123.833 72.023,125.357 72.299,125.633 C72.575,125.909 75.081,124.979 77.867,123.567 C86.392,119.248 93.135,120.494 96.506,127.011 C98.207,130.3 98.58,143.523 97,144.5 C96.45,144.84 96,147.511 96,150.437 C96,153.944 95.489,156.179 94.5,157 C93.675,157.685 93,159.246 93,160.469 C93,163.101 90.436,168.687 87.937,171.5 C86.96,172.6 86.012,174.835 85.83,176.466 C85.55,178.978 84.555,179.912 79.314,182.573 C75.912,184.301 71.715,186.904 69.987,188.357 C66.095,191.632 64.575,191.666 61.455,188.545 C57.477,184.568 58.057,183.128 66.25,176.632 C69.941,173.705 71,172.226 71,169.992 C71,164.421 68.442,165.307 65.197,172 C64.115,174.231 62.79,175.5 61.541,175.5 C59.597,175.5 58.861,173.767 57.294,165.5 C56.981,163.85 56.112,161.612 55.363,160.527 C54.613,159.443 54,157.975 54,157.267 C54,156.558 53.106,154.071 52.013,151.739 C50.92,149.408 49.908,145.25 49.763,142.5 C49.501,137.527 49.518,137.498 52.751,137.187 C55.46,136.925 56.163,137.3 56.976,139.437 C58.343,143.032 60.218,142.629 62.498,138.25 C63.571,136.188 65.978,132.588 67.845,130.25 C71.265,125.97 71.329,125.218 68.13,126.93 C67.15,127.455 65.79,127.488 65.01,127.006 C63.856,126.293 63.932,125.478 65.468,122.07 C66.481,119.825 67.937,117.467 68.704,116.831 C69.471,116.194 70.985,113.834 72.067,111.586 C73.15,109.339 74.425,106.825 74.902,106 C75.378,105.175 76.331,103.15 77.018,101.5 C77.705,99.85 78.738,97.478 79.314,96.23 C81.284,91.952 78.708,92.083 70.25,96.689 C63.532,100.348 62,101.619 62,103.532 C62,104.825 61.55,106.16 61,106.5 C60.45,106.84 60,108.035 60,109.155 C60,110.275 59.358,112.386 58.573,113.846 C57.787,115.306 55.083,120.802 52.562,126.06 C50.041,131.318 47.32,136.493 46.515,137.56 C45.71,138.627 43.557,141.525 41.731,144 C38.235,148.739 34.447,150.33 33.367,147.514 C32.769,145.956 36.197,138.552 40.158,132.846 C41.171,131.386 42,129.303 42,128.218 C42,127.133 42.675,125.685 43.5,125 C44.325,124.315 45,123.129 45,122.364 C45,121.599 45.412,120.191 45.916,119.236 C47.754,115.751 50,110.17 50,109.085 C50,107.997 50.501,106.796 52.844,102.264 C53.48,101.034 54.014,99.234 54.032,98.264 C54.049,97.294 54.724,95.626 55.532,94.559 C56.339,93.491 57,91.38 57,89.868 C57,88.355 57.45,86.84 58,86.5 C58.55,86.16 59,84.884 59,83.663 C59,82.443 59.709,80.433 60.575,79.197 C61.441,77.96 61.953,76.398 61.712,75.724 C61.471,75.051 61.875,73.31 62.609,71.855 C64.329,68.444 66.072,61.566 66.486,56.555 C66.679,54.221 67.541,52.078 68.597,51.305 Z M15.769,227.125 C19.54,225.231 26.386,225.233 28.45,227.128 C28.973,227.608 30.395,228 31.611,228 C32.881,228 34.98,229.383 36.542,231.25 C38.038,233.037 40.082,234.815 41.084,235.2 C42.954,235.919 47,243.208 47,245.859 C47,247.87 44.046,251 42.149,251 C40.054,251 33,246.018 33,244.538 C33,243.112 29.425,239.728 26.106,238.013 C24.193,237.024 22.925,237.035 19.805,238.064 C16.107,239.285 15.761,239.216 13.317,236.772 C9.806,233.26 10.721,229.659 15.769,227.125 Z M75.849,210.844 C80.345,206.826 84.212,207.212 89.175,212.175 C90.714,213.714 91.952,214.047 94.349,213.569 C99.275,212.586 100.9,212.757 102.581,214.439 C103.44,215.297 104.529,216 105,216 C107.186,216 109,219.426 109,223.552 C109,227.469 108.709,228.035 106.395,228.616 C104.308,229.139 103.347,228.714 101.563,226.476 C99.683,224.119 98.267,223.554 92.491,222.859 C87.245,222.227 85.032,221.447 83.018,219.517 C81.32,217.891 79.249,217 77.164,217 C72.454,217 71.893,214.378 75.849,210.844 Z M194.637,60.778 C194.902,60.35 196.286,60 197.714,60 C200.488,60 208,66.909 208,69.461 C208,70.218 208.63,72.112 209.4,73.669 C213.122,81.196 214.192,90.766 211.555,92.954 C210.76,93.614 209.073,94.006 207.805,93.827 C205.925,93.56 205.442,92.794 205.185,89.67 C205.012,87.563 204.003,84.413 202.943,82.67 C200.864,79.25 199.586,76.654 198.429,73.5 C195.161,64.596 194.223,61.449 194.637,60.778 Z M50.057,214.432 C52.696,211.251 56.201,212.957 60.58,219.555 C63.181,223.473 64.825,224.96 66.807,225.189 C69.21,225.467 69.533,225.966 69.811,229.824 C70.178,234.923 68.785,237 65,237 C62.848,237 61.233,235.741 57.624,231.25 C55.083,228.088 52.509,224.909 51.904,224.187 C49.857,221.744 48.766,215.986 50.057,214.432 Z M98.667,195.667 C99.033,195.3 101.472,195 104.085,195 C108.455,195 109.014,195.287 111.043,198.57 C112.805,201.42 113.072,202.759 112.367,205.216 C111.135,209.51 108.982,210.649 105.118,209.049 C103.333,208.309 102,207.021 102,206.034 C102,205.086 101.1,203.495 100,202.5 C98.053,200.738 97.325,197.008 98.667,195.667 Z M80.389,132.958 C77.883,133.997 76.591,136.801 77.894,138.377 C78.405,138.995 78.975,140.85 79.162,142.5 C79.473,145.257 79.848,145.525 83.797,145.81 L88.094,146.12 L87.797,139.31 C87.516,132.857 87.369,132.489 85,132.291 C83.625,132.177 81.55,132.476 80.389,132.958 Z M65.577,146.921 C62.943,149.618 61.929,151.464 62.165,153.13 C62.655,156.599 66.261,156.755 68.885,153.42 C70.986,150.748 71.785,144.603 70.163,143.6 C69.702,143.316 67.638,144.81 65.577,146.921 Z M82.011,159.487 C80.712,161.052 81.389,166 82.902,166 C83.378,166 84.038,164.988 84.37,163.75 C85.772,158.517 84.589,156.38 82.011,159.487 Z M67.667,64.667 C66.629,65.704 66.883,69 68,69 C68.55,69 69,67.875 69,66.5 C69,63.882 68.769,63.564 67.667,64.667 Z"/>
</svg>

