<svg xmlns="http://www.w3.org/2000/svg" width="300" height="300" viewBox="0 0 300 300" version="1.1">
  <defs/>
  <path d="M138.358,52.209 C139.251,50.787 142.123,51.339 145.757,53.632 C147.754,54.891 147.927,55.544 147.257,59.278 C146.841,61.6 146.5,66.65 146.5,70.5 C146.5,77.365 146.55,77.5 149.09,77.5 C154.558,77.5 156.733,82.122 152.898,85.593 C148.803,89.298 147.999,92.362 148.015,104.2 C148.024,110.415 148.417,116.109 148.888,116.853 C149.883,118.423 151.132,117.89 160.024,112.098 C168.282,106.719 169.3,106.088 171.75,104.832 C173.06,104.161 174,102.753 174,101.462 C174,100.243 174.653,98.703 175.452,98.04 C178.187,95.77 180.413,97.325 182.42,102.909 L184.356,108.293 L182.067,110.147 C180.808,111.166 178.526,112 176.995,112 C175.332,112 173.014,113.118 171.237,114.778 C169.601,116.306 164.941,119.28 160.881,121.387 C147.655,128.249 145.784,131.581 150.512,139.852 C151.88,142.246 153,144.82 153,145.574 C153,146.327 156.788,148.751 161.418,150.961 C166.048,153.17 170.567,155.71 171.462,156.604 C172.356,157.499 174.53,158.579 176.294,159.004 C185.834,161.307 202.287,166.949 204.012,168.511 C205.105,169.5 206,171.085 206,172.033 C206,174.434 203.376,176.364 201.263,175.517 C200.293,175.128 195.044,173.718 189.598,172.383 C184.152,171.049 178.077,169.127 176.098,168.112 C164.657,162.246 153.218,158.382 151.722,159.878 C151.229,160.371 151.084,168.716 151.395,178.633 C151.703,188.46 152.228,205.05 152.561,215.5 C152.894,225.95 153.587,234.936 154.102,235.468 C155.075,236.477 175.427,236.398 184.8,235.35 C190.99,234.658 193.495,232.794 191.998,229.996 C191.449,228.971 190.986,227.089 190.969,225.816 C190.952,224.542 189.831,221.25 188.478,218.5 C187.125,215.75 186.014,212.931 186.009,212.236 C185.999,210.844 185.604,209.933 181.681,202.249 C180.206,199.362 179,196.189 179,195.199 C179,194.21 178.475,192.875 177.833,192.233 C176.943,191.343 177.062,190.913 178.333,190.426 C179.25,190.074 180.667,190.042 181.482,190.355 C184.341,191.452 199,216.262 199,220.002 C199,220.881 199.543,222.143 200.206,222.806 C200.916,223.516 201.412,226.873 201.412,230.972 C201.412,236.983 201.077,238.291 198.956,240.561 C194.582,245.243 191.932,245.992 179.3,246.117 C172.81,246.181 164.575,246.519 161,246.867 L154.5,247.5 L154.649,251.5 C154.732,253.7 155.226,260.9 155.747,267.5 C156.269,274.1 156.498,280.045 156.256,280.712 C154.933,284.351 148,282.111 148,278.045 C148,277.14 147.538,275.938 146.973,275.373 C145.853,274.253 145.781,273.045 146.008,259.116 C146.116,252.465 145.774,249.347 144.83,248.408 C143.425,247.009 118.851,246.425 112.241,247.634 C110.448,247.962 108.404,247.75 107.698,247.164 C106.992,246.579 103.509,245.455 99.957,244.668 C90.397,242.548 83.034,239.426 79.485,235.986 C76.447,233.041 72,225.83 72,223.849 C72,223.321 70.65,220.167 69,216.841 C67.35,213.516 66,209.742 66,208.456 C66,207.17 65.613,205.879 65.141,205.587 C64.669,205.295 63.975,202.062 63.6,198.402 C63.036,192.899 63.212,191.423 64.614,189.874 C66.809,187.449 67.251,187.499 70.923,190.589 C73.592,192.834 74,193.831 74,198.102 C74,200.811 74.39,203.809 74.866,204.764 C76.332,207.704 78.202,213.349 78.754,216.5 C79.043,218.15 80.585,221.408 82.181,223.74 C85.515,228.612 93.573,232.972 100.735,233.779 L105.192,234.282 L104.725,228.391 C104.195,221.701 102.622,215.222 101.178,213.778 C99.755,212.355 96.298,213.753 95.713,215.988 C94.904,219.081 90.644,219.536 87.089,216.908 C82.981,213.871 82.549,211.966 84.312,204.676 C87.503,191.485 88,188.841 88,185.045 C88,182.885 88.45,180.84 89,180.5 C89.55,180.16 90,177.944 90,175.576 C90,168.476 95.608,163.412 98.976,167.471 C99.758,168.413 99.997,170.661 99.641,173.721 C98.733,181.527 98.449,183.601 99.321,184.379 C99.675,184.695 100.22,184.798 100.992,184.984 C104.218,185.764 107.962,192.332 107.984,197.25 C108.001,201.227 108.561,201.679 111.04,199.718 C115.904,195.87 136,161.57 136,157.116 C136,156.017 136.45,154.84 137,154.5 C137.55,154.16 138.016,152.221 138.035,150.191 C138.055,148.161 138.714,145.375 139.5,144 C140.286,142.625 140.945,139.588 140.965,137.25 C140.994,133.746 140.67,133 139.122,133 C138.09,133 136.706,133.649 136.048,134.442 C134.801,135.944 114.786,143 111.771,143 C109.497,143 106.76,138.719 107.173,135.808 C107.46,133.781 108.231,133.418 113.5,132.83 C116.8,132.461 122.95,130.773 127.167,129.08 C131.383,127.386 135.515,126 136.349,126 C138.733,126 139.068,123.204 138.01,112.105 C137.468,106.42 137.283,101.351 137.599,100.84 C138.714,99.035 135.048,95 132.291,95 C129.358,95 125,91.506 125,89.154 C125,86.71 128.119,84 130.932,84 C132.375,84 134.598,83.269 135.874,82.376 C138.135,80.792 138.185,80.416 137.87,67.126 C137.692,59.632 137.912,52.919 138.358,52.209 Z M60.505,66.401 C63.107,61.961 65.508,60.908 67.8,63.2 C69.483,64.883 69.293,69.623 67.428,72.469 C65.86,74.862 58.356,80.92 50.194,86.382 C46.983,88.53 46.078,89.675 46.638,90.882 C47.052,91.772 47.565,95.313 47.78,98.75 C48.218,105.758 49.268,106.482 53.076,102.403 C56.566,98.664 62.31,96 66.882,96 C70.302,96 71.339,96.578 74.459,100.223 C76.447,102.546 78.317,105.583 78.615,106.973 C78.912,108.363 79.609,110.442 80.163,111.593 C81.979,115.367 79.872,146.875 77.094,157.5 C76.518,159.7 76.037,163.611 76.024,166.191 C75.997,171.489 74.702,172.946 72.108,170.598 C71.137,169.719 69.978,169 69.532,169 C69.086,169 65.903,171.475 62.457,174.5 C55.705,180.428 53.326,181.123 50.496,177.996 C48.872,176.201 48.82,175.574 50.001,171.996 C50.727,169.798 51.611,168 51.968,168 C53.033,168 55.861,160.805 56.58,156.267 C57.15,152.663 56.971,151.946 55.375,151.444 C49.027,149.451 48.451,146.044 53.449,140.061 C56.961,135.858 57,135.707 57,126.464 C57,121.312 57.449,116.841 58,116.5 C59.506,115.569 59.201,113 57.584,113 C56.069,113 51.187,118.881 49.283,123 C48.59,124.501 47.927,133.689 47.626,146 C47.35,157.275 46.715,168.095 46.214,170.044 C45.682,172.114 45.671,174.581 46.186,175.974 C46.813,177.669 46.656,178.773 45.641,179.787 C44.405,181.023 43.95,180.95 42.24,179.24 C40.371,177.371 40.231,175.327 39.641,141.382 C38.979,103.291 38.588,98 36.435,98 C35.695,98 32.635,100.396 29.635,103.325 C24.423,108.414 24.065,108.59 21.59,107.293 C20.166,106.547 19,105.307 19,104.539 C19,100.765 33.213,84 36.413,84 C36.73,84 40.633,81.298 45.086,77.996 C49.54,74.694 54.251,71.724 55.555,71.397 C56.95,71.047 58.988,68.99 60.505,66.401 Z M137.645,179.193 C136.19,180.949 135,182.685 135,183.052 C135,183.895 122.703,200.743 119.893,203.75 C118.409,205.338 116.645,206 113.895,206 L110,206 L110,210.941 C110,213.659 110.382,216.118 110.85,216.407 C111.317,216.696 112.003,220.88 112.374,225.705 C112.745,230.529 113.6,235.009 114.274,235.659 C115.956,237.28 143.687,238.143 144.78,236.608 C145.214,235.998 145.241,230.55 144.84,224.5 C144.439,218.45 143.802,205.063 143.424,194.75 C142.678,174.362 142.359,173.503 137.645,179.193 Z M40.667,198.667 C41.918,197.415 46.339,197.997 48.171,199.655 C49.177,200.565 50,202.383 50,203.695 C50,206.494 46.827,213.069 44.573,214.939 C43.708,215.657 43,216.645 43,217.135 C43,218.075 36.497,232.447 34.916,235 C34.405,235.825 33.69,237.175 33.327,238 C32.417,240.07 26.861,247.235 25.015,248.718 C22.987,250.349 20.5,250.308 19.101,248.622 C17.779,247.029 18.443,245.136 23,237.5 C24.642,234.75 27.122,230.25 28.512,227.5 C29.902,224.75 31.443,221.825 31.935,221 C33.831,217.825 38,207.878 38,206.532 C38,205.754 38.45,204.84 39,204.5 C39.55,204.16 40,202.859 40,201.608 C40,200.357 40.3,199.033 40.667,198.667 Z M63.763,109.193 C63.52,109.912 64.567,111.425 66.09,112.555 C68.101,114.047 68.609,115.005 67.945,116.055 C66.818,117.837 66.702,126.698 67.798,127.375 C69.901,128.675 73,123.718 73,119.052 C73,117.359 72.48,114.966 71.845,113.736 C71.209,112.506 70.376,110.825 69.994,110 C69.102,108.077 64.348,107.462 63.763,109.193 Z M67.667,141.667 C67.3,142.033 67,143.972 67,145.976 C67,147.979 66.339,150.491 65.532,151.559 C63.493,154.255 63.649,155.754 66.048,156.515 C69.678,157.667 71,155.361 71,147.878 C71,142.813 70.649,141 69.667,141 C68.933,141 68.033,141.3 67.667,141.667 Z M93.45,196.488 C92.293,204.202 94.812,206.91 96.842,200.134 C98.568,194.373 98.34,192 96.061,192 C94.531,192 93.981,192.945 93.45,196.488 Z"/>
</svg>

