<svg xmlns="http://www.w3.org/2000/svg" width="300" height="300" viewBox="0 0 300 300" version="1.1">
  <defs/>
  <path d="M138.2,71.2 C139.755,69.645 140.492,69.686 144.05,71.526 C146.889,72.994 147,73.314 147,80.026 C147,88.016 148.81,89.43 151.797,83.773 C154.156,79.305 160.838,73.212 164.825,71.894 C166.691,71.278 170.09,71.086 172.572,71.459 C176.253,72.011 177.706,72.948 181.247,77.055 C186.654,83.327 187.352,85.931 187.4,100 C187.446,113.616 186.243,123.554 184.358,125.118 C183.611,125.738 183,127.479 183,128.988 C183,132.196 179.693,136.786 176.508,137.997 C174.738,138.67 174.133,139.937 173.575,144.147 C173.188,147.064 172.495,149.911 172.034,150.475 C170.738,152.061 170.328,164.274 171.557,164.685 C172.138,164.879 175.196,163.229 178.351,161.019 C181.507,158.809 184.29,157 184.536,157 C184.782,157 187.046,155.425 189.568,153.5 C195.67,148.842 198,148.855 198,153.548 C198,157.893 196.14,159.745 182.81,168.677 C177.462,172.26 172.636,175.734 172.086,176.397 C170.917,177.805 169.259,198.176 168.59,219.347 L168.121,234.194 L180.81,233.347 C213.21,231.184 261.008,233.698 270.93,238.087 C277.894,241.168 278.709,244.021 274.424,250.327 C272.361,253.363 271.315,254.057 269.174,253.809 C266.961,253.553 266.414,252.896 266,250 L265.5,246.5 L256.5,245.291 C225.953,241.188 205.319,240.509 182,242.841 C176.225,243.419 164.75,244.169 156.5,244.509 C148.25,244.848 136.839,245.567 131.143,246.108 C122.287,246.947 120.439,246.863 118.393,245.522 C115.795,243.82 115.186,239.919 117.25,238.209 C119.296,236.515 133.267,235 146.854,235 L159.563,235 L159.729,228.25 C159.819,224.537 160.18,213.485 160.53,203.689 C160.881,193.893 160.929,185.258 160.638,184.5 C160.246,183.479 158.363,184.27 153.352,187.561 C149.635,190.003 145.578,192 144.336,192 C141.968,192 138,188.493 138,186.4 C138,184.785 143.736,180 145.672,180 C146.508,180 148.386,179.159 149.846,178.131 C151.306,177.102 154.412,175.293 156.75,174.11 L161,171.959 L161,149.728 L156.663,150.323 C153.674,150.732 151.683,150.467 150.257,149.467 C147.369,147.445 144.256,140.437 143.607,134.5 C143.306,131.75 142.607,125.675 142.053,121 C141.499,116.325 140.653,107.309 140.173,100.965 C139.694,94.621 138.783,88.463 138.15,87.281 C136.627,84.434 136.663,72.737 138.2,71.2 Z M77.988,44.514 C79.561,42.619 80.726,42.69 84.5,44.912 C87.411,46.626 87.489,46.869 87.141,53.089 C86.944,56.615 86.506,59.95 86.169,60.5 C84.821,62.7 78.175,83.475 78.6,84.162 C78.851,84.568 81.209,84.644 83.84,84.332 C88.328,83.801 88.797,83.97 91.4,87.064 C93.727,89.83 94.081,90.979 93.588,94.181 C93.264,96.281 92.729,99.912 92.398,102.25 C92.066,104.588 91.391,106.927 90.898,107.45 C90.404,107.972 90,109.493 90,110.829 C90,112.164 88.184,115.917 85.965,119.168 C83.746,122.419 82.199,125.513 82.527,126.043 C83.172,127.087 87.907,126.286 89.45,124.871 C92.32,122.24 99.665,125.382 103.219,130.76 C106.605,135.886 108.687,146.592 107.152,150.993 C106.519,152.811 106,155.555 106,157.09 C106,158.626 105.55,160.16 105,160.5 C104.45,160.84 104,161.998 104,163.073 C104,165.048 103.746,165.691 100.466,172 C97.767,177.194 97.319,178.221 96.368,181.397 C95.676,183.705 93.671,185.277 86.5,189.133 C76.983,194.25 74.023,194.937 72,192.5 C71.315,191.675 69.833,191 68.706,191 C65.102,191 63.003,188.11 62.965,183.095 C62.945,180.568 62.286,177.375 61.5,176 C60.714,174.625 60.055,172.031 60.035,170.236 C60.016,168.441 59.624,166.191 59.164,165.236 C50.103,146.417 49.855,146.046 47.608,147.91 C46.724,148.644 45.985,150.202 45.967,151.372 C45.949,152.543 44.623,155.3 43.022,157.5 C41.421,159.7 39.165,163.075 38.009,165 C34.34,171.109 26,175.051 26,170.675 C26,169.912 27.553,167.253 29.452,164.767 C31.351,162.28 33.849,158.503 35.004,156.373 C36.159,154.243 37.502,151.825 37.988,151 C38.474,150.175 40.872,145.414 43.316,140.421 C45.76,135.427 48.938,129.474 50.38,127.191 C51.821,124.908 53,122.552 53,121.957 C53,121.009 56.55,112.763 59.111,107.764 C59.6,106.809 60,105.176 60,104.136 C60,103.096 60.675,101.685 61.5,101 C62.325,100.315 63,98.904 63,97.864 C63,96.824 63.395,95.191 63.877,94.236 C64.36,93.281 65.312,90.7 65.992,88.5 C66.673,86.3 67.79,83.15 68.475,81.5 C71.62,73.916 72,72.793 72,71.075 C72,70.069 72.675,68.685 73.5,68 C74.396,67.256 75,65.07 75,62.569 C75,60.266 75.646,57.509 76.436,56.441 C77.412,55.121 77.689,53.145 77.302,50.264 C76.937,47.555 77.185,45.482 77.988,44.514 Z M74.856,100.265 C71.443,103.294 68,108.897 68,111.422 C68,112.034 66.875,114.191 65.5,116.215 C64.125,118.238 63,120.451 63,121.131 C63,122.954 58.992,131.032 56.321,134.594 C55.044,136.296 54.003,138.321 54.006,139.094 C54.012,140.401 59.132,144 60.986,144 C61.439,144 62.931,142.088 64.301,139.75 C65.671,137.412 68.624,134.029 70.862,132.23 C73.759,129.903 75.25,127.742 76.038,124.73 C76.646,122.404 77.786,119.226 78.572,117.669 C79.357,116.112 80,113.839 80,112.619 C80,111.399 80.399,109.972 80.886,109.45 C81.373,108.927 82.081,105.912 82.458,102.75 C83.12,97.201 83.063,97.001 80.822,97.015 C79.545,97.023 76.86,98.486 74.856,100.265 Z M77.42,212.461 C78.455,208.34 84.964,209.906 88.807,215.2 C90.551,217.603 92.219,217.47 96.469,214.586 C98.426,213.258 101.907,211.854 104.206,211.465 C108.209,210.789 108.541,210.936 112.09,214.976 C114.127,217.296 116.358,221.207 117.047,223.669 C118.195,227.769 118.13,228.315 116.268,230.177 C113.72,232.725 110.556,231.911 108.506,228.179 C104.207,220.355 99,217.665 99,223.269 C99,226.514 97.18,228 93.204,228 C89.112,228 85.568,225.62 80.557,219.504 C77.662,215.971 76.944,214.359 77.42,212.461 Z M12.223,229.557 C17.004,226.207 19.919,227.393 28.25,236.077 C32.513,240.52 36.288,245.358 36.638,246.828 C36.989,248.297 37.696,250.035 38.21,250.69 C38.724,251.344 38.999,253.144 38.822,254.69 C38.568,256.906 37.925,257.566 35.778,257.814 C33.444,258.083 32.564,257.358 29.599,252.723 C25.265,245.947 19.957,240.429 16.87,239.491 C13.617,238.502 10,235.022 10,232.882 C10,231.909 11,230.413 12.223,229.557 Z M157.647,89.969 C155.641,92.189 154,94.524 154,95.158 C154,95.792 152.94,97.704 151.644,99.406 C149.623,102.06 149.357,103.318 149.768,108.25 C150.142,112.739 150.61,114 151.901,114 C156.713,114 161.432,107.085 162.478,98.5 C164.136,84.905 163.398,83.603 157.647,89.969 Z M153.714,122.23 C150.7,123.798 150.058,124.607 150.565,126.203 C150.914,127.306 151.53,130.636 151.933,133.603 C152.336,136.57 152.951,139.284 153.3,139.634 C154.08,140.413 159.797,138.138 160.689,136.693 C161.045,136.118 161.52,132.127 161.746,127.824 C162.148,120.153 162.11,120.003 159.828,120.131 C158.548,120.202 155.796,121.147 153.714,122.23 Z M46.152,221.885 C48.387,220.468 52.297,220.89 56,222.948 C57.925,224.018 60.982,225.606 62.794,226.478 C66.742,228.378 67.413,229.783 66.066,233.328 C64.735,236.827 61.722,236.801 57.14,233.25 C55.188,231.738 51.771,229.6 49.546,228.5 C45.364,226.433 43.796,223.378 46.152,221.885 Z M96.667,145.667 C96.3,146.033 96,147.672 96,149.308 C96,151.31 95.019,153.221 93,155.15 C91.35,156.727 90,158.877 90,159.928 C90,160.978 89.375,163.112 88.611,164.669 C86.507,168.956 84.999,174.189 85.591,175.147 C86.676,176.902 89.929,175.907 91.79,173.25 C93.682,170.549 94.616,167.673 95.677,161.285 C95.97,159.517 96.838,157.549 97.605,156.913 C98.482,156.185 99,153.757 99,150.378 C99,145.392 98.318,144.015 96.667,145.667 Z M71.226,147.498 C63.553,157.125 64.498,160.477 73.64,156.06 C79.241,153.354 80.152,151.918 79.801,146.348 C79.365,139.437 77.446,139.694 71.226,147.498 Z M72.407,168.502 C70.187,170.722 69.938,171.708 70.202,177.242 C70.436,182.133 70.862,183.549 72.175,183.799 C74.442,184.23 76.677,179.009 77.335,171.75 C77.935,165.121 76.641,164.268 72.407,168.502 Z M86.564,133.897 C86.259,134.39 86.286,136.809 86.624,139.272 L87.238,143.752 L92.617,143.626 C95.576,143.557 97.997,143.192 97.998,142.815 C98.003,141.05 95.88,136.88 94.04,135.04 C91.956,132.956 87.561,132.283 86.564,133.897 Z M167,81.902 C167,82.398 168.308,83.26 169.906,83.817 C173.072,84.921 174.857,88.543 173.099,90.301 C171.242,92.158 171.799,96.822 174.021,98.011 C177.051,99.633 178,98.409 178,92.875 C178,85.252 175.103,81.094 169.75,81.032 C168.238,81.014 167,81.406 167,81.902 Z M175.2,109.2 C174.54,109.86 174,112.314 174,114.653 C174,116.992 173.472,120.064 172.827,121.48 C171.135,125.194 173.241,127.242 175.891,124.461 C178.209,122.03 179.701,108 177.642,108 C176.959,108 175.86,108.54 175.2,109.2 Z"/>
</svg>

