<svg xmlns="http://www.w3.org/2000/svg" width="300" height="300" viewBox="0 0 300 300" version="1.1">
  <defs/>
  <path d="M82,20.633 C84.816,17.804 89.135,17.253 90.989,19.487 C93.35,22.331 91.163,25.728 82.749,32.284 C77.928,36.04 74.659,39.291 74.883,40.106 C75.473,42.248 76.727,47.858 78.16,54.757 C78.875,58.198 79.85,60.883 80.326,60.725 C80.802,60.566 82.836,57.975 84.846,54.968 C89.081,48.63 92.399,47.676 94.874,52.084 C96.228,54.496 96.118,54.962 93.218,59.084 C91.51,61.513 88.074,65.75 85.583,68.5 C82.613,71.779 81.045,74.426 81.027,76.191 C80.981,80.735 82.802,80.622 90.242,75.623 C93.757,73.261 96,74.122 96,77.834 C96,81.558 93.146,85.138 87.577,88.402 C82.248,91.525 79,95.412 79,98.666 C79,103.449 81.83,102.445 89.381,94.985 C98.101,86.37 99.579,85.405 101.552,87.043 C104.934,89.85 103.284,93.376 94.25,102.649 C85.465,111.666 81.53,117.039 80.394,121.565 C79.628,124.62 81.815,124.865 84.268,122 C85.447,120.623 87.218,120 89.955,120 C94.001,120 96.33,121.521 104.508,129.5 C110.512,135.358 110.54,135.486 106.84,139.942 C104.555,142.693 102.694,143.97 100.95,143.982 C97.991,144.003 96,142.343 96,139.857 C96,137.65 92.283,135 89.186,135 C87.884,135 84.946,136.605 82.659,138.568 C78.475,142.157 65.315,149 62.597,149 C60.928,149 57,143.912 57,141.751 C57,140.16 59.594,137.624 62.138,136.726 C63.794,136.142 65.276,128.289 63.891,127.433 C63.519,127.203 60.645,128.152 57.504,129.541 C54.362,130.93 49.86,132.332 47.499,132.655 C43.638,133.184 43.03,132.975 41.461,130.581 C38.384,125.884 42.491,121 49.518,121 C50.831,121 56.089,118.863 61.202,116.25 L70.5,111.5 L70.345,88 C70.17,61.349 69.274,46.079 67.778,44.25 C66.05,42.138 63.177,42.858 61.794,45.75 C60.258,48.963 53.433,51.817 50.404,50.512 C49.357,50.062 47.709,49.791 46.743,49.91 C45.777,50.03 44.714,49.418 44.381,48.551 C43.356,45.88 45.027,44.439 60.913,34.292 C64.536,31.978 67.903,30.066 68.396,30.042 C69.766,29.978 79.181,23.465 82,20.633 Z M77.268,159.25 C78.529,157.636 79.09,157.674 81.777,159.557 C83.611,160.841 84,162.065 84,166.557 C84,172.722 84.808,173.181 89.182,169.5 C94.126,165.34 98,166.678 98,172.545 C98,176.066 96.399,177.813 90.416,180.819 L86.331,182.872 L86.303,198.002 C86.272,214.632 86.71,216 92.066,216 C94.33,216 96.344,217.389 101.004,222.166 C104.313,225.558 107.622,229.496 108.359,230.916 C109.096,232.337 110.551,234.943 111.593,236.707 C113.013,239.111 113.201,240.199 112.344,241.056 C110.442,242.958 107.189,241.146 101.194,234.845 C98.062,231.553 94.025,227.947 92.222,226.831 C86.866,223.516 86,225.149 86,238.563 C86,245.03 85.571,250.147 85,250.5 C84.45,250.84 84.002,253.004 84.005,255.309 C84.015,263.864 79.38,272.127 75.422,270.608 C73.815,269.992 73.408,262.023 74.903,260.45 C76.118,259.172 76.935,252.057 77.626,236.75 C78.24,223.133 77.489,221.036 74.203,227.192 C73.267,228.947 70.592,232.476 68.26,235.035 C65.928,237.593 64.304,239.971 64.652,240.319 C65.587,241.253 63.012,243.99 61.128,244.065 C60.232,244.101 58.375,245.482 57,247.133 C48.912,256.846 41.103,263.89 37.719,264.525 C32.147,265.57 29.828,264.41 30.193,260.76 C30.451,258.179 31.4,257.2 36.169,254.596 C44.247,250.184 54,240.985 54,237.777 C54,236.384 54.71,234.656 55.578,233.935 C56.446,233.215 58.25,230.572 59.587,228.063 C60.924,225.553 62.576,222.611 63.259,221.524 C69.077,212.262 71,208.724 71,207.278 C71,206.353 72.381,204.17 74.07,202.428 C76.749,199.663 77.053,198.799 76.458,195.63 C75.625,191.19 74.257,191.077 68.841,195 C66.564,196.65 64.337,198 63.894,198 C63.451,198 61.587,199.019 59.752,200.264 C52.744,205.02 33.575,213.631 24.729,215.996 C20.432,217.145 19.757,217.09 17.932,215.438 C16.716,214.338 16.024,212.64 16.203,211.192 C16.455,209.143 17.704,208.372 24.5,206.069 C35.248,202.426 52.094,194.039 59,188.891 C60.925,187.457 64.18,185.737 66.233,185.069 C71.541,183.344 74,179.442 74,172.745 C74,167.355 75.377,161.668 77.268,159.25 Z M139.2,190.2 C139.86,189.54 141.12,189 142,189 C142.88,189 144.14,189.54 144.8,190.2 C146.249,191.649 146.408,200.63 145,201.5 C144.45,201.84 143.986,203.779 143.968,205.809 C143.951,207.839 143.276,210.374 142.468,211.441 C141.661,212.509 141,214.62 141,216.132 C141,217.645 140.55,219.16 140,219.5 C139.45,219.84 139,221.19 139,222.5 C139,223.81 138.592,225.134 138.092,225.443 C137.593,225.751 136.423,228.59 135.492,231.752 C134.562,234.913 133.314,238.522 132.72,239.77 C131.959,241.37 131.953,242.353 132.701,243.101 C134.278,244.678 141.493,240.667 143.652,237.012 C144.631,235.355 145.781,234 146.209,234 C147.876,234 153,225.562 153,222.818 C153,218.91 155.533,213.117 157.585,212.329 C161.354,210.883 166.378,215.347 178,230.469 C179.375,232.258 183.359,237.272 186.853,241.611 C193.372,249.706 203.988,266.742 204.015,269.151 C204.023,269.893 205.852,274.1 208.08,278.5 C213.022,288.263 215.224,294.416 214.811,297.314 C214.543,299.197 213.775,299.542 209.265,299.802 L204.029,300.104 L204.597,297.266 C205.184,294.33 201.299,283.921 199.112,282.569 C198.5,282.191 197.99,280.896 197.978,279.691 C197.966,278.486 197.076,276.375 196,275 C194.924,273.625 194.034,271.935 194.022,271.245 C193.944,266.847 184.317,252.272 175.366,243 C172.445,239.975 168.909,235.938 167.508,234.029 C164.604,230.072 162.453,228.602 160.939,229.538 C160.364,229.893 158.843,232.558 157.56,235.461 C154.408,242.588 145.634,248.907 133.107,253.071 C124.491,255.935 123.907,256.003 120.976,254.488 C116.711,252.282 116.454,250.825 119.482,246.028 C123.889,239.047 126,235.006 126,233.551 C126,232.787 126.751,230.663 127.669,228.831 C130.719,222.744 131,222.038 131,220.451 C131,219.585 131.702,216.541 132.56,213.688 C133.418,210.835 134.587,206.7 135.157,204.5 C135.728,202.3 136.601,199.719 137.097,198.764 C137.594,197.809 138,195.761 138,194.214 C138,192.666 138.54,190.86 139.2,190.2 Z M121.655,21.829 C123.907,19.341 130.137,19.389 132.421,21.913 C133.869,23.513 134.069,25.186 133.643,32.163 C133.364,36.748 132.649,43.65 132.056,47.5 C130.846,55.343 130.261,58.107 131.287,58.982 C131.96,59.556 133.327,59.317 135.666,59.166 C142.676,58.712 145.08,60.949 144.261,67.166 C143.947,69.55 143.156,72.4 142.503,73.5 C141.85,74.6 140.705,77.525 139.958,80 C139.212,82.475 137.624,86.087 136.429,88.027 C135.234,89.966 133.938,93.004 133.549,94.777 C132.72,98.552 132.91,98.594 141.5,96.52 C144.8,95.723 150.055,95.055 153.177,95.036 C158.142,95.004 159.115,95.331 160.927,97.635 C165.025,102.844 163.383,109.361 154.653,122.536 C152.537,125.73 150.558,129.053 150.255,129.921 C149.329,132.571 134.152,146.924 131.597,147.565 C130.279,147.896 127.762,149.957 126.003,152.146 C124.244,154.335 121.284,156.851 119.424,157.737 C116.258,159.247 115.916,159.234 114.022,157.52 C112.91,156.513 112,155.391 112,155.025 C112,153.617 119.228,146 120.564,146 C121.984,146 128.923,139.168 128.973,137.721 C128.988,137.292 131.836,134.142 135.301,130.721 C141.509,124.593 148.392,115.241 150.819,109.638 C153.104,104.365 148.907,102.47 141.654,105.5 C139.68,106.325 135.607,107 132.605,107 C127.903,107 126.859,106.636 125.081,104.375 C123.444,102.294 123.143,100.897 123.627,97.625 C124.159,94.029 128.371,83.751 132.488,76 C133.219,74.625 134.145,71.748 134.546,69.607 C135.276,65.716 135.275,65.714 132.388,66.377 C121.345,68.911 118.976,67.914 120.918,61.548 C121.513,59.597 122.45,56.506 123,54.679 C123.55,52.852 124,46.847 124,41.334 C124,32.58 123.747,31.081 122,29.5 C119.568,27.299 119.432,24.285 121.655,21.829 Z M122.311,169.25 C123.724,167.359 127.752,167.752 130,170 C132.415,172.415 132.682,179.514 130.468,182.441 C129.661,183.509 129,185.173 129,186.139 C129,187.59 122.068,202.547 118.868,208 C118.384,208.825 117.222,211.075 116.286,213 C112.788,220.192 108.328,222.928 105.2,219.8 C103.319,217.919 103.72,216.425 107.989,209.398 C110.183,205.787 112.65,200.851 113.473,198.428 C114.295,196.006 115.37,193.231 115.861,192.262 C117.25,189.523 118.765,184.104 120.129,177 C120.815,173.425 121.797,169.938 122.311,169.25 Z M155.464,167.289 C156.155,164.533 158.83,164.325 165.124,166.539 C172.05,168.975 177,172.665 177,175.392 C177,179.442 175.019,180.152 168.412,178.469 C165.161,177.64 161.225,176.45 159.666,175.825 C156.481,174.547 154.601,170.727 155.464,167.289 Z M74.964,128.543 C73.845,129.892 73.861,130.299 75.064,131.06 C77.063,132.323 78.5,131.671 78.5,129.5 C78.5,127.054 76.622,126.546 74.964,128.543 Z M61.5,40 C61.84,40.55 62.316,41 62.559,41 C62.802,41 63,40.55 63,40 C63,39.45 62.523,39 61.941,39 C61.359,39 61.16,39.45 61.5,40 Z"/>
</svg>

