<svg xmlns="http://www.w3.org/2000/svg" width="300" height="300" viewBox="0 0 300 300" version="1.1">
  <defs/>
  <path d="M67.283,45.202 C68.82,43.287 72.057,44.149 74.028,47 C75.473,49.091 75.622,50.565 74.935,56 C73.605,66.536 72.956,69.228 70.475,74.5 C66.104,83.788 66.135,84 71.882,84 C76.395,84 77.154,84.335 79.449,87.344 C80.852,89.184 81.993,91.771 81.985,93.094 C81.969,95.657 79.828,102.506 78.685,103.648 C78.308,104.025 78,105.122 78,106.086 C78,107.049 77.37,109.112 76.601,110.669 C72.025,119.927 70.208,123.594 71.309,125.047 C72.036,126.004 74.03,126 77.339,126 C83.302,126 83.867,126.207 86.839,129.473 C88.578,131.384 90,133.607 90,134.414 C90,135.222 90.45,136.16 91,136.5 C91.589,136.864 92,142.824 92,151 C92,159.176 91.589,165.136 91,165.5 C90.45,165.84 90,167.836 90,169.937 C90,172.111 89.354,174.291 88.5,175 C87.675,175.685 87,177.063 87,178.063 C87,179.064 86.55,180.16 86,180.5 C85.45,180.84 85,182.138 85,183.385 C85,185.967 81.65,189.42 78.097,190.501 C76.775,190.903 73.98,192.98 71.886,195.116 C67.527,199.564 66.293,199.805 62.635,196.927 C59.155,194.19 59.305,191.035 63.086,187.437 C68.084,182.68 68.432,181.378 65.537,178.257 C62.227,174.687 62.219,170.274 65.517,167.145 C67.664,165.109 68,163.912 68,158.299 C68,153.358 68.489,151.121 70.051,148.928 C71.8,146.472 72.38,146.22 73.98,147.22 C76.638,148.88 77.996,152.255 76.838,154.324 C75.449,156.807 78.42,157.61 81.508,155.587 C84.331,153.737 84.821,149.256 82.878,143.071 C80.982,137.036 80.463,136.493 76.703,136.606 C73.815,136.693 71.8,137.959 65.588,143.585 C61.415,147.365 58,150.888 58,151.414 C58,151.94 57.022,153.412 55.827,154.684 C53.748,156.898 53.705,157.333 54.833,164.749 C56.642,176.63 56.388,191.914 54.345,194.171 C52.322,196.406 51.589,196.446 49.571,194.429 C48.336,193.193 48,190.536 48,181.988 C48,175.82 47.567,170.851 47,170.5 C46.45,170.16 46,167.877 46,165.427 C46,162.977 45.616,160.191 45.147,159.236 C41.12,151.036 40.762,149.855 41.3,146.538 C41.616,144.592 41.522,143 41.092,143 C40.034,143 37.728,145.875 35.958,149.398 C33.077,155.138 24.187,162.669 21.508,161.641 C19.132,160.73 19.728,158.136 23.262,154.007 C25.057,151.91 27.583,148.239 28.877,145.848 C32.946,138.327 34.864,134.581 35.964,132 C36.55,130.625 37.89,128.15 38.942,126.5 C39.993,124.85 40.887,122.95 40.927,122.277 C40.994,121.148 44.965,111.791 47.086,107.764 C47.589,106.809 48,105.269 48,104.342 C48,103.416 48.582,101.947 49.293,101.079 C50.004,100.21 51.167,97.7 51.876,95.5 C53.316,91.034 55.606,85.397 57.048,82.764 C57.572,81.809 58,80.148 58,79.073 C58,77.998 58.45,76.84 59,76.5 C59.55,76.16 60,74.839 60,73.563 C60,72.288 60.675,70.685 61.5,70 C62.325,69.315 63,67.487 63,65.937 C63,64.386 63.412,62.863 63.915,62.552 C64.419,62.241 65.148,58.502 65.535,54.243 C65.923,49.984 66.709,45.916 67.283,45.202 Z M151.5,77.959 C152.6,77.501 155.209,77.098 157.298,77.063 C162.074,76.984 165.109,80.004 166.985,86.703 C168.801,93.191 169.495,121.206 167.912,124.164 C167.261,125.382 166.5,130.357 166.223,135.221 C165.753,143.472 165.534,144.196 162.955,146.032 C161.435,147.114 159.338,148 158.296,148 C157.253,148 155.973,148.377 155.45,148.838 C154.928,149.299 151.697,150.67 148.271,151.884 C143.64,153.526 141.553,153.831 140.141,153.075 C137.155,151.477 135.006,144.725 134.94,136.73 C134.908,132.753 134.443,127.25 133.908,124.5 C133.372,121.75 132.521,116.35 132.016,112.5 C130.274,99.211 128.772,92.798 126.015,86.876 C123.663,81.823 127.925,78.284 133.055,81.03 C135.506,82.341 138,87.13 138,90.524 C138,94.49 140.93,93.266 142.517,88.637 C143.951,84.457 148.294,79.294 151.5,77.959 Z M172,171.033 C186.98,169.258 189.941,170.543 194.905,180.968 C197.903,187.265 198.015,187.979 198.008,200.782 C198.002,210.312 197.576,215.079 196.5,217.654 C195.675,219.629 195,222.32 195,223.636 C195,224.951 194.605,226.809 194.123,227.764 C193.64,228.719 192.717,231.171 192.071,233.213 C191.029,236.51 191.155,237.375 193.199,240.94 C196.274,246.306 195.069,248.317 188.363,249.007 C185.391,249.313 182.3,250.406 180.581,251.757 C176.926,254.632 172.692,254.674 170.819,251.853 L169.393,249.707 L160.447,251.472 C155.526,252.443 149.783,253.92 147.685,254.753 C144.479,256.027 143.478,256.059 141.408,254.951 C138.599,253.447 137.226,249.453 138.709,247.095 C139.26,246.218 141.464,245.259 143.606,244.965 C145.748,244.671 148.099,244.059 148.831,243.606 C151.815,241.758 162.031,240.069 170.421,240.036 C179.534,239.999 183,238.703 183,235.331 C183,234.584 183.395,233.191 183.877,232.236 C187.946,224.183 191.707,196.307 189.08,193.68 C188.486,193.086 188,191.211 188,189.512 C188,187.578 186.928,185.141 185.132,182.989 L182.264,179.554 L173.909,180.772 C161.84,182.531 153.279,186.897 143.861,196.096 C133.776,205.946 132.684,208.418 133.449,219.67 C133.779,224.526 134.151,232.325 134.275,237 L134.5,245.5 L131.5,245.5 C128.71,245.5 128.482,245.22 128.239,241.5 C128.096,239.3 127.337,234.575 126.553,231 C124.354,220.968 123,212.689 123,209.271 C123,207.561 122.249,204.663 121.331,202.831 C118.287,196.757 118,196.039 118,194.5 C118,193.66 117.61,192.191 117.134,191.236 C115.537,188.033 114.417,183.515 114.783,181.751 C115.172,179.88 119.09,178.437 121.388,179.319 C123.321,180.06 126,185.739 126,189.095 C126,190.628 126.45,192.16 127,192.5 C127.55,192.84 128,194.216 128,195.559 C128,199.548 131.141,198.41 134.97,193.035 C142.515,182.446 159.164,172.554 172,171.033 Z M62.751,99.571 C59.41,102.738 55.491,109.619 53.612,115.618 C53.247,116.783 52.06,118.54 50.974,119.523 C49.889,120.506 49,122.359 49,123.641 C49,124.922 47.425,128.94 45.5,132.569 C41.452,140.2 41.236,141.377 44.048,140.485 C46.646,139.66 49,141.576 49,144.515 C49,147.722 51.837,148.558 52.934,145.675 C53.412,144.417 54.998,141.967 56.458,140.232 C57.919,138.497 59.374,135.372 59.692,133.288 C60.01,131.205 60.83,128.825 61.513,128 C62.197,127.175 63.009,125.15 63.317,123.5 C64.583,116.72 65.711,112.389 66.704,110.5 C68.412,107.247 70,101.554 70,98.679 C70,94.895 67.338,95.223 62.751,99.571 Z M69.491,218.01 C72.407,214.788 75.4,215.512 79.791,220.5 C84.434,225.774 86.729,226.179 88.306,222 C90.157,217.096 94.544,218.633 100.75,226.359 C102.845,228.967 102.305,235.638 99.811,237.961 C96.828,240.74 95.565,240.537 92.645,236.806 C90.358,233.883 89.924,233.714 87.526,234.806 C81.681,237.47 77.559,235.628 74.02,228.772 C72.807,226.422 70.882,223.492 69.743,222.26 C67.735,220.09 67.727,219.959 69.491,218.01 Z M166,205.78 C171.637,201.962 175.678,201.078 177.8,203.2 C181.272,206.672 176.774,211.999 166.557,216.517 C163.602,217.824 160.891,219.367 160.533,219.947 C160.175,220.526 159.186,221 158.336,221 C157.486,221 154.754,222.374 152.265,224.054 C146.496,227.947 142.647,227.788 142.173,223.636 C141.715,219.637 145.714,215.77 153.884,212.309 C157.523,210.767 162.975,207.829 166,205.78 Z M7.485,237.806 C10.143,236.684 11.227,236.145 12.25,236.242 C13.175,236.33 14.052,236.938 16,238.106 C28.064,245.338 34.587,259 25.976,259 C25.503,259 22.503,256.707 19.308,253.905 C13.758,249.037 13.304,248.837 9.083,249.409 C3.813,250.123 1,248.207 1,243.904 C1,240.843 1.58,240.298 7.485,237.806 Z M150.667,90.667 C148.65,92.683 147,94.87 147,95.526 C147,96.182 145.43,98.245 143.511,100.11 C141.592,101.974 140.017,104.207 140.011,105.072 C139.995,107.367 143.066,116 143.898,116 C144.288,116 146.158,114.387 148.054,112.415 C149.949,110.443 152.85,108.13 154.5,107.275 C158.679,105.11 158.967,104.415 158.985,96.45 C159.007,86.126 156.766,84.568 150.667,90.667 Z M156,118.917 C156,119.513 155.553,120 155.008,120 C154.462,120 152.951,120.925 151.65,122.056 C150.35,123.187 147.759,124.875 145.893,125.806 C142.619,127.441 142.497,127.71 142.417,133.5 C142.372,136.8 142.533,140.063 142.774,140.75 C143.453,142.68 146.969,142.135 153,139.165 L158.5,136.456 L158.5,127.562 C158.5,121.335 158.125,118.542 157.25,118.25 C156.563,118.021 156,118.321 156,118.917 Z M37.2,225.2 C37.86,224.54 39.07,224 39.888,224 C42.06,224 47.91,228.212 48.569,230.251 C48.881,231.214 50.071,232.503 51.214,233.115 C52.899,234.016 53.477,233.9 54.259,232.501 C55.808,229.734 58.88,227 60.441,227 C62.287,227 63.344,228.67 62.016,229.49 C61.457,229.835 61,230.921 61,231.902 C61,232.883 59.954,235.669 58.677,238.093 C56.838,241.58 55.741,242.562 53.417,242.795 C50.973,243.041 49.268,241.942 43.24,236.228 C35.998,229.363 34.95,227.45 37.2,225.2 Z M76.75,171.853 C75.787,173.944 75,176.408 75,177.328 C75,178.256 75.778,178.997 76.75,178.994 C78.838,178.986 82,173.821 82,170.419 C82,166.561 78.781,167.44 76.75,171.853 Z"/>
</svg>

