<svg xmlns="http://www.w3.org/2000/svg" width="300" height="300" viewBox="0 0 300 300" version="1.1">
  <defs/>
  <path d="M185.568,45.889 C186.31,44.689 189.693,44.765 192.066,46.035 C196.33,48.318 193.048,57 187.92,57 C186.094,57 184.686,57.718 184,59 C183.21,60.476 181.906,61 179.024,61 C176.876,61 174.84,61.45 174.5,62 C174.16,62.55 172.759,63 171.386,63 C170.013,63 166.86,63.925 164.38,65.055 C161.899,66.185 157.536,67.355 154.684,67.656 C151.833,67.956 148.281,69.056 146.79,70.101 C145.3,71.145 143.5,72.004 142.79,72.01 C142.081,72.015 139.141,73.118 136.257,74.46 C132.05,76.419 131.04,77.355 131.145,79.201 C131.217,80.465 130.827,82.625 130.279,84 C129.73,85.375 129.451,91 129.658,96.5 C129.865,102 129.547,108.75 128.952,111.5 C128.357,114.25 127.223,120.775 126.433,126 C125.643,131.225 124.35,137.525 123.56,140 C122.769,142.475 120.922,148.55 119.453,153.5 C117.985,158.45 116.382,162.928 115.892,163.45 C115.401,163.973 114.997,165.548 114.994,166.95 C114.99,168.353 114.363,170.697 113.6,172.16 C112.837,173.623 111.443,177.898 110.503,181.66 C108.184,190.939 106.331,196.338 102.899,203.82 C101.305,207.296 100,210.785 100,211.573 C100,212.362 99.1,214.686 98,216.739 C96.9,218.791 96,221.179 96,222.044 C96,222.91 95.339,224.491 94.532,225.559 C93.724,226.626 93.049,228.497 93.032,229.715 C93.014,230.933 92.1,232.411 91,233 C89.846,233.618 89,235.094 89,236.491 C89,237.822 87.875,240.569 86.5,242.595 C85.125,244.621 84,247.359 84,248.679 C84,250 83.091,252.862 81.98,255.04 C79.918,259.081 77.476,260.076 75.2,257.8 C73.782,256.382 73.613,250.706 74.916,248.236 C76.709,244.837 79,239.181 79,238.154 C79,237.58 80.522,234.048 82.382,230.305 C86.803,221.41 87.259,219.717 85.755,217.776 C83.377,214.708 77.062,212 72.285,212 C68.304,212 63.327,210.395 57,207.07 C56.175,206.637 55.5,205.206 55.5,203.891 C55.5,201.776 56.013,201.463 59.941,201.183 C62.383,201.009 65.308,201.318 66.441,201.871 C67.573,202.423 72.382,203.164 77.126,203.517 C81.871,203.87 86.985,204.798 88.491,205.579 C89.996,206.361 91.391,207 91.589,207 C92.573,207 95.393,199.589 101.863,180 C105.768,168.175 109.466,157.15 110.08,155.5 C113.703,145.763 118.972,117.389 119.923,102.5 C120.415,94.8 121.134,87.27 121.522,85.767 C121.91,84.263 121.965,82.351 121.645,81.516 C121.143,80.208 120.518,80.283 117.099,82.065 C114.92,83.201 112.6,84.776 111.946,85.565 C110.557,87.239 105.716,87.453 102.934,85.965 C101.825,85.371 101,83.878 101,82.465 C101,79.794 104.156,76 106.378,76 C107.135,76 108.315,75.325 109,74.5 C109.685,73.675 111.029,73 111.988,73 C112.946,73 114.897,72.082 116.323,70.961 C117.748,69.839 122.647,67.625 127.208,66.041 C131.768,64.457 137.525,62.453 140,61.588 C147.592,58.935 164.421,53.995 165.857,53.998 C166.603,53.999 169.978,52.684 173.357,51.076 C176.736,49.467 180.742,47.842 182.259,47.465 C183.777,47.087 185.266,46.378 185.568,45.889 Z M60.357,71.901 C65.01,68.192 65.916,67.848 69.862,68.291 C75.921,68.97 78.282,71.588 78.322,77.673 C78.368,84.824 77.023,90.187 74.478,93 C73.234,94.375 70.487,98.875 68.374,103 C66.261,107.125 64.034,110.82 63.426,111.21 C56.108,115.909 56.619,118.873 64.108,115.166 C72.967,110.782 78.565,112.325 81.184,119.871 C82.755,124.396 82.935,146.129 81.418,148.096 C80.823,148.868 79.742,152.074 79.016,155.219 C77.745,160.724 77.437,161.112 70.773,165.583 C66.965,168.137 63.626,170.81 63.353,171.522 C63.08,172.234 61.597,173.339 60.058,173.976 C55.916,175.691 50,173.088 50,169.551 C50,166.671 49.72,166.534 47.137,168.146 C46.128,168.777 44.131,168.999 42.7,168.64 L40.098,167.987 L40.62,155.741 L41.141,143.495 L38.206,139.443 C33.944,133.559 32.29,128.561 33.945,126.566 C35.603,124.568 37.95,124.576 40.824,126.589 C43.824,128.69 45.999,127.721 46.003,124.281 C46.005,122.71 47.743,118.891 50,115.5 C52.196,112.2 53.995,109.214 53.997,108.864 C53.999,108.514 55.753,105.589 57.895,102.364 C65.913,90.294 68.943,82.842 66.856,80.326 C65.61,78.825 61.358,79.526 58.921,81.634 C56.617,83.628 54,83.334 54,81.082 C54,77.687 55.112,76.081 60.357,71.901 Z M148.031,101.6 C151.114,96.137 151.298,96 155.56,96 C158.961,96 160.176,96.461 161.042,98.078 C162.246,100.328 159.77,106.17 151.672,120.193 C148.004,126.545 147.889,127.003 149.404,129.166 C151.734,132.492 151.377,134.777 148,138.154 C146.35,139.804 145,141.535 145,142 C145,142.465 146.35,144.196 148,145.846 C150.36,148.206 151,149.723 151,152.954 C151,155.762 151.496,157.253 152.567,157.664 C154.814,158.526 156.078,156.839 156.709,152.136 C157.345,147.392 159.044,145.562 161.953,146.485 C165.397,147.578 166.025,149.737 167.71,166.276 C168.502,174.048 164.544,177.967 158.934,174.965 C157.69,174.299 157,172.873 157,170.965 C157,169.334 156.64,168 156.2,168 C154.551,168 153,170.492 153,173.141 C153,174.649 152.55,176.16 152,176.5 C151.45,176.84 150.991,178.779 150.979,180.809 C150.936,188.504 146.219,205.373 141.042,216.351 C138.928,220.833 136.907,225.788 136.552,227.363 C135.757,230.882 131.013,237 129.079,237 C127.292,237 124,234.082 124,232.499 C124,230.976 126.749,225.459 129.604,221.252 C130.824,219.454 133.254,213.374 135.004,207.742 C136.754,202.109 138.785,195.7 139.517,193.5 C140.249,191.3 141.143,188.037 141.503,186.25 C142.057,183.504 141.868,183 140.279,183 C139.246,183 137.924,183.476 137.342,184.058 C136.761,184.639 133.858,185.336 130.892,185.606 C120.298,186.57 117.425,182.047 120.435,169.146 C122.108,161.98 123.194,158.595 124.975,155 C125.978,152.976 130.027,153.096 131.348,155.19 C132.158,156.474 131.896,157.918 130.258,161.199 C129.071,163.574 127.803,167.38 127.439,169.656 C126.857,173.295 127.032,173.876 128.892,174.466 C131.878,175.413 139.655,171.298 141.957,167.553 C143.562,164.941 143.696,163.705 142.882,159 C142.359,155.975 141.529,152.6 141.038,151.5 C140.548,150.4 139.741,148.15 139.245,146.5 C138.661,144.558 137.58,143.388 136.18,143.182 C133.784,142.829 131,139.458 131,136.911 C131,136.007 131.984,132.898 133.188,130.002 C135.368,124.757 135.369,124.706 133.594,115.925 C132.614,111.078 132.133,106.595 132.523,105.962 C133.235,104.81 138.36,105.074 142.685,106.486 C144.57,107.101 145.305,106.43 148.031,101.6 Z M181.641,148.273 C184.085,146.486 184.611,146.638 186.78,149.75 C189.515,153.676 190.711,160.194 190.53,170.196 C190.414,176.642 189.876,179.815 188.451,182.461 C186.979,185.194 186.784,186.436 187.615,187.765 C188.778,189.622 199.438,196 201.379,196 C202.021,196 204.937,197.575 207.86,199.5 C210.783,201.425 213.473,203.009 213.837,203.02 C214.202,203.032 217.65,205.493 221.5,208.49 C225.35,211.487 230.298,215.19 232.495,216.72 C234.692,218.249 240.652,222.875 245.739,227 C250.827,231.125 258.41,237.2 262.591,240.5 C282.832,256.477 283.648,257.39 282.833,263.148 C282.387,266.299 278.825,266.723 275.097,264.069 C273.499,262.931 271.811,261.991 271.346,261.979 C270.881,261.968 265.775,257.405 260,251.84 C254.225,246.275 247.7,240.595 245.5,239.217 C241.432,236.67 230.382,228.149 226.422,224.506 C223.207,221.548 215.429,216 214.497,216 C214.052,216 212.187,214.854 210.351,213.454 C208.515,212.054 205.322,210.133 203.256,209.187 C198.609,207.057 190.301,202.232 187.115,199.812 C184.093,197.516 181.097,197.489 180.39,199.75 C180.089,200.713 179.203,202.694 178.422,204.154 C177.64,205.614 177,207.447 177,208.227 C177,210.327 170.974,221.073 169.474,221.648 C168.763,221.921 167.92,223.182 167.602,224.45 C167.284,225.717 165.893,227.495 164.512,228.4 C163.13,229.306 162,230.666 162,231.424 C162,232.182 160.537,233.744 158.75,234.895 C156.963,236.046 153.552,238.566 151.171,240.494 C144.305,246.057 138.949,246.316 138.177,241.124 C137.92,239.389 138.754,238.554 142.318,236.977 C147.337,234.757 155.303,226.637 162.347,216.56 C164.906,212.899 167,209.656 167,209.353 C167,209.05 167.638,207.384 168.418,205.651 C172.317,196.987 174,192.591 174,191.073 C174,190.153 174.526,188.874 175.168,188.232 C178.033,185.367 179.187,179.107 179.539,164.523 C179.847,151.706 180.15,149.363 181.641,148.273 Z M57.843,29.028 C60.177,27.665 62.314,27.778 64.502,29.378 C66.246,30.653 66.305,31.369 65.297,39.004 C64.698,43.541 63.762,47.534 63.216,47.877 C62.671,48.219 61.277,51.576 60.119,55.335 C58.96,59.094 57.337,63.369 56.511,64.835 C54.118,69.083 48.312,83.301 47.546,86.789 C47.161,88.543 46.431,90.234 45.923,90.548 C45.415,90.861 45,91.998 45,93.073 C45,94.148 44.589,95.809 44.087,96.764 C41.156,102.336 36.997,112.016 36.153,115.226 C35.615,117.275 33.785,121.01 32.087,123.526 C30.389,126.042 29,128.698 29,129.428 C29,130.158 28.325,131.315 27.5,132 C26.675,132.685 26,134.315 26,135.622 C26,136.93 25.559,138 25.019,138 C24.48,138 23.762,139.098 23.425,140.441 C22.673,143.438 12.622,154 10.522,154 C8.18,154 8.673,149.761 11.5,145.595 C12.875,143.569 14,141.536 14,141.078 C14,140.62 14.631,139.721 15.402,139.081 C16.173,138.442 17.073,136.845 17.402,135.533 C17.731,134.222 20.701,127.53 24,120.661 C27.3,113.793 30,107.7 30,107.121 C30,106.542 30.737,104.365 31.639,102.284 C34.175,96.426 34.825,94.698 35.502,92 C35.848,90.625 37.058,87.475 38.192,85 C39.326,82.525 40.701,79.375 41.249,78 C41.796,76.625 42.864,74.306 43.622,72.846 C44.38,71.386 45,69.338 45,68.296 C45,67.253 45.421,65.973 45.935,65.45 C46.869,64.502 50.528,52.627 51.929,46 C52.336,44.075 53.681,40.531 54.918,38.125 C56.156,35.719 56.947,32.905 56.677,31.873 C56.388,30.769 56.869,29.596 57.843,29.028 Z M170.644,93.499 C172.308,91.835 176.229,92.115 178.582,94.068 C179.645,94.95 181.488,104.042 182.394,112.871 C183.123,119.98 184.278,120.057 190.802,113.431 C198.302,105.814 202.209,103 205.286,103 C209.212,103 210.199,105.215 210.288,114.227 C210.366,122.08 210.189,122.779 206.805,128 C204.844,131.025 202.286,134.357 201.12,135.405 C199.954,136.453 199,137.883 199,138.582 C199,140.129 194.26,144 192.365,144 C190.158,144 190.754,141.54 195,133.119 C198.729,125.724 200.011,120.955 198.25,121.033 C197.13,121.083 193.648,124.199 191.898,126.717 C189.569,130.069 182.973,135 180.817,135 C179.768,135 177.872,133.963 176.605,132.696 C174.571,130.662 174.235,129.115 173.726,119.446 C173.341,112.11 172.467,106.612 171.076,102.775 C168.575,95.878 168.561,95.582 170.644,93.499 Z M21.5,209.828 C23.15,209.447 26.499,209.284 28.943,209.467 C32.416,209.726 33.945,210.453 35.943,212.798 C37.349,214.448 39.46,216.281 40.634,216.872 C43.43,218.28 44.761,224.668 42.689,226.74 C40.806,228.623 38.098,227.304 32.204,221.633 C28.41,217.984 27.357,217.5 23.204,217.5 L18.5,217.5 L18.5,214.01 C18.5,210.952 18.872,210.434 21.5,209.828 Z M0,220.812 C0,212.376 0.858,212.189 8.31,219 C11.319,221.75 14.415,224 15.19,224 C18.94,224 20.322,229.882 17.345,233.171 C14.417,236.407 10.392,235.521 3.208,230.062 C0.15,227.738 0,227.306 0,220.812 Z M53.296,133.78 C49.294,135.703 49.026,136.425 49.84,143.096 C50.395,147.641 50.847,148.549 52.682,148.811 C54.009,149 55.231,148.411 55.798,147.311 C56.952,145.073 58.054,133.142 57.155,132.621 C56.795,132.412 55.058,132.933 53.296,133.78 Z M67.625,150.862 C66.152,152.489 64,158.059 64,160.243 C64,162.03 67.021,160.777 68.808,158.25 C71.49,154.454 72.627,149 70.734,149 C69.951,149 68.552,149.838 67.625,150.862 Z M68.25,125.662 C66.138,126.514 66.716,132.778 69.021,134.011 C70.132,134.606 71.482,134.82 72.021,134.487 C73.401,133.634 73.241,127.641 71.8,126.2 C70.521,124.921 70.205,124.873 68.25,125.662 Z"/>
</svg>

