<svg xmlns="http://www.w3.org/2000/svg" width="300" height="300" viewBox="0 0 300 300" version="1.1">
  <defs/>
  <path d="M65.789,3.119 C66.028,1.555 72.573,2.173 74.324,3.924 C74.9,4.5 75.379,12.399 75.459,22.643 C75.538,32.874 75.999,40.481 76.548,40.638 C78.009,41.056 81.917,31.917 82.632,26.411 C83.62,18.796 87.143,16.009 91.171,19.655 C93.388,21.661 93.533,26.455 91.494,30.364 C90.672,31.94 90,33.899 90,34.717 C90,36.597 81.58,46.075 78.393,47.782 C76.26,48.925 76.002,49.739 76.015,55.282 C76.037,63.891 76.721,64.693 81.825,62.09 C84.077,60.94 87.176,60.007 88.71,60.015 C92.439,60.035 98.456,62.197 100.874,64.386 C102.415,65.781 103.265,65.929 104.851,65.08 C107.723,63.543 113.28,63.744 115.559,65.468 C116.626,66.276 118.628,66.951 120.006,66.968 C122.765,67.003 123.698,65.431 126.506,56 C127.407,52.975 128.562,49.719 129.072,48.764 C129.582,47.809 130,45.64 130,43.944 C130,41.354 129.655,40.912 127.842,41.18 C126.537,41.374 124.917,42.983 123.744,45.25 C120.024,52.44 116.592,48.789 115.553,36.538 C114.876,28.547 112.087,18.421 109.425,14.285 C107.565,11.395 107.586,4.589 109.459,3.034 C111.376,1.443 116.729,2.625 117.951,4.908 C118.465,5.868 119.194,9.094 119.572,12.077 C119.949,15.06 120.875,19.017 121.629,20.872 C122.383,22.727 123,25.989 123,28.122 C123,30.938 123.419,32 124.531,32 C125.374,32 126.328,31.308 126.653,30.463 C126.977,29.618 128.488,28.282 130.01,27.495 C131.532,26.708 134.276,24.474 136.109,22.532 C137.941,20.589 140.156,19 141.031,19 C143.273,19 147,22.716 147,24.95 C147,26.946 141.689,32 139.592,32 C138.902,32 137.754,33.091 137.041,34.424 C135.909,36.538 136.025,37.304 137.942,40.406 C140.113,43.919 140.12,44.056 138.479,51.232 C137.565,55.229 136.444,59.4 135.988,60.5 C135.532,61.6 134.452,64.708 133.587,67.406 C131.696,73.309 131.733,73.368 141.381,79.674 C145.296,82.234 149.428,85.153 150.561,86.161 C151.695,87.169 155.07,89.281 158.061,90.855 C167.846,96 178.413,102.065 179.972,103.429 C180.812,104.164 184.002,105.936 187.059,107.365 C190.117,108.795 193.677,111.092 194.971,112.469 C197.136,114.774 197.229,115.291 196.135,118.945 C195.48,121.129 194.482,123.202 193.916,123.552 C192.339,124.527 183.817,121.696 183.225,120 C182.401,117.636 178.79,114 177.267,114 C176.506,114 174.222,112.67 172.191,111.045 C170.161,109.42 166.889,107.421 164.92,106.603 C162.952,105.785 160.759,104.415 160.048,103.558 C159.337,102.701 158.297,102 157.738,102 C157.178,102 153.351,99.975 149.234,97.5 C145.116,95.025 141.536,93 141.279,93 C141.022,93 138.149,90.975 134.895,88.5 C131.64,86.025 128.125,84 127.084,84 C125.879,84 124.186,85.727 122.429,88.75 C118.389,95.699 115.257,99.774 108.785,106.5 C105.61,109.8 102.994,113.175 102.972,114 C102.95,114.825 102.063,117.3 101,119.5 C99.225,123.174 98.354,128 99.465,128 C99.72,128 101.944,126.875 104.407,125.5 C109.602,122.6 113.584,122.314 116.171,124.655 C118.595,126.849 118.511,132.081 116,135.273 C114.9,136.671 114,138.236 114,138.749 C114,139.263 110.513,143.357 106.25,147.848 C100.949,153.432 97.779,156.01 96.219,156.006 C94.964,156.003 93.671,156.694 93.345,157.543 C92.398,160.011 93.632,160.331 97.188,158.54 C103.694,155.264 118.313,153.22 126.481,154.445 C129.103,154.838 132.286,156.211 134.085,157.725 C136.816,160.023 137.105,160.752 136.537,163.915 C136.183,165.887 135.645,169.702 135.341,172.393 C135.023,175.205 132.975,180.945 130.525,185.893 C128.181,190.627 125.981,195.175 125.638,196 C125.294,196.825 124.63,198.175 124.162,199 C121.673,203.388 121,205.214 121,207.582 C121,210.652 117.477,216 115.455,216 C114.68,216 113.309,217.125 112.408,218.5 C110.291,221.73 107.228,221.73 106,218.5 C104.985,215.83 103.111,215.289 101.267,217.133 C99.621,218.779 97.334,217.546 95.516,214.032 C93.994,211.087 94.033,210.823 96.464,207.636 C99.644,203.467 99.663,201.481 96.544,199.437 C92.932,197.07 91.656,198.446 92.313,203.999 C92.929,209.193 91.924,211 88.422,211 C85.509,211 84.328,209.375 82.945,203.461 C82.307,200.732 81.177,197.15 80.434,195.5 C79.692,193.85 77.765,189.575 76.153,186 C74.54,182.425 71.833,177.765 70.136,175.645 C68.439,173.524 66.79,170.149 66.471,168.145 C66.152,166.14 65.465,163.719 64.945,162.764 C63.435,159.99 63.814,158.719 67.259,155 C73.943,147.783 78.066,141.995 82.313,133.869 C84.718,129.266 87.702,123.718 88.944,121.54 C90.744,118.382 91.08,116.66 90.6,113.04 C90.033,108.759 90.195,108.343 93.446,105.75 C95.342,104.237 97.359,103 97.929,103 C100.576,103 110.998,90.864 114.856,83.29 C117.616,77.871 117.561,77.196 114.25,75.785 C112.737,75.141 110.746,73.986 109.824,73.219 C108.903,72.452 107.346,71.979 106.364,72.168 C104.615,72.505 104.122,73.817 101.951,83.904 C99.968,93.117 87.434,104.901 85.362,99.5 C85.045,98.675 83.574,98 82.093,98 C79.019,98 77,96.377 77,93.907 C77,91.821 74.624,90.776 73.176,92.224 C72.589,92.811 72.326,94.464 72.593,95.896 C73.197,99.142 69.736,105 67.215,105 C66.217,105 64.86,104.46 64.2,103.8 C62.828,102.428 62.558,93.391 63.865,92.583 C65.014,91.873 65.903,84.944 65.27,81.634 C64.669,78.488 62.728,78.282 59.273,81 C57.874,82.1 55.462,83 53.912,83 C52.362,83 49.936,83.528 48.52,84.173 C46.606,85.045 45.656,85.056 44.815,84.215 C42.823,82.223 47.024,78.643 60.36,70.965 L66.5,67.431 L66.319,57.615 C66.078,44.612 65.918,44.261 61.438,46.904 C59.484,48.057 56.358,49 54.49,49 C52.622,49 49.966,49.514 48.588,50.142 C44.755,51.888 41,49.074 41,44.456 C41,40.037 44.539,37.88 48.4,39.946 C50.94,41.306 61.342,40.647 64.065,38.955 C65.217,38.239 65.508,34.747 65.539,21.281 C65.561,12.052 65.674,3.879 65.789,3.119 Z M167.5,238.217 C171.055,236.263 178.223,236.83 181.032,239.286 C185.557,243.243 186.42,245.092 186.665,251.359 C186.977,259.365 185.821,263.445 180.98,271.412 C178.791,275.016 177,278.412 177,278.959 C177,279.506 175.905,280.671 174.567,281.548 C172.675,282.788 171.675,282.896 170.067,282.036 C167.035,280.413 167.438,275.901 171.355,267.605 C173.2,263.697 175.291,258.335 176.002,255.688 L177.295,250.876 L172.934,246.433 C168.993,242.417 168.244,242.051 165.158,242.63 C162.58,243.114 161.85,242.949 162.181,241.957 C162.422,241.234 163.267,240.344 164.06,239.979 C164.852,239.614 166.4,238.821 167.5,238.217 Z M115,163.732 C108.579,164.489 97.013,167.991 91.753,170.771 C87.045,173.259 86.483,173.923 85.825,177.776 C85.233,181.246 85.551,182.933 87.549,186.911 C88.897,189.595 90,192.288 90,192.895 C90,195.379 92.75,193.534 96.876,188.281 C100.442,183.741 101.375,181.672 101.913,177.104 C102.277,174.021 102.922,170.936 103.346,170.249 C104.502,168.378 107.457,168.742 109.508,171.008 C111.171,172.847 111.521,172.889 113.627,171.508 C116.924,169.348 118.929,169.632 121.731,172.655 C124.646,175.8 125.96,174.655 125.985,168.95 C126.009,163.226 124.676,162.593 115,163.732 Z M16.741,79.734 C17.938,78.411 19.519,77.987 22.448,78.202 C26.482,78.499 26.509,78.529 28.631,84.96 C29.803,88.514 31.225,91.575 31.791,91.764 C32.357,91.952 33.945,90.894 35.319,89.412 C36.903,87.704 38.41,86.943 39.432,87.335 C42.365,88.461 42.44,91.206 39.678,96.384 C37.897,99.726 37.336,101.736 38.001,102.401 C40.528,104.928 37.631,111 33.9,111 C32.226,111 24,100.836 24,98.767 C24,98.269 22.54,95.754 20.754,93.18 C18.969,90.606 16.964,86.939 16.297,85.032 C15.264,82.075 15.33,81.293 16.741,79.734 Z M11.143,265.009 C14.548,263.557 25.958,264.41 29.818,266.406 C31.634,267.345 34.832,269.66 36.925,271.551 C39.018,273.442 42.359,275.67 44.348,276.501 C50.378,279.02 50.387,284.933 44.364,286.445 C41.662,287.123 34.905,283.507 28.215,277.801 C25.436,275.431 24.036,275 19.12,275 C12.75,275 10.698,273.672 9.471,268.757 C8.904,266.486 9.192,265.842 11.143,265.009 Z M97.25,245.662 C99.616,244.708 102.064,245.003 102.563,246.303 C103.203,247.971 100.59,254.265 98.558,255.952 C97.701,256.663 97,257.831 97,258.547 C97,260.099 88.983,267.974 87.389,267.989 C85.96,268.003 71.827,258.701 70.081,256.598 C69.352,255.719 67.55,255 66.078,255 C60.713,255 59.135,250.009 63.75,247.639 C69.598,244.634 79.435,248.638 84.847,256.226 C87.109,259.398 91.141,258.152 93.667,253.5 C94.861,251.3 95.875,248.75 95.919,247.833 C95.964,246.917 96.563,245.94 97.25,245.662 Z M107,241.634 C107,240.439 107.923,240 110.435,240 C115.545,240 117.954,241.234 123.876,246.882 C129.69,252.427 132.92,253.243 139.553,250.845 C141.31,250.209 143.52,249.986 144.464,250.348 C146.069,250.964 146.059,251.216 144.306,254.253 C143.275,256.039 140.954,258.246 139.147,259.157 C137.34,260.069 135.07,261.532 134.102,262.407 C133.134,263.283 130.975,264 129.303,264 C126.862,264 125.304,262.9 121.382,258.407 C118.697,255.331 114.362,250.666 111.75,248.041 C109.138,245.415 107,242.532 107,241.634 Z M82,72.11 C77.669,73.337 75,76.346 75,80.004 C75,83.023 76.472,84 81.023,84 C84.59,84 85.024,84.709 85.288,90.965 C85.404,93.734 85.725,95.993 86,95.984 C87.419,95.942 88.769,94.185 89.419,91.535 C89.819,89.904 91.013,86.666 92.073,84.34 C94.005,80.099 94.662,73.527 93.242,72.65 C91.385,71.502 85.195,71.205 82,72.11 Z M90.396,139.75 C90.099,140.713 89.551,141.995 89.178,142.6 C86.191,147.449 82.481,152.22 78.591,156.214 C76.066,158.806 74,161.811 74,162.892 C74,165.098 76.493,168 78.387,168 C79.737,168 83.993,161.085 84.011,158.864 C84.017,158.114 85.704,155.693 87.761,153.484 C92.717,148.161 100,139.287 100,138.571 C100,138.257 97.961,138 95.469,138 C92.026,138 90.807,138.42 90.396,139.75 Z M51.241,95.325 C52.656,94.54 53.212,94.16 53.779,94.143 C54.328,94.125 54.887,94.447 56.248,95.067 C58.42,96.057 58.538,96.511 57.864,101.317 C56.232,112.96 54.597,116 49.967,116 C45.68,116 44.694,113.953 45.522,106.776 C46.3,100.042 47.664,97.312 51.241,95.325 Z M116.366,183.25 C112.296,187.521 108,196.089 108,199.935 C108,202.289 108.365,202.41 111.08,200.957 C113.477,199.674 116.895,194.252 119.805,187.117 C123.588,177.84 122.591,176.719 116.366,183.25 Z"/>
</svg>

