<svg xmlns="http://www.w3.org/2000/svg" width="300" height="300" viewBox="0 0 300 300" version="1.1">
  <defs/>
  <path d="M40.081,95.849 C41.274,93.619 43.158,93.513 46.928,95.463 C49.964,97.033 51,98.813 51,102.459 C51,105.484 53.346,107.342 56.071,106.477 C57.292,106.09 59.317,106.367 60.71,107.112 C66.806,110.375 69.429,123.308 68.355,144.808 C67.723,157.45 67.548,158.294 64.845,161.695 C63.28,163.664 62,165.648 62,166.103 C62,166.558 60.65,168.312 59,170 C57.35,171.688 56,173.927 56,174.975 C56,176.024 55.61,177.123 55.133,177.418 C54.185,178.004 53.19,183.891 52.329,194 C50.921,210.558 51.55,211.754 57.465,203.762 C63.548,195.543 74.038,186.089 77.128,186.041 C81.202,185.978 82.267,188.047 79.96,191.546 C77.103,195.88 77.489,196.674 82.786,197.377 C89.169,198.224 91.122,199.793 93.5,205.984 C94.6,208.848 96.326,211.634 97.335,212.176 C101.806,214.576 103.911,228.259 100,229.5 C96.721,230.541 94.614,229.234 92.523,224.861 C90.231,220.069 85.083,211.679 82.08,207.842 C80.936,206.38 80,204.044 80,202.651 C80,201.258 79.524,199.824 78.943,199.465 C77.384,198.501 73,199.84 73,201.281 C73,201.964 70.188,205.979 66.75,210.203 C63.313,214.427 58.7,220.217 56.5,223.07 C51.132,230.032 48.654,231.619 45.439,230.154 C41.293,228.265 40.966,225.549 42.572,206.299 C43.388,196.51 44.287,187.75 44.569,186.834 C45.564,183.599 42.877,183.879 38.959,187.418 C34.276,191.649 31.408,191.989 29.818,188.5 C29.192,187.125 28.301,186 27.839,186 C26.273,186 26.99,183.319 29.057,181.449 C30.59,180.061 30.935,178.94 30.413,177.044 C30.028,175.645 29.587,171.543 29.434,167.929 C29.077,159.526 24.496,137.23 22.444,133.909 C21.198,131.893 23.064,119.913 24.722,119.276 C27.422,118.24 29.478,120.509 30,125.102 C30.403,128.644 30.884,129.5 32.472,129.5 C34.025,129.5 34.606,128.557 35.202,125.063 C35.729,121.974 37.029,119.53 39.48,117.021 C43.572,112.829 43.607,112.545 41.038,104.099 C39.646,99.52 39.373,97.171 40.081,95.849 Z M156.657,140.475 C162.774,136.431 163.924,136.017 167.5,136.575 C169.7,136.918 173.323,137.989 175.552,138.956 C179.966,140.869 186,147.649 186,150.694 C186,151.742 186.368,153.028 186.817,153.55 C188.959,156.039 191.585,173.008 190.235,175.636 C189.708,176.661 188.999,179.634 188.659,182.242 C188.082,186.668 188.256,187.178 191.27,189.902 C203.805,201.227 215.152,212.8 216.493,215.627 C217.367,217.467 218.886,219.404 219.869,219.93 C220.852,220.456 224.434,226.26 227.828,232.827 C232.366,241.605 234,245.824 234,248.759 C234,250.955 235.051,255.17 236.336,258.126 C240.056,266.682 241.196,272.022 240.259,276.5 C239.566,279.81 238.969,280.553 236.797,280.808 C234.783,281.044 234.007,280.578 233.464,278.808 C233.075,277.539 231.236,274.624 229.378,272.332 C227.52,270.039 226,267.593 226,266.896 C226,266.199 225.067,264.636 223.927,263.422 L221.853,261.215 L224.083,259.137 L226.313,257.06 L224.501,250.28 C223.419,246.229 221.545,242.178 219.845,240.215 C218.28,238.409 217,236.34 217,235.618 C217,232.619 205.466,217.412 196.457,208.534 C191.136,203.29 186.425,199 185.989,199 C184.959,199 183,204.638 183,207.602 C183,208.869 182.608,210.94 182.129,212.203 C181.651,213.466 180.481,217.2 179.53,220.5 C178.579,223.8 177.396,227.281 176.9,228.236 C176.405,229.191 176,230.697 176,231.582 C176,232.467 175.155,234.386 174.122,235.846 C173.089,237.306 171.933,240.363 171.552,242.641 C170.685,247.838 167.406,251.002 162.16,251.705 C158.743,252.164 157.588,251.805 154.64,249.373 C147.752,243.69 140.018,231.001 141.341,227.554 C141.669,226.699 143.06,226 144.431,226 C146.35,226 147.832,227.335 150.858,231.79 C153.02,234.975 155.49,238.162 156.347,238.873 C159.901,241.822 162.493,239.065 166.567,228 C167.478,225.525 168.809,222.15 169.524,220.5 C170.24,218.85 171.282,215.7 171.842,213.5 C172.401,211.3 173.79,206.337 174.929,202.472 C176.068,198.606 177,194.765 177,193.935 C177,192.029 168.083,185.306 164.328,184.38 C162.772,183.997 160.425,182.987 159.112,182.136 C157.799,181.285 155.597,180.569 154.221,180.545 C150.55,180.479 149.104,177.648 151.429,175.078 C154.521,171.662 159.08,171.473 166.842,174.44 C170.651,175.895 174.565,177.967 175.539,179.043 C178.345,182.144 179.694,181.404 180.252,176.46 C180.897,170.736 180.002,159.119 178.861,158.414 C178.387,158.121 178,156.987 178,155.893 C178,154.799 176.809,152.801 175.354,151.452 C173.246,149.499 171.644,149 167.476,149 C164.178,149 161.81,149.525 161.067,150.42 C160.419,151.2 157.612,152.658 154.829,153.659 C152.046,154.659 148.916,156.563 147.873,157.889 C145.925,160.366 141.668,163 139.614,163 C138.977,163 136.891,164.276 134.978,165.836 C131.906,168.34 126.196,171 123.89,171 C122.14,171 119,166.483 119,163.966 C119,160.779 122.223,157.564 124.755,158.226 C125.756,158.487 128.404,157.756 130.64,156.601 C137.775,152.913 145.799,147.947 147.041,146.45 C147.703,145.653 148.598,145 149.029,145 C149.461,145 152.893,142.964 156.657,140.475 Z M133.461,7.25 C136.07,4.912 139.007,3 139.987,3 C142.018,3 145.018,7.047 144.964,9.715 C144.894,13.192 140.536,16.929 128.637,23.715 C124.268,26.207 123,30.584 123,43.175 C123,50.229 123.415,55.138 124.044,55.527 C125.563,56.466 128,54.093 128,51.675 C128,50.531 129.438,48.111 131.196,46.298 C135.141,42.228 138.693,42.029 142.984,45.64 C147.834,49.721 149.722,55.104 150.476,67 C152.164,93.611 151.552,98.402 146.316,99.542 C141.559,100.578 139.019,102.233 136.884,105.687 C134.501,109.544 130.378,110.18 127.606,107.118 C124.873,104.098 126.534,100.752 134.592,93.042 C139.726,88.13 142,85.227 142,83.585 C142,80.619 139.258,79.457 137.027,81.476 C135.061,83.255 131.864,83.464 130.315,81.915 C129.719,81.319 128.201,80.981 126.943,81.165 C124.914,81.462 124.628,82.121 124.41,87 C124.134,93.184 122.307,113.942 121.383,121.386 L120.777,126.273 L123.634,125.556 C126.743,124.776 135,118.473 135,116.881 C135,116.339 136.359,115.422 138.021,114.843 C139.683,114.264 141.499,112.937 142.056,111.895 C142.614,110.853 143.929,110 144.978,110 C147.09,110 150,113.528 150,116.088 C150,118.151 136.774,132 134.804,132 C134.003,132 132.292,133.125 131,134.5 C129.708,135.875 128.232,137 127.72,137 C127.207,137 125.903,135.875 124.821,134.5 C123.74,133.125 122.01,132 120.977,132 C119.423,132 118.982,133.039 118.418,138.022 C118.043,141.335 117.346,144.286 116.868,144.581 C116.391,144.877 116,146.862 116,148.994 C116,154.979 114.49,158 111.5,158 C106.441,158 106.285,153.845 110.487,131 C114.044,111.655 115.148,100.083 115.114,82.5 C115.057,52.92 114.239,33.58 113.029,33.176 C112.428,32.976 110.88,33.504 109.59,34.349 C108.3,35.194 106.031,36.024 104.549,36.193 C102.216,36.459 101.672,35.98 100.503,32.628 C99.229,28.979 99.288,28.621 101.531,26.378 C102.839,25.07 104.803,24 105.896,24 C106.988,24 108.178,23.521 108.539,22.936 C108.901,22.351 112.713,20.154 117.012,18.054 C126.065,13.63 127.097,12.952 133.461,7.25 Z M47.578,20.75 C48.591,19.744 50.181,19.828 52,20.984 C53.157,21.719 53.5,24.058 53.5,31.218 L53.5,40.5 L56.188,40.32 C57.667,40.221 61.388,38.534 64.458,36.57 C70.918,32.437 71.142,32.394 73.359,34.844 C74.891,36.537 74.899,36.997 73.465,40.429 C72.19,43.48 70.759,44.712 65.701,47.11 C56.932,51.267 52.767,53.891 51.02,56.36 C48.691,59.652 46,64.869 46,66.092 C46,66.697 45.188,68.386 44.196,69.846 C43.204,71.306 41.561,74.525 40.546,77 C37.218,85.114 34.852,90.344 29.388,101.656 C26.425,107.792 24,113.446 24,114.219 C24,114.993 22.65,116.919 21,118.5 C19.35,120.081 18,122.199 18,123.207 C18,124.215 16.933,126.73 15.629,128.796 C14.324,130.863 12.942,133.989 12.556,135.743 C12.171,137.498 10.749,140.564 9.397,142.556 C8.045,144.549 5.491,149.176 3.722,152.84 L0.504,159.5 L0.188,150.5 C-0.033,144.227 0.301,140.591 1.291,138.5 C3.427,133.986 7.6,125.607 13.081,114.824 C15.787,109.502 18,104.613 18,103.96 C18,103.307 18.855,101.136 19.901,99.136 C20.946,97.136 22.533,93.832 23.427,91.792 C24.322,89.753 25.491,87.814 26.027,87.483 C26.562,87.153 27,86.285 27,85.555 C27,84.824 29.025,79.923 31.5,74.662 C33.975,69.401 36,64.85 36,64.548 C36,63.23 29.447,64.182 24.821,66.173 C18.849,68.742 16.665,67.961 16.182,63.084 C15.747,58.69 17.067,57.471 23.808,56.041 C26.99,55.365 32.048,53.617 35.047,52.156 C40.141,49.675 40.582,49.17 41.742,44.5 C42.426,41.75 43.22,36.953 43.506,33.839 C43.997,28.509 45.889,22.429 47.578,20.75 Z M105.592,184.852 C107.4,181.926 114.538,186.745 115.191,191.333 C115.5,193.497 120,195.195 120,193.146 C120,192.6 121.165,190.769 122.589,189.077 C126.563,184.354 130.634,184.792 136.407,190.564 L140.971,195.129 L142.607,191.314 C145.354,184.909 145.654,184.5 147.609,184.5 C149.126,184.5 149.427,185.094 149.13,187.5 C148.926,189.15 148.696,194.1 148.619,198.5 C148.463,207.316 147.862,209 144.867,209 C142.528,209 131.182,198.569 129.911,195.25 C128.974,192.802 125.843,192.249 124.249,194.25 C123.701,194.938 122.976,197.75 122.638,200.5 C120.949,214.224 120.838,214.5 117.009,214.5 C114.002,214.5 113.289,214.015 111.862,211 C110.951,209.075 109.675,205.025 109.026,202 C108.377,198.975 107.22,194.071 106.455,191.102 C105.691,188.133 105.302,185.32 105.592,184.852 Z M45.116,73.75 C48.883,70.619 58.61,71.378 68.807,75.598 C73.588,77.577 77.725,79.539 78,79.958 C78.275,80.378 79.948,81.463 81.717,82.369 C86.457,84.797 93,91.386 93,93.73 C93,95.923 89.138,99 86.386,99 C85.46,99 83.218,97.471 81.403,95.603 C77.567,91.653 68.117,86 65.351,86 C64.303,86 62.354,85.236 61.02,84.301 C59.686,83.367 55.657,82.121 52.067,81.532 C46.69,80.65 45.317,80.024 44.275,77.981 C43.165,75.801 43.267,75.288 45.116,73.75 Z M42.003,128.492 C41.451,129.943 41,131.518 41,131.993 C41,132.467 39.83,133.775 38.401,134.899 C35.428,137.238 33.619,143.42 35.099,146.185 C35.633,147.183 36.409,148 36.823,148 C37.237,148 39.72,145.822 42.342,143.16 C47.066,138.364 47.107,138.267 46.805,132.42 C46.563,127.745 46.137,126.45 44.753,126.187 C43.615,125.97 42.656,126.774 42.003,128.492 Z M38.37,158.25 C38.701,159.488 38.979,163.088 38.986,166.25 C38.998,171.167 39.267,172 40.845,172 C43.913,172 45.748,168.831 46.491,162.25 L47.196,156 L42.482,156 C38.08,156 37.807,156.15 38.37,158.25 Z M132.766,56.75 C131.917,57.712 130.917,59.936 130.545,61.692 C129.898,64.734 130.034,64.916 133.426,65.552 C138.674,66.537 140,65.665 140,61.231 C140,55.34 136.127,52.94 132.766,56.75 Z M54.514,121.956 C54.173,123.032 54.362,125.619 54.934,127.706 C55.506,129.793 56.093,132.62 56.237,133.99 C56.389,135.429 57.238,136.62 58.25,136.813 C59.782,137.105 60,136.274 60,130.155 C60,126.31 59.727,122.452 59.393,121.582 C58.54,119.358 55.259,119.61 54.514,121.956 Z M124.036,65.456 C122.675,67.096 123.436,69 125.452,69 C126.968,69 128.292,66.282 127.444,64.91 C126.632,63.595 125.42,63.789 124.036,65.456 Z"/>
</svg>

