<svg xmlns="http://www.w3.org/2000/svg" width="300" height="300" viewBox="0 0 300 300" version="1.1">
  <defs/>
  <path d="M26.152,106.868 C28.761,104.605 28.975,104.593 31.777,106.557 C33.759,107.945 34.005,109 34.044,116.307 C34.068,120.813 34.491,126.525 34.985,129 C35.479,131.475 36.204,140.4 36.596,148.833 C37.001,157.52 37.784,164.684 38.405,165.36 C41.756,169.013 44.931,174.849 46.641,180.5 C47.805,184.349 50.09,184.331 52,180.458 C58.393,167.493 59.317,162.867 55.651,162.168 C54.632,161.974 52.544,163.02 51,164.5 C47.353,167.994 44.599,167.507 44.191,163.297 C43.594,157.144 48.404,152.812 57.319,151.475 C61.461,150.854 62.43,151.056 64.461,152.963 C66.717,155.083 66.914,155.103 69.411,153.466 C71.588,152.04 72.484,151.958 74.911,152.963 C76.505,153.623 78.035,155.027 78.311,156.082 C79.061,158.951 81.656,158.416 86.585,154.377 C92.27,149.719 98.675,148.675 101.883,151.883 C103.632,153.632 104,155.206 104,160.941 C104,164.759 103.55,168.16 103,168.5 C101.295,169.554 101.899,172.876 104,174 C108.404,176.357 105.068,181.102 93.5,188.933 C87.041,193.306 85.251,193.819 84.379,191.546 C84.072,190.746 82.287,189.187 80.411,188.08 C77.198,186.184 77,185.754 77,180.656 C77,175.806 75.721,171.377 73.057,167 C72.555,166.175 71.901,164.713 71.604,163.75 C71.306,162.787 70.2,162 69.145,162 C67.632,162 67.081,162.972 66.537,166.604 C65.957,170.472 66.178,171.561 67.923,173.418 C71.472,177.195 70.634,180.316 64.75,185.234 C56.445,192.176 49.167,197 46.998,197 C44.152,197 41.006,193.477 40.968,190.25 C40.938,187.631 39.004,184 37.64,184 C37.288,184 37,187.606 37,192.014 C37,202.438 38.801,205.954 44.156,205.985 C47.26,206.003 69.018,201.695 77,199.483 C85.029,197.257 96.93,196.147 100.066,197.331 C105.1,199.231 107.753,195.78 104.842,191.119 C102.762,187.789 104.483,185.848 109.209,186.192 C113.582,186.511 113.371,186.299 117.116,194.163 C117.552,195.077 118.215,198.227 118.591,201.163 C118.989,204.276 120.756,209.277 122.83,213.164 C125.847,218.816 126.187,220.069 125.071,221.414 C122.725,224.241 119.478,223.32 116.633,219.021 C115.185,216.833 114,214.667 114,214.209 C114,211.929 102.427,203.615 100.729,204.674 C100.053,205.095 97.25,205.723 94.5,206.069 C91.75,206.416 86.125,207.617 82,208.738 C77.875,209.86 72.7,211.084 70.5,211.459 C68.3,211.833 64.479,212.814 62.01,213.639 C59.54,214.464 53.015,215.365 47.51,215.641 C37.617,216.136 37.464,216.109 34.412,213.321 C29.279,208.63 29,207.398 29,189.387 C29,178.967 28.551,171.401 27.812,169.357 C26.873,166.76 26.896,165.563 27.922,163.647 C28.76,162.079 29.008,159.503 28.623,156.361 C28.296,153.687 27.628,144.687 27.14,136.359 C26.652,128.032 25.97,120.76 25.623,120.199 C25.277,119.639 24.769,116.83 24.496,113.958 C24.071,109.496 24.312,108.464 26.152,106.868 Z M148.45,26.906 C149.812,25.607 151.243,25.781 153.777,27.557 C156.232,29.276 156.583,31.691 154.718,34.023 C153.2,35.921 144.23,41.568 141.382,42.418 C137.22,43.662 135.726,46.588 135.219,54.494 C134.743,61.912 134.765,62 137.172,62 C138.643,62 140.952,60.613 143,58.5 C148.544,52.78 155.48,54.064 159.95,61.639 C161.82,64.81 161.999,66.751 161.993,83.807 C161.988,100.052 161.754,102.854 160.205,105.202 C158.113,108.374 152.941,112.997 151.482,112.999 C150.922,112.999 148.793,114.136 146.75,115.524 C144.11,117.318 142.309,117.865 140.518,117.415 L138,116.783 L138,128.233 C138,135.509 137.457,141.471 136.511,144.591 C135.692,147.291 135.017,152.286 135.011,155.691 C135.005,159.096 134.55,162.16 134,162.5 C133.45,162.84 133,164.147 133,165.404 C133,168.222 129.784,171.296 127.324,170.829 C125.04,170.396 124.375,165.148 126.037,160.669 C129.198,152.151 130.276,109.072 128.042,80.5 C127.354,71.7 126.725,61.279 126.645,57.342 C126.565,53.406 126.24,49.921 125.923,49.599 C125.606,49.276 121.625,49.479 117.077,50.05 C108.04,51.183 106,50.543 106,46.578 C106,43.864 107.786,42 110.386,42 C115.344,42 126.42,38.305 136.5,33.288 C142.55,30.277 147.928,27.405 148.45,26.906 Z M166.43,149.393 C173.049,146.681 175.848,146.082 182,146.058 C192.887,146.016 201.361,149.23 206.852,155.484 C209.62,158.637 210,159.78 210,164.954 C210,168.452 209.323,172.189 208.331,174.169 C205.262,180.293 205,180.964 204.985,182.736 C204.977,183.706 204.344,186.297 203.58,188.494 C202.017,192.985 202.278,193.723 207.479,199.5 C209.46,201.7 212.005,205.253 213.135,207.396 C214.265,209.539 218.297,215.981 222.095,221.713 C225.893,227.444 229,232.291 229,232.484 C229,232.677 231.025,236.26 233.5,240.446 C235.975,244.632 238,248.665 238,249.406 C238,250.148 238.675,251.315 239.5,252 C240.325,252.685 241,253.939 241,254.786 C241,256.94 244.213,264 245.192,264 C245.637,264 246,264.886 246,265.97 C246,267.053 246.896,269.534 247.99,271.483 C250.925,276.708 251.591,282.266 249.529,284.328 C246.867,286.99 245.58,286.385 239.794,279.75 C232.549,271.441 231,268.046 231,260.469 C231,256.156 230.539,253.863 229.5,253 C228.675,252.315 228,251.023 228,250.128 C227.999,248.716 215.629,227.48 210.346,219.824 C202.616,208.62 200.58,206.003 199.608,206.025 C198.126,206.057 195,212.474 195,215.482 C195,216.802 194.55,218.16 194,218.5 C193.45,218.84 193,219.976 193,221.025 C193,222.868 192.583,223.988 188.081,234.239 C186.937,236.846 186,239.415 186,239.948 C186,242.514 182.262,248.083 180.166,248.639 C178.297,249.136 176.846,248.288 172.882,244.384 C170.16,241.703 166.148,236.582 163.968,233.004 C161.787,229.427 158.65,224.974 156.996,223.109 C154.668,220.482 154.244,219.411 155.117,218.359 C158.09,214.777 164.355,219.164 171.253,229.656 C174.421,234.474 175.977,236.005 177.487,235.788 C179.017,235.569 179.573,234.619 179.806,231.826 C179.974,229.805 180.762,227.613 181.556,226.954 C182.35,226.294 183,224.83 183,223.699 C183,220.938 186.739,209.338 189.103,204.764 C189.596,203.809 190,202.148 190,201.073 C190,199.998 190.45,198.84 191,198.5 C193.149,197.172 191.699,194.756 183.974,186.788 C179.559,182.235 176.077,177.833 176.234,177.005 C176.947,173.256 184.631,175.502 190.663,181.224 C192.403,182.874 194.398,184.034 195.097,183.801 C196.393,183.369 198.709,174.957 199.676,167.167 C200.143,163.408 199.849,162.452 197.459,159.957 C194.234,156.591 186.205,154.525 180.315,155.546 C171.002,157.161 152.141,164.895 146.086,169.583 C141.416,173.198 139.161,173.761 137.2,171.8 C135.315,169.915 135.79,166.537 138.25,164.328 C141.396,161.502 156.8,153.338 166.43,149.393 Z M62.176,100.642 C67.666,96.316 75,97.95 75,103.5 C75,105.451 72.553,113.534 70.535,118.25 C69.711,120.176 69.918,120.245 77,120.401 C80.82,120.485 81.547,120.828 81.809,122.672 C82.233,125.644 76.04,131.133 70.411,132.774 C67.965,133.488 64.466,135.6 62.538,137.529 C60.629,139.438 58.634,141 58.106,141 C56.382,141 53,135.794 52.985,133.115 C52.967,129.919 50.76,123.36 49.168,121.768 C48.526,121.126 48,120.222 48,119.76 C48,119.297 47.061,117.649 45.913,116.096 C44.762,114.539 43.977,112.202 44.163,110.886 C44.472,108.698 45.023,108.475 50.793,108.201 C56.319,107.939 57.194,107.619 57.969,105.582 C58.454,104.306 60.347,102.083 62.176,100.642 Z M74.668,62.385 C75.527,61.073 76.93,60 77.786,60 C80.332,60 83,63.113 83,66.082 C83,69.825 78.703,73.216 65.759,79.69 C53.713,85.715 47.029,87.101 42.159,84.582 C38.69,82.788 38.014,80.273 40.75,79.342 C41.712,79.014 45.276,77.471 48.67,75.912 C52.063,74.354 56.113,72.775 57.67,72.404 C62.21,71.322 72.966,64.982 74.668,62.385 Z M146.039,183.189 C147.418,181.709 149.261,181 151.73,181 C155.009,181 156.178,181.843 163.165,189.25 C167.446,193.787 170.96,198.143 170.974,198.929 C170.988,199.715 171.53,201.823 172.177,203.613 C173.108,206.187 173.082,207.196 172.055,208.434 C169.342,211.703 165.092,209.514 161.955,203.233 C159.382,198.083 151.899,188 150.649,188 C149.962,188 148.89,188.51 148.267,189.133 C146.713,190.687 144,189.47 144,187.22 C144,186.206 144.918,184.392 146.039,183.189 Z M161.437,117.083 C165.071,113.269 168.605,113.038 170.187,116.511 C171.189,118.711 170.959,119.487 168.333,122.761 C164.688,127.308 149.543,136.816 145.776,136.923 C143.706,136.981 142.67,136.262 141.463,133.928 C139.4,129.938 140.006,129.269 150.255,124.224 C154.79,121.993 159.822,118.779 161.437,117.083 Z M129.353,186.523 C129.674,185.685 130.71,185 131.654,185 C133.98,185 138,188.918 138,191.185 C138,192.194 139.575,195.261 141.5,198 C144.212,201.858 145,203.968 145,207.367 C145,212.909 143.044,214.914 139.746,212.753 C138.501,211.937 136.831,209.972 136.034,208.385 C135.238,206.798 134.059,204.825 133.415,204 C132.771,203.175 132.003,201.15 131.708,199.5 C131.413,197.85 130.631,194.598 129.97,192.273 C129.309,189.948 129.031,187.361 129.353,186.523 Z M146.042,68.449 C145.381,69.246 143.301,70.406 141.42,71.026 L138,72.155 L138,79.578 C138,83.66 138.369,87 138.82,87 C139.271,87 141.528,85.384 143.835,83.41 C146.142,81.435 149.26,79.493 150.765,79.094 C154.125,78.202 154.844,74.533 152.534,70.066 C150.829,66.77 148.018,66.069 146.042,68.449 Z M147.234,93.031 C143.876,96.084 141.584,96.754 140.5,95 C138.907,92.423 138,94.601 138,101 C138,106.023 138.362,108 139.281,108 C141.173,108 153.149,94.011 152.8,92.209 C152.305,89.66 150.679,89.9 147.234,93.031 Z M86.209,163.7 C84.308,165.303 84.14,166.184 84.676,171.75 C85.442,179.704 87.603,180.194 91.462,173.289 C94.858,167.212 94.635,162.632 90.922,162.2 C89.505,162.035 87.384,162.71 86.209,163.7 Z M56.25,76.031 C54.311,76.81 52.958,80 54.566,80 C55.95,80 58.817,77.919 59.351,76.528 C60.01,74.811 59.491,74.728 56.25,76.031 Z M58,118 C58,119.506 58.522,120.046 59.75,119.81 C60.712,119.624 61.5,118.81 61.5,118 C61.5,117.19 60.712,116.376 59.75,116.19 C58.522,115.954 58,116.494 58,118 Z"/>
</svg>

