<svg xmlns="http://www.w3.org/2000/svg" width="300" height="300" viewBox="0 0 300 300" version="1.1">
  <defs/>
  <path d="M140.323,13.421 C143.338,9.766 144.407,9.444 148.435,10.975 C150.504,11.762 151,12.617 151,15.399 C151,18.091 150.319,19.358 147.894,21.174 C146.186,22.453 143.598,24.626 142.144,26.003 C138.842,29.129 132.165,34.175 129.578,35.5 C127.207,36.715 125.59,42.358 126.598,45.906 C127.004,47.333 127.218,50.862 127.075,53.75 C126.851,58.284 127.066,58.997 128.658,58.978 C129.745,58.966 131.114,57.634 132,55.728 C135.477,48.245 144.621,48.685 149.957,56.592 C153.559,61.929 156,73.32 156,84.793 C156,92.224 155.709,93.681 153.826,95.686 C152.63,96.958 150.834,98 149.836,98 C148.837,98 144.978,99.941 141.26,102.313 C137.542,104.686 133.781,106.895 132.903,107.223 C131.725,107.663 131.144,109.745 130.691,115.148 C129.779,126.02 132.266,126.734 137.56,117.121 C140.278,112.185 146.823,106.577 151.118,105.504 C153.21,104.981 154.165,105.394 155.868,107.56 C158.528,110.941 158.536,112.396 155.918,116.632 C154.159,119.479 153.262,120 150.118,120 C146.674,120 145.826,120.667 138.631,129.038 L130.863,138.077 L130.682,144.788 L130.5,151.5 L134.006,151.796 C136.888,152.039 138.443,151.327 142.743,147.796 C149.961,141.867 152.443,140.015 160.5,134.546 C164.35,131.933 168.27,129.112 169.21,128.278 C170.489,127.144 172.577,126.867 177.493,127.18 C183.426,127.558 184.388,127.935 187.377,131.049 C191.72,135.575 193.715,142.512 193.547,152.5 C193.384,162.17 192.446,168.755 190.235,175.769 L188.573,181.037 L200.71,192.958 C211.873,203.922 221,214.644 221,216.795 C221,217.28 222.942,221.686 225.315,226.588 C229.447,235.125 230.889,238.601 233.255,245.739 C234.154,248.451 234.033,249.307 232.51,250.989 C228.526,255.391 222.39,251.469 220.916,243.579 C220.415,240.897 218.879,236.323 217.503,233.414 C216.126,230.504 215,227.697 215,227.176 C215,225.9 212.988,222.152 210.25,218.332 C209.012,216.604 208,214.802 208,214.327 C208,212.883 187.877,193 186.415,193 C184.991,193 182,197.914 182,200.254 C182,200.998 180.911,203.833 179.581,206.554 C178.25,209.274 175.935,215.007 174.436,219.292 C172.869,223.773 170.922,227.506 169.855,228.077 C168.835,228.624 168,229.796 168,230.682 C168,233.195 161.112,241 158.893,241 C156.181,241 149.886,237.623 147.675,234.982 C146.672,233.784 143.908,230.163 141.533,226.937 C139.158,223.712 136.468,220.325 135.554,219.412 C133.156,217.014 133.945,213.578 136.992,213.149 C139.036,212.861 140.959,214.389 147.689,221.649 C154.751,229.268 156.145,230.346 157.697,229.393 C158.689,228.784 159.659,227.434 159.853,226.393 C160.048,225.352 160.761,223.825 161.439,223 C162.116,222.175 163.263,219.925 163.987,218 C164.712,216.075 166.693,212.025 168.391,209 C171.219,203.961 175.385,193.575 176.663,188.374 C177.103,186.583 176.203,185.758 170.933,183.124 C167.494,181.406 163.897,180 162.939,180 C161.981,180 160.259,181.591 159.112,183.535 C157.258,186.676 157.097,188.063 157.661,196.009 C158.222,203.904 158.094,205.027 156.572,205.611 C154.278,206.491 147.813,203.009 146.37,200.116 C145.741,198.854 142.22,194.642 138.546,190.755 L131.866,183.689 L133.945,181.611 C135.698,179.858 136.331,179.726 137.998,180.766 C139.084,181.445 140.689,182 141.565,182 C142.44,182 144.882,183.851 146.991,186.113 C151.137,190.559 153,190.531 153,186.022 C153,176.723 165.553,170.333 174.45,175.101 C179.569,177.845 180.613,177.517 181.937,172.75 C183.809,166.004 184.51,145.645 182.995,141.988 C181.504,138.388 177.1,135.692 174.941,137.058 C174.148,137.559 172.47,137.976 171.21,137.985 C169.256,137.998 150.792,151.652 149.814,153.808 C148.671,156.328 139.404,162.27 135.88,162.743 C132.882,163.145 131.62,163.869 130.978,165.557 C130.038,168.029 127.16,169.382 124.781,168.47 C122.268,167.505 120.776,163.72 121.822,160.962 C124.057,155.071 120.926,69.558 117.998,56.492 C117.392,53.787 117.184,49.871 117.536,47.789 C118.39,42.733 116.004,41.664 112.136,45.37 C107.397,49.91 102,48.197 102,42.155 C102,40.166 107.222,35 109.232,35 C109.826,35 111.786,33.875 113.589,32.5 C115.392,31.125 117.394,30 118.039,30 C118.684,30 120.917,28.65 123,27 C125.083,25.35 127.088,24 127.454,24 C128.767,24 137.555,16.776 140.323,13.421 Z M59.5,136 C61.929,133.316 66.278,133.475 69.645,136.371 L72.402,138.742 L69.318,145.121 C67.261,149.377 66.016,153.79 65.576,158.381 C65.214,162.165 64.247,166.867 63.427,168.828 C61.494,173.456 62.184,174.992 66.219,175.035 C68.023,175.055 70.625,175.714 72,176.5 C73.375,177.286 75.625,177.929 77,177.929 C79.747,177.928 84.329,174.514 85.322,171.727 C86.321,168.927 88.944,168.499 91.212,170.768 C94.496,174.051 92.977,178.822 86.554,185.4 C83.118,188.92 80.951,192.095 80.545,194.203 C78.129,206.756 76.712,211.994 75.45,213.042 C74.652,213.703 74,214.944 74,215.798 C74,217.983 67.069,232.041 64.655,234.75 C61.36,238.449 58.644,237.626 53.308,231.31 C50.663,228.18 46.813,223.814 44.75,221.608 C42.688,219.402 41,217.335 41,217.014 C41,216.694 39.538,215.594 37.75,214.571 C27.769,208.86 27.49,204.59 36.822,200.403 C38.65,199.583 42.25,197.47 44.822,195.706 C47.395,193.943 52.293,191.15 55.708,189.5 C62.151,186.386 63.459,185 59.955,185 C58.83,185 56.778,183.869 55.395,182.486 C52.594,179.685 52.617,177.909 55.648,163 C56.486,158.875 57.021,153.925 56.836,152 C56.51,148.607 56.371,148.5 52.286,148.5 C46.949,148.5 44.971,146.558 44.706,141.06 C44.436,135.442 46.615,133.751 50.88,136.27 C54.717,138.536 57.277,138.456 59.5,136 Z M69.5,82.026 C75.747,80.766 75.939,80.81 79.056,84.223 C81.448,86.841 82,88.336 82,92.188 C82,94.796 81.289,99.025 80.42,101.585 C79.288,104.919 79.146,106.546 79.92,107.32 C81.727,109.127 81.206,109.891 75.75,113.437 C72.862,115.314 68.25,118.89 65.5,121.384 C62.75,123.878 58.774,126.697 56.664,127.65 C52.271,129.633 50.598,129.022 47.793,124.411 C45.748,121.049 45.859,121.325 43.44,113.632 C42.425,110.405 40.749,107.255 39.714,106.632 C37.06,105.034 33.777,98.279 34.518,95.942 C35.659,92.35 38.343,91.869 42.288,94.55 C47.765,98.272 51.215,97.57 52.147,92.545 C52.798,89.039 61.805,83.579 69.5,82.026 Z M57.5,24.912 C62.081,23.916 67,25.667 67,28.294 C67,28.871 67.734,30.154 68.632,31.146 C69.682,32.306 70.445,35.484 70.773,40.067 L71.282,47.186 L74.391,46.713 C81.511,45.629 83.159,50.569 77.632,56.429 C75.779,58.393 73.367,60 72.271,60 C71.176,60 68.621,61.125 66.595,62.5 C64.569,63.875 62.444,65 61.874,65 C61.303,65 58.915,66.575 56.565,68.5 C54.216,70.425 51.51,72 50.551,72 C49.593,72 47.614,72.821 46.154,73.825 C44.694,74.829 41.977,76.259 40.116,77.002 C37.059,78.223 36.6,78.173 35.366,76.486 C32.406,72.438 35.169,67.504 42.254,64.186 C44.589,63.093 48.075,61.472 50,60.585 C51.925,59.698 55.264,57.479 57.421,55.654 C60.812,52.784 61.379,51.708 61.615,47.693 C61.766,45.139 61.464,42.787 60.944,42.466 C60.425,42.145 60,41.043 60,40.018 C60,38.992 58.828,36.761 57.395,35.058 C55.915,33.299 54.728,30.582 54.645,28.764 C54.519,25.974 54.884,25.481 57.5,24.912 Z M65.764,196.44 C64.26,197.225 62.022,198.572 60.792,199.433 C59.562,200.295 58.003,201 57.328,201 C55.579,201 46.945,206.98 46.312,208.63 C45.683,210.268 56.625,224 58.559,224 C59.942,224 60.848,222.556 65.768,212.5 C70.081,203.684 71.203,200.455 70.832,197.923 C70.407,195.024 69.172,194.663 65.764,196.44 Z M115.93,182.584 C118.395,179.614 121.782,180.724 127.022,186.219 L132,191.437 L132,199.25 C132,205.301 131.659,207.194 130.487,207.643 C128.281,208.49 126.51,206.6 124.979,201.764 C123.85,198.202 120.768,192.881 115.558,185.502 C114.939,184.625 115.066,183.625 115.93,182.584 Z M92.75,199.08 C96.341,196.989 98.43,197.929 101.867,203.184 C106.172,209.764 106.927,214.646 104.161,218.015 C102.228,220.37 101.976,220.421 99.345,218.981 C93.343,215.697 88.631,201.479 92.75,199.08 Z M63,95.509 C60.525,96.783 57.712,98.075 56.749,98.382 C53.939,99.275 51.437,105.498 52.581,108.75 C53.927,112.578 56.471,112.672 60.601,109.045 C62.551,107.333 65.939,104.801 68.13,103.418 C71.75,101.133 72.087,100.563 71.807,97.201 C71.426,92.607 69.396,92.217 63,95.509 Z M140.5,82.068 C138.85,83.125 135.79,83.992 133.7,83.995 L129.9,84 L130.2,89.671 C130.556,96.41 131.95,97.317 135.766,93.296 C137.27,91.712 140.188,89.144 142.25,87.589 C144.742,85.711 146,83.964 146,82.381 C146,79.55 144.559,79.468 140.5,82.068 Z M137,64.081 C135.625,64.601 133.488,66.589 132.25,68.499 C128.648,74.058 129.362,75.257 134.636,72.506 C136.211,71.685 138.232,71.01 139.128,71.006 C141.436,70.997 143.21,68.508 142.827,65.815 C142.458,63.227 140.667,62.693 137,64.081 Z"/>
</svg>

