<svg xmlns="http://www.w3.org/2000/svg" width="300" height="300" viewBox="0 0 300 300" version="1.1">
  <defs/>
  <path d="M120.604,0.832 C121.989,-1.409 128.223,0.679 129.986,3.974 C131.295,6.42 129.422,14.984 126.044,22 C125.647,22.825 124.537,26.2 123.578,29.5 C122.619,32.8 121.421,36.281 120.917,37.236 C120.413,38.191 120,40.104 120,41.486 C120,44.602 122.297,44.783 126.5,42 C130.701,39.218 134.413,39.438 136.914,42.618 L138.973,45.235 L136.516,49.368 C132.959,55.352 126.779,64.011 124.75,65.855 C122.625,67.785 122.445,71 124.462,71 C127.231,71 137.504,66.745 139.856,64.624 C141.152,63.456 142.603,61.488 143.081,60.25 C144.418,56.789 148.917,57.259 152.64,61.25 C158.905,67.966 161.544,75.056 158.8,77.8 C156.775,79.825 154.85,79.16 151.489,75.272 L148.266,71.543 L144.383,74.172 C142.247,75.617 139.488,77.1 138.25,77.467 C135.74,78.212 135.324,80.879 137.179,84.316 C140.488,90.443 141.616,113.096 139.578,132.5 C138.671,141.132 137.381,144 134.404,144 C131.648,144 126,137.502 126,134.331 C126,133.114 125.55,131.84 125,131.5 C124.45,131.16 124,129.874 124,128.641 C124,126.416 122.334,124 120.8,124 C120.36,124 120,126.442 120,129.427 C120,134.1 119.633,135.143 117.365,136.927 C115.916,138.067 113.952,139 113,139 C112.048,139 110.126,139.9 108.727,141 C107.329,142.1 105.581,143.033 104.842,143.073 C104.104,143.113 102.15,143.937 100.5,144.904 C96.89,147.018 96.277,149.378 96.118,161.75 C96.027,168.89 96.307,171 97.345,171 C99.97,171 101.735,167.583 101.701,162.568 C101.668,157.839 101.902,157.417 107.38,152.318 C113.638,146.493 115.773,145.954 120.696,148.956 C125.248,151.732 127.038,154.993 127.381,161.137 C127.546,164.086 128.034,167.307 128.464,168.294 C128.895,169.28 128.921,171.755 128.522,173.794 C128.122,175.832 127.481,179.75 127.097,182.5 C126.713,185.25 125.761,188.496 124.982,189.713 C123.808,191.547 123.776,192.715 124.798,196.534 C126.206,201.8 126.033,202.268 121.552,205.287 C110.193,212.94 107.602,214.722 104.913,214.887 C104.043,214.94 103.163,214.824 101.972,214.683 L97.345,214.135 L97.248,220.48 C97.125,228.612 98.288,230.335 103,229.005 C104.925,228.462 108.033,227.001 109.907,225.758 C111.781,224.516 115.156,222.263 117.407,220.75 C119.658,219.238 124.875,216.313 129,214.25 C136.303,210.598 136.789,210.5 147.5,210.5 C157.121,210.5 158.947,210.778 162.066,212.718 C170.223,217.791 172.458,223.942 172.483,241.391 C172.497,250.975 172.791,253.415 174,253.972 C174.825,254.352 176.999,255.414 178.831,256.331 C180.663,257.249 183.138,258.005 184.331,258.012 C185.524,258.018 190.1,260.26 194.5,262.993 C198.9,265.726 203.781,268.679 205.346,269.556 C209.814,272.059 225.979,289.084 226.022,291.332 C226.034,291.974 226.924,293.625 228,295 C231.301,299.22 230.63,300 223.7,300 C217.517,300 215,298.934 215,296.315 C215,290.983 200.032,276.274 190,271.749 C187.525,270.632 183.053,268.602 180.062,267.236 C177.071,265.871 173.289,264.697 171.659,264.627 C168.894,264.508 168.562,264.902 166.702,270.5 C165.606,273.8 164.323,277.175 163.852,278 C163.381,278.825 162.541,280.625 161.985,282 C160.987,284.469 159.077,288.198 154.814,296 C152.687,299.893 152.486,300 147.3,300 L141.971,300 L144.458,296.25 C147.656,291.427 156.829,272.57 157.648,269.135 C157.993,267.686 158.736,265.917 159.299,265.204 C160.991,263.06 156.913,258.602 152.62,257.904 C150.605,257.576 146.941,255.86 144.477,254.091 C138.041,249.469 134.214,249.086 130.756,252.717 C128.563,255.018 127.883,256.895 127.372,262.049 C126.427,271.584 123.528,273.932 117.192,270.296 C113.349,268.09 102.29,249.959 103.547,247.924 C104.3,246.706 108.651,246.743 110.976,247.987 C111.991,248.53 113.798,250.555 114.992,252.487 C116.186,254.419 117.956,256 118.925,256 C119.919,256 122.172,253.819 124.093,250.998 C129.473,243.099 131.717,242.815 150.5,247.655 C159.947,250.089 161.191,249.966 162.214,246.5 C163.473,242.237 162.225,229.475 160.193,225.839 C158.009,221.93 148.726,218.066 145.842,219.866 C144.844,220.49 143.112,221 141.994,221 C139.447,221 124.664,228.043 120.056,231.452 C118.161,232.853 116.02,234 115.297,234 C114.574,234 112.149,235.328 109.909,236.951 C107.642,238.593 103.859,240.198 101.38,240.57 C97.064,241.218 96.791,241.097 92.65,236.713 L88.375,232.187 L88.162,198.844 C87.923,161.387 87.094,154.243 83.057,154.831 C78.823,155.448 76.242,154.133 75.057,150.756 C74.023,147.813 74.145,147.308 76.32,145.5 C79.492,142.864 84.71,139.86 88.793,138.318 C90.604,137.634 93.304,136.211 94.793,135.154 C96.282,134.098 98.363,133.068 99.417,132.867 C102.668,132.245 102.281,130.261 98.795,129.682 C93.136,128.741 79.544,124.899 78.592,123.97 C78.051,123.442 78.201,122.462 78.965,121.542 C80.533,119.653 89.447,119.484 100.54,121.134 C104.653,121.745 106.866,122.102 108.554,121.323 C110.592,120.382 111.865,117.787 114.788,111.99 C116.83,107.941 119.013,104.466 119.64,104.267 C120.267,104.069 122.002,104.958 123.495,106.242 C125.939,108.344 126.243,109.347 126.543,116.284 C126.917,124.946 127.299,126 130.065,126 C131.935,126 131.99,125.38 131.456,110.25 C131.15,101.588 130.473,94.073 129.95,93.55 C129.428,93.028 129,91.655 129,90.5 C129,89.345 128.498,87.898 127.884,87.284 C127.27,86.67 126.246,85.118 125.608,83.834 C124.705,82.019 123.365,81.375 119.584,80.939 C115.94,80.518 114.129,79.689 112.361,77.633 C111.062,76.123 110,74.23 110,73.424 C110,71.774 114.1,64.938 117.648,60.673 C121.337,56.24 120.771,55 115.057,55 C111.082,55 109.808,54.564 108.557,52.777 C106.427,49.737 106.59,47.841 109.5,41.808 C110.875,38.958 112,35.611 112,34.372 C112,33.132 112.45,31.84 113,31.5 C113.55,31.16 114,29.389 114,27.563 C114,25.738 114.675,23.685 115.5,23 C116.325,22.315 117,20.487 117,18.937 C117,17.386 117.387,15.879 117.859,15.587 C118.331,15.295 119.027,12.043 119.404,8.36 C119.781,4.677 120.321,1.289 120.604,0.832 Z M69.25,2.989 C73.173,0.597 73.919,0.554 76.777,2.557 C79.633,4.557 79.601,7.589 76.639,15.329 C75.341,18.723 73.713,23.525 73.021,26 C71.514,31.396 71.272,32.063 70.122,34 C69.632,34.825 68.786,36.625 68.24,38 C67.281,40.42 64.901,45.849 64.24,47.127 C64.061,47.472 64.679,48.047 65.613,48.405 C66.661,48.807 68.792,48.03 71.182,46.374 C74.719,43.923 75.278,43.811 77.645,45.078 C81.888,47.349 82.107,49.175 79.447,60.152 C78.933,62.274 79.22,62.935 80.886,63.464 C82.031,63.827 84.663,66.234 86.734,68.811 C88.805,71.388 91.063,74.093 91.75,74.82 C92.321,75.425 92.69,75.795 92.819,76.235 C93.051,77.025 92.51,78.041 90.98,81.04 C88.334,86.226 85.266,86.172 82.634,80.894 C80.816,77.246 78.699,77.547 75.156,81.955 C72.523,85.232 72.114,86.344 72.96,87.925 C73.532,88.994 74,91.728 74,94 C74,96.272 74.407,98.891 74.904,99.82 C76.419,102.651 76.365,125.913 74.83,131.5 C73.339,136.927 68.588,143 65.834,143 C64.888,143 63.44,142.038 62.616,140.862 C61.249,138.911 61.303,138.576 63.227,137.017 C68.807,132.499 69.41,118.313 64.885,98.024 C63.694,92.683 62.711,91.905 58.946,93.327 C52.545,95.742 49.701,87.113 54.25,79.08 C55.487,76.895 59.538,71.453 63.25,66.988 C66.963,62.523 70,58.251 70,57.494 C70,55.17 68.359,54.946 66.487,57.015 C65.507,58.097 62.668,60.176 60.177,61.636 L55.649,64.29 L52.843,61.151 C51.841,60.029 51.143,59.348 50.851,58.523 C50.225,56.757 51.459,54.331 55.543,45.5 C57.324,41.65 59.378,36.7 60.107,34.5 C60.837,32.3 62.011,29.612 62.717,28.527 C63.423,27.443 64,25.557 64,24.337 C64,23.116 64.45,21.84 65,21.5 C65.55,21.16 66,17.302 66,12.926 C66,5.024 66.022,4.957 69.25,2.989 Z M25.574,257.322 C29.76,254.262 38.349,256.573 46.102,262.847 C51.026,266.831 57.001,273.523 59.095,277.399 C61.498,281.849 62,283.322 62,285.927 C62,291.857 56.827,291.18 52.778,284.721 C51.28,282.332 48.243,278.751 46.028,276.762 C43.812,274.773 42,272.697 42,272.147 C42,271.15 33.531,266.745 29.239,265.509 C27.996,265.151 26.255,263.46 25.372,261.752 C23.87,258.848 23.883,258.558 25.574,257.322 Z M157,113.188 C158.925,112.661 161.625,112.448 163,112.715 C169.263,113.931 173.62,115.288 175,116.451 C175.825,117.146 179.425,119.175 183,120.958 C186.575,122.742 190.063,124.661 190.75,125.223 C192.451,126.614 192.328,130.483 190.535,131.971 C188.571,133.601 181.122,132.357 178.5,129.962 C177.4,128.957 174.475,127.21 172,126.079 C169.525,124.948 165.932,123.118 164.016,122.011 C162.099,120.905 158.892,120 156.888,120 C149.453,120 149.531,115.233 157,113.188 Z M92.535,254.104 C96.421,250.691 98.748,250.18 99.653,252.539 C100.035,253.533 98.89,255.248 96.419,257.384 C92.822,260.493 92.581,261.06 92.369,266.905 C91.99,277.392 87.875,279.073 81.391,271.39 C79.251,268.854 75.029,265.132 72.01,263.119 C66.33,259.332 64.965,256.952 67.04,254.452 C69.605,251.361 76.165,253.429 82.709,259.39 C85.399,261.84 86.167,262.106 87.459,261.034 C88.307,260.331 89,259.182 89,258.481 C89,257.78 90.591,255.811 92.535,254.104 Z M51.26,111.659 C54.749,110.249 60,112.668 60,115.686 C60,118.836 41.985,135.918 36.991,137.503 C33.86,138.497 30.225,137.285 29.502,135.007 C28.651,132.326 29.637,131 32.482,131 C35.819,131 39.916,127.219 45.341,119.133 C47.914,115.298 50.578,111.935 51.26,111.659 Z M110.022,279.473 C111.07,278.211 111.616,278.249 114.198,279.761 C117.932,281.947 132,297.493 132,299.433 C132,299.745 129.774,300 127.053,300 C122.213,300 122.029,299.887 118.482,294.75 C116.489,291.863 113.499,287.571 111.838,285.212 C109.403,281.757 109.051,280.643 110.022,279.473 Z M109.446,193.056 C107.329,195.266 105.686,196.068 103.509,195.955 C97.092,195.619 97,195.683 97,200.5 C97,204.895 97.074,205 100.198,205 C102.335,205 105.654,203.485 110.198,200.437 C116.02,196.53 117,195.45 117,192.937 C117,190.534 116.579,190 114.687,190 C113.413,190 111.059,191.373 109.446,193.056 Z M111.051,173.666 C109.154,174.492 106.483,176.048 105.116,177.123 C103.427,178.452 101.78,178.891 99.975,178.494 C97.41,177.931 97.316,178.069 97.249,182.455 C97.188,186.51 97.421,187 99.41,187 C100.637,187 103.596,185.313 105.987,183.25 C108.379,181.188 112.172,178.6 114.417,177.5 C122.285,173.646 119.19,170.12 111.051,173.666 Z M108.635,160.073 C103.902,163.795 105.279,164.323 114.75,162.415 C116.174,162.128 117,161.234 117,159.981 C117,157.263 112.139,157.317 108.635,160.073 Z"/>
</svg>

