<svg xmlns="http://www.w3.org/2000/svg" width="300" height="300" viewBox="0 0 300 300" version="1.1">
  <defs/>
  <path d="M131,26.916 C139.652,22.412 144.546,23.449 143.822,29.633 C143.553,31.939 142.339,32.967 136.371,35.944 C123.967,42.131 121.962,43 120.081,43 C116.556,43 116.069,45.016 117.319,54.438 C117.969,59.333 119.022,63.511 119.661,63.722 C120.855,64.118 121.506,63.519 125.142,58.675 C129.124,53.371 136.631,52.811 142.305,57.396 C144.595,59.247 145.218,60.708 145.698,65.361 C146.021,68.495 146.672,71.297 147.143,71.588 C148.283,72.293 148.197,79.866 146.951,88.488 C146.077,94.534 146.18,95.919 147.718,98.774 C149.411,101.919 149.412,102.216 147.747,105.118 C146.786,106.792 146,109.041 146,110.116 C146,112.597 143.287,116.776 140.818,118.097 C139.367,118.874 138.09,118.601 135.4,116.938 L131.881,114.763 L129.626,116.882 C128.386,118.047 126.275,119.007 124.936,119.015 C120.219,119.045 119.862,120.001 118.506,136.25 C118.07,141.471 118.242,143 119.267,143 C121.088,143 134.944,133.788 137.924,130.596 C140.904,127.405 143.098,127.32 146.522,130.265 C150.313,133.526 149.143,136.98 142.646,141.703 C133.487,148.361 130.933,150 129.706,150.007 C129.043,150.01 127.15,150.907 125.5,152 C123.85,153.093 121.768,153.99 120.872,153.993 C118.634,154.002 117.381,155.83 116.585,160.25 C116.05,163.222 116.222,164 117.415,164 C118.243,164 123.776,161.023 129.71,157.385 C150.074,144.901 158.71,141.327 171.005,140.296 C177.373,139.762 177.777,139.865 181.234,142.9 C184.609,145.864 188.601,154.219 187.496,156.007 C187.238,156.424 186.983,160.08 186.93,164.132 C186.814,172.87 185.077,187.082 183.95,188.51 C183.512,189.065 182.848,192.223 182.474,195.526 L181.794,201.533 L199.147,216.984 C217.439,233.271 225,240.654 225,242.231 C225,242.755 225.9,244.329 227,245.727 C229.236,248.57 229.624,252.976 227.8,254.8 C225.477,257.123 219.883,255.895 213.721,251.71 C211.336,250.09 211.03,249.357 211.559,246.537 C212.135,243.466 211.697,242.797 204.838,236.278 C200.802,232.443 193.586,225.579 188.802,221.026 C183.354,215.84 179.561,212.954 178.653,213.303 C177.774,213.64 177.006,215.759 176.704,218.68 C176.041,225.092 173.4,233.901 171.517,235.981 C170.683,236.903 170,238.325 170,239.141 C170,241.358 165.953,249.307 164.11,250.711 C160.336,253.585 154.775,251.675 147.591,245.036 C139.939,237.966 138.513,236.368 136.465,232.566 C134.731,229.344 134.699,228.873 136.121,227.45 C138.693,224.878 142.785,226.748 149.688,233.651 C153.18,237.143 156.727,240 157.571,240 C158.414,240 159.565,238.678 160.128,237.062 C160.692,235.446 162.018,232.426 163.076,230.35 C164.134,228.275 165,225.991 165,225.275 C165,224.559 165.458,223.191 166.017,222.236 C167.826,219.146 169.807,204.696 168.722,202.5 C168.179,201.4 164.081,197.009 159.617,192.742 C152.334,185.782 151.141,185.011 148.003,185.242 C145.097,185.456 144.228,186.092 142.858,189 C141.876,191.086 141.419,193.791 141.727,195.696 C142.491,200.417 141.095,209.75 139.535,210.348 C136.625,211.465 133.816,209.466 127.787,201.991 C124.329,197.704 121.034,193.416 120.463,192.463 C119.729,191.236 118.781,190.935 117.213,191.432 C114.94,192.154 114.938,192.164 114.456,204 C114.217,209.866 114.133,210.001 110.75,209.985 C106.707,209.966 105.472,209.176 104.52,206 C104.108,204.625 103.028,202.6 102.122,201.5 C99.951,198.866 97,193.468 97,192.131 C97,191.548 97.908,190.585 99.017,189.991 C100.56,189.165 101.553,189.274 103.24,190.455 C106.646,192.841 108.883,192.313 111.069,188.607 C113.18,185.029 115.313,184.036 120.934,184.014 C123.754,184.002 125.229,184.894 129.187,189 C131.838,191.75 134.448,194 134.989,194 C135.529,194 136.47,192.019 137.08,189.597 C137.703,187.121 139.454,183.981 141.08,182.424 C143.641,179.97 144.753,179.645 150.821,179.577 C157.363,179.503 157.893,179.679 162.586,183.473 C165.289,185.658 168.088,188.246 168.807,189.223 C173.442,195.526 176.5,186.408 176.5,166.288 C176.5,151.673 175.778,149.734 170.325,149.706 C164.717,149.678 146.502,158.15 134.201,166.509 C132.185,167.879 129.981,169 129.303,169 C128.624,169 125.941,170.35 123.339,172 C117.71,175.57 115.338,175.722 110.434,172.828 L106.753,170.657 L107.33,160.578 C107.647,155.035 108.409,146.675 109.023,142 C110.554,130.343 110.493,85.127 108.919,64.75 C107.477,46.088 107.333,45.828 101,50.5 C96.892,53.531 94.89,53.641 92.473,50.97 C88.111,46.15 93.857,41.325 110.399,35.916 C117.688,33.533 121.431,31.898 131,26.916 Z M51.652,54.265 C53.836,52.669 57.238,52.638 58.8,54.2 C59.46,54.86 60,56.885 60,58.7 C60,63.024 61.148,62.863 65,58 C68.433,53.665 71.193,52.959 74.171,55.655 C77.31,58.495 76.429,61.521 71.251,65.683 C68.64,67.782 65.907,70.063 65.18,70.75 C64.452,71.438 63.49,72 63.042,72 C61.77,72 60.952,77.4 60.086,91.5 C59.647,98.65 58.95,105.287 58.537,106.25 C57.28,109.179 60.544,108.331 63.347,105 C66.021,101.821 69.61,101.141 74.299,102.923 C80.142,105.145 77.463,111.504 69.018,115.454 C65.983,116.873 59.9,120.262 55.5,122.984 C44.456,129.817 34.025,135.842 25.891,140.087 C22.11,142.06 18.19,144.423 17.18,145.337 C16.169,146.252 14.774,147 14.079,147 C13.384,147 11.671,147.9 10.273,149 C7.043,151.541 6,151.525 6,148.934 C6,147.798 5.567,146.06 5.039,145.072 C4.304,143.7 4.6,142.816 6.289,141.329 C10.162,137.92 19.221,132.172 28.5,127.237 C33.976,124.325 36.189,123.228 36.824,121.538 C37.284,120.311 36.914,118.772 36.355,116 C36.078,114.625 36.734,111.444 37.813,108.93 C39.721,104.484 39.727,104.133 38.038,95.93 L36.302,87.5 L29.714,87.849 C23.459,88.18 22.972,88.041 20.095,85.097 C15.964,80.872 16.869,79 23.042,79 C25.697,79 29.024,78.561 30.435,78.025 C32.87,77.099 33,76.673 33,69.647 C33,61.901 34.167,59.493 37.595,60.167 C39.551,60.552 40.323,61.866 42.08,67.8 C43.647,73.093 44.2,73.468 47.043,71.166 C48.913,69.652 49.348,68.173 49.608,62.436 C49.842,57.3 50.366,55.206 51.652,54.265 Z M47.341,147.78 C50.659,144.812 52.314,144.054 55.527,144.03 C57.743,144.013 60.538,144.688 61.739,145.53 C64.76,147.646 67.596,157.73 69.599,173.478 C71.152,185.686 71.149,186.86 69.554,192.262 C67.668,198.644 63.782,204 61.037,204 C60.056,204 57.284,205.8 54.877,208 C52.47,210.2 49.717,212 48.76,212 C47.802,212 46.002,213.573 44.759,215.496 C41.972,219.808 39.479,220.744 36.928,218.435 C34.474,216.214 34.294,207.548 36.602,202.708 C38.142,199.479 38.059,198.784 34.475,184.924 C29.612,166.113 28.774,160.654 29.733,154.011 C30.327,149.887 30.975,148.436 32.337,148.174 C34.805,147.698 38,150.79 38,153.655 C38,156.672 40.563,156.732 42.056,153.75 C42.676,152.512 45.054,149.826 47.341,147.78 Z M127.512,72.635 C120.186,80.642 120.075,80.975 120.035,95.143 C120.006,105.771 120.252,107.883 121.582,108.393 C122.452,108.727 123.356,109 123.59,109 C124.218,109 136.442,97.738 136.833,96.799 C137.446,95.331 133.263,95.978 131.955,97.555 C129.168,100.913 126.959,101.31 124.406,98.911 C123.083,97.668 122,96.096 122,95.417 C122,93.962 131.365,84.292 135.282,81.703 C137.534,80.215 138,79.175 138,75.642 C138,71.666 135.287,66.823 133.211,67.092 C132.82,67.143 130.255,69.637 127.512,72.635 Z M72.464,200.354 C75.292,196.317 79.906,198.969 88.86,209.777 C93.982,215.96 95.636,221.381 93.428,224.75 C92.617,225.988 91.35,227 90.612,227 C88.046,227 83.978,222.819 81.945,218.093 C80.725,215.257 78.105,211.84 75.45,209.62 C70.728,205.673 70.101,203.728 72.464,200.354 Z M56.047,178.541 C54.698,179.281 52.898,180.785 52.047,181.882 C51.151,183.037 49.027,184.008 47,184.188 C43.626,184.489 43.502,184.643 43.55,188.5 C43.624,194.436 44.324,197.357 46,198.718 C46.825,199.388 47.804,199.951 48.175,199.968 C49.113,200.012 56.976,191.695 56.989,190.644 C56.995,190.174 58.125,188.452 59.5,186.818 C62.003,183.843 62.531,181.546 61.393,178.582 C60.677,176.717 59.391,176.707 56.047,178.541 Z M46.908,82.61 C45.64,84.137 45.29,90.05 46.084,96.5 C46.22,97.6 46.054,101.088 45.717,104.25 C44.943,111.498 46.684,111.976 49.442,105.272 C52.049,98.935 52.383,81.726 49.908,81.232 C49.032,81.057 47.682,81.677 46.908,82.61 Z M50.174,158.314 C48.978,159.587 48,161.111 48,161.699 C48,162.288 46.875,163.507 45.5,164.408 C42.676,166.258 42.172,170.068 44.496,171.997 C45.735,173.025 46.665,172.632 49.886,169.722 C52.027,167.788 54.729,165.904 55.889,165.535 C58.512,164.703 58.537,163.393 56.011,159.25 C53.653,155.382 53.024,155.281 50.174,158.314 Z"/>
</svg>

