<svg xmlns="http://www.w3.org/2000/svg" width="300" height="300" viewBox="0 0 300 300" version="1.1">
  <defs/>
  <path d="M125.48,121.032 C127.274,118.13 134.853,121.792 134.967,125.615 C135.034,127.853 130.825,132 128.486,132 C127.184,132 125.84,132.45 125.5,133 C125.16,133.55 123.967,134 122.849,134 C121.73,134 119.671,134.9 118.273,136 C116.874,137.1 115.039,138 114.194,138 C111.81,138 109,141.059 109,143.655 C109,144.945 109.395,146 109.878,146 C111.474,146 117.852,143.049 118.491,142.015 C119.913,139.714 124.781,140.987 127.828,144.457 C130.56,147.568 130.882,148.644 131.05,155.207 C131.551,174.818 130.712,190.438 129.048,192.442 C127.999,193.707 127.956,194.608 128.854,196.578 C130.537,200.272 128.033,204.364 121.552,208.51 C118.609,210.392 114.809,213.622 113.107,215.686 C110.36,219.019 106,226.94 106,228.598 C106,229.601 111.364,227.967 113.047,226.451 C115.412,224.32 128.773,218.421 135.5,216.537 C138.8,215.612 142.786,214.459 144.358,213.974 C147.562,212.985 154.564,214.057 160.091,216.383 C166.645,219.141 171.776,228.945 170.682,236.621 C169.366,245.859 168.223,249.901 166.201,252.471 C163.623,255.749 164.194,257.276 170.056,262.792 C172.223,264.832 173.997,267.077 173.998,267.781 C173.999,268.486 174.674,269.322 175.499,269.638 C177.135,270.266 186.657,281.869 188.89,285.956 C189.655,287.355 190.607,290.3 191.006,292.5 C191.405,294.7 192.065,297.288 192.473,298.25 C193.123,299.785 192.587,300 188.107,300 C184.203,300 183,299.642 183,298.479 C183,295.145 176.428,283.779 170.9,277.551 C167.682,273.925 164.557,270.041 163.957,268.919 C163.279,267.653 162.075,266.997 160.784,267.189 C158.747,267.494 158.405,267.915 156.062,273 C155.429,274.375 153.735,277.525 152.298,280 C147.659,287.993 144,295.334 144,296.648 C144,299.133 140.012,300 128.583,300 L117.034,300 L112.602,290.75 C107.255,279.587 106.001,274.32 108.468,273.374 C111.162,272.34 112.614,274.263 119.894,288.5 C123.443,295.439 126.251,299 128.174,299 C129.616,299 142,281.09 142,279.004 C142,278.324 143.575,275.622 145.5,273 C147.425,270.378 149,267.707 149,267.066 C149,266.425 149.672,264.602 150.493,263.014 C151.826,260.436 151.818,259.961 150.421,258.564 C149.561,257.704 148.271,257 147.555,257 C146.838,257 144.283,255.912 141.876,254.582 C139.469,253.252 134.908,251.849 131.74,251.465 C126.785,250.865 125.896,250.434 125.382,248.386 C125.053,247.076 125.026,245.374 125.322,244.603 C126.035,242.746 135.714,241.993 139,243.538 C140.375,244.185 143,245 144.834,245.349 C146.668,245.698 149.437,246.887 150.989,247.992 C155.148,250.954 156.58,250.498 159.033,245.432 C162.117,239.062 162.2,231.481 159.231,227.32 C155.065,221.479 144.601,221.787 130.434,228.169 C128.198,229.176 125.896,230 125.319,230 C124.742,230 123.161,230.872 121.806,231.938 C120.451,233.004 118.028,234.193 116.421,234.58 C114.814,234.967 111.83,236.12 109.79,237.142 C107.749,238.164 105.365,239 104.492,239 C101.929,239 98.038,233.836 98.665,231.265 C99.089,229.523 98.635,228.812 96.605,228.04 C95.695,227.694 95.08,227.474 94.664,227.055 C93.775,226.16 93.797,224.36 93.804,218.5 C93.808,215.2 93.783,201.925 93.749,189 C93.715,176.075 93.769,163.097 93.868,160.159 C94.074,154.093 96.168,148.256 98.455,147.379 C99.305,147.053 100,146.11 100,145.285 C100,144.124 99.376,143.961 97.25,144.565 C95.737,144.995 93.061,145.381 91.302,145.423 C89.544,145.465 87.541,146.063 86.852,146.75 C86.164,147.438 84.677,148.016 83.55,148.035 C82.422,148.055 80.375,148.714 79,149.5 C77.625,150.286 75.734,150.945 74.797,150.965 C72.474,151.013 69.309,144.32 70.649,142.195 C71.849,140.293 80.324,137.184 84.601,137.078 C86.306,137.035 89.231,136.501 91.101,135.891 C96.777,134.038 107.263,129.979 111.5,127.994 C113.7,126.963 117.602,125.208 120.171,124.092 C122.74,122.976 125.13,121.599 125.48,121.032 Z M105.384,79.985 C109.6,77.23 111.126,76.181 112.643,76.193 C113.62,76.2 114.594,76.647 116.282,77.362 C120.687,79.227 122.783,81.854 123.172,86 C123.458,89.052 123.882,89.543 126.485,89.839 C128.233,90.038 131.227,91.798 133.712,94.089 C138.569,98.566 139.372,98.757 141.732,96 C143.95,93.409 146.365,93.47 150.071,96.211 L153.062,98.422 L156.781,96.492 C158.826,95.431 161.733,93.569 163.24,92.355 C164.916,91.003 168.127,89.878 171.515,89.455 C176.471,88.836 177.446,89.037 180.829,91.382 C182.908,92.822 186.005,95.463 187.712,97.25 C190.479,100.148 190.742,100.934 190.141,104.5 L189.466,108.5 L184.483,108.5 C179.735,108.5 179.495,108.37 179.399,105.743 C179.343,104.227 178.483,102.087 177.488,100.986 C176.492,99.886 175.177,97.977 174.566,96.743 C173.047,93.68 168.687,93.315 165.314,95.967 C163.845,97.123 161.258,100.191 159.565,102.784 C157.106,106.551 155.845,107.562 153.3,107.809 C150.599,108.071 149.866,107.642 148.498,104.997 C146.587,101.301 143.668,101.308 143.154,105.01 C142.61,108.928 141.329,109.869 137.72,109.003 C132.644,107.785 131.118,106.946 130.513,105.04 C130.203,104.063 129.06,102.46 127.974,101.477 C126.772,100.388 126,98.406 126,96.404 C126,94.597 125.53,92.828 124.956,92.473 C123.046,91.292 121,94.184 121,98.063 C121,100.164 120.55,102.16 120,102.5 C118.323,103.537 118.886,106 120.8,106 C123.103,106 125,107.896 125,110.199 C125,111.967 117.989,120 116.446,120 C116.012,120 114.947,120.6 114.079,121.334 C112.162,122.954 101.009,127 98.462,127 C96.315,127 92,123.231 92,121.356 C92,120.643 93.35,119.062 95,117.842 C96.65,116.622 98,115.265 98,114.825 C98,114.386 96.088,111.413 93.75,108.219 C88.385,100.887 83.779,97.731 78.5,97.77 C72.743,97.812 69.805,95.67 70.191,91.711 C70.802,85.452 81.292,84.07 88.201,89.339 C90.119,90.803 92.202,92 92.83,92 C93.458,92 95.167,90.193 96.629,87.985 C98.09,85.777 102.03,82.177 105.384,79.985 Z M138.158,3.866 C139.273,0.144 139.479,0 143.69,0 C148.535,0 150.179,1.883 148.158,5.119 C147.521,6.139 147,7.885 147,9 C147,10.115 146.55,11.921 146,13.014 C145.45,14.106 144.55,15.894 144,16.986 C143.45,18.079 143,19.66 143,20.5 C143,22.039 142.713,22.757 139.669,28.831 C137.657,32.847 137.432,39 139.297,39 C140.01,39 142.352,37.2 144.5,35 C146.648,32.8 148.848,31 149.388,31 C151.358,31 155,35.413 155,37.799 C155,40.101 151.534,49.215 148.4,55.154 C145.905,59.883 146.449,60.5 153.114,60.5 C158.997,60.5 159.362,60.652 162.736,64.5 C169.454,72.161 170.544,78.884 165.444,81.208 C163.36,82.157 162.488,82.013 160.221,80.345 C158.724,79.244 157.056,77.366 156.513,76.172 C155.02,72.888 152.525,73.53 147.292,78.545 C141.305,84.282 138.718,84.226 134.732,78.276 C131.936,74.102 131.921,73.999 133.451,69.491 C134.303,66.983 135,64.474 135,63.917 C135,63.359 135.9,61.041 137,58.764 C138.1,56.487 139,54.484 139,54.312 C139,54.14 136.535,54 133.523,54 C128.801,54 127.823,53.659 126.426,51.528 C124.948,49.272 124.942,48.55 126.353,43.278 C128.148,36.576 131.703,25.891 133.649,21.349 C134.392,19.616 135,17.505 135,16.658 C135,15.811 135.45,14.84 136,14.5 C136.55,14.16 137,12.498 137,10.807 C137,9.116 137.521,5.992 138.158,3.866 Z M46.097,6.905 L48.195,0 L60.198,0 L58.099,3.557 C56.944,5.514 56,7.962 56,8.998 C56,10.034 55.55,11.16 55,11.5 C54.45,11.84 54,13.118 54,14.339 C54,15.561 52.425,20.295 50.5,24.86 C48.575,29.424 47,33.728 47,34.424 C47,35.12 46.08,36.522 44.956,37.54 C41.868,40.335 42.845,43.084 47.498,44.688 C54.103,46.966 54.632,48.066 51.606,53.229 C50.173,55.675 49,58.199 49,58.838 C49,60.805 51.531,60.128 54,57.5 C55.292,56.125 57.07,55 57.952,55 C60.669,55 64,57.992 64,60.434 C64,61.711 64.663,63.305 65.474,63.978 C66.284,64.651 67.249,66.811 67.618,68.778 C68.197,71.861 67.917,72.675 65.589,74.677 C62.459,77.369 58.397,77.667 55.214,75.438 C53.157,73.997 52.759,74.036 50.088,75.938 C46.594,78.426 42.315,78.595 39.829,76.345 C38.498,75.141 38,73.256 38,69.427 C38,62.666 37.311,61 34.515,61 C29.33,61 28.149,55.73 31.549,47.765 C33.02,44.319 34.57,40.6 34.995,39.5 C35.419,38.4 36.98,34.35 38.462,30.5 C39.945,26.65 41.798,22.022 42.579,20.216 C43.361,18.41 44,16.23 44,15.371 C44,14.513 44.944,10.703 46.097,6.905 Z M100.179,35.5 C102.409,32.665 102.469,32.646 104.953,33.975 C106.519,34.813 106.701,35.862 106.25,41.475 C105.744,47.775 105.806,48 108.034,48 C110.794,48 114,50.663 114,52.955 C114,55.69 104.154,66 101.542,66 C97.413,66 94.988,59.857 97.103,54.751 C98.248,51.987 98.105,51.611 94.727,48.516 C90.724,44.849 89.105,39.54 90.944,36.105 C92.37,33.441 95.026,33.382 95.71,36 C96.41,38.676 97.803,38.52 100.179,35.5 Z M102.555,3.25 C103.213,0.069 103.341,0 108.613,0 C114.435,0 115.104,0.691 112,3.5 C110.9,4.495 110,5.845 110,6.5 C110,7.155 110.9,8.505 112,9.5 C115.638,12.792 114.574,15.579 107.75,20.634 C104.313,23.18 100.375,25.768 99,26.385 C97.625,27.002 95.375,28.263 94,29.186 C87.873,33.3 83,31.911 83,26.051 C83,22.725 84.021,21.757 90,19.417 C96.048,17.05 101.452,12.263 101.691,9.061 C101.796,7.652 102.185,5.038 102.555,3.25 Z M26.25,263.22 C29.732,261.541 32.207,261.798 37.599,264.399 C44.206,267.587 52,275.194 52,278.455 C52,279.242 52.787,280.475 53.75,281.193 C56.394,283.167 58.204,287.329 57.832,290.579 C57.283,295.381 54.449,294.826 48.931,288.838 C46.226,285.902 44.01,283.121 44.006,282.658 C43.982,279.311 34.646,273 29.72,273 C24.509,273 21.8,265.366 26.25,263.22 Z M48.75,93.08 C49.712,92.519 51.347,92.047 52.382,92.03 C54.693,91.993 60.39,97.884 63.011,103.022 C64.079,105.115 66.988,108.495 69.476,110.534 C74.051,114.283 74.988,116.612 72.8,118.8 C71.372,120.228 67.552,120.366 65.144,119.077 C61.249,116.993 56.14,111.15 53.407,105.655 C51.808,102.44 49.712,99.387 48.75,98.87 C47.788,98.353 47,97.068 47,96.015 C47,94.961 47.788,93.641 48.75,93.08 Z M1.75,101.08 C2.712,100.519 4.297,100.047 5.271,100.03 C8.541,99.974 24,117.533 24,121.303 C24,122.066 23.191,123.422 22.201,124.318 C20.539,125.822 20.143,125.815 16.965,124.223 C15.075,123.275 13.016,121.459 12.39,120.186 C11.764,118.914 9.972,116.537 8.409,114.905 C6.131,112.527 5.011,112.058 2.783,112.548 C0.001,113.159 0,113.157 0,107.629 C0,103.418 0.417,101.856 1.75,101.08 Z M23.667,95.667 C25.714,93.619 34,95.831 34,98.424 C34,99.169 34.871,100.841 35.935,102.139 C37.629,104.207 38.131,104.34 39.976,103.216 C43.046,101.344 44,102.5 44,108.094 C44,113.959 41.763,118 38.515,118 C36.483,118 30.496,112.077 29,108.586 C28.725,107.945 27.262,105.82 25.75,103.865 C23.112,100.456 22.254,97.079 23.667,95.667 Z M95.975,249.565 C97.296,246.091 98.744,246.313 105.9,251.092 C112.912,255.775 113.827,257.093 114.218,263.074 C114.475,267.022 114.253,267.49 111.682,268.417 C108.076,269.718 104.419,267.801 101.3,262.974 C100.065,261.063 98.143,258.584 97.028,257.465 C94.773,255.202 94.529,253.369 95.975,249.565 Z M68.25,259.65 C69.534,258.741 71.574,258.271 73,258.555 C76.127,259.18 81.146,264.715 82.602,269.146 C83.208,270.991 84.031,273.254 84.431,274.176 C85.386,276.381 80.921,279.427 78.063,278.52 C76.943,278.165 74.431,275.02 72.48,271.531 C70.529,268.043 68.273,264.935 67.467,264.626 C65.312,263.799 65.679,261.471 68.25,259.65 Z M115.846,174.707 C114.158,174.966 112.211,176.53 110.493,179.01 C109.009,181.152 106.688,183.63 105.336,184.515 C103.546,185.688 102.964,186.855 103.19,188.813 C103.684,193.096 106.82,192.683 112.846,187.539 C115.771,185.042 118.48,183 118.866,183 C119.901,183 123,177.449 123,175.596 C123,173.995 121.612,173.822 115.846,174.707 Z M106.733,90.835 C102.835,92.943 101.774,94.124 100.914,97.319 C99.992,100.742 100.118,101.497 101.931,103.427 C103.069,104.638 104,106.194 104,106.884 C104,107.595 104.913,108 106.105,107.82 C108.917,107.393 112.584,100.658 113.456,94.322 C114.331,87.959 113.167,87.356 106.733,90.835 Z M115.5,155.075 C110.774,157.316 107.426,159.8 106.411,161.82 C105.812,163.011 104.575,164.812 103.661,165.822 C102.748,166.831 102,168.361 102,169.222 C102,172.477 104.857,171.721 109.121,167.337 C113.261,163.082 113.732,162.867 117.75,163.399 C121.732,163.926 122,163.81 122,161.546 C122,158.043 120.253,153.99 118.775,154.063 C118.074,154.098 116.6,154.554 115.5,155.075 Z M110.016,200.057 C108.099,201.126 105.737,202 104.766,202 C103.589,202 102.95,202.834 102.85,204.5 C102.767,205.875 102.655,207.556 102.6,208.236 C102.393,210.791 105.911,210.04 108.114,207.059 C109.358,205.377 110.882,204 111.5,204 C112.118,204 113.622,202.65 114.842,201 C116.84,198.297 116.884,198.006 115.28,198.057 C114.301,198.089 111.932,198.989 110.016,200.057 Z M91.159,245.309 C92.573,243.605 94.393,244.114 94.823,246.333 C95.034,247.419 94.482,248 93.24,248 C90.614,248 89.8,246.946 91.159,245.309 Z"/>
</svg>

