<svg xmlns="http://www.w3.org/2000/svg" width="300" height="300" viewBox="0 0 300 300" version="1.1">
  <defs/>
  <path d="M134.047,170.761 C136.677,168.631 139.341,168.501 140.937,170.424 C141.989,171.692 141.661,175.994 140.016,182.5 C138.878,187 142.6,187.201 144.464,182.74 C148.41,173.297 156.906,169.197 167.705,171.523 C171.324,172.303 175,178.001 175,182.831 C175,184.354 175.539,186.139 176.197,186.797 C178.215,188.815 180.779,211.34 181.809,236.101 C182.287,247.585 182.911,253.195 183.833,254.303 C185.482,256.285 184.533,259.645 181.93,261.038 C180.532,261.786 178.815,261.673 175.747,260.633 C172.221,259.437 171.076,259.414 169,260.494 C165.287,262.426 159.441,263.861 150.678,264.991 C139.957,266.374 139.548,266.332 136.208,263.522 C132.861,260.706 132.323,257.783 131.505,238 C129.499,189.48 130.085,173.969 134.047,170.761 Z M33.646,66.764 C35.049,64.494 42,68.551 42,71.64 C42,72.35 43.35,75.059 45,77.661 C46.979,80.781 48,83.687 48,86.196 C48,88.911 48.43,90 49.5,90 C50.325,90 51,89.142 51,88.093 C51,86.265 57.678,80.125 63,77.061 C74.029,70.71 80.834,70.17 85.763,75.256 L88.919,78.512 L88.379,91 C88.082,97.869 87.384,104.037 86.828,104.707 C86.272,105.377 85.641,107.758 85.425,109.998 C85.209,112.238 84.598,114.882 84.068,115.874 C83.537,116.865 83.33,118.547 83.608,119.61 C83.933,120.852 83.199,122.404 81.557,123.946 C80.037,125.374 79,127.445 79,129.052 C79,130.539 78.348,132.296 77.551,132.958 C75.616,134.563 73.663,140.678 74.438,142.7 C74.965,144.071 75.496,143.899 77.931,141.566 C81.035,138.592 83.643,138.48 85.386,141.247 C86.199,142.539 86.162,143.51 85.243,144.983 C84.559,146.077 84,147.475 84,148.09 C84,148.704 80.901,152.275 77.113,156.026 C70.992,162.086 70.117,163.437 69.246,168.172 C68.707,171.103 67.986,174.175 67.644,175 C67.301,175.825 67.458,177.175 67.991,178 C68.277,178.442 68.443,178.776 68.712,178.926 C69.419,179.321 70.836,178.447 77,174.928 C78.375,174.142 80.578,172.262 81.895,170.75 C83.561,168.837 85.251,168 87.445,168 C91.282,168 93,169.548 93,173.004 C93,177.45 82.829,185.41 70,191.003 C65.875,192.802 61.427,195.112 60.115,196.137 C57.034,198.544 54.892,198.49 51.629,195.922 C47.456,192.64 46.52,190.187 48.575,187.917 C49.529,186.863 51.315,186 52.544,186 C56.406,186 58.922,182.924 60.151,176.698 C61.751,168.597 60.595,167.709 53.881,171.883 C47.52,175.837 43.297,175.816 41.064,171.818 C39.701,169.379 39.731,168.955 41.387,167.125 C42.388,166.019 44.499,164.83 46.078,164.483 C49.894,163.645 60.896,157.062 62.034,154.936 C62.53,154.01 62.659,150.913 62.32,148.055 C61.77,143.412 61.48,142.911 59.602,143.357 C58.446,143.632 55.375,144.163 52.778,144.538 C48.335,145.178 47.985,145.06 46.834,142.535 C45.884,140.45 45.878,139.426 46.806,137.939 C48.54,135.163 48.276,133.218 46,132 C44.277,131.078 44,129.906 44,123.531 C44,114.829 40.846,95.213 38.528,89.5 C37.636,87.3 36.062,83.7 35.031,81.5 C33.326,77.863 32.463,68.678 33.646,66.764 Z M139.2,52.2 C140.811,50.589 142.109,50.688 144.883,52.631 C149.532,55.887 152.121,68.298 150.047,77.383 C149.434,80.068 149.169,82.503 149.46,82.793 C149.75,83.083 152.732,82.49 156.086,81.474 C163.002,79.38 165.302,80.049 165.812,84.301 C166.249,87.948 164.531,90.653 161.276,91.446 C159.749,91.818 156.822,93.219 154.771,94.561 C152.721,95.902 150.171,97 149.105,97 C148.04,97 145.33,98.714 143.084,100.808 C139.515,104.136 139.019,105.126 139.157,108.649 C139.244,110.866 138.999,113.193 138.611,113.82 C138.224,114.446 138.466,115.98 139.149,117.229 C139.832,118.478 140.64,121.3 140.945,123.5 C141.382,126.648 141.926,127.5 143.5,127.5 C144.874,127.5 145.608,126.718 145.846,125 C146.036,123.625 146.666,121.923 147.245,121.218 C147.824,120.513 148.258,116.463 148.21,112.218 C148.109,103.421 149.59,100 153.5,100 C157.048,100 159.422,104.052 158.639,108.771 C155.846,125.593 153.78,131.65 149.637,135.152 C147.912,136.611 146.827,138.138 147.226,138.546 C147.94,139.273 160.472,134.706 185.5,124.597 C187.7,123.709 191.525,122.564 194,122.054 C196.475,121.545 200.464,120.635 202.865,120.033 C208.04,118.735 209.89,119.19 213.027,122.529 L215.37,125.023 L212.085,128.413 C210.278,130.277 207.607,132.02 206.15,132.287 C204.692,132.553 202.06,133.363 200.3,134.086 C197.465,135.251 196.867,135.189 195.054,133.549 C193.055,131.74 192.861,131.759 186.754,134.338 C183.314,135.791 178.925,137.284 177,137.657 C175.075,138.029 172.375,139.158 171,140.165 C168.554,141.957 163.049,144.283 152,148.193 C148.975,149.264 143.244,151.672 139.265,153.545 C135.286,155.417 129.766,157.69 127,158.595 C124.233,159.5 121.725,160.636 121.426,161.12 C121.127,161.604 120.253,162 119.485,162 C118.717,162 115.908,163.285 113.243,164.857 C108.243,167.805 100.611,169.556 97.674,168.428 C96.652,168.036 96,166.679 96,164.944 C96,161.53 100.026,158.228 107.5,155.512 C110.25,154.513 113.388,153.089 114.473,152.348 C115.557,151.607 117.814,151 119.487,151 C122.843,151 129.207,147.972 132.845,144.645 C134.784,142.871 135.1,141.807 134.671,138.5 C133.728,131.222 131.801,122.548 130.386,119.206 C129.506,117.128 129.224,114.451 129.623,111.956 C130.335,107.505 129.782,107.226 124.229,109.234 C121.187,110.334 120.662,110.259 119.408,108.543 C117.146,105.45 117.67,101.405 120.635,99.073 C122.084,97.933 123.772,96.995 124.385,96.989 C124.998,96.982 127.947,95.745 130.938,94.239 C136.168,91.605 136.441,91.265 138.08,85.355 C140.952,74.996 141.315,69.8 139.576,63.945 C137.692,57.601 137.571,53.829 139.2,52.2 Z M159.154,222.436 C155.663,223.693 152.046,225.372 151.116,226.169 C150.186,226.965 147.642,228.329 145.462,229.2 L141.5,230.784 L141.413,241.983 C141.308,255.43 141.909,256.517 148.911,255.535 C155.492,254.612 168.186,251.09 169.819,249.735 C172.541,247.476 173.098,243.617 172.407,231.806 L171.717,220 L168.608,220.076 C166.899,220.118 162.644,221.18 159.154,222.436 Z M152.545,187.252 C147.951,191.427 146.635,193.307 146.129,196.423 C145.646,199.392 144.766,200.746 142.496,202.011 C139.833,203.495 139.514,204.171 139.626,208.09 C139.84,215.605 141.134,221 142.724,221 C144.238,221 147.174,218.974 154.316,213 C159.71,208.488 164.761,205.694 166.392,206.32 C168.865,207.269 170.321,205.392 169.467,202.357 C169.025,200.786 168.556,198.375 168.426,197 C167.551,187.768 164.288,182 159.939,182 C159.051,182 155.723,184.363 152.545,187.252 Z M4.463,226.06 C4.823,225.477 6.619,225 8.455,225 C11.475,225 12.417,225.825 18.396,233.699 C22.028,238.483 25,243.1 25,243.958 C25,244.817 25.9,246.081 27,246.768 C28.1,247.455 29,248.699 29,249.533 C29,251.396 24.656,253.178 22.259,252.298 C19.14,251.153 7.079,238.175 6.447,235.285 C6.112,233.753 5.381,231.29 4.822,229.81 C4.264,228.331 4.102,226.644 4.463,226.06 Z M38.25,214.662 C41.194,213.474 48,215.364 48,217.37 C48,218.016 49.326,220.153 50.947,222.12 C52.568,224.086 54.643,227.566 55.558,229.854 C57.099,233.706 57.102,234.196 55.588,236.506 C53.194,240.159 50.437,239.652 47.513,235.02 C46.131,232.831 45,230.448 45,229.726 C45,229.003 43.2,226.481 41,224.122 C37.016,219.85 35.796,215.652 38.25,214.662 Z M86.667,208.667 C87.779,207.555 91.864,207.916 95.538,209.452 C99.393,211.062 100.408,213.028 102.475,222.892 C103.933,229.843 103.107,233 99.832,233 C98.039,233 94,228.531 94,226.547 C94,225.896 93.302,223.011 92.448,220.137 C91.305,216.287 90.252,214.666 88.448,213.98 C86.141,213.103 85.159,210.174 86.667,208.667 Z M60.04,218.452 C60.703,217.653 61.785,217 62.444,217 C64.154,217 70.343,221.913 73.575,225.836 C75.086,227.671 77.375,229.572 78.661,230.061 C80.133,230.621 81,231.765 81,233.147 C81,235.581 78.36,239 76.48,239 C74.046,239 69.995,234.771 67.776,229.915 C66.014,226.06 64.823,224.759 62.502,224.154 C59.238,223.305 58.134,220.748 60.04,218.452 Z M69.5,85.904 C67.85,86.871 66.36,88.385 66.189,89.269 C65.925,90.629 66.89,90.849 72.439,90.694 C77.835,90.544 79,90.215 79,88.838 C79,83.761 75.174,82.579 69.5,85.904 Z M58.2,95.2 C57.54,95.86 57,96.837 57,97.371 C57,97.905 56.281,99.137 55.402,100.108 C53.332,102.396 54.383,104 57.952,104 C61.305,104 62.297,102.098 61.409,97.366 C60.731,93.75 60.085,93.315 58.2,95.2 Z M53.014,116.25 C53.053,122.659 55.235,124.608 58.425,121.083 C60.364,118.941 59.386,115.746 56.446,114.618 C53.719,113.571 52.999,113.913 53.014,116.25 Z M58.459,132.067 C58.096,132.653 58.04,133.373 58.333,133.667 C59.05,134.383 61,133.121 61,131.941 C61,130.663 59.274,130.748 58.459,132.067 Z"/>
</svg>

