<svg xmlns="http://www.w3.org/2000/svg" width="300" height="300" viewBox="0 0 300 300" version="1.1">
  <defs/>
  <path d="M128,118.335 C140.033,114.322 145.844,116.025 150.337,124.88 C154.081,132.26 151.933,155.25 147.009,160.491 C145.904,161.667 145,163.149 145,163.785 C145,164.42 143.65,165.938 142,167.158 C138.489,169.754 138.328,170.596 140.913,172.84 C145.904,177.171 143.274,182.938 135.404,184.92 C132.847,185.564 126.098,188.32 120.406,191.045 C114.713,193.77 109.379,196 108.551,196 C107.723,196 106.265,194.808 105.311,193.352 L103.576,190.704 L108.037,186.745 C110.49,184.568 114.073,181.981 115.999,180.995 C119.037,179.44 119.728,178.363 121.226,172.852 C123.283,165.284 123.856,157.785 122.414,157.305 C121.844,157.115 119.417,158.768 117.022,160.98 C113.298,164.418 112.023,165 108.22,165 L103.773,165 L104.489,168.25 C105.704,173.767 105.133,181.195 103.342,183.175 C99.614,187.294 96.754,184.216 95.836,175.097 C94.727,164.063 90.422,148.601 86.205,140.5 C84.287,136.816 83.634,134.126 83.723,130.28 C83.869,124.045 84.397,123 87.404,123 C90.892,123 93.233,126.401 94.475,133.271 C95.399,138.382 95.95,139.5 97.541,139.5 C98.728,139.5 100.068,138.282 100.991,136.365 C103.605,130.935 116.967,122.015 128,118.335 Z M121.127,13.9 C122.888,12.785 123.104,12.792 126.785,14.075 C130.149,15.248 133,18.818 133,21.858 C133,25.906 139.732,25.251 149.247,20.276 C153.298,18.157 154.523,17.917 156.557,18.844 C158.443,19.704 159,20.724 159,23.324 C159,27.884 156.694,29.695 147.875,32.065 C143.819,33.155 138.813,34.504 136.75,35.063 C133.843,35.852 133,36.581 133,38.308 C133,39.533 131.875,42.191 130.5,44.215 C127.555,48.549 127.239,53.904 129.685,58.043 C131.057,60.366 131.153,61.368 130.206,63.447 C129.253,65.539 128.35,66 125.201,66 C122.257,66 120.405,66.817 117.271,69.5 C112.266,73.784 110.037,73.894 107.158,70 C105.938,68.35 104.289,67 103.493,67 C102.697,67 101.346,65.931 100.49,64.625 C99.238,62.714 99.131,61.396 99.942,57.875 C100.497,55.469 100.962,51.362 100.976,48.75 C100.998,44.429 100.789,44 98.659,44 C97.371,44 94.109,44.673 91.409,45.496 C88.709,46.319 82.815,47.283 78.311,47.639 C69.704,48.319 63.59,46.702 62.328,43.412 C61.448,41.119 63.963,39 67.563,39 C69.389,39 71.123,38.611 71.417,38.135 C71.711,37.659 73.65,37.011 75.726,36.696 C89.901,34.539 97.416,32.945 98.021,31.967 C98.406,31.343 98.508,27.833 98.248,24.167 C97.828,18.256 98.021,17.278 99.946,15.542 C103.208,12.6 105.209,14.51 106.728,22.014 C107.433,25.494 108.164,28.498 108.354,28.687 C108.544,28.877 111.579,28.46 115.099,27.762 C118.415,27.104 120.082,26.884 120.773,25.945 C121.537,24.907 121.107,22.991 120.39,18.635 C119.938,15.888 120.151,14.518 121.127,13.9 Z M177,70.958 C180.876,69.717 183.844,69.868 186.928,71.463 C191.177,73.66 191.194,75.258 187.021,80.096 L183.222,84.5 L174.361,84.627 C164.596,84.767 155.051,85.848 153.5,86.989 C152.95,87.393 151.15,88.027 149.5,88.398 C147.85,88.768 144.25,89.921 141.5,90.959 C130.066,95.275 108.12,101.847 103,102.488 C99.975,102.866 93.225,104.222 88,105.5 C82.775,106.779 75.575,108.118 72,108.477 C68.425,108.835 61.9,109.971 57.5,111 C53.1,112.03 46.125,113.153 42,113.496 C37.875,113.839 33.375,114.48 32,114.92 C30.625,115.361 27.771,116.278 25.657,116.959 C22.02,118.13 21.659,118.048 18.907,115.411 C15.51,112.157 15.305,110.695 17.884,108.116 C19.377,106.623 21.919,106.092 30.134,105.557 C35.835,105.185 41.625,104.504 43,104.042 C44.375,103.581 48.875,102.658 53,101.992 C57.125,101.326 62.075,100.292 64,99.695 C65.925,99.098 69.075,98.535 71,98.443 C72.925,98.351 80.8,96.832 88.5,95.066 C96.2,93.301 105.358,91.26 108.852,90.531 C112.345,89.802 116.62,88.524 118.352,87.69 C120.083,86.857 123.525,85.606 126,84.91 C128.475,84.214 131.805,83.003 133.401,82.219 C135.904,80.988 143.373,78.714 157,75.034 C158.925,74.514 163.65,73.564 167.5,72.924 C171.35,72.283 175.625,71.399 177,70.958 Z M150.641,215.141 C154.651,212.811 158.742,214.32 172,223.017 C172.825,223.558 174.625,224.45 176,224.998 C179.51,226.398 181.885,227.971 186.57,232 C188.809,233.925 192.175,236.4 194.049,237.5 C195.924,238.6 199.492,240.7 201.979,242.166 C204.465,243.632 208.525,245.996 211,247.419 C218.569,251.771 227.65,258.532 230.907,262.241 C234.158,265.944 234.994,270.606 232.8,272.8 C230.149,275.451 226.45,274.072 219.248,267.75 C210.064,259.689 192.24,247 190.101,247 C189.58,247 187.206,245.516 184.827,243.702 C176.996,237.734 168.338,232.138 160.359,227.886 C156.037,225.583 150.988,222.387 149.141,220.784 C147.193,219.094 145.145,218.114 144.264,218.452 C142.514,219.124 139.755,217.206 140.571,215.885 C140.874,215.396 142.845,215.271 144.952,215.608 C147.079,215.949 149.609,215.741 150.641,215.141 Z M106.434,207.765 C109.508,205.646 113,209.047 113,214.16 C113,217.355 112.042,219.183 107.377,224.894 C104.285,228.679 99.636,233.392 97.046,235.367 C94.457,237.341 91.114,240.092 89.618,241.479 C88.121,242.865 86.229,244 85.413,244 C83.72,244 79.647,246.507 76.277,249.624 C73.305,252.373 66.716,253.45 63.183,251.765 C61.132,250.787 60.429,249.648 60.201,246.926 C59.946,243.903 60.301,243.184 62.554,242.157 C64.034,241.483 66.664,241.221 68.499,241.566 C71.457,242.121 75.898,240.434 78,237.957 C78.275,237.633 80.569,235.961 83.098,234.241 C88.744,230.4 96.404,222.129 101.524,214.344 C103.638,211.13 105.848,208.169 106.434,207.765 Z M116.519,136.545 C114.33,137.842 110.825,139.192 108.731,139.546 C103.204,140.479 101.351,144.17 101.849,153.25 C102.061,157.119 105.065,156.853 110.843,152.454 C113.404,150.504 117.075,147.901 119,146.67 C123.1,144.049 125.231,138.188 123.042,135.55 C121.458,133.642 121.412,133.648 116.519,136.545 Z M113.968,39.243 C110.911,41.304 110.49,42.109 110.416,46.04 C110.37,48.493 109.993,52.413 109.578,54.75 C108.896,58.596 109.016,59 110.844,59 C111.955,59 113.715,57.763 114.754,56.25 C118.355,51.013 122.815,42.351 123.157,39.931 C123.449,37.864 123.045,37.455 120.468,37.203 C118.552,37.015 116.159,37.766 113.968,39.243 Z M136.393,149.777 C134.684,151.275 132.808,153.85 132.224,155.5 C130.718,159.754 129.822,167 130.801,167 C131.786,167 137,161.693 137,160.69 C137,160.305 138.134,157.64 139.52,154.767 C143.235,147.066 141.906,144.945 136.393,149.777 Z M134,132.499 C132.465,136.536 132.781,138 135.186,138 C136.388,138 138.401,138.967 139.659,140.15 C141.68,142.048 142.021,142.109 142.574,140.667 C142.919,139.769 142.593,137.114 141.85,134.767 C140.741,131.263 140.009,130.443 137.75,130.184 C135.557,129.931 134.799,130.399 134,132.499 Z"/>
</svg>

