<svg xmlns="http://www.w3.org/2000/svg" width="300" height="300" viewBox="0 0 300 300" version="1.1">
  <defs/>
  <path d="M166.64,51.104 C168.525,48.413 170.77,48.435 173.686,51.174 C175.537,52.913 176,54.403 176,58.615 C176,61.512 176.45,64.16 177,64.5 C177.55,64.84 178.014,66.329 178.032,67.809 C178.049,69.289 178.724,71.374 179.532,72.441 C180.339,73.509 181,75.577 181,77.036 C181,78.496 181.844,80.454 182.875,81.387 C184.629,82.974 185.033,82.977 189.125,81.425 C191.531,80.512 194.936,78.14 196.692,76.154 L199.884,72.542 L202.442,74.945 C203.916,76.331 205,78.452 205,79.953 C205,83.71 198.79,89.782 194.164,90.549 C192.149,90.883 189.938,91.332 189.25,91.547 C187.745,92.017 187.53,100.591 189,101.5 C189.55,101.84 190,102.976 190,104.025 C190,105.074 190.737,107.635 191.639,109.716 C193.682,114.435 194.362,116.233 196.472,122.5 C198.272,127.845 199.695,131.441 201.117,134.236 C201.603,135.191 202.014,136.991 202.032,138.236 C202.049,139.481 202.724,141.374 203.532,142.441 C204.339,143.509 205,145.395 205,146.632 C205,150.058 206.854,150.462 208.093,147.306 C208.698,145.763 209.762,143.15 210.457,141.5 C211.151,139.85 212.285,137.15 212.976,135.5 C213.668,133.85 214.631,131.719 215.117,130.764 C215.603,129.809 216,128.346 216,127.514 C216,126.681 216.363,126 216.808,126 C217.856,126 221,118.871 221,116.493 C221,111.082 228.397,109.147 231.927,113.635 C234.022,116.298 234.662,119.554 233.21,120.167 C232.08,120.644 224.267,135.351 221.612,142 C221.282,142.825 220.61,144.175 220.118,145 C219.277,146.409 217.234,150.812 212.035,162.418 C210.267,166.365 210.046,167.805 210.916,169.715 C211.512,171.023 212,173.873 212,176.047 C212,178.221 212.45,180 213,180 C213.55,180 214.014,181.012 214.032,182.25 C214.049,183.488 214.724,185.374 215.532,186.441 C216.339,187.509 217,189.196 217,190.191 C217,191.186 217.45,192 218,192 C218.55,192 219,193.07 219,194.378 C219,195.685 219.675,197.315 220.5,198 C221.325,198.685 222,200.063 222,201.063 C222,202.064 222.45,203.16 223,203.5 C223.55,203.84 224.014,204.879 224.031,205.809 C224.048,206.739 225.169,209.75 226.522,212.5 C227.875,215.25 228.979,217.95 228.975,218.5 C228.968,219.605 230.269,222.363 241.475,245 C254.281,270.87 256.297,274 260.155,274 C262.808,274 263.246,270.646 261.988,259.973 C260.382,246.344 260.371,245.74 261.736,245.269 C262.415,245.035 263.476,246.116 264.093,247.671 C264.71,249.227 265.617,251.281 266.108,252.236 C266.598,253.191 267,254.67 267,255.522 C267,256.373 267.77,258.245 268.71,259.681 C270.055,261.734 270.411,264.502 270.374,272.636 C270.322,284.166 269.064,287 263.995,287 C259.287,287 247.081,276.652 243.546,269.664 C242.665,267.924 241.527,265.825 241.015,265 C240.504,264.175 238.458,259.9 236.468,255.5 C234.478,251.1 231.315,244.235 229.438,240.243 C227.562,236.252 224.401,229.502 222.415,225.243 C220.428,220.985 218.391,216.709 217.888,215.742 C217.385,214.775 215.595,210.5 213.912,206.242 C212.228,201.984 210.434,198.072 209.925,197.55 C209.416,197.027 209,195.592 209,194.359 C209,193.126 208.55,191.84 208,191.5 C207.45,191.16 207,189.839 207,188.563 C207,185.773 204.833,183.743 202.719,184.554 C201.875,184.878 200.233,187.248 199.071,189.822 C197.908,192.395 196.404,195.384 195.728,196.464 C187.291,209.957 184.808,214.215 181.713,220.5 C180.359,223.25 178.394,226.4 177.346,227.5 C175.569,229.365 170.983,235.905 168.23,240.5 C167.571,241.6 165.806,244.525 164.308,247 C159.955,254.193 148.842,266 146.426,266 C143.542,266 140.779,262.781 141.617,260.395 C141.982,259.353 144.199,256.475 146.542,254 C148.886,251.525 152.085,247.645 153.652,245.379 C155.218,243.112 159.471,237.037 163.101,231.879 C171.047,220.59 176.06,211.851 187.126,190 C190.05,184.225 192.944,178.825 193.557,178 C194.169,177.175 195.24,174.925 195.936,173 C196.632,171.075 197.663,168.524 198.226,167.331 C198.79,166.139 198.966,163.664 198.618,161.831 C198.269,159.999 197.703,156.577 197.359,154.227 C197.016,151.877 196.344,149.713 195.867,149.418 C195.39,149.123 194.986,147.446 194.968,145.691 C194.951,143.936 194.276,141.626 193.468,140.559 C192.661,139.491 192,137.38 192,135.868 C192,134.355 191.55,132.84 191,132.5 C190.45,132.16 190,131.002 190,129.927 C190,128.852 189.572,127.191 189.048,126.236 C188.525,125.281 187.354,122.7 186.446,120.5 C185.539,118.3 184.422,115.6 183.964,114.5 C183.507,113.4 181.865,108.959 180.316,104.63 C178.767,100.302 176.898,96.527 176.163,96.24 C174.909,95.752 170.677,96.821 160,100.324 C157.525,101.136 153.588,102.314 151.25,102.941 C146.862,104.117 145.727,106.188 148.592,107.792 C149.881,108.513 150.087,109.906 149.674,115.091 C149.393,118.616 148.896,122.85 148.57,124.5 C146.295,136.008 147.194,139.565 151.118,134.578 C154.358,130.458 169.198,124.293 172.982,125.494 C175.806,126.391 176.673,130.599 174.523,132.974 C173.581,134.015 170.49,135.685 167.655,136.684 C164.237,137.888 160.647,140.314 157,143.882 C153.975,146.843 150.199,149.551 148.609,149.901 C146.116,150.45 145.511,151.291 144.212,156.019 C143.383,159.033 142.729,162.608 142.76,163.963 C142.79,165.318 142.182,167.33 141.407,168.436 C140.537,169.679 140,173.006 140,177.163 C140,180.859 139.55,184.16 139,184.5 C138.45,184.84 138,186.801 138,188.859 C138,190.917 137.496,193.104 136.88,193.72 C135.813,194.787 134.949,197.969 133.001,208 C132.08,212.745 130.113,219.418 128.106,224.607 C126.826,227.916 122.911,230.681 121.095,229.559 C119.662,228.673 119.68,221.72 121.12,220.28 C122.198,219.202 123.11,215.787 124.98,205.817 C125.463,203.241 126.34,200.233 126.929,199.132 C127.518,198.032 128,195.328 128,193.125 C128,190.921 128.402,188.869 128.894,188.565 C129.791,188.011 130.157,186.175 131.819,173.886 C132.311,170.249 133.067,166.7 133.5,166 C134.56,164.285 135.802,154.714 137.457,135.5 C138.215,126.7 139.12,116.912 139.467,113.75 C140.074,108.227 140.008,108.001 137.8,108.035 C136.535,108.055 134.375,108.714 133,109.5 C131.625,110.286 129.404,110.945 128.064,110.965 C125.239,111.006 121,107.415 121,104.981 C121,101.287 125.123,99.48 148.5,92.932 C164.767,88.375 172.174,85.71 172.751,84.206 C173.034,83.468 172.818,81.883 172.271,80.683 C169.004,73.51 168,70.686 168,68.666 C168,67.42 167.607,65.972 167.127,65.45 C165.415,63.588 165.067,53.349 166.64,51.104 Z M69.379,47.454 C70.23,45.236 72.353,45.708 75.204,48.75 C78.07,51.807 78.584,55.049 79.644,76.75 C80.087,85.84 80.577,89 81.544,89 C83.261,89 88.583,83.621 91.61,78.825 C94.284,74.589 94.325,74.568 97.066,76.035 C99.554,77.367 99.658,83.042 97.262,86.785 C96.306,88.278 92.031,92.899 87.762,97.053 L80,104.606 L80,116.103 C80,123.243 80.424,128.024 81.118,128.718 C81.733,129.333 83.684,129.601 85.454,129.314 C87.611,128.964 89.961,129.478 92.586,130.873 C104.445,137.18 108.479,146.003 109.56,168 C110.913,195.552 111.522,203.533 112.368,204.845 C112.845,205.584 113.414,210.948 113.633,216.764 C114.002,226.561 113.87,227.509 111.841,229.669 C109.365,232.305 106.375,232.647 103.473,230.628 C102.388,229.873 100.042,228.938 98.259,228.55 C96.376,228.141 93.86,226.441 92.256,224.495 L89.495,221.145 L83.497,222.477 C80.199,223.209 76.083,224.383 74.351,225.086 C69.835,226.916 66,224.371 66,219.544 C66,215.703 68.097,214.432 72.772,215.438 C74.646,215.841 77.411,215.117 81.604,213.124 C93.31,207.561 97,208.031 97,215.087 C97,217.946 97.528,219.212 99.064,220.034 C102.32,221.777 104,219.62 104,213.697 C104,208.954 103.705,208.363 99.25,204.195 C96.638,201.751 93.551,199.122 92.391,198.353 C89.92,196.715 87.031,197.51 86.927,199.857 C86.887,200.761 86.048,202.85 85.064,204.5 C82.825,208.253 79.957,208.104 74.81,203.968 C69.966,200.075 68,200.103 68,204.065 C68,206.427 66.853,208.247 63,212 C58.141,216.733 57.999,217.034 57.978,222.685 C57.951,229.688 55.616,233.648 52.16,232.551 C49.374,231.666 48.443,227.803 49.869,223.043 C51.693,216.955 51.392,166.363 49.5,161 C48.675,158.662 48,155.095 48,153.074 C48,151.053 47.517,148.917 46.927,148.327 C45.354,146.754 46.224,140.874 48.214,139.629 C49.539,138.799 50.561,139.027 52.714,140.629 C54.998,142.329 55.592,143.675 56.011,148.101 C56.291,151.071 56.88,154.063 57.32,154.75 C58.527,156.64 61.165,156.268 60.869,154.25 C60.51,151.813 65.365,142.195 69.043,138.055 L72.103,134.611 L71.61,103.555 C71.339,86.475 70.825,69.688 70.469,66.25 C70.031,62.014 70.173,60 70.911,60 C72.566,60 72.211,53.746 70.411,51.176 C69.537,49.928 69.073,48.253 69.379,47.454 Z M166.586,157.043 C168.189,156.564 170.041,156.133 170.703,156.086 C173.098,155.915 176.804,158.274 177.892,160.663 C179.474,164.134 178.205,173.505 175.866,175.621 C174.655,176.718 174,178.673 174,181.195 C174,186.943 165.448,198 161.002,198 C158.28,198 154,193.358 154,190.407 C154,189.141 152.875,185.99 151.5,183.404 C150.125,180.818 149,177.924 149,176.974 C149,176.023 148.372,174.724 147.605,174.087 C146.837,173.45 145.904,171.304 145.532,169.318 C144.688,164.822 145.945,163.894 151.788,164.694 C155.788,165.243 156.41,165.006 159.896,161.602 C161.972,159.574 164.983,157.523 166.586,157.043 Z M80.861,140.939 C78.627,142.775 78.582,143.029 80.034,145.682 C80.878,147.224 82.453,148.65 83.534,148.851 C88.515,149.775 90.728,154.558 88.217,158.971 C87.272,160.63 86.162,161.99 85.75,161.994 C85.338,161.997 85,163.373 85,165.052 C85,166.73 83.987,169.897 82.75,172.089 L80.5,176.073 L84.687,179.787 C86.991,181.829 91.402,185.75 94.491,188.5 C101.822,195.028 102.458,195.195 101.664,190.384 C101.311,188.248 101.017,185.004 101.011,183.175 C101.001,180.025 100.829,179.866 97.75,180.175 C94.72,180.478 94.465,180.263 93.982,177 C93.698,175.075 92.59,171.788 91.522,169.696 C89.056,164.871 90.242,162.5 95.121,162.5 C98.387,162.5 98.51,162.356 98.81,158.207 C99.055,154.809 98.459,152.83 95.951,148.707 C89.869,138.713 85.997,136.72 80.861,140.939 Z M208.203,38.197 C210.692,35.708 214.564,38.141 220.152,45.706 C223.426,50.138 224,51.671 224,55.989 C224,62.339 221.865,63.707 218.342,59.612 C217.054,58.114 216,56.293 216,55.565 C216,54.837 213.975,52.582 211.5,50.554 C207.629,47.381 207,46.344 207,43.133 C207,41.08 207.541,38.859 208.203,38.197 Z M69.786,152.75 C68.947,153.713 67.95,155.85 67.57,157.5 C65.819,165.102 65.835,165.476 67.978,166.784 C70.395,168.259 71.986,167.634 72.032,165.191 C72.049,164.261 72.724,162.626 73.532,161.559 C75.305,159.215 75.458,153.858 73.8,152.2 C72.198,150.598 71.587,150.681 69.786,152.75 Z M60.098,188.382 C59.467,189.143 59.021,191.055 59.108,192.632 C59.196,194.21 58.951,196.242 58.565,197.149 C58.179,198.056 58.364,199.107 58.976,199.485 C60.498,200.426 63,198.175 63,195.864 C63,194.824 63.535,193.116 64.19,192.068 C65.123,190.573 65.097,189.821 64.067,188.581 C62.455,186.639 61.581,186.595 60.098,188.382 Z M161.35,174.75 C159.373,177.432 159.243,180 161.083,180 C162.751,180 166,176.035 166,174 C166,171.158 163.726,171.525 161.35,174.75 Z M60,173.917 C60,175.145 60.646,176 61.573,176 C62.505,176 63.015,175.32 62.823,174.333 C62.337,171.824 60,171.48 60,173.917 Z"/>
</svg>

