<svg xmlns="http://www.w3.org/2000/svg" width="300" height="300" viewBox="0 0 300 300" version="1.1">
  <defs/>
  <path d="M75.9,34.342 C79.53,32.569 83.4,31.098 84.5,31.072 C87.137,31.01 95,38.371 95,40.901 C95,41.99 95.45,43.16 96,43.5 C99.046,45.382 94.692,79.036 90.831,83.45 C90.374,83.972 90,86.308 90,88.641 C90,90.974 89.55,93.16 89,93.5 C88.45,93.84 88,94.931 88,95.924 C88,98.779 84.216,102.841 81.237,103.186 C79.448,103.392 78.393,104.184 78.155,105.5 C77.956,106.6 77.089,108.294 76.228,109.265 C75.367,110.237 74.457,113.499 74.207,116.515 C73.8,121.422 73.955,122 75.68,122 C78.006,122 82.89,116.91 85.556,111.707 C87.44,108.031 90.767,106.12 92.943,107.465 C93.524,107.824 94,109.785 94,111.822 C94,114.972 92.989,116.674 87.25,123.19 C83.537,127.405 79.263,131.82 77.75,133 C76.237,134.18 75,135.761 75,136.514 C75,139.152 77.188,139.194 79.886,136.609 C83.233,133.403 84.062,133.372 86.863,136.354 C88.882,138.503 88.981,139.125 87.997,143.512 C86.817,148.778 85.191,150.687 72.792,161.363 C63.268,169.564 60.943,169.881 57.008,163.514 C54.532,159.506 55.006,158.075 60.599,152.678 C64.819,148.606 67.425,143 65.098,143 C64.483,143 61.666,144.626 58.839,146.613 C54.287,149.813 53.179,150.168 49.16,149.715 C44.065,149.14 41.751,146.906 42.208,143.001 C42.445,140.972 43.255,140.34 46.5,139.653 C52.808,138.318 62.497,133.357 64.75,130.309 C65.438,129.379 65.955,126.791 65.9,124.559 C65.685,115.798 63.348,113.232 58.486,116.417 C55.465,118.397 53.05,118.424 50.316,116.508 C47.97,114.865 46.853,108.384 47.085,97.75 C47.229,91.095 40.456,66.708 36.044,58 C32.306,50.624 31.593,45.678 33.959,43.537 C36.776,40.987 40.697,42.497 42.588,46.86 C43.456,48.862 44.58,51.175 45.086,52 C45.591,52.825 46.443,54.513 46.978,55.75 C48.38,58.994 49.586,58.553 52.448,53.75 C55.762,48.187 67.587,38.401 75.9,34.342 Z M141.148,52.322 C143.48,49.511 147.376,51.744 148.438,56.5 C148.806,58.15 149.57,61.525 150.136,64 C151.188,68.599 151.332,79.099 150.388,82.255 C150.068,83.322 150.509,84.258 151.514,84.644 C153.652,85.464 166.276,73.237 165.682,70.921 C165.026,68.365 167.551,65.723 169.928,66.477 C178.075,69.063 171.142,86.704 160.056,91.595 C157.926,92.535 155.701,94.361 155.113,95.652 C154.524,96.944 153.542,98 152.929,98 C150.86,98 146.501,102.165 146.295,104.34 C146.078,106.633 145.416,109.863 142.083,124.902 C140.938,130.073 140,134.621 140,135.009 C140,135.935 165.365,162 166.266,162 C166.647,162 168.881,164.094 171.229,166.654 C173.578,169.214 177.975,173.851 181,176.958 C190.82,187.046 195.73,193.048 204.549,205.75 C206.554,208.637 208.551,211 208.987,211 C209.423,211 210.715,212.99 211.858,215.421 C213.001,217.853 214.407,220.134 214.983,220.49 C215.559,220.846 216.63,222.568 217.364,224.318 C218.097,226.068 220.903,230.44 223.599,234.032 C230.62,243.391 234.438,251.118 233.63,254.337 C232.852,257.439 229.716,259.362 226.895,258.467 C223.852,257.501 216,246.317 216,242.949 C216,241.392 215.522,239.823 214.938,239.462 C214.354,239.101 213.443,237.837 212.914,236.653 C210.165,230.509 201.544,217.331 194.878,209.083 C192.47,206.104 188.443,201.064 185.928,197.884 C179.093,189.236 169.07,178.084 164.045,173.534 C161.594,171.315 158.444,168.375 157.045,167 C155.645,165.626 152.75,163.022 150.612,161.214 C148.473,159.406 145.398,156.256 143.778,154.214 C138.199,147.181 135.684,147.742 134.563,156.268 C132.994,168.207 132.728,169.559 131.698,170.831 C131.105,171.563 130.309,174.263 129.929,176.831 C128.925,183.609 126.137,194.668 123.837,201 C122.738,204.025 121.266,209.038 120.566,212.139 C119.867,215.24 118.439,219.065 117.394,220.639 C116.35,222.213 114.371,225.657 112.997,228.293 C110.144,233.768 107.274,235.065 103.493,232.587 C101.459,231.255 101,230.141 101,226.54 C101,222.316 101.136,222.113 104.172,221.813 C107.616,221.473 110.157,218.113 111.461,212.175 C112.011,209.674 111.86,209.116 110.752,209.542 C108.156,210.538 103.936,208.115 102.852,205.006 C102.257,203.297 101.091,202.002 100.152,202.004 C97.474,202.01 92,205.826 92,207.688 C92,209.777 86.158,216 84.198,216 C81.858,216 75.053,210.014 72.985,206.136 C70.574,201.616 68.294,199.011 64.75,196.727 C58.931,192.976 63.54,186.694 69.764,189.892 C70.719,190.383 72.735,191.272 74.244,191.868 C76.131,192.613 77.672,194.519 79.181,197.976 C81.871,204.136 84.273,204.538 88.293,199.5 C89.829,197.575 91.727,196 92.512,196 C93.296,196 95.772,195.044 98.013,193.876 C103.534,190.999 108.341,191.797 112.062,196.211 C115.668,200.488 116.586,199.517 118.435,189.465 C119.242,185.084 120.852,177.225 122.015,172 C123.177,166.775 125.246,156.65 126.613,149.5 C127.979,142.35 129.727,134.25 130.498,131.5 C134.536,117.092 135.301,112.804 133.98,111.988 C132.599,111.134 130.341,111.657 128.188,113.329 C125.902,115.104 107.687,124 106.338,124 C104.327,124 101.82,119.425 102.177,116.406 C102.453,114.08 103.878,112.972 111.942,108.814 C117.135,106.136 122.9,102.788 124.753,101.375 C126.606,99.962 129.634,98.388 131.481,97.878 C133.328,97.368 135.873,96.114 137.135,95.092 C139.366,93.285 139.438,92.694 139.74,73.439 C139.935,60.998 140.459,53.152 141.148,52.322 Z M173.577,29.876 C175.037,27.513 183,29.805 183,32.588 C183,34.573 191.569,46.106 201.824,57.921 C206.321,63.103 210,67.85 210,68.471 C210,70.148 207.838,72 205.882,72 C203.577,72 190.68,61.638 188.941,58.39 C188.181,56.969 186.281,54.731 184.72,53.417 C183.158,52.104 180.048,48.71 177.808,45.876 C174.513,41.708 173.668,39.77 173.385,35.737 C173.193,32.995 173.279,30.357 173.577,29.876 Z M0.667,207.667 C2.036,206.297 10.545,207.044 13.088,208.757 C19.615,213.153 24.129,218.111 27.893,225.016 C32.675,233.79 33.118,237.534 29.564,239.153 C26.378,240.604 24.258,239.703 22.801,236.278 C22.15,234.75 20.742,232.504 19.67,231.287 C18.599,230.071 17.218,228.065 16.603,226.83 C15.247,224.111 8.201,219.079 5.684,219.033 C1.656,218.96 0,217.095 0,212.631 C0,210.268 0.3,208.033 0.667,207.667 Z M81.25,42.662 C80.563,42.94 80,43.827 80,44.634 C80,45.442 78.502,46.728 76.67,47.493 C71.89,49.49 71.11,50.862 71.715,56.196 C72.213,60.587 72.45,60.912 75.367,61.196 C79.871,61.635 81.713,65.735 79.942,71.38 C79.231,73.646 77.941,76.4 77.075,77.5 C76.209,78.6 74.938,80.506 74.25,81.736 C72.805,84.321 72.546,95 73.929,95 C76.2,95 80.795,88.636 82.034,83.773 C82.493,81.973 83.6,77.575 84.495,74 C86.885,64.454 87.386,49.333 85.448,45.25 C83.893,41.973 83.524,41.745 81.25,42.662 Z M36.655,200.829 C39.121,198.103 40.46,198.54 45.195,203.611 C47.563,206.146 50.488,208.601 51.696,209.065 C54.805,210.26 55.886,216.363 53.464,219.04 C50.816,221.966 48.603,221.441 44.866,217 C43.015,214.799 40.038,211.257 38.25,209.128 C34.564,204.738 34.31,203.419 36.655,200.829 Z M54.616,65.003 C49.935,70.185 50.024,71.66 55.101,73.027 C57.356,73.635 59.321,73.989 59.466,73.816 C59.611,73.642 59.973,70.688 60.27,67.25 C60.926,59.663 59.833,59.228 54.616,65.003 Z M55.122,85.278 C54.505,85.895 54,87.466 54,88.77 C54,92.31 58.385,91.496 58.804,87.878 C59.14,84.985 56.956,83.444 55.122,85.278 Z"/>
</svg>

