<svg xmlns="http://www.w3.org/2000/svg" width="300" height="300" viewBox="0 0 300 300" version="1.1">
  <defs/>
  <path d="M112.357,5.435 L112.437,-0.092 L116.968,0.204 C121.317,0.488 121.513,0.637 121.823,3.877 C122,5.735 121.663,7.737 121.073,8.327 C120.483,8.917 120,10.097 120,10.95 C120,12.197 121.32,12.5 126.75,12.5 C133.081,12.5 133.521,12.647 133.834,14.858 C134.041,16.325 133.238,18.214 131.709,19.858 C128.707,23.084 127.77,26.539 127.617,34.955 L127.5,41.409 L130.986,42.126 C133.024,42.546 135.67,44.185 137.358,46.075 C140.113,49.157 140.214,49.606 139.573,55.865 C138.857,62.85 136.802,67.103 131.59,72.384 C129.891,74.106 126.7,77.906 124.5,80.828 C121.867,84.325 119.553,86.332 117.729,86.7 C116.205,87.007 114.712,87.657 114.411,88.144 C114.11,88.632 112.432,89.689 110.682,90.495 C108.932,91.301 106.712,92.529 105.75,93.225 C104.452,94.163 103.548,94.206 102.25,93.393 C99.518,91.68 99.531,88.11 102.279,85.142 C104.398,82.853 104.746,81.464 104.881,74.75 C104.977,69.987 104.639,67 104.004,67 C103.437,67 101.512,67.957 99.728,69.126 C96.496,71.245 95.248,74.161 91.865,87.5 C91.307,89.7 89.707,95.17 88.309,99.657 C85.728,107.938 85.817,110 88.754,110 C91.227,110 96,115.064 96,117.687 C96,121.328 98.839,120.449 100.643,116.25 C101.529,114.188 102.872,111.306 103.627,109.846 C104.382,108.386 105,106.264 105,105.131 C105,103.038 107.646,101 110.363,101 C114.517,101 116.581,108.528 113.532,112.559 C112.724,113.626 112.049,115.199 112.032,116.054 C112.014,116.909 110.556,119.834 108.792,122.554 C102.519,132.223 102.064,134 105.859,134 C110.828,134 111.387,139.859 106.75,143.333 C101.014,147.63 99.931,147.514 94.524,142.025 C90.073,137.506 89.641,136.657 89.814,132.775 C89.991,128.799 88.261,121.927 86.685,120.352 C86.308,119.975 86,118.418 86,116.892 C86,115.366 85.482,113.798 84.848,113.406 C83.155,112.359 81,115.886 81,119.705 C81,121.532 80.596,123.809 80.103,124.764 C79.609,125.719 78.423,128.525 77.466,131 C74.617,138.372 71.122,145.541 68.481,149.433 C67.116,151.444 66,153.467 66,153.929 C66,155.082 61.408,158 59.594,158 C56.813,158 57.118,156.36 61.556,147.443 C64,142.533 66,138.004 66,137.38 C66,136.756 66.675,135.685 67.5,135 C68.325,134.315 69,132.904 69,131.864 C69,130.824 69.405,129.191 69.9,128.236 C70.396,127.281 71.577,123.8 72.525,120.5 C73.473,117.2 74.643,113.719 75.124,112.764 C75.606,111.809 76,110.148 76,109.073 C76,107.998 76.45,106.84 77,106.5 C77.55,106.16 78.016,104.671 78.035,103.191 C78.055,101.711 78.714,99.375 79.5,98 C80.286,96.625 80.945,94.289 80.965,92.809 C80.984,91.329 81.45,89.84 82,89.5 C82.55,89.16 83,87.529 83,85.875 C83,84.222 83.537,81.886 84.193,80.684 C85.803,77.734 88.014,64.49 89.62,48.171 C90.404,40.21 89.566,39.163 83.912,41.029 C80.101,42.287 79.652,42.245 78.382,40.508 C76.66,38.153 76.587,33.579 78.25,32.236 C78.938,31.68 81.422,30.909 83.772,30.521 C86.121,30.134 91.071,28.208 94.772,26.242 C98.472,24.276 103.3,21.725 105.5,20.573 C108.254,19.131 109.608,17.703 109.846,15.989 C110.036,14.62 110.661,12.929 111.234,12.231 C111.808,11.532 112.313,8.474 112.357,5.435 Z M215.066,161.327 C215.552,160.047 216.39,159 216.928,159 C218.277,159 219.979,165.568 220.038,171 C220.065,173.475 220.519,177.525 221.047,180 C221.918,184.085 223.318,193.608 224.679,204.708 C224.963,207.023 225.826,209.441 226.597,210.081 C227.405,210.751 228,213.078 228,215.563 C228,217.939 228.45,220.16 229,220.5 C229.55,220.84 230,222.351 230,223.859 C230,225.367 230.403,227.028 230.896,227.55 C231.769,228.476 233.832,240.667 234.745,250.293 C235.11,254.153 234.742,255.764 232.849,258.568 C230.245,262.429 229.707,262.619 219,263.463 C214.875,263.788 208.125,264.499 204,265.043 C199.875,265.587 186.15,266.306 173.5,266.641 C151.826,267.215 150.131,267.128 144.092,265.127 C125.632,259.013 117.828,248.847 117.892,231 C117.93,220.271 120.537,200.872 123.076,192.429 C124.464,187.816 124.2,184.014 122.446,183.341 C118.743,181.92 104.521,190.785 101.857,196.175 C99.506,200.932 96.79,209.607 95.649,216 C95.403,217.375 94.735,219.85 94.163,221.5 C93.591,223.15 92.618,226.525 92,229 C91.382,231.475 90.41,234.85 89.84,236.5 C88.638,239.981 87.097,246.198 86.37,250.5 C85.249,257.141 81.596,260.569 78.436,257.947 C76.702,256.508 77.406,248.215 79.636,243.8 C80.386,242.314 81,239.304 81,237.109 C81,234.914 81.45,232.84 82,232.5 C82.55,232.16 83,230.319 83,228.409 C83,226.499 83.675,223.32 84.5,221.346 C85.325,219.371 86,216.776 86,215.578 C86,214.38 86.404,212.972 86.898,212.45 C87.391,211.927 88.035,209.7 88.327,207.5 C89.303,200.171 90.846,193.156 91.929,191.132 C92.518,190.032 93,185.293 93,180.601 C93,173.022 93.229,171.948 95.052,170.972 C98.514,169.119 101.35,170.218 103.5,174.247 C104.6,176.308 105.955,177.996 106.51,177.997 C107.066,177.999 111.116,176.43 115.51,174.512 C124.152,170.74 126.521,170.369 130.477,172.171 C133.52,173.558 134.412,176.392 133.64,182.227 C131.79,196.2 131.377,198.623 130.642,199.792 C128.383,203.386 126.044,238.444 127.937,240.337 C128.522,240.922 129,242.347 129,243.504 C129,247.902 138.848,254.489 149.282,257.071 C156.006,258.734 196.931,257.668 207,255.567 C211.125,254.706 216.132,254.002 218.128,254.001 C221.928,254 224.676,251.903 223.458,249.933 C223.066,249.297 222.369,243.99 221.91,238.139 C221.45,232.287 220.624,224.8 220.074,221.5 C219.524,218.2 218.605,211.9 218.031,207.5 C217.457,203.1 216.705,198.825 216.359,198 C215.255,195.364 214.14,163.763 215.066,161.327 Z M170.399,75.403 C170.73,74.54 171.544,74.015 172.207,74.236 C173.937,74.812 176.841,80.092 176.927,82.816 C176.967,84.089 177.54,86.114 178.2,87.316 C178.86,88.517 179.729,91.75 180.131,94.5 C181.29,102.424 182.14,105.117 184.65,108.817 C186.693,111.826 186.999,113.471 186.994,121.39 C186.987,132.735 185.904,136.737 181.76,140.726 C178.523,143.841 178.385,143.872 162.5,145.08 C142.116,146.63 133.232,145.472 128.872,140.698 L126.072,137.633 L126.149,116.066 C126.191,104.205 125.899,92.808 125.5,90.739 C124.701,86.604 126.041,84 128.967,84 C132.189,84 133.878,87.238 134.196,94.019 C134.429,98.978 134.852,100.5 136,100.5 C136.954,100.5 137.612,99.344 137.808,97.324 C137.977,95.578 138.765,93.61 139.558,92.952 C140.351,92.294 141,90.521 141,89.012 C141,85.737 144.458,81 146.85,81 C151.582,81 154.422,86.279 152.102,90.764 C148.309,98.094 146,103.449 146,104.912 C146,105.863 144.495,108.409 142.655,110.57 C139.794,113.931 139.214,115.514 138.65,121.5 C138.288,125.35 137.717,129.729 137.382,131.232 C136.521,135.097 139.583,136 153.551,136 C167.468,136 173.171,134.673 175.389,130.918 C177.22,127.818 177.553,118.584 175.982,114.453 C175.422,112.98 174.533,108.563 174.006,104.638 C173.479,100.712 172.566,94.8 171.977,91.5 C170.208,81.591 169.764,77.058 170.399,75.403 Z M111.752,29.092 C109.543,30.757 109.127,31.689 109.631,33.832 C109.976,35.3 110.65,36.927 111.129,37.45 C111.608,37.972 112,39.605 112,41.078 C112,44.041 114.569,46.86 115.945,45.408 C116.783,44.524 117.825,38.083 118.277,31 C118.458,28.158 118.124,27.455 116.5,27.26 C115.4,27.128 113.263,27.952 111.752,29.092 Z M98,45.941 C98,50.859 98.363,55.106 98.806,55.38 C99.249,55.654 100.712,55.333 102.056,54.666 C105.081,53.166 105.853,47.868 103.683,43.5 C102.864,41.85 101.939,39.712 101.628,38.75 C101.317,37.788 100.374,37 99.531,37 C98.27,37 98,38.579 98,45.941 Z M126.411,57.5 C126.066,58.875 125.382,60 124.892,60 C124.401,60 124,61.575 124,63.5 C124,68.041 126.324,68.157 129.011,63.75 C131.672,59.385 131.676,55 129.019,55 C127.74,55 126.816,55.886 126.411,57.5 Z M114,62.5 C114,63.417 114.484,64.005 115.075,63.808 C115.666,63.611 116.15,63.023 116.15,62.5 C116.15,61.977 115.666,61.389 115.075,61.192 C114.484,60.995 114,61.583 114,62.5 Z"/>
</svg>

