<svg xmlns="http://www.w3.org/2000/svg" width="300" height="300" viewBox="0 0 300 300" version="1.1">
  <defs/>
  <path d="M104,0.878 C104,0.395 108.95,0 115,0 L126,0 L126.213,5.75 C126.33,8.912 126.281,15.662 126.104,20.75 C125.801,29.434 125.903,30 127.776,30 C128.874,30 131.06,29.328 132.636,28.506 C136.887,26.289 143.291,26.559 145.546,29.051 C147.506,31.217 147.757,37.643 145.952,39.448 C145.428,39.972 145,41.01 145,41.755 C145,43.867 141.273,51.529 139.55,52.959 C138.594,53.752 138,55.877 138,58.501 C138,62.454 138.409,63.101 143.75,67.598 C151.107,73.791 165.648,86.767 173.999,94.591 C177.575,97.94 182.75,102.665 185.5,105.091 C193.252,111.927 193.399,112.402 189.218,117.082 L186.436,120.195 L182.182,117.978 C179.842,116.758 177.297,114.577 176.526,113.13 C173.286,107.049 133.643,70.877 132.099,72.591 C131.349,73.423 128.393,79.089 124.891,86.405 C123.787,88.71 112.056,101.29 106.151,106.5 C102.988,109.291 95,118.931 95,119.958 C95,121.501 98.851,120.343 101.5,118.003 C105.252,114.689 118.492,107.777 122,107.3 C127.295,106.581 130.627,110.597 131.235,118.432 C131.668,124.014 130.854,129.941 129.029,134.5 C128.588,135.6 127.632,138.525 126.903,141 C123.591,152.252 116.181,162.538 109.968,164.51 C107.734,165.219 107.74,165.246 110.724,167.581 C113.71,169.918 114.968,174.059 115.56,183.5 C115.876,188.547 117.168,197.451 117.714,198.34 C118.354,199.383 124.486,198.304 128.5,196.443 C130.15,195.678 135.1,193.862 139.5,192.407 C143.9,190.953 147.998,189.364 148.608,188.877 C150.114,187.673 161.068,184.055 163.3,184.025 C166.559,183.98 170.953,186.964 171.636,189.687 C172.487,193.078 169.182,196 164.494,196 C162.687,196 158.125,197.295 154.355,198.878 C150.585,200.461 145.025,202.345 142,203.064 C138.975,203.783 135.731,205.016 134.791,205.804 C133.85,206.592 131.021,207.469 128.503,207.753 C125.363,208.106 122.993,209.139 120.962,211.036 L118,213.802 L117.828,227.151 C117.46,255.606 115.872,297.993 115.109,299.75 C115.049,299.887 112.913,300 110.363,300 L105.726,300 L106.478,290.25 C107.832,272.699 108.505,250.798 108.202,234.2 C107.955,220.698 107.642,217.8 106.377,217.315 C104.841,216.725 99.055,218.16 93.5,220.508 C88.843,222.477 83.556,224 81.379,224 C80.291,224 78.973,224.406 78.45,224.902 C77.475,225.827 63.417,230.995 54.5,233.707 C51.75,234.543 48.82,235.563 47.988,235.974 C47.156,236.384 43.93,237.46 40.818,238.364 C37.707,239.269 32.772,241.582 29.853,243.505 C26.934,245.427 23.785,247 22.855,247 C21.925,247 20.471,247.266 19.624,247.591 C18.553,248.002 17.885,247.389 17.431,245.581 C16.575,242.172 20.495,236.925 25.694,234.521 C27.787,233.553 31.643,231.705 34.262,230.416 C36.881,229.126 40.803,227.591 42.979,227.006 C45.98,226.197 47.318,225.133 48.524,222.591 C49.398,220.748 52.287,217.049 54.944,214.37 C59.373,209.905 79.315,182.345 83.116,175.437 C84.005,173.822 84.989,169.875 85.303,166.667 C85.764,161.948 85.485,160.134 83.842,157.167 C81.215,152.424 77.545,148.525 72.25,144.852 C68.458,142.221 68,141.476 68,137.931 C68,134.526 68.394,133.802 70.75,132.872 C72.263,132.275 74.175,131.451 75,131.041 C76.694,130.199 87.789,114.12 92.814,105.225 C94.637,101.998 97.225,98.082 98.564,96.523 C99.904,94.964 101,92.845 101,91.813 C101,89.221 103.447,88.528 107.166,90.069 C110.091,91.28 110.435,91.192 112.398,88.729 C113.554,87.278 116.45,81.468 118.834,75.816 L123.167,65.541 L120.536,63.277 C119.089,62.033 116.689,60.728 115.203,60.379 C111.866,59.594 105.928,56.22 104.25,54.155 C102.464,51.958 102.706,48.05 104.675,47.294 C107.51,46.206 117,36.195 116.998,34.294 C116.992,28.026 113.867,4.536 112.965,3.978 C112.363,3.606 110.772,3.512 109.43,3.769 C107.035,4.226 104,2.61 104,0.878 Z M77.376,32.128 C79.761,31.468 81.21,31.695 83.5,33.085 C86.024,34.617 86.548,35.629 86.805,39.468 C87.115,44.086 84.811,49.897 80.845,54.5 C79.897,55.6 78.665,58.525 78.106,61 C77.131,65.321 77.208,65.592 80.045,67.822 C82.596,69.827 83,70.811 83,75.013 C83,77.691 82.608,80.124 82.129,80.42 C81.65,80.716 80.996,82.205 80.675,83.729 C80.354,85.253 78.936,87.819 77.523,89.432 C74.919,92.405 74.687,94.062 76.78,94.76 C78.159,95.22 87,86.372 87,84.531 C87,82.475 89.728,80.779 91.917,81.474 C94.722,82.364 95.822,88.434 93.619,90.869 C92.728,91.853 91.994,93.072 91.986,93.579 C91.94,96.58 72.798,114 69.546,114 C69.236,114 67.119,115.35 64.841,117 C62.564,118.65 60.286,120 59.78,120 C59.274,120 56.979,121.25 54.68,122.778 C42.777,130.687 33.685,131.087 35.559,123.619 C36.276,120.764 43.208,114 45.418,114 C47.311,114 55,105.169 55,102.994 C55,102.046 54.088,100.11 52.973,98.693 C46.413,90.353 46.236,76.971 52.702,78.167 C53.749,78.361 55.645,80.902 57.24,84.25 C59.462,88.912 60.439,90 62.401,90 C65.513,90 70,84.753 70,81.114 C70,77.331 67.548,74.092 65.908,75.709 C65.105,76.501 63.098,76.707 60.091,76.305 C53.396,75.412 52.181,72.728 56.51,68.399 L59.021,65.888 L55.863,63.194 C54.126,61.712 51.909,60.05 50.936,59.5 C49.964,58.95 48.198,57.263 47.012,55.75 C45.559,53.898 43.543,52.791 40.833,52.357 C38.622,52.004 35.996,50.839 34.999,49.769 C27.734,41.97 37.716,37.83 48.671,44.098 C55.4,47.948 57.221,47.584 64.205,40.991 C67.114,38.246 70.003,36 70.624,36 C71.246,36 72.317,35.323 73.003,34.496 C73.69,33.669 75.657,32.603 77.376,32.128 Z M100.762,167.774 C99.934,168.723 98.706,170.563 98.033,171.862 C97.36,173.162 94.49,176.788 91.655,179.921 C88.82,183.055 85.15,187.569 83.5,189.954 C81.85,192.339 78.421,196.587 75.879,199.395 C73.338,202.203 70.563,205.85 69.711,207.5 C68.86,209.15 65.877,212.643 63.082,215.262 C55.875,222.016 56.363,223.817 64.39,220.093 C66.651,219.045 71.65,217.235 75.5,216.071 C85.54,213.036 102.114,206.877 104.75,205.201 C107.509,203.447 107.702,198.844 105.5,187.338 C104.675,183.027 104,176.714 104,173.309 C104,166.597 103.112,165.079 100.762,167.774 Z M36.036,0.75 C36.016,0.337 43.847,0 53.437,0 L70.874,0 L70.306,3.5 C69.765,6.833 69.878,7 72.669,7 C76.602,7 78,8.64 78,13.251 C78,16.692 77.635,17.255 74.568,18.536 C72.681,19.324 70.855,20.426 70.511,20.983 C70.166,21.54 67.37,23.186 64.296,24.64 C59.884,26.727 58.16,27.086 56.104,26.344 C53.98,25.578 53.556,24.861 53.803,22.453 C53.976,20.773 55.377,18.293 57.053,16.699 C59.616,14.263 60,13.185 60,8.418 C60,1.898 58.594,0.859 53.775,3.815 C51.974,4.92 48.314,6.147 45.641,6.542 C41.099,7.213 40.629,7.072 38.427,4.38 C37.132,2.796 36.056,1.163 36.036,0.75 Z M66.069,51.975 C62.145,55.421 61.617,56.387 61.447,60.433 C61.341,62.945 61.534,64.986 61.877,64.968 C63.987,64.86 75,51.846 75,49.461 C75,46.772 70.578,48.017 66.069,51.975 Z M85,136.685 C85,140.474 91.869,150.971 94.359,150.988 C95.907,150.998 96.125,150.455 95.657,147.75 C94.508,141.104 94.144,138.988 92.959,138.315 C92.404,137.999 91.668,138 90.587,138 C88.834,138 86.86,137.46 86.2,136.8 C85.408,136.008 85,135.969 85,136.685 Z M126.405,44.115 C125.357,45.278 123.451,46.631 122.169,47.121 C119.4,48.18 119.698,49.685 123.193,52.295 C126.673,54.893 130,53.836 130,50.133 C130,48.63 130.51,46.89 131.133,46.267 C132.531,44.869 131.558,42 129.686,42 C128.929,42 127.453,42.952 126.405,44.115 Z M113.194,139.717 C112.034,140.698 110.792,142.738 110.434,144.25 C109.88,146.591 110.099,147 111.906,147 C114.03,147 118.316,141.483 117.684,139.563 C117.12,137.851 115.329,137.912 113.194,139.717 Z M115.75,121.08 C114.787,121.641 114,122.59 114,123.189 C114,124.684 117.119,126.929 119.25,126.968 C121.043,127.001 121.552,124.601 120.393,121.582 C119.698,119.772 118.263,119.617 115.75,121.08 Z M95.476,134.075 C94.545,137.009 95.643,137.633 97.994,135.506 C100.522,133.217 100.548,132 98.067,132 C96.99,132 95.843,132.918 95.476,134.075 Z"/>
</svg>

