<svg xmlns="http://www.w3.org/2000/svg" width="300" height="300" viewBox="0 0 300 300" version="1.1">
  <defs/>
  <path d="M50.073,124.635 C52.358,121.73 53.205,121.504 56.066,123.035 C58.612,124.398 58.627,129.823 56.096,134.329 C55.049,136.194 53.972,140.37 53.703,143.61 C53.434,146.849 52.902,150.669 52.52,152.098 C51.838,154.647 51.944,154.709 57.997,155.342 C65.184,156.093 66,156.466 66,159 C66,160.035 66.45,161.16 67,161.5 C67.55,161.84 68,163.216 68,164.559 C68,167.526 68.251,167.541 73.687,164.91 C77.95,162.846 78.047,162.843 81.253,164.71 C86.261,167.627 85.938,174 80.782,174 C78.561,174 73,177.012 73,178.216 C73,178.647 74.318,179 75.929,179 C77.539,179 79.566,179.709 80.432,180.575 C81.84,181.983 81.848,182.379 80.504,184.298 C78.009,187.86 78.678,190.577 82.868,193.895 C86.137,196.484 86.821,197.697 87.293,201.729 C88.055,208.252 86.223,210.3 82.261,207.354 C80.597,206.117 79.37,204.15 79.173,202.401 C78.993,200.805 78.441,199.083 77.947,198.574 C76.883,197.478 73,200.654 73,202.62 C73,203.341 71.59,205.536 69.867,207.499 C68.144,209.462 66.438,212.515 66.076,214.284 C65.488,217.157 65.05,217.5 61.968,217.5 C59.021,217.5 58.267,216.99 56.793,214 C55.843,212.075 54.763,208.774 54.392,206.664 C53.928,204.029 52.998,202.501 51.422,201.783 C48.465,200.435 46,201.402 46,203.91 C46,204.994 45.551,206.16 45.002,206.499 C44.453,206.838 42.881,209.49 41.508,212.392 C40.135,215.294 37.471,219.07 35.587,220.785 C31.898,224.141 31.68,227.223 35.005,229.003 C36.777,229.951 45.366,228.614 57,225.579 C65.68,223.315 75.138,222 82.743,222 C87.151,222 90.128,221.536 90.759,220.75 C92.476,218.613 93.3,207.432 93.616,182 C93.842,163.747 93.548,155.44 92.46,149.422 C90.682,139.587 90.557,128.843 92.2,127.2 C94.083,125.317 99.775,125.711 100.894,127.802 C101.425,128.794 102.031,135.534 102.241,142.781 C102.452,150.028 102.933,156.267 103.312,156.645 C104.286,157.619 104.168,163.413 103.15,164.55 C102.683,165.072 102.582,170 102.925,175.5 C103.269,181 103.217,187.975 102.811,191 C102.039,196.741 100.674,220.214 100.935,223.25 C101.557,230.487 100.302,245.38 98.828,248.25 C97.789,250.273 93.707,250.584 92.255,248.75 C91.711,248.063 91.019,244.635 90.717,241.134 C90.416,237.633 89.659,234.259 89.035,233.635 C87.218,231.818 71.77,232.712 65.222,235.013 C62.113,236.106 58.406,237 56.985,237 C55.563,237 53.921,237.479 53.335,238.065 C52.75,238.65 49.622,239.236 46.385,239.366 C43.148,239.496 39.467,240.169 38.203,240.861 C34.982,242.627 29.411,239.756 25.695,234.414 C23.194,230.82 22.882,229.557 23.1,223.914 C23.562,211.933 23.502,172.559 23,158.626 C22.551,146.176 22.68,144.637 24.25,143.631 C26.577,142.141 29.386,143.886 29.835,147.102 C30.019,148.421 30.581,149.928 31.085,150.45 C31.588,150.972 32,157.524 32,165.009 C32,182.338 32.335,182.957 40.625,180.974 C43.856,180.201 48.525,178.601 51,177.418 C53.475,176.235 56.513,174.951 57.75,174.566 C60.081,173.84 60.856,170.288 59.085,168.45 C58.581,167.927 58.019,166.375 57.835,165 C57.604,163.278 56.782,162.398 55.195,162.173 C52.242,161.755 50.532,163.217 47.961,168.36 C44.726,174.831 42.469,177.394 40.628,176.687 C38.602,175.91 38.51,171.64 40.403,166.274 C41.175,164.086 42.338,158.742 42.987,154.398 C43.635,150.054 44.529,145.6 44.973,144.5 C46.096,141.715 48,132.317 48,129.559 C48,128.3 48.933,126.084 50.073,124.635 Z M120.122,66.079 C123.031,64.914 126.155,64.782 127.519,65.765 C128.08,66.169 129.848,70.1 131.449,74.5 C134.244,82.183 134.36,83.193 134.373,100 C134.381,109.625 134.188,130.325 133.944,146 L133.5,174.5 L135.791,174.825 C139.523,175.354 150.447,163.34 161.546,146.5 C168.392,136.111 168.575,135.79 175.201,122.5 C183.331,106.191 186,99.871 186,96.928 C186,94.023 188.724,91 191.341,91 C193.924,91 198,94.783 198,97.182 C198,98.19 196.83,101.374 195.4,104.257 C188.842,117.481 185.62,123.615 184.505,125 C183.154,126.678 179.906,132.695 177.488,138 C174.225,145.158 167.669,155.336 162.994,160.5 C160.603,163.142 159.242,165.379 155.857,172.236 C155.386,173.191 155,174.143 155,174.351 C155,175.027 163.398,177.873 167.5,178.587 C175.687,180.012 198.442,190.211 210.472,197.846 C220.219,204.033 238.847,218.303 249.358,227.635 C254.23,231.961 260.273,236.947 262.787,238.715 C265.301,240.483 270.001,244.622 273.231,247.913 L279.105,253.896 L277.527,256.948 C275.106,261.629 270.676,261.209 264.898,255.75 C255.931,247.278 244.43,237.063 241.319,234.807 C239.569,233.538 234.076,229.125 229.113,225 C206.637,206.319 195.274,199.29 174.144,190.996 C162.799,186.543 162.339,186.588 159.234,192.427 C158.335,194.117 156.755,197.95 155.722,200.945 C152.096,211.46 142.102,222 135.76,222 C133.912,222 131.89,222.51 131.267,223.133 C129.455,224.945 127.253,223.424 124.995,218.8 C123.061,214.842 122.939,213.348 123.453,200 C125.521,146.298 125.899,85.499 124.176,83.776 C123.529,83.129 123,81.707 123,80.614 C123,79.522 122.082,77.652 120.96,76.458 C119.839,75.264 118.656,72.654 118.332,70.659 C117.819,67.498 118.05,66.908 120.122,66.079 Z M54.471,30.047 C54.827,29.471 56.554,29.006 58.309,29.014 C64.832,29.042 65.532,29.67 67.998,37.708 C70.243,45.023 70.277,45.668 69.055,57.73 C67.708,71.033 68.217,73.615 71.745,71.389 C73.789,70.1 76.826,65.116 76.927,62.885 C77.04,60.391 80.927,56 83.022,56 C84.939,56 90,61.721 90,63.888 C90,64.548 88.849,66.305 87.443,67.794 C86.037,69.282 84.19,71.652 83.34,73.06 C81.339,76.372 74.008,81 70.762,81 C67.907,81 67.563,81.757 65.543,92.5 C64.811,96.389 64.606,99.907 65.08,100.417 C65.595,100.97 68.746,100.803 73.027,99.995 C81.815,98.337 85.352,99.258 85.822,103.329 C86.292,107.397 84.561,108.796 78.18,109.505 C75.056,109.852 67.983,111.231 62.462,112.568 C56.94,113.906 51.765,115.01 50.962,115.022 C50.158,115.034 48.375,115.924 47,117 C44.192,119.196 39.019,119.619 37.2,117.8 C35.672,116.272 35.653,112.747 37.165,111.235 C38.727,109.673 39.457,87.788 38.138,82.033 C37.41,78.855 37.434,77.182 38.222,76.233 C39.946,74.156 44.088,75.212 46.395,78.316 C48.667,81.371 48.879,84.686 47.665,98.146 L46.976,105.793 L51.238,104.844 C53.582,104.322 56.036,103.356 56.691,102.698 C57.864,101.519 58.216,97.32 59.605,67.978 C60.226,54.858 60.094,52.88 58.24,47.478 C55.412,39.24 53.695,31.302 54.471,30.047 Z M156.278,51.021 C163.049,48.296 167.874,51.296 169.317,59.128 C171.197,69.326 170.28,109.324 168.048,114.5 C167.574,115.6 166.643,118.609 165.981,121.186 C164.644,126.387 163.285,127.332 158.452,126.425 C155.705,125.91 154.971,126.187 153.931,128.128 C152.136,131.483 142.928,141 141.477,141 C139.631,141 138.338,138.93 137.59,134.774 C136.948,131.212 137.206,130.75 143.459,124.278 C147.057,120.555 150,117.193 150,116.808 C150,116.422 152.475,114.464 155.5,112.456 C160.519,109.125 161.013,108.464 161.15,104.903 C161.233,102.756 161.345,100.438 161.4,99.75 C161.455,99.063 160.516,98.36 159.313,98.189 C157.799,97.973 156.589,98.743 155.379,100.689 C152.402,105.476 149.736,108 147.654,108 C145.44,108 142,105.309 142,103.577 C142,102.585 145.036,98.531 152.435,89.643 C153.743,88.071 156.318,86.47 158.157,86.084 L161.5,85.382 L161.178,75.99 C160.703,62.161 158.574,59.678 153.487,67.018 C151.956,69.228 149.6,71.313 148.253,71.651 C146.738,72.032 145.414,73.381 144.785,75.188 C143.958,77.559 143.269,78.053 141.133,77.805 C138.852,77.541 138.52,77.064 138.649,74.233 C138.747,72.103 139.966,69.628 142.149,67.126 C143.992,65.014 147.425,60.728 149.778,57.601 C152.13,54.474 155.055,51.513 156.278,51.021 Z M74.099,123.557 C76.537,119.424 80.544,118.733 83.449,121.944 C85.128,123.799 85.127,124.106 83.425,128.694 C82.445,131.337 80.823,134.694 79.821,136.154 C78.819,137.614 78,140.202 78,141.904 C78,144.64 78.331,145 80.845,145 C84.89,145 87.203,147.952 86.816,152.62 C86.54,155.95 86.092,156.553 83.299,157.349 C80.555,158.131 79.653,157.886 76.973,155.63 C73.592,152.785 72.459,152.448 71.5,154 C70.451,155.697 67.127,155.105 66.013,153.024 C65.2,151.505 65.566,149.133 67.596,142.774 C69.048,138.223 70.633,134.072 71.118,133.55 C71.603,133.028 72,131.366 72,129.857 C72,128.349 72.944,125.514 74.099,123.557 Z M132.937,185.5 C132.903,185.5 132.683,190.322 132.449,196.216 C131.961,208.521 132.879,212.299 136.243,211.819 C140.069,211.274 151.36,192.944 150.809,188.174 C150.5,185.503 150.491,185.5 141.75,185.5 Z M65,180.844 C53.572,186.338 47.728,192.817 52.75,194.426 C53.712,194.734 56.269,196.565 58.432,198.493 C62.809,202.398 65,202.942 65,200.126 C65,199.095 66.081,196.283 67.401,193.876 C68.722,191.469 70.105,187.925 70.476,186 C70.846,184.075 71.371,181.713 71.642,180.75 C72.271,178.518 69.766,178.553 65,180.844 Z M35.781,192.75 C33.866,194.943 31.662,201.644 32.442,202.906 C32.763,203.425 32.492,205.021 31.84,206.452 C31.045,208.197 30.986,209.386 31.66,210.06 C32.997,211.397 36,210.176 36,208.294 C36,207.474 36.626,205.384 37.391,203.651 C39.116,199.742 42,192.126 42,191.48 C42,190.213 37.128,191.209 35.781,192.75 Z"/>
</svg>

