<svg xmlns="http://www.w3.org/2000/svg" width="300" height="300" viewBox="0 0 300 300" version="1.1">
  <defs/>
  <path d="M117.712,54.25 C119.949,52.576 120.947,52.671 124.611,54.905 C127.473,56.649 127.777,57.363 128.412,63.803 C129.658,76.445 130.141,88.085 130.716,119.25 C131.089,139.484 131.638,150 132.322,150 C134.162,150 142.943,143.557 143.543,141.766 C143.863,140.812 146.055,138.45 148.415,136.516 C152.753,132.961 156.659,132.059 158.733,134.133 C159.356,134.756 160.628,134.973 161.56,134.615 C162.991,134.066 163.154,133.074 162.607,128.233 C162.251,125.08 161.755,118.225 161.506,113 C160.428,90.441 156.889,71.818 153.553,71.16 C151.129,70.682 143.225,79.176 142.822,82.692 C142.589,84.726 141.949,85.5 140.5,85.5 C138.665,85.5 138.509,84.871 138.613,77.886 C138.746,68.893 140.273,65.725 146.344,61.842 C150.262,59.337 153.695,58.501 158.645,58.849 C161.119,59.023 165.01,65.797 166.775,73 C168.589,80.405 170.145,95.15 170.492,108.214 C170.973,126.309 174.287,177.037 175.614,186.62 C176,189.4 175.667,191.743 174.593,193.821 C173.717,195.515 173,197.331 173,197.856 C173,198.453 181.947,198.604 196.792,198.259 C216.915,197.792 221.81,197.97 228.542,199.413 C254.806,205.044 255.297,205.204 258.026,209.036 C260.506,212.52 260.495,213.496 257.932,217.096 C255.393,220.661 252.579,220.813 250.408,217.5 C249.133,215.554 247.922,215 244.944,215 C242.84,215 240.873,214.604 240.574,214.12 C239.687,212.684 230.639,210.069 222.805,208.983 C211.863,207.466 198.026,207.194 183.5,208.211 C176.35,208.711 162.625,209.304 153,209.529 C143.375,209.754 129.2,210.411 121.5,210.989 C113.8,211.567 105.7,212.152 103.5,212.288 L99.5,212.537 L99.22,217.518 C99.067,220.258 98.673,223.175 98.346,224 C98.019,224.825 97.656,229.907 97.539,235.294 C97.364,243.34 96.965,245.57 95.307,247.794 C92.808,251.143 90.761,251.618 88.514,249.371 C87.197,248.054 86.928,246.672 87.386,243.571 C90.276,224.02 90.288,207.431 87.413,206.328 C86.658,206.038 83.668,206.486 80.77,207.323 C77.871,208.161 72.8,209.6 69.5,210.523 C66.2,211.446 60.585,213.055 57.022,214.1 C45.598,217.45 33.442,216.231 28.786,211.269 C26.515,208.849 26.502,208.665 26.764,183.94 C26.962,165.23 26.665,157.24 25.568,151.773 C24.766,147.773 23.972,141.575 23.805,138 C23.53,132.133 23.695,131.475 25.5,131.245 C28.916,130.808 32.158,133.312 33.571,137.477 C35.122,142.047 35.186,143.03 35.326,164.25 C35.409,176.694 35.712,180 36.77,180 C38.454,180 42.538,170.818 43.228,165.478 C43.918,160.148 48.076,151.578 50.159,151.194 C52.918,150.686 56.214,155.05 55.677,158.5 C55.087,162.293 52.333,170.339 49.902,175.372 C48.874,177.501 48.207,179.526 48.421,179.872 C48.635,180.217 51.44,180.5 54.655,180.5 C60.308,180.5 60.533,180.398 61.501,177.402 C62.052,175.698 63.002,173.673 63.613,172.902 C64.769,171.441 65.462,168.373 67.365,156.299 C67.989,152.338 69.005,148.593 69.623,147.976 C70.24,147.359 72.265,147 74.123,147.177 C77.413,147.492 77.508,147.628 77.814,152.468 C78.094,156.906 77.138,162.87 75.437,167.304 C74.996,168.454 76.266,169.54 80.265,171.432 C89.292,175.703 89.699,175.458 90.55,165.25 C90.951,160.438 90.933,149.525 90.509,141 C89.396,118.583 89.712,111.917 91.996,109.593 C93.77,107.787 94.008,107.775 96.435,109.366 C98.015,110.401 99,111.973 99,113.458 C99,114.784 99.45,117.054 100,118.5 C100.579,120.022 100.639,121.841 100.144,122.815 C99.67,123.747 99.666,128.077 100.135,132.5 C101.345,143.926 101.356,158.075 100.162,168.5 C99.596,173.45 98.99,183.125 98.816,190 L98.5,202.5 L102.5,202.835 C104.7,203.019 109.723,202.871 113.662,202.508 L120.825,201.846 L121.609,192.173 C122.041,186.853 122.4,177.325 122.408,171 C122.436,149.668 119.944,80.525 119.039,77.5 C118.546,75.85 117.669,70.225 117.091,65 C116.155,56.525 116.222,55.365 117.712,54.25 Z M158.129,143.991 C156.148,146.386 153.953,148 152.675,148 C151.363,148 148.561,150.139 145.43,153.531 C139.93,159.488 138.731,159.712 134.197,155.627 C132.603,154.191 131.68,153.905 131.197,154.699 C130.814,155.329 130.5,165.667 130.5,177.672 L130.5,199.5 L149.169,199.5 C159.436,199.5 168.203,199.133 168.65,198.685 C169.097,198.237 168.687,196.519 167.738,194.867 C165.986,191.813 164.212,172.072 163.713,150.082 C163.592,144.717 163.058,140.518 162.473,140.323 C161.908,140.135 159.953,141.786 158.129,143.991 Z M62.69,27.154 C64.882,25.927 65.898,26.452 69.367,30.608 C71.678,33.376 72.335,35.303 72.756,40.548 C73.043,44.126 73.611,47.26 74.018,47.511 C74.425,47.763 74.535,49.942 74.264,52.354 C73.679,57.542 75.422,59.433 77.931,56.333 C78.815,55.242 80.726,53.571 82.177,52.62 C84.792,50.906 84.838,50.921 87.408,54.29 C88.833,56.159 90,58.004 90,58.39 C90,59.835 85.074,63.942 81.601,65.393 C79.621,66.221 78,67.544 78,68.335 C78,69.125 77.328,71.06 76.506,72.636 C74.316,76.836 74.65,80.323 77.5,83 C79.184,84.582 80,86.422 80,88.639 C80,92.508 78.58,93.494 71.5,94.544 C68.498,94.988 65.677,96.127 64.441,97.392 C63.308,98.552 60.383,100.729 57.941,102.231 C55.498,103.733 52.719,105.526 51.764,106.217 C50.315,107.265 49.692,107.137 47.997,105.442 L45.966,103.411 L47.969,97.59 C49.969,91.777 49.969,91.76 47.986,85.719 C46.894,82.392 46,77.953 46,75.854 C46,72.592 46.372,71.945 48.564,71.395 C53.498,70.156 55.289,72.009 56.963,80.085 C58.364,86.844 58.729,87.527 61.086,87.801 C65.56,88.321 66.513,85.884 66.251,74.605 C65.716,51.656 64.037,35.936 61.865,33.55 C60.411,31.953 60.901,28.155 62.69,27.154 Z M74.463,105.75 C76.431,103.509 76.888,103.546 79.686,106.174 C82.524,108.841 82.6,111.383 80,116.764 C77.247,122.463 77.416,126.781 80.52,130.021 C83.618,133.254 85.257,138.343 83.701,139.899 C82.268,141.332 75.722,141.322 74.284,139.884 C73.463,139.063 72.559,139.195 70.862,140.384 C69.593,141.273 67.107,142 65.337,142 C63.566,142 61.849,142.435 61.52,142.967 C61.191,143.499 59.606,143.671 57.996,143.349 C55.754,142.901 54.341,143.377 51.958,145.382 C48.5,148.291 47.735,148.464 44.934,146.965 C42.66,145.748 42.478,142.745 44.353,137.376 C45.098,135.244 46.273,129.675 46.965,125 C48.046,117.694 48.31,115.228 49.614,114.403 C50.377,113.92 51.497,114 53.346,114 C59.753,114 60.945,115.874 58.171,121.585 C56.977,124.043 56,127.391 56,129.027 C56,131.809 58.923,136 60.863,136 C61.971,136 68,119.21 68,116.125 C68,114.027 69.965,110.874 74.463,105.75 Z M72.5,179.208 C69.979,180.654 68.073,183.084 68.032,184.906 C68.014,185.679 66.832,187.843 65.405,189.714 C63.121,192.708 62.43,193.037 59.655,192.447 C57.92,192.079 55.747,191.114 54.828,190.304 C51.86,187.69 45.858,187.527 42.75,189.977 C41.238,191.17 40,192.645 40,193.257 C40,193.868 39.048,196.335 37.884,198.739 C35.826,202.991 35.819,203.15 37.634,204.569 C40.72,206.982 58.027,204.851 66.776,200.981 C69.169,199.923 75.373,198.27 80.563,197.308 L90,195.559 L90,188.173 C90,181.53 89.824,180.859 88.25,181.506 C84.156,183.192 83.274,183.067 81.64,180.574 C79.799,177.764 76.007,177.197 72.5,179.208 Z M143.86,105.201 C146.962,103.466 150.299,102.036 151.275,102.023 C153.06,102 155,105.574 155,108.886 C155,111.148 142.343,121.345 140.44,120.615 C139.654,120.314 138.132,118.62 137.056,116.852 C135.25,113.882 135.22,113.436 136.661,110.997 C137.519,109.544 140.759,106.936 143.86,105.201 Z"/>
</svg>

