<svg xmlns="http://www.w3.org/2000/svg" width="300" height="300" viewBox="0 0 300 300" version="1.1">
  <defs/>
  <path d="M82.5,172.389 C87.661,170.134 93.239,170.666 97.6,173.828 C102.003,177.021 107.138,182.091 111.348,187.405 C114.114,190.896 118.003,193.235 122.877,194.34 C125.414,194.915 128.75,193.19 133.165,189.018 C134.631,187.633 137.106,185.311 138.665,183.858 C143.305,179.533 153.814,175 159.202,175 C163.284,175 164.418,175.485 167.467,178.533 C169.41,180.477 171,182.541 171,183.12 C171,183.699 172.437,186.175 174.194,188.621 C178.02,193.948 185.281,199 189.112,199 C190.636,199 192.16,199.45 192.5,200 C193.785,202.079 197.355,200.844 203.326,196.256 C210.122,191.034 213.92,187.132 213.968,185.323 C214.022,183.341 219.105,180 222.067,180 C225.175,180 229,184.318 229,187.828 C229,190.305 224.69,195.581 221.131,197.462 C219.684,198.226 215.925,201.386 212.778,204.484 C206.145,211.012 197.803,217 195.339,217 C194.398,217 192.7,216.192 191.564,215.205 C190.429,214.217 187.7,212.827 185.5,212.114 C177.486,209.519 168.222,202.089 162.629,193.769 C159.943,189.774 156.648,189.145 152.904,191.913 C151.351,193.061 149.699,194 149.233,194 C148.767,194 144.962,197.613 140.778,202.028 L133.17,210.056 L124.335,209.595 C113.577,209.034 109.952,207.607 106.199,202.458 C103.286,198.462 100.652,195.68 93.119,188.643 C88.087,183.943 86.198,184.175 80.349,190.214 C71.104,199.76 67.097,203.614 64.052,205.886 C59.13,209.56 55.168,207.748 44.871,197.117 C32.068,183.898 30.906,180 39.769,180 C44.47,180 44.777,180.19 51.051,186.993 C54.598,190.839 57.856,193.989 58.292,193.993 C58.727,193.997 63.677,189.433 69.292,183.85 C74.906,178.268 80.85,173.11 82.5,172.389 Z"/>
</svg>

