<svg xmlns="http://www.w3.org/2000/svg" width="300" height="300" viewBox="0 0 300 300" version="1.1">
  <defs/>
  <path d="M129.073,158.635 C132.198,154.662 138.01,154.93 142.405,159.25 C148.491,165.232 148.672,170.792 143.153,182.3 C140.869,187.063 139,191.375 139,191.881 C139,192.388 137.422,194.085 135.494,195.652 C133.565,197.218 130.469,199.738 128.612,201.25 C124.281,204.778 122,204.831 122,201.404 C122,199.202 124.951,193.675 127.022,192 C127.361,191.725 129.071,188.833 130.82,185.572 C134.699,178.341 134.898,174.818 131.55,172.624 C129.424,171.231 127.023,165.821 127.006,162.385 C127.003,161.772 127.933,160.084 129.073,158.635 Z M131.635,101.073 C135.175,98.288 136.96,98.458 140.777,101.944 C144.988,105.789 144.889,108.643 140.386,113.279 C136.053,117.74 132.65,118.085 128.74,114.46 C125.65,111.595 125.309,109.818 127.5,108 C128.325,107.315 129,105.943 129,104.95 C129,103.957 130.186,102.212 131.635,101.073 Z"/>
</svg>

