<svg xmlns="http://www.w3.org/2000/svg" width="300" height="300" viewBox="0 0 300 300" version="1.1">
  <defs/>
  <path d="M125.498,125.862 C133.971,123.434 140.083,123.497 142.811,126.039 C144.015,127.16 145,128.236 145,128.429 C145,128.622 143.425,131.967 141.5,135.863 C139.575,139.758 138,143.662 138,144.539 C138,145.416 136.875,147.608 135.5,149.411 C134.125,151.214 133,153.198 133,153.819 C133,154.847 129.824,161.097 123.312,172.885 C121.979,175.296 121.097,177.81 121.351,178.471 C121.936,179.996 131.416,184.584 135.917,185.521 C137.796,185.912 140.721,187.078 142.417,188.112 C144.113,189.146 146.247,189.994 147.161,189.996 C149.773,190.002 154.154,195.868 153.803,198.89 C153.53,201.24 153.095,201.493 149.432,201.427 C145.756,201.361 140.645,199.539 132.669,195.451 C131.112,194.653 129.171,194 128.356,194 C127.541,194 124.441,192.809 121.467,191.353 C117.22,189.273 115.757,188.957 114.646,189.879 C112.563,191.608 103.689,210.205 102.42,215.5 C102.024,217.15 100.418,220.926 98.851,223.891 C95.489,230.248 95.441,230.63 97.833,231.911 C99.127,232.603 103.055,232.189 111.184,230.503 C117.519,229.189 126.682,227.584 131.548,226.937 C136.414,226.289 142.368,224.914 144.78,223.88 C150.45,221.449 157.079,221.434 160.054,223.843 L162.33,225.686 L160.021,230.457 L157.711,235.228 L153.345,234.735 C150.92,234.462 147.316,234.837 145.239,235.578 C143.183,236.312 139.614,236.932 137.309,236.956 C135.004,236.98 132.84,237.45 132.5,238 C132.16,238.55 129.455,239 126.49,239 C121.02,239 110.697,241.219 108.631,242.839 C108.009,243.327 104.036,244.005 99.803,244.346 L92.106,244.966 L88.425,241.494 C84.969,238.234 84.774,237.73 85.248,233.261 C85.722,228.789 86.788,225.503 88.9,222 C89.397,221.175 91.977,214.875 94.632,208 C97.288,201.125 100.482,193.613 101.73,191.308 C102.979,189.002 103.998,186.527 103.996,185.808 C103.992,184.36 96.63,181 93.462,181 C90.68,181 87,178.247 87,176.166 C87,170.377 93.4,168.323 100.155,171.943 C104.873,174.472 110.947,175.011 112.054,173 C113.456,170.453 120,156.185 120,155.674 C120,155.409 121.575,152.406 123.5,149 C125.425,145.594 127,141.449 127,139.787 C127,137.157 126.71,136.839 124.75,137.324 C123.513,137.63 120.25,138.409 117.5,139.056 C114.75,139.702 112.05,140.57 111.5,140.985 C110.95,141.4 107.575,142.041 104,142.41 C100.425,142.779 96.15,143.315 94.5,143.602 C91.077,144.197 87,141.193 87,138.076 C87,135.712 93.949,133.346 103.536,132.445 C107.366,132.086 112.524,130.844 114.998,129.687 C117.472,128.529 122.197,126.808 125.498,125.862 Z"/>
</svg>

