<svg xmlns="http://www.w3.org/2000/svg" width="300" height="300" viewBox="0 0 300 300" version="1.1">
  <defs/>
  <path d="M125.2,121.2 C126.827,119.573 131.491,119.682 132.901,121.381 C133.716,122.363 133.861,127.192 133.402,138.131 C132.44,161.029 132.349,172.382 133.118,173.5 C133.496,174.05 133.962,182.696 134.153,192.714 C134.458,208.701 134.296,211.132 132.828,212.6 C129.305,216.124 124.758,210.729 124.444,202.654 C124.333,199.819 123.675,183.192 122.981,165.705 C122.034,141.826 122.004,133.288 122.86,131.408 C123.487,130.032 124,127.442 124,125.653 C124,123.864 124.54,121.86 125.2,121.2 Z M129.859,78.006 C133.029,76.13 141.057,79.309 140.969,82.405 C140.908,84.504 136.412,86.754 128.045,88.869 C123.411,90.041 118.728,91 117.638,91 C113.114,91 110.178,84.757 113.432,82.057 C114.219,81.403 117.868,80.443 121.541,79.923 C125.213,79.403 128.957,78.54 129.859,78.006 Z"/>
</svg>

