<svg xmlns="http://www.w3.org/2000/svg" width="300" height="300" viewBox="0 0 300 300" version="1.1">
  <defs/>
  <path d="M100.865,46.75 C103.658,43.367 109.884,45.532 108.41,49.373 C107.584,51.526 109.019,51.45 117.057,48.913 C123.238,46.962 124.869,46.88 141.982,47.663 C160.153,48.494 160.308,48.52 162.247,51.123 C164.275,53.845 164.066,56.794 160.977,69 C160.49,70.925 159.42,78.35 158.599,85.5 C156.577,103.105 156.381,104.463 154.702,112.5 C153.897,116.35 152.936,123.1 152.565,127.5 C152.194,131.9 150.77,140.45 149.4,146.5 C146.012,161.461 145.469,164.235 142.545,181.5 C141.148,189.75 138.914,202.575 137.581,210 C133.702,231.598 133,236.436 133,241.551 C133,249.797 126.305,254.167 122.521,248.391 C120.923,245.953 120.917,245.258 122.428,237.76 C123.317,233.347 124.237,229.425 124.472,229.045 C124.708,228.664 125.394,224.376 125.998,219.515 C126.602,214.654 128.198,205.142 129.544,198.378 C130.89,191.613 132.169,183.578 132.387,180.523 C132.604,177.467 133.229,174.412 133.775,173.734 C134.321,173.055 135.294,169.125 135.938,165 C136.582,160.875 137.51,156.15 138.001,154.5 C138.492,152.85 139.205,148.575 139.587,145 C139.968,141.425 140.635,137.543 141.069,136.372 C141.502,135.202 142.369,129.577 142.994,123.872 C143.619,118.168 145.025,107.386 146.118,99.912 C147.212,92.439 148.195,80.527 148.303,73.44 C148.489,61.254 148.392,60.538 146.5,60.226 C145.4,60.045 143.499,59.4 142.276,58.793 C140.788,58.055 136.01,57.907 127.839,58.347 C117.568,58.899 115.287,59.321 113.498,61.002 C112.328,62.101 110.639,63 109.745,63 C108.85,63 107.757,63.563 107.316,64.25 C105.818,66.584 104.088,74.481 104.044,79.191 C104.02,81.771 103.55,84.16 103,84.5 C102.45,84.84 102,86.857 102,88.983 C102,91.108 101.507,95.244 100.905,98.174 C100.303,101.103 99.502,105.062 99.124,106.971 C98.567,109.793 97.826,110.619 95.165,111.382 C92.571,112.125 91.55,111.979 90.245,110.673 C88.769,109.198 88.731,108.22 89.882,101.263 C90.589,96.993 91.38,91.7 91.64,89.5 C91.9,87.3 92.489,84.6 92.947,83.5 C93.406,82.4 94.302,75.732 94.938,68.683 C96.049,56.386 97.576,50.735 100.865,46.75 Z"/>
</svg>

